{"data":{"content":{"trimmedSequence":{"filename":"cumparsita_tango.mid","ticksPerQuarter":192,"timeSignatures":[{"time":0,"numerator":4,"denominator":4}],"tempos":[{"time":0,"qpm":115.00024916720653}],"notes":[{"pitch":38,"velocity":55,"startTime":0,"endTime":0.05434770833333369,"instrument":0,"program":0,"isDrum":true},{"pitch":38,"velocity":85,"startTime":0,"endTime":0.05434770833333369,"instrument":0,"program":0,"isDrum":true},{"pitch":51,"velocity":87,"startTime":0,"endTime":0.10326064583333361,"instrument":0,"program":0,"isDrum":true},{"pitch":38,"velocity":55,"startTime":0.521738,"endTime":0.5869552499999999,"instrument":0,"program":0,"isDrum":true},{"pitch":38,"velocity":85,"startTime":0.521738,"endTime":0.5869552499999999,"instrument":0,"program":0,"isDrum":true},{"pitch":44,"velocity":95,"startTime":0.521738,"endTime":0.6304334166666665,"instrument":0,"program":0,"isDrum":true},{"pitch":38,"velocity":55,"startTime":1.043476,"endTime":1.10869325,"instrument":0,"program":0,"isDrum":true},{"pitch":38,"velocity":85,"startTime":1.043476,"endTime":1.10869325,"instrument":0,"program":0,"isDrum":true},{"pitch":44,"velocity":95,"startTime":1.043476,"endTime":1.1467366458333337,"instrument":0,"program":0,"isDrum":true},{"pitch":38,"velocity":55,"startTime":1.565214,"endTime":1.63043125,"instrument":0,"program":0,"isDrum":true},{"pitch":38,"velocity":85,"startTime":1.565214,"endTime":1.63043125,"instrument":0,"program":0,"isDrum":true},{"pitch":44,"velocity":95,"startTime":1.565214,"endTime":1.6684746458333337,"instrument":0,"program":0,"isDrum":true},{"pitch":38,"velocity":34,"startTime":1.8260830000000001,"endTime":1.8695611666666667,"instrument":0,"program":0,"isDrum":true},{"pitch":46,"velocity":69,"startTime":1.8260830000000001,"endTime":2.0760824583333335,"instrument":0,"program":0,"isDrum":true},{"pitch":38,"velocity":39,"startTime":1.8695611666666667,"endTime":1.9130393333333338,"instrument":0,"program":0,"isDrum":true},{"pitch":38,"velocity":39,"startTime":1.9130393333333338,"endTime":1.9565175000000004,"instrument":0,"program":0,"isDrum":true},{"pitch":38,"velocity":42,"startTime":1.9565175000000004,"endTime":1.999995666666667,"instrument":0,"program":0,"isDrum":true},{"pitch":38,"velocity":48,"startTime":1.999995666666667,"endTime":2.0434738333333335,"instrument":0,"program":0,"isDrum":true},{"pitch":38,"velocity":53,"startTime":2.0434738333333335,"endTime":2.086952,"instrument":0,"program":0,"isDrum":true},{"pitch":38,"velocity":55,"startTime":2.086952,"endTime":2.15216925,"instrument":0,"program":0,"isDrum":true},{"pitch":38,"velocity":85,"startTime":2.086952,"endTime":2.15216925,"instrument":0,"program":0,"isDrum":true},{"pitch":44,"velocity":95,"startTime":2.086952,"endTime":2.1956474166666675,"instrument":0,"program":0,"isDrum":true},{"pitch":38,"velocity":55,"startTime":2.60869,"endTime":2.67390725,"instrument":0,"program":0,"isDrum":true},{"pitch":38,"velocity":85,"startTime":2.60869,"endTime":2.67390725,"instrument":0,"program":0,"isDrum":true},{"pitch":44,"velocity":95,"startTime":2.60869,"endTime":2.7119506458333333,"instrument":0,"program":0,"isDrum":true},{"pitch":38,"velocity":55,"startTime":3.130428,"endTime":3.19564525,"instrument":0,"program":0,"isDrum":true},{"pitch":38,"velocity":85,"startTime":3.130428,"endTime":3.19564525,"instrument":0,"program":0,"isDrum":true},{"pitch":44,"velocity":95,"startTime":3.130428,"endTime":3.2391234166666676,"instrument":0,"program":0,"isDrum":true},{"pitch":38,"velocity":55,"startTime":3.6521660000000002,"endTime":3.71738325,"instrument":0,"program":0,"isDrum":true},{"pitch":38,"velocity":85,"startTime":3.6521660000000002,"endTime":3.71738325,"instrument":0,"program":0,"isDrum":true},{"pitch":44,"velocity":95,"startTime":3.6521660000000002,"endTime":3.7608614166666676,"instrument":0,"program":0,"isDrum":true},{"pitch":38,"velocity":34,"startTime":3.9130350000000007,"endTime":3.9565131666666673,"instrument":0,"program":0,"isDrum":true},{"pitch":46,"velocity":69,"startTime":3.9130350000000007,"endTime":4.163034458333334,"instrument":0,"program":0,"isDrum":true},{"pitch":38,"velocity":39,"startTime":3.9565131666666673,"endTime":3.999991333333333,"instrument":0,"program":0,"isDrum":true},{"pitch":38,"velocity":39,"startTime":3.999991333333333,"endTime":4.0434695000000005,"instrument":0,"program":0,"isDrum":true},{"pitch":38,"velocity":42,"startTime":4.0434695000000005,"endTime":4.086947666666667,"instrument":0,"program":0,"isDrum":true},{"pitch":38,"velocity":48,"startTime":4.086947666666667,"endTime":4.130425833333334,"instrument":0,"program":0,"isDrum":true},{"pitch":38,"velocity":53,"startTime":4.130425833333334,"endTime":4.173904,"instrument":0,"program":0,"isDrum":true},{"pitch":38,"velocity":55,"startTime":4.173904,"endTime":4.23912125,"instrument":0,"program":0,"isDrum":true},{"pitch":38,"velocity":85,"startTime":4.173904,"endTime":4.23912125,"instrument":0,"program":0,"isDrum":true},{"pitch":44,"velocity":95,"startTime":4.173904,"endTime":4.282599416666668,"instrument":0,"program":0,"isDrum":true},{"pitch":38,"velocity":55,"startTime":4.695642,"endTime":4.76085925,"instrument":0,"program":0,"isDrum":true},{"pitch":38,"velocity":85,"startTime":4.695642,"endTime":4.76085925,"instrument":0,"program":0,"isDrum":true},{"pitch":44,"velocity":95,"startTime":4.695642,"endTime":4.804337416666668,"instrument":0,"program":0,"isDrum":true},{"pitch":38,"velocity":55,"startTime":5.21738,"endTime":5.28259725,"instrument":0,"program":0,"isDrum":true},{"pitch":38,"velocity":85,"startTime":5.21738,"endTime":5.28259725,"instrument":0,"program":0,"isDrum":true},{"pitch":44,"velocity":95,"startTime":5.21738,"endTime":5.315205875,"instrument":0,"program":0,"isDrum":true},{"pitch":38,"velocity":55,"startTime":5.739118,"endTime":5.80433525,"instrument":0,"program":0,"isDrum":true},{"pitch":38,"velocity":85,"startTime":5.739118,"endTime":5.80433525,"instrument":0,"program":0,"isDrum":true},{"pitch":44,"velocity":95,"startTime":5.739118,"endTime":5.8423786458333336,"instrument":0,"program":0,"isDrum":true},{"pitch":38,"velocity":34,"startTime":5.999987000000001,"endTime":6.043465166666667,"instrument":0,"program":0,"isDrum":true},{"pitch":46,"velocity":69,"startTime":5.999987000000001,"endTime":6.249986458333334,"instrument":0,"program":0,"isDrum":true},{"pitch":38,"velocity":39,"startTime":6.043465166666667,"endTime":6.086943333333334,"instrument":0,"program":0,"isDrum":true},{"pitch":38,"velocity":39,"startTime":6.086943333333334,"endTime":6.130421500000001,"instrument":0,"program":0,"isDrum":true},{"pitch":38,"velocity":42,"startTime":6.130421500000001,"endTime":6.173899666666667,"instrument":0,"program":0,"isDrum":true},{"pitch":38,"velocity":48,"startTime":6.173899666666667,"endTime":6.217377833333334,"instrument":0,"program":0,"isDrum":true},{"pitch":38,"velocity":53,"startTime":6.217377833333334,"endTime":6.260856,"instrument":0,"program":0,"isDrum":true},{"pitch":38,"velocity":55,"startTime":6.260856,"endTime":6.32607325,"instrument":0,"program":0,"isDrum":true},{"pitch":38,"velocity":85,"startTime":6.260856,"endTime":6.32607325,"instrument":0,"program":0,"isDrum":true},{"pitch":44,"velocity":95,"startTime":6.260856,"endTime":6.385855729166666,"instrument":0,"program":0,"isDrum":true},{"pitch":38,"velocity":55,"startTime":6.782594,"endTime":6.847811250000001,"instrument":0,"program":0,"isDrum":true},{"pitch":38,"velocity":85,"startTime":6.782594,"endTime":6.847811250000001,"instrument":0,"program":0,"isDrum":true},{"pitch":44,"velocity":95,"startTime":6.782594,"endTime":6.8967241875,"instrument":0,"program":0,"isDrum":true},{"pitch":38,"velocity":55,"startTime":7.3043320000000005,"endTime":7.36954925,"instrument":0,"program":0,"isDrum":true},{"pitch":38,"velocity":85,"startTime":7.3043320000000005,"endTime":7.36954925,"instrument":0,"program":0,"isDrum":true},{"pitch":44,"velocity":95,"startTime":7.3043320000000005,"endTime":7.4075926458333345,"instrument":0,"program":0,"isDrum":true},{"pitch":38,"velocity":55,"startTime":7.826070000000001,"endTime":7.891287250000001,"instrument":0,"program":0,"isDrum":true},{"pitch":38,"velocity":85,"startTime":7.826070000000001,"endTime":7.891287250000001,"instrument":0,"program":0,"isDrum":true},{"pitch":44,"velocity":95,"startTime":7.826070000000001,"endTime":7.923895875000001,"instrument":0,"program":0,"isDrum":true},{"pitch":38,"velocity":34,"startTime":8.086939000000001,"endTime":8.130417166666666,"instrument":0,"program":0,"isDrum":true},{"pitch":46,"velocity":69,"startTime":8.086939000000001,"endTime":8.336938458333334,"instrument":0,"program":0,"isDrum":true},{"pitch":38,"velocity":39,"startTime":8.130417166666666,"endTime":8.173895333333334,"instrument":0,"program":0,"isDrum":true},{"pitch":38,"velocity":39,"startTime":8.173895333333334,"endTime":8.2173735,"instrument":0,"program":0,"isDrum":true},{"pitch":38,"velocity":42,"startTime":8.2173735,"endTime":8.260851666666667,"instrument":0,"program":0,"isDrum":true},{"pitch":38,"velocity":48,"startTime":8.260851666666667,"endTime":8.304329833333334,"instrument":0,"program":0,"isDrum":true},{"pitch":38,"velocity":53,"startTime":8.304329833333334,"endTime":8.347808,"instrument":0,"program":0,"isDrum":true},{"pitch":38,"velocity":55,"startTime":8.347808,"endTime":8.41302525,"instrument":0,"program":0,"isDrum":true},{"pitch":38,"velocity":85,"startTime":8.347808,"endTime":8.41302525,"instrument":0,"program":0,"isDrum":true},{"pitch":44,"velocity":95,"startTime":8.347808,"endTime":8.456503416666667,"instrument":0,"program":0,"isDrum":true},{"pitch":38,"velocity":55,"startTime":8.869546,"endTime":8.934763250000001,"instrument":0,"program":0,"isDrum":true},{"pitch":38,"velocity":85,"startTime":8.869546,"endTime":8.934763250000001,"instrument":0,"program":0,"isDrum":true},{"pitch":44,"velocity":95,"startTime":8.869546,"endTime":8.972806645833334,"instrument":0,"program":0,"isDrum":true},{"pitch":38,"velocity":55,"startTime":9.391284,"endTime":9.45650125,"instrument":0,"program":0,"isDrum":true},{"pitch":38,"velocity":85,"startTime":9.391284,"endTime":9.45650125,"instrument":0,"program":0,"isDrum":true},{"pitch":44,"velocity":95,"startTime":9.391284,"endTime":9.489109875,"instrument":0,"program":0,"isDrum":true},{"pitch":38,"velocity":55,"startTime":9.913022000000002,"endTime":9.978239250000001,"instrument":0,"program":0,"isDrum":true},{"pitch":38,"velocity":85,"startTime":9.913022000000002,"endTime":9.978239250000001,"instrument":0,"program":0,"isDrum":true},{"pitch":44,"velocity":95,"startTime":9.913022000000002,"endTime":10.005413104166667,"instrument":0,"program":0,"isDrum":true},{"pitch":38,"velocity":34,"startTime":10.173891000000001,"endTime":10.217369166666666,"instrument":0,"program":0,"isDrum":true},{"pitch":46,"velocity":69,"startTime":10.173891000000001,"endTime":10.423890458333334,"instrument":0,"program":0,"isDrum":true},{"pitch":38,"velocity":39,"startTime":10.217369166666666,"endTime":10.260847333333334,"instrument":0,"program":0,"isDrum":true},{"pitch":38,"velocity":39,"startTime":10.260847333333334,"endTime":10.304325500000001,"instrument":0,"program":0,"isDrum":true},{"pitch":38,"velocity":42,"startTime":10.304325500000001,"endTime":10.347803666666668,"instrument":0,"program":0,"isDrum":true},{"pitch":38,"velocity":48,"startTime":10.347803666666668,"endTime":10.391281833333334,"instrument":0,"program":0,"isDrum":true},{"pitch":38,"velocity":53,"startTime":10.391281833333334,"endTime":10.43476,"instrument":0,"program":0,"isDrum":true},{"pitch":38,"velocity":55,"startTime":10.43476,"endTime":10.489107708333334,"instrument":0,"program":0,"isDrum":true},{"pitch":38,"velocity":85,"startTime":10.43476,"endTime":10.489107708333334,"instrument":0,"program":0,"isDrum":true},{"pitch":44,"velocity":95,"startTime":10.43476,"endTime":10.538020645833335,"instrument":0,"program":0,"isDrum":true},{"pitch":38,"velocity":55,"startTime":10.956498,"endTime":11.021715250000002,"instrument":0,"program":0,"isDrum":true},{"pitch":38,"velocity":85,"startTime":10.956498,"endTime":11.021715250000002,"instrument":0,"program":0,"isDrum":true},{"pitch":44,"velocity":95,"startTime":10.956498,"endTime":11.065193416666666,"instrument":0,"program":0,"isDrum":true},{"pitch":38,"velocity":55,"startTime":11.478236,"endTime":11.54345325,"instrument":0,"program":0,"isDrum":true},{"pitch":38,"velocity":85,"startTime":11.478236,"endTime":11.54345325,"instrument":0,"program":0,"isDrum":true},{"pitch":44,"velocity":95,"startTime":11.478236,"endTime":11.581496645833335,"instrument":0,"program":0,"isDrum":true},{"pitch":38,"velocity":55,"startTime":11.999974000000002,"endTime":12.065191250000002,"instrument":0,"program":0,"isDrum":true},{"pitch":38,"velocity":85,"startTime":11.999974000000002,"endTime":12.065191250000002,"instrument":0,"program":0,"isDrum":true},{"pitch":44,"velocity":95,"startTime":11.999974000000002,"endTime":12.103234645833334,"instrument":0,"program":0,"isDrum":true},{"pitch":38,"velocity":34,"startTime":12.260843000000001,"endTime":12.304321166666666,"instrument":0,"program":0,"isDrum":true},{"pitch":46,"velocity":69,"startTime":12.260843000000001,"endTime":12.510842458333334,"instrument":0,"program":0,"isDrum":true},{"pitch":38,"velocity":39,"startTime":12.304321166666666,"endTime":12.347799333333334,"instrument":0,"program":0,"isDrum":true},{"pitch":38,"velocity":39,"startTime":12.347799333333334,"endTime":12.391277500000001,"instrument":0,"program":0,"isDrum":true},{"pitch":38,"velocity":42,"startTime":12.391277500000001,"endTime":12.434755666666668,"instrument":0,"program":0,"isDrum":true},{"pitch":38,"velocity":48,"startTime":12.434755666666668,"endTime":12.478233833333334,"instrument":0,"program":0,"isDrum":true},{"pitch":38,"velocity":53,"startTime":12.478233833333334,"endTime":12.521712,"instrument":0,"program":0,"isDrum":true},{"pitch":38,"velocity":55,"startTime":12.521712,"endTime":12.58692925,"instrument":0,"program":0,"isDrum":true},{"pitch":38,"velocity":85,"startTime":12.521712,"endTime":12.58692925,"instrument":0,"program":0,"isDrum":true},{"pitch":44,"velocity":95,"startTime":12.521712,"endTime":12.630407416666667,"instrument":0,"program":0,"isDrum":true},{"pitch":38,"velocity":55,"startTime":13.04345,"endTime":13.108667250000002,"instrument":0,"program":0,"isDrum":true},{"pitch":38,"velocity":85,"startTime":13.04345,"endTime":13.108667250000002,"instrument":0,"program":0,"isDrum":true},{"pitch":44,"velocity":95,"startTime":13.04345,"endTime":13.146710645833334,"instrument":0,"program":0,"isDrum":true},{"pitch":38,"velocity":55,"startTime":13.565188000000001,"endTime":13.63040525,"instrument":0,"program":0,"isDrum":true},{"pitch":38,"velocity":85,"startTime":13.565188000000001,"endTime":13.63040525,"instrument":0,"program":0,"isDrum":true},{"pitch":44,"velocity":95,"startTime":13.565188000000001,"endTime":13.673883416666667,"instrument":0,"program":0,"isDrum":true},{"pitch":38,"velocity":55,"startTime":14.086926000000002,"endTime":14.152143250000002,"instrument":0,"program":0,"isDrum":true},{"pitch":38,"velocity":85,"startTime":14.086926000000002,"endTime":14.152143250000002,"instrument":0,"program":0,"isDrum":true},{"pitch":44,"velocity":95,"startTime":14.086926000000002,"endTime":14.195621416666668,"instrument":0,"program":0,"isDrum":true},{"pitch":38,"velocity":34,"startTime":14.347795000000001,"endTime":14.391273166666668,"instrument":0,"program":0,"isDrum":true},{"pitch":46,"velocity":69,"startTime":14.347795000000001,"endTime":14.597794458333336,"instrument":0,"program":0,"isDrum":true},{"pitch":38,"velocity":39,"startTime":14.391273166666668,"endTime":14.434751333333335,"instrument":0,"program":0,"isDrum":true},{"pitch":38,"velocity":39,"startTime":14.434751333333335,"endTime":14.478229500000001,"instrument":0,"program":0,"isDrum":true},{"pitch":38,"velocity":42,"startTime":14.478229500000001,"endTime":14.521707666666668,"instrument":0,"program":0,"isDrum":true},{"pitch":38,"velocity":48,"startTime":14.521707666666668,"endTime":14.565185833333334,"instrument":0,"program":0,"isDrum":true},{"pitch":38,"velocity":53,"startTime":14.565185833333334,"endTime":14.608664000000001,"instrument":0,"program":0,"isDrum":true},{"pitch":38,"velocity":55,"startTime":14.608664000000001,"endTime":14.67388125,"instrument":0,"program":0,"isDrum":true},{"pitch":38,"velocity":85,"startTime":14.608664000000001,"endTime":14.67388125,"instrument":0,"program":0,"isDrum":true},{"pitch":44,"velocity":95,"startTime":14.608664000000001,"endTime":14.717359416666667,"instrument":0,"program":0,"isDrum":true},{"pitch":38,"velocity":55,"startTime":15.130402,"endTime":15.19561925,"instrument":0,"program":0,"isDrum":true},{"pitch":38,"velocity":85,"startTime":15.130402,"endTime":15.19561925,"instrument":0,"program":0,"isDrum":true},{"pitch":44,"velocity":95,"startTime":15.130402,"endTime":15.23909741666667,"instrument":0,"program":0,"isDrum":true},{"pitch":38,"velocity":55,"startTime":15.65214,"endTime":15.717357250000003,"instrument":0,"program":0,"isDrum":true},{"pitch":38,"velocity":85,"startTime":15.65214,"endTime":15.717357250000003,"instrument":0,"program":0,"isDrum":true},{"pitch":44,"velocity":95,"startTime":15.65214,"endTime":15.749965875000001,"instrument":0,"program":0,"isDrum":true},{"pitch":38,"velocity":55,"startTime":16.173878000000002,"endTime":16.239095250000002,"instrument":0,"program":0,"isDrum":true},{"pitch":38,"velocity":85,"startTime":16.173878000000002,"endTime":16.239095250000002,"instrument":0,"program":0,"isDrum":true},{"pitch":44,"velocity":95,"startTime":16.173878000000002,"endTime":16.277138645833332,"instrument":0,"program":0,"isDrum":true},{"pitch":38,"velocity":34,"startTime":16.434747,"endTime":16.478225166666668,"instrument":0,"program":0,"isDrum":true},{"pitch":46,"velocity":69,"startTime":16.434747,"endTime":16.684746458333333,"instrument":0,"program":0,"isDrum":true},{"pitch":38,"velocity":39,"startTime":16.478225166666668,"endTime":16.521703333333335,"instrument":0,"program":0,"isDrum":true},{"pitch":38,"velocity":39,"startTime":16.521703333333335,"endTime":16.5651815,"instrument":0,"program":0,"isDrum":true},{"pitch":38,"velocity":42,"startTime":16.5651815,"endTime":16.608659666666668,"instrument":0,"program":0,"isDrum":true},{"pitch":38,"velocity":48,"startTime":16.608659666666668,"endTime":16.652137833333335,"instrument":0,"program":0,"isDrum":true},{"pitch":38,"velocity":53,"startTime":16.652137833333335,"endTime":16.695616,"instrument":0,"program":0,"isDrum":true},{"pitch":38,"velocity":55,"startTime":16.695616,"endTime":16.76083325,"instrument":0,"program":0,"isDrum":true},{"pitch":38,"velocity":85,"startTime":16.695616,"endTime":16.76083325,"instrument":0,"program":0,"isDrum":true},{"pitch":44,"velocity":95,"startTime":16.695616,"endTime":16.82061572916667,"instrument":0,"program":0,"isDrum":true},{"pitch":38,"velocity":55,"startTime":17.217354,"endTime":17.28257125,"instrument":0,"program":0,"isDrum":true},{"pitch":38,"velocity":85,"startTime":17.217354,"endTime":17.28257125,"instrument":0,"program":0,"isDrum":true},{"pitch":44,"velocity":95,"startTime":17.217354,"endTime":17.331484187500003,"instrument":0,"program":0,"isDrum":true},{"pitch":38,"velocity":55,"startTime":17.739092000000003,"endTime":17.804309250000003,"instrument":0,"program":0,"isDrum":true},{"pitch":38,"velocity":85,"startTime":17.739092000000003,"endTime":17.804309250000003,"instrument":0,"program":0,"isDrum":true},{"pitch":44,"velocity":95,"startTime":17.739092000000003,"endTime":17.842352645833333,"instrument":0,"program":0,"isDrum":true},{"pitch":38,"velocity":55,"startTime":18.260830000000002,"endTime":18.326047250000002,"instrument":0,"program":0,"isDrum":true},{"pitch":38,"velocity":85,"startTime":18.260830000000002,"endTime":18.326047250000002,"instrument":0,"program":0,"isDrum":true},{"pitch":44,"velocity":95,"startTime":18.260830000000002,"endTime":18.358655875,"instrument":0,"program":0,"isDrum":true},{"pitch":38,"velocity":34,"startTime":18.521699,"endTime":18.56517716666667,"instrument":0,"program":0,"isDrum":true},{"pitch":46,"velocity":69,"startTime":18.521699,"endTime":18.771698458333333,"instrument":0,"program":0,"isDrum":true},{"pitch":38,"velocity":39,"startTime":18.56517716666667,"endTime":18.608655333333335,"instrument":0,"program":0,"isDrum":true},{"pitch":38,"velocity":39,"startTime":18.608655333333335,"endTime":18.6521335,"instrument":0,"program":0,"isDrum":true},{"pitch":38,"velocity":42,"startTime":18.6521335,"endTime":18.695611666666668,"instrument":0,"program":0,"isDrum":true},{"pitch":38,"velocity":48,"startTime":18.695611666666668,"endTime":18.739089833333335,"instrument":0,"program":0,"isDrum":true},{"pitch":38,"velocity":53,"startTime":18.739089833333335,"endTime":18.782568,"instrument":0,"program":0,"isDrum":true},{"pitch":38,"velocity":55,"startTime":18.782568,"endTime":18.84778525,"instrument":0,"program":0,"isDrum":true},{"pitch":38,"velocity":85,"startTime":18.782568,"endTime":18.84778525,"instrument":0,"program":0,"isDrum":true},{"pitch":44,"velocity":95,"startTime":18.782568,"endTime":18.891263416666668,"instrument":0,"program":0,"isDrum":true},{"pitch":38,"velocity":55,"startTime":19.304306,"endTime":19.36952325,"instrument":0,"program":0,"isDrum":true},{"pitch":38,"velocity":85,"startTime":19.304306,"endTime":19.36952325,"instrument":0,"program":0,"isDrum":true},{"pitch":44,"velocity":95,"startTime":19.304306,"endTime":19.407566645833334,"instrument":0,"program":0,"isDrum":true},{"pitch":38,"velocity":55,"startTime":19.826044,"endTime":19.891261250000003,"instrument":0,"program":0,"isDrum":true},{"pitch":38,"velocity":85,"startTime":19.826044,"endTime":19.891261250000003,"instrument":0,"program":0,"isDrum":true},{"pitch":44,"velocity":95,"startTime":19.826044,"endTime":19.923869875,"instrument":0,"program":0,"isDrum":true},{"pitch":38,"velocity":55,"startTime":20.347782000000002,"endTime":20.412999250000002,"instrument":0,"program":0,"isDrum":true},{"pitch":38,"velocity":85,"startTime":20.347782000000002,"endTime":20.412999250000002,"instrument":0,"program":0,"isDrum":true},{"pitch":44,"velocity":95,"startTime":20.347782000000002,"endTime":20.440173104166668,"instrument":0,"program":0,"isDrum":true},{"pitch":38,"velocity":34,"startTime":20.608651000000002,"endTime":20.65212916666667,"instrument":0,"program":0,"isDrum":true},{"pitch":46,"velocity":69,"startTime":20.608651000000002,"endTime":20.858650458333333,"instrument":0,"program":0,"isDrum":true},{"pitch":38,"velocity":39,"startTime":20.65212916666667,"endTime":20.695607333333335,"instrument":0,"program":0,"isDrum":true},{"pitch":38,"velocity":39,"startTime":20.695607333333335,"endTime":20.7390855,"instrument":0,"program":0,"isDrum":true},{"pitch":38,"velocity":42,"startTime":20.7390855,"endTime":20.782563666666668,"instrument":0,"program":0,"isDrum":true},{"pitch":38,"velocity":48,"startTime":20.782563666666668,"endTime":20.826041833333335,"instrument":0,"program":0,"isDrum":true},{"pitch":38,"velocity":53,"startTime":20.826041833333335,"endTime":20.86952,"instrument":0,"program":0,"isDrum":true},{"pitch":38,"velocity":55,"startTime":20.86952,"endTime":20.93473725,"instrument":0,"program":0,"isDrum":true},{"pitch":38,"velocity":85,"startTime":20.86952,"endTime":20.93473725,"instrument":0,"program":0,"isDrum":true},{"pitch":44,"velocity":95,"startTime":20.86952,"endTime":20.978215416666668,"instrument":0,"program":0,"isDrum":true},{"pitch":38,"velocity":55,"startTime":21.391258,"endTime":21.45647525,"instrument":0,"program":0,"isDrum":true},{"pitch":38,"velocity":85,"startTime":21.391258,"endTime":21.45647525,"instrument":0,"program":0,"isDrum":true},{"pitch":44,"velocity":95,"startTime":21.391258,"endTime":21.494518645833335,"instrument":0,"program":0,"isDrum":true},{"pitch":38,"velocity":55,"startTime":21.912996000000003,"endTime":21.978213250000003,"instrument":0,"program":0,"isDrum":true},{"pitch":38,"velocity":85,"startTime":21.912996000000003,"endTime":21.978213250000003,"instrument":0,"program":0,"isDrum":true},{"pitch":44,"velocity":95,"startTime":21.912996000000003,"endTime":22.010821875,"instrument":0,"program":0,"isDrum":true},{"pitch":38,"velocity":55,"startTime":22.434734000000002,"endTime":22.499951250000002,"instrument":0,"program":0,"isDrum":true},{"pitch":38,"velocity":85,"startTime":22.434734000000002,"endTime":22.499951250000002,"instrument":0,"program":0,"isDrum":true},{"pitch":44,"velocity":95,"startTime":22.434734000000002,"endTime":22.527125104166668,"instrument":0,"program":0,"isDrum":true},{"pitch":38,"velocity":34,"startTime":22.695603000000002,"endTime":22.73908116666667,"instrument":0,"program":0,"isDrum":true},{"pitch":46,"velocity":69,"startTime":22.695603000000002,"endTime":22.945602458333333,"instrument":0,"program":0,"isDrum":true},{"pitch":38,"velocity":39,"startTime":22.73908116666667,"endTime":22.782559333333335,"instrument":0,"program":0,"isDrum":true},{"pitch":38,"velocity":39,"startTime":22.782559333333335,"endTime":22.8260375,"instrument":0,"program":0,"isDrum":true},{"pitch":38,"velocity":42,"startTime":22.8260375,"endTime":22.86951566666667,"instrument":0,"program":0,"isDrum":true},{"pitch":38,"velocity":48,"startTime":22.86951566666667,"endTime":22.912993833333335,"instrument":0,"program":0,"isDrum":true},{"pitch":38,"velocity":53,"startTime":22.912993833333335,"endTime":22.956472,"instrument":0,"program":0,"isDrum":true},{"pitch":38,"velocity":55,"startTime":22.956472,"endTime":23.02168925,"instrument":0,"program":0,"isDrum":true},{"pitch":38,"velocity":85,"startTime":22.956472,"endTime":23.02168925,"instrument":0,"program":0,"isDrum":true},{"pitch":44,"velocity":95,"startTime":22.956472,"endTime":23.065167416666668,"instrument":0,"program":0,"isDrum":true},{"pitch":38,"velocity":55,"startTime":23.47821,"endTime":23.54342725,"instrument":0,"program":0,"isDrum":true},{"pitch":38,"velocity":85,"startTime":23.47821,"endTime":23.54342725,"instrument":0,"program":0,"isDrum":true},{"pitch":44,"velocity":95,"startTime":23.47821,"endTime":23.581470645833335,"instrument":0,"program":0,"isDrum":true},{"pitch":38,"velocity":55,"startTime":23.999948,"endTime":24.065165250000003,"instrument":0,"program":0,"isDrum":true},{"pitch":38,"velocity":85,"startTime":23.999948,"endTime":24.065165250000003,"instrument":0,"program":0,"isDrum":true},{"pitch":44,"velocity":95,"startTime":23.999948,"endTime":24.097773875,"instrument":0,"program":0,"isDrum":true},{"pitch":38,"velocity":55,"startTime":24.521686000000003,"endTime":24.586903250000002,"instrument":0,"program":0,"isDrum":true},{"pitch":38,"velocity":85,"startTime":24.521686000000003,"endTime":24.586903250000002,"instrument":0,"program":0,"isDrum":true},{"pitch":44,"velocity":95,"startTime":24.521686000000003,"endTime":24.614077104166668,"instrument":0,"program":0,"isDrum":true},{"pitch":38,"velocity":34,"startTime":24.782555000000002,"endTime":24.82603316666667,"instrument":0,"program":0,"isDrum":true},{"pitch":46,"velocity":69,"startTime":24.782555000000002,"endTime":25.032554458333333,"instrument":0,"program":0,"isDrum":true},{"pitch":38,"velocity":39,"startTime":24.82603316666667,"endTime":24.869511333333335,"instrument":0,"program":0,"isDrum":true},{"pitch":38,"velocity":39,"startTime":24.869511333333335,"endTime":24.912989500000002,"instrument":0,"program":0,"isDrum":true},{"pitch":38,"velocity":42,"startTime":24.912989500000002,"endTime":24.95646766666667,"instrument":0,"program":0,"isDrum":true},{"pitch":38,"velocity":48,"startTime":24.95646766666667,"endTime":24.999945833333335,"instrument":0,"program":0,"isDrum":true},{"pitch":38,"velocity":53,"startTime":24.999945833333335,"endTime":25.043424,"instrument":0,"program":0,"isDrum":true},{"pitch":38,"velocity":55,"startTime":25.043424,"endTime":25.10864125,"instrument":0,"program":0,"isDrum":true},{"pitch":38,"velocity":85,"startTime":25.043424,"endTime":25.10864125,"instrument":0,"program":0,"isDrum":true},{"pitch":44,"velocity":95,"startTime":25.043424,"endTime":25.152119416666668,"instrument":0,"program":0,"isDrum":true},{"pitch":38,"velocity":55,"startTime":25.565162,"endTime":25.63037925,"instrument":0,"program":0,"isDrum":true},{"pitch":38,"velocity":85,"startTime":25.565162,"endTime":25.63037925,"instrument":0,"program":0,"isDrum":true},{"pitch":44,"velocity":95,"startTime":25.565162,"endTime":25.668422645833335,"instrument":0,"program":0,"isDrum":true},{"pitch":38,"velocity":55,"startTime":26.086900000000004,"endTime":26.152117250000003,"instrument":0,"program":0,"isDrum":true},{"pitch":38,"velocity":85,"startTime":26.086900000000004,"endTime":26.152117250000003,"instrument":0,"program":0,"isDrum":true},{"pitch":44,"velocity":95,"startTime":26.086900000000004,"endTime":26.184725875,"instrument":0,"program":0,"isDrum":true},{"pitch":38,"velocity":55,"startTime":26.608638000000003,"endTime":26.673855250000003,"instrument":0,"program":0,"isDrum":true},{"pitch":38,"velocity":85,"startTime":26.608638000000003,"endTime":26.673855250000003,"instrument":0,"program":0,"isDrum":true},{"pitch":44,"velocity":95,"startTime":26.608638000000003,"endTime":26.70102910416667,"instrument":0,"program":0,"isDrum":true},{"pitch":38,"velocity":34,"startTime":26.869507000000002,"endTime":26.91298516666667,"instrument":0,"program":0,"isDrum":true},{"pitch":46,"velocity":69,"startTime":26.869507000000002,"endTime":27.119506458333333,"instrument":0,"program":0,"isDrum":true},{"pitch":38,"velocity":39,"startTime":26.91298516666667,"endTime":26.956463333333335,"instrument":0,"program":0,"isDrum":true},{"pitch":38,"velocity":39,"startTime":26.956463333333335,"endTime":26.999941500000002,"instrument":0,"program":0,"isDrum":true},{"pitch":38,"velocity":42,"startTime":26.999941500000002,"endTime":27.04341966666667,"instrument":0,"program":0,"isDrum":true},{"pitch":38,"velocity":48,"startTime":27.04341966666667,"endTime":27.086897833333335,"instrument":0,"program":0,"isDrum":true},{"pitch":38,"velocity":53,"startTime":27.086897833333335,"endTime":27.130376000000002,"instrument":0,"program":0,"isDrum":true},{"pitch":38,"velocity":55,"startTime":27.130376000000002,"endTime":27.19559325,"instrument":0,"program":0,"isDrum":true},{"pitch":38,"velocity":85,"startTime":27.130376000000002,"endTime":27.19559325,"instrument":0,"program":0,"isDrum":true},{"pitch":44,"velocity":95,"startTime":27.130376000000002,"endTime":27.228201875000003,"instrument":0,"program":0,"isDrum":true},{"pitch":38,"velocity":55,"startTime":27.652114,"endTime":27.71733125,"instrument":0,"program":0,"isDrum":true},{"pitch":38,"velocity":85,"startTime":27.652114,"endTime":27.71733125,"instrument":0,"program":0,"isDrum":true},{"pitch":44,"velocity":95,"startTime":27.652114,"endTime":27.749939875000003,"instrument":0,"program":0,"isDrum":true},{"pitch":38,"velocity":55,"startTime":28.173852,"endTime":28.239069250000004,"instrument":0,"program":0,"isDrum":true},{"pitch":38,"velocity":85,"startTime":28.173852,"endTime":28.239069250000004,"instrument":0,"program":0,"isDrum":true},{"pitch":44,"velocity":95,"startTime":28.173852,"endTime":28.26624310416667,"instrument":0,"program":0,"isDrum":true},{"pitch":38,"velocity":55,"startTime":28.695590000000003,"endTime":28.760807250000003,"instrument":0,"program":0,"isDrum":true},{"pitch":38,"velocity":85,"startTime":28.695590000000003,"endTime":28.760807250000003,"instrument":0,"program":0,"isDrum":true},{"pitch":44,"velocity":95,"startTime":28.695590000000003,"endTime":28.798850645833333,"instrument":0,"program":0,"isDrum":true},{"pitch":38,"velocity":34,"startTime":28.956459000000002,"endTime":28.99993716666667,"instrument":0,"program":0,"isDrum":true},{"pitch":46,"velocity":69,"startTime":28.956459000000002,"endTime":29.206458458333334,"instrument":0,"program":0,"isDrum":true},{"pitch":38,"velocity":39,"startTime":28.99993716666667,"endTime":29.043415333333336,"instrument":0,"program":0,"isDrum":true},{"pitch":38,"velocity":39,"startTime":29.043415333333336,"endTime":29.086893500000002,"instrument":0,"program":0,"isDrum":true},{"pitch":38,"velocity":42,"startTime":29.086893500000002,"endTime":29.13037166666667,"instrument":0,"program":0,"isDrum":true},{"pitch":38,"velocity":48,"startTime":29.13037166666667,"endTime":29.173849833333335,"instrument":0,"program":0,"isDrum":true},{"pitch":38,"velocity":53,"startTime":29.173849833333335,"endTime":29.217328000000002,"instrument":0,"program":0,"isDrum":true},{"pitch":38,"velocity":55,"startTime":29.217328000000002,"endTime":29.282545250000002,"instrument":0,"program":0,"isDrum":true},{"pitch":38,"velocity":85,"startTime":29.217328000000002,"endTime":29.282545250000002,"instrument":0,"program":0,"isDrum":true},{"pitch":51,"velocity":87,"startTime":29.217328000000002,"endTime":29.30971910416667,"instrument":0,"program":0,"isDrum":true},{"pitch":70,"velocity":78,"startTime":31.304280000000002,"endTime":31.412975416666665,"instrument":0,"program":0,"isDrum":true},{"pitch":51,"velocity":85,"startTime":31.565149,"endTime":31.777105062500002,"instrument":0,"program":0,"isDrum":true},{"pitch":38,"velocity":55,"startTime":31.826018,"endTime":31.92927864583334,"instrument":0,"program":0,"isDrum":true},{"pitch":38,"velocity":85,"startTime":31.826018,"endTime":31.92927864583334,"instrument":0,"program":0,"isDrum":true},{"pitch":44,"velocity":95,"startTime":31.826018,"endTime":32.07601745833334,"instrument":0,"program":0,"isDrum":true},{"pitch":38,"velocity":55,"startTime":32.347756000000004,"endTime":32.44014710416667,"instrument":0,"program":0,"isDrum":true},{"pitch":38,"velocity":85,"startTime":32.347756000000004,"endTime":32.44014710416667,"instrument":0,"program":0,"isDrum":true},{"pitch":44,"velocity":66,"startTime":32.347756000000004,"endTime":32.4781905,"instrument":0,"program":0,"isDrum":true},{"pitch":51,"velocity":87,"startTime":32.347756000000004,"endTime":32.532538208333335,"instrument":0,"program":0,"isDrum":true},{"pitch":38,"velocity":34,"startTime":33.130363,"endTime":33.17384116666666,"instrument":0,"program":0,"isDrum":true},{"pitch":46,"velocity":69,"startTime":33.130363,"endTime":33.38036245833334,"instrument":0,"program":0,"isDrum":true},{"pitch":38,"velocity":39,"startTime":33.17384116666666,"endTime":33.217319333333336,"instrument":0,"program":0,"isDrum":true},{"pitch":38,"velocity":39,"startTime":33.217319333333336,"endTime":33.260797499999995,"instrument":0,"program":0,"isDrum":true},{"pitch":38,"velocity":42,"startTime":33.260797499999995,"endTime":33.30427566666667,"instrument":0,"program":0,"isDrum":true},{"pitch":38,"velocity":48,"startTime":33.30427566666667,"endTime":33.34775383333334,"instrument":0,"program":0,"isDrum":true},{"pitch":38,"velocity":53,"startTime":33.34775383333334,"endTime":33.391232,"instrument":0,"program":0,"isDrum":true},{"pitch":38,"velocity":55,"startTime":33.391232,"endTime":33.44557970833334,"instrument":0,"program":0,"isDrum":true},{"pitch":38,"velocity":85,"startTime":33.391232,"endTime":33.44557970833334,"instrument":0,"program":0,"isDrum":true},{"pitch":51,"velocity":87,"startTime":33.391232,"endTime":33.49449264583333,"instrument":0,"program":0,"isDrum":true},{"pitch":38,"velocity":55,"startTime":33.91297,"endTime":33.978187250000005,"instrument":0,"program":0,"isDrum":true},{"pitch":38,"velocity":85,"startTime":33.91297,"endTime":33.978187250000005,"instrument":0,"program":0,"isDrum":true},{"pitch":44,"velocity":95,"startTime":33.91297,"endTime":34.021665416666664,"instrument":0,"program":0,"isDrum":true},{"pitch":38,"velocity":55,"startTime":34.434708,"endTime":34.499925250000004,"instrument":0,"program":0,"isDrum":true},{"pitch":38,"velocity":85,"startTime":34.434708,"endTime":34.499925250000004,"instrument":0,"program":0,"isDrum":true},{"pitch":44,"velocity":95,"startTime":34.434708,"endTime":34.53796864583333,"instrument":0,"program":0,"isDrum":true},{"pitch":38,"velocity":55,"startTime":34.956446,"endTime":35.02166325,"instrument":0,"program":0,"isDrum":true},{"pitch":38,"velocity":85,"startTime":34.956446,"endTime":35.02166325,"instrument":0,"program":0,"isDrum":true},{"pitch":44,"velocity":95,"startTime":34.956446,"endTime":35.059706645833344,"instrument":0,"program":0,"isDrum":true},{"pitch":38,"velocity":34,"startTime":35.217315,"endTime":35.26079316666667,"instrument":0,"program":0,"isDrum":true},{"pitch":46,"velocity":69,"startTime":35.217315,"endTime":35.467314458333334,"instrument":0,"program":0,"isDrum":true},{"pitch":38,"velocity":39,"startTime":35.26079316666667,"endTime":35.30427133333333,"instrument":0,"program":0,"isDrum":true},{"pitch":38,"velocity":39,"startTime":35.30427133333333,"endTime":35.347749500000006,"instrument":0,"program":0,"isDrum":true},{"pitch":38,"velocity":42,"startTime":35.347749500000006,"endTime":35.391227666666666,"instrument":0,"program":0,"isDrum":true},{"pitch":38,"velocity":48,"startTime":35.391227666666666,"endTime":35.43470583333334,"instrument":0,"program":0,"isDrum":true},{"pitch":38,"velocity":53,"startTime":35.43470583333334,"endTime":35.478184,"instrument":0,"program":0,"isDrum":true},{"pitch":38,"velocity":55,"startTime":35.478184,"endTime":35.54340125,"instrument":0,"program":0,"isDrum":true},{"pitch":38,"velocity":85,"startTime":35.478184,"endTime":35.54340125,"instrument":0,"program":0,"isDrum":true},{"pitch":44,"velocity":95,"startTime":35.478184,"endTime":35.58687941666666,"instrument":0,"program":0,"isDrum":true},{"pitch":38,"velocity":55,"startTime":35.999922,"endTime":36.06513925,"instrument":0,"program":0,"isDrum":true},{"pitch":38,"velocity":85,"startTime":35.999922,"endTime":36.06513925,"instrument":0,"program":0,"isDrum":true},{"pitch":44,"velocity":95,"startTime":35.999922,"endTime":36.10318264583334,"instrument":0,"program":0,"isDrum":true},{"pitch":38,"velocity":55,"startTime":36.52166,"endTime":36.58687725,"instrument":0,"program":0,"isDrum":true},{"pitch":38,"velocity":85,"startTime":36.52166,"endTime":36.58687725,"instrument":0,"program":0,"isDrum":true},{"pitch":44,"velocity":95,"startTime":36.52166,"endTime":36.63035541666666,"instrument":0,"program":0,"isDrum":true},{"pitch":38,"velocity":55,"startTime":37.043397999999996,"endTime":37.10861525,"instrument":0,"program":0,"isDrum":true},{"pitch":38,"velocity":85,"startTime":37.043397999999996,"endTime":37.10861525,"instrument":0,"program":0,"isDrum":true},{"pitch":44,"velocity":95,"startTime":37.043397999999996,"endTime":37.15209341666667,"instrument":0,"program":0,"isDrum":true},{"pitch":38,"velocity":34,"startTime":37.304266999999996,"endTime":37.34774516666667,"instrument":0,"program":0,"isDrum":true},{"pitch":46,"velocity":69,"startTime":37.304266999999996,"endTime":37.554266458333345,"instrument":0,"program":0,"isDrum":true},{"pitch":38,"velocity":39,"startTime":37.34774516666667,"endTime":37.39122333333334,"instrument":0,"program":0,"isDrum":true},{"pitch":38,"velocity":39,"startTime":37.39122333333334,"endTime":37.4347015,"instrument":0,"program":0,"isDrum":true},{"pitch":38,"velocity":42,"startTime":37.4347015,"endTime":37.47817966666666,"instrument":0,"program":0,"isDrum":true},{"pitch":38,"velocity":48,"startTime":37.47817966666666,"endTime":37.521657833333336,"instrument":0,"program":0,"isDrum":true},{"pitch":38,"velocity":53,"startTime":37.521657833333336,"endTime":37.56513600000001,"instrument":0,"program":0,"isDrum":true},{"pitch":38,"velocity":55,"startTime":37.56513600000001,"endTime":37.63035325,"instrument":0,"program":0,"isDrum":true},{"pitch":38,"velocity":85,"startTime":37.56513600000001,"endTime":37.63035325,"instrument":0,"program":0,"isDrum":true},{"pitch":44,"velocity":95,"startTime":37.56513600000001,"endTime":37.67383141666667,"instrument":0,"program":0,"isDrum":true},{"pitch":38,"velocity":55,"startTime":38.08687400000001,"endTime":38.15209125,"instrument":0,"program":0,"isDrum":true},{"pitch":38,"velocity":85,"startTime":38.08687400000001,"endTime":38.15209125,"instrument":0,"program":0,"isDrum":true},{"pitch":44,"velocity":95,"startTime":38.08687400000001,"endTime":38.19556941666667,"instrument":0,"program":0,"isDrum":true},{"pitch":38,"velocity":55,"startTime":38.60861200000001,"endTime":38.67382925,"instrument":0,"program":0,"isDrum":true},{"pitch":38,"velocity":85,"startTime":38.60861200000001,"endTime":38.67382925,"instrument":0,"program":0,"isDrum":true},{"pitch":44,"velocity":95,"startTime":38.60861200000001,"endTime":38.706437875000006,"instrument":0,"program":0,"isDrum":true},{"pitch":38,"velocity":55,"startTime":39.13035000000001,"endTime":39.195567249999996,"instrument":0,"program":0,"isDrum":true},{"pitch":38,"velocity":85,"startTime":39.13035000000001,"endTime":39.195567249999996,"instrument":0,"program":0,"isDrum":true},{"pitch":44,"velocity":95,"startTime":39.13035000000001,"endTime":39.23361064583334,"instrument":0,"program":0,"isDrum":true},{"pitch":38,"velocity":34,"startTime":39.39121900000001,"endTime":39.434697166666666,"instrument":0,"program":0,"isDrum":true},{"pitch":46,"velocity":69,"startTime":39.39121900000001,"endTime":39.64121845833334,"instrument":0,"program":0,"isDrum":true},{"pitch":38,"velocity":39,"startTime":39.434697166666666,"endTime":39.47817533333334,"instrument":0,"program":0,"isDrum":true},{"pitch":38,"velocity":39,"startTime":39.47817533333334,"endTime":39.5216535,"instrument":0,"program":0,"isDrum":true},{"pitch":38,"velocity":42,"startTime":39.5216535,"endTime":39.56513166666667,"instrument":0,"program":0,"isDrum":true},{"pitch":38,"velocity":48,"startTime":39.56513166666667,"endTime":39.60860983333333,"instrument":0,"program":0,"isDrum":true},{"pitch":38,"velocity":53,"startTime":39.60860983333333,"endTime":39.652088000000006,"instrument":0,"program":0,"isDrum":true},{"pitch":38,"velocity":55,"startTime":39.652088000000006,"endTime":39.71730525000001,"instrument":0,"program":0,"isDrum":true},{"pitch":38,"velocity":85,"startTime":39.652088000000006,"endTime":39.71730525000001,"instrument":0,"program":0,"isDrum":true},{"pitch":44,"velocity":95,"startTime":39.652088000000006,"endTime":39.77708772916667,"instrument":0,"program":0,"isDrum":true},{"pitch":38,"velocity":55,"startTime":40.173826000000005,"endTime":40.23904325000001,"instrument":0,"program":0,"isDrum":true},{"pitch":38,"velocity":85,"startTime":40.173826000000005,"endTime":40.23904325000001,"instrument":0,"program":0,"isDrum":true},{"pitch":44,"velocity":95,"startTime":40.173826000000005,"endTime":40.2879561875,"instrument":0,"program":0,"isDrum":true},{"pitch":38,"velocity":55,"startTime":40.695564000000005,"endTime":40.76078125000001,"instrument":0,"program":0,"isDrum":true},{"pitch":38,"velocity":85,"startTime":40.695564000000005,"endTime":40.76078125000001,"instrument":0,"program":0,"isDrum":true},{"pitch":44,"velocity":95,"startTime":40.695564000000005,"endTime":40.798824645833335,"instrument":0,"program":0,"isDrum":true},{"pitch":38,"velocity":55,"startTime":41.217302000000004,"endTime":41.28251925000001,"instrument":0,"program":0,"isDrum":true},{"pitch":38,"velocity":85,"startTime":41.217302000000004,"endTime":41.28251925000001,"instrument":0,"program":0,"isDrum":true},{"pitch":44,"velocity":95,"startTime":41.217302000000004,"endTime":41.315127875,"instrument":0,"program":0,"isDrum":true},{"pitch":38,"velocity":34,"startTime":41.478171,"endTime":41.52164916666666,"instrument":0,"program":0,"isDrum":true},{"pitch":46,"velocity":69,"startTime":41.478171,"endTime":41.72817045833334,"instrument":0,"program":0,"isDrum":true},{"pitch":38,"velocity":39,"startTime":41.52164916666666,"endTime":41.565127333333336,"instrument":0,"program":0,"isDrum":true},{"pitch":38,"velocity":39,"startTime":41.565127333333336,"endTime":41.608605499999996,"instrument":0,"program":0,"isDrum":true},{"pitch":38,"velocity":42,"startTime":41.608605499999996,"endTime":41.65208366666667,"instrument":0,"program":0,"isDrum":true},{"pitch":38,"velocity":48,"startTime":41.65208366666667,"endTime":41.69556183333334,"instrument":0,"program":0,"isDrum":true},{"pitch":38,"velocity":53,"startTime":41.69556183333334,"endTime":41.73904,"instrument":0,"program":0,"isDrum":true},{"pitch":38,"velocity":55,"startTime":41.73904,"endTime":41.804257250000006,"instrument":0,"program":0,"isDrum":true},{"pitch":38,"velocity":85,"startTime":41.73904,"endTime":41.804257250000006,"instrument":0,"program":0,"isDrum":true},{"pitch":44,"velocity":95,"startTime":41.73904,"endTime":41.847735416666666,"instrument":0,"program":0,"isDrum":true},{"pitch":38,"velocity":55,"startTime":42.260778,"endTime":42.325995250000005,"instrument":0,"program":0,"isDrum":true},{"pitch":38,"velocity":85,"startTime":42.260778,"endTime":42.325995250000005,"instrument":0,"program":0,"isDrum":true},{"pitch":44,"velocity":95,"startTime":42.260778,"endTime":42.36403864583333,"instrument":0,"program":0,"isDrum":true},{"pitch":38,"velocity":55,"startTime":42.782516,"endTime":42.847733250000005,"instrument":0,"program":0,"isDrum":true},{"pitch":38,"velocity":85,"startTime":42.782516,"endTime":42.847733250000005,"instrument":0,"program":0,"isDrum":true},{"pitch":44,"velocity":95,"startTime":42.782516,"endTime":42.880341875,"instrument":0,"program":0,"isDrum":true},{"pitch":38,"velocity":55,"startTime":43.304254,"endTime":43.369471250000004,"instrument":0,"program":0,"isDrum":true},{"pitch":38,"velocity":85,"startTime":43.304254,"endTime":43.369471250000004,"instrument":0,"program":0,"isDrum":true},{"pitch":44,"velocity":95,"startTime":43.304254,"endTime":43.396645104166666,"instrument":0,"program":0,"isDrum":true},{"pitch":38,"velocity":34,"startTime":43.565123,"endTime":43.60860116666667,"instrument":0,"program":0,"isDrum":true},{"pitch":46,"velocity":69,"startTime":43.565123,"endTime":43.815122458333335,"instrument":0,"program":0,"isDrum":true},{"pitch":38,"velocity":39,"startTime":43.60860116666667,"endTime":43.65207933333333,"instrument":0,"program":0,"isDrum":true},{"pitch":38,"velocity":39,"startTime":43.65207933333333,"endTime":43.69555750000001,"instrument":0,"program":0,"isDrum":true},{"pitch":38,"velocity":42,"startTime":43.69555750000001,"endTime":43.739035666666666,"instrument":0,"program":0,"isDrum":true},{"pitch":38,"velocity":48,"startTime":43.739035666666666,"endTime":43.78251383333334,"instrument":0,"program":0,"isDrum":true},{"pitch":38,"velocity":53,"startTime":43.78251383333334,"endTime":43.825992,"instrument":0,"program":0,"isDrum":true},{"pitch":38,"velocity":55,"startTime":43.825992,"endTime":43.88033970833334,"instrument":0,"program":0,"isDrum":true},{"pitch":38,"velocity":85,"startTime":43.825992,"endTime":43.88033970833334,"instrument":0,"program":0,"isDrum":true},{"pitch":44,"velocity":95,"startTime":43.825992,"endTime":43.929252645833344,"instrument":0,"program":0,"isDrum":true},{"pitch":38,"velocity":55,"startTime":44.34773,"endTime":44.41294725,"instrument":0,"program":0,"isDrum":true},{"pitch":38,"velocity":85,"startTime":44.34773,"endTime":44.41294725,"instrument":0,"program":0,"isDrum":true},{"pitch":44,"velocity":95,"startTime":44.34773,"endTime":44.45642541666666,"instrument":0,"program":0,"isDrum":true},{"pitch":38,"velocity":55,"startTime":44.869468,"endTime":44.93468525,"instrument":0,"program":0,"isDrum":true},{"pitch":38,"velocity":85,"startTime":44.869468,"endTime":44.93468525,"instrument":0,"program":0,"isDrum":true},{"pitch":44,"velocity":95,"startTime":44.869468,"endTime":44.97272864583334,"instrument":0,"program":0,"isDrum":true},{"pitch":38,"velocity":55,"startTime":45.391206,"endTime":45.45642325,"instrument":0,"program":0,"isDrum":true},{"pitch":38,"velocity":85,"startTime":45.391206,"endTime":45.45642325,"instrument":0,"program":0,"isDrum":true},{"pitch":44,"velocity":95,"startTime":45.391206,"endTime":45.49446664583334,"instrument":0,"program":0,"isDrum":true},{"pitch":38,"velocity":34,"startTime":45.652074999999996,"endTime":45.69555316666667,"instrument":0,"program":0,"isDrum":true},{"pitch":46,"velocity":69,"startTime":45.652074999999996,"endTime":45.902074458333345,"instrument":0,"program":0,"isDrum":true},{"pitch":38,"velocity":39,"startTime":45.69555316666667,"endTime":45.739031333333344,"instrument":0,"program":0,"isDrum":true},{"pitch":38,"velocity":39,"startTime":45.739031333333344,"endTime":45.7825095,"instrument":0,"program":0,"isDrum":true},{"pitch":38,"velocity":42,"startTime":45.7825095,"endTime":45.82598766666666,"instrument":0,"program":0,"isDrum":true},{"pitch":38,"velocity":48,"startTime":45.82598766666666,"endTime":45.86946583333334,"instrument":0,"program":0,"isDrum":true},{"pitch":38,"velocity":53,"startTime":45.86946583333334,"endTime":45.91294400000001,"instrument":0,"program":0,"isDrum":true},{"pitch":38,"velocity":55,"startTime":45.91294400000001,"endTime":45.97816125,"instrument":0,"program":0,"isDrum":true},{"pitch":38,"velocity":85,"startTime":45.91294400000001,"endTime":45.97816125,"instrument":0,"program":0,"isDrum":true},{"pitch":44,"velocity":95,"startTime":45.91294400000001,"endTime":46.02163941666667,"instrument":0,"program":0,"isDrum":true},{"pitch":38,"velocity":55,"startTime":46.43468200000001,"endTime":46.49989925,"instrument":0,"program":0,"isDrum":true},{"pitch":38,"velocity":85,"startTime":46.43468200000001,"endTime":46.49989925,"instrument":0,"program":0,"isDrum":true},{"pitch":44,"velocity":95,"startTime":46.43468200000001,"endTime":46.53794264583334,"instrument":0,"program":0,"isDrum":true},{"pitch":38,"velocity":55,"startTime":46.95642000000001,"endTime":47.02163725,"instrument":0,"program":0,"isDrum":true},{"pitch":38,"velocity":85,"startTime":46.95642000000001,"endTime":47.02163725,"instrument":0,"program":0,"isDrum":true},{"pitch":44,"velocity":95,"startTime":46.95642000000001,"endTime":47.06511541666667,"instrument":0,"program":0,"isDrum":true},{"pitch":38,"velocity":55,"startTime":47.47815800000001,"endTime":47.54337525,"instrument":0,"program":0,"isDrum":true},{"pitch":38,"velocity":85,"startTime":47.47815800000001,"endTime":47.54337525,"instrument":0,"program":0,"isDrum":true},{"pitch":44,"velocity":95,"startTime":47.47815800000001,"endTime":47.58685341666667,"instrument":0,"program":0,"isDrum":true},{"pitch":38,"velocity":34,"startTime":47.73902700000001,"endTime":47.78250516666667,"instrument":0,"program":0,"isDrum":true},{"pitch":46,"velocity":69,"startTime":47.73902700000001,"endTime":47.98902645833334,"instrument":0,"program":0,"isDrum":true},{"pitch":38,"velocity":39,"startTime":47.78250516666667,"endTime":47.82598333333334,"instrument":0,"program":0,"isDrum":true},{"pitch":38,"velocity":39,"startTime":47.82598333333334,"endTime":47.8694615,"instrument":0,"program":0,"isDrum":true},{"pitch":38,"velocity":42,"startTime":47.8694615,"endTime":47.912939666666674,"instrument":0,"program":0,"isDrum":true},{"pitch":38,"velocity":48,"startTime":47.912939666666674,"endTime":47.95641783333333,"instrument":0,"program":0,"isDrum":true},{"pitch":38,"velocity":53,"startTime":47.95641783333333,"endTime":47.99989600000001,"instrument":0,"program":0,"isDrum":true},{"pitch":38,"velocity":55,"startTime":47.99989600000001,"endTime":48.06511325000001,"instrument":0,"program":0,"isDrum":true},{"pitch":38,"velocity":85,"startTime":47.99989600000001,"endTime":48.06511325000001,"instrument":0,"program":0,"isDrum":true},{"pitch":44,"velocity":95,"startTime":47.99989600000001,"endTime":48.10859141666667,"instrument":0,"program":0,"isDrum":true},{"pitch":38,"velocity":55,"startTime":48.521634000000006,"endTime":48.58685125000001,"instrument":0,"program":0,"isDrum":true},{"pitch":38,"velocity":85,"startTime":48.521634000000006,"endTime":48.58685125000001,"instrument":0,"program":0,"isDrum":true},{"pitch":44,"velocity":95,"startTime":48.521634000000006,"endTime":48.63032941666667,"instrument":0,"program":0,"isDrum":true},{"pitch":38,"velocity":55,"startTime":49.043372000000005,"endTime":49.10858925000001,"instrument":0,"program":0,"isDrum":true},{"pitch":38,"velocity":85,"startTime":49.043372000000005,"endTime":49.10858925000001,"instrument":0,"program":0,"isDrum":true},{"pitch":44,"velocity":95,"startTime":49.043372000000005,"endTime":49.141197875,"instrument":0,"program":0,"isDrum":true},{"pitch":38,"velocity":55,"startTime":49.565110000000004,"endTime":49.63032725000001,"instrument":0,"program":0,"isDrum":true},{"pitch":38,"velocity":85,"startTime":49.565110000000004,"endTime":49.63032725000001,"instrument":0,"program":0,"isDrum":true},{"pitch":44,"velocity":95,"startTime":49.565110000000004,"endTime":49.668370645833335,"instrument":0,"program":0,"isDrum":true},{"pitch":38,"velocity":34,"startTime":49.825979000000004,"endTime":49.86945716666666,"instrument":0,"program":0,"isDrum":true},{"pitch":46,"velocity":69,"startTime":49.825979000000004,"endTime":50.07597845833334,"instrument":0,"program":0,"isDrum":true},{"pitch":38,"velocity":39,"startTime":49.86945716666666,"endTime":49.91293533333334,"instrument":0,"program":0,"isDrum":true},{"pitch":38,"velocity":39,"startTime":49.91293533333334,"endTime":49.9564135,"instrument":0,"program":0,"isDrum":true},{"pitch":38,"velocity":42,"startTime":49.9564135,"endTime":49.99989166666667,"instrument":0,"program":0,"isDrum":true},{"pitch":38,"velocity":48,"startTime":49.99989166666667,"endTime":50.043369833333344,"instrument":0,"program":0,"isDrum":true},{"pitch":38,"velocity":53,"startTime":50.043369833333344,"endTime":50.086848,"instrument":0,"program":0,"isDrum":true},{"pitch":38,"velocity":55,"startTime":50.086848,"endTime":50.15206525000001,"instrument":0,"program":0,"isDrum":true},{"pitch":38,"velocity":85,"startTime":50.086848,"endTime":50.15206525000001,"instrument":0,"program":0,"isDrum":true},{"pitch":44,"velocity":95,"startTime":50.086848,"endTime":50.211847729166664,"instrument":0,"program":0,"isDrum":true},{"pitch":38,"velocity":55,"startTime":50.608586,"endTime":50.673803250000006,"instrument":0,"program":0,"isDrum":true},{"pitch":38,"velocity":85,"startTime":50.608586,"endTime":50.673803250000006,"instrument":0,"program":0,"isDrum":true},{"pitch":44,"velocity":95,"startTime":50.608586,"endTime":50.7227161875,"instrument":0,"program":0,"isDrum":true},{"pitch":38,"velocity":55,"startTime":51.130324,"endTime":51.195541250000005,"instrument":0,"program":0,"isDrum":true},{"pitch":38,"velocity":85,"startTime":51.130324,"endTime":51.195541250000005,"instrument":0,"program":0,"isDrum":true},{"pitch":44,"velocity":95,"startTime":51.130324,"endTime":51.23358464583333,"instrument":0,"program":0,"isDrum":true},{"pitch":38,"velocity":55,"startTime":51.652062,"endTime":51.717279250000004,"instrument":0,"program":0,"isDrum":true},{"pitch":38,"velocity":85,"startTime":51.652062,"endTime":51.717279250000004,"instrument":0,"program":0,"isDrum":true},{"pitch":44,"velocity":95,"startTime":51.652062,"endTime":51.749887875,"instrument":0,"program":0,"isDrum":true},{"pitch":38,"velocity":34,"startTime":51.912931,"endTime":51.956409166666674,"instrument":0,"program":0,"isDrum":true},{"pitch":46,"velocity":69,"startTime":51.912931,"endTime":52.162930458333335,"instrument":0,"program":0,"isDrum":true},{"pitch":38,"velocity":39,"startTime":51.956409166666674,"endTime":51.999887333333334,"instrument":0,"program":0,"isDrum":true},{"pitch":38,"velocity":39,"startTime":51.999887333333334,"endTime":52.04336550000001,"instrument":0,"program":0,"isDrum":true},{"pitch":38,"velocity":42,"startTime":52.04336550000001,"endTime":52.08684366666667,"instrument":0,"program":0,"isDrum":true},{"pitch":38,"velocity":48,"startTime":52.08684366666667,"endTime":52.13032183333334,"instrument":0,"program":0,"isDrum":true},{"pitch":38,"velocity":53,"startTime":52.13032183333334,"endTime":52.1738,"instrument":0,"program":0,"isDrum":true},{"pitch":38,"velocity":55,"startTime":52.1738,"endTime":52.23901725,"instrument":0,"program":0,"isDrum":true},{"pitch":38,"velocity":85,"startTime":52.1738,"endTime":52.23901725,"instrument":0,"program":0,"isDrum":true},{"pitch":44,"velocity":95,"startTime":52.1738,"endTime":52.28249541666666,"instrument":0,"program":0,"isDrum":true},{"pitch":38,"velocity":55,"startTime":52.695538,"endTime":52.76075525,"instrument":0,"program":0,"isDrum":true},{"pitch":38,"velocity":85,"startTime":52.695538,"endTime":52.76075525,"instrument":0,"program":0,"isDrum":true},{"pitch":44,"velocity":95,"startTime":52.695538,"endTime":52.798798645833344,"instrument":0,"program":0,"isDrum":true},{"pitch":38,"velocity":55,"startTime":53.217276,"endTime":53.28249325,"instrument":0,"program":0,"isDrum":true},{"pitch":38,"velocity":85,"startTime":53.217276,"endTime":53.28249325,"instrument":0,"program":0,"isDrum":true},{"pitch":44,"velocity":95,"startTime":53.217276,"endTime":53.31510187500001,"instrument":0,"program":0,"isDrum":true},{"pitch":38,"velocity":55,"startTime":53.739014,"endTime":53.80423125,"instrument":0,"program":0,"isDrum":true},{"pitch":38,"velocity":85,"startTime":53.739014,"endTime":53.80423125,"instrument":0,"program":0,"isDrum":true},{"pitch":44,"velocity":95,"startTime":53.739014,"endTime":53.83140510416666,"instrument":0,"program":0,"isDrum":true},{"pitch":38,"velocity":34,"startTime":53.999883,"endTime":54.04336116666667,"instrument":0,"program":0,"isDrum":true},{"pitch":46,"velocity":69,"startTime":53.999883,"endTime":54.249882458333346,"instrument":0,"program":0,"isDrum":true},{"pitch":38,"velocity":39,"startTime":54.04336116666667,"endTime":54.086839333333344,"instrument":0,"program":0,"isDrum":true},{"pitch":38,"velocity":39,"startTime":54.086839333333344,"endTime":54.130317500000004,"instrument":0,"program":0,"isDrum":true},{"pitch":38,"velocity":42,"startTime":54.130317500000004,"endTime":54.17379566666666,"instrument":0,"program":0,"isDrum":true},{"pitch":38,"velocity":48,"startTime":54.17379566666666,"endTime":54.21727383333334,"instrument":0,"program":0,"isDrum":true},{"pitch":38,"velocity":53,"startTime":54.21727383333334,"endTime":54.26075200000001,"instrument":0,"program":0,"isDrum":true},{"pitch":38,"velocity":55,"startTime":54.26075200000001,"endTime":54.32596925,"instrument":0,"program":0,"isDrum":true},{"pitch":38,"velocity":85,"startTime":54.26075200000001,"endTime":54.32596925,"instrument":0,"program":0,"isDrum":true},{"pitch":44,"velocity":95,"startTime":54.26075200000001,"endTime":54.369447416666674,"instrument":0,"program":0,"isDrum":true},{"pitch":38,"velocity":55,"startTime":54.78249000000001,"endTime":54.84770725,"instrument":0,"program":0,"isDrum":true},{"pitch":38,"velocity":85,"startTime":54.78249000000001,"endTime":54.84770725,"instrument":0,"program":0,"isDrum":true},{"pitch":44,"velocity":95,"startTime":54.78249000000001,"endTime":54.88575064583334,"instrument":0,"program":0,"isDrum":true},{"pitch":38,"velocity":55,"startTime":55.30422800000001,"endTime":55.36944525,"instrument":0,"program":0,"isDrum":true},{"pitch":38,"velocity":85,"startTime":55.30422800000001,"endTime":55.36944525,"instrument":0,"program":0,"isDrum":true},{"pitch":44,"velocity":95,"startTime":55.30422800000001,"endTime":55.40205387500001,"instrument":0,"program":0,"isDrum":true},{"pitch":38,"velocity":55,"startTime":55.82596600000001,"endTime":55.89118325,"instrument":0,"program":0,"isDrum":true},{"pitch":38,"velocity":85,"startTime":55.82596600000001,"endTime":55.89118325,"instrument":0,"program":0,"isDrum":true},{"pitch":44,"velocity":95,"startTime":55.82596600000001,"endTime":55.918357104166674,"instrument":0,"program":0,"isDrum":true},{"pitch":38,"velocity":34,"startTime":56.08683500000001,"endTime":56.13031316666667,"instrument":0,"program":0,"isDrum":true},{"pitch":46,"velocity":69,"startTime":56.08683500000001,"endTime":56.33683445833334,"instrument":0,"program":0,"isDrum":true},{"pitch":38,"velocity":39,"startTime":56.13031316666667,"endTime":56.17379133333334,"instrument":0,"program":0,"isDrum":true},{"pitch":38,"velocity":39,"startTime":56.17379133333334,"endTime":56.2172695,"instrument":0,"program":0,"isDrum":true},{"pitch":38,"velocity":42,"startTime":56.2172695,"endTime":56.260747666666674,"instrument":0,"program":0,"isDrum":true},{"pitch":38,"velocity":48,"startTime":56.260747666666674,"endTime":56.304225833333334,"instrument":0,"program":0,"isDrum":true},{"pitch":38,"velocity":53,"startTime":56.304225833333334,"endTime":56.34770400000001,"instrument":0,"program":0,"isDrum":true},{"pitch":38,"velocity":55,"startTime":56.34770400000001,"endTime":56.41292125000001,"instrument":0,"program":0,"isDrum":true},{"pitch":38,"velocity":85,"startTime":56.34770400000001,"endTime":56.41292125000001,"instrument":0,"program":0,"isDrum":true},{"pitch":44,"velocity":95,"startTime":56.34770400000001,"endTime":56.45639941666667,"instrument":0,"program":0,"isDrum":true},{"pitch":38,"velocity":55,"startTime":56.86944200000001,"endTime":56.93465925000001,"instrument":0,"program":0,"isDrum":true},{"pitch":38,"velocity":85,"startTime":56.86944200000001,"endTime":56.93465925000001,"instrument":0,"program":0,"isDrum":true},{"pitch":44,"velocity":95,"startTime":56.86944200000001,"endTime":56.97270264583334,"instrument":0,"program":0,"isDrum":true},{"pitch":38,"velocity":55,"startTime":57.391180000000006,"endTime":57.45639725000001,"instrument":0,"program":0,"isDrum":true},{"pitch":38,"velocity":85,"startTime":57.391180000000006,"endTime":57.45639725000001,"instrument":0,"program":0,"isDrum":true},{"pitch":44,"velocity":95,"startTime":57.391180000000006,"endTime":57.489005875000004,"instrument":0,"program":0,"isDrum":true},{"pitch":38,"velocity":55,"startTime":57.912918000000005,"endTime":57.97813525000001,"instrument":0,"program":0,"isDrum":true},{"pitch":38,"velocity":85,"startTime":57.912918000000005,"endTime":57.97813525000001,"instrument":0,"program":0,"isDrum":true},{"pitch":44,"velocity":95,"startTime":57.912918000000005,"endTime":58.00530910416667,"instrument":0,"program":0,"isDrum":true},{"pitch":38,"velocity":34,"startTime":58.173787000000004,"endTime":58.217265166666664,"instrument":0,"program":0,"isDrum":true},{"pitch":46,"velocity":69,"startTime":58.173787000000004,"endTime":58.42378645833334,"instrument":0,"program":0,"isDrum":true},{"pitch":38,"velocity":39,"startTime":58.217265166666664,"endTime":58.26074333333334,"instrument":0,"program":0,"isDrum":true},{"pitch":38,"velocity":39,"startTime":58.26074333333334,"endTime":58.3042215,"instrument":0,"program":0,"isDrum":true},{"pitch":38,"velocity":42,"startTime":58.3042215,"endTime":58.34769966666667,"instrument":0,"program":0,"isDrum":true},{"pitch":38,"velocity":48,"startTime":58.34769966666667,"endTime":58.391177833333344,"instrument":0,"program":0,"isDrum":true},{"pitch":38,"velocity":53,"startTime":58.391177833333344,"endTime":58.434656000000004,"instrument":0,"program":0,"isDrum":true},{"pitch":38,"velocity":55,"startTime":58.434656000000004,"endTime":58.49987325000001,"instrument":0,"program":0,"isDrum":true},{"pitch":38,"velocity":85,"startTime":58.434656000000004,"endTime":58.49987325000001,"instrument":0,"program":0,"isDrum":true},{"pitch":44,"velocity":95,"startTime":58.434656000000004,"endTime":58.54335141666667,"instrument":0,"program":0,"isDrum":true},{"pitch":38,"velocity":55,"startTime":58.956394,"endTime":59.02161125000001,"instrument":0,"program":0,"isDrum":true},{"pitch":38,"velocity":85,"startTime":58.956394,"endTime":59.02161125000001,"instrument":0,"program":0,"isDrum":true},{"pitch":44,"velocity":95,"startTime":58.956394,"endTime":59.059654645833334,"instrument":0,"program":0,"isDrum":true},{"pitch":38,"velocity":55,"startTime":59.478132,"endTime":59.543349250000006,"instrument":0,"program":0,"isDrum":true},{"pitch":38,"velocity":85,"startTime":59.478132,"endTime":59.543349250000006,"instrument":0,"program":0,"isDrum":true},{"pitch":44,"velocity":95,"startTime":59.478132,"endTime":59.575957875,"instrument":0,"program":0,"isDrum":true},{"pitch":38,"velocity":55,"startTime":59.99987,"endTime":60.065087250000005,"instrument":0,"program":0,"isDrum":true},{"pitch":38,"velocity":85,"startTime":59.99987,"endTime":60.065087250000005,"instrument":0,"program":0,"isDrum":true},{"pitch":44,"velocity":95,"startTime":59.99987,"endTime":60.09226110416667,"instrument":0,"program":0,"isDrum":true},{"pitch":38,"velocity":34,"startTime":60.260739,"endTime":60.304217166666675,"instrument":0,"program":0,"isDrum":true},{"pitch":46,"velocity":69,"startTime":60.260739,"endTime":60.510738458333336,"instrument":0,"program":0,"isDrum":true},{"pitch":38,"velocity":39,"startTime":60.304217166666675,"endTime":60.347695333333334,"instrument":0,"program":0,"isDrum":true},{"pitch":38,"velocity":39,"startTime":60.347695333333334,"endTime":60.39117350000001,"instrument":0,"program":0,"isDrum":true},{"pitch":38,"velocity":42,"startTime":60.39117350000001,"endTime":60.43465166666667,"instrument":0,"program":0,"isDrum":true},{"pitch":38,"velocity":48,"startTime":60.43465166666667,"endTime":60.47812983333334,"instrument":0,"program":0,"isDrum":true},{"pitch":38,"velocity":53,"startTime":60.47812983333334,"endTime":60.521608,"instrument":0,"program":0,"isDrum":true},{"pitch":38,"velocity":55,"startTime":60.521608,"endTime":60.586825250000004,"instrument":0,"program":0,"isDrum":true},{"pitch":38,"velocity":85,"startTime":60.521608,"endTime":60.586825250000004,"instrument":0,"program":0,"isDrum":true},{"pitch":44,"velocity":95,"startTime":60.521608,"endTime":60.619433875,"instrument":0,"program":0,"isDrum":true},{"pitch":38,"velocity":55,"startTime":61.043346,"endTime":61.10856325,"instrument":0,"program":0,"isDrum":true},{"pitch":38,"velocity":85,"startTime":61.043346,"endTime":61.10856325,"instrument":0,"program":0,"isDrum":true},{"pitch":44,"velocity":95,"startTime":61.043346,"endTime":61.141171875,"instrument":0,"program":0,"isDrum":true},{"pitch":38,"velocity":55,"startTime":61.565084,"endTime":61.63030125,"instrument":0,"program":0,"isDrum":true},{"pitch":38,"velocity":85,"startTime":61.565084,"endTime":61.63030125,"instrument":0,"program":0,"isDrum":true},{"pitch":44,"velocity":95,"startTime":61.565084,"endTime":61.657475104166664,"instrument":0,"program":0,"isDrum":true},{"pitch":38,"velocity":55,"startTime":62.08682200000001,"endTime":62.15203925,"instrument":0,"program":0,"isDrum":true},{"pitch":38,"velocity":85,"startTime":62.08682200000001,"endTime":62.15203925,"instrument":0,"program":0,"isDrum":true},{"pitch":44,"velocity":95,"startTime":62.08682200000001,"endTime":62.19008264583334,"instrument":0,"program":0,"isDrum":true},{"pitch":38,"velocity":34,"startTime":62.34769100000001,"endTime":62.39116916666667,"instrument":0,"program":0,"isDrum":true},{"pitch":46,"velocity":69,"startTime":62.34769100000001,"endTime":62.597690458333346,"instrument":0,"program":0,"isDrum":true},{"pitch":38,"velocity":39,"startTime":62.39116916666667,"endTime":62.434647333333345,"instrument":0,"program":0,"isDrum":true},{"pitch":38,"velocity":39,"startTime":62.434647333333345,"endTime":62.478125500000004,"instrument":0,"program":0,"isDrum":true},{"pitch":38,"velocity":42,"startTime":62.478125500000004,"endTime":62.52160366666668,"instrument":0,"program":0,"isDrum":true},{"pitch":38,"velocity":48,"startTime":62.52160366666668,"endTime":62.56508183333334,"instrument":0,"program":0,"isDrum":true},{"pitch":38,"velocity":53,"startTime":62.56508183333334,"endTime":62.60856000000001,"instrument":0,"program":0,"isDrum":true},{"pitch":38,"velocity":55,"startTime":62.60856000000001,"endTime":62.673777250000015,"instrument":0,"program":0,"isDrum":true},{"pitch":38,"velocity":85,"startTime":62.60856000000001,"endTime":62.673777250000015,"instrument":0,"program":0,"isDrum":true},{"pitch":51,"velocity":87,"startTime":62.60856000000001,"endTime":62.70095110416668,"instrument":0,"program":0,"isDrum":true},{"pitch":70,"velocity":78,"startTime":64.69551200000001,"endTime":64.793337875,"instrument":0,"program":0,"isDrum":true},{"pitch":51,"velocity":85,"startTime":64.95638100000001,"endTime":65.1683370625,"instrument":0,"program":0,"isDrum":true},{"pitch":38,"velocity":55,"startTime":65.21725,"endTime":65.32051064583334,"instrument":0,"program":0,"isDrum":true},{"pitch":38,"velocity":85,"startTime":65.21725,"endTime":65.32051064583334,"instrument":0,"program":0,"isDrum":true},{"pitch":44,"velocity":95,"startTime":65.21725,"endTime":65.46724945833334,"instrument":0,"program":0,"isDrum":true},{"pitch":38,"velocity":55,"startTime":65.738988,"endTime":65.83137910416669,"instrument":0,"program":0,"isDrum":true},{"pitch":38,"velocity":85,"startTime":65.738988,"endTime":65.83137910416669,"instrument":0,"program":0,"isDrum":true},{"pitch":44,"velocity":90,"startTime":65.738988,"endTime":65.88029204166668,"instrument":0,"program":0,"isDrum":true},{"pitch":51,"velocity":87,"startTime":65.738988,"endTime":65.92377020833334,"instrument":0,"program":0,"isDrum":true},{"pitch":38,"velocity":85,"startTime":66.782464,"endTime":66.99442006250001,"instrument":0,"program":0,"isDrum":true},{"pitch":51,"velocity":87,"startTime":66.782464,"endTime":66.83137693750001,"instrument":0,"program":0,"isDrum":true},{"pitch":53,"velocity":80,"startTime":66.782464,"endTime":67.15746318750001,"instrument":0,"program":0,"isDrum":true},{"pitch":38,"velocity":85,"startTime":67.82594,"endTime":67.95637450000001,"instrument":0,"program":0,"isDrum":true},{"pitch":51,"velocity":87,"startTime":67.82594,"endTime":67.87485293750001,"instrument":0,"program":0,"isDrum":true},{"pitch":53,"velocity":93,"startTime":67.82594,"endTime":68.03246129166668,"instrument":0,"program":0,"isDrum":true},{"pitch":38,"velocity":85,"startTime":68.869416,"endTime":68.98354618750001,"instrument":0,"program":0,"isDrum":true},{"pitch":51,"velocity":87,"startTime":68.869416,"endTime":68.92376370833334,"instrument":0,"program":0,"isDrum":true},{"pitch":53,"velocity":93,"startTime":68.869416,"endTime":69.13571977083333,"instrument":0,"program":0,"isDrum":true},{"pitch":38,"velocity":85,"startTime":69.91289200000001,"endTime":70.02702218750001,"instrument":0,"program":0,"isDrum":true},{"pitch":51,"velocity":87,"startTime":69.91289200000001,"endTime":69.96723970833334,"instrument":0,"program":0,"isDrum":true},{"pitch":53,"velocity":93,"startTime":69.91289200000001,"endTime":70.13028283333334,"instrument":0,"program":0,"isDrum":true},{"pitch":38,"velocity":85,"startTime":70.43463000000001,"endTime":70.54876018750001,"instrument":0,"program":0,"isDrum":true},{"pitch":51,"velocity":87,"startTime":70.43463000000001,"endTime":70.48897770833334,"instrument":0,"program":0,"isDrum":true},{"pitch":53,"velocity":93,"startTime":70.43463000000001,"endTime":70.65202083333334,"instrument":0,"program":0,"isDrum":true},{"pitch":38,"velocity":85,"startTime":70.95636800000001,"endTime":71.05962864583334,"instrument":0,"program":0,"isDrum":true},{"pitch":51,"velocity":85,"startTime":70.95636800000001,"endTime":70.99441139583334,"instrument":0,"program":0,"isDrum":true},{"pitch":51,"velocity":87,"startTime":70.95636800000001,"endTime":70.99441139583334,"instrument":0,"program":0,"isDrum":true},{"pitch":38,"velocity":34,"startTime":72.78245100000001,"endTime":72.82592916666668,"instrument":0,"program":0,"isDrum":true},{"pitch":46,"velocity":69,"startTime":72.78245100000001,"endTime":73.03245045833334,"instrument":0,"program":0,"isDrum":true},{"pitch":38,"velocity":39,"startTime":72.82592916666668,"endTime":72.86940733333334,"instrument":0,"program":0,"isDrum":true},{"pitch":38,"velocity":39,"startTime":72.86940733333334,"endTime":72.9128855,"instrument":0,"program":0,"isDrum":true},{"pitch":38,"velocity":42,"startTime":72.9128855,"endTime":72.95636366666668,"instrument":0,"program":0,"isDrum":true},{"pitch":38,"velocity":48,"startTime":72.95636366666668,"endTime":72.99984183333333,"instrument":0,"program":0,"isDrum":true},{"pitch":38,"velocity":53,"startTime":72.99984183333333,"endTime":73.04332000000001,"instrument":0,"program":0,"isDrum":true},{"pitch":38,"velocity":55,"startTime":73.04332000000001,"endTime":73.10853725000001,"instrument":0,"program":0,"isDrum":true},{"pitch":38,"velocity":85,"startTime":73.04332000000001,"endTime":73.10853725000001,"instrument":0,"program":0,"isDrum":true},{"pitch":44,"velocity":95,"startTime":73.04332000000001,"endTime":73.16831972916668,"instrument":0,"program":0,"isDrum":true},{"pitch":38,"velocity":55,"startTime":73.56505800000001,"endTime":73.63027525000001,"instrument":0,"program":0,"isDrum":true},{"pitch":38,"velocity":85,"startTime":73.56505800000001,"endTime":73.63027525000001,"instrument":0,"program":0,"isDrum":true},{"pitch":44,"velocity":95,"startTime":73.56505800000001,"endTime":73.6791881875,"instrument":0,"program":0,"isDrum":true},{"pitch":38,"velocity":55,"startTime":74.086796,"endTime":74.15201325000001,"instrument":0,"program":0,"isDrum":true},{"pitch":38,"velocity":85,"startTime":74.086796,"endTime":74.15201325000001,"instrument":0,"program":0,"isDrum":true},{"pitch":44,"velocity":95,"startTime":74.086796,"endTime":74.19005664583334,"instrument":0,"program":0,"isDrum":true},{"pitch":38,"velocity":55,"startTime":74.608534,"endTime":74.67375125000001,"instrument":0,"program":0,"isDrum":true},{"pitch":38,"velocity":85,"startTime":74.608534,"endTime":74.67375125000001,"instrument":0,"program":0,"isDrum":true},{"pitch":44,"velocity":95,"startTime":74.608534,"endTime":74.706359875,"instrument":0,"program":0,"isDrum":true},{"pitch":38,"velocity":34,"startTime":74.869403,"endTime":74.91288116666668,"instrument":0,"program":0,"isDrum":true},{"pitch":46,"velocity":69,"startTime":74.869403,"endTime":75.11940245833334,"instrument":0,"program":0,"isDrum":true},{"pitch":38,"velocity":39,"startTime":74.91288116666668,"endTime":74.95635933333334,"instrument":0,"program":0,"isDrum":true},{"pitch":38,"velocity":39,"startTime":74.95635933333334,"endTime":74.99983750000001,"instrument":0,"program":0,"isDrum":true},{"pitch":38,"velocity":42,"startTime":74.99983750000001,"endTime":75.04331566666669,"instrument":0,"program":0,"isDrum":true},{"pitch":38,"velocity":48,"startTime":75.04331566666669,"endTime":75.08679383333333,"instrument":0,"program":0,"isDrum":true},{"pitch":38,"velocity":53,"startTime":75.08679383333333,"endTime":75.130272,"instrument":0,"program":0,"isDrum":true},{"pitch":38,"velocity":55,"startTime":75.130272,"endTime":75.19548925000001,"instrument":0,"program":0,"isDrum":true},{"pitch":38,"velocity":85,"startTime":75.130272,"endTime":75.19548925000001,"instrument":0,"program":0,"isDrum":true},{"pitch":44,"velocity":95,"startTime":75.130272,"endTime":75.23896741666668,"instrument":0,"program":0,"isDrum":true},{"pitch":38,"velocity":55,"startTime":75.65201,"endTime":75.71722725000001,"instrument":0,"program":0,"isDrum":true},{"pitch":38,"velocity":85,"startTime":75.65201,"endTime":75.71722725000001,"instrument":0,"program":0,"isDrum":true},{"pitch":44,"velocity":95,"startTime":75.65201,"endTime":75.75527064583333,"instrument":0,"program":0,"isDrum":true},{"pitch":38,"velocity":55,"startTime":76.173748,"endTime":76.23896525,"instrument":0,"program":0,"isDrum":true},{"pitch":38,"velocity":85,"startTime":76.173748,"endTime":76.23896525,"instrument":0,"program":0,"isDrum":true},{"pitch":44,"velocity":95,"startTime":76.173748,"endTime":76.27157387500002,"instrument":0,"program":0,"isDrum":true},{"pitch":38,"velocity":55,"startTime":76.695486,"endTime":76.76070325,"instrument":0,"program":0,"isDrum":true},{"pitch":38,"velocity":85,"startTime":76.695486,"endTime":76.76070325,"instrument":0,"program":0,"isDrum":true},{"pitch":44,"velocity":95,"startTime":76.695486,"endTime":76.78787710416668,"instrument":0,"program":0,"isDrum":true},{"pitch":38,"velocity":34,"startTime":76.956355,"endTime":76.99983316666668,"instrument":0,"program":0,"isDrum":true},{"pitch":46,"velocity":69,"startTime":76.956355,"endTime":77.20635445833334,"instrument":0,"program":0,"isDrum":true},{"pitch":38,"velocity":39,"startTime":76.99983316666668,"endTime":77.04331133333334,"instrument":0,"program":0,"isDrum":true},{"pitch":38,"velocity":39,"startTime":77.04331133333334,"endTime":77.08678950000001,"instrument":0,"program":0,"isDrum":true},{"pitch":38,"velocity":42,"startTime":77.08678950000001,"endTime":77.13026766666668,"instrument":0,"program":0,"isDrum":true},{"pitch":38,"velocity":48,"startTime":77.13026766666668,"endTime":77.17374583333334,"instrument":0,"program":0,"isDrum":true},{"pitch":38,"velocity":53,"startTime":77.17374583333334,"endTime":77.21722400000002,"instrument":0,"program":0,"isDrum":true},{"pitch":38,"velocity":55,"startTime":77.21722400000002,"endTime":77.27157170833334,"instrument":0,"program":0,"isDrum":true},{"pitch":38,"velocity":85,"startTime":77.21722400000002,"endTime":77.27157170833334,"instrument":0,"program":0,"isDrum":true},{"pitch":44,"velocity":95,"startTime":77.21722400000002,"endTime":77.32048464583333,"instrument":0,"program":0,"isDrum":true},{"pitch":38,"velocity":55,"startTime":77.73896200000001,"endTime":77.80417925,"instrument":0,"program":0,"isDrum":true},{"pitch":38,"velocity":85,"startTime":77.73896200000001,"endTime":77.80417925,"instrument":0,"program":0,"isDrum":true},{"pitch":44,"velocity":95,"startTime":77.73896200000001,"endTime":77.84765741666668,"instrument":0,"program":0,"isDrum":true},{"pitch":38,"velocity":55,"startTime":78.26070000000001,"endTime":78.32591725,"instrument":0,"program":0,"isDrum":true},{"pitch":38,"velocity":85,"startTime":78.26070000000001,"endTime":78.32591725,"instrument":0,"program":0,"isDrum":true},{"pitch":44,"velocity":95,"startTime":78.26070000000001,"endTime":78.36396064583333,"instrument":0,"program":0,"isDrum":true},{"pitch":38,"velocity":55,"startTime":78.78243800000001,"endTime":78.84765525,"instrument":0,"program":0,"isDrum":true},{"pitch":38,"velocity":85,"startTime":78.78243800000001,"endTime":78.84765525,"instrument":0,"program":0,"isDrum":true},{"pitch":44,"velocity":95,"startTime":78.78243800000001,"endTime":78.88569864583334,"instrument":0,"program":0,"isDrum":true},{"pitch":38,"velocity":34,"startTime":79.04330700000001,"endTime":79.08678516666669,"instrument":0,"program":0,"isDrum":true},{"pitch":46,"velocity":69,"startTime":79.04330700000001,"endTime":79.29330645833333,"instrument":0,"program":0,"isDrum":true},{"pitch":38,"velocity":39,"startTime":79.08678516666669,"endTime":79.13026333333333,"instrument":0,"program":0,"isDrum":true},{"pitch":38,"velocity":39,"startTime":79.13026333333333,"endTime":79.1737415,"instrument":0,"program":0,"isDrum":true},{"pitch":38,"velocity":42,"startTime":79.1737415,"endTime":79.21721966666668,"instrument":0,"program":0,"isDrum":true},{"pitch":38,"velocity":48,"startTime":79.21721966666668,"endTime":79.26069783333334,"instrument":0,"program":0,"isDrum":true},{"pitch":38,"velocity":53,"startTime":79.26069783333334,"endTime":79.30417600000001,"instrument":0,"program":0,"isDrum":true},{"pitch":38,"velocity":55,"startTime":79.30417600000001,"endTime":79.36939325000002,"instrument":0,"program":0,"isDrum":true},{"pitch":38,"velocity":85,"startTime":79.30417600000001,"endTime":79.36939325000002,"instrument":0,"program":0,"isDrum":true},{"pitch":44,"velocity":95,"startTime":79.30417600000001,"endTime":79.41287141666668,"instrument":0,"program":0,"isDrum":true},{"pitch":38,"velocity":55,"startTime":79.82591400000001,"endTime":79.89113125000002,"instrument":0,"program":0,"isDrum":true},{"pitch":38,"velocity":85,"startTime":79.82591400000001,"endTime":79.89113125000002,"instrument":0,"program":0,"isDrum":true},{"pitch":44,"velocity":95,"startTime":79.82591400000001,"endTime":79.92917464583334,"instrument":0,"program":0,"isDrum":true},{"pitch":38,"velocity":55,"startTime":80.34765200000001,"endTime":80.41286925000001,"instrument":0,"program":0,"isDrum":true},{"pitch":38,"velocity":85,"startTime":80.34765200000001,"endTime":80.41286925000001,"instrument":0,"program":0,"isDrum":true},{"pitch":44,"velocity":95,"startTime":80.34765200000001,"endTime":80.45634741666667,"instrument":0,"program":0,"isDrum":true},{"pitch":38,"velocity":55,"startTime":80.86939000000001,"endTime":80.93460725000001,"instrument":0,"program":0,"isDrum":true},{"pitch":38,"velocity":85,"startTime":80.86939000000001,"endTime":80.93460725000001,"instrument":0,"program":0,"isDrum":true},{"pitch":44,"velocity":95,"startTime":80.86939000000001,"endTime":80.97808541666669,"instrument":0,"program":0,"isDrum":true},{"pitch":38,"velocity":34,"startTime":81.13025900000001,"endTime":81.17373716666668,"instrument":0,"program":0,"isDrum":true},{"pitch":46,"velocity":69,"startTime":81.13025900000001,"endTime":81.38025845833334,"instrument":0,"program":0,"isDrum":true},{"pitch":38,"velocity":39,"startTime":81.17373716666668,"endTime":81.21721533333334,"instrument":0,"program":0,"isDrum":true},{"pitch":38,"velocity":39,"startTime":81.21721533333334,"endTime":81.2606935,"instrument":0,"program":0,"isDrum":true},{"pitch":38,"velocity":42,"startTime":81.2606935,"endTime":81.30417166666668,"instrument":0,"program":0,"isDrum":true},{"pitch":38,"velocity":48,"startTime":81.30417166666668,"endTime":81.34764983333334,"instrument":0,"program":0,"isDrum":true},{"pitch":38,"velocity":53,"startTime":81.34764983333334,"endTime":81.39112800000001,"instrument":0,"program":0,"isDrum":true},{"pitch":38,"velocity":55,"startTime":81.39112800000001,"endTime":81.45634525000001,"instrument":0,"program":0,"isDrum":true},{"pitch":38,"velocity":85,"startTime":81.39112800000001,"endTime":81.45634525000001,"instrument":0,"program":0,"isDrum":true},{"pitch":44,"velocity":95,"startTime":81.39112800000001,"endTime":81.49982341666669,"instrument":0,"program":0,"isDrum":true},{"pitch":38,"velocity":55,"startTime":81.91286600000001,"endTime":81.97808325000001,"instrument":0,"program":0,"isDrum":true},{"pitch":38,"velocity":85,"startTime":81.91286600000001,"endTime":81.97808325000001,"instrument":0,"program":0,"isDrum":true},{"pitch":44,"velocity":95,"startTime":81.91286600000001,"endTime":82.02156141666669,"instrument":0,"program":0,"isDrum":true},{"pitch":38,"velocity":55,"startTime":82.43460400000001,"endTime":82.49982125000001,"instrument":0,"program":0,"isDrum":true},{"pitch":38,"velocity":85,"startTime":82.43460400000001,"endTime":82.49982125000001,"instrument":0,"program":0,"isDrum":true},{"pitch":44,"velocity":95,"startTime":82.43460400000001,"endTime":82.532429875,"instrument":0,"program":0,"isDrum":true},{"pitch":38,"velocity":55,"startTime":82.956342,"endTime":83.02155925000001,"instrument":0,"program":0,"isDrum":true},{"pitch":38,"velocity":85,"startTime":82.956342,"endTime":83.02155925000001,"instrument":0,"program":0,"isDrum":true},{"pitch":44,"velocity":95,"startTime":82.956342,"endTime":83.05960264583334,"instrument":0,"program":0,"isDrum":true},{"pitch":38,"velocity":34,"startTime":83.217211,"endTime":83.26068916666668,"instrument":0,"program":0,"isDrum":true},{"pitch":46,"velocity":69,"startTime":83.217211,"endTime":83.46721045833334,"instrument":0,"program":0,"isDrum":true},{"pitch":38,"velocity":39,"startTime":83.26068916666668,"endTime":83.30416733333334,"instrument":0,"program":0,"isDrum":true},{"pitch":38,"velocity":39,"startTime":83.30416733333334,"endTime":83.34764550000001,"instrument":0,"program":0,"isDrum":true},{"pitch":38,"velocity":42,"startTime":83.34764550000001,"endTime":83.39112366666669,"instrument":0,"program":0,"isDrum":true},{"pitch":38,"velocity":48,"startTime":83.39112366666669,"endTime":83.43460183333333,"instrument":0,"program":0,"isDrum":true},{"pitch":38,"velocity":53,"startTime":83.43460183333333,"endTime":83.47808,"instrument":0,"program":0,"isDrum":true},{"pitch":38,"velocity":85,"startTime":83.47808,"endTime":83.69003606250001,"instrument":0,"program":0,"isDrum":true},{"pitch":51,"velocity":87,"startTime":83.47808,"endTime":83.52699293750001,"instrument":0,"program":0,"isDrum":true},{"pitch":53,"velocity":80,"startTime":83.47808,"endTime":83.85307918750001,"instrument":0,"program":0,"isDrum":true},{"pitch":38,"velocity":85,"startTime":84.521556,"endTime":84.65199050000001,"instrument":0,"program":0,"isDrum":true},{"pitch":51,"velocity":87,"startTime":84.521556,"endTime":84.57046893750001,"instrument":0,"program":0,"isDrum":true},{"pitch":53,"velocity":93,"startTime":84.521556,"endTime":84.72807729166668,"instrument":0,"program":0,"isDrum":true},{"pitch":38,"velocity":85,"startTime":85.565032,"endTime":85.67916218750001,"instrument":0,"program":0,"isDrum":true},{"pitch":51,"velocity":87,"startTime":85.565032,"endTime":85.61937970833334,"instrument":0,"program":0,"isDrum":true},{"pitch":53,"velocity":93,"startTime":85.565032,"endTime":85.83133577083333,"instrument":0,"program":0,"isDrum":true},{"pitch":38,"velocity":85,"startTime":86.60850800000001,"endTime":86.72263818750001,"instrument":0,"program":0,"isDrum":true},{"pitch":51,"velocity":87,"startTime":86.60850800000001,"endTime":86.66285570833334,"instrument":0,"program":0,"isDrum":true},{"pitch":53,"velocity":93,"startTime":86.60850800000001,"endTime":86.82589883333334,"instrument":0,"program":0,"isDrum":true},{"pitch":38,"velocity":85,"startTime":87.13024600000001,"endTime":87.24437618750001,"instrument":0,"program":0,"isDrum":true},{"pitch":51,"velocity":87,"startTime":87.13024600000001,"endTime":87.18459370833334,"instrument":0,"program":0,"isDrum":true},{"pitch":53,"velocity":93,"startTime":87.13024600000001,"endTime":87.34763683333334,"instrument":0,"program":0,"isDrum":true},{"pitch":38,"velocity":85,"startTime":87.65198400000001,"endTime":87.75524464583334,"instrument":0,"program":0,"isDrum":true},{"pitch":51,"velocity":85,"startTime":87.65198400000001,"endTime":87.69002739583334,"instrument":0,"program":0,"isDrum":true},{"pitch":51,"velocity":87,"startTime":87.65198400000001,"endTime":87.69002739583334,"instrument":0,"program":0,"isDrum":true},{"pitch":38,"velocity":34,"startTime":89.47806700000001,"endTime":89.52154516666668,"instrument":0,"program":0,"isDrum":true},{"pitch":46,"velocity":69,"startTime":89.47806700000001,"endTime":89.72806645833334,"instrument":0,"program":0,"isDrum":true},{"pitch":38,"velocity":39,"startTime":89.52154516666668,"endTime":89.56502333333334,"instrument":0,"program":0,"isDrum":true},{"pitch":38,"velocity":39,"startTime":89.56502333333334,"endTime":89.6085015,"instrument":0,"program":0,"isDrum":true},{"pitch":38,"velocity":42,"startTime":89.6085015,"endTime":89.65197966666668,"instrument":0,"program":0,"isDrum":true},{"pitch":38,"velocity":48,"startTime":89.65197966666668,"endTime":89.69545783333334,"instrument":0,"program":0,"isDrum":true},{"pitch":38,"velocity":53,"startTime":89.69545783333334,"endTime":89.73893600000001,"instrument":0,"program":0,"isDrum":true},{"pitch":38,"velocity":55,"startTime":89.73893600000001,"endTime":89.80415325000001,"instrument":0,"program":0,"isDrum":true},{"pitch":38,"velocity":85,"startTime":89.73893600000001,"endTime":89.80415325000001,"instrument":0,"program":0,"isDrum":true},{"pitch":44,"velocity":95,"startTime":89.73893600000001,"endTime":89.86393572916668,"instrument":0,"program":0,"isDrum":true},{"pitch":38,"velocity":55,"startTime":90.26067400000001,"endTime":90.32589125000001,"instrument":0,"program":0,"isDrum":true},{"pitch":38,"velocity":85,"startTime":90.26067400000001,"endTime":90.32589125000001,"instrument":0,"program":0,"isDrum":true},{"pitch":44,"velocity":95,"startTime":90.26067400000001,"endTime":90.3748041875,"instrument":0,"program":0,"isDrum":true},{"pitch":38,"velocity":55,"startTime":90.78241200000001,"endTime":90.84762925000001,"instrument":0,"program":0,"isDrum":true},{"pitch":38,"velocity":85,"startTime":90.78241200000001,"endTime":90.84762925000001,"instrument":0,"program":0,"isDrum":true},{"pitch":44,"velocity":95,"startTime":90.78241200000001,"endTime":90.88567264583334,"instrument":0,"program":0,"isDrum":true},{"pitch":38,"velocity":55,"startTime":91.30415,"endTime":91.36936725000001,"instrument":0,"program":0,"isDrum":true},{"pitch":38,"velocity":85,"startTime":91.30415,"endTime":91.36936725000001,"instrument":0,"program":0,"isDrum":true},{"pitch":44,"velocity":95,"startTime":91.30415,"endTime":91.401975875,"instrument":0,"program":0,"isDrum":true},{"pitch":38,"velocity":34,"startTime":91.565019,"endTime":91.60849716666668,"instrument":0,"program":0,"isDrum":true},{"pitch":46,"velocity":69,"startTime":91.565019,"endTime":91.81501845833334,"instrument":0,"program":0,"isDrum":true},{"pitch":38,"velocity":39,"startTime":91.60849716666668,"endTime":91.65197533333334,"instrument":0,"program":0,"isDrum":true},{"pitch":38,"velocity":39,"startTime":91.65197533333334,"endTime":91.69545350000001,"instrument":0,"program":0,"isDrum":true},{"pitch":38,"velocity":42,"startTime":91.69545350000001,"endTime":91.73893166666669,"instrument":0,"program":0,"isDrum":true},{"pitch":38,"velocity":48,"startTime":91.73893166666669,"endTime":91.78240983333333,"instrument":0,"program":0,"isDrum":true},{"pitch":38,"velocity":53,"startTime":91.78240983333333,"endTime":91.825888,"instrument":0,"program":0,"isDrum":true},{"pitch":38,"velocity":55,"startTime":91.825888,"endTime":91.88567047916668,"instrument":0,"program":0,"isDrum":true},{"pitch":38,"velocity":85,"startTime":91.825888,"endTime":91.88567047916668,"instrument":0,"program":0,"isDrum":true},{"pitch":44,"velocity":95,"startTime":91.825888,"endTime":91.90197479166667,"instrument":0,"program":0,"isDrum":true},{"pitch":51,"velocity":87,"startTime":91.825888,"endTime":91.86936616666668,"instrument":0,"program":0,"isDrum":true},{"pitch":38,"velocity":55,"startTime":92.086757,"endTime":92.16284379166669,"instrument":0,"program":0,"isDrum":true},{"pitch":38,"velocity":85,"startTime":92.086757,"endTime":92.16284379166669,"instrument":0,"program":0,"isDrum":true},{"pitch":44,"velocity":95,"startTime":92.086757,"endTime":92.16284379166669,"instrument":0,"program":0,"isDrum":true},{"pitch":51,"velocity":87,"startTime":92.086757,"endTime":92.15197425000001,"instrument":0,"program":0,"isDrum":true},{"pitch":38,"velocity":55,"startTime":92.608495,"endTime":92.6900165625,"instrument":0,"program":0,"isDrum":true},{"pitch":38,"velocity":85,"startTime":92.608495,"endTime":92.6900165625,"instrument":0,"program":0,"isDrum":true},{"pitch":44,"velocity":95,"startTime":92.608495,"endTime":92.72805995833333,"instrument":0,"program":0,"isDrum":true},{"pitch":38,"velocity":55,"startTime":93.130233,"endTime":93.21718933333334,"instrument":0,"program":0,"isDrum":true},{"pitch":44,"velocity":95,"startTime":93.130233,"endTime":93.20631979166669,"instrument":0,"program":0,"isDrum":true},{"pitch":38,"velocity":55,"startTime":93.391102,"endTime":93.46718879166669,"instrument":0,"program":0,"isDrum":true},{"pitch":38,"velocity":85,"startTime":93.391102,"endTime":93.46718879166669,"instrument":0,"program":0,"isDrum":true},{"pitch":44,"velocity":95,"startTime":93.391102,"endTime":93.48892787500002,"instrument":0,"program":0,"isDrum":true},{"pitch":51,"velocity":87,"startTime":93.391102,"endTime":93.45631925,"instrument":0,"program":0,"isDrum":true},{"pitch":38,"velocity":55,"startTime":93.91284000000002,"endTime":93.99979633333334,"instrument":0,"program":0,"isDrum":true},{"pitch":38,"velocity":85,"startTime":93.91284000000002,"endTime":93.99979633333334,"instrument":0,"program":0,"isDrum":true},{"pitch":44,"velocity":95,"startTime":93.91284000000002,"endTime":93.9943615625,"instrument":0,"program":0,"isDrum":true},{"pitch":38,"velocity":55,"startTime":94.17370900000002,"endTime":94.24436102083334,"instrument":0,"program":0,"isDrum":true},{"pitch":38,"velocity":85,"startTime":94.17370900000002,"endTime":94.24436102083334,"instrument":0,"program":0,"isDrum":true},{"pitch":44,"velocity":95,"startTime":94.17370900000002,"endTime":94.24979579166668,"instrument":0,"program":0,"isDrum":true},{"pitch":38,"velocity":55,"startTime":94.69544700000002,"endTime":94.77696856250002,"instrument":0,"program":0,"isDrum":true},{"pitch":38,"velocity":85,"startTime":94.69544700000002,"endTime":94.77696856250002,"instrument":0,"program":0,"isDrum":true},{"pitch":44,"velocity":95,"startTime":94.69544700000002,"endTime":94.77696856250002,"instrument":0,"program":0,"isDrum":true},{"pitch":38,"velocity":55,"startTime":95.21718500000001,"endTime":95.31501087500001,"instrument":0,"program":0,"isDrum":true},{"pitch":44,"velocity":95,"startTime":95.21718500000001,"endTime":95.35848904166669,"instrument":0,"program":0,"isDrum":true},{"pitch":38,"velocity":55,"startTime":95.47805400000001,"endTime":95.56501033333333,"instrument":0,"program":0,"isDrum":true},{"pitch":38,"velocity":85,"startTime":95.47805400000001,"endTime":95.56501033333333,"instrument":0,"program":0,"isDrum":true},{"pitch":44,"velocity":95,"startTime":95.47805400000001,"endTime":95.56501033333333,"instrument":0,"program":0,"isDrum":true},{"pitch":51,"velocity":87,"startTime":95.47805400000001,"endTime":95.54870602083334,"instrument":0,"program":0,"isDrum":true},{"pitch":38,"velocity":55,"startTime":95.99979200000001,"endTime":96.05957447916668,"instrument":0,"program":0,"isDrum":true},{"pitch":38,"velocity":85,"startTime":95.99979200000001,"endTime":96.05957447916668,"instrument":0,"program":0,"isDrum":true},{"pitch":51,"velocity":85,"startTime":95.99979200000001,"endTime":96.07044402083334,"instrument":0,"program":0,"isDrum":true},{"pitch":51,"velocity":87,"startTime":95.99979200000001,"endTime":96.07044402083334,"instrument":0,"program":0,"isDrum":true},{"pitch":70,"velocity":78,"startTime":98.08674400000001,"endTime":98.21717850000002,"instrument":0,"program":0,"isDrum":true},{"pitch":51,"velocity":85,"startTime":98.34761300000001,"endTime":98.57043860416668,"instrument":0,"program":0,"isDrum":true},{"pitch":38,"velocity":55,"startTime":98.60848200000001,"endTime":98.70630787500001,"instrument":0,"program":0,"isDrum":true},{"pitch":38,"velocity":85,"startTime":98.60848200000001,"endTime":98.70630787500001,"instrument":0,"program":0,"isDrum":true},{"pitch":44,"velocity":95,"startTime":98.60848200000001,"endTime":98.76065558333333,"instrument":0,"program":0,"isDrum":true},{"pitch":38,"velocity":55,"startTime":99.13022000000001,"endTime":99.17913293750001,"instrument":0,"program":0,"isDrum":true},{"pitch":38,"velocity":85,"startTime":99.13022000000001,"endTime":99.17913293750001,"instrument":0,"program":0,"isDrum":true},{"pitch":44,"velocity":95,"startTime":99.13022000000001,"endTime":99.26065450000002,"instrument":0,"program":0,"isDrum":true},{"pitch":51,"velocity":87,"startTime":99.13022000000001,"endTime":99.228045875,"instrument":0,"program":0,"isDrum":true},{"pitch":38,"velocity":34,"startTime":99.91282700000001,"endTime":99.95630516666668,"instrument":0,"program":0,"isDrum":true},{"pitch":46,"velocity":69,"startTime":99.91282700000001,"endTime":100.16282645833334,"instrument":0,"program":0,"isDrum":true},{"pitch":38,"velocity":39,"startTime":99.95630516666668,"endTime":99.99978333333334,"instrument":0,"program":0,"isDrum":true},{"pitch":38,"velocity":39,"startTime":99.99978333333334,"endTime":100.04326150000001,"instrument":0,"program":0,"isDrum":true},{"pitch":38,"velocity":42,"startTime":100.04326150000001,"endTime":100.08673966666669,"instrument":0,"program":0,"isDrum":true},{"pitch":38,"velocity":48,"startTime":100.08673966666669,"endTime":100.13021783333333,"instrument":0,"program":0,"isDrum":true},{"pitch":38,"velocity":53,"startTime":100.13021783333333,"endTime":100.173696,"instrument":0,"program":0,"isDrum":true},{"pitch":38,"velocity":55,"startTime":100.173696,"endTime":100.22804370833335,"instrument":0,"program":0,"isDrum":true},{"pitch":38,"velocity":85,"startTime":100.173696,"endTime":100.22804370833335,"instrument":0,"program":0,"isDrum":true},{"pitch":51,"velocity":87,"startTime":100.173696,"endTime":100.27695664583334,"instrument":0,"program":0,"isDrum":true},{"pitch":38,"velocity":55,"startTime":100.695434,"endTime":100.76065125000001,"instrument":0,"program":0,"isDrum":true},{"pitch":38,"velocity":85,"startTime":100.695434,"endTime":100.76065125000001,"instrument":0,"program":0,"isDrum":true},{"pitch":44,"velocity":95,"startTime":100.695434,"endTime":100.80412941666668,"instrument":0,"program":0,"isDrum":true},{"pitch":38,"velocity":55,"startTime":101.217172,"endTime":101.28238925000001,"instrument":0,"program":0,"isDrum":true},{"pitch":38,"velocity":85,"startTime":101.217172,"endTime":101.28238925000001,"instrument":0,"program":0,"isDrum":true},{"pitch":44,"velocity":95,"startTime":101.217172,"endTime":101.32043264583334,"instrument":0,"program":0,"isDrum":true},{"pitch":38,"velocity":55,"startTime":101.73891,"endTime":101.80412725000001,"instrument":0,"program":0,"isDrum":true},{"pitch":38,"velocity":85,"startTime":101.73891,"endTime":101.80412725000001,"instrument":0,"program":0,"isDrum":true},{"pitch":44,"velocity":95,"startTime":101.73891,"endTime":101.84217064583333,"instrument":0,"program":0,"isDrum":true},{"pitch":38,"velocity":34,"startTime":101.999779,"endTime":102.04325716666668,"instrument":0,"program":0,"isDrum":true},{"pitch":46,"velocity":69,"startTime":101.999779,"endTime":102.24977845833334,"instrument":0,"program":0,"isDrum":true},{"pitch":38,"velocity":39,"startTime":102.04325716666668,"endTime":102.08673533333334,"instrument":0,"program":0,"isDrum":true},{"pitch":38,"velocity":39,"startTime":102.08673533333334,"endTime":102.13021350000001,"instrument":0,"program":0,"isDrum":true},{"pitch":38,"velocity":42,"startTime":102.13021350000001,"endTime":102.17369166666668,"instrument":0,"program":0,"isDrum":true},{"pitch":38,"velocity":48,"startTime":102.17369166666668,"endTime":102.21716983333334,"instrument":0,"program":0,"isDrum":true},{"pitch":38,"velocity":53,"startTime":102.21716983333334,"endTime":102.260648,"instrument":0,"program":0,"isDrum":true},{"pitch":38,"velocity":55,"startTime":102.260648,"endTime":102.32586525,"instrument":0,"program":0,"isDrum":true},{"pitch":38,"velocity":85,"startTime":102.260648,"endTime":102.32586525,"instrument":0,"program":0,"isDrum":true},{"pitch":44,"velocity":95,"startTime":102.260648,"endTime":102.36934341666668,"instrument":0,"program":0,"isDrum":true},{"pitch":38,"velocity":55,"startTime":102.78238600000002,"endTime":102.84760325,"instrument":0,"program":0,"isDrum":true},{"pitch":38,"velocity":85,"startTime":102.78238600000002,"endTime":102.84760325,"instrument":0,"program":0,"isDrum":true},{"pitch":44,"velocity":95,"startTime":102.78238600000002,"endTime":102.88564664583333,"instrument":0,"program":0,"isDrum":true},{"pitch":38,"velocity":55,"startTime":103.30412400000002,"endTime":103.36934125,"instrument":0,"program":0,"isDrum":true},{"pitch":38,"velocity":85,"startTime":103.30412400000002,"endTime":103.36934125,"instrument":0,"program":0,"isDrum":true},{"pitch":44,"velocity":95,"startTime":103.30412400000002,"endTime":103.41281941666668,"instrument":0,"program":0,"isDrum":true},{"pitch":38,"velocity":55,"startTime":103.82586200000001,"endTime":103.89107925,"instrument":0,"program":0,"isDrum":true},{"pitch":38,"velocity":85,"startTime":103.82586200000001,"endTime":103.89107925,"instrument":0,"program":0,"isDrum":true},{"pitch":44,"velocity":95,"startTime":103.82586200000001,"endTime":103.93455741666668,"instrument":0,"program":0,"isDrum":true},{"pitch":38,"velocity":34,"startTime":104.08673100000001,"endTime":104.13020916666669,"instrument":0,"program":0,"isDrum":true},{"pitch":46,"velocity":69,"startTime":104.08673100000001,"endTime":104.33673045833334,"instrument":0,"program":0,"isDrum":true},{"pitch":38,"velocity":39,"startTime":104.13020916666669,"endTime":104.17368733333333,"instrument":0,"program":0,"isDrum":true},{"pitch":38,"velocity":39,"startTime":104.17368733333333,"endTime":104.21716550000001,"instrument":0,"program":0,"isDrum":true},{"pitch":38,"velocity":42,"startTime":104.21716550000001,"endTime":104.26064366666668,"instrument":0,"program":0,"isDrum":true},{"pitch":38,"velocity":48,"startTime":104.26064366666668,"endTime":104.30412183333334,"instrument":0,"program":0,"isDrum":true},{"pitch":38,"velocity":53,"startTime":104.30412183333334,"endTime":104.34760000000001,"instrument":0,"program":0,"isDrum":true},{"pitch":38,"velocity":55,"startTime":104.34760000000001,"endTime":104.41281725000002,"instrument":0,"program":0,"isDrum":true},{"pitch":38,"velocity":85,"startTime":104.34760000000001,"endTime":104.41281725000002,"instrument":0,"program":0,"isDrum":true},{"pitch":44,"velocity":95,"startTime":104.34760000000001,"endTime":104.45629541666668,"instrument":0,"program":0,"isDrum":true},{"pitch":38,"velocity":55,"startTime":104.86933800000001,"endTime":104.93455525000002,"instrument":0,"program":0,"isDrum":true},{"pitch":38,"velocity":85,"startTime":104.86933800000001,"endTime":104.93455525000002,"instrument":0,"program":0,"isDrum":true},{"pitch":44,"velocity":95,"startTime":104.86933800000001,"endTime":104.97803341666668,"instrument":0,"program":0,"isDrum":true},{"pitch":38,"velocity":55,"startTime":105.39107600000001,"endTime":105.45629325000002,"instrument":0,"program":0,"isDrum":true},{"pitch":38,"velocity":85,"startTime":105.39107600000001,"endTime":105.45629325000002,"instrument":0,"program":0,"isDrum":true},{"pitch":44,"velocity":95,"startTime":105.39107600000001,"endTime":105.48890187500001,"instrument":0,"program":0,"isDrum":true},{"pitch":38,"velocity":55,"startTime":105.91281400000001,"endTime":105.97803125000002,"instrument":0,"program":0,"isDrum":true},{"pitch":38,"velocity":85,"startTime":105.91281400000001,"endTime":105.97803125000002,"instrument":0,"program":0,"isDrum":true},{"pitch":44,"velocity":95,"startTime":105.91281400000001,"endTime":106.01607464583334,"instrument":0,"program":0,"isDrum":true},{"pitch":38,"velocity":34,"startTime":106.17368300000001,"endTime":106.21716116666668,"instrument":0,"program":0,"isDrum":true},{"pitch":46,"velocity":69,"startTime":106.17368300000001,"endTime":106.42368245833335,"instrument":0,"program":0,"isDrum":true},{"pitch":38,"velocity":39,"startTime":106.21716116666668,"endTime":106.26063933333334,"instrument":0,"program":0,"isDrum":true},{"pitch":38,"velocity":39,"startTime":106.26063933333334,"endTime":106.3041175,"instrument":0,"program":0,"isDrum":true},{"pitch":38,"velocity":42,"startTime":106.3041175,"endTime":106.34759566666668,"instrument":0,"program":0,"isDrum":true},{"pitch":38,"velocity":48,"startTime":106.34759566666668,"endTime":106.39107383333334,"instrument":0,"program":0,"isDrum":true},{"pitch":38,"velocity":53,"startTime":106.39107383333334,"endTime":106.43455200000001,"instrument":0,"program":0,"isDrum":true},{"pitch":38,"velocity":55,"startTime":106.43455200000001,"endTime":106.49976925000001,"instrument":0,"program":0,"isDrum":true},{"pitch":38,"velocity":85,"startTime":106.43455200000001,"endTime":106.49976925000001,"instrument":0,"program":0,"isDrum":true},{"pitch":44,"velocity":95,"startTime":106.43455200000001,"endTime":106.55955172916669,"instrument":0,"program":0,"isDrum":true},{"pitch":38,"velocity":55,"startTime":106.95629000000001,"endTime":107.02150725000001,"instrument":0,"program":0,"isDrum":true},{"pitch":38,"velocity":85,"startTime":106.95629000000001,"endTime":107.02150725000001,"instrument":0,"program":0,"isDrum":true},{"pitch":44,"velocity":95,"startTime":106.95629000000001,"endTime":107.0704201875,"instrument":0,"program":0,"isDrum":true},{"pitch":38,"velocity":55,"startTime":107.47802800000001,"endTime":107.54324525000001,"instrument":0,"program":0,"isDrum":true},{"pitch":38,"velocity":85,"startTime":107.47802800000001,"endTime":107.54324525000001,"instrument":0,"program":0,"isDrum":true},{"pitch":44,"velocity":95,"startTime":107.47802800000001,"endTime":107.58128864583334,"instrument":0,"program":0,"isDrum":true},{"pitch":38,"velocity":55,"startTime":107.99976600000001,"endTime":108.06498325000001,"instrument":0,"program":0,"isDrum":true},{"pitch":38,"velocity":85,"startTime":107.99976600000001,"endTime":108.06498325000001,"instrument":0,"program":0,"isDrum":true},{"pitch":44,"velocity":95,"startTime":107.99976600000001,"endTime":108.097591875,"instrument":0,"program":0,"isDrum":true},{"pitch":38,"velocity":34,"startTime":108.26063500000001,"endTime":108.30411316666668,"instrument":0,"program":0,"isDrum":true},{"pitch":46,"velocity":69,"startTime":108.26063500000001,"endTime":108.51063445833334,"instrument":0,"program":0,"isDrum":true},{"pitch":38,"velocity":39,"startTime":108.30411316666668,"endTime":108.34759133333334,"instrument":0,"program":0,"isDrum":true},{"pitch":38,"velocity":39,"startTime":108.34759133333334,"endTime":108.39106950000001,"instrument":0,"program":0,"isDrum":true},{"pitch":38,"velocity":42,"startTime":108.39106950000001,"endTime":108.43454766666669,"instrument":0,"program":0,"isDrum":true},{"pitch":38,"velocity":48,"startTime":108.43454766666669,"endTime":108.47802583333333,"instrument":0,"program":0,"isDrum":true},{"pitch":38,"velocity":53,"startTime":108.47802583333333,"endTime":108.52150400000001,"instrument":0,"program":0,"isDrum":true},{"pitch":38,"velocity":55,"startTime":108.52150400000001,"endTime":108.58672125000001,"instrument":0,"program":0,"isDrum":true},{"pitch":38,"velocity":85,"startTime":108.52150400000001,"endTime":108.58672125000001,"instrument":0,"program":0,"isDrum":true},{"pitch":44,"velocity":95,"startTime":108.52150400000001,"endTime":108.63019941666668,"instrument":0,"program":0,"isDrum":true},{"pitch":38,"velocity":55,"startTime":109.043242,"endTime":109.10845925000001,"instrument":0,"program":0,"isDrum":true},{"pitch":38,"velocity":85,"startTime":109.043242,"endTime":109.10845925000001,"instrument":0,"program":0,"isDrum":true},{"pitch":44,"velocity":95,"startTime":109.043242,"endTime":109.14650264583334,"instrument":0,"program":0,"isDrum":true},{"pitch":38,"velocity":55,"startTime":109.56498,"endTime":109.63019725000001,"instrument":0,"program":0,"isDrum":true},{"pitch":38,"velocity":85,"startTime":109.56498,"endTime":109.63019725000001,"instrument":0,"program":0,"isDrum":true},{"pitch":44,"velocity":95,"startTime":109.56498,"endTime":109.66280587500002,"instrument":0,"program":0,"isDrum":true},{"pitch":38,"velocity":55,"startTime":110.086718,"endTime":110.15193525000001,"instrument":0,"program":0,"isDrum":true},{"pitch":38,"velocity":85,"startTime":110.086718,"endTime":110.15193525000001,"instrument":0,"program":0,"isDrum":true},{"pitch":44,"velocity":95,"startTime":110.086718,"endTime":110.17910910416668,"instrument":0,"program":0,"isDrum":true},{"pitch":38,"velocity":34,"startTime":110.347587,"endTime":110.39106516666668,"instrument":0,"program":0,"isDrum":true},{"pitch":46,"velocity":69,"startTime":110.347587,"endTime":110.59758645833334,"instrument":0,"program":0,"isDrum":true},{"pitch":38,"velocity":39,"startTime":110.39106516666668,"endTime":110.43454333333334,"instrument":0,"program":0,"isDrum":true},{"pitch":38,"velocity":39,"startTime":110.43454333333334,"endTime":110.47802150000001,"instrument":0,"program":0,"isDrum":true},{"pitch":38,"velocity":42,"startTime":110.47802150000001,"endTime":110.52149966666668,"instrument":0,"program":0,"isDrum":true},{"pitch":38,"velocity":48,"startTime":110.52149966666668,"endTime":110.56497783333334,"instrument":0,"program":0,"isDrum":true},{"pitch":38,"velocity":53,"startTime":110.56497783333334,"endTime":110.60845600000002,"instrument":0,"program":0,"isDrum":true},{"pitch":38,"velocity":55,"startTime":110.60845600000002,"endTime":110.66280370833334,"instrument":0,"program":0,"isDrum":true},{"pitch":38,"velocity":85,"startTime":110.60845600000002,"endTime":110.66280370833334,"instrument":0,"program":0,"isDrum":true},{"pitch":44,"velocity":95,"startTime":110.60845600000002,"endTime":110.71171664583333,"instrument":0,"program":0,"isDrum":true},{"pitch":38,"velocity":55,"startTime":111.13019400000002,"endTime":111.19541125,"instrument":0,"program":0,"isDrum":true},{"pitch":38,"velocity":85,"startTime":111.13019400000002,"endTime":111.19541125,"instrument":0,"program":0,"isDrum":true},{"pitch":44,"velocity":95,"startTime":111.13019400000002,"endTime":111.23888941666668,"instrument":0,"program":0,"isDrum":true},{"pitch":38,"velocity":55,"startTime":111.65193200000002,"endTime":111.71714925,"instrument":0,"program":0,"isDrum":true},{"pitch":38,"velocity":85,"startTime":111.65193200000002,"endTime":111.71714925,"instrument":0,"program":0,"isDrum":true},{"pitch":44,"velocity":95,"startTime":111.65193200000002,"endTime":111.75519264583333,"instrument":0,"program":0,"isDrum":true},{"pitch":38,"velocity":55,"startTime":112.17367000000002,"endTime":112.23888725,"instrument":0,"program":0,"isDrum":true},{"pitch":38,"velocity":85,"startTime":112.17367000000002,"endTime":112.23888725,"instrument":0,"program":0,"isDrum":true},{"pitch":44,"velocity":95,"startTime":112.17367000000002,"endTime":112.27693064583335,"instrument":0,"program":0,"isDrum":true},{"pitch":38,"velocity":34,"startTime":112.43453900000002,"endTime":112.47801716666669,"instrument":0,"program":0,"isDrum":true},{"pitch":46,"velocity":69,"startTime":112.43453900000002,"endTime":112.68453845833334,"instrument":0,"program":0,"isDrum":true},{"pitch":38,"velocity":39,"startTime":112.47801716666669,"endTime":112.52149533333333,"instrument":0,"program":0,"isDrum":true},{"pitch":38,"velocity":39,"startTime":112.52149533333333,"endTime":112.56497350000001,"instrument":0,"program":0,"isDrum":true},{"pitch":38,"velocity":42,"startTime":112.56497350000001,"endTime":112.60845166666668,"instrument":0,"program":0,"isDrum":true},{"pitch":38,"velocity":48,"startTime":112.60845166666668,"endTime":112.65192983333334,"instrument":0,"program":0,"isDrum":true},{"pitch":38,"velocity":53,"startTime":112.65192983333334,"endTime":112.69540800000001,"instrument":0,"program":0,"isDrum":true},{"pitch":38,"velocity":55,"startTime":112.69540800000001,"endTime":112.76062525000002,"instrument":0,"program":0,"isDrum":true},{"pitch":38,"velocity":85,"startTime":112.69540800000001,"endTime":112.76062525000002,"instrument":0,"program":0,"isDrum":true},{"pitch":44,"velocity":95,"startTime":112.69540800000001,"endTime":112.80410341666668,"instrument":0,"program":0,"isDrum":true},{"pitch":38,"velocity":55,"startTime":113.21714600000001,"endTime":113.28236325000002,"instrument":0,"program":0,"isDrum":true},{"pitch":38,"velocity":85,"startTime":113.21714600000001,"endTime":113.28236325000002,"instrument":0,"program":0,"isDrum":true},{"pitch":44,"velocity":95,"startTime":113.21714600000001,"endTime":113.32040664583334,"instrument":0,"program":0,"isDrum":true},{"pitch":38,"velocity":55,"startTime":113.73888400000001,"endTime":113.80410125000002,"instrument":0,"program":0,"isDrum":true},{"pitch":38,"velocity":85,"startTime":113.73888400000001,"endTime":113.80410125000002,"instrument":0,"program":0,"isDrum":true},{"pitch":44,"velocity":95,"startTime":113.73888400000001,"endTime":113.84757941666668,"instrument":0,"program":0,"isDrum":true},{"pitch":38,"velocity":55,"startTime":114.26062200000001,"endTime":114.32583925000002,"instrument":0,"program":0,"isDrum":true},{"pitch":38,"velocity":85,"startTime":114.26062200000001,"endTime":114.32583925000002,"instrument":0,"program":0,"isDrum":true},{"pitch":44,"velocity":95,"startTime":114.26062200000001,"endTime":114.36931741666669,"instrument":0,"program":0,"isDrum":true},{"pitch":38,"velocity":34,"startTime":114.52149100000001,"endTime":114.56496916666669,"instrument":0,"program":0,"isDrum":true},{"pitch":46,"velocity":69,"startTime":114.52149100000001,"endTime":114.77149045833335,"instrument":0,"program":0,"isDrum":true},{"pitch":38,"velocity":39,"startTime":114.56496916666669,"endTime":114.60844733333334,"instrument":0,"program":0,"isDrum":true},{"pitch":38,"velocity":39,"startTime":114.60844733333334,"endTime":114.6519255,"instrument":0,"program":0,"isDrum":true},{"pitch":38,"velocity":42,"startTime":114.6519255,"endTime":114.69540366666668,"instrument":0,"program":0,"isDrum":true},{"pitch":38,"velocity":48,"startTime":114.69540366666668,"endTime":114.73888183333334,"instrument":0,"program":0,"isDrum":true},{"pitch":38,"velocity":53,"startTime":114.73888183333334,"endTime":114.78236000000001,"instrument":0,"program":0,"isDrum":true},{"pitch":38,"velocity":55,"startTime":114.78236000000001,"endTime":114.84757725000001,"instrument":0,"program":0,"isDrum":true},{"pitch":38,"velocity":85,"startTime":114.78236000000001,"endTime":114.84757725000001,"instrument":0,"program":0,"isDrum":true},{"pitch":44,"velocity":95,"startTime":114.78236000000001,"endTime":114.89105541666669,"instrument":0,"program":0,"isDrum":true},{"pitch":38,"velocity":55,"startTime":115.30409800000001,"endTime":115.36931525000001,"instrument":0,"program":0,"isDrum":true},{"pitch":38,"velocity":85,"startTime":115.30409800000001,"endTime":115.36931525000001,"instrument":0,"program":0,"isDrum":true},{"pitch":44,"velocity":95,"startTime":115.30409800000001,"endTime":115.41279341666669,"instrument":0,"program":0,"isDrum":true},{"pitch":38,"velocity":55,"startTime":115.82583600000001,"endTime":115.89105325000001,"instrument":0,"program":0,"isDrum":true},{"pitch":38,"velocity":85,"startTime":115.82583600000001,"endTime":115.89105325000001,"instrument":0,"program":0,"isDrum":true},{"pitch":44,"velocity":95,"startTime":115.82583600000001,"endTime":115.92366187500001,"instrument":0,"program":0,"isDrum":true},{"pitch":38,"velocity":55,"startTime":116.34757400000001,"endTime":116.41279125000001,"instrument":0,"program":0,"isDrum":true},{"pitch":38,"velocity":85,"startTime":116.34757400000001,"endTime":116.41279125000001,"instrument":0,"program":0,"isDrum":true},{"pitch":44,"velocity":95,"startTime":116.34757400000001,"endTime":116.45083464583334,"instrument":0,"program":0,"isDrum":true},{"pitch":38,"velocity":34,"startTime":116.60844300000001,"endTime":116.65192116666668,"instrument":0,"program":0,"isDrum":true},{"pitch":46,"velocity":69,"startTime":116.60844300000001,"endTime":116.85844245833334,"instrument":0,"program":0,"isDrum":true},{"pitch":38,"velocity":39,"startTime":116.65192116666668,"endTime":116.69539933333334,"instrument":0,"program":0,"isDrum":true},{"pitch":38,"velocity":39,"startTime":116.69539933333334,"endTime":116.73887750000002,"instrument":0,"program":0,"isDrum":true},{"pitch":38,"velocity":42,"startTime":116.73887750000002,"endTime":116.78235566666669,"instrument":0,"program":0,"isDrum":true},{"pitch":38,"velocity":48,"startTime":116.78235566666669,"endTime":116.82583383333333,"instrument":0,"program":0,"isDrum":true},{"pitch":38,"velocity":53,"startTime":116.82583383333333,"endTime":116.86931200000001,"instrument":0,"program":0,"isDrum":true},{"pitch":38,"velocity":55,"startTime":116.86931200000001,"endTime":116.93452925000001,"instrument":0,"program":0,"isDrum":true},{"pitch":38,"velocity":85,"startTime":116.86931200000001,"endTime":116.93452925000001,"instrument":0,"program":0,"isDrum":true},{"pitch":44,"velocity":95,"startTime":116.86931200000001,"endTime":116.99431172916668,"instrument":0,"program":0,"isDrum":true},{"pitch":38,"velocity":55,"startTime":117.39105,"endTime":117.45626725000001,"instrument":0,"program":0,"isDrum":true},{"pitch":38,"velocity":85,"startTime":117.39105,"endTime":117.45626725000001,"instrument":0,"program":0,"isDrum":true},{"pitch":44,"velocity":95,"startTime":117.39105,"endTime":117.50518018750002,"instrument":0,"program":0,"isDrum":true},{"pitch":38,"velocity":55,"startTime":117.912788,"endTime":117.97800525000001,"instrument":0,"program":0,"isDrum":true},{"pitch":38,"velocity":85,"startTime":117.912788,"endTime":117.97800525000001,"instrument":0,"program":0,"isDrum":true},{"pitch":44,"velocity":95,"startTime":117.912788,"endTime":118.01604864583334,"instrument":0,"program":0,"isDrum":true},{"pitch":38,"velocity":55,"startTime":118.434526,"endTime":118.49974325000001,"instrument":0,"program":0,"isDrum":true},{"pitch":38,"velocity":85,"startTime":118.434526,"endTime":118.49974325000001,"instrument":0,"program":0,"isDrum":true},{"pitch":44,"velocity":95,"startTime":118.434526,"endTime":118.53235187500002,"instrument":0,"program":0,"isDrum":true},{"pitch":38,"velocity":34,"startTime":118.695395,"endTime":118.73887316666668,"instrument":0,"program":0,"isDrum":true},{"pitch":46,"velocity":69,"startTime":118.695395,"endTime":118.94539445833334,"instrument":0,"program":0,"isDrum":true},{"pitch":38,"velocity":39,"startTime":118.73887316666668,"endTime":118.78235133333334,"instrument":0,"program":0,"isDrum":true},{"pitch":38,"velocity":39,"startTime":118.78235133333334,"endTime":118.82582950000001,"instrument":0,"program":0,"isDrum":true},{"pitch":38,"velocity":42,"startTime":118.82582950000001,"endTime":118.86930766666669,"instrument":0,"program":0,"isDrum":true},{"pitch":38,"velocity":48,"startTime":118.86930766666669,"endTime":118.91278583333334,"instrument":0,"program":0,"isDrum":true},{"pitch":38,"velocity":53,"startTime":118.91278583333334,"endTime":118.956264,"instrument":0,"program":0,"isDrum":true},{"pitch":38,"velocity":55,"startTime":118.956264,"endTime":119.02148125000001,"instrument":0,"program":0,"isDrum":true},{"pitch":38,"velocity":85,"startTime":118.956264,"endTime":119.02148125000001,"instrument":0,"program":0,"isDrum":true},{"pitch":44,"velocity":95,"startTime":118.956264,"endTime":119.06495941666668,"instrument":0,"program":0,"isDrum":true},{"pitch":38,"velocity":55,"startTime":119.47800200000002,"endTime":119.54321925,"instrument":0,"program":0,"isDrum":true},{"pitch":38,"velocity":85,"startTime":119.47800200000002,"endTime":119.54321925,"instrument":0,"program":0,"isDrum":true},{"pitch":44,"velocity":95,"startTime":119.47800200000002,"endTime":119.58126264583333,"instrument":0,"program":0,"isDrum":true},{"pitch":38,"velocity":55,"startTime":119.99974000000002,"endTime":120.06495725,"instrument":0,"program":0,"isDrum":true},{"pitch":38,"velocity":85,"startTime":119.99974000000002,"endTime":120.06495725,"instrument":0,"program":0,"isDrum":true},{"pitch":44,"velocity":95,"startTime":119.99974000000002,"endTime":120.09756587500002,"instrument":0,"program":0,"isDrum":true},{"pitch":38,"velocity":55,"startTime":120.52147800000002,"endTime":120.58669525,"instrument":0,"program":0,"isDrum":true},{"pitch":38,"velocity":85,"startTime":120.52147800000002,"endTime":120.58669525,"instrument":0,"program":0,"isDrum":true},{"pitch":44,"velocity":95,"startTime":120.52147800000002,"endTime":120.61386910416668,"instrument":0,"program":0,"isDrum":true},{"pitch":38,"velocity":34,"startTime":120.78234700000002,"endTime":120.82582516666669,"instrument":0,"program":0,"isDrum":true},{"pitch":46,"velocity":69,"startTime":120.78234700000002,"endTime":121.03234645833334,"instrument":0,"program":0,"isDrum":true},{"pitch":38,"velocity":39,"startTime":120.82582516666669,"endTime":120.86930333333333,"instrument":0,"program":0,"isDrum":true},{"pitch":38,"velocity":39,"startTime":120.86930333333333,"endTime":120.91278150000001,"instrument":0,"program":0,"isDrum":true},{"pitch":38,"velocity":42,"startTime":120.91278150000001,"endTime":120.95625966666668,"instrument":0,"program":0,"isDrum":true},{"pitch":38,"velocity":48,"startTime":120.95625966666668,"endTime":120.99973783333334,"instrument":0,"program":0,"isDrum":true},{"pitch":38,"velocity":53,"startTime":120.99973783333334,"endTime":121.04321600000002,"instrument":0,"program":0,"isDrum":true},{"pitch":38,"velocity":55,"startTime":121.04321600000002,"endTime":121.10843325000002,"instrument":0,"program":0,"isDrum":true},{"pitch":38,"velocity":85,"startTime":121.04321600000002,"endTime":121.10843325000002,"instrument":0,"program":0,"isDrum":true},{"pitch":44,"velocity":95,"startTime":121.04321600000002,"endTime":121.15191141666668,"instrument":0,"program":0,"isDrum":true},{"pitch":38,"velocity":55,"startTime":121.56495400000001,"endTime":121.63017125000002,"instrument":0,"program":0,"isDrum":true},{"pitch":38,"velocity":85,"startTime":121.56495400000001,"endTime":121.63017125000002,"instrument":0,"program":0,"isDrum":true},{"pitch":44,"velocity":95,"startTime":121.56495400000001,"endTime":121.66821464583334,"instrument":0,"program":0,"isDrum":true},{"pitch":38,"velocity":55,"startTime":122.08669200000001,"endTime":122.15190925000002,"instrument":0,"program":0,"isDrum":true},{"pitch":38,"velocity":85,"startTime":122.08669200000001,"endTime":122.15190925000002,"instrument":0,"program":0,"isDrum":true},{"pitch":44,"velocity":95,"startTime":122.08669200000001,"endTime":122.18451787500001,"instrument":0,"program":0,"isDrum":true},{"pitch":38,"velocity":55,"startTime":122.60843000000001,"endTime":122.67364725000002,"instrument":0,"program":0,"isDrum":true},{"pitch":38,"velocity":85,"startTime":122.60843000000001,"endTime":122.67364725000002,"instrument":0,"program":0,"isDrum":true},{"pitch":44,"velocity":95,"startTime":122.60843000000001,"endTime":122.70082110416668,"instrument":0,"program":0,"isDrum":true},{"pitch":38,"velocity":34,"startTime":122.86929900000001,"endTime":122.91277716666669,"instrument":0,"program":0,"isDrum":true},{"pitch":46,"velocity":69,"startTime":122.86929900000001,"endTime":123.11929845833335,"instrument":0,"program":0,"isDrum":true},{"pitch":38,"velocity":39,"startTime":122.91277716666669,"endTime":122.95625533333335,"instrument":0,"program":0,"isDrum":true},{"pitch":38,"velocity":39,"startTime":122.95625533333335,"endTime":122.9997335,"instrument":0,"program":0,"isDrum":true},{"pitch":38,"velocity":42,"startTime":122.9997335,"endTime":123.04321166666668,"instrument":0,"program":0,"isDrum":true},{"pitch":38,"velocity":48,"startTime":123.04321166666668,"endTime":123.08668983333334,"instrument":0,"program":0,"isDrum":true},{"pitch":38,"velocity":53,"startTime":123.08668983333334,"endTime":123.13016800000001,"instrument":0,"program":0,"isDrum":true},{"pitch":38,"velocity":55,"startTime":123.13016800000001,"endTime":123.19538525000002,"instrument":0,"program":0,"isDrum":true},{"pitch":38,"velocity":85,"startTime":123.13016800000001,"endTime":123.19538525000002,"instrument":0,"program":0,"isDrum":true},{"pitch":44,"velocity":95,"startTime":123.13016800000001,"endTime":123.23886341666669,"instrument":0,"program":0,"isDrum":true},{"pitch":38,"velocity":55,"startTime":123.65190600000001,"endTime":123.71712325000001,"instrument":0,"program":0,"isDrum":true},{"pitch":38,"velocity":85,"startTime":123.65190600000001,"endTime":123.71712325000001,"instrument":0,"program":0,"isDrum":true},{"pitch":44,"velocity":95,"startTime":123.65190600000001,"endTime":123.75516664583334,"instrument":0,"program":0,"isDrum":true},{"pitch":38,"velocity":55,"startTime":124.17364400000001,"endTime":124.23886125000001,"instrument":0,"program":0,"isDrum":true},{"pitch":38,"velocity":85,"startTime":124.17364400000001,"endTime":124.23886125000001,"instrument":0,"program":0,"isDrum":true},{"pitch":44,"velocity":95,"startTime":124.17364400000001,"endTime":124.27146987500001,"instrument":0,"program":0,"isDrum":true},{"pitch":38,"velocity":55,"startTime":124.69538200000001,"endTime":124.76059925000001,"instrument":0,"program":0,"isDrum":true},{"pitch":38,"velocity":85,"startTime":124.69538200000001,"endTime":124.76059925000001,"instrument":0,"program":0,"isDrum":true},{"pitch":44,"velocity":95,"startTime":124.69538200000001,"endTime":124.78777310416669,"instrument":0,"program":0,"isDrum":true},{"pitch":38,"velocity":34,"startTime":124.95625100000001,"endTime":124.99972916666668,"instrument":0,"program":0,"isDrum":true},{"pitch":46,"velocity":69,"startTime":124.95625100000001,"endTime":125.20625045833334,"instrument":0,"program":0,"isDrum":true},{"pitch":38,"velocity":39,"startTime":124.99972916666668,"endTime":125.04320733333334,"instrument":0,"program":0,"isDrum":true},{"pitch":38,"velocity":39,"startTime":125.04320733333334,"endTime":125.08668550000002,"instrument":0,"program":0,"isDrum":true},{"pitch":38,"velocity":42,"startTime":125.08668550000002,"endTime":125.13016366666669,"instrument":0,"program":0,"isDrum":true},{"pitch":38,"velocity":48,"startTime":125.13016366666669,"endTime":125.17364183333333,"instrument":0,"program":0,"isDrum":true},{"pitch":38,"velocity":53,"startTime":125.17364183333333,"endTime":125.21712000000001,"instrument":0,"program":0,"isDrum":true},{"pitch":38,"velocity":55,"startTime":125.21712000000001,"endTime":125.28233725000001,"instrument":0,"program":0,"isDrum":true},{"pitch":38,"velocity":85,"startTime":125.21712000000001,"endTime":125.28233725000001,"instrument":0,"program":0,"isDrum":true},{"pitch":44,"velocity":95,"startTime":125.21712000000001,"endTime":125.32581541666669,"instrument":0,"program":0,"isDrum":true},{"pitch":38,"velocity":55,"startTime":125.73885800000001,"endTime":125.80407525000001,"instrument":0,"program":0,"isDrum":true},{"pitch":38,"velocity":85,"startTime":125.73885800000001,"endTime":125.80407525000001,"instrument":0,"program":0,"isDrum":true},{"pitch":44,"velocity":95,"startTime":125.73885800000001,"endTime":125.84211864583334,"instrument":0,"program":0,"isDrum":true},{"pitch":38,"velocity":55,"startTime":126.26059600000002,"endTime":126.32581325000001,"instrument":0,"program":0,"isDrum":true},{"pitch":38,"velocity":85,"startTime":126.26059600000002,"endTime":126.32581325000001,"instrument":0,"program":0,"isDrum":true},{"pitch":44,"velocity":95,"startTime":126.26059600000002,"endTime":126.358421875,"instrument":0,"program":0,"isDrum":true},{"pitch":38,"velocity":55,"startTime":126.78233400000002,"endTime":126.84755125000001,"instrument":0,"program":0,"isDrum":true},{"pitch":38,"velocity":85,"startTime":126.78233400000002,"endTime":126.84755125000001,"instrument":0,"program":0,"isDrum":true},{"pitch":44,"velocity":95,"startTime":126.78233400000002,"endTime":126.87472510416669,"instrument":0,"program":0,"isDrum":true},{"pitch":38,"velocity":34,"startTime":127.043203,"endTime":127.0866811666667,"instrument":0,"program":0,"isDrum":true},{"pitch":46,"velocity":69,"startTime":127.043203,"endTime":127.29320245833335,"instrument":0,"program":0,"isDrum":true},{"pitch":38,"velocity":39,"startTime":127.0866811666667,"endTime":127.13015933333335,"instrument":0,"program":0,"isDrum":true},{"pitch":38,"velocity":39,"startTime":127.13015933333335,"endTime":127.17363750000001,"instrument":0,"program":0,"isDrum":true},{"pitch":38,"velocity":42,"startTime":127.17363750000001,"endTime":127.21711566666667,"instrument":0,"program":0,"isDrum":true},{"pitch":38,"velocity":48,"startTime":127.21711566666667,"endTime":127.26059383333333,"instrument":0,"program":0,"isDrum":true},{"pitch":38,"velocity":53,"startTime":127.26059383333333,"endTime":127.30407200000002,"instrument":0,"program":0,"isDrum":true},{"pitch":38,"velocity":55,"startTime":127.30407200000002,"endTime":127.36928925000001,"instrument":0,"program":0,"isDrum":true},{"pitch":38,"velocity":85,"startTime":127.30407200000002,"endTime":127.36928925000001,"instrument":0,"program":0,"isDrum":true},{"pitch":44,"velocity":95,"startTime":127.30407200000002,"endTime":127.401897875,"instrument":0,"program":0,"isDrum":true},{"pitch":38,"velocity":55,"startTime":127.82581000000002,"endTime":127.89102725000001,"instrument":0,"program":0,"isDrum":true},{"pitch":38,"velocity":85,"startTime":127.82581000000002,"endTime":127.89102725000001,"instrument":0,"program":0,"isDrum":true},{"pitch":44,"velocity":95,"startTime":127.82581000000002,"endTime":127.923635875,"instrument":0,"program":0,"isDrum":true},{"pitch":38,"velocity":55,"startTime":128.34754800000002,"endTime":128.41276525,"instrument":0,"program":0,"isDrum":true},{"pitch":38,"velocity":85,"startTime":128.34754800000002,"endTime":128.41276525,"instrument":0,"program":0,"isDrum":true},{"pitch":44,"velocity":95,"startTime":128.34754800000002,"endTime":128.43993910416668,"instrument":0,"program":0,"isDrum":true},{"pitch":38,"velocity":55,"startTime":128.86928600000002,"endTime":128.93450325,"instrument":0,"program":0,"isDrum":true},{"pitch":38,"velocity":85,"startTime":128.86928600000002,"endTime":128.93450325,"instrument":0,"program":0,"isDrum":true},{"pitch":44,"velocity":95,"startTime":128.86928600000002,"endTime":128.97254664583335,"instrument":0,"program":0,"isDrum":true},{"pitch":38,"velocity":34,"startTime":129.130155,"endTime":129.1736331666667,"instrument":0,"program":0,"isDrum":true},{"pitch":46,"velocity":69,"startTime":129.130155,"endTime":129.38015445833335,"instrument":0,"program":0,"isDrum":true},{"pitch":38,"velocity":39,"startTime":129.1736331666667,"endTime":129.21711133333335,"instrument":0,"program":0,"isDrum":true},{"pitch":38,"velocity":39,"startTime":129.21711133333335,"endTime":129.2605895,"instrument":0,"program":0,"isDrum":true},{"pitch":38,"velocity":42,"startTime":129.2605895,"endTime":129.3040676666667,"instrument":0,"program":0,"isDrum":true},{"pitch":38,"velocity":48,"startTime":129.3040676666667,"endTime":129.34754583333333,"instrument":0,"program":0,"isDrum":true},{"pitch":38,"velocity":53,"startTime":129.34754583333333,"endTime":129.39102400000002,"instrument":0,"program":0,"isDrum":true},{"pitch":38,"velocity":55,"startTime":129.39102400000002,"endTime":129.45624125,"instrument":0,"program":0,"isDrum":true},{"pitch":38,"velocity":85,"startTime":129.39102400000002,"endTime":129.45624125,"instrument":0,"program":0,"isDrum":true},{"pitch":51,"velocity":87,"startTime":129.39102400000002,"endTime":129.48341510416668,"instrument":0,"program":0,"isDrum":true},{"pitch":70,"velocity":78,"startTime":131.477976,"endTime":131.58667141666666,"instrument":0,"program":0,"isDrum":true},{"pitch":51,"velocity":85,"startTime":131.73884500000003,"endTime":131.9508010625,"instrument":0,"program":0,"isDrum":true},{"pitch":38,"velocity":55,"startTime":131.999714,"endTime":132.10297464583334,"instrument":0,"program":0,"isDrum":true},{"pitch":38,"velocity":85,"startTime":131.999714,"endTime":132.10297464583334,"instrument":0,"program":0,"isDrum":true},{"pitch":44,"velocity":95,"startTime":131.999714,"endTime":132.24971345833336,"instrument":0,"program":0,"isDrum":true},{"pitch":38,"velocity":55,"startTime":132.521452,"endTime":132.61384310416668,"instrument":0,"program":0,"isDrum":true},{"pitch":38,"velocity":85,"startTime":132.521452,"endTime":132.61384310416668,"instrument":0,"program":0,"isDrum":true},{"pitch":51,"velocity":87,"startTime":132.521452,"endTime":132.70623420833334,"instrument":0,"program":0,"isDrum":true},{"pitch":38,"velocity":55,"startTime":133.564928,"endTime":133.65188433333336,"instrument":0,"program":0,"isDrum":true},{"pitch":38,"velocity":85,"startTime":133.564928,"endTime":133.65188433333336,"instrument":0,"program":0,"isDrum":true},{"pitch":44,"velocity":95,"startTime":133.564928,"endTime":133.63014525000003,"instrument":0,"program":0,"isDrum":true},{"pitch":51,"velocity":87,"startTime":133.564928,"endTime":133.63558002083334,"instrument":0,"program":0,"isDrum":true},{"pitch":38,"velocity":55,"startTime":133.82579700000002,"endTime":133.89644902083336,"instrument":0,"program":0,"isDrum":true},{"pitch":38,"velocity":85,"startTime":133.82579700000002,"endTime":133.89644902083336,"instrument":0,"program":0,"isDrum":true},{"pitch":44,"velocity":95,"startTime":133.82579700000002,"endTime":133.90188379166668,"instrument":0,"program":0,"isDrum":true},{"pitch":51,"velocity":87,"startTime":133.82579700000002,"endTime":133.90188379166668,"instrument":0,"program":0,"isDrum":true},{"pitch":38,"velocity":55,"startTime":134.086666,"endTime":134.15188325000003,"instrument":0,"program":0,"isDrum":true},{"pitch":38,"velocity":85,"startTime":134.086666,"endTime":134.15188325000003,"instrument":0,"program":0,"isDrum":true},{"pitch":44,"velocity":95,"startTime":134.086666,"endTime":134.15188325000003,"instrument":0,"program":0,"isDrum":true},{"pitch":51,"velocity":87,"startTime":134.086666,"endTime":134.16275279166666,"instrument":0,"program":0,"isDrum":true},{"pitch":38,"velocity":55,"startTime":134.34753500000002,"endTime":134.41275225,"instrument":0,"program":0,"isDrum":true},{"pitch":38,"velocity":85,"startTime":134.34753500000002,"endTime":134.41275225,"instrument":0,"program":0,"isDrum":true},{"pitch":44,"velocity":95,"startTime":134.34753500000002,"endTime":134.42905656250002,"instrument":0,"program":0,"isDrum":true},{"pitch":51,"velocity":87,"startTime":134.34753500000002,"endTime":134.42905656250002,"instrument":0,"program":0,"isDrum":true},{"pitch":38,"velocity":55,"startTime":134.86927300000002,"endTime":134.92905547916666,"instrument":0,"program":0,"isDrum":true},{"pitch":38,"velocity":85,"startTime":134.86927300000002,"endTime":134.92905547916666,"instrument":0,"program":0,"isDrum":true},{"pitch":44,"velocity":95,"startTime":134.86927300000002,"endTime":134.94535979166668,"instrument":0,"program":0,"isDrum":true},{"pitch":51,"velocity":87,"startTime":134.86927300000002,"endTime":134.93992502083336,"instrument":0,"program":0,"isDrum":true},{"pitch":38,"velocity":55,"startTime":135.39101100000002,"endTime":135.43992393750003,"instrument":0,"program":0,"isDrum":true},{"pitch":38,"velocity":85,"startTime":135.39101100000002,"endTime":135.43992393750003,"instrument":0,"program":0,"isDrum":true},{"pitch":44,"velocity":95,"startTime":135.39101100000002,"endTime":135.44535870833334,"instrument":0,"program":0,"isDrum":true},{"pitch":51,"velocity":87,"startTime":135.39101100000002,"endTime":135.45622825,"instrument":0,"program":0,"isDrum":true},{"pitch":38,"velocity":85,"startTime":135.65188,"endTime":135.75514064583336,"instrument":0,"program":0,"isDrum":true},{"pitch":51,"velocity":85,"startTime":135.65188,"endTime":135.67905385416668,"instrument":0,"program":0,"isDrum":true},{"pitch":51,"velocity":87,"startTime":135.65188,"endTime":135.67905385416668,"instrument":0,"program":0,"isDrum":true},{"pitch":38,"velocity":55,"startTime":137.738832,"endTime":137.82578833333335,"instrument":0,"program":0,"isDrum":true},{"pitch":38,"velocity":85,"startTime":137.738832,"endTime":137.82578833333335,"instrument":0,"program":0,"isDrum":true},{"pitch":44,"velocity":95,"startTime":137.738832,"endTime":137.80404925000002,"instrument":0,"program":0,"isDrum":true},{"pitch":51,"velocity":87,"startTime":137.738832,"endTime":137.80948402083337,"instrument":0,"program":0,"isDrum":true},{"pitch":38,"velocity":55,"startTime":137.99970100000002,"endTime":138.07035302083335,"instrument":0,"program":0,"isDrum":true},{"pitch":38,"velocity":85,"startTime":137.99970100000002,"endTime":138.07035302083335,"instrument":0,"program":0,"isDrum":true},{"pitch":44,"velocity":95,"startTime":137.99970100000002,"endTime":138.07578779166667,"instrument":0,"program":0,"isDrum":true},{"pitch":51,"velocity":87,"startTime":137.99970100000002,"endTime":138.07578779166667,"instrument":0,"program":0,"isDrum":true},{"pitch":38,"velocity":55,"startTime":138.26057,"endTime":138.32578725000002,"instrument":0,"program":0,"isDrum":true},{"pitch":38,"velocity":85,"startTime":138.26057,"endTime":138.32578725000002,"instrument":0,"program":0,"isDrum":true},{"pitch":44,"velocity":95,"startTime":138.26057,"endTime":138.32578725000002,"instrument":0,"program":0,"isDrum":true},{"pitch":51,"velocity":87,"startTime":138.26057,"endTime":138.33665679166668,"instrument":0,"program":0,"isDrum":true},{"pitch":38,"velocity":55,"startTime":138.52143900000002,"endTime":138.58665625,"instrument":0,"program":0,"isDrum":true},{"pitch":38,"velocity":85,"startTime":138.52143900000002,"endTime":138.58665625,"instrument":0,"program":0,"isDrum":true},{"pitch":44,"velocity":95,"startTime":138.52143900000002,"endTime":138.60296056250002,"instrument":0,"program":0,"isDrum":true},{"pitch":51,"velocity":87,"startTime":138.52143900000002,"endTime":138.60296056250002,"instrument":0,"program":0,"isDrum":true},{"pitch":38,"velocity":55,"startTime":139.04317700000001,"endTime":139.10295947916666,"instrument":0,"program":0,"isDrum":true},{"pitch":38,"velocity":85,"startTime":139.04317700000001,"endTime":139.10295947916666,"instrument":0,"program":0,"isDrum":true},{"pitch":44,"velocity":95,"startTime":139.04317700000001,"endTime":139.11926379166667,"instrument":0,"program":0,"isDrum":true},{"pitch":51,"velocity":87,"startTime":139.04317700000001,"endTime":139.11382902083335,"instrument":0,"program":0,"isDrum":true},{"pitch":38,"velocity":55,"startTime":139.564915,"endTime":139.61382793750002,"instrument":0,"program":0,"isDrum":true},{"pitch":38,"velocity":85,"startTime":139.564915,"endTime":139.61382793750002,"instrument":0,"program":0,"isDrum":true},{"pitch":44,"velocity":95,"startTime":139.564915,"endTime":139.61926270833337,"instrument":0,"program":0,"isDrum":true},{"pitch":51,"velocity":87,"startTime":139.564915,"endTime":139.63013225,"instrument":0,"program":0,"isDrum":true},{"pitch":38,"velocity":85,"startTime":139.825784,"endTime":139.92904464583336,"instrument":0,"program":0,"isDrum":true},{"pitch":51,"velocity":85,"startTime":139.825784,"endTime":139.85295785416668,"instrument":0,"program":0,"isDrum":true},{"pitch":51,"velocity":87,"startTime":139.825784,"endTime":139.85295785416668,"instrument":0,"program":0,"isDrum":true},{"pitch":38,"velocity":55,"startTime":141.91273600000002,"endTime":141.99969233333334,"instrument":0,"program":0,"isDrum":true},{"pitch":38,"velocity":85,"startTime":141.91273600000002,"endTime":141.99969233333334,"instrument":0,"program":0,"isDrum":true},{"pitch":44,"velocity":95,"startTime":141.91273600000002,"endTime":141.97795325,"instrument":0,"program":0,"isDrum":true},{"pitch":51,"velocity":87,"startTime":141.91273600000002,"endTime":141.98338802083336,"instrument":0,"program":0,"isDrum":true},{"pitch":38,"velocity":55,"startTime":142.173605,"endTime":142.24425702083334,"instrument":0,"program":0,"isDrum":true},{"pitch":38,"velocity":85,"startTime":142.173605,"endTime":142.24425702083334,"instrument":0,"program":0,"isDrum":true},{"pitch":44,"velocity":95,"startTime":142.173605,"endTime":142.24969179166666,"instrument":0,"program":0,"isDrum":true},{"pitch":51,"velocity":87,"startTime":142.173605,"endTime":142.24969179166666,"instrument":0,"program":0,"isDrum":true},{"pitch":38,"velocity":55,"startTime":142.43447400000002,"endTime":142.49969125,"instrument":0,"program":0,"isDrum":true},{"pitch":38,"velocity":85,"startTime":142.43447400000002,"endTime":142.49969125,"instrument":0,"program":0,"isDrum":true},{"pitch":44,"velocity":95,"startTime":142.43447400000002,"endTime":142.49969125,"instrument":0,"program":0,"isDrum":true},{"pitch":51,"velocity":87,"startTime":142.43447400000002,"endTime":142.51056079166668,"instrument":0,"program":0,"isDrum":true},{"pitch":38,"velocity":55,"startTime":142.695343,"endTime":142.76056025000003,"instrument":0,"program":0,"isDrum":true},{"pitch":38,"velocity":85,"startTime":142.695343,"endTime":142.76056025000003,"instrument":0,"program":0,"isDrum":true},{"pitch":44,"velocity":95,"startTime":142.695343,"endTime":142.7768645625,"instrument":0,"program":0,"isDrum":true},{"pitch":51,"velocity":87,"startTime":142.695343,"endTime":142.7768645625,"instrument":0,"program":0,"isDrum":true},{"pitch":38,"velocity":55,"startTime":143.217081,"endTime":143.27686347916668,"instrument":0,"program":0,"isDrum":true},{"pitch":38,"velocity":85,"startTime":143.217081,"endTime":143.27686347916668,"instrument":0,"program":0,"isDrum":true},{"pitch":44,"velocity":95,"startTime":143.217081,"endTime":143.29316779166666,"instrument":0,"program":0,"isDrum":true},{"pitch":51,"velocity":87,"startTime":143.217081,"endTime":143.28773302083334,"instrument":0,"program":0,"isDrum":true},{"pitch":38,"velocity":55,"startTime":143.738819,"endTime":143.7877319375,"instrument":0,"program":0,"isDrum":true},{"pitch":38,"velocity":85,"startTime":143.738819,"endTime":143.7877319375,"instrument":0,"program":0,"isDrum":true},{"pitch":44,"velocity":95,"startTime":143.738819,"endTime":143.79316670833336,"instrument":0,"program":0,"isDrum":true},{"pitch":51,"velocity":87,"startTime":143.738819,"endTime":143.80403625000002,"instrument":0,"program":0,"isDrum":true},{"pitch":38,"velocity":85,"startTime":143.99968800000002,"endTime":144.10294864583335,"instrument":0,"program":0,"isDrum":true},{"pitch":51,"velocity":85,"startTime":143.99968800000002,"endTime":144.02686185416667,"instrument":0,"program":0,"isDrum":true},{"pitch":51,"velocity":87,"startTime":143.99968800000002,"endTime":144.02686185416667,"instrument":0,"program":0,"isDrum":true},{"pitch":38,"velocity":55,"startTime":146.08664000000002,"endTime":146.17359633333336,"instrument":0,"program":0,"isDrum":true},{"pitch":38,"velocity":85,"startTime":146.08664000000002,"endTime":146.17359633333336,"instrument":0,"program":0,"isDrum":true},{"pitch":44,"velocity":95,"startTime":146.08664000000002,"endTime":146.15185725,"instrument":0,"program":0,"isDrum":true},{"pitch":51,"velocity":87,"startTime":146.08664000000002,"endTime":146.15729202083335,"instrument":0,"program":0,"isDrum":true},{"pitch":38,"velocity":55,"startTime":146.347509,"endTime":146.41816102083337,"instrument":0,"program":0,"isDrum":true},{"pitch":38,"velocity":85,"startTime":146.347509,"endTime":146.41816102083337,"instrument":0,"program":0,"isDrum":true},{"pitch":44,"velocity":95,"startTime":146.347509,"endTime":146.42359579166666,"instrument":0,"program":0,"isDrum":true},{"pitch":51,"velocity":87,"startTime":146.347509,"endTime":146.42359579166666,"instrument":0,"program":0,"isDrum":true},{"pitch":38,"velocity":55,"startTime":146.60837800000002,"endTime":146.67359525,"instrument":0,"program":0,"isDrum":true},{"pitch":38,"velocity":85,"startTime":146.60837800000002,"endTime":146.67359525,"instrument":0,"program":0,"isDrum":true},{"pitch":44,"velocity":95,"startTime":146.60837800000002,"endTime":146.67359525,"instrument":0,"program":0,"isDrum":true},{"pitch":51,"velocity":87,"startTime":146.60837800000002,"endTime":146.68446479166667,"instrument":0,"program":0,"isDrum":true},{"pitch":38,"velocity":55,"startTime":146.869247,"endTime":146.93446425000002,"instrument":0,"program":0,"isDrum":true},{"pitch":38,"velocity":85,"startTime":146.869247,"endTime":146.93446425000002,"instrument":0,"program":0,"isDrum":true},{"pitch":44,"velocity":95,"startTime":146.869247,"endTime":146.9507685625,"instrument":0,"program":0,"isDrum":true},{"pitch":51,"velocity":87,"startTime":146.869247,"endTime":146.9507685625,"instrument":0,"program":0,"isDrum":true},{"pitch":38,"velocity":55,"startTime":147.390985,"endTime":147.45076747916667,"instrument":0,"program":0,"isDrum":true},{"pitch":38,"velocity":85,"startTime":147.390985,"endTime":147.45076747916667,"instrument":0,"program":0,"isDrum":true},{"pitch":44,"velocity":95,"startTime":147.390985,"endTime":147.46707179166668,"instrument":0,"program":0,"isDrum":true},{"pitch":51,"velocity":87,"startTime":147.390985,"endTime":147.46163702083336,"instrument":0,"program":0,"isDrum":true},{"pitch":38,"velocity":55,"startTime":147.912723,"endTime":147.9616359375,"instrument":0,"program":0,"isDrum":true},{"pitch":38,"velocity":85,"startTime":147.912723,"endTime":147.9616359375,"instrument":0,"program":0,"isDrum":true},{"pitch":44,"velocity":95,"startTime":147.912723,"endTime":147.96707070833335,"instrument":0,"program":0,"isDrum":true},{"pitch":51,"velocity":87,"startTime":147.912723,"endTime":147.97794025000002,"instrument":0,"program":0,"isDrum":true},{"pitch":38,"velocity":85,"startTime":148.173592,"endTime":148.27685264583334,"instrument":0,"program":0,"isDrum":true},{"pitch":51,"velocity":85,"startTime":148.173592,"endTime":148.20076585416666,"instrument":0,"program":0,"isDrum":true},{"pitch":51,"velocity":87,"startTime":148.173592,"endTime":148.20076585416666,"instrument":0,"program":0,"isDrum":true},{"pitch":38,"velocity":85,"startTime":150.260544,"endTime":150.35836987500002,"instrument":0,"program":0,"isDrum":true},{"pitch":51,"velocity":85,"startTime":150.260544,"endTime":150.28771785416666,"instrument":0,"program":0,"isDrum":true},{"pitch":51,"velocity":87,"startTime":150.260544,"endTime":150.28771785416666,"instrument":0,"program":0,"isDrum":true},{"pitch":38,"velocity":85,"startTime":152.347496,"endTime":152.41814802083337,"instrument":0,"program":0,"isDrum":true},{"pitch":51,"velocity":87,"startTime":152.347496,"endTime":152.3964089375,"instrument":0,"program":0,"isDrum":true},{"pitch":53,"velocity":80,"startTime":152.347496,"endTime":152.67901702083336,"instrument":0,"program":0,"isDrum":true},{"pitch":38,"velocity":85,"startTime":153.390972,"endTime":153.46705879166666,"instrument":0,"program":0,"isDrum":true},{"pitch":51,"velocity":87,"startTime":153.390972,"endTime":153.4398849375,"instrument":0,"program":0,"isDrum":true},{"pitch":53,"velocity":93,"startTime":153.390972,"endTime":153.66271054166668,"instrument":0,"program":0,"isDrum":true},{"pitch":38,"velocity":85,"startTime":154.434448,"endTime":154.49423047916667,"instrument":0,"program":0,"isDrum":true},{"pitch":51,"velocity":87,"startTime":154.434448,"endTime":154.47792616666666,"instrument":0,"program":0,"isDrum":true},{"pitch":53,"velocity":128,"startTime":154.434448,"endTime":154.76596902083335,"instrument":0,"program":0,"isDrum":true},{"pitch":38,"velocity":85,"startTime":155.477924,"endTime":155.54314125000002,"instrument":0,"program":0,"isDrum":true},{"pitch":51,"velocity":87,"startTime":155.477924,"endTime":155.51596739583337,"instrument":0,"program":0,"isDrum":true},{"pitch":53,"velocity":128,"startTime":155.477924,"endTime":155.82031456250002,"instrument":0,"program":0,"isDrum":true},{"pitch":38,"velocity":85,"startTime":156.52140000000003,"endTime":156.59748679166668,"instrument":0,"program":0,"isDrum":true},{"pitch":51,"velocity":87,"startTime":156.52140000000003,"endTime":156.55400862500002,"instrument":0,"program":0,"isDrum":true},{"pitch":53,"velocity":93,"startTime":156.52140000000003,"endTime":156.7333560625,"instrument":0,"program":0,"isDrum":true},{"pitch":38,"velocity":85,"startTime":157.56487600000003,"endTime":157.63009325000002,"instrument":0,"program":0,"isDrum":true},{"pitch":51,"velocity":87,"startTime":157.56487600000003,"endTime":157.59204985416667,"instrument":0,"program":0,"isDrum":true},{"pitch":53,"velocity":93,"startTime":157.56487600000003,"endTime":157.8094406875,"instrument":0,"program":0,"isDrum":true},{"pitch":38,"velocity":85,"startTime":158.60835200000002,"endTime":158.66813447916667,"instrument":0,"program":0,"isDrum":true},{"pitch":51,"velocity":87,"startTime":158.60835200000002,"endTime":158.63552585416667,"instrument":0,"program":0,"isDrum":true},{"pitch":53,"velocity":93,"startTime":158.60835200000002,"endTime":158.77682989583334,"instrument":0,"program":0,"isDrum":true},{"pitch":38,"velocity":85,"startTime":159.65182800000002,"endTime":159.69530616666668,"instrument":0,"program":0,"isDrum":true},{"pitch":51,"velocity":87,"startTime":159.65182800000002,"endTime":159.67356708333335,"instrument":0,"program":0,"isDrum":true},{"pitch":53,"velocity":93,"startTime":159.65182800000002,"endTime":160.075740125,"instrument":0,"program":0,"isDrum":true},{"pitch":38,"velocity":85,"startTime":160.69530400000002,"endTime":160.75508647916666,"instrument":0,"program":0,"isDrum":true},{"pitch":51,"velocity":87,"startTime":160.69530400000002,"endTime":160.72791262500002,"instrument":0,"program":0,"isDrum":true},{"pitch":53,"velocity":128,"startTime":160.69530400000002,"endTime":161.09204227083336,"instrument":0,"program":0,"isDrum":true},{"pitch":38,"velocity":85,"startTime":161.73878000000002,"endTime":161.78769293750003,"instrument":0,"program":0,"isDrum":true},{"pitch":51,"velocity":87,"startTime":161.73878000000002,"endTime":161.77682339583336,"instrument":0,"program":0,"isDrum":true},{"pitch":53,"velocity":128,"startTime":161.73878000000002,"endTime":162.05943147916668,"instrument":0,"program":0,"isDrum":true},{"pitch":38,"velocity":85,"startTime":162.78225600000002,"endTime":162.84203847916666,"instrument":0,"program":0,"isDrum":true},{"pitch":51,"velocity":87,"startTime":162.78225600000002,"endTime":162.80942985416667,"instrument":0,"program":0,"isDrum":true},{"pitch":53,"velocity":128,"startTime":162.78225600000002,"endTime":163.06486408333336,"instrument":0,"program":0,"isDrum":true},{"pitch":38,"velocity":85,"startTime":163.82573200000002,"endTime":163.88551447916666,"instrument":0,"program":0,"isDrum":true},{"pitch":51,"velocity":87,"startTime":163.82573200000002,"endTime":163.86377539583336,"instrument":0,"program":0,"isDrum":true},{"pitch":53,"velocity":93,"startTime":163.82573200000002,"endTime":164.40181770833337,"instrument":0,"program":0,"isDrum":true},{"pitch":38,"velocity":85,"startTime":164.86920800000001,"endTime":164.92899047916666,"instrument":0,"program":0,"isDrum":true},{"pitch":51,"velocity":87,"startTime":164.86920800000001,"endTime":164.901816625,"instrument":0,"program":0,"isDrum":true},{"pitch":53,"velocity":128,"startTime":164.86920800000001,"endTime":164.96159910416668,"instrument":0,"program":0,"isDrum":true},{"pitch":51,"velocity":85,"startTime":165.13007700000003,"endTime":165.28225058333337,"instrument":0,"program":0,"isDrum":true},{"pitch":38,"velocity":55,"startTime":165.390946,"endTime":165.46159802083335,"instrument":0,"program":0,"isDrum":true},{"pitch":38,"velocity":85,"startTime":165.390946,"endTime":165.46159802083335,"instrument":0,"program":0,"isDrum":true},{"pitch":44,"velocity":95,"startTime":165.390946,"endTime":165.52138050000002,"instrument":0,"program":0,"isDrum":true},{"pitch":38,"velocity":55,"startTime":165.912684,"endTime":165.96159693750002,"instrument":0,"program":0,"isDrum":true},{"pitch":38,"velocity":85,"startTime":165.912684,"endTime":165.96159693750002,"instrument":0,"program":0,"isDrum":true},{"pitch":44,"velocity":95,"startTime":165.912684,"endTime":166.03224895833335,"instrument":0,"program":0,"isDrum":true},{"pitch":51,"velocity":87,"startTime":165.912684,"endTime":166.05398804166668,"instrument":0,"program":0,"isDrum":true},{"pitch":38,"velocity":34,"startTime":166.69529100000003,"endTime":166.73876916666669,"instrument":0,"program":0,"isDrum":true},{"pitch":46,"velocity":69,"startTime":166.69529100000003,"endTime":166.94529045833335,"instrument":0,"program":0,"isDrum":true},{"pitch":38,"velocity":39,"startTime":166.73876916666669,"endTime":166.78224733333334,"instrument":0,"program":0,"isDrum":true},{"pitch":38,"velocity":39,"startTime":166.78224733333334,"endTime":166.8257255,"instrument":0,"program":0,"isDrum":true},{"pitch":38,"velocity":42,"startTime":166.8257255,"endTime":166.86920366666666,"instrument":0,"program":0,"isDrum":true},{"pitch":38,"velocity":48,"startTime":166.86920366666666,"endTime":166.91268183333335,"instrument":0,"program":0,"isDrum":true},{"pitch":38,"velocity":53,"startTime":166.91268183333335,"endTime":166.95616,"instrument":0,"program":0,"isDrum":true},{"pitch":38,"velocity":55,"startTime":166.95616,"endTime":167.01050770833336,"instrument":0,"program":0,"isDrum":true},{"pitch":38,"velocity":85,"startTime":166.95616,"endTime":167.01050770833336,"instrument":0,"program":0,"isDrum":true},{"pitch":51,"velocity":87,"startTime":166.95616,"endTime":167.05942064583337,"instrument":0,"program":0,"isDrum":true},{"pitch":38,"velocity":55,"startTime":167.477898,"endTime":167.54311525000003,"instrument":0,"program":0,"isDrum":true},{"pitch":38,"velocity":85,"startTime":167.477898,"endTime":167.54311525000003,"instrument":0,"program":0,"isDrum":true},{"pitch":44,"velocity":95,"startTime":167.477898,"endTime":167.58659341666666,"instrument":0,"program":0,"isDrum":true},{"pitch":38,"velocity":55,"startTime":167.999636,"endTime":168.06485325000003,"instrument":0,"program":0,"isDrum":true},{"pitch":38,"velocity":85,"startTime":167.999636,"endTime":168.06485325000003,"instrument":0,"program":0,"isDrum":true},{"pitch":44,"velocity":95,"startTime":167.999636,"endTime":168.10289664583337,"instrument":0,"program":0,"isDrum":true},{"pitch":38,"velocity":55,"startTime":168.521374,"endTime":168.58659125000003,"instrument":0,"program":0,"isDrum":true},{"pitch":38,"velocity":85,"startTime":168.521374,"endTime":168.58659125000003,"instrument":0,"program":0,"isDrum":true},{"pitch":44,"velocity":95,"startTime":168.521374,"endTime":168.62463464583337,"instrument":0,"program":0,"isDrum":true},{"pitch":38,"velocity":34,"startTime":168.78224300000002,"endTime":168.82572116666668,"instrument":0,"program":0,"isDrum":true},{"pitch":46,"velocity":69,"startTime":168.78224300000002,"endTime":169.03224245833337,"instrument":0,"program":0,"isDrum":true},{"pitch":38,"velocity":39,"startTime":168.82572116666668,"endTime":168.86919933333337,"instrument":0,"program":0,"isDrum":true},{"pitch":38,"velocity":39,"startTime":168.86919933333337,"endTime":168.9126775,"instrument":0,"program":0,"isDrum":true},{"pitch":38,"velocity":42,"startTime":168.9126775,"endTime":168.95615566666666,"instrument":0,"program":0,"isDrum":true},{"pitch":38,"velocity":48,"startTime":168.95615566666666,"endTime":168.99963383333335,"instrument":0,"program":0,"isDrum":true},{"pitch":38,"velocity":53,"startTime":168.99963383333335,"endTime":169.043112,"instrument":0,"program":0,"isDrum":true},{"pitch":38,"velocity":55,"startTime":169.043112,"endTime":169.10832925000003,"instrument":0,"program":0,"isDrum":true},{"pitch":38,"velocity":85,"startTime":169.043112,"endTime":169.10832925000003,"instrument":0,"program":0,"isDrum":true},{"pitch":44,"velocity":95,"startTime":169.043112,"endTime":169.15180741666668,"instrument":0,"program":0,"isDrum":true},{"pitch":38,"velocity":55,"startTime":169.56485,"endTime":169.63006725000002,"instrument":0,"program":0,"isDrum":true},{"pitch":38,"velocity":85,"startTime":169.56485,"endTime":169.63006725000002,"instrument":0,"program":0,"isDrum":true},{"pitch":44,"velocity":95,"startTime":169.56485,"endTime":169.66811064583337,"instrument":0,"program":0,"isDrum":true},{"pitch":38,"velocity":55,"startTime":170.086588,"endTime":170.15180525000002,"instrument":0,"program":0,"isDrum":true},{"pitch":38,"velocity":85,"startTime":170.086588,"endTime":170.15180525000002,"instrument":0,"program":0,"isDrum":true},{"pitch":44,"velocity":95,"startTime":170.086588,"endTime":170.19528341666668,"instrument":0,"program":0,"isDrum":true},{"pitch":38,"velocity":55,"startTime":170.608326,"endTime":170.67354325000002,"instrument":0,"program":0,"isDrum":true},{"pitch":38,"velocity":85,"startTime":170.608326,"endTime":170.67354325000002,"instrument":0,"program":0,"isDrum":true},{"pitch":44,"velocity":95,"startTime":170.608326,"endTime":170.71702141666668,"instrument":0,"program":0,"isDrum":true},{"pitch":38,"velocity":34,"startTime":170.86919500000002,"endTime":170.91267316666668,"instrument":0,"program":0,"isDrum":true},{"pitch":46,"velocity":69,"startTime":170.86919500000002,"endTime":171.11919445833337,"instrument":0,"program":0,"isDrum":true},{"pitch":38,"velocity":39,"startTime":170.91267316666668,"endTime":170.95615133333337,"instrument":0,"program":0,"isDrum":true},{"pitch":38,"velocity":39,"startTime":170.95615133333337,"endTime":170.99962950000003,"instrument":0,"program":0,"isDrum":true},{"pitch":38,"velocity":42,"startTime":170.99962950000003,"endTime":171.04310766666669,"instrument":0,"program":0,"isDrum":true},{"pitch":38,"velocity":48,"startTime":171.04310766666669,"endTime":171.08658583333334,"instrument":0,"program":0,"isDrum":true},{"pitch":38,"velocity":53,"startTime":171.08658583333334,"endTime":171.130064,"instrument":0,"program":0,"isDrum":true},{"pitch":38,"velocity":55,"startTime":171.130064,"endTime":171.19528125000002,"instrument":0,"program":0,"isDrum":true},{"pitch":38,"velocity":85,"startTime":171.130064,"endTime":171.19528125000002,"instrument":0,"program":0,"isDrum":true},{"pitch":44,"velocity":95,"startTime":171.130064,"endTime":171.23875941666668,"instrument":0,"program":0,"isDrum":true},{"pitch":38,"velocity":55,"startTime":171.651802,"endTime":171.71701925000002,"instrument":0,"program":0,"isDrum":true},{"pitch":38,"velocity":85,"startTime":171.651802,"endTime":171.71701925000002,"instrument":0,"program":0,"isDrum":true},{"pitch":44,"velocity":95,"startTime":171.651802,"endTime":171.76049741666668,"instrument":0,"program":0,"isDrum":true},{"pitch":38,"velocity":55,"startTime":172.17354,"endTime":172.23875725000002,"instrument":0,"program":0,"isDrum":true},{"pitch":38,"velocity":85,"startTime":172.17354,"endTime":172.23875725000002,"instrument":0,"program":0,"isDrum":true},{"pitch":44,"velocity":95,"startTime":172.17354,"endTime":172.27136587500001,"instrument":0,"program":0,"isDrum":true},{"pitch":38,"velocity":55,"startTime":172.695278,"endTime":172.76049525000002,"instrument":0,"program":0,"isDrum":true},{"pitch":38,"velocity":85,"startTime":172.695278,"endTime":172.76049525000002,"instrument":0,"program":0,"isDrum":true},{"pitch":44,"velocity":95,"startTime":172.695278,"endTime":172.79853864583336,"instrument":0,"program":0,"isDrum":true},{"pitch":38,"velocity":34,"startTime":172.95614700000002,"endTime":172.99962516666668,"instrument":0,"program":0,"isDrum":true},{"pitch":46,"velocity":69,"startTime":172.95614700000002,"endTime":173.20614645833336,"instrument":0,"program":0,"isDrum":true},{"pitch":38,"velocity":39,"startTime":172.99962516666668,"endTime":173.04310333333336,"instrument":0,"program":0,"isDrum":true},{"pitch":38,"velocity":39,"startTime":173.04310333333336,"endTime":173.08658150000002,"instrument":0,"program":0,"isDrum":true},{"pitch":38,"velocity":42,"startTime":173.08658150000002,"endTime":173.13005966666668,"instrument":0,"program":0,"isDrum":true},{"pitch":38,"velocity":48,"startTime":173.13005966666668,"endTime":173.17353783333337,"instrument":0,"program":0,"isDrum":true},{"pitch":38,"velocity":53,"startTime":173.17353783333337,"endTime":173.217016,"instrument":0,"program":0,"isDrum":true},{"pitch":38,"velocity":55,"startTime":173.217016,"endTime":173.28223325000002,"instrument":0,"program":0,"isDrum":true},{"pitch":38,"velocity":85,"startTime":173.217016,"endTime":173.28223325000002,"instrument":0,"program":0,"isDrum":true},{"pitch":44,"velocity":95,"startTime":173.217016,"endTime":173.34201572916666,"instrument":0,"program":0,"isDrum":true},{"pitch":38,"velocity":55,"startTime":173.73875400000003,"endTime":173.80397125000002,"instrument":0,"program":0,"isDrum":true},{"pitch":38,"velocity":85,"startTime":173.73875400000003,"endTime":173.80397125000002,"instrument":0,"program":0,"isDrum":true},{"pitch":44,"velocity":95,"startTime":173.73875400000003,"endTime":173.85288418750002,"instrument":0,"program":0,"isDrum":true},{"pitch":38,"velocity":55,"startTime":174.26049200000003,"endTime":174.32570925000002,"instrument":0,"program":0,"isDrum":true},{"pitch":38,"velocity":85,"startTime":174.26049200000003,"endTime":174.32570925000002,"instrument":0,"program":0,"isDrum":true},{"pitch":44,"velocity":95,"startTime":174.26049200000003,"endTime":174.36375264583336,"instrument":0,"program":0,"isDrum":true},{"pitch":38,"velocity":55,"startTime":174.78223000000003,"endTime":174.84744725000002,"instrument":0,"program":0,"isDrum":true},{"pitch":38,"velocity":85,"startTime":174.78223000000003,"endTime":174.84744725000002,"instrument":0,"program":0,"isDrum":true},{"pitch":44,"velocity":95,"startTime":174.78223000000003,"endTime":174.880055875,"instrument":0,"program":0,"isDrum":true},{"pitch":38,"velocity":34,"startTime":175.043099,"endTime":175.08657716666667,"instrument":0,"program":0,"isDrum":true},{"pitch":46,"velocity":69,"startTime":175.043099,"endTime":175.29309845833336,"instrument":0,"program":0,"isDrum":true},{"pitch":38,"velocity":39,"startTime":175.08657716666667,"endTime":175.13005533333336,"instrument":0,"program":0,"isDrum":true},{"pitch":38,"velocity":39,"startTime":175.13005533333336,"endTime":175.17353350000002,"instrument":0,"program":0,"isDrum":true},{"pitch":38,"velocity":42,"startTime":175.17353350000002,"endTime":175.21701166666668,"instrument":0,"program":0,"isDrum":true},{"pitch":38,"velocity":48,"startTime":175.21701166666668,"endTime":175.26048983333337,"instrument":0,"program":0,"isDrum":true},{"pitch":38,"velocity":53,"startTime":175.26048983333337,"endTime":175.30396800000003,"instrument":0,"program":0,"isDrum":true},{"pitch":38,"velocity":55,"startTime":175.30396800000003,"endTime":175.36918525000002,"instrument":0,"program":0,"isDrum":true},{"pitch":38,"velocity":85,"startTime":175.30396800000003,"endTime":175.36918525000002,"instrument":0,"program":0,"isDrum":true},{"pitch":44,"velocity":95,"startTime":175.30396800000003,"endTime":175.41266341666667,"instrument":0,"program":0,"isDrum":true},{"pitch":38,"velocity":55,"startTime":175.82570600000003,"endTime":175.89092325000001,"instrument":0,"program":0,"isDrum":true},{"pitch":38,"velocity":85,"startTime":175.82570600000003,"endTime":175.89092325000001,"instrument":0,"program":0,"isDrum":true},{"pitch":44,"velocity":95,"startTime":175.82570600000003,"endTime":175.92896664583336,"instrument":0,"program":0,"isDrum":true},{"pitch":38,"velocity":55,"startTime":176.34744400000002,"endTime":176.41266125,"instrument":0,"program":0,"isDrum":true},{"pitch":38,"velocity":85,"startTime":176.34744400000002,"endTime":176.41266125,"instrument":0,"program":0,"isDrum":true},{"pitch":44,"velocity":95,"startTime":176.34744400000002,"endTime":176.445269875,"instrument":0,"program":0,"isDrum":true},{"pitch":38,"velocity":55,"startTime":176.86918200000002,"endTime":176.93439925,"instrument":0,"program":0,"isDrum":true},{"pitch":38,"velocity":85,"startTime":176.86918200000002,"endTime":176.93439925,"instrument":0,"program":0,"isDrum":true},{"pitch":44,"velocity":95,"startTime":176.86918200000002,"endTime":176.96157310416666,"instrument":0,"program":0,"isDrum":true},{"pitch":38,"velocity":34,"startTime":177.130051,"endTime":177.17352916666667,"instrument":0,"program":0,"isDrum":true},{"pitch":46,"velocity":69,"startTime":177.130051,"endTime":177.38005045833336,"instrument":0,"program":0,"isDrum":true},{"pitch":38,"velocity":39,"startTime":177.17352916666667,"endTime":177.21700733333336,"instrument":0,"program":0,"isDrum":true},{"pitch":38,"velocity":39,"startTime":177.21700733333336,"endTime":177.26048550000002,"instrument":0,"program":0,"isDrum":true},{"pitch":38,"velocity":42,"startTime":177.26048550000002,"endTime":177.30396366666668,"instrument":0,"program":0,"isDrum":true},{"pitch":38,"velocity":48,"startTime":177.30396366666668,"endTime":177.34744183333336,"instrument":0,"program":0,"isDrum":true},{"pitch":38,"velocity":53,"startTime":177.34744183333336,"endTime":177.39092000000002,"instrument":0,"program":0,"isDrum":true},{"pitch":38,"velocity":55,"startTime":177.39092000000002,"endTime":177.44526770833335,"instrument":0,"program":0,"isDrum":true},{"pitch":38,"velocity":85,"startTime":177.39092000000002,"endTime":177.44526770833335,"instrument":0,"program":0,"isDrum":true},{"pitch":44,"velocity":95,"startTime":177.39092000000002,"endTime":177.49418064583335,"instrument":0,"program":0,"isDrum":true},{"pitch":38,"velocity":55,"startTime":177.91265800000002,"endTime":177.97787525,"instrument":0,"program":0,"isDrum":true},{"pitch":38,"velocity":85,"startTime":177.91265800000002,"endTime":177.97787525,"instrument":0,"program":0,"isDrum":true},{"pitch":44,"velocity":95,"startTime":177.91265800000002,"endTime":178.02135341666667,"instrument":0,"program":0,"isDrum":true},{"pitch":38,"velocity":55,"startTime":178.43439600000002,"endTime":178.49961325,"instrument":0,"program":0,"isDrum":true},{"pitch":38,"velocity":85,"startTime":178.43439600000002,"endTime":178.49961325,"instrument":0,"program":0,"isDrum":true},{"pitch":44,"velocity":95,"startTime":178.43439600000002,"endTime":178.53765664583335,"instrument":0,"program":0,"isDrum":true},{"pitch":38,"velocity":55,"startTime":178.95613400000002,"endTime":179.02135125,"instrument":0,"program":0,"isDrum":true},{"pitch":38,"velocity":85,"startTime":178.95613400000002,"endTime":179.02135125,"instrument":0,"program":0,"isDrum":true},{"pitch":44,"velocity":95,"startTime":178.95613400000002,"endTime":179.05939464583335,"instrument":0,"program":0,"isDrum":true},{"pitch":38,"velocity":34,"startTime":179.217003,"endTime":179.26048116666666,"instrument":0,"program":0,"isDrum":true},{"pitch":46,"velocity":69,"startTime":179.217003,"endTime":179.46700245833335,"instrument":0,"program":0,"isDrum":true},{"pitch":38,"velocity":39,"startTime":179.26048116666666,"endTime":179.30395933333335,"instrument":0,"program":0,"isDrum":true},{"pitch":38,"velocity":39,"startTime":179.30395933333335,"endTime":179.3474375,"instrument":0,"program":0,"isDrum":true},{"pitch":38,"velocity":42,"startTime":179.3474375,"endTime":179.39091566666667,"instrument":0,"program":0,"isDrum":true},{"pitch":38,"velocity":48,"startTime":179.39091566666667,"endTime":179.43439383333336,"instrument":0,"program":0,"isDrum":true},{"pitch":38,"velocity":53,"startTime":179.43439383333336,"endTime":179.47787200000002,"instrument":0,"program":0,"isDrum":true},{"pitch":38,"velocity":55,"startTime":179.47787200000002,"endTime":179.54308925,"instrument":0,"program":0,"isDrum":true},{"pitch":38,"velocity":85,"startTime":179.47787200000002,"endTime":179.54308925,"instrument":0,"program":0,"isDrum":true},{"pitch":44,"velocity":95,"startTime":179.47787200000002,"endTime":179.58656741666667,"instrument":0,"program":0,"isDrum":true},{"pitch":38,"velocity":55,"startTime":179.99961000000002,"endTime":180.06482725,"instrument":0,"program":0,"isDrum":true},{"pitch":38,"velocity":85,"startTime":179.99961000000002,"endTime":180.06482725,"instrument":0,"program":0,"isDrum":true},{"pitch":44,"velocity":95,"startTime":179.99961000000002,"endTime":180.10287064583335,"instrument":0,"program":0,"isDrum":true},{"pitch":38,"velocity":55,"startTime":180.52134800000002,"endTime":180.58656525,"instrument":0,"program":0,"isDrum":true},{"pitch":38,"velocity":85,"startTime":180.52134800000002,"endTime":180.58656525,"instrument":0,"program":0,"isDrum":true},{"pitch":44,"velocity":95,"startTime":180.52134800000002,"endTime":180.63004341666667,"instrument":0,"program":0,"isDrum":true},{"pitch":38,"velocity":55,"startTime":181.04308600000002,"endTime":181.10830325,"instrument":0,"program":0,"isDrum":true},{"pitch":38,"velocity":85,"startTime":181.04308600000002,"endTime":181.10830325,"instrument":0,"program":0,"isDrum":true},{"pitch":44,"velocity":95,"startTime":181.04308600000002,"endTime":181.15178141666667,"instrument":0,"program":0,"isDrum":true},{"pitch":38,"velocity":34,"startTime":181.303955,"endTime":181.34743316666666,"instrument":0,"program":0,"isDrum":true},{"pitch":46,"velocity":69,"startTime":181.303955,"endTime":181.55395445833335,"instrument":0,"program":0,"isDrum":true},{"pitch":38,"velocity":39,"startTime":181.34743316666666,"endTime":181.39091133333335,"instrument":0,"program":0,"isDrum":true},{"pitch":38,"velocity":39,"startTime":181.39091133333335,"endTime":181.4343895,"instrument":0,"program":0,"isDrum":true},{"pitch":38,"velocity":42,"startTime":181.4343895,"endTime":181.47786766666667,"instrument":0,"program":0,"isDrum":true},{"pitch":38,"velocity":48,"startTime":181.47786766666667,"endTime":181.52134583333336,"instrument":0,"program":0,"isDrum":true},{"pitch":38,"velocity":53,"startTime":181.52134583333336,"endTime":181.56482400000002,"instrument":0,"program":0,"isDrum":true},{"pitch":38,"velocity":55,"startTime":181.56482400000002,"endTime":181.63004125,"instrument":0,"program":0,"isDrum":true},{"pitch":38,"velocity":85,"startTime":181.56482400000002,"endTime":181.63004125,"instrument":0,"program":0,"isDrum":true},{"pitch":44,"velocity":95,"startTime":181.56482400000002,"endTime":181.67351941666666,"instrument":0,"program":0,"isDrum":true},{"pitch":38,"velocity":55,"startTime":182.08656200000001,"endTime":182.15177925,"instrument":0,"program":0,"isDrum":true},{"pitch":38,"velocity":85,"startTime":182.08656200000001,"endTime":182.15177925,"instrument":0,"program":0,"isDrum":true},{"pitch":44,"velocity":95,"startTime":182.08656200000001,"endTime":182.19525741666666,"instrument":0,"program":0,"isDrum":true},{"pitch":38,"velocity":55,"startTime":182.6083,"endTime":182.67351725,"instrument":0,"program":0,"isDrum":true},{"pitch":38,"velocity":85,"startTime":182.6083,"endTime":182.67351725,"instrument":0,"program":0,"isDrum":true},{"pitch":44,"velocity":95,"startTime":182.6083,"endTime":182.70612587500003,"instrument":0,"program":0,"isDrum":true},{"pitch":38,"velocity":55,"startTime":183.130038,"endTime":183.19525525,"instrument":0,"program":0,"isDrum":true},{"pitch":38,"velocity":85,"startTime":183.130038,"endTime":183.19525525,"instrument":0,"program":0,"isDrum":true},{"pitch":44,"velocity":95,"startTime":183.130038,"endTime":183.23329864583337,"instrument":0,"program":0,"isDrum":true},{"pitch":38,"velocity":34,"startTime":183.39090700000003,"endTime":183.4343851666667,"instrument":0,"program":0,"isDrum":true},{"pitch":46,"velocity":69,"startTime":183.39090700000003,"endTime":183.64090645833335,"instrument":0,"program":0,"isDrum":true},{"pitch":38,"velocity":39,"startTime":183.4343851666667,"endTime":183.47786333333335,"instrument":0,"program":0,"isDrum":true},{"pitch":38,"velocity":39,"startTime":183.47786333333335,"endTime":183.5213415,"instrument":0,"program":0,"isDrum":true},{"pitch":38,"velocity":42,"startTime":183.5213415,"endTime":183.56481966666666,"instrument":0,"program":0,"isDrum":true},{"pitch":38,"velocity":48,"startTime":183.56481966666666,"endTime":183.60829783333335,"instrument":0,"program":0,"isDrum":true},{"pitch":38,"velocity":53,"startTime":183.60829783333335,"endTime":183.651776,"instrument":0,"program":0,"isDrum":true},{"pitch":38,"velocity":55,"startTime":183.651776,"endTime":183.71699325000003,"instrument":0,"program":0,"isDrum":true},{"pitch":38,"velocity":85,"startTime":183.651776,"endTime":183.71699325000003,"instrument":0,"program":0,"isDrum":true},{"pitch":44,"velocity":95,"startTime":183.651776,"endTime":183.77677572916667,"instrument":0,"program":0,"isDrum":true},{"pitch":38,"velocity":55,"startTime":184.173514,"endTime":184.23873125000003,"instrument":0,"program":0,"isDrum":true},{"pitch":38,"velocity":85,"startTime":184.173514,"endTime":184.23873125000003,"instrument":0,"program":0,"isDrum":true},{"pitch":44,"velocity":95,"startTime":184.173514,"endTime":184.2876441875,"instrument":0,"program":0,"isDrum":true},{"pitch":38,"velocity":55,"startTime":184.695252,"endTime":184.76046925000003,"instrument":0,"program":0,"isDrum":true},{"pitch":38,"velocity":85,"startTime":184.695252,"endTime":184.76046925000003,"instrument":0,"program":0,"isDrum":true},{"pitch":44,"velocity":95,"startTime":184.695252,"endTime":184.79851264583337,"instrument":0,"program":0,"isDrum":true},{"pitch":38,"velocity":55,"startTime":185.21699,"endTime":185.28220725000003,"instrument":0,"program":0,"isDrum":true},{"pitch":38,"velocity":85,"startTime":185.21699,"endTime":185.28220725000003,"instrument":0,"program":0,"isDrum":true},{"pitch":44,"velocity":95,"startTime":185.21699,"endTime":185.31481587500002,"instrument":0,"program":0,"isDrum":true},{"pitch":38,"velocity":34,"startTime":185.47785900000002,"endTime":185.52133716666668,"instrument":0,"program":0,"isDrum":true},{"pitch":46,"velocity":69,"startTime":185.47785900000002,"endTime":185.72785845833337,"instrument":0,"program":0,"isDrum":true},{"pitch":38,"velocity":39,"startTime":185.52133716666668,"endTime":185.56481533333337,"instrument":0,"program":0,"isDrum":true},{"pitch":38,"velocity":39,"startTime":185.56481533333337,"endTime":185.6082935,"instrument":0,"program":0,"isDrum":true},{"pitch":38,"velocity":42,"startTime":185.6082935,"endTime":185.65177166666666,"instrument":0,"program":0,"isDrum":true},{"pitch":38,"velocity":48,"startTime":185.65177166666666,"endTime":185.69524983333335,"instrument":0,"program":0,"isDrum":true},{"pitch":38,"velocity":53,"startTime":185.69524983333335,"endTime":185.738728,"instrument":0,"program":0,"isDrum":true},{"pitch":38,"velocity":55,"startTime":185.738728,"endTime":185.80394525000003,"instrument":0,"program":0,"isDrum":true},{"pitch":38,"velocity":85,"startTime":185.738728,"endTime":185.80394525000003,"instrument":0,"program":0,"isDrum":true},{"pitch":44,"velocity":95,"startTime":185.738728,"endTime":185.8474234166667,"instrument":0,"program":0,"isDrum":true},{"pitch":38,"velocity":55,"startTime":186.260466,"endTime":186.32568325000003,"instrument":0,"program":0,"isDrum":true},{"pitch":38,"velocity":85,"startTime":186.260466,"endTime":186.32568325000003,"instrument":0,"program":0,"isDrum":true},{"pitch":44,"velocity":95,"startTime":186.260466,"endTime":186.36372664583337,"instrument":0,"program":0,"isDrum":true},{"pitch":38,"velocity":55,"startTime":186.782204,"endTime":186.84742125000002,"instrument":0,"program":0,"isDrum":true},{"pitch":38,"velocity":85,"startTime":186.782204,"endTime":186.84742125000002,"instrument":0,"program":0,"isDrum":true},{"pitch":44,"velocity":95,"startTime":186.782204,"endTime":186.88002987500002,"instrument":0,"program":0,"isDrum":true},{"pitch":38,"velocity":55,"startTime":187.303942,"endTime":187.36915925000002,"instrument":0,"program":0,"isDrum":true},{"pitch":38,"velocity":85,"startTime":187.303942,"endTime":187.36915925000002,"instrument":0,"program":0,"isDrum":true},{"pitch":44,"velocity":95,"startTime":187.303942,"endTime":187.39633310416667,"instrument":0,"program":0,"isDrum":true},{"pitch":38,"velocity":34,"startTime":187.56481100000002,"endTime":187.60828916666668,"instrument":0,"program":0,"isDrum":true},{"pitch":46,"velocity":69,"startTime":187.56481100000002,"endTime":187.81481045833337,"instrument":0,"program":0,"isDrum":true},{"pitch":38,"velocity":39,"startTime":187.60828916666668,"endTime":187.65176733333337,"instrument":0,"program":0,"isDrum":true},{"pitch":38,"velocity":39,"startTime":187.65176733333337,"endTime":187.69524550000003,"instrument":0,"program":0,"isDrum":true},{"pitch":38,"velocity":42,"startTime":187.69524550000003,"endTime":187.7387236666667,"instrument":0,"program":0,"isDrum":true},{"pitch":38,"velocity":48,"startTime":187.7387236666667,"endTime":187.78220183333335,"instrument":0,"program":0,"isDrum":true},{"pitch":38,"velocity":53,"startTime":187.78220183333335,"endTime":187.82568,"instrument":0,"program":0,"isDrum":true},{"pitch":38,"velocity":55,"startTime":187.82568,"endTime":187.89089725000002,"instrument":0,"program":0,"isDrum":true},{"pitch":38,"velocity":85,"startTime":187.82568,"endTime":187.89089725000002,"instrument":0,"program":0,"isDrum":true},{"pitch":44,"velocity":95,"startTime":187.82568,"endTime":187.93437541666668,"instrument":0,"program":0,"isDrum":true},{"pitch":38,"velocity":55,"startTime":188.347418,"endTime":188.41263525000002,"instrument":0,"program":0,"isDrum":true},{"pitch":38,"velocity":85,"startTime":188.347418,"endTime":188.41263525000002,"instrument":0,"program":0,"isDrum":true},{"pitch":44,"velocity":95,"startTime":188.347418,"endTime":188.45067864583336,"instrument":0,"program":0,"isDrum":true},{"pitch":38,"velocity":55,"startTime":188.869156,"endTime":188.93437325000002,"instrument":0,"program":0,"isDrum":true},{"pitch":38,"velocity":85,"startTime":188.869156,"endTime":188.93437325000002,"instrument":0,"program":0,"isDrum":true},{"pitch":44,"velocity":95,"startTime":188.869156,"endTime":188.96698187500002,"instrument":0,"program":0,"isDrum":true},{"pitch":38,"velocity":55,"startTime":189.390894,"endTime":189.45611125000002,"instrument":0,"program":0,"isDrum":true},{"pitch":38,"velocity":85,"startTime":189.390894,"endTime":189.45611125000002,"instrument":0,"program":0,"isDrum":true},{"pitch":44,"velocity":95,"startTime":189.390894,"endTime":189.48328510416667,"instrument":0,"program":0,"isDrum":true},{"pitch":38,"velocity":34,"startTime":189.65176300000002,"endTime":189.69524116666668,"instrument":0,"program":0,"isDrum":true},{"pitch":46,"velocity":69,"startTime":189.65176300000002,"endTime":189.90176245833337,"instrument":0,"program":0,"isDrum":true},{"pitch":38,"velocity":39,"startTime":189.69524116666668,"endTime":189.73871933333336,"instrument":0,"program":0,"isDrum":true},{"pitch":38,"velocity":39,"startTime":189.73871933333336,"endTime":189.78219750000002,"instrument":0,"program":0,"isDrum":true},{"pitch":38,"velocity":42,"startTime":189.78219750000002,"endTime":189.82567566666668,"instrument":0,"program":0,"isDrum":true},{"pitch":38,"velocity":48,"startTime":189.82567566666668,"endTime":189.86915383333337,"instrument":0,"program":0,"isDrum":true},{"pitch":38,"velocity":53,"startTime":189.86915383333337,"endTime":189.91263200000003,"instrument":0,"program":0,"isDrum":true},{"pitch":38,"velocity":55,"startTime":189.91263200000003,"endTime":189.97784925000002,"instrument":0,"program":0,"isDrum":true},{"pitch":38,"velocity":85,"startTime":189.91263200000003,"endTime":189.97784925000002,"instrument":0,"program":0,"isDrum":true},{"pitch":44,"velocity":95,"startTime":189.91263200000003,"endTime":190.02132741666668,"instrument":0,"program":0,"isDrum":true},{"pitch":38,"velocity":55,"startTime":190.43437000000003,"endTime":190.49958725000002,"instrument":0,"program":0,"isDrum":true},{"pitch":38,"velocity":85,"startTime":190.43437000000003,"endTime":190.49958725000002,"instrument":0,"program":0,"isDrum":true},{"pitch":44,"velocity":95,"startTime":190.43437000000003,"endTime":190.53763064583336,"instrument":0,"program":0,"isDrum":true},{"pitch":38,"velocity":55,"startTime":190.95610800000003,"endTime":191.02132525000002,"instrument":0,"program":0,"isDrum":true},{"pitch":38,"velocity":85,"startTime":190.95610800000003,"endTime":191.02132525000002,"instrument":0,"program":0,"isDrum":true},{"pitch":44,"velocity":95,"startTime":190.95610800000003,"endTime":191.053933875,"instrument":0,"program":0,"isDrum":true},{"pitch":38,"velocity":55,"startTime":191.47784600000003,"endTime":191.54306325000002,"instrument":0,"program":0,"isDrum":true},{"pitch":38,"velocity":85,"startTime":191.47784600000003,"endTime":191.54306325000002,"instrument":0,"program":0,"isDrum":true},{"pitch":44,"velocity":95,"startTime":191.47784600000003,"endTime":191.57023710416667,"instrument":0,"program":0,"isDrum":true},{"pitch":38,"velocity":34,"startTime":191.738715,"endTime":191.78219316666667,"instrument":0,"program":0,"isDrum":true},{"pitch":46,"velocity":69,"startTime":191.738715,"endTime":191.98871445833336,"instrument":0,"program":0,"isDrum":true},{"pitch":38,"velocity":39,"startTime":191.78219316666667,"endTime":191.82567133333336,"instrument":0,"program":0,"isDrum":true},{"pitch":38,"velocity":39,"startTime":191.82567133333336,"endTime":191.86914950000002,"instrument":0,"program":0,"isDrum":true},{"pitch":38,"velocity":42,"startTime":191.86914950000002,"endTime":191.91262766666668,"instrument":0,"program":0,"isDrum":true},{"pitch":38,"velocity":48,"startTime":191.91262766666668,"endTime":191.95610583333337,"instrument":0,"program":0,"isDrum":true},{"pitch":38,"velocity":53,"startTime":191.95610583333337,"endTime":191.99958400000003,"instrument":0,"program":0,"isDrum":true},{"pitch":38,"velocity":55,"startTime":191.99958400000003,"endTime":192.06480125000002,"instrument":0,"program":0,"isDrum":true},{"pitch":38,"velocity":85,"startTime":191.99958400000003,"endTime":192.06480125000002,"instrument":0,"program":0,"isDrum":true},{"pitch":44,"velocity":95,"startTime":191.99958400000003,"endTime":192.10827941666668,"instrument":0,"program":0,"isDrum":true},{"pitch":38,"velocity":55,"startTime":192.52132200000003,"endTime":192.58653925000002,"instrument":0,"program":0,"isDrum":true},{"pitch":38,"velocity":85,"startTime":192.52132200000003,"endTime":192.58653925000002,"instrument":0,"program":0,"isDrum":true},{"pitch":44,"velocity":95,"startTime":192.52132200000003,"endTime":192.62458264583336,"instrument":0,"program":0,"isDrum":true},{"pitch":38,"velocity":55,"startTime":193.04306000000003,"endTime":193.10827725000001,"instrument":0,"program":0,"isDrum":true},{"pitch":38,"velocity":85,"startTime":193.04306000000003,"endTime":193.10827725000001,"instrument":0,"program":0,"isDrum":true},{"pitch":44,"velocity":95,"startTime":193.04306000000003,"endTime":193.140885875,"instrument":0,"program":0,"isDrum":true},{"pitch":38,"velocity":55,"startTime":193.56479800000002,"endTime":193.63001525,"instrument":0,"program":0,"isDrum":true},{"pitch":38,"velocity":85,"startTime":193.56479800000002,"endTime":193.63001525,"instrument":0,"program":0,"isDrum":true},{"pitch":44,"velocity":95,"startTime":193.56479800000002,"endTime":193.65718910416666,"instrument":0,"program":0,"isDrum":true},{"pitch":38,"velocity":34,"startTime":193.825667,"endTime":193.86914516666667,"instrument":0,"program":0,"isDrum":true},{"pitch":46,"velocity":69,"startTime":193.825667,"endTime":194.07566645833336,"instrument":0,"program":0,"isDrum":true},{"pitch":38,"velocity":39,"startTime":193.86914516666667,"endTime":193.91262333333336,"instrument":0,"program":0,"isDrum":true},{"pitch":38,"velocity":39,"startTime":193.91262333333336,"endTime":193.95610150000002,"instrument":0,"program":0,"isDrum":true},{"pitch":38,"velocity":42,"startTime":193.95610150000002,"endTime":193.99957966666668,"instrument":0,"program":0,"isDrum":true},{"pitch":38,"velocity":48,"startTime":193.99957966666668,"endTime":194.04305783333336,"instrument":0,"program":0,"isDrum":true},{"pitch":38,"velocity":53,"startTime":194.04305783333336,"endTime":194.08653600000002,"instrument":0,"program":0,"isDrum":true},{"pitch":38,"velocity":55,"startTime":194.08653600000002,"endTime":194.15175325,"instrument":0,"program":0,"isDrum":true},{"pitch":38,"velocity":85,"startTime":194.08653600000002,"endTime":194.15175325,"instrument":0,"program":0,"isDrum":true},{"pitch":44,"velocity":95,"startTime":194.08653600000002,"endTime":194.184361875,"instrument":0,"program":0,"isDrum":true},{"pitch":38,"velocity":55,"startTime":194.60827400000002,"endTime":194.67349125,"instrument":0,"program":0,"isDrum":true},{"pitch":38,"velocity":85,"startTime":194.60827400000002,"endTime":194.67349125,"instrument":0,"program":0,"isDrum":true},{"pitch":44,"velocity":95,"startTime":194.60827400000002,"endTime":194.706099875,"instrument":0,"program":0,"isDrum":true},{"pitch":38,"velocity":55,"startTime":195.13001200000002,"endTime":195.19522925,"instrument":0,"program":0,"isDrum":true},{"pitch":38,"velocity":85,"startTime":195.13001200000002,"endTime":195.19522925,"instrument":0,"program":0,"isDrum":true},{"pitch":44,"velocity":95,"startTime":195.13001200000002,"endTime":195.2224031041667,"instrument":0,"program":0,"isDrum":true},{"pitch":38,"velocity":55,"startTime":195.65175000000002,"endTime":195.71696725,"instrument":0,"program":0,"isDrum":true},{"pitch":38,"velocity":85,"startTime":195.65175000000002,"endTime":195.71696725,"instrument":0,"program":0,"isDrum":true},{"pitch":44,"velocity":95,"startTime":195.65175000000002,"endTime":195.75501064583335,"instrument":0,"program":0,"isDrum":true},{"pitch":38,"velocity":34,"startTime":195.912619,"endTime":195.95609716666667,"instrument":0,"program":0,"isDrum":true},{"pitch":46,"velocity":69,"startTime":195.912619,"endTime":196.16261845833336,"instrument":0,"program":0,"isDrum":true},{"pitch":38,"velocity":39,"startTime":195.95609716666667,"endTime":195.99957533333335,"instrument":0,"program":0,"isDrum":true},{"pitch":38,"velocity":39,"startTime":195.99957533333335,"endTime":196.0430535,"instrument":0,"program":0,"isDrum":true},{"pitch":38,"velocity":42,"startTime":196.0430535,"endTime":196.08653166666667,"instrument":0,"program":0,"isDrum":true},{"pitch":38,"velocity":48,"startTime":196.08653166666667,"endTime":196.13000983333336,"instrument":0,"program":0,"isDrum":true},{"pitch":38,"velocity":53,"startTime":196.13000983333336,"endTime":196.17348800000002,"instrument":0,"program":0,"isDrum":true},{"pitch":38,"velocity":55,"startTime":196.17348800000002,"endTime":196.23870525,"instrument":0,"program":0,"isDrum":true},{"pitch":38,"velocity":85,"startTime":196.17348800000002,"endTime":196.23870525,"instrument":0,"program":0,"isDrum":true},{"pitch":51,"velocity":87,"startTime":196.17348800000002,"endTime":196.2658791041667,"instrument":0,"program":0,"isDrum":true},{"pitch":70,"velocity":78,"startTime":198.26044000000002,"endTime":198.36913541666667,"instrument":0,"program":0,"isDrum":true},{"pitch":51,"velocity":85,"startTime":198.52130900000003,"endTime":198.7332650625,"instrument":0,"program":0,"isDrum":true},{"pitch":38,"velocity":55,"startTime":198.78217800000002,"endTime":198.88543864583335,"instrument":0,"program":0,"isDrum":true},{"pitch":38,"velocity":85,"startTime":198.78217800000002,"endTime":198.88543864583335,"instrument":0,"program":0,"isDrum":true},{"pitch":44,"velocity":95,"startTime":198.78217800000002,"endTime":199.03217745833336,"instrument":0,"program":0,"isDrum":true},{"pitch":38,"velocity":55,"startTime":199.30391600000002,"endTime":199.39630710416668,"instrument":0,"program":0,"isDrum":true},{"pitch":38,"velocity":85,"startTime":199.30391600000002,"endTime":199.39630710416668,"instrument":0,"program":0,"isDrum":true},{"pitch":44,"velocity":97,"startTime":199.30391600000002,"endTime":199.45608958333335,"instrument":0,"program":0,"isDrum":true},{"pitch":38,"velocity":94,"startTime":0,"endTime":0.3423905624999999,"instrument":1,"program":32,"isDrum":false},{"pitch":42,"velocity":94,"startTime":0.521738,"endTime":0.8641285624999999,"instrument":1,"program":32,"isDrum":false},{"pitch":45,"velocity":94,"startTime":1.043476,"endTime":1.3858665625,"instrument":1,"program":32,"isDrum":false},{"pitch":42,"velocity":94,"startTime":1.565214,"endTime":1.9076045625,"instrument":1,"program":32,"isDrum":false},{"pitch":38,"velocity":94,"startTime":2.086952,"endTime":2.4293425625000005,"instrument":1,"program":32,"isDrum":false},{"pitch":42,"velocity":94,"startTime":2.60869,"endTime":2.9510805625000005,"instrument":1,"program":32,"isDrum":false},{"pitch":45,"velocity":94,"startTime":3.130428,"endTime":3.4728185625000005,"instrument":1,"program":32,"isDrum":false},{"pitch":42,"velocity":94,"startTime":3.6521660000000002,"endTime":3.9945565625000006,"instrument":1,"program":32,"isDrum":false},{"pitch":31,"velocity":94,"startTime":4.173904,"endTime":4.516294562500001,"instrument":1,"program":32,"isDrum":false},{"pitch":34,"velocity":94,"startTime":4.695642,"endTime":5.038032562500001,"instrument":1,"program":32,"isDrum":false},{"pitch":38,"velocity":94,"startTime":5.21738,"endTime":5.559770562500001,"instrument":1,"program":32,"isDrum":false},{"pitch":34,"velocity":94,"startTime":5.739118,"endTime":6.0815085625,"instrument":1,"program":32,"isDrum":false},{"pitch":31,"velocity":94,"startTime":6.260856,"endTime":6.603246562500001,"instrument":1,"program":32,"isDrum":false},{"pitch":34,"velocity":94,"startTime":6.782594,"endTime":7.1249845625,"instrument":1,"program":32,"isDrum":false},{"pitch":38,"velocity":94,"startTime":7.3043320000000005,"endTime":7.646722562500001,"instrument":1,"program":32,"isDrum":false},{"pitch":34,"velocity":94,"startTime":7.826070000000001,"endTime":8.1684605625,"instrument":1,"program":32,"isDrum":false},{"pitch":38,"velocity":94,"startTime":8.347808,"endTime":8.690198562500001,"instrument":1,"program":32,"isDrum":false},{"pitch":42,"velocity":94,"startTime":8.869546,"endTime":9.2119365625,"instrument":1,"program":32,"isDrum":false},{"pitch":45,"velocity":94,"startTime":9.391284,"endTime":9.733674562500001,"instrument":1,"program":32,"isDrum":false},{"pitch":42,"velocity":94,"startTime":9.913022000000002,"endTime":10.2554125625,"instrument":1,"program":32,"isDrum":false},{"pitch":38,"velocity":94,"startTime":10.43476,"endTime":10.777150562500001,"instrument":1,"program":32,"isDrum":false},{"pitch":42,"velocity":94,"startTime":10.956498,"endTime":11.2988885625,"instrument":1,"program":32,"isDrum":false},{"pitch":45,"velocity":94,"startTime":11.478236,"endTime":11.820626562500001,"instrument":1,"program":32,"isDrum":false},{"pitch":42,"velocity":94,"startTime":11.999974000000002,"endTime":12.3423645625,"instrument":1,"program":32,"isDrum":false},{"pitch":31,"velocity":94,"startTime":12.521712,"endTime":12.864102562500001,"instrument":1,"program":32,"isDrum":false},{"pitch":34,"velocity":94,"startTime":13.04345,"endTime":13.3858405625,"instrument":1,"program":32,"isDrum":false},{"pitch":38,"velocity":94,"startTime":13.565188000000001,"endTime":13.907578562500001,"instrument":1,"program":32,"isDrum":false},{"pitch":34,"velocity":94,"startTime":14.086926000000002,"endTime":14.429316562500002,"instrument":1,"program":32,"isDrum":false},{"pitch":31,"velocity":94,"startTime":14.608664000000001,"endTime":14.951054562500001,"instrument":1,"program":32,"isDrum":false},{"pitch":34,"velocity":94,"startTime":15.130402,"endTime":15.4727925625,"instrument":1,"program":32,"isDrum":false},{"pitch":38,"velocity":94,"startTime":15.65214,"endTime":15.9945305625,"instrument":1,"program":32,"isDrum":false},{"pitch":34,"velocity":94,"startTime":16.173878000000002,"endTime":16.516268562500002,"instrument":1,"program":32,"isDrum":false},{"pitch":36,"velocity":94,"startTime":16.695616,"endTime":17.0380065625,"instrument":1,"program":32,"isDrum":false},{"pitch":39,"velocity":94,"startTime":17.217354,"endTime":17.5597445625,"instrument":1,"program":32,"isDrum":false},{"pitch":43,"velocity":94,"startTime":17.739092000000003,"endTime":18.0814825625,"instrument":1,"program":32,"isDrum":false},{"pitch":39,"velocity":94,"startTime":18.260830000000002,"endTime":18.603220562500002,"instrument":1,"program":32,"isDrum":false},{"pitch":36,"velocity":94,"startTime":18.782568,"endTime":19.1249585625,"instrument":1,"program":32,"isDrum":false},{"pitch":39,"velocity":94,"startTime":19.304306,"endTime":19.6466965625,"instrument":1,"program":32,"isDrum":false},{"pitch":43,"velocity":94,"startTime":19.826044,"endTime":20.1684345625,"instrument":1,"program":32,"isDrum":false},{"pitch":39,"velocity":94,"startTime":20.347782000000002,"endTime":20.690172562500003,"instrument":1,"program":32,"isDrum":false},{"pitch":31,"velocity":94,"startTime":20.86952,"endTime":21.2119105625,"instrument":1,"program":32,"isDrum":false},{"pitch":34,"velocity":94,"startTime":21.391258,"endTime":21.7336485625,"instrument":1,"program":32,"isDrum":false},{"pitch":38,"velocity":94,"startTime":21.912996000000003,"endTime":22.2553865625,"instrument":1,"program":32,"isDrum":false},{"pitch":34,"velocity":94,"startTime":22.434734000000002,"endTime":22.777124562500003,"instrument":1,"program":32,"isDrum":false},{"pitch":31,"velocity":94,"startTime":22.956472,"endTime":23.298862562500002,"instrument":1,"program":32,"isDrum":false},{"pitch":34,"velocity":94,"startTime":23.47821,"endTime":23.8206005625,"instrument":1,"program":32,"isDrum":false},{"pitch":38,"velocity":94,"startTime":23.999948,"endTime":24.3423385625,"instrument":1,"program":32,"isDrum":false},{"pitch":34,"velocity":94,"startTime":24.521686000000003,"endTime":24.864076562500003,"instrument":1,"program":32,"isDrum":false},{"pitch":38,"velocity":94,"startTime":25.043424,"endTime":25.385814562500002,"instrument":1,"program":32,"isDrum":false},{"pitch":42,"velocity":94,"startTime":25.565162,"endTime":25.9075525625,"instrument":1,"program":32,"isDrum":false},{"pitch":45,"velocity":94,"startTime":26.086900000000004,"endTime":26.4292905625,"instrument":1,"program":32,"isDrum":false},{"pitch":42,"velocity":94,"startTime":26.608638000000003,"endTime":26.951028562500003,"instrument":1,"program":32,"isDrum":false},{"pitch":38,"velocity":94,"startTime":27.130376000000002,"endTime":27.472766562500002,"instrument":1,"program":32,"isDrum":false},{"pitch":42,"velocity":94,"startTime":27.652114,"endTime":27.9945045625,"instrument":1,"program":32,"isDrum":false},{"pitch":45,"velocity":94,"startTime":28.173852,"endTime":28.5162425625,"instrument":1,"program":32,"isDrum":false},{"pitch":42,"velocity":94,"startTime":28.695590000000003,"endTime":29.037980562500003,"instrument":1,"program":32,"isDrum":false},{"pitch":43,"velocity":94,"startTime":29.217328000000002,"endTime":29.559718562500002,"instrument":1,"program":32,"isDrum":false},{"pitch":38,"velocity":94,"startTime":31.826018,"endTime":32.168408562500005,"instrument":1,"program":32,"isDrum":false},{"pitch":43,"velocity":94,"startTime":32.347756000000004,"endTime":32.690146562500004,"instrument":1,"program":32,"isDrum":false},{"pitch":38,"velocity":94,"startTime":33.391232,"endTime":33.7336225625,"instrument":1,"program":32,"isDrum":false},{"pitch":42,"velocity":94,"startTime":33.91297,"endTime":34.2553605625,"instrument":1,"program":32,"isDrum":false},{"pitch":45,"velocity":94,"startTime":34.434708,"endTime":34.7770985625,"instrument":1,"program":32,"isDrum":false},{"pitch":42,"velocity":94,"startTime":34.956446,"endTime":35.2988365625,"instrument":1,"program":32,"isDrum":false},{"pitch":38,"velocity":94,"startTime":35.478184,"endTime":35.8205745625,"instrument":1,"program":32,"isDrum":false},{"pitch":42,"velocity":94,"startTime":35.999922,"endTime":36.3423125625,"instrument":1,"program":32,"isDrum":false},{"pitch":45,"velocity":94,"startTime":36.52166,"endTime":36.8640505625,"instrument":1,"program":32,"isDrum":false},{"pitch":42,"velocity":94,"startTime":37.043397999999996,"endTime":37.3857885625,"instrument":1,"program":32,"isDrum":false},{"pitch":31,"velocity":94,"startTime":37.56513600000001,"endTime":37.907526562499996,"instrument":1,"program":32,"isDrum":false},{"pitch":34,"velocity":94,"startTime":38.08687400000001,"endTime":38.42926456250001,"instrument":1,"program":32,"isDrum":false},{"pitch":38,"velocity":94,"startTime":38.60861200000001,"endTime":38.95100256250001,"instrument":1,"program":32,"isDrum":false},{"pitch":34,"velocity":94,"startTime":39.13035000000001,"endTime":39.47274056250001,"instrument":1,"program":32,"isDrum":false},{"pitch":31,"velocity":94,"startTime":39.652088000000006,"endTime":39.99447856250001,"instrument":1,"program":32,"isDrum":false},{"pitch":34,"velocity":94,"startTime":40.173826000000005,"endTime":40.516216562500006,"instrument":1,"program":32,"isDrum":false},{"pitch":38,"velocity":94,"startTime":40.695564000000005,"endTime":41.037954562500005,"instrument":1,"program":32,"isDrum":false},{"pitch":34,"velocity":94,"startTime":41.217302000000004,"endTime":41.559692562500004,"instrument":1,"program":32,"isDrum":false},{"pitch":38,"velocity":94,"startTime":41.73904,"endTime":42.0814305625,"instrument":1,"program":32,"isDrum":false},{"pitch":42,"velocity":94,"startTime":42.260778,"endTime":42.6031685625,"instrument":1,"program":32,"isDrum":false},{"pitch":45,"velocity":94,"startTime":42.782516,"endTime":43.1249065625,"instrument":1,"program":32,"isDrum":false},{"pitch":42,"velocity":94,"startTime":43.304254,"endTime":43.6466445625,"instrument":1,"program":32,"isDrum":false},{"pitch":38,"velocity":94,"startTime":43.825992,"endTime":44.1683825625,"instrument":1,"program":32,"isDrum":false},{"pitch":42,"velocity":94,"startTime":44.34773,"endTime":44.6901205625,"instrument":1,"program":32,"isDrum":false},{"pitch":45,"velocity":94,"startTime":44.869468,"endTime":45.2118585625,"instrument":1,"program":32,"isDrum":false},{"pitch":42,"velocity":94,"startTime":45.391206,"endTime":45.7335965625,"instrument":1,"program":32,"isDrum":false},{"pitch":31,"velocity":94,"startTime":45.91294400000001,"endTime":46.255334562499996,"instrument":1,"program":32,"isDrum":false},{"pitch":34,"velocity":94,"startTime":46.43468200000001,"endTime":46.77707256250001,"instrument":1,"program":32,"isDrum":false},{"pitch":38,"velocity":94,"startTime":46.95642000000001,"endTime":47.29881056250001,"instrument":1,"program":32,"isDrum":false},{"pitch":34,"velocity":94,"startTime":47.47815800000001,"endTime":47.82054856250001,"instrument":1,"program":32,"isDrum":false},{"pitch":31,"velocity":94,"startTime":47.99989600000001,"endTime":48.34228656250001,"instrument":1,"program":32,"isDrum":false},{"pitch":34,"velocity":94,"startTime":48.521634000000006,"endTime":48.864024562500006,"instrument":1,"program":32,"isDrum":false},{"pitch":38,"velocity":94,"startTime":49.043372000000005,"endTime":49.385762562500005,"instrument":1,"program":32,"isDrum":false},{"pitch":34,"velocity":94,"startTime":49.565110000000004,"endTime":49.907500562500005,"instrument":1,"program":32,"isDrum":false},{"pitch":36,"velocity":94,"startTime":50.086848,"endTime":50.429238562500004,"instrument":1,"program":32,"isDrum":false},{"pitch":39,"velocity":94,"startTime":50.608586,"endTime":50.9509765625,"instrument":1,"program":32,"isDrum":false},{"pitch":43,"velocity":94,"startTime":51.130324,"endTime":51.4727145625,"instrument":1,"program":32,"isDrum":false},{"pitch":39,"velocity":94,"startTime":51.652062,"endTime":51.9944525625,"instrument":1,"program":32,"isDrum":false},{"pitch":36,"velocity":94,"startTime":52.1738,"endTime":52.5161905625,"instrument":1,"program":32,"isDrum":false},{"pitch":39,"velocity":94,"startTime":52.695538,"endTime":53.0379285625,"instrument":1,"program":32,"isDrum":false},{"pitch":43,"velocity":94,"startTime":53.217276,"endTime":53.5596665625,"instrument":1,"program":32,"isDrum":false},{"pitch":39,"velocity":94,"startTime":53.739014,"endTime":54.0814045625,"instrument":1,"program":32,"isDrum":false},{"pitch":31,"velocity":94,"startTime":54.26075200000001,"endTime":54.6031425625,"instrument":1,"program":32,"isDrum":false},{"pitch":34,"velocity":94,"startTime":54.78249000000001,"endTime":55.12488056250001,"instrument":1,"program":32,"isDrum":false},{"pitch":38,"velocity":94,"startTime":55.30422800000001,"endTime":55.64661856250001,"instrument":1,"program":32,"isDrum":false},{"pitch":34,"velocity":94,"startTime":55.82596600000001,"endTime":56.16835656250001,"instrument":1,"program":32,"isDrum":false},{"pitch":31,"velocity":94,"startTime":56.34770400000001,"endTime":56.69009456250001,"instrument":1,"program":32,"isDrum":false},{"pitch":34,"velocity":94,"startTime":56.86944200000001,"endTime":57.21183256250001,"instrument":1,"program":32,"isDrum":false},{"pitch":38,"velocity":94,"startTime":57.391180000000006,"endTime":57.733570562500006,"instrument":1,"program":32,"isDrum":false},{"pitch":34,"velocity":94,"startTime":57.912918000000005,"endTime":58.255308562500005,"instrument":1,"program":32,"isDrum":false},{"pitch":38,"velocity":94,"startTime":58.434656000000004,"endTime":58.777046562500004,"instrument":1,"program":32,"isDrum":false},{"pitch":42,"velocity":94,"startTime":58.956394,"endTime":59.2987845625,"instrument":1,"program":32,"isDrum":false},{"pitch":45,"velocity":94,"startTime":59.478132,"endTime":59.8205225625,"instrument":1,"program":32,"isDrum":false},{"pitch":42,"velocity":94,"startTime":59.99987,"endTime":60.3422605625,"instrument":1,"program":32,"isDrum":false},{"pitch":38,"velocity":94,"startTime":60.521608,"endTime":60.8639985625,"instrument":1,"program":32,"isDrum":false},{"pitch":42,"velocity":94,"startTime":61.043346,"endTime":61.3857365625,"instrument":1,"program":32,"isDrum":false},{"pitch":45,"velocity":94,"startTime":61.565084,"endTime":61.9074745625,"instrument":1,"program":32,"isDrum":false},{"pitch":42,"velocity":94,"startTime":62.08682200000001,"endTime":62.42921256250001,"instrument":1,"program":32,"isDrum":false},{"pitch":43,"velocity":94,"startTime":62.60856000000001,"endTime":62.95095056250001,"instrument":1,"program":32,"isDrum":false},{"pitch":38,"velocity":94,"startTime":65.21725,"endTime":65.55964056250001,"instrument":1,"program":32,"isDrum":false},{"pitch":43,"velocity":94,"startTime":65.738988,"endTime":66.0813785625,"instrument":1,"program":32,"isDrum":false},{"pitch":43,"velocity":94,"startTime":66.782464,"endTime":67.565071,"instrument":1,"program":32,"isDrum":false},{"pitch":41,"velocity":94,"startTime":67.82594,"endTime":68.63028608333333,"instrument":1,"program":32,"isDrum":false},{"pitch":40,"velocity":94,"startTime":68.869416,"endTime":69.65202300000001,"instrument":1,"program":32,"isDrum":false},{"pitch":39,"velocity":94,"startTime":69.91289200000001,"endTime":70.34767366666668,"instrument":1,"program":32,"isDrum":false},{"pitch":38,"velocity":94,"startTime":70.43463000000001,"endTime":70.85854212500001,"instrument":1,"program":32,"isDrum":false},{"pitch":43,"velocity":94,"startTime":70.95636800000001,"endTime":71.29875856250001,"instrument":1,"program":32,"isDrum":false},{"pitch":38,"velocity":94,"startTime":73.04332000000001,"endTime":73.38571056250001,"instrument":1,"program":32,"isDrum":false},{"pitch":42,"velocity":94,"startTime":73.56505800000001,"endTime":73.90744856250001,"instrument":1,"program":32,"isDrum":false},{"pitch":45,"velocity":94,"startTime":74.086796,"endTime":74.4291865625,"instrument":1,"program":32,"isDrum":false},{"pitch":42,"velocity":94,"startTime":74.608534,"endTime":74.9509245625,"instrument":1,"program":32,"isDrum":false},{"pitch":38,"velocity":94,"startTime":75.130272,"endTime":75.4726625625,"instrument":1,"program":32,"isDrum":false},{"pitch":42,"velocity":94,"startTime":75.65201,"endTime":75.9944005625,"instrument":1,"program":32,"isDrum":false},{"pitch":45,"velocity":94,"startTime":76.173748,"endTime":76.5161385625,"instrument":1,"program":32,"isDrum":false},{"pitch":42,"velocity":94,"startTime":76.695486,"endTime":77.0378765625,"instrument":1,"program":32,"isDrum":false},{"pitch":38,"velocity":94,"startTime":77.21722400000002,"endTime":77.5596145625,"instrument":1,"program":32,"isDrum":false},{"pitch":42,"velocity":94,"startTime":77.73896200000001,"endTime":78.08135256250002,"instrument":1,"program":32,"isDrum":false},{"pitch":45,"velocity":94,"startTime":78.26070000000001,"endTime":78.60309056250001,"instrument":1,"program":32,"isDrum":false},{"pitch":42,"velocity":94,"startTime":78.78243800000001,"endTime":79.12482856250001,"instrument":1,"program":32,"isDrum":false},{"pitch":38,"velocity":94,"startTime":79.30417600000001,"endTime":79.64656656250001,"instrument":1,"program":32,"isDrum":false},{"pitch":42,"velocity":94,"startTime":79.82591400000001,"endTime":80.16830456250001,"instrument":1,"program":32,"isDrum":false},{"pitch":45,"velocity":94,"startTime":80.34765200000001,"endTime":80.69004256250001,"instrument":1,"program":32,"isDrum":false},{"pitch":42,"velocity":94,"startTime":80.86939000000001,"endTime":81.21178056250001,"instrument":1,"program":32,"isDrum":false},{"pitch":43,"velocity":94,"startTime":81.39112800000001,"endTime":81.73351856250001,"instrument":1,"program":32,"isDrum":false},{"pitch":38,"velocity":94,"startTime":81.91286600000001,"endTime":82.25525656250001,"instrument":1,"program":32,"isDrum":false},{"pitch":34,"velocity":94,"startTime":82.43460400000001,"endTime":82.77699456250001,"instrument":1,"program":32,"isDrum":false},{"pitch":38,"velocity":94,"startTime":82.956342,"endTime":83.2987325625,"instrument":1,"program":32,"isDrum":false},{"pitch":43,"velocity":94,"startTime":83.47808,"endTime":84.260687,"instrument":1,"program":32,"isDrum":false},{"pitch":41,"velocity":94,"startTime":84.521556,"endTime":85.31503254166668,"instrument":1,"program":32,"isDrum":false},{"pitch":40,"velocity":94,"startTime":85.565032,"endTime":86.35850854166668,"instrument":1,"program":32,"isDrum":false},{"pitch":39,"velocity":94,"startTime":86.60850800000001,"endTime":87.01068104166669,"instrument":1,"program":32,"isDrum":false},{"pitch":38,"velocity":94,"startTime":87.13024600000001,"endTime":87.56502766666668,"instrument":1,"program":32,"isDrum":false},{"pitch":43,"velocity":94,"startTime":87.65198400000001,"endTime":87.99437456250001,"instrument":1,"program":32,"isDrum":false},{"pitch":36,"velocity":94,"startTime":89.73893600000001,"endTime":90.08132656250001,"instrument":1,"program":32,"isDrum":false},{"pitch":39,"velocity":94,"startTime":90.26067400000001,"endTime":90.60306456250001,"instrument":1,"program":32,"isDrum":false},{"pitch":43,"velocity":94,"startTime":90.78241200000001,"endTime":91.12480256250001,"instrument":1,"program":32,"isDrum":false},{"pitch":39,"velocity":94,"startTime":91.30415,"endTime":91.64654056250001,"instrument":1,"program":32,"isDrum":false},{"pitch":36,"velocity":94,"startTime":91.825888,"endTime":91.99980066666669,"instrument":1,"program":32,"isDrum":false},{"pitch":36,"velocity":94,"startTime":92.086757,"endTime":92.32588691666668,"instrument":1,"program":32,"isDrum":false},{"pitch":36,"velocity":94,"startTime":92.608495,"endTime":92.85849445833334,"instrument":1,"program":32,"isDrum":false},{"pitch":31,"velocity":94,"startTime":93.130233,"endTime":93.35849337500001,"instrument":1,"program":32,"isDrum":false},{"pitch":36,"velocity":94,"startTime":93.391102,"endTime":93.63023191666669,"instrument":1,"program":32,"isDrum":false},{"pitch":43,"velocity":94,"startTime":93.91284000000002,"endTime":94.075883125,"instrument":1,"program":32,"isDrum":false},{"pitch":43,"velocity":94,"startTime":94.17370900000002,"endTime":94.43457800000002,"instrument":1,"program":32,"isDrum":false},{"pitch":43,"velocity":94,"startTime":94.69544700000002,"endTime":95.06501141666668,"instrument":1,"program":32,"isDrum":false},{"pitch":38,"velocity":94,"startTime":95.21718500000001,"endTime":95.445445375,"instrument":1,"program":32,"isDrum":false},{"pitch":43,"velocity":94,"startTime":95.47805400000001,"endTime":95.72805345833333,"instrument":1,"program":32,"isDrum":false},{"pitch":38,"velocity":94,"startTime":95.99979200000001,"endTime":96.96718120833334,"instrument":1,"program":32,"isDrum":false},{"pitch":38,"velocity":94,"startTime":98.60848200000001,"endTime":99.05413320833334,"instrument":1,"program":32,"isDrum":false},{"pitch":43,"velocity":94,"startTime":99.13022000000001,"endTime":99.38021945833334,"instrument":1,"program":32,"isDrum":false},{"pitch":38,"velocity":94,"startTime":100.173696,"endTime":100.5160865625,"instrument":1,"program":32,"isDrum":false},{"pitch":42,"velocity":94,"startTime":100.695434,"endTime":101.0378245625,"instrument":1,"program":32,"isDrum":false},{"pitch":45,"velocity":94,"startTime":101.217172,"endTime":101.5595625625,"instrument":1,"program":32,"isDrum":false},{"pitch":42,"velocity":94,"startTime":101.73891,"endTime":102.0813005625,"instrument":1,"program":32,"isDrum":false},{"pitch":38,"velocity":94,"startTime":102.260648,"endTime":102.6030385625,"instrument":1,"program":32,"isDrum":false},{"pitch":42,"velocity":94,"startTime":102.78238600000002,"endTime":103.12477656250002,"instrument":1,"program":32,"isDrum":false},{"pitch":45,"velocity":94,"startTime":103.30412400000002,"endTime":103.64651456250002,"instrument":1,"program":32,"isDrum":false},{"pitch":42,"velocity":94,"startTime":103.82586200000001,"endTime":104.16825256250002,"instrument":1,"program":32,"isDrum":false},{"pitch":31,"velocity":94,"startTime":104.34760000000001,"endTime":104.68999056250001,"instrument":1,"program":32,"isDrum":false},{"pitch":34,"velocity":94,"startTime":104.86933800000001,"endTime":105.21172856250001,"instrument":1,"program":32,"isDrum":false},{"pitch":38,"velocity":94,"startTime":105.39107600000001,"endTime":105.73346656250001,"instrument":1,"program":32,"isDrum":false},{"pitch":34,"velocity":94,"startTime":105.91281400000001,"endTime":106.25520456250001,"instrument":1,"program":32,"isDrum":false},{"pitch":31,"velocity":94,"startTime":106.43455200000001,"endTime":106.77694256250001,"instrument":1,"program":32,"isDrum":false},{"pitch":34,"velocity":94,"startTime":106.95629000000001,"endTime":107.29868056250001,"instrument":1,"program":32,"isDrum":false},{"pitch":38,"velocity":94,"startTime":107.47802800000001,"endTime":107.82041856250001,"instrument":1,"program":32,"isDrum":false},{"pitch":34,"velocity":94,"startTime":107.99976600000001,"endTime":108.34215656250001,"instrument":1,"program":32,"isDrum":false},{"pitch":38,"velocity":94,"startTime":108.52150400000001,"endTime":108.86389456250001,"instrument":1,"program":32,"isDrum":false},{"pitch":42,"velocity":94,"startTime":109.043242,"endTime":109.3856325625,"instrument":1,"program":32,"isDrum":false},{"pitch":45,"velocity":94,"startTime":109.56498,"endTime":109.9073705625,"instrument":1,"program":32,"isDrum":false},{"pitch":42,"velocity":94,"startTime":110.086718,"endTime":110.4291085625,"instrument":1,"program":32,"isDrum":false},{"pitch":38,"velocity":94,"startTime":110.60845600000002,"endTime":110.9508465625,"instrument":1,"program":32,"isDrum":false},{"pitch":42,"velocity":94,"startTime":111.13019400000002,"endTime":111.47258456250002,"instrument":1,"program":32,"isDrum":false},{"pitch":45,"velocity":94,"startTime":111.65193200000002,"endTime":111.99432256250002,"instrument":1,"program":32,"isDrum":false},{"pitch":42,"velocity":94,"startTime":112.17367000000002,"endTime":112.51606056250002,"instrument":1,"program":32,"isDrum":false},{"pitch":31,"velocity":94,"startTime":112.69540800000001,"endTime":113.03779856250002,"instrument":1,"program":32,"isDrum":false},{"pitch":34,"velocity":94,"startTime":113.21714600000001,"endTime":113.55953656250001,"instrument":1,"program":32,"isDrum":false},{"pitch":38,"velocity":94,"startTime":113.73888400000001,"endTime":114.08127456250001,"instrument":1,"program":32,"isDrum":false},{"pitch":34,"velocity":94,"startTime":114.26062200000001,"endTime":114.60301256250001,"instrument":1,"program":32,"isDrum":false},{"pitch":31,"velocity":94,"startTime":114.78236000000001,"endTime":115.12475056250001,"instrument":1,"program":32,"isDrum":false},{"pitch":34,"velocity":94,"startTime":115.30409800000001,"endTime":115.64648856250001,"instrument":1,"program":32,"isDrum":false},{"pitch":38,"velocity":94,"startTime":115.82583600000001,"endTime":116.16822656250001,"instrument":1,"program":32,"isDrum":false},{"pitch":34,"velocity":94,"startTime":116.34757400000001,"endTime":116.68996456250001,"instrument":1,"program":32,"isDrum":false},{"pitch":36,"velocity":94,"startTime":116.86931200000001,"endTime":117.21170256250001,"instrument":1,"program":32,"isDrum":false},{"pitch":39,"velocity":94,"startTime":117.39105,"endTime":117.73344056250001,"instrument":1,"program":32,"isDrum":false},{"pitch":43,"velocity":94,"startTime":117.912788,"endTime":118.2551785625,"instrument":1,"program":32,"isDrum":false},{"pitch":39,"velocity":94,"startTime":118.434526,"endTime":118.7769165625,"instrument":1,"program":32,"isDrum":false},{"pitch":36,"velocity":94,"startTime":118.956264,"endTime":119.2986545625,"instrument":1,"program":32,"isDrum":false},{"pitch":39,"velocity":94,"startTime":119.47800200000002,"endTime":119.82039256250002,"instrument":1,"program":32,"isDrum":false},{"pitch":43,"velocity":94,"startTime":119.99974000000002,"endTime":120.34213056250002,"instrument":1,"program":32,"isDrum":false},{"pitch":39,"velocity":94,"startTime":120.52147800000002,"endTime":120.86386856250002,"instrument":1,"program":32,"isDrum":false},{"pitch":31,"velocity":94,"startTime":121.04321600000002,"endTime":121.38560656250002,"instrument":1,"program":32,"isDrum":false},{"pitch":34,"velocity":94,"startTime":121.56495400000001,"endTime":121.90734456250001,"instrument":1,"program":32,"isDrum":false},{"pitch":38,"velocity":94,"startTime":122.08669200000001,"endTime":122.42908256250001,"instrument":1,"program":32,"isDrum":false},{"pitch":34,"velocity":94,"startTime":122.60843000000001,"endTime":122.95082056250001,"instrument":1,"program":32,"isDrum":false},{"pitch":31,"velocity":94,"startTime":123.13016800000001,"endTime":123.47255856250001,"instrument":1,"program":32,"isDrum":false},{"pitch":34,"velocity":94,"startTime":123.65190600000001,"endTime":123.99429656250001,"instrument":1,"program":32,"isDrum":false},{"pitch":38,"velocity":94,"startTime":124.17364400000001,"endTime":124.51603456250001,"instrument":1,"program":32,"isDrum":false},{"pitch":34,"velocity":94,"startTime":124.69538200000001,"endTime":125.03777256250001,"instrument":1,"program":32,"isDrum":false},{"pitch":38,"velocity":94,"startTime":125.21712000000001,"endTime":125.55951056250001,"instrument":1,"program":32,"isDrum":false},{"pitch":42,"velocity":94,"startTime":125.73885800000001,"endTime":126.08124856250001,"instrument":1,"program":32,"isDrum":false},{"pitch":45,"velocity":94,"startTime":126.26059600000002,"endTime":126.6029865625,"instrument":1,"program":32,"isDrum":false},{"pitch":42,"velocity":94,"startTime":126.78233400000002,"endTime":127.1247245625,"instrument":1,"program":32,"isDrum":false},{"pitch":38,"velocity":94,"startTime":127.30407200000002,"endTime":127.6464625625,"instrument":1,"program":32,"isDrum":false},{"pitch":42,"velocity":94,"startTime":127.82581000000002,"endTime":128.1682005625,"instrument":1,"program":32,"isDrum":false},{"pitch":45,"velocity":94,"startTime":128.34754800000002,"endTime":128.6899385625,"instrument":1,"program":32,"isDrum":false},{"pitch":42,"velocity":94,"startTime":128.86928600000002,"endTime":129.2116765625,"instrument":1,"program":32,"isDrum":false},{"pitch":43,"velocity":94,"startTime":129.39102400000002,"endTime":129.7334145625,"instrument":1,"program":32,"isDrum":false},{"pitch":38,"velocity":94,"startTime":131.999714,"endTime":132.34210456250003,"instrument":1,"program":32,"isDrum":false},{"pitch":43,"velocity":94,"startTime":132.521452,"endTime":132.86384256250003,"instrument":1,"program":32,"isDrum":false},{"pitch":43,"velocity":94,"startTime":133.564928,"endTime":133.71710158333335,"instrument":1,"program":32,"isDrum":false},{"pitch":42,"velocity":94,"startTime":133.82579700000002,"endTime":134.02144875000002,"instrument":1,"program":32,"isDrum":false},{"pitch":43,"velocity":94,"startTime":134.086666,"endTime":134.249709125,"instrument":1,"program":32,"isDrum":false},{"pitch":45,"velocity":94,"startTime":134.34753500000002,"endTime":134.55405629166668,"instrument":1,"program":32,"isDrum":false},{"pitch":46,"velocity":94,"startTime":134.86927300000002,"endTime":135.32579375,"instrument":1,"program":32,"isDrum":false},{"pitch":45,"velocity":94,"startTime":135.39101100000002,"endTime":135.64101045833337,"instrument":1,"program":32,"isDrum":false},{"pitch":43,"velocity":94,"startTime":135.65188,"endTime":135.89100991666666,"instrument":1,"program":32,"isDrum":false},{"pitch":39,"velocity":94,"startTime":137.738832,"endTime":137.901875125,"instrument":1,"program":32,"isDrum":false},{"pitch":38,"velocity":94,"startTime":137.99970100000002,"endTime":138.15730935416667,"instrument":1,"program":32,"isDrum":false},{"pitch":39,"velocity":94,"startTime":138.26057,"endTime":138.39643927083335,"instrument":1,"program":32,"isDrum":false},{"pitch":41,"velocity":94,"startTime":138.52143900000002,"endTime":138.749699375,"instrument":1,"program":32,"isDrum":false},{"pitch":43,"velocity":94,"startTime":139.04317700000001,"endTime":139.49969775000002,"instrument":1,"program":32,"isDrum":false},{"pitch":39,"velocity":94,"startTime":139.564915,"endTime":139.793175375,"instrument":1,"program":32,"isDrum":false},{"pitch":38,"velocity":94,"startTime":139.825784,"endTime":140.02143575000002,"instrument":1,"program":32,"isDrum":false},{"pitch":43,"velocity":94,"startTime":141.91273600000002,"endTime":142.08664866666666,"instrument":1,"program":32,"isDrum":false},{"pitch":42,"velocity":94,"startTime":142.173605,"endTime":142.35838720833337,"instrument":1,"program":32,"isDrum":false},{"pitch":43,"velocity":94,"startTime":142.43447400000002,"endTime":142.59751712500002,"instrument":1,"program":32,"isDrum":false},{"pitch":45,"velocity":94,"startTime":142.695343,"endTime":142.94534245833336,"instrument":1,"program":32,"isDrum":false},{"pitch":46,"velocity":94,"startTime":143.217081,"endTime":143.65186266666666,"instrument":1,"program":32,"isDrum":false},{"pitch":45,"velocity":94,"startTime":143.738819,"endTime":143.95620983333336,"instrument":1,"program":32,"isDrum":false},{"pitch":43,"velocity":94,"startTime":143.99968800000002,"endTime":144.14099204166666,"instrument":1,"program":32,"isDrum":false},{"pitch":39,"velocity":94,"startTime":146.08664000000002,"endTime":146.22794404166666,"instrument":1,"program":32,"isDrum":false},{"pitch":38,"velocity":94,"startTime":146.347509,"endTime":146.49968258333337,"instrument":1,"program":32,"isDrum":false},{"pitch":39,"velocity":94,"startTime":146.60837800000002,"endTime":146.73881250000002,"instrument":1,"program":32,"isDrum":false},{"pitch":41,"velocity":94,"startTime":146.869247,"endTime":147.11924645833335,"instrument":1,"program":32,"isDrum":false},{"pitch":43,"velocity":94,"startTime":147.390985,"endTime":147.84207097916666,"instrument":1,"program":32,"isDrum":false},{"pitch":39,"velocity":94,"startTime":147.912723,"endTime":148.10837475000002,"instrument":1,"program":32,"isDrum":false},{"pitch":38,"velocity":94,"startTime":148.173592,"endTime":148.46706962500002,"instrument":1,"program":32,"isDrum":false},{"pitch":43,"velocity":94,"startTime":150.260544,"endTime":150.59749979166668,"instrument":1,"program":32,"isDrum":false},{"pitch":38,"velocity":94,"startTime":152.347496,"endTime":152.72792995833336,"instrument":1,"program":32,"isDrum":false},{"pitch":38,"velocity":94,"startTime":153.390972,"endTime":153.78227550000003,"instrument":1,"program":32,"isDrum":false},{"pitch":38,"velocity":94,"startTime":154.434448,"endTime":154.82575150000002,"instrument":1,"program":32,"isDrum":false},{"pitch":38,"velocity":94,"startTime":155.477924,"endTime":155.86922750000002,"instrument":1,"program":32,"isDrum":false},{"pitch":43,"velocity":94,"startTime":156.52140000000003,"endTime":156.91270350000002,"instrument":1,"program":32,"isDrum":false},{"pitch":43,"velocity":94,"startTime":157.56487600000003,"endTime":157.95617950000002,"instrument":1,"program":32,"isDrum":false},{"pitch":43,"velocity":94,"startTime":158.60835200000002,"endTime":158.99965550000002,"instrument":1,"program":32,"isDrum":false},{"pitch":43,"velocity":94,"startTime":159.65182800000002,"endTime":160.04313150000002,"instrument":1,"program":32,"isDrum":false},{"pitch":38,"velocity":94,"startTime":160.69530400000002,"endTime":161.0866075,"instrument":1,"program":32,"isDrum":false},{"pitch":38,"velocity":94,"startTime":161.73878000000002,"endTime":162.1300835,"instrument":1,"program":32,"isDrum":false},{"pitch":38,"velocity":94,"startTime":162.78225600000002,"endTime":163.1735595,"instrument":1,"program":32,"isDrum":false},{"pitch":38,"velocity":94,"startTime":163.82573200000002,"endTime":164.2170355,"instrument":1,"program":32,"isDrum":false},{"pitch":43,"velocity":94,"startTime":164.86920800000001,"endTime":165.15181608333336,"instrument":1,"program":32,"isDrum":false},{"pitch":38,"velocity":94,"startTime":165.390946,"endTime":165.7822495,"instrument":1,"program":32,"isDrum":false},{"pitch":43,"velocity":94,"startTime":165.912684,"endTime":166.21703116666666,"instrument":1,"program":32,"isDrum":false},{"pitch":38,"velocity":94,"startTime":166.95616,"endTime":167.29855056250003,"instrument":1,"program":32,"isDrum":false},{"pitch":42,"velocity":94,"startTime":167.477898,"endTime":167.82028856250002,"instrument":1,"program":32,"isDrum":false},{"pitch":45,"velocity":94,"startTime":167.999636,"endTime":168.34202656250002,"instrument":1,"program":32,"isDrum":false},{"pitch":42,"velocity":94,"startTime":168.521374,"endTime":168.86376456250002,"instrument":1,"program":32,"isDrum":false},{"pitch":38,"velocity":94,"startTime":169.043112,"endTime":169.38550256250002,"instrument":1,"program":32,"isDrum":false},{"pitch":42,"velocity":94,"startTime":169.56485,"endTime":169.90724056250002,"instrument":1,"program":32,"isDrum":false},{"pitch":45,"velocity":94,"startTime":170.086588,"endTime":170.42897856250002,"instrument":1,"program":32,"isDrum":false},{"pitch":42,"velocity":94,"startTime":170.608326,"endTime":170.95071656250002,"instrument":1,"program":32,"isDrum":false},{"pitch":31,"velocity":94,"startTime":171.130064,"endTime":171.47245456250002,"instrument":1,"program":32,"isDrum":false},{"pitch":34,"velocity":94,"startTime":171.651802,"endTime":171.99419256250002,"instrument":1,"program":32,"isDrum":false},{"pitch":38,"velocity":94,"startTime":172.17354,"endTime":172.51593056250002,"instrument":1,"program":32,"isDrum":false},{"pitch":34,"velocity":94,"startTime":172.695278,"endTime":173.03766856250002,"instrument":1,"program":32,"isDrum":false},{"pitch":31,"velocity":94,"startTime":173.217016,"endTime":173.55940656250002,"instrument":1,"program":32,"isDrum":false},{"pitch":34,"velocity":94,"startTime":173.73875400000003,"endTime":174.08114456250001,"instrument":1,"program":32,"isDrum":false},{"pitch":38,"velocity":94,"startTime":174.26049200000003,"endTime":174.6028825625,"instrument":1,"program":32,"isDrum":false},{"pitch":34,"velocity":94,"startTime":174.78223000000003,"endTime":175.1246205625,"instrument":1,"program":32,"isDrum":false},{"pitch":38,"velocity":94,"startTime":175.30396800000003,"endTime":175.6463585625,"instrument":1,"program":32,"isDrum":false},{"pitch":42,"velocity":94,"startTime":175.82570600000003,"endTime":176.1680965625,"instrument":1,"program":32,"isDrum":false},{"pitch":45,"velocity":94,"startTime":176.34744400000002,"endTime":176.6898345625,"instrument":1,"program":32,"isDrum":false},{"pitch":42,"velocity":94,"startTime":176.86918200000002,"endTime":177.2115725625,"instrument":1,"program":32,"isDrum":false},{"pitch":38,"velocity":94,"startTime":177.39092000000002,"endTime":177.7333105625,"instrument":1,"program":32,"isDrum":false},{"pitch":42,"velocity":94,"startTime":177.91265800000002,"endTime":178.2550485625,"instrument":1,"program":32,"isDrum":false},{"pitch":45,"velocity":94,"startTime":178.43439600000002,"endTime":178.7767865625,"instrument":1,"program":32,"isDrum":false},{"pitch":42,"velocity":94,"startTime":178.95613400000002,"endTime":179.2985245625,"instrument":1,"program":32,"isDrum":false},{"pitch":31,"velocity":94,"startTime":179.47787200000002,"endTime":179.8202625625,"instrument":1,"program":32,"isDrum":false},{"pitch":34,"velocity":94,"startTime":179.99961000000002,"endTime":180.3420005625,"instrument":1,"program":32,"isDrum":false},{"pitch":38,"velocity":94,"startTime":180.52134800000002,"endTime":180.8637385625,"instrument":1,"program":32,"isDrum":false},{"pitch":34,"velocity":94,"startTime":181.04308600000002,"endTime":181.3854765625,"instrument":1,"program":32,"isDrum":false},{"pitch":31,"velocity":94,"startTime":181.56482400000002,"endTime":181.9072145625,"instrument":1,"program":32,"isDrum":false},{"pitch":34,"velocity":94,"startTime":182.08656200000001,"endTime":182.42895256250003,"instrument":1,"program":32,"isDrum":false},{"pitch":38,"velocity":94,"startTime":182.6083,"endTime":182.95069056250003,"instrument":1,"program":32,"isDrum":false},{"pitch":34,"velocity":94,"startTime":183.130038,"endTime":183.47242856250003,"instrument":1,"program":32,"isDrum":false},{"pitch":36,"velocity":94,"startTime":183.651776,"endTime":183.99416656250003,"instrument":1,"program":32,"isDrum":false},{"pitch":39,"velocity":94,"startTime":184.173514,"endTime":184.51590456250003,"instrument":1,"program":32,"isDrum":false},{"pitch":43,"velocity":94,"startTime":184.695252,"endTime":185.03764256250003,"instrument":1,"program":32,"isDrum":false},{"pitch":39,"velocity":94,"startTime":185.21699,"endTime":185.55938056250002,"instrument":1,"program":32,"isDrum":false},{"pitch":36,"velocity":94,"startTime":185.738728,"endTime":186.08111856250002,"instrument":1,"program":32,"isDrum":false},{"pitch":39,"velocity":94,"startTime":186.260466,"endTime":186.60285656250002,"instrument":1,"program":32,"isDrum":false},{"pitch":43,"velocity":94,"startTime":186.782204,"endTime":187.12459456250002,"instrument":1,"program":32,"isDrum":false},{"pitch":39,"velocity":94,"startTime":187.303942,"endTime":187.64633256250002,"instrument":1,"program":32,"isDrum":false},{"pitch":31,"velocity":94,"startTime":187.82568,"endTime":188.16807056250002,"instrument":1,"program":32,"isDrum":false},{"pitch":34,"velocity":94,"startTime":188.347418,"endTime":188.68980856250002,"instrument":1,"program":32,"isDrum":false},{"pitch":38,"velocity":94,"startTime":188.869156,"endTime":189.21154656250002,"instrument":1,"program":32,"isDrum":false},{"pitch":34,"velocity":94,"startTime":189.390894,"endTime":189.73328456250002,"instrument":1,"program":32,"isDrum":false},{"pitch":31,"velocity":94,"startTime":189.91263200000003,"endTime":190.25502256250002,"instrument":1,"program":32,"isDrum":false},{"pitch":34,"velocity":94,"startTime":190.43437000000003,"endTime":190.77676056250002,"instrument":1,"program":32,"isDrum":false},{"pitch":38,"velocity":94,"startTime":190.95610800000003,"endTime":191.29849856250001,"instrument":1,"program":32,"isDrum":false},{"pitch":34,"velocity":94,"startTime":191.47784600000003,"endTime":191.8202365625,"instrument":1,"program":32,"isDrum":false},{"pitch":38,"velocity":94,"startTime":191.99958400000003,"endTime":192.3419745625,"instrument":1,"program":32,"isDrum":false},{"pitch":42,"velocity":94,"startTime":192.52132200000003,"endTime":192.8637125625,"instrument":1,"program":32,"isDrum":false},{"pitch":45,"velocity":94,"startTime":193.04306000000003,"endTime":193.3854505625,"instrument":1,"program":32,"isDrum":false},{"pitch":42,"velocity":94,"startTime":193.56479800000002,"endTime":193.9071885625,"instrument":1,"program":32,"isDrum":false},{"pitch":38,"velocity":94,"startTime":194.08653600000002,"endTime":194.4289265625,"instrument":1,"program":32,"isDrum":false},{"pitch":42,"velocity":94,"startTime":194.60827400000002,"endTime":194.9506645625,"instrument":1,"program":32,"isDrum":false},{"pitch":45,"velocity":94,"startTime":195.13001200000002,"endTime":195.4724025625,"instrument":1,"program":32,"isDrum":false},{"pitch":42,"velocity":94,"startTime":195.65175000000002,"endTime":195.9941405625,"instrument":1,"program":32,"isDrum":false},{"pitch":43,"velocity":94,"startTime":196.17348800000002,"endTime":196.5158785625,"instrument":1,"program":32,"isDrum":false},{"pitch":38,"velocity":94,"startTime":198.78217800000002,"endTime":199.12456856250003,"instrument":1,"program":32,"isDrum":false},{"pitch":43,"velocity":94,"startTime":199.30391600000002,"endTime":199.64630656250003,"instrument":1,"program":32,"isDrum":false},{"pitch":62,"velocity":76,"startTime":0,"endTime":0.10869541666666649,"instrument":2,"program":24,"isDrum":false},{"pitch":66,"velocity":76,"startTime":0,"endTime":0.10869541666666649,"instrument":2,"program":24,"isDrum":false},{"pitch":69,"velocity":76,"startTime":0,"endTime":0.10869541666666649,"instrument":2,"program":24,"isDrum":false},{"pitch":72,"velocity":76,"startTime":0,"endTime":0.10869541666666649,"instrument":2,"program":24,"isDrum":false},{"pitch":62,"velocity":76,"startTime":0.521738,"endTime":0.6304334166666665,"instrument":2,"program":24,"isDrum":false},{"pitch":66,"velocity":76,"startTime":0.521738,"endTime":0.6304334166666665,"instrument":2,"program":24,"isDrum":false},{"pitch":69,"velocity":76,"startTime":0.521738,"endTime":0.6304334166666665,"instrument":2,"program":24,"isDrum":false},{"pitch":72,"velocity":76,"startTime":0.521738,"endTime":0.6304334166666665,"instrument":2,"program":24,"isDrum":false},{"pitch":62,"velocity":76,"startTime":1.043476,"endTime":1.1521714166666666,"instrument":2,"program":24,"isDrum":false},{"pitch":66,"velocity":76,"startTime":1.043476,"endTime":1.1521714166666666,"instrument":2,"program":24,"isDrum":false},{"pitch":69,"velocity":76,"startTime":1.043476,"endTime":1.1521714166666666,"instrument":2,"program":24,"isDrum":false},{"pitch":72,"velocity":76,"startTime":1.043476,"endTime":1.1521714166666666,"instrument":2,"program":24,"isDrum":false},{"pitch":62,"velocity":76,"startTime":1.565214,"endTime":1.6739094166666666,"instrument":2,"program":24,"isDrum":false},{"pitch":66,"velocity":76,"startTime":1.565214,"endTime":1.6739094166666666,"instrument":2,"program":24,"isDrum":false},{"pitch":69,"velocity":76,"startTime":1.565214,"endTime":1.6739094166666666,"instrument":2,"program":24,"isDrum":false},{"pitch":72,"velocity":76,"startTime":1.565214,"endTime":1.6739094166666666,"instrument":2,"program":24,"isDrum":false},{"pitch":62,"velocity":76,"startTime":1.8260830000000001,"endTime":2.1793431041666675,"instrument":2,"program":24,"isDrum":false},{"pitch":66,"velocity":76,"startTime":1.8260830000000001,"endTime":2.1793431041666675,"instrument":2,"program":24,"isDrum":false},{"pitch":69,"velocity":76,"startTime":1.8260830000000001,"endTime":2.1793431041666675,"instrument":2,"program":24,"isDrum":false},{"pitch":72,"velocity":76,"startTime":1.8260830000000001,"endTime":2.1793431041666675,"instrument":2,"program":24,"isDrum":false},{"pitch":62,"velocity":76,"startTime":2.60869,"endTime":2.7173854166666676,"instrument":2,"program":24,"isDrum":false},{"pitch":66,"velocity":76,"startTime":2.60869,"endTime":2.7173854166666676,"instrument":2,"program":24,"isDrum":false},{"pitch":69,"velocity":76,"startTime":2.60869,"endTime":2.7173854166666676,"instrument":2,"program":24,"isDrum":false},{"pitch":72,"velocity":76,"startTime":2.60869,"endTime":2.7173854166666676,"instrument":2,"program":24,"isDrum":false},{"pitch":62,"velocity":76,"startTime":3.130428,"endTime":3.2391234166666676,"instrument":2,"program":24,"isDrum":false},{"pitch":66,"velocity":76,"startTime":3.130428,"endTime":3.2391234166666676,"instrument":2,"program":24,"isDrum":false},{"pitch":69,"velocity":76,"startTime":3.130428,"endTime":3.2391234166666676,"instrument":2,"program":24,"isDrum":false},{"pitch":72,"velocity":76,"startTime":3.130428,"endTime":3.2391234166666676,"instrument":2,"program":24,"isDrum":false},{"pitch":62,"velocity":76,"startTime":3.6521660000000002,"endTime":3.7608614166666676,"instrument":2,"program":24,"isDrum":false},{"pitch":66,"velocity":76,"startTime":3.6521660000000002,"endTime":3.7608614166666676,"instrument":2,"program":24,"isDrum":false},{"pitch":69,"velocity":76,"startTime":3.6521660000000002,"endTime":3.7608614166666676,"instrument":2,"program":24,"isDrum":false},{"pitch":72,"velocity":76,"startTime":3.6521660000000002,"endTime":3.7608614166666676,"instrument":2,"program":24,"isDrum":false},{"pitch":62,"velocity":76,"startTime":3.9130350000000007,"endTime":4.266295104166668,"instrument":2,"program":24,"isDrum":false},{"pitch":67,"velocity":76,"startTime":3.9130350000000007,"endTime":4.266295104166668,"instrument":2,"program":24,"isDrum":false},{"pitch":70,"velocity":76,"startTime":3.9130350000000007,"endTime":4.266295104166668,"instrument":2,"program":24,"isDrum":false},{"pitch":62,"velocity":76,"startTime":4.695642,"endTime":4.804337416666668,"instrument":2,"program":24,"isDrum":false},{"pitch":67,"velocity":76,"startTime":4.695642,"endTime":4.804337416666668,"instrument":2,"program":24,"isDrum":false},{"pitch":70,"velocity":76,"startTime":4.695642,"endTime":4.804337416666668,"instrument":2,"program":24,"isDrum":false},{"pitch":62,"velocity":76,"startTime":5.21738,"endTime":5.326075416666668,"instrument":2,"program":24,"isDrum":false},{"pitch":67,"velocity":76,"startTime":5.21738,"endTime":5.326075416666668,"instrument":2,"program":24,"isDrum":false},{"pitch":70,"velocity":76,"startTime":5.21738,"endTime":5.326075416666668,"instrument":2,"program":24,"isDrum":false},{"pitch":62,"velocity":76,"startTime":5.739118,"endTime":5.847813416666668,"instrument":2,"program":24,"isDrum":false},{"pitch":67,"velocity":76,"startTime":5.739118,"endTime":5.847813416666668,"instrument":2,"program":24,"isDrum":false},{"pitch":70,"velocity":76,"startTime":5.739118,"endTime":5.847813416666668,"instrument":2,"program":24,"isDrum":false},{"pitch":62,"velocity":76,"startTime":5.999987000000001,"endTime":6.353247104166666,"instrument":2,"program":24,"isDrum":false},{"pitch":67,"velocity":76,"startTime":5.999987000000001,"endTime":6.353247104166666,"instrument":2,"program":24,"isDrum":false},{"pitch":70,"velocity":76,"startTime":5.999987000000001,"endTime":6.353247104166666,"instrument":2,"program":24,"isDrum":false},{"pitch":62,"velocity":76,"startTime":6.782594,"endTime":6.891289416666666,"instrument":2,"program":24,"isDrum":false},{"pitch":67,"velocity":76,"startTime":6.782594,"endTime":6.891289416666666,"instrument":2,"program":24,"isDrum":false},{"pitch":70,"velocity":76,"startTime":6.782594,"endTime":6.891289416666666,"instrument":2,"program":24,"isDrum":false},{"pitch":62,"velocity":76,"startTime":7.3043320000000005,"endTime":7.413027416666667,"instrument":2,"program":24,"isDrum":false},{"pitch":67,"velocity":76,"startTime":7.3043320000000005,"endTime":7.413027416666667,"instrument":2,"program":24,"isDrum":false},{"pitch":70,"velocity":76,"startTime":7.3043320000000005,"endTime":7.413027416666667,"instrument":2,"program":24,"isDrum":false},{"pitch":62,"velocity":76,"startTime":7.826070000000001,"endTime":7.934765416666666,"instrument":2,"program":24,"isDrum":false},{"pitch":67,"velocity":76,"startTime":7.826070000000001,"endTime":7.934765416666666,"instrument":2,"program":24,"isDrum":false},{"pitch":70,"velocity":76,"startTime":7.826070000000001,"endTime":7.934765416666666,"instrument":2,"program":24,"isDrum":false},{"pitch":62,"velocity":76,"startTime":8.086939000000001,"endTime":8.440199104166666,"instrument":2,"program":24,"isDrum":false},{"pitch":66,"velocity":76,"startTime":8.086939000000001,"endTime":8.440199104166666,"instrument":2,"program":24,"isDrum":false},{"pitch":69,"velocity":76,"startTime":8.086939000000001,"endTime":8.440199104166666,"instrument":2,"program":24,"isDrum":false},{"pitch":72,"velocity":76,"startTime":8.086939000000001,"endTime":8.440199104166666,"instrument":2,"program":24,"isDrum":false},{"pitch":62,"velocity":76,"startTime":8.869546,"endTime":8.978241416666666,"instrument":2,"program":24,"isDrum":false},{"pitch":66,"velocity":76,"startTime":8.869546,"endTime":8.978241416666666,"instrument":2,"program":24,"isDrum":false},{"pitch":69,"velocity":76,"startTime":8.869546,"endTime":8.978241416666666,"instrument":2,"program":24,"isDrum":false},{"pitch":72,"velocity":76,"startTime":8.869546,"endTime":8.978241416666666,"instrument":2,"program":24,"isDrum":false},{"pitch":62,"velocity":76,"startTime":9.391284,"endTime":9.499979416666667,"instrument":2,"program":24,"isDrum":false},{"pitch":66,"velocity":76,"startTime":9.391284,"endTime":9.499979416666667,"instrument":2,"program":24,"isDrum":false},{"pitch":69,"velocity":76,"startTime":9.391284,"endTime":9.499979416666667,"instrument":2,"program":24,"isDrum":false},{"pitch":72,"velocity":76,"startTime":9.391284,"endTime":9.499979416666667,"instrument":2,"program":24,"isDrum":false},{"pitch":62,"velocity":76,"startTime":9.913022000000002,"endTime":10.021717416666666,"instrument":2,"program":24,"isDrum":false},{"pitch":66,"velocity":76,"startTime":9.913022000000002,"endTime":10.021717416666666,"instrument":2,"program":24,"isDrum":false},{"pitch":69,"velocity":76,"startTime":9.913022000000002,"endTime":10.021717416666666,"instrument":2,"program":24,"isDrum":false},{"pitch":72,"velocity":76,"startTime":9.913022000000002,"endTime":10.021717416666666,"instrument":2,"program":24,"isDrum":false},{"pitch":62,"velocity":76,"startTime":10.173891000000001,"endTime":10.527151104166666,"instrument":2,"program":24,"isDrum":false},{"pitch":66,"velocity":76,"startTime":10.173891000000001,"endTime":10.527151104166666,"instrument":2,"program":24,"isDrum":false},{"pitch":69,"velocity":76,"startTime":10.173891000000001,"endTime":10.527151104166666,"instrument":2,"program":24,"isDrum":false},{"pitch":72,"velocity":76,"startTime":10.173891000000001,"endTime":10.527151104166666,"instrument":2,"program":24,"isDrum":false},{"pitch":62,"velocity":76,"startTime":10.956498,"endTime":11.065193416666666,"instrument":2,"program":24,"isDrum":false},{"pitch":66,"velocity":76,"startTime":10.956498,"endTime":11.065193416666666,"instrument":2,"program":24,"isDrum":false},{"pitch":69,"velocity":76,"startTime":10.956498,"endTime":11.065193416666666,"instrument":2,"program":24,"isDrum":false},{"pitch":72,"velocity":76,"startTime":10.956498,"endTime":11.065193416666666,"instrument":2,"program":24,"isDrum":false},{"pitch":62,"velocity":76,"startTime":11.478236,"endTime":11.586931416666667,"instrument":2,"program":24,"isDrum":false},{"pitch":66,"velocity":76,"startTime":11.478236,"endTime":11.586931416666667,"instrument":2,"program":24,"isDrum":false},{"pitch":69,"velocity":76,"startTime":11.478236,"endTime":11.586931416666667,"instrument":2,"program":24,"isDrum":false},{"pitch":72,"velocity":76,"startTime":11.478236,"endTime":11.586931416666667,"instrument":2,"program":24,"isDrum":false},{"pitch":62,"velocity":76,"startTime":11.999974000000002,"endTime":12.108669416666666,"instrument":2,"program":24,"isDrum":false},{"pitch":66,"velocity":76,"startTime":11.999974000000002,"endTime":12.108669416666666,"instrument":2,"program":24,"isDrum":false},{"pitch":69,"velocity":76,"startTime":11.999974000000002,"endTime":12.108669416666666,"instrument":2,"program":24,"isDrum":false},{"pitch":72,"velocity":76,"startTime":11.999974000000002,"endTime":12.108669416666666,"instrument":2,"program":24,"isDrum":false},{"pitch":62,"velocity":76,"startTime":12.260843000000001,"endTime":12.614103104166666,"instrument":2,"program":24,"isDrum":false},{"pitch":67,"velocity":76,"startTime":12.260843000000001,"endTime":12.614103104166666,"instrument":2,"program":24,"isDrum":false},{"pitch":70,"velocity":76,"startTime":12.260843000000001,"endTime":12.614103104166666,"instrument":2,"program":24,"isDrum":false},{"pitch":62,"velocity":76,"startTime":13.04345,"endTime":13.152145416666666,"instrument":2,"program":24,"isDrum":false},{"pitch":67,"velocity":76,"startTime":13.04345,"endTime":13.152145416666666,"instrument":2,"program":24,"isDrum":false},{"pitch":70,"velocity":76,"startTime":13.04345,"endTime":13.152145416666666,"instrument":2,"program":24,"isDrum":false},{"pitch":62,"velocity":76,"startTime":13.565188000000001,"endTime":13.673883416666667,"instrument":2,"program":24,"isDrum":false},{"pitch":67,"velocity":76,"startTime":13.565188000000001,"endTime":13.673883416666667,"instrument":2,"program":24,"isDrum":false},{"pitch":70,"velocity":76,"startTime":13.565188000000001,"endTime":13.673883416666667,"instrument":2,"program":24,"isDrum":false},{"pitch":62,"velocity":76,"startTime":14.086926000000002,"endTime":14.195621416666668,"instrument":2,"program":24,"isDrum":false},{"pitch":67,"velocity":76,"startTime":14.086926000000002,"endTime":14.195621416666668,"instrument":2,"program":24,"isDrum":false},{"pitch":70,"velocity":76,"startTime":14.086926000000002,"endTime":14.195621416666668,"instrument":2,"program":24,"isDrum":false},{"pitch":62,"velocity":76,"startTime":14.347795000000001,"endTime":14.70105510416667,"instrument":2,"program":24,"isDrum":false},{"pitch":67,"velocity":76,"startTime":14.347795000000001,"endTime":14.70105510416667,"instrument":2,"program":24,"isDrum":false},{"pitch":70,"velocity":76,"startTime":14.347795000000001,"endTime":14.70105510416667,"instrument":2,"program":24,"isDrum":false},{"pitch":62,"velocity":76,"startTime":15.130402,"endTime":15.23909741666667,"instrument":2,"program":24,"isDrum":false},{"pitch":67,"velocity":76,"startTime":15.130402,"endTime":15.23909741666667,"instrument":2,"program":24,"isDrum":false},{"pitch":70,"velocity":76,"startTime":15.130402,"endTime":15.23909741666667,"instrument":2,"program":24,"isDrum":false},{"pitch":62,"velocity":76,"startTime":15.65214,"endTime":15.76083541666667,"instrument":2,"program":24,"isDrum":false},{"pitch":67,"velocity":76,"startTime":15.65214,"endTime":15.76083541666667,"instrument":2,"program":24,"isDrum":false},{"pitch":70,"velocity":76,"startTime":15.65214,"endTime":15.76083541666667,"instrument":2,"program":24,"isDrum":false},{"pitch":62,"velocity":76,"startTime":16.173878000000002,"endTime":16.28257341666667,"instrument":2,"program":24,"isDrum":false},{"pitch":67,"velocity":76,"startTime":16.173878000000002,"endTime":16.28257341666667,"instrument":2,"program":24,"isDrum":false},{"pitch":70,"velocity":76,"startTime":16.173878000000002,"endTime":16.28257341666667,"instrument":2,"program":24,"isDrum":false},{"pitch":63,"velocity":76,"startTime":16.434747,"endTime":16.78800710416667,"instrument":2,"program":24,"isDrum":false},{"pitch":67,"velocity":76,"startTime":16.434747,"endTime":16.78800710416667,"instrument":2,"program":24,"isDrum":false},{"pitch":72,"velocity":76,"startTime":16.434747,"endTime":16.78800710416667,"instrument":2,"program":24,"isDrum":false},{"pitch":63,"velocity":76,"startTime":17.217354,"endTime":17.32604941666667,"instrument":2,"program":24,"isDrum":false},{"pitch":67,"velocity":76,"startTime":17.217354,"endTime":17.32604941666667,"instrument":2,"program":24,"isDrum":false},{"pitch":72,"velocity":76,"startTime":17.217354,"endTime":17.32604941666667,"instrument":2,"program":24,"isDrum":false},{"pitch":63,"velocity":76,"startTime":17.739092000000003,"endTime":17.84778741666667,"instrument":2,"program":24,"isDrum":false},{"pitch":67,"velocity":76,"startTime":17.739092000000003,"endTime":17.84778741666667,"instrument":2,"program":24,"isDrum":false},{"pitch":72,"velocity":76,"startTime":17.739092000000003,"endTime":17.84778741666667,"instrument":2,"program":24,"isDrum":false},{"pitch":63,"velocity":76,"startTime":18.260830000000002,"endTime":18.36952541666667,"instrument":2,"program":24,"isDrum":false},{"pitch":67,"velocity":76,"startTime":18.260830000000002,"endTime":18.36952541666667,"instrument":2,"program":24,"isDrum":false},{"pitch":72,"velocity":76,"startTime":18.260830000000002,"endTime":18.36952541666667,"instrument":2,"program":24,"isDrum":false},{"pitch":63,"velocity":76,"startTime":18.521699,"endTime":18.87495910416667,"instrument":2,"program":24,"isDrum":false},{"pitch":67,"velocity":76,"startTime":18.521699,"endTime":18.87495910416667,"instrument":2,"program":24,"isDrum":false},{"pitch":72,"velocity":76,"startTime":18.521699,"endTime":18.87495910416667,"instrument":2,"program":24,"isDrum":false},{"pitch":63,"velocity":76,"startTime":19.304306,"endTime":19.41300141666667,"instrument":2,"program":24,"isDrum":false},{"pitch":67,"velocity":76,"startTime":19.304306,"endTime":19.41300141666667,"instrument":2,"program":24,"isDrum":false},{"pitch":72,"velocity":76,"startTime":19.304306,"endTime":19.41300141666667,"instrument":2,"program":24,"isDrum":false},{"pitch":63,"velocity":76,"startTime":19.826044,"endTime":19.93473941666667,"instrument":2,"program":24,"isDrum":false},{"pitch":67,"velocity":76,"startTime":19.826044,"endTime":19.93473941666667,"instrument":2,"program":24,"isDrum":false},{"pitch":72,"velocity":76,"startTime":19.826044,"endTime":19.93473941666667,"instrument":2,"program":24,"isDrum":false},{"pitch":63,"velocity":76,"startTime":20.347782000000002,"endTime":20.45647741666667,"instrument":2,"program":24,"isDrum":false},{"pitch":67,"velocity":76,"startTime":20.347782000000002,"endTime":20.45647741666667,"instrument":2,"program":24,"isDrum":false},{"pitch":72,"velocity":76,"startTime":20.347782000000002,"endTime":20.45647741666667,"instrument":2,"program":24,"isDrum":false},{"pitch":62,"velocity":76,"startTime":20.608651000000002,"endTime":20.96191110416667,"instrument":2,"program":24,"isDrum":false},{"pitch":67,"velocity":76,"startTime":20.608651000000002,"endTime":20.96191110416667,"instrument":2,"program":24,"isDrum":false},{"pitch":70,"velocity":76,"startTime":20.608651000000002,"endTime":20.96191110416667,"instrument":2,"program":24,"isDrum":false},{"pitch":62,"velocity":76,"startTime":21.391258,"endTime":21.49995341666667,"instrument":2,"program":24,"isDrum":false},{"pitch":67,"velocity":76,"startTime":21.391258,"endTime":21.49995341666667,"instrument":2,"program":24,"isDrum":false},{"pitch":70,"velocity":76,"startTime":21.391258,"endTime":21.49995341666667,"instrument":2,"program":24,"isDrum":false},{"pitch":62,"velocity":76,"startTime":21.912996000000003,"endTime":22.02169141666667,"instrument":2,"program":24,"isDrum":false},{"pitch":67,"velocity":76,"startTime":21.912996000000003,"endTime":22.02169141666667,"instrument":2,"program":24,"isDrum":false},{"pitch":70,"velocity":76,"startTime":21.912996000000003,"endTime":22.02169141666667,"instrument":2,"program":24,"isDrum":false},{"pitch":62,"velocity":76,"startTime":22.434734000000002,"endTime":22.54342941666667,"instrument":2,"program":24,"isDrum":false},{"pitch":67,"velocity":76,"startTime":22.434734000000002,"endTime":22.54342941666667,"instrument":2,"program":24,"isDrum":false},{"pitch":70,"velocity":76,"startTime":22.434734000000002,"endTime":22.54342941666667,"instrument":2,"program":24,"isDrum":false},{"pitch":62,"velocity":76,"startTime":22.695603000000002,"endTime":23.04886310416667,"instrument":2,"program":24,"isDrum":false},{"pitch":67,"velocity":76,"startTime":22.695603000000002,"endTime":23.04886310416667,"instrument":2,"program":24,"isDrum":false},{"pitch":70,"velocity":76,"startTime":22.695603000000002,"endTime":23.04886310416667,"instrument":2,"program":24,"isDrum":false},{"pitch":62,"velocity":76,"startTime":23.47821,"endTime":23.58690541666667,"instrument":2,"program":24,"isDrum":false},{"pitch":67,"velocity":76,"startTime":23.47821,"endTime":23.58690541666667,"instrument":2,"program":24,"isDrum":false},{"pitch":70,"velocity":76,"startTime":23.47821,"endTime":23.58690541666667,"instrument":2,"program":24,"isDrum":false},{"pitch":62,"velocity":76,"startTime":23.999948,"endTime":24.10864341666667,"instrument":2,"program":24,"isDrum":false},{"pitch":67,"velocity":76,"startTime":23.999948,"endTime":24.10864341666667,"instrument":2,"program":24,"isDrum":false},{"pitch":70,"velocity":76,"startTime":23.999948,"endTime":24.10864341666667,"instrument":2,"program":24,"isDrum":false},{"pitch":62,"velocity":76,"startTime":24.521686000000003,"endTime":24.63038141666667,"instrument":2,"program":24,"isDrum":false},{"pitch":67,"velocity":76,"startTime":24.521686000000003,"endTime":24.63038141666667,"instrument":2,"program":24,"isDrum":false},{"pitch":70,"velocity":76,"startTime":24.521686000000003,"endTime":24.63038141666667,"instrument":2,"program":24,"isDrum":false},{"pitch":62,"velocity":76,"startTime":24.782555000000002,"endTime":25.13581510416667,"instrument":2,"program":24,"isDrum":false},{"pitch":66,"velocity":76,"startTime":24.782555000000002,"endTime":25.13581510416667,"instrument":2,"program":24,"isDrum":false},{"pitch":69,"velocity":76,"startTime":24.782555000000002,"endTime":25.13581510416667,"instrument":2,"program":24,"isDrum":false},{"pitch":72,"velocity":76,"startTime":24.782555000000002,"endTime":25.13581510416667,"instrument":2,"program":24,"isDrum":false},{"pitch":62,"velocity":76,"startTime":25.565162,"endTime":25.67385741666667,"instrument":2,"program":24,"isDrum":false},{"pitch":66,"velocity":76,"startTime":25.565162,"endTime":25.67385741666667,"instrument":2,"program":24,"isDrum":false},{"pitch":69,"velocity":76,"startTime":25.565162,"endTime":25.67385741666667,"instrument":2,"program":24,"isDrum":false},{"pitch":72,"velocity":76,"startTime":25.565162,"endTime":25.67385741666667,"instrument":2,"program":24,"isDrum":false},{"pitch":62,"velocity":76,"startTime":26.086900000000004,"endTime":26.19559541666667,"instrument":2,"program":24,"isDrum":false},{"pitch":66,"velocity":76,"startTime":26.086900000000004,"endTime":26.19559541666667,"instrument":2,"program":24,"isDrum":false},{"pitch":69,"velocity":76,"startTime":26.086900000000004,"endTime":26.19559541666667,"instrument":2,"program":24,"isDrum":false},{"pitch":72,"velocity":76,"startTime":26.086900000000004,"endTime":26.19559541666667,"instrument":2,"program":24,"isDrum":false},{"pitch":62,"velocity":76,"startTime":26.608638000000003,"endTime":26.71733341666667,"instrument":2,"program":24,"isDrum":false},{"pitch":66,"velocity":76,"startTime":26.608638000000003,"endTime":26.71733341666667,"instrument":2,"program":24,"isDrum":false},{"pitch":69,"velocity":76,"startTime":26.608638000000003,"endTime":26.71733341666667,"instrument":2,"program":24,"isDrum":false},{"pitch":72,"velocity":76,"startTime":26.608638000000003,"endTime":26.71733341666667,"instrument":2,"program":24,"isDrum":false},{"pitch":62,"velocity":76,"startTime":26.869507000000002,"endTime":27.22276710416667,"instrument":2,"program":24,"isDrum":false},{"pitch":66,"velocity":76,"startTime":26.869507000000002,"endTime":27.22276710416667,"instrument":2,"program":24,"isDrum":false},{"pitch":69,"velocity":76,"startTime":26.869507000000002,"endTime":27.22276710416667,"instrument":2,"program":24,"isDrum":false},{"pitch":72,"velocity":76,"startTime":26.869507000000002,"endTime":27.22276710416667,"instrument":2,"program":24,"isDrum":false},{"pitch":62,"velocity":76,"startTime":27.652114,"endTime":27.76080941666667,"instrument":2,"program":24,"isDrum":false},{"pitch":66,"velocity":76,"startTime":27.652114,"endTime":27.76080941666667,"instrument":2,"program":24,"isDrum":false},{"pitch":69,"velocity":76,"startTime":27.652114,"endTime":27.76080941666667,"instrument":2,"program":24,"isDrum":false},{"pitch":72,"velocity":76,"startTime":27.652114,"endTime":27.76080941666667,"instrument":2,"program":24,"isDrum":false},{"pitch":62,"velocity":76,"startTime":28.173852,"endTime":28.28254741666667,"instrument":2,"program":24,"isDrum":false},{"pitch":66,"velocity":76,"startTime":28.173852,"endTime":28.28254741666667,"instrument":2,"program":24,"isDrum":false},{"pitch":69,"velocity":76,"startTime":28.173852,"endTime":28.28254741666667,"instrument":2,"program":24,"isDrum":false},{"pitch":72,"velocity":76,"startTime":28.173852,"endTime":28.28254741666667,"instrument":2,"program":24,"isDrum":false},{"pitch":62,"velocity":76,"startTime":28.695590000000003,"endTime":28.80428541666667,"instrument":2,"program":24,"isDrum":false},{"pitch":66,"velocity":76,"startTime":28.695590000000003,"endTime":28.80428541666667,"instrument":2,"program":24,"isDrum":false},{"pitch":69,"velocity":76,"startTime":28.695590000000003,"endTime":28.80428541666667,"instrument":2,"program":24,"isDrum":false},{"pitch":72,"velocity":76,"startTime":28.695590000000003,"endTime":28.80428541666667,"instrument":2,"program":24,"isDrum":false},{"pitch":62,"velocity":76,"startTime":28.956459000000002,"endTime":29.30971910416667,"instrument":2,"program":24,"isDrum":false},{"pitch":67,"velocity":76,"startTime":28.956459000000002,"endTime":29.30971910416667,"instrument":2,"program":24,"isDrum":false},{"pitch":70,"velocity":76,"startTime":28.956459000000002,"endTime":29.30971910416667,"instrument":2,"program":24,"isDrum":false},{"pitch":62,"velocity":76,"startTime":31.565149,"endTime":31.918409104166667,"instrument":2,"program":24,"isDrum":false},{"pitch":66,"velocity":76,"startTime":31.826018,"endTime":32.17927810416667,"instrument":2,"program":24,"isDrum":false},{"pitch":69,"velocity":76,"startTime":31.826018,"endTime":32.17927810416667,"instrument":2,"program":24,"isDrum":false},{"pitch":72,"velocity":76,"startTime":31.826018,"endTime":32.17927810416667,"instrument":2,"program":24,"isDrum":false},{"pitch":62,"velocity":76,"startTime":32.347756000000004,"endTime":32.45645141666667,"instrument":2,"program":24,"isDrum":false},{"pitch":67,"velocity":76,"startTime":32.347756000000004,"endTime":32.45645141666667,"instrument":2,"program":24,"isDrum":false},{"pitch":70,"velocity":76,"startTime":32.347756000000004,"endTime":32.45645141666667,"instrument":2,"program":24,"isDrum":false},{"pitch":62,"velocity":76,"startTime":33.391232,"endTime":33.499927416666665,"instrument":2,"program":24,"isDrum":false},{"pitch":66,"velocity":76,"startTime":33.391232,"endTime":33.499927416666665,"instrument":2,"program":24,"isDrum":false},{"pitch":69,"velocity":76,"startTime":33.391232,"endTime":33.499927416666665,"instrument":2,"program":24,"isDrum":false},{"pitch":72,"velocity":76,"startTime":33.391232,"endTime":33.499927416666665,"instrument":2,"program":24,"isDrum":false},{"pitch":62,"velocity":76,"startTime":33.91297,"endTime":34.021665416666664,"instrument":2,"program":24,"isDrum":false},{"pitch":66,"velocity":76,"startTime":33.91297,"endTime":34.021665416666664,"instrument":2,"program":24,"isDrum":false},{"pitch":69,"velocity":76,"startTime":33.91297,"endTime":34.021665416666664,"instrument":2,"program":24,"isDrum":false},{"pitch":72,"velocity":76,"startTime":33.91297,"endTime":34.021665416666664,"instrument":2,"program":24,"isDrum":false},{"pitch":62,"velocity":76,"startTime":34.434708,"endTime":34.54340341666666,"instrument":2,"program":24,"isDrum":false},{"pitch":66,"velocity":76,"startTime":34.434708,"endTime":34.54340341666666,"instrument":2,"program":24,"isDrum":false},{"pitch":69,"velocity":76,"startTime":34.434708,"endTime":34.54340341666666,"instrument":2,"program":24,"isDrum":false},{"pitch":72,"velocity":76,"startTime":34.434708,"endTime":34.54340341666666,"instrument":2,"program":24,"isDrum":false},{"pitch":62,"velocity":76,"startTime":34.956446,"endTime":35.06514141666666,"instrument":2,"program":24,"isDrum":false},{"pitch":66,"velocity":76,"startTime":34.956446,"endTime":35.06514141666666,"instrument":2,"program":24,"isDrum":false},{"pitch":69,"velocity":76,"startTime":34.956446,"endTime":35.06514141666666,"instrument":2,"program":24,"isDrum":false},{"pitch":72,"velocity":76,"startTime":34.956446,"endTime":35.06514141666666,"instrument":2,"program":24,"isDrum":false},{"pitch":62,"velocity":76,"startTime":35.217315,"endTime":35.570575104166664,"instrument":2,"program":24,"isDrum":false},{"pitch":66,"velocity":76,"startTime":35.217315,"endTime":35.570575104166664,"instrument":2,"program":24,"isDrum":false},{"pitch":69,"velocity":76,"startTime":35.217315,"endTime":35.570575104166664,"instrument":2,"program":24,"isDrum":false},{"pitch":72,"velocity":76,"startTime":35.217315,"endTime":35.570575104166664,"instrument":2,"program":24,"isDrum":false},{"pitch":62,"velocity":76,"startTime":35.999922,"endTime":36.10861741666666,"instrument":2,"program":24,"isDrum":false},{"pitch":66,"velocity":76,"startTime":35.999922,"endTime":36.10861741666666,"instrument":2,"program":24,"isDrum":false},{"pitch":69,"velocity":76,"startTime":35.999922,"endTime":36.10861741666666,"instrument":2,"program":24,"isDrum":false},{"pitch":72,"velocity":76,"startTime":35.999922,"endTime":36.10861741666666,"instrument":2,"program":24,"isDrum":false},{"pitch":62,"velocity":76,"startTime":36.52166,"endTime":36.63035541666666,"instrument":2,"program":24,"isDrum":false},{"pitch":66,"velocity":76,"startTime":36.52166,"endTime":36.63035541666666,"instrument":2,"program":24,"isDrum":false},{"pitch":69,"velocity":76,"startTime":36.52166,"endTime":36.63035541666666,"instrument":2,"program":24,"isDrum":false},{"pitch":72,"velocity":76,"startTime":36.52166,"endTime":36.63035541666666,"instrument":2,"program":24,"isDrum":false},{"pitch":62,"velocity":76,"startTime":37.043397999999996,"endTime":37.15209341666667,"instrument":2,"program":24,"isDrum":false},{"pitch":66,"velocity":76,"startTime":37.043397999999996,"endTime":37.15209341666667,"instrument":2,"program":24,"isDrum":false},{"pitch":69,"velocity":76,"startTime":37.043397999999996,"endTime":37.15209341666667,"instrument":2,"program":24,"isDrum":false},{"pitch":72,"velocity":76,"startTime":37.043397999999996,"endTime":37.15209341666667,"instrument":2,"program":24,"isDrum":false},{"pitch":62,"velocity":76,"startTime":37.304266999999996,"endTime":37.65752710416666,"instrument":2,"program":24,"isDrum":false},{"pitch":67,"velocity":76,"startTime":37.304266999999996,"endTime":37.65752710416666,"instrument":2,"program":24,"isDrum":false},{"pitch":70,"velocity":76,"startTime":37.304266999999996,"endTime":37.65752710416666,"instrument":2,"program":24,"isDrum":false},{"pitch":62,"velocity":76,"startTime":38.08687400000001,"endTime":38.19556941666667,"instrument":2,"program":24,"isDrum":false},{"pitch":67,"velocity":76,"startTime":38.08687400000001,"endTime":38.19556941666667,"instrument":2,"program":24,"isDrum":false},{"pitch":70,"velocity":76,"startTime":38.08687400000001,"endTime":38.19556941666667,"instrument":2,"program":24,"isDrum":false},{"pitch":62,"velocity":76,"startTime":38.60861200000001,"endTime":38.71730741666667,"instrument":2,"program":24,"isDrum":false},{"pitch":67,"velocity":76,"startTime":38.60861200000001,"endTime":38.71730741666667,"instrument":2,"program":24,"isDrum":false},{"pitch":70,"velocity":76,"startTime":38.60861200000001,"endTime":38.71730741666667,"instrument":2,"program":24,"isDrum":false},{"pitch":62,"velocity":76,"startTime":39.13035000000001,"endTime":39.23904541666667,"instrument":2,"program":24,"isDrum":false},{"pitch":67,"velocity":76,"startTime":39.13035000000001,"endTime":39.23904541666667,"instrument":2,"program":24,"isDrum":false},{"pitch":70,"velocity":76,"startTime":39.13035000000001,"endTime":39.23904541666667,"instrument":2,"program":24,"isDrum":false},{"pitch":62,"velocity":76,"startTime":39.39121900000001,"endTime":39.74447910416667,"instrument":2,"program":24,"isDrum":false},{"pitch":67,"velocity":76,"startTime":39.39121900000001,"endTime":39.74447910416667,"instrument":2,"program":24,"isDrum":false},{"pitch":70,"velocity":76,"startTime":39.39121900000001,"endTime":39.74447910416667,"instrument":2,"program":24,"isDrum":false},{"pitch":62,"velocity":76,"startTime":40.173826000000005,"endTime":40.28252141666667,"instrument":2,"program":24,"isDrum":false},{"pitch":67,"velocity":76,"startTime":40.173826000000005,"endTime":40.28252141666667,"instrument":2,"program":24,"isDrum":false},{"pitch":70,"velocity":76,"startTime":40.173826000000005,"endTime":40.28252141666667,"instrument":2,"program":24,"isDrum":false},{"pitch":62,"velocity":76,"startTime":40.695564000000005,"endTime":40.80425941666667,"instrument":2,"program":24,"isDrum":false},{"pitch":67,"velocity":76,"startTime":40.695564000000005,"endTime":40.80425941666667,"instrument":2,"program":24,"isDrum":false},{"pitch":70,"velocity":76,"startTime":40.695564000000005,"endTime":40.80425941666667,"instrument":2,"program":24,"isDrum":false},{"pitch":62,"velocity":76,"startTime":41.217302000000004,"endTime":41.32599741666667,"instrument":2,"program":24,"isDrum":false},{"pitch":67,"velocity":76,"startTime":41.217302000000004,"endTime":41.32599741666667,"instrument":2,"program":24,"isDrum":false},{"pitch":70,"velocity":76,"startTime":41.217302000000004,"endTime":41.32599741666667,"instrument":2,"program":24,"isDrum":false},{"pitch":62,"velocity":76,"startTime":41.478171,"endTime":41.83143110416667,"instrument":2,"program":24,"isDrum":false},{"pitch":66,"velocity":76,"startTime":41.478171,"endTime":41.83143110416667,"instrument":2,"program":24,"isDrum":false},{"pitch":69,"velocity":76,"startTime":41.478171,"endTime":41.83143110416667,"instrument":2,"program":24,"isDrum":false},{"pitch":72,"velocity":76,"startTime":41.478171,"endTime":41.83143110416667,"instrument":2,"program":24,"isDrum":false},{"pitch":62,"velocity":76,"startTime":42.260778,"endTime":42.369473416666665,"instrument":2,"program":24,"isDrum":false},{"pitch":66,"velocity":76,"startTime":42.260778,"endTime":42.369473416666665,"instrument":2,"program":24,"isDrum":false},{"pitch":69,"velocity":76,"startTime":42.260778,"endTime":42.369473416666665,"instrument":2,"program":24,"isDrum":false},{"pitch":72,"velocity":76,"startTime":42.260778,"endTime":42.369473416666665,"instrument":2,"program":24,"isDrum":false},{"pitch":62,"velocity":76,"startTime":42.782516,"endTime":42.891211416666664,"instrument":2,"program":24,"isDrum":false},{"pitch":66,"velocity":76,"startTime":42.782516,"endTime":42.891211416666664,"instrument":2,"program":24,"isDrum":false},{"pitch":69,"velocity":76,"startTime":42.782516,"endTime":42.891211416666664,"instrument":2,"program":24,"isDrum":false},{"pitch":72,"velocity":76,"startTime":42.782516,"endTime":42.891211416666664,"instrument":2,"program":24,"isDrum":false},{"pitch":62,"velocity":76,"startTime":43.304254,"endTime":43.41294941666666,"instrument":2,"program":24,"isDrum":false},{"pitch":66,"velocity":76,"startTime":43.304254,"endTime":43.41294941666666,"instrument":2,"program":24,"isDrum":false},{"pitch":69,"velocity":76,"startTime":43.304254,"endTime":43.41294941666666,"instrument":2,"program":24,"isDrum":false},{"pitch":72,"velocity":76,"startTime":43.304254,"endTime":43.41294941666666,"instrument":2,"program":24,"isDrum":false},{"pitch":62,"velocity":76,"startTime":43.565123,"endTime":43.918383104166665,"instrument":2,"program":24,"isDrum":false},{"pitch":66,"velocity":76,"startTime":43.565123,"endTime":43.918383104166665,"instrument":2,"program":24,"isDrum":false},{"pitch":69,"velocity":76,"startTime":43.565123,"endTime":43.918383104166665,"instrument":2,"program":24,"isDrum":false},{"pitch":72,"velocity":76,"startTime":43.565123,"endTime":43.918383104166665,"instrument":2,"program":24,"isDrum":false},{"pitch":62,"velocity":76,"startTime":44.34773,"endTime":44.45642541666666,"instrument":2,"program":24,"isDrum":false},{"pitch":66,"velocity":76,"startTime":44.34773,"endTime":44.45642541666666,"instrument":2,"program":24,"isDrum":false},{"pitch":69,"velocity":76,"startTime":44.34773,"endTime":44.45642541666666,"instrument":2,"program":24,"isDrum":false},{"pitch":72,"velocity":76,"startTime":44.34773,"endTime":44.45642541666666,"instrument":2,"program":24,"isDrum":false},{"pitch":62,"velocity":76,"startTime":44.869468,"endTime":44.97816341666666,"instrument":2,"program":24,"isDrum":false},{"pitch":66,"velocity":76,"startTime":44.869468,"endTime":44.97816341666666,"instrument":2,"program":24,"isDrum":false},{"pitch":69,"velocity":76,"startTime":44.869468,"endTime":44.97816341666666,"instrument":2,"program":24,"isDrum":false},{"pitch":72,"velocity":76,"startTime":44.869468,"endTime":44.97816341666666,"instrument":2,"program":24,"isDrum":false},{"pitch":62,"velocity":76,"startTime":45.391206,"endTime":45.499901416666674,"instrument":2,"program":24,"isDrum":false},{"pitch":66,"velocity":76,"startTime":45.391206,"endTime":45.499901416666674,"instrument":2,"program":24,"isDrum":false},{"pitch":69,"velocity":76,"startTime":45.391206,"endTime":45.499901416666674,"instrument":2,"program":24,"isDrum":false},{"pitch":72,"velocity":76,"startTime":45.391206,"endTime":45.499901416666674,"instrument":2,"program":24,"isDrum":false},{"pitch":62,"velocity":76,"startTime":45.652074999999996,"endTime":46.00533510416666,"instrument":2,"program":24,"isDrum":false},{"pitch":67,"velocity":76,"startTime":45.652074999999996,"endTime":46.00533510416666,"instrument":2,"program":24,"isDrum":false},{"pitch":70,"velocity":76,"startTime":45.652074999999996,"endTime":46.00533510416666,"instrument":2,"program":24,"isDrum":false},{"pitch":62,"velocity":76,"startTime":46.43468200000001,"endTime":46.54337741666667,"instrument":2,"program":24,"isDrum":false},{"pitch":67,"velocity":76,"startTime":46.43468200000001,"endTime":46.54337741666667,"instrument":2,"program":24,"isDrum":false},{"pitch":70,"velocity":76,"startTime":46.43468200000001,"endTime":46.54337741666667,"instrument":2,"program":24,"isDrum":false},{"pitch":62,"velocity":76,"startTime":46.95642000000001,"endTime":47.06511541666667,"instrument":2,"program":24,"isDrum":false},{"pitch":67,"velocity":76,"startTime":46.95642000000001,"endTime":47.06511541666667,"instrument":2,"program":24,"isDrum":false},{"pitch":70,"velocity":76,"startTime":46.95642000000001,"endTime":47.06511541666667,"instrument":2,"program":24,"isDrum":false},{"pitch":62,"velocity":76,"startTime":47.47815800000001,"endTime":47.58685341666667,"instrument":2,"program":24,"isDrum":false},{"pitch":67,"velocity":76,"startTime":47.47815800000001,"endTime":47.58685341666667,"instrument":2,"program":24,"isDrum":false},{"pitch":70,"velocity":76,"startTime":47.47815800000001,"endTime":47.58685341666667,"instrument":2,"program":24,"isDrum":false},{"pitch":62,"velocity":76,"startTime":47.73902700000001,"endTime":48.09228710416667,"instrument":2,"program":24,"isDrum":false},{"pitch":67,"velocity":76,"startTime":47.73902700000001,"endTime":48.09228710416667,"instrument":2,"program":24,"isDrum":false},{"pitch":70,"velocity":76,"startTime":47.73902700000001,"endTime":48.09228710416667,"instrument":2,"program":24,"isDrum":false},{"pitch":62,"velocity":76,"startTime":48.521634000000006,"endTime":48.63032941666667,"instrument":2,"program":24,"isDrum":false},{"pitch":67,"velocity":76,"startTime":48.521634000000006,"endTime":48.63032941666667,"instrument":2,"program":24,"isDrum":false},{"pitch":70,"velocity":76,"startTime":48.521634000000006,"endTime":48.63032941666667,"instrument":2,"program":24,"isDrum":false},{"pitch":62,"velocity":76,"startTime":49.043372000000005,"endTime":49.15206741666667,"instrument":2,"program":24,"isDrum":false},{"pitch":67,"velocity":76,"startTime":49.043372000000005,"endTime":49.15206741666667,"instrument":2,"program":24,"isDrum":false},{"pitch":70,"velocity":76,"startTime":49.043372000000005,"endTime":49.15206741666667,"instrument":2,"program":24,"isDrum":false},{"pitch":62,"velocity":76,"startTime":49.565110000000004,"endTime":49.67380541666667,"instrument":2,"program":24,"isDrum":false},{"pitch":67,"velocity":76,"startTime":49.565110000000004,"endTime":49.67380541666667,"instrument":2,"program":24,"isDrum":false},{"pitch":70,"velocity":76,"startTime":49.565110000000004,"endTime":49.67380541666667,"instrument":2,"program":24,"isDrum":false},{"pitch":63,"velocity":76,"startTime":49.825979000000004,"endTime":50.17923910416667,"instrument":2,"program":24,"isDrum":false},{"pitch":67,"velocity":76,"startTime":49.825979000000004,"endTime":50.17923910416667,"instrument":2,"program":24,"isDrum":false},{"pitch":72,"velocity":76,"startTime":49.825979000000004,"endTime":50.17923910416667,"instrument":2,"program":24,"isDrum":false},{"pitch":63,"velocity":76,"startTime":50.608586,"endTime":50.717281416666665,"instrument":2,"program":24,"isDrum":false},{"pitch":67,"velocity":76,"startTime":50.608586,"endTime":50.717281416666665,"instrument":2,"program":24,"isDrum":false},{"pitch":72,"velocity":76,"startTime":50.608586,"endTime":50.717281416666665,"instrument":2,"program":24,"isDrum":false},{"pitch":63,"velocity":76,"startTime":51.130324,"endTime":51.239019416666665,"instrument":2,"program":24,"isDrum":false},{"pitch":67,"velocity":76,"startTime":51.130324,"endTime":51.239019416666665,"instrument":2,"program":24,"isDrum":false},{"pitch":72,"velocity":76,"startTime":51.130324,"endTime":51.239019416666665,"instrument":2,"program":24,"isDrum":false},{"pitch":63,"velocity":76,"startTime":51.652062,"endTime":51.760757416666664,"instrument":2,"program":24,"isDrum":false},{"pitch":67,"velocity":76,"startTime":51.652062,"endTime":51.760757416666664,"instrument":2,"program":24,"isDrum":false},{"pitch":72,"velocity":76,"startTime":51.652062,"endTime":51.760757416666664,"instrument":2,"program":24,"isDrum":false},{"pitch":63,"velocity":76,"startTime":51.912931,"endTime":52.266191104166666,"instrument":2,"program":24,"isDrum":false},{"pitch":67,"velocity":76,"startTime":51.912931,"endTime":52.266191104166666,"instrument":2,"program":24,"isDrum":false},{"pitch":72,"velocity":76,"startTime":51.912931,"endTime":52.266191104166666,"instrument":2,"program":24,"isDrum":false},{"pitch":63,"velocity":76,"startTime":52.695538,"endTime":52.80423341666666,"instrument":2,"program":24,"isDrum":false},{"pitch":67,"velocity":76,"startTime":52.695538,"endTime":52.80423341666666,"instrument":2,"program":24,"isDrum":false},{"pitch":72,"velocity":76,"startTime":52.695538,"endTime":52.80423341666666,"instrument":2,"program":24,"isDrum":false},{"pitch":63,"velocity":76,"startTime":53.217276,"endTime":53.32597141666666,"instrument":2,"program":24,"isDrum":false},{"pitch":67,"velocity":76,"startTime":53.217276,"endTime":53.32597141666666,"instrument":2,"program":24,"isDrum":false},{"pitch":72,"velocity":76,"startTime":53.217276,"endTime":53.32597141666666,"instrument":2,"program":24,"isDrum":false},{"pitch":63,"velocity":76,"startTime":53.739014,"endTime":53.847709416666675,"instrument":2,"program":24,"isDrum":false},{"pitch":67,"velocity":76,"startTime":53.739014,"endTime":53.847709416666675,"instrument":2,"program":24,"isDrum":false},{"pitch":72,"velocity":76,"startTime":53.739014,"endTime":53.847709416666675,"instrument":2,"program":24,"isDrum":false},{"pitch":62,"velocity":76,"startTime":53.999883,"endTime":54.35314310416666,"instrument":2,"program":24,"isDrum":false},{"pitch":67,"velocity":76,"startTime":53.999883,"endTime":54.35314310416666,"instrument":2,"program":24,"isDrum":false},{"pitch":70,"velocity":76,"startTime":53.999883,"endTime":54.35314310416666,"instrument":2,"program":24,"isDrum":false},{"pitch":62,"velocity":76,"startTime":54.78249000000001,"endTime":54.89118541666667,"instrument":2,"program":24,"isDrum":false},{"pitch":67,"velocity":76,"startTime":54.78249000000001,"endTime":54.89118541666667,"instrument":2,"program":24,"isDrum":false},{"pitch":70,"velocity":76,"startTime":54.78249000000001,"endTime":54.89118541666667,"instrument":2,"program":24,"isDrum":false},{"pitch":62,"velocity":76,"startTime":55.30422800000001,"endTime":55.41292341666667,"instrument":2,"program":24,"isDrum":false},{"pitch":67,"velocity":76,"startTime":55.30422800000001,"endTime":55.41292341666667,"instrument":2,"program":24,"isDrum":false},{"pitch":70,"velocity":76,"startTime":55.30422800000001,"endTime":55.41292341666667,"instrument":2,"program":24,"isDrum":false},{"pitch":62,"velocity":76,"startTime":55.82596600000001,"endTime":55.93466141666667,"instrument":2,"program":24,"isDrum":false},{"pitch":67,"velocity":76,"startTime":55.82596600000001,"endTime":55.93466141666667,"instrument":2,"program":24,"isDrum":false},{"pitch":70,"velocity":76,"startTime":55.82596600000001,"endTime":55.93466141666667,"instrument":2,"program":24,"isDrum":false},{"pitch":62,"velocity":76,"startTime":56.08683500000001,"endTime":56.44009510416667,"instrument":2,"program":24,"isDrum":false},{"pitch":67,"velocity":76,"startTime":56.08683500000001,"endTime":56.44009510416667,"instrument":2,"program":24,"isDrum":false},{"pitch":70,"velocity":76,"startTime":56.08683500000001,"endTime":56.44009510416667,"instrument":2,"program":24,"isDrum":false},{"pitch":62,"velocity":76,"startTime":56.86944200000001,"endTime":56.97813741666667,"instrument":2,"program":24,"isDrum":false},{"pitch":67,"velocity":76,"startTime":56.86944200000001,"endTime":56.97813741666667,"instrument":2,"program":24,"isDrum":false},{"pitch":70,"velocity":76,"startTime":56.86944200000001,"endTime":56.97813741666667,"instrument":2,"program":24,"isDrum":false},{"pitch":62,"velocity":76,"startTime":57.391180000000006,"endTime":57.49987541666667,"instrument":2,"program":24,"isDrum":false},{"pitch":67,"velocity":76,"startTime":57.391180000000006,"endTime":57.49987541666667,"instrument":2,"program":24,"isDrum":false},{"pitch":70,"velocity":76,"startTime":57.391180000000006,"endTime":57.49987541666667,"instrument":2,"program":24,"isDrum":false},{"pitch":62,"velocity":76,"startTime":57.912918000000005,"endTime":58.02161341666667,"instrument":2,"program":24,"isDrum":false},{"pitch":67,"velocity":76,"startTime":57.912918000000005,"endTime":58.02161341666667,"instrument":2,"program":24,"isDrum":false},{"pitch":70,"velocity":76,"startTime":57.912918000000005,"endTime":58.02161341666667,"instrument":2,"program":24,"isDrum":false},{"pitch":62,"velocity":76,"startTime":58.173787000000004,"endTime":58.52704710416667,"instrument":2,"program":24,"isDrum":false},{"pitch":66,"velocity":76,"startTime":58.173787000000004,"endTime":58.52704710416667,"instrument":2,"program":24,"isDrum":false},{"pitch":69,"velocity":76,"startTime":58.173787000000004,"endTime":58.52704710416667,"instrument":2,"program":24,"isDrum":false},{"pitch":72,"velocity":76,"startTime":58.173787000000004,"endTime":58.52704710416667,"instrument":2,"program":24,"isDrum":false},{"pitch":62,"velocity":76,"startTime":58.956394,"endTime":59.065089416666666,"instrument":2,"program":24,"isDrum":false},{"pitch":66,"velocity":76,"startTime":58.956394,"endTime":59.065089416666666,"instrument":2,"program":24,"isDrum":false},{"pitch":69,"velocity":76,"startTime":58.956394,"endTime":59.065089416666666,"instrument":2,"program":24,"isDrum":false},{"pitch":72,"velocity":76,"startTime":58.956394,"endTime":59.065089416666666,"instrument":2,"program":24,"isDrum":false},{"pitch":62,"velocity":76,"startTime":59.478132,"endTime":59.586827416666665,"instrument":2,"program":24,"isDrum":false},{"pitch":66,"velocity":76,"startTime":59.478132,"endTime":59.586827416666665,"instrument":2,"program":24,"isDrum":false},{"pitch":69,"velocity":76,"startTime":59.478132,"endTime":59.586827416666665,"instrument":2,"program":24,"isDrum":false},{"pitch":72,"velocity":76,"startTime":59.478132,"endTime":59.586827416666665,"instrument":2,"program":24,"isDrum":false},{"pitch":62,"velocity":76,"startTime":59.99987,"endTime":60.108565416666664,"instrument":2,"program":24,"isDrum":false},{"pitch":66,"velocity":76,"startTime":59.99987,"endTime":60.108565416666664,"instrument":2,"program":24,"isDrum":false},{"pitch":69,"velocity":76,"startTime":59.99987,"endTime":60.108565416666664,"instrument":2,"program":24,"isDrum":false},{"pitch":72,"velocity":76,"startTime":59.99987,"endTime":60.108565416666664,"instrument":2,"program":24,"isDrum":false},{"pitch":62,"velocity":76,"startTime":60.260739,"endTime":60.613999104166666,"instrument":2,"program":24,"isDrum":false},{"pitch":66,"velocity":76,"startTime":60.260739,"endTime":60.613999104166666,"instrument":2,"program":24,"isDrum":false},{"pitch":69,"velocity":76,"startTime":60.260739,"endTime":60.613999104166666,"instrument":2,"program":24,"isDrum":false},{"pitch":72,"velocity":76,"startTime":60.260739,"endTime":60.613999104166666,"instrument":2,"program":24,"isDrum":false},{"pitch":62,"velocity":76,"startTime":61.043346,"endTime":61.15204141666666,"instrument":2,"program":24,"isDrum":false},{"pitch":66,"velocity":76,"startTime":61.043346,"endTime":61.15204141666666,"instrument":2,"program":24,"isDrum":false},{"pitch":69,"velocity":76,"startTime":61.043346,"endTime":61.15204141666666,"instrument":2,"program":24,"isDrum":false},{"pitch":72,"velocity":76,"startTime":61.043346,"endTime":61.15204141666666,"instrument":2,"program":24,"isDrum":false},{"pitch":62,"velocity":76,"startTime":61.565084,"endTime":61.67377941666666,"instrument":2,"program":24,"isDrum":false},{"pitch":66,"velocity":76,"startTime":61.565084,"endTime":61.67377941666666,"instrument":2,"program":24,"isDrum":false},{"pitch":69,"velocity":76,"startTime":61.565084,"endTime":61.67377941666666,"instrument":2,"program":24,"isDrum":false},{"pitch":72,"velocity":76,"startTime":61.565084,"endTime":61.67377941666666,"instrument":2,"program":24,"isDrum":false},{"pitch":62,"velocity":76,"startTime":62.08682200000001,"endTime":62.195517416666675,"instrument":2,"program":24,"isDrum":false},{"pitch":66,"velocity":76,"startTime":62.08682200000001,"endTime":62.195517416666675,"instrument":2,"program":24,"isDrum":false},{"pitch":69,"velocity":76,"startTime":62.08682200000001,"endTime":62.195517416666675,"instrument":2,"program":24,"isDrum":false},{"pitch":72,"velocity":76,"startTime":62.08682200000001,"endTime":62.195517416666675,"instrument":2,"program":24,"isDrum":false},{"pitch":62,"velocity":76,"startTime":62.34769100000001,"endTime":62.70095110416668,"instrument":2,"program":24,"isDrum":false},{"pitch":67,"velocity":76,"startTime":62.34769100000001,"endTime":62.70095110416668,"instrument":2,"program":24,"isDrum":false},{"pitch":70,"velocity":76,"startTime":62.34769100000001,"endTime":62.70095110416668,"instrument":2,"program":24,"isDrum":false},{"pitch":62,"velocity":76,"startTime":64.95638100000001,"endTime":65.59768395833333,"instrument":2,"program":24,"isDrum":false},{"pitch":66,"velocity":76,"startTime":65.21725,"endTime":65.57051010416669,"instrument":2,"program":24,"isDrum":false},{"pitch":69,"velocity":76,"startTime":65.21725,"endTime":65.57051010416669,"instrument":2,"program":24,"isDrum":false},{"pitch":72,"velocity":76,"startTime":65.21725,"endTime":65.57051010416669,"instrument":2,"program":24,"isDrum":false},{"pitch":62,"velocity":76,"startTime":65.738988,"endTime":65.84768341666668,"instrument":2,"program":24,"isDrum":false},{"pitch":67,"velocity":76,"startTime":65.738988,"endTime":65.84768341666668,"instrument":2,"program":24,"isDrum":false},{"pitch":70,"velocity":76,"startTime":65.738988,"endTime":65.84768341666668,"instrument":2,"program":24,"isDrum":false},{"pitch":67,"velocity":76,"startTime":66.782464,"endTime":67.57594054166668,"instrument":2,"program":24,"isDrum":false},{"pitch":65,"velocity":76,"startTime":67.82594,"endTime":68.59767745833334,"instrument":2,"program":24,"isDrum":false},{"pitch":64,"velocity":76,"startTime":68.869416,"endTime":69.64115345833333,"instrument":2,"program":24,"isDrum":false},{"pitch":63,"velocity":76,"startTime":69.91289200000001,"endTime":70.26615210416668,"instrument":2,"program":24,"isDrum":false},{"pitch":62,"velocity":76,"startTime":70.43463000000001,"endTime":70.78789010416668,"instrument":2,"program":24,"isDrum":false},{"pitch":67,"velocity":76,"startTime":70.95636800000001,"endTime":71.06506341666667,"instrument":2,"program":24,"isDrum":false},{"pitch":62,"velocity":76,"startTime":73.04332000000001,"endTime":73.15201541666669,"instrument":2,"program":24,"isDrum":false},{"pitch":66,"velocity":76,"startTime":73.04332000000001,"endTime":73.15201541666669,"instrument":2,"program":24,"isDrum":false},{"pitch":69,"velocity":76,"startTime":73.04332000000001,"endTime":73.15201541666669,"instrument":2,"program":24,"isDrum":false},{"pitch":72,"velocity":76,"startTime":73.04332000000001,"endTime":73.15201541666669,"instrument":2,"program":24,"isDrum":false},{"pitch":62,"velocity":76,"startTime":73.56505800000001,"endTime":73.67375341666668,"instrument":2,"program":24,"isDrum":false},{"pitch":66,"velocity":76,"startTime":73.56505800000001,"endTime":73.67375341666668,"instrument":2,"program":24,"isDrum":false},{"pitch":69,"velocity":76,"startTime":73.56505800000001,"endTime":73.67375341666668,"instrument":2,"program":24,"isDrum":false},{"pitch":72,"velocity":76,"startTime":73.56505800000001,"endTime":73.67375341666668,"instrument":2,"program":24,"isDrum":false},{"pitch":62,"velocity":76,"startTime":74.086796,"endTime":74.19549141666668,"instrument":2,"program":24,"isDrum":false},{"pitch":66,"velocity":76,"startTime":74.086796,"endTime":74.19549141666668,"instrument":2,"program":24,"isDrum":false},{"pitch":69,"velocity":76,"startTime":74.086796,"endTime":74.19549141666668,"instrument":2,"program":24,"isDrum":false},{"pitch":72,"velocity":76,"startTime":74.086796,"endTime":74.19549141666668,"instrument":2,"program":24,"isDrum":false},{"pitch":62,"velocity":76,"startTime":74.608534,"endTime":74.71722941666668,"instrument":2,"program":24,"isDrum":false},{"pitch":66,"velocity":76,"startTime":74.608534,"endTime":74.71722941666668,"instrument":2,"program":24,"isDrum":false},{"pitch":69,"velocity":76,"startTime":74.608534,"endTime":74.71722941666668,"instrument":2,"program":24,"isDrum":false},{"pitch":72,"velocity":76,"startTime":74.608534,"endTime":74.71722941666668,"instrument":2,"program":24,"isDrum":false},{"pitch":62,"velocity":76,"startTime":74.869403,"endTime":75.22266310416668,"instrument":2,"program":24,"isDrum":false},{"pitch":66,"velocity":76,"startTime":74.869403,"endTime":75.22266310416668,"instrument":2,"program":24,"isDrum":false},{"pitch":69,"velocity":76,"startTime":74.869403,"endTime":75.22266310416668,"instrument":2,"program":24,"isDrum":false},{"pitch":72,"velocity":76,"startTime":74.869403,"endTime":75.22266310416668,"instrument":2,"program":24,"isDrum":false},{"pitch":62,"velocity":76,"startTime":75.65201,"endTime":75.76070541666668,"instrument":2,"program":24,"isDrum":false},{"pitch":66,"velocity":76,"startTime":75.65201,"endTime":75.76070541666668,"instrument":2,"program":24,"isDrum":false},{"pitch":69,"velocity":76,"startTime":75.65201,"endTime":75.76070541666668,"instrument":2,"program":24,"isDrum":false},{"pitch":72,"velocity":76,"startTime":75.65201,"endTime":75.76070541666668,"instrument":2,"program":24,"isDrum":false},{"pitch":62,"velocity":76,"startTime":76.173748,"endTime":76.28244341666668,"instrument":2,"program":24,"isDrum":false},{"pitch":66,"velocity":76,"startTime":76.173748,"endTime":76.28244341666668,"instrument":2,"program":24,"isDrum":false},{"pitch":69,"velocity":76,"startTime":76.173748,"endTime":76.28244341666668,"instrument":2,"program":24,"isDrum":false},{"pitch":72,"velocity":76,"startTime":76.173748,"endTime":76.28244341666668,"instrument":2,"program":24,"isDrum":false},{"pitch":62,"velocity":76,"startTime":76.695486,"endTime":76.80418141666668,"instrument":2,"program":24,"isDrum":false},{"pitch":66,"velocity":76,"startTime":76.695486,"endTime":76.80418141666668,"instrument":2,"program":24,"isDrum":false},{"pitch":69,"velocity":76,"startTime":76.695486,"endTime":76.80418141666668,"instrument":2,"program":24,"isDrum":false},{"pitch":72,"velocity":76,"startTime":76.695486,"endTime":76.80418141666668,"instrument":2,"program":24,"isDrum":false},{"pitch":62,"velocity":76,"startTime":76.956355,"endTime":77.30961510416668,"instrument":2,"program":24,"isDrum":false},{"pitch":66,"velocity":76,"startTime":76.956355,"endTime":77.30961510416668,"instrument":2,"program":24,"isDrum":false},{"pitch":69,"velocity":76,"startTime":76.956355,"endTime":77.30961510416668,"instrument":2,"program":24,"isDrum":false},{"pitch":72,"velocity":76,"startTime":76.956355,"endTime":77.30961510416668,"instrument":2,"program":24,"isDrum":false},{"pitch":62,"velocity":76,"startTime":77.73896200000001,"endTime":77.84765741666668,"instrument":2,"program":24,"isDrum":false},{"pitch":66,"velocity":76,"startTime":77.73896200000001,"endTime":77.84765741666668,"instrument":2,"program":24,"isDrum":false},{"pitch":69,"velocity":76,"startTime":77.73896200000001,"endTime":77.84765741666668,"instrument":2,"program":24,"isDrum":false},{"pitch":72,"velocity":76,"startTime":77.73896200000001,"endTime":77.84765741666668,"instrument":2,"program":24,"isDrum":false},{"pitch":62,"velocity":76,"startTime":78.26070000000001,"endTime":78.36939541666668,"instrument":2,"program":24,"isDrum":false},{"pitch":66,"velocity":76,"startTime":78.26070000000001,"endTime":78.36939541666668,"instrument":2,"program":24,"isDrum":false},{"pitch":69,"velocity":76,"startTime":78.26070000000001,"endTime":78.36939541666668,"instrument":2,"program":24,"isDrum":false},{"pitch":72,"velocity":76,"startTime":78.26070000000001,"endTime":78.36939541666668,"instrument":2,"program":24,"isDrum":false},{"pitch":62,"velocity":76,"startTime":78.78243800000001,"endTime":78.89113341666668,"instrument":2,"program":24,"isDrum":false},{"pitch":66,"velocity":76,"startTime":78.78243800000001,"endTime":78.89113341666668,"instrument":2,"program":24,"isDrum":false},{"pitch":69,"velocity":76,"startTime":78.78243800000001,"endTime":78.89113341666668,"instrument":2,"program":24,"isDrum":false},{"pitch":72,"velocity":76,"startTime":78.78243800000001,"endTime":78.89113341666668,"instrument":2,"program":24,"isDrum":false},{"pitch":62,"velocity":76,"startTime":79.04330700000001,"endTime":79.39656710416668,"instrument":2,"program":24,"isDrum":false},{"pitch":66,"velocity":76,"startTime":79.04330700000001,"endTime":79.39656710416668,"instrument":2,"program":24,"isDrum":false},{"pitch":69,"velocity":76,"startTime":79.04330700000001,"endTime":79.39656710416668,"instrument":2,"program":24,"isDrum":false},{"pitch":72,"velocity":76,"startTime":79.04330700000001,"endTime":79.39656710416668,"instrument":2,"program":24,"isDrum":false},{"pitch":62,"velocity":76,"startTime":79.82591400000001,"endTime":79.93460941666667,"instrument":2,"program":24,"isDrum":false},{"pitch":66,"velocity":76,"startTime":79.82591400000001,"endTime":79.93460941666667,"instrument":2,"program":24,"isDrum":false},{"pitch":69,"velocity":76,"startTime":79.82591400000001,"endTime":79.93460941666667,"instrument":2,"program":24,"isDrum":false},{"pitch":72,"velocity":76,"startTime":79.82591400000001,"endTime":79.93460941666667,"instrument":2,"program":24,"isDrum":false},{"pitch":62,"velocity":76,"startTime":80.34765200000001,"endTime":80.45634741666667,"instrument":2,"program":24,"isDrum":false},{"pitch":66,"velocity":76,"startTime":80.34765200000001,"endTime":80.45634741666667,"instrument":2,"program":24,"isDrum":false},{"pitch":69,"velocity":76,"startTime":80.34765200000001,"endTime":80.45634741666667,"instrument":2,"program":24,"isDrum":false},{"pitch":72,"velocity":76,"startTime":80.34765200000001,"endTime":80.45634741666667,"instrument":2,"program":24,"isDrum":false},{"pitch":62,"velocity":76,"startTime":80.86939000000001,"endTime":80.97808541666669,"instrument":2,"program":24,"isDrum":false},{"pitch":66,"velocity":76,"startTime":80.86939000000001,"endTime":80.97808541666669,"instrument":2,"program":24,"isDrum":false},{"pitch":69,"velocity":76,"startTime":80.86939000000001,"endTime":80.97808541666669,"instrument":2,"program":24,"isDrum":false},{"pitch":72,"velocity":76,"startTime":80.86939000000001,"endTime":80.97808541666669,"instrument":2,"program":24,"isDrum":false},{"pitch":62,"velocity":76,"startTime":81.13025900000001,"endTime":81.48351910416667,"instrument":2,"program":24,"isDrum":false},{"pitch":67,"velocity":76,"startTime":81.13025900000001,"endTime":81.48351910416667,"instrument":2,"program":24,"isDrum":false},{"pitch":70,"velocity":76,"startTime":81.13025900000001,"endTime":81.48351910416667,"instrument":2,"program":24,"isDrum":false},{"pitch":62,"velocity":76,"startTime":81.91286600000001,"endTime":82.02156141666669,"instrument":2,"program":24,"isDrum":false},{"pitch":67,"velocity":76,"startTime":81.91286600000001,"endTime":82.02156141666669,"instrument":2,"program":24,"isDrum":false},{"pitch":70,"velocity":76,"startTime":81.91286600000001,"endTime":82.02156141666669,"instrument":2,"program":24,"isDrum":false},{"pitch":62,"velocity":76,"startTime":82.43460400000001,"endTime":82.54329941666668,"instrument":2,"program":24,"isDrum":false},{"pitch":67,"velocity":76,"startTime":82.43460400000001,"endTime":82.54329941666668,"instrument":2,"program":24,"isDrum":false},{"pitch":70,"velocity":76,"startTime":82.43460400000001,"endTime":82.54329941666668,"instrument":2,"program":24,"isDrum":false},{"pitch":62,"velocity":76,"startTime":82.956342,"endTime":83.06503741666668,"instrument":2,"program":24,"isDrum":false},{"pitch":67,"velocity":76,"startTime":82.956342,"endTime":83.06503741666668,"instrument":2,"program":24,"isDrum":false},{"pitch":70,"velocity":76,"startTime":82.956342,"endTime":83.06503741666668,"instrument":2,"program":24,"isDrum":false},{"pitch":62,"velocity":76,"startTime":83.217211,"endTime":83.46721045833334,"instrument":2,"program":24,"isDrum":false},{"pitch":67,"velocity":76,"startTime":83.217211,"endTime":83.45634091666668,"instrument":2,"program":24,"isDrum":false},{"pitch":70,"velocity":76,"startTime":83.217211,"endTime":83.47808,"instrument":2,"program":24,"isDrum":false},{"pitch":67,"velocity":76,"startTime":83.47808,"endTime":84.23894791666667,"instrument":2,"program":24,"isDrum":false},{"pitch":65,"velocity":76,"startTime":84.521556,"endTime":85.29329345833334,"instrument":2,"program":24,"isDrum":false},{"pitch":64,"velocity":76,"startTime":85.565032,"endTime":86.34763900000002,"instrument":2,"program":24,"isDrum":false},{"pitch":63,"velocity":76,"startTime":86.60850800000001,"endTime":86.96176810416668,"instrument":2,"program":24,"isDrum":false},{"pitch":62,"velocity":76,"startTime":87.13024600000001,"endTime":87.48350610416668,"instrument":2,"program":24,"isDrum":false},{"pitch":67,"velocity":76,"startTime":87.65198400000001,"endTime":87.76067941666668,"instrument":2,"program":24,"isDrum":false},{"pitch":63,"velocity":76,"startTime":89.73893600000001,"endTime":89.84763141666669,"instrument":2,"program":24,"isDrum":false},{"pitch":67,"velocity":76,"startTime":89.73893600000001,"endTime":89.84763141666669,"instrument":2,"program":24,"isDrum":false},{"pitch":72,"velocity":76,"startTime":89.73893600000001,"endTime":89.84763141666669,"instrument":2,"program":24,"isDrum":false},{"pitch":63,"velocity":76,"startTime":90.26067400000001,"endTime":90.36936941666669,"instrument":2,"program":24,"isDrum":false},{"pitch":67,"velocity":76,"startTime":90.26067400000001,"endTime":90.36936941666669,"instrument":2,"program":24,"isDrum":false},{"pitch":72,"velocity":76,"startTime":90.26067400000001,"endTime":90.36936941666669,"instrument":2,"program":24,"isDrum":false},{"pitch":63,"velocity":76,"startTime":90.78241200000001,"endTime":90.89110741666669,"instrument":2,"program":24,"isDrum":false},{"pitch":67,"velocity":76,"startTime":90.78241200000001,"endTime":90.89110741666669,"instrument":2,"program":24,"isDrum":false},{"pitch":72,"velocity":76,"startTime":90.78241200000001,"endTime":90.89110741666669,"instrument":2,"program":24,"isDrum":false},{"pitch":63,"velocity":76,"startTime":91.30415,"endTime":91.41284541666668,"instrument":2,"program":24,"isDrum":false},{"pitch":67,"velocity":76,"startTime":91.30415,"endTime":91.41284541666668,"instrument":2,"program":24,"isDrum":false},{"pitch":72,"velocity":76,"startTime":91.30415,"endTime":91.41284541666668,"instrument":2,"program":24,"isDrum":false},{"pitch":63,"velocity":76,"startTime":91.565019,"endTime":91.923713875,"instrument":2,"program":24,"isDrum":false},{"pitch":67,"velocity":76,"startTime":91.565019,"endTime":91.94545295833333,"instrument":2,"program":24,"isDrum":false},{"pitch":72,"velocity":76,"startTime":91.565019,"endTime":91.94545295833333,"instrument":2,"program":24,"isDrum":false},{"pitch":63,"velocity":76,"startTime":92.086757,"endTime":92.19545241666668,"instrument":2,"program":24,"isDrum":false},{"pitch":67,"velocity":76,"startTime":92.086757,"endTime":92.19545241666668,"instrument":2,"program":24,"isDrum":false},{"pitch":72,"velocity":76,"startTime":92.086757,"endTime":92.19545241666668,"instrument":2,"program":24,"isDrum":false},{"pitch":63,"velocity":76,"startTime":92.608495,"endTime":92.81501629166668,"instrument":2,"program":24,"isDrum":false},{"pitch":67,"velocity":76,"startTime":92.608495,"endTime":92.79871197916668,"instrument":2,"program":24,"isDrum":false},{"pitch":72,"velocity":76,"startTime":92.608495,"endTime":92.79327720833334,"instrument":2,"program":24,"isDrum":false},{"pitch":63,"velocity":76,"startTime":93.130233,"endTime":93.23892841666668,"instrument":2,"program":24,"isDrum":false},{"pitch":67,"velocity":76,"startTime":93.130233,"endTime":93.23892841666668,"instrument":2,"program":24,"isDrum":false},{"pitch":72,"velocity":76,"startTime":93.130233,"endTime":93.23892841666668,"instrument":2,"program":24,"isDrum":false},{"pitch":63,"velocity":76,"startTime":93.391102,"endTime":93.49979741666668,"instrument":2,"program":24,"isDrum":false},{"pitch":67,"velocity":76,"startTime":93.391102,"endTime":93.49979741666668,"instrument":2,"program":24,"isDrum":false},{"pitch":72,"velocity":76,"startTime":93.391102,"endTime":93.49979741666668,"instrument":2,"program":24,"isDrum":false},{"pitch":62,"velocity":76,"startTime":93.91284000000002,"endTime":94.02153541666668,"instrument":2,"program":24,"isDrum":false},{"pitch":67,"velocity":76,"startTime":93.91284000000002,"endTime":94.02153541666668,"instrument":2,"program":24,"isDrum":false},{"pitch":70,"velocity":76,"startTime":93.91284000000002,"endTime":94.02153541666668,"instrument":2,"program":24,"isDrum":false},{"pitch":62,"velocity":76,"startTime":94.17370900000002,"endTime":94.28240441666668,"instrument":2,"program":24,"isDrum":false},{"pitch":67,"velocity":76,"startTime":94.17370900000002,"endTime":94.28240441666668,"instrument":2,"program":24,"isDrum":false},{"pitch":70,"velocity":76,"startTime":94.17370900000002,"endTime":94.28240441666668,"instrument":2,"program":24,"isDrum":false},{"pitch":62,"velocity":76,"startTime":94.69544700000002,"endTime":94.93457691666669,"instrument":2,"program":24,"isDrum":false},{"pitch":67,"velocity":76,"startTime":94.69544700000002,"endTime":94.94544645833334,"instrument":2,"program":24,"isDrum":false},{"pitch":70,"velocity":76,"startTime":94.69544700000002,"endTime":94.93457691666669,"instrument":2,"program":24,"isDrum":false},{"pitch":62,"velocity":76,"startTime":95.21718500000001,"endTime":95.32588041666668,"instrument":2,"program":24,"isDrum":false},{"pitch":67,"velocity":76,"startTime":95.21718500000001,"endTime":95.32588041666668,"instrument":2,"program":24,"isDrum":false},{"pitch":70,"velocity":76,"startTime":95.21718500000001,"endTime":95.32588041666668,"instrument":2,"program":24,"isDrum":false},{"pitch":62,"velocity":76,"startTime":95.47805400000001,"endTime":95.58674941666668,"instrument":2,"program":24,"isDrum":false},{"pitch":67,"velocity":76,"startTime":95.47805400000001,"endTime":95.58674941666668,"instrument":2,"program":24,"isDrum":false},{"pitch":70,"velocity":76,"startTime":95.47805400000001,"endTime":95.58674941666668,"instrument":2,"program":24,"isDrum":false},{"pitch":62,"velocity":76,"startTime":95.99979200000001,"endTime":96.35305210416668,"instrument":2,"program":24,"isDrum":false},{"pitch":66,"velocity":76,"startTime":95.99979200000001,"endTime":96.35305210416668,"instrument":2,"program":24,"isDrum":false},{"pitch":69,"velocity":76,"startTime":95.99979200000001,"endTime":96.35305210416668,"instrument":2,"program":24,"isDrum":false},{"pitch":72,"velocity":76,"startTime":95.99979200000001,"endTime":96.35305210416668,"instrument":2,"program":24,"isDrum":false},{"pitch":62,"velocity":76,"startTime":98.34761300000001,"endTime":98.70087310416667,"instrument":2,"program":24,"isDrum":false},{"pitch":66,"velocity":76,"startTime":98.60848200000001,"endTime":98.96174210416669,"instrument":2,"program":24,"isDrum":false},{"pitch":69,"velocity":76,"startTime":98.60848200000001,"endTime":98.96174210416669,"instrument":2,"program":24,"isDrum":false},{"pitch":72,"velocity":76,"startTime":98.60848200000001,"endTime":98.96174210416669,"instrument":2,"program":24,"isDrum":false},{"pitch":67,"velocity":76,"startTime":99.13022000000001,"endTime":99.23891541666669,"instrument":2,"program":24,"isDrum":false},{"pitch":70,"velocity":76,"startTime":99.13022000000001,"endTime":99.23891541666669,"instrument":2,"program":24,"isDrum":false},{"pitch":62,"velocity":76,"startTime":100.173696,"endTime":100.28239141666668,"instrument":2,"program":24,"isDrum":false},{"pitch":66,"velocity":76,"startTime":100.173696,"endTime":100.28239141666668,"instrument":2,"program":24,"isDrum":false},{"pitch":69,"velocity":76,"startTime":100.173696,"endTime":100.28239141666668,"instrument":2,"program":24,"isDrum":false},{"pitch":72,"velocity":76,"startTime":100.173696,"endTime":100.28239141666668,"instrument":2,"program":24,"isDrum":false},{"pitch":62,"velocity":76,"startTime":100.695434,"endTime":100.80412941666668,"instrument":2,"program":24,"isDrum":false},{"pitch":66,"velocity":76,"startTime":100.695434,"endTime":100.80412941666668,"instrument":2,"program":24,"isDrum":false},{"pitch":69,"velocity":76,"startTime":100.695434,"endTime":100.80412941666668,"instrument":2,"program":24,"isDrum":false},{"pitch":72,"velocity":76,"startTime":100.695434,"endTime":100.80412941666668,"instrument":2,"program":24,"isDrum":false},{"pitch":62,"velocity":76,"startTime":101.217172,"endTime":101.32586741666668,"instrument":2,"program":24,"isDrum":false},{"pitch":66,"velocity":76,"startTime":101.217172,"endTime":101.32586741666668,"instrument":2,"program":24,"isDrum":false},{"pitch":69,"velocity":76,"startTime":101.217172,"endTime":101.32586741666668,"instrument":2,"program":24,"isDrum":false},{"pitch":72,"velocity":76,"startTime":101.217172,"endTime":101.32586741666668,"instrument":2,"program":24,"isDrum":false},{"pitch":62,"velocity":76,"startTime":101.73891,"endTime":101.84760541666668,"instrument":2,"program":24,"isDrum":false},{"pitch":66,"velocity":76,"startTime":101.73891,"endTime":101.84760541666668,"instrument":2,"program":24,"isDrum":false},{"pitch":69,"velocity":76,"startTime":101.73891,"endTime":101.84760541666668,"instrument":2,"program":24,"isDrum":false},{"pitch":72,"velocity":76,"startTime":101.73891,"endTime":101.84760541666668,"instrument":2,"program":24,"isDrum":false},{"pitch":62,"velocity":76,"startTime":101.999779,"endTime":102.35303910416668,"instrument":2,"program":24,"isDrum":false},{"pitch":66,"velocity":76,"startTime":101.999779,"endTime":102.35303910416668,"instrument":2,"program":24,"isDrum":false},{"pitch":69,"velocity":76,"startTime":101.999779,"endTime":102.35303910416668,"instrument":2,"program":24,"isDrum":false},{"pitch":72,"velocity":76,"startTime":101.999779,"endTime":102.35303910416668,"instrument":2,"program":24,"isDrum":false},{"pitch":62,"velocity":76,"startTime":102.78238600000002,"endTime":102.89108141666668,"instrument":2,"program":24,"isDrum":false},{"pitch":66,"velocity":76,"startTime":102.78238600000002,"endTime":102.89108141666668,"instrument":2,"program":24,"isDrum":false},{"pitch":69,"velocity":76,"startTime":102.78238600000002,"endTime":102.89108141666668,"instrument":2,"program":24,"isDrum":false},{"pitch":72,"velocity":76,"startTime":102.78238600000002,"endTime":102.89108141666668,"instrument":2,"program":24,"isDrum":false},{"pitch":62,"velocity":76,"startTime":103.30412400000002,"endTime":103.41281941666668,"instrument":2,"program":24,"isDrum":false},{"pitch":66,"velocity":76,"startTime":103.30412400000002,"endTime":103.41281941666668,"instrument":2,"program":24,"isDrum":false},{"pitch":69,"velocity":76,"startTime":103.30412400000002,"endTime":103.41281941666668,"instrument":2,"program":24,"isDrum":false},{"pitch":72,"velocity":76,"startTime":103.30412400000002,"endTime":103.41281941666668,"instrument":2,"program":24,"isDrum":false},{"pitch":62,"velocity":76,"startTime":103.82586200000001,"endTime":103.93455741666668,"instrument":2,"program":24,"isDrum":false},{"pitch":66,"velocity":76,"startTime":103.82586200000001,"endTime":103.93455741666668,"instrument":2,"program":24,"isDrum":false},{"pitch":69,"velocity":76,"startTime":103.82586200000001,"endTime":103.93455741666668,"instrument":2,"program":24,"isDrum":false},{"pitch":72,"velocity":76,"startTime":103.82586200000001,"endTime":103.93455741666668,"instrument":2,"program":24,"isDrum":false},{"pitch":62,"velocity":76,"startTime":104.08673100000001,"endTime":104.43999110416668,"instrument":2,"program":24,"isDrum":false},{"pitch":67,"velocity":76,"startTime":104.08673100000001,"endTime":104.43999110416668,"instrument":2,"program":24,"isDrum":false},{"pitch":70,"velocity":76,"startTime":104.08673100000001,"endTime":104.43999110416668,"instrument":2,"program":24,"isDrum":false},{"pitch":62,"velocity":76,"startTime":104.86933800000001,"endTime":104.97803341666668,"instrument":2,"program":24,"isDrum":false},{"pitch":67,"velocity":76,"startTime":104.86933800000001,"endTime":104.97803341666668,"instrument":2,"program":24,"isDrum":false},{"pitch":70,"velocity":76,"startTime":104.86933800000001,"endTime":104.97803341666668,"instrument":2,"program":24,"isDrum":false},{"pitch":62,"velocity":76,"startTime":105.39107600000001,"endTime":105.49977141666668,"instrument":2,"program":24,"isDrum":false},{"pitch":67,"velocity":76,"startTime":105.39107600000001,"endTime":105.49977141666668,"instrument":2,"program":24,"isDrum":false},{"pitch":70,"velocity":76,"startTime":105.39107600000001,"endTime":105.49977141666668,"instrument":2,"program":24,"isDrum":false},{"pitch":62,"velocity":76,"startTime":105.91281400000001,"endTime":106.02150941666669,"instrument":2,"program":24,"isDrum":false},{"pitch":67,"velocity":76,"startTime":105.91281400000001,"endTime":106.02150941666669,"instrument":2,"program":24,"isDrum":false},{"pitch":70,"velocity":76,"startTime":105.91281400000001,"endTime":106.02150941666669,"instrument":2,"program":24,"isDrum":false},{"pitch":62,"velocity":76,"startTime":106.17368300000001,"endTime":106.52694310416668,"instrument":2,"program":24,"isDrum":false},{"pitch":67,"velocity":76,"startTime":106.17368300000001,"endTime":106.52694310416668,"instrument":2,"program":24,"isDrum":false},{"pitch":70,"velocity":76,"startTime":106.17368300000001,"endTime":106.52694310416668,"instrument":2,"program":24,"isDrum":false},{"pitch":62,"velocity":76,"startTime":106.95629000000001,"endTime":107.06498541666669,"instrument":2,"program":24,"isDrum":false},{"pitch":67,"velocity":76,"startTime":106.95629000000001,"endTime":107.06498541666669,"instrument":2,"program":24,"isDrum":false},{"pitch":70,"velocity":76,"startTime":106.95629000000001,"endTime":107.06498541666669,"instrument":2,"program":24,"isDrum":false},{"pitch":62,"velocity":76,"startTime":107.47802800000001,"endTime":107.58672341666669,"instrument":2,"program":24,"isDrum":false},{"pitch":67,"velocity":76,"startTime":107.47802800000001,"endTime":107.58672341666669,"instrument":2,"program":24,"isDrum":false},{"pitch":70,"velocity":76,"startTime":107.47802800000001,"endTime":107.58672341666669,"instrument":2,"program":24,"isDrum":false},{"pitch":62,"velocity":76,"startTime":107.99976600000001,"endTime":108.10846141666669,"instrument":2,"program":24,"isDrum":false},{"pitch":67,"velocity":76,"startTime":107.99976600000001,"endTime":108.10846141666669,"instrument":2,"program":24,"isDrum":false},{"pitch":70,"velocity":76,"startTime":107.99976600000001,"endTime":108.10846141666669,"instrument":2,"program":24,"isDrum":false},{"pitch":62,"velocity":76,"startTime":108.26063500000001,"endTime":108.61389510416669,"instrument":2,"program":24,"isDrum":false},{"pitch":66,"velocity":76,"startTime":108.26063500000001,"endTime":108.61389510416669,"instrument":2,"program":24,"isDrum":false},{"pitch":69,"velocity":76,"startTime":108.26063500000001,"endTime":108.61389510416669,"instrument":2,"program":24,"isDrum":false},{"pitch":72,"velocity":76,"startTime":108.26063500000001,"endTime":108.61389510416669,"instrument":2,"program":24,"isDrum":false},{"pitch":62,"velocity":76,"startTime":109.043242,"endTime":109.15193741666668,"instrument":2,"program":24,"isDrum":false},{"pitch":66,"velocity":76,"startTime":109.043242,"endTime":109.15193741666668,"instrument":2,"program":24,"isDrum":false},{"pitch":69,"velocity":76,"startTime":109.043242,"endTime":109.15193741666668,"instrument":2,"program":24,"isDrum":false},{"pitch":72,"velocity":76,"startTime":109.043242,"endTime":109.15193741666668,"instrument":2,"program":24,"isDrum":false},{"pitch":62,"velocity":76,"startTime":109.56498,"endTime":109.67367541666668,"instrument":2,"program":24,"isDrum":false},{"pitch":66,"velocity":76,"startTime":109.56498,"endTime":109.67367541666668,"instrument":2,"program":24,"isDrum":false},{"pitch":69,"velocity":76,"startTime":109.56498,"endTime":109.67367541666668,"instrument":2,"program":24,"isDrum":false},{"pitch":72,"velocity":76,"startTime":109.56498,"endTime":109.67367541666668,"instrument":2,"program":24,"isDrum":false},{"pitch":62,"velocity":76,"startTime":110.086718,"endTime":110.19541341666668,"instrument":2,"program":24,"isDrum":false},{"pitch":66,"velocity":76,"startTime":110.086718,"endTime":110.19541341666668,"instrument":2,"program":24,"isDrum":false},{"pitch":69,"velocity":76,"startTime":110.086718,"endTime":110.19541341666668,"instrument":2,"program":24,"isDrum":false},{"pitch":72,"velocity":76,"startTime":110.086718,"endTime":110.19541341666668,"instrument":2,"program":24,"isDrum":false},{"pitch":62,"velocity":76,"startTime":110.347587,"endTime":110.70084710416668,"instrument":2,"program":24,"isDrum":false},{"pitch":66,"velocity":76,"startTime":110.347587,"endTime":110.70084710416668,"instrument":2,"program":24,"isDrum":false},{"pitch":69,"velocity":76,"startTime":110.347587,"endTime":110.70084710416668,"instrument":2,"program":24,"isDrum":false},{"pitch":72,"velocity":76,"startTime":110.347587,"endTime":110.70084710416668,"instrument":2,"program":24,"isDrum":false},{"pitch":62,"velocity":76,"startTime":111.13019400000002,"endTime":111.23888941666668,"instrument":2,"program":24,"isDrum":false},{"pitch":66,"velocity":76,"startTime":111.13019400000002,"endTime":111.23888941666668,"instrument":2,"program":24,"isDrum":false},{"pitch":69,"velocity":76,"startTime":111.13019400000002,"endTime":111.23888941666668,"instrument":2,"program":24,"isDrum":false},{"pitch":72,"velocity":76,"startTime":111.13019400000002,"endTime":111.23888941666668,"instrument":2,"program":24,"isDrum":false},{"pitch":62,"velocity":76,"startTime":111.65193200000002,"endTime":111.76062741666668,"instrument":2,"program":24,"isDrum":false},{"pitch":66,"velocity":76,"startTime":111.65193200000002,"endTime":111.76062741666668,"instrument":2,"program":24,"isDrum":false},{"pitch":69,"velocity":76,"startTime":111.65193200000002,"endTime":111.76062741666668,"instrument":2,"program":24,"isDrum":false},{"pitch":72,"velocity":76,"startTime":111.65193200000002,"endTime":111.76062741666668,"instrument":2,"program":24,"isDrum":false},{"pitch":62,"velocity":76,"startTime":112.17367000000002,"endTime":112.28236541666668,"instrument":2,"program":24,"isDrum":false},{"pitch":66,"velocity":76,"startTime":112.17367000000002,"endTime":112.28236541666668,"instrument":2,"program":24,"isDrum":false},{"pitch":69,"velocity":76,"startTime":112.17367000000002,"endTime":112.28236541666668,"instrument":2,"program":24,"isDrum":false},{"pitch":72,"velocity":76,"startTime":112.17367000000002,"endTime":112.28236541666668,"instrument":2,"program":24,"isDrum":false},{"pitch":62,"velocity":76,"startTime":112.43453900000002,"endTime":112.78779910416668,"instrument":2,"program":24,"isDrum":false},{"pitch":67,"velocity":76,"startTime":112.43453900000002,"endTime":112.78779910416668,"instrument":2,"program":24,"isDrum":false},{"pitch":70,"velocity":76,"startTime":112.43453900000002,"endTime":112.78779910416668,"instrument":2,"program":24,"isDrum":false},{"pitch":62,"velocity":76,"startTime":113.21714600000001,"endTime":113.32584141666668,"instrument":2,"program":24,"isDrum":false},{"pitch":67,"velocity":76,"startTime":113.21714600000001,"endTime":113.32584141666668,"instrument":2,"program":24,"isDrum":false},{"pitch":70,"velocity":76,"startTime":113.21714600000001,"endTime":113.32584141666668,"instrument":2,"program":24,"isDrum":false},{"pitch":62,"velocity":76,"startTime":113.73888400000001,"endTime":113.84757941666668,"instrument":2,"program":24,"isDrum":false},{"pitch":67,"velocity":76,"startTime":113.73888400000001,"endTime":113.84757941666668,"instrument":2,"program":24,"isDrum":false},{"pitch":70,"velocity":76,"startTime":113.73888400000001,"endTime":113.84757941666668,"instrument":2,"program":24,"isDrum":false},{"pitch":62,"velocity":76,"startTime":114.26062200000001,"endTime":114.36931741666669,"instrument":2,"program":24,"isDrum":false},{"pitch":67,"velocity":76,"startTime":114.26062200000001,"endTime":114.36931741666669,"instrument":2,"program":24,"isDrum":false},{"pitch":70,"velocity":76,"startTime":114.26062200000001,"endTime":114.36931741666669,"instrument":2,"program":24,"isDrum":false},{"pitch":62,"velocity":76,"startTime":114.52149100000001,"endTime":114.87475110416668,"instrument":2,"program":24,"isDrum":false},{"pitch":67,"velocity":76,"startTime":114.52149100000001,"endTime":114.87475110416668,"instrument":2,"program":24,"isDrum":false},{"pitch":70,"velocity":76,"startTime":114.52149100000001,"endTime":114.87475110416668,"instrument":2,"program":24,"isDrum":false},{"pitch":62,"velocity":76,"startTime":115.30409800000001,"endTime":115.41279341666669,"instrument":2,"program":24,"isDrum":false},{"pitch":67,"velocity":76,"startTime":115.30409800000001,"endTime":115.41279341666669,"instrument":2,"program":24,"isDrum":false},{"pitch":70,"velocity":76,"startTime":115.30409800000001,"endTime":115.41279341666669,"instrument":2,"program":24,"isDrum":false},{"pitch":62,"velocity":76,"startTime":115.82583600000001,"endTime":115.93453141666669,"instrument":2,"program":24,"isDrum":false},{"pitch":67,"velocity":76,"startTime":115.82583600000001,"endTime":115.93453141666669,"instrument":2,"program":24,"isDrum":false},{"pitch":70,"velocity":76,"startTime":115.82583600000001,"endTime":115.93453141666669,"instrument":2,"program":24,"isDrum":false},{"pitch":62,"velocity":76,"startTime":116.34757400000001,"endTime":116.45626941666669,"instrument":2,"program":24,"isDrum":false},{"pitch":67,"velocity":76,"startTime":116.34757400000001,"endTime":116.45626941666669,"instrument":2,"program":24,"isDrum":false},{"pitch":70,"velocity":76,"startTime":116.34757400000001,"endTime":116.45626941666669,"instrument":2,"program":24,"isDrum":false},{"pitch":63,"velocity":76,"startTime":116.60844300000001,"endTime":116.96170310416669,"instrument":2,"program":24,"isDrum":false},{"pitch":67,"velocity":76,"startTime":116.60844300000001,"endTime":116.96170310416669,"instrument":2,"program":24,"isDrum":false},{"pitch":72,"velocity":76,"startTime":116.60844300000001,"endTime":116.96170310416669,"instrument":2,"program":24,"isDrum":false},{"pitch":63,"velocity":76,"startTime":117.39105,"endTime":117.49974541666668,"instrument":2,"program":24,"isDrum":false},{"pitch":67,"velocity":76,"startTime":117.39105,"endTime":117.49974541666668,"instrument":2,"program":24,"isDrum":false},{"pitch":72,"velocity":76,"startTime":117.39105,"endTime":117.49974541666668,"instrument":2,"program":24,"isDrum":false},{"pitch":63,"velocity":76,"startTime":117.912788,"endTime":118.02148341666668,"instrument":2,"program":24,"isDrum":false},{"pitch":67,"velocity":76,"startTime":117.912788,"endTime":118.02148341666668,"instrument":2,"program":24,"isDrum":false},{"pitch":72,"velocity":76,"startTime":117.912788,"endTime":118.02148341666668,"instrument":2,"program":24,"isDrum":false},{"pitch":63,"velocity":76,"startTime":118.434526,"endTime":118.54322141666668,"instrument":2,"program":24,"isDrum":false},{"pitch":67,"velocity":76,"startTime":118.434526,"endTime":118.54322141666668,"instrument":2,"program":24,"isDrum":false},{"pitch":72,"velocity":76,"startTime":118.434526,"endTime":118.54322141666668,"instrument":2,"program":24,"isDrum":false},{"pitch":63,"velocity":76,"startTime":118.695395,"endTime":119.04865510416668,"instrument":2,"program":24,"isDrum":false},{"pitch":67,"velocity":76,"startTime":118.695395,"endTime":119.04865510416668,"instrument":2,"program":24,"isDrum":false},{"pitch":72,"velocity":76,"startTime":118.695395,"endTime":119.04865510416668,"instrument":2,"program":24,"isDrum":false},{"pitch":63,"velocity":76,"startTime":119.47800200000002,"endTime":119.58669741666668,"instrument":2,"program":24,"isDrum":false},{"pitch":67,"velocity":76,"startTime":119.47800200000002,"endTime":119.58669741666668,"instrument":2,"program":24,"isDrum":false},{"pitch":72,"velocity":76,"startTime":119.47800200000002,"endTime":119.58669741666668,"instrument":2,"program":24,"isDrum":false},{"pitch":63,"velocity":76,"startTime":119.99974000000002,"endTime":120.10843541666668,"instrument":2,"program":24,"isDrum":false},{"pitch":67,"velocity":76,"startTime":119.99974000000002,"endTime":120.10843541666668,"instrument":2,"program":24,"isDrum":false},{"pitch":72,"velocity":76,"startTime":119.99974000000002,"endTime":120.10843541666668,"instrument":2,"program":24,"isDrum":false},{"pitch":63,"velocity":76,"startTime":120.52147800000002,"endTime":120.63017341666668,"instrument":2,"program":24,"isDrum":false},{"pitch":67,"velocity":76,"startTime":120.52147800000002,"endTime":120.63017341666668,"instrument":2,"program":24,"isDrum":false},{"pitch":72,"velocity":76,"startTime":120.52147800000002,"endTime":120.63017341666668,"instrument":2,"program":24,"isDrum":false},{"pitch":62,"velocity":76,"startTime":120.78234700000002,"endTime":121.13560710416668,"instrument":2,"program":24,"isDrum":false},{"pitch":67,"velocity":76,"startTime":120.78234700000002,"endTime":121.13560710416668,"instrument":2,"program":24,"isDrum":false},{"pitch":70,"velocity":76,"startTime":120.78234700000002,"endTime":121.13560710416668,"instrument":2,"program":24,"isDrum":false},{"pitch":62,"velocity":76,"startTime":121.56495400000001,"endTime":121.67364941666668,"instrument":2,"program":24,"isDrum":false},{"pitch":67,"velocity":76,"startTime":121.56495400000001,"endTime":121.67364941666668,"instrument":2,"program":24,"isDrum":false},{"pitch":70,"velocity":76,"startTime":121.56495400000001,"endTime":121.67364941666668,"instrument":2,"program":24,"isDrum":false},{"pitch":62,"velocity":76,"startTime":122.08669200000001,"endTime":122.19538741666668,"instrument":2,"program":24,"isDrum":false},{"pitch":67,"velocity":76,"startTime":122.08669200000001,"endTime":122.19538741666668,"instrument":2,"program":24,"isDrum":false},{"pitch":70,"velocity":76,"startTime":122.08669200000001,"endTime":122.19538741666668,"instrument":2,"program":24,"isDrum":false},{"pitch":62,"velocity":76,"startTime":122.60843000000001,"endTime":122.71712541666669,"instrument":2,"program":24,"isDrum":false},{"pitch":67,"velocity":76,"startTime":122.60843000000001,"endTime":122.71712541666669,"instrument":2,"program":24,"isDrum":false},{"pitch":70,"velocity":76,"startTime":122.60843000000001,"endTime":122.71712541666669,"instrument":2,"program":24,"isDrum":false},{"pitch":62,"velocity":76,"startTime":122.86929900000001,"endTime":123.22255910416668,"instrument":2,"program":24,"isDrum":false},{"pitch":67,"velocity":76,"startTime":122.86929900000001,"endTime":123.22255910416668,"instrument":2,"program":24,"isDrum":false},{"pitch":70,"velocity":76,"startTime":122.86929900000001,"endTime":123.22255910416668,"instrument":2,"program":24,"isDrum":false},{"pitch":62,"velocity":76,"startTime":123.65190600000001,"endTime":123.76060141666669,"instrument":2,"program":24,"isDrum":false},{"pitch":67,"velocity":76,"startTime":123.65190600000001,"endTime":123.76060141666669,"instrument":2,"program":24,"isDrum":false},{"pitch":70,"velocity":76,"startTime":123.65190600000001,"endTime":123.76060141666669,"instrument":2,"program":24,"isDrum":false},{"pitch":62,"velocity":76,"startTime":124.17364400000001,"endTime":124.28233941666669,"instrument":2,"program":24,"isDrum":false},{"pitch":67,"velocity":76,"startTime":124.17364400000001,"endTime":124.28233941666669,"instrument":2,"program":24,"isDrum":false},{"pitch":70,"velocity":76,"startTime":124.17364400000001,"endTime":124.28233941666669,"instrument":2,"program":24,"isDrum":false},{"pitch":62,"velocity":76,"startTime":124.69538200000001,"endTime":124.80407741666669,"instrument":2,"program":24,"isDrum":false},{"pitch":67,"velocity":76,"startTime":124.69538200000001,"endTime":124.80407741666669,"instrument":2,"program":24,"isDrum":false},{"pitch":70,"velocity":76,"startTime":124.69538200000001,"endTime":124.80407741666669,"instrument":2,"program":24,"isDrum":false},{"pitch":62,"velocity":76,"startTime":124.95625100000001,"endTime":125.30951110416669,"instrument":2,"program":24,"isDrum":false},{"pitch":66,"velocity":76,"startTime":124.95625100000001,"endTime":125.30951110416669,"instrument":2,"program":24,"isDrum":false},{"pitch":69,"velocity":76,"startTime":124.95625100000001,"endTime":125.30951110416669,"instrument":2,"program":24,"isDrum":false},{"pitch":72,"velocity":76,"startTime":124.95625100000001,"endTime":125.30951110416669,"instrument":2,"program":24,"isDrum":false},{"pitch":62,"velocity":76,"startTime":125.73885800000001,"endTime":125.84755341666668,"instrument":2,"program":24,"isDrum":false},{"pitch":66,"velocity":76,"startTime":125.73885800000001,"endTime":125.84755341666668,"instrument":2,"program":24,"isDrum":false},{"pitch":69,"velocity":76,"startTime":125.73885800000001,"endTime":125.84755341666668,"instrument":2,"program":24,"isDrum":false},{"pitch":72,"velocity":76,"startTime":125.73885800000001,"endTime":125.84755341666668,"instrument":2,"program":24,"isDrum":false},{"pitch":62,"velocity":76,"startTime":126.26059600000002,"endTime":126.36929141666667,"instrument":2,"program":24,"isDrum":false},{"pitch":66,"velocity":76,"startTime":126.26059600000002,"endTime":126.36929141666667,"instrument":2,"program":24,"isDrum":false},{"pitch":69,"velocity":76,"startTime":126.26059600000002,"endTime":126.36929141666667,"instrument":2,"program":24,"isDrum":false},{"pitch":72,"velocity":76,"startTime":126.26059600000002,"endTime":126.36929141666667,"instrument":2,"program":24,"isDrum":false},{"pitch":62,"velocity":76,"startTime":126.78233400000002,"endTime":126.8910294166667,"instrument":2,"program":24,"isDrum":false},{"pitch":66,"velocity":76,"startTime":126.78233400000002,"endTime":126.8910294166667,"instrument":2,"program":24,"isDrum":false},{"pitch":69,"velocity":76,"startTime":126.78233400000002,"endTime":126.8910294166667,"instrument":2,"program":24,"isDrum":false},{"pitch":72,"velocity":76,"startTime":126.78233400000002,"endTime":126.8910294166667,"instrument":2,"program":24,"isDrum":false},{"pitch":62,"velocity":76,"startTime":127.043203,"endTime":127.39646310416668,"instrument":2,"program":24,"isDrum":false},{"pitch":66,"velocity":76,"startTime":127.043203,"endTime":127.39646310416668,"instrument":2,"program":24,"isDrum":false},{"pitch":69,"velocity":76,"startTime":127.043203,"endTime":127.39646310416668,"instrument":2,"program":24,"isDrum":false},{"pitch":72,"velocity":76,"startTime":127.043203,"endTime":127.39646310416668,"instrument":2,"program":24,"isDrum":false},{"pitch":62,"velocity":76,"startTime":127.82581000000002,"endTime":127.9345054166667,"instrument":2,"program":24,"isDrum":false},{"pitch":66,"velocity":76,"startTime":127.82581000000002,"endTime":127.9345054166667,"instrument":2,"program":24,"isDrum":false},{"pitch":69,"velocity":76,"startTime":127.82581000000002,"endTime":127.9345054166667,"instrument":2,"program":24,"isDrum":false},{"pitch":72,"velocity":76,"startTime":127.82581000000002,"endTime":127.9345054166667,"instrument":2,"program":24,"isDrum":false},{"pitch":62,"velocity":76,"startTime":128.34754800000002,"endTime":128.4562434166667,"instrument":2,"program":24,"isDrum":false},{"pitch":66,"velocity":76,"startTime":128.34754800000002,"endTime":128.4562434166667,"instrument":2,"program":24,"isDrum":false},{"pitch":69,"velocity":76,"startTime":128.34754800000002,"endTime":128.4562434166667,"instrument":2,"program":24,"isDrum":false},{"pitch":72,"velocity":76,"startTime":128.34754800000002,"endTime":128.4562434166667,"instrument":2,"program":24,"isDrum":false},{"pitch":62,"velocity":76,"startTime":128.86928600000002,"endTime":128.9779814166667,"instrument":2,"program":24,"isDrum":false},{"pitch":66,"velocity":76,"startTime":128.86928600000002,"endTime":128.9779814166667,"instrument":2,"program":24,"isDrum":false},{"pitch":69,"velocity":76,"startTime":128.86928600000002,"endTime":128.9779814166667,"instrument":2,"program":24,"isDrum":false},{"pitch":72,"velocity":76,"startTime":128.86928600000002,"endTime":128.9779814166667,"instrument":2,"program":24,"isDrum":false},{"pitch":62,"velocity":76,"startTime":129.130155,"endTime":129.48341510416668,"instrument":2,"program":24,"isDrum":false},{"pitch":67,"velocity":76,"startTime":129.130155,"endTime":129.48341510416668,"instrument":2,"program":24,"isDrum":false},{"pitch":70,"velocity":76,"startTime":129.130155,"endTime":129.48341510416668,"instrument":2,"program":24,"isDrum":false},{"pitch":62,"velocity":76,"startTime":131.73884500000003,"endTime":132.09210510416668,"instrument":2,"program":24,"isDrum":false},{"pitch":66,"velocity":76,"startTime":131.999714,"endTime":132.35297410416666,"instrument":2,"program":24,"isDrum":false},{"pitch":69,"velocity":76,"startTime":131.999714,"endTime":132.35297410416666,"instrument":2,"program":24,"isDrum":false},{"pitch":72,"velocity":76,"startTime":131.999714,"endTime":132.35297410416666,"instrument":2,"program":24,"isDrum":false},{"pitch":62,"velocity":76,"startTime":132.521452,"endTime":132.63014741666666,"instrument":2,"program":24,"isDrum":false},{"pitch":67,"velocity":76,"startTime":132.521452,"endTime":132.63014741666666,"instrument":2,"program":24,"isDrum":false},{"pitch":70,"velocity":76,"startTime":132.521452,"endTime":132.63014741666666,"instrument":2,"program":24,"isDrum":false},{"pitch":67,"velocity":76,"startTime":133.564928,"endTime":133.65188433333336,"instrument":2,"program":24,"isDrum":false},{"pitch":66,"velocity":76,"startTime":133.82579700000002,"endTime":133.90731856250002,"instrument":2,"program":24,"isDrum":false},{"pitch":67,"velocity":76,"startTime":134.086666,"endTime":134.18449187500002,"instrument":2,"program":24,"isDrum":false},{"pitch":69,"velocity":76,"startTime":134.34753500000002,"endTime":134.43449133333337,"instrument":2,"program":24,"isDrum":false},{"pitch":70,"velocity":76,"startTime":134.86927300000002,"endTime":135.32579375,"instrument":2,"program":24,"isDrum":false},{"pitch":69,"velocity":76,"startTime":135.39101100000002,"endTime":135.684488625,"instrument":2,"program":24,"isDrum":false},{"pitch":67,"velocity":76,"startTime":135.65188,"endTime":135.77144495833335,"instrument":2,"program":24,"isDrum":false},{"pitch":63,"velocity":76,"startTime":137.738832,"endTime":137.83665787500001,"instrument":2,"program":24,"isDrum":false},{"pitch":62,"velocity":76,"startTime":137.99970100000002,"endTime":138.09209210416668,"instrument":2,"program":24,"isDrum":false},{"pitch":63,"velocity":76,"startTime":138.26057,"endTime":138.358395875,"instrument":2,"program":24,"isDrum":false},{"pitch":65,"velocity":76,"startTime":138.52143900000002,"endTime":138.64100395833336,"instrument":2,"program":24,"isDrum":false},{"pitch":67,"velocity":76,"startTime":139.04317700000001,"endTime":139.4833934375,"instrument":2,"program":24,"isDrum":false},{"pitch":63,"velocity":76,"startTime":139.564915,"endTime":139.793175375,"instrument":2,"program":24,"isDrum":false},{"pitch":62,"velocity":76,"startTime":139.825784,"endTime":139.92904464583336,"instrument":2,"program":24,"isDrum":false},{"pitch":67,"velocity":76,"startTime":141.91273600000002,"endTime":142.00512710416666,"instrument":2,"program":24,"isDrum":false},{"pitch":66,"velocity":76,"startTime":142.173605,"endTime":142.2551265625,"instrument":2,"program":24,"isDrum":false},{"pitch":67,"velocity":76,"startTime":142.43447400000002,"endTime":142.53773464583335,"instrument":2,"program":24,"isDrum":false},{"pitch":69,"velocity":76,"startTime":142.695343,"endTime":142.79316887500002,"instrument":2,"program":24,"isDrum":false},{"pitch":70,"velocity":76,"startTime":143.217081,"endTime":143.66816697916667,"instrument":2,"program":24,"isDrum":false},{"pitch":69,"velocity":76,"startTime":143.738819,"endTime":143.98881845833336,"instrument":2,"program":24,"isDrum":false},{"pitch":67,"velocity":76,"startTime":143.99968800000002,"endTime":144.11925295833336,"instrument":2,"program":24,"isDrum":false},{"pitch":63,"velocity":76,"startTime":146.08664000000002,"endTime":146.184465875,"instrument":2,"program":24,"isDrum":false},{"pitch":62,"velocity":76,"startTime":146.347509,"endTime":146.43990010416667,"instrument":2,"program":24,"isDrum":false},{"pitch":63,"velocity":76,"startTime":146.60837800000002,"endTime":146.69533433333336,"instrument":2,"program":24,"isDrum":false},{"pitch":65,"velocity":76,"startTime":146.869247,"endTime":146.97794241666668,"instrument":2,"program":24,"isDrum":false},{"pitch":67,"velocity":76,"startTime":147.390985,"endTime":147.87467960416666,"instrument":2,"program":24,"isDrum":false},{"pitch":63,"velocity":76,"startTime":147.912723,"endTime":148.15185291666668,"instrument":2,"program":24,"isDrum":false},{"pitch":62,"velocity":76,"startTime":148.173592,"endTime":148.2877221875,"instrument":2,"program":24,"isDrum":false},{"pitch":62,"velocity":76,"startTime":150.260544,"endTime":150.39641327083336,"instrument":2,"program":24,"isDrum":false},{"pitch":67,"velocity":76,"startTime":150.260544,"endTime":150.39641327083336,"instrument":2,"program":24,"isDrum":false},{"pitch":70,"velocity":76,"startTime":150.260544,"endTime":150.40184804166668,"instrument":2,"program":24,"isDrum":false},{"pitch":62,"velocity":76,"startTime":152.347496,"endTime":152.4779305,"instrument":2,"program":24,"isDrum":false},{"pitch":66,"velocity":76,"startTime":152.347496,"endTime":152.4779305,"instrument":2,"program":24,"isDrum":false},{"pitch":69,"velocity":76,"startTime":152.347496,"endTime":152.4779305,"instrument":2,"program":24,"isDrum":false},{"pitch":72,"velocity":76,"startTime":152.347496,"endTime":152.4779305,"instrument":2,"program":24,"isDrum":false},{"pitch":62,"velocity":76,"startTime":153.390972,"endTime":153.5214065,"instrument":2,"program":24,"isDrum":false},{"pitch":66,"velocity":76,"startTime":153.390972,"endTime":153.5214065,"instrument":2,"program":24,"isDrum":false},{"pitch":69,"velocity":76,"startTime":153.390972,"endTime":153.5214065,"instrument":2,"program":24,"isDrum":false},{"pitch":72,"velocity":76,"startTime":153.390972,"endTime":153.5214065,"instrument":2,"program":24,"isDrum":false},{"pitch":62,"velocity":76,"startTime":154.434448,"endTime":154.5648825,"instrument":2,"program":24,"isDrum":false},{"pitch":66,"velocity":76,"startTime":154.434448,"endTime":154.5648825,"instrument":2,"program":24,"isDrum":false},{"pitch":69,"velocity":76,"startTime":154.434448,"endTime":154.5648825,"instrument":2,"program":24,"isDrum":false},{"pitch":72,"velocity":76,"startTime":154.434448,"endTime":154.5648825,"instrument":2,"program":24,"isDrum":false},{"pitch":62,"velocity":76,"startTime":155.477924,"endTime":155.6083585,"instrument":2,"program":24,"isDrum":false},{"pitch":66,"velocity":76,"startTime":155.477924,"endTime":155.6083585,"instrument":2,"program":24,"isDrum":false},{"pitch":69,"velocity":76,"startTime":155.477924,"endTime":155.6083585,"instrument":2,"program":24,"isDrum":false},{"pitch":72,"velocity":76,"startTime":155.477924,"endTime":155.6083585,"instrument":2,"program":24,"isDrum":false},{"pitch":62,"velocity":76,"startTime":156.52140000000003,"endTime":156.6518345,"instrument":2,"program":24,"isDrum":false},{"pitch":67,"velocity":76,"startTime":156.52140000000003,"endTime":156.6518345,"instrument":2,"program":24,"isDrum":false},{"pitch":70,"velocity":76,"startTime":156.52140000000003,"endTime":156.6518345,"instrument":2,"program":24,"isDrum":false},{"pitch":62,"velocity":76,"startTime":157.56487600000003,"endTime":157.6953105,"instrument":2,"program":24,"isDrum":false},{"pitch":67,"velocity":76,"startTime":157.56487600000003,"endTime":157.6953105,"instrument":2,"program":24,"isDrum":false},{"pitch":70,"velocity":76,"startTime":157.56487600000003,"endTime":157.6953105,"instrument":2,"program":24,"isDrum":false},{"pitch":62,"velocity":76,"startTime":158.60835200000002,"endTime":158.7387865,"instrument":2,"program":24,"isDrum":false},{"pitch":67,"velocity":76,"startTime":158.60835200000002,"endTime":158.7387865,"instrument":2,"program":24,"isDrum":false},{"pitch":70,"velocity":76,"startTime":158.60835200000002,"endTime":158.7387865,"instrument":2,"program":24,"isDrum":false},{"pitch":62,"velocity":76,"startTime":159.65182800000002,"endTime":159.7822625,"instrument":2,"program":24,"isDrum":false},{"pitch":67,"velocity":76,"startTime":159.65182800000002,"endTime":159.7822625,"instrument":2,"program":24,"isDrum":false},{"pitch":70,"velocity":76,"startTime":159.65182800000002,"endTime":159.7822625,"instrument":2,"program":24,"isDrum":false},{"pitch":62,"velocity":76,"startTime":160.69530400000002,"endTime":160.82573850000003,"instrument":2,"program":24,"isDrum":false},{"pitch":66,"velocity":76,"startTime":160.69530400000002,"endTime":160.82573850000003,"instrument":2,"program":24,"isDrum":false},{"pitch":69,"velocity":76,"startTime":160.69530400000002,"endTime":160.82573850000003,"instrument":2,"program":24,"isDrum":false},{"pitch":72,"velocity":76,"startTime":160.69530400000002,"endTime":160.82573850000003,"instrument":2,"program":24,"isDrum":false},{"pitch":62,"velocity":76,"startTime":161.73878000000002,"endTime":161.86921450000003,"instrument":2,"program":24,"isDrum":false},{"pitch":66,"velocity":76,"startTime":161.73878000000002,"endTime":161.86921450000003,"instrument":2,"program":24,"isDrum":false},{"pitch":69,"velocity":76,"startTime":161.73878000000002,"endTime":161.86921450000003,"instrument":2,"program":24,"isDrum":false},{"pitch":72,"velocity":76,"startTime":161.73878000000002,"endTime":161.86921450000003,"instrument":2,"program":24,"isDrum":false},{"pitch":62,"velocity":76,"startTime":162.78225600000002,"endTime":162.91269050000002,"instrument":2,"program":24,"isDrum":false},{"pitch":66,"velocity":76,"startTime":162.78225600000002,"endTime":162.91269050000002,"instrument":2,"program":24,"isDrum":false},{"pitch":69,"velocity":76,"startTime":162.78225600000002,"endTime":162.91269050000002,"instrument":2,"program":24,"isDrum":false},{"pitch":72,"velocity":76,"startTime":162.78225600000002,"endTime":162.91269050000002,"instrument":2,"program":24,"isDrum":false},{"pitch":62,"velocity":76,"startTime":163.82573200000002,"endTime":163.95616650000002,"instrument":2,"program":24,"isDrum":false},{"pitch":66,"velocity":76,"startTime":163.82573200000002,"endTime":163.95616650000002,"instrument":2,"program":24,"isDrum":false},{"pitch":69,"velocity":76,"startTime":163.82573200000002,"endTime":163.95616650000002,"instrument":2,"program":24,"isDrum":false},{"pitch":72,"velocity":76,"startTime":163.82573200000002,"endTime":163.95616650000002,"instrument":2,"program":24,"isDrum":false},{"pitch":62,"velocity":76,"startTime":164.86920800000001,"endTime":164.99964250000002,"instrument":2,"program":24,"isDrum":false},{"pitch":67,"velocity":76,"startTime":164.86920800000001,"endTime":164.99964250000002,"instrument":2,"program":24,"isDrum":false},{"pitch":70,"velocity":76,"startTime":164.86920800000001,"endTime":164.99964250000002,"instrument":2,"program":24,"isDrum":false},{"pitch":62,"velocity":76,"startTime":165.13007700000003,"endTime":165.7822495,"instrument":2,"program":24,"isDrum":false},{"pitch":66,"velocity":76,"startTime":165.390946,"endTime":165.749640875,"instrument":2,"program":24,"isDrum":false},{"pitch":69,"velocity":76,"startTime":165.390946,"endTime":165.76051041666668,"instrument":2,"program":24,"isDrum":false},{"pitch":72,"velocity":76,"startTime":165.390946,"endTime":165.72790179166668,"instrument":2,"program":24,"isDrum":false},{"pitch":62,"velocity":76,"startTime":165.912684,"endTime":166.04311850000002,"instrument":2,"program":24,"isDrum":false},{"pitch":67,"velocity":76,"startTime":165.912684,"endTime":166.04311850000002,"instrument":2,"program":24,"isDrum":false},{"pitch":70,"velocity":76,"startTime":165.912684,"endTime":166.04311850000002,"instrument":2,"program":24,"isDrum":false},{"pitch":62,"velocity":76,"startTime":166.95616,"endTime":167.06485541666666,"instrument":2,"program":24,"isDrum":false},{"pitch":66,"velocity":76,"startTime":166.95616,"endTime":167.06485541666666,"instrument":2,"program":24,"isDrum":false},{"pitch":69,"velocity":76,"startTime":166.95616,"endTime":167.06485541666666,"instrument":2,"program":24,"isDrum":false},{"pitch":72,"velocity":76,"startTime":166.95616,"endTime":167.06485541666666,"instrument":2,"program":24,"isDrum":false},{"pitch":62,"velocity":76,"startTime":167.477898,"endTime":167.58659341666666,"instrument":2,"program":24,"isDrum":false},{"pitch":66,"velocity":76,"startTime":167.477898,"endTime":167.58659341666666,"instrument":2,"program":24,"isDrum":false},{"pitch":69,"velocity":76,"startTime":167.477898,"endTime":167.58659341666666,"instrument":2,"program":24,"isDrum":false},{"pitch":72,"velocity":76,"startTime":167.477898,"endTime":167.58659341666666,"instrument":2,"program":24,"isDrum":false},{"pitch":62,"velocity":76,"startTime":167.999636,"endTime":168.10833141666666,"instrument":2,"program":24,"isDrum":false},{"pitch":66,"velocity":76,"startTime":167.999636,"endTime":168.10833141666666,"instrument":2,"program":24,"isDrum":false},{"pitch":69,"velocity":76,"startTime":167.999636,"endTime":168.10833141666666,"instrument":2,"program":24,"isDrum":false},{"pitch":72,"velocity":76,"startTime":167.999636,"endTime":168.10833141666666,"instrument":2,"program":24,"isDrum":false},{"pitch":62,"velocity":76,"startTime":168.521374,"endTime":168.6300694166667,"instrument":2,"program":24,"isDrum":false},{"pitch":66,"velocity":76,"startTime":168.521374,"endTime":168.6300694166667,"instrument":2,"program":24,"isDrum":false},{"pitch":69,"velocity":76,"startTime":168.521374,"endTime":168.6300694166667,"instrument":2,"program":24,"isDrum":false},{"pitch":72,"velocity":76,"startTime":168.521374,"endTime":168.6300694166667,"instrument":2,"program":24,"isDrum":false},{"pitch":62,"velocity":76,"startTime":168.78224300000002,"endTime":169.13550310416667,"instrument":2,"program":24,"isDrum":false},{"pitch":66,"velocity":76,"startTime":168.78224300000002,"endTime":169.13550310416667,"instrument":2,"program":24,"isDrum":false},{"pitch":69,"velocity":76,"startTime":168.78224300000002,"endTime":169.13550310416667,"instrument":2,"program":24,"isDrum":false},{"pitch":72,"velocity":76,"startTime":168.78224300000002,"endTime":169.13550310416667,"instrument":2,"program":24,"isDrum":false},{"pitch":62,"velocity":76,"startTime":169.56485,"endTime":169.67354541666668,"instrument":2,"program":24,"isDrum":false},{"pitch":66,"velocity":76,"startTime":169.56485,"endTime":169.67354541666668,"instrument":2,"program":24,"isDrum":false},{"pitch":69,"velocity":76,"startTime":169.56485,"endTime":169.67354541666668,"instrument":2,"program":24,"isDrum":false},{"pitch":72,"velocity":76,"startTime":169.56485,"endTime":169.67354541666668,"instrument":2,"program":24,"isDrum":false},{"pitch":62,"velocity":76,"startTime":170.086588,"endTime":170.19528341666668,"instrument":2,"program":24,"isDrum":false},{"pitch":66,"velocity":76,"startTime":170.086588,"endTime":170.19528341666668,"instrument":2,"program":24,"isDrum":false},{"pitch":69,"velocity":76,"startTime":170.086588,"endTime":170.19528341666668,"instrument":2,"program":24,"isDrum":false},{"pitch":72,"velocity":76,"startTime":170.086588,"endTime":170.19528341666668,"instrument":2,"program":24,"isDrum":false},{"pitch":62,"velocity":76,"startTime":170.608326,"endTime":170.71702141666668,"instrument":2,"program":24,"isDrum":false},{"pitch":66,"velocity":76,"startTime":170.608326,"endTime":170.71702141666668,"instrument":2,"program":24,"isDrum":false},{"pitch":69,"velocity":76,"startTime":170.608326,"endTime":170.71702141666668,"instrument":2,"program":24,"isDrum":false},{"pitch":72,"velocity":76,"startTime":170.608326,"endTime":170.71702141666668,"instrument":2,"program":24,"isDrum":false},{"pitch":62,"velocity":76,"startTime":170.86919500000002,"endTime":171.22245510416667,"instrument":2,"program":24,"isDrum":false},{"pitch":67,"velocity":76,"startTime":170.86919500000002,"endTime":171.22245510416667,"instrument":2,"program":24,"isDrum":false},{"pitch":70,"velocity":76,"startTime":170.86919500000002,"endTime":171.22245510416667,"instrument":2,"program":24,"isDrum":false},{"pitch":62,"velocity":76,"startTime":171.651802,"endTime":171.76049741666668,"instrument":2,"program":24,"isDrum":false},{"pitch":67,"velocity":76,"startTime":171.651802,"endTime":171.76049741666668,"instrument":2,"program":24,"isDrum":false},{"pitch":70,"velocity":76,"startTime":171.651802,"endTime":171.76049741666668,"instrument":2,"program":24,"isDrum":false},{"pitch":62,"velocity":76,"startTime":172.17354,"endTime":172.28223541666668,"instrument":2,"program":24,"isDrum":false},{"pitch":67,"velocity":76,"startTime":172.17354,"endTime":172.28223541666668,"instrument":2,"program":24,"isDrum":false},{"pitch":70,"velocity":76,"startTime":172.17354,"endTime":172.28223541666668,"instrument":2,"program":24,"isDrum":false},{"pitch":62,"velocity":76,"startTime":172.695278,"endTime":172.80397341666668,"instrument":2,"program":24,"isDrum":false},{"pitch":67,"velocity":76,"startTime":172.695278,"endTime":172.80397341666668,"instrument":2,"program":24,"isDrum":false},{"pitch":70,"velocity":76,"startTime":172.695278,"endTime":172.80397341666668,"instrument":2,"program":24,"isDrum":false},{"pitch":62,"velocity":76,"startTime":172.95614700000002,"endTime":173.30940710416667,"instrument":2,"program":24,"isDrum":false},{"pitch":67,"velocity":76,"startTime":172.95614700000002,"endTime":173.30940710416667,"instrument":2,"program":24,"isDrum":false},{"pitch":70,"velocity":76,"startTime":172.95614700000002,"endTime":173.30940710416667,"instrument":2,"program":24,"isDrum":false},{"pitch":62,"velocity":76,"startTime":173.73875400000003,"endTime":173.84744941666668,"instrument":2,"program":24,"isDrum":false},{"pitch":67,"velocity":76,"startTime":173.73875400000003,"endTime":173.84744941666668,"instrument":2,"program":24,"isDrum":false},{"pitch":70,"velocity":76,"startTime":173.73875400000003,"endTime":173.84744941666668,"instrument":2,"program":24,"isDrum":false},{"pitch":62,"velocity":76,"startTime":174.26049200000003,"endTime":174.36918741666668,"instrument":2,"program":24,"isDrum":false},{"pitch":67,"velocity":76,"startTime":174.26049200000003,"endTime":174.36918741666668,"instrument":2,"program":24,"isDrum":false},{"pitch":70,"velocity":76,"startTime":174.26049200000003,"endTime":174.36918741666668,"instrument":2,"program":24,"isDrum":false},{"pitch":62,"velocity":76,"startTime":174.78223000000003,"endTime":174.89092541666668,"instrument":2,"program":24,"isDrum":false},{"pitch":67,"velocity":76,"startTime":174.78223000000003,"endTime":174.89092541666668,"instrument":2,"program":24,"isDrum":false},{"pitch":70,"velocity":76,"startTime":174.78223000000003,"endTime":174.89092541666668,"instrument":2,"program":24,"isDrum":false},{"pitch":62,"velocity":76,"startTime":175.043099,"endTime":175.39635910416666,"instrument":2,"program":24,"isDrum":false},{"pitch":66,"velocity":76,"startTime":175.043099,"endTime":175.39635910416666,"instrument":2,"program":24,"isDrum":false},{"pitch":69,"velocity":76,"startTime":175.043099,"endTime":175.39635910416666,"instrument":2,"program":24,"isDrum":false},{"pitch":72,"velocity":76,"startTime":175.043099,"endTime":175.39635910416666,"instrument":2,"program":24,"isDrum":false},{"pitch":62,"velocity":76,"startTime":175.82570600000003,"endTime":175.93440141666667,"instrument":2,"program":24,"isDrum":false},{"pitch":66,"velocity":76,"startTime":175.82570600000003,"endTime":175.93440141666667,"instrument":2,"program":24,"isDrum":false},{"pitch":69,"velocity":76,"startTime":175.82570600000003,"endTime":175.93440141666667,"instrument":2,"program":24,"isDrum":false},{"pitch":72,"velocity":76,"startTime":175.82570600000003,"endTime":175.93440141666667,"instrument":2,"program":24,"isDrum":false},{"pitch":62,"velocity":76,"startTime":176.34744400000002,"endTime":176.45613941666667,"instrument":2,"program":24,"isDrum":false},{"pitch":66,"velocity":76,"startTime":176.34744400000002,"endTime":176.45613941666667,"instrument":2,"program":24,"isDrum":false},{"pitch":69,"velocity":76,"startTime":176.34744400000002,"endTime":176.45613941666667,"instrument":2,"program":24,"isDrum":false},{"pitch":72,"velocity":76,"startTime":176.34744400000002,"endTime":176.45613941666667,"instrument":2,"program":24,"isDrum":false},{"pitch":62,"velocity":76,"startTime":176.86918200000002,"endTime":176.97787741666667,"instrument":2,"program":24,"isDrum":false},{"pitch":66,"velocity":76,"startTime":176.86918200000002,"endTime":176.97787741666667,"instrument":2,"program":24,"isDrum":false},{"pitch":69,"velocity":76,"startTime":176.86918200000002,"endTime":176.97787741666667,"instrument":2,"program":24,"isDrum":false},{"pitch":72,"velocity":76,"startTime":176.86918200000002,"endTime":176.97787741666667,"instrument":2,"program":24,"isDrum":false},{"pitch":62,"velocity":76,"startTime":177.130051,"endTime":177.48331110416666,"instrument":2,"program":24,"isDrum":false},{"pitch":66,"velocity":76,"startTime":177.130051,"endTime":177.48331110416666,"instrument":2,"program":24,"isDrum":false},{"pitch":69,"velocity":76,"startTime":177.130051,"endTime":177.48331110416666,"instrument":2,"program":24,"isDrum":false},{"pitch":72,"velocity":76,"startTime":177.130051,"endTime":177.48331110416666,"instrument":2,"program":24,"isDrum":false},{"pitch":62,"velocity":76,"startTime":177.91265800000002,"endTime":178.02135341666667,"instrument":2,"program":24,"isDrum":false},{"pitch":66,"velocity":76,"startTime":177.91265800000002,"endTime":178.02135341666667,"instrument":2,"program":24,"isDrum":false},{"pitch":69,"velocity":76,"startTime":177.91265800000002,"endTime":178.02135341666667,"instrument":2,"program":24,"isDrum":false},{"pitch":72,"velocity":76,"startTime":177.91265800000002,"endTime":178.02135341666667,"instrument":2,"program":24,"isDrum":false},{"pitch":62,"velocity":76,"startTime":178.43439600000002,"endTime":178.54309141666667,"instrument":2,"program":24,"isDrum":false},{"pitch":66,"velocity":76,"startTime":178.43439600000002,"endTime":178.54309141666667,"instrument":2,"program":24,"isDrum":false},{"pitch":69,"velocity":76,"startTime":178.43439600000002,"endTime":178.54309141666667,"instrument":2,"program":24,"isDrum":false},{"pitch":72,"velocity":76,"startTime":178.43439600000002,"endTime":178.54309141666667,"instrument":2,"program":24,"isDrum":false},{"pitch":62,"velocity":76,"startTime":178.95613400000002,"endTime":179.06482941666667,"instrument":2,"program":24,"isDrum":false},{"pitch":66,"velocity":76,"startTime":178.95613400000002,"endTime":179.06482941666667,"instrument":2,"program":24,"isDrum":false},{"pitch":69,"velocity":76,"startTime":178.95613400000002,"endTime":179.06482941666667,"instrument":2,"program":24,"isDrum":false},{"pitch":72,"velocity":76,"startTime":178.95613400000002,"endTime":179.06482941666667,"instrument":2,"program":24,"isDrum":false},{"pitch":62,"velocity":76,"startTime":179.217003,"endTime":179.57026310416668,"instrument":2,"program":24,"isDrum":false},{"pitch":67,"velocity":76,"startTime":179.217003,"endTime":179.57026310416668,"instrument":2,"program":24,"isDrum":false},{"pitch":70,"velocity":76,"startTime":179.217003,"endTime":179.57026310416668,"instrument":2,"program":24,"isDrum":false},{"pitch":62,"velocity":76,"startTime":179.99961000000002,"endTime":180.10830541666667,"instrument":2,"program":24,"isDrum":false},{"pitch":67,"velocity":76,"startTime":179.99961000000002,"endTime":180.10830541666667,"instrument":2,"program":24,"isDrum":false},{"pitch":70,"velocity":76,"startTime":179.99961000000002,"endTime":180.10830541666667,"instrument":2,"program":24,"isDrum":false},{"pitch":62,"velocity":76,"startTime":180.52134800000002,"endTime":180.63004341666667,"instrument":2,"program":24,"isDrum":false},{"pitch":67,"velocity":76,"startTime":180.52134800000002,"endTime":180.63004341666667,"instrument":2,"program":24,"isDrum":false},{"pitch":70,"velocity":76,"startTime":180.52134800000002,"endTime":180.63004341666667,"instrument":2,"program":24,"isDrum":false},{"pitch":62,"velocity":76,"startTime":181.04308600000002,"endTime":181.15178141666667,"instrument":2,"program":24,"isDrum":false},{"pitch":67,"velocity":76,"startTime":181.04308600000002,"endTime":181.15178141666667,"instrument":2,"program":24,"isDrum":false},{"pitch":70,"velocity":76,"startTime":181.04308600000002,"endTime":181.15178141666667,"instrument":2,"program":24,"isDrum":false},{"pitch":62,"velocity":76,"startTime":181.303955,"endTime":181.65721510416668,"instrument":2,"program":24,"isDrum":false},{"pitch":67,"velocity":76,"startTime":181.303955,"endTime":181.65721510416668,"instrument":2,"program":24,"isDrum":false},{"pitch":70,"velocity":76,"startTime":181.303955,"endTime":181.65721510416668,"instrument":2,"program":24,"isDrum":false},{"pitch":62,"velocity":76,"startTime":182.08656200000001,"endTime":182.19525741666666,"instrument":2,"program":24,"isDrum":false},{"pitch":67,"velocity":76,"startTime":182.08656200000001,"endTime":182.19525741666666,"instrument":2,"program":24,"isDrum":false},{"pitch":70,"velocity":76,"startTime":182.08656200000001,"endTime":182.19525741666666,"instrument":2,"program":24,"isDrum":false},{"pitch":62,"velocity":76,"startTime":182.6083,"endTime":182.71699541666666,"instrument":2,"program":24,"isDrum":false},{"pitch":67,"velocity":76,"startTime":182.6083,"endTime":182.71699541666666,"instrument":2,"program":24,"isDrum":false},{"pitch":70,"velocity":76,"startTime":182.6083,"endTime":182.71699541666666,"instrument":2,"program":24,"isDrum":false},{"pitch":62,"velocity":76,"startTime":183.130038,"endTime":183.23873341666666,"instrument":2,"program":24,"isDrum":false},{"pitch":67,"velocity":76,"startTime":183.130038,"endTime":183.23873341666666,"instrument":2,"program":24,"isDrum":false},{"pitch":70,"velocity":76,"startTime":183.130038,"endTime":183.23873341666666,"instrument":2,"program":24,"isDrum":false},{"pitch":63,"velocity":76,"startTime":183.39090700000003,"endTime":183.74416710416668,"instrument":2,"program":24,"isDrum":false},{"pitch":67,"velocity":76,"startTime":183.39090700000003,"endTime":183.74416710416668,"instrument":2,"program":24,"isDrum":false},{"pitch":72,"velocity":76,"startTime":183.39090700000003,"endTime":183.74416710416668,"instrument":2,"program":24,"isDrum":false},{"pitch":63,"velocity":76,"startTime":184.173514,"endTime":184.28220941666666,"instrument":2,"program":24,"isDrum":false},{"pitch":67,"velocity":76,"startTime":184.173514,"endTime":184.28220941666666,"instrument":2,"program":24,"isDrum":false},{"pitch":72,"velocity":76,"startTime":184.173514,"endTime":184.28220941666666,"instrument":2,"program":24,"isDrum":false},{"pitch":63,"velocity":76,"startTime":184.695252,"endTime":184.80394741666666,"instrument":2,"program":24,"isDrum":false},{"pitch":67,"velocity":76,"startTime":184.695252,"endTime":184.80394741666666,"instrument":2,"program":24,"isDrum":false},{"pitch":72,"velocity":76,"startTime":184.695252,"endTime":184.80394741666666,"instrument":2,"program":24,"isDrum":false},{"pitch":63,"velocity":76,"startTime":185.21699,"endTime":185.3256854166667,"instrument":2,"program":24,"isDrum":false},{"pitch":67,"velocity":76,"startTime":185.21699,"endTime":185.3256854166667,"instrument":2,"program":24,"isDrum":false},{"pitch":72,"velocity":76,"startTime":185.21699,"endTime":185.3256854166667,"instrument":2,"program":24,"isDrum":false},{"pitch":63,"velocity":76,"startTime":185.47785900000002,"endTime":185.83111910416667,"instrument":2,"program":24,"isDrum":false},{"pitch":67,"velocity":76,"startTime":185.47785900000002,"endTime":185.83111910416667,"instrument":2,"program":24,"isDrum":false},{"pitch":72,"velocity":76,"startTime":185.47785900000002,"endTime":185.83111910416667,"instrument":2,"program":24,"isDrum":false},{"pitch":63,"velocity":76,"startTime":186.260466,"endTime":186.36916141666669,"instrument":2,"program":24,"isDrum":false},{"pitch":67,"velocity":76,"startTime":186.260466,"endTime":186.36916141666669,"instrument":2,"program":24,"isDrum":false},{"pitch":72,"velocity":76,"startTime":186.260466,"endTime":186.36916141666669,"instrument":2,"program":24,"isDrum":false},{"pitch":63,"velocity":76,"startTime":186.782204,"endTime":186.89089941666668,"instrument":2,"program":24,"isDrum":false},{"pitch":67,"velocity":76,"startTime":186.782204,"endTime":186.89089941666668,"instrument":2,"program":24,"isDrum":false},{"pitch":72,"velocity":76,"startTime":186.782204,"endTime":186.89089941666668,"instrument":2,"program":24,"isDrum":false},{"pitch":63,"velocity":76,"startTime":187.303942,"endTime":187.41263741666668,"instrument":2,"program":24,"isDrum":false},{"pitch":67,"velocity":76,"startTime":187.303942,"endTime":187.41263741666668,"instrument":2,"program":24,"isDrum":false},{"pitch":72,"velocity":76,"startTime":187.303942,"endTime":187.41263741666668,"instrument":2,"program":24,"isDrum":false},{"pitch":62,"velocity":76,"startTime":187.56481100000002,"endTime":187.91807110416667,"instrument":2,"program":24,"isDrum":false},{"pitch":67,"velocity":76,"startTime":187.56481100000002,"endTime":187.91807110416667,"instrument":2,"program":24,"isDrum":false},{"pitch":70,"velocity":76,"startTime":187.56481100000002,"endTime":187.91807110416667,"instrument":2,"program":24,"isDrum":false},{"pitch":62,"velocity":76,"startTime":188.347418,"endTime":188.45611341666668,"instrument":2,"program":24,"isDrum":false},{"pitch":67,"velocity":76,"startTime":188.347418,"endTime":188.45611341666668,"instrument":2,"program":24,"isDrum":false},{"pitch":70,"velocity":76,"startTime":188.347418,"endTime":188.45611341666668,"instrument":2,"program":24,"isDrum":false},{"pitch":62,"velocity":76,"startTime":188.869156,"endTime":188.97785141666668,"instrument":2,"program":24,"isDrum":false},{"pitch":67,"velocity":76,"startTime":188.869156,"endTime":188.97785141666668,"instrument":2,"program":24,"isDrum":false},{"pitch":70,"velocity":76,"startTime":188.869156,"endTime":188.97785141666668,"instrument":2,"program":24,"isDrum":false},{"pitch":62,"velocity":76,"startTime":189.390894,"endTime":189.49958941666668,"instrument":2,"program":24,"isDrum":false},{"pitch":67,"velocity":76,"startTime":189.390894,"endTime":189.49958941666668,"instrument":2,"program":24,"isDrum":false},{"pitch":70,"velocity":76,"startTime":189.390894,"endTime":189.49958941666668,"instrument":2,"program":24,"isDrum":false},{"pitch":62,"velocity":76,"startTime":189.65176300000002,"endTime":190.00502310416667,"instrument":2,"program":24,"isDrum":false},{"pitch":67,"velocity":76,"startTime":189.65176300000002,"endTime":190.00502310416667,"instrument":2,"program":24,"isDrum":false},{"pitch":70,"velocity":76,"startTime":189.65176300000002,"endTime":190.00502310416667,"instrument":2,"program":24,"isDrum":false},{"pitch":62,"velocity":76,"startTime":190.43437000000003,"endTime":190.54306541666668,"instrument":2,"program":24,"isDrum":false},{"pitch":67,"velocity":76,"startTime":190.43437000000003,"endTime":190.54306541666668,"instrument":2,"program":24,"isDrum":false},{"pitch":70,"velocity":76,"startTime":190.43437000000003,"endTime":190.54306541666668,"instrument":2,"program":24,"isDrum":false},{"pitch":62,"velocity":76,"startTime":190.95610800000003,"endTime":191.06480341666668,"instrument":2,"program":24,"isDrum":false},{"pitch":67,"velocity":76,"startTime":190.95610800000003,"endTime":191.06480341666668,"instrument":2,"program":24,"isDrum":false},{"pitch":70,"velocity":76,"startTime":190.95610800000003,"endTime":191.06480341666668,"instrument":2,"program":24,"isDrum":false},{"pitch":62,"velocity":76,"startTime":191.47784600000003,"endTime":191.58654141666668,"instrument":2,"program":24,"isDrum":false},{"pitch":67,"velocity":76,"startTime":191.47784600000003,"endTime":191.58654141666668,"instrument":2,"program":24,"isDrum":false},{"pitch":70,"velocity":76,"startTime":191.47784600000003,"endTime":191.58654141666668,"instrument":2,"program":24,"isDrum":false},{"pitch":62,"velocity":76,"startTime":191.738715,"endTime":192.09197510416666,"instrument":2,"program":24,"isDrum":false},{"pitch":66,"velocity":76,"startTime":191.738715,"endTime":192.09197510416666,"instrument":2,"program":24,"isDrum":false},{"pitch":69,"velocity":76,"startTime":191.738715,"endTime":192.09197510416666,"instrument":2,"program":24,"isDrum":false},{"pitch":72,"velocity":76,"startTime":191.738715,"endTime":192.09197510416666,"instrument":2,"program":24,"isDrum":false},{"pitch":62,"velocity":76,"startTime":192.52132200000003,"endTime":192.63001741666667,"instrument":2,"program":24,"isDrum":false},{"pitch":66,"velocity":76,"startTime":192.52132200000003,"endTime":192.63001741666667,"instrument":2,"program":24,"isDrum":false},{"pitch":69,"velocity":76,"startTime":192.52132200000003,"endTime":192.63001741666667,"instrument":2,"program":24,"isDrum":false},{"pitch":72,"velocity":76,"startTime":192.52132200000003,"endTime":192.63001741666667,"instrument":2,"program":24,"isDrum":false},{"pitch":62,"velocity":76,"startTime":193.04306000000003,"endTime":193.15175541666667,"instrument":2,"program":24,"isDrum":false},{"pitch":66,"velocity":76,"startTime":193.04306000000003,"endTime":193.15175541666667,"instrument":2,"program":24,"isDrum":false},{"pitch":69,"velocity":76,"startTime":193.04306000000003,"endTime":193.15175541666667,"instrument":2,"program":24,"isDrum":false},{"pitch":72,"velocity":76,"startTime":193.04306000000003,"endTime":193.15175541666667,"instrument":2,"program":24,"isDrum":false},{"pitch":62,"velocity":76,"startTime":193.56479800000002,"endTime":193.67349341666667,"instrument":2,"program":24,"isDrum":false},{"pitch":66,"velocity":76,"startTime":193.56479800000002,"endTime":193.67349341666667,"instrument":2,"program":24,"isDrum":false},{"pitch":69,"velocity":76,"startTime":193.56479800000002,"endTime":193.67349341666667,"instrument":2,"program":24,"isDrum":false},{"pitch":72,"velocity":76,"startTime":193.56479800000002,"endTime":193.67349341666667,"instrument":2,"program":24,"isDrum":false},{"pitch":62,"velocity":76,"startTime":193.825667,"endTime":194.17892710416666,"instrument":2,"program":24,"isDrum":false},{"pitch":66,"velocity":76,"startTime":193.825667,"endTime":194.17892710416666,"instrument":2,"program":24,"isDrum":false},{"pitch":69,"velocity":76,"startTime":193.825667,"endTime":194.17892710416666,"instrument":2,"program":24,"isDrum":false},{"pitch":72,"velocity":76,"startTime":193.825667,"endTime":194.17892710416666,"instrument":2,"program":24,"isDrum":false},{"pitch":62,"velocity":76,"startTime":194.60827400000002,"endTime":194.71696941666667,"instrument":2,"program":24,"isDrum":false},{"pitch":66,"velocity":76,"startTime":194.60827400000002,"endTime":194.71696941666667,"instrument":2,"program":24,"isDrum":false},{"pitch":69,"velocity":76,"startTime":194.60827400000002,"endTime":194.71696941666667,"instrument":2,"program":24,"isDrum":false},{"pitch":72,"velocity":76,"startTime":194.60827400000002,"endTime":194.71696941666667,"instrument":2,"program":24,"isDrum":false},{"pitch":62,"velocity":76,"startTime":195.13001200000002,"endTime":195.23870741666667,"instrument":2,"program":24,"isDrum":false},{"pitch":66,"velocity":76,"startTime":195.13001200000002,"endTime":195.23870741666667,"instrument":2,"program":24,"isDrum":false},{"pitch":69,"velocity":76,"startTime":195.13001200000002,"endTime":195.23870741666667,"instrument":2,"program":24,"isDrum":false},{"pitch":72,"velocity":76,"startTime":195.13001200000002,"endTime":195.23870741666667,"instrument":2,"program":24,"isDrum":false},{"pitch":62,"velocity":76,"startTime":195.65175000000002,"endTime":195.76044541666667,"instrument":2,"program":24,"isDrum":false},{"pitch":66,"velocity":76,"startTime":195.65175000000002,"endTime":195.76044541666667,"instrument":2,"program":24,"isDrum":false},{"pitch":69,"velocity":76,"startTime":195.65175000000002,"endTime":195.76044541666667,"instrument":2,"program":24,"isDrum":false},{"pitch":72,"velocity":76,"startTime":195.65175000000002,"endTime":195.76044541666667,"instrument":2,"program":24,"isDrum":false},{"pitch":62,"velocity":76,"startTime":195.912619,"endTime":196.2658791041667,"instrument":2,"program":24,"isDrum":false},{"pitch":67,"velocity":76,"startTime":195.912619,"endTime":196.2658791041667,"instrument":2,"program":24,"isDrum":false},{"pitch":70,"velocity":76,"startTime":195.912619,"endTime":196.2658791041667,"instrument":2,"program":24,"isDrum":false},{"pitch":62,"velocity":76,"startTime":198.52130900000003,"endTime":198.87456910416668,"instrument":2,"program":24,"isDrum":false},{"pitch":66,"velocity":76,"startTime":198.78217800000002,"endTime":199.13543810416667,"instrument":2,"program":24,"isDrum":false},{"pitch":69,"velocity":76,"startTime":198.78217800000002,"endTime":199.13543810416667,"instrument":2,"program":24,"isDrum":false},{"pitch":72,"velocity":76,"startTime":198.78217800000002,"endTime":199.13543810416667,"instrument":2,"program":24,"isDrum":false},{"pitch":62,"velocity":76,"startTime":199.30391600000002,"endTime":199.41261141666666,"instrument":2,"program":24,"isDrum":false},{"pitch":67,"velocity":76,"startTime":199.30391600000002,"endTime":199.41261141666666,"instrument":2,"program":24,"isDrum":false},{"pitch":70,"velocity":76,"startTime":199.30391600000002,"endTime":199.41261141666666,"instrument":2,"program":24,"isDrum":false},{"pitch":57,"velocity":56,"startTime":0,"endTime":4.173904,"instrument":3,"program":99,"isDrum":false},{"pitch":60,"velocity":56,"startTime":0,"endTime":4.152164916666667,"instrument":3,"program":99,"isDrum":false},{"pitch":62,"velocity":56,"startTime":0,"endTime":4.130425833333334,"instrument":3,"program":99,"isDrum":false},{"pitch":66,"velocity":56,"startTime":0,"endTime":4.152164916666667,"instrument":3,"program":99,"isDrum":false},{"pitch":58,"velocity":56,"startTime":4.173904,"endTime":8.347808,"instrument":3,"program":99,"isDrum":false},{"pitch":62,"velocity":56,"startTime":4.173904,"endTime":16.695616,"instrument":3,"program":99,"isDrum":false},{"pitch":67,"velocity":56,"startTime":4.173904,"endTime":8.347808,"instrument":3,"program":99,"isDrum":false},{"pitch":60,"velocity":56,"startTime":8.347808,"endTime":12.499972916666668,"instrument":3,"program":99,"isDrum":false},{"pitch":66,"velocity":56,"startTime":8.347808,"endTime":12.521712,"instrument":3,"program":99,"isDrum":false},{"pitch":69,"velocity":56,"startTime":8.347808,"endTime":12.499972916666668,"instrument":3,"program":99,"isDrum":false},{"pitch":58,"velocity":56,"startTime":12.521712,"endTime":16.695616,"instrument":3,"program":99,"isDrum":false},{"pitch":67,"velocity":56,"startTime":12.521712,"endTime":20.836911375,"instrument":3,"program":99,"isDrum":false},{"pitch":60,"velocity":56,"startTime":16.695616,"endTime":20.826041833333335,"instrument":3,"program":99,"isDrum":false},{"pitch":63,"velocity":56,"startTime":16.695616,"endTime":20.836911375,"instrument":3,"program":99,"isDrum":false},{"pitch":62,"velocity":56,"startTime":20.86952,"endTime":29.402110208333333,"instrument":3,"program":99,"isDrum":false},{"pitch":67,"velocity":56,"startTime":20.86952,"endTime":25.010815375,"instrument":3,"program":99,"isDrum":false},{"pitch":70,"velocity":56,"startTime":20.86952,"endTime":25.02168491666667,"instrument":3,"program":99,"isDrum":false},{"pitch":66,"velocity":56,"startTime":25.043424,"endTime":29.206458458333334,"instrument":3,"program":99,"isDrum":false},{"pitch":69,"velocity":56,"startTime":25.043424,"endTime":29.233632312500003,"instrument":3,"program":99,"isDrum":false},{"pitch":72,"velocity":56,"startTime":25.043424,"endTime":29.239067083333335,"instrument":3,"program":99,"isDrum":false},{"pitch":67,"velocity":56,"startTime":29.217328000000002,"endTime":29.434718833333335,"instrument":3,"program":99,"isDrum":false},{"pitch":70,"velocity":56,"startTime":29.217328000000002,"endTime":29.445588375000003,"instrument":3,"program":99,"isDrum":false},{"pitch":62,"velocity":56,"startTime":31.565149,"endTime":32.293408291666665,"instrument":3,"program":99,"isDrum":false},{"pitch":60,"velocity":56,"startTime":31.826018,"endTime":32.304277833333344,"instrument":3,"program":99,"isDrum":false},{"pitch":66,"velocity":56,"startTime":31.826018,"endTime":32.293408291666665,"instrument":3,"program":99,"isDrum":false},{"pitch":58,"velocity":56,"startTime":32.347756000000004,"endTime":32.49449481250001,"instrument":3,"program":99,"isDrum":false},{"pitch":62,"velocity":56,"startTime":32.347756000000004,"endTime":32.48906004166666,"instrument":3,"program":99,"isDrum":false},{"pitch":67,"velocity":56,"startTime":32.347756000000004,"endTime":32.48906004166666,"instrument":3,"program":99,"isDrum":false},{"pitch":57,"velocity":56,"startTime":33.391232,"endTime":37.56513600000001,"instrument":3,"program":99,"isDrum":false},{"pitch":60,"velocity":56,"startTime":33.391232,"endTime":37.543396916666666,"instrument":3,"program":99,"isDrum":false},{"pitch":62,"velocity":56,"startTime":33.391232,"endTime":37.521657833333336,"instrument":3,"program":99,"isDrum":false},{"pitch":66,"velocity":56,"startTime":33.391232,"endTime":37.543396916666666,"instrument":3,"program":99,"isDrum":false},{"pitch":58,"velocity":56,"startTime":37.56513600000001,"endTime":41.73904,"instrument":3,"program":99,"isDrum":false},{"pitch":62,"velocity":56,"startTime":37.56513600000001,"endTime":50.086848,"instrument":3,"program":99,"isDrum":false},{"pitch":67,"velocity":56,"startTime":37.56513600000001,"endTime":41.73904,"instrument":3,"program":99,"isDrum":false},{"pitch":60,"velocity":56,"startTime":41.73904,"endTime":45.891204916666666,"instrument":3,"program":99,"isDrum":false},{"pitch":66,"velocity":56,"startTime":41.73904,"endTime":45.91294400000001,"instrument":3,"program":99,"isDrum":false},{"pitch":69,"velocity":56,"startTime":41.73904,"endTime":45.891204916666666,"instrument":3,"program":99,"isDrum":false},{"pitch":58,"velocity":56,"startTime":45.91294400000001,"endTime":50.086848,"instrument":3,"program":99,"isDrum":false},{"pitch":67,"velocity":56,"startTime":45.91294400000001,"endTime":54.228143375,"instrument":3,"program":99,"isDrum":false},{"pitch":60,"velocity":56,"startTime":50.086848,"endTime":54.21727383333334,"instrument":3,"program":99,"isDrum":false},{"pitch":63,"velocity":56,"startTime":50.086848,"endTime":54.228143375,"instrument":3,"program":99,"isDrum":false},{"pitch":62,"velocity":56,"startTime":54.26075200000001,"endTime":62.79334220833334,"instrument":3,"program":99,"isDrum":false},{"pitch":67,"velocity":56,"startTime":54.26075200000001,"endTime":58.40204737500001,"instrument":3,"program":99,"isDrum":false},{"pitch":70,"velocity":56,"startTime":54.26075200000001,"endTime":58.412916916666674,"instrument":3,"program":99,"isDrum":false},{"pitch":66,"velocity":56,"startTime":58.434656000000004,"endTime":62.597690458333346,"instrument":3,"program":99,"isDrum":false},{"pitch":69,"velocity":56,"startTime":58.434656000000004,"endTime":62.62486431250001,"instrument":3,"program":99,"isDrum":false},{"pitch":72,"velocity":56,"startTime":58.434656000000004,"endTime":62.63029908333334,"instrument":3,"program":99,"isDrum":false},{"pitch":67,"velocity":56,"startTime":62.60856000000001,"endTime":62.82595083333334,"instrument":3,"program":99,"isDrum":false},{"pitch":70,"velocity":56,"startTime":62.60856000000001,"endTime":62.836820375,"instrument":3,"program":99,"isDrum":false},{"pitch":62,"velocity":56,"startTime":64.95638100000001,"endTime":65.68464029166668,"instrument":3,"program":99,"isDrum":false},{"pitch":60,"velocity":56,"startTime":65.21725,"endTime":65.69550983333333,"instrument":3,"program":99,"isDrum":false},{"pitch":66,"velocity":56,"startTime":65.21725,"endTime":65.68464029166668,"instrument":3,"program":99,"isDrum":false},{"pitch":58,"velocity":56,"startTime":65.738988,"endTime":65.88572681250001,"instrument":3,"program":99,"isDrum":false},{"pitch":62,"velocity":56,"startTime":65.738988,"endTime":65.88029204166668,"instrument":3,"program":99,"isDrum":false},{"pitch":67,"velocity":56,"startTime":65.738988,"endTime":65.88029204166668,"instrument":3,"program":99,"isDrum":false},{"pitch":43,"velocity":56,"startTime":66.782464,"endTime":67.63028825,"instrument":3,"program":99,"isDrum":false},{"pitch":55,"velocity":56,"startTime":66.782464,"endTime":67.57594054166668,"instrument":3,"program":99,"isDrum":false},{"pitch":67,"velocity":56,"startTime":66.782464,"endTime":67.82594,"instrument":3,"program":99,"isDrum":false},{"pitch":41,"velocity":56,"startTime":67.82594,"endTime":68.67376425,"instrument":3,"program":99,"isDrum":false},{"pitch":53,"velocity":56,"startTime":67.82594,"endTime":68.53246020833333,"instrument":3,"program":99,"isDrum":false},{"pitch":65,"velocity":56,"startTime":67.82594,"endTime":68.88028554166668,"instrument":3,"program":99,"isDrum":false},{"pitch":40,"velocity":56,"startTime":68.869416,"endTime":69.62484914583334,"instrument":3,"program":99,"isDrum":false},{"pitch":52,"velocity":56,"startTime":68.869416,"endTime":69.51615372916667,"instrument":3,"program":99,"isDrum":false},{"pitch":64,"velocity":56,"startTime":68.869416,"endTime":69.83680520833333,"instrument":3,"program":99,"isDrum":false},{"pitch":39,"velocity":56,"startTime":69.91289200000001,"endTime":70.43463000000001,"instrument":3,"program":99,"isDrum":false},{"pitch":51,"velocity":56,"startTime":69.91289200000001,"endTime":70.402021375,"instrument":3,"program":99,"isDrum":false},{"pitch":63,"velocity":56,"startTime":69.91289200000001,"endTime":70.45636908333334,"instrument":3,"program":99,"isDrum":false},{"pitch":38,"velocity":56,"startTime":70.43463000000001,"endTime":70.988976625,"instrument":3,"program":99,"isDrum":false},{"pitch":50,"velocity":56,"startTime":70.43463000000001,"endTime":70.988976625,"instrument":3,"program":99,"isDrum":false},{"pitch":62,"velocity":56,"startTime":70.43463000000001,"endTime":70.95636800000001,"instrument":3,"program":99,"isDrum":false},{"pitch":43,"velocity":56,"startTime":70.95636800000001,"endTime":71.27701947916668,"instrument":3,"program":99,"isDrum":false},{"pitch":55,"velocity":56,"startTime":70.95636800000001,"endTime":71.2661499375,"instrument":3,"program":99,"isDrum":false},{"pitch":67,"velocity":56,"startTime":70.95636800000001,"endTime":71.27701947916668,"instrument":3,"program":99,"isDrum":false},{"pitch":60,"velocity":56,"startTime":73.04332000000001,"endTime":81.12482422916668,"instrument":3,"program":99,"isDrum":false},{"pitch":62,"velocity":56,"startTime":73.04332000000001,"endTime":83.315036875,"instrument":3,"program":99,"isDrum":false},{"pitch":66,"velocity":56,"startTime":73.04332000000001,"endTime":81.25525872916668,"instrument":3,"program":99,"isDrum":false},{"pitch":69,"velocity":56,"startTime":79.30417600000001,"endTime":81.30417166666668,"instrument":3,"program":99,"isDrum":false},{"pitch":58,"velocity":56,"startTime":81.39112800000001,"endTime":83.39112366666669,"instrument":3,"program":99,"isDrum":false},{"pitch":67,"velocity":56,"startTime":81.39112800000001,"endTime":83.46721045833334,"instrument":3,"program":99,"isDrum":false},{"pitch":43,"velocity":56,"startTime":83.47808,"endTime":84.521556,"instrument":3,"program":99,"isDrum":false},{"pitch":55,"velocity":56,"startTime":83.47808,"endTime":84.49981691666667,"instrument":3,"program":99,"isDrum":false},{"pitch":67,"velocity":56,"startTime":83.47808,"endTime":84.48894737500001,"instrument":3,"program":99,"isDrum":false},{"pitch":41,"velocity":56,"startTime":84.521556,"endTime":85.53242337500001,"instrument":3,"program":99,"isDrum":false},{"pitch":53,"velocity":56,"startTime":84.521556,"endTime":85.59764062500001,"instrument":3,"program":99,"isDrum":false},{"pitch":65,"velocity":56,"startTime":84.521556,"endTime":85.565032,"instrument":3,"program":99,"isDrum":false},{"pitch":40,"velocity":56,"startTime":85.565032,"endTime":86.56502983333334,"instrument":3,"program":99,"isDrum":false},{"pitch":52,"velocity":56,"startTime":85.565032,"endTime":86.58676891666668,"instrument":3,"program":99,"isDrum":false},{"pitch":64,"velocity":56,"startTime":85.565032,"endTime":86.58133414583334,"instrument":3,"program":99,"isDrum":false},{"pitch":39,"velocity":56,"startTime":86.60850800000001,"endTime":87.08676783333334,"instrument":3,"program":99,"isDrum":false},{"pitch":51,"velocity":56,"startTime":86.60850800000001,"endTime":87.06502875000001,"instrument":3,"program":99,"isDrum":false},{"pitch":63,"velocity":56,"startTime":86.60850800000001,"endTime":87.12481122916668,"instrument":3,"program":99,"isDrum":false},{"pitch":38,"velocity":56,"startTime":87.13024600000001,"endTime":87.60850583333334,"instrument":3,"program":99,"isDrum":false},{"pitch":50,"velocity":56,"startTime":87.13024600000001,"endTime":87.59763629166667,"instrument":3,"program":99,"isDrum":false},{"pitch":62,"velocity":56,"startTime":87.13024600000001,"endTime":87.64654922916668,"instrument":3,"program":99,"isDrum":false},{"pitch":43,"velocity":56,"startTime":87.65198400000001,"endTime":87.93459208333334,"instrument":3,"program":99,"isDrum":false},{"pitch":55,"velocity":56,"startTime":87.65198400000001,"endTime":87.92915731250001,"instrument":3,"program":99,"isDrum":false},{"pitch":67,"velocity":56,"startTime":87.65198400000001,"endTime":87.9617659375,"instrument":3,"program":99,"isDrum":false},{"pitch":60,"velocity":56,"startTime":89.73893600000001,"endTime":91.98893112500001,"instrument":3,"program":99,"isDrum":false},{"pitch":63,"velocity":56,"startTime":89.73893600000001,"endTime":91.98893112500001,"instrument":3,"program":99,"isDrum":false},{"pitch":67,"velocity":56,"startTime":89.73893600000001,"endTime":91.98893112500001,"instrument":3,"program":99,"isDrum":false},{"pitch":60,"velocity":56,"startTime":92.086757,"endTime":92.22806104166668,"instrument":3,"program":99,"isDrum":false},{"pitch":63,"velocity":56,"startTime":92.086757,"endTime":92.21719150000001,"instrument":3,"program":99,"isDrum":false},{"pitch":67,"velocity":56,"startTime":92.086757,"endTime":92.22806104166668,"instrument":3,"program":99,"isDrum":false},{"pitch":60,"velocity":56,"startTime":92.608495,"endTime":92.706320875,"instrument":3,"program":99,"isDrum":false},{"pitch":63,"velocity":56,"startTime":92.608495,"endTime":92.69545133333334,"instrument":3,"program":99,"isDrum":false},{"pitch":67,"velocity":56,"startTime":92.608495,"endTime":92.70088610416668,"instrument":3,"program":99,"isDrum":false},{"pitch":60,"velocity":56,"startTime":93.130233,"endTime":93.27153704166668,"instrument":3,"program":99,"isDrum":false},{"pitch":63,"velocity":56,"startTime":93.130233,"endTime":93.22805887500002,"instrument":3,"program":99,"isDrum":false},{"pitch":67,"velocity":56,"startTime":93.130233,"endTime":93.23892841666668,"instrument":3,"program":99,"isDrum":false},{"pitch":60,"velocity":56,"startTime":93.391102,"endTime":93.54327558333334,"instrument":3,"program":99,"isDrum":false},{"pitch":63,"velocity":56,"startTime":93.391102,"endTime":93.54327558333334,"instrument":3,"program":99,"isDrum":false},{"pitch":67,"velocity":56,"startTime":93.391102,"endTime":93.54327558333334,"instrument":3,"program":99,"isDrum":false},{"pitch":58,"velocity":56,"startTime":93.91284000000002,"endTime":94.05414404166667,"instrument":3,"program":99,"isDrum":false},{"pitch":62,"velocity":56,"startTime":93.91284000000002,"endTime":94.05414404166667,"instrument":3,"program":99,"isDrum":false},{"pitch":67,"velocity":56,"startTime":93.91284000000002,"endTime":94.03240495833334,"instrument":3,"program":99,"isDrum":false},{"pitch":58,"velocity":56,"startTime":94.17370900000002,"endTime":94.34762166666668,"instrument":3,"program":99,"isDrum":false},{"pitch":62,"velocity":56,"startTime":94.17370900000002,"endTime":94.336752125,"instrument":3,"program":99,"isDrum":false},{"pitch":67,"velocity":56,"startTime":94.17370900000002,"endTime":94.32588258333334,"instrument":3,"program":99,"isDrum":false},{"pitch":58,"velocity":56,"startTime":94.69544700000002,"endTime":94.79327287500001,"instrument":3,"program":99,"isDrum":false},{"pitch":62,"velocity":56,"startTime":94.69544700000002,"endTime":94.80414241666668,"instrument":3,"program":99,"isDrum":false},{"pitch":67,"velocity":56,"startTime":94.69544700000002,"endTime":94.79870764583333,"instrument":3,"program":99,"isDrum":false},{"pitch":58,"velocity":56,"startTime":95.21718500000001,"endTime":95.34761950000001,"instrument":3,"program":99,"isDrum":false},{"pitch":62,"velocity":56,"startTime":95.21718500000001,"endTime":95.35848904166669,"instrument":3,"program":99,"isDrum":false},{"pitch":67,"velocity":56,"startTime":95.21718500000001,"endTime":95.33674995833334,"instrument":3,"program":99,"isDrum":false},{"pitch":58,"velocity":56,"startTime":95.47805400000001,"endTime":95.58674941666668,"instrument":3,"program":99,"isDrum":false},{"pitch":62,"velocity":56,"startTime":95.47805400000001,"endTime":95.6084885,"instrument":3,"program":99,"isDrum":false},{"pitch":67,"velocity":56,"startTime":95.47805400000001,"endTime":95.61392327083334,"instrument":3,"program":99,"isDrum":false},{"pitch":60,"velocity":56,"startTime":95.99979200000001,"endTime":96.70631220833334,"instrument":3,"program":99,"isDrum":false},{"pitch":62,"velocity":56,"startTime":95.99979200000001,"endTime":96.71718175000001,"instrument":3,"program":99,"isDrum":false},{"pitch":66,"velocity":56,"startTime":95.99979200000001,"endTime":96.749790375,"instrument":3,"program":99,"isDrum":false},{"pitch":62,"velocity":56,"startTime":98.34761300000001,"endTime":99.07587229166668,"instrument":3,"program":99,"isDrum":false},{"pitch":60,"velocity":56,"startTime":98.60848200000001,"endTime":99.10848091666668,"instrument":3,"program":99,"isDrum":false},{"pitch":66,"velocity":56,"startTime":98.60848200000001,"endTime":99.05956797916669,"instrument":3,"program":99,"isDrum":false},{"pitch":58,"velocity":56,"startTime":99.13022000000001,"endTime":99.30413266666667,"instrument":3,"program":99,"isDrum":false},{"pitch":62,"velocity":56,"startTime":99.13022000000001,"endTime":99.30956743750001,"instrument":3,"program":99,"isDrum":false},{"pitch":67,"velocity":56,"startTime":99.13022000000001,"endTime":99.30956743750001,"instrument":3,"program":99,"isDrum":false},{"pitch":57,"velocity":56,"startTime":100.173696,"endTime":104.34760000000001,"instrument":3,"program":99,"isDrum":false},{"pitch":60,"velocity":56,"startTime":100.173696,"endTime":104.32586091666668,"instrument":3,"program":99,"isDrum":false},{"pitch":62,"velocity":56,"startTime":100.173696,"endTime":104.30412183333334,"instrument":3,"program":99,"isDrum":false},{"pitch":66,"velocity":56,"startTime":100.173696,"endTime":104.32586091666668,"instrument":3,"program":99,"isDrum":false},{"pitch":58,"velocity":56,"startTime":104.34760000000001,"endTime":108.52150400000001,"instrument":3,"program":99,"isDrum":false},{"pitch":62,"velocity":56,"startTime":104.34760000000001,"endTime":116.86931200000001,"instrument":3,"program":99,"isDrum":false},{"pitch":67,"velocity":56,"startTime":104.34760000000001,"endTime":108.52150400000001,"instrument":3,"program":99,"isDrum":false},{"pitch":60,"velocity":56,"startTime":108.52150400000001,"endTime":112.67366891666668,"instrument":3,"program":99,"isDrum":false},{"pitch":66,"velocity":56,"startTime":108.52150400000001,"endTime":112.69540800000001,"instrument":3,"program":99,"isDrum":false},{"pitch":69,"velocity":56,"startTime":108.52150400000001,"endTime":112.67366891666668,"instrument":3,"program":99,"isDrum":false},{"pitch":58,"velocity":56,"startTime":112.69540800000001,"endTime":116.86931200000001,"instrument":3,"program":99,"isDrum":false},{"pitch":67,"velocity":56,"startTime":112.69540800000001,"endTime":121.010607375,"instrument":3,"program":99,"isDrum":false},{"pitch":60,"velocity":56,"startTime":116.86931200000001,"endTime":120.99973783333334,"instrument":3,"program":99,"isDrum":false},{"pitch":63,"velocity":56,"startTime":116.86931200000001,"endTime":121.010607375,"instrument":3,"program":99,"isDrum":false},{"pitch":62,"velocity":56,"startTime":121.04321600000002,"endTime":129.57580620833335,"instrument":3,"program":99,"isDrum":false},{"pitch":67,"velocity":56,"startTime":121.04321600000002,"endTime":125.18451137500001,"instrument":3,"program":99,"isDrum":false},{"pitch":70,"velocity":56,"startTime":121.04321600000002,"endTime":125.19538091666668,"instrument":3,"program":99,"isDrum":false},{"pitch":66,"velocity":56,"startTime":125.21712000000001,"endTime":129.38015445833335,"instrument":3,"program":99,"isDrum":false},{"pitch":69,"velocity":56,"startTime":125.21712000000001,"endTime":129.4073283125,"instrument":3,"program":99,"isDrum":false},{"pitch":72,"velocity":56,"startTime":125.21712000000001,"endTime":129.41276308333335,"instrument":3,"program":99,"isDrum":false},{"pitch":67,"velocity":56,"startTime":129.39102400000002,"endTime":129.60841483333334,"instrument":3,"program":99,"isDrum":false},{"pitch":70,"velocity":56,"startTime":129.39102400000002,"endTime":129.619284375,"instrument":3,"program":99,"isDrum":false},{"pitch":62,"velocity":56,"startTime":131.73884500000003,"endTime":132.46710429166666,"instrument":3,"program":99,"isDrum":false},{"pitch":60,"velocity":56,"startTime":131.999714,"endTime":132.47797383333335,"instrument":3,"program":99,"isDrum":false},{"pitch":66,"velocity":56,"startTime":131.999714,"endTime":132.46710429166666,"instrument":3,"program":99,"isDrum":false},{"pitch":58,"velocity":56,"startTime":132.521452,"endTime":132.6681908125,"instrument":3,"program":99,"isDrum":false},{"pitch":62,"velocity":56,"startTime":132.521452,"endTime":132.66275604166668,"instrument":3,"program":99,"isDrum":false},{"pitch":67,"velocity":56,"startTime":132.521452,"endTime":132.66275604166668,"instrument":3,"program":99,"isDrum":false},{"pitch":43,"velocity":56,"startTime":133.564928,"endTime":133.61927570833336,"instrument":3,"program":99,"isDrum":false},{"pitch":55,"velocity":56,"startTime":133.564928,"endTime":133.61384093750002,"instrument":3,"program":99,"isDrum":false},{"pitch":67,"velocity":56,"startTime":133.564928,"endTime":133.63558002083334,"instrument":3,"program":99,"isDrum":false},{"pitch":42,"velocity":56,"startTime":133.82579700000002,"endTime":133.90188379166668,"instrument":3,"program":99,"isDrum":false},{"pitch":54,"velocity":56,"startTime":133.82579700000002,"endTime":133.89644902083336,"instrument":3,"program":99,"isDrum":false},{"pitch":66,"velocity":56,"startTime":133.82579700000002,"endTime":133.90731856250002,"instrument":3,"program":99,"isDrum":false},{"pitch":43,"velocity":56,"startTime":134.086666,"endTime":134.17362233333336,"instrument":3,"program":99,"isDrum":false},{"pitch":55,"velocity":56,"startTime":134.086666,"endTime":134.16275279166666,"instrument":3,"program":99,"isDrum":false},{"pitch":67,"velocity":56,"startTime":134.086666,"endTime":134.18992664583337,"instrument":3,"program":99,"isDrum":false},{"pitch":45,"velocity":56,"startTime":134.34753500000002,"endTime":134.63014308333337,"instrument":3,"program":99,"isDrum":false},{"pitch":57,"velocity":56,"startTime":134.34753500000002,"endTime":134.62470831250002,"instrument":3,"program":99,"isDrum":false},{"pitch":69,"velocity":56,"startTime":134.34753500000002,"endTime":134.6899255625,"instrument":3,"program":99,"isDrum":false},{"pitch":46,"velocity":56,"startTime":134.86927300000002,"endTime":135.10296814583336,"instrument":3,"program":99,"isDrum":false},{"pitch":58,"velocity":56,"startTime":134.86927300000002,"endTime":135.097533375,"instrument":3,"program":99,"isDrum":false},{"pitch":70,"velocity":56,"startTime":134.86927300000002,"endTime":135.2116635625,"instrument":3,"program":99,"isDrum":false},{"pitch":45,"velocity":56,"startTime":135.39101100000002,"endTime":135.50514118750002,"instrument":3,"program":99,"isDrum":false},{"pitch":57,"velocity":56,"startTime":135.39101100000002,"endTime":135.488836875,"instrument":3,"program":99,"isDrum":false},{"pitch":69,"velocity":56,"startTime":135.39101100000002,"endTime":135.63557568750002,"instrument":3,"program":99,"isDrum":false},{"pitch":43,"velocity":56,"startTime":135.65188,"endTime":135.78774927083336,"instrument":3,"program":99,"isDrum":false},{"pitch":55,"velocity":56,"startTime":135.65188,"endTime":135.77144495833335,"instrument":3,"program":99,"isDrum":false},{"pitch":67,"velocity":56,"startTime":135.65188,"endTime":135.77687972916667,"instrument":3,"program":99,"isDrum":false},{"pitch":39,"velocity":56,"startTime":137.738832,"endTime":137.84209264583336,"instrument":3,"program":99,"isDrum":false},{"pitch":51,"velocity":56,"startTime":137.738832,"endTime":137.81491879166666,"instrument":3,"program":99,"isDrum":false},{"pitch":63,"velocity":56,"startTime":137.738832,"endTime":137.86383172916666,"instrument":3,"program":99,"isDrum":false},{"pitch":38,"velocity":56,"startTime":137.99970100000002,"endTime":138.097526875,"instrument":3,"program":99,"isDrum":false},{"pitch":50,"velocity":56,"startTime":137.99970100000002,"endTime":138.08665733333336,"instrument":3,"program":99,"isDrum":false},{"pitch":62,"velocity":56,"startTime":137.99970100000002,"endTime":138.11926595833336,"instrument":3,"program":99,"isDrum":false},{"pitch":39,"velocity":56,"startTime":138.26057,"endTime":138.33665679166668,"instrument":3,"program":99,"isDrum":false},{"pitch":51,"velocity":56,"startTime":138.26057,"endTime":138.3420915625,"instrument":3,"program":99,"isDrum":false},{"pitch":63,"velocity":56,"startTime":138.26057,"endTime":138.36926541666668,"instrument":3,"program":99,"isDrum":false},{"pitch":41,"velocity":56,"startTime":138.52143900000002,"endTime":138.7986123125,"instrument":3,"program":99,"isDrum":false},{"pitch":53,"velocity":56,"startTime":138.52143900000002,"endTime":138.7986123125,"instrument":3,"program":99,"isDrum":false},{"pitch":65,"velocity":56,"startTime":138.52143900000002,"endTime":138.84209047916667,"instrument":3,"program":99,"isDrum":false},{"pitch":43,"velocity":56,"startTime":139.04317700000001,"endTime":139.29861122916668,"instrument":3,"program":99,"isDrum":false},{"pitch":55,"velocity":56,"startTime":139.04317700000001,"endTime":139.26056783333337,"instrument":3,"program":99,"isDrum":false},{"pitch":67,"velocity":56,"startTime":139.04317700000001,"endTime":139.38013279166668,"instrument":3,"program":99,"isDrum":false},{"pitch":39,"velocity":56,"startTime":139.564915,"endTime":139.6790451875,"instrument":3,"program":99,"isDrum":false},{"pitch":51,"velocity":56,"startTime":139.564915,"endTime":139.67361041666666,"instrument":3,"program":99,"isDrum":false},{"pitch":63,"velocity":56,"startTime":139.564915,"endTime":139.71708858333335,"instrument":3,"program":99,"isDrum":false},{"pitch":38,"velocity":56,"startTime":139.825784,"endTime":139.96165327083335,"instrument":3,"program":99,"isDrum":false},{"pitch":50,"velocity":56,"startTime":139.825784,"endTime":139.95078372916666,"instrument":3,"program":99,"isDrum":false},{"pitch":62,"velocity":56,"startTime":139.825784,"endTime":139.9562185,"instrument":3,"program":99,"isDrum":false},{"pitch":43,"velocity":56,"startTime":141.91273600000002,"endTime":142.01599664583335,"instrument":3,"program":99,"isDrum":false},{"pitch":55,"velocity":56,"startTime":141.91273600000002,"endTime":141.99969233333334,"instrument":3,"program":99,"isDrum":false},{"pitch":67,"velocity":56,"startTime":141.91273600000002,"endTime":142.02686618750002,"instrument":3,"program":99,"isDrum":false},{"pitch":42,"velocity":56,"startTime":142.173605,"endTime":142.24425702083334,"instrument":3,"program":99,"isDrum":false},{"pitch":54,"velocity":56,"startTime":142.173605,"endTime":142.24425702083334,"instrument":3,"program":99,"isDrum":false},{"pitch":66,"velocity":56,"startTime":142.173605,"endTime":142.26599610416667,"instrument":3,"program":99,"isDrum":false},{"pitch":43,"velocity":56,"startTime":142.43447400000002,"endTime":142.51056079166668,"instrument":3,"program":99,"isDrum":false},{"pitch":55,"velocity":56,"startTime":142.43447400000002,"endTime":142.51599556250002,"instrument":3,"program":99,"isDrum":false},{"pitch":67,"velocity":56,"startTime":142.43447400000002,"endTime":142.54316941666667,"instrument":3,"program":99,"isDrum":false},{"pitch":45,"velocity":56,"startTime":142.695343,"endTime":142.99425539583336,"instrument":3,"program":99,"isDrum":false},{"pitch":57,"velocity":56,"startTime":142.695343,"endTime":142.98882062500002,"instrument":3,"program":99,"isDrum":false},{"pitch":69,"velocity":56,"startTime":142.695343,"endTime":143.04316833333337,"instrument":3,"program":99,"isDrum":false},{"pitch":46,"velocity":56,"startTime":143.217081,"endTime":143.45077614583334,"instrument":3,"program":99,"isDrum":false},{"pitch":58,"velocity":56,"startTime":143.217081,"endTime":143.42903706250002,"instrument":3,"program":99,"isDrum":false},{"pitch":70,"velocity":56,"startTime":143.217081,"endTime":143.51055862500002,"instrument":3,"program":99,"isDrum":false},{"pitch":45,"velocity":56,"startTime":143.738819,"endTime":143.85838395833335,"instrument":3,"program":99,"isDrum":false},{"pitch":57,"velocity":56,"startTime":143.738819,"endTime":143.84207964583337,"instrument":3,"program":99,"isDrum":false},{"pitch":69,"velocity":56,"startTime":143.738819,"endTime":143.93990552083335,"instrument":3,"program":99,"isDrum":false},{"pitch":43,"velocity":56,"startTime":143.99968800000002,"endTime":144.12468772916668,"instrument":3,"program":99,"isDrum":false},{"pitch":55,"velocity":56,"startTime":143.99968800000002,"endTime":144.11925295833336,"instrument":3,"program":99,"isDrum":false},{"pitch":67,"velocity":56,"startTime":143.99968800000002,"endTime":144.13555727083335,"instrument":3,"program":99,"isDrum":false},{"pitch":39,"velocity":56,"startTime":146.08664000000002,"endTime":146.17359633333336,"instrument":3,"program":99,"isDrum":false},{"pitch":51,"velocity":56,"startTime":146.08664000000002,"endTime":146.15185725,"instrument":3,"program":99,"isDrum":false},{"pitch":63,"velocity":56,"startTime":146.08664000000002,"endTime":146.20620495833336,"instrument":3,"program":99,"isDrum":false},{"pitch":38,"velocity":56,"startTime":146.347509,"endTime":146.43446533333335,"instrument":3,"program":99,"isDrum":false},{"pitch":50,"velocity":56,"startTime":146.347509,"endTime":146.4290305625,"instrument":3,"program":99,"isDrum":false},{"pitch":62,"velocity":56,"startTime":146.347509,"endTime":146.45620441666668,"instrument":3,"program":99,"isDrum":false},{"pitch":39,"velocity":56,"startTime":146.60837800000002,"endTime":146.67359525,"instrument":3,"program":99,"isDrum":false},{"pitch":51,"velocity":56,"startTime":146.60837800000002,"endTime":146.68446479166667,"instrument":3,"program":99,"isDrum":false},{"pitch":63,"velocity":56,"startTime":146.60837800000002,"endTime":146.706203875,"instrument":3,"program":99,"isDrum":false},{"pitch":41,"velocity":56,"startTime":146.869247,"endTime":147.14098554166668,"instrument":3,"program":99,"isDrum":false},{"pitch":53,"velocity":56,"startTime":146.869247,"endTime":147.13011600000002,"instrument":3,"program":99,"isDrum":false},{"pitch":65,"velocity":56,"startTime":146.869247,"endTime":147.17902893750002,"instrument":3,"program":99,"isDrum":false},{"pitch":43,"velocity":56,"startTime":147.390985,"endTime":147.66272354166668,"instrument":3,"program":99,"isDrum":false},{"pitch":55,"velocity":56,"startTime":147.390985,"endTime":147.59207152083334,"instrument":3,"program":99,"isDrum":false},{"pitch":67,"velocity":56,"startTime":147.390985,"endTime":147.71707125,"instrument":3,"program":99,"isDrum":false},{"pitch":39,"velocity":56,"startTime":147.912723,"endTime":148.00511410416667,"instrument":3,"program":99,"isDrum":false},{"pitch":51,"velocity":56,"startTime":147.912723,"endTime":148.00511410416667,"instrument":3,"program":99,"isDrum":false},{"pitch":63,"velocity":56,"startTime":147.912723,"endTime":148.05946181250002,"instrument":3,"program":99,"isDrum":false},{"pitch":38,"velocity":56,"startTime":148.173592,"endTime":148.31489604166666,"instrument":3,"program":99,"isDrum":false},{"pitch":50,"velocity":56,"startTime":148.173592,"endTime":148.2877221875,"instrument":3,"program":99,"isDrum":false},{"pitch":62,"velocity":56,"startTime":148.173592,"endTime":148.33120035416667,"instrument":3,"program":99,"isDrum":false},{"pitch":58,"velocity":56,"startTime":150.260544,"endTime":150.40184804166668,"instrument":3,"program":99,"isDrum":false},{"pitch":62,"velocity":56,"startTime":150.260544,"endTime":150.4072828125,"instrument":3,"program":99,"isDrum":false},{"pitch":67,"velocity":56,"startTime":150.260544,"endTime":150.41815235416666,"instrument":3,"program":99,"isDrum":false},{"pitch":60,"velocity":56,"startTime":152.347496,"endTime":152.44532187500002,"instrument":3,"program":99,"isDrum":false},{"pitch":62,"velocity":56,"startTime":152.347496,"endTime":152.50510435416666,"instrument":3,"program":99,"isDrum":false},{"pitch":66,"velocity":56,"startTime":152.347496,"endTime":152.510539125,"instrument":3,"program":99,"isDrum":false},{"pitch":60,"velocity":56,"startTime":153.358363375,"endTime":153.48336310416667,"instrument":3,"program":99,"isDrum":false},{"pitch":66,"velocity":56,"startTime":153.358363375,"endTime":153.48879787500002,"instrument":3,"program":99,"isDrum":false},{"pitch":62,"velocity":56,"startTime":153.36379814583336,"endTime":153.48336310416667,"instrument":3,"program":99,"isDrum":false},{"pitch":60,"velocity":56,"startTime":154.434448,"endTime":154.5648825,"instrument":3,"program":99,"isDrum":false},{"pitch":62,"velocity":56,"startTime":154.434448,"endTime":154.5648825,"instrument":3,"program":99,"isDrum":false},{"pitch":66,"velocity":56,"startTime":154.434448,"endTime":154.5648825,"instrument":3,"program":99,"isDrum":false},{"pitch":60,"velocity":56,"startTime":155.477924,"endTime":155.6083585,"instrument":3,"program":99,"isDrum":false},{"pitch":62,"velocity":56,"startTime":155.477924,"endTime":155.6083585,"instrument":3,"program":99,"isDrum":false},{"pitch":66,"velocity":56,"startTime":155.477924,"endTime":155.6083585,"instrument":3,"program":99,"isDrum":false},{"pitch":58,"velocity":56,"startTime":156.52140000000003,"endTime":156.6518345,"instrument":3,"program":99,"isDrum":false},{"pitch":62,"velocity":56,"startTime":156.52140000000003,"endTime":156.6518345,"instrument":3,"program":99,"isDrum":false},{"pitch":67,"velocity":56,"startTime":156.52140000000003,"endTime":156.6518345,"instrument":3,"program":99,"isDrum":false},{"pitch":58,"velocity":56,"startTime":157.56487600000003,"endTime":157.6953105,"instrument":3,"program":99,"isDrum":false},{"pitch":62,"velocity":56,"startTime":157.56487600000003,"endTime":157.6953105,"instrument":3,"program":99,"isDrum":false},{"pitch":67,"velocity":56,"startTime":157.56487600000003,"endTime":157.6953105,"instrument":3,"program":99,"isDrum":false},{"pitch":58,"velocity":56,"startTime":158.60835200000002,"endTime":158.7387865,"instrument":3,"program":99,"isDrum":false},{"pitch":62,"velocity":56,"startTime":158.60835200000002,"endTime":158.7387865,"instrument":3,"program":99,"isDrum":false},{"pitch":67,"velocity":56,"startTime":158.60835200000002,"endTime":158.7387865,"instrument":3,"program":99,"isDrum":false},{"pitch":58,"velocity":56,"startTime":159.65182800000002,"endTime":159.7822625,"instrument":3,"program":99,"isDrum":false},{"pitch":62,"velocity":56,"startTime":159.65182800000002,"endTime":159.7822625,"instrument":3,"program":99,"isDrum":false},{"pitch":67,"velocity":56,"startTime":159.65182800000002,"endTime":159.7822625,"instrument":3,"program":99,"isDrum":false},{"pitch":60,"velocity":56,"startTime":160.69530400000002,"endTime":160.82573850000003,"instrument":3,"program":99,"isDrum":false},{"pitch":62,"velocity":56,"startTime":160.69530400000002,"endTime":160.82573850000003,"instrument":3,"program":99,"isDrum":false},{"pitch":66,"velocity":56,"startTime":160.69530400000002,"endTime":160.82573850000003,"instrument":3,"program":99,"isDrum":false},{"pitch":60,"velocity":56,"startTime":161.73878000000002,"endTime":161.86921450000003,"instrument":3,"program":99,"isDrum":false},{"pitch":62,"velocity":56,"startTime":161.73878000000002,"endTime":161.86921450000003,"instrument":3,"program":99,"isDrum":false},{"pitch":66,"velocity":56,"startTime":161.73878000000002,"endTime":161.86921450000003,"instrument":3,"program":99,"isDrum":false},{"pitch":60,"velocity":56,"startTime":162.78225600000002,"endTime":162.91269050000002,"instrument":3,"program":99,"isDrum":false},{"pitch":62,"velocity":56,"startTime":162.78225600000002,"endTime":162.91269050000002,"instrument":3,"program":99,"isDrum":false},{"pitch":66,"velocity":56,"startTime":162.78225600000002,"endTime":162.91269050000002,"instrument":3,"program":99,"isDrum":false},{"pitch":60,"velocity":56,"startTime":163.82573200000002,"endTime":163.95616650000002,"instrument":3,"program":99,"isDrum":false},{"pitch":62,"velocity":56,"startTime":163.82573200000002,"endTime":163.95616650000002,"instrument":3,"program":99,"isDrum":false},{"pitch":66,"velocity":56,"startTime":163.82573200000002,"endTime":163.95616650000002,"instrument":3,"program":99,"isDrum":false},{"pitch":58,"velocity":56,"startTime":164.86920800000001,"endTime":164.99964250000002,"instrument":3,"program":99,"isDrum":false},{"pitch":62,"velocity":56,"startTime":164.86920800000001,"endTime":164.99964250000002,"instrument":3,"program":99,"isDrum":false},{"pitch":67,"velocity":56,"startTime":164.86920800000001,"endTime":164.99964250000002,"instrument":3,"program":99,"isDrum":false},{"pitch":62,"velocity":56,"startTime":165.13007700000003,"endTime":165.77137995833337,"instrument":3,"program":99,"isDrum":false},{"pitch":60,"velocity":56,"startTime":165.390946,"endTime":165.77137995833337,"instrument":3,"program":99,"isDrum":false},{"pitch":66,"velocity":56,"startTime":165.390946,"endTime":165.7822495,"instrument":3,"program":99,"isDrum":false},{"pitch":58,"velocity":56,"startTime":165.912684,"endTime":166.04311850000002,"instrument":3,"program":99,"isDrum":false},{"pitch":62,"velocity":56,"startTime":165.912684,"endTime":166.04311850000002,"instrument":3,"program":99,"isDrum":false},{"pitch":67,"velocity":56,"startTime":165.912684,"endTime":166.04311850000002,"instrument":3,"program":99,"isDrum":false},{"pitch":57,"velocity":56,"startTime":166.95616,"endTime":171.130064,"instrument":3,"program":99,"isDrum":false},{"pitch":60,"velocity":56,"startTime":166.95616,"endTime":171.10832491666667,"instrument":3,"program":99,"isDrum":false},{"pitch":62,"velocity":56,"startTime":166.95616,"endTime":171.08658583333334,"instrument":3,"program":99,"isDrum":false},{"pitch":66,"velocity":56,"startTime":166.95616,"endTime":171.10832491666667,"instrument":3,"program":99,"isDrum":false},{"pitch":58,"velocity":56,"startTime":171.130064,"endTime":175.30396800000003,"instrument":3,"program":99,"isDrum":false},{"pitch":62,"velocity":56,"startTime":171.130064,"endTime":183.651776,"instrument":3,"program":99,"isDrum":false},{"pitch":67,"velocity":56,"startTime":171.130064,"endTime":175.30396800000003,"instrument":3,"program":99,"isDrum":false},{"pitch":60,"velocity":56,"startTime":175.30396800000003,"endTime":179.45613291666666,"instrument":3,"program":99,"isDrum":false},{"pitch":66,"velocity":56,"startTime":175.30396800000003,"endTime":179.47787200000002,"instrument":3,"program":99,"isDrum":false},{"pitch":69,"velocity":56,"startTime":175.30396800000003,"endTime":179.45613291666666,"instrument":3,"program":99,"isDrum":false},{"pitch":58,"velocity":56,"startTime":179.47787200000002,"endTime":183.651776,"instrument":3,"program":99,"isDrum":false},{"pitch":67,"velocity":56,"startTime":179.47787200000002,"endTime":187.793071375,"instrument":3,"program":99,"isDrum":false},{"pitch":60,"velocity":56,"startTime":183.651776,"endTime":187.78220183333335,"instrument":3,"program":99,"isDrum":false},{"pitch":63,"velocity":56,"startTime":183.651776,"endTime":187.793071375,"instrument":3,"program":99,"isDrum":false},{"pitch":62,"velocity":56,"startTime":187.82568,"endTime":196.35827020833335,"instrument":3,"program":99,"isDrum":false},{"pitch":67,"velocity":56,"startTime":187.82568,"endTime":191.966975375,"instrument":3,"program":99,"isDrum":false},{"pitch":70,"velocity":56,"startTime":187.82568,"endTime":191.97784491666667,"instrument":3,"program":99,"isDrum":false},{"pitch":66,"velocity":56,"startTime":191.99958400000003,"endTime":196.16261845833336,"instrument":3,"program":99,"isDrum":false},{"pitch":69,"velocity":56,"startTime":191.99958400000003,"endTime":196.1897923125,"instrument":3,"program":99,"isDrum":false},{"pitch":72,"velocity":56,"startTime":191.99958400000003,"endTime":196.19522708333335,"instrument":3,"program":99,"isDrum":false},{"pitch":67,"velocity":56,"startTime":196.17348800000002,"endTime":196.39087883333335,"instrument":3,"program":99,"isDrum":false},{"pitch":70,"velocity":56,"startTime":196.17348800000002,"endTime":196.401748375,"instrument":3,"program":99,"isDrum":false},{"pitch":62,"velocity":56,"startTime":198.52130900000003,"endTime":199.24956829166666,"instrument":3,"program":99,"isDrum":false},{"pitch":60,"velocity":56,"startTime":198.78217800000002,"endTime":199.26043783333336,"instrument":3,"program":99,"isDrum":false},{"pitch":66,"velocity":56,"startTime":198.78217800000002,"endTime":199.24956829166666,"instrument":3,"program":99,"isDrum":false},{"pitch":58,"velocity":56,"startTime":199.30391600000002,"endTime":199.4506548125,"instrument":3,"program":99,"isDrum":false},{"pitch":62,"velocity":56,"startTime":199.30391600000002,"endTime":199.4452200416667,"instrument":3,"program":99,"isDrum":false},{"pitch":67,"velocity":56,"startTime":199.30391600000002,"endTime":199.4452200416667,"instrument":3,"program":99,"isDrum":false},{"pitch":72,"velocity":87,"startTime":0.48369460416666676,"endTime":0.5652161666666666,"instrument":4,"program":23,"isDrum":false},{"pitch":62,"velocity":87,"startTime":0.4945641458333334,"endTime":0.5652161666666666,"instrument":4,"program":23,"isDrum":false},{"pitch":69,"velocity":87,"startTime":0.9891282916666664,"endTime":1.0706498541666667,"instrument":4,"program":23,"isDrum":false},{"pitch":62,"velocity":87,"startTime":0.9999978333333335,"endTime":1.0597803125,"instrument":4,"program":23,"isDrum":false},{"pitch":66,"velocity":128,"startTime":1.5271706041666668,"endTime":1.5923878541666667,"instrument":4,"program":23,"isDrum":false},{"pitch":62,"velocity":87,"startTime":1.5326053750000002,"endTime":1.5869530833333334,"instrument":4,"program":23,"isDrum":false},{"pitch":62,"velocity":114,"startTime":2.304342833333333,"endTime":2.5652118333333336,"instrument":4,"program":23,"isDrum":false},{"pitch":63,"velocity":97,"startTime":2.5760813750000002,"endTime":2.8152112916666674,"instrument":4,"program":23,"isDrum":false},{"pitch":62,"velocity":87,"startTime":2.8206460625,"endTime":3.0869498333333336,"instrument":4,"program":23,"isDrum":false},{"pitch":61,"velocity":114,"startTime":3.0869498333333336,"endTime":3.5760792083333337,"instrument":4,"program":23,"isDrum":false},{"pitch":62,"velocity":97,"startTime":3.6195573750000003,"endTime":3.728252791666667,"instrument":4,"program":23,"isDrum":false},{"pitch":62,"velocity":97,"startTime":4.141295375,"endTime":4.2282517083333335,"instrument":4,"program":23,"isDrum":false},{"pitch":74,"velocity":75,"startTime":4.635859520833334,"endTime":4.717381083333334,"instrument":4,"program":23,"isDrum":false},{"pitch":62,"velocity":78,"startTime":4.6467290625,"endTime":4.717381083333334,"instrument":4,"program":23,"isDrum":false},{"pitch":70,"velocity":128,"startTime":5.2010756875,"endTime":5.28259725,"instrument":4,"program":23,"isDrum":false},{"pitch":62,"velocity":97,"startTime":5.211945229166667,"endTime":5.288032020833334,"instrument":4,"program":23,"isDrum":false},{"pitch":67,"velocity":97,"startTime":5.706509375,"endTime":5.777161395833334,"instrument":4,"program":23,"isDrum":false},{"pitch":62,"velocity":87,"startTime":5.711944145833334,"endTime":5.782596166666667,"instrument":4,"program":23,"isDrum":false},{"pitch":62,"velocity":97,"startTime":6.489116375,"endTime":6.744550604166667,"instrument":4,"program":23,"isDrum":false},{"pitch":63,"velocity":114,"startTime":6.749985375,"endTime":6.945637125000001,"instrument":4,"program":23,"isDrum":false},{"pitch":62,"velocity":78,"startTime":6.9619414375,"endTime":7.260853833333334,"instrument":4,"program":23,"isDrum":false},{"pitch":61,"velocity":97,"startTime":7.260853833333334,"endTime":7.755417979166667,"instrument":4,"program":23,"isDrum":false},{"pitch":62,"velocity":87,"startTime":7.782591833333335,"endTime":7.896722020833334,"instrument":4,"program":23,"isDrum":false},{"pitch":62,"velocity":114,"startTime":8.315199375,"endTime":8.402155708333334,"instrument":4,"program":23,"isDrum":false},{"pitch":72,"velocity":87,"startTime":8.831502604166667,"endTime":8.9184589375,"instrument":4,"program":23,"isDrum":false},{"pitch":62,"velocity":87,"startTime":8.842372145833334,"endTime":8.9184589375,"instrument":4,"program":23,"isDrum":false},{"pitch":69,"velocity":87,"startTime":9.3749796875,"endTime":9.451066479166666,"instrument":4,"program":23,"isDrum":false},{"pitch":62,"velocity":87,"startTime":9.380414458333334,"endTime":9.445631708333334,"instrument":4,"program":23,"isDrum":false},{"pitch":66,"velocity":128,"startTime":9.913022000000002,"endTime":9.972804479166667,"instrument":4,"program":23,"isDrum":false},{"pitch":62,"velocity":87,"startTime":9.923891541666666,"endTime":9.983674020833334,"instrument":4,"program":23,"isDrum":false},{"pitch":62,"velocity":114,"startTime":10.673889916666667,"endTime":10.913019833333335,"instrument":4,"program":23,"isDrum":false},{"pitch":63,"velocity":114,"startTime":10.913019833333335,"endTime":11.1358454375,"instrument":4,"program":23,"isDrum":false},{"pitch":62,"velocity":87,"startTime":11.152149750000001,"endTime":11.423888291666668,"instrument":4,"program":23,"isDrum":false},{"pitch":61,"velocity":97,"startTime":11.440192604166667,"endTime":11.913017666666667,"instrument":4,"program":23,"isDrum":false},{"pitch":62,"velocity":87,"startTime":11.940191520833334,"endTime":12.076060791666666,"instrument":4,"program":23,"isDrum":false},{"pitch":62,"velocity":114,"startTime":12.461929520833335,"endTime":12.554320625,"instrument":4,"program":23,"isDrum":false},{"pitch":74,"velocity":75,"startTime":12.989102291666667,"endTime":13.076058625000002,"instrument":4,"program":23,"isDrum":false},{"pitch":62,"velocity":70,"startTime":13.010841375,"endTime":13.086928166666667,"instrument":4,"program":23,"isDrum":false},{"pitch":70,"velocity":128,"startTime":13.527144604166667,"endTime":13.614100937500002,"instrument":4,"program":23,"isDrum":false},{"pitch":62,"velocity":75,"startTime":13.538014145833335,"endTime":13.608666166666668,"instrument":4,"program":23,"isDrum":false},{"pitch":62,"velocity":87,"startTime":14.043447833333335,"endTime":14.119534625,"instrument":4,"program":23,"isDrum":false},{"pitch":67,"velocity":114,"startTime":14.043447833333335,"endTime":14.124969395833336,"instrument":4,"program":23,"isDrum":false},{"pitch":75,"velocity":128,"startTime":14.706489875000003,"endTime":14.798880979166668,"instrument":4,"program":23,"isDrum":false},{"pitch":74,"velocity":87,"startTime":14.842359145833335,"endTime":14.9184459375,"instrument":4,"program":23,"isDrum":false},{"pitch":73,"velocity":128,"startTime":14.956489333333334,"endTime":15.04344566666667,"instrument":4,"program":23,"isDrum":false},{"pitch":72,"velocity":97,"startTime":15.086923833333334,"endTime":15.163010625000002,"instrument":4,"program":23,"isDrum":false},{"pitch":71,"velocity":54,"startTime":15.206488791666668,"endTime":15.282575583333333,"instrument":4,"program":23,"isDrum":false},{"pitch":70,"velocity":128,"startTime":15.331488520833332,"endTime":15.413010083333333,"instrument":4,"program":23,"isDrum":false},{"pitch":69,"velocity":75,"startTime":15.45648825,"endTime":15.543444583333333,"instrument":4,"program":23,"isDrum":false},{"pitch":68,"velocity":128,"startTime":15.592357520833332,"endTime":15.69561816666667,"instrument":4,"program":23,"isDrum":false},{"pitch":67,"velocity":78,"startTime":15.722792020833332,"endTime":15.793444041666667,"instrument":4,"program":23,"isDrum":false},{"pitch":66,"velocity":128,"startTime":15.84235697916667,"endTime":15.934748083333332,"instrument":4,"program":23,"isDrum":false},{"pitch":65,"velocity":87,"startTime":15.978226250000002,"endTime":16.065182583333332,"instrument":4,"program":23,"isDrum":false},{"pitch":64,"velocity":70,"startTime":16.108660750000002,"endTime":16.190182312500003,"instrument":4,"program":23,"isDrum":false},{"pitch":63,"velocity":128,"startTime":16.23366047916667,"endTime":16.331486354166667,"instrument":4,"program":23,"isDrum":false},{"pitch":62,"velocity":70,"startTime":16.36409497916667,"endTime":16.44561654166667,"instrument":4,"program":23,"isDrum":false},{"pitch":61,"velocity":128,"startTime":16.49452947916667,"endTime":16.59235535416667,"instrument":4,"program":23,"isDrum":false},{"pitch":60,"velocity":87,"startTime":16.652137833333335,"endTime":16.749963708333333,"instrument":4,"program":23,"isDrum":false},{"pitch":67,"velocity":97,"startTime":17.16300629166667,"endTime":17.24452785416667,"instrument":4,"program":23,"isDrum":false},{"pitch":60,"velocity":78,"startTime":17.173875833333334,"endTime":17.239093083333334,"instrument":4,"program":23,"isDrum":false},{"pitch":66,"velocity":128,"startTime":17.695613833333333,"endTime":17.760831083333333,"instrument":4,"program":23,"isDrum":false},{"pitch":60,"velocity":78,"startTime":17.70104860416667,"endTime":17.777135395833334,"instrument":4,"program":23,"isDrum":false},{"pitch":60,"velocity":97,"startTime":18.2119170625,"endTime":18.288003854166668,"instrument":4,"program":23,"isDrum":false},{"pitch":67,"velocity":87,"startTime":18.2119170625,"endTime":18.282569083333332,"instrument":4,"program":23,"isDrum":false},{"pitch":60,"velocity":87,"startTime":19.021697916666668,"endTime":19.086915166666667,"instrument":4,"program":23,"isDrum":false},{"pitch":67,"velocity":87,"startTime":19.021697916666668,"endTime":19.097784708333332,"instrument":4,"program":23,"isDrum":false},{"pitch":67,"velocity":78,"startTime":19.24995829166667,"endTime":19.336914625000002,"instrument":4,"program":23,"isDrum":false},{"pitch":60,"velocity":78,"startTime":19.26626260416667,"endTime":19.336914625000002,"instrument":4,"program":23,"isDrum":false},{"pitch":66,"velocity":128,"startTime":19.521696833333333,"endTime":19.614087937500003,"instrument":4,"program":23,"isDrum":false},{"pitch":60,"velocity":61,"startTime":19.54343591666667,"endTime":19.603218395833334,"instrument":4,"program":23,"isDrum":false},{"pitch":60,"velocity":75,"startTime":19.793435375,"endTime":19.874956937500002,"instrument":4,"program":23,"isDrum":false},{"pitch":67,"velocity":87,"startTime":19.793435375,"endTime":19.874956937500002,"instrument":4,"program":23,"isDrum":false},{"pitch":66,"velocity":114,"startTime":20.043434833333333,"endTime":20.141260708333334,"instrument":4,"program":23,"isDrum":false},{"pitch":60,"velocity":55,"startTime":20.070608687500002,"endTime":20.1358259375,"instrument":4,"program":23,"isDrum":false},{"pitch":60,"velocity":75,"startTime":20.304303833333332,"endTime":20.402129708333334,"instrument":4,"program":23,"isDrum":false},{"pitch":67,"velocity":97,"startTime":20.309738604166668,"endTime":20.402129708333334,"instrument":4,"program":23,"isDrum":false},{"pitch":66,"velocity":128,"startTime":20.559738062500003,"endTime":20.662998708333333,"instrument":4,"program":23,"isDrum":false},{"pitch":60,"velocity":70,"startTime":20.576042375,"endTime":20.6575639375,"instrument":4,"program":23,"isDrum":false},{"pitch":58,"velocity":114,"startTime":20.847780916666668,"endTime":20.940172020833334,"instrument":4,"program":23,"isDrum":false},{"pitch":58,"velocity":87,"startTime":21.391258,"endTime":21.46734479166667,"instrument":4,"program":23,"isDrum":false},{"pitch":67,"velocity":97,"startTime":21.391258,"endTime":21.478214333333334,"instrument":4,"program":23,"isDrum":false},{"pitch":58,"velocity":70,"startTime":21.912996000000003,"endTime":21.9945175625,"instrument":4,"program":23,"isDrum":false},{"pitch":66,"velocity":97,"startTime":21.912996000000003,"endTime":21.999952333333333,"instrument":4,"program":23,"isDrum":false},{"pitch":58,"velocity":75,"startTime":22.434734000000002,"endTime":22.505386020833335,"instrument":4,"program":23,"isDrum":false},{"pitch":67,"velocity":87,"startTime":22.434734000000002,"endTime":22.521690333333332,"instrument":4,"program":23,"isDrum":false},{"pitch":66,"velocity":128,"startTime":23.2010366875,"endTime":23.287993020833333,"instrument":4,"program":23,"isDrum":false},{"pitch":58,"velocity":87,"startTime":23.21190622916667,"endTime":23.271688708333333,"instrument":4,"program":23,"isDrum":false},{"pitch":67,"velocity":87,"startTime":23.44016660416667,"endTime":23.537992479166668,"instrument":4,"program":23,"isDrum":false},{"pitch":58,"velocity":87,"startTime":23.451036145833335,"endTime":23.52168816666667,"instrument":4,"program":23,"isDrum":false},{"pitch":66,"velocity":128,"startTime":23.70103560416667,"endTime":23.793426708333335,"instrument":4,"program":23,"isDrum":false},{"pitch":58,"velocity":70,"startTime":23.71733991666667,"endTime":23.78255716666667,"instrument":4,"program":23,"isDrum":false},{"pitch":58,"velocity":70,"startTime":23.956469833333333,"endTime":24.037991395833334,"instrument":4,"program":23,"isDrum":false},{"pitch":67,"velocity":78,"startTime":23.956469833333333,"endTime":24.05973047916667,"instrument":4,"program":23,"isDrum":false},{"pitch":66,"velocity":128,"startTime":24.217338833333333,"endTime":24.315164708333334,"instrument":4,"program":23,"isDrum":false},{"pitch":58,"velocity":78,"startTime":24.228208375,"endTime":24.293425625,"instrument":4,"program":23,"isDrum":false},{"pitch":58,"velocity":75,"startTime":24.46733829166667,"endTime":24.543425083333332,"instrument":4,"program":23,"isDrum":false},{"pitch":67,"velocity":78,"startTime":24.46733829166667,"endTime":24.559729395833333,"instrument":4,"program":23,"isDrum":false},{"pitch":66,"velocity":128,"startTime":24.706468208333334,"endTime":24.804294083333335,"instrument":4,"program":23,"isDrum":false},{"pitch":58,"velocity":61,"startTime":24.722772520833335,"endTime":24.787989770833335,"instrument":4,"program":23,"isDrum":false},{"pitch":57,"velocity":87,"startTime":25.00538060416667,"endTime":25.10320647916667,"instrument":4,"program":23,"isDrum":false},{"pitch":57,"velocity":87,"startTime":25.532553375000003,"endTime":25.614074937500003,"instrument":4,"program":23,"isDrum":false},{"pitch":62,"velocity":97,"startTime":25.532553375000003,"endTime":25.619509708333332,"instrument":4,"program":23,"isDrum":false},{"pitch":60,"velocity":97,"startTime":26.054291375000002,"endTime":26.152117250000003,"instrument":4,"program":23,"isDrum":false},{"pitch":57,"velocity":75,"startTime":26.059726145833334,"endTime":26.152117250000003,"instrument":4,"program":23,"isDrum":false},{"pitch":62,"velocity":114,"startTime":26.55429029166667,"endTime":26.641246625,"instrument":4,"program":23,"isDrum":false},{"pitch":57,"velocity":87,"startTime":26.5597250625,"endTime":26.641246625,"instrument":4,"program":23,"isDrum":false},{"pitch":60,"velocity":97,"startTime":27.32602775,"endTime":27.771678958333332,"instrument":4,"program":23,"isDrum":false},{"pitch":58,"velocity":87,"startTime":27.7988528125,"endTime":27.934722083333334,"instrument":4,"program":23,"isDrum":false},{"pitch":57,"velocity":75,"startTime":27.94015685416667,"endTime":28.07059135416667,"instrument":4,"program":23,"isDrum":false},{"pitch":55,"velocity":75,"startTime":28.076026125000002,"endTime":28.619503208333334,"instrument":4,"program":23,"isDrum":false},{"pitch":54,"velocity":97,"startTime":28.62493797916667,"endTime":29.141241208333334,"instrument":4,"program":23,"isDrum":false},{"pitch":55,"velocity":114,"startTime":29.157545520833335,"endTime":29.271675708333333,"instrument":4,"program":23,"isDrum":false},{"pitch":67,"velocity":87,"startTime":29.999935000000004,"endTime":30.070587020833333,"instrument":4,"program":23,"isDrum":false},{"pitch":75,"velocity":128,"startTime":29.999935000000004,"endTime":30.06515225,"instrument":4,"program":23,"isDrum":false},{"pitch":65,"velocity":64,"startTime":30.260804000000004,"endTime":30.336890791666672,"instrument":4,"program":23,"isDrum":false},{"pitch":74,"velocity":114,"startTime":30.260804000000004,"endTime":30.336890791666672,"instrument":4,"program":23,"isDrum":false},{"pitch":63,"velocity":128,"startTime":30.521673000000003,"endTime":30.581455479166667,"instrument":4,"program":23,"isDrum":false},{"pitch":72,"velocity":87,"startTime":30.521673000000003,"endTime":30.581455479166667,"instrument":4,"program":23,"isDrum":false},{"pitch":62,"velocity":87,"startTime":30.782542000000003,"endTime":30.84775925,"instrument":4,"program":23,"isDrum":false},{"pitch":70,"velocity":128,"startTime":30.782542000000003,"endTime":30.836889708333334,"instrument":4,"program":23,"isDrum":false},{"pitch":60,"velocity":78,"startTime":31.043411000000003,"endTime":31.103193479166674,"instrument":4,"program":23,"isDrum":false},{"pitch":69,"velocity":87,"startTime":31.043411000000003,"endTime":31.11406302083333,"instrument":4,"program":23,"isDrum":false},{"pitch":58,"velocity":97,"startTime":31.304280000000002,"endTime":31.374932020833338,"instrument":4,"program":23,"isDrum":false},{"pitch":67,"velocity":78,"startTime":31.304280000000002,"endTime":31.369497250000006,"instrument":4,"program":23,"isDrum":false},{"pitch":62,"velocity":97,"startTime":31.565149,"endTime":32.293408291666665,"instrument":4,"program":23,"isDrum":false},{"pitch":60,"velocity":78,"startTime":31.826018,"endTime":32.293408291666665,"instrument":4,"program":23,"isDrum":false},{"pitch":66,"velocity":114,"startTime":31.826018,"endTime":32.304277833333344,"instrument":4,"program":23,"isDrum":false},{"pitch":62,"velocity":97,"startTime":32.32058214583334,"endTime":32.451016645833334,"instrument":4,"program":23,"isDrum":false},{"pitch":67,"velocity":78,"startTime":32.32058214583334,"endTime":32.4618861875,"instrument":4,"program":23,"isDrum":false},{"pitch":58,"velocity":128,"startTime":32.33145168750001,"endTime":32.4618861875,"instrument":4,"program":23,"isDrum":false},{"pitch":62,"velocity":128,"startTime":33.14123254166667,"endTime":33.23362364583333,"instrument":4,"program":23,"isDrum":false},{"pitch":62,"velocity":75,"startTime":33.260797499999995,"endTime":33.33144952083333,"instrument":4,"program":23,"isDrum":false},{"pitch":62,"velocity":128,"startTime":33.38036245833334,"endTime":33.456449250000006,"instrument":4,"program":23,"isDrum":false},{"pitch":72,"velocity":87,"startTime":33.87492660416666,"endTime":33.95644816666666,"instrument":4,"program":23,"isDrum":false},{"pitch":62,"velocity":87,"startTime":33.88579614583334,"endTime":33.95644816666666,"instrument":4,"program":23,"isDrum":false},{"pitch":69,"velocity":87,"startTime":34.38036029166666,"endTime":34.46188185416666,"instrument":4,"program":23,"isDrum":false},{"pitch":62,"velocity":87,"startTime":34.39122983333334,"endTime":34.4510123125,"instrument":4,"program":23,"isDrum":false},{"pitch":66,"velocity":128,"startTime":34.91840260416667,"endTime":34.98361985416666,"instrument":4,"program":23,"isDrum":false},{"pitch":62,"velocity":87,"startTime":34.923837375000005,"endTime":34.978185083333344,"instrument":4,"program":23,"isDrum":false},{"pitch":62,"velocity":114,"startTime":35.69557483333334,"endTime":35.95644383333334,"instrument":4,"program":23,"isDrum":false},{"pitch":63,"velocity":97,"startTime":35.967313375,"endTime":36.20644329166667,"instrument":4,"program":23,"isDrum":false},{"pitch":62,"velocity":87,"startTime":36.211878062500006,"endTime":36.47818183333334,"instrument":4,"program":23,"isDrum":false},{"pitch":61,"velocity":114,"startTime":36.47818183333334,"endTime":36.96731120833334,"instrument":4,"program":23,"isDrum":false},{"pitch":62,"velocity":97,"startTime":37.010789375,"endTime":37.119484791666665,"instrument":4,"program":23,"isDrum":false},{"pitch":62,"velocity":97,"startTime":37.532527375,"endTime":37.619483708333334,"instrument":4,"program":23,"isDrum":false},{"pitch":74,"velocity":75,"startTime":38.02709152083334,"endTime":38.10861308333334,"instrument":4,"program":23,"isDrum":false},{"pitch":62,"velocity":78,"startTime":38.0379610625,"endTime":38.10861308333334,"instrument":4,"program":23,"isDrum":false},{"pitch":70,"velocity":128,"startTime":38.592307687499996,"endTime":38.67382925,"instrument":4,"program":23,"isDrum":false},{"pitch":62,"velocity":97,"startTime":38.60317722916666,"endTime":38.679264020833344,"instrument":4,"program":23,"isDrum":false},{"pitch":67,"velocity":97,"startTime":39.097741375,"endTime":39.168393395833334,"instrument":4,"program":23,"isDrum":false},{"pitch":62,"velocity":87,"startTime":39.103176145833345,"endTime":39.17382816666667,"instrument":4,"program":23,"isDrum":false},{"pitch":62,"velocity":97,"startTime":39.880348375,"endTime":40.135782604166664,"instrument":4,"program":23,"isDrum":false},{"pitch":63,"velocity":114,"startTime":40.141217375,"endTime":40.33686912500001,"instrument":4,"program":23,"isDrum":false},{"pitch":62,"velocity":78,"startTime":40.353173437500004,"endTime":40.652085833333345,"instrument":4,"program":23,"isDrum":false},{"pitch":61,"velocity":97,"startTime":40.652085833333345,"endTime":41.14664997916667,"instrument":4,"program":23,"isDrum":false},{"pitch":62,"velocity":87,"startTime":41.173823833333344,"endTime":41.28795402083334,"instrument":4,"program":23,"isDrum":false},{"pitch":62,"velocity":114,"startTime":41.70643137500001,"endTime":41.79338770833334,"instrument":4,"program":23,"isDrum":false},{"pitch":72,"velocity":87,"startTime":42.22273460416666,"endTime":42.30969093750001,"instrument":4,"program":23,"isDrum":false},{"pitch":62,"velocity":87,"startTime":42.23360414583334,"endTime":42.30969093750001,"instrument":4,"program":23,"isDrum":false},{"pitch":69,"velocity":87,"startTime":42.766211687500004,"endTime":42.84229847916667,"instrument":4,"program":23,"isDrum":false},{"pitch":62,"velocity":87,"startTime":42.771646458333336,"endTime":42.83686370833334,"instrument":4,"program":23,"isDrum":false},{"pitch":66,"velocity":128,"startTime":43.304254,"endTime":43.36403647916667,"instrument":4,"program":23,"isDrum":false},{"pitch":62,"velocity":87,"startTime":43.315123541666665,"endTime":43.374906020833336,"instrument":4,"program":23,"isDrum":false},{"pitch":62,"velocity":114,"startTime":44.06512191666667,"endTime":44.30425183333334,"instrument":4,"program":23,"isDrum":false},{"pitch":63,"velocity":114,"startTime":44.30425183333334,"endTime":44.5270774375,"instrument":4,"program":23,"isDrum":false},{"pitch":62,"velocity":87,"startTime":44.54338175000001,"endTime":44.81512029166667,"instrument":4,"program":23,"isDrum":false},{"pitch":61,"velocity":97,"startTime":44.83142460416667,"endTime":45.304249666666664,"instrument":4,"program":23,"isDrum":false},{"pitch":62,"velocity":87,"startTime":45.33142352083334,"endTime":45.467292791666665,"instrument":4,"program":23,"isDrum":false},{"pitch":62,"velocity":114,"startTime":45.85316152083334,"endTime":45.945552625000005,"instrument":4,"program":23,"isDrum":false},{"pitch":74,"velocity":75,"startTime":46.38033429166667,"endTime":46.467290625000004,"instrument":4,"program":23,"isDrum":false},{"pitch":62,"velocity":70,"startTime":46.402073375,"endTime":46.47816016666667,"instrument":4,"program":23,"isDrum":false},{"pitch":70,"velocity":128,"startTime":46.91837660416667,"endTime":47.0053329375,"instrument":4,"program":23,"isDrum":false},{"pitch":62,"velocity":75,"startTime":46.92924614583333,"endTime":46.99989816666667,"instrument":4,"program":23,"isDrum":false},{"pitch":62,"velocity":87,"startTime":47.434679833333334,"endTime":47.510766625,"instrument":4,"program":23,"isDrum":false},{"pitch":67,"velocity":114,"startTime":47.434679833333334,"endTime":47.516201395833335,"instrument":4,"program":23,"isDrum":false},{"pitch":75,"velocity":128,"startTime":48.097721875000005,"endTime":48.19011297916667,"instrument":4,"program":23,"isDrum":false},{"pitch":74,"velocity":87,"startTime":48.233591145833344,"endTime":48.3096779375,"instrument":4,"program":23,"isDrum":false},{"pitch":73,"velocity":128,"startTime":48.34772133333334,"endTime":48.43467766666667,"instrument":4,"program":23,"isDrum":false},{"pitch":72,"velocity":97,"startTime":48.47815583333333,"endTime":48.554242625,"instrument":4,"program":23,"isDrum":false},{"pitch":71,"velocity":54,"startTime":48.597720791666674,"endTime":48.67380758333334,"instrument":4,"program":23,"isDrum":false},{"pitch":70,"velocity":128,"startTime":48.722720520833334,"endTime":48.804242083333335,"instrument":4,"program":23,"isDrum":false},{"pitch":69,"velocity":75,"startTime":48.84772025000001,"endTime":48.93467658333334,"instrument":4,"program":23,"isDrum":false},{"pitch":68,"velocity":128,"startTime":48.983589520833334,"endTime":49.086850166666665,"instrument":4,"program":23,"isDrum":false},{"pitch":67,"velocity":78,"startTime":49.11402402083334,"endTime":49.18467604166666,"instrument":4,"program":23,"isDrum":false},{"pitch":66,"velocity":128,"startTime":49.23358897916667,"endTime":49.325980083333334,"instrument":4,"program":23,"isDrum":false},{"pitch":65,"velocity":87,"startTime":49.36945825000001,"endTime":49.45641458333334,"instrument":4,"program":23,"isDrum":false},{"pitch":64,"velocity":70,"startTime":49.49989275,"endTime":49.5814143125,"instrument":4,"program":23,"isDrum":false},{"pitch":63,"velocity":128,"startTime":49.62489247916666,"endTime":49.72271835416667,"instrument":4,"program":23,"isDrum":false},{"pitch":62,"velocity":70,"startTime":49.75532697916667,"endTime":49.83684854166667,"instrument":4,"program":23,"isDrum":false},{"pitch":61,"velocity":128,"startTime":49.88576147916666,"endTime":49.98358735416667,"instrument":4,"program":23,"isDrum":false},{"pitch":60,"velocity":87,"startTime":50.043369833333344,"endTime":50.14119570833334,"instrument":4,"program":23,"isDrum":false},{"pitch":67,"velocity":97,"startTime":50.554238291666664,"endTime":50.635759854166665,"instrument":4,"program":23,"isDrum":false},{"pitch":60,"velocity":78,"startTime":50.56510783333334,"endTime":50.63032508333333,"instrument":4,"program":23,"isDrum":false},{"pitch":66,"velocity":128,"startTime":51.08684583333334,"endTime":51.152063083333346,"instrument":4,"program":23,"isDrum":false},{"pitch":60,"velocity":78,"startTime":51.092280604166675,"endTime":51.16836739583334,"instrument":4,"program":23,"isDrum":false},{"pitch":60,"velocity":97,"startTime":51.60314906250001,"endTime":51.67923585416666,"instrument":4,"program":23,"isDrum":false},{"pitch":67,"velocity":87,"startTime":51.60314906250001,"endTime":51.673801083333345,"instrument":4,"program":23,"isDrum":false},{"pitch":60,"velocity":87,"startTime":52.41292991666667,"endTime":52.47814716666667,"instrument":4,"program":23,"isDrum":false},{"pitch":67,"velocity":87,"startTime":52.41292991666667,"endTime":52.48901670833334,"instrument":4,"program":23,"isDrum":false},{"pitch":67,"velocity":78,"startTime":52.641190291666675,"endTime":52.72814662500001,"instrument":4,"program":23,"isDrum":false},{"pitch":60,"velocity":78,"startTime":52.65749460416667,"endTime":52.72814662500001,"instrument":4,"program":23,"isDrum":false},{"pitch":66,"velocity":128,"startTime":52.91292883333334,"endTime":53.005319937500005,"instrument":4,"program":23,"isDrum":false},{"pitch":60,"velocity":61,"startTime":52.93466791666667,"endTime":52.99445039583334,"instrument":4,"program":23,"isDrum":false},{"pitch":60,"velocity":75,"startTime":53.184667375000004,"endTime":53.266188937500004,"instrument":4,"program":23,"isDrum":false},{"pitch":67,"velocity":87,"startTime":53.184667375000004,"endTime":53.266188937500004,"instrument":4,"program":23,"isDrum":false},{"pitch":66,"velocity":114,"startTime":53.43466683333334,"endTime":53.532492708333336,"instrument":4,"program":23,"isDrum":false},{"pitch":60,"velocity":55,"startTime":53.4618406875,"endTime":53.527057937500004,"instrument":4,"program":23,"isDrum":false},{"pitch":60,"velocity":75,"startTime":53.69553583333334,"endTime":53.793361708333336,"instrument":4,"program":23,"isDrum":false},{"pitch":67,"velocity":97,"startTime":53.70097060416667,"endTime":53.793361708333336,"instrument":4,"program":23,"isDrum":false},{"pitch":66,"velocity":128,"startTime":53.950970062500005,"endTime":54.054230708333336,"instrument":4,"program":23,"isDrum":false},{"pitch":60,"velocity":70,"startTime":53.967274375,"endTime":54.0487959375,"instrument":4,"program":23,"isDrum":false},{"pitch":58,"velocity":114,"startTime":54.23901291666667,"endTime":54.33140402083333,"instrument":4,"program":23,"isDrum":false},{"pitch":58,"velocity":87,"startTime":54.78249000000001,"endTime":54.858576791666664,"instrument":4,"program":23,"isDrum":false},{"pitch":67,"velocity":97,"startTime":54.78249000000001,"endTime":54.86944633333334,"instrument":4,"program":23,"isDrum":false},{"pitch":58,"velocity":70,"startTime":55.30422800000001,"endTime":55.38574956250001,"instrument":4,"program":23,"isDrum":false},{"pitch":66,"velocity":97,"startTime":55.30422800000001,"endTime":55.39118433333334,"instrument":4,"program":23,"isDrum":false},{"pitch":58,"velocity":75,"startTime":55.82596600000001,"endTime":55.896618020833344,"instrument":4,"program":23,"isDrum":false},{"pitch":67,"velocity":87,"startTime":55.82596600000001,"endTime":55.91292233333334,"instrument":4,"program":23,"isDrum":false},{"pitch":66,"velocity":128,"startTime":56.59226868750001,"endTime":56.67922502083334,"instrument":4,"program":23,"isDrum":false},{"pitch":58,"velocity":87,"startTime":56.603138229166674,"endTime":56.662920708333345,"instrument":4,"program":23,"isDrum":false},{"pitch":67,"velocity":87,"startTime":56.831398604166665,"endTime":56.92922447916666,"instrument":4,"program":23,"isDrum":false},{"pitch":58,"velocity":87,"startTime":56.842268145833344,"endTime":56.912920166666666,"instrument":4,"program":23,"isDrum":false},{"pitch":66,"velocity":128,"startTime":57.092267604166665,"endTime":57.184658708333345,"instrument":4,"program":23,"isDrum":false},{"pitch":58,"velocity":70,"startTime":57.10857191666666,"endTime":57.173789166666666,"instrument":4,"program":23,"isDrum":false},{"pitch":58,"velocity":70,"startTime":57.347701833333346,"endTime":57.42922339583333,"instrument":4,"program":23,"isDrum":false},{"pitch":67,"velocity":78,"startTime":57.347701833333346,"endTime":57.45096247916666,"instrument":4,"program":23,"isDrum":false},{"pitch":66,"velocity":128,"startTime":57.608570833333346,"endTime":57.706396708333344,"instrument":4,"program":23,"isDrum":false},{"pitch":58,"velocity":78,"startTime":57.61944037500001,"endTime":57.684657625,"instrument":4,"program":23,"isDrum":false},{"pitch":58,"velocity":75,"startTime":57.858570291666666,"endTime":57.934657083333335,"instrument":4,"program":23,"isDrum":false},{"pitch":67,"velocity":78,"startTime":57.858570291666666,"endTime":57.950961395833346,"instrument":4,"program":23,"isDrum":false},{"pitch":66,"velocity":128,"startTime":58.097700208333336,"endTime":58.195526083333334,"instrument":4,"program":23,"isDrum":false},{"pitch":58,"velocity":61,"startTime":58.11400452083333,"endTime":58.17922177083334,"instrument":4,"program":23,"isDrum":false},{"pitch":57,"velocity":87,"startTime":58.39661260416666,"endTime":58.494438479166675,"instrument":4,"program":23,"isDrum":false},{"pitch":57,"velocity":87,"startTime":58.92378537500001,"endTime":59.00530693750001,"instrument":4,"program":23,"isDrum":false},{"pitch":62,"velocity":97,"startTime":58.92378537500001,"endTime":59.01074170833334,"instrument":4,"program":23,"isDrum":false},{"pitch":60,"velocity":97,"startTime":59.44552337500001,"endTime":59.543349250000006,"instrument":4,"program":23,"isDrum":false},{"pitch":57,"velocity":75,"startTime":59.45095814583334,"endTime":59.543349250000006,"instrument":4,"program":23,"isDrum":false},{"pitch":62,"velocity":114,"startTime":59.94552229166666,"endTime":60.03247862500001,"instrument":4,"program":23,"isDrum":false},{"pitch":57,"velocity":87,"startTime":59.95095706250001,"endTime":60.03247862500001,"instrument":4,"program":23,"isDrum":false},{"pitch":60,"velocity":97,"startTime":60.71725975000001,"endTime":61.16291095833334,"instrument":4,"program":23,"isDrum":false},{"pitch":58,"velocity":87,"startTime":61.190084812500004,"endTime":61.32595408333334,"instrument":4,"program":23,"isDrum":false},{"pitch":57,"velocity":75,"startTime":61.33138885416666,"endTime":61.46182335416667,"instrument":4,"program":23,"isDrum":false},{"pitch":55,"velocity":75,"startTime":61.467258125,"endTime":62.010735208333344,"instrument":4,"program":23,"isDrum":false},{"pitch":54,"velocity":97,"startTime":62.016169979166676,"endTime":62.53247320833334,"instrument":4,"program":23,"isDrum":false},{"pitch":55,"velocity":114,"startTime":62.54877752083334,"endTime":62.66290770833335,"instrument":4,"program":23,"isDrum":false},{"pitch":67,"velocity":87,"startTime":63.39116700000001,"endTime":63.461819020833346,"instrument":4,"program":23,"isDrum":false},{"pitch":75,"velocity":128,"startTime":63.39116700000001,"endTime":63.45638425000001,"instrument":4,"program":23,"isDrum":false},{"pitch":65,"velocity":64,"startTime":63.65203600000001,"endTime":63.72812279166668,"instrument":4,"program":23,"isDrum":false},{"pitch":74,"velocity":114,"startTime":63.65203600000001,"endTime":63.72812279166668,"instrument":4,"program":23,"isDrum":false},{"pitch":63,"velocity":128,"startTime":63.91290500000001,"endTime":63.972687479166666,"instrument":4,"program":23,"isDrum":false},{"pitch":72,"velocity":87,"startTime":63.91290500000001,"endTime":63.972687479166666,"instrument":4,"program":23,"isDrum":false},{"pitch":62,"velocity":87,"startTime":64.17377400000001,"endTime":64.23899125000001,"instrument":4,"program":23,"isDrum":false},{"pitch":70,"velocity":128,"startTime":64.17377400000001,"endTime":64.22812170833335,"instrument":4,"program":23,"isDrum":false},{"pitch":60,"velocity":78,"startTime":64.43464300000001,"endTime":64.49442547916667,"instrument":4,"program":23,"isDrum":false},{"pitch":69,"velocity":87,"startTime":64.43464300000001,"endTime":64.50529502083334,"instrument":4,"program":23,"isDrum":false},{"pitch":58,"velocity":97,"startTime":64.69551200000001,"endTime":64.76616402083333,"instrument":4,"program":23,"isDrum":false},{"pitch":67,"velocity":78,"startTime":64.69551200000001,"endTime":64.76072925000001,"instrument":4,"program":23,"isDrum":false},{"pitch":62,"velocity":97,"startTime":64.95638100000001,"endTime":65.68464029166668,"instrument":4,"program":23,"isDrum":false},{"pitch":60,"velocity":78,"startTime":65.21725,"endTime":65.68464029166668,"instrument":4,"program":23,"isDrum":false},{"pitch":66,"velocity":114,"startTime":65.21725,"endTime":65.69550983333333,"instrument":4,"program":23,"isDrum":false},{"pitch":62,"velocity":97,"startTime":65.71181414583333,"endTime":65.84224864583334,"instrument":4,"program":23,"isDrum":false},{"pitch":67,"velocity":78,"startTime":65.71181414583333,"endTime":65.8531181875,"instrument":4,"program":23,"isDrum":false},{"pitch":58,"velocity":128,"startTime":65.72268368750001,"endTime":65.8531181875,"instrument":4,"program":23,"isDrum":false},{"pitch":55,"velocity":97,"startTime":66.782464,"endTime":67.03789822916669,"instrument":4,"program":23,"isDrum":false},{"pitch":57,"velocity":87,"startTime":67.043333,"endTime":67.26072383333333,"instrument":4,"program":23,"isDrum":false},{"pitch":58,"velocity":78,"startTime":67.27702814583334,"endTime":68.0705046875,"instrument":4,"program":23,"isDrum":false},{"pitch":55,"velocity":87,"startTime":68.08137422916668,"endTime":68.33680845833334,"instrument":4,"program":23,"isDrum":false},{"pitch":57,"velocity":97,"startTime":68.347678,"endTime":68.575938375,"instrument":4,"program":23,"isDrum":false},{"pitch":58,"velocity":87,"startTime":68.5922426875,"endTime":68.84767691666669,"instrument":4,"program":23,"isDrum":false},{"pitch":57,"velocity":114,"startTime":68.88028554166668,"endTime":69.35311060416667,"instrument":4,"program":23,"isDrum":false},{"pitch":55,"velocity":97,"startTime":69.36398014583334,"endTime":69.42919739583334,"instrument":4,"program":23,"isDrum":false},{"pitch":74,"velocity":114,"startTime":69.6357186875,"endTime":69.71180547916669,"instrument":4,"program":23,"isDrum":false},{"pitch":70,"velocity":128,"startTime":69.90202245833333,"endTime":69.96723970833334,"instrument":4,"program":23,"isDrum":false},{"pitch":67,"velocity":97,"startTime":70.14658714583334,"endTime":70.22810870833334,"instrument":4,"program":23,"isDrum":false},{"pitch":74,"velocity":114,"startTime":70.39658660416669,"endTime":70.47267339583334,"instrument":4,"program":23,"isDrum":false},{"pitch":72,"velocity":87,"startTime":70.54332541666668,"endTime":70.6465860625,"instrument":4,"program":23,"isDrum":false},{"pitch":70,"velocity":128,"startTime":70.64115129166667,"endTime":70.76615102083333,"instrument":4,"program":23,"isDrum":false},{"pitch":69,"velocity":87,"startTime":70.78789010416668,"endTime":70.87484643750001,"instrument":4,"program":23,"isDrum":false},{"pitch":67,"velocity":97,"startTime":70.9074550625,"endTime":70.98354185416667,"instrument":4,"program":23,"isDrum":false},{"pitch":67,"velocity":97,"startTime":71.20636745833333,"endTime":71.25528039583334,"instrument":4,"program":23,"isDrum":false},{"pitch":67,"velocity":87,"startTime":71.28245425000001,"endTime":71.35310627083334,"instrument":4,"program":23,"isDrum":false},{"pitch":67,"velocity":87,"startTime":71.39114966666668,"endTime":71.45093214583333,"instrument":4,"program":23,"isDrum":false},{"pitch":65,"velocity":87,"startTime":71.65201866666668,"endTime":71.72267068750001,"instrument":4,"program":23,"isDrum":false},{"pitch":65,"velocity":114,"startTime":71.91832243750001,"endTime":71.98897445833333,"instrument":4,"program":23,"isDrum":false},{"pitch":63,"velocity":128,"startTime":72.15745235416668,"endTime":72.21723483333334,"instrument":4,"program":23,"isDrum":false},{"pitch":63,"velocity":128,"startTime":72.41832135416668,"endTime":72.48897337500001,"instrument":4,"program":23,"isDrum":false},{"pitch":62,"velocity":128,"startTime":72.66288604166668,"endTime":72.73897283333334,"instrument":4,"program":23,"isDrum":false},{"pitch":62,"velocity":97,"startTime":72.93462458333333,"endTime":73.69005772916668,"instrument":4,"program":23,"isDrum":false},{"pitch":63,"velocity":114,"startTime":73.6791881875,"endTime":73.79875314583333,"instrument":4,"program":23,"isDrum":false},{"pitch":62,"velocity":87,"startTime":73.80962268750001,"endTime":73.93462241666668,"instrument":4,"program":23,"isDrum":false},{"pitch":61,"velocity":128,"startTime":73.94549195833333,"endTime":74.04875260416668,"instrument":4,"program":23,"isDrum":false},{"pitch":60,"velocity":78,"startTime":74.08136122916667,"endTime":74.65201216666668,"instrument":4,"program":23,"isDrum":false},{"pitch":69,"velocity":128,"startTime":75.41288008333333,"endTime":75.488966875,"instrument":4,"program":23,"isDrum":false},{"pitch":69,"velocity":128,"startTime":75.52701027083334,"endTime":75.58135797916668,"instrument":4,"program":23,"isDrum":false},{"pitch":69,"velocity":97,"startTime":75.60853183333333,"endTime":75.67918385416668,"instrument":4,"program":23,"isDrum":false},{"pitch":67,"velocity":97,"startTime":75.89113991666667,"endTime":75.97266147916667,"instrument":4,"program":23,"isDrum":false},{"pitch":67,"velocity":114,"startTime":76.16287845833334,"endTime":76.23353047916667,"instrument":4,"program":23,"isDrum":false},{"pitch":66,"velocity":128,"startTime":76.40744314583334,"endTime":76.47266039583334,"instrument":4,"program":23,"isDrum":false},{"pitch":66,"velocity":128,"startTime":76.66831214583334,"endTime":76.72809462500001,"instrument":4,"program":23,"isDrum":false},{"pitch":63,"velocity":128,"startTime":77.50526685416668,"endTime":77.55417979166668,"instrument":4,"program":23,"isDrum":false},{"pitch":63,"velocity":128,"startTime":77.60852750000001,"endTime":77.66830997916668,"instrument":4,"program":23,"isDrum":false},{"pitch":63,"velocity":128,"startTime":77.71722291666669,"endTime":77.76613585416668,"instrument":4,"program":23,"isDrum":false},{"pitch":62,"velocity":128,"startTime":77.97809191666668,"endTime":78.04330916666667,"instrument":4,"program":23,"isDrum":false},{"pitch":62,"velocity":97,"startTime":78.25526522916668,"endTime":79.51069729166667,"instrument":4,"program":23,"isDrum":false},{"pitch":60,"velocity":97,"startTime":79.53787114583334,"endTime":79.78243583333334,"instrument":4,"program":23,"isDrum":false},{"pitch":72,"velocity":78,"startTime":79.7770010625,"endTime":79.858522625,"instrument":4,"program":23,"isDrum":false},{"pitch":60,"velocity":114,"startTime":80.59221668750001,"endTime":80.67917302083333,"instrument":4,"program":23,"isDrum":false},{"pitch":58,"velocity":128,"startTime":80.85308568750001,"endTime":80.92373770833333,"instrument":4,"program":23,"isDrum":false},{"pitch":57,"velocity":114,"startTime":81.10308514583333,"endTime":81.17373716666668,"instrument":4,"program":23,"isDrum":false},{"pitch":55,"velocity":114,"startTime":81.37482368750001,"endTime":81.45091047916668,"instrument":4,"program":23,"isDrum":false},{"pitch":54,"velocity":128,"startTime":81.49982341666669,"endTime":81.58134497916669,"instrument":4,"program":23,"isDrum":false},{"pitch":55,"velocity":97,"startTime":81.61938837500001,"endTime":81.70634470833333,"instrument":4,"program":23,"isDrum":false},{"pitch":57,"velocity":128,"startTime":81.749822875,"endTime":81.83134443750001,"instrument":4,"program":23,"isDrum":false},{"pitch":58,"velocity":128,"startTime":81.88025737500001,"endTime":81.96177893750001,"instrument":4,"program":23,"isDrum":false},{"pitch":57,"velocity":97,"startTime":81.99982233333334,"endTime":82.07047435416668,"instrument":4,"program":23,"isDrum":false},{"pitch":58,"velocity":128,"startTime":82.11395252083334,"endTime":82.20090885416668,"instrument":4,"program":23,"isDrum":false},{"pitch":60,"velocity":78,"startTime":82.24982179166668,"endTime":82.33677812500001,"instrument":4,"program":23,"isDrum":false},{"pitch":62,"velocity":78,"startTime":82.38025629166668,"endTime":82.49438647916668,"instrument":4,"program":23,"isDrum":false},{"pitch":61,"velocity":128,"startTime":82.52156033333334,"endTime":82.59221235416668,"instrument":4,"program":23,"isDrum":false},{"pitch":62,"velocity":78,"startTime":82.64656006250001,"endTime":82.76612502083334,"instrument":4,"program":23,"isDrum":false},{"pitch":63,"velocity":128,"startTime":82.76069025000001,"endTime":82.84221181250001,"instrument":4,"program":23,"isDrum":false},{"pitch":62,"velocity":87,"startTime":82.90199429166668,"endTime":83.03786356250001,"instrument":4,"program":23,"isDrum":false},{"pitch":60,"velocity":114,"startTime":83.02155925000001,"endTime":83.14112420833334,"instrument":4,"program":23,"isDrum":false},{"pitch":58,"velocity":128,"startTime":83.14112420833334,"endTime":83.26612393750001,"instrument":4,"program":23,"isDrum":false},{"pitch":57,"velocity":78,"startTime":83.27699347916668,"endTime":83.41286275,"instrument":4,"program":23,"isDrum":false},{"pitch":55,"velocity":97,"startTime":83.44547137500001,"endTime":83.71720991666668,"instrument":4,"program":23,"isDrum":false},{"pitch":57,"velocity":78,"startTime":83.73351422916669,"endTime":83.93460075000002,"instrument":4,"program":23,"isDrum":false},{"pitch":58,"velocity":78,"startTime":83.95090506250001,"endTime":84.73351206250001,"instrument":4,"program":23,"isDrum":false},{"pitch":55,"velocity":128,"startTime":84.76068591666669,"endTime":84.9617724375,"instrument":4,"program":23,"isDrum":false},{"pitch":57,"velocity":114,"startTime":84.99981583333334,"endTime":85.18459804166667,"instrument":4,"program":23,"isDrum":false},{"pitch":58,"velocity":128,"startTime":85.21177189583334,"endTime":85.44546704166667,"instrument":4,"program":23,"isDrum":false},{"pitch":57,"velocity":114,"startTime":85.48894520833333,"endTime":85.97807458333334,"instrument":4,"program":23,"isDrum":false},{"pitch":55,"velocity":97,"startTime":86.01611797916668,"endTime":86.09220477083333,"instrument":4,"program":23,"isDrum":false},{"pitch":74,"velocity":87,"startTime":86.30959560416667,"endTime":86.38568239583334,"instrument":4,"program":23,"isDrum":false},{"pitch":70,"velocity":128,"startTime":86.55959506250001,"endTime":86.63024708333334,"instrument":4,"program":23,"isDrum":false},{"pitch":67,"velocity":97,"startTime":86.81502929166668,"endTime":86.88568131250001,"instrument":4,"program":23,"isDrum":false},{"pitch":74,"velocity":97,"startTime":87.09220260416669,"endTime":87.16828939583334,"instrument":4,"program":23,"isDrum":false},{"pitch":72,"velocity":97,"startTime":87.23350664583334,"endTime":87.36394114583334,"instrument":4,"program":23,"isDrum":false},{"pitch":70,"velocity":128,"startTime":87.33676729166667,"endTime":87.45089747916668,"instrument":4,"program":23,"isDrum":false},{"pitch":69,"velocity":78,"startTime":87.47807133333333,"endTime":87.57589720833334,"instrument":4,"program":23,"isDrum":false},{"pitch":67,"velocity":114,"startTime":87.59763629166667,"endTime":87.67915785416668,"instrument":4,"program":23,"isDrum":false},{"pitch":67,"velocity":114,"startTime":87.880244375,"endTime":87.94002685416667,"instrument":4,"program":23,"isDrum":false},{"pitch":67,"velocity":97,"startTime":87.98350502083333,"endTime":88.05415704166668,"instrument":4,"program":23,"isDrum":false},{"pitch":67,"velocity":78,"startTime":88.08133089583333,"endTime":88.15198291666668,"instrument":4,"program":23,"isDrum":false},{"pitch":65,"velocity":97,"startTime":88.34219989583333,"endTime":88.41285191666668,"instrument":4,"program":23,"isDrum":false},{"pitch":65,"velocity":97,"startTime":88.62480797916668,"endTime":88.69002522916668,"instrument":4,"program":23,"isDrum":false},{"pitch":63,"velocity":128,"startTime":88.85850312500001,"endTime":88.92372037500002,"instrument":4,"program":23,"isDrum":false},{"pitch":63,"velocity":128,"startTime":89.11393735416668,"endTime":89.17915460416668,"instrument":4,"program":23,"isDrum":false},{"pitch":62,"velocity":97,"startTime":89.38567589583334,"endTime":89.46176268750001,"instrument":4,"program":23,"isDrum":false},{"pitch":60,"velocity":128,"startTime":89.73350122916668,"endTime":89.80958802083333,"instrument":4,"program":23,"isDrum":false},{"pitch":59,"velocity":87,"startTime":89.85850095833334,"endTime":89.93458775,"instrument":4,"program":23,"isDrum":false},{"pitch":60,"velocity":87,"startTime":89.98350068750001,"endTime":90.05958747916668,"instrument":4,"program":23,"isDrum":false},{"pitch":62,"velocity":114,"startTime":90.09763087500001,"endTime":90.19002197916669,"instrument":4,"program":23,"isDrum":false},{"pitch":63,"velocity":128,"startTime":90.23893491666668,"endTime":90.30958693750001,"instrument":4,"program":23,"isDrum":false},{"pitch":62,"velocity":97,"startTime":90.34219556250001,"endTime":90.41828235416668,"instrument":4,"program":23,"isDrum":false},{"pitch":63,"velocity":128,"startTime":90.46719529166668,"endTime":90.54871685416668,"instrument":4,"program":23,"isDrum":false},{"pitch":65,"velocity":61,"startTime":90.60306456250001,"endTime":90.67371658333334,"instrument":4,"program":23,"isDrum":false},{"pitch":67,"velocity":87,"startTime":90.73349906250002,"endTime":90.83132493750001,"instrument":4,"program":23,"isDrum":false},{"pitch":66,"velocity":128,"startTime":90.85306402083334,"endTime":90.92915081250001,"instrument":4,"program":23,"isDrum":false},{"pitch":67,"velocity":61,"startTime":90.98893329166668,"endTime":91.09762870833333,"instrument":4,"program":23,"isDrum":false},{"pitch":68,"velocity":114,"startTime":91.09219393750001,"endTime":91.17915027083333,"instrument":4,"program":23,"isDrum":false},{"pitch":67,"velocity":78,"startTime":91.23349797916669,"endTime":91.35849770833333,"instrument":4,"program":23,"isDrum":false},{"pitch":65,"velocity":114,"startTime":91.35849770833333,"endTime":91.47806266666669,"instrument":4,"program":23,"isDrum":false},{"pitch":63,"velocity":114,"startTime":91.47806266666669,"endTime":91.61393193750001,"instrument":4,"program":23,"isDrum":false},{"pitch":62,"velocity":75,"startTime":91.61393193750001,"endTime":91.72262735416668,"instrument":4,"program":23,"isDrum":false},{"pitch":60,"velocity":114,"startTime":91.78784460416668,"endTime":92.0052354375,"instrument":4,"program":23,"isDrum":false},{"pitch":60,"velocity":87,"startTime":92.04327883333333,"endTime":92.13023516666668,"instrument":4,"program":23,"isDrum":false},{"pitch":63,"velocity":114,"startTime":92.04327883333333,"endTime":92.12480039583333,"instrument":4,"program":23,"isDrum":false},{"pitch":67,"velocity":78,"startTime":92.55958206250001,"endTime":92.97262464583333,"instrument":4,"program":23,"isDrum":false},{"pitch":60,"velocity":87,"startTime":92.57045160416668,"endTime":92.95632033333334,"instrument":4,"program":23,"isDrum":false},{"pitch":66,"velocity":97,"startTime":93.04327666666669,"endTime":93.23349364583333,"instrument":4,"program":23,"isDrum":false},{"pitch":60,"velocity":87,"startTime":93.0487114375,"endTime":93.19001547916668,"instrument":4,"program":23,"isDrum":false},{"pitch":67,"velocity":78,"startTime":93.33675429166668,"endTime":93.45631925,"instrument":4,"program":23,"isDrum":false},{"pitch":60,"velocity":78,"startTime":93.34218906250001,"endTime":93.44544970833334,"instrument":4,"program":23,"isDrum":false},{"pitch":58,"velocity":97,"startTime":93.85849229166668,"endTime":94.0595788125,"instrument":4,"program":23,"isDrum":false},{"pitch":58,"velocity":18,"startTime":94.13023083333334,"endTime":94.23349147916669,"instrument":4,"program":23,"isDrum":false},{"pitch":62,"velocity":114,"startTime":94.15196991666669,"endTime":94.23892625,"instrument":4,"program":23,"isDrum":false},{"pitch":67,"velocity":87,"startTime":94.66827314583334,"endTime":95.09762004166669,"instrument":4,"program":23,"isDrum":false},{"pitch":58,"velocity":97,"startTime":94.67370791666669,"endTime":95.01609847916669,"instrument":4,"program":23,"isDrum":false},{"pitch":66,"velocity":114,"startTime":95.14653297916668,"endTime":95.445445375,"instrument":4,"program":23,"isDrum":false},{"pitch":58,"velocity":97,"startTime":95.15740252083334,"endTime":95.27696747916669,"instrument":4,"program":23,"isDrum":false},{"pitch":58,"velocity":61,"startTime":95.445445375,"endTime":95.54870602083334,"instrument":4,"program":23,"isDrum":false},{"pitch":67,"velocity":97,"startTime":95.4617496875,"endTime":95.57044510416668,"instrument":4,"program":23,"isDrum":false},{"pitch":62,"velocity":97,"startTime":96.24435668750002,"endTime":96.51609522916668,"instrument":4,"program":23,"isDrum":false},{"pitch":69,"velocity":97,"startTime":96.52153000000001,"endTime":96.78239900000001,"instrument":4,"program":23,"isDrum":false},{"pitch":66,"velocity":87,"startTime":96.76609468750001,"endTime":97.03239845833333,"instrument":4,"program":23,"isDrum":false},{"pitch":62,"velocity":64,"startTime":97.03783322916668,"endTime":97.32044131250001,"instrument":4,"program":23,"isDrum":false},{"pitch":60,"velocity":70,"startTime":97.32587608333334,"endTime":97.74978820833334,"instrument":4,"program":23,"isDrum":false},{"pitch":54,"velocity":114,"startTime":97.76609252083334,"endTime":98.04326583333334,"instrument":4,"program":23,"isDrum":false},{"pitch":55,"velocity":97,"startTime":98.05413537500002,"endTime":98.13565693750002,"instrument":4,"program":23,"isDrum":false},{"pitch":62,"velocity":114,"startTime":98.33130868750001,"endTime":99.01065504166668,"instrument":4,"program":23,"isDrum":false},{"pitch":60,"velocity":87,"startTime":98.60848200000001,"endTime":98.901959625,"instrument":4,"program":23,"isDrum":false},{"pitch":66,"velocity":114,"startTime":98.61935154166669,"endTime":99.03782889583334,"instrument":4,"program":23,"isDrum":false},{"pitch":67,"velocity":70,"startTime":99.07587229166668,"endTime":99.228045875,"instrument":4,"program":23,"isDrum":false},{"pitch":62,"velocity":87,"startTime":99.08130706250002,"endTime":99.21717633333334,"instrument":4,"program":23,"isDrum":false},{"pitch":58,"velocity":114,"startTime":99.09217660416668,"endTime":99.21174156250001,"instrument":4,"program":23,"isDrum":false},{"pitch":62,"velocity":128,"startTime":100.19543508333334,"endTime":100.26065233333334,"instrument":4,"program":23,"isDrum":false},{"pitch":62,"velocity":114,"startTime":100.29869572916668,"endTime":100.37478252083334,"instrument":4,"program":23,"isDrum":false},{"pitch":62,"velocity":114,"startTime":100.43999977083334,"endTime":100.51065179166669,"instrument":4,"program":23,"isDrum":false},{"pitch":62,"velocity":114,"startTime":100.55412995833333,"endTime":100.65739060416668,"instrument":4,"program":23,"isDrum":false},{"pitch":72,"velocity":114,"startTime":100.68456445833334,"endTime":100.77152079166669,"instrument":4,"program":23,"isDrum":false},{"pitch":62,"velocity":97,"startTime":100.81499895833333,"endTime":100.90195529166668,"instrument":4,"program":23,"isDrum":false},{"pitch":62,"velocity":114,"startTime":100.92369437500001,"endTime":101.00521593750001,"instrument":4,"program":23,"isDrum":false},{"pitch":62,"velocity":114,"startTime":101.04869410416669,"endTime":101.15738952083333,"instrument":4,"program":23,"isDrum":false},{"pitch":69,"velocity":128,"startTime":101.18456337500001,"endTime":101.28238925000001,"instrument":4,"program":23,"isDrum":false},{"pitch":62,"velocity":114,"startTime":101.30956310416668,"endTime":101.380215125,"instrument":4,"program":23,"isDrum":false},{"pitch":62,"velocity":114,"startTime":101.43999760416668,"endTime":101.51608439583335,"instrument":4,"program":23,"isDrum":false},{"pitch":62,"velocity":97,"startTime":101.5595625625,"endTime":101.6573884375,"instrument":4,"program":23,"isDrum":false},{"pitch":66,"velocity":128,"startTime":101.71173614583334,"endTime":101.80956202083334,"instrument":4,"program":23,"isDrum":false},{"pitch":62,"velocity":114,"startTime":101.82586633333334,"endTime":101.901953125,"instrument":4,"program":23,"isDrum":false},{"pitch":62,"velocity":128,"startTime":101.95630083333334,"endTime":102.04869193750001,"instrument":4,"program":23,"isDrum":false},{"pitch":62,"velocity":87,"startTime":102.08673533333334,"endTime":102.17912643750002,"instrument":4,"program":23,"isDrum":false},{"pitch":62,"velocity":128,"startTime":102.22803937500001,"endTime":102.32043047916669,"instrument":4,"program":23,"isDrum":false},{"pitch":62,"velocity":87,"startTime":102.35303910416668,"endTime":102.44543020833333,"instrument":4,"program":23,"isDrum":false},{"pitch":62,"velocity":114,"startTime":102.48347360416668,"endTime":102.57586470833334,"instrument":4,"program":23,"isDrum":false},{"pitch":62,"velocity":87,"startTime":102.60847333333334,"endTime":102.69542966666668,"instrument":4,"program":23,"isDrum":false},{"pitch":62,"velocity":128,"startTime":102.74434260416668,"endTime":102.83673370833334,"instrument":4,"program":23,"isDrum":false},{"pitch":62,"velocity":87,"startTime":102.86934233333334,"endTime":102.95629866666668,"instrument":4,"program":23,"isDrum":false},{"pitch":62,"velocity":128,"startTime":103.00521160416667,"endTime":103.09760270833334,"instrument":4,"program":23,"isDrum":false},{"pitch":62,"velocity":97,"startTime":103.14108087500001,"endTime":103.23347197916668,"instrument":4,"program":23,"isDrum":false},{"pitch":63,"velocity":128,"startTime":103.27695014583334,"endTime":103.36390647916669,"instrument":4,"program":23,"isDrum":false},{"pitch":62,"velocity":97,"startTime":103.39651510416668,"endTime":103.47803666666668,"instrument":4,"program":23,"isDrum":false},{"pitch":61,"velocity":128,"startTime":103.52694960416669,"endTime":103.60303639583334,"instrument":4,"program":23,"isDrum":false},{"pitch":62,"velocity":97,"startTime":103.64651456250002,"endTime":103.74434043750001,"instrument":4,"program":23,"isDrum":false},{"pitch":63,"velocity":128,"startTime":103.78781860416669,"endTime":103.8747749375,"instrument":4,"program":23,"isDrum":false},{"pitch":62,"velocity":114,"startTime":103.91825310416668,"endTime":103.99433989583333,"instrument":4,"program":23,"isDrum":false},{"pitch":61,"velocity":128,"startTime":104.04325283333334,"endTime":104.12477439583334,"instrument":4,"program":23,"isDrum":false},{"pitch":62,"velocity":114,"startTime":104.16825256250002,"endTime":104.25520889583333,"instrument":4,"program":23,"isDrum":false},{"pitch":62,"velocity":128,"startTime":104.314991375,"endTime":104.41281725000002,"instrument":4,"program":23,"isDrum":false},{"pitch":62,"velocity":97,"startTime":104.43999110416668,"endTime":104.52694743750001,"instrument":4,"program":23,"isDrum":false},{"pitch":62,"velocity":114,"startTime":104.575860375,"endTime":104.65194716666669,"instrument":4,"program":23,"isDrum":false},{"pitch":62,"velocity":87,"startTime":104.70629487500001,"endTime":104.82042506250001,"instrument":4,"program":23,"isDrum":false},{"pitch":74,"velocity":128,"startTime":104.85303368750002,"endTime":104.94542479166668,"instrument":4,"program":23,"isDrum":false},{"pitch":62,"velocity":128,"startTime":104.97259864583334,"endTime":105.06498975000001,"instrument":4,"program":23,"isDrum":false},{"pitch":62,"velocity":114,"startTime":105.097598375,"endTime":105.1791199375,"instrument":4,"program":23,"isDrum":false},{"pitch":62,"velocity":114,"startTime":105.22803287500001,"endTime":105.32585875000001,"instrument":4,"program":23,"isDrum":false},{"pitch":70,"velocity":128,"startTime":105.36390214583334,"endTime":105.45629325000002,"instrument":4,"program":23,"isDrum":false},{"pitch":62,"velocity":114,"startTime":105.48346710416668,"endTime":105.56498866666668,"instrument":4,"program":23,"isDrum":false},{"pitch":62,"velocity":114,"startTime":105.61390160416668,"endTime":105.68998839583334,"instrument":4,"program":23,"isDrum":false},{"pitch":62,"velocity":97,"startTime":105.73346656250001,"endTime":105.83672720833334,"instrument":4,"program":23,"isDrum":false},{"pitch":67,"velocity":128,"startTime":105.87477060416668,"endTime":105.97803125000002,"instrument":4,"program":23,"isDrum":false},{"pitch":62,"velocity":114,"startTime":106.01607464583334,"endTime":106.09759620833334,"instrument":4,"program":23,"isDrum":false},{"pitch":62,"velocity":114,"startTime":106.14650914583333,"endTime":106.23890025000001,"instrument":4,"program":23,"isDrum":false},{"pitch":62,"velocity":87,"startTime":106.26607410416668,"endTime":106.35846520833334,"instrument":4,"program":23,"isDrum":false},{"pitch":62,"velocity":114,"startTime":106.40194337500002,"endTime":106.49976925000001,"instrument":4,"program":23,"isDrum":false},{"pitch":62,"velocity":97,"startTime":106.53237787500001,"endTime":106.61933420833334,"instrument":4,"program":23,"isDrum":false},{"pitch":62,"velocity":114,"startTime":106.66824714583333,"endTime":106.76063825000001,"instrument":4,"program":23,"isDrum":false},{"pitch":62,"velocity":97,"startTime":106.79868164583334,"endTime":106.88563797916669,"instrument":4,"program":23,"isDrum":false},{"pitch":62,"velocity":114,"startTime":106.93455091666668,"endTime":107.03237679166668,"instrument":4,"program":23,"isDrum":false},{"pitch":62,"velocity":87,"startTime":107.05955064583334,"endTime":107.14650697916669,"instrument":4,"program":23,"isDrum":false},{"pitch":62,"velocity":128,"startTime":107.18998514583333,"endTime":107.27694147916668,"instrument":4,"program":23,"isDrum":false},{"pitch":62,"velocity":97,"startTime":107.32041964583334,"endTime":107.41281075,"instrument":4,"program":23,"isDrum":false},{"pitch":63,"velocity":128,"startTime":107.45085414583333,"endTime":107.53781047916668,"instrument":4,"program":23,"isDrum":false},{"pitch":62,"velocity":114,"startTime":107.58128864583334,"endTime":107.65737543750001,"instrument":4,"program":23,"isDrum":false},{"pitch":61,"velocity":128,"startTime":107.70085360416668,"endTime":107.78780993750001,"instrument":4,"program":23,"isDrum":false},{"pitch":62,"velocity":114,"startTime":107.82041856250001,"endTime":107.91280966666669,"instrument":4,"program":23,"isDrum":false},{"pitch":63,"velocity":128,"startTime":107.95628783333333,"endTime":108.05411370833333,"instrument":4,"program":23,"isDrum":false},{"pitch":62,"velocity":114,"startTime":108.097591875,"endTime":108.17367866666669,"instrument":4,"program":23,"isDrum":false},{"pitch":61,"velocity":128,"startTime":108.22259160416668,"endTime":108.30954793750001,"instrument":4,"program":23,"isDrum":false},{"pitch":62,"velocity":97,"startTime":108.34759133333334,"endTime":108.4399824375,"instrument":4,"program":23,"isDrum":false},{"pitch":62,"velocity":128,"startTime":108.50519968750001,"endTime":108.60302556250001,"instrument":4,"program":23,"isDrum":false},{"pitch":62,"velocity":87,"startTime":108.63019941666668,"endTime":108.71715575000002,"instrument":4,"program":23,"isDrum":false},{"pitch":62,"velocity":114,"startTime":108.77150345833334,"endTime":108.85302502083334,"instrument":4,"program":23,"isDrum":false},{"pitch":62,"velocity":97,"startTime":108.89650318750002,"endTime":109.00519860416668,"instrument":4,"program":23,"isDrum":false},{"pitch":72,"velocity":114,"startTime":109.03780722916669,"endTime":109.12476356250001,"instrument":4,"program":23,"isDrum":false},{"pitch":62,"velocity":128,"startTime":109.15193741666668,"endTime":109.23345897916668,"instrument":4,"program":23,"isDrum":false},{"pitch":62,"velocity":114,"startTime":109.27150237500001,"endTime":109.35302393750001,"instrument":4,"program":23,"isDrum":false},{"pitch":62,"velocity":97,"startTime":109.401936875,"endTime":109.51606706250001,"instrument":4,"program":23,"isDrum":false},{"pitch":69,"velocity":128,"startTime":109.54324091666668,"endTime":109.64106679166669,"instrument":4,"program":23,"isDrum":false},{"pitch":62,"velocity":114,"startTime":109.66824064583334,"endTime":109.74976220833334,"instrument":4,"program":23,"isDrum":false},{"pitch":62,"velocity":114,"startTime":109.79867514583334,"endTime":109.88019670833334,"instrument":4,"program":23,"isDrum":false},{"pitch":62,"velocity":97,"startTime":109.91280533333334,"endTime":110.01063120833334,"instrument":4,"program":23,"isDrum":false},{"pitch":66,"velocity":128,"startTime":110.05410937500001,"endTime":110.14650047916668,"instrument":4,"program":23,"isDrum":false},{"pitch":62,"velocity":114,"startTime":110.18997864583334,"endTime":110.26606543750002,"instrument":4,"program":23,"isDrum":false},{"pitch":62,"velocity":114,"startTime":110.32041314583334,"endTime":110.41280425000001,"instrument":4,"program":23,"isDrum":false},{"pitch":62,"velocity":87,"startTime":110.43997810416668,"endTime":110.53236920833334,"instrument":4,"program":23,"isDrum":false},{"pitch":62,"velocity":128,"startTime":110.58671691666669,"endTime":110.68454279166669,"instrument":4,"program":23,"isDrum":false},{"pitch":62,"velocity":97,"startTime":110.71171664583333,"endTime":110.80410775000001,"instrument":4,"program":23,"isDrum":false},{"pitch":62,"velocity":114,"startTime":110.84758591666669,"endTime":110.93997702083334,"instrument":4,"program":23,"isDrum":false},{"pitch":62,"velocity":97,"startTime":110.97258564583333,"endTime":111.06497675000001,"instrument":4,"program":23,"isDrum":false},{"pitch":62,"velocity":114,"startTime":111.10845491666669,"endTime":111.19541125,"instrument":4,"program":23,"isDrum":false},{"pitch":62,"velocity":87,"startTime":111.23888941666668,"endTime":111.33128052083335,"instrument":4,"program":23,"isDrum":false},{"pitch":62,"velocity":97,"startTime":111.36388914583334,"endTime":111.45084547916669,"instrument":4,"program":23,"isDrum":false},{"pitch":62,"velocity":114,"startTime":111.48888887500001,"endTime":111.58671475000001,"instrument":4,"program":23,"isDrum":false},{"pitch":63,"velocity":128,"startTime":111.62475814583334,"endTime":111.71171447916669,"instrument":4,"program":23,"isDrum":false},{"pitch":62,"velocity":97,"startTime":111.74432310416668,"endTime":111.82584466666668,"instrument":4,"program":23,"isDrum":false},{"pitch":61,"velocity":128,"startTime":111.87475760416669,"endTime":111.96714870833334,"instrument":4,"program":23,"isDrum":false},{"pitch":62,"velocity":97,"startTime":111.99432256250002,"endTime":112.09214843750001,"instrument":4,"program":23,"isDrum":false},{"pitch":63,"velocity":128,"startTime":112.14649614583334,"endTime":112.23888725,"instrument":4,"program":23,"isDrum":false},{"pitch":62,"velocity":97,"startTime":112.27693064583335,"endTime":112.34758266666668,"instrument":4,"program":23,"isDrum":false},{"pitch":61,"velocity":128,"startTime":112.401930375,"endTime":112.48888670833334,"instrument":4,"program":23,"isDrum":false},{"pitch":62,"velocity":97,"startTime":112.52693010416668,"endTime":112.60845166666668,"instrument":4,"program":23,"isDrum":false},{"pitch":62,"velocity":128,"startTime":112.67366891666668,"endTime":112.76606002083334,"instrument":4,"program":23,"isDrum":false},{"pitch":62,"velocity":78,"startTime":112.79866864583335,"endTime":112.89105975000001,"instrument":4,"program":23,"isDrum":false},{"pitch":62,"velocity":97,"startTime":112.93997268750002,"endTime":113.02692902083334,"instrument":4,"program":23,"isDrum":false},{"pitch":62,"velocity":87,"startTime":113.07040718750001,"endTime":113.17910260416669,"instrument":4,"program":23,"isDrum":false},{"pitch":74,"velocity":128,"startTime":113.21171122916668,"endTime":113.28779802083334,"instrument":4,"program":23,"isDrum":false},{"pitch":62,"velocity":114,"startTime":113.33127618750001,"endTime":113.42910206250001,"instrument":4,"program":23,"isDrum":false},{"pitch":62,"velocity":114,"startTime":113.445406375,"endTime":113.53779747916668,"instrument":4,"program":23,"isDrum":false},{"pitch":62,"velocity":114,"startTime":113.57584087500001,"endTime":113.67910152083334,"instrument":4,"program":23,"isDrum":false},{"pitch":70,"velocity":128,"startTime":113.71714491666668,"endTime":113.79866647916668,"instrument":4,"program":23,"isDrum":false},{"pitch":62,"velocity":114,"startTime":113.83670987500001,"endTime":113.90736189583333,"instrument":4,"program":23,"isDrum":false},{"pitch":62,"velocity":97,"startTime":113.95627483333334,"endTime":114.03779639583334,"instrument":4,"program":23,"isDrum":false},{"pitch":62,"velocity":97,"startTime":114.07583979166668,"endTime":114.18453520833334,"instrument":4,"program":23,"isDrum":false},{"pitch":67,"velocity":128,"startTime":114.2117090625,"endTime":114.30410016666669,"instrument":4,"program":23,"isDrum":false},{"pitch":62,"velocity":128,"startTime":114.35301310416668,"endTime":114.42909989583335,"instrument":4,"program":23,"isDrum":false},{"pitch":62,"velocity":114,"startTime":114.4725780625,"endTime":114.57040393750002,"instrument":4,"program":23,"isDrum":false},{"pitch":62,"velocity":97,"startTime":114.59757779166668,"endTime":114.68996889583335,"instrument":4,"program":23,"isDrum":false},{"pitch":62,"velocity":114,"startTime":114.73888183333334,"endTime":114.83670770833334,"instrument":4,"program":23,"isDrum":false},{"pitch":62,"velocity":97,"startTime":114.86388156250001,"endTime":114.95627266666668,"instrument":4,"program":23,"isDrum":false},{"pitch":62,"velocity":97,"startTime":115.01062037500002,"endTime":115.09757670833334,"instrument":4,"program":23,"isDrum":false},{"pitch":62,"velocity":87,"startTime":115.12475056250001,"endTime":115.21170689583334,"instrument":4,"program":23,"isDrum":false},{"pitch":62,"velocity":128,"startTime":115.27148937500002,"endTime":115.35301093750002,"instrument":4,"program":23,"isDrum":false},{"pitch":62,"velocity":87,"startTime":115.38561956250001,"endTime":115.47257589583334,"instrument":4,"program":23,"isDrum":false},{"pitch":62,"velocity":114,"startTime":115.52692360416668,"endTime":115.60844516666668,"instrument":4,"program":23,"isDrum":false},{"pitch":62,"velocity":87,"startTime":115.65192333333334,"endTime":115.74431443750001,"instrument":4,"program":23,"isDrum":false},{"pitch":63,"velocity":128,"startTime":115.78779260416668,"endTime":115.87474893750002,"instrument":4,"program":23,"isDrum":false},{"pitch":62,"velocity":114,"startTime":115.92366187500001,"endTime":115.99431389583334,"instrument":4,"program":23,"isDrum":false},{"pitch":61,"velocity":128,"startTime":116.04866160416668,"endTime":116.13018316666668,"instrument":4,"program":23,"isDrum":false},{"pitch":62,"velocity":97,"startTime":116.16822656250001,"endTime":116.25518289583334,"instrument":4,"program":23,"isDrum":false},{"pitch":63,"velocity":128,"startTime":116.29866106250002,"endTime":116.39105216666668,"instrument":4,"program":23,"isDrum":false},{"pitch":62,"velocity":114,"startTime":116.43996510416669,"endTime":116.52692143750001,"instrument":4,"program":23,"isDrum":false},{"pitch":61,"velocity":128,"startTime":116.54866052083334,"endTime":116.63018208333334,"instrument":4,"program":23,"isDrum":false},{"pitch":62,"velocity":128,"startTime":116.67366025000001,"endTime":116.77692089583334,"instrument":4,"program":23,"isDrum":false},{"pitch":60,"velocity":114,"startTime":116.80952952083334,"endTime":116.89105108333334,"instrument":4,"program":23,"isDrum":false},{"pitch":59,"velocity":87,"startTime":116.95083356250001,"endTime":117.01605081250001,"instrument":4,"program":23,"isDrum":false},{"pitch":60,"velocity":114,"startTime":117.07039852083334,"endTime":117.15735485416668,"instrument":4,"program":23,"isDrum":false},{"pitch":62,"velocity":128,"startTime":117.21170256250001,"endTime":117.30409366666669,"instrument":4,"program":23,"isDrum":false},{"pitch":63,"velocity":128,"startTime":117.34213706250002,"endTime":117.41822385416668,"instrument":4,"program":23,"isDrum":false},{"pitch":62,"velocity":128,"startTime":117.46170202083334,"endTime":117.54322358333334,"instrument":4,"program":23,"isDrum":false},{"pitch":63,"velocity":128,"startTime":117.58670175000002,"endTime":117.67365808333334,"instrument":4,"program":23,"isDrum":false},{"pitch":65,"velocity":114,"startTime":117.71713625000001,"endTime":117.80952735416669,"instrument":4,"program":23,"isDrum":false},{"pitch":67,"velocity":114,"startTime":117.86387506250001,"endTime":117.98344002083334,"instrument":4,"program":23,"isDrum":false},{"pitch":66,"velocity":128,"startTime":117.99974433333334,"endTime":118.08670066666669,"instrument":4,"program":23,"isDrum":false},{"pitch":67,"velocity":87,"startTime":118.13017883333335,"endTime":118.21170039583335,"instrument":4,"program":23,"isDrum":false},{"pitch":71,"velocity":128,"startTime":118.26604810416669,"endTime":118.3530044375,"instrument":4,"program":23,"isDrum":false},{"pitch":72,"velocity":128,"startTime":118.39648260416668,"endTime":118.48343893750001,"instrument":4,"program":23,"isDrum":false},{"pitch":71,"velocity":114,"startTime":118.52691710416669,"endTime":118.60300389583334,"instrument":4,"program":23,"isDrum":false},{"pitch":72,"velocity":114,"startTime":118.65191683333335,"endTime":118.72800362500001,"instrument":4,"program":23,"isDrum":false},{"pitch":74,"velocity":97,"startTime":118.77148179166669,"endTime":118.88017720833334,"instrument":4,"program":23,"isDrum":false},{"pitch":75,"velocity":128,"startTime":118.92365537500001,"endTime":119.03235079166669,"instrument":4,"program":23,"isDrum":false},{"pitch":74,"velocity":97,"startTime":119.07582895833335,"endTime":119.15191575000001,"instrument":4,"program":23,"isDrum":false},{"pitch":73,"velocity":128,"startTime":119.18452437500001,"endTime":119.26604593750001,"instrument":4,"program":23,"isDrum":false},{"pitch":74,"velocity":128,"startTime":119.32039364583333,"endTime":119.42365429166668,"instrument":4,"program":23,"isDrum":false},{"pitch":75,"velocity":128,"startTime":119.45082814583334,"endTime":119.57582787500002,"instrument":4,"program":23,"isDrum":false},{"pitch":74,"velocity":97,"startTime":119.57039310416668,"endTime":119.65734943750002,"instrument":4,"program":23,"isDrum":false},{"pitch":73,"velocity":128,"startTime":119.68995806250001,"endTime":119.78234916666668,"instrument":4,"program":23,"isDrum":false},{"pitch":74,"velocity":128,"startTime":119.82582733333334,"endTime":119.92365320833333,"instrument":4,"program":23,"isDrum":false},{"pitch":75,"velocity":128,"startTime":119.96169660416669,"endTime":120.04865293750001,"instrument":4,"program":23,"isDrum":false},{"pitch":74,"velocity":114,"startTime":120.08126156250002,"endTime":120.16821789583334,"instrument":4,"program":23,"isDrum":false},{"pitch":73,"velocity":128,"startTime":120.20082652083335,"endTime":120.30952193750001,"instrument":4,"program":23,"isDrum":false},{"pitch":74,"velocity":97,"startTime":120.34213056250002,"endTime":120.42365212500002,"instrument":4,"program":23,"isDrum":false},{"pitch":75,"velocity":128,"startTime":120.46169552083335,"endTime":120.53778231250001,"instrument":4,"program":23,"isDrum":false},{"pitch":76,"velocity":114,"startTime":120.58669525,"endTime":120.67908635416669,"instrument":4,"program":23,"isDrum":false},{"pitch":77,"velocity":128,"startTime":120.73343406250001,"endTime":120.80408608333335,"instrument":4,"program":23,"isDrum":false},{"pitch":78,"velocity":128,"startTime":120.85299902083334,"endTime":120.93452058333334,"instrument":4,"program":23,"isDrum":false},{"pitch":79,"velocity":114,"startTime":120.99973783333334,"endTime":121.08669416666669,"instrument":4,"program":23,"isDrum":false},{"pitch":78,"velocity":128,"startTime":121.11930279166668,"endTime":121.21169389583333,"instrument":4,"program":23,"isDrum":false},{"pitch":79,"velocity":97,"startTime":121.26060683333334,"endTime":121.35843270833334,"instrument":4,"program":23,"isDrum":false},{"pitch":81,"velocity":87,"startTime":121.40191087500001,"endTime":121.47799766666668,"instrument":4,"program":23,"isDrum":false},{"pitch":79,"velocity":97,"startTime":121.532345375,"endTime":121.61930170833334,"instrument":4,"program":23,"isDrum":false},{"pitch":78,"velocity":128,"startTime":121.64104079166668,"endTime":121.73886666666668,"instrument":4,"program":23,"isDrum":false},{"pitch":77,"velocity":114,"startTime":121.77691006250001,"endTime":121.88017070833334,"instrument":4,"program":23,"isDrum":false},{"pitch":76,"velocity":114,"startTime":121.91277933333335,"endTime":122.01060520833335,"instrument":4,"program":23,"isDrum":false},{"pitch":75,"velocity":128,"startTime":122.04864860416669,"endTime":122.13017016666669,"instrument":4,"program":23,"isDrum":false},{"pitch":74,"velocity":114,"startTime":122.17364833333335,"endTime":122.26060466666668,"instrument":4,"program":23,"isDrum":false},{"pitch":73,"velocity":128,"startTime":122.31495237500002,"endTime":122.3964739375,"instrument":4,"program":23,"isDrum":false},{"pitch":74,"velocity":114,"startTime":122.43995210416668,"endTime":122.51603889583335,"instrument":4,"program":23,"isDrum":false},{"pitch":75,"velocity":128,"startTime":122.58125614583334,"endTime":122.67364725000002,"instrument":4,"program":23,"isDrum":false},{"pitch":74,"velocity":97,"startTime":122.71712541666669,"endTime":122.8203860625,"instrument":4,"program":23,"isDrum":false},{"pitch":70,"velocity":128,"startTime":122.85299468750001,"endTime":122.95082056250001,"instrument":4,"program":23,"isDrum":false},{"pitch":67,"velocity":114,"startTime":122.97799441666669,"endTime":123.07582029166669,"instrument":4,"program":23,"isDrum":false},{"pitch":75,"velocity":128,"startTime":123.10842891666668,"endTime":123.21712433333335,"instrument":4,"program":23,"isDrum":false},{"pitch":74,"velocity":64,"startTime":123.23886341666669,"endTime":123.36386314583334,"instrument":4,"program":23,"isDrum":false},{"pitch":70,"velocity":128,"startTime":123.36929791666668,"endTime":123.47799333333334,"instrument":4,"program":23,"isDrum":false},{"pitch":67,"velocity":97,"startTime":123.51060195833334,"endTime":123.58668875000001,"instrument":4,"program":23,"isDrum":false},{"pitch":70,"velocity":128,"startTime":123.65734077083334,"endTime":123.78777527083334,"instrument":4,"program":23,"isDrum":false},{"pitch":67,"velocity":97,"startTime":123.77690572916669,"endTime":123.90190545833335,"instrument":4,"program":23,"isDrum":false},{"pitch":63,"velocity":128,"startTime":123.90190545833335,"endTime":123.99973133333334,"instrument":4,"program":23,"isDrum":false},{"pitch":62,"velocity":75,"startTime":124.0269051875,"endTime":124.11386152083334,"instrument":4,"program":23,"isDrum":false},{"pitch":63,"velocity":128,"startTime":124.15733968750001,"endTime":124.26603510416669,"instrument":4,"program":23,"isDrum":false},{"pitch":62,"velocity":97,"startTime":124.2877741875,"endTime":124.41277391666668,"instrument":4,"program":23,"isDrum":false},{"pitch":58,"velocity":97,"startTime":124.41820868750001,"endTime":124.52146933333334,"instrument":4,"program":23,"isDrum":false},{"pitch":55,"velocity":78,"startTime":124.52690410416669,"endTime":124.63016475,"instrument":4,"program":23,"isDrum":false},{"pitch":58,"velocity":128,"startTime":124.66820814583335,"endTime":124.76059925000001,"instrument":4,"program":23,"isDrum":false},{"pitch":55,"velocity":128,"startTime":124.80407741666669,"endTime":124.91820760416668,"instrument":4,"program":23,"isDrum":false},{"pitch":53,"velocity":97,"startTime":124.92364237500001,"endTime":125.01059870833335,"instrument":4,"program":23,"isDrum":false},{"pitch":51,"velocity":128,"startTime":125.054076875,"endTime":125.18451137500001,"instrument":4,"program":23,"isDrum":false},{"pitch":50,"velocity":97,"startTime":125.18994614583335,"endTime":125.28233725000001,"instrument":4,"program":23,"isDrum":false},{"pitch":49,"velocity":128,"startTime":125.32581541666669,"endTime":125.40733697916669,"instrument":4,"program":23,"isDrum":false},{"pitch":50,"velocity":97,"startTime":125.43994560416668,"endTime":125.54320625000001,"instrument":4,"program":23,"isDrum":false},{"pitch":52,"velocity":128,"startTime":125.58124964583334,"endTime":125.66820597916669,"instrument":4,"program":23,"isDrum":false},{"pitch":54,"velocity":128,"startTime":125.70081460416668,"endTime":125.78777093750001,"instrument":4,"program":23,"isDrum":false},{"pitch":53,"velocity":114,"startTime":125.82581433333334,"endTime":125.92364020833335,"instrument":4,"program":23,"isDrum":false},{"pitch":54,"velocity":128,"startTime":125.94537929166668,"endTime":126.07581379166669,"instrument":4,"program":23,"isDrum":false},{"pitch":55,"velocity":114,"startTime":126.07581379166669,"endTime":126.17363966666667,"instrument":4,"program":23,"isDrum":false},{"pitch":57,"velocity":114,"startTime":126.227987375,"endTime":126.358421875,"instrument":4,"program":23,"isDrum":false},{"pitch":56,"velocity":128,"startTime":126.358421875,"endTime":126.44537820833335,"instrument":4,"program":23,"isDrum":false},{"pitch":57,"velocity":97,"startTime":126.4834216041667,"endTime":126.57581270833333,"instrument":4,"program":23,"isDrum":false},{"pitch":59,"velocity":128,"startTime":126.61385610416667,"endTime":126.70624720833334,"instrument":4,"program":23,"isDrum":false},{"pitch":60,"velocity":114,"startTime":126.74429060416668,"endTime":126.83668170833334,"instrument":4,"program":23,"isDrum":false},{"pitch":59,"velocity":114,"startTime":126.85842079166667,"endTime":126.95081189583334,"instrument":4,"program":23,"isDrum":false},{"pitch":60,"velocity":128,"startTime":126.9942900625,"endTime":127.075811625,"instrument":4,"program":23,"isDrum":false},{"pitch":61,"velocity":128,"startTime":127.11385502083334,"endTime":127.20081135416669,"instrument":4,"program":23,"isDrum":false},{"pitch":62,"velocity":114,"startTime":127.25515906250001,"endTime":127.36385447916669,"instrument":4,"program":23,"isDrum":false},{"pitch":61,"velocity":128,"startTime":127.38015879166667,"endTime":127.46711512500002,"instrument":4,"program":23,"isDrum":false},{"pitch":62,"velocity":97,"startTime":127.49972375000002,"endTime":127.59211485416668,"instrument":4,"program":23,"isDrum":false},{"pitch":64,"velocity":128,"startTime":127.6464625625,"endTime":127.73341889583335,"instrument":4,"program":23,"isDrum":false},{"pitch":66,"velocity":128,"startTime":127.77689706250001,"endTime":127.86385339583333,"instrument":4,"program":23,"isDrum":false},{"pitch":65,"velocity":114,"startTime":127.90189679166667,"endTime":127.99428789583334,"instrument":4,"program":23,"isDrum":false},{"pitch":66,"velocity":128,"startTime":128.03233129166668,"endTime":128.11385285416668,"instrument":4,"program":23,"isDrum":false},{"pitch":67,"velocity":114,"startTime":128.15733102083334,"endTime":128.26602643750002,"instrument":4,"program":23,"isDrum":false},{"pitch":69,"velocity":97,"startTime":128.2932002916667,"endTime":128.41276525,"instrument":4,"program":23,"isDrum":false},{"pitch":66,"velocity":128,"startTime":128.41820002083335,"endTime":128.51602589583334,"instrument":4,"program":23,"isDrum":false},{"pitch":62,"velocity":97,"startTime":128.53233020833335,"endTime":128.62472131250001,"instrument":4,"program":23,"isDrum":false},{"pitch":63,"velocity":128,"startTime":128.67363425000002,"endTime":128.77689489583335,"instrument":4,"program":23,"isDrum":false},{"pitch":62,"velocity":97,"startTime":128.80950352083335,"endTime":128.8855903125,"instrument":4,"program":23,"isDrum":false},{"pitch":60,"velocity":114,"startTime":128.95080756250002,"endTime":129.06493775,"instrument":4,"program":23,"isDrum":false},{"pitch":58,"velocity":128,"startTime":129.07037252083333,"endTime":129.16819839583334,"instrument":4,"program":23,"isDrum":false},{"pitch":57,"velocity":128,"startTime":129.19537225000002,"endTime":129.28232858333334,"instrument":4,"program":23,"isDrum":false},{"pitch":55,"velocity":97,"startTime":129.34754583333333,"endTime":129.4181978541667,"instrument":4,"program":23,"isDrum":false},{"pitch":75,"velocity":128,"startTime":129.56493666666668,"endTime":129.67363208333333,"instrument":4,"program":23,"isDrum":false},{"pitch":74,"velocity":114,"startTime":129.67363208333333,"endTime":129.78776227083335,"instrument":4,"program":23,"isDrum":false},{"pitch":72,"velocity":97,"startTime":129.80406658333334,"endTime":129.88015337500002,"instrument":4,"program":23,"isDrum":false},{"pitch":70,"velocity":128,"startTime":129.9399358541667,"endTime":130.01602264583335,"instrument":4,"program":23,"isDrum":false},{"pitch":69,"velocity":114,"startTime":130.06493558333335,"endTime":130.14645714583335,"instrument":4,"program":23,"isDrum":false},{"pitch":67,"velocity":97,"startTime":130.16276145833334,"endTime":130.2551525625,"instrument":4,"program":23,"isDrum":false},{"pitch":66,"velocity":128,"startTime":130.30950027083335,"endTime":130.40189137500002,"instrument":4,"program":23,"isDrum":false},{"pitch":63,"velocity":128,"startTime":130.4345,"endTime":130.53232587500003,"instrument":4,"program":23,"isDrum":false},{"pitch":62,"velocity":128,"startTime":130.55949972916667,"endTime":130.65189083333334,"instrument":4,"program":23,"isDrum":false},{"pitch":60,"velocity":124,"startTime":130.66819514583335,"endTime":130.77145579166668,"instrument":4,"program":23,"isDrum":false},{"pitch":58,"velocity":128,"startTime":130.81493395833334,"endTime":130.9018902916667,"instrument":4,"program":23,"isDrum":false},{"pitch":57,"velocity":114,"startTime":130.9399336875,"endTime":131.0323247916667,"instrument":4,"program":23,"isDrum":false},{"pitch":55,"velocity":114,"startTime":131.04319433333333,"endTime":131.13558543750003,"instrument":4,"program":23,"isDrum":false},{"pitch":54,"velocity":128,"startTime":131.184498375,"endTime":131.2768894791667,"instrument":4,"program":23,"isDrum":false},{"pitch":57,"velocity":114,"startTime":131.32036764583333,"endTime":131.4290630625,"instrument":4,"program":23,"isDrum":false},{"pitch":55,"velocity":114,"startTime":131.45080214583334,"endTime":131.53775847916665,"instrument":4,"program":23,"isDrum":false},{"pitch":62,"velocity":128,"startTime":131.73884500000003,"endTime":132.45623475000002,"instrument":4,"program":23,"isDrum":false},{"pitch":60,"velocity":70,"startTime":131.9834096875,"endTime":132.46166952083337,"instrument":4,"program":23,"isDrum":false},{"pitch":66,"velocity":114,"startTime":131.98884445833335,"endTime":132.4399304375,"instrument":4,"program":23,"isDrum":false},{"pitch":67,"velocity":50,"startTime":132.46166952083337,"endTime":132.59753879166666,"instrument":4,"program":23,"isDrum":false},{"pitch":62,"velocity":58,"startTime":132.47797383333335,"endTime":132.59753879166666,"instrument":4,"program":23,"isDrum":false},{"pitch":58,"velocity":128,"startTime":132.48340860416667,"endTime":132.59210402083335,"instrument":4,"program":23,"isDrum":false},{"pitch":67,"velocity":128,"startTime":133.59210185416666,"endTime":133.67362341666666,"instrument":4,"program":23,"isDrum":false},{"pitch":66,"velocity":128,"startTime":133.83666654166666,"endTime":133.90188379166668,"instrument":4,"program":23,"isDrum":false},{"pitch":67,"velocity":128,"startTime":134.05949214583336,"endTime":134.15188325000003,"instrument":4,"program":23,"isDrum":false},{"pitch":69,"velocity":128,"startTime":134.33666545833336,"endTime":134.63014308333337,"instrument":4,"program":23,"isDrum":false},{"pitch":70,"velocity":128,"startTime":134.83666437500003,"endTime":135.30948943750002,"instrument":4,"program":23,"isDrum":false},{"pitch":69,"velocity":128,"startTime":135.3747066875,"endTime":135.45079347916666,"instrument":4,"program":23,"isDrum":false},{"pitch":67,"velocity":128,"startTime":135.66274954166667,"endTime":135.72796679166666,"instrument":4,"program":23,"isDrum":false},{"pitch":66,"velocity":128,"startTime":135.77687972916667,"endTime":135.85296652083335,"instrument":4,"program":23,"isDrum":false},{"pitch":67,"velocity":97,"startTime":135.8964446875,"endTime":135.96166193750003,"instrument":4,"program":23,"isDrum":false},{"pitch":69,"velocity":128,"startTime":136.01600964583335,"endTime":136.09753120833335,"instrument":4,"program":23,"isDrum":false},{"pitch":70,"velocity":128,"startTime":136.141009375,"endTime":136.2225309375,"instrument":4,"program":23,"isDrum":false},{"pitch":69,"velocity":128,"startTime":136.26600910416667,"endTime":136.34209589583335,"instrument":4,"program":23,"isDrum":false},{"pitch":70,"velocity":128,"startTime":136.38013929166667,"endTime":136.46166085416667,"instrument":4,"program":23,"isDrum":false},{"pitch":72,"velocity":114,"startTime":136.52144333333337,"endTime":136.6138344375,"instrument":4,"program":23,"isDrum":false},{"pitch":74,"velocity":114,"startTime":136.65187783333334,"endTime":136.73883416666666,"instrument":4,"program":23,"isDrum":false},{"pitch":72,"velocity":97,"startTime":136.7768775625,"endTime":136.87470343750002,"instrument":4,"program":23,"isDrum":false},{"pitch":70,"velocity":128,"startTime":136.89644252083335,"endTime":136.99426839583336,"instrument":4,"program":23,"isDrum":false},{"pitch":69,"velocity":97,"startTime":137.03231179166667,"endTime":137.13013766666666,"instrument":4,"program":23,"isDrum":false},{"pitch":67,"velocity":64,"startTime":137.16818106250003,"endTime":137.25513739583334,"instrument":4,"program":23,"isDrum":false},{"pitch":69,"velocity":114,"startTime":137.28231125000002,"endTime":137.38557189583335,"instrument":4,"program":23,"isDrum":false},{"pitch":67,"velocity":87,"startTime":137.40731097916668,"endTime":137.48883254166668,"instrument":4,"program":23,"isDrum":false},{"pitch":65,"velocity":114,"startTime":137.54861502083335,"endTime":137.65187566666668,"instrument":4,"program":23,"isDrum":false},{"pitch":63,"velocity":128,"startTime":137.68991906250002,"endTime":137.97252714583337,"instrument":4,"program":23,"isDrum":false},{"pitch":62,"velocity":128,"startTime":137.98883145833335,"endTime":138.07578779166667,"instrument":4,"program":23,"isDrum":false},{"pitch":63,"velocity":128,"startTime":138.227961375,"endTime":138.3094829375,"instrument":4,"program":23,"isDrum":false},{"pitch":65,"velocity":128,"startTime":138.49426514583337,"endTime":138.61383010416668,"instrument":4,"program":23,"isDrum":false},{"pitch":67,"velocity":128,"startTime":138.97252497916668,"endTime":139.44535004166667,"instrument":4,"program":23,"isDrum":false},{"pitch":63,"velocity":128,"startTime":139.4833934375,"endTime":139.57578454166668,"instrument":4,"program":23,"isDrum":false},{"pitch":62,"velocity":128,"startTime":139.81491445833336,"endTime":139.88556647916667,"instrument":4,"program":23,"isDrum":false},{"pitch":61,"velocity":128,"startTime":139.92904464583336,"endTime":139.99969666666667,"instrument":4,"program":23,"isDrum":false},{"pitch":62,"velocity":97,"startTime":140.0377400625,"endTime":140.11382685416666,"instrument":4,"program":23,"isDrum":false},{"pitch":66,"velocity":128,"startTime":140.16273979166667,"endTime":140.2333918125,"instrument":4,"program":23,"isDrum":false},{"pitch":67,"velocity":114,"startTime":140.28773952083336,"endTime":140.38556539583337,"instrument":4,"program":23,"isDrum":false},{"pitch":66,"velocity":128,"startTime":140.41817402083336,"endTime":140.48882604166667,"instrument":4,"program":23,"isDrum":false},{"pitch":67,"velocity":78,"startTime":140.53773897916668,"endTime":140.61926054166668,"instrument":4,"program":23,"isDrum":false},{"pitch":69,"velocity":128,"startTime":140.66817347916668,"endTime":140.74969504166668,"instrument":4,"program":23,"isDrum":false},{"pitch":70,"velocity":128,"startTime":140.78773843750002,"endTime":140.87469477083334,"instrument":4,"program":23,"isDrum":false},{"pitch":69,"velocity":114,"startTime":140.9181729375,"endTime":140.99425972916666,"instrument":4,"program":23,"isDrum":false},{"pitch":70,"velocity":128,"startTime":141.04317266666666,"endTime":141.130129,"instrument":4,"program":23,"isDrum":false},{"pitch":72,"velocity":87,"startTime":141.18991147916668,"endTime":141.2768678125,"instrument":4,"program":23,"isDrum":false},{"pitch":74,"velocity":114,"startTime":141.32034597916666,"endTime":141.4073023125,"instrument":4,"program":23,"isDrum":false},{"pitch":72,"velocity":114,"startTime":141.4399109375,"endTime":141.53773681250001,"instrument":4,"program":23,"isDrum":false},{"pitch":70,"velocity":128,"startTime":141.55404112500003,"endTime":141.66817131250002,"instrument":4,"program":23,"isDrum":false},{"pitch":69,"velocity":97,"startTime":141.68991039583335,"endTime":141.80404058333335,"instrument":4,"program":23,"isDrum":false},{"pitch":67,"velocity":128,"startTime":141.83664920833337,"endTime":142.1246920625,"instrument":4,"program":23,"isDrum":false},{"pitch":66,"velocity":128,"startTime":142.15186591666668,"endTime":142.21708316666667,"instrument":4,"program":23,"isDrum":false},{"pitch":67,"velocity":114,"startTime":142.41273491666666,"endTime":142.4833869375,"instrument":4,"program":23,"isDrum":false},{"pitch":69,"velocity":128,"startTime":142.67360391666668,"endTime":142.73882116666667,"instrument":4,"program":23,"isDrum":false},{"pitch":70,"velocity":128,"startTime":143.15729852083336,"endTime":143.63012358333336,"instrument":4,"program":23,"isDrum":false},{"pitch":69,"velocity":114,"startTime":143.67360175000002,"endTime":143.74968854166667,"instrument":4,"program":23,"isDrum":false},{"pitch":67,"velocity":128,"startTime":143.97794891666666,"endTime":144.04860093750003,"instrument":4,"program":23,"isDrum":false},{"pitch":66,"velocity":128,"startTime":144.097513875,"endTime":144.16816589583337,"instrument":4,"program":23,"isDrum":false},{"pitch":67,"velocity":97,"startTime":144.2116440625,"endTime":144.28773085416668,"instrument":4,"program":23,"isDrum":false},{"pitch":69,"velocity":128,"startTime":144.33664379166666,"endTime":144.41273058333334,"instrument":4,"program":23,"isDrum":false},{"pitch":70,"velocity":128,"startTime":144.45620875,"endTime":144.54316508333335,"instrument":4,"program":23,"isDrum":false},{"pitch":69,"velocity":128,"startTime":144.59751279166667,"endTime":144.6681648125,"instrument":4,"program":23,"isDrum":false},{"pitch":70,"velocity":128,"startTime":144.71164297916667,"endTime":144.79316454166667,"instrument":4,"program":23,"isDrum":false},{"pitch":72,"velocity":78,"startTime":144.85294702083337,"endTime":144.95077289583335,"instrument":4,"program":23,"isDrum":false},{"pitch":74,"velocity":87,"startTime":144.98881629166667,"endTime":145.075772625,"instrument":4,"program":23,"isDrum":false},{"pitch":72,"velocity":87,"startTime":145.11381602083335,"endTime":145.21164189583337,"instrument":4,"program":23,"isDrum":false},{"pitch":70,"velocity":128,"startTime":145.2225114375,"endTime":145.32577208333336,"instrument":4,"program":23,"isDrum":false},{"pitch":69,"velocity":97,"startTime":145.3529459375,"endTime":145.46164135416666,"instrument":4,"program":23,"isDrum":false},{"pitch":67,"velocity":87,"startTime":145.48881520833336,"endTime":145.56490200000002,"instrument":4,"program":23,"isDrum":false},{"pitch":69,"velocity":128,"startTime":145.60294539583336,"endTime":145.70077127083334,"instrument":4,"program":23,"isDrum":false},{"pitch":67,"velocity":87,"startTime":145.72251035416667,"endTime":145.80403191666667,"instrument":4,"program":23,"isDrum":false},{"pitch":65,"velocity":114,"startTime":145.85837962500003,"endTime":145.96707504166667,"instrument":4,"program":23,"isDrum":false},{"pitch":63,"velocity":128,"startTime":146.01055320833336,"endTime":146.33663945833337,"instrument":4,"program":23,"isDrum":false},{"pitch":62,"velocity":114,"startTime":146.35837854166667,"endTime":146.43446533333335,"instrument":4,"program":23,"isDrum":false},{"pitch":63,"velocity":128,"startTime":146.5920736875,"endTime":146.66816047916666,"instrument":4,"program":23,"isDrum":false},{"pitch":65,"velocity":128,"startTime":146.84750791666667,"endTime":146.93989902083337,"instrument":4,"program":23,"isDrum":false},{"pitch":67,"velocity":128,"startTime":147.33663729166668,"endTime":147.80946235416667,"instrument":4,"program":23,"isDrum":false},{"pitch":63,"velocity":128,"startTime":147.84750575,"endTime":147.9290273125,"instrument":4,"program":23,"isDrum":false},{"pitch":62,"velocity":128,"startTime":148.173592,"endTime":148.24967879166667,"instrument":4,"program":23,"isDrum":false},{"pitch":61,"velocity":128,"startTime":148.30402650000002,"endTime":148.38011329166667,"instrument":4,"program":23,"isDrum":false},{"pitch":62,"velocity":97,"startTime":148.43446100000003,"endTime":148.49967825000002,"instrument":4,"program":23,"isDrum":false},{"pitch":66,"velocity":114,"startTime":148.5648955,"endTime":148.63011275000002,"instrument":4,"program":23,"isDrum":false},{"pitch":67,"velocity":97,"startTime":148.69533,"endTime":148.79315587500002,"instrument":4,"program":23,"isDrum":false},{"pitch":66,"velocity":128,"startTime":148.82576450000002,"endTime":148.90185129166667,"instrument":4,"program":23,"isDrum":false},{"pitch":67,"velocity":97,"startTime":148.95619900000003,"endTime":149.03772056250003,"instrument":4,"program":23,"isDrum":false},{"pitch":69,"velocity":114,"startTime":149.0866335,"endTime":149.1681550625,"instrument":4,"program":23,"isDrum":false},{"pitch":70,"velocity":128,"startTime":149.217068,"endTime":149.30402433333336,"instrument":4,"program":23,"isDrum":false},{"pitch":69,"velocity":114,"startTime":149.34750250000002,"endTime":149.42358929166667,"instrument":4,"program":23,"isDrum":false},{"pitch":70,"velocity":128,"startTime":149.47793700000003,"endTime":149.56489333333334,"instrument":4,"program":23,"isDrum":false},{"pitch":72,"velocity":87,"startTime":149.6083715,"endTime":149.70619737500002,"instrument":4,"program":23,"isDrum":false},{"pitch":74,"velocity":87,"startTime":149.738806,"endTime":149.8203275625,"instrument":4,"program":23,"isDrum":false},{"pitch":75,"velocity":128,"startTime":149.86924050000002,"endTime":149.93989252083335,"instrument":4,"program":23,"isDrum":false},{"pitch":76,"velocity":97,"startTime":149.99967500000002,"endTime":150.08663133333334,"instrument":4,"program":23,"isDrum":false},{"pitch":78,"velocity":128,"startTime":150.1301095,"endTime":150.22250060416667,"instrument":4,"program":23,"isDrum":false},{"pitch":79,"velocity":128,"startTime":150.260544,"endTime":150.41271758333335,"instrument":4,"program":23,"isDrum":false},{"pitch":74,"velocity":87,"startTime":150.85836879166666,"endTime":151.36923725000003,"instrument":4,"program":23,"isDrum":false},{"pitch":75,"velocity":114,"startTime":151.39097633333336,"endTime":152.1029313125,"instrument":4,"program":23,"isDrum":false},{"pitch":74,"velocity":97,"startTime":152.06488791666666,"endTime":152.29314829166668,"instrument":4,"program":23,"isDrum":false},{"pitch":74,"velocity":87,"startTime":152.34206122916666,"endTime":153.0811900625,"instrument":4,"program":23,"isDrum":false},{"pitch":72,"velocity":87,"startTime":153.09205960416668,"endTime":153.26053750000003,"instrument":4,"program":23,"isDrum":false},{"pitch":72,"velocity":97,"startTime":153.35292860416666,"endTime":153.6029280625,"instrument":4,"program":23,"isDrum":false},{"pitch":75,"velocity":128,"startTime":153.64097145833335,"endTime":153.85836229166668,"instrument":4,"program":23,"isDrum":false},{"pitch":74,"velocity":87,"startTime":153.89097091666667,"endTime":154.62466497916668,"instrument":4,"program":23,"isDrum":false},{"pitch":72,"velocity":128,"startTime":154.96162077083335,"endTime":155.42357629166668,"instrument":4,"program":23,"isDrum":false},{"pitch":74,"velocity":128,"startTime":155.46161968750002,"endTime":156.14096604166667,"instrument":4,"program":23,"isDrum":false},{"pitch":72,"velocity":97,"startTime":156.1790094375,"endTime":156.39640027083337,"instrument":4,"program":23,"isDrum":false},{"pitch":72,"velocity":128,"startTime":156.49966091666667,"endTime":157.206181125,"instrument":4,"program":23,"isDrum":false},{"pitch":70,"velocity":114,"startTime":157.22792020833336,"endTime":157.44531104166668,"instrument":4,"program":23,"isDrum":false},{"pitch":70,"velocity":128,"startTime":157.54313691666667,"endTime":157.77139729166666,"instrument":4,"program":23,"isDrum":false},{"pitch":74,"velocity":97,"startTime":157.81487545833335,"endTime":158.01596197916666,"instrument":4,"program":23,"isDrum":false},{"pitch":72,"velocity":78,"startTime":158.07574445833336,"endTime":159.09204660416668,"instrument":4,"program":23,"isDrum":false},{"pitch":70,"velocity":128,"startTime":159.1137856875,"endTime":159.57030643750002,"instrument":4,"program":23,"isDrum":false},{"pitch":72,"velocity":114,"startTime":159.60834983333336,"endTime":160.3203048125,"instrument":4,"program":23,"isDrum":false},{"pitch":70,"velocity":128,"startTime":160.33117435416668,"endTime":160.58660858333334,"instrument":4,"program":23,"isDrum":false},{"pitch":70,"velocity":128,"startTime":160.65182583333336,"endTime":161.36921558333336,"instrument":4,"program":23,"isDrum":false},{"pitch":69,"velocity":114,"startTime":161.40182420833335,"endTime":161.59747595833335,"instrument":4,"program":23,"isDrum":false},{"pitch":69,"velocity":128,"startTime":161.6898670625,"endTime":161.92899697916667,"instrument":4,"program":23,"isDrum":false},{"pitch":72,"velocity":114,"startTime":161.967040375,"endTime":162.17899643750002,"instrument":4,"program":23,"isDrum":false},{"pitch":70,"velocity":128,"startTime":162.21703983333336,"endTime":163.20073335416666,"instrument":4,"program":23,"isDrum":false},{"pitch":69,"velocity":114,"startTime":163.24964629166666,"endTime":163.76594952083335,"instrument":4,"program":23,"isDrum":false},{"pitch":67,"velocity":114,"startTime":163.7768190625,"endTime":164.30399183333336,"instrument":4,"program":23,"isDrum":false},{"pitch":66,"velocity":128,"startTime":164.33660045833335,"endTime":164.83116460416667,"instrument":4,"program":23,"isDrum":false},{"pitch":67,"velocity":87,"startTime":164.84746891666668,"endTime":164.91812093750002,"instrument":4,"program":23,"isDrum":false},{"pitch":62,"velocity":114,"startTime":165.097468375,"endTime":165.78768427083335,"instrument":4,"program":23,"isDrum":false},{"pitch":60,"velocity":97,"startTime":165.36920691666668,"endTime":165.83659720833336,"instrument":4,"program":23,"isDrum":false},{"pitch":66,"velocity":114,"startTime":165.3746416875,"endTime":165.82029289583335,"instrument":4,"program":23,"isDrum":false},{"pitch":67,"velocity":61,"startTime":165.84746675000002,"endTime":166.00507510416668,"instrument":4,"program":23,"isDrum":false},{"pitch":62,"velocity":87,"startTime":165.85290152083337,"endTime":165.9942055625,"instrument":4,"program":23,"isDrum":false},{"pitch":58,"velocity":128,"startTime":165.85833629166666,"endTime":165.98333602083335,"instrument":4,"program":23,"isDrum":false},{"pitch":50,"velocity":87,"startTime":167.08659450000002,"endTime":167.16811606250002,"instrument":4,"program":23,"isDrum":false},{"pitch":50,"velocity":114,"startTime":167.21702900000003,"endTime":167.314854875,"instrument":4,"program":23,"isDrum":false},{"pitch":50,"velocity":128,"startTime":167.3474635,"endTime":167.45072414583336,"instrument":4,"program":23,"isDrum":false},{"pitch":54,"velocity":128,"startTime":167.477898,"endTime":167.57572387500002,"instrument":4,"program":23,"isDrum":false},{"pitch":54,"velocity":114,"startTime":167.60833250000002,"endTime":167.66811497916666,"instrument":4,"program":23,"isDrum":false},{"pitch":54,"velocity":128,"startTime":167.73876700000002,"endTime":167.81485379166668,"instrument":4,"program":23,"isDrum":false},{"pitch":54,"velocity":128,"startTime":167.8692015,"endTime":167.9181144375,"instrument":4,"program":23,"isDrum":false},{"pitch":57,"velocity":128,"startTime":167.999636,"endTime":168.09746187500002,"instrument":4,"program":23,"isDrum":false},{"pitch":57,"velocity":75,"startTime":168.13007050000002,"endTime":168.20072252083335,"instrument":4,"program":23,"isDrum":false},{"pitch":57,"velocity":114,"startTime":168.26050500000002,"endTime":168.34746133333337,"instrument":4,"program":23,"isDrum":false},{"pitch":57,"velocity":87,"startTime":168.3909395,"endTime":168.4724610625,"instrument":4,"program":23,"isDrum":false},{"pitch":60,"velocity":114,"startTime":168.521374,"endTime":168.6028955625,"instrument":4,"program":23,"isDrum":false},{"pitch":60,"velocity":97,"startTime":168.65180850000002,"endTime":168.72789529166667,"instrument":4,"program":23,"isDrum":false},{"pitch":60,"velocity":114,"startTime":168.78224300000002,"endTime":168.85832979166668,"instrument":4,"program":23,"isDrum":false},{"pitch":60,"velocity":97,"startTime":168.9126775,"endTime":168.9941990625,"instrument":4,"program":23,"isDrum":false},{"pitch":63,"velocity":128,"startTime":169.043112,"endTime":169.10832925000003,"instrument":4,"program":23,"isDrum":false},{"pitch":63,"velocity":128,"startTime":169.17354650000001,"endTime":169.23876375,"instrument":4,"program":23,"isDrum":false},{"pitch":63,"velocity":128,"startTime":169.30398100000002,"endTime":169.38550256250002,"instrument":4,"program":23,"isDrum":false},{"pitch":63,"velocity":128,"startTime":169.43441550000003,"endTime":169.49419797916667,"instrument":4,"program":23,"isDrum":false},{"pitch":62,"velocity":128,"startTime":169.56485,"endTime":169.65180633333335,"instrument":4,"program":23,"isDrum":false},{"pitch":62,"velocity":97,"startTime":169.6952845,"endTime":169.77137129166667,"instrument":4,"program":23,"isDrum":false},{"pitch":62,"velocity":128,"startTime":169.82571900000002,"endTime":169.91267533333337,"instrument":4,"program":23,"isDrum":false},{"pitch":62,"velocity":97,"startTime":169.95615350000003,"endTime":170.03767506250003,"instrument":4,"program":23,"isDrum":false},{"pitch":60,"velocity":114,"startTime":170.086588,"endTime":170.18441387500002,"instrument":4,"program":23,"isDrum":false},{"pitch":60,"velocity":97,"startTime":170.2170225,"endTime":170.29310929166667,"instrument":4,"program":23,"isDrum":false},{"pitch":60,"velocity":114,"startTime":170.34745700000002,"endTime":170.445282875,"instrument":4,"program":23,"isDrum":false},{"pitch":60,"velocity":87,"startTime":170.47789150000003,"endTime":170.54854352083336,"instrument":4,"program":23,"isDrum":false},{"pitch":57,"velocity":114,"startTime":170.608326,"endTime":170.70071710416667,"instrument":4,"program":23,"isDrum":false},{"pitch":57,"velocity":97,"startTime":170.7387605,"endTime":170.81484729166667,"instrument":4,"program":23,"isDrum":false},{"pitch":57,"velocity":78,"startTime":170.86919500000002,"endTime":170.95071656250002,"instrument":4,"program":23,"isDrum":false},{"pitch":57,"velocity":97,"startTime":170.99962950000003,"endTime":171.08115106250003,"instrument":4,"program":23,"isDrum":false},{"pitch":58,"velocity":128,"startTime":171.130064,"endTime":171.2115855625,"instrument":4,"program":23,"isDrum":false},{"pitch":58,"velocity":128,"startTime":171.2604985,"endTime":171.32028097916668,"instrument":4,"program":23,"isDrum":false},{"pitch":58,"velocity":128,"startTime":171.39093300000002,"endTime":171.47245456250002,"instrument":4,"program":23,"isDrum":false},{"pitch":58,"velocity":128,"startTime":171.52136750000003,"endTime":171.60288906250003,"instrument":4,"program":23,"isDrum":false},{"pitch":62,"velocity":128,"startTime":171.651802,"endTime":171.74419310416667,"instrument":4,"program":23,"isDrum":false},{"pitch":62,"velocity":97,"startTime":171.7822365,"endTime":171.84745375000003,"instrument":4,"program":23,"isDrum":false},{"pitch":62,"velocity":128,"startTime":171.91267100000002,"endTime":171.99419256250002,"instrument":4,"program":23,"isDrum":false},{"pitch":62,"velocity":114,"startTime":172.04310550000002,"endTime":172.12462706250002,"instrument":4,"program":23,"isDrum":false},{"pitch":67,"velocity":128,"startTime":172.17354,"endTime":172.26049633333335,"instrument":4,"program":23,"isDrum":false},{"pitch":67,"velocity":97,"startTime":172.3039745,"endTime":172.39093083333336,"instrument":4,"program":23,"isDrum":false},{"pitch":67,"velocity":97,"startTime":172.43440900000002,"endTime":172.51593056250002,"instrument":4,"program":23,"isDrum":false},{"pitch":67,"velocity":97,"startTime":172.56484350000002,"endTime":172.64636506250002,"instrument":4,"program":23,"isDrum":false},{"pitch":69,"velocity":128,"startTime":172.695278,"endTime":172.78223433333335,"instrument":4,"program":23,"isDrum":false},{"pitch":69,"velocity":97,"startTime":172.8257125,"endTime":172.9072340625,"instrument":4,"program":23,"isDrum":false},{"pitch":69,"velocity":114,"startTime":172.95614700000002,"endTime":173.03766856250002,"instrument":4,"program":23,"isDrum":false},{"pitch":69,"velocity":114,"startTime":173.08658150000002,"endTime":173.17353783333337,"instrument":4,"program":23,"isDrum":false},{"pitch":70,"velocity":128,"startTime":173.217016,"endTime":173.29310279166668,"instrument":4,"program":23,"isDrum":false},{"pitch":70,"velocity":128,"startTime":173.3474505,"endTime":173.41266775000003,"instrument":4,"program":23,"isDrum":false},{"pitch":70,"velocity":128,"startTime":173.47788500000001,"endTime":173.55397179166667,"instrument":4,"program":23,"isDrum":false},{"pitch":70,"velocity":128,"startTime":173.60831950000002,"endTime":173.68440629166668,"instrument":4,"program":23,"isDrum":false},{"pitch":69,"velocity":114,"startTime":173.73875400000003,"endTime":173.83114510416667,"instrument":4,"program":23,"isDrum":false},{"pitch":69,"velocity":97,"startTime":173.8691885,"endTime":173.94527529166666,"instrument":4,"program":23,"isDrum":false},{"pitch":69,"velocity":97,"startTime":173.999623,"endTime":174.08657933333336,"instrument":4,"program":23,"isDrum":false},{"pitch":69,"velocity":97,"startTime":174.13005750000002,"endTime":174.20614429166667,"instrument":4,"program":23,"isDrum":false},{"pitch":67,"velocity":128,"startTime":174.26049200000003,"endTime":174.34744833333335,"instrument":4,"program":23,"isDrum":false},{"pitch":67,"velocity":97,"startTime":174.3909265,"endTime":174.46701329166666,"instrument":4,"program":23,"isDrum":false},{"pitch":67,"velocity":114,"startTime":174.521361,"endTime":174.59744779166667,"instrument":4,"program":23,"isDrum":false},{"pitch":67,"velocity":87,"startTime":174.65179550000002,"endTime":174.73875183333337,"instrument":4,"program":23,"isDrum":false},{"pitch":66,"velocity":128,"startTime":174.78223000000003,"endTime":174.85831679166668,"instrument":4,"program":23,"isDrum":false},{"pitch":66,"velocity":128,"startTime":174.9126645,"endTime":174.98331652083337,"instrument":4,"program":23,"isDrum":false},{"pitch":66,"velocity":128,"startTime":175.043099,"endTime":175.11375102083335,"instrument":4,"program":23,"isDrum":false},{"pitch":66,"velocity":128,"startTime":175.17353350000002,"endTime":175.24962029166667,"instrument":4,"program":23,"isDrum":false},{"pitch":69,"velocity":128,"startTime":175.30396800000003,"endTime":175.40722864583336,"instrument":4,"program":23,"isDrum":false},{"pitch":69,"velocity":97,"startTime":175.4344025,"endTime":175.50505452083337,"instrument":4,"program":23,"isDrum":false},{"pitch":69,"velocity":128,"startTime":175.564837,"endTime":175.65722810416668,"instrument":4,"program":23,"isDrum":false},{"pitch":69,"velocity":87,"startTime":175.69527150000002,"endTime":175.77679306250002,"instrument":4,"program":23,"isDrum":false},{"pitch":66,"velocity":128,"startTime":175.82570600000003,"endTime":175.91809710416666,"instrument":4,"program":23,"isDrum":false},{"pitch":66,"velocity":128,"startTime":175.9561405,"endTime":176.02679252083337,"instrument":4,"program":23,"isDrum":false},{"pitch":66,"velocity":128,"startTime":176.086575,"endTime":176.16266179166666,"instrument":4,"program":23,"isDrum":false},{"pitch":66,"velocity":128,"startTime":176.21700950000002,"endTime":176.249618125,"instrument":4,"program":23,"isDrum":false},{"pitch":62,"velocity":128,"startTime":176.34744400000002,"endTime":176.445269875,"instrument":4,"program":23,"isDrum":false},{"pitch":62,"velocity":87,"startTime":176.4778785,"endTime":176.55396529166669,"instrument":4,"program":23,"isDrum":false},{"pitch":62,"velocity":114,"startTime":176.608313,"endTime":176.70070410416668,"instrument":4,"program":23,"isDrum":false},{"pitch":62,"velocity":97,"startTime":176.73874750000002,"endTime":176.81483429166667,"instrument":4,"program":23,"isDrum":false},{"pitch":60,"velocity":114,"startTime":176.86918200000002,"endTime":176.96157310416666,"instrument":4,"program":23,"isDrum":false},{"pitch":60,"velocity":97,"startTime":176.9996165,"endTime":177.0811380625,"instrument":4,"program":23,"isDrum":false},{"pitch":60,"velocity":114,"startTime":177.130051,"endTime":177.2115725625,"instrument":4,"program":23,"isDrum":false},{"pitch":60,"velocity":87,"startTime":177.26048550000002,"endTime":177.33657229166667,"instrument":4,"program":23,"isDrum":false},{"pitch":57,"velocity":114,"startTime":177.39092000000002,"endTime":177.48331110416666,"instrument":4,"program":23,"isDrum":false},{"pitch":57,"velocity":87,"startTime":177.52135450000003,"endTime":177.59744129166668,"instrument":4,"program":23,"isDrum":false},{"pitch":57,"velocity":97,"startTime":177.651789,"endTime":177.73874533333336,"instrument":4,"program":23,"isDrum":false},{"pitch":57,"velocity":87,"startTime":177.78222350000001,"endTime":177.85831029166667,"instrument":4,"program":23,"isDrum":false},{"pitch":54,"velocity":128,"startTime":177.91265800000002,"endTime":177.99961433333337,"instrument":4,"program":23,"isDrum":false},{"pitch":54,"velocity":128,"startTime":178.04309250000003,"endTime":178.11917929166668,"instrument":4,"program":23,"isDrum":false},{"pitch":54,"velocity":87,"startTime":178.173527,"endTime":178.27678764583337,"instrument":4,"program":23,"isDrum":false},{"pitch":54,"velocity":114,"startTime":178.3039615,"endTime":178.39091783333336,"instrument":4,"program":23,"isDrum":false},{"pitch":50,"velocity":128,"startTime":178.43439600000002,"endTime":178.53765664583335,"instrument":4,"program":23,"isDrum":false},{"pitch":50,"velocity":87,"startTime":178.56483050000003,"endTime":178.64091729166668,"instrument":4,"program":23,"isDrum":false},{"pitch":50,"velocity":97,"startTime":178.695265,"endTime":178.78765610416667,"instrument":4,"program":23,"isDrum":false},{"pitch":50,"velocity":87,"startTime":178.8256995,"endTime":178.90178629166667,"instrument":4,"program":23,"isDrum":false},{"pitch":54,"velocity":128,"startTime":178.95613400000002,"endTime":179.03765556250002,"instrument":4,"program":23,"isDrum":false},{"pitch":54,"velocity":114,"startTime":179.08656850000003,"endTime":179.14635097916667,"instrument":4,"program":23,"isDrum":false},{"pitch":54,"velocity":128,"startTime":179.217003,"endTime":179.29308979166666,"instrument":4,"program":23,"isDrum":false},{"pitch":54,"velocity":128,"startTime":179.3474375,"endTime":179.41808952083335,"instrument":4,"program":23,"isDrum":false},{"pitch":55,"velocity":128,"startTime":179.47787200000002,"endTime":179.58113264583335,"instrument":4,"program":23,"isDrum":false},{"pitch":55,"velocity":97,"startTime":179.60830650000003,"endTime":179.68439329166668,"instrument":4,"program":23,"isDrum":false},{"pitch":55,"velocity":128,"startTime":179.738741,"endTime":179.83113210416667,"instrument":4,"program":23,"isDrum":false},{"pitch":55,"velocity":97,"startTime":179.8691755,"endTime":179.93982752083335,"instrument":4,"program":23,"isDrum":false},{"pitch":50,"velocity":114,"startTime":179.99961000000002,"endTime":180.08113156250002,"instrument":4,"program":23,"isDrum":false},{"pitch":50,"velocity":97,"startTime":180.13004450000003,"endTime":180.21156606250003,"instrument":4,"program":23,"isDrum":false},{"pitch":50,"velocity":97,"startTime":180.260479,"endTime":180.35287010416667,"instrument":4,"program":23,"isDrum":false},{"pitch":50,"velocity":87,"startTime":180.3909135,"endTime":180.48330460416668,"instrument":4,"program":23,"isDrum":false},{"pitch":58,"velocity":128,"startTime":180.52134800000002,"endTime":180.59200002083335,"instrument":4,"program":23,"isDrum":false},{"pitch":58,"velocity":128,"startTime":180.65178250000002,"endTime":180.7006954375,"instrument":4,"program":23,"isDrum":false},{"pitch":58,"velocity":128,"startTime":180.782217,"endTime":180.85830379166669,"instrument":4,"program":23,"isDrum":false},{"pitch":58,"velocity":114,"startTime":180.9126515,"endTime":180.95612966666667,"instrument":4,"program":23,"isDrum":false},{"pitch":55,"velocity":114,"startTime":181.04308600000002,"endTime":181.13547710416668,"instrument":4,"program":23,"isDrum":false},{"pitch":55,"velocity":97,"startTime":181.17352050000002,"endTime":181.24417252083336,"instrument":4,"program":23,"isDrum":false},{"pitch":55,"velocity":128,"startTime":181.303955,"endTime":181.38004179166668,"instrument":4,"program":23,"isDrum":false},{"pitch":55,"velocity":87,"startTime":181.4343895,"endTime":181.51047629166666,"instrument":4,"program":23,"isDrum":false},{"pitch":62,"velocity":114,"startTime":181.56482400000002,"endTime":181.63547602083335,"instrument":4,"program":23,"isDrum":false},{"pitch":62,"velocity":114,"startTime":181.69525850000002,"endTime":181.76591052083336,"instrument":4,"program":23,"isDrum":false},{"pitch":62,"velocity":114,"startTime":181.82569300000003,"endTime":181.91264933333335,"instrument":4,"program":23,"isDrum":false},{"pitch":62,"velocity":87,"startTime":181.9561275,"endTime":182.02677952083337,"instrument":4,"program":23,"isDrum":false},{"pitch":58,"velocity":128,"startTime":182.08656200000001,"endTime":182.15721402083335,"instrument":4,"program":23,"isDrum":false},{"pitch":58,"velocity":128,"startTime":182.21699650000002,"endTime":182.27677897916666,"instrument":4,"program":23,"isDrum":false},{"pitch":58,"velocity":128,"startTime":182.34743100000003,"endTime":182.41808302083336,"instrument":4,"program":23,"isDrum":false},{"pitch":58,"velocity":128,"startTime":182.4778655,"endTime":182.53764797916668,"instrument":4,"program":23,"isDrum":false},{"pitch":62,"velocity":114,"startTime":182.6083,"endTime":182.69525633333336,"instrument":4,"program":23,"isDrum":false},{"pitch":62,"velocity":115,"startTime":182.73873450000002,"endTime":182.836560375,"instrument":4,"program":23,"isDrum":false},{"pitch":62,"velocity":111,"startTime":182.86916900000003,"endTime":182.94525579166668,"instrument":4,"program":23,"isDrum":false},{"pitch":62,"velocity":120,"startTime":182.9996035,"endTime":183.09742937500002,"instrument":4,"program":23,"isDrum":false},{"pitch":59,"velocity":114,"startTime":183.130038,"endTime":183.22786387500003,"instrument":4,"program":23,"isDrum":false},{"pitch":59,"velocity":97,"startTime":183.26047250000002,"endTime":183.33655929166667,"instrument":4,"program":23,"isDrum":false},{"pitch":59,"velocity":114,"startTime":183.39090700000003,"endTime":183.47242856250003,"instrument":4,"program":23,"isDrum":false},{"pitch":59,"velocity":114,"startTime":183.5213415,"endTime":183.6028630625,"instrument":4,"program":23,"isDrum":false},{"pitch":60,"velocity":128,"startTime":183.651776,"endTime":183.73873233333336,"instrument":4,"program":23,"isDrum":false},{"pitch":60,"velocity":87,"startTime":183.78221050000002,"endTime":183.85829729166667,"instrument":4,"program":23,"isDrum":false},{"pitch":60,"velocity":97,"startTime":183.91264500000003,"endTime":183.99416656250003,"instrument":4,"program":23,"isDrum":false},{"pitch":60,"velocity":97,"startTime":184.0430795,"endTime":184.11916629166666,"instrument":4,"program":23,"isDrum":false},{"pitch":63,"velocity":128,"startTime":184.173514,"endTime":184.23873125000003,"instrument":4,"program":23,"isDrum":false},{"pitch":63,"velocity":128,"startTime":184.30394850000002,"endTime":184.35829620833337,"instrument":4,"program":23,"isDrum":false},{"pitch":63,"velocity":128,"startTime":184.43438300000003,"endTime":184.51046979166668,"instrument":4,"program":23,"isDrum":false},{"pitch":63,"velocity":128,"startTime":184.5648175,"endTime":184.63546952083337,"instrument":4,"program":23,"isDrum":false},{"pitch":67,"velocity":114,"startTime":184.695252,"endTime":184.78220833333336,"instrument":4,"program":23,"isDrum":false},{"pitch":67,"velocity":87,"startTime":184.82568650000002,"endTime":184.89633852083335,"instrument":4,"program":23,"isDrum":false},{"pitch":67,"velocity":114,"startTime":184.95612100000002,"endTime":185.053946875,"instrument":4,"program":23,"isDrum":false},{"pitch":67,"velocity":97,"startTime":185.0865555,"endTime":185.15720752083337,"instrument":4,"program":23,"isDrum":false},{"pitch":66,"velocity":128,"startTime":185.21699,"endTime":185.29307679166666,"instrument":4,"program":23,"isDrum":false},{"pitch":66,"velocity":128,"startTime":185.34742450000002,"endTime":185.41264175,"instrument":4,"program":23,"isDrum":false},{"pitch":66,"velocity":128,"startTime":185.47785900000002,"endTime":185.55394579166668,"instrument":4,"program":23,"isDrum":false},{"pitch":66,"velocity":128,"startTime":185.6082935,"endTime":185.68438029166668,"instrument":4,"program":23,"isDrum":false},{"pitch":67,"velocity":87,"startTime":185.738728,"endTime":185.84198864583337,"instrument":4,"program":23,"isDrum":false},{"pitch":67,"velocity":87,"startTime":185.86916250000002,"endTime":185.93437975,"instrument":4,"program":23,"isDrum":false},{"pitch":67,"velocity":114,"startTime":185.99959700000002,"endTime":186.09198810416666,"instrument":4,"program":23,"isDrum":false},{"pitch":67,"velocity":97,"startTime":186.13003150000003,"endTime":186.20611829166668,"instrument":4,"program":23,"isDrum":false},{"pitch":69,"velocity":114,"startTime":186.260466,"endTime":186.34742233333336,"instrument":4,"program":23,"isDrum":false},{"pitch":69,"velocity":97,"startTime":186.39090050000001,"endTime":186.47242206250002,"instrument":4,"program":23,"isDrum":false},{"pitch":69,"velocity":97,"startTime":186.52133500000002,"endTime":186.61372610416666,"instrument":4,"program":23,"isDrum":false},{"pitch":69,"velocity":114,"startTime":186.65176950000003,"endTime":186.72242152083336,"instrument":4,"program":23,"isDrum":false},{"pitch":70,"velocity":128,"startTime":186.782204,"endTime":186.85285602083337,"instrument":4,"program":23,"isDrum":false},{"pitch":70,"velocity":128,"startTime":186.9126385,"endTime":186.96698620833337,"instrument":4,"program":23,"isDrum":false},{"pitch":70,"velocity":128,"startTime":187.04307300000002,"endTime":187.11915979166668,"instrument":4,"program":23,"isDrum":false},{"pitch":70,"velocity":128,"startTime":187.17350750000003,"endTime":187.24415952083336,"instrument":4,"program":23,"isDrum":false},{"pitch":69,"velocity":128,"startTime":187.303942,"endTime":187.39089833333335,"instrument":4,"program":23,"isDrum":false},{"pitch":69,"velocity":97,"startTime":187.4343765,"endTime":187.5158980625,"instrument":4,"program":23,"isDrum":false},{"pitch":69,"velocity":97,"startTime":187.56481100000002,"endTime":187.65176733333337,"instrument":4,"program":23,"isDrum":false},{"pitch":69,"velocity":97,"startTime":187.69524550000003,"endTime":187.78220183333335,"instrument":4,"program":23,"isDrum":false},{"pitch":67,"velocity":114,"startTime":187.82568,"endTime":187.92350587500002,"instrument":4,"program":23,"isDrum":false},{"pitch":67,"velocity":97,"startTime":187.9561145,"endTime":188.0376360625,"instrument":4,"program":23,"isDrum":false},{"pitch":67,"velocity":97,"startTime":188.08654900000002,"endTime":188.15720102083336,"instrument":4,"program":23,"isDrum":false},{"pitch":67,"velocity":78,"startTime":188.21698350000003,"endTime":188.29307029166668,"instrument":4,"program":23,"isDrum":false},{"pitch":66,"velocity":128,"startTime":188.347418,"endTime":188.4235047916667,"instrument":4,"program":23,"isDrum":false},{"pitch":66,"velocity":128,"startTime":188.4778525,"endTime":188.54850452083335,"instrument":4,"program":23,"isDrum":false},{"pitch":66,"velocity":128,"startTime":188.60828700000002,"endTime":188.68980856250002,"instrument":4,"program":23,"isDrum":false},{"pitch":66,"velocity":128,"startTime":188.73872150000003,"endTime":188.79850397916667,"instrument":4,"program":23,"isDrum":false},{"pitch":65,"velocity":128,"startTime":188.869156,"endTime":188.9506775625,"instrument":4,"program":23,"isDrum":false},{"pitch":65,"velocity":97,"startTime":188.9995905,"endTime":189.0811120625,"instrument":4,"program":23,"isDrum":false},{"pitch":65,"velocity":114,"startTime":189.13002500000002,"endTime":189.22241610416668,"instrument":4,"program":23,"isDrum":false},{"pitch":65,"velocity":97,"startTime":189.26045950000002,"endTime":189.33654629166668,"instrument":4,"program":23,"isDrum":false},{"pitch":64,"velocity":128,"startTime":189.390894,"endTime":189.48328510416667,"instrument":4,"program":23,"isDrum":false},{"pitch":64,"velocity":87,"startTime":189.5213285,"endTime":189.60828483333336,"instrument":4,"program":23,"isDrum":false},{"pitch":64,"velocity":97,"startTime":189.65176300000002,"endTime":189.73871933333336,"instrument":4,"program":23,"isDrum":false},{"pitch":64,"velocity":87,"startTime":189.78219750000002,"endTime":189.86371906250002,"instrument":4,"program":23,"isDrum":false},{"pitch":63,"velocity":128,"startTime":189.91263200000003,"endTime":190.00502310416667,"instrument":4,"program":23,"isDrum":false},{"pitch":63,"velocity":128,"startTime":190.0430665,"endTime":190.11371852083337,"instrument":4,"program":23,"isDrum":false},{"pitch":63,"velocity":128,"startTime":190.17350100000002,"endTime":190.25502256250002,"instrument":4,"program":23,"isDrum":false},{"pitch":63,"velocity":128,"startTime":190.30393550000002,"endTime":190.36371797916667,"instrument":4,"program":23,"isDrum":false},{"pitch":62,"velocity":128,"startTime":190.43437000000003,"endTime":190.52132633333335,"instrument":4,"program":23,"isDrum":false},{"pitch":62,"velocity":97,"startTime":190.5648045,"endTime":190.64089129166666,"instrument":4,"program":23,"isDrum":false},{"pitch":62,"velocity":97,"startTime":190.69523900000002,"endTime":190.77676056250002,"instrument":4,"program":23,"isDrum":false},{"pitch":62,"velocity":87,"startTime":190.82567350000002,"endTime":190.91262983333337,"instrument":4,"program":23,"isDrum":false},{"pitch":61,"velocity":128,"startTime":190.95610800000003,"endTime":191.03762956250003,"instrument":4,"program":23,"isDrum":false},{"pitch":61,"velocity":128,"startTime":191.0865425,"endTime":191.15175975000002,"instrument":4,"program":23,"isDrum":false},{"pitch":61,"velocity":128,"startTime":191.216977,"endTime":191.29306379166667,"instrument":4,"program":23,"isDrum":false},{"pitch":61,"velocity":128,"startTime":191.34741150000002,"endTime":191.42349829166668,"instrument":4,"program":23,"isDrum":false},{"pitch":62,"velocity":114,"startTime":191.47784600000003,"endTime":191.58110664583336,"instrument":4,"program":23,"isDrum":false},{"pitch":62,"velocity":87,"startTime":191.6082805,"endTime":191.68436729166666,"instrument":4,"program":23,"isDrum":false},{"pitch":62,"velocity":114,"startTime":191.738715,"endTime":191.81480179166667,"instrument":4,"program":23,"isDrum":false},{"pitch":62,"velocity":97,"startTime":191.86914950000002,"endTime":191.94523629166667,"instrument":4,"program":23,"isDrum":false},{"pitch":63,"velocity":128,"startTime":191.99958400000003,"endTime":192.07023602083336,"instrument":4,"program":23,"isDrum":false},{"pitch":63,"velocity":128,"startTime":192.1300185,"endTime":192.20067052083337,"instrument":4,"program":23,"isDrum":false},{"pitch":63,"velocity":128,"startTime":192.260453,"endTime":192.3419745625,"instrument":4,"program":23,"isDrum":false},{"pitch":63,"velocity":128,"startTime":192.39088750000002,"endTime":192.43980043750003,"instrument":4,"program":23,"isDrum":false},{"pitch":62,"velocity":114,"startTime":192.52132200000003,"endTime":192.61371310416666,"instrument":4,"program":23,"isDrum":false},{"pitch":62,"velocity":97,"startTime":192.6517565,"endTime":192.7332780625,"instrument":4,"program":23,"isDrum":false},{"pitch":62,"velocity":97,"startTime":192.782191,"endTime":192.87458210416668,"instrument":4,"program":23,"isDrum":false},{"pitch":62,"velocity":87,"startTime":192.91262550000002,"endTime":192.99958183333337,"instrument":4,"program":23,"isDrum":false},{"pitch":60,"velocity":114,"startTime":193.04306000000003,"endTime":193.13545110416666,"instrument":4,"program":23,"isDrum":false},{"pitch":60,"velocity":87,"startTime":193.1734945,"endTime":193.2495812916667,"instrument":4,"program":23,"isDrum":false},{"pitch":60,"velocity":114,"startTime":193.303929,"endTime":193.40175487500002,"instrument":4,"program":23,"isDrum":false},{"pitch":60,"velocity":87,"startTime":193.43436350000002,"endTime":193.51045029166667,"instrument":4,"program":23,"isDrum":false},{"pitch":57,"velocity":97,"startTime":193.56479800000002,"endTime":193.65175433333337,"instrument":4,"program":23,"isDrum":false},{"pitch":57,"velocity":75,"startTime":193.6952325,"endTime":193.7767540625,"instrument":4,"program":23,"isDrum":false},{"pitch":57,"velocity":114,"startTime":193.825667,"endTime":193.91805810416668,"instrument":4,"program":23,"isDrum":false},{"pitch":57,"velocity":87,"startTime":193.95610150000002,"endTime":194.03218829166667,"instrument":4,"program":23,"isDrum":false},{"pitch":54,"velocity":128,"startTime":194.08653600000002,"endTime":194.16262279166668,"instrument":4,"program":23,"isDrum":false},{"pitch":54,"velocity":128,"startTime":194.21697050000003,"endTime":194.29305729166668,"instrument":4,"program":23,"isDrum":false},{"pitch":54,"velocity":128,"startTime":194.347405,"endTime":194.4289265625,"instrument":4,"program":23,"isDrum":false},{"pitch":54,"velocity":128,"startTime":194.47783950000002,"endTime":194.53218720833337,"instrument":4,"program":23,"isDrum":false},{"pitch":50,"velocity":128,"startTime":194.60827400000002,"endTime":194.68979556250002,"instrument":4,"program":23,"isDrum":false},{"pitch":50,"velocity":87,"startTime":194.73870850000003,"endTime":194.80936052083337,"instrument":4,"program":23,"isDrum":false},{"pitch":50,"velocity":114,"startTime":194.869143,"endTime":194.95609933333336,"instrument":4,"program":23,"isDrum":false},{"pitch":50,"velocity":87,"startTime":194.99957750000002,"endTime":195.08109906250002,"instrument":4,"program":23,"isDrum":false},{"pitch":54,"velocity":128,"startTime":195.13001200000002,"endTime":195.21153356250002,"instrument":4,"program":23,"isDrum":false},{"pitch":54,"velocity":114,"startTime":195.26044650000003,"endTime":195.31479420833335,"instrument":4,"program":23,"isDrum":false},{"pitch":54,"velocity":128,"startTime":195.390881,"endTime":195.4724025625,"instrument":4,"program":23,"isDrum":false},{"pitch":54,"velocity":114,"startTime":195.52131550000001,"endTime":195.60827183333336,"instrument":4,"program":23,"isDrum":false},{"pitch":57,"velocity":47,"startTime":195.65175000000002,"endTime":195.73327156250002,"instrument":4,"program":23,"isDrum":false},{"pitch":57,"velocity":70,"startTime":195.78218450000003,"endTime":195.84740175000002,"instrument":4,"program":23,"isDrum":false},{"pitch":57,"velocity":97,"startTime":195.912619,"endTime":195.9941405625,"instrument":4,"program":23,"isDrum":false},{"pitch":57,"velocity":87,"startTime":196.0430535,"endTime":196.11914029166667,"instrument":4,"program":23,"isDrum":false},{"pitch":55,"velocity":114,"startTime":196.17348800000002,"endTime":196.22783570833337,"instrument":4,"program":23,"isDrum":false},{"pitch":75,"velocity":128,"startTime":196.30392250000003,"endTime":196.38544406250003,"instrument":4,"program":23,"isDrum":false},{"pitch":74,"velocity":128,"startTime":196.434357,"endTime":196.53761764583336,"instrument":4,"program":23,"isDrum":false},{"pitch":72,"velocity":87,"startTime":196.5647915,"endTime":196.65718260416668,"instrument":4,"program":23,"isDrum":false},{"pitch":70,"velocity":128,"startTime":196.69522600000002,"endTime":196.78218233333337,"instrument":4,"program":23,"isDrum":false},{"pitch":69,"velocity":114,"startTime":196.82566050000003,"endTime":196.90718206250003,"instrument":4,"program":23,"isDrum":false},{"pitch":67,"velocity":114,"startTime":196.956095,"endTime":197.04848610416667,"instrument":4,"program":23,"isDrum":false},{"pitch":66,"velocity":128,"startTime":197.0865295,"endTime":197.19522491666666,"instrument":4,"program":23,"isDrum":false},{"pitch":63,"velocity":128,"startTime":197.21696400000002,"endTime":197.3310941875,"instrument":4,"program":23,"isDrum":false},{"pitch":62,"velocity":114,"startTime":197.34739850000003,"endTime":197.445224375,"instrument":4,"program":23,"isDrum":false},{"pitch":60,"velocity":87,"startTime":197.477833,"endTime":197.57022410416667,"instrument":4,"program":23,"isDrum":false},{"pitch":58,"velocity":128,"startTime":197.6082675,"endTime":197.70609337500002,"instrument":4,"program":23,"isDrum":false},{"pitch":57,"velocity":114,"startTime":197.73870200000002,"endTime":197.83109310416668,"instrument":4,"program":23,"isDrum":false},{"pitch":55,"velocity":87,"startTime":197.86913650000002,"endTime":197.966962375,"instrument":4,"program":23,"isDrum":false},{"pitch":54,"velocity":128,"startTime":197.999571,"endTime":198.09196210416667,"instrument":4,"program":23,"isDrum":false},{"pitch":57,"velocity":114,"startTime":198.1300055,"endTime":198.23326614583337,"instrument":4,"program":23,"isDrum":false},{"pitch":55,"velocity":97,"startTime":198.26044000000002,"endTime":198.34739633333336,"instrument":4,"program":23,"isDrum":false},{"pitch":62,"velocity":128,"startTime":198.488700375,"endTime":199.21695966666667,"instrument":4,"program":23,"isDrum":false},{"pitch":60,"velocity":87,"startTime":198.75500414583337,"endTime":199.23326397916668,"instrument":4,"program":23,"isDrum":false},{"pitch":66,"velocity":128,"startTime":198.7604389166667,"endTime":199.21695966666667,"instrument":4,"program":23,"isDrum":false},{"pitch":67,"velocity":75,"startTime":199.22782920833336,"endTime":199.40174187500003,"instrument":4,"program":23,"isDrum":false},{"pitch":62,"velocity":114,"startTime":199.24413352083337,"endTime":199.39630710416668,"instrument":4,"program":23,"isDrum":false},{"pitch":58,"velocity":128,"startTime":199.24956829166666,"endTime":199.39630710416668,"instrument":4,"program":23,"isDrum":false},{"pitch":62,"velocity":76,"startTime":33.391232,"endTime":36.440138437499996,"instrument":5,"program":48,"isDrum":false},{"pitch":60,"velocity":76,"startTime":36.46187752083334,"endTime":37.50535352083334,"instrument":5,"program":48,"isDrum":false},{"pitch":66,"velocity":85,"startTime":36.46731229166667,"endTime":37.461875354166665,"instrument":5,"program":48,"isDrum":false},{"pitch":58,"velocity":53,"startTime":37.4510058125,"endTime":40.037956729166666,"instrument":5,"program":48,"isDrum":false},{"pitch":67,"velocity":61,"startTime":37.4510058125,"endTime":40.05426104166666,"instrument":5,"program":48,"isDrum":false},{"pitch":55,"velocity":100,"startTime":40.07056535416666,"endTime":40.60317289583334,"instrument":5,"program":48,"isDrum":false},{"pitch":67,"velocity":85,"startTime":40.60317289583334,"endTime":41.14664997916667,"instrument":5,"program":48,"isDrum":false},{"pitch":63,"velocity":85,"startTime":41.1357804375,"endTime":41.65208366666667,"instrument":5,"program":48,"isDrum":false},{"pitch":62,"velocity":85,"startTime":41.6575184375,"endTime":44.80968552083334,"instrument":5,"program":48,"isDrum":false},{"pitch":60,"velocity":68,"startTime":44.80968552083334,"endTime":45.85316152083334,"instrument":5,"program":48,"isDrum":false},{"pitch":66,"velocity":100,"startTime":44.80968552083334,"endTime":45.85859629166667,"instrument":5,"program":48,"isDrum":false},{"pitch":67,"velocity":51,"startTime":45.80424858333333,"endTime":48.016200312500004,"instrument":5,"program":48,"isDrum":false},{"pitch":58,"velocity":61,"startTime":45.809683354166665,"endTime":47.98359168750001,"instrument":5,"program":48,"isDrum":false},{"pitch":70,"velocity":128,"startTime":48.43467766666667,"endTime":48.92924181250001,"instrument":5,"program":48,"isDrum":false},{"pitch":69,"velocity":100,"startTime":48.95098089583334,"endTime":49.50532752083333,"instrument":5,"program":48,"isDrum":false},{"pitch":67,"velocity":85,"startTime":49.49445797916667,"endTime":49.99445689583334,"instrument":5,"program":48,"isDrum":false},{"pitch":72,"velocity":85,"startTime":49.989022125000005,"endTime":52.342277895833334,"instrument":5,"program":48,"isDrum":false},{"pitch":74,"velocity":85,"startTime":52.364016979166664,"endTime":52.65205983333334,"instrument":5,"program":48,"isDrum":false},{"pitch":75,"velocity":85,"startTime":52.65749460416667,"endTime":52.90749406250001,"instrument":5,"program":48,"isDrum":false},{"pitch":74,"velocity":53,"startTime":52.90749406250001,"endTime":53.168363062500006,"instrument":5,"program":48,"isDrum":false},{"pitch":75,"velocity":85,"startTime":53.17379783333334,"endTime":53.690101062500005,"instrument":5,"program":48,"isDrum":false},{"pitch":77,"velocity":85,"startTime":53.67379675000001,"endTime":54.162926125,"instrument":5,"program":48,"isDrum":false},{"pitch":74,"velocity":66,"startTime":54.18466520833334,"endTime":55.260749833333335,"instrument":5,"program":48,"isDrum":false},{"pitch":70,"velocity":76,"startTime":55.24444552083334,"endTime":56.570529604166666,"instrument":5,"program":48,"isDrum":false},{"pitch":73,"velocity":100,"startTime":56.575964375,"endTime":56.8205290625,"instrument":5,"program":48,"isDrum":false},{"pitch":74,"velocity":76,"startTime":56.831398604166665,"endTime":57.092267604166665,"instrument":5,"program":48,"isDrum":false},{"pitch":73,"velocity":51,"startTime":57.070528520833335,"endTime":57.347701833333346,"instrument":5,"program":48,"isDrum":false},{"pitch":74,"velocity":61,"startTime":57.358571375,"endTime":57.8640050625,"instrument":5,"program":48,"isDrum":false},{"pitch":75,"velocity":85,"startTime":57.853135520833334,"endTime":58.358569208333336,"instrument":5,"program":48,"isDrum":false},{"pitch":72,"velocity":68,"startTime":58.3531344375,"endTime":59.423784291666664,"instrument":5,"program":48,"isDrum":false},{"pitch":69,"velocity":85,"startTime":59.423784291666664,"endTime":60.690085895833334,"instrument":5,"program":48,"isDrum":false},{"pitch":72,"velocity":76,"startTime":60.69552066666667,"endTime":61.00530260416667,"instrument":5,"program":48,"isDrum":false},{"pitch":70,"velocity":68,"startTime":60.97812875000001,"endTime":61.211823895833334,"instrument":5,"program":48,"isDrum":false},{"pitch":69,"velocity":76,"startTime":61.20095435416667,"endTime":61.488997208333345,"instrument":5,"program":48,"isDrum":false},{"pitch":67,"velocity":68,"startTime":61.49443197916666,"endTime":61.99986566666668,"instrument":5,"program":48,"isDrum":false},{"pitch":66,"velocity":76,"startTime":61.988996125000014,"endTime":62.516168895833346,"instrument":5,"program":48,"isDrum":false},{"pitch":67,"velocity":68,"startTime":62.52160366666668,"endTime":62.82595083333334,"instrument":5,"program":48,"isDrum":false},{"pitch":62,"velocity":85,"startTime":65.17377183333333,"endTime":65.51616239583333,"instrument":5,"program":48,"isDrum":false},{"pitch":67,"velocity":85,"startTime":65.72811845833334,"endTime":65.86398772916668,"instrument":5,"program":48,"isDrum":false},{"pitch":67,"velocity":68,"startTime":66.782464,"endTime":67.13028933333334,"instrument":5,"program":48,"isDrum":false},{"pitch":69,"velocity":68,"startTime":67.043333,"endTime":67.36941925,"instrument":5,"program":48,"isDrum":false},{"pitch":70,"velocity":61,"startTime":67.35311493750001,"endTime":68.08137422916668,"instrument":5,"program":48,"isDrum":false},{"pitch":67,"velocity":66,"startTime":68.08137422916668,"endTime":68.38028662500001,"instrument":5,"program":48,"isDrum":false},{"pitch":69,"velocity":68,"startTime":68.38028662500001,"endTime":68.5922426875,"instrument":5,"program":48,"isDrum":false},{"pitch":70,"velocity":51,"startTime":68.58137314583334,"endTime":68.836807375,"instrument":5,"program":48,"isDrum":false},{"pitch":69,"velocity":76,"startTime":68.84224214583334,"endTime":69.38571922916668,"instrument":5,"program":48,"isDrum":false},{"pitch":67,"velocity":76,"startTime":69.38028445833334,"endTime":69.54876235416668,"instrument":5,"program":48,"isDrum":false},{"pitch":67,"velocity":76,"startTime":83.44003660416668,"endTime":83.78242716666668,"instrument":5,"program":48,"isDrum":false},{"pitch":69,"velocity":68,"startTime":83.79329670833334,"endTime":84.07047002083334,"instrument":5,"program":48,"isDrum":false},{"pitch":70,"velocity":66,"startTime":84.07047002083334,"endTime":84.79329454166668,"instrument":5,"program":48,"isDrum":false},{"pitch":67,"velocity":68,"startTime":84.78785977083334,"endTime":85.0269896875,"instrument":5,"program":48,"isDrum":false},{"pitch":69,"velocity":76,"startTime":85.01612014583334,"endTime":85.21720666666668,"instrument":5,"program":48,"isDrum":false},{"pitch":70,"velocity":68,"startTime":85.206337125,"endTime":85.45633658333334,"instrument":5,"program":48,"isDrum":false},{"pitch":69,"velocity":76,"startTime":85.45633658333334,"endTime":86.02698752083334,"instrument":5,"program":48,"isDrum":false},{"pitch":67,"velocity":85,"startTime":86.01611797916668,"endTime":86.19003064583333,"instrument":5,"program":48,"isDrum":false},{"pitch":62,"velocity":68,"startTime":100.173696,"endTime":103.33129785416668,"instrument":5,"program":48,"isDrum":false},{"pitch":60,"velocity":56,"startTime":103.27695014583334,"endTime":104.30412183333334,"instrument":5,"program":48,"isDrum":false},{"pitch":66,"velocity":76,"startTime":103.27695014583334,"endTime":104.33129568750002,"instrument":5,"program":48,"isDrum":false},{"pitch":58,"velocity":53,"startTime":104.26607843750001,"endTime":106.8095511875,"instrument":5,"program":48,"isDrum":false},{"pitch":67,"velocity":36,"startTime":104.27151320833335,"endTime":106.83672504166668,"instrument":5,"program":48,"isDrum":false},{"pitch":55,"velocity":68,"startTime":106.85846412500001,"endTime":107.40737597916669,"instrument":5,"program":48,"isDrum":false},{"pitch":67,"velocity":61,"startTime":107.40737597916669,"endTime":107.95628783333333,"instrument":5,"program":48,"isDrum":false},{"pitch":63,"velocity":85,"startTime":107.91824443750001,"endTime":108.42367812500001,"instrument":5,"program":48,"isDrum":false},{"pitch":62,"velocity":76,"startTime":108.41824335416668,"endTime":111.55954089583334,"instrument":5,"program":48,"isDrum":false},{"pitch":60,"velocity":61,"startTime":111.57584520833333,"endTime":112.65736460416669,"instrument":5,"program":48,"isDrum":false},{"pitch":66,"velocity":76,"startTime":111.57584520833333,"endTime":112.65736460416669,"instrument":5,"program":48,"isDrum":false},{"pitch":58,"velocity":51,"startTime":112.59214735416668,"endTime":114.78779477083334,"instrument":5,"program":48,"isDrum":false},{"pitch":67,"velocity":48,"startTime":112.59214735416668,"endTime":114.83670770833334,"instrument":5,"program":48,"isDrum":false},{"pitch":70,"velocity":116,"startTime":115.23344597916669,"endTime":115.75518397916669,"instrument":5,"program":48,"isDrum":false},{"pitch":69,"velocity":100,"startTime":115.74974920833334,"endTime":116.28779152083334,"instrument":5,"program":48,"isDrum":false},{"pitch":67,"velocity":76,"startTime":116.27148720833334,"endTime":116.7877904375,"instrument":5,"program":48,"isDrum":false},{"pitch":72,"velocity":76,"startTime":116.76061658333334,"endTime":119.16822006250001,"instrument":5,"program":48,"isDrum":false},{"pitch":74,"velocity":68,"startTime":119.19539391666669,"endTime":119.59756695833335,"instrument":5,"program":48,"isDrum":false},{"pitch":75,"velocity":85,"startTime":119.58669741666668,"endTime":119.79865347916669,"instrument":5,"program":48,"isDrum":false},{"pitch":74,"velocity":56,"startTime":119.78234916666668,"endTime":119.97256614583334,"instrument":5,"program":48,"isDrum":false},{"pitch":75,"velocity":85,"startTime":119.95626183333334,"endTime":120.49973891666669,"instrument":5,"program":48,"isDrum":false},{"pitch":77,"velocity":76,"startTime":120.47256506250001,"endTime":120.96169443750001,"instrument":5,"program":48,"isDrum":false},{"pitch":74,"velocity":66,"startTime":120.98886829166668,"endTime":122.05951814583334,"instrument":5,"program":48,"isDrum":false},{"pitch":70,"velocity":76,"startTime":122.04864860416669,"endTime":123.33125452083334,"instrument":5,"program":48,"isDrum":false},{"pitch":73,"velocity":100,"startTime":123.32581975000001,"endTime":123.60842783333334,"instrument":5,"program":48,"isDrum":false},{"pitch":74,"velocity":68,"startTime":123.61386260416668,"endTime":123.86929683333334,"instrument":5,"program":48,"isDrum":false},{"pitch":73,"velocity":66,"startTime":123.84755775,"endTime":124.10299197916669,"instrument":5,"program":48,"isDrum":false},{"pitch":74,"velocity":61,"startTime":124.11386152083334,"endTime":124.63559952083334,"instrument":5,"program":48,"isDrum":false},{"pitch":75,"velocity":85,"startTime":124.62472997916669,"endTime":125.13016366666669,"instrument":5,"program":48,"isDrum":false},{"pitch":72,"velocity":68,"startTime":125.13016366666669,"endTime":126.2062482916667,"instrument":5,"program":48,"isDrum":false},{"pitch":69,"velocity":76,"startTime":126.21168306250001,"endTime":127.48885420833335,"instrument":5,"program":48,"isDrum":false},{"pitch":72,"velocity":76,"startTime":127.4942889791667,"endTime":127.80407091666669,"instrument":5,"program":48,"isDrum":false},{"pitch":70,"velocity":76,"startTime":127.78776660416668,"endTime":128.054070375,"instrument":5,"program":48,"isDrum":false},{"pitch":69,"velocity":85,"startTime":128.02146175000001,"endTime":128.2932002916667,"instrument":5,"program":48,"isDrum":false},{"pitch":67,"velocity":76,"startTime":128.2932002916667,"endTime":128.80950352083335,"instrument":5,"program":48,"isDrum":false},{"pitch":66,"velocity":85,"startTime":128.78776443750002,"endTime":129.24971995833334,"instrument":5,"program":48,"isDrum":false},{"pitch":67,"velocity":76,"startTime":129.28776335416669,"endTime":129.5051541875,"instrument":5,"program":48,"isDrum":false},{"pitch":62,"velocity":85,"startTime":131.9834096875,"endTime":132.41275658333336,"instrument":5,"program":48,"isDrum":false},{"pitch":67,"velocity":76,"startTime":132.45623475000002,"endTime":132.61927787500002,"instrument":5,"program":48,"isDrum":false},{"pitch":67,"velocity":100,"startTime":133.564928,"endTime":133.6464495625,"instrument":5,"program":48,"isDrum":false},{"pitch":66,"velocity":128,"startTime":133.82579700000002,"endTime":133.90188379166668,"instrument":5,"program":48,"isDrum":false},{"pitch":67,"velocity":100,"startTime":134.086666,"endTime":134.18449187500002,"instrument":5,"program":48,"isDrum":false},{"pitch":69,"velocity":116,"startTime":134.34753500000002,"endTime":134.42905656250002,"instrument":5,"program":48,"isDrum":false},{"pitch":70,"velocity":128,"startTime":134.86927300000002,"endTime":135.34753283333336,"instrument":5,"program":48,"isDrum":false},{"pitch":69,"velocity":116,"startTime":135.39101100000002,"endTime":135.65188,"instrument":5,"program":48,"isDrum":false},{"pitch":67,"velocity":100,"startTime":135.65188,"endTime":135.77144495833335,"instrument":5,"program":48,"isDrum":false},{"pitch":63,"velocity":128,"startTime":137.738832,"endTime":137.85839695833334,"instrument":5,"program":48,"isDrum":false},{"pitch":62,"velocity":116,"startTime":137.99970100000002,"endTime":138.1138311875,"instrument":5,"program":48,"isDrum":false},{"pitch":63,"velocity":128,"startTime":138.26057,"endTime":138.36383064583336,"instrument":5,"program":48,"isDrum":false},{"pitch":65,"velocity":116,"startTime":138.52143900000002,"endTime":138.65187350000002,"instrument":5,"program":48,"isDrum":false},{"pitch":67,"velocity":116,"startTime":139.04317700000001,"endTime":139.49969775000002,"instrument":5,"program":48,"isDrum":false},{"pitch":63,"velocity":128,"startTime":139.564915,"endTime":139.8420883125,"instrument":5,"program":48,"isDrum":false},{"pitch":62,"velocity":128,"startTime":139.825784,"endTime":139.97795758333336,"instrument":5,"program":48,"isDrum":false},{"pitch":67,"velocity":100,"startTime":141.91273600000002,"endTime":142.02143141666667,"instrument":5,"program":48,"isDrum":false},{"pitch":66,"velocity":128,"startTime":142.173605,"endTime":142.26599610416667,"instrument":5,"program":48,"isDrum":false},{"pitch":67,"velocity":100,"startTime":142.43447400000002,"endTime":142.54316941666667,"instrument":5,"program":48,"isDrum":false},{"pitch":69,"velocity":128,"startTime":142.695343,"endTime":142.78773410416667,"instrument":5,"program":48,"isDrum":false},{"pitch":70,"velocity":128,"startTime":143.217081,"endTime":143.67360175000002,"instrument":5,"program":48,"isDrum":false},{"pitch":69,"velocity":116,"startTime":143.738819,"endTime":144.01055754166666,"instrument":5,"program":48,"isDrum":false},{"pitch":67,"velocity":116,"startTime":143.99968800000002,"endTime":144.12468772916668,"instrument":5,"program":48,"isDrum":false},{"pitch":63,"velocity":128,"startTime":146.08664000000002,"endTime":146.20620495833336,"instrument":5,"program":48,"isDrum":false},{"pitch":62,"velocity":128,"startTime":146.347509,"endTime":146.46707395833334,"instrument":5,"program":48,"isDrum":false},{"pitch":63,"velocity":128,"startTime":146.60837800000002,"endTime":146.71163864583335,"instrument":5,"program":48,"isDrum":false},{"pitch":65,"velocity":128,"startTime":146.869247,"endTime":146.97794241666668,"instrument":5,"program":48,"isDrum":false},{"pitch":67,"velocity":116,"startTime":147.390985,"endTime":147.83120143750003,"instrument":5,"program":48,"isDrum":false},{"pitch":63,"velocity":128,"startTime":147.912723,"endTime":148.16272245833335,"instrument":5,"program":48,"isDrum":false},{"pitch":62,"velocity":128,"startTime":148.173592,"endTime":148.29315695833336,"instrument":5,"program":48,"isDrum":false},{"pitch":60,"velocity":66,"startTime":152.347496,"endTime":152.44532187500002,"instrument":5,"program":48,"isDrum":false},{"pitch":62,"velocity":68,"startTime":152.347496,"endTime":152.44532187500002,"instrument":5,"program":48,"isDrum":false},{"pitch":66,"velocity":116,"startTime":152.347496,"endTime":152.44532187500002,"instrument":5,"program":48,"isDrum":false},{"pitch":60,"velocity":85,"startTime":153.390972,"endTime":153.48879787500002,"instrument":5,"program":48,"isDrum":false},{"pitch":62,"velocity":85,"startTime":153.390972,"endTime":153.48879787500002,"instrument":5,"program":48,"isDrum":false},{"pitch":66,"velocity":116,"startTime":153.390972,"endTime":153.48879787500002,"instrument":5,"program":48,"isDrum":false},{"pitch":60,"velocity":76,"startTime":154.434448,"endTime":154.53227387500002,"instrument":5,"program":48,"isDrum":false},{"pitch":62,"velocity":85,"startTime":154.434448,"endTime":154.53227387500002,"instrument":5,"program":48,"isDrum":false},{"pitch":66,"velocity":128,"startTime":154.434448,"endTime":154.53227387500002,"instrument":5,"program":48,"isDrum":false},{"pitch":60,"velocity":76,"startTime":155.477924,"endTime":155.575749875,"instrument":5,"program":48,"isDrum":false},{"pitch":62,"velocity":85,"startTime":155.477924,"endTime":155.575749875,"instrument":5,"program":48,"isDrum":false},{"pitch":66,"velocity":116,"startTime":155.477924,"endTime":155.575749875,"instrument":5,"program":48,"isDrum":false},{"pitch":58,"velocity":68,"startTime":156.52140000000003,"endTime":156.619225875,"instrument":5,"program":48,"isDrum":false},{"pitch":62,"velocity":76,"startTime":156.52140000000003,"endTime":156.619225875,"instrument":5,"program":48,"isDrum":false},{"pitch":67,"velocity":66,"startTime":156.52140000000003,"endTime":156.619225875,"instrument":5,"program":48,"isDrum":false},{"pitch":58,"velocity":66,"startTime":157.56487600000003,"endTime":157.662701875,"instrument":5,"program":48,"isDrum":false},{"pitch":62,"velocity":76,"startTime":157.56487600000003,"endTime":157.662701875,"instrument":5,"program":48,"isDrum":false},{"pitch":67,"velocity":66,"startTime":157.56487600000003,"endTime":157.662701875,"instrument":5,"program":48,"isDrum":false},{"pitch":58,"velocity":66,"startTime":158.60835200000002,"endTime":158.706177875,"instrument":5,"program":48,"isDrum":false},{"pitch":62,"velocity":85,"startTime":158.60835200000002,"endTime":158.706177875,"instrument":5,"program":48,"isDrum":false},{"pitch":67,"velocity":68,"startTime":158.60835200000002,"endTime":158.706177875,"instrument":5,"program":48,"isDrum":false},{"pitch":58,"velocity":61,"startTime":159.65182800000002,"endTime":159.749653875,"instrument":5,"program":48,"isDrum":false},{"pitch":62,"velocity":76,"startTime":159.65182800000002,"endTime":159.749653875,"instrument":5,"program":48,"isDrum":false},{"pitch":67,"velocity":76,"startTime":159.65182800000002,"endTime":159.749653875,"instrument":5,"program":48,"isDrum":false},{"pitch":60,"velocity":76,"startTime":160.69530400000002,"endTime":160.793129875,"instrument":5,"program":48,"isDrum":false},{"pitch":62,"velocity":76,"startTime":160.69530400000002,"endTime":160.793129875,"instrument":5,"program":48,"isDrum":false},{"pitch":66,"velocity":128,"startTime":160.69530400000002,"endTime":160.793129875,"instrument":5,"program":48,"isDrum":false},{"pitch":60,"velocity":76,"startTime":161.73878000000002,"endTime":161.836605875,"instrument":5,"program":48,"isDrum":false},{"pitch":62,"velocity":76,"startTime":161.73878000000002,"endTime":161.836605875,"instrument":5,"program":48,"isDrum":false},{"pitch":66,"velocity":116,"startTime":161.73878000000002,"endTime":161.836605875,"instrument":5,"program":48,"isDrum":false},{"pitch":60,"velocity":85,"startTime":162.78225600000002,"endTime":162.880081875,"instrument":5,"program":48,"isDrum":false},{"pitch":62,"velocity":85,"startTime":162.78225600000002,"endTime":162.880081875,"instrument":5,"program":48,"isDrum":false},{"pitch":66,"velocity":128,"startTime":162.78225600000002,"endTime":162.880081875,"instrument":5,"program":48,"isDrum":false},{"pitch":60,"velocity":85,"startTime":163.82573200000002,"endTime":163.92355787500003,"instrument":5,"program":48,"isDrum":false},{"pitch":62,"velocity":85,"startTime":163.82573200000002,"endTime":163.92355787500003,"instrument":5,"program":48,"isDrum":false},{"pitch":66,"velocity":116,"startTime":163.82573200000002,"endTime":163.92355787500003,"instrument":5,"program":48,"isDrum":false},{"pitch":62,"velocity":100,"startTime":165.390946,"endTime":165.78768427083335,"instrument":5,"program":48,"isDrum":false},{"pitch":67,"velocity":100,"startTime":165.912684,"endTime":166.01050987500003,"instrument":5,"program":48,"isDrum":false},{"pitch":62,"velocity":76,"startTime":166.95616,"endTime":170.07571845833337,"instrument":5,"program":48,"isDrum":false},{"pitch":60,"velocity":68,"startTime":170.02137075000002,"endTime":171.06484675000002,"instrument":5,"program":48,"isDrum":false},{"pitch":66,"velocity":100,"startTime":170.03224029166668,"endTime":171.07028152083336,"instrument":5,"program":48,"isDrum":false},{"pitch":58,"velocity":66,"startTime":171.02136858333336,"endTime":173.61375427083337,"instrument":5,"program":48,"isDrum":false},{"pitch":67,"velocity":51,"startTime":171.02136858333336,"endTime":173.67353675,"instrument":5,"program":48,"isDrum":false},{"pitch":55,"velocity":85,"startTime":173.65723243750003,"endTime":174.19527475,"instrument":5,"program":48,"isDrum":false},{"pitch":67,"velocity":76,"startTime":174.18983997916666,"endTime":174.72244752083336,"instrument":5,"program":48,"isDrum":false},{"pitch":63,"velocity":100,"startTime":174.68440412500001,"endTime":175.20070735416667,"instrument":5,"program":48,"isDrum":false},{"pitch":62,"velocity":85,"startTime":175.22244643750003,"endTime":178.336570125,"instrument":5,"program":48,"isDrum":false},{"pitch":60,"velocity":76,"startTime":178.35287443750002,"endTime":179.45613291666666,"instrument":5,"program":48,"isDrum":false},{"pitch":66,"velocity":100,"startTime":178.35830920833337,"endTime":179.44526337500002,"instrument":5,"program":48,"isDrum":false},{"pitch":58,"velocity":61,"startTime":179.40721997916668,"endTime":181.57569354166668,"instrument":5,"program":48,"isDrum":false},{"pitch":67,"velocity":38,"startTime":179.41808952083335,"endTime":181.61917170833337,"instrument":5,"program":48,"isDrum":false},{"pitch":70,"velocity":128,"startTime":182.0050404375,"endTime":182.55395229166666,"instrument":5,"program":48,"isDrum":false},{"pitch":69,"velocity":76,"startTime":182.55395229166666,"endTime":183.0811250625,"instrument":5,"program":48,"isDrum":false},{"pitch":67,"velocity":76,"startTime":183.07569029166666,"endTime":183.57568920833336,"instrument":5,"program":48,"isDrum":false},{"pitch":72,"velocity":85,"startTime":183.5702544375,"endTime":185.93437975,"instrument":5,"program":48,"isDrum":false},{"pitch":74,"velocity":68,"startTime":185.93437975,"endTime":186.23329214583336,"instrument":5,"program":48,"isDrum":false},{"pitch":75,"velocity":100,"startTime":186.227857375,"endTime":186.47242206250002,"instrument":5,"program":48,"isDrum":false},{"pitch":74,"velocity":61,"startTime":186.46155252083335,"endTime":186.75503014583336,"instrument":5,"program":48,"isDrum":false},{"pitch":75,"velocity":85,"startTime":186.749595375,"endTime":187.271333375,"instrument":5,"program":48,"isDrum":false},{"pitch":77,"velocity":85,"startTime":187.24959429166668,"endTime":187.72241935416668,"instrument":5,"program":48,"isDrum":false},{"pitch":74,"velocity":61,"startTime":187.7441584375,"endTime":188.82567783333337,"instrument":5,"program":48,"isDrum":false},{"pitch":70,"velocity":85,"startTime":188.81480829166668,"endTime":190.11371852083337,"instrument":5,"program":48,"isDrum":false},{"pitch":73,"velocity":100,"startTime":190.10284897916668,"endTime":190.38545706250002,"instrument":5,"program":48,"isDrum":false},{"pitch":74,"velocity":85,"startTime":190.39089183333337,"endTime":190.65176083333336,"instrument":5,"program":48,"isDrum":false},{"pitch":73,"velocity":85,"startTime":190.65176083333336,"endTime":190.91806460416666,"instrument":5,"program":48,"isDrum":false},{"pitch":74,"velocity":68,"startTime":190.92893414583335,"endTime":191.45610691666667,"instrument":5,"program":48,"isDrum":false},{"pitch":75,"velocity":76,"startTime":191.445237375,"endTime":191.95610583333337,"instrument":5,"program":48,"isDrum":false},{"pitch":72,"velocity":76,"startTime":191.94523629166667,"endTime":193.01588614583335,"instrument":5,"program":48,"isDrum":false},{"pitch":69,"velocity":85,"startTime":193.010451375,"endTime":194.28762252083337,"instrument":5,"program":48,"isDrum":false},{"pitch":72,"velocity":85,"startTime":194.28762252083337,"endTime":194.60283922916668,"instrument":5,"program":48,"isDrum":false},{"pitch":70,"velocity":66,"startTime":194.55936106250002,"endTime":194.84740391666668,"instrument":5,"program":48,"isDrum":false},{"pitch":69,"velocity":76,"startTime":194.81479529166668,"endTime":195.09740337500003,"instrument":5,"program":48,"isDrum":false},{"pitch":67,"velocity":76,"startTime":195.09196860416668,"endTime":195.61914137500003,"instrument":5,"program":48,"isDrum":false},{"pitch":66,"velocity":85,"startTime":195.59740229166667,"endTime":196.09196643750002,"instrument":5,"program":48,"isDrum":false},{"pitch":67,"velocity":76,"startTime":196.11370552083335,"endTime":196.32566158333336,"instrument":5,"program":48,"isDrum":false},{"pitch":62,"velocity":116,"startTime":198.7332650625,"endTime":199.23869875000003,"instrument":5,"program":48,"isDrum":false},{"pitch":67,"velocity":76,"startTime":199.26587260416667,"endTime":199.43978527083337,"instrument":5,"program":48,"isDrum":false},{"pitch":62,"velocity":71,"startTime":33.391232,"endTime":36.440138437499996,"instrument":6,"program":49,"isDrum":false},{"pitch":60,"velocity":71,"startTime":36.46187752083334,"endTime":37.50535352083334,"instrument":6,"program":49,"isDrum":false},{"pitch":66,"velocity":80,"startTime":36.46731229166667,"endTime":37.461875354166665,"instrument":6,"program":49,"isDrum":false},{"pitch":58,"velocity":50,"startTime":37.4510058125,"endTime":40.037956729166666,"instrument":6,"program":49,"isDrum":false},{"pitch":67,"velocity":57,"startTime":37.4510058125,"endTime":40.05426104166666,"instrument":6,"program":49,"isDrum":false},{"pitch":55,"velocity":94,"startTime":40.07056535416666,"endTime":40.60317289583334,"instrument":6,"program":49,"isDrum":false},{"pitch":67,"velocity":80,"startTime":40.60317289583334,"endTime":41.14664997916667,"instrument":6,"program":49,"isDrum":false},{"pitch":63,"velocity":80,"startTime":41.1357804375,"endTime":41.65208366666667,"instrument":6,"program":49,"isDrum":false},{"pitch":62,"velocity":80,"startTime":41.6575184375,"endTime":44.80968552083334,"instrument":6,"program":49,"isDrum":false},{"pitch":60,"velocity":64,"startTime":44.80968552083334,"endTime":45.85316152083334,"instrument":6,"program":49,"isDrum":false},{"pitch":66,"velocity":94,"startTime":44.80968552083334,"endTime":45.85859629166667,"instrument":6,"program":49,"isDrum":false},{"pitch":67,"velocity":48,"startTime":45.80424858333333,"endTime":48.016200312500004,"instrument":6,"program":49,"isDrum":false},{"pitch":58,"velocity":57,"startTime":45.809683354166665,"endTime":47.98359168750001,"instrument":6,"program":49,"isDrum":false},{"pitch":70,"velocity":128,"startTime":48.43467766666667,"endTime":48.92924181250001,"instrument":6,"program":49,"isDrum":false},{"pitch":69,"velocity":94,"startTime":48.95098089583334,"endTime":49.50532752083333,"instrument":6,"program":49,"isDrum":false},{"pitch":67,"velocity":80,"startTime":49.49445797916667,"endTime":49.99445689583334,"instrument":6,"program":49,"isDrum":false},{"pitch":72,"velocity":80,"startTime":49.989022125000005,"endTime":52.342277895833334,"instrument":6,"program":49,"isDrum":false},{"pitch":74,"velocity":80,"startTime":52.364016979166664,"endTime":52.65205983333334,"instrument":6,"program":49,"isDrum":false},{"pitch":75,"velocity":80,"startTime":52.65749460416667,"endTime":52.90749406250001,"instrument":6,"program":49,"isDrum":false},{"pitch":74,"velocity":50,"startTime":52.90749406250001,"endTime":53.168363062500006,"instrument":6,"program":49,"isDrum":false},{"pitch":75,"velocity":80,"startTime":53.17379783333334,"endTime":53.690101062500005,"instrument":6,"program":49,"isDrum":false},{"pitch":77,"velocity":80,"startTime":53.67379675000001,"endTime":54.162926125,"instrument":6,"program":49,"isDrum":false},{"pitch":74,"velocity":62,"startTime":54.18466520833334,"endTime":55.260749833333335,"instrument":6,"program":49,"isDrum":false},{"pitch":70,"velocity":71,"startTime":55.24444552083334,"endTime":56.570529604166666,"instrument":6,"program":49,"isDrum":false},{"pitch":73,"velocity":94,"startTime":56.575964375,"endTime":56.8205290625,"instrument":6,"program":49,"isDrum":false},{"pitch":74,"velocity":71,"startTime":56.831398604166665,"endTime":57.092267604166665,"instrument":6,"program":49,"isDrum":false},{"pitch":73,"velocity":48,"startTime":57.070528520833335,"endTime":57.347701833333346,"instrument":6,"program":49,"isDrum":false},{"pitch":74,"velocity":57,"startTime":57.358571375,"endTime":57.8640050625,"instrument":6,"program":49,"isDrum":false},{"pitch":75,"velocity":80,"startTime":57.853135520833334,"endTime":58.358569208333336,"instrument":6,"program":49,"isDrum":false},{"pitch":72,"velocity":64,"startTime":58.3531344375,"endTime":59.423784291666664,"instrument":6,"program":49,"isDrum":false},{"pitch":69,"velocity":80,"startTime":59.423784291666664,"endTime":60.690085895833334,"instrument":6,"program":49,"isDrum":false},{"pitch":72,"velocity":71,"startTime":60.69552066666667,"endTime":61.00530260416667,"instrument":6,"program":49,"isDrum":false},{"pitch":70,"velocity":64,"startTime":60.97812875000001,"endTime":61.211823895833334,"instrument":6,"program":49,"isDrum":false},{"pitch":69,"velocity":71,"startTime":61.20095435416667,"endTime":61.488997208333345,"instrument":6,"program":49,"isDrum":false},{"pitch":67,"velocity":64,"startTime":61.49443197916666,"endTime":61.99986566666668,"instrument":6,"program":49,"isDrum":false},{"pitch":66,"velocity":71,"startTime":61.988996125000014,"endTime":62.516168895833346,"instrument":6,"program":49,"isDrum":false},{"pitch":67,"velocity":64,"startTime":62.52160366666668,"endTime":62.82595083333334,"instrument":6,"program":49,"isDrum":false},{"pitch":62,"velocity":80,"startTime":65.17377183333333,"endTime":65.51616239583333,"instrument":6,"program":49,"isDrum":false},{"pitch":67,"velocity":80,"startTime":65.72811845833334,"endTime":65.86398772916668,"instrument":6,"program":49,"isDrum":false},{"pitch":67,"velocity":64,"startTime":66.782464,"endTime":67.13028933333334,"instrument":6,"program":49,"isDrum":false},{"pitch":69,"velocity":64,"startTime":67.043333,"endTime":67.36941925,"instrument":6,"program":49,"isDrum":false},{"pitch":70,"velocity":57,"startTime":67.35311493750001,"endTime":68.08137422916668,"instrument":6,"program":49,"isDrum":false},{"pitch":67,"velocity":62,"startTime":68.08137422916668,"endTime":68.38028662500001,"instrument":6,"program":49,"isDrum":false},{"pitch":69,"velocity":64,"startTime":68.38028662500001,"endTime":68.5922426875,"instrument":6,"program":49,"isDrum":false},{"pitch":70,"velocity":48,"startTime":68.58137314583334,"endTime":68.836807375,"instrument":6,"program":49,"isDrum":false},{"pitch":69,"velocity":71,"startTime":68.84224214583334,"endTime":69.38571922916668,"instrument":6,"program":49,"isDrum":false},{"pitch":67,"velocity":71,"startTime":69.38028445833334,"endTime":69.54876235416668,"instrument":6,"program":49,"isDrum":false},{"pitch":67,"velocity":71,"startTime":83.44003660416668,"endTime":83.78242716666668,"instrument":6,"program":49,"isDrum":false},{"pitch":69,"velocity":64,"startTime":83.79329670833334,"endTime":84.07047002083334,"instrument":6,"program":49,"isDrum":false},{"pitch":70,"velocity":62,"startTime":84.07047002083334,"endTime":84.79329454166668,"instrument":6,"program":49,"isDrum":false},{"pitch":67,"velocity":64,"startTime":84.78785977083334,"endTime":85.0269896875,"instrument":6,"program":49,"isDrum":false},{"pitch":69,"velocity":71,"startTime":85.01612014583334,"endTime":85.21720666666668,"instrument":6,"program":49,"isDrum":false},{"pitch":70,"velocity":64,"startTime":85.206337125,"endTime":85.45633658333334,"instrument":6,"program":49,"isDrum":false},{"pitch":69,"velocity":71,"startTime":85.45633658333334,"endTime":86.02698752083334,"instrument":6,"program":49,"isDrum":false},{"pitch":67,"velocity":80,"startTime":86.01611797916668,"endTime":86.19003064583333,"instrument":6,"program":49,"isDrum":false},{"pitch":62,"velocity":64,"startTime":100.173696,"endTime":103.33129785416668,"instrument":6,"program":49,"isDrum":false},{"pitch":60,"velocity":53,"startTime":103.27695014583334,"endTime":104.30412183333334,"instrument":6,"program":49,"isDrum":false},{"pitch":66,"velocity":71,"startTime":103.27695014583334,"endTime":104.33129568750002,"instrument":6,"program":49,"isDrum":false},{"pitch":58,"velocity":50,"startTime":104.26607843750001,"endTime":106.8095511875,"instrument":6,"program":49,"isDrum":false},{"pitch":67,"velocity":34,"startTime":104.27151320833335,"endTime":106.83672504166668,"instrument":6,"program":49,"isDrum":false},{"pitch":55,"velocity":64,"startTime":106.85846412500001,"endTime":107.40737597916669,"instrument":6,"program":49,"isDrum":false},{"pitch":67,"velocity":57,"startTime":107.40737597916669,"endTime":107.95628783333333,"instrument":6,"program":49,"isDrum":false},{"pitch":63,"velocity":80,"startTime":107.91824443750001,"endTime":108.42367812500001,"instrument":6,"program":49,"isDrum":false},{"pitch":62,"velocity":71,"startTime":108.41824335416668,"endTime":111.55954089583334,"instrument":6,"program":49,"isDrum":false},{"pitch":60,"velocity":57,"startTime":111.57584520833333,"endTime":112.65736460416669,"instrument":6,"program":49,"isDrum":false},{"pitch":66,"velocity":71,"startTime":111.57584520833333,"endTime":112.65736460416669,"instrument":6,"program":49,"isDrum":false},{"pitch":58,"velocity":48,"startTime":112.59214735416668,"endTime":114.78779477083334,"instrument":6,"program":49,"isDrum":false},{"pitch":67,"velocity":46,"startTime":112.59214735416668,"endTime":114.83670770833334,"instrument":6,"program":49,"isDrum":false},{"pitch":70,"velocity":109,"startTime":115.23344597916669,"endTime":115.75518397916669,"instrument":6,"program":49,"isDrum":false},{"pitch":69,"velocity":94,"startTime":115.74974920833334,"endTime":116.28779152083334,"instrument":6,"program":49,"isDrum":false},{"pitch":67,"velocity":71,"startTime":116.27148720833334,"endTime":116.7877904375,"instrument":6,"program":49,"isDrum":false},{"pitch":72,"velocity":71,"startTime":116.76061658333334,"endTime":119.16822006250001,"instrument":6,"program":49,"isDrum":false},{"pitch":74,"velocity":64,"startTime":119.19539391666669,"endTime":119.59756695833335,"instrument":6,"program":49,"isDrum":false},{"pitch":75,"velocity":80,"startTime":119.58669741666668,"endTime":119.79865347916669,"instrument":6,"program":49,"isDrum":false},{"pitch":74,"velocity":53,"startTime":119.78234916666668,"endTime":119.97256614583334,"instrument":6,"program":49,"isDrum":false},{"pitch":75,"velocity":80,"startTime":119.95626183333334,"endTime":120.49973891666669,"instrument":6,"program":49,"isDrum":false},{"pitch":77,"velocity":71,"startTime":120.47256506250001,"endTime":120.96169443750001,"instrument":6,"program":49,"isDrum":false},{"pitch":74,"velocity":62,"startTime":120.98886829166668,"endTime":122.05951814583334,"instrument":6,"program":49,"isDrum":false},{"pitch":70,"velocity":71,"startTime":122.04864860416669,"endTime":123.33125452083334,"instrument":6,"program":49,"isDrum":false},{"pitch":73,"velocity":94,"startTime":123.32581975000001,"endTime":123.60842783333334,"instrument":6,"program":49,"isDrum":false},{"pitch":74,"velocity":64,"startTime":123.61386260416668,"endTime":123.86929683333334,"instrument":6,"program":49,"isDrum":false},{"pitch":73,"velocity":62,"startTime":123.84755775,"endTime":124.10299197916669,"instrument":6,"program":49,"isDrum":false},{"pitch":74,"velocity":57,"startTime":124.11386152083334,"endTime":124.63559952083334,"instrument":6,"program":49,"isDrum":false},{"pitch":75,"velocity":80,"startTime":124.62472997916669,"endTime":125.13016366666669,"instrument":6,"program":49,"isDrum":false},{"pitch":72,"velocity":64,"startTime":125.13016366666669,"endTime":126.2062482916667,"instrument":6,"program":49,"isDrum":false},{"pitch":69,"velocity":71,"startTime":126.21168306250001,"endTime":127.48885420833335,"instrument":6,"program":49,"isDrum":false},{"pitch":72,"velocity":71,"startTime":127.4942889791667,"endTime":127.80407091666669,"instrument":6,"program":49,"isDrum":false},{"pitch":70,"velocity":71,"startTime":127.78776660416668,"endTime":128.054070375,"instrument":6,"program":49,"isDrum":false},{"pitch":69,"velocity":80,"startTime":128.02146175000001,"endTime":128.2932002916667,"instrument":6,"program":49,"isDrum":false},{"pitch":67,"velocity":71,"startTime":128.2932002916667,"endTime":128.80950352083335,"instrument":6,"program":49,"isDrum":false},{"pitch":66,"velocity":80,"startTime":128.78776443750002,"endTime":129.24971995833334,"instrument":6,"program":49,"isDrum":false},{"pitch":67,"velocity":71,"startTime":129.28776335416669,"endTime":129.5051541875,"instrument":6,"program":49,"isDrum":false},{"pitch":62,"velocity":80,"startTime":131.9834096875,"endTime":132.41275658333336,"instrument":6,"program":49,"isDrum":false},{"pitch":67,"velocity":71,"startTime":132.45623475000002,"endTime":132.61927787500002,"instrument":6,"program":49,"isDrum":false},{"pitch":67,"velocity":94,"startTime":133.564928,"endTime":133.6464495625,"instrument":6,"program":49,"isDrum":false},{"pitch":66,"velocity":128,"startTime":133.82579700000002,"endTime":133.90188379166668,"instrument":6,"program":49,"isDrum":false},{"pitch":67,"velocity":94,"startTime":134.086666,"endTime":134.18449187500002,"instrument":6,"program":49,"isDrum":false},{"pitch":69,"velocity":109,"startTime":134.34753500000002,"endTime":134.42905656250002,"instrument":6,"program":49,"isDrum":false},{"pitch":70,"velocity":128,"startTime":134.86927300000002,"endTime":135.34753283333336,"instrument":6,"program":49,"isDrum":false},{"pitch":69,"velocity":109,"startTime":135.39101100000002,"endTime":135.65188,"instrument":6,"program":49,"isDrum":false},{"pitch":67,"velocity":94,"startTime":135.65188,"endTime":135.77144495833335,"instrument":6,"program":49,"isDrum":false},{"pitch":63,"velocity":128,"startTime":137.738832,"endTime":137.85839695833334,"instrument":6,"program":49,"isDrum":false},{"pitch":62,"velocity":109,"startTime":137.99970100000002,"endTime":138.1138311875,"instrument":6,"program":49,"isDrum":false},{"pitch":63,"velocity":128,"startTime":138.26057,"endTime":138.36383064583336,"instrument":6,"program":49,"isDrum":false},{"pitch":65,"velocity":109,"startTime":138.52143900000002,"endTime":138.65187350000002,"instrument":6,"program":49,"isDrum":false},{"pitch":67,"velocity":109,"startTime":139.04317700000001,"endTime":139.49969775000002,"instrument":6,"program":49,"isDrum":false},{"pitch":63,"velocity":128,"startTime":139.564915,"endTime":139.8420883125,"instrument":6,"program":49,"isDrum":false},{"pitch":62,"velocity":128,"startTime":139.825784,"endTime":139.97795758333336,"instrument":6,"program":49,"isDrum":false},{"pitch":67,"velocity":94,"startTime":141.91273600000002,"endTime":142.02143141666667,"instrument":6,"program":49,"isDrum":false},{"pitch":66,"velocity":128,"startTime":142.173605,"endTime":142.26599610416667,"instrument":6,"program":49,"isDrum":false},{"pitch":67,"velocity":94,"startTime":142.43447400000002,"endTime":142.54316941666667,"instrument":6,"program":49,"isDrum":false},{"pitch":69,"velocity":128,"startTime":142.695343,"endTime":142.78773410416667,"instrument":6,"program":49,"isDrum":false},{"pitch":70,"velocity":128,"startTime":143.217081,"endTime":143.67360175000002,"instrument":6,"program":49,"isDrum":false},{"pitch":69,"velocity":109,"startTime":143.738819,"endTime":144.01055754166666,"instrument":6,"program":49,"isDrum":false},{"pitch":67,"velocity":109,"startTime":143.99968800000002,"endTime":144.12468772916668,"instrument":6,"program":49,"isDrum":false},{"pitch":63,"velocity":128,"startTime":146.08664000000002,"endTime":146.20620495833336,"instrument":6,"program":49,"isDrum":false},{"pitch":62,"velocity":128,"startTime":146.347509,"endTime":146.46707395833334,"instrument":6,"program":49,"isDrum":false},{"pitch":63,"velocity":128,"startTime":146.60837800000002,"endTime":146.71163864583335,"instrument":6,"program":49,"isDrum":false},{"pitch":65,"velocity":128,"startTime":146.869247,"endTime":146.97794241666668,"instrument":6,"program":49,"isDrum":false},{"pitch":67,"velocity":109,"startTime":147.390985,"endTime":147.83120143750003,"instrument":6,"program":49,"isDrum":false},{"pitch":63,"velocity":128,"startTime":147.912723,"endTime":148.16272245833335,"instrument":6,"program":49,"isDrum":false},{"pitch":62,"velocity":128,"startTime":148.173592,"endTime":148.29315695833336,"instrument":6,"program":49,"isDrum":false},{"pitch":60,"velocity":62,"startTime":152.347496,"endTime":152.44532187500002,"instrument":6,"program":49,"isDrum":false},{"pitch":62,"velocity":64,"startTime":152.347496,"endTime":152.44532187500002,"instrument":6,"program":49,"isDrum":false},{"pitch":66,"velocity":109,"startTime":152.347496,"endTime":152.44532187500002,"instrument":6,"program":49,"isDrum":false},{"pitch":60,"velocity":80,"startTime":153.390972,"endTime":153.48879787500002,"instrument":6,"program":49,"isDrum":false},{"pitch":62,"velocity":80,"startTime":153.390972,"endTime":153.48879787500002,"instrument":6,"program":49,"isDrum":false},{"pitch":66,"velocity":109,"startTime":153.390972,"endTime":153.48879787500002,"instrument":6,"program":49,"isDrum":false},{"pitch":60,"velocity":71,"startTime":154.434448,"endTime":154.53227387500002,"instrument":6,"program":49,"isDrum":false},{"pitch":62,"velocity":80,"startTime":154.434448,"endTime":154.53227387500002,"instrument":6,"program":49,"isDrum":false},{"pitch":66,"velocity":128,"startTime":154.434448,"endTime":154.53227387500002,"instrument":6,"program":49,"isDrum":false},{"pitch":60,"velocity":71,"startTime":155.477924,"endTime":155.575749875,"instrument":6,"program":49,"isDrum":false},{"pitch":62,"velocity":80,"startTime":155.477924,"endTime":155.575749875,"instrument":6,"program":49,"isDrum":false},{"pitch":66,"velocity":109,"startTime":155.477924,"endTime":155.575749875,"instrument":6,"program":49,"isDrum":false},{"pitch":58,"velocity":64,"startTime":156.52140000000003,"endTime":156.619225875,"instrument":6,"program":49,"isDrum":false},{"pitch":62,"velocity":71,"startTime":156.52140000000003,"endTime":156.619225875,"instrument":6,"program":49,"isDrum":false},{"pitch":67,"velocity":62,"startTime":156.52140000000003,"endTime":156.619225875,"instrument":6,"program":49,"isDrum":false},{"pitch":58,"velocity":62,"startTime":157.56487600000003,"endTime":157.662701875,"instrument":6,"program":49,"isDrum":false},{"pitch":62,"velocity":71,"startTime":157.56487600000003,"endTime":157.662701875,"instrument":6,"program":49,"isDrum":false},{"pitch":67,"velocity":62,"startTime":157.56487600000003,"endTime":157.662701875,"instrument":6,"program":49,"isDrum":false},{"pitch":58,"velocity":62,"startTime":158.60835200000002,"endTime":158.706177875,"instrument":6,"program":49,"isDrum":false},{"pitch":62,"velocity":80,"startTime":158.60835200000002,"endTime":158.706177875,"instrument":6,"program":49,"isDrum":false},{"pitch":67,"velocity":64,"startTime":158.60835200000002,"endTime":158.706177875,"instrument":6,"program":49,"isDrum":false},{"pitch":58,"velocity":57,"startTime":159.65182800000002,"endTime":159.749653875,"instrument":6,"program":49,"isDrum":false},{"pitch":62,"velocity":71,"startTime":159.65182800000002,"endTime":159.749653875,"instrument":6,"program":49,"isDrum":false},{"pitch":67,"velocity":71,"startTime":159.65182800000002,"endTime":159.749653875,"instrument":6,"program":49,"isDrum":false},{"pitch":60,"velocity":71,"startTime":160.69530400000002,"endTime":160.793129875,"instrument":6,"program":49,"isDrum":false},{"pitch":62,"velocity":71,"startTime":160.69530400000002,"endTime":160.793129875,"instrument":6,"program":49,"isDrum":false},{"pitch":66,"velocity":128,"startTime":160.69530400000002,"endTime":160.793129875,"instrument":6,"program":49,"isDrum":false},{"pitch":60,"velocity":71,"startTime":161.73878000000002,"endTime":161.836605875,"instrument":6,"program":49,"isDrum":false},{"pitch":62,"velocity":71,"startTime":161.73878000000002,"endTime":161.836605875,"instrument":6,"program":49,"isDrum":false},{"pitch":66,"velocity":109,"startTime":161.73878000000002,"endTime":161.836605875,"instrument":6,"program":49,"isDrum":false},{"pitch":60,"velocity":80,"startTime":162.78225600000002,"endTime":162.880081875,"instrument":6,"program":49,"isDrum":false},{"pitch":62,"velocity":80,"startTime":162.78225600000002,"endTime":162.880081875,"instrument":6,"program":49,"isDrum":false},{"pitch":66,"velocity":128,"startTime":162.78225600000002,"endTime":162.880081875,"instrument":6,"program":49,"isDrum":false},{"pitch":60,"velocity":80,"startTime":163.82573200000002,"endTime":163.92355787500003,"instrument":6,"program":49,"isDrum":false},{"pitch":62,"velocity":80,"startTime":163.82573200000002,"endTime":163.92355787500003,"instrument":6,"program":49,"isDrum":false},{"pitch":66,"velocity":109,"startTime":163.82573200000002,"endTime":163.92355787500003,"instrument":6,"program":49,"isDrum":false},{"pitch":62,"velocity":94,"startTime":165.390946,"endTime":165.78768427083335,"instrument":6,"program":49,"isDrum":false},{"pitch":67,"velocity":94,"startTime":165.912684,"endTime":166.01050987500003,"instrument":6,"program":49,"isDrum":false},{"pitch":62,"velocity":71,"startTime":166.95616,"endTime":170.07571845833337,"instrument":6,"program":49,"isDrum":false},{"pitch":60,"velocity":64,"startTime":170.02137075000002,"endTime":171.06484675000002,"instrument":6,"program":49,"isDrum":false},{"pitch":66,"velocity":94,"startTime":170.03224029166668,"endTime":171.07028152083336,"instrument":6,"program":49,"isDrum":false},{"pitch":58,"velocity":62,"startTime":171.02136858333336,"endTime":173.61375427083337,"instrument":6,"program":49,"isDrum":false},{"pitch":67,"velocity":48,"startTime":171.02136858333336,"endTime":173.67353675,"instrument":6,"program":49,"isDrum":false},{"pitch":55,"velocity":80,"startTime":173.65723243750003,"endTime":174.19527475,"instrument":6,"program":49,"isDrum":false},{"pitch":67,"velocity":71,"startTime":174.18983997916666,"endTime":174.72244752083336,"instrument":6,"program":49,"isDrum":false},{"pitch":63,"velocity":94,"startTime":174.68440412500001,"endTime":175.20070735416667,"instrument":6,"program":49,"isDrum":false},{"pitch":62,"velocity":80,"startTime":175.22244643750003,"endTime":178.336570125,"instrument":6,"program":49,"isDrum":false},{"pitch":60,"velocity":71,"startTime":178.35287443750002,"endTime":179.45613291666666,"instrument":6,"program":49,"isDrum":false},{"pitch":66,"velocity":94,"startTime":178.35830920833337,"endTime":179.44526337500002,"instrument":6,"program":49,"isDrum":false},{"pitch":58,"velocity":57,"startTime":179.40721997916668,"endTime":181.57569354166668,"instrument":6,"program":49,"isDrum":false},{"pitch":67,"velocity":36,"startTime":179.41808952083335,"endTime":181.61917170833337,"instrument":6,"program":49,"isDrum":false},{"pitch":70,"velocity":128,"startTime":182.0050404375,"endTime":182.55395229166666,"instrument":6,"program":49,"isDrum":false},{"pitch":69,"velocity":71,"startTime":182.55395229166666,"endTime":183.0811250625,"instrument":6,"program":49,"isDrum":false},{"pitch":67,"velocity":71,"startTime":183.07569029166666,"endTime":183.57568920833336,"instrument":6,"program":49,"isDrum":false},{"pitch":72,"velocity":80,"startTime":183.5702544375,"endTime":185.93437975,"instrument":6,"program":49,"isDrum":false},{"pitch":74,"velocity":64,"startTime":185.93437975,"endTime":186.23329214583336,"instrument":6,"program":49,"isDrum":false},{"pitch":75,"velocity":94,"startTime":186.227857375,"endTime":186.47242206250002,"instrument":6,"program":49,"isDrum":false},{"pitch":74,"velocity":57,"startTime":186.46155252083335,"endTime":186.75503014583336,"instrument":6,"program":49,"isDrum":false},{"pitch":75,"velocity":80,"startTime":186.749595375,"endTime":187.271333375,"instrument":6,"program":49,"isDrum":false},{"pitch":77,"velocity":80,"startTime":187.24959429166668,"endTime":187.72241935416668,"instrument":6,"program":49,"isDrum":false},{"pitch":74,"velocity":57,"startTime":187.7441584375,"endTime":188.82567783333337,"instrument":6,"program":49,"isDrum":false},{"pitch":70,"velocity":80,"startTime":188.81480829166668,"endTime":190.11371852083337,"instrument":6,"program":49,"isDrum":false},{"pitch":73,"velocity":94,"startTime":190.10284897916668,"endTime":190.38545706250002,"instrument":6,"program":49,"isDrum":false},{"pitch":74,"velocity":80,"startTime":190.39089183333337,"endTime":190.65176083333336,"instrument":6,"program":49,"isDrum":false},{"pitch":73,"velocity":80,"startTime":190.65176083333336,"endTime":190.91806460416666,"instrument":6,"program":49,"isDrum":false},{"pitch":74,"velocity":64,"startTime":190.92893414583335,"endTime":191.45610691666667,"instrument":6,"program":49,"isDrum":false},{"pitch":75,"velocity":71,"startTime":191.445237375,"endTime":191.95610583333337,"instrument":6,"program":49,"isDrum":false},{"pitch":72,"velocity":71,"startTime":191.94523629166667,"endTime":193.01588614583335,"instrument":6,"program":49,"isDrum":false},{"pitch":69,"velocity":80,"startTime":193.010451375,"endTime":194.28762252083337,"instrument":6,"program":49,"isDrum":false},{"pitch":72,"velocity":80,"startTime":194.28762252083337,"endTime":194.60283922916668,"instrument":6,"program":49,"isDrum":false},{"pitch":70,"velocity":62,"startTime":194.55936106250002,"endTime":194.84740391666668,"instrument":6,"program":49,"isDrum":false},{"pitch":69,"velocity":71,"startTime":194.81479529166668,"endTime":195.09740337500003,"instrument":6,"program":49,"isDrum":false},{"pitch":67,"velocity":71,"startTime":195.09196860416668,"endTime":195.61914137500003,"instrument":6,"program":49,"isDrum":false},{"pitch":66,"velocity":80,"startTime":195.59740229166667,"endTime":196.09196643750002,"instrument":6,"program":49,"isDrum":false},{"pitch":67,"velocity":71,"startTime":196.11370552083335,"endTime":196.32566158333336,"instrument":6,"program":49,"isDrum":false},{"pitch":62,"velocity":109,"startTime":198.7332650625,"endTime":199.23869875000003,"instrument":6,"program":49,"isDrum":false},{"pitch":67,"velocity":71,"startTime":199.26587260416667,"endTime":199.43978527083337,"instrument":6,"program":49,"isDrum":false},{"pitch":72,"velocity":75,"startTime":0.48369460416666676,"endTime":0.5652161666666666,"instrument":7,"program":21,"isDrum":false},{"pitch":62,"velocity":75,"startTime":0.4945641458333334,"endTime":0.5652161666666666,"instrument":7,"program":21,"isDrum":false},{"pitch":69,"velocity":75,"startTime":0.9891282916666664,"endTime":1.0706498541666667,"instrument":7,"program":21,"isDrum":false},{"pitch":62,"velocity":75,"startTime":0.9999978333333335,"endTime":1.0597803125,"instrument":7,"program":21,"isDrum":false},{"pitch":66,"velocity":110,"startTime":1.5271706041666668,"endTime":1.5923878541666667,"instrument":7,"program":21,"isDrum":false},{"pitch":62,"velocity":75,"startTime":1.5326053750000002,"endTime":1.5869530833333334,"instrument":7,"program":21,"isDrum":false},{"pitch":62,"velocity":99,"startTime":2.304342833333333,"endTime":2.5652118333333336,"instrument":7,"program":21,"isDrum":false},{"pitch":63,"velocity":84,"startTime":2.5760813750000002,"endTime":2.8152112916666674,"instrument":7,"program":21,"isDrum":false},{"pitch":62,"velocity":75,"startTime":2.8206460625,"endTime":3.0869498333333336,"instrument":7,"program":21,"isDrum":false},{"pitch":61,"velocity":99,"startTime":3.0869498333333336,"endTime":3.5760792083333337,"instrument":7,"program":21,"isDrum":false},{"pitch":62,"velocity":84,"startTime":3.6195573750000003,"endTime":3.728252791666667,"instrument":7,"program":21,"isDrum":false},{"pitch":62,"velocity":84,"startTime":4.141295375,"endTime":4.2282517083333335,"instrument":7,"program":21,"isDrum":false},{"pitch":74,"velocity":65,"startTime":4.635859520833334,"endTime":4.717381083333334,"instrument":7,"program":21,"isDrum":false},{"pitch":62,"velocity":67,"startTime":4.6467290625,"endTime":4.717381083333334,"instrument":7,"program":21,"isDrum":false},{"pitch":70,"velocity":110,"startTime":5.2010756875,"endTime":5.28259725,"instrument":7,"program":21,"isDrum":false},{"pitch":62,"velocity":84,"startTime":5.211945229166667,"endTime":5.288032020833334,"instrument":7,"program":21,"isDrum":false},{"pitch":67,"velocity":84,"startTime":5.706509375,"endTime":5.777161395833334,"instrument":7,"program":21,"isDrum":false},{"pitch":62,"velocity":75,"startTime":5.711944145833334,"endTime":5.782596166666667,"instrument":7,"program":21,"isDrum":false},{"pitch":62,"velocity":84,"startTime":6.489116375,"endTime":6.744550604166667,"instrument":7,"program":21,"isDrum":false},{"pitch":63,"velocity":99,"startTime":6.749985375,"endTime":6.945637125000001,"instrument":7,"program":21,"isDrum":false},{"pitch":62,"velocity":67,"startTime":6.9619414375,"endTime":7.260853833333334,"instrument":7,"program":21,"isDrum":false},{"pitch":61,"velocity":84,"startTime":7.260853833333334,"endTime":7.755417979166667,"instrument":7,"program":21,"isDrum":false},{"pitch":62,"velocity":75,"startTime":7.782591833333335,"endTime":7.896722020833334,"instrument":7,"program":21,"isDrum":false},{"pitch":62,"velocity":99,"startTime":8.315199375,"endTime":8.402155708333334,"instrument":7,"program":21,"isDrum":false},{"pitch":72,"velocity":75,"startTime":8.831502604166667,"endTime":8.9184589375,"instrument":7,"program":21,"isDrum":false},{"pitch":62,"velocity":75,"startTime":8.842372145833334,"endTime":8.9184589375,"instrument":7,"program":21,"isDrum":false},{"pitch":69,"velocity":75,"startTime":9.3749796875,"endTime":9.451066479166666,"instrument":7,"program":21,"isDrum":false},{"pitch":62,"velocity":75,"startTime":9.380414458333334,"endTime":9.445631708333334,"instrument":7,"program":21,"isDrum":false},{"pitch":66,"velocity":110,"startTime":9.913022000000002,"endTime":9.972804479166667,"instrument":7,"program":21,"isDrum":false},{"pitch":62,"velocity":75,"startTime":9.923891541666666,"endTime":9.983674020833334,"instrument":7,"program":21,"isDrum":false},{"pitch":62,"velocity":99,"startTime":10.673889916666667,"endTime":10.913019833333335,"instrument":7,"program":21,"isDrum":false},{"pitch":63,"velocity":99,"startTime":10.913019833333335,"endTime":11.1358454375,"instrument":7,"program":21,"isDrum":false},{"pitch":62,"velocity":75,"startTime":11.152149750000001,"endTime":11.423888291666668,"instrument":7,"program":21,"isDrum":false},{"pitch":61,"velocity":84,"startTime":11.440192604166667,"endTime":11.913017666666667,"instrument":7,"program":21,"isDrum":false},{"pitch":62,"velocity":75,"startTime":11.940191520833334,"endTime":12.076060791666666,"instrument":7,"program":21,"isDrum":false},{"pitch":62,"velocity":99,"startTime":12.461929520833335,"endTime":12.554320625,"instrument":7,"program":21,"isDrum":false},{"pitch":74,"velocity":65,"startTime":12.989102291666667,"endTime":13.076058625000002,"instrument":7,"program":21,"isDrum":false},{"pitch":62,"velocity":60,"startTime":13.010841375,"endTime":13.086928166666667,"instrument":7,"program":21,"isDrum":false},{"pitch":70,"velocity":110,"startTime":13.527144604166667,"endTime":13.614100937500002,"instrument":7,"program":21,"isDrum":false},{"pitch":62,"velocity":65,"startTime":13.538014145833335,"endTime":13.608666166666668,"instrument":7,"program":21,"isDrum":false},{"pitch":62,"velocity":75,"startTime":14.043447833333335,"endTime":14.119534625,"instrument":7,"program":21,"isDrum":false},{"pitch":67,"velocity":99,"startTime":14.043447833333335,"endTime":14.124969395833336,"instrument":7,"program":21,"isDrum":false},{"pitch":75,"velocity":110,"startTime":14.706489875000003,"endTime":14.798880979166668,"instrument":7,"program":21,"isDrum":false},{"pitch":74,"velocity":75,"startTime":14.842359145833335,"endTime":14.9184459375,"instrument":7,"program":21,"isDrum":false},{"pitch":73,"velocity":110,"startTime":14.956489333333334,"endTime":15.04344566666667,"instrument":7,"program":21,"isDrum":false},{"pitch":72,"velocity":84,"startTime":15.086923833333334,"endTime":15.163010625000002,"instrument":7,"program":21,"isDrum":false},{"pitch":71,"velocity":46,"startTime":15.206488791666668,"endTime":15.282575583333333,"instrument":7,"program":21,"isDrum":false},{"pitch":70,"velocity":110,"startTime":15.331488520833332,"endTime":15.413010083333333,"instrument":7,"program":21,"isDrum":false},{"pitch":69,"velocity":65,"startTime":15.45648825,"endTime":15.543444583333333,"instrument":7,"program":21,"isDrum":false},{"pitch":68,"velocity":110,"startTime":15.592357520833332,"endTime":15.69561816666667,"instrument":7,"program":21,"isDrum":false},{"pitch":67,"velocity":67,"startTime":15.722792020833332,"endTime":15.793444041666667,"instrument":7,"program":21,"isDrum":false},{"pitch":66,"velocity":110,"startTime":15.84235697916667,"endTime":15.934748083333332,"instrument":7,"program":21,"isDrum":false},{"pitch":65,"velocity":75,"startTime":15.978226250000002,"endTime":16.065182583333332,"instrument":7,"program":21,"isDrum":false},{"pitch":64,"velocity":60,"startTime":16.108660750000002,"endTime":16.190182312500003,"instrument":7,"program":21,"isDrum":false},{"pitch":63,"velocity":110,"startTime":16.23366047916667,"endTime":16.331486354166667,"instrument":7,"program":21,"isDrum":false},{"pitch":62,"velocity":60,"startTime":16.36409497916667,"endTime":16.44561654166667,"instrument":7,"program":21,"isDrum":false},{"pitch":61,"velocity":110,"startTime":16.49452947916667,"endTime":16.59235535416667,"instrument":7,"program":21,"isDrum":false},{"pitch":60,"velocity":75,"startTime":16.652137833333335,"endTime":16.749963708333333,"instrument":7,"program":21,"isDrum":false},{"pitch":67,"velocity":84,"startTime":17.16300629166667,"endTime":17.24452785416667,"instrument":7,"program":21,"isDrum":false},{"pitch":60,"velocity":67,"startTime":17.173875833333334,"endTime":17.239093083333334,"instrument":7,"program":21,"isDrum":false},{"pitch":66,"velocity":110,"startTime":17.695613833333333,"endTime":17.760831083333333,"instrument":7,"program":21,"isDrum":false},{"pitch":60,"velocity":67,"startTime":17.70104860416667,"endTime":17.777135395833334,"instrument":7,"program":21,"isDrum":false},{"pitch":60,"velocity":84,"startTime":18.2119170625,"endTime":18.288003854166668,"instrument":7,"program":21,"isDrum":false},{"pitch":67,"velocity":75,"startTime":18.2119170625,"endTime":18.282569083333332,"instrument":7,"program":21,"isDrum":false},{"pitch":60,"velocity":75,"startTime":19.021697916666668,"endTime":19.086915166666667,"instrument":7,"program":21,"isDrum":false},{"pitch":67,"velocity":75,"startTime":19.021697916666668,"endTime":19.097784708333332,"instrument":7,"program":21,"isDrum":false},{"pitch":67,"velocity":67,"startTime":19.24995829166667,"endTime":19.336914625000002,"instrument":7,"program":21,"isDrum":false},{"pitch":60,"velocity":67,"startTime":19.26626260416667,"endTime":19.336914625000002,"instrument":7,"program":21,"isDrum":false},{"pitch":66,"velocity":110,"startTime":19.521696833333333,"endTime":19.614087937500003,"instrument":7,"program":21,"isDrum":false},{"pitch":60,"velocity":53,"startTime":19.54343591666667,"endTime":19.603218395833334,"instrument":7,"program":21,"isDrum":false},{"pitch":60,"velocity":65,"startTime":19.793435375,"endTime":19.874956937500002,"instrument":7,"program":21,"isDrum":false},{"pitch":67,"velocity":75,"startTime":19.793435375,"endTime":19.874956937500002,"instrument":7,"program":21,"isDrum":false},{"pitch":66,"velocity":99,"startTime":20.043434833333333,"endTime":20.141260708333334,"instrument":7,"program":21,"isDrum":false},{"pitch":60,"velocity":47,"startTime":20.070608687500002,"endTime":20.1358259375,"instrument":7,"program":21,"isDrum":false},{"pitch":60,"velocity":65,"startTime":20.304303833333332,"endTime":20.402129708333334,"instrument":7,"program":21,"isDrum":false},{"pitch":67,"velocity":84,"startTime":20.309738604166668,"endTime":20.402129708333334,"instrument":7,"program":21,"isDrum":false},{"pitch":66,"velocity":110,"startTime":20.559738062500003,"endTime":20.662998708333333,"instrument":7,"program":21,"isDrum":false},{"pitch":60,"velocity":60,"startTime":20.576042375,"endTime":20.6575639375,"instrument":7,"program":21,"isDrum":false},{"pitch":58,"velocity":99,"startTime":20.847780916666668,"endTime":20.940172020833334,"instrument":7,"program":21,"isDrum":false},{"pitch":58,"velocity":75,"startTime":21.391258,"endTime":21.46734479166667,"instrument":7,"program":21,"isDrum":false},{"pitch":67,"velocity":84,"startTime":21.391258,"endTime":21.478214333333334,"instrument":7,"program":21,"isDrum":false},{"pitch":58,"velocity":60,"startTime":21.912996000000003,"endTime":21.9945175625,"instrument":7,"program":21,"isDrum":false},{"pitch":66,"velocity":84,"startTime":21.912996000000003,"endTime":21.999952333333333,"instrument":7,"program":21,"isDrum":false},{"pitch":58,"velocity":65,"startTime":22.434734000000002,"endTime":22.505386020833335,"instrument":7,"program":21,"isDrum":false},{"pitch":67,"velocity":75,"startTime":22.434734000000002,"endTime":22.521690333333332,"instrument":7,"program":21,"isDrum":false},{"pitch":66,"velocity":110,"startTime":23.2010366875,"endTime":23.287993020833333,"instrument":7,"program":21,"isDrum":false},{"pitch":58,"velocity":75,"startTime":23.21190622916667,"endTime":23.271688708333333,"instrument":7,"program":21,"isDrum":false},{"pitch":67,"velocity":75,"startTime":23.44016660416667,"endTime":23.537992479166668,"instrument":7,"program":21,"isDrum":false},{"pitch":58,"velocity":75,"startTime":23.451036145833335,"endTime":23.52168816666667,"instrument":7,"program":21,"isDrum":false},{"pitch":66,"velocity":110,"startTime":23.70103560416667,"endTime":23.793426708333335,"instrument":7,"program":21,"isDrum":false},{"pitch":58,"velocity":60,"startTime":23.71733991666667,"endTime":23.78255716666667,"instrument":7,"program":21,"isDrum":false},{"pitch":58,"velocity":60,"startTime":23.956469833333333,"endTime":24.037991395833334,"instrument":7,"program":21,"isDrum":false},{"pitch":67,"velocity":67,"startTime":23.956469833333333,"endTime":24.05973047916667,"instrument":7,"program":21,"isDrum":false},{"pitch":66,"velocity":110,"startTime":24.217338833333333,"endTime":24.315164708333334,"instrument":7,"program":21,"isDrum":false},{"pitch":58,"velocity":67,"startTime":24.228208375,"endTime":24.293425625,"instrument":7,"program":21,"isDrum":false},{"pitch":58,"velocity":65,"startTime":24.46733829166667,"endTime":24.543425083333332,"instrument":7,"program":21,"isDrum":false},{"pitch":67,"velocity":67,"startTime":24.46733829166667,"endTime":24.559729395833333,"instrument":7,"program":21,"isDrum":false},{"pitch":66,"velocity":110,"startTime":24.706468208333334,"endTime":24.804294083333335,"instrument":7,"program":21,"isDrum":false},{"pitch":58,"velocity":53,"startTime":24.722772520833335,"endTime":24.787989770833335,"instrument":7,"program":21,"isDrum":false},{"pitch":57,"velocity":75,"startTime":25.00538060416667,"endTime":25.10320647916667,"instrument":7,"program":21,"isDrum":false},{"pitch":57,"velocity":75,"startTime":25.532553375000003,"endTime":25.614074937500003,"instrument":7,"program":21,"isDrum":false},{"pitch":62,"velocity":84,"startTime":25.532553375000003,"endTime":25.619509708333332,"instrument":7,"program":21,"isDrum":false},{"pitch":60,"velocity":84,"startTime":26.054291375000002,"endTime":26.152117250000003,"instrument":7,"program":21,"isDrum":false},{"pitch":57,"velocity":65,"startTime":26.059726145833334,"endTime":26.152117250000003,"instrument":7,"program":21,"isDrum":false},{"pitch":62,"velocity":99,"startTime":26.55429029166667,"endTime":26.641246625,"instrument":7,"program":21,"isDrum":false},{"pitch":57,"velocity":75,"startTime":26.5597250625,"endTime":26.641246625,"instrument":7,"program":21,"isDrum":false},{"pitch":60,"velocity":84,"startTime":27.32602775,"endTime":27.771678958333332,"instrument":7,"program":21,"isDrum":false},{"pitch":58,"velocity":75,"startTime":27.7988528125,"endTime":27.934722083333334,"instrument":7,"program":21,"isDrum":false},{"pitch":57,"velocity":65,"startTime":27.94015685416667,"endTime":28.07059135416667,"instrument":7,"program":21,"isDrum":false},{"pitch":55,"velocity":65,"startTime":28.076026125000002,"endTime":28.619503208333334,"instrument":7,"program":21,"isDrum":false},{"pitch":54,"velocity":84,"startTime":28.62493797916667,"endTime":29.141241208333334,"instrument":7,"program":21,"isDrum":false},{"pitch":55,"velocity":99,"startTime":29.157545520833335,"endTime":29.271675708333333,"instrument":7,"program":21,"isDrum":false},{"pitch":67,"velocity":75,"startTime":29.999935000000004,"endTime":30.070587020833333,"instrument":7,"program":21,"isDrum":false},{"pitch":75,"velocity":110,"startTime":29.999935000000004,"endTime":30.06515225,"instrument":7,"program":21,"isDrum":false},{"pitch":65,"velocity":55,"startTime":30.260804000000004,"endTime":30.336890791666672,"instrument":7,"program":21,"isDrum":false},{"pitch":74,"velocity":99,"startTime":30.260804000000004,"endTime":30.336890791666672,"instrument":7,"program":21,"isDrum":false},{"pitch":63,"velocity":110,"startTime":30.521673000000003,"endTime":30.581455479166667,"instrument":7,"program":21,"isDrum":false},{"pitch":72,"velocity":75,"startTime":30.521673000000003,"endTime":30.581455479166667,"instrument":7,"program":21,"isDrum":false},{"pitch":62,"velocity":75,"startTime":30.782542000000003,"endTime":30.84775925,"instrument":7,"program":21,"isDrum":false},{"pitch":70,"velocity":110,"startTime":30.782542000000003,"endTime":30.836889708333334,"instrument":7,"program":21,"isDrum":false},{"pitch":60,"velocity":67,"startTime":31.043411000000003,"endTime":31.103193479166674,"instrument":7,"program":21,"isDrum":false},{"pitch":69,"velocity":75,"startTime":31.043411000000003,"endTime":31.11406302083333,"instrument":7,"program":21,"isDrum":false},{"pitch":58,"velocity":84,"startTime":31.304280000000002,"endTime":31.374932020833338,"instrument":7,"program":21,"isDrum":false},{"pitch":67,"velocity":67,"startTime":31.304280000000002,"endTime":31.369497250000006,"instrument":7,"program":21,"isDrum":false},{"pitch":62,"velocity":84,"startTime":31.565149,"endTime":32.293408291666665,"instrument":7,"program":21,"isDrum":false},{"pitch":60,"velocity":67,"startTime":31.826018,"endTime":32.293408291666665,"instrument":7,"program":21,"isDrum":false},{"pitch":66,"velocity":99,"startTime":31.826018,"endTime":32.304277833333344,"instrument":7,"program":21,"isDrum":false},{"pitch":62,"velocity":84,"startTime":32.32058214583334,"endTime":32.451016645833334,"instrument":7,"program":21,"isDrum":false},{"pitch":67,"velocity":67,"startTime":32.32058214583334,"endTime":32.4618861875,"instrument":7,"program":21,"isDrum":false},{"pitch":58,"velocity":110,"startTime":32.33145168750001,"endTime":32.4618861875,"instrument":7,"program":21,"isDrum":false},{"pitch":62,"velocity":110,"startTime":33.14123254166667,"endTime":33.23362364583333,"instrument":7,"program":21,"isDrum":false},{"pitch":62,"velocity":65,"startTime":33.260797499999995,"endTime":33.33144952083333,"instrument":7,"program":21,"isDrum":false},{"pitch":62,"velocity":110,"startTime":33.38036245833334,"endTime":33.456449250000006,"instrument":7,"program":21,"isDrum":false},{"pitch":72,"velocity":75,"startTime":33.87492660416666,"endTime":33.95644816666666,"instrument":7,"program":21,"isDrum":false},{"pitch":62,"velocity":75,"startTime":33.88579614583334,"endTime":33.95644816666666,"instrument":7,"program":21,"isDrum":false},{"pitch":69,"velocity":75,"startTime":34.38036029166666,"endTime":34.46188185416666,"instrument":7,"program":21,"isDrum":false},{"pitch":62,"velocity":75,"startTime":34.39122983333334,"endTime":34.4510123125,"instrument":7,"program":21,"isDrum":false},{"pitch":66,"velocity":110,"startTime":34.91840260416667,"endTime":34.98361985416666,"instrument":7,"program":21,"isDrum":false},{"pitch":62,"velocity":75,"startTime":34.923837375000005,"endTime":34.978185083333344,"instrument":7,"program":21,"isDrum":false},{"pitch":62,"velocity":99,"startTime":35.69557483333334,"endTime":35.95644383333334,"instrument":7,"program":21,"isDrum":false},{"pitch":63,"velocity":84,"startTime":35.967313375,"endTime":36.20644329166667,"instrument":7,"program":21,"isDrum":false},{"pitch":62,"velocity":75,"startTime":36.211878062500006,"endTime":36.47818183333334,"instrument":7,"program":21,"isDrum":false},{"pitch":61,"velocity":99,"startTime":36.47818183333334,"endTime":36.96731120833334,"instrument":7,"program":21,"isDrum":false},{"pitch":62,"velocity":84,"startTime":37.010789375,"endTime":37.119484791666665,"instrument":7,"program":21,"isDrum":false},{"pitch":62,"velocity":84,"startTime":37.532527375,"endTime":37.619483708333334,"instrument":7,"program":21,"isDrum":false},{"pitch":74,"velocity":65,"startTime":38.02709152083334,"endTime":38.10861308333334,"instrument":7,"program":21,"isDrum":false},{"pitch":62,"velocity":67,"startTime":38.0379610625,"endTime":38.10861308333334,"instrument":7,"program":21,"isDrum":false},{"pitch":70,"velocity":110,"startTime":38.592307687499996,"endTime":38.67382925,"instrument":7,"program":21,"isDrum":false},{"pitch":62,"velocity":84,"startTime":38.60317722916666,"endTime":38.679264020833344,"instrument":7,"program":21,"isDrum":false},{"pitch":67,"velocity":84,"startTime":39.097741375,"endTime":39.168393395833334,"instrument":7,"program":21,"isDrum":false},{"pitch":62,"velocity":75,"startTime":39.103176145833345,"endTime":39.17382816666667,"instrument":7,"program":21,"isDrum":false},{"pitch":62,"velocity":84,"startTime":39.880348375,"endTime":40.135782604166664,"instrument":7,"program":21,"isDrum":false},{"pitch":63,"velocity":99,"startTime":40.141217375,"endTime":40.33686912500001,"instrument":7,"program":21,"isDrum":false},{"pitch":62,"velocity":67,"startTime":40.353173437500004,"endTime":40.652085833333345,"instrument":7,"program":21,"isDrum":false},{"pitch":61,"velocity":84,"startTime":40.652085833333345,"endTime":41.14664997916667,"instrument":7,"program":21,"isDrum":false},{"pitch":62,"velocity":75,"startTime":41.173823833333344,"endTime":41.28795402083334,"instrument":7,"program":21,"isDrum":false},{"pitch":62,"velocity":99,"startTime":41.70643137500001,"endTime":41.79338770833334,"instrument":7,"program":21,"isDrum":false},{"pitch":72,"velocity":75,"startTime":42.22273460416666,"endTime":42.30969093750001,"instrument":7,"program":21,"isDrum":false},{"pitch":62,"velocity":75,"startTime":42.23360414583334,"endTime":42.30969093750001,"instrument":7,"program":21,"isDrum":false},{"pitch":69,"velocity":75,"startTime":42.766211687500004,"endTime":42.84229847916667,"instrument":7,"program":21,"isDrum":false},{"pitch":62,"velocity":75,"startTime":42.771646458333336,"endTime":42.83686370833334,"instrument":7,"program":21,"isDrum":false},{"pitch":66,"velocity":110,"startTime":43.304254,"endTime":43.36403647916667,"instrument":7,"program":21,"isDrum":false},{"pitch":62,"velocity":75,"startTime":43.315123541666665,"endTime":43.374906020833336,"instrument":7,"program":21,"isDrum":false},{"pitch":62,"velocity":99,"startTime":44.06512191666667,"endTime":44.30425183333334,"instrument":7,"program":21,"isDrum":false},{"pitch":63,"velocity":99,"startTime":44.30425183333334,"endTime":44.5270774375,"instrument":7,"program":21,"isDrum":false},{"pitch":62,"velocity":75,"startTime":44.54338175000001,"endTime":44.81512029166667,"instrument":7,"program":21,"isDrum":false},{"pitch":61,"velocity":84,"startTime":44.83142460416667,"endTime":45.304249666666664,"instrument":7,"program":21,"isDrum":false},{"pitch":62,"velocity":75,"startTime":45.33142352083334,"endTime":45.467292791666665,"instrument":7,"program":21,"isDrum":false},{"pitch":62,"velocity":99,"startTime":45.85316152083334,"endTime":45.945552625000005,"instrument":7,"program":21,"isDrum":false},{"pitch":74,"velocity":65,"startTime":46.38033429166667,"endTime":46.467290625000004,"instrument":7,"program":21,"isDrum":false},{"pitch":62,"velocity":60,"startTime":46.402073375,"endTime":46.47816016666667,"instrument":7,"program":21,"isDrum":false},{"pitch":70,"velocity":110,"startTime":46.91837660416667,"endTime":47.0053329375,"instrument":7,"program":21,"isDrum":false},{"pitch":62,"velocity":65,"startTime":46.92924614583333,"endTime":46.99989816666667,"instrument":7,"program":21,"isDrum":false},{"pitch":62,"velocity":75,"startTime":47.434679833333334,"endTime":47.510766625,"instrument":7,"program":21,"isDrum":false},{"pitch":67,"velocity":99,"startTime":47.434679833333334,"endTime":47.516201395833335,"instrument":7,"program":21,"isDrum":false},{"pitch":75,"velocity":110,"startTime":48.097721875000005,"endTime":48.19011297916667,"instrument":7,"program":21,"isDrum":false},{"pitch":74,"velocity":75,"startTime":48.233591145833344,"endTime":48.3096779375,"instrument":7,"program":21,"isDrum":false},{"pitch":73,"velocity":110,"startTime":48.34772133333334,"endTime":48.43467766666667,"instrument":7,"program":21,"isDrum":false},{"pitch":72,"velocity":84,"startTime":48.47815583333333,"endTime":48.554242625,"instrument":7,"program":21,"isDrum":false},{"pitch":71,"velocity":46,"startTime":48.597720791666674,"endTime":48.67380758333334,"instrument":7,"program":21,"isDrum":false},{"pitch":70,"velocity":110,"startTime":48.722720520833334,"endTime":48.804242083333335,"instrument":7,"program":21,"isDrum":false},{"pitch":69,"velocity":65,"startTime":48.84772025000001,"endTime":48.93467658333334,"instrument":7,"program":21,"isDrum":false},{"pitch":68,"velocity":110,"startTime":48.983589520833334,"endTime":49.086850166666665,"instrument":7,"program":21,"isDrum":false},{"pitch":67,"velocity":67,"startTime":49.11402402083334,"endTime":49.18467604166666,"instrument":7,"program":21,"isDrum":false},{"pitch":66,"velocity":110,"startTime":49.23358897916667,"endTime":49.325980083333334,"instrument":7,"program":21,"isDrum":false},{"pitch":65,"velocity":75,"startTime":49.36945825000001,"endTime":49.45641458333334,"instrument":7,"program":21,"isDrum":false},{"pitch":64,"velocity":60,"startTime":49.49989275,"endTime":49.5814143125,"instrument":7,"program":21,"isDrum":false},{"pitch":63,"velocity":110,"startTime":49.62489247916666,"endTime":49.72271835416667,"instrument":7,"program":21,"isDrum":false},{"pitch":62,"velocity":60,"startTime":49.75532697916667,"endTime":49.83684854166667,"instrument":7,"program":21,"isDrum":false},{"pitch":61,"velocity":110,"startTime":49.88576147916666,"endTime":49.98358735416667,"instrument":7,"program":21,"isDrum":false},{"pitch":60,"velocity":75,"startTime":50.043369833333344,"endTime":50.14119570833334,"instrument":7,"program":21,"isDrum":false},{"pitch":67,"velocity":84,"startTime":50.554238291666664,"endTime":50.635759854166665,"instrument":7,"program":21,"isDrum":false},{"pitch":60,"velocity":67,"startTime":50.56510783333334,"endTime":50.63032508333333,"instrument":7,"program":21,"isDrum":false},{"pitch":66,"velocity":110,"startTime":51.08684583333334,"endTime":51.152063083333346,"instrument":7,"program":21,"isDrum":false},{"pitch":60,"velocity":67,"startTime":51.092280604166675,"endTime":51.16836739583334,"instrument":7,"program":21,"isDrum":false},{"pitch":60,"velocity":84,"startTime":51.60314906250001,"endTime":51.67923585416666,"instrument":7,"program":21,"isDrum":false},{"pitch":67,"velocity":75,"startTime":51.60314906250001,"endTime":51.673801083333345,"instrument":7,"program":21,"isDrum":false},{"pitch":60,"velocity":75,"startTime":52.41292991666667,"endTime":52.47814716666667,"instrument":7,"program":21,"isDrum":false},{"pitch":67,"velocity":75,"startTime":52.41292991666667,"endTime":52.48901670833334,"instrument":7,"program":21,"isDrum":false},{"pitch":67,"velocity":67,"startTime":52.641190291666675,"endTime":52.72814662500001,"instrument":7,"program":21,"isDrum":false},{"pitch":60,"velocity":67,"startTime":52.65749460416667,"endTime":52.72814662500001,"instrument":7,"program":21,"isDrum":false},{"pitch":66,"velocity":110,"startTime":52.91292883333334,"endTime":53.005319937500005,"instrument":7,"program":21,"isDrum":false},{"pitch":60,"velocity":53,"startTime":52.93466791666667,"endTime":52.99445039583334,"instrument":7,"program":21,"isDrum":false},{"pitch":60,"velocity":65,"startTime":53.184667375000004,"endTime":53.266188937500004,"instrument":7,"program":21,"isDrum":false},{"pitch":67,"velocity":75,"startTime":53.184667375000004,"endTime":53.266188937500004,"instrument":7,"program":21,"isDrum":false},{"pitch":66,"velocity":99,"startTime":53.43466683333334,"endTime":53.532492708333336,"instrument":7,"program":21,"isDrum":false},{"pitch":60,"velocity":47,"startTime":53.4618406875,"endTime":53.527057937500004,"instrument":7,"program":21,"isDrum":false},{"pitch":60,"velocity":65,"startTime":53.69553583333334,"endTime":53.793361708333336,"instrument":7,"program":21,"isDrum":false},{"pitch":67,"velocity":84,"startTime":53.70097060416667,"endTime":53.793361708333336,"instrument":7,"program":21,"isDrum":false},{"pitch":66,"velocity":110,"startTime":53.950970062500005,"endTime":54.054230708333336,"instrument":7,"program":21,"isDrum":false},{"pitch":60,"velocity":60,"startTime":53.967274375,"endTime":54.0487959375,"instrument":7,"program":21,"isDrum":false},{"pitch":58,"velocity":99,"startTime":54.23901291666667,"endTime":54.33140402083333,"instrument":7,"program":21,"isDrum":false},{"pitch":58,"velocity":75,"startTime":54.78249000000001,"endTime":54.858576791666664,"instrument":7,"program":21,"isDrum":false},{"pitch":67,"velocity":84,"startTime":54.78249000000001,"endTime":54.86944633333334,"instrument":7,"program":21,"isDrum":false},{"pitch":58,"velocity":60,"startTime":55.30422800000001,"endTime":55.38574956250001,"instrument":7,"program":21,"isDrum":false},{"pitch":66,"velocity":84,"startTime":55.30422800000001,"endTime":55.39118433333334,"instrument":7,"program":21,"isDrum":false},{"pitch":58,"velocity":65,"startTime":55.82596600000001,"endTime":55.896618020833344,"instrument":7,"program":21,"isDrum":false},{"pitch":67,"velocity":75,"startTime":55.82596600000001,"endTime":55.91292233333334,"instrument":7,"program":21,"isDrum":false},{"pitch":66,"velocity":110,"startTime":56.59226868750001,"endTime":56.67922502083334,"instrument":7,"program":21,"isDrum":false},{"pitch":58,"velocity":75,"startTime":56.603138229166674,"endTime":56.662920708333345,"instrument":7,"program":21,"isDrum":false},{"pitch":67,"velocity":75,"startTime":56.831398604166665,"endTime":56.92922447916666,"instrument":7,"program":21,"isDrum":false},{"pitch":58,"velocity":75,"startTime":56.842268145833344,"endTime":56.912920166666666,"instrument":7,"program":21,"isDrum":false},{"pitch":66,"velocity":110,"startTime":57.092267604166665,"endTime":57.184658708333345,"instrument":7,"program":21,"isDrum":false},{"pitch":58,"velocity":60,"startTime":57.10857191666666,"endTime":57.173789166666666,"instrument":7,"program":21,"isDrum":false},{"pitch":58,"velocity":60,"startTime":57.347701833333346,"endTime":57.42922339583333,"instrument":7,"program":21,"isDrum":false},{"pitch":67,"velocity":67,"startTime":57.347701833333346,"endTime":57.45096247916666,"instrument":7,"program":21,"isDrum":false},{"pitch":66,"velocity":110,"startTime":57.608570833333346,"endTime":57.706396708333344,"instrument":7,"program":21,"isDrum":false},{"pitch":58,"velocity":67,"startTime":57.61944037500001,"endTime":57.684657625,"instrument":7,"program":21,"isDrum":false},{"pitch":58,"velocity":65,"startTime":57.858570291666666,"endTime":57.934657083333335,"instrument":7,"program":21,"isDrum":false},{"pitch":67,"velocity":67,"startTime":57.858570291666666,"endTime":57.950961395833346,"instrument":7,"program":21,"isDrum":false},{"pitch":66,"velocity":110,"startTime":58.097700208333336,"endTime":58.195526083333334,"instrument":7,"program":21,"isDrum":false},{"pitch":58,"velocity":53,"startTime":58.11400452083333,"endTime":58.17922177083334,"instrument":7,"program":21,"isDrum":false},{"pitch":57,"velocity":75,"startTime":58.39661260416666,"endTime":58.494438479166675,"instrument":7,"program":21,"isDrum":false},{"pitch":57,"velocity":75,"startTime":58.92378537500001,"endTime":59.00530693750001,"instrument":7,"program":21,"isDrum":false},{"pitch":62,"velocity":84,"startTime":58.92378537500001,"endTime":59.01074170833334,"instrument":7,"program":21,"isDrum":false},{"pitch":60,"velocity":84,"startTime":59.44552337500001,"endTime":59.543349250000006,"instrument":7,"program":21,"isDrum":false},{"pitch":57,"velocity":65,"startTime":59.45095814583334,"endTime":59.543349250000006,"instrument":7,"program":21,"isDrum":false},{"pitch":62,"velocity":99,"startTime":59.94552229166666,"endTime":60.03247862500001,"instrument":7,"program":21,"isDrum":false},{"pitch":57,"velocity":75,"startTime":59.95095706250001,"endTime":60.03247862500001,"instrument":7,"program":21,"isDrum":false},{"pitch":60,"velocity":84,"startTime":60.71725975000001,"endTime":61.16291095833334,"instrument":7,"program":21,"isDrum":false},{"pitch":58,"velocity":75,"startTime":61.190084812500004,"endTime":61.32595408333334,"instrument":7,"program":21,"isDrum":false},{"pitch":57,"velocity":65,"startTime":61.33138885416666,"endTime":61.46182335416667,"instrument":7,"program":21,"isDrum":false},{"pitch":55,"velocity":65,"startTime":61.467258125,"endTime":62.010735208333344,"instrument":7,"program":21,"isDrum":false},{"pitch":54,"velocity":84,"startTime":62.016169979166676,"endTime":62.53247320833334,"instrument":7,"program":21,"isDrum":false},{"pitch":55,"velocity":99,"startTime":62.54877752083334,"endTime":62.66290770833335,"instrument":7,"program":21,"isDrum":false},{"pitch":67,"velocity":75,"startTime":63.39116700000001,"endTime":63.461819020833346,"instrument":7,"program":21,"isDrum":false},{"pitch":75,"velocity":110,"startTime":63.39116700000001,"endTime":63.45638425000001,"instrument":7,"program":21,"isDrum":false},{"pitch":65,"velocity":55,"startTime":63.65203600000001,"endTime":63.72812279166668,"instrument":7,"program":21,"isDrum":false},{"pitch":74,"velocity":99,"startTime":63.65203600000001,"endTime":63.72812279166668,"instrument":7,"program":21,"isDrum":false},{"pitch":63,"velocity":110,"startTime":63.91290500000001,"endTime":63.972687479166666,"instrument":7,"program":21,"isDrum":false},{"pitch":72,"velocity":75,"startTime":63.91290500000001,"endTime":63.972687479166666,"instrument":7,"program":21,"isDrum":false},{"pitch":62,"velocity":75,"startTime":64.17377400000001,"endTime":64.23899125000001,"instrument":7,"program":21,"isDrum":false},{"pitch":70,"velocity":110,"startTime":64.17377400000001,"endTime":64.22812170833335,"instrument":7,"program":21,"isDrum":false},{"pitch":60,"velocity":67,"startTime":64.43464300000001,"endTime":64.49442547916667,"instrument":7,"program":21,"isDrum":false},{"pitch":69,"velocity":75,"startTime":64.43464300000001,"endTime":64.50529502083334,"instrument":7,"program":21,"isDrum":false},{"pitch":58,"velocity":84,"startTime":64.69551200000001,"endTime":64.76616402083333,"instrument":7,"program":21,"isDrum":false},{"pitch":67,"velocity":67,"startTime":64.69551200000001,"endTime":64.76072925000001,"instrument":7,"program":21,"isDrum":false},{"pitch":62,"velocity":84,"startTime":64.95638100000001,"endTime":65.68464029166668,"instrument":7,"program":21,"isDrum":false},{"pitch":60,"velocity":67,"startTime":65.21725,"endTime":65.68464029166668,"instrument":7,"program":21,"isDrum":false},{"pitch":66,"velocity":99,"startTime":65.21725,"endTime":65.69550983333333,"instrument":7,"program":21,"isDrum":false},{"pitch":62,"velocity":84,"startTime":65.71181414583333,"endTime":65.84224864583334,"instrument":7,"program":21,"isDrum":false},{"pitch":67,"velocity":67,"startTime":65.71181414583333,"endTime":65.8531181875,"instrument":7,"program":21,"isDrum":false},{"pitch":58,"velocity":110,"startTime":65.72268368750001,"endTime":65.8531181875,"instrument":7,"program":21,"isDrum":false},{"pitch":55,"velocity":84,"startTime":66.782464,"endTime":67.03789822916669,"instrument":7,"program":21,"isDrum":false},{"pitch":57,"velocity":75,"startTime":67.043333,"endTime":67.26072383333333,"instrument":7,"program":21,"isDrum":false},{"pitch":58,"velocity":67,"startTime":67.27702814583334,"endTime":68.0705046875,"instrument":7,"program":21,"isDrum":false},{"pitch":55,"velocity":75,"startTime":68.08137422916668,"endTime":68.33680845833334,"instrument":7,"program":21,"isDrum":false},{"pitch":57,"velocity":84,"startTime":68.347678,"endTime":68.575938375,"instrument":7,"program":21,"isDrum":false},{"pitch":58,"velocity":75,"startTime":68.5922426875,"endTime":68.84767691666669,"instrument":7,"program":21,"isDrum":false},{"pitch":57,"velocity":99,"startTime":68.88028554166668,"endTime":69.35311060416667,"instrument":7,"program":21,"isDrum":false},{"pitch":55,"velocity":84,"startTime":69.36398014583334,"endTime":69.42919739583334,"instrument":7,"program":21,"isDrum":false},{"pitch":74,"velocity":99,"startTime":69.6357186875,"endTime":69.71180547916669,"instrument":7,"program":21,"isDrum":false},{"pitch":70,"velocity":110,"startTime":69.90202245833333,"endTime":69.96723970833334,"instrument":7,"program":21,"isDrum":false},{"pitch":67,"velocity":84,"startTime":70.14658714583334,"endTime":70.22810870833334,"instrument":7,"program":21,"isDrum":false},{"pitch":74,"velocity":99,"startTime":70.39658660416669,"endTime":70.47267339583334,"instrument":7,"program":21,"isDrum":false},{"pitch":72,"velocity":75,"startTime":70.54332541666668,"endTime":70.6465860625,"instrument":7,"program":21,"isDrum":false},{"pitch":70,"velocity":110,"startTime":70.64115129166667,"endTime":70.76615102083333,"instrument":7,"program":21,"isDrum":false},{"pitch":69,"velocity":75,"startTime":70.78789010416668,"endTime":70.87484643750001,"instrument":7,"program":21,"isDrum":false},{"pitch":67,"velocity":84,"startTime":70.9074550625,"endTime":70.98354185416667,"instrument":7,"program":21,"isDrum":false},{"pitch":67,"velocity":84,"startTime":71.20636745833333,"endTime":71.25528039583334,"instrument":7,"program":21,"isDrum":false},{"pitch":67,"velocity":75,"startTime":71.28245425000001,"endTime":71.35310627083334,"instrument":7,"program":21,"isDrum":false},{"pitch":67,"velocity":75,"startTime":71.39114966666668,"endTime":71.45093214583333,"instrument":7,"program":21,"isDrum":false},{"pitch":65,"velocity":75,"startTime":71.65201866666668,"endTime":71.72267068750001,"instrument":7,"program":21,"isDrum":false},{"pitch":65,"velocity":99,"startTime":71.91832243750001,"endTime":71.98897445833333,"instrument":7,"program":21,"isDrum":false},{"pitch":63,"velocity":110,"startTime":72.15745235416668,"endTime":72.21723483333334,"instrument":7,"program":21,"isDrum":false},{"pitch":63,"velocity":110,"startTime":72.41832135416668,"endTime":72.48897337500001,"instrument":7,"program":21,"isDrum":false},{"pitch":62,"velocity":110,"startTime":72.66288604166668,"endTime":72.73897283333334,"instrument":7,"program":21,"isDrum":false},{"pitch":62,"velocity":84,"startTime":72.93462458333333,"endTime":73.69005772916668,"instrument":7,"program":21,"isDrum":false},{"pitch":63,"velocity":99,"startTime":73.6791881875,"endTime":73.79875314583333,"instrument":7,"program":21,"isDrum":false},{"pitch":62,"velocity":75,"startTime":73.80962268750001,"endTime":73.93462241666668,"instrument":7,"program":21,"isDrum":false},{"pitch":61,"velocity":110,"startTime":73.94549195833333,"endTime":74.04875260416668,"instrument":7,"program":21,"isDrum":false},{"pitch":60,"velocity":67,"startTime":74.08136122916667,"endTime":74.65201216666668,"instrument":7,"program":21,"isDrum":false},{"pitch":69,"velocity":110,"startTime":75.41288008333333,"endTime":75.488966875,"instrument":7,"program":21,"isDrum":false},{"pitch":69,"velocity":110,"startTime":75.52701027083334,"endTime":75.58135797916668,"instrument":7,"program":21,"isDrum":false},{"pitch":69,"velocity":84,"startTime":75.60853183333333,"endTime":75.67918385416668,"instrument":7,"program":21,"isDrum":false},{"pitch":67,"velocity":84,"startTime":75.89113991666667,"endTime":75.97266147916667,"instrument":7,"program":21,"isDrum":false},{"pitch":67,"velocity":99,"startTime":76.16287845833334,"endTime":76.23353047916667,"instrument":7,"program":21,"isDrum":false},{"pitch":66,"velocity":110,"startTime":76.40744314583334,"endTime":76.47266039583334,"instrument":7,"program":21,"isDrum":false},{"pitch":66,"velocity":110,"startTime":76.66831214583334,"endTime":76.72809462500001,"instrument":7,"program":21,"isDrum":false},{"pitch":63,"velocity":110,"startTime":77.50526685416668,"endTime":77.55417979166668,"instrument":7,"program":21,"isDrum":false},{"pitch":63,"velocity":110,"startTime":77.60852750000001,"endTime":77.66830997916668,"instrument":7,"program":21,"isDrum":false},{"pitch":63,"velocity":110,"startTime":77.71722291666669,"endTime":77.76613585416668,"instrument":7,"program":21,"isDrum":false},{"pitch":62,"velocity":110,"startTime":77.97809191666668,"endTime":78.04330916666667,"instrument":7,"program":21,"isDrum":false},{"pitch":62,"velocity":84,"startTime":78.25526522916668,"endTime":79.51069729166667,"instrument":7,"program":21,"isDrum":false},{"pitch":60,"velocity":84,"startTime":79.53787114583334,"endTime":79.78243583333334,"instrument":7,"program":21,"isDrum":false},{"pitch":72,"velocity":67,"startTime":79.7770010625,"endTime":79.858522625,"instrument":7,"program":21,"isDrum":false},{"pitch":60,"velocity":99,"startTime":80.59221668750001,"endTime":80.67917302083333,"instrument":7,"program":21,"isDrum":false},{"pitch":58,"velocity":110,"startTime":80.85308568750001,"endTime":80.92373770833333,"instrument":7,"program":21,"isDrum":false},{"pitch":57,"velocity":99,"startTime":81.10308514583333,"endTime":81.17373716666668,"instrument":7,"program":21,"isDrum":false},{"pitch":55,"velocity":99,"startTime":81.37482368750001,"endTime":81.45091047916668,"instrument":7,"program":21,"isDrum":false},{"pitch":54,"velocity":110,"startTime":81.49982341666669,"endTime":81.58134497916669,"instrument":7,"program":21,"isDrum":false},{"pitch":55,"velocity":84,"startTime":81.61938837500001,"endTime":81.70634470833333,"instrument":7,"program":21,"isDrum":false},{"pitch":57,"velocity":110,"startTime":81.749822875,"endTime":81.83134443750001,"instrument":7,"program":21,"isDrum":false},{"pitch":58,"velocity":110,"startTime":81.88025737500001,"endTime":81.96177893750001,"instrument":7,"program":21,"isDrum":false},{"pitch":57,"velocity":84,"startTime":81.99982233333334,"endTime":82.07047435416668,"instrument":7,"program":21,"isDrum":false},{"pitch":58,"velocity":110,"startTime":82.11395252083334,"endTime":82.20090885416668,"instrument":7,"program":21,"isDrum":false},{"pitch":60,"velocity":67,"startTime":82.24982179166668,"endTime":82.33677812500001,"instrument":7,"program":21,"isDrum":false},{"pitch":62,"velocity":67,"startTime":82.38025629166668,"endTime":82.49438647916668,"instrument":7,"program":21,"isDrum":false},{"pitch":61,"velocity":110,"startTime":82.52156033333334,"endTime":82.59221235416668,"instrument":7,"program":21,"isDrum":false},{"pitch":62,"velocity":67,"startTime":82.64656006250001,"endTime":82.76612502083334,"instrument":7,"program":21,"isDrum":false},{"pitch":63,"velocity":110,"startTime":82.76069025000001,"endTime":82.84221181250001,"instrument":7,"program":21,"isDrum":false},{"pitch":62,"velocity":75,"startTime":82.90199429166668,"endTime":83.03786356250001,"instrument":7,"program":21,"isDrum":false},{"pitch":60,"velocity":99,"startTime":83.02155925000001,"endTime":83.14112420833334,"instrument":7,"program":21,"isDrum":false},{"pitch":58,"velocity":110,"startTime":83.14112420833334,"endTime":83.26612393750001,"instrument":7,"program":21,"isDrum":false},{"pitch":57,"velocity":67,"startTime":83.27699347916668,"endTime":83.41286275,"instrument":7,"program":21,"isDrum":false},{"pitch":55,"velocity":84,"startTime":83.44547137500001,"endTime":83.71720991666668,"instrument":7,"program":21,"isDrum":false},{"pitch":57,"velocity":67,"startTime":83.73351422916669,"endTime":83.93460075000002,"instrument":7,"program":21,"isDrum":false},{"pitch":58,"velocity":67,"startTime":83.95090506250001,"endTime":84.73351206250001,"instrument":7,"program":21,"isDrum":false},{"pitch":55,"velocity":110,"startTime":84.76068591666669,"endTime":84.9617724375,"instrument":7,"program":21,"isDrum":false},{"pitch":57,"velocity":99,"startTime":84.99981583333334,"endTime":85.18459804166667,"instrument":7,"program":21,"isDrum":false},{"pitch":58,"velocity":110,"startTime":85.21177189583334,"endTime":85.44546704166667,"instrument":7,"program":21,"isDrum":false},{"pitch":57,"velocity":99,"startTime":85.48894520833333,"endTime":85.97807458333334,"instrument":7,"program":21,"isDrum":false},{"pitch":55,"velocity":84,"startTime":86.01611797916668,"endTime":86.09220477083333,"instrument":7,"program":21,"isDrum":false},{"pitch":74,"velocity":75,"startTime":86.30959560416667,"endTime":86.38568239583334,"instrument":7,"program":21,"isDrum":false},{"pitch":70,"velocity":110,"startTime":86.55959506250001,"endTime":86.63024708333334,"instrument":7,"program":21,"isDrum":false},{"pitch":67,"velocity":84,"startTime":86.81502929166668,"endTime":86.88568131250001,"instrument":7,"program":21,"isDrum":false},{"pitch":74,"velocity":84,"startTime":87.09220260416669,"endTime":87.16828939583334,"instrument":7,"program":21,"isDrum":false},{"pitch":72,"velocity":84,"startTime":87.23350664583334,"endTime":87.36394114583334,"instrument":7,"program":21,"isDrum":false},{"pitch":70,"velocity":110,"startTime":87.33676729166667,"endTime":87.45089747916668,"instrument":7,"program":21,"isDrum":false},{"pitch":69,"velocity":67,"startTime":87.47807133333333,"endTime":87.57589720833334,"instrument":7,"program":21,"isDrum":false},{"pitch":67,"velocity":99,"startTime":87.59763629166667,"endTime":87.67915785416668,"instrument":7,"program":21,"isDrum":false},{"pitch":67,"velocity":99,"startTime":87.880244375,"endTime":87.94002685416667,"instrument":7,"program":21,"isDrum":false},{"pitch":67,"velocity":84,"startTime":87.98350502083333,"endTime":88.05415704166668,"instrument":7,"program":21,"isDrum":false},{"pitch":67,"velocity":67,"startTime":88.08133089583333,"endTime":88.15198291666668,"instrument":7,"program":21,"isDrum":false},{"pitch":65,"velocity":84,"startTime":88.34219989583333,"endTime":88.41285191666668,"instrument":7,"program":21,"isDrum":false},{"pitch":65,"velocity":84,"startTime":88.62480797916668,"endTime":88.69002522916668,"instrument":7,"program":21,"isDrum":false},{"pitch":63,"velocity":110,"startTime":88.85850312500001,"endTime":88.92372037500002,"instrument":7,"program":21,"isDrum":false},{"pitch":63,"velocity":110,"startTime":89.11393735416668,"endTime":89.17915460416668,"instrument":7,"program":21,"isDrum":false},{"pitch":62,"velocity":84,"startTime":89.38567589583334,"endTime":89.46176268750001,"instrument":7,"program":21,"isDrum":false},{"pitch":60,"velocity":110,"startTime":89.73350122916668,"endTime":89.80958802083333,"instrument":7,"program":21,"isDrum":false},{"pitch":59,"velocity":75,"startTime":89.85850095833334,"endTime":89.93458775,"instrument":7,"program":21,"isDrum":false},{"pitch":60,"velocity":75,"startTime":89.98350068750001,"endTime":90.05958747916668,"instrument":7,"program":21,"isDrum":false},{"pitch":62,"velocity":99,"startTime":90.09763087500001,"endTime":90.19002197916669,"instrument":7,"program":21,"isDrum":false},{"pitch":63,"velocity":110,"startTime":90.23893491666668,"endTime":90.30958693750001,"instrument":7,"program":21,"isDrum":false},{"pitch":62,"velocity":84,"startTime":90.34219556250001,"endTime":90.41828235416668,"instrument":7,"program":21,"isDrum":false},{"pitch":63,"velocity":110,"startTime":90.46719529166668,"endTime":90.54871685416668,"instrument":7,"program":21,"isDrum":false},{"pitch":65,"velocity":53,"startTime":90.60306456250001,"endTime":90.67371658333334,"instrument":7,"program":21,"isDrum":false},{"pitch":67,"velocity":75,"startTime":90.73349906250002,"endTime":90.83132493750001,"instrument":7,"program":21,"isDrum":false},{"pitch":66,"velocity":110,"startTime":90.85306402083334,"endTime":90.92915081250001,"instrument":7,"program":21,"isDrum":false},{"pitch":67,"velocity":53,"startTime":90.98893329166668,"endTime":91.09762870833333,"instrument":7,"program":21,"isDrum":false},{"pitch":68,"velocity":99,"startTime":91.09219393750001,"endTime":91.17915027083333,"instrument":7,"program":21,"isDrum":false},{"pitch":67,"velocity":67,"startTime":91.23349797916669,"endTime":91.35849770833333,"instrument":7,"program":21,"isDrum":false},{"pitch":65,"velocity":99,"startTime":91.35849770833333,"endTime":91.47806266666669,"instrument":7,"program":21,"isDrum":false},{"pitch":63,"velocity":99,"startTime":91.47806266666669,"endTime":91.61393193750001,"instrument":7,"program":21,"isDrum":false},{"pitch":62,"velocity":65,"startTime":91.61393193750001,"endTime":91.72262735416668,"instrument":7,"program":21,"isDrum":false},{"pitch":60,"velocity":99,"startTime":91.78784460416668,"endTime":92.0052354375,"instrument":7,"program":21,"isDrum":false},{"pitch":60,"velocity":75,"startTime":92.04327883333333,"endTime":92.13023516666668,"instrument":7,"program":21,"isDrum":false},{"pitch":63,"velocity":99,"startTime":92.04327883333333,"endTime":92.12480039583333,"instrument":7,"program":21,"isDrum":false},{"pitch":67,"velocity":67,"startTime":92.55958206250001,"endTime":92.97262464583333,"instrument":7,"program":21,"isDrum":false},{"pitch":60,"velocity":75,"startTime":92.57045160416668,"endTime":92.95632033333334,"instrument":7,"program":21,"isDrum":false},{"pitch":66,"velocity":84,"startTime":93.04327666666669,"endTime":93.23349364583333,"instrument":7,"program":21,"isDrum":false},{"pitch":60,"velocity":75,"startTime":93.0487114375,"endTime":93.19001547916668,"instrument":7,"program":21,"isDrum":false},{"pitch":67,"velocity":67,"startTime":93.33675429166668,"endTime":93.45631925,"instrument":7,"program":21,"isDrum":false},{"pitch":60,"velocity":67,"startTime":93.34218906250001,"endTime":93.44544970833334,"instrument":7,"program":21,"isDrum":false},{"pitch":58,"velocity":84,"startTime":93.85849229166668,"endTime":94.0595788125,"instrument":7,"program":21,"isDrum":false},{"pitch":58,"velocity":15,"startTime":94.13023083333334,"endTime":94.23349147916669,"instrument":7,"program":21,"isDrum":false},{"pitch":62,"velocity":99,"startTime":94.15196991666669,"endTime":94.23892625,"instrument":7,"program":21,"isDrum":false},{"pitch":67,"velocity":75,"startTime":94.66827314583334,"endTime":95.09762004166669,"instrument":7,"program":21,"isDrum":false},{"pitch":58,"velocity":84,"startTime":94.67370791666669,"endTime":95.01609847916669,"instrument":7,"program":21,"isDrum":false},{"pitch":66,"velocity":99,"startTime":95.14653297916668,"endTime":95.445445375,"instrument":7,"program":21,"isDrum":false},{"pitch":58,"velocity":84,"startTime":95.15740252083334,"endTime":95.27696747916669,"instrument":7,"program":21,"isDrum":false},{"pitch":58,"velocity":53,"startTime":95.445445375,"endTime":95.54870602083334,"instrument":7,"program":21,"isDrum":false},{"pitch":67,"velocity":84,"startTime":95.4617496875,"endTime":95.57044510416668,"instrument":7,"program":21,"isDrum":false},{"pitch":62,"velocity":84,"startTime":96.24435668750002,"endTime":96.51609522916668,"instrument":7,"program":21,"isDrum":false},{"pitch":69,"velocity":84,"startTime":96.52153000000001,"endTime":96.78239900000001,"instrument":7,"program":21,"isDrum":false},{"pitch":66,"velocity":75,"startTime":96.76609468750001,"endTime":97.03239845833333,"instrument":7,"program":21,"isDrum":false},{"pitch":62,"velocity":55,"startTime":97.03783322916668,"endTime":97.32044131250001,"instrument":7,"program":21,"isDrum":false},{"pitch":60,"velocity":60,"startTime":97.32587608333334,"endTime":97.74978820833334,"instrument":7,"program":21,"isDrum":false},{"pitch":54,"velocity":99,"startTime":97.76609252083334,"endTime":98.04326583333334,"instrument":7,"program":21,"isDrum":false},{"pitch":55,"velocity":84,"startTime":98.05413537500002,"endTime":98.13565693750002,"instrument":7,"program":21,"isDrum":false},{"pitch":62,"velocity":99,"startTime":98.33130868750001,"endTime":99.01065504166668,"instrument":7,"program":21,"isDrum":false},{"pitch":60,"velocity":75,"startTime":98.60848200000001,"endTime":98.901959625,"instrument":7,"program":21,"isDrum":false},{"pitch":66,"velocity":99,"startTime":98.61935154166669,"endTime":99.03782889583334,"instrument":7,"program":21,"isDrum":false},{"pitch":67,"velocity":60,"startTime":99.07587229166668,"endTime":99.228045875,"instrument":7,"program":21,"isDrum":false},{"pitch":62,"velocity":75,"startTime":99.08130706250002,"endTime":99.21717633333334,"instrument":7,"program":21,"isDrum":false},{"pitch":58,"velocity":99,"startTime":99.09217660416668,"endTime":99.21174156250001,"instrument":7,"program":21,"isDrum":false},{"pitch":62,"velocity":110,"startTime":100.19543508333334,"endTime":100.26065233333334,"instrument":7,"program":21,"isDrum":false},{"pitch":62,"velocity":99,"startTime":100.29869572916668,"endTime":100.37478252083334,"instrument":7,"program":21,"isDrum":false},{"pitch":62,"velocity":99,"startTime":100.43999977083334,"endTime":100.51065179166669,"instrument":7,"program":21,"isDrum":false},{"pitch":62,"velocity":99,"startTime":100.55412995833333,"endTime":100.65739060416668,"instrument":7,"program":21,"isDrum":false},{"pitch":72,"velocity":99,"startTime":100.68456445833334,"endTime":100.77152079166669,"instrument":7,"program":21,"isDrum":false},{"pitch":62,"velocity":84,"startTime":100.81499895833333,"endTime":100.90195529166668,"instrument":7,"program":21,"isDrum":false},{"pitch":62,"velocity":99,"startTime":100.92369437500001,"endTime":101.00521593750001,"instrument":7,"program":21,"isDrum":false},{"pitch":62,"velocity":99,"startTime":101.04869410416669,"endTime":101.15738952083333,"instrument":7,"program":21,"isDrum":false},{"pitch":69,"velocity":110,"startTime":101.18456337500001,"endTime":101.28238925000001,"instrument":7,"program":21,"isDrum":false},{"pitch":62,"velocity":99,"startTime":101.30956310416668,"endTime":101.380215125,"instrument":7,"program":21,"isDrum":false},{"pitch":62,"velocity":99,"startTime":101.43999760416668,"endTime":101.51608439583335,"instrument":7,"program":21,"isDrum":false},{"pitch":62,"velocity":84,"startTime":101.5595625625,"endTime":101.6573884375,"instrument":7,"program":21,"isDrum":false},{"pitch":66,"velocity":110,"startTime":101.71173614583334,"endTime":101.80956202083334,"instrument":7,"program":21,"isDrum":false},{"pitch":62,"velocity":99,"startTime":101.82586633333334,"endTime":101.901953125,"instrument":7,"program":21,"isDrum":false},{"pitch":62,"velocity":110,"startTime":101.95630083333334,"endTime":102.04869193750001,"instrument":7,"program":21,"isDrum":false},{"pitch":62,"velocity":75,"startTime":102.08673533333334,"endTime":102.17912643750002,"instrument":7,"program":21,"isDrum":false},{"pitch":62,"velocity":110,"startTime":102.22803937500001,"endTime":102.32043047916669,"instrument":7,"program":21,"isDrum":false},{"pitch":62,"velocity":75,"startTime":102.35303910416668,"endTime":102.44543020833333,"instrument":7,"program":21,"isDrum":false},{"pitch":62,"velocity":99,"startTime":102.48347360416668,"endTime":102.57586470833334,"instrument":7,"program":21,"isDrum":false},{"pitch":62,"velocity":75,"startTime":102.60847333333334,"endTime":102.69542966666668,"instrument":7,"program":21,"isDrum":false},{"pitch":62,"velocity":110,"startTime":102.74434260416668,"endTime":102.83673370833334,"instrument":7,"program":21,"isDrum":false},{"pitch":62,"velocity":75,"startTime":102.86934233333334,"endTime":102.95629866666668,"instrument":7,"program":21,"isDrum":false},{"pitch":62,"velocity":110,"startTime":103.00521160416667,"endTime":103.09760270833334,"instrument":7,"program":21,"isDrum":false},{"pitch":62,"velocity":84,"startTime":103.14108087500001,"endTime":103.23347197916668,"instrument":7,"program":21,"isDrum":false},{"pitch":63,"velocity":110,"startTime":103.27695014583334,"endTime":103.36390647916669,"instrument":7,"program":21,"isDrum":false},{"pitch":62,"velocity":84,"startTime":103.39651510416668,"endTime":103.47803666666668,"instrument":7,"program":21,"isDrum":false},{"pitch":61,"velocity":110,"startTime":103.52694960416669,"endTime":103.60303639583334,"instrument":7,"program":21,"isDrum":false},{"pitch":62,"velocity":84,"startTime":103.64651456250002,"endTime":103.74434043750001,"instrument":7,"program":21,"isDrum":false},{"pitch":63,"velocity":110,"startTime":103.78781860416669,"endTime":103.8747749375,"instrument":7,"program":21,"isDrum":false},{"pitch":62,"velocity":99,"startTime":103.91825310416668,"endTime":103.99433989583333,"instrument":7,"program":21,"isDrum":false},{"pitch":61,"velocity":110,"startTime":104.04325283333334,"endTime":104.12477439583334,"instrument":7,"program":21,"isDrum":false},{"pitch":62,"velocity":99,"startTime":104.16825256250002,"endTime":104.25520889583333,"instrument":7,"program":21,"isDrum":false},{"pitch":62,"velocity":110,"startTime":104.314991375,"endTime":104.41281725000002,"instrument":7,"program":21,"isDrum":false},{"pitch":62,"velocity":84,"startTime":104.43999110416668,"endTime":104.52694743750001,"instrument":7,"program":21,"isDrum":false},{"pitch":62,"velocity":99,"startTime":104.575860375,"endTime":104.65194716666669,"instrument":7,"program":21,"isDrum":false},{"pitch":62,"velocity":75,"startTime":104.70629487500001,"endTime":104.82042506250001,"instrument":7,"program":21,"isDrum":false},{"pitch":74,"velocity":110,"startTime":104.85303368750002,"endTime":104.94542479166668,"instrument":7,"program":21,"isDrum":false},{"pitch":62,"velocity":110,"startTime":104.97259864583334,"endTime":105.06498975000001,"instrument":7,"program":21,"isDrum":false},{"pitch":62,"velocity":99,"startTime":105.097598375,"endTime":105.1791199375,"instrument":7,"program":21,"isDrum":false},{"pitch":62,"velocity":99,"startTime":105.22803287500001,"endTime":105.32585875000001,"instrument":7,"program":21,"isDrum":false},{"pitch":70,"velocity":110,"startTime":105.36390214583334,"endTime":105.45629325000002,"instrument":7,"program":21,"isDrum":false},{"pitch":62,"velocity":99,"startTime":105.48346710416668,"endTime":105.56498866666668,"instrument":7,"program":21,"isDrum":false},{"pitch":62,"velocity":99,"startTime":105.61390160416668,"endTime":105.68998839583334,"instrument":7,"program":21,"isDrum":false},{"pitch":62,"velocity":84,"startTime":105.73346656250001,"endTime":105.83672720833334,"instrument":7,"program":21,"isDrum":false},{"pitch":67,"velocity":110,"startTime":105.87477060416668,"endTime":105.97803125000002,"instrument":7,"program":21,"isDrum":false},{"pitch":62,"velocity":99,"startTime":106.01607464583334,"endTime":106.09759620833334,"instrument":7,"program":21,"isDrum":false},{"pitch":62,"velocity":99,"startTime":106.14650914583333,"endTime":106.23890025000001,"instrument":7,"program":21,"isDrum":false},{"pitch":62,"velocity":75,"startTime":106.26607410416668,"endTime":106.35846520833334,"instrument":7,"program":21,"isDrum":false},{"pitch":62,"velocity":99,"startTime":106.40194337500002,"endTime":106.49976925000001,"instrument":7,"program":21,"isDrum":false},{"pitch":62,"velocity":84,"startTime":106.53237787500001,"endTime":106.61933420833334,"instrument":7,"program":21,"isDrum":false},{"pitch":62,"velocity":99,"startTime":106.66824714583333,"endTime":106.76063825000001,"instrument":7,"program":21,"isDrum":false},{"pitch":62,"velocity":84,"startTime":106.79868164583334,"endTime":106.88563797916669,"instrument":7,"program":21,"isDrum":false},{"pitch":62,"velocity":99,"startTime":106.93455091666668,"endTime":107.03237679166668,"instrument":7,"program":21,"isDrum":false},{"pitch":62,"velocity":75,"startTime":107.05955064583334,"endTime":107.14650697916669,"instrument":7,"program":21,"isDrum":false},{"pitch":62,"velocity":110,"startTime":107.18998514583333,"endTime":107.27694147916668,"instrument":7,"program":21,"isDrum":false},{"pitch":62,"velocity":84,"startTime":107.32041964583334,"endTime":107.41281075,"instrument":7,"program":21,"isDrum":false},{"pitch":63,"velocity":110,"startTime":107.45085414583333,"endTime":107.53781047916668,"instrument":7,"program":21,"isDrum":false},{"pitch":62,"velocity":99,"startTime":107.58128864583334,"endTime":107.65737543750001,"instrument":7,"program":21,"isDrum":false},{"pitch":61,"velocity":110,"startTime":107.70085360416668,"endTime":107.78780993750001,"instrument":7,"program":21,"isDrum":false},{"pitch":62,"velocity":99,"startTime":107.82041856250001,"endTime":107.91280966666669,"instrument":7,"program":21,"isDrum":false},{"pitch":63,"velocity":110,"startTime":107.95628783333333,"endTime":108.05411370833333,"instrument":7,"program":21,"isDrum":false},{"pitch":62,"velocity":99,"startTime":108.097591875,"endTime":108.17367866666669,"instrument":7,"program":21,"isDrum":false},{"pitch":61,"velocity":110,"startTime":108.22259160416668,"endTime":108.30954793750001,"instrument":7,"program":21,"isDrum":false},{"pitch":62,"velocity":84,"startTime":108.34759133333334,"endTime":108.4399824375,"instrument":7,"program":21,"isDrum":false},{"pitch":62,"velocity":110,"startTime":108.50519968750001,"endTime":108.60302556250001,"instrument":7,"program":21,"isDrum":false},{"pitch":62,"velocity":75,"startTime":108.63019941666668,"endTime":108.71715575000002,"instrument":7,"program":21,"isDrum":false},{"pitch":62,"velocity":99,"startTime":108.77150345833334,"endTime":108.85302502083334,"instrument":7,"program":21,"isDrum":false},{"pitch":62,"velocity":84,"startTime":108.89650318750002,"endTime":109.00519860416668,"instrument":7,"program":21,"isDrum":false},{"pitch":72,"velocity":99,"startTime":109.03780722916669,"endTime":109.12476356250001,"instrument":7,"program":21,"isDrum":false},{"pitch":62,"velocity":110,"startTime":109.15193741666668,"endTime":109.23345897916668,"instrument":7,"program":21,"isDrum":false},{"pitch":62,"velocity":99,"startTime":109.27150237500001,"endTime":109.35302393750001,"instrument":7,"program":21,"isDrum":false},{"pitch":62,"velocity":84,"startTime":109.401936875,"endTime":109.51606706250001,"instrument":7,"program":21,"isDrum":false},{"pitch":69,"velocity":110,"startTime":109.54324091666668,"endTime":109.64106679166669,"instrument":7,"program":21,"isDrum":false},{"pitch":62,"velocity":99,"startTime":109.66824064583334,"endTime":109.74976220833334,"instrument":7,"program":21,"isDrum":false},{"pitch":62,"velocity":99,"startTime":109.79867514583334,"endTime":109.88019670833334,"instrument":7,"program":21,"isDrum":false},{"pitch":62,"velocity":84,"startTime":109.91280533333334,"endTime":110.01063120833334,"instrument":7,"program":21,"isDrum":false},{"pitch":66,"velocity":110,"startTime":110.05410937500001,"endTime":110.14650047916668,"instrument":7,"program":21,"isDrum":false},{"pitch":62,"velocity":99,"startTime":110.18997864583334,"endTime":110.26606543750002,"instrument":7,"program":21,"isDrum":false},{"pitch":62,"velocity":99,"startTime":110.32041314583334,"endTime":110.41280425000001,"instrument":7,"program":21,"isDrum":false},{"pitch":62,"velocity":75,"startTime":110.43997810416668,"endTime":110.53236920833334,"instrument":7,"program":21,"isDrum":false},{"pitch":62,"velocity":110,"startTime":110.58671691666669,"endTime":110.68454279166669,"instrument":7,"program":21,"isDrum":false},{"pitch":62,"velocity":84,"startTime":110.71171664583333,"endTime":110.80410775000001,"instrument":7,"program":21,"isDrum":false},{"pitch":62,"velocity":99,"startTime":110.84758591666669,"endTime":110.93997702083334,"instrument":7,"program":21,"isDrum":false},{"pitch":62,"velocity":84,"startTime":110.97258564583333,"endTime":111.06497675000001,"instrument":7,"program":21,"isDrum":false},{"pitch":62,"velocity":99,"startTime":111.10845491666669,"endTime":111.19541125,"instrument":7,"program":21,"isDrum":false},{"pitch":62,"velocity":75,"startTime":111.23888941666668,"endTime":111.33128052083335,"instrument":7,"program":21,"isDrum":false},{"pitch":62,"velocity":84,"startTime":111.36388914583334,"endTime":111.45084547916669,"instrument":7,"program":21,"isDrum":false},{"pitch":62,"velocity":99,"startTime":111.48888887500001,"endTime":111.58671475000001,"instrument":7,"program":21,"isDrum":false},{"pitch":63,"velocity":110,"startTime":111.62475814583334,"endTime":111.71171447916669,"instrument":7,"program":21,"isDrum":false},{"pitch":62,"velocity":84,"startTime":111.74432310416668,"endTime":111.82584466666668,"instrument":7,"program":21,"isDrum":false},{"pitch":61,"velocity":110,"startTime":111.87475760416669,"endTime":111.96714870833334,"instrument":7,"program":21,"isDrum":false},{"pitch":62,"velocity":84,"startTime":111.99432256250002,"endTime":112.09214843750001,"instrument":7,"program":21,"isDrum":false},{"pitch":63,"velocity":110,"startTime":112.14649614583334,"endTime":112.23888725,"instrument":7,"program":21,"isDrum":false},{"pitch":62,"velocity":84,"startTime":112.27693064583335,"endTime":112.34758266666668,"instrument":7,"program":21,"isDrum":false},{"pitch":61,"velocity":110,"startTime":112.401930375,"endTime":112.48888670833334,"instrument":7,"program":21,"isDrum":false},{"pitch":62,"velocity":84,"startTime":112.52693010416668,"endTime":112.60845166666668,"instrument":7,"program":21,"isDrum":false},{"pitch":62,"velocity":110,"startTime":112.67366891666668,"endTime":112.76606002083334,"instrument":7,"program":21,"isDrum":false},{"pitch":62,"velocity":67,"startTime":112.79866864583335,"endTime":112.89105975000001,"instrument":7,"program":21,"isDrum":false},{"pitch":62,"velocity":84,"startTime":112.93997268750002,"endTime":113.02692902083334,"instrument":7,"program":21,"isDrum":false},{"pitch":62,"velocity":75,"startTime":113.07040718750001,"endTime":113.17910260416669,"instrument":7,"program":21,"isDrum":false},{"pitch":74,"velocity":110,"startTime":113.21171122916668,"endTime":113.28779802083334,"instrument":7,"program":21,"isDrum":false},{"pitch":62,"velocity":99,"startTime":113.33127618750001,"endTime":113.42910206250001,"instrument":7,"program":21,"isDrum":false},{"pitch":62,"velocity":99,"startTime":113.445406375,"endTime":113.53779747916668,"instrument":7,"program":21,"isDrum":false},{"pitch":62,"velocity":99,"startTime":113.57584087500001,"endTime":113.67910152083334,"instrument":7,"program":21,"isDrum":false},{"pitch":70,"velocity":110,"startTime":113.71714491666668,"endTime":113.79866647916668,"instrument":7,"program":21,"isDrum":false},{"pitch":62,"velocity":99,"startTime":113.83670987500001,"endTime":113.90736189583333,"instrument":7,"program":21,"isDrum":false},{"pitch":62,"velocity":84,"startTime":113.95627483333334,"endTime":114.03779639583334,"instrument":7,"program":21,"isDrum":false},{"pitch":62,"velocity":84,"startTime":114.07583979166668,"endTime":114.18453520833334,"instrument":7,"program":21,"isDrum":false},{"pitch":67,"velocity":110,"startTime":114.2117090625,"endTime":114.30410016666669,"instrument":7,"program":21,"isDrum":false},{"pitch":62,"velocity":110,"startTime":114.35301310416668,"endTime":114.42909989583335,"instrument":7,"program":21,"isDrum":false},{"pitch":62,"velocity":99,"startTime":114.4725780625,"endTime":114.57040393750002,"instrument":7,"program":21,"isDrum":false},{"pitch":62,"velocity":84,"startTime":114.59757779166668,"endTime":114.68996889583335,"instrument":7,"program":21,"isDrum":false},{"pitch":62,"velocity":99,"startTime":114.73888183333334,"endTime":114.83670770833334,"instrument":7,"program":21,"isDrum":false},{"pitch":62,"velocity":84,"startTime":114.86388156250001,"endTime":114.95627266666668,"instrument":7,"program":21,"isDrum":false},{"pitch":62,"velocity":84,"startTime":115.01062037500002,"endTime":115.09757670833334,"instrument":7,"program":21,"isDrum":false},{"pitch":62,"velocity":75,"startTime":115.12475056250001,"endTime":115.21170689583334,"instrument":7,"program":21,"isDrum":false},{"pitch":62,"velocity":110,"startTime":115.27148937500002,"endTime":115.35301093750002,"instrument":7,"program":21,"isDrum":false},{"pitch":62,"velocity":75,"startTime":115.38561956250001,"endTime":115.47257589583334,"instrument":7,"program":21,"isDrum":false},{"pitch":62,"velocity":99,"startTime":115.52692360416668,"endTime":115.60844516666668,"instrument":7,"program":21,"isDrum":false},{"pitch":62,"velocity":75,"startTime":115.65192333333334,"endTime":115.74431443750001,"instrument":7,"program":21,"isDrum":false},{"pitch":63,"velocity":110,"startTime":115.78779260416668,"endTime":115.87474893750002,"instrument":7,"program":21,"isDrum":false},{"pitch":62,"velocity":99,"startTime":115.92366187500001,"endTime":115.99431389583334,"instrument":7,"program":21,"isDrum":false},{"pitch":61,"velocity":110,"startTime":116.04866160416668,"endTime":116.13018316666668,"instrument":7,"program":21,"isDrum":false},{"pitch":62,"velocity":84,"startTime":116.16822656250001,"endTime":116.25518289583334,"instrument":7,"program":21,"isDrum":false},{"pitch":63,"velocity":110,"startTime":116.29866106250002,"endTime":116.39105216666668,"instrument":7,"program":21,"isDrum":false},{"pitch":62,"velocity":99,"startTime":116.43996510416669,"endTime":116.52692143750001,"instrument":7,"program":21,"isDrum":false},{"pitch":61,"velocity":110,"startTime":116.54866052083334,"endTime":116.63018208333334,"instrument":7,"program":21,"isDrum":false},{"pitch":62,"velocity":110,"startTime":116.67366025000001,"endTime":116.77692089583334,"instrument":7,"program":21,"isDrum":false},{"pitch":60,"velocity":99,"startTime":116.80952952083334,"endTime":116.89105108333334,"instrument":7,"program":21,"isDrum":false},{"pitch":59,"velocity":75,"startTime":116.95083356250001,"endTime":117.01605081250001,"instrument":7,"program":21,"isDrum":false},{"pitch":60,"velocity":99,"startTime":117.07039852083334,"endTime":117.15735485416668,"instrument":7,"program":21,"isDrum":false},{"pitch":62,"velocity":110,"startTime":117.21170256250001,"endTime":117.30409366666669,"instrument":7,"program":21,"isDrum":false},{"pitch":63,"velocity":110,"startTime":117.34213706250002,"endTime":117.41822385416668,"instrument":7,"program":21,"isDrum":false},{"pitch":62,"velocity":110,"startTime":117.46170202083334,"endTime":117.54322358333334,"instrument":7,"program":21,"isDrum":false},{"pitch":63,"velocity":110,"startTime":117.58670175000002,"endTime":117.67365808333334,"instrument":7,"program":21,"isDrum":false},{"pitch":65,"velocity":99,"startTime":117.71713625000001,"endTime":117.80952735416669,"instrument":7,"program":21,"isDrum":false},{"pitch":67,"velocity":99,"startTime":117.86387506250001,"endTime":117.98344002083334,"instrument":7,"program":21,"isDrum":false},{"pitch":66,"velocity":110,"startTime":117.99974433333334,"endTime":118.08670066666669,"instrument":7,"program":21,"isDrum":false},{"pitch":67,"velocity":75,"startTime":118.13017883333335,"endTime":118.21170039583335,"instrument":7,"program":21,"isDrum":false},{"pitch":71,"velocity":110,"startTime":118.26604810416669,"endTime":118.3530044375,"instrument":7,"program":21,"isDrum":false},{"pitch":72,"velocity":110,"startTime":118.39648260416668,"endTime":118.48343893750001,"instrument":7,"program":21,"isDrum":false},{"pitch":71,"velocity":99,"startTime":118.52691710416669,"endTime":118.60300389583334,"instrument":7,"program":21,"isDrum":false},{"pitch":72,"velocity":99,"startTime":118.65191683333335,"endTime":118.72800362500001,"instrument":7,"program":21,"isDrum":false},{"pitch":74,"velocity":84,"startTime":118.77148179166669,"endTime":118.88017720833334,"instrument":7,"program":21,"isDrum":false},{"pitch":75,"velocity":110,"startTime":118.92365537500001,"endTime":119.03235079166669,"instrument":7,"program":21,"isDrum":false},{"pitch":74,"velocity":84,"startTime":119.07582895833335,"endTime":119.15191575000001,"instrument":7,"program":21,"isDrum":false},{"pitch":73,"velocity":110,"startTime":119.18452437500001,"endTime":119.26604593750001,"instrument":7,"program":21,"isDrum":false},{"pitch":74,"velocity":110,"startTime":119.32039364583333,"endTime":119.42365429166668,"instrument":7,"program":21,"isDrum":false},{"pitch":75,"velocity":110,"startTime":119.45082814583334,"endTime":119.57582787500002,"instrument":7,"program":21,"isDrum":false},{"pitch":74,"velocity":84,"startTime":119.57039310416668,"endTime":119.65734943750002,"instrument":7,"program":21,"isDrum":false},{"pitch":73,"velocity":110,"startTime":119.68995806250001,"endTime":119.78234916666668,"instrument":7,"program":21,"isDrum":false},{"pitch":74,"velocity":110,"startTime":119.82582733333334,"endTime":119.92365320833333,"instrument":7,"program":21,"isDrum":false},{"pitch":75,"velocity":110,"startTime":119.96169660416669,"endTime":120.04865293750001,"instrument":7,"program":21,"isDrum":false},{"pitch":74,"velocity":99,"startTime":120.08126156250002,"endTime":120.16821789583334,"instrument":7,"program":21,"isDrum":false},{"pitch":73,"velocity":110,"startTime":120.20082652083335,"endTime":120.30952193750001,"instrument":7,"program":21,"isDrum":false},{"pitch":74,"velocity":84,"startTime":120.34213056250002,"endTime":120.42365212500002,"instrument":7,"program":21,"isDrum":false},{"pitch":75,"velocity":110,"startTime":120.46169552083335,"endTime":120.53778231250001,"instrument":7,"program":21,"isDrum":false},{"pitch":76,"velocity":99,"startTime":120.58669525,"endTime":120.67908635416669,"instrument":7,"program":21,"isDrum":false},{"pitch":77,"velocity":110,"startTime":120.73343406250001,"endTime":120.80408608333335,"instrument":7,"program":21,"isDrum":false},{"pitch":78,"velocity":110,"startTime":120.85299902083334,"endTime":120.93452058333334,"instrument":7,"program":21,"isDrum":false},{"pitch":79,"velocity":99,"startTime":120.99973783333334,"endTime":121.08669416666669,"instrument":7,"program":21,"isDrum":false},{"pitch":78,"velocity":110,"startTime":121.11930279166668,"endTime":121.21169389583333,"instrument":7,"program":21,"isDrum":false},{"pitch":79,"velocity":84,"startTime":121.26060683333334,"endTime":121.35843270833334,"instrument":7,"program":21,"isDrum":false},{"pitch":81,"velocity":75,"startTime":121.40191087500001,"endTime":121.47799766666668,"instrument":7,"program":21,"isDrum":false},{"pitch":79,"velocity":84,"startTime":121.532345375,"endTime":121.61930170833334,"instrument":7,"program":21,"isDrum":false},{"pitch":78,"velocity":110,"startTime":121.64104079166668,"endTime":121.73886666666668,"instrument":7,"program":21,"isDrum":false},{"pitch":77,"velocity":99,"startTime":121.77691006250001,"endTime":121.88017070833334,"instrument":7,"program":21,"isDrum":false},{"pitch":76,"velocity":99,"startTime":121.91277933333335,"endTime":122.01060520833335,"instrument":7,"program":21,"isDrum":false},{"pitch":75,"velocity":110,"startTime":122.04864860416669,"endTime":122.13017016666669,"instrument":7,"program":21,"isDrum":false},{"pitch":74,"velocity":99,"startTime":122.17364833333335,"endTime":122.26060466666668,"instrument":7,"program":21,"isDrum":false},{"pitch":73,"velocity":110,"startTime":122.31495237500002,"endTime":122.3964739375,"instrument":7,"program":21,"isDrum":false},{"pitch":74,"velocity":99,"startTime":122.43995210416668,"endTime":122.51603889583335,"instrument":7,"program":21,"isDrum":false},{"pitch":75,"velocity":110,"startTime":122.58125614583334,"endTime":122.67364725000002,"instrument":7,"program":21,"isDrum":false},{"pitch":74,"velocity":84,"startTime":122.71712541666669,"endTime":122.8203860625,"instrument":7,"program":21,"isDrum":false},{"pitch":70,"velocity":110,"startTime":122.85299468750001,"endTime":122.95082056250001,"instrument":7,"program":21,"isDrum":false},{"pitch":67,"velocity":99,"startTime":122.97799441666669,"endTime":123.07582029166669,"instrument":7,"program":21,"isDrum":false},{"pitch":75,"velocity":110,"startTime":123.10842891666668,"endTime":123.21712433333335,"instrument":7,"program":21,"isDrum":false},{"pitch":74,"velocity":55,"startTime":123.23886341666669,"endTime":123.36386314583334,"instrument":7,"program":21,"isDrum":false},{"pitch":70,"velocity":110,"startTime":123.36929791666668,"endTime":123.47799333333334,"instrument":7,"program":21,"isDrum":false},{"pitch":67,"velocity":84,"startTime":123.51060195833334,"endTime":123.58668875000001,"instrument":7,"program":21,"isDrum":false},{"pitch":70,"velocity":110,"startTime":123.65734077083334,"endTime":123.78777527083334,"instrument":7,"program":21,"isDrum":false},{"pitch":67,"velocity":84,"startTime":123.77690572916669,"endTime":123.90190545833335,"instrument":7,"program":21,"isDrum":false},{"pitch":63,"velocity":110,"startTime":123.90190545833335,"endTime":123.99973133333334,"instrument":7,"program":21,"isDrum":false},{"pitch":62,"velocity":65,"startTime":124.0269051875,"endTime":124.11386152083334,"instrument":7,"program":21,"isDrum":false},{"pitch":63,"velocity":110,"startTime":124.15733968750001,"endTime":124.26603510416669,"instrument":7,"program":21,"isDrum":false},{"pitch":62,"velocity":84,"startTime":124.2877741875,"endTime":124.41277391666668,"instrument":7,"program":21,"isDrum":false},{"pitch":58,"velocity":84,"startTime":124.41820868750001,"endTime":124.52146933333334,"instrument":7,"program":21,"isDrum":false},{"pitch":55,"velocity":67,"startTime":124.52690410416669,"endTime":124.63016475,"instrument":7,"program":21,"isDrum":false},{"pitch":58,"velocity":110,"startTime":124.66820814583335,"endTime":124.76059925000001,"instrument":7,"program":21,"isDrum":false},{"pitch":55,"velocity":110,"startTime":124.80407741666669,"endTime":124.91820760416668,"instrument":7,"program":21,"isDrum":false},{"pitch":53,"velocity":84,"startTime":124.92364237500001,"endTime":125.01059870833335,"instrument":7,"program":21,"isDrum":false},{"pitch":51,"velocity":110,"startTime":125.054076875,"endTime":125.18451137500001,"instrument":7,"program":21,"isDrum":false},{"pitch":50,"velocity":84,"startTime":125.18994614583335,"endTime":125.28233725000001,"instrument":7,"program":21,"isDrum":false},{"pitch":49,"velocity":110,"startTime":125.32581541666669,"endTime":125.40733697916669,"instrument":7,"program":21,"isDrum":false},{"pitch":50,"velocity":84,"startTime":125.43994560416668,"endTime":125.54320625000001,"instrument":7,"program":21,"isDrum":false},{"pitch":52,"velocity":110,"startTime":125.58124964583334,"endTime":125.66820597916669,"instrument":7,"program":21,"isDrum":false},{"pitch":54,"velocity":110,"startTime":125.70081460416668,"endTime":125.78777093750001,"instrument":7,"program":21,"isDrum":false},{"pitch":53,"velocity":99,"startTime":125.82581433333334,"endTime":125.92364020833335,"instrument":7,"program":21,"isDrum":false},{"pitch":54,"velocity":110,"startTime":125.94537929166668,"endTime":126.07581379166669,"instrument":7,"program":21,"isDrum":false},{"pitch":55,"velocity":99,"startTime":126.07581379166669,"endTime":126.17363966666667,"instrument":7,"program":21,"isDrum":false},{"pitch":57,"velocity":99,"startTime":126.227987375,"endTime":126.358421875,"instrument":7,"program":21,"isDrum":false},{"pitch":56,"velocity":110,"startTime":126.358421875,"endTime":126.44537820833335,"instrument":7,"program":21,"isDrum":false},{"pitch":57,"velocity":84,"startTime":126.4834216041667,"endTime":126.57581270833333,"instrument":7,"program":21,"isDrum":false},{"pitch":59,"velocity":110,"startTime":126.61385610416667,"endTime":126.70624720833334,"instrument":7,"program":21,"isDrum":false},{"pitch":60,"velocity":99,"startTime":126.74429060416668,"endTime":126.83668170833334,"instrument":7,"program":21,"isDrum":false},{"pitch":59,"velocity":99,"startTime":126.85842079166667,"endTime":126.95081189583334,"instrument":7,"program":21,"isDrum":false},{"pitch":60,"velocity":110,"startTime":126.9942900625,"endTime":127.075811625,"instrument":7,"program":21,"isDrum":false},{"pitch":61,"velocity":110,"startTime":127.11385502083334,"endTime":127.20081135416669,"instrument":7,"program":21,"isDrum":false},{"pitch":62,"velocity":99,"startTime":127.25515906250001,"endTime":127.36385447916669,"instrument":7,"program":21,"isDrum":false},{"pitch":61,"velocity":110,"startTime":127.38015879166667,"endTime":127.46711512500002,"instrument":7,"program":21,"isDrum":false},{"pitch":62,"velocity":84,"startTime":127.49972375000002,"endTime":127.59211485416668,"instrument":7,"program":21,"isDrum":false},{"pitch":64,"velocity":110,"startTime":127.6464625625,"endTime":127.73341889583335,"instrument":7,"program":21,"isDrum":false},{"pitch":66,"velocity":110,"startTime":127.77689706250001,"endTime":127.86385339583333,"instrument":7,"program":21,"isDrum":false},{"pitch":65,"velocity":99,"startTime":127.90189679166667,"endTime":127.99428789583334,"instrument":7,"program":21,"isDrum":false},{"pitch":66,"velocity":110,"startTime":128.03233129166668,"endTime":128.11385285416668,"instrument":7,"program":21,"isDrum":false},{"pitch":67,"velocity":99,"startTime":128.15733102083334,"endTime":128.26602643750002,"instrument":7,"program":21,"isDrum":false},{"pitch":69,"velocity":84,"startTime":128.2932002916667,"endTime":128.41276525,"instrument":7,"program":21,"isDrum":false},{"pitch":66,"velocity":110,"startTime":128.41820002083335,"endTime":128.51602589583334,"instrument":7,"program":21,"isDrum":false},{"pitch":62,"velocity":84,"startTime":128.53233020833335,"endTime":128.62472131250001,"instrument":7,"program":21,"isDrum":false},{"pitch":63,"velocity":110,"startTime":128.67363425000002,"endTime":128.77689489583335,"instrument":7,"program":21,"isDrum":false},{"pitch":62,"velocity":84,"startTime":128.80950352083335,"endTime":128.8855903125,"instrument":7,"program":21,"isDrum":false},{"pitch":60,"velocity":99,"startTime":128.95080756250002,"endTime":129.06493775,"instrument":7,"program":21,"isDrum":false},{"pitch":58,"velocity":110,"startTime":129.07037252083333,"endTime":129.16819839583334,"instrument":7,"program":21,"isDrum":false},{"pitch":57,"velocity":110,"startTime":129.19537225000002,"endTime":129.28232858333334,"instrument":7,"program":21,"isDrum":false},{"pitch":55,"velocity":84,"startTime":129.34754583333333,"endTime":129.4181978541667,"instrument":7,"program":21,"isDrum":false},{"pitch":75,"velocity":110,"startTime":129.56493666666668,"endTime":129.67363208333333,"instrument":7,"program":21,"isDrum":false},{"pitch":74,"velocity":99,"startTime":129.67363208333333,"endTime":129.78776227083335,"instrument":7,"program":21,"isDrum":false},{"pitch":72,"velocity":84,"startTime":129.80406658333334,"endTime":129.88015337500002,"instrument":7,"program":21,"isDrum":false},{"pitch":70,"velocity":110,"startTime":129.9399358541667,"endTime":130.01602264583335,"instrument":7,"program":21,"isDrum":false},{"pitch":69,"velocity":99,"startTime":130.06493558333335,"endTime":130.14645714583335,"instrument":7,"program":21,"isDrum":false},{"pitch":67,"velocity":84,"startTime":130.16276145833334,"endTime":130.2551525625,"instrument":7,"program":21,"isDrum":false},{"pitch":66,"velocity":110,"startTime":130.30950027083335,"endTime":130.40189137500002,"instrument":7,"program":21,"isDrum":false},{"pitch":63,"velocity":110,"startTime":130.4345,"endTime":130.53232587500003,"instrument":7,"program":21,"isDrum":false},{"pitch":62,"velocity":110,"startTime":130.55949972916667,"endTime":130.65189083333334,"instrument":7,"program":21,"isDrum":false},{"pitch":60,"velocity":107,"startTime":130.66819514583335,"endTime":130.77145579166668,"instrument":7,"program":21,"isDrum":false},{"pitch":58,"velocity":110,"startTime":130.81493395833334,"endTime":130.9018902916667,"instrument":7,"program":21,"isDrum":false},{"pitch":57,"velocity":99,"startTime":130.9399336875,"endTime":131.0323247916667,"instrument":7,"program":21,"isDrum":false},{"pitch":55,"velocity":99,"startTime":131.04319433333333,"endTime":131.13558543750003,"instrument":7,"program":21,"isDrum":false},{"pitch":54,"velocity":110,"startTime":131.184498375,"endTime":131.2768894791667,"instrument":7,"program":21,"isDrum":false},{"pitch":57,"velocity":99,"startTime":131.32036764583333,"endTime":131.4290630625,"instrument":7,"program":21,"isDrum":false},{"pitch":55,"velocity":99,"startTime":131.45080214583334,"endTime":131.53775847916665,"instrument":7,"program":21,"isDrum":false},{"pitch":62,"velocity":110,"startTime":131.73884500000003,"endTime":132.45623475000002,"instrument":7,"program":21,"isDrum":false},{"pitch":60,"velocity":60,"startTime":131.9834096875,"endTime":132.46166952083337,"instrument":7,"program":21,"isDrum":false},{"pitch":66,"velocity":99,"startTime":131.98884445833335,"endTime":132.4399304375,"instrument":7,"program":21,"isDrum":false},{"pitch":67,"velocity":43,"startTime":132.46166952083337,"endTime":132.59753879166666,"instrument":7,"program":21,"isDrum":false},{"pitch":62,"velocity":50,"startTime":132.47797383333335,"endTime":132.59753879166666,"instrument":7,"program":21,"isDrum":false},{"pitch":58,"velocity":110,"startTime":132.48340860416667,"endTime":132.59210402083335,"instrument":7,"program":21,"isDrum":false},{"pitch":67,"velocity":110,"startTime":133.59210185416666,"endTime":133.67362341666666,"instrument":7,"program":21,"isDrum":false},{"pitch":66,"velocity":110,"startTime":133.83666654166666,"endTime":133.90188379166668,"instrument":7,"program":21,"isDrum":false},{"pitch":67,"velocity":110,"startTime":134.05949214583336,"endTime":134.15188325000003,"instrument":7,"program":21,"isDrum":false},{"pitch":69,"velocity":110,"startTime":134.33666545833336,"endTime":134.63014308333337,"instrument":7,"program":21,"isDrum":false},{"pitch":70,"velocity":110,"startTime":134.83666437500003,"endTime":135.30948943750002,"instrument":7,"program":21,"isDrum":false},{"pitch":69,"velocity":110,"startTime":135.3747066875,"endTime":135.45079347916666,"instrument":7,"program":21,"isDrum":false},{"pitch":67,"velocity":110,"startTime":135.66274954166667,"endTime":135.72796679166666,"instrument":7,"program":21,"isDrum":false},{"pitch":66,"velocity":110,"startTime":135.77687972916667,"endTime":135.85296652083335,"instrument":7,"program":21,"isDrum":false},{"pitch":67,"velocity":84,"startTime":135.8964446875,"endTime":135.96166193750003,"instrument":7,"program":21,"isDrum":false},{"pitch":69,"velocity":110,"startTime":136.01600964583335,"endTime":136.09753120833335,"instrument":7,"program":21,"isDrum":false},{"pitch":70,"velocity":110,"startTime":136.141009375,"endTime":136.2225309375,"instrument":7,"program":21,"isDrum":false},{"pitch":69,"velocity":110,"startTime":136.26600910416667,"endTime":136.34209589583335,"instrument":7,"program":21,"isDrum":false},{"pitch":70,"velocity":110,"startTime":136.38013929166667,"endTime":136.46166085416667,"instrument":7,"program":21,"isDrum":false},{"pitch":72,"velocity":99,"startTime":136.52144333333337,"endTime":136.6138344375,"instrument":7,"program":21,"isDrum":false},{"pitch":74,"velocity":99,"startTime":136.65187783333334,"endTime":136.73883416666666,"instrument":7,"program":21,"isDrum":false},{"pitch":72,"velocity":84,"startTime":136.7768775625,"endTime":136.87470343750002,"instrument":7,"program":21,"isDrum":false},{"pitch":70,"velocity":110,"startTime":136.89644252083335,"endTime":136.99426839583336,"instrument":7,"program":21,"isDrum":false},{"pitch":69,"velocity":84,"startTime":137.03231179166667,"endTime":137.13013766666666,"instrument":7,"program":21,"isDrum":false},{"pitch":67,"velocity":55,"startTime":137.16818106250003,"endTime":137.25513739583334,"instrument":7,"program":21,"isDrum":false},{"pitch":69,"velocity":99,"startTime":137.28231125000002,"endTime":137.38557189583335,"instrument":7,"program":21,"isDrum":false},{"pitch":67,"velocity":75,"startTime":137.40731097916668,"endTime":137.48883254166668,"instrument":7,"program":21,"isDrum":false},{"pitch":65,"velocity":99,"startTime":137.54861502083335,"endTime":137.65187566666668,"instrument":7,"program":21,"isDrum":false},{"pitch":63,"velocity":110,"startTime":137.68991906250002,"endTime":137.97252714583337,"instrument":7,"program":21,"isDrum":false},{"pitch":62,"velocity":110,"startTime":137.98883145833335,"endTime":138.07578779166667,"instrument":7,"program":21,"isDrum":false},{"pitch":63,"velocity":110,"startTime":138.227961375,"endTime":138.3094829375,"instrument":7,"program":21,"isDrum":false},{"pitch":65,"velocity":110,"startTime":138.49426514583337,"endTime":138.61383010416668,"instrument":7,"program":21,"isDrum":false},{"pitch":67,"velocity":110,"startTime":138.97252497916668,"endTime":139.44535004166667,"instrument":7,"program":21,"isDrum":false},{"pitch":63,"velocity":110,"startTime":139.4833934375,"endTime":139.57578454166668,"instrument":7,"program":21,"isDrum":false},{"pitch":62,"velocity":110,"startTime":139.81491445833336,"endTime":139.88556647916667,"instrument":7,"program":21,"isDrum":false},{"pitch":61,"velocity":110,"startTime":139.92904464583336,"endTime":139.99969666666667,"instrument":7,"program":21,"isDrum":false},{"pitch":62,"velocity":84,"startTime":140.0377400625,"endTime":140.11382685416666,"instrument":7,"program":21,"isDrum":false},{"pitch":66,"velocity":110,"startTime":140.16273979166667,"endTime":140.2333918125,"instrument":7,"program":21,"isDrum":false},{"pitch":67,"velocity":99,"startTime":140.28773952083336,"endTime":140.38556539583337,"instrument":7,"program":21,"isDrum":false},{"pitch":66,"velocity":110,"startTime":140.41817402083336,"endTime":140.48882604166667,"instrument":7,"program":21,"isDrum":false},{"pitch":67,"velocity":67,"startTime":140.53773897916668,"endTime":140.61926054166668,"instrument":7,"program":21,"isDrum":false},{"pitch":69,"velocity":110,"startTime":140.66817347916668,"endTime":140.74969504166668,"instrument":7,"program":21,"isDrum":false},{"pitch":70,"velocity":110,"startTime":140.78773843750002,"endTime":140.87469477083334,"instrument":7,"program":21,"isDrum":false},{"pitch":69,"velocity":99,"startTime":140.9181729375,"endTime":140.99425972916666,"instrument":7,"program":21,"isDrum":false},{"pitch":70,"velocity":110,"startTime":141.04317266666666,"endTime":141.130129,"instrument":7,"program":21,"isDrum":false},{"pitch":72,"velocity":75,"startTime":141.18991147916668,"endTime":141.2768678125,"instrument":7,"program":21,"isDrum":false},{"pitch":74,"velocity":99,"startTime":141.32034597916666,"endTime":141.4073023125,"instrument":7,"program":21,"isDrum":false},{"pitch":72,"velocity":99,"startTime":141.4399109375,"endTime":141.53773681250001,"instrument":7,"program":21,"isDrum":false},{"pitch":70,"velocity":110,"startTime":141.55404112500003,"endTime":141.66817131250002,"instrument":7,"program":21,"isDrum":false},{"pitch":69,"velocity":84,"startTime":141.68991039583335,"endTime":141.80404058333335,"instrument":7,"program":21,"isDrum":false},{"pitch":67,"velocity":110,"startTime":141.83664920833337,"endTime":142.1246920625,"instrument":7,"program":21,"isDrum":false},{"pitch":66,"velocity":110,"startTime":142.15186591666668,"endTime":142.21708316666667,"instrument":7,"program":21,"isDrum":false},{"pitch":67,"velocity":99,"startTime":142.41273491666666,"endTime":142.4833869375,"instrument":7,"program":21,"isDrum":false},{"pitch":69,"velocity":110,"startTime":142.67360391666668,"endTime":142.73882116666667,"instrument":7,"program":21,"isDrum":false},{"pitch":70,"velocity":110,"startTime":143.15729852083336,"endTime":143.63012358333336,"instrument":7,"program":21,"isDrum":false},{"pitch":69,"velocity":99,"startTime":143.67360175000002,"endTime":143.74968854166667,"instrument":7,"program":21,"isDrum":false},{"pitch":67,"velocity":110,"startTime":143.97794891666666,"endTime":144.04860093750003,"instrument":7,"program":21,"isDrum":false},{"pitch":66,"velocity":110,"startTime":144.097513875,"endTime":144.16816589583337,"instrument":7,"program":21,"isDrum":false},{"pitch":67,"velocity":84,"startTime":144.2116440625,"endTime":144.28773085416668,"instrument":7,"program":21,"isDrum":false},{"pitch":69,"velocity":110,"startTime":144.33664379166666,"endTime":144.41273058333334,"instrument":7,"program":21,"isDrum":false},{"pitch":70,"velocity":110,"startTime":144.45620875,"endTime":144.54316508333335,"instrument":7,"program":21,"isDrum":false},{"pitch":69,"velocity":110,"startTime":144.59751279166667,"endTime":144.6681648125,"instrument":7,"program":21,"isDrum":false},{"pitch":70,"velocity":110,"startTime":144.71164297916667,"endTime":144.79316454166667,"instrument":7,"program":21,"isDrum":false},{"pitch":72,"velocity":67,"startTime":144.85294702083337,"endTime":144.95077289583335,"instrument":7,"program":21,"isDrum":false},{"pitch":74,"velocity":75,"startTime":144.98881629166667,"endTime":145.075772625,"instrument":7,"program":21,"isDrum":false},{"pitch":72,"velocity":75,"startTime":145.11381602083335,"endTime":145.21164189583337,"instrument":7,"program":21,"isDrum":false},{"pitch":70,"velocity":110,"startTime":145.2225114375,"endTime":145.32577208333336,"instrument":7,"program":21,"isDrum":false},{"pitch":69,"velocity":84,"startTime":145.3529459375,"endTime":145.46164135416666,"instrument":7,"program":21,"isDrum":false},{"pitch":67,"velocity":75,"startTime":145.48881520833336,"endTime":145.56490200000002,"instrument":7,"program":21,"isDrum":false},{"pitch":69,"velocity":110,"startTime":145.60294539583336,"endTime":145.70077127083334,"instrument":7,"program":21,"isDrum":false},{"pitch":67,"velocity":75,"startTime":145.72251035416667,"endTime":145.80403191666667,"instrument":7,"program":21,"isDrum":false},{"pitch":65,"velocity":99,"startTime":145.85837962500003,"endTime":145.96707504166667,"instrument":7,"program":21,"isDrum":false},{"pitch":63,"velocity":110,"startTime":146.01055320833336,"endTime":146.33663945833337,"instrument":7,"program":21,"isDrum":false},{"pitch":62,"velocity":99,"startTime":146.35837854166667,"endTime":146.43446533333335,"instrument":7,"program":21,"isDrum":false},{"pitch":63,"velocity":110,"startTime":146.5920736875,"endTime":146.66816047916666,"instrument":7,"program":21,"isDrum":false},{"pitch":65,"velocity":110,"startTime":146.84750791666667,"endTime":146.93989902083337,"instrument":7,"program":21,"isDrum":false},{"pitch":67,"velocity":110,"startTime":147.33663729166668,"endTime":147.80946235416667,"instrument":7,"program":21,"isDrum":false},{"pitch":63,"velocity":110,"startTime":147.84750575,"endTime":147.9290273125,"instrument":7,"program":21,"isDrum":false},{"pitch":62,"velocity":110,"startTime":148.173592,"endTime":148.24967879166667,"instrument":7,"program":21,"isDrum":false},{"pitch":61,"velocity":110,"startTime":148.30402650000002,"endTime":148.38011329166667,"instrument":7,"program":21,"isDrum":false},{"pitch":62,"velocity":84,"startTime":148.43446100000003,"endTime":148.49967825000002,"instrument":7,"program":21,"isDrum":false},{"pitch":66,"velocity":99,"startTime":148.5648955,"endTime":148.63011275000002,"instrument":7,"program":21,"isDrum":false},{"pitch":67,"velocity":84,"startTime":148.69533,"endTime":148.79315587500002,"instrument":7,"program":21,"isDrum":false},{"pitch":66,"velocity":110,"startTime":148.82576450000002,"endTime":148.90185129166667,"instrument":7,"program":21,"isDrum":false},{"pitch":67,"velocity":84,"startTime":148.95619900000003,"endTime":149.03772056250003,"instrument":7,"program":21,"isDrum":false},{"pitch":69,"velocity":99,"startTime":149.0866335,"endTime":149.1681550625,"instrument":7,"program":21,"isDrum":false},{"pitch":70,"velocity":110,"startTime":149.217068,"endTime":149.30402433333336,"instrument":7,"program":21,"isDrum":false},{"pitch":69,"velocity":99,"startTime":149.34750250000002,"endTime":149.42358929166667,"instrument":7,"program":21,"isDrum":false},{"pitch":70,"velocity":110,"startTime":149.47793700000003,"endTime":149.56489333333334,"instrument":7,"program":21,"isDrum":false},{"pitch":72,"velocity":75,"startTime":149.6083715,"endTime":149.70619737500002,"instrument":7,"program":21,"isDrum":false},{"pitch":74,"velocity":75,"startTime":149.738806,"endTime":149.8203275625,"instrument":7,"program":21,"isDrum":false},{"pitch":75,"velocity":110,"startTime":149.86924050000002,"endTime":149.93989252083335,"instrument":7,"program":21,"isDrum":false},{"pitch":76,"velocity":84,"startTime":149.99967500000002,"endTime":150.08663133333334,"instrument":7,"program":21,"isDrum":false},{"pitch":78,"velocity":110,"startTime":150.1301095,"endTime":150.22250060416667,"instrument":7,"program":21,"isDrum":false},{"pitch":79,"velocity":110,"startTime":150.260544,"endTime":150.41271758333335,"instrument":7,"program":21,"isDrum":false},{"pitch":74,"velocity":75,"startTime":150.85836879166666,"endTime":151.36923725000003,"instrument":7,"program":21,"isDrum":false},{"pitch":75,"velocity":99,"startTime":151.39097633333336,"endTime":152.1029313125,"instrument":7,"program":21,"isDrum":false},{"pitch":74,"velocity":84,"startTime":152.06488791666666,"endTime":152.29314829166668,"instrument":7,"program":21,"isDrum":false},{"pitch":74,"velocity":75,"startTime":152.34206122916666,"endTime":153.0811900625,"instrument":7,"program":21,"isDrum":false},{"pitch":72,"velocity":75,"startTime":153.09205960416668,"endTime":153.26053750000003,"instrument":7,"program":21,"isDrum":false},{"pitch":72,"velocity":84,"startTime":153.35292860416666,"endTime":153.6029280625,"instrument":7,"program":21,"isDrum":false},{"pitch":75,"velocity":110,"startTime":153.64097145833335,"endTime":153.85836229166668,"instrument":7,"program":21,"isDrum":false},{"pitch":74,"velocity":75,"startTime":153.89097091666667,"endTime":154.62466497916668,"instrument":7,"program":21,"isDrum":false},{"pitch":72,"velocity":110,"startTime":154.96162077083335,"endTime":155.42357629166668,"instrument":7,"program":21,"isDrum":false},{"pitch":74,"velocity":110,"startTime":155.46161968750002,"endTime":156.14096604166667,"instrument":7,"program":21,"isDrum":false},{"pitch":72,"velocity":84,"startTime":156.1790094375,"endTime":156.39640027083337,"instrument":7,"program":21,"isDrum":false},{"pitch":72,"velocity":110,"startTime":156.49966091666667,"endTime":157.206181125,"instrument":7,"program":21,"isDrum":false},{"pitch":70,"velocity":99,"startTime":157.22792020833336,"endTime":157.44531104166668,"instrument":7,"program":21,"isDrum":false},{"pitch":70,"velocity":110,"startTime":157.54313691666667,"endTime":157.77139729166666,"instrument":7,"program":21,"isDrum":false},{"pitch":74,"velocity":84,"startTime":157.81487545833335,"endTime":158.01596197916666,"instrument":7,"program":21,"isDrum":false},{"pitch":72,"velocity":67,"startTime":158.07574445833336,"endTime":159.09204660416668,"instrument":7,"program":21,"isDrum":false},{"pitch":70,"velocity":110,"startTime":159.1137856875,"endTime":159.57030643750002,"instrument":7,"program":21,"isDrum":false},{"pitch":72,"velocity":99,"startTime":159.60834983333336,"endTime":160.3203048125,"instrument":7,"program":21,"isDrum":false},{"pitch":70,"velocity":110,"startTime":160.33117435416668,"endTime":160.58660858333334,"instrument":7,"program":21,"isDrum":false},{"pitch":70,"velocity":110,"startTime":160.65182583333336,"endTime":161.36921558333336,"instrument":7,"program":21,"isDrum":false},{"pitch":69,"velocity":99,"startTime":161.40182420833335,"endTime":161.59747595833335,"instrument":7,"program":21,"isDrum":false},{"pitch":69,"velocity":110,"startTime":161.6898670625,"endTime":161.92899697916667,"instrument":7,"program":21,"isDrum":false},{"pitch":72,"velocity":99,"startTime":161.967040375,"endTime":162.17899643750002,"instrument":7,"program":21,"isDrum":false},{"pitch":70,"velocity":110,"startTime":162.21703983333336,"endTime":163.20073335416666,"instrument":7,"program":21,"isDrum":false},{"pitch":69,"velocity":99,"startTime":163.24964629166666,"endTime":163.76594952083335,"instrument":7,"program":21,"isDrum":false},{"pitch":67,"velocity":99,"startTime":163.7768190625,"endTime":164.30399183333336,"instrument":7,"program":21,"isDrum":false},{"pitch":66,"velocity":110,"startTime":164.33660045833335,"endTime":164.83116460416667,"instrument":7,"program":21,"isDrum":false},{"pitch":67,"velocity":75,"startTime":164.84746891666668,"endTime":164.91812093750002,"instrument":7,"program":21,"isDrum":false},{"pitch":62,"velocity":99,"startTime":165.097468375,"endTime":165.78768427083335,"instrument":7,"program":21,"isDrum":false},{"pitch":60,"velocity":84,"startTime":165.36920691666668,"endTime":165.83659720833336,"instrument":7,"program":21,"isDrum":false},{"pitch":66,"velocity":99,"startTime":165.3746416875,"endTime":165.82029289583335,"instrument":7,"program":21,"isDrum":false},{"pitch":67,"velocity":53,"startTime":165.84746675000002,"endTime":166.00507510416668,"instrument":7,"program":21,"isDrum":false},{"pitch":62,"velocity":75,"startTime":165.85290152083337,"endTime":165.9942055625,"instrument":7,"program":21,"isDrum":false},{"pitch":58,"velocity":110,"startTime":165.85833629166666,"endTime":165.98333602083335,"instrument":7,"program":21,"isDrum":false},{"pitch":50,"velocity":75,"startTime":167.08659450000002,"endTime":167.16811606250002,"instrument":7,"program":21,"isDrum":false},{"pitch":50,"velocity":99,"startTime":167.21702900000003,"endTime":167.314854875,"instrument":7,"program":21,"isDrum":false},{"pitch":50,"velocity":110,"startTime":167.3474635,"endTime":167.45072414583336,"instrument":7,"program":21,"isDrum":false},{"pitch":54,"velocity":110,"startTime":167.477898,"endTime":167.57572387500002,"instrument":7,"program":21,"isDrum":false},{"pitch":54,"velocity":99,"startTime":167.60833250000002,"endTime":167.66811497916666,"instrument":7,"program":21,"isDrum":false},{"pitch":54,"velocity":110,"startTime":167.73876700000002,"endTime":167.81485379166668,"instrument":7,"program":21,"isDrum":false},{"pitch":54,"velocity":110,"startTime":167.8692015,"endTime":167.9181144375,"instrument":7,"program":21,"isDrum":false},{"pitch":57,"velocity":110,"startTime":167.999636,"endTime":168.09746187500002,"instrument":7,"program":21,"isDrum":false},{"pitch":57,"velocity":65,"startTime":168.13007050000002,"endTime":168.20072252083335,"instrument":7,"program":21,"isDrum":false},{"pitch":57,"velocity":99,"startTime":168.26050500000002,"endTime":168.34746133333337,"instrument":7,"program":21,"isDrum":false},{"pitch":57,"velocity":75,"startTime":168.3909395,"endTime":168.4724610625,"instrument":7,"program":21,"isDrum":false},{"pitch":60,"velocity":99,"startTime":168.521374,"endTime":168.6028955625,"instrument":7,"program":21,"isDrum":false},{"pitch":60,"velocity":84,"startTime":168.65180850000002,"endTime":168.72789529166667,"instrument":7,"program":21,"isDrum":false},{"pitch":60,"velocity":99,"startTime":168.78224300000002,"endTime":168.85832979166668,"instrument":7,"program":21,"isDrum":false},{"pitch":60,"velocity":84,"startTime":168.9126775,"endTime":168.9941990625,"instrument":7,"program":21,"isDrum":false},{"pitch":63,"velocity":110,"startTime":169.043112,"endTime":169.10832925000003,"instrument":7,"program":21,"isDrum":false},{"pitch":63,"velocity":110,"startTime":169.17354650000001,"endTime":169.23876375,"instrument":7,"program":21,"isDrum":false},{"pitch":63,"velocity":110,"startTime":169.30398100000002,"endTime":169.38550256250002,"instrument":7,"program":21,"isDrum":false},{"pitch":63,"velocity":110,"startTime":169.43441550000003,"endTime":169.49419797916667,"instrument":7,"program":21,"isDrum":false},{"pitch":62,"velocity":110,"startTime":169.56485,"endTime":169.65180633333335,"instrument":7,"program":21,"isDrum":false},{"pitch":62,"velocity":84,"startTime":169.6952845,"endTime":169.77137129166667,"instrument":7,"program":21,"isDrum":false},{"pitch":62,"velocity":110,"startTime":169.82571900000002,"endTime":169.91267533333337,"instrument":7,"program":21,"isDrum":false},{"pitch":62,"velocity":84,"startTime":169.95615350000003,"endTime":170.03767506250003,"instrument":7,"program":21,"isDrum":false},{"pitch":60,"velocity":99,"startTime":170.086588,"endTime":170.18441387500002,"instrument":7,"program":21,"isDrum":false},{"pitch":60,"velocity":84,"startTime":170.2170225,"endTime":170.29310929166667,"instrument":7,"program":21,"isDrum":false},{"pitch":60,"velocity":99,"startTime":170.34745700000002,"endTime":170.445282875,"instrument":7,"program":21,"isDrum":false},{"pitch":60,"velocity":75,"startTime":170.47789150000003,"endTime":170.54854352083336,"instrument":7,"program":21,"isDrum":false},{"pitch":57,"velocity":99,"startTime":170.608326,"endTime":170.70071710416667,"instrument":7,"program":21,"isDrum":false},{"pitch":57,"velocity":84,"startTime":170.7387605,"endTime":170.81484729166667,"instrument":7,"program":21,"isDrum":false},{"pitch":57,"velocity":67,"startTime":170.86919500000002,"endTime":170.95071656250002,"instrument":7,"program":21,"isDrum":false},{"pitch":57,"velocity":84,"startTime":170.99962950000003,"endTime":171.08115106250003,"instrument":7,"program":21,"isDrum":false},{"pitch":58,"velocity":110,"startTime":171.130064,"endTime":171.2115855625,"instrument":7,"program":21,"isDrum":false},{"pitch":58,"velocity":110,"startTime":171.2604985,"endTime":171.32028097916668,"instrument":7,"program":21,"isDrum":false},{"pitch":58,"velocity":110,"startTime":171.39093300000002,"endTime":171.47245456250002,"instrument":7,"program":21,"isDrum":false},{"pitch":58,"velocity":110,"startTime":171.52136750000003,"endTime":171.60288906250003,"instrument":7,"program":21,"isDrum":false},{"pitch":62,"velocity":110,"startTime":171.651802,"endTime":171.74419310416667,"instrument":7,"program":21,"isDrum":false},{"pitch":62,"velocity":84,"startTime":171.7822365,"endTime":171.84745375000003,"instrument":7,"program":21,"isDrum":false},{"pitch":62,"velocity":110,"startTime":171.91267100000002,"endTime":171.99419256250002,"instrument":7,"program":21,"isDrum":false},{"pitch":62,"velocity":99,"startTime":172.04310550000002,"endTime":172.12462706250002,"instrument":7,"program":21,"isDrum":false},{"pitch":67,"velocity":110,"startTime":172.17354,"endTime":172.26049633333335,"instrument":7,"program":21,"isDrum":false},{"pitch":67,"velocity":84,"startTime":172.3039745,"endTime":172.39093083333336,"instrument":7,"program":21,"isDrum":false},{"pitch":67,"velocity":84,"startTime":172.43440900000002,"endTime":172.51593056250002,"instrument":7,"program":21,"isDrum":false},{"pitch":67,"velocity":84,"startTime":172.56484350000002,"endTime":172.64636506250002,"instrument":7,"program":21,"isDrum":false},{"pitch":69,"velocity":110,"startTime":172.695278,"endTime":172.78223433333335,"instrument":7,"program":21,"isDrum":false},{"pitch":69,"velocity":84,"startTime":172.8257125,"endTime":172.9072340625,"instrument":7,"program":21,"isDrum":false},{"pitch":69,"velocity":99,"startTime":172.95614700000002,"endTime":173.03766856250002,"instrument":7,"program":21,"isDrum":false},{"pitch":69,"velocity":99,"startTime":173.08658150000002,"endTime":173.17353783333337,"instrument":7,"program":21,"isDrum":false},{"pitch":70,"velocity":110,"startTime":173.217016,"endTime":173.29310279166668,"instrument":7,"program":21,"isDrum":false},{"pitch":70,"velocity":110,"startTime":173.3474505,"endTime":173.41266775000003,"instrument":7,"program":21,"isDrum":false},{"pitch":70,"velocity":110,"startTime":173.47788500000001,"endTime":173.55397179166667,"instrument":7,"program":21,"isDrum":false},{"pitch":70,"velocity":110,"startTime":173.60831950000002,"endTime":173.68440629166668,"instrument":7,"program":21,"isDrum":false},{"pitch":69,"velocity":99,"startTime":173.73875400000003,"endTime":173.83114510416667,"instrument":7,"program":21,"isDrum":false},{"pitch":69,"velocity":84,"startTime":173.8691885,"endTime":173.94527529166666,"instrument":7,"program":21,"isDrum":false},{"pitch":69,"velocity":84,"startTime":173.999623,"endTime":174.08657933333336,"instrument":7,"program":21,"isDrum":false},{"pitch":69,"velocity":84,"startTime":174.13005750000002,"endTime":174.20614429166667,"instrument":7,"program":21,"isDrum":false},{"pitch":67,"velocity":110,"startTime":174.26049200000003,"endTime":174.34744833333335,"instrument":7,"program":21,"isDrum":false},{"pitch":67,"velocity":84,"startTime":174.3909265,"endTime":174.46701329166666,"instrument":7,"program":21,"isDrum":false},{"pitch":67,"velocity":99,"startTime":174.521361,"endTime":174.59744779166667,"instrument":7,"program":21,"isDrum":false},{"pitch":67,"velocity":75,"startTime":174.65179550000002,"endTime":174.73875183333337,"instrument":7,"program":21,"isDrum":false},{"pitch":66,"velocity":110,"startTime":174.78223000000003,"endTime":174.85831679166668,"instrument":7,"program":21,"isDrum":false},{"pitch":66,"velocity":110,"startTime":174.9126645,"endTime":174.98331652083337,"instrument":7,"program":21,"isDrum":false},{"pitch":66,"velocity":110,"startTime":175.043099,"endTime":175.11375102083335,"instrument":7,"program":21,"isDrum":false},{"pitch":66,"velocity":110,"startTime":175.17353350000002,"endTime":175.24962029166667,"instrument":7,"program":21,"isDrum":false},{"pitch":69,"velocity":110,"startTime":175.30396800000003,"endTime":175.40722864583336,"instrument":7,"program":21,"isDrum":false},{"pitch":69,"velocity":84,"startTime":175.4344025,"endTime":175.50505452083337,"instrument":7,"program":21,"isDrum":false},{"pitch":69,"velocity":110,"startTime":175.564837,"endTime":175.65722810416668,"instrument":7,"program":21,"isDrum":false},{"pitch":69,"velocity":75,"startTime":175.69527150000002,"endTime":175.77679306250002,"instrument":7,"program":21,"isDrum":false},{"pitch":66,"velocity":110,"startTime":175.82570600000003,"endTime":175.91809710416666,"instrument":7,"program":21,"isDrum":false},{"pitch":66,"velocity":110,"startTime":175.9561405,"endTime":176.02679252083337,"instrument":7,"program":21,"isDrum":false},{"pitch":66,"velocity":110,"startTime":176.086575,"endTime":176.16266179166666,"instrument":7,"program":21,"isDrum":false},{"pitch":66,"velocity":110,"startTime":176.21700950000002,"endTime":176.249618125,"instrument":7,"program":21,"isDrum":false},{"pitch":62,"velocity":110,"startTime":176.34744400000002,"endTime":176.445269875,"instrument":7,"program":21,"isDrum":false},{"pitch":62,"velocity":75,"startTime":176.4778785,"endTime":176.55396529166669,"instrument":7,"program":21,"isDrum":false},{"pitch":62,"velocity":99,"startTime":176.608313,"endTime":176.70070410416668,"instrument":7,"program":21,"isDrum":false},{"pitch":62,"velocity":84,"startTime":176.73874750000002,"endTime":176.81483429166667,"instrument":7,"program":21,"isDrum":false},{"pitch":60,"velocity":99,"startTime":176.86918200000002,"endTime":176.96157310416666,"instrument":7,"program":21,"isDrum":false},{"pitch":60,"velocity":84,"startTime":176.9996165,"endTime":177.0811380625,"instrument":7,"program":21,"isDrum":false},{"pitch":60,"velocity":99,"startTime":177.130051,"endTime":177.2115725625,"instrument":7,"program":21,"isDrum":false},{"pitch":60,"velocity":75,"startTime":177.26048550000002,"endTime":177.33657229166667,"instrument":7,"program":21,"isDrum":false},{"pitch":57,"velocity":99,"startTime":177.39092000000002,"endTime":177.48331110416666,"instrument":7,"program":21,"isDrum":false},{"pitch":57,"velocity":75,"startTime":177.52135450000003,"endTime":177.59744129166668,"instrument":7,"program":21,"isDrum":false},{"pitch":57,"velocity":84,"startTime":177.651789,"endTime":177.73874533333336,"instrument":7,"program":21,"isDrum":false},{"pitch":57,"velocity":75,"startTime":177.78222350000001,"endTime":177.85831029166667,"instrument":7,"program":21,"isDrum":false},{"pitch":54,"velocity":110,"startTime":177.91265800000002,"endTime":177.99961433333337,"instrument":7,"program":21,"isDrum":false},{"pitch":54,"velocity":110,"startTime":178.04309250000003,"endTime":178.11917929166668,"instrument":7,"program":21,"isDrum":false},{"pitch":54,"velocity":75,"startTime":178.173527,"endTime":178.27678764583337,"instrument":7,"program":21,"isDrum":false},{"pitch":54,"velocity":99,"startTime":178.3039615,"endTime":178.39091783333336,"instrument":7,"program":21,"isDrum":false},{"pitch":50,"velocity":110,"startTime":178.43439600000002,"endTime":178.53765664583335,"instrument":7,"program":21,"isDrum":false},{"pitch":50,"velocity":75,"startTime":178.56483050000003,"endTime":178.64091729166668,"instrument":7,"program":21,"isDrum":false},{"pitch":50,"velocity":84,"startTime":178.695265,"endTime":178.78765610416667,"instrument":7,"program":21,"isDrum":false},{"pitch":50,"velocity":75,"startTime":178.8256995,"endTime":178.90178629166667,"instrument":7,"program":21,"isDrum":false},{"pitch":54,"velocity":110,"startTime":178.95613400000002,"endTime":179.03765556250002,"instrument":7,"program":21,"isDrum":false},{"pitch":54,"velocity":99,"startTime":179.08656850000003,"endTime":179.14635097916667,"instrument":7,"program":21,"isDrum":false},{"pitch":54,"velocity":110,"startTime":179.217003,"endTime":179.29308979166666,"instrument":7,"program":21,"isDrum":false},{"pitch":54,"velocity":110,"startTime":179.3474375,"endTime":179.41808952083335,"instrument":7,"program":21,"isDrum":false},{"pitch":55,"velocity":110,"startTime":179.47787200000002,"endTime":179.58113264583335,"instrument":7,"program":21,"isDrum":false},{"pitch":55,"velocity":84,"startTime":179.60830650000003,"endTime":179.68439329166668,"instrument":7,"program":21,"isDrum":false},{"pitch":55,"velocity":110,"startTime":179.738741,"endTime":179.83113210416667,"instrument":7,"program":21,"isDrum":false},{"pitch":55,"velocity":84,"startTime":179.8691755,"endTime":179.93982752083335,"instrument":7,"program":21,"isDrum":false},{"pitch":50,"velocity":99,"startTime":179.99961000000002,"endTime":180.08113156250002,"instrument":7,"program":21,"isDrum":false},{"pitch":50,"velocity":84,"startTime":180.13004450000003,"endTime":180.21156606250003,"instrument":7,"program":21,"isDrum":false},{"pitch":50,"velocity":84,"startTime":180.260479,"endTime":180.35287010416667,"instrument":7,"program":21,"isDrum":false},{"pitch":50,"velocity":75,"startTime":180.3909135,"endTime":180.48330460416668,"instrument":7,"program":21,"isDrum":false},{"pitch":58,"velocity":110,"startTime":180.52134800000002,"endTime":180.59200002083335,"instrument":7,"program":21,"isDrum":false},{"pitch":58,"velocity":110,"startTime":180.65178250000002,"endTime":180.7006954375,"instrument":7,"program":21,"isDrum":false},{"pitch":58,"velocity":110,"startTime":180.782217,"endTime":180.85830379166669,"instrument":7,"program":21,"isDrum":false},{"pitch":58,"velocity":99,"startTime":180.9126515,"endTime":180.95612966666667,"instrument":7,"program":21,"isDrum":false},{"pitch":55,"velocity":99,"startTime":181.04308600000002,"endTime":181.13547710416668,"instrument":7,"program":21,"isDrum":false},{"pitch":55,"velocity":84,"startTime":181.17352050000002,"endTime":181.24417252083336,"instrument":7,"program":21,"isDrum":false},{"pitch":55,"velocity":110,"startTime":181.303955,"endTime":181.38004179166668,"instrument":7,"program":21,"isDrum":false},{"pitch":55,"velocity":75,"startTime":181.4343895,"endTime":181.51047629166666,"instrument":7,"program":21,"isDrum":false},{"pitch":62,"velocity":99,"startTime":181.56482400000002,"endTime":181.63547602083335,"instrument":7,"program":21,"isDrum":false},{"pitch":62,"velocity":99,"startTime":181.69525850000002,"endTime":181.76591052083336,"instrument":7,"program":21,"isDrum":false},{"pitch":62,"velocity":99,"startTime":181.82569300000003,"endTime":181.91264933333335,"instrument":7,"program":21,"isDrum":false},{"pitch":62,"velocity":75,"startTime":181.9561275,"endTime":182.02677952083337,"instrument":7,"program":21,"isDrum":false},{"pitch":58,"velocity":110,"startTime":182.08656200000001,"endTime":182.15721402083335,"instrument":7,"program":21,"isDrum":false},{"pitch":58,"velocity":110,"startTime":182.21699650000002,"endTime":182.27677897916666,"instrument":7,"program":21,"isDrum":false},{"pitch":58,"velocity":110,"startTime":182.34743100000003,"endTime":182.41808302083336,"instrument":7,"program":21,"isDrum":false},{"pitch":58,"velocity":110,"startTime":182.4778655,"endTime":182.53764797916668,"instrument":7,"program":21,"isDrum":false},{"pitch":62,"velocity":99,"startTime":182.6083,"endTime":182.69525633333336,"instrument":7,"program":21,"isDrum":false},{"pitch":62,"velocity":100,"startTime":182.73873450000002,"endTime":182.836560375,"instrument":7,"program":21,"isDrum":false},{"pitch":62,"velocity":96,"startTime":182.86916900000003,"endTime":182.94525579166668,"instrument":7,"program":21,"isDrum":false},{"pitch":62,"velocity":104,"startTime":182.9996035,"endTime":183.09742937500002,"instrument":7,"program":21,"isDrum":false},{"pitch":59,"velocity":99,"startTime":183.130038,"endTime":183.22786387500003,"instrument":7,"program":21,"isDrum":false},{"pitch":59,"velocity":84,"startTime":183.26047250000002,"endTime":183.33655929166667,"instrument":7,"program":21,"isDrum":false},{"pitch":59,"velocity":99,"startTime":183.39090700000003,"endTime":183.47242856250003,"instrument":7,"program":21,"isDrum":false},{"pitch":59,"velocity":99,"startTime":183.5213415,"endTime":183.6028630625,"instrument":7,"program":21,"isDrum":false},{"pitch":60,"velocity":110,"startTime":183.651776,"endTime":183.73873233333336,"instrument":7,"program":21,"isDrum":false},{"pitch":60,"velocity":75,"startTime":183.78221050000002,"endTime":183.85829729166667,"instrument":7,"program":21,"isDrum":false},{"pitch":60,"velocity":84,"startTime":183.91264500000003,"endTime":183.99416656250003,"instrument":7,"program":21,"isDrum":false},{"pitch":60,"velocity":84,"startTime":184.0430795,"endTime":184.11916629166666,"instrument":7,"program":21,"isDrum":false},{"pitch":63,"velocity":110,"startTime":184.173514,"endTime":184.23873125000003,"instrument":7,"program":21,"isDrum":false},{"pitch":63,"velocity":110,"startTime":184.30394850000002,"endTime":184.35829620833337,"instrument":7,"program":21,"isDrum":false},{"pitch":63,"velocity":110,"startTime":184.43438300000003,"endTime":184.51046979166668,"instrument":7,"program":21,"isDrum":false},{"pitch":63,"velocity":110,"startTime":184.5648175,"endTime":184.63546952083337,"instrument":7,"program":21,"isDrum":false},{"pitch":67,"velocity":99,"startTime":184.695252,"endTime":184.78220833333336,"instrument":7,"program":21,"isDrum":false},{"pitch":67,"velocity":75,"startTime":184.82568650000002,"endTime":184.89633852083335,"instrument":7,"program":21,"isDrum":false},{"pitch":67,"velocity":99,"startTime":184.95612100000002,"endTime":185.053946875,"instrument":7,"program":21,"isDrum":false},{"pitch":67,"velocity":84,"startTime":185.0865555,"endTime":185.15720752083337,"instrument":7,"program":21,"isDrum":false},{"pitch":66,"velocity":110,"startTime":185.21699,"endTime":185.29307679166666,"instrument":7,"program":21,"isDrum":false},{"pitch":66,"velocity":110,"startTime":185.34742450000002,"endTime":185.41264175,"instrument":7,"program":21,"isDrum":false},{"pitch":66,"velocity":110,"startTime":185.47785900000002,"endTime":185.55394579166668,"instrument":7,"program":21,"isDrum":false},{"pitch":66,"velocity":110,"startTime":185.6082935,"endTime":185.68438029166668,"instrument":7,"program":21,"isDrum":false},{"pitch":67,"velocity":75,"startTime":185.738728,"endTime":185.84198864583337,"instrument":7,"program":21,"isDrum":false},{"pitch":67,"velocity":75,"startTime":185.86916250000002,"endTime":185.93437975,"instrument":7,"program":21,"isDrum":false},{"pitch":67,"velocity":99,"startTime":185.99959700000002,"endTime":186.09198810416666,"instrument":7,"program":21,"isDrum":false},{"pitch":67,"velocity":84,"startTime":186.13003150000003,"endTime":186.20611829166668,"instrument":7,"program":21,"isDrum":false},{"pitch":69,"velocity":99,"startTime":186.260466,"endTime":186.34742233333336,"instrument":7,"program":21,"isDrum":false},{"pitch":69,"velocity":84,"startTime":186.39090050000001,"endTime":186.47242206250002,"instrument":7,"program":21,"isDrum":false},{"pitch":69,"velocity":84,"startTime":186.52133500000002,"endTime":186.61372610416666,"instrument":7,"program":21,"isDrum":false},{"pitch":69,"velocity":99,"startTime":186.65176950000003,"endTime":186.72242152083336,"instrument":7,"program":21,"isDrum":false},{"pitch":70,"velocity":110,"startTime":186.782204,"endTime":186.85285602083337,"instrument":7,"program":21,"isDrum":false},{"pitch":70,"velocity":110,"startTime":186.9126385,"endTime":186.96698620833337,"instrument":7,"program":21,"isDrum":false},{"pitch":70,"velocity":110,"startTime":187.04307300000002,"endTime":187.11915979166668,"instrument":7,"program":21,"isDrum":false},{"pitch":70,"velocity":110,"startTime":187.17350750000003,"endTime":187.24415952083336,"instrument":7,"program":21,"isDrum":false},{"pitch":69,"velocity":110,"startTime":187.303942,"endTime":187.39089833333335,"instrument":7,"program":21,"isDrum":false},{"pitch":69,"velocity":84,"startTime":187.4343765,"endTime":187.5158980625,"instrument":7,"program":21,"isDrum":false},{"pitch":69,"velocity":84,"startTime":187.56481100000002,"endTime":187.65176733333337,"instrument":7,"program":21,"isDrum":false},{"pitch":69,"velocity":84,"startTime":187.69524550000003,"endTime":187.78220183333335,"instrument":7,"program":21,"isDrum":false},{"pitch":67,"velocity":99,"startTime":187.82568,"endTime":187.92350587500002,"instrument":7,"program":21,"isDrum":false},{"pitch":67,"velocity":84,"startTime":187.9561145,"endTime":188.0376360625,"instrument":7,"program":21,"isDrum":false},{"pitch":67,"velocity":84,"startTime":188.08654900000002,"endTime":188.15720102083336,"instrument":7,"program":21,"isDrum":false},{"pitch":67,"velocity":67,"startTime":188.21698350000003,"endTime":188.29307029166668,"instrument":7,"program":21,"isDrum":false},{"pitch":66,"velocity":110,"startTime":188.347418,"endTime":188.4235047916667,"instrument":7,"program":21,"isDrum":false},{"pitch":66,"velocity":110,"startTime":188.4778525,"endTime":188.54850452083335,"instrument":7,"program":21,"isDrum":false},{"pitch":66,"velocity":110,"startTime":188.60828700000002,"endTime":188.68980856250002,"instrument":7,"program":21,"isDrum":false},{"pitch":66,"velocity":110,"startTime":188.73872150000003,"endTime":188.79850397916667,"instrument":7,"program":21,"isDrum":false},{"pitch":65,"velocity":110,"startTime":188.869156,"endTime":188.9506775625,"instrument":7,"program":21,"isDrum":false},{"pitch":65,"velocity":84,"startTime":188.9995905,"endTime":189.0811120625,"instrument":7,"program":21,"isDrum":false},{"pitch":65,"velocity":99,"startTime":189.13002500000002,"endTime":189.22241610416668,"instrument":7,"program":21,"isDrum":false},{"pitch":65,"velocity":84,"startTime":189.26045950000002,"endTime":189.33654629166668,"instrument":7,"program":21,"isDrum":false},{"pitch":64,"velocity":110,"startTime":189.390894,"endTime":189.48328510416667,"instrument":7,"program":21,"isDrum":false},{"pitch":64,"velocity":75,"startTime":189.5213285,"endTime":189.60828483333336,"instrument":7,"program":21,"isDrum":false},{"pitch":64,"velocity":84,"startTime":189.65176300000002,"endTime":189.73871933333336,"instrument":7,"program":21,"isDrum":false},{"pitch":64,"velocity":75,"startTime":189.78219750000002,"endTime":189.86371906250002,"instrument":7,"program":21,"isDrum":false},{"pitch":63,"velocity":110,"startTime":189.91263200000003,"endTime":190.00502310416667,"instrument":7,"program":21,"isDrum":false},{"pitch":63,"velocity":110,"startTime":190.0430665,"endTime":190.11371852083337,"instrument":7,"program":21,"isDrum":false},{"pitch":63,"velocity":110,"startTime":190.17350100000002,"endTime":190.25502256250002,"instrument":7,"program":21,"isDrum":false},{"pitch":63,"velocity":110,"startTime":190.30393550000002,"endTime":190.36371797916667,"instrument":7,"program":21,"isDrum":false},{"pitch":62,"velocity":110,"startTime":190.43437000000003,"endTime":190.52132633333335,"instrument":7,"program":21,"isDrum":false},{"pitch":62,"velocity":84,"startTime":190.5648045,"endTime":190.64089129166666,"instrument":7,"program":21,"isDrum":false},{"pitch":62,"velocity":84,"startTime":190.69523900000002,"endTime":190.77676056250002,"instrument":7,"program":21,"isDrum":false},{"pitch":62,"velocity":75,"startTime":190.82567350000002,"endTime":190.91262983333337,"instrument":7,"program":21,"isDrum":false},{"pitch":61,"velocity":110,"startTime":190.95610800000003,"endTime":191.03762956250003,"instrument":7,"program":21,"isDrum":false},{"pitch":61,"velocity":110,"startTime":191.0865425,"endTime":191.15175975000002,"instrument":7,"program":21,"isDrum":false},{"pitch":61,"velocity":110,"startTime":191.216977,"endTime":191.29306379166667,"instrument":7,"program":21,"isDrum":false},{"pitch":61,"velocity":110,"startTime":191.34741150000002,"endTime":191.42349829166668,"instrument":7,"program":21,"isDrum":false},{"pitch":62,"velocity":99,"startTime":191.47784600000003,"endTime":191.58110664583336,"instrument":7,"program":21,"isDrum":false},{"pitch":62,"velocity":75,"startTime":191.6082805,"endTime":191.68436729166666,"instrument":7,"program":21,"isDrum":false},{"pitch":62,"velocity":99,"startTime":191.738715,"endTime":191.81480179166667,"instrument":7,"program":21,"isDrum":false},{"pitch":62,"velocity":84,"startTime":191.86914950000002,"endTime":191.94523629166667,"instrument":7,"program":21,"isDrum":false},{"pitch":63,"velocity":110,"startTime":191.99958400000003,"endTime":192.07023602083336,"instrument":7,"program":21,"isDrum":false},{"pitch":63,"velocity":110,"startTime":192.1300185,"endTime":192.20067052083337,"instrument":7,"program":21,"isDrum":false},{"pitch":63,"velocity":110,"startTime":192.260453,"endTime":192.3419745625,"instrument":7,"program":21,"isDrum":false},{"pitch":63,"velocity":110,"startTime":192.39088750000002,"endTime":192.43980043750003,"instrument":7,"program":21,"isDrum":false},{"pitch":62,"velocity":99,"startTime":192.52132200000003,"endTime":192.61371310416666,"instrument":7,"program":21,"isDrum":false},{"pitch":62,"velocity":84,"startTime":192.6517565,"endTime":192.7332780625,"instrument":7,"program":21,"isDrum":false},{"pitch":62,"velocity":84,"startTime":192.782191,"endTime":192.87458210416668,"instrument":7,"program":21,"isDrum":false},{"pitch":62,"velocity":75,"startTime":192.91262550000002,"endTime":192.99958183333337,"instrument":7,"program":21,"isDrum":false},{"pitch":60,"velocity":99,"startTime":193.04306000000003,"endTime":193.13545110416666,"instrument":7,"program":21,"isDrum":false},{"pitch":60,"velocity":75,"startTime":193.1734945,"endTime":193.2495812916667,"instrument":7,"program":21,"isDrum":false},{"pitch":60,"velocity":99,"startTime":193.303929,"endTime":193.40175487500002,"instrument":7,"program":21,"isDrum":false},{"pitch":60,"velocity":75,"startTime":193.43436350000002,"endTime":193.51045029166667,"instrument":7,"program":21,"isDrum":false},{"pitch":57,"velocity":84,"startTime":193.56479800000002,"endTime":193.65175433333337,"instrument":7,"program":21,"isDrum":false},{"pitch":57,"velocity":65,"startTime":193.6952325,"endTime":193.7767540625,"instrument":7,"program":21,"isDrum":false},{"pitch":57,"velocity":99,"startTime":193.825667,"endTime":193.91805810416668,"instrument":7,"program":21,"isDrum":false},{"pitch":57,"velocity":75,"startTime":193.95610150000002,"endTime":194.03218829166667,"instrument":7,"program":21,"isDrum":false},{"pitch":54,"velocity":110,"startTime":194.08653600000002,"endTime":194.16262279166668,"instrument":7,"program":21,"isDrum":false},{"pitch":54,"velocity":110,"startTime":194.21697050000003,"endTime":194.29305729166668,"instrument":7,"program":21,"isDrum":false},{"pitch":54,"velocity":110,"startTime":194.347405,"endTime":194.4289265625,"instrument":7,"program":21,"isDrum":false},{"pitch":54,"velocity":110,"startTime":194.47783950000002,"endTime":194.53218720833337,"instrument":7,"program":21,"isDrum":false},{"pitch":50,"velocity":110,"startTime":194.60827400000002,"endTime":194.68979556250002,"instrument":7,"program":21,"isDrum":false},{"pitch":50,"velocity":75,"startTime":194.73870850000003,"endTime":194.80936052083337,"instrument":7,"program":21,"isDrum":false},{"pitch":50,"velocity":99,"startTime":194.869143,"endTime":194.95609933333336,"instrument":7,"program":21,"isDrum":false},{"pitch":50,"velocity":75,"startTime":194.99957750000002,"endTime":195.08109906250002,"instrument":7,"program":21,"isDrum":false},{"pitch":54,"velocity":110,"startTime":195.13001200000002,"endTime":195.21153356250002,"instrument":7,"program":21,"isDrum":false},{"pitch":54,"velocity":99,"startTime":195.26044650000003,"endTime":195.31479420833335,"instrument":7,"program":21,"isDrum":false},{"pitch":54,"velocity":110,"startTime":195.390881,"endTime":195.4724025625,"instrument":7,"program":21,"isDrum":false},{"pitch":54,"velocity":99,"startTime":195.52131550000001,"endTime":195.60827183333336,"instrument":7,"program":21,"isDrum":false},{"pitch":57,"velocity":40,"startTime":195.65175000000002,"endTime":195.73327156250002,"instrument":7,"program":21,"isDrum":false},{"pitch":57,"velocity":60,"startTime":195.78218450000003,"endTime":195.84740175000002,"instrument":7,"program":21,"isDrum":false},{"pitch":57,"velocity":84,"startTime":195.912619,"endTime":195.9941405625,"instrument":7,"program":21,"isDrum":false},{"pitch":57,"velocity":75,"startTime":196.0430535,"endTime":196.11914029166667,"instrument":7,"program":21,"isDrum":false},{"pitch":55,"velocity":99,"startTime":196.17348800000002,"endTime":196.22783570833337,"instrument":7,"program":21,"isDrum":false},{"pitch":75,"velocity":110,"startTime":196.30392250000003,"endTime":196.38544406250003,"instrument":7,"program":21,"isDrum":false},{"pitch":74,"velocity":110,"startTime":196.434357,"endTime":196.53761764583336,"instrument":7,"program":21,"isDrum":false},{"pitch":72,"velocity":75,"startTime":196.5647915,"endTime":196.65718260416668,"instrument":7,"program":21,"isDrum":false},{"pitch":70,"velocity":110,"startTime":196.69522600000002,"endTime":196.78218233333337,"instrument":7,"program":21,"isDrum":false},{"pitch":69,"velocity":99,"startTime":196.82566050000003,"endTime":196.90718206250003,"instrument":7,"program":21,"isDrum":false},{"pitch":67,"velocity":99,"startTime":196.956095,"endTime":197.04848610416667,"instrument":7,"program":21,"isDrum":false},{"pitch":66,"velocity":110,"startTime":197.0865295,"endTime":197.19522491666666,"instrument":7,"program":21,"isDrum":false},{"pitch":63,"velocity":110,"startTime":197.21696400000002,"endTime":197.3310941875,"instrument":7,"program":21,"isDrum":false},{"pitch":62,"velocity":99,"startTime":197.34739850000003,"endTime":197.445224375,"instrument":7,"program":21,"isDrum":false},{"pitch":60,"velocity":75,"startTime":197.477833,"endTime":197.57022410416667,"instrument":7,"program":21,"isDrum":false},{"pitch":58,"velocity":110,"startTime":197.6082675,"endTime":197.70609337500002,"instrument":7,"program":21,"isDrum":false},{"pitch":57,"velocity":99,"startTime":197.73870200000002,"endTime":197.83109310416668,"instrument":7,"program":21,"isDrum":false},{"pitch":55,"velocity":75,"startTime":197.86913650000002,"endTime":197.966962375,"instrument":7,"program":21,"isDrum":false},{"pitch":54,"velocity":110,"startTime":197.999571,"endTime":198.09196210416667,"instrument":7,"program":21,"isDrum":false},{"pitch":57,"velocity":99,"startTime":198.1300055,"endTime":198.23326614583337,"instrument":7,"program":21,"isDrum":false},{"pitch":55,"velocity":84,"startTime":198.26044000000002,"endTime":198.34739633333336,"instrument":7,"program":21,"isDrum":false},{"pitch":62,"velocity":110,"startTime":198.488700375,"endTime":199.21695966666667,"instrument":7,"program":21,"isDrum":false},{"pitch":60,"velocity":75,"startTime":198.75500414583337,"endTime":199.23326397916668,"instrument":7,"program":21,"isDrum":false},{"pitch":66,"velocity":110,"startTime":198.7604389166667,"endTime":199.21695966666667,"instrument":7,"program":21,"isDrum":false},{"pitch":67,"velocity":65,"startTime":199.22782920833336,"endTime":199.40174187500003,"instrument":7,"program":21,"isDrum":false},{"pitch":62,"velocity":99,"startTime":199.24413352083337,"endTime":199.39630710416668,"instrument":7,"program":21,"isDrum":false},{"pitch":58,"velocity":110,"startTime":199.24956829166666,"endTime":199.39630710416668,"instrument":7,"program":21,"isDrum":false}],"totalTime":199.64630656250003,"sourceInfo":{"encodingType":"MIDI","parser":"TONEJS_MIDI_CONVERT"}},"sequence":{"filename":"cumparsita_tango.mid","ticksPerQuarter":192,"timeSignatures":[{"time":0,"numerator":4,"denominator":4}],"tempos":[{"time":0,"qpm":115.00024916720653}],"notes":[{"pitch":38,"velocity":55,"startTime":0,"endTime":0.05434770833333369,"instrument":0,"program":0,"isDrum":true},{"pitch":38,"velocity":85,"startTime":0,"endTime":0.05434770833333369,"instrument":0,"program":0,"isDrum":true},{"pitch":51,"velocity":87,"startTime":0,"endTime":0.10326064583333361,"instrument":0,"program":0,"isDrum":true},{"pitch":38,"velocity":55,"startTime":0.521738,"endTime":0.5869552499999999,"instrument":0,"program":0,"isDrum":true},{"pitch":38,"velocity":85,"startTime":0.521738,"endTime":0.5869552499999999,"instrument":0,"program":0,"isDrum":true},{"pitch":44,"velocity":95,"startTime":0.521738,"endTime":0.6304334166666665,"instrument":0,"program":0,"isDrum":true},{"pitch":38,"velocity":55,"startTime":1.043476,"endTime":1.10869325,"instrument":0,"program":0,"isDrum":true},{"pitch":38,"velocity":85,"startTime":1.043476,"endTime":1.10869325,"instrument":0,"program":0,"isDrum":true},{"pitch":44,"velocity":95,"startTime":1.043476,"endTime":1.1467366458333337,"instrument":0,"program":0,"isDrum":true},{"pitch":38,"velocity":55,"startTime":1.565214,"endTime":1.63043125,"instrument":0,"program":0,"isDrum":true},{"pitch":38,"velocity":85,"startTime":1.565214,"endTime":1.63043125,"instrument":0,"program":0,"isDrum":true},{"pitch":44,"velocity":95,"startTime":1.565214,"endTime":1.6684746458333337,"instrument":0,"program":0,"isDrum":true},{"pitch":38,"velocity":34,"startTime":1.8260830000000001,"endTime":1.8695611666666667,"instrument":0,"program":0,"isDrum":true},{"pitch":46,"velocity":69,"startTime":1.8260830000000001,"endTime":2.0760824583333335,"instrument":0,"program":0,"isDrum":true},{"pitch":38,"velocity":39,"startTime":1.8695611666666667,"endTime":1.9130393333333338,"instrument":0,"program":0,"isDrum":true},{"pitch":38,"velocity":39,"startTime":1.9130393333333338,"endTime":1.9565175000000004,"instrument":0,"program":0,"isDrum":true},{"pitch":38,"velocity":42,"startTime":1.9565175000000004,"endTime":1.999995666666667,"instrument":0,"program":0,"isDrum":true},{"pitch":38,"velocity":48,"startTime":1.999995666666667,"endTime":2.0434738333333335,"instrument":0,"program":0,"isDrum":true},{"pitch":38,"velocity":53,"startTime":2.0434738333333335,"endTime":2.086952,"instrument":0,"program":0,"isDrum":true},{"pitch":38,"velocity":55,"startTime":2.086952,"endTime":2.15216925,"instrument":0,"program":0,"isDrum":true},{"pitch":38,"velocity":85,"startTime":2.086952,"endTime":2.15216925,"instrument":0,"program":0,"isDrum":true},{"pitch":44,"velocity":95,"startTime":2.086952,"endTime":2.1956474166666675,"instrument":0,"program":0,"isDrum":true},{"pitch":38,"velocity":55,"startTime":2.60869,"endTime":2.67390725,"instrument":0,"program":0,"isDrum":true},{"pitch":38,"velocity":85,"startTime":2.60869,"endTime":2.67390725,"instrument":0,"program":0,"isDrum":true},{"pitch":44,"velocity":95,"startTime":2.60869,"endTime":2.7119506458333333,"instrument":0,"program":0,"isDrum":true},{"pitch":38,"velocity":55,"startTime":3.130428,"endTime":3.19564525,"instrument":0,"program":0,"isDrum":true},{"pitch":38,"velocity":85,"startTime":3.130428,"endTime":3.19564525,"instrument":0,"program":0,"isDrum":true},{"pitch":44,"velocity":95,"startTime":3.130428,"endTime":3.2391234166666676,"instrument":0,"program":0,"isDrum":true},{"pitch":38,"velocity":55,"startTime":3.6521660000000002,"endTime":3.71738325,"instrument":0,"program":0,"isDrum":true},{"pitch":38,"velocity":85,"startTime":3.6521660000000002,"endTime":3.71738325,"instrument":0,"program":0,"isDrum":true},{"pitch":44,"velocity":95,"startTime":3.6521660000000002,"endTime":3.7608614166666676,"instrument":0,"program":0,"isDrum":true},{"pitch":38,"velocity":34,"startTime":3.9130350000000007,"endTime":3.9565131666666673,"instrument":0,"program":0,"isDrum":true},{"pitch":46,"velocity":69,"startTime":3.9130350000000007,"endTime":4.163034458333334,"instrument":0,"program":0,"isDrum":true},{"pitch":38,"velocity":39,"startTime":3.9565131666666673,"endTime":3.999991333333333,"instrument":0,"program":0,"isDrum":true},{"pitch":38,"velocity":39,"startTime":3.999991333333333,"endTime":4.0434695000000005,"instrument":0,"program":0,"isDrum":true},{"pitch":38,"velocity":42,"startTime":4.0434695000000005,"endTime":4.086947666666667,"instrument":0,"program":0,"isDrum":true},{"pitch":38,"velocity":48,"startTime":4.086947666666667,"endTime":4.130425833333334,"instrument":0,"program":0,"isDrum":true},{"pitch":38,"velocity":53,"startTime":4.130425833333334,"endTime":4.173904,"instrument":0,"program":0,"isDrum":true},{"pitch":38,"velocity":55,"startTime":4.173904,"endTime":4.23912125,"instrument":0,"program":0,"isDrum":true},{"pitch":38,"velocity":85,"startTime":4.173904,"endTime":4.23912125,"instrument":0,"program":0,"isDrum":true},{"pitch":44,"velocity":95,"startTime":4.173904,"endTime":4.282599416666668,"instrument":0,"program":0,"isDrum":true},{"pitch":38,"velocity":55,"startTime":4.695642,"endTime":4.76085925,"instrument":0,"program":0,"isDrum":true},{"pitch":38,"velocity":85,"startTime":4.695642,"endTime":4.76085925,"instrument":0,"program":0,"isDrum":true},{"pitch":44,"velocity":95,"startTime":4.695642,"endTime":4.804337416666668,"instrument":0,"program":0,"isDrum":true},{"pitch":38,"velocity":55,"startTime":5.21738,"endTime":5.28259725,"instrument":0,"program":0,"isDrum":true},{"pitch":38,"velocity":85,"startTime":5.21738,"endTime":5.28259725,"instrument":0,"program":0,"isDrum":true},{"pitch":44,"velocity":95,"startTime":5.21738,"endTime":5.315205875,"instrument":0,"program":0,"isDrum":true},{"pitch":38,"velocity":55,"startTime":5.739118,"endTime":5.80433525,"instrument":0,"program":0,"isDrum":true},{"pitch":38,"velocity":85,"startTime":5.739118,"endTime":5.80433525,"instrument":0,"program":0,"isDrum":true},{"pitch":44,"velocity":95,"startTime":5.739118,"endTime":5.8423786458333336,"instrument":0,"program":0,"isDrum":true},{"pitch":38,"velocity":34,"startTime":5.999987000000001,"endTime":6.043465166666667,"instrument":0,"program":0,"isDrum":true},{"pitch":46,"velocity":69,"startTime":5.999987000000001,"endTime":6.249986458333334,"instrument":0,"program":0,"isDrum":true},{"pitch":38,"velocity":39,"startTime":6.043465166666667,"endTime":6.086943333333334,"instrument":0,"program":0,"isDrum":true},{"pitch":38,"velocity":39,"startTime":6.086943333333334,"endTime":6.130421500000001,"instrument":0,"program":0,"isDrum":true},{"pitch":38,"velocity":42,"startTime":6.130421500000001,"endTime":6.173899666666667,"instrument":0,"program":0,"isDrum":true},{"pitch":38,"velocity":48,"startTime":6.173899666666667,"endTime":6.217377833333334,"instrument":0,"program":0,"isDrum":true},{"pitch":38,"velocity":53,"startTime":6.217377833333334,"endTime":6.260856,"instrument":0,"program":0,"isDrum":true},{"pitch":38,"velocity":55,"startTime":6.260856,"endTime":6.32607325,"instrument":0,"program":0,"isDrum":true},{"pitch":38,"velocity":85,"startTime":6.260856,"endTime":6.32607325,"instrument":0,"program":0,"isDrum":true},{"pitch":44,"velocity":95,"startTime":6.260856,"endTime":6.385855729166666,"instrument":0,"program":0,"isDrum":true},{"pitch":38,"velocity":55,"startTime":6.782594,"endTime":6.847811250000001,"instrument":0,"program":0,"isDrum":true},{"pitch":38,"velocity":85,"startTime":6.782594,"endTime":6.847811250000001,"instrument":0,"program":0,"isDrum":true},{"pitch":44,"velocity":95,"startTime":6.782594,"endTime":6.8967241875,"instrument":0,"program":0,"isDrum":true},{"pitch":38,"velocity":55,"startTime":7.3043320000000005,"endTime":7.36954925,"instrument":0,"program":0,"isDrum":true},{"pitch":38,"velocity":85,"startTime":7.3043320000000005,"endTime":7.36954925,"instrument":0,"program":0,"isDrum":true},{"pitch":44,"velocity":95,"startTime":7.3043320000000005,"endTime":7.4075926458333345,"instrument":0,"program":0,"isDrum":true},{"pitch":38,"velocity":55,"startTime":7.826070000000001,"endTime":7.891287250000001,"instrument":0,"program":0,"isDrum":true},{"pitch":38,"velocity":85,"startTime":7.826070000000001,"endTime":7.891287250000001,"instrument":0,"program":0,"isDrum":true},{"pitch":44,"velocity":95,"startTime":7.826070000000001,"endTime":7.923895875000001,"instrument":0,"program":0,"isDrum":true},{"pitch":38,"velocity":34,"startTime":8.086939000000001,"endTime":8.130417166666666,"instrument":0,"program":0,"isDrum":true},{"pitch":46,"velocity":69,"startTime":8.086939000000001,"endTime":8.336938458333334,"instrument":0,"program":0,"isDrum":true},{"pitch":38,"velocity":39,"startTime":8.130417166666666,"endTime":8.173895333333334,"instrument":0,"program":0,"isDrum":true},{"pitch":38,"velocity":39,"startTime":8.173895333333334,"endTime":8.2173735,"instrument":0,"program":0,"isDrum":true},{"pitch":38,"velocity":42,"startTime":8.2173735,"endTime":8.260851666666667,"instrument":0,"program":0,"isDrum":true},{"pitch":38,"velocity":48,"startTime":8.260851666666667,"endTime":8.304329833333334,"instrument":0,"program":0,"isDrum":true},{"pitch":38,"velocity":53,"startTime":8.304329833333334,"endTime":8.347808,"instrument":0,"program":0,"isDrum":true},{"pitch":38,"velocity":55,"startTime":8.347808,"endTime":8.41302525,"instrument":0,"program":0,"isDrum":true},{"pitch":38,"velocity":85,"startTime":8.347808,"endTime":8.41302525,"instrument":0,"program":0,"isDrum":true},{"pitch":44,"velocity":95,"startTime":8.347808,"endTime":8.456503416666667,"instrument":0,"program":0,"isDrum":true},{"pitch":38,"velocity":55,"startTime":8.869546,"endTime":8.934763250000001,"instrument":0,"program":0,"isDrum":true},{"pitch":38,"velocity":85,"startTime":8.869546,"endTime":8.934763250000001,"instrument":0,"program":0,"isDrum":true},{"pitch":44,"velocity":95,"startTime":8.869546,"endTime":8.972806645833334,"instrument":0,"program":0,"isDrum":true},{"pitch":38,"velocity":55,"startTime":9.391284,"endTime":9.45650125,"instrument":0,"program":0,"isDrum":true},{"pitch":38,"velocity":85,"startTime":9.391284,"endTime":9.45650125,"instrument":0,"program":0,"isDrum":true},{"pitch":44,"velocity":95,"startTime":9.391284,"endTime":9.489109875,"instrument":0,"program":0,"isDrum":true},{"pitch":38,"velocity":55,"startTime":9.913022000000002,"endTime":9.978239250000001,"instrument":0,"program":0,"isDrum":true},{"pitch":38,"velocity":85,"startTime":9.913022000000002,"endTime":9.978239250000001,"instrument":0,"program":0,"isDrum":true},{"pitch":44,"velocity":95,"startTime":9.913022000000002,"endTime":10.005413104166667,"instrument":0,"program":0,"isDrum":true},{"pitch":38,"velocity":34,"startTime":10.173891000000001,"endTime":10.217369166666666,"instrument":0,"program":0,"isDrum":true},{"pitch":46,"velocity":69,"startTime":10.173891000000001,"endTime":10.423890458333334,"instrument":0,"program":0,"isDrum":true},{"pitch":38,"velocity":39,"startTime":10.217369166666666,"endTime":10.260847333333334,"instrument":0,"program":0,"isDrum":true},{"pitch":38,"velocity":39,"startTime":10.260847333333334,"endTime":10.304325500000001,"instrument":0,"program":0,"isDrum":true},{"pitch":38,"velocity":42,"startTime":10.304325500000001,"endTime":10.347803666666668,"instrument":0,"program":0,"isDrum":true},{"pitch":38,"velocity":48,"startTime":10.347803666666668,"endTime":10.391281833333334,"instrument":0,"program":0,"isDrum":true},{"pitch":38,"velocity":53,"startTime":10.391281833333334,"endTime":10.43476,"instrument":0,"program":0,"isDrum":true},{"pitch":38,"velocity":55,"startTime":10.43476,"endTime":10.489107708333334,"instrument":0,"program":0,"isDrum":true},{"pitch":38,"velocity":85,"startTime":10.43476,"endTime":10.489107708333334,"instrument":0,"program":0,"isDrum":true},{"pitch":44,"velocity":95,"startTime":10.43476,"endTime":10.538020645833335,"instrument":0,"program":0,"isDrum":true},{"pitch":38,"velocity":55,"startTime":10.956498,"endTime":11.021715250000002,"instrument":0,"program":0,"isDrum":true},{"pitch":38,"velocity":85,"startTime":10.956498,"endTime":11.021715250000002,"instrument":0,"program":0,"isDrum":true},{"pitch":44,"velocity":95,"startTime":10.956498,"endTime":11.065193416666666,"instrument":0,"program":0,"isDrum":true},{"pitch":38,"velocity":55,"startTime":11.478236,"endTime":11.54345325,"instrument":0,"program":0,"isDrum":true},{"pitch":38,"velocity":85,"startTime":11.478236,"endTime":11.54345325,"instrument":0,"program":0,"isDrum":true},{"pitch":44,"velocity":95,"startTime":11.478236,"endTime":11.581496645833335,"instrument":0,"program":0,"isDrum":true},{"pitch":38,"velocity":55,"startTime":11.999974000000002,"endTime":12.065191250000002,"instrument":0,"program":0,"isDrum":true},{"pitch":38,"velocity":85,"startTime":11.999974000000002,"endTime":12.065191250000002,"instrument":0,"program":0,"isDrum":true},{"pitch":44,"velocity":95,"startTime":11.999974000000002,"endTime":12.103234645833334,"instrument":0,"program":0,"isDrum":true},{"pitch":38,"velocity":34,"startTime":12.260843000000001,"endTime":12.304321166666666,"instrument":0,"program":0,"isDrum":true},{"pitch":46,"velocity":69,"startTime":12.260843000000001,"endTime":12.510842458333334,"instrument":0,"program":0,"isDrum":true},{"pitch":38,"velocity":39,"startTime":12.304321166666666,"endTime":12.347799333333334,"instrument":0,"program":0,"isDrum":true},{"pitch":38,"velocity":39,"startTime":12.347799333333334,"endTime":12.391277500000001,"instrument":0,"program":0,"isDrum":true},{"pitch":38,"velocity":42,"startTime":12.391277500000001,"endTime":12.434755666666668,"instrument":0,"program":0,"isDrum":true},{"pitch":38,"velocity":48,"startTime":12.434755666666668,"endTime":12.478233833333334,"instrument":0,"program":0,"isDrum":true},{"pitch":38,"velocity":53,"startTime":12.478233833333334,"endTime":12.521712,"instrument":0,"program":0,"isDrum":true},{"pitch":38,"velocity":55,"startTime":12.521712,"endTime":12.58692925,"instrument":0,"program":0,"isDrum":true},{"pitch":38,"velocity":85,"startTime":12.521712,"endTime":12.58692925,"instrument":0,"program":0,"isDrum":true},{"pitch":44,"velocity":95,"startTime":12.521712,"endTime":12.630407416666667,"instrument":0,"program":0,"isDrum":true},{"pitch":38,"velocity":55,"startTime":13.04345,"endTime":13.108667250000002,"instrument":0,"program":0,"isDrum":true},{"pitch":38,"velocity":85,"startTime":13.04345,"endTime":13.108667250000002,"instrument":0,"program":0,"isDrum":true},{"pitch":44,"velocity":95,"startTime":13.04345,"endTime":13.146710645833334,"instrument":0,"program":0,"isDrum":true},{"pitch":38,"velocity":55,"startTime":13.565188000000001,"endTime":13.63040525,"instrument":0,"program":0,"isDrum":true},{"pitch":38,"velocity":85,"startTime":13.565188000000001,"endTime":13.63040525,"instrument":0,"program":0,"isDrum":true},{"pitch":44,"velocity":95,"startTime":13.565188000000001,"endTime":13.673883416666667,"instrument":0,"program":0,"isDrum":true},{"pitch":38,"velocity":55,"startTime":14.086926000000002,"endTime":14.152143250000002,"instrument":0,"program":0,"isDrum":true},{"pitch":38,"velocity":85,"startTime":14.086926000000002,"endTime":14.152143250000002,"instrument":0,"program":0,"isDrum":true},{"pitch":44,"velocity":95,"startTime":14.086926000000002,"endTime":14.195621416666668,"instrument":0,"program":0,"isDrum":true},{"pitch":38,"velocity":34,"startTime":14.347795000000001,"endTime":14.391273166666668,"instrument":0,"program":0,"isDrum":true},{"pitch":46,"velocity":69,"startTime":14.347795000000001,"endTime":14.597794458333336,"instrument":0,"program":0,"isDrum":true},{"pitch":38,"velocity":39,"startTime":14.391273166666668,"endTime":14.434751333333335,"instrument":0,"program":0,"isDrum":true},{"pitch":38,"velocity":39,"startTime":14.434751333333335,"endTime":14.478229500000001,"instrument":0,"program":0,"isDrum":true},{"pitch":38,"velocity":42,"startTime":14.478229500000001,"endTime":14.521707666666668,"instrument":0,"program":0,"isDrum":true},{"pitch":38,"velocity":48,"startTime":14.521707666666668,"endTime":14.565185833333334,"instrument":0,"program":0,"isDrum":true},{"pitch":38,"velocity":53,"startTime":14.565185833333334,"endTime":14.608664000000001,"instrument":0,"program":0,"isDrum":true},{"pitch":38,"velocity":55,"startTime":14.608664000000001,"endTime":14.67388125,"instrument":0,"program":0,"isDrum":true},{"pitch":38,"velocity":85,"startTime":14.608664000000001,"endTime":14.67388125,"instrument":0,"program":0,"isDrum":true},{"pitch":44,"velocity":95,"startTime":14.608664000000001,"endTime":14.717359416666667,"instrument":0,"program":0,"isDrum":true},{"pitch":38,"velocity":55,"startTime":15.130402,"endTime":15.19561925,"instrument":0,"program":0,"isDrum":true},{"pitch":38,"velocity":85,"startTime":15.130402,"endTime":15.19561925,"instrument":0,"program":0,"isDrum":true},{"pitch":44,"velocity":95,"startTime":15.130402,"endTime":15.23909741666667,"instrument":0,"program":0,"isDrum":true},{"pitch":38,"velocity":55,"startTime":15.65214,"endTime":15.717357250000003,"instrument":0,"program":0,"isDrum":true},{"pitch":38,"velocity":85,"startTime":15.65214,"endTime":15.717357250000003,"instrument":0,"program":0,"isDrum":true},{"pitch":44,"velocity":95,"startTime":15.65214,"endTime":15.749965875000001,"instrument":0,"program":0,"isDrum":true},{"pitch":38,"velocity":55,"startTime":16.173878000000002,"endTime":16.239095250000002,"instrument":0,"program":0,"isDrum":true},{"pitch":38,"velocity":85,"startTime":16.173878000000002,"endTime":16.239095250000002,"instrument":0,"program":0,"isDrum":true},{"pitch":44,"velocity":95,"startTime":16.173878000000002,"endTime":16.277138645833332,"instrument":0,"program":0,"isDrum":true},{"pitch":38,"velocity":34,"startTime":16.434747,"endTime":16.478225166666668,"instrument":0,"program":0,"isDrum":true},{"pitch":46,"velocity":69,"startTime":16.434747,"endTime":16.684746458333333,"instrument":0,"program":0,"isDrum":true},{"pitch":38,"velocity":39,"startTime":16.478225166666668,"endTime":16.521703333333335,"instrument":0,"program":0,"isDrum":true},{"pitch":38,"velocity":39,"startTime":16.521703333333335,"endTime":16.5651815,"instrument":0,"program":0,"isDrum":true},{"pitch":38,"velocity":42,"startTime":16.5651815,"endTime":16.608659666666668,"instrument":0,"program":0,"isDrum":true},{"pitch":38,"velocity":48,"startTime":16.608659666666668,"endTime":16.652137833333335,"instrument":0,"program":0,"isDrum":true},{"pitch":38,"velocity":53,"startTime":16.652137833333335,"endTime":16.695616,"instrument":0,"program":0,"isDrum":true},{"pitch":38,"velocity":55,"startTime":16.695616,"endTime":16.76083325,"instrument":0,"program":0,"isDrum":true},{"pitch":38,"velocity":85,"startTime":16.695616,"endTime":16.76083325,"instrument":0,"program":0,"isDrum":true},{"pitch":44,"velocity":95,"startTime":16.695616,"endTime":16.82061572916667,"instrument":0,"program":0,"isDrum":true},{"pitch":38,"velocity":55,"startTime":17.217354,"endTime":17.28257125,"instrument":0,"program":0,"isDrum":true},{"pitch":38,"velocity":85,"startTime":17.217354,"endTime":17.28257125,"instrument":0,"program":0,"isDrum":true},{"pitch":44,"velocity":95,"startTime":17.217354,"endTime":17.331484187500003,"instrument":0,"program":0,"isDrum":true},{"pitch":38,"velocity":55,"startTime":17.739092000000003,"endTime":17.804309250000003,"instrument":0,"program":0,"isDrum":true},{"pitch":38,"velocity":85,"startTime":17.739092000000003,"endTime":17.804309250000003,"instrument":0,"program":0,"isDrum":true},{"pitch":44,"velocity":95,"startTime":17.739092000000003,"endTime":17.842352645833333,"instrument":0,"program":0,"isDrum":true},{"pitch":38,"velocity":55,"startTime":18.260830000000002,"endTime":18.326047250000002,"instrument":0,"program":0,"isDrum":true},{"pitch":38,"velocity":85,"startTime":18.260830000000002,"endTime":18.326047250000002,"instrument":0,"program":0,"isDrum":true},{"pitch":44,"velocity":95,"startTime":18.260830000000002,"endTime":18.358655875,"instrument":0,"program":0,"isDrum":true},{"pitch":38,"velocity":34,"startTime":18.521699,"endTime":18.56517716666667,"instrument":0,"program":0,"isDrum":true},{"pitch":46,"velocity":69,"startTime":18.521699,"endTime":18.771698458333333,"instrument":0,"program":0,"isDrum":true},{"pitch":38,"velocity":39,"startTime":18.56517716666667,"endTime":18.608655333333335,"instrument":0,"program":0,"isDrum":true},{"pitch":38,"velocity":39,"startTime":18.608655333333335,"endTime":18.6521335,"instrument":0,"program":0,"isDrum":true},{"pitch":38,"velocity":42,"startTime":18.6521335,"endTime":18.695611666666668,"instrument":0,"program":0,"isDrum":true},{"pitch":38,"velocity":48,"startTime":18.695611666666668,"endTime":18.739089833333335,"instrument":0,"program":0,"isDrum":true},{"pitch":38,"velocity":53,"startTime":18.739089833333335,"endTime":18.782568,"instrument":0,"program":0,"isDrum":true},{"pitch":38,"velocity":55,"startTime":18.782568,"endTime":18.84778525,"instrument":0,"program":0,"isDrum":true},{"pitch":38,"velocity":85,"startTime":18.782568,"endTime":18.84778525,"instrument":0,"program":0,"isDrum":true},{"pitch":44,"velocity":95,"startTime":18.782568,"endTime":18.891263416666668,"instrument":0,"program":0,"isDrum":true},{"pitch":38,"velocity":55,"startTime":19.304306,"endTime":19.36952325,"instrument":0,"program":0,"isDrum":true},{"pitch":38,"velocity":85,"startTime":19.304306,"endTime":19.36952325,"instrument":0,"program":0,"isDrum":true},{"pitch":44,"velocity":95,"startTime":19.304306,"endTime":19.407566645833334,"instrument":0,"program":0,"isDrum":true},{"pitch":38,"velocity":55,"startTime":19.826044,"endTime":19.891261250000003,"instrument":0,"program":0,"isDrum":true},{"pitch":38,"velocity":85,"startTime":19.826044,"endTime":19.891261250000003,"instrument":0,"program":0,"isDrum":true},{"pitch":44,"velocity":95,"startTime":19.826044,"endTime":19.923869875,"instrument":0,"program":0,"isDrum":true},{"pitch":38,"velocity":55,"startTime":20.347782000000002,"endTime":20.412999250000002,"instrument":0,"program":0,"isDrum":true},{"pitch":38,"velocity":85,"startTime":20.347782000000002,"endTime":20.412999250000002,"instrument":0,"program":0,"isDrum":true},{"pitch":44,"velocity":95,"startTime":20.347782000000002,"endTime":20.440173104166668,"instrument":0,"program":0,"isDrum":true},{"pitch":38,"velocity":34,"startTime":20.608651000000002,"endTime":20.65212916666667,"instrument":0,"program":0,"isDrum":true},{"pitch":46,"velocity":69,"startTime":20.608651000000002,"endTime":20.858650458333333,"instrument":0,"program":0,"isDrum":true},{"pitch":38,"velocity":39,"startTime":20.65212916666667,"endTime":20.695607333333335,"instrument":0,"program":0,"isDrum":true},{"pitch":38,"velocity":39,"startTime":20.695607333333335,"endTime":20.7390855,"instrument":0,"program":0,"isDrum":true},{"pitch":38,"velocity":42,"startTime":20.7390855,"endTime":20.782563666666668,"instrument":0,"program":0,"isDrum":true},{"pitch":38,"velocity":48,"startTime":20.782563666666668,"endTime":20.826041833333335,"instrument":0,"program":0,"isDrum":true},{"pitch":38,"velocity":53,"startTime":20.826041833333335,"endTime":20.86952,"instrument":0,"program":0,"isDrum":true},{"pitch":38,"velocity":55,"startTime":20.86952,"endTime":20.93473725,"instrument":0,"program":0,"isDrum":true},{"pitch":38,"velocity":85,"startTime":20.86952,"endTime":20.93473725,"instrument":0,"program":0,"isDrum":true},{"pitch":44,"velocity":95,"startTime":20.86952,"endTime":20.978215416666668,"instrument":0,"program":0,"isDrum":true},{"pitch":38,"velocity":55,"startTime":21.391258,"endTime":21.45647525,"instrument":0,"program":0,"isDrum":true},{"pitch":38,"velocity":85,"startTime":21.391258,"endTime":21.45647525,"instrument":0,"program":0,"isDrum":true},{"pitch":44,"velocity":95,"startTime":21.391258,"endTime":21.494518645833335,"instrument":0,"program":0,"isDrum":true},{"pitch":38,"velocity":55,"startTime":21.912996000000003,"endTime":21.978213250000003,"instrument":0,"program":0,"isDrum":true},{"pitch":38,"velocity":85,"startTime":21.912996000000003,"endTime":21.978213250000003,"instrument":0,"program":0,"isDrum":true},{"pitch":44,"velocity":95,"startTime":21.912996000000003,"endTime":22.010821875,"instrument":0,"program":0,"isDrum":true},{"pitch":38,"velocity":55,"startTime":22.434734000000002,"endTime":22.499951250000002,"instrument":0,"program":0,"isDrum":true},{"pitch":38,"velocity":85,"startTime":22.434734000000002,"endTime":22.499951250000002,"instrument":0,"program":0,"isDrum":true},{"pitch":44,"velocity":95,"startTime":22.434734000000002,"endTime":22.527125104166668,"instrument":0,"program":0,"isDrum":true},{"pitch":38,"velocity":34,"startTime":22.695603000000002,"endTime":22.73908116666667,"instrument":0,"program":0,"isDrum":true},{"pitch":46,"velocity":69,"startTime":22.695603000000002,"endTime":22.945602458333333,"instrument":0,"program":0,"isDrum":true},{"pitch":38,"velocity":39,"startTime":22.73908116666667,"endTime":22.782559333333335,"instrument":0,"program":0,"isDrum":true},{"pitch":38,"velocity":39,"startTime":22.782559333333335,"endTime":22.8260375,"instrument":0,"program":0,"isDrum":true},{"pitch":38,"velocity":42,"startTime":22.8260375,"endTime":22.86951566666667,"instrument":0,"program":0,"isDrum":true},{"pitch":38,"velocity":48,"startTime":22.86951566666667,"endTime":22.912993833333335,"instrument":0,"program":0,"isDrum":true},{"pitch":38,"velocity":53,"startTime":22.912993833333335,"endTime":22.956472,"instrument":0,"program":0,"isDrum":true},{"pitch":38,"velocity":55,"startTime":22.956472,"endTime":23.02168925,"instrument":0,"program":0,"isDrum":true},{"pitch":38,"velocity":85,"startTime":22.956472,"endTime":23.02168925,"instrument":0,"program":0,"isDrum":true},{"pitch":44,"velocity":95,"startTime":22.956472,"endTime":23.065167416666668,"instrument":0,"program":0,"isDrum":true},{"pitch":38,"velocity":55,"startTime":23.47821,"endTime":23.54342725,"instrument":0,"program":0,"isDrum":true},{"pitch":38,"velocity":85,"startTime":23.47821,"endTime":23.54342725,"instrument":0,"program":0,"isDrum":true},{"pitch":44,"velocity":95,"startTime":23.47821,"endTime":23.581470645833335,"instrument":0,"program":0,"isDrum":true},{"pitch":38,"velocity":55,"startTime":23.999948,"endTime":24.065165250000003,"instrument":0,"program":0,"isDrum":true},{"pitch":38,"velocity":85,"startTime":23.999948,"endTime":24.065165250000003,"instrument":0,"program":0,"isDrum":true},{"pitch":44,"velocity":95,"startTime":23.999948,"endTime":24.097773875,"instrument":0,"program":0,"isDrum":true},{"pitch":38,"velocity":55,"startTime":24.521686000000003,"endTime":24.586903250000002,"instrument":0,"program":0,"isDrum":true},{"pitch":38,"velocity":85,"startTime":24.521686000000003,"endTime":24.586903250000002,"instrument":0,"program":0,"isDrum":true},{"pitch":44,"velocity":95,"startTime":24.521686000000003,"endTime":24.614077104166668,"instrument":0,"program":0,"isDrum":true},{"pitch":38,"velocity":34,"startTime":24.782555000000002,"endTime":24.82603316666667,"instrument":0,"program":0,"isDrum":true},{"pitch":46,"velocity":69,"startTime":24.782555000000002,"endTime":25.032554458333333,"instrument":0,"program":0,"isDrum":true},{"pitch":38,"velocity":39,"startTime":24.82603316666667,"endTime":24.869511333333335,"instrument":0,"program":0,"isDrum":true},{"pitch":38,"velocity":39,"startTime":24.869511333333335,"endTime":24.912989500000002,"instrument":0,"program":0,"isDrum":true},{"pitch":38,"velocity":42,"startTime":24.912989500000002,"endTime":24.95646766666667,"instrument":0,"program":0,"isDrum":true},{"pitch":38,"velocity":48,"startTime":24.95646766666667,"endTime":24.999945833333335,"instrument":0,"program":0,"isDrum":true},{"pitch":38,"velocity":53,"startTime":24.999945833333335,"endTime":25.043424,"instrument":0,"program":0,"isDrum":true},{"pitch":38,"velocity":55,"startTime":25.043424,"endTime":25.10864125,"instrument":0,"program":0,"isDrum":true},{"pitch":38,"velocity":85,"startTime":25.043424,"endTime":25.10864125,"instrument":0,"program":0,"isDrum":true},{"pitch":44,"velocity":95,"startTime":25.043424,"endTime":25.152119416666668,"instrument":0,"program":0,"isDrum":true},{"pitch":38,"velocity":55,"startTime":25.565162,"endTime":25.63037925,"instrument":0,"program":0,"isDrum":true},{"pitch":38,"velocity":85,"startTime":25.565162,"endTime":25.63037925,"instrument":0,"program":0,"isDrum":true},{"pitch":44,"velocity":95,"startTime":25.565162,"endTime":25.668422645833335,"instrument":0,"program":0,"isDrum":true},{"pitch":38,"velocity":55,"startTime":26.086900000000004,"endTime":26.152117250000003,"instrument":0,"program":0,"isDrum":true},{"pitch":38,"velocity":85,"startTime":26.086900000000004,"endTime":26.152117250000003,"instrument":0,"program":0,"isDrum":true},{"pitch":44,"velocity":95,"startTime":26.086900000000004,"endTime":26.184725875,"instrument":0,"program":0,"isDrum":true},{"pitch":38,"velocity":55,"startTime":26.608638000000003,"endTime":26.673855250000003,"instrument":0,"program":0,"isDrum":true},{"pitch":38,"velocity":85,"startTime":26.608638000000003,"endTime":26.673855250000003,"instrument":0,"program":0,"isDrum":true},{"pitch":44,"velocity":95,"startTime":26.608638000000003,"endTime":26.70102910416667,"instrument":0,"program":0,"isDrum":true},{"pitch":38,"velocity":34,"startTime":26.869507000000002,"endTime":26.91298516666667,"instrument":0,"program":0,"isDrum":true},{"pitch":46,"velocity":69,"startTime":26.869507000000002,"endTime":27.119506458333333,"instrument":0,"program":0,"isDrum":true},{"pitch":38,"velocity":39,"startTime":26.91298516666667,"endTime":26.956463333333335,"instrument":0,"program":0,"isDrum":true},{"pitch":38,"velocity":39,"startTime":26.956463333333335,"endTime":26.999941500000002,"instrument":0,"program":0,"isDrum":true},{"pitch":38,"velocity":42,"startTime":26.999941500000002,"endTime":27.04341966666667,"instrument":0,"program":0,"isDrum":true},{"pitch":38,"velocity":48,"startTime":27.04341966666667,"endTime":27.086897833333335,"instrument":0,"program":0,"isDrum":true},{"pitch":38,"velocity":53,"startTime":27.086897833333335,"endTime":27.130376000000002,"instrument":0,"program":0,"isDrum":true},{"pitch":38,"velocity":55,"startTime":27.130376000000002,"endTime":27.19559325,"instrument":0,"program":0,"isDrum":true},{"pitch":38,"velocity":85,"startTime":27.130376000000002,"endTime":27.19559325,"instrument":0,"program":0,"isDrum":true},{"pitch":44,"velocity":95,"startTime":27.130376000000002,"endTime":27.228201875000003,"instrument":0,"program":0,"isDrum":true},{"pitch":38,"velocity":55,"startTime":27.652114,"endTime":27.71733125,"instrument":0,"program":0,"isDrum":true},{"pitch":38,"velocity":85,"startTime":27.652114,"endTime":27.71733125,"instrument":0,"program":0,"isDrum":true},{"pitch":44,"velocity":95,"startTime":27.652114,"endTime":27.749939875000003,"instrument":0,"program":0,"isDrum":true},{"pitch":38,"velocity":55,"startTime":28.173852,"endTime":28.239069250000004,"instrument":0,"program":0,"isDrum":true},{"pitch":38,"velocity":85,"startTime":28.173852,"endTime":28.239069250000004,"instrument":0,"program":0,"isDrum":true},{"pitch":44,"velocity":95,"startTime":28.173852,"endTime":28.26624310416667,"instrument":0,"program":0,"isDrum":true},{"pitch":38,"velocity":55,"startTime":28.695590000000003,"endTime":28.760807250000003,"instrument":0,"program":0,"isDrum":true},{"pitch":38,"velocity":85,"startTime":28.695590000000003,"endTime":28.760807250000003,"instrument":0,"program":0,"isDrum":true},{"pitch":44,"velocity":95,"startTime":28.695590000000003,"endTime":28.798850645833333,"instrument":0,"program":0,"isDrum":true},{"pitch":38,"velocity":34,"startTime":28.956459000000002,"endTime":28.99993716666667,"instrument":0,"program":0,"isDrum":true},{"pitch":46,"velocity":69,"startTime":28.956459000000002,"endTime":29.206458458333334,"instrument":0,"program":0,"isDrum":true},{"pitch":38,"velocity":39,"startTime":28.99993716666667,"endTime":29.043415333333336,"instrument":0,"program":0,"isDrum":true},{"pitch":38,"velocity":39,"startTime":29.043415333333336,"endTime":29.086893500000002,"instrument":0,"program":0,"isDrum":true},{"pitch":38,"velocity":42,"startTime":29.086893500000002,"endTime":29.13037166666667,"instrument":0,"program":0,"isDrum":true},{"pitch":38,"velocity":48,"startTime":29.13037166666667,"endTime":29.173849833333335,"instrument":0,"program":0,"isDrum":true},{"pitch":38,"velocity":53,"startTime":29.173849833333335,"endTime":29.217328000000002,"instrument":0,"program":0,"isDrum":true},{"pitch":38,"velocity":55,"startTime":29.217328000000002,"endTime":29.282545250000002,"instrument":0,"program":0,"isDrum":true},{"pitch":38,"velocity":85,"startTime":29.217328000000002,"endTime":29.282545250000002,"instrument":0,"program":0,"isDrum":true},{"pitch":51,"velocity":87,"startTime":29.217328000000002,"endTime":29.30971910416667,"instrument":0,"program":0,"isDrum":true},{"pitch":70,"velocity":78,"startTime":31.304280000000002,"endTime":31.412975416666665,"instrument":0,"program":0,"isDrum":true},{"pitch":51,"velocity":85,"startTime":31.565149,"endTime":31.777105062500002,"instrument":0,"program":0,"isDrum":true},{"pitch":38,"velocity":55,"startTime":31.826018,"endTime":31.92927864583334,"instrument":0,"program":0,"isDrum":true},{"pitch":38,"velocity":85,"startTime":31.826018,"endTime":31.92927864583334,"instrument":0,"program":0,"isDrum":true},{"pitch":44,"velocity":95,"startTime":31.826018,"endTime":32.07601745833334,"instrument":0,"program":0,"isDrum":true},{"pitch":38,"velocity":55,"startTime":32.347756000000004,"endTime":32.44014710416667,"instrument":0,"program":0,"isDrum":true},{"pitch":38,"velocity":85,"startTime":32.347756000000004,"endTime":32.44014710416667,"instrument":0,"program":0,"isDrum":true},{"pitch":44,"velocity":66,"startTime":32.347756000000004,"endTime":32.4781905,"instrument":0,"program":0,"isDrum":true},{"pitch":51,"velocity":87,"startTime":32.347756000000004,"endTime":32.532538208333335,"instrument":0,"program":0,"isDrum":true},{"pitch":38,"velocity":34,"startTime":33.130363,"endTime":33.17384116666666,"instrument":0,"program":0,"isDrum":true},{"pitch":46,"velocity":69,"startTime":33.130363,"endTime":33.38036245833334,"instrument":0,"program":0,"isDrum":true},{"pitch":38,"velocity":39,"startTime":33.17384116666666,"endTime":33.217319333333336,"instrument":0,"program":0,"isDrum":true},{"pitch":38,"velocity":39,"startTime":33.217319333333336,"endTime":33.260797499999995,"instrument":0,"program":0,"isDrum":true},{"pitch":38,"velocity":42,"startTime":33.260797499999995,"endTime":33.30427566666667,"instrument":0,"program":0,"isDrum":true},{"pitch":38,"velocity":48,"startTime":33.30427566666667,"endTime":33.34775383333334,"instrument":0,"program":0,"isDrum":true},{"pitch":38,"velocity":53,"startTime":33.34775383333334,"endTime":33.391232,"instrument":0,"program":0,"isDrum":true},{"pitch":38,"velocity":55,"startTime":33.391232,"endTime":33.44557970833334,"instrument":0,"program":0,"isDrum":true},{"pitch":38,"velocity":85,"startTime":33.391232,"endTime":33.44557970833334,"instrument":0,"program":0,"isDrum":true},{"pitch":51,"velocity":87,"startTime":33.391232,"endTime":33.49449264583333,"instrument":0,"program":0,"isDrum":true},{"pitch":38,"velocity":55,"startTime":33.91297,"endTime":33.978187250000005,"instrument":0,"program":0,"isDrum":true},{"pitch":38,"velocity":85,"startTime":33.91297,"endTime":33.978187250000005,"instrument":0,"program":0,"isDrum":true},{"pitch":44,"velocity":95,"startTime":33.91297,"endTime":34.021665416666664,"instrument":0,"program":0,"isDrum":true},{"pitch":38,"velocity":55,"startTime":34.434708,"endTime":34.499925250000004,"instrument":0,"program":0,"isDrum":true},{"pitch":38,"velocity":85,"startTime":34.434708,"endTime":34.499925250000004,"instrument":0,"program":0,"isDrum":true},{"pitch":44,"velocity":95,"startTime":34.434708,"endTime":34.53796864583333,"instrument":0,"program":0,"isDrum":true},{"pitch":38,"velocity":55,"startTime":34.956446,"endTime":35.02166325,"instrument":0,"program":0,"isDrum":true},{"pitch":38,"velocity":85,"startTime":34.956446,"endTime":35.02166325,"instrument":0,"program":0,"isDrum":true},{"pitch":44,"velocity":95,"startTime":34.956446,"endTime":35.059706645833344,"instrument":0,"program":0,"isDrum":true},{"pitch":38,"velocity":34,"startTime":35.217315,"endTime":35.26079316666667,"instrument":0,"program":0,"isDrum":true},{"pitch":46,"velocity":69,"startTime":35.217315,"endTime":35.467314458333334,"instrument":0,"program":0,"isDrum":true},{"pitch":38,"velocity":39,"startTime":35.26079316666667,"endTime":35.30427133333333,"instrument":0,"program":0,"isDrum":true},{"pitch":38,"velocity":39,"startTime":35.30427133333333,"endTime":35.347749500000006,"instrument":0,"program":0,"isDrum":true},{"pitch":38,"velocity":42,"startTime":35.347749500000006,"endTime":35.391227666666666,"instrument":0,"program":0,"isDrum":true},{"pitch":38,"velocity":48,"startTime":35.391227666666666,"endTime":35.43470583333334,"instrument":0,"program":0,"isDrum":true},{"pitch":38,"velocity":53,"startTime":35.43470583333334,"endTime":35.478184,"instrument":0,"program":0,"isDrum":true},{"pitch":38,"velocity":55,"startTime":35.478184,"endTime":35.54340125,"instrument":0,"program":0,"isDrum":true},{"pitch":38,"velocity":85,"startTime":35.478184,"endTime":35.54340125,"instrument":0,"program":0,"isDrum":true},{"pitch":44,"velocity":95,"startTime":35.478184,"endTime":35.58687941666666,"instrument":0,"program":0,"isDrum":true},{"pitch":38,"velocity":55,"startTime":35.999922,"endTime":36.06513925,"instrument":0,"program":0,"isDrum":true},{"pitch":38,"velocity":85,"startTime":35.999922,"endTime":36.06513925,"instrument":0,"program":0,"isDrum":true},{"pitch":44,"velocity":95,"startTime":35.999922,"endTime":36.10318264583334,"instrument":0,"program":0,"isDrum":true},{"pitch":38,"velocity":55,"startTime":36.52166,"endTime":36.58687725,"instrument":0,"program":0,"isDrum":true},{"pitch":38,"velocity":85,"startTime":36.52166,"endTime":36.58687725,"instrument":0,"program":0,"isDrum":true},{"pitch":44,"velocity":95,"startTime":36.52166,"endTime":36.63035541666666,"instrument":0,"program":0,"isDrum":true},{"pitch":38,"velocity":55,"startTime":37.043397999999996,"endTime":37.10861525,"instrument":0,"program":0,"isDrum":true},{"pitch":38,"velocity":85,"startTime":37.043397999999996,"endTime":37.10861525,"instrument":0,"program":0,"isDrum":true},{"pitch":44,"velocity":95,"startTime":37.043397999999996,"endTime":37.15209341666667,"instrument":0,"program":0,"isDrum":true},{"pitch":38,"velocity":34,"startTime":37.304266999999996,"endTime":37.34774516666667,"instrument":0,"program":0,"isDrum":true},{"pitch":46,"velocity":69,"startTime":37.304266999999996,"endTime":37.554266458333345,"instrument":0,"program":0,"isDrum":true},{"pitch":38,"velocity":39,"startTime":37.34774516666667,"endTime":37.39122333333334,"instrument":0,"program":0,"isDrum":true},{"pitch":38,"velocity":39,"startTime":37.39122333333334,"endTime":37.4347015,"instrument":0,"program":0,"isDrum":true},{"pitch":38,"velocity":42,"startTime":37.4347015,"endTime":37.47817966666666,"instrument":0,"program":0,"isDrum":true},{"pitch":38,"velocity":48,"startTime":37.47817966666666,"endTime":37.521657833333336,"instrument":0,"program":0,"isDrum":true},{"pitch":38,"velocity":53,"startTime":37.521657833333336,"endTime":37.56513600000001,"instrument":0,"program":0,"isDrum":true},{"pitch":38,"velocity":55,"startTime":37.56513600000001,"endTime":37.63035325,"instrument":0,"program":0,"isDrum":true},{"pitch":38,"velocity":85,"startTime":37.56513600000001,"endTime":37.63035325,"instrument":0,"program":0,"isDrum":true},{"pitch":44,"velocity":95,"startTime":37.56513600000001,"endTime":37.67383141666667,"instrument":0,"program":0,"isDrum":true},{"pitch":38,"velocity":55,"startTime":38.08687400000001,"endTime":38.15209125,"instrument":0,"program":0,"isDrum":true},{"pitch":38,"velocity":85,"startTime":38.08687400000001,"endTime":38.15209125,"instrument":0,"program":0,"isDrum":true},{"pitch":44,"velocity":95,"startTime":38.08687400000001,"endTime":38.19556941666667,"instrument":0,"program":0,"isDrum":true},{"pitch":38,"velocity":55,"startTime":38.60861200000001,"endTime":38.67382925,"instrument":0,"program":0,"isDrum":true},{"pitch":38,"velocity":85,"startTime":38.60861200000001,"endTime":38.67382925,"instrument":0,"program":0,"isDrum":true},{"pitch":44,"velocity":95,"startTime":38.60861200000001,"endTime":38.706437875000006,"instrument":0,"program":0,"isDrum":true},{"pitch":38,"velocity":55,"startTime":39.13035000000001,"endTime":39.195567249999996,"instrument":0,"program":0,"isDrum":true},{"pitch":38,"velocity":85,"startTime":39.13035000000001,"endTime":39.195567249999996,"instrument":0,"program":0,"isDrum":true},{"pitch":44,"velocity":95,"startTime":39.13035000000001,"endTime":39.23361064583334,"instrument":0,"program":0,"isDrum":true},{"pitch":38,"velocity":34,"startTime":39.39121900000001,"endTime":39.434697166666666,"instrument":0,"program":0,"isDrum":true},{"pitch":46,"velocity":69,"startTime":39.39121900000001,"endTime":39.64121845833334,"instrument":0,"program":0,"isDrum":true},{"pitch":38,"velocity":39,"startTime":39.434697166666666,"endTime":39.47817533333334,"instrument":0,"program":0,"isDrum":true},{"pitch":38,"velocity":39,"startTime":39.47817533333334,"endTime":39.5216535,"instrument":0,"program":0,"isDrum":true},{"pitch":38,"velocity":42,"startTime":39.5216535,"endTime":39.56513166666667,"instrument":0,"program":0,"isDrum":true},{"pitch":38,"velocity":48,"startTime":39.56513166666667,"endTime":39.60860983333333,"instrument":0,"program":0,"isDrum":true},{"pitch":38,"velocity":53,"startTime":39.60860983333333,"endTime":39.652088000000006,"instrument":0,"program":0,"isDrum":true},{"pitch":38,"velocity":55,"startTime":39.652088000000006,"endTime":39.71730525000001,"instrument":0,"program":0,"isDrum":true},{"pitch":38,"velocity":85,"startTime":39.652088000000006,"endTime":39.71730525000001,"instrument":0,"program":0,"isDrum":true},{"pitch":44,"velocity":95,"startTime":39.652088000000006,"endTime":39.77708772916667,"instrument":0,"program":0,"isDrum":true},{"pitch":38,"velocity":55,"startTime":40.173826000000005,"endTime":40.23904325000001,"instrument":0,"program":0,"isDrum":true},{"pitch":38,"velocity":85,"startTime":40.173826000000005,"endTime":40.23904325000001,"instrument":0,"program":0,"isDrum":true},{"pitch":44,"velocity":95,"startTime":40.173826000000005,"endTime":40.2879561875,"instrument":0,"program":0,"isDrum":true},{"pitch":38,"velocity":55,"startTime":40.695564000000005,"endTime":40.76078125000001,"instrument":0,"program":0,"isDrum":true},{"pitch":38,"velocity":85,"startTime":40.695564000000005,"endTime":40.76078125000001,"instrument":0,"program":0,"isDrum":true},{"pitch":44,"velocity":95,"startTime":40.695564000000005,"endTime":40.798824645833335,"instrument":0,"program":0,"isDrum":true},{"pitch":38,"velocity":55,"startTime":41.217302000000004,"endTime":41.28251925000001,"instrument":0,"program":0,"isDrum":true},{"pitch":38,"velocity":85,"startTime":41.217302000000004,"endTime":41.28251925000001,"instrument":0,"program":0,"isDrum":true},{"pitch":44,"velocity":95,"startTime":41.217302000000004,"endTime":41.315127875,"instrument":0,"program":0,"isDrum":true},{"pitch":38,"velocity":34,"startTime":41.478171,"endTime":41.52164916666666,"instrument":0,"program":0,"isDrum":true},{"pitch":46,"velocity":69,"startTime":41.478171,"endTime":41.72817045833334,"instrument":0,"program":0,"isDrum":true},{"pitch":38,"velocity":39,"startTime":41.52164916666666,"endTime":41.565127333333336,"instrument":0,"program":0,"isDrum":true},{"pitch":38,"velocity":39,"startTime":41.565127333333336,"endTime":41.608605499999996,"instrument":0,"program":0,"isDrum":true},{"pitch":38,"velocity":42,"startTime":41.608605499999996,"endTime":41.65208366666667,"instrument":0,"program":0,"isDrum":true},{"pitch":38,"velocity":48,"startTime":41.65208366666667,"endTime":41.69556183333334,"instrument":0,"program":0,"isDrum":true},{"pitch":38,"velocity":53,"startTime":41.69556183333334,"endTime":41.73904,"instrument":0,"program":0,"isDrum":true},{"pitch":38,"velocity":55,"startTime":41.73904,"endTime":41.804257250000006,"instrument":0,"program":0,"isDrum":true},{"pitch":38,"velocity":85,"startTime":41.73904,"endTime":41.804257250000006,"instrument":0,"program":0,"isDrum":true},{"pitch":44,"velocity":95,"startTime":41.73904,"endTime":41.847735416666666,"instrument":0,"program":0,"isDrum":true},{"pitch":38,"velocity":55,"startTime":42.260778,"endTime":42.325995250000005,"instrument":0,"program":0,"isDrum":true},{"pitch":38,"velocity":85,"startTime":42.260778,"endTime":42.325995250000005,"instrument":0,"program":0,"isDrum":true},{"pitch":44,"velocity":95,"startTime":42.260778,"endTime":42.36403864583333,"instrument":0,"program":0,"isDrum":true},{"pitch":38,"velocity":55,"startTime":42.782516,"endTime":42.847733250000005,"instrument":0,"program":0,"isDrum":true},{"pitch":38,"velocity":85,"startTime":42.782516,"endTime":42.847733250000005,"instrument":0,"program":0,"isDrum":true},{"pitch":44,"velocity":95,"startTime":42.782516,"endTime":42.880341875,"instrument":0,"program":0,"isDrum":true},{"pitch":38,"velocity":55,"startTime":43.304254,"endTime":43.369471250000004,"instrument":0,"program":0,"isDrum":true},{"pitch":38,"velocity":85,"startTime":43.304254,"endTime":43.369471250000004,"instrument":0,"program":0,"isDrum":true},{"pitch":44,"velocity":95,"startTime":43.304254,"endTime":43.396645104166666,"instrument":0,"program":0,"isDrum":true},{"pitch":38,"velocity":34,"startTime":43.565123,"endTime":43.60860116666667,"instrument":0,"program":0,"isDrum":true},{"pitch":46,"velocity":69,"startTime":43.565123,"endTime":43.815122458333335,"instrument":0,"program":0,"isDrum":true},{"pitch":38,"velocity":39,"startTime":43.60860116666667,"endTime":43.65207933333333,"instrument":0,"program":0,"isDrum":true},{"pitch":38,"velocity":39,"startTime":43.65207933333333,"endTime":43.69555750000001,"instrument":0,"program":0,"isDrum":true},{"pitch":38,"velocity":42,"startTime":43.69555750000001,"endTime":43.739035666666666,"instrument":0,"program":0,"isDrum":true},{"pitch":38,"velocity":48,"startTime":43.739035666666666,"endTime":43.78251383333334,"instrument":0,"program":0,"isDrum":true},{"pitch":38,"velocity":53,"startTime":43.78251383333334,"endTime":43.825992,"instrument":0,"program":0,"isDrum":true},{"pitch":38,"velocity":55,"startTime":43.825992,"endTime":43.88033970833334,"instrument":0,"program":0,"isDrum":true},{"pitch":38,"velocity":85,"startTime":43.825992,"endTime":43.88033970833334,"instrument":0,"program":0,"isDrum":true},{"pitch":44,"velocity":95,"startTime":43.825992,"endTime":43.929252645833344,"instrument":0,"program":0,"isDrum":true},{"pitch":38,"velocity":55,"startTime":44.34773,"endTime":44.41294725,"instrument":0,"program":0,"isDrum":true},{"pitch":38,"velocity":85,"startTime":44.34773,"endTime":44.41294725,"instrument":0,"program":0,"isDrum":true},{"pitch":44,"velocity":95,"startTime":44.34773,"endTime":44.45642541666666,"instrument":0,"program":0,"isDrum":true},{"pitch":38,"velocity":55,"startTime":44.869468,"endTime":44.93468525,"instrument":0,"program":0,"isDrum":true},{"pitch":38,"velocity":85,"startTime":44.869468,"endTime":44.93468525,"instrument":0,"program":0,"isDrum":true},{"pitch":44,"velocity":95,"startTime":44.869468,"endTime":44.97272864583334,"instrument":0,"program":0,"isDrum":true},{"pitch":38,"velocity":55,"startTime":45.391206,"endTime":45.45642325,"instrument":0,"program":0,"isDrum":true},{"pitch":38,"velocity":85,"startTime":45.391206,"endTime":45.45642325,"instrument":0,"program":0,"isDrum":true},{"pitch":44,"velocity":95,"startTime":45.391206,"endTime":45.49446664583334,"instrument":0,"program":0,"isDrum":true},{"pitch":38,"velocity":34,"startTime":45.652074999999996,"endTime":45.69555316666667,"instrument":0,"program":0,"isDrum":true},{"pitch":46,"velocity":69,"startTime":45.652074999999996,"endTime":45.902074458333345,"instrument":0,"program":0,"isDrum":true},{"pitch":38,"velocity":39,"startTime":45.69555316666667,"endTime":45.739031333333344,"instrument":0,"program":0,"isDrum":true},{"pitch":38,"velocity":39,"startTime":45.739031333333344,"endTime":45.7825095,"instrument":0,"program":0,"isDrum":true},{"pitch":38,"velocity":42,"startTime":45.7825095,"endTime":45.82598766666666,"instrument":0,"program":0,"isDrum":true},{"pitch":38,"velocity":48,"startTime":45.82598766666666,"endTime":45.86946583333334,"instrument":0,"program":0,"isDrum":true},{"pitch":38,"velocity":53,"startTime":45.86946583333334,"endTime":45.91294400000001,"instrument":0,"program":0,"isDrum":true},{"pitch":38,"velocity":55,"startTime":45.91294400000001,"endTime":45.97816125,"instrument":0,"program":0,"isDrum":true},{"pitch":38,"velocity":85,"startTime":45.91294400000001,"endTime":45.97816125,"instrument":0,"program":0,"isDrum":true},{"pitch":44,"velocity":95,"startTime":45.91294400000001,"endTime":46.02163941666667,"instrument":0,"program":0,"isDrum":true},{"pitch":38,"velocity":55,"startTime":46.43468200000001,"endTime":46.49989925,"instrument":0,"program":0,"isDrum":true},{"pitch":38,"velocity":85,"startTime":46.43468200000001,"endTime":46.49989925,"instrument":0,"program":0,"isDrum":true},{"pitch":44,"velocity":95,"startTime":46.43468200000001,"endTime":46.53794264583334,"instrument":0,"program":0,"isDrum":true},{"pitch":38,"velocity":55,"startTime":46.95642000000001,"endTime":47.02163725,"instrument":0,"program":0,"isDrum":true},{"pitch":38,"velocity":85,"startTime":46.95642000000001,"endTime":47.02163725,"instrument":0,"program":0,"isDrum":true},{"pitch":44,"velocity":95,"startTime":46.95642000000001,"endTime":47.06511541666667,"instrument":0,"program":0,"isDrum":true},{"pitch":38,"velocity":55,"startTime":47.47815800000001,"endTime":47.54337525,"instrument":0,"program":0,"isDrum":true},{"pitch":38,"velocity":85,"startTime":47.47815800000001,"endTime":47.54337525,"instrument":0,"program":0,"isDrum":true},{"pitch":44,"velocity":95,"startTime":47.47815800000001,"endTime":47.58685341666667,"instrument":0,"program":0,"isDrum":true},{"pitch":38,"velocity":34,"startTime":47.73902700000001,"endTime":47.78250516666667,"instrument":0,"program":0,"isDrum":true},{"pitch":46,"velocity":69,"startTime":47.73902700000001,"endTime":47.98902645833334,"instrument":0,"program":0,"isDrum":true},{"pitch":38,"velocity":39,"startTime":47.78250516666667,"endTime":47.82598333333334,"instrument":0,"program":0,"isDrum":true},{"pitch":38,"velocity":39,"startTime":47.82598333333334,"endTime":47.8694615,"instrument":0,"program":0,"isDrum":true},{"pitch":38,"velocity":42,"startTime":47.8694615,"endTime":47.912939666666674,"instrument":0,"program":0,"isDrum":true},{"pitch":38,"velocity":48,"startTime":47.912939666666674,"endTime":47.95641783333333,"instrument":0,"program":0,"isDrum":true},{"pitch":38,"velocity":53,"startTime":47.95641783333333,"endTime":47.99989600000001,"instrument":0,"program":0,"isDrum":true},{"pitch":38,"velocity":55,"startTime":47.99989600000001,"endTime":48.06511325000001,"instrument":0,"program":0,"isDrum":true},{"pitch":38,"velocity":85,"startTime":47.99989600000001,"endTime":48.06511325000001,"instrument":0,"program":0,"isDrum":true},{"pitch":44,"velocity":95,"startTime":47.99989600000001,"endTime":48.10859141666667,"instrument":0,"program":0,"isDrum":true},{"pitch":38,"velocity":55,"startTime":48.521634000000006,"endTime":48.58685125000001,"instrument":0,"program":0,"isDrum":true},{"pitch":38,"velocity":85,"startTime":48.521634000000006,"endTime":48.58685125000001,"instrument":0,"program":0,"isDrum":true},{"pitch":44,"velocity":95,"startTime":48.521634000000006,"endTime":48.63032941666667,"instrument":0,"program":0,"isDrum":true},{"pitch":38,"velocity":55,"startTime":49.043372000000005,"endTime":49.10858925000001,"instrument":0,"program":0,"isDrum":true},{"pitch":38,"velocity":85,"startTime":49.043372000000005,"endTime":49.10858925000001,"instrument":0,"program":0,"isDrum":true},{"pitch":44,"velocity":95,"startTime":49.043372000000005,"endTime":49.141197875,"instrument":0,"program":0,"isDrum":true},{"pitch":38,"velocity":55,"startTime":49.565110000000004,"endTime":49.63032725000001,"instrument":0,"program":0,"isDrum":true},{"pitch":38,"velocity":85,"startTime":49.565110000000004,"endTime":49.63032725000001,"instrument":0,"program":0,"isDrum":true},{"pitch":44,"velocity":95,"startTime":49.565110000000004,"endTime":49.668370645833335,"instrument":0,"program":0,"isDrum":true},{"pitch":38,"velocity":34,"startTime":49.825979000000004,"endTime":49.86945716666666,"instrument":0,"program":0,"isDrum":true},{"pitch":46,"velocity":69,"startTime":49.825979000000004,"endTime":50.07597845833334,"instrument":0,"program":0,"isDrum":true},{"pitch":38,"velocity":39,"startTime":49.86945716666666,"endTime":49.91293533333334,"instrument":0,"program":0,"isDrum":true},{"pitch":38,"velocity":39,"startTime":49.91293533333334,"endTime":49.9564135,"instrument":0,"program":0,"isDrum":true},{"pitch":38,"velocity":42,"startTime":49.9564135,"endTime":49.99989166666667,"instrument":0,"program":0,"isDrum":true},{"pitch":38,"velocity":48,"startTime":49.99989166666667,"endTime":50.043369833333344,"instrument":0,"program":0,"isDrum":true},{"pitch":38,"velocity":53,"startTime":50.043369833333344,"endTime":50.086848,"instrument":0,"program":0,"isDrum":true},{"pitch":38,"velocity":55,"startTime":50.086848,"endTime":50.15206525000001,"instrument":0,"program":0,"isDrum":true},{"pitch":38,"velocity":85,"startTime":50.086848,"endTime":50.15206525000001,"instrument":0,"program":0,"isDrum":true},{"pitch":44,"velocity":95,"startTime":50.086848,"endTime":50.211847729166664,"instrument":0,"program":0,"isDrum":true},{"pitch":38,"velocity":55,"startTime":50.608586,"endTime":50.673803250000006,"instrument":0,"program":0,"isDrum":true},{"pitch":38,"velocity":85,"startTime":50.608586,"endTime":50.673803250000006,"instrument":0,"program":0,"isDrum":true},{"pitch":44,"velocity":95,"startTime":50.608586,"endTime":50.7227161875,"instrument":0,"program":0,"isDrum":true},{"pitch":38,"velocity":55,"startTime":51.130324,"endTime":51.195541250000005,"instrument":0,"program":0,"isDrum":true},{"pitch":38,"velocity":85,"startTime":51.130324,"endTime":51.195541250000005,"instrument":0,"program":0,"isDrum":true},{"pitch":44,"velocity":95,"startTime":51.130324,"endTime":51.23358464583333,"instrument":0,"program":0,"isDrum":true},{"pitch":38,"velocity":55,"startTime":51.652062,"endTime":51.717279250000004,"instrument":0,"program":0,"isDrum":true},{"pitch":38,"velocity":85,"startTime":51.652062,"endTime":51.717279250000004,"instrument":0,"program":0,"isDrum":true},{"pitch":44,"velocity":95,"startTime":51.652062,"endTime":51.749887875,"instrument":0,"program":0,"isDrum":true},{"pitch":38,"velocity":34,"startTime":51.912931,"endTime":51.956409166666674,"instrument":0,"program":0,"isDrum":true},{"pitch":46,"velocity":69,"startTime":51.912931,"endTime":52.162930458333335,"instrument":0,"program":0,"isDrum":true},{"pitch":38,"velocity":39,"startTime":51.956409166666674,"endTime":51.999887333333334,"instrument":0,"program":0,"isDrum":true},{"pitch":38,"velocity":39,"startTime":51.999887333333334,"endTime":52.04336550000001,"instrument":0,"program":0,"isDrum":true},{"pitch":38,"velocity":42,"startTime":52.04336550000001,"endTime":52.08684366666667,"instrument":0,"program":0,"isDrum":true},{"pitch":38,"velocity":48,"startTime":52.08684366666667,"endTime":52.13032183333334,"instrument":0,"program":0,"isDrum":true},{"pitch":38,"velocity":53,"startTime":52.13032183333334,"endTime":52.1738,"instrument":0,"program":0,"isDrum":true},{"pitch":38,"velocity":55,"startTime":52.1738,"endTime":52.23901725,"instrument":0,"program":0,"isDrum":true},{"pitch":38,"velocity":85,"startTime":52.1738,"endTime":52.23901725,"instrument":0,"program":0,"isDrum":true},{"pitch":44,"velocity":95,"startTime":52.1738,"endTime":52.28249541666666,"instrument":0,"program":0,"isDrum":true},{"pitch":38,"velocity":55,"startTime":52.695538,"endTime":52.76075525,"instrument":0,"program":0,"isDrum":true},{"pitch":38,"velocity":85,"startTime":52.695538,"endTime":52.76075525,"instrument":0,"program":0,"isDrum":true},{"pitch":44,"velocity":95,"startTime":52.695538,"endTime":52.798798645833344,"instrument":0,"program":0,"isDrum":true},{"pitch":38,"velocity":55,"startTime":53.217276,"endTime":53.28249325,"instrument":0,"program":0,"isDrum":true},{"pitch":38,"velocity":85,"startTime":53.217276,"endTime":53.28249325,"instrument":0,"program":0,"isDrum":true},{"pitch":44,"velocity":95,"startTime":53.217276,"endTime":53.31510187500001,"instrument":0,"program":0,"isDrum":true},{"pitch":38,"velocity":55,"startTime":53.739014,"endTime":53.80423125,"instrument":0,"program":0,"isDrum":true},{"pitch":38,"velocity":85,"startTime":53.739014,"endTime":53.80423125,"instrument":0,"program":0,"isDrum":true},{"pitch":44,"velocity":95,"startTime":53.739014,"endTime":53.83140510416666,"instrument":0,"program":0,"isDrum":true},{"pitch":38,"velocity":34,"startTime":53.999883,"endTime":54.04336116666667,"instrument":0,"program":0,"isDrum":true},{"pitch":46,"velocity":69,"startTime":53.999883,"endTime":54.249882458333346,"instrument":0,"program":0,"isDrum":true},{"pitch":38,"velocity":39,"startTime":54.04336116666667,"endTime":54.086839333333344,"instrument":0,"program":0,"isDrum":true},{"pitch":38,"velocity":39,"startTime":54.086839333333344,"endTime":54.130317500000004,"instrument":0,"program":0,"isDrum":true},{"pitch":38,"velocity":42,"startTime":54.130317500000004,"endTime":54.17379566666666,"instrument":0,"program":0,"isDrum":true},{"pitch":38,"velocity":48,"startTime":54.17379566666666,"endTime":54.21727383333334,"instrument":0,"program":0,"isDrum":true},{"pitch":38,"velocity":53,"startTime":54.21727383333334,"endTime":54.26075200000001,"instrument":0,"program":0,"isDrum":true},{"pitch":38,"velocity":55,"startTime":54.26075200000001,"endTime":54.32596925,"instrument":0,"program":0,"isDrum":true},{"pitch":38,"velocity":85,"startTime":54.26075200000001,"endTime":54.32596925,"instrument":0,"program":0,"isDrum":true},{"pitch":44,"velocity":95,"startTime":54.26075200000001,"endTime":54.369447416666674,"instrument":0,"program":0,"isDrum":true},{"pitch":38,"velocity":55,"startTime":54.78249000000001,"endTime":54.84770725,"instrument":0,"program":0,"isDrum":true},{"pitch":38,"velocity":85,"startTime":54.78249000000001,"endTime":54.84770725,"instrument":0,"program":0,"isDrum":true},{"pitch":44,"velocity":95,"startTime":54.78249000000001,"endTime":54.88575064583334,"instrument":0,"program":0,"isDrum":true},{"pitch":38,"velocity":55,"startTime":55.30422800000001,"endTime":55.36944525,"instrument":0,"program":0,"isDrum":true},{"pitch":38,"velocity":85,"startTime":55.30422800000001,"endTime":55.36944525,"instrument":0,"program":0,"isDrum":true},{"pitch":44,"velocity":95,"startTime":55.30422800000001,"endTime":55.40205387500001,"instrument":0,"program":0,"isDrum":true},{"pitch":38,"velocity":55,"startTime":55.82596600000001,"endTime":55.89118325,"instrument":0,"program":0,"isDrum":true},{"pitch":38,"velocity":85,"startTime":55.82596600000001,"endTime":55.89118325,"instrument":0,"program":0,"isDrum":true},{"pitch":44,"velocity":95,"startTime":55.82596600000001,"endTime":55.918357104166674,"instrument":0,"program":0,"isDrum":true},{"pitch":38,"velocity":34,"startTime":56.08683500000001,"endTime":56.13031316666667,"instrument":0,"program":0,"isDrum":true},{"pitch":46,"velocity":69,"startTime":56.08683500000001,"endTime":56.33683445833334,"instrument":0,"program":0,"isDrum":true},{"pitch":38,"velocity":39,"startTime":56.13031316666667,"endTime":56.17379133333334,"instrument":0,"program":0,"isDrum":true},{"pitch":38,"velocity":39,"startTime":56.17379133333334,"endTime":56.2172695,"instrument":0,"program":0,"isDrum":true},{"pitch":38,"velocity":42,"startTime":56.2172695,"endTime":56.260747666666674,"instrument":0,"program":0,"isDrum":true},{"pitch":38,"velocity":48,"startTime":56.260747666666674,"endTime":56.304225833333334,"instrument":0,"program":0,"isDrum":true},{"pitch":38,"velocity":53,"startTime":56.304225833333334,"endTime":56.34770400000001,"instrument":0,"program":0,"isDrum":true},{"pitch":38,"velocity":55,"startTime":56.34770400000001,"endTime":56.41292125000001,"instrument":0,"program":0,"isDrum":true},{"pitch":38,"velocity":85,"startTime":56.34770400000001,"endTime":56.41292125000001,"instrument":0,"program":0,"isDrum":true},{"pitch":44,"velocity":95,"startTime":56.34770400000001,"endTime":56.45639941666667,"instrument":0,"program":0,"isDrum":true},{"pitch":38,"velocity":55,"startTime":56.86944200000001,"endTime":56.93465925000001,"instrument":0,"program":0,"isDrum":true},{"pitch":38,"velocity":85,"startTime":56.86944200000001,"endTime":56.93465925000001,"instrument":0,"program":0,"isDrum":true},{"pitch":44,"velocity":95,"startTime":56.86944200000001,"endTime":56.97270264583334,"instrument":0,"program":0,"isDrum":true},{"pitch":38,"velocity":55,"startTime":57.391180000000006,"endTime":57.45639725000001,"instrument":0,"program":0,"isDrum":true},{"pitch":38,"velocity":85,"startTime":57.391180000000006,"endTime":57.45639725000001,"instrument":0,"program":0,"isDrum":true},{"pitch":44,"velocity":95,"startTime":57.391180000000006,"endTime":57.489005875000004,"instrument":0,"program":0,"isDrum":true},{"pitch":38,"velocity":55,"startTime":57.912918000000005,"endTime":57.97813525000001,"instrument":0,"program":0,"isDrum":true},{"pitch":38,"velocity":85,"startTime":57.912918000000005,"endTime":57.97813525000001,"instrument":0,"program":0,"isDrum":true},{"pitch":44,"velocity":95,"startTime":57.912918000000005,"endTime":58.00530910416667,"instrument":0,"program":0,"isDrum":true},{"pitch":38,"velocity":34,"startTime":58.173787000000004,"endTime":58.217265166666664,"instrument":0,"program":0,"isDrum":true},{"pitch":46,"velocity":69,"startTime":58.173787000000004,"endTime":58.42378645833334,"instrument":0,"program":0,"isDrum":true},{"pitch":38,"velocity":39,"startTime":58.217265166666664,"endTime":58.26074333333334,"instrument":0,"program":0,"isDrum":true},{"pitch":38,"velocity":39,"startTime":58.26074333333334,"endTime":58.3042215,"instrument":0,"program":0,"isDrum":true},{"pitch":38,"velocity":42,"startTime":58.3042215,"endTime":58.34769966666667,"instrument":0,"program":0,"isDrum":true},{"pitch":38,"velocity":48,"startTime":58.34769966666667,"endTime":58.391177833333344,"instrument":0,"program":0,"isDrum":true},{"pitch":38,"velocity":53,"startTime":58.391177833333344,"endTime":58.434656000000004,"instrument":0,"program":0,"isDrum":true},{"pitch":38,"velocity":55,"startTime":58.434656000000004,"endTime":58.49987325000001,"instrument":0,"program":0,"isDrum":true},{"pitch":38,"velocity":85,"startTime":58.434656000000004,"endTime":58.49987325000001,"instrument":0,"program":0,"isDrum":true},{"pitch":44,"velocity":95,"startTime":58.434656000000004,"endTime":58.54335141666667,"instrument":0,"program":0,"isDrum":true},{"pitch":38,"velocity":55,"startTime":58.956394,"endTime":59.02161125000001,"instrument":0,"program":0,"isDrum":true},{"pitch":38,"velocity":85,"startTime":58.956394,"endTime":59.02161125000001,"instrument":0,"program":0,"isDrum":true},{"pitch":44,"velocity":95,"startTime":58.956394,"endTime":59.059654645833334,"instrument":0,"program":0,"isDrum":true},{"pitch":38,"velocity":55,"startTime":59.478132,"endTime":59.543349250000006,"instrument":0,"program":0,"isDrum":true},{"pitch":38,"velocity":85,"startTime":59.478132,"endTime":59.543349250000006,"instrument":0,"program":0,"isDrum":true},{"pitch":44,"velocity":95,"startTime":59.478132,"endTime":59.575957875,"instrument":0,"program":0,"isDrum":true},{"pitch":38,"velocity":55,"startTime":59.99987,"endTime":60.065087250000005,"instrument":0,"program":0,"isDrum":true},{"pitch":38,"velocity":85,"startTime":59.99987,"endTime":60.065087250000005,"instrument":0,"program":0,"isDrum":true},{"pitch":44,"velocity":95,"startTime":59.99987,"endTime":60.09226110416667,"instrument":0,"program":0,"isDrum":true},{"pitch":38,"velocity":34,"startTime":60.260739,"endTime":60.304217166666675,"instrument":0,"program":0,"isDrum":true},{"pitch":46,"velocity":69,"startTime":60.260739,"endTime":60.510738458333336,"instrument":0,"program":0,"isDrum":true},{"pitch":38,"velocity":39,"startTime":60.304217166666675,"endTime":60.347695333333334,"instrument":0,"program":0,"isDrum":true},{"pitch":38,"velocity":39,"startTime":60.347695333333334,"endTime":60.39117350000001,"instrument":0,"program":0,"isDrum":true},{"pitch":38,"velocity":42,"startTime":60.39117350000001,"endTime":60.43465166666667,"instrument":0,"program":0,"isDrum":true},{"pitch":38,"velocity":48,"startTime":60.43465166666667,"endTime":60.47812983333334,"instrument":0,"program":0,"isDrum":true},{"pitch":38,"velocity":53,"startTime":60.47812983333334,"endTime":60.521608,"instrument":0,"program":0,"isDrum":true},{"pitch":38,"velocity":55,"startTime":60.521608,"endTime":60.586825250000004,"instrument":0,"program":0,"isDrum":true},{"pitch":38,"velocity":85,"startTime":60.521608,"endTime":60.586825250000004,"instrument":0,"program":0,"isDrum":true},{"pitch":44,"velocity":95,"startTime":60.521608,"endTime":60.619433875,"instrument":0,"program":0,"isDrum":true},{"pitch":38,"velocity":55,"startTime":61.043346,"endTime":61.10856325,"instrument":0,"program":0,"isDrum":true},{"pitch":38,"velocity":85,"startTime":61.043346,"endTime":61.10856325,"instrument":0,"program":0,"isDrum":true},{"pitch":44,"velocity":95,"startTime":61.043346,"endTime":61.141171875,"instrument":0,"program":0,"isDrum":true},{"pitch":38,"velocity":55,"startTime":61.565084,"endTime":61.63030125,"instrument":0,"program":0,"isDrum":true},{"pitch":38,"velocity":85,"startTime":61.565084,"endTime":61.63030125,"instrument":0,"program":0,"isDrum":true},{"pitch":44,"velocity":95,"startTime":61.565084,"endTime":61.657475104166664,"instrument":0,"program":0,"isDrum":true},{"pitch":38,"velocity":55,"startTime":62.08682200000001,"endTime":62.15203925,"instrument":0,"program":0,"isDrum":true},{"pitch":38,"velocity":85,"startTime":62.08682200000001,"endTime":62.15203925,"instrument":0,"program":0,"isDrum":true},{"pitch":44,"velocity":95,"startTime":62.08682200000001,"endTime":62.19008264583334,"instrument":0,"program":0,"isDrum":true},{"pitch":38,"velocity":34,"startTime":62.34769100000001,"endTime":62.39116916666667,"instrument":0,"program":0,"isDrum":true},{"pitch":46,"velocity":69,"startTime":62.34769100000001,"endTime":62.597690458333346,"instrument":0,"program":0,"isDrum":true},{"pitch":38,"velocity":39,"startTime":62.39116916666667,"endTime":62.434647333333345,"instrument":0,"program":0,"isDrum":true},{"pitch":38,"velocity":39,"startTime":62.434647333333345,"endTime":62.478125500000004,"instrument":0,"program":0,"isDrum":true},{"pitch":38,"velocity":42,"startTime":62.478125500000004,"endTime":62.52160366666668,"instrument":0,"program":0,"isDrum":true},{"pitch":38,"velocity":48,"startTime":62.52160366666668,"endTime":62.56508183333334,"instrument":0,"program":0,"isDrum":true},{"pitch":38,"velocity":53,"startTime":62.56508183333334,"endTime":62.60856000000001,"instrument":0,"program":0,"isDrum":true},{"pitch":38,"velocity":55,"startTime":62.60856000000001,"endTime":62.673777250000015,"instrument":0,"program":0,"isDrum":true},{"pitch":38,"velocity":85,"startTime":62.60856000000001,"endTime":62.673777250000015,"instrument":0,"program":0,"isDrum":true},{"pitch":51,"velocity":87,"startTime":62.60856000000001,"endTime":62.70095110416668,"instrument":0,"program":0,"isDrum":true},{"pitch":70,"velocity":78,"startTime":64.69551200000001,"endTime":64.793337875,"instrument":0,"program":0,"isDrum":true},{"pitch":51,"velocity":85,"startTime":64.95638100000001,"endTime":65.1683370625,"instrument":0,"program":0,"isDrum":true},{"pitch":38,"velocity":55,"startTime":65.21725,"endTime":65.32051064583334,"instrument":0,"program":0,"isDrum":true},{"pitch":38,"velocity":85,"startTime":65.21725,"endTime":65.32051064583334,"instrument":0,"program":0,"isDrum":true},{"pitch":44,"velocity":95,"startTime":65.21725,"endTime":65.46724945833334,"instrument":0,"program":0,"isDrum":true},{"pitch":38,"velocity":55,"startTime":65.738988,"endTime":65.83137910416669,"instrument":0,"program":0,"isDrum":true},{"pitch":38,"velocity":85,"startTime":65.738988,"endTime":65.83137910416669,"instrument":0,"program":0,"isDrum":true},{"pitch":44,"velocity":90,"startTime":65.738988,"endTime":65.88029204166668,"instrument":0,"program":0,"isDrum":true},{"pitch":51,"velocity":87,"startTime":65.738988,"endTime":65.92377020833334,"instrument":0,"program":0,"isDrum":true},{"pitch":38,"velocity":85,"startTime":66.782464,"endTime":66.99442006250001,"instrument":0,"program":0,"isDrum":true},{"pitch":51,"velocity":87,"startTime":66.782464,"endTime":66.83137693750001,"instrument":0,"program":0,"isDrum":true},{"pitch":53,"velocity":80,"startTime":66.782464,"endTime":67.15746318750001,"instrument":0,"program":0,"isDrum":true},{"pitch":38,"velocity":85,"startTime":67.82594,"endTime":67.95637450000001,"instrument":0,"program":0,"isDrum":true},{"pitch":51,"velocity":87,"startTime":67.82594,"endTime":67.87485293750001,"instrument":0,"program":0,"isDrum":true},{"pitch":53,"velocity":93,"startTime":67.82594,"endTime":68.03246129166668,"instrument":0,"program":0,"isDrum":true},{"pitch":38,"velocity":85,"startTime":68.869416,"endTime":68.98354618750001,"instrument":0,"program":0,"isDrum":true},{"pitch":51,"velocity":87,"startTime":68.869416,"endTime":68.92376370833334,"instrument":0,"program":0,"isDrum":true},{"pitch":53,"velocity":93,"startTime":68.869416,"endTime":69.13571977083333,"instrument":0,"program":0,"isDrum":true},{"pitch":38,"velocity":85,"startTime":69.91289200000001,"endTime":70.02702218750001,"instrument":0,"program":0,"isDrum":true},{"pitch":51,"velocity":87,"startTime":69.91289200000001,"endTime":69.96723970833334,"instrument":0,"program":0,"isDrum":true},{"pitch":53,"velocity":93,"startTime":69.91289200000001,"endTime":70.13028283333334,"instrument":0,"program":0,"isDrum":true},{"pitch":38,"velocity":85,"startTime":70.43463000000001,"endTime":70.54876018750001,"instrument":0,"program":0,"isDrum":true},{"pitch":51,"velocity":87,"startTime":70.43463000000001,"endTime":70.48897770833334,"instrument":0,"program":0,"isDrum":true},{"pitch":53,"velocity":93,"startTime":70.43463000000001,"endTime":70.65202083333334,"instrument":0,"program":0,"isDrum":true},{"pitch":38,"velocity":85,"startTime":70.95636800000001,"endTime":71.05962864583334,"instrument":0,"program":0,"isDrum":true},{"pitch":51,"velocity":85,"startTime":70.95636800000001,"endTime":70.99441139583334,"instrument":0,"program":0,"isDrum":true},{"pitch":51,"velocity":87,"startTime":70.95636800000001,"endTime":70.99441139583334,"instrument":0,"program":0,"isDrum":true},{"pitch":38,"velocity":34,"startTime":72.78245100000001,"endTime":72.82592916666668,"instrument":0,"program":0,"isDrum":true},{"pitch":46,"velocity":69,"startTime":72.78245100000001,"endTime":73.03245045833334,"instrument":0,"program":0,"isDrum":true},{"pitch":38,"velocity":39,"startTime":72.82592916666668,"endTime":72.86940733333334,"instrument":0,"program":0,"isDrum":true},{"pitch":38,"velocity":39,"startTime":72.86940733333334,"endTime":72.9128855,"instrument":0,"program":0,"isDrum":true},{"pitch":38,"velocity":42,"startTime":72.9128855,"endTime":72.95636366666668,"instrument":0,"program":0,"isDrum":true},{"pitch":38,"velocity":48,"startTime":72.95636366666668,"endTime":72.99984183333333,"instrument":0,"program":0,"isDrum":true},{"pitch":38,"velocity":53,"startTime":72.99984183333333,"endTime":73.04332000000001,"instrument":0,"program":0,"isDrum":true},{"pitch":38,"velocity":55,"startTime":73.04332000000001,"endTime":73.10853725000001,"instrument":0,"program":0,"isDrum":true},{"pitch":38,"velocity":85,"startTime":73.04332000000001,"endTime":73.10853725000001,"instrument":0,"program":0,"isDrum":true},{"pitch":44,"velocity":95,"startTime":73.04332000000001,"endTime":73.16831972916668,"instrument":0,"program":0,"isDrum":true},{"pitch":38,"velocity":55,"startTime":73.56505800000001,"endTime":73.63027525000001,"instrument":0,"program":0,"isDrum":true},{"pitch":38,"velocity":85,"startTime":73.56505800000001,"endTime":73.63027525000001,"instrument":0,"program":0,"isDrum":true},{"pitch":44,"velocity":95,"startTime":73.56505800000001,"endTime":73.6791881875,"instrument":0,"program":0,"isDrum":true},{"pitch":38,"velocity":55,"startTime":74.086796,"endTime":74.15201325000001,"instrument":0,"program":0,"isDrum":true},{"pitch":38,"velocity":85,"startTime":74.086796,"endTime":74.15201325000001,"instrument":0,"program":0,"isDrum":true},{"pitch":44,"velocity":95,"startTime":74.086796,"endTime":74.19005664583334,"instrument":0,"program":0,"isDrum":true},{"pitch":38,"velocity":55,"startTime":74.608534,"endTime":74.67375125000001,"instrument":0,"program":0,"isDrum":true},{"pitch":38,"velocity":85,"startTime":74.608534,"endTime":74.67375125000001,"instrument":0,"program":0,"isDrum":true},{"pitch":44,"velocity":95,"startTime":74.608534,"endTime":74.706359875,"instrument":0,"program":0,"isDrum":true},{"pitch":38,"velocity":34,"startTime":74.869403,"endTime":74.91288116666668,"instrument":0,"program":0,"isDrum":true},{"pitch":46,"velocity":69,"startTime":74.869403,"endTime":75.11940245833334,"instrument":0,"program":0,"isDrum":true},{"pitch":38,"velocity":39,"startTime":74.91288116666668,"endTime":74.95635933333334,"instrument":0,"program":0,"isDrum":true},{"pitch":38,"velocity":39,"startTime":74.95635933333334,"endTime":74.99983750000001,"instrument":0,"program":0,"isDrum":true},{"pitch":38,"velocity":42,"startTime":74.99983750000001,"endTime":75.04331566666669,"instrument":0,"program":0,"isDrum":true},{"pitch":38,"velocity":48,"startTime":75.04331566666669,"endTime":75.08679383333333,"instrument":0,"program":0,"isDrum":true},{"pitch":38,"velocity":53,"startTime":75.08679383333333,"endTime":75.130272,"instrument":0,"program":0,"isDrum":true},{"pitch":38,"velocity":55,"startTime":75.130272,"endTime":75.19548925000001,"instrument":0,"program":0,"isDrum":true},{"pitch":38,"velocity":85,"startTime":75.130272,"endTime":75.19548925000001,"instrument":0,"program":0,"isDrum":true},{"pitch":44,"velocity":95,"startTime":75.130272,"endTime":75.23896741666668,"instrument":0,"program":0,"isDrum":true},{"pitch":38,"velocity":55,"startTime":75.65201,"endTime":75.71722725000001,"instrument":0,"program":0,"isDrum":true},{"pitch":38,"velocity":85,"startTime":75.65201,"endTime":75.71722725000001,"instrument":0,"program":0,"isDrum":true},{"pitch":44,"velocity":95,"startTime":75.65201,"endTime":75.75527064583333,"instrument":0,"program":0,"isDrum":true},{"pitch":38,"velocity":55,"startTime":76.173748,"endTime":76.23896525,"instrument":0,"program":0,"isDrum":true},{"pitch":38,"velocity":85,"startTime":76.173748,"endTime":76.23896525,"instrument":0,"program":0,"isDrum":true},{"pitch":44,"velocity":95,"startTime":76.173748,"endTime":76.27157387500002,"instrument":0,"program":0,"isDrum":true},{"pitch":38,"velocity":55,"startTime":76.695486,"endTime":76.76070325,"instrument":0,"program":0,"isDrum":true},{"pitch":38,"velocity":85,"startTime":76.695486,"endTime":76.76070325,"instrument":0,"program":0,"isDrum":true},{"pitch":44,"velocity":95,"startTime":76.695486,"endTime":76.78787710416668,"instrument":0,"program":0,"isDrum":true},{"pitch":38,"velocity":34,"startTime":76.956355,"endTime":76.99983316666668,"instrument":0,"program":0,"isDrum":true},{"pitch":46,"velocity":69,"startTime":76.956355,"endTime":77.20635445833334,"instrument":0,"program":0,"isDrum":true},{"pitch":38,"velocity":39,"startTime":76.99983316666668,"endTime":77.04331133333334,"instrument":0,"program":0,"isDrum":true},{"pitch":38,"velocity":39,"startTime":77.04331133333334,"endTime":77.08678950000001,"instrument":0,"program":0,"isDrum":true},{"pitch":38,"velocity":42,"startTime":77.08678950000001,"endTime":77.13026766666668,"instrument":0,"program":0,"isDrum":true},{"pitch":38,"velocity":48,"startTime":77.13026766666668,"endTime":77.17374583333334,"instrument":0,"program":0,"isDrum":true},{"pitch":38,"velocity":53,"startTime":77.17374583333334,"endTime":77.21722400000002,"instrument":0,"program":0,"isDrum":true},{"pitch":38,"velocity":55,"startTime":77.21722400000002,"endTime":77.27157170833334,"instrument":0,"program":0,"isDrum":true},{"pitch":38,"velocity":85,"startTime":77.21722400000002,"endTime":77.27157170833334,"instrument":0,"program":0,"isDrum":true},{"pitch":44,"velocity":95,"startTime":77.21722400000002,"endTime":77.32048464583333,"instrument":0,"program":0,"isDrum":true},{"pitch":38,"velocity":55,"startTime":77.73896200000001,"endTime":77.80417925,"instrument":0,"program":0,"isDrum":true},{"pitch":38,"velocity":85,"startTime":77.73896200000001,"endTime":77.80417925,"instrument":0,"program":0,"isDrum":true},{"pitch":44,"velocity":95,"startTime":77.73896200000001,"endTime":77.84765741666668,"instrument":0,"program":0,"isDrum":true},{"pitch":38,"velocity":55,"startTime":78.26070000000001,"endTime":78.32591725,"instrument":0,"program":0,"isDrum":true},{"pitch":38,"velocity":85,"startTime":78.26070000000001,"endTime":78.32591725,"instrument":0,"program":0,"isDrum":true},{"pitch":44,"velocity":95,"startTime":78.26070000000001,"endTime":78.36396064583333,"instrument":0,"program":0,"isDrum":true},{"pitch":38,"velocity":55,"startTime":78.78243800000001,"endTime":78.84765525,"instrument":0,"program":0,"isDrum":true},{"pitch":38,"velocity":85,"startTime":78.78243800000001,"endTime":78.84765525,"instrument":0,"program":0,"isDrum":true},{"pitch":44,"velocity":95,"startTime":78.78243800000001,"endTime":78.88569864583334,"instrument":0,"program":0,"isDrum":true},{"pitch":38,"velocity":34,"startTime":79.04330700000001,"endTime":79.08678516666669,"instrument":0,"program":0,"isDrum":true},{"pitch":46,"velocity":69,"startTime":79.04330700000001,"endTime":79.29330645833333,"instrument":0,"program":0,"isDrum":true},{"pitch":38,"velocity":39,"startTime":79.08678516666669,"endTime":79.13026333333333,"instrument":0,"program":0,"isDrum":true},{"pitch":38,"velocity":39,"startTime":79.13026333333333,"endTime":79.1737415,"instrument":0,"program":0,"isDrum":true},{"pitch":38,"velocity":42,"startTime":79.1737415,"endTime":79.21721966666668,"instrument":0,"program":0,"isDrum":true},{"pitch":38,"velocity":48,"startTime":79.21721966666668,"endTime":79.26069783333334,"instrument":0,"program":0,"isDrum":true},{"pitch":38,"velocity":53,"startTime":79.26069783333334,"endTime":79.30417600000001,"instrument":0,"program":0,"isDrum":true},{"pitch":38,"velocity":55,"startTime":79.30417600000001,"endTime":79.36939325000002,"instrument":0,"program":0,"isDrum":true},{"pitch":38,"velocity":85,"startTime":79.30417600000001,"endTime":79.36939325000002,"instrument":0,"program":0,"isDrum":true},{"pitch":44,"velocity":95,"startTime":79.30417600000001,"endTime":79.41287141666668,"instrument":0,"program":0,"isDrum":true},{"pitch":38,"velocity":55,"startTime":79.82591400000001,"endTime":79.89113125000002,"instrument":0,"program":0,"isDrum":true},{"pitch":38,"velocity":85,"startTime":79.82591400000001,"endTime":79.89113125000002,"instrument":0,"program":0,"isDrum":true},{"pitch":44,"velocity":95,"startTime":79.82591400000001,"endTime":79.92917464583334,"instrument":0,"program":0,"isDrum":true},{"pitch":38,"velocity":55,"startTime":80.34765200000001,"endTime":80.41286925000001,"instrument":0,"program":0,"isDrum":true},{"pitch":38,"velocity":85,"startTime":80.34765200000001,"endTime":80.41286925000001,"instrument":0,"program":0,"isDrum":true},{"pitch":44,"velocity":95,"startTime":80.34765200000001,"endTime":80.45634741666667,"instrument":0,"program":0,"isDrum":true},{"pitch":38,"velocity":55,"startTime":80.86939000000001,"endTime":80.93460725000001,"instrument":0,"program":0,"isDrum":true},{"pitch":38,"velocity":85,"startTime":80.86939000000001,"endTime":80.93460725000001,"instrument":0,"program":0,"isDrum":true},{"pitch":44,"velocity":95,"startTime":80.86939000000001,"endTime":80.97808541666669,"instrument":0,"program":0,"isDrum":true},{"pitch":38,"velocity":34,"startTime":81.13025900000001,"endTime":81.17373716666668,"instrument":0,"program":0,"isDrum":true},{"pitch":46,"velocity":69,"startTime":81.13025900000001,"endTime":81.38025845833334,"instrument":0,"program":0,"isDrum":true},{"pitch":38,"velocity":39,"startTime":81.17373716666668,"endTime":81.21721533333334,"instrument":0,"program":0,"isDrum":true},{"pitch":38,"velocity":39,"startTime":81.21721533333334,"endTime":81.2606935,"instrument":0,"program":0,"isDrum":true},{"pitch":38,"velocity":42,"startTime":81.2606935,"endTime":81.30417166666668,"instrument":0,"program":0,"isDrum":true},{"pitch":38,"velocity":48,"startTime":81.30417166666668,"endTime":81.34764983333334,"instrument":0,"program":0,"isDrum":true},{"pitch":38,"velocity":53,"startTime":81.34764983333334,"endTime":81.39112800000001,"instrument":0,"program":0,"isDrum":true},{"pitch":38,"velocity":55,"startTime":81.39112800000001,"endTime":81.45634525000001,"instrument":0,"program":0,"isDrum":true},{"pitch":38,"velocity":85,"startTime":81.39112800000001,"endTime":81.45634525000001,"instrument":0,"program":0,"isDrum":true},{"pitch":44,"velocity":95,"startTime":81.39112800000001,"endTime":81.49982341666669,"instrument":0,"program":0,"isDrum":true},{"pitch":38,"velocity":55,"startTime":81.91286600000001,"endTime":81.97808325000001,"instrument":0,"program":0,"isDrum":true},{"pitch":38,"velocity":85,"startTime":81.91286600000001,"endTime":81.97808325000001,"instrument":0,"program":0,"isDrum":true},{"pitch":44,"velocity":95,"startTime":81.91286600000001,"endTime":82.02156141666669,"instrument":0,"program":0,"isDrum":true},{"pitch":38,"velocity":55,"startTime":82.43460400000001,"endTime":82.49982125000001,"instrument":0,"program":0,"isDrum":true},{"pitch":38,"velocity":85,"startTime":82.43460400000001,"endTime":82.49982125000001,"instrument":0,"program":0,"isDrum":true},{"pitch":44,"velocity":95,"startTime":82.43460400000001,"endTime":82.532429875,"instrument":0,"program":0,"isDrum":true},{"pitch":38,"velocity":55,"startTime":82.956342,"endTime":83.02155925000001,"instrument":0,"program":0,"isDrum":true},{"pitch":38,"velocity":85,"startTime":82.956342,"endTime":83.02155925000001,"instrument":0,"program":0,"isDrum":true},{"pitch":44,"velocity":95,"startTime":82.956342,"endTime":83.05960264583334,"instrument":0,"program":0,"isDrum":true},{"pitch":38,"velocity":34,"startTime":83.217211,"endTime":83.26068916666668,"instrument":0,"program":0,"isDrum":true},{"pitch":46,"velocity":69,"startTime":83.217211,"endTime":83.46721045833334,"instrument":0,"program":0,"isDrum":true},{"pitch":38,"velocity":39,"startTime":83.26068916666668,"endTime":83.30416733333334,"instrument":0,"program":0,"isDrum":true},{"pitch":38,"velocity":39,"startTime":83.30416733333334,"endTime":83.34764550000001,"instrument":0,"program":0,"isDrum":true},{"pitch":38,"velocity":42,"startTime":83.34764550000001,"endTime":83.39112366666669,"instrument":0,"program":0,"isDrum":true},{"pitch":38,"velocity":48,"startTime":83.39112366666669,"endTime":83.43460183333333,"instrument":0,"program":0,"isDrum":true},{"pitch":38,"velocity":53,"startTime":83.43460183333333,"endTime":83.47808,"instrument":0,"program":0,"isDrum":true},{"pitch":38,"velocity":85,"startTime":83.47808,"endTime":83.69003606250001,"instrument":0,"program":0,"isDrum":true},{"pitch":51,"velocity":87,"startTime":83.47808,"endTime":83.52699293750001,"instrument":0,"program":0,"isDrum":true},{"pitch":53,"velocity":80,"startTime":83.47808,"endTime":83.85307918750001,"instrument":0,"program":0,"isDrum":true},{"pitch":38,"velocity":85,"startTime":84.521556,"endTime":84.65199050000001,"instrument":0,"program":0,"isDrum":true},{"pitch":51,"velocity":87,"startTime":84.521556,"endTime":84.57046893750001,"instrument":0,"program":0,"isDrum":true},{"pitch":53,"velocity":93,"startTime":84.521556,"endTime":84.72807729166668,"instrument":0,"program":0,"isDrum":true},{"pitch":38,"velocity":85,"startTime":85.565032,"endTime":85.67916218750001,"instrument":0,"program":0,"isDrum":true},{"pitch":51,"velocity":87,"startTime":85.565032,"endTime":85.61937970833334,"instrument":0,"program":0,"isDrum":true},{"pitch":53,"velocity":93,"startTime":85.565032,"endTime":85.83133577083333,"instrument":0,"program":0,"isDrum":true},{"pitch":38,"velocity":85,"startTime":86.60850800000001,"endTime":86.72263818750001,"instrument":0,"program":0,"isDrum":true},{"pitch":51,"velocity":87,"startTime":86.60850800000001,"endTime":86.66285570833334,"instrument":0,"program":0,"isDrum":true},{"pitch":53,"velocity":93,"startTime":86.60850800000001,"endTime":86.82589883333334,"instrument":0,"program":0,"isDrum":true},{"pitch":38,"velocity":85,"startTime":87.13024600000001,"endTime":87.24437618750001,"instrument":0,"program":0,"isDrum":true},{"pitch":51,"velocity":87,"startTime":87.13024600000001,"endTime":87.18459370833334,"instrument":0,"program":0,"isDrum":true},{"pitch":53,"velocity":93,"startTime":87.13024600000001,"endTime":87.34763683333334,"instrument":0,"program":0,"isDrum":true},{"pitch":38,"velocity":85,"startTime":87.65198400000001,"endTime":87.75524464583334,"instrument":0,"program":0,"isDrum":true},{"pitch":51,"velocity":85,"startTime":87.65198400000001,"endTime":87.69002739583334,"instrument":0,"program":0,"isDrum":true},{"pitch":51,"velocity":87,"startTime":87.65198400000001,"endTime":87.69002739583334,"instrument":0,"program":0,"isDrum":true},{"pitch":38,"velocity":34,"startTime":89.47806700000001,"endTime":89.52154516666668,"instrument":0,"program":0,"isDrum":true},{"pitch":46,"velocity":69,"startTime":89.47806700000001,"endTime":89.72806645833334,"instrument":0,"program":0,"isDrum":true},{"pitch":38,"velocity":39,"startTime":89.52154516666668,"endTime":89.56502333333334,"instrument":0,"program":0,"isDrum":true},{"pitch":38,"velocity":39,"startTime":89.56502333333334,"endTime":89.6085015,"instrument":0,"program":0,"isDrum":true},{"pitch":38,"velocity":42,"startTime":89.6085015,"endTime":89.65197966666668,"instrument":0,"program":0,"isDrum":true},{"pitch":38,"velocity":48,"startTime":89.65197966666668,"endTime":89.69545783333334,"instrument":0,"program":0,"isDrum":true},{"pitch":38,"velocity":53,"startTime":89.69545783333334,"endTime":89.73893600000001,"instrument":0,"program":0,"isDrum":true},{"pitch":38,"velocity":55,"startTime":89.73893600000001,"endTime":89.80415325000001,"instrument":0,"program":0,"isDrum":true},{"pitch":38,"velocity":85,"startTime":89.73893600000001,"endTime":89.80415325000001,"instrument":0,"program":0,"isDrum":true},{"pitch":44,"velocity":95,"startTime":89.73893600000001,"endTime":89.86393572916668,"instrument":0,"program":0,"isDrum":true},{"pitch":38,"velocity":55,"startTime":90.26067400000001,"endTime":90.32589125000001,"instrument":0,"program":0,"isDrum":true},{"pitch":38,"velocity":85,"startTime":90.26067400000001,"endTime":90.32589125000001,"instrument":0,"program":0,"isDrum":true},{"pitch":44,"velocity":95,"startTime":90.26067400000001,"endTime":90.3748041875,"instrument":0,"program":0,"isDrum":true},{"pitch":38,"velocity":55,"startTime":90.78241200000001,"endTime":90.84762925000001,"instrument":0,"program":0,"isDrum":true},{"pitch":38,"velocity":85,"startTime":90.78241200000001,"endTime":90.84762925000001,"instrument":0,"program":0,"isDrum":true},{"pitch":44,"velocity":95,"startTime":90.78241200000001,"endTime":90.88567264583334,"instrument":0,"program":0,"isDrum":true},{"pitch":38,"velocity":55,"startTime":91.30415,"endTime":91.36936725000001,"instrument":0,"program":0,"isDrum":true},{"pitch":38,"velocity":85,"startTime":91.30415,"endTime":91.36936725000001,"instrument":0,"program":0,"isDrum":true},{"pitch":44,"velocity":95,"startTime":91.30415,"endTime":91.401975875,"instrument":0,"program":0,"isDrum":true},{"pitch":38,"velocity":34,"startTime":91.565019,"endTime":91.60849716666668,"instrument":0,"program":0,"isDrum":true},{"pitch":46,"velocity":69,"startTime":91.565019,"endTime":91.81501845833334,"instrument":0,"program":0,"isDrum":true},{"pitch":38,"velocity":39,"startTime":91.60849716666668,"endTime":91.65197533333334,"instrument":0,"program":0,"isDrum":true},{"pitch":38,"velocity":39,"startTime":91.65197533333334,"endTime":91.69545350000001,"instrument":0,"program":0,"isDrum":true},{"pitch":38,"velocity":42,"startTime":91.69545350000001,"endTime":91.73893166666669,"instrument":0,"program":0,"isDrum":true},{"pitch":38,"velocity":48,"startTime":91.73893166666669,"endTime":91.78240983333333,"instrument":0,"program":0,"isDrum":true},{"pitch":38,"velocity":53,"startTime":91.78240983333333,"endTime":91.825888,"instrument":0,"program":0,"isDrum":true},{"pitch":38,"velocity":55,"startTime":91.825888,"endTime":91.88567047916668,"instrument":0,"program":0,"isDrum":true},{"pitch":38,"velocity":85,"startTime":91.825888,"endTime":91.88567047916668,"instrument":0,"program":0,"isDrum":true},{"pitch":44,"velocity":95,"startTime":91.825888,"endTime":91.90197479166667,"instrument":0,"program":0,"isDrum":true},{"pitch":51,"velocity":87,"startTime":91.825888,"endTime":91.86936616666668,"instrument":0,"program":0,"isDrum":true},{"pitch":38,"velocity":55,"startTime":92.086757,"endTime":92.16284379166669,"instrument":0,"program":0,"isDrum":true},{"pitch":38,"velocity":85,"startTime":92.086757,"endTime":92.16284379166669,"instrument":0,"program":0,"isDrum":true},{"pitch":44,"velocity":95,"startTime":92.086757,"endTime":92.16284379166669,"instrument":0,"program":0,"isDrum":true},{"pitch":51,"velocity":87,"startTime":92.086757,"endTime":92.15197425000001,"instrument":0,"program":0,"isDrum":true},{"pitch":38,"velocity":55,"startTime":92.608495,"endTime":92.6900165625,"instrument":0,"program":0,"isDrum":true},{"pitch":38,"velocity":85,"startTime":92.608495,"endTime":92.6900165625,"instrument":0,"program":0,"isDrum":true},{"pitch":44,"velocity":95,"startTime":92.608495,"endTime":92.72805995833333,"instrument":0,"program":0,"isDrum":true},{"pitch":38,"velocity":55,"startTime":93.130233,"endTime":93.21718933333334,"instrument":0,"program":0,"isDrum":true},{"pitch":44,"velocity":95,"startTime":93.130233,"endTime":93.20631979166669,"instrument":0,"program":0,"isDrum":true},{"pitch":38,"velocity":55,"startTime":93.391102,"endTime":93.46718879166669,"instrument":0,"program":0,"isDrum":true},{"pitch":38,"velocity":85,"startTime":93.391102,"endTime":93.46718879166669,"instrument":0,"program":0,"isDrum":true},{"pitch":44,"velocity":95,"startTime":93.391102,"endTime":93.48892787500002,"instrument":0,"program":0,"isDrum":true},{"pitch":51,"velocity":87,"startTime":93.391102,"endTime":93.45631925,"instrument":0,"program":0,"isDrum":true},{"pitch":38,"velocity":55,"startTime":93.91284000000002,"endTime":93.99979633333334,"instrument":0,"program":0,"isDrum":true},{"pitch":38,"velocity":85,"startTime":93.91284000000002,"endTime":93.99979633333334,"instrument":0,"program":0,"isDrum":true},{"pitch":44,"velocity":95,"startTime":93.91284000000002,"endTime":93.9943615625,"instrument":0,"program":0,"isDrum":true},{"pitch":38,"velocity":55,"startTime":94.17370900000002,"endTime":94.24436102083334,"instrument":0,"program":0,"isDrum":true},{"pitch":38,"velocity":85,"startTime":94.17370900000002,"endTime":94.24436102083334,"instrument":0,"program":0,"isDrum":true},{"pitch":44,"velocity":95,"startTime":94.17370900000002,"endTime":94.24979579166668,"instrument":0,"program":0,"isDrum":true},{"pitch":38,"velocity":55,"startTime":94.69544700000002,"endTime":94.77696856250002,"instrument":0,"program":0,"isDrum":true},{"pitch":38,"velocity":85,"startTime":94.69544700000002,"endTime":94.77696856250002,"instrument":0,"program":0,"isDrum":true},{"pitch":44,"velocity":95,"startTime":94.69544700000002,"endTime":94.77696856250002,"instrument":0,"program":0,"isDrum":true},{"pitch":38,"velocity":55,"startTime":95.21718500000001,"endTime":95.31501087500001,"instrument":0,"program":0,"isDrum":true},{"pitch":44,"velocity":95,"startTime":95.21718500000001,"endTime":95.35848904166669,"instrument":0,"program":0,"isDrum":true},{"pitch":38,"velocity":55,"startTime":95.47805400000001,"endTime":95.56501033333333,"instrument":0,"program":0,"isDrum":true},{"pitch":38,"velocity":85,"startTime":95.47805400000001,"endTime":95.56501033333333,"instrument":0,"program":0,"isDrum":true},{"pitch":44,"velocity":95,"startTime":95.47805400000001,"endTime":95.56501033333333,"instrument":0,"program":0,"isDrum":true},{"pitch":51,"velocity":87,"startTime":95.47805400000001,"endTime":95.54870602083334,"instrument":0,"program":0,"isDrum":true},{"pitch":38,"velocity":55,"startTime":95.99979200000001,"endTime":96.05957447916668,"instrument":0,"program":0,"isDrum":true},{"pitch":38,"velocity":85,"startTime":95.99979200000001,"endTime":96.05957447916668,"instrument":0,"program":0,"isDrum":true},{"pitch":51,"velocity":85,"startTime":95.99979200000001,"endTime":96.07044402083334,"instrument":0,"program":0,"isDrum":true},{"pitch":51,"velocity":87,"startTime":95.99979200000001,"endTime":96.07044402083334,"instrument":0,"program":0,"isDrum":true},{"pitch":70,"velocity":78,"startTime":98.08674400000001,"endTime":98.21717850000002,"instrument":0,"program":0,"isDrum":true},{"pitch":51,"velocity":85,"startTime":98.34761300000001,"endTime":98.57043860416668,"instrument":0,"program":0,"isDrum":true},{"pitch":38,"velocity":55,"startTime":98.60848200000001,"endTime":98.70630787500001,"instrument":0,"program":0,"isDrum":true},{"pitch":38,"velocity":85,"startTime":98.60848200000001,"endTime":98.70630787500001,"instrument":0,"program":0,"isDrum":true},{"pitch":44,"velocity":95,"startTime":98.60848200000001,"endTime":98.76065558333333,"instrument":0,"program":0,"isDrum":true},{"pitch":38,"velocity":55,"startTime":99.13022000000001,"endTime":99.17913293750001,"instrument":0,"program":0,"isDrum":true},{"pitch":38,"velocity":85,"startTime":99.13022000000001,"endTime":99.17913293750001,"instrument":0,"program":0,"isDrum":true},{"pitch":44,"velocity":95,"startTime":99.13022000000001,"endTime":99.26065450000002,"instrument":0,"program":0,"isDrum":true},{"pitch":51,"velocity":87,"startTime":99.13022000000001,"endTime":99.228045875,"instrument":0,"program":0,"isDrum":true},{"pitch":38,"velocity":34,"startTime":99.91282700000001,"endTime":99.95630516666668,"instrument":0,"program":0,"isDrum":true},{"pitch":46,"velocity":69,"startTime":99.91282700000001,"endTime":100.16282645833334,"instrument":0,"program":0,"isDrum":true},{"pitch":38,"velocity":39,"startTime":99.95630516666668,"endTime":99.99978333333334,"instrument":0,"program":0,"isDrum":true},{"pitch":38,"velocity":39,"startTime":99.99978333333334,"endTime":100.04326150000001,"instrument":0,"program":0,"isDrum":true},{"pitch":38,"velocity":42,"startTime":100.04326150000001,"endTime":100.08673966666669,"instrument":0,"program":0,"isDrum":true},{"pitch":38,"velocity":48,"startTime":100.08673966666669,"endTime":100.13021783333333,"instrument":0,"program":0,"isDrum":true},{"pitch":38,"velocity":53,"startTime":100.13021783333333,"endTime":100.173696,"instrument":0,"program":0,"isDrum":true},{"pitch":38,"velocity":55,"startTime":100.173696,"endTime":100.22804370833335,"instrument":0,"program":0,"isDrum":true},{"pitch":38,"velocity":85,"startTime":100.173696,"endTime":100.22804370833335,"instrument":0,"program":0,"isDrum":true},{"pitch":51,"velocity":87,"startTime":100.173696,"endTime":100.27695664583334,"instrument":0,"program":0,"isDrum":true},{"pitch":38,"velocity":55,"startTime":100.695434,"endTime":100.76065125000001,"instrument":0,"program":0,"isDrum":true},{"pitch":38,"velocity":85,"startTime":100.695434,"endTime":100.76065125000001,"instrument":0,"program":0,"isDrum":true},{"pitch":44,"velocity":95,"startTime":100.695434,"endTime":100.80412941666668,"instrument":0,"program":0,"isDrum":true},{"pitch":38,"velocity":55,"startTime":101.217172,"endTime":101.28238925000001,"instrument":0,"program":0,"isDrum":true},{"pitch":38,"velocity":85,"startTime":101.217172,"endTime":101.28238925000001,"instrument":0,"program":0,"isDrum":true},{"pitch":44,"velocity":95,"startTime":101.217172,"endTime":101.32043264583334,"instrument":0,"program":0,"isDrum":true},{"pitch":38,"velocity":55,"startTime":101.73891,"endTime":101.80412725000001,"instrument":0,"program":0,"isDrum":true},{"pitch":38,"velocity":85,"startTime":101.73891,"endTime":101.80412725000001,"instrument":0,"program":0,"isDrum":true},{"pitch":44,"velocity":95,"startTime":101.73891,"endTime":101.84217064583333,"instrument":0,"program":0,"isDrum":true},{"pitch":38,"velocity":34,"startTime":101.999779,"endTime":102.04325716666668,"instrument":0,"program":0,"isDrum":true},{"pitch":46,"velocity":69,"startTime":101.999779,"endTime":102.24977845833334,"instrument":0,"program":0,"isDrum":true},{"pitch":38,"velocity":39,"startTime":102.04325716666668,"endTime":102.08673533333334,"instrument":0,"program":0,"isDrum":true},{"pitch":38,"velocity":39,"startTime":102.08673533333334,"endTime":102.13021350000001,"instrument":0,"program":0,"isDrum":true},{"pitch":38,"velocity":42,"startTime":102.13021350000001,"endTime":102.17369166666668,"instrument":0,"program":0,"isDrum":true},{"pitch":38,"velocity":48,"startTime":102.17369166666668,"endTime":102.21716983333334,"instrument":0,"program":0,"isDrum":true},{"pitch":38,"velocity":53,"startTime":102.21716983333334,"endTime":102.260648,"instrument":0,"program":0,"isDrum":true},{"pitch":38,"velocity":55,"startTime":102.260648,"endTime":102.32586525,"instrument":0,"program":0,"isDrum":true},{"pitch":38,"velocity":85,"startTime":102.260648,"endTime":102.32586525,"instrument":0,"program":0,"isDrum":true},{"pitch":44,"velocity":95,"startTime":102.260648,"endTime":102.36934341666668,"instrument":0,"program":0,"isDrum":true},{"pitch":38,"velocity":55,"startTime":102.78238600000002,"endTime":102.84760325,"instrument":0,"program":0,"isDrum":true},{"pitch":38,"velocity":85,"startTime":102.78238600000002,"endTime":102.84760325,"instrument":0,"program":0,"isDrum":true},{"pitch":44,"velocity":95,"startTime":102.78238600000002,"endTime":102.88564664583333,"instrument":0,"program":0,"isDrum":true},{"pitch":38,"velocity":55,"startTime":103.30412400000002,"endTime":103.36934125,"instrument":0,"program":0,"isDrum":true},{"pitch":38,"velocity":85,"startTime":103.30412400000002,"endTime":103.36934125,"instrument":0,"program":0,"isDrum":true},{"pitch":44,"velocity":95,"startTime":103.30412400000002,"endTime":103.41281941666668,"instrument":0,"program":0,"isDrum":true},{"pitch":38,"velocity":55,"startTime":103.82586200000001,"endTime":103.89107925,"instrument":0,"program":0,"isDrum":true},{"pitch":38,"velocity":85,"startTime":103.82586200000001,"endTime":103.89107925,"instrument":0,"program":0,"isDrum":true},{"pitch":44,"velocity":95,"startTime":103.82586200000001,"endTime":103.93455741666668,"instrument":0,"program":0,"isDrum":true},{"pitch":38,"velocity":34,"startTime":104.08673100000001,"endTime":104.13020916666669,"instrument":0,"program":0,"isDrum":true},{"pitch":46,"velocity":69,"startTime":104.08673100000001,"endTime":104.33673045833334,"instrument":0,"program":0,"isDrum":true},{"pitch":38,"velocity":39,"startTime":104.13020916666669,"endTime":104.17368733333333,"instrument":0,"program":0,"isDrum":true},{"pitch":38,"velocity":39,"startTime":104.17368733333333,"endTime":104.21716550000001,"instrument":0,"program":0,"isDrum":true},{"pitch":38,"velocity":42,"startTime":104.21716550000001,"endTime":104.26064366666668,"instrument":0,"program":0,"isDrum":true},{"pitch":38,"velocity":48,"startTime":104.26064366666668,"endTime":104.30412183333334,"instrument":0,"program":0,"isDrum":true},{"pitch":38,"velocity":53,"startTime":104.30412183333334,"endTime":104.34760000000001,"instrument":0,"program":0,"isDrum":true},{"pitch":38,"velocity":55,"startTime":104.34760000000001,"endTime":104.41281725000002,"instrument":0,"program":0,"isDrum":true},{"pitch":38,"velocity":85,"startTime":104.34760000000001,"endTime":104.41281725000002,"instrument":0,"program":0,"isDrum":true},{"pitch":44,"velocity":95,"startTime":104.34760000000001,"endTime":104.45629541666668,"instrument":0,"program":0,"isDrum":true},{"pitch":38,"velocity":55,"startTime":104.86933800000001,"endTime":104.93455525000002,"instrument":0,"program":0,"isDrum":true},{"pitch":38,"velocity":85,"startTime":104.86933800000001,"endTime":104.93455525000002,"instrument":0,"program":0,"isDrum":true},{"pitch":44,"velocity":95,"startTime":104.86933800000001,"endTime":104.97803341666668,"instrument":0,"program":0,"isDrum":true},{"pitch":38,"velocity":55,"startTime":105.39107600000001,"endTime":105.45629325000002,"instrument":0,"program":0,"isDrum":true},{"pitch":38,"velocity":85,"startTime":105.39107600000001,"endTime":105.45629325000002,"instrument":0,"program":0,"isDrum":true},{"pitch":44,"velocity":95,"startTime":105.39107600000001,"endTime":105.48890187500001,"instrument":0,"program":0,"isDrum":true},{"pitch":38,"velocity":55,"startTime":105.91281400000001,"endTime":105.97803125000002,"instrument":0,"program":0,"isDrum":true},{"pitch":38,"velocity":85,"startTime":105.91281400000001,"endTime":105.97803125000002,"instrument":0,"program":0,"isDrum":true},{"pitch":44,"velocity":95,"startTime":105.91281400000001,"endTime":106.01607464583334,"instrument":0,"program":0,"isDrum":true},{"pitch":38,"velocity":34,"startTime":106.17368300000001,"endTime":106.21716116666668,"instrument":0,"program":0,"isDrum":true},{"pitch":46,"velocity":69,"startTime":106.17368300000001,"endTime":106.42368245833335,"instrument":0,"program":0,"isDrum":true},{"pitch":38,"velocity":39,"startTime":106.21716116666668,"endTime":106.26063933333334,"instrument":0,"program":0,"isDrum":true},{"pitch":38,"velocity":39,"startTime":106.26063933333334,"endTime":106.3041175,"instrument":0,"program":0,"isDrum":true},{"pitch":38,"velocity":42,"startTime":106.3041175,"endTime":106.34759566666668,"instrument":0,"program":0,"isDrum":true},{"pitch":38,"velocity":48,"startTime":106.34759566666668,"endTime":106.39107383333334,"instrument":0,"program":0,"isDrum":true},{"pitch":38,"velocity":53,"startTime":106.39107383333334,"endTime":106.43455200000001,"instrument":0,"program":0,"isDrum":true},{"pitch":38,"velocity":55,"startTime":106.43455200000001,"endTime":106.49976925000001,"instrument":0,"program":0,"isDrum":true},{"pitch":38,"velocity":85,"startTime":106.43455200000001,"endTime":106.49976925000001,"instrument":0,"program":0,"isDrum":true},{"pitch":44,"velocity":95,"startTime":106.43455200000001,"endTime":106.55955172916669,"instrument":0,"program":0,"isDrum":true},{"pitch":38,"velocity":55,"startTime":106.95629000000001,"endTime":107.02150725000001,"instrument":0,"program":0,"isDrum":true},{"pitch":38,"velocity":85,"startTime":106.95629000000001,"endTime":107.02150725000001,"instrument":0,"program":0,"isDrum":true},{"pitch":44,"velocity":95,"startTime":106.95629000000001,"endTime":107.0704201875,"instrument":0,"program":0,"isDrum":true},{"pitch":38,"velocity":55,"startTime":107.47802800000001,"endTime":107.54324525000001,"instrument":0,"program":0,"isDrum":true},{"pitch":38,"velocity":85,"startTime":107.47802800000001,"endTime":107.54324525000001,"instrument":0,"program":0,"isDrum":true},{"pitch":44,"velocity":95,"startTime":107.47802800000001,"endTime":107.58128864583334,"instrument":0,"program":0,"isDrum":true},{"pitch":38,"velocity":55,"startTime":107.99976600000001,"endTime":108.06498325000001,"instrument":0,"program":0,"isDrum":true},{"pitch":38,"velocity":85,"startTime":107.99976600000001,"endTime":108.06498325000001,"instrument":0,"program":0,"isDrum":true},{"pitch":44,"velocity":95,"startTime":107.99976600000001,"endTime":108.097591875,"instrument":0,"program":0,"isDrum":true},{"pitch":38,"velocity":34,"startTime":108.26063500000001,"endTime":108.30411316666668,"instrument":0,"program":0,"isDrum":true},{"pitch":46,"velocity":69,"startTime":108.26063500000001,"endTime":108.51063445833334,"instrument":0,"program":0,"isDrum":true},{"pitch":38,"velocity":39,"startTime":108.30411316666668,"endTime":108.34759133333334,"instrument":0,"program":0,"isDrum":true},{"pitch":38,"velocity":39,"startTime":108.34759133333334,"endTime":108.39106950000001,"instrument":0,"program":0,"isDrum":true},{"pitch":38,"velocity":42,"startTime":108.39106950000001,"endTime":108.43454766666669,"instrument":0,"program":0,"isDrum":true},{"pitch":38,"velocity":48,"startTime":108.43454766666669,"endTime":108.47802583333333,"instrument":0,"program":0,"isDrum":true},{"pitch":38,"velocity":53,"startTime":108.47802583333333,"endTime":108.52150400000001,"instrument":0,"program":0,"isDrum":true},{"pitch":38,"velocity":55,"startTime":108.52150400000001,"endTime":108.58672125000001,"instrument":0,"program":0,"isDrum":true},{"pitch":38,"velocity":85,"startTime":108.52150400000001,"endTime":108.58672125000001,"instrument":0,"program":0,"isDrum":true},{"pitch":44,"velocity":95,"startTime":108.52150400000001,"endTime":108.63019941666668,"instrument":0,"program":0,"isDrum":true},{"pitch":38,"velocity":55,"startTime":109.043242,"endTime":109.10845925000001,"instrument":0,"program":0,"isDrum":true},{"pitch":38,"velocity":85,"startTime":109.043242,"endTime":109.10845925000001,"instrument":0,"program":0,"isDrum":true},{"pitch":44,"velocity":95,"startTime":109.043242,"endTime":109.14650264583334,"instrument":0,"program":0,"isDrum":true},{"pitch":38,"velocity":55,"startTime":109.56498,"endTime":109.63019725000001,"instrument":0,"program":0,"isDrum":true},{"pitch":38,"velocity":85,"startTime":109.56498,"endTime":109.63019725000001,"instrument":0,"program":0,"isDrum":true},{"pitch":44,"velocity":95,"startTime":109.56498,"endTime":109.66280587500002,"instrument":0,"program":0,"isDrum":true},{"pitch":38,"velocity":55,"startTime":110.086718,"endTime":110.15193525000001,"instrument":0,"program":0,"isDrum":true},{"pitch":38,"velocity":85,"startTime":110.086718,"endTime":110.15193525000001,"instrument":0,"program":0,"isDrum":true},{"pitch":44,"velocity":95,"startTime":110.086718,"endTime":110.17910910416668,"instrument":0,"program":0,"isDrum":true},{"pitch":38,"velocity":34,"startTime":110.347587,"endTime":110.39106516666668,"instrument":0,"program":0,"isDrum":true},{"pitch":46,"velocity":69,"startTime":110.347587,"endTime":110.59758645833334,"instrument":0,"program":0,"isDrum":true},{"pitch":38,"velocity":39,"startTime":110.39106516666668,"endTime":110.43454333333334,"instrument":0,"program":0,"isDrum":true},{"pitch":38,"velocity":39,"startTime":110.43454333333334,"endTime":110.47802150000001,"instrument":0,"program":0,"isDrum":true},{"pitch":38,"velocity":42,"startTime":110.47802150000001,"endTime":110.52149966666668,"instrument":0,"program":0,"isDrum":true},{"pitch":38,"velocity":48,"startTime":110.52149966666668,"endTime":110.56497783333334,"instrument":0,"program":0,"isDrum":true},{"pitch":38,"velocity":53,"startTime":110.56497783333334,"endTime":110.60845600000002,"instrument":0,"program":0,"isDrum":true},{"pitch":38,"velocity":55,"startTime":110.60845600000002,"endTime":110.66280370833334,"instrument":0,"program":0,"isDrum":true},{"pitch":38,"velocity":85,"startTime":110.60845600000002,"endTime":110.66280370833334,"instrument":0,"program":0,"isDrum":true},{"pitch":44,"velocity":95,"startTime":110.60845600000002,"endTime":110.71171664583333,"instrument":0,"program":0,"isDrum":true},{"pitch":38,"velocity":55,"startTime":111.13019400000002,"endTime":111.19541125,"instrument":0,"program":0,"isDrum":true},{"pitch":38,"velocity":85,"startTime":111.13019400000002,"endTime":111.19541125,"instrument":0,"program":0,"isDrum":true},{"pitch":44,"velocity":95,"startTime":111.13019400000002,"endTime":111.23888941666668,"instrument":0,"program":0,"isDrum":true},{"pitch":38,"velocity":55,"startTime":111.65193200000002,"endTime":111.71714925,"instrument":0,"program":0,"isDrum":true},{"pitch":38,"velocity":85,"startTime":111.65193200000002,"endTime":111.71714925,"instrument":0,"program":0,"isDrum":true},{"pitch":44,"velocity":95,"startTime":111.65193200000002,"endTime":111.75519264583333,"instrument":0,"program":0,"isDrum":true},{"pitch":38,"velocity":55,"startTime":112.17367000000002,"endTime":112.23888725,"instrument":0,"program":0,"isDrum":true},{"pitch":38,"velocity":85,"startTime":112.17367000000002,"endTime":112.23888725,"instrument":0,"program":0,"isDrum":true},{"pitch":44,"velocity":95,"startTime":112.17367000000002,"endTime":112.27693064583335,"instrument":0,"program":0,"isDrum":true},{"pitch":38,"velocity":34,"startTime":112.43453900000002,"endTime":112.47801716666669,"instrument":0,"program":0,"isDrum":true},{"pitch":46,"velocity":69,"startTime":112.43453900000002,"endTime":112.68453845833334,"instrument":0,"program":0,"isDrum":true},{"pitch":38,"velocity":39,"startTime":112.47801716666669,"endTime":112.52149533333333,"instrument":0,"program":0,"isDrum":true},{"pitch":38,"velocity":39,"startTime":112.52149533333333,"endTime":112.56497350000001,"instrument":0,"program":0,"isDrum":true},{"pitch":38,"velocity":42,"startTime":112.56497350000001,"endTime":112.60845166666668,"instrument":0,"program":0,"isDrum":true},{"pitch":38,"velocity":48,"startTime":112.60845166666668,"endTime":112.65192983333334,"instrument":0,"program":0,"isDrum":true},{"pitch":38,"velocity":53,"startTime":112.65192983333334,"endTime":112.69540800000001,"instrument":0,"program":0,"isDrum":true},{"pitch":38,"velocity":55,"startTime":112.69540800000001,"endTime":112.76062525000002,"instrument":0,"program":0,"isDrum":true},{"pitch":38,"velocity":85,"startTime":112.69540800000001,"endTime":112.76062525000002,"instrument":0,"program":0,"isDrum":true},{"pitch":44,"velocity":95,"startTime":112.69540800000001,"endTime":112.80410341666668,"instrument":0,"program":0,"isDrum":true},{"pitch":38,"velocity":55,"startTime":113.21714600000001,"endTime":113.28236325000002,"instrument":0,"program":0,"isDrum":true},{"pitch":38,"velocity":85,"startTime":113.21714600000001,"endTime":113.28236325000002,"instrument":0,"program":0,"isDrum":true},{"pitch":44,"velocity":95,"startTime":113.21714600000001,"endTime":113.32040664583334,"instrument":0,"program":0,"isDrum":true},{"pitch":38,"velocity":55,"startTime":113.73888400000001,"endTime":113.80410125000002,"instrument":0,"program":0,"isDrum":true},{"pitch":38,"velocity":85,"startTime":113.73888400000001,"endTime":113.80410125000002,"instrument":0,"program":0,"isDrum":true},{"pitch":44,"velocity":95,"startTime":113.73888400000001,"endTime":113.84757941666668,"instrument":0,"program":0,"isDrum":true},{"pitch":38,"velocity":55,"startTime":114.26062200000001,"endTime":114.32583925000002,"instrument":0,"program":0,"isDrum":true},{"pitch":38,"velocity":85,"startTime":114.26062200000001,"endTime":114.32583925000002,"instrument":0,"program":0,"isDrum":true},{"pitch":44,"velocity":95,"startTime":114.26062200000001,"endTime":114.36931741666669,"instrument":0,"program":0,"isDrum":true},{"pitch":38,"velocity":34,"startTime":114.52149100000001,"endTime":114.56496916666669,"instrument":0,"program":0,"isDrum":true},{"pitch":46,"velocity":69,"startTime":114.52149100000001,"endTime":114.77149045833335,"instrument":0,"program":0,"isDrum":true},{"pitch":38,"velocity":39,"startTime":114.56496916666669,"endTime":114.60844733333334,"instrument":0,"program":0,"isDrum":true},{"pitch":38,"velocity":39,"startTime":114.60844733333334,"endTime":114.6519255,"instrument":0,"program":0,"isDrum":true},{"pitch":38,"velocity":42,"startTime":114.6519255,"endTime":114.69540366666668,"instrument":0,"program":0,"isDrum":true},{"pitch":38,"velocity":48,"startTime":114.69540366666668,"endTime":114.73888183333334,"instrument":0,"program":0,"isDrum":true},{"pitch":38,"velocity":53,"startTime":114.73888183333334,"endTime":114.78236000000001,"instrument":0,"program":0,"isDrum":true},{"pitch":38,"velocity":55,"startTime":114.78236000000001,"endTime":114.84757725000001,"instrument":0,"program":0,"isDrum":true},{"pitch":38,"velocity":85,"startTime":114.78236000000001,"endTime":114.84757725000001,"instrument":0,"program":0,"isDrum":true},{"pitch":44,"velocity":95,"startTime":114.78236000000001,"endTime":114.89105541666669,"instrument":0,"program":0,"isDrum":true},{"pitch":38,"velocity":55,"startTime":115.30409800000001,"endTime":115.36931525000001,"instrument":0,"program":0,"isDrum":true},{"pitch":38,"velocity":85,"startTime":115.30409800000001,"endTime":115.36931525000001,"instrument":0,"program":0,"isDrum":true},{"pitch":44,"velocity":95,"startTime":115.30409800000001,"endTime":115.41279341666669,"instrument":0,"program":0,"isDrum":true},{"pitch":38,"velocity":55,"startTime":115.82583600000001,"endTime":115.89105325000001,"instrument":0,"program":0,"isDrum":true},{"pitch":38,"velocity":85,"startTime":115.82583600000001,"endTime":115.89105325000001,"instrument":0,"program":0,"isDrum":true},{"pitch":44,"velocity":95,"startTime":115.82583600000001,"endTime":115.92366187500001,"instrument":0,"program":0,"isDrum":true},{"pitch":38,"velocity":55,"startTime":116.34757400000001,"endTime":116.41279125000001,"instrument":0,"program":0,"isDrum":true},{"pitch":38,"velocity":85,"startTime":116.34757400000001,"endTime":116.41279125000001,"instrument":0,"program":0,"isDrum":true},{"pitch":44,"velocity":95,"startTime":116.34757400000001,"endTime":116.45083464583334,"instrument":0,"program":0,"isDrum":true},{"pitch":38,"velocity":34,"startTime":116.60844300000001,"endTime":116.65192116666668,"instrument":0,"program":0,"isDrum":true},{"pitch":46,"velocity":69,"startTime":116.60844300000001,"endTime":116.85844245833334,"instrument":0,"program":0,"isDrum":true},{"pitch":38,"velocity":39,"startTime":116.65192116666668,"endTime":116.69539933333334,"instrument":0,"program":0,"isDrum":true},{"pitch":38,"velocity":39,"startTime":116.69539933333334,"endTime":116.73887750000002,"instrument":0,"program":0,"isDrum":true},{"pitch":38,"velocity":42,"startTime":116.73887750000002,"endTime":116.78235566666669,"instrument":0,"program":0,"isDrum":true},{"pitch":38,"velocity":48,"startTime":116.78235566666669,"endTime":116.82583383333333,"instrument":0,"program":0,"isDrum":true},{"pitch":38,"velocity":53,"startTime":116.82583383333333,"endTime":116.86931200000001,"instrument":0,"program":0,"isDrum":true},{"pitch":38,"velocity":55,"startTime":116.86931200000001,"endTime":116.93452925000001,"instrument":0,"program":0,"isDrum":true},{"pitch":38,"velocity":85,"startTime":116.86931200000001,"endTime":116.93452925000001,"instrument":0,"program":0,"isDrum":true},{"pitch":44,"velocity":95,"startTime":116.86931200000001,"endTime":116.99431172916668,"instrument":0,"program":0,"isDrum":true},{"pitch":38,"velocity":55,"startTime":117.39105,"endTime":117.45626725000001,"instrument":0,"program":0,"isDrum":true},{"pitch":38,"velocity":85,"startTime":117.39105,"endTime":117.45626725000001,"instrument":0,"program":0,"isDrum":true},{"pitch":44,"velocity":95,"startTime":117.39105,"endTime":117.50518018750002,"instrument":0,"program":0,"isDrum":true},{"pitch":38,"velocity":55,"startTime":117.912788,"endTime":117.97800525000001,"instrument":0,"program":0,"isDrum":true},{"pitch":38,"velocity":85,"startTime":117.912788,"endTime":117.97800525000001,"instrument":0,"program":0,"isDrum":true},{"pitch":44,"velocity":95,"startTime":117.912788,"endTime":118.01604864583334,"instrument":0,"program":0,"isDrum":true},{"pitch":38,"velocity":55,"startTime":118.434526,"endTime":118.49974325000001,"instrument":0,"program":0,"isDrum":true},{"pitch":38,"velocity":85,"startTime":118.434526,"endTime":118.49974325000001,"instrument":0,"program":0,"isDrum":true},{"pitch":44,"velocity":95,"startTime":118.434526,"endTime":118.53235187500002,"instrument":0,"program":0,"isDrum":true},{"pitch":38,"velocity":34,"startTime":118.695395,"endTime":118.73887316666668,"instrument":0,"program":0,"isDrum":true},{"pitch":46,"velocity":69,"startTime":118.695395,"endTime":118.94539445833334,"instrument":0,"program":0,"isDrum":true},{"pitch":38,"velocity":39,"startTime":118.73887316666668,"endTime":118.78235133333334,"instrument":0,"program":0,"isDrum":true},{"pitch":38,"velocity":39,"startTime":118.78235133333334,"endTime":118.82582950000001,"instrument":0,"program":0,"isDrum":true},{"pitch":38,"velocity":42,"startTime":118.82582950000001,"endTime":118.86930766666669,"instrument":0,"program":0,"isDrum":true},{"pitch":38,"velocity":48,"startTime":118.86930766666669,"endTime":118.91278583333334,"instrument":0,"program":0,"isDrum":true},{"pitch":38,"velocity":53,"startTime":118.91278583333334,"endTime":118.956264,"instrument":0,"program":0,"isDrum":true},{"pitch":38,"velocity":55,"startTime":118.956264,"endTime":119.02148125000001,"instrument":0,"program":0,"isDrum":true},{"pitch":38,"velocity":85,"startTime":118.956264,"endTime":119.02148125000001,"instrument":0,"program":0,"isDrum":true},{"pitch":44,"velocity":95,"startTime":118.956264,"endTime":119.06495941666668,"instrument":0,"program":0,"isDrum":true},{"pitch":38,"velocity":55,"startTime":119.47800200000002,"endTime":119.54321925,"instrument":0,"program":0,"isDrum":true},{"pitch":38,"velocity":85,"startTime":119.47800200000002,"endTime":119.54321925,"instrument":0,"program":0,"isDrum":true},{"pitch":44,"velocity":95,"startTime":119.47800200000002,"endTime":119.58126264583333,"instrument":0,"program":0,"isDrum":true},{"pitch":38,"velocity":55,"startTime":119.99974000000002,"endTime":120.06495725,"instrument":0,"program":0,"isDrum":true},{"pitch":38,"velocity":85,"startTime":119.99974000000002,"endTime":120.06495725,"instrument":0,"program":0,"isDrum":true},{"pitch":44,"velocity":95,"startTime":119.99974000000002,"endTime":120.09756587500002,"instrument":0,"program":0,"isDrum":true},{"pitch":38,"velocity":55,"startTime":120.52147800000002,"endTime":120.58669525,"instrument":0,"program":0,"isDrum":true},{"pitch":38,"velocity":85,"startTime":120.52147800000002,"endTime":120.58669525,"instrument":0,"program":0,"isDrum":true},{"pitch":44,"velocity":95,"startTime":120.52147800000002,"endTime":120.61386910416668,"instrument":0,"program":0,"isDrum":true},{"pitch":38,"velocity":34,"startTime":120.78234700000002,"endTime":120.82582516666669,"instrument":0,"program":0,"isDrum":true},{"pitch":46,"velocity":69,"startTime":120.78234700000002,"endTime":121.03234645833334,"instrument":0,"program":0,"isDrum":true},{"pitch":38,"velocity":39,"startTime":120.82582516666669,"endTime":120.86930333333333,"instrument":0,"program":0,"isDrum":true},{"pitch":38,"velocity":39,"startTime":120.86930333333333,"endTime":120.91278150000001,"instrument":0,"program":0,"isDrum":true},{"pitch":38,"velocity":42,"startTime":120.91278150000001,"endTime":120.95625966666668,"instrument":0,"program":0,"isDrum":true},{"pitch":38,"velocity":48,"startTime":120.95625966666668,"endTime":120.99973783333334,"instrument":0,"program":0,"isDrum":true},{"pitch":38,"velocity":53,"startTime":120.99973783333334,"endTime":121.04321600000002,"instrument":0,"program":0,"isDrum":true},{"pitch":38,"velocity":55,"startTime":121.04321600000002,"endTime":121.10843325000002,"instrument":0,"program":0,"isDrum":true},{"pitch":38,"velocity":85,"startTime":121.04321600000002,"endTime":121.10843325000002,"instrument":0,"program":0,"isDrum":true},{"pitch":44,"velocity":95,"startTime":121.04321600000002,"endTime":121.15191141666668,"instrument":0,"program":0,"isDrum":true},{"pitch":38,"velocity":55,"startTime":121.56495400000001,"endTime":121.63017125000002,"instrument":0,"program":0,"isDrum":true},{"pitch":38,"velocity":85,"startTime":121.56495400000001,"endTime":121.63017125000002,"instrument":0,"program":0,"isDrum":true},{"pitch":44,"velocity":95,"startTime":121.56495400000001,"endTime":121.66821464583334,"instrument":0,"program":0,"isDrum":true},{"pitch":38,"velocity":55,"startTime":122.08669200000001,"endTime":122.15190925000002,"instrument":0,"program":0,"isDrum":true},{"pitch":38,"velocity":85,"startTime":122.08669200000001,"endTime":122.15190925000002,"instrument":0,"program":0,"isDrum":true},{"pitch":44,"velocity":95,"startTime":122.08669200000001,"endTime":122.18451787500001,"instrument":0,"program":0,"isDrum":true},{"pitch":38,"velocity":55,"startTime":122.60843000000001,"endTime":122.67364725000002,"instrument":0,"program":0,"isDrum":true},{"pitch":38,"velocity":85,"startTime":122.60843000000001,"endTime":122.67364725000002,"instrument":0,"program":0,"isDrum":true},{"pitch":44,"velocity":95,"startTime":122.60843000000001,"endTime":122.70082110416668,"instrument":0,"program":0,"isDrum":true},{"pitch":38,"velocity":34,"startTime":122.86929900000001,"endTime":122.91277716666669,"instrument":0,"program":0,"isDrum":true},{"pitch":46,"velocity":69,"startTime":122.86929900000001,"endTime":123.11929845833335,"instrument":0,"program":0,"isDrum":true},{"pitch":38,"velocity":39,"startTime":122.91277716666669,"endTime":122.95625533333335,"instrument":0,"program":0,"isDrum":true},{"pitch":38,"velocity":39,"startTime":122.95625533333335,"endTime":122.9997335,"instrument":0,"program":0,"isDrum":true},{"pitch":38,"velocity":42,"startTime":122.9997335,"endTime":123.04321166666668,"instrument":0,"program":0,"isDrum":true},{"pitch":38,"velocity":48,"startTime":123.04321166666668,"endTime":123.08668983333334,"instrument":0,"program":0,"isDrum":true},{"pitch":38,"velocity":53,"startTime":123.08668983333334,"endTime":123.13016800000001,"instrument":0,"program":0,"isDrum":true},{"pitch":38,"velocity":55,"startTime":123.13016800000001,"endTime":123.19538525000002,"instrument":0,"program":0,"isDrum":true},{"pitch":38,"velocity":85,"startTime":123.13016800000001,"endTime":123.19538525000002,"instrument":0,"program":0,"isDrum":true},{"pitch":44,"velocity":95,"startTime":123.13016800000001,"endTime":123.23886341666669,"instrument":0,"program":0,"isDrum":true},{"pitch":38,"velocity":55,"startTime":123.65190600000001,"endTime":123.71712325000001,"instrument":0,"program":0,"isDrum":true},{"pitch":38,"velocity":85,"startTime":123.65190600000001,"endTime":123.71712325000001,"instrument":0,"program":0,"isDrum":true},{"pitch":44,"velocity":95,"startTime":123.65190600000001,"endTime":123.75516664583334,"instrument":0,"program":0,"isDrum":true},{"pitch":38,"velocity":55,"startTime":124.17364400000001,"endTime":124.23886125000001,"instrument":0,"program":0,"isDrum":true},{"pitch":38,"velocity":85,"startTime":124.17364400000001,"endTime":124.23886125000001,"instrument":0,"program":0,"isDrum":true},{"pitch":44,"velocity":95,"startTime":124.17364400000001,"endTime":124.27146987500001,"instrument":0,"program":0,"isDrum":true},{"pitch":38,"velocity":55,"startTime":124.69538200000001,"endTime":124.76059925000001,"instrument":0,"program":0,"isDrum":true},{"pitch":38,"velocity":85,"startTime":124.69538200000001,"endTime":124.76059925000001,"instrument":0,"program":0,"isDrum":true},{"pitch":44,"velocity":95,"startTime":124.69538200000001,"endTime":124.78777310416669,"instrument":0,"program":0,"isDrum":true},{"pitch":38,"velocity":34,"startTime":124.95625100000001,"endTime":124.99972916666668,"instrument":0,"program":0,"isDrum":true},{"pitch":46,"velocity":69,"startTime":124.95625100000001,"endTime":125.20625045833334,"instrument":0,"program":0,"isDrum":true},{"pitch":38,"velocity":39,"startTime":124.99972916666668,"endTime":125.04320733333334,"instrument":0,"program":0,"isDrum":true},{"pitch":38,"velocity":39,"startTime":125.04320733333334,"endTime":125.08668550000002,"instrument":0,"program":0,"isDrum":true},{"pitch":38,"velocity":42,"startTime":125.08668550000002,"endTime":125.13016366666669,"instrument":0,"program":0,"isDrum":true},{"pitch":38,"velocity":48,"startTime":125.13016366666669,"endTime":125.17364183333333,"instrument":0,"program":0,"isDrum":true},{"pitch":38,"velocity":53,"startTime":125.17364183333333,"endTime":125.21712000000001,"instrument":0,"program":0,"isDrum":true},{"pitch":38,"velocity":55,"startTime":125.21712000000001,"endTime":125.28233725000001,"instrument":0,"program":0,"isDrum":true},{"pitch":38,"velocity":85,"startTime":125.21712000000001,"endTime":125.28233725000001,"instrument":0,"program":0,"isDrum":true},{"pitch":44,"velocity":95,"startTime":125.21712000000001,"endTime":125.32581541666669,"instrument":0,"program":0,"isDrum":true},{"pitch":38,"velocity":55,"startTime":125.73885800000001,"endTime":125.80407525000001,"instrument":0,"program":0,"isDrum":true},{"pitch":38,"velocity":85,"startTime":125.73885800000001,"endTime":125.80407525000001,"instrument":0,"program":0,"isDrum":true},{"pitch":44,"velocity":95,"startTime":125.73885800000001,"endTime":125.84211864583334,"instrument":0,"program":0,"isDrum":true},{"pitch":38,"velocity":55,"startTime":126.26059600000002,"endTime":126.32581325000001,"instrument":0,"program":0,"isDrum":true},{"pitch":38,"velocity":85,"startTime":126.26059600000002,"endTime":126.32581325000001,"instrument":0,"program":0,"isDrum":true},{"pitch":44,"velocity":95,"startTime":126.26059600000002,"endTime":126.358421875,"instrument":0,"program":0,"isDrum":true},{"pitch":38,"velocity":55,"startTime":126.78233400000002,"endTime":126.84755125000001,"instrument":0,"program":0,"isDrum":true},{"pitch":38,"velocity":85,"startTime":126.78233400000002,"endTime":126.84755125000001,"instrument":0,"program":0,"isDrum":true},{"pitch":44,"velocity":95,"startTime":126.78233400000002,"endTime":126.87472510416669,"instrument":0,"program":0,"isDrum":true},{"pitch":38,"velocity":34,"startTime":127.043203,"endTime":127.0866811666667,"instrument":0,"program":0,"isDrum":true},{"pitch":46,"velocity":69,"startTime":127.043203,"endTime":127.29320245833335,"instrument":0,"program":0,"isDrum":true},{"pitch":38,"velocity":39,"startTime":127.0866811666667,"endTime":127.13015933333335,"instrument":0,"program":0,"isDrum":true},{"pitch":38,"velocity":39,"startTime":127.13015933333335,"endTime":127.17363750000001,"instrument":0,"program":0,"isDrum":true},{"pitch":38,"velocity":42,"startTime":127.17363750000001,"endTime":127.21711566666667,"instrument":0,"program":0,"isDrum":true},{"pitch":38,"velocity":48,"startTime":127.21711566666667,"endTime":127.26059383333333,"instrument":0,"program":0,"isDrum":true},{"pitch":38,"velocity":53,"startTime":127.26059383333333,"endTime":127.30407200000002,"instrument":0,"program":0,"isDrum":true},{"pitch":38,"velocity":55,"startTime":127.30407200000002,"endTime":127.36928925000001,"instrument":0,"program":0,"isDrum":true},{"pitch":38,"velocity":85,"startTime":127.30407200000002,"endTime":127.36928925000001,"instrument":0,"program":0,"isDrum":true},{"pitch":44,"velocity":95,"startTime":127.30407200000002,"endTime":127.401897875,"instrument":0,"program":0,"isDrum":true},{"pitch":38,"velocity":55,"startTime":127.82581000000002,"endTime":127.89102725000001,"instrument":0,"program":0,"isDrum":true},{"pitch":38,"velocity":85,"startTime":127.82581000000002,"endTime":127.89102725000001,"instrument":0,"program":0,"isDrum":true},{"pitch":44,"velocity":95,"startTime":127.82581000000002,"endTime":127.923635875,"instrument":0,"program":0,"isDrum":true},{"pitch":38,"velocity":55,"startTime":128.34754800000002,"endTime":128.41276525,"instrument":0,"program":0,"isDrum":true},{"pitch":38,"velocity":85,"startTime":128.34754800000002,"endTime":128.41276525,"instrument":0,"program":0,"isDrum":true},{"pitch":44,"velocity":95,"startTime":128.34754800000002,"endTime":128.43993910416668,"instrument":0,"program":0,"isDrum":true},{"pitch":38,"velocity":55,"startTime":128.86928600000002,"endTime":128.93450325,"instrument":0,"program":0,"isDrum":true},{"pitch":38,"velocity":85,"startTime":128.86928600000002,"endTime":128.93450325,"instrument":0,"program":0,"isDrum":true},{"pitch":44,"velocity":95,"startTime":128.86928600000002,"endTime":128.97254664583335,"instrument":0,"program":0,"isDrum":true},{"pitch":38,"velocity":34,"startTime":129.130155,"endTime":129.1736331666667,"instrument":0,"program":0,"isDrum":true},{"pitch":46,"velocity":69,"startTime":129.130155,"endTime":129.38015445833335,"instrument":0,"program":0,"isDrum":true},{"pitch":38,"velocity":39,"startTime":129.1736331666667,"endTime":129.21711133333335,"instrument":0,"program":0,"isDrum":true},{"pitch":38,"velocity":39,"startTime":129.21711133333335,"endTime":129.2605895,"instrument":0,"program":0,"isDrum":true},{"pitch":38,"velocity":42,"startTime":129.2605895,"endTime":129.3040676666667,"instrument":0,"program":0,"isDrum":true},{"pitch":38,"velocity":48,"startTime":129.3040676666667,"endTime":129.34754583333333,"instrument":0,"program":0,"isDrum":true},{"pitch":38,"velocity":53,"startTime":129.34754583333333,"endTime":129.39102400000002,"instrument":0,"program":0,"isDrum":true},{"pitch":38,"velocity":55,"startTime":129.39102400000002,"endTime":129.45624125,"instrument":0,"program":0,"isDrum":true},{"pitch":38,"velocity":85,"startTime":129.39102400000002,"endTime":129.45624125,"instrument":0,"program":0,"isDrum":true},{"pitch":51,"velocity":87,"startTime":129.39102400000002,"endTime":129.48341510416668,"instrument":0,"program":0,"isDrum":true},{"pitch":70,"velocity":78,"startTime":131.477976,"endTime":131.58667141666666,"instrument":0,"program":0,"isDrum":true},{"pitch":51,"velocity":85,"startTime":131.73884500000003,"endTime":131.9508010625,"instrument":0,"program":0,"isDrum":true},{"pitch":38,"velocity":55,"startTime":131.999714,"endTime":132.10297464583334,"instrument":0,"program":0,"isDrum":true},{"pitch":38,"velocity":85,"startTime":131.999714,"endTime":132.10297464583334,"instrument":0,"program":0,"isDrum":true},{"pitch":44,"velocity":95,"startTime":131.999714,"endTime":132.24971345833336,"instrument":0,"program":0,"isDrum":true},{"pitch":38,"velocity":55,"startTime":132.521452,"endTime":132.61384310416668,"instrument":0,"program":0,"isDrum":true},{"pitch":38,"velocity":85,"startTime":132.521452,"endTime":132.61384310416668,"instrument":0,"program":0,"isDrum":true},{"pitch":51,"velocity":87,"startTime":132.521452,"endTime":132.70623420833334,"instrument":0,"program":0,"isDrum":true},{"pitch":38,"velocity":55,"startTime":133.564928,"endTime":133.65188433333336,"instrument":0,"program":0,"isDrum":true},{"pitch":38,"velocity":85,"startTime":133.564928,"endTime":133.65188433333336,"instrument":0,"program":0,"isDrum":true},{"pitch":44,"velocity":95,"startTime":133.564928,"endTime":133.63014525000003,"instrument":0,"program":0,"isDrum":true},{"pitch":51,"velocity":87,"startTime":133.564928,"endTime":133.63558002083334,"instrument":0,"program":0,"isDrum":true},{"pitch":38,"velocity":55,"startTime":133.82579700000002,"endTime":133.89644902083336,"instrument":0,"program":0,"isDrum":true},{"pitch":38,"velocity":85,"startTime":133.82579700000002,"endTime":133.89644902083336,"instrument":0,"program":0,"isDrum":true},{"pitch":44,"velocity":95,"startTime":133.82579700000002,"endTime":133.90188379166668,"instrument":0,"program":0,"isDrum":true},{"pitch":51,"velocity":87,"startTime":133.82579700000002,"endTime":133.90188379166668,"instrument":0,"program":0,"isDrum":true},{"pitch":38,"velocity":55,"startTime":134.086666,"endTime":134.15188325000003,"instrument":0,"program":0,"isDrum":true},{"pitch":38,"velocity":85,"startTime":134.086666,"endTime":134.15188325000003,"instrument":0,"program":0,"isDrum":true},{"pitch":44,"velocity":95,"startTime":134.086666,"endTime":134.15188325000003,"instrument":0,"program":0,"isDrum":true},{"pitch":51,"velocity":87,"startTime":134.086666,"endTime":134.16275279166666,"instrument":0,"program":0,"isDrum":true},{"pitch":38,"velocity":55,"startTime":134.34753500000002,"endTime":134.41275225,"instrument":0,"program":0,"isDrum":true},{"pitch":38,"velocity":85,"startTime":134.34753500000002,"endTime":134.41275225,"instrument":0,"program":0,"isDrum":true},{"pitch":44,"velocity":95,"startTime":134.34753500000002,"endTime":134.42905656250002,"instrument":0,"program":0,"isDrum":true},{"pitch":51,"velocity":87,"startTime":134.34753500000002,"endTime":134.42905656250002,"instrument":0,"program":0,"isDrum":true},{"pitch":38,"velocity":55,"startTime":134.86927300000002,"endTime":134.92905547916666,"instrument":0,"program":0,"isDrum":true},{"pitch":38,"velocity":85,"startTime":134.86927300000002,"endTime":134.92905547916666,"instrument":0,"program":0,"isDrum":true},{"pitch":44,"velocity":95,"startTime":134.86927300000002,"endTime":134.94535979166668,"instrument":0,"program":0,"isDrum":true},{"pitch":51,"velocity":87,"startTime":134.86927300000002,"endTime":134.93992502083336,"instrument":0,"program":0,"isDrum":true},{"pitch":38,"velocity":55,"startTime":135.39101100000002,"endTime":135.43992393750003,"instrument":0,"program":0,"isDrum":true},{"pitch":38,"velocity":85,"startTime":135.39101100000002,"endTime":135.43992393750003,"instrument":0,"program":0,"isDrum":true},{"pitch":44,"velocity":95,"startTime":135.39101100000002,"endTime":135.44535870833334,"instrument":0,"program":0,"isDrum":true},{"pitch":51,"velocity":87,"startTime":135.39101100000002,"endTime":135.45622825,"instrument":0,"program":0,"isDrum":true},{"pitch":38,"velocity":85,"startTime":135.65188,"endTime":135.75514064583336,"instrument":0,"program":0,"isDrum":true},{"pitch":51,"velocity":85,"startTime":135.65188,"endTime":135.67905385416668,"instrument":0,"program":0,"isDrum":true},{"pitch":51,"velocity":87,"startTime":135.65188,"endTime":135.67905385416668,"instrument":0,"program":0,"isDrum":true},{"pitch":38,"velocity":55,"startTime":137.738832,"endTime":137.82578833333335,"instrument":0,"program":0,"isDrum":true},{"pitch":38,"velocity":85,"startTime":137.738832,"endTime":137.82578833333335,"instrument":0,"program":0,"isDrum":true},{"pitch":44,"velocity":95,"startTime":137.738832,"endTime":137.80404925000002,"instrument":0,"program":0,"isDrum":true},{"pitch":51,"velocity":87,"startTime":137.738832,"endTime":137.80948402083337,"instrument":0,"program":0,"isDrum":true},{"pitch":38,"velocity":55,"startTime":137.99970100000002,"endTime":138.07035302083335,"instrument":0,"program":0,"isDrum":true},{"pitch":38,"velocity":85,"startTime":137.99970100000002,"endTime":138.07035302083335,"instrument":0,"program":0,"isDrum":true},{"pitch":44,"velocity":95,"startTime":137.99970100000002,"endTime":138.07578779166667,"instrument":0,"program":0,"isDrum":true},{"pitch":51,"velocity":87,"startTime":137.99970100000002,"endTime":138.07578779166667,"instrument":0,"program":0,"isDrum":true},{"pitch":38,"velocity":55,"startTime":138.26057,"endTime":138.32578725000002,"instrument":0,"program":0,"isDrum":true},{"pitch":38,"velocity":85,"startTime":138.26057,"endTime":138.32578725000002,"instrument":0,"program":0,"isDrum":true},{"pitch":44,"velocity":95,"startTime":138.26057,"endTime":138.32578725000002,"instrument":0,"program":0,"isDrum":true},{"pitch":51,"velocity":87,"startTime":138.26057,"endTime":138.33665679166668,"instrument":0,"program":0,"isDrum":true},{"pitch":38,"velocity":55,"startTime":138.52143900000002,"endTime":138.58665625,"instrument":0,"program":0,"isDrum":true},{"pitch":38,"velocity":85,"startTime":138.52143900000002,"endTime":138.58665625,"instrument":0,"program":0,"isDrum":true},{"pitch":44,"velocity":95,"startTime":138.52143900000002,"endTime":138.60296056250002,"instrument":0,"program":0,"isDrum":true},{"pitch":51,"velocity":87,"startTime":138.52143900000002,"endTime":138.60296056250002,"instrument":0,"program":0,"isDrum":true},{"pitch":38,"velocity":55,"startTime":139.04317700000001,"endTime":139.10295947916666,"instrument":0,"program":0,"isDrum":true},{"pitch":38,"velocity":85,"startTime":139.04317700000001,"endTime":139.10295947916666,"instrument":0,"program":0,"isDrum":true},{"pitch":44,"velocity":95,"startTime":139.04317700000001,"endTime":139.11926379166667,"instrument":0,"program":0,"isDrum":true},{"pitch":51,"velocity":87,"startTime":139.04317700000001,"endTime":139.11382902083335,"instrument":0,"program":0,"isDrum":true},{"pitch":38,"velocity":55,"startTime":139.564915,"endTime":139.61382793750002,"instrument":0,"program":0,"isDrum":true},{"pitch":38,"velocity":85,"startTime":139.564915,"endTime":139.61382793750002,"instrument":0,"program":0,"isDrum":true},{"pitch":44,"velocity":95,"startTime":139.564915,"endTime":139.61926270833337,"instrument":0,"program":0,"isDrum":true},{"pitch":51,"velocity":87,"startTime":139.564915,"endTime":139.63013225,"instrument":0,"program":0,"isDrum":true},{"pitch":38,"velocity":85,"startTime":139.825784,"endTime":139.92904464583336,"instrument":0,"program":0,"isDrum":true},{"pitch":51,"velocity":85,"startTime":139.825784,"endTime":139.85295785416668,"instrument":0,"program":0,"isDrum":true},{"pitch":51,"velocity":87,"startTime":139.825784,"endTime":139.85295785416668,"instrument":0,"program":0,"isDrum":true},{"pitch":38,"velocity":55,"startTime":141.91273600000002,"endTime":141.99969233333334,"instrument":0,"program":0,"isDrum":true},{"pitch":38,"velocity":85,"startTime":141.91273600000002,"endTime":141.99969233333334,"instrument":0,"program":0,"isDrum":true},{"pitch":44,"velocity":95,"startTime":141.91273600000002,"endTime":141.97795325,"instrument":0,"program":0,"isDrum":true},{"pitch":51,"velocity":87,"startTime":141.91273600000002,"endTime":141.98338802083336,"instrument":0,"program":0,"isDrum":true},{"pitch":38,"velocity":55,"startTime":142.173605,"endTime":142.24425702083334,"instrument":0,"program":0,"isDrum":true},{"pitch":38,"velocity":85,"startTime":142.173605,"endTime":142.24425702083334,"instrument":0,"program":0,"isDrum":true},{"pitch":44,"velocity":95,"startTime":142.173605,"endTime":142.24969179166666,"instrument":0,"program":0,"isDrum":true},{"pitch":51,"velocity":87,"startTime":142.173605,"endTime":142.24969179166666,"instrument":0,"program":0,"isDrum":true},{"pitch":38,"velocity":55,"startTime":142.43447400000002,"endTime":142.49969125,"instrument":0,"program":0,"isDrum":true},{"pitch":38,"velocity":85,"startTime":142.43447400000002,"endTime":142.49969125,"instrument":0,"program":0,"isDrum":true},{"pitch":44,"velocity":95,"startTime":142.43447400000002,"endTime":142.49969125,"instrument":0,"program":0,"isDrum":true},{"pitch":51,"velocity":87,"startTime":142.43447400000002,"endTime":142.51056079166668,"instrument":0,"program":0,"isDrum":true},{"pitch":38,"velocity":55,"startTime":142.695343,"endTime":142.76056025000003,"instrument":0,"program":0,"isDrum":true},{"pitch":38,"velocity":85,"startTime":142.695343,"endTime":142.76056025000003,"instrument":0,"program":0,"isDrum":true},{"pitch":44,"velocity":95,"startTime":142.695343,"endTime":142.7768645625,"instrument":0,"program":0,"isDrum":true},{"pitch":51,"velocity":87,"startTime":142.695343,"endTime":142.7768645625,"instrument":0,"program":0,"isDrum":true},{"pitch":38,"velocity":55,"startTime":143.217081,"endTime":143.27686347916668,"instrument":0,"program":0,"isDrum":true},{"pitch":38,"velocity":85,"startTime":143.217081,"endTime":143.27686347916668,"instrument":0,"program":0,"isDrum":true},{"pitch":44,"velocity":95,"startTime":143.217081,"endTime":143.29316779166666,"instrument":0,"program":0,"isDrum":true},{"pitch":51,"velocity":87,"startTime":143.217081,"endTime":143.28773302083334,"instrument":0,"program":0,"isDrum":true},{"pitch":38,"velocity":55,"startTime":143.738819,"endTime":143.7877319375,"instrument":0,"program":0,"isDrum":true},{"pitch":38,"velocity":85,"startTime":143.738819,"endTime":143.7877319375,"instrument":0,"program":0,"isDrum":true},{"pitch":44,"velocity":95,"startTime":143.738819,"endTime":143.79316670833336,"instrument":0,"program":0,"isDrum":true},{"pitch":51,"velocity":87,"startTime":143.738819,"endTime":143.80403625000002,"instrument":0,"program":0,"isDrum":true},{"pitch":38,"velocity":85,"startTime":143.99968800000002,"endTime":144.10294864583335,"instrument":0,"program":0,"isDrum":true},{"pitch":51,"velocity":85,"startTime":143.99968800000002,"endTime":144.02686185416667,"instrument":0,"program":0,"isDrum":true},{"pitch":51,"velocity":87,"startTime":143.99968800000002,"endTime":144.02686185416667,"instrument":0,"program":0,"isDrum":true},{"pitch":38,"velocity":55,"startTime":146.08664000000002,"endTime":146.17359633333336,"instrument":0,"program":0,"isDrum":true},{"pitch":38,"velocity":85,"startTime":146.08664000000002,"endTime":146.17359633333336,"instrument":0,"program":0,"isDrum":true},{"pitch":44,"velocity":95,"startTime":146.08664000000002,"endTime":146.15185725,"instrument":0,"program":0,"isDrum":true},{"pitch":51,"velocity":87,"startTime":146.08664000000002,"endTime":146.15729202083335,"instrument":0,"program":0,"isDrum":true},{"pitch":38,"velocity":55,"startTime":146.347509,"endTime":146.41816102083337,"instrument":0,"program":0,"isDrum":true},{"pitch":38,"velocity":85,"startTime":146.347509,"endTime":146.41816102083337,"instrument":0,"program":0,"isDrum":true},{"pitch":44,"velocity":95,"startTime":146.347509,"endTime":146.42359579166666,"instrument":0,"program":0,"isDrum":true},{"pitch":51,"velocity":87,"startTime":146.347509,"endTime":146.42359579166666,"instrument":0,"program":0,"isDrum":true},{"pitch":38,"velocity":55,"startTime":146.60837800000002,"endTime":146.67359525,"instrument":0,"program":0,"isDrum":true},{"pitch":38,"velocity":85,"startTime":146.60837800000002,"endTime":146.67359525,"instrument":0,"program":0,"isDrum":true},{"pitch":44,"velocity":95,"startTime":146.60837800000002,"endTime":146.67359525,"instrument":0,"program":0,"isDrum":true},{"pitch":51,"velocity":87,"startTime":146.60837800000002,"endTime":146.68446479166667,"instrument":0,"program":0,"isDrum":true},{"pitch":38,"velocity":55,"startTime":146.869247,"endTime":146.93446425000002,"instrument":0,"program":0,"isDrum":true},{"pitch":38,"velocity":85,"startTime":146.869247,"endTime":146.93446425000002,"instrument":0,"program":0,"isDrum":true},{"pitch":44,"velocity":95,"startTime":146.869247,"endTime":146.9507685625,"instrument":0,"program":0,"isDrum":true},{"pitch":51,"velocity":87,"startTime":146.869247,"endTime":146.9507685625,"instrument":0,"program":0,"isDrum":true},{"pitch":38,"velocity":55,"startTime":147.390985,"endTime":147.45076747916667,"instrument":0,"program":0,"isDrum":true},{"pitch":38,"velocity":85,"startTime":147.390985,"endTime":147.45076747916667,"instrument":0,"program":0,"isDrum":true},{"pitch":44,"velocity":95,"startTime":147.390985,"endTime":147.46707179166668,"instrument":0,"program":0,"isDrum":true},{"pitch":51,"velocity":87,"startTime":147.390985,"endTime":147.46163702083336,"instrument":0,"program":0,"isDrum":true},{"pitch":38,"velocity":55,"startTime":147.912723,"endTime":147.9616359375,"instrument":0,"program":0,"isDrum":true},{"pitch":38,"velocity":85,"startTime":147.912723,"endTime":147.9616359375,"instrument":0,"program":0,"isDrum":true},{"pitch":44,"velocity":95,"startTime":147.912723,"endTime":147.96707070833335,"instrument":0,"program":0,"isDrum":true},{"pitch":51,"velocity":87,"startTime":147.912723,"endTime":147.97794025000002,"instrument":0,"program":0,"isDrum":true},{"pitch":38,"velocity":85,"startTime":148.173592,"endTime":148.27685264583334,"instrument":0,"program":0,"isDrum":true},{"pitch":51,"velocity":85,"startTime":148.173592,"endTime":148.20076585416666,"instrument":0,"program":0,"isDrum":true},{"pitch":51,"velocity":87,"startTime":148.173592,"endTime":148.20076585416666,"instrument":0,"program":0,"isDrum":true},{"pitch":38,"velocity":85,"startTime":150.260544,"endTime":150.35836987500002,"instrument":0,"program":0,"isDrum":true},{"pitch":51,"velocity":85,"startTime":150.260544,"endTime":150.28771785416666,"instrument":0,"program":0,"isDrum":true},{"pitch":51,"velocity":87,"startTime":150.260544,"endTime":150.28771785416666,"instrument":0,"program":0,"isDrum":true},{"pitch":38,"velocity":85,"startTime":152.347496,"endTime":152.41814802083337,"instrument":0,"program":0,"isDrum":true},{"pitch":51,"velocity":87,"startTime":152.347496,"endTime":152.3964089375,"instrument":0,"program":0,"isDrum":true},{"pitch":53,"velocity":80,"startTime":152.347496,"endTime":152.67901702083336,"instrument":0,"program":0,"isDrum":true},{"pitch":38,"velocity":85,"startTime":153.390972,"endTime":153.46705879166666,"instrument":0,"program":0,"isDrum":true},{"pitch":51,"velocity":87,"startTime":153.390972,"endTime":153.4398849375,"instrument":0,"program":0,"isDrum":true},{"pitch":53,"velocity":93,"startTime":153.390972,"endTime":153.66271054166668,"instrument":0,"program":0,"isDrum":true},{"pitch":38,"velocity":85,"startTime":154.434448,"endTime":154.49423047916667,"instrument":0,"program":0,"isDrum":true},{"pitch":51,"velocity":87,"startTime":154.434448,"endTime":154.47792616666666,"instrument":0,"program":0,"isDrum":true},{"pitch":53,"velocity":128,"startTime":154.434448,"endTime":154.76596902083335,"instrument":0,"program":0,"isDrum":true},{"pitch":38,"velocity":85,"startTime":155.477924,"endTime":155.54314125000002,"instrument":0,"program":0,"isDrum":true},{"pitch":51,"velocity":87,"startTime":155.477924,"endTime":155.51596739583337,"instrument":0,"program":0,"isDrum":true},{"pitch":53,"velocity":128,"startTime":155.477924,"endTime":155.82031456250002,"instrument":0,"program":0,"isDrum":true},{"pitch":38,"velocity":85,"startTime":156.52140000000003,"endTime":156.59748679166668,"instrument":0,"program":0,"isDrum":true},{"pitch":51,"velocity":87,"startTime":156.52140000000003,"endTime":156.55400862500002,"instrument":0,"program":0,"isDrum":true},{"pitch":53,"velocity":93,"startTime":156.52140000000003,"endTime":156.7333560625,"instrument":0,"program":0,"isDrum":true},{"pitch":38,"velocity":85,"startTime":157.56487600000003,"endTime":157.63009325000002,"instrument":0,"program":0,"isDrum":true},{"pitch":51,"velocity":87,"startTime":157.56487600000003,"endTime":157.59204985416667,"instrument":0,"program":0,"isDrum":true},{"pitch":53,"velocity":93,"startTime":157.56487600000003,"endTime":157.8094406875,"instrument":0,"program":0,"isDrum":true},{"pitch":38,"velocity":85,"startTime":158.60835200000002,"endTime":158.66813447916667,"instrument":0,"program":0,"isDrum":true},{"pitch":51,"velocity":87,"startTime":158.60835200000002,"endTime":158.63552585416667,"instrument":0,"program":0,"isDrum":true},{"pitch":53,"velocity":93,"startTime":158.60835200000002,"endTime":158.77682989583334,"instrument":0,"program":0,"isDrum":true},{"pitch":38,"velocity":85,"startTime":159.65182800000002,"endTime":159.69530616666668,"instrument":0,"program":0,"isDrum":true},{"pitch":51,"velocity":87,"startTime":159.65182800000002,"endTime":159.67356708333335,"instrument":0,"program":0,"isDrum":true},{"pitch":53,"velocity":93,"startTime":159.65182800000002,"endTime":160.075740125,"instrument":0,"program":0,"isDrum":true},{"pitch":38,"velocity":85,"startTime":160.69530400000002,"endTime":160.75508647916666,"instrument":0,"program":0,"isDrum":true},{"pitch":51,"velocity":87,"startTime":160.69530400000002,"endTime":160.72791262500002,"instrument":0,"program":0,"isDrum":true},{"pitch":53,"velocity":128,"startTime":160.69530400000002,"endTime":161.09204227083336,"instrument":0,"program":0,"isDrum":true},{"pitch":38,"velocity":85,"startTime":161.73878000000002,"endTime":161.78769293750003,"instrument":0,"program":0,"isDrum":true},{"pitch":51,"velocity":87,"startTime":161.73878000000002,"endTime":161.77682339583336,"instrument":0,"program":0,"isDrum":true},{"pitch":53,"velocity":128,"startTime":161.73878000000002,"endTime":162.05943147916668,"instrument":0,"program":0,"isDrum":true},{"pitch":38,"velocity":85,"startTime":162.78225600000002,"endTime":162.84203847916666,"instrument":0,"program":0,"isDrum":true},{"pitch":51,"velocity":87,"startTime":162.78225600000002,"endTime":162.80942985416667,"instrument":0,"program":0,"isDrum":true},{"pitch":53,"velocity":128,"startTime":162.78225600000002,"endTime":163.06486408333336,"instrument":0,"program":0,"isDrum":true},{"pitch":38,"velocity":85,"startTime":163.82573200000002,"endTime":163.88551447916666,"instrument":0,"program":0,"isDrum":true},{"pitch":51,"velocity":87,"startTime":163.82573200000002,"endTime":163.86377539583336,"instrument":0,"program":0,"isDrum":true},{"pitch":53,"velocity":93,"startTime":163.82573200000002,"endTime":164.40181770833337,"instrument":0,"program":0,"isDrum":true},{"pitch":38,"velocity":85,"startTime":164.86920800000001,"endTime":164.92899047916666,"instrument":0,"program":0,"isDrum":true},{"pitch":51,"velocity":87,"startTime":164.86920800000001,"endTime":164.901816625,"instrument":0,"program":0,"isDrum":true},{"pitch":53,"velocity":128,"startTime":164.86920800000001,"endTime":164.96159910416668,"instrument":0,"program":0,"isDrum":true},{"pitch":51,"velocity":85,"startTime":165.13007700000003,"endTime":165.28225058333337,"instrument":0,"program":0,"isDrum":true},{"pitch":38,"velocity":55,"startTime":165.390946,"endTime":165.46159802083335,"instrument":0,"program":0,"isDrum":true},{"pitch":38,"velocity":85,"startTime":165.390946,"endTime":165.46159802083335,"instrument":0,"program":0,"isDrum":true},{"pitch":44,"velocity":95,"startTime":165.390946,"endTime":165.52138050000002,"instrument":0,"program":0,"isDrum":true},{"pitch":38,"velocity":55,"startTime":165.912684,"endTime":165.96159693750002,"instrument":0,"program":0,"isDrum":true},{"pitch":38,"velocity":85,"startTime":165.912684,"endTime":165.96159693750002,"instrument":0,"program":0,"isDrum":true},{"pitch":44,"velocity":95,"startTime":165.912684,"endTime":166.03224895833335,"instrument":0,"program":0,"isDrum":true},{"pitch":51,"velocity":87,"startTime":165.912684,"endTime":166.05398804166668,"instrument":0,"program":0,"isDrum":true},{"pitch":38,"velocity":34,"startTime":166.69529100000003,"endTime":166.73876916666669,"instrument":0,"program":0,"isDrum":true},{"pitch":46,"velocity":69,"startTime":166.69529100000003,"endTime":166.94529045833335,"instrument":0,"program":0,"isDrum":true},{"pitch":38,"velocity":39,"startTime":166.73876916666669,"endTime":166.78224733333334,"instrument":0,"program":0,"isDrum":true},{"pitch":38,"velocity":39,"startTime":166.78224733333334,"endTime":166.8257255,"instrument":0,"program":0,"isDrum":true},{"pitch":38,"velocity":42,"startTime":166.8257255,"endTime":166.86920366666666,"instrument":0,"program":0,"isDrum":true},{"pitch":38,"velocity":48,"startTime":166.86920366666666,"endTime":166.91268183333335,"instrument":0,"program":0,"isDrum":true},{"pitch":38,"velocity":53,"startTime":166.91268183333335,"endTime":166.95616,"instrument":0,"program":0,"isDrum":true},{"pitch":38,"velocity":55,"startTime":166.95616,"endTime":167.01050770833336,"instrument":0,"program":0,"isDrum":true},{"pitch":38,"velocity":85,"startTime":166.95616,"endTime":167.01050770833336,"instrument":0,"program":0,"isDrum":true},{"pitch":51,"velocity":87,"startTime":166.95616,"endTime":167.05942064583337,"instrument":0,"program":0,"isDrum":true},{"pitch":38,"velocity":55,"startTime":167.477898,"endTime":167.54311525000003,"instrument":0,"program":0,"isDrum":true},{"pitch":38,"velocity":85,"startTime":167.477898,"endTime":167.54311525000003,"instrument":0,"program":0,"isDrum":true},{"pitch":44,"velocity":95,"startTime":167.477898,"endTime":167.58659341666666,"instrument":0,"program":0,"isDrum":true},{"pitch":38,"velocity":55,"startTime":167.999636,"endTime":168.06485325000003,"instrument":0,"program":0,"isDrum":true},{"pitch":38,"velocity":85,"startTime":167.999636,"endTime":168.06485325000003,"instrument":0,"program":0,"isDrum":true},{"pitch":44,"velocity":95,"startTime":167.999636,"endTime":168.10289664583337,"instrument":0,"program":0,"isDrum":true},{"pitch":38,"velocity":55,"startTime":168.521374,"endTime":168.58659125000003,"instrument":0,"program":0,"isDrum":true},{"pitch":38,"velocity":85,"startTime":168.521374,"endTime":168.58659125000003,"instrument":0,"program":0,"isDrum":true},{"pitch":44,"velocity":95,"startTime":168.521374,"endTime":168.62463464583337,"instrument":0,"program":0,"isDrum":true},{"pitch":38,"velocity":34,"startTime":168.78224300000002,"endTime":168.82572116666668,"instrument":0,"program":0,"isDrum":true},{"pitch":46,"velocity":69,"startTime":168.78224300000002,"endTime":169.03224245833337,"instrument":0,"program":0,"isDrum":true},{"pitch":38,"velocity":39,"startTime":168.82572116666668,"endTime":168.86919933333337,"instrument":0,"program":0,"isDrum":true},{"pitch":38,"velocity":39,"startTime":168.86919933333337,"endTime":168.9126775,"instrument":0,"program":0,"isDrum":true},{"pitch":38,"velocity":42,"startTime":168.9126775,"endTime":168.95615566666666,"instrument":0,"program":0,"isDrum":true},{"pitch":38,"velocity":48,"startTime":168.95615566666666,"endTime":168.99963383333335,"instrument":0,"program":0,"isDrum":true},{"pitch":38,"velocity":53,"startTime":168.99963383333335,"endTime":169.043112,"instrument":0,"program":0,"isDrum":true},{"pitch":38,"velocity":55,"startTime":169.043112,"endTime":169.10832925000003,"instrument":0,"program":0,"isDrum":true},{"pitch":38,"velocity":85,"startTime":169.043112,"endTime":169.10832925000003,"instrument":0,"program":0,"isDrum":true},{"pitch":44,"velocity":95,"startTime":169.043112,"endTime":169.15180741666668,"instrument":0,"program":0,"isDrum":true},{"pitch":38,"velocity":55,"startTime":169.56485,"endTime":169.63006725000002,"instrument":0,"program":0,"isDrum":true},{"pitch":38,"velocity":85,"startTime":169.56485,"endTime":169.63006725000002,"instrument":0,"program":0,"isDrum":true},{"pitch":44,"velocity":95,"startTime":169.56485,"endTime":169.66811064583337,"instrument":0,"program":0,"isDrum":true},{"pitch":38,"velocity":55,"startTime":170.086588,"endTime":170.15180525000002,"instrument":0,"program":0,"isDrum":true},{"pitch":38,"velocity":85,"startTime":170.086588,"endTime":170.15180525000002,"instrument":0,"program":0,"isDrum":true},{"pitch":44,"velocity":95,"startTime":170.086588,"endTime":170.19528341666668,"instrument":0,"program":0,"isDrum":true},{"pitch":38,"velocity":55,"startTime":170.608326,"endTime":170.67354325000002,"instrument":0,"program":0,"isDrum":true},{"pitch":38,"velocity":85,"startTime":170.608326,"endTime":170.67354325000002,"instrument":0,"program":0,"isDrum":true},{"pitch":44,"velocity":95,"startTime":170.608326,"endTime":170.71702141666668,"instrument":0,"program":0,"isDrum":true},{"pitch":38,"velocity":34,"startTime":170.86919500000002,"endTime":170.91267316666668,"instrument":0,"program":0,"isDrum":true},{"pitch":46,"velocity":69,"startTime":170.86919500000002,"endTime":171.11919445833337,"instrument":0,"program":0,"isDrum":true},{"pitch":38,"velocity":39,"startTime":170.91267316666668,"endTime":170.95615133333337,"instrument":0,"program":0,"isDrum":true},{"pitch":38,"velocity":39,"startTime":170.95615133333337,"endTime":170.99962950000003,"instrument":0,"program":0,"isDrum":true},{"pitch":38,"velocity":42,"startTime":170.99962950000003,"endTime":171.04310766666669,"instrument":0,"program":0,"isDrum":true},{"pitch":38,"velocity":48,"startTime":171.04310766666669,"endTime":171.08658583333334,"instrument":0,"program":0,"isDrum":true},{"pitch":38,"velocity":53,"startTime":171.08658583333334,"endTime":171.130064,"instrument":0,"program":0,"isDrum":true},{"pitch":38,"velocity":55,"startTime":171.130064,"endTime":171.19528125000002,"instrument":0,"program":0,"isDrum":true},{"pitch":38,"velocity":85,"startTime":171.130064,"endTime":171.19528125000002,"instrument":0,"program":0,"isDrum":true},{"pitch":44,"velocity":95,"startTime":171.130064,"endTime":171.23875941666668,"instrument":0,"program":0,"isDrum":true},{"pitch":38,"velocity":55,"startTime":171.651802,"endTime":171.71701925000002,"instrument":0,"program":0,"isDrum":true},{"pitch":38,"velocity":85,"startTime":171.651802,"endTime":171.71701925000002,"instrument":0,"program":0,"isDrum":true},{"pitch":44,"velocity":95,"startTime":171.651802,"endTime":171.76049741666668,"instrument":0,"program":0,"isDrum":true},{"pitch":38,"velocity":55,"startTime":172.17354,"endTime":172.23875725000002,"instrument":0,"program":0,"isDrum":true},{"pitch":38,"velocity":85,"startTime":172.17354,"endTime":172.23875725000002,"instrument":0,"program":0,"isDrum":true},{"pitch":44,"velocity":95,"startTime":172.17354,"endTime":172.27136587500001,"instrument":0,"program":0,"isDrum":true},{"pitch":38,"velocity":55,"startTime":172.695278,"endTime":172.76049525000002,"instrument":0,"program":0,"isDrum":true},{"pitch":38,"velocity":85,"startTime":172.695278,"endTime":172.76049525000002,"instrument":0,"program":0,"isDrum":true},{"pitch":44,"velocity":95,"startTime":172.695278,"endTime":172.79853864583336,"instrument":0,"program":0,"isDrum":true},{"pitch":38,"velocity":34,"startTime":172.95614700000002,"endTime":172.99962516666668,"instrument":0,"program":0,"isDrum":true},{"pitch":46,"velocity":69,"startTime":172.95614700000002,"endTime":173.20614645833336,"instrument":0,"program":0,"isDrum":true},{"pitch":38,"velocity":39,"startTime":172.99962516666668,"endTime":173.04310333333336,"instrument":0,"program":0,"isDrum":true},{"pitch":38,"velocity":39,"startTime":173.04310333333336,"endTime":173.08658150000002,"instrument":0,"program":0,"isDrum":true},{"pitch":38,"velocity":42,"startTime":173.08658150000002,"endTime":173.13005966666668,"instrument":0,"program":0,"isDrum":true},{"pitch":38,"velocity":48,"startTime":173.13005966666668,"endTime":173.17353783333337,"instrument":0,"program":0,"isDrum":true},{"pitch":38,"velocity":53,"startTime":173.17353783333337,"endTime":173.217016,"instrument":0,"program":0,"isDrum":true},{"pitch":38,"velocity":55,"startTime":173.217016,"endTime":173.28223325000002,"instrument":0,"program":0,"isDrum":true},{"pitch":38,"velocity":85,"startTime":173.217016,"endTime":173.28223325000002,"instrument":0,"program":0,"isDrum":true},{"pitch":44,"velocity":95,"startTime":173.217016,"endTime":173.34201572916666,"instrument":0,"program":0,"isDrum":true},{"pitch":38,"velocity":55,"startTime":173.73875400000003,"endTime":173.80397125000002,"instrument":0,"program":0,"isDrum":true},{"pitch":38,"velocity":85,"startTime":173.73875400000003,"endTime":173.80397125000002,"instrument":0,"program":0,"isDrum":true},{"pitch":44,"velocity":95,"startTime":173.73875400000003,"endTime":173.85288418750002,"instrument":0,"program":0,"isDrum":true},{"pitch":38,"velocity":55,"startTime":174.26049200000003,"endTime":174.32570925000002,"instrument":0,"program":0,"isDrum":true},{"pitch":38,"velocity":85,"startTime":174.26049200000003,"endTime":174.32570925000002,"instrument":0,"program":0,"isDrum":true},{"pitch":44,"velocity":95,"startTime":174.26049200000003,"endTime":174.36375264583336,"instrument":0,"program":0,"isDrum":true},{"pitch":38,"velocity":55,"startTime":174.78223000000003,"endTime":174.84744725000002,"instrument":0,"program":0,"isDrum":true},{"pitch":38,"velocity":85,"startTime":174.78223000000003,"endTime":174.84744725000002,"instrument":0,"program":0,"isDrum":true},{"pitch":44,"velocity":95,"startTime":174.78223000000003,"endTime":174.880055875,"instrument":0,"program":0,"isDrum":true},{"pitch":38,"velocity":34,"startTime":175.043099,"endTime":175.08657716666667,"instrument":0,"program":0,"isDrum":true},{"pitch":46,"velocity":69,"startTime":175.043099,"endTime":175.29309845833336,"instrument":0,"program":0,"isDrum":true},{"pitch":38,"velocity":39,"startTime":175.08657716666667,"endTime":175.13005533333336,"instrument":0,"program":0,"isDrum":true},{"pitch":38,"velocity":39,"startTime":175.13005533333336,"endTime":175.17353350000002,"instrument":0,"program":0,"isDrum":true},{"pitch":38,"velocity":42,"startTime":175.17353350000002,"endTime":175.21701166666668,"instrument":0,"program":0,"isDrum":true},{"pitch":38,"velocity":48,"startTime":175.21701166666668,"endTime":175.26048983333337,"instrument":0,"program":0,"isDrum":true},{"pitch":38,"velocity":53,"startTime":175.26048983333337,"endTime":175.30396800000003,"instrument":0,"program":0,"isDrum":true},{"pitch":38,"velocity":55,"startTime":175.30396800000003,"endTime":175.36918525000002,"instrument":0,"program":0,"isDrum":true},{"pitch":38,"velocity":85,"startTime":175.30396800000003,"endTime":175.36918525000002,"instrument":0,"program":0,"isDrum":true},{"pitch":44,"velocity":95,"startTime":175.30396800000003,"endTime":175.41266341666667,"instrument":0,"program":0,"isDrum":true},{"pitch":38,"velocity":55,"startTime":175.82570600000003,"endTime":175.89092325000001,"instrument":0,"program":0,"isDrum":true},{"pitch":38,"velocity":85,"startTime":175.82570600000003,"endTime":175.89092325000001,"instrument":0,"program":0,"isDrum":true},{"pitch":44,"velocity":95,"startTime":175.82570600000003,"endTime":175.92896664583336,"instrument":0,"program":0,"isDrum":true},{"pitch":38,"velocity":55,"startTime":176.34744400000002,"endTime":176.41266125,"instrument":0,"program":0,"isDrum":true},{"pitch":38,"velocity":85,"startTime":176.34744400000002,"endTime":176.41266125,"instrument":0,"program":0,"isDrum":true},{"pitch":44,"velocity":95,"startTime":176.34744400000002,"endTime":176.445269875,"instrument":0,"program":0,"isDrum":true},{"pitch":38,"velocity":55,"startTime":176.86918200000002,"endTime":176.93439925,"instrument":0,"program":0,"isDrum":true},{"pitch":38,"velocity":85,"startTime":176.86918200000002,"endTime":176.93439925,"instrument":0,"program":0,"isDrum":true},{"pitch":44,"velocity":95,"startTime":176.86918200000002,"endTime":176.96157310416666,"instrument":0,"program":0,"isDrum":true},{"pitch":38,"velocity":34,"startTime":177.130051,"endTime":177.17352916666667,"instrument":0,"program":0,"isDrum":true},{"pitch":46,"velocity":69,"startTime":177.130051,"endTime":177.38005045833336,"instrument":0,"program":0,"isDrum":true},{"pitch":38,"velocity":39,"startTime":177.17352916666667,"endTime":177.21700733333336,"instrument":0,"program":0,"isDrum":true},{"pitch":38,"velocity":39,"startTime":177.21700733333336,"endTime":177.26048550000002,"instrument":0,"program":0,"isDrum":true},{"pitch":38,"velocity":42,"startTime":177.26048550000002,"endTime":177.30396366666668,"instrument":0,"program":0,"isDrum":true},{"pitch":38,"velocity":48,"startTime":177.30396366666668,"endTime":177.34744183333336,"instrument":0,"program":0,"isDrum":true},{"pitch":38,"velocity":53,"startTime":177.34744183333336,"endTime":177.39092000000002,"instrument":0,"program":0,"isDrum":true},{"pitch":38,"velocity":55,"startTime":177.39092000000002,"endTime":177.44526770833335,"instrument":0,"program":0,"isDrum":true},{"pitch":38,"velocity":85,"startTime":177.39092000000002,"endTime":177.44526770833335,"instrument":0,"program":0,"isDrum":true},{"pitch":44,"velocity":95,"startTime":177.39092000000002,"endTime":177.49418064583335,"instrument":0,"program":0,"isDrum":true},{"pitch":38,"velocity":55,"startTime":177.91265800000002,"endTime":177.97787525,"instrument":0,"program":0,"isDrum":true},{"pitch":38,"velocity":85,"startTime":177.91265800000002,"endTime":177.97787525,"instrument":0,"program":0,"isDrum":true},{"pitch":44,"velocity":95,"startTime":177.91265800000002,"endTime":178.02135341666667,"instrument":0,"program":0,"isDrum":true},{"pitch":38,"velocity":55,"startTime":178.43439600000002,"endTime":178.49961325,"instrument":0,"program":0,"isDrum":true},{"pitch":38,"velocity":85,"startTime":178.43439600000002,"endTime":178.49961325,"instrument":0,"program":0,"isDrum":true},{"pitch":44,"velocity":95,"startTime":178.43439600000002,"endTime":178.53765664583335,"instrument":0,"program":0,"isDrum":true},{"pitch":38,"velocity":55,"startTime":178.95613400000002,"endTime":179.02135125,"instrument":0,"program":0,"isDrum":true},{"pitch":38,"velocity":85,"startTime":178.95613400000002,"endTime":179.02135125,"instrument":0,"program":0,"isDrum":true},{"pitch":44,"velocity":95,"startTime":178.95613400000002,"endTime":179.05939464583335,"instrument":0,"program":0,"isDrum":true},{"pitch":38,"velocity":34,"startTime":179.217003,"endTime":179.26048116666666,"instrument":0,"program":0,"isDrum":true},{"pitch":46,"velocity":69,"startTime":179.217003,"endTime":179.46700245833335,"instrument":0,"program":0,"isDrum":true},{"pitch":38,"velocity":39,"startTime":179.26048116666666,"endTime":179.30395933333335,"instrument":0,"program":0,"isDrum":true},{"pitch":38,"velocity":39,"startTime":179.30395933333335,"endTime":179.3474375,"instrument":0,"program":0,"isDrum":true},{"pitch":38,"velocity":42,"startTime":179.3474375,"endTime":179.39091566666667,"instrument":0,"program":0,"isDrum":true},{"pitch":38,"velocity":48,"startTime":179.39091566666667,"endTime":179.43439383333336,"instrument":0,"program":0,"isDrum":true},{"pitch":38,"velocity":53,"startTime":179.43439383333336,"endTime":179.47787200000002,"instrument":0,"program":0,"isDrum":true},{"pitch":38,"velocity":55,"startTime":179.47787200000002,"endTime":179.54308925,"instrument":0,"program":0,"isDrum":true},{"pitch":38,"velocity":85,"startTime":179.47787200000002,"endTime":179.54308925,"instrument":0,"program":0,"isDrum":true},{"pitch":44,"velocity":95,"startTime":179.47787200000002,"endTime":179.58656741666667,"instrument":0,"program":0,"isDrum":true},{"pitch":38,"velocity":55,"startTime":179.99961000000002,"endTime":180.06482725,"instrument":0,"program":0,"isDrum":true},{"pitch":38,"velocity":85,"startTime":179.99961000000002,"endTime":180.06482725,"instrument":0,"program":0,"isDrum":true},{"pitch":44,"velocity":95,"startTime":179.99961000000002,"endTime":180.10287064583335,"instrument":0,"program":0,"isDrum":true},{"pitch":38,"velocity":55,"startTime":180.52134800000002,"endTime":180.58656525,"instrument":0,"program":0,"isDrum":true},{"pitch":38,"velocity":85,"startTime":180.52134800000002,"endTime":180.58656525,"instrument":0,"program":0,"isDrum":true},{"pitch":44,"velocity":95,"startTime":180.52134800000002,"endTime":180.63004341666667,"instrument":0,"program":0,"isDrum":true},{"pitch":38,"velocity":55,"startTime":181.04308600000002,"endTime":181.10830325,"instrument":0,"program":0,"isDrum":true},{"pitch":38,"velocity":85,"startTime":181.04308600000002,"endTime":181.10830325,"instrument":0,"program":0,"isDrum":true},{"pitch":44,"velocity":95,"startTime":181.04308600000002,"endTime":181.15178141666667,"instrument":0,"program":0,"isDrum":true},{"pitch":38,"velocity":34,"startTime":181.303955,"endTime":181.34743316666666,"instrument":0,"program":0,"isDrum":true},{"pitch":46,"velocity":69,"startTime":181.303955,"endTime":181.55395445833335,"instrument":0,"program":0,"isDrum":true},{"pitch":38,"velocity":39,"startTime":181.34743316666666,"endTime":181.39091133333335,"instrument":0,"program":0,"isDrum":true},{"pitch":38,"velocity":39,"startTime":181.39091133333335,"endTime":181.4343895,"instrument":0,"program":0,"isDrum":true},{"pitch":38,"velocity":42,"startTime":181.4343895,"endTime":181.47786766666667,"instrument":0,"program":0,"isDrum":true},{"pitch":38,"velocity":48,"startTime":181.47786766666667,"endTime":181.52134583333336,"instrument":0,"program":0,"isDrum":true},{"pitch":38,"velocity":53,"startTime":181.52134583333336,"endTime":181.56482400000002,"instrument":0,"program":0,"isDrum":true},{"pitch":38,"velocity":55,"startTime":181.56482400000002,"endTime":181.63004125,"instrument":0,"program":0,"isDrum":true},{"pitch":38,"velocity":85,"startTime":181.56482400000002,"endTime":181.63004125,"instrument":0,"program":0,"isDrum":true},{"pitch":44,"velocity":95,"startTime":181.56482400000002,"endTime":181.67351941666666,"instrument":0,"program":0,"isDrum":true},{"pitch":38,"velocity":55,"startTime":182.08656200000001,"endTime":182.15177925,"instrument":0,"program":0,"isDrum":true},{"pitch":38,"velocity":85,"startTime":182.08656200000001,"endTime":182.15177925,"instrument":0,"program":0,"isDrum":true},{"pitch":44,"velocity":95,"startTime":182.08656200000001,"endTime":182.19525741666666,"instrument":0,"program":0,"isDrum":true},{"pitch":38,"velocity":55,"startTime":182.6083,"endTime":182.67351725,"instrument":0,"program":0,"isDrum":true},{"pitch":38,"velocity":85,"startTime":182.6083,"endTime":182.67351725,"instrument":0,"program":0,"isDrum":true},{"pitch":44,"velocity":95,"startTime":182.6083,"endTime":182.70612587500003,"instrument":0,"program":0,"isDrum":true},{"pitch":38,"velocity":55,"startTime":183.130038,"endTime":183.19525525,"instrument":0,"program":0,"isDrum":true},{"pitch":38,"velocity":85,"startTime":183.130038,"endTime":183.19525525,"instrument":0,"program":0,"isDrum":true},{"pitch":44,"velocity":95,"startTime":183.130038,"endTime":183.23329864583337,"instrument":0,"program":0,"isDrum":true},{"pitch":38,"velocity":34,"startTime":183.39090700000003,"endTime":183.4343851666667,"instrument":0,"program":0,"isDrum":true},{"pitch":46,"velocity":69,"startTime":183.39090700000003,"endTime":183.64090645833335,"instrument":0,"program":0,"isDrum":true},{"pitch":38,"velocity":39,"startTime":183.4343851666667,"endTime":183.47786333333335,"instrument":0,"program":0,"isDrum":true},{"pitch":38,"velocity":39,"startTime":183.47786333333335,"endTime":183.5213415,"instrument":0,"program":0,"isDrum":true},{"pitch":38,"velocity":42,"startTime":183.5213415,"endTime":183.56481966666666,"instrument":0,"program":0,"isDrum":true},{"pitch":38,"velocity":48,"startTime":183.56481966666666,"endTime":183.60829783333335,"instrument":0,"program":0,"isDrum":true},{"pitch":38,"velocity":53,"startTime":183.60829783333335,"endTime":183.651776,"instrument":0,"program":0,"isDrum":true},{"pitch":38,"velocity":55,"startTime":183.651776,"endTime":183.71699325000003,"instrument":0,"program":0,"isDrum":true},{"pitch":38,"velocity":85,"startTime":183.651776,"endTime":183.71699325000003,"instrument":0,"program":0,"isDrum":true},{"pitch":44,"velocity":95,"startTime":183.651776,"endTime":183.77677572916667,"instrument":0,"program":0,"isDrum":true},{"pitch":38,"velocity":55,"startTime":184.173514,"endTime":184.23873125000003,"instrument":0,"program":0,"isDrum":true},{"pitch":38,"velocity":85,"startTime":184.173514,"endTime":184.23873125000003,"instrument":0,"program":0,"isDrum":true},{"pitch":44,"velocity":95,"startTime":184.173514,"endTime":184.2876441875,"instrument":0,"program":0,"isDrum":true},{"pitch":38,"velocity":55,"startTime":184.695252,"endTime":184.76046925000003,"instrument":0,"program":0,"isDrum":true},{"pitch":38,"velocity":85,"startTime":184.695252,"endTime":184.76046925000003,"instrument":0,"program":0,"isDrum":true},{"pitch":44,"velocity":95,"startTime":184.695252,"endTime":184.79851264583337,"instrument":0,"program":0,"isDrum":true},{"pitch":38,"velocity":55,"startTime":185.21699,"endTime":185.28220725000003,"instrument":0,"program":0,"isDrum":true},{"pitch":38,"velocity":85,"startTime":185.21699,"endTime":185.28220725000003,"instrument":0,"program":0,"isDrum":true},{"pitch":44,"velocity":95,"startTime":185.21699,"endTime":185.31481587500002,"instrument":0,"program":0,"isDrum":true},{"pitch":38,"velocity":34,"startTime":185.47785900000002,"endTime":185.52133716666668,"instrument":0,"program":0,"isDrum":true},{"pitch":46,"velocity":69,"startTime":185.47785900000002,"endTime":185.72785845833337,"instrument":0,"program":0,"isDrum":true},{"pitch":38,"velocity":39,"startTime":185.52133716666668,"endTime":185.56481533333337,"instrument":0,"program":0,"isDrum":true},{"pitch":38,"velocity":39,"startTime":185.56481533333337,"endTime":185.6082935,"instrument":0,"program":0,"isDrum":true},{"pitch":38,"velocity":42,"startTime":185.6082935,"endTime":185.65177166666666,"instrument":0,"program":0,"isDrum":true},{"pitch":38,"velocity":48,"startTime":185.65177166666666,"endTime":185.69524983333335,"instrument":0,"program":0,"isDrum":true},{"pitch":38,"velocity":53,"startTime":185.69524983333335,"endTime":185.738728,"instrument":0,"program":0,"isDrum":true},{"pitch":38,"velocity":55,"startTime":185.738728,"endTime":185.80394525000003,"instrument":0,"program":0,"isDrum":true},{"pitch":38,"velocity":85,"startTime":185.738728,"endTime":185.80394525000003,"instrument":0,"program":0,"isDrum":true},{"pitch":44,"velocity":95,"startTime":185.738728,"endTime":185.8474234166667,"instrument":0,"program":0,"isDrum":true},{"pitch":38,"velocity":55,"startTime":186.260466,"endTime":186.32568325000003,"instrument":0,"program":0,"isDrum":true},{"pitch":38,"velocity":85,"startTime":186.260466,"endTime":186.32568325000003,"instrument":0,"program":0,"isDrum":true},{"pitch":44,"velocity":95,"startTime":186.260466,"endTime":186.36372664583337,"instrument":0,"program":0,"isDrum":true},{"pitch":38,"velocity":55,"startTime":186.782204,"endTime":186.84742125000002,"instrument":0,"program":0,"isDrum":true},{"pitch":38,"velocity":85,"startTime":186.782204,"endTime":186.84742125000002,"instrument":0,"program":0,"isDrum":true},{"pitch":44,"velocity":95,"startTime":186.782204,"endTime":186.88002987500002,"instrument":0,"program":0,"isDrum":true},{"pitch":38,"velocity":55,"startTime":187.303942,"endTime":187.36915925000002,"instrument":0,"program":0,"isDrum":true},{"pitch":38,"velocity":85,"startTime":187.303942,"endTime":187.36915925000002,"instrument":0,"program":0,"isDrum":true},{"pitch":44,"velocity":95,"startTime":187.303942,"endTime":187.39633310416667,"instrument":0,"program":0,"isDrum":true},{"pitch":38,"velocity":34,"startTime":187.56481100000002,"endTime":187.60828916666668,"instrument":0,"program":0,"isDrum":true},{"pitch":46,"velocity":69,"startTime":187.56481100000002,"endTime":187.81481045833337,"instrument":0,"program":0,"isDrum":true},{"pitch":38,"velocity":39,"startTime":187.60828916666668,"endTime":187.65176733333337,"instrument":0,"program":0,"isDrum":true},{"pitch":38,"velocity":39,"startTime":187.65176733333337,"endTime":187.69524550000003,"instrument":0,"program":0,"isDrum":true},{"pitch":38,"velocity":42,"startTime":187.69524550000003,"endTime":187.7387236666667,"instrument":0,"program":0,"isDrum":true},{"pitch":38,"velocity":48,"startTime":187.7387236666667,"endTime":187.78220183333335,"instrument":0,"program":0,"isDrum":true},{"pitch":38,"velocity":53,"startTime":187.78220183333335,"endTime":187.82568,"instrument":0,"program":0,"isDrum":true},{"pitch":38,"velocity":55,"startTime":187.82568,"endTime":187.89089725000002,"instrument":0,"program":0,"isDrum":true},{"pitch":38,"velocity":85,"startTime":187.82568,"endTime":187.89089725000002,"instrument":0,"program":0,"isDrum":true},{"pitch":44,"velocity":95,"startTime":187.82568,"endTime":187.93437541666668,"instrument":0,"program":0,"isDrum":true},{"pitch":38,"velocity":55,"startTime":188.347418,"endTime":188.41263525000002,"instrument":0,"program":0,"isDrum":true},{"pitch":38,"velocity":85,"startTime":188.347418,"endTime":188.41263525000002,"instrument":0,"program":0,"isDrum":true},{"pitch":44,"velocity":95,"startTime":188.347418,"endTime":188.45067864583336,"instrument":0,"program":0,"isDrum":true},{"pitch":38,"velocity":55,"startTime":188.869156,"endTime":188.93437325000002,"instrument":0,"program":0,"isDrum":true},{"pitch":38,"velocity":85,"startTime":188.869156,"endTime":188.93437325000002,"instrument":0,"program":0,"isDrum":true},{"pitch":44,"velocity":95,"startTime":188.869156,"endTime":188.96698187500002,"instrument":0,"program":0,"isDrum":true},{"pitch":38,"velocity":55,"startTime":189.390894,"endTime":189.45611125000002,"instrument":0,"program":0,"isDrum":true},{"pitch":38,"velocity":85,"startTime":189.390894,"endTime":189.45611125000002,"instrument":0,"program":0,"isDrum":true},{"pitch":44,"velocity":95,"startTime":189.390894,"endTime":189.48328510416667,"instrument":0,"program":0,"isDrum":true},{"pitch":38,"velocity":34,"startTime":189.65176300000002,"endTime":189.69524116666668,"instrument":0,"program":0,"isDrum":true},{"pitch":46,"velocity":69,"startTime":189.65176300000002,"endTime":189.90176245833337,"instrument":0,"program":0,"isDrum":true},{"pitch":38,"velocity":39,"startTime":189.69524116666668,"endTime":189.73871933333336,"instrument":0,"program":0,"isDrum":true},{"pitch":38,"velocity":39,"startTime":189.73871933333336,"endTime":189.78219750000002,"instrument":0,"program":0,"isDrum":true},{"pitch":38,"velocity":42,"startTime":189.78219750000002,"endTime":189.82567566666668,"instrument":0,"program":0,"isDrum":true},{"pitch":38,"velocity":48,"startTime":189.82567566666668,"endTime":189.86915383333337,"instrument":0,"program":0,"isDrum":true},{"pitch":38,"velocity":53,"startTime":189.86915383333337,"endTime":189.91263200000003,"instrument":0,"program":0,"isDrum":true},{"pitch":38,"velocity":55,"startTime":189.91263200000003,"endTime":189.97784925000002,"instrument":0,"program":0,"isDrum":true},{"pitch":38,"velocity":85,"startTime":189.91263200000003,"endTime":189.97784925000002,"instrument":0,"program":0,"isDrum":true},{"pitch":44,"velocity":95,"startTime":189.91263200000003,"endTime":190.02132741666668,"instrument":0,"program":0,"isDrum":true},{"pitch":38,"velocity":55,"startTime":190.43437000000003,"endTime":190.49958725000002,"instrument":0,"program":0,"isDrum":true},{"pitch":38,"velocity":85,"startTime":190.43437000000003,"endTime":190.49958725000002,"instrument":0,"program":0,"isDrum":true},{"pitch":44,"velocity":95,"startTime":190.43437000000003,"endTime":190.53763064583336,"instrument":0,"program":0,"isDrum":true},{"pitch":38,"velocity":55,"startTime":190.95610800000003,"endTime":191.02132525000002,"instrument":0,"program":0,"isDrum":true},{"pitch":38,"velocity":85,"startTime":190.95610800000003,"endTime":191.02132525000002,"instrument":0,"program":0,"isDrum":true},{"pitch":44,"velocity":95,"startTime":190.95610800000003,"endTime":191.053933875,"instrument":0,"program":0,"isDrum":true},{"pitch":38,"velocity":55,"startTime":191.47784600000003,"endTime":191.54306325000002,"instrument":0,"program":0,"isDrum":true},{"pitch":38,"velocity":85,"startTime":191.47784600000003,"endTime":191.54306325000002,"instrument":0,"program":0,"isDrum":true},{"pitch":44,"velocity":95,"startTime":191.47784600000003,"endTime":191.57023710416667,"instrument":0,"program":0,"isDrum":true},{"pitch":38,"velocity":34,"startTime":191.738715,"endTime":191.78219316666667,"instrument":0,"program":0,"isDrum":true},{"pitch":46,"velocity":69,"startTime":191.738715,"endTime":191.98871445833336,"instrument":0,"program":0,"isDrum":true},{"pitch":38,"velocity":39,"startTime":191.78219316666667,"endTime":191.82567133333336,"instrument":0,"program":0,"isDrum":true},{"pitch":38,"velocity":39,"startTime":191.82567133333336,"endTime":191.86914950000002,"instrument":0,"program":0,"isDrum":true},{"pitch":38,"velocity":42,"startTime":191.86914950000002,"endTime":191.91262766666668,"instrument":0,"program":0,"isDrum":true},{"pitch":38,"velocity":48,"startTime":191.91262766666668,"endTime":191.95610583333337,"instrument":0,"program":0,"isDrum":true},{"pitch":38,"velocity":53,"startTime":191.95610583333337,"endTime":191.99958400000003,"instrument":0,"program":0,"isDrum":true},{"pitch":38,"velocity":55,"startTime":191.99958400000003,"endTime":192.06480125000002,"instrument":0,"program":0,"isDrum":true},{"pitch":38,"velocity":85,"startTime":191.99958400000003,"endTime":192.06480125000002,"instrument":0,"program":0,"isDrum":true},{"pitch":44,"velocity":95,"startTime":191.99958400000003,"endTime":192.10827941666668,"instrument":0,"program":0,"isDrum":true},{"pitch":38,"velocity":55,"startTime":192.52132200000003,"endTime":192.58653925000002,"instrument":0,"program":0,"isDrum":true},{"pitch":38,"velocity":85,"startTime":192.52132200000003,"endTime":192.58653925000002,"instrument":0,"program":0,"isDrum":true},{"pitch":44,"velocity":95,"startTime":192.52132200000003,"endTime":192.62458264583336,"instrument":0,"program":0,"isDrum":true},{"pitch":38,"velocity":55,"startTime":193.04306000000003,"endTime":193.10827725000001,"instrument":0,"program":0,"isDrum":true},{"pitch":38,"velocity":85,"startTime":193.04306000000003,"endTime":193.10827725000001,"instrument":0,"program":0,"isDrum":true},{"pitch":44,"velocity":95,"startTime":193.04306000000003,"endTime":193.140885875,"instrument":0,"program":0,"isDrum":true},{"pitch":38,"velocity":55,"startTime":193.56479800000002,"endTime":193.63001525,"instrument":0,"program":0,"isDrum":true},{"pitch":38,"velocity":85,"startTime":193.56479800000002,"endTime":193.63001525,"instrument":0,"program":0,"isDrum":true},{"pitch":44,"velocity":95,"startTime":193.56479800000002,"endTime":193.65718910416666,"instrument":0,"program":0,"isDrum":true},{"pitch":38,"velocity":34,"startTime":193.825667,"endTime":193.86914516666667,"instrument":0,"program":0,"isDrum":true},{"pitch":46,"velocity":69,"startTime":193.825667,"endTime":194.07566645833336,"instrument":0,"program":0,"isDrum":true},{"pitch":38,"velocity":39,"startTime":193.86914516666667,"endTime":193.91262333333336,"instrument":0,"program":0,"isDrum":true},{"pitch":38,"velocity":39,"startTime":193.91262333333336,"endTime":193.95610150000002,"instrument":0,"program":0,"isDrum":true},{"pitch":38,"velocity":42,"startTime":193.95610150000002,"endTime":193.99957966666668,"instrument":0,"program":0,"isDrum":true},{"pitch":38,"velocity":48,"startTime":193.99957966666668,"endTime":194.04305783333336,"instrument":0,"program":0,"isDrum":true},{"pitch":38,"velocity":53,"startTime":194.04305783333336,"endTime":194.08653600000002,"instrument":0,"program":0,"isDrum":true},{"pitch":38,"velocity":55,"startTime":194.08653600000002,"endTime":194.15175325,"instrument":0,"program":0,"isDrum":true},{"pitch":38,"velocity":85,"startTime":194.08653600000002,"endTime":194.15175325,"instrument":0,"program":0,"isDrum":true},{"pitch":44,"velocity":95,"startTime":194.08653600000002,"endTime":194.184361875,"instrument":0,"program":0,"isDrum":true},{"pitch":38,"velocity":55,"startTime":194.60827400000002,"endTime":194.67349125,"instrument":0,"program":0,"isDrum":true},{"pitch":38,"velocity":85,"startTime":194.60827400000002,"endTime":194.67349125,"instrument":0,"program":0,"isDrum":true},{"pitch":44,"velocity":95,"startTime":194.60827400000002,"endTime":194.706099875,"instrument":0,"program":0,"isDrum":true},{"pitch":38,"velocity":55,"startTime":195.13001200000002,"endTime":195.19522925,"instrument":0,"program":0,"isDrum":true},{"pitch":38,"velocity":85,"startTime":195.13001200000002,"endTime":195.19522925,"instrument":0,"program":0,"isDrum":true},{"pitch":44,"velocity":95,"startTime":195.13001200000002,"endTime":195.2224031041667,"instrument":0,"program":0,"isDrum":true},{"pitch":38,"velocity":55,"startTime":195.65175000000002,"endTime":195.71696725,"instrument":0,"program":0,"isDrum":true},{"pitch":38,"velocity":85,"startTime":195.65175000000002,"endTime":195.71696725,"instrument":0,"program":0,"isDrum":true},{"pitch":44,"velocity":95,"startTime":195.65175000000002,"endTime":195.75501064583335,"instrument":0,"program":0,"isDrum":true},{"pitch":38,"velocity":34,"startTime":195.912619,"endTime":195.95609716666667,"instrument":0,"program":0,"isDrum":true},{"pitch":46,"velocity":69,"startTime":195.912619,"endTime":196.16261845833336,"instrument":0,"program":0,"isDrum":true},{"pitch":38,"velocity":39,"startTime":195.95609716666667,"endTime":195.99957533333335,"instrument":0,"program":0,"isDrum":true},{"pitch":38,"velocity":39,"startTime":195.99957533333335,"endTime":196.0430535,"instrument":0,"program":0,"isDrum":true},{"pitch":38,"velocity":42,"startTime":196.0430535,"endTime":196.08653166666667,"instrument":0,"program":0,"isDrum":true},{"pitch":38,"velocity":48,"startTime":196.08653166666667,"endTime":196.13000983333336,"instrument":0,"program":0,"isDrum":true},{"pitch":38,"velocity":53,"startTime":196.13000983333336,"endTime":196.17348800000002,"instrument":0,"program":0,"isDrum":true},{"pitch":38,"velocity":55,"startTime":196.17348800000002,"endTime":196.23870525,"instrument":0,"program":0,"isDrum":true},{"pitch":38,"velocity":85,"startTime":196.17348800000002,"endTime":196.23870525,"instrument":0,"program":0,"isDrum":true},{"pitch":51,"velocity":87,"startTime":196.17348800000002,"endTime":196.2658791041667,"instrument":0,"program":0,"isDrum":true},{"pitch":70,"velocity":78,"startTime":198.26044000000002,"endTime":198.36913541666667,"instrument":0,"program":0,"isDrum":true},{"pitch":51,"velocity":85,"startTime":198.52130900000003,"endTime":198.7332650625,"instrument":0,"program":0,"isDrum":true},{"pitch":38,"velocity":55,"startTime":198.78217800000002,"endTime":198.88543864583335,"instrument":0,"program":0,"isDrum":true},{"pitch":38,"velocity":85,"startTime":198.78217800000002,"endTime":198.88543864583335,"instrument":0,"program":0,"isDrum":true},{"pitch":44,"velocity":95,"startTime":198.78217800000002,"endTime":199.03217745833336,"instrument":0,"program":0,"isDrum":true},{"pitch":38,"velocity":55,"startTime":199.30391600000002,"endTime":199.39630710416668,"instrument":0,"program":0,"isDrum":true},{"pitch":38,"velocity":85,"startTime":199.30391600000002,"endTime":199.39630710416668,"instrument":0,"program":0,"isDrum":true},{"pitch":44,"velocity":97,"startTime":199.30391600000002,"endTime":199.45608958333335,"instrument":0,"program":0,"isDrum":true},{"pitch":38,"velocity":94,"startTime":0,"endTime":0.3423905624999999,"instrument":1,"program":32,"isDrum":false},{"pitch":42,"velocity":94,"startTime":0.521738,"endTime":0.8641285624999999,"instrument":1,"program":32,"isDrum":false},{"pitch":45,"velocity":94,"startTime":1.043476,"endTime":1.3858665625,"instrument":1,"program":32,"isDrum":false},{"pitch":42,"velocity":94,"startTime":1.565214,"endTime":1.9076045625,"instrument":1,"program":32,"isDrum":false},{"pitch":38,"velocity":94,"startTime":2.086952,"endTime":2.4293425625000005,"instrument":1,"program":32,"isDrum":false},{"pitch":42,"velocity":94,"startTime":2.60869,"endTime":2.9510805625000005,"instrument":1,"program":32,"isDrum":false},{"pitch":45,"velocity":94,"startTime":3.130428,"endTime":3.4728185625000005,"instrument":1,"program":32,"isDrum":false},{"pitch":42,"velocity":94,"startTime":3.6521660000000002,"endTime":3.9945565625000006,"instrument":1,"program":32,"isDrum":false},{"pitch":31,"velocity":94,"startTime":4.173904,"endTime":4.516294562500001,"instrument":1,"program":32,"isDrum":false},{"pitch":34,"velocity":94,"startTime":4.695642,"endTime":5.038032562500001,"instrument":1,"program":32,"isDrum":false},{"pitch":38,"velocity":94,"startTime":5.21738,"endTime":5.559770562500001,"instrument":1,"program":32,"isDrum":false},{"pitch":34,"velocity":94,"startTime":5.739118,"endTime":6.0815085625,"instrument":1,"program":32,"isDrum":false},{"pitch":31,"velocity":94,"startTime":6.260856,"endTime":6.603246562500001,"instrument":1,"program":32,"isDrum":false},{"pitch":34,"velocity":94,"startTime":6.782594,"endTime":7.1249845625,"instrument":1,"program":32,"isDrum":false},{"pitch":38,"velocity":94,"startTime":7.3043320000000005,"endTime":7.646722562500001,"instrument":1,"program":32,"isDrum":false},{"pitch":34,"velocity":94,"startTime":7.826070000000001,"endTime":8.1684605625,"instrument":1,"program":32,"isDrum":false},{"pitch":38,"velocity":94,"startTime":8.347808,"endTime":8.690198562500001,"instrument":1,"program":32,"isDrum":false},{"pitch":42,"velocity":94,"startTime":8.869546,"endTime":9.2119365625,"instrument":1,"program":32,"isDrum":false},{"pitch":45,"velocity":94,"startTime":9.391284,"endTime":9.733674562500001,"instrument":1,"program":32,"isDrum":false},{"pitch":42,"velocity":94,"startTime":9.913022000000002,"endTime":10.2554125625,"instrument":1,"program":32,"isDrum":false},{"pitch":38,"velocity":94,"startTime":10.43476,"endTime":10.777150562500001,"instrument":1,"program":32,"isDrum":false},{"pitch":42,"velocity":94,"startTime":10.956498,"endTime":11.2988885625,"instrument":1,"program":32,"isDrum":false},{"pitch":45,"velocity":94,"startTime":11.478236,"endTime":11.820626562500001,"instrument":1,"program":32,"isDrum":false},{"pitch":42,"velocity":94,"startTime":11.999974000000002,"endTime":12.3423645625,"instrument":1,"program":32,"isDrum":false},{"pitch":31,"velocity":94,"startTime":12.521712,"endTime":12.864102562500001,"instrument":1,"program":32,"isDrum":false},{"pitch":34,"velocity":94,"startTime":13.04345,"endTime":13.3858405625,"instrument":1,"program":32,"isDrum":false},{"pitch":38,"velocity":94,"startTime":13.565188000000001,"endTime":13.907578562500001,"instrument":1,"program":32,"isDrum":false},{"pitch":34,"velocity":94,"startTime":14.086926000000002,"endTime":14.429316562500002,"instrument":1,"program":32,"isDrum":false},{"pitch":31,"velocity":94,"startTime":14.608664000000001,"endTime":14.951054562500001,"instrument":1,"program":32,"isDrum":false},{"pitch":34,"velocity":94,"startTime":15.130402,"endTime":15.4727925625,"instrument":1,"program":32,"isDrum":false},{"pitch":38,"velocity":94,"startTime":15.65214,"endTime":15.9945305625,"instrument":1,"program":32,"isDrum":false},{"pitch":34,"velocity":94,"startTime":16.173878000000002,"endTime":16.516268562500002,"instrument":1,"program":32,"isDrum":false},{"pitch":36,"velocity":94,"startTime":16.695616,"endTime":17.0380065625,"instrument":1,"program":32,"isDrum":false},{"pitch":39,"velocity":94,"startTime":17.217354,"endTime":17.5597445625,"instrument":1,"program":32,"isDrum":false},{"pitch":43,"velocity":94,"startTime":17.739092000000003,"endTime":18.0814825625,"instrument":1,"program":32,"isDrum":false},{"pitch":39,"velocity":94,"startTime":18.260830000000002,"endTime":18.603220562500002,"instrument":1,"program":32,"isDrum":false},{"pitch":36,"velocity":94,"startTime":18.782568,"endTime":19.1249585625,"instrument":1,"program":32,"isDrum":false},{"pitch":39,"velocity":94,"startTime":19.304306,"endTime":19.6466965625,"instrument":1,"program":32,"isDrum":false},{"pitch":43,"velocity":94,"startTime":19.826044,"endTime":20.1684345625,"instrument":1,"program":32,"isDrum":false},{"pitch":39,"velocity":94,"startTime":20.347782000000002,"endTime":20.690172562500003,"instrument":1,"program":32,"isDrum":false},{"pitch":31,"velocity":94,"startTime":20.86952,"endTime":21.2119105625,"instrument":1,"program":32,"isDrum":false},{"pitch":34,"velocity":94,"startTime":21.391258,"endTime":21.7336485625,"instrument":1,"program":32,"isDrum":false},{"pitch":38,"velocity":94,"startTime":21.912996000000003,"endTime":22.2553865625,"instrument":1,"program":32,"isDrum":false},{"pitch":34,"velocity":94,"startTime":22.434734000000002,"endTime":22.777124562500003,"instrument":1,"program":32,"isDrum":false},{"pitch":31,"velocity":94,"startTime":22.956472,"endTime":23.298862562500002,"instrument":1,"program":32,"isDrum":false},{"pitch":34,"velocity":94,"startTime":23.47821,"endTime":23.8206005625,"instrument":1,"program":32,"isDrum":false},{"pitch":38,"velocity":94,"startTime":23.999948,"endTime":24.3423385625,"instrument":1,"program":32,"isDrum":false},{"pitch":34,"velocity":94,"startTime":24.521686000000003,"endTime":24.864076562500003,"instrument":1,"program":32,"isDrum":false},{"pitch":38,"velocity":94,"startTime":25.043424,"endTime":25.385814562500002,"instrument":1,"program":32,"isDrum":false},{"pitch":42,"velocity":94,"startTime":25.565162,"endTime":25.9075525625,"instrument":1,"program":32,"isDrum":false},{"pitch":45,"velocity":94,"startTime":26.086900000000004,"endTime":26.4292905625,"instrument":1,"program":32,"isDrum":false},{"pitch":42,"velocity":94,"startTime":26.608638000000003,"endTime":26.951028562500003,"instrument":1,"program":32,"isDrum":false},{"pitch":38,"velocity":94,"startTime":27.130376000000002,"endTime":27.472766562500002,"instrument":1,"program":32,"isDrum":false},{"pitch":42,"velocity":94,"startTime":27.652114,"endTime":27.9945045625,"instrument":1,"program":32,"isDrum":false},{"pitch":45,"velocity":94,"startTime":28.173852,"endTime":28.5162425625,"instrument":1,"program":32,"isDrum":false},{"pitch":42,"velocity":94,"startTime":28.695590000000003,"endTime":29.037980562500003,"instrument":1,"program":32,"isDrum":false},{"pitch":43,"velocity":94,"startTime":29.217328000000002,"endTime":29.559718562500002,"instrument":1,"program":32,"isDrum":false},{"pitch":38,"velocity":94,"startTime":31.826018,"endTime":32.168408562500005,"instrument":1,"program":32,"isDrum":false},{"pitch":43,"velocity":94,"startTime":32.347756000000004,"endTime":32.690146562500004,"instrument":1,"program":32,"isDrum":false},{"pitch":38,"velocity":94,"startTime":33.391232,"endTime":33.7336225625,"instrument":1,"program":32,"isDrum":false},{"pitch":42,"velocity":94,"startTime":33.91297,"endTime":34.2553605625,"instrument":1,"program":32,"isDrum":false},{"pitch":45,"velocity":94,"startTime":34.434708,"endTime":34.7770985625,"instrument":1,"program":32,"isDrum":false},{"pitch":42,"velocity":94,"startTime":34.956446,"endTime":35.2988365625,"instrument":1,"program":32,"isDrum":false},{"pitch":38,"velocity":94,"startTime":35.478184,"endTime":35.8205745625,"instrument":1,"program":32,"isDrum":false},{"pitch":42,"velocity":94,"startTime":35.999922,"endTime":36.3423125625,"instrument":1,"program":32,"isDrum":false},{"pitch":45,"velocity":94,"startTime":36.52166,"endTime":36.8640505625,"instrument":1,"program":32,"isDrum":false},{"pitch":42,"velocity":94,"startTime":37.043397999999996,"endTime":37.3857885625,"instrument":1,"program":32,"isDrum":false},{"pitch":31,"velocity":94,"startTime":37.56513600000001,"endTime":37.907526562499996,"instrument":1,"program":32,"isDrum":false},{"pitch":34,"velocity":94,"startTime":38.08687400000001,"endTime":38.42926456250001,"instrument":1,"program":32,"isDrum":false},{"pitch":38,"velocity":94,"startTime":38.60861200000001,"endTime":38.95100256250001,"instrument":1,"program":32,"isDrum":false},{"pitch":34,"velocity":94,"startTime":39.13035000000001,"endTime":39.47274056250001,"instrument":1,"program":32,"isDrum":false},{"pitch":31,"velocity":94,"startTime":39.652088000000006,"endTime":39.99447856250001,"instrument":1,"program":32,"isDrum":false},{"pitch":34,"velocity":94,"startTime":40.173826000000005,"endTime":40.516216562500006,"instrument":1,"program":32,"isDrum":false},{"pitch":38,"velocity":94,"startTime":40.695564000000005,"endTime":41.037954562500005,"instrument":1,"program":32,"isDrum":false},{"pitch":34,"velocity":94,"startTime":41.217302000000004,"endTime":41.559692562500004,"instrument":1,"program":32,"isDrum":false},{"pitch":38,"velocity":94,"startTime":41.73904,"endTime":42.0814305625,"instrument":1,"program":32,"isDrum":false},{"pitch":42,"velocity":94,"startTime":42.260778,"endTime":42.6031685625,"instrument":1,"program":32,"isDrum":false},{"pitch":45,"velocity":94,"startTime":42.782516,"endTime":43.1249065625,"instrument":1,"program":32,"isDrum":false},{"pitch":42,"velocity":94,"startTime":43.304254,"endTime":43.6466445625,"instrument":1,"program":32,"isDrum":false},{"pitch":38,"velocity":94,"startTime":43.825992,"endTime":44.1683825625,"instrument":1,"program":32,"isDrum":false},{"pitch":42,"velocity":94,"startTime":44.34773,"endTime":44.6901205625,"instrument":1,"program":32,"isDrum":false},{"pitch":45,"velocity":94,"startTime":44.869468,"endTime":45.2118585625,"instrument":1,"program":32,"isDrum":false},{"pitch":42,"velocity":94,"startTime":45.391206,"endTime":45.7335965625,"instrument":1,"program":32,"isDrum":false},{"pitch":31,"velocity":94,"startTime":45.91294400000001,"endTime":46.255334562499996,"instrument":1,"program":32,"isDrum":false},{"pitch":34,"velocity":94,"startTime":46.43468200000001,"endTime":46.77707256250001,"instrument":1,"program":32,"isDrum":false},{"pitch":38,"velocity":94,"startTime":46.95642000000001,"endTime":47.29881056250001,"instrument":1,"program":32,"isDrum":false},{"pitch":34,"velocity":94,"startTime":47.47815800000001,"endTime":47.82054856250001,"instrument":1,"program":32,"isDrum":false},{"pitch":31,"velocity":94,"startTime":47.99989600000001,"endTime":48.34228656250001,"instrument":1,"program":32,"isDrum":false},{"pitch":34,"velocity":94,"startTime":48.521634000000006,"endTime":48.864024562500006,"instrument":1,"program":32,"isDrum":false},{"pitch":38,"velocity":94,"startTime":49.043372000000005,"endTime":49.385762562500005,"instrument":1,"program":32,"isDrum":false},{"pitch":34,"velocity":94,"startTime":49.565110000000004,"endTime":49.907500562500005,"instrument":1,"program":32,"isDrum":false},{"pitch":36,"velocity":94,"startTime":50.086848,"endTime":50.429238562500004,"instrument":1,"program":32,"isDrum":false},{"pitch":39,"velocity":94,"startTime":50.608586,"endTime":50.9509765625,"instrument":1,"program":32,"isDrum":false},{"pitch":43,"velocity":94,"startTime":51.130324,"endTime":51.4727145625,"instrument":1,"program":32,"isDrum":false},{"pitch":39,"velocity":94,"startTime":51.652062,"endTime":51.9944525625,"instrument":1,"program":32,"isDrum":false},{"pitch":36,"velocity":94,"startTime":52.1738,"endTime":52.5161905625,"instrument":1,"program":32,"isDrum":false},{"pitch":39,"velocity":94,"startTime":52.695538,"endTime":53.0379285625,"instrument":1,"program":32,"isDrum":false},{"pitch":43,"velocity":94,"startTime":53.217276,"endTime":53.5596665625,"instrument":1,"program":32,"isDrum":false},{"pitch":39,"velocity":94,"startTime":53.739014,"endTime":54.0814045625,"instrument":1,"program":32,"isDrum":false},{"pitch":31,"velocity":94,"startTime":54.26075200000001,"endTime":54.6031425625,"instrument":1,"program":32,"isDrum":false},{"pitch":34,"velocity":94,"startTime":54.78249000000001,"endTime":55.12488056250001,"instrument":1,"program":32,"isDrum":false},{"pitch":38,"velocity":94,"startTime":55.30422800000001,"endTime":55.64661856250001,"instrument":1,"program":32,"isDrum":false},{"pitch":34,"velocity":94,"startTime":55.82596600000001,"endTime":56.16835656250001,"instrument":1,"program":32,"isDrum":false},{"pitch":31,"velocity":94,"startTime":56.34770400000001,"endTime":56.69009456250001,"instrument":1,"program":32,"isDrum":false},{"pitch":34,"velocity":94,"startTime":56.86944200000001,"endTime":57.21183256250001,"instrument":1,"program":32,"isDrum":false},{"pitch":38,"velocity":94,"startTime":57.391180000000006,"endTime":57.733570562500006,"instrument":1,"program":32,"isDrum":false},{"pitch":34,"velocity":94,"startTime":57.912918000000005,"endTime":58.255308562500005,"instrument":1,"program":32,"isDrum":false},{"pitch":38,"velocity":94,"startTime":58.434656000000004,"endTime":58.777046562500004,"instrument":1,"program":32,"isDrum":false},{"pitch":42,"velocity":94,"startTime":58.956394,"endTime":59.2987845625,"instrument":1,"program":32,"isDrum":false},{"pitch":45,"velocity":94,"startTime":59.478132,"endTime":59.8205225625,"instrument":1,"program":32,"isDrum":false},{"pitch":42,"velocity":94,"startTime":59.99987,"endTime":60.3422605625,"instrument":1,"program":32,"isDrum":false},{"pitch":38,"velocity":94,"startTime":60.521608,"endTime":60.8639985625,"instrument":1,"program":32,"isDrum":false},{"pitch":42,"velocity":94,"startTime":61.043346,"endTime":61.3857365625,"instrument":1,"program":32,"isDrum":false},{"pitch":45,"velocity":94,"startTime":61.565084,"endTime":61.9074745625,"instrument":1,"program":32,"isDrum":false},{"pitch":42,"velocity":94,"startTime":62.08682200000001,"endTime":62.42921256250001,"instrument":1,"program":32,"isDrum":false},{"pitch":43,"velocity":94,"startTime":62.60856000000001,"endTime":62.95095056250001,"instrument":1,"program":32,"isDrum":false},{"pitch":38,"velocity":94,"startTime":65.21725,"endTime":65.55964056250001,"instrument":1,"program":32,"isDrum":false},{"pitch":43,"velocity":94,"startTime":65.738988,"endTime":66.0813785625,"instrument":1,"program":32,"isDrum":false},{"pitch":43,"velocity":94,"startTime":66.782464,"endTime":67.565071,"instrument":1,"program":32,"isDrum":false},{"pitch":41,"velocity":94,"startTime":67.82594,"endTime":68.63028608333333,"instrument":1,"program":32,"isDrum":false},{"pitch":40,"velocity":94,"startTime":68.869416,"endTime":69.65202300000001,"instrument":1,"program":32,"isDrum":false},{"pitch":39,"velocity":94,"startTime":69.91289200000001,"endTime":70.34767366666668,"instrument":1,"program":32,"isDrum":false},{"pitch":38,"velocity":94,"startTime":70.43463000000001,"endTime":70.85854212500001,"instrument":1,"program":32,"isDrum":false},{"pitch":43,"velocity":94,"startTime":70.95636800000001,"endTime":71.29875856250001,"instrument":1,"program":32,"isDrum":false},{"pitch":38,"velocity":94,"startTime":73.04332000000001,"endTime":73.38571056250001,"instrument":1,"program":32,"isDrum":false},{"pitch":42,"velocity":94,"startTime":73.56505800000001,"endTime":73.90744856250001,"instrument":1,"program":32,"isDrum":false},{"pitch":45,"velocity":94,"startTime":74.086796,"endTime":74.4291865625,"instrument":1,"program":32,"isDrum":false},{"pitch":42,"velocity":94,"startTime":74.608534,"endTime":74.9509245625,"instrument":1,"program":32,"isDrum":false},{"pitch":38,"velocity":94,"startTime":75.130272,"endTime":75.4726625625,"instrument":1,"program":32,"isDrum":false},{"pitch":42,"velocity":94,"startTime":75.65201,"endTime":75.9944005625,"instrument":1,"program":32,"isDrum":false},{"pitch":45,"velocity":94,"startTime":76.173748,"endTime":76.5161385625,"instrument":1,"program":32,"isDrum":false},{"pitch":42,"velocity":94,"startTime":76.695486,"endTime":77.0378765625,"instrument":1,"program":32,"isDrum":false},{"pitch":38,"velocity":94,"startTime":77.21722400000002,"endTime":77.5596145625,"instrument":1,"program":32,"isDrum":false},{"pitch":42,"velocity":94,"startTime":77.73896200000001,"endTime":78.08135256250002,"instrument":1,"program":32,"isDrum":false},{"pitch":45,"velocity":94,"startTime":78.26070000000001,"endTime":78.60309056250001,"instrument":1,"program":32,"isDrum":false},{"pitch":42,"velocity":94,"startTime":78.78243800000001,"endTime":79.12482856250001,"instrument":1,"program":32,"isDrum":false},{"pitch":38,"velocity":94,"startTime":79.30417600000001,"endTime":79.64656656250001,"instrument":1,"program":32,"isDrum":false},{"pitch":42,"velocity":94,"startTime":79.82591400000001,"endTime":80.16830456250001,"instrument":1,"program":32,"isDrum":false},{"pitch":45,"velocity":94,"startTime":80.34765200000001,"endTime":80.69004256250001,"instrument":1,"program":32,"isDrum":false},{"pitch":42,"velocity":94,"startTime":80.86939000000001,"endTime":81.21178056250001,"instrument":1,"program":32,"isDrum":false},{"pitch":43,"velocity":94,"startTime":81.39112800000001,"endTime":81.73351856250001,"instrument":1,"program":32,"isDrum":false},{"pitch":38,"velocity":94,"startTime":81.91286600000001,"endTime":82.25525656250001,"instrument":1,"program":32,"isDrum":false},{"pitch":34,"velocity":94,"startTime":82.43460400000001,"endTime":82.77699456250001,"instrument":1,"program":32,"isDrum":false},{"pitch":38,"velocity":94,"startTime":82.956342,"endTime":83.2987325625,"instrument":1,"program":32,"isDrum":false},{"pitch":43,"velocity":94,"startTime":83.47808,"endTime":84.260687,"instrument":1,"program":32,"isDrum":false},{"pitch":41,"velocity":94,"startTime":84.521556,"endTime":85.31503254166668,"instrument":1,"program":32,"isDrum":false},{"pitch":40,"velocity":94,"startTime":85.565032,"endTime":86.35850854166668,"instrument":1,"program":32,"isDrum":false},{"pitch":39,"velocity":94,"startTime":86.60850800000001,"endTime":87.01068104166669,"instrument":1,"program":32,"isDrum":false},{"pitch":38,"velocity":94,"startTime":87.13024600000001,"endTime":87.56502766666668,"instrument":1,"program":32,"isDrum":false},{"pitch":43,"velocity":94,"startTime":87.65198400000001,"endTime":87.99437456250001,"instrument":1,"program":32,"isDrum":false},{"pitch":36,"velocity":94,"startTime":89.73893600000001,"endTime":90.08132656250001,"instrument":1,"program":32,"isDrum":false},{"pitch":39,"velocity":94,"startTime":90.26067400000001,"endTime":90.60306456250001,"instrument":1,"program":32,"isDrum":false},{"pitch":43,"velocity":94,"startTime":90.78241200000001,"endTime":91.12480256250001,"instrument":1,"program":32,"isDrum":false},{"pitch":39,"velocity":94,"startTime":91.30415,"endTime":91.64654056250001,"instrument":1,"program":32,"isDrum":false},{"pitch":36,"velocity":94,"startTime":91.825888,"endTime":91.99980066666669,"instrument":1,"program":32,"isDrum":false},{"pitch":36,"velocity":94,"startTime":92.086757,"endTime":92.32588691666668,"instrument":1,"program":32,"isDrum":false},{"pitch":36,"velocity":94,"startTime":92.608495,"endTime":92.85849445833334,"instrument":1,"program":32,"isDrum":false},{"pitch":31,"velocity":94,"startTime":93.130233,"endTime":93.35849337500001,"instrument":1,"program":32,"isDrum":false},{"pitch":36,"velocity":94,"startTime":93.391102,"endTime":93.63023191666669,"instrument":1,"program":32,"isDrum":false},{"pitch":43,"velocity":94,"startTime":93.91284000000002,"endTime":94.075883125,"instrument":1,"program":32,"isDrum":false},{"pitch":43,"velocity":94,"startTime":94.17370900000002,"endTime":94.43457800000002,"instrument":1,"program":32,"isDrum":false},{"pitch":43,"velocity":94,"startTime":94.69544700000002,"endTime":95.06501141666668,"instrument":1,"program":32,"isDrum":false},{"pitch":38,"velocity":94,"startTime":95.21718500000001,"endTime":95.445445375,"instrument":1,"program":32,"isDrum":false},{"pitch":43,"velocity":94,"startTime":95.47805400000001,"endTime":95.72805345833333,"instrument":1,"program":32,"isDrum":false},{"pitch":38,"velocity":94,"startTime":95.99979200000001,"endTime":96.96718120833334,"instrument":1,"program":32,"isDrum":false},{"pitch":38,"velocity":94,"startTime":98.60848200000001,"endTime":99.05413320833334,"instrument":1,"program":32,"isDrum":false},{"pitch":43,"velocity":94,"startTime":99.13022000000001,"endTime":99.38021945833334,"instrument":1,"program":32,"isDrum":false},{"pitch":38,"velocity":94,"startTime":100.173696,"endTime":100.5160865625,"instrument":1,"program":32,"isDrum":false},{"pitch":42,"velocity":94,"startTime":100.695434,"endTime":101.0378245625,"instrument":1,"program":32,"isDrum":false},{"pitch":45,"velocity":94,"startTime":101.217172,"endTime":101.5595625625,"instrument":1,"program":32,"isDrum":false},{"pitch":42,"velocity":94,"startTime":101.73891,"endTime":102.0813005625,"instrument":1,"program":32,"isDrum":false},{"pitch":38,"velocity":94,"startTime":102.260648,"endTime":102.6030385625,"instrument":1,"program":32,"isDrum":false},{"pitch":42,"velocity":94,"startTime":102.78238600000002,"endTime":103.12477656250002,"instrument":1,"program":32,"isDrum":false},{"pitch":45,"velocity":94,"startTime":103.30412400000002,"endTime":103.64651456250002,"instrument":1,"program":32,"isDrum":false},{"pitch":42,"velocity":94,"startTime":103.82586200000001,"endTime":104.16825256250002,"instrument":1,"program":32,"isDrum":false},{"pitch":31,"velocity":94,"startTime":104.34760000000001,"endTime":104.68999056250001,"instrument":1,"program":32,"isDrum":false},{"pitch":34,"velocity":94,"startTime":104.86933800000001,"endTime":105.21172856250001,"instrument":1,"program":32,"isDrum":false},{"pitch":38,"velocity":94,"startTime":105.39107600000001,"endTime":105.73346656250001,"instrument":1,"program":32,"isDrum":false},{"pitch":34,"velocity":94,"startTime":105.91281400000001,"endTime":106.25520456250001,"instrument":1,"program":32,"isDrum":false},{"pitch":31,"velocity":94,"startTime":106.43455200000001,"endTime":106.77694256250001,"instrument":1,"program":32,"isDrum":false},{"pitch":34,"velocity":94,"startTime":106.95629000000001,"endTime":107.29868056250001,"instrument":1,"program":32,"isDrum":false},{"pitch":38,"velocity":94,"startTime":107.47802800000001,"endTime":107.82041856250001,"instrument":1,"program":32,"isDrum":false},{"pitch":34,"velocity":94,"startTime":107.99976600000001,"endTime":108.34215656250001,"instrument":1,"program":32,"isDrum":false},{"pitch":38,"velocity":94,"startTime":108.52150400000001,"endTime":108.86389456250001,"instrument":1,"program":32,"isDrum":false},{"pitch":42,"velocity":94,"startTime":109.043242,"endTime":109.3856325625,"instrument":1,"program":32,"isDrum":false},{"pitch":45,"velocity":94,"startTime":109.56498,"endTime":109.9073705625,"instrument":1,"program":32,"isDrum":false},{"pitch":42,"velocity":94,"startTime":110.086718,"endTime":110.4291085625,"instrument":1,"program":32,"isDrum":false},{"pitch":38,"velocity":94,"startTime":110.60845600000002,"endTime":110.9508465625,"instrument":1,"program":32,"isDrum":false},{"pitch":42,"velocity":94,"startTime":111.13019400000002,"endTime":111.47258456250002,"instrument":1,"program":32,"isDrum":false},{"pitch":45,"velocity":94,"startTime":111.65193200000002,"endTime":111.99432256250002,"instrument":1,"program":32,"isDrum":false},{"pitch":42,"velocity":94,"startTime":112.17367000000002,"endTime":112.51606056250002,"instrument":1,"program":32,"isDrum":false},{"pitch":31,"velocity":94,"startTime":112.69540800000001,"endTime":113.03779856250002,"instrument":1,"program":32,"isDrum":false},{"pitch":34,"velocity":94,"startTime":113.21714600000001,"endTime":113.55953656250001,"instrument":1,"program":32,"isDrum":false},{"pitch":38,"velocity":94,"startTime":113.73888400000001,"endTime":114.08127456250001,"instrument":1,"program":32,"isDrum":false},{"pitch":34,"velocity":94,"startTime":114.26062200000001,"endTime":114.60301256250001,"instrument":1,"program":32,"isDrum":false},{"pitch":31,"velocity":94,"startTime":114.78236000000001,"endTime":115.12475056250001,"instrument":1,"program":32,"isDrum":false},{"pitch":34,"velocity":94,"startTime":115.30409800000001,"endTime":115.64648856250001,"instrument":1,"program":32,"isDrum":false},{"pitch":38,"velocity":94,"startTime":115.82583600000001,"endTime":116.16822656250001,"instrument":1,"program":32,"isDrum":false},{"pitch":34,"velocity":94,"startTime":116.34757400000001,"endTime":116.68996456250001,"instrument":1,"program":32,"isDrum":false},{"pitch":36,"velocity":94,"startTime":116.86931200000001,"endTime":117.21170256250001,"instrument":1,"program":32,"isDrum":false},{"pitch":39,"velocity":94,"startTime":117.39105,"endTime":117.73344056250001,"instrument":1,"program":32,"isDrum":false},{"pitch":43,"velocity":94,"startTime":117.912788,"endTime":118.2551785625,"instrument":1,"program":32,"isDrum":false},{"pitch":39,"velocity":94,"startTime":118.434526,"endTime":118.7769165625,"instrument":1,"program":32,"isDrum":false},{"pitch":36,"velocity":94,"startTime":118.956264,"endTime":119.2986545625,"instrument":1,"program":32,"isDrum":false},{"pitch":39,"velocity":94,"startTime":119.47800200000002,"endTime":119.82039256250002,"instrument":1,"program":32,"isDrum":false},{"pitch":43,"velocity":94,"startTime":119.99974000000002,"endTime":120.34213056250002,"instrument":1,"program":32,"isDrum":false},{"pitch":39,"velocity":94,"startTime":120.52147800000002,"endTime":120.86386856250002,"instrument":1,"program":32,"isDrum":false},{"pitch":31,"velocity":94,"startTime":121.04321600000002,"endTime":121.38560656250002,"instrument":1,"program":32,"isDrum":false},{"pitch":34,"velocity":94,"startTime":121.56495400000001,"endTime":121.90734456250001,"instrument":1,"program":32,"isDrum":false},{"pitch":38,"velocity":94,"startTime":122.08669200000001,"endTime":122.42908256250001,"instrument":1,"program":32,"isDrum":false},{"pitch":34,"velocity":94,"startTime":122.60843000000001,"endTime":122.95082056250001,"instrument":1,"program":32,"isDrum":false},{"pitch":31,"velocity":94,"startTime":123.13016800000001,"endTime":123.47255856250001,"instrument":1,"program":32,"isDrum":false},{"pitch":34,"velocity":94,"startTime":123.65190600000001,"endTime":123.99429656250001,"instrument":1,"program":32,"isDrum":false},{"pitch":38,"velocity":94,"startTime":124.17364400000001,"endTime":124.51603456250001,"instrument":1,"program":32,"isDrum":false},{"pitch":34,"velocity":94,"startTime":124.69538200000001,"endTime":125.03777256250001,"instrument":1,"program":32,"isDrum":false},{"pitch":38,"velocity":94,"startTime":125.21712000000001,"endTime":125.55951056250001,"instrument":1,"program":32,"isDrum":false},{"pitch":42,"velocity":94,"startTime":125.73885800000001,"endTime":126.08124856250001,"instrument":1,"program":32,"isDrum":false},{"pitch":45,"velocity":94,"startTime":126.26059600000002,"endTime":126.6029865625,"instrument":1,"program":32,"isDrum":false},{"pitch":42,"velocity":94,"startTime":126.78233400000002,"endTime":127.1247245625,"instrument":1,"program":32,"isDrum":false},{"pitch":38,"velocity":94,"startTime":127.30407200000002,"endTime":127.6464625625,"instrument":1,"program":32,"isDrum":false},{"pitch":42,"velocity":94,"startTime":127.82581000000002,"endTime":128.1682005625,"instrument":1,"program":32,"isDrum":false},{"pitch":45,"velocity":94,"startTime":128.34754800000002,"endTime":128.6899385625,"instrument":1,"program":32,"isDrum":false},{"pitch":42,"velocity":94,"startTime":128.86928600000002,"endTime":129.2116765625,"instrument":1,"program":32,"isDrum":false},{"pitch":43,"velocity":94,"startTime":129.39102400000002,"endTime":129.7334145625,"instrument":1,"program":32,"isDrum":false},{"pitch":38,"velocity":94,"startTime":131.999714,"endTime":132.34210456250003,"instrument":1,"program":32,"isDrum":false},{"pitch":43,"velocity":94,"startTime":132.521452,"endTime":132.86384256250003,"instrument":1,"program":32,"isDrum":false},{"pitch":43,"velocity":94,"startTime":133.564928,"endTime":133.71710158333335,"instrument":1,"program":32,"isDrum":false},{"pitch":42,"velocity":94,"startTime":133.82579700000002,"endTime":134.02144875000002,"instrument":1,"program":32,"isDrum":false},{"pitch":43,"velocity":94,"startTime":134.086666,"endTime":134.249709125,"instrument":1,"program":32,"isDrum":false},{"pitch":45,"velocity":94,"startTime":134.34753500000002,"endTime":134.55405629166668,"instrument":1,"program":32,"isDrum":false},{"pitch":46,"velocity":94,"startTime":134.86927300000002,"endTime":135.32579375,"instrument":1,"program":32,"isDrum":false},{"pitch":45,"velocity":94,"startTime":135.39101100000002,"endTime":135.64101045833337,"instrument":1,"program":32,"isDrum":false},{"pitch":43,"velocity":94,"startTime":135.65188,"endTime":135.89100991666666,"instrument":1,"program":32,"isDrum":false},{"pitch":39,"velocity":94,"startTime":137.738832,"endTime":137.901875125,"instrument":1,"program":32,"isDrum":false},{"pitch":38,"velocity":94,"startTime":137.99970100000002,"endTime":138.15730935416667,"instrument":1,"program":32,"isDrum":false},{"pitch":39,"velocity":94,"startTime":138.26057,"endTime":138.39643927083335,"instrument":1,"program":32,"isDrum":false},{"pitch":41,"velocity":94,"startTime":138.52143900000002,"endTime":138.749699375,"instrument":1,"program":32,"isDrum":false},{"pitch":43,"velocity":94,"startTime":139.04317700000001,"endTime":139.49969775000002,"instrument":1,"program":32,"isDrum":false},{"pitch":39,"velocity":94,"startTime":139.564915,"endTime":139.793175375,"instrument":1,"program":32,"isDrum":false},{"pitch":38,"velocity":94,"startTime":139.825784,"endTime":140.02143575000002,"instrument":1,"program":32,"isDrum":false},{"pitch":43,"velocity":94,"startTime":141.91273600000002,"endTime":142.08664866666666,"instrument":1,"program":32,"isDrum":false},{"pitch":42,"velocity":94,"startTime":142.173605,"endTime":142.35838720833337,"instrument":1,"program":32,"isDrum":false},{"pitch":43,"velocity":94,"startTime":142.43447400000002,"endTime":142.59751712500002,"instrument":1,"program":32,"isDrum":false},{"pitch":45,"velocity":94,"startTime":142.695343,"endTime":142.94534245833336,"instrument":1,"program":32,"isDrum":false},{"pitch":46,"velocity":94,"startTime":143.217081,"endTime":143.65186266666666,"instrument":1,"program":32,"isDrum":false},{"pitch":45,"velocity":94,"startTime":143.738819,"endTime":143.95620983333336,"instrument":1,"program":32,"isDrum":false},{"pitch":43,"velocity":94,"startTime":143.99968800000002,"endTime":144.14099204166666,"instrument":1,"program":32,"isDrum":false},{"pitch":39,"velocity":94,"startTime":146.08664000000002,"endTime":146.22794404166666,"instrument":1,"program":32,"isDrum":false},{"pitch":38,"velocity":94,"startTime":146.347509,"endTime":146.49968258333337,"instrument":1,"program":32,"isDrum":false},{"pitch":39,"velocity":94,"startTime":146.60837800000002,"endTime":146.73881250000002,"instrument":1,"program":32,"isDrum":false},{"pitch":41,"velocity":94,"startTime":146.869247,"endTime":147.11924645833335,"instrument":1,"program":32,"isDrum":false},{"pitch":43,"velocity":94,"startTime":147.390985,"endTime":147.84207097916666,"instrument":1,"program":32,"isDrum":false},{"pitch":39,"velocity":94,"startTime":147.912723,"endTime":148.10837475000002,"instrument":1,"program":32,"isDrum":false},{"pitch":38,"velocity":94,"startTime":148.173592,"endTime":148.46706962500002,"instrument":1,"program":32,"isDrum":false},{"pitch":43,"velocity":94,"startTime":150.260544,"endTime":150.59749979166668,"instrument":1,"program":32,"isDrum":false},{"pitch":38,"velocity":94,"startTime":152.347496,"endTime":152.72792995833336,"instrument":1,"program":32,"isDrum":false},{"pitch":38,"velocity":94,"startTime":153.390972,"endTime":153.78227550000003,"instrument":1,"program":32,"isDrum":false},{"pitch":38,"velocity":94,"startTime":154.434448,"endTime":154.82575150000002,"instrument":1,"program":32,"isDrum":false},{"pitch":38,"velocity":94,"startTime":155.477924,"endTime":155.86922750000002,"instrument":1,"program":32,"isDrum":false},{"pitch":43,"velocity":94,"startTime":156.52140000000003,"endTime":156.91270350000002,"instrument":1,"program":32,"isDrum":false},{"pitch":43,"velocity":94,"startTime":157.56487600000003,"endTime":157.95617950000002,"instrument":1,"program":32,"isDrum":false},{"pitch":43,"velocity":94,"startTime":158.60835200000002,"endTime":158.99965550000002,"instrument":1,"program":32,"isDrum":false},{"pitch":43,"velocity":94,"startTime":159.65182800000002,"endTime":160.04313150000002,"instrument":1,"program":32,"isDrum":false},{"pitch":38,"velocity":94,"startTime":160.69530400000002,"endTime":161.0866075,"instrument":1,"program":32,"isDrum":false},{"pitch":38,"velocity":94,"startTime":161.73878000000002,"endTime":162.1300835,"instrument":1,"program":32,"isDrum":false},{"pitch":38,"velocity":94,"startTime":162.78225600000002,"endTime":163.1735595,"instrument":1,"program":32,"isDrum":false},{"pitch":38,"velocity":94,"startTime":163.82573200000002,"endTime":164.2170355,"instrument":1,"program":32,"isDrum":false},{"pitch":43,"velocity":94,"startTime":164.86920800000001,"endTime":165.15181608333336,"instrument":1,"program":32,"isDrum":false},{"pitch":38,"velocity":94,"startTime":165.390946,"endTime":165.7822495,"instrument":1,"program":32,"isDrum":false},{"pitch":43,"velocity":94,"startTime":165.912684,"endTime":166.21703116666666,"instrument":1,"program":32,"isDrum":false},{"pitch":38,"velocity":94,"startTime":166.95616,"endTime":167.29855056250003,"instrument":1,"program":32,"isDrum":false},{"pitch":42,"velocity":94,"startTime":167.477898,"endTime":167.82028856250002,"instrument":1,"program":32,"isDrum":false},{"pitch":45,"velocity":94,"startTime":167.999636,"endTime":168.34202656250002,"instrument":1,"program":32,"isDrum":false},{"pitch":42,"velocity":94,"startTime":168.521374,"endTime":168.86376456250002,"instrument":1,"program":32,"isDrum":false},{"pitch":38,"velocity":94,"startTime":169.043112,"endTime":169.38550256250002,"instrument":1,"program":32,"isDrum":false},{"pitch":42,"velocity":94,"startTime":169.56485,"endTime":169.90724056250002,"instrument":1,"program":32,"isDrum":false},{"pitch":45,"velocity":94,"startTime":170.086588,"endTime":170.42897856250002,"instrument":1,"program":32,"isDrum":false},{"pitch":42,"velocity":94,"startTime":170.608326,"endTime":170.95071656250002,"instrument":1,"program":32,"isDrum":false},{"pitch":31,"velocity":94,"startTime":171.130064,"endTime":171.47245456250002,"instrument":1,"program":32,"isDrum":false},{"pitch":34,"velocity":94,"startTime":171.651802,"endTime":171.99419256250002,"instrument":1,"program":32,"isDrum":false},{"pitch":38,"velocity":94,"startTime":172.17354,"endTime":172.51593056250002,"instrument":1,"program":32,"isDrum":false},{"pitch":34,"velocity":94,"startTime":172.695278,"endTime":173.03766856250002,"instrument":1,"program":32,"isDrum":false},{"pitch":31,"velocity":94,"startTime":173.217016,"endTime":173.55940656250002,"instrument":1,"program":32,"isDrum":false},{"pitch":34,"velocity":94,"startTime":173.73875400000003,"endTime":174.08114456250001,"instrument":1,"program":32,"isDrum":false},{"pitch":38,"velocity":94,"startTime":174.26049200000003,"endTime":174.6028825625,"instrument":1,"program":32,"isDrum":false},{"pitch":34,"velocity":94,"startTime":174.78223000000003,"endTime":175.1246205625,"instrument":1,"program":32,"isDrum":false},{"pitch":38,"velocity":94,"startTime":175.30396800000003,"endTime":175.6463585625,"instrument":1,"program":32,"isDrum":false},{"pitch":42,"velocity":94,"startTime":175.82570600000003,"endTime":176.1680965625,"instrument":1,"program":32,"isDrum":false},{"pitch":45,"velocity":94,"startTime":176.34744400000002,"endTime":176.6898345625,"instrument":1,"program":32,"isDrum":false},{"pitch":42,"velocity":94,"startTime":176.86918200000002,"endTime":177.2115725625,"instrument":1,"program":32,"isDrum":false},{"pitch":38,"velocity":94,"startTime":177.39092000000002,"endTime":177.7333105625,"instrument":1,"program":32,"isDrum":false},{"pitch":42,"velocity":94,"startTime":177.91265800000002,"endTime":178.2550485625,"instrument":1,"program":32,"isDrum":false},{"pitch":45,"velocity":94,"startTime":178.43439600000002,"endTime":178.7767865625,"instrument":1,"program":32,"isDrum":false},{"pitch":42,"velocity":94,"startTime":178.95613400000002,"endTime":179.2985245625,"instrument":1,"program":32,"isDrum":false},{"pitch":31,"velocity":94,"startTime":179.47787200000002,"endTime":179.8202625625,"instrument":1,"program":32,"isDrum":false},{"pitch":34,"velocity":94,"startTime":179.99961000000002,"endTime":180.3420005625,"instrument":1,"program":32,"isDrum":false},{"pitch":38,"velocity":94,"startTime":180.52134800000002,"endTime":180.8637385625,"instrument":1,"program":32,"isDrum":false},{"pitch":34,"velocity":94,"startTime":181.04308600000002,"endTime":181.3854765625,"instrument":1,"program":32,"isDrum":false},{"pitch":31,"velocity":94,"startTime":181.56482400000002,"endTime":181.9072145625,"instrument":1,"program":32,"isDrum":false},{"pitch":34,"velocity":94,"startTime":182.08656200000001,"endTime":182.42895256250003,"instrument":1,"program":32,"isDrum":false},{"pitch":38,"velocity":94,"startTime":182.6083,"endTime":182.95069056250003,"instrument":1,"program":32,"isDrum":false},{"pitch":34,"velocity":94,"startTime":183.130038,"endTime":183.47242856250003,"instrument":1,"program":32,"isDrum":false},{"pitch":36,"velocity":94,"startTime":183.651776,"endTime":183.99416656250003,"instrument":1,"program":32,"isDrum":false},{"pitch":39,"velocity":94,"startTime":184.173514,"endTime":184.51590456250003,"instrument":1,"program":32,"isDrum":false},{"pitch":43,"velocity":94,"startTime":184.695252,"endTime":185.03764256250003,"instrument":1,"program":32,"isDrum":false},{"pitch":39,"velocity":94,"startTime":185.21699,"endTime":185.55938056250002,"instrument":1,"program":32,"isDrum":false},{"pitch":36,"velocity":94,"startTime":185.738728,"endTime":186.08111856250002,"instrument":1,"program":32,"isDrum":false},{"pitch":39,"velocity":94,"startTime":186.260466,"endTime":186.60285656250002,"instrument":1,"program":32,"isDrum":false},{"pitch":43,"velocity":94,"startTime":186.782204,"endTime":187.12459456250002,"instrument":1,"program":32,"isDrum":false},{"pitch":39,"velocity":94,"startTime":187.303942,"endTime":187.64633256250002,"instrument":1,"program":32,"isDrum":false},{"pitch":31,"velocity":94,"startTime":187.82568,"endTime":188.16807056250002,"instrument":1,"program":32,"isDrum":false},{"pitch":34,"velocity":94,"startTime":188.347418,"endTime":188.68980856250002,"instrument":1,"program":32,"isDrum":false},{"pitch":38,"velocity":94,"startTime":188.869156,"endTime":189.21154656250002,"instrument":1,"program":32,"isDrum":false},{"pitch":34,"velocity":94,"startTime":189.390894,"endTime":189.73328456250002,"instrument":1,"program":32,"isDrum":false},{"pitch":31,"velocity":94,"startTime":189.91263200000003,"endTime":190.25502256250002,"instrument":1,"program":32,"isDrum":false},{"pitch":34,"velocity":94,"startTime":190.43437000000003,"endTime":190.77676056250002,"instrument":1,"program":32,"isDrum":false},{"pitch":38,"velocity":94,"startTime":190.95610800000003,"endTime":191.29849856250001,"instrument":1,"program":32,"isDrum":false},{"pitch":34,"velocity":94,"startTime":191.47784600000003,"endTime":191.8202365625,"instrument":1,"program":32,"isDrum":false},{"pitch":38,"velocity":94,"startTime":191.99958400000003,"endTime":192.3419745625,"instrument":1,"program":32,"isDrum":false},{"pitch":42,"velocity":94,"startTime":192.52132200000003,"endTime":192.8637125625,"instrument":1,"program":32,"isDrum":false},{"pitch":45,"velocity":94,"startTime":193.04306000000003,"endTime":193.3854505625,"instrument":1,"program":32,"isDrum":false},{"pitch":42,"velocity":94,"startTime":193.56479800000002,"endTime":193.9071885625,"instrument":1,"program":32,"isDrum":false},{"pitch":38,"velocity":94,"startTime":194.08653600000002,"endTime":194.4289265625,"instrument":1,"program":32,"isDrum":false},{"pitch":42,"velocity":94,"startTime":194.60827400000002,"endTime":194.9506645625,"instrument":1,"program":32,"isDrum":false},{"pitch":45,"velocity":94,"startTime":195.13001200000002,"endTime":195.4724025625,"instrument":1,"program":32,"isDrum":false},{"pitch":42,"velocity":94,"startTime":195.65175000000002,"endTime":195.9941405625,"instrument":1,"program":32,"isDrum":false},{"pitch":43,"velocity":94,"startTime":196.17348800000002,"endTime":196.5158785625,"instrument":1,"program":32,"isDrum":false},{"pitch":38,"velocity":94,"startTime":198.78217800000002,"endTime":199.12456856250003,"instrument":1,"program":32,"isDrum":false},{"pitch":43,"velocity":94,"startTime":199.30391600000002,"endTime":199.64630656250003,"instrument":1,"program":32,"isDrum":false},{"pitch":62,"velocity":76,"startTime":0,"endTime":0.10869541666666649,"instrument":2,"program":24,"isDrum":false},{"pitch":66,"velocity":76,"startTime":0,"endTime":0.10869541666666649,"instrument":2,"program":24,"isDrum":false},{"pitch":69,"velocity":76,"startTime":0,"endTime":0.10869541666666649,"instrument":2,"program":24,"isDrum":false},{"pitch":72,"velocity":76,"startTime":0,"endTime":0.10869541666666649,"instrument":2,"program":24,"isDrum":false},{"pitch":62,"velocity":76,"startTime":0.521738,"endTime":0.6304334166666665,"instrument":2,"program":24,"isDrum":false},{"pitch":66,"velocity":76,"startTime":0.521738,"endTime":0.6304334166666665,"instrument":2,"program":24,"isDrum":false},{"pitch":69,"velocity":76,"startTime":0.521738,"endTime":0.6304334166666665,"instrument":2,"program":24,"isDrum":false},{"pitch":72,"velocity":76,"startTime":0.521738,"endTime":0.6304334166666665,"instrument":2,"program":24,"isDrum":false},{"pitch":62,"velocity":76,"startTime":1.043476,"endTime":1.1521714166666666,"instrument":2,"program":24,"isDrum":false},{"pitch":66,"velocity":76,"startTime":1.043476,"endTime":1.1521714166666666,"instrument":2,"program":24,"isDrum":false},{"pitch":69,"velocity":76,"startTime":1.043476,"endTime":1.1521714166666666,"instrument":2,"program":24,"isDrum":false},{"pitch":72,"velocity":76,"startTime":1.043476,"endTime":1.1521714166666666,"instrument":2,"program":24,"isDrum":false},{"pitch":62,"velocity":76,"startTime":1.565214,"endTime":1.6739094166666666,"instrument":2,"program":24,"isDrum":false},{"pitch":66,"velocity":76,"startTime":1.565214,"endTime":1.6739094166666666,"instrument":2,"program":24,"isDrum":false},{"pitch":69,"velocity":76,"startTime":1.565214,"endTime":1.6739094166666666,"instrument":2,"program":24,"isDrum":false},{"pitch":72,"velocity":76,"startTime":1.565214,"endTime":1.6739094166666666,"instrument":2,"program":24,"isDrum":false},{"pitch":62,"velocity":76,"startTime":1.8260830000000001,"endTime":2.1793431041666675,"instrument":2,"program":24,"isDrum":false},{"pitch":66,"velocity":76,"startTime":1.8260830000000001,"endTime":2.1793431041666675,"instrument":2,"program":24,"isDrum":false},{"pitch":69,"velocity":76,"startTime":1.8260830000000001,"endTime":2.1793431041666675,"instrument":2,"program":24,"isDrum":false},{"pitch":72,"velocity":76,"startTime":1.8260830000000001,"endTime":2.1793431041666675,"instrument":2,"program":24,"isDrum":false},{"pitch":62,"velocity":76,"startTime":2.60869,"endTime":2.7173854166666676,"instrument":2,"program":24,"isDrum":false},{"pitch":66,"velocity":76,"startTime":2.60869,"endTime":2.7173854166666676,"instrument":2,"program":24,"isDrum":false},{"pitch":69,"velocity":76,"startTime":2.60869,"endTime":2.7173854166666676,"instrument":2,"program":24,"isDrum":false},{"pitch":72,"velocity":76,"startTime":2.60869,"endTime":2.7173854166666676,"instrument":2,"program":24,"isDrum":false},{"pitch":62,"velocity":76,"startTime":3.130428,"endTime":3.2391234166666676,"instrument":2,"program":24,"isDrum":false},{"pitch":66,"velocity":76,"startTime":3.130428,"endTime":3.2391234166666676,"instrument":2,"program":24,"isDrum":false},{"pitch":69,"velocity":76,"startTime":3.130428,"endTime":3.2391234166666676,"instrument":2,"program":24,"isDrum":false},{"pitch":72,"velocity":76,"startTime":3.130428,"endTime":3.2391234166666676,"instrument":2,"program":24,"isDrum":false},{"pitch":62,"velocity":76,"startTime":3.6521660000000002,"endTime":3.7608614166666676,"instrument":2,"program":24,"isDrum":false},{"pitch":66,"velocity":76,"startTime":3.6521660000000002,"endTime":3.7608614166666676,"instrument":2,"program":24,"isDrum":false},{"pitch":69,"velocity":76,"startTime":3.6521660000000002,"endTime":3.7608614166666676,"instrument":2,"program":24,"isDrum":false},{"pitch":72,"velocity":76,"startTime":3.6521660000000002,"endTime":3.7608614166666676,"instrument":2,"program":24,"isDrum":false},{"pitch":62,"velocity":76,"startTime":3.9130350000000007,"endTime":4.266295104166668,"instrument":2,"program":24,"isDrum":false},{"pitch":67,"velocity":76,"startTime":3.9130350000000007,"endTime":4.266295104166668,"instrument":2,"program":24,"isDrum":false},{"pitch":70,"velocity":76,"startTime":3.9130350000000007,"endTime":4.266295104166668,"instrument":2,"program":24,"isDrum":false},{"pitch":62,"velocity":76,"startTime":4.695642,"endTime":4.804337416666668,"instrument":2,"program":24,"isDrum":false},{"pitch":67,"velocity":76,"startTime":4.695642,"endTime":4.804337416666668,"instrument":2,"program":24,"isDrum":false},{"pitch":70,"velocity":76,"startTime":4.695642,"endTime":4.804337416666668,"instrument":2,"program":24,"isDrum":false},{"pitch":62,"velocity":76,"startTime":5.21738,"endTime":5.326075416666668,"instrument":2,"program":24,"isDrum":false},{"pitch":67,"velocity":76,"startTime":5.21738,"endTime":5.326075416666668,"instrument":2,"program":24,"isDrum":false},{"pitch":70,"velocity":76,"startTime":5.21738,"endTime":5.326075416666668,"instrument":2,"program":24,"isDrum":false},{"pitch":62,"velocity":76,"startTime":5.739118,"endTime":5.847813416666668,"instrument":2,"program":24,"isDrum":false},{"pitch":67,"velocity":76,"startTime":5.739118,"endTime":5.847813416666668,"instrument":2,"program":24,"isDrum":false},{"pitch":70,"velocity":76,"startTime":5.739118,"endTime":5.847813416666668,"instrument":2,"program":24,"isDrum":false},{"pitch":62,"velocity":76,"startTime":5.999987000000001,"endTime":6.353247104166666,"instrument":2,"program":24,"isDrum":false},{"pitch":67,"velocity":76,"startTime":5.999987000000001,"endTime":6.353247104166666,"instrument":2,"program":24,"isDrum":false},{"pitch":70,"velocity":76,"startTime":5.999987000000001,"endTime":6.353247104166666,"instrument":2,"program":24,"isDrum":false},{"pitch":62,"velocity":76,"startTime":6.782594,"endTime":6.891289416666666,"instrument":2,"program":24,"isDrum":false},{"pitch":67,"velocity":76,"startTime":6.782594,"endTime":6.891289416666666,"instrument":2,"program":24,"isDrum":false},{"pitch":70,"velocity":76,"startTime":6.782594,"endTime":6.891289416666666,"instrument":2,"program":24,"isDrum":false},{"pitch":62,"velocity":76,"startTime":7.3043320000000005,"endTime":7.413027416666667,"instrument":2,"program":24,"isDrum":false},{"pitch":67,"velocity":76,"startTime":7.3043320000000005,"endTime":7.413027416666667,"instrument":2,"program":24,"isDrum":false},{"pitch":70,"velocity":76,"startTime":7.3043320000000005,"endTime":7.413027416666667,"instrument":2,"program":24,"isDrum":false},{"pitch":62,"velocity":76,"startTime":7.826070000000001,"endTime":7.934765416666666,"instrument":2,"program":24,"isDrum":false},{"pitch":67,"velocity":76,"startTime":7.826070000000001,"endTime":7.934765416666666,"instrument":2,"program":24,"isDrum":false},{"pitch":70,"velocity":76,"startTime":7.826070000000001,"endTime":7.934765416666666,"instrument":2,"program":24,"isDrum":false},{"pitch":62,"velocity":76,"startTime":8.086939000000001,"endTime":8.440199104166666,"instrument":2,"program":24,"isDrum":false},{"pitch":66,"velocity":76,"startTime":8.086939000000001,"endTime":8.440199104166666,"instrument":2,"program":24,"isDrum":false},{"pitch":69,"velocity":76,"startTime":8.086939000000001,"endTime":8.440199104166666,"instrument":2,"program":24,"isDrum":false},{"pitch":72,"velocity":76,"startTime":8.086939000000001,"endTime":8.440199104166666,"instrument":2,"program":24,"isDrum":false},{"pitch":62,"velocity":76,"startTime":8.869546,"endTime":8.978241416666666,"instrument":2,"program":24,"isDrum":false},{"pitch":66,"velocity":76,"startTime":8.869546,"endTime":8.978241416666666,"instrument":2,"program":24,"isDrum":false},{"pitch":69,"velocity":76,"startTime":8.869546,"endTime":8.978241416666666,"instrument":2,"program":24,"isDrum":false},{"pitch":72,"velocity":76,"startTime":8.869546,"endTime":8.978241416666666,"instrument":2,"program":24,"isDrum":false},{"pitch":62,"velocity":76,"startTime":9.391284,"endTime":9.499979416666667,"instrument":2,"program":24,"isDrum":false},{"pitch":66,"velocity":76,"startTime":9.391284,"endTime":9.499979416666667,"instrument":2,"program":24,"isDrum":false},{"pitch":69,"velocity":76,"startTime":9.391284,"endTime":9.499979416666667,"instrument":2,"program":24,"isDrum":false},{"pitch":72,"velocity":76,"startTime":9.391284,"endTime":9.499979416666667,"instrument":2,"program":24,"isDrum":false},{"pitch":62,"velocity":76,"startTime":9.913022000000002,"endTime":10.021717416666666,"instrument":2,"program":24,"isDrum":false},{"pitch":66,"velocity":76,"startTime":9.913022000000002,"endTime":10.021717416666666,"instrument":2,"program":24,"isDrum":false},{"pitch":69,"velocity":76,"startTime":9.913022000000002,"endTime":10.021717416666666,"instrument":2,"program":24,"isDrum":false},{"pitch":72,"velocity":76,"startTime":9.913022000000002,"endTime":10.021717416666666,"instrument":2,"program":24,"isDrum":false},{"pitch":62,"velocity":76,"startTime":10.173891000000001,"endTime":10.527151104166666,"instrument":2,"program":24,"isDrum":false},{"pitch":66,"velocity":76,"startTime":10.173891000000001,"endTime":10.527151104166666,"instrument":2,"program":24,"isDrum":false},{"pitch":69,"velocity":76,"startTime":10.173891000000001,"endTime":10.527151104166666,"instrument":2,"program":24,"isDrum":false},{"pitch":72,"velocity":76,"startTime":10.173891000000001,"endTime":10.527151104166666,"instrument":2,"program":24,"isDrum":false},{"pitch":62,"velocity":76,"startTime":10.956498,"endTime":11.065193416666666,"instrument":2,"program":24,"isDrum":false},{"pitch":66,"velocity":76,"startTime":10.956498,"endTime":11.065193416666666,"instrument":2,"program":24,"isDrum":false},{"pitch":69,"velocity":76,"startTime":10.956498,"endTime":11.065193416666666,"instrument":2,"program":24,"isDrum":false},{"pitch":72,"velocity":76,"startTime":10.956498,"endTime":11.065193416666666,"instrument":2,"program":24,"isDrum":false},{"pitch":62,"velocity":76,"startTime":11.478236,"endTime":11.586931416666667,"instrument":2,"program":24,"isDrum":false},{"pitch":66,"velocity":76,"startTime":11.478236,"endTime":11.586931416666667,"instrument":2,"program":24,"isDrum":false},{"pitch":69,"velocity":76,"startTime":11.478236,"endTime":11.586931416666667,"instrument":2,"program":24,"isDrum":false},{"pitch":72,"velocity":76,"startTime":11.478236,"endTime":11.586931416666667,"instrument":2,"program":24,"isDrum":false},{"pitch":62,"velocity":76,"startTime":11.999974000000002,"endTime":12.108669416666666,"instrument":2,"program":24,"isDrum":false},{"pitch":66,"velocity":76,"startTime":11.999974000000002,"endTime":12.108669416666666,"instrument":2,"program":24,"isDrum":false},{"pitch":69,"velocity":76,"startTime":11.999974000000002,"endTime":12.108669416666666,"instrument":2,"program":24,"isDrum":false},{"pitch":72,"velocity":76,"startTime":11.999974000000002,"endTime":12.108669416666666,"instrument":2,"program":24,"isDrum":false},{"pitch":62,"velocity":76,"startTime":12.260843000000001,"endTime":12.614103104166666,"instrument":2,"program":24,"isDrum":false},{"pitch":67,"velocity":76,"startTime":12.260843000000001,"endTime":12.614103104166666,"instrument":2,"program":24,"isDrum":false},{"pitch":70,"velocity":76,"startTime":12.260843000000001,"endTime":12.614103104166666,"instrument":2,"program":24,"isDrum":false},{"pitch":62,"velocity":76,"startTime":13.04345,"endTime":13.152145416666666,"instrument":2,"program":24,"isDrum":false},{"pitch":67,"velocity":76,"startTime":13.04345,"endTime":13.152145416666666,"instrument":2,"program":24,"isDrum":false},{"pitch":70,"velocity":76,"startTime":13.04345,"endTime":13.152145416666666,"instrument":2,"program":24,"isDrum":false},{"pitch":62,"velocity":76,"startTime":13.565188000000001,"endTime":13.673883416666667,"instrument":2,"program":24,"isDrum":false},{"pitch":67,"velocity":76,"startTime":13.565188000000001,"endTime":13.673883416666667,"instrument":2,"program":24,"isDrum":false},{"pitch":70,"velocity":76,"startTime":13.565188000000001,"endTime":13.673883416666667,"instrument":2,"program":24,"isDrum":false},{"pitch":62,"velocity":76,"startTime":14.086926000000002,"endTime":14.195621416666668,"instrument":2,"program":24,"isDrum":false},{"pitch":67,"velocity":76,"startTime":14.086926000000002,"endTime":14.195621416666668,"instrument":2,"program":24,"isDrum":false},{"pitch":70,"velocity":76,"startTime":14.086926000000002,"endTime":14.195621416666668,"instrument":2,"program":24,"isDrum":false},{"pitch":62,"velocity":76,"startTime":14.347795000000001,"endTime":14.70105510416667,"instrument":2,"program":24,"isDrum":false},{"pitch":67,"velocity":76,"startTime":14.347795000000001,"endTime":14.70105510416667,"instrument":2,"program":24,"isDrum":false},{"pitch":70,"velocity":76,"startTime":14.347795000000001,"endTime":14.70105510416667,"instrument":2,"program":24,"isDrum":false},{"pitch":62,"velocity":76,"startTime":15.130402,"endTime":15.23909741666667,"instrument":2,"program":24,"isDrum":false},{"pitch":67,"velocity":76,"startTime":15.130402,"endTime":15.23909741666667,"instrument":2,"program":24,"isDrum":false},{"pitch":70,"velocity":76,"startTime":15.130402,"endTime":15.23909741666667,"instrument":2,"program":24,"isDrum":false},{"pitch":62,"velocity":76,"startTime":15.65214,"endTime":15.76083541666667,"instrument":2,"program":24,"isDrum":false},{"pitch":67,"velocity":76,"startTime":15.65214,"endTime":15.76083541666667,"instrument":2,"program":24,"isDrum":false},{"pitch":70,"velocity":76,"startTime":15.65214,"endTime":15.76083541666667,"instrument":2,"program":24,"isDrum":false},{"pitch":62,"velocity":76,"startTime":16.173878000000002,"endTime":16.28257341666667,"instrument":2,"program":24,"isDrum":false},{"pitch":67,"velocity":76,"startTime":16.173878000000002,"endTime":16.28257341666667,"instrument":2,"program":24,"isDrum":false},{"pitch":70,"velocity":76,"startTime":16.173878000000002,"endTime":16.28257341666667,"instrument":2,"program":24,"isDrum":false},{"pitch":63,"velocity":76,"startTime":16.434747,"endTime":16.78800710416667,"instrument":2,"program":24,"isDrum":false},{"pitch":67,"velocity":76,"startTime":16.434747,"endTime":16.78800710416667,"instrument":2,"program":24,"isDrum":false},{"pitch":72,"velocity":76,"startTime":16.434747,"endTime":16.78800710416667,"instrument":2,"program":24,"isDrum":false},{"pitch":63,"velocity":76,"startTime":17.217354,"endTime":17.32604941666667,"instrument":2,"program":24,"isDrum":false},{"pitch":67,"velocity":76,"startTime":17.217354,"endTime":17.32604941666667,"instrument":2,"program":24,"isDrum":false},{"pitch":72,"velocity":76,"startTime":17.217354,"endTime":17.32604941666667,"instrument":2,"program":24,"isDrum":false},{"pitch":63,"velocity":76,"startTime":17.739092000000003,"endTime":17.84778741666667,"instrument":2,"program":24,"isDrum":false},{"pitch":67,"velocity":76,"startTime":17.739092000000003,"endTime":17.84778741666667,"instrument":2,"program":24,"isDrum":false},{"pitch":72,"velocity":76,"startTime":17.739092000000003,"endTime":17.84778741666667,"instrument":2,"program":24,"isDrum":false},{"pitch":63,"velocity":76,"startTime":18.260830000000002,"endTime":18.36952541666667,"instrument":2,"program":24,"isDrum":false},{"pitch":67,"velocity":76,"startTime":18.260830000000002,"endTime":18.36952541666667,"instrument":2,"program":24,"isDrum":false},{"pitch":72,"velocity":76,"startTime":18.260830000000002,"endTime":18.36952541666667,"instrument":2,"program":24,"isDrum":false},{"pitch":63,"velocity":76,"startTime":18.521699,"endTime":18.87495910416667,"instrument":2,"program":24,"isDrum":false},{"pitch":67,"velocity":76,"startTime":18.521699,"endTime":18.87495910416667,"instrument":2,"program":24,"isDrum":false},{"pitch":72,"velocity":76,"startTime":18.521699,"endTime":18.87495910416667,"instrument":2,"program":24,"isDrum":false},{"pitch":63,"velocity":76,"startTime":19.304306,"endTime":19.41300141666667,"instrument":2,"program":24,"isDrum":false},{"pitch":67,"velocity":76,"startTime":19.304306,"endTime":19.41300141666667,"instrument":2,"program":24,"isDrum":false},{"pitch":72,"velocity":76,"startTime":19.304306,"endTime":19.41300141666667,"instrument":2,"program":24,"isDrum":false},{"pitch":63,"velocity":76,"startTime":19.826044,"endTime":19.93473941666667,"instrument":2,"program":24,"isDrum":false},{"pitch":67,"velocity":76,"startTime":19.826044,"endTime":19.93473941666667,"instrument":2,"program":24,"isDrum":false},{"pitch":72,"velocity":76,"startTime":19.826044,"endTime":19.93473941666667,"instrument":2,"program":24,"isDrum":false},{"pitch":63,"velocity":76,"startTime":20.347782000000002,"endTime":20.45647741666667,"instrument":2,"program":24,"isDrum":false},{"pitch":67,"velocity":76,"startTime":20.347782000000002,"endTime":20.45647741666667,"instrument":2,"program":24,"isDrum":false},{"pitch":72,"velocity":76,"startTime":20.347782000000002,"endTime":20.45647741666667,"instrument":2,"program":24,"isDrum":false},{"pitch":62,"velocity":76,"startTime":20.608651000000002,"endTime":20.96191110416667,"instrument":2,"program":24,"isDrum":false},{"pitch":67,"velocity":76,"startTime":20.608651000000002,"endTime":20.96191110416667,"instrument":2,"program":24,"isDrum":false},{"pitch":70,"velocity":76,"startTime":20.608651000000002,"endTime":20.96191110416667,"instrument":2,"program":24,"isDrum":false},{"pitch":62,"velocity":76,"startTime":21.391258,"endTime":21.49995341666667,"instrument":2,"program":24,"isDrum":false},{"pitch":67,"velocity":76,"startTime":21.391258,"endTime":21.49995341666667,"instrument":2,"program":24,"isDrum":false},{"pitch":70,"velocity":76,"startTime":21.391258,"endTime":21.49995341666667,"instrument":2,"program":24,"isDrum":false},{"pitch":62,"velocity":76,"startTime":21.912996000000003,"endTime":22.02169141666667,"instrument":2,"program":24,"isDrum":false},{"pitch":67,"velocity":76,"startTime":21.912996000000003,"endTime":22.02169141666667,"instrument":2,"program":24,"isDrum":false},{"pitch":70,"velocity":76,"startTime":21.912996000000003,"endTime":22.02169141666667,"instrument":2,"program":24,"isDrum":false},{"pitch":62,"velocity":76,"startTime":22.434734000000002,"endTime":22.54342941666667,"instrument":2,"program":24,"isDrum":false},{"pitch":67,"velocity":76,"startTime":22.434734000000002,"endTime":22.54342941666667,"instrument":2,"program":24,"isDrum":false},{"pitch":70,"velocity":76,"startTime":22.434734000000002,"endTime":22.54342941666667,"instrument":2,"program":24,"isDrum":false},{"pitch":62,"velocity":76,"startTime":22.695603000000002,"endTime":23.04886310416667,"instrument":2,"program":24,"isDrum":false},{"pitch":67,"velocity":76,"startTime":22.695603000000002,"endTime":23.04886310416667,"instrument":2,"program":24,"isDrum":false},{"pitch":70,"velocity":76,"startTime":22.695603000000002,"endTime":23.04886310416667,"instrument":2,"program":24,"isDrum":false},{"pitch":62,"velocity":76,"startTime":23.47821,"endTime":23.58690541666667,"instrument":2,"program":24,"isDrum":false},{"pitch":67,"velocity":76,"startTime":23.47821,"endTime":23.58690541666667,"instrument":2,"program":24,"isDrum":false},{"pitch":70,"velocity":76,"startTime":23.47821,"endTime":23.58690541666667,"instrument":2,"program":24,"isDrum":false},{"pitch":62,"velocity":76,"startTime":23.999948,"endTime":24.10864341666667,"instrument":2,"program":24,"isDrum":false},{"pitch":67,"velocity":76,"startTime":23.999948,"endTime":24.10864341666667,"instrument":2,"program":24,"isDrum":false},{"pitch":70,"velocity":76,"startTime":23.999948,"endTime":24.10864341666667,"instrument":2,"program":24,"isDrum":false},{"pitch":62,"velocity":76,"startTime":24.521686000000003,"endTime":24.63038141666667,"instrument":2,"program":24,"isDrum":false},{"pitch":67,"velocity":76,"startTime":24.521686000000003,"endTime":24.63038141666667,"instrument":2,"program":24,"isDrum":false},{"pitch":70,"velocity":76,"startTime":24.521686000000003,"endTime":24.63038141666667,"instrument":2,"program":24,"isDrum":false},{"pitch":62,"velocity":76,"startTime":24.782555000000002,"endTime":25.13581510416667,"instrument":2,"program":24,"isDrum":false},{"pitch":66,"velocity":76,"startTime":24.782555000000002,"endTime":25.13581510416667,"instrument":2,"program":24,"isDrum":false},{"pitch":69,"velocity":76,"startTime":24.782555000000002,"endTime":25.13581510416667,"instrument":2,"program":24,"isDrum":false},{"pitch":72,"velocity":76,"startTime":24.782555000000002,"endTime":25.13581510416667,"instrument":2,"program":24,"isDrum":false},{"pitch":62,"velocity":76,"startTime":25.565162,"endTime":25.67385741666667,"instrument":2,"program":24,"isDrum":false},{"pitch":66,"velocity":76,"startTime":25.565162,"endTime":25.67385741666667,"instrument":2,"program":24,"isDrum":false},{"pitch":69,"velocity":76,"startTime":25.565162,"endTime":25.67385741666667,"instrument":2,"program":24,"isDrum":false},{"pitch":72,"velocity":76,"startTime":25.565162,"endTime":25.67385741666667,"instrument":2,"program":24,"isDrum":false},{"pitch":62,"velocity":76,"startTime":26.086900000000004,"endTime":26.19559541666667,"instrument":2,"program":24,"isDrum":false},{"pitch":66,"velocity":76,"startTime":26.086900000000004,"endTime":26.19559541666667,"instrument":2,"program":24,"isDrum":false},{"pitch":69,"velocity":76,"startTime":26.086900000000004,"endTime":26.19559541666667,"instrument":2,"program":24,"isDrum":false},{"pitch":72,"velocity":76,"startTime":26.086900000000004,"endTime":26.19559541666667,"instrument":2,"program":24,"isDrum":false},{"pitch":62,"velocity":76,"startTime":26.608638000000003,"endTime":26.71733341666667,"instrument":2,"program":24,"isDrum":false},{"pitch":66,"velocity":76,"startTime":26.608638000000003,"endTime":26.71733341666667,"instrument":2,"program":24,"isDrum":false},{"pitch":69,"velocity":76,"startTime":26.608638000000003,"endTime":26.71733341666667,"instrument":2,"program":24,"isDrum":false},{"pitch":72,"velocity":76,"startTime":26.608638000000003,"endTime":26.71733341666667,"instrument":2,"program":24,"isDrum":false},{"pitch":62,"velocity":76,"startTime":26.869507000000002,"endTime":27.22276710416667,"instrument":2,"program":24,"isDrum":false},{"pitch":66,"velocity":76,"startTime":26.869507000000002,"endTime":27.22276710416667,"instrument":2,"program":24,"isDrum":false},{"pitch":69,"velocity":76,"startTime":26.869507000000002,"endTime":27.22276710416667,"instrument":2,"program":24,"isDrum":false},{"pitch":72,"velocity":76,"startTime":26.869507000000002,"endTime":27.22276710416667,"instrument":2,"program":24,"isDrum":false},{"pitch":62,"velocity":76,"startTime":27.652114,"endTime":27.76080941666667,"instrument":2,"program":24,"isDrum":false},{"pitch":66,"velocity":76,"startTime":27.652114,"endTime":27.76080941666667,"instrument":2,"program":24,"isDrum":false},{"pitch":69,"velocity":76,"startTime":27.652114,"endTime":27.76080941666667,"instrument":2,"program":24,"isDrum":false},{"pitch":72,"velocity":76,"startTime":27.652114,"endTime":27.76080941666667,"instrument":2,"program":24,"isDrum":false},{"pitch":62,"velocity":76,"startTime":28.173852,"endTime":28.28254741666667,"instrument":2,"program":24,"isDrum":false},{"pitch":66,"velocity":76,"startTime":28.173852,"endTime":28.28254741666667,"instrument":2,"program":24,"isDrum":false},{"pitch":69,"velocity":76,"startTime":28.173852,"endTime":28.28254741666667,"instrument":2,"program":24,"isDrum":false},{"pitch":72,"velocity":76,"startTime":28.173852,"endTime":28.28254741666667,"instrument":2,"program":24,"isDrum":false},{"pitch":62,"velocity":76,"startTime":28.695590000000003,"endTime":28.80428541666667,"instrument":2,"program":24,"isDrum":false},{"pitch":66,"velocity":76,"startTime":28.695590000000003,"endTime":28.80428541666667,"instrument":2,"program":24,"isDrum":false},{"pitch":69,"velocity":76,"startTime":28.695590000000003,"endTime":28.80428541666667,"instrument":2,"program":24,"isDrum":false},{"pitch":72,"velocity":76,"startTime":28.695590000000003,"endTime":28.80428541666667,"instrument":2,"program":24,"isDrum":false},{"pitch":62,"velocity":76,"startTime":28.956459000000002,"endTime":29.30971910416667,"instrument":2,"program":24,"isDrum":false},{"pitch":67,"velocity":76,"startTime":28.956459000000002,"endTime":29.30971910416667,"instrument":2,"program":24,"isDrum":false},{"pitch":70,"velocity":76,"startTime":28.956459000000002,"endTime":29.30971910416667,"instrument":2,"program":24,"isDrum":false},{"pitch":62,"velocity":76,"startTime":31.565149,"endTime":31.918409104166667,"instrument":2,"program":24,"isDrum":false},{"pitch":66,"velocity":76,"startTime":31.826018,"endTime":32.17927810416667,"instrument":2,"program":24,"isDrum":false},{"pitch":69,"velocity":76,"startTime":31.826018,"endTime":32.17927810416667,"instrument":2,"program":24,"isDrum":false},{"pitch":72,"velocity":76,"startTime":31.826018,"endTime":32.17927810416667,"instrument":2,"program":24,"isDrum":false},{"pitch":62,"velocity":76,"startTime":32.347756000000004,"endTime":32.45645141666667,"instrument":2,"program":24,"isDrum":false},{"pitch":67,"velocity":76,"startTime":32.347756000000004,"endTime":32.45645141666667,"instrument":2,"program":24,"isDrum":false},{"pitch":70,"velocity":76,"startTime":32.347756000000004,"endTime":32.45645141666667,"instrument":2,"program":24,"isDrum":false},{"pitch":62,"velocity":76,"startTime":33.391232,"endTime":33.499927416666665,"instrument":2,"program":24,"isDrum":false},{"pitch":66,"velocity":76,"startTime":33.391232,"endTime":33.499927416666665,"instrument":2,"program":24,"isDrum":false},{"pitch":69,"velocity":76,"startTime":33.391232,"endTime":33.499927416666665,"instrument":2,"program":24,"isDrum":false},{"pitch":72,"velocity":76,"startTime":33.391232,"endTime":33.499927416666665,"instrument":2,"program":24,"isDrum":false},{"pitch":62,"velocity":76,"startTime":33.91297,"endTime":34.021665416666664,"instrument":2,"program":24,"isDrum":false},{"pitch":66,"velocity":76,"startTime":33.91297,"endTime":34.021665416666664,"instrument":2,"program":24,"isDrum":false},{"pitch":69,"velocity":76,"startTime":33.91297,"endTime":34.021665416666664,"instrument":2,"program":24,"isDrum":false},{"pitch":72,"velocity":76,"startTime":33.91297,"endTime":34.021665416666664,"instrument":2,"program":24,"isDrum":false},{"pitch":62,"velocity":76,"startTime":34.434708,"endTime":34.54340341666666,"instrument":2,"program":24,"isDrum":false},{"pitch":66,"velocity":76,"startTime":34.434708,"endTime":34.54340341666666,"instrument":2,"program":24,"isDrum":false},{"pitch":69,"velocity":76,"startTime":34.434708,"endTime":34.54340341666666,"instrument":2,"program":24,"isDrum":false},{"pitch":72,"velocity":76,"startTime":34.434708,"endTime":34.54340341666666,"instrument":2,"program":24,"isDrum":false},{"pitch":62,"velocity":76,"startTime":34.956446,"endTime":35.06514141666666,"instrument":2,"program":24,"isDrum":false},{"pitch":66,"velocity":76,"startTime":34.956446,"endTime":35.06514141666666,"instrument":2,"program":24,"isDrum":false},{"pitch":69,"velocity":76,"startTime":34.956446,"endTime":35.06514141666666,"instrument":2,"program":24,"isDrum":false},{"pitch":72,"velocity":76,"startTime":34.956446,"endTime":35.06514141666666,"instrument":2,"program":24,"isDrum":false},{"pitch":62,"velocity":76,"startTime":35.217315,"endTime":35.570575104166664,"instrument":2,"program":24,"isDrum":false},{"pitch":66,"velocity":76,"startTime":35.217315,"endTime":35.570575104166664,"instrument":2,"program":24,"isDrum":false},{"pitch":69,"velocity":76,"startTime":35.217315,"endTime":35.570575104166664,"instrument":2,"program":24,"isDrum":false},{"pitch":72,"velocity":76,"startTime":35.217315,"endTime":35.570575104166664,"instrument":2,"program":24,"isDrum":false},{"pitch":62,"velocity":76,"startTime":35.999922,"endTime":36.10861741666666,"instrument":2,"program":24,"isDrum":false},{"pitch":66,"velocity":76,"startTime":35.999922,"endTime":36.10861741666666,"instrument":2,"program":24,"isDrum":false},{"pitch":69,"velocity":76,"startTime":35.999922,"endTime":36.10861741666666,"instrument":2,"program":24,"isDrum":false},{"pitch":72,"velocity":76,"startTime":35.999922,"endTime":36.10861741666666,"instrument":2,"program":24,"isDrum":false},{"pitch":62,"velocity":76,"startTime":36.52166,"endTime":36.63035541666666,"instrument":2,"program":24,"isDrum":false},{"pitch":66,"velocity":76,"startTime":36.52166,"endTime":36.63035541666666,"instrument":2,"program":24,"isDrum":false},{"pitch":69,"velocity":76,"startTime":36.52166,"endTime":36.63035541666666,"instrument":2,"program":24,"isDrum":false},{"pitch":72,"velocity":76,"startTime":36.52166,"endTime":36.63035541666666,"instrument":2,"program":24,"isDrum":false},{"pitch":62,"velocity":76,"startTime":37.043397999999996,"endTime":37.15209341666667,"instrument":2,"program":24,"isDrum":false},{"pitch":66,"velocity":76,"startTime":37.043397999999996,"endTime":37.15209341666667,"instrument":2,"program":24,"isDrum":false},{"pitch":69,"velocity":76,"startTime":37.043397999999996,"endTime":37.15209341666667,"instrument":2,"program":24,"isDrum":false},{"pitch":72,"velocity":76,"startTime":37.043397999999996,"endTime":37.15209341666667,"instrument":2,"program":24,"isDrum":false},{"pitch":62,"velocity":76,"startTime":37.304266999999996,"endTime":37.65752710416666,"instrument":2,"program":24,"isDrum":false},{"pitch":67,"velocity":76,"startTime":37.304266999999996,"endTime":37.65752710416666,"instrument":2,"program":24,"isDrum":false},{"pitch":70,"velocity":76,"startTime":37.304266999999996,"endTime":37.65752710416666,"instrument":2,"program":24,"isDrum":false},{"pitch":62,"velocity":76,"startTime":38.08687400000001,"endTime":38.19556941666667,"instrument":2,"program":24,"isDrum":false},{"pitch":67,"velocity":76,"startTime":38.08687400000001,"endTime":38.19556941666667,"instrument":2,"program":24,"isDrum":false},{"pitch":70,"velocity":76,"startTime":38.08687400000001,"endTime":38.19556941666667,"instrument":2,"program":24,"isDrum":false},{"pitch":62,"velocity":76,"startTime":38.60861200000001,"endTime":38.71730741666667,"instrument":2,"program":24,"isDrum":false},{"pitch":67,"velocity":76,"startTime":38.60861200000001,"endTime":38.71730741666667,"instrument":2,"program":24,"isDrum":false},{"pitch":70,"velocity":76,"startTime":38.60861200000001,"endTime":38.71730741666667,"instrument":2,"program":24,"isDrum":false},{"pitch":62,"velocity":76,"startTime":39.13035000000001,"endTime":39.23904541666667,"instrument":2,"program":24,"isDrum":false},{"pitch":67,"velocity":76,"startTime":39.13035000000001,"endTime":39.23904541666667,"instrument":2,"program":24,"isDrum":false},{"pitch":70,"velocity":76,"startTime":39.13035000000001,"endTime":39.23904541666667,"instrument":2,"program":24,"isDrum":false},{"pitch":62,"velocity":76,"startTime":39.39121900000001,"endTime":39.74447910416667,"instrument":2,"program":24,"isDrum":false},{"pitch":67,"velocity":76,"startTime":39.39121900000001,"endTime":39.74447910416667,"instrument":2,"program":24,"isDrum":false},{"pitch":70,"velocity":76,"startTime":39.39121900000001,"endTime":39.74447910416667,"instrument":2,"program":24,"isDrum":false},{"pitch":62,"velocity":76,"startTime":40.173826000000005,"endTime":40.28252141666667,"instrument":2,"program":24,"isDrum":false},{"pitch":67,"velocity":76,"startTime":40.173826000000005,"endTime":40.28252141666667,"instrument":2,"program":24,"isDrum":false},{"pitch":70,"velocity":76,"startTime":40.173826000000005,"endTime":40.28252141666667,"instrument":2,"program":24,"isDrum":false},{"pitch":62,"velocity":76,"startTime":40.695564000000005,"endTime":40.80425941666667,"instrument":2,"program":24,"isDrum":false},{"pitch":67,"velocity":76,"startTime":40.695564000000005,"endTime":40.80425941666667,"instrument":2,"program":24,"isDrum":false},{"pitch":70,"velocity":76,"startTime":40.695564000000005,"endTime":40.80425941666667,"instrument":2,"program":24,"isDrum":false},{"pitch":62,"velocity":76,"startTime":41.217302000000004,"endTime":41.32599741666667,"instrument":2,"program":24,"isDrum":false},{"pitch":67,"velocity":76,"startTime":41.217302000000004,"endTime":41.32599741666667,"instrument":2,"program":24,"isDrum":false},{"pitch":70,"velocity":76,"startTime":41.217302000000004,"endTime":41.32599741666667,"instrument":2,"program":24,"isDrum":false},{"pitch":62,"velocity":76,"startTime":41.478171,"endTime":41.83143110416667,"instrument":2,"program":24,"isDrum":false},{"pitch":66,"velocity":76,"startTime":41.478171,"endTime":41.83143110416667,"instrument":2,"program":24,"isDrum":false},{"pitch":69,"velocity":76,"startTime":41.478171,"endTime":41.83143110416667,"instrument":2,"program":24,"isDrum":false},{"pitch":72,"velocity":76,"startTime":41.478171,"endTime":41.83143110416667,"instrument":2,"program":24,"isDrum":false},{"pitch":62,"velocity":76,"startTime":42.260778,"endTime":42.369473416666665,"instrument":2,"program":24,"isDrum":false},{"pitch":66,"velocity":76,"startTime":42.260778,"endTime":42.369473416666665,"instrument":2,"program":24,"isDrum":false},{"pitch":69,"velocity":76,"startTime":42.260778,"endTime":42.369473416666665,"instrument":2,"program":24,"isDrum":false},{"pitch":72,"velocity":76,"startTime":42.260778,"endTime":42.369473416666665,"instrument":2,"program":24,"isDrum":false},{"pitch":62,"velocity":76,"startTime":42.782516,"endTime":42.891211416666664,"instrument":2,"program":24,"isDrum":false},{"pitch":66,"velocity":76,"startTime":42.782516,"endTime":42.891211416666664,"instrument":2,"program":24,"isDrum":false},{"pitch":69,"velocity":76,"startTime":42.782516,"endTime":42.891211416666664,"instrument":2,"program":24,"isDrum":false},{"pitch":72,"velocity":76,"startTime":42.782516,"endTime":42.891211416666664,"instrument":2,"program":24,"isDrum":false},{"pitch":62,"velocity":76,"startTime":43.304254,"endTime":43.41294941666666,"instrument":2,"program":24,"isDrum":false},{"pitch":66,"velocity":76,"startTime":43.304254,"endTime":43.41294941666666,"instrument":2,"program":24,"isDrum":false},{"pitch":69,"velocity":76,"startTime":43.304254,"endTime":43.41294941666666,"instrument":2,"program":24,"isDrum":false},{"pitch":72,"velocity":76,"startTime":43.304254,"endTime":43.41294941666666,"instrument":2,"program":24,"isDrum":false},{"pitch":62,"velocity":76,"startTime":43.565123,"endTime":43.918383104166665,"instrument":2,"program":24,"isDrum":false},{"pitch":66,"velocity":76,"startTime":43.565123,"endTime":43.918383104166665,"instrument":2,"program":24,"isDrum":false},{"pitch":69,"velocity":76,"startTime":43.565123,"endTime":43.918383104166665,"instrument":2,"program":24,"isDrum":false},{"pitch":72,"velocity":76,"startTime":43.565123,"endTime":43.918383104166665,"instrument":2,"program":24,"isDrum":false},{"pitch":62,"velocity":76,"startTime":44.34773,"endTime":44.45642541666666,"instrument":2,"program":24,"isDrum":false},{"pitch":66,"velocity":76,"startTime":44.34773,"endTime":44.45642541666666,"instrument":2,"program":24,"isDrum":false},{"pitch":69,"velocity":76,"startTime":44.34773,"endTime":44.45642541666666,"instrument":2,"program":24,"isDrum":false},{"pitch":72,"velocity":76,"startTime":44.34773,"endTime":44.45642541666666,"instrument":2,"program":24,"isDrum":false},{"pitch":62,"velocity":76,"startTime":44.869468,"endTime":44.97816341666666,"instrument":2,"program":24,"isDrum":false},{"pitch":66,"velocity":76,"startTime":44.869468,"endTime":44.97816341666666,"instrument":2,"program":24,"isDrum":false},{"pitch":69,"velocity":76,"startTime":44.869468,"endTime":44.97816341666666,"instrument":2,"program":24,"isDrum":false},{"pitch":72,"velocity":76,"startTime":44.869468,"endTime":44.97816341666666,"instrument":2,"program":24,"isDrum":false},{"pitch":62,"velocity":76,"startTime":45.391206,"endTime":45.499901416666674,"instrument":2,"program":24,"isDrum":false},{"pitch":66,"velocity":76,"startTime":45.391206,"endTime":45.499901416666674,"instrument":2,"program":24,"isDrum":false},{"pitch":69,"velocity":76,"startTime":45.391206,"endTime":45.499901416666674,"instrument":2,"program":24,"isDrum":false},{"pitch":72,"velocity":76,"startTime":45.391206,"endTime":45.499901416666674,"instrument":2,"program":24,"isDrum":false},{"pitch":62,"velocity":76,"startTime":45.652074999999996,"endTime":46.00533510416666,"instrument":2,"program":24,"isDrum":false},{"pitch":67,"velocity":76,"startTime":45.652074999999996,"endTime":46.00533510416666,"instrument":2,"program":24,"isDrum":false},{"pitch":70,"velocity":76,"startTime":45.652074999999996,"endTime":46.00533510416666,"instrument":2,"program":24,"isDrum":false},{"pitch":62,"velocity":76,"startTime":46.43468200000001,"endTime":46.54337741666667,"instrument":2,"program":24,"isDrum":false},{"pitch":67,"velocity":76,"startTime":46.43468200000001,"endTime":46.54337741666667,"instrument":2,"program":24,"isDrum":false},{"pitch":70,"velocity":76,"startTime":46.43468200000001,"endTime":46.54337741666667,"instrument":2,"program":24,"isDrum":false},{"pitch":62,"velocity":76,"startTime":46.95642000000001,"endTime":47.06511541666667,"instrument":2,"program":24,"isDrum":false},{"pitch":67,"velocity":76,"startTime":46.95642000000001,"endTime":47.06511541666667,"instrument":2,"program":24,"isDrum":false},{"pitch":70,"velocity":76,"startTime":46.95642000000001,"endTime":47.06511541666667,"instrument":2,"program":24,"isDrum":false},{"pitch":62,"velocity":76,"startTime":47.47815800000001,"endTime":47.58685341666667,"instrument":2,"program":24,"isDrum":false},{"pitch":67,"velocity":76,"startTime":47.47815800000001,"endTime":47.58685341666667,"instrument":2,"program":24,"isDrum":false},{"pitch":70,"velocity":76,"startTime":47.47815800000001,"endTime":47.58685341666667,"instrument":2,"program":24,"isDrum":false},{"pitch":62,"velocity":76,"startTime":47.73902700000001,"endTime":48.09228710416667,"instrument":2,"program":24,"isDrum":false},{"pitch":67,"velocity":76,"startTime":47.73902700000001,"endTime":48.09228710416667,"instrument":2,"program":24,"isDrum":false},{"pitch":70,"velocity":76,"startTime":47.73902700000001,"endTime":48.09228710416667,"instrument":2,"program":24,"isDrum":false},{"pitch":62,"velocity":76,"startTime":48.521634000000006,"endTime":48.63032941666667,"instrument":2,"program":24,"isDrum":false},{"pitch":67,"velocity":76,"startTime":48.521634000000006,"endTime":48.63032941666667,"instrument":2,"program":24,"isDrum":false},{"pitch":70,"velocity":76,"startTime":48.521634000000006,"endTime":48.63032941666667,"instrument":2,"program":24,"isDrum":false},{"pitch":62,"velocity":76,"startTime":49.043372000000005,"endTime":49.15206741666667,"instrument":2,"program":24,"isDrum":false},{"pitch":67,"velocity":76,"startTime":49.043372000000005,"endTime":49.15206741666667,"instrument":2,"program":24,"isDrum":false},{"pitch":70,"velocity":76,"startTime":49.043372000000005,"endTime":49.15206741666667,"instrument":2,"program":24,"isDrum":false},{"pitch":62,"velocity":76,"startTime":49.565110000000004,"endTime":49.67380541666667,"instrument":2,"program":24,"isDrum":false},{"pitch":67,"velocity":76,"startTime":49.565110000000004,"endTime":49.67380541666667,"instrument":2,"program":24,"isDrum":false},{"pitch":70,"velocity":76,"startTime":49.565110000000004,"endTime":49.67380541666667,"instrument":2,"program":24,"isDrum":false},{"pitch":63,"velocity":76,"startTime":49.825979000000004,"endTime":50.17923910416667,"instrument":2,"program":24,"isDrum":false},{"pitch":67,"velocity":76,"startTime":49.825979000000004,"endTime":50.17923910416667,"instrument":2,"program":24,"isDrum":false},{"pitch":72,"velocity":76,"startTime":49.825979000000004,"endTime":50.17923910416667,"instrument":2,"program":24,"isDrum":false},{"pitch":63,"velocity":76,"startTime":50.608586,"endTime":50.717281416666665,"instrument":2,"program":24,"isDrum":false},{"pitch":67,"velocity":76,"startTime":50.608586,"endTime":50.717281416666665,"instrument":2,"program":24,"isDrum":false},{"pitch":72,"velocity":76,"startTime":50.608586,"endTime":50.717281416666665,"instrument":2,"program":24,"isDrum":false},{"pitch":63,"velocity":76,"startTime":51.130324,"endTime":51.239019416666665,"instrument":2,"program":24,"isDrum":false},{"pitch":67,"velocity":76,"startTime":51.130324,"endTime":51.239019416666665,"instrument":2,"program":24,"isDrum":false},{"pitch":72,"velocity":76,"startTime":51.130324,"endTime":51.239019416666665,"instrument":2,"program":24,"isDrum":false},{"pitch":63,"velocity":76,"startTime":51.652062,"endTime":51.760757416666664,"instrument":2,"program":24,"isDrum":false},{"pitch":67,"velocity":76,"startTime":51.652062,"endTime":51.760757416666664,"instrument":2,"program":24,"isDrum":false},{"pitch":72,"velocity":76,"startTime":51.652062,"endTime":51.760757416666664,"instrument":2,"program":24,"isDrum":false},{"pitch":63,"velocity":76,"startTime":51.912931,"endTime":52.266191104166666,"instrument":2,"program":24,"isDrum":false},{"pitch":67,"velocity":76,"startTime":51.912931,"endTime":52.266191104166666,"instrument":2,"program":24,"isDrum":false},{"pitch":72,"velocity":76,"startTime":51.912931,"endTime":52.266191104166666,"instrument":2,"program":24,"isDrum":false},{"pitch":63,"velocity":76,"startTime":52.695538,"endTime":52.80423341666666,"instrument":2,"program":24,"isDrum":false},{"pitch":67,"velocity":76,"startTime":52.695538,"endTime":52.80423341666666,"instrument":2,"program":24,"isDrum":false},{"pitch":72,"velocity":76,"startTime":52.695538,"endTime":52.80423341666666,"instrument":2,"program":24,"isDrum":false},{"pitch":63,"velocity":76,"startTime":53.217276,"endTime":53.32597141666666,"instrument":2,"program":24,"isDrum":false},{"pitch":67,"velocity":76,"startTime":53.217276,"endTime":53.32597141666666,"instrument":2,"program":24,"isDrum":false},{"pitch":72,"velocity":76,"startTime":53.217276,"endTime":53.32597141666666,"instrument":2,"program":24,"isDrum":false},{"pitch":63,"velocity":76,"startTime":53.739014,"endTime":53.847709416666675,"instrument":2,"program":24,"isDrum":false},{"pitch":67,"velocity":76,"startTime":53.739014,"endTime":53.847709416666675,"instrument":2,"program":24,"isDrum":false},{"pitch":72,"velocity":76,"startTime":53.739014,"endTime":53.847709416666675,"instrument":2,"program":24,"isDrum":false},{"pitch":62,"velocity":76,"startTime":53.999883,"endTime":54.35314310416666,"instrument":2,"program":24,"isDrum":false},{"pitch":67,"velocity":76,"startTime":53.999883,"endTime":54.35314310416666,"instrument":2,"program":24,"isDrum":false},{"pitch":70,"velocity":76,"startTime":53.999883,"endTime":54.35314310416666,"instrument":2,"program":24,"isDrum":false},{"pitch":62,"velocity":76,"startTime":54.78249000000001,"endTime":54.89118541666667,"instrument":2,"program":24,"isDrum":false},{"pitch":67,"velocity":76,"startTime":54.78249000000001,"endTime":54.89118541666667,"instrument":2,"program":24,"isDrum":false},{"pitch":70,"velocity":76,"startTime":54.78249000000001,"endTime":54.89118541666667,"instrument":2,"program":24,"isDrum":false},{"pitch":62,"velocity":76,"startTime":55.30422800000001,"endTime":55.41292341666667,"instrument":2,"program":24,"isDrum":false},{"pitch":67,"velocity":76,"startTime":55.30422800000001,"endTime":55.41292341666667,"instrument":2,"program":24,"isDrum":false},{"pitch":70,"velocity":76,"startTime":55.30422800000001,"endTime":55.41292341666667,"instrument":2,"program":24,"isDrum":false},{"pitch":62,"velocity":76,"startTime":55.82596600000001,"endTime":55.93466141666667,"instrument":2,"program":24,"isDrum":false},{"pitch":67,"velocity":76,"startTime":55.82596600000001,"endTime":55.93466141666667,"instrument":2,"program":24,"isDrum":false},{"pitch":70,"velocity":76,"startTime":55.82596600000001,"endTime":55.93466141666667,"instrument":2,"program":24,"isDrum":false},{"pitch":62,"velocity":76,"startTime":56.08683500000001,"endTime":56.44009510416667,"instrument":2,"program":24,"isDrum":false},{"pitch":67,"velocity":76,"startTime":56.08683500000001,"endTime":56.44009510416667,"instrument":2,"program":24,"isDrum":false},{"pitch":70,"velocity":76,"startTime":56.08683500000001,"endTime":56.44009510416667,"instrument":2,"program":24,"isDrum":false},{"pitch":62,"velocity":76,"startTime":56.86944200000001,"endTime":56.97813741666667,"instrument":2,"program":24,"isDrum":false},{"pitch":67,"velocity":76,"startTime":56.86944200000001,"endTime":56.97813741666667,"instrument":2,"program":24,"isDrum":false},{"pitch":70,"velocity":76,"startTime":56.86944200000001,"endTime":56.97813741666667,"instrument":2,"program":24,"isDrum":false},{"pitch":62,"velocity":76,"startTime":57.391180000000006,"endTime":57.49987541666667,"instrument":2,"program":24,"isDrum":false},{"pitch":67,"velocity":76,"startTime":57.391180000000006,"endTime":57.49987541666667,"instrument":2,"program":24,"isDrum":false},{"pitch":70,"velocity":76,"startTime":57.391180000000006,"endTime":57.49987541666667,"instrument":2,"program":24,"isDrum":false},{"pitch":62,"velocity":76,"startTime":57.912918000000005,"endTime":58.02161341666667,"instrument":2,"program":24,"isDrum":false},{"pitch":67,"velocity":76,"startTime":57.912918000000005,"endTime":58.02161341666667,"instrument":2,"program":24,"isDrum":false},{"pitch":70,"velocity":76,"startTime":57.912918000000005,"endTime":58.02161341666667,"instrument":2,"program":24,"isDrum":false},{"pitch":62,"velocity":76,"startTime":58.173787000000004,"endTime":58.52704710416667,"instrument":2,"program":24,"isDrum":false},{"pitch":66,"velocity":76,"startTime":58.173787000000004,"endTime":58.52704710416667,"instrument":2,"program":24,"isDrum":false},{"pitch":69,"velocity":76,"startTime":58.173787000000004,"endTime":58.52704710416667,"instrument":2,"program":24,"isDrum":false},{"pitch":72,"velocity":76,"startTime":58.173787000000004,"endTime":58.52704710416667,"instrument":2,"program":24,"isDrum":false},{"pitch":62,"velocity":76,"startTime":58.956394,"endTime":59.065089416666666,"instrument":2,"program":24,"isDrum":false},{"pitch":66,"velocity":76,"startTime":58.956394,"endTime":59.065089416666666,"instrument":2,"program":24,"isDrum":false},{"pitch":69,"velocity":76,"startTime":58.956394,"endTime":59.065089416666666,"instrument":2,"program":24,"isDrum":false},{"pitch":72,"velocity":76,"startTime":58.956394,"endTime":59.065089416666666,"instrument":2,"program":24,"isDrum":false},{"pitch":62,"velocity":76,"startTime":59.478132,"endTime":59.586827416666665,"instrument":2,"program":24,"isDrum":false},{"pitch":66,"velocity":76,"startTime":59.478132,"endTime":59.586827416666665,"instrument":2,"program":24,"isDrum":false},{"pitch":69,"velocity":76,"startTime":59.478132,"endTime":59.586827416666665,"instrument":2,"program":24,"isDrum":false},{"pitch":72,"velocity":76,"startTime":59.478132,"endTime":59.586827416666665,"instrument":2,"program":24,"isDrum":false},{"pitch":62,"velocity":76,"startTime":59.99987,"endTime":60.108565416666664,"instrument":2,"program":24,"isDrum":false},{"pitch":66,"velocity":76,"startTime":59.99987,"endTime":60.108565416666664,"instrument":2,"program":24,"isDrum":false},{"pitch":69,"velocity":76,"startTime":59.99987,"endTime":60.108565416666664,"instrument":2,"program":24,"isDrum":false},{"pitch":72,"velocity":76,"startTime":59.99987,"endTime":60.108565416666664,"instrument":2,"program":24,"isDrum":false},{"pitch":62,"velocity":76,"startTime":60.260739,"endTime":60.613999104166666,"instrument":2,"program":24,"isDrum":false},{"pitch":66,"velocity":76,"startTime":60.260739,"endTime":60.613999104166666,"instrument":2,"program":24,"isDrum":false},{"pitch":69,"velocity":76,"startTime":60.260739,"endTime":60.613999104166666,"instrument":2,"program":24,"isDrum":false},{"pitch":72,"velocity":76,"startTime":60.260739,"endTime":60.613999104166666,"instrument":2,"program":24,"isDrum":false},{"pitch":62,"velocity":76,"startTime":61.043346,"endTime":61.15204141666666,"instrument":2,"program":24,"isDrum":false},{"pitch":66,"velocity":76,"startTime":61.043346,"endTime":61.15204141666666,"instrument":2,"program":24,"isDrum":false},{"pitch":69,"velocity":76,"startTime":61.043346,"endTime":61.15204141666666,"instrument":2,"program":24,"isDrum":false},{"pitch":72,"velocity":76,"startTime":61.043346,"endTime":61.15204141666666,"instrument":2,"program":24,"isDrum":false},{"pitch":62,"velocity":76,"startTime":61.565084,"endTime":61.67377941666666,"instrument":2,"program":24,"isDrum":false},{"pitch":66,"velocity":76,"startTime":61.565084,"endTime":61.67377941666666,"instrument":2,"program":24,"isDrum":false},{"pitch":69,"velocity":76,"startTime":61.565084,"endTime":61.67377941666666,"instrument":2,"program":24,"isDrum":false},{"pitch":72,"velocity":76,"startTime":61.565084,"endTime":61.67377941666666,"instrument":2,"program":24,"isDrum":false},{"pitch":62,"velocity":76,"startTime":62.08682200000001,"endTime":62.195517416666675,"instrument":2,"program":24,"isDrum":false},{"pitch":66,"velocity":76,"startTime":62.08682200000001,"endTime":62.195517416666675,"instrument":2,"program":24,"isDrum":false},{"pitch":69,"velocity":76,"startTime":62.08682200000001,"endTime":62.195517416666675,"instrument":2,"program":24,"isDrum":false},{"pitch":72,"velocity":76,"startTime":62.08682200000001,"endTime":62.195517416666675,"instrument":2,"program":24,"isDrum":false},{"pitch":62,"velocity":76,"startTime":62.34769100000001,"endTime":62.70095110416668,"instrument":2,"program":24,"isDrum":false},{"pitch":67,"velocity":76,"startTime":62.34769100000001,"endTime":62.70095110416668,"instrument":2,"program":24,"isDrum":false},{"pitch":70,"velocity":76,"startTime":62.34769100000001,"endTime":62.70095110416668,"instrument":2,"program":24,"isDrum":false},{"pitch":62,"velocity":76,"startTime":64.95638100000001,"endTime":65.59768395833333,"instrument":2,"program":24,"isDrum":false},{"pitch":66,"velocity":76,"startTime":65.21725,"endTime":65.57051010416669,"instrument":2,"program":24,"isDrum":false},{"pitch":69,"velocity":76,"startTime":65.21725,"endTime":65.57051010416669,"instrument":2,"program":24,"isDrum":false},{"pitch":72,"velocity":76,"startTime":65.21725,"endTime":65.57051010416669,"instrument":2,"program":24,"isDrum":false},{"pitch":62,"velocity":76,"startTime":65.738988,"endTime":65.84768341666668,"instrument":2,"program":24,"isDrum":false},{"pitch":67,"velocity":76,"startTime":65.738988,"endTime":65.84768341666668,"instrument":2,"program":24,"isDrum":false},{"pitch":70,"velocity":76,"startTime":65.738988,"endTime":65.84768341666668,"instrument":2,"program":24,"isDrum":false},{"pitch":67,"velocity":76,"startTime":66.782464,"endTime":67.57594054166668,"instrument":2,"program":24,"isDrum":false},{"pitch":65,"velocity":76,"startTime":67.82594,"endTime":68.59767745833334,"instrument":2,"program":24,"isDrum":false},{"pitch":64,"velocity":76,"startTime":68.869416,"endTime":69.64115345833333,"instrument":2,"program":24,"isDrum":false},{"pitch":63,"velocity":76,"startTime":69.91289200000001,"endTime":70.26615210416668,"instrument":2,"program":24,"isDrum":false},{"pitch":62,"velocity":76,"startTime":70.43463000000001,"endTime":70.78789010416668,"instrument":2,"program":24,"isDrum":false},{"pitch":67,"velocity":76,"startTime":70.95636800000001,"endTime":71.06506341666667,"instrument":2,"program":24,"isDrum":false},{"pitch":62,"velocity":76,"startTime":73.04332000000001,"endTime":73.15201541666669,"instrument":2,"program":24,"isDrum":false},{"pitch":66,"velocity":76,"startTime":73.04332000000001,"endTime":73.15201541666669,"instrument":2,"program":24,"isDrum":false},{"pitch":69,"velocity":76,"startTime":73.04332000000001,"endTime":73.15201541666669,"instrument":2,"program":24,"isDrum":false},{"pitch":72,"velocity":76,"startTime":73.04332000000001,"endTime":73.15201541666669,"instrument":2,"program":24,"isDrum":false},{"pitch":62,"velocity":76,"startTime":73.56505800000001,"endTime":73.67375341666668,"instrument":2,"program":24,"isDrum":false},{"pitch":66,"velocity":76,"startTime":73.56505800000001,"endTime":73.67375341666668,"instrument":2,"program":24,"isDrum":false},{"pitch":69,"velocity":76,"startTime":73.56505800000001,"endTime":73.67375341666668,"instrument":2,"program":24,"isDrum":false},{"pitch":72,"velocity":76,"startTime":73.56505800000001,"endTime":73.67375341666668,"instrument":2,"program":24,"isDrum":false},{"pitch":62,"velocity":76,"startTime":74.086796,"endTime":74.19549141666668,"instrument":2,"program":24,"isDrum":false},{"pitch":66,"velocity":76,"startTime":74.086796,"endTime":74.19549141666668,"instrument":2,"program":24,"isDrum":false},{"pitch":69,"velocity":76,"startTime":74.086796,"endTime":74.19549141666668,"instrument":2,"program":24,"isDrum":false},{"pitch":72,"velocity":76,"startTime":74.086796,"endTime":74.19549141666668,"instrument":2,"program":24,"isDrum":false},{"pitch":62,"velocity":76,"startTime":74.608534,"endTime":74.71722941666668,"instrument":2,"program":24,"isDrum":false},{"pitch":66,"velocity":76,"startTime":74.608534,"endTime":74.71722941666668,"instrument":2,"program":24,"isDrum":false},{"pitch":69,"velocity":76,"startTime":74.608534,"endTime":74.71722941666668,"instrument":2,"program":24,"isDrum":false},{"pitch":72,"velocity":76,"startTime":74.608534,"endTime":74.71722941666668,"instrument":2,"program":24,"isDrum":false},{"pitch":62,"velocity":76,"startTime":74.869403,"endTime":75.22266310416668,"instrument":2,"program":24,"isDrum":false},{"pitch":66,"velocity":76,"startTime":74.869403,"endTime":75.22266310416668,"instrument":2,"program":24,"isDrum":false},{"pitch":69,"velocity":76,"startTime":74.869403,"endTime":75.22266310416668,"instrument":2,"program":24,"isDrum":false},{"pitch":72,"velocity":76,"startTime":74.869403,"endTime":75.22266310416668,"instrument":2,"program":24,"isDrum":false},{"pitch":62,"velocity":76,"startTime":75.65201,"endTime":75.76070541666668,"instrument":2,"program":24,"isDrum":false},{"pitch":66,"velocity":76,"startTime":75.65201,"endTime":75.76070541666668,"instrument":2,"program":24,"isDrum":false},{"pitch":69,"velocity":76,"startTime":75.65201,"endTime":75.76070541666668,"instrument":2,"program":24,"isDrum":false},{"pitch":72,"velocity":76,"startTime":75.65201,"endTime":75.76070541666668,"instrument":2,"program":24,"isDrum":false},{"pitch":62,"velocity":76,"startTime":76.173748,"endTime":76.28244341666668,"instrument":2,"program":24,"isDrum":false},{"pitch":66,"velocity":76,"startTime":76.173748,"endTime":76.28244341666668,"instrument":2,"program":24,"isDrum":false},{"pitch":69,"velocity":76,"startTime":76.173748,"endTime":76.28244341666668,"instrument":2,"program":24,"isDrum":false},{"pitch":72,"velocity":76,"startTime":76.173748,"endTime":76.28244341666668,"instrument":2,"program":24,"isDrum":false},{"pitch":62,"velocity":76,"startTime":76.695486,"endTime":76.80418141666668,"instrument":2,"program":24,"isDrum":false},{"pitch":66,"velocity":76,"startTime":76.695486,"endTime":76.80418141666668,"instrument":2,"program":24,"isDrum":false},{"pitch":69,"velocity":76,"startTime":76.695486,"endTime":76.80418141666668,"instrument":2,"program":24,"isDrum":false},{"pitch":72,"velocity":76,"startTime":76.695486,"endTime":76.80418141666668,"instrument":2,"program":24,"isDrum":false},{"pitch":62,"velocity":76,"startTime":76.956355,"endTime":77.30961510416668,"instrument":2,"program":24,"isDrum":false},{"pitch":66,"velocity":76,"startTime":76.956355,"endTime":77.30961510416668,"instrument":2,"program":24,"isDrum":false},{"pitch":69,"velocity":76,"startTime":76.956355,"endTime":77.30961510416668,"instrument":2,"program":24,"isDrum":false},{"pitch":72,"velocity":76,"startTime":76.956355,"endTime":77.30961510416668,"instrument":2,"program":24,"isDrum":false},{"pitch":62,"velocity":76,"startTime":77.73896200000001,"endTime":77.84765741666668,"instrument":2,"program":24,"isDrum":false},{"pitch":66,"velocity":76,"startTime":77.73896200000001,"endTime":77.84765741666668,"instrument":2,"program":24,"isDrum":false},{"pitch":69,"velocity":76,"startTime":77.73896200000001,"endTime":77.84765741666668,"instrument":2,"program":24,"isDrum":false},{"pitch":72,"velocity":76,"startTime":77.73896200000001,"endTime":77.84765741666668,"instrument":2,"program":24,"isDrum":false},{"pitch":62,"velocity":76,"startTime":78.26070000000001,"endTime":78.36939541666668,"instrument":2,"program":24,"isDrum":false},{"pitch":66,"velocity":76,"startTime":78.26070000000001,"endTime":78.36939541666668,"instrument":2,"program":24,"isDrum":false},{"pitch":69,"velocity":76,"startTime":78.26070000000001,"endTime":78.36939541666668,"instrument":2,"program":24,"isDrum":false},{"pitch":72,"velocity":76,"startTime":78.26070000000001,"endTime":78.36939541666668,"instrument":2,"program":24,"isDrum":false},{"pitch":62,"velocity":76,"startTime":78.78243800000001,"endTime":78.89113341666668,"instrument":2,"program":24,"isDrum":false},{"pitch":66,"velocity":76,"startTime":78.78243800000001,"endTime":78.89113341666668,"instrument":2,"program":24,"isDrum":false},{"pitch":69,"velocity":76,"startTime":78.78243800000001,"endTime":78.89113341666668,"instrument":2,"program":24,"isDrum":false},{"pitch":72,"velocity":76,"startTime":78.78243800000001,"endTime":78.89113341666668,"instrument":2,"program":24,"isDrum":false},{"pitch":62,"velocity":76,"startTime":79.04330700000001,"endTime":79.39656710416668,"instrument":2,"program":24,"isDrum":false},{"pitch":66,"velocity":76,"startTime":79.04330700000001,"endTime":79.39656710416668,"instrument":2,"program":24,"isDrum":false},{"pitch":69,"velocity":76,"startTime":79.04330700000001,"endTime":79.39656710416668,"instrument":2,"program":24,"isDrum":false},{"pitch":72,"velocity":76,"startTime":79.04330700000001,"endTime":79.39656710416668,"instrument":2,"program":24,"isDrum":false},{"pitch":62,"velocity":76,"startTime":79.82591400000001,"endTime":79.93460941666667,"instrument":2,"program":24,"isDrum":false},{"pitch":66,"velocity":76,"startTime":79.82591400000001,"endTime":79.93460941666667,"instrument":2,"program":24,"isDrum":false},{"pitch":69,"velocity":76,"startTime":79.82591400000001,"endTime":79.93460941666667,"instrument":2,"program":24,"isDrum":false},{"pitch":72,"velocity":76,"startTime":79.82591400000001,"endTime":79.93460941666667,"instrument":2,"program":24,"isDrum":false},{"pitch":62,"velocity":76,"startTime":80.34765200000001,"endTime":80.45634741666667,"instrument":2,"program":24,"isDrum":false},{"pitch":66,"velocity":76,"startTime":80.34765200000001,"endTime":80.45634741666667,"instrument":2,"program":24,"isDrum":false},{"pitch":69,"velocity":76,"startTime":80.34765200000001,"endTime":80.45634741666667,"instrument":2,"program":24,"isDrum":false},{"pitch":72,"velocity":76,"startTime":80.34765200000001,"endTime":80.45634741666667,"instrument":2,"program":24,"isDrum":false},{"pitch":62,"velocity":76,"startTime":80.86939000000001,"endTime":80.97808541666669,"instrument":2,"program":24,"isDrum":false},{"pitch":66,"velocity":76,"startTime":80.86939000000001,"endTime":80.97808541666669,"instrument":2,"program":24,"isDrum":false},{"pitch":69,"velocity":76,"startTime":80.86939000000001,"endTime":80.97808541666669,"instrument":2,"program":24,"isDrum":false},{"pitch":72,"velocity":76,"startTime":80.86939000000001,"endTime":80.97808541666669,"instrument":2,"program":24,"isDrum":false},{"pitch":62,"velocity":76,"startTime":81.13025900000001,"endTime":81.48351910416667,"instrument":2,"program":24,"isDrum":false},{"pitch":67,"velocity":76,"startTime":81.13025900000001,"endTime":81.48351910416667,"instrument":2,"program":24,"isDrum":false},{"pitch":70,"velocity":76,"startTime":81.13025900000001,"endTime":81.48351910416667,"instrument":2,"program":24,"isDrum":false},{"pitch":62,"velocity":76,"startTime":81.91286600000001,"endTime":82.02156141666669,"instrument":2,"program":24,"isDrum":false},{"pitch":67,"velocity":76,"startTime":81.91286600000001,"endTime":82.02156141666669,"instrument":2,"program":24,"isDrum":false},{"pitch":70,"velocity":76,"startTime":81.91286600000001,"endTime":82.02156141666669,"instrument":2,"program":24,"isDrum":false},{"pitch":62,"velocity":76,"startTime":82.43460400000001,"endTime":82.54329941666668,"instrument":2,"program":24,"isDrum":false},{"pitch":67,"velocity":76,"startTime":82.43460400000001,"endTime":82.54329941666668,"instrument":2,"program":24,"isDrum":false},{"pitch":70,"velocity":76,"startTime":82.43460400000001,"endTime":82.54329941666668,"instrument":2,"program":24,"isDrum":false},{"pitch":62,"velocity":76,"startTime":82.956342,"endTime":83.06503741666668,"instrument":2,"program":24,"isDrum":false},{"pitch":67,"velocity":76,"startTime":82.956342,"endTime":83.06503741666668,"instrument":2,"program":24,"isDrum":false},{"pitch":70,"velocity":76,"startTime":82.956342,"endTime":83.06503741666668,"instrument":2,"program":24,"isDrum":false},{"pitch":62,"velocity":76,"startTime":83.217211,"endTime":83.46721045833334,"instrument":2,"program":24,"isDrum":false},{"pitch":67,"velocity":76,"startTime":83.217211,"endTime":83.45634091666668,"instrument":2,"program":24,"isDrum":false},{"pitch":70,"velocity":76,"startTime":83.217211,"endTime":83.47808,"instrument":2,"program":24,"isDrum":false},{"pitch":67,"velocity":76,"startTime":83.47808,"endTime":84.23894791666667,"instrument":2,"program":24,"isDrum":false},{"pitch":65,"velocity":76,"startTime":84.521556,"endTime":85.29329345833334,"instrument":2,"program":24,"isDrum":false},{"pitch":64,"velocity":76,"startTime":85.565032,"endTime":86.34763900000002,"instrument":2,"program":24,"isDrum":false},{"pitch":63,"velocity":76,"startTime":86.60850800000001,"endTime":86.96176810416668,"instrument":2,"program":24,"isDrum":false},{"pitch":62,"velocity":76,"startTime":87.13024600000001,"endTime":87.48350610416668,"instrument":2,"program":24,"isDrum":false},{"pitch":67,"velocity":76,"startTime":87.65198400000001,"endTime":87.76067941666668,"instrument":2,"program":24,"isDrum":false},{"pitch":63,"velocity":76,"startTime":89.73893600000001,"endTime":89.84763141666669,"instrument":2,"program":24,"isDrum":false},{"pitch":67,"velocity":76,"startTime":89.73893600000001,"endTime":89.84763141666669,"instrument":2,"program":24,"isDrum":false},{"pitch":72,"velocity":76,"startTime":89.73893600000001,"endTime":89.84763141666669,"instrument":2,"program":24,"isDrum":false},{"pitch":63,"velocity":76,"startTime":90.26067400000001,"endTime":90.36936941666669,"instrument":2,"program":24,"isDrum":false},{"pitch":67,"velocity":76,"startTime":90.26067400000001,"endTime":90.36936941666669,"instrument":2,"program":24,"isDrum":false},{"pitch":72,"velocity":76,"startTime":90.26067400000001,"endTime":90.36936941666669,"instrument":2,"program":24,"isDrum":false},{"pitch":63,"velocity":76,"startTime":90.78241200000001,"endTime":90.89110741666669,"instrument":2,"program":24,"isDrum":false},{"pitch":67,"velocity":76,"startTime":90.78241200000001,"endTime":90.89110741666669,"instrument":2,"program":24,"isDrum":false},{"pitch":72,"velocity":76,"startTime":90.78241200000001,"endTime":90.89110741666669,"instrument":2,"program":24,"isDrum":false},{"pitch":63,"velocity":76,"startTime":91.30415,"endTime":91.41284541666668,"instrument":2,"program":24,"isDrum":false},{"pitch":67,"velocity":76,"startTime":91.30415,"endTime":91.41284541666668,"instrument":2,"program":24,"isDrum":false},{"pitch":72,"velocity":76,"startTime":91.30415,"endTime":91.41284541666668,"instrument":2,"program":24,"isDrum":false},{"pitch":63,"velocity":76,"startTime":91.565019,"endTime":91.923713875,"instrument":2,"program":24,"isDrum":false},{"pitch":67,"velocity":76,"startTime":91.565019,"endTime":91.94545295833333,"instrument":2,"program":24,"isDrum":false},{"pitch":72,"velocity":76,"startTime":91.565019,"endTime":91.94545295833333,"instrument":2,"program":24,"isDrum":false},{"pitch":63,"velocity":76,"startTime":92.086757,"endTime":92.19545241666668,"instrument":2,"program":24,"isDrum":false},{"pitch":67,"velocity":76,"startTime":92.086757,"endTime":92.19545241666668,"instrument":2,"program":24,"isDrum":false},{"pitch":72,"velocity":76,"startTime":92.086757,"endTime":92.19545241666668,"instrument":2,"program":24,"isDrum":false},{"pitch":63,"velocity":76,"startTime":92.608495,"endTime":92.81501629166668,"instrument":2,"program":24,"isDrum":false},{"pitch":67,"velocity":76,"startTime":92.608495,"endTime":92.79871197916668,"instrument":2,"program":24,"isDrum":false},{"pitch":72,"velocity":76,"startTime":92.608495,"endTime":92.79327720833334,"instrument":2,"program":24,"isDrum":false},{"pitch":63,"velocity":76,"startTime":93.130233,"endTime":93.23892841666668,"instrument":2,"program":24,"isDrum":false},{"pitch":67,"velocity":76,"startTime":93.130233,"endTime":93.23892841666668,"instrument":2,"program":24,"isDrum":false},{"pitch":72,"velocity":76,"startTime":93.130233,"endTime":93.23892841666668,"instrument":2,"program":24,"isDrum":false},{"pitch":63,"velocity":76,"startTime":93.391102,"endTime":93.49979741666668,"instrument":2,"program":24,"isDrum":false},{"pitch":67,"velocity":76,"startTime":93.391102,"endTime":93.49979741666668,"instrument":2,"program":24,"isDrum":false},{"pitch":72,"velocity":76,"startTime":93.391102,"endTime":93.49979741666668,"instrument":2,"program":24,"isDrum":false},{"pitch":62,"velocity":76,"startTime":93.91284000000002,"endTime":94.02153541666668,"instrument":2,"program":24,"isDrum":false},{"pitch":67,"velocity":76,"startTime":93.91284000000002,"endTime":94.02153541666668,"instrument":2,"program":24,"isDrum":false},{"pitch":70,"velocity":76,"startTime":93.91284000000002,"endTime":94.02153541666668,"instrument":2,"program":24,"isDrum":false},{"pitch":62,"velocity":76,"startTime":94.17370900000002,"endTime":94.28240441666668,"instrument":2,"program":24,"isDrum":false},{"pitch":67,"velocity":76,"startTime":94.17370900000002,"endTime":94.28240441666668,"instrument":2,"program":24,"isDrum":false},{"pitch":70,"velocity":76,"startTime":94.17370900000002,"endTime":94.28240441666668,"instrument":2,"program":24,"isDrum":false},{"pitch":62,"velocity":76,"startTime":94.69544700000002,"endTime":94.93457691666669,"instrument":2,"program":24,"isDrum":false},{"pitch":67,"velocity":76,"startTime":94.69544700000002,"endTime":94.94544645833334,"instrument":2,"program":24,"isDrum":false},{"pitch":70,"velocity":76,"startTime":94.69544700000002,"endTime":94.93457691666669,"instrument":2,"program":24,"isDrum":false},{"pitch":62,"velocity":76,"startTime":95.21718500000001,"endTime":95.32588041666668,"instrument":2,"program":24,"isDrum":false},{"pitch":67,"velocity":76,"startTime":95.21718500000001,"endTime":95.32588041666668,"instrument":2,"program":24,"isDrum":false},{"pitch":70,"velocity":76,"startTime":95.21718500000001,"endTime":95.32588041666668,"instrument":2,"program":24,"isDrum":false},{"pitch":62,"velocity":76,"startTime":95.47805400000001,"endTime":95.58674941666668,"instrument":2,"program":24,"isDrum":false},{"pitch":67,"velocity":76,"startTime":95.47805400000001,"endTime":95.58674941666668,"instrument":2,"program":24,"isDrum":false},{"pitch":70,"velocity":76,"startTime":95.47805400000001,"endTime":95.58674941666668,"instrument":2,"program":24,"isDrum":false},{"pitch":62,"velocity":76,"startTime":95.99979200000001,"endTime":96.35305210416668,"instrument":2,"program":24,"isDrum":false},{"pitch":66,"velocity":76,"startTime":95.99979200000001,"endTime":96.35305210416668,"instrument":2,"program":24,"isDrum":false},{"pitch":69,"velocity":76,"startTime":95.99979200000001,"endTime":96.35305210416668,"instrument":2,"program":24,"isDrum":false},{"pitch":72,"velocity":76,"startTime":95.99979200000001,"endTime":96.35305210416668,"instrument":2,"program":24,"isDrum":false},{"pitch":62,"velocity":76,"startTime":98.34761300000001,"endTime":98.70087310416667,"instrument":2,"program":24,"isDrum":false},{"pitch":66,"velocity":76,"startTime":98.60848200000001,"endTime":98.96174210416669,"instrument":2,"program":24,"isDrum":false},{"pitch":69,"velocity":76,"startTime":98.60848200000001,"endTime":98.96174210416669,"instrument":2,"program":24,"isDrum":false},{"pitch":72,"velocity":76,"startTime":98.60848200000001,"endTime":98.96174210416669,"instrument":2,"program":24,"isDrum":false},{"pitch":67,"velocity":76,"startTime":99.13022000000001,"endTime":99.23891541666669,"instrument":2,"program":24,"isDrum":false},{"pitch":70,"velocity":76,"startTime":99.13022000000001,"endTime":99.23891541666669,"instrument":2,"program":24,"isDrum":false},{"pitch":62,"velocity":76,"startTime":100.173696,"endTime":100.28239141666668,"instrument":2,"program":24,"isDrum":false},{"pitch":66,"velocity":76,"startTime":100.173696,"endTime":100.28239141666668,"instrument":2,"program":24,"isDrum":false},{"pitch":69,"velocity":76,"startTime":100.173696,"endTime":100.28239141666668,"instrument":2,"program":24,"isDrum":false},{"pitch":72,"velocity":76,"startTime":100.173696,"endTime":100.28239141666668,"instrument":2,"program":24,"isDrum":false},{"pitch":62,"velocity":76,"startTime":100.695434,"endTime":100.80412941666668,"instrument":2,"program":24,"isDrum":false},{"pitch":66,"velocity":76,"startTime":100.695434,"endTime":100.80412941666668,"instrument":2,"program":24,"isDrum":false},{"pitch":69,"velocity":76,"startTime":100.695434,"endTime":100.80412941666668,"instrument":2,"program":24,"isDrum":false},{"pitch":72,"velocity":76,"startTime":100.695434,"endTime":100.80412941666668,"instrument":2,"program":24,"isDrum":false},{"pitch":62,"velocity":76,"startTime":101.217172,"endTime":101.32586741666668,"instrument":2,"program":24,"isDrum":false},{"pitch":66,"velocity":76,"startTime":101.217172,"endTime":101.32586741666668,"instrument":2,"program":24,"isDrum":false},{"pitch":69,"velocity":76,"startTime":101.217172,"endTime":101.32586741666668,"instrument":2,"program":24,"isDrum":false},{"pitch":72,"velocity":76,"startTime":101.217172,"endTime":101.32586741666668,"instrument":2,"program":24,"isDrum":false},{"pitch":62,"velocity":76,"startTime":101.73891,"endTime":101.84760541666668,"instrument":2,"program":24,"isDrum":false},{"pitch":66,"velocity":76,"startTime":101.73891,"endTime":101.84760541666668,"instrument":2,"program":24,"isDrum":false},{"pitch":69,"velocity":76,"startTime":101.73891,"endTime":101.84760541666668,"instrument":2,"program":24,"isDrum":false},{"pitch":72,"velocity":76,"startTime":101.73891,"endTime":101.84760541666668,"instrument":2,"program":24,"isDrum":false},{"pitch":62,"velocity":76,"startTime":101.999779,"endTime":102.35303910416668,"instrument":2,"program":24,"isDrum":false},{"pitch":66,"velocity":76,"startTime":101.999779,"endTime":102.35303910416668,"instrument":2,"program":24,"isDrum":false},{"pitch":69,"velocity":76,"startTime":101.999779,"endTime":102.35303910416668,"instrument":2,"program":24,"isDrum":false},{"pitch":72,"velocity":76,"startTime":101.999779,"endTime":102.35303910416668,"instrument":2,"program":24,"isDrum":false},{"pitch":62,"velocity":76,"startTime":102.78238600000002,"endTime":102.89108141666668,"instrument":2,"program":24,"isDrum":false},{"pitch":66,"velocity":76,"startTime":102.78238600000002,"endTime":102.89108141666668,"instrument":2,"program":24,"isDrum":false},{"pitch":69,"velocity":76,"startTime":102.78238600000002,"endTime":102.89108141666668,"instrument":2,"program":24,"isDrum":false},{"pitch":72,"velocity":76,"startTime":102.78238600000002,"endTime":102.89108141666668,"instrument":2,"program":24,"isDrum":false},{"pitch":62,"velocity":76,"startTime":103.30412400000002,"endTime":103.41281941666668,"instrument":2,"program":24,"isDrum":false},{"pitch":66,"velocity":76,"startTime":103.30412400000002,"endTime":103.41281941666668,"instrument":2,"program":24,"isDrum":false},{"pitch":69,"velocity":76,"startTime":103.30412400000002,"endTime":103.41281941666668,"instrument":2,"program":24,"isDrum":false},{"pitch":72,"velocity":76,"startTime":103.30412400000002,"endTime":103.41281941666668,"instrument":2,"program":24,"isDrum":false},{"pitch":62,"velocity":76,"startTime":103.82586200000001,"endTime":103.93455741666668,"instrument":2,"program":24,"isDrum":false},{"pitch":66,"velocity":76,"startTime":103.82586200000001,"endTime":103.93455741666668,"instrument":2,"program":24,"isDrum":false},{"pitch":69,"velocity":76,"startTime":103.82586200000001,"endTime":103.93455741666668,"instrument":2,"program":24,"isDrum":false},{"pitch":72,"velocity":76,"startTime":103.82586200000001,"endTime":103.93455741666668,"instrument":2,"program":24,"isDrum":false},{"pitch":62,"velocity":76,"startTime":104.08673100000001,"endTime":104.43999110416668,"instrument":2,"program":24,"isDrum":false},{"pitch":67,"velocity":76,"startTime":104.08673100000001,"endTime":104.43999110416668,"instrument":2,"program":24,"isDrum":false},{"pitch":70,"velocity":76,"startTime":104.08673100000001,"endTime":104.43999110416668,"instrument":2,"program":24,"isDrum":false},{"pitch":62,"velocity":76,"startTime":104.86933800000001,"endTime":104.97803341666668,"instrument":2,"program":24,"isDrum":false},{"pitch":67,"velocity":76,"startTime":104.86933800000001,"endTime":104.97803341666668,"instrument":2,"program":24,"isDrum":false},{"pitch":70,"velocity":76,"startTime":104.86933800000001,"endTime":104.97803341666668,"instrument":2,"program":24,"isDrum":false},{"pitch":62,"velocity":76,"startTime":105.39107600000001,"endTime":105.49977141666668,"instrument":2,"program":24,"isDrum":false},{"pitch":67,"velocity":76,"startTime":105.39107600000001,"endTime":105.49977141666668,"instrument":2,"program":24,"isDrum":false},{"pitch":70,"velocity":76,"startTime":105.39107600000001,"endTime":105.49977141666668,"instrument":2,"program":24,"isDrum":false},{"pitch":62,"velocity":76,"startTime":105.91281400000001,"endTime":106.02150941666669,"instrument":2,"program":24,"isDrum":false},{"pitch":67,"velocity":76,"startTime":105.91281400000001,"endTime":106.02150941666669,"instrument":2,"program":24,"isDrum":false},{"pitch":70,"velocity":76,"startTime":105.91281400000001,"endTime":106.02150941666669,"instrument":2,"program":24,"isDrum":false},{"pitch":62,"velocity":76,"startTime":106.17368300000001,"endTime":106.52694310416668,"instrument":2,"program":24,"isDrum":false},{"pitch":67,"velocity":76,"startTime":106.17368300000001,"endTime":106.52694310416668,"instrument":2,"program":24,"isDrum":false},{"pitch":70,"velocity":76,"startTime":106.17368300000001,"endTime":106.52694310416668,"instrument":2,"program":24,"isDrum":false},{"pitch":62,"velocity":76,"startTime":106.95629000000001,"endTime":107.06498541666669,"instrument":2,"program":24,"isDrum":false},{"pitch":67,"velocity":76,"startTime":106.95629000000001,"endTime":107.06498541666669,"instrument":2,"program":24,"isDrum":false},{"pitch":70,"velocity":76,"startTime":106.95629000000001,"endTime":107.06498541666669,"instrument":2,"program":24,"isDrum":false},{"pitch":62,"velocity":76,"startTime":107.47802800000001,"endTime":107.58672341666669,"instrument":2,"program":24,"isDrum":false},{"pitch":67,"velocity":76,"startTime":107.47802800000001,"endTime":107.58672341666669,"instrument":2,"program":24,"isDrum":false},{"pitch":70,"velocity":76,"startTime":107.47802800000001,"endTime":107.58672341666669,"instrument":2,"program":24,"isDrum":false},{"pitch":62,"velocity":76,"startTime":107.99976600000001,"endTime":108.10846141666669,"instrument":2,"program":24,"isDrum":false},{"pitch":67,"velocity":76,"startTime":107.99976600000001,"endTime":108.10846141666669,"instrument":2,"program":24,"isDrum":false},{"pitch":70,"velocity":76,"startTime":107.99976600000001,"endTime":108.10846141666669,"instrument":2,"program":24,"isDrum":false},{"pitch":62,"velocity":76,"startTime":108.26063500000001,"endTime":108.61389510416669,"instrument":2,"program":24,"isDrum":false},{"pitch":66,"velocity":76,"startTime":108.26063500000001,"endTime":108.61389510416669,"instrument":2,"program":24,"isDrum":false},{"pitch":69,"velocity":76,"startTime":108.26063500000001,"endTime":108.61389510416669,"instrument":2,"program":24,"isDrum":false},{"pitch":72,"velocity":76,"startTime":108.26063500000001,"endTime":108.61389510416669,"instrument":2,"program":24,"isDrum":false},{"pitch":62,"velocity":76,"startTime":109.043242,"endTime":109.15193741666668,"instrument":2,"program":24,"isDrum":false},{"pitch":66,"velocity":76,"startTime":109.043242,"endTime":109.15193741666668,"instrument":2,"program":24,"isDrum":false},{"pitch":69,"velocity":76,"startTime":109.043242,"endTime":109.15193741666668,"instrument":2,"program":24,"isDrum":false},{"pitch":72,"velocity":76,"startTime":109.043242,"endTime":109.15193741666668,"instrument":2,"program":24,"isDrum":false},{"pitch":62,"velocity":76,"startTime":109.56498,"endTime":109.67367541666668,"instrument":2,"program":24,"isDrum":false},{"pitch":66,"velocity":76,"startTime":109.56498,"endTime":109.67367541666668,"instrument":2,"program":24,"isDrum":false},{"pitch":69,"velocity":76,"startTime":109.56498,"endTime":109.67367541666668,"instrument":2,"program":24,"isDrum":false},{"pitch":72,"velocity":76,"startTime":109.56498,"endTime":109.67367541666668,"instrument":2,"program":24,"isDrum":false},{"pitch":62,"velocity":76,"startTime":110.086718,"endTime":110.19541341666668,"instrument":2,"program":24,"isDrum":false},{"pitch":66,"velocity":76,"startTime":110.086718,"endTime":110.19541341666668,"instrument":2,"program":24,"isDrum":false},{"pitch":69,"velocity":76,"startTime":110.086718,"endTime":110.19541341666668,"instrument":2,"program":24,"isDrum":false},{"pitch":72,"velocity":76,"startTime":110.086718,"endTime":110.19541341666668,"instrument":2,"program":24,"isDrum":false},{"pitch":62,"velocity":76,"startTime":110.347587,"endTime":110.70084710416668,"instrument":2,"program":24,"isDrum":false},{"pitch":66,"velocity":76,"startTime":110.347587,"endTime":110.70084710416668,"instrument":2,"program":24,"isDrum":false},{"pitch":69,"velocity":76,"startTime":110.347587,"endTime":110.70084710416668,"instrument":2,"program":24,"isDrum":false},{"pitch":72,"velocity":76,"startTime":110.347587,"endTime":110.70084710416668,"instrument":2,"program":24,"isDrum":false},{"pitch":62,"velocity":76,"startTime":111.13019400000002,"endTime":111.23888941666668,"instrument":2,"program":24,"isDrum":false},{"pitch":66,"velocity":76,"startTime":111.13019400000002,"endTime":111.23888941666668,"instrument":2,"program":24,"isDrum":false},{"pitch":69,"velocity":76,"startTime":111.13019400000002,"endTime":111.23888941666668,"instrument":2,"program":24,"isDrum":false},{"pitch":72,"velocity":76,"startTime":111.13019400000002,"endTime":111.23888941666668,"instrument":2,"program":24,"isDrum":false},{"pitch":62,"velocity":76,"startTime":111.65193200000002,"endTime":111.76062741666668,"instrument":2,"program":24,"isDrum":false},{"pitch":66,"velocity":76,"startTime":111.65193200000002,"endTime":111.76062741666668,"instrument":2,"program":24,"isDrum":false},{"pitch":69,"velocity":76,"startTime":111.65193200000002,"endTime":111.76062741666668,"instrument":2,"program":24,"isDrum":false},{"pitch":72,"velocity":76,"startTime":111.65193200000002,"endTime":111.76062741666668,"instrument":2,"program":24,"isDrum":false},{"pitch":62,"velocity":76,"startTime":112.17367000000002,"endTime":112.28236541666668,"instrument":2,"program":24,"isDrum":false},{"pitch":66,"velocity":76,"startTime":112.17367000000002,"endTime":112.28236541666668,"instrument":2,"program":24,"isDrum":false},{"pitch":69,"velocity":76,"startTime":112.17367000000002,"endTime":112.28236541666668,"instrument":2,"program":24,"isDrum":false},{"pitch":72,"velocity":76,"startTime":112.17367000000002,"endTime":112.28236541666668,"instrument":2,"program":24,"isDrum":false},{"pitch":62,"velocity":76,"startTime":112.43453900000002,"endTime":112.78779910416668,"instrument":2,"program":24,"isDrum":false},{"pitch":67,"velocity":76,"startTime":112.43453900000002,"endTime":112.78779910416668,"instrument":2,"program":24,"isDrum":false},{"pitch":70,"velocity":76,"startTime":112.43453900000002,"endTime":112.78779910416668,"instrument":2,"program":24,"isDrum":false},{"pitch":62,"velocity":76,"startTime":113.21714600000001,"endTime":113.32584141666668,"instrument":2,"program":24,"isDrum":false},{"pitch":67,"velocity":76,"startTime":113.21714600000001,"endTime":113.32584141666668,"instrument":2,"program":24,"isDrum":false},{"pitch":70,"velocity":76,"startTime":113.21714600000001,"endTime":113.32584141666668,"instrument":2,"program":24,"isDrum":false},{"pitch":62,"velocity":76,"startTime":113.73888400000001,"endTime":113.84757941666668,"instrument":2,"program":24,"isDrum":false},{"pitch":67,"velocity":76,"startTime":113.73888400000001,"endTime":113.84757941666668,"instrument":2,"program":24,"isDrum":false},{"pitch":70,"velocity":76,"startTime":113.73888400000001,"endTime":113.84757941666668,"instrument":2,"program":24,"isDrum":false},{"pitch":62,"velocity":76,"startTime":114.26062200000001,"endTime":114.36931741666669,"instrument":2,"program":24,"isDrum":false},{"pitch":67,"velocity":76,"startTime":114.26062200000001,"endTime":114.36931741666669,"instrument":2,"program":24,"isDrum":false},{"pitch":70,"velocity":76,"startTime":114.26062200000001,"endTime":114.36931741666669,"instrument":2,"program":24,"isDrum":false},{"pitch":62,"velocity":76,"startTime":114.52149100000001,"endTime":114.87475110416668,"instrument":2,"program":24,"isDrum":false},{"pitch":67,"velocity":76,"startTime":114.52149100000001,"endTime":114.87475110416668,"instrument":2,"program":24,"isDrum":false},{"pitch":70,"velocity":76,"startTime":114.52149100000001,"endTime":114.87475110416668,"instrument":2,"program":24,"isDrum":false},{"pitch":62,"velocity":76,"startTime":115.30409800000001,"endTime":115.41279341666669,"instrument":2,"program":24,"isDrum":false},{"pitch":67,"velocity":76,"startTime":115.30409800000001,"endTime":115.41279341666669,"instrument":2,"program":24,"isDrum":false},{"pitch":70,"velocity":76,"startTime":115.30409800000001,"endTime":115.41279341666669,"instrument":2,"program":24,"isDrum":false},{"pitch":62,"velocity":76,"startTime":115.82583600000001,"endTime":115.93453141666669,"instrument":2,"program":24,"isDrum":false},{"pitch":67,"velocity":76,"startTime":115.82583600000001,"endTime":115.93453141666669,"instrument":2,"program":24,"isDrum":false},{"pitch":70,"velocity":76,"startTime":115.82583600000001,"endTime":115.93453141666669,"instrument":2,"program":24,"isDrum":false},{"pitch":62,"velocity":76,"startTime":116.34757400000001,"endTime":116.45626941666669,"instrument":2,"program":24,"isDrum":false},{"pitch":67,"velocity":76,"startTime":116.34757400000001,"endTime":116.45626941666669,"instrument":2,"program":24,"isDrum":false},{"pitch":70,"velocity":76,"startTime":116.34757400000001,"endTime":116.45626941666669,"instrument":2,"program":24,"isDrum":false},{"pitch":63,"velocity":76,"startTime":116.60844300000001,"endTime":116.96170310416669,"instrument":2,"program":24,"isDrum":false},{"pitch":67,"velocity":76,"startTime":116.60844300000001,"endTime":116.96170310416669,"instrument":2,"program":24,"isDrum":false},{"pitch":72,"velocity":76,"startTime":116.60844300000001,"endTime":116.96170310416669,"instrument":2,"program":24,"isDrum":false},{"pitch":63,"velocity":76,"startTime":117.39105,"endTime":117.49974541666668,"instrument":2,"program":24,"isDrum":false},{"pitch":67,"velocity":76,"startTime":117.39105,"endTime":117.49974541666668,"instrument":2,"program":24,"isDrum":false},{"pitch":72,"velocity":76,"startTime":117.39105,"endTime":117.49974541666668,"instrument":2,"program":24,"isDrum":false},{"pitch":63,"velocity":76,"startTime":117.912788,"endTime":118.02148341666668,"instrument":2,"program":24,"isDrum":false},{"pitch":67,"velocity":76,"startTime":117.912788,"endTime":118.02148341666668,"instrument":2,"program":24,"isDrum":false},{"pitch":72,"velocity":76,"startTime":117.912788,"endTime":118.02148341666668,"instrument":2,"program":24,"isDrum":false},{"pitch":63,"velocity":76,"startTime":118.434526,"endTime":118.54322141666668,"instrument":2,"program":24,"isDrum":false},{"pitch":67,"velocity":76,"startTime":118.434526,"endTime":118.54322141666668,"instrument":2,"program":24,"isDrum":false},{"pitch":72,"velocity":76,"startTime":118.434526,"endTime":118.54322141666668,"instrument":2,"program":24,"isDrum":false},{"pitch":63,"velocity":76,"startTime":118.695395,"endTime":119.04865510416668,"instrument":2,"program":24,"isDrum":false},{"pitch":67,"velocity":76,"startTime":118.695395,"endTime":119.04865510416668,"instrument":2,"program":24,"isDrum":false},{"pitch":72,"velocity":76,"startTime":118.695395,"endTime":119.04865510416668,"instrument":2,"program":24,"isDrum":false},{"pitch":63,"velocity":76,"startTime":119.47800200000002,"endTime":119.58669741666668,"instrument":2,"program":24,"isDrum":false},{"pitch":67,"velocity":76,"startTime":119.47800200000002,"endTime":119.58669741666668,"instrument":2,"program":24,"isDrum":false},{"pitch":72,"velocity":76,"startTime":119.47800200000002,"endTime":119.58669741666668,"instrument":2,"program":24,"isDrum":false},{"pitch":63,"velocity":76,"startTime":119.99974000000002,"endTime":120.10843541666668,"instrument":2,"program":24,"isDrum":false},{"pitch":67,"velocity":76,"startTime":119.99974000000002,"endTime":120.10843541666668,"instrument":2,"program":24,"isDrum":false},{"pitch":72,"velocity":76,"startTime":119.99974000000002,"endTime":120.10843541666668,"instrument":2,"program":24,"isDrum":false},{"pitch":63,"velocity":76,"startTime":120.52147800000002,"endTime":120.63017341666668,"instrument":2,"program":24,"isDrum":false},{"pitch":67,"velocity":76,"startTime":120.52147800000002,"endTime":120.63017341666668,"instrument":2,"program":24,"isDrum":false},{"pitch":72,"velocity":76,"startTime":120.52147800000002,"endTime":120.63017341666668,"instrument":2,"program":24,"isDrum":false},{"pitch":62,"velocity":76,"startTime":120.78234700000002,"endTime":121.13560710416668,"instrument":2,"program":24,"isDrum":false},{"pitch":67,"velocity":76,"startTime":120.78234700000002,"endTime":121.13560710416668,"instrument":2,"program":24,"isDrum":false},{"pitch":70,"velocity":76,"startTime":120.78234700000002,"endTime":121.13560710416668,"instrument":2,"program":24,"isDrum":false},{"pitch":62,"velocity":76,"startTime":121.56495400000001,"endTime":121.67364941666668,"instrument":2,"program":24,"isDrum":false},{"pitch":67,"velocity":76,"startTime":121.56495400000001,"endTime":121.67364941666668,"instrument":2,"program":24,"isDrum":false},{"pitch":70,"velocity":76,"startTime":121.56495400000001,"endTime":121.67364941666668,"instrument":2,"program":24,"isDrum":false},{"pitch":62,"velocity":76,"startTime":122.08669200000001,"endTime":122.19538741666668,"instrument":2,"program":24,"isDrum":false},{"pitch":67,"velocity":76,"startTime":122.08669200000001,"endTime":122.19538741666668,"instrument":2,"program":24,"isDrum":false},{"pitch":70,"velocity":76,"startTime":122.08669200000001,"endTime":122.19538741666668,"instrument":2,"program":24,"isDrum":false},{"pitch":62,"velocity":76,"startTime":122.60843000000001,"endTime":122.71712541666669,"instrument":2,"program":24,"isDrum":false},{"pitch":67,"velocity":76,"startTime":122.60843000000001,"endTime":122.71712541666669,"instrument":2,"program":24,"isDrum":false},{"pitch":70,"velocity":76,"startTime":122.60843000000001,"endTime":122.71712541666669,"instrument":2,"program":24,"isDrum":false},{"pitch":62,"velocity":76,"startTime":122.86929900000001,"endTime":123.22255910416668,"instrument":2,"program":24,"isDrum":false},{"pitch":67,"velocity":76,"startTime":122.86929900000001,"endTime":123.22255910416668,"instrument":2,"program":24,"isDrum":false},{"pitch":70,"velocity":76,"startTime":122.86929900000001,"endTime":123.22255910416668,"instrument":2,"program":24,"isDrum":false},{"pitch":62,"velocity":76,"startTime":123.65190600000001,"endTime":123.76060141666669,"instrument":2,"program":24,"isDrum":false},{"pitch":67,"velocity":76,"startTime":123.65190600000001,"endTime":123.76060141666669,"instrument":2,"program":24,"isDrum":false},{"pitch":70,"velocity":76,"startTime":123.65190600000001,"endTime":123.76060141666669,"instrument":2,"program":24,"isDrum":false},{"pitch":62,"velocity":76,"startTime":124.17364400000001,"endTime":124.28233941666669,"instrument":2,"program":24,"isDrum":false},{"pitch":67,"velocity":76,"startTime":124.17364400000001,"endTime":124.28233941666669,"instrument":2,"program":24,"isDrum":false},{"pitch":70,"velocity":76,"startTime":124.17364400000001,"endTime":124.28233941666669,"instrument":2,"program":24,"isDrum":false},{"pitch":62,"velocity":76,"startTime":124.69538200000001,"endTime":124.80407741666669,"instrument":2,"program":24,"isDrum":false},{"pitch":67,"velocity":76,"startTime":124.69538200000001,"endTime":124.80407741666669,"instrument":2,"program":24,"isDrum":false},{"pitch":70,"velocity":76,"startTime":124.69538200000001,"endTime":124.80407741666669,"instrument":2,"program":24,"isDrum":false},{"pitch":62,"velocity":76,"startTime":124.95625100000001,"endTime":125.30951110416669,"instrument":2,"program":24,"isDrum":false},{"pitch":66,"velocity":76,"startTime":124.95625100000001,"endTime":125.30951110416669,"instrument":2,"program":24,"isDrum":false},{"pitch":69,"velocity":76,"startTime":124.95625100000001,"endTime":125.30951110416669,"instrument":2,"program":24,"isDrum":false},{"pitch":72,"velocity":76,"startTime":124.95625100000001,"endTime":125.30951110416669,"instrument":2,"program":24,"isDrum":false},{"pitch":62,"velocity":76,"startTime":125.73885800000001,"endTime":125.84755341666668,"instrument":2,"program":24,"isDrum":false},{"pitch":66,"velocity":76,"startTime":125.73885800000001,"endTime":125.84755341666668,"instrument":2,"program":24,"isDrum":false},{"pitch":69,"velocity":76,"startTime":125.73885800000001,"endTime":125.84755341666668,"instrument":2,"program":24,"isDrum":false},{"pitch":72,"velocity":76,"startTime":125.73885800000001,"endTime":125.84755341666668,"instrument":2,"program":24,"isDrum":false},{"pitch":62,"velocity":76,"startTime":126.26059600000002,"endTime":126.36929141666667,"instrument":2,"program":24,"isDrum":false},{"pitch":66,"velocity":76,"startTime":126.26059600000002,"endTime":126.36929141666667,"instrument":2,"program":24,"isDrum":false},{"pitch":69,"velocity":76,"startTime":126.26059600000002,"endTime":126.36929141666667,"instrument":2,"program":24,"isDrum":false},{"pitch":72,"velocity":76,"startTime":126.26059600000002,"endTime":126.36929141666667,"instrument":2,"program":24,"isDrum":false},{"pitch":62,"velocity":76,"startTime":126.78233400000002,"endTime":126.8910294166667,"instrument":2,"program":24,"isDrum":false},{"pitch":66,"velocity":76,"startTime":126.78233400000002,"endTime":126.8910294166667,"instrument":2,"program":24,"isDrum":false},{"pitch":69,"velocity":76,"startTime":126.78233400000002,"endTime":126.8910294166667,"instrument":2,"program":24,"isDrum":false},{"pitch":72,"velocity":76,"startTime":126.78233400000002,"endTime":126.8910294166667,"instrument":2,"program":24,"isDrum":false},{"pitch":62,"velocity":76,"startTime":127.043203,"endTime":127.39646310416668,"instrument":2,"program":24,"isDrum":false},{"pitch":66,"velocity":76,"startTime":127.043203,"endTime":127.39646310416668,"instrument":2,"program":24,"isDrum":false},{"pitch":69,"velocity":76,"startTime":127.043203,"endTime":127.39646310416668,"instrument":2,"program":24,"isDrum":false},{"pitch":72,"velocity":76,"startTime":127.043203,"endTime":127.39646310416668,"instrument":2,"program":24,"isDrum":false},{"pitch":62,"velocity":76,"startTime":127.82581000000002,"endTime":127.9345054166667,"instrument":2,"program":24,"isDrum":false},{"pitch":66,"velocity":76,"startTime":127.82581000000002,"endTime":127.9345054166667,"instrument":2,"program":24,"isDrum":false},{"pitch":69,"velocity":76,"startTime":127.82581000000002,"endTime":127.9345054166667,"instrument":2,"program":24,"isDrum":false},{"pitch":72,"velocity":76,"startTime":127.82581000000002,"endTime":127.9345054166667,"instrument":2,"program":24,"isDrum":false},{"pitch":62,"velocity":76,"startTime":128.34754800000002,"endTime":128.4562434166667,"instrument":2,"program":24,"isDrum":false},{"pitch":66,"velocity":76,"startTime":128.34754800000002,"endTime":128.4562434166667,"instrument":2,"program":24,"isDrum":false},{"pitch":69,"velocity":76,"startTime":128.34754800000002,"endTime":128.4562434166667,"instrument":2,"program":24,"isDrum":false},{"pitch":72,"velocity":76,"startTime":128.34754800000002,"endTime":128.4562434166667,"instrument":2,"program":24,"isDrum":false},{"pitch":62,"velocity":76,"startTime":128.86928600000002,"endTime":128.9779814166667,"instrument":2,"program":24,"isDrum":false},{"pitch":66,"velocity":76,"startTime":128.86928600000002,"endTime":128.9779814166667,"instrument":2,"program":24,"isDrum":false},{"pitch":69,"velocity":76,"startTime":128.86928600000002,"endTime":128.9779814166667,"instrument":2,"program":24,"isDrum":false},{"pitch":72,"velocity":76,"startTime":128.86928600000002,"endTime":128.9779814166667,"instrument":2,"program":24,"isDrum":false},{"pitch":62,"velocity":76,"startTime":129.130155,"endTime":129.48341510416668,"instrument":2,"program":24,"isDrum":false},{"pitch":67,"velocity":76,"startTime":129.130155,"endTime":129.48341510416668,"instrument":2,"program":24,"isDrum":false},{"pitch":70,"velocity":76,"startTime":129.130155,"endTime":129.48341510416668,"instrument":2,"program":24,"isDrum":false},{"pitch":62,"velocity":76,"startTime":131.73884500000003,"endTime":132.09210510416668,"instrument":2,"program":24,"isDrum":false},{"pitch":66,"velocity":76,"startTime":131.999714,"endTime":132.35297410416666,"instrument":2,"program":24,"isDrum":false},{"pitch":69,"velocity":76,"startTime":131.999714,"endTime":132.35297410416666,"instrument":2,"program":24,"isDrum":false},{"pitch":72,"velocity":76,"startTime":131.999714,"endTime":132.35297410416666,"instrument":2,"program":24,"isDrum":false},{"pitch":62,"velocity":76,"startTime":132.521452,"endTime":132.63014741666666,"instrument":2,"program":24,"isDrum":false},{"pitch":67,"velocity":76,"startTime":132.521452,"endTime":132.63014741666666,"instrument":2,"program":24,"isDrum":false},{"pitch":70,"velocity":76,"startTime":132.521452,"endTime":132.63014741666666,"instrument":2,"program":24,"isDrum":false},{"pitch":67,"velocity":76,"startTime":133.564928,"endTime":133.65188433333336,"instrument":2,"program":24,"isDrum":false},{"pitch":66,"velocity":76,"startTime":133.82579700000002,"endTime":133.90731856250002,"instrument":2,"program":24,"isDrum":false},{"pitch":67,"velocity":76,"startTime":134.086666,"endTime":134.18449187500002,"instrument":2,"program":24,"isDrum":false},{"pitch":69,"velocity":76,"startTime":134.34753500000002,"endTime":134.43449133333337,"instrument":2,"program":24,"isDrum":false},{"pitch":70,"velocity":76,"startTime":134.86927300000002,"endTime":135.32579375,"instrument":2,"program":24,"isDrum":false},{"pitch":69,"velocity":76,"startTime":135.39101100000002,"endTime":135.684488625,"instrument":2,"program":24,"isDrum":false},{"pitch":67,"velocity":76,"startTime":135.65188,"endTime":135.77144495833335,"instrument":2,"program":24,"isDrum":false},{"pitch":63,"velocity":76,"startTime":137.738832,"endTime":137.83665787500001,"instrument":2,"program":24,"isDrum":false},{"pitch":62,"velocity":76,"startTime":137.99970100000002,"endTime":138.09209210416668,"instrument":2,"program":24,"isDrum":false},{"pitch":63,"velocity":76,"startTime":138.26057,"endTime":138.358395875,"instrument":2,"program":24,"isDrum":false},{"pitch":65,"velocity":76,"startTime":138.52143900000002,"endTime":138.64100395833336,"instrument":2,"program":24,"isDrum":false},{"pitch":67,"velocity":76,"startTime":139.04317700000001,"endTime":139.4833934375,"instrument":2,"program":24,"isDrum":false},{"pitch":63,"velocity":76,"startTime":139.564915,"endTime":139.793175375,"instrument":2,"program":24,"isDrum":false},{"pitch":62,"velocity":76,"startTime":139.825784,"endTime":139.92904464583336,"instrument":2,"program":24,"isDrum":false},{"pitch":67,"velocity":76,"startTime":141.91273600000002,"endTime":142.00512710416666,"instrument":2,"program":24,"isDrum":false},{"pitch":66,"velocity":76,"startTime":142.173605,"endTime":142.2551265625,"instrument":2,"program":24,"isDrum":false},{"pitch":67,"velocity":76,"startTime":142.43447400000002,"endTime":142.53773464583335,"instrument":2,"program":24,"isDrum":false},{"pitch":69,"velocity":76,"startTime":142.695343,"endTime":142.79316887500002,"instrument":2,"program":24,"isDrum":false},{"pitch":70,"velocity":76,"startTime":143.217081,"endTime":143.66816697916667,"instrument":2,"program":24,"isDrum":false},{"pitch":69,"velocity":76,"startTime":143.738819,"endTime":143.98881845833336,"instrument":2,"program":24,"isDrum":false},{"pitch":67,"velocity":76,"startTime":143.99968800000002,"endTime":144.11925295833336,"instrument":2,"program":24,"isDrum":false},{"pitch":63,"velocity":76,"startTime":146.08664000000002,"endTime":146.184465875,"instrument":2,"program":24,"isDrum":false},{"pitch":62,"velocity":76,"startTime":146.347509,"endTime":146.43990010416667,"instrument":2,"program":24,"isDrum":false},{"pitch":63,"velocity":76,"startTime":146.60837800000002,"endTime":146.69533433333336,"instrument":2,"program":24,"isDrum":false},{"pitch":65,"velocity":76,"startTime":146.869247,"endTime":146.97794241666668,"instrument":2,"program":24,"isDrum":false},{"pitch":67,"velocity":76,"startTime":147.390985,"endTime":147.87467960416666,"instrument":2,"program":24,"isDrum":false},{"pitch":63,"velocity":76,"startTime":147.912723,"endTime":148.15185291666668,"instrument":2,"program":24,"isDrum":false},{"pitch":62,"velocity":76,"startTime":148.173592,"endTime":148.2877221875,"instrument":2,"program":24,"isDrum":false},{"pitch":62,"velocity":76,"startTime":150.260544,"endTime":150.39641327083336,"instrument":2,"program":24,"isDrum":false},{"pitch":67,"velocity":76,"startTime":150.260544,"endTime":150.39641327083336,"instrument":2,"program":24,"isDrum":false},{"pitch":70,"velocity":76,"startTime":150.260544,"endTime":150.40184804166668,"instrument":2,"program":24,"isDrum":false},{"pitch":62,"velocity":76,"startTime":152.347496,"endTime":152.4779305,"instrument":2,"program":24,"isDrum":false},{"pitch":66,"velocity":76,"startTime":152.347496,"endTime":152.4779305,"instrument":2,"program":24,"isDrum":false},{"pitch":69,"velocity":76,"startTime":152.347496,"endTime":152.4779305,"instrument":2,"program":24,"isDrum":false},{"pitch":72,"velocity":76,"startTime":152.347496,"endTime":152.4779305,"instrument":2,"program":24,"isDrum":false},{"pitch":62,"velocity":76,"startTime":153.390972,"endTime":153.5214065,"instrument":2,"program":24,"isDrum":false},{"pitch":66,"velocity":76,"startTime":153.390972,"endTime":153.5214065,"instrument":2,"program":24,"isDrum":false},{"pitch":69,"velocity":76,"startTime":153.390972,"endTime":153.5214065,"instrument":2,"program":24,"isDrum":false},{"pitch":72,"velocity":76,"startTime":153.390972,"endTime":153.5214065,"instrument":2,"program":24,"isDrum":false},{"pitch":62,"velocity":76,"startTime":154.434448,"endTime":154.5648825,"instrument":2,"program":24,"isDrum":false},{"pitch":66,"velocity":76,"startTime":154.434448,"endTime":154.5648825,"instrument":2,"program":24,"isDrum":false},{"pitch":69,"velocity":76,"startTime":154.434448,"endTime":154.5648825,"instrument":2,"program":24,"isDrum":false},{"pitch":72,"velocity":76,"startTime":154.434448,"endTime":154.5648825,"instrument":2,"program":24,"isDrum":false},{"pitch":62,"velocity":76,"startTime":155.477924,"endTime":155.6083585,"instrument":2,"program":24,"isDrum":false},{"pitch":66,"velocity":76,"startTime":155.477924,"endTime":155.6083585,"instrument":2,"program":24,"isDrum":false},{"pitch":69,"velocity":76,"startTime":155.477924,"endTime":155.6083585,"instrument":2,"program":24,"isDrum":false},{"pitch":72,"velocity":76,"startTime":155.477924,"endTime":155.6083585,"instrument":2,"program":24,"isDrum":false},{"pitch":62,"velocity":76,"startTime":156.52140000000003,"endTime":156.6518345,"instrument":2,"program":24,"isDrum":false},{"pitch":67,"velocity":76,"startTime":156.52140000000003,"endTime":156.6518345,"instrument":2,"program":24,"isDrum":false},{"pitch":70,"velocity":76,"startTime":156.52140000000003,"endTime":156.6518345,"instrument":2,"program":24,"isDrum":false},{"pitch":62,"velocity":76,"startTime":157.56487600000003,"endTime":157.6953105,"instrument":2,"program":24,"isDrum":false},{"pitch":67,"velocity":76,"startTime":157.56487600000003,"endTime":157.6953105,"instrument":2,"program":24,"isDrum":false},{"pitch":70,"velocity":76,"startTime":157.56487600000003,"endTime":157.6953105,"instrument":2,"program":24,"isDrum":false},{"pitch":62,"velocity":76,"startTime":158.60835200000002,"endTime":158.7387865,"instrument":2,"program":24,"isDrum":false},{"pitch":67,"velocity":76,"startTime":158.60835200000002,"endTime":158.7387865,"instrument":2,"program":24,"isDrum":false},{"pitch":70,"velocity":76,"startTime":158.60835200000002,"endTime":158.7387865,"instrument":2,"program":24,"isDrum":false},{"pitch":62,"velocity":76,"startTime":159.65182800000002,"endTime":159.7822625,"instrument":2,"program":24,"isDrum":false},{"pitch":67,"velocity":76,"startTime":159.65182800000002,"endTime":159.7822625,"instrument":2,"program":24,"isDrum":false},{"pitch":70,"velocity":76,"startTime":159.65182800000002,"endTime":159.7822625,"instrument":2,"program":24,"isDrum":false},{"pitch":62,"velocity":76,"startTime":160.69530400000002,"endTime":160.82573850000003,"instrument":2,"program":24,"isDrum":false},{"pitch":66,"velocity":76,"startTime":160.69530400000002,"endTime":160.82573850000003,"instrument":2,"program":24,"isDrum":false},{"pitch":69,"velocity":76,"startTime":160.69530400000002,"endTime":160.82573850000003,"instrument":2,"program":24,"isDrum":false},{"pitch":72,"velocity":76,"startTime":160.69530400000002,"endTime":160.82573850000003,"instrument":2,"program":24,"isDrum":false},{"pitch":62,"velocity":76,"startTime":161.73878000000002,"endTime":161.86921450000003,"instrument":2,"program":24,"isDrum":false},{"pitch":66,"velocity":76,"startTime":161.73878000000002,"endTime":161.86921450000003,"instrument":2,"program":24,"isDrum":false},{"pitch":69,"velocity":76,"startTime":161.73878000000002,"endTime":161.86921450000003,"instrument":2,"program":24,"isDrum":false},{"pitch":72,"velocity":76,"startTime":161.73878000000002,"endTime":161.86921450000003,"instrument":2,"program":24,"isDrum":false},{"pitch":62,"velocity":76,"startTime":162.78225600000002,"endTime":162.91269050000002,"instrument":2,"program":24,"isDrum":false},{"pitch":66,"velocity":76,"startTime":162.78225600000002,"endTime":162.91269050000002,"instrument":2,"program":24,"isDrum":false},{"pitch":69,"velocity":76,"startTime":162.78225600000002,"endTime":162.91269050000002,"instrument":2,"program":24,"isDrum":false},{"pitch":72,"velocity":76,"startTime":162.78225600000002,"endTime":162.91269050000002,"instrument":2,"program":24,"isDrum":false},{"pitch":62,"velocity":76,"startTime":163.82573200000002,"endTime":163.95616650000002,"instrument":2,"program":24,"isDrum":false},{"pitch":66,"velocity":76,"startTime":163.82573200000002,"endTime":163.95616650000002,"instrument":2,"program":24,"isDrum":false},{"pitch":69,"velocity":76,"startTime":163.82573200000002,"endTime":163.95616650000002,"instrument":2,"program":24,"isDrum":false},{"pitch":72,"velocity":76,"startTime":163.82573200000002,"endTime":163.95616650000002,"instrument":2,"program":24,"isDrum":false},{"pitch":62,"velocity":76,"startTime":164.86920800000001,"endTime":164.99964250000002,"instrument":2,"program":24,"isDrum":false},{"pitch":67,"velocity":76,"startTime":164.86920800000001,"endTime":164.99964250000002,"instrument":2,"program":24,"isDrum":false},{"pitch":70,"velocity":76,"startTime":164.86920800000001,"endTime":164.99964250000002,"instrument":2,"program":24,"isDrum":false},{"pitch":62,"velocity":76,"startTime":165.13007700000003,"endTime":165.7822495,"instrument":2,"program":24,"isDrum":false},{"pitch":66,"velocity":76,"startTime":165.390946,"endTime":165.749640875,"instrument":2,"program":24,"isDrum":false},{"pitch":69,"velocity":76,"startTime":165.390946,"endTime":165.76051041666668,"instrument":2,"program":24,"isDrum":false},{"pitch":72,"velocity":76,"startTime":165.390946,"endTime":165.72790179166668,"instrument":2,"program":24,"isDrum":false},{"pitch":62,"velocity":76,"startTime":165.912684,"endTime":166.04311850000002,"instrument":2,"program":24,"isDrum":false},{"pitch":67,"velocity":76,"startTime":165.912684,"endTime":166.04311850000002,"instrument":2,"program":24,"isDrum":false},{"pitch":70,"velocity":76,"startTime":165.912684,"endTime":166.04311850000002,"instrument":2,"program":24,"isDrum":false},{"pitch":62,"velocity":76,"startTime":166.95616,"endTime":167.06485541666666,"instrument":2,"program":24,"isDrum":false},{"pitch":66,"velocity":76,"startTime":166.95616,"endTime":167.06485541666666,"instrument":2,"program":24,"isDrum":false},{"pitch":69,"velocity":76,"startTime":166.95616,"endTime":167.06485541666666,"instrument":2,"program":24,"isDrum":false},{"pitch":72,"velocity":76,"startTime":166.95616,"endTime":167.06485541666666,"instrument":2,"program":24,"isDrum":false},{"pitch":62,"velocity":76,"startTime":167.477898,"endTime":167.58659341666666,"instrument":2,"program":24,"isDrum":false},{"pitch":66,"velocity":76,"startTime":167.477898,"endTime":167.58659341666666,"instrument":2,"program":24,"isDrum":false},{"pitch":69,"velocity":76,"startTime":167.477898,"endTime":167.58659341666666,"instrument":2,"program":24,"isDrum":false},{"pitch":72,"velocity":76,"startTime":167.477898,"endTime":167.58659341666666,"instrument":2,"program":24,"isDrum":false},{"pitch":62,"velocity":76,"startTime":167.999636,"endTime":168.10833141666666,"instrument":2,"program":24,"isDrum":false},{"pitch":66,"velocity":76,"startTime":167.999636,"endTime":168.10833141666666,"instrument":2,"program":24,"isDrum":false},{"pitch":69,"velocity":76,"startTime":167.999636,"endTime":168.10833141666666,"instrument":2,"program":24,"isDrum":false},{"pitch":72,"velocity":76,"startTime":167.999636,"endTime":168.10833141666666,"instrument":2,"program":24,"isDrum":false},{"pitch":62,"velocity":76,"startTime":168.521374,"endTime":168.6300694166667,"instrument":2,"program":24,"isDrum":false},{"pitch":66,"velocity":76,"startTime":168.521374,"endTime":168.6300694166667,"instrument":2,"program":24,"isDrum":false},{"pitch":69,"velocity":76,"startTime":168.521374,"endTime":168.6300694166667,"instrument":2,"program":24,"isDrum":false},{"pitch":72,"velocity":76,"startTime":168.521374,"endTime":168.6300694166667,"instrument":2,"program":24,"isDrum":false},{"pitch":62,"velocity":76,"startTime":168.78224300000002,"endTime":169.13550310416667,"instrument":2,"program":24,"isDrum":false},{"pitch":66,"velocity":76,"startTime":168.78224300000002,"endTime":169.13550310416667,"instrument":2,"program":24,"isDrum":false},{"pitch":69,"velocity":76,"startTime":168.78224300000002,"endTime":169.13550310416667,"instrument":2,"program":24,"isDrum":false},{"pitch":72,"velocity":76,"startTime":168.78224300000002,"endTime":169.13550310416667,"instrument":2,"program":24,"isDrum":false},{"pitch":62,"velocity":76,"startTime":169.56485,"endTime":169.67354541666668,"instrument":2,"program":24,"isDrum":false},{"pitch":66,"velocity":76,"startTime":169.56485,"endTime":169.67354541666668,"instrument":2,"program":24,"isDrum":false},{"pitch":69,"velocity":76,"startTime":169.56485,"endTime":169.67354541666668,"instrument":2,"program":24,"isDrum":false},{"pitch":72,"velocity":76,"startTime":169.56485,"endTime":169.67354541666668,"instrument":2,"program":24,"isDrum":false},{"pitch":62,"velocity":76,"startTime":170.086588,"endTime":170.19528341666668,"instrument":2,"program":24,"isDrum":false},{"pitch":66,"velocity":76,"startTime":170.086588,"endTime":170.19528341666668,"instrument":2,"program":24,"isDrum":false},{"pitch":69,"velocity":76,"startTime":170.086588,"endTime":170.19528341666668,"instrument":2,"program":24,"isDrum":false},{"pitch":72,"velocity":76,"startTime":170.086588,"endTime":170.19528341666668,"instrument":2,"program":24,"isDrum":false},{"pitch":62,"velocity":76,"startTime":170.608326,"endTime":170.71702141666668,"instrument":2,"program":24,"isDrum":false},{"pitch":66,"velocity":76,"startTime":170.608326,"endTime":170.71702141666668,"instrument":2,"program":24,"isDrum":false},{"pitch":69,"velocity":76,"startTime":170.608326,"endTime":170.71702141666668,"instrument":2,"program":24,"isDrum":false},{"pitch":72,"velocity":76,"startTime":170.608326,"endTime":170.71702141666668,"instrument":2,"program":24,"isDrum":false},{"pitch":62,"velocity":76,"startTime":170.86919500000002,"endTime":171.22245510416667,"instrument":2,"program":24,"isDrum":false},{"pitch":67,"velocity":76,"startTime":170.86919500000002,"endTime":171.22245510416667,"instrument":2,"program":24,"isDrum":false},{"pitch":70,"velocity":76,"startTime":170.86919500000002,"endTime":171.22245510416667,"instrument":2,"program":24,"isDrum":false},{"pitch":62,"velocity":76,"startTime":171.651802,"endTime":171.76049741666668,"instrument":2,"program":24,"isDrum":false},{"pitch":67,"velocity":76,"startTime":171.651802,"endTime":171.76049741666668,"instrument":2,"program":24,"isDrum":false},{"pitch":70,"velocity":76,"startTime":171.651802,"endTime":171.76049741666668,"instrument":2,"program":24,"isDrum":false},{"pitch":62,"velocity":76,"startTime":172.17354,"endTime":172.28223541666668,"instrument":2,"program":24,"isDrum":false},{"pitch":67,"velocity":76,"startTime":172.17354,"endTime":172.28223541666668,"instrument":2,"program":24,"isDrum":false},{"pitch":70,"velocity":76,"startTime":172.17354,"endTime":172.28223541666668,"instrument":2,"program":24,"isDrum":false},{"pitch":62,"velocity":76,"startTime":172.695278,"endTime":172.80397341666668,"instrument":2,"program":24,"isDrum":false},{"pitch":67,"velocity":76,"startTime":172.695278,"endTime":172.80397341666668,"instrument":2,"program":24,"isDrum":false},{"pitch":70,"velocity":76,"startTime":172.695278,"endTime":172.80397341666668,"instrument":2,"program":24,"isDrum":false},{"pitch":62,"velocity":76,"startTime":172.95614700000002,"endTime":173.30940710416667,"instrument":2,"program":24,"isDrum":false},{"pitch":67,"velocity":76,"startTime":172.95614700000002,"endTime":173.30940710416667,"instrument":2,"program":24,"isDrum":false},{"pitch":70,"velocity":76,"startTime":172.95614700000002,"endTime":173.30940710416667,"instrument":2,"program":24,"isDrum":false},{"pitch":62,"velocity":76,"startTime":173.73875400000003,"endTime":173.84744941666668,"instrument":2,"program":24,"isDrum":false},{"pitch":67,"velocity":76,"startTime":173.73875400000003,"endTime":173.84744941666668,"instrument":2,"program":24,"isDrum":false},{"pitch":70,"velocity":76,"startTime":173.73875400000003,"endTime":173.84744941666668,"instrument":2,"program":24,"isDrum":false},{"pitch":62,"velocity":76,"startTime":174.26049200000003,"endTime":174.36918741666668,"instrument":2,"program":24,"isDrum":false},{"pitch":67,"velocity":76,"startTime":174.26049200000003,"endTime":174.36918741666668,"instrument":2,"program":24,"isDrum":false},{"pitch":70,"velocity":76,"startTime":174.26049200000003,"endTime":174.36918741666668,"instrument":2,"program":24,"isDrum":false},{"pitch":62,"velocity":76,"startTime":174.78223000000003,"endTime":174.89092541666668,"instrument":2,"program":24,"isDrum":false},{"pitch":67,"velocity":76,"startTime":174.78223000000003,"endTime":174.89092541666668,"instrument":2,"program":24,"isDrum":false},{"pitch":70,"velocity":76,"startTime":174.78223000000003,"endTime":174.89092541666668,"instrument":2,"program":24,"isDrum":false},{"pitch":62,"velocity":76,"startTime":175.043099,"endTime":175.39635910416666,"instrument":2,"program":24,"isDrum":false},{"pitch":66,"velocity":76,"startTime":175.043099,"endTime":175.39635910416666,"instrument":2,"program":24,"isDrum":false},{"pitch":69,"velocity":76,"startTime":175.043099,"endTime":175.39635910416666,"instrument":2,"program":24,"isDrum":false},{"pitch":72,"velocity":76,"startTime":175.043099,"endTime":175.39635910416666,"instrument":2,"program":24,"isDrum":false},{"pitch":62,"velocity":76,"startTime":175.82570600000003,"endTime":175.93440141666667,"instrument":2,"program":24,"isDrum":false},{"pitch":66,"velocity":76,"startTime":175.82570600000003,"endTime":175.93440141666667,"instrument":2,"program":24,"isDrum":false},{"pitch":69,"velocity":76,"startTime":175.82570600000003,"endTime":175.93440141666667,"instrument":2,"program":24,"isDrum":false},{"pitch":72,"velocity":76,"startTime":175.82570600000003,"endTime":175.93440141666667,"instrument":2,"program":24,"isDrum":false},{"pitch":62,"velocity":76,"startTime":176.34744400000002,"endTime":176.45613941666667,"instrument":2,"program":24,"isDrum":false},{"pitch":66,"velocity":76,"startTime":176.34744400000002,"endTime":176.45613941666667,"instrument":2,"program":24,"isDrum":false},{"pitch":69,"velocity":76,"startTime":176.34744400000002,"endTime":176.45613941666667,"instrument":2,"program":24,"isDrum":false},{"pitch":72,"velocity":76,"startTime":176.34744400000002,"endTime":176.45613941666667,"instrument":2,"program":24,"isDrum":false},{"pitch":62,"velocity":76,"startTime":176.86918200000002,"endTime":176.97787741666667,"instrument":2,"program":24,"isDrum":false},{"pitch":66,"velocity":76,"startTime":176.86918200000002,"endTime":176.97787741666667,"instrument":2,"program":24,"isDrum":false},{"pitch":69,"velocity":76,"startTime":176.86918200000002,"endTime":176.97787741666667,"instrument":2,"program":24,"isDrum":false},{"pitch":72,"velocity":76,"startTime":176.86918200000002,"endTime":176.97787741666667,"instrument":2,"program":24,"isDrum":false},{"pitch":62,"velocity":76,"startTime":177.130051,"endTime":177.48331110416666,"instrument":2,"program":24,"isDrum":false},{"pitch":66,"velocity":76,"startTime":177.130051,"endTime":177.48331110416666,"instrument":2,"program":24,"isDrum":false},{"pitch":69,"velocity":76,"startTime":177.130051,"endTime":177.48331110416666,"instrument":2,"program":24,"isDrum":false},{"pitch":72,"velocity":76,"startTime":177.130051,"endTime":177.48331110416666,"instrument":2,"program":24,"isDrum":false},{"pitch":62,"velocity":76,"startTime":177.91265800000002,"endTime":178.02135341666667,"instrument":2,"program":24,"isDrum":false},{"pitch":66,"velocity":76,"startTime":177.91265800000002,"endTime":178.02135341666667,"instrument":2,"program":24,"isDrum":false},{"pitch":69,"velocity":76,"startTime":177.91265800000002,"endTime":178.02135341666667,"instrument":2,"program":24,"isDrum":false},{"pitch":72,"velocity":76,"startTime":177.91265800000002,"endTime":178.02135341666667,"instrument":2,"program":24,"isDrum":false},{"pitch":62,"velocity":76,"startTime":178.43439600000002,"endTime":178.54309141666667,"instrument":2,"program":24,"isDrum":false},{"pitch":66,"velocity":76,"startTime":178.43439600000002,"endTime":178.54309141666667,"instrument":2,"program":24,"isDrum":false},{"pitch":69,"velocity":76,"startTime":178.43439600000002,"endTime":178.54309141666667,"instrument":2,"program":24,"isDrum":false},{"pitch":72,"velocity":76,"startTime":178.43439600000002,"endTime":178.54309141666667,"instrument":2,"program":24,"isDrum":false},{"pitch":62,"velocity":76,"startTime":178.95613400000002,"endTime":179.06482941666667,"instrument":2,"program":24,"isDrum":false},{"pitch":66,"velocity":76,"startTime":178.95613400000002,"endTime":179.06482941666667,"instrument":2,"program":24,"isDrum":false},{"pitch":69,"velocity":76,"startTime":178.95613400000002,"endTime":179.06482941666667,"instrument":2,"program":24,"isDrum":false},{"pitch":72,"velocity":76,"startTime":178.95613400000002,"endTime":179.06482941666667,"instrument":2,"program":24,"isDrum":false},{"pitch":62,"velocity":76,"startTime":179.217003,"endTime":179.57026310416668,"instrument":2,"program":24,"isDrum":false},{"pitch":67,"velocity":76,"startTime":179.217003,"endTime":179.57026310416668,"instrument":2,"program":24,"isDrum":false},{"pitch":70,"velocity":76,"startTime":179.217003,"endTime":179.57026310416668,"instrument":2,"program":24,"isDrum":false},{"pitch":62,"velocity":76,"startTime":179.99961000000002,"endTime":180.10830541666667,"instrument":2,"program":24,"isDrum":false},{"pitch":67,"velocity":76,"startTime":179.99961000000002,"endTime":180.10830541666667,"instrument":2,"program":24,"isDrum":false},{"pitch":70,"velocity":76,"startTime":179.99961000000002,"endTime":180.10830541666667,"instrument":2,"program":24,"isDrum":false},{"pitch":62,"velocity":76,"startTime":180.52134800000002,"endTime":180.63004341666667,"instrument":2,"program":24,"isDrum":false},{"pitch":67,"velocity":76,"startTime":180.52134800000002,"endTime":180.63004341666667,"instrument":2,"program":24,"isDrum":false},{"pitch":70,"velocity":76,"startTime":180.52134800000002,"endTime":180.63004341666667,"instrument":2,"program":24,"isDrum":false},{"pitch":62,"velocity":76,"startTime":181.04308600000002,"endTime":181.15178141666667,"instrument":2,"program":24,"isDrum":false},{"pitch":67,"velocity":76,"startTime":181.04308600000002,"endTime":181.15178141666667,"instrument":2,"program":24,"isDrum":false},{"pitch":70,"velocity":76,"startTime":181.04308600000002,"endTime":181.15178141666667,"instrument":2,"program":24,"isDrum":false},{"pitch":62,"velocity":76,"startTime":181.303955,"endTime":181.65721510416668,"instrument":2,"program":24,"isDrum":false},{"pitch":67,"velocity":76,"startTime":181.303955,"endTime":181.65721510416668,"instrument":2,"program":24,"isDrum":false},{"pitch":70,"velocity":76,"startTime":181.303955,"endTime":181.65721510416668,"instrument":2,"program":24,"isDrum":false},{"pitch":62,"velocity":76,"startTime":182.08656200000001,"endTime":182.19525741666666,"instrument":2,"program":24,"isDrum":false},{"pitch":67,"velocity":76,"startTime":182.08656200000001,"endTime":182.19525741666666,"instrument":2,"program":24,"isDrum":false},{"pitch":70,"velocity":76,"startTime":182.08656200000001,"endTime":182.19525741666666,"instrument":2,"program":24,"isDrum":false},{"pitch":62,"velocity":76,"startTime":182.6083,"endTime":182.71699541666666,"instrument":2,"program":24,"isDrum":false},{"pitch":67,"velocity":76,"startTime":182.6083,"endTime":182.71699541666666,"instrument":2,"program":24,"isDrum":false},{"pitch":70,"velocity":76,"startTime":182.6083,"endTime":182.71699541666666,"instrument":2,"program":24,"isDrum":false},{"pitch":62,"velocity":76,"startTime":183.130038,"endTime":183.23873341666666,"instrument":2,"program":24,"isDrum":false},{"pitch":67,"velocity":76,"startTime":183.130038,"endTime":183.23873341666666,"instrument":2,"program":24,"isDrum":false},{"pitch":70,"velocity":76,"startTime":183.130038,"endTime":183.23873341666666,"instrument":2,"program":24,"isDrum":false},{"pitch":63,"velocity":76,"startTime":183.39090700000003,"endTime":183.74416710416668,"instrument":2,"program":24,"isDrum":false},{"pitch":67,"velocity":76,"startTime":183.39090700000003,"endTime":183.74416710416668,"instrument":2,"program":24,"isDrum":false},{"pitch":72,"velocity":76,"startTime":183.39090700000003,"endTime":183.74416710416668,"instrument":2,"program":24,"isDrum":false},{"pitch":63,"velocity":76,"startTime":184.173514,"endTime":184.28220941666666,"instrument":2,"program":24,"isDrum":false},{"pitch":67,"velocity":76,"startTime":184.173514,"endTime":184.28220941666666,"instrument":2,"program":24,"isDrum":false},{"pitch":72,"velocity":76,"startTime":184.173514,"endTime":184.28220941666666,"instrument":2,"program":24,"isDrum":false},{"pitch":63,"velocity":76,"startTime":184.695252,"endTime":184.80394741666666,"instrument":2,"program":24,"isDrum":false},{"pitch":67,"velocity":76,"startTime":184.695252,"endTime":184.80394741666666,"instrument":2,"program":24,"isDrum":false},{"pitch":72,"velocity":76,"startTime":184.695252,"endTime":184.80394741666666,"instrument":2,"program":24,"isDrum":false},{"pitch":63,"velocity":76,"startTime":185.21699,"endTime":185.3256854166667,"instrument":2,"program":24,"isDrum":false},{"pitch":67,"velocity":76,"startTime":185.21699,"endTime":185.3256854166667,"instrument":2,"program":24,"isDrum":false},{"pitch":72,"velocity":76,"startTime":185.21699,"endTime":185.3256854166667,"instrument":2,"program":24,"isDrum":false},{"pitch":63,"velocity":76,"startTime":185.47785900000002,"endTime":185.83111910416667,"instrument":2,"program":24,"isDrum":false},{"pitch":67,"velocity":76,"startTime":185.47785900000002,"endTime":185.83111910416667,"instrument":2,"program":24,"isDrum":false},{"pitch":72,"velocity":76,"startTime":185.47785900000002,"endTime":185.83111910416667,"instrument":2,"program":24,"isDrum":false},{"pitch":63,"velocity":76,"startTime":186.260466,"endTime":186.36916141666669,"instrument":2,"program":24,"isDrum":false},{"pitch":67,"velocity":76,"startTime":186.260466,"endTime":186.36916141666669,"instrument":2,"program":24,"isDrum":false},{"pitch":72,"velocity":76,"startTime":186.260466,"endTime":186.36916141666669,"instrument":2,"program":24,"isDrum":false},{"pitch":63,"velocity":76,"startTime":186.782204,"endTime":186.89089941666668,"instrument":2,"program":24,"isDrum":false},{"pitch":67,"velocity":76,"startTime":186.782204,"endTime":186.89089941666668,"instrument":2,"program":24,"isDrum":false},{"pitch":72,"velocity":76,"startTime":186.782204,"endTime":186.89089941666668,"instrument":2,"program":24,"isDrum":false},{"pitch":63,"velocity":76,"startTime":187.303942,"endTime":187.41263741666668,"instrument":2,"program":24,"isDrum":false},{"pitch":67,"velocity":76,"startTime":187.303942,"endTime":187.41263741666668,"instrument":2,"program":24,"isDrum":false},{"pitch":72,"velocity":76,"startTime":187.303942,"endTime":187.41263741666668,"instrument":2,"program":24,"isDrum":false},{"pitch":62,"velocity":76,"startTime":187.56481100000002,"endTime":187.91807110416667,"instrument":2,"program":24,"isDrum":false},{"pitch":67,"velocity":76,"startTime":187.56481100000002,"endTime":187.91807110416667,"instrument":2,"program":24,"isDrum":false},{"pitch":70,"velocity":76,"startTime":187.56481100000002,"endTime":187.91807110416667,"instrument":2,"program":24,"isDrum":false},{"pitch":62,"velocity":76,"startTime":188.347418,"endTime":188.45611341666668,"instrument":2,"program":24,"isDrum":false},{"pitch":67,"velocity":76,"startTime":188.347418,"endTime":188.45611341666668,"instrument":2,"program":24,"isDrum":false},{"pitch":70,"velocity":76,"startTime":188.347418,"endTime":188.45611341666668,"instrument":2,"program":24,"isDrum":false},{"pitch":62,"velocity":76,"startTime":188.869156,"endTime":188.97785141666668,"instrument":2,"program":24,"isDrum":false},{"pitch":67,"velocity":76,"startTime":188.869156,"endTime":188.97785141666668,"instrument":2,"program":24,"isDrum":false},{"pitch":70,"velocity":76,"startTime":188.869156,"endTime":188.97785141666668,"instrument":2,"program":24,"isDrum":false},{"pitch":62,"velocity":76,"startTime":189.390894,"endTime":189.49958941666668,"instrument":2,"program":24,"isDrum":false},{"pitch":67,"velocity":76,"startTime":189.390894,"endTime":189.49958941666668,"instrument":2,"program":24,"isDrum":false},{"pitch":70,"velocity":76,"startTime":189.390894,"endTime":189.49958941666668,"instrument":2,"program":24,"isDrum":false},{"pitch":62,"velocity":76,"startTime":189.65176300000002,"endTime":190.00502310416667,"instrument":2,"program":24,"isDrum":false},{"pitch":67,"velocity":76,"startTime":189.65176300000002,"endTime":190.00502310416667,"instrument":2,"program":24,"isDrum":false},{"pitch":70,"velocity":76,"startTime":189.65176300000002,"endTime":190.00502310416667,"instrument":2,"program":24,"isDrum":false},{"pitch":62,"velocity":76,"startTime":190.43437000000003,"endTime":190.54306541666668,"instrument":2,"program":24,"isDrum":false},{"pitch":67,"velocity":76,"startTime":190.43437000000003,"endTime":190.54306541666668,"instrument":2,"program":24,"isDrum":false},{"pitch":70,"velocity":76,"startTime":190.43437000000003,"endTime":190.54306541666668,"instrument":2,"program":24,"isDrum":false},{"pitch":62,"velocity":76,"startTime":190.95610800000003,"endTime":191.06480341666668,"instrument":2,"program":24,"isDrum":false},{"pitch":67,"velocity":76,"startTime":190.95610800000003,"endTime":191.06480341666668,"instrument":2,"program":24,"isDrum":false},{"pitch":70,"velocity":76,"startTime":190.95610800000003,"endTime":191.06480341666668,"instrument":2,"program":24,"isDrum":false},{"pitch":62,"velocity":76,"startTime":191.47784600000003,"endTime":191.58654141666668,"instrument":2,"program":24,"isDrum":false},{"pitch":67,"velocity":76,"startTime":191.47784600000003,"endTime":191.58654141666668,"instrument":2,"program":24,"isDrum":false},{"pitch":70,"velocity":76,"startTime":191.47784600000003,"endTime":191.58654141666668,"instrument":2,"program":24,"isDrum":false},{"pitch":62,"velocity":76,"startTime":191.738715,"endTime":192.09197510416666,"instrument":2,"program":24,"isDrum":false},{"pitch":66,"velocity":76,"startTime":191.738715,"endTime":192.09197510416666,"instrument":2,"program":24,"isDrum":false},{"pitch":69,"velocity":76,"startTime":191.738715,"endTime":192.09197510416666,"instrument":2,"program":24,"isDrum":false},{"pitch":72,"velocity":76,"startTime":191.738715,"endTime":192.09197510416666,"instrument":2,"program":24,"isDrum":false},{"pitch":62,"velocity":76,"startTime":192.52132200000003,"endTime":192.63001741666667,"instrument":2,"program":24,"isDrum":false},{"pitch":66,"velocity":76,"startTime":192.52132200000003,"endTime":192.63001741666667,"instrument":2,"program":24,"isDrum":false},{"pitch":69,"velocity":76,"startTime":192.52132200000003,"endTime":192.63001741666667,"instrument":2,"program":24,"isDrum":false},{"pitch":72,"velocity":76,"startTime":192.52132200000003,"endTime":192.63001741666667,"instrument":2,"program":24,"isDrum":false},{"pitch":62,"velocity":76,"startTime":193.04306000000003,"endTime":193.15175541666667,"instrument":2,"program":24,"isDrum":false},{"pitch":66,"velocity":76,"startTime":193.04306000000003,"endTime":193.15175541666667,"instrument":2,"program":24,"isDrum":false},{"pitch":69,"velocity":76,"startTime":193.04306000000003,"endTime":193.15175541666667,"instrument":2,"program":24,"isDrum":false},{"pitch":72,"velocity":76,"startTime":193.04306000000003,"endTime":193.15175541666667,"instrument":2,"program":24,"isDrum":false},{"pitch":62,"velocity":76,"startTime":193.56479800000002,"endTime":193.67349341666667,"instrument":2,"program":24,"isDrum":false},{"pitch":66,"velocity":76,"startTime":193.56479800000002,"endTime":193.67349341666667,"instrument":2,"program":24,"isDrum":false},{"pitch":69,"velocity":76,"startTime":193.56479800000002,"endTime":193.67349341666667,"instrument":2,"program":24,"isDrum":false},{"pitch":72,"velocity":76,"startTime":193.56479800000002,"endTime":193.67349341666667,"instrument":2,"program":24,"isDrum":false},{"pitch":62,"velocity":76,"startTime":193.825667,"endTime":194.17892710416666,"instrument":2,"program":24,"isDrum":false},{"pitch":66,"velocity":76,"startTime":193.825667,"endTime":194.17892710416666,"instrument":2,"program":24,"isDrum":false},{"pitch":69,"velocity":76,"startTime":193.825667,"endTime":194.17892710416666,"instrument":2,"program":24,"isDrum":false},{"pitch":72,"velocity":76,"startTime":193.825667,"endTime":194.17892710416666,"instrument":2,"program":24,"isDrum":false},{"pitch":62,"velocity":76,"startTime":194.60827400000002,"endTime":194.71696941666667,"instrument":2,"program":24,"isDrum":false},{"pitch":66,"velocity":76,"startTime":194.60827400000002,"endTime":194.71696941666667,"instrument":2,"program":24,"isDrum":false},{"pitch":69,"velocity":76,"startTime":194.60827400000002,"endTime":194.71696941666667,"instrument":2,"program":24,"isDrum":false},{"pitch":72,"velocity":76,"startTime":194.60827400000002,"endTime":194.71696941666667,"instrument":2,"program":24,"isDrum":false},{"pitch":62,"velocity":76,"startTime":195.13001200000002,"endTime":195.23870741666667,"instrument":2,"program":24,"isDrum":false},{"pitch":66,"velocity":76,"startTime":195.13001200000002,"endTime":195.23870741666667,"instrument":2,"program":24,"isDrum":false},{"pitch":69,"velocity":76,"startTime":195.13001200000002,"endTime":195.23870741666667,"instrument":2,"program":24,"isDrum":false},{"pitch":72,"velocity":76,"startTime":195.13001200000002,"endTime":195.23870741666667,"instrument":2,"program":24,"isDrum":false},{"pitch":62,"velocity":76,"startTime":195.65175000000002,"endTime":195.76044541666667,"instrument":2,"program":24,"isDrum":false},{"pitch":66,"velocity":76,"startTime":195.65175000000002,"endTime":195.76044541666667,"instrument":2,"program":24,"isDrum":false},{"pitch":69,"velocity":76,"startTime":195.65175000000002,"endTime":195.76044541666667,"instrument":2,"program":24,"isDrum":false},{"pitch":72,"velocity":76,"startTime":195.65175000000002,"endTime":195.76044541666667,"instrument":2,"program":24,"isDrum":false},{"pitch":62,"velocity":76,"startTime":195.912619,"endTime":196.2658791041667,"instrument":2,"program":24,"isDrum":false},{"pitch":67,"velocity":76,"startTime":195.912619,"endTime":196.2658791041667,"instrument":2,"program":24,"isDrum":false},{"pitch":70,"velocity":76,"startTime":195.912619,"endTime":196.2658791041667,"instrument":2,"program":24,"isDrum":false},{"pitch":62,"velocity":76,"startTime":198.52130900000003,"endTime":198.87456910416668,"instrument":2,"program":24,"isDrum":false},{"pitch":66,"velocity":76,"startTime":198.78217800000002,"endTime":199.13543810416667,"instrument":2,"program":24,"isDrum":false},{"pitch":69,"velocity":76,"startTime":198.78217800000002,"endTime":199.13543810416667,"instrument":2,"program":24,"isDrum":false},{"pitch":72,"velocity":76,"startTime":198.78217800000002,"endTime":199.13543810416667,"instrument":2,"program":24,"isDrum":false},{"pitch":62,"velocity":76,"startTime":199.30391600000002,"endTime":199.41261141666666,"instrument":2,"program":24,"isDrum":false},{"pitch":67,"velocity":76,"startTime":199.30391600000002,"endTime":199.41261141666666,"instrument":2,"program":24,"isDrum":false},{"pitch":70,"velocity":76,"startTime":199.30391600000002,"endTime":199.41261141666666,"instrument":2,"program":24,"isDrum":false},{"pitch":57,"velocity":56,"startTime":0,"endTime":4.173904,"instrument":3,"program":99,"isDrum":false},{"pitch":60,"velocity":56,"startTime":0,"endTime":4.152164916666667,"instrument":3,"program":99,"isDrum":false},{"pitch":62,"velocity":56,"startTime":0,"endTime":4.130425833333334,"instrument":3,"program":99,"isDrum":false},{"pitch":66,"velocity":56,"startTime":0,"endTime":4.152164916666667,"instrument":3,"program":99,"isDrum":false},{"pitch":58,"velocity":56,"startTime":4.173904,"endTime":8.347808,"instrument":3,"program":99,"isDrum":false},{"pitch":62,"velocity":56,"startTime":4.173904,"endTime":16.695616,"instrument":3,"program":99,"isDrum":false},{"pitch":67,"velocity":56,"startTime":4.173904,"endTime":8.347808,"instrument":3,"program":99,"isDrum":false},{"pitch":60,"velocity":56,"startTime":8.347808,"endTime":12.499972916666668,"instrument":3,"program":99,"isDrum":false},{"pitch":66,"velocity":56,"startTime":8.347808,"endTime":12.521712,"instrument":3,"program":99,"isDrum":false},{"pitch":69,"velocity":56,"startTime":8.347808,"endTime":12.499972916666668,"instrument":3,"program":99,"isDrum":false},{"pitch":58,"velocity":56,"startTime":12.521712,"endTime":16.695616,"instrument":3,"program":99,"isDrum":false},{"pitch":67,"velocity":56,"startTime":12.521712,"endTime":20.836911375,"instrument":3,"program":99,"isDrum":false},{"pitch":60,"velocity":56,"startTime":16.695616,"endTime":20.826041833333335,"instrument":3,"program":99,"isDrum":false},{"pitch":63,"velocity":56,"startTime":16.695616,"endTime":20.836911375,"instrument":3,"program":99,"isDrum":false},{"pitch":62,"velocity":56,"startTime":20.86952,"endTime":29.402110208333333,"instrument":3,"program":99,"isDrum":false},{"pitch":67,"velocity":56,"startTime":20.86952,"endTime":25.010815375,"instrument":3,"program":99,"isDrum":false},{"pitch":70,"velocity":56,"startTime":20.86952,"endTime":25.02168491666667,"instrument":3,"program":99,"isDrum":false},{"pitch":66,"velocity":56,"startTime":25.043424,"endTime":29.206458458333334,"instrument":3,"program":99,"isDrum":false},{"pitch":69,"velocity":56,"startTime":25.043424,"endTime":29.233632312500003,"instrument":3,"program":99,"isDrum":false},{"pitch":72,"velocity":56,"startTime":25.043424,"endTime":29.239067083333335,"instrument":3,"program":99,"isDrum":false},{"pitch":67,"velocity":56,"startTime":29.217328000000002,"endTime":29.434718833333335,"instrument":3,"program":99,"isDrum":false},{"pitch":70,"velocity":56,"startTime":29.217328000000002,"endTime":29.445588375000003,"instrument":3,"program":99,"isDrum":false},{"pitch":62,"velocity":56,"startTime":31.565149,"endTime":32.293408291666665,"instrument":3,"program":99,"isDrum":false},{"pitch":60,"velocity":56,"startTime":31.826018,"endTime":32.304277833333344,"instrument":3,"program":99,"isDrum":false},{"pitch":66,"velocity":56,"startTime":31.826018,"endTime":32.293408291666665,"instrument":3,"program":99,"isDrum":false},{"pitch":58,"velocity":56,"startTime":32.347756000000004,"endTime":32.49449481250001,"instrument":3,"program":99,"isDrum":false},{"pitch":62,"velocity":56,"startTime":32.347756000000004,"endTime":32.48906004166666,"instrument":3,"program":99,"isDrum":false},{"pitch":67,"velocity":56,"startTime":32.347756000000004,"endTime":32.48906004166666,"instrument":3,"program":99,"isDrum":false},{"pitch":57,"velocity":56,"startTime":33.391232,"endTime":37.56513600000001,"instrument":3,"program":99,"isDrum":false},{"pitch":60,"velocity":56,"startTime":33.391232,"endTime":37.543396916666666,"instrument":3,"program":99,"isDrum":false},{"pitch":62,"velocity":56,"startTime":33.391232,"endTime":37.521657833333336,"instrument":3,"program":99,"isDrum":false},{"pitch":66,"velocity":56,"startTime":33.391232,"endTime":37.543396916666666,"instrument":3,"program":99,"isDrum":false},{"pitch":58,"velocity":56,"startTime":37.56513600000001,"endTime":41.73904,"instrument":3,"program":99,"isDrum":false},{"pitch":62,"velocity":56,"startTime":37.56513600000001,"endTime":50.086848,"instrument":3,"program":99,"isDrum":false},{"pitch":67,"velocity":56,"startTime":37.56513600000001,"endTime":41.73904,"instrument":3,"program":99,"isDrum":false},{"pitch":60,"velocity":56,"startTime":41.73904,"endTime":45.891204916666666,"instrument":3,"program":99,"isDrum":false},{"pitch":66,"velocity":56,"startTime":41.73904,"endTime":45.91294400000001,"instrument":3,"program":99,"isDrum":false},{"pitch":69,"velocity":56,"startTime":41.73904,"endTime":45.891204916666666,"instrument":3,"program":99,"isDrum":false},{"pitch":58,"velocity":56,"startTime":45.91294400000001,"endTime":50.086848,"instrument":3,"program":99,"isDrum":false},{"pitch":67,"velocity":56,"startTime":45.91294400000001,"endTime":54.228143375,"instrument":3,"program":99,"isDrum":false},{"pitch":60,"velocity":56,"startTime":50.086848,"endTime":54.21727383333334,"instrument":3,"program":99,"isDrum":false},{"pitch":63,"velocity":56,"startTime":50.086848,"endTime":54.228143375,"instrument":3,"program":99,"isDrum":false},{"pitch":62,"velocity":56,"startTime":54.26075200000001,"endTime":62.79334220833334,"instrument":3,"program":99,"isDrum":false},{"pitch":67,"velocity":56,"startTime":54.26075200000001,"endTime":58.40204737500001,"instrument":3,"program":99,"isDrum":false},{"pitch":70,"velocity":56,"startTime":54.26075200000001,"endTime":58.412916916666674,"instrument":3,"program":99,"isDrum":false},{"pitch":66,"velocity":56,"startTime":58.434656000000004,"endTime":62.597690458333346,"instrument":3,"program":99,"isDrum":false},{"pitch":69,"velocity":56,"startTime":58.434656000000004,"endTime":62.62486431250001,"instrument":3,"program":99,"isDrum":false},{"pitch":72,"velocity":56,"startTime":58.434656000000004,"endTime":62.63029908333334,"instrument":3,"program":99,"isDrum":false},{"pitch":67,"velocity":56,"startTime":62.60856000000001,"endTime":62.82595083333334,"instrument":3,"program":99,"isDrum":false},{"pitch":70,"velocity":56,"startTime":62.60856000000001,"endTime":62.836820375,"instrument":3,"program":99,"isDrum":false},{"pitch":62,"velocity":56,"startTime":64.95638100000001,"endTime":65.68464029166668,"instrument":3,"program":99,"isDrum":false},{"pitch":60,"velocity":56,"startTime":65.21725,"endTime":65.69550983333333,"instrument":3,"program":99,"isDrum":false},{"pitch":66,"velocity":56,"startTime":65.21725,"endTime":65.68464029166668,"instrument":3,"program":99,"isDrum":false},{"pitch":58,"velocity":56,"startTime":65.738988,"endTime":65.88572681250001,"instrument":3,"program":99,"isDrum":false},{"pitch":62,"velocity":56,"startTime":65.738988,"endTime":65.88029204166668,"instrument":3,"program":99,"isDrum":false},{"pitch":67,"velocity":56,"startTime":65.738988,"endTime":65.88029204166668,"instrument":3,"program":99,"isDrum":false},{"pitch":43,"velocity":56,"startTime":66.782464,"endTime":67.63028825,"instrument":3,"program":99,"isDrum":false},{"pitch":55,"velocity":56,"startTime":66.782464,"endTime":67.57594054166668,"instrument":3,"program":99,"isDrum":false},{"pitch":67,"velocity":56,"startTime":66.782464,"endTime":67.82594,"instrument":3,"program":99,"isDrum":false},{"pitch":41,"velocity":56,"startTime":67.82594,"endTime":68.67376425,"instrument":3,"program":99,"isDrum":false},{"pitch":53,"velocity":56,"startTime":67.82594,"endTime":68.53246020833333,"instrument":3,"program":99,"isDrum":false},{"pitch":65,"velocity":56,"startTime":67.82594,"endTime":68.88028554166668,"instrument":3,"program":99,"isDrum":false},{"pitch":40,"velocity":56,"startTime":68.869416,"endTime":69.62484914583334,"instrument":3,"program":99,"isDrum":false},{"pitch":52,"velocity":56,"startTime":68.869416,"endTime":69.51615372916667,"instrument":3,"program":99,"isDrum":false},{"pitch":64,"velocity":56,"startTime":68.869416,"endTime":69.83680520833333,"instrument":3,"program":99,"isDrum":false},{"pitch":39,"velocity":56,"startTime":69.91289200000001,"endTime":70.43463000000001,"instrument":3,"program":99,"isDrum":false},{"pitch":51,"velocity":56,"startTime":69.91289200000001,"endTime":70.402021375,"instrument":3,"program":99,"isDrum":false},{"pitch":63,"velocity":56,"startTime":69.91289200000001,"endTime":70.45636908333334,"instrument":3,"program":99,"isDrum":false},{"pitch":38,"velocity":56,"startTime":70.43463000000001,"endTime":70.988976625,"instrument":3,"program":99,"isDrum":false},{"pitch":50,"velocity":56,"startTime":70.43463000000001,"endTime":70.988976625,"instrument":3,"program":99,"isDrum":false},{"pitch":62,"velocity":56,"startTime":70.43463000000001,"endTime":70.95636800000001,"instrument":3,"program":99,"isDrum":false},{"pitch":43,"velocity":56,"startTime":70.95636800000001,"endTime":71.27701947916668,"instrument":3,"program":99,"isDrum":false},{"pitch":55,"velocity":56,"startTime":70.95636800000001,"endTime":71.2661499375,"instrument":3,"program":99,"isDrum":false},{"pitch":67,"velocity":56,"startTime":70.95636800000001,"endTime":71.27701947916668,"instrument":3,"program":99,"isDrum":false},{"pitch":60,"velocity":56,"startTime":73.04332000000001,"endTime":81.12482422916668,"instrument":3,"program":99,"isDrum":false},{"pitch":62,"velocity":56,"startTime":73.04332000000001,"endTime":83.315036875,"instrument":3,"program":99,"isDrum":false},{"pitch":66,"velocity":56,"startTime":73.04332000000001,"endTime":81.25525872916668,"instrument":3,"program":99,"isDrum":false},{"pitch":69,"velocity":56,"startTime":79.30417600000001,"endTime":81.30417166666668,"instrument":3,"program":99,"isDrum":false},{"pitch":58,"velocity":56,"startTime":81.39112800000001,"endTime":83.39112366666669,"instrument":3,"program":99,"isDrum":false},{"pitch":67,"velocity":56,"startTime":81.39112800000001,"endTime":83.46721045833334,"instrument":3,"program":99,"isDrum":false},{"pitch":43,"velocity":56,"startTime":83.47808,"endTime":84.521556,"instrument":3,"program":99,"isDrum":false},{"pitch":55,"velocity":56,"startTime":83.47808,"endTime":84.49981691666667,"instrument":3,"program":99,"isDrum":false},{"pitch":67,"velocity":56,"startTime":83.47808,"endTime":84.48894737500001,"instrument":3,"program":99,"isDrum":false},{"pitch":41,"velocity":56,"startTime":84.521556,"endTime":85.53242337500001,"instrument":3,"program":99,"isDrum":false},{"pitch":53,"velocity":56,"startTime":84.521556,"endTime":85.59764062500001,"instrument":3,"program":99,"isDrum":false},{"pitch":65,"velocity":56,"startTime":84.521556,"endTime":85.565032,"instrument":3,"program":99,"isDrum":false},{"pitch":40,"velocity":56,"startTime":85.565032,"endTime":86.56502983333334,"instrument":3,"program":99,"isDrum":false},{"pitch":52,"velocity":56,"startTime":85.565032,"endTime":86.58676891666668,"instrument":3,"program":99,"isDrum":false},{"pitch":64,"velocity":56,"startTime":85.565032,"endTime":86.58133414583334,"instrument":3,"program":99,"isDrum":false},{"pitch":39,"velocity":56,"startTime":86.60850800000001,"endTime":87.08676783333334,"instrument":3,"program":99,"isDrum":false},{"pitch":51,"velocity":56,"startTime":86.60850800000001,"endTime":87.06502875000001,"instrument":3,"program":99,"isDrum":false},{"pitch":63,"velocity":56,"startTime":86.60850800000001,"endTime":87.12481122916668,"instrument":3,"program":99,"isDrum":false},{"pitch":38,"velocity":56,"startTime":87.13024600000001,"endTime":87.60850583333334,"instrument":3,"program":99,"isDrum":false},{"pitch":50,"velocity":56,"startTime":87.13024600000001,"endTime":87.59763629166667,"instrument":3,"program":99,"isDrum":false},{"pitch":62,"velocity":56,"startTime":87.13024600000001,"endTime":87.64654922916668,"instrument":3,"program":99,"isDrum":false},{"pitch":43,"velocity":56,"startTime":87.65198400000001,"endTime":87.93459208333334,"instrument":3,"program":99,"isDrum":false},{"pitch":55,"velocity":56,"startTime":87.65198400000001,"endTime":87.92915731250001,"instrument":3,"program":99,"isDrum":false},{"pitch":67,"velocity":56,"startTime":87.65198400000001,"endTime":87.9617659375,"instrument":3,"program":99,"isDrum":false},{"pitch":60,"velocity":56,"startTime":89.73893600000001,"endTime":91.98893112500001,"instrument":3,"program":99,"isDrum":false},{"pitch":63,"velocity":56,"startTime":89.73893600000001,"endTime":91.98893112500001,"instrument":3,"program":99,"isDrum":false},{"pitch":67,"velocity":56,"startTime":89.73893600000001,"endTime":91.98893112500001,"instrument":3,"program":99,"isDrum":false},{"pitch":60,"velocity":56,"startTime":92.086757,"endTime":92.22806104166668,"instrument":3,"program":99,"isDrum":false},{"pitch":63,"velocity":56,"startTime":92.086757,"endTime":92.21719150000001,"instrument":3,"program":99,"isDrum":false},{"pitch":67,"velocity":56,"startTime":92.086757,"endTime":92.22806104166668,"instrument":3,"program":99,"isDrum":false},{"pitch":60,"velocity":56,"startTime":92.608495,"endTime":92.706320875,"instrument":3,"program":99,"isDrum":false},{"pitch":63,"velocity":56,"startTime":92.608495,"endTime":92.69545133333334,"instrument":3,"program":99,"isDrum":false},{"pitch":67,"velocity":56,"startTime":92.608495,"endTime":92.70088610416668,"instrument":3,"program":99,"isDrum":false},{"pitch":60,"velocity":56,"startTime":93.130233,"endTime":93.27153704166668,"instrument":3,"program":99,"isDrum":false},{"pitch":63,"velocity":56,"startTime":93.130233,"endTime":93.22805887500002,"instrument":3,"program":99,"isDrum":false},{"pitch":67,"velocity":56,"startTime":93.130233,"endTime":93.23892841666668,"instrument":3,"program":99,"isDrum":false},{"pitch":60,"velocity":56,"startTime":93.391102,"endTime":93.54327558333334,"instrument":3,"program":99,"isDrum":false},{"pitch":63,"velocity":56,"startTime":93.391102,"endTime":93.54327558333334,"instrument":3,"program":99,"isDrum":false},{"pitch":67,"velocity":56,"startTime":93.391102,"endTime":93.54327558333334,"instrument":3,"program":99,"isDrum":false},{"pitch":58,"velocity":56,"startTime":93.91284000000002,"endTime":94.05414404166667,"instrument":3,"program":99,"isDrum":false},{"pitch":62,"velocity":56,"startTime":93.91284000000002,"endTime":94.05414404166667,"instrument":3,"program":99,"isDrum":false},{"pitch":67,"velocity":56,"startTime":93.91284000000002,"endTime":94.03240495833334,"instrument":3,"program":99,"isDrum":false},{"pitch":58,"velocity":56,"startTime":94.17370900000002,"endTime":94.34762166666668,"instrument":3,"program":99,"isDrum":false},{"pitch":62,"velocity":56,"startTime":94.17370900000002,"endTime":94.336752125,"instrument":3,"program":99,"isDrum":false},{"pitch":67,"velocity":56,"startTime":94.17370900000002,"endTime":94.32588258333334,"instrument":3,"program":99,"isDrum":false},{"pitch":58,"velocity":56,"startTime":94.69544700000002,"endTime":94.79327287500001,"instrument":3,"program":99,"isDrum":false},{"pitch":62,"velocity":56,"startTime":94.69544700000002,"endTime":94.80414241666668,"instrument":3,"program":99,"isDrum":false},{"pitch":67,"velocity":56,"startTime":94.69544700000002,"endTime":94.79870764583333,"instrument":3,"program":99,"isDrum":false},{"pitch":58,"velocity":56,"startTime":95.21718500000001,"endTime":95.34761950000001,"instrument":3,"program":99,"isDrum":false},{"pitch":62,"velocity":56,"startTime":95.21718500000001,"endTime":95.35848904166669,"instrument":3,"program":99,"isDrum":false},{"pitch":67,"velocity":56,"startTime":95.21718500000001,"endTime":95.33674995833334,"instrument":3,"program":99,"isDrum":false},{"pitch":58,"velocity":56,"startTime":95.47805400000001,"endTime":95.58674941666668,"instrument":3,"program":99,"isDrum":false},{"pitch":62,"velocity":56,"startTime":95.47805400000001,"endTime":95.6084885,"instrument":3,"program":99,"isDrum":false},{"pitch":67,"velocity":56,"startTime":95.47805400000001,"endTime":95.61392327083334,"instrument":3,"program":99,"isDrum":false},{"pitch":60,"velocity":56,"startTime":95.99979200000001,"endTime":96.70631220833334,"instrument":3,"program":99,"isDrum":false},{"pitch":62,"velocity":56,"startTime":95.99979200000001,"endTime":96.71718175000001,"instrument":3,"program":99,"isDrum":false},{"pitch":66,"velocity":56,"startTime":95.99979200000001,"endTime":96.749790375,"instrument":3,"program":99,"isDrum":false},{"pitch":62,"velocity":56,"startTime":98.34761300000001,"endTime":99.07587229166668,"instrument":3,"program":99,"isDrum":false},{"pitch":60,"velocity":56,"startTime":98.60848200000001,"endTime":99.10848091666668,"instrument":3,"program":99,"isDrum":false},{"pitch":66,"velocity":56,"startTime":98.60848200000001,"endTime":99.05956797916669,"instrument":3,"program":99,"isDrum":false},{"pitch":58,"velocity":56,"startTime":99.13022000000001,"endTime":99.30413266666667,"instrument":3,"program":99,"isDrum":false},{"pitch":62,"velocity":56,"startTime":99.13022000000001,"endTime":99.30956743750001,"instrument":3,"program":99,"isDrum":false},{"pitch":67,"velocity":56,"startTime":99.13022000000001,"endTime":99.30956743750001,"instrument":3,"program":99,"isDrum":false},{"pitch":57,"velocity":56,"startTime":100.173696,"endTime":104.34760000000001,"instrument":3,"program":99,"isDrum":false},{"pitch":60,"velocity":56,"startTime":100.173696,"endTime":104.32586091666668,"instrument":3,"program":99,"isDrum":false},{"pitch":62,"velocity":56,"startTime":100.173696,"endTime":104.30412183333334,"instrument":3,"program":99,"isDrum":false},{"pitch":66,"velocity":56,"startTime":100.173696,"endTime":104.32586091666668,"instrument":3,"program":99,"isDrum":false},{"pitch":58,"velocity":56,"startTime":104.34760000000001,"endTime":108.52150400000001,"instrument":3,"program":99,"isDrum":false},{"pitch":62,"velocity":56,"startTime":104.34760000000001,"endTime":116.86931200000001,"instrument":3,"program":99,"isDrum":false},{"pitch":67,"velocity":56,"startTime":104.34760000000001,"endTime":108.52150400000001,"instrument":3,"program":99,"isDrum":false},{"pitch":60,"velocity":56,"startTime":108.52150400000001,"endTime":112.67366891666668,"instrument":3,"program":99,"isDrum":false},{"pitch":66,"velocity":56,"startTime":108.52150400000001,"endTime":112.69540800000001,"instrument":3,"program":99,"isDrum":false},{"pitch":69,"velocity":56,"startTime":108.52150400000001,"endTime":112.67366891666668,"instrument":3,"program":99,"isDrum":false},{"pitch":58,"velocity":56,"startTime":112.69540800000001,"endTime":116.86931200000001,"instrument":3,"program":99,"isDrum":false},{"pitch":67,"velocity":56,"startTime":112.69540800000001,"endTime":121.010607375,"instrument":3,"program":99,"isDrum":false},{"pitch":60,"velocity":56,"startTime":116.86931200000001,"endTime":120.99973783333334,"instrument":3,"program":99,"isDrum":false},{"pitch":63,"velocity":56,"startTime":116.86931200000001,"endTime":121.010607375,"instrument":3,"program":99,"isDrum":false},{"pitch":62,"velocity":56,"startTime":121.04321600000002,"endTime":129.57580620833335,"instrument":3,"program":99,"isDrum":false},{"pitch":67,"velocity":56,"startTime":121.04321600000002,"endTime":125.18451137500001,"instrument":3,"program":99,"isDrum":false},{"pitch":70,"velocity":56,"startTime":121.04321600000002,"endTime":125.19538091666668,"instrument":3,"program":99,"isDrum":false},{"pitch":66,"velocity":56,"startTime":125.21712000000001,"endTime":129.38015445833335,"instrument":3,"program":99,"isDrum":false},{"pitch":69,"velocity":56,"startTime":125.21712000000001,"endTime":129.4073283125,"instrument":3,"program":99,"isDrum":false},{"pitch":72,"velocity":56,"startTime":125.21712000000001,"endTime":129.41276308333335,"instrument":3,"program":99,"isDrum":false},{"pitch":67,"velocity":56,"startTime":129.39102400000002,"endTime":129.60841483333334,"instrument":3,"program":99,"isDrum":false},{"pitch":70,"velocity":56,"startTime":129.39102400000002,"endTime":129.619284375,"instrument":3,"program":99,"isDrum":false},{"pitch":62,"velocity":56,"startTime":131.73884500000003,"endTime":132.46710429166666,"instrument":3,"program":99,"isDrum":false},{"pitch":60,"velocity":56,"startTime":131.999714,"endTime":132.47797383333335,"instrument":3,"program":99,"isDrum":false},{"pitch":66,"velocity":56,"startTime":131.999714,"endTime":132.46710429166666,"instrument":3,"program":99,"isDrum":false},{"pitch":58,"velocity":56,"startTime":132.521452,"endTime":132.6681908125,"instrument":3,"program":99,"isDrum":false},{"pitch":62,"velocity":56,"startTime":132.521452,"endTime":132.66275604166668,"instrument":3,"program":99,"isDrum":false},{"pitch":67,"velocity":56,"startTime":132.521452,"endTime":132.66275604166668,"instrument":3,"program":99,"isDrum":false},{"pitch":43,"velocity":56,"startTime":133.564928,"endTime":133.61927570833336,"instrument":3,"program":99,"isDrum":false},{"pitch":55,"velocity":56,"startTime":133.564928,"endTime":133.61384093750002,"instrument":3,"program":99,"isDrum":false},{"pitch":67,"velocity":56,"startTime":133.564928,"endTime":133.63558002083334,"instrument":3,"program":99,"isDrum":false},{"pitch":42,"velocity":56,"startTime":133.82579700000002,"endTime":133.90188379166668,"instrument":3,"program":99,"isDrum":false},{"pitch":54,"velocity":56,"startTime":133.82579700000002,"endTime":133.89644902083336,"instrument":3,"program":99,"isDrum":false},{"pitch":66,"velocity":56,"startTime":133.82579700000002,"endTime":133.90731856250002,"instrument":3,"program":99,"isDrum":false},{"pitch":43,"velocity":56,"startTime":134.086666,"endTime":134.17362233333336,"instrument":3,"program":99,"isDrum":false},{"pitch":55,"velocity":56,"startTime":134.086666,"endTime":134.16275279166666,"instrument":3,"program":99,"isDrum":false},{"pitch":67,"velocity":56,"startTime":134.086666,"endTime":134.18992664583337,"instrument":3,"program":99,"isDrum":false},{"pitch":45,"velocity":56,"startTime":134.34753500000002,"endTime":134.63014308333337,"instrument":3,"program":99,"isDrum":false},{"pitch":57,"velocity":56,"startTime":134.34753500000002,"endTime":134.62470831250002,"instrument":3,"program":99,"isDrum":false},{"pitch":69,"velocity":56,"startTime":134.34753500000002,"endTime":134.6899255625,"instrument":3,"program":99,"isDrum":false},{"pitch":46,"velocity":56,"startTime":134.86927300000002,"endTime":135.10296814583336,"instrument":3,"program":99,"isDrum":false},{"pitch":58,"velocity":56,"startTime":134.86927300000002,"endTime":135.097533375,"instrument":3,"program":99,"isDrum":false},{"pitch":70,"velocity":56,"startTime":134.86927300000002,"endTime":135.2116635625,"instrument":3,"program":99,"isDrum":false},{"pitch":45,"velocity":56,"startTime":135.39101100000002,"endTime":135.50514118750002,"instrument":3,"program":99,"isDrum":false},{"pitch":57,"velocity":56,"startTime":135.39101100000002,"endTime":135.488836875,"instrument":3,"program":99,"isDrum":false},{"pitch":69,"velocity":56,"startTime":135.39101100000002,"endTime":135.63557568750002,"instrument":3,"program":99,"isDrum":false},{"pitch":43,"velocity":56,"startTime":135.65188,"endTime":135.78774927083336,"instrument":3,"program":99,"isDrum":false},{"pitch":55,"velocity":56,"startTime":135.65188,"endTime":135.77144495833335,"instrument":3,"program":99,"isDrum":false},{"pitch":67,"velocity":56,"startTime":135.65188,"endTime":135.77687972916667,"instrument":3,"program":99,"isDrum":false},{"pitch":39,"velocity":56,"startTime":137.738832,"endTime":137.84209264583336,"instrument":3,"program":99,"isDrum":false},{"pitch":51,"velocity":56,"startTime":137.738832,"endTime":137.81491879166666,"instrument":3,"program":99,"isDrum":false},{"pitch":63,"velocity":56,"startTime":137.738832,"endTime":137.86383172916666,"instrument":3,"program":99,"isDrum":false},{"pitch":38,"velocity":56,"startTime":137.99970100000002,"endTime":138.097526875,"instrument":3,"program":99,"isDrum":false},{"pitch":50,"velocity":56,"startTime":137.99970100000002,"endTime":138.08665733333336,"instrument":3,"program":99,"isDrum":false},{"pitch":62,"velocity":56,"startTime":137.99970100000002,"endTime":138.11926595833336,"instrument":3,"program":99,"isDrum":false},{"pitch":39,"velocity":56,"startTime":138.26057,"endTime":138.33665679166668,"instrument":3,"program":99,"isDrum":false},{"pitch":51,"velocity":56,"startTime":138.26057,"endTime":138.3420915625,"instrument":3,"program":99,"isDrum":false},{"pitch":63,"velocity":56,"startTime":138.26057,"endTime":138.36926541666668,"instrument":3,"program":99,"isDrum":false},{"pitch":41,"velocity":56,"startTime":138.52143900000002,"endTime":138.7986123125,"instrument":3,"program":99,"isDrum":false},{"pitch":53,"velocity":56,"startTime":138.52143900000002,"endTime":138.7986123125,"instrument":3,"program":99,"isDrum":false},{"pitch":65,"velocity":56,"startTime":138.52143900000002,"endTime":138.84209047916667,"instrument":3,"program":99,"isDrum":false},{"pitch":43,"velocity":56,"startTime":139.04317700000001,"endTime":139.29861122916668,"instrument":3,"program":99,"isDrum":false},{"pitch":55,"velocity":56,"startTime":139.04317700000001,"endTime":139.26056783333337,"instrument":3,"program":99,"isDrum":false},{"pitch":67,"velocity":56,"startTime":139.04317700000001,"endTime":139.38013279166668,"instrument":3,"program":99,"isDrum":false},{"pitch":39,"velocity":56,"startTime":139.564915,"endTime":139.6790451875,"instrument":3,"program":99,"isDrum":false},{"pitch":51,"velocity":56,"startTime":139.564915,"endTime":139.67361041666666,"instrument":3,"program":99,"isDrum":false},{"pitch":63,"velocity":56,"startTime":139.564915,"endTime":139.71708858333335,"instrument":3,"program":99,"isDrum":false},{"pitch":38,"velocity":56,"startTime":139.825784,"endTime":139.96165327083335,"instrument":3,"program":99,"isDrum":false},{"pitch":50,"velocity":56,"startTime":139.825784,"endTime":139.95078372916666,"instrument":3,"program":99,"isDrum":false},{"pitch":62,"velocity":56,"startTime":139.825784,"endTime":139.9562185,"instrument":3,"program":99,"isDrum":false},{"pitch":43,"velocity":56,"startTime":141.91273600000002,"endTime":142.01599664583335,"instrument":3,"program":99,"isDrum":false},{"pitch":55,"velocity":56,"startTime":141.91273600000002,"endTime":141.99969233333334,"instrument":3,"program":99,"isDrum":false},{"pitch":67,"velocity":56,"startTime":141.91273600000002,"endTime":142.02686618750002,"instrument":3,"program":99,"isDrum":false},{"pitch":42,"velocity":56,"startTime":142.173605,"endTime":142.24425702083334,"instrument":3,"program":99,"isDrum":false},{"pitch":54,"velocity":56,"startTime":142.173605,"endTime":142.24425702083334,"instrument":3,"program":99,"isDrum":false},{"pitch":66,"velocity":56,"startTime":142.173605,"endTime":142.26599610416667,"instrument":3,"program":99,"isDrum":false},{"pitch":43,"velocity":56,"startTime":142.43447400000002,"endTime":142.51056079166668,"instrument":3,"program":99,"isDrum":false},{"pitch":55,"velocity":56,"startTime":142.43447400000002,"endTime":142.51599556250002,"instrument":3,"program":99,"isDrum":false},{"pitch":67,"velocity":56,"startTime":142.43447400000002,"endTime":142.54316941666667,"instrument":3,"program":99,"isDrum":false},{"pitch":45,"velocity":56,"startTime":142.695343,"endTime":142.99425539583336,"instrument":3,"program":99,"isDrum":false},{"pitch":57,"velocity":56,"startTime":142.695343,"endTime":142.98882062500002,"instrument":3,"program":99,"isDrum":false},{"pitch":69,"velocity":56,"startTime":142.695343,"endTime":143.04316833333337,"instrument":3,"program":99,"isDrum":false},{"pitch":46,"velocity":56,"startTime":143.217081,"endTime":143.45077614583334,"instrument":3,"program":99,"isDrum":false},{"pitch":58,"velocity":56,"startTime":143.217081,"endTime":143.42903706250002,"instrument":3,"program":99,"isDrum":false},{"pitch":70,"velocity":56,"startTime":143.217081,"endTime":143.51055862500002,"instrument":3,"program":99,"isDrum":false},{"pitch":45,"velocity":56,"startTime":143.738819,"endTime":143.85838395833335,"instrument":3,"program":99,"isDrum":false},{"pitch":57,"velocity":56,"startTime":143.738819,"endTime":143.84207964583337,"instrument":3,"program":99,"isDrum":false},{"pitch":69,"velocity":56,"startTime":143.738819,"endTime":143.93990552083335,"instrument":3,"program":99,"isDrum":false},{"pitch":43,"velocity":56,"startTime":143.99968800000002,"endTime":144.12468772916668,"instrument":3,"program":99,"isDrum":false},{"pitch":55,"velocity":56,"startTime":143.99968800000002,"endTime":144.11925295833336,"instrument":3,"program":99,"isDrum":false},{"pitch":67,"velocity":56,"startTime":143.99968800000002,"endTime":144.13555727083335,"instrument":3,"program":99,"isDrum":false},{"pitch":39,"velocity":56,"startTime":146.08664000000002,"endTime":146.17359633333336,"instrument":3,"program":99,"isDrum":false},{"pitch":51,"velocity":56,"startTime":146.08664000000002,"endTime":146.15185725,"instrument":3,"program":99,"isDrum":false},{"pitch":63,"velocity":56,"startTime":146.08664000000002,"endTime":146.20620495833336,"instrument":3,"program":99,"isDrum":false},{"pitch":38,"velocity":56,"startTime":146.347509,"endTime":146.43446533333335,"instrument":3,"program":99,"isDrum":false},{"pitch":50,"velocity":56,"startTime":146.347509,"endTime":146.4290305625,"instrument":3,"program":99,"isDrum":false},{"pitch":62,"velocity":56,"startTime":146.347509,"endTime":146.45620441666668,"instrument":3,"program":99,"isDrum":false},{"pitch":39,"velocity":56,"startTime":146.60837800000002,"endTime":146.67359525,"instrument":3,"program":99,"isDrum":false},{"pitch":51,"velocity":56,"startTime":146.60837800000002,"endTime":146.68446479166667,"instrument":3,"program":99,"isDrum":false},{"pitch":63,"velocity":56,"startTime":146.60837800000002,"endTime":146.706203875,"instrument":3,"program":99,"isDrum":false},{"pitch":41,"velocity":56,"startTime":146.869247,"endTime":147.14098554166668,"instrument":3,"program":99,"isDrum":false},{"pitch":53,"velocity":56,"startTime":146.869247,"endTime":147.13011600000002,"instrument":3,"program":99,"isDrum":false},{"pitch":65,"velocity":56,"startTime":146.869247,"endTime":147.17902893750002,"instrument":3,"program":99,"isDrum":false},{"pitch":43,"velocity":56,"startTime":147.390985,"endTime":147.66272354166668,"instrument":3,"program":99,"isDrum":false},{"pitch":55,"velocity":56,"startTime":147.390985,"endTime":147.59207152083334,"instrument":3,"program":99,"isDrum":false},{"pitch":67,"velocity":56,"startTime":147.390985,"endTime":147.71707125,"instrument":3,"program":99,"isDrum":false},{"pitch":39,"velocity":56,"startTime":147.912723,"endTime":148.00511410416667,"instrument":3,"program":99,"isDrum":false},{"pitch":51,"velocity":56,"startTime":147.912723,"endTime":148.00511410416667,"instrument":3,"program":99,"isDrum":false},{"pitch":63,"velocity":56,"startTime":147.912723,"endTime":148.05946181250002,"instrument":3,"program":99,"isDrum":false},{"pitch":38,"velocity":56,"startTime":148.173592,"endTime":148.31489604166666,"instrument":3,"program":99,"isDrum":false},{"pitch":50,"velocity":56,"startTime":148.173592,"endTime":148.2877221875,"instrument":3,"program":99,"isDrum":false},{"pitch":62,"velocity":56,"startTime":148.173592,"endTime":148.33120035416667,"instrument":3,"program":99,"isDrum":false},{"pitch":58,"velocity":56,"startTime":150.260544,"endTime":150.40184804166668,"instrument":3,"program":99,"isDrum":false},{"pitch":62,"velocity":56,"startTime":150.260544,"endTime":150.4072828125,"instrument":3,"program":99,"isDrum":false},{"pitch":67,"velocity":56,"startTime":150.260544,"endTime":150.41815235416666,"instrument":3,"program":99,"isDrum":false},{"pitch":60,"velocity":56,"startTime":152.347496,"endTime":152.44532187500002,"instrument":3,"program":99,"isDrum":false},{"pitch":62,"velocity":56,"startTime":152.347496,"endTime":152.50510435416666,"instrument":3,"program":99,"isDrum":false},{"pitch":66,"velocity":56,"startTime":152.347496,"endTime":152.510539125,"instrument":3,"program":99,"isDrum":false},{"pitch":60,"velocity":56,"startTime":153.358363375,"endTime":153.48336310416667,"instrument":3,"program":99,"isDrum":false},{"pitch":66,"velocity":56,"startTime":153.358363375,"endTime":153.48879787500002,"instrument":3,"program":99,"isDrum":false},{"pitch":62,"velocity":56,"startTime":153.36379814583336,"endTime":153.48336310416667,"instrument":3,"program":99,"isDrum":false},{"pitch":60,"velocity":56,"startTime":154.434448,"endTime":154.5648825,"instrument":3,"program":99,"isDrum":false},{"pitch":62,"velocity":56,"startTime":154.434448,"endTime":154.5648825,"instrument":3,"program":99,"isDrum":false},{"pitch":66,"velocity":56,"startTime":154.434448,"endTime":154.5648825,"instrument":3,"program":99,"isDrum":false},{"pitch":60,"velocity":56,"startTime":155.477924,"endTime":155.6083585,"instrument":3,"program":99,"isDrum":false},{"pitch":62,"velocity":56,"startTime":155.477924,"endTime":155.6083585,"instrument":3,"program":99,"isDrum":false},{"pitch":66,"velocity":56,"startTime":155.477924,"endTime":155.6083585,"instrument":3,"program":99,"isDrum":false},{"pitch":58,"velocity":56,"startTime":156.52140000000003,"endTime":156.6518345,"instrument":3,"program":99,"isDrum":false},{"pitch":62,"velocity":56,"startTime":156.52140000000003,"endTime":156.6518345,"instrument":3,"program":99,"isDrum":false},{"pitch":67,"velocity":56,"startTime":156.52140000000003,"endTime":156.6518345,"instrument":3,"program":99,"isDrum":false},{"pitch":58,"velocity":56,"startTime":157.56487600000003,"endTime":157.6953105,"instrument":3,"program":99,"isDrum":false},{"pitch":62,"velocity":56,"startTime":157.56487600000003,"endTime":157.6953105,"instrument":3,"program":99,"isDrum":false},{"pitch":67,"velocity":56,"startTime":157.56487600000003,"endTime":157.6953105,"instrument":3,"program":99,"isDrum":false},{"pitch":58,"velocity":56,"startTime":158.60835200000002,"endTime":158.7387865,"instrument":3,"program":99,"isDrum":false},{"pitch":62,"velocity":56,"startTime":158.60835200000002,"endTime":158.7387865,"instrument":3,"program":99,"isDrum":false},{"pitch":67,"velocity":56,"startTime":158.60835200000002,"endTime":158.7387865,"instrument":3,"program":99,"isDrum":false},{"pitch":58,"velocity":56,"startTime":159.65182800000002,"endTime":159.7822625,"instrument":3,"program":99,"isDrum":false},{"pitch":62,"velocity":56,"startTime":159.65182800000002,"endTime":159.7822625,"instrument":3,"program":99,"isDrum":false},{"pitch":67,"velocity":56,"startTime":159.65182800000002,"endTime":159.7822625,"instrument":3,"program":99,"isDrum":false},{"pitch":60,"velocity":56,"startTime":160.69530400000002,"endTime":160.82573850000003,"instrument":3,"program":99,"isDrum":false},{"pitch":62,"velocity":56,"startTime":160.69530400000002,"endTime":160.82573850000003,"instrument":3,"program":99,"isDrum":false},{"pitch":66,"velocity":56,"startTime":160.69530400000002,"endTime":160.82573850000003,"instrument":3,"program":99,"isDrum":false},{"pitch":60,"velocity":56,"startTime":161.73878000000002,"endTime":161.86921450000003,"instrument":3,"program":99,"isDrum":false},{"pitch":62,"velocity":56,"startTime":161.73878000000002,"endTime":161.86921450000003,"instrument":3,"program":99,"isDrum":false},{"pitch":66,"velocity":56,"startTime":161.73878000000002,"endTime":161.86921450000003,"instrument":3,"program":99,"isDrum":false},{"pitch":60,"velocity":56,"startTime":162.78225600000002,"endTime":162.91269050000002,"instrument":3,"program":99,"isDrum":false},{"pitch":62,"velocity":56,"startTime":162.78225600000002,"endTime":162.91269050000002,"instrument":3,"program":99,"isDrum":false},{"pitch":66,"velocity":56,"startTime":162.78225600000002,"endTime":162.91269050000002,"instrument":3,"program":99,"isDrum":false},{"pitch":60,"velocity":56,"startTime":163.82573200000002,"endTime":163.95616650000002,"instrument":3,"program":99,"isDrum":false},{"pitch":62,"velocity":56,"startTime":163.82573200000002,"endTime":163.95616650000002,"instrument":3,"program":99,"isDrum":false},{"pitch":66,"velocity":56,"startTime":163.82573200000002,"endTime":163.95616650000002,"instrument":3,"program":99,"isDrum":false},{"pitch":58,"velocity":56,"startTime":164.86920800000001,"endTime":164.99964250000002,"instrument":3,"program":99,"isDrum":false},{"pitch":62,"velocity":56,"startTime":164.86920800000001,"endTime":164.99964250000002,"instrument":3,"program":99,"isDrum":false},{"pitch":67,"velocity":56,"startTime":164.86920800000001,"endTime":164.99964250000002,"instrument":3,"program":99,"isDrum":false},{"pitch":62,"velocity":56,"startTime":165.13007700000003,"endTime":165.77137995833337,"instrument":3,"program":99,"isDrum":false},{"pitch":60,"velocity":56,"startTime":165.390946,"endTime":165.77137995833337,"instrument":3,"program":99,"isDrum":false},{"pitch":66,"velocity":56,"startTime":165.390946,"endTime":165.7822495,"instrument":3,"program":99,"isDrum":false},{"pitch":58,"velocity":56,"startTime":165.912684,"endTime":166.04311850000002,"instrument":3,"program":99,"isDrum":false},{"pitch":62,"velocity":56,"startTime":165.912684,"endTime":166.04311850000002,"instrument":3,"program":99,"isDrum":false},{"pitch":67,"velocity":56,"startTime":165.912684,"endTime":166.04311850000002,"instrument":3,"program":99,"isDrum":false},{"pitch":57,"velocity":56,"startTime":166.95616,"endTime":171.130064,"instrument":3,"program":99,"isDrum":false},{"pitch":60,"velocity":56,"startTime":166.95616,"endTime":171.10832491666667,"instrument":3,"program":99,"isDrum":false},{"pitch":62,"velocity":56,"startTime":166.95616,"endTime":171.08658583333334,"instrument":3,"program":99,"isDrum":false},{"pitch":66,"velocity":56,"startTime":166.95616,"endTime":171.10832491666667,"instrument":3,"program":99,"isDrum":false},{"pitch":58,"velocity":56,"startTime":171.130064,"endTime":175.30396800000003,"instrument":3,"program":99,"isDrum":false},{"pitch":62,"velocity":56,"startTime":171.130064,"endTime":183.651776,"instrument":3,"program":99,"isDrum":false},{"pitch":67,"velocity":56,"startTime":171.130064,"endTime":175.30396800000003,"instrument":3,"program":99,"isDrum":false},{"pitch":60,"velocity":56,"startTime":175.30396800000003,"endTime":179.45613291666666,"instrument":3,"program":99,"isDrum":false},{"pitch":66,"velocity":56,"startTime":175.30396800000003,"endTime":179.47787200000002,"instrument":3,"program":99,"isDrum":false},{"pitch":69,"velocity":56,"startTime":175.30396800000003,"endTime":179.45613291666666,"instrument":3,"program":99,"isDrum":false},{"pitch":58,"velocity":56,"startTime":179.47787200000002,"endTime":183.651776,"instrument":3,"program":99,"isDrum":false},{"pitch":67,"velocity":56,"startTime":179.47787200000002,"endTime":187.793071375,"instrument":3,"program":99,"isDrum":false},{"pitch":60,"velocity":56,"startTime":183.651776,"endTime":187.78220183333335,"instrument":3,"program":99,"isDrum":false},{"pitch":63,"velocity":56,"startTime":183.651776,"endTime":187.793071375,"instrument":3,"program":99,"isDrum":false},{"pitch":62,"velocity":56,"startTime":187.82568,"endTime":196.35827020833335,"instrument":3,"program":99,"isDrum":false},{"pitch":67,"velocity":56,"startTime":187.82568,"endTime":191.966975375,"instrument":3,"program":99,"isDrum":false},{"pitch":70,"velocity":56,"startTime":187.82568,"endTime":191.97784491666667,"instrument":3,"program":99,"isDrum":false},{"pitch":66,"velocity":56,"startTime":191.99958400000003,"endTime":196.16261845833336,"instrument":3,"program":99,"isDrum":false},{"pitch":69,"velocity":56,"startTime":191.99958400000003,"endTime":196.1897923125,"instrument":3,"program":99,"isDrum":false},{"pitch":72,"velocity":56,"startTime":191.99958400000003,"endTime":196.19522708333335,"instrument":3,"program":99,"isDrum":false},{"pitch":67,"velocity":56,"startTime":196.17348800000002,"endTime":196.39087883333335,"instrument":3,"program":99,"isDrum":false},{"pitch":70,"velocity":56,"startTime":196.17348800000002,"endTime":196.401748375,"instrument":3,"program":99,"isDrum":false},{"pitch":62,"velocity":56,"startTime":198.52130900000003,"endTime":199.24956829166666,"instrument":3,"program":99,"isDrum":false},{"pitch":60,"velocity":56,"startTime":198.78217800000002,"endTime":199.26043783333336,"instrument":3,"program":99,"isDrum":false},{"pitch":66,"velocity":56,"startTime":198.78217800000002,"endTime":199.24956829166666,"instrument":3,"program":99,"isDrum":false},{"pitch":58,"velocity":56,"startTime":199.30391600000002,"endTime":199.4506548125,"instrument":3,"program":99,"isDrum":false},{"pitch":62,"velocity":56,"startTime":199.30391600000002,"endTime":199.4452200416667,"instrument":3,"program":99,"isDrum":false},{"pitch":67,"velocity":56,"startTime":199.30391600000002,"endTime":199.4452200416667,"instrument":3,"program":99,"isDrum":false},{"pitch":72,"velocity":87,"startTime":0.48369460416666676,"endTime":0.5652161666666666,"instrument":4,"program":23,"isDrum":false},{"pitch":62,"velocity":87,"startTime":0.4945641458333334,"endTime":0.5652161666666666,"instrument":4,"program":23,"isDrum":false},{"pitch":69,"velocity":87,"startTime":0.9891282916666664,"endTime":1.0706498541666667,"instrument":4,"program":23,"isDrum":false},{"pitch":62,"velocity":87,"startTime":0.9999978333333335,"endTime":1.0597803125,"instrument":4,"program":23,"isDrum":false},{"pitch":66,"velocity":128,"startTime":1.5271706041666668,"endTime":1.5923878541666667,"instrument":4,"program":23,"isDrum":false},{"pitch":62,"velocity":87,"startTime":1.5326053750000002,"endTime":1.5869530833333334,"instrument":4,"program":23,"isDrum":false},{"pitch":62,"velocity":114,"startTime":2.304342833333333,"endTime":2.5652118333333336,"instrument":4,"program":23,"isDrum":false},{"pitch":63,"velocity":97,"startTime":2.5760813750000002,"endTime":2.8152112916666674,"instrument":4,"program":23,"isDrum":false},{"pitch":62,"velocity":87,"startTime":2.8206460625,"endTime":3.0869498333333336,"instrument":4,"program":23,"isDrum":false},{"pitch":61,"velocity":114,"startTime":3.0869498333333336,"endTime":3.5760792083333337,"instrument":4,"program":23,"isDrum":false},{"pitch":62,"velocity":97,"startTime":3.6195573750000003,"endTime":3.728252791666667,"instrument":4,"program":23,"isDrum":false},{"pitch":62,"velocity":97,"startTime":4.141295375,"endTime":4.2282517083333335,"instrument":4,"program":23,"isDrum":false},{"pitch":74,"velocity":75,"startTime":4.635859520833334,"endTime":4.717381083333334,"instrument":4,"program":23,"isDrum":false},{"pitch":62,"velocity":78,"startTime":4.6467290625,"endTime":4.717381083333334,"instrument":4,"program":23,"isDrum":false},{"pitch":70,"velocity":128,"startTime":5.2010756875,"endTime":5.28259725,"instrument":4,"program":23,"isDrum":false},{"pitch":62,"velocity":97,"startTime":5.211945229166667,"endTime":5.288032020833334,"instrument":4,"program":23,"isDrum":false},{"pitch":67,"velocity":97,"startTime":5.706509375,"endTime":5.777161395833334,"instrument":4,"program":23,"isDrum":false},{"pitch":62,"velocity":87,"startTime":5.711944145833334,"endTime":5.782596166666667,"instrument":4,"program":23,"isDrum":false},{"pitch":62,"velocity":97,"startTime":6.489116375,"endTime":6.744550604166667,"instrument":4,"program":23,"isDrum":false},{"pitch":63,"velocity":114,"startTime":6.749985375,"endTime":6.945637125000001,"instrument":4,"program":23,"isDrum":false},{"pitch":62,"velocity":78,"startTime":6.9619414375,"endTime":7.260853833333334,"instrument":4,"program":23,"isDrum":false},{"pitch":61,"velocity":97,"startTime":7.260853833333334,"endTime":7.755417979166667,"instrument":4,"program":23,"isDrum":false},{"pitch":62,"velocity":87,"startTime":7.782591833333335,"endTime":7.896722020833334,"instrument":4,"program":23,"isDrum":false},{"pitch":62,"velocity":114,"startTime":8.315199375,"endTime":8.402155708333334,"instrument":4,"program":23,"isDrum":false},{"pitch":72,"velocity":87,"startTime":8.831502604166667,"endTime":8.9184589375,"instrument":4,"program":23,"isDrum":false},{"pitch":62,"velocity":87,"startTime":8.842372145833334,"endTime":8.9184589375,"instrument":4,"program":23,"isDrum":false},{"pitch":69,"velocity":87,"startTime":9.3749796875,"endTime":9.451066479166666,"instrument":4,"program":23,"isDrum":false},{"pitch":62,"velocity":87,"startTime":9.380414458333334,"endTime":9.445631708333334,"instrument":4,"program":23,"isDrum":false},{"pitch":66,"velocity":128,"startTime":9.913022000000002,"endTime":9.972804479166667,"instrument":4,"program":23,"isDrum":false},{"pitch":62,"velocity":87,"startTime":9.923891541666666,"endTime":9.983674020833334,"instrument":4,"program":23,"isDrum":false},{"pitch":62,"velocity":114,"startTime":10.673889916666667,"endTime":10.913019833333335,"instrument":4,"program":23,"isDrum":false},{"pitch":63,"velocity":114,"startTime":10.913019833333335,"endTime":11.1358454375,"instrument":4,"program":23,"isDrum":false},{"pitch":62,"velocity":87,"startTime":11.152149750000001,"endTime":11.423888291666668,"instrument":4,"program":23,"isDrum":false},{"pitch":61,"velocity":97,"startTime":11.440192604166667,"endTime":11.913017666666667,"instrument":4,"program":23,"isDrum":false},{"pitch":62,"velocity":87,"startTime":11.940191520833334,"endTime":12.076060791666666,"instrument":4,"program":23,"isDrum":false},{"pitch":62,"velocity":114,"startTime":12.461929520833335,"endTime":12.554320625,"instrument":4,"program":23,"isDrum":false},{"pitch":74,"velocity":75,"startTime":12.989102291666667,"endTime":13.076058625000002,"instrument":4,"program":23,"isDrum":false},{"pitch":62,"velocity":70,"startTime":13.010841375,"endTime":13.086928166666667,"instrument":4,"program":23,"isDrum":false},{"pitch":70,"velocity":128,"startTime":13.527144604166667,"endTime":13.614100937500002,"instrument":4,"program":23,"isDrum":false},{"pitch":62,"velocity":75,"startTime":13.538014145833335,"endTime":13.608666166666668,"instrument":4,"program":23,"isDrum":false},{"pitch":62,"velocity":87,"startTime":14.043447833333335,"endTime":14.119534625,"instrument":4,"program":23,"isDrum":false},{"pitch":67,"velocity":114,"startTime":14.043447833333335,"endTime":14.124969395833336,"instrument":4,"program":23,"isDrum":false},{"pitch":75,"velocity":128,"startTime":14.706489875000003,"endTime":14.798880979166668,"instrument":4,"program":23,"isDrum":false},{"pitch":74,"velocity":87,"startTime":14.842359145833335,"endTime":14.9184459375,"instrument":4,"program":23,"isDrum":false},{"pitch":73,"velocity":128,"startTime":14.956489333333334,"endTime":15.04344566666667,"instrument":4,"program":23,"isDrum":false},{"pitch":72,"velocity":97,"startTime":15.086923833333334,"endTime":15.163010625000002,"instrument":4,"program":23,"isDrum":false},{"pitch":71,"velocity":54,"startTime":15.206488791666668,"endTime":15.282575583333333,"instrument":4,"program":23,"isDrum":false},{"pitch":70,"velocity":128,"startTime":15.331488520833332,"endTime":15.413010083333333,"instrument":4,"program":23,"isDrum":false},{"pitch":69,"velocity":75,"startTime":15.45648825,"endTime":15.543444583333333,"instrument":4,"program":23,"isDrum":false},{"pitch":68,"velocity":128,"startTime":15.592357520833332,"endTime":15.69561816666667,"instrument":4,"program":23,"isDrum":false},{"pitch":67,"velocity":78,"startTime":15.722792020833332,"endTime":15.793444041666667,"instrument":4,"program":23,"isDrum":false},{"pitch":66,"velocity":128,"startTime":15.84235697916667,"endTime":15.934748083333332,"instrument":4,"program":23,"isDrum":false},{"pitch":65,"velocity":87,"startTime":15.978226250000002,"endTime":16.065182583333332,"instrument":4,"program":23,"isDrum":false},{"pitch":64,"velocity":70,"startTime":16.108660750000002,"endTime":16.190182312500003,"instrument":4,"program":23,"isDrum":false},{"pitch":63,"velocity":128,"startTime":16.23366047916667,"endTime":16.331486354166667,"instrument":4,"program":23,"isDrum":false},{"pitch":62,"velocity":70,"startTime":16.36409497916667,"endTime":16.44561654166667,"instrument":4,"program":23,"isDrum":false},{"pitch":61,"velocity":128,"startTime":16.49452947916667,"endTime":16.59235535416667,"instrument":4,"program":23,"isDrum":false},{"pitch":60,"velocity":87,"startTime":16.652137833333335,"endTime":16.749963708333333,"instrument":4,"program":23,"isDrum":false},{"pitch":67,"velocity":97,"startTime":17.16300629166667,"endTime":17.24452785416667,"instrument":4,"program":23,"isDrum":false},{"pitch":60,"velocity":78,"startTime":17.173875833333334,"endTime":17.239093083333334,"instrument":4,"program":23,"isDrum":false},{"pitch":66,"velocity":128,"startTime":17.695613833333333,"endTime":17.760831083333333,"instrument":4,"program":23,"isDrum":false},{"pitch":60,"velocity":78,"startTime":17.70104860416667,"endTime":17.777135395833334,"instrument":4,"program":23,"isDrum":false},{"pitch":60,"velocity":97,"startTime":18.2119170625,"endTime":18.288003854166668,"instrument":4,"program":23,"isDrum":false},{"pitch":67,"velocity":87,"startTime":18.2119170625,"endTime":18.282569083333332,"instrument":4,"program":23,"isDrum":false},{"pitch":60,"velocity":87,"startTime":19.021697916666668,"endTime":19.086915166666667,"instrument":4,"program":23,"isDrum":false},{"pitch":67,"velocity":87,"startTime":19.021697916666668,"endTime":19.097784708333332,"instrument":4,"program":23,"isDrum":false},{"pitch":67,"velocity":78,"startTime":19.24995829166667,"endTime":19.336914625000002,"instrument":4,"program":23,"isDrum":false},{"pitch":60,"velocity":78,"startTime":19.26626260416667,"endTime":19.336914625000002,"instrument":4,"program":23,"isDrum":false},{"pitch":66,"velocity":128,"startTime":19.521696833333333,"endTime":19.614087937500003,"instrument":4,"program":23,"isDrum":false},{"pitch":60,"velocity":61,"startTime":19.54343591666667,"endTime":19.603218395833334,"instrument":4,"program":23,"isDrum":false},{"pitch":60,"velocity":75,"startTime":19.793435375,"endTime":19.874956937500002,"instrument":4,"program":23,"isDrum":false},{"pitch":67,"velocity":87,"startTime":19.793435375,"endTime":19.874956937500002,"instrument":4,"program":23,"isDrum":false},{"pitch":66,"velocity":114,"startTime":20.043434833333333,"endTime":20.141260708333334,"instrument":4,"program":23,"isDrum":false},{"pitch":60,"velocity":55,"startTime":20.070608687500002,"endTime":20.1358259375,"instrument":4,"program":23,"isDrum":false},{"pitch":60,"velocity":75,"startTime":20.304303833333332,"endTime":20.402129708333334,"instrument":4,"program":23,"isDrum":false},{"pitch":67,"velocity":97,"startTime":20.309738604166668,"endTime":20.402129708333334,"instrument":4,"program":23,"isDrum":false},{"pitch":66,"velocity":128,"startTime":20.559738062500003,"endTime":20.662998708333333,"instrument":4,"program":23,"isDrum":false},{"pitch":60,"velocity":70,"startTime":20.576042375,"endTime":20.6575639375,"instrument":4,"program":23,"isDrum":false},{"pitch":58,"velocity":114,"startTime":20.847780916666668,"endTime":20.940172020833334,"instrument":4,"program":23,"isDrum":false},{"pitch":58,"velocity":87,"startTime":21.391258,"endTime":21.46734479166667,"instrument":4,"program":23,"isDrum":false},{"pitch":67,"velocity":97,"startTime":21.391258,"endTime":21.478214333333334,"instrument":4,"program":23,"isDrum":false},{"pitch":58,"velocity":70,"startTime":21.912996000000003,"endTime":21.9945175625,"instrument":4,"program":23,"isDrum":false},{"pitch":66,"velocity":97,"startTime":21.912996000000003,"endTime":21.999952333333333,"instrument":4,"program":23,"isDrum":false},{"pitch":58,"velocity":75,"startTime":22.434734000000002,"endTime":22.505386020833335,"instrument":4,"program":23,"isDrum":false},{"pitch":67,"velocity":87,"startTime":22.434734000000002,"endTime":22.521690333333332,"instrument":4,"program":23,"isDrum":false},{"pitch":66,"velocity":128,"startTime":23.2010366875,"endTime":23.287993020833333,"instrument":4,"program":23,"isDrum":false},{"pitch":58,"velocity":87,"startTime":23.21190622916667,"endTime":23.271688708333333,"instrument":4,"program":23,"isDrum":false},{"pitch":67,"velocity":87,"startTime":23.44016660416667,"endTime":23.537992479166668,"instrument":4,"program":23,"isDrum":false},{"pitch":58,"velocity":87,"startTime":23.451036145833335,"endTime":23.52168816666667,"instrument":4,"program":23,"isDrum":false},{"pitch":66,"velocity":128,"startTime":23.70103560416667,"endTime":23.793426708333335,"instrument":4,"program":23,"isDrum":false},{"pitch":58,"velocity":70,"startTime":23.71733991666667,"endTime":23.78255716666667,"instrument":4,"program":23,"isDrum":false},{"pitch":58,"velocity":70,"startTime":23.956469833333333,"endTime":24.037991395833334,"instrument":4,"program":23,"isDrum":false},{"pitch":67,"velocity":78,"startTime":23.956469833333333,"endTime":24.05973047916667,"instrument":4,"program":23,"isDrum":false},{"pitch":66,"velocity":128,"startTime":24.217338833333333,"endTime":24.315164708333334,"instrument":4,"program":23,"isDrum":false},{"pitch":58,"velocity":78,"startTime":24.228208375,"endTime":24.293425625,"instrument":4,"program":23,"isDrum":false},{"pitch":58,"velocity":75,"startTime":24.46733829166667,"endTime":24.543425083333332,"instrument":4,"program":23,"isDrum":false},{"pitch":67,"velocity":78,"startTime":24.46733829166667,"endTime":24.559729395833333,"instrument":4,"program":23,"isDrum":false},{"pitch":66,"velocity":128,"startTime":24.706468208333334,"endTime":24.804294083333335,"instrument":4,"program":23,"isDrum":false},{"pitch":58,"velocity":61,"startTime":24.722772520833335,"endTime":24.787989770833335,"instrument":4,"program":23,"isDrum":false},{"pitch":57,"velocity":87,"startTime":25.00538060416667,"endTime":25.10320647916667,"instrument":4,"program":23,"isDrum":false},{"pitch":57,"velocity":87,"startTime":25.532553375000003,"endTime":25.614074937500003,"instrument":4,"program":23,"isDrum":false},{"pitch":62,"velocity":97,"startTime":25.532553375000003,"endTime":25.619509708333332,"instrument":4,"program":23,"isDrum":false},{"pitch":60,"velocity":97,"startTime":26.054291375000002,"endTime":26.152117250000003,"instrument":4,"program":23,"isDrum":false},{"pitch":57,"velocity":75,"startTime":26.059726145833334,"endTime":26.152117250000003,"instrument":4,"program":23,"isDrum":false},{"pitch":62,"velocity":114,"startTime":26.55429029166667,"endTime":26.641246625,"instrument":4,"program":23,"isDrum":false},{"pitch":57,"velocity":87,"startTime":26.5597250625,"endTime":26.641246625,"instrument":4,"program":23,"isDrum":false},{"pitch":60,"velocity":97,"startTime":27.32602775,"endTime":27.771678958333332,"instrument":4,"program":23,"isDrum":false},{"pitch":58,"velocity":87,"startTime":27.7988528125,"endTime":27.934722083333334,"instrument":4,"program":23,"isDrum":false},{"pitch":57,"velocity":75,"startTime":27.94015685416667,"endTime":28.07059135416667,"instrument":4,"program":23,"isDrum":false},{"pitch":55,"velocity":75,"startTime":28.076026125000002,"endTime":28.619503208333334,"instrument":4,"program":23,"isDrum":false},{"pitch":54,"velocity":97,"startTime":28.62493797916667,"endTime":29.141241208333334,"instrument":4,"program":23,"isDrum":false},{"pitch":55,"velocity":114,"startTime":29.157545520833335,"endTime":29.271675708333333,"instrument":4,"program":23,"isDrum":false},{"pitch":67,"velocity":87,"startTime":29.999935000000004,"endTime":30.070587020833333,"instrument":4,"program":23,"isDrum":false},{"pitch":75,"velocity":128,"startTime":29.999935000000004,"endTime":30.06515225,"instrument":4,"program":23,"isDrum":false},{"pitch":65,"velocity":64,"startTime":30.260804000000004,"endTime":30.336890791666672,"instrument":4,"program":23,"isDrum":false},{"pitch":74,"velocity":114,"startTime":30.260804000000004,"endTime":30.336890791666672,"instrument":4,"program":23,"isDrum":false},{"pitch":63,"velocity":128,"startTime":30.521673000000003,"endTime":30.581455479166667,"instrument":4,"program":23,"isDrum":false},{"pitch":72,"velocity":87,"startTime":30.521673000000003,"endTime":30.581455479166667,"instrument":4,"program":23,"isDrum":false},{"pitch":62,"velocity":87,"startTime":30.782542000000003,"endTime":30.84775925,"instrument":4,"program":23,"isDrum":false},{"pitch":70,"velocity":128,"startTime":30.782542000000003,"endTime":30.836889708333334,"instrument":4,"program":23,"isDrum":false},{"pitch":60,"velocity":78,"startTime":31.043411000000003,"endTime":31.103193479166674,"instrument":4,"program":23,"isDrum":false},{"pitch":69,"velocity":87,"startTime":31.043411000000003,"endTime":31.11406302083333,"instrument":4,"program":23,"isDrum":false},{"pitch":58,"velocity":97,"startTime":31.304280000000002,"endTime":31.374932020833338,"instrument":4,"program":23,"isDrum":false},{"pitch":67,"velocity":78,"startTime":31.304280000000002,"endTime":31.369497250000006,"instrument":4,"program":23,"isDrum":false},{"pitch":62,"velocity":97,"startTime":31.565149,"endTime":32.293408291666665,"instrument":4,"program":23,"isDrum":false},{"pitch":60,"velocity":78,"startTime":31.826018,"endTime":32.293408291666665,"instrument":4,"program":23,"isDrum":false},{"pitch":66,"velocity":114,"startTime":31.826018,"endTime":32.304277833333344,"instrument":4,"program":23,"isDrum":false},{"pitch":62,"velocity":97,"startTime":32.32058214583334,"endTime":32.451016645833334,"instrument":4,"program":23,"isDrum":false},{"pitch":67,"velocity":78,"startTime":32.32058214583334,"endTime":32.4618861875,"instrument":4,"program":23,"isDrum":false},{"pitch":58,"velocity":128,"startTime":32.33145168750001,"endTime":32.4618861875,"instrument":4,"program":23,"isDrum":false},{"pitch":62,"velocity":128,"startTime":33.14123254166667,"endTime":33.23362364583333,"instrument":4,"program":23,"isDrum":false},{"pitch":62,"velocity":75,"startTime":33.260797499999995,"endTime":33.33144952083333,"instrument":4,"program":23,"isDrum":false},{"pitch":62,"velocity":128,"startTime":33.38036245833334,"endTime":33.456449250000006,"instrument":4,"program":23,"isDrum":false},{"pitch":72,"velocity":87,"startTime":33.87492660416666,"endTime":33.95644816666666,"instrument":4,"program":23,"isDrum":false},{"pitch":62,"velocity":87,"startTime":33.88579614583334,"endTime":33.95644816666666,"instrument":4,"program":23,"isDrum":false},{"pitch":69,"velocity":87,"startTime":34.38036029166666,"endTime":34.46188185416666,"instrument":4,"program":23,"isDrum":false},{"pitch":62,"velocity":87,"startTime":34.39122983333334,"endTime":34.4510123125,"instrument":4,"program":23,"isDrum":false},{"pitch":66,"velocity":128,"startTime":34.91840260416667,"endTime":34.98361985416666,"instrument":4,"program":23,"isDrum":false},{"pitch":62,"velocity":87,"startTime":34.923837375000005,"endTime":34.978185083333344,"instrument":4,"program":23,"isDrum":false},{"pitch":62,"velocity":114,"startTime":35.69557483333334,"endTime":35.95644383333334,"instrument":4,"program":23,"isDrum":false},{"pitch":63,"velocity":97,"startTime":35.967313375,"endTime":36.20644329166667,"instrument":4,"program":23,"isDrum":false},{"pitch":62,"velocity":87,"startTime":36.211878062500006,"endTime":36.47818183333334,"instrument":4,"program":23,"isDrum":false},{"pitch":61,"velocity":114,"startTime":36.47818183333334,"endTime":36.96731120833334,"instrument":4,"program":23,"isDrum":false},{"pitch":62,"velocity":97,"startTime":37.010789375,"endTime":37.119484791666665,"instrument":4,"program":23,"isDrum":false},{"pitch":62,"velocity":97,"startTime":37.532527375,"endTime":37.619483708333334,"instrument":4,"program":23,"isDrum":false},{"pitch":74,"velocity":75,"startTime":38.02709152083334,"endTime":38.10861308333334,"instrument":4,"program":23,"isDrum":false},{"pitch":62,"velocity":78,"startTime":38.0379610625,"endTime":38.10861308333334,"instrument":4,"program":23,"isDrum":false},{"pitch":70,"velocity":128,"startTime":38.592307687499996,"endTime":38.67382925,"instrument":4,"program":23,"isDrum":false},{"pitch":62,"velocity":97,"startTime":38.60317722916666,"endTime":38.679264020833344,"instrument":4,"program":23,"isDrum":false},{"pitch":67,"velocity":97,"startTime":39.097741375,"endTime":39.168393395833334,"instrument":4,"program":23,"isDrum":false},{"pitch":62,"velocity":87,"startTime":39.103176145833345,"endTime":39.17382816666667,"instrument":4,"program":23,"isDrum":false},{"pitch":62,"velocity":97,"startTime":39.880348375,"endTime":40.135782604166664,"instrument":4,"program":23,"isDrum":false},{"pitch":63,"velocity":114,"startTime":40.141217375,"endTime":40.33686912500001,"instrument":4,"program":23,"isDrum":false},{"pitch":62,"velocity":78,"startTime":40.353173437500004,"endTime":40.652085833333345,"instrument":4,"program":23,"isDrum":false},{"pitch":61,"velocity":97,"startTime":40.652085833333345,"endTime":41.14664997916667,"instrument":4,"program":23,"isDrum":false},{"pitch":62,"velocity":87,"startTime":41.173823833333344,"endTime":41.28795402083334,"instrument":4,"program":23,"isDrum":false},{"pitch":62,"velocity":114,"startTime":41.70643137500001,"endTime":41.79338770833334,"instrument":4,"program":23,"isDrum":false},{"pitch":72,"velocity":87,"startTime":42.22273460416666,"endTime":42.30969093750001,"instrument":4,"program":23,"isDrum":false},{"pitch":62,"velocity":87,"startTime":42.23360414583334,"endTime":42.30969093750001,"instrument":4,"program":23,"isDrum":false},{"pitch":69,"velocity":87,"startTime":42.766211687500004,"endTime":42.84229847916667,"instrument":4,"program":23,"isDrum":false},{"pitch":62,"velocity":87,"startTime":42.771646458333336,"endTime":42.83686370833334,"instrument":4,"program":23,"isDrum":false},{"pitch":66,"velocity":128,"startTime":43.304254,"endTime":43.36403647916667,"instrument":4,"program":23,"isDrum":false},{"pitch":62,"velocity":87,"startTime":43.315123541666665,"endTime":43.374906020833336,"instrument":4,"program":23,"isDrum":false},{"pitch":62,"velocity":114,"startTime":44.06512191666667,"endTime":44.30425183333334,"instrument":4,"program":23,"isDrum":false},{"pitch":63,"velocity":114,"startTime":44.30425183333334,"endTime":44.5270774375,"instrument":4,"program":23,"isDrum":false},{"pitch":62,"velocity":87,"startTime":44.54338175000001,"endTime":44.81512029166667,"instrument":4,"program":23,"isDrum":false},{"pitch":61,"velocity":97,"startTime":44.83142460416667,"endTime":45.304249666666664,"instrument":4,"program":23,"isDrum":false},{"pitch":62,"velocity":87,"startTime":45.33142352083334,"endTime":45.467292791666665,"instrument":4,"program":23,"isDrum":false},{"pitch":62,"velocity":114,"startTime":45.85316152083334,"endTime":45.945552625000005,"instrument":4,"program":23,"isDrum":false},{"pitch":74,"velocity":75,"startTime":46.38033429166667,"endTime":46.467290625000004,"instrument":4,"program":23,"isDrum":false},{"pitch":62,"velocity":70,"startTime":46.402073375,"endTime":46.47816016666667,"instrument":4,"program":23,"isDrum":false},{"pitch":70,"velocity":128,"startTime":46.91837660416667,"endTime":47.0053329375,"instrument":4,"program":23,"isDrum":false},{"pitch":62,"velocity":75,"startTime":46.92924614583333,"endTime":46.99989816666667,"instrument":4,"program":23,"isDrum":false},{"pitch":62,"velocity":87,"startTime":47.434679833333334,"endTime":47.510766625,"instrument":4,"program":23,"isDrum":false},{"pitch":67,"velocity":114,"startTime":47.434679833333334,"endTime":47.516201395833335,"instrument":4,"program":23,"isDrum":false},{"pitch":75,"velocity":128,"startTime":48.097721875000005,"endTime":48.19011297916667,"instrument":4,"program":23,"isDrum":false},{"pitch":74,"velocity":87,"startTime":48.233591145833344,"endTime":48.3096779375,"instrument":4,"program":23,"isDrum":false},{"pitch":73,"velocity":128,"startTime":48.34772133333334,"endTime":48.43467766666667,"instrument":4,"program":23,"isDrum":false},{"pitch":72,"velocity":97,"startTime":48.47815583333333,"endTime":48.554242625,"instrument":4,"program":23,"isDrum":false},{"pitch":71,"velocity":54,"startTime":48.597720791666674,"endTime":48.67380758333334,"instrument":4,"program":23,"isDrum":false},{"pitch":70,"velocity":128,"startTime":48.722720520833334,"endTime":48.804242083333335,"instrument":4,"program":23,"isDrum":false},{"pitch":69,"velocity":75,"startTime":48.84772025000001,"endTime":48.93467658333334,"instrument":4,"program":23,"isDrum":false},{"pitch":68,"velocity":128,"startTime":48.983589520833334,"endTime":49.086850166666665,"instrument":4,"program":23,"isDrum":false},{"pitch":67,"velocity":78,"startTime":49.11402402083334,"endTime":49.18467604166666,"instrument":4,"program":23,"isDrum":false},{"pitch":66,"velocity":128,"startTime":49.23358897916667,"endTime":49.325980083333334,"instrument":4,"program":23,"isDrum":false},{"pitch":65,"velocity":87,"startTime":49.36945825000001,"endTime":49.45641458333334,"instrument":4,"program":23,"isDrum":false},{"pitch":64,"velocity":70,"startTime":49.49989275,"endTime":49.5814143125,"instrument":4,"program":23,"isDrum":false},{"pitch":63,"velocity":128,"startTime":49.62489247916666,"endTime":49.72271835416667,"instrument":4,"program":23,"isDrum":false},{"pitch":62,"velocity":70,"startTime":49.75532697916667,"endTime":49.83684854166667,"instrument":4,"program":23,"isDrum":false},{"pitch":61,"velocity":128,"startTime":49.88576147916666,"endTime":49.98358735416667,"instrument":4,"program":23,"isDrum":false},{"pitch":60,"velocity":87,"startTime":50.043369833333344,"endTime":50.14119570833334,"instrument":4,"program":23,"isDrum":false},{"pitch":67,"velocity":97,"startTime":50.554238291666664,"endTime":50.635759854166665,"instrument":4,"program":23,"isDrum":false},{"pitch":60,"velocity":78,"startTime":50.56510783333334,"endTime":50.63032508333333,"instrument":4,"program":23,"isDrum":false},{"pitch":66,"velocity":128,"startTime":51.08684583333334,"endTime":51.152063083333346,"instrument":4,"program":23,"isDrum":false},{"pitch":60,"velocity":78,"startTime":51.092280604166675,"endTime":51.16836739583334,"instrument":4,"program":23,"isDrum":false},{"pitch":60,"velocity":97,"startTime":51.60314906250001,"endTime":51.67923585416666,"instrument":4,"program":23,"isDrum":false},{"pitch":67,"velocity":87,"startTime":51.60314906250001,"endTime":51.673801083333345,"instrument":4,"program":23,"isDrum":false},{"pitch":60,"velocity":87,"startTime":52.41292991666667,"endTime":52.47814716666667,"instrument":4,"program":23,"isDrum":false},{"pitch":67,"velocity":87,"startTime":52.41292991666667,"endTime":52.48901670833334,"instrument":4,"program":23,"isDrum":false},{"pitch":67,"velocity":78,"startTime":52.641190291666675,"endTime":52.72814662500001,"instrument":4,"program":23,"isDrum":false},{"pitch":60,"velocity":78,"startTime":52.65749460416667,"endTime":52.72814662500001,"instrument":4,"program":23,"isDrum":false},{"pitch":66,"velocity":128,"startTime":52.91292883333334,"endTime":53.005319937500005,"instrument":4,"program":23,"isDrum":false},{"pitch":60,"velocity":61,"startTime":52.93466791666667,"endTime":52.99445039583334,"instrument":4,"program":23,"isDrum":false},{"pitch":60,"velocity":75,"startTime":53.184667375000004,"endTime":53.266188937500004,"instrument":4,"program":23,"isDrum":false},{"pitch":67,"velocity":87,"startTime":53.184667375000004,"endTime":53.266188937500004,"instrument":4,"program":23,"isDrum":false},{"pitch":66,"velocity":114,"startTime":53.43466683333334,"endTime":53.532492708333336,"instrument":4,"program":23,"isDrum":false},{"pitch":60,"velocity":55,"startTime":53.4618406875,"endTime":53.527057937500004,"instrument":4,"program":23,"isDrum":false},{"pitch":60,"velocity":75,"startTime":53.69553583333334,"endTime":53.793361708333336,"instrument":4,"program":23,"isDrum":false},{"pitch":67,"velocity":97,"startTime":53.70097060416667,"endTime":53.793361708333336,"instrument":4,"program":23,"isDrum":false},{"pitch":66,"velocity":128,"startTime":53.950970062500005,"endTime":54.054230708333336,"instrument":4,"program":23,"isDrum":false},{"pitch":60,"velocity":70,"startTime":53.967274375,"endTime":54.0487959375,"instrument":4,"program":23,"isDrum":false},{"pitch":58,"velocity":114,"startTime":54.23901291666667,"endTime":54.33140402083333,"instrument":4,"program":23,"isDrum":false},{"pitch":58,"velocity":87,"startTime":54.78249000000001,"endTime":54.858576791666664,"instrument":4,"program":23,"isDrum":false},{"pitch":67,"velocity":97,"startTime":54.78249000000001,"endTime":54.86944633333334,"instrument":4,"program":23,"isDrum":false},{"pitch":58,"velocity":70,"startTime":55.30422800000001,"endTime":55.38574956250001,"instrument":4,"program":23,"isDrum":false},{"pitch":66,"velocity":97,"startTime":55.30422800000001,"endTime":55.39118433333334,"instrument":4,"program":23,"isDrum":false},{"pitch":58,"velocity":75,"startTime":55.82596600000001,"endTime":55.896618020833344,"instrument":4,"program":23,"isDrum":false},{"pitch":67,"velocity":87,"startTime":55.82596600000001,"endTime":55.91292233333334,"instrument":4,"program":23,"isDrum":false},{"pitch":66,"velocity":128,"startTime":56.59226868750001,"endTime":56.67922502083334,"instrument":4,"program":23,"isDrum":false},{"pitch":58,"velocity":87,"startTime":56.603138229166674,"endTime":56.662920708333345,"instrument":4,"program":23,"isDrum":false},{"pitch":67,"velocity":87,"startTime":56.831398604166665,"endTime":56.92922447916666,"instrument":4,"program":23,"isDrum":false},{"pitch":58,"velocity":87,"startTime":56.842268145833344,"endTime":56.912920166666666,"instrument":4,"program":23,"isDrum":false},{"pitch":66,"velocity":128,"startTime":57.092267604166665,"endTime":57.184658708333345,"instrument":4,"program":23,"isDrum":false},{"pitch":58,"velocity":70,"startTime":57.10857191666666,"endTime":57.173789166666666,"instrument":4,"program":23,"isDrum":false},{"pitch":58,"velocity":70,"startTime":57.347701833333346,"endTime":57.42922339583333,"instrument":4,"program":23,"isDrum":false},{"pitch":67,"velocity":78,"startTime":57.347701833333346,"endTime":57.45096247916666,"instrument":4,"program":23,"isDrum":false},{"pitch":66,"velocity":128,"startTime":57.608570833333346,"endTime":57.706396708333344,"instrument":4,"program":23,"isDrum":false},{"pitch":58,"velocity":78,"startTime":57.61944037500001,"endTime":57.684657625,"instrument":4,"program":23,"isDrum":false},{"pitch":58,"velocity":75,"startTime":57.858570291666666,"endTime":57.934657083333335,"instrument":4,"program":23,"isDrum":false},{"pitch":67,"velocity":78,"startTime":57.858570291666666,"endTime":57.950961395833346,"instrument":4,"program":23,"isDrum":false},{"pitch":66,"velocity":128,"startTime":58.097700208333336,"endTime":58.195526083333334,"instrument":4,"program":23,"isDrum":false},{"pitch":58,"velocity":61,"startTime":58.11400452083333,"endTime":58.17922177083334,"instrument":4,"program":23,"isDrum":false},{"pitch":57,"velocity":87,"startTime":58.39661260416666,"endTime":58.494438479166675,"instrument":4,"program":23,"isDrum":false},{"pitch":57,"velocity":87,"startTime":58.92378537500001,"endTime":59.00530693750001,"instrument":4,"program":23,"isDrum":false},{"pitch":62,"velocity":97,"startTime":58.92378537500001,"endTime":59.01074170833334,"instrument":4,"program":23,"isDrum":false},{"pitch":60,"velocity":97,"startTime":59.44552337500001,"endTime":59.543349250000006,"instrument":4,"program":23,"isDrum":false},{"pitch":57,"velocity":75,"startTime":59.45095814583334,"endTime":59.543349250000006,"instrument":4,"program":23,"isDrum":false},{"pitch":62,"velocity":114,"startTime":59.94552229166666,"endTime":60.03247862500001,"instrument":4,"program":23,"isDrum":false},{"pitch":57,"velocity":87,"startTime":59.95095706250001,"endTime":60.03247862500001,"instrument":4,"program":23,"isDrum":false},{"pitch":60,"velocity":97,"startTime":60.71725975000001,"endTime":61.16291095833334,"instrument":4,"program":23,"isDrum":false},{"pitch":58,"velocity":87,"startTime":61.190084812500004,"endTime":61.32595408333334,"instrument":4,"program":23,"isDrum":false},{"pitch":57,"velocity":75,"startTime":61.33138885416666,"endTime":61.46182335416667,"instrument":4,"program":23,"isDrum":false},{"pitch":55,"velocity":75,"startTime":61.467258125,"endTime":62.010735208333344,"instrument":4,"program":23,"isDrum":false},{"pitch":54,"velocity":97,"startTime":62.016169979166676,"endTime":62.53247320833334,"instrument":4,"program":23,"isDrum":false},{"pitch":55,"velocity":114,"startTime":62.54877752083334,"endTime":62.66290770833335,"instrument":4,"program":23,"isDrum":false},{"pitch":67,"velocity":87,"startTime":63.39116700000001,"endTime":63.461819020833346,"instrument":4,"program":23,"isDrum":false},{"pitch":75,"velocity":128,"startTime":63.39116700000001,"endTime":63.45638425000001,"instrument":4,"program":23,"isDrum":false},{"pitch":65,"velocity":64,"startTime":63.65203600000001,"endTime":63.72812279166668,"instrument":4,"program":23,"isDrum":false},{"pitch":74,"velocity":114,"startTime":63.65203600000001,"endTime":63.72812279166668,"instrument":4,"program":23,"isDrum":false},{"pitch":63,"velocity":128,"startTime":63.91290500000001,"endTime":63.972687479166666,"instrument":4,"program":23,"isDrum":false},{"pitch":72,"velocity":87,"startTime":63.91290500000001,"endTime":63.972687479166666,"instrument":4,"program":23,"isDrum":false},{"pitch":62,"velocity":87,"startTime":64.17377400000001,"endTime":64.23899125000001,"instrument":4,"program":23,"isDrum":false},{"pitch":70,"velocity":128,"startTime":64.17377400000001,"endTime":64.22812170833335,"instrument":4,"program":23,"isDrum":false},{"pitch":60,"velocity":78,"startTime":64.43464300000001,"endTime":64.49442547916667,"instrument":4,"program":23,"isDrum":false},{"pitch":69,"velocity":87,"startTime":64.43464300000001,"endTime":64.50529502083334,"instrument":4,"program":23,"isDrum":false},{"pitch":58,"velocity":97,"startTime":64.69551200000001,"endTime":64.76616402083333,"instrument":4,"program":23,"isDrum":false},{"pitch":67,"velocity":78,"startTime":64.69551200000001,"endTime":64.76072925000001,"instrument":4,"program":23,"isDrum":false},{"pitch":62,"velocity":97,"startTime":64.95638100000001,"endTime":65.68464029166668,"instrument":4,"program":23,"isDrum":false},{"pitch":60,"velocity":78,"startTime":65.21725,"endTime":65.68464029166668,"instrument":4,"program":23,"isDrum":false},{"pitch":66,"velocity":114,"startTime":65.21725,"endTime":65.69550983333333,"instrument":4,"program":23,"isDrum":false},{"pitch":62,"velocity":97,"startTime":65.71181414583333,"endTime":65.84224864583334,"instrument":4,"program":23,"isDrum":false},{"pitch":67,"velocity":78,"startTime":65.71181414583333,"endTime":65.8531181875,"instrument":4,"program":23,"isDrum":false},{"pitch":58,"velocity":128,"startTime":65.72268368750001,"endTime":65.8531181875,"instrument":4,"program":23,"isDrum":false},{"pitch":55,"velocity":97,"startTime":66.782464,"endTime":67.03789822916669,"instrument":4,"program":23,"isDrum":false},{"pitch":57,"velocity":87,"startTime":67.043333,"endTime":67.26072383333333,"instrument":4,"program":23,"isDrum":false},{"pitch":58,"velocity":78,"startTime":67.27702814583334,"endTime":68.0705046875,"instrument":4,"program":23,"isDrum":false},{"pitch":55,"velocity":87,"startTime":68.08137422916668,"endTime":68.33680845833334,"instrument":4,"program":23,"isDrum":false},{"pitch":57,"velocity":97,"startTime":68.347678,"endTime":68.575938375,"instrument":4,"program":23,"isDrum":false},{"pitch":58,"velocity":87,"startTime":68.5922426875,"endTime":68.84767691666669,"instrument":4,"program":23,"isDrum":false},{"pitch":57,"velocity":114,"startTime":68.88028554166668,"endTime":69.35311060416667,"instrument":4,"program":23,"isDrum":false},{"pitch":55,"velocity":97,"startTime":69.36398014583334,"endTime":69.42919739583334,"instrument":4,"program":23,"isDrum":false},{"pitch":74,"velocity":114,"startTime":69.6357186875,"endTime":69.71180547916669,"instrument":4,"program":23,"isDrum":false},{"pitch":70,"velocity":128,"startTime":69.90202245833333,"endTime":69.96723970833334,"instrument":4,"program":23,"isDrum":false},{"pitch":67,"velocity":97,"startTime":70.14658714583334,"endTime":70.22810870833334,"instrument":4,"program":23,"isDrum":false},{"pitch":74,"velocity":114,"startTime":70.39658660416669,"endTime":70.47267339583334,"instrument":4,"program":23,"isDrum":false},{"pitch":72,"velocity":87,"startTime":70.54332541666668,"endTime":70.6465860625,"instrument":4,"program":23,"isDrum":false},{"pitch":70,"velocity":128,"startTime":70.64115129166667,"endTime":70.76615102083333,"instrument":4,"program":23,"isDrum":false},{"pitch":69,"velocity":87,"startTime":70.78789010416668,"endTime":70.87484643750001,"instrument":4,"program":23,"isDrum":false},{"pitch":67,"velocity":97,"startTime":70.9074550625,"endTime":70.98354185416667,"instrument":4,"program":23,"isDrum":false},{"pitch":67,"velocity":97,"startTime":71.20636745833333,"endTime":71.25528039583334,"instrument":4,"program":23,"isDrum":false},{"pitch":67,"velocity":87,"startTime":71.28245425000001,"endTime":71.35310627083334,"instrument":4,"program":23,"isDrum":false},{"pitch":67,"velocity":87,"startTime":71.39114966666668,"endTime":71.45093214583333,"instrument":4,"program":23,"isDrum":false},{"pitch":65,"velocity":87,"startTime":71.65201866666668,"endTime":71.72267068750001,"instrument":4,"program":23,"isDrum":false},{"pitch":65,"velocity":114,"startTime":71.91832243750001,"endTime":71.98897445833333,"instrument":4,"program":23,"isDrum":false},{"pitch":63,"velocity":128,"startTime":72.15745235416668,"endTime":72.21723483333334,"instrument":4,"program":23,"isDrum":false},{"pitch":63,"velocity":128,"startTime":72.41832135416668,"endTime":72.48897337500001,"instrument":4,"program":23,"isDrum":false},{"pitch":62,"velocity":128,"startTime":72.66288604166668,"endTime":72.73897283333334,"instrument":4,"program":23,"isDrum":false},{"pitch":62,"velocity":97,"startTime":72.93462458333333,"endTime":73.69005772916668,"instrument":4,"program":23,"isDrum":false},{"pitch":63,"velocity":114,"startTime":73.6791881875,"endTime":73.79875314583333,"instrument":4,"program":23,"isDrum":false},{"pitch":62,"velocity":87,"startTime":73.80962268750001,"endTime":73.93462241666668,"instrument":4,"program":23,"isDrum":false},{"pitch":61,"velocity":128,"startTime":73.94549195833333,"endTime":74.04875260416668,"instrument":4,"program":23,"isDrum":false},{"pitch":60,"velocity":78,"startTime":74.08136122916667,"endTime":74.65201216666668,"instrument":4,"program":23,"isDrum":false},{"pitch":69,"velocity":128,"startTime":75.41288008333333,"endTime":75.488966875,"instrument":4,"program":23,"isDrum":false},{"pitch":69,"velocity":128,"startTime":75.52701027083334,"endTime":75.58135797916668,"instrument":4,"program":23,"isDrum":false},{"pitch":69,"velocity":97,"startTime":75.60853183333333,"endTime":75.67918385416668,"instrument":4,"program":23,"isDrum":false},{"pitch":67,"velocity":97,"startTime":75.89113991666667,"endTime":75.97266147916667,"instrument":4,"program":23,"isDrum":false},{"pitch":67,"velocity":114,"startTime":76.16287845833334,"endTime":76.23353047916667,"instrument":4,"program":23,"isDrum":false},{"pitch":66,"velocity":128,"startTime":76.40744314583334,"endTime":76.47266039583334,"instrument":4,"program":23,"isDrum":false},{"pitch":66,"velocity":128,"startTime":76.66831214583334,"endTime":76.72809462500001,"instrument":4,"program":23,"isDrum":false},{"pitch":63,"velocity":128,"startTime":77.50526685416668,"endTime":77.55417979166668,"instrument":4,"program":23,"isDrum":false},{"pitch":63,"velocity":128,"startTime":77.60852750000001,"endTime":77.66830997916668,"instrument":4,"program":23,"isDrum":false},{"pitch":63,"velocity":128,"startTime":77.71722291666669,"endTime":77.76613585416668,"instrument":4,"program":23,"isDrum":false},{"pitch":62,"velocity":128,"startTime":77.97809191666668,"endTime":78.04330916666667,"instrument":4,"program":23,"isDrum":false},{"pitch":62,"velocity":97,"startTime":78.25526522916668,"endTime":79.51069729166667,"instrument":4,"program":23,"isDrum":false},{"pitch":60,"velocity":97,"startTime":79.53787114583334,"endTime":79.78243583333334,"instrument":4,"program":23,"isDrum":false},{"pitch":72,"velocity":78,"startTime":79.7770010625,"endTime":79.858522625,"instrument":4,"program":23,"isDrum":false},{"pitch":60,"velocity":114,"startTime":80.59221668750001,"endTime":80.67917302083333,"instrument":4,"program":23,"isDrum":false},{"pitch":58,"velocity":128,"startTime":80.85308568750001,"endTime":80.92373770833333,"instrument":4,"program":23,"isDrum":false},{"pitch":57,"velocity":114,"startTime":81.10308514583333,"endTime":81.17373716666668,"instrument":4,"program":23,"isDrum":false},{"pitch":55,"velocity":114,"startTime":81.37482368750001,"endTime":81.45091047916668,"instrument":4,"program":23,"isDrum":false},{"pitch":54,"velocity":128,"startTime":81.49982341666669,"endTime":81.58134497916669,"instrument":4,"program":23,"isDrum":false},{"pitch":55,"velocity":97,"startTime":81.61938837500001,"endTime":81.70634470833333,"instrument":4,"program":23,"isDrum":false},{"pitch":57,"velocity":128,"startTime":81.749822875,"endTime":81.83134443750001,"instrument":4,"program":23,"isDrum":false},{"pitch":58,"velocity":128,"startTime":81.88025737500001,"endTime":81.96177893750001,"instrument":4,"program":23,"isDrum":false},{"pitch":57,"velocity":97,"startTime":81.99982233333334,"endTime":82.07047435416668,"instrument":4,"program":23,"isDrum":false},{"pitch":58,"velocity":128,"startTime":82.11395252083334,"endTime":82.20090885416668,"instrument":4,"program":23,"isDrum":false},{"pitch":60,"velocity":78,"startTime":82.24982179166668,"endTime":82.33677812500001,"instrument":4,"program":23,"isDrum":false},{"pitch":62,"velocity":78,"startTime":82.38025629166668,"endTime":82.49438647916668,"instrument":4,"program":23,"isDrum":false},{"pitch":61,"velocity":128,"startTime":82.52156033333334,"endTime":82.59221235416668,"instrument":4,"program":23,"isDrum":false},{"pitch":62,"velocity":78,"startTime":82.64656006250001,"endTime":82.76612502083334,"instrument":4,"program":23,"isDrum":false},{"pitch":63,"velocity":128,"startTime":82.76069025000001,"endTime":82.84221181250001,"instrument":4,"program":23,"isDrum":false},{"pitch":62,"velocity":87,"startTime":82.90199429166668,"endTime":83.03786356250001,"instrument":4,"program":23,"isDrum":false},{"pitch":60,"velocity":114,"startTime":83.02155925000001,"endTime":83.14112420833334,"instrument":4,"program":23,"isDrum":false},{"pitch":58,"velocity":128,"startTime":83.14112420833334,"endTime":83.26612393750001,"instrument":4,"program":23,"isDrum":false},{"pitch":57,"velocity":78,"startTime":83.27699347916668,"endTime":83.41286275,"instrument":4,"program":23,"isDrum":false},{"pitch":55,"velocity":97,"startTime":83.44547137500001,"endTime":83.71720991666668,"instrument":4,"program":23,"isDrum":false},{"pitch":57,"velocity":78,"startTime":83.73351422916669,"endTime":83.93460075000002,"instrument":4,"program":23,"isDrum":false},{"pitch":58,"velocity":78,"startTime":83.95090506250001,"endTime":84.73351206250001,"instrument":4,"program":23,"isDrum":false},{"pitch":55,"velocity":128,"startTime":84.76068591666669,"endTime":84.9617724375,"instrument":4,"program":23,"isDrum":false},{"pitch":57,"velocity":114,"startTime":84.99981583333334,"endTime":85.18459804166667,"instrument":4,"program":23,"isDrum":false},{"pitch":58,"velocity":128,"startTime":85.21177189583334,"endTime":85.44546704166667,"instrument":4,"program":23,"isDrum":false},{"pitch":57,"velocity":114,"startTime":85.48894520833333,"endTime":85.97807458333334,"instrument":4,"program":23,"isDrum":false},{"pitch":55,"velocity":97,"startTime":86.01611797916668,"endTime":86.09220477083333,"instrument":4,"program":23,"isDrum":false},{"pitch":74,"velocity":87,"startTime":86.30959560416667,"endTime":86.38568239583334,"instrument":4,"program":23,"isDrum":false},{"pitch":70,"velocity":128,"startTime":86.55959506250001,"endTime":86.63024708333334,"instrument":4,"program":23,"isDrum":false},{"pitch":67,"velocity":97,"startTime":86.81502929166668,"endTime":86.88568131250001,"instrument":4,"program":23,"isDrum":false},{"pitch":74,"velocity":97,"startTime":87.09220260416669,"endTime":87.16828939583334,"instrument":4,"program":23,"isDrum":false},{"pitch":72,"velocity":97,"startTime":87.23350664583334,"endTime":87.36394114583334,"instrument":4,"program":23,"isDrum":false},{"pitch":70,"velocity":128,"startTime":87.33676729166667,"endTime":87.45089747916668,"instrument":4,"program":23,"isDrum":false},{"pitch":69,"velocity":78,"startTime":87.47807133333333,"endTime":87.57589720833334,"instrument":4,"program":23,"isDrum":false},{"pitch":67,"velocity":114,"startTime":87.59763629166667,"endTime":87.67915785416668,"instrument":4,"program":23,"isDrum":false},{"pitch":67,"velocity":114,"startTime":87.880244375,"endTime":87.94002685416667,"instrument":4,"program":23,"isDrum":false},{"pitch":67,"velocity":97,"startTime":87.98350502083333,"endTime":88.05415704166668,"instrument":4,"program":23,"isDrum":false},{"pitch":67,"velocity":78,"startTime":88.08133089583333,"endTime":88.15198291666668,"instrument":4,"program":23,"isDrum":false},{"pitch":65,"velocity":97,"startTime":88.34219989583333,"endTime":88.41285191666668,"instrument":4,"program":23,"isDrum":false},{"pitch":65,"velocity":97,"startTime":88.62480797916668,"endTime":88.69002522916668,"instrument":4,"program":23,"isDrum":false},{"pitch":63,"velocity":128,"startTime":88.85850312500001,"endTime":88.92372037500002,"instrument":4,"program":23,"isDrum":false},{"pitch":63,"velocity":128,"startTime":89.11393735416668,"endTime":89.17915460416668,"instrument":4,"program":23,"isDrum":false},{"pitch":62,"velocity":97,"startTime":89.38567589583334,"endTime":89.46176268750001,"instrument":4,"program":23,"isDrum":false},{"pitch":60,"velocity":128,"startTime":89.73350122916668,"endTime":89.80958802083333,"instrument":4,"program":23,"isDrum":false},{"pitch":59,"velocity":87,"startTime":89.85850095833334,"endTime":89.93458775,"instrument":4,"program":23,"isDrum":false},{"pitch":60,"velocity":87,"startTime":89.98350068750001,"endTime":90.05958747916668,"instrument":4,"program":23,"isDrum":false},{"pitch":62,"velocity":114,"startTime":90.09763087500001,"endTime":90.19002197916669,"instrument":4,"program":23,"isDrum":false},{"pitch":63,"velocity":128,"startTime":90.23893491666668,"endTime":90.30958693750001,"instrument":4,"program":23,"isDrum":false},{"pitch":62,"velocity":97,"startTime":90.34219556250001,"endTime":90.41828235416668,"instrument":4,"program":23,"isDrum":false},{"pitch":63,"velocity":128,"startTime":90.46719529166668,"endTime":90.54871685416668,"instrument":4,"program":23,"isDrum":false},{"pitch":65,"velocity":61,"startTime":90.60306456250001,"endTime":90.67371658333334,"instrument":4,"program":23,"isDrum":false},{"pitch":67,"velocity":87,"startTime":90.73349906250002,"endTime":90.83132493750001,"instrument":4,"program":23,"isDrum":false},{"pitch":66,"velocity":128,"startTime":90.85306402083334,"endTime":90.92915081250001,"instrument":4,"program":23,"isDrum":false},{"pitch":67,"velocity":61,"startTime":90.98893329166668,"endTime":91.09762870833333,"instrument":4,"program":23,"isDrum":false},{"pitch":68,"velocity":114,"startTime":91.09219393750001,"endTime":91.17915027083333,"instrument":4,"program":23,"isDrum":false},{"pitch":67,"velocity":78,"startTime":91.23349797916669,"endTime":91.35849770833333,"instrument":4,"program":23,"isDrum":false},{"pitch":65,"velocity":114,"startTime":91.35849770833333,"endTime":91.47806266666669,"instrument":4,"program":23,"isDrum":false},{"pitch":63,"velocity":114,"startTime":91.47806266666669,"endTime":91.61393193750001,"instrument":4,"program":23,"isDrum":false},{"pitch":62,"velocity":75,"startTime":91.61393193750001,"endTime":91.72262735416668,"instrument":4,"program":23,"isDrum":false},{"pitch":60,"velocity":114,"startTime":91.78784460416668,"endTime":92.0052354375,"instrument":4,"program":23,"isDrum":false},{"pitch":60,"velocity":87,"startTime":92.04327883333333,"endTime":92.13023516666668,"instrument":4,"program":23,"isDrum":false},{"pitch":63,"velocity":114,"startTime":92.04327883333333,"endTime":92.12480039583333,"instrument":4,"program":23,"isDrum":false},{"pitch":67,"velocity":78,"startTime":92.55958206250001,"endTime":92.97262464583333,"instrument":4,"program":23,"isDrum":false},{"pitch":60,"velocity":87,"startTime":92.57045160416668,"endTime":92.95632033333334,"instrument":4,"program":23,"isDrum":false},{"pitch":66,"velocity":97,"startTime":93.04327666666669,"endTime":93.23349364583333,"instrument":4,"program":23,"isDrum":false},{"pitch":60,"velocity":87,"startTime":93.0487114375,"endTime":93.19001547916668,"instrument":4,"program":23,"isDrum":false},{"pitch":67,"velocity":78,"startTime":93.33675429166668,"endTime":93.45631925,"instrument":4,"program":23,"isDrum":false},{"pitch":60,"velocity":78,"startTime":93.34218906250001,"endTime":93.44544970833334,"instrument":4,"program":23,"isDrum":false},{"pitch":58,"velocity":97,"startTime":93.85849229166668,"endTime":94.0595788125,"instrument":4,"program":23,"isDrum":false},{"pitch":58,"velocity":18,"startTime":94.13023083333334,"endTime":94.23349147916669,"instrument":4,"program":23,"isDrum":false},{"pitch":62,"velocity":114,"startTime":94.15196991666669,"endTime":94.23892625,"instrument":4,"program":23,"isDrum":false},{"pitch":67,"velocity":87,"startTime":94.66827314583334,"endTime":95.09762004166669,"instrument":4,"program":23,"isDrum":false},{"pitch":58,"velocity":97,"startTime":94.67370791666669,"endTime":95.01609847916669,"instrument":4,"program":23,"isDrum":false},{"pitch":66,"velocity":114,"startTime":95.14653297916668,"endTime":95.445445375,"instrument":4,"program":23,"isDrum":false},{"pitch":58,"velocity":97,"startTime":95.15740252083334,"endTime":95.27696747916669,"instrument":4,"program":23,"isDrum":false},{"pitch":58,"velocity":61,"startTime":95.445445375,"endTime":95.54870602083334,"instrument":4,"program":23,"isDrum":false},{"pitch":67,"velocity":97,"startTime":95.4617496875,"endTime":95.57044510416668,"instrument":4,"program":23,"isDrum":false},{"pitch":62,"velocity":97,"startTime":96.24435668750002,"endTime":96.51609522916668,"instrument":4,"program":23,"isDrum":false},{"pitch":69,"velocity":97,"startTime":96.52153000000001,"endTime":96.78239900000001,"instrument":4,"program":23,"isDrum":false},{"pitch":66,"velocity":87,"startTime":96.76609468750001,"endTime":97.03239845833333,"instrument":4,"program":23,"isDrum":false},{"pitch":62,"velocity":64,"startTime":97.03783322916668,"endTime":97.32044131250001,"instrument":4,"program":23,"isDrum":false},{"pitch":60,"velocity":70,"startTime":97.32587608333334,"endTime":97.74978820833334,"instrument":4,"program":23,"isDrum":false},{"pitch":54,"velocity":114,"startTime":97.76609252083334,"endTime":98.04326583333334,"instrument":4,"program":23,"isDrum":false},{"pitch":55,"velocity":97,"startTime":98.05413537500002,"endTime":98.13565693750002,"instrument":4,"program":23,"isDrum":false},{"pitch":62,"velocity":114,"startTime":98.33130868750001,"endTime":99.01065504166668,"instrument":4,"program":23,"isDrum":false},{"pitch":60,"velocity":87,"startTime":98.60848200000001,"endTime":98.901959625,"instrument":4,"program":23,"isDrum":false},{"pitch":66,"velocity":114,"startTime":98.61935154166669,"endTime":99.03782889583334,"instrument":4,"program":23,"isDrum":false},{"pitch":67,"velocity":70,"startTime":99.07587229166668,"endTime":99.228045875,"instrument":4,"program":23,"isDrum":false},{"pitch":62,"velocity":87,"startTime":99.08130706250002,"endTime":99.21717633333334,"instrument":4,"program":23,"isDrum":false},{"pitch":58,"velocity":114,"startTime":99.09217660416668,"endTime":99.21174156250001,"instrument":4,"program":23,"isDrum":false},{"pitch":62,"velocity":128,"startTime":100.19543508333334,"endTime":100.26065233333334,"instrument":4,"program":23,"isDrum":false},{"pitch":62,"velocity":114,"startTime":100.29869572916668,"endTime":100.37478252083334,"instrument":4,"program":23,"isDrum":false},{"pitch":62,"velocity":114,"startTime":100.43999977083334,"endTime":100.51065179166669,"instrument":4,"program":23,"isDrum":false},{"pitch":62,"velocity":114,"startTime":100.55412995833333,"endTime":100.65739060416668,"instrument":4,"program":23,"isDrum":false},{"pitch":72,"velocity":114,"startTime":100.68456445833334,"endTime":100.77152079166669,"instrument":4,"program":23,"isDrum":false},{"pitch":62,"velocity":97,"startTime":100.81499895833333,"endTime":100.90195529166668,"instrument":4,"program":23,"isDrum":false},{"pitch":62,"velocity":114,"startTime":100.92369437500001,"endTime":101.00521593750001,"instrument":4,"program":23,"isDrum":false},{"pitch":62,"velocity":114,"startTime":101.04869410416669,"endTime":101.15738952083333,"instrument":4,"program":23,"isDrum":false},{"pitch":69,"velocity":128,"startTime":101.18456337500001,"endTime":101.28238925000001,"instrument":4,"program":23,"isDrum":false},{"pitch":62,"velocity":114,"startTime":101.30956310416668,"endTime":101.380215125,"instrument":4,"program":23,"isDrum":false},{"pitch":62,"velocity":114,"startTime":101.43999760416668,"endTime":101.51608439583335,"instrument":4,"program":23,"isDrum":false},{"pitch":62,"velocity":97,"startTime":101.5595625625,"endTime":101.6573884375,"instrument":4,"program":23,"isDrum":false},{"pitch":66,"velocity":128,"startTime":101.71173614583334,"endTime":101.80956202083334,"instrument":4,"program":23,"isDrum":false},{"pitch":62,"velocity":114,"startTime":101.82586633333334,"endTime":101.901953125,"instrument":4,"program":23,"isDrum":false},{"pitch":62,"velocity":128,"startTime":101.95630083333334,"endTime":102.04869193750001,"instrument":4,"program":23,"isDrum":false},{"pitch":62,"velocity":87,"startTime":102.08673533333334,"endTime":102.17912643750002,"instrument":4,"program":23,"isDrum":false},{"pitch":62,"velocity":128,"startTime":102.22803937500001,"endTime":102.32043047916669,"instrument":4,"program":23,"isDrum":false},{"pitch":62,"velocity":87,"startTime":102.35303910416668,"endTime":102.44543020833333,"instrument":4,"program":23,"isDrum":false},{"pitch":62,"velocity":114,"startTime":102.48347360416668,"endTime":102.57586470833334,"instrument":4,"program":23,"isDrum":false},{"pitch":62,"velocity":87,"startTime":102.60847333333334,"endTime":102.69542966666668,"instrument":4,"program":23,"isDrum":false},{"pitch":62,"velocity":128,"startTime":102.74434260416668,"endTime":102.83673370833334,"instrument":4,"program":23,"isDrum":false},{"pitch":62,"velocity":87,"startTime":102.86934233333334,"endTime":102.95629866666668,"instrument":4,"program":23,"isDrum":false},{"pitch":62,"velocity":128,"startTime":103.00521160416667,"endTime":103.09760270833334,"instrument":4,"program":23,"isDrum":false},{"pitch":62,"velocity":97,"startTime":103.14108087500001,"endTime":103.23347197916668,"instrument":4,"program":23,"isDrum":false},{"pitch":63,"velocity":128,"startTime":103.27695014583334,"endTime":103.36390647916669,"instrument":4,"program":23,"isDrum":false},{"pitch":62,"velocity":97,"startTime":103.39651510416668,"endTime":103.47803666666668,"instrument":4,"program":23,"isDrum":false},{"pitch":61,"velocity":128,"startTime":103.52694960416669,"endTime":103.60303639583334,"instrument":4,"program":23,"isDrum":false},{"pitch":62,"velocity":97,"startTime":103.64651456250002,"endTime":103.74434043750001,"instrument":4,"program":23,"isDrum":false},{"pitch":63,"velocity":128,"startTime":103.78781860416669,"endTime":103.8747749375,"instrument":4,"program":23,"isDrum":false},{"pitch":62,"velocity":114,"startTime":103.91825310416668,"endTime":103.99433989583333,"instrument":4,"program":23,"isDrum":false},{"pitch":61,"velocity":128,"startTime":104.04325283333334,"endTime":104.12477439583334,"instrument":4,"program":23,"isDrum":false},{"pitch":62,"velocity":114,"startTime":104.16825256250002,"endTime":104.25520889583333,"instrument":4,"program":23,"isDrum":false},{"pitch":62,"velocity":128,"startTime":104.314991375,"endTime":104.41281725000002,"instrument":4,"program":23,"isDrum":false},{"pitch":62,"velocity":97,"startTime":104.43999110416668,"endTime":104.52694743750001,"instrument":4,"program":23,"isDrum":false},{"pitch":62,"velocity":114,"startTime":104.575860375,"endTime":104.65194716666669,"instrument":4,"program":23,"isDrum":false},{"pitch":62,"velocity":87,"startTime":104.70629487500001,"endTime":104.82042506250001,"instrument":4,"program":23,"isDrum":false},{"pitch":74,"velocity":128,"startTime":104.85303368750002,"endTime":104.94542479166668,"instrument":4,"program":23,"isDrum":false},{"pitch":62,"velocity":128,"startTime":104.97259864583334,"endTime":105.06498975000001,"instrument":4,"program":23,"isDrum":false},{"pitch":62,"velocity":114,"startTime":105.097598375,"endTime":105.1791199375,"instrument":4,"program":23,"isDrum":false},{"pitch":62,"velocity":114,"startTime":105.22803287500001,"endTime":105.32585875000001,"instrument":4,"program":23,"isDrum":false},{"pitch":70,"velocity":128,"startTime":105.36390214583334,"endTime":105.45629325000002,"instrument":4,"program":23,"isDrum":false},{"pitch":62,"velocity":114,"startTime":105.48346710416668,"endTime":105.56498866666668,"instrument":4,"program":23,"isDrum":false},{"pitch":62,"velocity":114,"startTime":105.61390160416668,"endTime":105.68998839583334,"instrument":4,"program":23,"isDrum":false},{"pitch":62,"velocity":97,"startTime":105.73346656250001,"endTime":105.83672720833334,"instrument":4,"program":23,"isDrum":false},{"pitch":67,"velocity":128,"startTime":105.87477060416668,"endTime":105.97803125000002,"instrument":4,"program":23,"isDrum":false},{"pitch":62,"velocity":114,"startTime":106.01607464583334,"endTime":106.09759620833334,"instrument":4,"program":23,"isDrum":false},{"pitch":62,"velocity":114,"startTime":106.14650914583333,"endTime":106.23890025000001,"instrument":4,"program":23,"isDrum":false},{"pitch":62,"velocity":87,"startTime":106.26607410416668,"endTime":106.35846520833334,"instrument":4,"program":23,"isDrum":false},{"pitch":62,"velocity":114,"startTime":106.40194337500002,"endTime":106.49976925000001,"instrument":4,"program":23,"isDrum":false},{"pitch":62,"velocity":97,"startTime":106.53237787500001,"endTime":106.61933420833334,"instrument":4,"program":23,"isDrum":false},{"pitch":62,"velocity":114,"startTime":106.66824714583333,"endTime":106.76063825000001,"instrument":4,"program":23,"isDrum":false},{"pitch":62,"velocity":97,"startTime":106.79868164583334,"endTime":106.88563797916669,"instrument":4,"program":23,"isDrum":false},{"pitch":62,"velocity":114,"startTime":106.93455091666668,"endTime":107.03237679166668,"instrument":4,"program":23,"isDrum":false},{"pitch":62,"velocity":87,"startTime":107.05955064583334,"endTime":107.14650697916669,"instrument":4,"program":23,"isDrum":false},{"pitch":62,"velocity":128,"startTime":107.18998514583333,"endTime":107.27694147916668,"instrument":4,"program":23,"isDrum":false},{"pitch":62,"velocity":97,"startTime":107.32041964583334,"endTime":107.41281075,"instrument":4,"program":23,"isDrum":false},{"pitch":63,"velocity":128,"startTime":107.45085414583333,"endTime":107.53781047916668,"instrument":4,"program":23,"isDrum":false},{"pitch":62,"velocity":114,"startTime":107.58128864583334,"endTime":107.65737543750001,"instrument":4,"program":23,"isDrum":false},{"pitch":61,"velocity":128,"startTime":107.70085360416668,"endTime":107.78780993750001,"instrument":4,"program":23,"isDrum":false},{"pitch":62,"velocity":114,"startTime":107.82041856250001,"endTime":107.91280966666669,"instrument":4,"program":23,"isDrum":false},{"pitch":63,"velocity":128,"startTime":107.95628783333333,"endTime":108.05411370833333,"instrument":4,"program":23,"isDrum":false},{"pitch":62,"velocity":114,"startTime":108.097591875,"endTime":108.17367866666669,"instrument":4,"program":23,"isDrum":false},{"pitch":61,"velocity":128,"startTime":108.22259160416668,"endTime":108.30954793750001,"instrument":4,"program":23,"isDrum":false},{"pitch":62,"velocity":97,"startTime":108.34759133333334,"endTime":108.4399824375,"instrument":4,"program":23,"isDrum":false},{"pitch":62,"velocity":128,"startTime":108.50519968750001,"endTime":108.60302556250001,"instrument":4,"program":23,"isDrum":false},{"pitch":62,"velocity":87,"startTime":108.63019941666668,"endTime":108.71715575000002,"instrument":4,"program":23,"isDrum":false},{"pitch":62,"velocity":114,"startTime":108.77150345833334,"endTime":108.85302502083334,"instrument":4,"program":23,"isDrum":false},{"pitch":62,"velocity":97,"startTime":108.89650318750002,"endTime":109.00519860416668,"instrument":4,"program":23,"isDrum":false},{"pitch":72,"velocity":114,"startTime":109.03780722916669,"endTime":109.12476356250001,"instrument":4,"program":23,"isDrum":false},{"pitch":62,"velocity":128,"startTime":109.15193741666668,"endTime":109.23345897916668,"instrument":4,"program":23,"isDrum":false},{"pitch":62,"velocity":114,"startTime":109.27150237500001,"endTime":109.35302393750001,"instrument":4,"program":23,"isDrum":false},{"pitch":62,"velocity":97,"startTime":109.401936875,"endTime":109.51606706250001,"instrument":4,"program":23,"isDrum":false},{"pitch":69,"velocity":128,"startTime":109.54324091666668,"endTime":109.64106679166669,"instrument":4,"program":23,"isDrum":false},{"pitch":62,"velocity":114,"startTime":109.66824064583334,"endTime":109.74976220833334,"instrument":4,"program":23,"isDrum":false},{"pitch":62,"velocity":114,"startTime":109.79867514583334,"endTime":109.88019670833334,"instrument":4,"program":23,"isDrum":false},{"pitch":62,"velocity":97,"startTime":109.91280533333334,"endTime":110.01063120833334,"instrument":4,"program":23,"isDrum":false},{"pitch":66,"velocity":128,"startTime":110.05410937500001,"endTime":110.14650047916668,"instrument":4,"program":23,"isDrum":false},{"pitch":62,"velocity":114,"startTime":110.18997864583334,"endTime":110.26606543750002,"instrument":4,"program":23,"isDrum":false},{"pitch":62,"velocity":114,"startTime":110.32041314583334,"endTime":110.41280425000001,"instrument":4,"program":23,"isDrum":false},{"pitch":62,"velocity":87,"startTime":110.43997810416668,"endTime":110.53236920833334,"instrument":4,"program":23,"isDrum":false},{"pitch":62,"velocity":128,"startTime":110.58671691666669,"endTime":110.68454279166669,"instrument":4,"program":23,"isDrum":false},{"pitch":62,"velocity":97,"startTime":110.71171664583333,"endTime":110.80410775000001,"instrument":4,"program":23,"isDrum":false},{"pitch":62,"velocity":114,"startTime":110.84758591666669,"endTime":110.93997702083334,"instrument":4,"program":23,"isDrum":false},{"pitch":62,"velocity":97,"startTime":110.97258564583333,"endTime":111.06497675000001,"instrument":4,"program":23,"isDrum":false},{"pitch":62,"velocity":114,"startTime":111.10845491666669,"endTime":111.19541125,"instrument":4,"program":23,"isDrum":false},{"pitch":62,"velocity":87,"startTime":111.23888941666668,"endTime":111.33128052083335,"instrument":4,"program":23,"isDrum":false},{"pitch":62,"velocity":97,"startTime":111.36388914583334,"endTime":111.45084547916669,"instrument":4,"program":23,"isDrum":false},{"pitch":62,"velocity":114,"startTime":111.48888887500001,"endTime":111.58671475000001,"instrument":4,"program":23,"isDrum":false},{"pitch":63,"velocity":128,"startTime":111.62475814583334,"endTime":111.71171447916669,"instrument":4,"program":23,"isDrum":false},{"pitch":62,"velocity":97,"startTime":111.74432310416668,"endTime":111.82584466666668,"instrument":4,"program":23,"isDrum":false},{"pitch":61,"velocity":128,"startTime":111.87475760416669,"endTime":111.96714870833334,"instrument":4,"program":23,"isDrum":false},{"pitch":62,"velocity":97,"startTime":111.99432256250002,"endTime":112.09214843750001,"instrument":4,"program":23,"isDrum":false},{"pitch":63,"velocity":128,"startTime":112.14649614583334,"endTime":112.23888725,"instrument":4,"program":23,"isDrum":false},{"pitch":62,"velocity":97,"startTime":112.27693064583335,"endTime":112.34758266666668,"instrument":4,"program":23,"isDrum":false},{"pitch":61,"velocity":128,"startTime":112.401930375,"endTime":112.48888670833334,"instrument":4,"program":23,"isDrum":false},{"pitch":62,"velocity":97,"startTime":112.52693010416668,"endTime":112.60845166666668,"instrument":4,"program":23,"isDrum":false},{"pitch":62,"velocity":128,"startTime":112.67366891666668,"endTime":112.76606002083334,"instrument":4,"program":23,"isDrum":false},{"pitch":62,"velocity":78,"startTime":112.79866864583335,"endTime":112.89105975000001,"instrument":4,"program":23,"isDrum":false},{"pitch":62,"velocity":97,"startTime":112.93997268750002,"endTime":113.02692902083334,"instrument":4,"program":23,"isDrum":false},{"pitch":62,"velocity":87,"startTime":113.07040718750001,"endTime":113.17910260416669,"instrument":4,"program":23,"isDrum":false},{"pitch":74,"velocity":128,"startTime":113.21171122916668,"endTime":113.28779802083334,"instrument":4,"program":23,"isDrum":false},{"pitch":62,"velocity":114,"startTime":113.33127618750001,"endTime":113.42910206250001,"instrument":4,"program":23,"isDrum":false},{"pitch":62,"velocity":114,"startTime":113.445406375,"endTime":113.53779747916668,"instrument":4,"program":23,"isDrum":false},{"pitch":62,"velocity":114,"startTime":113.57584087500001,"endTime":113.67910152083334,"instrument":4,"program":23,"isDrum":false},{"pitch":70,"velocity":128,"startTime":113.71714491666668,"endTime":113.79866647916668,"instrument":4,"program":23,"isDrum":false},{"pitch":62,"velocity":114,"startTime":113.83670987500001,"endTime":113.90736189583333,"instrument":4,"program":23,"isDrum":false},{"pitch":62,"velocity":97,"startTime":113.95627483333334,"endTime":114.03779639583334,"instrument":4,"program":23,"isDrum":false},{"pitch":62,"velocity":97,"startTime":114.07583979166668,"endTime":114.18453520833334,"instrument":4,"program":23,"isDrum":false},{"pitch":67,"velocity":128,"startTime":114.2117090625,"endTime":114.30410016666669,"instrument":4,"program":23,"isDrum":false},{"pitch":62,"velocity":128,"startTime":114.35301310416668,"endTime":114.42909989583335,"instrument":4,"program":23,"isDrum":false},{"pitch":62,"velocity":114,"startTime":114.4725780625,"endTime":114.57040393750002,"instrument":4,"program":23,"isDrum":false},{"pitch":62,"velocity":97,"startTime":114.59757779166668,"endTime":114.68996889583335,"instrument":4,"program":23,"isDrum":false},{"pitch":62,"velocity":114,"startTime":114.73888183333334,"endTime":114.83670770833334,"instrument":4,"program":23,"isDrum":false},{"pitch":62,"velocity":97,"startTime":114.86388156250001,"endTime":114.95627266666668,"instrument":4,"program":23,"isDrum":false},{"pitch":62,"velocity":97,"startTime":115.01062037500002,"endTime":115.09757670833334,"instrument":4,"program":23,"isDrum":false},{"pitch":62,"velocity":87,"startTime":115.12475056250001,"endTime":115.21170689583334,"instrument":4,"program":23,"isDrum":false},{"pitch":62,"velocity":128,"startTime":115.27148937500002,"endTime":115.35301093750002,"instrument":4,"program":23,"isDrum":false},{"pitch":62,"velocity":87,"startTime":115.38561956250001,"endTime":115.47257589583334,"instrument":4,"program":23,"isDrum":false},{"pitch":62,"velocity":114,"startTime":115.52692360416668,"endTime":115.60844516666668,"instrument":4,"program":23,"isDrum":false},{"pitch":62,"velocity":87,"startTime":115.65192333333334,"endTime":115.74431443750001,"instrument":4,"program":23,"isDrum":false},{"pitch":63,"velocity":128,"startTime":115.78779260416668,"endTime":115.87474893750002,"instrument":4,"program":23,"isDrum":false},{"pitch":62,"velocity":114,"startTime":115.92366187500001,"endTime":115.99431389583334,"instrument":4,"program":23,"isDrum":false},{"pitch":61,"velocity":128,"startTime":116.04866160416668,"endTime":116.13018316666668,"instrument":4,"program":23,"isDrum":false},{"pitch":62,"velocity":97,"startTime":116.16822656250001,"endTime":116.25518289583334,"instrument":4,"program":23,"isDrum":false},{"pitch":63,"velocity":128,"startTime":116.29866106250002,"endTime":116.39105216666668,"instrument":4,"program":23,"isDrum":false},{"pitch":62,"velocity":114,"startTime":116.43996510416669,"endTime":116.52692143750001,"instrument":4,"program":23,"isDrum":false},{"pitch":61,"velocity":128,"startTime":116.54866052083334,"endTime":116.63018208333334,"instrument":4,"program":23,"isDrum":false},{"pitch":62,"velocity":128,"startTime":116.67366025000001,"endTime":116.77692089583334,"instrument":4,"program":23,"isDrum":false},{"pitch":60,"velocity":114,"startTime":116.80952952083334,"endTime":116.89105108333334,"instrument":4,"program":23,"isDrum":false},{"pitch":59,"velocity":87,"startTime":116.95083356250001,"endTime":117.01605081250001,"instrument":4,"program":23,"isDrum":false},{"pitch":60,"velocity":114,"startTime":117.07039852083334,"endTime":117.15735485416668,"instrument":4,"program":23,"isDrum":false},{"pitch":62,"velocity":128,"startTime":117.21170256250001,"endTime":117.30409366666669,"instrument":4,"program":23,"isDrum":false},{"pitch":63,"velocity":128,"startTime":117.34213706250002,"endTime":117.41822385416668,"instrument":4,"program":23,"isDrum":false},{"pitch":62,"velocity":128,"startTime":117.46170202083334,"endTime":117.54322358333334,"instrument":4,"program":23,"isDrum":false},{"pitch":63,"velocity":128,"startTime":117.58670175000002,"endTime":117.67365808333334,"instrument":4,"program":23,"isDrum":false},{"pitch":65,"velocity":114,"startTime":117.71713625000001,"endTime":117.80952735416669,"instrument":4,"program":23,"isDrum":false},{"pitch":67,"velocity":114,"startTime":117.86387506250001,"endTime":117.98344002083334,"instrument":4,"program":23,"isDrum":false},{"pitch":66,"velocity":128,"startTime":117.99974433333334,"endTime":118.08670066666669,"instrument":4,"program":23,"isDrum":false},{"pitch":67,"velocity":87,"startTime":118.13017883333335,"endTime":118.21170039583335,"instrument":4,"program":23,"isDrum":false},{"pitch":71,"velocity":128,"startTime":118.26604810416669,"endTime":118.3530044375,"instrument":4,"program":23,"isDrum":false},{"pitch":72,"velocity":128,"startTime":118.39648260416668,"endTime":118.48343893750001,"instrument":4,"program":23,"isDrum":false},{"pitch":71,"velocity":114,"startTime":118.52691710416669,"endTime":118.60300389583334,"instrument":4,"program":23,"isDrum":false},{"pitch":72,"velocity":114,"startTime":118.65191683333335,"endTime":118.72800362500001,"instrument":4,"program":23,"isDrum":false},{"pitch":74,"velocity":97,"startTime":118.77148179166669,"endTime":118.88017720833334,"instrument":4,"program":23,"isDrum":false},{"pitch":75,"velocity":128,"startTime":118.92365537500001,"endTime":119.03235079166669,"instrument":4,"program":23,"isDrum":false},{"pitch":74,"velocity":97,"startTime":119.07582895833335,"endTime":119.15191575000001,"instrument":4,"program":23,"isDrum":false},{"pitch":73,"velocity":128,"startTime":119.18452437500001,"endTime":119.26604593750001,"instrument":4,"program":23,"isDrum":false},{"pitch":74,"velocity":128,"startTime":119.32039364583333,"endTime":119.42365429166668,"instrument":4,"program":23,"isDrum":false},{"pitch":75,"velocity":128,"startTime":119.45082814583334,"endTime":119.57582787500002,"instrument":4,"program":23,"isDrum":false},{"pitch":74,"velocity":97,"startTime":119.57039310416668,"endTime":119.65734943750002,"instrument":4,"program":23,"isDrum":false},{"pitch":73,"velocity":128,"startTime":119.68995806250001,"endTime":119.78234916666668,"instrument":4,"program":23,"isDrum":false},{"pitch":74,"velocity":128,"startTime":119.82582733333334,"endTime":119.92365320833333,"instrument":4,"program":23,"isDrum":false},{"pitch":75,"velocity":128,"startTime":119.96169660416669,"endTime":120.04865293750001,"instrument":4,"program":23,"isDrum":false},{"pitch":74,"velocity":114,"startTime":120.08126156250002,"endTime":120.16821789583334,"instrument":4,"program":23,"isDrum":false},{"pitch":73,"velocity":128,"startTime":120.20082652083335,"endTime":120.30952193750001,"instrument":4,"program":23,"isDrum":false},{"pitch":74,"velocity":97,"startTime":120.34213056250002,"endTime":120.42365212500002,"instrument":4,"program":23,"isDrum":false},{"pitch":75,"velocity":128,"startTime":120.46169552083335,"endTime":120.53778231250001,"instrument":4,"program":23,"isDrum":false},{"pitch":76,"velocity":114,"startTime":120.58669525,"endTime":120.67908635416669,"instrument":4,"program":23,"isDrum":false},{"pitch":77,"velocity":128,"startTime":120.73343406250001,"endTime":120.80408608333335,"instrument":4,"program":23,"isDrum":false},{"pitch":78,"velocity":128,"startTime":120.85299902083334,"endTime":120.93452058333334,"instrument":4,"program":23,"isDrum":false},{"pitch":79,"velocity":114,"startTime":120.99973783333334,"endTime":121.08669416666669,"instrument":4,"program":23,"isDrum":false},{"pitch":78,"velocity":128,"startTime":121.11930279166668,"endTime":121.21169389583333,"instrument":4,"program":23,"isDrum":false},{"pitch":79,"velocity":97,"startTime":121.26060683333334,"endTime":121.35843270833334,"instrument":4,"program":23,"isDrum":false},{"pitch":81,"velocity":87,"startTime":121.40191087500001,"endTime":121.47799766666668,"instrument":4,"program":23,"isDrum":false},{"pitch":79,"velocity":97,"startTime":121.532345375,"endTime":121.61930170833334,"instrument":4,"program":23,"isDrum":false},{"pitch":78,"velocity":128,"startTime":121.64104079166668,"endTime":121.73886666666668,"instrument":4,"program":23,"isDrum":false},{"pitch":77,"velocity":114,"startTime":121.77691006250001,"endTime":121.88017070833334,"instrument":4,"program":23,"isDrum":false},{"pitch":76,"velocity":114,"startTime":121.91277933333335,"endTime":122.01060520833335,"instrument":4,"program":23,"isDrum":false},{"pitch":75,"velocity":128,"startTime":122.04864860416669,"endTime":122.13017016666669,"instrument":4,"program":23,"isDrum":false},{"pitch":74,"velocity":114,"startTime":122.17364833333335,"endTime":122.26060466666668,"instrument":4,"program":23,"isDrum":false},{"pitch":73,"velocity":128,"startTime":122.31495237500002,"endTime":122.3964739375,"instrument":4,"program":23,"isDrum":false},{"pitch":74,"velocity":114,"startTime":122.43995210416668,"endTime":122.51603889583335,"instrument":4,"program":23,"isDrum":false},{"pitch":75,"velocity":128,"startTime":122.58125614583334,"endTime":122.67364725000002,"instrument":4,"program":23,"isDrum":false},{"pitch":74,"velocity":97,"startTime":122.71712541666669,"endTime":122.8203860625,"instrument":4,"program":23,"isDrum":false},{"pitch":70,"velocity":128,"startTime":122.85299468750001,"endTime":122.95082056250001,"instrument":4,"program":23,"isDrum":false},{"pitch":67,"velocity":114,"startTime":122.97799441666669,"endTime":123.07582029166669,"instrument":4,"program":23,"isDrum":false},{"pitch":75,"velocity":128,"startTime":123.10842891666668,"endTime":123.21712433333335,"instrument":4,"program":23,"isDrum":false},{"pitch":74,"velocity":64,"startTime":123.23886341666669,"endTime":123.36386314583334,"instrument":4,"program":23,"isDrum":false},{"pitch":70,"velocity":128,"startTime":123.36929791666668,"endTime":123.47799333333334,"instrument":4,"program":23,"isDrum":false},{"pitch":67,"velocity":97,"startTime":123.51060195833334,"endTime":123.58668875000001,"instrument":4,"program":23,"isDrum":false},{"pitch":70,"velocity":128,"startTime":123.65734077083334,"endTime":123.78777527083334,"instrument":4,"program":23,"isDrum":false},{"pitch":67,"velocity":97,"startTime":123.77690572916669,"endTime":123.90190545833335,"instrument":4,"program":23,"isDrum":false},{"pitch":63,"velocity":128,"startTime":123.90190545833335,"endTime":123.99973133333334,"instrument":4,"program":23,"isDrum":false},{"pitch":62,"velocity":75,"startTime":124.0269051875,"endTime":124.11386152083334,"instrument":4,"program":23,"isDrum":false},{"pitch":63,"velocity":128,"startTime":124.15733968750001,"endTime":124.26603510416669,"instrument":4,"program":23,"isDrum":false},{"pitch":62,"velocity":97,"startTime":124.2877741875,"endTime":124.41277391666668,"instrument":4,"program":23,"isDrum":false},{"pitch":58,"velocity":97,"startTime":124.41820868750001,"endTime":124.52146933333334,"instrument":4,"program":23,"isDrum":false},{"pitch":55,"velocity":78,"startTime":124.52690410416669,"endTime":124.63016475,"instrument":4,"program":23,"isDrum":false},{"pitch":58,"velocity":128,"startTime":124.66820814583335,"endTime":124.76059925000001,"instrument":4,"program":23,"isDrum":false},{"pitch":55,"velocity":128,"startTime":124.80407741666669,"endTime":124.91820760416668,"instrument":4,"program":23,"isDrum":false},{"pitch":53,"velocity":97,"startTime":124.92364237500001,"endTime":125.01059870833335,"instrument":4,"program":23,"isDrum":false},{"pitch":51,"velocity":128,"startTime":125.054076875,"endTime":125.18451137500001,"instrument":4,"program":23,"isDrum":false},{"pitch":50,"velocity":97,"startTime":125.18994614583335,"endTime":125.28233725000001,"instrument":4,"program":23,"isDrum":false},{"pitch":49,"velocity":128,"startTime":125.32581541666669,"endTime":125.40733697916669,"instrument":4,"program":23,"isDrum":false},{"pitch":50,"velocity":97,"startTime":125.43994560416668,"endTime":125.54320625000001,"instrument":4,"program":23,"isDrum":false},{"pitch":52,"velocity":128,"startTime":125.58124964583334,"endTime":125.66820597916669,"instrument":4,"program":23,"isDrum":false},{"pitch":54,"velocity":128,"startTime":125.70081460416668,"endTime":125.78777093750001,"instrument":4,"program":23,"isDrum":false},{"pitch":53,"velocity":114,"startTime":125.82581433333334,"endTime":125.92364020833335,"instrument":4,"program":23,"isDrum":false},{"pitch":54,"velocity":128,"startTime":125.94537929166668,"endTime":126.07581379166669,"instrument":4,"program":23,"isDrum":false},{"pitch":55,"velocity":114,"startTime":126.07581379166669,"endTime":126.17363966666667,"instrument":4,"program":23,"isDrum":false},{"pitch":57,"velocity":114,"startTime":126.227987375,"endTime":126.358421875,"instrument":4,"program":23,"isDrum":false},{"pitch":56,"velocity":128,"startTime":126.358421875,"endTime":126.44537820833335,"instrument":4,"program":23,"isDrum":false},{"pitch":57,"velocity":97,"startTime":126.4834216041667,"endTime":126.57581270833333,"instrument":4,"program":23,"isDrum":false},{"pitch":59,"velocity":128,"startTime":126.61385610416667,"endTime":126.70624720833334,"instrument":4,"program":23,"isDrum":false},{"pitch":60,"velocity":114,"startTime":126.74429060416668,"endTime":126.83668170833334,"instrument":4,"program":23,"isDrum":false},{"pitch":59,"velocity":114,"startTime":126.85842079166667,"endTime":126.95081189583334,"instrument":4,"program":23,"isDrum":false},{"pitch":60,"velocity":128,"startTime":126.9942900625,"endTime":127.075811625,"instrument":4,"program":23,"isDrum":false},{"pitch":61,"velocity":128,"startTime":127.11385502083334,"endTime":127.20081135416669,"instrument":4,"program":23,"isDrum":false},{"pitch":62,"velocity":114,"startTime":127.25515906250001,"endTime":127.36385447916669,"instrument":4,"program":23,"isDrum":false},{"pitch":61,"velocity":128,"startTime":127.38015879166667,"endTime":127.46711512500002,"instrument":4,"program":23,"isDrum":false},{"pitch":62,"velocity":97,"startTime":127.49972375000002,"endTime":127.59211485416668,"instrument":4,"program":23,"isDrum":false},{"pitch":64,"velocity":128,"startTime":127.6464625625,"endTime":127.73341889583335,"instrument":4,"program":23,"isDrum":false},{"pitch":66,"velocity":128,"startTime":127.77689706250001,"endTime":127.86385339583333,"instrument":4,"program":23,"isDrum":false},{"pitch":65,"velocity":114,"startTime":127.90189679166667,"endTime":127.99428789583334,"instrument":4,"program":23,"isDrum":false},{"pitch":66,"velocity":128,"startTime":128.03233129166668,"endTime":128.11385285416668,"instrument":4,"program":23,"isDrum":false},{"pitch":67,"velocity":114,"startTime":128.15733102083334,"endTime":128.26602643750002,"instrument":4,"program":23,"isDrum":false},{"pitch":69,"velocity":97,"startTime":128.2932002916667,"endTime":128.41276525,"instrument":4,"program":23,"isDrum":false},{"pitch":66,"velocity":128,"startTime":128.41820002083335,"endTime":128.51602589583334,"instrument":4,"program":23,"isDrum":false},{"pitch":62,"velocity":97,"startTime":128.53233020833335,"endTime":128.62472131250001,"instrument":4,"program":23,"isDrum":false},{"pitch":63,"velocity":128,"startTime":128.67363425000002,"endTime":128.77689489583335,"instrument":4,"program":23,"isDrum":false},{"pitch":62,"velocity":97,"startTime":128.80950352083335,"endTime":128.8855903125,"instrument":4,"program":23,"isDrum":false},{"pitch":60,"velocity":114,"startTime":128.95080756250002,"endTime":129.06493775,"instrument":4,"program":23,"isDrum":false},{"pitch":58,"velocity":128,"startTime":129.07037252083333,"endTime":129.16819839583334,"instrument":4,"program":23,"isDrum":false},{"pitch":57,"velocity":128,"startTime":129.19537225000002,"endTime":129.28232858333334,"instrument":4,"program":23,"isDrum":false},{"pitch":55,"velocity":97,"startTime":129.34754583333333,"endTime":129.4181978541667,"instrument":4,"program":23,"isDrum":false},{"pitch":75,"velocity":128,"startTime":129.56493666666668,"endTime":129.67363208333333,"instrument":4,"program":23,"isDrum":false},{"pitch":74,"velocity":114,"startTime":129.67363208333333,"endTime":129.78776227083335,"instrument":4,"program":23,"isDrum":false},{"pitch":72,"velocity":97,"startTime":129.80406658333334,"endTime":129.88015337500002,"instrument":4,"program":23,"isDrum":false},{"pitch":70,"velocity":128,"startTime":129.9399358541667,"endTime":130.01602264583335,"instrument":4,"program":23,"isDrum":false},{"pitch":69,"velocity":114,"startTime":130.06493558333335,"endTime":130.14645714583335,"instrument":4,"program":23,"isDrum":false},{"pitch":67,"velocity":97,"startTime":130.16276145833334,"endTime":130.2551525625,"instrument":4,"program":23,"isDrum":false},{"pitch":66,"velocity":128,"startTime":130.30950027083335,"endTime":130.40189137500002,"instrument":4,"program":23,"isDrum":false},{"pitch":63,"velocity":128,"startTime":130.4345,"endTime":130.53232587500003,"instrument":4,"program":23,"isDrum":false},{"pitch":62,"velocity":128,"startTime":130.55949972916667,"endTime":130.65189083333334,"instrument":4,"program":23,"isDrum":false},{"pitch":60,"velocity":124,"startTime":130.66819514583335,"endTime":130.77145579166668,"instrument":4,"program":23,"isDrum":false},{"pitch":58,"velocity":128,"startTime":130.81493395833334,"endTime":130.9018902916667,"instrument":4,"program":23,"isDrum":false},{"pitch":57,"velocity":114,"startTime":130.9399336875,"endTime":131.0323247916667,"instrument":4,"program":23,"isDrum":false},{"pitch":55,"velocity":114,"startTime":131.04319433333333,"endTime":131.13558543750003,"instrument":4,"program":23,"isDrum":false},{"pitch":54,"velocity":128,"startTime":131.184498375,"endTime":131.2768894791667,"instrument":4,"program":23,"isDrum":false},{"pitch":57,"velocity":114,"startTime":131.32036764583333,"endTime":131.4290630625,"instrument":4,"program":23,"isDrum":false},{"pitch":55,"velocity":114,"startTime":131.45080214583334,"endTime":131.53775847916665,"instrument":4,"program":23,"isDrum":false},{"pitch":62,"velocity":128,"startTime":131.73884500000003,"endTime":132.45623475000002,"instrument":4,"program":23,"isDrum":false},{"pitch":60,"velocity":70,"startTime":131.9834096875,"endTime":132.46166952083337,"instrument":4,"program":23,"isDrum":false},{"pitch":66,"velocity":114,"startTime":131.98884445833335,"endTime":132.4399304375,"instrument":4,"program":23,"isDrum":false},{"pitch":67,"velocity":50,"startTime":132.46166952083337,"endTime":132.59753879166666,"instrument":4,"program":23,"isDrum":false},{"pitch":62,"velocity":58,"startTime":132.47797383333335,"endTime":132.59753879166666,"instrument":4,"program":23,"isDrum":false},{"pitch":58,"velocity":128,"startTime":132.48340860416667,"endTime":132.59210402083335,"instrument":4,"program":23,"isDrum":false},{"pitch":67,"velocity":128,"startTime":133.59210185416666,"endTime":133.67362341666666,"instrument":4,"program":23,"isDrum":false},{"pitch":66,"velocity":128,"startTime":133.83666654166666,"endTime":133.90188379166668,"instrument":4,"program":23,"isDrum":false},{"pitch":67,"velocity":128,"startTime":134.05949214583336,"endTime":134.15188325000003,"instrument":4,"program":23,"isDrum":false},{"pitch":69,"velocity":128,"startTime":134.33666545833336,"endTime":134.63014308333337,"instrument":4,"program":23,"isDrum":false},{"pitch":70,"velocity":128,"startTime":134.83666437500003,"endTime":135.30948943750002,"instrument":4,"program":23,"isDrum":false},{"pitch":69,"velocity":128,"startTime":135.3747066875,"endTime":135.45079347916666,"instrument":4,"program":23,"isDrum":false},{"pitch":67,"velocity":128,"startTime":135.66274954166667,"endTime":135.72796679166666,"instrument":4,"program":23,"isDrum":false},{"pitch":66,"velocity":128,"startTime":135.77687972916667,"endTime":135.85296652083335,"instrument":4,"program":23,"isDrum":false},{"pitch":67,"velocity":97,"startTime":135.8964446875,"endTime":135.96166193750003,"instrument":4,"program":23,"isDrum":false},{"pitch":69,"velocity":128,"startTime":136.01600964583335,"endTime":136.09753120833335,"instrument":4,"program":23,"isDrum":false},{"pitch":70,"velocity":128,"startTime":136.141009375,"endTime":136.2225309375,"instrument":4,"program":23,"isDrum":false},{"pitch":69,"velocity":128,"startTime":136.26600910416667,"endTime":136.34209589583335,"instrument":4,"program":23,"isDrum":false},{"pitch":70,"velocity":128,"startTime":136.38013929166667,"endTime":136.46166085416667,"instrument":4,"program":23,"isDrum":false},{"pitch":72,"velocity":114,"startTime":136.52144333333337,"endTime":136.6138344375,"instrument":4,"program":23,"isDrum":false},{"pitch":74,"velocity":114,"startTime":136.65187783333334,"endTime":136.73883416666666,"instrument":4,"program":23,"isDrum":false},{"pitch":72,"velocity":97,"startTime":136.7768775625,"endTime":136.87470343750002,"instrument":4,"program":23,"isDrum":false},{"pitch":70,"velocity":128,"startTime":136.89644252083335,"endTime":136.99426839583336,"instrument":4,"program":23,"isDrum":false},{"pitch":69,"velocity":97,"startTime":137.03231179166667,"endTime":137.13013766666666,"instrument":4,"program":23,"isDrum":false},{"pitch":67,"velocity":64,"startTime":137.16818106250003,"endTime":137.25513739583334,"instrument":4,"program":23,"isDrum":false},{"pitch":69,"velocity":114,"startTime":137.28231125000002,"endTime":137.38557189583335,"instrument":4,"program":23,"isDrum":false},{"pitch":67,"velocity":87,"startTime":137.40731097916668,"endTime":137.48883254166668,"instrument":4,"program":23,"isDrum":false},{"pitch":65,"velocity":114,"startTime":137.54861502083335,"endTime":137.65187566666668,"instrument":4,"program":23,"isDrum":false},{"pitch":63,"velocity":128,"startTime":137.68991906250002,"endTime":137.97252714583337,"instrument":4,"program":23,"isDrum":false},{"pitch":62,"velocity":128,"startTime":137.98883145833335,"endTime":138.07578779166667,"instrument":4,"program":23,"isDrum":false},{"pitch":63,"velocity":128,"startTime":138.227961375,"endTime":138.3094829375,"instrument":4,"program":23,"isDrum":false},{"pitch":65,"velocity":128,"startTime":138.49426514583337,"endTime":138.61383010416668,"instrument":4,"program":23,"isDrum":false},{"pitch":67,"velocity":128,"startTime":138.97252497916668,"endTime":139.44535004166667,"instrument":4,"program":23,"isDrum":false},{"pitch":63,"velocity":128,"startTime":139.4833934375,"endTime":139.57578454166668,"instrument":4,"program":23,"isDrum":false},{"pitch":62,"velocity":128,"startTime":139.81491445833336,"endTime":139.88556647916667,"instrument":4,"program":23,"isDrum":false},{"pitch":61,"velocity":128,"startTime":139.92904464583336,"endTime":139.99969666666667,"instrument":4,"program":23,"isDrum":false},{"pitch":62,"velocity":97,"startTime":140.0377400625,"endTime":140.11382685416666,"instrument":4,"program":23,"isDrum":false},{"pitch":66,"velocity":128,"startTime":140.16273979166667,"endTime":140.2333918125,"instrument":4,"program":23,"isDrum":false},{"pitch":67,"velocity":114,"startTime":140.28773952083336,"endTime":140.38556539583337,"instrument":4,"program":23,"isDrum":false},{"pitch":66,"velocity":128,"startTime":140.41817402083336,"endTime":140.48882604166667,"instrument":4,"program":23,"isDrum":false},{"pitch":67,"velocity":78,"startTime":140.53773897916668,"endTime":140.61926054166668,"instrument":4,"program":23,"isDrum":false},{"pitch":69,"velocity":128,"startTime":140.66817347916668,"endTime":140.74969504166668,"instrument":4,"program":23,"isDrum":false},{"pitch":70,"velocity":128,"startTime":140.78773843750002,"endTime":140.87469477083334,"instrument":4,"program":23,"isDrum":false},{"pitch":69,"velocity":114,"startTime":140.9181729375,"endTime":140.99425972916666,"instrument":4,"program":23,"isDrum":false},{"pitch":70,"velocity":128,"startTime":141.04317266666666,"endTime":141.130129,"instrument":4,"program":23,"isDrum":false},{"pitch":72,"velocity":87,"startTime":141.18991147916668,"endTime":141.2768678125,"instrument":4,"program":23,"isDrum":false},{"pitch":74,"velocity":114,"startTime":141.32034597916666,"endTime":141.4073023125,"instrument":4,"program":23,"isDrum":false},{"pitch":72,"velocity":114,"startTime":141.4399109375,"endTime":141.53773681250001,"instrument":4,"program":23,"isDrum":false},{"pitch":70,"velocity":128,"startTime":141.55404112500003,"endTime":141.66817131250002,"instrument":4,"program":23,"isDrum":false},{"pitch":69,"velocity":97,"startTime":141.68991039583335,"endTime":141.80404058333335,"instrument":4,"program":23,"isDrum":false},{"pitch":67,"velocity":128,"startTime":141.83664920833337,"endTime":142.1246920625,"instrument":4,"program":23,"isDrum":false},{"pitch":66,"velocity":128,"startTime":142.15186591666668,"endTime":142.21708316666667,"instrument":4,"program":23,"isDrum":false},{"pitch":67,"velocity":114,"startTime":142.41273491666666,"endTime":142.4833869375,"instrument":4,"program":23,"isDrum":false},{"pitch":69,"velocity":128,"startTime":142.67360391666668,"endTime":142.73882116666667,"instrument":4,"program":23,"isDrum":false},{"pitch":70,"velocity":128,"startTime":143.15729852083336,"endTime":143.63012358333336,"instrument":4,"program":23,"isDrum":false},{"pitch":69,"velocity":114,"startTime":143.67360175000002,"endTime":143.74968854166667,"instrument":4,"program":23,"isDrum":false},{"pitch":67,"velocity":128,"startTime":143.97794891666666,"endTime":144.04860093750003,"instrument":4,"program":23,"isDrum":false},{"pitch":66,"velocity":128,"startTime":144.097513875,"endTime":144.16816589583337,"instrument":4,"program":23,"isDrum":false},{"pitch":67,"velocity":97,"startTime":144.2116440625,"endTime":144.28773085416668,"instrument":4,"program":23,"isDrum":false},{"pitch":69,"velocity":128,"startTime":144.33664379166666,"endTime":144.41273058333334,"instrument":4,"program":23,"isDrum":false},{"pitch":70,"velocity":128,"startTime":144.45620875,"endTime":144.54316508333335,"instrument":4,"program":23,"isDrum":false},{"pitch":69,"velocity":128,"startTime":144.59751279166667,"endTime":144.6681648125,"instrument":4,"program":23,"isDrum":false},{"pitch":70,"velocity":128,"startTime":144.71164297916667,"endTime":144.79316454166667,"instrument":4,"program":23,"isDrum":false},{"pitch":72,"velocity":78,"startTime":144.85294702083337,"endTime":144.95077289583335,"instrument":4,"program":23,"isDrum":false},{"pitch":74,"velocity":87,"startTime":144.98881629166667,"endTime":145.075772625,"instrument":4,"program":23,"isDrum":false},{"pitch":72,"velocity":87,"startTime":145.11381602083335,"endTime":145.21164189583337,"instrument":4,"program":23,"isDrum":false},{"pitch":70,"velocity":128,"startTime":145.2225114375,"endTime":145.32577208333336,"instrument":4,"program":23,"isDrum":false},{"pitch":69,"velocity":97,"startTime":145.3529459375,"endTime":145.46164135416666,"instrument":4,"program":23,"isDrum":false},{"pitch":67,"velocity":87,"startTime":145.48881520833336,"endTime":145.56490200000002,"instrument":4,"program":23,"isDrum":false},{"pitch":69,"velocity":128,"startTime":145.60294539583336,"endTime":145.70077127083334,"instrument":4,"program":23,"isDrum":false},{"pitch":67,"velocity":87,"startTime":145.72251035416667,"endTime":145.80403191666667,"instrument":4,"program":23,"isDrum":false},{"pitch":65,"velocity":114,"startTime":145.85837962500003,"endTime":145.96707504166667,"instrument":4,"program":23,"isDrum":false},{"pitch":63,"velocity":128,"startTime":146.01055320833336,"endTime":146.33663945833337,"instrument":4,"program":23,"isDrum":false},{"pitch":62,"velocity":114,"startTime":146.35837854166667,"endTime":146.43446533333335,"instrument":4,"program":23,"isDrum":false},{"pitch":63,"velocity":128,"startTime":146.5920736875,"endTime":146.66816047916666,"instrument":4,"program":23,"isDrum":false},{"pitch":65,"velocity":128,"startTime":146.84750791666667,"endTime":146.93989902083337,"instrument":4,"program":23,"isDrum":false},{"pitch":67,"velocity":128,"startTime":147.33663729166668,"endTime":147.80946235416667,"instrument":4,"program":23,"isDrum":false},{"pitch":63,"velocity":128,"startTime":147.84750575,"endTime":147.9290273125,"instrument":4,"program":23,"isDrum":false},{"pitch":62,"velocity":128,"startTime":148.173592,"endTime":148.24967879166667,"instrument":4,"program":23,"isDrum":false},{"pitch":61,"velocity":128,"startTime":148.30402650000002,"endTime":148.38011329166667,"instrument":4,"program":23,"isDrum":false},{"pitch":62,"velocity":97,"startTime":148.43446100000003,"endTime":148.49967825000002,"instrument":4,"program":23,"isDrum":false},{"pitch":66,"velocity":114,"startTime":148.5648955,"endTime":148.63011275000002,"instrument":4,"program":23,"isDrum":false},{"pitch":67,"velocity":97,"startTime":148.69533,"endTime":148.79315587500002,"instrument":4,"program":23,"isDrum":false},{"pitch":66,"velocity":128,"startTime":148.82576450000002,"endTime":148.90185129166667,"instrument":4,"program":23,"isDrum":false},{"pitch":67,"velocity":97,"startTime":148.95619900000003,"endTime":149.03772056250003,"instrument":4,"program":23,"isDrum":false},{"pitch":69,"velocity":114,"startTime":149.0866335,"endTime":149.1681550625,"instrument":4,"program":23,"isDrum":false},{"pitch":70,"velocity":128,"startTime":149.217068,"endTime":149.30402433333336,"instrument":4,"program":23,"isDrum":false},{"pitch":69,"velocity":114,"startTime":149.34750250000002,"endTime":149.42358929166667,"instrument":4,"program":23,"isDrum":false},{"pitch":70,"velocity":128,"startTime":149.47793700000003,"endTime":149.56489333333334,"instrument":4,"program":23,"isDrum":false},{"pitch":72,"velocity":87,"startTime":149.6083715,"endTime":149.70619737500002,"instrument":4,"program":23,"isDrum":false},{"pitch":74,"velocity":87,"startTime":149.738806,"endTime":149.8203275625,"instrument":4,"program":23,"isDrum":false},{"pitch":75,"velocity":128,"startTime":149.86924050000002,"endTime":149.93989252083335,"instrument":4,"program":23,"isDrum":false},{"pitch":76,"velocity":97,"startTime":149.99967500000002,"endTime":150.08663133333334,"instrument":4,"program":23,"isDrum":false},{"pitch":78,"velocity":128,"startTime":150.1301095,"endTime":150.22250060416667,"instrument":4,"program":23,"isDrum":false},{"pitch":79,"velocity":128,"startTime":150.260544,"endTime":150.41271758333335,"instrument":4,"program":23,"isDrum":false},{"pitch":74,"velocity":87,"startTime":150.85836879166666,"endTime":151.36923725000003,"instrument":4,"program":23,"isDrum":false},{"pitch":75,"velocity":114,"startTime":151.39097633333336,"endTime":152.1029313125,"instrument":4,"program":23,"isDrum":false},{"pitch":74,"velocity":97,"startTime":152.06488791666666,"endTime":152.29314829166668,"instrument":4,"program":23,"isDrum":false},{"pitch":74,"velocity":87,"startTime":152.34206122916666,"endTime":153.0811900625,"instrument":4,"program":23,"isDrum":false},{"pitch":72,"velocity":87,"startTime":153.09205960416668,"endTime":153.26053750000003,"instrument":4,"program":23,"isDrum":false},{"pitch":72,"velocity":97,"startTime":153.35292860416666,"endTime":153.6029280625,"instrument":4,"program":23,"isDrum":false},{"pitch":75,"velocity":128,"startTime":153.64097145833335,"endTime":153.85836229166668,"instrument":4,"program":23,"isDrum":false},{"pitch":74,"velocity":87,"startTime":153.89097091666667,"endTime":154.62466497916668,"instrument":4,"program":23,"isDrum":false},{"pitch":72,"velocity":128,"startTime":154.96162077083335,"endTime":155.42357629166668,"instrument":4,"program":23,"isDrum":false},{"pitch":74,"velocity":128,"startTime":155.46161968750002,"endTime":156.14096604166667,"instrument":4,"program":23,"isDrum":false},{"pitch":72,"velocity":97,"startTime":156.1790094375,"endTime":156.39640027083337,"instrument":4,"program":23,"isDrum":false},{"pitch":72,"velocity":128,"startTime":156.49966091666667,"endTime":157.206181125,"instrument":4,"program":23,"isDrum":false},{"pitch":70,"velocity":114,"startTime":157.22792020833336,"endTime":157.44531104166668,"instrument":4,"program":23,"isDrum":false},{"pitch":70,"velocity":128,"startTime":157.54313691666667,"endTime":157.77139729166666,"instrument":4,"program":23,"isDrum":false},{"pitch":74,"velocity":97,"startTime":157.81487545833335,"endTime":158.01596197916666,"instrument":4,"program":23,"isDrum":false},{"pitch":72,"velocity":78,"startTime":158.07574445833336,"endTime":159.09204660416668,"instrument":4,"program":23,"isDrum":false},{"pitch":70,"velocity":128,"startTime":159.1137856875,"endTime":159.57030643750002,"instrument":4,"program":23,"isDrum":false},{"pitch":72,"velocity":114,"startTime":159.60834983333336,"endTime":160.3203048125,"instrument":4,"program":23,"isDrum":false},{"pitch":70,"velocity":128,"startTime":160.33117435416668,"endTime":160.58660858333334,"instrument":4,"program":23,"isDrum":false},{"pitch":70,"velocity":128,"startTime":160.65182583333336,"endTime":161.36921558333336,"instrument":4,"program":23,"isDrum":false},{"pitch":69,"velocity":114,"startTime":161.40182420833335,"endTime":161.59747595833335,"instrument":4,"program":23,"isDrum":false},{"pitch":69,"velocity":128,"startTime":161.6898670625,"endTime":161.92899697916667,"instrument":4,"program":23,"isDrum":false},{"pitch":72,"velocity":114,"startTime":161.967040375,"endTime":162.17899643750002,"instrument":4,"program":23,"isDrum":false},{"pitch":70,"velocity":128,"startTime":162.21703983333336,"endTime":163.20073335416666,"instrument":4,"program":23,"isDrum":false},{"pitch":69,"velocity":114,"startTime":163.24964629166666,"endTime":163.76594952083335,"instrument":4,"program":23,"isDrum":false},{"pitch":67,"velocity":114,"startTime":163.7768190625,"endTime":164.30399183333336,"instrument":4,"program":23,"isDrum":false},{"pitch":66,"velocity":128,"startTime":164.33660045833335,"endTime":164.83116460416667,"instrument":4,"program":23,"isDrum":false},{"pitch":67,"velocity":87,"startTime":164.84746891666668,"endTime":164.91812093750002,"instrument":4,"program":23,"isDrum":false},{"pitch":62,"velocity":114,"startTime":165.097468375,"endTime":165.78768427083335,"instrument":4,"program":23,"isDrum":false},{"pitch":60,"velocity":97,"startTime":165.36920691666668,"endTime":165.83659720833336,"instrument":4,"program":23,"isDrum":false},{"pitch":66,"velocity":114,"startTime":165.3746416875,"endTime":165.82029289583335,"instrument":4,"program":23,"isDrum":false},{"pitch":67,"velocity":61,"startTime":165.84746675000002,"endTime":166.00507510416668,"instrument":4,"program":23,"isDrum":false},{"pitch":62,"velocity":87,"startTime":165.85290152083337,"endTime":165.9942055625,"instrument":4,"program":23,"isDrum":false},{"pitch":58,"velocity":128,"startTime":165.85833629166666,"endTime":165.98333602083335,"instrument":4,"program":23,"isDrum":false},{"pitch":50,"velocity":87,"startTime":167.08659450000002,"endTime":167.16811606250002,"instrument":4,"program":23,"isDrum":false},{"pitch":50,"velocity":114,"startTime":167.21702900000003,"endTime":167.314854875,"instrument":4,"program":23,"isDrum":false},{"pitch":50,"velocity":128,"startTime":167.3474635,"endTime":167.45072414583336,"instrument":4,"program":23,"isDrum":false},{"pitch":54,"velocity":128,"startTime":167.477898,"endTime":167.57572387500002,"instrument":4,"program":23,"isDrum":false},{"pitch":54,"velocity":114,"startTime":167.60833250000002,"endTime":167.66811497916666,"instrument":4,"program":23,"isDrum":false},{"pitch":54,"velocity":128,"startTime":167.73876700000002,"endTime":167.81485379166668,"instrument":4,"program":23,"isDrum":false},{"pitch":54,"velocity":128,"startTime":167.8692015,"endTime":167.9181144375,"instrument":4,"program":23,"isDrum":false},{"pitch":57,"velocity":128,"startTime":167.999636,"endTime":168.09746187500002,"instrument":4,"program":23,"isDrum":false},{"pitch":57,"velocity":75,"startTime":168.13007050000002,"endTime":168.20072252083335,"instrument":4,"program":23,"isDrum":false},{"pitch":57,"velocity":114,"startTime":168.26050500000002,"endTime":168.34746133333337,"instrument":4,"program":23,"isDrum":false},{"pitch":57,"velocity":87,"startTime":168.3909395,"endTime":168.4724610625,"instrument":4,"program":23,"isDrum":false},{"pitch":60,"velocity":114,"startTime":168.521374,"endTime":168.6028955625,"instrument":4,"program":23,"isDrum":false},{"pitch":60,"velocity":97,"startTime":168.65180850000002,"endTime":168.72789529166667,"instrument":4,"program":23,"isDrum":false},{"pitch":60,"velocity":114,"startTime":168.78224300000002,"endTime":168.85832979166668,"instrument":4,"program":23,"isDrum":false},{"pitch":60,"velocity":97,"startTime":168.9126775,"endTime":168.9941990625,"instrument":4,"program":23,"isDrum":false},{"pitch":63,"velocity":128,"startTime":169.043112,"endTime":169.10832925000003,"instrument":4,"program":23,"isDrum":false},{"pitch":63,"velocity":128,"startTime":169.17354650000001,"endTime":169.23876375,"instrument":4,"program":23,"isDrum":false},{"pitch":63,"velocity":128,"startTime":169.30398100000002,"endTime":169.38550256250002,"instrument":4,"program":23,"isDrum":false},{"pitch":63,"velocity":128,"startTime":169.43441550000003,"endTime":169.49419797916667,"instrument":4,"program":23,"isDrum":false},{"pitch":62,"velocity":128,"startTime":169.56485,"endTime":169.65180633333335,"instrument":4,"program":23,"isDrum":false},{"pitch":62,"velocity":97,"startTime":169.6952845,"endTime":169.77137129166667,"instrument":4,"program":23,"isDrum":false},{"pitch":62,"velocity":128,"startTime":169.82571900000002,"endTime":169.91267533333337,"instrument":4,"program":23,"isDrum":false},{"pitch":62,"velocity":97,"startTime":169.95615350000003,"endTime":170.03767506250003,"instrument":4,"program":23,"isDrum":false},{"pitch":60,"velocity":114,"startTime":170.086588,"endTime":170.18441387500002,"instrument":4,"program":23,"isDrum":false},{"pitch":60,"velocity":97,"startTime":170.2170225,"endTime":170.29310929166667,"instrument":4,"program":23,"isDrum":false},{"pitch":60,"velocity":114,"startTime":170.34745700000002,"endTime":170.445282875,"instrument":4,"program":23,"isDrum":false},{"pitch":60,"velocity":87,"startTime":170.47789150000003,"endTime":170.54854352083336,"instrument":4,"program":23,"isDrum":false},{"pitch":57,"velocity":114,"startTime":170.608326,"endTime":170.70071710416667,"instrument":4,"program":23,"isDrum":false},{"pitch":57,"velocity":97,"startTime":170.7387605,"endTime":170.81484729166667,"instrument":4,"program":23,"isDrum":false},{"pitch":57,"velocity":78,"startTime":170.86919500000002,"endTime":170.95071656250002,"instrument":4,"program":23,"isDrum":false},{"pitch":57,"velocity":97,"startTime":170.99962950000003,"endTime":171.08115106250003,"instrument":4,"program":23,"isDrum":false},{"pitch":58,"velocity":128,"startTime":171.130064,"endTime":171.2115855625,"instrument":4,"program":23,"isDrum":false},{"pitch":58,"velocity":128,"startTime":171.2604985,"endTime":171.32028097916668,"instrument":4,"program":23,"isDrum":false},{"pitch":58,"velocity":128,"startTime":171.39093300000002,"endTime":171.47245456250002,"instrument":4,"program":23,"isDrum":false},{"pitch":58,"velocity":128,"startTime":171.52136750000003,"endTime":171.60288906250003,"instrument":4,"program":23,"isDrum":false},{"pitch":62,"velocity":128,"startTime":171.651802,"endTime":171.74419310416667,"instrument":4,"program":23,"isDrum":false},{"pitch":62,"velocity":97,"startTime":171.7822365,"endTime":171.84745375000003,"instrument":4,"program":23,"isDrum":false},{"pitch":62,"velocity":128,"startTime":171.91267100000002,"endTime":171.99419256250002,"instrument":4,"program":23,"isDrum":false},{"pitch":62,"velocity":114,"startTime":172.04310550000002,"endTime":172.12462706250002,"instrument":4,"program":23,"isDrum":false},{"pitch":67,"velocity":128,"startTime":172.17354,"endTime":172.26049633333335,"instrument":4,"program":23,"isDrum":false},{"pitch":67,"velocity":97,"startTime":172.3039745,"endTime":172.39093083333336,"instrument":4,"program":23,"isDrum":false},{"pitch":67,"velocity":97,"startTime":172.43440900000002,"endTime":172.51593056250002,"instrument":4,"program":23,"isDrum":false},{"pitch":67,"velocity":97,"startTime":172.56484350000002,"endTime":172.64636506250002,"instrument":4,"program":23,"isDrum":false},{"pitch":69,"velocity":128,"startTime":172.695278,"endTime":172.78223433333335,"instrument":4,"program":23,"isDrum":false},{"pitch":69,"velocity":97,"startTime":172.8257125,"endTime":172.9072340625,"instrument":4,"program":23,"isDrum":false},{"pitch":69,"velocity":114,"startTime":172.95614700000002,"endTime":173.03766856250002,"instrument":4,"program":23,"isDrum":false},{"pitch":69,"velocity":114,"startTime":173.08658150000002,"endTime":173.17353783333337,"instrument":4,"program":23,"isDrum":false},{"pitch":70,"velocity":128,"startTime":173.217016,"endTime":173.29310279166668,"instrument":4,"program":23,"isDrum":false},{"pitch":70,"velocity":128,"startTime":173.3474505,"endTime":173.41266775000003,"instrument":4,"program":23,"isDrum":false},{"pitch":70,"velocity":128,"startTime":173.47788500000001,"endTime":173.55397179166667,"instrument":4,"program":23,"isDrum":false},{"pitch":70,"velocity":128,"startTime":173.60831950000002,"endTime":173.68440629166668,"instrument":4,"program":23,"isDrum":false},{"pitch":69,"velocity":114,"startTime":173.73875400000003,"endTime":173.83114510416667,"instrument":4,"program":23,"isDrum":false},{"pitch":69,"velocity":97,"startTime":173.8691885,"endTime":173.94527529166666,"instrument":4,"program":23,"isDrum":false},{"pitch":69,"velocity":97,"startTime":173.999623,"endTime":174.08657933333336,"instrument":4,"program":23,"isDrum":false},{"pitch":69,"velocity":97,"startTime":174.13005750000002,"endTime":174.20614429166667,"instrument":4,"program":23,"isDrum":false},{"pitch":67,"velocity":128,"startTime":174.26049200000003,"endTime":174.34744833333335,"instrument":4,"program":23,"isDrum":false},{"pitch":67,"velocity":97,"startTime":174.3909265,"endTime":174.46701329166666,"instrument":4,"program":23,"isDrum":false},{"pitch":67,"velocity":114,"startTime":174.521361,"endTime":174.59744779166667,"instrument":4,"program":23,"isDrum":false},{"pitch":67,"velocity":87,"startTime":174.65179550000002,"endTime":174.73875183333337,"instrument":4,"program":23,"isDrum":false},{"pitch":66,"velocity":128,"startTime":174.78223000000003,"endTime":174.85831679166668,"instrument":4,"program":23,"isDrum":false},{"pitch":66,"velocity":128,"startTime":174.9126645,"endTime":174.98331652083337,"instrument":4,"program":23,"isDrum":false},{"pitch":66,"velocity":128,"startTime":175.043099,"endTime":175.11375102083335,"instrument":4,"program":23,"isDrum":false},{"pitch":66,"velocity":128,"startTime":175.17353350000002,"endTime":175.24962029166667,"instrument":4,"program":23,"isDrum":false},{"pitch":69,"velocity":128,"startTime":175.30396800000003,"endTime":175.40722864583336,"instrument":4,"program":23,"isDrum":false},{"pitch":69,"velocity":97,"startTime":175.4344025,"endTime":175.50505452083337,"instrument":4,"program":23,"isDrum":false},{"pitch":69,"velocity":128,"startTime":175.564837,"endTime":175.65722810416668,"instrument":4,"program":23,"isDrum":false},{"pitch":69,"velocity":87,"startTime":175.69527150000002,"endTime":175.77679306250002,"instrument":4,"program":23,"isDrum":false},{"pitch":66,"velocity":128,"startTime":175.82570600000003,"endTime":175.91809710416666,"instrument":4,"program":23,"isDrum":false},{"pitch":66,"velocity":128,"startTime":175.9561405,"endTime":176.02679252083337,"instrument":4,"program":23,"isDrum":false},{"pitch":66,"velocity":128,"startTime":176.086575,"endTime":176.16266179166666,"instrument":4,"program":23,"isDrum":false},{"pitch":66,"velocity":128,"startTime":176.21700950000002,"endTime":176.249618125,"instrument":4,"program":23,"isDrum":false},{"pitch":62,"velocity":128,"startTime":176.34744400000002,"endTime":176.445269875,"instrument":4,"program":23,"isDrum":false},{"pitch":62,"velocity":87,"startTime":176.4778785,"endTime":176.55396529166669,"instrument":4,"program":23,"isDrum":false},{"pitch":62,"velocity":114,"startTime":176.608313,"endTime":176.70070410416668,"instrument":4,"program":23,"isDrum":false},{"pitch":62,"velocity":97,"startTime":176.73874750000002,"endTime":176.81483429166667,"instrument":4,"program":23,"isDrum":false},{"pitch":60,"velocity":114,"startTime":176.86918200000002,"endTime":176.96157310416666,"instrument":4,"program":23,"isDrum":false},{"pitch":60,"velocity":97,"startTime":176.9996165,"endTime":177.0811380625,"instrument":4,"program":23,"isDrum":false},{"pitch":60,"velocity":114,"startTime":177.130051,"endTime":177.2115725625,"instrument":4,"program":23,"isDrum":false},{"pitch":60,"velocity":87,"startTime":177.26048550000002,"endTime":177.33657229166667,"instrument":4,"program":23,"isDrum":false},{"pitch":57,"velocity":114,"startTime":177.39092000000002,"endTime":177.48331110416666,"instrument":4,"program":23,"isDrum":false},{"pitch":57,"velocity":87,"startTime":177.52135450000003,"endTime":177.59744129166668,"instrument":4,"program":23,"isDrum":false},{"pitch":57,"velocity":97,"startTime":177.651789,"endTime":177.73874533333336,"instrument":4,"program":23,"isDrum":false},{"pitch":57,"velocity":87,"startTime":177.78222350000001,"endTime":177.85831029166667,"instrument":4,"program":23,"isDrum":false},{"pitch":54,"velocity":128,"startTime":177.91265800000002,"endTime":177.99961433333337,"instrument":4,"program":23,"isDrum":false},{"pitch":54,"velocity":128,"startTime":178.04309250000003,"endTime":178.11917929166668,"instrument":4,"program":23,"isDrum":false},{"pitch":54,"velocity":87,"startTime":178.173527,"endTime":178.27678764583337,"instrument":4,"program":23,"isDrum":false},{"pitch":54,"velocity":114,"startTime":178.3039615,"endTime":178.39091783333336,"instrument":4,"program":23,"isDrum":false},{"pitch":50,"velocity":128,"startTime":178.43439600000002,"endTime":178.53765664583335,"instrument":4,"program":23,"isDrum":false},{"pitch":50,"velocity":87,"startTime":178.56483050000003,"endTime":178.64091729166668,"instrument":4,"program":23,"isDrum":false},{"pitch":50,"velocity":97,"startTime":178.695265,"endTime":178.78765610416667,"instrument":4,"program":23,"isDrum":false},{"pitch":50,"velocity":87,"startTime":178.8256995,"endTime":178.90178629166667,"instrument":4,"program":23,"isDrum":false},{"pitch":54,"velocity":128,"startTime":178.95613400000002,"endTime":179.03765556250002,"instrument":4,"program":23,"isDrum":false},{"pitch":54,"velocity":114,"startTime":179.08656850000003,"endTime":179.14635097916667,"instrument":4,"program":23,"isDrum":false},{"pitch":54,"velocity":128,"startTime":179.217003,"endTime":179.29308979166666,"instrument":4,"program":23,"isDrum":false},{"pitch":54,"velocity":128,"startTime":179.3474375,"endTime":179.41808952083335,"instrument":4,"program":23,"isDrum":false},{"pitch":55,"velocity":128,"startTime":179.47787200000002,"endTime":179.58113264583335,"instrument":4,"program":23,"isDrum":false},{"pitch":55,"velocity":97,"startTime":179.60830650000003,"endTime":179.68439329166668,"instrument":4,"program":23,"isDrum":false},{"pitch":55,"velocity":128,"startTime":179.738741,"endTime":179.83113210416667,"instrument":4,"program":23,"isDrum":false},{"pitch":55,"velocity":97,"startTime":179.8691755,"endTime":179.93982752083335,"instrument":4,"program":23,"isDrum":false},{"pitch":50,"velocity":114,"startTime":179.99961000000002,"endTime":180.08113156250002,"instrument":4,"program":23,"isDrum":false},{"pitch":50,"velocity":97,"startTime":180.13004450000003,"endTime":180.21156606250003,"instrument":4,"program":23,"isDrum":false},{"pitch":50,"velocity":97,"startTime":180.260479,"endTime":180.35287010416667,"instrument":4,"program":23,"isDrum":false},{"pitch":50,"velocity":87,"startTime":180.3909135,"endTime":180.48330460416668,"instrument":4,"program":23,"isDrum":false},{"pitch":58,"velocity":128,"startTime":180.52134800000002,"endTime":180.59200002083335,"instrument":4,"program":23,"isDrum":false},{"pitch":58,"velocity":128,"startTime":180.65178250000002,"endTime":180.7006954375,"instrument":4,"program":23,"isDrum":false},{"pitch":58,"velocity":128,"startTime":180.782217,"endTime":180.85830379166669,"instrument":4,"program":23,"isDrum":false},{"pitch":58,"velocity":114,"startTime":180.9126515,"endTime":180.95612966666667,"instrument":4,"program":23,"isDrum":false},{"pitch":55,"velocity":114,"startTime":181.04308600000002,"endTime":181.13547710416668,"instrument":4,"program":23,"isDrum":false},{"pitch":55,"velocity":97,"startTime":181.17352050000002,"endTime":181.24417252083336,"instrument":4,"program":23,"isDrum":false},{"pitch":55,"velocity":128,"startTime":181.303955,"endTime":181.38004179166668,"instrument":4,"program":23,"isDrum":false},{"pitch":55,"velocity":87,"startTime":181.4343895,"endTime":181.51047629166666,"instrument":4,"program":23,"isDrum":false},{"pitch":62,"velocity":114,"startTime":181.56482400000002,"endTime":181.63547602083335,"instrument":4,"program":23,"isDrum":false},{"pitch":62,"velocity":114,"startTime":181.69525850000002,"endTime":181.76591052083336,"instrument":4,"program":23,"isDrum":false},{"pitch":62,"velocity":114,"startTime":181.82569300000003,"endTime":181.91264933333335,"instrument":4,"program":23,"isDrum":false},{"pitch":62,"velocity":87,"startTime":181.9561275,"endTime":182.02677952083337,"instrument":4,"program":23,"isDrum":false},{"pitch":58,"velocity":128,"startTime":182.08656200000001,"endTime":182.15721402083335,"instrument":4,"program":23,"isDrum":false},{"pitch":58,"velocity":128,"startTime":182.21699650000002,"endTime":182.27677897916666,"instrument":4,"program":23,"isDrum":false},{"pitch":58,"velocity":128,"startTime":182.34743100000003,"endTime":182.41808302083336,"instrument":4,"program":23,"isDrum":false},{"pitch":58,"velocity":128,"startTime":182.4778655,"endTime":182.53764797916668,"instrument":4,"program":23,"isDrum":false},{"pitch":62,"velocity":114,"startTime":182.6083,"endTime":182.69525633333336,"instrument":4,"program":23,"isDrum":false},{"pitch":62,"velocity":115,"startTime":182.73873450000002,"endTime":182.836560375,"instrument":4,"program":23,"isDrum":false},{"pitch":62,"velocity":111,"startTime":182.86916900000003,"endTime":182.94525579166668,"instrument":4,"program":23,"isDrum":false},{"pitch":62,"velocity":120,"startTime":182.9996035,"endTime":183.09742937500002,"instrument":4,"program":23,"isDrum":false},{"pitch":59,"velocity":114,"startTime":183.130038,"endTime":183.22786387500003,"instrument":4,"program":23,"isDrum":false},{"pitch":59,"velocity":97,"startTime":183.26047250000002,"endTime":183.33655929166667,"instrument":4,"program":23,"isDrum":false},{"pitch":59,"velocity":114,"startTime":183.39090700000003,"endTime":183.47242856250003,"instrument":4,"program":23,"isDrum":false},{"pitch":59,"velocity":114,"startTime":183.5213415,"endTime":183.6028630625,"instrument":4,"program":23,"isDrum":false},{"pitch":60,"velocity":128,"startTime":183.651776,"endTime":183.73873233333336,"instrument":4,"program":23,"isDrum":false},{"pitch":60,"velocity":87,"startTime":183.78221050000002,"endTime":183.85829729166667,"instrument":4,"program":23,"isDrum":false},{"pitch":60,"velocity":97,"startTime":183.91264500000003,"endTime":183.99416656250003,"instrument":4,"program":23,"isDrum":false},{"pitch":60,"velocity":97,"startTime":184.0430795,"endTime":184.11916629166666,"instrument":4,"program":23,"isDrum":false},{"pitch":63,"velocity":128,"startTime":184.173514,"endTime":184.23873125000003,"instrument":4,"program":23,"isDrum":false},{"pitch":63,"velocity":128,"startTime":184.30394850000002,"endTime":184.35829620833337,"instrument":4,"program":23,"isDrum":false},{"pitch":63,"velocity":128,"startTime":184.43438300000003,"endTime":184.51046979166668,"instrument":4,"program":23,"isDrum":false},{"pitch":63,"velocity":128,"startTime":184.5648175,"endTime":184.63546952083337,"instrument":4,"program":23,"isDrum":false},{"pitch":67,"velocity":114,"startTime":184.695252,"endTime":184.78220833333336,"instrument":4,"program":23,"isDrum":false},{"pitch":67,"velocity":87,"startTime":184.82568650000002,"endTime":184.89633852083335,"instrument":4,"program":23,"isDrum":false},{"pitch":67,"velocity":114,"startTime":184.95612100000002,"endTime":185.053946875,"instrument":4,"program":23,"isDrum":false},{"pitch":67,"velocity":97,"startTime":185.0865555,"endTime":185.15720752083337,"instrument":4,"program":23,"isDrum":false},{"pitch":66,"velocity":128,"startTime":185.21699,"endTime":185.29307679166666,"instrument":4,"program":23,"isDrum":false},{"pitch":66,"velocity":128,"startTime":185.34742450000002,"endTime":185.41264175,"instrument":4,"program":23,"isDrum":false},{"pitch":66,"velocity":128,"startTime":185.47785900000002,"endTime":185.55394579166668,"instrument":4,"program":23,"isDrum":false},{"pitch":66,"velocity":128,"startTime":185.6082935,"endTime":185.68438029166668,"instrument":4,"program":23,"isDrum":false},{"pitch":67,"velocity":87,"startTime":185.738728,"endTime":185.84198864583337,"instrument":4,"program":23,"isDrum":false},{"pitch":67,"velocity":87,"startTime":185.86916250000002,"endTime":185.93437975,"instrument":4,"program":23,"isDrum":false},{"pitch":67,"velocity":114,"startTime":185.99959700000002,"endTime":186.09198810416666,"instrument":4,"program":23,"isDrum":false},{"pitch":67,"velocity":97,"startTime":186.13003150000003,"endTime":186.20611829166668,"instrument":4,"program":23,"isDrum":false},{"pitch":69,"velocity":114,"startTime":186.260466,"endTime":186.34742233333336,"instrument":4,"program":23,"isDrum":false},{"pitch":69,"velocity":97,"startTime":186.39090050000001,"endTime":186.47242206250002,"instrument":4,"program":23,"isDrum":false},{"pitch":69,"velocity":97,"startTime":186.52133500000002,"endTime":186.61372610416666,"instrument":4,"program":23,"isDrum":false},{"pitch":69,"velocity":114,"startTime":186.65176950000003,"endTime":186.72242152083336,"instrument":4,"program":23,"isDrum":false},{"pitch":70,"velocity":128,"startTime":186.782204,"endTime":186.85285602083337,"instrument":4,"program":23,"isDrum":false},{"pitch":70,"velocity":128,"startTime":186.9126385,"endTime":186.96698620833337,"instrument":4,"program":23,"isDrum":false},{"pitch":70,"velocity":128,"startTime":187.04307300000002,"endTime":187.11915979166668,"instrument":4,"program":23,"isDrum":false},{"pitch":70,"velocity":128,"startTime":187.17350750000003,"endTime":187.24415952083336,"instrument":4,"program":23,"isDrum":false},{"pitch":69,"velocity":128,"startTime":187.303942,"endTime":187.39089833333335,"instrument":4,"program":23,"isDrum":false},{"pitch":69,"velocity":97,"startTime":187.4343765,"endTime":187.5158980625,"instrument":4,"program":23,"isDrum":false},{"pitch":69,"velocity":97,"startTime":187.56481100000002,"endTime":187.65176733333337,"instrument":4,"program":23,"isDrum":false},{"pitch":69,"velocity":97,"startTime":187.69524550000003,"endTime":187.78220183333335,"instrument":4,"program":23,"isDrum":false},{"pitch":67,"velocity":114,"startTime":187.82568,"endTime":187.92350587500002,"instrument":4,"program":23,"isDrum":false},{"pitch":67,"velocity":97,"startTime":187.9561145,"endTime":188.0376360625,"instrument":4,"program":23,"isDrum":false},{"pitch":67,"velocity":97,"startTime":188.08654900000002,"endTime":188.15720102083336,"instrument":4,"program":23,"isDrum":false},{"pitch":67,"velocity":78,"startTime":188.21698350000003,"endTime":188.29307029166668,"instrument":4,"program":23,"isDrum":false},{"pitch":66,"velocity":128,"startTime":188.347418,"endTime":188.4235047916667,"instrument":4,"program":23,"isDrum":false},{"pitch":66,"velocity":128,"startTime":188.4778525,"endTime":188.54850452083335,"instrument":4,"program":23,"isDrum":false},{"pitch":66,"velocity":128,"startTime":188.60828700000002,"endTime":188.68980856250002,"instrument":4,"program":23,"isDrum":false},{"pitch":66,"velocity":128,"startTime":188.73872150000003,"endTime":188.79850397916667,"instrument":4,"program":23,"isDrum":false},{"pitch":65,"velocity":128,"startTime":188.869156,"endTime":188.9506775625,"instrument":4,"program":23,"isDrum":false},{"pitch":65,"velocity":97,"startTime":188.9995905,"endTime":189.0811120625,"instrument":4,"program":23,"isDrum":false},{"pitch":65,"velocity":114,"startTime":189.13002500000002,"endTime":189.22241610416668,"instrument":4,"program":23,"isDrum":false},{"pitch":65,"velocity":97,"startTime":189.26045950000002,"endTime":189.33654629166668,"instrument":4,"program":23,"isDrum":false},{"pitch":64,"velocity":128,"startTime":189.390894,"endTime":189.48328510416667,"instrument":4,"program":23,"isDrum":false},{"pitch":64,"velocity":87,"startTime":189.5213285,"endTime":189.60828483333336,"instrument":4,"program":23,"isDrum":false},{"pitch":64,"velocity":97,"startTime":189.65176300000002,"endTime":189.73871933333336,"instrument":4,"program":23,"isDrum":false},{"pitch":64,"velocity":87,"startTime":189.78219750000002,"endTime":189.86371906250002,"instrument":4,"program":23,"isDrum":false},{"pitch":63,"velocity":128,"startTime":189.91263200000003,"endTime":190.00502310416667,"instrument":4,"program":23,"isDrum":false},{"pitch":63,"velocity":128,"startTime":190.0430665,"endTime":190.11371852083337,"instrument":4,"program":23,"isDrum":false},{"pitch":63,"velocity":128,"startTime":190.17350100000002,"endTime":190.25502256250002,"instrument":4,"program":23,"isDrum":false},{"pitch":63,"velocity":128,"startTime":190.30393550000002,"endTime":190.36371797916667,"instrument":4,"program":23,"isDrum":false},{"pitch":62,"velocity":128,"startTime":190.43437000000003,"endTime":190.52132633333335,"instrument":4,"program":23,"isDrum":false},{"pitch":62,"velocity":97,"startTime":190.5648045,"endTime":190.64089129166666,"instrument":4,"program":23,"isDrum":false},{"pitch":62,"velocity":97,"startTime":190.69523900000002,"endTime":190.77676056250002,"instrument":4,"program":23,"isDrum":false},{"pitch":62,"velocity":87,"startTime":190.82567350000002,"endTime":190.91262983333337,"instrument":4,"program":23,"isDrum":false},{"pitch":61,"velocity":128,"startTime":190.95610800000003,"endTime":191.03762956250003,"instrument":4,"program":23,"isDrum":false},{"pitch":61,"velocity":128,"startTime":191.0865425,"endTime":191.15175975000002,"instrument":4,"program":23,"isDrum":false},{"pitch":61,"velocity":128,"startTime":191.216977,"endTime":191.29306379166667,"instrument":4,"program":23,"isDrum":false},{"pitch":61,"velocity":128,"startTime":191.34741150000002,"endTime":191.42349829166668,"instrument":4,"program":23,"isDrum":false},{"pitch":62,"velocity":114,"startTime":191.47784600000003,"endTime":191.58110664583336,"instrument":4,"program":23,"isDrum":false},{"pitch":62,"velocity":87,"startTime":191.6082805,"endTime":191.68436729166666,"instrument":4,"program":23,"isDrum":false},{"pitch":62,"velocity":114,"startTime":191.738715,"endTime":191.81480179166667,"instrument":4,"program":23,"isDrum":false},{"pitch":62,"velocity":97,"startTime":191.86914950000002,"endTime":191.94523629166667,"instrument":4,"program":23,"isDrum":false},{"pitch":63,"velocity":128,"startTime":191.99958400000003,"endTime":192.07023602083336,"instrument":4,"program":23,"isDrum":false},{"pitch":63,"velocity":128,"startTime":192.1300185,"endTime":192.20067052083337,"instrument":4,"program":23,"isDrum":false},{"pitch":63,"velocity":128,"startTime":192.260453,"endTime":192.3419745625,"instrument":4,"program":23,"isDrum":false},{"pitch":63,"velocity":128,"startTime":192.39088750000002,"endTime":192.43980043750003,"instrument":4,"program":23,"isDrum":false},{"pitch":62,"velocity":114,"startTime":192.52132200000003,"endTime":192.61371310416666,"instrument":4,"program":23,"isDrum":false},{"pitch":62,"velocity":97,"startTime":192.6517565,"endTime":192.7332780625,"instrument":4,"program":23,"isDrum":false},{"pitch":62,"velocity":97,"startTime":192.782191,"endTime":192.87458210416668,"instrument":4,"program":23,"isDrum":false},{"pitch":62,"velocity":87,"startTime":192.91262550000002,"endTime":192.99958183333337,"instrument":4,"program":23,"isDrum":false},{"pitch":60,"velocity":114,"startTime":193.04306000000003,"endTime":193.13545110416666,"instrument":4,"program":23,"isDrum":false},{"pitch":60,"velocity":87,"startTime":193.1734945,"endTime":193.2495812916667,"instrument":4,"program":23,"isDrum":false},{"pitch":60,"velocity":114,"startTime":193.303929,"endTime":193.40175487500002,"instrument":4,"program":23,"isDrum":false},{"pitch":60,"velocity":87,"startTime":193.43436350000002,"endTime":193.51045029166667,"instrument":4,"program":23,"isDrum":false},{"pitch":57,"velocity":97,"startTime":193.56479800000002,"endTime":193.65175433333337,"instrument":4,"program":23,"isDrum":false},{"pitch":57,"velocity":75,"startTime":193.6952325,"endTime":193.7767540625,"instrument":4,"program":23,"isDrum":false},{"pitch":57,"velocity":114,"startTime":193.825667,"endTime":193.91805810416668,"instrument":4,"program":23,"isDrum":false},{"pitch":57,"velocity":87,"startTime":193.95610150000002,"endTime":194.03218829166667,"instrument":4,"program":23,"isDrum":false},{"pitch":54,"velocity":128,"startTime":194.08653600000002,"endTime":194.16262279166668,"instrument":4,"program":23,"isDrum":false},{"pitch":54,"velocity":128,"startTime":194.21697050000003,"endTime":194.29305729166668,"instrument":4,"program":23,"isDrum":false},{"pitch":54,"velocity":128,"startTime":194.347405,"endTime":194.4289265625,"instrument":4,"program":23,"isDrum":false},{"pitch":54,"velocity":128,"startTime":194.47783950000002,"endTime":194.53218720833337,"instrument":4,"program":23,"isDrum":false},{"pitch":50,"velocity":128,"startTime":194.60827400000002,"endTime":194.68979556250002,"instrument":4,"program":23,"isDrum":false},{"pitch":50,"velocity":87,"startTime":194.73870850000003,"endTime":194.80936052083337,"instrument":4,"program":23,"isDrum":false},{"pitch":50,"velocity":114,"startTime":194.869143,"endTime":194.95609933333336,"instrument":4,"program":23,"isDrum":false},{"pitch":50,"velocity":87,"startTime":194.99957750000002,"endTime":195.08109906250002,"instrument":4,"program":23,"isDrum":false},{"pitch":54,"velocity":128,"startTime":195.13001200000002,"endTime":195.21153356250002,"instrument":4,"program":23,"isDrum":false},{"pitch":54,"velocity":114,"startTime":195.26044650000003,"endTime":195.31479420833335,"instrument":4,"program":23,"isDrum":false},{"pitch":54,"velocity":128,"startTime":195.390881,"endTime":195.4724025625,"instrument":4,"program":23,"isDrum":false},{"pitch":54,"velocity":114,"startTime":195.52131550000001,"endTime":195.60827183333336,"instrument":4,"program":23,"isDrum":false},{"pitch":57,"velocity":47,"startTime":195.65175000000002,"endTime":195.73327156250002,"instrument":4,"program":23,"isDrum":false},{"pitch":57,"velocity":70,"startTime":195.78218450000003,"endTime":195.84740175000002,"instrument":4,"program":23,"isDrum":false},{"pitch":57,"velocity":97,"startTime":195.912619,"endTime":195.9941405625,"instrument":4,"program":23,"isDrum":false},{"pitch":57,"velocity":87,"startTime":196.0430535,"endTime":196.11914029166667,"instrument":4,"program":23,"isDrum":false},{"pitch":55,"velocity":114,"startTime":196.17348800000002,"endTime":196.22783570833337,"instrument":4,"program":23,"isDrum":false},{"pitch":75,"velocity":128,"startTime":196.30392250000003,"endTime":196.38544406250003,"instrument":4,"program":23,"isDrum":false},{"pitch":74,"velocity":128,"startTime":196.434357,"endTime":196.53761764583336,"instrument":4,"program":23,"isDrum":false},{"pitch":72,"velocity":87,"startTime":196.5647915,"endTime":196.65718260416668,"instrument":4,"program":23,"isDrum":false},{"pitch":70,"velocity":128,"startTime":196.69522600000002,"endTime":196.78218233333337,"instrument":4,"program":23,"isDrum":false},{"pitch":69,"velocity":114,"startTime":196.82566050000003,"endTime":196.90718206250003,"instrument":4,"program":23,"isDrum":false},{"pitch":67,"velocity":114,"startTime":196.956095,"endTime":197.04848610416667,"instrument":4,"program":23,"isDrum":false},{"pitch":66,"velocity":128,"startTime":197.0865295,"endTime":197.19522491666666,"instrument":4,"program":23,"isDrum":false},{"pitch":63,"velocity":128,"startTime":197.21696400000002,"endTime":197.3310941875,"instrument":4,"program":23,"isDrum":false},{"pitch":62,"velocity":114,"startTime":197.34739850000003,"endTime":197.445224375,"instrument":4,"program":23,"isDrum":false},{"pitch":60,"velocity":87,"startTime":197.477833,"endTime":197.57022410416667,"instrument":4,"program":23,"isDrum":false},{"pitch":58,"velocity":128,"startTime":197.6082675,"endTime":197.70609337500002,"instrument":4,"program":23,"isDrum":false},{"pitch":57,"velocity":114,"startTime":197.73870200000002,"endTime":197.83109310416668,"instrument":4,"program":23,"isDrum":false},{"pitch":55,"velocity":87,"startTime":197.86913650000002,"endTime":197.966962375,"instrument":4,"program":23,"isDrum":false},{"pitch":54,"velocity":128,"startTime":197.999571,"endTime":198.09196210416667,"instrument":4,"program":23,"isDrum":false},{"pitch":57,"velocity":114,"startTime":198.1300055,"endTime":198.23326614583337,"instrument":4,"program":23,"isDrum":false},{"pitch":55,"velocity":97,"startTime":198.26044000000002,"endTime":198.34739633333336,"instrument":4,"program":23,"isDrum":false},{"pitch":62,"velocity":128,"startTime":198.488700375,"endTime":199.21695966666667,"instrument":4,"program":23,"isDrum":false},{"pitch":60,"velocity":87,"startTime":198.75500414583337,"endTime":199.23326397916668,"instrument":4,"program":23,"isDrum":false},{"pitch":66,"velocity":128,"startTime":198.7604389166667,"endTime":199.21695966666667,"instrument":4,"program":23,"isDrum":false},{"pitch":67,"velocity":75,"startTime":199.22782920833336,"endTime":199.40174187500003,"instrument":4,"program":23,"isDrum":false},{"pitch":62,"velocity":114,"startTime":199.24413352083337,"endTime":199.39630710416668,"instrument":4,"program":23,"isDrum":false},{"pitch":58,"velocity":128,"startTime":199.24956829166666,"endTime":199.39630710416668,"instrument":4,"program":23,"isDrum":false},{"pitch":62,"velocity":76,"startTime":33.391232,"endTime":36.440138437499996,"instrument":5,"program":48,"isDrum":false},{"pitch":60,"velocity":76,"startTime":36.46187752083334,"endTime":37.50535352083334,"instrument":5,"program":48,"isDrum":false},{"pitch":66,"velocity":85,"startTime":36.46731229166667,"endTime":37.461875354166665,"instrument":5,"program":48,"isDrum":false},{"pitch":58,"velocity":53,"startTime":37.4510058125,"endTime":40.037956729166666,"instrument":5,"program":48,"isDrum":false},{"pitch":67,"velocity":61,"startTime":37.4510058125,"endTime":40.05426104166666,"instrument":5,"program":48,"isDrum":false},{"pitch":55,"velocity":100,"startTime":40.07056535416666,"endTime":40.60317289583334,"instrument":5,"program":48,"isDrum":false},{"pitch":67,"velocity":85,"startTime":40.60317289583334,"endTime":41.14664997916667,"instrument":5,"program":48,"isDrum":false},{"pitch":63,"velocity":85,"startTime":41.1357804375,"endTime":41.65208366666667,"instrument":5,"program":48,"isDrum":false},{"pitch":62,"velocity":85,"startTime":41.6575184375,"endTime":44.80968552083334,"instrument":5,"program":48,"isDrum":false},{"pitch":60,"velocity":68,"startTime":44.80968552083334,"endTime":45.85316152083334,"instrument":5,"program":48,"isDrum":false},{"pitch":66,"velocity":100,"startTime":44.80968552083334,"endTime":45.85859629166667,"instrument":5,"program":48,"isDrum":false},{"pitch":67,"velocity":51,"startTime":45.80424858333333,"endTime":48.016200312500004,"instrument":5,"program":48,"isDrum":false},{"pitch":58,"velocity":61,"startTime":45.809683354166665,"endTime":47.98359168750001,"instrument":5,"program":48,"isDrum":false},{"pitch":70,"velocity":128,"startTime":48.43467766666667,"endTime":48.92924181250001,"instrument":5,"program":48,"isDrum":false},{"pitch":69,"velocity":100,"startTime":48.95098089583334,"endTime":49.50532752083333,"instrument":5,"program":48,"isDrum":false},{"pitch":67,"velocity":85,"startTime":49.49445797916667,"endTime":49.99445689583334,"instrument":5,"program":48,"isDrum":false},{"pitch":72,"velocity":85,"startTime":49.989022125000005,"endTime":52.342277895833334,"instrument":5,"program":48,"isDrum":false},{"pitch":74,"velocity":85,"startTime":52.364016979166664,"endTime":52.65205983333334,"instrument":5,"program":48,"isDrum":false},{"pitch":75,"velocity":85,"startTime":52.65749460416667,"endTime":52.90749406250001,"instrument":5,"program":48,"isDrum":false},{"pitch":74,"velocity":53,"startTime":52.90749406250001,"endTime":53.168363062500006,"instrument":5,"program":48,"isDrum":false},{"pitch":75,"velocity":85,"startTime":53.17379783333334,"endTime":53.690101062500005,"instrument":5,"program":48,"isDrum":false},{"pitch":77,"velocity":85,"startTime":53.67379675000001,"endTime":54.162926125,"instrument":5,"program":48,"isDrum":false},{"pitch":74,"velocity":66,"startTime":54.18466520833334,"endTime":55.260749833333335,"instrument":5,"program":48,"isDrum":false},{"pitch":70,"velocity":76,"startTime":55.24444552083334,"endTime":56.570529604166666,"instrument":5,"program":48,"isDrum":false},{"pitch":73,"velocity":100,"startTime":56.575964375,"endTime":56.8205290625,"instrument":5,"program":48,"isDrum":false},{"pitch":74,"velocity":76,"startTime":56.831398604166665,"endTime":57.092267604166665,"instrument":5,"program":48,"isDrum":false},{"pitch":73,"velocity":51,"startTime":57.070528520833335,"endTime":57.347701833333346,"instrument":5,"program":48,"isDrum":false},{"pitch":74,"velocity":61,"startTime":57.358571375,"endTime":57.8640050625,"instrument":5,"program":48,"isDrum":false},{"pitch":75,"velocity":85,"startTime":57.853135520833334,"endTime":58.358569208333336,"instrument":5,"program":48,"isDrum":false},{"pitch":72,"velocity":68,"startTime":58.3531344375,"endTime":59.423784291666664,"instrument":5,"program":48,"isDrum":false},{"pitch":69,"velocity":85,"startTime":59.423784291666664,"endTime":60.690085895833334,"instrument":5,"program":48,"isDrum":false},{"pitch":72,"velocity":76,"startTime":60.69552066666667,"endTime":61.00530260416667,"instrument":5,"program":48,"isDrum":false},{"pitch":70,"velocity":68,"startTime":60.97812875000001,"endTime":61.211823895833334,"instrument":5,"program":48,"isDrum":false},{"pitch":69,"velocity":76,"startTime":61.20095435416667,"endTime":61.488997208333345,"instrument":5,"program":48,"isDrum":false},{"pitch":67,"velocity":68,"startTime":61.49443197916666,"endTime":61.99986566666668,"instrument":5,"program":48,"isDrum":false},{"pitch":66,"velocity":76,"startTime":61.988996125000014,"endTime":62.516168895833346,"instrument":5,"program":48,"isDrum":false},{"pitch":67,"velocity":68,"startTime":62.52160366666668,"endTime":62.82595083333334,"instrument":5,"program":48,"isDrum":false},{"pitch":62,"velocity":85,"startTime":65.17377183333333,"endTime":65.51616239583333,"instrument":5,"program":48,"isDrum":false},{"pitch":67,"velocity":85,"startTime":65.72811845833334,"endTime":65.86398772916668,"instrument":5,"program":48,"isDrum":false},{"pitch":67,"velocity":68,"startTime":66.782464,"endTime":67.13028933333334,"instrument":5,"program":48,"isDrum":false},{"pitch":69,"velocity":68,"startTime":67.043333,"endTime":67.36941925,"instrument":5,"program":48,"isDrum":false},{"pitch":70,"velocity":61,"startTime":67.35311493750001,"endTime":68.08137422916668,"instrument":5,"program":48,"isDrum":false},{"pitch":67,"velocity":66,"startTime":68.08137422916668,"endTime":68.38028662500001,"instrument":5,"program":48,"isDrum":false},{"pitch":69,"velocity":68,"startTime":68.38028662500001,"endTime":68.5922426875,"instrument":5,"program":48,"isDrum":false},{"pitch":70,"velocity":51,"startTime":68.58137314583334,"endTime":68.836807375,"instrument":5,"program":48,"isDrum":false},{"pitch":69,"velocity":76,"startTime":68.84224214583334,"endTime":69.38571922916668,"instrument":5,"program":48,"isDrum":false},{"pitch":67,"velocity":76,"startTime":69.38028445833334,"endTime":69.54876235416668,"instrument":5,"program":48,"isDrum":false},{"pitch":67,"velocity":76,"startTime":83.44003660416668,"endTime":83.78242716666668,"instrument":5,"program":48,"isDrum":false},{"pitch":69,"velocity":68,"startTime":83.79329670833334,"endTime":84.07047002083334,"instrument":5,"program":48,"isDrum":false},{"pitch":70,"velocity":66,"startTime":84.07047002083334,"endTime":84.79329454166668,"instrument":5,"program":48,"isDrum":false},{"pitch":67,"velocity":68,"startTime":84.78785977083334,"endTime":85.0269896875,"instrument":5,"program":48,"isDrum":false},{"pitch":69,"velocity":76,"startTime":85.01612014583334,"endTime":85.21720666666668,"instrument":5,"program":48,"isDrum":false},{"pitch":70,"velocity":68,"startTime":85.206337125,"endTime":85.45633658333334,"instrument":5,"program":48,"isDrum":false},{"pitch":69,"velocity":76,"startTime":85.45633658333334,"endTime":86.02698752083334,"instrument":5,"program":48,"isDrum":false},{"pitch":67,"velocity":85,"startTime":86.01611797916668,"endTime":86.19003064583333,"instrument":5,"program":48,"isDrum":false},{"pitch":62,"velocity":68,"startTime":100.173696,"endTime":103.33129785416668,"instrument":5,"program":48,"isDrum":false},{"pitch":60,"velocity":56,"startTime":103.27695014583334,"endTime":104.30412183333334,"instrument":5,"program":48,"isDrum":false},{"pitch":66,"velocity":76,"startTime":103.27695014583334,"endTime":104.33129568750002,"instrument":5,"program":48,"isDrum":false},{"pitch":58,"velocity":53,"startTime":104.26607843750001,"endTime":106.8095511875,"instrument":5,"program":48,"isDrum":false},{"pitch":67,"velocity":36,"startTime":104.27151320833335,"endTime":106.83672504166668,"instrument":5,"program":48,"isDrum":false},{"pitch":55,"velocity":68,"startTime":106.85846412500001,"endTime":107.40737597916669,"instrument":5,"program":48,"isDrum":false},{"pitch":67,"velocity":61,"startTime":107.40737597916669,"endTime":107.95628783333333,"instrument":5,"program":48,"isDrum":false},{"pitch":63,"velocity":85,"startTime":107.91824443750001,"endTime":108.42367812500001,"instrument":5,"program":48,"isDrum":false},{"pitch":62,"velocity":76,"startTime":108.41824335416668,"endTime":111.55954089583334,"instrument":5,"program":48,"isDrum":false},{"pitch":60,"velocity":61,"startTime":111.57584520833333,"endTime":112.65736460416669,"instrument":5,"program":48,"isDrum":false},{"pitch":66,"velocity":76,"startTime":111.57584520833333,"endTime":112.65736460416669,"instrument":5,"program":48,"isDrum":false},{"pitch":58,"velocity":51,"startTime":112.59214735416668,"endTime":114.78779477083334,"instrument":5,"program":48,"isDrum":false},{"pitch":67,"velocity":48,"startTime":112.59214735416668,"endTime":114.83670770833334,"instrument":5,"program":48,"isDrum":false},{"pitch":70,"velocity":116,"startTime":115.23344597916669,"endTime":115.75518397916669,"instrument":5,"program":48,"isDrum":false},{"pitch":69,"velocity":100,"startTime":115.74974920833334,"endTime":116.28779152083334,"instrument":5,"program":48,"isDrum":false},{"pitch":67,"velocity":76,"startTime":116.27148720833334,"endTime":116.7877904375,"instrument":5,"program":48,"isDrum":false},{"pitch":72,"velocity":76,"startTime":116.76061658333334,"endTime":119.16822006250001,"instrument":5,"program":48,"isDrum":false},{"pitch":74,"velocity":68,"startTime":119.19539391666669,"endTime":119.59756695833335,"instrument":5,"program":48,"isDrum":false},{"pitch":75,"velocity":85,"startTime":119.58669741666668,"endTime":119.79865347916669,"instrument":5,"program":48,"isDrum":false},{"pitch":74,"velocity":56,"startTime":119.78234916666668,"endTime":119.97256614583334,"instrument":5,"program":48,"isDrum":false},{"pitch":75,"velocity":85,"startTime":119.95626183333334,"endTime":120.49973891666669,"instrument":5,"program":48,"isDrum":false},{"pitch":77,"velocity":76,"startTime":120.47256506250001,"endTime":120.96169443750001,"instrument":5,"program":48,"isDrum":false},{"pitch":74,"velocity":66,"startTime":120.98886829166668,"endTime":122.05951814583334,"instrument":5,"program":48,"isDrum":false},{"pitch":70,"velocity":76,"startTime":122.04864860416669,"endTime":123.33125452083334,"instrument":5,"program":48,"isDrum":false},{"pitch":73,"velocity":100,"startTime":123.32581975000001,"endTime":123.60842783333334,"instrument":5,"program":48,"isDrum":false},{"pitch":74,"velocity":68,"startTime":123.61386260416668,"endTime":123.86929683333334,"instrument":5,"program":48,"isDrum":false},{"pitch":73,"velocity":66,"startTime":123.84755775,"endTime":124.10299197916669,"instrument":5,"program":48,"isDrum":false},{"pitch":74,"velocity":61,"startTime":124.11386152083334,"endTime":124.63559952083334,"instrument":5,"program":48,"isDrum":false},{"pitch":75,"velocity":85,"startTime":124.62472997916669,"endTime":125.13016366666669,"instrument":5,"program":48,"isDrum":false},{"pitch":72,"velocity":68,"startTime":125.13016366666669,"endTime":126.2062482916667,"instrument":5,"program":48,"isDrum":false},{"pitch":69,"velocity":76,"startTime":126.21168306250001,"endTime":127.48885420833335,"instrument":5,"program":48,"isDrum":false},{"pitch":72,"velocity":76,"startTime":127.4942889791667,"endTime":127.80407091666669,"instrument":5,"program":48,"isDrum":false},{"pitch":70,"velocity":76,"startTime":127.78776660416668,"endTime":128.054070375,"instrument":5,"program":48,"isDrum":false},{"pitch":69,"velocity":85,"startTime":128.02146175000001,"endTime":128.2932002916667,"instrument":5,"program":48,"isDrum":false},{"pitch":67,"velocity":76,"startTime":128.2932002916667,"endTime":128.80950352083335,"instrument":5,"program":48,"isDrum":false},{"pitch":66,"velocity":85,"startTime":128.78776443750002,"endTime":129.24971995833334,"instrument":5,"program":48,"isDrum":false},{"pitch":67,"velocity":76,"startTime":129.28776335416669,"endTime":129.5051541875,"instrument":5,"program":48,"isDrum":false},{"pitch":62,"velocity":85,"startTime":131.9834096875,"endTime":132.41275658333336,"instrument":5,"program":48,"isDrum":false},{"pitch":67,"velocity":76,"startTime":132.45623475000002,"endTime":132.61927787500002,"instrument":5,"program":48,"isDrum":false},{"pitch":67,"velocity":100,"startTime":133.564928,"endTime":133.6464495625,"instrument":5,"program":48,"isDrum":false},{"pitch":66,"velocity":128,"startTime":133.82579700000002,"endTime":133.90188379166668,"instrument":5,"program":48,"isDrum":false},{"pitch":67,"velocity":100,"startTime":134.086666,"endTime":134.18449187500002,"instrument":5,"program":48,"isDrum":false},{"pitch":69,"velocity":116,"startTime":134.34753500000002,"endTime":134.42905656250002,"instrument":5,"program":48,"isDrum":false},{"pitch":70,"velocity":128,"startTime":134.86927300000002,"endTime":135.34753283333336,"instrument":5,"program":48,"isDrum":false},{"pitch":69,"velocity":116,"startTime":135.39101100000002,"endTime":135.65188,"instrument":5,"program":48,"isDrum":false},{"pitch":67,"velocity":100,"startTime":135.65188,"endTime":135.77144495833335,"instrument":5,"program":48,"isDrum":false},{"pitch":63,"velocity":128,"startTime":137.738832,"endTime":137.85839695833334,"instrument":5,"program":48,"isDrum":false},{"pitch":62,"velocity":116,"startTime":137.99970100000002,"endTime":138.1138311875,"instrument":5,"program":48,"isDrum":false},{"pitch":63,"velocity":128,"startTime":138.26057,"endTime":138.36383064583336,"instrument":5,"program":48,"isDrum":false},{"pitch":65,"velocity":116,"startTime":138.52143900000002,"endTime":138.65187350000002,"instrument":5,"program":48,"isDrum":false},{"pitch":67,"velocity":116,"startTime":139.04317700000001,"endTime":139.49969775000002,"instrument":5,"program":48,"isDrum":false},{"pitch":63,"velocity":128,"startTime":139.564915,"endTime":139.8420883125,"instrument":5,"program":48,"isDrum":false},{"pitch":62,"velocity":128,"startTime":139.825784,"endTime":139.97795758333336,"instrument":5,"program":48,"isDrum":false},{"pitch":67,"velocity":100,"startTime":141.91273600000002,"endTime":142.02143141666667,"instrument":5,"program":48,"isDrum":false},{"pitch":66,"velocity":128,"startTime":142.173605,"endTime":142.26599610416667,"instrument":5,"program":48,"isDrum":false},{"pitch":67,"velocity":100,"startTime":142.43447400000002,"endTime":142.54316941666667,"instrument":5,"program":48,"isDrum":false},{"pitch":69,"velocity":128,"startTime":142.695343,"endTime":142.78773410416667,"instrument":5,"program":48,"isDrum":false},{"pitch":70,"velocity":128,"startTime":143.217081,"endTime":143.67360175000002,"instrument":5,"program":48,"isDrum":false},{"pitch":69,"velocity":116,"startTime":143.738819,"endTime":144.01055754166666,"instrument":5,"program":48,"isDrum":false},{"pitch":67,"velocity":116,"startTime":143.99968800000002,"endTime":144.12468772916668,"instrument":5,"program":48,"isDrum":false},{"pitch":63,"velocity":128,"startTime":146.08664000000002,"endTime":146.20620495833336,"instrument":5,"program":48,"isDrum":false},{"pitch":62,"velocity":128,"startTime":146.347509,"endTime":146.46707395833334,"instrument":5,"program":48,"isDrum":false},{"pitch":63,"velocity":128,"startTime":146.60837800000002,"endTime":146.71163864583335,"instrument":5,"program":48,"isDrum":false},{"pitch":65,"velocity":128,"startTime":146.869247,"endTime":146.97794241666668,"instrument":5,"program":48,"isDrum":false},{"pitch":67,"velocity":116,"startTime":147.390985,"endTime":147.83120143750003,"instrument":5,"program":48,"isDrum":false},{"pitch":63,"velocity":128,"startTime":147.912723,"endTime":148.16272245833335,"instrument":5,"program":48,"isDrum":false},{"pitch":62,"velocity":128,"startTime":148.173592,"endTime":148.29315695833336,"instrument":5,"program":48,"isDrum":false},{"pitch":60,"velocity":66,"startTime":152.347496,"endTime":152.44532187500002,"instrument":5,"program":48,"isDrum":false},{"pitch":62,"velocity":68,"startTime":152.347496,"endTime":152.44532187500002,"instrument":5,"program":48,"isDrum":false},{"pitch":66,"velocity":116,"startTime":152.347496,"endTime":152.44532187500002,"instrument":5,"program":48,"isDrum":false},{"pitch":60,"velocity":85,"startTime":153.390972,"endTime":153.48879787500002,"instrument":5,"program":48,"isDrum":false},{"pitch":62,"velocity":85,"startTime":153.390972,"endTime":153.48879787500002,"instrument":5,"program":48,"isDrum":false},{"pitch":66,"velocity":116,"startTime":153.390972,"endTime":153.48879787500002,"instrument":5,"program":48,"isDrum":false},{"pitch":60,"velocity":76,"startTime":154.434448,"endTime":154.53227387500002,"instrument":5,"program":48,"isDrum":false},{"pitch":62,"velocity":85,"startTime":154.434448,"endTime":154.53227387500002,"instrument":5,"program":48,"isDrum":false},{"pitch":66,"velocity":128,"startTime":154.434448,"endTime":154.53227387500002,"instrument":5,"program":48,"isDrum":false},{"pitch":60,"velocity":76,"startTime":155.477924,"endTime":155.575749875,"instrument":5,"program":48,"isDrum":false},{"pitch":62,"velocity":85,"startTime":155.477924,"endTime":155.575749875,"instrument":5,"program":48,"isDrum":false},{"pitch":66,"velocity":116,"startTime":155.477924,"endTime":155.575749875,"instrument":5,"program":48,"isDrum":false},{"pitch":58,"velocity":68,"startTime":156.52140000000003,"endTime":156.619225875,"instrument":5,"program":48,"isDrum":false},{"pitch":62,"velocity":76,"startTime":156.52140000000003,"endTime":156.619225875,"instrument":5,"program":48,"isDrum":false},{"pitch":67,"velocity":66,"startTime":156.52140000000003,"endTime":156.619225875,"instrument":5,"program":48,"isDrum":false},{"pitch":58,"velocity":66,"startTime":157.56487600000003,"endTime":157.662701875,"instrument":5,"program":48,"isDrum":false},{"pitch":62,"velocity":76,"startTime":157.56487600000003,"endTime":157.662701875,"instrument":5,"program":48,"isDrum":false},{"pitch":67,"velocity":66,"startTime":157.56487600000003,"endTime":157.662701875,"instrument":5,"program":48,"isDrum":false},{"pitch":58,"velocity":66,"startTime":158.60835200000002,"endTime":158.706177875,"instrument":5,"program":48,"isDrum":false},{"pitch":62,"velocity":85,"startTime":158.60835200000002,"endTime":158.706177875,"instrument":5,"program":48,"isDrum":false},{"pitch":67,"velocity":68,"startTime":158.60835200000002,"endTime":158.706177875,"instrument":5,"program":48,"isDrum":false},{"pitch":58,"velocity":61,"startTime":159.65182800000002,"endTime":159.749653875,"instrument":5,"program":48,"isDrum":false},{"pitch":62,"velocity":76,"startTime":159.65182800000002,"endTime":159.749653875,"instrument":5,"program":48,"isDrum":false},{"pitch":67,"velocity":76,"startTime":159.65182800000002,"endTime":159.749653875,"instrument":5,"program":48,"isDrum":false},{"pitch":60,"velocity":76,"startTime":160.69530400000002,"endTime":160.793129875,"instrument":5,"program":48,"isDrum":false},{"pitch":62,"velocity":76,"startTime":160.69530400000002,"endTime":160.793129875,"instrument":5,"program":48,"isDrum":false},{"pitch":66,"velocity":128,"startTime":160.69530400000002,"endTime":160.793129875,"instrument":5,"program":48,"isDrum":false},{"pitch":60,"velocity":76,"startTime":161.73878000000002,"endTime":161.836605875,"instrument":5,"program":48,"isDrum":false},{"pitch":62,"velocity":76,"startTime":161.73878000000002,"endTime":161.836605875,"instrument":5,"program":48,"isDrum":false},{"pitch":66,"velocity":116,"startTime":161.73878000000002,"endTime":161.836605875,"instrument":5,"program":48,"isDrum":false},{"pitch":60,"velocity":85,"startTime":162.78225600000002,"endTime":162.880081875,"instrument":5,"program":48,"isDrum":false},{"pitch":62,"velocity":85,"startTime":162.78225600000002,"endTime":162.880081875,"instrument":5,"program":48,"isDrum":false},{"pitch":66,"velocity":128,"startTime":162.78225600000002,"endTime":162.880081875,"instrument":5,"program":48,"isDrum":false},{"pitch":60,"velocity":85,"startTime":163.82573200000002,"endTime":163.92355787500003,"instrument":5,"program":48,"isDrum":false},{"pitch":62,"velocity":85,"startTime":163.82573200000002,"endTime":163.92355787500003,"instrument":5,"program":48,"isDrum":false},{"pitch":66,"velocity":116,"startTime":163.82573200000002,"endTime":163.92355787500003,"instrument":5,"program":48,"isDrum":false},{"pitch":62,"velocity":100,"startTime":165.390946,"endTime":165.78768427083335,"instrument":5,"program":48,"isDrum":false},{"pitch":67,"velocity":100,"startTime":165.912684,"endTime":166.01050987500003,"instrument":5,"program":48,"isDrum":false},{"pitch":62,"velocity":76,"startTime":166.95616,"endTime":170.07571845833337,"instrument":5,"program":48,"isDrum":false},{"pitch":60,"velocity":68,"startTime":170.02137075000002,"endTime":171.06484675000002,"instrument":5,"program":48,"isDrum":false},{"pitch":66,"velocity":100,"startTime":170.03224029166668,"endTime":171.07028152083336,"instrument":5,"program":48,"isDrum":false},{"pitch":58,"velocity":66,"startTime":171.02136858333336,"endTime":173.61375427083337,"instrument":5,"program":48,"isDrum":false},{"pitch":67,"velocity":51,"startTime":171.02136858333336,"endTime":173.67353675,"instrument":5,"program":48,"isDrum":false},{"pitch":55,"velocity":85,"startTime":173.65723243750003,"endTime":174.19527475,"instrument":5,"program":48,"isDrum":false},{"pitch":67,"velocity":76,"startTime":174.18983997916666,"endTime":174.72244752083336,"instrument":5,"program":48,"isDrum":false},{"pitch":63,"velocity":100,"startTime":174.68440412500001,"endTime":175.20070735416667,"instrument":5,"program":48,"isDrum":false},{"pitch":62,"velocity":85,"startTime":175.22244643750003,"endTime":178.336570125,"instrument":5,"program":48,"isDrum":false},{"pitch":60,"velocity":76,"startTime":178.35287443750002,"endTime":179.45613291666666,"instrument":5,"program":48,"isDrum":false},{"pitch":66,"velocity":100,"startTime":178.35830920833337,"endTime":179.44526337500002,"instrument":5,"program":48,"isDrum":false},{"pitch":58,"velocity":61,"startTime":179.40721997916668,"endTime":181.57569354166668,"instrument":5,"program":48,"isDrum":false},{"pitch":67,"velocity":38,"startTime":179.41808952083335,"endTime":181.61917170833337,"instrument":5,"program":48,"isDrum":false},{"pitch":70,"velocity":128,"startTime":182.0050404375,"endTime":182.55395229166666,"instrument":5,"program":48,"isDrum":false},{"pitch":69,"velocity":76,"startTime":182.55395229166666,"endTime":183.0811250625,"instrument":5,"program":48,"isDrum":false},{"pitch":67,"velocity":76,"startTime":183.07569029166666,"endTime":183.57568920833336,"instrument":5,"program":48,"isDrum":false},{"pitch":72,"velocity":85,"startTime":183.5702544375,"endTime":185.93437975,"instrument":5,"program":48,"isDrum":false},{"pitch":74,"velocity":68,"startTime":185.93437975,"endTime":186.23329214583336,"instrument":5,"program":48,"isDrum":false},{"pitch":75,"velocity":100,"startTime":186.227857375,"endTime":186.47242206250002,"instrument":5,"program":48,"isDrum":false},{"pitch":74,"velocity":61,"startTime":186.46155252083335,"endTime":186.75503014583336,"instrument":5,"program":48,"isDrum":false},{"pitch":75,"velocity":85,"startTime":186.749595375,"endTime":187.271333375,"instrument":5,"program":48,"isDrum":false},{"pitch":77,"velocity":85,"startTime":187.24959429166668,"endTime":187.72241935416668,"instrument":5,"program":48,"isDrum":false},{"pitch":74,"velocity":61,"startTime":187.7441584375,"endTime":188.82567783333337,"instrument":5,"program":48,"isDrum":false},{"pitch":70,"velocity":85,"startTime":188.81480829166668,"endTime":190.11371852083337,"instrument":5,"program":48,"isDrum":false},{"pitch":73,"velocity":100,"startTime":190.10284897916668,"endTime":190.38545706250002,"instrument":5,"program":48,"isDrum":false},{"pitch":74,"velocity":85,"startTime":190.39089183333337,"endTime":190.65176083333336,"instrument":5,"program":48,"isDrum":false},{"pitch":73,"velocity":85,"startTime":190.65176083333336,"endTime":190.91806460416666,"instrument":5,"program":48,"isDrum":false},{"pitch":74,"velocity":68,"startTime":190.92893414583335,"endTime":191.45610691666667,"instrument":5,"program":48,"isDrum":false},{"pitch":75,"velocity":76,"startTime":191.445237375,"endTime":191.95610583333337,"instrument":5,"program":48,"isDrum":false},{"pitch":72,"velocity":76,"startTime":191.94523629166667,"endTime":193.01588614583335,"instrument":5,"program":48,"isDrum":false},{"pitch":69,"velocity":85,"startTime":193.010451375,"endTime":194.28762252083337,"instrument":5,"program":48,"isDrum":false},{"pitch":72,"velocity":85,"startTime":194.28762252083337,"endTime":194.60283922916668,"instrument":5,"program":48,"isDrum":false},{"pitch":70,"velocity":66,"startTime":194.55936106250002,"endTime":194.84740391666668,"instrument":5,"program":48,"isDrum":false},{"pitch":69,"velocity":76,"startTime":194.81479529166668,"endTime":195.09740337500003,"instrument":5,"program":48,"isDrum":false},{"pitch":67,"velocity":76,"startTime":195.09196860416668,"endTime":195.61914137500003,"instrument":5,"program":48,"isDrum":false},{"pitch":66,"velocity":85,"startTime":195.59740229166667,"endTime":196.09196643750002,"instrument":5,"program":48,"isDrum":false},{"pitch":67,"velocity":76,"startTime":196.11370552083335,"endTime":196.32566158333336,"instrument":5,"program":48,"isDrum":false},{"pitch":62,"velocity":116,"startTime":198.7332650625,"endTime":199.23869875000003,"instrument":5,"program":48,"isDrum":false},{"pitch":67,"velocity":76,"startTime":199.26587260416667,"endTime":199.43978527083337,"instrument":5,"program":48,"isDrum":false},{"pitch":62,"velocity":71,"startTime":33.391232,"endTime":36.440138437499996,"instrument":6,"program":49,"isDrum":false},{"pitch":60,"velocity":71,"startTime":36.46187752083334,"endTime":37.50535352083334,"instrument":6,"program":49,"isDrum":false},{"pitch":66,"velocity":80,"startTime":36.46731229166667,"endTime":37.461875354166665,"instrument":6,"program":49,"isDrum":false},{"pitch":58,"velocity":50,"startTime":37.4510058125,"endTime":40.037956729166666,"instrument":6,"program":49,"isDrum":false},{"pitch":67,"velocity":57,"startTime":37.4510058125,"endTime":40.05426104166666,"instrument":6,"program":49,"isDrum":false},{"pitch":55,"velocity":94,"startTime":40.07056535416666,"endTime":40.60317289583334,"instrument":6,"program":49,"isDrum":false},{"pitch":67,"velocity":80,"startTime":40.60317289583334,"endTime":41.14664997916667,"instrument":6,"program":49,"isDrum":false},{"pitch":63,"velocity":80,"startTime":41.1357804375,"endTime":41.65208366666667,"instrument":6,"program":49,"isDrum":false},{"pitch":62,"velocity":80,"startTime":41.6575184375,"endTime":44.80968552083334,"instrument":6,"program":49,"isDrum":false},{"pitch":60,"velocity":64,"startTime":44.80968552083334,"endTime":45.85316152083334,"instrument":6,"program":49,"isDrum":false},{"pitch":66,"velocity":94,"startTime":44.80968552083334,"endTime":45.85859629166667,"instrument":6,"program":49,"isDrum":false},{"pitch":67,"velocity":48,"startTime":45.80424858333333,"endTime":48.016200312500004,"instrument":6,"program":49,"isDrum":false},{"pitch":58,"velocity":57,"startTime":45.809683354166665,"endTime":47.98359168750001,"instrument":6,"program":49,"isDrum":false},{"pitch":70,"velocity":128,"startTime":48.43467766666667,"endTime":48.92924181250001,"instrument":6,"program":49,"isDrum":false},{"pitch":69,"velocity":94,"startTime":48.95098089583334,"endTime":49.50532752083333,"instrument":6,"program":49,"isDrum":false},{"pitch":67,"velocity":80,"startTime":49.49445797916667,"endTime":49.99445689583334,"instrument":6,"program":49,"isDrum":false},{"pitch":72,"velocity":80,"startTime":49.989022125000005,"endTime":52.342277895833334,"instrument":6,"program":49,"isDrum":false},{"pitch":74,"velocity":80,"startTime":52.364016979166664,"endTime":52.65205983333334,"instrument":6,"program":49,"isDrum":false},{"pitch":75,"velocity":80,"startTime":52.65749460416667,"endTime":52.90749406250001,"instrument":6,"program":49,"isDrum":false},{"pitch":74,"velocity":50,"startTime":52.90749406250001,"endTime":53.168363062500006,"instrument":6,"program":49,"isDrum":false},{"pitch":75,"velocity":80,"startTime":53.17379783333334,"endTime":53.690101062500005,"instrument":6,"program":49,"isDrum":false},{"pitch":77,"velocity":80,"startTime":53.67379675000001,"endTime":54.162926125,"instrument":6,"program":49,"isDrum":false},{"pitch":74,"velocity":62,"startTime":54.18466520833334,"endTime":55.260749833333335,"instrument":6,"program":49,"isDrum":false},{"pitch":70,"velocity":71,"startTime":55.24444552083334,"endTime":56.570529604166666,"instrument":6,"program":49,"isDrum":false},{"pitch":73,"velocity":94,"startTime":56.575964375,"endTime":56.8205290625,"instrument":6,"program":49,"isDrum":false},{"pitch":74,"velocity":71,"startTime":56.831398604166665,"endTime":57.092267604166665,"instrument":6,"program":49,"isDrum":false},{"pitch":73,"velocity":48,"startTime":57.070528520833335,"endTime":57.347701833333346,"instrument":6,"program":49,"isDrum":false},{"pitch":74,"velocity":57,"startTime":57.358571375,"endTime":57.8640050625,"instrument":6,"program":49,"isDrum":false},{"pitch":75,"velocity":80,"startTime":57.853135520833334,"endTime":58.358569208333336,"instrument":6,"program":49,"isDrum":false},{"pitch":72,"velocity":64,"startTime":58.3531344375,"endTime":59.423784291666664,"instrument":6,"program":49,"isDrum":false},{"pitch":69,"velocity":80,"startTime":59.423784291666664,"endTime":60.690085895833334,"instrument":6,"program":49,"isDrum":false},{"pitch":72,"velocity":71,"startTime":60.69552066666667,"endTime":61.00530260416667,"instrument":6,"program":49,"isDrum":false},{"pitch":70,"velocity":64,"startTime":60.97812875000001,"endTime":61.211823895833334,"instrument":6,"program":49,"isDrum":false},{"pitch":69,"velocity":71,"startTime":61.20095435416667,"endTime":61.488997208333345,"instrument":6,"program":49,"isDrum":false},{"pitch":67,"velocity":64,"startTime":61.49443197916666,"endTime":61.99986566666668,"instrument":6,"program":49,"isDrum":false},{"pitch":66,"velocity":71,"startTime":61.988996125000014,"endTime":62.516168895833346,"instrument":6,"program":49,"isDrum":false},{"pitch":67,"velocity":64,"startTime":62.52160366666668,"endTime":62.82595083333334,"instrument":6,"program":49,"isDrum":false},{"pitch":62,"velocity":80,"startTime":65.17377183333333,"endTime":65.51616239583333,"instrument":6,"program":49,"isDrum":false},{"pitch":67,"velocity":80,"startTime":65.72811845833334,"endTime":65.86398772916668,"instrument":6,"program":49,"isDrum":false},{"pitch":67,"velocity":64,"startTime":66.782464,"endTime":67.13028933333334,"instrument":6,"program":49,"isDrum":false},{"pitch":69,"velocity":64,"startTime":67.043333,"endTime":67.36941925,"instrument":6,"program":49,"isDrum":false},{"pitch":70,"velocity":57,"startTime":67.35311493750001,"endTime":68.08137422916668,"instrument":6,"program":49,"isDrum":false},{"pitch":67,"velocity":62,"startTime":68.08137422916668,"endTime":68.38028662500001,"instrument":6,"program":49,"isDrum":false},{"pitch":69,"velocity":64,"startTime":68.38028662500001,"endTime":68.5922426875,"instrument":6,"program":49,"isDrum":false},{"pitch":70,"velocity":48,"startTime":68.58137314583334,"endTime":68.836807375,"instrument":6,"program":49,"isDrum":false},{"pitch":69,"velocity":71,"startTime":68.84224214583334,"endTime":69.38571922916668,"instrument":6,"program":49,"isDrum":false},{"pitch":67,"velocity":71,"startTime":69.38028445833334,"endTime":69.54876235416668,"instrument":6,"program":49,"isDrum":false},{"pitch":67,"velocity":71,"startTime":83.44003660416668,"endTime":83.78242716666668,"instrument":6,"program":49,"isDrum":false},{"pitch":69,"velocity":64,"startTime":83.79329670833334,"endTime":84.07047002083334,"instrument":6,"program":49,"isDrum":false},{"pitch":70,"velocity":62,"startTime":84.07047002083334,"endTime":84.79329454166668,"instrument":6,"program":49,"isDrum":false},{"pitch":67,"velocity":64,"startTime":84.78785977083334,"endTime":85.0269896875,"instrument":6,"program":49,"isDrum":false},{"pitch":69,"velocity":71,"startTime":85.01612014583334,"endTime":85.21720666666668,"instrument":6,"program":49,"isDrum":false},{"pitch":70,"velocity":64,"startTime":85.206337125,"endTime":85.45633658333334,"instrument":6,"program":49,"isDrum":false},{"pitch":69,"velocity":71,"startTime":85.45633658333334,"endTime":86.02698752083334,"instrument":6,"program":49,"isDrum":false},{"pitch":67,"velocity":80,"startTime":86.01611797916668,"endTime":86.19003064583333,"instrument":6,"program":49,"isDrum":false},{"pitch":62,"velocity":64,"startTime":100.173696,"endTime":103.33129785416668,"instrument":6,"program":49,"isDrum":false},{"pitch":60,"velocity":53,"startTime":103.27695014583334,"endTime":104.30412183333334,"instrument":6,"program":49,"isDrum":false},{"pitch":66,"velocity":71,"startTime":103.27695014583334,"endTime":104.33129568750002,"instrument":6,"program":49,"isDrum":false},{"pitch":58,"velocity":50,"startTime":104.26607843750001,"endTime":106.8095511875,"instrument":6,"program":49,"isDrum":false},{"pitch":67,"velocity":34,"startTime":104.27151320833335,"endTime":106.83672504166668,"instrument":6,"program":49,"isDrum":false},{"pitch":55,"velocity":64,"startTime":106.85846412500001,"endTime":107.40737597916669,"instrument":6,"program":49,"isDrum":false},{"pitch":67,"velocity":57,"startTime":107.40737597916669,"endTime":107.95628783333333,"instrument":6,"program":49,"isDrum":false},{"pitch":63,"velocity":80,"startTime":107.91824443750001,"endTime":108.42367812500001,"instrument":6,"program":49,"isDrum":false},{"pitch":62,"velocity":71,"startTime":108.41824335416668,"endTime":111.55954089583334,"instrument":6,"program":49,"isDrum":false},{"pitch":60,"velocity":57,"startTime":111.57584520833333,"endTime":112.65736460416669,"instrument":6,"program":49,"isDrum":false},{"pitch":66,"velocity":71,"startTime":111.57584520833333,"endTime":112.65736460416669,"instrument":6,"program":49,"isDrum":false},{"pitch":58,"velocity":48,"startTime":112.59214735416668,"endTime":114.78779477083334,"instrument":6,"program":49,"isDrum":false},{"pitch":67,"velocity":46,"startTime":112.59214735416668,"endTime":114.83670770833334,"instrument":6,"program":49,"isDrum":false},{"pitch":70,"velocity":109,"startTime":115.23344597916669,"endTime":115.75518397916669,"instrument":6,"program":49,"isDrum":false},{"pitch":69,"velocity":94,"startTime":115.74974920833334,"endTime":116.28779152083334,"instrument":6,"program":49,"isDrum":false},{"pitch":67,"velocity":71,"startTime":116.27148720833334,"endTime":116.7877904375,"instrument":6,"program":49,"isDrum":false},{"pitch":72,"velocity":71,"startTime":116.76061658333334,"endTime":119.16822006250001,"instrument":6,"program":49,"isDrum":false},{"pitch":74,"velocity":64,"startTime":119.19539391666669,"endTime":119.59756695833335,"instrument":6,"program":49,"isDrum":false},{"pitch":75,"velocity":80,"startTime":119.58669741666668,"endTime":119.79865347916669,"instrument":6,"program":49,"isDrum":false},{"pitch":74,"velocity":53,"startTime":119.78234916666668,"endTime":119.97256614583334,"instrument":6,"program":49,"isDrum":false},{"pitch":75,"velocity":80,"startTime":119.95626183333334,"endTime":120.49973891666669,"instrument":6,"program":49,"isDrum":false},{"pitch":77,"velocity":71,"startTime":120.47256506250001,"endTime":120.96169443750001,"instrument":6,"program":49,"isDrum":false},{"pitch":74,"velocity":62,"startTime":120.98886829166668,"endTime":122.05951814583334,"instrument":6,"program":49,"isDrum":false},{"pitch":70,"velocity":71,"startTime":122.04864860416669,"endTime":123.33125452083334,"instrument":6,"program":49,"isDrum":false},{"pitch":73,"velocity":94,"startTime":123.32581975000001,"endTime":123.60842783333334,"instrument":6,"program":49,"isDrum":false},{"pitch":74,"velocity":64,"startTime":123.61386260416668,"endTime":123.86929683333334,"instrument":6,"program":49,"isDrum":false},{"pitch":73,"velocity":62,"startTime":123.84755775,"endTime":124.10299197916669,"instrument":6,"program":49,"isDrum":false},{"pitch":74,"velocity":57,"startTime":124.11386152083334,"endTime":124.63559952083334,"instrument":6,"program":49,"isDrum":false},{"pitch":75,"velocity":80,"startTime":124.62472997916669,"endTime":125.13016366666669,"instrument":6,"program":49,"isDrum":false},{"pitch":72,"velocity":64,"startTime":125.13016366666669,"endTime":126.2062482916667,"instrument":6,"program":49,"isDrum":false},{"pitch":69,"velocity":71,"startTime":126.21168306250001,"endTime":127.48885420833335,"instrument":6,"program":49,"isDrum":false},{"pitch":72,"velocity":71,"startTime":127.4942889791667,"endTime":127.80407091666669,"instrument":6,"program":49,"isDrum":false},{"pitch":70,"velocity":71,"startTime":127.78776660416668,"endTime":128.054070375,"instrument":6,"program":49,"isDrum":false},{"pitch":69,"velocity":80,"startTime":128.02146175000001,"endTime":128.2932002916667,"instrument":6,"program":49,"isDrum":false},{"pitch":67,"velocity":71,"startTime":128.2932002916667,"endTime":128.80950352083335,"instrument":6,"program":49,"isDrum":false},{"pitch":66,"velocity":80,"startTime":128.78776443750002,"endTime":129.24971995833334,"instrument":6,"program":49,"isDrum":false},{"pitch":67,"velocity":71,"startTime":129.28776335416669,"endTime":129.5051541875,"instrument":6,"program":49,"isDrum":false},{"pitch":62,"velocity":80,"startTime":131.9834096875,"endTime":132.41275658333336,"instrument":6,"program":49,"isDrum":false},{"pitch":67,"velocity":71,"startTime":132.45623475000002,"endTime":132.61927787500002,"instrument":6,"program":49,"isDrum":false},{"pitch":67,"velocity":94,"startTime":133.564928,"endTime":133.6464495625,"instrument":6,"program":49,"isDrum":false},{"pitch":66,"velocity":128,"startTime":133.82579700000002,"endTime":133.90188379166668,"instrument":6,"program":49,"isDrum":false},{"pitch":67,"velocity":94,"startTime":134.086666,"endTime":134.18449187500002,"instrument":6,"program":49,"isDrum":false},{"pitch":69,"velocity":109,"startTime":134.34753500000002,"endTime":134.42905656250002,"instrument":6,"program":49,"isDrum":false},{"pitch":70,"velocity":128,"startTime":134.86927300000002,"endTime":135.34753283333336,"instrument":6,"program":49,"isDrum":false},{"pitch":69,"velocity":109,"startTime":135.39101100000002,"endTime":135.65188,"instrument":6,"program":49,"isDrum":false},{"pitch":67,"velocity":94,"startTime":135.65188,"endTime":135.77144495833335,"instrument":6,"program":49,"isDrum":false},{"pitch":63,"velocity":128,"startTime":137.738832,"endTime":137.85839695833334,"instrument":6,"program":49,"isDrum":false},{"pitch":62,"velocity":109,"startTime":137.99970100000002,"endTime":138.1138311875,"instrument":6,"program":49,"isDrum":false},{"pitch":63,"velocity":128,"startTime":138.26057,"endTime":138.36383064583336,"instrument":6,"program":49,"isDrum":false},{"pitch":65,"velocity":109,"startTime":138.52143900000002,"endTime":138.65187350000002,"instrument":6,"program":49,"isDrum":false},{"pitch":67,"velocity":109,"startTime":139.04317700000001,"endTime":139.49969775000002,"instrument":6,"program":49,"isDrum":false},{"pitch":63,"velocity":128,"startTime":139.564915,"endTime":139.8420883125,"instrument":6,"program":49,"isDrum":false},{"pitch":62,"velocity":128,"startTime":139.825784,"endTime":139.97795758333336,"instrument":6,"program":49,"isDrum":false},{"pitch":67,"velocity":94,"startTime":141.91273600000002,"endTime":142.02143141666667,"instrument":6,"program":49,"isDrum":false},{"pitch":66,"velocity":128,"startTime":142.173605,"endTime":142.26599610416667,"instrument":6,"program":49,"isDrum":false},{"pitch":67,"velocity":94,"startTime":142.43447400000002,"endTime":142.54316941666667,"instrument":6,"program":49,"isDrum":false},{"pitch":69,"velocity":128,"startTime":142.695343,"endTime":142.78773410416667,"instrument":6,"program":49,"isDrum":false},{"pitch":70,"velocity":128,"startTime":143.217081,"endTime":143.67360175000002,"instrument":6,"program":49,"isDrum":false},{"pitch":69,"velocity":109,"startTime":143.738819,"endTime":144.01055754166666,"instrument":6,"program":49,"isDrum":false},{"pitch":67,"velocity":109,"startTime":143.99968800000002,"endTime":144.12468772916668,"instrument":6,"program":49,"isDrum":false},{"pitch":63,"velocity":128,"startTime":146.08664000000002,"endTime":146.20620495833336,"instrument":6,"program":49,"isDrum":false},{"pitch":62,"velocity":128,"startTime":146.347509,"endTime":146.46707395833334,"instrument":6,"program":49,"isDrum":false},{"pitch":63,"velocity":128,"startTime":146.60837800000002,"endTime":146.71163864583335,"instrument":6,"program":49,"isDrum":false},{"pitch":65,"velocity":128,"startTime":146.869247,"endTime":146.97794241666668,"instrument":6,"program":49,"isDrum":false},{"pitch":67,"velocity":109,"startTime":147.390985,"endTime":147.83120143750003,"instrument":6,"program":49,"isDrum":false},{"pitch":63,"velocity":128,"startTime":147.912723,"endTime":148.16272245833335,"instrument":6,"program":49,"isDrum":false},{"pitch":62,"velocity":128,"startTime":148.173592,"endTime":148.29315695833336,"instrument":6,"program":49,"isDrum":false},{"pitch":60,"velocity":62,"startTime":152.347496,"endTime":152.44532187500002,"instrument":6,"program":49,"isDrum":false},{"pitch":62,"velocity":64,"startTime":152.347496,"endTime":152.44532187500002,"instrument":6,"program":49,"isDrum":false},{"pitch":66,"velocity":109,"startTime":152.347496,"endTime":152.44532187500002,"instrument":6,"program":49,"isDrum":false},{"pitch":60,"velocity":80,"startTime":153.390972,"endTime":153.48879787500002,"instrument":6,"program":49,"isDrum":false},{"pitch":62,"velocity":80,"startTime":153.390972,"endTime":153.48879787500002,"instrument":6,"program":49,"isDrum":false},{"pitch":66,"velocity":109,"startTime":153.390972,"endTime":153.48879787500002,"instrument":6,"program":49,"isDrum":false},{"pitch":60,"velocity":71,"startTime":154.434448,"endTime":154.53227387500002,"instrument":6,"program":49,"isDrum":false},{"pitch":62,"velocity":80,"startTime":154.434448,"endTime":154.53227387500002,"instrument":6,"program":49,"isDrum":false},{"pitch":66,"velocity":128,"startTime":154.434448,"endTime":154.53227387500002,"instrument":6,"program":49,"isDrum":false},{"pitch":60,"velocity":71,"startTime":155.477924,"endTime":155.575749875,"instrument":6,"program":49,"isDrum":false},{"pitch":62,"velocity":80,"startTime":155.477924,"endTime":155.575749875,"instrument":6,"program":49,"isDrum":false},{"pitch":66,"velocity":109,"startTime":155.477924,"endTime":155.575749875,"instrument":6,"program":49,"isDrum":false},{"pitch":58,"velocity":64,"startTime":156.52140000000003,"endTime":156.619225875,"instrument":6,"program":49,"isDrum":false},{"pitch":62,"velocity":71,"startTime":156.52140000000003,"endTime":156.619225875,"instrument":6,"program":49,"isDrum":false},{"pitch":67,"velocity":62,"startTime":156.52140000000003,"endTime":156.619225875,"instrument":6,"program":49,"isDrum":false},{"pitch":58,"velocity":62,"startTime":157.56487600000003,"endTime":157.662701875,"instrument":6,"program":49,"isDrum":false},{"pitch":62,"velocity":71,"startTime":157.56487600000003,"endTime":157.662701875,"instrument":6,"program":49,"isDrum":false},{"pitch":67,"velocity":62,"startTime":157.56487600000003,"endTime":157.662701875,"instrument":6,"program":49,"isDrum":false},{"pitch":58,"velocity":62,"startTime":158.60835200000002,"endTime":158.706177875,"instrument":6,"program":49,"isDrum":false},{"pitch":62,"velocity":80,"startTime":158.60835200000002,"endTime":158.706177875,"instrument":6,"program":49,"isDrum":false},{"pitch":67,"velocity":64,"startTime":158.60835200000002,"endTime":158.706177875,"instrument":6,"program":49,"isDrum":false},{"pitch":58,"velocity":57,"startTime":159.65182800000002,"endTime":159.749653875,"instrument":6,"program":49,"isDrum":false},{"pitch":62,"velocity":71,"startTime":159.65182800000002,"endTime":159.749653875,"instrument":6,"program":49,"isDrum":false},{"pitch":67,"velocity":71,"startTime":159.65182800000002,"endTime":159.749653875,"instrument":6,"program":49,"isDrum":false},{"pitch":60,"velocity":71,"startTime":160.69530400000002,"endTime":160.793129875,"instrument":6,"program":49,"isDrum":false},{"pitch":62,"velocity":71,"startTime":160.69530400000002,"endTime":160.793129875,"instrument":6,"program":49,"isDrum":false},{"pitch":66,"velocity":128,"startTime":160.69530400000002,"endTime":160.793129875,"instrument":6,"program":49,"isDrum":false},{"pitch":60,"velocity":71,"startTime":161.73878000000002,"endTime":161.836605875,"instrument":6,"program":49,"isDrum":false},{"pitch":62,"velocity":71,"startTime":161.73878000000002,"endTime":161.836605875,"instrument":6,"program":49,"isDrum":false},{"pitch":66,"velocity":109,"startTime":161.73878000000002,"endTime":161.836605875,"instrument":6,"program":49,"isDrum":false},{"pitch":60,"velocity":80,"startTime":162.78225600000002,"endTime":162.880081875,"instrument":6,"program":49,"isDrum":false},{"pitch":62,"velocity":80,"startTime":162.78225600000002,"endTime":162.880081875,"instrument":6,"program":49,"isDrum":false},{"pitch":66,"velocity":128,"startTime":162.78225600000002,"endTime":162.880081875,"instrument":6,"program":49,"isDrum":false},{"pitch":60,"velocity":80,"startTime":163.82573200000002,"endTime":163.92355787500003,"instrument":6,"program":49,"isDrum":false},{"pitch":62,"velocity":80,"startTime":163.82573200000002,"endTime":163.92355787500003,"instrument":6,"program":49,"isDrum":false},{"pitch":66,"velocity":109,"startTime":163.82573200000002,"endTime":163.92355787500003,"instrument":6,"program":49,"isDrum":false},{"pitch":62,"velocity":94,"startTime":165.390946,"endTime":165.78768427083335,"instrument":6,"program":49,"isDrum":false},{"pitch":67,"velocity":94,"startTime":165.912684,"endTime":166.01050987500003,"instrument":6,"program":49,"isDrum":false},{"pitch":62,"velocity":71,"startTime":166.95616,"endTime":170.07571845833337,"instrument":6,"program":49,"isDrum":false},{"pitch":60,"velocity":64,"startTime":170.02137075000002,"endTime":171.06484675000002,"instrument":6,"program":49,"isDrum":false},{"pitch":66,"velocity":94,"startTime":170.03224029166668,"endTime":171.07028152083336,"instrument":6,"program":49,"isDrum":false},{"pitch":58,"velocity":62,"startTime":171.02136858333336,"endTime":173.61375427083337,"instrument":6,"program":49,"isDrum":false},{"pitch":67,"velocity":48,"startTime":171.02136858333336,"endTime":173.67353675,"instrument":6,"program":49,"isDrum":false},{"pitch":55,"velocity":80,"startTime":173.65723243750003,"endTime":174.19527475,"instrument":6,"program":49,"isDrum":false},{"pitch":67,"velocity":71,"startTime":174.18983997916666,"endTime":174.72244752083336,"instrument":6,"program":49,"isDrum":false},{"pitch":63,"velocity":94,"startTime":174.68440412500001,"endTime":175.20070735416667,"instrument":6,"program":49,"isDrum":false},{"pitch":62,"velocity":80,"startTime":175.22244643750003,"endTime":178.336570125,"instrument":6,"program":49,"isDrum":false},{"pitch":60,"velocity":71,"startTime":178.35287443750002,"endTime":179.45613291666666,"instrument":6,"program":49,"isDrum":false},{"pitch":66,"velocity":94,"startTime":178.35830920833337,"endTime":179.44526337500002,"instrument":6,"program":49,"isDrum":false},{"pitch":58,"velocity":57,"startTime":179.40721997916668,"endTime":181.57569354166668,"instrument":6,"program":49,"isDrum":false},{"pitch":67,"velocity":36,"startTime":179.41808952083335,"endTime":181.61917170833337,"instrument":6,"program":49,"isDrum":false},{"pitch":70,"velocity":128,"startTime":182.0050404375,"endTime":182.55395229166666,"instrument":6,"program":49,"isDrum":false},{"pitch":69,"velocity":71,"startTime":182.55395229166666,"endTime":183.0811250625,"instrument":6,"program":49,"isDrum":false},{"pitch":67,"velocity":71,"startTime":183.07569029166666,"endTime":183.57568920833336,"instrument":6,"program":49,"isDrum":false},{"pitch":72,"velocity":80,"startTime":183.5702544375,"endTime":185.93437975,"instrument":6,"program":49,"isDrum":false},{"pitch":74,"velocity":64,"startTime":185.93437975,"endTime":186.23329214583336,"instrument":6,"program":49,"isDrum":false},{"pitch":75,"velocity":94,"startTime":186.227857375,"endTime":186.47242206250002,"instrument":6,"program":49,"isDrum":false},{"pitch":74,"velocity":57,"startTime":186.46155252083335,"endTime":186.75503014583336,"instrument":6,"program":49,"isDrum":false},{"pitch":75,"velocity":80,"startTime":186.749595375,"endTime":187.271333375,"instrument":6,"program":49,"isDrum":false},{"pitch":77,"velocity":80,"startTime":187.24959429166668,"endTime":187.72241935416668,"instrument":6,"program":49,"isDrum":false},{"pitch":74,"velocity":57,"startTime":187.7441584375,"endTime":188.82567783333337,"instrument":6,"program":49,"isDrum":false},{"pitch":70,"velocity":80,"startTime":188.81480829166668,"endTime":190.11371852083337,"instrument":6,"program":49,"isDrum":false},{"pitch":73,"velocity":94,"startTime":190.10284897916668,"endTime":190.38545706250002,"instrument":6,"program":49,"isDrum":false},{"pitch":74,"velocity":80,"startTime":190.39089183333337,"endTime":190.65176083333336,"instrument":6,"program":49,"isDrum":false},{"pitch":73,"velocity":80,"startTime":190.65176083333336,"endTime":190.91806460416666,"instrument":6,"program":49,"isDrum":false},{"pitch":74,"velocity":64,"startTime":190.92893414583335,"endTime":191.45610691666667,"instrument":6,"program":49,"isDrum":false},{"pitch":75,"velocity":71,"startTime":191.445237375,"endTime":191.95610583333337,"instrument":6,"program":49,"isDrum":false},{"pitch":72,"velocity":71,"startTime":191.94523629166667,"endTime":193.01588614583335,"instrument":6,"program":49,"isDrum":false},{"pitch":69,"velocity":80,"startTime":193.010451375,"endTime":194.28762252083337,"instrument":6,"program":49,"isDrum":false},{"pitch":72,"velocity":80,"startTime":194.28762252083337,"endTime":194.60283922916668,"instrument":6,"program":49,"isDrum":false},{"pitch":70,"velocity":62,"startTime":194.55936106250002,"endTime":194.84740391666668,"instrument":6,"program":49,"isDrum":false},{"pitch":69,"velocity":71,"startTime":194.81479529166668,"endTime":195.09740337500003,"instrument":6,"program":49,"isDrum":false},{"pitch":67,"velocity":71,"startTime":195.09196860416668,"endTime":195.61914137500003,"instrument":6,"program":49,"isDrum":false},{"pitch":66,"velocity":80,"startTime":195.59740229166667,"endTime":196.09196643750002,"instrument":6,"program":49,"isDrum":false},{"pitch":67,"velocity":71,"startTime":196.11370552083335,"endTime":196.32566158333336,"instrument":6,"program":49,"isDrum":false},{"pitch":62,"velocity":109,"startTime":198.7332650625,"endTime":199.23869875000003,"instrument":6,"program":49,"isDrum":false},{"pitch":67,"velocity":71,"startTime":199.26587260416667,"endTime":199.43978527083337,"instrument":6,"program":49,"isDrum":false},{"pitch":72,"velocity":75,"startTime":0.48369460416666676,"endTime":0.5652161666666666,"instrument":7,"program":21,"isDrum":false},{"pitch":62,"velocity":75,"startTime":0.4945641458333334,"endTime":0.5652161666666666,"instrument":7,"program":21,"isDrum":false},{"pitch":69,"velocity":75,"startTime":0.9891282916666664,"endTime":1.0706498541666667,"instrument":7,"program":21,"isDrum":false},{"pitch":62,"velocity":75,"startTime":0.9999978333333335,"endTime":1.0597803125,"instrument":7,"program":21,"isDrum":false},{"pitch":66,"velocity":110,"startTime":1.5271706041666668,"endTime":1.5923878541666667,"instrument":7,"program":21,"isDrum":false},{"pitch":62,"velocity":75,"startTime":1.5326053750000002,"endTime":1.5869530833333334,"instrument":7,"program":21,"isDrum":false},{"pitch":62,"velocity":99,"startTime":2.304342833333333,"endTime":2.5652118333333336,"instrument":7,"program":21,"isDrum":false},{"pitch":63,"velocity":84,"startTime":2.5760813750000002,"endTime":2.8152112916666674,"instrument":7,"program":21,"isDrum":false},{"pitch":62,"velocity":75,"startTime":2.8206460625,"endTime":3.0869498333333336,"instrument":7,"program":21,"isDrum":false},{"pitch":61,"velocity":99,"startTime":3.0869498333333336,"endTime":3.5760792083333337,"instrument":7,"program":21,"isDrum":false},{"pitch":62,"velocity":84,"startTime":3.6195573750000003,"endTime":3.728252791666667,"instrument":7,"program":21,"isDrum":false},{"pitch":62,"velocity":84,"startTime":4.141295375,"endTime":4.2282517083333335,"instrument":7,"program":21,"isDrum":false},{"pitch":74,"velocity":65,"startTime":4.635859520833334,"endTime":4.717381083333334,"instrument":7,"program":21,"isDrum":false},{"pitch":62,"velocity":67,"startTime":4.6467290625,"endTime":4.717381083333334,"instrument":7,"program":21,"isDrum":false},{"pitch":70,"velocity":110,"startTime":5.2010756875,"endTime":5.28259725,"instrument":7,"program":21,"isDrum":false},{"pitch":62,"velocity":84,"startTime":5.211945229166667,"endTime":5.288032020833334,"instrument":7,"program":21,"isDrum":false},{"pitch":67,"velocity":84,"startTime":5.706509375,"endTime":5.777161395833334,"instrument":7,"program":21,"isDrum":false},{"pitch":62,"velocity":75,"startTime":5.711944145833334,"endTime":5.782596166666667,"instrument":7,"program":21,"isDrum":false},{"pitch":62,"velocity":84,"startTime":6.489116375,"endTime":6.744550604166667,"instrument":7,"program":21,"isDrum":false},{"pitch":63,"velocity":99,"startTime":6.749985375,"endTime":6.945637125000001,"instrument":7,"program":21,"isDrum":false},{"pitch":62,"velocity":67,"startTime":6.9619414375,"endTime":7.260853833333334,"instrument":7,"program":21,"isDrum":false},{"pitch":61,"velocity":84,"startTime":7.260853833333334,"endTime":7.755417979166667,"instrument":7,"program":21,"isDrum":false},{"pitch":62,"velocity":75,"startTime":7.782591833333335,"endTime":7.896722020833334,"instrument":7,"program":21,"isDrum":false},{"pitch":62,"velocity":99,"startTime":8.315199375,"endTime":8.402155708333334,"instrument":7,"program":21,"isDrum":false},{"pitch":72,"velocity":75,"startTime":8.831502604166667,"endTime":8.9184589375,"instrument":7,"program":21,"isDrum":false},{"pitch":62,"velocity":75,"startTime":8.842372145833334,"endTime":8.9184589375,"instrument":7,"program":21,"isDrum":false},{"pitch":69,"velocity":75,"startTime":9.3749796875,"endTime":9.451066479166666,"instrument":7,"program":21,"isDrum":false},{"pitch":62,"velocity":75,"startTime":9.380414458333334,"endTime":9.445631708333334,"instrument":7,"program":21,"isDrum":false},{"pitch":66,"velocity":110,"startTime":9.913022000000002,"endTime":9.972804479166667,"instrument":7,"program":21,"isDrum":false},{"pitch":62,"velocity":75,"startTime":9.923891541666666,"endTime":9.983674020833334,"instrument":7,"program":21,"isDrum":false},{"pitch":62,"velocity":99,"startTime":10.673889916666667,"endTime":10.913019833333335,"instrument":7,"program":21,"isDrum":false},{"pitch":63,"velocity":99,"startTime":10.913019833333335,"endTime":11.1358454375,"instrument":7,"program":21,"isDrum":false},{"pitch":62,"velocity":75,"startTime":11.152149750000001,"endTime":11.423888291666668,"instrument":7,"program":21,"isDrum":false},{"pitch":61,"velocity":84,"startTime":11.440192604166667,"endTime":11.913017666666667,"instrument":7,"program":21,"isDrum":false},{"pitch":62,"velocity":75,"startTime":11.940191520833334,"endTime":12.076060791666666,"instrument":7,"program":21,"isDrum":false},{"pitch":62,"velocity":99,"startTime":12.461929520833335,"endTime":12.554320625,"instrument":7,"program":21,"isDrum":false},{"pitch":74,"velocity":65,"startTime":12.989102291666667,"endTime":13.076058625000002,"instrument":7,"program":21,"isDrum":false},{"pitch":62,"velocity":60,"startTime":13.010841375,"endTime":13.086928166666667,"instrument":7,"program":21,"isDrum":false},{"pitch":70,"velocity":110,"startTime":13.527144604166667,"endTime":13.614100937500002,"instrument":7,"program":21,"isDrum":false},{"pitch":62,"velocity":65,"startTime":13.538014145833335,"endTime":13.608666166666668,"instrument":7,"program":21,"isDrum":false},{"pitch":62,"velocity":75,"startTime":14.043447833333335,"endTime":14.119534625,"instrument":7,"program":21,"isDrum":false},{"pitch":67,"velocity":99,"startTime":14.043447833333335,"endTime":14.124969395833336,"instrument":7,"program":21,"isDrum":false},{"pitch":75,"velocity":110,"startTime":14.706489875000003,"endTime":14.798880979166668,"instrument":7,"program":21,"isDrum":false},{"pitch":74,"velocity":75,"startTime":14.842359145833335,"endTime":14.9184459375,"instrument":7,"program":21,"isDrum":false},{"pitch":73,"velocity":110,"startTime":14.956489333333334,"endTime":15.04344566666667,"instrument":7,"program":21,"isDrum":false},{"pitch":72,"velocity":84,"startTime":15.086923833333334,"endTime":15.163010625000002,"instrument":7,"program":21,"isDrum":false},{"pitch":71,"velocity":46,"startTime":15.206488791666668,"endTime":15.282575583333333,"instrument":7,"program":21,"isDrum":false},{"pitch":70,"velocity":110,"startTime":15.331488520833332,"endTime":15.413010083333333,"instrument":7,"program":21,"isDrum":false},{"pitch":69,"velocity":65,"startTime":15.45648825,"endTime":15.543444583333333,"instrument":7,"program":21,"isDrum":false},{"pitch":68,"velocity":110,"startTime":15.592357520833332,"endTime":15.69561816666667,"instrument":7,"program":21,"isDrum":false},{"pitch":67,"velocity":67,"startTime":15.722792020833332,"endTime":15.793444041666667,"instrument":7,"program":21,"isDrum":false},{"pitch":66,"velocity":110,"startTime":15.84235697916667,"endTime":15.934748083333332,"instrument":7,"program":21,"isDrum":false},{"pitch":65,"velocity":75,"startTime":15.978226250000002,"endTime":16.065182583333332,"instrument":7,"program":21,"isDrum":false},{"pitch":64,"velocity":60,"startTime":16.108660750000002,"endTime":16.190182312500003,"instrument":7,"program":21,"isDrum":false},{"pitch":63,"velocity":110,"startTime":16.23366047916667,"endTime":16.331486354166667,"instrument":7,"program":21,"isDrum":false},{"pitch":62,"velocity":60,"startTime":16.36409497916667,"endTime":16.44561654166667,"instrument":7,"program":21,"isDrum":false},{"pitch":61,"velocity":110,"startTime":16.49452947916667,"endTime":16.59235535416667,"instrument":7,"program":21,"isDrum":false},{"pitch":60,"velocity":75,"startTime":16.652137833333335,"endTime":16.749963708333333,"instrument":7,"program":21,"isDrum":false},{"pitch":67,"velocity":84,"startTime":17.16300629166667,"endTime":17.24452785416667,"instrument":7,"program":21,"isDrum":false},{"pitch":60,"velocity":67,"startTime":17.173875833333334,"endTime":17.239093083333334,"instrument":7,"program":21,"isDrum":false},{"pitch":66,"velocity":110,"startTime":17.695613833333333,"endTime":17.760831083333333,"instrument":7,"program":21,"isDrum":false},{"pitch":60,"velocity":67,"startTime":17.70104860416667,"endTime":17.777135395833334,"instrument":7,"program":21,"isDrum":false},{"pitch":60,"velocity":84,"startTime":18.2119170625,"endTime":18.288003854166668,"instrument":7,"program":21,"isDrum":false},{"pitch":67,"velocity":75,"startTime":18.2119170625,"endTime":18.282569083333332,"instrument":7,"program":21,"isDrum":false},{"pitch":60,"velocity":75,"startTime":19.021697916666668,"endTime":19.086915166666667,"instrument":7,"program":21,"isDrum":false},{"pitch":67,"velocity":75,"startTime":19.021697916666668,"endTime":19.097784708333332,"instrument":7,"program":21,"isDrum":false},{"pitch":67,"velocity":67,"startTime":19.24995829166667,"endTime":19.336914625000002,"instrument":7,"program":21,"isDrum":false},{"pitch":60,"velocity":67,"startTime":19.26626260416667,"endTime":19.336914625000002,"instrument":7,"program":21,"isDrum":false},{"pitch":66,"velocity":110,"startTime":19.521696833333333,"endTime":19.614087937500003,"instrument":7,"program":21,"isDrum":false},{"pitch":60,"velocity":53,"startTime":19.54343591666667,"endTime":19.603218395833334,"instrument":7,"program":21,"isDrum":false},{"pitch":60,"velocity":65,"startTime":19.793435375,"endTime":19.874956937500002,"instrument":7,"program":21,"isDrum":false},{"pitch":67,"velocity":75,"startTime":19.793435375,"endTime":19.874956937500002,"instrument":7,"program":21,"isDrum":false},{"pitch":66,"velocity":99,"startTime":20.043434833333333,"endTime":20.141260708333334,"instrument":7,"program":21,"isDrum":false},{"pitch":60,"velocity":47,"startTime":20.070608687500002,"endTime":20.1358259375,"instrument":7,"program":21,"isDrum":false},{"pitch":60,"velocity":65,"startTime":20.304303833333332,"endTime":20.402129708333334,"instrument":7,"program":21,"isDrum":false},{"pitch":67,"velocity":84,"startTime":20.309738604166668,"endTime":20.402129708333334,"instrument":7,"program":21,"isDrum":false},{"pitch":66,"velocity":110,"startTime":20.559738062500003,"endTime":20.662998708333333,"instrument":7,"program":21,"isDrum":false},{"pitch":60,"velocity":60,"startTime":20.576042375,"endTime":20.6575639375,"instrument":7,"program":21,"isDrum":false},{"pitch":58,"velocity":99,"startTime":20.847780916666668,"endTime":20.940172020833334,"instrument":7,"program":21,"isDrum":false},{"pitch":58,"velocity":75,"startTime":21.391258,"endTime":21.46734479166667,"instrument":7,"program":21,"isDrum":false},{"pitch":67,"velocity":84,"startTime":21.391258,"endTime":21.478214333333334,"instrument":7,"program":21,"isDrum":false},{"pitch":58,"velocity":60,"startTime":21.912996000000003,"endTime":21.9945175625,"instrument":7,"program":21,"isDrum":false},{"pitch":66,"velocity":84,"startTime":21.912996000000003,"endTime":21.999952333333333,"instrument":7,"program":21,"isDrum":false},{"pitch":58,"velocity":65,"startTime":22.434734000000002,"endTime":22.505386020833335,"instrument":7,"program":21,"isDrum":false},{"pitch":67,"velocity":75,"startTime":22.434734000000002,"endTime":22.521690333333332,"instrument":7,"program":21,"isDrum":false},{"pitch":66,"velocity":110,"startTime":23.2010366875,"endTime":23.287993020833333,"instrument":7,"program":21,"isDrum":false},{"pitch":58,"velocity":75,"startTime":23.21190622916667,"endTime":23.271688708333333,"instrument":7,"program":21,"isDrum":false},{"pitch":67,"velocity":75,"startTime":23.44016660416667,"endTime":23.537992479166668,"instrument":7,"program":21,"isDrum":false},{"pitch":58,"velocity":75,"startTime":23.451036145833335,"endTime":23.52168816666667,"instrument":7,"program":21,"isDrum":false},{"pitch":66,"velocity":110,"startTime":23.70103560416667,"endTime":23.793426708333335,"instrument":7,"program":21,"isDrum":false},{"pitch":58,"velocity":60,"startTime":23.71733991666667,"endTime":23.78255716666667,"instrument":7,"program":21,"isDrum":false},{"pitch":58,"velocity":60,"startTime":23.956469833333333,"endTime":24.037991395833334,"instrument":7,"program":21,"isDrum":false},{"pitch":67,"velocity":67,"startTime":23.956469833333333,"endTime":24.05973047916667,"instrument":7,"program":21,"isDrum":false},{"pitch":66,"velocity":110,"startTime":24.217338833333333,"endTime":24.315164708333334,"instrument":7,"program":21,"isDrum":false},{"pitch":58,"velocity":67,"startTime":24.228208375,"endTime":24.293425625,"instrument":7,"program":21,"isDrum":false},{"pitch":58,"velocity":65,"startTime":24.46733829166667,"endTime":24.543425083333332,"instrument":7,"program":21,"isDrum":false},{"pitch":67,"velocity":67,"startTime":24.46733829166667,"endTime":24.559729395833333,"instrument":7,"program":21,"isDrum":false},{"pitch":66,"velocity":110,"startTime":24.706468208333334,"endTime":24.804294083333335,"instrument":7,"program":21,"isDrum":false},{"pitch":58,"velocity":53,"startTime":24.722772520833335,"endTime":24.787989770833335,"instrument":7,"program":21,"isDrum":false},{"pitch":57,"velocity":75,"startTime":25.00538060416667,"endTime":25.10320647916667,"instrument":7,"program":21,"isDrum":false},{"pitch":57,"velocity":75,"startTime":25.532553375000003,"endTime":25.614074937500003,"instrument":7,"program":21,"isDrum":false},{"pitch":62,"velocity":84,"startTime":25.532553375000003,"endTime":25.619509708333332,"instrument":7,"program":21,"isDrum":false},{"pitch":60,"velocity":84,"startTime":26.054291375000002,"endTime":26.152117250000003,"instrument":7,"program":21,"isDrum":false},{"pitch":57,"velocity":65,"startTime":26.059726145833334,"endTime":26.152117250000003,"instrument":7,"program":21,"isDrum":false},{"pitch":62,"velocity":99,"startTime":26.55429029166667,"endTime":26.641246625,"instrument":7,"program":21,"isDrum":false},{"pitch":57,"velocity":75,"startTime":26.5597250625,"endTime":26.641246625,"instrument":7,"program":21,"isDrum":false},{"pitch":60,"velocity":84,"startTime":27.32602775,"endTime":27.771678958333332,"instrument":7,"program":21,"isDrum":false},{"pitch":58,"velocity":75,"startTime":27.7988528125,"endTime":27.934722083333334,"instrument":7,"program":21,"isDrum":false},{"pitch":57,"velocity":65,"startTime":27.94015685416667,"endTime":28.07059135416667,"instrument":7,"program":21,"isDrum":false},{"pitch":55,"velocity":65,"startTime":28.076026125000002,"endTime":28.619503208333334,"instrument":7,"program":21,"isDrum":false},{"pitch":54,"velocity":84,"startTime":28.62493797916667,"endTime":29.141241208333334,"instrument":7,"program":21,"isDrum":false},{"pitch":55,"velocity":99,"startTime":29.157545520833335,"endTime":29.271675708333333,"instrument":7,"program":21,"isDrum":false},{"pitch":67,"velocity":75,"startTime":29.999935000000004,"endTime":30.070587020833333,"instrument":7,"program":21,"isDrum":false},{"pitch":75,"velocity":110,"startTime":29.999935000000004,"endTime":30.06515225,"instrument":7,"program":21,"isDrum":false},{"pitch":65,"velocity":55,"startTime":30.260804000000004,"endTime":30.336890791666672,"instrument":7,"program":21,"isDrum":false},{"pitch":74,"velocity":99,"startTime":30.260804000000004,"endTime":30.336890791666672,"instrument":7,"program":21,"isDrum":false},{"pitch":63,"velocity":110,"startTime":30.521673000000003,"endTime":30.581455479166667,"instrument":7,"program":21,"isDrum":false},{"pitch":72,"velocity":75,"startTime":30.521673000000003,"endTime":30.581455479166667,"instrument":7,"program":21,"isDrum":false},{"pitch":62,"velocity":75,"startTime":30.782542000000003,"endTime":30.84775925,"instrument":7,"program":21,"isDrum":false},{"pitch":70,"velocity":110,"startTime":30.782542000000003,"endTime":30.836889708333334,"instrument":7,"program":21,"isDrum":false},{"pitch":60,"velocity":67,"startTime":31.043411000000003,"endTime":31.103193479166674,"instrument":7,"program":21,"isDrum":false},{"pitch":69,"velocity":75,"startTime":31.043411000000003,"endTime":31.11406302083333,"instrument":7,"program":21,"isDrum":false},{"pitch":58,"velocity":84,"startTime":31.304280000000002,"endTime":31.374932020833338,"instrument":7,"program":21,"isDrum":false},{"pitch":67,"velocity":67,"startTime":31.304280000000002,"endTime":31.369497250000006,"instrument":7,"program":21,"isDrum":false},{"pitch":62,"velocity":84,"startTime":31.565149,"endTime":32.293408291666665,"instrument":7,"program":21,"isDrum":false},{"pitch":60,"velocity":67,"startTime":31.826018,"endTime":32.293408291666665,"instrument":7,"program":21,"isDrum":false},{"pitch":66,"velocity":99,"startTime":31.826018,"endTime":32.304277833333344,"instrument":7,"program":21,"isDrum":false},{"pitch":62,"velocity":84,"startTime":32.32058214583334,"endTime":32.451016645833334,"instrument":7,"program":21,"isDrum":false},{"pitch":67,"velocity":67,"startTime":32.32058214583334,"endTime":32.4618861875,"instrument":7,"program":21,"isDrum":false},{"pitch":58,"velocity":110,"startTime":32.33145168750001,"endTime":32.4618861875,"instrument":7,"program":21,"isDrum":false},{"pitch":62,"velocity":110,"startTime":33.14123254166667,"endTime":33.23362364583333,"instrument":7,"program":21,"isDrum":false},{"pitch":62,"velocity":65,"startTime":33.260797499999995,"endTime":33.33144952083333,"instrument":7,"program":21,"isDrum":false},{"pitch":62,"velocity":110,"startTime":33.38036245833334,"endTime":33.456449250000006,"instrument":7,"program":21,"isDrum":false},{"pitch":72,"velocity":75,"startTime":33.87492660416666,"endTime":33.95644816666666,"instrument":7,"program":21,"isDrum":false},{"pitch":62,"velocity":75,"startTime":33.88579614583334,"endTime":33.95644816666666,"instrument":7,"program":21,"isDrum":false},{"pitch":69,"velocity":75,"startTime":34.38036029166666,"endTime":34.46188185416666,"instrument":7,"program":21,"isDrum":false},{"pitch":62,"velocity":75,"startTime":34.39122983333334,"endTime":34.4510123125,"instrument":7,"program":21,"isDrum":false},{"pitch":66,"velocity":110,"startTime":34.91840260416667,"endTime":34.98361985416666,"instrument":7,"program":21,"isDrum":false},{"pitch":62,"velocity":75,"startTime":34.923837375000005,"endTime":34.978185083333344,"instrument":7,"program":21,"isDrum":false},{"pitch":62,"velocity":99,"startTime":35.69557483333334,"endTime":35.95644383333334,"instrument":7,"program":21,"isDrum":false},{"pitch":63,"velocity":84,"startTime":35.967313375,"endTime":36.20644329166667,"instrument":7,"program":21,"isDrum":false},{"pitch":62,"velocity":75,"startTime":36.211878062500006,"endTime":36.47818183333334,"instrument":7,"program":21,"isDrum":false},{"pitch":61,"velocity":99,"startTime":36.47818183333334,"endTime":36.96731120833334,"instrument":7,"program":21,"isDrum":false},{"pitch":62,"velocity":84,"startTime":37.010789375,"endTime":37.119484791666665,"instrument":7,"program":21,"isDrum":false},{"pitch":62,"velocity":84,"startTime":37.532527375,"endTime":37.619483708333334,"instrument":7,"program":21,"isDrum":false},{"pitch":74,"velocity":65,"startTime":38.02709152083334,"endTime":38.10861308333334,"instrument":7,"program":21,"isDrum":false},{"pitch":62,"velocity":67,"startTime":38.0379610625,"endTime":38.10861308333334,"instrument":7,"program":21,"isDrum":false},{"pitch":70,"velocity":110,"startTime":38.592307687499996,"endTime":38.67382925,"instrument":7,"program":21,"isDrum":false},{"pitch":62,"velocity":84,"startTime":38.60317722916666,"endTime":38.679264020833344,"instrument":7,"program":21,"isDrum":false},{"pitch":67,"velocity":84,"startTime":39.097741375,"endTime":39.168393395833334,"instrument":7,"program":21,"isDrum":false},{"pitch":62,"velocity":75,"startTime":39.103176145833345,"endTime":39.17382816666667,"instrument":7,"program":21,"isDrum":false},{"pitch":62,"velocity":84,"startTime":39.880348375,"endTime":40.135782604166664,"instrument":7,"program":21,"isDrum":false},{"pitch":63,"velocity":99,"startTime":40.141217375,"endTime":40.33686912500001,"instrument":7,"program":21,"isDrum":false},{"pitch":62,"velocity":67,"startTime":40.353173437500004,"endTime":40.652085833333345,"instrument":7,"program":21,"isDrum":false},{"pitch":61,"velocity":84,"startTime":40.652085833333345,"endTime":41.14664997916667,"instrument":7,"program":21,"isDrum":false},{"pitch":62,"velocity":75,"startTime":41.173823833333344,"endTime":41.28795402083334,"instrument":7,"program":21,"isDrum":false},{"pitch":62,"velocity":99,"startTime":41.70643137500001,"endTime":41.79338770833334,"instrument":7,"program":21,"isDrum":false},{"pitch":72,"velocity":75,"startTime":42.22273460416666,"endTime":42.30969093750001,"instrument":7,"program":21,"isDrum":false},{"pitch":62,"velocity":75,"startTime":42.23360414583334,"endTime":42.30969093750001,"instrument":7,"program":21,"isDrum":false},{"pitch":69,"velocity":75,"startTime":42.766211687500004,"endTime":42.84229847916667,"instrument":7,"program":21,"isDrum":false},{"pitch":62,"velocity":75,"startTime":42.771646458333336,"endTime":42.83686370833334,"instrument":7,"program":21,"isDrum":false},{"pitch":66,"velocity":110,"startTime":43.304254,"endTime":43.36403647916667,"instrument":7,"program":21,"isDrum":false},{"pitch":62,"velocity":75,"startTime":43.315123541666665,"endTime":43.374906020833336,"instrument":7,"program":21,"isDrum":false},{"pitch":62,"velocity":99,"startTime":44.06512191666667,"endTime":44.30425183333334,"instrument":7,"program":21,"isDrum":false},{"pitch":63,"velocity":99,"startTime":44.30425183333334,"endTime":44.5270774375,"instrument":7,"program":21,"isDrum":false},{"pitch":62,"velocity":75,"startTime":44.54338175000001,"endTime":44.81512029166667,"instrument":7,"program":21,"isDrum":false},{"pitch":61,"velocity":84,"startTime":44.83142460416667,"endTime":45.304249666666664,"instrument":7,"program":21,"isDrum":false},{"pitch":62,"velocity":75,"startTime":45.33142352083334,"endTime":45.467292791666665,"instrument":7,"program":21,"isDrum":false},{"pitch":62,"velocity":99,"startTime":45.85316152083334,"endTime":45.945552625000005,"instrument":7,"program":21,"isDrum":false},{"pitch":74,"velocity":65,"startTime":46.38033429166667,"endTime":46.467290625000004,"instrument":7,"program":21,"isDrum":false},{"pitch":62,"velocity":60,"startTime":46.402073375,"endTime":46.47816016666667,"instrument":7,"program":21,"isDrum":false},{"pitch":70,"velocity":110,"startTime":46.91837660416667,"endTime":47.0053329375,"instrument":7,"program":21,"isDrum":false},{"pitch":62,"velocity":65,"startTime":46.92924614583333,"endTime":46.99989816666667,"instrument":7,"program":21,"isDrum":false},{"pitch":62,"velocity":75,"startTime":47.434679833333334,"endTime":47.510766625,"instrument":7,"program":21,"isDrum":false},{"pitch":67,"velocity":99,"startTime":47.434679833333334,"endTime":47.516201395833335,"instrument":7,"program":21,"isDrum":false},{"pitch":75,"velocity":110,"startTime":48.097721875000005,"endTime":48.19011297916667,"instrument":7,"program":21,"isDrum":false},{"pitch":74,"velocity":75,"startTime":48.233591145833344,"endTime":48.3096779375,"instrument":7,"program":21,"isDrum":false},{"pitch":73,"velocity":110,"startTime":48.34772133333334,"endTime":48.43467766666667,"instrument":7,"program":21,"isDrum":false},{"pitch":72,"velocity":84,"startTime":48.47815583333333,"endTime":48.554242625,"instrument":7,"program":21,"isDrum":false},{"pitch":71,"velocity":46,"startTime":48.597720791666674,"endTime":48.67380758333334,"instrument":7,"program":21,"isDrum":false},{"pitch":70,"velocity":110,"startTime":48.722720520833334,"endTime":48.804242083333335,"instrument":7,"program":21,"isDrum":false},{"pitch":69,"velocity":65,"startTime":48.84772025000001,"endTime":48.93467658333334,"instrument":7,"program":21,"isDrum":false},{"pitch":68,"velocity":110,"startTime":48.983589520833334,"endTime":49.086850166666665,"instrument":7,"program":21,"isDrum":false},{"pitch":67,"velocity":67,"startTime":49.11402402083334,"endTime":49.18467604166666,"instrument":7,"program":21,"isDrum":false},{"pitch":66,"velocity":110,"startTime":49.23358897916667,"endTime":49.325980083333334,"instrument":7,"program":21,"isDrum":false},{"pitch":65,"velocity":75,"startTime":49.36945825000001,"endTime":49.45641458333334,"instrument":7,"program":21,"isDrum":false},{"pitch":64,"velocity":60,"startTime":49.49989275,"endTime":49.5814143125,"instrument":7,"program":21,"isDrum":false},{"pitch":63,"velocity":110,"startTime":49.62489247916666,"endTime":49.72271835416667,"instrument":7,"program":21,"isDrum":false},{"pitch":62,"velocity":60,"startTime":49.75532697916667,"endTime":49.83684854166667,"instrument":7,"program":21,"isDrum":false},{"pitch":61,"velocity":110,"startTime":49.88576147916666,"endTime":49.98358735416667,"instrument":7,"program":21,"isDrum":false},{"pitch":60,"velocity":75,"startTime":50.043369833333344,"endTime":50.14119570833334,"instrument":7,"program":21,"isDrum":false},{"pitch":67,"velocity":84,"startTime":50.554238291666664,"endTime":50.635759854166665,"instrument":7,"program":21,"isDrum":false},{"pitch":60,"velocity":67,"startTime":50.56510783333334,"endTime":50.63032508333333,"instrument":7,"program":21,"isDrum":false},{"pitch":66,"velocity":110,"startTime":51.08684583333334,"endTime":51.152063083333346,"instrument":7,"program":21,"isDrum":false},{"pitch":60,"velocity":67,"startTime":51.092280604166675,"endTime":51.16836739583334,"instrument":7,"program":21,"isDrum":false},{"pitch":60,"velocity":84,"startTime":51.60314906250001,"endTime":51.67923585416666,"instrument":7,"program":21,"isDrum":false},{"pitch":67,"velocity":75,"startTime":51.60314906250001,"endTime":51.673801083333345,"instrument":7,"program":21,"isDrum":false},{"pitch":60,"velocity":75,"startTime":52.41292991666667,"endTime":52.47814716666667,"instrument":7,"program":21,"isDrum":false},{"pitch":67,"velocity":75,"startTime":52.41292991666667,"endTime":52.48901670833334,"instrument":7,"program":21,"isDrum":false},{"pitch":67,"velocity":67,"startTime":52.641190291666675,"endTime":52.72814662500001,"instrument":7,"program":21,"isDrum":false},{"pitch":60,"velocity":67,"startTime":52.65749460416667,"endTime":52.72814662500001,"instrument":7,"program":21,"isDrum":false},{"pitch":66,"velocity":110,"startTime":52.91292883333334,"endTime":53.005319937500005,"instrument":7,"program":21,"isDrum":false},{"pitch":60,"velocity":53,"startTime":52.93466791666667,"endTime":52.99445039583334,"instrument":7,"program":21,"isDrum":false},{"pitch":60,"velocity":65,"startTime":53.184667375000004,"endTime":53.266188937500004,"instrument":7,"program":21,"isDrum":false},{"pitch":67,"velocity":75,"startTime":53.184667375000004,"endTime":53.266188937500004,"instrument":7,"program":21,"isDrum":false},{"pitch":66,"velocity":99,"startTime":53.43466683333334,"endTime":53.532492708333336,"instrument":7,"program":21,"isDrum":false},{"pitch":60,"velocity":47,"startTime":53.4618406875,"endTime":53.527057937500004,"instrument":7,"program":21,"isDrum":false},{"pitch":60,"velocity":65,"startTime":53.69553583333334,"endTime":53.793361708333336,"instrument":7,"program":21,"isDrum":false},{"pitch":67,"velocity":84,"startTime":53.70097060416667,"endTime":53.793361708333336,"instrument":7,"program":21,"isDrum":false},{"pitch":66,"velocity":110,"startTime":53.950970062500005,"endTime":54.054230708333336,"instrument":7,"program":21,"isDrum":false},{"pitch":60,"velocity":60,"startTime":53.967274375,"endTime":54.0487959375,"instrument":7,"program":21,"isDrum":false},{"pitch":58,"velocity":99,"startTime":54.23901291666667,"endTime":54.33140402083333,"instrument":7,"program":21,"isDrum":false},{"pitch":58,"velocity":75,"startTime":54.78249000000001,"endTime":54.858576791666664,"instrument":7,"program":21,"isDrum":false},{"pitch":67,"velocity":84,"startTime":54.78249000000001,"endTime":54.86944633333334,"instrument":7,"program":21,"isDrum":false},{"pitch":58,"velocity":60,"startTime":55.30422800000001,"endTime":55.38574956250001,"instrument":7,"program":21,"isDrum":false},{"pitch":66,"velocity":84,"startTime":55.30422800000001,"endTime":55.39118433333334,"instrument":7,"program":21,"isDrum":false},{"pitch":58,"velocity":65,"startTime":55.82596600000001,"endTime":55.896618020833344,"instrument":7,"program":21,"isDrum":false},{"pitch":67,"velocity":75,"startTime":55.82596600000001,"endTime":55.91292233333334,"instrument":7,"program":21,"isDrum":false},{"pitch":66,"velocity":110,"startTime":56.59226868750001,"endTime":56.67922502083334,"instrument":7,"program":21,"isDrum":false},{"pitch":58,"velocity":75,"startTime":56.603138229166674,"endTime":56.662920708333345,"instrument":7,"program":21,"isDrum":false},{"pitch":67,"velocity":75,"startTime":56.831398604166665,"endTime":56.92922447916666,"instrument":7,"program":21,"isDrum":false},{"pitch":58,"velocity":75,"startTime":56.842268145833344,"endTime":56.912920166666666,"instrument":7,"program":21,"isDrum":false},{"pitch":66,"velocity":110,"startTime":57.092267604166665,"endTime":57.184658708333345,"instrument":7,"program":21,"isDrum":false},{"pitch":58,"velocity":60,"startTime":57.10857191666666,"endTime":57.173789166666666,"instrument":7,"program":21,"isDrum":false},{"pitch":58,"velocity":60,"startTime":57.347701833333346,"endTime":57.42922339583333,"instrument":7,"program":21,"isDrum":false},{"pitch":67,"velocity":67,"startTime":57.347701833333346,"endTime":57.45096247916666,"instrument":7,"program":21,"isDrum":false},{"pitch":66,"velocity":110,"startTime":57.608570833333346,"endTime":57.706396708333344,"instrument":7,"program":21,"isDrum":false},{"pitch":58,"velocity":67,"startTime":57.61944037500001,"endTime":57.684657625,"instrument":7,"program":21,"isDrum":false},{"pitch":58,"velocity":65,"startTime":57.858570291666666,"endTime":57.934657083333335,"instrument":7,"program":21,"isDrum":false},{"pitch":67,"velocity":67,"startTime":57.858570291666666,"endTime":57.950961395833346,"instrument":7,"program":21,"isDrum":false},{"pitch":66,"velocity":110,"startTime":58.097700208333336,"endTime":58.195526083333334,"instrument":7,"program":21,"isDrum":false},{"pitch":58,"velocity":53,"startTime":58.11400452083333,"endTime":58.17922177083334,"instrument":7,"program":21,"isDrum":false},{"pitch":57,"velocity":75,"startTime":58.39661260416666,"endTime":58.494438479166675,"instrument":7,"program":21,"isDrum":false},{"pitch":57,"velocity":75,"startTime":58.92378537500001,"endTime":59.00530693750001,"instrument":7,"program":21,"isDrum":false},{"pitch":62,"velocity":84,"startTime":58.92378537500001,"endTime":59.01074170833334,"instrument":7,"program":21,"isDrum":false},{"pitch":60,"velocity":84,"startTime":59.44552337500001,"endTime":59.543349250000006,"instrument":7,"program":21,"isDrum":false},{"pitch":57,"velocity":65,"startTime":59.45095814583334,"endTime":59.543349250000006,"instrument":7,"program":21,"isDrum":false},{"pitch":62,"velocity":99,"startTime":59.94552229166666,"endTime":60.03247862500001,"instrument":7,"program":21,"isDrum":false},{"pitch":57,"velocity":75,"startTime":59.95095706250001,"endTime":60.03247862500001,"instrument":7,"program":21,"isDrum":false},{"pitch":60,"velocity":84,"startTime":60.71725975000001,"endTime":61.16291095833334,"instrument":7,"program":21,"isDrum":false},{"pitch":58,"velocity":75,"startTime":61.190084812500004,"endTime":61.32595408333334,"instrument":7,"program":21,"isDrum":false},{"pitch":57,"velocity":65,"startTime":61.33138885416666,"endTime":61.46182335416667,"instrument":7,"program":21,"isDrum":false},{"pitch":55,"velocity":65,"startTime":61.467258125,"endTime":62.010735208333344,"instrument":7,"program":21,"isDrum":false},{"pitch":54,"velocity":84,"startTime":62.016169979166676,"endTime":62.53247320833334,"instrument":7,"program":21,"isDrum":false},{"pitch":55,"velocity":99,"startTime":62.54877752083334,"endTime":62.66290770833335,"instrument":7,"program":21,"isDrum":false},{"pitch":67,"velocity":75,"startTime":63.39116700000001,"endTime":63.461819020833346,"instrument":7,"program":21,"isDrum":false},{"pitch":75,"velocity":110,"startTime":63.39116700000001,"endTime":63.45638425000001,"instrument":7,"program":21,"isDrum":false},{"pitch":65,"velocity":55,"startTime":63.65203600000001,"endTime":63.72812279166668,"instrument":7,"program":21,"isDrum":false},{"pitch":74,"velocity":99,"startTime":63.65203600000001,"endTime":63.72812279166668,"instrument":7,"program":21,"isDrum":false},{"pitch":63,"velocity":110,"startTime":63.91290500000001,"endTime":63.972687479166666,"instrument":7,"program":21,"isDrum":false},{"pitch":72,"velocity":75,"startTime":63.91290500000001,"endTime":63.972687479166666,"instrument":7,"program":21,"isDrum":false},{"pitch":62,"velocity":75,"startTime":64.17377400000001,"endTime":64.23899125000001,"instrument":7,"program":21,"isDrum":false},{"pitch":70,"velocity":110,"startTime":64.17377400000001,"endTime":64.22812170833335,"instrument":7,"program":21,"isDrum":false},{"pitch":60,"velocity":67,"startTime":64.43464300000001,"endTime":64.49442547916667,"instrument":7,"program":21,"isDrum":false},{"pitch":69,"velocity":75,"startTime":64.43464300000001,"endTime":64.50529502083334,"instrument":7,"program":21,"isDrum":false},{"pitch":58,"velocity":84,"startTime":64.69551200000001,"endTime":64.76616402083333,"instrument":7,"program":21,"isDrum":false},{"pitch":67,"velocity":67,"startTime":64.69551200000001,"endTime":64.76072925000001,"instrument":7,"program":21,"isDrum":false},{"pitch":62,"velocity":84,"startTime":64.95638100000001,"endTime":65.68464029166668,"instrument":7,"program":21,"isDrum":false},{"pitch":60,"velocity":67,"startTime":65.21725,"endTime":65.68464029166668,"instrument":7,"program":21,"isDrum":false},{"pitch":66,"velocity":99,"startTime":65.21725,"endTime":65.69550983333333,"instrument":7,"program":21,"isDrum":false},{"pitch":62,"velocity":84,"startTime":65.71181414583333,"endTime":65.84224864583334,"instrument":7,"program":21,"isDrum":false},{"pitch":67,"velocity":67,"startTime":65.71181414583333,"endTime":65.8531181875,"instrument":7,"program":21,"isDrum":false},{"pitch":58,"velocity":110,"startTime":65.72268368750001,"endTime":65.8531181875,"instrument":7,"program":21,"isDrum":false},{"pitch":55,"velocity":84,"startTime":66.782464,"endTime":67.03789822916669,"instrument":7,"program":21,"isDrum":false},{"pitch":57,"velocity":75,"startTime":67.043333,"endTime":67.26072383333333,"instrument":7,"program":21,"isDrum":false},{"pitch":58,"velocity":67,"startTime":67.27702814583334,"endTime":68.0705046875,"instrument":7,"program":21,"isDrum":false},{"pitch":55,"velocity":75,"startTime":68.08137422916668,"endTime":68.33680845833334,"instrument":7,"program":21,"isDrum":false},{"pitch":57,"velocity":84,"startTime":68.347678,"endTime":68.575938375,"instrument":7,"program":21,"isDrum":false},{"pitch":58,"velocity":75,"startTime":68.5922426875,"endTime":68.84767691666669,"instrument":7,"program":21,"isDrum":false},{"pitch":57,"velocity":99,"startTime":68.88028554166668,"endTime":69.35311060416667,"instrument":7,"program":21,"isDrum":false},{"pitch":55,"velocity":84,"startTime":69.36398014583334,"endTime":69.42919739583334,"instrument":7,"program":21,"isDrum":false},{"pitch":74,"velocity":99,"startTime":69.6357186875,"endTime":69.71180547916669,"instrument":7,"program":21,"isDrum":false},{"pitch":70,"velocity":110,"startTime":69.90202245833333,"endTime":69.96723970833334,"instrument":7,"program":21,"isDrum":false},{"pitch":67,"velocity":84,"startTime":70.14658714583334,"endTime":70.22810870833334,"instrument":7,"program":21,"isDrum":false},{"pitch":74,"velocity":99,"startTime":70.39658660416669,"endTime":70.47267339583334,"instrument":7,"program":21,"isDrum":false},{"pitch":72,"velocity":75,"startTime":70.54332541666668,"endTime":70.6465860625,"instrument":7,"program":21,"isDrum":false},{"pitch":70,"velocity":110,"startTime":70.64115129166667,"endTime":70.76615102083333,"instrument":7,"program":21,"isDrum":false},{"pitch":69,"velocity":75,"startTime":70.78789010416668,"endTime":70.87484643750001,"instrument":7,"program":21,"isDrum":false},{"pitch":67,"velocity":84,"startTime":70.9074550625,"endTime":70.98354185416667,"instrument":7,"program":21,"isDrum":false},{"pitch":67,"velocity":84,"startTime":71.20636745833333,"endTime":71.25528039583334,"instrument":7,"program":21,"isDrum":false},{"pitch":67,"velocity":75,"startTime":71.28245425000001,"endTime":71.35310627083334,"instrument":7,"program":21,"isDrum":false},{"pitch":67,"velocity":75,"startTime":71.39114966666668,"endTime":71.45093214583333,"instrument":7,"program":21,"isDrum":false},{"pitch":65,"velocity":75,"startTime":71.65201866666668,"endTime":71.72267068750001,"instrument":7,"program":21,"isDrum":false},{"pitch":65,"velocity":99,"startTime":71.91832243750001,"endTime":71.98897445833333,"instrument":7,"program":21,"isDrum":false},{"pitch":63,"velocity":110,"startTime":72.15745235416668,"endTime":72.21723483333334,"instrument":7,"program":21,"isDrum":false},{"pitch":63,"velocity":110,"startTime":72.41832135416668,"endTime":72.48897337500001,"instrument":7,"program":21,"isDrum":false},{"pitch":62,"velocity":110,"startTime":72.66288604166668,"endTime":72.73897283333334,"instrument":7,"program":21,"isDrum":false},{"pitch":62,"velocity":84,"startTime":72.93462458333333,"endTime":73.69005772916668,"instrument":7,"program":21,"isDrum":false},{"pitch":63,"velocity":99,"startTime":73.6791881875,"endTime":73.79875314583333,"instrument":7,"program":21,"isDrum":false},{"pitch":62,"velocity":75,"startTime":73.80962268750001,"endTime":73.93462241666668,"instrument":7,"program":21,"isDrum":false},{"pitch":61,"velocity":110,"startTime":73.94549195833333,"endTime":74.04875260416668,"instrument":7,"program":21,"isDrum":false},{"pitch":60,"velocity":67,"startTime":74.08136122916667,"endTime":74.65201216666668,"instrument":7,"program":21,"isDrum":false},{"pitch":69,"velocity":110,"startTime":75.41288008333333,"endTime":75.488966875,"instrument":7,"program":21,"isDrum":false},{"pitch":69,"velocity":110,"startTime":75.52701027083334,"endTime":75.58135797916668,"instrument":7,"program":21,"isDrum":false},{"pitch":69,"velocity":84,"startTime":75.60853183333333,"endTime":75.67918385416668,"instrument":7,"program":21,"isDrum":false},{"pitch":67,"velocity":84,"startTime":75.89113991666667,"endTime":75.97266147916667,"instrument":7,"program":21,"isDrum":false},{"pitch":67,"velocity":99,"startTime":76.16287845833334,"endTime":76.23353047916667,"instrument":7,"program":21,"isDrum":false},{"pitch":66,"velocity":110,"startTime":76.40744314583334,"endTime":76.47266039583334,"instrument":7,"program":21,"isDrum":false},{"pitch":66,"velocity":110,"startTime":76.66831214583334,"endTime":76.72809462500001,"instrument":7,"program":21,"isDrum":false},{"pitch":63,"velocity":110,"startTime":77.50526685416668,"endTime":77.55417979166668,"instrument":7,"program":21,"isDrum":false},{"pitch":63,"velocity":110,"startTime":77.60852750000001,"endTime":77.66830997916668,"instrument":7,"program":21,"isDrum":false},{"pitch":63,"velocity":110,"startTime":77.71722291666669,"endTime":77.76613585416668,"instrument":7,"program":21,"isDrum":false},{"pitch":62,"velocity":110,"startTime":77.97809191666668,"endTime":78.04330916666667,"instrument":7,"program":21,"isDrum":false},{"pitch":62,"velocity":84,"startTime":78.25526522916668,"endTime":79.51069729166667,"instrument":7,"program":21,"isDrum":false},{"pitch":60,"velocity":84,"startTime":79.53787114583334,"endTime":79.78243583333334,"instrument":7,"program":21,"isDrum":false},{"pitch":72,"velocity":67,"startTime":79.7770010625,"endTime":79.858522625,"instrument":7,"program":21,"isDrum":false},{"pitch":60,"velocity":99,"startTime":80.59221668750001,"endTime":80.67917302083333,"instrument":7,"program":21,"isDrum":false},{"pitch":58,"velocity":110,"startTime":80.85308568750001,"endTime":80.92373770833333,"instrument":7,"program":21,"isDrum":false},{"pitch":57,"velocity":99,"startTime":81.10308514583333,"endTime":81.17373716666668,"instrument":7,"program":21,"isDrum":false},{"pitch":55,"velocity":99,"startTime":81.37482368750001,"endTime":81.45091047916668,"instrument":7,"program":21,"isDrum":false},{"pitch":54,"velocity":110,"startTime":81.49982341666669,"endTime":81.58134497916669,"instrument":7,"program":21,"isDrum":false},{"pitch":55,"velocity":84,"startTime":81.61938837500001,"endTime":81.70634470833333,"instrument":7,"program":21,"isDrum":false},{"pitch":57,"velocity":110,"startTime":81.749822875,"endTime":81.83134443750001,"instrument":7,"program":21,"isDrum":false},{"pitch":58,"velocity":110,"startTime":81.88025737500001,"endTime":81.96177893750001,"instrument":7,"program":21,"isDrum":false},{"pitch":57,"velocity":84,"startTime":81.99982233333334,"endTime":82.07047435416668,"instrument":7,"program":21,"isDrum":false},{"pitch":58,"velocity":110,"startTime":82.11395252083334,"endTime":82.20090885416668,"instrument":7,"program":21,"isDrum":false},{"pitch":60,"velocity":67,"startTime":82.24982179166668,"endTime":82.33677812500001,"instrument":7,"program":21,"isDrum":false},{"pitch":62,"velocity":67,"startTime":82.38025629166668,"endTime":82.49438647916668,"instrument":7,"program":21,"isDrum":false},{"pitch":61,"velocity":110,"startTime":82.52156033333334,"endTime":82.59221235416668,"instrument":7,"program":21,"isDrum":false},{"pitch":62,"velocity":67,"startTime":82.64656006250001,"endTime":82.76612502083334,"instrument":7,"program":21,"isDrum":false},{"pitch":63,"velocity":110,"startTime":82.76069025000001,"endTime":82.84221181250001,"instrument":7,"program":21,"isDrum":false},{"pitch":62,"velocity":75,"startTime":82.90199429166668,"endTime":83.03786356250001,"instrument":7,"program":21,"isDrum":false},{"pitch":60,"velocity":99,"startTime":83.02155925000001,"endTime":83.14112420833334,"instrument":7,"program":21,"isDrum":false},{"pitch":58,"velocity":110,"startTime":83.14112420833334,"endTime":83.26612393750001,"instrument":7,"program":21,"isDrum":false},{"pitch":57,"velocity":67,"startTime":83.27699347916668,"endTime":83.41286275,"instrument":7,"program":21,"isDrum":false},{"pitch":55,"velocity":84,"startTime":83.44547137500001,"endTime":83.71720991666668,"instrument":7,"program":21,"isDrum":false},{"pitch":57,"velocity":67,"startTime":83.73351422916669,"endTime":83.93460075000002,"instrument":7,"program":21,"isDrum":false},{"pitch":58,"velocity":67,"startTime":83.95090506250001,"endTime":84.73351206250001,"instrument":7,"program":21,"isDrum":false},{"pitch":55,"velocity":110,"startTime":84.76068591666669,"endTime":84.9617724375,"instrument":7,"program":21,"isDrum":false},{"pitch":57,"velocity":99,"startTime":84.99981583333334,"endTime":85.18459804166667,"instrument":7,"program":21,"isDrum":false},{"pitch":58,"velocity":110,"startTime":85.21177189583334,"endTime":85.44546704166667,"instrument":7,"program":21,"isDrum":false},{"pitch":57,"velocity":99,"startTime":85.48894520833333,"endTime":85.97807458333334,"instrument":7,"program":21,"isDrum":false},{"pitch":55,"velocity":84,"startTime":86.01611797916668,"endTime":86.09220477083333,"instrument":7,"program":21,"isDrum":false},{"pitch":74,"velocity":75,"startTime":86.30959560416667,"endTime":86.38568239583334,"instrument":7,"program":21,"isDrum":false},{"pitch":70,"velocity":110,"startTime":86.55959506250001,"endTime":86.63024708333334,"instrument":7,"program":21,"isDrum":false},{"pitch":67,"velocity":84,"startTime":86.81502929166668,"endTime":86.88568131250001,"instrument":7,"program":21,"isDrum":false},{"pitch":74,"velocity":84,"startTime":87.09220260416669,"endTime":87.16828939583334,"instrument":7,"program":21,"isDrum":false},{"pitch":72,"velocity":84,"startTime":87.23350664583334,"endTime":87.36394114583334,"instrument":7,"program":21,"isDrum":false},{"pitch":70,"velocity":110,"startTime":87.33676729166667,"endTime":87.45089747916668,"instrument":7,"program":21,"isDrum":false},{"pitch":69,"velocity":67,"startTime":87.47807133333333,"endTime":87.57589720833334,"instrument":7,"program":21,"isDrum":false},{"pitch":67,"velocity":99,"startTime":87.59763629166667,"endTime":87.67915785416668,"instrument":7,"program":21,"isDrum":false},{"pitch":67,"velocity":99,"startTime":87.880244375,"endTime":87.94002685416667,"instrument":7,"program":21,"isDrum":false},{"pitch":67,"velocity":84,"startTime":87.98350502083333,"endTime":88.05415704166668,"instrument":7,"program":21,"isDrum":false},{"pitch":67,"velocity":67,"startTime":88.08133089583333,"endTime":88.15198291666668,"instrument":7,"program":21,"isDrum":false},{"pitch":65,"velocity":84,"startTime":88.34219989583333,"endTime":88.41285191666668,"instrument":7,"program":21,"isDrum":false},{"pitch":65,"velocity":84,"startTime":88.62480797916668,"endTime":88.69002522916668,"instrument":7,"program":21,"isDrum":false},{"pitch":63,"velocity":110,"startTime":88.85850312500001,"endTime":88.92372037500002,"instrument":7,"program":21,"isDrum":false},{"pitch":63,"velocity":110,"startTime":89.11393735416668,"endTime":89.17915460416668,"instrument":7,"program":21,"isDrum":false},{"pitch":62,"velocity":84,"startTime":89.38567589583334,"endTime":89.46176268750001,"instrument":7,"program":21,"isDrum":false},{"pitch":60,"velocity":110,"startTime":89.73350122916668,"endTime":89.80958802083333,"instrument":7,"program":21,"isDrum":false},{"pitch":59,"velocity":75,"startTime":89.85850095833334,"endTime":89.93458775,"instrument":7,"program":21,"isDrum":false},{"pitch":60,"velocity":75,"startTime":89.98350068750001,"endTime":90.05958747916668,"instrument":7,"program":21,"isDrum":false},{"pitch":62,"velocity":99,"startTime":90.09763087500001,"endTime":90.19002197916669,"instrument":7,"program":21,"isDrum":false},{"pitch":63,"velocity":110,"startTime":90.23893491666668,"endTime":90.30958693750001,"instrument":7,"program":21,"isDrum":false},{"pitch":62,"velocity":84,"startTime":90.34219556250001,"endTime":90.41828235416668,"instrument":7,"program":21,"isDrum":false},{"pitch":63,"velocity":110,"startTime":90.46719529166668,"endTime":90.54871685416668,"instrument":7,"program":21,"isDrum":false},{"pitch":65,"velocity":53,"startTime":90.60306456250001,"endTime":90.67371658333334,"instrument":7,"program":21,"isDrum":false},{"pitch":67,"velocity":75,"startTime":90.73349906250002,"endTime":90.83132493750001,"instrument":7,"program":21,"isDrum":false},{"pitch":66,"velocity":110,"startTime":90.85306402083334,"endTime":90.92915081250001,"instrument":7,"program":21,"isDrum":false},{"pitch":67,"velocity":53,"startTime":90.98893329166668,"endTime":91.09762870833333,"instrument":7,"program":21,"isDrum":false},{"pitch":68,"velocity":99,"startTime":91.09219393750001,"endTime":91.17915027083333,"instrument":7,"program":21,"isDrum":false},{"pitch":67,"velocity":67,"startTime":91.23349797916669,"endTime":91.35849770833333,"instrument":7,"program":21,"isDrum":false},{"pitch":65,"velocity":99,"startTime":91.35849770833333,"endTime":91.47806266666669,"instrument":7,"program":21,"isDrum":false},{"pitch":63,"velocity":99,"startTime":91.47806266666669,"endTime":91.61393193750001,"instrument":7,"program":21,"isDrum":false},{"pitch":62,"velocity":65,"startTime":91.61393193750001,"endTime":91.72262735416668,"instrument":7,"program":21,"isDrum":false},{"pitch":60,"velocity":99,"startTime":91.78784460416668,"endTime":92.0052354375,"instrument":7,"program":21,"isDrum":false},{"pitch":60,"velocity":75,"startTime":92.04327883333333,"endTime":92.13023516666668,"instrument":7,"program":21,"isDrum":false},{"pitch":63,"velocity":99,"startTime":92.04327883333333,"endTime":92.12480039583333,"instrument":7,"program":21,"isDrum":false},{"pitch":67,"velocity":67,"startTime":92.55958206250001,"endTime":92.97262464583333,"instrument":7,"program":21,"isDrum":false},{"pitch":60,"velocity":75,"startTime":92.57045160416668,"endTime":92.95632033333334,"instrument":7,"program":21,"isDrum":false},{"pitch":66,"velocity":84,"startTime":93.04327666666669,"endTime":93.23349364583333,"instrument":7,"program":21,"isDrum":false},{"pitch":60,"velocity":75,"startTime":93.0487114375,"endTime":93.19001547916668,"instrument":7,"program":21,"isDrum":false},{"pitch":67,"velocity":67,"startTime":93.33675429166668,"endTime":93.45631925,"instrument":7,"program":21,"isDrum":false},{"pitch":60,"velocity":67,"startTime":93.34218906250001,"endTime":93.44544970833334,"instrument":7,"program":21,"isDrum":false},{"pitch":58,"velocity":84,"startTime":93.85849229166668,"endTime":94.0595788125,"instrument":7,"program":21,"isDrum":false},{"pitch":58,"velocity":15,"startTime":94.13023083333334,"endTime":94.23349147916669,"instrument":7,"program":21,"isDrum":false},{"pitch":62,"velocity":99,"startTime":94.15196991666669,"endTime":94.23892625,"instrument":7,"program":21,"isDrum":false},{"pitch":67,"velocity":75,"startTime":94.66827314583334,"endTime":95.09762004166669,"instrument":7,"program":21,"isDrum":false},{"pitch":58,"velocity":84,"startTime":94.67370791666669,"endTime":95.01609847916669,"instrument":7,"program":21,"isDrum":false},{"pitch":66,"velocity":99,"startTime":95.14653297916668,"endTime":95.445445375,"instrument":7,"program":21,"isDrum":false},{"pitch":58,"velocity":84,"startTime":95.15740252083334,"endTime":95.27696747916669,"instrument":7,"program":21,"isDrum":false},{"pitch":58,"velocity":53,"startTime":95.445445375,"endTime":95.54870602083334,"instrument":7,"program":21,"isDrum":false},{"pitch":67,"velocity":84,"startTime":95.4617496875,"endTime":95.57044510416668,"instrument":7,"program":21,"isDrum":false},{"pitch":62,"velocity":84,"startTime":96.24435668750002,"endTime":96.51609522916668,"instrument":7,"program":21,"isDrum":false},{"pitch":69,"velocity":84,"startTime":96.52153000000001,"endTime":96.78239900000001,"instrument":7,"program":21,"isDrum":false},{"pitch":66,"velocity":75,"startTime":96.76609468750001,"endTime":97.03239845833333,"instrument":7,"program":21,"isDrum":false},{"pitch":62,"velocity":55,"startTime":97.03783322916668,"endTime":97.32044131250001,"instrument":7,"program":21,"isDrum":false},{"pitch":60,"velocity":60,"startTime":97.32587608333334,"endTime":97.74978820833334,"instrument":7,"program":21,"isDrum":false},{"pitch":54,"velocity":99,"startTime":97.76609252083334,"endTime":98.04326583333334,"instrument":7,"program":21,"isDrum":false},{"pitch":55,"velocity":84,"startTime":98.05413537500002,"endTime":98.13565693750002,"instrument":7,"program":21,"isDrum":false},{"pitch":62,"velocity":99,"startTime":98.33130868750001,"endTime":99.01065504166668,"instrument":7,"program":21,"isDrum":false},{"pitch":60,"velocity":75,"startTime":98.60848200000001,"endTime":98.901959625,"instrument":7,"program":21,"isDrum":false},{"pitch":66,"velocity":99,"startTime":98.61935154166669,"endTime":99.03782889583334,"instrument":7,"program":21,"isDrum":false},{"pitch":67,"velocity":60,"startTime":99.07587229166668,"endTime":99.228045875,"instrument":7,"program":21,"isDrum":false},{"pitch":62,"velocity":75,"startTime":99.08130706250002,"endTime":99.21717633333334,"instrument":7,"program":21,"isDrum":false},{"pitch":58,"velocity":99,"startTime":99.09217660416668,"endTime":99.21174156250001,"instrument":7,"program":21,"isDrum":false},{"pitch":62,"velocity":110,"startTime":100.19543508333334,"endTime":100.26065233333334,"instrument":7,"program":21,"isDrum":false},{"pitch":62,"velocity":99,"startTime":100.29869572916668,"endTime":100.37478252083334,"instrument":7,"program":21,"isDrum":false},{"pitch":62,"velocity":99,"startTime":100.43999977083334,"endTime":100.51065179166669,"instrument":7,"program":21,"isDrum":false},{"pitch":62,"velocity":99,"startTime":100.55412995833333,"endTime":100.65739060416668,"instrument":7,"program":21,"isDrum":false},{"pitch":72,"velocity":99,"startTime":100.68456445833334,"endTime":100.77152079166669,"instrument":7,"program":21,"isDrum":false},{"pitch":62,"velocity":84,"startTime":100.81499895833333,"endTime":100.90195529166668,"instrument":7,"program":21,"isDrum":false},{"pitch":62,"velocity":99,"startTime":100.92369437500001,"endTime":101.00521593750001,"instrument":7,"program":21,"isDrum":false},{"pitch":62,"velocity":99,"startTime":101.04869410416669,"endTime":101.15738952083333,"instrument":7,"program":21,"isDrum":false},{"pitch":69,"velocity":110,"startTime":101.18456337500001,"endTime":101.28238925000001,"instrument":7,"program":21,"isDrum":false},{"pitch":62,"velocity":99,"startTime":101.30956310416668,"endTime":101.380215125,"instrument":7,"program":21,"isDrum":false},{"pitch":62,"velocity":99,"startTime":101.43999760416668,"endTime":101.51608439583335,"instrument":7,"program":21,"isDrum":false},{"pitch":62,"velocity":84,"startTime":101.5595625625,"endTime":101.6573884375,"instrument":7,"program":21,"isDrum":false},{"pitch":66,"velocity":110,"startTime":101.71173614583334,"endTime":101.80956202083334,"instrument":7,"program":21,"isDrum":false},{"pitch":62,"velocity":99,"startTime":101.82586633333334,"endTime":101.901953125,"instrument":7,"program":21,"isDrum":false},{"pitch":62,"velocity":110,"startTime":101.95630083333334,"endTime":102.04869193750001,"instrument":7,"program":21,"isDrum":false},{"pitch":62,"velocity":75,"startTime":102.08673533333334,"endTime":102.17912643750002,"instrument":7,"program":21,"isDrum":false},{"pitch":62,"velocity":110,"startTime":102.22803937500001,"endTime":102.32043047916669,"instrument":7,"program":21,"isDrum":false},{"pitch":62,"velocity":75,"startTime":102.35303910416668,"endTime":102.44543020833333,"instrument":7,"program":21,"isDrum":false},{"pitch":62,"velocity":99,"startTime":102.48347360416668,"endTime":102.57586470833334,"instrument":7,"program":21,"isDrum":false},{"pitch":62,"velocity":75,"startTime":102.60847333333334,"endTime":102.69542966666668,"instrument":7,"program":21,"isDrum":false},{"pitch":62,"velocity":110,"startTime":102.74434260416668,"endTime":102.83673370833334,"instrument":7,"program":21,"isDrum":false},{"pitch":62,"velocity":75,"startTime":102.86934233333334,"endTime":102.95629866666668,"instrument":7,"program":21,"isDrum":false},{"pitch":62,"velocity":110,"startTime":103.00521160416667,"endTime":103.09760270833334,"instrument":7,"program":21,"isDrum":false},{"pitch":62,"velocity":84,"startTime":103.14108087500001,"endTime":103.23347197916668,"instrument":7,"program":21,"isDrum":false},{"pitch":63,"velocity":110,"startTime":103.27695014583334,"endTime":103.36390647916669,"instrument":7,"program":21,"isDrum":false},{"pitch":62,"velocity":84,"startTime":103.39651510416668,"endTime":103.47803666666668,"instrument":7,"program":21,"isDrum":false},{"pitch":61,"velocity":110,"startTime":103.52694960416669,"endTime":103.60303639583334,"instrument":7,"program":21,"isDrum":false},{"pitch":62,"velocity":84,"startTime":103.64651456250002,"endTime":103.74434043750001,"instrument":7,"program":21,"isDrum":false},{"pitch":63,"velocity":110,"startTime":103.78781860416669,"endTime":103.8747749375,"instrument":7,"program":21,"isDrum":false},{"pitch":62,"velocity":99,"startTime":103.91825310416668,"endTime":103.99433989583333,"instrument":7,"program":21,"isDrum":false},{"pitch":61,"velocity":110,"startTime":104.04325283333334,"endTime":104.12477439583334,"instrument":7,"program":21,"isDrum":false},{"pitch":62,"velocity":99,"startTime":104.16825256250002,"endTime":104.25520889583333,"instrument":7,"program":21,"isDrum":false},{"pitch":62,"velocity":110,"startTime":104.314991375,"endTime":104.41281725000002,"instrument":7,"program":21,"isDrum":false},{"pitch":62,"velocity":84,"startTime":104.43999110416668,"endTime":104.52694743750001,"instrument":7,"program":21,"isDrum":false},{"pitch":62,"velocity":99,"startTime":104.575860375,"endTime":104.65194716666669,"instrument":7,"program":21,"isDrum":false},{"pitch":62,"velocity":75,"startTime":104.70629487500001,"endTime":104.82042506250001,"instrument":7,"program":21,"isDrum":false},{"pitch":74,"velocity":110,"startTime":104.85303368750002,"endTime":104.94542479166668,"instrument":7,"program":21,"isDrum":false},{"pitch":62,"velocity":110,"startTime":104.97259864583334,"endTime":105.06498975000001,"instrument":7,"program":21,"isDrum":false},{"pitch":62,"velocity":99,"startTime":105.097598375,"endTime":105.1791199375,"instrument":7,"program":21,"isDrum":false},{"pitch":62,"velocity":99,"startTime":105.22803287500001,"endTime":105.32585875000001,"instrument":7,"program":21,"isDrum":false},{"pitch":70,"velocity":110,"startTime":105.36390214583334,"endTime":105.45629325000002,"instrument":7,"program":21,"isDrum":false},{"pitch":62,"velocity":99,"startTime":105.48346710416668,"endTime":105.56498866666668,"instrument":7,"program":21,"isDrum":false},{"pitch":62,"velocity":99,"startTime":105.61390160416668,"endTime":105.68998839583334,"instrument":7,"program":21,"isDrum":false},{"pitch":62,"velocity":84,"startTime":105.73346656250001,"endTime":105.83672720833334,"instrument":7,"program":21,"isDrum":false},{"pitch":67,"velocity":110,"startTime":105.87477060416668,"endTime":105.97803125000002,"instrument":7,"program":21,"isDrum":false},{"pitch":62,"velocity":99,"startTime":106.01607464583334,"endTime":106.09759620833334,"instrument":7,"program":21,"isDrum":false},{"pitch":62,"velocity":99,"startTime":106.14650914583333,"endTime":106.23890025000001,"instrument":7,"program":21,"isDrum":false},{"pitch":62,"velocity":75,"startTime":106.26607410416668,"endTime":106.35846520833334,"instrument":7,"program":21,"isDrum":false},{"pitch":62,"velocity":99,"startTime":106.40194337500002,"endTime":106.49976925000001,"instrument":7,"program":21,"isDrum":false},{"pitch":62,"velocity":84,"startTime":106.53237787500001,"endTime":106.61933420833334,"instrument":7,"program":21,"isDrum":false},{"pitch":62,"velocity":99,"startTime":106.66824714583333,"endTime":106.76063825000001,"instrument":7,"program":21,"isDrum":false},{"pitch":62,"velocity":84,"startTime":106.79868164583334,"endTime":106.88563797916669,"instrument":7,"program":21,"isDrum":false},{"pitch":62,"velocity":99,"startTime":106.93455091666668,"endTime":107.03237679166668,"instrument":7,"program":21,"isDrum":false},{"pitch":62,"velocity":75,"startTime":107.05955064583334,"endTime":107.14650697916669,"instrument":7,"program":21,"isDrum":false},{"pitch":62,"velocity":110,"startTime":107.18998514583333,"endTime":107.27694147916668,"instrument":7,"program":21,"isDrum":false},{"pitch":62,"velocity":84,"startTime":107.32041964583334,"endTime":107.41281075,"instrument":7,"program":21,"isDrum":false},{"pitch":63,"velocity":110,"startTime":107.45085414583333,"endTime":107.53781047916668,"instrument":7,"program":21,"isDrum":false},{"pitch":62,"velocity":99,"startTime":107.58128864583334,"endTime":107.65737543750001,"instrument":7,"program":21,"isDrum":false},{"pitch":61,"velocity":110,"startTime":107.70085360416668,"endTime":107.78780993750001,"instrument":7,"program":21,"isDrum":false},{"pitch":62,"velocity":99,"startTime":107.82041856250001,"endTime":107.91280966666669,"instrument":7,"program":21,"isDrum":false},{"pitch":63,"velocity":110,"startTime":107.95628783333333,"endTime":108.05411370833333,"instrument":7,"program":21,"isDrum":false},{"pitch":62,"velocity":99,"startTime":108.097591875,"endTime":108.17367866666669,"instrument":7,"program":21,"isDrum":false},{"pitch":61,"velocity":110,"startTime":108.22259160416668,"endTime":108.30954793750001,"instrument":7,"program":21,"isDrum":false},{"pitch":62,"velocity":84,"startTime":108.34759133333334,"endTime":108.4399824375,"instrument":7,"program":21,"isDrum":false},{"pitch":62,"velocity":110,"startTime":108.50519968750001,"endTime":108.60302556250001,"instrument":7,"program":21,"isDrum":false},{"pitch":62,"velocity":75,"startTime":108.63019941666668,"endTime":108.71715575000002,"instrument":7,"program":21,"isDrum":false},{"pitch":62,"velocity":99,"startTime":108.77150345833334,"endTime":108.85302502083334,"instrument":7,"program":21,"isDrum":false},{"pitch":62,"velocity":84,"startTime":108.89650318750002,"endTime":109.00519860416668,"instrument":7,"program":21,"isDrum":false},{"pitch":72,"velocity":99,"startTime":109.03780722916669,"endTime":109.12476356250001,"instrument":7,"program":21,"isDrum":false},{"pitch":62,"velocity":110,"startTime":109.15193741666668,"endTime":109.23345897916668,"instrument":7,"program":21,"isDrum":false},{"pitch":62,"velocity":99,"startTime":109.27150237500001,"endTime":109.35302393750001,"instrument":7,"program":21,"isDrum":false},{"pitch":62,"velocity":84,"startTime":109.401936875,"endTime":109.51606706250001,"instrument":7,"program":21,"isDrum":false},{"pitch":69,"velocity":110,"startTime":109.54324091666668,"endTime":109.64106679166669,"instrument":7,"program":21,"isDrum":false},{"pitch":62,"velocity":99,"startTime":109.66824064583334,"endTime":109.74976220833334,"instrument":7,"program":21,"isDrum":false},{"pitch":62,"velocity":99,"startTime":109.79867514583334,"endTime":109.88019670833334,"instrument":7,"program":21,"isDrum":false},{"pitch":62,"velocity":84,"startTime":109.91280533333334,"endTime":110.01063120833334,"instrument":7,"program":21,"isDrum":false},{"pitch":66,"velocity":110,"startTime":110.05410937500001,"endTime":110.14650047916668,"instrument":7,"program":21,"isDrum":false},{"pitch":62,"velocity":99,"startTime":110.18997864583334,"endTime":110.26606543750002,"instrument":7,"program":21,"isDrum":false},{"pitch":62,"velocity":99,"startTime":110.32041314583334,"endTime":110.41280425000001,"instrument":7,"program":21,"isDrum":false},{"pitch":62,"velocity":75,"startTime":110.43997810416668,"endTime":110.53236920833334,"instrument":7,"program":21,"isDrum":false},{"pitch":62,"velocity":110,"startTime":110.58671691666669,"endTime":110.68454279166669,"instrument":7,"program":21,"isDrum":false},{"pitch":62,"velocity":84,"startTime":110.71171664583333,"endTime":110.80410775000001,"instrument":7,"program":21,"isDrum":false},{"pitch":62,"velocity":99,"startTime":110.84758591666669,"endTime":110.93997702083334,"instrument":7,"program":21,"isDrum":false},{"pitch":62,"velocity":84,"startTime":110.97258564583333,"endTime":111.06497675000001,"instrument":7,"program":21,"isDrum":false},{"pitch":62,"velocity":99,"startTime":111.10845491666669,"endTime":111.19541125,"instrument":7,"program":21,"isDrum":false},{"pitch":62,"velocity":75,"startTime":111.23888941666668,"endTime":111.33128052083335,"instrument":7,"program":21,"isDrum":false},{"pitch":62,"velocity":84,"startTime":111.36388914583334,"endTime":111.45084547916669,"instrument":7,"program":21,"isDrum":false},{"pitch":62,"velocity":99,"startTime":111.48888887500001,"endTime":111.58671475000001,"instrument":7,"program":21,"isDrum":false},{"pitch":63,"velocity":110,"startTime":111.62475814583334,"endTime":111.71171447916669,"instrument":7,"program":21,"isDrum":false},{"pitch":62,"velocity":84,"startTime":111.74432310416668,"endTime":111.82584466666668,"instrument":7,"program":21,"isDrum":false},{"pitch":61,"velocity":110,"startTime":111.87475760416669,"endTime":111.96714870833334,"instrument":7,"program":21,"isDrum":false},{"pitch":62,"velocity":84,"startTime":111.99432256250002,"endTime":112.09214843750001,"instrument":7,"program":21,"isDrum":false},{"pitch":63,"velocity":110,"startTime":112.14649614583334,"endTime":112.23888725,"instrument":7,"program":21,"isDrum":false},{"pitch":62,"velocity":84,"startTime":112.27693064583335,"endTime":112.34758266666668,"instrument":7,"program":21,"isDrum":false},{"pitch":61,"velocity":110,"startTime":112.401930375,"endTime":112.48888670833334,"instrument":7,"program":21,"isDrum":false},{"pitch":62,"velocity":84,"startTime":112.52693010416668,"endTime":112.60845166666668,"instrument":7,"program":21,"isDrum":false},{"pitch":62,"velocity":110,"startTime":112.67366891666668,"endTime":112.76606002083334,"instrument":7,"program":21,"isDrum":false},{"pitch":62,"velocity":67,"startTime":112.79866864583335,"endTime":112.89105975000001,"instrument":7,"program":21,"isDrum":false},{"pitch":62,"velocity":84,"startTime":112.93997268750002,"endTime":113.02692902083334,"instrument":7,"program":21,"isDrum":false},{"pitch":62,"velocity":75,"startTime":113.07040718750001,"endTime":113.17910260416669,"instrument":7,"program":21,"isDrum":false},{"pitch":74,"velocity":110,"startTime":113.21171122916668,"endTime":113.28779802083334,"instrument":7,"program":21,"isDrum":false},{"pitch":62,"velocity":99,"startTime":113.33127618750001,"endTime":113.42910206250001,"instrument":7,"program":21,"isDrum":false},{"pitch":62,"velocity":99,"startTime":113.445406375,"endTime":113.53779747916668,"instrument":7,"program":21,"isDrum":false},{"pitch":62,"velocity":99,"startTime":113.57584087500001,"endTime":113.67910152083334,"instrument":7,"program":21,"isDrum":false},{"pitch":70,"velocity":110,"startTime":113.71714491666668,"endTime":113.79866647916668,"instrument":7,"program":21,"isDrum":false},{"pitch":62,"velocity":99,"startTime":113.83670987500001,"endTime":113.90736189583333,"instrument":7,"program":21,"isDrum":false},{"pitch":62,"velocity":84,"startTime":113.95627483333334,"endTime":114.03779639583334,"instrument":7,"program":21,"isDrum":false},{"pitch":62,"velocity":84,"startTime":114.07583979166668,"endTime":114.18453520833334,"instrument":7,"program":21,"isDrum":false},{"pitch":67,"velocity":110,"startTime":114.2117090625,"endTime":114.30410016666669,"instrument":7,"program":21,"isDrum":false},{"pitch":62,"velocity":110,"startTime":114.35301310416668,"endTime":114.42909989583335,"instrument":7,"program":21,"isDrum":false},{"pitch":62,"velocity":99,"startTime":114.4725780625,"endTime":114.57040393750002,"instrument":7,"program":21,"isDrum":false},{"pitch":62,"velocity":84,"startTime":114.59757779166668,"endTime":114.68996889583335,"instrument":7,"program":21,"isDrum":false},{"pitch":62,"velocity":99,"startTime":114.73888183333334,"endTime":114.83670770833334,"instrument":7,"program":21,"isDrum":false},{"pitch":62,"velocity":84,"startTime":114.86388156250001,"endTime":114.95627266666668,"instrument":7,"program":21,"isDrum":false},{"pitch":62,"velocity":84,"startTime":115.01062037500002,"endTime":115.09757670833334,"instrument":7,"program":21,"isDrum":false},{"pitch":62,"velocity":75,"startTime":115.12475056250001,"endTime":115.21170689583334,"instrument":7,"program":21,"isDrum":false},{"pitch":62,"velocity":110,"startTime":115.27148937500002,"endTime":115.35301093750002,"instrument":7,"program":21,"isDrum":false},{"pitch":62,"velocity":75,"startTime":115.38561956250001,"endTime":115.47257589583334,"instrument":7,"program":21,"isDrum":false},{"pitch":62,"velocity":99,"startTime":115.52692360416668,"endTime":115.60844516666668,"instrument":7,"program":21,"isDrum":false},{"pitch":62,"velocity":75,"startTime":115.65192333333334,"endTime":115.74431443750001,"instrument":7,"program":21,"isDrum":false},{"pitch":63,"velocity":110,"startTime":115.78779260416668,"endTime":115.87474893750002,"instrument":7,"program":21,"isDrum":false},{"pitch":62,"velocity":99,"startTime":115.92366187500001,"endTime":115.99431389583334,"instrument":7,"program":21,"isDrum":false},{"pitch":61,"velocity":110,"startTime":116.04866160416668,"endTime":116.13018316666668,"instrument":7,"program":21,"isDrum":false},{"pitch":62,"velocity":84,"startTime":116.16822656250001,"endTime":116.25518289583334,"instrument":7,"program":21,"isDrum":false},{"pitch":63,"velocity":110,"startTime":116.29866106250002,"endTime":116.39105216666668,"instrument":7,"program":21,"isDrum":false},{"pitch":62,"velocity":99,"startTime":116.43996510416669,"endTime":116.52692143750001,"instrument":7,"program":21,"isDrum":false},{"pitch":61,"velocity":110,"startTime":116.54866052083334,"endTime":116.63018208333334,"instrument":7,"program":21,"isDrum":false},{"pitch":62,"velocity":110,"startTime":116.67366025000001,"endTime":116.77692089583334,"instrument":7,"program":21,"isDrum":false},{"pitch":60,"velocity":99,"startTime":116.80952952083334,"endTime":116.89105108333334,"instrument":7,"program":21,"isDrum":false},{"pitch":59,"velocity":75,"startTime":116.95083356250001,"endTime":117.01605081250001,"instrument":7,"program":21,"isDrum":false},{"pitch":60,"velocity":99,"startTime":117.07039852083334,"endTime":117.15735485416668,"instrument":7,"program":21,"isDrum":false},{"pitch":62,"velocity":110,"startTime":117.21170256250001,"endTime":117.30409366666669,"instrument":7,"program":21,"isDrum":false},{"pitch":63,"velocity":110,"startTime":117.34213706250002,"endTime":117.41822385416668,"instrument":7,"program":21,"isDrum":false},{"pitch":62,"velocity":110,"startTime":117.46170202083334,"endTime":117.54322358333334,"instrument":7,"program":21,"isDrum":false},{"pitch":63,"velocity":110,"startTime":117.58670175000002,"endTime":117.67365808333334,"instrument":7,"program":21,"isDrum":false},{"pitch":65,"velocity":99,"startTime":117.71713625000001,"endTime":117.80952735416669,"instrument":7,"program":21,"isDrum":false},{"pitch":67,"velocity":99,"startTime":117.86387506250001,"endTime":117.98344002083334,"instrument":7,"program":21,"isDrum":false},{"pitch":66,"velocity":110,"startTime":117.99974433333334,"endTime":118.08670066666669,"instrument":7,"program":21,"isDrum":false},{"pitch":67,"velocity":75,"startTime":118.13017883333335,"endTime":118.21170039583335,"instrument":7,"program":21,"isDrum":false},{"pitch":71,"velocity":110,"startTime":118.26604810416669,"endTime":118.3530044375,"instrument":7,"program":21,"isDrum":false},{"pitch":72,"velocity":110,"startTime":118.39648260416668,"endTime":118.48343893750001,"instrument":7,"program":21,"isDrum":false},{"pitch":71,"velocity":99,"startTime":118.52691710416669,"endTime":118.60300389583334,"instrument":7,"program":21,"isDrum":false},{"pitch":72,"velocity":99,"startTime":118.65191683333335,"endTime":118.72800362500001,"instrument":7,"program":21,"isDrum":false},{"pitch":74,"velocity":84,"startTime":118.77148179166669,"endTime":118.88017720833334,"instrument":7,"program":21,"isDrum":false},{"pitch":75,"velocity":110,"startTime":118.92365537500001,"endTime":119.03235079166669,"instrument":7,"program":21,"isDrum":false},{"pitch":74,"velocity":84,"startTime":119.07582895833335,"endTime":119.15191575000001,"instrument":7,"program":21,"isDrum":false},{"pitch":73,"velocity":110,"startTime":119.18452437500001,"endTime":119.26604593750001,"instrument":7,"program":21,"isDrum":false},{"pitch":74,"velocity":110,"startTime":119.32039364583333,"endTime":119.42365429166668,"instrument":7,"program":21,"isDrum":false},{"pitch":75,"velocity":110,"startTime":119.45082814583334,"endTime":119.57582787500002,"instrument":7,"program":21,"isDrum":false},{"pitch":74,"velocity":84,"startTime":119.57039310416668,"endTime":119.65734943750002,"instrument":7,"program":21,"isDrum":false},{"pitch":73,"velocity":110,"startTime":119.68995806250001,"endTime":119.78234916666668,"instrument":7,"program":21,"isDrum":false},{"pitch":74,"velocity":110,"startTime":119.82582733333334,"endTime":119.92365320833333,"instrument":7,"program":21,"isDrum":false},{"pitch":75,"velocity":110,"startTime":119.96169660416669,"endTime":120.04865293750001,"instrument":7,"program":21,"isDrum":false},{"pitch":74,"velocity":99,"startTime":120.08126156250002,"endTime":120.16821789583334,"instrument":7,"program":21,"isDrum":false},{"pitch":73,"velocity":110,"startTime":120.20082652083335,"endTime":120.30952193750001,"instrument":7,"program":21,"isDrum":false},{"pitch":74,"velocity":84,"startTime":120.34213056250002,"endTime":120.42365212500002,"instrument":7,"program":21,"isDrum":false},{"pitch":75,"velocity":110,"startTime":120.46169552083335,"endTime":120.53778231250001,"instrument":7,"program":21,"isDrum":false},{"pitch":76,"velocity":99,"startTime":120.58669525,"endTime":120.67908635416669,"instrument":7,"program":21,"isDrum":false},{"pitch":77,"velocity":110,"startTime":120.73343406250001,"endTime":120.80408608333335,"instrument":7,"program":21,"isDrum":false},{"pitch":78,"velocity":110,"startTime":120.85299902083334,"endTime":120.93452058333334,"instrument":7,"program":21,"isDrum":false},{"pitch":79,"velocity":99,"startTime":120.99973783333334,"endTime":121.08669416666669,"instrument":7,"program":21,"isDrum":false},{"pitch":78,"velocity":110,"startTime":121.11930279166668,"endTime":121.21169389583333,"instrument":7,"program":21,"isDrum":false},{"pitch":79,"velocity":84,"startTime":121.26060683333334,"endTime":121.35843270833334,"instrument":7,"program":21,"isDrum":false},{"pitch":81,"velocity":75,"startTime":121.40191087500001,"endTime":121.47799766666668,"instrument":7,"program":21,"isDrum":false},{"pitch":79,"velocity":84,"startTime":121.532345375,"endTime":121.61930170833334,"instrument":7,"program":21,"isDrum":false},{"pitch":78,"velocity":110,"startTime":121.64104079166668,"endTime":121.73886666666668,"instrument":7,"program":21,"isDrum":false},{"pitch":77,"velocity":99,"startTime":121.77691006250001,"endTime":121.88017070833334,"instrument":7,"program":21,"isDrum":false},{"pitch":76,"velocity":99,"startTime":121.91277933333335,"endTime":122.01060520833335,"instrument":7,"program":21,"isDrum":false},{"pitch":75,"velocity":110,"startTime":122.04864860416669,"endTime":122.13017016666669,"instrument":7,"program":21,"isDrum":false},{"pitch":74,"velocity":99,"startTime":122.17364833333335,"endTime":122.26060466666668,"instrument":7,"program":21,"isDrum":false},{"pitch":73,"velocity":110,"startTime":122.31495237500002,"endTime":122.3964739375,"instrument":7,"program":21,"isDrum":false},{"pitch":74,"velocity":99,"startTime":122.43995210416668,"endTime":122.51603889583335,"instrument":7,"program":21,"isDrum":false},{"pitch":75,"velocity":110,"startTime":122.58125614583334,"endTime":122.67364725000002,"instrument":7,"program":21,"isDrum":false},{"pitch":74,"velocity":84,"startTime":122.71712541666669,"endTime":122.8203860625,"instrument":7,"program":21,"isDrum":false},{"pitch":70,"velocity":110,"startTime":122.85299468750001,"endTime":122.95082056250001,"instrument":7,"program":21,"isDrum":false},{"pitch":67,"velocity":99,"startTime":122.97799441666669,"endTime":123.07582029166669,"instrument":7,"program":21,"isDrum":false},{"pitch":75,"velocity":110,"startTime":123.10842891666668,"endTime":123.21712433333335,"instrument":7,"program":21,"isDrum":false},{"pitch":74,"velocity":55,"startTime":123.23886341666669,"endTime":123.36386314583334,"instrument":7,"program":21,"isDrum":false},{"pitch":70,"velocity":110,"startTime":123.36929791666668,"endTime":123.47799333333334,"instrument":7,"program":21,"isDrum":false},{"pitch":67,"velocity":84,"startTime":123.51060195833334,"endTime":123.58668875000001,"instrument":7,"program":21,"isDrum":false},{"pitch":70,"velocity":110,"startTime":123.65734077083334,"endTime":123.78777527083334,"instrument":7,"program":21,"isDrum":false},{"pitch":67,"velocity":84,"startTime":123.77690572916669,"endTime":123.90190545833335,"instrument":7,"program":21,"isDrum":false},{"pitch":63,"velocity":110,"startTime":123.90190545833335,"endTime":123.99973133333334,"instrument":7,"program":21,"isDrum":false},{"pitch":62,"velocity":65,"startTime":124.0269051875,"endTime":124.11386152083334,"instrument":7,"program":21,"isDrum":false},{"pitch":63,"velocity":110,"startTime":124.15733968750001,"endTime":124.26603510416669,"instrument":7,"program":21,"isDrum":false},{"pitch":62,"velocity":84,"startTime":124.2877741875,"endTime":124.41277391666668,"instrument":7,"program":21,"isDrum":false},{"pitch":58,"velocity":84,"startTime":124.41820868750001,"endTime":124.52146933333334,"instrument":7,"program":21,"isDrum":false},{"pitch":55,"velocity":67,"startTime":124.52690410416669,"endTime":124.63016475,"instrument":7,"program":21,"isDrum":false},{"pitch":58,"velocity":110,"startTime":124.66820814583335,"endTime":124.76059925000001,"instrument":7,"program":21,"isDrum":false},{"pitch":55,"velocity":110,"startTime":124.80407741666669,"endTime":124.91820760416668,"instrument":7,"program":21,"isDrum":false},{"pitch":53,"velocity":84,"startTime":124.92364237500001,"endTime":125.01059870833335,"instrument":7,"program":21,"isDrum":false},{"pitch":51,"velocity":110,"startTime":125.054076875,"endTime":125.18451137500001,"instrument":7,"program":21,"isDrum":false},{"pitch":50,"velocity":84,"startTime":125.18994614583335,"endTime":125.28233725000001,"instrument":7,"program":21,"isDrum":false},{"pitch":49,"velocity":110,"startTime":125.32581541666669,"endTime":125.40733697916669,"instrument":7,"program":21,"isDrum":false},{"pitch":50,"velocity":84,"startTime":125.43994560416668,"endTime":125.54320625000001,"instrument":7,"program":21,"isDrum":false},{"pitch":52,"velocity":110,"startTime":125.58124964583334,"endTime":125.66820597916669,"instrument":7,"program":21,"isDrum":false},{"pitch":54,"velocity":110,"startTime":125.70081460416668,"endTime":125.78777093750001,"instrument":7,"program":21,"isDrum":false},{"pitch":53,"velocity":99,"startTime":125.82581433333334,"endTime":125.92364020833335,"instrument":7,"program":21,"isDrum":false},{"pitch":54,"velocity":110,"startTime":125.94537929166668,"endTime":126.07581379166669,"instrument":7,"program":21,"isDrum":false},{"pitch":55,"velocity":99,"startTime":126.07581379166669,"endTime":126.17363966666667,"instrument":7,"program":21,"isDrum":false},{"pitch":57,"velocity":99,"startTime":126.227987375,"endTime":126.358421875,"instrument":7,"program":21,"isDrum":false},{"pitch":56,"velocity":110,"startTime":126.358421875,"endTime":126.44537820833335,"instrument":7,"program":21,"isDrum":false},{"pitch":57,"velocity":84,"startTime":126.4834216041667,"endTime":126.57581270833333,"instrument":7,"program":21,"isDrum":false},{"pitch":59,"velocity":110,"startTime":126.61385610416667,"endTime":126.70624720833334,"instrument":7,"program":21,"isDrum":false},{"pitch":60,"velocity":99,"startTime":126.74429060416668,"endTime":126.83668170833334,"instrument":7,"program":21,"isDrum":false},{"pitch":59,"velocity":99,"startTime":126.85842079166667,"endTime":126.95081189583334,"instrument":7,"program":21,"isDrum":false},{"pitch":60,"velocity":110,"startTime":126.9942900625,"endTime":127.075811625,"instrument":7,"program":21,"isDrum":false},{"pitch":61,"velocity":110,"startTime":127.11385502083334,"endTime":127.20081135416669,"instrument":7,"program":21,"isDrum":false},{"pitch":62,"velocity":99,"startTime":127.25515906250001,"endTime":127.36385447916669,"instrument":7,"program":21,"isDrum":false},{"pitch":61,"velocity":110,"startTime":127.38015879166667,"endTime":127.46711512500002,"instrument":7,"program":21,"isDrum":false},{"pitch":62,"velocity":84,"startTime":127.49972375000002,"endTime":127.59211485416668,"instrument":7,"program":21,"isDrum":false},{"pitch":64,"velocity":110,"startTime":127.6464625625,"endTime":127.73341889583335,"instrument":7,"program":21,"isDrum":false},{"pitch":66,"velocity":110,"startTime":127.77689706250001,"endTime":127.86385339583333,"instrument":7,"program":21,"isDrum":false},{"pitch":65,"velocity":99,"startTime":127.90189679166667,"endTime":127.99428789583334,"instrument":7,"program":21,"isDrum":false},{"pitch":66,"velocity":110,"startTime":128.03233129166668,"endTime":128.11385285416668,"instrument":7,"program":21,"isDrum":false},{"pitch":67,"velocity":99,"startTime":128.15733102083334,"endTime":128.26602643750002,"instrument":7,"program":21,"isDrum":false},{"pitch":69,"velocity":84,"startTime":128.2932002916667,"endTime":128.41276525,"instrument":7,"program":21,"isDrum":false},{"pitch":66,"velocity":110,"startTime":128.41820002083335,"endTime":128.51602589583334,"instrument":7,"program":21,"isDrum":false},{"pitch":62,"velocity":84,"startTime":128.53233020833335,"endTime":128.62472131250001,"instrument":7,"program":21,"isDrum":false},{"pitch":63,"velocity":110,"startTime":128.67363425000002,"endTime":128.77689489583335,"instrument":7,"program":21,"isDrum":false},{"pitch":62,"velocity":84,"startTime":128.80950352083335,"endTime":128.8855903125,"instrument":7,"program":21,"isDrum":false},{"pitch":60,"velocity":99,"startTime":128.95080756250002,"endTime":129.06493775,"instrument":7,"program":21,"isDrum":false},{"pitch":58,"velocity":110,"startTime":129.07037252083333,"endTime":129.16819839583334,"instrument":7,"program":21,"isDrum":false},{"pitch":57,"velocity":110,"startTime":129.19537225000002,"endTime":129.28232858333334,"instrument":7,"program":21,"isDrum":false},{"pitch":55,"velocity":84,"startTime":129.34754583333333,"endTime":129.4181978541667,"instrument":7,"program":21,"isDrum":false},{"pitch":75,"velocity":110,"startTime":129.56493666666668,"endTime":129.67363208333333,"instrument":7,"program":21,"isDrum":false},{"pitch":74,"velocity":99,"startTime":129.67363208333333,"endTime":129.78776227083335,"instrument":7,"program":21,"isDrum":false},{"pitch":72,"velocity":84,"startTime":129.80406658333334,"endTime":129.88015337500002,"instrument":7,"program":21,"isDrum":false},{"pitch":70,"velocity":110,"startTime":129.9399358541667,"endTime":130.01602264583335,"instrument":7,"program":21,"isDrum":false},{"pitch":69,"velocity":99,"startTime":130.06493558333335,"endTime":130.14645714583335,"instrument":7,"program":21,"isDrum":false},{"pitch":67,"velocity":84,"startTime":130.16276145833334,"endTime":130.2551525625,"instrument":7,"program":21,"isDrum":false},{"pitch":66,"velocity":110,"startTime":130.30950027083335,"endTime":130.40189137500002,"instrument":7,"program":21,"isDrum":false},{"pitch":63,"velocity":110,"startTime":130.4345,"endTime":130.53232587500003,"instrument":7,"program":21,"isDrum":false},{"pitch":62,"velocity":110,"startTime":130.55949972916667,"endTime":130.65189083333334,"instrument":7,"program":21,"isDrum":false},{"pitch":60,"velocity":107,"startTime":130.66819514583335,"endTime":130.77145579166668,"instrument":7,"program":21,"isDrum":false},{"pitch":58,"velocity":110,"startTime":130.81493395833334,"endTime":130.9018902916667,"instrument":7,"program":21,"isDrum":false},{"pitch":57,"velocity":99,"startTime":130.9399336875,"endTime":131.0323247916667,"instrument":7,"program":21,"isDrum":false},{"pitch":55,"velocity":99,"startTime":131.04319433333333,"endTime":131.13558543750003,"instrument":7,"program":21,"isDrum":false},{"pitch":54,"velocity":110,"startTime":131.184498375,"endTime":131.2768894791667,"instrument":7,"program":21,"isDrum":false},{"pitch":57,"velocity":99,"startTime":131.32036764583333,"endTime":131.4290630625,"instrument":7,"program":21,"isDrum":false},{"pitch":55,"velocity":99,"startTime":131.45080214583334,"endTime":131.53775847916665,"instrument":7,"program":21,"isDrum":false},{"pitch":62,"velocity":110,"startTime":131.73884500000003,"endTime":132.45623475000002,"instrument":7,"program":21,"isDrum":false},{"pitch":60,"velocity":60,"startTime":131.9834096875,"endTime":132.46166952083337,"instrument":7,"program":21,"isDrum":false},{"pitch":66,"velocity":99,"startTime":131.98884445833335,"endTime":132.4399304375,"instrument":7,"program":21,"isDrum":false},{"pitch":67,"velocity":43,"startTime":132.46166952083337,"endTime":132.59753879166666,"instrument":7,"program":21,"isDrum":false},{"pitch":62,"velocity":50,"startTime":132.47797383333335,"endTime":132.59753879166666,"instrument":7,"program":21,"isDrum":false},{"pitch":58,"velocity":110,"startTime":132.48340860416667,"endTime":132.59210402083335,"instrument":7,"program":21,"isDrum":false},{"pitch":67,"velocity":110,"startTime":133.59210185416666,"endTime":133.67362341666666,"instrument":7,"program":21,"isDrum":false},{"pitch":66,"velocity":110,"startTime":133.83666654166666,"endTime":133.90188379166668,"instrument":7,"program":21,"isDrum":false},{"pitch":67,"velocity":110,"startTime":134.05949214583336,"endTime":134.15188325000003,"instrument":7,"program":21,"isDrum":false},{"pitch":69,"velocity":110,"startTime":134.33666545833336,"endTime":134.63014308333337,"instrument":7,"program":21,"isDrum":false},{"pitch":70,"velocity":110,"startTime":134.83666437500003,"endTime":135.30948943750002,"instrument":7,"program":21,"isDrum":false},{"pitch":69,"velocity":110,"startTime":135.3747066875,"endTime":135.45079347916666,"instrument":7,"program":21,"isDrum":false},{"pitch":67,"velocity":110,"startTime":135.66274954166667,"endTime":135.72796679166666,"instrument":7,"program":21,"isDrum":false},{"pitch":66,"velocity":110,"startTime":135.77687972916667,"endTime":135.85296652083335,"instrument":7,"program":21,"isDrum":false},{"pitch":67,"velocity":84,"startTime":135.8964446875,"endTime":135.96166193750003,"instrument":7,"program":21,"isDrum":false},{"pitch":69,"velocity":110,"startTime":136.01600964583335,"endTime":136.09753120833335,"instrument":7,"program":21,"isDrum":false},{"pitch":70,"velocity":110,"startTime":136.141009375,"endTime":136.2225309375,"instrument":7,"program":21,"isDrum":false},{"pitch":69,"velocity":110,"startTime":136.26600910416667,"endTime":136.34209589583335,"instrument":7,"program":21,"isDrum":false},{"pitch":70,"velocity":110,"startTime":136.38013929166667,"endTime":136.46166085416667,"instrument":7,"program":21,"isDrum":false},{"pitch":72,"velocity":99,"startTime":136.52144333333337,"endTime":136.6138344375,"instrument":7,"program":21,"isDrum":false},{"pitch":74,"velocity":99,"startTime":136.65187783333334,"endTime":136.73883416666666,"instrument":7,"program":21,"isDrum":false},{"pitch":72,"velocity":84,"startTime":136.7768775625,"endTime":136.87470343750002,"instrument":7,"program":21,"isDrum":false},{"pitch":70,"velocity":110,"startTime":136.89644252083335,"endTime":136.99426839583336,"instrument":7,"program":21,"isDrum":false},{"pitch":69,"velocity":84,"startTime":137.03231179166667,"endTime":137.13013766666666,"instrument":7,"program":21,"isDrum":false},{"pitch":67,"velocity":55,"startTime":137.16818106250003,"endTime":137.25513739583334,"instrument":7,"program":21,"isDrum":false},{"pitch":69,"velocity":99,"startTime":137.28231125000002,"endTime":137.38557189583335,"instrument":7,"program":21,"isDrum":false},{"pitch":67,"velocity":75,"startTime":137.40731097916668,"endTime":137.48883254166668,"instrument":7,"program":21,"isDrum":false},{"pitch":65,"velocity":99,"startTime":137.54861502083335,"endTime":137.65187566666668,"instrument":7,"program":21,"isDrum":false},{"pitch":63,"velocity":110,"startTime":137.68991906250002,"endTime":137.97252714583337,"instrument":7,"program":21,"isDrum":false},{"pitch":62,"velocity":110,"startTime":137.98883145833335,"endTime":138.07578779166667,"instrument":7,"program":21,"isDrum":false},{"pitch":63,"velocity":110,"startTime":138.227961375,"endTime":138.3094829375,"instrument":7,"program":21,"isDrum":false},{"pitch":65,"velocity":110,"startTime":138.49426514583337,"endTime":138.61383010416668,"instrument":7,"program":21,"isDrum":false},{"pitch":67,"velocity":110,"startTime":138.97252497916668,"endTime":139.44535004166667,"instrument":7,"program":21,"isDrum":false},{"pitch":63,"velocity":110,"startTime":139.4833934375,"endTime":139.57578454166668,"instrument":7,"program":21,"isDrum":false},{"pitch":62,"velocity":110,"startTime":139.81491445833336,"endTime":139.88556647916667,"instrument":7,"program":21,"isDrum":false},{"pitch":61,"velocity":110,"startTime":139.92904464583336,"endTime":139.99969666666667,"instrument":7,"program":21,"isDrum":false},{"pitch":62,"velocity":84,"startTime":140.0377400625,"endTime":140.11382685416666,"instrument":7,"program":21,"isDrum":false},{"pitch":66,"velocity":110,"startTime":140.16273979166667,"endTime":140.2333918125,"instrument":7,"program":21,"isDrum":false},{"pitch":67,"velocity":99,"startTime":140.28773952083336,"endTime":140.38556539583337,"instrument":7,"program":21,"isDrum":false},{"pitch":66,"velocity":110,"startTime":140.41817402083336,"endTime":140.48882604166667,"instrument":7,"program":21,"isDrum":false},{"pitch":67,"velocity":67,"startTime":140.53773897916668,"endTime":140.61926054166668,"instrument":7,"program":21,"isDrum":false},{"pitch":69,"velocity":110,"startTime":140.66817347916668,"endTime":140.74969504166668,"instrument":7,"program":21,"isDrum":false},{"pitch":70,"velocity":110,"startTime":140.78773843750002,"endTime":140.87469477083334,"instrument":7,"program":21,"isDrum":false},{"pitch":69,"velocity":99,"startTime":140.9181729375,"endTime":140.99425972916666,"instrument":7,"program":21,"isDrum":false},{"pitch":70,"velocity":110,"startTime":141.04317266666666,"endTime":141.130129,"instrument":7,"program":21,"isDrum":false},{"pitch":72,"velocity":75,"startTime":141.18991147916668,"endTime":141.2768678125,"instrument":7,"program":21,"isDrum":false},{"pitch":74,"velocity":99,"startTime":141.32034597916666,"endTime":141.4073023125,"instrument":7,"program":21,"isDrum":false},{"pitch":72,"velocity":99,"startTime":141.4399109375,"endTime":141.53773681250001,"instrument":7,"program":21,"isDrum":false},{"pitch":70,"velocity":110,"startTime":141.55404112500003,"endTime":141.66817131250002,"instrument":7,"program":21,"isDrum":false},{"pitch":69,"velocity":84,"startTime":141.68991039583335,"endTime":141.80404058333335,"instrument":7,"program":21,"isDrum":false},{"pitch":67,"velocity":110,"startTime":141.83664920833337,"endTime":142.1246920625,"instrument":7,"program":21,"isDrum":false},{"pitch":66,"velocity":110,"startTime":142.15186591666668,"endTime":142.21708316666667,"instrument":7,"program":21,"isDrum":false},{"pitch":67,"velocity":99,"startTime":142.41273491666666,"endTime":142.4833869375,"instrument":7,"program":21,"isDrum":false},{"pitch":69,"velocity":110,"startTime":142.67360391666668,"endTime":142.73882116666667,"instrument":7,"program":21,"isDrum":false},{"pitch":70,"velocity":110,"startTime":143.15729852083336,"endTime":143.63012358333336,"instrument":7,"program":21,"isDrum":false},{"pitch":69,"velocity":99,"startTime":143.67360175000002,"endTime":143.74968854166667,"instrument":7,"program":21,"isDrum":false},{"pitch":67,"velocity":110,"startTime":143.97794891666666,"endTime":144.04860093750003,"instrument":7,"program":21,"isDrum":false},{"pitch":66,"velocity":110,"startTime":144.097513875,"endTime":144.16816589583337,"instrument":7,"program":21,"isDrum":false},{"pitch":67,"velocity":84,"startTime":144.2116440625,"endTime":144.28773085416668,"instrument":7,"program":21,"isDrum":false},{"pitch":69,"velocity":110,"startTime":144.33664379166666,"endTime":144.41273058333334,"instrument":7,"program":21,"isDrum":false},{"pitch":70,"velocity":110,"startTime":144.45620875,"endTime":144.54316508333335,"instrument":7,"program":21,"isDrum":false},{"pitch":69,"velocity":110,"startTime":144.59751279166667,"endTime":144.6681648125,"instrument":7,"program":21,"isDrum":false},{"pitch":70,"velocity":110,"startTime":144.71164297916667,"endTime":144.79316454166667,"instrument":7,"program":21,"isDrum":false},{"pitch":72,"velocity":67,"startTime":144.85294702083337,"endTime":144.95077289583335,"instrument":7,"program":21,"isDrum":false},{"pitch":74,"velocity":75,"startTime":144.98881629166667,"endTime":145.075772625,"instrument":7,"program":21,"isDrum":false},{"pitch":72,"velocity":75,"startTime":145.11381602083335,"endTime":145.21164189583337,"instrument":7,"program":21,"isDrum":false},{"pitch":70,"velocity":110,"startTime":145.2225114375,"endTime":145.32577208333336,"instrument":7,"program":21,"isDrum":false},{"pitch":69,"velocity":84,"startTime":145.3529459375,"endTime":145.46164135416666,"instrument":7,"program":21,"isDrum":false},{"pitch":67,"velocity":75,"startTime":145.48881520833336,"endTime":145.56490200000002,"instrument":7,"program":21,"isDrum":false},{"pitch":69,"velocity":110,"startTime":145.60294539583336,"endTime":145.70077127083334,"instrument":7,"program":21,"isDrum":false},{"pitch":67,"velocity":75,"startTime":145.72251035416667,"endTime":145.80403191666667,"instrument":7,"program":21,"isDrum":false},{"pitch":65,"velocity":99,"startTime":145.85837962500003,"endTime":145.96707504166667,"instrument":7,"program":21,"isDrum":false},{"pitch":63,"velocity":110,"startTime":146.01055320833336,"endTime":146.33663945833337,"instrument":7,"program":21,"isDrum":false},{"pitch":62,"velocity":99,"startTime":146.35837854166667,"endTime":146.43446533333335,"instrument":7,"program":21,"isDrum":false},{"pitch":63,"velocity":110,"startTime":146.5920736875,"endTime":146.66816047916666,"instrument":7,"program":21,"isDrum":false},{"pitch":65,"velocity":110,"startTime":146.84750791666667,"endTime":146.93989902083337,"instrument":7,"program":21,"isDrum":false},{"pitch":67,"velocity":110,"startTime":147.33663729166668,"endTime":147.80946235416667,"instrument":7,"program":21,"isDrum":false},{"pitch":63,"velocity":110,"startTime":147.84750575,"endTime":147.9290273125,"instrument":7,"program":21,"isDrum":false},{"pitch":62,"velocity":110,"startTime":148.173592,"endTime":148.24967879166667,"instrument":7,"program":21,"isDrum":false},{"pitch":61,"velocity":110,"startTime":148.30402650000002,"endTime":148.38011329166667,"instrument":7,"program":21,"isDrum":false},{"pitch":62,"velocity":84,"startTime":148.43446100000003,"endTime":148.49967825000002,"instrument":7,"program":21,"isDrum":false},{"pitch":66,"velocity":99,"startTime":148.5648955,"endTime":148.63011275000002,"instrument":7,"program":21,"isDrum":false},{"pitch":67,"velocity":84,"startTime":148.69533,"endTime":148.79315587500002,"instrument":7,"program":21,"isDrum":false},{"pitch":66,"velocity":110,"startTime":148.82576450000002,"endTime":148.90185129166667,"instrument":7,"program":21,"isDrum":false},{"pitch":67,"velocity":84,"startTime":148.95619900000003,"endTime":149.03772056250003,"instrument":7,"program":21,"isDrum":false},{"pitch":69,"velocity":99,"startTime":149.0866335,"endTime":149.1681550625,"instrument":7,"program":21,"isDrum":false},{"pitch":70,"velocity":110,"startTime":149.217068,"endTime":149.30402433333336,"instrument":7,"program":21,"isDrum":false},{"pitch":69,"velocity":99,"startTime":149.34750250000002,"endTime":149.42358929166667,"instrument":7,"program":21,"isDrum":false},{"pitch":70,"velocity":110,"startTime":149.47793700000003,"endTime":149.56489333333334,"instrument":7,"program":21,"isDrum":false},{"pitch":72,"velocity":75,"startTime":149.6083715,"endTime":149.70619737500002,"instrument":7,"program":21,"isDrum":false},{"pitch":74,"velocity":75,"startTime":149.738806,"endTime":149.8203275625,"instrument":7,"program":21,"isDrum":false},{"pitch":75,"velocity":110,"startTime":149.86924050000002,"endTime":149.93989252083335,"instrument":7,"program":21,"isDrum":false},{"pitch":76,"velocity":84,"startTime":149.99967500000002,"endTime":150.08663133333334,"instrument":7,"program":21,"isDrum":false},{"pitch":78,"velocity":110,"startTime":150.1301095,"endTime":150.22250060416667,"instrument":7,"program":21,"isDrum":false},{"pitch":79,"velocity":110,"startTime":150.260544,"endTime":150.41271758333335,"instrument":7,"program":21,"isDrum":false},{"pitch":74,"velocity":75,"startTime":150.85836879166666,"endTime":151.36923725000003,"instrument":7,"program":21,"isDrum":false},{"pitch":75,"velocity":99,"startTime":151.39097633333336,"endTime":152.1029313125,"instrument":7,"program":21,"isDrum":false},{"pitch":74,"velocity":84,"startTime":152.06488791666666,"endTime":152.29314829166668,"instrument":7,"program":21,"isDrum":false},{"pitch":74,"velocity":75,"startTime":152.34206122916666,"endTime":153.0811900625,"instrument":7,"program":21,"isDrum":false},{"pitch":72,"velocity":75,"startTime":153.09205960416668,"endTime":153.26053750000003,"instrument":7,"program":21,"isDrum":false},{"pitch":72,"velocity":84,"startTime":153.35292860416666,"endTime":153.6029280625,"instrument":7,"program":21,"isDrum":false},{"pitch":75,"velocity":110,"startTime":153.64097145833335,"endTime":153.85836229166668,"instrument":7,"program":21,"isDrum":false},{"pitch":74,"velocity":75,"startTime":153.89097091666667,"endTime":154.62466497916668,"instrument":7,"program":21,"isDrum":false},{"pitch":72,"velocity":110,"startTime":154.96162077083335,"endTime":155.42357629166668,"instrument":7,"program":21,"isDrum":false},{"pitch":74,"velocity":110,"startTime":155.46161968750002,"endTime":156.14096604166667,"instrument":7,"program":21,"isDrum":false},{"pitch":72,"velocity":84,"startTime":156.1790094375,"endTime":156.39640027083337,"instrument":7,"program":21,"isDrum":false},{"pitch":72,"velocity":110,"startTime":156.49966091666667,"endTime":157.206181125,"instrument":7,"program":21,"isDrum":false},{"pitch":70,"velocity":99,"startTime":157.22792020833336,"endTime":157.44531104166668,"instrument":7,"program":21,"isDrum":false},{"pitch":70,"velocity":110,"startTime":157.54313691666667,"endTime":157.77139729166666,"instrument":7,"program":21,"isDrum":false},{"pitch":74,"velocity":84,"startTime":157.81487545833335,"endTime":158.01596197916666,"instrument":7,"program":21,"isDrum":false},{"pitch":72,"velocity":67,"startTime":158.07574445833336,"endTime":159.09204660416668,"instrument":7,"program":21,"isDrum":false},{"pitch":70,"velocity":110,"startTime":159.1137856875,"endTime":159.57030643750002,"instrument":7,"program":21,"isDrum":false},{"pitch":72,"velocity":99,"startTime":159.60834983333336,"endTime":160.3203048125,"instrument":7,"program":21,"isDrum":false},{"pitch":70,"velocity":110,"startTime":160.33117435416668,"endTime":160.58660858333334,"instrument":7,"program":21,"isDrum":false},{"pitch":70,"velocity":110,"startTime":160.65182583333336,"endTime":161.36921558333336,"instrument":7,"program":21,"isDrum":false},{"pitch":69,"velocity":99,"startTime":161.40182420833335,"endTime":161.59747595833335,"instrument":7,"program":21,"isDrum":false},{"pitch":69,"velocity":110,"startTime":161.6898670625,"endTime":161.92899697916667,"instrument":7,"program":21,"isDrum":false},{"pitch":72,"velocity":99,"startTime":161.967040375,"endTime":162.17899643750002,"instrument":7,"program":21,"isDrum":false},{"pitch":70,"velocity":110,"startTime":162.21703983333336,"endTime":163.20073335416666,"instrument":7,"program":21,"isDrum":false},{"pitch":69,"velocity":99,"startTime":163.24964629166666,"endTime":163.76594952083335,"instrument":7,"program":21,"isDrum":false},{"pitch":67,"velocity":99,"startTime":163.7768190625,"endTime":164.30399183333336,"instrument":7,"program":21,"isDrum":false},{"pitch":66,"velocity":110,"startTime":164.33660045833335,"endTime":164.83116460416667,"instrument":7,"program":21,"isDrum":false},{"pitch":67,"velocity":75,"startTime":164.84746891666668,"endTime":164.91812093750002,"instrument":7,"program":21,"isDrum":false},{"pitch":62,"velocity":99,"startTime":165.097468375,"endTime":165.78768427083335,"instrument":7,"program":21,"isDrum":false},{"pitch":60,"velocity":84,"startTime":165.36920691666668,"endTime":165.83659720833336,"instrument":7,"program":21,"isDrum":false},{"pitch":66,"velocity":99,"startTime":165.3746416875,"endTime":165.82029289583335,"instrument":7,"program":21,"isDrum":false},{"pitch":67,"velocity":53,"startTime":165.84746675000002,"endTime":166.00507510416668,"instrument":7,"program":21,"isDrum":false},{"pitch":62,"velocity":75,"startTime":165.85290152083337,"endTime":165.9942055625,"instrument":7,"program":21,"isDrum":false},{"pitch":58,"velocity":110,"startTime":165.85833629166666,"endTime":165.98333602083335,"instrument":7,"program":21,"isDrum":false},{"pitch":50,"velocity":75,"startTime":167.08659450000002,"endTime":167.16811606250002,"instrument":7,"program":21,"isDrum":false},{"pitch":50,"velocity":99,"startTime":167.21702900000003,"endTime":167.314854875,"instrument":7,"program":21,"isDrum":false},{"pitch":50,"velocity":110,"startTime":167.3474635,"endTime":167.45072414583336,"instrument":7,"program":21,"isDrum":false},{"pitch":54,"velocity":110,"startTime":167.477898,"endTime":167.57572387500002,"instrument":7,"program":21,"isDrum":false},{"pitch":54,"velocity":99,"startTime":167.60833250000002,"endTime":167.66811497916666,"instrument":7,"program":21,"isDrum":false},{"pitch":54,"velocity":110,"startTime":167.73876700000002,"endTime":167.81485379166668,"instrument":7,"program":21,"isDrum":false},{"pitch":54,"velocity":110,"startTime":167.8692015,"endTime":167.9181144375,"instrument":7,"program":21,"isDrum":false},{"pitch":57,"velocity":110,"startTime":167.999636,"endTime":168.09746187500002,"instrument":7,"program":21,"isDrum":false},{"pitch":57,"velocity":65,"startTime":168.13007050000002,"endTime":168.20072252083335,"instrument":7,"program":21,"isDrum":false},{"pitch":57,"velocity":99,"startTime":168.26050500000002,"endTime":168.34746133333337,"instrument":7,"program":21,"isDrum":false},{"pitch":57,"velocity":75,"startTime":168.3909395,"endTime":168.4724610625,"instrument":7,"program":21,"isDrum":false},{"pitch":60,"velocity":99,"startTime":168.521374,"endTime":168.6028955625,"instrument":7,"program":21,"isDrum":false},{"pitch":60,"velocity":84,"startTime":168.65180850000002,"endTime":168.72789529166667,"instrument":7,"program":21,"isDrum":false},{"pitch":60,"velocity":99,"startTime":168.78224300000002,"endTime":168.85832979166668,"instrument":7,"program":21,"isDrum":false},{"pitch":60,"velocity":84,"startTime":168.9126775,"endTime":168.9941990625,"instrument":7,"program":21,"isDrum":false},{"pitch":63,"velocity":110,"startTime":169.043112,"endTime":169.10832925000003,"instrument":7,"program":21,"isDrum":false},{"pitch":63,"velocity":110,"startTime":169.17354650000001,"endTime":169.23876375,"instrument":7,"program":21,"isDrum":false},{"pitch":63,"velocity":110,"startTime":169.30398100000002,"endTime":169.38550256250002,"instrument":7,"program":21,"isDrum":false},{"pitch":63,"velocity":110,"startTime":169.43441550000003,"endTime":169.49419797916667,"instrument":7,"program":21,"isDrum":false},{"pitch":62,"velocity":110,"startTime":169.56485,"endTime":169.65180633333335,"instrument":7,"program":21,"isDrum":false},{"pitch":62,"velocity":84,"startTime":169.6952845,"endTime":169.77137129166667,"instrument":7,"program":21,"isDrum":false},{"pitch":62,"velocity":110,"startTime":169.82571900000002,"endTime":169.91267533333337,"instrument":7,"program":21,"isDrum":false},{"pitch":62,"velocity":84,"startTime":169.95615350000003,"endTime":170.03767506250003,"instrument":7,"program":21,"isDrum":false},{"pitch":60,"velocity":99,"startTime":170.086588,"endTime":170.18441387500002,"instrument":7,"program":21,"isDrum":false},{"pitch":60,"velocity":84,"startTime":170.2170225,"endTime":170.29310929166667,"instrument":7,"program":21,"isDrum":false},{"pitch":60,"velocity":99,"startTime":170.34745700000002,"endTime":170.445282875,"instrument":7,"program":21,"isDrum":false},{"pitch":60,"velocity":75,"startTime":170.47789150000003,"endTime":170.54854352083336,"instrument":7,"program":21,"isDrum":false},{"pitch":57,"velocity":99,"startTime":170.608326,"endTime":170.70071710416667,"instrument":7,"program":21,"isDrum":false},{"pitch":57,"velocity":84,"startTime":170.7387605,"endTime":170.81484729166667,"instrument":7,"program":21,"isDrum":false},{"pitch":57,"velocity":67,"startTime":170.86919500000002,"endTime":170.95071656250002,"instrument":7,"program":21,"isDrum":false},{"pitch":57,"velocity":84,"startTime":170.99962950000003,"endTime":171.08115106250003,"instrument":7,"program":21,"isDrum":false},{"pitch":58,"velocity":110,"startTime":171.130064,"endTime":171.2115855625,"instrument":7,"program":21,"isDrum":false},{"pitch":58,"velocity":110,"startTime":171.2604985,"endTime":171.32028097916668,"instrument":7,"program":21,"isDrum":false},{"pitch":58,"velocity":110,"startTime":171.39093300000002,"endTime":171.47245456250002,"instrument":7,"program":21,"isDrum":false},{"pitch":58,"velocity":110,"startTime":171.52136750000003,"endTime":171.60288906250003,"instrument":7,"program":21,"isDrum":false},{"pitch":62,"velocity":110,"startTime":171.651802,"endTime":171.74419310416667,"instrument":7,"program":21,"isDrum":false},{"pitch":62,"velocity":84,"startTime":171.7822365,"endTime":171.84745375000003,"instrument":7,"program":21,"isDrum":false},{"pitch":62,"velocity":110,"startTime":171.91267100000002,"endTime":171.99419256250002,"instrument":7,"program":21,"isDrum":false},{"pitch":62,"velocity":99,"startTime":172.04310550000002,"endTime":172.12462706250002,"instrument":7,"program":21,"isDrum":false},{"pitch":67,"velocity":110,"startTime":172.17354,"endTime":172.26049633333335,"instrument":7,"program":21,"isDrum":false},{"pitch":67,"velocity":84,"startTime":172.3039745,"endTime":172.39093083333336,"instrument":7,"program":21,"isDrum":false},{"pitch":67,"velocity":84,"startTime":172.43440900000002,"endTime":172.51593056250002,"instrument":7,"program":21,"isDrum":false},{"pitch":67,"velocity":84,"startTime":172.56484350000002,"endTime":172.64636506250002,"instrument":7,"program":21,"isDrum":false},{"pitch":69,"velocity":110,"startTime":172.695278,"endTime":172.78223433333335,"instrument":7,"program":21,"isDrum":false},{"pitch":69,"velocity":84,"startTime":172.8257125,"endTime":172.9072340625,"instrument":7,"program":21,"isDrum":false},{"pitch":69,"velocity":99,"startTime":172.95614700000002,"endTime":173.03766856250002,"instrument":7,"program":21,"isDrum":false},{"pitch":69,"velocity":99,"startTime":173.08658150000002,"endTime":173.17353783333337,"instrument":7,"program":21,"isDrum":false},{"pitch":70,"velocity":110,"startTime":173.217016,"endTime":173.29310279166668,"instrument":7,"program":21,"isDrum":false},{"pitch":70,"velocity":110,"startTime":173.3474505,"endTime":173.41266775000003,"instrument":7,"program":21,"isDrum":false},{"pitch":70,"velocity":110,"startTime":173.47788500000001,"endTime":173.55397179166667,"instrument":7,"program":21,"isDrum":false},{"pitch":70,"velocity":110,"startTime":173.60831950000002,"endTime":173.68440629166668,"instrument":7,"program":21,"isDrum":false},{"pitch":69,"velocity":99,"startTime":173.73875400000003,"endTime":173.83114510416667,"instrument":7,"program":21,"isDrum":false},{"pitch":69,"velocity":84,"startTime":173.8691885,"endTime":173.94527529166666,"instrument":7,"program":21,"isDrum":false},{"pitch":69,"velocity":84,"startTime":173.999623,"endTime":174.08657933333336,"instrument":7,"program":21,"isDrum":false},{"pitch":69,"velocity":84,"startTime":174.13005750000002,"endTime":174.20614429166667,"instrument":7,"program":21,"isDrum":false},{"pitch":67,"velocity":110,"startTime":174.26049200000003,"endTime":174.34744833333335,"instrument":7,"program":21,"isDrum":false},{"pitch":67,"velocity":84,"startTime":174.3909265,"endTime":174.46701329166666,"instrument":7,"program":21,"isDrum":false},{"pitch":67,"velocity":99,"startTime":174.521361,"endTime":174.59744779166667,"instrument":7,"program":21,"isDrum":false},{"pitch":67,"velocity":75,"startTime":174.65179550000002,"endTime":174.73875183333337,"instrument":7,"program":21,"isDrum":false},{"pitch":66,"velocity":110,"startTime":174.78223000000003,"endTime":174.85831679166668,"instrument":7,"program":21,"isDrum":false},{"pitch":66,"velocity":110,"startTime":174.9126645,"endTime":174.98331652083337,"instrument":7,"program":21,"isDrum":false},{"pitch":66,"velocity":110,"startTime":175.043099,"endTime":175.11375102083335,"instrument":7,"program":21,"isDrum":false},{"pitch":66,"velocity":110,"startTime":175.17353350000002,"endTime":175.24962029166667,"instrument":7,"program":21,"isDrum":false},{"pitch":69,"velocity":110,"startTime":175.30396800000003,"endTime":175.40722864583336,"instrument":7,"program":21,"isDrum":false},{"pitch":69,"velocity":84,"startTime":175.4344025,"endTime":175.50505452083337,"instrument":7,"program":21,"isDrum":false},{"pitch":69,"velocity":110,"startTime":175.564837,"endTime":175.65722810416668,"instrument":7,"program":21,"isDrum":false},{"pitch":69,"velocity":75,"startTime":175.69527150000002,"endTime":175.77679306250002,"instrument":7,"program":21,"isDrum":false},{"pitch":66,"velocity":110,"startTime":175.82570600000003,"endTime":175.91809710416666,"instrument":7,"program":21,"isDrum":false},{"pitch":66,"velocity":110,"startTime":175.9561405,"endTime":176.02679252083337,"instrument":7,"program":21,"isDrum":false},{"pitch":66,"velocity":110,"startTime":176.086575,"endTime":176.16266179166666,"instrument":7,"program":21,"isDrum":false},{"pitch":66,"velocity":110,"startTime":176.21700950000002,"endTime":176.249618125,"instrument":7,"program":21,"isDrum":false},{"pitch":62,"velocity":110,"startTime":176.34744400000002,"endTime":176.445269875,"instrument":7,"program":21,"isDrum":false},{"pitch":62,"velocity":75,"startTime":176.4778785,"endTime":176.55396529166669,"instrument":7,"program":21,"isDrum":false},{"pitch":62,"velocity":99,"startTime":176.608313,"endTime":176.70070410416668,"instrument":7,"program":21,"isDrum":false},{"pitch":62,"velocity":84,"startTime":176.73874750000002,"endTime":176.81483429166667,"instrument":7,"program":21,"isDrum":false},{"pitch":60,"velocity":99,"startTime":176.86918200000002,"endTime":176.96157310416666,"instrument":7,"program":21,"isDrum":false},{"pitch":60,"velocity":84,"startTime":176.9996165,"endTime":177.0811380625,"instrument":7,"program":21,"isDrum":false},{"pitch":60,"velocity":99,"startTime":177.130051,"endTime":177.2115725625,"instrument":7,"program":21,"isDrum":false},{"pitch":60,"velocity":75,"startTime":177.26048550000002,"endTime":177.33657229166667,"instrument":7,"program":21,"isDrum":false},{"pitch":57,"velocity":99,"startTime":177.39092000000002,"endTime":177.48331110416666,"instrument":7,"program":21,"isDrum":false},{"pitch":57,"velocity":75,"startTime":177.52135450000003,"endTime":177.59744129166668,"instrument":7,"program":21,"isDrum":false},{"pitch":57,"velocity":84,"startTime":177.651789,"endTime":177.73874533333336,"instrument":7,"program":21,"isDrum":false},{"pitch":57,"velocity":75,"startTime":177.78222350000001,"endTime":177.85831029166667,"instrument":7,"program":21,"isDrum":false},{"pitch":54,"velocity":110,"startTime":177.91265800000002,"endTime":177.99961433333337,"instrument":7,"program":21,"isDrum":false},{"pitch":54,"velocity":110,"startTime":178.04309250000003,"endTime":178.11917929166668,"instrument":7,"program":21,"isDrum":false},{"pitch":54,"velocity":75,"startTime":178.173527,"endTime":178.27678764583337,"instrument":7,"program":21,"isDrum":false},{"pitch":54,"velocity":99,"startTime":178.3039615,"endTime":178.39091783333336,"instrument":7,"program":21,"isDrum":false},{"pitch":50,"velocity":110,"startTime":178.43439600000002,"endTime":178.53765664583335,"instrument":7,"program":21,"isDrum":false},{"pitch":50,"velocity":75,"startTime":178.56483050000003,"endTime":178.64091729166668,"instrument":7,"program":21,"isDrum":false},{"pitch":50,"velocity":84,"startTime":178.695265,"endTime":178.78765610416667,"instrument":7,"program":21,"isDrum":false},{"pitch":50,"velocity":75,"startTime":178.8256995,"endTime":178.90178629166667,"instrument":7,"program":21,"isDrum":false},{"pitch":54,"velocity":110,"startTime":178.95613400000002,"endTime":179.03765556250002,"instrument":7,"program":21,"isDrum":false},{"pitch":54,"velocity":99,"startTime":179.08656850000003,"endTime":179.14635097916667,"instrument":7,"program":21,"isDrum":false},{"pitch":54,"velocity":110,"startTime":179.217003,"endTime":179.29308979166666,"instrument":7,"program":21,"isDrum":false},{"pitch":54,"velocity":110,"startTime":179.3474375,"endTime":179.41808952083335,"instrument":7,"program":21,"isDrum":false},{"pitch":55,"velocity":110,"startTime":179.47787200000002,"endTime":179.58113264583335,"instrument":7,"program":21,"isDrum":false},{"pitch":55,"velocity":84,"startTime":179.60830650000003,"endTime":179.68439329166668,"instrument":7,"program":21,"isDrum":false},{"pitch":55,"velocity":110,"startTime":179.738741,"endTime":179.83113210416667,"instrument":7,"program":21,"isDrum":false},{"pitch":55,"velocity":84,"startTime":179.8691755,"endTime":179.93982752083335,"instrument":7,"program":21,"isDrum":false},{"pitch":50,"velocity":99,"startTime":179.99961000000002,"endTime":180.08113156250002,"instrument":7,"program":21,"isDrum":false},{"pitch":50,"velocity":84,"startTime":180.13004450000003,"endTime":180.21156606250003,"instrument":7,"program":21,"isDrum":false},{"pitch":50,"velocity":84,"startTime":180.260479,"endTime":180.35287010416667,"instrument":7,"program":21,"isDrum":false},{"pitch":50,"velocity":75,"startTime":180.3909135,"endTime":180.48330460416668,"instrument":7,"program":21,"isDrum":false},{"pitch":58,"velocity":110,"startTime":180.52134800000002,"endTime":180.59200002083335,"instrument":7,"program":21,"isDrum":false},{"pitch":58,"velocity":110,"startTime":180.65178250000002,"endTime":180.7006954375,"instrument":7,"program":21,"isDrum":false},{"pitch":58,"velocity":110,"startTime":180.782217,"endTime":180.85830379166669,"instrument":7,"program":21,"isDrum":false},{"pitch":58,"velocity":99,"startTime":180.9126515,"endTime":180.95612966666667,"instrument":7,"program":21,"isDrum":false},{"pitch":55,"velocity":99,"startTime":181.04308600000002,"endTime":181.13547710416668,"instrument":7,"program":21,"isDrum":false},{"pitch":55,"velocity":84,"startTime":181.17352050000002,"endTime":181.24417252083336,"instrument":7,"program":21,"isDrum":false},{"pitch":55,"velocity":110,"startTime":181.303955,"endTime":181.38004179166668,"instrument":7,"program":21,"isDrum":false},{"pitch":55,"velocity":75,"startTime":181.4343895,"endTime":181.51047629166666,"instrument":7,"program":21,"isDrum":false},{"pitch":62,"velocity":99,"startTime":181.56482400000002,"endTime":181.63547602083335,"instrument":7,"program":21,"isDrum":false},{"pitch":62,"velocity":99,"startTime":181.69525850000002,"endTime":181.76591052083336,"instrument":7,"program":21,"isDrum":false},{"pitch":62,"velocity":99,"startTime":181.82569300000003,"endTime":181.91264933333335,"instrument":7,"program":21,"isDrum":false},{"pitch":62,"velocity":75,"startTime":181.9561275,"endTime":182.02677952083337,"instrument":7,"program":21,"isDrum":false},{"pitch":58,"velocity":110,"startTime":182.08656200000001,"endTime":182.15721402083335,"instrument":7,"program":21,"isDrum":false},{"pitch":58,"velocity":110,"startTime":182.21699650000002,"endTime":182.27677897916666,"instrument":7,"program":21,"isDrum":false},{"pitch":58,"velocity":110,"startTime":182.34743100000003,"endTime":182.41808302083336,"instrument":7,"program":21,"isDrum":false},{"pitch":58,"velocity":110,"startTime":182.4778655,"endTime":182.53764797916668,"instrument":7,"program":21,"isDrum":false},{"pitch":62,"velocity":99,"startTime":182.6083,"endTime":182.69525633333336,"instrument":7,"program":21,"isDrum":false},{"pitch":62,"velocity":100,"startTime":182.73873450000002,"endTime":182.836560375,"instrument":7,"program":21,"isDrum":false},{"pitch":62,"velocity":96,"startTime":182.86916900000003,"endTime":182.94525579166668,"instrument":7,"program":21,"isDrum":false},{"pitch":62,"velocity":104,"startTime":182.9996035,"endTime":183.09742937500002,"instrument":7,"program":21,"isDrum":false},{"pitch":59,"velocity":99,"startTime":183.130038,"endTime":183.22786387500003,"instrument":7,"program":21,"isDrum":false},{"pitch":59,"velocity":84,"startTime":183.26047250000002,"endTime":183.33655929166667,"instrument":7,"program":21,"isDrum":false},{"pitch":59,"velocity":99,"startTime":183.39090700000003,"endTime":183.47242856250003,"instrument":7,"program":21,"isDrum":false},{"pitch":59,"velocity":99,"startTime":183.5213415,"endTime":183.6028630625,"instrument":7,"program":21,"isDrum":false},{"pitch":60,"velocity":110,"startTime":183.651776,"endTime":183.73873233333336,"instrument":7,"program":21,"isDrum":false},{"pitch":60,"velocity":75,"startTime":183.78221050000002,"endTime":183.85829729166667,"instrument":7,"program":21,"isDrum":false},{"pitch":60,"velocity":84,"startTime":183.91264500000003,"endTime":183.99416656250003,"instrument":7,"program":21,"isDrum":false},{"pitch":60,"velocity":84,"startTime":184.0430795,"endTime":184.11916629166666,"instrument":7,"program":21,"isDrum":false},{"pitch":63,"velocity":110,"startTime":184.173514,"endTime":184.23873125000003,"instrument":7,"program":21,"isDrum":false},{"pitch":63,"velocity":110,"startTime":184.30394850000002,"endTime":184.35829620833337,"instrument":7,"program":21,"isDrum":false},{"pitch":63,"velocity":110,"startTime":184.43438300000003,"endTime":184.51046979166668,"instrument":7,"program":21,"isDrum":false},{"pitch":63,"velocity":110,"startTime":184.5648175,"endTime":184.63546952083337,"instrument":7,"program":21,"isDrum":false},{"pitch":67,"velocity":99,"startTime":184.695252,"endTime":184.78220833333336,"instrument":7,"program":21,"isDrum":false},{"pitch":67,"velocity":75,"startTime":184.82568650000002,"endTime":184.89633852083335,"instrument":7,"program":21,"isDrum":false},{"pitch":67,"velocity":99,"startTime":184.95612100000002,"endTime":185.053946875,"instrument":7,"program":21,"isDrum":false},{"pitch":67,"velocity":84,"startTime":185.0865555,"endTime":185.15720752083337,"instrument":7,"program":21,"isDrum":false},{"pitch":66,"velocity":110,"startTime":185.21699,"endTime":185.29307679166666,"instrument":7,"program":21,"isDrum":false},{"pitch":66,"velocity":110,"startTime":185.34742450000002,"endTime":185.41264175,"instrument":7,"program":21,"isDrum":false},{"pitch":66,"velocity":110,"startTime":185.47785900000002,"endTime":185.55394579166668,"instrument":7,"program":21,"isDrum":false},{"pitch":66,"velocity":110,"startTime":185.6082935,"endTime":185.68438029166668,"instrument":7,"program":21,"isDrum":false},{"pitch":67,"velocity":75,"startTime":185.738728,"endTime":185.84198864583337,"instrument":7,"program":21,"isDrum":false},{"pitch":67,"velocity":75,"startTime":185.86916250000002,"endTime":185.93437975,"instrument":7,"program":21,"isDrum":false},{"pitch":67,"velocity":99,"startTime":185.99959700000002,"endTime":186.09198810416666,"instrument":7,"program":21,"isDrum":false},{"pitch":67,"velocity":84,"startTime":186.13003150000003,"endTime":186.20611829166668,"instrument":7,"program":21,"isDrum":false},{"pitch":69,"velocity":99,"startTime":186.260466,"endTime":186.34742233333336,"instrument":7,"program":21,"isDrum":false},{"pitch":69,"velocity":84,"startTime":186.39090050000001,"endTime":186.47242206250002,"instrument":7,"program":21,"isDrum":false},{"pitch":69,"velocity":84,"startTime":186.52133500000002,"endTime":186.61372610416666,"instrument":7,"program":21,"isDrum":false},{"pitch":69,"velocity":99,"startTime":186.65176950000003,"endTime":186.72242152083336,"instrument":7,"program":21,"isDrum":false},{"pitch":70,"velocity":110,"startTime":186.782204,"endTime":186.85285602083337,"instrument":7,"program":21,"isDrum":false},{"pitch":70,"velocity":110,"startTime":186.9126385,"endTime":186.96698620833337,"instrument":7,"program":21,"isDrum":false},{"pitch":70,"velocity":110,"startTime":187.04307300000002,"endTime":187.11915979166668,"instrument":7,"program":21,"isDrum":false},{"pitch":70,"velocity":110,"startTime":187.17350750000003,"endTime":187.24415952083336,"instrument":7,"program":21,"isDrum":false},{"pitch":69,"velocity":110,"startTime":187.303942,"endTime":187.39089833333335,"instrument":7,"program":21,"isDrum":false},{"pitch":69,"velocity":84,"startTime":187.4343765,"endTime":187.5158980625,"instrument":7,"program":21,"isDrum":false},{"pitch":69,"velocity":84,"startTime":187.56481100000002,"endTime":187.65176733333337,"instrument":7,"program":21,"isDrum":false},{"pitch":69,"velocity":84,"startTime":187.69524550000003,"endTime":187.78220183333335,"instrument":7,"program":21,"isDrum":false},{"pitch":67,"velocity":99,"startTime":187.82568,"endTime":187.92350587500002,"instrument":7,"program":21,"isDrum":false},{"pitch":67,"velocity":84,"startTime":187.9561145,"endTime":188.0376360625,"instrument":7,"program":21,"isDrum":false},{"pitch":67,"velocity":84,"startTime":188.08654900000002,"endTime":188.15720102083336,"instrument":7,"program":21,"isDrum":false},{"pitch":67,"velocity":67,"startTime":188.21698350000003,"endTime":188.29307029166668,"instrument":7,"program":21,"isDrum":false},{"pitch":66,"velocity":110,"startTime":188.347418,"endTime":188.4235047916667,"instrument":7,"program":21,"isDrum":false},{"pitch":66,"velocity":110,"startTime":188.4778525,"endTime":188.54850452083335,"instrument":7,"program":21,"isDrum":false},{"pitch":66,"velocity":110,"startTime":188.60828700000002,"endTime":188.68980856250002,"instrument":7,"program":21,"isDrum":false},{"pitch":66,"velocity":110,"startTime":188.73872150000003,"endTime":188.79850397916667,"instrument":7,"program":21,"isDrum":false},{"pitch":65,"velocity":110,"startTime":188.869156,"endTime":188.9506775625,"instrument":7,"program":21,"isDrum":false},{"pitch":65,"velocity":84,"startTime":188.9995905,"endTime":189.0811120625,"instrument":7,"program":21,"isDrum":false},{"pitch":65,"velocity":99,"startTime":189.13002500000002,"endTime":189.22241610416668,"instrument":7,"program":21,"isDrum":false},{"pitch":65,"velocity":84,"startTime":189.26045950000002,"endTime":189.33654629166668,"instrument":7,"program":21,"isDrum":false},{"pitch":64,"velocity":110,"startTime":189.390894,"endTime":189.48328510416667,"instrument":7,"program":21,"isDrum":false},{"pitch":64,"velocity":75,"startTime":189.5213285,"endTime":189.60828483333336,"instrument":7,"program":21,"isDrum":false},{"pitch":64,"velocity":84,"startTime":189.65176300000002,"endTime":189.73871933333336,"instrument":7,"program":21,"isDrum":false},{"pitch":64,"velocity":75,"startTime":189.78219750000002,"endTime":189.86371906250002,"instrument":7,"program":21,"isDrum":false},{"pitch":63,"velocity":110,"startTime":189.91263200000003,"endTime":190.00502310416667,"instrument":7,"program":21,"isDrum":false},{"pitch":63,"velocity":110,"startTime":190.0430665,"endTime":190.11371852083337,"instrument":7,"program":21,"isDrum":false},{"pitch":63,"velocity":110,"startTime":190.17350100000002,"endTime":190.25502256250002,"instrument":7,"program":21,"isDrum":false},{"pitch":63,"velocity":110,"startTime":190.30393550000002,"endTime":190.36371797916667,"instrument":7,"program":21,"isDrum":false},{"pitch":62,"velocity":110,"startTime":190.43437000000003,"endTime":190.52132633333335,"instrument":7,"program":21,"isDrum":false},{"pitch":62,"velocity":84,"startTime":190.5648045,"endTime":190.64089129166666,"instrument":7,"program":21,"isDrum":false},{"pitch":62,"velocity":84,"startTime":190.69523900000002,"endTime":190.77676056250002,"instrument":7,"program":21,"isDrum":false},{"pitch":62,"velocity":75,"startTime":190.82567350000002,"endTime":190.91262983333337,"instrument":7,"program":21,"isDrum":false},{"pitch":61,"velocity":110,"startTime":190.95610800000003,"endTime":191.03762956250003,"instrument":7,"program":21,"isDrum":false},{"pitch":61,"velocity":110,"startTime":191.0865425,"endTime":191.15175975000002,"instrument":7,"program":21,"isDrum":false},{"pitch":61,"velocity":110,"startTime":191.216977,"endTime":191.29306379166667,"instrument":7,"program":21,"isDrum":false},{"pitch":61,"velocity":110,"startTime":191.34741150000002,"endTime":191.42349829166668,"instrument":7,"program":21,"isDrum":false},{"pitch":62,"velocity":99,"startTime":191.47784600000003,"endTime":191.58110664583336,"instrument":7,"program":21,"isDrum":false},{"pitch":62,"velocity":75,"startTime":191.6082805,"endTime":191.68436729166666,"instrument":7,"program":21,"isDrum":false},{"pitch":62,"velocity":99,"startTime":191.738715,"endTime":191.81480179166667,"instrument":7,"program":21,"isDrum":false},{"pitch":62,"velocity":84,"startTime":191.86914950000002,"endTime":191.94523629166667,"instrument":7,"program":21,"isDrum":false},{"pitch":63,"velocity":110,"startTime":191.99958400000003,"endTime":192.07023602083336,"instrument":7,"program":21,"isDrum":false},{"pitch":63,"velocity":110,"startTime":192.1300185,"endTime":192.20067052083337,"instrument":7,"program":21,"isDrum":false},{"pitch":63,"velocity":110,"startTime":192.260453,"endTime":192.3419745625,"instrument":7,"program":21,"isDrum":false},{"pitch":63,"velocity":110,"startTime":192.39088750000002,"endTime":192.43980043750003,"instrument":7,"program":21,"isDrum":false},{"pitch":62,"velocity":99,"startTime":192.52132200000003,"endTime":192.61371310416666,"instrument":7,"program":21,"isDrum":false},{"pitch":62,"velocity":84,"startTime":192.6517565,"endTime":192.7332780625,"instrument":7,"program":21,"isDrum":false},{"pitch":62,"velocity":84,"startTime":192.782191,"endTime":192.87458210416668,"instrument":7,"program":21,"isDrum":false},{"pitch":62,"velocity":75,"startTime":192.91262550000002,"endTime":192.99958183333337,"instrument":7,"program":21,"isDrum":false},{"pitch":60,"velocity":99,"startTime":193.04306000000003,"endTime":193.13545110416666,"instrument":7,"program":21,"isDrum":false},{"pitch":60,"velocity":75,"startTime":193.1734945,"endTime":193.2495812916667,"instrument":7,"program":21,"isDrum":false},{"pitch":60,"velocity":99,"startTime":193.303929,"endTime":193.40175487500002,"instrument":7,"program":21,"isDrum":false},{"pitch":60,"velocity":75,"startTime":193.43436350000002,"endTime":193.51045029166667,"instrument":7,"program":21,"isDrum":false},{"pitch":57,"velocity":84,"startTime":193.56479800000002,"endTime":193.65175433333337,"instrument":7,"program":21,"isDrum":false},{"pitch":57,"velocity":65,"startTime":193.6952325,"endTime":193.7767540625,"instrument":7,"program":21,"isDrum":false},{"pitch":57,"velocity":99,"startTime":193.825667,"endTime":193.91805810416668,"instrument":7,"program":21,"isDrum":false},{"pitch":57,"velocity":75,"startTime":193.95610150000002,"endTime":194.03218829166667,"instrument":7,"program":21,"isDrum":false},{"pitch":54,"velocity":110,"startTime":194.08653600000002,"endTime":194.16262279166668,"instrument":7,"program":21,"isDrum":false},{"pitch":54,"velocity":110,"startTime":194.21697050000003,"endTime":194.29305729166668,"instrument":7,"program":21,"isDrum":false},{"pitch":54,"velocity":110,"startTime":194.347405,"endTime":194.4289265625,"instrument":7,"program":21,"isDrum":false},{"pitch":54,"velocity":110,"startTime":194.47783950000002,"endTime":194.53218720833337,"instrument":7,"program":21,"isDrum":false},{"pitch":50,"velocity":110,"startTime":194.60827400000002,"endTime":194.68979556250002,"instrument":7,"program":21,"isDrum":false},{"pitch":50,"velocity":75,"startTime":194.73870850000003,"endTime":194.80936052083337,"instrument":7,"program":21,"isDrum":false},{"pitch":50,"velocity":99,"startTime":194.869143,"endTime":194.95609933333336,"instrument":7,"program":21,"isDrum":false},{"pitch":50,"velocity":75,"startTime":194.99957750000002,"endTime":195.08109906250002,"instrument":7,"program":21,"isDrum":false},{"pitch":54,"velocity":110,"startTime":195.13001200000002,"endTime":195.21153356250002,"instrument":7,"program":21,"isDrum":false},{"pitch":54,"velocity":99,"startTime":195.26044650000003,"endTime":195.31479420833335,"instrument":7,"program":21,"isDrum":false},{"pitch":54,"velocity":110,"startTime":195.390881,"endTime":195.4724025625,"instrument":7,"program":21,"isDrum":false},{"pitch":54,"velocity":99,"startTime":195.52131550000001,"endTime":195.60827183333336,"instrument":7,"program":21,"isDrum":false},{"pitch":57,"velocity":40,"startTime":195.65175000000002,"endTime":195.73327156250002,"instrument":7,"program":21,"isDrum":false},{"pitch":57,"velocity":60,"startTime":195.78218450000003,"endTime":195.84740175000002,"instrument":7,"program":21,"isDrum":false},{"pitch":57,"velocity":84,"startTime":195.912619,"endTime":195.9941405625,"instrument":7,"program":21,"isDrum":false},{"pitch":57,"velocity":75,"startTime":196.0430535,"endTime":196.11914029166667,"instrument":7,"program":21,"isDrum":false},{"pitch":55,"velocity":99,"startTime":196.17348800000002,"endTime":196.22783570833337,"instrument":7,"program":21,"isDrum":false},{"pitch":75,"velocity":110,"startTime":196.30392250000003,"endTime":196.38544406250003,"instrument":7,"program":21,"isDrum":false},{"pitch":74,"velocity":110,"startTime":196.434357,"endTime":196.53761764583336,"instrument":7,"program":21,"isDrum":false},{"pitch":72,"velocity":75,"startTime":196.5647915,"endTime":196.65718260416668,"instrument":7,"program":21,"isDrum":false},{"pitch":70,"velocity":110,"startTime":196.69522600000002,"endTime":196.78218233333337,"instrument":7,"program":21,"isDrum":false},{"pitch":69,"velocity":99,"startTime":196.82566050000003,"endTime":196.90718206250003,"instrument":7,"program":21,"isDrum":false},{"pitch":67,"velocity":99,"startTime":196.956095,"endTime":197.04848610416667,"instrument":7,"program":21,"isDrum":false},{"pitch":66,"velocity":110,"startTime":197.0865295,"endTime":197.19522491666666,"instrument":7,"program":21,"isDrum":false},{"pitch":63,"velocity":110,"startTime":197.21696400000002,"endTime":197.3310941875,"instrument":7,"program":21,"isDrum":false},{"pitch":62,"velocity":99,"startTime":197.34739850000003,"endTime":197.445224375,"instrument":7,"program":21,"isDrum":false},{"pitch":60,"velocity":75,"startTime":197.477833,"endTime":197.57022410416667,"instrument":7,"program":21,"isDrum":false},{"pitch":58,"velocity":110,"startTime":197.6082675,"endTime":197.70609337500002,"instrument":7,"program":21,"isDrum":false},{"pitch":57,"velocity":99,"startTime":197.73870200000002,"endTime":197.83109310416668,"instrument":7,"program":21,"isDrum":false},{"pitch":55,"velocity":75,"startTime":197.86913650000002,"endTime":197.966962375,"instrument":7,"program":21,"isDrum":false},{"pitch":54,"velocity":110,"startTime":197.999571,"endTime":198.09196210416667,"instrument":7,"program":21,"isDrum":false},{"pitch":57,"velocity":99,"startTime":198.1300055,"endTime":198.23326614583337,"instrument":7,"program":21,"isDrum":false},{"pitch":55,"velocity":84,"startTime":198.26044000000002,"endTime":198.34739633333336,"instrument":7,"program":21,"isDrum":false},{"pitch":62,"velocity":110,"startTime":198.488700375,"endTime":199.21695966666667,"instrument":7,"program":21,"isDrum":false},{"pitch":60,"velocity":75,"startTime":198.75500414583337,"endTime":199.23326397916668,"instrument":7,"program":21,"isDrum":false},{"pitch":66,"velocity":110,"startTime":198.7604389166667,"endTime":199.21695966666667,"instrument":7,"program":21,"isDrum":false},{"pitch":67,"velocity":65,"startTime":199.22782920833336,"endTime":199.40174187500003,"instrument":7,"program":21,"isDrum":false},{"pitch":62,"velocity":99,"startTime":199.24413352083337,"endTime":199.39630710416668,"instrument":7,"program":21,"isDrum":false},{"pitch":58,"velocity":110,"startTime":199.24956829166666,"endTime":199.39630710416668,"instrument":7,"program":21,"isDrum":false}],"totalTime":199.64630656250003,"sourceInfo":{"encodingType":"MIDI","parser":"TONEJS_MIDI_CONVERT"}},"tempo":115,"selectedInstruments":[0,1,2,3,4,5,6,7]},"style":{"trimmedSequence":{"filename":"sunflower.mid","ticksPerQuarter":120,"timeSignatures":[{"time":0,"numerator":4,"denominator":4}],"tempos":[{"time":0,"qpm":91.99998773333498},{"time":425.2065784333333,"qpm":87.00002175000543},{"time":425.34450943333326,"qpm":86.00005160003096},{"time":425.3910210333333,"qpm":85.00004250002125},{"time":425.4027857333333,"qpm":83.99996640001343},{"time":425.4861191,"qpm":82.99995020002989},{"time":425.5463601,"qpm":82.00003553334874},{"time":425.58294544999995,"qpm":80.99997165000993},{"time":425.6199825,"qpm":80},{"time":425.68248249999994,"qpm":78.9999657666815},{"time":425.7077989666666,"qpm":76.99997818333952},{"time":425.7207859833333,"qpm":75.99996960001216},{"time":425.8392070833333,"qpm":75},{"time":425.87920708333326,"qpm":73.99998273333736},{"time":425.90623411666655,"qpm":72.99998296667064},{"time":425.9336313833333,"qpm":72.00002880001152},{"time":426.2808534666666,"qpm":71.00003550001774},{"time":426.3512759666666,"qpm":69.99998833333528},{"time":426.4369902666666,"qpm":69.00001725000432},{"time":426.49496126666656,"qpm":67.99999546666697},{"time":426.6714318666666,"qpm":67.00002903334591},{"time":426.8953123666666,"qpm":80}],"notes":[{"pitch":60,"velocity":105,"startTime":0,"endTime":2.6086959999999983,"instrument":0,"program":0,"isDrum":false},{"pitch":69,"velocity":105,"startTime":0,"endTime":2.6086959999999983,"instrument":0,"program":0,"isDrum":false},{"pitch":62,"velocity":105,"startTime":0,"endTime":2.6086959999999983,"instrument":0,"program":0,"isDrum":false},{"pitch":65,"velocity":105,"startTime":0,"endTime":2.6086959999999983,"instrument":0,"program":0,"isDrum":false},{"pitch":67,"velocity":105,"startTime":4.565217999999998,"endTime":5.217392,"instrument":0,"program":0,"isDrum":false},{"pitch":64,"velocity":105,"startTime":4.565217999999998,"endTime":5.217392,"instrument":0,"program":0,"isDrum":false},{"pitch":72,"velocity":105,"startTime":4.565217999999998,"endTime":5.217392,"instrument":0,"program":0,"isDrum":false},{"pitch":60,"velocity":105,"startTime":5.217392,"endTime":7.826087999999999,"instrument":0,"program":0,"isDrum":false},{"pitch":62,"velocity":105,"startTime":5.217392,"endTime":7.826087999999999,"instrument":0,"program":0,"isDrum":false},{"pitch":65,"velocity":105,"startTime":5.217392,"endTime":7.826087999999999,"instrument":0,"program":0,"isDrum":false},{"pitch":69,"velocity":105,"startTime":5.217392,"endTime":7.826087999999999,"instrument":0,"program":0,"isDrum":false},{"pitch":81,"velocity":90,"startTime":5.831522516666666,"endTime":8.440218516666668,"instrument":0,"program":0,"isDrum":false},{"pitch":77,"velocity":90,"startTime":6.320653016666665,"endTime":8.929349016666666,"instrument":0,"program":0,"isDrum":false},{"pitch":74,"velocity":90,"startTime":6.847826999999999,"endTime":9.456522999999997,"instrument":0,"program":0,"isDrum":false},{"pitch":69,"velocity":90,"startTime":7.565218399999999,"endTime":10.173914399999997,"instrument":0,"program":0,"isDrum":false},{"pitch":60,"velocity":105,"startTime":7.826087999999999,"endTime":8.3152185,"instrument":0,"program":0,"isDrum":false},{"pitch":64,"velocity":105,"startTime":7.826087999999999,"endTime":8.3152185,"instrument":0,"program":0,"isDrum":false},{"pitch":67,"velocity":105,"startTime":7.826087999999999,"endTime":8.3152185,"instrument":0,"program":0,"isDrum":false},{"pitch":57,"velocity":105,"startTime":8.3152185,"endTime":8.967392499999999,"instrument":0,"program":0,"isDrum":false},{"pitch":62,"velocity":105,"startTime":8.3152185,"endTime":8.967392499999999,"instrument":0,"program":0,"isDrum":false},{"pitch":65,"velocity":105,"startTime":8.3152185,"endTime":8.967392499999999,"instrument":0,"program":0,"isDrum":false},{"pitch":55,"velocity":105,"startTime":8.967392499999999,"endTime":9.619566499999998,"instrument":0,"program":0,"isDrum":false},{"pitch":60,"velocity":105,"startTime":8.967392499999999,"endTime":9.619566499999998,"instrument":0,"program":0,"isDrum":false},{"pitch":64,"velocity":105,"startTime":8.967392499999999,"endTime":9.619566499999998,"instrument":0,"program":0,"isDrum":false},{"pitch":57,"velocity":105,"startTime":9.619566499999998,"endTime":10.2717405,"instrument":0,"program":0,"isDrum":false},{"pitch":62,"velocity":105,"startTime":9.619566499999998,"endTime":10.2717405,"instrument":0,"program":0,"isDrum":false},{"pitch":65,"velocity":105,"startTime":9.619566499999998,"endTime":10.2717405,"instrument":0,"program":0,"isDrum":false},{"pitch":57,"velocity":105,"startTime":10.434783999999997,"endTime":13.043479999999999,"instrument":0,"program":0,"isDrum":false},{"pitch":62,"velocity":105,"startTime":10.434783999999997,"endTime":13.043479999999999,"instrument":0,"program":0,"isDrum":false},{"pitch":65,"velocity":105,"startTime":10.434783999999997,"endTime":12.880436499999998,"instrument":0,"program":0,"isDrum":false},{"pitch":72,"velocity":105,"startTime":10.434783999999997,"endTime":13.043479999999999,"instrument":0,"program":0,"isDrum":false},{"pitch":74,"velocity":105,"startTime":12.717392999999998,"endTime":12.880436499999998,"instrument":0,"program":0,"isDrum":false},{"pitch":69,"velocity":105,"startTime":12.717392999999998,"endTime":12.880436499999998,"instrument":0,"program":0,"isDrum":false},{"pitch":77,"velocity":105,"startTime":12.717392999999998,"endTime":12.880436499999998,"instrument":0,"program":0,"isDrum":false},{"pitch":65,"velocity":105,"startTime":12.717392999999998,"endTime":13.043479999999999,"instrument":0,"program":0,"isDrum":false},{"pitch":74,"velocity":105,"startTime":12.880436499999998,"endTime":13.043479999999999,"instrument":0,"program":0,"isDrum":false},{"pitch":69,"velocity":105,"startTime":12.880436499999998,"endTime":13.043479999999999,"instrument":0,"program":0,"isDrum":false},{"pitch":77,"velocity":105,"startTime":12.880436499999998,"endTime":13.043479999999999,"instrument":0,"program":0,"isDrum":false},{"pitch":65,"velocity":105,"startTime":12.880436499999998,"endTime":13.043479999999999,"instrument":0,"program":0,"isDrum":false},{"pitch":64,"velocity":105,"startTime":15.000001999999999,"endTime":15.652175999999997,"instrument":0,"program":0,"isDrum":false},{"pitch":67,"velocity":105,"startTime":15.000001999999999,"endTime":15.652175999999997,"instrument":0,"program":0,"isDrum":false},{"pitch":70,"velocity":105,"startTime":15.000001999999999,"endTime":15.652175999999997,"instrument":0,"program":0,"isDrum":false},{"pitch":76,"velocity":105,"startTime":15.000001999999999,"endTime":15.652175999999997,"instrument":0,"program":0,"isDrum":false},{"pitch":60,"velocity":105,"startTime":15.652175999999997,"endTime":16.1413065,"instrument":0,"program":0,"isDrum":false},{"pitch":64,"velocity":105,"startTime":15.652175999999997,"endTime":16.1413065,"instrument":0,"program":0,"isDrum":false},{"pitch":67,"velocity":105,"startTime":15.652175999999997,"endTime":16.1413065,"instrument":0,"program":0,"isDrum":false},{"pitch":57,"velocity":105,"startTime":16.1413065,"endTime":16.793480499999998,"instrument":0,"program":0,"isDrum":false},{"pitch":62,"velocity":105,"startTime":16.1413065,"endTime":16.793480499999998,"instrument":0,"program":0,"isDrum":false},{"pitch":65,"velocity":105,"startTime":16.1413065,"endTime":16.793480499999998,"instrument":0,"program":0,"isDrum":false},{"pitch":55,"velocity":105,"startTime":16.793480499999998,"endTime":17.445654499999996,"instrument":0,"program":0,"isDrum":false},{"pitch":60,"velocity":105,"startTime":16.793480499999998,"endTime":17.445654499999996,"instrument":0,"program":0,"isDrum":false},{"pitch":64,"velocity":105,"startTime":16.793480499999998,"endTime":17.445654499999996,"instrument":0,"program":0,"isDrum":false},{"pitch":57,"velocity":105,"startTime":17.445654499999996,"endTime":18.0978285,"instrument":0,"program":0,"isDrum":false},{"pitch":62,"velocity":105,"startTime":17.445654499999996,"endTime":18.0978285,"instrument":0,"program":0,"isDrum":false},{"pitch":65,"velocity":105,"startTime":17.445654499999996,"endTime":18.0978285,"instrument":0,"program":0,"isDrum":false},{"pitch":60,"velocity":105,"startTime":18.17935025,"endTime":20.788046249999997,"instrument":0,"program":0,"isDrum":false},{"pitch":65,"velocity":105,"startTime":18.20108938333333,"endTime":20.80978538333333,"instrument":0,"program":0,"isDrum":false},{"pitch":76,"velocity":105,"startTime":18.260871999999996,"endTime":20.869567999999997,"instrument":0,"program":0,"isDrum":false},{"pitch":69,"velocity":105,"startTime":18.260871999999996,"endTime":20.869567999999997,"instrument":0,"program":0,"isDrum":false},{"pitch":50,"velocity":128,"startTime":18.423915499999996,"endTime":20.842394083333335,"instrument":0,"program":0,"isDrum":false},{"pitch":55,"velocity":104,"startTime":18.586958999999997,"endTime":20.842394083333335,"instrument":0,"program":0,"isDrum":false},{"pitch":57,"velocity":117,"startTime":18.750002499999997,"endTime":20.842394083333335,"instrument":0,"program":0,"isDrum":false},{"pitch":60,"velocity":128,"startTime":18.913045999999998,"endTime":20.842394083333335,"instrument":0,"program":0,"isDrum":false},{"pitch":62,"velocity":120,"startTime":19.0760895,"endTime":19.29348083333333,"instrument":0,"program":0,"isDrum":false},{"pitch":67,"velocity":114,"startTime":19.239133,"endTime":20.793481033333332,"instrument":0,"program":0,"isDrum":false},{"pitch":64,"velocity":101,"startTime":19.4021765,"endTime":20.527176649999998,"instrument":0,"program":0,"isDrum":false},{"pitch":62,"velocity":104,"startTime":20.097828766666662,"endTime":20.750002766666665,"instrument":0,"program":0,"isDrum":false},{"pitch":72,"velocity":104,"startTime":20.135872249999995,"endTime":20.788046249999997,"instrument":0,"program":0,"isDrum":false},{"pitch":67,"velocity":104,"startTime":20.14130703333333,"endTime":20.842394083333335,"instrument":0,"program":0,"isDrum":false},{"pitch":76,"velocity":104,"startTime":20.217393999999995,"endTime":20.869567999999997,"instrument":0,"program":0,"isDrum":false},{"pitch":38,"velocity":110,"startTime":0,"endTime":0.32608699999999935,"instrument":1,"program":32,"isDrum":false},{"pitch":45,"velocity":110,"startTime":0.4891304999999999,"endTime":0.6521739999999987,"instrument":1,"program":32,"isDrum":false},{"pitch":50,"velocity":110,"startTime":0.6521739999999987,"endTime":0.8152174999999993,"instrument":1,"program":32,"isDrum":false},{"pitch":48,"velocity":110,"startTime":0.8152174999999993,"endTime":0.9782609999999998,"instrument":1,"program":32,"isDrum":false},{"pitch":45,"velocity":110,"startTime":1.1413044999999986,"endTime":1.3043479999999992,"instrument":1,"program":32,"isDrum":false},{"pitch":41,"velocity":110,"startTime":1.4673914999999997,"endTime":1.6304349999999985,"instrument":1,"program":32,"isDrum":false},{"pitch":38,"velocity":110,"startTime":1.6304349999999985,"endTime":1.793478499999999,"instrument":1,"program":32,"isDrum":false},{"pitch":33,"velocity":110,"startTime":1.9565219999999997,"endTime":2.1195654999999984,"instrument":1,"program":32,"isDrum":false},{"pitch":36,"velocity":110,"startTime":2.282608999999999,"endTime":2.4456524999999996,"instrument":1,"program":32,"isDrum":false},{"pitch":38,"velocity":110,"startTime":2.6086959999999983,"endTime":2.9347829999999995,"instrument":1,"program":32,"isDrum":false},{"pitch":45,"velocity":110,"startTime":3.0978265,"endTime":3.2608700000000006,"instrument":1,"program":32,"isDrum":false},{"pitch":50,"velocity":110,"startTime":3.2608700000000006,"endTime":3.4239134999999976,"instrument":1,"program":32,"isDrum":false},{"pitch":48,"velocity":110,"startTime":3.4239134999999976,"endTime":3.586956999999998,"instrument":1,"program":32,"isDrum":false},{"pitch":45,"velocity":110,"startTime":3.7500004999999987,"endTime":3.9130439999999993,"instrument":1,"program":32,"isDrum":false},{"pitch":41,"velocity":110,"startTime":4.0760875,"endTime":4.239131,"instrument":1,"program":32,"isDrum":false},{"pitch":38,"velocity":110,"startTime":4.239131,"endTime":4.402174499999997,"instrument":1,"program":32,"isDrum":false},{"pitch":33,"velocity":110,"startTime":4.565217999999998,"endTime":4.728261499999999,"instrument":1,"program":32,"isDrum":false},{"pitch":36,"velocity":110,"startTime":4.891304999999999,"endTime":5.0543485,"instrument":1,"program":32,"isDrum":false},{"pitch":38,"velocity":110,"startTime":5.217392,"endTime":5.543478999999998,"instrument":1,"program":32,"isDrum":false},{"pitch":45,"velocity":110,"startTime":5.706522499999998,"endTime":5.869565999999999,"instrument":1,"program":32,"isDrum":false},{"pitch":50,"velocity":110,"startTime":5.869565999999999,"endTime":6.0326094999999995,"instrument":1,"program":32,"isDrum":false},{"pitch":48,"velocity":110,"startTime":6.0326094999999995,"endTime":6.195653,"instrument":1,"program":32,"isDrum":false},{"pitch":45,"velocity":110,"startTime":6.358696499999997,"endTime":6.521739999999998,"instrument":1,"program":32,"isDrum":false},{"pitch":41,"velocity":110,"startTime":6.684783499999998,"endTime":6.847826999999999,"instrument":1,"program":32,"isDrum":false},{"pitch":38,"velocity":110,"startTime":6.847826999999999,"endTime":7.010870499999999,"instrument":1,"program":32,"isDrum":false},{"pitch":33,"velocity":110,"startTime":7.173914,"endTime":7.336957499999997,"instrument":1,"program":32,"isDrum":false},{"pitch":36,"velocity":110,"startTime":7.5000009999999975,"endTime":7.663044499999998,"instrument":1,"program":32,"isDrum":false},{"pitch":38,"velocity":110,"startTime":7.826087999999999,"endTime":8.152175,"instrument":1,"program":32,"isDrum":false},{"pitch":45,"velocity":110,"startTime":8.3152185,"endTime":8.478261999999997,"instrument":1,"program":32,"isDrum":false},{"pitch":50,"velocity":110,"startTime":8.478261999999997,"endTime":8.641305499999998,"instrument":1,"program":32,"isDrum":false},{"pitch":48,"velocity":110,"startTime":8.641305499999998,"endTime":8.804348999999998,"instrument":1,"program":32,"isDrum":false},{"pitch":45,"velocity":110,"startTime":8.967392499999999,"endTime":9.130436,"instrument":1,"program":32,"isDrum":false},{"pitch":41,"velocity":110,"startTime":9.2934795,"endTime":9.456522999999997,"instrument":1,"program":32,"isDrum":false},{"pitch":38,"velocity":110,"startTime":9.456522999999997,"endTime":9.619566499999998,"instrument":1,"program":32,"isDrum":false},{"pitch":33,"velocity":110,"startTime":9.782609999999998,"endTime":9.945653499999999,"instrument":1,"program":32,"isDrum":false},{"pitch":36,"velocity":110,"startTime":10.108697,"endTime":10.2717405,"instrument":1,"program":32,"isDrum":false},{"pitch":38,"velocity":110,"startTime":10.434783999999997,"endTime":10.760870999999998,"instrument":1,"program":32,"isDrum":false},{"pitch":45,"velocity":110,"startTime":10.923914499999999,"endTime":11.086958,"instrument":1,"program":32,"isDrum":false},{"pitch":50,"velocity":110,"startTime":11.086958,"endTime":11.2500015,"instrument":1,"program":32,"isDrum":false},{"pitch":48,"velocity":110,"startTime":11.2500015,"endTime":11.413044999999997,"instrument":1,"program":32,"isDrum":false},{"pitch":45,"velocity":110,"startTime":11.576088499999997,"endTime":11.739131999999998,"instrument":1,"program":32,"isDrum":false},{"pitch":41,"velocity":110,"startTime":11.902175499999998,"endTime":12.065218999999999,"instrument":1,"program":32,"isDrum":false},{"pitch":38,"velocity":110,"startTime":12.065218999999999,"endTime":12.2282625,"instrument":1,"program":32,"isDrum":false},{"pitch":33,"velocity":110,"startTime":12.391305999999997,"endTime":12.554349499999997,"instrument":1,"program":32,"isDrum":false},{"pitch":36,"velocity":110,"startTime":12.717392999999998,"endTime":12.880436499999998,"instrument":1,"program":32,"isDrum":false},{"pitch":38,"velocity":110,"startTime":13.043479999999999,"endTime":13.369566999999996,"instrument":1,"program":32,"isDrum":false},{"pitch":45,"velocity":110,"startTime":13.532610499999997,"endTime":13.695653999999998,"instrument":1,"program":32,"isDrum":false},{"pitch":50,"velocity":110,"startTime":13.695653999999998,"endTime":13.858697499999998,"instrument":1,"program":32,"isDrum":false},{"pitch":48,"velocity":110,"startTime":13.858697499999998,"endTime":14.021740999999999,"instrument":1,"program":32,"isDrum":false},{"pitch":45,"velocity":110,"startTime":14.1847845,"endTime":14.347827999999996,"instrument":1,"program":32,"isDrum":false},{"pitch":41,"velocity":110,"startTime":14.510871499999997,"endTime":14.673914999999997,"instrument":1,"program":32,"isDrum":false},{"pitch":38,"velocity":110,"startTime":14.673914999999997,"endTime":14.836958499999998,"instrument":1,"program":32,"isDrum":false},{"pitch":33,"velocity":110,"startTime":15.000001999999999,"endTime":15.163045499999999,"instrument":1,"program":32,"isDrum":false},{"pitch":36,"velocity":110,"startTime":15.326088999999996,"endTime":15.489132499999997,"instrument":1,"program":32,"isDrum":false},{"pitch":38,"velocity":110,"startTime":15.652175999999997,"endTime":15.978262999999998,"instrument":1,"program":32,"isDrum":false},{"pitch":45,"velocity":110,"startTime":16.1413065,"endTime":16.304349999999996,"instrument":1,"program":32,"isDrum":false},{"pitch":50,"velocity":110,"startTime":16.304349999999996,"endTime":16.467393499999996,"instrument":1,"program":32,"isDrum":false},{"pitch":48,"velocity":110,"startTime":16.467393499999996,"endTime":16.630436999999997,"instrument":1,"program":32,"isDrum":false},{"pitch":45,"velocity":110,"startTime":16.793480499999998,"endTime":16.956523999999998,"instrument":1,"program":32,"isDrum":false},{"pitch":41,"velocity":110,"startTime":17.1195675,"endTime":17.282610999999996,"instrument":1,"program":32,"isDrum":false},{"pitch":38,"velocity":110,"startTime":17.282610999999996,"endTime":17.445654499999996,"instrument":1,"program":32,"isDrum":false},{"pitch":33,"velocity":110,"startTime":17.608697999999997,"endTime":17.771741499999997,"instrument":1,"program":32,"isDrum":false},{"pitch":36,"velocity":110,"startTime":17.934784999999998,"endTime":18.0978285,"instrument":1,"program":32,"isDrum":false},{"pitch":38,"velocity":110,"startTime":18.260871999999996,"endTime":18.586958999999997,"instrument":1,"program":32,"isDrum":false},{"pitch":45,"velocity":110,"startTime":18.750002499999997,"endTime":18.913045999999998,"instrument":1,"program":32,"isDrum":false},{"pitch":50,"velocity":110,"startTime":18.913045999999998,"endTime":19.0760895,"instrument":1,"program":32,"isDrum":false},{"pitch":48,"velocity":110,"startTime":19.0760895,"endTime":19.239133,"instrument":1,"program":32,"isDrum":false},{"pitch":45,"velocity":110,"startTime":19.4021765,"endTime":19.56522,"instrument":1,"program":32,"isDrum":false},{"pitch":50,"velocity":110,"startTime":19.7282635,"endTime":19.891306999999994,"instrument":1,"program":32,"isDrum":false},{"pitch":38,"velocity":110,"startTime":19.891306999999994,"endTime":20.054350499999995,"instrument":1,"program":32,"isDrum":false},{"pitch":45,"velocity":110,"startTime":20.217393999999995,"endTime":20.380437499999996,"instrument":1,"program":32,"isDrum":false},{"pitch":36,"velocity":110,"startTime":20.543480999999996,"endTime":20.706524499999997,"instrument":1,"program":32,"isDrum":false},{"pitch":38,"velocity":110,"startTime":20.869567999999997,"endTime":21.195655,"instrument":1,"program":32,"isDrum":false},{"pitch":62,"velocity":105,"startTime":0,"endTime":4.565217999999998,"instrument":2,"program":50,"isDrum":false},{"pitch":60,"velocity":105,"startTime":0,"endTime":4.565217999999998,"instrument":2,"program":50,"isDrum":false},{"pitch":65,"velocity":105,"startTime":0,"endTime":4.565217999999998,"instrument":2,"program":50,"isDrum":false},{"pitch":69,"velocity":105,"startTime":0,"endTime":4.565217999999998,"instrument":2,"program":50,"isDrum":false},{"pitch":67,"velocity":105,"startTime":4.565217999999998,"endTime":5.217392,"instrument":2,"program":50,"isDrum":false},{"pitch":64,"velocity":105,"startTime":4.565217999999998,"endTime":5.217392,"instrument":2,"program":50,"isDrum":false},{"pitch":72,"velocity":105,"startTime":4.565217999999998,"endTime":5.217392,"instrument":2,"program":50,"isDrum":false},{"pitch":60,"velocity":105,"startTime":5.217392,"endTime":7.826087999999999,"instrument":2,"program":50,"isDrum":false},{"pitch":62,"velocity":105,"startTime":5.217392,"endTime":7.826087999999999,"instrument":2,"program":50,"isDrum":false},{"pitch":65,"velocity":105,"startTime":5.217392,"endTime":7.826087999999999,"instrument":2,"program":50,"isDrum":false},{"pitch":69,"velocity":105,"startTime":5.217392,"endTime":7.826087999999999,"instrument":2,"program":50,"isDrum":false},{"pitch":81,"velocity":90,"startTime":5.831522516666666,"endTime":8.440218516666668,"instrument":2,"program":50,"isDrum":false},{"pitch":77,"velocity":90,"startTime":6.320653016666665,"endTime":8.929349016666666,"instrument":2,"program":50,"isDrum":false},{"pitch":74,"velocity":90,"startTime":6.847826999999999,"endTime":9.456522999999997,"instrument":2,"program":50,"isDrum":false},{"pitch":69,"velocity":90,"startTime":7.565218399999999,"endTime":10.173914399999997,"instrument":2,"program":50,"isDrum":false},{"pitch":60,"velocity":105,"startTime":7.826087999999999,"endTime":8.3152185,"instrument":2,"program":50,"isDrum":false},{"pitch":64,"velocity":105,"startTime":7.826087999999999,"endTime":8.3152185,"instrument":2,"program":50,"isDrum":false},{"pitch":67,"velocity":105,"startTime":7.826087999999999,"endTime":8.3152185,"instrument":2,"program":50,"isDrum":false},{"pitch":57,"velocity":105,"startTime":8.3152185,"endTime":8.967392499999999,"instrument":2,"program":50,"isDrum":false},{"pitch":62,"velocity":105,"startTime":8.3152185,"endTime":8.967392499999999,"instrument":2,"program":50,"isDrum":false},{"pitch":65,"velocity":105,"startTime":8.3152185,"endTime":8.967392499999999,"instrument":2,"program":50,"isDrum":false},{"pitch":55,"velocity":105,"startTime":8.967392499999999,"endTime":9.619566499999998,"instrument":2,"program":50,"isDrum":false},{"pitch":60,"velocity":105,"startTime":8.967392499999999,"endTime":9.619566499999998,"instrument":2,"program":50,"isDrum":false},{"pitch":64,"velocity":105,"startTime":8.967392499999999,"endTime":9.619566499999998,"instrument":2,"program":50,"isDrum":false},{"pitch":57,"velocity":105,"startTime":9.619566499999998,"endTime":10.2717405,"instrument":2,"program":50,"isDrum":false},{"pitch":62,"velocity":105,"startTime":9.619566499999998,"endTime":10.2717405,"instrument":2,"program":50,"isDrum":false},{"pitch":65,"velocity":105,"startTime":9.619566499999998,"endTime":10.2717405,"instrument":2,"program":50,"isDrum":false},{"pitch":57,"velocity":105,"startTime":10.434783999999997,"endTime":13.043479999999999,"instrument":2,"program":50,"isDrum":false},{"pitch":62,"velocity":105,"startTime":10.434783999999997,"endTime":13.043479999999999,"instrument":2,"program":50,"isDrum":false},{"pitch":65,"velocity":105,"startTime":10.434783999999997,"endTime":12.880436499999998,"instrument":2,"program":50,"isDrum":false},{"pitch":72,"velocity":105,"startTime":10.434783999999997,"endTime":13.043479999999999,"instrument":2,"program":50,"isDrum":false},{"pitch":74,"velocity":105,"startTime":12.717392999999998,"endTime":12.880436499999998,"instrument":2,"program":50,"isDrum":false},{"pitch":69,"velocity":105,"startTime":12.717392999999998,"endTime":12.880436499999998,"instrument":2,"program":50,"isDrum":false},{"pitch":77,"velocity":105,"startTime":12.717392999999998,"endTime":12.880436499999998,"instrument":2,"program":50,"isDrum":false},{"pitch":65,"velocity":105,"startTime":12.717392999999998,"endTime":13.043479999999999,"instrument":2,"program":50,"isDrum":false},{"pitch":74,"velocity":105,"startTime":12.880436499999998,"endTime":13.043479999999999,"instrument":2,"program":50,"isDrum":false},{"pitch":69,"velocity":105,"startTime":12.880436499999998,"endTime":13.043479999999999,"instrument":2,"program":50,"isDrum":false},{"pitch":77,"velocity":105,"startTime":12.880436499999998,"endTime":13.043479999999999,"instrument":2,"program":50,"isDrum":false},{"pitch":65,"velocity":105,"startTime":12.880436499999998,"endTime":13.043479999999999,"instrument":2,"program":50,"isDrum":false},{"pitch":64,"velocity":105,"startTime":15.000001999999999,"endTime":15.652175999999997,"instrument":2,"program":50,"isDrum":false},{"pitch":67,"velocity":105,"startTime":15.000001999999999,"endTime":15.652175999999997,"instrument":2,"program":50,"isDrum":false},{"pitch":70,"velocity":105,"startTime":15.000001999999999,"endTime":15.652175999999997,"instrument":2,"program":50,"isDrum":false},{"pitch":76,"velocity":105,"startTime":15.000001999999999,"endTime":15.652175999999997,"instrument":2,"program":50,"isDrum":false},{"pitch":60,"velocity":105,"startTime":15.652175999999997,"endTime":16.1413065,"instrument":2,"program":50,"isDrum":false},{"pitch":64,"velocity":105,"startTime":15.652175999999997,"endTime":16.1413065,"instrument":2,"program":50,"isDrum":false},{"pitch":67,"velocity":105,"startTime":15.652175999999997,"endTime":16.1413065,"instrument":2,"program":50,"isDrum":false},{"pitch":57,"velocity":105,"startTime":16.1413065,"endTime":16.793480499999998,"instrument":2,"program":50,"isDrum":false},{"pitch":62,"velocity":105,"startTime":16.1413065,"endTime":16.793480499999998,"instrument":2,"program":50,"isDrum":false},{"pitch":65,"velocity":105,"startTime":16.1413065,"endTime":16.793480499999998,"instrument":2,"program":50,"isDrum":false},{"pitch":55,"velocity":105,"startTime":16.793480499999998,"endTime":17.445654499999996,"instrument":2,"program":50,"isDrum":false},{"pitch":60,"velocity":105,"startTime":16.793480499999998,"endTime":17.445654499999996,"instrument":2,"program":50,"isDrum":false},{"pitch":64,"velocity":105,"startTime":16.793480499999998,"endTime":17.445654499999996,"instrument":2,"program":50,"isDrum":false},{"pitch":57,"velocity":105,"startTime":17.445654499999996,"endTime":18.0978285,"instrument":2,"program":50,"isDrum":false},{"pitch":62,"velocity":105,"startTime":17.445654499999996,"endTime":18.0978285,"instrument":2,"program":50,"isDrum":false},{"pitch":65,"velocity":105,"startTime":17.445654499999996,"endTime":18.0978285,"instrument":2,"program":50,"isDrum":false},{"pitch":60,"velocity":105,"startTime":18.17935025,"endTime":20.788046249999997,"instrument":2,"program":50,"isDrum":false},{"pitch":65,"velocity":105,"startTime":18.20108938333333,"endTime":20.80978538333333,"instrument":2,"program":50,"isDrum":false},{"pitch":76,"velocity":105,"startTime":18.260871999999996,"endTime":20.869567999999997,"instrument":2,"program":50,"isDrum":false},{"pitch":69,"velocity":105,"startTime":18.260871999999996,"endTime":20.869567999999997,"instrument":2,"program":50,"isDrum":false},{"pitch":50,"velocity":128,"startTime":18.423915499999996,"endTime":20.842394083333335,"instrument":2,"program":50,"isDrum":false},{"pitch":55,"velocity":104,"startTime":18.586958999999997,"endTime":20.842394083333335,"instrument":2,"program":50,"isDrum":false},{"pitch":57,"velocity":117,"startTime":18.750002499999997,"endTime":20.842394083333335,"instrument":2,"program":50,"isDrum":false},{"pitch":60,"velocity":128,"startTime":18.913045999999998,"endTime":20.842394083333335,"instrument":2,"program":50,"isDrum":false},{"pitch":62,"velocity":120,"startTime":19.0760895,"endTime":19.29348083333333,"instrument":2,"program":50,"isDrum":false},{"pitch":67,"velocity":114,"startTime":19.239133,"endTime":20.793481033333332,"instrument":2,"program":50,"isDrum":false},{"pitch":64,"velocity":101,"startTime":19.4021765,"endTime":20.527176649999998,"instrument":2,"program":50,"isDrum":false},{"pitch":62,"velocity":104,"startTime":20.097828766666662,"endTime":20.750002766666665,"instrument":2,"program":50,"isDrum":false},{"pitch":72,"velocity":104,"startTime":20.135872249999995,"endTime":20.788046249999997,"instrument":2,"program":50,"isDrum":false},{"pitch":67,"velocity":104,"startTime":20.14130703333333,"endTime":20.842394083333335,"instrument":2,"program":50,"isDrum":false},{"pitch":76,"velocity":104,"startTime":20.217393999999995,"endTime":20.869567999999997,"instrument":2,"program":50,"isDrum":false},{"pitch":62,"velocity":95,"startTime":0,"endTime":0.08152175000000028,"instrument":4,"program":12,"isDrum":false},{"pitch":69,"velocity":95,"startTime":0.1630434999999988,"endTime":0.24456524999999907,"instrument":4,"program":12,"isDrum":false},{"pitch":74,"velocity":95,"startTime":0.32608699999999935,"endTime":0.40760874999999963,"instrument":4,"program":12,"isDrum":false},{"pitch":69,"velocity":95,"startTime":0.4891304999999999,"endTime":0.5706522500000002,"instrument":4,"program":12,"isDrum":false},{"pitch":62,"velocity":95,"startTime":0.6521739999999987,"endTime":0.733695749999999,"instrument":4,"program":12,"isDrum":false},{"pitch":69,"velocity":95,"startTime":0.8152174999999993,"endTime":0.8967392499999995,"instrument":4,"program":12,"isDrum":false},{"pitch":76,"velocity":95,"startTime":0.9782609999999998,"endTime":1.05978275,"instrument":4,"program":12,"isDrum":false},{"pitch":72,"velocity":95,"startTime":1.1413044999999986,"endTime":1.222826249999999,"instrument":4,"program":12,"isDrum":false},{"pitch":62,"velocity":95,"startTime":1.3043479999999992,"endTime":1.3858697499999995,"instrument":4,"program":12,"isDrum":false},{"pitch":69,"velocity":95,"startTime":1.4673914999999997,"endTime":1.54891325,"instrument":4,"program":12,"isDrum":false},{"pitch":72,"velocity":95,"startTime":1.6304349999999985,"endTime":1.7119567499999988,"instrument":4,"program":12,"isDrum":false},{"pitch":67,"velocity":95,"startTime":1.793478499999999,"endTime":1.8750002499999994,"instrument":4,"program":12,"isDrum":false},{"pitch":62,"velocity":95,"startTime":1.9565219999999997,"endTime":2.03804375,"instrument":4,"program":12,"isDrum":false},{"pitch":69,"velocity":95,"startTime":2.1195654999999984,"endTime":2.2010872499999987,"instrument":4,"program":12,"isDrum":false},{"pitch":74,"velocity":95,"startTime":2.282608999999999,"endTime":2.3641307499999993,"instrument":4,"program":12,"isDrum":false},{"pitch":65,"velocity":95,"startTime":2.4456524999999996,"endTime":2.52717425,"instrument":4,"program":12,"isDrum":false},{"pitch":62,"velocity":95,"startTime":2.6086959999999983,"endTime":2.6902177499999986,"instrument":4,"program":12,"isDrum":false},{"pitch":69,"velocity":95,"startTime":2.771739499999999,"endTime":2.853261249999999,"instrument":4,"program":12,"isDrum":false},{"pitch":74,"velocity":95,"startTime":2.9347829999999995,"endTime":3.0163047499999998,"instrument":4,"program":12,"isDrum":false},{"pitch":72,"velocity":95,"startTime":3.0978265,"endTime":3.1793482500000003,"instrument":4,"program":12,"isDrum":false},{"pitch":62,"velocity":95,"startTime":3.2608700000000006,"endTime":3.342391750000001,"instrument":4,"program":12,"isDrum":false},{"pitch":69,"velocity":95,"startTime":3.4239134999999976,"endTime":3.505435249999998,"instrument":4,"program":12,"isDrum":false},{"pitch":65,"velocity":95,"startTime":3.586956999999998,"endTime":3.6684787499999985,"instrument":4,"program":12,"isDrum":false},{"pitch":74,"velocity":95,"startTime":3.7500004999999987,"endTime":3.831522249999999,"instrument":4,"program":12,"isDrum":false},{"pitch":62,"velocity":95,"startTime":3.9130439999999993,"endTime":3.9945657499999996,"instrument":4,"program":12,"isDrum":false},{"pitch":72,"velocity":95,"startTime":4.0760875,"endTime":4.15760925,"instrument":4,"program":12,"isDrum":false},{"pitch":76,"velocity":95,"startTime":4.239131,"endTime":4.320652750000001,"instrument":4,"program":12,"isDrum":false},{"pitch":67,"velocity":95,"startTime":4.402174499999997,"endTime":4.483696249999998,"instrument":4,"program":12,"isDrum":false},{"pitch":62,"velocity":95,"startTime":4.565217999999998,"endTime":4.646739749999998,"instrument":4,"program":12,"isDrum":false},{"pitch":69,"velocity":95,"startTime":4.728261499999999,"endTime":4.809783249999999,"instrument":4,"program":12,"isDrum":false},{"pitch":74,"velocity":95,"startTime":4.891304999999999,"endTime":4.972826749999999,"instrument":4,"program":12,"isDrum":false},{"pitch":65,"velocity":95,"startTime":5.0543485,"endTime":5.13587025,"instrument":4,"program":12,"isDrum":false},{"pitch":62,"velocity":95,"startTime":5.217392,"endTime":5.2989137500000005,"instrument":4,"program":12,"isDrum":false},{"pitch":69,"velocity":95,"startTime":5.380435499999997,"endTime":5.4619572499999975,"instrument":4,"program":12,"isDrum":false},{"pitch":74,"velocity":95,"startTime":5.543478999999998,"endTime":5.625000749999998,"instrument":4,"program":12,"isDrum":false},{"pitch":69,"velocity":95,"startTime":5.706522499999998,"endTime":5.788044249999999,"instrument":4,"program":12,"isDrum":false},{"pitch":62,"velocity":95,"startTime":5.869565999999999,"endTime":5.951087749999999,"instrument":4,"program":12,"isDrum":false},{"pitch":69,"velocity":95,"startTime":6.0326094999999995,"endTime":6.11413125,"instrument":4,"program":12,"isDrum":false},{"pitch":76,"velocity":95,"startTime":6.195653,"endTime":6.27717475,"instrument":4,"program":12,"isDrum":false},{"pitch":72,"velocity":95,"startTime":6.358696499999997,"endTime":6.440218249999997,"instrument":4,"program":12,"isDrum":false},{"pitch":62,"velocity":95,"startTime":6.521739999999998,"endTime":6.603261749999998,"instrument":4,"program":12,"isDrum":false},{"pitch":69,"velocity":95,"startTime":6.684783499999998,"endTime":6.7663052499999985,"instrument":4,"program":12,"isDrum":false},{"pitch":72,"velocity":95,"startTime":6.847826999999999,"endTime":6.929348749999999,"instrument":4,"program":12,"isDrum":false},{"pitch":67,"velocity":95,"startTime":7.010870499999999,"endTime":7.09239225,"instrument":4,"program":12,"isDrum":false},{"pitch":62,"velocity":95,"startTime":7.173914,"endTime":7.25543575,"instrument":4,"program":12,"isDrum":false},{"pitch":69,"velocity":95,"startTime":7.336957499999997,"endTime":7.418479249999997,"instrument":4,"program":12,"isDrum":false},{"pitch":74,"velocity":95,"startTime":7.5000009999999975,"endTime":7.581522749999998,"instrument":4,"program":12,"isDrum":false},{"pitch":65,"velocity":95,"startTime":7.663044499999998,"endTime":7.744566249999998,"instrument":4,"program":12,"isDrum":false},{"pitch":62,"velocity":95,"startTime":7.826087999999999,"endTime":7.907609749999999,"instrument":4,"program":12,"isDrum":false},{"pitch":69,"velocity":95,"startTime":7.989131499999999,"endTime":8.07065325,"instrument":4,"program":12,"isDrum":false},{"pitch":74,"velocity":95,"startTime":8.152175,"endTime":8.23369675,"instrument":4,"program":12,"isDrum":false},{"pitch":72,"velocity":95,"startTime":8.3152185,"endTime":8.396740249999997,"instrument":4,"program":12,"isDrum":false},{"pitch":62,"velocity":95,"startTime":8.478261999999997,"endTime":8.559783749999998,"instrument":4,"program":12,"isDrum":false},{"pitch":69,"velocity":95,"startTime":8.641305499999998,"endTime":8.722827249999998,"instrument":4,"program":12,"isDrum":false},{"pitch":65,"velocity":95,"startTime":8.804348999999998,"endTime":8.885870749999999,"instrument":4,"program":12,"isDrum":false},{"pitch":74,"velocity":95,"startTime":8.967392499999999,"endTime":9.04891425,"instrument":4,"program":12,"isDrum":false},{"pitch":62,"velocity":95,"startTime":9.130436,"endTime":9.21195775,"instrument":4,"program":12,"isDrum":false},{"pitch":72,"velocity":95,"startTime":9.2934795,"endTime":9.375001249999997,"instrument":4,"program":12,"isDrum":false},{"pitch":76,"velocity":95,"startTime":9.456522999999997,"endTime":9.538044749999997,"instrument":4,"program":12,"isDrum":false},{"pitch":67,"velocity":95,"startTime":9.619566499999998,"endTime":9.701088249999998,"instrument":4,"program":12,"isDrum":false},{"pitch":62,"velocity":95,"startTime":9.782609999999998,"endTime":9.864131749999999,"instrument":4,"program":12,"isDrum":false},{"pitch":69,"velocity":95,"startTime":9.945653499999999,"endTime":10.027175249999999,"instrument":4,"program":12,"isDrum":false},{"pitch":74,"velocity":95,"startTime":10.108697,"endTime":10.19021875,"instrument":4,"program":12,"isDrum":false},{"pitch":65,"velocity":95,"startTime":10.2717405,"endTime":10.353262249999997,"instrument":4,"program":12,"isDrum":false},{"pitch":62,"velocity":95,"startTime":10.434783999999997,"endTime":10.516305749999997,"instrument":4,"program":12,"isDrum":false},{"pitch":69,"velocity":95,"startTime":10.597827499999998,"endTime":10.679349249999998,"instrument":4,"program":12,"isDrum":false},{"pitch":74,"velocity":95,"startTime":10.760870999999998,"endTime":10.842392749999998,"instrument":4,"program":12,"isDrum":false},{"pitch":69,"velocity":95,"startTime":10.923914499999999,"endTime":11.005436249999999,"instrument":4,"program":12,"isDrum":false},{"pitch":62,"velocity":95,"startTime":11.086958,"endTime":11.16847975,"instrument":4,"program":12,"isDrum":false},{"pitch":69,"velocity":95,"startTime":11.2500015,"endTime":11.331523249999996,"instrument":4,"program":12,"isDrum":false},{"pitch":76,"velocity":95,"startTime":11.413044999999997,"endTime":11.494566749999997,"instrument":4,"program":12,"isDrum":false},{"pitch":72,"velocity":95,"startTime":11.576088499999997,"endTime":11.657610249999998,"instrument":4,"program":12,"isDrum":false},{"pitch":62,"velocity":95,"startTime":11.739131999999998,"endTime":11.820653749999998,"instrument":4,"program":12,"isDrum":false},{"pitch":69,"velocity":95,"startTime":11.902175499999998,"endTime":11.983697249999999,"instrument":4,"program":12,"isDrum":false},{"pitch":72,"velocity":95,"startTime":12.065218999999999,"endTime":12.14674075,"instrument":4,"program":12,"isDrum":false},{"pitch":67,"velocity":95,"startTime":12.2282625,"endTime":12.309784249999996,"instrument":4,"program":12,"isDrum":false},{"pitch":62,"velocity":95,"startTime":12.391305999999997,"endTime":12.472827749999997,"instrument":4,"program":12,"isDrum":false},{"pitch":69,"velocity":95,"startTime":12.554349499999997,"endTime":12.635871249999997,"instrument":4,"program":12,"isDrum":false},{"pitch":74,"velocity":95,"startTime":12.717392999999998,"endTime":12.798914749999998,"instrument":4,"program":12,"isDrum":false},{"pitch":65,"velocity":95,"startTime":12.880436499999998,"endTime":12.961958249999999,"instrument":4,"program":12,"isDrum":false},{"pitch":62,"velocity":95,"startTime":13.043479999999999,"endTime":13.12500175,"instrument":4,"program":12,"isDrum":false},{"pitch":69,"velocity":95,"startTime":13.2065235,"endTime":13.28804525,"instrument":4,"program":12,"isDrum":false},{"pitch":74,"velocity":95,"startTime":13.369566999999996,"endTime":13.451088749999997,"instrument":4,"program":12,"isDrum":false},{"pitch":72,"velocity":95,"startTime":13.532610499999997,"endTime":13.614132249999997,"instrument":4,"program":12,"isDrum":false},{"pitch":62,"velocity":95,"startTime":13.695653999999998,"endTime":13.777175749999998,"instrument":4,"program":12,"isDrum":false},{"pitch":69,"velocity":95,"startTime":13.858697499999998,"endTime":13.940219249999998,"instrument":4,"program":12,"isDrum":false},{"pitch":65,"velocity":95,"startTime":14.021740999999999,"endTime":14.103262749999999,"instrument":4,"program":12,"isDrum":false},{"pitch":74,"velocity":95,"startTime":14.1847845,"endTime":14.26630625,"instrument":4,"program":12,"isDrum":false},{"pitch":62,"velocity":95,"startTime":14.347827999999996,"endTime":14.429349749999997,"instrument":4,"program":12,"isDrum":false},{"pitch":72,"velocity":95,"startTime":14.510871499999997,"endTime":14.592393249999997,"instrument":4,"program":12,"isDrum":false},{"pitch":76,"velocity":95,"startTime":14.673914999999997,"endTime":14.755436749999998,"instrument":4,"program":12,"isDrum":false},{"pitch":67,"velocity":95,"startTime":14.836958499999998,"endTime":14.918480249999998,"instrument":4,"program":12,"isDrum":false},{"pitch":62,"velocity":95,"startTime":15.000001999999999,"endTime":15.081523749999999,"instrument":4,"program":12,"isDrum":false},{"pitch":69,"velocity":95,"startTime":15.163045499999999,"endTime":15.24456725,"instrument":4,"program":12,"isDrum":false},{"pitch":74,"velocity":95,"startTime":15.326088999999996,"endTime":15.407610749999996,"instrument":4,"program":12,"isDrum":false},{"pitch":65,"velocity":95,"startTime":15.489132499999997,"endTime":15.570654249999997,"instrument":4,"program":12,"isDrum":false},{"pitch":62,"velocity":95,"startTime":15.652175999999997,"endTime":15.733697749999997,"instrument":4,"program":12,"isDrum":false},{"pitch":69,"velocity":95,"startTime":15.815219499999998,"endTime":15.896741249999998,"instrument":4,"program":12,"isDrum":false},{"pitch":74,"velocity":95,"startTime":15.978262999999998,"endTime":16.05978475,"instrument":4,"program":12,"isDrum":false},{"pitch":69,"velocity":95,"startTime":16.1413065,"endTime":16.22282825,"instrument":4,"program":12,"isDrum":false},{"pitch":62,"velocity":95,"startTime":16.304349999999996,"endTime":16.385871749999996,"instrument":4,"program":12,"isDrum":false},{"pitch":69,"velocity":95,"startTime":16.467393499999996,"endTime":16.548915249999997,"instrument":4,"program":12,"isDrum":false},{"pitch":76,"velocity":95,"startTime":16.630436999999997,"endTime":16.711958749999997,"instrument":4,"program":12,"isDrum":false},{"pitch":72,"velocity":95,"startTime":16.793480499999998,"endTime":16.875002249999998,"instrument":4,"program":12,"isDrum":false},{"pitch":62,"velocity":95,"startTime":16.956523999999998,"endTime":17.03804575,"instrument":4,"program":12,"isDrum":false},{"pitch":69,"velocity":95,"startTime":17.1195675,"endTime":17.20108925,"instrument":4,"program":12,"isDrum":false},{"pitch":72,"velocity":95,"startTime":17.282610999999996,"endTime":17.364132749999996,"instrument":4,"program":12,"isDrum":false},{"pitch":67,"velocity":95,"startTime":17.445654499999996,"endTime":17.527176249999997,"instrument":4,"program":12,"isDrum":false},{"pitch":62,"velocity":95,"startTime":17.608697999999997,"endTime":17.690219749999997,"instrument":4,"program":12,"isDrum":false},{"pitch":69,"velocity":95,"startTime":17.771741499999997,"endTime":17.853263249999998,"instrument":4,"program":12,"isDrum":false},{"pitch":74,"velocity":95,"startTime":17.934784999999998,"endTime":18.01630675,"instrument":4,"program":12,"isDrum":false},{"pitch":65,"velocity":95,"startTime":18.0978285,"endTime":18.17935025,"instrument":4,"program":12,"isDrum":false},{"pitch":62,"velocity":95,"startTime":18.260871999999996,"endTime":18.342393749999996,"instrument":4,"program":12,"isDrum":false},{"pitch":69,"velocity":95,"startTime":18.423915499999996,"endTime":18.505437249999996,"instrument":4,"program":12,"isDrum":false},{"pitch":74,"velocity":95,"startTime":18.586958999999997,"endTime":18.668480749999997,"instrument":4,"program":12,"isDrum":false},{"pitch":72,"velocity":95,"startTime":18.750002499999997,"endTime":18.831524249999998,"instrument":4,"program":12,"isDrum":false},{"pitch":62,"velocity":95,"startTime":18.913045999999998,"endTime":18.994567749999998,"instrument":4,"program":12,"isDrum":false},{"pitch":69,"velocity":95,"startTime":19.0760895,"endTime":19.15761125,"instrument":4,"program":12,"isDrum":false},{"pitch":65,"velocity":95,"startTime":19.239133,"endTime":19.32065475,"instrument":4,"program":12,"isDrum":false},{"pitch":74,"velocity":95,"startTime":19.4021765,"endTime":19.48369825,"instrument":4,"program":12,"isDrum":false},{"pitch":62,"velocity":95,"startTime":19.56522,"endTime":19.64674175,"instrument":4,"program":12,"isDrum":false},{"pitch":72,"velocity":95,"startTime":19.7282635,"endTime":19.809785249999994,"instrument":4,"program":12,"isDrum":false},{"pitch":76,"velocity":95,"startTime":19.891306999999994,"endTime":19.972828749999994,"instrument":4,"program":12,"isDrum":false},{"pitch":67,"velocity":95,"startTime":20.054350499999995,"endTime":20.135872249999995,"instrument":4,"program":12,"isDrum":false},{"pitch":62,"velocity":95,"startTime":20.217393999999995,"endTime":20.298915749999995,"instrument":4,"program":12,"isDrum":false},{"pitch":69,"velocity":95,"startTime":20.380437499999996,"endTime":20.461959249999996,"instrument":4,"program":12,"isDrum":false},{"pitch":74,"velocity":95,"startTime":20.543480999999996,"endTime":20.625002749999997,"instrument":4,"program":12,"isDrum":false},{"pitch":65,"velocity":95,"startTime":20.706524499999997,"endTime":20.788046249999997,"instrument":4,"program":12,"isDrum":false},{"pitch":62,"velocity":95,"startTime":20.869567999999997,"endTime":20.951089749999998,"instrument":4,"program":12,"isDrum":false},{"pitch":49,"velocity":110,"startTime":0,"endTime":0.6521739999999987,"instrument":6,"program":0,"isDrum":true},{"pitch":42,"velocity":85,"startTime":0,"endTime":0.1630434999999988,"instrument":6,"program":0,"isDrum":true},{"pitch":35,"velocity":120,"startTime":0,"endTime":0.1630434999999988,"instrument":6,"program":0,"isDrum":true},{"pitch":51,"velocity":105,"startTime":0,"endTime":0.6521739999999987,"instrument":6,"program":0,"isDrum":true},{"pitch":42,"velocity":85,"startTime":0.32608699999999935,"endTime":0.4891304999999999,"instrument":6,"program":0,"isDrum":true},{"pitch":42,"velocity":85,"startTime":0.6521739999999987,"endTime":0.8152174999999993,"instrument":6,"program":0,"isDrum":true},{"pitch":40,"velocity":120,"startTime":0.6521739999999987,"endTime":0.8152174999999993,"instrument":6,"program":0,"isDrum":true},{"pitch":51,"velocity":105,"startTime":0.6521739999999987,"endTime":1.3043479999999992,"instrument":6,"program":0,"isDrum":true},{"pitch":42,"velocity":85,"startTime":0.9782609999999998,"endTime":1.1413044999999986,"instrument":6,"program":0,"isDrum":true},{"pitch":35,"velocity":120,"startTime":1.1413044999999986,"endTime":1.3043479999999992,"instrument":6,"program":0,"isDrum":true},{"pitch":42,"velocity":85,"startTime":1.3043479999999992,"endTime":1.4673914999999997,"instrument":6,"program":0,"isDrum":true},{"pitch":51,"velocity":105,"startTime":1.3043479999999992,"endTime":1.9565219999999997,"instrument":6,"program":0,"isDrum":true},{"pitch":42,"velocity":85,"startTime":1.6304349999999985,"endTime":1.793478499999999,"instrument":6,"program":0,"isDrum":true},{"pitch":35,"velocity":120,"startTime":1.793478499999999,"endTime":1.9565219999999997,"instrument":6,"program":0,"isDrum":true},{"pitch":40,"velocity":120,"startTime":1.9565219999999997,"endTime":2.1195654999999984,"instrument":6,"program":0,"isDrum":true},{"pitch":42,"velocity":85,"startTime":1.9565219999999997,"endTime":2.1195654999999984,"instrument":6,"program":0,"isDrum":true},{"pitch":51,"velocity":105,"startTime":1.9565219999999997,"endTime":2.6086959999999983,"instrument":6,"program":0,"isDrum":true},{"pitch":35,"velocity":120,"startTime":2.282608999999999,"endTime":2.4456524999999996,"instrument":6,"program":0,"isDrum":true},{"pitch":42,"velocity":85,"startTime":2.282608999999999,"endTime":2.4456524999999996,"instrument":6,"program":0,"isDrum":true},{"pitch":51,"velocity":105,"startTime":2.6086959999999983,"endTime":3.2608700000000006,"instrument":6,"program":0,"isDrum":true},{"pitch":42,"velocity":85,"startTime":2.6086959999999983,"endTime":2.771739499999999,"instrument":6,"program":0,"isDrum":true},{"pitch":35,"velocity":120,"startTime":2.6086959999999983,"endTime":2.771739499999999,"instrument":6,"program":0,"isDrum":true},{"pitch":42,"velocity":85,"startTime":2.9347829999999995,"endTime":3.0978265,"instrument":6,"program":0,"isDrum":true},{"pitch":42,"velocity":85,"startTime":3.2608700000000006,"endTime":3.4239134999999976,"instrument":6,"program":0,"isDrum":true},{"pitch":40,"velocity":120,"startTime":3.2608700000000006,"endTime":3.4239134999999976,"instrument":6,"program":0,"isDrum":true},{"pitch":51,"velocity":105,"startTime":3.2608700000000006,"endTime":3.9130439999999993,"instrument":6,"program":0,"isDrum":true},{"pitch":42,"velocity":85,"startTime":3.586956999999998,"endTime":3.7500004999999987,"instrument":6,"program":0,"isDrum":true},{"pitch":35,"velocity":120,"startTime":3.7500004999999987,"endTime":3.9130439999999993,"instrument":6,"program":0,"isDrum":true},{"pitch":42,"velocity":85,"startTime":3.9130439999999993,"endTime":4.0760875,"instrument":6,"program":0,"isDrum":true},{"pitch":51,"velocity":105,"startTime":3.9130439999999993,"endTime":4.565217999999998,"instrument":6,"program":0,"isDrum":true},{"pitch":42,"velocity":85,"startTime":4.239131,"endTime":4.402174499999997,"instrument":6,"program":0,"isDrum":true},{"pitch":35,"velocity":120,"startTime":4.402174499999997,"endTime":4.565217999999998,"instrument":6,"program":0,"isDrum":true},{"pitch":40,"velocity":120,"startTime":4.565217999999998,"endTime":4.728261499999999,"instrument":6,"program":0,"isDrum":true},{"pitch":42,"velocity":85,"startTime":4.565217999999998,"endTime":4.728261499999999,"instrument":6,"program":0,"isDrum":true},{"pitch":51,"velocity":105,"startTime":4.565217999999998,"endTime":5.217392,"instrument":6,"program":0,"isDrum":true},{"pitch":35,"velocity":120,"startTime":4.891304999999999,"endTime":5.0543485,"instrument":6,"program":0,"isDrum":true},{"pitch":42,"velocity":85,"startTime":4.891304999999999,"endTime":5.0543485,"instrument":6,"program":0,"isDrum":true},{"pitch":42,"velocity":85,"startTime":5.217392,"endTime":5.380435499999997,"instrument":6,"program":0,"isDrum":true},{"pitch":35,"velocity":120,"startTime":5.217392,"endTime":5.380435499999997,"instrument":6,"program":0,"isDrum":true},{"pitch":51,"velocity":105,"startTime":5.217392,"endTime":5.869565999999999,"instrument":6,"program":0,"isDrum":true},{"pitch":42,"velocity":85,"startTime":5.543478999999998,"endTime":5.706522499999998,"instrument":6,"program":0,"isDrum":true},{"pitch":42,"velocity":85,"startTime":5.869565999999999,"endTime":6.0326094999999995,"instrument":6,"program":0,"isDrum":true},{"pitch":40,"velocity":120,"startTime":5.869565999999999,"endTime":6.0326094999999995,"instrument":6,"program":0,"isDrum":true},{"pitch":51,"velocity":105,"startTime":5.869565999999999,"endTime":6.521739999999998,"instrument":6,"program":0,"isDrum":true},{"pitch":42,"velocity":85,"startTime":6.195653,"endTime":6.358696499999997,"instrument":6,"program":0,"isDrum":true},{"pitch":35,"velocity":120,"startTime":6.358696499999997,"endTime":6.521739999999998,"instrument":6,"program":0,"isDrum":true},{"pitch":42,"velocity":85,"startTime":6.521739999999998,"endTime":6.684783499999998,"instrument":6,"program":0,"isDrum":true},{"pitch":51,"velocity":105,"startTime":6.521739999999998,"endTime":7.173914,"instrument":6,"program":0,"isDrum":true},{"pitch":42,"velocity":85,"startTime":6.847826999999999,"endTime":7.010870499999999,"instrument":6,"program":0,"isDrum":true},{"pitch":35,"velocity":120,"startTime":7.010870499999999,"endTime":7.173914,"instrument":6,"program":0,"isDrum":true},{"pitch":40,"velocity":120,"startTime":7.173914,"endTime":7.336957499999997,"instrument":6,"program":0,"isDrum":true},{"pitch":42,"velocity":85,"startTime":7.173914,"endTime":7.336957499999997,"instrument":6,"program":0,"isDrum":true},{"pitch":51,"velocity":105,"startTime":7.173914,"endTime":7.826087999999999,"instrument":6,"program":0,"isDrum":true},{"pitch":35,"velocity":120,"startTime":7.5000009999999975,"endTime":7.663044499999998,"instrument":6,"program":0,"isDrum":true},{"pitch":42,"velocity":85,"startTime":7.5000009999999975,"endTime":7.663044499999998,"instrument":6,"program":0,"isDrum":true},{"pitch":42,"velocity":85,"startTime":7.826087999999999,"endTime":7.989131499999999,"instrument":6,"program":0,"isDrum":true},{"pitch":35,"velocity":120,"startTime":7.826087999999999,"endTime":7.989131499999999,"instrument":6,"program":0,"isDrum":true},{"pitch":51,"velocity":105,"startTime":7.826087999999999,"endTime":8.478261999999997,"instrument":6,"program":0,"isDrum":true},{"pitch":42,"velocity":85,"startTime":8.152175,"endTime":8.3152185,"instrument":6,"program":0,"isDrum":true},{"pitch":42,"velocity":85,"startTime":8.478261999999997,"endTime":8.641305499999998,"instrument":6,"program":0,"isDrum":true},{"pitch":40,"velocity":120,"startTime":8.478261999999997,"endTime":8.641305499999998,"instrument":6,"program":0,"isDrum":true},{"pitch":51,"velocity":105,"startTime":8.478261999999997,"endTime":9.130436,"instrument":6,"program":0,"isDrum":true},{"pitch":42,"velocity":85,"startTime":8.804348999999998,"endTime":8.967392499999999,"instrument":6,"program":0,"isDrum":true},{"pitch":35,"velocity":120,"startTime":8.967392499999999,"endTime":9.130436,"instrument":6,"program":0,"isDrum":true},{"pitch":42,"velocity":85,"startTime":9.130436,"endTime":9.2934795,"instrument":6,"program":0,"isDrum":true},{"pitch":51,"velocity":105,"startTime":9.130436,"endTime":9.782609999999998,"instrument":6,"program":0,"isDrum":true},{"pitch":42,"velocity":85,"startTime":9.456522999999997,"endTime":9.619566499999998,"instrument":6,"program":0,"isDrum":true},{"pitch":35,"velocity":120,"startTime":9.619566499999998,"endTime":9.782609999999998,"instrument":6,"program":0,"isDrum":true},{"pitch":40,"velocity":120,"startTime":9.782609999999998,"endTime":9.945653499999999,"instrument":6,"program":0,"isDrum":true},{"pitch":42,"velocity":85,"startTime":9.782609999999998,"endTime":9.945653499999999,"instrument":6,"program":0,"isDrum":true},{"pitch":51,"velocity":105,"startTime":9.782609999999998,"endTime":10.434783999999997,"instrument":6,"program":0,"isDrum":true},{"pitch":35,"velocity":120,"startTime":10.108697,"endTime":10.2717405,"instrument":6,"program":0,"isDrum":true},{"pitch":42,"velocity":85,"startTime":10.108697,"endTime":10.2717405,"instrument":6,"program":0,"isDrum":true},{"pitch":42,"velocity":85,"startTime":10.434783999999997,"endTime":10.597827499999998,"instrument":6,"program":0,"isDrum":true},{"pitch":35,"velocity":120,"startTime":10.434783999999997,"endTime":10.597827499999998,"instrument":6,"program":0,"isDrum":true},{"pitch":51,"velocity":105,"startTime":10.434783999999997,"endTime":11.086958,"instrument":6,"program":0,"isDrum":true},{"pitch":42,"velocity":85,"startTime":10.760870999999998,"endTime":10.923914499999999,"instrument":6,"program":0,"isDrum":true},{"pitch":42,"velocity":85,"startTime":11.086958,"endTime":11.2500015,"instrument":6,"program":0,"isDrum":true},{"pitch":40,"velocity":120,"startTime":11.086958,"endTime":11.2500015,"instrument":6,"program":0,"isDrum":true},{"pitch":51,"velocity":105,"startTime":11.086958,"endTime":11.739131999999998,"instrument":6,"program":0,"isDrum":true},{"pitch":42,"velocity":85,"startTime":11.413044999999997,"endTime":11.576088499999997,"instrument":6,"program":0,"isDrum":true},{"pitch":35,"velocity":120,"startTime":11.576088499999997,"endTime":11.739131999999998,"instrument":6,"program":0,"isDrum":true},{"pitch":42,"velocity":85,"startTime":11.739131999999998,"endTime":11.902175499999998,"instrument":6,"program":0,"isDrum":true},{"pitch":51,"velocity":105,"startTime":11.739131999999998,"endTime":12.391305999999997,"instrument":6,"program":0,"isDrum":true},{"pitch":42,"velocity":85,"startTime":12.065218999999999,"endTime":12.2282625,"instrument":6,"program":0,"isDrum":true},{"pitch":35,"velocity":120,"startTime":12.2282625,"endTime":12.391305999999997,"instrument":6,"program":0,"isDrum":true},{"pitch":40,"velocity":120,"startTime":12.391305999999997,"endTime":12.554349499999997,"instrument":6,"program":0,"isDrum":true},{"pitch":42,"velocity":85,"startTime":12.391305999999997,"endTime":12.554349499999997,"instrument":6,"program":0,"isDrum":true},{"pitch":51,"velocity":105,"startTime":12.391305999999997,"endTime":13.043479999999999,"instrument":6,"program":0,"isDrum":true},{"pitch":35,"velocity":120,"startTime":12.717392999999998,"endTime":12.880436499999998,"instrument":6,"program":0,"isDrum":true},{"pitch":42,"velocity":85,"startTime":12.717392999999998,"endTime":12.880436499999998,"instrument":6,"program":0,"isDrum":true},{"pitch":42,"velocity":85,"startTime":13.043479999999999,"endTime":13.2065235,"instrument":6,"program":0,"isDrum":true},{"pitch":35,"velocity":120,"startTime":13.043479999999999,"endTime":13.2065235,"instrument":6,"program":0,"isDrum":true},{"pitch":51,"velocity":105,"startTime":13.043479999999999,"endTime":13.695653999999998,"instrument":6,"program":0,"isDrum":true},{"pitch":42,"velocity":85,"startTime":13.369566999999996,"endTime":13.532610499999997,"instrument":6,"program":0,"isDrum":true},{"pitch":42,"velocity":85,"startTime":13.695653999999998,"endTime":13.858697499999998,"instrument":6,"program":0,"isDrum":true},{"pitch":40,"velocity":120,"startTime":13.695653999999998,"endTime":13.858697499999998,"instrument":6,"program":0,"isDrum":true},{"pitch":51,"velocity":105,"startTime":13.695653999999998,"endTime":14.347827999999996,"instrument":6,"program":0,"isDrum":true},{"pitch":42,"velocity":85,"startTime":14.021740999999999,"endTime":14.1847845,"instrument":6,"program":0,"isDrum":true},{"pitch":35,"velocity":120,"startTime":14.1847845,"endTime":14.347827999999996,"instrument":6,"program":0,"isDrum":true},{"pitch":42,"velocity":85,"startTime":14.347827999999996,"endTime":14.510871499999997,"instrument":6,"program":0,"isDrum":true},{"pitch":51,"velocity":105,"startTime":14.347827999999996,"endTime":15.000001999999999,"instrument":6,"program":0,"isDrum":true},{"pitch":42,"velocity":85,"startTime":14.673914999999997,"endTime":14.836958499999998,"instrument":6,"program":0,"isDrum":true},{"pitch":35,"velocity":120,"startTime":14.836958499999998,"endTime":15.000001999999999,"instrument":6,"program":0,"isDrum":true},{"pitch":40,"velocity":120,"startTime":15.000001999999999,"endTime":15.163045499999999,"instrument":6,"program":0,"isDrum":true},{"pitch":42,"velocity":85,"startTime":15.000001999999999,"endTime":15.163045499999999,"instrument":6,"program":0,"isDrum":true},{"pitch":51,"velocity":105,"startTime":15.000001999999999,"endTime":15.652175999999997,"instrument":6,"program":0,"isDrum":true},{"pitch":35,"velocity":120,"startTime":15.326088999999996,"endTime":15.489132499999997,"instrument":6,"program":0,"isDrum":true},{"pitch":42,"velocity":85,"startTime":15.326088999999996,"endTime":15.489132499999997,"instrument":6,"program":0,"isDrum":true},{"pitch":42,"velocity":85,"startTime":15.652175999999997,"endTime":15.815219499999998,"instrument":6,"program":0,"isDrum":true},{"pitch":35,"velocity":120,"startTime":15.652175999999997,"endTime":15.815219499999998,"instrument":6,"program":0,"isDrum":true},{"pitch":51,"velocity":105,"startTime":15.652175999999997,"endTime":16.304349999999996,"instrument":6,"program":0,"isDrum":true},{"pitch":42,"velocity":85,"startTime":15.978262999999998,"endTime":16.1413065,"instrument":6,"program":0,"isDrum":true},{"pitch":42,"velocity":85,"startTime":16.304349999999996,"endTime":16.467393499999996,"instrument":6,"program":0,"isDrum":true},{"pitch":40,"velocity":120,"startTime":16.304349999999996,"endTime":16.467393499999996,"instrument":6,"program":0,"isDrum":true},{"pitch":51,"velocity":105,"startTime":16.304349999999996,"endTime":16.956523999999998,"instrument":6,"program":0,"isDrum":true},{"pitch":42,"velocity":85,"startTime":16.630436999999997,"endTime":16.793480499999998,"instrument":6,"program":0,"isDrum":true},{"pitch":35,"velocity":120,"startTime":16.793480499999998,"endTime":16.956523999999998,"instrument":6,"program":0,"isDrum":true},{"pitch":42,"velocity":85,"startTime":16.956523999999998,"endTime":17.1195675,"instrument":6,"program":0,"isDrum":true},{"pitch":51,"velocity":105,"startTime":16.956523999999998,"endTime":17.608697999999997,"instrument":6,"program":0,"isDrum":true},{"pitch":42,"velocity":85,"startTime":17.282610999999996,"endTime":17.445654499999996,"instrument":6,"program":0,"isDrum":true},{"pitch":35,"velocity":120,"startTime":17.445654499999996,"endTime":17.608697999999997,"instrument":6,"program":0,"isDrum":true},{"pitch":40,"velocity":120,"startTime":17.608697999999997,"endTime":17.771741499999997,"instrument":6,"program":0,"isDrum":true},{"pitch":42,"velocity":85,"startTime":17.608697999999997,"endTime":17.771741499999997,"instrument":6,"program":0,"isDrum":true},{"pitch":51,"velocity":105,"startTime":17.608697999999997,"endTime":18.260871999999996,"instrument":6,"program":0,"isDrum":true},{"pitch":35,"velocity":120,"startTime":17.934784999999998,"endTime":18.0978285,"instrument":6,"program":0,"isDrum":true},{"pitch":42,"velocity":85,"startTime":17.934784999999998,"endTime":18.0978285,"instrument":6,"program":0,"isDrum":true},{"pitch":42,"velocity":85,"startTime":18.260871999999996,"endTime":18.423915499999996,"instrument":6,"program":0,"isDrum":true},{"pitch":35,"velocity":120,"startTime":18.260871999999996,"endTime":18.423915499999996,"instrument":6,"program":0,"isDrum":true},{"pitch":51,"velocity":105,"startTime":18.260871999999996,"endTime":18.913045999999998,"instrument":6,"program":0,"isDrum":true},{"pitch":42,"velocity":85,"startTime":18.586958999999997,"endTime":18.750002499999997,"instrument":6,"program":0,"isDrum":true},{"pitch":42,"velocity":85,"startTime":18.913045999999998,"endTime":19.0760895,"instrument":6,"program":0,"isDrum":true},{"pitch":40,"velocity":120,"startTime":18.913045999999998,"endTime":19.0760895,"instrument":6,"program":0,"isDrum":true},{"pitch":51,"velocity":105,"startTime":18.913045999999998,"endTime":19.56522,"instrument":6,"program":0,"isDrum":true},{"pitch":42,"velocity":85,"startTime":19.239133,"endTime":19.4021765,"instrument":6,"program":0,"isDrum":true},{"pitch":35,"velocity":120,"startTime":19.4021765,"endTime":19.56522,"instrument":6,"program":0,"isDrum":true},{"pitch":42,"velocity":85,"startTime":19.56522,"endTime":19.7282635,"instrument":6,"program":0,"isDrum":true},{"pitch":51,"velocity":105,"startTime":19.56522,"endTime":20.217393999999995,"instrument":6,"program":0,"isDrum":true},{"pitch":42,"velocity":85,"startTime":19.891306999999994,"endTime":20.054350499999995,"instrument":6,"program":0,"isDrum":true},{"pitch":40,"velocity":120,"startTime":20.054350499999995,"endTime":20.217393999999995,"instrument":6,"program":0,"isDrum":true},{"pitch":35,"velocity":120,"startTime":20.054350499999995,"endTime":20.217393999999995,"instrument":6,"program":0,"isDrum":true},{"pitch":40,"velocity":120,"startTime":20.217393999999995,"endTime":20.380437499999996,"instrument":6,"program":0,"isDrum":true},{"pitch":42,"velocity":85,"startTime":20.217393999999995,"endTime":20.380437499999996,"instrument":6,"program":0,"isDrum":true},{"pitch":51,"velocity":105,"startTime":20.217393999999995,"endTime":20.869567999999997,"instrument":6,"program":0,"isDrum":true},{"pitch":35,"velocity":120,"startTime":20.543480999999996,"endTime":20.706524499999997,"instrument":6,"program":0,"isDrum":true},{"pitch":42,"velocity":85,"startTime":20.543480999999996,"endTime":20.706524499999997,"instrument":6,"program":0,"isDrum":true},{"pitch":40,"velocity":120,"startTime":20.706524499999997,"endTime":20.869567999999997,"instrument":6,"program":0,"isDrum":true},{"pitch":49,"velocity":110,"startTime":20.869567999999997,"endTime":21.521742,"instrument":6,"program":0,"isDrum":true},{"pitch":42,"velocity":85,"startTime":20.869567999999997,"endTime":21.032611499999998,"instrument":6,"program":0,"isDrum":true},{"pitch":35,"velocity":120,"startTime":20.869567999999997,"endTime":21.032611499999998,"instrument":6,"program":0,"isDrum":true}],"totalTime":33.913047999999996,"sourceInfo":{"encodingType":"MIDI","parser":"TONEJS_MIDI_CONVERT"}},"sequence":{"filename":"sunflower.mid","ticksPerQuarter":120,"timeSignatures":[{"time":0,"numerator":4,"denominator":4}],"tempos":[{"time":0,"qpm":91.99998773333498},{"time":425.2065784333333,"qpm":87.00002175000543},{"time":425.34450943333326,"qpm":86.00005160003096},{"time":425.3910210333333,"qpm":85.00004250002125},{"time":425.4027857333333,"qpm":83.99996640001343},{"time":425.4861191,"qpm":82.99995020002989},{"time":425.5463601,"qpm":82.00003553334874},{"time":425.58294544999995,"qpm":80.99997165000993},{"time":425.6199825,"qpm":80},{"time":425.68248249999994,"qpm":78.9999657666815},{"time":425.7077989666666,"qpm":76.99997818333952},{"time":425.7207859833333,"qpm":75.99996960001216},{"time":425.8392070833333,"qpm":75},{"time":425.87920708333326,"qpm":73.99998273333736},{"time":425.90623411666655,"qpm":72.99998296667064},{"time":425.9336313833333,"qpm":72.00002880001152},{"time":426.2808534666666,"qpm":71.00003550001774},{"time":426.3512759666666,"qpm":69.99998833333528},{"time":426.4369902666666,"qpm":69.00001725000432},{"time":426.49496126666656,"qpm":67.99999546666697},{"time":426.6714318666666,"qpm":67.00002903334591},{"time":426.8953123666666,"qpm":80}],"notes":[{"pitch":38,"velocity":110,"startTime":0,"endTime":0.32608699999999935,"instrument":1,"program":32,"isDrum":false},{"pitch":45,"velocity":110,"startTime":0.4891304999999999,"endTime":0.6521739999999987,"instrument":1,"program":32,"isDrum":false},{"pitch":50,"velocity":110,"startTime":0.6521739999999987,"endTime":0.8152174999999993,"instrument":1,"program":32,"isDrum":false},{"pitch":48,"velocity":110,"startTime":0.8152174999999993,"endTime":0.9782609999999998,"instrument":1,"program":32,"isDrum":false},{"pitch":45,"velocity":110,"startTime":1.1413044999999986,"endTime":1.3043479999999992,"instrument":1,"program":32,"isDrum":false},{"pitch":41,"velocity":110,"startTime":1.4673914999999997,"endTime":1.6304349999999985,"instrument":1,"program":32,"isDrum":false},{"pitch":38,"velocity":110,"startTime":1.6304349999999985,"endTime":1.793478499999999,"instrument":1,"program":32,"isDrum":false},{"pitch":33,"velocity":110,"startTime":1.9565219999999997,"endTime":2.1195654999999984,"instrument":1,"program":32,"isDrum":false},{"pitch":36,"velocity":110,"startTime":2.282608999999999,"endTime":2.4456524999999996,"instrument":1,"program":32,"isDrum":false},{"pitch":38,"velocity":110,"startTime":2.6086959999999983,"endTime":2.9347829999999995,"instrument":1,"program":32,"isDrum":false},{"pitch":45,"velocity":110,"startTime":3.0978265,"endTime":3.2608700000000006,"instrument":1,"program":32,"isDrum":false},{"pitch":50,"velocity":110,"startTime":3.2608700000000006,"endTime":3.4239134999999976,"instrument":1,"program":32,"isDrum":false},{"pitch":48,"velocity":110,"startTime":3.4239134999999976,"endTime":3.586956999999998,"instrument":1,"program":32,"isDrum":false},{"pitch":45,"velocity":110,"startTime":3.7500004999999987,"endTime":3.9130439999999993,"instrument":1,"program":32,"isDrum":false},{"pitch":41,"velocity":110,"startTime":4.0760875,"endTime":4.239131,"instrument":1,"program":32,"isDrum":false},{"pitch":38,"velocity":110,"startTime":4.239131,"endTime":4.402174499999997,"instrument":1,"program":32,"isDrum":false},{"pitch":33,"velocity":110,"startTime":4.565217999999998,"endTime":4.728261499999999,"instrument":1,"program":32,"isDrum":false},{"pitch":36,"velocity":110,"startTime":4.891304999999999,"endTime":5.0543485,"instrument":1,"program":32,"isDrum":false},{"pitch":38,"velocity":110,"startTime":5.217392,"endTime":5.543478999999998,"instrument":1,"program":32,"isDrum":false},{"pitch":45,"velocity":110,"startTime":5.706522499999998,"endTime":5.869565999999999,"instrument":1,"program":32,"isDrum":false},{"pitch":50,"velocity":110,"startTime":5.869565999999999,"endTime":6.0326094999999995,"instrument":1,"program":32,"isDrum":false},{"pitch":48,"velocity":110,"startTime":6.0326094999999995,"endTime":6.195653,"instrument":1,"program":32,"isDrum":false},{"pitch":45,"velocity":110,"startTime":6.358696499999997,"endTime":6.521739999999998,"instrument":1,"program":32,"isDrum":false},{"pitch":41,"velocity":110,"startTime":6.684783499999998,"endTime":6.847826999999999,"instrument":1,"program":32,"isDrum":false},{"pitch":38,"velocity":110,"startTime":6.847826999999999,"endTime":7.010870499999999,"instrument":1,"program":32,"isDrum":false},{"pitch":33,"velocity":110,"startTime":7.173914,"endTime":7.336957499999997,"instrument":1,"program":32,"isDrum":false},{"pitch":36,"velocity":110,"startTime":7.5000009999999975,"endTime":7.663044499999998,"instrument":1,"program":32,"isDrum":false},{"pitch":38,"velocity":110,"startTime":7.826087999999999,"endTime":8.152175,"instrument":1,"program":32,"isDrum":false},{"pitch":45,"velocity":110,"startTime":8.3152185,"endTime":8.478261999999997,"instrument":1,"program":32,"isDrum":false},{"pitch":50,"velocity":110,"startTime":8.478261999999997,"endTime":8.641305499999998,"instrument":1,"program":32,"isDrum":false},{"pitch":48,"velocity":110,"startTime":8.641305499999998,"endTime":8.804348999999998,"instrument":1,"program":32,"isDrum":false},{"pitch":45,"velocity":110,"startTime":8.967392499999999,"endTime":9.130436,"instrument":1,"program":32,"isDrum":false},{"pitch":41,"velocity":110,"startTime":9.2934795,"endTime":9.456522999999997,"instrument":1,"program":32,"isDrum":false},{"pitch":38,"velocity":110,"startTime":9.456522999999997,"endTime":9.619566499999998,"instrument":1,"program":32,"isDrum":false},{"pitch":33,"velocity":110,"startTime":9.782609999999998,"endTime":9.945653499999999,"instrument":1,"program":32,"isDrum":false},{"pitch":36,"velocity":110,"startTime":10.108697,"endTime":10.2717405,"instrument":1,"program":32,"isDrum":false},{"pitch":38,"velocity":110,"startTime":10.434783999999997,"endTime":10.760870999999998,"instrument":1,"program":32,"isDrum":false},{"pitch":45,"velocity":110,"startTime":10.923914499999999,"endTime":11.086958,"instrument":1,"program":32,"isDrum":false},{"pitch":50,"velocity":110,"startTime":11.086958,"endTime":11.2500015,"instrument":1,"program":32,"isDrum":false},{"pitch":48,"velocity":110,"startTime":11.2500015,"endTime":11.413044999999997,"instrument":1,"program":32,"isDrum":false},{"pitch":45,"velocity":110,"startTime":11.576088499999997,"endTime":11.739131999999998,"instrument":1,"program":32,"isDrum":false},{"pitch":41,"velocity":110,"startTime":11.902175499999998,"endTime":12.065218999999999,"instrument":1,"program":32,"isDrum":false},{"pitch":38,"velocity":110,"startTime":12.065218999999999,"endTime":12.2282625,"instrument":1,"program":32,"isDrum":false},{"pitch":33,"velocity":110,"startTime":12.391305999999997,"endTime":12.554349499999997,"instrument":1,"program":32,"isDrum":false},{"pitch":36,"velocity":110,"startTime":12.717392999999998,"endTime":12.880436499999998,"instrument":1,"program":32,"isDrum":false},{"pitch":38,"velocity":110,"startTime":13.043479999999999,"endTime":13.369566999999996,"instrument":1,"program":32,"isDrum":false},{"pitch":45,"velocity":110,"startTime":13.532610499999997,"endTime":13.695653999999998,"instrument":1,"program":32,"isDrum":false},{"pitch":50,"velocity":110,"startTime":13.695653999999998,"endTime":13.858697499999998,"instrument":1,"program":32,"isDrum":false},{"pitch":48,"velocity":110,"startTime":13.858697499999998,"endTime":14.021740999999999,"instrument":1,"program":32,"isDrum":false},{"pitch":45,"velocity":110,"startTime":14.1847845,"endTime":14.347827999999996,"instrument":1,"program":32,"isDrum":false},{"pitch":41,"velocity":110,"startTime":14.510871499999997,"endTime":14.673914999999997,"instrument":1,"program":32,"isDrum":false},{"pitch":38,"velocity":110,"startTime":14.673914999999997,"endTime":14.836958499999998,"instrument":1,"program":32,"isDrum":false},{"pitch":33,"velocity":110,"startTime":15.000001999999999,"endTime":15.163045499999999,"instrument":1,"program":32,"isDrum":false},{"pitch":36,"velocity":110,"startTime":15.326088999999996,"endTime":15.489132499999997,"instrument":1,"program":32,"isDrum":false},{"pitch":38,"velocity":110,"startTime":15.652175999999997,"endTime":15.978262999999998,"instrument":1,"program":32,"isDrum":false},{"pitch":45,"velocity":110,"startTime":16.1413065,"endTime":16.304349999999996,"instrument":1,"program":32,"isDrum":false},{"pitch":50,"velocity":110,"startTime":16.304349999999996,"endTime":16.467393499999996,"instrument":1,"program":32,"isDrum":false},{"pitch":48,"velocity":110,"startTime":16.467393499999996,"endTime":16.630436999999997,"instrument":1,"program":32,"isDrum":false},{"pitch":45,"velocity":110,"startTime":16.793480499999998,"endTime":16.956523999999998,"instrument":1,"program":32,"isDrum":false},{"pitch":41,"velocity":110,"startTime":17.1195675,"endTime":17.282610999999996,"instrument":1,"program":32,"isDrum":false},{"pitch":38,"velocity":110,"startTime":17.282610999999996,"endTime":17.445654499999996,"instrument":1,"program":32,"isDrum":false},{"pitch":33,"velocity":110,"startTime":17.608697999999997,"endTime":17.771741499999997,"instrument":1,"program":32,"isDrum":false},{"pitch":36,"velocity":110,"startTime":17.934784999999998,"endTime":18.0978285,"instrument":1,"program":32,"isDrum":false},{"pitch":38,"velocity":110,"startTime":18.260871999999996,"endTime":18.586958999999997,"instrument":1,"program":32,"isDrum":false},{"pitch":45,"velocity":110,"startTime":18.750002499999997,"endTime":18.913045999999998,"instrument":1,"program":32,"isDrum":false},{"pitch":50,"velocity":110,"startTime":18.913045999999998,"endTime":19.0760895,"instrument":1,"program":32,"isDrum":false},{"pitch":48,"velocity":110,"startTime":19.0760895,"endTime":19.239133,"instrument":1,"program":32,"isDrum":false},{"pitch":45,"velocity":110,"startTime":19.4021765,"endTime":19.56522,"instrument":1,"program":32,"isDrum":false},{"pitch":50,"velocity":110,"startTime":19.7282635,"endTime":19.891306999999994,"instrument":1,"program":32,"isDrum":false},{"pitch":38,"velocity":110,"startTime":19.891306999999994,"endTime":20.054350499999995,"instrument":1,"program":32,"isDrum":false},{"pitch":45,"velocity":110,"startTime":20.217393999999995,"endTime":20.380437499999996,"instrument":1,"program":32,"isDrum":false},{"pitch":36,"velocity":110,"startTime":20.543480999999996,"endTime":20.706524499999997,"instrument":1,"program":32,"isDrum":false},{"pitch":38,"velocity":110,"startTime":20.869567999999997,"endTime":21.195655,"instrument":1,"program":32,"isDrum":false},{"pitch":62,"velocity":105,"startTime":0,"endTime":4.565217999999998,"instrument":2,"program":50,"isDrum":false},{"pitch":60,"velocity":105,"startTime":0,"endTime":4.565217999999998,"instrument":2,"program":50,"isDrum":false},{"pitch":65,"velocity":105,"startTime":0,"endTime":4.565217999999998,"instrument":2,"program":50,"isDrum":false},{"pitch":69,"velocity":105,"startTime":0,"endTime":4.565217999999998,"instrument":2,"program":50,"isDrum":false},{"pitch":67,"velocity":105,"startTime":4.565217999999998,"endTime":5.217392,"instrument":2,"program":50,"isDrum":false},{"pitch":64,"velocity":105,"startTime":4.565217999999998,"endTime":5.217392,"instrument":2,"program":50,"isDrum":false},{"pitch":72,"velocity":105,"startTime":4.565217999999998,"endTime":5.217392,"instrument":2,"program":50,"isDrum":false},{"pitch":60,"velocity":105,"startTime":5.217392,"endTime":7.826087999999999,"instrument":2,"program":50,"isDrum":false},{"pitch":62,"velocity":105,"startTime":5.217392,"endTime":7.826087999999999,"instrument":2,"program":50,"isDrum":false},{"pitch":65,"velocity":105,"startTime":5.217392,"endTime":7.826087999999999,"instrument":2,"program":50,"isDrum":false},{"pitch":69,"velocity":105,"startTime":5.217392,"endTime":7.826087999999999,"instrument":2,"program":50,"isDrum":false},{"pitch":81,"velocity":90,"startTime":5.831522516666666,"endTime":8.440218516666668,"instrument":2,"program":50,"isDrum":false},{"pitch":77,"velocity":90,"startTime":6.320653016666665,"endTime":8.929349016666666,"instrument":2,"program":50,"isDrum":false},{"pitch":74,"velocity":90,"startTime":6.847826999999999,"endTime":9.456522999999997,"instrument":2,"program":50,"isDrum":false},{"pitch":69,"velocity":90,"startTime":7.565218399999999,"endTime":10.173914399999997,"instrument":2,"program":50,"isDrum":false},{"pitch":60,"velocity":105,"startTime":7.826087999999999,"endTime":8.3152185,"instrument":2,"program":50,"isDrum":false},{"pitch":64,"velocity":105,"startTime":7.826087999999999,"endTime":8.3152185,"instrument":2,"program":50,"isDrum":false},{"pitch":67,"velocity":105,"startTime":7.826087999999999,"endTime":8.3152185,"instrument":2,"program":50,"isDrum":false},{"pitch":57,"velocity":105,"startTime":8.3152185,"endTime":8.967392499999999,"instrument":2,"program":50,"isDrum":false},{"pitch":62,"velocity":105,"startTime":8.3152185,"endTime":8.967392499999999,"instrument":2,"program":50,"isDrum":false},{"pitch":65,"velocity":105,"startTime":8.3152185,"endTime":8.967392499999999,"instrument":2,"program":50,"isDrum":false},{"pitch":55,"velocity":105,"startTime":8.967392499999999,"endTime":9.619566499999998,"instrument":2,"program":50,"isDrum":false},{"pitch":60,"velocity":105,"startTime":8.967392499999999,"endTime":9.619566499999998,"instrument":2,"program":50,"isDrum":false},{"pitch":64,"velocity":105,"startTime":8.967392499999999,"endTime":9.619566499999998,"instrument":2,"program":50,"isDrum":false},{"pitch":57,"velocity":105,"startTime":9.619566499999998,"endTime":10.2717405,"instrument":2,"program":50,"isDrum":false},{"pitch":62,"velocity":105,"startTime":9.619566499999998,"endTime":10.2717405,"instrument":2,"program":50,"isDrum":false},{"pitch":65,"velocity":105,"startTime":9.619566499999998,"endTime":10.2717405,"instrument":2,"program":50,"isDrum":false},{"pitch":57,"velocity":105,"startTime":10.434783999999997,"endTime":13.043479999999999,"instrument":2,"program":50,"isDrum":false},{"pitch":62,"velocity":105,"startTime":10.434783999999997,"endTime":13.043479999999999,"instrument":2,"program":50,"isDrum":false},{"pitch":65,"velocity":105,"startTime":10.434783999999997,"endTime":12.880436499999998,"instrument":2,"program":50,"isDrum":false},{"pitch":72,"velocity":105,"startTime":10.434783999999997,"endTime":13.043479999999999,"instrument":2,"program":50,"isDrum":false},{"pitch":74,"velocity":105,"startTime":12.717392999999998,"endTime":12.880436499999998,"instrument":2,"program":50,"isDrum":false},{"pitch":69,"velocity":105,"startTime":12.717392999999998,"endTime":12.880436499999998,"instrument":2,"program":50,"isDrum":false},{"pitch":77,"velocity":105,"startTime":12.717392999999998,"endTime":12.880436499999998,"instrument":2,"program":50,"isDrum":false},{"pitch":65,"velocity":105,"startTime":12.717392999999998,"endTime":13.043479999999999,"instrument":2,"program":50,"isDrum":false},{"pitch":74,"velocity":105,"startTime":12.880436499999998,"endTime":13.043479999999999,"instrument":2,"program":50,"isDrum":false},{"pitch":69,"velocity":105,"startTime":12.880436499999998,"endTime":13.043479999999999,"instrument":2,"program":50,"isDrum":false},{"pitch":77,"velocity":105,"startTime":12.880436499999998,"endTime":13.043479999999999,"instrument":2,"program":50,"isDrum":false},{"pitch":65,"velocity":105,"startTime":12.880436499999998,"endTime":13.043479999999999,"instrument":2,"program":50,"isDrum":false},{"pitch":64,"velocity":105,"startTime":15.000001999999999,"endTime":15.652175999999997,"instrument":2,"program":50,"isDrum":false},{"pitch":67,"velocity":105,"startTime":15.000001999999999,"endTime":15.652175999999997,"instrument":2,"program":50,"isDrum":false},{"pitch":70,"velocity":105,"startTime":15.000001999999999,"endTime":15.652175999999997,"instrument":2,"program":50,"isDrum":false},{"pitch":76,"velocity":105,"startTime":15.000001999999999,"endTime":15.652175999999997,"instrument":2,"program":50,"isDrum":false},{"pitch":60,"velocity":105,"startTime":15.652175999999997,"endTime":16.1413065,"instrument":2,"program":50,"isDrum":false},{"pitch":64,"velocity":105,"startTime":15.652175999999997,"endTime":16.1413065,"instrument":2,"program":50,"isDrum":false},{"pitch":67,"velocity":105,"startTime":15.652175999999997,"endTime":16.1413065,"instrument":2,"program":50,"isDrum":false},{"pitch":57,"velocity":105,"startTime":16.1413065,"endTime":16.793480499999998,"instrument":2,"program":50,"isDrum":false},{"pitch":62,"velocity":105,"startTime":16.1413065,"endTime":16.793480499999998,"instrument":2,"program":50,"isDrum":false},{"pitch":65,"velocity":105,"startTime":16.1413065,"endTime":16.793480499999998,"instrument":2,"program":50,"isDrum":false},{"pitch":55,"velocity":105,"startTime":16.793480499999998,"endTime":17.445654499999996,"instrument":2,"program":50,"isDrum":false},{"pitch":60,"velocity":105,"startTime":16.793480499999998,"endTime":17.445654499999996,"instrument":2,"program":50,"isDrum":false},{"pitch":64,"velocity":105,"startTime":16.793480499999998,"endTime":17.445654499999996,"instrument":2,"program":50,"isDrum":false},{"pitch":57,"velocity":105,"startTime":17.445654499999996,"endTime":18.0978285,"instrument":2,"program":50,"isDrum":false},{"pitch":62,"velocity":105,"startTime":17.445654499999996,"endTime":18.0978285,"instrument":2,"program":50,"isDrum":false},{"pitch":65,"velocity":105,"startTime":17.445654499999996,"endTime":18.0978285,"instrument":2,"program":50,"isDrum":false},{"pitch":60,"velocity":105,"startTime":18.17935025,"endTime":20.788046249999997,"instrument":2,"program":50,"isDrum":false},{"pitch":65,"velocity":105,"startTime":18.20108938333333,"endTime":20.80978538333333,"instrument":2,"program":50,"isDrum":false},{"pitch":76,"velocity":105,"startTime":18.260871999999996,"endTime":20.869567999999997,"instrument":2,"program":50,"isDrum":false},{"pitch":69,"velocity":105,"startTime":18.260871999999996,"endTime":20.869567999999997,"instrument":2,"program":50,"isDrum":false},{"pitch":50,"velocity":128,"startTime":18.423915499999996,"endTime":20.842394083333335,"instrument":2,"program":50,"isDrum":false},{"pitch":55,"velocity":104,"startTime":18.586958999999997,"endTime":20.842394083333335,"instrument":2,"program":50,"isDrum":false},{"pitch":57,"velocity":117,"startTime":18.750002499999997,"endTime":20.842394083333335,"instrument":2,"program":50,"isDrum":false},{"pitch":60,"velocity":128,"startTime":18.913045999999998,"endTime":20.842394083333335,"instrument":2,"program":50,"isDrum":false},{"pitch":62,"velocity":120,"startTime":19.0760895,"endTime":19.29348083333333,"instrument":2,"program":50,"isDrum":false},{"pitch":67,"velocity":114,"startTime":19.239133,"endTime":20.793481033333332,"instrument":2,"program":50,"isDrum":false},{"pitch":64,"velocity":101,"startTime":19.4021765,"endTime":20.527176649999998,"instrument":2,"program":50,"isDrum":false},{"pitch":62,"velocity":104,"startTime":20.097828766666662,"endTime":20.750002766666665,"instrument":2,"program":50,"isDrum":false},{"pitch":72,"velocity":104,"startTime":20.135872249999995,"endTime":20.788046249999997,"instrument":2,"program":50,"isDrum":false},{"pitch":67,"velocity":104,"startTime":20.14130703333333,"endTime":20.842394083333335,"instrument":2,"program":50,"isDrum":false},{"pitch":76,"velocity":104,"startTime":20.217393999999995,"endTime":20.869567999999997,"instrument":2,"program":50,"isDrum":false},{"pitch":62,"velocity":95,"startTime":0,"endTime":0.08152175000000028,"instrument":4,"program":12,"isDrum":false},{"pitch":69,"velocity":95,"startTime":0.1630434999999988,"endTime":0.24456524999999907,"instrument":4,"program":12,"isDrum":false},{"pitch":74,"velocity":95,"startTime":0.32608699999999935,"endTime":0.40760874999999963,"instrument":4,"program":12,"isDrum":false},{"pitch":69,"velocity":95,"startTime":0.4891304999999999,"endTime":0.5706522500000002,"instrument":4,"program":12,"isDrum":false},{"pitch":62,"velocity":95,"startTime":0.6521739999999987,"endTime":0.733695749999999,"instrument":4,"program":12,"isDrum":false},{"pitch":69,"velocity":95,"startTime":0.8152174999999993,"endTime":0.8967392499999995,"instrument":4,"program":12,"isDrum":false},{"pitch":76,"velocity":95,"startTime":0.9782609999999998,"endTime":1.05978275,"instrument":4,"program":12,"isDrum":false},{"pitch":72,"velocity":95,"startTime":1.1413044999999986,"endTime":1.222826249999999,"instrument":4,"program":12,"isDrum":false},{"pitch":62,"velocity":95,"startTime":1.3043479999999992,"endTime":1.3858697499999995,"instrument":4,"program":12,"isDrum":false},{"pitch":69,"velocity":95,"startTime":1.4673914999999997,"endTime":1.54891325,"instrument":4,"program":12,"isDrum":false},{"pitch":72,"velocity":95,"startTime":1.6304349999999985,"endTime":1.7119567499999988,"instrument":4,"program":12,"isDrum":false},{"pitch":67,"velocity":95,"startTime":1.793478499999999,"endTime":1.8750002499999994,"instrument":4,"program":12,"isDrum":false},{"pitch":62,"velocity":95,"startTime":1.9565219999999997,"endTime":2.03804375,"instrument":4,"program":12,"isDrum":false},{"pitch":69,"velocity":95,"startTime":2.1195654999999984,"endTime":2.2010872499999987,"instrument":4,"program":12,"isDrum":false},{"pitch":74,"velocity":95,"startTime":2.282608999999999,"endTime":2.3641307499999993,"instrument":4,"program":12,"isDrum":false},{"pitch":65,"velocity":95,"startTime":2.4456524999999996,"endTime":2.52717425,"instrument":4,"program":12,"isDrum":false},{"pitch":62,"velocity":95,"startTime":2.6086959999999983,"endTime":2.6902177499999986,"instrument":4,"program":12,"isDrum":false},{"pitch":69,"velocity":95,"startTime":2.771739499999999,"endTime":2.853261249999999,"instrument":4,"program":12,"isDrum":false},{"pitch":74,"velocity":95,"startTime":2.9347829999999995,"endTime":3.0163047499999998,"instrument":4,"program":12,"isDrum":false},{"pitch":72,"velocity":95,"startTime":3.0978265,"endTime":3.1793482500000003,"instrument":4,"program":12,"isDrum":false},{"pitch":62,"velocity":95,"startTime":3.2608700000000006,"endTime":3.342391750000001,"instrument":4,"program":12,"isDrum":false},{"pitch":69,"velocity":95,"startTime":3.4239134999999976,"endTime":3.505435249999998,"instrument":4,"program":12,"isDrum":false},{"pitch":65,"velocity":95,"startTime":3.586956999999998,"endTime":3.6684787499999985,"instrument":4,"program":12,"isDrum":false},{"pitch":74,"velocity":95,"startTime":3.7500004999999987,"endTime":3.831522249999999,"instrument":4,"program":12,"isDrum":false},{"pitch":62,"velocity":95,"startTime":3.9130439999999993,"endTime":3.9945657499999996,"instrument":4,"program":12,"isDrum":false},{"pitch":72,"velocity":95,"startTime":4.0760875,"endTime":4.15760925,"instrument":4,"program":12,"isDrum":false},{"pitch":76,"velocity":95,"startTime":4.239131,"endTime":4.320652750000001,"instrument":4,"program":12,"isDrum":false},{"pitch":67,"velocity":95,"startTime":4.402174499999997,"endTime":4.483696249999998,"instrument":4,"program":12,"isDrum":false},{"pitch":62,"velocity":95,"startTime":4.565217999999998,"endTime":4.646739749999998,"instrument":4,"program":12,"isDrum":false},{"pitch":69,"velocity":95,"startTime":4.728261499999999,"endTime":4.809783249999999,"instrument":4,"program":12,"isDrum":false},{"pitch":74,"velocity":95,"startTime":4.891304999999999,"endTime":4.972826749999999,"instrument":4,"program":12,"isDrum":false},{"pitch":65,"velocity":95,"startTime":5.0543485,"endTime":5.13587025,"instrument":4,"program":12,"isDrum":false},{"pitch":62,"velocity":95,"startTime":5.217392,"endTime":5.2989137500000005,"instrument":4,"program":12,"isDrum":false},{"pitch":69,"velocity":95,"startTime":5.380435499999997,"endTime":5.4619572499999975,"instrument":4,"program":12,"isDrum":false},{"pitch":74,"velocity":95,"startTime":5.543478999999998,"endTime":5.625000749999998,"instrument":4,"program":12,"isDrum":false},{"pitch":69,"velocity":95,"startTime":5.706522499999998,"endTime":5.788044249999999,"instrument":4,"program":12,"isDrum":false},{"pitch":62,"velocity":95,"startTime":5.869565999999999,"endTime":5.951087749999999,"instrument":4,"program":12,"isDrum":false},{"pitch":69,"velocity":95,"startTime":6.0326094999999995,"endTime":6.11413125,"instrument":4,"program":12,"isDrum":false},{"pitch":76,"velocity":95,"startTime":6.195653,"endTime":6.27717475,"instrument":4,"program":12,"isDrum":false},{"pitch":72,"velocity":95,"startTime":6.358696499999997,"endTime":6.440218249999997,"instrument":4,"program":12,"isDrum":false},{"pitch":62,"velocity":95,"startTime":6.521739999999998,"endTime":6.603261749999998,"instrument":4,"program":12,"isDrum":false},{"pitch":69,"velocity":95,"startTime":6.684783499999998,"endTime":6.7663052499999985,"instrument":4,"program":12,"isDrum":false},{"pitch":72,"velocity":95,"startTime":6.847826999999999,"endTime":6.929348749999999,"instrument":4,"program":12,"isDrum":false},{"pitch":67,"velocity":95,"startTime":7.010870499999999,"endTime":7.09239225,"instrument":4,"program":12,"isDrum":false},{"pitch":62,"velocity":95,"startTime":7.173914,"endTime":7.25543575,"instrument":4,"program":12,"isDrum":false},{"pitch":69,"velocity":95,"startTime":7.336957499999997,"endTime":7.418479249999997,"instrument":4,"program":12,"isDrum":false},{"pitch":74,"velocity":95,"startTime":7.5000009999999975,"endTime":7.581522749999998,"instrument":4,"program":12,"isDrum":false},{"pitch":65,"velocity":95,"startTime":7.663044499999998,"endTime":7.744566249999998,"instrument":4,"program":12,"isDrum":false},{"pitch":62,"velocity":95,"startTime":7.826087999999999,"endTime":7.907609749999999,"instrument":4,"program":12,"isDrum":false},{"pitch":69,"velocity":95,"startTime":7.989131499999999,"endTime":8.07065325,"instrument":4,"program":12,"isDrum":false},{"pitch":74,"velocity":95,"startTime":8.152175,"endTime":8.23369675,"instrument":4,"program":12,"isDrum":false},{"pitch":72,"velocity":95,"startTime":8.3152185,"endTime":8.396740249999997,"instrument":4,"program":12,"isDrum":false},{"pitch":62,"velocity":95,"startTime":8.478261999999997,"endTime":8.559783749999998,"instrument":4,"program":12,"isDrum":false},{"pitch":69,"velocity":95,"startTime":8.641305499999998,"endTime":8.722827249999998,"instrument":4,"program":12,"isDrum":false},{"pitch":65,"velocity":95,"startTime":8.804348999999998,"endTime":8.885870749999999,"instrument":4,"program":12,"isDrum":false},{"pitch":74,"velocity":95,"startTime":8.967392499999999,"endTime":9.04891425,"instrument":4,"program":12,"isDrum":false},{"pitch":62,"velocity":95,"startTime":9.130436,"endTime":9.21195775,"instrument":4,"program":12,"isDrum":false},{"pitch":72,"velocity":95,"startTime":9.2934795,"endTime":9.375001249999997,"instrument":4,"program":12,"isDrum":false},{"pitch":76,"velocity":95,"startTime":9.456522999999997,"endTime":9.538044749999997,"instrument":4,"program":12,"isDrum":false},{"pitch":67,"velocity":95,"startTime":9.619566499999998,"endTime":9.701088249999998,"instrument":4,"program":12,"isDrum":false},{"pitch":62,"velocity":95,"startTime":9.782609999999998,"endTime":9.864131749999999,"instrument":4,"program":12,"isDrum":false},{"pitch":69,"velocity":95,"startTime":9.945653499999999,"endTime":10.027175249999999,"instrument":4,"program":12,"isDrum":false},{"pitch":74,"velocity":95,"startTime":10.108697,"endTime":10.19021875,"instrument":4,"program":12,"isDrum":false},{"pitch":65,"velocity":95,"startTime":10.2717405,"endTime":10.353262249999997,"instrument":4,"program":12,"isDrum":false},{"pitch":62,"velocity":95,"startTime":10.434783999999997,"endTime":10.516305749999997,"instrument":4,"program":12,"isDrum":false},{"pitch":69,"velocity":95,"startTime":10.597827499999998,"endTime":10.679349249999998,"instrument":4,"program":12,"isDrum":false},{"pitch":74,"velocity":95,"startTime":10.760870999999998,"endTime":10.842392749999998,"instrument":4,"program":12,"isDrum":false},{"pitch":69,"velocity":95,"startTime":10.923914499999999,"endTime":11.005436249999999,"instrument":4,"program":12,"isDrum":false},{"pitch":62,"velocity":95,"startTime":11.086958,"endTime":11.16847975,"instrument":4,"program":12,"isDrum":false},{"pitch":69,"velocity":95,"startTime":11.2500015,"endTime":11.331523249999996,"instrument":4,"program":12,"isDrum":false},{"pitch":76,"velocity":95,"startTime":11.413044999999997,"endTime":11.494566749999997,"instrument":4,"program":12,"isDrum":false},{"pitch":72,"velocity":95,"startTime":11.576088499999997,"endTime":11.657610249999998,"instrument":4,"program":12,"isDrum":false},{"pitch":62,"velocity":95,"startTime":11.739131999999998,"endTime":11.820653749999998,"instrument":4,"program":12,"isDrum":false},{"pitch":69,"velocity":95,"startTime":11.902175499999998,"endTime":11.983697249999999,"instrument":4,"program":12,"isDrum":false},{"pitch":72,"velocity":95,"startTime":12.065218999999999,"endTime":12.14674075,"instrument":4,"program":12,"isDrum":false},{"pitch":67,"velocity":95,"startTime":12.2282625,"endTime":12.309784249999996,"instrument":4,"program":12,"isDrum":false},{"pitch":62,"velocity":95,"startTime":12.391305999999997,"endTime":12.472827749999997,"instrument":4,"program":12,"isDrum":false},{"pitch":69,"velocity":95,"startTime":12.554349499999997,"endTime":12.635871249999997,"instrument":4,"program":12,"isDrum":false},{"pitch":74,"velocity":95,"startTime":12.717392999999998,"endTime":12.798914749999998,"instrument":4,"program":12,"isDrum":false},{"pitch":65,"velocity":95,"startTime":12.880436499999998,"endTime":12.961958249999999,"instrument":4,"program":12,"isDrum":false},{"pitch":62,"velocity":95,"startTime":13.043479999999999,"endTime":13.12500175,"instrument":4,"program":12,"isDrum":false},{"pitch":69,"velocity":95,"startTime":13.2065235,"endTime":13.28804525,"instrument":4,"program":12,"isDrum":false},{"pitch":74,"velocity":95,"startTime":13.369566999999996,"endTime":13.451088749999997,"instrument":4,"program":12,"isDrum":false},{"pitch":72,"velocity":95,"startTime":13.532610499999997,"endTime":13.614132249999997,"instrument":4,"program":12,"isDrum":false},{"pitch":62,"velocity":95,"startTime":13.695653999999998,"endTime":13.777175749999998,"instrument":4,"program":12,"isDrum":false},{"pitch":69,"velocity":95,"startTime":13.858697499999998,"endTime":13.940219249999998,"instrument":4,"program":12,"isDrum":false},{"pitch":65,"velocity":95,"startTime":14.021740999999999,"endTime":14.103262749999999,"instrument":4,"program":12,"isDrum":false},{"pitch":74,"velocity":95,"startTime":14.1847845,"endTime":14.26630625,"instrument":4,"program":12,"isDrum":false},{"pitch":62,"velocity":95,"startTime":14.347827999999996,"endTime":14.429349749999997,"instrument":4,"program":12,"isDrum":false},{"pitch":72,"velocity":95,"startTime":14.510871499999997,"endTime":14.592393249999997,"instrument":4,"program":12,"isDrum":false},{"pitch":76,"velocity":95,"startTime":14.673914999999997,"endTime":14.755436749999998,"instrument":4,"program":12,"isDrum":false},{"pitch":67,"velocity":95,"startTime":14.836958499999998,"endTime":14.918480249999998,"instrument":4,"program":12,"isDrum":false},{"pitch":62,"velocity":95,"startTime":15.000001999999999,"endTime":15.081523749999999,"instrument":4,"program":12,"isDrum":false},{"pitch":69,"velocity":95,"startTime":15.163045499999999,"endTime":15.24456725,"instrument":4,"program":12,"isDrum":false},{"pitch":74,"velocity":95,"startTime":15.326088999999996,"endTime":15.407610749999996,"instrument":4,"program":12,"isDrum":false},{"pitch":65,"velocity":95,"startTime":15.489132499999997,"endTime":15.570654249999997,"instrument":4,"program":12,"isDrum":false},{"pitch":62,"velocity":95,"startTime":15.652175999999997,"endTime":15.733697749999997,"instrument":4,"program":12,"isDrum":false},{"pitch":69,"velocity":95,"startTime":15.815219499999998,"endTime":15.896741249999998,"instrument":4,"program":12,"isDrum":false},{"pitch":74,"velocity":95,"startTime":15.978262999999998,"endTime":16.05978475,"instrument":4,"program":12,"isDrum":false},{"pitch":69,"velocity":95,"startTime":16.1413065,"endTime":16.22282825,"instrument":4,"program":12,"isDrum":false},{"pitch":62,"velocity":95,"startTime":16.304349999999996,"endTime":16.385871749999996,"instrument":4,"program":12,"isDrum":false},{"pitch":69,"velocity":95,"startTime":16.467393499999996,"endTime":16.548915249999997,"instrument":4,"program":12,"isDrum":false},{"pitch":76,"velocity":95,"startTime":16.630436999999997,"endTime":16.711958749999997,"instrument":4,"program":12,"isDrum":false},{"pitch":72,"velocity":95,"startTime":16.793480499999998,"endTime":16.875002249999998,"instrument":4,"program":12,"isDrum":false},{"pitch":62,"velocity":95,"startTime":16.956523999999998,"endTime":17.03804575,"instrument":4,"program":12,"isDrum":false},{"pitch":69,"velocity":95,"startTime":17.1195675,"endTime":17.20108925,"instrument":4,"program":12,"isDrum":false},{"pitch":72,"velocity":95,"startTime":17.282610999999996,"endTime":17.364132749999996,"instrument":4,"program":12,"isDrum":false},{"pitch":67,"velocity":95,"startTime":17.445654499999996,"endTime":17.527176249999997,"instrument":4,"program":12,"isDrum":false},{"pitch":62,"velocity":95,"startTime":17.608697999999997,"endTime":17.690219749999997,"instrument":4,"program":12,"isDrum":false},{"pitch":69,"velocity":95,"startTime":17.771741499999997,"endTime":17.853263249999998,"instrument":4,"program":12,"isDrum":false},{"pitch":74,"velocity":95,"startTime":17.934784999999998,"endTime":18.01630675,"instrument":4,"program":12,"isDrum":false},{"pitch":65,"velocity":95,"startTime":18.0978285,"endTime":18.17935025,"instrument":4,"program":12,"isDrum":false},{"pitch":62,"velocity":95,"startTime":18.260871999999996,"endTime":18.342393749999996,"instrument":4,"program":12,"isDrum":false},{"pitch":69,"velocity":95,"startTime":18.423915499999996,"endTime":18.505437249999996,"instrument":4,"program":12,"isDrum":false},{"pitch":74,"velocity":95,"startTime":18.586958999999997,"endTime":18.668480749999997,"instrument":4,"program":12,"isDrum":false},{"pitch":72,"velocity":95,"startTime":18.750002499999997,"endTime":18.831524249999998,"instrument":4,"program":12,"isDrum":false},{"pitch":62,"velocity":95,"startTime":18.913045999999998,"endTime":18.994567749999998,"instrument":4,"program":12,"isDrum":false},{"pitch":69,"velocity":95,"startTime":19.0760895,"endTime":19.15761125,"instrument":4,"program":12,"isDrum":false},{"pitch":65,"velocity":95,"startTime":19.239133,"endTime":19.32065475,"instrument":4,"program":12,"isDrum":false},{"pitch":74,"velocity":95,"startTime":19.4021765,"endTime":19.48369825,"instrument":4,"program":12,"isDrum":false},{"pitch":62,"velocity":95,"startTime":19.56522,"endTime":19.64674175,"instrument":4,"program":12,"isDrum":false},{"pitch":72,"velocity":95,"startTime":19.7282635,"endTime":19.809785249999994,"instrument":4,"program":12,"isDrum":false},{"pitch":76,"velocity":95,"startTime":19.891306999999994,"endTime":19.972828749999994,"instrument":4,"program":12,"isDrum":false},{"pitch":67,"velocity":95,"startTime":20.054350499999995,"endTime":20.135872249999995,"instrument":4,"program":12,"isDrum":false},{"pitch":62,"velocity":95,"startTime":20.217393999999995,"endTime":20.298915749999995,"instrument":4,"program":12,"isDrum":false},{"pitch":69,"velocity":95,"startTime":20.380437499999996,"endTime":20.461959249999996,"instrument":4,"program":12,"isDrum":false},{"pitch":74,"velocity":95,"startTime":20.543480999999996,"endTime":20.625002749999997,"instrument":4,"program":12,"isDrum":false},{"pitch":65,"velocity":95,"startTime":20.706524499999997,"endTime":20.788046249999997,"instrument":4,"program":12,"isDrum":false},{"pitch":62,"velocity":95,"startTime":20.869567999999997,"endTime":20.951089749999998,"instrument":4,"program":12,"isDrum":false},{"pitch":49,"velocity":110,"startTime":0,"endTime":0.6521739999999987,"instrument":6,"program":0,"isDrum":true},{"pitch":42,"velocity":85,"startTime":0,"endTime":0.1630434999999988,"instrument":6,"program":0,"isDrum":true},{"pitch":35,"velocity":120,"startTime":0,"endTime":0.1630434999999988,"instrument":6,"program":0,"isDrum":true},{"pitch":51,"velocity":105,"startTime":0,"endTime":0.6521739999999987,"instrument":6,"program":0,"isDrum":true},{"pitch":42,"velocity":85,"startTime":0.32608699999999935,"endTime":0.4891304999999999,"instrument":6,"program":0,"isDrum":true},{"pitch":42,"velocity":85,"startTime":0.6521739999999987,"endTime":0.8152174999999993,"instrument":6,"program":0,"isDrum":true},{"pitch":40,"velocity":120,"startTime":0.6521739999999987,"endTime":0.8152174999999993,"instrument":6,"program":0,"isDrum":true},{"pitch":51,"velocity":105,"startTime":0.6521739999999987,"endTime":1.3043479999999992,"instrument":6,"program":0,"isDrum":true},{"pitch":42,"velocity":85,"startTime":0.9782609999999998,"endTime":1.1413044999999986,"instrument":6,"program":0,"isDrum":true},{"pitch":35,"velocity":120,"startTime":1.1413044999999986,"endTime":1.3043479999999992,"instrument":6,"program":0,"isDrum":true},{"pitch":42,"velocity":85,"startTime":1.3043479999999992,"endTime":1.4673914999999997,"instrument":6,"program":0,"isDrum":true},{"pitch":51,"velocity":105,"startTime":1.3043479999999992,"endTime":1.9565219999999997,"instrument":6,"program":0,"isDrum":true},{"pitch":42,"velocity":85,"startTime":1.6304349999999985,"endTime":1.793478499999999,"instrument":6,"program":0,"isDrum":true},{"pitch":35,"velocity":120,"startTime":1.793478499999999,"endTime":1.9565219999999997,"instrument":6,"program":0,"isDrum":true},{"pitch":40,"velocity":120,"startTime":1.9565219999999997,"endTime":2.1195654999999984,"instrument":6,"program":0,"isDrum":true},{"pitch":42,"velocity":85,"startTime":1.9565219999999997,"endTime":2.1195654999999984,"instrument":6,"program":0,"isDrum":true},{"pitch":51,"velocity":105,"startTime":1.9565219999999997,"endTime":2.6086959999999983,"instrument":6,"program":0,"isDrum":true},{"pitch":35,"velocity":120,"startTime":2.282608999999999,"endTime":2.4456524999999996,"instrument":6,"program":0,"isDrum":true},{"pitch":42,"velocity":85,"startTime":2.282608999999999,"endTime":2.4456524999999996,"instrument":6,"program":0,"isDrum":true},{"pitch":51,"velocity":105,"startTime":2.6086959999999983,"endTime":3.2608700000000006,"instrument":6,"program":0,"isDrum":true},{"pitch":42,"velocity":85,"startTime":2.6086959999999983,"endTime":2.771739499999999,"instrument":6,"program":0,"isDrum":true},{"pitch":35,"velocity":120,"startTime":2.6086959999999983,"endTime":2.771739499999999,"instrument":6,"program":0,"isDrum":true},{"pitch":42,"velocity":85,"startTime":2.9347829999999995,"endTime":3.0978265,"instrument":6,"program":0,"isDrum":true},{"pitch":42,"velocity":85,"startTime":3.2608700000000006,"endTime":3.4239134999999976,"instrument":6,"program":0,"isDrum":true},{"pitch":40,"velocity":120,"startTime":3.2608700000000006,"endTime":3.4239134999999976,"instrument":6,"program":0,"isDrum":true},{"pitch":51,"velocity":105,"startTime":3.2608700000000006,"endTime":3.9130439999999993,"instrument":6,"program":0,"isDrum":true},{"pitch":42,"velocity":85,"startTime":3.586956999999998,"endTime":3.7500004999999987,"instrument":6,"program":0,"isDrum":true},{"pitch":35,"velocity":120,"startTime":3.7500004999999987,"endTime":3.9130439999999993,"instrument":6,"program":0,"isDrum":true},{"pitch":42,"velocity":85,"startTime":3.9130439999999993,"endTime":4.0760875,"instrument":6,"program":0,"isDrum":true},{"pitch":51,"velocity":105,"startTime":3.9130439999999993,"endTime":4.565217999999998,"instrument":6,"program":0,"isDrum":true},{"pitch":42,"velocity":85,"startTime":4.239131,"endTime":4.402174499999997,"instrument":6,"program":0,"isDrum":true},{"pitch":35,"velocity":120,"startTime":4.402174499999997,"endTime":4.565217999999998,"instrument":6,"program":0,"isDrum":true},{"pitch":40,"velocity":120,"startTime":4.565217999999998,"endTime":4.728261499999999,"instrument":6,"program":0,"isDrum":true},{"pitch":42,"velocity":85,"startTime":4.565217999999998,"endTime":4.728261499999999,"instrument":6,"program":0,"isDrum":true},{"pitch":51,"velocity":105,"startTime":4.565217999999998,"endTime":5.217392,"instrument":6,"program":0,"isDrum":true},{"pitch":35,"velocity":120,"startTime":4.891304999999999,"endTime":5.0543485,"instrument":6,"program":0,"isDrum":true},{"pitch":42,"velocity":85,"startTime":4.891304999999999,"endTime":5.0543485,"instrument":6,"program":0,"isDrum":true},{"pitch":42,"velocity":85,"startTime":5.217392,"endTime":5.380435499999997,"instrument":6,"program":0,"isDrum":true},{"pitch":35,"velocity":120,"startTime":5.217392,"endTime":5.380435499999997,"instrument":6,"program":0,"isDrum":true},{"pitch":51,"velocity":105,"startTime":5.217392,"endTime":5.869565999999999,"instrument":6,"program":0,"isDrum":true},{"pitch":42,"velocity":85,"startTime":5.543478999999998,"endTime":5.706522499999998,"instrument":6,"program":0,"isDrum":true},{"pitch":42,"velocity":85,"startTime":5.869565999999999,"endTime":6.0326094999999995,"instrument":6,"program":0,"isDrum":true},{"pitch":40,"velocity":120,"startTime":5.869565999999999,"endTime":6.0326094999999995,"instrument":6,"program":0,"isDrum":true},{"pitch":51,"velocity":105,"startTime":5.869565999999999,"endTime":6.521739999999998,"instrument":6,"program":0,"isDrum":true},{"pitch":42,"velocity":85,"startTime":6.195653,"endTime":6.358696499999997,"instrument":6,"program":0,"isDrum":true},{"pitch":35,"velocity":120,"startTime":6.358696499999997,"endTime":6.521739999999998,"instrument":6,"program":0,"isDrum":true},{"pitch":42,"velocity":85,"startTime":6.521739999999998,"endTime":6.684783499999998,"instrument":6,"program":0,"isDrum":true},{"pitch":51,"velocity":105,"startTime":6.521739999999998,"endTime":7.173914,"instrument":6,"program":0,"isDrum":true},{"pitch":42,"velocity":85,"startTime":6.847826999999999,"endTime":7.010870499999999,"instrument":6,"program":0,"isDrum":true},{"pitch":35,"velocity":120,"startTime":7.010870499999999,"endTime":7.173914,"instrument":6,"program":0,"isDrum":true},{"pitch":40,"velocity":120,"startTime":7.173914,"endTime":7.336957499999997,"instrument":6,"program":0,"isDrum":true},{"pitch":42,"velocity":85,"startTime":7.173914,"endTime":7.336957499999997,"instrument":6,"program":0,"isDrum":true},{"pitch":51,"velocity":105,"startTime":7.173914,"endTime":7.826087999999999,"instrument":6,"program":0,"isDrum":true},{"pitch":35,"velocity":120,"startTime":7.5000009999999975,"endTime":7.663044499999998,"instrument":6,"program":0,"isDrum":true},{"pitch":42,"velocity":85,"startTime":7.5000009999999975,"endTime":7.663044499999998,"instrument":6,"program":0,"isDrum":true},{"pitch":42,"velocity":85,"startTime":7.826087999999999,"endTime":7.989131499999999,"instrument":6,"program":0,"isDrum":true},{"pitch":35,"velocity":120,"startTime":7.826087999999999,"endTime":7.989131499999999,"instrument":6,"program":0,"isDrum":true},{"pitch":51,"velocity":105,"startTime":7.826087999999999,"endTime":8.478261999999997,"instrument":6,"program":0,"isDrum":true},{"pitch":42,"velocity":85,"startTime":8.152175,"endTime":8.3152185,"instrument":6,"program":0,"isDrum":true},{"pitch":42,"velocity":85,"startTime":8.478261999999997,"endTime":8.641305499999998,"instrument":6,"program":0,"isDrum":true},{"pitch":40,"velocity":120,"startTime":8.478261999999997,"endTime":8.641305499999998,"instrument":6,"program":0,"isDrum":true},{"pitch":51,"velocity":105,"startTime":8.478261999999997,"endTime":9.130436,"instrument":6,"program":0,"isDrum":true},{"pitch":42,"velocity":85,"startTime":8.804348999999998,"endTime":8.967392499999999,"instrument":6,"program":0,"isDrum":true},{"pitch":35,"velocity":120,"startTime":8.967392499999999,"endTime":9.130436,"instrument":6,"program":0,"isDrum":true},{"pitch":42,"velocity":85,"startTime":9.130436,"endTime":9.2934795,"instrument":6,"program":0,"isDrum":true},{"pitch":51,"velocity":105,"startTime":9.130436,"endTime":9.782609999999998,"instrument":6,"program":0,"isDrum":true},{"pitch":42,"velocity":85,"startTime":9.456522999999997,"endTime":9.619566499999998,"instrument":6,"program":0,"isDrum":true},{"pitch":35,"velocity":120,"startTime":9.619566499999998,"endTime":9.782609999999998,"instrument":6,"program":0,"isDrum":true},{"pitch":40,"velocity":120,"startTime":9.782609999999998,"endTime":9.945653499999999,"instrument":6,"program":0,"isDrum":true},{"pitch":42,"velocity":85,"startTime":9.782609999999998,"endTime":9.945653499999999,"instrument":6,"program":0,"isDrum":true},{"pitch":51,"velocity":105,"startTime":9.782609999999998,"endTime":10.434783999999997,"instrument":6,"program":0,"isDrum":true},{"pitch":35,"velocity":120,"startTime":10.108697,"endTime":10.2717405,"instrument":6,"program":0,"isDrum":true},{"pitch":42,"velocity":85,"startTime":10.108697,"endTime":10.2717405,"instrument":6,"program":0,"isDrum":true},{"pitch":42,"velocity":85,"startTime":10.434783999999997,"endTime":10.597827499999998,"instrument":6,"program":0,"isDrum":true},{"pitch":35,"velocity":120,"startTime":10.434783999999997,"endTime":10.597827499999998,"instrument":6,"program":0,"isDrum":true},{"pitch":51,"velocity":105,"startTime":10.434783999999997,"endTime":11.086958,"instrument":6,"program":0,"isDrum":true},{"pitch":42,"velocity":85,"startTime":10.760870999999998,"endTime":10.923914499999999,"instrument":6,"program":0,"isDrum":true},{"pitch":42,"velocity":85,"startTime":11.086958,"endTime":11.2500015,"instrument":6,"program":0,"isDrum":true},{"pitch":40,"velocity":120,"startTime":11.086958,"endTime":11.2500015,"instrument":6,"program":0,"isDrum":true},{"pitch":51,"velocity":105,"startTime":11.086958,"endTime":11.739131999999998,"instrument":6,"program":0,"isDrum":true},{"pitch":42,"velocity":85,"startTime":11.413044999999997,"endTime":11.576088499999997,"instrument":6,"program":0,"isDrum":true},{"pitch":35,"velocity":120,"startTime":11.576088499999997,"endTime":11.739131999999998,"instrument":6,"program":0,"isDrum":true},{"pitch":42,"velocity":85,"startTime":11.739131999999998,"endTime":11.902175499999998,"instrument":6,"program":0,"isDrum":true},{"pitch":51,"velocity":105,"startTime":11.739131999999998,"endTime":12.391305999999997,"instrument":6,"program":0,"isDrum":true},{"pitch":42,"velocity":85,"startTime":12.065218999999999,"endTime":12.2282625,"instrument":6,"program":0,"isDrum":true},{"pitch":35,"velocity":120,"startTime":12.2282625,"endTime":12.391305999999997,"instrument":6,"program":0,"isDrum":true},{"pitch":40,"velocity":120,"startTime":12.391305999999997,"endTime":12.554349499999997,"instrument":6,"program":0,"isDrum":true},{"pitch":42,"velocity":85,"startTime":12.391305999999997,"endTime":12.554349499999997,"instrument":6,"program":0,"isDrum":true},{"pitch":51,"velocity":105,"startTime":12.391305999999997,"endTime":13.043479999999999,"instrument":6,"program":0,"isDrum":true},{"pitch":35,"velocity":120,"startTime":12.717392999999998,"endTime":12.880436499999998,"instrument":6,"program":0,"isDrum":true},{"pitch":42,"velocity":85,"startTime":12.717392999999998,"endTime":12.880436499999998,"instrument":6,"program":0,"isDrum":true},{"pitch":42,"velocity":85,"startTime":13.043479999999999,"endTime":13.2065235,"instrument":6,"program":0,"isDrum":true},{"pitch":35,"velocity":120,"startTime":13.043479999999999,"endTime":13.2065235,"instrument":6,"program":0,"isDrum":true},{"pitch":51,"velocity":105,"startTime":13.043479999999999,"endTime":13.695653999999998,"instrument":6,"program":0,"isDrum":true},{"pitch":42,"velocity":85,"startTime":13.369566999999996,"endTime":13.532610499999997,"instrument":6,"program":0,"isDrum":true},{"pitch":42,"velocity":85,"startTime":13.695653999999998,"endTime":13.858697499999998,"instrument":6,"program":0,"isDrum":true},{"pitch":40,"velocity":120,"startTime":13.695653999999998,"endTime":13.858697499999998,"instrument":6,"program":0,"isDrum":true},{"pitch":51,"velocity":105,"startTime":13.695653999999998,"endTime":14.347827999999996,"instrument":6,"program":0,"isDrum":true},{"pitch":42,"velocity":85,"startTime":14.021740999999999,"endTime":14.1847845,"instrument":6,"program":0,"isDrum":true},{"pitch":35,"velocity":120,"startTime":14.1847845,"endTime":14.347827999999996,"instrument":6,"program":0,"isDrum":true},{"pitch":42,"velocity":85,"startTime":14.347827999999996,"endTime":14.510871499999997,"instrument":6,"program":0,"isDrum":true},{"pitch":51,"velocity":105,"startTime":14.347827999999996,"endTime":15.000001999999999,"instrument":6,"program":0,"isDrum":true},{"pitch":42,"velocity":85,"startTime":14.673914999999997,"endTime":14.836958499999998,"instrument":6,"program":0,"isDrum":true},{"pitch":35,"velocity":120,"startTime":14.836958499999998,"endTime":15.000001999999999,"instrument":6,"program":0,"isDrum":true},{"pitch":40,"velocity":120,"startTime":15.000001999999999,"endTime":15.163045499999999,"instrument":6,"program":0,"isDrum":true},{"pitch":42,"velocity":85,"startTime":15.000001999999999,"endTime":15.163045499999999,"instrument":6,"program":0,"isDrum":true},{"pitch":51,"velocity":105,"startTime":15.000001999999999,"endTime":15.652175999999997,"instrument":6,"program":0,"isDrum":true},{"pitch":35,"velocity":120,"startTime":15.326088999999996,"endTime":15.489132499999997,"instrument":6,"program":0,"isDrum":true},{"pitch":42,"velocity":85,"startTime":15.326088999999996,"endTime":15.489132499999997,"instrument":6,"program":0,"isDrum":true},{"pitch":42,"velocity":85,"startTime":15.652175999999997,"endTime":15.815219499999998,"instrument":6,"program":0,"isDrum":true},{"pitch":35,"velocity":120,"startTime":15.652175999999997,"endTime":15.815219499999998,"instrument":6,"program":0,"isDrum":true},{"pitch":51,"velocity":105,"startTime":15.652175999999997,"endTime":16.304349999999996,"instrument":6,"program":0,"isDrum":true},{"pitch":42,"velocity":85,"startTime":15.978262999999998,"endTime":16.1413065,"instrument":6,"program":0,"isDrum":true},{"pitch":42,"velocity":85,"startTime":16.304349999999996,"endTime":16.467393499999996,"instrument":6,"program":0,"isDrum":true},{"pitch":40,"velocity":120,"startTime":16.304349999999996,"endTime":16.467393499999996,"instrument":6,"program":0,"isDrum":true},{"pitch":51,"velocity":105,"startTime":16.304349999999996,"endTime":16.956523999999998,"instrument":6,"program":0,"isDrum":true},{"pitch":42,"velocity":85,"startTime":16.630436999999997,"endTime":16.793480499999998,"instrument":6,"program":0,"isDrum":true},{"pitch":35,"velocity":120,"startTime":16.793480499999998,"endTime":16.956523999999998,"instrument":6,"program":0,"isDrum":true},{"pitch":42,"velocity":85,"startTime":16.956523999999998,"endTime":17.1195675,"instrument":6,"program":0,"isDrum":true},{"pitch":51,"velocity":105,"startTime":16.956523999999998,"endTime":17.608697999999997,"instrument":6,"program":0,"isDrum":true},{"pitch":42,"velocity":85,"startTime":17.282610999999996,"endTime":17.445654499999996,"instrument":6,"program":0,"isDrum":true},{"pitch":35,"velocity":120,"startTime":17.445654499999996,"endTime":17.608697999999997,"instrument":6,"program":0,"isDrum":true},{"pitch":40,"velocity":120,"startTime":17.608697999999997,"endTime":17.771741499999997,"instrument":6,"program":0,"isDrum":true},{"pitch":42,"velocity":85,"startTime":17.608697999999997,"endTime":17.771741499999997,"instrument":6,"program":0,"isDrum":true},{"pitch":51,"velocity":105,"startTime":17.608697999999997,"endTime":18.260871999999996,"instrument":6,"program":0,"isDrum":true},{"pitch":35,"velocity":120,"startTime":17.934784999999998,"endTime":18.0978285,"instrument":6,"program":0,"isDrum":true},{"pitch":42,"velocity":85,"startTime":17.934784999999998,"endTime":18.0978285,"instrument":6,"program":0,"isDrum":true},{"pitch":42,"velocity":85,"startTime":18.260871999999996,"endTime":18.423915499999996,"instrument":6,"program":0,"isDrum":true},{"pitch":35,"velocity":120,"startTime":18.260871999999996,"endTime":18.423915499999996,"instrument":6,"program":0,"isDrum":true},{"pitch":51,"velocity":105,"startTime":18.260871999999996,"endTime":18.913045999999998,"instrument":6,"program":0,"isDrum":true},{"pitch":42,"velocity":85,"startTime":18.586958999999997,"endTime":18.750002499999997,"instrument":6,"program":0,"isDrum":true},{"pitch":42,"velocity":85,"startTime":18.913045999999998,"endTime":19.0760895,"instrument":6,"program":0,"isDrum":true},{"pitch":40,"velocity":120,"startTime":18.913045999999998,"endTime":19.0760895,"instrument":6,"program":0,"isDrum":true},{"pitch":51,"velocity":105,"startTime":18.913045999999998,"endTime":19.56522,"instrument":6,"program":0,"isDrum":true},{"pitch":42,"velocity":85,"startTime":19.239133,"endTime":19.4021765,"instrument":6,"program":0,"isDrum":true},{"pitch":35,"velocity":120,"startTime":19.4021765,"endTime":19.56522,"instrument":6,"program":0,"isDrum":true},{"pitch":42,"velocity":85,"startTime":19.56522,"endTime":19.7282635,"instrument":6,"program":0,"isDrum":true},{"pitch":51,"velocity":105,"startTime":19.56522,"endTime":20.217393999999995,"instrument":6,"program":0,"isDrum":true},{"pitch":42,"velocity":85,"startTime":19.891306999999994,"endTime":20.054350499999995,"instrument":6,"program":0,"isDrum":true},{"pitch":40,"velocity":120,"startTime":20.054350499999995,"endTime":20.217393999999995,"instrument":6,"program":0,"isDrum":true},{"pitch":35,"velocity":120,"startTime":20.054350499999995,"endTime":20.217393999999995,"instrument":6,"program":0,"isDrum":true},{"pitch":40,"velocity":120,"startTime":20.217393999999995,"endTime":20.380437499999996,"instrument":6,"program":0,"isDrum":true},{"pitch":42,"velocity":85,"startTime":20.217393999999995,"endTime":20.380437499999996,"instrument":6,"program":0,"isDrum":true},{"pitch":51,"velocity":105,"startTime":20.217393999999995,"endTime":20.869567999999997,"instrument":6,"program":0,"isDrum":true},{"pitch":35,"velocity":120,"startTime":20.543480999999996,"endTime":20.706524499999997,"instrument":6,"program":0,"isDrum":true},{"pitch":42,"velocity":85,"startTime":20.543480999999996,"endTime":20.706524499999997,"instrument":6,"program":0,"isDrum":true},{"pitch":40,"velocity":120,"startTime":20.706524499999997,"endTime":20.869567999999997,"instrument":6,"program":0,"isDrum":true},{"pitch":49,"velocity":110,"startTime":20.869567999999997,"endTime":21.521742,"instrument":6,"program":0,"isDrum":true},{"pitch":42,"velocity":85,"startTime":20.869567999999997,"endTime":21.032611499999998,"instrument":6,"program":0,"isDrum":true},{"pitch":35,"velocity":120,"startTime":20.869567999999997,"endTime":21.032611499999998,"instrument":6,"program":0,"isDrum":true}],"totalTime":33.913047999999996,"sourceInfo":{"encodingType":"MIDI","parser":"TONEJS_MIDI_CONVERT"}},"tempo":92,"selectedInstruments":[1,2,4,5,6]},"output":{"trimmedSequence":{"filename":"cumparsita_tango__sunflower.mid","tempos":[{"qpm":91.99998773333498}],"notes":[{"pitch":35,"velocity":102,"endTime":0.16304349999999998,"isDrum":true},{"pitch":42,"velocity":102,"endTime":0.16304349999999998,"isDrum":true},{"pitch":42,"velocity":102,"startTime":0.32608699999999996,"endTime":0.48913049999999997,"isDrum":true},{"pitch":40,"velocity":102,"startTime":0.6521739999999999,"endTime":0.8152174999999999,"isDrum":true},{"pitch":42,"velocity":102,"startTime":0.6521739999999999,"endTime":0.8152174999999999,"isDrum":true},{"pitch":42,"velocity":102,"startTime":0.9782609999999999,"endTime":1.1413045,"isDrum":true},{"pitch":35,"velocity":102,"startTime":1.3043479999999998,"endTime":1.4673915,"isDrum":true},{"pitch":42,"velocity":102,"startTime":1.3043479999999998,"endTime":1.4673915,"isDrum":true},{"pitch":42,"velocity":102,"startTime":1.6304349999999999,"endTime":1.7934785,"isDrum":true},{"pitch":40,"velocity":102,"startTime":1.9565219999999999,"endTime":2.1195654999999998,"isDrum":true},{"pitch":42,"velocity":102,"startTime":1.9565219999999999,"endTime":2.1195654999999998,"isDrum":true},{"pitch":42,"velocity":102,"startTime":2.282609,"endTime":2.4456525,"isDrum":true},{"pitch":35,"velocity":102,"startTime":2.6086959999999997,"endTime":2.7717395,"isDrum":true},{"pitch":42,"velocity":102,"startTime":2.6086959999999997,"endTime":2.7717395,"isDrum":true},{"pitch":42,"velocity":102,"startTime":2.934783,"endTime":3.0978264999999996,"isDrum":true},{"pitch":40,"velocity":102,"startTime":3.2608699999999997,"endTime":3.4239135,"isDrum":true},{"pitch":42,"velocity":102,"startTime":3.2608699999999997,"endTime":3.4239135,"isDrum":true},{"pitch":42,"velocity":102,"startTime":3.586957,"endTime":3.7500004999999996,"isDrum":true},{"pitch":35,"velocity":102,"startTime":3.9130439999999997,"endTime":4.0760875,"isDrum":true},{"pitch":42,"velocity":102,"startTime":3.9130439999999997,"endTime":4.0760875,"isDrum":true},{"pitch":42,"velocity":102,"startTime":4.2391309999999995,"endTime":4.4021745,"isDrum":true},{"pitch":40,"velocity":102,"startTime":4.565218,"endTime":4.7282614999999995,"isDrum":true},{"pitch":42,"velocity":102,"startTime":4.565218,"endTime":4.7282614999999995,"isDrum":true},{"pitch":42,"velocity":102,"startTime":4.891305,"endTime":5.0543485,"isDrum":true},{"pitch":35,"velocity":102,"startTime":5.217391999999999,"endTime":5.3804355,"isDrum":true},{"pitch":42,"velocity":102,"startTime":5.217391999999999,"endTime":5.3804355,"isDrum":true},{"pitch":42,"velocity":102,"startTime":5.543479,"endTime":5.706522499999999,"isDrum":true},{"pitch":40,"velocity":102,"startTime":5.869566,"endTime":6.0326094999999995,"isDrum":true},{"pitch":42,"velocity":102,"startTime":5.869566,"endTime":6.0326094999999995,"isDrum":true},{"pitch":42,"velocity":102,"startTime":6.195652999999999,"endTime":6.3586965,"isDrum":true},{"pitch":35,"velocity":102,"startTime":6.521739999999999,"endTime":6.684783499999999,"isDrum":true},{"pitch":42,"velocity":102,"startTime":6.521739999999999,"endTime":6.684783499999999,"isDrum":true},{"pitch":42,"velocity":102,"startTime":6.847827,"endTime":7.010870499999999,"isDrum":true},{"pitch":40,"velocity":102,"startTime":7.173914,"endTime":7.3369575,"isDrum":true},{"pitch":42,"velocity":102,"startTime":7.173914,"endTime":7.3369575,"isDrum":true},{"pitch":42,"velocity":102,"startTime":7.500000999999999,"endTime":7.6630445,"isDrum":true},{"pitch":35,"velocity":102,"startTime":7.8260879999999995,"endTime":7.989131499999999,"isDrum":true},{"pitch":42,"velocity":102,"startTime":7.8260879999999995,"endTime":7.989131499999999,"isDrum":true},{"pitch":42,"velocity":102,"startTime":8.152175,"endTime":8.315218499999999,"isDrum":true},{"pitch":40,"velocity":102,"startTime":8.478261999999999,"endTime":8.6413055,"isDrum":true},{"pitch":42,"velocity":102,"startTime":8.478261999999999,"endTime":8.6413055,"isDrum":true},{"pitch":42,"velocity":102,"startTime":8.804349,"endTime":8.967392499999999,"isDrum":true},{"pitch":51,"velocity":102,"startTime":8.804349,"endTime":8.967392499999999,"isDrum":true},{"pitch":35,"velocity":102,"startTime":9.130436,"endTime":9.2934795,"isDrum":true},{"pitch":42,"velocity":102,"startTime":9.130436,"endTime":9.2934795,"isDrum":true},{"pitch":42,"velocity":102,"startTime":9.456522999999999,"endTime":9.6195665,"isDrum":true},{"pitch":40,"velocity":102,"startTime":9.78261,"endTime":9.945653499999999,"isDrum":true},{"pitch":42,"velocity":102,"startTime":9.78261,"endTime":9.945653499999999,"isDrum":true},{"pitch":42,"velocity":102,"startTime":10.108697,"endTime":10.2717405,"isDrum":true},{"pitch":35,"velocity":102,"startTime":10.434783999999999,"endTime":10.5978275,"isDrum":true},{"pitch":42,"velocity":102,"startTime":10.434783999999999,"endTime":10.5978275,"isDrum":true},{"pitch":42,"velocity":102,"startTime":10.760871,"endTime":10.923914499999999,"isDrum":true},{"pitch":40,"velocity":102,"startTime":11.086958,"endTime":11.2500015,"isDrum":true},{"pitch":42,"velocity":102,"startTime":11.086958,"endTime":11.2500015,"isDrum":true},{"pitch":42,"velocity":102,"startTime":11.413044999999999,"endTime":11.5760885,"isDrum":true},{"pitch":35,"velocity":102,"startTime":11.739132,"endTime":11.902175499999998,"isDrum":true},{"pitch":42,"velocity":102,"startTime":11.739132,"endTime":11.902175499999998,"isDrum":true},{"pitch":42,"velocity":102,"startTime":12.065218999999999,"endTime":12.2282625,"isDrum":true},{"pitch":40,"velocity":102,"startTime":12.391305999999998,"endTime":12.554349499999999,"isDrum":true},{"pitch":42,"velocity":102,"startTime":12.391305999999998,"endTime":12.554349499999999,"isDrum":true},{"pitch":42,"velocity":102,"startTime":12.717393,"endTime":12.880436499999998,"isDrum":true},{"pitch":35,"velocity":102,"startTime":13.043479999999999,"endTime":13.2065235,"isDrum":true},{"pitch":42,"velocity":102,"startTime":13.043479999999999,"endTime":13.2065235,"isDrum":true},{"pitch":42,"velocity":102,"startTime":13.369566999999998,"endTime":13.532610499999999,"isDrum":true},{"pitch":40,"velocity":102,"startTime":13.695654,"endTime":13.858697499999998,"isDrum":true},{"pitch":42,"velocity":102,"startTime":13.695654,"endTime":13.858697499999998,"isDrum":true},{"pitch":42,"velocity":102,"startTime":14.021740999999999,"endTime":14.1847845,"isDrum":true},{"pitch":35,"velocity":102,"startTime":14.347828,"endTime":14.510871499999999,"isDrum":true},{"pitch":42,"velocity":102,"startTime":14.347828,"endTime":14.510871499999999,"isDrum":true},{"pitch":42,"velocity":102,"startTime":14.673915,"endTime":14.8369585,"isDrum":true},{"pitch":40,"velocity":102,"startTime":15.000001999999999,"endTime":15.163045499999999,"isDrum":true},{"pitch":42,"velocity":102,"startTime":15.000001999999999,"endTime":15.163045499999999,"isDrum":true},{"pitch":42,"velocity":102,"startTime":15.326089,"endTime":15.489132499999998,"isDrum":true},{"pitch":35,"velocity":102,"startTime":15.652175999999999,"endTime":15.8152195,"isDrum":true},{"pitch":42,"velocity":102,"startTime":15.652175999999999,"endTime":15.8152195,"isDrum":true},{"pitch":42,"velocity":102,"startTime":15.978262999999998,"endTime":16.1413065,"isDrum":true},{"pitch":40,"velocity":102,"startTime":16.30435,"endTime":16.4673935,"isDrum":true},{"pitch":42,"velocity":102,"startTime":16.30435,"endTime":16.4673935,"isDrum":true},{"pitch":42,"velocity":102,"startTime":16.630436999999997,"endTime":16.793480499999998,"isDrum":true},{"pitch":35,"velocity":102,"startTime":16.956523999999998,"endTime":17.1195675,"isDrum":true},{"pitch":42,"velocity":102,"startTime":16.956523999999998,"endTime":17.1195675,"isDrum":true},{"pitch":42,"velocity":102,"startTime":17.282611,"endTime":17.4456545,"isDrum":true},{"pitch":40,"velocity":102,"startTime":17.608698,"endTime":17.771741499999997,"isDrum":true},{"pitch":42,"velocity":102,"startTime":17.608698,"endTime":17.771741499999997,"isDrum":true},{"pitch":42,"velocity":102,"startTime":17.934784999999998,"endTime":18.0978285,"isDrum":true},{"pitch":35,"velocity":102,"startTime":18.260872,"endTime":18.4239155,"isDrum":true},{"pitch":42,"velocity":102,"startTime":18.260872,"endTime":18.4239155,"isDrum":true},{"pitch":42,"velocity":102,"startTime":18.586959,"endTime":18.750002499999997,"isDrum":true},{"pitch":40,"velocity":102,"startTime":18.913045999999998,"endTime":19.0760895,"isDrum":true},{"pitch":42,"velocity":102,"startTime":18.913045999999998,"endTime":19.0760895,"isDrum":true},{"pitch":42,"velocity":102,"startTime":19.239133,"endTime":19.4021765,"isDrum":true},{"pitch":51,"velocity":102,"startTime":19.239133,"endTime":19.4021765,"isDrum":true},{"pitch":35,"velocity":102,"startTime":19.4021765,"endTime":19.56522,"isDrum":true},{"pitch":35,"velocity":102,"startTime":19.56522,"endTime":19.728263499999997,"isDrum":true},{"pitch":42,"velocity":102,"startTime":19.56522,"endTime":19.728263499999997,"isDrum":true},{"pitch":42,"velocity":102,"startTime":19.891306999999998,"endTime":20.054350499999998,"isDrum":true},{"pitch":40,"velocity":102,"startTime":20.217394,"endTime":20.3804375,"isDrum":true},{"pitch":42,"velocity":102,"startTime":20.217394,"endTime":20.3804375,"isDrum":true},{"pitch":42,"velocity":102,"startTime":20.543481,"endTime":20.706524499999997,"isDrum":true},{"pitch":58,"velocity":95,"endTime":0.10869566666666666,"instrument":1,"program":12},{"pitch":64,"velocity":95,"startTime":0.16304349999999998,"endTime":0.27173916666666664,"instrument":1,"program":12},{"pitch":69,"velocity":95,"startTime":0.32608699999999996,"endTime":0.3804348333333333,"instrument":1,"program":12},{"pitch":64,"velocity":95,"startTime":0.48913049999999997,"endTime":0.5434783333333333,"instrument":1,"program":12},{"pitch":69,"velocity":95,"startTime":0.6521739999999999,"endTime":0.7608696666666666,"instrument":1,"program":12},{"pitch":69,"velocity":95,"startTime":0.8152174999999999,"endTime":0.9239131666666666,"instrument":1,"program":12},{"pitch":64,"velocity":95,"startTime":0.9782609999999999,"endTime":1.0869566666666663,"instrument":1,"program":12},{"pitch":69,"velocity":95,"startTime":1.1413045,"endTime":1.2500001666666665,"instrument":1,"program":12},{"pitch":64,"velocity":95,"startTime":1.3043479999999998,"endTime":1.4130436666666666,"instrument":1,"program":12},{"pitch":69,"velocity":95,"startTime":1.4673915,"endTime":1.5760871666666665,"instrument":1,"program":12},{"pitch":64,"velocity":95,"startTime":1.6304349999999999,"endTime":1.7391306666666666,"instrument":1,"program":12},{"pitch":70,"velocity":95,"startTime":1.7934785,"endTime":1.8478263333333331,"instrument":1,"program":12},{"pitch":76,"velocity":95,"startTime":1.9565219999999999,"endTime":2.0652176666666664,"instrument":1,"program":12},{"pitch":69,"velocity":95,"startTime":2.1195654999999998,"endTime":2.2282611666666665,"instrument":1,"program":12},{"pitch":69,"velocity":95,"startTime":2.282609,"endTime":2.3913046666666666,"instrument":1,"program":12},{"pitch":72,"velocity":95,"startTime":2.4456525,"endTime":2.5543481666666663,"instrument":1,"program":12},{"pitch":62,"velocity":95,"startTime":2.6086959999999997,"endTime":2.717391666666667,"instrument":1,"program":12},{"pitch":69,"velocity":95,"startTime":2.7717395,"endTime":2.8804351666666665,"instrument":1,"program":12},{"pitch":72,"velocity":95,"startTime":2.934783,"endTime":3.043478666666666,"instrument":1,"program":12},{"pitch":69,"velocity":95,"startTime":3.0978264999999996,"endTime":3.2065221666666663,"instrument":1,"program":12},{"pitch":72,"velocity":95,"startTime":3.2608699999999997,"endTime":3.3695656666666665,"instrument":1,"program":12},{"pitch":69,"velocity":95,"startTime":3.4239135,"endTime":3.5326091666666666,"instrument":1,"program":12},{"pitch":69,"velocity":95,"startTime":3.586957,"endTime":3.6956526666666663,"instrument":1,"program":12},{"pitch":72,"velocity":95,"startTime":3.7500004999999996,"endTime":3.8586961666666664,"instrument":1,"program":12},{"pitch":74,"velocity":95,"startTime":3.9130439999999997,"endTime":4.021739666666666,"instrument":1,"program":12},{"pitch":69,"velocity":95,"startTime":4.0760875,"endTime":4.184783166666667,"instrument":1,"program":12},{"pitch":69,"velocity":95,"startTime":4.2391309999999995,"endTime":4.347826666666666,"instrument":1,"program":12},{"pitch":74,"velocity":95,"startTime":4.4021745,"endTime":4.510870166666666,"instrument":1,"program":12},{"pitch":69,"velocity":95,"startTime":4.565218,"endTime":4.6739136666666665,"instrument":1,"program":12},{"pitch":74,"velocity":95,"startTime":4.7282614999999995,"endTime":4.836957166666666,"instrument":1,"program":12},{"pitch":69,"velocity":95,"startTime":4.891305,"endTime":5.000000666666666,"instrument":1,"program":12},{"pitch":72,"velocity":95,"startTime":5.217391999999999,"endTime":5.326087666666665,"instrument":1,"program":12},{"pitch":69,"velocity":95,"startTime":5.3804355,"endTime":5.489131166666666,"instrument":1,"program":12},{"pitch":74,"velocity":95,"startTime":5.543479,"endTime":5.652174666666666,"instrument":1,"program":12},{"pitch":69,"velocity":95,"startTime":5.706522499999999,"endTime":5.815218166666666,"instrument":1,"program":12},{"pitch":72,"velocity":95,"startTime":5.869566,"endTime":5.978261666666667,"instrument":1,"program":12},{"pitch":69,"velocity":95,"startTime":6.0326094999999995,"endTime":6.141305166666666,"instrument":1,"program":12},{"pitch":74,"velocity":95,"startTime":6.195652999999999,"endTime":6.304348666666666,"instrument":1,"program":12},{"pitch":74,"velocity":95,"startTime":6.3586965,"endTime":6.4673921666666665,"instrument":1,"program":12},{"pitch":69,"velocity":95,"startTime":6.521739999999999,"endTime":6.630435666666666,"instrument":1,"program":12},{"pitch":74,"velocity":95,"startTime":6.684783499999999,"endTime":6.793479166666666,"instrument":1,"program":12},{"pitch":74,"velocity":95,"startTime":6.847827,"endTime":6.956522666666666,"instrument":1,"program":12},{"pitch":69,"velocity":95,"startTime":7.010870499999999,"endTime":7.119566166666666,"instrument":1,"program":12},{"pitch":74,"velocity":95,"startTime":7.173914,"endTime":7.282609666666666,"instrument":1,"program":12},{"pitch":69,"velocity":95,"startTime":7.3369575,"endTime":7.445653166666666,"instrument":1,"program":12},{"pitch":67,"velocity":95,"startTime":7.500000999999999,"endTime":7.608696666666666,"instrument":1,"program":12},{"pitch":62,"velocity":95,"startTime":7.6630445,"endTime":7.771740166666666,"instrument":1,"program":12},{"pitch":74,"velocity":95,"startTime":7.8260879999999995,"endTime":7.934783666666666,"instrument":1,"program":12},{"pitch":67,"velocity":95,"startTime":7.989131499999999,"endTime":8.097827166666667,"instrument":1,"program":12},{"pitch":62,"velocity":95,"startTime":8.152175,"endTime":8.260870666666666,"instrument":1,"program":12},{"pitch":62,"velocity":95,"startTime":8.315218499999999,"endTime":8.423914166666666,"instrument":1,"program":12},{"pitch":67,"velocity":95,"startTime":8.478261999999999,"endTime":8.586957666666667,"instrument":1,"program":12},{"pitch":74,"velocity":95,"startTime":8.6413055,"endTime":8.750001166666665,"instrument":1,"program":12},{"pitch":67,"velocity":95,"startTime":8.804349,"endTime":8.913044666666666,"instrument":1,"program":12},{"pitch":74,"velocity":95,"startTime":8.967392499999999,"endTime":9.076088166666667,"instrument":1,"program":12},{"pitch":79,"velocity":95,"startTime":9.130436,"endTime":9.239131666666665,"instrument":1,"program":12},{"pitch":74,"velocity":95,"startTime":9.2934795,"endTime":9.402175166666666,"instrument":1,"program":12},{"pitch":67,"velocity":95,"startTime":9.456522999999999,"endTime":9.565218666666667,"instrument":1,"program":12},{"pitch":74,"velocity":95,"startTime":9.6195665,"endTime":9.728262166666665,"instrument":1,"program":12},{"pitch":74,"velocity":95,"startTime":9.78261,"endTime":9.891305666666666,"instrument":1,"program":12},{"pitch":74,"velocity":95,"startTime":9.945653499999999,"endTime":10.054349166666666,"instrument":1,"program":12},{"pitch":67,"velocity":95,"startTime":10.108697,"endTime":10.217392666666665,"instrument":1,"program":12},{"pitch":71,"velocity":95,"startTime":10.2717405,"endTime":10.380436166666666,"instrument":1,"program":12},{"pitch":60,"velocity":95,"startTime":10.434783999999999,"endTime":10.543479666666666,"instrument":1,"program":12},{"pitch":69,"velocity":95,"startTime":10.5978275,"endTime":10.706523166666667,"instrument":1,"program":12},{"pitch":69,"velocity":95,"startTime":10.760871,"endTime":10.869566666666667,"instrument":1,"program":12},{"pitch":74,"velocity":95,"startTime":10.923914499999999,"endTime":11.032610166666666,"instrument":1,"program":12},{"pitch":81,"velocity":95,"startTime":11.086958,"endTime":11.195653666666665,"instrument":1,"program":12},{"pitch":69,"velocity":95,"startTime":11.2500015,"endTime":11.304349333333333,"instrument":1,"program":12},{"pitch":69,"velocity":95,"startTime":11.413044999999999,"endTime":11.521740666666666,"instrument":1,"program":12},{"pitch":69,"velocity":95,"startTime":11.5760885,"endTime":11.684784166666665,"instrument":1,"program":12},{"pitch":64,"velocity":95,"startTime":11.739132,"endTime":11.847827666666666,"instrument":1,"program":12},{"pitch":69,"velocity":95,"startTime":11.902175499999998,"endTime":12.010871166666666,"instrument":1,"program":12},{"pitch":74,"velocity":95,"startTime":12.065218999999999,"endTime":12.173914666666665,"instrument":1,"program":12},{"pitch":69,"velocity":95,"startTime":12.2282625,"endTime":12.336958166666665,"instrument":1,"program":12},{"pitch":74,"velocity":95,"startTime":12.391305999999998,"endTime":12.500001666666666,"instrument":1,"program":12},{"pitch":69,"velocity":95,"startTime":12.554349499999999,"endTime":12.608697333333332,"instrument":1,"program":12},{"pitch":69,"velocity":95,"startTime":12.717393,"endTime":12.826088666666665,"instrument":1,"program":12},{"pitch":69,"velocity":95,"startTime":12.880436499999998,"endTime":12.989132166666666,"instrument":1,"program":12},{"pitch":62,"velocity":95,"startTime":13.043479999999999,"endTime":13.152175666666666,"instrument":1,"program":12},{"pitch":69,"velocity":95,"startTime":13.2065235,"endTime":13.315219166666665,"instrument":1,"program":12},{"pitch":74,"velocity":95,"startTime":13.369566999999998,"endTime":13.478262666666666,"instrument":1,"program":12},{"pitch":69,"velocity":95,"startTime":13.532610499999999,"endTime":13.641306166666666,"instrument":1,"program":12},{"pitch":74,"velocity":95,"startTime":13.695654,"endTime":13.804349666666665,"instrument":1,"program":12},{"pitch":69,"velocity":95,"startTime":13.858697499999998,"endTime":13.967393166666666,"instrument":1,"program":12},{"pitch":69,"velocity":95,"startTime":14.021740999999999,"endTime":14.130436666666666,"instrument":1,"program":12},{"pitch":74,"velocity":95,"startTime":14.1847845,"endTime":14.293480166666665,"instrument":1,"program":12},{"pitch":69,"velocity":95,"startTime":14.347828,"endTime":14.456523666666666,"instrument":1,"program":12},{"pitch":74,"velocity":95,"startTime":14.510871499999999,"endTime":14.619567166666666,"instrument":1,"program":12},{"pitch":72,"velocity":95,"startTime":14.673915,"endTime":14.782610666666665,"instrument":1,"program":12},{"pitch":69,"velocity":95,"startTime":14.8369585,"endTime":14.945654166666666,"instrument":1,"program":12},{"pitch":74,"velocity":95,"startTime":15.000001999999999,"endTime":15.108697666666666,"instrument":1,"program":12},{"pitch":69,"velocity":95,"startTime":15.163045499999999,"endTime":15.271741166666665,"instrument":1,"program":12},{"pitch":69,"velocity":95,"startTime":15.326089,"endTime":15.434784666666665,"instrument":1,"program":12},{"pitch":69,"velocity":95,"startTime":15.489132499999998,"endTime":15.597828166666666,"instrument":1,"program":12},{"pitch":62,"velocity":95,"startTime":15.652175999999999,"endTime":15.760871666666665,"instrument":1,"program":12},{"pitch":67,"velocity":95,"startTime":15.8152195,"endTime":15.923915166666665,"instrument":1,"program":12},{"pitch":74,"velocity":95,"startTime":15.978262999999998,"endTime":16.086958666666664,"instrument":1,"program":12},{"pitch":67,"velocity":95,"startTime":16.1413065,"endTime":16.250002166666665,"instrument":1,"program":12},{"pitch":74,"velocity":95,"startTime":16.30435,"endTime":16.413045666666665,"instrument":1,"program":12},{"pitch":67,"velocity":95,"startTime":16.4673935,"endTime":16.576089166666666,"instrument":1,"program":12},{"pitch":74,"velocity":95,"startTime":16.630436999999997,"endTime":16.739132666666666,"instrument":1,"program":12},{"pitch":67,"velocity":95,"startTime":16.793480499999998,"endTime":16.902176166666667,"instrument":1,"program":12},{"pitch":74,"velocity":95,"startTime":16.956523999999998,"endTime":17.065219666666664,"instrument":1,"program":12},{"pitch":67,"velocity":95,"startTime":17.1195675,"endTime":17.228263166666665,"instrument":1,"program":12},{"pitch":74,"velocity":95,"startTime":17.282611,"endTime":17.391306666666665,"instrument":1,"program":12},{"pitch":67,"velocity":95,"startTime":17.4456545,"endTime":17.554350166666666,"instrument":1,"program":12},{"pitch":74,"velocity":95,"startTime":17.608698,"endTime":17.717393666666666,"instrument":1,"program":12},{"pitch":67,"velocity":95,"startTime":17.771741499999997,"endTime":17.880437166666667,"instrument":1,"program":12},{"pitch":74,"velocity":95,"startTime":17.934784999999998,"endTime":18.043480666666664,"instrument":1,"program":12},{"pitch":67,"velocity":95,"startTime":18.0978285,"endTime":18.206524166666664,"instrument":1,"program":12},{"pitch":74,"velocity":95,"startTime":18.260872,"endTime":18.4239155,"instrument":1,"program":12},{"pitch":67,"velocity":95,"startTime":18.4239155,"endTime":18.532611166666666,"instrument":1,"program":12},{"pitch":74,"velocity":95,"startTime":18.586959,"endTime":18.695654666666666,"instrument":1,"program":12},{"pitch":74,"velocity":95,"startTime":18.750002499999997,"endTime":18.858698166666667,"instrument":1,"program":12},{"pitch":74,"velocity":95,"startTime":18.913045999999998,"endTime":18.967393833333333,"instrument":1,"program":12},{"pitch":67,"velocity":95,"startTime":19.0760895,"endTime":19.184785166666664,"instrument":1,"program":12},{"pitch":74,"velocity":95,"startTime":19.239133,"endTime":19.347828666666665,"instrument":1,"program":12},{"pitch":74,"velocity":95,"startTime":19.4021765,"endTime":19.510872166666665,"instrument":1,"program":12},{"pitch":74,"velocity":95,"startTime":19.56522,"endTime":19.673915666666666,"instrument":1,"program":12},{"pitch":67,"velocity":95,"startTime":19.728263499999997,"endTime":19.836959166666666,"instrument":1,"program":12},{"pitch":74,"velocity":95,"startTime":19.891306999999998,"endTime":20.000002666666663,"instrument":1,"program":12},{"pitch":74,"velocity":95,"startTime":20.054350499999998,"endTime":20.163046166666664,"instrument":1,"program":12},{"pitch":74,"velocity":95,"startTime":20.217394,"endTime":20.326089666666665,"instrument":1,"program":12},{"pitch":67,"velocity":95,"startTime":20.3804375,"endTime":20.489133166666665,"instrument":1,"program":12},{"pitch":74,"velocity":95,"startTime":20.543481,"endTime":20.652176666666666,"instrument":1,"program":12},{"pitch":74,"velocity":95,"startTime":20.706524499999997,"endTime":20.815220166666666,"instrument":1,"program":12},{"pitch":38,"velocity":110,"endTime":0.32608699999999996,"instrument":2,"program":32},{"pitch":42,"velocity":110,"startTime":0.48913049999999997,"endTime":0.6521739999999999,"instrument":2,"program":32},{"pitch":45,"velocity":110,"startTime":0.8152174999999999,"endTime":0.9782609999999999,"instrument":2,"program":32},{"pitch":38,"velocity":110,"startTime":0.9782609999999999,"endTime":1.1413045,"instrument":2,"program":32},{"pitch":38,"velocity":110,"startTime":1.3043479999999998,"endTime":1.4673915,"instrument":2,"program":32},{"pitch":50,"velocity":110,"startTime":1.6304349999999999,"endTime":1.7934785,"instrument":2,"program":32},{"pitch":48,"velocity":110,"startTime":1.9565219999999999,"endTime":2.1195654999999998,"instrument":2,"program":32},{"pitch":42,"velocity":110,"startTime":2.282609,"endTime":2.4456525,"instrument":2,"program":32},{"pitch":38,"velocity":110,"startTime":2.6086959999999997,"endTime":2.934783,"instrument":2,"program":32},{"pitch":50,"velocity":110,"startTime":3.0978264999999996,"endTime":3.2608699999999997,"instrument":2,"program":32},{"pitch":50,"velocity":110,"startTime":3.4239135,"endTime":3.586957,"instrument":2,"program":32},{"pitch":38,"velocity":110,"startTime":3.586957,"endTime":3.7500004999999996,"instrument":2,"program":32},{"pitch":45,"velocity":110,"startTime":3.9130439999999997,"endTime":4.2391309999999995,"instrument":2,"program":32},{"pitch":45,"velocity":110,"startTime":4.4021745,"endTime":4.565218,"instrument":2,"program":32},{"pitch":50,"velocity":110,"startTime":4.7282614999999995,"endTime":4.891305,"instrument":2,"program":32},{"pitch":38,"velocity":110,"startTime":4.891305,"endTime":5.0543485,"instrument":2,"program":32},{"pitch":43,"velocity":110,"startTime":5.217391999999999,"endTime":5.434783333333334,"instrument":2,"program":32},{"pitch":43,"velocity":110,"startTime":5.706522499999999,"endTime":5.869566,"instrument":2,"program":32},{"pitch":38,"velocity":110,"startTime":6.0326094999999995,"endTime":6.195652999999999,"instrument":2,"program":32},{"pitch":43,"velocity":110,"startTime":6.195652999999999,"endTime":6.3586965,"instrument":2,"program":32},{"pitch":43,"velocity":110,"startTime":6.521739999999999,"endTime":6.739131333333333,"instrument":2,"program":32},{"pitch":43,"velocity":110,"startTime":6.847827,"endTime":7.010870499999999,"instrument":2,"program":32},{"pitch":43,"velocity":110,"startTime":7.173914,"endTime":7.3369575,"instrument":2,"program":32},{"pitch":46,"velocity":110,"startTime":7.500000999999999,"endTime":7.6630445,"instrument":2,"program":32},{"pitch":55,"velocity":110,"startTime":7.8260879999999995,"endTime":8.152175,"instrument":2,"program":32},{"pitch":48,"velocity":110,"startTime":8.315218499999999,"endTime":8.478261999999999,"instrument":2,"program":32},{"pitch":48,"velocity":110,"startTime":8.6413055,"endTime":8.804349,"instrument":2,"program":32},{"pitch":38,"velocity":110,"startTime":8.804349,"endTime":8.967392499999999,"instrument":2,"program":32},{"pitch":34,"velocity":110,"startTime":9.130436,"endTime":9.2934795,"instrument":2,"program":32},{"pitch":38,"velocity":110,"startTime":9.6195665,"endTime":9.78261,"instrument":2,"program":32},{"pitch":38,"velocity":110,"startTime":9.945653499999999,"endTime":10.108697,"instrument":2,"program":32},{"pitch":34,"velocity":110,"startTime":10.108697,"endTime":10.2717405,"instrument":2,"program":32},{"pitch":38,"velocity":110,"startTime":10.434783999999999,"endTime":10.760871,"instrument":2,"program":32},{"pitch":38,"velocity":110,"startTime":10.923914499999999,"endTime":11.086958,"instrument":2,"program":32},{"pitch":38,"velocity":110,"startTime":11.2500015,"endTime":11.413044999999999,"instrument":2,"program":32},{"pitch":45,"velocity":110,"startTime":11.413044999999999,"endTime":11.5760885,"instrument":2,"program":32},{"pitch":45,"velocity":110,"startTime":11.739132,"endTime":11.956523333333333,"instrument":2,"program":32},{"pitch":42,"velocity":110,"startTime":12.2282625,"endTime":12.391305999999998,"instrument":2,"program":32},{"pitch":45,"velocity":110,"startTime":12.554349499999999,"endTime":12.717393,"instrument":2,"program":32},{"pitch":38,"velocity":110,"startTime":12.717393,"endTime":12.880436499999998,"instrument":2,"program":32},{"pitch":38,"velocity":110,"startTime":13.043479999999999,"endTime":13.260871333333332,"instrument":2,"program":32},{"pitch":33,"velocity":110,"startTime":13.369566999999998,"endTime":13.532610499999999,"instrument":2,"program":32},{"pitch":38,"velocity":110,"startTime":13.695654,"endTime":14.021740999999999,"instrument":2,"program":32},{"pitch":33,"velocity":110,"startTime":14.1847845,"endTime":14.347828,"instrument":2,"program":32},{"pitch":38,"velocity":110,"startTime":14.510871499999999,"endTime":14.673915,"instrument":2,"program":32},{"pitch":33,"velocity":110,"startTime":14.673915,"endTime":14.8369585,"instrument":2,"program":32},{"pitch":42,"velocity":110,"startTime":15.000001999999999,"endTime":15.217393333333332,"instrument":2,"program":32},{"pitch":38,"velocity":110,"startTime":15.326089,"endTime":15.489132499999998,"instrument":2,"program":32},{"pitch":43,"velocity":110,"startTime":15.652175999999999,"endTime":15.869567333333332,"instrument":2,"program":32},{"pitch":43,"velocity":110,"startTime":16.1413065,"endTime":16.30435,"instrument":2,"program":32},{"pitch":43,"velocity":110,"startTime":16.4673935,"endTime":16.630436999999997,"instrument":2,"program":32},{"pitch":31,"velocity":110,"startTime":16.630436999999997,"endTime":16.793480499999998,"instrument":2,"program":32},{"pitch":43,"velocity":110,"startTime":16.956523999999998,"endTime":17.173915333333333,"instrument":2,"program":32},{"pitch":38,"velocity":110,"startTime":17.282611,"endTime":17.4456545,"instrument":2,"program":32},{"pitch":43,"velocity":110,"startTime":17.608698,"endTime":17.771741499999997,"instrument":2,"program":32},{"pitch":38,"velocity":110,"startTime":17.934784999999998,"endTime":18.0978285,"instrument":2,"program":32},{"pitch":31,"velocity":110,"startTime":18.260872,"endTime":18.586959,"instrument":2,"program":32},{"pitch":31,"velocity":110,"startTime":18.750002499999997,"endTime":18.913045999999998,"instrument":2,"program":32},{"pitch":31,"velocity":110,"startTime":19.0760895,"endTime":19.239133,"instrument":2,"program":32},{"pitch":38,"velocity":110,"startTime":19.239133,"endTime":19.4021765,"instrument":2,"program":32},{"pitch":31,"velocity":110,"startTime":19.56522,"endTime":19.78261133333333,"instrument":2,"program":32},{"pitch":43,"velocity":110,"startTime":20.054350499999998,"endTime":20.217394,"instrument":2,"program":32},{"pitch":31,"velocity":110,"startTime":20.3804375,"endTime":20.543481,"instrument":2,"program":32},{"pitch":38,"velocity":110,"startTime":20.543481,"endTime":20.706524499999997,"instrument":2,"program":32},{"pitch":62,"velocity":105,"endTime":0.9782609999999999,"instrument":3,"program":50},{"pitch":66,"velocity":105,"endTime":2.4456525,"instrument":3,"program":50},{"pitch":72,"velocity":105,"endTime":2.4456525,"instrument":3,"program":50},{"pitch":78,"velocity":105,"endTime":2.500000333333333,"instrument":3,"program":50},{"pitch":60,"velocity":105,"startTime":0.9782609999999999,"endTime":2.4456525,"instrument":3,"program":50},{"pitch":60,"velocity":105,"startTime":2.500000333333333,"endTime":3.9130439999999997,"instrument":3,"program":50},{"pitch":62,"velocity":105,"startTime":2.500000333333333,"endTime":3.2608699999999997,"instrument":3,"program":50},{"pitch":66,"velocity":105,"startTime":2.500000333333333,"endTime":3.9130439999999997,"instrument":3,"program":50},{"pitch":69,"velocity":105,"startTime":2.500000333333333,"endTime":3.9130439999999997,"instrument":3,"program":50},{"pitch":57,"velocity":105,"startTime":3.2608699999999997,"endTime":3.7500004999999996,"instrument":3,"program":50},{"pitch":62,"velocity":105,"startTime":3.586957,"endTime":3.8586961666666664,"instrument":3,"program":50},{"pitch":57,"velocity":105,"startTime":3.7500004999999996,"endTime":5.217391999999999,"instrument":3,"program":50},{"pitch":62,"velocity":105,"startTime":3.9130439999999997,"endTime":5.217391999999999,"instrument":3,"program":50},{"pitch":66,"velocity":105,"startTime":3.9130439999999997,"endTime":5.217391999999999,"instrument":3,"program":50},{"pitch":58,"velocity":105,"startTime":5.217391999999999,"endTime":7.8260879999999995,"instrument":3,"program":50},{"pitch":62,"velocity":105,"startTime":5.217391999999999,"endTime":7.8260879999999995,"instrument":3,"program":50},{"pitch":64,"velocity":105,"startTime":5.217391999999999,"endTime":7.8260879999999995,"instrument":3,"program":50},{"pitch":67,"velocity":105,"startTime":5.217391999999999,"endTime":7.8260879999999995,"instrument":3,"program":50},{"pitch":62,"velocity":105,"startTime":7.8260879999999995,"endTime":8.315218499999999,"instrument":3,"program":50},{"pitch":65,"velocity":105,"startTime":7.8260879999999995,"endTime":8.315218499999999,"instrument":3,"program":50},{"pitch":67,"velocity":105,"startTime":7.8260879999999995,"endTime":8.315218499999999,"instrument":3,"program":50},{"pitch":70,"velocity":105,"startTime":7.8260879999999995,"endTime":8.532609833333332,"instrument":3,"program":50},{"pitch":62,"velocity":105,"startTime":8.315218499999999,"endTime":8.478261999999999,"instrument":3,"program":50},{"pitch":67,"velocity":105,"startTime":8.315218499999999,"endTime":8.532609833333332,"instrument":3,"program":50},{"pitch":62,"velocity":105,"startTime":8.478261999999999,"endTime":8.6413055,"instrument":3,"program":50},{"pitch":65,"velocity":105,"startTime":8.532609833333332,"endTime":8.858696833333333,"instrument":3,"program":50},{"pitch":67,"velocity":105,"startTime":8.532609833333332,"endTime":8.858696833333333,"instrument":3,"program":50},{"pitch":62,"velocity":105,"startTime":8.6413055,"endTime":9.184783833333332,"instrument":3,"program":50},{"pitch":67,"velocity":105,"startTime":8.967392499999999,"endTime":9.184783833333332,"instrument":3,"program":50},{"pitch":70,"velocity":105,"startTime":9.130436,"endTime":9.565218666666667,"instrument":3,"program":50},{"pitch":62,"velocity":105,"startTime":9.456522999999999,"endTime":9.6195665,"instrument":3,"program":50},{"pitch":65,"velocity":105,"startTime":9.456522999999999,"endTime":9.510870833333332,"instrument":3,"program":50},{"pitch":67,"velocity":105,"startTime":9.456522999999999,"endTime":9.510870833333332,"instrument":3,"program":50},{"pitch":55,"velocity":105,"startTime":9.6195665,"endTime":10.108697,"instrument":3,"program":50},{"pitch":62,"velocity":105,"startTime":9.6195665,"endTime":10.108697,"instrument":3,"program":50},{"pitch":55,"velocity":105,"startTime":10.108697,"endTime":10.380436166666666,"instrument":3,"program":50},{"pitch":62,"velocity":105,"startTime":10.108697,"endTime":10.380436166666666,"instrument":3,"program":50},{"pitch":60,"velocity":105,"startTime":10.434783999999999,"endTime":12.989132166666666,"instrument":3,"program":50},{"pitch":66,"velocity":105,"startTime":10.434783999999999,"endTime":11.467392833333333,"instrument":3,"program":50},{"pitch":69,"velocity":105,"startTime":10.434783999999999,"endTime":11.086958,"instrument":3,"program":50},{"pitch":72,"velocity":105,"startTime":10.923914499999999,"endTime":11.086958,"instrument":3,"program":50},{"pitch":60,"velocity":105,"startTime":11.086958,"endTime":12.989132166666666,"instrument":3,"program":50},{"pitch":78,"velocity":105,"startTime":11.086958,"endTime":11.467392833333333,"instrument":3,"program":50},{"pitch":76,"velocity":105,"startTime":11.467392833333333,"endTime":11.5760885,"instrument":3,"program":50},{"pitch":66,"velocity":105,"startTime":11.5760885,"endTime":12.173914666666665,"instrument":3,"program":50},{"pitch":90,"velocity":105,"startTime":11.5760885,"endTime":12.989132166666666,"instrument":3,"program":50},{"pitch":72,"velocity":105,"startTime":12.2282625,"endTime":12.989132166666666,"instrument":3,"program":50},{"pitch":81,"velocity":105,"startTime":12.336958166666665,"endTime":12.717393,"instrument":3,"program":50},{"pitch":81,"velocity":105,"startTime":12.880436499999998,"endTime":12.989132166666666,"instrument":3,"program":50},{"pitch":60,"velocity":105,"startTime":13.043479999999999,"endTime":14.347828,"instrument":3,"program":50},{"pitch":62,"velocity":105,"startTime":13.043479999999999,"endTime":14.1847845,"instrument":3,"program":50},{"pitch":66,"velocity":105,"startTime":13.043479999999999,"endTime":14.1847845,"instrument":3,"program":50},{"pitch":74,"velocity":105,"startTime":13.043479999999999,"endTime":14.347828,"instrument":3,"program":50},{"pitch":62,"velocity":105,"startTime":14.1847845,"endTime":14.293480166666665,"instrument":3,"program":50},{"pitch":60,"velocity":105,"startTime":14.347828,"endTime":14.510871499999999,"instrument":3,"program":50},{"pitch":62,"velocity":105,"startTime":14.347828,"endTime":14.510871499999999,"instrument":3,"program":50},{"pitch":66,"velocity":105,"startTime":14.347828,"endTime":14.510871499999999,"instrument":3,"program":50},{"pitch":69,"velocity":105,"startTime":14.347828,"endTime":14.510871499999999,"instrument":3,"program":50},{"pitch":60,"velocity":105,"startTime":14.510871499999999,"endTime":14.8369585,"instrument":3,"program":50},{"pitch":62,"velocity":105,"startTime":14.510871499999999,"endTime":14.891306333333333,"instrument":3,"program":50},{"pitch":66,"velocity":105,"startTime":14.510871499999999,"endTime":14.945654166666666,"instrument":3,"program":50},{"pitch":54,"velocity":105,"startTime":14.728262833333332,"endTime":14.891306333333333,"instrument":3,"program":50},{"pitch":60,"velocity":105,"startTime":15.000001999999999,"endTime":15.380436833333333,"instrument":3,"program":50},{"pitch":62,"velocity":105,"startTime":15.000001999999999,"endTime":15.271741166666665,"instrument":3,"program":50},{"pitch":66,"velocity":105,"startTime":15.000001999999999,"endTime":15.380436833333333,"instrument":3,"program":50},{"pitch":58,"velocity":105,"startTime":15.652175999999999,"endTime":18.043480666666664,"instrument":3,"program":50},{"pitch":62,"velocity":105,"startTime":15.652175999999999,"endTime":18.043480666666664,"instrument":3,"program":50},{"pitch":65,"velocity":105,"startTime":15.652175999999999,"endTime":18.043480666666664,"instrument":3,"program":50},{"pitch":67,"velocity":105,"startTime":15.652175999999999,"endTime":18.043480666666664,"instrument":3,"program":50},{"pitch":58,"velocity":105,"startTime":18.0978285,"endTime":20.815220166666666,"instrument":3,"program":50},{"pitch":62,"velocity":105,"startTime":18.0978285,"endTime":20.815220166666666,"instrument":3,"program":50},{"pitch":65,"velocity":105,"startTime":18.0978285,"endTime":20.815220166666666,"instrument":3,"program":50},{"pitch":67,"velocity":105,"startTime":18.0978285,"endTime":20.815220166666666,"instrument":3,"program":50},{"pitch":35,"velocity":102,"startTime":20.869567999999997,"endTime":21.032611499999998,"isDrum":true},{"pitch":42,"velocity":102,"startTime":20.869567999999997,"endTime":21.032611499999998,"isDrum":true},{"pitch":51,"velocity":102,"startTime":20.869567999999997,"endTime":21.032611499999998,"isDrum":true},{"pitch":42,"velocity":102,"startTime":21.195655,"endTime":21.3586985,"isDrum":true},{"pitch":40,"velocity":102,"startTime":21.521742,"endTime":21.684785499999997,"isDrum":true},{"pitch":42,"velocity":102,"startTime":21.521742,"endTime":21.684785499999997,"isDrum":true},{"pitch":42,"velocity":102,"startTime":21.847828999999997,"endTime":22.010872499999998,"isDrum":true},{"pitch":35,"velocity":102,"startTime":22.010872499999998,"endTime":22.173916,"isDrum":true},{"pitch":40,"velocity":102,"startTime":22.173916,"endTime":22.3369595,"isDrum":true},{"pitch":42,"velocity":102,"startTime":22.173916,"endTime":22.3369595,"isDrum":true},{"pitch":51,"velocity":102,"startTime":22.3369595,"endTime":22.500003,"isDrum":true},{"pitch":35,"velocity":102,"startTime":22.500003,"endTime":22.663046499999997,"isDrum":true},{"pitch":42,"velocity":102,"startTime":22.500003,"endTime":22.663046499999997,"isDrum":true},{"pitch":40,"velocity":102,"startTime":22.826089999999997,"endTime":22.989133499999998,"isDrum":true},{"pitch":42,"velocity":102,"startTime":22.826089999999997,"endTime":22.989133499999998,"isDrum":true},{"pitch":42,"velocity":102,"startTime":23.152177,"endTime":23.3152205,"isDrum":true},{"pitch":35,"velocity":102,"startTime":23.478264,"endTime":23.6413075,"isDrum":true},{"pitch":42,"velocity":102,"startTime":23.478264,"endTime":23.6413075,"isDrum":true},{"pitch":42,"velocity":102,"startTime":23.804350999999997,"endTime":23.967394499999997,"isDrum":true},{"pitch":40,"velocity":102,"startTime":24.130437999999998,"endTime":24.2934815,"isDrum":true},{"pitch":42,"velocity":102,"startTime":24.130437999999998,"endTime":24.2934815,"isDrum":true},{"pitch":42,"velocity":102,"startTime":24.456525,"endTime":24.6195685,"isDrum":true},{"pitch":35,"velocity":102,"startTime":24.782611999999997,"endTime":24.945655499999997,"isDrum":true},{"pitch":42,"velocity":102,"startTime":24.782611999999997,"endTime":24.945655499999997,"isDrum":true},{"pitch":35,"velocity":102,"startTime":25.108698999999998,"endTime":25.2717425,"isDrum":true},{"pitch":42,"velocity":102,"startTime":25.108698999999998,"endTime":25.2717425,"isDrum":true},{"pitch":40,"velocity":102,"startTime":25.434786,"endTime":25.5978295,"isDrum":true},{"pitch":42,"velocity":102,"startTime":25.434786,"endTime":25.5978295,"isDrum":true},{"pitch":35,"velocity":102,"startTime":25.760872999999997,"endTime":25.923916499999997,"isDrum":true},{"pitch":42,"velocity":102,"startTime":25.760872999999997,"endTime":25.923916499999997,"isDrum":true},{"pitch":35,"velocity":102,"startTime":26.086959999999998,"endTime":26.2500035,"isDrum":true},{"pitch":42,"velocity":102,"startTime":26.086959999999998,"endTime":26.2500035,"isDrum":true},{"pitch":42,"velocity":102,"startTime":26.413047,"endTime":26.5760905,"isDrum":true},{"pitch":40,"velocity":102,"startTime":26.739133999999996,"endTime":26.902177499999997,"isDrum":true},{"pitch":42,"velocity":102,"startTime":26.739133999999996,"endTime":26.902177499999997,"isDrum":true},{"pitch":42,"velocity":102,"startTime":27.065220999999998,"endTime":27.228264499999998,"isDrum":true},{"pitch":35,"velocity":102,"startTime":27.391308,"endTime":27.5543515,"isDrum":true},{"pitch":42,"velocity":102,"startTime":27.391308,"endTime":27.5543515,"isDrum":true},{"pitch":35,"velocity":102,"startTime":27.717394999999996,"endTime":27.880438499999997,"isDrum":true},{"pitch":42,"velocity":102,"startTime":27.717394999999996,"endTime":27.880438499999997,"isDrum":true},{"pitch":40,"velocity":102,"startTime":28.043481999999997,"endTime":28.206525499999998,"isDrum":true},{"pitch":42,"velocity":102,"startTime":28.043481999999997,"endTime":28.206525499999998,"isDrum":true},{"pitch":42,"velocity":102,"startTime":28.369569,"endTime":28.5326125,"isDrum":true},{"pitch":35,"velocity":102,"startTime":28.695656,"endTime":28.858699499999997,"isDrum":true},{"pitch":42,"velocity":102,"startTime":28.695656,"endTime":28.858699499999997,"isDrum":true},{"pitch":42,"velocity":102,"startTime":29.021742999999997,"endTime":29.184786499999998,"isDrum":true},{"pitch":40,"velocity":102,"startTime":29.34783,"endTime":29.5108735,"isDrum":true},{"pitch":42,"velocity":102,"startTime":29.34783,"endTime":29.5108735,"isDrum":true},{"pitch":42,"velocity":102,"startTime":29.673917,"endTime":29.836960499999996,"isDrum":true},{"pitch":35,"velocity":102,"startTime":29.836960499999996,"endTime":30.000003999999997,"isDrum":true},{"pitch":35,"velocity":102,"startTime":30.000003999999997,"endTime":30.163047499999998,"isDrum":true},{"pitch":42,"velocity":102,"startTime":30.000003999999997,"endTime":30.163047499999998,"isDrum":true},{"pitch":42,"velocity":102,"startTime":30.163047499999998,"endTime":30.326090999999998,"isDrum":true},{"pitch":40,"velocity":102,"startTime":30.326090999999998,"endTime":30.4891345,"isDrum":true},{"pitch":35,"velocity":102,"startTime":30.4891345,"endTime":30.652178,"isDrum":true},{"pitch":40,"velocity":102,"startTime":30.652178,"endTime":30.815221499999996,"isDrum":true},{"pitch":42,"velocity":102,"startTime":30.652178,"endTime":30.815221499999996,"isDrum":true},{"pitch":35,"velocity":102,"startTime":30.978264999999997,"endTime":31.141308499999997,"isDrum":true},{"pitch":42,"velocity":102,"startTime":30.978264999999997,"endTime":31.141308499999997,"isDrum":true},{"pitch":35,"velocity":102,"startTime":31.304351999999998,"endTime":31.4673955,"isDrum":true},{"pitch":42,"velocity":102,"startTime":31.304351999999998,"endTime":31.4673955,"isDrum":true},{"pitch":42,"velocity":102,"startTime":31.630439,"endTime":31.793482499999996,"isDrum":true},{"pitch":40,"velocity":102,"startTime":31.956525999999997,"endTime":32.1195695,"isDrum":true},{"pitch":42,"velocity":102,"startTime":31.956525999999997,"endTime":32.1195695,"isDrum":true},{"pitch":42,"velocity":102,"startTime":32.282613,"endTime":32.4456565,"isDrum":true},{"pitch":35,"velocity":102,"startTime":32.6087,"endTime":32.7717435,"isDrum":true},{"pitch":42,"velocity":102,"startTime":32.6087,"endTime":32.7717435,"isDrum":true},{"pitch":42,"velocity":102,"startTime":32.934787,"endTime":33.0978305,"isDrum":true},{"pitch":40,"velocity":102,"startTime":33.260873999999994,"endTime":33.423917499999995,"isDrum":true},{"pitch":42,"velocity":102,"startTime":33.260873999999994,"endTime":33.423917499999995,"isDrum":true},{"pitch":42,"velocity":102,"startTime":33.586960999999995,"endTime":33.750004499999996,"isDrum":true},{"pitch":35,"velocity":102,"startTime":33.913047999999996,"endTime":34.0760915,"isDrum":true},{"pitch":42,"velocity":102,"startTime":33.913047999999996,"endTime":34.0760915,"isDrum":true},{"pitch":42,"velocity":102,"startTime":34.239135,"endTime":34.4021785,"isDrum":true},{"pitch":40,"velocity":102,"startTime":34.565222,"endTime":34.7282655,"isDrum":true},{"pitch":42,"velocity":102,"startTime":34.565222,"endTime":34.7282655,"isDrum":true},{"pitch":42,"velocity":102,"startTime":34.891309,"endTime":35.0543525,"isDrum":true},{"pitch":35,"velocity":102,"startTime":35.217396,"endTime":35.380439499999994,"isDrum":true},{"pitch":42,"velocity":102,"startTime":35.217396,"endTime":35.380439499999994,"isDrum":true},{"pitch":42,"velocity":102,"startTime":35.543482999999995,"endTime":35.706526499999995,"isDrum":true},{"pitch":40,"velocity":102,"startTime":35.869569999999996,"endTime":36.0326135,"isDrum":true},{"pitch":42,"velocity":102,"startTime":35.869569999999996,"endTime":36.0326135,"isDrum":true},{"pitch":42,"velocity":102,"startTime":36.195657,"endTime":36.3587005,"isDrum":true},{"pitch":35,"velocity":102,"startTime":36.521744,"endTime":36.6847875,"isDrum":true},{"pitch":42,"velocity":102,"startTime":36.521744,"endTime":36.6847875,"isDrum":true},{"pitch":42,"velocity":102,"startTime":36.847831,"endTime":37.0108745,"isDrum":true},{"pitch":40,"velocity":102,"startTime":37.173918,"endTime":37.336961499999994,"isDrum":true},{"pitch":42,"velocity":102,"startTime":37.173918,"endTime":37.336961499999994,"isDrum":true},{"pitch":42,"velocity":102,"startTime":37.500004999999994,"endTime":37.663048499999995,"isDrum":true},{"pitch":35,"velocity":102,"startTime":37.663048499999995,"endTime":37.826091999999996,"isDrum":true},{"pitch":35,"velocity":102,"startTime":37.826091999999996,"endTime":37.989135499999996,"isDrum":true},{"pitch":42,"velocity":102,"startTime":37.826091999999996,"endTime":37.989135499999996,"isDrum":true},{"pitch":42,"velocity":102,"startTime":38.152179,"endTime":38.3152225,"isDrum":true},{"pitch":40,"velocity":102,"startTime":38.478266,"endTime":38.6413095,"isDrum":true},{"pitch":42,"velocity":102,"startTime":38.478266,"endTime":38.6413095,"isDrum":true},{"pitch":42,"velocity":102,"startTime":38.804353,"endTime":38.9673965,"isDrum":true},{"pitch":35,"velocity":102,"startTime":39.13044,"endTime":39.293483499999994,"isDrum":true},{"pitch":42,"velocity":102,"startTime":39.13044,"endTime":39.293483499999994,"isDrum":true},{"pitch":42,"velocity":102,"startTime":39.456526999999994,"endTime":39.619570499999995,"isDrum":true},{"pitch":40,"velocity":102,"startTime":39.782613999999995,"endTime":39.945657499999996,"isDrum":true},{"pitch":42,"velocity":102,"startTime":39.782613999999995,"endTime":39.945657499999996,"isDrum":true},{"pitch":42,"velocity":102,"startTime":40.108700999999996,"endTime":40.2717445,"isDrum":true},{"pitch":35,"velocity":102,"startTime":40.2717445,"endTime":40.434788,"isDrum":true},{"pitch":35,"velocity":102,"startTime":40.434788,"endTime":40.5978315,"isDrum":true},{"pitch":42,"velocity":102,"startTime":40.434788,"endTime":40.5978315,"isDrum":true},{"pitch":42,"velocity":102,"startTime":40.760875,"endTime":40.9239185,"isDrum":true},{"pitch":40,"velocity":102,"startTime":41.086962,"endTime":41.2500055,"isDrum":true},{"pitch":42,"velocity":102,"startTime":41.086962,"endTime":41.2500055,"isDrum":true},{"pitch":42,"velocity":102,"startTime":41.413048999999994,"endTime":41.576092499999994,"isDrum":true},{"pitch":63,"velocity":95,"startTime":20.869567999999997,"endTime":20.978263666666663,"instrument":1,"program":12},{"pitch":67,"velocity":95,"startTime":21.032611499999998,"endTime":21.141307166666664,"instrument":1,"program":12},{"pitch":72,"velocity":95,"startTime":21.195655,"endTime":21.30435066666666,"instrument":1,"program":12},{"pitch":63,"velocity":95,"startTime":21.3586985,"endTime":21.46739416666666,"instrument":1,"program":12},{"pitch":67,"velocity":95,"startTime":21.521742,"endTime":21.630437666666662,"instrument":1,"program":12},{"pitch":72,"velocity":95,"startTime":21.684785499999997,"endTime":21.793481166666663,"instrument":1,"program":12},{"pitch":72,"velocity":95,"startTime":21.847828999999997,"endTime":21.956524666666663,"instrument":1,"program":12},{"pitch":67,"velocity":95,"startTime":22.010872499999998,"endTime":22.119568166666664,"instrument":1,"program":12},{"pitch":72,"velocity":95,"startTime":22.173916,"endTime":22.282611666666664,"instrument":1,"program":12},{"pitch":75,"velocity":95,"startTime":22.3369595,"endTime":22.445655166666665,"instrument":1,"program":12},{"pitch":72,"velocity":95,"startTime":22.500003,"endTime":22.608698666666665,"instrument":1,"program":12},{"pitch":63,"velocity":95,"startTime":22.663046499999997,"endTime":22.771742166666666,"instrument":1,"program":12},{"pitch":67,"velocity":95,"startTime":22.826089999999997,"endTime":22.934785666666667,"instrument":1,"program":12},{"pitch":72,"velocity":95,"startTime":22.989133499999998,"endTime":23.097829166666664,"instrument":1,"program":12},{"pitch":67,"velocity":95,"startTime":23.152177,"endTime":23.260872666666664,"instrument":1,"program":12},{"pitch":72,"velocity":95,"startTime":23.3152205,"endTime":23.423916166666665,"instrument":1,"program":12},{"pitch":63,"velocity":95,"startTime":23.478264,"endTime":23.6413075,"instrument":1,"program":12},{"pitch":67,"velocity":95,"startTime":23.6413075,"endTime":23.750003166666666,"instrument":1,"program":12},{"pitch":70,"velocity":95,"startTime":23.804350999999997,"endTime":23.913046666666666,"instrument":1,"program":12},{"pitch":72,"velocity":95,"startTime":23.967394499999997,"endTime":24.076090166666663,"instrument":1,"program":12},{"pitch":63,"velocity":95,"startTime":24.130437999999998,"endTime":24.239133666666664,"instrument":1,"program":12},{"pitch":72,"velocity":95,"startTime":24.2934815,"endTime":24.402177166666664,"instrument":1,"program":12},{"pitch":67,"velocity":95,"startTime":24.456525,"endTime":24.565220666666665,"instrument":1,"program":12},{"pitch":70,"velocity":95,"startTime":24.6195685,"endTime":24.728264166666666,"instrument":1,"program":12},{"pitch":63,"velocity":95,"startTime":24.782611999999997,"endTime":24.891307666666666,"instrument":1,"program":12},{"pitch":67,"velocity":95,"startTime":24.945655499999997,"endTime":25.054351166666663,"instrument":1,"program":12},{"pitch":72,"velocity":95,"startTime":25.108698999999998,"endTime":25.217394666666664,"instrument":1,"program":12},{"pitch":75,"velocity":95,"startTime":25.2717425,"endTime":25.380438166666664,"instrument":1,"program":12},{"pitch":72,"velocity":95,"startTime":25.434786,"endTime":25.543481666666665,"instrument":1,"program":12},{"pitch":67,"velocity":95,"startTime":25.5978295,"endTime":25.706525166666665,"instrument":1,"program":12},{"pitch":63,"velocity":95,"startTime":25.760872999999997,"endTime":25.869568666666666,"instrument":1,"program":12},{"pitch":70,"velocity":95,"startTime":25.923916499999997,"endTime":26.032612166666663,"instrument":1,"program":12},{"pitch":62,"velocity":95,"startTime":26.086959999999998,"endTime":26.195655666666664,"instrument":1,"program":12},{"pitch":67,"velocity":95,"startTime":26.2500035,"endTime":26.358699166666664,"instrument":1,"program":12},{"pitch":70,"velocity":95,"startTime":26.413047,"endTime":26.521742666666665,"instrument":1,"program":12},{"pitch":62,"velocity":95,"startTime":26.5760905,"endTime":26.684786166666665,"instrument":1,"program":12},{"pitch":67,"velocity":95,"startTime":26.739133999999996,"endTime":26.847829666666666,"instrument":1,"program":12},{"pitch":70,"velocity":95,"startTime":26.902177499999997,"endTime":27.010873166666666,"instrument":1,"program":12},{"pitch":74,"velocity":95,"startTime":27.065220999999998,"endTime":27.173916666666663,"instrument":1,"program":12},{"pitch":67,"velocity":95,"startTime":27.228264499999998,"endTime":27.336960166666664,"instrument":1,"program":12},{"pitch":70,"velocity":95,"startTime":27.391308,"endTime":27.500003666666665,"instrument":1,"program":12},{"pitch":67,"velocity":95,"startTime":27.5543515,"endTime":27.663047166666665,"instrument":1,"program":12},{"pitch":70,"velocity":95,"startTime":27.717394999999996,"endTime":27.826090666666666,"instrument":1,"program":12},{"pitch":74,"velocity":95,"startTime":27.880438499999997,"endTime":27.989134166666666,"instrument":1,"program":12},{"pitch":70,"velocity":95,"startTime":28.043481999999997,"endTime":28.152177666666663,"instrument":1,"program":12},{"pitch":67,"velocity":95,"startTime":28.206525499999998,"endTime":28.315221166666664,"instrument":1,"program":12},{"pitch":70,"velocity":95,"startTime":28.369569,"endTime":28.478264666666664,"instrument":1,"program":12},{"pitch":62,"velocity":95,"startTime":28.5326125,"endTime":28.641308166666665,"instrument":1,"program":12},{"pitch":70,"velocity":95,"startTime":28.695656,"endTime":28.804351666666665,"instrument":1,"program":12},{"pitch":74,"velocity":95,"startTime":28.858699499999997,"endTime":28.967395166666666,"instrument":1,"program":12},{"pitch":70,"velocity":95,"startTime":29.021742999999997,"endTime":29.130438666666663,"instrument":1,"program":12},{"pitch":67,"velocity":95,"startTime":29.184786499999998,"endTime":29.293482166666664,"instrument":1,"program":12},{"pitch":70,"velocity":95,"startTime":29.34783,"endTime":29.456525666666664,"instrument":1,"program":12},{"pitch":67,"velocity":95,"startTime":29.5108735,"endTime":29.619569166666665,"instrument":1,"program":12},{"pitch":62,"velocity":95,"startTime":29.673917,"endTime":29.782612666666665,"instrument":1,"program":12},{"pitch":67,"velocity":95,"startTime":29.836960499999996,"endTime":29.945656166666666,"instrument":1,"program":12},{"pitch":70,"velocity":95,"startTime":30.000003999999997,"endTime":30.108699666666663,"instrument":1,"program":12},{"pitch":67,"velocity":95,"startTime":30.163047499999998,"endTime":30.271743166666663,"instrument":1,"program":12},{"pitch":70,"velocity":95,"startTime":30.326090999999998,"endTime":30.434786666666664,"instrument":1,"program":12},{"pitch":67,"velocity":95,"startTime":30.4891345,"endTime":30.597830166666665,"instrument":1,"program":12},{"pitch":74,"velocity":95,"startTime":30.652178,"endTime":30.760873666666665,"instrument":1,"program":12},{"pitch":70,"velocity":95,"startTime":30.815221499999996,"endTime":30.923917166666666,"instrument":1,"program":12},{"pitch":67,"velocity":95,"startTime":30.978264999999997,"endTime":31.141308499999997,"instrument":1,"program":12},{"pitch":70,"velocity":95,"startTime":31.141308499999997,"endTime":31.250004166666663,"instrument":1,"program":12},{"pitch":62,"velocity":95,"startTime":31.304351999999998,"endTime":31.4673955,"instrument":1,"program":12},{"pitch":66,"velocity":95,"startTime":31.4673955,"endTime":31.576091166666668,"instrument":1,"program":12},{"pitch":69,"velocity":95,"startTime":31.630439,"endTime":31.73913466666667,"instrument":1,"program":12},{"pitch":62,"velocity":95,"startTime":31.793482499999996,"endTime":31.90217816666667,"instrument":1,"program":12},{"pitch":69,"velocity":95,"startTime":31.956525999999997,"endTime":32.065221666666666,"instrument":1,"program":12},{"pitch":66,"velocity":95,"startTime":32.1195695,"endTime":32.22826516666667,"instrument":1,"program":12},{"pitch":69,"velocity":95,"startTime":32.282613,"endTime":32.39130866666667,"instrument":1,"program":12},{"pitch":62,"velocity":95,"startTime":32.4456565,"endTime":32.55435216666667,"instrument":1,"program":12},{"pitch":69,"velocity":95,"startTime":32.6087,"endTime":32.71739566666667,"instrument":1,"program":12},{"pitch":66,"velocity":95,"startTime":32.7717435,"endTime":32.88043916666667,"instrument":1,"program":12},{"pitch":69,"velocity":95,"startTime":32.934787,"endTime":33.04348266666667,"instrument":1,"program":12},{"pitch":62,"velocity":95,"startTime":33.0978305,"endTime":33.20652616666667,"instrument":1,"program":12},{"pitch":66,"velocity":95,"startTime":33.260873999999994,"endTime":33.36956966666667,"instrument":1,"program":12},{"pitch":69,"velocity":95,"startTime":33.423917499999995,"endTime":33.53261316666667,"instrument":1,"program":12},{"pitch":62,"velocity":95,"startTime":33.586960999999995,"endTime":33.69565666666667,"instrument":1,"program":12},{"pitch":69,"velocity":95,"startTime":33.750004499999996,"endTime":33.85870016666667,"instrument":1,"program":12},{"pitch":60,"velocity":95,"startTime":33.913047999999996,"endTime":34.0760915,"instrument":1,"program":12},{"pitch":69,"velocity":95,"startTime":34.0760915,"endTime":34.184787166666666,"instrument":1,"program":12},{"pitch":69,"velocity":95,"startTime":34.239135,"endTime":34.34783066666667,"instrument":1,"program":12},{"pitch":72,"velocity":95,"startTime":34.4021785,"endTime":34.51087416666667,"instrument":1,"program":12},{"pitch":69,"velocity":95,"startTime":34.565222,"endTime":34.67391766666667,"instrument":1,"program":12},{"pitch":69,"velocity":95,"startTime":34.7282655,"endTime":34.83696116666667,"instrument":1,"program":12},{"pitch":60,"velocity":95,"startTime":34.891309,"endTime":35.00000466666667,"instrument":1,"program":12},{"pitch":69,"velocity":95,"startTime":35.0543525,"endTime":35.16304816666667,"instrument":1,"program":12},{"pitch":66,"velocity":95,"startTime":35.217396,"endTime":35.32609166666667,"instrument":1,"program":12},{"pitch":69,"velocity":95,"startTime":35.380439499999994,"endTime":35.48913516666667,"instrument":1,"program":12},{"pitch":69,"velocity":95,"startTime":35.543482999999995,"endTime":35.65217866666667,"instrument":1,"program":12},{"pitch":69,"velocity":95,"startTime":35.706526499999995,"endTime":35.81522216666667,"instrument":1,"program":12},{"pitch":72,"velocity":95,"startTime":35.869569999999996,"endTime":35.978265666666665,"instrument":1,"program":12},{"pitch":69,"velocity":95,"startTime":36.0326135,"endTime":36.141309166666666,"instrument":1,"program":12},{"pitch":69,"velocity":95,"startTime":36.195657,"endTime":36.46739616666667,"instrument":1,"program":12},{"pitch":67,"velocity":95,"startTime":36.521744,"endTime":36.63043966666667,"instrument":1,"program":12},{"pitch":70,"velocity":95,"startTime":36.6847875,"endTime":36.79348316666667,"instrument":1,"program":12},{"pitch":67,"velocity":95,"startTime":36.847831,"endTime":36.95652666666667,"instrument":1,"program":12},{"pitch":70,"velocity":95,"startTime":37.0108745,"endTime":37.11957016666667,"instrument":1,"program":12},{"pitch":67,"velocity":95,"startTime":37.173918,"endTime":37.28261366666667,"instrument":1,"program":12},{"pitch":70,"velocity":95,"startTime":37.336961499999994,"endTime":37.44565716666667,"instrument":1,"program":12},{"pitch":67,"velocity":95,"startTime":37.500004999999994,"endTime":37.60870066666667,"instrument":1,"program":12},{"pitch":70,"velocity":95,"startTime":37.663048499999995,"endTime":37.77174416666667,"instrument":1,"program":12},{"pitch":70,"velocity":95,"startTime":39.13044,"endTime":39.23913566666667,"instrument":1,"program":12},{"pitch":72,"velocity":95,"startTime":39.293483499999994,"endTime":39.40217916666667,"instrument":1,"program":12},{"pitch":67,"velocity":95,"startTime":39.456526999999994,"endTime":39.56522266666667,"instrument":1,"program":12},{"pitch":70,"velocity":95,"startTime":39.619570499999995,"endTime":39.72826616666667,"instrument":1,"program":12},{"pitch":72,"velocity":95,"startTime":39.782613999999995,"endTime":39.89130966666667,"instrument":1,"program":12},{"pitch":67,"velocity":95,"startTime":39.945657499999996,"endTime":40.054353166666665,"instrument":1,"program":12},{"pitch":70,"velocity":95,"startTime":40.108700999999996,"endTime":40.217396666666666,"instrument":1,"program":12},{"pitch":67,"velocity":95,"startTime":40.2717445,"endTime":40.380440166666666,"instrument":1,"program":12},{"pitch":70,"velocity":95,"startTime":40.434788,"endTime":40.54348366666667,"instrument":1,"program":12},{"pitch":67,"velocity":95,"startTime":40.5978315,"endTime":40.70652716666667,"instrument":1,"program":12},{"pitch":70,"velocity":95,"startTime":40.760875,"endTime":40.86957066666667,"instrument":1,"program":12},{"pitch":67,"velocity":95,"startTime":40.9239185,"endTime":41.03261416666667,"instrument":1,"program":12},{"pitch":70,"velocity":95,"startTime":41.086962,"endTime":41.19565766666667,"instrument":1,"program":12},{"pitch":67,"velocity":95,"startTime":41.2500055,"endTime":41.35870116666667,"instrument":1,"program":12},{"pitch":70,"velocity":95,"startTime":41.413048999999994,"endTime":41.52174466666667,"instrument":1,"program":12},{"pitch":67,"velocity":95,"startTime":41.576092499999994,"endTime":41.68478816666667,"instrument":1,"program":12},{"pitch":36,"velocity":110,"startTime":20.869567999999997,"endTime":21.195655,"instrument":2,"program":32},{"pitch":28,"velocity":110,"startTime":21.3586985,"endTime":21.521742,"instrument":2,"program":32},{"pitch":28,"velocity":110,"startTime":21.684785499999997,"endTime":21.793481166666663,"instrument":2,"program":32},{"pitch":36,"velocity":110,"startTime":21.847828999999997,"endTime":22.010872499999998,"instrument":2,"program":32},{"pitch":39,"velocity":110,"startTime":22.173916,"endTime":22.3369595,"instrument":2,"program":32},{"pitch":39,"velocity":110,"startTime":22.500003,"endTime":22.663046499999997,"instrument":2,"program":32},{"pitch":34,"velocity":110,"startTime":22.826089999999997,"endTime":22.989133499999998,"instrument":2,"program":32},{"pitch":48,"velocity":110,"startTime":23.152177,"endTime":23.3152205,"instrument":2,"program":32},{"pitch":39,"velocity":110,"startTime":23.478264,"endTime":23.804350999999997,"instrument":2,"program":32},{"pitch":46,"velocity":110,"startTime":23.967394499999997,"endTime":24.130437999999998,"instrument":2,"program":32},{"pitch":46,"velocity":110,"startTime":24.2934815,"endTime":24.456525,"instrument":2,"program":32},{"pitch":36,"velocity":110,"startTime":24.456525,"endTime":24.6195685,"instrument":2,"program":32},{"pitch":39,"velocity":110,"startTime":24.782611999999997,"endTime":24.945655499999997,"instrument":2,"program":32},{"pitch":39,"velocity":110,"startTime":25.108698999999998,"endTime":25.2717425,"instrument":2,"program":32},{"pitch":39,"velocity":110,"startTime":25.434786,"endTime":25.760872999999997,"instrument":2,"program":32},{"pitch":34,"velocity":110,"startTime":25.923916499999997,"endTime":26.032612166666663,"instrument":2,"program":32},{"pitch":43,"velocity":110,"startTime":26.086959999999998,"endTime":26.413047,"instrument":2,"program":32},{"pitch":38,"velocity":110,"startTime":26.5760905,"endTime":26.739133999999996,"instrument":2,"program":32},{"pitch":34,"velocity":110,"startTime":26.902177499999997,"endTime":27.065220999999998,"instrument":2,"program":32},{"pitch":38,"velocity":110,"startTime":27.065220999999998,"endTime":27.228264499999998,"instrument":2,"program":32},{"pitch":31,"velocity":110,"startTime":27.391308,"endTime":27.5543515,"instrument":2,"program":32},{"pitch":31,"velocity":110,"startTime":27.717394999999996,"endTime":27.880438499999997,"instrument":2,"program":32},{"pitch":31,"velocity":110,"startTime":28.043481999999997,"endTime":28.206525499999998,"instrument":2,"program":32},{"pitch":38,"velocity":110,"startTime":28.369569,"endTime":28.5326125,"instrument":2,"program":32},{"pitch":31,"velocity":110,"startTime":28.695656,"endTime":29.021742999999997,"instrument":2,"program":32},{"pitch":31,"velocity":110,"startTime":29.184786499999998,"endTime":29.34783,"instrument":2,"program":32},{"pitch":31,"velocity":110,"startTime":29.5108735,"endTime":29.673917,"instrument":2,"program":32},{"pitch":38,"velocity":110,"startTime":29.673917,"endTime":29.836960499999996,"instrument":2,"program":32},{"pitch":31,"velocity":110,"startTime":30.000003999999997,"endTime":30.163047499999998,"instrument":2,"program":32},{"pitch":31,"velocity":110,"startTime":30.326090999999998,"endTime":30.4891345,"instrument":2,"program":32},{"pitch":31,"velocity":110,"startTime":30.652178,"endTime":30.815221499999996,"instrument":2,"program":32},{"pitch":31,"velocity":110,"startTime":30.978264999999997,"endTime":31.141308499999997,"instrument":2,"program":32},{"pitch":38,"velocity":110,"startTime":31.304351999999998,"endTime":31.630439,"instrument":2,"program":32},{"pitch":33,"velocity":110,"startTime":31.793482499999996,"endTime":31.956525999999997,"instrument":2,"program":32},{"pitch":36,"velocity":110,"startTime":32.1195695,"endTime":32.282613,"instrument":2,"program":32},{"pitch":38,"velocity":110,"startTime":32.282613,"endTime":32.4456565,"instrument":2,"program":32},{"pitch":33,"velocity":110,"startTime":32.6087,"endTime":32.7717435,"instrument":2,"program":32},{"pitch":36,"velocity":110,"startTime":32.934787,"endTime":33.0978305,"instrument":2,"program":32},{"pitch":33,"velocity":110,"startTime":33.260873999999994,"endTime":33.423917499999995,"instrument":2,"program":32},{"pitch":36,"velocity":110,"startTime":33.586960999999995,"endTime":33.750004499999996,"instrument":2,"program":32},{"pitch":38,"velocity":110,"startTime":33.913047999999996,"endTime":34.239135,"instrument":2,"program":32},{"pitch":38,"velocity":110,"startTime":34.4021785,"endTime":34.565222,"instrument":2,"program":32},{"pitch":38,"velocity":110,"startTime":34.7282655,"endTime":34.891309,"instrument":2,"program":32},{"pitch":38,"velocity":110,"startTime":34.891309,"endTime":35.0543525,"instrument":2,"program":32},{"pitch":38,"velocity":110,"startTime":35.217396,"endTime":35.380439499999994,"instrument":2,"program":32},{"pitch":38,"velocity":110,"startTime":35.706526499999995,"endTime":35.869569999999996,"instrument":2,"program":32},{"pitch":50,"velocity":110,"startTime":36.0326135,"endTime":36.195657,"instrument":2,"program":32},{"pitch":38,"velocity":110,"startTime":36.195657,"endTime":36.3587005,"instrument":2,"program":32},{"pitch":60,"velocity":105,"startTime":20.869567999999997,"endTime":22.500003,"instrument":3,"program":50},{"pitch":63,"velocity":105,"startTime":20.869567999999997,"endTime":22.500003,"instrument":3,"program":50},{"pitch":67,"velocity":105,"startTime":20.869567999999997,"endTime":22.500003,"instrument":3,"program":50},{"pitch":70,"velocity":105,"startTime":20.869567999999997,"endTime":22.500003,"instrument":3,"program":50},{"pitch":75,"velocity":105,"startTime":20.869567999999997,"endTime":22.500003,"instrument":3,"program":50},{"pitch":60,"velocity":105,"startTime":22.500003,"endTime":23.478264,"instrument":3,"program":50},{"pitch":63,"velocity":105,"startTime":22.500003,"endTime":23.478264,"instrument":3,"program":50},{"pitch":67,"velocity":105,"startTime":22.500003,"endTime":23.478264,"instrument":3,"program":50},{"pitch":70,"velocity":105,"startTime":22.500003,"endTime":23.478264,"instrument":3,"program":50},{"pitch":60,"velocity":105,"startTime":23.478264,"endTime":26.086959999999998,"instrument":3,"program":50},{"pitch":63,"velocity":105,"startTime":23.478264,"endTime":26.086959999999998,"instrument":3,"program":50},{"pitch":67,"velocity":105,"startTime":23.478264,"endTime":26.086959999999998,"instrument":3,"program":50},{"pitch":70,"velocity":105,"startTime":23.478264,"endTime":26.086959999999998,"instrument":3,"program":50},{"pitch":62,"velocity":105,"startTime":26.086959999999998,"endTime":28.695656,"instrument":3,"program":50},{"pitch":67,"velocity":105,"startTime":26.086959999999998,"endTime":28.695656,"instrument":3,"program":50},{"pitch":70,"velocity":105,"startTime":26.086959999999998,"endTime":28.695656,"instrument":3,"program":50},{"pitch":74,"velocity":105,"startTime":26.086959999999998,"endTime":28.695656,"instrument":3,"program":50},{"pitch":58,"velocity":105,"startTime":28.695656,"endTime":31.304351999999998,"instrument":3,"program":50},{"pitch":62,"velocity":105,"startTime":28.695656,"endTime":29.184786499999998,"instrument":3,"program":50},{"pitch":67,"velocity":105,"startTime":28.695656,"endTime":30.000003999999997,"instrument":3,"program":50},{"pitch":74,"velocity":105,"startTime":28.695656,"endTime":31.304351999999998,"instrument":3,"program":50},{"pitch":62,"velocity":105,"startTime":29.184786499999998,"endTime":29.34783,"instrument":3,"program":50},{"pitch":62,"velocity":105,"startTime":29.34783,"endTime":29.72826483333333,"instrument":3,"program":50},{"pitch":74,"velocity":105,"startTime":29.673917,"endTime":30.000003999999997,"instrument":3,"program":50},{"pitch":67,"velocity":105,"startTime":30.000003999999997,"endTime":31.304351999999998,"instrument":3,"program":50},{"pitch":74,"velocity":105,"startTime":30.000003999999997,"endTime":30.326090999999998,"instrument":3,"program":50},{"pitch":67,"velocity":105,"startTime":30.326090999999998,"endTime":30.652178,"instrument":3,"program":50},{"pitch":67,"velocity":105,"startTime":30.652178,"endTime":30.815221499999996,"instrument":3,"program":50},{"pitch":62,"velocity":105,"startTime":30.815221499999996,"endTime":31.304351999999998,"instrument":3,"program":50},{"pitch":60,"velocity":105,"startTime":31.304351999999998,"endTime":33.641308833333326,"instrument":3,"program":50},{"pitch":66,"velocity":105,"startTime":31.304351999999998,"endTime":33.641308833333326,"instrument":3,"program":50},{"pitch":70,"velocity":105,"startTime":31.304351999999998,"endTime":33.586960999999995,"instrument":3,"program":50},{"pitch":74,"velocity":105,"startTime":31.304351999999998,"endTime":33.641308833333326,"instrument":3,"program":50},{"pitch":60,"velocity":105,"startTime":33.913047999999996,"endTime":36.195657,"instrument":3,"program":50},{"pitch":62,"velocity":105,"startTime":33.913047999999996,"endTime":36.195657,"instrument":3,"program":50},{"pitch":66,"velocity":105,"startTime":33.913047999999996,"endTime":36.195657,"instrument":3,"program":50},{"pitch":69,"velocity":105,"startTime":33.913047999999996,"endTime":36.195657,"instrument":3,"program":50},{"pitch":74,"velocity":105,"startTime":33.913047999999996,"endTime":36.195657,"instrument":3,"program":50},{"pitch":55,"velocity":105,"startTime":36.195657,"endTime":36.521744,"instrument":3,"program":50},{"pitch":62,"velocity":105,"startTime":36.195657,"endTime":36.521744,"instrument":3,"program":50},{"pitch":64,"velocity":105,"startTime":36.195657,"endTime":36.521744,"instrument":3,"program":50},{"pitch":70,"velocity":105,"startTime":36.195657,"endTime":36.521744,"instrument":3,"program":50},{"pitch":35,"velocity":102,"startTime":41.739135999999995,"endTime":41.84783166666667,"isDrum":true},{"pitch":42,"velocity":102,"startTime":41.739135999999995,"endTime":41.84783166666667,"isDrum":true},{"pitch":42,"velocity":102,"startTime":42.065222999999996,"endTime":42.173918666666665,"isDrum":true},{"pitch":35,"velocity":102,"startTime":42.2282665,"endTime":42.336962166666666,"isDrum":true},{"pitch":40,"velocity":102,"startTime":42.39131,"endTime":42.50000566666667,"isDrum":true},{"pitch":42,"velocity":102,"startTime":42.39131,"endTime":42.50000566666667,"isDrum":true},{"pitch":35,"velocity":102,"startTime":42.717397,"endTime":42.82609266666667,"isDrum":true},{"pitch":42,"velocity":102,"startTime":42.717397,"endTime":42.82609266666667,"isDrum":true},{"pitch":35,"velocity":102,"startTime":43.043484,"endTime":43.15217966666667,"isDrum":true},{"pitch":42,"velocity":102,"startTime":43.043484,"endTime":43.15217966666667,"isDrum":true},{"pitch":42,"velocity":102,"startTime":43.36957099999999,"endTime":43.47826666666667,"isDrum":true},{"pitch":40,"velocity":102,"startTime":43.695657999999995,"endTime":43.80435366666667,"isDrum":true},{"pitch":42,"velocity":102,"startTime":43.695657999999995,"endTime":43.80435366666667,"isDrum":true},{"pitch":42,"velocity":102,"startTime":44.021744999999996,"endTime":44.130440666666665,"isDrum":true},{"pitch":35,"velocity":102,"startTime":44.184788499999996,"endTime":44.293484166666666,"isDrum":true},{"pitch":42,"velocity":102,"startTime":44.347832,"endTime":44.456527666666666,"isDrum":true},{"pitch":40,"velocity":102,"startTime":44.5108755,"endTime":44.61957116666667,"isDrum":true},{"pitch":35,"velocity":102,"startTime":44.673919,"endTime":44.78261466666666,"isDrum":true},{"pitch":42,"velocity":102,"startTime":44.673919,"endTime":44.78261466666666,"isDrum":true},{"pitch":40,"velocity":102,"startTime":44.8369625,"endTime":44.94565816666666,"isDrum":true},{"pitch":40,"velocity":102,"startTime":45.000006,"endTime":45.10870166666666,"isDrum":true},{"pitch":42,"velocity":102,"startTime":45.000006,"endTime":45.10870166666666,"isDrum":true},{"pitch":35,"velocity":102,"startTime":45.32609299999999,"endTime":45.43478866666666,"isDrum":true},{"pitch":42,"velocity":102,"startTime":45.32609299999999,"endTime":45.43478866666666,"isDrum":true},{"pitch":35,"velocity":102,"startTime":45.652179999999994,"endTime":45.760875666666664,"isDrum":true},{"pitch":42,"velocity":102,"startTime":45.652179999999994,"endTime":45.760875666666664,"isDrum":true},{"pitch":42,"velocity":102,"startTime":45.978266999999995,"endTime":46.086962666666665,"isDrum":true},{"pitch":40,"velocity":102,"startTime":46.304354,"endTime":46.413049666666666,"isDrum":true},{"pitch":42,"velocity":102,"startTime":46.304354,"endTime":46.413049666666666,"isDrum":true},{"pitch":48,"velocity":102,"startTime":46.304354,"endTime":46.413049666666666,"isDrum":true},{"pitch":42,"velocity":102,"startTime":46.630441,"endTime":46.73913666666666,"isDrum":true},{"pitch":35,"velocity":102,"startTime":46.956528,"endTime":47.06522366666666,"isDrum":true},{"pitch":42,"velocity":102,"startTime":46.956528,"endTime":47.06522366666666,"isDrum":true},{"pitch":35,"velocity":102,"startTime":47.282615,"endTime":47.39131066666666,"isDrum":true},{"pitch":42,"velocity":102,"startTime":47.282615,"endTime":47.39131066666666,"isDrum":true},{"pitch":40,"velocity":102,"startTime":47.608701999999994,"endTime":47.71739766666666,"isDrum":true},{"pitch":42,"velocity":102,"startTime":47.608701999999994,"endTime":47.71739766666666,"isDrum":true},{"pitch":48,"velocity":102,"startTime":47.608701999999994,"endTime":47.71739766666666,"isDrum":true},{"pitch":40,"velocity":102,"startTime":47.771745499999994,"endTime":47.880441166666664,"isDrum":true},{"pitch":42,"velocity":102,"startTime":47.934788999999995,"endTime":48.043484666666664,"isDrum":true},{"pitch":40,"velocity":102,"startTime":48.097832499999996,"endTime":48.206528166666665,"isDrum":true},{"pitch":35,"velocity":102,"startTime":48.260875999999996,"endTime":48.369571666666666,"isDrum":true},{"pitch":42,"velocity":102,"startTime":48.260875999999996,"endTime":48.369571666666666,"isDrum":true},{"pitch":42,"velocity":102,"startTime":48.586963,"endTime":48.69565866666666,"isDrum":true},{"pitch":40,"velocity":102,"startTime":48.91305,"endTime":49.02174566666666,"isDrum":true},{"pitch":42,"velocity":102,"startTime":48.91305,"endTime":49.02174566666666,"isDrum":true},{"pitch":42,"velocity":102,"startTime":49.239137,"endTime":49.34783266666666,"isDrum":true},{"pitch":35,"velocity":102,"startTime":49.40218049999999,"endTime":49.51087616666666,"isDrum":true},{"pitch":42,"velocity":102,"startTime":49.56522399999999,"endTime":49.67391966666666,"isDrum":true},{"pitch":35,"velocity":102,"startTime":49.891310999999995,"endTime":50.000006666666664,"isDrum":true},{"pitch":42,"velocity":102,"startTime":49.891310999999995,"endTime":50.000006666666664,"isDrum":true},{"pitch":40,"velocity":102,"startTime":50.217397999999996,"endTime":50.326093666666665,"isDrum":true},{"pitch":42,"velocity":102,"startTime":50.217397999999996,"endTime":50.326093666666665,"isDrum":true},{"pitch":48,"velocity":102,"startTime":50.217397999999996,"endTime":50.326093666666665,"isDrum":true},{"pitch":48,"velocity":102,"startTime":50.380441499999996,"endTime":50.489137166666666,"isDrum":true},{"pitch":42,"velocity":102,"startTime":50.543485,"endTime":50.652180666666666,"isDrum":true},{"pitch":35,"velocity":102,"startTime":50.7065285,"endTime":50.81522416666666,"isDrum":true},{"pitch":35,"velocity":102,"startTime":50.869572,"endTime":50.97826766666666,"isDrum":true},{"pitch":42,"velocity":102,"startTime":50.869572,"endTime":50.97826766666666,"isDrum":true},{"pitch":42,"velocity":102,"startTime":51.0326155,"endTime":51.14131116666666,"isDrum":true},{"pitch":35,"velocity":102,"startTime":51.195659,"endTime":51.30435466666666,"isDrum":true},{"pitch":42,"velocity":102,"startTime":51.195659,"endTime":51.30435466666666,"isDrum":true},{"pitch":40,"velocity":102,"startTime":51.52174599999999,"endTime":51.63044166666666,"isDrum":true},{"pitch":42,"velocity":102,"startTime":51.52174599999999,"endTime":51.63044166666666,"isDrum":true},{"pitch":42,"velocity":102,"startTime":51.847832999999994,"endTime":51.956528666666664,"isDrum":true},{"pitch":35,"velocity":102,"startTime":52.173919999999995,"endTime":52.282615666666665,"isDrum":true},{"pitch":42,"velocity":102,"startTime":52.173919999999995,"endTime":52.282615666666665,"isDrum":true},{"pitch":42,"velocity":102,"startTime":52.500007,"endTime":52.608702666666666,"isDrum":true},{"pitch":40,"velocity":102,"startTime":52.826094,"endTime":52.93478966666666,"isDrum":true},{"pitch":42,"velocity":102,"startTime":52.826094,"endTime":52.93478966666666,"isDrum":true},{"pitch":42,"velocity":102,"startTime":53.152181,"endTime":53.26087666666666,"isDrum":true},{"pitch":35,"velocity":102,"startTime":53.47826799999999,"endTime":53.58696366666666,"isDrum":true},{"pitch":42,"velocity":102,"startTime":53.47826799999999,"endTime":53.58696366666666,"isDrum":true},{"pitch":35,"velocity":102,"startTime":53.804354999999994,"endTime":53.91305066666666,"isDrum":true},{"pitch":42,"velocity":102,"startTime":53.804354999999994,"endTime":53.91305066666666,"isDrum":true},{"pitch":40,"velocity":102,"startTime":54.130441999999995,"endTime":54.239137666666664,"isDrum":true},{"pitch":42,"velocity":102,"startTime":54.130441999999995,"endTime":54.239137666666664,"isDrum":true},{"pitch":48,"velocity":102,"startTime":54.130441999999995,"endTime":54.239137666666664,"isDrum":true},{"pitch":48,"velocity":102,"startTime":54.293485499999996,"endTime":54.402181166666665,"isDrum":true},{"pitch":42,"velocity":102,"startTime":54.456528999999996,"endTime":54.565224666666666,"isDrum":true},{"pitch":35,"velocity":102,"startTime":54.6195725,"endTime":54.72826816666666,"isDrum":true},{"pitch":35,"velocity":102,"startTime":54.782616,"endTime":54.89131166666666,"isDrum":true},{"pitch":42,"velocity":102,"startTime":54.782616,"endTime":54.89131166666666,"isDrum":true},{"pitch":42,"velocity":102,"startTime":55.108703,"endTime":55.21739866666666,"isDrum":true},{"pitch":35,"velocity":102,"startTime":55.2717465,"endTime":55.38044216666666,"isDrum":true},{"pitch":40,"velocity":102,"startTime":55.43478999999999,"endTime":55.54348566666666,"isDrum":true},{"pitch":42,"velocity":102,"startTime":55.43478999999999,"endTime":55.54348566666666,"isDrum":true},{"pitch":48,"velocity":102,"startTime":55.43478999999999,"endTime":55.54348566666666,"isDrum":true},{"pitch":40,"velocity":102,"startTime":55.59783349999999,"endTime":55.70652916666666,"isDrum":true},{"pitch":35,"velocity":102,"startTime":55.760876999999994,"endTime":55.86957266666666,"isDrum":true},{"pitch":42,"velocity":102,"startTime":55.760876999999994,"endTime":55.86957266666666,"isDrum":true},{"pitch":40,"velocity":102,"startTime":55.923920499999994,"endTime":56.032616166666664,"isDrum":true},{"pitch":42,"velocity":102,"startTime":56.086963999999995,"endTime":56.195659666666664,"isDrum":true},{"pitch":35,"velocity":102,"startTime":56.413050999999996,"endTime":56.521746666666665,"isDrum":true},{"pitch":42,"velocity":102,"startTime":56.413050999999996,"endTime":56.521746666666665,"isDrum":true},{"pitch":40,"velocity":102,"startTime":56.739138,"endTime":56.84783366666666,"isDrum":true},{"pitch":42,"velocity":102,"startTime":56.739138,"endTime":56.84783366666666,"isDrum":true},{"pitch":40,"velocity":102,"startTime":56.9021815,"endTime":57.01087716666666,"isDrum":true},{"pitch":42,"velocity":102,"startTime":57.065225,"endTime":57.17392066666666,"isDrum":true},{"pitch":40,"velocity":102,"startTime":57.2282685,"endTime":57.33696416666666,"isDrum":true},{"pitch":35,"velocity":102,"startTime":57.391312,"endTime":57.50000766666666,"isDrum":true},{"pitch":42,"velocity":102,"startTime":57.391312,"endTime":57.50000766666666,"isDrum":true},{"pitch":48,"velocity":102,"startTime":57.391312,"endTime":57.50000766666666,"isDrum":true},{"pitch":48,"velocity":102,"startTime":57.55435549999999,"endTime":57.66305116666666,"isDrum":true},{"pitch":42,"velocity":102,"startTime":57.71739899999999,"endTime":57.82609466666666,"isDrum":true},{"pitch":35,"velocity":102,"startTime":57.880442499999994,"endTime":57.98913816666666,"isDrum":true},{"pitch":40,"velocity":102,"startTime":57.880442499999994,"endTime":57.98913816666666,"isDrum":true},{"pitch":40,"velocity":102,"startTime":58.043485999999994,"endTime":58.152181666666664,"isDrum":true},{"pitch":42,"velocity":102,"startTime":58.043485999999994,"endTime":58.152181666666664,"isDrum":true},{"pitch":48,"velocity":102,"startTime":58.043485999999994,"endTime":58.152181666666664,"isDrum":true},{"pitch":40,"velocity":102,"startTime":58.206529499999995,"endTime":58.315225166666664,"isDrum":true},{"pitch":42,"velocity":102,"startTime":58.369572999999995,"endTime":58.478268666666665,"isDrum":true},{"pitch":40,"velocity":102,"startTime":58.532616499999996,"endTime":58.641312166666665,"isDrum":true},{"pitch":42,"velocity":102,"startTime":58.69566,"endTime":58.80435566666666,"isDrum":true},{"pitch":45,"velocity":102,"startTime":58.69566,"endTime":58.80435566666666,"isDrum":true},{"pitch":40,"velocity":102,"startTime":58.8587035,"endTime":58.96739916666666,"isDrum":true},{"pitch":35,"velocity":102,"startTime":59.021747,"endTime":59.13044266666666,"isDrum":true},{"pitch":42,"velocity":102,"startTime":59.021747,"endTime":59.13044266666666,"isDrum":true},{"pitch":40,"velocity":102,"startTime":59.347834,"endTime":59.45652966666666,"isDrum":true},{"pitch":42,"velocity":102,"startTime":59.347834,"endTime":59.45652966666666,"isDrum":true},{"pitch":40,"velocity":102,"startTime":59.51087749999999,"endTime":59.61957316666666,"isDrum":true},{"pitch":46,"velocity":102,"startTime":59.67392099999999,"endTime":59.78261666666666,"isDrum":true},{"pitch":62,"velocity":95,"startTime":41.739135999999995,"endTime":41.95652733333333,"instrument":1,"program":12},{"pitch":74,"velocity":95,"startTime":42.065222999999996,"endTime":42.39131,"instrument":1,"program":12},{"pitch":69,"velocity":95,"startTime":42.39131,"endTime":42.717397,"instrument":1,"program":12},{"pitch":74,"velocity":95,"startTime":42.717397,"endTime":42.8804405,"instrument":1,"program":12},{"pitch":74,"velocity":95,"startTime":42.93478833333332,"endTime":43.043484,"instrument":1,"program":12},{"pitch":69,"velocity":95,"startTime":43.043484,"endTime":43.15217966666667,"instrument":1,"program":12},{"pitch":74,"velocity":95,"startTime":43.36957099999999,"endTime":43.47826666666667,"instrument":1,"program":12},{"pitch":62,"velocity":95,"startTime":43.695657999999995,"endTime":43.858701499999995,"instrument":1,"program":12},{"pitch":69,"velocity":95,"startTime":44.021744999999996,"endTime":44.130440666666665,"instrument":1,"program":12},{"pitch":62,"velocity":95,"startTime":44.347832,"endTime":44.456527666666666,"instrument":1,"program":12},{"pitch":69,"velocity":95,"startTime":44.673919,"endTime":44.78261466666666,"instrument":1,"program":12},{"pitch":74,"velocity":95,"startTime":44.8369625,"endTime":44.94565816666666,"instrument":1,"program":12},{"pitch":69,"velocity":95,"startTime":45.000006,"endTime":45.10870166666666,"instrument":1,"program":12},{"pitch":74,"velocity":95,"startTime":45.1630495,"endTime":45.27174516666666,"instrument":1,"program":12},{"pitch":69,"velocity":95,"startTime":45.32609299999999,"endTime":45.43478866666666,"instrument":1,"program":12},{"pitch":74,"velocity":95,"startTime":45.489136499999994,"endTime":45.59783216666666,"instrument":1,"program":12},{"pitch":74,"velocity":95,"startTime":45.652179999999994,"endTime":45.760875666666664,"instrument":1,"program":12},{"pitch":69,"velocity":95,"startTime":45.815223499999995,"endTime":45.923919166666664,"instrument":1,"program":12},{"pitch":74,"velocity":95,"startTime":45.978266999999995,"endTime":46.086962666666665,"instrument":1,"program":12},{"pitch":69,"velocity":95,"startTime":46.141310499999996,"endTime":46.19565833333333,"instrument":1,"program":12},{"pitch":74,"velocity":95,"startTime":46.304354,"endTime":46.413049666666666,"instrument":1,"program":12},{"pitch":69,"velocity":95,"startTime":46.4673975,"endTime":46.52174533333333,"instrument":1,"program":12},{"pitch":74,"velocity":95,"startTime":46.630441,"endTime":46.73913666666666,"instrument":1,"program":12},{"pitch":69,"velocity":95,"startTime":46.7934845,"endTime":46.90218016666666,"instrument":1,"program":12},{"pitch":58,"velocity":95,"startTime":46.956528,"endTime":47.06522366666666,"instrument":1,"program":12},{"pitch":65,"velocity":95,"startTime":47.1195715,"endTime":47.22826716666666,"instrument":1,"program":12},{"pitch":67,"velocity":95,"startTime":47.282615,"endTime":47.39131066666666,"instrument":1,"program":12},{"pitch":65,"velocity":95,"startTime":47.44565849999999,"endTime":47.55435416666666,"instrument":1,"program":12},{"pitch":74,"velocity":95,"startTime":47.608701999999994,"endTime":47.71739766666666,"instrument":1,"program":12},{"pitch":67,"velocity":95,"startTime":47.771745499999994,"endTime":47.880441166666664,"instrument":1,"program":12},{"pitch":65,"velocity":95,"startTime":47.934788999999995,"endTime":48.043484666666664,"instrument":1,"program":12},{"pitch":67,"velocity":95,"startTime":48.097832499999996,"endTime":48.206528166666665,"instrument":1,"program":12},{"pitch":58,"velocity":95,"startTime":48.260875999999996,"endTime":48.369571666666666,"instrument":1,"program":12},{"pitch":67,"velocity":95,"startTime":48.4239195,"endTime":48.532615166666666,"instrument":1,"program":12},{"pitch":70,"velocity":95,"startTime":48.586963,"endTime":48.69565866666666,"instrument":1,"program":12},{"pitch":67,"velocity":95,"startTime":48.7500065,"endTime":48.85870216666666,"instrument":1,"program":12},{"pitch":58,"velocity":95,"startTime":48.91305,"endTime":49.02174566666666,"instrument":1,"program":12},{"pitch":67,"velocity":95,"startTime":49.0760935,"endTime":49.18478916666666,"instrument":1,"program":12},{"pitch":65,"velocity":95,"startTime":49.239137,"endTime":49.34783266666666,"instrument":1,"program":12},{"pitch":67,"velocity":95,"startTime":49.40218049999999,"endTime":49.51087616666666,"instrument":1,"program":12},{"pitch":62,"velocity":95,"startTime":49.56522399999999,"endTime":49.67391966666666,"instrument":1,"program":12},{"pitch":67,"velocity":95,"startTime":49.728267499999994,"endTime":49.83696316666666,"instrument":1,"program":12},{"pitch":70,"velocity":95,"startTime":49.891310999999995,"endTime":50.000006666666664,"instrument":1,"program":12},{"pitch":67,"velocity":95,"startTime":50.054354499999995,"endTime":50.163050166666665,"instrument":1,"program":12},{"pitch":70,"velocity":95,"startTime":50.217397999999996,"endTime":50.326093666666665,"instrument":1,"program":12},{"pitch":67,"velocity":95,"startTime":50.380441499999996,"endTime":50.489137166666666,"instrument":1,"program":12},{"pitch":70,"velocity":95,"startTime":50.543485,"endTime":50.652180666666666,"instrument":1,"program":12},{"pitch":67,"velocity":95,"startTime":50.7065285,"endTime":50.81522416666666,"instrument":1,"program":12},{"pitch":70,"velocity":95,"startTime":50.869572,"endTime":50.97826766666666,"instrument":1,"program":12},{"pitch":67,"velocity":95,"startTime":51.0326155,"endTime":51.14131116666666,"instrument":1,"program":12},{"pitch":70,"velocity":95,"startTime":51.195659,"endTime":51.30435466666666,"instrument":1,"program":12},{"pitch":70,"velocity":95,"startTime":51.35870249999999,"endTime":51.46739816666666,"instrument":1,"program":12},{"pitch":62,"velocity":95,"startTime":51.52174599999999,"endTime":51.63044166666666,"instrument":1,"program":12},{"pitch":67,"velocity":95,"startTime":51.684789499999994,"endTime":51.79348516666666,"instrument":1,"program":12},{"pitch":70,"velocity":95,"startTime":51.847832999999994,"endTime":51.956528666666664,"instrument":1,"program":12},{"pitch":67,"velocity":95,"startTime":52.010876499999995,"endTime":52.119572166666664,"instrument":1,"program":12},{"pitch":62,"velocity":95,"startTime":52.173919999999995,"endTime":52.282615666666665,"instrument":1,"program":12},{"pitch":69,"velocity":95,"startTime":52.336963499999996,"endTime":52.445659166666665,"instrument":1,"program":12},{"pitch":72,"velocity":95,"startTime":52.500007,"endTime":52.608702666666666,"instrument":1,"program":12},{"pitch":78,"velocity":95,"startTime":52.6630505,"endTime":52.77174616666666,"instrument":1,"program":12},{"pitch":69,"velocity":95,"startTime":52.826094,"endTime":52.93478966666666,"instrument":1,"program":12},{"pitch":72,"velocity":95,"startTime":52.9891375,"endTime":53.09783316666666,"instrument":1,"program":12},{"pitch":78,"velocity":95,"startTime":53.152181,"endTime":53.26087666666666,"instrument":1,"program":12},{"pitch":72,"velocity":95,"startTime":53.3152245,"endTime":53.42392016666666,"instrument":1,"program":12},{"pitch":62,"velocity":95,"startTime":53.47826799999999,"endTime":53.58696366666666,"instrument":1,"program":12},{"pitch":72,"velocity":95,"startTime":53.64131149999999,"endTime":53.75000716666666,"instrument":1,"program":12},{"pitch":78,"velocity":95,"startTime":53.804354999999994,"endTime":53.91305066666666,"instrument":1,"program":12},{"pitch":74,"velocity":95,"startTime":53.967398499999994,"endTime":54.02174633333333,"instrument":1,"program":12},{"pitch":78,"velocity":95,"startTime":54.130441999999995,"endTime":54.184789833333326,"instrument":1,"program":12},{"pitch":72,"velocity":95,"startTime":54.293485499999996,"endTime":54.34783333333333,"instrument":1,"program":12},{"pitch":69,"velocity":95,"startTime":54.456528999999996,"endTime":54.565224666666666,"instrument":1,"program":12},{"pitch":62,"velocity":95,"startTime":54.6195725,"endTime":54.72826816666666,"instrument":1,"program":12},{"pitch":62,"velocity":95,"startTime":54.782616,"endTime":54.89131166666666,"instrument":1,"program":12},{"pitch":72,"velocity":95,"startTime":54.9456595,"endTime":55.05435516666666,"instrument":1,"program":12},{"pitch":69,"velocity":95,"startTime":55.108703,"endTime":55.21739866666666,"instrument":1,"program":12},{"pitch":72,"velocity":95,"startTime":55.2717465,"endTime":55.38044216666666,"instrument":1,"program":12},{"pitch":62,"velocity":95,"startTime":55.43478999999999,"endTime":55.54348566666666,"instrument":1,"program":12},{"pitch":69,"velocity":95,"startTime":55.59783349999999,"endTime":55.70652916666666,"instrument":1,"program":12},{"pitch":72,"velocity":95,"startTime":55.760876999999994,"endTime":55.86957266666666,"instrument":1,"program":12},{"pitch":72,"velocity":95,"startTime":55.923920499999994,"endTime":55.97826833333333,"instrument":1,"program":12},{"pitch":69,"velocity":95,"startTime":56.086963999999995,"endTime":56.195659666666664,"instrument":1,"program":12},{"pitch":72,"velocity":95,"startTime":56.250007499999995,"endTime":56.358703166666665,"instrument":1,"program":12},{"pitch":78,"velocity":95,"startTime":56.413050999999996,"endTime":56.521746666666665,"instrument":1,"program":12},{"pitch":72,"velocity":95,"startTime":56.576094499999996,"endTime":56.684790166666666,"instrument":1,"program":12},{"pitch":78,"velocity":95,"startTime":56.739138,"endTime":56.84783366666666,"instrument":1,"program":12},{"pitch":69,"velocity":95,"startTime":56.9021815,"endTime":56.95652933333333,"instrument":1,"program":12},{"pitch":69,"velocity":95,"startTime":57.065225,"endTime":57.17392066666666,"instrument":1,"program":12},{"pitch":72,"velocity":95,"startTime":57.2282685,"endTime":57.33696416666666,"instrument":1,"program":12},{"pitch":58,"velocity":95,"startTime":57.391312,"endTime":57.55435549999999,"instrument":1,"program":12},{"pitch":67,"velocity":95,"startTime":57.55435549999999,"endTime":57.66305116666666,"instrument":1,"program":12},{"pitch":70,"velocity":95,"startTime":57.71739899999999,"endTime":57.82609466666666,"instrument":1,"program":12},{"pitch":76,"velocity":95,"startTime":57.880442499999994,"endTime":57.98913816666666,"instrument":1,"program":12},{"pitch":79,"velocity":95,"startTime":58.043485999999994,"endTime":58.152181666666664,"instrument":1,"program":12},{"pitch":70,"velocity":95,"startTime":58.206529499999995,"endTime":58.260877333333326,"instrument":1,"program":12},{"pitch":67,"velocity":95,"startTime":58.369572999999995,"endTime":58.478268666666665,"instrument":1,"program":12},{"pitch":76,"velocity":95,"startTime":58.532616499999996,"endTime":58.58696433333333,"instrument":1,"program":12},{"pitch":79,"velocity":95,"startTime":58.69566,"endTime":58.80435566666666,"instrument":1,"program":12},{"pitch":67,"velocity":95,"startTime":58.8587035,"endTime":58.91305133333333,"instrument":1,"program":12},{"pitch":70,"velocity":95,"startTime":59.021747,"endTime":59.13044266666666,"instrument":1,"program":12},{"pitch":76,"velocity":95,"startTime":59.1847905,"endTime":59.29348616666666,"instrument":1,"program":12},{"pitch":76,"velocity":95,"startTime":59.347834,"endTime":59.45652966666666,"instrument":1,"program":12},{"pitch":70,"velocity":95,"startTime":59.51087749999999,"endTime":59.56522533333333,"instrument":1,"program":12},{"pitch":67,"velocity":95,"startTime":59.67392099999999,"endTime":59.78261666666666,"instrument":1,"program":12},{"pitch":70,"velocity":95,"startTime":59.83696449999999,"endTime":59.94566016666666,"instrument":1,"program":12},{"pitch":62,"velocity":95,"startTime":60.000007999999994,"endTime":60.10870366666666,"instrument":1,"program":12},{"pitch":67,"velocity":95,"startTime":60.163051499999995,"endTime":60.271747166666664,"instrument":1,"program":12},{"pitch":70,"velocity":95,"startTime":60.326094999999995,"endTime":60.434790666666665,"instrument":1,"program":12},{"pitch":67,"velocity":95,"startTime":60.489138499999996,"endTime":60.597834166666665,"instrument":1,"program":12},{"pitch":74,"velocity":95,"startTime":60.652181999999996,"endTime":60.76087766666666,"instrument":1,"program":12},{"pitch":67,"velocity":95,"startTime":60.8152255,"endTime":60.86957333333333,"instrument":1,"program":12},{"pitch":70,"velocity":95,"startTime":60.978269,"endTime":61.08696466666666,"instrument":1,"program":12},{"pitch":67,"velocity":95,"startTime":61.1413125,"endTime":61.25000816666666,"instrument":1,"program":12},{"pitch":79,"velocity":95,"startTime":61.304356,"endTime":61.41305166666666,"instrument":1,"program":12},{"pitch":74,"velocity":95,"startTime":61.46739949999999,"endTime":61.57609516666666,"instrument":1,"program":12},{"pitch":70,"velocity":95,"startTime":61.63044299999999,"endTime":61.73913866666666,"instrument":1,"program":12},{"pitch":74,"velocity":95,"startTime":61.79348649999999,"endTime":61.90218216666666,"instrument":1,"program":12},{"pitch":62,"velocity":95,"startTime":61.956529999999994,"endTime":62.06522566666666,"instrument":1,"program":12},{"pitch":70,"velocity":95,"startTime":62.119573499999994,"endTime":62.228269166666664,"instrument":1,"program":12},{"pitch":62,"velocity":95,"startTime":62.282616999999995,"endTime":62.391312666666664,"instrument":1,"program":12},{"pitch":67,"velocity":95,"startTime":62.445660499999995,"endTime":62.554356166666665,"instrument":1,"program":12},{"pitch":38,"velocity":110,"startTime":41.739135999999995,"endTime":41.902179499999995,"instrument":2,"program":32},{"pitch":38,"velocity":110,"startTime":42.065222999999996,"endTime":42.2282665,"instrument":2,"program":32},{"pitch":38,"velocity":110,"startTime":42.39131,"endTime":42.5543535,"instrument":2,"program":32},{"pitch":45,"velocity":110,"startTime":42.717397,"endTime":42.8804405,"instrument":2,"program":32},{"pitch":45,"velocity":110,"startTime":43.043484,"endTime":43.2065275,"instrument":2,"program":32},{"pitch":45,"velocity":110,"startTime":43.36957099999999,"endTime":43.532614499999994,"instrument":2,"program":32},{"pitch":38,"velocity":110,"startTime":43.695657999999995,"endTime":43.858701499999995,"instrument":2,"program":32},{"pitch":50,"velocity":110,"startTime":44.021744999999996,"endTime":44.184788499999996,"instrument":2,"program":32},{"pitch":38,"velocity":110,"startTime":44.347832,"endTime":44.5108755,"instrument":2,"program":32},{"pitch":38,"velocity":110,"startTime":44.673919,"endTime":44.8369625,"instrument":2,"program":32},{"pitch":42,"velocity":110,"startTime":45.000006,"endTime":45.1630495,"instrument":2,"program":32},{"pitch":45,"velocity":110,"startTime":45.32609299999999,"endTime":45.489136499999994,"instrument":2,"program":32},{"pitch":45,"velocity":110,"startTime":45.652179999999994,"endTime":45.815223499999995,"instrument":2,"program":32},{"pitch":45,"velocity":110,"startTime":45.978266999999995,"endTime":46.141310499999996,"instrument":2,"program":32},{"pitch":38,"velocity":110,"startTime":46.304354,"endTime":46.4673975,"instrument":2,"program":32},{"pitch":50,"velocity":110,"startTime":46.630441,"endTime":46.7934845,"instrument":2,"program":32},{"pitch":34,"velocity":110,"startTime":46.956528,"endTime":47.1195715,"instrument":2,"program":32},{"pitch":34,"velocity":110,"startTime":47.282615,"endTime":47.44565849999999,"instrument":2,"program":32},{"pitch":38,"velocity":110,"startTime":47.608701999999994,"endTime":47.771745499999994,"instrument":2,"program":32},{"pitch":41,"velocity":110,"startTime":47.934788999999995,"endTime":48.097832499999996,"instrument":2,"program":32},{"pitch":34,"velocity":110,"startTime":48.260875999999996,"endTime":48.4239195,"instrument":2,"program":32},{"pitch":38,"velocity":110,"startTime":48.586963,"endTime":48.7500065,"instrument":2,"program":32},{"pitch":34,"velocity":110,"startTime":48.91305,"endTime":49.0760935,"instrument":2,"program":32},{"pitch":38,"velocity":110,"startTime":49.239137,"endTime":49.40218049999999,"instrument":2,"program":32},{"pitch":31,"velocity":110,"startTime":49.56522399999999,"endTime":49.67391966666666,"instrument":2,"program":32},{"pitch":38,"velocity":110,"startTime":49.891310999999995,"endTime":50.054354499999995,"instrument":2,"program":32},{"pitch":41,"velocity":110,"startTime":50.217397999999996,"endTime":50.380441499999996,"instrument":2,"program":32},{"pitch":38,"velocity":110,"startTime":50.543485,"endTime":50.7065285,"instrument":2,"program":32},{"pitch":34,"velocity":110,"startTime":50.869572,"endTime":51.0326155,"instrument":2,"program":32},{"pitch":38,"velocity":110,"startTime":51.195659,"endTime":51.35870249999999,"instrument":2,"program":32},{"pitch":38,"velocity":110,"startTime":51.52174599999999,"endTime":51.684789499999994,"instrument":2,"program":32},{"pitch":46,"velocity":110,"startTime":51.847832999999994,"endTime":52.010876499999995,"instrument":2,"program":32},{"pitch":38,"velocity":110,"startTime":52.173919999999995,"endTime":52.336963499999996,"instrument":2,"program":32},{"pitch":33,"velocity":110,"startTime":52.500007,"endTime":52.6630505,"instrument":2,"program":32},{"pitch":33,"velocity":110,"startTime":52.826094,"endTime":52.9891375,"instrument":2,"program":32},{"pitch":33,"velocity":110,"startTime":53.152181,"endTime":53.3152245,"instrument":2,"program":32},{"pitch":33,"velocity":110,"startTime":53.47826799999999,"endTime":53.64131149999999,"instrument":2,"program":32},{"pitch":33,"velocity":110,"startTime":53.804354999999994,"endTime":53.967398499999994,"instrument":2,"program":32},{"pitch":38,"velocity":110,"startTime":54.130441999999995,"endTime":54.293485499999996,"instrument":2,"program":32},{"pitch":33,"velocity":110,"startTime":54.456528999999996,"endTime":54.6195725,"instrument":2,"program":32},{"pitch":38,"velocity":110,"startTime":54.782616,"endTime":54.9456595,"instrument":2,"program":32},{"pitch":38,"velocity":110,"startTime":55.108703,"endTime":55.2717465,"instrument":2,"program":32},{"pitch":38,"velocity":110,"startTime":55.43478999999999,"endTime":55.59783349999999,"instrument":2,"program":32},{"pitch":38,"velocity":110,"startTime":55.760876999999994,"endTime":55.923920499999994,"instrument":2,"program":32},{"pitch":38,"velocity":110,"startTime":56.086963999999995,"endTime":56.250007499999995,"instrument":2,"program":32},{"pitch":33,"velocity":110,"startTime":56.413050999999996,"endTime":56.576094499999996,"instrument":2,"program":32},{"pitch":38,"velocity":110,"startTime":56.739138,"endTime":56.9021815,"instrument":2,"program":32},{"pitch":38,"velocity":110,"startTime":57.065225,"endTime":57.2282685,"instrument":2,"program":32},{"pitch":31,"velocity":110,"startTime":57.391312,"endTime":57.55435549999999,"instrument":2,"program":32},{"pitch":34,"velocity":110,"startTime":57.71739899999999,"endTime":57.880442499999994,"instrument":2,"program":32},{"pitch":38,"velocity":110,"startTime":58.043485999999994,"endTime":58.206529499999995,"instrument":2,"program":32},{"pitch":38,"velocity":110,"startTime":58.369572999999995,"endTime":58.532616499999996,"instrument":2,"program":32},{"pitch":31,"velocity":110,"startTime":58.69566,"endTime":58.8587035,"instrument":2,"program":32},{"pitch":31,"velocity":110,"startTime":59.021747,"endTime":59.1847905,"instrument":2,"program":32},{"pitch":38,"velocity":110,"startTime":59.347834,"endTime":59.51087749999999,"instrument":2,"program":32},{"pitch":31,"velocity":110,"startTime":59.67392099999999,"endTime":59.83696449999999,"instrument":2,"program":32},{"pitch":43,"velocity":110,"startTime":60.000007999999994,"endTime":60.163051499999995,"instrument":2,"program":32},{"pitch":43,"velocity":110,"startTime":60.326094999999995,"endTime":60.489138499999996,"instrument":2,"program":32},{"pitch":43,"velocity":110,"startTime":60.652181999999996,"endTime":60.8152255,"instrument":2,"program":32},{"pitch":38,"velocity":110,"startTime":60.978269,"endTime":61.1413125,"instrument":2,"program":32},{"pitch":34,"velocity":110,"startTime":61.304356,"endTime":61.46739949999999,"instrument":2,"program":32},{"pitch":38,"velocity":110,"startTime":61.63044299999999,"endTime":61.79348649999999,"instrument":2,"program":32},{"pitch":37,"velocity":110,"startTime":61.956529999999994,"endTime":62.119573499999994,"instrument":2,"program":32},{"pitch":38,"velocity":110,"startTime":62.282616999999995,"endTime":62.445660499999995,"instrument":2,"program":32},{"pitch":62,"velocity":105,"startTime":41.739135999999995,"endTime":44.347832,"instrument":3,"program":50},{"pitch":66,"velocity":105,"startTime":41.739135999999995,"endTime":44.347832,"instrument":3,"program":50},{"pitch":69,"velocity":105,"startTime":41.739135999999995,"endTime":44.347832,"instrument":3,"program":50},{"pitch":72,"velocity":105,"startTime":41.739135999999995,"endTime":44.347832,"instrument":3,"program":50},{"pitch":60,"velocity":105,"startTime":44.347832,"endTime":46.304354,"instrument":3,"program":50},{"pitch":62,"velocity":105,"startTime":44.347832,"endTime":46.304354,"instrument":3,"program":50},{"pitch":66,"velocity":105,"startTime":44.347832,"endTime":46.304354,"instrument":3,"program":50},{"pitch":69,"velocity":105,"startTime":44.347832,"endTime":46.304354,"instrument":3,"program":50},{"pitch":58,"velocity":105,"startTime":46.304354,"endTime":46.956528,"instrument":3,"program":50},{"pitch":62,"velocity":105,"startTime":46.304354,"endTime":46.956528,"instrument":3,"program":50},{"pitch":66,"velocity":105,"startTime":46.304354,"endTime":46.956528,"instrument":3,"program":50},{"pitch":70,"velocity":105,"startTime":46.304354,"endTime":46.956528,"instrument":3,"program":50},{"pitch":62,"velocity":105,"startTime":46.956528,"endTime":49.56522399999999,"instrument":3,"program":50},{"pitch":67,"velocity":105,"startTime":46.956528,"endTime":49.56522399999999,"instrument":3,"program":50},{"pitch":74,"velocity":105,"startTime":46.956528,"endTime":49.56522399999999,"instrument":3,"program":50},{"pitch":62,"velocity":105,"startTime":49.56522399999999,"endTime":52.173919999999995,"instrument":3,"program":50},{"pitch":67,"velocity":105,"startTime":49.56522399999999,"endTime":52.173919999999995,"instrument":3,"program":50},{"pitch":74,"velocity":105,"startTime":49.56522399999999,"endTime":52.173919999999995,"instrument":3,"program":50},{"pitch":77,"velocity":105,"startTime":49.56522399999999,"endTime":52.173919999999995,"instrument":3,"program":50},{"pitch":60,"velocity":105,"startTime":52.173919999999995,"endTime":54.51087683333333,"instrument":3,"program":50},{"pitch":66,"velocity":105,"startTime":52.173919999999995,"endTime":54.456528999999996,"instrument":3,"program":50},{"pitch":69,"velocity":105,"startTime":52.173919999999995,"endTime":54.456528999999996,"instrument":3,"program":50},{"pitch":78,"velocity":105,"startTime":52.173919999999995,"endTime":54.51087683333333,"instrument":3,"program":50},{"pitch":62,"velocity":105,"startTime":52.6630505,"endTime":54.456528999999996,"instrument":3,"program":50},{"pitch":66,"velocity":105,"startTime":54.782616,"endTime":57.391312,"instrument":3,"program":50},{"pitch":69,"velocity":105,"startTime":54.782616,"endTime":57.391312,"instrument":3,"program":50},{"pitch":74,"velocity":105,"startTime":54.782616,"endTime":57.391312,"instrument":3,"program":50},{"pitch":76,"velocity":105,"startTime":54.782616,"endTime":57.391312,"instrument":3,"program":50},{"pitch":62,"velocity":105,"startTime":57.391312,"endTime":60.000007999999994,"instrument":3,"program":50},{"pitch":65,"velocity":105,"startTime":57.391312,"endTime":60.000007999999994,"instrument":3,"program":50},{"pitch":70,"velocity":105,"startTime":57.391312,"endTime":60.000007999999994,"instrument":3,"program":50},{"pitch":67,"velocity":105,"startTime":57.50000766666666,"endTime":60.000007999999994,"instrument":3,"program":50},{"pitch":58,"velocity":105,"startTime":60.000007999999994,"endTime":62.608703999999996,"instrument":3,"program":50},{"pitch":65,"velocity":105,"startTime":60.000007999999994,"endTime":62.608703999999996,"instrument":3,"program":50},{"pitch":67,"velocity":105,"startTime":60.000007999999994,"endTime":62.608703999999996,"instrument":3,"program":50},{"pitch":74,"velocity":105,"startTime":60.000007999999994,"endTime":62.608703999999996,"instrument":3,"program":50},{"pitch":35,"velocity":102,"startTime":62.608703999999996,"endTime":62.717399666666665,"isDrum":true},{"pitch":42,"velocity":102,"startTime":62.608703999999996,"endTime":62.717399666666665,"isDrum":true},{"pitch":51,"velocity":102,"startTime":62.608703999999996,"endTime":62.717399666666665,"isDrum":true},{"pitch":42,"velocity":102,"startTime":62.934791,"endTime":63.04348666666666,"isDrum":true},{"pitch":51,"velocity":102,"startTime":62.934791,"endTime":63.04348666666666,"isDrum":true},{"pitch":38,"velocity":102,"startTime":63.260878,"endTime":63.36957366666666,"isDrum":true},{"pitch":40,"velocity":102,"startTime":63.260878,"endTime":63.36957366666666,"isDrum":true},{"pitch":42,"velocity":102,"startTime":63.260878,"endTime":63.36957366666666,"isDrum":true},{"pitch":42,"velocity":102,"startTime":63.58696499999999,"endTime":63.69566066666666,"isDrum":true},{"pitch":51,"velocity":102,"startTime":63.58696499999999,"endTime":63.69566066666666,"isDrum":true},{"pitch":35,"velocity":102,"startTime":63.75000849999999,"endTime":63.85870416666666,"isDrum":true},{"pitch":35,"velocity":102,"startTime":63.91305199999999,"endTime":64.02174766666666,"isDrum":true},{"pitch":42,"velocity":102,"startTime":63.91305199999999,"endTime":64.02174766666666,"isDrum":true},{"pitch":42,"velocity":102,"startTime":64.0760955,"endTime":64.18479116666666,"isDrum":true},{"pitch":35,"velocity":102,"startTime":64.239139,"endTime":64.34783466666666,"isDrum":true},{"pitch":42,"velocity":102,"startTime":64.239139,"endTime":64.34783466666666,"isDrum":true},{"pitch":51,"velocity":102,"startTime":64.239139,"endTime":64.34783466666666,"isDrum":true},{"pitch":40,"velocity":102,"startTime":64.4021825,"endTime":64.51087816666666,"isDrum":true},{"pitch":38,"velocity":102,"startTime":64.565226,"endTime":64.67392166666666,"isDrum":true},{"pitch":42,"velocity":102,"startTime":64.565226,"endTime":64.67392166666666,"isDrum":true},{"pitch":40,"velocity":102,"startTime":64.7282695,"endTime":64.83696516666666,"isDrum":true},{"pitch":35,"velocity":102,"startTime":64.891313,"endTime":65.00000866666666,"isDrum":true},{"pitch":42,"velocity":102,"startTime":64.891313,"endTime":65.00000866666666,"isDrum":true},{"pitch":35,"velocity":102,"startTime":65.0543565,"endTime":65.16305216666666,"isDrum":true},{"pitch":35,"velocity":102,"startTime":65.2174,"endTime":65.32609566666666,"isDrum":true},{"pitch":42,"velocity":102,"startTime":65.2174,"endTime":65.32609566666666,"isDrum":true},{"pitch":40,"velocity":102,"startTime":65.3804435,"endTime":65.48913916666666,"isDrum":true},{"pitch":42,"velocity":102,"startTime":65.543487,"endTime":65.65218266666666,"isDrum":true},{"pitch":35,"velocity":102,"startTime":65.7065305,"endTime":65.81522616666666,"isDrum":true},{"pitch":38,"velocity":102,"startTime":65.869574,"endTime":65.97826966666666,"isDrum":true},{"pitch":40,"velocity":102,"startTime":65.869574,"endTime":65.97826966666666,"isDrum":true},{"pitch":42,"velocity":102,"startTime":65.869574,"endTime":65.97826966666666,"isDrum":true},{"pitch":42,"velocity":102,"startTime":66.195661,"endTime":66.30435666666666,"isDrum":true},{"pitch":40,"velocity":102,"startTime":66.3587045,"endTime":66.46740016666666,"isDrum":true},{"pitch":35,"velocity":102,"startTime":66.52174799999999,"endTime":66.63044366666666,"isDrum":true},{"pitch":42,"velocity":102,"startTime":66.52174799999999,"endTime":66.63044366666666,"isDrum":true},{"pitch":40,"velocity":102,"startTime":66.68479149999999,"endTime":66.79348716666667,"isDrum":true},{"pitch":35,"velocity":102,"startTime":66.84783499999999,"endTime":66.95653066666667,"isDrum":true},{"pitch":42,"velocity":102,"startTime":66.84783499999999,"endTime":66.95653066666667,"isDrum":true},{"pitch":38,"velocity":102,"startTime":67.17392199999999,"endTime":67.28261766666667,"isDrum":true},{"pitch":40,"velocity":102,"startTime":67.17392199999999,"endTime":67.28261766666667,"isDrum":true},{"pitch":42,"velocity":102,"startTime":67.17392199999999,"endTime":67.28261766666667,"isDrum":true},{"pitch":42,"velocity":102,"startTime":67.50000899999999,"endTime":67.60870466666667,"isDrum":true},{"pitch":35,"velocity":102,"startTime":67.82609599999999,"endTime":67.93479166666665,"isDrum":true},{"pitch":42,"velocity":102,"startTime":67.82609599999999,"endTime":67.93479166666665,"isDrum":true},{"pitch":42,"velocity":102,"startTime":68.152183,"endTime":68.26087866666666,"isDrum":true},{"pitch":38,"velocity":102,"startTime":68.47827,"endTime":68.58696566666666,"isDrum":true},{"pitch":40,"velocity":102,"startTime":68.47827,"endTime":68.58696566666666,"isDrum":true},{"pitch":42,"velocity":102,"startTime":68.47827,"endTime":68.58696566666666,"isDrum":true},{"pitch":42,"velocity":102,"startTime":68.804357,"endTime":68.91305266666666,"isDrum":true},{"pitch":35,"velocity":102,"startTime":68.9674005,"endTime":69.07609616666666,"isDrum":true},{"pitch":35,"velocity":102,"startTime":69.130444,"endTime":69.23913966666666,"isDrum":true},{"pitch":42,"velocity":102,"startTime":69.130444,"endTime":69.23913966666666,"isDrum":true},{"pitch":40,"velocity":102,"startTime":69.2934875,"endTime":69.40218316666666,"isDrum":true},{"pitch":35,"velocity":102,"startTime":69.456531,"endTime":69.56522666666666,"isDrum":true},{"pitch":42,"velocity":102,"startTime":69.456531,"endTime":69.56522666666666,"isDrum":true},{"pitch":35,"velocity":102,"startTime":69.6195745,"endTime":69.72827016666666,"isDrum":true},{"pitch":40,"velocity":102,"startTime":69.782618,"endTime":69.89131366666666,"isDrum":true},{"pitch":42,"velocity":102,"startTime":69.782618,"endTime":69.89131366666666,"isDrum":true},{"pitch":35,"velocity":102,"startTime":70.108705,"endTime":70.21740066666666,"isDrum":true},{"pitch":42,"velocity":102,"startTime":70.108705,"endTime":70.21740066666666,"isDrum":true},{"pitch":40,"velocity":102,"startTime":70.2717485,"endTime":70.38044416666666,"isDrum":true},{"pitch":35,"velocity":102,"startTime":70.434792,"endTime":70.54348766666666,"isDrum":true},{"pitch":42,"velocity":102,"startTime":70.434792,"endTime":70.54348766666666,"isDrum":true},{"pitch":42,"velocity":102,"startTime":70.76087899999999,"endTime":70.86957466666667,"isDrum":true},{"pitch":38,"velocity":102,"startTime":71.08696599999999,"endTime":71.19566166666667,"isDrum":true},{"pitch":40,"velocity":102,"startTime":71.08696599999999,"endTime":71.19566166666667,"isDrum":true},{"pitch":42,"velocity":102,"startTime":71.08696599999999,"endTime":71.19566166666667,"isDrum":true},{"pitch":42,"velocity":102,"startTime":71.41305299999999,"endTime":71.52174866666667,"isDrum":true},{"pitch":35,"velocity":102,"startTime":71.57609649999999,"endTime":71.68479216666667,"isDrum":true},{"pitch":35,"velocity":102,"startTime":71.73913999999999,"endTime":71.84783566666665,"isDrum":true},{"pitch":42,"velocity":102,"startTime":71.73913999999999,"endTime":71.84783566666665,"isDrum":true},{"pitch":38,"velocity":102,"startTime":71.90218349999999,"endTime":72.01087916666665,"isDrum":true},{"pitch":35,"velocity":102,"startTime":72.065227,"endTime":72.17392266666666,"isDrum":true},{"pitch":42,"velocity":102,"startTime":72.065227,"endTime":72.17392266666666,"isDrum":true},{"pitch":38,"velocity":102,"startTime":72.391314,"endTime":72.50000966666666,"isDrum":true},{"pitch":42,"velocity":102,"startTime":72.391314,"endTime":72.50000966666666,"isDrum":true},{"pitch":35,"velocity":102,"startTime":72.717401,"endTime":72.82609666666666,"isDrum":true},{"pitch":42,"velocity":102,"startTime":72.717401,"endTime":72.82609666666666,"isDrum":true},{"pitch":40,"velocity":102,"startTime":72.8804445,"endTime":72.98914016666666,"isDrum":true},{"pitch":35,"velocity":102,"startTime":73.043488,"endTime":73.15218366666666,"isDrum":true},{"pitch":42,"velocity":102,"startTime":73.043488,"endTime":73.15218366666666,"isDrum":true},{"pitch":42,"velocity":102,"startTime":73.369575,"endTime":73.47827066666666,"isDrum":true},{"pitch":38,"velocity":102,"startTime":73.695662,"endTime":73.80435766666666,"isDrum":true},{"pitch":42,"velocity":102,"startTime":73.695662,"endTime":73.80435766666666,"isDrum":true},{"pitch":35,"velocity":102,"startTime":74.021749,"endTime":74.13044466666666,"isDrum":true},{"pitch":42,"velocity":102,"startTime":74.021749,"endTime":74.13044466666666,"isDrum":true},{"pitch":40,"velocity":102,"startTime":74.1847925,"endTime":74.29348816666666,"isDrum":true},{"pitch":42,"velocity":102,"startTime":74.347836,"endTime":74.45653166666666,"isDrum":true},{"pitch":35,"velocity":102,"startTime":74.5108795,"endTime":74.61957516666666,"isDrum":true},{"pitch":42,"velocity":102,"startTime":74.67392299999999,"endTime":74.78261866666666,"isDrum":true},{"pitch":35,"velocity":102,"startTime":74.83696649999999,"endTime":74.94566216666666,"isDrum":true},{"pitch":38,"velocity":102,"startTime":75.00000999999999,"endTime":75.10870566666667,"isDrum":true},{"pitch":40,"velocity":102,"startTime":75.00000999999999,"endTime":75.10870566666667,"isDrum":true},{"pitch":42,"velocity":102,"startTime":75.00000999999999,"endTime":75.10870566666667,"isDrum":true},{"pitch":40,"velocity":102,"startTime":75.16305349999999,"endTime":75.27174916666667,"isDrum":true},{"pitch":42,"velocity":102,"startTime":75.32609699999999,"endTime":75.43479266666667,"isDrum":true},{"pitch":40,"velocity":102,"startTime":75.48914049999999,"endTime":75.59783616666667,"isDrum":true},{"pitch":35,"velocity":102,"startTime":75.65218399999999,"endTime":75.76087966666667,"isDrum":true},{"pitch":42,"velocity":102,"startTime":75.65218399999999,"endTime":75.76087966666667,"isDrum":true},{"pitch":42,"velocity":102,"startTime":75.97827099999999,"endTime":76.08696666666665,"isDrum":true},{"pitch":38,"velocity":102,"startTime":76.304358,"endTime":76.41305366666666,"isDrum":true},{"pitch":42,"velocity":102,"startTime":76.304358,"endTime":76.41305366666666,"isDrum":true},{"pitch":35,"velocity":102,"startTime":76.630445,"endTime":76.73914066666666,"isDrum":true},{"pitch":42,"velocity":102,"startTime":76.630445,"endTime":76.73914066666666,"isDrum":true},{"pitch":35,"velocity":102,"startTime":76.956532,"endTime":77.06522766666666,"isDrum":true},{"pitch":42,"velocity":102,"startTime":76.956532,"endTime":77.06522766666666,"isDrum":true},{"pitch":35,"velocity":102,"startTime":77.282619,"endTime":77.39131466666666,"isDrum":true},{"pitch":42,"velocity":102,"startTime":77.282619,"endTime":77.39131466666666,"isDrum":true},{"pitch":38,"velocity":102,"startTime":77.608706,"endTime":77.71740166666666,"isDrum":true},{"pitch":42,"velocity":102,"startTime":77.608706,"endTime":77.71740166666666,"isDrum":true},{"pitch":42,"velocity":102,"startTime":77.934793,"endTime":78.04348866666666,"isDrum":true},{"pitch":35,"velocity":102,"startTime":78.26088,"endTime":78.36957566666666,"isDrum":true},{"pitch":42,"velocity":102,"startTime":78.26088,"endTime":78.36957566666666,"isDrum":true},{"pitch":40,"velocity":102,"startTime":78.4239235,"endTime":78.53261916666666,"isDrum":true},{"pitch":42,"velocity":102,"startTime":78.58696699999999,"endTime":78.69566266666666,"isDrum":true},{"pitch":35,"velocity":102,"startTime":78.75001049999999,"endTime":78.85870616666666,"isDrum":true},{"pitch":38,"velocity":102,"startTime":78.91305399999999,"endTime":79.02174966666666,"isDrum":true},{"pitch":40,"velocity":102,"startTime":78.91305399999999,"endTime":79.02174966666666,"isDrum":true},{"pitch":42,"velocity":102,"startTime":78.91305399999999,"endTime":79.02174966666666,"isDrum":true},{"pitch":40,"velocity":102,"startTime":79.07609749999999,"endTime":79.18479316666667,"isDrum":true},{"pitch":42,"velocity":102,"startTime":79.23914099999999,"endTime":79.34783666666667,"isDrum":true},{"pitch":40,"velocity":102,"startTime":79.40218449999999,"endTime":79.51088016666667,"isDrum":true},{"pitch":42,"velocity":102,"startTime":79.56522799999999,"endTime":79.67392366666667,"isDrum":true},{"pitch":40,"velocity":102,"startTime":79.72827149999999,"endTime":79.83696716666667,"isDrum":true},{"pitch":35,"velocity":102,"startTime":79.89131499999999,"endTime":80.00001066666665,"isDrum":true},{"pitch":42,"velocity":102,"startTime":79.89131499999999,"endTime":80.00001066666665,"isDrum":true},{"pitch":40,"velocity":102,"startTime":80.05435849999999,"endTime":80.16305416666665,"isDrum":true},{"pitch":38,"velocity":102,"startTime":80.21740199999999,"endTime":80.32609766666666,"isDrum":true},{"pitch":42,"velocity":102,"startTime":80.21740199999999,"endTime":80.32609766666666,"isDrum":true},{"pitch":40,"velocity":102,"startTime":80.3804455,"endTime":80.48914116666666,"isDrum":true},{"pitch":42,"velocity":102,"startTime":80.543489,"endTime":80.65218466666666,"isDrum":true},{"pitch":40,"velocity":102,"startTime":80.7065325,"endTime":80.81522816666666,"isDrum":true},{"pitch":35,"velocity":102,"startTime":80.869576,"endTime":80.97827166666666,"isDrum":true},{"pitch":42,"velocity":102,"startTime":80.869576,"endTime":80.97827166666666,"isDrum":true},{"pitch":40,"velocity":102,"startTime":81.0326195,"endTime":81.14131516666666,"isDrum":true},{"pitch":42,"velocity":102,"startTime":81.195663,"endTime":81.30435866666666,"isDrum":true},{"pitch":35,"velocity":102,"startTime":81.3587065,"endTime":81.46740216666666,"isDrum":true},{"pitch":40,"velocity":102,"startTime":81.52175,"endTime":81.63044566666666,"isDrum":true},{"pitch":42,"velocity":102,"startTime":81.52175,"endTime":81.63044566666666,"isDrum":true},{"pitch":35,"velocity":102,"startTime":81.6847935,"endTime":81.79348916666666,"isDrum":true},{"pitch":46,"velocity":102,"startTime":81.847837,"endTime":81.95653266666666,"isDrum":true},{"pitch":67,"velocity":95,"startTime":62.7717475,"endTime":62.88044316666666,"instrument":1,"program":12},{"pitch":67,"velocity":95,"startTime":62.934791,"endTime":63.04348666666666,"instrument":1,"program":12},{"pitch":60,"velocity":95,"startTime":63.0978345,"endTime":63.20653016666666,"instrument":1,"program":12},{"pitch":67,"velocity":95,"startTime":63.260878,"endTime":63.36957366666666,"instrument":1,"program":12},{"pitch":67,"velocity":95,"startTime":63.4239215,"endTime":63.53261716666666,"instrument":1,"program":12},{"pitch":63,"velocity":95,"startTime":63.58696499999999,"endTime":63.69566066666666,"instrument":1,"program":12},{"pitch":60,"velocity":95,"startTime":63.75000849999999,"endTime":63.85870416666666,"instrument":1,"program":12},{"pitch":63,"velocity":95,"startTime":64.0760955,"endTime":64.18479116666666,"instrument":1,"program":12},{"pitch":67,"velocity":95,"startTime":64.239139,"endTime":64.34783466666666,"instrument":1,"program":12},{"pitch":60,"velocity":95,"startTime":64.4021825,"endTime":64.51087816666666,"instrument":1,"program":12},{"pitch":63,"velocity":95,"startTime":64.565226,"endTime":64.67392166666666,"instrument":1,"program":12},{"pitch":67,"velocity":95,"startTime":64.7282695,"endTime":64.83696516666666,"instrument":1,"program":12},{"pitch":72,"velocity":95,"startTime":64.891313,"endTime":65.00000866666666,"instrument":1,"program":12},{"pitch":67,"velocity":95,"startTime":65.0543565,"endTime":65.16305216666666,"instrument":1,"program":12},{"pitch":70,"velocity":95,"startTime":65.2174,"endTime":65.32609566666666,"instrument":1,"program":12},{"pitch":70,"velocity":95,"startTime":65.3804435,"endTime":65.48913916666666,"instrument":1,"program":12},{"pitch":72,"velocity":95,"startTime":65.543487,"endTime":65.65218266666666,"instrument":1,"program":12},{"pitch":70,"velocity":95,"startTime":65.7065305,"endTime":65.81522616666666,"instrument":1,"program":12},{"pitch":72,"velocity":95,"startTime":65.869574,"endTime":65.97826966666666,"instrument":1,"program":12},{"pitch":70,"velocity":95,"startTime":66.195661,"endTime":66.30435666666666,"instrument":1,"program":12},{"pitch":72,"velocity":95,"startTime":66.3587045,"endTime":66.46740016666666,"instrument":1,"program":12},{"pitch":75,"velocity":95,"startTime":66.52174799999999,"endTime":66.63044366666666,"instrument":1,"program":12},{"pitch":70,"velocity":95,"startTime":66.68479149999999,"endTime":66.79348716666667,"instrument":1,"program":12},{"pitch":70,"velocity":95,"startTime":66.84783499999999,"endTime":66.95653066666667,"instrument":1,"program":12},{"pitch":72,"velocity":95,"startTime":67.01087849999999,"endTime":67.11957416666667,"instrument":1,"program":12},{"pitch":75,"velocity":95,"startTime":67.17392199999999,"endTime":67.28261766666667,"instrument":1,"program":12},{"pitch":70,"velocity":95,"startTime":67.33696549999999,"endTime":67.39131333333333,"instrument":1,"program":12},{"pitch":72,"velocity":95,"startTime":67.50000899999999,"endTime":67.60870466666667,"instrument":1,"program":12},{"pitch":70,"velocity":95,"startTime":67.66305249999999,"endTime":67.77174816666667,"instrument":1,"program":12},{"pitch":67,"velocity":95,"startTime":67.82609599999999,"endTime":67.9891395,"instrument":1,"program":12},{"pitch":67,"velocity":95,"startTime":67.9891395,"endTime":68.09783516666666,"instrument":1,"program":12},{"pitch":70,"velocity":95,"startTime":68.152183,"endTime":68.26087866666666,"instrument":1,"program":12},{"pitch":67,"velocity":95,"startTime":68.3152265,"endTime":68.42392216666666,"instrument":1,"program":12},{"pitch":70,"velocity":95,"startTime":68.47827,"endTime":68.58696566666666,"instrument":1,"program":12},{"pitch":67,"velocity":95,"startTime":68.6413135,"endTime":68.75000916666666,"instrument":1,"program":12},{"pitch":70,"velocity":95,"startTime":68.804357,"endTime":68.91305266666666,"instrument":1,"program":12},{"pitch":67,"velocity":95,"startTime":68.9674005,"endTime":69.07609616666666,"instrument":1,"program":12},{"pitch":70,"velocity":95,"startTime":69.130444,"endTime":69.23913966666666,"instrument":1,"program":12},{"pitch":67,"velocity":95,"startTime":69.2934875,"endTime":69.40218316666666,"instrument":1,"program":12},{"pitch":70,"velocity":95,"startTime":69.456531,"endTime":69.56522666666666,"instrument":1,"program":12},{"pitch":67,"velocity":95,"startTime":69.6195745,"endTime":69.782618,"instrument":1,"program":12},{"pitch":70,"velocity":95,"startTime":69.782618,"endTime":69.89131366666666,"instrument":1,"program":12},{"pitch":67,"velocity":95,"startTime":69.9456615,"endTime":70.05435716666666,"instrument":1,"program":12},{"pitch":70,"velocity":95,"startTime":70.108705,"endTime":70.21740066666666,"instrument":1,"program":12},{"pitch":67,"velocity":95,"startTime":70.2717485,"endTime":70.38044416666666,"instrument":1,"program":12},{"pitch":70,"velocity":95,"startTime":70.434792,"endTime":70.54348766666666,"instrument":1,"program":12},{"pitch":67,"velocity":95,"startTime":70.59783549999999,"endTime":70.70653116666666,"instrument":1,"program":12},{"pitch":70,"velocity":95,"startTime":70.76087899999999,"endTime":70.86957466666667,"instrument":1,"program":12},{"pitch":67,"velocity":95,"startTime":70.92392249999999,"endTime":71.03261816666667,"instrument":1,"program":12},{"pitch":70,"velocity":95,"startTime":71.08696599999999,"endTime":71.19566166666667,"instrument":1,"program":12},{"pitch":70,"velocity":95,"startTime":71.25000949999999,"endTime":71.35870516666667,"instrument":1,"program":12},{"pitch":67,"velocity":95,"startTime":71.41305299999999,"endTime":71.52174866666667,"instrument":1,"program":12},{"pitch":70,"velocity":95,"startTime":71.57609649999999,"endTime":71.68479216666667,"instrument":1,"program":12},{"pitch":67,"velocity":95,"startTime":71.73913999999999,"endTime":71.84783566666665,"instrument":1,"program":12},{"pitch":70,"velocity":95,"startTime":71.90218349999999,"endTime":72.01087916666665,"instrument":1,"program":12},{"pitch":67,"velocity":95,"startTime":72.065227,"endTime":72.17392266666666,"instrument":1,"program":12},{"pitch":70,"velocity":95,"startTime":72.2282705,"endTime":72.33696616666666,"instrument":1,"program":12},{"pitch":67,"velocity":95,"startTime":72.391314,"endTime":72.50000966666666,"instrument":1,"program":12},{"pitch":70,"velocity":95,"startTime":72.5543575,"endTime":72.66305316666666,"instrument":1,"program":12},{"pitch":67,"velocity":95,"startTime":72.717401,"endTime":72.82609666666666,"instrument":1,"program":12},{"pitch":70,"velocity":95,"startTime":72.8804445,"endTime":72.98914016666666,"instrument":1,"program":12},{"pitch":69,"velocity":95,"startTime":73.043488,"endTime":73.15218366666666,"instrument":1,"program":12},{"pitch":72,"velocity":95,"startTime":73.2065315,"endTime":73.31522716666666,"instrument":1,"program":12},{"pitch":74,"velocity":95,"startTime":73.369575,"endTime":73.47827066666666,"instrument":1,"program":12},{"pitch":69,"velocity":95,"startTime":73.5326185,"endTime":73.64131416666666,"instrument":1,"program":12},{"pitch":74,"velocity":95,"startTime":73.695662,"endTime":73.80435766666666,"instrument":1,"program":12},{"pitch":74,"velocity":95,"startTime":73.8587055,"endTime":73.96740116666666,"instrument":1,"program":12},{"pitch":69,"velocity":95,"startTime":74.021749,"endTime":74.13044466666666,"instrument":1,"program":12},{"pitch":74,"velocity":95,"startTime":74.1847925,"endTime":74.29348816666666,"instrument":1,"program":12},{"pitch":69,"velocity":95,"startTime":74.347836,"endTime":74.45653166666666,"instrument":1,"program":12},{"pitch":74,"velocity":95,"startTime":74.5108795,"endTime":74.61957516666666,"instrument":1,"program":12},{"pitch":69,"velocity":95,"startTime":74.67392299999999,"endTime":74.78261866666666,"instrument":1,"program":12},{"pitch":74,"velocity":95,"startTime":74.83696649999999,"endTime":74.94566216666666,"instrument":1,"program":12},{"pitch":74,"velocity":95,"startTime":75.00000999999999,"endTime":75.10870566666667,"instrument":1,"program":12},{"pitch":69,"velocity":95,"startTime":75.16305349999999,"endTime":75.27174916666667,"instrument":1,"program":12},{"pitch":74,"velocity":95,"startTime":75.32609699999999,"endTime":75.43479266666667,"instrument":1,"program":12},{"pitch":69,"velocity":95,"startTime":75.48914049999999,"endTime":75.59783616666667,"instrument":1,"program":12},{"pitch":74,"velocity":95,"startTime":75.65218399999999,"endTime":75.76087966666667,"instrument":1,"program":12},{"pitch":69,"velocity":95,"startTime":75.81522749999999,"endTime":75.92392316666665,"instrument":1,"program":12},{"pitch":72,"velocity":95,"startTime":75.97827099999999,"endTime":76.08696666666665,"instrument":1,"program":12},{"pitch":74,"velocity":95,"startTime":76.1413145,"endTime":76.25001016666666,"instrument":1,"program":12},{"pitch":69,"velocity":95,"startTime":76.304358,"endTime":76.41305366666666,"instrument":1,"program":12},{"pitch":74,"velocity":95,"startTime":76.4674015,"endTime":76.57609716666666,"instrument":1,"program":12},{"pitch":69,"velocity":95,"startTime":76.630445,"endTime":76.73914066666666,"instrument":1,"program":12},{"pitch":74,"velocity":95,"startTime":76.7934885,"endTime":76.90218416666666,"instrument":1,"program":12},{"pitch":74,"velocity":95,"startTime":76.956532,"endTime":77.06522766666666,"instrument":1,"program":12},{"pitch":69,"velocity":95,"startTime":77.1195755,"endTime":77.22827116666666,"instrument":1,"program":12},{"pitch":72,"velocity":95,"startTime":77.282619,"endTime":77.39131466666666,"instrument":1,"program":12},{"pitch":74,"velocity":95,"startTime":77.4456625,"endTime":77.55435816666666,"instrument":1,"program":12},{"pitch":74,"velocity":95,"startTime":77.608706,"endTime":77.71740166666666,"instrument":1,"program":12},{"pitch":69,"velocity":95,"startTime":77.7717495,"endTime":77.88044516666666,"instrument":1,"program":12},{"pitch":72,"velocity":95,"startTime":77.934793,"endTime":78.04348866666666,"instrument":1,"program":12},{"pitch":69,"velocity":95,"startTime":78.0978365,"endTime":78.20653216666666,"instrument":1,"program":12},{"pitch":67,"velocity":95,"startTime":78.26088,"endTime":78.36957566666666,"instrument":1,"program":12},{"pitch":67,"velocity":95,"startTime":78.4239235,"endTime":78.53261916666666,"instrument":1,"program":12},{"pitch":70,"velocity":95,"startTime":78.58696699999999,"endTime":78.69566266666666,"instrument":1,"program":12},{"pitch":67,"velocity":95,"startTime":78.75001049999999,"endTime":78.85870616666666,"instrument":1,"program":12},{"pitch":70,"velocity":95,"startTime":78.91305399999999,"endTime":79.02174966666666,"instrument":1,"program":12},{"pitch":67,"velocity":95,"startTime":79.07609749999999,"endTime":79.18479316666667,"instrument":1,"program":12},{"pitch":70,"velocity":95,"startTime":79.23914099999999,"endTime":79.34783666666667,"instrument":1,"program":12},{"pitch":67,"velocity":95,"startTime":79.40218449999999,"endTime":79.51088016666667,"instrument":1,"program":12},{"pitch":70,"velocity":95,"startTime":79.56522799999999,"endTime":79.67392366666667,"instrument":1,"program":12},{"pitch":67,"velocity":95,"startTime":79.72827149999999,"endTime":79.83696716666667,"instrument":1,"program":12},{"pitch":70,"velocity":95,"startTime":79.89131499999999,"endTime":80.00001066666665,"instrument":1,"program":12},{"pitch":67,"velocity":95,"startTime":80.05435849999999,"endTime":80.16305416666665,"instrument":1,"program":12},{"pitch":70,"velocity":95,"startTime":80.21740199999999,"endTime":80.32609766666666,"instrument":1,"program":12},{"pitch":70,"velocity":95,"startTime":80.3804455,"endTime":80.48914116666666,"instrument":1,"program":12},{"pitch":67,"velocity":95,"startTime":80.543489,"endTime":80.65218466666666,"instrument":1,"program":12},{"pitch":70,"velocity":95,"startTime":80.7065325,"endTime":80.81522816666666,"instrument":1,"program":12},{"pitch":66,"velocity":95,"startTime":80.869576,"endTime":80.97827166666666,"instrument":1,"program":12},{"pitch":69,"velocity":95,"startTime":81.0326195,"endTime":81.14131516666666,"instrument":1,"program":12},{"pitch":72,"velocity":95,"startTime":81.195663,"endTime":81.30435866666666,"instrument":1,"program":12},{"pitch":69,"velocity":95,"startTime":81.3587065,"endTime":81.46740216666666,"instrument":1,"program":12},{"pitch":81,"velocity":95,"startTime":81.52175,"endTime":81.63044566666666,"instrument":1,"program":12},{"pitch":69,"velocity":95,"startTime":81.6847935,"endTime":81.79348916666666,"instrument":1,"program":12},{"pitch":69,"velocity":95,"startTime":81.847837,"endTime":81.95653266666666,"instrument":1,"program":12},{"pitch":69,"velocity":95,"startTime":82.0108805,"endTime":82.11957616666666,"instrument":1,"program":12},{"pitch":74,"velocity":95,"startTime":82.173924,"endTime":82.28261966666666,"instrument":1,"program":12},{"pitch":74,"velocity":95,"startTime":82.3369675,"endTime":82.44566316666666,"instrument":1,"program":12},{"pitch":74,"velocity":95,"startTime":82.500011,"endTime":82.60870666666666,"instrument":1,"program":12},{"pitch":74,"velocity":95,"startTime":82.66305449999999,"endTime":82.77175016666666,"instrument":1,"program":12},{"pitch":69,"velocity":95,"startTime":82.82609799999999,"endTime":82.93479366666666,"instrument":1,"program":12},{"pitch":74,"velocity":95,"startTime":82.98914149999999,"endTime":83.09783716666666,"instrument":1,"program":12},{"pitch":74,"velocity":95,"startTime":83.15218499999999,"endTime":83.26088066666667,"instrument":1,"program":12},{"pitch":69,"velocity":95,"startTime":83.31522849999999,"endTime":83.42392416666667,"instrument":1,"program":12},{"pitch":34,"velocity":110,"startTime":62.608703999999996,"endTime":62.7717475,"instrument":2,"program":32},{"pitch":36,"velocity":110,"startTime":62.934791,"endTime":63.0978345,"instrument":2,"program":32},{"pitch":36,"velocity":110,"startTime":63.260878,"endTime":63.4239215,"instrument":2,"program":32},{"pitch":31,"velocity":110,"startTime":63.58696499999999,"endTime":63.75000849999999,"instrument":2,"program":32},{"pitch":36,"velocity":110,"startTime":63.91305199999999,"endTime":64.0760955,"instrument":2,"program":32},{"pitch":48,"velocity":110,"startTime":64.239139,"endTime":64.4021825,"instrument":2,"program":32},{"pitch":43,"velocity":110,"startTime":64.565226,"endTime":64.7282695,"instrument":2,"program":32},{"pitch":36,"velocity":110,"startTime":64.891313,"endTime":65.0543565,"instrument":2,"program":32},{"pitch":36,"velocity":110,"startTime":65.2174,"endTime":65.3804435,"instrument":2,"program":32},{"pitch":31,"velocity":110,"startTime":65.543487,"endTime":65.7065305,"instrument":2,"program":32},{"pitch":36,"velocity":110,"startTime":65.869574,"endTime":66.0326175,"instrument":2,"program":32},{"pitch":36,"velocity":110,"startTime":66.195661,"endTime":66.3587045,"instrument":2,"program":32},{"pitch":39,"velocity":110,"startTime":66.52174799999999,"endTime":66.68479149999999,"instrument":2,"program":32},{"pitch":27,"velocity":110,"startTime":66.84783499999999,"endTime":67.01087849999999,"instrument":2,"program":32},{"pitch":39,"velocity":110,"startTime":67.17392199999999,"endTime":67.33696549999999,"instrument":2,"program":32},{"pitch":48,"velocity":110,"startTime":67.50000899999999,"endTime":67.66305249999999,"instrument":2,"program":32},{"pitch":43,"velocity":110,"startTime":67.82609599999999,"endTime":67.9891395,"instrument":2,"program":32},{"pitch":43,"velocity":110,"startTime":68.152183,"endTime":68.3152265,"instrument":2,"program":32},{"pitch":43,"velocity":110,"startTime":68.47827,"endTime":68.6413135,"instrument":2,"program":32},{"pitch":38,"velocity":110,"startTime":68.804357,"endTime":68.9674005,"instrument":2,"program":32},{"pitch":34,"velocity":110,"startTime":69.130444,"endTime":69.2934875,"instrument":2,"program":32},{"pitch":34,"velocity":110,"startTime":69.456531,"endTime":69.72827016666666,"instrument":2,"program":32},{"pitch":36,"velocity":110,"startTime":69.782618,"endTime":69.9456615,"instrument":2,"program":32},{"pitch":34,"velocity":110,"startTime":70.108705,"endTime":70.2717485,"instrument":2,"program":32},{"pitch":43,"velocity":110,"startTime":70.434792,"endTime":70.59783549999999,"instrument":2,"program":32},{"pitch":43,"velocity":110,"startTime":70.76087899999999,"endTime":70.92392249999999,"instrument":2,"program":32},{"pitch":43,"velocity":110,"startTime":71.08696599999999,"endTime":71.25000949999999,"instrument":2,"program":32},{"pitch":35,"velocity":110,"startTime":71.41305299999999,"endTime":71.57609649999999,"instrument":2,"program":32},{"pitch":34,"velocity":110,"startTime":71.73913999999999,"endTime":71.90218349999999,"instrument":2,"program":32},{"pitch":34,"velocity":110,"startTime":72.065227,"endTime":72.2282705,"instrument":2,"program":32},{"pitch":38,"velocity":110,"startTime":72.391314,"endTime":72.5543575,"instrument":2,"program":32},{"pitch":38,"velocity":110,"startTime":72.717401,"endTime":72.8804445,"instrument":2,"program":32},{"pitch":38,"velocity":110,"startTime":73.043488,"endTime":73.2065315,"instrument":2,"program":32},{"pitch":42,"velocity":110,"startTime":73.369575,"endTime":73.5326185,"instrument":2,"program":32},{"pitch":42,"velocity":110,"startTime":73.695662,"endTime":73.8587055,"instrument":2,"program":32},{"pitch":38,"velocity":110,"startTime":74.021749,"endTime":74.1847925,"instrument":2,"program":32},{"pitch":33,"velocity":110,"startTime":74.347836,"endTime":74.5108795,"instrument":2,"program":32},{"pitch":33,"velocity":110,"startTime":74.67392299999999,"endTime":74.83696649999999,"instrument":2,"program":32},{"pitch":38,"velocity":110,"startTime":75.00000999999999,"endTime":75.16305349999999,"instrument":2,"program":32},{"pitch":38,"velocity":110,"startTime":75.32609699999999,"endTime":75.48914049999999,"instrument":2,"program":32},{"pitch":38,"velocity":110,"startTime":75.65218399999999,"endTime":75.81522749999999,"instrument":2,"program":32},{"pitch":38,"velocity":110,"startTime":75.97827099999999,"endTime":76.1413145,"instrument":2,"program":32},{"pitch":38,"velocity":110,"startTime":76.304358,"endTime":76.4674015,"instrument":2,"program":32},{"pitch":38,"velocity":110,"startTime":76.630445,"endTime":76.90218416666666,"instrument":2,"program":32},{"pitch":33,"velocity":110,"startTime":76.956532,"endTime":77.1195755,"instrument":2,"program":32},{"pitch":33,"velocity":110,"startTime":77.282619,"endTime":77.4456625,"instrument":2,"program":32},{"pitch":33,"velocity":110,"startTime":77.608706,"endTime":77.7717495,"instrument":2,"program":32},{"pitch":38,"velocity":110,"startTime":77.934793,"endTime":78.0978365,"instrument":2,"program":32},{"pitch":31,"velocity":110,"startTime":78.26088,"endTime":78.4239235,"instrument":2,"program":32},{"pitch":38,"velocity":110,"startTime":80.869576,"endTime":81.0326195,"instrument":2,"program":32},{"pitch":38,"velocity":110,"startTime":81.195663,"endTime":81.3587065,"instrument":2,"program":32},{"pitch":33,"velocity":110,"startTime":81.52175,"endTime":81.6847935,"instrument":2,"program":32},{"pitch":38,"velocity":110,"startTime":81.847837,"endTime":82.0108805,"instrument":2,"program":32},{"pitch":43,"velocity":110,"startTime":82.173924,"endTime":82.3369675,"instrument":2,"program":32},{"pitch":43,"velocity":110,"startTime":82.500011,"endTime":82.66305449999999,"instrument":2,"program":32},{"pitch":43,"velocity":110,"startTime":82.82609799999999,"endTime":82.98914149999999,"instrument":2,"program":32},{"pitch":38,"velocity":110,"startTime":83.15218499999999,"endTime":83.31522849999999,"instrument":2,"program":32},{"pitch":60,"velocity":105,"startTime":62.608703999999996,"endTime":65.0543565,"instrument":3,"program":50},{"pitch":63,"velocity":105,"startTime":62.608703999999996,"endTime":65.10870433333334,"instrument":3,"program":50},{"pitch":67,"velocity":105,"startTime":62.608703999999996,"endTime":65.10870433333334,"instrument":3,"program":50},{"pitch":62,"velocity":105,"startTime":65.2174,"endTime":67.71740033333333,"instrument":3,"program":50},{"pitch":67,"velocity":105,"startTime":65.2174,"endTime":67.71740033333333,"instrument":3,"program":50},{"pitch":74,"velocity":105,"startTime":65.2174,"endTime":67.71740033333333,"instrument":3,"program":50},{"pitch":55,"velocity":105,"startTime":67.82609599999999,"endTime":70.05435716666666,"instrument":3,"program":50},{"pitch":58,"velocity":105,"startTime":67.82609599999999,"endTime":70.16305283333332,"instrument":3,"program":50},{"pitch":62,"velocity":105,"startTime":67.82609599999999,"endTime":70.05435716666666,"instrument":3,"program":50},{"pitch":67,"velocity":105,"startTime":67.82609599999999,"endTime":70.108705,"instrument":3,"program":50},{"pitch":67,"velocity":105,"startTime":70.434792,"endTime":73.043488,"instrument":3,"program":50},{"pitch":74,"velocity":105,"startTime":70.434792,"endTime":71.57609649999999,"instrument":3,"program":50},{"pitch":62,"velocity":105,"startTime":70.48913983333333,"endTime":73.043488,"instrument":3,"program":50},{"pitch":55,"velocity":105,"startTime":70.76087899999999,"endTime":73.043488,"instrument":3,"program":50},{"pitch":58,"velocity":105,"startTime":71.08696599999999,"endTime":73.043488,"instrument":3,"program":50},{"pitch":54,"velocity":105,"startTime":73.043488,"endTime":74.5108795,"instrument":3,"program":50},{"pitch":62,"velocity":105,"startTime":73.043488,"endTime":73.695662,"instrument":3,"program":50},{"pitch":72,"velocity":105,"startTime":73.043488,"endTime":73.64131416666666,"instrument":3,"program":50},{"pitch":78,"velocity":105,"startTime":73.043488,"endTime":73.91305333333332,"instrument":3,"program":50},{"pitch":66,"velocity":105,"startTime":74.021749,"endTime":75.32609699999999,"instrument":3,"program":50},{"pitch":78,"velocity":105,"startTime":74.021749,"endTime":74.1847925,"instrument":3,"program":50},{"pitch":72,"velocity":105,"startTime":74.347836,"endTime":75.32609699999999,"instrument":3,"program":50},{"pitch":78,"velocity":105,"startTime":74.347836,"endTime":74.40218383333332,"instrument":3,"program":50},{"pitch":78,"velocity":105,"startTime":74.72827083333333,"endTime":74.83696649999999,"instrument":3,"program":50},{"pitch":78,"velocity":105,"startTime":75.00000999999999,"endTime":75.32609699999999,"instrument":3,"program":50},{"pitch":54,"velocity":105,"startTime":75.32609699999999,"endTime":75.48914049999999,"instrument":3,"program":50},{"pitch":57,"velocity":105,"startTime":75.65218399999999,"endTime":78.15218433333332,"instrument":3,"program":50},{"pitch":60,"velocity":105,"startTime":75.65218399999999,"endTime":78.26088,"instrument":3,"program":50},{"pitch":64,"velocity":105,"startTime":75.65218399999999,"endTime":78.15218433333332,"instrument":3,"program":50},{"pitch":67,"velocity":105,"startTime":75.65218399999999,"endTime":78.26088,"instrument":3,"program":50},{"pitch":62,"velocity":105,"startTime":78.26088,"endTime":78.47827133333332,"instrument":3,"program":50},{"pitch":70,"velocity":105,"startTime":78.26088,"endTime":78.47827133333332,"instrument":3,"program":50},{"pitch":82,"velocity":105,"startTime":78.26088,"endTime":78.47827133333332,"instrument":3,"program":50},{"pitch":60,"velocity":105,"startTime":80.869576,"endTime":82.173924,"instrument":3,"program":50},{"pitch":62,"velocity":105,"startTime":80.869576,"endTime":82.173924,"instrument":3,"program":50},{"pitch":66,"velocity":105,"startTime":80.869576,"endTime":82.173924,"instrument":3,"program":50},{"pitch":70,"velocity":105,"startTime":80.869576,"endTime":82.173924,"instrument":3,"program":50},{"pitch":58,"velocity":105,"startTime":82.173924,"endTime":82.3369675,"instrument":3,"program":50},{"pitch":62,"velocity":105,"startTime":82.173924,"endTime":82.3369675,"instrument":3,"program":50},{"pitch":67,"velocity":105,"startTime":82.173924,"endTime":82.3369675,"instrument":3,"program":50},{"pitch":74,"velocity":105,"startTime":82.173924,"endTime":82.3369675,"instrument":3,"program":50},{"pitch":35,"velocity":102,"startTime":83.47827199999999,"endTime":83.64131549999999,"isDrum":true},{"pitch":42,"velocity":102,"startTime":83.47827199999999,"endTime":83.64131549999999,"isDrum":true},{"pitch":51,"velocity":102,"startTime":83.47827199999999,"endTime":83.64131549999999,"isDrum":true},{"pitch":42,"velocity":102,"startTime":83.80435899999999,"endTime":83.96740249999999,"isDrum":true},{"pitch":38,"velocity":102,"startTime":84.13044599999999,"endTime":84.29348949999999,"isDrum":true},{"pitch":42,"velocity":102,"startTime":84.13044599999999,"endTime":84.29348949999999,"isDrum":true},{"pitch":51,"velocity":102,"startTime":84.13044599999999,"endTime":84.29348949999999,"isDrum":true},{"pitch":42,"velocity":102,"startTime":84.456533,"endTime":84.6195765,"isDrum":true},{"pitch":35,"velocity":102,"startTime":84.78262,"endTime":84.9456635,"isDrum":true},{"pitch":42,"velocity":102,"startTime":84.78262,"endTime":84.9456635,"isDrum":true},{"pitch":51,"velocity":102,"startTime":84.78262,"endTime":84.9456635,"isDrum":true},{"pitch":35,"velocity":102,"startTime":85.108707,"endTime":85.2717505,"isDrum":true},{"pitch":42,"velocity":102,"startTime":85.108707,"endTime":85.2717505,"isDrum":true},{"pitch":38,"velocity":102,"startTime":85.434794,"endTime":85.5978375,"isDrum":true},{"pitch":42,"velocity":102,"startTime":85.434794,"endTime":85.5978375,"isDrum":true},{"pitch":51,"velocity":102,"startTime":85.434794,"endTime":85.5978375,"isDrum":true},{"pitch":35,"velocity":102,"startTime":85.760881,"endTime":85.9239245,"isDrum":true},{"pitch":42,"velocity":102,"startTime":85.760881,"endTime":85.9239245,"isDrum":true},{"pitch":35,"velocity":102,"startTime":86.086968,"endTime":86.2500115,"isDrum":true},{"pitch":42,"velocity":102,"startTime":86.086968,"endTime":86.2500115,"isDrum":true},{"pitch":51,"velocity":102,"startTime":86.086968,"endTime":86.2500115,"isDrum":true},{"pitch":42,"velocity":102,"startTime":86.413055,"endTime":86.5760985,"isDrum":true},{"pitch":38,"velocity":102,"startTime":86.73914199999999,"endTime":86.90218549999999,"isDrum":true},{"pitch":42,"velocity":102,"startTime":86.73914199999999,"endTime":86.90218549999999,"isDrum":true},{"pitch":51,"velocity":102,"startTime":86.73914199999999,"endTime":86.90218549999999,"isDrum":true},{"pitch":42,"velocity":102,"startTime":87.06522899999999,"endTime":87.22827249999999,"isDrum":true},{"pitch":35,"velocity":102,"startTime":87.39131599999999,"endTime":87.55435949999999,"isDrum":true},{"pitch":42,"velocity":102,"startTime":87.39131599999999,"endTime":87.55435949999999,"isDrum":true},{"pitch":51,"velocity":102,"startTime":87.39131599999999,"endTime":87.55435949999999,"isDrum":true},{"pitch":35,"velocity":102,"startTime":87.71740299999999,"endTime":87.88044649999999,"isDrum":true},{"pitch":42,"velocity":102,"startTime":87.71740299999999,"endTime":87.88044649999999,"isDrum":true},{"pitch":38,"velocity":102,"startTime":88.04348999999999,"endTime":88.20653349999999,"isDrum":true},{"pitch":42,"velocity":102,"startTime":88.04348999999999,"endTime":88.20653349999999,"isDrum":true},{"pitch":51,"velocity":102,"startTime":88.04348999999999,"endTime":88.20653349999999,"isDrum":true},{"pitch":51,"velocity":102,"startTime":88.20653349999999,"endTime":88.36957699999999,"isDrum":true},{"pitch":35,"velocity":102,"startTime":88.36957699999999,"endTime":88.5326205,"isDrum":true},{"pitch":42,"velocity":102,"startTime":88.36957699999999,"endTime":88.5326205,"isDrum":true},{"pitch":35,"velocity":102,"startTime":88.695664,"endTime":88.8587075,"isDrum":true},{"pitch":42,"velocity":102,"startTime":88.695664,"endTime":88.8587075,"isDrum":true},{"pitch":51,"velocity":102,"startTime":88.695664,"endTime":88.8587075,"isDrum":true},{"pitch":42,"velocity":102,"startTime":89.021751,"endTime":89.1847945,"isDrum":true},{"pitch":38,"velocity":102,"startTime":89.347838,"endTime":89.5108815,"isDrum":true},{"pitch":42,"velocity":102,"startTime":89.347838,"endTime":89.5108815,"isDrum":true},{"pitch":42,"velocity":102,"startTime":89.673925,"endTime":89.8369685,"isDrum":true},{"pitch":35,"velocity":102,"startTime":90.000012,"endTime":90.1630555,"isDrum":true},{"pitch":42,"velocity":102,"startTime":90.000012,"endTime":90.1630555,"isDrum":true},{"pitch":51,"velocity":102,"startTime":90.000012,"endTime":90.1630555,"isDrum":true},{"pitch":42,"velocity":102,"startTime":90.326099,"endTime":90.4891425,"isDrum":true},{"pitch":38,"velocity":102,"startTime":90.65218599999999,"endTime":90.81522949999999,"isDrum":true},{"pitch":42,"velocity":102,"startTime":90.65218599999999,"endTime":90.81522949999999,"isDrum":true},{"pitch":51,"velocity":102,"startTime":90.65218599999999,"endTime":90.81522949999999,"isDrum":true},{"pitch":35,"velocity":102,"startTime":90.97827299999999,"endTime":91.14131649999999,"isDrum":true},{"pitch":42,"velocity":102,"startTime":90.97827299999999,"endTime":91.14131649999999,"isDrum":true},{"pitch":42,"velocity":102,"startTime":91.14131649999999,"endTime":91.30435999999999,"isDrum":true},{"pitch":35,"velocity":102,"startTime":91.30435999999999,"endTime":91.46740349999999,"isDrum":true},{"pitch":42,"velocity":102,"startTime":91.30435999999999,"endTime":91.46740349999999,"isDrum":true},{"pitch":51,"velocity":102,"startTime":91.30435999999999,"endTime":91.46740349999999,"isDrum":true},{"pitch":42,"velocity":102,"startTime":91.63044699999999,"endTime":91.79349049999999,"isDrum":true},{"pitch":38,"velocity":102,"startTime":91.95653399999999,"endTime":92.11957749999999,"isDrum":true},{"pitch":42,"velocity":102,"startTime":91.95653399999999,"endTime":92.11957749999999,"isDrum":true},{"pitch":51,"velocity":102,"startTime":91.95653399999999,"endTime":92.11957749999999,"isDrum":true},{"pitch":42,"velocity":102,"startTime":92.28262099999999,"endTime":92.44566449999999,"isDrum":true},{"pitch":35,"velocity":102,"startTime":92.608708,"endTime":92.7717515,"isDrum":true},{"pitch":42,"velocity":102,"startTime":92.608708,"endTime":92.7717515,"isDrum":true},{"pitch":51,"velocity":102,"startTime":92.608708,"endTime":92.7717515,"isDrum":true},{"pitch":42,"velocity":102,"startTime":92.934795,"endTime":93.0978385,"isDrum":true},{"pitch":38,"velocity":102,"startTime":93.260882,"endTime":93.4239255,"isDrum":true},{"pitch":42,"velocity":102,"startTime":93.260882,"endTime":93.4239255,"isDrum":true},{"pitch":51,"velocity":102,"startTime":93.260882,"endTime":93.4239255,"isDrum":true},{"pitch":42,"velocity":102,"startTime":93.586969,"endTime":93.7500125,"isDrum":true},{"pitch":35,"velocity":102,"startTime":93.913056,"endTime":94.0760995,"isDrum":true},{"pitch":42,"velocity":102,"startTime":93.913056,"endTime":94.0760995,"isDrum":true},{"pitch":51,"velocity":102,"startTime":93.913056,"endTime":94.0760995,"isDrum":true},{"pitch":35,"velocity":102,"startTime":94.239143,"endTime":94.4021865,"isDrum":true},{"pitch":42,"velocity":102,"startTime":94.239143,"endTime":94.4021865,"isDrum":true},{"pitch":38,"velocity":102,"startTime":94.56523,"endTime":94.72827349999999,"isDrum":true},{"pitch":42,"velocity":102,"startTime":94.56523,"endTime":94.72827349999999,"isDrum":true},{"pitch":51,"velocity":102,"startTime":94.56523,"endTime":94.72827349999999,"isDrum":true},{"pitch":35,"velocity":102,"startTime":94.89131699999999,"endTime":95.05436049999999,"isDrum":true},{"pitch":42,"velocity":102,"startTime":94.89131699999999,"endTime":95.05436049999999,"isDrum":true},{"pitch":42,"velocity":102,"startTime":95.05436049999999,"endTime":95.21740399999999,"isDrum":true},{"pitch":35,"velocity":102,"startTime":95.21740399999999,"endTime":95.38044749999999,"isDrum":true},{"pitch":42,"velocity":102,"startTime":95.21740399999999,"endTime":95.38044749999999,"isDrum":true},{"pitch":51,"velocity":102,"startTime":95.21740399999999,"endTime":95.38044749999999,"isDrum":true},{"pitch":42,"velocity":102,"startTime":95.54349099999999,"endTime":95.70653449999999,"isDrum":true},{"pitch":38,"velocity":102,"startTime":95.86957799999999,"endTime":96.03262149999999,"isDrum":true},{"pitch":42,"velocity":102,"startTime":95.86957799999999,"endTime":96.03262149999999,"isDrum":true},{"pitch":51,"velocity":102,"startTime":95.86957799999999,"endTime":96.03262149999999,"isDrum":true},{"pitch":42,"velocity":102,"startTime":96.19566499999999,"endTime":96.35870849999999,"isDrum":true},{"pitch":35,"velocity":102,"startTime":96.52175199999999,"endTime":96.68479549999999,"isDrum":true},{"pitch":42,"velocity":102,"startTime":96.52175199999999,"endTime":96.68479549999999,"isDrum":true},{"pitch":51,"velocity":102,"startTime":96.52175199999999,"endTime":96.68479549999999,"isDrum":true},{"pitch":35,"velocity":102,"startTime":96.847839,"endTime":97.0108825,"isDrum":true},{"pitch":42,"velocity":102,"startTime":96.847839,"endTime":97.0108825,"isDrum":true},{"pitch":38,"velocity":102,"startTime":97.173926,"endTime":97.3369695,"isDrum":true},{"pitch":42,"velocity":102,"startTime":97.173926,"endTime":97.3369695,"isDrum":true},{"pitch":51,"velocity":102,"startTime":97.173926,"endTime":97.3369695,"isDrum":true},{"pitch":35,"velocity":102,"startTime":97.500013,"endTime":97.6630565,"isDrum":true},{"pitch":42,"velocity":102,"startTime":97.500013,"endTime":97.6630565,"isDrum":true},{"pitch":35,"velocity":102,"startTime":97.8261,"endTime":97.9891435,"isDrum":true},{"pitch":42,"velocity":102,"startTime":97.8261,"endTime":97.9891435,"isDrum":true},{"pitch":51,"velocity":102,"startTime":97.8261,"endTime":97.9891435,"isDrum":true},{"pitch":42,"velocity":102,"startTime":98.152187,"endTime":98.3152305,"isDrum":true},{"pitch":38,"velocity":102,"startTime":98.478274,"endTime":98.6413175,"isDrum":true},{"pitch":42,"velocity":102,"startTime":98.478274,"endTime":98.6413175,"isDrum":true},{"pitch":51,"velocity":102,"startTime":98.478274,"endTime":98.6413175,"isDrum":true},{"pitch":42,"velocity":102,"startTime":98.80436099999999,"endTime":98.96740449999999,"isDrum":true},{"pitch":35,"velocity":102,"startTime":99.13044799999999,"endTime":99.29349149999999,"isDrum":true},{"pitch":42,"velocity":102,"startTime":99.13044799999999,"endTime":99.29349149999999,"isDrum":true},{"pitch":51,"velocity":102,"startTime":99.13044799999999,"endTime":99.29349149999999,"isDrum":true},{"pitch":35,"velocity":102,"startTime":99.45653499999999,"endTime":99.61957849999999,"isDrum":true},{"pitch":42,"velocity":102,"startTime":99.45653499999999,"endTime":99.61957849999999,"isDrum":true},{"pitch":38,"velocity":102,"startTime":99.78262199999999,"endTime":99.94566549999999,"isDrum":true},{"pitch":42,"velocity":102,"startTime":99.78262199999999,"endTime":99.94566549999999,"isDrum":true},{"pitch":51,"velocity":102,"startTime":99.78262199999999,"endTime":99.94566549999999,"isDrum":true},{"pitch":35,"velocity":102,"startTime":100.10870899999999,"endTime":100.27175249999999,"isDrum":true},{"pitch":42,"velocity":102,"startTime":100.10870899999999,"endTime":100.27175249999999,"isDrum":true},{"pitch":35,"velocity":102,"startTime":100.43479599999999,"endTime":100.59783949999999,"isDrum":true},{"pitch":42,"velocity":102,"startTime":100.43479599999999,"endTime":100.59783949999999,"isDrum":true},{"pitch":51,"velocity":102,"startTime":100.43479599999999,"endTime":100.59783949999999,"isDrum":true},{"pitch":42,"velocity":102,"startTime":100.76088299999999,"endTime":100.9239265,"isDrum":true},{"pitch":38,"velocity":102,"startTime":101.08697,"endTime":101.2500135,"isDrum":true},{"pitch":42,"velocity":102,"startTime":101.08697,"endTime":101.2500135,"isDrum":true},{"pitch":51,"velocity":102,"startTime":101.08697,"endTime":101.2500135,"isDrum":true},{"pitch":42,"velocity":102,"startTime":101.413057,"endTime":101.5761005,"isDrum":true},{"pitch":35,"velocity":102,"startTime":101.739144,"endTime":101.9021875,"isDrum":true},{"pitch":42,"velocity":102,"startTime":101.739144,"endTime":101.9021875,"isDrum":true},{"pitch":51,"velocity":102,"startTime":101.739144,"endTime":101.9021875,"isDrum":true},{"pitch":35,"velocity":102,"startTime":102.065231,"endTime":102.2282745,"isDrum":true},{"pitch":42,"velocity":102,"startTime":102.065231,"endTime":102.2282745,"isDrum":true},{"pitch":51,"velocity":102,"startTime":102.065231,"endTime":102.2282745,"isDrum":true},{"pitch":51,"velocity":102,"startTime":102.2282745,"endTime":102.391318,"isDrum":true},{"pitch":38,"velocity":102,"startTime":102.391318,"endTime":102.5543615,"isDrum":true},{"pitch":42,"velocity":102,"startTime":102.391318,"endTime":102.5543615,"isDrum":true},{"pitch":51,"velocity":102,"startTime":102.391318,"endTime":102.5543615,"isDrum":true},{"pitch":35,"velocity":102,"startTime":102.71740499999999,"endTime":102.88044849999999,"isDrum":true},{"pitch":42,"velocity":102,"startTime":102.71740499999999,"endTime":102.88044849999999,"isDrum":true},{"pitch":51,"velocity":102,"startTime":102.71740499999999,"endTime":102.88044849999999,"isDrum":true},{"pitch":65,"velocity":95,"startTime":83.47827199999999,"endTime":83.64131549999999,"instrument":1,"program":12},{"pitch":67,"velocity":95,"startTime":83.64131549999999,"endTime":83.75001116666665,"instrument":1,"program":12},{"pitch":70,"velocity":95,"startTime":83.80435899999999,"endTime":83.91305466666665,"instrument":1,"program":12},{"pitch":67,"velocity":95,"startTime":83.96740249999999,"endTime":84.07609816666665,"instrument":1,"program":12},{"pitch":74,"velocity":95,"startTime":84.13044599999999,"endTime":84.29348949999999,"instrument":1,"program":12},{"pitch":67,"velocity":95,"startTime":84.29348949999999,"endTime":84.40218516666665,"instrument":1,"program":12},{"pitch":65,"velocity":95,"startTime":84.456533,"endTime":84.56522866666666,"instrument":1,"program":12},{"pitch":67,"velocity":95,"startTime":84.6195765,"endTime":84.67392433333333,"instrument":1,"program":12},{"pitch":65,"velocity":95,"startTime":84.78262,"endTime":84.9456635,"instrument":1,"program":12},{"pitch":67,"velocity":95,"startTime":84.9456635,"endTime":85.05435916666666,"instrument":1,"program":12},{"pitch":70,"velocity":95,"startTime":85.108707,"endTime":85.21740266666664,"instrument":1,"program":12},{"pitch":74,"velocity":95,"startTime":85.2717505,"endTime":85.38044616666664,"instrument":1,"program":12},{"pitch":67,"velocity":95,"startTime":85.434794,"endTime":85.54348966666664,"instrument":1,"program":12},{"pitch":70,"velocity":95,"startTime":85.5978375,"endTime":85.65218533333334,"instrument":1,"program":12},{"pitch":67,"velocity":95,"startTime":85.760881,"endTime":85.86957666666665,"instrument":1,"program":12},{"pitch":65,"velocity":95,"startTime":85.9239245,"endTime":86.03262016666665,"instrument":1,"program":12},{"pitch":64,"velocity":95,"startTime":86.086968,"endTime":86.2500115,"instrument":1,"program":12},{"pitch":64,"velocity":95,"startTime":86.2500115,"endTime":86.35870716666665,"instrument":1,"program":12},{"pitch":69,"velocity":95,"startTime":86.413055,"endTime":86.52175066666665,"instrument":1,"program":12},{"pitch":64,"velocity":95,"startTime":86.5760985,"endTime":86.63044633333334,"instrument":1,"program":12},{"pitch":69,"velocity":95,"startTime":87.39131599999999,"endTime":87.50001166666665,"instrument":1,"program":12},{"pitch":74,"velocity":95,"startTime":87.55435949999999,"endTime":87.66305516666665,"instrument":1,"program":12},{"pitch":69,"velocity":95,"startTime":87.71740299999999,"endTime":87.82609866666665,"instrument":1,"program":12},{"pitch":74,"velocity":95,"startTime":87.88044649999999,"endTime":87.98914216666665,"instrument":1,"program":12},{"pitch":65,"velocity":95,"startTime":88.04348999999999,"endTime":88.20653349999999,"instrument":1,"program":12},{"pitch":70,"velocity":95,"startTime":88.20653349999999,"endTime":88.31522916666665,"instrument":1,"program":12},{"pitch":65,"velocity":95,"startTime":88.36957699999999,"endTime":88.47827266666665,"instrument":1,"program":12},{"pitch":62,"velocity":95,"startTime":88.5326205,"endTime":88.64131616666666,"instrument":1,"program":12},{"pitch":62,"velocity":95,"startTime":91.63044699999999,"endTime":91.84783833333333,"instrument":1,"program":12},{"pitch":74,"velocity":95,"startTime":93.913056,"endTime":94.0760995,"instrument":1,"program":12},{"pitch":69,"velocity":95,"startTime":94.0760995,"endTime":94.18479516666666,"instrument":1,"program":12},{"pitch":69,"velocity":95,"startTime":94.239143,"endTime":94.34783866666666,"instrument":1,"program":12},{"pitch":72,"velocity":95,"startTime":94.4021865,"endTime":94.51088216666666,"instrument":1,"program":12},{"pitch":69,"velocity":95,"startTime":95.86957799999999,"endTime":96.03262149999999,"instrument":1,"program":12},{"pitch":74,"velocity":95,"startTime":96.03262149999999,"endTime":96.14131716666665,"instrument":1,"program":12},{"pitch":69,"velocity":95,"startTime":96.19566499999999,"endTime":96.30436066666665,"instrument":1,"program":12},{"pitch":72,"velocity":95,"startTime":96.35870849999999,"endTime":96.46740416666665,"instrument":1,"program":12},{"pitch":74,"velocity":95,"startTime":97.173926,"endTime":97.3369695,"instrument":1,"program":12},{"pitch":69,"velocity":95,"startTime":97.3369695,"endTime":97.44566516666666,"instrument":1,"program":12},{"pitch":74,"velocity":95,"startTime":97.500013,"endTime":97.60870866666666,"instrument":1,"program":12},{"pitch":69,"velocity":95,"startTime":97.6630565,"endTime":97.77175216666666,"instrument":1,"program":12},{"pitch":74,"velocity":95,"startTime":97.8261,"endTime":97.93479566666666,"instrument":1,"program":12},{"pitch":74,"velocity":95,"startTime":97.9891435,"endTime":98.09783916666666,"instrument":1,"program":12},{"pitch":69,"velocity":95,"startTime":98.152187,"endTime":98.26088266666666,"instrument":1,"program":12},{"pitch":74,"velocity":95,"startTime":98.3152305,"endTime":98.36957833333332,"instrument":1,"program":12},{"pitch":74,"velocity":95,"startTime":98.478274,"endTime":98.58696966666666,"instrument":1,"program":12},{"pitch":69,"velocity":95,"startTime":98.6413175,"endTime":98.75001316666666,"instrument":1,"program":12},{"pitch":74,"velocity":95,"startTime":98.80436099999999,"endTime":98.91305666666666,"instrument":1,"program":12},{"pitch":74,"velocity":95,"startTime":98.96740449999999,"endTime":99.07610016666666,"instrument":1,"program":12},{"pitch":69,"velocity":95,"startTime":99.13044799999999,"endTime":99.29349149999999,"instrument":1,"program":12},{"pitch":74,"velocity":95,"startTime":99.29349149999999,"endTime":99.40218716666666,"instrument":1,"program":12},{"pitch":69,"velocity":95,"startTime":99.45653499999999,"endTime":99.56523066666666,"instrument":1,"program":12},{"pitch":74,"velocity":95,"startTime":99.61957849999999,"endTime":99.67392633333333,"instrument":1,"program":12},{"pitch":81,"velocity":95,"startTime":99.78262199999999,"endTime":99.89131766666667,"instrument":1,"program":12},{"pitch":69,"velocity":95,"startTime":99.94566549999999,"endTime":100.00001333333333,"instrument":1,"program":12},{"pitch":74,"velocity":95,"startTime":100.10870899999999,"endTime":100.21740466666665,"instrument":1,"program":12},{"pitch":69,"velocity":95,"startTime":100.27175249999999,"endTime":100.32610033333333,"instrument":1,"program":12},{"pitch":62,"velocity":95,"startTime":100.43479599999999,"endTime":100.54349166666665,"instrument":1,"program":12},{"pitch":74,"velocity":95,"startTime":100.59783949999999,"endTime":100.70653516666665,"instrument":1,"program":12},{"pitch":69,"velocity":95,"startTime":100.76088299999999,"endTime":100.86957866666665,"instrument":1,"program":12},{"pitch":74,"velocity":95,"startTime":100.9239265,"endTime":101.03262216666666,"instrument":1,"program":12},{"pitch":72,"velocity":95,"startTime":101.08697,"endTime":101.19566566666666,"instrument":1,"program":12},{"pitch":74,"velocity":95,"startTime":101.2500135,"endTime":101.35870916666666,"instrument":1,"program":12},{"pitch":72,"velocity":95,"startTime":101.413057,"endTime":101.52175266666666,"instrument":1,"program":12},{"pitch":69,"velocity":95,"startTime":101.5761005,"endTime":101.68479616666666,"instrument":1,"program":12},{"pitch":70,"velocity":95,"startTime":101.739144,"endTime":101.9021875,"instrument":1,"program":12},{"pitch":65,"velocity":95,"startTime":101.9021875,"endTime":102.01088316666666,"instrument":1,"program":12},{"pitch":67,"velocity":95,"startTime":102.065231,"endTime":102.17392666666666,"instrument":1,"program":12},{"pitch":70,"velocity":95,"startTime":102.2282745,"endTime":102.28262233333332,"instrument":1,"program":12},{"pitch":77,"velocity":95,"startTime":102.391318,"endTime":102.50001366666666,"instrument":1,"program":12},{"pitch":70,"velocity":95,"startTime":102.5543615,"endTime":102.60870933333332,"instrument":1,"program":12},{"pitch":67,"velocity":95,"startTime":102.71740499999999,"endTime":102.82610066666666,"instrument":1,"program":12},{"pitch":70,"velocity":95,"startTime":102.88044849999999,"endTime":102.93479633333332,"instrument":1,"program":12},{"pitch":74,"velocity":95,"startTime":103.04349199999999,"endTime":103.15218766666666,"instrument":1,"program":12},{"pitch":67,"velocity":95,"startTime":103.20653549999999,"endTime":103.31523116666666,"instrument":1,"program":12},{"pitch":70,"velocity":95,"startTime":103.36957899999999,"endTime":103.47827466666666,"instrument":1,"program":12},{"pitch":77,"velocity":95,"startTime":103.53262249999999,"endTime":103.58697033333333,"instrument":1,"program":12},{"pitch":74,"velocity":95,"startTime":103.69566599999999,"endTime":103.75001383333333,"instrument":1,"program":12},{"pitch":67,"velocity":95,"startTime":103.85870949999999,"endTime":103.96740516666667,"instrument":1,"program":12},{"pitch":70,"velocity":95,"startTime":104.02175299999999,"endTime":104.13044866666665,"instrument":1,"program":12},{"pitch":67,"velocity":95,"startTime":104.18479649999999,"endTime":104.29349216666665,"instrument":1,"program":12},{"pitch":43,"velocity":110,"startTime":83.47827199999999,"endTime":83.64131549999999,"instrument":2,"program":32},{"pitch":43,"velocity":110,"startTime":83.80435899999999,"endTime":83.96740249999999,"instrument":2,"program":32},{"pitch":38,"velocity":110,"startTime":84.13044599999999,"endTime":84.29348949999999,"instrument":2,"program":32},{"pitch":38,"velocity":110,"startTime":84.456533,"endTime":84.9456635,"instrument":2,"program":32},{"pitch":29,"velocity":110,"startTime":85.108707,"endTime":85.2717505,"instrument":2,"program":32},{"pitch":41,"velocity":110,"startTime":85.434794,"endTime":85.5978375,"instrument":2,"program":32},{"pitch":46,"velocity":110,"startTime":85.760881,"endTime":85.9239245,"instrument":2,"program":32},{"pitch":40,"velocity":110,"startTime":86.086968,"endTime":86.413055,"instrument":2,"program":32},{"pitch":40,"velocity":110,"startTime":86.5760985,"endTime":86.73914199999999,"instrument":2,"program":32},{"pitch":40,"velocity":110,"startTime":86.90218549999999,"endTime":87.06522899999999,"instrument":2,"program":32},{"pitch":28,"velocity":110,"startTime":87.06522899999999,"endTime":87.22827249999999,"instrument":2,"program":32},{"pitch":39,"velocity":110,"startTime":87.39131599999999,"endTime":87.71740299999999,"instrument":2,"program":32},{"pitch":39,"velocity":110,"startTime":87.88044649999999,"endTime":88.04348999999999,"instrument":2,"program":32},{"pitch":38,"velocity":110,"startTime":88.04348999999999,"endTime":88.26088133333333,"instrument":2,"program":32},{"pitch":38,"velocity":110,"startTime":88.36957699999999,"endTime":88.5326205,"instrument":2,"program":32},{"pitch":31,"velocity":110,"startTime":88.695664,"endTime":88.91305533333333,"instrument":2,"program":32},{"pitch":33,"velocity":110,"startTime":90.97827299999999,"endTime":91.46740349999999,"instrument":2,"program":32},{"pitch":33,"velocity":110,"startTime":91.63044699999999,"endTime":91.79349049999999,"instrument":2,"program":32},{"pitch":38,"velocity":110,"startTime":91.95653399999999,"endTime":92.11957749999999,"instrument":2,"program":32},{"pitch":38,"velocity":110,"startTime":92.28262099999999,"endTime":92.44566449999999,"instrument":2,"program":32},{"pitch":33,"velocity":110,"startTime":92.608708,"endTime":92.7717515,"instrument":2,"program":32},{"pitch":36,"velocity":110,"startTime":92.934795,"endTime":93.0978385,"instrument":2,"program":32},{"pitch":38,"velocity":110,"startTime":93.260882,"endTime":93.4239255,"instrument":2,"program":32},{"pitch":36,"velocity":110,"startTime":93.586969,"endTime":93.7500125,"instrument":2,"program":32},{"pitch":38,"velocity":110,"startTime":93.913056,"endTime":94.239143,"instrument":2,"program":32},{"pitch":38,"velocity":110,"startTime":94.4021865,"endTime":94.56523,"instrument":2,"program":32},{"pitch":45,"velocity":110,"startTime":94.72827349999999,"endTime":94.89131699999999,"instrument":2,"program":32},{"pitch":38,"velocity":110,"startTime":94.89131699999999,"endTime":95.05436049999999,"instrument":2,"program":32},{"pitch":45,"velocity":110,"startTime":95.21740399999999,"endTime":95.38044749999999,"instrument":2,"program":32},{"pitch":38,"velocity":110,"startTime":95.54349099999999,"endTime":95.70653449999999,"instrument":2,"program":32},{"pitch":42,"velocity":110,"startTime":95.86957799999999,"endTime":96.03262149999999,"instrument":2,"program":32},{"pitch":45,"velocity":110,"startTime":96.19566499999999,"endTime":96.35870849999999,"instrument":2,"program":32},{"pitch":38,"velocity":110,"startTime":96.52175199999999,"endTime":96.847839,"instrument":2,"program":32},{"pitch":50,"velocity":110,"startTime":97.0108825,"endTime":97.173926,"instrument":2,"program":32},{"pitch":45,"velocity":110,"startTime":97.3369695,"endTime":97.500013,"instrument":2,"program":32},{"pitch":50,"velocity":110,"startTime":97.500013,"endTime":97.6630565,"instrument":2,"program":32},{"pitch":45,"velocity":110,"startTime":97.8261,"endTime":97.9891435,"instrument":2,"program":32},{"pitch":50,"velocity":110,"startTime":98.152187,"endTime":98.3152305,"instrument":2,"program":32},{"pitch":42,"velocity":110,"startTime":98.478274,"endTime":98.6413175,"instrument":2,"program":32},{"pitch":42,"velocity":110,"startTime":98.80436099999999,"endTime":98.96740449999999,"instrument":2,"program":32},{"pitch":38,"velocity":110,"startTime":99.13044799999999,"endTime":99.45653499999999,"instrument":2,"program":32},{"pitch":38,"velocity":110,"startTime":99.61957849999999,"endTime":99.78262199999999,"instrument":2,"program":32},{"pitch":38,"velocity":110,"startTime":99.94566549999999,"endTime":100.10870899999999,"instrument":2,"program":32},{"pitch":42,"velocity":110,"startTime":100.10870899999999,"endTime":100.27175249999999,"instrument":2,"program":32},{"pitch":43,"velocity":110,"startTime":100.43479599999999,"endTime":100.59783949999999,"instrument":2,"program":32},{"pitch":48,"velocity":110,"startTime":100.76088299999999,"endTime":100.9239265,"instrument":2,"program":32},{"pitch":42,"velocity":110,"startTime":101.08697,"endTime":101.2500135,"instrument":2,"program":32},{"pitch":45,"velocity":110,"startTime":101.413057,"endTime":101.5761005,"instrument":2,"program":32},{"pitch":31,"velocity":110,"startTime":101.739144,"endTime":102.065231,"instrument":2,"program":32},{"pitch":31,"velocity":110,"startTime":102.2282745,"endTime":102.391318,"instrument":2,"program":32},{"pitch":31,"velocity":110,"startTime":102.5543615,"endTime":102.71740499999999,"instrument":2,"program":32},{"pitch":31,"velocity":110,"startTime":102.71740499999999,"endTime":102.88044849999999,"instrument":2,"program":32},{"pitch":31,"velocity":110,"startTime":103.04349199999999,"endTime":103.20653549999999,"instrument":2,"program":32},{"pitch":31,"velocity":110,"startTime":103.36957899999999,"endTime":103.53262249999999,"instrument":2,"program":32},{"pitch":31,"velocity":110,"startTime":103.69566599999999,"endTime":103.85870949999999,"instrument":2,"program":32},{"pitch":43,"velocity":110,"startTime":104.02175299999999,"endTime":104.18479649999999,"instrument":2,"program":32},{"pitch":55,"velocity":105,"startTime":83.47827199999999,"endTime":84.56522866666666,"instrument":3,"program":50},{"pitch":58,"velocity":105,"startTime":83.47827199999999,"endTime":84.56522866666666,"instrument":3,"program":50},{"pitch":62,"velocity":105,"startTime":83.47827199999999,"endTime":84.56522866666666,"instrument":3,"program":50},{"pitch":65,"velocity":105,"startTime":83.47827199999999,"endTime":84.56522866666666,"instrument":3,"program":50},{"pitch":58,"velocity":105,"startTime":84.6195765,"endTime":85.97827233333334,"instrument":3,"program":50},{"pitch":60,"velocity":105,"startTime":84.6195765,"endTime":85.97827233333334,"instrument":3,"program":50},{"pitch":65,"velocity":105,"startTime":84.6195765,"endTime":85.97827233333334,"instrument":3,"program":50},{"pitch":67,"velocity":105,"startTime":85.108707,"endTime":85.97827233333334,"instrument":3,"program":50},{"pitch":72,"velocity":105,"startTime":85.434794,"endTime":85.9239245,"instrument":3,"program":50},{"pitch":57,"velocity":105,"startTime":86.086968,"endTime":87.17392466666665,"instrument":3,"program":50},{"pitch":60,"velocity":105,"startTime":86.086968,"endTime":87.17392466666665,"instrument":3,"program":50},{"pitch":64,"velocity":105,"startTime":86.086968,"endTime":87.17392466666665,"instrument":3,"program":50},{"pitch":67,"velocity":105,"startTime":86.086968,"endTime":87.17392466666665,"instrument":3,"program":50},{"pitch":72,"velocity":105,"startTime":86.086968,"endTime":87.17392466666665,"instrument":3,"program":50},{"pitch":58,"velocity":105,"startTime":87.22827249999999,"endTime":87.98914216666665,"instrument":3,"program":50},{"pitch":62,"velocity":105,"startTime":87.22827249999999,"endTime":87.55435949999999,"instrument":3,"program":50},{"pitch":65,"velocity":105,"startTime":87.22827249999999,"endTime":88.04348999999999,"instrument":3,"program":50},{"pitch":68,"velocity":105,"startTime":87.22827249999999,"endTime":87.55435949999999,"instrument":3,"program":50},{"pitch":74,"velocity":105,"startTime":87.22827249999999,"endTime":87.98914216666665,"instrument":3,"program":50},{"pitch":62,"velocity":105,"startTime":87.60870733333334,"endTime":87.93479433333334,"instrument":3,"program":50},{"pitch":55,"velocity":105,"startTime":88.04348999999999,"endTime":88.695664,"instrument":3,"program":50},{"pitch":58,"velocity":105,"startTime":88.04348999999999,"endTime":88.695664,"instrument":3,"program":50},{"pitch":63,"velocity":105,"startTime":88.04348999999999,"endTime":88.695664,"instrument":3,"program":50},{"pitch":67,"velocity":105,"startTime":88.04348999999999,"endTime":88.695664,"instrument":3,"program":50},{"pitch":59,"velocity":105,"startTime":88.695664,"endTime":91.19566433333333,"instrument":3,"program":50},{"pitch":62,"velocity":105,"startTime":88.695664,"endTime":91.19566433333333,"instrument":3,"program":50},{"pitch":65,"velocity":105,"startTime":88.695664,"endTime":91.19566433333333,"instrument":3,"program":50},{"pitch":67,"velocity":105,"startTime":88.695664,"endTime":91.19566433333333,"instrument":3,"program":50},{"pitch":58,"velocity":105,"startTime":95.76088233333333,"endTime":96.52175199999999,"instrument":3,"program":50},{"pitch":60,"velocity":105,"startTime":95.76088233333333,"endTime":96.52175199999999,"instrument":3,"program":50},{"pitch":62,"velocity":105,"startTime":95.76088233333333,"endTime":96.52175199999999,"instrument":3,"program":50},{"pitch":66,"velocity":105,"startTime":95.76088233333333,"endTime":96.52175199999999,"instrument":3,"program":50},{"pitch":69,"velocity":105,"startTime":95.76088233333333,"endTime":96.52175199999999,"instrument":3,"program":50},{"pitch":56,"velocity":105,"startTime":96.52175199999999,"endTime":99.02175233333332,"instrument":3,"program":50},{"pitch":60,"velocity":105,"startTime":96.52175199999999,"endTime":99.02175233333332,"instrument":3,"program":50},{"pitch":62,"velocity":105,"startTime":96.52175199999999,"endTime":99.02175233333332,"instrument":3,"program":50},{"pitch":66,"velocity":105,"startTime":96.52175199999999,"endTime":99.02175233333332,"instrument":3,"program":50},{"pitch":60,"velocity":105,"startTime":99.13044799999999,"endTime":101.46740483333332,"instrument":3,"program":50},{"pitch":62,"velocity":105,"startTime":99.13044799999999,"endTime":101.413057,"instrument":3,"program":50},{"pitch":66,"velocity":105,"startTime":99.13044799999999,"endTime":101.46740483333332,"instrument":3,"program":50},{"pitch":69,"velocity":105,"startTime":99.13044799999999,"endTime":101.413057,"instrument":3,"program":50},{"pitch":58,"velocity":105,"startTime":101.739144,"endTime":104.23914433333333,"instrument":3,"program":50},{"pitch":62,"velocity":105,"startTime":101.739144,"endTime":104.23914433333333,"instrument":3,"program":50},{"pitch":65,"velocity":105,"startTime":101.739144,"endTime":104.23914433333333,"instrument":3,"program":50},{"pitch":67,"velocity":105,"startTime":101.739144,"endTime":104.23914433333333,"instrument":3,"program":50},{"pitch":35,"velocity":102,"startTime":104.34783999999999,"endTime":104.45653566666665,"isDrum":true},{"pitch":42,"velocity":102,"startTime":104.34783999999999,"endTime":104.45653566666665,"isDrum":true},{"pitch":42,"velocity":102,"startTime":104.67392699999999,"endTime":104.78262266666665,"isDrum":true},{"pitch":35,"velocity":102,"startTime":104.83697049999999,"endTime":104.94566616666665,"isDrum":true},{"pitch":40,"velocity":102,"startTime":105.000014,"endTime":105.10870966666666,"isDrum":true},{"pitch":42,"velocity":102,"startTime":105.000014,"endTime":105.10870966666666,"isDrum":true},{"pitch":35,"velocity":102,"startTime":105.326101,"endTime":105.43479666666666,"isDrum":true},{"pitch":42,"velocity":102,"startTime":105.326101,"endTime":105.43479666666666,"isDrum":true},{"pitch":35,"velocity":102,"startTime":105.652188,"endTime":105.76088366666666,"isDrum":true},{"pitch":42,"velocity":102,"startTime":105.652188,"endTime":105.76088366666666,"isDrum":true},{"pitch":42,"velocity":102,"startTime":105.978275,"endTime":106.08697066666666,"isDrum":true},{"pitch":40,"velocity":102,"startTime":106.304362,"endTime":106.41305766666666,"isDrum":true},{"pitch":42,"velocity":102,"startTime":106.304362,"endTime":106.41305766666666,"isDrum":true},{"pitch":42,"velocity":102,"startTime":106.630449,"endTime":106.73914466666666,"isDrum":true},{"pitch":35,"velocity":102,"startTime":106.79349249999999,"endTime":106.90218816666666,"isDrum":true},{"pitch":35,"velocity":102,"startTime":106.95653599999999,"endTime":107.06523166666666,"isDrum":true},{"pitch":42,"velocity":102,"startTime":106.95653599999999,"endTime":107.06523166666666,"isDrum":true},{"pitch":42,"velocity":102,"startTime":107.11957949999999,"endTime":107.22827516666666,"isDrum":true},{"pitch":35,"velocity":102,"startTime":107.28262299999999,"endTime":107.39131866666666,"isDrum":true},{"pitch":42,"velocity":102,"startTime":107.28262299999999,"endTime":107.39131866666666,"isDrum":true},{"pitch":40,"velocity":102,"startTime":107.44566649999999,"endTime":107.55436216666666,"isDrum":true},{"pitch":40,"velocity":102,"startTime":107.60870999999999,"endTime":107.71740566666666,"isDrum":true},{"pitch":42,"velocity":102,"startTime":107.60870999999999,"endTime":107.71740566666666,"isDrum":true},{"pitch":35,"velocity":102,"startTime":107.93479699999999,"endTime":108.04349266666667,"isDrum":true},{"pitch":42,"velocity":102,"startTime":107.93479699999999,"endTime":108.04349266666667,"isDrum":true},{"pitch":35,"velocity":102,"startTime":108.09784049999999,"endTime":108.20653616666665,"isDrum":true},{"pitch":42,"velocity":102,"startTime":108.09784049999999,"endTime":108.20653616666665,"isDrum":true},{"pitch":35,"velocity":102,"startTime":108.26088399999999,"endTime":108.36957966666665,"isDrum":true},{"pitch":42,"velocity":102,"startTime":108.26088399999999,"endTime":108.36957966666665,"isDrum":true},{"pitch":42,"velocity":102,"startTime":108.58697099999999,"endTime":108.69566666666665,"isDrum":true},{"pitch":40,"velocity":102,"startTime":108.91305799999999,"endTime":109.02175366666665,"isDrum":true},{"pitch":42,"velocity":102,"startTime":108.91305799999999,"endTime":109.02175366666665,"isDrum":true},{"pitch":42,"velocity":102,"startTime":109.239145,"endTime":109.34784066666666,"isDrum":true},{"pitch":40,"velocity":102,"startTime":109.4021885,"endTime":109.51088416666666,"isDrum":true},{"pitch":35,"velocity":102,"startTime":109.565232,"endTime":109.67392766666666,"isDrum":true},{"pitch":42,"velocity":102,"startTime":109.565232,"endTime":109.67392766666666,"isDrum":true},{"pitch":35,"velocity":102,"startTime":109.891319,"endTime":110.00001466666666,"isDrum":true},{"pitch":42,"velocity":102,"startTime":109.891319,"endTime":110.00001466666666,"isDrum":true},{"pitch":40,"velocity":102,"startTime":110.217406,"endTime":110.32610166666666,"isDrum":true},{"pitch":42,"velocity":102,"startTime":110.217406,"endTime":110.32610166666666,"isDrum":true},{"pitch":42,"velocity":102,"startTime":110.543493,"endTime":110.65218866666666,"isDrum":true},{"pitch":35,"velocity":102,"startTime":110.86957999999998,"endTime":110.97827566666666,"isDrum":true},{"pitch":42,"velocity":102,"startTime":110.86957999999998,"endTime":110.97827566666666,"isDrum":true},{"pitch":42,"velocity":102,"startTime":111.19566699999999,"endTime":111.30436266666666,"isDrum":true},{"pitch":40,"velocity":102,"startTime":111.52175399999999,"endTime":111.63044966666666,"isDrum":true},{"pitch":42,"velocity":102,"startTime":111.52175399999999,"endTime":111.63044966666666,"isDrum":true},{"pitch":42,"velocity":102,"startTime":111.84784099999999,"endTime":111.95653666666666,"isDrum":true},{"pitch":35,"velocity":102,"startTime":112.01088449999999,"endTime":112.11958016666665,"isDrum":true},{"pitch":40,"velocity":102,"startTime":112.01088449999999,"endTime":112.11958016666665,"isDrum":true},{"pitch":35,"velocity":102,"startTime":112.17392799999999,"endTime":112.28262366666665,"isDrum":true},{"pitch":42,"velocity":102,"startTime":112.17392799999999,"endTime":112.28262366666665,"isDrum":true},{"pitch":40,"velocity":102,"startTime":112.33697149999999,"endTime":112.44566716666665,"isDrum":true},{"pitch":35,"velocity":102,"startTime":112.50001499999999,"endTime":112.60871066666665,"isDrum":true},{"pitch":42,"velocity":102,"startTime":112.50001499999999,"endTime":112.60871066666665,"isDrum":true},{"pitch":40,"velocity":102,"startTime":112.82610199999999,"endTime":112.93479766666665,"isDrum":true},{"pitch":42,"velocity":102,"startTime":112.82610199999999,"endTime":112.93479766666665,"isDrum":true},{"pitch":51,"velocity":102,"startTime":112.82610199999999,"endTime":112.93479766666665,"isDrum":true},{"pitch":42,"velocity":102,"startTime":113.15218899999999,"endTime":113.26088466666666,"isDrum":true},{"pitch":35,"velocity":102,"startTime":113.478276,"endTime":113.58697166666666,"isDrum":true},{"pitch":40,"velocity":102,"startTime":113.478276,"endTime":113.58697166666666,"isDrum":true},{"pitch":42,"velocity":102,"startTime":113.478276,"endTime":113.58697166666666,"isDrum":true},{"pitch":40,"velocity":102,"startTime":113.6413195,"endTime":113.75001516666666,"isDrum":true},{"pitch":42,"velocity":102,"startTime":113.804363,"endTime":113.91305866666666,"isDrum":true},{"pitch":35,"velocity":102,"startTime":113.9674065,"endTime":114.07610216666666,"isDrum":true},{"pitch":40,"velocity":102,"startTime":113.9674065,"endTime":114.07610216666666,"isDrum":true},{"pitch":40,"velocity":102,"startTime":114.13045,"endTime":114.23914566666666,"isDrum":true},{"pitch":42,"velocity":102,"startTime":114.13045,"endTime":114.23914566666666,"isDrum":true},{"pitch":40,"velocity":102,"startTime":114.2934935,"endTime":114.40218916666666,"isDrum":true},{"pitch":42,"velocity":102,"startTime":114.456537,"endTime":114.56523266666666,"isDrum":true},{"pitch":40,"velocity":102,"startTime":114.6195805,"endTime":114.72827616666666,"isDrum":true},{"pitch":35,"velocity":102,"startTime":114.782624,"endTime":114.89131966666666,"isDrum":true},{"pitch":40,"velocity":102,"startTime":114.782624,"endTime":114.89131966666666,"isDrum":true},{"pitch":42,"velocity":102,"startTime":114.782624,"endTime":114.89131966666666,"isDrum":true},{"pitch":40,"velocity":102,"startTime":114.94566749999998,"endTime":115.05436316666666,"isDrum":true},{"pitch":35,"velocity":102,"startTime":115.10871099999999,"endTime":115.21740666666666,"isDrum":true},{"pitch":42,"velocity":102,"startTime":115.10871099999999,"endTime":115.21740666666666,"isDrum":true},{"pitch":40,"velocity":102,"startTime":115.27175449999999,"endTime":115.38045016666666,"isDrum":true},{"pitch":40,"velocity":102,"startTime":115.43479799999999,"endTime":115.54349366666666,"isDrum":true},{"pitch":42,"velocity":102,"startTime":115.43479799999999,"endTime":115.54349366666666,"isDrum":true},{"pitch":40,"velocity":102,"startTime":115.59784149999999,"endTime":115.70653716666666,"isDrum":true},{"pitch":42,"velocity":102,"startTime":115.76088499999999,"endTime":115.86958066666666,"isDrum":true},{"pitch":40,"velocity":102,"startTime":115.92392849999999,"endTime":116.03262416666666,"isDrum":true},{"pitch":35,"velocity":102,"startTime":116.08697199999999,"endTime":116.19566766666665,"isDrum":true},{"pitch":40,"velocity":102,"startTime":116.08697199999999,"endTime":116.19566766666665,"isDrum":true},{"pitch":42,"velocity":102,"startTime":116.08697199999999,"endTime":116.19566766666665,"isDrum":true},{"pitch":40,"velocity":102,"startTime":116.25001549999999,"endTime":116.35871116666665,"isDrum":true},{"pitch":35,"velocity":102,"startTime":116.41305899999999,"endTime":116.52175466666665,"isDrum":true},{"pitch":42,"velocity":102,"startTime":116.41305899999999,"endTime":116.52175466666665,"isDrum":true},{"pitch":40,"velocity":102,"startTime":116.57610249999999,"endTime":116.68479816666665,"isDrum":true},{"pitch":40,"velocity":102,"startTime":116.73914599999999,"endTime":116.84784166666665,"isDrum":true},{"pitch":42,"velocity":102,"startTime":116.73914599999999,"endTime":116.84784166666665,"isDrum":true},{"pitch":42,"velocity":102,"startTime":117.06523299999999,"endTime":117.17392866666665,"isDrum":true},{"pitch":40,"velocity":102,"startTime":117.22827649999999,"endTime":117.33697216666665,"isDrum":true},{"pitch":35,"velocity":102,"startTime":117.39132,"endTime":117.50001566666666,"isDrum":true},{"pitch":42,"velocity":102,"startTime":117.39132,"endTime":117.50001566666666,"isDrum":true},{"pitch":35,"velocity":102,"startTime":117.717407,"endTime":117.82610266666666,"isDrum":true},{"pitch":42,"velocity":102,"startTime":117.717407,"endTime":117.82610266666666,"isDrum":true},{"pitch":40,"velocity":102,"startTime":118.043494,"endTime":118.15218966666666,"isDrum":true},{"pitch":42,"velocity":102,"startTime":118.043494,"endTime":118.15218966666666,"isDrum":true},{"pitch":42,"velocity":102,"startTime":118.369581,"endTime":118.47827666666666,"isDrum":true},{"pitch":40,"velocity":102,"startTime":118.5326245,"endTime":118.64132016666666,"isDrum":true},{"pitch":35,"velocity":102,"startTime":118.695668,"endTime":118.80436366666666,"isDrum":true},{"pitch":42,"velocity":102,"startTime":118.695668,"endTime":118.80436366666666,"isDrum":true},{"pitch":35,"velocity":102,"startTime":119.02175499999998,"endTime":119.13045066666666,"isDrum":true},{"pitch":42,"velocity":102,"startTime":119.02175499999998,"endTime":119.13045066666666,"isDrum":true},{"pitch":40,"velocity":102,"startTime":119.34784199999999,"endTime":119.45653766666666,"isDrum":true},{"pitch":42,"velocity":102,"startTime":119.34784199999999,"endTime":119.45653766666666,"isDrum":true},{"pitch":40,"velocity":102,"startTime":119.51088549999999,"endTime":119.61958116666666,"isDrum":true},{"pitch":42,"velocity":102,"startTime":119.67392899999999,"endTime":119.78262466666666,"isDrum":true},{"pitch":40,"velocity":102,"startTime":119.83697249999999,"endTime":119.94566816666666,"isDrum":true},{"pitch":35,"velocity":102,"startTime":120.00001599999999,"endTime":120.10871166666666,"isDrum":true},{"pitch":42,"velocity":102,"startTime":120.00001599999999,"endTime":120.10871166666666,"isDrum":true},{"pitch":35,"velocity":102,"startTime":120.32610299999999,"endTime":120.43479866666665,"isDrum":true},{"pitch":42,"velocity":102,"startTime":120.32610299999999,"endTime":120.43479866666665,"isDrum":true},{"pitch":40,"velocity":102,"startTime":120.65218999999999,"endTime":120.76088566666665,"isDrum":true},{"pitch":42,"velocity":102,"startTime":120.65218999999999,"endTime":120.76088566666665,"isDrum":true},{"pitch":42,"velocity":102,"startTime":120.97827699999999,"endTime":121.08697266666665,"isDrum":true},{"pitch":40,"velocity":102,"startTime":121.14132049999999,"endTime":121.25001616666665,"isDrum":true},{"pitch":35,"velocity":102,"startTime":121.30436399999999,"endTime":121.41305966666665,"isDrum":true},{"pitch":42,"velocity":102,"startTime":121.30436399999999,"endTime":121.41305966666665,"isDrum":true},{"pitch":35,"velocity":102,"startTime":121.630451,"endTime":121.73914666666666,"isDrum":true},{"pitch":42,"velocity":102,"startTime":121.630451,"endTime":121.73914666666666,"isDrum":true},{"pitch":40,"velocity":102,"startTime":121.956538,"endTime":122.06523366666666,"isDrum":true},{"pitch":42,"velocity":102,"startTime":121.956538,"endTime":122.06523366666666,"isDrum":true},{"pitch":42,"velocity":102,"startTime":122.282625,"endTime":122.39132066666666,"isDrum":true},{"pitch":40,"velocity":102,"startTime":122.4456685,"endTime":122.55436416666666,"isDrum":true},{"pitch":35,"velocity":102,"startTime":122.608712,"endTime":122.71740766666666,"isDrum":true},{"pitch":42,"velocity":102,"startTime":122.608712,"endTime":122.71740766666666,"isDrum":true},{"pitch":35,"velocity":102,"startTime":122.93479899999998,"endTime":123.04349466666666,"isDrum":true},{"pitch":42,"velocity":102,"startTime":122.93479899999998,"endTime":123.04349466666666,"isDrum":true},{"pitch":40,"velocity":102,"startTime":123.26088599999999,"endTime":123.36958166666666,"isDrum":true},{"pitch":42,"velocity":102,"startTime":123.26088599999999,"endTime":123.36958166666666,"isDrum":true},{"pitch":42,"velocity":102,"startTime":123.58697299999999,"endTime":123.69566866666666,"isDrum":true},{"pitch":40,"velocity":102,"startTime":123.75001649999999,"endTime":123.85871216666666,"isDrum":true},{"pitch":35,"velocity":102,"startTime":123.91305999999999,"endTime":124.02175566666666,"isDrum":true},{"pitch":42,"velocity":102,"startTime":123.91305999999999,"endTime":124.02175566666666,"isDrum":true},{"pitch":35,"velocity":102,"startTime":124.23914699999999,"endTime":124.34784266666665,"isDrum":true},{"pitch":42,"velocity":102,"startTime":124.23914699999999,"endTime":124.34784266666665,"isDrum":true},{"pitch":40,"velocity":102,"startTime":124.56523399999999,"endTime":124.67392966666665,"isDrum":true},{"pitch":42,"velocity":102,"startTime":124.56523399999999,"endTime":124.67392966666665,"isDrum":true},{"pitch":35,"velocity":102,"startTime":124.89132099999999,"endTime":125.00001666666665,"isDrum":true},{"pitch":42,"velocity":102,"startTime":124.89132099999999,"endTime":125.00001666666665,"isDrum":true},{"pitch":42,"velocity":102,"startTime":125.05436449999999,"endTime":125.16306016666665,"isDrum":true},{"pitch":67,"velocity":95,"startTime":104.34783999999999,"endTime":104.45653566666665,"instrument":1,"program":12},{"pitch":67,"velocity":95,"startTime":104.51088349999999,"endTime":104.61957916666665,"instrument":1,"program":12},{"pitch":70,"velocity":95,"startTime":104.67392699999999,"endTime":104.78262266666665,"instrument":1,"program":12},{"pitch":67,"velocity":95,"startTime":104.83697049999999,"endTime":104.94566616666665,"instrument":1,"program":12},{"pitch":70,"velocity":95,"startTime":105.000014,"endTime":105.10870966666666,"instrument":1,"program":12},{"pitch":67,"velocity":95,"startTime":105.1630575,"endTime":105.27175316666666,"instrument":1,"program":12},{"pitch":70,"velocity":95,"startTime":105.326101,"endTime":105.43479666666666,"instrument":1,"program":12},{"pitch":67,"velocity":95,"startTime":105.4891445,"endTime":105.59784016666666,"instrument":1,"program":12},{"pitch":62,"velocity":95,"startTime":105.652188,"endTime":105.76088366666666,"instrument":1,"program":12},{"pitch":67,"velocity":95,"startTime":105.8152315,"endTime":105.92392716666666,"instrument":1,"program":12},{"pitch":70,"velocity":95,"startTime":105.978275,"endTime":106.08697066666666,"instrument":1,"program":12},{"pitch":67,"velocity":95,"startTime":106.1413185,"endTime":106.25001416666666,"instrument":1,"program":12},{"pitch":70,"velocity":95,"startTime":106.304362,"endTime":106.41305766666666,"instrument":1,"program":12},{"pitch":67,"velocity":95,"startTime":106.4674055,"endTime":106.57610116666666,"instrument":1,"program":12},{"pitch":70,"velocity":95,"startTime":106.630449,"endTime":106.73914466666666,"instrument":1,"program":12},{"pitch":67,"velocity":95,"startTime":106.79349249999999,"endTime":106.90218816666666,"instrument":1,"program":12},{"pitch":64,"velocity":95,"startTime":106.95653599999999,"endTime":107.06523166666666,"instrument":1,"program":12},{"pitch":64,"velocity":95,"startTime":107.11957949999999,"endTime":107.22827516666666,"instrument":1,"program":12},{"pitch":69,"velocity":95,"startTime":107.28262299999999,"endTime":107.39131866666666,"instrument":1,"program":12},{"pitch":64,"velocity":95,"startTime":107.44566649999999,"endTime":107.55436216666666,"instrument":1,"program":12},{"pitch":69,"velocity":95,"startTime":107.60870999999999,"endTime":107.71740566666666,"instrument":1,"program":12},{"pitch":64,"velocity":95,"startTime":107.77175349999999,"endTime":107.88044916666666,"instrument":1,"program":12},{"pitch":65,"velocity":95,"startTime":107.93479699999999,"endTime":108.04349266666667,"instrument":1,"program":12},{"pitch":69,"velocity":95,"startTime":108.09784049999999,"endTime":108.20653616666665,"instrument":1,"program":12},{"pitch":62,"velocity":95,"startTime":108.26088399999999,"endTime":108.36957966666665,"instrument":1,"program":12},{"pitch":69,"velocity":95,"startTime":108.42392749999999,"endTime":108.53262316666665,"instrument":1,"program":12},{"pitch":69,"velocity":95,"startTime":108.58697099999999,"endTime":108.69566666666665,"instrument":1,"program":12},{"pitch":69,"velocity":95,"startTime":108.75001449999999,"endTime":108.85871016666665,"instrument":1,"program":12},{"pitch":62,"velocity":95,"startTime":108.91305799999999,"endTime":109.02175366666665,"instrument":1,"program":12},{"pitch":67,"velocity":95,"startTime":109.0761015,"endTime":109.18479716666666,"instrument":1,"program":12},{"pitch":70,"velocity":95,"startTime":109.239145,"endTime":109.34784066666666,"instrument":1,"program":12},{"pitch":62,"velocity":95,"startTime":109.4021885,"endTime":109.51088416666666,"instrument":1,"program":12},{"pitch":62,"velocity":95,"startTime":109.565232,"endTime":109.67392766666666,"instrument":1,"program":12},{"pitch":67,"velocity":95,"startTime":109.7282755,"endTime":109.83697116666666,"instrument":1,"program":12},{"pitch":71,"velocity":95,"startTime":109.891319,"endTime":110.00001466666666,"instrument":1,"program":12},{"pitch":77,"velocity":95,"startTime":110.0543625,"endTime":110.16305816666666,"instrument":1,"program":12},{"pitch":67,"velocity":95,"startTime":110.217406,"endTime":110.32610166666666,"instrument":1,"program":12},{"pitch":71,"velocity":95,"startTime":110.3804495,"endTime":110.48914516666666,"instrument":1,"program":12},{"pitch":62,"velocity":95,"startTime":110.543493,"endTime":110.65218866666666,"instrument":1,"program":12},{"pitch":67,"velocity":95,"startTime":110.7065365,"endTime":110.81523216666666,"instrument":1,"program":12},{"pitch":62,"velocity":95,"startTime":110.86957999999998,"endTime":110.97827566666666,"instrument":1,"program":12},{"pitch":67,"velocity":95,"startTime":111.03262349999999,"endTime":111.14131916666666,"instrument":1,"program":12},{"pitch":71,"velocity":95,"startTime":111.19566699999999,"endTime":111.30436266666666,"instrument":1,"program":12},{"pitch":67,"velocity":95,"startTime":111.35871049999999,"endTime":111.46740616666666,"instrument":1,"program":12},{"pitch":71,"velocity":95,"startTime":111.52175399999999,"endTime":111.63044966666666,"instrument":1,"program":12},{"pitch":67,"velocity":95,"startTime":111.68479749999999,"endTime":111.79349316666666,"instrument":1,"program":12},{"pitch":62,"velocity":95,"startTime":111.84784099999999,"endTime":111.95653666666666,"instrument":1,"program":12},{"pitch":62,"velocity":95,"startTime":112.01088449999999,"endTime":112.11958016666665,"instrument":1,"program":12},{"pitch":63,"velocity":95,"startTime":112.17392799999999,"endTime":112.28262366666665,"instrument":1,"program":12},{"pitch":67,"velocity":95,"startTime":112.33697149999999,"endTime":112.44566716666665,"instrument":1,"program":12},{"pitch":70,"velocity":95,"startTime":112.50001499999999,"endTime":112.60871066666665,"instrument":1,"program":12},{"pitch":63,"velocity":95,"startTime":112.66305849999999,"endTime":112.77175416666665,"instrument":1,"program":12},{"pitch":75,"velocity":95,"startTime":112.82610199999999,"endTime":112.93479766666665,"instrument":1,"program":12},{"pitch":70,"velocity":95,"startTime":112.98914549999999,"endTime":113.09784116666665,"instrument":1,"program":12},{"pitch":67,"velocity":95,"startTime":113.15218899999999,"endTime":113.26088466666666,"instrument":1,"program":12},{"pitch":63,"velocity":95,"startTime":113.3152325,"endTime":113.42392816666666,"instrument":1,"program":12},{"pitch":70,"velocity":95,"startTime":113.478276,"endTime":113.58697166666666,"instrument":1,"program":12},{"pitch":67,"velocity":95,"startTime":113.6413195,"endTime":113.75001516666666,"instrument":1,"program":12},{"pitch":72,"velocity":95,"startTime":113.804363,"endTime":113.91305866666666,"instrument":1,"program":12},{"pitch":70,"velocity":95,"startTime":113.9674065,"endTime":114.07610216666666,"instrument":1,"program":12},{"pitch":63,"velocity":95,"startTime":114.13045,"endTime":114.23914566666666,"instrument":1,"program":12},{"pitch":67,"velocity":95,"startTime":114.2934935,"endTime":114.40218916666666,"instrument":1,"program":12},{"pitch":70,"velocity":95,"startTime":114.456537,"endTime":114.56523266666666,"instrument":1,"program":12},{"pitch":63,"velocity":95,"startTime":114.6195805,"endTime":114.72827616666666,"instrument":1,"program":12},{"pitch":63,"velocity":95,"startTime":114.782624,"endTime":114.89131966666666,"instrument":1,"program":12},{"pitch":72,"velocity":95,"startTime":114.94566749999998,"endTime":115.05436316666666,"instrument":1,"program":12},{"pitch":72,"velocity":95,"startTime":115.10871099999999,"endTime":115.21740666666666,"instrument":1,"program":12},{"pitch":75,"velocity":95,"startTime":115.27175449999999,"endTime":115.38045016666666,"instrument":1,"program":12},{"pitch":72,"velocity":95,"startTime":115.43479799999999,"endTime":115.54349366666666,"instrument":1,"program":12},{"pitch":63,"velocity":95,"startTime":115.59784149999999,"endTime":115.70653716666666,"instrument":1,"program":12},{"pitch":72,"velocity":95,"startTime":115.76088499999999,"endTime":115.86958066666666,"instrument":1,"program":12},{"pitch":72,"velocity":95,"startTime":115.92392849999999,"endTime":116.03262416666666,"instrument":1,"program":12},{"pitch":75,"velocity":95,"startTime":116.08697199999999,"endTime":116.19566766666665,"instrument":1,"program":12},{"pitch":75,"velocity":95,"startTime":116.25001549999999,"endTime":116.35871116666665,"instrument":1,"program":12},{"pitch":72,"velocity":95,"startTime":116.41305899999999,"endTime":116.52175466666665,"instrument":1,"program":12},{"pitch":75,"velocity":95,"startTime":116.57610249999999,"endTime":116.68479816666665,"instrument":1,"program":12},{"pitch":63,"velocity":95,"startTime":116.73914599999999,"endTime":116.84784166666665,"instrument":1,"program":12},{"pitch":70,"velocity":95,"startTime":116.90218949999999,"endTime":117.01088516666665,"instrument":1,"program":12},{"pitch":72,"velocity":95,"startTime":117.06523299999999,"endTime":117.17392866666665,"instrument":1,"program":12},{"pitch":63,"velocity":95,"startTime":117.22827649999999,"endTime":117.33697216666665,"instrument":1,"program":12},{"pitch":62,"velocity":95,"startTime":117.39132,"endTime":117.50001566666666,"instrument":1,"program":12},{"pitch":70,"velocity":95,"startTime":117.5543635,"endTime":117.66305916666666,"instrument":1,"program":12},{"pitch":67,"velocity":95,"startTime":117.717407,"endTime":117.82610266666666,"instrument":1,"program":12},{"pitch":62,"velocity":95,"startTime":117.8804505,"endTime":117.98914616666666,"instrument":1,"program":12},{"pitch":67,"velocity":95,"startTime":118.043494,"endTime":118.15218966666666,"instrument":1,"program":12},{"pitch":74,"velocity":95,"startTime":118.2065375,"endTime":118.31523316666666,"instrument":1,"program":12},{"pitch":70,"velocity":95,"startTime":118.369581,"endTime":118.47827666666666,"instrument":1,"program":12},{"pitch":67,"velocity":95,"startTime":118.5326245,"endTime":118.64132016666666,"instrument":1,"program":12},{"pitch":62,"velocity":95,"startTime":118.695668,"endTime":118.80436366666666,"instrument":1,"program":12},{"pitch":70,"velocity":95,"startTime":118.85871149999998,"endTime":118.96740716666666,"instrument":1,"program":12},{"pitch":67,"velocity":95,"startTime":119.02175499999998,"endTime":119.13045066666666,"instrument":1,"program":12},{"pitch":62,"velocity":95,"startTime":119.18479849999999,"endTime":119.29349416666666,"instrument":1,"program":12},{"pitch":67,"velocity":95,"startTime":119.34784199999999,"endTime":119.45653766666666,"instrument":1,"program":12},{"pitch":70,"velocity":95,"startTime":119.51088549999999,"endTime":119.61958116666666,"instrument":1,"program":12},{"pitch":67,"velocity":95,"startTime":119.67392899999999,"endTime":119.78262466666666,"instrument":1,"program":12},{"pitch":70,"velocity":95,"startTime":119.83697249999999,"endTime":119.94566816666666,"instrument":1,"program":12},{"pitch":62,"velocity":95,"startTime":120.00001599999999,"endTime":120.10871166666666,"instrument":1,"program":12},{"pitch":69,"velocity":95,"startTime":120.16305949999999,"endTime":120.27175516666665,"instrument":1,"program":12},{"pitch":72,"velocity":95,"startTime":120.32610299999999,"endTime":120.43479866666665,"instrument":1,"program":12},{"pitch":69,"velocity":95,"startTime":120.48914649999999,"endTime":120.59784216666665,"instrument":1,"program":12},{"pitch":74,"velocity":95,"startTime":120.65218999999999,"endTime":120.76088566666665,"instrument":1,"program":12},{"pitch":69,"velocity":95,"startTime":120.81523349999999,"endTime":120.92392916666665,"instrument":1,"program":12},{"pitch":69,"velocity":95,"startTime":120.97827699999999,"endTime":121.08697266666665,"instrument":1,"program":12},{"pitch":69,"velocity":95,"startTime":121.14132049999999,"endTime":121.25001616666665,"instrument":1,"program":12},{"pitch":62,"velocity":95,"startTime":121.30436399999999,"endTime":121.41305966666665,"instrument":1,"program":12},{"pitch":69,"velocity":95,"startTime":121.4674075,"endTime":121.57610316666666,"instrument":1,"program":12},{"pitch":74,"velocity":95,"startTime":121.630451,"endTime":121.73914666666666,"instrument":1,"program":12},{"pitch":69,"velocity":95,"startTime":121.7934945,"endTime":121.90219016666666,"instrument":1,"program":12},{"pitch":69,"velocity":95,"startTime":121.956538,"endTime":122.06523366666666,"instrument":1,"program":12},{"pitch":74,"velocity":95,"startTime":122.1195815,"endTime":122.22827716666666,"instrument":1,"program":12},{"pitch":69,"velocity":95,"startTime":122.282625,"endTime":122.39132066666666,"instrument":1,"program":12},{"pitch":69,"velocity":95,"startTime":122.4456685,"endTime":122.55436416666666,"instrument":1,"program":12},{"pitch":62,"velocity":95,"startTime":122.608712,"endTime":122.71740766666666,"instrument":1,"program":12},{"pitch":69,"velocity":95,"startTime":122.7717555,"endTime":122.88045116666666,"instrument":1,"program":12},{"pitch":74,"velocity":95,"startTime":122.93479899999998,"endTime":123.04349466666666,"instrument":1,"program":12},{"pitch":69,"velocity":95,"startTime":123.09784249999998,"endTime":123.20653816666666,"instrument":1,"program":12},{"pitch":74,"velocity":95,"startTime":123.26088599999999,"endTime":123.36958166666666,"instrument":1,"program":12},{"pitch":69,"velocity":95,"startTime":123.42392949999999,"endTime":123.53262516666666,"instrument":1,"program":12},{"pitch":69,"velocity":95,"startTime":123.58697299999999,"endTime":123.69566866666666,"instrument":1,"program":12},{"pitch":74,"velocity":95,"startTime":123.75001649999999,"endTime":123.85871216666666,"instrument":1,"program":12},{"pitch":69,"velocity":95,"startTime":123.91305999999999,"endTime":124.02175566666666,"instrument":1,"program":12},{"pitch":69,"velocity":95,"startTime":124.07610349999999,"endTime":124.18479916666666,"instrument":1,"program":12},{"pitch":74,"velocity":95,"startTime":124.23914699999999,"endTime":124.34784266666665,"instrument":1,"program":12},{"pitch":69,"velocity":95,"startTime":124.40219049999999,"endTime":124.51088616666665,"instrument":1,"program":12},{"pitch":74,"velocity":95,"startTime":124.56523399999999,"endTime":124.67392966666665,"instrument":1,"program":12},{"pitch":69,"velocity":95,"startTime":124.72827749999999,"endTime":124.83697316666665,"instrument":1,"program":12},{"pitch":69,"velocity":95,"startTime":124.89132099999999,"endTime":125.00001666666665,"instrument":1,"program":12},{"pitch":69,"velocity":95,"startTime":125.05436449999999,"endTime":125.16306016666665,"instrument":1,"program":12},{"pitch":43,"velocity":110,"startTime":104.34783999999999,"endTime":104.45653566666665,"instrument":2,"program":32},{"pitch":43,"velocity":110,"startTime":104.51088349999999,"endTime":104.67392699999999,"instrument":2,"program":32},{"pitch":43,"velocity":110,"startTime":104.83697049999999,"endTime":104.94566616666665,"instrument":2,"program":32},{"pitch":43,"velocity":110,"startTime":105.000014,"endTime":105.10870966666666,"instrument":2,"program":32},{"pitch":29,"velocity":110,"startTime":105.1630575,"endTime":105.27175316666666,"instrument":2,"program":32},{"pitch":31,"velocity":110,"startTime":105.326101,"endTime":105.4891445,"instrument":2,"program":32},{"pitch":29,"velocity":110,"startTime":105.652188,"endTime":105.76088366666666,"instrument":2,"program":32},{"pitch":29,"velocity":110,"startTime":105.8152315,"endTime":105.92392716666666,"instrument":2,"program":32},{"pitch":36,"velocity":110,"startTime":106.1413185,"endTime":106.304362,"instrument":2,"program":32},{"pitch":36,"velocity":110,"startTime":106.4674055,"endTime":106.57610116666666,"instrument":2,"program":32},{"pitch":29,"velocity":110,"startTime":106.630449,"endTime":106.79349249999999,"instrument":2,"program":32},{"pitch":28,"velocity":110,"startTime":106.95653599999999,"endTime":107.06523166666666,"instrument":2,"program":32},{"pitch":28,"velocity":110,"startTime":107.11957949999999,"endTime":107.22827516666666,"instrument":2,"program":32},{"pitch":31,"velocity":110,"startTime":107.28262299999999,"endTime":107.39131866666666,"instrument":2,"program":32},{"pitch":33,"velocity":110,"startTime":107.60870999999999,"endTime":107.77175349999999,"instrument":2,"program":32},{"pitch":45,"velocity":110,"startTime":107.93479699999999,"endTime":108.09784049999999,"instrument":2,"program":32},{"pitch":39,"velocity":110,"startTime":108.26088399999999,"endTime":108.42392749999999,"instrument":2,"program":32},{"pitch":39,"velocity":110,"startTime":108.58697099999999,"endTime":108.75001449999999,"instrument":2,"program":32},{"pitch":39,"velocity":110,"startTime":108.91305799999999,"endTime":109.0761015,"instrument":2,"program":32},{"pitch":43,"velocity":110,"startTime":109.239145,"endTime":109.4021885,"instrument":2,"program":32},{"pitch":31,"velocity":110,"startTime":109.565232,"endTime":109.7282755,"instrument":2,"program":32},{"pitch":36,"velocity":110,"startTime":112.01088449999999,"endTime":112.17392799999999,"instrument":2,"program":32},{"pitch":36,"velocity":110,"startTime":112.17392799999999,"endTime":112.33697149999999,"instrument":2,"program":32},{"pitch":36,"velocity":110,"startTime":112.50001499999999,"endTime":112.66305849999999,"instrument":2,"program":32},{"pitch":31,"velocity":110,"startTime":112.82610199999999,"endTime":112.93479766666665,"instrument":2,"program":32},{"pitch":31,"velocity":110,"startTime":112.98914549999999,"endTime":113.09784116666665,"instrument":2,"program":32},{"pitch":36,"velocity":110,"startTime":113.15218899999999,"endTime":113.3152325,"instrument":2,"program":32},{"pitch":36,"velocity":110,"startTime":113.478276,"endTime":113.58697166666666,"instrument":2,"program":32},{"pitch":31,"velocity":110,"startTime":113.6413195,"endTime":113.804363,"instrument":2,"program":32},{"pitch":29,"velocity":110,"startTime":114.13045,"endTime":114.34784133333332,"instrument":2,"program":32},{"pitch":46,"velocity":110,"startTime":114.456537,"endTime":114.6195805,"instrument":2,"program":32},{"pitch":36,"velocity":110,"startTime":114.782624,"endTime":114.94566749999998,"instrument":2,"program":32},{"pitch":36,"velocity":110,"startTime":115.10871099999999,"endTime":115.27175449999999,"instrument":2,"program":32},{"pitch":36,"velocity":110,"startTime":115.43479799999999,"endTime":115.59784149999999,"instrument":2,"program":32},{"pitch":36,"velocity":110,"startTime":115.76088499999999,"endTime":115.92392849999999,"instrument":2,"program":32},{"pitch":36,"velocity":110,"startTime":116.08697199999999,"endTime":116.25001549999999,"instrument":2,"program":32},{"pitch":36,"velocity":110,"startTime":116.41305899999999,"endTime":116.57610249999999,"instrument":2,"program":32},{"pitch":36,"velocity":110,"startTime":116.73914599999999,"endTime":116.90218949999999,"instrument":2,"program":32},{"pitch":36,"velocity":110,"startTime":117.06523299999999,"endTime":117.22827649999999,"instrument":2,"program":32},{"pitch":31,"velocity":110,"startTime":117.39132,"endTime":117.5543635,"instrument":2,"program":32},{"pitch":31,"velocity":110,"startTime":117.717407,"endTime":117.8804505,"instrument":2,"program":32},{"pitch":31,"velocity":110,"startTime":118.043494,"endTime":118.2065375,"instrument":2,"program":32},{"pitch":31,"velocity":110,"startTime":118.369581,"endTime":118.5326245,"instrument":2,"program":32},{"pitch":31,"velocity":110,"startTime":118.695668,"endTime":118.85871149999998,"instrument":2,"program":32},{"pitch":31,"velocity":110,"startTime":119.02175499999998,"endTime":119.18479849999999,"instrument":2,"program":32},{"pitch":31,"velocity":110,"startTime":119.34784199999999,"endTime":119.61958116666666,"instrument":2,"program":32},{"pitch":43,"velocity":110,"startTime":119.67392899999999,"endTime":119.83697249999999,"instrument":2,"program":32},{"pitch":38,"velocity":110,"startTime":120.00001599999999,"endTime":120.16305949999999,"instrument":2,"program":32},{"pitch":38,"velocity":110,"startTime":120.32610299999999,"endTime":120.48914649999999,"instrument":2,"program":32},{"pitch":38,"velocity":110,"startTime":120.65218999999999,"endTime":120.81523349999999,"instrument":2,"program":32},{"pitch":38,"velocity":110,"startTime":120.97827699999999,"endTime":121.14132049999999,"instrument":2,"program":32},{"pitch":42,"velocity":110,"startTime":121.30436399999999,"endTime":121.41305966666665,"instrument":2,"program":32},{"pitch":45,"velocity":110,"startTime":121.4674075,"endTime":121.630451,"instrument":2,"program":32},{"pitch":38,"velocity":110,"startTime":121.630451,"endTime":121.7934945,"instrument":2,"program":32},{"pitch":31,"velocity":110,"startTime":121.956538,"endTime":122.1195815,"instrument":2,"program":32},{"pitch":42,"velocity":110,"startTime":122.282625,"endTime":122.4456685,"instrument":2,"program":32},{"pitch":33,"velocity":110,"startTime":122.608712,"endTime":122.7717555,"instrument":2,"program":32},{"pitch":33,"velocity":110,"startTime":122.93479899999998,"endTime":123.09784249999998,"instrument":2,"program":32},{"pitch":38,"velocity":110,"startTime":123.26088599999999,"endTime":123.42392949999999,"instrument":2,"program":32},{"pitch":38,"velocity":110,"startTime":123.58697299999999,"endTime":123.75001649999999,"instrument":2,"program":32},{"pitch":31,"velocity":110,"startTime":123.91305999999999,"endTime":124.07610349999999,"instrument":2,"program":32},{"pitch":31,"velocity":110,"startTime":124.23914699999999,"endTime":124.40219049999999,"instrument":2,"program":32},{"pitch":38,"velocity":110,"startTime":124.56523399999999,"endTime":124.72827749999999,"instrument":2,"program":32},{"pitch":43,"velocity":110,"startTime":124.89132099999999,"endTime":125.05436449999999,"instrument":2,"program":32},{"pitch":58,"velocity":105,"startTime":104.34783999999999,"endTime":105.652188,"instrument":3,"program":50},{"pitch":62,"velocity":105,"startTime":104.34783999999999,"endTime":105.652188,"instrument":3,"program":50},{"pitch":65,"velocity":105,"startTime":104.34783999999999,"endTime":105.652188,"instrument":3,"program":50},{"pitch":67,"velocity":105,"startTime":104.34783999999999,"endTime":105.652188,"instrument":3,"program":50},{"pitch":57,"velocity":105,"startTime":105.652188,"endTime":106.95653599999999,"instrument":3,"program":50},{"pitch":58,"velocity":105,"startTime":105.652188,"endTime":106.95653599999999,"instrument":3,"program":50},{"pitch":62,"velocity":105,"startTime":105.652188,"endTime":106.95653599999999,"instrument":3,"program":50},{"pitch":65,"velocity":105,"startTime":105.652188,"endTime":106.95653599999999,"instrument":3,"program":50},{"pitch":55,"velocity":105,"startTime":106.95653599999999,"endTime":108.26088399999999,"instrument":3,"program":50},{"pitch":57,"velocity":105,"startTime":106.95653599999999,"endTime":108.26088399999999,"instrument":3,"program":50},{"pitch":64,"velocity":105,"startTime":106.95653599999999,"endTime":108.26088399999999,"instrument":3,"program":50},{"pitch":67,"velocity":105,"startTime":106.95653599999999,"endTime":108.26088399999999,"instrument":3,"program":50},{"pitch":58,"velocity":105,"startTime":108.26088399999999,"endTime":108.80436233333333,"instrument":3,"program":50},{"pitch":62,"velocity":105,"startTime":108.26088399999999,"endTime":108.80436233333333,"instrument":3,"program":50},{"pitch":65,"velocity":105,"startTime":108.26088399999999,"endTime":108.80436233333333,"instrument":3,"program":50},{"pitch":69,"velocity":105,"startTime":108.26088399999999,"endTime":108.80436233333333,"instrument":3,"program":50},{"pitch":58,"velocity":105,"startTime":108.91305799999999,"endTime":109.565232,"instrument":3,"program":50},{"pitch":62,"velocity":105,"startTime":108.91305799999999,"endTime":109.565232,"instrument":3,"program":50},{"pitch":65,"velocity":105,"startTime":108.91305799999999,"endTime":109.565232,"instrument":3,"program":50},{"pitch":69,"velocity":105,"startTime":108.91305799999999,"endTime":109.565232,"instrument":3,"program":50},{"pitch":55,"velocity":105,"startTime":109.565232,"endTime":109.78262333333332,"instrument":3,"program":50},{"pitch":62,"velocity":105,"startTime":109.565232,"endTime":109.7282755,"instrument":3,"program":50},{"pitch":65,"velocity":105,"startTime":109.565232,"endTime":109.7282755,"instrument":3,"program":50},{"pitch":71,"velocity":105,"startTime":109.565232,"endTime":109.7282755,"instrument":3,"program":50},{"pitch":63,"velocity":105,"startTime":112.17392799999999,"endTime":114.72827616666666,"instrument":3,"program":50},{"pitch":67,"velocity":105,"startTime":112.17392799999999,"endTime":114.72827616666666,"instrument":3,"program":50},{"pitch":70,"velocity":105,"startTime":112.17392799999999,"endTime":114.67392833333332,"instrument":3,"program":50},{"pitch":72,"velocity":105,"startTime":112.17392799999999,"endTime":114.67392833333332,"instrument":3,"program":50},{"pitch":55,"velocity":105,"startTime":114.782624,"endTime":117.39132,"instrument":3,"program":50},{"pitch":60,"velocity":105,"startTime":114.782624,"endTime":117.39132,"instrument":3,"program":50},{"pitch":63,"velocity":105,"startTime":114.782624,"endTime":117.39132,"instrument":3,"program":50},{"pitch":70,"velocity":105,"startTime":114.782624,"endTime":117.39132,"instrument":3,"program":50},{"pitch":58,"velocity":105,"startTime":117.39132,"endTime":118.369581,"instrument":3,"program":50},{"pitch":62,"velocity":105,"startTime":117.39132,"endTime":118.369581,"instrument":3,"program":50},{"pitch":67,"velocity":105,"startTime":117.39132,"endTime":118.369581,"instrument":3,"program":50},{"pitch":74,"velocity":105,"startTime":117.39132,"endTime":118.64132016666666,"instrument":3,"program":50},{"pitch":62,"velocity":105,"startTime":118.369581,"endTime":118.58697233333332,"instrument":3,"program":50},{"pitch":67,"velocity":105,"startTime":118.369581,"endTime":118.64132016666666,"instrument":3,"program":50},{"pitch":70,"velocity":105,"startTime":118.369581,"endTime":118.58697233333332,"instrument":3,"program":50},{"pitch":62,"velocity":105,"startTime":118.695668,"endTime":120.00001599999999,"instrument":3,"program":50},{"pitch":67,"velocity":105,"startTime":118.695668,"endTime":119.18479849999999,"instrument":3,"program":50},{"pitch":70,"velocity":105,"startTime":118.695668,"endTime":119.18479849999999,"instrument":3,"program":50},{"pitch":74,"velocity":105,"startTime":118.695668,"endTime":119.18479849999999,"instrument":3,"program":50},{"pitch":67,"velocity":105,"startTime":119.23914633333332,"endTime":119.29349416666666,"instrument":3,"program":50},{"pitch":70,"velocity":105,"startTime":119.29349416666666,"endTime":120.00001599999999,"instrument":3,"program":50},{"pitch":67,"velocity":105,"startTime":119.34784199999999,"endTime":120.00001599999999,"instrument":3,"program":50},{"pitch":60,"velocity":105,"startTime":120.00001599999999,"endTime":122.55436416666666,"instrument":3,"program":50},{"pitch":62,"velocity":105,"startTime":120.00001599999999,"endTime":122.55436416666666,"instrument":3,"program":50},{"pitch":66,"velocity":105,"startTime":120.00001599999999,"endTime":122.55436416666666,"instrument":3,"program":50},{"pitch":69,"velocity":105,"startTime":120.00001599999999,"endTime":122.55436416666666,"instrument":3,"program":50},{"pitch":60,"velocity":105,"startTime":122.608712,"endTime":123.26088599999999,"instrument":3,"program":50},{"pitch":62,"velocity":105,"startTime":122.608712,"endTime":123.26088599999999,"instrument":3,"program":50},{"pitch":70,"velocity":105,"startTime":122.608712,"endTime":123.26088599999999,"instrument":3,"program":50},{"pitch":73,"velocity":105,"startTime":122.608712,"endTime":123.26088599999999,"instrument":3,"program":50},{"pitch":62,"velocity":105,"startTime":123.26088599999999,"endTime":125.00001666666665,"instrument":3,"program":50},{"pitch":65,"velocity":105,"startTime":123.26088599999999,"endTime":123.42392949999999,"instrument":3,"program":50},{"pitch":70,"velocity":105,"startTime":123.26088599999999,"endTime":125.00001666666665,"instrument":3,"program":50},{"pitch":74,"velocity":105,"startTime":123.26088599999999,"endTime":123.42392949999999,"instrument":3,"program":50},{"pitch":74,"velocity":105,"startTime":123.47827733333332,"endTime":123.75001649999999,"instrument":3,"program":50},{"pitch":65,"velocity":105,"startTime":123.58697299999999,"endTime":123.80436433333333,"instrument":3,"program":50},{"pitch":70,"velocity":105,"startTime":123.58697299999999,"endTime":123.75001649999999,"instrument":3,"program":50},{"pitch":65,"velocity":105,"startTime":123.85871216666666,"endTime":125.00001666666665,"instrument":3,"program":50},{"pitch":70,"velocity":105,"startTime":123.85871216666666,"endTime":125.00001666666665,"instrument":3,"program":50},{"pitch":35,"velocity":102,"startTime":125.21740799999999,"endTime":125.38045149999999,"isDrum":true},{"pitch":42,"velocity":102,"startTime":125.21740799999999,"endTime":125.38045149999999,"isDrum":true},{"pitch":51,"velocity":102,"startTime":125.21740799999999,"endTime":125.38045149999999,"isDrum":true},{"pitch":42,"velocity":102,"startTime":125.543495,"endTime":125.7065385,"isDrum":true},{"pitch":40,"velocity":102,"startTime":125.869582,"endTime":126.0326255,"isDrum":true},{"pitch":42,"velocity":102,"startTime":125.869582,"endTime":126.0326255,"isDrum":true},{"pitch":42,"velocity":102,"startTime":126.195669,"endTime":126.3587125,"isDrum":true},{"pitch":35,"velocity":102,"startTime":126.3587125,"endTime":126.521756,"isDrum":true},{"pitch":35,"velocity":102,"startTime":126.521756,"endTime":126.6847995,"isDrum":true},{"pitch":42,"velocity":102,"startTime":126.521756,"endTime":126.6847995,"isDrum":true},{"pitch":42,"velocity":102,"startTime":126.847843,"endTime":127.01088649999998,"isDrum":true},{"pitch":40,"velocity":102,"startTime":127.17392999999998,"endTime":127.33697349999998,"isDrum":true},{"pitch":42,"velocity":102,"startTime":127.17392999999998,"endTime":127.33697349999998,"isDrum":true},{"pitch":42,"velocity":102,"startTime":127.50001699999999,"endTime":127.66306049999999,"isDrum":true},{"pitch":35,"velocity":102,"startTime":127.66306049999999,"endTime":127.82610399999999,"isDrum":true},{"pitch":35,"velocity":102,"startTime":127.82610399999999,"endTime":127.98914749999999,"isDrum":true},{"pitch":42,"velocity":102,"startTime":127.82610399999999,"endTime":127.98914749999999,"isDrum":true},{"pitch":42,"velocity":102,"startTime":128.152191,"endTime":128.3152345,"isDrum":true},{"pitch":40,"velocity":102,"startTime":128.478278,"endTime":128.6413215,"isDrum":true},{"pitch":42,"velocity":102,"startTime":128.478278,"endTime":128.6413215,"isDrum":true},{"pitch":42,"velocity":102,"startTime":128.804365,"endTime":128.96740849999998,"isDrum":true},{"pitch":35,"velocity":102,"startTime":128.96740849999998,"endTime":129.130452,"isDrum":true},{"pitch":35,"velocity":102,"startTime":129.130452,"endTime":129.29349549999998,"isDrum":true},{"pitch":42,"velocity":102,"startTime":129.130452,"endTime":129.29349549999998,"isDrum":true},{"pitch":42,"velocity":102,"startTime":129.456539,"endTime":129.61958249999998,"isDrum":true},{"pitch":40,"velocity":102,"startTime":129.782626,"endTime":129.94566949999998,"isDrum":true},{"pitch":42,"velocity":102,"startTime":129.782626,"endTime":129.94566949999998,"isDrum":true},{"pitch":42,"velocity":102,"startTime":130.108713,"endTime":130.27175649999998,"isDrum":true},{"pitch":35,"velocity":102,"startTime":130.4348,"endTime":130.59784349999998,"isDrum":true},{"pitch":42,"velocity":102,"startTime":130.4348,"endTime":130.59784349999998,"isDrum":true},{"pitch":42,"velocity":102,"startTime":130.760887,"endTime":130.92393049999998,"isDrum":true},{"pitch":35,"velocity":102,"startTime":130.92393049999998,"endTime":131.086974,"isDrum":true},{"pitch":40,"velocity":102,"startTime":131.086974,"endTime":131.25001749999998,"isDrum":true},{"pitch":42,"velocity":102,"startTime":131.086974,"endTime":131.25001749999998,"isDrum":true},{"pitch":35,"velocity":102,"startTime":131.413061,"endTime":131.57610449999999,"isDrum":true},{"pitch":42,"velocity":102,"startTime":131.413061,"endTime":131.57610449999999,"isDrum":true},{"pitch":35,"velocity":102,"startTime":131.739148,"endTime":131.9021915,"isDrum":true},{"pitch":42,"velocity":102,"startTime":131.739148,"endTime":131.9021915,"isDrum":true},{"pitch":42,"velocity":102,"startTime":132.065235,"endTime":132.2282785,"isDrum":true},{"pitch":40,"velocity":102,"startTime":132.391322,"endTime":132.5543655,"isDrum":true},{"pitch":42,"velocity":102,"startTime":132.391322,"endTime":132.5543655,"isDrum":true},{"pitch":42,"velocity":102,"startTime":132.717409,"endTime":132.8804525,"isDrum":true},{"pitch":35,"velocity":102,"startTime":133.04349599999998,"endTime":133.2065395,"isDrum":true},{"pitch":42,"velocity":102,"startTime":133.04349599999998,"endTime":133.2065395,"isDrum":true},{"pitch":42,"velocity":102,"startTime":133.36958299999998,"endTime":133.5326265,"isDrum":true},{"pitch":40,"velocity":102,"startTime":133.69566999999998,"endTime":133.8587135,"isDrum":true},{"pitch":42,"velocity":102,"startTime":133.69566999999998,"endTime":133.8587135,"isDrum":true},{"pitch":42,"velocity":102,"startTime":134.02175699999998,"endTime":134.1848005,"isDrum":true},{"pitch":35,"velocity":102,"startTime":134.1848005,"endTime":134.34784399999998,"isDrum":true},{"pitch":35,"velocity":102,"startTime":134.34784399999998,"endTime":134.5108875,"isDrum":true},{"pitch":42,"velocity":102,"startTime":134.34784399999998,"endTime":134.5108875,"isDrum":true},{"pitch":42,"velocity":102,"startTime":134.67393099999998,"endTime":134.8369745,"isDrum":true},{"pitch":40,"velocity":102,"startTime":135.00001799999998,"endTime":135.1630615,"isDrum":true},{"pitch":42,"velocity":102,"startTime":135.00001799999998,"endTime":135.1630615,"isDrum":true},{"pitch":42,"velocity":102,"startTime":135.32610499999998,"endTime":135.4891485,"isDrum":true},{"pitch":35,"velocity":102,"startTime":135.4891485,"endTime":135.65219199999999,"isDrum":true},{"pitch":35,"velocity":102,"startTime":135.65219199999999,"endTime":135.8152355,"isDrum":true},{"pitch":42,"velocity":102,"startTime":135.65219199999999,"endTime":135.8152355,"isDrum":true},{"pitch":42,"velocity":102,"startTime":135.978279,"endTime":136.1413225,"isDrum":true},{"pitch":40,"velocity":102,"startTime":136.304366,"endTime":136.4674095,"isDrum":true},{"pitch":42,"velocity":102,"startTime":136.304366,"endTime":136.4674095,"isDrum":true},{"pitch":42,"velocity":102,"startTime":136.630453,"endTime":136.7934965,"isDrum":true},{"pitch":35,"velocity":102,"startTime":136.7934965,"endTime":136.95654,"isDrum":true},{"pitch":35,"velocity":102,"startTime":136.95654,"endTime":137.11958349999998,"isDrum":true},{"pitch":42,"velocity":102,"startTime":136.95654,"endTime":137.11958349999998,"isDrum":true},{"pitch":42,"velocity":102,"startTime":137.282627,"endTime":137.44567049999998,"isDrum":true},{"pitch":40,"velocity":102,"startTime":137.608714,"endTime":137.77175749999998,"isDrum":true},{"pitch":42,"velocity":102,"startTime":137.608714,"endTime":137.77175749999998,"isDrum":true},{"pitch":42,"velocity":102,"startTime":137.934801,"endTime":138.09784449999998,"isDrum":true},{"pitch":35,"velocity":102,"startTime":138.260888,"endTime":138.42393149999998,"isDrum":true},{"pitch":42,"velocity":102,"startTime":138.260888,"endTime":138.42393149999998,"isDrum":true},{"pitch":42,"velocity":102,"startTime":138.586975,"endTime":138.75001849999998,"isDrum":true},{"pitch":40,"velocity":102,"startTime":138.913062,"endTime":139.07610549999998,"isDrum":true},{"pitch":42,"velocity":102,"startTime":138.913062,"endTime":139.07610549999998,"isDrum":true},{"pitch":42,"velocity":102,"startTime":139.239149,"endTime":139.40219249999998,"isDrum":true},{"pitch":35,"velocity":102,"startTime":139.40219249999998,"endTime":139.565236,"isDrum":true},{"pitch":35,"velocity":102,"startTime":139.565236,"endTime":139.72827949999999,"isDrum":true},{"pitch":42,"velocity":102,"startTime":139.565236,"endTime":139.72827949999999,"isDrum":true},{"pitch":42,"velocity":102,"startTime":139.891323,"endTime":140.0543665,"isDrum":true},{"pitch":40,"velocity":102,"startTime":140.21741,"endTime":140.3804535,"isDrum":true},{"pitch":42,"velocity":102,"startTime":140.21741,"endTime":140.3804535,"isDrum":true},{"pitch":42,"velocity":102,"startTime":140.543497,"endTime":140.7065405,"isDrum":true},{"pitch":35,"velocity":102,"startTime":140.7065405,"endTime":140.869584,"isDrum":true},{"pitch":35,"velocity":102,"startTime":140.869584,"endTime":141.0326275,"isDrum":true},{"pitch":42,"velocity":102,"startTime":140.869584,"endTime":141.0326275,"isDrum":true},{"pitch":42,"velocity":102,"startTime":141.19567099999998,"endTime":141.3587145,"isDrum":true},{"pitch":40,"velocity":102,"startTime":141.52175799999998,"endTime":141.6848015,"isDrum":true},{"pitch":42,"velocity":102,"startTime":141.52175799999998,"endTime":141.6848015,"isDrum":true},{"pitch":42,"velocity":102,"startTime":141.84784499999998,"endTime":142.0108885,"isDrum":true},{"pitch":35,"velocity":102,"startTime":142.0108885,"endTime":142.17393199999998,"isDrum":true},{"pitch":35,"velocity":102,"startTime":142.17393199999998,"endTime":142.3369755,"isDrum":true},{"pitch":42,"velocity":102,"startTime":142.17393199999998,"endTime":142.3369755,"isDrum":true},{"pitch":42,"velocity":102,"startTime":142.50001899999998,"endTime":142.6630625,"isDrum":true},{"pitch":40,"velocity":102,"startTime":142.82610599999998,"endTime":142.9891495,"isDrum":true},{"pitch":42,"velocity":102,"startTime":142.82610599999998,"endTime":142.9891495,"isDrum":true},{"pitch":42,"velocity":102,"startTime":143.15219299999998,"endTime":143.3152365,"isDrum":true},{"pitch":35,"velocity":102,"startTime":143.3152365,"endTime":143.47827999999998,"isDrum":true},{"pitch":35,"velocity":102,"startTime":143.47827999999998,"endTime":143.6413235,"isDrum":true},{"pitch":42,"velocity":102,"startTime":143.47827999999998,"endTime":143.6413235,"isDrum":true},{"pitch":42,"velocity":102,"startTime":143.80436699999998,"endTime":143.9674105,"isDrum":true},{"pitch":40,"velocity":102,"startTime":144.130454,"endTime":144.2934975,"isDrum":true},{"pitch":42,"velocity":102,"startTime":144.130454,"endTime":144.2934975,"isDrum":true},{"pitch":42,"velocity":102,"startTime":144.456541,"endTime":144.6195845,"isDrum":true},{"pitch":35,"velocity":102,"startTime":144.6195845,"endTime":144.782628,"isDrum":true},{"pitch":35,"velocity":102,"startTime":144.782628,"endTime":144.9456715,"isDrum":true},{"pitch":42,"velocity":102,"startTime":144.782628,"endTime":144.9456715,"isDrum":true},{"pitch":42,"velocity":102,"startTime":145.108715,"endTime":145.27175849999998,"isDrum":true},{"pitch":40,"velocity":102,"startTime":145.434802,"endTime":145.59784549999998,"isDrum":true},{"pitch":42,"velocity":102,"startTime":145.434802,"endTime":145.59784549999998,"isDrum":true},{"pitch":42,"velocity":102,"startTime":145.760889,"endTime":145.92393249999998,"isDrum":true},{"pitch":69,"velocity":95,"startTime":125.38045149999999,"endTime":125.43479933333333,"instrument":1,"program":12},{"pitch":64,"velocity":95,"startTime":125.543495,"endTime":125.59784283333332,"instrument":1,"program":12},{"pitch":69,"velocity":95,"startTime":125.7065385,"endTime":125.76088633333332,"instrument":1,"program":12},{"pitch":74,"velocity":95,"startTime":125.869582,"endTime":125.97827766666666,"instrument":1,"program":12},{"pitch":69,"velocity":95,"startTime":126.0326255,"endTime":126.08697333333332,"instrument":1,"program":12},{"pitch":64,"velocity":95,"startTime":126.195669,"endTime":126.30436466666666,"instrument":1,"program":12},{"pitch":69,"velocity":95,"startTime":126.3587125,"endTime":126.46740816666666,"instrument":1,"program":12},{"pitch":64,"velocity":95,"startTime":126.521756,"endTime":126.63045166666666,"instrument":1,"program":12},{"pitch":69,"velocity":95,"startTime":126.6847995,"endTime":126.79349516666666,"instrument":1,"program":12},{"pitch":64,"velocity":95,"startTime":126.847843,"endTime":126.95653866666666,"instrument":1,"program":12},{"pitch":62,"velocity":95,"startTime":127.01088649999998,"endTime":127.06523433333332,"instrument":1,"program":12},{"pitch":69,"velocity":95,"startTime":127.17392999999998,"endTime":127.28262566666666,"instrument":1,"program":12},{"pitch":69,"velocity":95,"startTime":127.33697349999998,"endTime":127.39132133333332,"instrument":1,"program":12},{"pitch":72,"velocity":95,"startTime":127.50001699999999,"endTime":127.60871266666666,"instrument":1,"program":12},{"pitch":69,"velocity":95,"startTime":127.66306049999999,"endTime":127.77175616666666,"instrument":1,"program":12},{"pitch":62,"velocity":95,"startTime":127.82610399999999,"endTime":127.93479966666666,"instrument":1,"program":12},{"pitch":69,"velocity":95,"startTime":127.98914749999999,"endTime":128.09784316666665,"instrument":1,"program":12},{"pitch":74,"velocity":95,"startTime":128.152191,"endTime":128.26088666666666,"instrument":1,"program":12},{"pitch":69,"velocity":95,"startTime":128.3152345,"endTime":128.3695823333333,"instrument":1,"program":12},{"pitch":72,"velocity":95,"startTime":128.478278,"endTime":128.58697366666667,"instrument":1,"program":12},{"pitch":69,"velocity":95,"startTime":128.6413215,"endTime":128.6956693333333,"instrument":1,"program":12},{"pitch":69,"velocity":95,"startTime":128.804365,"endTime":128.91306066666667,"instrument":1,"program":12},{"pitch":74,"velocity":95,"startTime":128.96740849999998,"endTime":129.07610416666665,"instrument":1,"program":12},{"pitch":69,"velocity":95,"startTime":129.130452,"endTime":129.23914766666667,"instrument":1,"program":12},{"pitch":74,"velocity":95,"startTime":129.29349549999998,"endTime":129.40219116666665,"instrument":1,"program":12},{"pitch":69,"velocity":95,"startTime":129.456539,"endTime":129.56523466666667,"instrument":1,"program":12},{"pitch":74,"velocity":95,"startTime":129.61958249999998,"endTime":129.72827816666666,"instrument":1,"program":12},{"pitch":74,"velocity":95,"startTime":129.782626,"endTime":129.89132166666667,"instrument":1,"program":12},{"pitch":69,"velocity":95,"startTime":129.94566949999998,"endTime":130.00001733333332,"instrument":1,"program":12},{"pitch":69,"velocity":95,"startTime":130.108713,"endTime":130.21740866666667,"instrument":1,"program":12},{"pitch":72,"velocity":95,"startTime":130.27175649999998,"endTime":130.38045216666666,"instrument":1,"program":12},{"pitch":58,"velocity":95,"startTime":130.4348,"endTime":130.54349566666664,"instrument":1,"program":12},{"pitch":62,"velocity":95,"startTime":130.59784349999998,"endTime":130.70653916666666,"instrument":1,"program":12},{"pitch":67,"velocity":95,"startTime":130.760887,"endTime":130.86958266666664,"instrument":1,"program":12},{"pitch":62,"velocity":95,"startTime":130.92393049999998,"endTime":131.03262616666666,"instrument":1,"program":12},{"pitch":74,"velocity":95,"startTime":131.086974,"endTime":131.19566966666665,"instrument":1,"program":12},{"pitch":79,"velocity":95,"startTime":131.25001749999998,"endTime":131.30436533333332,"instrument":1,"program":12},{"pitch":70,"velocity":95,"startTime":131.413061,"endTime":131.52175666666665,"instrument":1,"program":12},{"pitch":62,"velocity":95,"startTime":131.57610449999999,"endTime":131.68480016666666,"instrument":1,"program":12},{"pitch":74,"velocity":95,"startTime":131.739148,"endTime":131.84784366666665,"instrument":1,"program":12},{"pitch":70,"velocity":95,"startTime":131.9021915,"endTime":132.01088716666666,"instrument":1,"program":12},{"pitch":74,"velocity":95,"startTime":132.065235,"endTime":132.17393066666665,"instrument":1,"program":12},{"pitch":74,"velocity":95,"startTime":132.2282785,"endTime":132.33697416666666,"instrument":1,"program":12},{"pitch":77,"velocity":95,"startTime":132.391322,"endTime":132.50001766666665,"instrument":1,"program":12},{"pitch":70,"velocity":95,"startTime":132.5543655,"endTime":132.60871333333333,"instrument":1,"program":12},{"pitch":67,"velocity":95,"startTime":132.717409,"endTime":132.7717568333333,"instrument":1,"program":12},{"pitch":62,"velocity":95,"startTime":132.8804525,"endTime":132.98914816666667,"instrument":1,"program":12},{"pitch":62,"velocity":95,"startTime":133.04349599999998,"endTime":133.15219166666665,"instrument":1,"program":12},{"pitch":67,"velocity":95,"startTime":133.2065395,"endTime":133.31523516666667,"instrument":1,"program":12},{"pitch":70,"velocity":95,"startTime":133.36958299999998,"endTime":133.47827866666665,"instrument":1,"program":12},{"pitch":74,"velocity":95,"startTime":133.5326265,"endTime":133.64132216666667,"instrument":1,"program":12},{"pitch":74,"velocity":95,"startTime":133.69566999999998,"endTime":133.80436566666665,"instrument":1,"program":12},{"pitch":70,"velocity":95,"startTime":133.8587135,"endTime":133.91306133333333,"instrument":1,"program":12},{"pitch":74,"velocity":95,"startTime":134.02175699999998,"endTime":134.13045266666666,"instrument":1,"program":12},{"pitch":70,"velocity":95,"startTime":134.1848005,"endTime":134.29349616666664,"instrument":1,"program":12},{"pitch":74,"velocity":95,"startTime":134.34784399999998,"endTime":134.45653966666666,"instrument":1,"program":12},{"pitch":70,"velocity":95,"startTime":134.5108875,"endTime":134.61958316666664,"instrument":1,"program":12},{"pitch":74,"velocity":95,"startTime":134.67393099999998,"endTime":134.78262666666666,"instrument":1,"program":12},{"pitch":70,"velocity":95,"startTime":134.8369745,"endTime":134.94567016666664,"instrument":1,"program":12},{"pitch":74,"velocity":95,"startTime":135.00001799999998,"endTime":135.10871366666666,"instrument":1,"program":12},{"pitch":70,"velocity":95,"startTime":135.1630615,"endTime":135.21740933333334,"instrument":1,"program":12},{"pitch":67,"velocity":95,"startTime":135.32610499999998,"endTime":135.38045283333332,"instrument":1,"program":12},{"pitch":70,"velocity":95,"startTime":135.4891485,"endTime":135.54349633333334,"instrument":1,"program":12},{"pitch":62,"velocity":95,"startTime":135.65219199999999,"endTime":135.76088766666666,"instrument":1,"program":12},{"pitch":69,"velocity":95,"startTime":135.8152355,"endTime":135.92393116666665,"instrument":1,"program":12},{"pitch":72,"velocity":95,"startTime":135.978279,"endTime":136.08697466666666,"instrument":1,"program":12},{"pitch":74,"velocity":95,"startTime":136.1413225,"endTime":136.25001816666665,"instrument":1,"program":12},{"pitch":69,"velocity":95,"startTime":136.304366,"endTime":136.41306166666666,"instrument":1,"program":12},{"pitch":72,"velocity":95,"startTime":136.4674095,"endTime":136.5217573333333,"instrument":1,"program":12},{"pitch":69,"velocity":95,"startTime":136.630453,"endTime":136.73914866666667,"instrument":1,"program":12},{"pitch":72,"velocity":95,"startTime":136.7934965,"endTime":136.90219216666665,"instrument":1,"program":12},{"pitch":74,"velocity":95,"startTime":136.95654,"endTime":137.06523566666667,"instrument":1,"program":12},{"pitch":69,"velocity":95,"startTime":137.11958349999998,"endTime":137.22827916666665,"instrument":1,"program":12},{"pitch":72,"velocity":95,"startTime":137.282627,"endTime":137.39132266666667,"instrument":1,"program":12},{"pitch":74,"velocity":95,"startTime":137.44567049999998,"endTime":137.55436616666665,"instrument":1,"program":12},{"pitch":74,"velocity":95,"startTime":137.608714,"endTime":137.71740966666667,"instrument":1,"program":12},{"pitch":69,"velocity":95,"startTime":137.77175749999998,"endTime":137.82610533333332,"instrument":1,"program":12},{"pitch":74,"velocity":95,"startTime":137.934801,"endTime":137.98914883333333,"instrument":1,"program":12},{"pitch":69,"velocity":95,"startTime":138.09784449999998,"endTime":138.15219233333332,"instrument":1,"program":12},{"pitch":62,"velocity":95,"startTime":138.260888,"endTime":138.36958366666664,"instrument":1,"program":12},{"pitch":71,"velocity":95,"startTime":138.42393149999998,"endTime":138.53262716666666,"instrument":1,"program":12},{"pitch":74,"velocity":95,"startTime":138.586975,"endTime":138.64132283333333,"instrument":1,"program":12},{"pitch":71,"velocity":95,"startTime":138.75001849999998,"endTime":138.80436633333332,"instrument":1,"program":12},{"pitch":74,"velocity":95,"startTime":138.913062,"endTime":139.02175766666664,"instrument":1,"program":12},{"pitch":74,"velocity":95,"startTime":139.07610549999998,"endTime":139.13045333333332,"instrument":1,"program":12},{"pitch":69,"velocity":95,"startTime":139.239149,"endTime":139.29349683333334,"instrument":1,"program":12},{"pitch":74,"velocity":95,"startTime":139.40219249999998,"endTime":139.45654033333332,"instrument":1,"program":12},{"pitch":74,"velocity":95,"startTime":139.565236,"endTime":139.67393166666665,"instrument":1,"program":12},{"pitch":74,"velocity":95,"startTime":139.72827949999999,"endTime":139.83697516666666,"instrument":1,"program":12},{"pitch":69,"velocity":95,"startTime":139.891323,"endTime":140.00001866666665,"instrument":1,"program":12},{"pitch":74,"velocity":95,"startTime":140.0543665,"endTime":140.16306216666666,"instrument":1,"program":12},{"pitch":74,"velocity":95,"startTime":140.21741,"endTime":140.32610566666665,"instrument":1,"program":12},{"pitch":69,"velocity":95,"startTime":140.3804535,"endTime":140.43480133333333,"instrument":1,"program":12},{"pitch":74,"velocity":95,"startTime":140.543497,"endTime":140.5978448333333,"instrument":1,"program":12},{"pitch":72,"velocity":95,"startTime":140.7065405,"endTime":140.81523616666666,"instrument":1,"program":12},{"pitch":62,"velocity":95,"startTime":140.869584,"endTime":140.97827966666665,"instrument":1,"program":12},{"pitch":67,"velocity":95,"startTime":141.0326275,"endTime":141.14132316666667,"instrument":1,"program":12},{"pitch":70,"velocity":95,"startTime":141.19567099999998,"endTime":141.30436666666665,"instrument":1,"program":12},{"pitch":79,"velocity":95,"startTime":141.3587145,"endTime":141.46741016666667,"instrument":1,"program":12},{"pitch":82,"velocity":95,"startTime":141.52175799999998,"endTime":141.63045366666665,"instrument":1,"program":12},{"pitch":79,"velocity":95,"startTime":141.6848015,"endTime":141.73914933333333,"instrument":1,"program":12},{"pitch":70,"velocity":95,"startTime":141.84784499999998,"endTime":141.90219283333332,"instrument":1,"program":12},{"pitch":76,"velocity":95,"startTime":142.0108885,"endTime":142.06523633333333,"instrument":1,"program":12},{"pitch":79,"velocity":95,"startTime":142.17393199999998,"endTime":142.28262766666666,"instrument":1,"program":12},{"pitch":70,"velocity":95,"startTime":142.3369755,"endTime":142.39132333333333,"instrument":1,"program":12},{"pitch":79,"velocity":95,"startTime":142.50001899999998,"endTime":142.55436683333332,"instrument":1,"program":12},{"pitch":79,"velocity":95,"startTime":142.6630625,"endTime":142.77175816666664,"instrument":1,"program":12},{"pitch":70,"velocity":95,"startTime":142.82610599999998,"endTime":142.93480166666666,"instrument":1,"program":12},{"pitch":79,"velocity":95,"startTime":142.9891495,"endTime":143.09784516666664,"instrument":1,"program":12},{"pitch":70,"velocity":95,"startTime":143.15219299999998,"endTime":143.26088866666666,"instrument":1,"program":12},{"pitch":67,"velocity":95,"startTime":143.3152365,"endTime":143.36958433333334,"instrument":1,"program":12},{"pitch":62,"velocity":95,"startTime":143.47827999999998,"endTime":143.58697566666666,"instrument":1,"program":12},{"pitch":67,"velocity":95,"startTime":143.6413235,"endTime":143.75001916666665,"instrument":1,"program":12},{"pitch":70,"velocity":95,"startTime":143.80436699999998,"endTime":143.85871483333332,"instrument":1,"program":12},{"pitch":67,"velocity":95,"startTime":143.9674105,"endTime":144.07610616666665,"instrument":1,"program":12},{"pitch":70,"velocity":95,"startTime":144.130454,"endTime":144.23914966666666,"instrument":1,"program":12},{"pitch":67,"velocity":95,"startTime":144.2934975,"endTime":144.3478453333333,"instrument":1,"program":12},{"pitch":70,"velocity":95,"startTime":144.456541,"endTime":144.56523666666666,"instrument":1,"program":12},{"pitch":74,"velocity":95,"startTime":144.6195845,"endTime":144.6739323333333,"instrument":1,"program":12},{"pitch":67,"velocity":95,"startTime":144.782628,"endTime":144.89132366666666,"instrument":1,"program":12},{"pitch":70,"velocity":95,"startTime":144.9456715,"endTime":145.0000193333333,"instrument":1,"program":12},{"pitch":67,"velocity":95,"startTime":145.108715,"endTime":145.21741066666667,"instrument":1,"program":12},{"pitch":62,"velocity":95,"startTime":145.27175849999998,"endTime":145.38045416666665,"instrument":1,"program":12},{"pitch":70,"velocity":95,"startTime":145.434802,"endTime":145.54349766666667,"instrument":1,"program":12},{"pitch":67,"velocity":95,"startTime":145.59784549999998,"endTime":145.65219333333332,"instrument":1,"program":12},{"pitch":70,"velocity":95,"startTime":145.760889,"endTime":145.86958466666667,"instrument":1,"program":12},{"pitch":70,"velocity":95,"startTime":145.92393249999998,"endTime":146.03262816666665,"instrument":1,"program":12},{"pitch":38,"velocity":110,"startTime":125.21740799999999,"endTime":125.38045149999999,"instrument":2,"program":32},{"pitch":38,"velocity":110,"startTime":125.7065385,"endTime":125.869582,"instrument":2,"program":32},{"pitch":38,"velocity":110,"startTime":126.195669,"endTime":126.41306033333332,"instrument":2,"program":32},{"pitch":40,"velocity":110,"startTime":126.521756,"endTime":126.6847995,"instrument":2,"program":32},{"pitch":33,"velocity":110,"startTime":126.847843,"endTime":127.06523433333332,"instrument":2,"program":32},{"pitch":38,"velocity":110,"startTime":127.17392999999998,"endTime":127.33697349999998,"instrument":2,"program":32},{"pitch":38,"velocity":110,"startTime":127.50001699999999,"endTime":127.66306049999999,"instrument":2,"program":32},{"pitch":38,"velocity":110,"startTime":127.82610399999999,"endTime":127.98914749999999,"instrument":2,"program":32},{"pitch":38,"velocity":110,"startTime":128.152191,"endTime":128.3152345,"instrument":2,"program":32},{"pitch":33,"velocity":110,"startTime":128.478278,"endTime":128.6413215,"instrument":2,"program":32},{"pitch":38,"velocity":110,"startTime":128.804365,"endTime":128.96740849999998,"instrument":2,"program":32},{"pitch":33,"velocity":110,"startTime":129.130452,"endTime":129.29349549999998,"instrument":2,"program":32},{"pitch":33,"velocity":110,"startTime":129.456539,"endTime":129.61958249999998,"instrument":2,"program":32},{"pitch":33,"velocity":110,"startTime":129.782626,"endTime":129.94566949999998,"instrument":2,"program":32},{"pitch":33,"velocity":110,"startTime":130.108713,"endTime":130.27175649999998,"instrument":2,"program":32},{"pitch":43,"velocity":110,"startTime":130.4348,"endTime":130.59784349999998,"instrument":2,"program":32},{"pitch":43,"velocity":110,"startTime":130.760887,"endTime":130.92393049999998,"instrument":2,"program":32},{"pitch":43,"velocity":110,"startTime":131.086974,"endTime":131.25001749999998,"instrument":2,"program":32},{"pitch":38,"velocity":110,"startTime":131.413061,"endTime":131.57610449999999,"instrument":2,"program":32},{"pitch":43,"velocity":110,"startTime":131.739148,"endTime":131.9021915,"instrument":2,"program":32},{"pitch":43,"velocity":110,"startTime":132.065235,"endTime":132.2282785,"instrument":2,"program":32},{"pitch":43,"velocity":110,"startTime":132.391322,"endTime":132.5543655,"instrument":2,"program":32},{"pitch":38,"velocity":110,"startTime":132.717409,"endTime":132.8804525,"instrument":2,"program":32},{"pitch":43,"velocity":110,"startTime":133.04349599999998,"endTime":133.2065395,"instrument":2,"program":32},{"pitch":43,"velocity":110,"startTime":133.36958299999998,"endTime":133.5326265,"instrument":2,"program":32},{"pitch":34,"velocity":110,"startTime":133.69566999999998,"endTime":133.8587135,"instrument":2,"program":32},{"pitch":38,"velocity":110,"startTime":134.02175699999998,"endTime":134.1848005,"instrument":2,"program":32},{"pitch":43,"velocity":110,"startTime":134.34784399999998,"endTime":134.5108875,"instrument":2,"program":32},{"pitch":38,"velocity":110,"startTime":134.67393099999998,"endTime":134.8369745,"instrument":2,"program":32},{"pitch":46,"velocity":110,"startTime":135.00001799999998,"endTime":135.1630615,"instrument":2,"program":32},{"pitch":38,"velocity":110,"startTime":135.32610499999998,"endTime":135.4891485,"instrument":2,"program":32},{"pitch":38,"velocity":110,"startTime":135.65219199999999,"endTime":135.8152355,"instrument":2,"program":32},{"pitch":33,"velocity":110,"startTime":135.978279,"endTime":136.1413225,"instrument":2,"program":32},{"pitch":38,"velocity":110,"startTime":136.304366,"endTime":136.4674095,"instrument":2,"program":32},{"pitch":38,"velocity":110,"startTime":136.630453,"endTime":136.7934965,"instrument":2,"program":32},{"pitch":33,"velocity":110,"startTime":136.95654,"endTime":137.11958349999998,"instrument":2,"program":32},{"pitch":33,"velocity":110,"startTime":137.282627,"endTime":137.44567049999998,"instrument":2,"program":32},{"pitch":33,"velocity":110,"startTime":137.608714,"endTime":137.77175749999998,"instrument":2,"program":32},{"pitch":33,"velocity":110,"startTime":137.934801,"endTime":138.09784449999998,"instrument":2,"program":32},{"pitch":38,"velocity":110,"startTime":138.260888,"endTime":138.42393149999998,"instrument":2,"program":32},{"pitch":33,"velocity":110,"startTime":138.586975,"endTime":138.75001849999998,"instrument":2,"program":32},{"pitch":38,"velocity":110,"startTime":138.913062,"endTime":139.07610549999998,"instrument":2,"program":32},{"pitch":38,"velocity":110,"startTime":139.239149,"endTime":139.40219249999998,"instrument":2,"program":32},{"pitch":33,"velocity":110,"startTime":139.565236,"endTime":139.72827949999999,"instrument":2,"program":32},{"pitch":33,"velocity":110,"startTime":139.891323,"endTime":140.0543665,"instrument":2,"program":32},{"pitch":33,"velocity":110,"startTime":140.0543665,"endTime":140.16306216666666,"instrument":2,"program":32},{"pitch":33,"velocity":110,"startTime":140.21741,"endTime":140.3804535,"instrument":2,"program":32},{"pitch":38,"velocity":110,"startTime":140.543497,"endTime":140.7065405,"instrument":2,"program":32},{"pitch":43,"velocity":110,"startTime":140.869584,"endTime":141.08697533333333,"instrument":2,"program":32},{"pitch":43,"velocity":110,"startTime":141.19567099999998,"endTime":141.3587145,"instrument":2,"program":32},{"pitch":38,"velocity":110,"startTime":141.52175799999998,"endTime":141.6848015,"instrument":2,"program":32},{"pitch":38,"velocity":110,"startTime":141.84784499999998,"endTime":142.0108885,"instrument":2,"program":32},{"pitch":43,"velocity":110,"startTime":142.17393199999998,"endTime":142.3369755,"instrument":2,"program":32},{"pitch":43,"velocity":110,"startTime":142.50001899999998,"endTime":142.6630625,"instrument":2,"program":32},{"pitch":38,"velocity":110,"startTime":142.82610599999998,"endTime":142.9891495,"instrument":2,"program":32},{"pitch":38,"velocity":110,"startTime":143.15219299999998,"endTime":143.3152365,"instrument":2,"program":32},{"pitch":34,"velocity":110,"startTime":143.47827999999998,"endTime":143.6956713333333,"instrument":2,"program":32},{"pitch":38,"velocity":110,"startTime":143.80436699999998,"endTime":143.9674105,"instrument":2,"program":32},{"pitch":31,"velocity":110,"startTime":144.130454,"endTime":144.2934975,"instrument":2,"program":32},{"pitch":31,"velocity":110,"startTime":144.456541,"endTime":144.6195845,"instrument":2,"program":32},{"pitch":31,"velocity":110,"startTime":144.782628,"endTime":145.0000193333333,"instrument":2,"program":32},{"pitch":33,"velocity":110,"startTime":145.108715,"endTime":145.27175849999998,"instrument":2,"program":32},{"pitch":38,"velocity":110,"startTime":145.434802,"endTime":145.59784549999998,"instrument":2,"program":32},{"pitch":31,"velocity":110,"startTime":145.59784549999998,"endTime":145.760889,"instrument":2,"program":32},{"pitch":38,"velocity":110,"startTime":145.92393249999998,"endTime":146.03262816666665,"instrument":2,"program":32},{"pitch":76,"velocity":105,"startTime":125.21740799999999,"endTime":127.71740833333332,"instrument":3,"program":50},{"pitch":60,"velocity":105,"startTime":127.82610399999999,"endTime":130.4348,"instrument":3,"program":50},{"pitch":62,"velocity":105,"startTime":127.82610399999999,"endTime":130.4348,"instrument":3,"program":50},{"pitch":66,"velocity":105,"startTime":127.82610399999999,"endTime":130.4348,"instrument":3,"program":50},{"pitch":69,"velocity":105,"startTime":127.82610399999999,"endTime":130.4348,"instrument":3,"program":50},{"pitch":58,"velocity":105,"startTime":130.4348,"endTime":133.04349599999998,"instrument":3,"program":50},{"pitch":65,"velocity":105,"startTime":130.4348,"endTime":133.04349599999998,"instrument":3,"program":50},{"pitch":67,"velocity":105,"startTime":130.4348,"endTime":133.04349599999998,"instrument":3,"program":50},{"pitch":74,"velocity":105,"startTime":130.4348,"endTime":133.04349599999998,"instrument":3,"program":50},{"pitch":58,"velocity":105,"startTime":133.04349599999998,"endTime":135.65219199999999,"instrument":3,"program":50},{"pitch":62,"velocity":105,"startTime":133.04349599999998,"endTime":135.65219199999999,"instrument":3,"program":50},{"pitch":65,"velocity":105,"startTime":133.04349599999998,"endTime":135.65219199999999,"instrument":3,"program":50},{"pitch":70,"velocity":105,"startTime":133.04349599999998,"endTime":135.65219199999999,"instrument":3,"program":50},{"pitch":60,"velocity":105,"startTime":135.65219199999999,"endTime":138.260888,"instrument":3,"program":50},{"pitch":64,"velocity":105,"startTime":135.65219199999999,"endTime":138.260888,"instrument":3,"program":50},{"pitch":66,"velocity":105,"startTime":135.65219199999999,"endTime":138.260888,"instrument":3,"program":50},{"pitch":69,"velocity":105,"startTime":135.65219199999999,"endTime":138.260888,"instrument":3,"program":50},{"pitch":60,"velocity":105,"startTime":138.260888,"endTime":140.869584,"instrument":3,"program":50},{"pitch":63,"velocity":105,"startTime":138.260888,"endTime":140.869584,"instrument":3,"program":50},{"pitch":66,"velocity":105,"startTime":138.260888,"endTime":140.869584,"instrument":3,"program":50},{"pitch":69,"velocity":105,"startTime":138.260888,"endTime":140.869584,"instrument":3,"program":50},{"pitch":58,"velocity":105,"startTime":140.869584,"endTime":143.47827999999998,"instrument":3,"program":50},{"pitch":62,"velocity":105,"startTime":140.869584,"endTime":143.47827999999998,"instrument":3,"program":50},{"pitch":67,"velocity":105,"startTime":140.869584,"endTime":143.47827999999998,"instrument":3,"program":50},{"pitch":58,"velocity":105,"startTime":143.47827999999998,"endTime":146.086976,"instrument":3,"program":50},{"pitch":62,"velocity":105,"startTime":143.47827999999998,"endTime":146.086976,"instrument":3,"program":50},{"pitch":65,"velocity":105,"startTime":143.47827999999998,"endTime":146.086976,"instrument":3,"program":50},{"pitch":67,"velocity":105,"startTime":143.47827999999998,"endTime":146.086976,"instrument":3,"program":50},{"pitch":35,"velocity":102,"startTime":146.086976,"endTime":146.19567166666667,"isDrum":true},{"pitch":42,"velocity":102,"startTime":146.086976,"endTime":146.19567166666667,"isDrum":true},{"pitch":42,"velocity":102,"startTime":146.413063,"endTime":146.52175866666664,"isDrum":true},{"pitch":35,"velocity":102,"startTime":146.57610649999998,"endTime":146.68480216666666,"isDrum":true},{"pitch":40,"velocity":102,"startTime":146.73915,"endTime":146.84784566666664,"isDrum":true},{"pitch":42,"velocity":102,"startTime":146.73915,"endTime":146.84784566666664,"isDrum":true},{"pitch":35,"velocity":102,"startTime":147.065237,"endTime":147.17393266666664,"isDrum":true},{"pitch":42,"velocity":102,"startTime":147.065237,"endTime":147.17393266666664,"isDrum":true},{"pitch":35,"velocity":102,"startTime":147.22828049999998,"endTime":147.33697616666666,"isDrum":true},{"pitch":35,"velocity":102,"startTime":147.391324,"endTime":147.50001966666665,"isDrum":true},{"pitch":42,"velocity":102,"startTime":147.391324,"endTime":147.50001966666665,"isDrum":true},{"pitch":42,"velocity":102,"startTime":147.717411,"endTime":147.82610666666665,"isDrum":true},{"pitch":40,"velocity":102,"startTime":148.043498,"endTime":148.15219366666665,"isDrum":true},{"pitch":42,"velocity":102,"startTime":148.043498,"endTime":148.15219366666665,"isDrum":true},{"pitch":42,"velocity":102,"startTime":148.369585,"endTime":148.47828066666665,"isDrum":true},{"pitch":35,"velocity":102,"startTime":148.5326285,"endTime":148.64132416666666,"isDrum":true},{"pitch":35,"velocity":102,"startTime":148.695672,"endTime":148.80436766666665,"isDrum":true},{"pitch":42,"velocity":102,"startTime":148.695672,"endTime":148.80436766666665,"isDrum":true},{"pitch":42,"velocity":102,"startTime":149.021759,"endTime":149.13045466666665,"isDrum":true},{"pitch":40,"velocity":102,"startTime":149.34784599999998,"endTime":149.45654166666665,"isDrum":true},{"pitch":42,"velocity":102,"startTime":149.34784599999998,"endTime":149.45654166666665,"isDrum":true},{"pitch":42,"velocity":102,"startTime":149.67393299999998,"endTime":149.78262866666665,"isDrum":true},{"pitch":35,"velocity":102,"startTime":149.8369765,"endTime":149.94567216666667,"isDrum":true},{"pitch":35,"velocity":102,"startTime":150.00001999999998,"endTime":150.10871566666665,"isDrum":true},{"pitch":42,"velocity":102,"startTime":150.00001999999998,"endTime":150.10871566666665,"isDrum":true},{"pitch":35,"velocity":102,"startTime":150.32610699999998,"endTime":150.43480266666666,"isDrum":true},{"pitch":42,"velocity":102,"startTime":150.32610699999998,"endTime":150.43480266666666,"isDrum":true},{"pitch":40,"velocity":102,"startTime":150.65219399999998,"endTime":150.76088966666666,"isDrum":true},{"pitch":42,"velocity":102,"startTime":150.65219399999998,"endTime":150.76088966666666,"isDrum":true},{"pitch":42,"velocity":102,"startTime":150.97828099999998,"endTime":151.08697666666666,"isDrum":true},{"pitch":35,"velocity":102,"startTime":151.1413245,"endTime":151.25002016666664,"isDrum":true},{"pitch":35,"velocity":102,"startTime":151.30436799999998,"endTime":151.41306366666666,"isDrum":true},{"pitch":42,"velocity":102,"startTime":151.30436799999998,"endTime":151.41306366666666,"isDrum":true},{"pitch":42,"velocity":102,"startTime":151.63045499999998,"endTime":151.73915066666666,"isDrum":true},{"pitch":40,"velocity":102,"startTime":151.95654199999998,"endTime":152.06523766666666,"isDrum":true},{"pitch":42,"velocity":102,"startTime":151.95654199999998,"endTime":152.06523766666666,"isDrum":true},{"pitch":35,"velocity":102,"startTime":152.282629,"endTime":152.39132466666666,"isDrum":true},{"pitch":42,"velocity":102,"startTime":152.282629,"endTime":152.39132466666666,"isDrum":true},{"pitch":35,"velocity":102,"startTime":152.4456725,"endTime":152.55436816666665,"isDrum":true},{"pitch":35,"velocity":102,"startTime":152.608716,"endTime":152.71741166666666,"isDrum":true},{"pitch":42,"velocity":102,"startTime":152.608716,"endTime":152.71741166666666,"isDrum":true},{"pitch":42,"velocity":102,"startTime":152.934803,"endTime":153.04349866666666,"isDrum":true},{"pitch":40,"velocity":102,"startTime":153.26089,"endTime":153.36958566666667,"isDrum":true},{"pitch":42,"velocity":102,"startTime":153.26089,"endTime":153.36958566666667,"isDrum":true},{"pitch":42,"velocity":102,"startTime":153.586977,"endTime":153.69567266666667,"isDrum":true},{"pitch":35,"velocity":102,"startTime":153.75002049999998,"endTime":153.85871616666665,"isDrum":true},{"pitch":35,"velocity":102,"startTime":153.913064,"endTime":154.02175966666667,"isDrum":true},{"pitch":42,"velocity":102,"startTime":153.913064,"endTime":154.02175966666667,"isDrum":true},{"pitch":35,"velocity":102,"startTime":154.239151,"endTime":154.34784666666667,"isDrum":true},{"pitch":42,"velocity":102,"startTime":154.239151,"endTime":154.34784666666667,"isDrum":true},{"pitch":40,"velocity":102,"startTime":154.565238,"endTime":154.67393366666664,"isDrum":true},{"pitch":42,"velocity":102,"startTime":154.565238,"endTime":154.67393366666664,"isDrum":true},{"pitch":40,"velocity":102,"startTime":154.72828149999998,"endTime":154.83697716666666,"isDrum":true},{"pitch":42,"velocity":102,"startTime":154.891325,"endTime":155.00002066666664,"isDrum":true},{"pitch":35,"velocity":102,"startTime":155.05436849999998,"endTime":155.16306416666666,"isDrum":true},{"pitch":40,"velocity":102,"startTime":155.05436849999998,"endTime":155.16306416666666,"isDrum":true},{"pitch":35,"velocity":102,"startTime":155.217412,"endTime":155.32610766666664,"isDrum":true},{"pitch":42,"velocity":102,"startTime":155.217412,"endTime":155.32610766666664,"isDrum":true},{"pitch":42,"velocity":102,"startTime":155.543499,"endTime":155.65219466666665,"isDrum":true},{"pitch":40,"velocity":102,"startTime":155.869586,"endTime":155.97828166666665,"isDrum":true},{"pitch":42,"velocity":102,"startTime":155.869586,"endTime":155.97828166666665,"isDrum":true},{"pitch":35,"velocity":102,"startTime":156.195673,"endTime":156.30436866666665,"isDrum":true},{"pitch":42,"velocity":102,"startTime":156.195673,"endTime":156.30436866666665,"isDrum":true},{"pitch":35,"velocity":102,"startTime":156.35871649999999,"endTime":156.46741216666666,"isDrum":true},{"pitch":35,"velocity":102,"startTime":156.52176,"endTime":156.63045566666665,"isDrum":true},{"pitch":42,"velocity":102,"startTime":156.52176,"endTime":156.63045566666665,"isDrum":true},{"pitch":42,"velocity":102,"startTime":156.847847,"endTime":156.95654266666665,"isDrum":true},{"pitch":40,"velocity":102,"startTime":157.17393399999997,"endTime":157.28262966666665,"isDrum":true},{"pitch":42,"velocity":102,"startTime":157.17393399999997,"endTime":157.28262966666665,"isDrum":true},{"pitch":42,"velocity":102,"startTime":157.50002099999998,"endTime":157.60871666666665,"isDrum":true},{"pitch":40,"velocity":102,"startTime":157.6630645,"endTime":157.77176016666667,"isDrum":true},{"pitch":35,"velocity":102,"startTime":157.82610799999998,"endTime":157.93480366666665,"isDrum":true},{"pitch":42,"velocity":102,"startTime":157.82610799999998,"endTime":157.93480366666665,"isDrum":true},{"pitch":35,"velocity":102,"startTime":157.9891515,"endTime":158.09784716666667,"isDrum":true},{"pitch":35,"velocity":102,"startTime":158.15219499999998,"endTime":158.26089066666665,"isDrum":true},{"pitch":42,"velocity":102,"startTime":158.15219499999998,"endTime":158.26089066666665,"isDrum":true},{"pitch":40,"velocity":102,"startTime":158.47828199999998,"endTime":158.58697766666666,"isDrum":true},{"pitch":42,"velocity":102,"startTime":158.47828199999998,"endTime":158.58697766666666,"isDrum":true},{"pitch":42,"velocity":102,"startTime":158.80436899999998,"endTime":158.91306466666666,"isDrum":true},{"pitch":40,"velocity":102,"startTime":158.9674125,"endTime":159.07610816666664,"isDrum":true},{"pitch":35,"velocity":102,"startTime":159.13045599999998,"endTime":159.23915166666666,"isDrum":true},{"pitch":42,"velocity":102,"startTime":159.13045599999998,"endTime":159.23915166666666,"isDrum":true},{"pitch":42,"velocity":102,"startTime":159.45654299999998,"endTime":159.56523866666666,"isDrum":true},{"pitch":40,"velocity":102,"startTime":159.78262999999998,"endTime":159.89132566666666,"isDrum":true},{"pitch":42,"velocity":102,"startTime":159.78262999999998,"endTime":159.89132566666666,"isDrum":true},{"pitch":42,"velocity":102,"startTime":160.10871699999998,"endTime":160.21741266666666,"isDrum":true},{"pitch":35,"velocity":102,"startTime":160.2717605,"endTime":160.38045616666665,"isDrum":true},{"pitch":35,"velocity":102,"startTime":160.43480399999999,"endTime":160.54349966666666,"isDrum":true},{"pitch":42,"velocity":102,"startTime":160.43480399999999,"endTime":160.54349966666666,"isDrum":true},{"pitch":35,"velocity":102,"startTime":160.760891,"endTime":160.86958666666666,"isDrum":true},{"pitch":42,"velocity":102,"startTime":160.760891,"endTime":160.86958666666666,"isDrum":true},{"pitch":40,"velocity":102,"startTime":161.086978,"endTime":161.19567366666666,"isDrum":true},{"pitch":42,"velocity":102,"startTime":161.086978,"endTime":161.19567366666666,"isDrum":true},{"pitch":42,"velocity":102,"startTime":161.413065,"endTime":161.52176066666667,"isDrum":true},{"pitch":35,"velocity":102,"startTime":161.739152,"endTime":161.84784766666667,"isDrum":true},{"pitch":42,"velocity":102,"startTime":161.739152,"endTime":161.84784766666667,"isDrum":true},{"pitch":42,"velocity":102,"startTime":162.065239,"endTime":162.17393466666667,"isDrum":true},{"pitch":40,"velocity":102,"startTime":162.391326,"endTime":162.50002166666664,"isDrum":true},{"pitch":42,"velocity":102,"startTime":162.391326,"endTime":162.50002166666664,"isDrum":true},{"pitch":42,"velocity":102,"startTime":162.717413,"endTime":162.82610866666664,"isDrum":true},{"pitch":35,"velocity":102,"startTime":162.88045649999998,"endTime":162.98915216666666,"isDrum":true},{"pitch":35,"velocity":102,"startTime":163.0435,"endTime":163.15219566666664,"isDrum":true},{"pitch":42,"velocity":102,"startTime":163.0435,"endTime":163.15219566666664,"isDrum":true},{"pitch":35,"velocity":102,"startTime":163.369587,"endTime":163.47828266666664,"isDrum":true},{"pitch":42,"velocity":102,"startTime":163.369587,"endTime":163.47828266666664,"isDrum":true},{"pitch":40,"velocity":102,"startTime":163.695674,"endTime":163.80436966666664,"isDrum":true},{"pitch":42,"velocity":102,"startTime":163.695674,"endTime":163.80436966666664,"isDrum":true},{"pitch":46,"velocity":102,"startTime":163.85871749999998,"endTime":163.96741316666666,"isDrum":true},{"pitch":42,"velocity":102,"startTime":164.021761,"endTime":164.13045666666665,"isDrum":true},{"pitch":40,"velocity":102,"startTime":164.18480449999998,"endTime":164.29350016666666,"isDrum":true},{"pitch":35,"velocity":102,"startTime":164.347848,"endTime":164.45654366666665,"isDrum":true},{"pitch":42,"velocity":102,"startTime":164.347848,"endTime":164.45654366666665,"isDrum":true},{"pitch":42,"velocity":102,"startTime":164.673935,"endTime":164.78263066666665,"isDrum":true},{"pitch":35,"velocity":102,"startTime":164.8369785,"endTime":164.94567416666666,"isDrum":true},{"pitch":40,"velocity":102,"startTime":165.000022,"endTime":165.10871766666665,"isDrum":true},{"pitch":42,"velocity":102,"startTime":165.000022,"endTime":165.10871766666665,"isDrum":true},{"pitch":35,"velocity":102,"startTime":165.32610899999997,"endTime":165.43480466666665,"isDrum":true},{"pitch":42,"velocity":102,"startTime":165.32610899999997,"endTime":165.43480466666665,"isDrum":true},{"pitch":35,"velocity":102,"startTime":165.65219599999998,"endTime":165.76089166666665,"isDrum":true},{"pitch":42,"velocity":102,"startTime":165.65219599999998,"endTime":165.76089166666665,"isDrum":true},{"pitch":42,"velocity":102,"startTime":165.97828299999998,"endTime":166.08697866666665,"isDrum":true},{"pitch":40,"velocity":102,"startTime":166.30436999999998,"endTime":166.41306566666665,"isDrum":true},{"pitch":42,"velocity":102,"startTime":166.30436999999998,"endTime":166.41306566666665,"isDrum":true},{"pitch":42,"velocity":102,"startTime":166.63045699999998,"endTime":166.73915266666666,"isDrum":true},{"pitch":35,"velocity":102,"startTime":166.7935005,"endTime":166.90219616666664,"isDrum":true},{"pitch":70,"velocity":95,"startTime":146.25001949999998,"endTime":146.35871516666666,"instrument":1,"program":12},{"pitch":75,"velocity":95,"startTime":146.413063,"endTime":146.46741083333333,"instrument":1,"program":12},{"pitch":70,"velocity":95,"startTime":146.57610649999998,"endTime":146.63045433333332,"instrument":1,"program":12},{"pitch":75,"velocity":95,"startTime":146.73915,"endTime":146.79349783333333,"instrument":1,"program":12},{"pitch":70,"velocity":95,"startTime":146.90219349999998,"endTime":146.95654133333332,"instrument":1,"program":12},{"pitch":70,"velocity":95,"startTime":147.065237,"endTime":147.11958483333333,"instrument":1,"program":12},{"pitch":75,"velocity":95,"startTime":147.22828049999998,"endTime":147.28262833333332,"instrument":1,"program":12},{"pitch":70,"velocity":95,"startTime":147.391324,"endTime":147.50001966666665,"instrument":1,"program":12},{"pitch":72,"velocity":95,"startTime":147.55436749999998,"endTime":147.66306316666666,"instrument":1,"program":12},{"pitch":75,"velocity":95,"startTime":147.717411,"endTime":147.7717588333333,"instrument":1,"program":12},{"pitch":70,"velocity":95,"startTime":147.88045449999998,"endTime":147.93480233333332,"instrument":1,"program":12},{"pitch":75,"velocity":95,"startTime":148.043498,"endTime":148.0978458333333,"instrument":1,"program":12},{"pitch":70,"velocity":95,"startTime":148.2065415,"endTime":148.26088933333332,"instrument":1,"program":12},{"pitch":75,"velocity":95,"startTime":148.369585,"endTime":148.4239328333333,"instrument":1,"program":12},{"pitch":70,"velocity":95,"startTime":148.5326285,"endTime":148.58697633333333,"instrument":1,"program":12},{"pitch":70,"velocity":95,"startTime":148.695672,"endTime":148.8587155,"instrument":1,"program":12},{"pitch":72,"velocity":95,"startTime":148.8587155,"endTime":148.96741116666666,"instrument":1,"program":12},{"pitch":75,"velocity":95,"startTime":149.021759,"endTime":149.13045466666665,"instrument":1,"program":12},{"pitch":75,"velocity":95,"startTime":149.1848025,"endTime":149.23915033333333,"instrument":1,"program":12},{"pitch":70,"velocity":95,"startTime":149.34784599999998,"endTime":149.45654166666665,"instrument":1,"program":12},{"pitch":72,"velocity":95,"startTime":149.5108895,"endTime":149.56523733333333,"instrument":1,"program":12},{"pitch":75,"velocity":95,"startTime":149.67393299999998,"endTime":149.72828083333332,"instrument":1,"program":12},{"pitch":70,"velocity":95,"startTime":149.8369765,"endTime":149.89132433333333,"instrument":1,"program":12},{"pitch":75,"velocity":95,"startTime":150.00001999999998,"endTime":150.10871566666665,"instrument":1,"program":12},{"pitch":70,"velocity":95,"startTime":150.1630635,"endTime":150.27175916666667,"instrument":1,"program":12},{"pitch":75,"velocity":95,"startTime":150.32610699999998,"endTime":150.38045483333332,"instrument":1,"program":12},{"pitch":70,"velocity":95,"startTime":150.4891505,"endTime":150.54349833333333,"instrument":1,"program":12},{"pitch":75,"velocity":95,"startTime":150.65219399999998,"endTime":150.70654183333332,"instrument":1,"program":12},{"pitch":70,"velocity":95,"startTime":150.8152375,"endTime":150.86958533333333,"instrument":1,"program":12},{"pitch":72,"velocity":95,"startTime":150.97828099999998,"endTime":151.03262883333332,"instrument":1,"program":12},{"pitch":75,"velocity":95,"startTime":151.1413245,"endTime":151.19567233333333,"instrument":1,"program":12},{"pitch":70,"velocity":95,"startTime":151.30436799999998,"endTime":151.41306366666666,"instrument":1,"program":12},{"pitch":67,"velocity":95,"startTime":151.4674115,"endTime":151.57610716666665,"instrument":1,"program":12},{"pitch":70,"velocity":95,"startTime":151.63045499999998,"endTime":151.73915066666666,"instrument":1,"program":12},{"pitch":70,"velocity":95,"startTime":151.7934985,"endTime":151.90219416666665,"instrument":1,"program":12},{"pitch":74,"velocity":95,"startTime":151.95654199999998,"endTime":152.06523766666666,"instrument":1,"program":12},{"pitch":70,"velocity":95,"startTime":152.1195855,"endTime":152.1739333333333,"instrument":1,"program":12},{"pitch":79,"velocity":95,"startTime":152.282629,"endTime":152.39132466666666,"instrument":1,"program":12},{"pitch":74,"velocity":95,"startTime":152.4456725,"endTime":152.55436816666665,"instrument":1,"program":12},{"pitch":70,"velocity":95,"startTime":152.608716,"endTime":152.71741166666666,"instrument":1,"program":12},{"pitch":74,"velocity":95,"startTime":152.7717595,"endTime":152.88045516666665,"instrument":1,"program":12},{"pitch":70,"velocity":95,"startTime":152.934803,"endTime":152.98915083333333,"instrument":1,"program":12},{"pitch":70,"velocity":95,"startTime":153.09784649999997,"endTime":153.1521943333333,"instrument":1,"program":12},{"pitch":74,"velocity":95,"startTime":153.26089,"endTime":153.36958566666667,"instrument":1,"program":12},{"pitch":70,"velocity":95,"startTime":153.42393349999998,"endTime":153.4782813333333,"instrument":1,"program":12},{"pitch":67,"velocity":95,"startTime":153.586977,"endTime":153.69567266666667,"instrument":1,"program":12},{"pitch":70,"velocity":95,"startTime":153.75002049999998,"endTime":153.85871616666665,"instrument":1,"program":12},{"pitch":70,"velocity":95,"startTime":153.913064,"endTime":154.02175966666667,"instrument":1,"program":12},{"pitch":67,"velocity":95,"startTime":154.07610749999998,"endTime":154.18480316666665,"instrument":1,"program":12},{"pitch":70,"velocity":95,"startTime":154.239151,"endTime":154.29349883333333,"instrument":1,"program":12},{"pitch":67,"velocity":95,"startTime":154.40219449999998,"endTime":154.45654233333332,"instrument":1,"program":12},{"pitch":70,"velocity":95,"startTime":154.565238,"endTime":154.61958583333333,"instrument":1,"program":12},{"pitch":67,"velocity":95,"startTime":154.72828149999998,"endTime":154.83697716666666,"instrument":1,"program":12},{"pitch":70,"velocity":95,"startTime":154.891325,"endTime":155.00002066666664,"instrument":1,"program":12},{"pitch":67,"velocity":95,"startTime":155.05436849999998,"endTime":155.10871633333332,"instrument":1,"program":12},{"pitch":67,"velocity":95,"startTime":155.217412,"endTime":155.32610766666664,"instrument":1,"program":12},{"pitch":70,"velocity":95,"startTime":155.38045549999998,"endTime":155.48915116666666,"instrument":1,"program":12},{"pitch":67,"velocity":95,"startTime":155.543499,"endTime":155.65219466666665,"instrument":1,"program":12},{"pitch":70,"velocity":95,"startTime":155.70654249999998,"endTime":155.81523816666666,"instrument":1,"program":12},{"pitch":67,"velocity":95,"startTime":155.869586,"endTime":155.97828166666665,"instrument":1,"program":12},{"pitch":70,"velocity":95,"startTime":156.03262949999998,"endTime":156.08697733333332,"instrument":1,"program":12},{"pitch":67,"velocity":95,"startTime":156.195673,"endTime":156.2500208333333,"instrument":1,"program":12},{"pitch":70,"velocity":95,"startTime":156.35871649999999,"endTime":156.41306433333332,"instrument":1,"program":12},{"pitch":72,"velocity":95,"startTime":156.52176,"endTime":156.6848035,"instrument":1,"program":12},{"pitch":69,"velocity":95,"startTime":156.6848035,"endTime":156.79349916666666,"instrument":1,"program":12},{"pitch":72,"velocity":95,"startTime":156.847847,"endTime":156.95654266666665,"instrument":1,"program":12},{"pitch":69,"velocity":95,"startTime":157.0108905,"endTime":157.06523833333333,"instrument":1,"program":12},{"pitch":72,"velocity":95,"startTime":157.17393399999997,"endTime":157.28262966666665,"instrument":1,"program":12},{"pitch":69,"velocity":95,"startTime":157.3369775,"endTime":157.44567316666667,"instrument":1,"program":12},{"pitch":69,"velocity":95,"startTime":157.50002099999998,"endTime":157.60871666666665,"instrument":1,"program":12},{"pitch":69,"velocity":95,"startTime":157.6630645,"endTime":157.77176016666667,"instrument":1,"program":12},{"pitch":72,"velocity":95,"startTime":157.82610799999998,"endTime":157.93480366666665,"instrument":1,"program":12},{"pitch":69,"velocity":95,"startTime":157.9891515,"endTime":158.09784716666667,"instrument":1,"program":12},{"pitch":72,"velocity":95,"startTime":158.15219499999998,"endTime":158.26089066666665,"instrument":1,"program":12},{"pitch":69,"velocity":95,"startTime":158.3152385,"endTime":158.36958633333333,"instrument":1,"program":12},{"pitch":72,"velocity":95,"startTime":158.47828199999998,"endTime":158.58697766666666,"instrument":1,"program":12},{"pitch":69,"velocity":95,"startTime":158.6413255,"endTime":158.75002116666664,"instrument":1,"program":12},{"pitch":69,"velocity":95,"startTime":158.80436899999998,"endTime":158.91306466666666,"instrument":1,"program":12},{"pitch":69,"velocity":95,"startTime":158.9674125,"endTime":159.02176033333333,"instrument":1,"program":12},{"pitch":69,"velocity":95,"startTime":159.13045599999998,"endTime":159.2934995,"instrument":1,"program":12},{"pitch":74,"velocity":95,"startTime":159.2934995,"endTime":159.40219516666664,"instrument":1,"program":12},{"pitch":69,"velocity":95,"startTime":159.45654299999998,"endTime":159.56523866666666,"instrument":1,"program":12},{"pitch":74,"velocity":95,"startTime":159.6195865,"endTime":159.72828216666665,"instrument":1,"program":12},{"pitch":69,"velocity":95,"startTime":159.78262999999998,"endTime":159.89132566666666,"instrument":1,"program":12},{"pitch":69,"velocity":95,"startTime":159.9456735,"endTime":160.05436916666665,"instrument":1,"program":12},{"pitch":74,"velocity":95,"startTime":160.10871699999998,"endTime":160.21741266666666,"instrument":1,"program":12},{"pitch":69,"velocity":95,"startTime":160.2717605,"endTime":160.3261083333333,"instrument":1,"program":12},{"pitch":74,"velocity":95,"startTime":160.43480399999999,"endTime":160.54349966666666,"instrument":1,"program":12},{"pitch":69,"velocity":95,"startTime":160.5978475,"endTime":160.70654316666665,"instrument":1,"program":12},{"pitch":74,"velocity":95,"startTime":160.760891,"endTime":160.86958666666666,"instrument":1,"program":12},{"pitch":74,"velocity":95,"startTime":160.9239345,"endTime":161.03263016666665,"instrument":1,"program":12},{"pitch":74,"velocity":95,"startTime":161.086978,"endTime":161.19567366666666,"instrument":1,"program":12},{"pitch":69,"velocity":95,"startTime":161.25002149999997,"endTime":161.35871716666665,"instrument":1,"program":12},{"pitch":74,"velocity":95,"startTime":161.413065,"endTime":161.46741283333333,"instrument":1,"program":12},{"pitch":69,"velocity":95,"startTime":161.57610849999998,"endTime":161.6304563333333,"instrument":1,"program":12},{"pitch":69,"velocity":95,"startTime":161.739152,"endTime":161.90219549999998,"instrument":1,"program":12},{"pitch":69,"velocity":95,"startTime":164.347848,"endTime":164.51089149999999,"instrument":1,"program":12},{"pitch":72,"velocity":95,"startTime":164.51089149999999,"endTime":164.61958716666666,"instrument":1,"program":12},{"pitch":78,"velocity":95,"startTime":164.673935,"endTime":164.78263066666665,"instrument":1,"program":12},{"pitch":78,"velocity":95,"startTime":164.8369785,"endTime":164.89132633333332,"instrument":1,"program":12},{"pitch":84,"velocity":95,"startTime":165.000022,"endTime":165.10871766666665,"instrument":1,"program":12},{"pitch":78,"velocity":95,"startTime":165.1630655,"endTime":165.27176116666666,"instrument":1,"program":12},{"pitch":72,"velocity":95,"startTime":165.32610899999997,"endTime":165.3804568333333,"instrument":1,"program":12},{"pitch":69,"velocity":95,"startTime":165.4891525,"endTime":165.54350033333333,"instrument":1,"program":12},{"pitch":74,"velocity":95,"startTime":165.65219599999998,"endTime":165.8152395,"instrument":1,"program":12},{"pitch":74,"velocity":95,"startTime":165.8152395,"endTime":165.92393516666667,"instrument":1,"program":12},{"pitch":67,"velocity":95,"startTime":165.97828299999998,"endTime":166.08697866666665,"instrument":1,"program":12},{"pitch":74,"velocity":95,"startTime":166.1413265,"endTime":166.19567433333333,"instrument":1,"program":12},{"pitch":74,"velocity":95,"startTime":166.30436999999998,"endTime":166.41306566666665,"instrument":1,"program":12},{"pitch":67,"velocity":95,"startTime":166.4674135,"endTime":166.57610916666664,"instrument":1,"program":12},{"pitch":74,"velocity":95,"startTime":166.63045699999998,"endTime":166.73915266666666,"instrument":1,"program":12},{"pitch":67,"velocity":95,"startTime":166.7935005,"endTime":166.90219616666664,"instrument":1,"program":12},{"pitch":39,"velocity":110,"startTime":146.086976,"endTime":146.413063,"instrument":2,"program":32},{"pitch":39,"velocity":110,"startTime":146.57610649999998,"endTime":146.73915,"instrument":2,"program":32},{"pitch":39,"velocity":110,"startTime":146.90219349999998,"endTime":147.065237,"instrument":2,"program":32},{"pitch":34,"velocity":110,"startTime":147.065237,"endTime":147.28262833333332,"instrument":2,"program":32},{"pitch":39,"velocity":110,"startTime":147.391324,"endTime":147.55436749999998,"instrument":2,"program":32},{"pitch":39,"velocity":110,"startTime":147.717411,"endTime":147.88045449999998,"instrument":2,"program":32},{"pitch":34,"velocity":110,"startTime":148.043498,"endTime":148.2065415,"instrument":2,"program":32},{"pitch":39,"velocity":110,"startTime":148.369585,"endTime":148.5326285,"instrument":2,"program":32},{"pitch":36,"velocity":110,"startTime":148.695672,"endTime":149.021759,"instrument":2,"program":32},{"pitch":43,"velocity":110,"startTime":149.1848025,"endTime":149.34784599999998,"instrument":2,"program":32},{"pitch":48,"velocity":110,"startTime":149.5108895,"endTime":149.67393299999998,"instrument":2,"program":32},{"pitch":43,"velocity":110,"startTime":149.67393299999998,"endTime":149.89132433333333,"instrument":2,"program":32},{"pitch":36,"velocity":110,"startTime":150.00001999999998,"endTime":150.1630635,"instrument":2,"program":32},{"pitch":36,"velocity":110,"startTime":150.32610699999998,"endTime":150.4891505,"instrument":2,"program":32},{"pitch":31,"velocity":110,"startTime":150.65219399999998,"endTime":150.8152375,"instrument":2,"program":32},{"pitch":36,"velocity":110,"startTime":150.97828099999998,"endTime":151.1413245,"instrument":2,"program":32},{"pitch":43,"velocity":110,"startTime":151.30436799999998,"endTime":151.63045499999998,"instrument":2,"program":32},{"pitch":43,"velocity":110,"startTime":151.7934985,"endTime":151.95654199999998,"instrument":2,"program":32},{"pitch":43,"velocity":110,"startTime":152.1195855,"endTime":152.282629,"instrument":2,"program":32},{"pitch":38,"velocity":110,"startTime":152.282629,"endTime":152.5000203333333,"instrument":2,"program":32},{"pitch":46,"velocity":110,"startTime":152.608716,"endTime":152.7717595,"instrument":2,"program":32},{"pitch":38,"velocity":110,"startTime":152.934803,"endTime":153.09784649999997,"instrument":2,"program":32},{"pitch":31,"velocity":110,"startTime":153.26089,"endTime":153.42393349999998,"instrument":2,"program":32},{"pitch":43,"velocity":110,"startTime":153.586977,"endTime":153.80436833333331,"instrument":2,"program":32},{"pitch":31,"velocity":110,"startTime":153.913064,"endTime":154.239151,"instrument":2,"program":32},{"pitch":31,"velocity":110,"startTime":154.40219449999998,"endTime":154.565238,"instrument":2,"program":32},{"pitch":31,"velocity":110,"startTime":154.72828149999998,"endTime":154.891325,"instrument":2,"program":32},{"pitch":36,"velocity":110,"startTime":154.891325,"endTime":155.10871633333332,"instrument":2,"program":32},{"pitch":34,"velocity":110,"startTime":155.217412,"endTime":155.38045549999998,"instrument":2,"program":32},{"pitch":31,"velocity":110,"startTime":155.543499,"endTime":155.76089033333332,"instrument":2,"program":32},{"pitch":31,"velocity":110,"startTime":155.869586,"endTime":156.03262949999998,"instrument":2,"program":32},{"pitch":38,"velocity":110,"startTime":156.195673,"endTime":156.41306433333332,"instrument":2,"program":32},{"pitch":38,"velocity":110,"startTime":156.52176,"endTime":156.847847,"instrument":2,"program":32},{"pitch":38,"velocity":110,"startTime":157.0108905,"endTime":157.17393399999997,"instrument":2,"program":32},{"pitch":38,"velocity":110,"startTime":157.3369775,"endTime":157.50002099999998,"instrument":2,"program":32},{"pitch":38,"velocity":110,"startTime":157.50002099999998,"endTime":157.71741233333333,"instrument":2,"program":32},{"pitch":38,"velocity":110,"startTime":157.82610799999998,"endTime":157.9891515,"instrument":2,"program":32},{"pitch":38,"velocity":110,"startTime":158.15219499999998,"endTime":158.36958633333333,"instrument":2,"program":32},{"pitch":42,"velocity":110,"startTime":158.47828199999998,"endTime":158.6413255,"instrument":2,"program":32},{"pitch":45,"velocity":110,"startTime":158.6413255,"endTime":158.80436899999998,"instrument":2,"program":32},{"pitch":38,"velocity":110,"startTime":158.80436899999998,"endTime":159.02176033333333,"instrument":2,"program":32},{"pitch":38,"velocity":110,"startTime":159.13045599999998,"endTime":159.45654299999998,"instrument":2,"program":32},{"pitch":33,"velocity":110,"startTime":159.6195865,"endTime":159.78262999999998,"instrument":2,"program":32},{"pitch":33,"velocity":110,"startTime":159.9456735,"endTime":160.10871699999998,"instrument":2,"program":32},{"pitch":38,"velocity":110,"startTime":160.43480399999999,"endTime":161.25002149999997,"instrument":2,"program":32},{"pitch":33,"velocity":110,"startTime":161.413065,"endTime":161.57610849999998,"instrument":2,"program":32},{"pitch":40,"velocity":110,"startTime":161.57610849999998,"endTime":161.739152,"instrument":2,"program":32},{"pitch":43,"velocity":110,"startTime":161.739152,"endTime":161.90219549999998,"instrument":2,"program":32},{"pitch":43,"velocity":110,"startTime":162.065239,"endTime":162.22828249999998,"instrument":2,"program":32},{"pitch":38,"velocity":110,"startTime":162.391326,"endTime":162.60871733333332,"instrument":2,"program":32},{"pitch":43,"velocity":110,"startTime":162.717413,"endTime":162.88045649999998,"instrument":2,"program":32},{"pitch":38,"velocity":110,"startTime":163.0435,"endTime":163.20654349999998,"instrument":2,"program":32},{"pitch":43,"velocity":110,"startTime":163.369587,"endTime":163.53263049999998,"instrument":2,"program":32},{"pitch":38,"velocity":110,"startTime":163.695674,"endTime":163.85871749999998,"instrument":2,"program":32},{"pitch":38,"velocity":110,"startTime":164.021761,"endTime":164.18480449999998,"instrument":2,"program":32},{"pitch":38,"velocity":110,"startTime":164.347848,"endTime":164.51089149999999,"instrument":2,"program":32},{"pitch":38,"velocity":110,"startTime":164.673935,"endTime":164.8369785,"instrument":2,"program":32},{"pitch":38,"velocity":110,"startTime":165.000022,"endTime":165.1630655,"instrument":2,"program":32},{"pitch":33,"velocity":110,"startTime":165.32610899999997,"endTime":165.4891525,"instrument":2,"program":32},{"pitch":31,"velocity":110,"startTime":165.65219599999998,"endTime":165.8152395,"instrument":2,"program":32},{"pitch":31,"velocity":110,"startTime":165.97828299999998,"endTime":166.1413265,"instrument":2,"program":32},{"pitch":31,"velocity":110,"startTime":166.30436999999998,"endTime":166.4674135,"instrument":2,"program":32},{"pitch":36,"velocity":110,"startTime":166.63045699999998,"endTime":166.7935005,"instrument":2,"program":32},{"pitch":58,"velocity":105,"startTime":146.413063,"endTime":148.64132416666666,"instrument":3,"program":50},{"pitch":60,"velocity":105,"startTime":146.413063,"endTime":148.58697633333333,"instrument":3,"program":50},{"pitch":63,"velocity":105,"startTime":146.413063,"endTime":148.58697633333333,"instrument":3,"program":50},{"pitch":67,"velocity":105,"startTime":146.413063,"endTime":148.64132416666666,"instrument":3,"program":50},{"pitch":67,"velocity":105,"startTime":147.065237,"endTime":148.58697633333333,"instrument":3,"program":50},{"pitch":72,"velocity":105,"startTime":147.391324,"endTime":148.58697633333333,"instrument":3,"program":50},{"pitch":75,"velocity":105,"startTime":148.043498,"endTime":148.31523716666666,"instrument":3,"program":50},{"pitch":58,"velocity":105,"startTime":148.369585,"endTime":148.58697633333333,"instrument":3,"program":50},{"pitch":60,"velocity":105,"startTime":148.695672,"endTime":151.30436799999998,"instrument":3,"program":50},{"pitch":63,"velocity":105,"startTime":148.695672,"endTime":151.30436799999998,"instrument":3,"program":50},{"pitch":67,"velocity":105,"startTime":148.695672,"endTime":151.30436799999998,"instrument":3,"program":50},{"pitch":58,"velocity":105,"startTime":151.30436799999998,"endTime":153.913064,"instrument":3,"program":50},{"pitch":63,"velocity":105,"startTime":151.30436799999998,"endTime":153.913064,"instrument":3,"program":50},{"pitch":67,"velocity":105,"startTime":151.30436799999998,"endTime":153.913064,"instrument":3,"program":50},{"pitch":74,"velocity":105,"startTime":151.30436799999998,"endTime":153.913064,"instrument":3,"program":50},{"pitch":58,"velocity":105,"startTime":153.913064,"endTime":156.52176,"instrument":3,"program":50},{"pitch":62,"velocity":105,"startTime":153.913064,"endTime":156.52176,"instrument":3,"program":50},{"pitch":63,"velocity":105,"startTime":153.913064,"endTime":156.52176,"instrument":3,"program":50},{"pitch":67,"velocity":105,"startTime":153.913064,"endTime":156.52176,"instrument":3,"program":50},{"pitch":74,"velocity":105,"startTime":153.913064,"endTime":156.52176,"instrument":3,"program":50},{"pitch":60,"velocity":105,"startTime":156.52176,"endTime":159.13045599999998,"instrument":3,"program":50},{"pitch":66,"velocity":105,"startTime":156.52176,"endTime":159.13045599999998,"instrument":3,"program":50},{"pitch":69,"velocity":105,"startTime":156.52176,"endTime":159.13045599999998,"instrument":3,"program":50},{"pitch":74,"velocity":105,"startTime":156.52176,"endTime":159.13045599999998,"instrument":3,"program":50},{"pitch":62,"velocity":105,"startTime":159.13045599999998,"endTime":161.57610849999998,"instrument":3,"program":50},{"pitch":66,"velocity":105,"startTime":159.13045599999998,"endTime":161.57610849999998,"instrument":3,"program":50},{"pitch":70,"velocity":105,"startTime":159.13045599999998,"endTime":161.57610849999998,"instrument":3,"program":50},{"pitch":74,"velocity":105,"startTime":159.13045599999998,"endTime":161.57610849999998,"instrument":3,"program":50},{"pitch":62,"velocity":105,"startTime":161.739152,"endTime":164.347848,"instrument":3,"program":50},{"pitch":67,"velocity":105,"startTime":161.739152,"endTime":164.347848,"instrument":3,"program":50},{"pitch":70,"velocity":105,"startTime":161.739152,"endTime":164.347848,"instrument":3,"program":50},{"pitch":74,"velocity":105,"startTime":161.739152,"endTime":164.347848,"instrument":3,"program":50},{"pitch":60,"velocity":105,"startTime":164.347848,"endTime":165.000022,"instrument":3,"program":50},{"pitch":66,"velocity":105,"startTime":164.347848,"endTime":165.000022,"instrument":3,"program":50},{"pitch":69,"velocity":105,"startTime":164.347848,"endTime":165.000022,"instrument":3,"program":50},{"pitch":74,"velocity":105,"startTime":164.347848,"endTime":165.000022,"instrument":3,"program":50},{"pitch":60,"velocity":105,"startTime":165.000022,"endTime":165.32610899999997,"instrument":3,"program":50},{"pitch":62,"velocity":105,"startTime":165.32610899999997,"endTime":165.8152395,"instrument":3,"program":50},{"pitch":65,"velocity":105,"startTime":165.32610899999997,"endTime":165.8152395,"instrument":3,"program":50},{"pitch":70,"velocity":105,"startTime":165.32610899999997,"endTime":165.8152395,"instrument":3,"program":50},{"pitch":77,"velocity":105,"startTime":165.32610899999997,"endTime":165.7065438333333,"instrument":3,"program":50},{"pitch":58,"velocity":105,"startTime":165.8152395,"endTime":166.1413265,"instrument":3,"program":50},{"pitch":62,"velocity":105,"startTime":165.8152395,"endTime":166.1413265,"instrument":3,"program":50},{"pitch":65,"velocity":105,"startTime":165.8152395,"endTime":166.1413265,"instrument":3,"program":50},{"pitch":70,"velocity":105,"startTime":165.8152395,"endTime":166.1413265,"instrument":3,"program":50},{"pitch":62,"velocity":105,"startTime":166.30436999999998,"endTime":166.4674135,"instrument":3,"program":50},{"pitch":65,"velocity":105,"startTime":166.30436999999998,"endTime":166.4674135,"instrument":3,"program":50},{"pitch":67,"velocity":105,"startTime":166.30436999999998,"endTime":166.4674135,"instrument":3,"program":50},{"pitch":60,"velocity":105,"startTime":166.4674135,"endTime":166.63045699999998,"instrument":3,"program":50},{"pitch":56,"velocity":105,"startTime":166.63045699999998,"endTime":166.95654399999998,"instrument":3,"program":50},{"pitch":60,"velocity":105,"startTime":166.63045699999998,"endTime":166.95654399999998,"instrument":3,"program":50},{"pitch":63,"velocity":105,"startTime":166.63045699999998,"endTime":166.95654399999998,"instrument":3,"program":50},{"pitch":35,"velocity":102,"startTime":166.95654399999998,"endTime":167.1195875,"isDrum":true},{"pitch":42,"velocity":102,"startTime":166.95654399999998,"endTime":167.1195875,"isDrum":true},{"pitch":51,"velocity":102,"startTime":166.95654399999998,"endTime":167.1195875,"isDrum":true},{"pitch":42,"velocity":102,"startTime":167.28263099999998,"endTime":167.4456745,"isDrum":true},{"pitch":51,"velocity":102,"startTime":167.28263099999998,"endTime":167.4456745,"isDrum":true},{"pitch":38,"velocity":102,"startTime":167.60871799999998,"endTime":167.7717615,"isDrum":true},{"pitch":40,"velocity":102,"startTime":167.60871799999998,"endTime":167.7717615,"isDrum":true},{"pitch":42,"velocity":102,"startTime":167.60871799999998,"endTime":167.7717615,"isDrum":true},{"pitch":51,"velocity":102,"startTime":167.60871799999998,"endTime":167.7717615,"isDrum":true},{"pitch":42,"velocity":102,"startTime":167.93480499999998,"endTime":168.0978485,"isDrum":true},{"pitch":51,"velocity":102,"startTime":167.93480499999998,"endTime":168.0978485,"isDrum":true},{"pitch":35,"velocity":102,"startTime":168.26089199999998,"endTime":168.4239355,"isDrum":true},{"pitch":42,"velocity":102,"startTime":168.26089199999998,"endTime":168.4239355,"isDrum":true},{"pitch":51,"velocity":102,"startTime":168.26089199999998,"endTime":168.4239355,"isDrum":true},{"pitch":42,"velocity":102,"startTime":168.58697899999999,"endTime":168.7500225,"isDrum":true},{"pitch":51,"velocity":102,"startTime":168.58697899999999,"endTime":168.7500225,"isDrum":true},{"pitch":38,"velocity":102,"startTime":168.913066,"endTime":169.0761095,"isDrum":true},{"pitch":42,"velocity":102,"startTime":168.913066,"endTime":169.0761095,"isDrum":true},{"pitch":51,"velocity":102,"startTime":168.913066,"endTime":169.0761095,"isDrum":true},{"pitch":35,"velocity":102,"startTime":169.239153,"endTime":169.40219649999997,"isDrum":true},{"pitch":42,"velocity":102,"startTime":169.239153,"endTime":169.40219649999997,"isDrum":true},{"pitch":51,"velocity":102,"startTime":169.239153,"endTime":169.40219649999997,"isDrum":true},{"pitch":35,"velocity":102,"startTime":169.56524,"endTime":169.72828349999997,"isDrum":true},{"pitch":42,"velocity":102,"startTime":169.56524,"endTime":169.72828349999997,"isDrum":true},{"pitch":51,"velocity":102,"startTime":169.56524,"endTime":169.72828349999997,"isDrum":true},{"pitch":42,"velocity":102,"startTime":169.891327,"endTime":170.05437049999998,"isDrum":true},{"pitch":51,"velocity":102,"startTime":169.891327,"endTime":170.05437049999998,"isDrum":true},{"pitch":38,"velocity":102,"startTime":170.217414,"endTime":170.38045749999998,"isDrum":true},{"pitch":40,"velocity":102,"startTime":170.217414,"endTime":170.38045749999998,"isDrum":true},{"pitch":42,"velocity":102,"startTime":170.217414,"endTime":170.38045749999998,"isDrum":true},{"pitch":51,"velocity":102,"startTime":170.217414,"endTime":170.38045749999998,"isDrum":true},{"pitch":42,"velocity":102,"startTime":170.543501,"endTime":170.70654449999998,"isDrum":true},{"pitch":51,"velocity":102,"startTime":170.543501,"endTime":170.70654449999998,"isDrum":true},{"pitch":35,"velocity":102,"startTime":170.869588,"endTime":171.03263149999998,"isDrum":true},{"pitch":42,"velocity":102,"startTime":170.869588,"endTime":171.03263149999998,"isDrum":true},{"pitch":51,"velocity":102,"startTime":170.869588,"endTime":171.03263149999998,"isDrum":true},{"pitch":42,"velocity":102,"startTime":171.195675,"endTime":171.35871849999998,"isDrum":true},{"pitch":51,"velocity":102,"startTime":171.195675,"endTime":171.35871849999998,"isDrum":true},{"pitch":38,"velocity":102,"startTime":171.521762,"endTime":171.68480549999998,"isDrum":true},{"pitch":40,"velocity":102,"startTime":171.521762,"endTime":171.68480549999998,"isDrum":true},{"pitch":42,"velocity":102,"startTime":171.521762,"endTime":171.68480549999998,"isDrum":true},{"pitch":51,"velocity":102,"startTime":171.521762,"endTime":171.68480549999998,"isDrum":true},{"pitch":42,"velocity":102,"startTime":171.847849,"endTime":172.01089249999998,"isDrum":true},{"pitch":51,"velocity":102,"startTime":171.847849,"endTime":172.01089249999998,"isDrum":true},{"pitch":35,"velocity":102,"startTime":172.173936,"endTime":172.33697949999998,"isDrum":true},{"pitch":42,"velocity":102,"startTime":172.173936,"endTime":172.33697949999998,"isDrum":true},{"pitch":51,"velocity":102,"startTime":172.173936,"endTime":172.33697949999998,"isDrum":true},{"pitch":42,"velocity":102,"startTime":172.500023,"endTime":172.66306649999999,"isDrum":true},{"pitch":51,"velocity":102,"startTime":172.500023,"endTime":172.66306649999999,"isDrum":true},{"pitch":38,"velocity":102,"startTime":172.82611,"endTime":172.9891535,"isDrum":true},{"pitch":40,"velocity":102,"startTime":172.82611,"endTime":172.9891535,"isDrum":true},{"pitch":42,"velocity":102,"startTime":172.82611,"endTime":172.9891535,"isDrum":true},{"pitch":51,"velocity":102,"startTime":172.82611,"endTime":172.9891535,"isDrum":true},{"pitch":42,"velocity":102,"startTime":173.152197,"endTime":173.3152405,"isDrum":true},{"pitch":51,"velocity":102,"startTime":173.152197,"endTime":173.3152405,"isDrum":true},{"pitch":35,"velocity":102,"startTime":173.47828399999997,"endTime":173.6413275,"isDrum":true},{"pitch":42,"velocity":102,"startTime":173.47828399999997,"endTime":173.6413275,"isDrum":true},{"pitch":51,"velocity":102,"startTime":173.47828399999997,"endTime":173.6413275,"isDrum":true},{"pitch":42,"velocity":102,"startTime":173.80437099999997,"endTime":173.9674145,"isDrum":true},{"pitch":51,"velocity":102,"startTime":173.80437099999997,"endTime":173.9674145,"isDrum":true},{"pitch":38,"velocity":102,"startTime":174.13045799999998,"endTime":174.2935015,"isDrum":true},{"pitch":40,"velocity":102,"startTime":174.13045799999998,"endTime":174.2935015,"isDrum":true},{"pitch":42,"velocity":102,"startTime":174.13045799999998,"endTime":174.2935015,"isDrum":true},{"pitch":51,"velocity":102,"startTime":174.13045799999998,"endTime":174.2935015,"isDrum":true},{"pitch":42,"velocity":102,"startTime":174.45654499999998,"endTime":174.6195885,"isDrum":true},{"pitch":51,"velocity":102,"startTime":174.45654499999998,"endTime":174.6195885,"isDrum":true},{"pitch":35,"velocity":102,"startTime":174.78263199999998,"endTime":174.9456755,"isDrum":true},{"pitch":42,"velocity":102,"startTime":174.78263199999998,"endTime":174.9456755,"isDrum":true},{"pitch":51,"velocity":102,"startTime":174.78263199999998,"endTime":174.9456755,"isDrum":true},{"pitch":42,"velocity":102,"startTime":175.10871899999998,"endTime":175.2717625,"isDrum":true},{"pitch":51,"velocity":102,"startTime":175.10871899999998,"endTime":175.2717625,"isDrum":true},{"pitch":38,"velocity":102,"startTime":175.43480599999998,"endTime":175.5978495,"isDrum":true},{"pitch":40,"velocity":102,"startTime":175.43480599999998,"endTime":175.5978495,"isDrum":true},{"pitch":42,"velocity":102,"startTime":175.43480599999998,"endTime":175.5978495,"isDrum":true},{"pitch":51,"velocity":102,"startTime":175.43480599999998,"endTime":175.5978495,"isDrum":true},{"pitch":42,"velocity":102,"startTime":175.76089299999998,"endTime":175.9239365,"isDrum":true},{"pitch":51,"velocity":102,"startTime":175.76089299999998,"endTime":175.9239365,"isDrum":true},{"pitch":35,"velocity":102,"startTime":176.08697999999998,"endTime":176.2500235,"isDrum":true},{"pitch":42,"velocity":102,"startTime":176.08697999999998,"endTime":176.2500235,"isDrum":true},{"pitch":51,"velocity":102,"startTime":176.08697999999998,"endTime":176.2500235,"isDrum":true},{"pitch":42,"velocity":102,"startTime":176.41306699999998,"endTime":176.5761105,"isDrum":true},{"pitch":51,"velocity":102,"startTime":176.41306699999998,"endTime":176.5761105,"isDrum":true},{"pitch":38,"velocity":102,"startTime":176.73915399999998,"endTime":176.9021975,"isDrum":true},{"pitch":40,"velocity":102,"startTime":176.73915399999998,"endTime":176.9021975,"isDrum":true},{"pitch":42,"velocity":102,"startTime":176.73915399999998,"endTime":176.9021975,"isDrum":true},{"pitch":51,"velocity":102,"startTime":176.73915399999998,"endTime":176.9021975,"isDrum":true},{"pitch":42,"velocity":102,"startTime":177.065241,"endTime":177.22828449999997,"isDrum":true},{"pitch":51,"velocity":102,"startTime":177.065241,"endTime":177.22828449999997,"isDrum":true},{"pitch":35,"velocity":102,"startTime":177.391328,"endTime":177.55437149999997,"isDrum":true},{"pitch":42,"velocity":102,"startTime":177.391328,"endTime":177.55437149999997,"isDrum":true},{"pitch":51,"velocity":102,"startTime":177.391328,"endTime":177.55437149999997,"isDrum":true},{"pitch":42,"velocity":102,"startTime":177.717415,"endTime":177.88045849999997,"isDrum":true},{"pitch":51,"velocity":102,"startTime":177.717415,"endTime":177.88045849999997,"isDrum":true},{"pitch":38,"velocity":102,"startTime":178.043502,"endTime":178.20654549999998,"isDrum":true},{"pitch":40,"velocity":102,"startTime":178.043502,"endTime":178.20654549999998,"isDrum":true},{"pitch":42,"velocity":102,"startTime":178.043502,"endTime":178.20654549999998,"isDrum":true},{"pitch":51,"velocity":102,"startTime":178.043502,"endTime":178.20654549999998,"isDrum":true},{"pitch":42,"velocity":102,"startTime":178.369589,"endTime":178.53263249999998,"isDrum":true},{"pitch":51,"velocity":102,"startTime":178.369589,"endTime":178.53263249999998,"isDrum":true},{"pitch":35,"velocity":102,"startTime":178.695676,"endTime":178.85871949999998,"isDrum":true},{"pitch":42,"velocity":102,"startTime":178.695676,"endTime":178.85871949999998,"isDrum":true},{"pitch":51,"velocity":102,"startTime":178.695676,"endTime":178.85871949999998,"isDrum":true},{"pitch":42,"velocity":102,"startTime":179.021763,"endTime":179.18480649999998,"isDrum":true},{"pitch":51,"velocity":102,"startTime":179.021763,"endTime":179.18480649999998,"isDrum":true},{"pitch":38,"velocity":102,"startTime":179.34785,"endTime":179.51089349999998,"isDrum":true},{"pitch":42,"velocity":102,"startTime":179.34785,"endTime":179.51089349999998,"isDrum":true},{"pitch":51,"velocity":102,"startTime":179.34785,"endTime":179.51089349999998,"isDrum":true},{"pitch":35,"velocity":102,"startTime":179.673937,"endTime":179.83698049999998,"isDrum":true},{"pitch":42,"velocity":102,"startTime":179.673937,"endTime":179.83698049999998,"isDrum":true},{"pitch":51,"velocity":102,"startTime":179.673937,"endTime":179.83698049999998,"isDrum":true},{"pitch":35,"velocity":102,"startTime":180.000024,"endTime":180.16306749999998,"isDrum":true},{"pitch":42,"velocity":102,"startTime":180.000024,"endTime":180.16306749999998,"isDrum":true},{"pitch":51,"velocity":102,"startTime":180.000024,"endTime":180.16306749999998,"isDrum":true},{"pitch":42,"velocity":102,"startTime":180.326111,"endTime":180.48915449999998,"isDrum":true},{"pitch":51,"velocity":102,"startTime":180.326111,"endTime":180.48915449999998,"isDrum":true},{"pitch":38,"velocity":102,"startTime":180.652198,"endTime":180.81524149999998,"isDrum":true},{"pitch":40,"velocity":102,"startTime":180.652198,"endTime":180.81524149999998,"isDrum":true},{"pitch":42,"velocity":102,"startTime":180.652198,"endTime":180.81524149999998,"isDrum":true},{"pitch":51,"velocity":102,"startTime":180.652198,"endTime":180.81524149999998,"isDrum":true},{"pitch":42,"velocity":102,"startTime":180.978285,"endTime":181.1413285,"isDrum":true},{"pitch":51,"velocity":102,"startTime":180.978285,"endTime":181.1413285,"isDrum":true},{"pitch":35,"velocity":102,"startTime":181.30437199999997,"endTime":181.4674155,"isDrum":true},{"pitch":42,"velocity":102,"startTime":181.30437199999997,"endTime":181.4674155,"isDrum":true},{"pitch":51,"velocity":102,"startTime":181.30437199999997,"endTime":181.4674155,"isDrum":true},{"pitch":42,"velocity":102,"startTime":181.63045899999997,"endTime":181.7935025,"isDrum":true},{"pitch":51,"velocity":102,"startTime":181.63045899999997,"endTime":181.7935025,"isDrum":true},{"pitch":38,"velocity":102,"startTime":181.95654599999997,"endTime":182.1195895,"isDrum":true},{"pitch":40,"velocity":102,"startTime":181.95654599999997,"endTime":182.1195895,"isDrum":true},{"pitch":42,"velocity":102,"startTime":181.95654599999997,"endTime":182.1195895,"isDrum":true},{"pitch":51,"velocity":102,"startTime":181.95654599999997,"endTime":182.1195895,"isDrum":true},{"pitch":42,"velocity":102,"startTime":182.28263299999998,"endTime":182.4456765,"isDrum":true},{"pitch":51,"velocity":102,"startTime":182.28263299999998,"endTime":182.4456765,"isDrum":true},{"pitch":35,"velocity":102,"startTime":182.60871999999998,"endTime":182.7717635,"isDrum":true},{"pitch":42,"velocity":102,"startTime":182.60871999999998,"endTime":182.7717635,"isDrum":true},{"pitch":48,"velocity":102,"startTime":182.60871999999998,"endTime":182.7717635,"isDrum":true},{"pitch":42,"velocity":102,"startTime":182.93480699999998,"endTime":183.0978505,"isDrum":true},{"pitch":51,"velocity":102,"startTime":182.93480699999998,"endTime":183.0978505,"isDrum":true},{"pitch":40,"velocity":102,"startTime":183.26089399999998,"endTime":183.4239375,"isDrum":true},{"pitch":42,"velocity":102,"startTime":183.26089399999998,"endTime":183.4239375,"isDrum":true},{"pitch":51,"velocity":102,"startTime":183.26089399999998,"endTime":183.4239375,"isDrum":true},{"pitch":42,"velocity":102,"startTime":183.58698099999998,"endTime":183.7500245,"isDrum":true},{"pitch":51,"velocity":102,"startTime":183.58698099999998,"endTime":183.7500245,"isDrum":true},{"pitch":35,"velocity":102,"startTime":183.91306799999998,"endTime":184.0761115,"isDrum":true},{"pitch":42,"velocity":102,"startTime":183.91306799999998,"endTime":184.0761115,"isDrum":true},{"pitch":51,"velocity":102,"startTime":183.91306799999998,"endTime":184.0761115,"isDrum":true},{"pitch":42,"velocity":102,"startTime":184.23915499999998,"endTime":184.4021985,"isDrum":true},{"pitch":51,"velocity":102,"startTime":184.23915499999998,"endTime":184.4021985,"isDrum":true},{"pitch":38,"velocity":102,"startTime":184.56524199999998,"endTime":184.7282855,"isDrum":true},{"pitch":40,"velocity":102,"startTime":184.56524199999998,"endTime":184.7282855,"isDrum":true},{"pitch":42,"velocity":102,"startTime":184.56524199999998,"endTime":184.7282855,"isDrum":true},{"pitch":51,"velocity":102,"startTime":184.56524199999998,"endTime":184.7282855,"isDrum":true},{"pitch":42,"velocity":102,"startTime":184.89132899999998,"endTime":185.0543725,"isDrum":true},{"pitch":51,"velocity":102,"startTime":184.89132899999998,"endTime":185.0543725,"isDrum":true},{"pitch":35,"velocity":102,"startTime":185.217416,"endTime":185.38045949999997,"isDrum":true},{"pitch":42,"velocity":102,"startTime":185.217416,"endTime":185.38045949999997,"isDrum":true},{"pitch":51,"velocity":102,"startTime":185.217416,"endTime":185.38045949999997,"isDrum":true},{"pitch":42,"velocity":102,"startTime":185.543503,"endTime":185.70654649999997,"isDrum":true},{"pitch":51,"velocity":102,"startTime":185.543503,"endTime":185.70654649999997,"isDrum":true},{"pitch":38,"velocity":102,"startTime":185.86959,"endTime":186.03263349999997,"isDrum":true},{"pitch":40,"velocity":102,"startTime":185.86959,"endTime":186.03263349999997,"isDrum":true},{"pitch":42,"velocity":102,"startTime":185.86959,"endTime":186.03263349999997,"isDrum":true},{"pitch":51,"velocity":102,"startTime":185.86959,"endTime":186.03263349999997,"isDrum":true},{"pitch":42,"velocity":102,"startTime":186.195677,"endTime":186.35872049999998,"isDrum":true},{"pitch":51,"velocity":102,"startTime":186.195677,"endTime":186.35872049999998,"isDrum":true},{"pitch":35,"velocity":102,"startTime":186.521764,"endTime":186.68480749999998,"isDrum":true},{"pitch":42,"velocity":102,"startTime":186.521764,"endTime":186.68480749999998,"isDrum":true},{"pitch":51,"velocity":102,"startTime":186.521764,"endTime":186.68480749999998,"isDrum":true},{"pitch":42,"velocity":102,"startTime":186.847851,"endTime":187.01089449999998,"isDrum":true},{"pitch":51,"velocity":102,"startTime":186.847851,"endTime":187.01089449999998,"isDrum":true},{"pitch":38,"velocity":102,"startTime":187.173938,"endTime":187.33698149999998,"isDrum":true},{"pitch":40,"velocity":102,"startTime":187.173938,"endTime":187.33698149999998,"isDrum":true},{"pitch":42,"velocity":102,"startTime":187.173938,"endTime":187.33698149999998,"isDrum":true},{"pitch":51,"velocity":102,"startTime":187.173938,"endTime":187.33698149999998,"isDrum":true},{"pitch":42,"velocity":102,"startTime":187.500025,"endTime":187.66306849999998,"isDrum":true},{"pitch":51,"velocity":102,"startTime":187.500025,"endTime":187.66306849999998,"isDrum":true},{"pitch":61,"velocity":95,"startTime":166.95654399999998,"endTime":167.06523966666668,"instrument":1,"program":12},{"pitch":69,"velocity":95,"startTime":167.1195875,"endTime":167.22828316666667,"instrument":1,"program":12},{"pitch":67,"velocity":95,"startTime":167.28263099999998,"endTime":167.39132666666669,"instrument":1,"program":12},{"pitch":73,"velocity":95,"startTime":167.4456745,"endTime":167.55437016666667,"instrument":1,"program":12},{"pitch":69,"velocity":95,"startTime":167.60871799999998,"endTime":167.7174136666667,"instrument":1,"program":12},{"pitch":69,"velocity":95,"startTime":167.7717615,"endTime":167.8261093333333,"instrument":1,"program":12},{"pitch":73,"velocity":95,"startTime":167.93480499999998,"endTime":168.0435006666667,"instrument":1,"program":12},{"pitch":69,"velocity":95,"startTime":168.0978485,"endTime":168.20654416666667,"instrument":1,"program":12},{"pitch":61,"velocity":95,"startTime":168.26089199999998,"endTime":168.36958766666666,"instrument":1,"program":12},{"pitch":67,"velocity":95,"startTime":168.4239355,"endTime":168.53263116666668,"instrument":1,"program":12},{"pitch":69,"velocity":95,"startTime":168.58697899999999,"endTime":168.69567466666666,"instrument":1,"program":12},{"pitch":73,"velocity":95,"startTime":168.7500225,"endTime":168.85871816666668,"instrument":1,"program":12},{"pitch":67,"velocity":95,"startTime":168.913066,"endTime":169.02176166666666,"instrument":1,"program":12},{"pitch":69,"velocity":95,"startTime":169.0761095,"endTime":169.18480516666668,"instrument":1,"program":12},{"pitch":67,"velocity":95,"startTime":169.239153,"endTime":169.34784866666666,"instrument":1,"program":12},{"pitch":70,"velocity":95,"startTime":169.40219649999997,"endTime":169.51089216666668,"instrument":1,"program":12},{"pitch":67,"velocity":95,"startTime":169.56524,"endTime":169.67393566666667,"instrument":1,"program":12},{"pitch":67,"velocity":95,"startTime":169.72828349999997,"endTime":169.83697916666668,"instrument":1,"program":12},{"pitch":69,"velocity":95,"startTime":169.891327,"endTime":170.00002266666667,"instrument":1,"program":12},{"pitch":67,"velocity":95,"startTime":170.05437049999998,"endTime":170.16306616666668,"instrument":1,"program":12},{"pitch":69,"velocity":95,"startTime":170.217414,"endTime":170.32610966666667,"instrument":1,"program":12},{"pitch":69,"velocity":95,"startTime":170.38045749999998,"endTime":170.48915316666668,"instrument":1,"program":12},{"pitch":67,"velocity":95,"startTime":170.543501,"endTime":170.65219666666667,"instrument":1,"program":12},{"pitch":67,"velocity":95,"startTime":170.70654449999998,"endTime":170.81524016666668,"instrument":1,"program":12},{"pitch":69,"velocity":95,"startTime":170.869588,"endTime":170.97828366666667,"instrument":1,"program":12},{"pitch":69,"velocity":95,"startTime":171.03263149999998,"endTime":171.14132716666668,"instrument":1,"program":12},{"pitch":67,"velocity":95,"startTime":171.195675,"endTime":171.30437066666667,"instrument":1,"program":12},{"pitch":69,"velocity":95,"startTime":171.35871849999998,"endTime":171.46741416666669,"instrument":1,"program":12},{"pitch":69,"velocity":95,"startTime":171.521762,"endTime":171.63045766666667,"instrument":1,"program":12},{"pitch":67,"velocity":95,"startTime":171.68480549999998,"endTime":171.7935011666667,"instrument":1,"program":12},{"pitch":67,"velocity":95,"startTime":171.847849,"endTime":171.95654466666667,"instrument":1,"program":12},{"pitch":69,"velocity":95,"startTime":172.01089249999998,"endTime":172.11958816666666,"instrument":1,"program":12},{"pitch":62,"velocity":95,"startTime":172.173936,"endTime":172.28263166666667,"instrument":1,"program":12},{"pitch":65,"velocity":95,"startTime":172.33697949999998,"endTime":172.44567516666666,"instrument":1,"program":12},{"pitch":67,"velocity":95,"startTime":172.500023,"endTime":172.60871866666668,"instrument":1,"program":12},{"pitch":65,"velocity":95,"startTime":172.66306649999999,"endTime":172.77176216666666,"instrument":1,"program":12},{"pitch":74,"velocity":95,"startTime":172.82611,"endTime":172.93480566666668,"instrument":1,"program":12},{"pitch":67,"velocity":95,"startTime":172.9891535,"endTime":173.09784916666666,"instrument":1,"program":12},{"pitch":65,"velocity":95,"startTime":173.152197,"endTime":173.26089266666668,"instrument":1,"program":12},{"pitch":74,"velocity":95,"startTime":173.3152405,"endTime":173.42393616666666,"instrument":1,"program":12},{"pitch":65,"velocity":95,"startTime":173.47828399999997,"endTime":173.58697966666668,"instrument":1,"program":12},{"pitch":67,"velocity":95,"startTime":173.6413275,"endTime":173.75002316666667,"instrument":1,"program":12},{"pitch":70,"velocity":95,"startTime":173.80437099999997,"endTime":173.91306666666668,"instrument":1,"program":12},{"pitch":65,"velocity":95,"startTime":173.9674145,"endTime":174.07611016666667,"instrument":1,"program":12},{"pitch":74,"velocity":95,"startTime":174.13045799999998,"endTime":174.23915366666668,"instrument":1,"program":12},{"pitch":67,"velocity":95,"startTime":174.2935015,"endTime":174.3478493333333,"instrument":1,"program":12},{"pitch":65,"velocity":95,"startTime":174.45654499999998,"endTime":174.56524066666668,"instrument":1,"program":12},{"pitch":67,"velocity":95,"startTime":174.6195885,"endTime":174.72828416666667,"instrument":1,"program":12},{"pitch":62,"velocity":95,"startTime":174.78263199999998,"endTime":174.89132766666668,"instrument":1,"program":12},{"pitch":69,"velocity":95,"startTime":174.9456755,"endTime":175.05437116666667,"instrument":1,"program":12},{"pitch":69,"velocity":95,"startTime":175.10871899999998,"endTime":175.21741466666668,"instrument":1,"program":12},{"pitch":69,"velocity":95,"startTime":175.2717625,"endTime":175.38045816666667,"instrument":1,"program":12},{"pitch":74,"velocity":95,"startTime":175.43480599999998,"endTime":175.54350166666669,"instrument":1,"program":12},{"pitch":69,"velocity":95,"startTime":175.5978495,"endTime":175.70654516666667,"instrument":1,"program":12},{"pitch":69,"velocity":95,"startTime":175.76089299999998,"endTime":175.8695886666667,"instrument":1,"program":12},{"pitch":69,"velocity":95,"startTime":175.9239365,"endTime":176.03263216666667,"instrument":1,"program":12},{"pitch":69,"velocity":95,"startTime":176.08697999999998,"endTime":176.19567566666666,"instrument":1,"program":12},{"pitch":69,"velocity":95,"startTime":176.2500235,"endTime":176.35871916666667,"instrument":1,"program":12},{"pitch":74,"velocity":95,"startTime":176.41306699999998,"endTime":176.52176266666666,"instrument":1,"program":12},{"pitch":69,"velocity":95,"startTime":176.5761105,"endTime":176.68480616666668,"instrument":1,"program":12},{"pitch":72,"velocity":95,"startTime":176.73915399999998,"endTime":176.84784966666666,"instrument":1,"program":12},{"pitch":69,"velocity":95,"startTime":176.9021975,"endTime":177.01089316666668,"instrument":1,"program":12},{"pitch":69,"velocity":95,"startTime":177.065241,"endTime":177.17393666666666,"instrument":1,"program":12},{"pitch":69,"velocity":95,"startTime":177.22828449999997,"endTime":177.2826323333333,"instrument":1,"program":12},{"pitch":67,"velocity":95,"startTime":177.391328,"endTime":177.50002366666666,"instrument":1,"program":12},{"pitch":69,"velocity":95,"startTime":177.55437149999997,"endTime":177.66306716666668,"instrument":1,"program":12},{"pitch":74,"velocity":95,"startTime":177.717415,"endTime":177.82611066666666,"instrument":1,"program":12},{"pitch":69,"velocity":95,"startTime":177.88045849999997,"endTime":177.98915416666668,"instrument":1,"program":12},{"pitch":69,"velocity":95,"startTime":178.043502,"endTime":178.15219766666667,"instrument":1,"program":12},{"pitch":74,"velocity":95,"startTime":178.20654549999998,"endTime":178.31524116666665,"instrument":1,"program":12},{"pitch":69,"velocity":95,"startTime":178.369589,"endTime":178.47828466666667,"instrument":1,"program":12},{"pitch":69,"velocity":95,"startTime":178.53263249999998,"endTime":178.64132816666665,"instrument":1,"program":12},{"pitch":74,"velocity":95,"startTime":178.695676,"endTime":178.80437166666664,"instrument":1,"program":12},{"pitch":69,"velocity":95,"startTime":178.85871949999998,"endTime":178.96741516666665,"instrument":1,"program":12},{"pitch":74,"velocity":95,"startTime":179.021763,"endTime":179.13045866666664,"instrument":1,"program":12},{"pitch":69,"velocity":95,"startTime":179.18480649999998,"endTime":179.29350216666666,"instrument":1,"program":12},{"pitch":67,"velocity":95,"startTime":179.34785,"endTime":179.45654566666664,"instrument":1,"program":12},{"pitch":69,"velocity":95,"startTime":179.51089349999998,"endTime":179.61958916666666,"instrument":1,"program":12},{"pitch":67,"velocity":95,"startTime":179.673937,"endTime":179.78263266666664,"instrument":1,"program":12},{"pitch":69,"velocity":95,"startTime":179.83698049999998,"endTime":179.94567616666666,"instrument":1,"program":12},{"pitch":66,"velocity":95,"startTime":180.000024,"endTime":180.10871966666664,"instrument":1,"program":12},{"pitch":69,"velocity":95,"startTime":180.16306749999998,"endTime":180.27176316666666,"instrument":1,"program":12},{"pitch":72,"velocity":95,"startTime":180.326111,"endTime":180.43480666666665,"instrument":1,"program":12},{"pitch":69,"velocity":95,"startTime":180.48915449999998,"endTime":180.59785016666666,"instrument":1,"program":12},{"pitch":72,"velocity":95,"startTime":180.652198,"endTime":180.76089366666665,"instrument":1,"program":12},{"pitch":69,"velocity":95,"startTime":180.81524149999998,"endTime":180.92393716666666,"instrument":1,"program":12},{"pitch":69,"velocity":95,"startTime":180.978285,"endTime":181.08698066666665,"instrument":1,"program":12},{"pitch":72,"velocity":95,"startTime":181.1413285,"endTime":181.25002416666666,"instrument":1,"program":12},{"pitch":72,"velocity":95,"startTime":181.30437199999997,"endTime":181.41306766666665,"instrument":1,"program":12},{"pitch":69,"velocity":95,"startTime":181.4674155,"endTime":181.57611116666666,"instrument":1,"program":12},{"pitch":72,"velocity":95,"startTime":181.63045899999997,"endTime":181.73915466666665,"instrument":1,"program":12},{"pitch":72,"velocity":95,"startTime":181.7935025,"endTime":181.95654599999997,"instrument":1,"program":12},{"pitch":69,"velocity":95,"startTime":181.95654599999997,"endTime":182.06524166666665,"instrument":1,"program":12},{"pitch":72,"velocity":95,"startTime":182.1195895,"endTime":182.22828516666667,"instrument":1,"program":12},{"pitch":69,"velocity":95,"startTime":182.28263299999998,"endTime":182.39132866666665,"instrument":1,"program":12},{"pitch":72,"velocity":95,"startTime":182.4456765,"endTime":182.55437216666667,"instrument":1,"program":12},{"pitch":67,"velocity":95,"startTime":182.60871999999998,"endTime":182.71741566666665,"instrument":1,"program":12},{"pitch":70,"velocity":95,"startTime":182.7717635,"endTime":182.88045916666664,"instrument":1,"program":12},{"pitch":65,"velocity":95,"startTime":182.93480699999998,"endTime":183.04350266666665,"instrument":1,"program":12},{"pitch":65,"velocity":95,"startTime":183.0978505,"endTime":183.20654616666664,"instrument":1,"program":12},{"pitch":70,"velocity":95,"startTime":183.26089399999998,"endTime":183.36958966666666,"instrument":1,"program":12},{"pitch":65,"velocity":95,"startTime":183.4239375,"endTime":183.53263316666664,"instrument":1,"program":12},{"pitch":65,"velocity":95,"startTime":183.58698099999998,"endTime":183.69567666666666,"instrument":1,"program":12},{"pitch":65,"velocity":95,"startTime":183.7500245,"endTime":183.85872016666664,"instrument":1,"program":12},{"pitch":70,"velocity":95,"startTime":183.91306799999998,"endTime":184.02176366666666,"instrument":1,"program":12},{"pitch":65,"velocity":95,"startTime":184.0761115,"endTime":184.18480716666664,"instrument":1,"program":12},{"pitch":70,"velocity":95,"startTime":184.23915499999998,"endTime":184.34785066666666,"instrument":1,"program":12},{"pitch":65,"velocity":95,"startTime":184.4021985,"endTime":184.51089416666665,"instrument":1,"program":12},{"pitch":70,"velocity":95,"startTime":184.56524199999998,"endTime":184.67393766666666,"instrument":1,"program":12},{"pitch":70,"velocity":95,"startTime":184.7282855,"endTime":184.83698116666665,"instrument":1,"program":12},{"pitch":65,"velocity":95,"startTime":184.89132899999998,"endTime":185.00002466666666,"instrument":1,"program":12},{"pitch":70,"velocity":95,"startTime":185.0543725,"endTime":185.16306816666665,"instrument":1,"program":12},{"pitch":62,"velocity":95,"startTime":185.217416,"endTime":185.32611166666666,"instrument":1,"program":12},{"pitch":65,"velocity":95,"startTime":185.38045949999997,"endTime":185.48915516666665,"instrument":1,"program":12},{"pitch":69,"velocity":95,"startTime":185.543503,"endTime":185.65219866666666,"instrument":1,"program":12},{"pitch":74,"velocity":95,"startTime":185.70654649999997,"endTime":185.81524216666665,"instrument":1,"program":12},{"pitch":77,"velocity":95,"startTime":185.86959,"endTime":185.97828566666666,"instrument":1,"program":12},{"pitch":65,"velocity":95,"startTime":186.03263349999997,"endTime":186.14132916666665,"instrument":1,"program":12},{"pitch":69,"velocity":95,"startTime":186.195677,"endTime":186.30437266666667,"instrument":1,"program":12},{"pitch":74,"velocity":95,"startTime":186.35872049999998,"endTime":186.46741616666665,"instrument":1,"program":12},{"pitch":65,"velocity":95,"startTime":186.521764,"endTime":186.63045966666664,"instrument":1,"program":12},{"pitch":69,"velocity":95,"startTime":186.68480749999998,"endTime":186.79350316666665,"instrument":1,"program":12},{"pitch":74,"velocity":95,"startTime":186.847851,"endTime":186.95654666666664,"instrument":1,"program":12},{"pitch":77,"velocity":95,"startTime":187.01089449999998,"endTime":187.11959016666665,"instrument":1,"program":12},{"pitch":74,"velocity":95,"startTime":187.173938,"endTime":187.28263366666664,"instrument":1,"program":12},{"pitch":74,"velocity":95,"startTime":187.33698149999998,"endTime":187.44567716666666,"instrument":1,"program":12},{"pitch":65,"velocity":95,"startTime":187.500025,"endTime":187.60872066666664,"instrument":1,"program":12},{"pitch":69,"velocity":95,"startTime":187.66306849999998,"endTime":187.77176416666666,"instrument":1,"program":12},{"pitch":43,"velocity":110,"startTime":166.95654399999998,"endTime":167.28263099999998,"instrument":2,"program":32},{"pitch":43,"velocity":110,"startTime":167.4456745,"endTime":167.60871799999998,"instrument":2,"program":32},{"pitch":31,"velocity":110,"startTime":167.7717615,"endTime":167.93480499999998,"instrument":2,"program":32},{"pitch":29,"velocity":110,"startTime":167.93480499999998,"endTime":168.0978485,"instrument":2,"program":32},{"pitch":34,"velocity":110,"startTime":168.26089199999998,"endTime":168.4239355,"instrument":2,"program":32},{"pitch":34,"velocity":110,"startTime":168.58697899999999,"endTime":168.7500225,"instrument":2,"program":32},{"pitch":29,"velocity":110,"startTime":168.913066,"endTime":169.0761095,"instrument":2,"program":32},{"pitch":46,"velocity":110,"startTime":169.239153,"endTime":169.40219649999997,"instrument":2,"program":32},{"pitch":43,"velocity":110,"startTime":169.56524,"endTime":169.891327,"instrument":2,"program":32},{"pitch":43,"velocity":110,"startTime":170.05437049999998,"endTime":170.217414,"instrument":2,"program":32},{"pitch":43,"velocity":110,"startTime":170.38045749999998,"endTime":170.48915316666668,"instrument":2,"program":32},{"pitch":38,"velocity":110,"startTime":170.543501,"endTime":170.70654449999998,"instrument":2,"program":32},{"pitch":38,"velocity":110,"startTime":170.869588,"endTime":171.195675,"instrument":2,"program":32},{"pitch":31,"velocity":110,"startTime":171.521762,"endTime":171.7935011666667,"instrument":2,"program":32},{"pitch":38,"velocity":110,"startTime":171.847849,"endTime":172.01089249999998,"instrument":2,"program":32},{"pitch":39,"velocity":110,"startTime":172.173936,"endTime":172.500023,"instrument":2,"program":32},{"pitch":27,"velocity":110,"startTime":172.66306649999999,"endTime":172.82611,"instrument":2,"program":32},{"pitch":27,"velocity":110,"startTime":172.9891535,"endTime":173.152197,"instrument":2,"program":32},{"pitch":36,"velocity":110,"startTime":173.152197,"endTime":173.75002316666667,"instrument":2,"program":32},{"pitch":38,"velocity":110,"startTime":173.80437099999997,"endTime":173.9674145,"instrument":2,"program":32},{"pitch":29,"velocity":110,"startTime":174.13045799999998,"endTime":174.2935015,"instrument":2,"program":32},{"pitch":33,"velocity":110,"startTime":174.45654499999998,"endTime":174.6195885,"instrument":2,"program":32},{"pitch":38,"velocity":110,"startTime":174.78263199999998,"endTime":175.10871899999998,"instrument":2,"program":32},{"pitch":50,"velocity":110,"startTime":175.2717625,"endTime":175.43480599999998,"instrument":2,"program":32},{"pitch":50,"velocity":110,"startTime":175.5978495,"endTime":175.76089299999998,"instrument":2,"program":32},{"pitch":38,"velocity":110,"startTime":175.76089299999998,"endTime":175.9239365,"instrument":2,"program":32},{"pitch":33,"velocity":110,"startTime":176.08697999999998,"endTime":176.41306699999998,"instrument":2,"program":32},{"pitch":43,"velocity":110,"startTime":176.73915399999998,"endTime":176.84784966666666,"instrument":2,"program":32},{"pitch":43,"velocity":110,"startTime":176.9021975,"endTime":177.01089316666668,"instrument":2,"program":32},{"pitch":38,"velocity":110,"startTime":177.22828449999997,"endTime":177.33698016666668,"instrument":2,"program":32},{"pitch":42,"velocity":110,"startTime":177.391328,"endTime":177.717415,"instrument":2,"program":32},{"pitch":31,"velocity":110,"startTime":178.043502,"endTime":178.20654549999998,"instrument":2,"program":32},{"pitch":43,"velocity":110,"startTime":178.369589,"endTime":178.53263249999998,"instrument":2,"program":32},{"pitch":43,"velocity":110,"startTime":178.695676,"endTime":178.85871949999998,"instrument":2,"program":32},{"pitch":31,"velocity":110,"startTime":179.021763,"endTime":179.18480649999998,"instrument":2,"program":32},{"pitch":34,"velocity":110,"startTime":179.34785,"endTime":179.51089349999998,"instrument":2,"program":32},{"pitch":37,"velocity":110,"startTime":179.673937,"endTime":179.83698049999998,"instrument":2,"program":32},{"pitch":36,"velocity":110,"startTime":180.000024,"endTime":180.54350233333332,"instrument":2,"program":32},{"pitch":31,"velocity":110,"startTime":180.652198,"endTime":180.81524149999998,"instrument":2,"program":32},{"pitch":31,"velocity":110,"startTime":180.978285,"endTime":181.1413285,"instrument":2,"program":32},{"pitch":36,"velocity":110,"startTime":181.30437199999997,"endTime":181.63045899999997,"instrument":2,"program":32},{"pitch":36,"velocity":110,"startTime":181.7935025,"endTime":181.95654599999997,"instrument":2,"program":32},{"pitch":43,"velocity":110,"startTime":182.1195895,"endTime":182.28263299999998,"instrument":2,"program":32},{"pitch":31,"velocity":110,"startTime":182.28263299999998,"endTime":182.4456765,"instrument":2,"program":32},{"pitch":39,"velocity":110,"startTime":182.60871999999998,"endTime":182.93480699999998,"instrument":2,"program":32},{"pitch":39,"velocity":110,"startTime":183.0978505,"endTime":183.26089399999998,"instrument":2,"program":32},{"pitch":39,"velocity":110,"startTime":183.4239375,"endTime":183.58698099999998,"instrument":2,"program":32},{"pitch":41,"velocity":110,"startTime":183.58698099999998,"endTime":183.7500245,"instrument":2,"program":32},{"pitch":31,"velocity":110,"startTime":183.91306799999998,"endTime":184.0761115,"instrument":2,"program":32},{"pitch":31,"velocity":110,"startTime":184.23915499999998,"endTime":184.4021985,"instrument":2,"program":32},{"pitch":34,"velocity":110,"startTime":184.56524199999998,"endTime":184.7282855,"instrument":2,"program":32},{"pitch":38,"velocity":110,"startTime":184.89132899999998,"endTime":185.0543725,"instrument":2,"program":32},{"pitch":38,"velocity":110,"startTime":185.217416,"endTime":185.543503,"instrument":2,"program":32},{"pitch":38,"velocity":110,"startTime":185.86959,"endTime":186.03263349999997,"instrument":2,"program":32},{"pitch":38,"velocity":110,"startTime":186.195677,"endTime":186.35872049999998,"instrument":2,"program":32},{"pitch":38,"velocity":110,"startTime":186.521764,"endTime":186.68480749999998,"instrument":2,"program":32},{"pitch":43,"velocity":110,"startTime":186.847851,"endTime":187.01089449999998,"instrument":2,"program":32},{"pitch":43,"velocity":110,"startTime":187.173938,"endTime":187.33698149999998,"instrument":2,"program":32},{"pitch":38,"velocity":110,"startTime":187.500025,"endTime":187.66306849999998,"instrument":2,"program":32},{"pitch":59,"velocity":105,"startTime":166.95654399999998,"endTime":169.34784866666666,"instrument":3,"program":50},{"pitch":64,"velocity":105,"startTime":166.95654399999998,"endTime":167.93480499999998,"instrument":3,"program":50},{"pitch":67,"velocity":105,"startTime":166.95654399999998,"endTime":169.34784866666666,"instrument":3,"program":50},{"pitch":74,"velocity":105,"startTime":166.95654399999998,"endTime":169.34784866666666,"instrument":3,"program":50},{"pitch":60,"velocity":105,"startTime":167.93480499999998,"endTime":167.9891528333333,"instrument":3,"program":50},{"pitch":63,"velocity":105,"startTime":168.26089199999998,"endTime":168.69567466666666,"instrument":3,"program":50},{"pitch":64,"velocity":105,"startTime":168.913066,"endTime":169.34784866666666,"instrument":3,"program":50},{"pitch":57,"velocity":105,"startTime":169.40219649999997,"endTime":171.7391533333333,"instrument":3,"program":50},{"pitch":60,"velocity":105,"startTime":169.40219649999997,"endTime":171.7391533333333,"instrument":3,"program":50},{"pitch":66,"velocity":105,"startTime":169.40219649999997,"endTime":171.7391533333333,"instrument":3,"program":50},{"pitch":69,"velocity":105,"startTime":169.40219649999997,"endTime":171.7391533333333,"instrument":3,"program":50},{"pitch":55,"velocity":105,"startTime":172.173936,"endTime":174.13045799999998,"instrument":3,"program":50},{"pitch":58,"velocity":105,"startTime":172.173936,"endTime":174.13045799999998,"instrument":3,"program":50},{"pitch":63,"velocity":105,"startTime":172.173936,"endTime":173.47828399999997,"instrument":3,"program":50},{"pitch":67,"velocity":105,"startTime":172.173936,"endTime":174.13045799999998,"instrument":3,"program":50},{"pitch":61,"velocity":105,"startTime":173.47828399999997,"endTime":174.0217623333333,"instrument":3,"program":50},{"pitch":63,"velocity":105,"startTime":173.9674145,"endTime":174.13045799999998,"instrument":3,"program":50},{"pitch":60,"velocity":105,"startTime":174.13045799999998,"endTime":174.78263199999998,"instrument":3,"program":50},{"pitch":63,"velocity":105,"startTime":174.13045799999998,"endTime":174.78263199999998,"instrument":3,"program":50},{"pitch":65,"velocity":105,"startTime":174.13045799999998,"endTime":174.78263199999998,"instrument":3,"program":50},{"pitch":67,"velocity":105,"startTime":174.13045799999998,"endTime":174.78263199999998,"instrument":3,"program":50},{"pitch":58,"velocity":105,"startTime":174.78263199999998,"endTime":177.391328,"instrument":3,"program":50},{"pitch":60,"velocity":105,"startTime":174.78263199999998,"endTime":177.391328,"instrument":3,"program":50},{"pitch":63,"velocity":105,"startTime":174.78263199999998,"endTime":177.391328,"instrument":3,"program":50},{"pitch":66,"velocity":105,"startTime":174.78263199999998,"endTime":177.391328,"instrument":3,"program":50},{"pitch":57,"velocity":105,"startTime":177.391328,"endTime":178.96741516666665,"instrument":3,"program":50},{"pitch":60,"velocity":105,"startTime":177.391328,"endTime":179.34785,"instrument":3,"program":50},{"pitch":65,"velocity":105,"startTime":177.391328,"endTime":179.34785,"instrument":3,"program":50},{"pitch":69,"velocity":105,"startTime":177.391328,"endTime":179.34785,"instrument":3,"program":50},{"pitch":57,"velocity":105,"startTime":179.021763,"endTime":179.34785,"instrument":3,"program":50},{"pitch":58,"velocity":105,"startTime":179.34785,"endTime":180.000024,"instrument":3,"program":50},{"pitch":60,"velocity":105,"startTime":179.34785,"endTime":180.000024,"instrument":3,"program":50},{"pitch":65,"velocity":105,"startTime":179.34785,"endTime":180.000024,"instrument":3,"program":50},{"pitch":58,"velocity":105,"startTime":180.000024,"endTime":182.60871999999998,"instrument":3,"program":50},{"pitch":60,"velocity":105,"startTime":180.000024,"endTime":182.60871999999998,"instrument":3,"program":50},{"pitch":65,"velocity":105,"startTime":180.000024,"endTime":182.60871999999998,"instrument":3,"program":50},{"pitch":67,"velocity":105,"startTime":180.000024,"endTime":182.60871999999998,"instrument":3,"program":50},{"pitch":60,"velocity":105,"startTime":182.60871999999998,"endTime":185.217416,"instrument":3,"program":50},{"pitch":63,"velocity":105,"startTime":182.60871999999998,"endTime":185.217416,"instrument":3,"program":50},{"pitch":65,"velocity":105,"startTime":182.60871999999998,"endTime":185.217416,"instrument":3,"program":50},{"pitch":70,"velocity":105,"startTime":182.60871999999998,"endTime":185.217416,"instrument":3,"program":50},{"pitch":56,"velocity":105,"startTime":185.217416,"endTime":185.38045949999997,"instrument":3,"program":50},{"pitch":62,"velocity":105,"startTime":185.217416,"endTime":185.38045949999997,"instrument":3,"program":50},{"pitch":69,"velocity":105,"startTime":185.217416,"endTime":185.38045949999997,"instrument":3,"program":50},{"pitch":74,"velocity":105,"startTime":185.217416,"endTime":185.38045949999997,"instrument":3,"program":50},{"pitch":35,"velocity":102,"startTime":187.826112,"endTime":187.98915549999998,"isDrum":true},{"pitch":42,"velocity":102,"startTime":187.826112,"endTime":187.98915549999998,"isDrum":true},{"pitch":51,"velocity":102,"startTime":187.826112,"endTime":187.98915549999998,"isDrum":true},{"pitch":42,"velocity":102,"startTime":188.152199,"endTime":188.31524249999998,"isDrum":true},{"pitch":40,"velocity":102,"startTime":188.478286,"endTime":188.64132949999998,"isDrum":true},{"pitch":42,"velocity":102,"startTime":188.478286,"endTime":188.64132949999998,"isDrum":true},{"pitch":51,"velocity":102,"startTime":188.478286,"endTime":188.64132949999998,"isDrum":true},{"pitch":42,"velocity":102,"startTime":188.804373,"endTime":188.96741649999998,"isDrum":true},{"pitch":35,"velocity":102,"startTime":189.13046,"endTime":189.29350349999999,"isDrum":true},{"pitch":42,"velocity":102,"startTime":189.13046,"endTime":189.29350349999999,"isDrum":true},{"pitch":51,"velocity":102,"startTime":189.13046,"endTime":189.29350349999999,"isDrum":true},{"pitch":42,"velocity":102,"startTime":189.45654699999997,"endTime":189.6195905,"isDrum":true},{"pitch":40,"velocity":102,"startTime":189.78263399999997,"endTime":189.9456775,"isDrum":true},{"pitch":42,"velocity":102,"startTime":189.78263399999997,"endTime":189.9456775,"isDrum":true},{"pitch":51,"velocity":102,"startTime":189.78263399999997,"endTime":189.9456775,"isDrum":true},{"pitch":42,"velocity":102,"startTime":190.10872099999997,"endTime":190.2717645,"isDrum":true},{"pitch":35,"velocity":102,"startTime":190.43480799999998,"endTime":190.5978515,"isDrum":true},{"pitch":42,"velocity":102,"startTime":190.43480799999998,"endTime":190.5978515,"isDrum":true},{"pitch":51,"velocity":102,"startTime":190.43480799999998,"endTime":190.5978515,"isDrum":true},{"pitch":42,"velocity":102,"startTime":190.76089499999998,"endTime":190.9239385,"isDrum":true},{"pitch":40,"velocity":102,"startTime":191.08698199999998,"endTime":191.2500255,"isDrum":true},{"pitch":42,"velocity":102,"startTime":191.08698199999998,"endTime":191.2500255,"isDrum":true},{"pitch":51,"velocity":102,"startTime":191.08698199999998,"endTime":191.2500255,"isDrum":true},{"pitch":42,"velocity":102,"startTime":191.41306899999998,"endTime":191.5761125,"isDrum":true},{"pitch":35,"velocity":102,"startTime":191.73915599999998,"endTime":191.9021995,"isDrum":true},{"pitch":42,"velocity":102,"startTime":191.73915599999998,"endTime":191.9021995,"isDrum":true},{"pitch":51,"velocity":102,"startTime":191.73915599999998,"endTime":191.9021995,"isDrum":true},{"pitch":42,"velocity":102,"startTime":192.06524299999998,"endTime":192.2282865,"isDrum":true},{"pitch":40,"velocity":102,"startTime":192.39132999999998,"endTime":192.5543735,"isDrum":true},{"pitch":42,"velocity":102,"startTime":192.39132999999998,"endTime":192.5543735,"isDrum":true},{"pitch":51,"velocity":102,"startTime":192.39132999999998,"endTime":192.5543735,"isDrum":true},{"pitch":42,"velocity":102,"startTime":192.71741699999998,"endTime":192.8804605,"isDrum":true},{"pitch":35,"velocity":102,"startTime":193.04350399999998,"endTime":193.2065475,"isDrum":true},{"pitch":42,"velocity":102,"startTime":193.04350399999998,"endTime":193.2065475,"isDrum":true},{"pitch":51,"velocity":102,"startTime":193.04350399999998,"endTime":193.2065475,"isDrum":true},{"pitch":42,"velocity":102,"startTime":193.36959099999999,"endTime":193.53263449999997,"isDrum":true},{"pitch":40,"velocity":102,"startTime":193.695678,"endTime":193.85872149999997,"isDrum":true},{"pitch":42,"velocity":102,"startTime":193.695678,"endTime":193.85872149999997,"isDrum":true},{"pitch":51,"velocity":102,"startTime":193.695678,"endTime":193.85872149999997,"isDrum":true},{"pitch":42,"velocity":102,"startTime":194.021765,"endTime":194.18480849999997,"isDrum":true},{"pitch":35,"velocity":102,"startTime":194.347852,"endTime":194.51089549999998,"isDrum":true},{"pitch":42,"velocity":102,"startTime":194.347852,"endTime":194.51089549999998,"isDrum":true},{"pitch":51,"velocity":102,"startTime":194.347852,"endTime":194.51089549999998,"isDrum":true},{"pitch":42,"velocity":102,"startTime":194.673939,"endTime":194.83698249999998,"isDrum":true},{"pitch":40,"velocity":102,"startTime":195.000026,"endTime":195.16306949999998,"isDrum":true},{"pitch":42,"velocity":102,"startTime":195.000026,"endTime":195.16306949999998,"isDrum":true},{"pitch":51,"velocity":102,"startTime":195.000026,"endTime":195.16306949999998,"isDrum":true},{"pitch":42,"velocity":102,"startTime":195.326113,"endTime":195.48915649999998,"isDrum":true},{"pitch":35,"velocity":102,"startTime":195.6522,"endTime":195.81524349999998,"isDrum":true},{"pitch":42,"velocity":102,"startTime":195.6522,"endTime":195.81524349999998,"isDrum":true},{"pitch":51,"velocity":102,"startTime":195.6522,"endTime":195.81524349999998,"isDrum":true},{"pitch":42,"velocity":102,"startTime":195.978287,"endTime":196.14133049999998,"isDrum":true},{"pitch":40,"velocity":102,"startTime":196.304374,"endTime":196.46741749999998,"isDrum":true},{"pitch":42,"velocity":102,"startTime":196.304374,"endTime":196.46741749999998,"isDrum":true},{"pitch":51,"velocity":102,"startTime":196.304374,"endTime":196.46741749999998,"isDrum":true},{"pitch":42,"velocity":102,"startTime":196.630461,"endTime":196.79350449999998,"isDrum":true},{"pitch":35,"velocity":102,"startTime":196.956548,"endTime":197.11959149999998,"isDrum":true},{"pitch":42,"velocity":102,"startTime":196.956548,"endTime":197.11959149999998,"isDrum":true},{"pitch":51,"velocity":102,"startTime":196.956548,"endTime":197.11959149999998,"isDrum":true},{"pitch":35,"velocity":102,"startTime":197.282635,"endTime":197.44567849999999,"isDrum":true},{"pitch":42,"velocity":102,"startTime":197.282635,"endTime":197.44567849999999,"isDrum":true},{"pitch":40,"velocity":102,"startTime":197.60872199999997,"endTime":197.7717655,"isDrum":true},{"pitch":42,"velocity":102,"startTime":197.60872199999997,"endTime":197.7717655,"isDrum":true},{"pitch":51,"velocity":102,"startTime":197.60872199999997,"endTime":197.7717655,"isDrum":true},{"pitch":42,"velocity":102,"startTime":197.93480899999997,"endTime":198.0978525,"isDrum":true},{"pitch":35,"velocity":102,"startTime":198.26089599999997,"endTime":198.4239395,"isDrum":true},{"pitch":42,"velocity":102,"startTime":198.26089599999997,"endTime":198.4239395,"isDrum":true},{"pitch":51,"velocity":102,"startTime":198.26089599999997,"endTime":198.4239395,"isDrum":true},{"pitch":42,"velocity":102,"startTime":198.58698299999998,"endTime":198.7500265,"isDrum":true},{"pitch":40,"velocity":102,"startTime":198.91306999999998,"endTime":199.0761135,"isDrum":true},{"pitch":42,"velocity":102,"startTime":198.91306999999998,"endTime":199.0761135,"isDrum":true},{"pitch":51,"velocity":102,"startTime":198.91306999999998,"endTime":199.0761135,"isDrum":true},{"pitch":42,"velocity":102,"startTime":199.23915699999998,"endTime":199.4022005,"isDrum":true},{"pitch":35,"velocity":102,"startTime":199.56524399999998,"endTime":199.7282875,"isDrum":true},{"pitch":42,"velocity":102,"startTime":199.56524399999998,"endTime":199.7282875,"isDrum":true},{"pitch":51,"velocity":102,"startTime":199.56524399999998,"endTime":199.7282875,"isDrum":true},{"pitch":35,"velocity":102,"startTime":199.89133099999998,"endTime":200.0543745,"isDrum":true},{"pitch":42,"velocity":102,"startTime":199.89133099999998,"endTime":200.0543745,"isDrum":true},{"pitch":40,"velocity":102,"startTime":200.21741799999998,"endTime":200.3804615,"isDrum":true},{"pitch":42,"velocity":102,"startTime":200.21741799999998,"endTime":200.3804615,"isDrum":true},{"pitch":51,"velocity":102,"startTime":200.21741799999998,"endTime":200.3804615,"isDrum":true},{"pitch":42,"velocity":102,"startTime":200.54350499999998,"endTime":200.7065485,"isDrum":true},{"pitch":35,"velocity":102,"startTime":200.86959199999998,"endTime":201.0326355,"isDrum":true},{"pitch":42,"velocity":102,"startTime":200.86959199999998,"endTime":201.0326355,"isDrum":true},{"pitch":51,"velocity":102,"startTime":200.86959199999998,"endTime":201.0326355,"isDrum":true},{"pitch":42,"velocity":102,"startTime":201.19567899999998,"endTime":201.3587225,"isDrum":true},{"pitch":40,"velocity":102,"startTime":201.52176599999999,"endTime":201.68480949999997,"isDrum":true},{"pitch":42,"velocity":102,"startTime":201.52176599999999,"endTime":201.68480949999997,"isDrum":true},{"pitch":51,"velocity":102,"startTime":201.52176599999999,"endTime":201.68480949999997,"isDrum":true},{"pitch":42,"velocity":102,"startTime":201.847853,"endTime":202.01089649999997,"isDrum":true},{"pitch":35,"velocity":102,"startTime":202.17394,"endTime":202.33698349999997,"isDrum":true},{"pitch":42,"velocity":102,"startTime":202.17394,"endTime":202.33698349999997,"isDrum":true},{"pitch":51,"velocity":102,"startTime":202.17394,"endTime":202.33698349999997,"isDrum":true},{"pitch":35,"velocity":102,"startTime":202.500027,"endTime":202.66307049999998,"isDrum":true},{"pitch":42,"velocity":102,"startTime":202.500027,"endTime":202.66307049999998,"isDrum":true},{"pitch":40,"velocity":102,"startTime":202.826114,"endTime":202.98915749999998,"isDrum":true},{"pitch":42,"velocity":102,"startTime":202.826114,"endTime":202.98915749999998,"isDrum":true},{"pitch":51,"velocity":102,"startTime":202.826114,"endTime":202.98915749999998,"isDrum":true},{"pitch":42,"velocity":102,"startTime":203.152201,"endTime":203.31524449999998,"isDrum":true},{"pitch":35,"velocity":102,"startTime":203.478288,"endTime":203.64133149999998,"isDrum":true},{"pitch":42,"velocity":102,"startTime":203.478288,"endTime":203.64133149999998,"isDrum":true},{"pitch":51,"velocity":102,"startTime":203.478288,"endTime":203.64133149999998,"isDrum":true},{"pitch":42,"velocity":102,"startTime":203.804375,"endTime":203.96741849999998,"isDrum":true},{"pitch":40,"velocity":102,"startTime":204.130462,"endTime":204.29350549999998,"isDrum":true},{"pitch":42,"velocity":102,"startTime":204.130462,"endTime":204.29350549999998,"isDrum":true},{"pitch":51,"velocity":102,"startTime":204.130462,"endTime":204.29350549999998,"isDrum":true},{"pitch":42,"velocity":102,"startTime":204.456549,"endTime":204.61959249999998,"isDrum":true},{"pitch":35,"velocity":102,"startTime":204.782636,"endTime":204.94567949999998,"isDrum":true},{"pitch":42,"velocity":102,"startTime":204.782636,"endTime":204.94567949999998,"isDrum":true},{"pitch":51,"velocity":102,"startTime":204.782636,"endTime":204.94567949999998,"isDrum":true},{"pitch":35,"velocity":102,"startTime":205.108723,"endTime":205.27176649999998,"isDrum":true},{"pitch":42,"velocity":102,"startTime":205.108723,"endTime":205.27176649999998,"isDrum":true},{"pitch":40,"velocity":102,"startTime":205.43480999999997,"endTime":205.59785349999999,"isDrum":true},{"pitch":42,"velocity":102,"startTime":205.43480999999997,"endTime":205.59785349999999,"isDrum":true},{"pitch":48,"velocity":102,"startTime":205.43480999999997,"endTime":205.59785349999999,"isDrum":true},{"pitch":35,"velocity":102,"startTime":205.76089699999997,"endTime":205.9239405,"isDrum":true},{"pitch":42,"velocity":102,"startTime":205.76089699999997,"endTime":205.9239405,"isDrum":true},{"pitch":35,"velocity":102,"startTime":206.08698399999997,"endTime":206.2500275,"isDrum":true},{"pitch":42,"velocity":102,"startTime":206.08698399999997,"endTime":206.2500275,"isDrum":true},{"pitch":51,"velocity":102,"startTime":206.08698399999997,"endTime":206.2500275,"isDrum":true},{"pitch":42,"velocity":102,"startTime":206.41307099999997,"endTime":206.5761145,"isDrum":true},{"pitch":40,"velocity":102,"startTime":206.73915799999997,"endTime":206.9022015,"isDrum":true},{"pitch":42,"velocity":102,"startTime":206.73915799999997,"endTime":206.9022015,"isDrum":true},{"pitch":51,"velocity":102,"startTime":206.73915799999997,"endTime":206.9022015,"isDrum":true},{"pitch":42,"velocity":102,"startTime":207.06524499999998,"endTime":207.2282885,"isDrum":true},{"pitch":35,"velocity":102,"startTime":207.39133199999998,"endTime":207.5543755,"isDrum":true},{"pitch":42,"velocity":102,"startTime":207.39133199999998,"endTime":207.5543755,"isDrum":true},{"pitch":51,"velocity":102,"startTime":207.39133199999998,"endTime":207.5543755,"isDrum":true},{"pitch":35,"velocity":102,"startTime":207.71741899999998,"endTime":207.8804625,"isDrum":true},{"pitch":42,"velocity":102,"startTime":207.71741899999998,"endTime":207.8804625,"isDrum":true},{"pitch":40,"velocity":102,"startTime":208.04350599999998,"endTime":208.2065495,"isDrum":true},{"pitch":42,"velocity":102,"startTime":208.04350599999998,"endTime":208.2065495,"isDrum":true},{"pitch":42,"velocity":102,"startTime":208.36959299999998,"endTime":208.5326365,"isDrum":true},{"pitch":67,"velocity":95,"startTime":187.826112,"endTime":187.93480766666664,"instrument":1,"program":12},{"pitch":70,"velocity":95,"startTime":187.98915549999998,"endTime":188.09785116666666,"instrument":1,"program":12},{"pitch":67,"velocity":95,"startTime":188.152199,"endTime":188.26089466666664,"instrument":1,"program":12},{"pitch":70,"velocity":95,"startTime":188.31524249999998,"endTime":188.36959033333332,"instrument":1,"program":12},{"pitch":67,"velocity":95,"startTime":188.478286,"endTime":188.58698166666665,"instrument":1,"program":12},{"pitch":67,"velocity":95,"startTime":188.64132949999998,"endTime":188.69567733333332,"instrument":1,"program":12},{"pitch":70,"velocity":95,"startTime":188.804373,"endTime":188.91306866666665,"instrument":1,"program":12},{"pitch":67,"velocity":95,"startTime":188.96741649999998,"endTime":189.07611216666666,"instrument":1,"program":12},{"pitch":63,"velocity":95,"startTime":189.13046,"endTime":189.23915566666665,"instrument":1,"program":12},{"pitch":67,"velocity":95,"startTime":189.29350349999999,"endTime":189.40219916666666,"instrument":1,"program":12},{"pitch":70,"velocity":95,"startTime":189.45654699999997,"endTime":189.56524266666665,"instrument":1,"program":12},{"pitch":75,"velocity":95,"startTime":189.6195905,"endTime":189.72828616666666,"instrument":1,"program":12},{"pitch":70,"velocity":95,"startTime":189.78263399999997,"endTime":189.89132966666665,"instrument":1,"program":12},{"pitch":70,"velocity":95,"startTime":189.9456775,"endTime":190.05437316666666,"instrument":1,"program":12},{"pitch":67,"velocity":95,"startTime":190.10872099999997,"endTime":190.21741666666665,"instrument":1,"program":12},{"pitch":70,"velocity":95,"startTime":190.2717645,"endTime":190.38046016666667,"instrument":1,"program":12},{"pitch":62,"velocity":95,"startTime":190.43480799999998,"endTime":190.54350366666665,"instrument":1,"program":12},{"pitch":69,"velocity":95,"startTime":190.5978515,"endTime":190.70654716666664,"instrument":1,"program":12},{"pitch":74,"velocity":95,"startTime":190.76089499999998,"endTime":190.86959066666665,"instrument":1,"program":12},{"pitch":74,"velocity":95,"startTime":190.9239385,"endTime":191.03263416666664,"instrument":1,"program":12},{"pitch":74,"velocity":95,"startTime":191.08698199999998,"endTime":191.19567766666665,"instrument":1,"program":12},{"pitch":69,"velocity":95,"startTime":191.2500255,"endTime":191.35872116666664,"instrument":1,"program":12},{"pitch":74,"velocity":95,"startTime":191.41306899999998,"endTime":191.52176466666666,"instrument":1,"program":12},{"pitch":69,"velocity":95,"startTime":191.5761125,"endTime":191.68480816666664,"instrument":1,"program":12},{"pitch":74,"velocity":95,"startTime":191.73915599999998,"endTime":191.84785166666666,"instrument":1,"program":12},{"pitch":69,"velocity":95,"startTime":191.9021995,"endTime":192.01089516666664,"instrument":1,"program":12},{"pitch":74,"velocity":95,"startTime":192.06524299999998,"endTime":192.17393866666666,"instrument":1,"program":12},{"pitch":74,"velocity":95,"startTime":192.2282865,"endTime":192.33698216666664,"instrument":1,"program":12},{"pitch":69,"velocity":95,"startTime":192.39132999999998,"endTime":192.50002566666666,"instrument":1,"program":12},{"pitch":74,"velocity":95,"startTime":192.5543735,"endTime":192.66306916666665,"instrument":1,"program":12},{"pitch":69,"velocity":95,"startTime":192.71741699999998,"endTime":192.82611266666666,"instrument":1,"program":12},{"pitch":74,"velocity":95,"startTime":192.8804605,"endTime":192.98915616666665,"instrument":1,"program":12},{"pitch":62,"velocity":95,"startTime":193.04350399999998,"endTime":193.15219966666666,"instrument":1,"program":12},{"pitch":69,"velocity":95,"startTime":193.2065475,"endTime":193.31524316666665,"instrument":1,"program":12},{"pitch":72,"velocity":95,"startTime":193.36959099999999,"endTime":193.47828666666666,"instrument":1,"program":12},{"pitch":69,"velocity":95,"startTime":193.53263449999997,"endTime":193.64133016666665,"instrument":1,"program":12},{"pitch":74,"velocity":95,"startTime":193.695678,"endTime":193.80437366666666,"instrument":1,"program":12},{"pitch":69,"velocity":95,"startTime":193.85872149999997,"endTime":193.96741716666665,"instrument":1,"program":12},{"pitch":74,"velocity":95,"startTime":194.021765,"endTime":194.13046066666666,"instrument":1,"program":12},{"pitch":69,"velocity":95,"startTime":194.18480849999997,"endTime":194.29350416666665,"instrument":1,"program":12},{"pitch":74,"velocity":95,"startTime":194.347852,"endTime":194.45654766666667,"instrument":1,"program":12},{"pitch":69,"velocity":95,"startTime":194.51089549999998,"endTime":194.61959116666665,"instrument":1,"program":12},{"pitch":74,"velocity":95,"startTime":194.673939,"endTime":194.78263466666664,"instrument":1,"program":12},{"pitch":69,"velocity":95,"startTime":194.83698249999998,"endTime":194.89133033333331,"instrument":1,"program":12},{"pitch":74,"velocity":95,"startTime":195.000026,"endTime":195.10872166666664,"instrument":1,"program":12},{"pitch":69,"velocity":95,"startTime":195.16306949999998,"endTime":195.27176516666665,"instrument":1,"program":12},{"pitch":65,"velocity":95,"startTime":195.326113,"endTime":195.43480866666664,"instrument":1,"program":12},{"pitch":72,"velocity":95,"startTime":195.48915649999998,"endTime":195.59785216666666,"instrument":1,"program":12},{"pitch":62,"velocity":95,"startTime":195.6522,"endTime":195.81524349999998,"instrument":1,"program":12},{"pitch":65,"velocity":95,"startTime":195.81524349999998,"endTime":195.92393916666666,"instrument":1,"program":12},{"pitch":70,"velocity":95,"startTime":195.978287,"endTime":196.08698266666664,"instrument":1,"program":12},{"pitch":77,"velocity":95,"startTime":196.14133049999998,"endTime":196.25002616666666,"instrument":1,"program":12},{"pitch":70,"velocity":95,"startTime":196.304374,"endTime":196.41306966666664,"instrument":1,"program":12},{"pitch":77,"velocity":95,"startTime":196.46741749999998,"endTime":196.57611316666666,"instrument":1,"program":12},{"pitch":65,"velocity":95,"startTime":196.630461,"endTime":196.73915666666664,"instrument":1,"program":12},{"pitch":70,"velocity":95,"startTime":196.79350449999998,"endTime":196.90220016666666,"instrument":1,"program":12},{"pitch":77,"velocity":95,"startTime":196.956548,"endTime":197.06524366666665,"instrument":1,"program":12},{"pitch":70,"velocity":95,"startTime":197.11959149999998,"endTime":197.22828716666666,"instrument":1,"program":12},{"pitch":65,"velocity":95,"startTime":197.282635,"endTime":197.39133066666665,"instrument":1,"program":12},{"pitch":70,"velocity":95,"startTime":197.44567849999999,"endTime":197.55437416666666,"instrument":1,"program":12},{"pitch":74,"velocity":95,"startTime":197.60872199999997,"endTime":197.71741766666665,"instrument":1,"program":12},{"pitch":70,"velocity":95,"startTime":197.7717655,"endTime":197.88046116666666,"instrument":1,"program":12},{"pitch":65,"velocity":95,"startTime":197.93480899999997,"endTime":198.04350466666665,"instrument":1,"program":12},{"pitch":70,"velocity":95,"startTime":198.0978525,"endTime":198.20654816666666,"instrument":1,"program":12},{"pitch":62,"velocity":95,"startTime":198.26089599999997,"endTime":198.4239395,"instrument":1,"program":12},{"pitch":65,"velocity":95,"startTime":198.4239395,"endTime":198.53263516666667,"instrument":1,"program":12},{"pitch":67,"velocity":95,"startTime":198.58698299999998,"endTime":198.69567866666665,"instrument":1,"program":12},{"pitch":62,"velocity":95,"startTime":198.7500265,"endTime":198.85872216666664,"instrument":1,"program":12},{"pitch":74,"velocity":95,"startTime":198.91306999999998,"endTime":199.02176566666665,"instrument":1,"program":12},{"pitch":67,"velocity":95,"startTime":199.0761135,"endTime":199.18480916666664,"instrument":1,"program":12},{"pitch":65,"velocity":95,"startTime":199.23915699999998,"endTime":199.34785266666665,"instrument":1,"program":12},{"pitch":62,"velocity":95,"startTime":199.4022005,"endTime":199.51089616666664,"instrument":1,"program":12},{"pitch":74,"velocity":95,"startTime":199.56524399999998,"endTime":199.7282875,"instrument":1,"program":12},{"pitch":67,"velocity":95,"startTime":199.7282875,"endTime":199.83698316666664,"instrument":1,"program":12},{"pitch":65,"velocity":95,"startTime":199.89133099999998,"endTime":200.00002666666666,"instrument":1,"program":12},{"pitch":62,"velocity":95,"startTime":200.0543745,"endTime":200.16307016666664,"instrument":1,"program":12},{"pitch":74,"velocity":95,"startTime":200.21741799999998,"endTime":200.32611366666666,"instrument":1,"program":12},{"pitch":67,"velocity":95,"startTime":200.3804615,"endTime":200.48915716666664,"instrument":1,"program":12},{"pitch":67,"velocity":95,"startTime":200.54350499999998,"endTime":200.65220066666666,"instrument":1,"program":12},{"pitch":74,"velocity":95,"startTime":200.7065485,"endTime":200.81524416666664,"instrument":1,"program":12},{"pitch":62,"velocity":95,"startTime":200.86959199999998,"endTime":201.0326355,"instrument":1,"program":12},{"pitch":69,"velocity":95,"startTime":201.0326355,"endTime":201.14133116666665,"instrument":1,"program":12},{"pitch":69,"velocity":95,"startTime":201.19567899999998,"endTime":201.30437466666666,"instrument":1,"program":12},{"pitch":74,"velocity":95,"startTime":201.3587225,"endTime":201.46741816666665,"instrument":1,"program":12},{"pitch":77,"velocity":95,"startTime":201.52176599999999,"endTime":201.63046166666666,"instrument":1,"program":12},{"pitch":69,"velocity":95,"startTime":201.68480949999997,"endTime":201.79350516666665,"instrument":1,"program":12},{"pitch":69,"velocity":95,"startTime":201.847853,"endTime":201.95654866666666,"instrument":1,"program":12},{"pitch":69,"velocity":95,"startTime":202.01089649999997,"endTime":202.11959216666665,"instrument":1,"program":12},{"pitch":62,"velocity":95,"startTime":202.17394,"endTime":202.33698349999997,"instrument":1,"program":12},{"pitch":69,"velocity":95,"startTime":202.33698349999997,"endTime":202.44567916666665,"instrument":1,"program":12},{"pitch":74,"velocity":95,"startTime":202.500027,"endTime":202.60872266666667,"instrument":1,"program":12},{"pitch":69,"velocity":95,"startTime":202.66307049999998,"endTime":202.77176616666665,"instrument":1,"program":12},{"pitch":62,"velocity":95,"startTime":202.826114,"endTime":202.93480966666664,"instrument":1,"program":12},{"pitch":69,"velocity":95,"startTime":202.98915749999998,"endTime":203.09785316666665,"instrument":1,"program":12},{"pitch":65,"velocity":95,"startTime":203.152201,"endTime":203.26089666666664,"instrument":1,"program":12},{"pitch":69,"velocity":95,"startTime":203.31524449999998,"endTime":203.42394016666665,"instrument":1,"program":12},{"pitch":66,"velocity":95,"startTime":203.478288,"endTime":203.64133149999998,"instrument":1,"program":12},{"pitch":66,"velocity":95,"startTime":203.64133149999998,"endTime":203.75002716666665,"instrument":1,"program":12},{"pitch":70,"velocity":95,"startTime":203.804375,"endTime":203.91307066666664,"instrument":1,"program":12},{"pitch":74,"velocity":95,"startTime":203.96741849999998,"endTime":204.07611416666666,"instrument":1,"program":12},{"pitch":78,"velocity":95,"startTime":204.130462,"endTime":204.23915766666664,"instrument":1,"program":12},{"pitch":78,"velocity":95,"startTime":204.29350549999998,"endTime":204.40220116666666,"instrument":1,"program":12},{"pitch":78,"velocity":95,"startTime":204.456549,"endTime":204.56524466666664,"instrument":1,"program":12},{"pitch":70,"velocity":95,"startTime":204.61959249999998,"endTime":204.72828816666666,"instrument":1,"program":12},{"pitch":66,"velocity":95,"startTime":204.782636,"endTime":204.94567949999998,"instrument":1,"program":12},{"pitch":70,"velocity":95,"startTime":204.94567949999998,"endTime":205.05437516666666,"instrument":1,"program":12},{"pitch":66,"velocity":95,"startTime":205.108723,"endTime":205.21741866666665,"instrument":1,"program":12},{"pitch":66,"velocity":95,"startTime":205.27176649999998,"endTime":205.32611433333332,"instrument":1,"program":12},{"pitch":82,"velocity":95,"startTime":205.43480999999997,"endTime":205.54350566666665,"instrument":1,"program":12},{"pitch":74,"velocity":95,"startTime":205.59785349999999,"endTime":205.70654916666666,"instrument":1,"program":12},{"pitch":70,"velocity":95,"startTime":205.76089699999997,"endTime":205.86959266666665,"instrument":1,"program":12},{"pitch":72,"velocity":95,"startTime":205.9239405,"endTime":206.03263616666666,"instrument":1,"program":12},{"pitch":62,"velocity":95,"startTime":206.08698399999997,"endTime":206.2500275,"instrument":1,"program":12},{"pitch":67,"velocity":95,"startTime":206.2500275,"endTime":206.35872316666666,"instrument":1,"program":12},{"pitch":70,"velocity":95,"startTime":206.41307099999997,"endTime":206.52176666666665,"instrument":1,"program":12},{"pitch":67,"velocity":95,"startTime":206.5761145,"endTime":206.63046233333333,"instrument":1,"program":12},{"pitch":70,"velocity":95,"startTime":206.73915799999997,"endTime":206.9022015,"instrument":1,"program":12},{"pitch":67,"velocity":95,"startTime":206.9022015,"endTime":207.01089716666664,"instrument":1,"program":12},{"pitch":70,"velocity":95,"startTime":207.06524499999998,"endTime":207.17394066666665,"instrument":1,"program":12},{"pitch":74,"velocity":95,"startTime":207.2282885,"endTime":207.33698416666664,"instrument":1,"program":12},{"pitch":67,"velocity":95,"startTime":207.39133199999998,"endTime":207.5543755,"instrument":1,"program":12},{"pitch":70,"velocity":95,"startTime":207.5543755,"endTime":207.66307116666664,"instrument":1,"program":12},{"pitch":67,"velocity":95,"startTime":207.71741899999998,"endTime":207.82611466666665,"instrument":1,"program":12},{"pitch":70,"velocity":95,"startTime":207.8804625,"endTime":207.98915816666664,"instrument":1,"program":12},{"pitch":67,"velocity":95,"startTime":208.04350599999998,"endTime":208.15220166666666,"instrument":1,"program":12},{"pitch":70,"velocity":95,"startTime":208.2065495,"endTime":208.31524516666664,"instrument":1,"program":12},{"pitch":67,"velocity":95,"startTime":208.36959299999998,"endTime":208.47828866666666,"instrument":1,"program":12},{"pitch":70,"velocity":95,"startTime":208.5326365,"endTime":208.64133216666664,"instrument":1,"program":12},{"pitch":43,"velocity":110,"startTime":187.826112,"endTime":187.98915549999998,"instrument":2,"program":32},{"pitch":38,"velocity":110,"startTime":190.43480799999998,"endTime":190.5978515,"instrument":2,"program":32},{"pitch":38,"velocity":110,"startTime":190.76089499999998,"endTime":190.9239385,"instrument":2,"program":32},{"pitch":38,"velocity":110,"startTime":191.08698199999998,"endTime":191.2500255,"instrument":2,"program":32},{"pitch":42,"velocity":110,"startTime":191.41306899999998,"endTime":191.5761125,"instrument":2,"program":32},{"pitch":42,"velocity":110,"startTime":191.73915599999998,"endTime":191.9021995,"instrument":2,"program":32},{"pitch":42,"velocity":110,"startTime":192.06524299999998,"endTime":192.2282865,"instrument":2,"program":32},{"pitch":36,"velocity":110,"startTime":192.39132999999998,"endTime":192.5543735,"instrument":2,"program":32},{"pitch":38,"velocity":110,"startTime":192.71741699999998,"endTime":192.8804605,"instrument":2,"program":32},{"pitch":38,"velocity":110,"startTime":193.04350399999998,"endTime":193.75002583333332,"instrument":2,"program":32},{"pitch":40,"velocity":110,"startTime":193.695678,"endTime":193.85872149999997,"instrument":2,"program":32},{"pitch":33,"velocity":110,"startTime":194.021765,"endTime":194.18480849999997,"instrument":2,"program":32},{"pitch":38,"velocity":110,"startTime":194.347852,"endTime":194.51089549999998,"instrument":2,"program":32},{"pitch":45,"velocity":110,"startTime":194.673939,"endTime":194.83698249999998,"instrument":2,"program":32},{"pitch":38,"velocity":110,"startTime":195.000026,"endTime":195.16306949999998,"instrument":2,"program":32},{"pitch":42,"velocity":110,"startTime":195.326113,"endTime":195.48915649999998,"instrument":2,"program":32},{"pitch":43,"velocity":110,"startTime":195.6522,"endTime":195.81524349999998,"instrument":2,"program":32},{"pitch":43,"velocity":110,"startTime":195.978287,"endTime":196.14133049999998,"instrument":2,"program":32},{"pitch":38,"velocity":110,"startTime":196.304374,"endTime":196.46741749999998,"instrument":2,"program":32},{"pitch":38,"velocity":110,"startTime":196.630461,"endTime":196.79350449999998,"instrument":2,"program":32},{"pitch":43,"velocity":110,"startTime":196.956548,"endTime":197.11959149999998,"instrument":2,"program":32},{"pitch":43,"velocity":110,"startTime":197.282635,"endTime":197.44567849999999,"instrument":2,"program":32},{"pitch":41,"velocity":110,"startTime":197.60872199999997,"endTime":197.7717655,"instrument":2,"program":32},{"pitch":38,"velocity":110,"startTime":197.93480899999997,"endTime":198.0978525,"instrument":2,"program":32},{"pitch":31,"velocity":110,"startTime":198.26089599999997,"endTime":198.4239395,"instrument":2,"program":32},{"pitch":31,"velocity":110,"startTime":198.58698299999998,"endTime":198.7500265,"instrument":2,"program":32},{"pitch":31,"velocity":110,"startTime":198.91306999999998,"endTime":199.0761135,"instrument":2,"program":32},{"pitch":31,"velocity":110,"startTime":199.23915699999998,"endTime":199.4022005,"instrument":2,"program":32},{"pitch":31,"velocity":110,"startTime":199.56524399999998,"endTime":199.7282875,"instrument":2,"program":32},{"pitch":31,"velocity":110,"startTime":199.89133099999998,"endTime":200.0543745,"instrument":2,"program":32},{"pitch":31,"velocity":110,"startTime":200.21741799999998,"endTime":200.3804615,"instrument":2,"program":32},{"pitch":43,"velocity":110,"startTime":200.54350499999998,"endTime":200.7065485,"instrument":2,"program":32},{"pitch":38,"velocity":110,"startTime":200.86959199999998,"endTime":201.0326355,"instrument":2,"program":32},{"pitch":38,"velocity":110,"startTime":201.19567899999998,"endTime":201.3587225,"instrument":2,"program":32},{"pitch":30,"velocity":110,"startTime":201.52176599999999,"endTime":201.68480949999997,"instrument":2,"program":32},{"pitch":38,"velocity":110,"startTime":201.847853,"endTime":202.01089649999997,"instrument":2,"program":32},{"pitch":38,"velocity":110,"startTime":202.17394,"endTime":202.33698349999997,"instrument":2,"program":32},{"pitch":38,"velocity":110,"startTime":202.500027,"endTime":202.66307049999998,"instrument":2,"program":32},{"pitch":33,"velocity":110,"startTime":202.826114,"endTime":202.98915749999998,"instrument":2,"program":32},{"pitch":42,"velocity":110,"startTime":203.152201,"endTime":203.31524449999998,"instrument":2,"program":32},{"pitch":50,"velocity":110,"startTime":203.478288,"endTime":203.64133149999998,"instrument":2,"program":32},{"pitch":38,"velocity":110,"startTime":203.804375,"endTime":203.96741849999998,"instrument":2,"program":32},{"pitch":38,"velocity":110,"startTime":204.130462,"endTime":204.29350549999998,"instrument":2,"program":32},{"pitch":45,"velocity":110,"startTime":204.456549,"endTime":204.61959249999998,"instrument":2,"program":32},{"pitch":38,"velocity":110,"startTime":204.782636,"endTime":204.94567949999998,"instrument":2,"program":32},{"pitch":45,"velocity":110,"startTime":205.108723,"endTime":205.27176649999998,"instrument":2,"program":32},{"pitch":38,"velocity":110,"startTime":205.43480999999997,"endTime":205.59785349999999,"instrument":2,"program":32},{"pitch":48,"velocity":110,"startTime":205.76089699999997,"endTime":205.9239405,"instrument":2,"program":32},{"pitch":36,"velocity":110,"startTime":206.08698399999997,"endTime":206.41307099999997,"instrument":2,"program":32},{"pitch":38,"velocity":110,"startTime":206.5761145,"endTime":206.73915799999997,"instrument":2,"program":32},{"pitch":39,"velocity":110,"startTime":206.73915799999997,"endTime":206.9022015,"instrument":2,"program":32},{"pitch":43,"velocity":110,"startTime":207.06524499999998,"endTime":207.2282885,"instrument":2,"program":32},{"pitch":36,"velocity":110,"startTime":207.39133199999998,"endTime":207.5543755,"instrument":2,"program":32},{"pitch":36,"velocity":110,"startTime":207.71741899999998,"endTime":207.8804625,"instrument":2,"program":32},{"pitch":31,"velocity":110,"startTime":208.04350599999998,"endTime":208.2065495,"instrument":2,"program":32},{"pitch":31,"velocity":110,"startTime":208.36959299999998,"endTime":208.5326365,"instrument":2,"program":32},{"pitch":55,"velocity":105,"startTime":187.826112,"endTime":188.96741649999998,"instrument":3,"program":50},{"pitch":58,"velocity":105,"startTime":187.826112,"endTime":188.96741649999998,"instrument":3,"program":50},{"pitch":62,"velocity":105,"startTime":187.826112,"endTime":188.96741649999998,"instrument":3,"program":50},{"pitch":65,"velocity":105,"startTime":187.826112,"endTime":188.96741649999998,"instrument":3,"program":50},{"pitch":58,"velocity":105,"startTime":189.13046,"endTime":189.45654699999997,"instrument":3,"program":50},{"pitch":63,"velocity":105,"startTime":189.13046,"endTime":189.56524266666665,"instrument":3,"program":50},{"pitch":67,"velocity":105,"startTime":189.13046,"endTime":189.5108948333333,"instrument":3,"program":50},{"pitch":55,"velocity":105,"startTime":189.45654699999997,"endTime":189.5108948333333,"instrument":3,"program":50},{"pitch":58,"velocity":105,"startTime":189.45654699999997,"endTime":189.5108948333333,"instrument":3,"program":50},{"pitch":58,"velocity":105,"startTime":189.78263399999997,"endTime":190.32611233333333,"instrument":3,"program":50},{"pitch":62,"velocity":105,"startTime":189.78263399999997,"endTime":190.2717645,"instrument":3,"program":50},{"pitch":63,"velocity":105,"startTime":189.78263399999997,"endTime":190.32611233333333,"instrument":3,"program":50},{"pitch":60,"velocity":105,"startTime":190.43480799999998,"endTime":191.5761125,"instrument":3,"program":50},{"pitch":62,"velocity":105,"startTime":190.43480799999998,"endTime":191.5761125,"instrument":3,"program":50},{"pitch":65,"velocity":105,"startTime":190.43480799999998,"endTime":191.5761125,"instrument":3,"program":50},{"pitch":69,"velocity":105,"startTime":190.43480799999998,"endTime":191.5761125,"instrument":3,"program":50},{"pitch":57,"velocity":105,"startTime":191.5761125,"endTime":193.04350399999998,"instrument":3,"program":50},{"pitch":60,"velocity":105,"startTime":191.5761125,"endTime":193.04350399999998,"instrument":3,"program":50},{"pitch":62,"velocity":105,"startTime":191.5761125,"endTime":193.04350399999998,"instrument":3,"program":50},{"pitch":65,"velocity":105,"startTime":191.5761125,"endTime":193.04350399999998,"instrument":3,"program":50},{"pitch":65,"velocity":105,"startTime":192.06524299999998,"endTime":192.8804605,"instrument":3,"program":50},{"pitch":60,"velocity":105,"startTime":193.04350399999998,"endTime":195.6522,"instrument":3,"program":50},{"pitch":65,"velocity":105,"startTime":193.04350399999998,"endTime":193.9130693333333,"instrument":3,"program":50},{"pitch":72,"velocity":105,"startTime":193.04350399999998,"endTime":195.6522,"instrument":3,"program":50},{"pitch":57,"velocity":105,"startTime":193.2065475,"endTime":195.6522,"instrument":3,"program":50},{"pitch":65,"velocity":105,"startTime":194.021765,"endTime":195.6522,"instrument":3,"program":50},{"pitch":62,"velocity":105,"startTime":195.6522,"endTime":198.26089599999997,"instrument":3,"program":50},{"pitch":65,"velocity":105,"startTime":195.6522,"endTime":198.26089599999997,"instrument":3,"program":50},{"pitch":67,"velocity":105,"startTime":195.6522,"endTime":198.26089599999997,"instrument":3,"program":50},{"pitch":72,"velocity":105,"startTime":195.6522,"endTime":198.26089599999997,"instrument":3,"program":50},{"pitch":58,"velocity":105,"startTime":198.26089599999997,"endTime":200.4348093333333,"instrument":3,"program":50},{"pitch":62,"velocity":105,"startTime":198.26089599999997,"endTime":200.4348093333333,"instrument":3,"program":50},{"pitch":65,"velocity":105,"startTime":198.26089599999997,"endTime":200.4348093333333,"instrument":3,"program":50},{"pitch":67,"velocity":105,"startTime":198.26089599999997,"endTime":200.32611366666666,"instrument":3,"program":50},{"pitch":74,"velocity":105,"startTime":198.58698299999998,"endTime":200.3804615,"instrument":3,"program":50},{"pitch":79,"velocity":105,"startTime":198.6413308333333,"endTime":200.3804615,"instrument":3,"program":50},{"pitch":62,"velocity":105,"startTime":200.86959199999998,"endTime":202.01089649999997,"instrument":3,"program":50},{"pitch":66,"velocity":105,"startTime":200.86959199999998,"endTime":201.95654866666666,"instrument":3,"program":50},{"pitch":70,"velocity":105,"startTime":200.86959199999998,"endTime":202.01089649999997,"instrument":3,"program":50},{"pitch":74,"velocity":105,"startTime":200.86959199999998,"endTime":202.01089649999997,"instrument":3,"program":50},{"pitch":66,"velocity":105,"startTime":202.01089649999997,"endTime":202.17394,"instrument":3,"program":50},{"pitch":60,"velocity":105,"startTime":202.17394,"endTime":203.31524449999998,"instrument":3,"program":50},{"pitch":62,"velocity":105,"startTime":202.17394,"endTime":203.36959233333332,"instrument":3,"program":50},{"pitch":66,"velocity":105,"startTime":202.17394,"endTime":203.36959233333332,"instrument":3,"program":50},{"pitch":69,"velocity":105,"startTime":202.17394,"endTime":203.42394016666665,"instrument":3,"program":50},{"pitch":72,"velocity":105,"startTime":203.152201,"endTime":203.42394016666665,"instrument":3,"program":50},{"pitch":60,"velocity":105,"startTime":203.478288,"endTime":204.782636,"instrument":3,"program":50},{"pitch":66,"velocity":105,"startTime":203.478288,"endTime":204.782636,"instrument":3,"program":50},{"pitch":70,"velocity":105,"startTime":203.478288,"endTime":204.782636,"instrument":3,"program":50},{"pitch":77,"velocity":105,"startTime":203.478288,"endTime":204.782636,"instrument":3,"program":50},{"pitch":60,"velocity":105,"startTime":204.782636,"endTime":206.08698399999997,"instrument":3,"program":50},{"pitch":66,"velocity":105,"startTime":204.782636,"endTime":206.08698399999997,"instrument":3,"program":50},{"pitch":69,"velocity":105,"startTime":204.782636,"endTime":206.08698399999997,"instrument":3,"program":50},{"pitch":77,"velocity":105,"startTime":204.782636,"endTime":205.27176649999998,"instrument":3,"program":50},{"pitch":58,"velocity":105,"startTime":206.08698399999997,"endTime":207.60872333333333,"instrument":3,"program":50},{"pitch":60,"velocity":105,"startTime":206.08698399999997,"endTime":207.2282885,"instrument":3,"program":50},{"pitch":62,"velocity":105,"startTime":206.08698399999997,"endTime":208.69567999999998,"instrument":3,"program":50},{"pitch":66,"velocity":105,"startTime":206.08698399999997,"endTime":208.69567999999998,"instrument":3,"program":50},{"pitch":62,"velocity":105,"startTime":207.06524499999998,"endTime":207.2282885,"instrument":3,"program":50},{"pitch":60,"velocity":105,"startTime":207.39133199999998,"endTime":208.2065495,"instrument":3,"program":50},{"pitch":58,"velocity":105,"startTime":207.71741899999998,"endTime":208.04350599999998,"instrument":3,"program":50},{"pitch":58,"velocity":105,"startTime":208.04350599999998,"endTime":208.2065495,"instrument":3,"program":50},{"pitch":58,"velocity":105,"startTime":208.2065495,"endTime":208.69567999999998,"instrument":3,"program":50},{"pitch":60,"velocity":105,"startTime":208.5326365,"endTime":208.69567999999998,"instrument":3,"program":50},{"pitch":35,"velocity":102,"startTime":208.69567999999998,"endTime":208.8587235,"isDrum":true},{"pitch":42,"velocity":102,"startTime":208.69567999999998,"endTime":208.8587235,"isDrum":true},{"pitch":42,"velocity":102,"startTime":209.02176699999998,"endTime":209.1848105,"isDrum":true},{"pitch":39,"velocity":102,"startTime":209.34785399999998,"endTime":209.51089749999997,"isDrum":true},{"pitch":40,"velocity":102,"startTime":209.34785399999998,"endTime":209.51089749999997,"isDrum":true},{"pitch":42,"velocity":102,"startTime":209.34785399999998,"endTime":209.51089749999997,"isDrum":true},{"pitch":35,"velocity":102,"startTime":209.67394099999999,"endTime":209.83698449999997,"isDrum":true},{"pitch":42,"velocity":102,"startTime":209.67394099999999,"endTime":209.83698449999997,"isDrum":true},{"pitch":35,"velocity":102,"startTime":210.000028,"endTime":210.16307149999997,"isDrum":true},{"pitch":42,"velocity":102,"startTime":210.000028,"endTime":210.16307149999997,"isDrum":true},{"pitch":42,"velocity":102,"startTime":210.326115,"endTime":210.48915849999997,"isDrum":true},{"pitch":40,"velocity":102,"startTime":210.652202,"endTime":210.81524549999997,"isDrum":true},{"pitch":42,"velocity":102,"startTime":210.652202,"endTime":210.81524549999997,"isDrum":true},{"pitch":42,"velocity":102,"startTime":210.978289,"endTime":211.14133249999998,"isDrum":true},{"pitch":35,"velocity":102,"startTime":211.304376,"endTime":211.46741949999998,"isDrum":true},{"pitch":42,"velocity":102,"startTime":211.304376,"endTime":211.46741949999998,"isDrum":true},{"pitch":42,"velocity":102,"startTime":211.630463,"endTime":211.79350649999998,"isDrum":true},{"pitch":40,"velocity":102,"startTime":211.95655,"endTime":212.11959349999998,"isDrum":true},{"pitch":42,"velocity":102,"startTime":211.95655,"endTime":212.11959349999998,"isDrum":true},{"pitch":42,"velocity":102,"startTime":212.282637,"endTime":212.44568049999998,"isDrum":true},{"pitch":35,"velocity":102,"startTime":212.608724,"endTime":212.77176749999998,"isDrum":true},{"pitch":42,"velocity":102,"startTime":212.608724,"endTime":212.77176749999998,"isDrum":true},{"pitch":42,"velocity":102,"startTime":212.934811,"endTime":213.09785449999998,"isDrum":true},{"pitch":40,"velocity":102,"startTime":213.260898,"endTime":213.42394149999998,"isDrum":true},{"pitch":42,"velocity":102,"startTime":213.260898,"endTime":213.42394149999998,"isDrum":true},{"pitch":42,"velocity":102,"startTime":213.58698499999997,"endTime":213.75002849999998,"isDrum":true},{"pitch":35,"velocity":102,"startTime":213.91307199999997,"endTime":214.0761155,"isDrum":true},{"pitch":42,"velocity":102,"startTime":213.91307199999997,"endTime":214.0761155,"isDrum":true},{"pitch":42,"velocity":102,"startTime":214.23915899999997,"endTime":214.4022025,"isDrum":true},{"pitch":40,"velocity":102,"startTime":214.56524599999997,"endTime":214.7282895,"isDrum":true},{"pitch":42,"velocity":102,"startTime":214.56524599999997,"endTime":214.7282895,"isDrum":true},{"pitch":42,"velocity":102,"startTime":214.89133299999997,"endTime":215.0543765,"isDrum":true},{"pitch":35,"velocity":102,"startTime":215.21741999999998,"endTime":215.3804635,"isDrum":true},{"pitch":42,"velocity":102,"startTime":215.21741999999998,"endTime":215.3804635,"isDrum":true},{"pitch":42,"velocity":102,"startTime":215.54350699999998,"endTime":215.7065505,"isDrum":true},{"pitch":40,"velocity":102,"startTime":215.86959399999998,"endTime":216.0326375,"isDrum":true},{"pitch":42,"velocity":102,"startTime":215.86959399999998,"endTime":216.0326375,"isDrum":true},{"pitch":42,"velocity":102,"startTime":216.19568099999998,"endTime":216.3587245,"isDrum":true},{"pitch":35,"velocity":102,"startTime":216.52176799999998,"endTime":216.6848115,"isDrum":true},{"pitch":42,"velocity":102,"startTime":216.52176799999998,"endTime":216.6848115,"isDrum":true},{"pitch":42,"velocity":102,"startTime":216.84785499999998,"endTime":217.0108985,"isDrum":true},{"pitch":40,"velocity":102,"startTime":217.17394199999998,"endTime":217.3369855,"isDrum":true},{"pitch":42,"velocity":102,"startTime":217.17394199999998,"endTime":217.3369855,"isDrum":true},{"pitch":42,"velocity":102,"startTime":217.50002899999998,"endTime":217.66307249999997,"isDrum":true},{"pitch":35,"velocity":102,"startTime":217.82611599999998,"endTime":217.98915949999997,"isDrum":true},{"pitch":42,"velocity":102,"startTime":217.82611599999998,"endTime":217.98915949999997,"isDrum":true},{"pitch":42,"velocity":102,"startTime":218.152203,"endTime":218.31524649999997,"isDrum":true},{"pitch":40,"velocity":102,"startTime":218.47829,"endTime":218.64133349999997,"isDrum":true},{"pitch":42,"velocity":102,"startTime":218.47829,"endTime":218.64133349999997,"isDrum":true},{"pitch":42,"velocity":102,"startTime":218.804377,"endTime":218.96742049999997,"isDrum":true},{"pitch":35,"velocity":102,"startTime":219.130464,"endTime":219.29350749999998,"isDrum":true},{"pitch":42,"velocity":102,"startTime":219.130464,"endTime":219.29350749999998,"isDrum":true},{"pitch":42,"velocity":102,"startTime":219.456551,"endTime":219.61959449999998,"isDrum":true},{"pitch":40,"velocity":102,"startTime":219.782638,"endTime":219.94568149999998,"isDrum":true},{"pitch":42,"velocity":102,"startTime":219.782638,"endTime":219.94568149999998,"isDrum":true},{"pitch":42,"velocity":102,"startTime":220.108725,"endTime":220.27176849999998,"isDrum":true},{"pitch":35,"velocity":102,"startTime":220.434812,"endTime":220.59785549999998,"isDrum":true},{"pitch":42,"velocity":102,"startTime":220.434812,"endTime":220.59785549999998,"isDrum":true},{"pitch":42,"velocity":102,"startTime":220.760899,"endTime":220.92394249999998,"isDrum":true},{"pitch":40,"velocity":102,"startTime":221.086986,"endTime":221.25002949999998,"isDrum":true},{"pitch":42,"velocity":102,"startTime":221.086986,"endTime":221.25002949999998,"isDrum":true},{"pitch":42,"velocity":102,"startTime":221.413073,"endTime":221.57611649999998,"isDrum":true},{"pitch":35,"velocity":102,"startTime":221.73915999999997,"endTime":221.90220349999998,"isDrum":true},{"pitch":42,"velocity":102,"startTime":221.73915999999997,"endTime":221.90220349999998,"isDrum":true},{"pitch":42,"velocity":102,"startTime":222.06524699999997,"endTime":222.22829049999999,"isDrum":true},{"pitch":40,"velocity":102,"startTime":222.39133399999997,"endTime":222.5543775,"isDrum":true},{"pitch":42,"velocity":102,"startTime":222.39133399999997,"endTime":222.5543775,"isDrum":true},{"pitch":42,"velocity":102,"startTime":222.71742099999997,"endTime":222.8804645,"isDrum":true},{"pitch":35,"velocity":102,"startTime":223.04350799999997,"endTime":223.2065515,"isDrum":true},{"pitch":42,"velocity":102,"startTime":223.04350799999997,"endTime":223.2065515,"isDrum":true},{"pitch":42,"velocity":102,"startTime":223.36959499999998,"endTime":223.5326385,"isDrum":true},{"pitch":40,"velocity":102,"startTime":223.69568199999998,"endTime":223.8587255,"isDrum":true},{"pitch":42,"velocity":102,"startTime":223.69568199999998,"endTime":223.8587255,"isDrum":true},{"pitch":42,"velocity":102,"startTime":224.02176899999998,"endTime":224.1848125,"isDrum":true},{"pitch":35,"velocity":102,"startTime":224.34785599999998,"endTime":224.5108995,"isDrum":true},{"pitch":42,"velocity":102,"startTime":224.34785599999998,"endTime":224.5108995,"isDrum":true},{"pitch":42,"velocity":102,"startTime":224.67394299999998,"endTime":224.8369865,"isDrum":true},{"pitch":40,"velocity":102,"startTime":225.00002999999998,"endTime":225.1630735,"isDrum":true},{"pitch":42,"velocity":102,"startTime":225.00002999999998,"endTime":225.1630735,"isDrum":true},{"pitch":42,"velocity":102,"startTime":225.32611699999998,"endTime":225.4891605,"isDrum":true},{"pitch":35,"velocity":102,"startTime":225.65220399999998,"endTime":225.81524749999997,"isDrum":true},{"pitch":42,"velocity":102,"startTime":225.65220399999998,"endTime":225.81524749999997,"isDrum":true},{"pitch":42,"velocity":102,"startTime":225.97829099999998,"endTime":226.14133449999997,"isDrum":true},{"pitch":40,"velocity":102,"startTime":226.30437799999999,"endTime":226.46742149999997,"isDrum":true},{"pitch":42,"velocity":102,"startTime":226.30437799999999,"endTime":226.46742149999997,"isDrum":true},{"pitch":42,"velocity":102,"startTime":226.630465,"endTime":226.79350849999997,"isDrum":true},{"pitch":35,"velocity":102,"startTime":226.956552,"endTime":227.11959549999997,"isDrum":true},{"pitch":42,"velocity":102,"startTime":226.956552,"endTime":227.11959549999997,"isDrum":true},{"pitch":42,"velocity":102,"startTime":227.282639,"endTime":227.44568249999998,"isDrum":true},{"pitch":40,"velocity":102,"startTime":227.608726,"endTime":227.77176949999998,"isDrum":true},{"pitch":42,"velocity":102,"startTime":227.608726,"endTime":227.77176949999998,"isDrum":true},{"pitch":42,"velocity":102,"startTime":227.934813,"endTime":228.09785649999998,"isDrum":true},{"pitch":35,"velocity":102,"startTime":228.09785649999998,"endTime":228.2609,"isDrum":true},{"pitch":35,"velocity":102,"startTime":228.2609,"endTime":228.42394349999998,"isDrum":true},{"pitch":42,"velocity":102,"startTime":228.2609,"endTime":228.42394349999998,"isDrum":true},{"pitch":42,"velocity":102,"startTime":228.586987,"endTime":228.75003049999998,"isDrum":true},{"pitch":40,"velocity":102,"startTime":228.913074,"endTime":229.07611749999998,"isDrum":true},{"pitch":42,"velocity":102,"startTime":228.913074,"endTime":229.07611749999998,"isDrum":true},{"pitch":42,"velocity":102,"startTime":229.239161,"endTime":229.40220449999998,"isDrum":true},{"pitch":68,"velocity":95,"startTime":208.69567999999998,"endTime":208.8587235,"instrument":1,"program":12},{"pitch":69,"velocity":95,"startTime":208.8587235,"endTime":208.96741916666664,"instrument":1,"program":12},{"pitch":72,"velocity":95,"startTime":209.02176699999998,"endTime":209.13046266666666,"instrument":1,"program":12},{"pitch":69,"velocity":95,"startTime":209.1848105,"endTime":209.2391583333333,"instrument":1,"program":12},{"pitch":74,"velocity":95,"startTime":209.34785399999998,"endTime":209.45654966666666,"instrument":1,"program":12},{"pitch":69,"velocity":95,"startTime":209.51089749999997,"endTime":209.5652453333333,"instrument":1,"program":12},{"pitch":68,"velocity":95,"startTime":209.67394099999999,"endTime":209.78263666666666,"instrument":1,"program":12},{"pitch":69,"velocity":95,"startTime":209.83698449999997,"endTime":209.94568016666665,"instrument":1,"program":12},{"pitch":76,"velocity":95,"startTime":210.000028,"endTime":210.10872366666666,"instrument":1,"program":12},{"pitch":69,"velocity":95,"startTime":210.16307149999997,"endTime":210.27176716666665,"instrument":1,"program":12},{"pitch":74,"velocity":95,"startTime":210.326115,"endTime":210.43481066666666,"instrument":1,"program":12},{"pitch":69,"velocity":95,"startTime":210.48915849999997,"endTime":210.5435063333333,"instrument":1,"program":12},{"pitch":74,"velocity":95,"startTime":210.652202,"endTime":210.76089766666666,"instrument":1,"program":12},{"pitch":69,"velocity":95,"startTime":210.81524549999997,"endTime":210.8695933333333,"instrument":1,"program":12},{"pitch":69,"velocity":95,"startTime":210.978289,"endTime":211.08698466666664,"instrument":1,"program":12},{"pitch":68,"velocity":95,"startTime":211.14133249999998,"endTime":211.25002816666665,"instrument":1,"program":12},{"pitch":72,"velocity":95,"startTime":211.304376,"endTime":211.46741949999998,"instrument":1,"program":12},{"pitch":69,"velocity":95,"startTime":211.46741949999998,"endTime":211.57611516666665,"instrument":1,"program":12},{"pitch":72,"velocity":95,"startTime":211.630463,"endTime":211.73915866666664,"instrument":1,"program":12},{"pitch":69,"velocity":95,"startTime":211.79350649999998,"endTime":211.90220216666665,"instrument":1,"program":12},{"pitch":72,"velocity":95,"startTime":211.95655,"endTime":212.06524566666664,"instrument":1,"program":12},{"pitch":69,"velocity":95,"startTime":212.11959349999998,"endTime":212.22828916666666,"instrument":1,"program":12},{"pitch":72,"velocity":95,"startTime":212.282637,"endTime":212.39133266666664,"instrument":1,"program":12},{"pitch":69,"velocity":95,"startTime":212.44568049999998,"endTime":212.50002833333332,"instrument":1,"program":12},{"pitch":72,"velocity":95,"startTime":212.608724,"endTime":212.71741966666664,"instrument":1,"program":12},{"pitch":69,"velocity":95,"startTime":212.77176749999998,"endTime":212.88046316666666,"instrument":1,"program":12},{"pitch":72,"velocity":95,"startTime":212.934811,"endTime":213.04350666666664,"instrument":1,"program":12},{"pitch":69,"velocity":95,"startTime":213.09785449999998,"endTime":213.20655016666666,"instrument":1,"program":12},{"pitch":72,"velocity":95,"startTime":213.260898,"endTime":213.36959366666665,"instrument":1,"program":12},{"pitch":69,"velocity":95,"startTime":213.42394149999998,"endTime":213.53263716666666,"instrument":1,"program":12},{"pitch":72,"velocity":95,"startTime":213.58698499999997,"endTime":213.6413328333333,"instrument":1,"program":12},{"pitch":69,"velocity":95,"startTime":213.75002849999998,"endTime":213.80437633333332,"instrument":1,"program":12},{"pitch":62,"velocity":95,"startTime":213.91307199999997,"endTime":214.0761155,"instrument":1,"program":12},{"pitch":67,"velocity":95,"startTime":214.0761155,"endTime":214.18481116666666,"instrument":1,"program":12},{"pitch":70,"velocity":95,"startTime":214.23915899999997,"endTime":214.34785466666665,"instrument":1,"program":12},{"pitch":67,"velocity":95,"startTime":214.4022025,"endTime":214.45655033333333,"instrument":1,"program":12},{"pitch":79,"velocity":95,"startTime":214.56524599999997,"endTime":214.67394166666665,"instrument":1,"program":12},{"pitch":70,"velocity":95,"startTime":214.7282895,"endTime":214.78263733333333,"instrument":1,"program":12},{"pitch":67,"velocity":95,"startTime":214.89133299999997,"endTime":214.9456808333333,"instrument":1,"program":12},{"pitch":70,"velocity":95,"startTime":215.0543765,"endTime":215.10872433333333,"instrument":1,"program":12},{"pitch":79,"velocity":95,"startTime":215.21741999999998,"endTime":215.32611566666665,"instrument":1,"program":12},{"pitch":67,"velocity":95,"startTime":215.3804635,"endTime":215.43481133333333,"instrument":1,"program":12},{"pitch":70,"velocity":95,"startTime":215.54350699999998,"endTime":215.65220266666665,"instrument":1,"program":12},{"pitch":67,"velocity":95,"startTime":215.7065505,"endTime":215.81524616666664,"instrument":1,"program":12},{"pitch":70,"velocity":95,"startTime":215.86959399999998,"endTime":215.97828966666665,"instrument":1,"program":12},{"pitch":67,"velocity":95,"startTime":216.0326375,"endTime":216.14133316666664,"instrument":1,"program":12},{"pitch":70,"velocity":95,"startTime":216.19568099999998,"endTime":216.30437666666666,"instrument":1,"program":12},{"pitch":67,"velocity":95,"startTime":216.3587245,"endTime":216.46742016666664,"instrument":1,"program":12},{"pitch":70,"velocity":95,"startTime":216.52176799999998,"endTime":216.6848115,"instrument":1,"program":12},{"pitch":67,"velocity":95,"startTime":216.6848115,"endTime":216.79350716666664,"instrument":1,"program":12},{"pitch":70,"velocity":95,"startTime":216.84785499999998,"endTime":216.95655066666666,"instrument":1,"program":12},{"pitch":74,"velocity":95,"startTime":217.0108985,"endTime":217.0652463333333,"instrument":1,"program":12},{"pitch":79,"velocity":95,"startTime":217.17394199999998,"endTime":217.28263766666666,"instrument":1,"program":12},{"pitch":70,"velocity":95,"startTime":217.3369855,"endTime":217.3913333333333,"instrument":1,"program":12},{"pitch":70,"velocity":95,"startTime":217.50002899999998,"endTime":217.55437683333332,"instrument":1,"program":12},{"pitch":67,"velocity":95,"startTime":217.66307249999997,"endTime":217.7174203333333,"instrument":1,"program":12},{"pitch":70,"velocity":95,"startTime":217.82611599999998,"endTime":217.93481166666666,"instrument":1,"program":12},{"pitch":67,"velocity":95,"startTime":217.98915949999997,"endTime":218.09785516666665,"instrument":1,"program":12},{"pitch":70,"velocity":95,"startTime":218.152203,"endTime":218.20655083333332,"instrument":1,"program":12},{"pitch":74,"velocity":95,"startTime":218.31524649999997,"endTime":218.3695943333333,"instrument":1,"program":12},{"pitch":70,"velocity":95,"startTime":218.47829,"endTime":218.53263783333333,"instrument":1,"program":12},{"pitch":67,"velocity":95,"startTime":218.64133349999997,"endTime":218.6956813333333,"instrument":1,"program":12},{"pitch":70,"velocity":95,"startTime":218.804377,"endTime":218.85872483333333,"instrument":1,"program":12},{"pitch":70,"velocity":95,"startTime":218.96742049999997,"endTime":219.0217683333333,"instrument":1,"program":12},{"pitch":62,"velocity":95,"startTime":219.130464,"endTime":219.29350749999998,"instrument":1,"program":12},{"pitch":69,"velocity":95,"startTime":219.29350749999998,"endTime":219.40220316666665,"instrument":1,"program":12},{"pitch":72,"velocity":95,"startTime":219.456551,"endTime":219.56524666666664,"instrument":1,"program":12},{"pitch":72,"velocity":95,"startTime":219.61959449999998,"endTime":219.67394233333331,"instrument":1,"program":12},{"pitch":69,"velocity":95,"startTime":219.782638,"endTime":219.89133366666664,"instrument":1,"program":12},{"pitch":72,"velocity":95,"startTime":219.94568149999998,"endTime":220.05437716666665,"instrument":1,"program":12},{"pitch":69,"velocity":95,"startTime":220.108725,"endTime":220.21742066666664,"instrument":1,"program":12},{"pitch":72,"velocity":95,"startTime":220.27176849999998,"endTime":220.38046416666666,"instrument":1,"program":12},{"pitch":69,"velocity":95,"startTime":220.434812,"endTime":220.54350766666664,"instrument":1,"program":12},{"pitch":72,"velocity":95,"startTime":220.59785549999998,"endTime":220.70655116666666,"instrument":1,"program":12},{"pitch":72,"velocity":95,"startTime":220.760899,"endTime":220.86959466666664,"instrument":1,"program":12},{"pitch":69,"velocity":95,"startTime":220.92394249999998,"endTime":220.97829033333332,"instrument":1,"program":12},{"pitch":74,"velocity":95,"startTime":221.086986,"endTime":221.19568166666664,"instrument":1,"program":12},{"pitch":69,"velocity":95,"startTime":221.25002949999998,"endTime":221.30437733333332,"instrument":1,"program":12},{"pitch":72,"velocity":95,"startTime":221.413073,"endTime":221.4674208333333,"instrument":1,"program":12},{"pitch":69,"velocity":95,"startTime":221.57611649999998,"endTime":221.63046433333332,"instrument":1,"program":12},{"pitch":69,"velocity":95,"startTime":221.73915999999997,"endTime":221.90220349999998,"instrument":1,"program":12},{"pitch":72,"velocity":95,"startTime":221.90220349999998,"endTime":222.01089916666666,"instrument":1,"program":12},{"pitch":72,"velocity":95,"startTime":222.06524699999997,"endTime":222.1195948333333,"instrument":1,"program":12},{"pitch":69,"velocity":95,"startTime":222.22829049999999,"endTime":222.28263833333332,"instrument":1,"program":12},{"pitch":72,"velocity":95,"startTime":222.39133399999997,"endTime":222.50002966666665,"instrument":1,"program":12},{"pitch":69,"velocity":95,"startTime":222.5543775,"endTime":222.60872533333333,"instrument":1,"program":12},{"pitch":72,"velocity":95,"startTime":222.71742099999997,"endTime":222.7717688333333,"instrument":1,"program":12},{"pitch":69,"velocity":95,"startTime":222.8804645,"endTime":222.93481233333333,"instrument":1,"program":12},{"pitch":74,"velocity":95,"startTime":223.04350799999997,"endTime":223.15220366666665,"instrument":1,"program":12},{"pitch":69,"velocity":95,"startTime":223.2065515,"endTime":223.31524716666664,"instrument":1,"program":12},{"pitch":72,"velocity":95,"startTime":223.36959499999998,"endTime":223.4239428333333,"instrument":1,"program":12},{"pitch":69,"velocity":95,"startTime":223.5326385,"endTime":223.58698633333333,"instrument":1,"program":12},{"pitch":72,"velocity":95,"startTime":223.69568199999998,"endTime":223.80437766666665,"instrument":1,"program":12},{"pitch":69,"velocity":95,"startTime":223.8587255,"endTime":223.96742116666664,"instrument":1,"program":12},{"pitch":72,"velocity":95,"startTime":224.02176899999998,"endTime":224.13046466666665,"instrument":1,"program":12},{"pitch":72,"velocity":95,"startTime":224.1848125,"endTime":224.29350816666664,"instrument":1,"program":12},{"pitch":70,"velocity":95,"startTime":224.34785599999998,"endTime":224.5108995,"instrument":1,"program":12},{"pitch":67,"velocity":95,"startTime":224.5108995,"endTime":224.61959516666664,"instrument":1,"program":12},{"pitch":70,"velocity":95,"startTime":224.67394299999998,"endTime":224.78263866666666,"instrument":1,"program":12},{"pitch":67,"velocity":95,"startTime":224.8369865,"endTime":224.8913343333333,"instrument":1,"program":12},{"pitch":70,"velocity":95,"startTime":225.00002999999998,"endTime":225.10872566666666,"instrument":1,"program":12},{"pitch":67,"velocity":95,"startTime":225.1630735,"endTime":225.27176916666664,"instrument":1,"program":12},{"pitch":70,"velocity":95,"startTime":225.32611699999998,"endTime":225.43481266666666,"instrument":1,"program":12},{"pitch":70,"velocity":95,"startTime":225.4891605,"endTime":225.59785616666665,"instrument":1,"program":12},{"pitch":74,"velocity":95,"startTime":225.65220399999998,"endTime":225.76089966666666,"instrument":1,"program":12},{"pitch":67,"velocity":95,"startTime":225.81524749999997,"endTime":225.8695953333333,"instrument":1,"program":12},{"pitch":70,"velocity":95,"startTime":225.97829099999998,"endTime":226.03263883333332,"instrument":1,"program":12},{"pitch":70,"velocity":95,"startTime":226.14133449999997,"endTime":226.1956823333333,"instrument":1,"program":12},{"pitch":67,"velocity":95,"startTime":226.30437799999999,"endTime":226.41307366666666,"instrument":1,"program":12},{"pitch":70,"velocity":95,"startTime":226.46742149999997,"endTime":226.5217693333333,"instrument":1,"program":12},{"pitch":67,"velocity":95,"startTime":226.630465,"endTime":226.68481283333332,"instrument":1,"program":12},{"pitch":70,"velocity":95,"startTime":226.79350849999997,"endTime":226.8478563333333,"instrument":1,"program":12},{"pitch":67,"velocity":95,"startTime":226.956552,"endTime":227.11959549999997,"instrument":1,"program":12},{"pitch":62,"velocity":95,"startTime":227.11959549999997,"endTime":227.22829116666665,"instrument":1,"program":12},{"pitch":65,"velocity":95,"startTime":227.282639,"endTime":227.39133466666664,"instrument":1,"program":12},{"pitch":67,"velocity":95,"startTime":227.44568249999998,"endTime":227.55437816666665,"instrument":1,"program":12},{"pitch":74,"velocity":95,"startTime":227.608726,"endTime":227.71742166666664,"instrument":1,"program":12},{"pitch":67,"velocity":95,"startTime":227.77176949999998,"endTime":227.88046516666665,"instrument":1,"program":12},{"pitch":65,"velocity":95,"startTime":227.934813,"endTime":228.04350866666664,"instrument":1,"program":12},{"pitch":70,"velocity":95,"startTime":228.09785649999998,"endTime":228.15220433333332,"instrument":1,"program":12},{"pitch":67,"velocity":95,"startTime":228.2609,"endTime":228.36959566666664,"instrument":1,"program":12},{"pitch":70,"velocity":95,"startTime":228.42394349999998,"endTime":228.53263916666666,"instrument":1,"program":12},{"pitch":74,"velocity":95,"startTime":228.586987,"endTime":228.69568266666664,"instrument":1,"program":12},{"pitch":65,"velocity":95,"startTime":228.75003049999998,"endTime":228.80437833333332,"instrument":1,"program":12},{"pitch":62,"velocity":95,"startTime":228.913074,"endTime":229.02176966666664,"instrument":1,"program":12},{"pitch":70,"velocity":95,"startTime":229.07611749999998,"endTime":229.18481316666666,"instrument":1,"program":12},{"pitch":65,"velocity":95,"startTime":229.239161,"endTime":229.34785666666664,"instrument":1,"program":12},{"pitch":67,"velocity":95,"startTime":229.40220449999998,"endTime":229.45655233333332,"instrument":1,"program":12},{"pitch":38,"velocity":110,"startTime":208.69567999999998,"endTime":209.02176699999998,"instrument":2,"program":32},{"pitch":42,"velocity":110,"startTime":209.1848105,"endTime":209.34785399999998,"instrument":2,"program":32},{"pitch":38,"velocity":110,"startTime":209.51089749999997,"endTime":209.67394099999999,"instrument":2,"program":32},{"pitch":38,"velocity":110,"startTime":209.67394099999999,"endTime":209.83698449999997,"instrument":2,"program":32},{"pitch":33,"velocity":110,"startTime":210.000028,"endTime":210.16307149999997,"instrument":2,"program":32},{"pitch":33,"velocity":110,"startTime":210.326115,"endTime":210.48915849999997,"instrument":2,"program":32},{"pitch":33,"velocity":110,"startTime":210.652202,"endTime":210.81524549999997,"instrument":2,"program":32},{"pitch":38,"velocity":110,"startTime":211.14133249999998,"endTime":211.304376,"instrument":2,"program":32},{"pitch":38,"velocity":110,"startTime":211.46741949999998,"endTime":211.630463,"instrument":2,"program":32},{"pitch":35,"velocity":110,"startTime":211.79350649999998,"endTime":211.95655,"instrument":2,"program":32},{"pitch":30,"velocity":110,"startTime":212.11959349999998,"endTime":212.282637,"instrument":2,"program":32},{"pitch":38,"velocity":110,"startTime":212.282637,"endTime":212.44568049999998,"instrument":2,"program":32},{"pitch":38,"velocity":110,"startTime":212.608724,"endTime":212.77176749999998,"instrument":2,"program":32},{"pitch":45,"velocity":110,"startTime":212.934811,"endTime":213.09785449999998,"instrument":2,"program":32},{"pitch":42,"velocity":110,"startTime":213.260898,"endTime":213.42394149999998,"instrument":2,"program":32},{"pitch":42,"velocity":110,"startTime":213.58698499999997,"endTime":213.75002849999998,"instrument":2,"program":32},{"pitch":31,"velocity":110,"startTime":213.91307199999997,"endTime":214.23915899999997,"instrument":2,"program":32},{"pitch":31,"velocity":110,"startTime":214.4022025,"endTime":214.56524599999997,"instrument":2,"program":32},{"pitch":34,"velocity":110,"startTime":214.7282895,"endTime":214.89133299999997,"instrument":2,"program":32},{"pitch":38,"velocity":110,"startTime":214.89133299999997,"endTime":215.0543765,"instrument":2,"program":32},{"pitch":34,"velocity":110,"startTime":215.21741999999998,"endTime":215.3804635,"instrument":2,"program":32},{"pitch":34,"velocity":110,"startTime":215.3804635,"endTime":215.54350699999998,"instrument":2,"program":32},{"pitch":34,"velocity":110,"startTime":215.7065505,"endTime":215.86959399999998,"instrument":2,"program":32},{"pitch":34,"velocity":110,"startTime":216.0326375,"endTime":216.19568099999998,"instrument":2,"program":32},{"pitch":38,"velocity":110,"startTime":216.19568099999998,"endTime":216.3587245,"instrument":2,"program":32},{"pitch":31,"velocity":110,"startTime":216.52176799999998,"endTime":216.84785499999998,"instrument":2,"program":32},{"pitch":31,"velocity":110,"startTime":217.0108985,"endTime":217.17394199999998,"instrument":2,"program":32},{"pitch":38,"velocity":110,"startTime":217.3369855,"endTime":217.50002899999998,"instrument":2,"program":32},{"pitch":50,"velocity":110,"startTime":217.50002899999998,"endTime":217.66307249999997,"instrument":2,"program":32},{"pitch":43,"velocity":110,"startTime":217.82611599999998,"endTime":218.152203,"instrument":2,"program":32},{"pitch":38,"velocity":110,"startTime":218.31524649999997,"endTime":218.47829,"instrument":2,"program":32},{"pitch":38,"velocity":110,"startTime":218.64133349999997,"endTime":218.804377,"instrument":2,"program":32},{"pitch":34,"velocity":110,"startTime":218.804377,"endTime":218.96742049999997,"instrument":2,"program":32},{"pitch":38,"velocity":110,"startTime":219.130464,"endTime":219.456551,"instrument":2,"program":32},{"pitch":50,"velocity":110,"startTime":219.61959449999998,"endTime":219.782638,"instrument":2,"program":32},{"pitch":50,"velocity":110,"startTime":219.94568149999998,"endTime":220.108725,"instrument":2,"program":32},{"pitch":38,"velocity":110,"startTime":220.108725,"endTime":220.27176849999998,"instrument":2,"program":32},{"pitch":38,"velocity":110,"startTime":220.434812,"endTime":220.59785549999998,"instrument":2,"program":32},{"pitch":38,"velocity":110,"startTime":220.760899,"endTime":220.92394249999998,"instrument":2,"program":32},{"pitch":38,"velocity":110,"startTime":221.086986,"endTime":221.25002949999998,"instrument":2,"program":32},{"pitch":50,"velocity":110,"startTime":221.413073,"endTime":221.57611649999998,"instrument":2,"program":32},{"pitch":38,"velocity":110,"startTime":221.73915999999997,"endTime":222.06524699999997,"instrument":2,"program":32},{"pitch":38,"velocity":110,"startTime":222.22829049999999,"endTime":222.39133399999997,"instrument":2,"program":32},{"pitch":38,"velocity":110,"startTime":222.5543775,"endTime":222.71742099999997,"instrument":2,"program":32},{"pitch":38,"velocity":110,"startTime":222.71742099999997,"endTime":222.8804645,"instrument":2,"program":32},{"pitch":38,"velocity":110,"startTime":223.04350799999997,"endTime":223.2065515,"instrument":2,"program":32},{"pitch":38,"velocity":110,"startTime":223.36959499999998,"endTime":223.5326385,"instrument":2,"program":32},{"pitch":38,"velocity":110,"startTime":223.69568199999998,"endTime":223.8587255,"instrument":2,"program":32},{"pitch":38,"velocity":110,"startTime":224.02176899999998,"endTime":224.1848125,"instrument":2,"program":32},{"pitch":31,"velocity":110,"startTime":224.34785599999998,"endTime":224.67394299999998,"instrument":2,"program":32},{"pitch":31,"velocity":110,"startTime":224.8369865,"endTime":225.00002999999998,"instrument":2,"program":32},{"pitch":31,"velocity":110,"startTime":225.1630735,"endTime":225.32611699999998,"instrument":2,"program":32},{"pitch":34,"velocity":110,"startTime":225.32611699999998,"endTime":225.4891605,"instrument":2,"program":32},{"pitch":31,"velocity":110,"startTime":225.65220399999998,"endTime":225.81524749999997,"instrument":2,"program":32},{"pitch":31,"velocity":110,"startTime":225.97829099999998,"endTime":226.14133449999997,"instrument":2,"program":32},{"pitch":31,"velocity":110,"startTime":226.30437799999999,"endTime":226.46742149999997,"instrument":2,"program":32},{"pitch":31,"velocity":110,"startTime":226.630465,"endTime":226.79350849999997,"instrument":2,"program":32},{"pitch":31,"velocity":110,"startTime":226.956552,"endTime":227.282639,"instrument":2,"program":32},{"pitch":31,"velocity":110,"startTime":227.44568249999998,"endTime":227.608726,"instrument":2,"program":32},{"pitch":31,"velocity":110,"startTime":227.77176949999998,"endTime":227.934813,"instrument":2,"program":32},{"pitch":31,"velocity":110,"startTime":227.934813,"endTime":228.09785649999998,"instrument":2,"program":32},{"pitch":34,"velocity":110,"startTime":228.2609,"endTime":228.42394349999998,"instrument":2,"program":32},{"pitch":31,"velocity":110,"startTime":228.586987,"endTime":228.75003049999998,"instrument":2,"program":32},{"pitch":31,"velocity":110,"startTime":228.913074,"endTime":229.07611749999998,"instrument":2,"program":32},{"pitch":29,"velocity":110,"startTime":229.239161,"endTime":229.40220449999998,"instrument":2,"program":32},{"pitch":58,"velocity":105,"startTime":208.69567999999998,"endTime":211.304376,"instrument":3,"program":50},{"pitch":60,"velocity":105,"startTime":208.69567999999998,"endTime":211.304376,"instrument":3,"program":50},{"pitch":64,"velocity":105,"startTime":208.69567999999998,"endTime":211.304376,"instrument":3,"program":50},{"pitch":66,"velocity":105,"startTime":208.69567999999998,"endTime":211.304376,"instrument":3,"program":50},{"pitch":58,"velocity":105,"startTime":211.304376,"endTime":211.79350649999998,"instrument":3,"program":50},{"pitch":62,"velocity":105,"startTime":211.304376,"endTime":211.84785433333332,"instrument":3,"program":50},{"pitch":66,"velocity":105,"startTime":211.304376,"endTime":212.44568049999998,"instrument":3,"program":50},{"pitch":69,"velocity":105,"startTime":211.304376,"endTime":211.84785433333332,"instrument":3,"program":50},{"pitch":54,"velocity":105,"startTime":211.630463,"endTime":211.84785433333332,"instrument":3,"program":50},{"pitch":57,"velocity":105,"startTime":211.95655,"endTime":213.80437633333332,"instrument":3,"program":50},{"pitch":60,"velocity":105,"startTime":211.95655,"endTime":212.50002833333332,"instrument":3,"program":50},{"pitch":66,"velocity":105,"startTime":212.50002833333332,"endTime":213.75002849999998,"instrument":3,"program":50},{"pitch":72,"velocity":105,"startTime":212.608724,"endTime":213.75002849999998,"instrument":3,"program":50},{"pitch":69,"velocity":105,"startTime":212.6630718333333,"endTime":212.82611533333332,"instrument":3,"program":50},{"pitch":68,"velocity":105,"startTime":212.934811,"endTime":213.80437633333332,"instrument":3,"program":50},{"pitch":62,"velocity":105,"startTime":213.91307199999997,"endTime":216.52176799999998,"instrument":3,"program":50},{"pitch":67,"velocity":105,"startTime":213.91307199999997,"endTime":216.52176799999998,"instrument":3,"program":50},{"pitch":70,"velocity":105,"startTime":213.91307199999997,"endTime":216.52176799999998,"instrument":3,"program":50},{"pitch":74,"velocity":105,"startTime":213.91307199999997,"endTime":216.52176799999998,"instrument":3,"program":50},{"pitch":62,"velocity":105,"startTime":216.52176799999998,"endTime":218.0435073333333,"instrument":3,"program":50},{"pitch":65,"velocity":105,"startTime":216.52176799999998,"endTime":218.26089866666666,"instrument":3,"program":50},{"pitch":67,"velocity":105,"startTime":216.52176799999998,"endTime":218.91307266666664,"instrument":3,"program":50},{"pitch":70,"velocity":105,"startTime":216.52176799999998,"endTime":218.96742049999997,"instrument":3,"program":50},{"pitch":62,"velocity":105,"startTime":218.31524649999997,"endTime":218.47829,"instrument":3,"program":50},{"pitch":55,"velocity":105,"startTime":218.47829,"endTime":218.96742049999997,"instrument":3,"program":50},{"pitch":62,"velocity":105,"startTime":218.804377,"endTime":218.96742049999997,"instrument":3,"program":50},{"pitch":60,"velocity":105,"startTime":219.130464,"endTime":221.73915999999997,"instrument":3,"program":50},{"pitch":62,"velocity":105,"startTime":219.130464,"endTime":221.73915999999997,"instrument":3,"program":50},{"pitch":66,"velocity":105,"startTime":219.130464,"endTime":221.73915999999997,"instrument":3,"program":50},{"pitch":69,"velocity":105,"startTime":219.130464,"endTime":221.73915999999997,"instrument":3,"program":50},{"pitch":60,"velocity":105,"startTime":221.73915999999997,"endTime":224.13046466666665,"instrument":3,"program":50},{"pitch":62,"velocity":105,"startTime":221.73915999999997,"endTime":224.1848125,"instrument":3,"program":50},{"pitch":66,"velocity":105,"startTime":221.73915999999997,"endTime":224.1848125,"instrument":3,"program":50},{"pitch":69,"velocity":105,"startTime":221.73915999999997,"endTime":224.1848125,"instrument":3,"program":50},{"pitch":62,"velocity":105,"startTime":224.34785599999998,"endTime":226.68481283333332,"instrument":3,"program":50},{"pitch":67,"velocity":105,"startTime":224.34785599999998,"endTime":226.73916066666666,"instrument":3,"program":50},{"pitch":70,"velocity":105,"startTime":224.34785599999998,"endTime":226.73916066666666,"instrument":3,"program":50},{"pitch":62,"velocity":105,"startTime":227.608726,"endTime":227.71742166666664,"instrument":3,"program":50},{"pitch":67,"velocity":105,"startTime":227.608726,"endTime":227.71742166666664,"instrument":3,"program":50},{"pitch":74,"velocity":105,"startTime":227.608726,"endTime":227.77176949999998,"instrument":3,"program":50},{"pitch":62,"velocity":105,"startTime":227.77176949999998,"endTime":227.98916083333333,"instrument":3,"program":50},{"pitch":67,"velocity":105,"startTime":227.77176949999998,"endTime":227.98916083333333,"instrument":3,"program":50},{"pitch":74,"velocity":105,"startTime":227.77176949999998,"endTime":227.98916083333333,"instrument":3,"program":50},{"pitch":62,"velocity":105,"startTime":228.2609,"endTime":228.586987,"instrument":3,"program":50},{"pitch":67,"velocity":105,"startTime":228.2609,"endTime":228.586987,"instrument":3,"program":50},{"pitch":74,"velocity":105,"startTime":228.2609,"endTime":228.586987,"instrument":3,"program":50},{"pitch":62,"velocity":105,"startTime":228.586987,"endTime":229.45655233333332,"instrument":3,"program":50},{"pitch":67,"velocity":105,"startTime":228.586987,"endTime":229.565248,"instrument":3,"program":50},{"pitch":74,"velocity":105,"startTime":228.586987,"endTime":229.51090016666666,"instrument":3,"program":50},{"pitch":62,"velocity":105,"startTime":229.45655233333332,"endTime":229.565248,"instrument":3,"program":50},{"pitch":35,"velocity":102,"startTime":229.565248,"endTime":229.67394366666664,"isDrum":true},{"pitch":42,"velocity":102,"startTime":229.565248,"endTime":229.67394366666664,"isDrum":true},{"pitch":51,"velocity":102,"startTime":229.565248,"endTime":229.67394366666664,"isDrum":true},{"pitch":42,"velocity":102,"startTime":229.89133499999997,"endTime":230.00003066666665,"isDrum":true},{"pitch":51,"velocity":102,"startTime":229.89133499999997,"endTime":230.00003066666665,"isDrum":true},{"pitch":42,"velocity":102,"startTime":231.19568299999997,"endTime":231.30437866666665,"isDrum":true},{"pitch":51,"velocity":102,"startTime":231.19568299999997,"endTime":231.30437866666665,"isDrum":true},{"pitch":35,"velocity":102,"startTime":231.3587265,"endTime":231.46742216666664,"isDrum":true},{"pitch":51,"velocity":102,"startTime":231.3587265,"endTime":231.46742216666664,"isDrum":true},{"pitch":35,"velocity":102,"startTime":231.52176999999998,"endTime":231.63046566666665,"isDrum":true},{"pitch":42,"velocity":102,"startTime":231.52176999999998,"endTime":231.63046566666665,"isDrum":true},{"pitch":51,"velocity":102,"startTime":231.52176999999998,"endTime":231.63046566666665,"isDrum":true},{"pitch":42,"velocity":102,"startTime":231.84785699999998,"endTime":231.95655266666665,"isDrum":true},{"pitch":51,"velocity":102,"startTime":231.84785699999998,"endTime":231.95655266666665,"isDrum":true},{"pitch":51,"velocity":102,"startTime":232.0109005,"endTime":232.11959616666664,"isDrum":true},{"pitch":40,"velocity":102,"startTime":232.17394399999998,"endTime":232.28263966666665,"isDrum":true},{"pitch":42,"velocity":102,"startTime":232.17394399999998,"endTime":232.28263966666665,"isDrum":true},{"pitch":35,"velocity":102,"startTime":232.50003099999998,"endTime":232.60872666666666,"isDrum":true},{"pitch":42,"velocity":102,"startTime":232.50003099999998,"endTime":232.60872666666666,"isDrum":true},{"pitch":51,"velocity":102,"startTime":232.50003099999998,"endTime":232.60872666666666,"isDrum":true},{"pitch":40,"velocity":102,"startTime":232.6630745,"endTime":232.77177016666664,"isDrum":true},{"pitch":35,"velocity":102,"startTime":232.82611799999998,"endTime":232.93481366666666,"isDrum":true},{"pitch":42,"velocity":102,"startTime":232.82611799999998,"endTime":232.93481366666666,"isDrum":true},{"pitch":51,"velocity":102,"startTime":232.82611799999998,"endTime":232.93481366666666,"isDrum":true},{"pitch":35,"velocity":102,"startTime":233.15220499999998,"endTime":233.26090066666666,"isDrum":true},{"pitch":42,"velocity":102,"startTime":233.15220499999998,"endTime":233.26090066666666,"isDrum":true},{"pitch":51,"velocity":102,"startTime":233.15220499999998,"endTime":233.26090066666666,"isDrum":true},{"pitch":40,"velocity":102,"startTime":233.3152485,"endTime":233.42394416666664,"isDrum":true},{"pitch":40,"velocity":102,"startTime":233.47829199999998,"endTime":233.58698766666666,"isDrum":true},{"pitch":42,"velocity":102,"startTime":233.47829199999998,"endTime":233.58698766666666,"isDrum":true},{"pitch":42,"velocity":102,"startTime":233.80437899999998,"endTime":233.91307466666666,"isDrum":true},{"pitch":51,"velocity":102,"startTime":233.80437899999998,"endTime":233.91307466666666,"isDrum":true},{"pitch":40,"velocity":102,"startTime":233.96742249999997,"endTime":234.07611816666665,"isDrum":true},{"pitch":35,"velocity":102,"startTime":234.13046599999998,"endTime":234.23916166666666,"isDrum":true},{"pitch":42,"velocity":102,"startTime":234.13046599999998,"endTime":234.23916166666666,"isDrum":true},{"pitch":35,"velocity":102,"startTime":234.45655299999999,"endTime":234.56524866666666,"isDrum":true},{"pitch":42,"velocity":102,"startTime":234.45655299999999,"endTime":234.56524866666666,"isDrum":true},{"pitch":51,"velocity":102,"startTime":234.45655299999999,"endTime":234.56524866666666,"isDrum":true},{"pitch":40,"velocity":102,"startTime":234.61959649999997,"endTime":234.72829216666665,"isDrum":true},{"pitch":40,"velocity":102,"startTime":234.78264,"endTime":234.89133566666666,"isDrum":true},{"pitch":42,"velocity":102,"startTime":234.78264,"endTime":234.89133566666666,"isDrum":true},{"pitch":35,"velocity":102,"startTime":235.108727,"endTime":235.21742266666664,"isDrum":true},{"pitch":42,"velocity":102,"startTime":235.108727,"endTime":235.21742266666664,"isDrum":true},{"pitch":51,"velocity":102,"startTime":235.108727,"endTime":235.21742266666664,"isDrum":true},{"pitch":35,"velocity":102,"startTime":235.434814,"endTime":235.54350966666664,"isDrum":true},{"pitch":42,"velocity":102,"startTime":235.434814,"endTime":235.54350966666664,"isDrum":true},{"pitch":51,"velocity":102,"startTime":235.434814,"endTime":235.54350966666664,"isDrum":true},{"pitch":42,"velocity":102,"startTime":235.760901,"endTime":235.86959666666664,"isDrum":true},{"pitch":40,"velocity":102,"startTime":236.086988,"endTime":236.19568366666664,"isDrum":true},{"pitch":42,"velocity":102,"startTime":236.086988,"endTime":236.19568366666664,"isDrum":true},{"pitch":42,"velocity":102,"startTime":236.413075,"endTime":236.52177066666664,"isDrum":true},{"pitch":51,"velocity":102,"startTime":236.413075,"endTime":236.52177066666664,"isDrum":true},{"pitch":35,"velocity":102,"startTime":236.57611849999998,"endTime":236.68481416666665,"isDrum":true},{"pitch":35,"velocity":102,"startTime":236.739162,"endTime":236.84785766666664,"isDrum":true},{"pitch":42,"velocity":102,"startTime":236.739162,"endTime":236.84785766666664,"isDrum":true},{"pitch":51,"velocity":102,"startTime":236.739162,"endTime":236.84785766666664,"isDrum":true},{"pitch":35,"velocity":102,"startTime":237.065249,"endTime":237.17394466666664,"isDrum":true},{"pitch":42,"velocity":102,"startTime":237.065249,"endTime":237.17394466666664,"isDrum":true},{"pitch":51,"velocity":102,"startTime":237.065249,"endTime":237.17394466666664,"isDrum":true},{"pitch":40,"velocity":102,"startTime":237.391336,"endTime":237.50003166666664,"isDrum":true},{"pitch":42,"velocity":102,"startTime":237.391336,"endTime":237.50003166666664,"isDrum":true},{"pitch":35,"velocity":102,"startTime":237.71742299999997,"endTime":237.82611866666664,"isDrum":true},{"pitch":42,"velocity":102,"startTime":237.71742299999997,"endTime":237.82611866666664,"isDrum":true},{"pitch":51,"velocity":102,"startTime":237.71742299999997,"endTime":237.82611866666664,"isDrum":true},{"pitch":35,"velocity":102,"startTime":238.04350999999997,"endTime":238.15220566666665,"isDrum":true},{"pitch":42,"velocity":102,"startTime":238.04350999999997,"endTime":238.15220566666665,"isDrum":true},{"pitch":51,"velocity":102,"startTime":238.04350999999997,"endTime":238.15220566666665,"isDrum":true},{"pitch":42,"velocity":102,"startTime":238.36959699999997,"endTime":238.47829266666665,"isDrum":true},{"pitch":51,"velocity":102,"startTime":238.36959699999997,"endTime":238.47829266666665,"isDrum":true},{"pitch":40,"velocity":102,"startTime":238.69568399999997,"endTime":238.80437966666665,"isDrum":true},{"pitch":42,"velocity":102,"startTime":238.69568399999997,"endTime":238.80437966666665,"isDrum":true},{"pitch":42,"velocity":102,"startTime":239.02177099999997,"endTime":239.13046666666665,"isDrum":true},{"pitch":51,"velocity":102,"startTime":239.02177099999997,"endTime":239.13046666666665,"isDrum":true},{"pitch":35,"velocity":102,"startTime":239.1848145,"endTime":239.29351016666664,"isDrum":true},{"pitch":35,"velocity":102,"startTime":239.34785799999997,"endTime":239.45655366666665,"isDrum":true},{"pitch":42,"velocity":102,"startTime":239.34785799999997,"endTime":239.45655366666665,"isDrum":true},{"pitch":51,"velocity":102,"startTime":239.34785799999997,"endTime":239.45655366666665,"isDrum":true},{"pitch":35,"velocity":102,"startTime":239.67394499999997,"endTime":239.78264066666665,"isDrum":true},{"pitch":42,"velocity":102,"startTime":239.67394499999997,"endTime":239.78264066666665,"isDrum":true},{"pitch":51,"velocity":102,"startTime":239.67394499999997,"endTime":239.78264066666665,"isDrum":true},{"pitch":40,"velocity":102,"startTime":240.00003199999998,"endTime":240.10872766666665,"isDrum":true},{"pitch":42,"velocity":102,"startTime":240.00003199999998,"endTime":240.10872766666665,"isDrum":true},{"pitch":35,"velocity":102,"startTime":240.32611899999998,"endTime":240.43481466666665,"isDrum":true},{"pitch":42,"velocity":102,"startTime":240.32611899999998,"endTime":240.43481466666665,"isDrum":true},{"pitch":51,"velocity":102,"startTime":240.32611899999998,"endTime":240.43481466666665,"isDrum":true},{"pitch":35,"velocity":102,"startTime":240.65220599999998,"endTime":240.76090166666665,"isDrum":true},{"pitch":42,"velocity":102,"startTime":240.65220599999998,"endTime":240.76090166666665,"isDrum":true},{"pitch":42,"velocity":102,"startTime":240.97829299999998,"endTime":241.08698866666666,"isDrum":true},{"pitch":51,"velocity":102,"startTime":240.97829299999998,"endTime":241.08698866666666,"isDrum":true},{"pitch":40,"velocity":102,"startTime":241.30437999999998,"endTime":241.41307566666666,"isDrum":true},{"pitch":42,"velocity":102,"startTime":241.30437999999998,"endTime":241.41307566666666,"isDrum":true},{"pitch":42,"velocity":102,"startTime":241.63046699999998,"endTime":241.73916266666666,"isDrum":true},{"pitch":51,"velocity":102,"startTime":241.63046699999998,"endTime":241.73916266666666,"isDrum":true},{"pitch":35,"velocity":102,"startTime":241.79351049999997,"endTime":241.90220616666664,"isDrum":true},{"pitch":35,"velocity":102,"startTime":241.95655399999998,"endTime":242.06524966666666,"isDrum":true},{"pitch":42,"velocity":102,"startTime":241.95655399999998,"endTime":242.06524966666666,"isDrum":true},{"pitch":35,"velocity":102,"startTime":242.28264099999998,"endTime":242.39133666666666,"isDrum":true},{"pitch":42,"velocity":102,"startTime":242.28264099999998,"endTime":242.39133666666666,"isDrum":true},{"pitch":51,"velocity":102,"startTime":242.28264099999998,"endTime":242.39133666666666,"isDrum":true},{"pitch":40,"velocity":102,"startTime":242.60872799999999,"endTime":242.71742366666666,"isDrum":true},{"pitch":42,"velocity":102,"startTime":242.60872799999999,"endTime":242.71742366666666,"isDrum":true},{"pitch":42,"velocity":102,"startTime":242.934815,"endTime":243.04351066666663,"isDrum":true},{"pitch":51,"velocity":102,"startTime":242.934815,"endTime":243.04351066666663,"isDrum":true},{"pitch":35,"velocity":102,"startTime":243.260902,"endTime":243.36959766666664,"isDrum":true},{"pitch":42,"velocity":102,"startTime":243.260902,"endTime":243.36959766666664,"isDrum":true},{"pitch":42,"velocity":102,"startTime":243.586989,"endTime":243.69568466666664,"isDrum":true},{"pitch":51,"velocity":102,"startTime":243.586989,"endTime":243.69568466666664,"isDrum":true},{"pitch":40,"velocity":102,"startTime":243.913076,"endTime":244.02177166666664,"isDrum":true},{"pitch":42,"velocity":102,"startTime":243.913076,"endTime":244.02177166666664,"isDrum":true},{"pitch":42,"velocity":102,"startTime":244.239163,"endTime":244.34785866666664,"isDrum":true},{"pitch":51,"velocity":102,"startTime":244.239163,"endTime":244.34785866666664,"isDrum":true},{"pitch":35,"velocity":102,"startTime":244.40220649999998,"endTime":244.51090216666665,"isDrum":true},{"pitch":35,"velocity":102,"startTime":244.56525,"endTime":244.67394566666664,"isDrum":true},{"pitch":42,"velocity":102,"startTime":244.56525,"endTime":244.67394566666664,"isDrum":true},{"pitch":42,"velocity":102,"startTime":244.891337,"endTime":245.00003266666664,"isDrum":true},{"pitch":40,"velocity":102,"startTime":245.217424,"endTime":245.32611966666664,"isDrum":true},{"pitch":42,"velocity":102,"startTime":245.217424,"endTime":245.32611966666664,"isDrum":true},{"pitch":42,"velocity":102,"startTime":245.543511,"endTime":245.65220666666664,"isDrum":true},{"pitch":35,"velocity":102,"startTime":245.86959799999997,"endTime":245.97829366666664,"isDrum":true},{"pitch":42,"velocity":102,"startTime":245.86959799999997,"endTime":245.97829366666664,"isDrum":true},{"pitch":42,"velocity":102,"startTime":246.19568499999997,"endTime":246.30438066666665,"isDrum":true},{"pitch":40,"velocity":102,"startTime":246.52177199999997,"endTime":246.63046766666665,"isDrum":true},{"pitch":42,"velocity":102,"startTime":246.52177199999997,"endTime":246.63046766666665,"isDrum":true},{"pitch":42,"velocity":102,"startTime":246.84785899999997,"endTime":246.95655466666665,"isDrum":true},{"pitch":35,"velocity":102,"startTime":247.0109025,"endTime":247.11959816666663,"isDrum":true},{"pitch":35,"velocity":102,"startTime":247.17394599999997,"endTime":247.28264166666665,"isDrum":true},{"pitch":42,"velocity":102,"startTime":247.17394599999997,"endTime":247.28264166666665,"isDrum":true},{"pitch":35,"velocity":102,"startTime":247.50003299999997,"endTime":247.60872866666665,"isDrum":true},{"pitch":42,"velocity":102,"startTime":247.50003299999997,"endTime":247.60872866666665,"isDrum":true},{"pitch":40,"velocity":102,"startTime":247.82611999999997,"endTime":247.93481566666665,"isDrum":true},{"pitch":42,"velocity":102,"startTime":247.82611999999997,"endTime":247.93481566666665,"isDrum":true},{"pitch":42,"velocity":102,"startTime":248.15220699999998,"endTime":248.26090266666665,"isDrum":true},{"pitch":35,"velocity":102,"startTime":248.3152505,"endTime":248.42394616666664,"isDrum":true},{"pitch":35,"velocity":102,"startTime":248.47829399999998,"endTime":248.58698966666665,"isDrum":true},{"pitch":42,"velocity":102,"startTime":248.47829399999998,"endTime":248.58698966666665,"isDrum":true},{"pitch":42,"velocity":102,"startTime":248.80438099999998,"endTime":248.91307666666665,"isDrum":true},{"pitch":40,"velocity":102,"startTime":249.13046799999998,"endTime":249.23916366666666,"isDrum":true},{"pitch":42,"velocity":102,"startTime":249.13046799999998,"endTime":249.23916366666666,"isDrum":true},{"pitch":35,"velocity":102,"startTime":249.45655499999998,"endTime":249.5584571875,"isDrum":true},{"pitch":42,"velocity":102,"startTime":249.45655499999998,"endTime":249.5584571875,"isDrum":true},{"pitch":51,"velocity":102,"startTime":249.45655499999998,"endTime":249.5584571875,"isDrum":true},{"pitch":60,"velocity":95,"startTime":229.565248,"endTime":229.67394366666664,"instrument":1,"program":12},{"pitch":63,"velocity":95,"startTime":229.72829149999998,"endTime":229.83698716666666,"instrument":1,"program":12},{"pitch":67,"velocity":95,"startTime":229.89133499999997,"endTime":230.00003066666665,"instrument":1,"program":12},{"pitch":60,"velocity":95,"startTime":230.05437849999998,"endTime":230.10872633333332,"instrument":1,"program":12},{"pitch":63,"velocity":95,"startTime":230.21742199999997,"endTime":230.32611766666665,"instrument":1,"program":12},{"pitch":67,"velocity":95,"startTime":230.38046549999999,"endTime":230.48916116666666,"instrument":1,"program":12},{"pitch":72,"velocity":95,"startTime":230.54350899999997,"endTime":230.65220466666665,"instrument":1,"program":12},{"pitch":63,"velocity":95,"startTime":230.7065525,"endTime":230.76090033333332,"instrument":1,"program":12},{"pitch":60,"velocity":95,"startTime":230.86959599999997,"endTime":230.97829166666665,"instrument":1,"program":12},{"pitch":67,"velocity":95,"startTime":231.0326395,"endTime":231.14133516666664,"instrument":1,"program":12},{"pitch":63,"velocity":95,"startTime":231.19568299999997,"endTime":231.30437866666665,"instrument":1,"program":12},{"pitch":60,"velocity":95,"startTime":231.3587265,"endTime":231.41307433333333,"instrument":1,"program":12},{"pitch":63,"velocity":95,"startTime":231.52176999999998,"endTime":231.63046566666665,"instrument":1,"program":12},{"pitch":67,"velocity":95,"startTime":231.6848135,"endTime":231.79350916666664,"instrument":1,"program":12},{"pitch":60,"velocity":95,"startTime":231.84785699999998,"endTime":231.95655266666665,"instrument":1,"program":12},{"pitch":63,"velocity":95,"startTime":232.0109005,"endTime":232.11959616666664,"instrument":1,"program":12},{"pitch":60,"velocity":95,"startTime":232.17394399999998,"endTime":232.28263966666665,"instrument":1,"program":12},{"pitch":63,"velocity":95,"startTime":232.3369875,"endTime":232.44568316666664,"instrument":1,"program":12},{"pitch":67,"velocity":95,"startTime":232.50003099999998,"endTime":232.60872666666666,"instrument":1,"program":12},{"pitch":60,"velocity":95,"startTime":232.6630745,"endTime":232.7174223333333,"instrument":1,"program":12},{"pitch":75,"velocity":95,"startTime":232.82611799999998,"endTime":232.93481366666666,"instrument":1,"program":12},{"pitch":75,"velocity":95,"startTime":232.9891615,"endTime":233.0435093333333,"instrument":1,"program":12},{"pitch":72,"velocity":95,"startTime":233.3152485,"endTime":233.3695963333333,"instrument":1,"program":12},{"pitch":75,"velocity":95,"startTime":233.47829199999998,"endTime":233.58698766666666,"instrument":1,"program":12},{"pitch":72,"velocity":95,"startTime":233.64133549999997,"endTime":233.6956833333333,"instrument":1,"program":12},{"pitch":63,"velocity":95,"startTime":233.80437899999998,"endTime":233.91307466666666,"instrument":1,"program":12},{"pitch":70,"velocity":95,"startTime":233.96742249999997,"endTime":234.07611816666665,"instrument":1,"program":12},{"pitch":60,"velocity":95,"startTime":234.13046599999998,"endTime":234.23916166666666,"instrument":1,"program":12},{"pitch":63,"velocity":95,"startTime":234.29350949999997,"endTime":234.40220516666665,"instrument":1,"program":12},{"pitch":67,"velocity":95,"startTime":234.45655299999999,"endTime":234.56524866666666,"instrument":1,"program":12},{"pitch":67,"velocity":95,"startTime":234.61959649999997,"endTime":234.6739443333333,"instrument":1,"program":12},{"pitch":62,"velocity":95,"startTime":234.78264,"endTime":234.89133566666666,"instrument":1,"program":12},{"pitch":70,"velocity":95,"startTime":234.94568349999997,"endTime":235.05437916666665,"instrument":1,"program":12},{"pitch":74,"velocity":95,"startTime":235.108727,"endTime":235.21742266666664,"instrument":1,"program":12},{"pitch":70,"velocity":95,"startTime":235.27177049999997,"endTime":235.38046616666665,"instrument":1,"program":12},{"pitch":62,"velocity":95,"startTime":235.434814,"endTime":235.54350966666664,"instrument":1,"program":12},{"pitch":70,"velocity":95,"startTime":235.59785749999998,"endTime":235.70655316666665,"instrument":1,"program":12},{"pitch":74,"velocity":95,"startTime":235.760901,"endTime":235.86959666666664,"instrument":1,"program":12},{"pitch":70,"velocity":95,"startTime":235.92394449999998,"endTime":236.03264016666665,"instrument":1,"program":12},{"pitch":62,"velocity":95,"startTime":236.086988,"endTime":236.19568366666664,"instrument":1,"program":12},{"pitch":70,"velocity":95,"startTime":236.25003149999998,"endTime":236.35872716666665,"instrument":1,"program":12},{"pitch":74,"velocity":95,"startTime":236.413075,"endTime":236.52177066666664,"instrument":1,"program":12},{"pitch":70,"velocity":95,"startTime":236.57611849999998,"endTime":236.68481416666665,"instrument":1,"program":12},{"pitch":62,"velocity":95,"startTime":236.739162,"endTime":236.84785766666664,"instrument":1,"program":12},{"pitch":70,"velocity":95,"startTime":236.90220549999998,"endTime":236.95655333333332,"instrument":1,"program":12},{"pitch":74,"velocity":95,"startTime":237.065249,"endTime":237.17394466666664,"instrument":1,"program":12},{"pitch":70,"velocity":95,"startTime":237.22829249999998,"endTime":237.33698816666666,"instrument":1,"program":12},{"pitch":62,"velocity":95,"startTime":237.391336,"endTime":237.50003166666664,"instrument":1,"program":12},{"pitch":67,"velocity":95,"startTime":237.55437949999998,"endTime":237.66307516666666,"instrument":1,"program":12},{"pitch":70,"velocity":95,"startTime":237.71742299999997,"endTime":237.82611866666664,"instrument":1,"program":12},{"pitch":74,"velocity":95,"startTime":237.88046649999998,"endTime":237.98916216666666,"instrument":1,"program":12},{"pitch":62,"velocity":95,"startTime":238.04350999999997,"endTime":238.15220566666665,"instrument":1,"program":12},{"pitch":67,"velocity":95,"startTime":238.20655349999998,"endTime":238.31524916666666,"instrument":1,"program":12},{"pitch":70,"velocity":95,"startTime":238.36959699999997,"endTime":238.47829266666665,"instrument":1,"program":12},{"pitch":67,"velocity":95,"startTime":238.53264049999999,"endTime":238.64133616666666,"instrument":1,"program":12},{"pitch":74,"velocity":95,"startTime":238.69568399999997,"endTime":238.80437966666665,"instrument":1,"program":12},{"pitch":70,"velocity":95,"startTime":238.8587275,"endTime":238.91307533333332,"instrument":1,"program":12},{"pitch":67,"velocity":95,"startTime":239.02177099999997,"endTime":239.13046666666665,"instrument":1,"program":12},{"pitch":74,"velocity":95,"startTime":239.1848145,"endTime":239.29351016666664,"instrument":1,"program":12},{"pitch":70,"velocity":95,"startTime":239.34785799999997,"endTime":239.45655366666665,"instrument":1,"program":12},{"pitch":67,"velocity":95,"startTime":239.5109015,"endTime":239.56524933333333,"instrument":1,"program":12},{"pitch":70,"velocity":95,"startTime":239.67394499999997,"endTime":239.78264066666665,"instrument":1,"program":12},{"pitch":62,"velocity":95,"startTime":239.8369885,"endTime":239.94568416666664,"instrument":1,"program":12},{"pitch":60,"velocity":95,"startTime":240.00003199999998,"endTime":240.10872766666665,"instrument":1,"program":12},{"pitch":69,"velocity":95,"startTime":240.1630755,"endTime":240.27177116666664,"instrument":1,"program":12},{"pitch":72,"velocity":95,"startTime":240.32611899999998,"endTime":240.43481466666665,"instrument":1,"program":12},{"pitch":69,"velocity":95,"startTime":240.4891625,"endTime":240.59785816666664,"instrument":1,"program":12},{"pitch":62,"velocity":95,"startTime":240.65220599999998,"endTime":240.76090166666665,"instrument":1,"program":12},{"pitch":69,"velocity":95,"startTime":240.8152495,"endTime":240.92394516666664,"instrument":1,"program":12},{"pitch":72,"velocity":95,"startTime":240.97829299999998,"endTime":241.08698866666666,"instrument":1,"program":12},{"pitch":69,"velocity":95,"startTime":241.1413365,"endTime":241.25003216666664,"instrument":1,"program":12},{"pitch":62,"velocity":95,"startTime":241.30437999999998,"endTime":241.41307566666666,"instrument":1,"program":12},{"pitch":69,"velocity":95,"startTime":241.4674235,"endTime":241.57611916666664,"instrument":1,"program":12},{"pitch":69,"velocity":95,"startTime":241.63046699999998,"endTime":241.73916266666666,"instrument":1,"program":12},{"pitch":72,"velocity":95,"startTime":241.79351049999997,"endTime":241.90220616666664,"instrument":1,"program":12},{"pitch":62,"velocity":95,"startTime":241.95655399999998,"endTime":242.06524966666666,"instrument":1,"program":12},{"pitch":69,"velocity":95,"startTime":242.11959749999997,"endTime":242.22829316666665,"instrument":1,"program":12},{"pitch":66,"velocity":95,"startTime":242.28264099999998,"endTime":242.39133666666666,"instrument":1,"program":12},{"pitch":69,"velocity":95,"startTime":242.44568449999997,"endTime":242.5000323333333,"instrument":1,"program":12},{"pitch":62,"velocity":95,"startTime":242.60872799999999,"endTime":242.77177149999997,"instrument":1,"program":12},{"pitch":66,"velocity":95,"startTime":242.77177149999997,"endTime":242.88046716666665,"instrument":1,"program":12},{"pitch":69,"velocity":95,"startTime":242.934815,"endTime":243.04351066666663,"instrument":1,"program":12},{"pitch":69,"velocity":95,"startTime":243.09785849999997,"endTime":243.20655416666665,"instrument":1,"program":12},{"pitch":74,"velocity":95,"startTime":243.260902,"endTime":243.36959766666664,"instrument":1,"program":12},{"pitch":69,"velocity":95,"startTime":243.42394549999997,"endTime":243.53264116666665,"instrument":1,"program":12},{"pitch":66,"velocity":95,"startTime":243.586989,"endTime":243.64133683333333,"instrument":1,"program":12},{"pitch":69,"velocity":95,"startTime":243.75003249999997,"endTime":243.8043803333333,"instrument":1,"program":12},{"pitch":62,"velocity":95,"startTime":243.913076,"endTime":244.02177166666664,"instrument":1,"program":12},{"pitch":69,"velocity":95,"startTime":244.07611949999998,"endTime":244.18481516666665,"instrument":1,"program":12},{"pitch":72,"velocity":95,"startTime":244.239163,"endTime":244.34785866666664,"instrument":1,"program":12},{"pitch":69,"velocity":95,"startTime":244.40220649999998,"endTime":244.51090216666665,"instrument":1,"program":12},{"pitch":66,"velocity":95,"startTime":244.56525,"endTime":244.67394566666664,"instrument":1,"program":12},{"pitch":72,"velocity":95,"startTime":244.72829349999998,"endTime":244.83698916666665,"instrument":1,"program":12},{"pitch":69,"velocity":95,"startTime":244.891337,"endTime":245.00003266666664,"instrument":1,"program":12},{"pitch":69,"velocity":95,"startTime":245.05438049999998,"endTime":245.10872833333332,"instrument":1,"program":12},{"pitch":65,"velocity":95,"startTime":247.82611999999997,"endTime":247.93481566666665,"instrument":1,"program":12},{"pitch":69,"velocity":95,"startTime":247.9891635,"endTime":248.09785916666664,"instrument":1,"program":12},{"pitch":72,"velocity":95,"startTime":248.15220699999998,"endTime":248.26090266666665,"instrument":1,"program":12},{"pitch":69,"velocity":95,"startTime":248.3152505,"endTime":248.42394616666664,"instrument":1,"program":12},{"pitch":77,"velocity":95,"startTime":248.47829399999998,"endTime":248.58698966666665,"instrument":1,"program":12},{"pitch":69,"velocity":95,"startTime":248.6413375,"endTime":248.75003316666664,"instrument":1,"program":12},{"pitch":74,"velocity":95,"startTime":248.80438099999998,"endTime":248.91307666666665,"instrument":1,"program":12},{"pitch":69,"velocity":95,"startTime":248.9674245,"endTime":249.07612016666664,"instrument":1,"program":12},{"pitch":74,"velocity":95,"startTime":249.13046799999998,"endTime":249.23916366666666,"instrument":1,"program":12},{"pitch":67,"velocity":95,"startTime":249.2935115,"endTime":249.40220716666664,"instrument":1,"program":12},{"pitch":70,"velocity":95,"startTime":249.45655499999998,"endTime":249.5584571875,"instrument":1,"program":12},{"pitch":39,"velocity":110,"startTime":229.565248,"endTime":229.89133499999997,"instrument":2,"program":32},{"pitch":27,"velocity":110,"startTime":230.05437849999998,"endTime":230.21742199999997,"instrument":2,"program":32},{"pitch":31,"velocity":110,"startTime":230.38046549999999,"endTime":230.54350899999997,"instrument":2,"program":32},{"pitch":34,"velocity":110,"startTime":230.54350899999997,"endTime":230.7065525,"instrument":2,"program":32},{"pitch":36,"velocity":110,"startTime":230.86959599999997,"endTime":231.0326395,"instrument":2,"program":32},{"pitch":34,"velocity":110,"startTime":231.52176999999998,"endTime":231.6848135,"instrument":2,"program":32},{"pitch":39,"velocity":110,"startTime":231.84785699999998,"endTime":232.0109005,"instrument":2,"program":32},{"pitch":39,"velocity":110,"startTime":232.17394399999998,"endTime":232.50003099999998,"instrument":2,"program":32},{"pitch":34,"velocity":110,"startTime":232.6630745,"endTime":232.82611799999998,"instrument":2,"program":32},{"pitch":39,"velocity":110,"startTime":232.9891615,"endTime":233.15220499999998,"instrument":2,"program":32},{"pitch":36,"velocity":110,"startTime":233.15220499999998,"endTime":233.3152485,"instrument":2,"program":32},{"pitch":39,"velocity":110,"startTime":233.47829199999998,"endTime":233.64133549999997,"instrument":2,"program":32},{"pitch":36,"velocity":110,"startTime":233.80437899999998,"endTime":233.96742249999997,"instrument":2,"program":32},{"pitch":39,"velocity":110,"startTime":234.13046599999998,"endTime":234.29350949999997,"instrument":2,"program":32},{"pitch":46,"velocity":110,"startTime":234.45655299999999,"endTime":234.61959649999997,"instrument":2,"program":32},{"pitch":34,"velocity":110,"startTime":234.78264,"endTime":235.108727,"instrument":2,"program":32},{"pitch":31,"velocity":110,"startTime":235.27177049999997,"endTime":235.434814,"instrument":2,"program":32},{"pitch":29,"velocity":110,"startTime":235.59785749999998,"endTime":235.760901,"instrument":2,"program":32},{"pitch":34,"velocity":110,"startTime":235.760901,"endTime":235.92394449999998,"instrument":2,"program":32},{"pitch":38,"velocity":110,"startTime":236.086988,"endTime":236.25003149999998,"instrument":2,"program":32},{"pitch":38,"velocity":110,"startTime":236.57611849999998,"endTime":236.739162,"instrument":2,"program":32},{"pitch":34,"velocity":110,"startTime":236.90220549999998,"endTime":237.065249,"instrument":2,"program":32},{"pitch":34,"velocity":110,"startTime":237.065249,"endTime":237.22829249999998,"instrument":2,"program":32},{"pitch":31,"velocity":110,"startTime":237.391336,"endTime":237.71742299999997,"instrument":2,"program":32},{"pitch":43,"velocity":110,"startTime":237.88046649999998,"endTime":238.04350999999997,"instrument":2,"program":32},{"pitch":35,"velocity":110,"startTime":238.20655349999998,"endTime":238.36959699999997,"instrument":2,"program":32},{"pitch":38,"velocity":110,"startTime":238.36959699999997,"endTime":238.53264049999999,"instrument":2,"program":32},{"pitch":31,"velocity":110,"startTime":238.69568399999997,"endTime":238.8587275,"instrument":2,"program":32},{"pitch":31,"velocity":110,"startTime":239.02177099999997,"endTime":239.1848145,"instrument":2,"program":32},{"pitch":31,"velocity":110,"startTime":239.34785799999997,"endTime":239.5109015,"instrument":2,"program":32},{"pitch":34,"velocity":110,"startTime":239.67394499999997,"endTime":239.8369885,"instrument":2,"program":32},{"pitch":38,"velocity":110,"startTime":240.00003199999998,"endTime":240.32611899999998,"instrument":2,"program":32},{"pitch":38,"velocity":110,"startTime":240.4891625,"endTime":240.65220599999998,"instrument":2,"program":32},{"pitch":33,"velocity":110,"startTime":240.8152495,"endTime":240.97829299999998,"instrument":2,"program":32},{"pitch":38,"velocity":110,"startTime":240.97829299999998,"endTime":241.1413365,"instrument":2,"program":32},{"pitch":38,"velocity":110,"startTime":241.30437999999998,"endTime":241.4674235,"instrument":2,"program":32},{"pitch":38,"velocity":110,"startTime":241.63046699999998,"endTime":241.79351049999997,"instrument":2,"program":32},{"pitch":38,"velocity":110,"startTime":241.95655399999998,"endTime":242.11959749999997,"instrument":2,"program":32},{"pitch":38,"velocity":110,"startTime":242.28264099999998,"endTime":242.44568449999997,"instrument":2,"program":32},{"pitch":38,"velocity":110,"startTime":242.60872799999999,"endTime":242.934815,"instrument":2,"program":32},{"pitch":38,"velocity":110,"startTime":243.09785849999997,"endTime":243.260902,"instrument":2,"program":32},{"pitch":40,"velocity":110,"startTime":243.42394549999997,"endTime":243.586989,"instrument":2,"program":32},{"pitch":38,"velocity":110,"startTime":243.586989,"endTime":243.75003249999997,"instrument":2,"program":32},{"pitch":33,"velocity":110,"startTime":243.913076,"endTime":244.07611949999998,"instrument":2,"program":32},{"pitch":33,"velocity":110,"startTime":244.239163,"endTime":244.40220649999998,"instrument":2,"program":32},{"pitch":45,"velocity":110,"startTime":244.56525,"endTime":244.72829349999998,"instrument":2,"program":32},{"pitch":33,"velocity":110,"startTime":244.891337,"endTime":245.05438049999998,"instrument":2,"program":32},{"pitch":31,"velocity":110,"startTime":245.217424,"endTime":245.43481533333332,"instrument":2,"program":32},{"pitch":38,"velocity":110,"startTime":247.82611999999997,"endTime":248.15220699999998,"instrument":2,"program":32},{"pitch":33,"velocity":110,"startTime":248.3152505,"endTime":248.47829399999998,"instrument":2,"program":32},{"pitch":33,"velocity":110,"startTime":248.6413375,"endTime":248.80438099999998,"instrument":2,"program":32},{"pitch":38,"velocity":110,"startTime":248.80438099999998,"endTime":248.9674245,"instrument":2,"program":32},{"pitch":31,"velocity":110,"startTime":249.13046799999998,"endTime":249.2935115,"instrument":2,"program":32},{"pitch":31,"velocity":110,"startTime":249.3478593333333,"endTime":249.45655499999998,"instrument":2,"program":32},{"pitch":60,"velocity":105,"startTime":229.565248,"endTime":232.06524833333333,"instrument":3,"program":50},{"pitch":63,"velocity":105,"startTime":229.565248,"endTime":232.06524833333333,"instrument":3,"program":50},{"pitch":67,"velocity":105,"startTime":229.565248,"endTime":232.06524833333333,"instrument":3,"program":50},{"pitch":70,"velocity":105,"startTime":229.565248,"endTime":232.06524833333333,"instrument":3,"program":50},{"pitch":60,"velocity":105,"startTime":232.17394399999998,"endTime":233.3695963333333,"instrument":3,"program":50},{"pitch":63,"velocity":105,"startTime":232.17394399999998,"endTime":233.3695963333333,"instrument":3,"program":50},{"pitch":67,"velocity":105,"startTime":232.17394399999998,"endTime":233.3695963333333,"instrument":3,"program":50},{"pitch":70,"velocity":105,"startTime":232.17394399999998,"endTime":233.3695963333333,"instrument":3,"program":50},{"pitch":58,"velocity":105,"startTime":233.47829199999998,"endTime":233.85872683333332,"instrument":3,"program":50},{"pitch":60,"velocity":105,"startTime":233.47829199999998,"endTime":233.85872683333332,"instrument":3,"program":50},{"pitch":63,"velocity":105,"startTime":233.47829199999998,"endTime":233.85872683333332,"instrument":3,"program":50},{"pitch":67,"velocity":105,"startTime":233.47829199999998,"endTime":233.85872683333332,"instrument":3,"program":50},{"pitch":58,"velocity":105,"startTime":233.96742249999997,"endTime":234.78264,"instrument":3,"program":50},{"pitch":60,"velocity":105,"startTime":233.96742249999997,"endTime":234.78264,"instrument":3,"program":50},{"pitch":63,"velocity":105,"startTime":233.96742249999997,"endTime":234.78264,"instrument":3,"program":50},{"pitch":67,"velocity":105,"startTime":233.96742249999997,"endTime":234.78264,"instrument":3,"program":50},{"pitch":58,"velocity":105,"startTime":234.78264,"endTime":237.28264033333332,"instrument":3,"program":50},{"pitch":62,"velocity":105,"startTime":234.78264,"endTime":237.28264033333332,"instrument":3,"program":50},{"pitch":65,"velocity":105,"startTime":234.78264,"endTime":237.28264033333332,"instrument":3,"program":50},{"pitch":67,"velocity":105,"startTime":234.78264,"endTime":237.28264033333332,"instrument":3,"program":50},{"pitch":58,"velocity":105,"startTime":237.391336,"endTime":239.61959716666664,"instrument":3,"program":50},{"pitch":62,"velocity":105,"startTime":237.391336,"endTime":239.61959716666664,"instrument":3,"program":50},{"pitch":65,"velocity":105,"startTime":237.391336,"endTime":239.61959716666664,"instrument":3,"program":50},{"pitch":67,"velocity":105,"startTime":237.391336,"endTime":239.61959716666664,"instrument":3,"program":50},{"pitch":57,"velocity":105,"startTime":239.67394499999997,"endTime":242.44568449999997,"instrument":3,"program":50},{"pitch":58,"velocity":105,"startTime":239.67394499999997,"endTime":242.44568449999997,"instrument":3,"program":50},{"pitch":62,"velocity":105,"startTime":239.67394499999997,"endTime":242.44568449999997,"instrument":3,"program":50},{"pitch":66,"velocity":105,"startTime":239.67394499999997,"endTime":242.44568449999997,"instrument":3,"program":50},{"pitch":60,"velocity":105,"startTime":242.60872799999999,"endTime":245.10872833333332,"instrument":3,"program":50},{"pitch":62,"velocity":105,"startTime":242.60872799999999,"endTime":245.10872833333332,"instrument":3,"program":50},{"pitch":69,"velocity":105,"startTime":242.60872799999999,"endTime":245.10872833333332,"instrument":3,"program":50},{"pitch":58,"velocity":105,"startTime":245.217424,"endTime":245.38046749999998,"instrument":3,"program":50},{"pitch":62,"velocity":105,"startTime":245.217424,"endTime":245.38046749999998,"instrument":3,"program":50},{"pitch":67,"velocity":105,"startTime":245.217424,"endTime":245.38046749999998,"instrument":3,"program":50},{"pitch":74,"velocity":105,"startTime":245.217424,"endTime":245.38046749999998,"instrument":3,"program":50},{"pitch":60,"velocity":105,"startTime":247.82611999999997,"endTime":248.47829399999998,"instrument":3,"program":50},{"pitch":63,"velocity":105,"startTime":247.82611999999997,"endTime":248.47829399999998,"instrument":3,"program":50},{"pitch":66,"velocity":105,"startTime":247.82611999999997,"endTime":248.47829399999998,"instrument":3,"program":50},{"pitch":69,"velocity":105,"startTime":247.82611999999997,"endTime":248.47829399999998,"instrument":3,"program":50},{"pitch":62,"velocity":105,"startTime":248.47829399999998,"endTime":249.5584571875,"instrument":3,"program":50},{"pitch":65,"velocity":105,"startTime":248.47829399999998,"endTime":249.5584571875,"instrument":3,"program":50},{"pitch":67,"velocity":105,"startTime":248.47829399999998,"endTime":249.5584571875,"instrument":3,"program":50},{"pitch":70,"velocity":105,"startTime":248.47829399999998,"endTime":249.5584571875,"instrument":3,"program":50}],"totalTime":249.5584571875},"sequence":{"filename":"cumparsita_tango__sunflower.mid","tempos":[{"qpm":91.99998773333498}],"notes":[{"pitch":35,"velocity":102,"endTime":0.16304349999999998,"isDrum":true},{"pitch":42,"velocity":102,"endTime":0.16304349999999998,"isDrum":true},{"pitch":42,"velocity":102,"startTime":0.32608699999999996,"endTime":0.48913049999999997,"isDrum":true},{"pitch":40,"velocity":102,"startTime":0.6521739999999999,"endTime":0.8152174999999999,"isDrum":true},{"pitch":42,"velocity":102,"startTime":0.6521739999999999,"endTime":0.8152174999999999,"isDrum":true},{"pitch":42,"velocity":102,"startTime":0.9782609999999999,"endTime":1.1413045,"isDrum":true},{"pitch":35,"velocity":102,"startTime":1.3043479999999998,"endTime":1.4673915,"isDrum":true},{"pitch":42,"velocity":102,"startTime":1.3043479999999998,"endTime":1.4673915,"isDrum":true},{"pitch":42,"velocity":102,"startTime":1.6304349999999999,"endTime":1.7934785,"isDrum":true},{"pitch":40,"velocity":102,"startTime":1.9565219999999999,"endTime":2.1195654999999998,"isDrum":true},{"pitch":42,"velocity":102,"startTime":1.9565219999999999,"endTime":2.1195654999999998,"isDrum":true},{"pitch":42,"velocity":102,"startTime":2.282609,"endTime":2.4456525,"isDrum":true},{"pitch":35,"velocity":102,"startTime":2.6086959999999997,"endTime":2.7717395,"isDrum":true},{"pitch":42,"velocity":102,"startTime":2.6086959999999997,"endTime":2.7717395,"isDrum":true},{"pitch":42,"velocity":102,"startTime":2.934783,"endTime":3.0978264999999996,"isDrum":true},{"pitch":40,"velocity":102,"startTime":3.2608699999999997,"endTime":3.4239135,"isDrum":true},{"pitch":42,"velocity":102,"startTime":3.2608699999999997,"endTime":3.4239135,"isDrum":true},{"pitch":42,"velocity":102,"startTime":3.586957,"endTime":3.7500004999999996,"isDrum":true},{"pitch":35,"velocity":102,"startTime":3.9130439999999997,"endTime":4.0760875,"isDrum":true},{"pitch":42,"velocity":102,"startTime":3.9130439999999997,"endTime":4.0760875,"isDrum":true},{"pitch":42,"velocity":102,"startTime":4.2391309999999995,"endTime":4.4021745,"isDrum":true},{"pitch":40,"velocity":102,"startTime":4.565218,"endTime":4.7282614999999995,"isDrum":true},{"pitch":42,"velocity":102,"startTime":4.565218,"endTime":4.7282614999999995,"isDrum":true},{"pitch":42,"velocity":102,"startTime":4.891305,"endTime":5.0543485,"isDrum":true},{"pitch":35,"velocity":102,"startTime":5.217391999999999,"endTime":5.3804355,"isDrum":true},{"pitch":42,"velocity":102,"startTime":5.217391999999999,"endTime":5.3804355,"isDrum":true},{"pitch":42,"velocity":102,"startTime":5.543479,"endTime":5.706522499999999,"isDrum":true},{"pitch":40,"velocity":102,"startTime":5.869566,"endTime":6.0326094999999995,"isDrum":true},{"pitch":42,"velocity":102,"startTime":5.869566,"endTime":6.0326094999999995,"isDrum":true},{"pitch":42,"velocity":102,"startTime":6.195652999999999,"endTime":6.3586965,"isDrum":true},{"pitch":35,"velocity":102,"startTime":6.521739999999999,"endTime":6.684783499999999,"isDrum":true},{"pitch":42,"velocity":102,"startTime":6.521739999999999,"endTime":6.684783499999999,"isDrum":true},{"pitch":42,"velocity":102,"startTime":6.847827,"endTime":7.010870499999999,"isDrum":true},{"pitch":40,"velocity":102,"startTime":7.173914,"endTime":7.3369575,"isDrum":true},{"pitch":42,"velocity":102,"startTime":7.173914,"endTime":7.3369575,"isDrum":true},{"pitch":42,"velocity":102,"startTime":7.500000999999999,"endTime":7.6630445,"isDrum":true},{"pitch":35,"velocity":102,"startTime":7.8260879999999995,"endTime":7.989131499999999,"isDrum":true},{"pitch":42,"velocity":102,"startTime":7.8260879999999995,"endTime":7.989131499999999,"isDrum":true},{"pitch":42,"velocity":102,"startTime":8.152175,"endTime":8.315218499999999,"isDrum":true},{"pitch":40,"velocity":102,"startTime":8.478261999999999,"endTime":8.6413055,"isDrum":true},{"pitch":42,"velocity":102,"startTime":8.478261999999999,"endTime":8.6413055,"isDrum":true},{"pitch":42,"velocity":102,"startTime":8.804349,"endTime":8.967392499999999,"isDrum":true},{"pitch":51,"velocity":102,"startTime":8.804349,"endTime":8.967392499999999,"isDrum":true},{"pitch":35,"velocity":102,"startTime":9.130436,"endTime":9.2934795,"isDrum":true},{"pitch":42,"velocity":102,"startTime":9.130436,"endTime":9.2934795,"isDrum":true},{"pitch":42,"velocity":102,"startTime":9.456522999999999,"endTime":9.6195665,"isDrum":true},{"pitch":40,"velocity":102,"startTime":9.78261,"endTime":9.945653499999999,"isDrum":true},{"pitch":42,"velocity":102,"startTime":9.78261,"endTime":9.945653499999999,"isDrum":true},{"pitch":42,"velocity":102,"startTime":10.108697,"endTime":10.2717405,"isDrum":true},{"pitch":35,"velocity":102,"startTime":10.434783999999999,"endTime":10.5978275,"isDrum":true},{"pitch":42,"velocity":102,"startTime":10.434783999999999,"endTime":10.5978275,"isDrum":true},{"pitch":42,"velocity":102,"startTime":10.760871,"endTime":10.923914499999999,"isDrum":true},{"pitch":40,"velocity":102,"startTime":11.086958,"endTime":11.2500015,"isDrum":true},{"pitch":42,"velocity":102,"startTime":11.086958,"endTime":11.2500015,"isDrum":true},{"pitch":42,"velocity":102,"startTime":11.413044999999999,"endTime":11.5760885,"isDrum":true},{"pitch":35,"velocity":102,"startTime":11.739132,"endTime":11.902175499999998,"isDrum":true},{"pitch":42,"velocity":102,"startTime":11.739132,"endTime":11.902175499999998,"isDrum":true},{"pitch":42,"velocity":102,"startTime":12.065218999999999,"endTime":12.2282625,"isDrum":true},{"pitch":40,"velocity":102,"startTime":12.391305999999998,"endTime":12.554349499999999,"isDrum":true},{"pitch":42,"velocity":102,"startTime":12.391305999999998,"endTime":12.554349499999999,"isDrum":true},{"pitch":42,"velocity":102,"startTime":12.717393,"endTime":12.880436499999998,"isDrum":true},{"pitch":35,"velocity":102,"startTime":13.043479999999999,"endTime":13.2065235,"isDrum":true},{"pitch":42,"velocity":102,"startTime":13.043479999999999,"endTime":13.2065235,"isDrum":true},{"pitch":42,"velocity":102,"startTime":13.369566999999998,"endTime":13.532610499999999,"isDrum":true},{"pitch":40,"velocity":102,"startTime":13.695654,"endTime":13.858697499999998,"isDrum":true},{"pitch":42,"velocity":102,"startTime":13.695654,"endTime":13.858697499999998,"isDrum":true},{"pitch":42,"velocity":102,"startTime":14.021740999999999,"endTime":14.1847845,"isDrum":true},{"pitch":35,"velocity":102,"startTime":14.347828,"endTime":14.510871499999999,"isDrum":true},{"pitch":42,"velocity":102,"startTime":14.347828,"endTime":14.510871499999999,"isDrum":true},{"pitch":42,"velocity":102,"startTime":14.673915,"endTime":14.8369585,"isDrum":true},{"pitch":40,"velocity":102,"startTime":15.000001999999999,"endTime":15.163045499999999,"isDrum":true},{"pitch":42,"velocity":102,"startTime":15.000001999999999,"endTime":15.163045499999999,"isDrum":true},{"pitch":42,"velocity":102,"startTime":15.326089,"endTime":15.489132499999998,"isDrum":true},{"pitch":35,"velocity":102,"startTime":15.652175999999999,"endTime":15.8152195,"isDrum":true},{"pitch":42,"velocity":102,"startTime":15.652175999999999,"endTime":15.8152195,"isDrum":true},{"pitch":42,"velocity":102,"startTime":15.978262999999998,"endTime":16.1413065,"isDrum":true},{"pitch":40,"velocity":102,"startTime":16.30435,"endTime":16.4673935,"isDrum":true},{"pitch":42,"velocity":102,"startTime":16.30435,"endTime":16.4673935,"isDrum":true},{"pitch":42,"velocity":102,"startTime":16.630436999999997,"endTime":16.793480499999998,"isDrum":true},{"pitch":35,"velocity":102,"startTime":16.956523999999998,"endTime":17.1195675,"isDrum":true},{"pitch":42,"velocity":102,"startTime":16.956523999999998,"endTime":17.1195675,"isDrum":true},{"pitch":42,"velocity":102,"startTime":17.282611,"endTime":17.4456545,"isDrum":true},{"pitch":40,"velocity":102,"startTime":17.608698,"endTime":17.771741499999997,"isDrum":true},{"pitch":42,"velocity":102,"startTime":17.608698,"endTime":17.771741499999997,"isDrum":true},{"pitch":42,"velocity":102,"startTime":17.934784999999998,"endTime":18.0978285,"isDrum":true},{"pitch":35,"velocity":102,"startTime":18.260872,"endTime":18.4239155,"isDrum":true},{"pitch":42,"velocity":102,"startTime":18.260872,"endTime":18.4239155,"isDrum":true},{"pitch":42,"velocity":102,"startTime":18.586959,"endTime":18.750002499999997,"isDrum":true},{"pitch":40,"velocity":102,"startTime":18.913045999999998,"endTime":19.0760895,"isDrum":true},{"pitch":42,"velocity":102,"startTime":18.913045999999998,"endTime":19.0760895,"isDrum":true},{"pitch":42,"velocity":102,"startTime":19.239133,"endTime":19.4021765,"isDrum":true},{"pitch":51,"velocity":102,"startTime":19.239133,"endTime":19.4021765,"isDrum":true},{"pitch":35,"velocity":102,"startTime":19.4021765,"endTime":19.56522,"isDrum":true},{"pitch":35,"velocity":102,"startTime":19.56522,"endTime":19.728263499999997,"isDrum":true},{"pitch":42,"velocity":102,"startTime":19.56522,"endTime":19.728263499999997,"isDrum":true},{"pitch":42,"velocity":102,"startTime":19.891306999999998,"endTime":20.054350499999998,"isDrum":true},{"pitch":40,"velocity":102,"startTime":20.217394,"endTime":20.3804375,"isDrum":true},{"pitch":42,"velocity":102,"startTime":20.217394,"endTime":20.3804375,"isDrum":true},{"pitch":42,"velocity":102,"startTime":20.543481,"endTime":20.706524499999997,"isDrum":true},{"pitch":58,"velocity":95,"endTime":0.10869566666666666,"instrument":1,"program":12},{"pitch":64,"velocity":95,"startTime":0.16304349999999998,"endTime":0.27173916666666664,"instrument":1,"program":12},{"pitch":69,"velocity":95,"startTime":0.32608699999999996,"endTime":0.3804348333333333,"instrument":1,"program":12},{"pitch":64,"velocity":95,"startTime":0.48913049999999997,"endTime":0.5434783333333333,"instrument":1,"program":12},{"pitch":69,"velocity":95,"startTime":0.6521739999999999,"endTime":0.7608696666666666,"instrument":1,"program":12},{"pitch":69,"velocity":95,"startTime":0.8152174999999999,"endTime":0.9239131666666666,"instrument":1,"program":12},{"pitch":64,"velocity":95,"startTime":0.9782609999999999,"endTime":1.0869566666666663,"instrument":1,"program":12},{"pitch":69,"velocity":95,"startTime":1.1413045,"endTime":1.2500001666666665,"instrument":1,"program":12},{"pitch":64,"velocity":95,"startTime":1.3043479999999998,"endTime":1.4130436666666666,"instrument":1,"program":12},{"pitch":69,"velocity":95,"startTime":1.4673915,"endTime":1.5760871666666665,"instrument":1,"program":12},{"pitch":64,"velocity":95,"startTime":1.6304349999999999,"endTime":1.7391306666666666,"instrument":1,"program":12},{"pitch":70,"velocity":95,"startTime":1.7934785,"endTime":1.8478263333333331,"instrument":1,"program":12},{"pitch":76,"velocity":95,"startTime":1.9565219999999999,"endTime":2.0652176666666664,"instrument":1,"program":12},{"pitch":69,"velocity":95,"startTime":2.1195654999999998,"endTime":2.2282611666666665,"instrument":1,"program":12},{"pitch":69,"velocity":95,"startTime":2.282609,"endTime":2.3913046666666666,"instrument":1,"program":12},{"pitch":72,"velocity":95,"startTime":2.4456525,"endTime":2.5543481666666663,"instrument":1,"program":12},{"pitch":62,"velocity":95,"startTime":2.6086959999999997,"endTime":2.717391666666667,"instrument":1,"program":12},{"pitch":69,"velocity":95,"startTime":2.7717395,"endTime":2.8804351666666665,"instrument":1,"program":12},{"pitch":72,"velocity":95,"startTime":2.934783,"endTime":3.043478666666666,"instrument":1,"program":12},{"pitch":69,"velocity":95,"startTime":3.0978264999999996,"endTime":3.2065221666666663,"instrument":1,"program":12},{"pitch":72,"velocity":95,"startTime":3.2608699999999997,"endTime":3.3695656666666665,"instrument":1,"program":12},{"pitch":69,"velocity":95,"startTime":3.4239135,"endTime":3.5326091666666666,"instrument":1,"program":12},{"pitch":69,"velocity":95,"startTime":3.586957,"endTime":3.6956526666666663,"instrument":1,"program":12},{"pitch":72,"velocity":95,"startTime":3.7500004999999996,"endTime":3.8586961666666664,"instrument":1,"program":12},{"pitch":74,"velocity":95,"startTime":3.9130439999999997,"endTime":4.021739666666666,"instrument":1,"program":12},{"pitch":69,"velocity":95,"startTime":4.0760875,"endTime":4.184783166666667,"instrument":1,"program":12},{"pitch":69,"velocity":95,"startTime":4.2391309999999995,"endTime":4.347826666666666,"instrument":1,"program":12},{"pitch":74,"velocity":95,"startTime":4.4021745,"endTime":4.510870166666666,"instrument":1,"program":12},{"pitch":69,"velocity":95,"startTime":4.565218,"endTime":4.6739136666666665,"instrument":1,"program":12},{"pitch":74,"velocity":95,"startTime":4.7282614999999995,"endTime":4.836957166666666,"instrument":1,"program":12},{"pitch":69,"velocity":95,"startTime":4.891305,"endTime":5.000000666666666,"instrument":1,"program":12},{"pitch":72,"velocity":95,"startTime":5.217391999999999,"endTime":5.326087666666665,"instrument":1,"program":12},{"pitch":69,"velocity":95,"startTime":5.3804355,"endTime":5.489131166666666,"instrument":1,"program":12},{"pitch":74,"velocity":95,"startTime":5.543479,"endTime":5.652174666666666,"instrument":1,"program":12},{"pitch":69,"velocity":95,"startTime":5.706522499999999,"endTime":5.815218166666666,"instrument":1,"program":12},{"pitch":72,"velocity":95,"startTime":5.869566,"endTime":5.978261666666667,"instrument":1,"program":12},{"pitch":69,"velocity":95,"startTime":6.0326094999999995,"endTime":6.141305166666666,"instrument":1,"program":12},{"pitch":74,"velocity":95,"startTime":6.195652999999999,"endTime":6.304348666666666,"instrument":1,"program":12},{"pitch":74,"velocity":95,"startTime":6.3586965,"endTime":6.4673921666666665,"instrument":1,"program":12},{"pitch":69,"velocity":95,"startTime":6.521739999999999,"endTime":6.630435666666666,"instrument":1,"program":12},{"pitch":74,"velocity":95,"startTime":6.684783499999999,"endTime":6.793479166666666,"instrument":1,"program":12},{"pitch":74,"velocity":95,"startTime":6.847827,"endTime":6.956522666666666,"instrument":1,"program":12},{"pitch":69,"velocity":95,"startTime":7.010870499999999,"endTime":7.119566166666666,"instrument":1,"program":12},{"pitch":74,"velocity":95,"startTime":7.173914,"endTime":7.282609666666666,"instrument":1,"program":12},{"pitch":69,"velocity":95,"startTime":7.3369575,"endTime":7.445653166666666,"instrument":1,"program":12},{"pitch":67,"velocity":95,"startTime":7.500000999999999,"endTime":7.608696666666666,"instrument":1,"program":12},{"pitch":62,"velocity":95,"startTime":7.6630445,"endTime":7.771740166666666,"instrument":1,"program":12},{"pitch":74,"velocity":95,"startTime":7.8260879999999995,"endTime":7.934783666666666,"instrument":1,"program":12},{"pitch":67,"velocity":95,"startTime":7.989131499999999,"endTime":8.097827166666667,"instrument":1,"program":12},{"pitch":62,"velocity":95,"startTime":8.152175,"endTime":8.260870666666666,"instrument":1,"program":12},{"pitch":62,"velocity":95,"startTime":8.315218499999999,"endTime":8.423914166666666,"instrument":1,"program":12},{"pitch":67,"velocity":95,"startTime":8.478261999999999,"endTime":8.586957666666667,"instrument":1,"program":12},{"pitch":74,"velocity":95,"startTime":8.6413055,"endTime":8.750001166666665,"instrument":1,"program":12},{"pitch":67,"velocity":95,"startTime":8.804349,"endTime":8.913044666666666,"instrument":1,"program":12},{"pitch":74,"velocity":95,"startTime":8.967392499999999,"endTime":9.076088166666667,"instrument":1,"program":12},{"pitch":79,"velocity":95,"startTime":9.130436,"endTime":9.239131666666665,"instrument":1,"program":12},{"pitch":74,"velocity":95,"startTime":9.2934795,"endTime":9.402175166666666,"instrument":1,"program":12},{"pitch":67,"velocity":95,"startTime":9.456522999999999,"endTime":9.565218666666667,"instrument":1,"program":12},{"pitch":74,"velocity":95,"startTime":9.6195665,"endTime":9.728262166666665,"instrument":1,"program":12},{"pitch":74,"velocity":95,"startTime":9.78261,"endTime":9.891305666666666,"instrument":1,"program":12},{"pitch":74,"velocity":95,"startTime":9.945653499999999,"endTime":10.054349166666666,"instrument":1,"program":12},{"pitch":67,"velocity":95,"startTime":10.108697,"endTime":10.217392666666665,"instrument":1,"program":12},{"pitch":71,"velocity":95,"startTime":10.2717405,"endTime":10.380436166666666,"instrument":1,"program":12},{"pitch":60,"velocity":95,"startTime":10.434783999999999,"endTime":10.543479666666666,"instrument":1,"program":12},{"pitch":69,"velocity":95,"startTime":10.5978275,"endTime":10.706523166666667,"instrument":1,"program":12},{"pitch":69,"velocity":95,"startTime":10.760871,"endTime":10.869566666666667,"instrument":1,"program":12},{"pitch":74,"velocity":95,"startTime":10.923914499999999,"endTime":11.032610166666666,"instrument":1,"program":12},{"pitch":81,"velocity":95,"startTime":11.086958,"endTime":11.195653666666665,"instrument":1,"program":12},{"pitch":69,"velocity":95,"startTime":11.2500015,"endTime":11.304349333333333,"instrument":1,"program":12},{"pitch":69,"velocity":95,"startTime":11.413044999999999,"endTime":11.521740666666666,"instrument":1,"program":12},{"pitch":69,"velocity":95,"startTime":11.5760885,"endTime":11.684784166666665,"instrument":1,"program":12},{"pitch":64,"velocity":95,"startTime":11.739132,"endTime":11.847827666666666,"instrument":1,"program":12},{"pitch":69,"velocity":95,"startTime":11.902175499999998,"endTime":12.010871166666666,"instrument":1,"program":12},{"pitch":74,"velocity":95,"startTime":12.065218999999999,"endTime":12.173914666666665,"instrument":1,"program":12},{"pitch":69,"velocity":95,"startTime":12.2282625,"endTime":12.336958166666665,"instrument":1,"program":12},{"pitch":74,"velocity":95,"startTime":12.391305999999998,"endTime":12.500001666666666,"instrument":1,"program":12},{"pitch":69,"velocity":95,"startTime":12.554349499999999,"endTime":12.608697333333332,"instrument":1,"program":12},{"pitch":69,"velocity":95,"startTime":12.717393,"endTime":12.826088666666665,"instrument":1,"program":12},{"pitch":69,"velocity":95,"startTime":12.880436499999998,"endTime":12.989132166666666,"instrument":1,"program":12},{"pitch":62,"velocity":95,"startTime":13.043479999999999,"endTime":13.152175666666666,"instrument":1,"program":12},{"pitch":69,"velocity":95,"startTime":13.2065235,"endTime":13.315219166666665,"instrument":1,"program":12},{"pitch":74,"velocity":95,"startTime":13.369566999999998,"endTime":13.478262666666666,"instrument":1,"program":12},{"pitch":69,"velocity":95,"startTime":13.532610499999999,"endTime":13.641306166666666,"instrument":1,"program":12},{"pitch":74,"velocity":95,"startTime":13.695654,"endTime":13.804349666666665,"instrument":1,"program":12},{"pitch":69,"velocity":95,"startTime":13.858697499999998,"endTime":13.967393166666666,"instrument":1,"program":12},{"pitch":69,"velocity":95,"startTime":14.021740999999999,"endTime":14.130436666666666,"instrument":1,"program":12},{"pitch":74,"velocity":95,"startTime":14.1847845,"endTime":14.293480166666665,"instrument":1,"program":12},{"pitch":69,"velocity":95,"startTime":14.347828,"endTime":14.456523666666666,"instrument":1,"program":12},{"pitch":74,"velocity":95,"startTime":14.510871499999999,"endTime":14.619567166666666,"instrument":1,"program":12},{"pitch":72,"velocity":95,"startTime":14.673915,"endTime":14.782610666666665,"instrument":1,"program":12},{"pitch":69,"velocity":95,"startTime":14.8369585,"endTime":14.945654166666666,"instrument":1,"program":12},{"pitch":74,"velocity":95,"startTime":15.000001999999999,"endTime":15.108697666666666,"instrument":1,"program":12},{"pitch":69,"velocity":95,"startTime":15.163045499999999,"endTime":15.271741166666665,"instrument":1,"program":12},{"pitch":69,"velocity":95,"startTime":15.326089,"endTime":15.434784666666665,"instrument":1,"program":12},{"pitch":69,"velocity":95,"startTime":15.489132499999998,"endTime":15.597828166666666,"instrument":1,"program":12},{"pitch":62,"velocity":95,"startTime":15.652175999999999,"endTime":15.760871666666665,"instrument":1,"program":12},{"pitch":67,"velocity":95,"startTime":15.8152195,"endTime":15.923915166666665,"instrument":1,"program":12},{"pitch":74,"velocity":95,"startTime":15.978262999999998,"endTime":16.086958666666664,"instrument":1,"program":12},{"pitch":67,"velocity":95,"startTime":16.1413065,"endTime":16.250002166666665,"instrument":1,"program":12},{"pitch":74,"velocity":95,"startTime":16.30435,"endTime":16.413045666666665,"instrument":1,"program":12},{"pitch":67,"velocity":95,"startTime":16.4673935,"endTime":16.576089166666666,"instrument":1,"program":12},{"pitch":74,"velocity":95,"startTime":16.630436999999997,"endTime":16.739132666666666,"instrument":1,"program":12},{"pitch":67,"velocity":95,"startTime":16.793480499999998,"endTime":16.902176166666667,"instrument":1,"program":12},{"pitch":74,"velocity":95,"startTime":16.956523999999998,"endTime":17.065219666666664,"instrument":1,"program":12},{"pitch":67,"velocity":95,"startTime":17.1195675,"endTime":17.228263166666665,"instrument":1,"program":12},{"pitch":74,"velocity":95,"startTime":17.282611,"endTime":17.391306666666665,"instrument":1,"program":12},{"pitch":67,"velocity":95,"startTime":17.4456545,"endTime":17.554350166666666,"instrument":1,"program":12},{"pitch":74,"velocity":95,"startTime":17.608698,"endTime":17.717393666666666,"instrument":1,"program":12},{"pitch":67,"velocity":95,"startTime":17.771741499999997,"endTime":17.880437166666667,"instrument":1,"program":12},{"pitch":74,"velocity":95,"startTime":17.934784999999998,"endTime":18.043480666666664,"instrument":1,"program":12},{"pitch":67,"velocity":95,"startTime":18.0978285,"endTime":18.206524166666664,"instrument":1,"program":12},{"pitch":74,"velocity":95,"startTime":18.260872,"endTime":18.4239155,"instrument":1,"program":12},{"pitch":67,"velocity":95,"startTime":18.4239155,"endTime":18.532611166666666,"instrument":1,"program":12},{"pitch":74,"velocity":95,"startTime":18.586959,"endTime":18.695654666666666,"instrument":1,"program":12},{"pitch":74,"velocity":95,"startTime":18.750002499999997,"endTime":18.858698166666667,"instrument":1,"program":12},{"pitch":74,"velocity":95,"startTime":18.913045999999998,"endTime":18.967393833333333,"instrument":1,"program":12},{"pitch":67,"velocity":95,"startTime":19.0760895,"endTime":19.184785166666664,"instrument":1,"program":12},{"pitch":74,"velocity":95,"startTime":19.239133,"endTime":19.347828666666665,"instrument":1,"program":12},{"pitch":74,"velocity":95,"startTime":19.4021765,"endTime":19.510872166666665,"instrument":1,"program":12},{"pitch":74,"velocity":95,"startTime":19.56522,"endTime":19.673915666666666,"instrument":1,"program":12},{"pitch":67,"velocity":95,"startTime":19.728263499999997,"endTime":19.836959166666666,"instrument":1,"program":12},{"pitch":74,"velocity":95,"startTime":19.891306999999998,"endTime":20.000002666666663,"instrument":1,"program":12},{"pitch":74,"velocity":95,"startTime":20.054350499999998,"endTime":20.163046166666664,"instrument":1,"program":12},{"pitch":74,"velocity":95,"startTime":20.217394,"endTime":20.326089666666665,"instrument":1,"program":12},{"pitch":67,"velocity":95,"startTime":20.3804375,"endTime":20.489133166666665,"instrument":1,"program":12},{"pitch":74,"velocity":95,"startTime":20.543481,"endTime":20.652176666666666,"instrument":1,"program":12},{"pitch":74,"velocity":95,"startTime":20.706524499999997,"endTime":20.815220166666666,"instrument":1,"program":12},{"pitch":38,"velocity":110,"endTime":0.32608699999999996,"instrument":2,"program":32},{"pitch":42,"velocity":110,"startTime":0.48913049999999997,"endTime":0.6521739999999999,"instrument":2,"program":32},{"pitch":45,"velocity":110,"startTime":0.8152174999999999,"endTime":0.9782609999999999,"instrument":2,"program":32},{"pitch":38,"velocity":110,"startTime":0.9782609999999999,"endTime":1.1413045,"instrument":2,"program":32},{"pitch":38,"velocity":110,"startTime":1.3043479999999998,"endTime":1.4673915,"instrument":2,"program":32},{"pitch":50,"velocity":110,"startTime":1.6304349999999999,"endTime":1.7934785,"instrument":2,"program":32},{"pitch":48,"velocity":110,"startTime":1.9565219999999999,"endTime":2.1195654999999998,"instrument":2,"program":32},{"pitch":42,"velocity":110,"startTime":2.282609,"endTime":2.4456525,"instrument":2,"program":32},{"pitch":38,"velocity":110,"startTime":2.6086959999999997,"endTime":2.934783,"instrument":2,"program":32},{"pitch":50,"velocity":110,"startTime":3.0978264999999996,"endTime":3.2608699999999997,"instrument":2,"program":32},{"pitch":50,"velocity":110,"startTime":3.4239135,"endTime":3.586957,"instrument":2,"program":32},{"pitch":38,"velocity":110,"startTime":3.586957,"endTime":3.7500004999999996,"instrument":2,"program":32},{"pitch":45,"velocity":110,"startTime":3.9130439999999997,"endTime":4.2391309999999995,"instrument":2,"program":32},{"pitch":45,"velocity":110,"startTime":4.4021745,"endTime":4.565218,"instrument":2,"program":32},{"pitch":50,"velocity":110,"startTime":4.7282614999999995,"endTime":4.891305,"instrument":2,"program":32},{"pitch":38,"velocity":110,"startTime":4.891305,"endTime":5.0543485,"instrument":2,"program":32},{"pitch":43,"velocity":110,"startTime":5.217391999999999,"endTime":5.434783333333334,"instrument":2,"program":32},{"pitch":43,"velocity":110,"startTime":5.706522499999999,"endTime":5.869566,"instrument":2,"program":32},{"pitch":38,"velocity":110,"startTime":6.0326094999999995,"endTime":6.195652999999999,"instrument":2,"program":32},{"pitch":43,"velocity":110,"startTime":6.195652999999999,"endTime":6.3586965,"instrument":2,"program":32},{"pitch":43,"velocity":110,"startTime":6.521739999999999,"endTime":6.739131333333333,"instrument":2,"program":32},{"pitch":43,"velocity":110,"startTime":6.847827,"endTime":7.010870499999999,"instrument":2,"program":32},{"pitch":43,"velocity":110,"startTime":7.173914,"endTime":7.3369575,"instrument":2,"program":32},{"pitch":46,"velocity":110,"startTime":7.500000999999999,"endTime":7.6630445,"instrument":2,"program":32},{"pitch":55,"velocity":110,"startTime":7.8260879999999995,"endTime":8.152175,"instrument":2,"program":32},{"pitch":48,"velocity":110,"startTime":8.315218499999999,"endTime":8.478261999999999,"instrument":2,"program":32},{"pitch":48,"velocity":110,"startTime":8.6413055,"endTime":8.804349,"instrument":2,"program":32},{"pitch":38,"velocity":110,"startTime":8.804349,"endTime":8.967392499999999,"instrument":2,"program":32},{"pitch":34,"velocity":110,"startTime":9.130436,"endTime":9.2934795,"instrument":2,"program":32},{"pitch":38,"velocity":110,"startTime":9.6195665,"endTime":9.78261,"instrument":2,"program":32},{"pitch":38,"velocity":110,"startTime":9.945653499999999,"endTime":10.108697,"instrument":2,"program":32},{"pitch":34,"velocity":110,"startTime":10.108697,"endTime":10.2717405,"instrument":2,"program":32},{"pitch":38,"velocity":110,"startTime":10.434783999999999,"endTime":10.760871,"instrument":2,"program":32},{"pitch":38,"velocity":110,"startTime":10.923914499999999,"endTime":11.086958,"instrument":2,"program":32},{"pitch":38,"velocity":110,"startTime":11.2500015,"endTime":11.413044999999999,"instrument":2,"program":32},{"pitch":45,"velocity":110,"startTime":11.413044999999999,"endTime":11.5760885,"instrument":2,"program":32},{"pitch":45,"velocity":110,"startTime":11.739132,"endTime":11.956523333333333,"instrument":2,"program":32},{"pitch":42,"velocity":110,"startTime":12.2282625,"endTime":12.391305999999998,"instrument":2,"program":32},{"pitch":45,"velocity":110,"startTime":12.554349499999999,"endTime":12.717393,"instrument":2,"program":32},{"pitch":38,"velocity":110,"startTime":12.717393,"endTime":12.880436499999998,"instrument":2,"program":32},{"pitch":38,"velocity":110,"startTime":13.043479999999999,"endTime":13.260871333333332,"instrument":2,"program":32},{"pitch":33,"velocity":110,"startTime":13.369566999999998,"endTime":13.532610499999999,"instrument":2,"program":32},{"pitch":38,"velocity":110,"startTime":13.695654,"endTime":14.021740999999999,"instrument":2,"program":32},{"pitch":33,"velocity":110,"startTime":14.1847845,"endTime":14.347828,"instrument":2,"program":32},{"pitch":38,"velocity":110,"startTime":14.510871499999999,"endTime":14.673915,"instrument":2,"program":32},{"pitch":33,"velocity":110,"startTime":14.673915,"endTime":14.8369585,"instrument":2,"program":32},{"pitch":42,"velocity":110,"startTime":15.000001999999999,"endTime":15.217393333333332,"instrument":2,"program":32},{"pitch":38,"velocity":110,"startTime":15.326089,"endTime":15.489132499999998,"instrument":2,"program":32},{"pitch":43,"velocity":110,"startTime":15.652175999999999,"endTime":15.869567333333332,"instrument":2,"program":32},{"pitch":43,"velocity":110,"startTime":16.1413065,"endTime":16.30435,"instrument":2,"program":32},{"pitch":43,"velocity":110,"startTime":16.4673935,"endTime":16.630436999999997,"instrument":2,"program":32},{"pitch":31,"velocity":110,"startTime":16.630436999999997,"endTime":16.793480499999998,"instrument":2,"program":32},{"pitch":43,"velocity":110,"startTime":16.956523999999998,"endTime":17.173915333333333,"instrument":2,"program":32},{"pitch":38,"velocity":110,"startTime":17.282611,"endTime":17.4456545,"instrument":2,"program":32},{"pitch":43,"velocity":110,"startTime":17.608698,"endTime":17.771741499999997,"instrument":2,"program":32},{"pitch":38,"velocity":110,"startTime":17.934784999999998,"endTime":18.0978285,"instrument":2,"program":32},{"pitch":31,"velocity":110,"startTime":18.260872,"endTime":18.586959,"instrument":2,"program":32},{"pitch":31,"velocity":110,"startTime":18.750002499999997,"endTime":18.913045999999998,"instrument":2,"program":32},{"pitch":31,"velocity":110,"startTime":19.0760895,"endTime":19.239133,"instrument":2,"program":32},{"pitch":38,"velocity":110,"startTime":19.239133,"endTime":19.4021765,"instrument":2,"program":32},{"pitch":31,"velocity":110,"startTime":19.56522,"endTime":19.78261133333333,"instrument":2,"program":32},{"pitch":43,"velocity":110,"startTime":20.054350499999998,"endTime":20.217394,"instrument":2,"program":32},{"pitch":31,"velocity":110,"startTime":20.3804375,"endTime":20.543481,"instrument":2,"program":32},{"pitch":38,"velocity":110,"startTime":20.543481,"endTime":20.706524499999997,"instrument":2,"program":32},{"pitch":62,"velocity":105,"endTime":0.9782609999999999,"instrument":3,"program":50},{"pitch":66,"velocity":105,"endTime":2.4456525,"instrument":3,"program":50},{"pitch":72,"velocity":105,"endTime":2.4456525,"instrument":3,"program":50},{"pitch":78,"velocity":105,"endTime":2.500000333333333,"instrument":3,"program":50},{"pitch":60,"velocity":105,"startTime":0.9782609999999999,"endTime":2.4456525,"instrument":3,"program":50},{"pitch":60,"velocity":105,"startTime":2.500000333333333,"endTime":3.9130439999999997,"instrument":3,"program":50},{"pitch":62,"velocity":105,"startTime":2.500000333333333,"endTime":3.2608699999999997,"instrument":3,"program":50},{"pitch":66,"velocity":105,"startTime":2.500000333333333,"endTime":3.9130439999999997,"instrument":3,"program":50},{"pitch":69,"velocity":105,"startTime":2.500000333333333,"endTime":3.9130439999999997,"instrument":3,"program":50},{"pitch":57,"velocity":105,"startTime":3.2608699999999997,"endTime":3.7500004999999996,"instrument":3,"program":50},{"pitch":62,"velocity":105,"startTime":3.586957,"endTime":3.8586961666666664,"instrument":3,"program":50},{"pitch":57,"velocity":105,"startTime":3.7500004999999996,"endTime":5.217391999999999,"instrument":3,"program":50},{"pitch":62,"velocity":105,"startTime":3.9130439999999997,"endTime":5.217391999999999,"instrument":3,"program":50},{"pitch":66,"velocity":105,"startTime":3.9130439999999997,"endTime":5.217391999999999,"instrument":3,"program":50},{"pitch":58,"velocity":105,"startTime":5.217391999999999,"endTime":7.8260879999999995,"instrument":3,"program":50},{"pitch":62,"velocity":105,"startTime":5.217391999999999,"endTime":7.8260879999999995,"instrument":3,"program":50},{"pitch":64,"velocity":105,"startTime":5.217391999999999,"endTime":7.8260879999999995,"instrument":3,"program":50},{"pitch":67,"velocity":105,"startTime":5.217391999999999,"endTime":7.8260879999999995,"instrument":3,"program":50},{"pitch":62,"velocity":105,"startTime":7.8260879999999995,"endTime":8.315218499999999,"instrument":3,"program":50},{"pitch":65,"velocity":105,"startTime":7.8260879999999995,"endTime":8.315218499999999,"instrument":3,"program":50},{"pitch":67,"velocity":105,"startTime":7.8260879999999995,"endTime":8.315218499999999,"instrument":3,"program":50},{"pitch":70,"velocity":105,"startTime":7.8260879999999995,"endTime":8.532609833333332,"instrument":3,"program":50},{"pitch":62,"velocity":105,"startTime":8.315218499999999,"endTime":8.478261999999999,"instrument":3,"program":50},{"pitch":67,"velocity":105,"startTime":8.315218499999999,"endTime":8.532609833333332,"instrument":3,"program":50},{"pitch":62,"velocity":105,"startTime":8.478261999999999,"endTime":8.6413055,"instrument":3,"program":50},{"pitch":65,"velocity":105,"startTime":8.532609833333332,"endTime":8.858696833333333,"instrument":3,"program":50},{"pitch":67,"velocity":105,"startTime":8.532609833333332,"endTime":8.858696833333333,"instrument":3,"program":50},{"pitch":62,"velocity":105,"startTime":8.6413055,"endTime":9.184783833333332,"instrument":3,"program":50},{"pitch":67,"velocity":105,"startTime":8.967392499999999,"endTime":9.184783833333332,"instrument":3,"program":50},{"pitch":70,"velocity":105,"startTime":9.130436,"endTime":9.565218666666667,"instrument":3,"program":50},{"pitch":62,"velocity":105,"startTime":9.456522999999999,"endTime":9.6195665,"instrument":3,"program":50},{"pitch":65,"velocity":105,"startTime":9.456522999999999,"endTime":9.510870833333332,"instrument":3,"program":50},{"pitch":67,"velocity":105,"startTime":9.456522999999999,"endTime":9.510870833333332,"instrument":3,"program":50},{"pitch":55,"velocity":105,"startTime":9.6195665,"endTime":10.108697,"instrument":3,"program":50},{"pitch":62,"velocity":105,"startTime":9.6195665,"endTime":10.108697,"instrument":3,"program":50},{"pitch":55,"velocity":105,"startTime":10.108697,"endTime":10.380436166666666,"instrument":3,"program":50},{"pitch":62,"velocity":105,"startTime":10.108697,"endTime":10.380436166666666,"instrument":3,"program":50},{"pitch":60,"velocity":105,"startTime":10.434783999999999,"endTime":12.989132166666666,"instrument":3,"program":50},{"pitch":66,"velocity":105,"startTime":10.434783999999999,"endTime":11.467392833333333,"instrument":3,"program":50},{"pitch":69,"velocity":105,"startTime":10.434783999999999,"endTime":11.086958,"instrument":3,"program":50},{"pitch":72,"velocity":105,"startTime":10.923914499999999,"endTime":11.086958,"instrument":3,"program":50},{"pitch":60,"velocity":105,"startTime":11.086958,"endTime":12.989132166666666,"instrument":3,"program":50},{"pitch":78,"velocity":105,"startTime":11.086958,"endTime":11.467392833333333,"instrument":3,"program":50},{"pitch":76,"velocity":105,"startTime":11.467392833333333,"endTime":11.5760885,"instrument":3,"program":50},{"pitch":66,"velocity":105,"startTime":11.5760885,"endTime":12.173914666666665,"instrument":3,"program":50},{"pitch":90,"velocity":105,"startTime":11.5760885,"endTime":12.989132166666666,"instrument":3,"program":50},{"pitch":72,"velocity":105,"startTime":12.2282625,"endTime":12.989132166666666,"instrument":3,"program":50},{"pitch":81,"velocity":105,"startTime":12.336958166666665,"endTime":12.717393,"instrument":3,"program":50},{"pitch":81,"velocity":105,"startTime":12.880436499999998,"endTime":12.989132166666666,"instrument":3,"program":50},{"pitch":60,"velocity":105,"startTime":13.043479999999999,"endTime":14.347828,"instrument":3,"program":50},{"pitch":62,"velocity":105,"startTime":13.043479999999999,"endTime":14.1847845,"instrument":3,"program":50},{"pitch":66,"velocity":105,"startTime":13.043479999999999,"endTime":14.1847845,"instrument":3,"program":50},{"pitch":74,"velocity":105,"startTime":13.043479999999999,"endTime":14.347828,"instrument":3,"program":50},{"pitch":62,"velocity":105,"startTime":14.1847845,"endTime":14.293480166666665,"instrument":3,"program":50},{"pitch":60,"velocity":105,"startTime":14.347828,"endTime":14.510871499999999,"instrument":3,"program":50},{"pitch":62,"velocity":105,"startTime":14.347828,"endTime":14.510871499999999,"instrument":3,"program":50},{"pitch":66,"velocity":105,"startTime":14.347828,"endTime":14.510871499999999,"instrument":3,"program":50},{"pitch":69,"velocity":105,"startTime":14.347828,"endTime":14.510871499999999,"instrument":3,"program":50},{"pitch":60,"velocity":105,"startTime":14.510871499999999,"endTime":14.8369585,"instrument":3,"program":50},{"pitch":62,"velocity":105,"startTime":14.510871499999999,"endTime":14.891306333333333,"instrument":3,"program":50},{"pitch":66,"velocity":105,"startTime":14.510871499999999,"endTime":14.945654166666666,"instrument":3,"program":50},{"pitch":54,"velocity":105,"startTime":14.728262833333332,"endTime":14.891306333333333,"instrument":3,"program":50},{"pitch":60,"velocity":105,"startTime":15.000001999999999,"endTime":15.380436833333333,"instrument":3,"program":50},{"pitch":62,"velocity":105,"startTime":15.000001999999999,"endTime":15.271741166666665,"instrument":3,"program":50},{"pitch":66,"velocity":105,"startTime":15.000001999999999,"endTime":15.380436833333333,"instrument":3,"program":50},{"pitch":58,"velocity":105,"startTime":15.652175999999999,"endTime":18.043480666666664,"instrument":3,"program":50},{"pitch":62,"velocity":105,"startTime":15.652175999999999,"endTime":18.043480666666664,"instrument":3,"program":50},{"pitch":65,"velocity":105,"startTime":15.652175999999999,"endTime":18.043480666666664,"instrument":3,"program":50},{"pitch":67,"velocity":105,"startTime":15.652175999999999,"endTime":18.043480666666664,"instrument":3,"program":50},{"pitch":58,"velocity":105,"startTime":18.0978285,"endTime":20.815220166666666,"instrument":3,"program":50},{"pitch":62,"velocity":105,"startTime":18.0978285,"endTime":20.815220166666666,"instrument":3,"program":50},{"pitch":65,"velocity":105,"startTime":18.0978285,"endTime":20.815220166666666,"instrument":3,"program":50},{"pitch":67,"velocity":105,"startTime":18.0978285,"endTime":20.815220166666666,"instrument":3,"program":50},{"pitch":35,"velocity":102,"startTime":20.869567999999997,"endTime":21.032611499999998,"isDrum":true},{"pitch":42,"velocity":102,"startTime":20.869567999999997,"endTime":21.032611499999998,"isDrum":true},{"pitch":51,"velocity":102,"startTime":20.869567999999997,"endTime":21.032611499999998,"isDrum":true},{"pitch":42,"velocity":102,"startTime":21.195655,"endTime":21.3586985,"isDrum":true},{"pitch":40,"velocity":102,"startTime":21.521742,"endTime":21.684785499999997,"isDrum":true},{"pitch":42,"velocity":102,"startTime":21.521742,"endTime":21.684785499999997,"isDrum":true},{"pitch":42,"velocity":102,"startTime":21.847828999999997,"endTime":22.010872499999998,"isDrum":true},{"pitch":35,"velocity":102,"startTime":22.010872499999998,"endTime":22.173916,"isDrum":true},{"pitch":40,"velocity":102,"startTime":22.173916,"endTime":22.3369595,"isDrum":true},{"pitch":42,"velocity":102,"startTime":22.173916,"endTime":22.3369595,"isDrum":true},{"pitch":51,"velocity":102,"startTime":22.3369595,"endTime":22.500003,"isDrum":true},{"pitch":35,"velocity":102,"startTime":22.500003,"endTime":22.663046499999997,"isDrum":true},{"pitch":42,"velocity":102,"startTime":22.500003,"endTime":22.663046499999997,"isDrum":true},{"pitch":40,"velocity":102,"startTime":22.826089999999997,"endTime":22.989133499999998,"isDrum":true},{"pitch":42,"velocity":102,"startTime":22.826089999999997,"endTime":22.989133499999998,"isDrum":true},{"pitch":42,"velocity":102,"startTime":23.152177,"endTime":23.3152205,"isDrum":true},{"pitch":35,"velocity":102,"startTime":23.478264,"endTime":23.6413075,"isDrum":true},{"pitch":42,"velocity":102,"startTime":23.478264,"endTime":23.6413075,"isDrum":true},{"pitch":42,"velocity":102,"startTime":23.804350999999997,"endTime":23.967394499999997,"isDrum":true},{"pitch":40,"velocity":102,"startTime":24.130437999999998,"endTime":24.2934815,"isDrum":true},{"pitch":42,"velocity":102,"startTime":24.130437999999998,"endTime":24.2934815,"isDrum":true},{"pitch":42,"velocity":102,"startTime":24.456525,"endTime":24.6195685,"isDrum":true},{"pitch":35,"velocity":102,"startTime":24.782611999999997,"endTime":24.945655499999997,"isDrum":true},{"pitch":42,"velocity":102,"startTime":24.782611999999997,"endTime":24.945655499999997,"isDrum":true},{"pitch":35,"velocity":102,"startTime":25.108698999999998,"endTime":25.2717425,"isDrum":true},{"pitch":42,"velocity":102,"startTime":25.108698999999998,"endTime":25.2717425,"isDrum":true},{"pitch":40,"velocity":102,"startTime":25.434786,"endTime":25.5978295,"isDrum":true},{"pitch":42,"velocity":102,"startTime":25.434786,"endTime":25.5978295,"isDrum":true},{"pitch":35,"velocity":102,"startTime":25.760872999999997,"endTime":25.923916499999997,"isDrum":true},{"pitch":42,"velocity":102,"startTime":25.760872999999997,"endTime":25.923916499999997,"isDrum":true},{"pitch":35,"velocity":102,"startTime":26.086959999999998,"endTime":26.2500035,"isDrum":true},{"pitch":42,"velocity":102,"startTime":26.086959999999998,"endTime":26.2500035,"isDrum":true},{"pitch":42,"velocity":102,"startTime":26.413047,"endTime":26.5760905,"isDrum":true},{"pitch":40,"velocity":102,"startTime":26.739133999999996,"endTime":26.902177499999997,"isDrum":true},{"pitch":42,"velocity":102,"startTime":26.739133999999996,"endTime":26.902177499999997,"isDrum":true},{"pitch":42,"velocity":102,"startTime":27.065220999999998,"endTime":27.228264499999998,"isDrum":true},{"pitch":35,"velocity":102,"startTime":27.391308,"endTime":27.5543515,"isDrum":true},{"pitch":42,"velocity":102,"startTime":27.391308,"endTime":27.5543515,"isDrum":true},{"pitch":35,"velocity":102,"startTime":27.717394999999996,"endTime":27.880438499999997,"isDrum":true},{"pitch":42,"velocity":102,"startTime":27.717394999999996,"endTime":27.880438499999997,"isDrum":true},{"pitch":40,"velocity":102,"startTime":28.043481999999997,"endTime":28.206525499999998,"isDrum":true},{"pitch":42,"velocity":102,"startTime":28.043481999999997,"endTime":28.206525499999998,"isDrum":true},{"pitch":42,"velocity":102,"startTime":28.369569,"endTime":28.5326125,"isDrum":true},{"pitch":35,"velocity":102,"startTime":28.695656,"endTime":28.858699499999997,"isDrum":true},{"pitch":42,"velocity":102,"startTime":28.695656,"endTime":28.858699499999997,"isDrum":true},{"pitch":42,"velocity":102,"startTime":29.021742999999997,"endTime":29.184786499999998,"isDrum":true},{"pitch":40,"velocity":102,"startTime":29.34783,"endTime":29.5108735,"isDrum":true},{"pitch":42,"velocity":102,"startTime":29.34783,"endTime":29.5108735,"isDrum":true},{"pitch":42,"velocity":102,"startTime":29.673917,"endTime":29.836960499999996,"isDrum":true},{"pitch":35,"velocity":102,"startTime":29.836960499999996,"endTime":30.000003999999997,"isDrum":true},{"pitch":35,"velocity":102,"startTime":30.000003999999997,"endTime":30.163047499999998,"isDrum":true},{"pitch":42,"velocity":102,"startTime":30.000003999999997,"endTime":30.163047499999998,"isDrum":true},{"pitch":42,"velocity":102,"startTime":30.163047499999998,"endTime":30.326090999999998,"isDrum":true},{"pitch":40,"velocity":102,"startTime":30.326090999999998,"endTime":30.4891345,"isDrum":true},{"pitch":35,"velocity":102,"startTime":30.4891345,"endTime":30.652178,"isDrum":true},{"pitch":40,"velocity":102,"startTime":30.652178,"endTime":30.815221499999996,"isDrum":true},{"pitch":42,"velocity":102,"startTime":30.652178,"endTime":30.815221499999996,"isDrum":true},{"pitch":35,"velocity":102,"startTime":30.978264999999997,"endTime":31.141308499999997,"isDrum":true},{"pitch":42,"velocity":102,"startTime":30.978264999999997,"endTime":31.141308499999997,"isDrum":true},{"pitch":35,"velocity":102,"startTime":31.304351999999998,"endTime":31.4673955,"isDrum":true},{"pitch":42,"velocity":102,"startTime":31.304351999999998,"endTime":31.4673955,"isDrum":true},{"pitch":42,"velocity":102,"startTime":31.630439,"endTime":31.793482499999996,"isDrum":true},{"pitch":40,"velocity":102,"startTime":31.956525999999997,"endTime":32.1195695,"isDrum":true},{"pitch":42,"velocity":102,"startTime":31.956525999999997,"endTime":32.1195695,"isDrum":true},{"pitch":42,"velocity":102,"startTime":32.282613,"endTime":32.4456565,"isDrum":true},{"pitch":35,"velocity":102,"startTime":32.6087,"endTime":32.7717435,"isDrum":true},{"pitch":42,"velocity":102,"startTime":32.6087,"endTime":32.7717435,"isDrum":true},{"pitch":42,"velocity":102,"startTime":32.934787,"endTime":33.0978305,"isDrum":true},{"pitch":40,"velocity":102,"startTime":33.260873999999994,"endTime":33.423917499999995,"isDrum":true},{"pitch":42,"velocity":102,"startTime":33.260873999999994,"endTime":33.423917499999995,"isDrum":true},{"pitch":42,"velocity":102,"startTime":33.586960999999995,"endTime":33.750004499999996,"isDrum":true},{"pitch":35,"velocity":102,"startTime":33.913047999999996,"endTime":34.0760915,"isDrum":true},{"pitch":42,"velocity":102,"startTime":33.913047999999996,"endTime":34.0760915,"isDrum":true},{"pitch":42,"velocity":102,"startTime":34.239135,"endTime":34.4021785,"isDrum":true},{"pitch":40,"velocity":102,"startTime":34.565222,"endTime":34.7282655,"isDrum":true},{"pitch":42,"velocity":102,"startTime":34.565222,"endTime":34.7282655,"isDrum":true},{"pitch":42,"velocity":102,"startTime":34.891309,"endTime":35.0543525,"isDrum":true},{"pitch":35,"velocity":102,"startTime":35.217396,"endTime":35.380439499999994,"isDrum":true},{"pitch":42,"velocity":102,"startTime":35.217396,"endTime":35.380439499999994,"isDrum":true},{"pitch":42,"velocity":102,"startTime":35.543482999999995,"endTime":35.706526499999995,"isDrum":true},{"pitch":40,"velocity":102,"startTime":35.869569999999996,"endTime":36.0326135,"isDrum":true},{"pitch":42,"velocity":102,"startTime":35.869569999999996,"endTime":36.0326135,"isDrum":true},{"pitch":42,"velocity":102,"startTime":36.195657,"endTime":36.3587005,"isDrum":true},{"pitch":35,"velocity":102,"startTime":36.521744,"endTime":36.6847875,"isDrum":true},{"pitch":42,"velocity":102,"startTime":36.521744,"endTime":36.6847875,"isDrum":true},{"pitch":42,"velocity":102,"startTime":36.847831,"endTime":37.0108745,"isDrum":true},{"pitch":40,"velocity":102,"startTime":37.173918,"endTime":37.336961499999994,"isDrum":true},{"pitch":42,"velocity":102,"startTime":37.173918,"endTime":37.336961499999994,"isDrum":true},{"pitch":42,"velocity":102,"startTime":37.500004999999994,"endTime":37.663048499999995,"isDrum":true},{"pitch":35,"velocity":102,"startTime":37.663048499999995,"endTime":37.826091999999996,"isDrum":true},{"pitch":35,"velocity":102,"startTime":37.826091999999996,"endTime":37.989135499999996,"isDrum":true},{"pitch":42,"velocity":102,"startTime":37.826091999999996,"endTime":37.989135499999996,"isDrum":true},{"pitch":42,"velocity":102,"startTime":38.152179,"endTime":38.3152225,"isDrum":true},{"pitch":40,"velocity":102,"startTime":38.478266,"endTime":38.6413095,"isDrum":true},{"pitch":42,"velocity":102,"startTime":38.478266,"endTime":38.6413095,"isDrum":true},{"pitch":42,"velocity":102,"startTime":38.804353,"endTime":38.9673965,"isDrum":true},{"pitch":35,"velocity":102,"startTime":39.13044,"endTime":39.293483499999994,"isDrum":true},{"pitch":42,"velocity":102,"startTime":39.13044,"endTime":39.293483499999994,"isDrum":true},{"pitch":42,"velocity":102,"startTime":39.456526999999994,"endTime":39.619570499999995,"isDrum":true},{"pitch":40,"velocity":102,"startTime":39.782613999999995,"endTime":39.945657499999996,"isDrum":true},{"pitch":42,"velocity":102,"startTime":39.782613999999995,"endTime":39.945657499999996,"isDrum":true},{"pitch":42,"velocity":102,"startTime":40.108700999999996,"endTime":40.2717445,"isDrum":true},{"pitch":35,"velocity":102,"startTime":40.2717445,"endTime":40.434788,"isDrum":true},{"pitch":35,"velocity":102,"startTime":40.434788,"endTime":40.5978315,"isDrum":true},{"pitch":42,"velocity":102,"startTime":40.434788,"endTime":40.5978315,"isDrum":true},{"pitch":42,"velocity":102,"startTime":40.760875,"endTime":40.9239185,"isDrum":true},{"pitch":40,"velocity":102,"startTime":41.086962,"endTime":41.2500055,"isDrum":true},{"pitch":42,"velocity":102,"startTime":41.086962,"endTime":41.2500055,"isDrum":true},{"pitch":42,"velocity":102,"startTime":41.413048999999994,"endTime":41.576092499999994,"isDrum":true},{"pitch":63,"velocity":95,"startTime":20.869567999999997,"endTime":20.978263666666663,"instrument":1,"program":12},{"pitch":67,"velocity":95,"startTime":21.032611499999998,"endTime":21.141307166666664,"instrument":1,"program":12},{"pitch":72,"velocity":95,"startTime":21.195655,"endTime":21.30435066666666,"instrument":1,"program":12},{"pitch":63,"velocity":95,"startTime":21.3586985,"endTime":21.46739416666666,"instrument":1,"program":12},{"pitch":67,"velocity":95,"startTime":21.521742,"endTime":21.630437666666662,"instrument":1,"program":12},{"pitch":72,"velocity":95,"startTime":21.684785499999997,"endTime":21.793481166666663,"instrument":1,"program":12},{"pitch":72,"velocity":95,"startTime":21.847828999999997,"endTime":21.956524666666663,"instrument":1,"program":12},{"pitch":67,"velocity":95,"startTime":22.010872499999998,"endTime":22.119568166666664,"instrument":1,"program":12},{"pitch":72,"velocity":95,"startTime":22.173916,"endTime":22.282611666666664,"instrument":1,"program":12},{"pitch":75,"velocity":95,"startTime":22.3369595,"endTime":22.445655166666665,"instrument":1,"program":12},{"pitch":72,"velocity":95,"startTime":22.500003,"endTime":22.608698666666665,"instrument":1,"program":12},{"pitch":63,"velocity":95,"startTime":22.663046499999997,"endTime":22.771742166666666,"instrument":1,"program":12},{"pitch":67,"velocity":95,"startTime":22.826089999999997,"endTime":22.934785666666667,"instrument":1,"program":12},{"pitch":72,"velocity":95,"startTime":22.989133499999998,"endTime":23.097829166666664,"instrument":1,"program":12},{"pitch":67,"velocity":95,"startTime":23.152177,"endTime":23.260872666666664,"instrument":1,"program":12},{"pitch":72,"velocity":95,"startTime":23.3152205,"endTime":23.423916166666665,"instrument":1,"program":12},{"pitch":63,"velocity":95,"startTime":23.478264,"endTime":23.6413075,"instrument":1,"program":12},{"pitch":67,"velocity":95,"startTime":23.6413075,"endTime":23.750003166666666,"instrument":1,"program":12},{"pitch":70,"velocity":95,"startTime":23.804350999999997,"endTime":23.913046666666666,"instrument":1,"program":12},{"pitch":72,"velocity":95,"startTime":23.967394499999997,"endTime":24.076090166666663,"instrument":1,"program":12},{"pitch":63,"velocity":95,"startTime":24.130437999999998,"endTime":24.239133666666664,"instrument":1,"program":12},{"pitch":72,"velocity":95,"startTime":24.2934815,"endTime":24.402177166666664,"instrument":1,"program":12},{"pitch":67,"velocity":95,"startTime":24.456525,"endTime":24.565220666666665,"instrument":1,"program":12},{"pitch":70,"velocity":95,"startTime":24.6195685,"endTime":24.728264166666666,"instrument":1,"program":12},{"pitch":63,"velocity":95,"startTime":24.782611999999997,"endTime":24.891307666666666,"instrument":1,"program":12},{"pitch":67,"velocity":95,"startTime":24.945655499999997,"endTime":25.054351166666663,"instrument":1,"program":12},{"pitch":72,"velocity":95,"startTime":25.108698999999998,"endTime":25.217394666666664,"instrument":1,"program":12},{"pitch":75,"velocity":95,"startTime":25.2717425,"endTime":25.380438166666664,"instrument":1,"program":12},{"pitch":72,"velocity":95,"startTime":25.434786,"endTime":25.543481666666665,"instrument":1,"program":12},{"pitch":67,"velocity":95,"startTime":25.5978295,"endTime":25.706525166666665,"instrument":1,"program":12},{"pitch":63,"velocity":95,"startTime":25.760872999999997,"endTime":25.869568666666666,"instrument":1,"program":12},{"pitch":70,"velocity":95,"startTime":25.923916499999997,"endTime":26.032612166666663,"instrument":1,"program":12},{"pitch":62,"velocity":95,"startTime":26.086959999999998,"endTime":26.195655666666664,"instrument":1,"program":12},{"pitch":67,"velocity":95,"startTime":26.2500035,"endTime":26.358699166666664,"instrument":1,"program":12},{"pitch":70,"velocity":95,"startTime":26.413047,"endTime":26.521742666666665,"instrument":1,"program":12},{"pitch":62,"velocity":95,"startTime":26.5760905,"endTime":26.684786166666665,"instrument":1,"program":12},{"pitch":67,"velocity":95,"startTime":26.739133999999996,"endTime":26.847829666666666,"instrument":1,"program":12},{"pitch":70,"velocity":95,"startTime":26.902177499999997,"endTime":27.010873166666666,"instrument":1,"program":12},{"pitch":74,"velocity":95,"startTime":27.065220999999998,"endTime":27.173916666666663,"instrument":1,"program":12},{"pitch":67,"velocity":95,"startTime":27.228264499999998,"endTime":27.336960166666664,"instrument":1,"program":12},{"pitch":70,"velocity":95,"startTime":27.391308,"endTime":27.500003666666665,"instrument":1,"program":12},{"pitch":67,"velocity":95,"startTime":27.5543515,"endTime":27.663047166666665,"instrument":1,"program":12},{"pitch":70,"velocity":95,"startTime":27.717394999999996,"endTime":27.826090666666666,"instrument":1,"program":12},{"pitch":74,"velocity":95,"startTime":27.880438499999997,"endTime":27.989134166666666,"instrument":1,"program":12},{"pitch":70,"velocity":95,"startTime":28.043481999999997,"endTime":28.152177666666663,"instrument":1,"program":12},{"pitch":67,"velocity":95,"startTime":28.206525499999998,"endTime":28.315221166666664,"instrument":1,"program":12},{"pitch":70,"velocity":95,"startTime":28.369569,"endTime":28.478264666666664,"instrument":1,"program":12},{"pitch":62,"velocity":95,"startTime":28.5326125,"endTime":28.641308166666665,"instrument":1,"program":12},{"pitch":70,"velocity":95,"startTime":28.695656,"endTime":28.804351666666665,"instrument":1,"program":12},{"pitch":74,"velocity":95,"startTime":28.858699499999997,"endTime":28.967395166666666,"instrument":1,"program":12},{"pitch":70,"velocity":95,"startTime":29.021742999999997,"endTime":29.130438666666663,"instrument":1,"program":12},{"pitch":67,"velocity":95,"startTime":29.184786499999998,"endTime":29.293482166666664,"instrument":1,"program":12},{"pitch":70,"velocity":95,"startTime":29.34783,"endTime":29.456525666666664,"instrument":1,"program":12},{"pitch":67,"velocity":95,"startTime":29.5108735,"endTime":29.619569166666665,"instrument":1,"program":12},{"pitch":62,"velocity":95,"startTime":29.673917,"endTime":29.782612666666665,"instrument":1,"program":12},{"pitch":67,"velocity":95,"startTime":29.836960499999996,"endTime":29.945656166666666,"instrument":1,"program":12},{"pitch":70,"velocity":95,"startTime":30.000003999999997,"endTime":30.108699666666663,"instrument":1,"program":12},{"pitch":67,"velocity":95,"startTime":30.163047499999998,"endTime":30.271743166666663,"instrument":1,"program":12},{"pitch":70,"velocity":95,"startTime":30.326090999999998,"endTime":30.434786666666664,"instrument":1,"program":12},{"pitch":67,"velocity":95,"startTime":30.4891345,"endTime":30.597830166666665,"instrument":1,"program":12},{"pitch":74,"velocity":95,"startTime":30.652178,"endTime":30.760873666666665,"instrument":1,"program":12},{"pitch":70,"velocity":95,"startTime":30.815221499999996,"endTime":30.923917166666666,"instrument":1,"program":12},{"pitch":67,"velocity":95,"startTime":30.978264999999997,"endTime":31.141308499999997,"instrument":1,"program":12},{"pitch":70,"velocity":95,"startTime":31.141308499999997,"endTime":31.250004166666663,"instrument":1,"program":12},{"pitch":62,"velocity":95,"startTime":31.304351999999998,"endTime":31.4673955,"instrument":1,"program":12},{"pitch":66,"velocity":95,"startTime":31.4673955,"endTime":31.576091166666668,"instrument":1,"program":12},{"pitch":69,"velocity":95,"startTime":31.630439,"endTime":31.73913466666667,"instrument":1,"program":12},{"pitch":62,"velocity":95,"startTime":31.793482499999996,"endTime":31.90217816666667,"instrument":1,"program":12},{"pitch":69,"velocity":95,"startTime":31.956525999999997,"endTime":32.065221666666666,"instrument":1,"program":12},{"pitch":66,"velocity":95,"startTime":32.1195695,"endTime":32.22826516666667,"instrument":1,"program":12},{"pitch":69,"velocity":95,"startTime":32.282613,"endTime":32.39130866666667,"instrument":1,"program":12},{"pitch":62,"velocity":95,"startTime":32.4456565,"endTime":32.55435216666667,"instrument":1,"program":12},{"pitch":69,"velocity":95,"startTime":32.6087,"endTime":32.71739566666667,"instrument":1,"program":12},{"pitch":66,"velocity":95,"startTime":32.7717435,"endTime":32.88043916666667,"instrument":1,"program":12},{"pitch":69,"velocity":95,"startTime":32.934787,"endTime":33.04348266666667,"instrument":1,"program":12},{"pitch":62,"velocity":95,"startTime":33.0978305,"endTime":33.20652616666667,"instrument":1,"program":12},{"pitch":66,"velocity":95,"startTime":33.260873999999994,"endTime":33.36956966666667,"instrument":1,"program":12},{"pitch":69,"velocity":95,"startTime":33.423917499999995,"endTime":33.53261316666667,"instrument":1,"program":12},{"pitch":62,"velocity":95,"startTime":33.586960999999995,"endTime":33.69565666666667,"instrument":1,"program":12},{"pitch":69,"velocity":95,"startTime":33.750004499999996,"endTime":33.85870016666667,"instrument":1,"program":12},{"pitch":60,"velocity":95,"startTime":33.913047999999996,"endTime":34.0760915,"instrument":1,"program":12},{"pitch":69,"velocity":95,"startTime":34.0760915,"endTime":34.184787166666666,"instrument":1,"program":12},{"pitch":69,"velocity":95,"startTime":34.239135,"endTime":34.34783066666667,"instrument":1,"program":12},{"pitch":72,"velocity":95,"startTime":34.4021785,"endTime":34.51087416666667,"instrument":1,"program":12},{"pitch":69,"velocity":95,"startTime":34.565222,"endTime":34.67391766666667,"instrument":1,"program":12},{"pitch":69,"velocity":95,"startTime":34.7282655,"endTime":34.83696116666667,"instrument":1,"program":12},{"pitch":60,"velocity":95,"startTime":34.891309,"endTime":35.00000466666667,"instrument":1,"program":12},{"pitch":69,"velocity":95,"startTime":35.0543525,"endTime":35.16304816666667,"instrument":1,"program":12},{"pitch":66,"velocity":95,"startTime":35.217396,"endTime":35.32609166666667,"instrument":1,"program":12},{"pitch":69,"velocity":95,"startTime":35.380439499999994,"endTime":35.48913516666667,"instrument":1,"program":12},{"pitch":69,"velocity":95,"startTime":35.543482999999995,"endTime":35.65217866666667,"instrument":1,"program":12},{"pitch":69,"velocity":95,"startTime":35.706526499999995,"endTime":35.81522216666667,"instrument":1,"program":12},{"pitch":72,"velocity":95,"startTime":35.869569999999996,"endTime":35.978265666666665,"instrument":1,"program":12},{"pitch":69,"velocity":95,"startTime":36.0326135,"endTime":36.141309166666666,"instrument":1,"program":12},{"pitch":69,"velocity":95,"startTime":36.195657,"endTime":36.46739616666667,"instrument":1,"program":12},{"pitch":67,"velocity":95,"startTime":36.521744,"endTime":36.63043966666667,"instrument":1,"program":12},{"pitch":70,"velocity":95,"startTime":36.6847875,"endTime":36.79348316666667,"instrument":1,"program":12},{"pitch":67,"velocity":95,"startTime":36.847831,"endTime":36.95652666666667,"instrument":1,"program":12},{"pitch":70,"velocity":95,"startTime":37.0108745,"endTime":37.11957016666667,"instrument":1,"program":12},{"pitch":67,"velocity":95,"startTime":37.173918,"endTime":37.28261366666667,"instrument":1,"program":12},{"pitch":70,"velocity":95,"startTime":37.336961499999994,"endTime":37.44565716666667,"instrument":1,"program":12},{"pitch":67,"velocity":95,"startTime":37.500004999999994,"endTime":37.60870066666667,"instrument":1,"program":12},{"pitch":70,"velocity":95,"startTime":37.663048499999995,"endTime":37.77174416666667,"instrument":1,"program":12},{"pitch":70,"velocity":95,"startTime":39.13044,"endTime":39.23913566666667,"instrument":1,"program":12},{"pitch":72,"velocity":95,"startTime":39.293483499999994,"endTime":39.40217916666667,"instrument":1,"program":12},{"pitch":67,"velocity":95,"startTime":39.456526999999994,"endTime":39.56522266666667,"instrument":1,"program":12},{"pitch":70,"velocity":95,"startTime":39.619570499999995,"endTime":39.72826616666667,"instrument":1,"program":12},{"pitch":72,"velocity":95,"startTime":39.782613999999995,"endTime":39.89130966666667,"instrument":1,"program":12},{"pitch":67,"velocity":95,"startTime":39.945657499999996,"endTime":40.054353166666665,"instrument":1,"program":12},{"pitch":70,"velocity":95,"startTime":40.108700999999996,"endTime":40.217396666666666,"instrument":1,"program":12},{"pitch":67,"velocity":95,"startTime":40.2717445,"endTime":40.380440166666666,"instrument":1,"program":12},{"pitch":70,"velocity":95,"startTime":40.434788,"endTime":40.54348366666667,"instrument":1,"program":12},{"pitch":67,"velocity":95,"startTime":40.5978315,"endTime":40.70652716666667,"instrument":1,"program":12},{"pitch":70,"velocity":95,"startTime":40.760875,"endTime":40.86957066666667,"instrument":1,"program":12},{"pitch":67,"velocity":95,"startTime":40.9239185,"endTime":41.03261416666667,"instrument":1,"program":12},{"pitch":70,"velocity":95,"startTime":41.086962,"endTime":41.19565766666667,"instrument":1,"program":12},{"pitch":67,"velocity":95,"startTime":41.2500055,"endTime":41.35870116666667,"instrument":1,"program":12},{"pitch":70,"velocity":95,"startTime":41.413048999999994,"endTime":41.52174466666667,"instrument":1,"program":12},{"pitch":67,"velocity":95,"startTime":41.576092499999994,"endTime":41.68478816666667,"instrument":1,"program":12},{"pitch":36,"velocity":110,"startTime":20.869567999999997,"endTime":21.195655,"instrument":2,"program":32},{"pitch":28,"velocity":110,"startTime":21.3586985,"endTime":21.521742,"instrument":2,"program":32},{"pitch":28,"velocity":110,"startTime":21.684785499999997,"endTime":21.793481166666663,"instrument":2,"program":32},{"pitch":36,"velocity":110,"startTime":21.847828999999997,"endTime":22.010872499999998,"instrument":2,"program":32},{"pitch":39,"velocity":110,"startTime":22.173916,"endTime":22.3369595,"instrument":2,"program":32},{"pitch":39,"velocity":110,"startTime":22.500003,"endTime":22.663046499999997,"instrument":2,"program":32},{"pitch":34,"velocity":110,"startTime":22.826089999999997,"endTime":22.989133499999998,"instrument":2,"program":32},{"pitch":48,"velocity":110,"startTime":23.152177,"endTime":23.3152205,"instrument":2,"program":32},{"pitch":39,"velocity":110,"startTime":23.478264,"endTime":23.804350999999997,"instrument":2,"program":32},{"pitch":46,"velocity":110,"startTime":23.967394499999997,"endTime":24.130437999999998,"instrument":2,"program":32},{"pitch":46,"velocity":110,"startTime":24.2934815,"endTime":24.456525,"instrument":2,"program":32},{"pitch":36,"velocity":110,"startTime":24.456525,"endTime":24.6195685,"instrument":2,"program":32},{"pitch":39,"velocity":110,"startTime":24.782611999999997,"endTime":24.945655499999997,"instrument":2,"program":32},{"pitch":39,"velocity":110,"startTime":25.108698999999998,"endTime":25.2717425,"instrument":2,"program":32},{"pitch":39,"velocity":110,"startTime":25.434786,"endTime":25.760872999999997,"instrument":2,"program":32},{"pitch":34,"velocity":110,"startTime":25.923916499999997,"endTime":26.032612166666663,"instrument":2,"program":32},{"pitch":43,"velocity":110,"startTime":26.086959999999998,"endTime":26.413047,"instrument":2,"program":32},{"pitch":38,"velocity":110,"startTime":26.5760905,"endTime":26.739133999999996,"instrument":2,"program":32},{"pitch":34,"velocity":110,"startTime":26.902177499999997,"endTime":27.065220999999998,"instrument":2,"program":32},{"pitch":38,"velocity":110,"startTime":27.065220999999998,"endTime":27.228264499999998,"instrument":2,"program":32},{"pitch":31,"velocity":110,"startTime":27.391308,"endTime":27.5543515,"instrument":2,"program":32},{"pitch":31,"velocity":110,"startTime":27.717394999999996,"endTime":27.880438499999997,"instrument":2,"program":32},{"pitch":31,"velocity":110,"startTime":28.043481999999997,"endTime":28.206525499999998,"instrument":2,"program":32},{"pitch":38,"velocity":110,"startTime":28.369569,"endTime":28.5326125,"instrument":2,"program":32},{"pitch":31,"velocity":110,"startTime":28.695656,"endTime":29.021742999999997,"instrument":2,"program":32},{"pitch":31,"velocity":110,"startTime":29.184786499999998,"endTime":29.34783,"instrument":2,"program":32},{"pitch":31,"velocity":110,"startTime":29.5108735,"endTime":29.673917,"instrument":2,"program":32},{"pitch":38,"velocity":110,"startTime":29.673917,"endTime":29.836960499999996,"instrument":2,"program":32},{"pitch":31,"velocity":110,"startTime":30.000003999999997,"endTime":30.163047499999998,"instrument":2,"program":32},{"pitch":31,"velocity":110,"startTime":30.326090999999998,"endTime":30.4891345,"instrument":2,"program":32},{"pitch":31,"velocity":110,"startTime":30.652178,"endTime":30.815221499999996,"instrument":2,"program":32},{"pitch":31,"velocity":110,"startTime":30.978264999999997,"endTime":31.141308499999997,"instrument":2,"program":32},{"pitch":38,"velocity":110,"startTime":31.304351999999998,"endTime":31.630439,"instrument":2,"program":32},{"pitch":33,"velocity":110,"startTime":31.793482499999996,"endTime":31.956525999999997,"instrument":2,"program":32},{"pitch":36,"velocity":110,"startTime":32.1195695,"endTime":32.282613,"instrument":2,"program":32},{"pitch":38,"velocity":110,"startTime":32.282613,"endTime":32.4456565,"instrument":2,"program":32},{"pitch":33,"velocity":110,"startTime":32.6087,"endTime":32.7717435,"instrument":2,"program":32},{"pitch":36,"velocity":110,"startTime":32.934787,"endTime":33.0978305,"instrument":2,"program":32},{"pitch":33,"velocity":110,"startTime":33.260873999999994,"endTime":33.423917499999995,"instrument":2,"program":32},{"pitch":36,"velocity":110,"startTime":33.586960999999995,"endTime":33.750004499999996,"instrument":2,"program":32},{"pitch":38,"velocity":110,"startTime":33.913047999999996,"endTime":34.239135,"instrument":2,"program":32},{"pitch":38,"velocity":110,"startTime":34.4021785,"endTime":34.565222,"instrument":2,"program":32},{"pitch":38,"velocity":110,"startTime":34.7282655,"endTime":34.891309,"instrument":2,"program":32},{"pitch":38,"velocity":110,"startTime":34.891309,"endTime":35.0543525,"instrument":2,"program":32},{"pitch":38,"velocity":110,"startTime":35.217396,"endTime":35.380439499999994,"instrument":2,"program":32},{"pitch":38,"velocity":110,"startTime":35.706526499999995,"endTime":35.869569999999996,"instrument":2,"program":32},{"pitch":50,"velocity":110,"startTime":36.0326135,"endTime":36.195657,"instrument":2,"program":32},{"pitch":38,"velocity":110,"startTime":36.195657,"endTime":36.3587005,"instrument":2,"program":32},{"pitch":60,"velocity":105,"startTime":20.869567999999997,"endTime":22.500003,"instrument":3,"program":50},{"pitch":63,"velocity":105,"startTime":20.869567999999997,"endTime":22.500003,"instrument":3,"program":50},{"pitch":67,"velocity":105,"startTime":20.869567999999997,"endTime":22.500003,"instrument":3,"program":50},{"pitch":70,"velocity":105,"startTime":20.869567999999997,"endTime":22.500003,"instrument":3,"program":50},{"pitch":75,"velocity":105,"startTime":20.869567999999997,"endTime":22.500003,"instrument":3,"program":50},{"pitch":60,"velocity":105,"startTime":22.500003,"endTime":23.478264,"instrument":3,"program":50},{"pitch":63,"velocity":105,"startTime":22.500003,"endTime":23.478264,"instrument":3,"program":50},{"pitch":67,"velocity":105,"startTime":22.500003,"endTime":23.478264,"instrument":3,"program":50},{"pitch":70,"velocity":105,"startTime":22.500003,"endTime":23.478264,"instrument":3,"program":50},{"pitch":60,"velocity":105,"startTime":23.478264,"endTime":26.086959999999998,"instrument":3,"program":50},{"pitch":63,"velocity":105,"startTime":23.478264,"endTime":26.086959999999998,"instrument":3,"program":50},{"pitch":67,"velocity":105,"startTime":23.478264,"endTime":26.086959999999998,"instrument":3,"program":50},{"pitch":70,"velocity":105,"startTime":23.478264,"endTime":26.086959999999998,"instrument":3,"program":50},{"pitch":62,"velocity":105,"startTime":26.086959999999998,"endTime":28.695656,"instrument":3,"program":50},{"pitch":67,"velocity":105,"startTime":26.086959999999998,"endTime":28.695656,"instrument":3,"program":50},{"pitch":70,"velocity":105,"startTime":26.086959999999998,"endTime":28.695656,"instrument":3,"program":50},{"pitch":74,"velocity":105,"startTime":26.086959999999998,"endTime":28.695656,"instrument":3,"program":50},{"pitch":58,"velocity":105,"startTime":28.695656,"endTime":31.304351999999998,"instrument":3,"program":50},{"pitch":62,"velocity":105,"startTime":28.695656,"endTime":29.184786499999998,"instrument":3,"program":50},{"pitch":67,"velocity":105,"startTime":28.695656,"endTime":30.000003999999997,"instrument":3,"program":50},{"pitch":74,"velocity":105,"startTime":28.695656,"endTime":31.304351999999998,"instrument":3,"program":50},{"pitch":62,"velocity":105,"startTime":29.184786499999998,"endTime":29.34783,"instrument":3,"program":50},{"pitch":62,"velocity":105,"startTime":29.34783,"endTime":29.72826483333333,"instrument":3,"program":50},{"pitch":74,"velocity":105,"startTime":29.673917,"endTime":30.000003999999997,"instrument":3,"program":50},{"pitch":67,"velocity":105,"startTime":30.000003999999997,"endTime":31.304351999999998,"instrument":3,"program":50},{"pitch":74,"velocity":105,"startTime":30.000003999999997,"endTime":30.326090999999998,"instrument":3,"program":50},{"pitch":67,"velocity":105,"startTime":30.326090999999998,"endTime":30.652178,"instrument":3,"program":50},{"pitch":67,"velocity":105,"startTime":30.652178,"endTime":30.815221499999996,"instrument":3,"program":50},{"pitch":62,"velocity":105,"startTime":30.815221499999996,"endTime":31.304351999999998,"instrument":3,"program":50},{"pitch":60,"velocity":105,"startTime":31.304351999999998,"endTime":33.641308833333326,"instrument":3,"program":50},{"pitch":66,"velocity":105,"startTime":31.304351999999998,"endTime":33.641308833333326,"instrument":3,"program":50},{"pitch":70,"velocity":105,"startTime":31.304351999999998,"endTime":33.586960999999995,"instrument":3,"program":50},{"pitch":74,"velocity":105,"startTime":31.304351999999998,"endTime":33.641308833333326,"instrument":3,"program":50},{"pitch":60,"velocity":105,"startTime":33.913047999999996,"endTime":36.195657,"instrument":3,"program":50},{"pitch":62,"velocity":105,"startTime":33.913047999999996,"endTime":36.195657,"instrument":3,"program":50},{"pitch":66,"velocity":105,"startTime":33.913047999999996,"endTime":36.195657,"instrument":3,"program":50},{"pitch":69,"velocity":105,"startTime":33.913047999999996,"endTime":36.195657,"instrument":3,"program":50},{"pitch":74,"velocity":105,"startTime":33.913047999999996,"endTime":36.195657,"instrument":3,"program":50},{"pitch":55,"velocity":105,"startTime":36.195657,"endTime":36.521744,"instrument":3,"program":50},{"pitch":62,"velocity":105,"startTime":36.195657,"endTime":36.521744,"instrument":3,"program":50},{"pitch":64,"velocity":105,"startTime":36.195657,"endTime":36.521744,"instrument":3,"program":50},{"pitch":70,"velocity":105,"startTime":36.195657,"endTime":36.521744,"instrument":3,"program":50},{"pitch":35,"velocity":102,"startTime":41.739135999999995,"endTime":41.84783166666667,"isDrum":true},{"pitch":42,"velocity":102,"startTime":41.739135999999995,"endTime":41.84783166666667,"isDrum":true},{"pitch":42,"velocity":102,"startTime":42.065222999999996,"endTime":42.173918666666665,"isDrum":true},{"pitch":35,"velocity":102,"startTime":42.2282665,"endTime":42.336962166666666,"isDrum":true},{"pitch":40,"velocity":102,"startTime":42.39131,"endTime":42.50000566666667,"isDrum":true},{"pitch":42,"velocity":102,"startTime":42.39131,"endTime":42.50000566666667,"isDrum":true},{"pitch":35,"velocity":102,"startTime":42.717397,"endTime":42.82609266666667,"isDrum":true},{"pitch":42,"velocity":102,"startTime":42.717397,"endTime":42.82609266666667,"isDrum":true},{"pitch":35,"velocity":102,"startTime":43.043484,"endTime":43.15217966666667,"isDrum":true},{"pitch":42,"velocity":102,"startTime":43.043484,"endTime":43.15217966666667,"isDrum":true},{"pitch":42,"velocity":102,"startTime":43.36957099999999,"endTime":43.47826666666667,"isDrum":true},{"pitch":40,"velocity":102,"startTime":43.695657999999995,"endTime":43.80435366666667,"isDrum":true},{"pitch":42,"velocity":102,"startTime":43.695657999999995,"endTime":43.80435366666667,"isDrum":true},{"pitch":42,"velocity":102,"startTime":44.021744999999996,"endTime":44.130440666666665,"isDrum":true},{"pitch":35,"velocity":102,"startTime":44.184788499999996,"endTime":44.293484166666666,"isDrum":true},{"pitch":42,"velocity":102,"startTime":44.347832,"endTime":44.456527666666666,"isDrum":true},{"pitch":40,"velocity":102,"startTime":44.5108755,"endTime":44.61957116666667,"isDrum":true},{"pitch":35,"velocity":102,"startTime":44.673919,"endTime":44.78261466666666,"isDrum":true},{"pitch":42,"velocity":102,"startTime":44.673919,"endTime":44.78261466666666,"isDrum":true},{"pitch":40,"velocity":102,"startTime":44.8369625,"endTime":44.94565816666666,"isDrum":true},{"pitch":40,"velocity":102,"startTime":45.000006,"endTime":45.10870166666666,"isDrum":true},{"pitch":42,"velocity":102,"startTime":45.000006,"endTime":45.10870166666666,"isDrum":true},{"pitch":35,"velocity":102,"startTime":45.32609299999999,"endTime":45.43478866666666,"isDrum":true},{"pitch":42,"velocity":102,"startTime":45.32609299999999,"endTime":45.43478866666666,"isDrum":true},{"pitch":35,"velocity":102,"startTime":45.652179999999994,"endTime":45.760875666666664,"isDrum":true},{"pitch":42,"velocity":102,"startTime":45.652179999999994,"endTime":45.760875666666664,"isDrum":true},{"pitch":42,"velocity":102,"startTime":45.978266999999995,"endTime":46.086962666666665,"isDrum":true},{"pitch":40,"velocity":102,"startTime":46.304354,"endTime":46.413049666666666,"isDrum":true},{"pitch":42,"velocity":102,"startTime":46.304354,"endTime":46.413049666666666,"isDrum":true},{"pitch":48,"velocity":102,"startTime":46.304354,"endTime":46.413049666666666,"isDrum":true},{"pitch":42,"velocity":102,"startTime":46.630441,"endTime":46.73913666666666,"isDrum":true},{"pitch":35,"velocity":102,"startTime":46.956528,"endTime":47.06522366666666,"isDrum":true},{"pitch":42,"velocity":102,"startTime":46.956528,"endTime":47.06522366666666,"isDrum":true},{"pitch":35,"velocity":102,"startTime":47.282615,"endTime":47.39131066666666,"isDrum":true},{"pitch":42,"velocity":102,"startTime":47.282615,"endTime":47.39131066666666,"isDrum":true},{"pitch":40,"velocity":102,"startTime":47.608701999999994,"endTime":47.71739766666666,"isDrum":true},{"pitch":42,"velocity":102,"startTime":47.608701999999994,"endTime":47.71739766666666,"isDrum":true},{"pitch":48,"velocity":102,"startTime":47.608701999999994,"endTime":47.71739766666666,"isDrum":true},{"pitch":40,"velocity":102,"startTime":47.771745499999994,"endTime":47.880441166666664,"isDrum":true},{"pitch":42,"velocity":102,"startTime":47.934788999999995,"endTime":48.043484666666664,"isDrum":true},{"pitch":40,"velocity":102,"startTime":48.097832499999996,"endTime":48.206528166666665,"isDrum":true},{"pitch":35,"velocity":102,"startTime":48.260875999999996,"endTime":48.369571666666666,"isDrum":true},{"pitch":42,"velocity":102,"startTime":48.260875999999996,"endTime":48.369571666666666,"isDrum":true},{"pitch":42,"velocity":102,"startTime":48.586963,"endTime":48.69565866666666,"isDrum":true},{"pitch":40,"velocity":102,"startTime":48.91305,"endTime":49.02174566666666,"isDrum":true},{"pitch":42,"velocity":102,"startTime":48.91305,"endTime":49.02174566666666,"isDrum":true},{"pitch":42,"velocity":102,"startTime":49.239137,"endTime":49.34783266666666,"isDrum":true},{"pitch":35,"velocity":102,"startTime":49.40218049999999,"endTime":49.51087616666666,"isDrum":true},{"pitch":42,"velocity":102,"startTime":49.56522399999999,"endTime":49.67391966666666,"isDrum":true},{"pitch":35,"velocity":102,"startTime":49.891310999999995,"endTime":50.000006666666664,"isDrum":true},{"pitch":42,"velocity":102,"startTime":49.891310999999995,"endTime":50.000006666666664,"isDrum":true},{"pitch":40,"velocity":102,"startTime":50.217397999999996,"endTime":50.326093666666665,"isDrum":true},{"pitch":42,"velocity":102,"startTime":50.217397999999996,"endTime":50.326093666666665,"isDrum":true},{"pitch":48,"velocity":102,"startTime":50.217397999999996,"endTime":50.326093666666665,"isDrum":true},{"pitch":48,"velocity":102,"startTime":50.380441499999996,"endTime":50.489137166666666,"isDrum":true},{"pitch":42,"velocity":102,"startTime":50.543485,"endTime":50.652180666666666,"isDrum":true},{"pitch":35,"velocity":102,"startTime":50.7065285,"endTime":50.81522416666666,"isDrum":true},{"pitch":35,"velocity":102,"startTime":50.869572,"endTime":50.97826766666666,"isDrum":true},{"pitch":42,"velocity":102,"startTime":50.869572,"endTime":50.97826766666666,"isDrum":true},{"pitch":42,"velocity":102,"startTime":51.0326155,"endTime":51.14131116666666,"isDrum":true},{"pitch":35,"velocity":102,"startTime":51.195659,"endTime":51.30435466666666,"isDrum":true},{"pitch":42,"velocity":102,"startTime":51.195659,"endTime":51.30435466666666,"isDrum":true},{"pitch":40,"velocity":102,"startTime":51.52174599999999,"endTime":51.63044166666666,"isDrum":true},{"pitch":42,"velocity":102,"startTime":51.52174599999999,"endTime":51.63044166666666,"isDrum":true},{"pitch":42,"velocity":102,"startTime":51.847832999999994,"endTime":51.956528666666664,"isDrum":true},{"pitch":35,"velocity":102,"startTime":52.173919999999995,"endTime":52.282615666666665,"isDrum":true},{"pitch":42,"velocity":102,"startTime":52.173919999999995,"endTime":52.282615666666665,"isDrum":true},{"pitch":42,"velocity":102,"startTime":52.500007,"endTime":52.608702666666666,"isDrum":true},{"pitch":40,"velocity":102,"startTime":52.826094,"endTime":52.93478966666666,"isDrum":true},{"pitch":42,"velocity":102,"startTime":52.826094,"endTime":52.93478966666666,"isDrum":true},{"pitch":42,"velocity":102,"startTime":53.152181,"endTime":53.26087666666666,"isDrum":true},{"pitch":35,"velocity":102,"startTime":53.47826799999999,"endTime":53.58696366666666,"isDrum":true},{"pitch":42,"velocity":102,"startTime":53.47826799999999,"endTime":53.58696366666666,"isDrum":true},{"pitch":35,"velocity":102,"startTime":53.804354999999994,"endTime":53.91305066666666,"isDrum":true},{"pitch":42,"velocity":102,"startTime":53.804354999999994,"endTime":53.91305066666666,"isDrum":true},{"pitch":40,"velocity":102,"startTime":54.130441999999995,"endTime":54.239137666666664,"isDrum":true},{"pitch":42,"velocity":102,"startTime":54.130441999999995,"endTime":54.239137666666664,"isDrum":true},{"pitch":48,"velocity":102,"startTime":54.130441999999995,"endTime":54.239137666666664,"isDrum":true},{"pitch":48,"velocity":102,"startTime":54.293485499999996,"endTime":54.402181166666665,"isDrum":true},{"pitch":42,"velocity":102,"startTime":54.456528999999996,"endTime":54.565224666666666,"isDrum":true},{"pitch":35,"velocity":102,"startTime":54.6195725,"endTime":54.72826816666666,"isDrum":true},{"pitch":35,"velocity":102,"startTime":54.782616,"endTime":54.89131166666666,"isDrum":true},{"pitch":42,"velocity":102,"startTime":54.782616,"endTime":54.89131166666666,"isDrum":true},{"pitch":42,"velocity":102,"startTime":55.108703,"endTime":55.21739866666666,"isDrum":true},{"pitch":35,"velocity":102,"startTime":55.2717465,"endTime":55.38044216666666,"isDrum":true},{"pitch":40,"velocity":102,"startTime":55.43478999999999,"endTime":55.54348566666666,"isDrum":true},{"pitch":42,"velocity":102,"startTime":55.43478999999999,"endTime":55.54348566666666,"isDrum":true},{"pitch":48,"velocity":102,"startTime":55.43478999999999,"endTime":55.54348566666666,"isDrum":true},{"pitch":40,"velocity":102,"startTime":55.59783349999999,"endTime":55.70652916666666,"isDrum":true},{"pitch":35,"velocity":102,"startTime":55.760876999999994,"endTime":55.86957266666666,"isDrum":true},{"pitch":42,"velocity":102,"startTime":55.760876999999994,"endTime":55.86957266666666,"isDrum":true},{"pitch":40,"velocity":102,"startTime":55.923920499999994,"endTime":56.032616166666664,"isDrum":true},{"pitch":42,"velocity":102,"startTime":56.086963999999995,"endTime":56.195659666666664,"isDrum":true},{"pitch":35,"velocity":102,"startTime":56.413050999999996,"endTime":56.521746666666665,"isDrum":true},{"pitch":42,"velocity":102,"startTime":56.413050999999996,"endTime":56.521746666666665,"isDrum":true},{"pitch":40,"velocity":102,"startTime":56.739138,"endTime":56.84783366666666,"isDrum":true},{"pitch":42,"velocity":102,"startTime":56.739138,"endTime":56.84783366666666,"isDrum":true},{"pitch":40,"velocity":102,"startTime":56.9021815,"endTime":57.01087716666666,"isDrum":true},{"pitch":42,"velocity":102,"startTime":57.065225,"endTime":57.17392066666666,"isDrum":true},{"pitch":40,"velocity":102,"startTime":57.2282685,"endTime":57.33696416666666,"isDrum":true},{"pitch":35,"velocity":102,"startTime":57.391312,"endTime":57.50000766666666,"isDrum":true},{"pitch":42,"velocity":102,"startTime":57.391312,"endTime":57.50000766666666,"isDrum":true},{"pitch":48,"velocity":102,"startTime":57.391312,"endTime":57.50000766666666,"isDrum":true},{"pitch":48,"velocity":102,"startTime":57.55435549999999,"endTime":57.66305116666666,"isDrum":true},{"pitch":42,"velocity":102,"startTime":57.71739899999999,"endTime":57.82609466666666,"isDrum":true},{"pitch":35,"velocity":102,"startTime":57.880442499999994,"endTime":57.98913816666666,"isDrum":true},{"pitch":40,"velocity":102,"startTime":57.880442499999994,"endTime":57.98913816666666,"isDrum":true},{"pitch":40,"velocity":102,"startTime":58.043485999999994,"endTime":58.152181666666664,"isDrum":true},{"pitch":42,"velocity":102,"startTime":58.043485999999994,"endTime":58.152181666666664,"isDrum":true},{"pitch":48,"velocity":102,"startTime":58.043485999999994,"endTime":58.152181666666664,"isDrum":true},{"pitch":40,"velocity":102,"startTime":58.206529499999995,"endTime":58.315225166666664,"isDrum":true},{"pitch":42,"velocity":102,"startTime":58.369572999999995,"endTime":58.478268666666665,"isDrum":true},{"pitch":40,"velocity":102,"startTime":58.532616499999996,"endTime":58.641312166666665,"isDrum":true},{"pitch":42,"velocity":102,"startTime":58.69566,"endTime":58.80435566666666,"isDrum":true},{"pitch":45,"velocity":102,"startTime":58.69566,"endTime":58.80435566666666,"isDrum":true},{"pitch":40,"velocity":102,"startTime":58.8587035,"endTime":58.96739916666666,"isDrum":true},{"pitch":35,"velocity":102,"startTime":59.021747,"endTime":59.13044266666666,"isDrum":true},{"pitch":42,"velocity":102,"startTime":59.021747,"endTime":59.13044266666666,"isDrum":true},{"pitch":40,"velocity":102,"startTime":59.347834,"endTime":59.45652966666666,"isDrum":true},{"pitch":42,"velocity":102,"startTime":59.347834,"endTime":59.45652966666666,"isDrum":true},{"pitch":40,"velocity":102,"startTime":59.51087749999999,"endTime":59.61957316666666,"isDrum":true},{"pitch":46,"velocity":102,"startTime":59.67392099999999,"endTime":59.78261666666666,"isDrum":true},{"pitch":62,"velocity":95,"startTime":41.739135999999995,"endTime":41.95652733333333,"instrument":1,"program":12},{"pitch":74,"velocity":95,"startTime":42.065222999999996,"endTime":42.39131,"instrument":1,"program":12},{"pitch":69,"velocity":95,"startTime":42.39131,"endTime":42.717397,"instrument":1,"program":12},{"pitch":74,"velocity":95,"startTime":42.717397,"endTime":42.8804405,"instrument":1,"program":12},{"pitch":74,"velocity":95,"startTime":42.93478833333332,"endTime":43.043484,"instrument":1,"program":12},{"pitch":69,"velocity":95,"startTime":43.043484,"endTime":43.15217966666667,"instrument":1,"program":12},{"pitch":74,"velocity":95,"startTime":43.36957099999999,"endTime":43.47826666666667,"instrument":1,"program":12},{"pitch":62,"velocity":95,"startTime":43.695657999999995,"endTime":43.858701499999995,"instrument":1,"program":12},{"pitch":69,"velocity":95,"startTime":44.021744999999996,"endTime":44.130440666666665,"instrument":1,"program":12},{"pitch":62,"velocity":95,"startTime":44.347832,"endTime":44.456527666666666,"instrument":1,"program":12},{"pitch":69,"velocity":95,"startTime":44.673919,"endTime":44.78261466666666,"instrument":1,"program":12},{"pitch":74,"velocity":95,"startTime":44.8369625,"endTime":44.94565816666666,"instrument":1,"program":12},{"pitch":69,"velocity":95,"startTime":45.000006,"endTime":45.10870166666666,"instrument":1,"program":12},{"pitch":74,"velocity":95,"startTime":45.1630495,"endTime":45.27174516666666,"instrument":1,"program":12},{"pitch":69,"velocity":95,"startTime":45.32609299999999,"endTime":45.43478866666666,"instrument":1,"program":12},{"pitch":74,"velocity":95,"startTime":45.489136499999994,"endTime":45.59783216666666,"instrument":1,"program":12},{"pitch":74,"velocity":95,"startTime":45.652179999999994,"endTime":45.760875666666664,"instrument":1,"program":12},{"pitch":69,"velocity":95,"startTime":45.815223499999995,"endTime":45.923919166666664,"instrument":1,"program":12},{"pitch":74,"velocity":95,"startTime":45.978266999999995,"endTime":46.086962666666665,"instrument":1,"program":12},{"pitch":69,"velocity":95,"startTime":46.141310499999996,"endTime":46.19565833333333,"instrument":1,"program":12},{"pitch":74,"velocity":95,"startTime":46.304354,"endTime":46.413049666666666,"instrument":1,"program":12},{"pitch":69,"velocity":95,"startTime":46.4673975,"endTime":46.52174533333333,"instrument":1,"program":12},{"pitch":74,"velocity":95,"startTime":46.630441,"endTime":46.73913666666666,"instrument":1,"program":12},{"pitch":69,"velocity":95,"startTime":46.7934845,"endTime":46.90218016666666,"instrument":1,"program":12},{"pitch":58,"velocity":95,"startTime":46.956528,"endTime":47.06522366666666,"instrument":1,"program":12},{"pitch":65,"velocity":95,"startTime":47.1195715,"endTime":47.22826716666666,"instrument":1,"program":12},{"pitch":67,"velocity":95,"startTime":47.282615,"endTime":47.39131066666666,"instrument":1,"program":12},{"pitch":65,"velocity":95,"startTime":47.44565849999999,"endTime":47.55435416666666,"instrument":1,"program":12},{"pitch":74,"velocity":95,"startTime":47.608701999999994,"endTime":47.71739766666666,"instrument":1,"program":12},{"pitch":67,"velocity":95,"startTime":47.771745499999994,"endTime":47.880441166666664,"instrument":1,"program":12},{"pitch":65,"velocity":95,"startTime":47.934788999999995,"endTime":48.043484666666664,"instrument":1,"program":12},{"pitch":67,"velocity":95,"startTime":48.097832499999996,"endTime":48.206528166666665,"instrument":1,"program":12},{"pitch":58,"velocity":95,"startTime":48.260875999999996,"endTime":48.369571666666666,"instrument":1,"program":12},{"pitch":67,"velocity":95,"startTime":48.4239195,"endTime":48.532615166666666,"instrument":1,"program":12},{"pitch":70,"velocity":95,"startTime":48.586963,"endTime":48.69565866666666,"instrument":1,"program":12},{"pitch":67,"velocity":95,"startTime":48.7500065,"endTime":48.85870216666666,"instrument":1,"program":12},{"pitch":58,"velocity":95,"startTime":48.91305,"endTime":49.02174566666666,"instrument":1,"program":12},{"pitch":67,"velocity":95,"startTime":49.0760935,"endTime":49.18478916666666,"instrument":1,"program":12},{"pitch":65,"velocity":95,"startTime":49.239137,"endTime":49.34783266666666,"instrument":1,"program":12},{"pitch":67,"velocity":95,"startTime":49.40218049999999,"endTime":49.51087616666666,"instrument":1,"program":12},{"pitch":62,"velocity":95,"startTime":49.56522399999999,"endTime":49.67391966666666,"instrument":1,"program":12},{"pitch":67,"velocity":95,"startTime":49.728267499999994,"endTime":49.83696316666666,"instrument":1,"program":12},{"pitch":70,"velocity":95,"startTime":49.891310999999995,"endTime":50.000006666666664,"instrument":1,"program":12},{"pitch":67,"velocity":95,"startTime":50.054354499999995,"endTime":50.163050166666665,"instrument":1,"program":12},{"pitch":70,"velocity":95,"startTime":50.217397999999996,"endTime":50.326093666666665,"instrument":1,"program":12},{"pitch":67,"velocity":95,"startTime":50.380441499999996,"endTime":50.489137166666666,"instrument":1,"program":12},{"pitch":70,"velocity":95,"startTime":50.543485,"endTime":50.652180666666666,"instrument":1,"program":12},{"pitch":67,"velocity":95,"startTime":50.7065285,"endTime":50.81522416666666,"instrument":1,"program":12},{"pitch":70,"velocity":95,"startTime":50.869572,"endTime":50.97826766666666,"instrument":1,"program":12},{"pitch":67,"velocity":95,"startTime":51.0326155,"endTime":51.14131116666666,"instrument":1,"program":12},{"pitch":70,"velocity":95,"startTime":51.195659,"endTime":51.30435466666666,"instrument":1,"program":12},{"pitch":70,"velocity":95,"startTime":51.35870249999999,"endTime":51.46739816666666,"instrument":1,"program":12},{"pitch":62,"velocity":95,"startTime":51.52174599999999,"endTime":51.63044166666666,"instrument":1,"program":12},{"pitch":67,"velocity":95,"startTime":51.684789499999994,"endTime":51.79348516666666,"instrument":1,"program":12},{"pitch":70,"velocity":95,"startTime":51.847832999999994,"endTime":51.956528666666664,"instrument":1,"program":12},{"pitch":67,"velocity":95,"startTime":52.010876499999995,"endTime":52.119572166666664,"instrument":1,"program":12},{"pitch":62,"velocity":95,"startTime":52.173919999999995,"endTime":52.282615666666665,"instrument":1,"program":12},{"pitch":69,"velocity":95,"startTime":52.336963499999996,"endTime":52.445659166666665,"instrument":1,"program":12},{"pitch":72,"velocity":95,"startTime":52.500007,"endTime":52.608702666666666,"instrument":1,"program":12},{"pitch":78,"velocity":95,"startTime":52.6630505,"endTime":52.77174616666666,"instrument":1,"program":12},{"pitch":69,"velocity":95,"startTime":52.826094,"endTime":52.93478966666666,"instrument":1,"program":12},{"pitch":72,"velocity":95,"startTime":52.9891375,"endTime":53.09783316666666,"instrument":1,"program":12},{"pitch":78,"velocity":95,"startTime":53.152181,"endTime":53.26087666666666,"instrument":1,"program":12},{"pitch":72,"velocity":95,"startTime":53.3152245,"endTime":53.42392016666666,"instrument":1,"program":12},{"pitch":62,"velocity":95,"startTime":53.47826799999999,"endTime":53.58696366666666,"instrument":1,"program":12},{"pitch":72,"velocity":95,"startTime":53.64131149999999,"endTime":53.75000716666666,"instrument":1,"program":12},{"pitch":78,"velocity":95,"startTime":53.804354999999994,"endTime":53.91305066666666,"instrument":1,"program":12},{"pitch":74,"velocity":95,"startTime":53.967398499999994,"endTime":54.02174633333333,"instrument":1,"program":12},{"pitch":78,"velocity":95,"startTime":54.130441999999995,"endTime":54.184789833333326,"instrument":1,"program":12},{"pitch":72,"velocity":95,"startTime":54.293485499999996,"endTime":54.34783333333333,"instrument":1,"program":12},{"pitch":69,"velocity":95,"startTime":54.456528999999996,"endTime":54.565224666666666,"instrument":1,"program":12},{"pitch":62,"velocity":95,"startTime":54.6195725,"endTime":54.72826816666666,"instrument":1,"program":12},{"pitch":62,"velocity":95,"startTime":54.782616,"endTime":54.89131166666666,"instrument":1,"program":12},{"pitch":72,"velocity":95,"startTime":54.9456595,"endTime":55.05435516666666,"instrument":1,"program":12},{"pitch":69,"velocity":95,"startTime":55.108703,"endTime":55.21739866666666,"instrument":1,"program":12},{"pitch":72,"velocity":95,"startTime":55.2717465,"endTime":55.38044216666666,"instrument":1,"program":12},{"pitch":62,"velocity":95,"startTime":55.43478999999999,"endTime":55.54348566666666,"instrument":1,"program":12},{"pitch":69,"velocity":95,"startTime":55.59783349999999,"endTime":55.70652916666666,"instrument":1,"program":12},{"pitch":72,"velocity":95,"startTime":55.760876999999994,"endTime":55.86957266666666,"instrument":1,"program":12},{"pitch":72,"velocity":95,"startTime":55.923920499999994,"endTime":55.97826833333333,"instrument":1,"program":12},{"pitch":69,"velocity":95,"startTime":56.086963999999995,"endTime":56.195659666666664,"instrument":1,"program":12},{"pitch":72,"velocity":95,"startTime":56.250007499999995,"endTime":56.358703166666665,"instrument":1,"program":12},{"pitch":78,"velocity":95,"startTime":56.413050999999996,"endTime":56.521746666666665,"instrument":1,"program":12},{"pitch":72,"velocity":95,"startTime":56.576094499999996,"endTime":56.684790166666666,"instrument":1,"program":12},{"pitch":78,"velocity":95,"startTime":56.739138,"endTime":56.84783366666666,"instrument":1,"program":12},{"pitch":69,"velocity":95,"startTime":56.9021815,"endTime":56.95652933333333,"instrument":1,"program":12},{"pitch":69,"velocity":95,"startTime":57.065225,"endTime":57.17392066666666,"instrument":1,"program":12},{"pitch":72,"velocity":95,"startTime":57.2282685,"endTime":57.33696416666666,"instrument":1,"program":12},{"pitch":58,"velocity":95,"startTime":57.391312,"endTime":57.55435549999999,"instrument":1,"program":12},{"pitch":67,"velocity":95,"startTime":57.55435549999999,"endTime":57.66305116666666,"instrument":1,"program":12},{"pitch":70,"velocity":95,"startTime":57.71739899999999,"endTime":57.82609466666666,"instrument":1,"program":12},{"pitch":76,"velocity":95,"startTime":57.880442499999994,"endTime":57.98913816666666,"instrument":1,"program":12},{"pitch":79,"velocity":95,"startTime":58.043485999999994,"endTime":58.152181666666664,"instrument":1,"program":12},{"pitch":70,"velocity":95,"startTime":58.206529499999995,"endTime":58.260877333333326,"instrument":1,"program":12},{"pitch":67,"velocity":95,"startTime":58.369572999999995,"endTime":58.478268666666665,"instrument":1,"program":12},{"pitch":76,"velocity":95,"startTime":58.532616499999996,"endTime":58.58696433333333,"instrument":1,"program":12},{"pitch":79,"velocity":95,"startTime":58.69566,"endTime":58.80435566666666,"instrument":1,"program":12},{"pitch":67,"velocity":95,"startTime":58.8587035,"endTime":58.91305133333333,"instrument":1,"program":12},{"pitch":70,"velocity":95,"startTime":59.021747,"endTime":59.13044266666666,"instrument":1,"program":12},{"pitch":76,"velocity":95,"startTime":59.1847905,"endTime":59.29348616666666,"instrument":1,"program":12},{"pitch":76,"velocity":95,"startTime":59.347834,"endTime":59.45652966666666,"instrument":1,"program":12},{"pitch":70,"velocity":95,"startTime":59.51087749999999,"endTime":59.56522533333333,"instrument":1,"program":12},{"pitch":67,"velocity":95,"startTime":59.67392099999999,"endTime":59.78261666666666,"instrument":1,"program":12},{"pitch":70,"velocity":95,"startTime":59.83696449999999,"endTime":59.94566016666666,"instrument":1,"program":12},{"pitch":62,"velocity":95,"startTime":60.000007999999994,"endTime":60.10870366666666,"instrument":1,"program":12},{"pitch":67,"velocity":95,"startTime":60.163051499999995,"endTime":60.271747166666664,"instrument":1,"program":12},{"pitch":70,"velocity":95,"startTime":60.326094999999995,"endTime":60.434790666666665,"instrument":1,"program":12},{"pitch":67,"velocity":95,"startTime":60.489138499999996,"endTime":60.597834166666665,"instrument":1,"program":12},{"pitch":74,"velocity":95,"startTime":60.652181999999996,"endTime":60.76087766666666,"instrument":1,"program":12},{"pitch":67,"velocity":95,"startTime":60.8152255,"endTime":60.86957333333333,"instrument":1,"program":12},{"pitch":70,"velocity":95,"startTime":60.978269,"endTime":61.08696466666666,"instrument":1,"program":12},{"pitch":67,"velocity":95,"startTime":61.1413125,"endTime":61.25000816666666,"instrument":1,"program":12},{"pitch":79,"velocity":95,"startTime":61.304356,"endTime":61.41305166666666,"instrument":1,"program":12},{"pitch":74,"velocity":95,"startTime":61.46739949999999,"endTime":61.57609516666666,"instrument":1,"program":12},{"pitch":70,"velocity":95,"startTime":61.63044299999999,"endTime":61.73913866666666,"instrument":1,"program":12},{"pitch":74,"velocity":95,"startTime":61.79348649999999,"endTime":61.90218216666666,"instrument":1,"program":12},{"pitch":62,"velocity":95,"startTime":61.956529999999994,"endTime":62.06522566666666,"instrument":1,"program":12},{"pitch":70,"velocity":95,"startTime":62.119573499999994,"endTime":62.228269166666664,"instrument":1,"program":12},{"pitch":62,"velocity":95,"startTime":62.282616999999995,"endTime":62.391312666666664,"instrument":1,"program":12},{"pitch":67,"velocity":95,"startTime":62.445660499999995,"endTime":62.554356166666665,"instrument":1,"program":12},{"pitch":38,"velocity":110,"startTime":41.739135999999995,"endTime":41.902179499999995,"instrument":2,"program":32},{"pitch":38,"velocity":110,"startTime":42.065222999999996,"endTime":42.2282665,"instrument":2,"program":32},{"pitch":38,"velocity":110,"startTime":42.39131,"endTime":42.5543535,"instrument":2,"program":32},{"pitch":45,"velocity":110,"startTime":42.717397,"endTime":42.8804405,"instrument":2,"program":32},{"pitch":45,"velocity":110,"startTime":43.043484,"endTime":43.2065275,"instrument":2,"program":32},{"pitch":45,"velocity":110,"startTime":43.36957099999999,"endTime":43.532614499999994,"instrument":2,"program":32},{"pitch":38,"velocity":110,"startTime":43.695657999999995,"endTime":43.858701499999995,"instrument":2,"program":32},{"pitch":50,"velocity":110,"startTime":44.021744999999996,"endTime":44.184788499999996,"instrument":2,"program":32},{"pitch":38,"velocity":110,"startTime":44.347832,"endTime":44.5108755,"instrument":2,"program":32},{"pitch":38,"velocity":110,"startTime":44.673919,"endTime":44.8369625,"instrument":2,"program":32},{"pitch":42,"velocity":110,"startTime":45.000006,"endTime":45.1630495,"instrument":2,"program":32},{"pitch":45,"velocity":110,"startTime":45.32609299999999,"endTime":45.489136499999994,"instrument":2,"program":32},{"pitch":45,"velocity":110,"startTime":45.652179999999994,"endTime":45.815223499999995,"instrument":2,"program":32},{"pitch":45,"velocity":110,"startTime":45.978266999999995,"endTime":46.141310499999996,"instrument":2,"program":32},{"pitch":38,"velocity":110,"startTime":46.304354,"endTime":46.4673975,"instrument":2,"program":32},{"pitch":50,"velocity":110,"startTime":46.630441,"endTime":46.7934845,"instrument":2,"program":32},{"pitch":34,"velocity":110,"startTime":46.956528,"endTime":47.1195715,"instrument":2,"program":32},{"pitch":34,"velocity":110,"startTime":47.282615,"endTime":47.44565849999999,"instrument":2,"program":32},{"pitch":38,"velocity":110,"startTime":47.608701999999994,"endTime":47.771745499999994,"instrument":2,"program":32},{"pitch":41,"velocity":110,"startTime":47.934788999999995,"endTime":48.097832499999996,"instrument":2,"program":32},{"pitch":34,"velocity":110,"startTime":48.260875999999996,"endTime":48.4239195,"instrument":2,"program":32},{"pitch":38,"velocity":110,"startTime":48.586963,"endTime":48.7500065,"instrument":2,"program":32},{"pitch":34,"velocity":110,"startTime":48.91305,"endTime":49.0760935,"instrument":2,"program":32},{"pitch":38,"velocity":110,"startTime":49.239137,"endTime":49.40218049999999,"instrument":2,"program":32},{"pitch":31,"velocity":110,"startTime":49.56522399999999,"endTime":49.67391966666666,"instrument":2,"program":32},{"pitch":38,"velocity":110,"startTime":49.891310999999995,"endTime":50.054354499999995,"instrument":2,"program":32},{"pitch":41,"velocity":110,"startTime":50.217397999999996,"endTime":50.380441499999996,"instrument":2,"program":32},{"pitch":38,"velocity":110,"startTime":50.543485,"endTime":50.7065285,"instrument":2,"program":32},{"pitch":34,"velocity":110,"startTime":50.869572,"endTime":51.0326155,"instrument":2,"program":32},{"pitch":38,"velocity":110,"startTime":51.195659,"endTime":51.35870249999999,"instrument":2,"program":32},{"pitch":38,"velocity":110,"startTime":51.52174599999999,"endTime":51.684789499999994,"instrument":2,"program":32},{"pitch":46,"velocity":110,"startTime":51.847832999999994,"endTime":52.010876499999995,"instrument":2,"program":32},{"pitch":38,"velocity":110,"startTime":52.173919999999995,"endTime":52.336963499999996,"instrument":2,"program":32},{"pitch":33,"velocity":110,"startTime":52.500007,"endTime":52.6630505,"instrument":2,"program":32},{"pitch":33,"velocity":110,"startTime":52.826094,"endTime":52.9891375,"instrument":2,"program":32},{"pitch":33,"velocity":110,"startTime":53.152181,"endTime":53.3152245,"instrument":2,"program":32},{"pitch":33,"velocity":110,"startTime":53.47826799999999,"endTime":53.64131149999999,"instrument":2,"program":32},{"pitch":33,"velocity":110,"startTime":53.804354999999994,"endTime":53.967398499999994,"instrument":2,"program":32},{"pitch":38,"velocity":110,"startTime":54.130441999999995,"endTime":54.293485499999996,"instrument":2,"program":32},{"pitch":33,"velocity":110,"startTime":54.456528999999996,"endTime":54.6195725,"instrument":2,"program":32},{"pitch":38,"velocity":110,"startTime":54.782616,"endTime":54.9456595,"instrument":2,"program":32},{"pitch":38,"velocity":110,"startTime":55.108703,"endTime":55.2717465,"instrument":2,"program":32},{"pitch":38,"velocity":110,"startTime":55.43478999999999,"endTime":55.59783349999999,"instrument":2,"program":32},{"pitch":38,"velocity":110,"startTime":55.760876999999994,"endTime":55.923920499999994,"instrument":2,"program":32},{"pitch":38,"velocity":110,"startTime":56.086963999999995,"endTime":56.250007499999995,"instrument":2,"program":32},{"pitch":33,"velocity":110,"startTime":56.413050999999996,"endTime":56.576094499999996,"instrument":2,"program":32},{"pitch":38,"velocity":110,"startTime":56.739138,"endTime":56.9021815,"instrument":2,"program":32},{"pitch":38,"velocity":110,"startTime":57.065225,"endTime":57.2282685,"instrument":2,"program":32},{"pitch":31,"velocity":110,"startTime":57.391312,"endTime":57.55435549999999,"instrument":2,"program":32},{"pitch":34,"velocity":110,"startTime":57.71739899999999,"endTime":57.880442499999994,"instrument":2,"program":32},{"pitch":38,"velocity":110,"startTime":58.043485999999994,"endTime":58.206529499999995,"instrument":2,"program":32},{"pitch":38,"velocity":110,"startTime":58.369572999999995,"endTime":58.532616499999996,"instrument":2,"program":32},{"pitch":31,"velocity":110,"startTime":58.69566,"endTime":58.8587035,"instrument":2,"program":32},{"pitch":31,"velocity":110,"startTime":59.021747,"endTime":59.1847905,"instrument":2,"program":32},{"pitch":38,"velocity":110,"startTime":59.347834,"endTime":59.51087749999999,"instrument":2,"program":32},{"pitch":31,"velocity":110,"startTime":59.67392099999999,"endTime":59.83696449999999,"instrument":2,"program":32},{"pitch":43,"velocity":110,"startTime":60.000007999999994,"endTime":60.163051499999995,"instrument":2,"program":32},{"pitch":43,"velocity":110,"startTime":60.326094999999995,"endTime":60.489138499999996,"instrument":2,"program":32},{"pitch":43,"velocity":110,"startTime":60.652181999999996,"endTime":60.8152255,"instrument":2,"program":32},{"pitch":38,"velocity":110,"startTime":60.978269,"endTime":61.1413125,"instrument":2,"program":32},{"pitch":34,"velocity":110,"startTime":61.304356,"endTime":61.46739949999999,"instrument":2,"program":32},{"pitch":38,"velocity":110,"startTime":61.63044299999999,"endTime":61.79348649999999,"instrument":2,"program":32},{"pitch":37,"velocity":110,"startTime":61.956529999999994,"endTime":62.119573499999994,"instrument":2,"program":32},{"pitch":38,"velocity":110,"startTime":62.282616999999995,"endTime":62.445660499999995,"instrument":2,"program":32},{"pitch":62,"velocity":105,"startTime":41.739135999999995,"endTime":44.347832,"instrument":3,"program":50},{"pitch":66,"velocity":105,"startTime":41.739135999999995,"endTime":44.347832,"instrument":3,"program":50},{"pitch":69,"velocity":105,"startTime":41.739135999999995,"endTime":44.347832,"instrument":3,"program":50},{"pitch":72,"velocity":105,"startTime":41.739135999999995,"endTime":44.347832,"instrument":3,"program":50},{"pitch":60,"velocity":105,"startTime":44.347832,"endTime":46.304354,"instrument":3,"program":50},{"pitch":62,"velocity":105,"startTime":44.347832,"endTime":46.304354,"instrument":3,"program":50},{"pitch":66,"velocity":105,"startTime":44.347832,"endTime":46.304354,"instrument":3,"program":50},{"pitch":69,"velocity":105,"startTime":44.347832,"endTime":46.304354,"instrument":3,"program":50},{"pitch":58,"velocity":105,"startTime":46.304354,"endTime":46.956528,"instrument":3,"program":50},{"pitch":62,"velocity":105,"startTime":46.304354,"endTime":46.956528,"instrument":3,"program":50},{"pitch":66,"velocity":105,"startTime":46.304354,"endTime":46.956528,"instrument":3,"program":50},{"pitch":70,"velocity":105,"startTime":46.304354,"endTime":46.956528,"instrument":3,"program":50},{"pitch":62,"velocity":105,"startTime":46.956528,"endTime":49.56522399999999,"instrument":3,"program":50},{"pitch":67,"velocity":105,"startTime":46.956528,"endTime":49.56522399999999,"instrument":3,"program":50},{"pitch":74,"velocity":105,"startTime":46.956528,"endTime":49.56522399999999,"instrument":3,"program":50},{"pitch":62,"velocity":105,"startTime":49.56522399999999,"endTime":52.173919999999995,"instrument":3,"program":50},{"pitch":67,"velocity":105,"startTime":49.56522399999999,"endTime":52.173919999999995,"instrument":3,"program":50},{"pitch":74,"velocity":105,"startTime":49.56522399999999,"endTime":52.173919999999995,"instrument":3,"program":50},{"pitch":77,"velocity":105,"startTime":49.56522399999999,"endTime":52.173919999999995,"instrument":3,"program":50},{"pitch":60,"velocity":105,"startTime":52.173919999999995,"endTime":54.51087683333333,"instrument":3,"program":50},{"pitch":66,"velocity":105,"startTime":52.173919999999995,"endTime":54.456528999999996,"instrument":3,"program":50},{"pitch":69,"velocity":105,"startTime":52.173919999999995,"endTime":54.456528999999996,"instrument":3,"program":50},{"pitch":78,"velocity":105,"startTime":52.173919999999995,"endTime":54.51087683333333,"instrument":3,"program":50},{"pitch":62,"velocity":105,"startTime":52.6630505,"endTime":54.456528999999996,"instrument":3,"program":50},{"pitch":66,"velocity":105,"startTime":54.782616,"endTime":57.391312,"instrument":3,"program":50},{"pitch":69,"velocity":105,"startTime":54.782616,"endTime":57.391312,"instrument":3,"program":50},{"pitch":74,"velocity":105,"startTime":54.782616,"endTime":57.391312,"instrument":3,"program":50},{"pitch":76,"velocity":105,"startTime":54.782616,"endTime":57.391312,"instrument":3,"program":50},{"pitch":62,"velocity":105,"startTime":57.391312,"endTime":60.000007999999994,"instrument":3,"program":50},{"pitch":65,"velocity":105,"startTime":57.391312,"endTime":60.000007999999994,"instrument":3,"program":50},{"pitch":70,"velocity":105,"startTime":57.391312,"endTime":60.000007999999994,"instrument":3,"program":50},{"pitch":67,"velocity":105,"startTime":57.50000766666666,"endTime":60.000007999999994,"instrument":3,"program":50},{"pitch":58,"velocity":105,"startTime":60.000007999999994,"endTime":62.608703999999996,"instrument":3,"program":50},{"pitch":65,"velocity":105,"startTime":60.000007999999994,"endTime":62.608703999999996,"instrument":3,"program":50},{"pitch":67,"velocity":105,"startTime":60.000007999999994,"endTime":62.608703999999996,"instrument":3,"program":50},{"pitch":74,"velocity":105,"startTime":60.000007999999994,"endTime":62.608703999999996,"instrument":3,"program":50},{"pitch":35,"velocity":102,"startTime":62.608703999999996,"endTime":62.717399666666665,"isDrum":true},{"pitch":42,"velocity":102,"startTime":62.608703999999996,"endTime":62.717399666666665,"isDrum":true},{"pitch":51,"velocity":102,"startTime":62.608703999999996,"endTime":62.717399666666665,"isDrum":true},{"pitch":42,"velocity":102,"startTime":62.934791,"endTime":63.04348666666666,"isDrum":true},{"pitch":51,"velocity":102,"startTime":62.934791,"endTime":63.04348666666666,"isDrum":true},{"pitch":38,"velocity":102,"startTime":63.260878,"endTime":63.36957366666666,"isDrum":true},{"pitch":40,"velocity":102,"startTime":63.260878,"endTime":63.36957366666666,"isDrum":true},{"pitch":42,"velocity":102,"startTime":63.260878,"endTime":63.36957366666666,"isDrum":true},{"pitch":42,"velocity":102,"startTime":63.58696499999999,"endTime":63.69566066666666,"isDrum":true},{"pitch":51,"velocity":102,"startTime":63.58696499999999,"endTime":63.69566066666666,"isDrum":true},{"pitch":35,"velocity":102,"startTime":63.75000849999999,"endTime":63.85870416666666,"isDrum":true},{"pitch":35,"velocity":102,"startTime":63.91305199999999,"endTime":64.02174766666666,"isDrum":true},{"pitch":42,"velocity":102,"startTime":63.91305199999999,"endTime":64.02174766666666,"isDrum":true},{"pitch":42,"velocity":102,"startTime":64.0760955,"endTime":64.18479116666666,"isDrum":true},{"pitch":35,"velocity":102,"startTime":64.239139,"endTime":64.34783466666666,"isDrum":true},{"pitch":42,"velocity":102,"startTime":64.239139,"endTime":64.34783466666666,"isDrum":true},{"pitch":51,"velocity":102,"startTime":64.239139,"endTime":64.34783466666666,"isDrum":true},{"pitch":40,"velocity":102,"startTime":64.4021825,"endTime":64.51087816666666,"isDrum":true},{"pitch":38,"velocity":102,"startTime":64.565226,"endTime":64.67392166666666,"isDrum":true},{"pitch":42,"velocity":102,"startTime":64.565226,"endTime":64.67392166666666,"isDrum":true},{"pitch":40,"velocity":102,"startTime":64.7282695,"endTime":64.83696516666666,"isDrum":true},{"pitch":35,"velocity":102,"startTime":64.891313,"endTime":65.00000866666666,"isDrum":true},{"pitch":42,"velocity":102,"startTime":64.891313,"endTime":65.00000866666666,"isDrum":true},{"pitch":35,"velocity":102,"startTime":65.0543565,"endTime":65.16305216666666,"isDrum":true},{"pitch":35,"velocity":102,"startTime":65.2174,"endTime":65.32609566666666,"isDrum":true},{"pitch":42,"velocity":102,"startTime":65.2174,"endTime":65.32609566666666,"isDrum":true},{"pitch":40,"velocity":102,"startTime":65.3804435,"endTime":65.48913916666666,"isDrum":true},{"pitch":42,"velocity":102,"startTime":65.543487,"endTime":65.65218266666666,"isDrum":true},{"pitch":35,"velocity":102,"startTime":65.7065305,"endTime":65.81522616666666,"isDrum":true},{"pitch":38,"velocity":102,"startTime":65.869574,"endTime":65.97826966666666,"isDrum":true},{"pitch":40,"velocity":102,"startTime":65.869574,"endTime":65.97826966666666,"isDrum":true},{"pitch":42,"velocity":102,"startTime":65.869574,"endTime":65.97826966666666,"isDrum":true},{"pitch":42,"velocity":102,"startTime":66.195661,"endTime":66.30435666666666,"isDrum":true},{"pitch":40,"velocity":102,"startTime":66.3587045,"endTime":66.46740016666666,"isDrum":true},{"pitch":35,"velocity":102,"startTime":66.52174799999999,"endTime":66.63044366666666,"isDrum":true},{"pitch":42,"velocity":102,"startTime":66.52174799999999,"endTime":66.63044366666666,"isDrum":true},{"pitch":40,"velocity":102,"startTime":66.68479149999999,"endTime":66.79348716666667,"isDrum":true},{"pitch":35,"velocity":102,"startTime":66.84783499999999,"endTime":66.95653066666667,"isDrum":true},{"pitch":42,"velocity":102,"startTime":66.84783499999999,"endTime":66.95653066666667,"isDrum":true},{"pitch":38,"velocity":102,"startTime":67.17392199999999,"endTime":67.28261766666667,"isDrum":true},{"pitch":40,"velocity":102,"startTime":67.17392199999999,"endTime":67.28261766666667,"isDrum":true},{"pitch":42,"velocity":102,"startTime":67.17392199999999,"endTime":67.28261766666667,"isDrum":true},{"pitch":42,"velocity":102,"startTime":67.50000899999999,"endTime":67.60870466666667,"isDrum":true},{"pitch":35,"velocity":102,"startTime":67.82609599999999,"endTime":67.93479166666665,"isDrum":true},{"pitch":42,"velocity":102,"startTime":67.82609599999999,"endTime":67.93479166666665,"isDrum":true},{"pitch":42,"velocity":102,"startTime":68.152183,"endTime":68.26087866666666,"isDrum":true},{"pitch":38,"velocity":102,"startTime":68.47827,"endTime":68.58696566666666,"isDrum":true},{"pitch":40,"velocity":102,"startTime":68.47827,"endTime":68.58696566666666,"isDrum":true},{"pitch":42,"velocity":102,"startTime":68.47827,"endTime":68.58696566666666,"isDrum":true},{"pitch":42,"velocity":102,"startTime":68.804357,"endTime":68.91305266666666,"isDrum":true},{"pitch":35,"velocity":102,"startTime":68.9674005,"endTime":69.07609616666666,"isDrum":true},{"pitch":35,"velocity":102,"startTime":69.130444,"endTime":69.23913966666666,"isDrum":true},{"pitch":42,"velocity":102,"startTime":69.130444,"endTime":69.23913966666666,"isDrum":true},{"pitch":40,"velocity":102,"startTime":69.2934875,"endTime":69.40218316666666,"isDrum":true},{"pitch":35,"velocity":102,"startTime":69.456531,"endTime":69.56522666666666,"isDrum":true},{"pitch":42,"velocity":102,"startTime":69.456531,"endTime":69.56522666666666,"isDrum":true},{"pitch":35,"velocity":102,"startTime":69.6195745,"endTime":69.72827016666666,"isDrum":true},{"pitch":40,"velocity":102,"startTime":69.782618,"endTime":69.89131366666666,"isDrum":true},{"pitch":42,"velocity":102,"startTime":69.782618,"endTime":69.89131366666666,"isDrum":true},{"pitch":35,"velocity":102,"startTime":70.108705,"endTime":70.21740066666666,"isDrum":true},{"pitch":42,"velocity":102,"startTime":70.108705,"endTime":70.21740066666666,"isDrum":true},{"pitch":40,"velocity":102,"startTime":70.2717485,"endTime":70.38044416666666,"isDrum":true},{"pitch":35,"velocity":102,"startTime":70.434792,"endTime":70.54348766666666,"isDrum":true},{"pitch":42,"velocity":102,"startTime":70.434792,"endTime":70.54348766666666,"isDrum":true},{"pitch":42,"velocity":102,"startTime":70.76087899999999,"endTime":70.86957466666667,"isDrum":true},{"pitch":38,"velocity":102,"startTime":71.08696599999999,"endTime":71.19566166666667,"isDrum":true},{"pitch":40,"velocity":102,"startTime":71.08696599999999,"endTime":71.19566166666667,"isDrum":true},{"pitch":42,"velocity":102,"startTime":71.08696599999999,"endTime":71.19566166666667,"isDrum":true},{"pitch":42,"velocity":102,"startTime":71.41305299999999,"endTime":71.52174866666667,"isDrum":true},{"pitch":35,"velocity":102,"startTime":71.57609649999999,"endTime":71.68479216666667,"isDrum":true},{"pitch":35,"velocity":102,"startTime":71.73913999999999,"endTime":71.84783566666665,"isDrum":true},{"pitch":42,"velocity":102,"startTime":71.73913999999999,"endTime":71.84783566666665,"isDrum":true},{"pitch":38,"velocity":102,"startTime":71.90218349999999,"endTime":72.01087916666665,"isDrum":true},{"pitch":35,"velocity":102,"startTime":72.065227,"endTime":72.17392266666666,"isDrum":true},{"pitch":42,"velocity":102,"startTime":72.065227,"endTime":72.17392266666666,"isDrum":true},{"pitch":38,"velocity":102,"startTime":72.391314,"endTime":72.50000966666666,"isDrum":true},{"pitch":42,"velocity":102,"startTime":72.391314,"endTime":72.50000966666666,"isDrum":true},{"pitch":35,"velocity":102,"startTime":72.717401,"endTime":72.82609666666666,"isDrum":true},{"pitch":42,"velocity":102,"startTime":72.717401,"endTime":72.82609666666666,"isDrum":true},{"pitch":40,"velocity":102,"startTime":72.8804445,"endTime":72.98914016666666,"isDrum":true},{"pitch":35,"velocity":102,"startTime":73.043488,"endTime":73.15218366666666,"isDrum":true},{"pitch":42,"velocity":102,"startTime":73.043488,"endTime":73.15218366666666,"isDrum":true},{"pitch":42,"velocity":102,"startTime":73.369575,"endTime":73.47827066666666,"isDrum":true},{"pitch":38,"velocity":102,"startTime":73.695662,"endTime":73.80435766666666,"isDrum":true},{"pitch":42,"velocity":102,"startTime":73.695662,"endTime":73.80435766666666,"isDrum":true},{"pitch":35,"velocity":102,"startTime":74.021749,"endTime":74.13044466666666,"isDrum":true},{"pitch":42,"velocity":102,"startTime":74.021749,"endTime":74.13044466666666,"isDrum":true},{"pitch":40,"velocity":102,"startTime":74.1847925,"endTime":74.29348816666666,"isDrum":true},{"pitch":42,"velocity":102,"startTime":74.347836,"endTime":74.45653166666666,"isDrum":true},{"pitch":35,"velocity":102,"startTime":74.5108795,"endTime":74.61957516666666,"isDrum":true},{"pitch":42,"velocity":102,"startTime":74.67392299999999,"endTime":74.78261866666666,"isDrum":true},{"pitch":35,"velocity":102,"startTime":74.83696649999999,"endTime":74.94566216666666,"isDrum":true},{"pitch":38,"velocity":102,"startTime":75.00000999999999,"endTime":75.10870566666667,"isDrum":true},{"pitch":40,"velocity":102,"startTime":75.00000999999999,"endTime":75.10870566666667,"isDrum":true},{"pitch":42,"velocity":102,"startTime":75.00000999999999,"endTime":75.10870566666667,"isDrum":true},{"pitch":40,"velocity":102,"startTime":75.16305349999999,"endTime":75.27174916666667,"isDrum":true},{"pitch":42,"velocity":102,"startTime":75.32609699999999,"endTime":75.43479266666667,"isDrum":true},{"pitch":40,"velocity":102,"startTime":75.48914049999999,"endTime":75.59783616666667,"isDrum":true},{"pitch":35,"velocity":102,"startTime":75.65218399999999,"endTime":75.76087966666667,"isDrum":true},{"pitch":42,"velocity":102,"startTime":75.65218399999999,"endTime":75.76087966666667,"isDrum":true},{"pitch":42,"velocity":102,"startTime":75.97827099999999,"endTime":76.08696666666665,"isDrum":true},{"pitch":38,"velocity":102,"startTime":76.304358,"endTime":76.41305366666666,"isDrum":true},{"pitch":42,"velocity":102,"startTime":76.304358,"endTime":76.41305366666666,"isDrum":true},{"pitch":35,"velocity":102,"startTime":76.630445,"endTime":76.73914066666666,"isDrum":true},{"pitch":42,"velocity":102,"startTime":76.630445,"endTime":76.73914066666666,"isDrum":true},{"pitch":35,"velocity":102,"startTime":76.956532,"endTime":77.06522766666666,"isDrum":true},{"pitch":42,"velocity":102,"startTime":76.956532,"endTime":77.06522766666666,"isDrum":true},{"pitch":35,"velocity":102,"startTime":77.282619,"endTime":77.39131466666666,"isDrum":true},{"pitch":42,"velocity":102,"startTime":77.282619,"endTime":77.39131466666666,"isDrum":true},{"pitch":38,"velocity":102,"startTime":77.608706,"endTime":77.71740166666666,"isDrum":true},{"pitch":42,"velocity":102,"startTime":77.608706,"endTime":77.71740166666666,"isDrum":true},{"pitch":42,"velocity":102,"startTime":77.934793,"endTime":78.04348866666666,"isDrum":true},{"pitch":35,"velocity":102,"startTime":78.26088,"endTime":78.36957566666666,"isDrum":true},{"pitch":42,"velocity":102,"startTime":78.26088,"endTime":78.36957566666666,"isDrum":true},{"pitch":40,"velocity":102,"startTime":78.4239235,"endTime":78.53261916666666,"isDrum":true},{"pitch":42,"velocity":102,"startTime":78.58696699999999,"endTime":78.69566266666666,"isDrum":true},{"pitch":35,"velocity":102,"startTime":78.75001049999999,"endTime":78.85870616666666,"isDrum":true},{"pitch":38,"velocity":102,"startTime":78.91305399999999,"endTime":79.02174966666666,"isDrum":true},{"pitch":40,"velocity":102,"startTime":78.91305399999999,"endTime":79.02174966666666,"isDrum":true},{"pitch":42,"velocity":102,"startTime":78.91305399999999,"endTime":79.02174966666666,"isDrum":true},{"pitch":40,"velocity":102,"startTime":79.07609749999999,"endTime":79.18479316666667,"isDrum":true},{"pitch":42,"velocity":102,"startTime":79.23914099999999,"endTime":79.34783666666667,"isDrum":true},{"pitch":40,"velocity":102,"startTime":79.40218449999999,"endTime":79.51088016666667,"isDrum":true},{"pitch":42,"velocity":102,"startTime":79.56522799999999,"endTime":79.67392366666667,"isDrum":true},{"pitch":40,"velocity":102,"startTime":79.72827149999999,"endTime":79.83696716666667,"isDrum":true},{"pitch":35,"velocity":102,"startTime":79.89131499999999,"endTime":80.00001066666665,"isDrum":true},{"pitch":42,"velocity":102,"startTime":79.89131499999999,"endTime":80.00001066666665,"isDrum":true},{"pitch":40,"velocity":102,"startTime":80.05435849999999,"endTime":80.16305416666665,"isDrum":true},{"pitch":38,"velocity":102,"startTime":80.21740199999999,"endTime":80.32609766666666,"isDrum":true},{"pitch":42,"velocity":102,"startTime":80.21740199999999,"endTime":80.32609766666666,"isDrum":true},{"pitch":40,"velocity":102,"startTime":80.3804455,"endTime":80.48914116666666,"isDrum":true},{"pitch":42,"velocity":102,"startTime":80.543489,"endTime":80.65218466666666,"isDrum":true},{"pitch":40,"velocity":102,"startTime":80.7065325,"endTime":80.81522816666666,"isDrum":true},{"pitch":35,"velocity":102,"startTime":80.869576,"endTime":80.97827166666666,"isDrum":true},{"pitch":42,"velocity":102,"startTime":80.869576,"endTime":80.97827166666666,"isDrum":true},{"pitch":40,"velocity":102,"startTime":81.0326195,"endTime":81.14131516666666,"isDrum":true},{"pitch":42,"velocity":102,"startTime":81.195663,"endTime":81.30435866666666,"isDrum":true},{"pitch":35,"velocity":102,"startTime":81.3587065,"endTime":81.46740216666666,"isDrum":true},{"pitch":40,"velocity":102,"startTime":81.52175,"endTime":81.63044566666666,"isDrum":true},{"pitch":42,"velocity":102,"startTime":81.52175,"endTime":81.63044566666666,"isDrum":true},{"pitch":35,"velocity":102,"startTime":81.6847935,"endTime":81.79348916666666,"isDrum":true},{"pitch":46,"velocity":102,"startTime":81.847837,"endTime":81.95653266666666,"isDrum":true},{"pitch":67,"velocity":95,"startTime":62.7717475,"endTime":62.88044316666666,"instrument":1,"program":12},{"pitch":67,"velocity":95,"startTime":62.934791,"endTime":63.04348666666666,"instrument":1,"program":12},{"pitch":60,"velocity":95,"startTime":63.0978345,"endTime":63.20653016666666,"instrument":1,"program":12},{"pitch":67,"velocity":95,"startTime":63.260878,"endTime":63.36957366666666,"instrument":1,"program":12},{"pitch":67,"velocity":95,"startTime":63.4239215,"endTime":63.53261716666666,"instrument":1,"program":12},{"pitch":63,"velocity":95,"startTime":63.58696499999999,"endTime":63.69566066666666,"instrument":1,"program":12},{"pitch":60,"velocity":95,"startTime":63.75000849999999,"endTime":63.85870416666666,"instrument":1,"program":12},{"pitch":63,"velocity":95,"startTime":64.0760955,"endTime":64.18479116666666,"instrument":1,"program":12},{"pitch":67,"velocity":95,"startTime":64.239139,"endTime":64.34783466666666,"instrument":1,"program":12},{"pitch":60,"velocity":95,"startTime":64.4021825,"endTime":64.51087816666666,"instrument":1,"program":12},{"pitch":63,"velocity":95,"startTime":64.565226,"endTime":64.67392166666666,"instrument":1,"program":12},{"pitch":67,"velocity":95,"startTime":64.7282695,"endTime":64.83696516666666,"instrument":1,"program":12},{"pitch":72,"velocity":95,"startTime":64.891313,"endTime":65.00000866666666,"instrument":1,"program":12},{"pitch":67,"velocity":95,"startTime":65.0543565,"endTime":65.16305216666666,"instrument":1,"program":12},{"pitch":70,"velocity":95,"startTime":65.2174,"endTime":65.32609566666666,"instrument":1,"program":12},{"pitch":70,"velocity":95,"startTime":65.3804435,"endTime":65.48913916666666,"instrument":1,"program":12},{"pitch":72,"velocity":95,"startTime":65.543487,"endTime":65.65218266666666,"instrument":1,"program":12},{"pitch":70,"velocity":95,"startTime":65.7065305,"endTime":65.81522616666666,"instrument":1,"program":12},{"pitch":72,"velocity":95,"startTime":65.869574,"endTime":65.97826966666666,"instrument":1,"program":12},{"pitch":70,"velocity":95,"startTime":66.195661,"endTime":66.30435666666666,"instrument":1,"program":12},{"pitch":72,"velocity":95,"startTime":66.3587045,"endTime":66.46740016666666,"instrument":1,"program":12},{"pitch":75,"velocity":95,"startTime":66.52174799999999,"endTime":66.63044366666666,"instrument":1,"program":12},{"pitch":70,"velocity":95,"startTime":66.68479149999999,"endTime":66.79348716666667,"instrument":1,"program":12},{"pitch":70,"velocity":95,"startTime":66.84783499999999,"endTime":66.95653066666667,"instrument":1,"program":12},{"pitch":72,"velocity":95,"startTime":67.01087849999999,"endTime":67.11957416666667,"instrument":1,"program":12},{"pitch":75,"velocity":95,"startTime":67.17392199999999,"endTime":67.28261766666667,"instrument":1,"program":12},{"pitch":70,"velocity":95,"startTime":67.33696549999999,"endTime":67.39131333333333,"instrument":1,"program":12},{"pitch":72,"velocity":95,"startTime":67.50000899999999,"endTime":67.60870466666667,"instrument":1,"program":12},{"pitch":70,"velocity":95,"startTime":67.66305249999999,"endTime":67.77174816666667,"instrument":1,"program":12},{"pitch":67,"velocity":95,"startTime":67.82609599999999,"endTime":67.9891395,"instrument":1,"program":12},{"pitch":67,"velocity":95,"startTime":67.9891395,"endTime":68.09783516666666,"instrument":1,"program":12},{"pitch":70,"velocity":95,"startTime":68.152183,"endTime":68.26087866666666,"instrument":1,"program":12},{"pitch":67,"velocity":95,"startTime":68.3152265,"endTime":68.42392216666666,"instrument":1,"program":12},{"pitch":70,"velocity":95,"startTime":68.47827,"endTime":68.58696566666666,"instrument":1,"program":12},{"pitch":67,"velocity":95,"startTime":68.6413135,"endTime":68.75000916666666,"instrument":1,"program":12},{"pitch":70,"velocity":95,"startTime":68.804357,"endTime":68.91305266666666,"instrument":1,"program":12},{"pitch":67,"velocity":95,"startTime":68.9674005,"endTime":69.07609616666666,"instrument":1,"program":12},{"pitch":70,"velocity":95,"startTime":69.130444,"endTime":69.23913966666666,"instrument":1,"program":12},{"pitch":67,"velocity":95,"startTime":69.2934875,"endTime":69.40218316666666,"instrument":1,"program":12},{"pitch":70,"velocity":95,"startTime":69.456531,"endTime":69.56522666666666,"instrument":1,"program":12},{"pitch":67,"velocity":95,"startTime":69.6195745,"endTime":69.782618,"instrument":1,"program":12},{"pitch":70,"velocity":95,"startTime":69.782618,"endTime":69.89131366666666,"instrument":1,"program":12},{"pitch":67,"velocity":95,"startTime":69.9456615,"endTime":70.05435716666666,"instrument":1,"program":12},{"pitch":70,"velocity":95,"startTime":70.108705,"endTime":70.21740066666666,"instrument":1,"program":12},{"pitch":67,"velocity":95,"startTime":70.2717485,"endTime":70.38044416666666,"instrument":1,"program":12},{"pitch":70,"velocity":95,"startTime":70.434792,"endTime":70.54348766666666,"instrument":1,"program":12},{"pitch":67,"velocity":95,"startTime":70.59783549999999,"endTime":70.70653116666666,"instrument":1,"program":12},{"pitch":70,"velocity":95,"startTime":70.76087899999999,"endTime":70.86957466666667,"instrument":1,"program":12},{"pitch":67,"velocity":95,"startTime":70.92392249999999,"endTime":71.03261816666667,"instrument":1,"program":12},{"pitch":70,"velocity":95,"startTime":71.08696599999999,"endTime":71.19566166666667,"instrument":1,"program":12},{"pitch":70,"velocity":95,"startTime":71.25000949999999,"endTime":71.35870516666667,"instrument":1,"program":12},{"pitch":67,"velocity":95,"startTime":71.41305299999999,"endTime":71.52174866666667,"instrument":1,"program":12},{"pitch":70,"velocity":95,"startTime":71.57609649999999,"endTime":71.68479216666667,"instrument":1,"program":12},{"pitch":67,"velocity":95,"startTime":71.73913999999999,"endTime":71.84783566666665,"instrument":1,"program":12},{"pitch":70,"velocity":95,"startTime":71.90218349999999,"endTime":72.01087916666665,"instrument":1,"program":12},{"pitch":67,"velocity":95,"startTime":72.065227,"endTime":72.17392266666666,"instrument":1,"program":12},{"pitch":70,"velocity":95,"startTime":72.2282705,"endTime":72.33696616666666,"instrument":1,"program":12},{"pitch":67,"velocity":95,"startTime":72.391314,"endTime":72.50000966666666,"instrument":1,"program":12},{"pitch":70,"velocity":95,"startTime":72.5543575,"endTime":72.66305316666666,"instrument":1,"program":12},{"pitch":67,"velocity":95,"startTime":72.717401,"endTime":72.82609666666666,"instrument":1,"program":12},{"pitch":70,"velocity":95,"startTime":72.8804445,"endTime":72.98914016666666,"instrument":1,"program":12},{"pitch":69,"velocity":95,"startTime":73.043488,"endTime":73.15218366666666,"instrument":1,"program":12},{"pitch":72,"velocity":95,"startTime":73.2065315,"endTime":73.31522716666666,"instrument":1,"program":12},{"pitch":74,"velocity":95,"startTime":73.369575,"endTime":73.47827066666666,"instrument":1,"program":12},{"pitch":69,"velocity":95,"startTime":73.5326185,"endTime":73.64131416666666,"instrument":1,"program":12},{"pitch":74,"velocity":95,"startTime":73.695662,"endTime":73.80435766666666,"instrument":1,"program":12},{"pitch":74,"velocity":95,"startTime":73.8587055,"endTime":73.96740116666666,"instrument":1,"program":12},{"pitch":69,"velocity":95,"startTime":74.021749,"endTime":74.13044466666666,"instrument":1,"program":12},{"pitch":74,"velocity":95,"startTime":74.1847925,"endTime":74.29348816666666,"instrument":1,"program":12},{"pitch":69,"velocity":95,"startTime":74.347836,"endTime":74.45653166666666,"instrument":1,"program":12},{"pitch":74,"velocity":95,"startTime":74.5108795,"endTime":74.61957516666666,"instrument":1,"program":12},{"pitch":69,"velocity":95,"startTime":74.67392299999999,"endTime":74.78261866666666,"instrument":1,"program":12},{"pitch":74,"velocity":95,"startTime":74.83696649999999,"endTime":74.94566216666666,"instrument":1,"program":12},{"pitch":74,"velocity":95,"startTime":75.00000999999999,"endTime":75.10870566666667,"instrument":1,"program":12},{"pitch":69,"velocity":95,"startTime":75.16305349999999,"endTime":75.27174916666667,"instrument":1,"program":12},{"pitch":74,"velocity":95,"startTime":75.32609699999999,"endTime":75.43479266666667,"instrument":1,"program":12},{"pitch":69,"velocity":95,"startTime":75.48914049999999,"endTime":75.59783616666667,"instrument":1,"program":12},{"pitch":74,"velocity":95,"startTime":75.65218399999999,"endTime":75.76087966666667,"instrument":1,"program":12},{"pitch":69,"velocity":95,"startTime":75.81522749999999,"endTime":75.92392316666665,"instrument":1,"program":12},{"pitch":72,"velocity":95,"startTime":75.97827099999999,"endTime":76.08696666666665,"instrument":1,"program":12},{"pitch":74,"velocity":95,"startTime":76.1413145,"endTime":76.25001016666666,"instrument":1,"program":12},{"pitch":69,"velocity":95,"startTime":76.304358,"endTime":76.41305366666666,"instrument":1,"program":12},{"pitch":74,"velocity":95,"startTime":76.4674015,"endTime":76.57609716666666,"instrument":1,"program":12},{"pitch":69,"velocity":95,"startTime":76.630445,"endTime":76.73914066666666,"instrument":1,"program":12},{"pitch":74,"velocity":95,"startTime":76.7934885,"endTime":76.90218416666666,"instrument":1,"program":12},{"pitch":74,"velocity":95,"startTime":76.956532,"endTime":77.06522766666666,"instrument":1,"program":12},{"pitch":69,"velocity":95,"startTime":77.1195755,"endTime":77.22827116666666,"instrument":1,"program":12},{"pitch":72,"velocity":95,"startTime":77.282619,"endTime":77.39131466666666,"instrument":1,"program":12},{"pitch":74,"velocity":95,"startTime":77.4456625,"endTime":77.55435816666666,"instrument":1,"program":12},{"pitch":74,"velocity":95,"startTime":77.608706,"endTime":77.71740166666666,"instrument":1,"program":12},{"pitch":69,"velocity":95,"startTime":77.7717495,"endTime":77.88044516666666,"instrument":1,"program":12},{"pitch":72,"velocity":95,"startTime":77.934793,"endTime":78.04348866666666,"instrument":1,"program":12},{"pitch":69,"velocity":95,"startTime":78.0978365,"endTime":78.20653216666666,"instrument":1,"program":12},{"pitch":67,"velocity":95,"startTime":78.26088,"endTime":78.36957566666666,"instrument":1,"program":12},{"pitch":67,"velocity":95,"startTime":78.4239235,"endTime":78.53261916666666,"instrument":1,"program":12},{"pitch":70,"velocity":95,"startTime":78.58696699999999,"endTime":78.69566266666666,"instrument":1,"program":12},{"pitch":67,"velocity":95,"startTime":78.75001049999999,"endTime":78.85870616666666,"instrument":1,"program":12},{"pitch":70,"velocity":95,"startTime":78.91305399999999,"endTime":79.02174966666666,"instrument":1,"program":12},{"pitch":67,"velocity":95,"startTime":79.07609749999999,"endTime":79.18479316666667,"instrument":1,"program":12},{"pitch":70,"velocity":95,"startTime":79.23914099999999,"endTime":79.34783666666667,"instrument":1,"program":12},{"pitch":67,"velocity":95,"startTime":79.40218449999999,"endTime":79.51088016666667,"instrument":1,"program":12},{"pitch":70,"velocity":95,"startTime":79.56522799999999,"endTime":79.67392366666667,"instrument":1,"program":12},{"pitch":67,"velocity":95,"startTime":79.72827149999999,"endTime":79.83696716666667,"instrument":1,"program":12},{"pitch":70,"velocity":95,"startTime":79.89131499999999,"endTime":80.00001066666665,"instrument":1,"program":12},{"pitch":67,"velocity":95,"startTime":80.05435849999999,"endTime":80.16305416666665,"instrument":1,"program":12},{"pitch":70,"velocity":95,"startTime":80.21740199999999,"endTime":80.32609766666666,"instrument":1,"program":12},{"pitch":70,"velocity":95,"startTime":80.3804455,"endTime":80.48914116666666,"instrument":1,"program":12},{"pitch":67,"velocity":95,"startTime":80.543489,"endTime":80.65218466666666,"instrument":1,"program":12},{"pitch":70,"velocity":95,"startTime":80.7065325,"endTime":80.81522816666666,"instrument":1,"program":12},{"pitch":66,"velocity":95,"startTime":80.869576,"endTime":80.97827166666666,"instrument":1,"program":12},{"pitch":69,"velocity":95,"startTime":81.0326195,"endTime":81.14131516666666,"instrument":1,"program":12},{"pitch":72,"velocity":95,"startTime":81.195663,"endTime":81.30435866666666,"instrument":1,"program":12},{"pitch":69,"velocity":95,"startTime":81.3587065,"endTime":81.46740216666666,"instrument":1,"program":12},{"pitch":81,"velocity":95,"startTime":81.52175,"endTime":81.63044566666666,"instrument":1,"program":12},{"pitch":69,"velocity":95,"startTime":81.6847935,"endTime":81.79348916666666,"instrument":1,"program":12},{"pitch":69,"velocity":95,"startTime":81.847837,"endTime":81.95653266666666,"instrument":1,"program":12},{"pitch":69,"velocity":95,"startTime":82.0108805,"endTime":82.11957616666666,"instrument":1,"program":12},{"pitch":74,"velocity":95,"startTime":82.173924,"endTime":82.28261966666666,"instrument":1,"program":12},{"pitch":74,"velocity":95,"startTime":82.3369675,"endTime":82.44566316666666,"instrument":1,"program":12},{"pitch":74,"velocity":95,"startTime":82.500011,"endTime":82.60870666666666,"instrument":1,"program":12},{"pitch":74,"velocity":95,"startTime":82.66305449999999,"endTime":82.77175016666666,"instrument":1,"program":12},{"pitch":69,"velocity":95,"startTime":82.82609799999999,"endTime":82.93479366666666,"instrument":1,"program":12},{"pitch":74,"velocity":95,"startTime":82.98914149999999,"endTime":83.09783716666666,"instrument":1,"program":12},{"pitch":74,"velocity":95,"startTime":83.15218499999999,"endTime":83.26088066666667,"instrument":1,"program":12},{"pitch":69,"velocity":95,"startTime":83.31522849999999,"endTime":83.42392416666667,"instrument":1,"program":12},{"pitch":34,"velocity":110,"startTime":62.608703999999996,"endTime":62.7717475,"instrument":2,"program":32},{"pitch":36,"velocity":110,"startTime":62.934791,"endTime":63.0978345,"instrument":2,"program":32},{"pitch":36,"velocity":110,"startTime":63.260878,"endTime":63.4239215,"instrument":2,"program":32},{"pitch":31,"velocity":110,"startTime":63.58696499999999,"endTime":63.75000849999999,"instrument":2,"program":32},{"pitch":36,"velocity":110,"startTime":63.91305199999999,"endTime":64.0760955,"instrument":2,"program":32},{"pitch":48,"velocity":110,"startTime":64.239139,"endTime":64.4021825,"instrument":2,"program":32},{"pitch":43,"velocity":110,"startTime":64.565226,"endTime":64.7282695,"instrument":2,"program":32},{"pitch":36,"velocity":110,"startTime":64.891313,"endTime":65.0543565,"instrument":2,"program":32},{"pitch":36,"velocity":110,"startTime":65.2174,"endTime":65.3804435,"instrument":2,"program":32},{"pitch":31,"velocity":110,"startTime":65.543487,"endTime":65.7065305,"instrument":2,"program":32},{"pitch":36,"velocity":110,"startTime":65.869574,"endTime":66.0326175,"instrument":2,"program":32},{"pitch":36,"velocity":110,"startTime":66.195661,"endTime":66.3587045,"instrument":2,"program":32},{"pitch":39,"velocity":110,"startTime":66.52174799999999,"endTime":66.68479149999999,"instrument":2,"program":32},{"pitch":27,"velocity":110,"startTime":66.84783499999999,"endTime":67.01087849999999,"instrument":2,"program":32},{"pitch":39,"velocity":110,"startTime":67.17392199999999,"endTime":67.33696549999999,"instrument":2,"program":32},{"pitch":48,"velocity":110,"startTime":67.50000899999999,"endTime":67.66305249999999,"instrument":2,"program":32},{"pitch":43,"velocity":110,"startTime":67.82609599999999,"endTime":67.9891395,"instrument":2,"program":32},{"pitch":43,"velocity":110,"startTime":68.152183,"endTime":68.3152265,"instrument":2,"program":32},{"pitch":43,"velocity":110,"startTime":68.47827,"endTime":68.6413135,"instrument":2,"program":32},{"pitch":38,"velocity":110,"startTime":68.804357,"endTime":68.9674005,"instrument":2,"program":32},{"pitch":34,"velocity":110,"startTime":69.130444,"endTime":69.2934875,"instrument":2,"program":32},{"pitch":34,"velocity":110,"startTime":69.456531,"endTime":69.72827016666666,"instrument":2,"program":32},{"pitch":36,"velocity":110,"startTime":69.782618,"endTime":69.9456615,"instrument":2,"program":32},{"pitch":34,"velocity":110,"startTime":70.108705,"endTime":70.2717485,"instrument":2,"program":32},{"pitch":43,"velocity":110,"startTime":70.434792,"endTime":70.59783549999999,"instrument":2,"program":32},{"pitch":43,"velocity":110,"startTime":70.76087899999999,"endTime":70.92392249999999,"instrument":2,"program":32},{"pitch":43,"velocity":110,"startTime":71.08696599999999,"endTime":71.25000949999999,"instrument":2,"program":32},{"pitch":35,"velocity":110,"startTime":71.41305299999999,"endTime":71.57609649999999,"instrument":2,"program":32},{"pitch":34,"velocity":110,"startTime":71.73913999999999,"endTime":71.90218349999999,"instrument":2,"program":32},{"pitch":34,"velocity":110,"startTime":72.065227,"endTime":72.2282705,"instrument":2,"program":32},{"pitch":38,"velocity":110,"startTime":72.391314,"endTime":72.5543575,"instrument":2,"program":32},{"pitch":38,"velocity":110,"startTime":72.717401,"endTime":72.8804445,"instrument":2,"program":32},{"pitch":38,"velocity":110,"startTime":73.043488,"endTime":73.2065315,"instrument":2,"program":32},{"pitch":42,"velocity":110,"startTime":73.369575,"endTime":73.5326185,"instrument":2,"program":32},{"pitch":42,"velocity":110,"startTime":73.695662,"endTime":73.8587055,"instrument":2,"program":32},{"pitch":38,"velocity":110,"startTime":74.021749,"endTime":74.1847925,"instrument":2,"program":32},{"pitch":33,"velocity":110,"startTime":74.347836,"endTime":74.5108795,"instrument":2,"program":32},{"pitch":33,"velocity":110,"startTime":74.67392299999999,"endTime":74.83696649999999,"instrument":2,"program":32},{"pitch":38,"velocity":110,"startTime":75.00000999999999,"endTime":75.16305349999999,"instrument":2,"program":32},{"pitch":38,"velocity":110,"startTime":75.32609699999999,"endTime":75.48914049999999,"instrument":2,"program":32},{"pitch":38,"velocity":110,"startTime":75.65218399999999,"endTime":75.81522749999999,"instrument":2,"program":32},{"pitch":38,"velocity":110,"startTime":75.97827099999999,"endTime":76.1413145,"instrument":2,"program":32},{"pitch":38,"velocity":110,"startTime":76.304358,"endTime":76.4674015,"instrument":2,"program":32},{"pitch":38,"velocity":110,"startTime":76.630445,"endTime":76.90218416666666,"instrument":2,"program":32},{"pitch":33,"velocity":110,"startTime":76.956532,"endTime":77.1195755,"instrument":2,"program":32},{"pitch":33,"velocity":110,"startTime":77.282619,"endTime":77.4456625,"instrument":2,"program":32},{"pitch":33,"velocity":110,"startTime":77.608706,"endTime":77.7717495,"instrument":2,"program":32},{"pitch":38,"velocity":110,"startTime":77.934793,"endTime":78.0978365,"instrument":2,"program":32},{"pitch":31,"velocity":110,"startTime":78.26088,"endTime":78.4239235,"instrument":2,"program":32},{"pitch":38,"velocity":110,"startTime":80.869576,"endTime":81.0326195,"instrument":2,"program":32},{"pitch":38,"velocity":110,"startTime":81.195663,"endTime":81.3587065,"instrument":2,"program":32},{"pitch":33,"velocity":110,"startTime":81.52175,"endTime":81.6847935,"instrument":2,"program":32},{"pitch":38,"velocity":110,"startTime":81.847837,"endTime":82.0108805,"instrument":2,"program":32},{"pitch":43,"velocity":110,"startTime":82.173924,"endTime":82.3369675,"instrument":2,"program":32},{"pitch":43,"velocity":110,"startTime":82.500011,"endTime":82.66305449999999,"instrument":2,"program":32},{"pitch":43,"velocity":110,"startTime":82.82609799999999,"endTime":82.98914149999999,"instrument":2,"program":32},{"pitch":38,"velocity":110,"startTime":83.15218499999999,"endTime":83.31522849999999,"instrument":2,"program":32},{"pitch":60,"velocity":105,"startTime":62.608703999999996,"endTime":65.0543565,"instrument":3,"program":50},{"pitch":63,"velocity":105,"startTime":62.608703999999996,"endTime":65.10870433333334,"instrument":3,"program":50},{"pitch":67,"velocity":105,"startTime":62.608703999999996,"endTime":65.10870433333334,"instrument":3,"program":50},{"pitch":62,"velocity":105,"startTime":65.2174,"endTime":67.71740033333333,"instrument":3,"program":50},{"pitch":67,"velocity":105,"startTime":65.2174,"endTime":67.71740033333333,"instrument":3,"program":50},{"pitch":74,"velocity":105,"startTime":65.2174,"endTime":67.71740033333333,"instrument":3,"program":50},{"pitch":55,"velocity":105,"startTime":67.82609599999999,"endTime":70.05435716666666,"instrument":3,"program":50},{"pitch":58,"velocity":105,"startTime":67.82609599999999,"endTime":70.16305283333332,"instrument":3,"program":50},{"pitch":62,"velocity":105,"startTime":67.82609599999999,"endTime":70.05435716666666,"instrument":3,"program":50},{"pitch":67,"velocity":105,"startTime":67.82609599999999,"endTime":70.108705,"instrument":3,"program":50},{"pitch":67,"velocity":105,"startTime":70.434792,"endTime":73.043488,"instrument":3,"program":50},{"pitch":74,"velocity":105,"startTime":70.434792,"endTime":71.57609649999999,"instrument":3,"program":50},{"pitch":62,"velocity":105,"startTime":70.48913983333333,"endTime":73.043488,"instrument":3,"program":50},{"pitch":55,"velocity":105,"startTime":70.76087899999999,"endTime":73.043488,"instrument":3,"program":50},{"pitch":58,"velocity":105,"startTime":71.08696599999999,"endTime":73.043488,"instrument":3,"program":50},{"pitch":54,"velocity":105,"startTime":73.043488,"endTime":74.5108795,"instrument":3,"program":50},{"pitch":62,"velocity":105,"startTime":73.043488,"endTime":73.695662,"instrument":3,"program":50},{"pitch":72,"velocity":105,"startTime":73.043488,"endTime":73.64131416666666,"instrument":3,"program":50},{"pitch":78,"velocity":105,"startTime":73.043488,"endTime":73.91305333333332,"instrument":3,"program":50},{"pitch":66,"velocity":105,"startTime":74.021749,"endTime":75.32609699999999,"instrument":3,"program":50},{"pitch":78,"velocity":105,"startTime":74.021749,"endTime":74.1847925,"instrument":3,"program":50},{"pitch":72,"velocity":105,"startTime":74.347836,"endTime":75.32609699999999,"instrument":3,"program":50},{"pitch":78,"velocity":105,"startTime":74.347836,"endTime":74.40218383333332,"instrument":3,"program":50},{"pitch":78,"velocity":105,"startTime":74.72827083333333,"endTime":74.83696649999999,"instrument":3,"program":50},{"pitch":78,"velocity":105,"startTime":75.00000999999999,"endTime":75.32609699999999,"instrument":3,"program":50},{"pitch":54,"velocity":105,"startTime":75.32609699999999,"endTime":75.48914049999999,"instrument":3,"program":50},{"pitch":57,"velocity":105,"startTime":75.65218399999999,"endTime":78.15218433333332,"instrument":3,"program":50},{"pitch":60,"velocity":105,"startTime":75.65218399999999,"endTime":78.26088,"instrument":3,"program":50},{"pitch":64,"velocity":105,"startTime":75.65218399999999,"endTime":78.15218433333332,"instrument":3,"program":50},{"pitch":67,"velocity":105,"startTime":75.65218399999999,"endTime":78.26088,"instrument":3,"program":50},{"pitch":62,"velocity":105,"startTime":78.26088,"endTime":78.47827133333332,"instrument":3,"program":50},{"pitch":70,"velocity":105,"startTime":78.26088,"endTime":78.47827133333332,"instrument":3,"program":50},{"pitch":82,"velocity":105,"startTime":78.26088,"endTime":78.47827133333332,"instrument":3,"program":50},{"pitch":60,"velocity":105,"startTime":80.869576,"endTime":82.173924,"instrument":3,"program":50},{"pitch":62,"velocity":105,"startTime":80.869576,"endTime":82.173924,"instrument":3,"program":50},{"pitch":66,"velocity":105,"startTime":80.869576,"endTime":82.173924,"instrument":3,"program":50},{"pitch":70,"velocity":105,"startTime":80.869576,"endTime":82.173924,"instrument":3,"program":50},{"pitch":58,"velocity":105,"startTime":82.173924,"endTime":82.3369675,"instrument":3,"program":50},{"pitch":62,"velocity":105,"startTime":82.173924,"endTime":82.3369675,"instrument":3,"program":50},{"pitch":67,"velocity":105,"startTime":82.173924,"endTime":82.3369675,"instrument":3,"program":50},{"pitch":74,"velocity":105,"startTime":82.173924,"endTime":82.3369675,"instrument":3,"program":50},{"pitch":35,"velocity":102,"startTime":83.47827199999999,"endTime":83.64131549999999,"isDrum":true},{"pitch":42,"velocity":102,"startTime":83.47827199999999,"endTime":83.64131549999999,"isDrum":true},{"pitch":51,"velocity":102,"startTime":83.47827199999999,"endTime":83.64131549999999,"isDrum":true},{"pitch":42,"velocity":102,"startTime":83.80435899999999,"endTime":83.96740249999999,"isDrum":true},{"pitch":38,"velocity":102,"startTime":84.13044599999999,"endTime":84.29348949999999,"isDrum":true},{"pitch":42,"velocity":102,"startTime":84.13044599999999,"endTime":84.29348949999999,"isDrum":true},{"pitch":51,"velocity":102,"startTime":84.13044599999999,"endTime":84.29348949999999,"isDrum":true},{"pitch":42,"velocity":102,"startTime":84.456533,"endTime":84.6195765,"isDrum":true},{"pitch":35,"velocity":102,"startTime":84.78262,"endTime":84.9456635,"isDrum":true},{"pitch":42,"velocity":102,"startTime":84.78262,"endTime":84.9456635,"isDrum":true},{"pitch":51,"velocity":102,"startTime":84.78262,"endTime":84.9456635,"isDrum":true},{"pitch":35,"velocity":102,"startTime":85.108707,"endTime":85.2717505,"isDrum":true},{"pitch":42,"velocity":102,"startTime":85.108707,"endTime":85.2717505,"isDrum":true},{"pitch":38,"velocity":102,"startTime":85.434794,"endTime":85.5978375,"isDrum":true},{"pitch":42,"velocity":102,"startTime":85.434794,"endTime":85.5978375,"isDrum":true},{"pitch":51,"velocity":102,"startTime":85.434794,"endTime":85.5978375,"isDrum":true},{"pitch":35,"velocity":102,"startTime":85.760881,"endTime":85.9239245,"isDrum":true},{"pitch":42,"velocity":102,"startTime":85.760881,"endTime":85.9239245,"isDrum":true},{"pitch":35,"velocity":102,"startTime":86.086968,"endTime":86.2500115,"isDrum":true},{"pitch":42,"velocity":102,"startTime":86.086968,"endTime":86.2500115,"isDrum":true},{"pitch":51,"velocity":102,"startTime":86.086968,"endTime":86.2500115,"isDrum":true},{"pitch":42,"velocity":102,"startTime":86.413055,"endTime":86.5760985,"isDrum":true},{"pitch":38,"velocity":102,"startTime":86.73914199999999,"endTime":86.90218549999999,"isDrum":true},{"pitch":42,"velocity":102,"startTime":86.73914199999999,"endTime":86.90218549999999,"isDrum":true},{"pitch":51,"velocity":102,"startTime":86.73914199999999,"endTime":86.90218549999999,"isDrum":true},{"pitch":42,"velocity":102,"startTime":87.06522899999999,"endTime":87.22827249999999,"isDrum":true},{"pitch":35,"velocity":102,"startTime":87.39131599999999,"endTime":87.55435949999999,"isDrum":true},{"pitch":42,"velocity":102,"startTime":87.39131599999999,"endTime":87.55435949999999,"isDrum":true},{"pitch":51,"velocity":102,"startTime":87.39131599999999,"endTime":87.55435949999999,"isDrum":true},{"pitch":35,"velocity":102,"startTime":87.71740299999999,"endTime":87.88044649999999,"isDrum":true},{"pitch":42,"velocity":102,"startTime":87.71740299999999,"endTime":87.88044649999999,"isDrum":true},{"pitch":38,"velocity":102,"startTime":88.04348999999999,"endTime":88.20653349999999,"isDrum":true},{"pitch":42,"velocity":102,"startTime":88.04348999999999,"endTime":88.20653349999999,"isDrum":true},{"pitch":51,"velocity":102,"startTime":88.04348999999999,"endTime":88.20653349999999,"isDrum":true},{"pitch":51,"velocity":102,"startTime":88.20653349999999,"endTime":88.36957699999999,"isDrum":true},{"pitch":35,"velocity":102,"startTime":88.36957699999999,"endTime":88.5326205,"isDrum":true},{"pitch":42,"velocity":102,"startTime":88.36957699999999,"endTime":88.5326205,"isDrum":true},{"pitch":35,"velocity":102,"startTime":88.695664,"endTime":88.8587075,"isDrum":true},{"pitch":42,"velocity":102,"startTime":88.695664,"endTime":88.8587075,"isDrum":true},{"pitch":51,"velocity":102,"startTime":88.695664,"endTime":88.8587075,"isDrum":true},{"pitch":42,"velocity":102,"startTime":89.021751,"endTime":89.1847945,"isDrum":true},{"pitch":38,"velocity":102,"startTime":89.347838,"endTime":89.5108815,"isDrum":true},{"pitch":42,"velocity":102,"startTime":89.347838,"endTime":89.5108815,"isDrum":true},{"pitch":42,"velocity":102,"startTime":89.673925,"endTime":89.8369685,"isDrum":true},{"pitch":35,"velocity":102,"startTime":90.000012,"endTime":90.1630555,"isDrum":true},{"pitch":42,"velocity":102,"startTime":90.000012,"endTime":90.1630555,"isDrum":true},{"pitch":51,"velocity":102,"startTime":90.000012,"endTime":90.1630555,"isDrum":true},{"pitch":42,"velocity":102,"startTime":90.326099,"endTime":90.4891425,"isDrum":true},{"pitch":38,"velocity":102,"startTime":90.65218599999999,"endTime":90.81522949999999,"isDrum":true},{"pitch":42,"velocity":102,"startTime":90.65218599999999,"endTime":90.81522949999999,"isDrum":true},{"pitch":51,"velocity":102,"startTime":90.65218599999999,"endTime":90.81522949999999,"isDrum":true},{"pitch":35,"velocity":102,"startTime":90.97827299999999,"endTime":91.14131649999999,"isDrum":true},{"pitch":42,"velocity":102,"startTime":90.97827299999999,"endTime":91.14131649999999,"isDrum":true},{"pitch":42,"velocity":102,"startTime":91.14131649999999,"endTime":91.30435999999999,"isDrum":true},{"pitch":35,"velocity":102,"startTime":91.30435999999999,"endTime":91.46740349999999,"isDrum":true},{"pitch":42,"velocity":102,"startTime":91.30435999999999,"endTime":91.46740349999999,"isDrum":true},{"pitch":51,"velocity":102,"startTime":91.30435999999999,"endTime":91.46740349999999,"isDrum":true},{"pitch":42,"velocity":102,"startTime":91.63044699999999,"endTime":91.79349049999999,"isDrum":true},{"pitch":38,"velocity":102,"startTime":91.95653399999999,"endTime":92.11957749999999,"isDrum":true},{"pitch":42,"velocity":102,"startTime":91.95653399999999,"endTime":92.11957749999999,"isDrum":true},{"pitch":51,"velocity":102,"startTime":91.95653399999999,"endTime":92.11957749999999,"isDrum":true},{"pitch":42,"velocity":102,"startTime":92.28262099999999,"endTime":92.44566449999999,"isDrum":true},{"pitch":35,"velocity":102,"startTime":92.608708,"endTime":92.7717515,"isDrum":true},{"pitch":42,"velocity":102,"startTime":92.608708,"endTime":92.7717515,"isDrum":true},{"pitch":51,"velocity":102,"startTime":92.608708,"endTime":92.7717515,"isDrum":true},{"pitch":42,"velocity":102,"startTime":92.934795,"endTime":93.0978385,"isDrum":true},{"pitch":38,"velocity":102,"startTime":93.260882,"endTime":93.4239255,"isDrum":true},{"pitch":42,"velocity":102,"startTime":93.260882,"endTime":93.4239255,"isDrum":true},{"pitch":51,"velocity":102,"startTime":93.260882,"endTime":93.4239255,"isDrum":true},{"pitch":42,"velocity":102,"startTime":93.586969,"endTime":93.7500125,"isDrum":true},{"pitch":35,"velocity":102,"startTime":93.913056,"endTime":94.0760995,"isDrum":true},{"pitch":42,"velocity":102,"startTime":93.913056,"endTime":94.0760995,"isDrum":true},{"pitch":51,"velocity":102,"startTime":93.913056,"endTime":94.0760995,"isDrum":true},{"pitch":35,"velocity":102,"startTime":94.239143,"endTime":94.4021865,"isDrum":true},{"pitch":42,"velocity":102,"startTime":94.239143,"endTime":94.4021865,"isDrum":true},{"pitch":38,"velocity":102,"startTime":94.56523,"endTime":94.72827349999999,"isDrum":true},{"pitch":42,"velocity":102,"startTime":94.56523,"endTime":94.72827349999999,"isDrum":true},{"pitch":51,"velocity":102,"startTime":94.56523,"endTime":94.72827349999999,"isDrum":true},{"pitch":35,"velocity":102,"startTime":94.89131699999999,"endTime":95.05436049999999,"isDrum":true},{"pitch":42,"velocity":102,"startTime":94.89131699999999,"endTime":95.05436049999999,"isDrum":true},{"pitch":42,"velocity":102,"startTime":95.05436049999999,"endTime":95.21740399999999,"isDrum":true},{"pitch":35,"velocity":102,"startTime":95.21740399999999,"endTime":95.38044749999999,"isDrum":true},{"pitch":42,"velocity":102,"startTime":95.21740399999999,"endTime":95.38044749999999,"isDrum":true},{"pitch":51,"velocity":102,"startTime":95.21740399999999,"endTime":95.38044749999999,"isDrum":true},{"pitch":42,"velocity":102,"startTime":95.54349099999999,"endTime":95.70653449999999,"isDrum":true},{"pitch":38,"velocity":102,"startTime":95.86957799999999,"endTime":96.03262149999999,"isDrum":true},{"pitch":42,"velocity":102,"startTime":95.86957799999999,"endTime":96.03262149999999,"isDrum":true},{"pitch":51,"velocity":102,"startTime":95.86957799999999,"endTime":96.03262149999999,"isDrum":true},{"pitch":42,"velocity":102,"startTime":96.19566499999999,"endTime":96.35870849999999,"isDrum":true},{"pitch":35,"velocity":102,"startTime":96.52175199999999,"endTime":96.68479549999999,"isDrum":true},{"pitch":42,"velocity":102,"startTime":96.52175199999999,"endTime":96.68479549999999,"isDrum":true},{"pitch":51,"velocity":102,"startTime":96.52175199999999,"endTime":96.68479549999999,"isDrum":true},{"pitch":35,"velocity":102,"startTime":96.847839,"endTime":97.0108825,"isDrum":true},{"pitch":42,"velocity":102,"startTime":96.847839,"endTime":97.0108825,"isDrum":true},{"pitch":38,"velocity":102,"startTime":97.173926,"endTime":97.3369695,"isDrum":true},{"pitch":42,"velocity":102,"startTime":97.173926,"endTime":97.3369695,"isDrum":true},{"pitch":51,"velocity":102,"startTime":97.173926,"endTime":97.3369695,"isDrum":true},{"pitch":35,"velocity":102,"startTime":97.500013,"endTime":97.6630565,"isDrum":true},{"pitch":42,"velocity":102,"startTime":97.500013,"endTime":97.6630565,"isDrum":true},{"pitch":35,"velocity":102,"startTime":97.8261,"endTime":97.9891435,"isDrum":true},{"pitch":42,"velocity":102,"startTime":97.8261,"endTime":97.9891435,"isDrum":true},{"pitch":51,"velocity":102,"startTime":97.8261,"endTime":97.9891435,"isDrum":true},{"pitch":42,"velocity":102,"startTime":98.152187,"endTime":98.3152305,"isDrum":true},{"pitch":38,"velocity":102,"startTime":98.478274,"endTime":98.6413175,"isDrum":true},{"pitch":42,"velocity":102,"startTime":98.478274,"endTime":98.6413175,"isDrum":true},{"pitch":51,"velocity":102,"startTime":98.478274,"endTime":98.6413175,"isDrum":true},{"pitch":42,"velocity":102,"startTime":98.80436099999999,"endTime":98.96740449999999,"isDrum":true},{"pitch":35,"velocity":102,"startTime":99.13044799999999,"endTime":99.29349149999999,"isDrum":true},{"pitch":42,"velocity":102,"startTime":99.13044799999999,"endTime":99.29349149999999,"isDrum":true},{"pitch":51,"velocity":102,"startTime":99.13044799999999,"endTime":99.29349149999999,"isDrum":true},{"pitch":35,"velocity":102,"startTime":99.45653499999999,"endTime":99.61957849999999,"isDrum":true},{"pitch":42,"velocity":102,"startTime":99.45653499999999,"endTime":99.61957849999999,"isDrum":true},{"pitch":38,"velocity":102,"startTime":99.78262199999999,"endTime":99.94566549999999,"isDrum":true},{"pitch":42,"velocity":102,"startTime":99.78262199999999,"endTime":99.94566549999999,"isDrum":true},{"pitch":51,"velocity":102,"startTime":99.78262199999999,"endTime":99.94566549999999,"isDrum":true},{"pitch":35,"velocity":102,"startTime":100.10870899999999,"endTime":100.27175249999999,"isDrum":true},{"pitch":42,"velocity":102,"startTime":100.10870899999999,"endTime":100.27175249999999,"isDrum":true},{"pitch":35,"velocity":102,"startTime":100.43479599999999,"endTime":100.59783949999999,"isDrum":true},{"pitch":42,"velocity":102,"startTime":100.43479599999999,"endTime":100.59783949999999,"isDrum":true},{"pitch":51,"velocity":102,"startTime":100.43479599999999,"endTime":100.59783949999999,"isDrum":true},{"pitch":42,"velocity":102,"startTime":100.76088299999999,"endTime":100.9239265,"isDrum":true},{"pitch":38,"velocity":102,"startTime":101.08697,"endTime":101.2500135,"isDrum":true},{"pitch":42,"velocity":102,"startTime":101.08697,"endTime":101.2500135,"isDrum":true},{"pitch":51,"velocity":102,"startTime":101.08697,"endTime":101.2500135,"isDrum":true},{"pitch":42,"velocity":102,"startTime":101.413057,"endTime":101.5761005,"isDrum":true},{"pitch":35,"velocity":102,"startTime":101.739144,"endTime":101.9021875,"isDrum":true},{"pitch":42,"velocity":102,"startTime":101.739144,"endTime":101.9021875,"isDrum":true},{"pitch":51,"velocity":102,"startTime":101.739144,"endTime":101.9021875,"isDrum":true},{"pitch":35,"velocity":102,"startTime":102.065231,"endTime":102.2282745,"isDrum":true},{"pitch":42,"velocity":102,"startTime":102.065231,"endTime":102.2282745,"isDrum":true},{"pitch":51,"velocity":102,"startTime":102.065231,"endTime":102.2282745,"isDrum":true},{"pitch":51,"velocity":102,"startTime":102.2282745,"endTime":102.391318,"isDrum":true},{"pitch":38,"velocity":102,"startTime":102.391318,"endTime":102.5543615,"isDrum":true},{"pitch":42,"velocity":102,"startTime":102.391318,"endTime":102.5543615,"isDrum":true},{"pitch":51,"velocity":102,"startTime":102.391318,"endTime":102.5543615,"isDrum":true},{"pitch":35,"velocity":102,"startTime":102.71740499999999,"endTime":102.88044849999999,"isDrum":true},{"pitch":42,"velocity":102,"startTime":102.71740499999999,"endTime":102.88044849999999,"isDrum":true},{"pitch":51,"velocity":102,"startTime":102.71740499999999,"endTime":102.88044849999999,"isDrum":true},{"pitch":65,"velocity":95,"startTime":83.47827199999999,"endTime":83.64131549999999,"instrument":1,"program":12},{"pitch":67,"velocity":95,"startTime":83.64131549999999,"endTime":83.75001116666665,"instrument":1,"program":12},{"pitch":70,"velocity":95,"startTime":83.80435899999999,"endTime":83.91305466666665,"instrument":1,"program":12},{"pitch":67,"velocity":95,"startTime":83.96740249999999,"endTime":84.07609816666665,"instrument":1,"program":12},{"pitch":74,"velocity":95,"startTime":84.13044599999999,"endTime":84.29348949999999,"instrument":1,"program":12},{"pitch":67,"velocity":95,"startTime":84.29348949999999,"endTime":84.40218516666665,"instrument":1,"program":12},{"pitch":65,"velocity":95,"startTime":84.456533,"endTime":84.56522866666666,"instrument":1,"program":12},{"pitch":67,"velocity":95,"startTime":84.6195765,"endTime":84.67392433333333,"instrument":1,"program":12},{"pitch":65,"velocity":95,"startTime":84.78262,"endTime":84.9456635,"instrument":1,"program":12},{"pitch":67,"velocity":95,"startTime":84.9456635,"endTime":85.05435916666666,"instrument":1,"program":12},{"pitch":70,"velocity":95,"startTime":85.108707,"endTime":85.21740266666664,"instrument":1,"program":12},{"pitch":74,"velocity":95,"startTime":85.2717505,"endTime":85.38044616666664,"instrument":1,"program":12},{"pitch":67,"velocity":95,"startTime":85.434794,"endTime":85.54348966666664,"instrument":1,"program":12},{"pitch":70,"velocity":95,"startTime":85.5978375,"endTime":85.65218533333334,"instrument":1,"program":12},{"pitch":67,"velocity":95,"startTime":85.760881,"endTime":85.86957666666665,"instrument":1,"program":12},{"pitch":65,"velocity":95,"startTime":85.9239245,"endTime":86.03262016666665,"instrument":1,"program":12},{"pitch":64,"velocity":95,"startTime":86.086968,"endTime":86.2500115,"instrument":1,"program":12},{"pitch":64,"velocity":95,"startTime":86.2500115,"endTime":86.35870716666665,"instrument":1,"program":12},{"pitch":69,"velocity":95,"startTime":86.413055,"endTime":86.52175066666665,"instrument":1,"program":12},{"pitch":64,"velocity":95,"startTime":86.5760985,"endTime":86.63044633333334,"instrument":1,"program":12},{"pitch":69,"velocity":95,"startTime":87.39131599999999,"endTime":87.50001166666665,"instrument":1,"program":12},{"pitch":74,"velocity":95,"startTime":87.55435949999999,"endTime":87.66305516666665,"instrument":1,"program":12},{"pitch":69,"velocity":95,"startTime":87.71740299999999,"endTime":87.82609866666665,"instrument":1,"program":12},{"pitch":74,"velocity":95,"startTime":87.88044649999999,"endTime":87.98914216666665,"instrument":1,"program":12},{"pitch":65,"velocity":95,"startTime":88.04348999999999,"endTime":88.20653349999999,"instrument":1,"program":12},{"pitch":70,"velocity":95,"startTime":88.20653349999999,"endTime":88.31522916666665,"instrument":1,"program":12},{"pitch":65,"velocity":95,"startTime":88.36957699999999,"endTime":88.47827266666665,"instrument":1,"program":12},{"pitch":62,"velocity":95,"startTime":88.5326205,"endTime":88.64131616666666,"instrument":1,"program":12},{"pitch":62,"velocity":95,"startTime":91.63044699999999,"endTime":91.84783833333333,"instrument":1,"program":12},{"pitch":74,"velocity":95,"startTime":93.913056,"endTime":94.0760995,"instrument":1,"program":12},{"pitch":69,"velocity":95,"startTime":94.0760995,"endTime":94.18479516666666,"instrument":1,"program":12},{"pitch":69,"velocity":95,"startTime":94.239143,"endTime":94.34783866666666,"instrument":1,"program":12},{"pitch":72,"velocity":95,"startTime":94.4021865,"endTime":94.51088216666666,"instrument":1,"program":12},{"pitch":69,"velocity":95,"startTime":95.86957799999999,"endTime":96.03262149999999,"instrument":1,"program":12},{"pitch":74,"velocity":95,"startTime":96.03262149999999,"endTime":96.14131716666665,"instrument":1,"program":12},{"pitch":69,"velocity":95,"startTime":96.19566499999999,"endTime":96.30436066666665,"instrument":1,"program":12},{"pitch":72,"velocity":95,"startTime":96.35870849999999,"endTime":96.46740416666665,"instrument":1,"program":12},{"pitch":74,"velocity":95,"startTime":97.173926,"endTime":97.3369695,"instrument":1,"program":12},{"pitch":69,"velocity":95,"startTime":97.3369695,"endTime":97.44566516666666,"instrument":1,"program":12},{"pitch":74,"velocity":95,"startTime":97.500013,"endTime":97.60870866666666,"instrument":1,"program":12},{"pitch":69,"velocity":95,"startTime":97.6630565,"endTime":97.77175216666666,"instrument":1,"program":12},{"pitch":74,"velocity":95,"startTime":97.8261,"endTime":97.93479566666666,"instrument":1,"program":12},{"pitch":74,"velocity":95,"startTime":97.9891435,"endTime":98.09783916666666,"instrument":1,"program":12},{"pitch":69,"velocity":95,"startTime":98.152187,"endTime":98.26088266666666,"instrument":1,"program":12},{"pitch":74,"velocity":95,"startTime":98.3152305,"endTime":98.36957833333332,"instrument":1,"program":12},{"pitch":74,"velocity":95,"startTime":98.478274,"endTime":98.58696966666666,"instrument":1,"program":12},{"pitch":69,"velocity":95,"startTime":98.6413175,"endTime":98.75001316666666,"instrument":1,"program":12},{"pitch":74,"velocity":95,"startTime":98.80436099999999,"endTime":98.91305666666666,"instrument":1,"program":12},{"pitch":74,"velocity":95,"startTime":98.96740449999999,"endTime":99.07610016666666,"instrument":1,"program":12},{"pitch":69,"velocity":95,"startTime":99.13044799999999,"endTime":99.29349149999999,"instrument":1,"program":12},{"pitch":74,"velocity":95,"startTime":99.29349149999999,"endTime":99.40218716666666,"instrument":1,"program":12},{"pitch":69,"velocity":95,"startTime":99.45653499999999,"endTime":99.56523066666666,"instrument":1,"program":12},{"pitch":74,"velocity":95,"startTime":99.61957849999999,"endTime":99.67392633333333,"instrument":1,"program":12},{"pitch":81,"velocity":95,"startTime":99.78262199999999,"endTime":99.89131766666667,"instrument":1,"program":12},{"pitch":69,"velocity":95,"startTime":99.94566549999999,"endTime":100.00001333333333,"instrument":1,"program":12},{"pitch":74,"velocity":95,"startTime":100.10870899999999,"endTime":100.21740466666665,"instrument":1,"program":12},{"pitch":69,"velocity":95,"startTime":100.27175249999999,"endTime":100.32610033333333,"instrument":1,"program":12},{"pitch":62,"velocity":95,"startTime":100.43479599999999,"endTime":100.54349166666665,"instrument":1,"program":12},{"pitch":74,"velocity":95,"startTime":100.59783949999999,"endTime":100.70653516666665,"instrument":1,"program":12},{"pitch":69,"velocity":95,"startTime":100.76088299999999,"endTime":100.86957866666665,"instrument":1,"program":12},{"pitch":74,"velocity":95,"startTime":100.9239265,"endTime":101.03262216666666,"instrument":1,"program":12},{"pitch":72,"velocity":95,"startTime":101.08697,"endTime":101.19566566666666,"instrument":1,"program":12},{"pitch":74,"velocity":95,"startTime":101.2500135,"endTime":101.35870916666666,"instrument":1,"program":12},{"pitch":72,"velocity":95,"startTime":101.413057,"endTime":101.52175266666666,"instrument":1,"program":12},{"pitch":69,"velocity":95,"startTime":101.5761005,"endTime":101.68479616666666,"instrument":1,"program":12},{"pitch":70,"velocity":95,"startTime":101.739144,"endTime":101.9021875,"instrument":1,"program":12},{"pitch":65,"velocity":95,"startTime":101.9021875,"endTime":102.01088316666666,"instrument":1,"program":12},{"pitch":67,"velocity":95,"startTime":102.065231,"endTime":102.17392666666666,"instrument":1,"program":12},{"pitch":70,"velocity":95,"startTime":102.2282745,"endTime":102.28262233333332,"instrument":1,"program":12},{"pitch":77,"velocity":95,"startTime":102.391318,"endTime":102.50001366666666,"instrument":1,"program":12},{"pitch":70,"velocity":95,"startTime":102.5543615,"endTime":102.60870933333332,"instrument":1,"program":12},{"pitch":67,"velocity":95,"startTime":102.71740499999999,"endTime":102.82610066666666,"instrument":1,"program":12},{"pitch":70,"velocity":95,"startTime":102.88044849999999,"endTime":102.93479633333332,"instrument":1,"program":12},{"pitch":74,"velocity":95,"startTime":103.04349199999999,"endTime":103.15218766666666,"instrument":1,"program":12},{"pitch":67,"velocity":95,"startTime":103.20653549999999,"endTime":103.31523116666666,"instrument":1,"program":12},{"pitch":70,"velocity":95,"startTime":103.36957899999999,"endTime":103.47827466666666,"instrument":1,"program":12},{"pitch":77,"velocity":95,"startTime":103.53262249999999,"endTime":103.58697033333333,"instrument":1,"program":12},{"pitch":74,"velocity":95,"startTime":103.69566599999999,"endTime":103.75001383333333,"instrument":1,"program":12},{"pitch":67,"velocity":95,"startTime":103.85870949999999,"endTime":103.96740516666667,"instrument":1,"program":12},{"pitch":70,"velocity":95,"startTime":104.02175299999999,"endTime":104.13044866666665,"instrument":1,"program":12},{"pitch":67,"velocity":95,"startTime":104.18479649999999,"endTime":104.29349216666665,"instrument":1,"program":12},{"pitch":43,"velocity":110,"startTime":83.47827199999999,"endTime":83.64131549999999,"instrument":2,"program":32},{"pitch":43,"velocity":110,"startTime":83.80435899999999,"endTime":83.96740249999999,"instrument":2,"program":32},{"pitch":38,"velocity":110,"startTime":84.13044599999999,"endTime":84.29348949999999,"instrument":2,"program":32},{"pitch":38,"velocity":110,"startTime":84.456533,"endTime":84.9456635,"instrument":2,"program":32},{"pitch":29,"velocity":110,"startTime":85.108707,"endTime":85.2717505,"instrument":2,"program":32},{"pitch":41,"velocity":110,"startTime":85.434794,"endTime":85.5978375,"instrument":2,"program":32},{"pitch":46,"velocity":110,"startTime":85.760881,"endTime":85.9239245,"instrument":2,"program":32},{"pitch":40,"velocity":110,"startTime":86.086968,"endTime":86.413055,"instrument":2,"program":32},{"pitch":40,"velocity":110,"startTime":86.5760985,"endTime":86.73914199999999,"instrument":2,"program":32},{"pitch":40,"velocity":110,"startTime":86.90218549999999,"endTime":87.06522899999999,"instrument":2,"program":32},{"pitch":28,"velocity":110,"startTime":87.06522899999999,"endTime":87.22827249999999,"instrument":2,"program":32},{"pitch":39,"velocity":110,"startTime":87.39131599999999,"endTime":87.71740299999999,"instrument":2,"program":32},{"pitch":39,"velocity":110,"startTime":87.88044649999999,"endTime":88.04348999999999,"instrument":2,"program":32},{"pitch":38,"velocity":110,"startTime":88.04348999999999,"endTime":88.26088133333333,"instrument":2,"program":32},{"pitch":38,"velocity":110,"startTime":88.36957699999999,"endTime":88.5326205,"instrument":2,"program":32},{"pitch":31,"velocity":110,"startTime":88.695664,"endTime":88.91305533333333,"instrument":2,"program":32},{"pitch":33,"velocity":110,"startTime":90.97827299999999,"endTime":91.46740349999999,"instrument":2,"program":32},{"pitch":33,"velocity":110,"startTime":91.63044699999999,"endTime":91.79349049999999,"instrument":2,"program":32},{"pitch":38,"velocity":110,"startTime":91.95653399999999,"endTime":92.11957749999999,"instrument":2,"program":32},{"pitch":38,"velocity":110,"startTime":92.28262099999999,"endTime":92.44566449999999,"instrument":2,"program":32},{"pitch":33,"velocity":110,"startTime":92.608708,"endTime":92.7717515,"instrument":2,"program":32},{"pitch":36,"velocity":110,"startTime":92.934795,"endTime":93.0978385,"instrument":2,"program":32},{"pitch":38,"velocity":110,"startTime":93.260882,"endTime":93.4239255,"instrument":2,"program":32},{"pitch":36,"velocity":110,"startTime":93.586969,"endTime":93.7500125,"instrument":2,"program":32},{"pitch":38,"velocity":110,"startTime":93.913056,"endTime":94.239143,"instrument":2,"program":32},{"pitch":38,"velocity":110,"startTime":94.4021865,"endTime":94.56523,"instrument":2,"program":32},{"pitch":45,"velocity":110,"startTime":94.72827349999999,"endTime":94.89131699999999,"instrument":2,"program":32},{"pitch":38,"velocity":110,"startTime":94.89131699999999,"endTime":95.05436049999999,"instrument":2,"program":32},{"pitch":45,"velocity":110,"startTime":95.21740399999999,"endTime":95.38044749999999,"instrument":2,"program":32},{"pitch":38,"velocity":110,"startTime":95.54349099999999,"endTime":95.70653449999999,"instrument":2,"program":32},{"pitch":42,"velocity":110,"startTime":95.86957799999999,"endTime":96.03262149999999,"instrument":2,"program":32},{"pitch":45,"velocity":110,"startTime":96.19566499999999,"endTime":96.35870849999999,"instrument":2,"program":32},{"pitch":38,"velocity":110,"startTime":96.52175199999999,"endTime":96.847839,"instrument":2,"program":32},{"pitch":50,"velocity":110,"startTime":97.0108825,"endTime":97.173926,"instrument":2,"program":32},{"pitch":45,"velocity":110,"startTime":97.3369695,"endTime":97.500013,"instrument":2,"program":32},{"pitch":50,"velocity":110,"startTime":97.500013,"endTime":97.6630565,"instrument":2,"program":32},{"pitch":45,"velocity":110,"startTime":97.8261,"endTime":97.9891435,"instrument":2,"program":32},{"pitch":50,"velocity":110,"startTime":98.152187,"endTime":98.3152305,"instrument":2,"program":32},{"pitch":42,"velocity":110,"startTime":98.478274,"endTime":98.6413175,"instrument":2,"program":32},{"pitch":42,"velocity":110,"startTime":98.80436099999999,"endTime":98.96740449999999,"instrument":2,"program":32},{"pitch":38,"velocity":110,"startTime":99.13044799999999,"endTime":99.45653499999999,"instrument":2,"program":32},{"pitch":38,"velocity":110,"startTime":99.61957849999999,"endTime":99.78262199999999,"instrument":2,"program":32},{"pitch":38,"velocity":110,"startTime":99.94566549999999,"endTime":100.10870899999999,"instrument":2,"program":32},{"pitch":42,"velocity":110,"startTime":100.10870899999999,"endTime":100.27175249999999,"instrument":2,"program":32},{"pitch":43,"velocity":110,"startTime":100.43479599999999,"endTime":100.59783949999999,"instrument":2,"program":32},{"pitch":48,"velocity":110,"startTime":100.76088299999999,"endTime":100.9239265,"instrument":2,"program":32},{"pitch":42,"velocity":110,"startTime":101.08697,"endTime":101.2500135,"instrument":2,"program":32},{"pitch":45,"velocity":110,"startTime":101.413057,"endTime":101.5761005,"instrument":2,"program":32},{"pitch":31,"velocity":110,"startTime":101.739144,"endTime":102.065231,"instrument":2,"program":32},{"pitch":31,"velocity":110,"startTime":102.2282745,"endTime":102.391318,"instrument":2,"program":32},{"pitch":31,"velocity":110,"startTime":102.5543615,"endTime":102.71740499999999,"instrument":2,"program":32},{"pitch":31,"velocity":110,"startTime":102.71740499999999,"endTime":102.88044849999999,"instrument":2,"program":32},{"pitch":31,"velocity":110,"startTime":103.04349199999999,"endTime":103.20653549999999,"instrument":2,"program":32},{"pitch":31,"velocity":110,"startTime":103.36957899999999,"endTime":103.53262249999999,"instrument":2,"program":32},{"pitch":31,"velocity":110,"startTime":103.69566599999999,"endTime":103.85870949999999,"instrument":2,"program":32},{"pitch":43,"velocity":110,"startTime":104.02175299999999,"endTime":104.18479649999999,"instrument":2,"program":32},{"pitch":55,"velocity":105,"startTime":83.47827199999999,"endTime":84.56522866666666,"instrument":3,"program":50},{"pitch":58,"velocity":105,"startTime":83.47827199999999,"endTime":84.56522866666666,"instrument":3,"program":50},{"pitch":62,"velocity":105,"startTime":83.47827199999999,"endTime":84.56522866666666,"instrument":3,"program":50},{"pitch":65,"velocity":105,"startTime":83.47827199999999,"endTime":84.56522866666666,"instrument":3,"program":50},{"pitch":58,"velocity":105,"startTime":84.6195765,"endTime":85.97827233333334,"instrument":3,"program":50},{"pitch":60,"velocity":105,"startTime":84.6195765,"endTime":85.97827233333334,"instrument":3,"program":50},{"pitch":65,"velocity":105,"startTime":84.6195765,"endTime":85.97827233333334,"instrument":3,"program":50},{"pitch":67,"velocity":105,"startTime":85.108707,"endTime":85.97827233333334,"instrument":3,"program":50},{"pitch":72,"velocity":105,"startTime":85.434794,"endTime":85.9239245,"instrument":3,"program":50},{"pitch":57,"velocity":105,"startTime":86.086968,"endTime":87.17392466666665,"instrument":3,"program":50},{"pitch":60,"velocity":105,"startTime":86.086968,"endTime":87.17392466666665,"instrument":3,"program":50},{"pitch":64,"velocity":105,"startTime":86.086968,"endTime":87.17392466666665,"instrument":3,"program":50},{"pitch":67,"velocity":105,"startTime":86.086968,"endTime":87.17392466666665,"instrument":3,"program":50},{"pitch":72,"velocity":105,"startTime":86.086968,"endTime":87.17392466666665,"instrument":3,"program":50},{"pitch":58,"velocity":105,"startTime":87.22827249999999,"endTime":87.98914216666665,"instrument":3,"program":50},{"pitch":62,"velocity":105,"startTime":87.22827249999999,"endTime":87.55435949999999,"instrument":3,"program":50},{"pitch":65,"velocity":105,"startTime":87.22827249999999,"endTime":88.04348999999999,"instrument":3,"program":50},{"pitch":68,"velocity":105,"startTime":87.22827249999999,"endTime":87.55435949999999,"instrument":3,"program":50},{"pitch":74,"velocity":105,"startTime":87.22827249999999,"endTime":87.98914216666665,"instrument":3,"program":50},{"pitch":62,"velocity":105,"startTime":87.60870733333334,"endTime":87.93479433333334,"instrument":3,"program":50},{"pitch":55,"velocity":105,"startTime":88.04348999999999,"endTime":88.695664,"instrument":3,"program":50},{"pitch":58,"velocity":105,"startTime":88.04348999999999,"endTime":88.695664,"instrument":3,"program":50},{"pitch":63,"velocity":105,"startTime":88.04348999999999,"endTime":88.695664,"instrument":3,"program":50},{"pitch":67,"velocity":105,"startTime":88.04348999999999,"endTime":88.695664,"instrument":3,"program":50},{"pitch":59,"velocity":105,"startTime":88.695664,"endTime":91.19566433333333,"instrument":3,"program":50},{"pitch":62,"velocity":105,"startTime":88.695664,"endTime":91.19566433333333,"instrument":3,"program":50},{"pitch":65,"velocity":105,"startTime":88.695664,"endTime":91.19566433333333,"instrument":3,"program":50},{"pitch":67,"velocity":105,"startTime":88.695664,"endTime":91.19566433333333,"instrument":3,"program":50},{"pitch":58,"velocity":105,"startTime":95.76088233333333,"endTime":96.52175199999999,"instrument":3,"program":50},{"pitch":60,"velocity":105,"startTime":95.76088233333333,"endTime":96.52175199999999,"instrument":3,"program":50},{"pitch":62,"velocity":105,"startTime":95.76088233333333,"endTime":96.52175199999999,"instrument":3,"program":50},{"pitch":66,"velocity":105,"startTime":95.76088233333333,"endTime":96.52175199999999,"instrument":3,"program":50},{"pitch":69,"velocity":105,"startTime":95.76088233333333,"endTime":96.52175199999999,"instrument":3,"program":50},{"pitch":56,"velocity":105,"startTime":96.52175199999999,"endTime":99.02175233333332,"instrument":3,"program":50},{"pitch":60,"velocity":105,"startTime":96.52175199999999,"endTime":99.02175233333332,"instrument":3,"program":50},{"pitch":62,"velocity":105,"startTime":96.52175199999999,"endTime":99.02175233333332,"instrument":3,"program":50},{"pitch":66,"velocity":105,"startTime":96.52175199999999,"endTime":99.02175233333332,"instrument":3,"program":50},{"pitch":60,"velocity":105,"startTime":99.13044799999999,"endTime":101.46740483333332,"instrument":3,"program":50},{"pitch":62,"velocity":105,"startTime":99.13044799999999,"endTime":101.413057,"instrument":3,"program":50},{"pitch":66,"velocity":105,"startTime":99.13044799999999,"endTime":101.46740483333332,"instrument":3,"program":50},{"pitch":69,"velocity":105,"startTime":99.13044799999999,"endTime":101.413057,"instrument":3,"program":50},{"pitch":58,"velocity":105,"startTime":101.739144,"endTime":104.23914433333333,"instrument":3,"program":50},{"pitch":62,"velocity":105,"startTime":101.739144,"endTime":104.23914433333333,"instrument":3,"program":50},{"pitch":65,"velocity":105,"startTime":101.739144,"endTime":104.23914433333333,"instrument":3,"program":50},{"pitch":67,"velocity":105,"startTime":101.739144,"endTime":104.23914433333333,"instrument":3,"program":50},{"pitch":35,"velocity":102,"startTime":104.34783999999999,"endTime":104.45653566666665,"isDrum":true},{"pitch":42,"velocity":102,"startTime":104.34783999999999,"endTime":104.45653566666665,"isDrum":true},{"pitch":42,"velocity":102,"startTime":104.67392699999999,"endTime":104.78262266666665,"isDrum":true},{"pitch":35,"velocity":102,"startTime":104.83697049999999,"endTime":104.94566616666665,"isDrum":true},{"pitch":40,"velocity":102,"startTime":105.000014,"endTime":105.10870966666666,"isDrum":true},{"pitch":42,"velocity":102,"startTime":105.000014,"endTime":105.10870966666666,"isDrum":true},{"pitch":35,"velocity":102,"startTime":105.326101,"endTime":105.43479666666666,"isDrum":true},{"pitch":42,"velocity":102,"startTime":105.326101,"endTime":105.43479666666666,"isDrum":true},{"pitch":35,"velocity":102,"startTime":105.652188,"endTime":105.76088366666666,"isDrum":true},{"pitch":42,"velocity":102,"startTime":105.652188,"endTime":105.76088366666666,"isDrum":true},{"pitch":42,"velocity":102,"startTime":105.978275,"endTime":106.08697066666666,"isDrum":true},{"pitch":40,"velocity":102,"startTime":106.304362,"endTime":106.41305766666666,"isDrum":true},{"pitch":42,"velocity":102,"startTime":106.304362,"endTime":106.41305766666666,"isDrum":true},{"pitch":42,"velocity":102,"startTime":106.630449,"endTime":106.73914466666666,"isDrum":true},{"pitch":35,"velocity":102,"startTime":106.79349249999999,"endTime":106.90218816666666,"isDrum":true},{"pitch":35,"velocity":102,"startTime":106.95653599999999,"endTime":107.06523166666666,"isDrum":true},{"pitch":42,"velocity":102,"startTime":106.95653599999999,"endTime":107.06523166666666,"isDrum":true},{"pitch":42,"velocity":102,"startTime":107.11957949999999,"endTime":107.22827516666666,"isDrum":true},{"pitch":35,"velocity":102,"startTime":107.28262299999999,"endTime":107.39131866666666,"isDrum":true},{"pitch":42,"velocity":102,"startTime":107.28262299999999,"endTime":107.39131866666666,"isDrum":true},{"pitch":40,"velocity":102,"startTime":107.44566649999999,"endTime":107.55436216666666,"isDrum":true},{"pitch":40,"velocity":102,"startTime":107.60870999999999,"endTime":107.71740566666666,"isDrum":true},{"pitch":42,"velocity":102,"startTime":107.60870999999999,"endTime":107.71740566666666,"isDrum":true},{"pitch":35,"velocity":102,"startTime":107.93479699999999,"endTime":108.04349266666667,"isDrum":true},{"pitch":42,"velocity":102,"startTime":107.93479699999999,"endTime":108.04349266666667,"isDrum":true},{"pitch":35,"velocity":102,"startTime":108.09784049999999,"endTime":108.20653616666665,"isDrum":true},{"pitch":42,"velocity":102,"startTime":108.09784049999999,"endTime":108.20653616666665,"isDrum":true},{"pitch":35,"velocity":102,"startTime":108.26088399999999,"endTime":108.36957966666665,"isDrum":true},{"pitch":42,"velocity":102,"startTime":108.26088399999999,"endTime":108.36957966666665,"isDrum":true},{"pitch":42,"velocity":102,"startTime":108.58697099999999,"endTime":108.69566666666665,"isDrum":true},{"pitch":40,"velocity":102,"startTime":108.91305799999999,"endTime":109.02175366666665,"isDrum":true},{"pitch":42,"velocity":102,"startTime":108.91305799999999,"endTime":109.02175366666665,"isDrum":true},{"pitch":42,"velocity":102,"startTime":109.239145,"endTime":109.34784066666666,"isDrum":true},{"pitch":40,"velocity":102,"startTime":109.4021885,"endTime":109.51088416666666,"isDrum":true},{"pitch":35,"velocity":102,"startTime":109.565232,"endTime":109.67392766666666,"isDrum":true},{"pitch":42,"velocity":102,"startTime":109.565232,"endTime":109.67392766666666,"isDrum":true},{"pitch":35,"velocity":102,"startTime":109.891319,"endTime":110.00001466666666,"isDrum":true},{"pitch":42,"velocity":102,"startTime":109.891319,"endTime":110.00001466666666,"isDrum":true},{"pitch":40,"velocity":102,"startTime":110.217406,"endTime":110.32610166666666,"isDrum":true},{"pitch":42,"velocity":102,"startTime":110.217406,"endTime":110.32610166666666,"isDrum":true},{"pitch":42,"velocity":102,"startTime":110.543493,"endTime":110.65218866666666,"isDrum":true},{"pitch":35,"velocity":102,"startTime":110.86957999999998,"endTime":110.97827566666666,"isDrum":true},{"pitch":42,"velocity":102,"startTime":110.86957999999998,"endTime":110.97827566666666,"isDrum":true},{"pitch":42,"velocity":102,"startTime":111.19566699999999,"endTime":111.30436266666666,"isDrum":true},{"pitch":40,"velocity":102,"startTime":111.52175399999999,"endTime":111.63044966666666,"isDrum":true},{"pitch":42,"velocity":102,"startTime":111.52175399999999,"endTime":111.63044966666666,"isDrum":true},{"pitch":42,"velocity":102,"startTime":111.84784099999999,"endTime":111.95653666666666,"isDrum":true},{"pitch":35,"velocity":102,"startTime":112.01088449999999,"endTime":112.11958016666665,"isDrum":true},{"pitch":40,"velocity":102,"startTime":112.01088449999999,"endTime":112.11958016666665,"isDrum":true},{"pitch":35,"velocity":102,"startTime":112.17392799999999,"endTime":112.28262366666665,"isDrum":true},{"pitch":42,"velocity":102,"startTime":112.17392799999999,"endTime":112.28262366666665,"isDrum":true},{"pitch":40,"velocity":102,"startTime":112.33697149999999,"endTime":112.44566716666665,"isDrum":true},{"pitch":35,"velocity":102,"startTime":112.50001499999999,"endTime":112.60871066666665,"isDrum":true},{"pitch":42,"velocity":102,"startTime":112.50001499999999,"endTime":112.60871066666665,"isDrum":true},{"pitch":40,"velocity":102,"startTime":112.82610199999999,"endTime":112.93479766666665,"isDrum":true},{"pitch":42,"velocity":102,"startTime":112.82610199999999,"endTime":112.93479766666665,"isDrum":true},{"pitch":51,"velocity":102,"startTime":112.82610199999999,"endTime":112.93479766666665,"isDrum":true},{"pitch":42,"velocity":102,"startTime":113.15218899999999,"endTime":113.26088466666666,"isDrum":true},{"pitch":35,"velocity":102,"startTime":113.478276,"endTime":113.58697166666666,"isDrum":true},{"pitch":40,"velocity":102,"startTime":113.478276,"endTime":113.58697166666666,"isDrum":true},{"pitch":42,"velocity":102,"startTime":113.478276,"endTime":113.58697166666666,"isDrum":true},{"pitch":40,"velocity":102,"startTime":113.6413195,"endTime":113.75001516666666,"isDrum":true},{"pitch":42,"velocity":102,"startTime":113.804363,"endTime":113.91305866666666,"isDrum":true},{"pitch":35,"velocity":102,"startTime":113.9674065,"endTime":114.07610216666666,"isDrum":true},{"pitch":40,"velocity":102,"startTime":113.9674065,"endTime":114.07610216666666,"isDrum":true},{"pitch":40,"velocity":102,"startTime":114.13045,"endTime":114.23914566666666,"isDrum":true},{"pitch":42,"velocity":102,"startTime":114.13045,"endTime":114.23914566666666,"isDrum":true},{"pitch":40,"velocity":102,"startTime":114.2934935,"endTime":114.40218916666666,"isDrum":true},{"pitch":42,"velocity":102,"startTime":114.456537,"endTime":114.56523266666666,"isDrum":true},{"pitch":40,"velocity":102,"startTime":114.6195805,"endTime":114.72827616666666,"isDrum":true},{"pitch":35,"velocity":102,"startTime":114.782624,"endTime":114.89131966666666,"isDrum":true},{"pitch":40,"velocity":102,"startTime":114.782624,"endTime":114.89131966666666,"isDrum":true},{"pitch":42,"velocity":102,"startTime":114.782624,"endTime":114.89131966666666,"isDrum":true},{"pitch":40,"velocity":102,"startTime":114.94566749999998,"endTime":115.05436316666666,"isDrum":true},{"pitch":35,"velocity":102,"startTime":115.10871099999999,"endTime":115.21740666666666,"isDrum":true},{"pitch":42,"velocity":102,"startTime":115.10871099999999,"endTime":115.21740666666666,"isDrum":true},{"pitch":40,"velocity":102,"startTime":115.27175449999999,"endTime":115.38045016666666,"isDrum":true},{"pitch":40,"velocity":102,"startTime":115.43479799999999,"endTime":115.54349366666666,"isDrum":true},{"pitch":42,"velocity":102,"startTime":115.43479799999999,"endTime":115.54349366666666,"isDrum":true},{"pitch":40,"velocity":102,"startTime":115.59784149999999,"endTime":115.70653716666666,"isDrum":true},{"pitch":42,"velocity":102,"startTime":115.76088499999999,"endTime":115.86958066666666,"isDrum":true},{"pitch":40,"velocity":102,"startTime":115.92392849999999,"endTime":116.03262416666666,"isDrum":true},{"pitch":35,"velocity":102,"startTime":116.08697199999999,"endTime":116.19566766666665,"isDrum":true},{"pitch":40,"velocity":102,"startTime":116.08697199999999,"endTime":116.19566766666665,"isDrum":true},{"pitch":42,"velocity":102,"startTime":116.08697199999999,"endTime":116.19566766666665,"isDrum":true},{"pitch":40,"velocity":102,"startTime":116.25001549999999,"endTime":116.35871116666665,"isDrum":true},{"pitch":35,"velocity":102,"startTime":116.41305899999999,"endTime":116.52175466666665,"isDrum":true},{"pitch":42,"velocity":102,"startTime":116.41305899999999,"endTime":116.52175466666665,"isDrum":true},{"pitch":40,"velocity":102,"startTime":116.57610249999999,"endTime":116.68479816666665,"isDrum":true},{"pitch":40,"velocity":102,"startTime":116.73914599999999,"endTime":116.84784166666665,"isDrum":true},{"pitch":42,"velocity":102,"startTime":116.73914599999999,"endTime":116.84784166666665,"isDrum":true},{"pitch":42,"velocity":102,"startTime":117.06523299999999,"endTime":117.17392866666665,"isDrum":true},{"pitch":40,"velocity":102,"startTime":117.22827649999999,"endTime":117.33697216666665,"isDrum":true},{"pitch":35,"velocity":102,"startTime":117.39132,"endTime":117.50001566666666,"isDrum":true},{"pitch":42,"velocity":102,"startTime":117.39132,"endTime":117.50001566666666,"isDrum":true},{"pitch":35,"velocity":102,"startTime":117.717407,"endTime":117.82610266666666,"isDrum":true},{"pitch":42,"velocity":102,"startTime":117.717407,"endTime":117.82610266666666,"isDrum":true},{"pitch":40,"velocity":102,"startTime":118.043494,"endTime":118.15218966666666,"isDrum":true},{"pitch":42,"velocity":102,"startTime":118.043494,"endTime":118.15218966666666,"isDrum":true},{"pitch":42,"velocity":102,"startTime":118.369581,"endTime":118.47827666666666,"isDrum":true},{"pitch":40,"velocity":102,"startTime":118.5326245,"endTime":118.64132016666666,"isDrum":true},{"pitch":35,"velocity":102,"startTime":118.695668,"endTime":118.80436366666666,"isDrum":true},{"pitch":42,"velocity":102,"startTime":118.695668,"endTime":118.80436366666666,"isDrum":true},{"pitch":35,"velocity":102,"startTime":119.02175499999998,"endTime":119.13045066666666,"isDrum":true},{"pitch":42,"velocity":102,"startTime":119.02175499999998,"endTime":119.13045066666666,"isDrum":true},{"pitch":40,"velocity":102,"startTime":119.34784199999999,"endTime":119.45653766666666,"isDrum":true},{"pitch":42,"velocity":102,"startTime":119.34784199999999,"endTime":119.45653766666666,"isDrum":true},{"pitch":40,"velocity":102,"startTime":119.51088549999999,"endTime":119.61958116666666,"isDrum":true},{"pitch":42,"velocity":102,"startTime":119.67392899999999,"endTime":119.78262466666666,"isDrum":true},{"pitch":40,"velocity":102,"startTime":119.83697249999999,"endTime":119.94566816666666,"isDrum":true},{"pitch":35,"velocity":102,"startTime":120.00001599999999,"endTime":120.10871166666666,"isDrum":true},{"pitch":42,"velocity":102,"startTime":120.00001599999999,"endTime":120.10871166666666,"isDrum":true},{"pitch":35,"velocity":102,"startTime":120.32610299999999,"endTime":120.43479866666665,"isDrum":true},{"pitch":42,"velocity":102,"startTime":120.32610299999999,"endTime":120.43479866666665,"isDrum":true},{"pitch":40,"velocity":102,"startTime":120.65218999999999,"endTime":120.76088566666665,"isDrum":true},{"pitch":42,"velocity":102,"startTime":120.65218999999999,"endTime":120.76088566666665,"isDrum":true},{"pitch":42,"velocity":102,"startTime":120.97827699999999,"endTime":121.08697266666665,"isDrum":true},{"pitch":40,"velocity":102,"startTime":121.14132049999999,"endTime":121.25001616666665,"isDrum":true},{"pitch":35,"velocity":102,"startTime":121.30436399999999,"endTime":121.41305966666665,"isDrum":true},{"pitch":42,"velocity":102,"startTime":121.30436399999999,"endTime":121.41305966666665,"isDrum":true},{"pitch":35,"velocity":102,"startTime":121.630451,"endTime":121.73914666666666,"isDrum":true},{"pitch":42,"velocity":102,"startTime":121.630451,"endTime":121.73914666666666,"isDrum":true},{"pitch":40,"velocity":102,"startTime":121.956538,"endTime":122.06523366666666,"isDrum":true},{"pitch":42,"velocity":102,"startTime":121.956538,"endTime":122.06523366666666,"isDrum":true},{"pitch":42,"velocity":102,"startTime":122.282625,"endTime":122.39132066666666,"isDrum":true},{"pitch":40,"velocity":102,"startTime":122.4456685,"endTime":122.55436416666666,"isDrum":true},{"pitch":35,"velocity":102,"startTime":122.608712,"endTime":122.71740766666666,"isDrum":true},{"pitch":42,"velocity":102,"startTime":122.608712,"endTime":122.71740766666666,"isDrum":true},{"pitch":35,"velocity":102,"startTime":122.93479899999998,"endTime":123.04349466666666,"isDrum":true},{"pitch":42,"velocity":102,"startTime":122.93479899999998,"endTime":123.04349466666666,"isDrum":true},{"pitch":40,"velocity":102,"startTime":123.26088599999999,"endTime":123.36958166666666,"isDrum":true},{"pitch":42,"velocity":102,"startTime":123.26088599999999,"endTime":123.36958166666666,"isDrum":true},{"pitch":42,"velocity":102,"startTime":123.58697299999999,"endTime":123.69566866666666,"isDrum":true},{"pitch":40,"velocity":102,"startTime":123.75001649999999,"endTime":123.85871216666666,"isDrum":true},{"pitch":35,"velocity":102,"startTime":123.91305999999999,"endTime":124.02175566666666,"isDrum":true},{"pitch":42,"velocity":102,"startTime":123.91305999999999,"endTime":124.02175566666666,"isDrum":true},{"pitch":35,"velocity":102,"startTime":124.23914699999999,"endTime":124.34784266666665,"isDrum":true},{"pitch":42,"velocity":102,"startTime":124.23914699999999,"endTime":124.34784266666665,"isDrum":true},{"pitch":40,"velocity":102,"startTime":124.56523399999999,"endTime":124.67392966666665,"isDrum":true},{"pitch":42,"velocity":102,"startTime":124.56523399999999,"endTime":124.67392966666665,"isDrum":true},{"pitch":35,"velocity":102,"startTime":124.89132099999999,"endTime":125.00001666666665,"isDrum":true},{"pitch":42,"velocity":102,"startTime":124.89132099999999,"endTime":125.00001666666665,"isDrum":true},{"pitch":42,"velocity":102,"startTime":125.05436449999999,"endTime":125.16306016666665,"isDrum":true},{"pitch":67,"velocity":95,"startTime":104.34783999999999,"endTime":104.45653566666665,"instrument":1,"program":12},{"pitch":67,"velocity":95,"startTime":104.51088349999999,"endTime":104.61957916666665,"instrument":1,"program":12},{"pitch":70,"velocity":95,"startTime":104.67392699999999,"endTime":104.78262266666665,"instrument":1,"program":12},{"pitch":67,"velocity":95,"startTime":104.83697049999999,"endTime":104.94566616666665,"instrument":1,"program":12},{"pitch":70,"velocity":95,"startTime":105.000014,"endTime":105.10870966666666,"instrument":1,"program":12},{"pitch":67,"velocity":95,"startTime":105.1630575,"endTime":105.27175316666666,"instrument":1,"program":12},{"pitch":70,"velocity":95,"startTime":105.326101,"endTime":105.43479666666666,"instrument":1,"program":12},{"pitch":67,"velocity":95,"startTime":105.4891445,"endTime":105.59784016666666,"instrument":1,"program":12},{"pitch":62,"velocity":95,"startTime":105.652188,"endTime":105.76088366666666,"instrument":1,"program":12},{"pitch":67,"velocity":95,"startTime":105.8152315,"endTime":105.92392716666666,"instrument":1,"program":12},{"pitch":70,"velocity":95,"startTime":105.978275,"endTime":106.08697066666666,"instrument":1,"program":12},{"pitch":67,"velocity":95,"startTime":106.1413185,"endTime":106.25001416666666,"instrument":1,"program":12},{"pitch":70,"velocity":95,"startTime":106.304362,"endTime":106.41305766666666,"instrument":1,"program":12},{"pitch":67,"velocity":95,"startTime":106.4674055,"endTime":106.57610116666666,"instrument":1,"program":12},{"pitch":70,"velocity":95,"startTime":106.630449,"endTime":106.73914466666666,"instrument":1,"program":12},{"pitch":67,"velocity":95,"startTime":106.79349249999999,"endTime":106.90218816666666,"instrument":1,"program":12},{"pitch":64,"velocity":95,"startTime":106.95653599999999,"endTime":107.06523166666666,"instrument":1,"program":12},{"pitch":64,"velocity":95,"startTime":107.11957949999999,"endTime":107.22827516666666,"instrument":1,"program":12},{"pitch":69,"velocity":95,"startTime":107.28262299999999,"endTime":107.39131866666666,"instrument":1,"program":12},{"pitch":64,"velocity":95,"startTime":107.44566649999999,"endTime":107.55436216666666,"instrument":1,"program":12},{"pitch":69,"velocity":95,"startTime":107.60870999999999,"endTime":107.71740566666666,"instrument":1,"program":12},{"pitch":64,"velocity":95,"startTime":107.77175349999999,"endTime":107.88044916666666,"instrument":1,"program":12},{"pitch":65,"velocity":95,"startTime":107.93479699999999,"endTime":108.04349266666667,"instrument":1,"program":12},{"pitch":69,"velocity":95,"startTime":108.09784049999999,"endTime":108.20653616666665,"instrument":1,"program":12},{"pitch":62,"velocity":95,"startTime":108.26088399999999,"endTime":108.36957966666665,"instrument":1,"program":12},{"pitch":69,"velocity":95,"startTime":108.42392749999999,"endTime":108.53262316666665,"instrument":1,"program":12},{"pitch":69,"velocity":95,"startTime":108.58697099999999,"endTime":108.69566666666665,"instrument":1,"program":12},{"pitch":69,"velocity":95,"startTime":108.75001449999999,"endTime":108.85871016666665,"instrument":1,"program":12},{"pitch":62,"velocity":95,"startTime":108.91305799999999,"endTime":109.02175366666665,"instrument":1,"program":12},{"pitch":67,"velocity":95,"startTime":109.0761015,"endTime":109.18479716666666,"instrument":1,"program":12},{"pitch":70,"velocity":95,"startTime":109.239145,"endTime":109.34784066666666,"instrument":1,"program":12},{"pitch":62,"velocity":95,"startTime":109.4021885,"endTime":109.51088416666666,"instrument":1,"program":12},{"pitch":62,"velocity":95,"startTime":109.565232,"endTime":109.67392766666666,"instrument":1,"program":12},{"pitch":67,"velocity":95,"startTime":109.7282755,"endTime":109.83697116666666,"instrument":1,"program":12},{"pitch":71,"velocity":95,"startTime":109.891319,"endTime":110.00001466666666,"instrument":1,"program":12},{"pitch":77,"velocity":95,"startTime":110.0543625,"endTime":110.16305816666666,"instrument":1,"program":12},{"pitch":67,"velocity":95,"startTime":110.217406,"endTime":110.32610166666666,"instrument":1,"program":12},{"pitch":71,"velocity":95,"startTime":110.3804495,"endTime":110.48914516666666,"instrument":1,"program":12},{"pitch":62,"velocity":95,"startTime":110.543493,"endTime":110.65218866666666,"instrument":1,"program":12},{"pitch":67,"velocity":95,"startTime":110.7065365,"endTime":110.81523216666666,"instrument":1,"program":12},{"pitch":62,"velocity":95,"startTime":110.86957999999998,"endTime":110.97827566666666,"instrument":1,"program":12},{"pitch":67,"velocity":95,"startTime":111.03262349999999,"endTime":111.14131916666666,"instrument":1,"program":12},{"pitch":71,"velocity":95,"startTime":111.19566699999999,"endTime":111.30436266666666,"instrument":1,"program":12},{"pitch":67,"velocity":95,"startTime":111.35871049999999,"endTime":111.46740616666666,"instrument":1,"program":12},{"pitch":71,"velocity":95,"startTime":111.52175399999999,"endTime":111.63044966666666,"instrument":1,"program":12},{"pitch":67,"velocity":95,"startTime":111.68479749999999,"endTime":111.79349316666666,"instrument":1,"program":12},{"pitch":62,"velocity":95,"startTime":111.84784099999999,"endTime":111.95653666666666,"instrument":1,"program":12},{"pitch":62,"velocity":95,"startTime":112.01088449999999,"endTime":112.11958016666665,"instrument":1,"program":12},{"pitch":63,"velocity":95,"startTime":112.17392799999999,"endTime":112.28262366666665,"instrument":1,"program":12},{"pitch":67,"velocity":95,"startTime":112.33697149999999,"endTime":112.44566716666665,"instrument":1,"program":12},{"pitch":70,"velocity":95,"startTime":112.50001499999999,"endTime":112.60871066666665,"instrument":1,"program":12},{"pitch":63,"velocity":95,"startTime":112.66305849999999,"endTime":112.77175416666665,"instrument":1,"program":12},{"pitch":75,"velocity":95,"startTime":112.82610199999999,"endTime":112.93479766666665,"instrument":1,"program":12},{"pitch":70,"velocity":95,"startTime":112.98914549999999,"endTime":113.09784116666665,"instrument":1,"program":12},{"pitch":67,"velocity":95,"startTime":113.15218899999999,"endTime":113.26088466666666,"instrument":1,"program":12},{"pitch":63,"velocity":95,"startTime":113.3152325,"endTime":113.42392816666666,"instrument":1,"program":12},{"pitch":70,"velocity":95,"startTime":113.478276,"endTime":113.58697166666666,"instrument":1,"program":12},{"pitch":67,"velocity":95,"startTime":113.6413195,"endTime":113.75001516666666,"instrument":1,"program":12},{"pitch":72,"velocity":95,"startTime":113.804363,"endTime":113.91305866666666,"instrument":1,"program":12},{"pitch":70,"velocity":95,"startTime":113.9674065,"endTime":114.07610216666666,"instrument":1,"program":12},{"pitch":63,"velocity":95,"startTime":114.13045,"endTime":114.23914566666666,"instrument":1,"program":12},{"pitch":67,"velocity":95,"startTime":114.2934935,"endTime":114.40218916666666,"instrument":1,"program":12},{"pitch":70,"velocity":95,"startTime":114.456537,"endTime":114.56523266666666,"instrument":1,"program":12},{"pitch":63,"velocity":95,"startTime":114.6195805,"endTime":114.72827616666666,"instrument":1,"program":12},{"pitch":63,"velocity":95,"startTime":114.782624,"endTime":114.89131966666666,"instrument":1,"program":12},{"pitch":72,"velocity":95,"startTime":114.94566749999998,"endTime":115.05436316666666,"instrument":1,"program":12},{"pitch":72,"velocity":95,"startTime":115.10871099999999,"endTime":115.21740666666666,"instrument":1,"program":12},{"pitch":75,"velocity":95,"startTime":115.27175449999999,"endTime":115.38045016666666,"instrument":1,"program":12},{"pitch":72,"velocity":95,"startTime":115.43479799999999,"endTime":115.54349366666666,"instrument":1,"program":12},{"pitch":63,"velocity":95,"startTime":115.59784149999999,"endTime":115.70653716666666,"instrument":1,"program":12},{"pitch":72,"velocity":95,"startTime":115.76088499999999,"endTime":115.86958066666666,"instrument":1,"program":12},{"pitch":72,"velocity":95,"startTime":115.92392849999999,"endTime":116.03262416666666,"instrument":1,"program":12},{"pitch":75,"velocity":95,"startTime":116.08697199999999,"endTime":116.19566766666665,"instrument":1,"program":12},{"pitch":75,"velocity":95,"startTime":116.25001549999999,"endTime":116.35871116666665,"instrument":1,"program":12},{"pitch":72,"velocity":95,"startTime":116.41305899999999,"endTime":116.52175466666665,"instrument":1,"program":12},{"pitch":75,"velocity":95,"startTime":116.57610249999999,"endTime":116.68479816666665,"instrument":1,"program":12},{"pitch":63,"velocity":95,"startTime":116.73914599999999,"endTime":116.84784166666665,"instrument":1,"program":12},{"pitch":70,"velocity":95,"startTime":116.90218949999999,"endTime":117.01088516666665,"instrument":1,"program":12},{"pitch":72,"velocity":95,"startTime":117.06523299999999,"endTime":117.17392866666665,"instrument":1,"program":12},{"pitch":63,"velocity":95,"startTime":117.22827649999999,"endTime":117.33697216666665,"instrument":1,"program":12},{"pitch":62,"velocity":95,"startTime":117.39132,"endTime":117.50001566666666,"instrument":1,"program":12},{"pitch":70,"velocity":95,"startTime":117.5543635,"endTime":117.66305916666666,"instrument":1,"program":12},{"pitch":67,"velocity":95,"startTime":117.717407,"endTime":117.82610266666666,"instrument":1,"program":12},{"pitch":62,"velocity":95,"startTime":117.8804505,"endTime":117.98914616666666,"instrument":1,"program":12},{"pitch":67,"velocity":95,"startTime":118.043494,"endTime":118.15218966666666,"instrument":1,"program":12},{"pitch":74,"velocity":95,"startTime":118.2065375,"endTime":118.31523316666666,"instrument":1,"program":12},{"pitch":70,"velocity":95,"startTime":118.369581,"endTime":118.47827666666666,"instrument":1,"program":12},{"pitch":67,"velocity":95,"startTime":118.5326245,"endTime":118.64132016666666,"instrument":1,"program":12},{"pitch":62,"velocity":95,"startTime":118.695668,"endTime":118.80436366666666,"instrument":1,"program":12},{"pitch":70,"velocity":95,"startTime":118.85871149999998,"endTime":118.96740716666666,"instrument":1,"program":12},{"pitch":67,"velocity":95,"startTime":119.02175499999998,"endTime":119.13045066666666,"instrument":1,"program":12},{"pitch":62,"velocity":95,"startTime":119.18479849999999,"endTime":119.29349416666666,"instrument":1,"program":12},{"pitch":67,"velocity":95,"startTime":119.34784199999999,"endTime":119.45653766666666,"instrument":1,"program":12},{"pitch":70,"velocity":95,"startTime":119.51088549999999,"endTime":119.61958116666666,"instrument":1,"program":12},{"pitch":67,"velocity":95,"startTime":119.67392899999999,"endTime":119.78262466666666,"instrument":1,"program":12},{"pitch":70,"velocity":95,"startTime":119.83697249999999,"endTime":119.94566816666666,"instrument":1,"program":12},{"pitch":62,"velocity":95,"startTime":120.00001599999999,"endTime":120.10871166666666,"instrument":1,"program":12},{"pitch":69,"velocity":95,"startTime":120.16305949999999,"endTime":120.27175516666665,"instrument":1,"program":12},{"pitch":72,"velocity":95,"startTime":120.32610299999999,"endTime":120.43479866666665,"instrument":1,"program":12},{"pitch":69,"velocity":95,"startTime":120.48914649999999,"endTime":120.59784216666665,"instrument":1,"program":12},{"pitch":74,"velocity":95,"startTime":120.65218999999999,"endTime":120.76088566666665,"instrument":1,"program":12},{"pitch":69,"velocity":95,"startTime":120.81523349999999,"endTime":120.92392916666665,"instrument":1,"program":12},{"pitch":69,"velocity":95,"startTime":120.97827699999999,"endTime":121.08697266666665,"instrument":1,"program":12},{"pitch":69,"velocity":95,"startTime":121.14132049999999,"endTime":121.25001616666665,"instrument":1,"program":12},{"pitch":62,"velocity":95,"startTime":121.30436399999999,"endTime":121.41305966666665,"instrument":1,"program":12},{"pitch":69,"velocity":95,"startTime":121.4674075,"endTime":121.57610316666666,"instrument":1,"program":12},{"pitch":74,"velocity":95,"startTime":121.630451,"endTime":121.73914666666666,"instrument":1,"program":12},{"pitch":69,"velocity":95,"startTime":121.7934945,"endTime":121.90219016666666,"instrument":1,"program":12},{"pitch":69,"velocity":95,"startTime":121.956538,"endTime":122.06523366666666,"instrument":1,"program":12},{"pitch":74,"velocity":95,"startTime":122.1195815,"endTime":122.22827716666666,"instrument":1,"program":12},{"pitch":69,"velocity":95,"startTime":122.282625,"endTime":122.39132066666666,"instrument":1,"program":12},{"pitch":69,"velocity":95,"startTime":122.4456685,"endTime":122.55436416666666,"instrument":1,"program":12},{"pitch":62,"velocity":95,"startTime":122.608712,"endTime":122.71740766666666,"instrument":1,"program":12},{"pitch":69,"velocity":95,"startTime":122.7717555,"endTime":122.88045116666666,"instrument":1,"program":12},{"pitch":74,"velocity":95,"startTime":122.93479899999998,"endTime":123.04349466666666,"instrument":1,"program":12},{"pitch":69,"velocity":95,"startTime":123.09784249999998,"endTime":123.20653816666666,"instrument":1,"program":12},{"pitch":74,"velocity":95,"startTime":123.26088599999999,"endTime":123.36958166666666,"instrument":1,"program":12},{"pitch":69,"velocity":95,"startTime":123.42392949999999,"endTime":123.53262516666666,"instrument":1,"program":12},{"pitch":69,"velocity":95,"startTime":123.58697299999999,"endTime":123.69566866666666,"instrument":1,"program":12},{"pitch":74,"velocity":95,"startTime":123.75001649999999,"endTime":123.85871216666666,"instrument":1,"program":12},{"pitch":69,"velocity":95,"startTime":123.91305999999999,"endTime":124.02175566666666,"instrument":1,"program":12},{"pitch":69,"velocity":95,"startTime":124.07610349999999,"endTime":124.18479916666666,"instrument":1,"program":12},{"pitch":74,"velocity":95,"startTime":124.23914699999999,"endTime":124.34784266666665,"instrument":1,"program":12},{"pitch":69,"velocity":95,"startTime":124.40219049999999,"endTime":124.51088616666665,"instrument":1,"program":12},{"pitch":74,"velocity":95,"startTime":124.56523399999999,"endTime":124.67392966666665,"instrument":1,"program":12},{"pitch":69,"velocity":95,"startTime":124.72827749999999,"endTime":124.83697316666665,"instrument":1,"program":12},{"pitch":69,"velocity":95,"startTime":124.89132099999999,"endTime":125.00001666666665,"instrument":1,"program":12},{"pitch":69,"velocity":95,"startTime":125.05436449999999,"endTime":125.16306016666665,"instrument":1,"program":12},{"pitch":43,"velocity":110,"startTime":104.34783999999999,"endTime":104.45653566666665,"instrument":2,"program":32},{"pitch":43,"velocity":110,"startTime":104.51088349999999,"endTime":104.67392699999999,"instrument":2,"program":32},{"pitch":43,"velocity":110,"startTime":104.83697049999999,"endTime":104.94566616666665,"instrument":2,"program":32},{"pitch":43,"velocity":110,"startTime":105.000014,"endTime":105.10870966666666,"instrument":2,"program":32},{"pitch":29,"velocity":110,"startTime":105.1630575,"endTime":105.27175316666666,"instrument":2,"program":32},{"pitch":31,"velocity":110,"startTime":105.326101,"endTime":105.4891445,"instrument":2,"program":32},{"pitch":29,"velocity":110,"startTime":105.652188,"endTime":105.76088366666666,"instrument":2,"program":32},{"pitch":29,"velocity":110,"startTime":105.8152315,"endTime":105.92392716666666,"instrument":2,"program":32},{"pitch":36,"velocity":110,"startTime":106.1413185,"endTime":106.304362,"instrument":2,"program":32},{"pitch":36,"velocity":110,"startTime":106.4674055,"endTime":106.57610116666666,"instrument":2,"program":32},{"pitch":29,"velocity":110,"startTime":106.630449,"endTime":106.79349249999999,"instrument":2,"program":32},{"pitch":28,"velocity":110,"startTime":106.95653599999999,"endTime":107.06523166666666,"instrument":2,"program":32},{"pitch":28,"velocity":110,"startTime":107.11957949999999,"endTime":107.22827516666666,"instrument":2,"program":32},{"pitch":31,"velocity":110,"startTime":107.28262299999999,"endTime":107.39131866666666,"instrument":2,"program":32},{"pitch":33,"velocity":110,"startTime":107.60870999999999,"endTime":107.77175349999999,"instrument":2,"program":32},{"pitch":45,"velocity":110,"startTime":107.93479699999999,"endTime":108.09784049999999,"instrument":2,"program":32},{"pitch":39,"velocity":110,"startTime":108.26088399999999,"endTime":108.42392749999999,"instrument":2,"program":32},{"pitch":39,"velocity":110,"startTime":108.58697099999999,"endTime":108.75001449999999,"instrument":2,"program":32},{"pitch":39,"velocity":110,"startTime":108.91305799999999,"endTime":109.0761015,"instrument":2,"program":32},{"pitch":43,"velocity":110,"startTime":109.239145,"endTime":109.4021885,"instrument":2,"program":32},{"pitch":31,"velocity":110,"startTime":109.565232,"endTime":109.7282755,"instrument":2,"program":32},{"pitch":36,"velocity":110,"startTime":112.01088449999999,"endTime":112.17392799999999,"instrument":2,"program":32},{"pitch":36,"velocity":110,"startTime":112.17392799999999,"endTime":112.33697149999999,"instrument":2,"program":32},{"pitch":36,"velocity":110,"startTime":112.50001499999999,"endTime":112.66305849999999,"instrument":2,"program":32},{"pitch":31,"velocity":110,"startTime":112.82610199999999,"endTime":112.93479766666665,"instrument":2,"program":32},{"pitch":31,"velocity":110,"startTime":112.98914549999999,"endTime":113.09784116666665,"instrument":2,"program":32},{"pitch":36,"velocity":110,"startTime":113.15218899999999,"endTime":113.3152325,"instrument":2,"program":32},{"pitch":36,"velocity":110,"startTime":113.478276,"endTime":113.58697166666666,"instrument":2,"program":32},{"pitch":31,"velocity":110,"startTime":113.6413195,"endTime":113.804363,"instrument":2,"program":32},{"pitch":29,"velocity":110,"startTime":114.13045,"endTime":114.34784133333332,"instrument":2,"program":32},{"pitch":46,"velocity":110,"startTime":114.456537,"endTime":114.6195805,"instrument":2,"program":32},{"pitch":36,"velocity":110,"startTime":114.782624,"endTime":114.94566749999998,"instrument":2,"program":32},{"pitch":36,"velocity":110,"startTime":115.10871099999999,"endTime":115.27175449999999,"instrument":2,"program":32},{"pitch":36,"velocity":110,"startTime":115.43479799999999,"endTime":115.59784149999999,"instrument":2,"program":32},{"pitch":36,"velocity":110,"startTime":115.76088499999999,"endTime":115.92392849999999,"instrument":2,"program":32},{"pitch":36,"velocity":110,"startTime":116.08697199999999,"endTime":116.25001549999999,"instrument":2,"program":32},{"pitch":36,"velocity":110,"startTime":116.41305899999999,"endTime":116.57610249999999,"instrument":2,"program":32},{"pitch":36,"velocity":110,"startTime":116.73914599999999,"endTime":116.90218949999999,"instrument":2,"program":32},{"pitch":36,"velocity":110,"startTime":117.06523299999999,"endTime":117.22827649999999,"instrument":2,"program":32},{"pitch":31,"velocity":110,"startTime":117.39132,"endTime":117.5543635,"instrument":2,"program":32},{"pitch":31,"velocity":110,"startTime":117.717407,"endTime":117.8804505,"instrument":2,"program":32},{"pitch":31,"velocity":110,"startTime":118.043494,"endTime":118.2065375,"instrument":2,"program":32},{"pitch":31,"velocity":110,"startTime":118.369581,"endTime":118.5326245,"instrument":2,"program":32},{"pitch":31,"velocity":110,"startTime":118.695668,"endTime":118.85871149999998,"instrument":2,"program":32},{"pitch":31,"velocity":110,"startTime":119.02175499999998,"endTime":119.18479849999999,"instrument":2,"program":32},{"pitch":31,"velocity":110,"startTime":119.34784199999999,"endTime":119.61958116666666,"instrument":2,"program":32},{"pitch":43,"velocity":110,"startTime":119.67392899999999,"endTime":119.83697249999999,"instrument":2,"program":32},{"pitch":38,"velocity":110,"startTime":120.00001599999999,"endTime":120.16305949999999,"instrument":2,"program":32},{"pitch":38,"velocity":110,"startTime":120.32610299999999,"endTime":120.48914649999999,"instrument":2,"program":32},{"pitch":38,"velocity":110,"startTime":120.65218999999999,"endTime":120.81523349999999,"instrument":2,"program":32},{"pitch":38,"velocity":110,"startTime":120.97827699999999,"endTime":121.14132049999999,"instrument":2,"program":32},{"pitch":42,"velocity":110,"startTime":121.30436399999999,"endTime":121.41305966666665,"instrument":2,"program":32},{"pitch":45,"velocity":110,"startTime":121.4674075,"endTime":121.630451,"instrument":2,"program":32},{"pitch":38,"velocity":110,"startTime":121.630451,"endTime":121.7934945,"instrument":2,"program":32},{"pitch":31,"velocity":110,"startTime":121.956538,"endTime":122.1195815,"instrument":2,"program":32},{"pitch":42,"velocity":110,"startTime":122.282625,"endTime":122.4456685,"instrument":2,"program":32},{"pitch":33,"velocity":110,"startTime":122.608712,"endTime":122.7717555,"instrument":2,"program":32},{"pitch":33,"velocity":110,"startTime":122.93479899999998,"endTime":123.09784249999998,"instrument":2,"program":32},{"pitch":38,"velocity":110,"startTime":123.26088599999999,"endTime":123.42392949999999,"instrument":2,"program":32},{"pitch":38,"velocity":110,"startTime":123.58697299999999,"endTime":123.75001649999999,"instrument":2,"program":32},{"pitch":31,"velocity":110,"startTime":123.91305999999999,"endTime":124.07610349999999,"instrument":2,"program":32},{"pitch":31,"velocity":110,"startTime":124.23914699999999,"endTime":124.40219049999999,"instrument":2,"program":32},{"pitch":38,"velocity":110,"startTime":124.56523399999999,"endTime":124.72827749999999,"instrument":2,"program":32},{"pitch":43,"velocity":110,"startTime":124.89132099999999,"endTime":125.05436449999999,"instrument":2,"program":32},{"pitch":58,"velocity":105,"startTime":104.34783999999999,"endTime":105.652188,"instrument":3,"program":50},{"pitch":62,"velocity":105,"startTime":104.34783999999999,"endTime":105.652188,"instrument":3,"program":50},{"pitch":65,"velocity":105,"startTime":104.34783999999999,"endTime":105.652188,"instrument":3,"program":50},{"pitch":67,"velocity":105,"startTime":104.34783999999999,"endTime":105.652188,"instrument":3,"program":50},{"pitch":57,"velocity":105,"startTime":105.652188,"endTime":106.95653599999999,"instrument":3,"program":50},{"pitch":58,"velocity":105,"startTime":105.652188,"endTime":106.95653599999999,"instrument":3,"program":50},{"pitch":62,"velocity":105,"startTime":105.652188,"endTime":106.95653599999999,"instrument":3,"program":50},{"pitch":65,"velocity":105,"startTime":105.652188,"endTime":106.95653599999999,"instrument":3,"program":50},{"pitch":55,"velocity":105,"startTime":106.95653599999999,"endTime":108.26088399999999,"instrument":3,"program":50},{"pitch":57,"velocity":105,"startTime":106.95653599999999,"endTime":108.26088399999999,"instrument":3,"program":50},{"pitch":64,"velocity":105,"startTime":106.95653599999999,"endTime":108.26088399999999,"instrument":3,"program":50},{"pitch":67,"velocity":105,"startTime":106.95653599999999,"endTime":108.26088399999999,"instrument":3,"program":50},{"pitch":58,"velocity":105,"startTime":108.26088399999999,"endTime":108.80436233333333,"instrument":3,"program":50},{"pitch":62,"velocity":105,"startTime":108.26088399999999,"endTime":108.80436233333333,"instrument":3,"program":50},{"pitch":65,"velocity":105,"startTime":108.26088399999999,"endTime":108.80436233333333,"instrument":3,"program":50},{"pitch":69,"velocity":105,"startTime":108.26088399999999,"endTime":108.80436233333333,"instrument":3,"program":50},{"pitch":58,"velocity":105,"startTime":108.91305799999999,"endTime":109.565232,"instrument":3,"program":50},{"pitch":62,"velocity":105,"startTime":108.91305799999999,"endTime":109.565232,"instrument":3,"program":50},{"pitch":65,"velocity":105,"startTime":108.91305799999999,"endTime":109.565232,"instrument":3,"program":50},{"pitch":69,"velocity":105,"startTime":108.91305799999999,"endTime":109.565232,"instrument":3,"program":50},{"pitch":55,"velocity":105,"startTime":109.565232,"endTime":109.78262333333332,"instrument":3,"program":50},{"pitch":62,"velocity":105,"startTime":109.565232,"endTime":109.7282755,"instrument":3,"program":50},{"pitch":65,"velocity":105,"startTime":109.565232,"endTime":109.7282755,"instrument":3,"program":50},{"pitch":71,"velocity":105,"startTime":109.565232,"endTime":109.7282755,"instrument":3,"program":50},{"pitch":63,"velocity":105,"startTime":112.17392799999999,"endTime":114.72827616666666,"instrument":3,"program":50},{"pitch":67,"velocity":105,"startTime":112.17392799999999,"endTime":114.72827616666666,"instrument":3,"program":50},{"pitch":70,"velocity":105,"startTime":112.17392799999999,"endTime":114.67392833333332,"instrument":3,"program":50},{"pitch":72,"velocity":105,"startTime":112.17392799999999,"endTime":114.67392833333332,"instrument":3,"program":50},{"pitch":55,"velocity":105,"startTime":114.782624,"endTime":117.39132,"instrument":3,"program":50},{"pitch":60,"velocity":105,"startTime":114.782624,"endTime":117.39132,"instrument":3,"program":50},{"pitch":63,"velocity":105,"startTime":114.782624,"endTime":117.39132,"instrument":3,"program":50},{"pitch":70,"velocity":105,"startTime":114.782624,"endTime":117.39132,"instrument":3,"program":50},{"pitch":58,"velocity":105,"startTime":117.39132,"endTime":118.369581,"instrument":3,"program":50},{"pitch":62,"velocity":105,"startTime":117.39132,"endTime":118.369581,"instrument":3,"program":50},{"pitch":67,"velocity":105,"startTime":117.39132,"endTime":118.369581,"instrument":3,"program":50},{"pitch":74,"velocity":105,"startTime":117.39132,"endTime":118.64132016666666,"instrument":3,"program":50},{"pitch":62,"velocity":105,"startTime":118.369581,"endTime":118.58697233333332,"instrument":3,"program":50},{"pitch":67,"velocity":105,"startTime":118.369581,"endTime":118.64132016666666,"instrument":3,"program":50},{"pitch":70,"velocity":105,"startTime":118.369581,"endTime":118.58697233333332,"instrument":3,"program":50},{"pitch":62,"velocity":105,"startTime":118.695668,"endTime":120.00001599999999,"instrument":3,"program":50},{"pitch":67,"velocity":105,"startTime":118.695668,"endTime":119.18479849999999,"instrument":3,"program":50},{"pitch":70,"velocity":105,"startTime":118.695668,"endTime":119.18479849999999,"instrument":3,"program":50},{"pitch":74,"velocity":105,"startTime":118.695668,"endTime":119.18479849999999,"instrument":3,"program":50},{"pitch":67,"velocity":105,"startTime":119.23914633333332,"endTime":119.29349416666666,"instrument":3,"program":50},{"pitch":70,"velocity":105,"startTime":119.29349416666666,"endTime":120.00001599999999,"instrument":3,"program":50},{"pitch":67,"velocity":105,"startTime":119.34784199999999,"endTime":120.00001599999999,"instrument":3,"program":50},{"pitch":60,"velocity":105,"startTime":120.00001599999999,"endTime":122.55436416666666,"instrument":3,"program":50},{"pitch":62,"velocity":105,"startTime":120.00001599999999,"endTime":122.55436416666666,"instrument":3,"program":50},{"pitch":66,"velocity":105,"startTime":120.00001599999999,"endTime":122.55436416666666,"instrument":3,"program":50},{"pitch":69,"velocity":105,"startTime":120.00001599999999,"endTime":122.55436416666666,"instrument":3,"program":50},{"pitch":60,"velocity":105,"startTime":122.608712,"endTime":123.26088599999999,"instrument":3,"program":50},{"pitch":62,"velocity":105,"startTime":122.608712,"endTime":123.26088599999999,"instrument":3,"program":50},{"pitch":70,"velocity":105,"startTime":122.608712,"endTime":123.26088599999999,"instrument":3,"program":50},{"pitch":73,"velocity":105,"startTime":122.608712,"endTime":123.26088599999999,"instrument":3,"program":50},{"pitch":62,"velocity":105,"startTime":123.26088599999999,"endTime":125.00001666666665,"instrument":3,"program":50},{"pitch":65,"velocity":105,"startTime":123.26088599999999,"endTime":123.42392949999999,"instrument":3,"program":50},{"pitch":70,"velocity":105,"startTime":123.26088599999999,"endTime":125.00001666666665,"instrument":3,"program":50},{"pitch":74,"velocity":105,"startTime":123.26088599999999,"endTime":123.42392949999999,"instrument":3,"program":50},{"pitch":74,"velocity":105,"startTime":123.47827733333332,"endTime":123.75001649999999,"instrument":3,"program":50},{"pitch":65,"velocity":105,"startTime":123.58697299999999,"endTime":123.80436433333333,"instrument":3,"program":50},{"pitch":70,"velocity":105,"startTime":123.58697299999999,"endTime":123.75001649999999,"instrument":3,"program":50},{"pitch":65,"velocity":105,"startTime":123.85871216666666,"endTime":125.00001666666665,"instrument":3,"program":50},{"pitch":70,"velocity":105,"startTime":123.85871216666666,"endTime":125.00001666666665,"instrument":3,"program":50},{"pitch":35,"velocity":102,"startTime":125.21740799999999,"endTime":125.38045149999999,"isDrum":true},{"pitch":42,"velocity":102,"startTime":125.21740799999999,"endTime":125.38045149999999,"isDrum":true},{"pitch":51,"velocity":102,"startTime":125.21740799999999,"endTime":125.38045149999999,"isDrum":true},{"pitch":42,"velocity":102,"startTime":125.543495,"endTime":125.7065385,"isDrum":true},{"pitch":40,"velocity":102,"startTime":125.869582,"endTime":126.0326255,"isDrum":true},{"pitch":42,"velocity":102,"startTime":125.869582,"endTime":126.0326255,"isDrum":true},{"pitch":42,"velocity":102,"startTime":126.195669,"endTime":126.3587125,"isDrum":true},{"pitch":35,"velocity":102,"startTime":126.3587125,"endTime":126.521756,"isDrum":true},{"pitch":35,"velocity":102,"startTime":126.521756,"endTime":126.6847995,"isDrum":true},{"pitch":42,"velocity":102,"startTime":126.521756,"endTime":126.6847995,"isDrum":true},{"pitch":42,"velocity":102,"startTime":126.847843,"endTime":127.01088649999998,"isDrum":true},{"pitch":40,"velocity":102,"startTime":127.17392999999998,"endTime":127.33697349999998,"isDrum":true},{"pitch":42,"velocity":102,"startTime":127.17392999999998,"endTime":127.33697349999998,"isDrum":true},{"pitch":42,"velocity":102,"startTime":127.50001699999999,"endTime":127.66306049999999,"isDrum":true},{"pitch":35,"velocity":102,"startTime":127.66306049999999,"endTime":127.82610399999999,"isDrum":true},{"pitch":35,"velocity":102,"startTime":127.82610399999999,"endTime":127.98914749999999,"isDrum":true},{"pitch":42,"velocity":102,"startTime":127.82610399999999,"endTime":127.98914749999999,"isDrum":true},{"pitch":42,"velocity":102,"startTime":128.152191,"endTime":128.3152345,"isDrum":true},{"pitch":40,"velocity":102,"startTime":128.478278,"endTime":128.6413215,"isDrum":true},{"pitch":42,"velocity":102,"startTime":128.478278,"endTime":128.6413215,"isDrum":true},{"pitch":42,"velocity":102,"startTime":128.804365,"endTime":128.96740849999998,"isDrum":true},{"pitch":35,"velocity":102,"startTime":128.96740849999998,"endTime":129.130452,"isDrum":true},{"pitch":35,"velocity":102,"startTime":129.130452,"endTime":129.29349549999998,"isDrum":true},{"pitch":42,"velocity":102,"startTime":129.130452,"endTime":129.29349549999998,"isDrum":true},{"pitch":42,"velocity":102,"startTime":129.456539,"endTime":129.61958249999998,"isDrum":true},{"pitch":40,"velocity":102,"startTime":129.782626,"endTime":129.94566949999998,"isDrum":true},{"pitch":42,"velocity":102,"startTime":129.782626,"endTime":129.94566949999998,"isDrum":true},{"pitch":42,"velocity":102,"startTime":130.108713,"endTime":130.27175649999998,"isDrum":true},{"pitch":35,"velocity":102,"startTime":130.4348,"endTime":130.59784349999998,"isDrum":true},{"pitch":42,"velocity":102,"startTime":130.4348,"endTime":130.59784349999998,"isDrum":true},{"pitch":42,"velocity":102,"startTime":130.760887,"endTime":130.92393049999998,"isDrum":true},{"pitch":35,"velocity":102,"startTime":130.92393049999998,"endTime":131.086974,"isDrum":true},{"pitch":40,"velocity":102,"startTime":131.086974,"endTime":131.25001749999998,"isDrum":true},{"pitch":42,"velocity":102,"startTime":131.086974,"endTime":131.25001749999998,"isDrum":true},{"pitch":35,"velocity":102,"startTime":131.413061,"endTime":131.57610449999999,"isDrum":true},{"pitch":42,"velocity":102,"startTime":131.413061,"endTime":131.57610449999999,"isDrum":true},{"pitch":35,"velocity":102,"startTime":131.739148,"endTime":131.9021915,"isDrum":true},{"pitch":42,"velocity":102,"startTime":131.739148,"endTime":131.9021915,"isDrum":true},{"pitch":42,"velocity":102,"startTime":132.065235,"endTime":132.2282785,"isDrum":true},{"pitch":40,"velocity":102,"startTime":132.391322,"endTime":132.5543655,"isDrum":true},{"pitch":42,"velocity":102,"startTime":132.391322,"endTime":132.5543655,"isDrum":true},{"pitch":42,"velocity":102,"startTime":132.717409,"endTime":132.8804525,"isDrum":true},{"pitch":35,"velocity":102,"startTime":133.04349599999998,"endTime":133.2065395,"isDrum":true},{"pitch":42,"velocity":102,"startTime":133.04349599999998,"endTime":133.2065395,"isDrum":true},{"pitch":42,"velocity":102,"startTime":133.36958299999998,"endTime":133.5326265,"isDrum":true},{"pitch":40,"velocity":102,"startTime":133.69566999999998,"endTime":133.8587135,"isDrum":true},{"pitch":42,"velocity":102,"startTime":133.69566999999998,"endTime":133.8587135,"isDrum":true},{"pitch":42,"velocity":102,"startTime":134.02175699999998,"endTime":134.1848005,"isDrum":true},{"pitch":35,"velocity":102,"startTime":134.1848005,"endTime":134.34784399999998,"isDrum":true},{"pitch":35,"velocity":102,"startTime":134.34784399999998,"endTime":134.5108875,"isDrum":true},{"pitch":42,"velocity":102,"startTime":134.34784399999998,"endTime":134.5108875,"isDrum":true},{"pitch":42,"velocity":102,"startTime":134.67393099999998,"endTime":134.8369745,"isDrum":true},{"pitch":40,"velocity":102,"startTime":135.00001799999998,"endTime":135.1630615,"isDrum":true},{"pitch":42,"velocity":102,"startTime":135.00001799999998,"endTime":135.1630615,"isDrum":true},{"pitch":42,"velocity":102,"startTime":135.32610499999998,"endTime":135.4891485,"isDrum":true},{"pitch":35,"velocity":102,"startTime":135.4891485,"endTime":135.65219199999999,"isDrum":true},{"pitch":35,"velocity":102,"startTime":135.65219199999999,"endTime":135.8152355,"isDrum":true},{"pitch":42,"velocity":102,"startTime":135.65219199999999,"endTime":135.8152355,"isDrum":true},{"pitch":42,"velocity":102,"startTime":135.978279,"endTime":136.1413225,"isDrum":true},{"pitch":40,"velocity":102,"startTime":136.304366,"endTime":136.4674095,"isDrum":true},{"pitch":42,"velocity":102,"startTime":136.304366,"endTime":136.4674095,"isDrum":true},{"pitch":42,"velocity":102,"startTime":136.630453,"endTime":136.7934965,"isDrum":true},{"pitch":35,"velocity":102,"startTime":136.7934965,"endTime":136.95654,"isDrum":true},{"pitch":35,"velocity":102,"startTime":136.95654,"endTime":137.11958349999998,"isDrum":true},{"pitch":42,"velocity":102,"startTime":136.95654,"endTime":137.11958349999998,"isDrum":true},{"pitch":42,"velocity":102,"startTime":137.282627,"endTime":137.44567049999998,"isDrum":true},{"pitch":40,"velocity":102,"startTime":137.608714,"endTime":137.77175749999998,"isDrum":true},{"pitch":42,"velocity":102,"startTime":137.608714,"endTime":137.77175749999998,"isDrum":true},{"pitch":42,"velocity":102,"startTime":137.934801,"endTime":138.09784449999998,"isDrum":true},{"pitch":35,"velocity":102,"startTime":138.260888,"endTime":138.42393149999998,"isDrum":true},{"pitch":42,"velocity":102,"startTime":138.260888,"endTime":138.42393149999998,"isDrum":true},{"pitch":42,"velocity":102,"startTime":138.586975,"endTime":138.75001849999998,"isDrum":true},{"pitch":40,"velocity":102,"startTime":138.913062,"endTime":139.07610549999998,"isDrum":true},{"pitch":42,"velocity":102,"startTime":138.913062,"endTime":139.07610549999998,"isDrum":true},{"pitch":42,"velocity":102,"startTime":139.239149,"endTime":139.40219249999998,"isDrum":true},{"pitch":35,"velocity":102,"startTime":139.40219249999998,"endTime":139.565236,"isDrum":true},{"pitch":35,"velocity":102,"startTime":139.565236,"endTime":139.72827949999999,"isDrum":true},{"pitch":42,"velocity":102,"startTime":139.565236,"endTime":139.72827949999999,"isDrum":true},{"pitch":42,"velocity":102,"startTime":139.891323,"endTime":140.0543665,"isDrum":true},{"pitch":40,"velocity":102,"startTime":140.21741,"endTime":140.3804535,"isDrum":true},{"pitch":42,"velocity":102,"startTime":140.21741,"endTime":140.3804535,"isDrum":true},{"pitch":42,"velocity":102,"startTime":140.543497,"endTime":140.7065405,"isDrum":true},{"pitch":35,"velocity":102,"startTime":140.7065405,"endTime":140.869584,"isDrum":true},{"pitch":35,"velocity":102,"startTime":140.869584,"endTime":141.0326275,"isDrum":true},{"pitch":42,"velocity":102,"startTime":140.869584,"endTime":141.0326275,"isDrum":true},{"pitch":42,"velocity":102,"startTime":141.19567099999998,"endTime":141.3587145,"isDrum":true},{"pitch":40,"velocity":102,"startTime":141.52175799999998,"endTime":141.6848015,"isDrum":true},{"pitch":42,"velocity":102,"startTime":141.52175799999998,"endTime":141.6848015,"isDrum":true},{"pitch":42,"velocity":102,"startTime":141.84784499999998,"endTime":142.0108885,"isDrum":true},{"pitch":35,"velocity":102,"startTime":142.0108885,"endTime":142.17393199999998,"isDrum":true},{"pitch":35,"velocity":102,"startTime":142.17393199999998,"endTime":142.3369755,"isDrum":true},{"pitch":42,"velocity":102,"startTime":142.17393199999998,"endTime":142.3369755,"isDrum":true},{"pitch":42,"velocity":102,"startTime":142.50001899999998,"endTime":142.6630625,"isDrum":true},{"pitch":40,"velocity":102,"startTime":142.82610599999998,"endTime":142.9891495,"isDrum":true},{"pitch":42,"velocity":102,"startTime":142.82610599999998,"endTime":142.9891495,"isDrum":true},{"pitch":42,"velocity":102,"startTime":143.15219299999998,"endTime":143.3152365,"isDrum":true},{"pitch":35,"velocity":102,"startTime":143.3152365,"endTime":143.47827999999998,"isDrum":true},{"pitch":35,"velocity":102,"startTime":143.47827999999998,"endTime":143.6413235,"isDrum":true},{"pitch":42,"velocity":102,"startTime":143.47827999999998,"endTime":143.6413235,"isDrum":true},{"pitch":42,"velocity":102,"startTime":143.80436699999998,"endTime":143.9674105,"isDrum":true},{"pitch":40,"velocity":102,"startTime":144.130454,"endTime":144.2934975,"isDrum":true},{"pitch":42,"velocity":102,"startTime":144.130454,"endTime":144.2934975,"isDrum":true},{"pitch":42,"velocity":102,"startTime":144.456541,"endTime":144.6195845,"isDrum":true},{"pitch":35,"velocity":102,"startTime":144.6195845,"endTime":144.782628,"isDrum":true},{"pitch":35,"velocity":102,"startTime":144.782628,"endTime":144.9456715,"isDrum":true},{"pitch":42,"velocity":102,"startTime":144.782628,"endTime":144.9456715,"isDrum":true},{"pitch":42,"velocity":102,"startTime":145.108715,"endTime":145.27175849999998,"isDrum":true},{"pitch":40,"velocity":102,"startTime":145.434802,"endTime":145.59784549999998,"isDrum":true},{"pitch":42,"velocity":102,"startTime":145.434802,"endTime":145.59784549999998,"isDrum":true},{"pitch":42,"velocity":102,"startTime":145.760889,"endTime":145.92393249999998,"isDrum":true},{"pitch":69,"velocity":95,"startTime":125.38045149999999,"endTime":125.43479933333333,"instrument":1,"program":12},{"pitch":64,"velocity":95,"startTime":125.543495,"endTime":125.59784283333332,"instrument":1,"program":12},{"pitch":69,"velocity":95,"startTime":125.7065385,"endTime":125.76088633333332,"instrument":1,"program":12},{"pitch":74,"velocity":95,"startTime":125.869582,"endTime":125.97827766666666,"instrument":1,"program":12},{"pitch":69,"velocity":95,"startTime":126.0326255,"endTime":126.08697333333332,"instrument":1,"program":12},{"pitch":64,"velocity":95,"startTime":126.195669,"endTime":126.30436466666666,"instrument":1,"program":12},{"pitch":69,"velocity":95,"startTime":126.3587125,"endTime":126.46740816666666,"instrument":1,"program":12},{"pitch":64,"velocity":95,"startTime":126.521756,"endTime":126.63045166666666,"instrument":1,"program":12},{"pitch":69,"velocity":95,"startTime":126.6847995,"endTime":126.79349516666666,"instrument":1,"program":12},{"pitch":64,"velocity":95,"startTime":126.847843,"endTime":126.95653866666666,"instrument":1,"program":12},{"pitch":62,"velocity":95,"startTime":127.01088649999998,"endTime":127.06523433333332,"instrument":1,"program":12},{"pitch":69,"velocity":95,"startTime":127.17392999999998,"endTime":127.28262566666666,"instrument":1,"program":12},{"pitch":69,"velocity":95,"startTime":127.33697349999998,"endTime":127.39132133333332,"instrument":1,"program":12},{"pitch":72,"velocity":95,"startTime":127.50001699999999,"endTime":127.60871266666666,"instrument":1,"program":12},{"pitch":69,"velocity":95,"startTime":127.66306049999999,"endTime":127.77175616666666,"instrument":1,"program":12},{"pitch":62,"velocity":95,"startTime":127.82610399999999,"endTime":127.93479966666666,"instrument":1,"program":12},{"pitch":69,"velocity":95,"startTime":127.98914749999999,"endTime":128.09784316666665,"instrument":1,"program":12},{"pitch":74,"velocity":95,"startTime":128.152191,"endTime":128.26088666666666,"instrument":1,"program":12},{"pitch":69,"velocity":95,"startTime":128.3152345,"endTime":128.3695823333333,"instrument":1,"program":12},{"pitch":72,"velocity":95,"startTime":128.478278,"endTime":128.58697366666667,"instrument":1,"program":12},{"pitch":69,"velocity":95,"startTime":128.6413215,"endTime":128.6956693333333,"instrument":1,"program":12},{"pitch":69,"velocity":95,"startTime":128.804365,"endTime":128.91306066666667,"instrument":1,"program":12},{"pitch":74,"velocity":95,"startTime":128.96740849999998,"endTime":129.07610416666665,"instrument":1,"program":12},{"pitch":69,"velocity":95,"startTime":129.130452,"endTime":129.23914766666667,"instrument":1,"program":12},{"pitch":74,"velocity":95,"startTime":129.29349549999998,"endTime":129.40219116666665,"instrument":1,"program":12},{"pitch":69,"velocity":95,"startTime":129.456539,"endTime":129.56523466666667,"instrument":1,"program":12},{"pitch":74,"velocity":95,"startTime":129.61958249999998,"endTime":129.72827816666666,"instrument":1,"program":12},{"pitch":74,"velocity":95,"startTime":129.782626,"endTime":129.89132166666667,"instrument":1,"program":12},{"pitch":69,"velocity":95,"startTime":129.94566949999998,"endTime":130.00001733333332,"instrument":1,"program":12},{"pitch":69,"velocity":95,"startTime":130.108713,"endTime":130.21740866666667,"instrument":1,"program":12},{"pitch":72,"velocity":95,"startTime":130.27175649999998,"endTime":130.38045216666666,"instrument":1,"program":12},{"pitch":58,"velocity":95,"startTime":130.4348,"endTime":130.54349566666664,"instrument":1,"program":12},{"pitch":62,"velocity":95,"startTime":130.59784349999998,"endTime":130.70653916666666,"instrument":1,"program":12},{"pitch":67,"velocity":95,"startTime":130.760887,"endTime":130.86958266666664,"instrument":1,"program":12},{"pitch":62,"velocity":95,"startTime":130.92393049999998,"endTime":131.03262616666666,"instrument":1,"program":12},{"pitch":74,"velocity":95,"startTime":131.086974,"endTime":131.19566966666665,"instrument":1,"program":12},{"pitch":79,"velocity":95,"startTime":131.25001749999998,"endTime":131.30436533333332,"instrument":1,"program":12},{"pitch":70,"velocity":95,"startTime":131.413061,"endTime":131.52175666666665,"instrument":1,"program":12},{"pitch":62,"velocity":95,"startTime":131.57610449999999,"endTime":131.68480016666666,"instrument":1,"program":12},{"pitch":74,"velocity":95,"startTime":131.739148,"endTime":131.84784366666665,"instrument":1,"program":12},{"pitch":70,"velocity":95,"startTime":131.9021915,"endTime":132.01088716666666,"instrument":1,"program":12},{"pitch":74,"velocity":95,"startTime":132.065235,"endTime":132.17393066666665,"instrument":1,"program":12},{"pitch":74,"velocity":95,"startTime":132.2282785,"endTime":132.33697416666666,"instrument":1,"program":12},{"pitch":77,"velocity":95,"startTime":132.391322,"endTime":132.50001766666665,"instrument":1,"program":12},{"pitch":70,"velocity":95,"startTime":132.5543655,"endTime":132.60871333333333,"instrument":1,"program":12},{"pitch":67,"velocity":95,"startTime":132.717409,"endTime":132.7717568333333,"instrument":1,"program":12},{"pitch":62,"velocity":95,"startTime":132.8804525,"endTime":132.98914816666667,"instrument":1,"program":12},{"pitch":62,"velocity":95,"startTime":133.04349599999998,"endTime":133.15219166666665,"instrument":1,"program":12},{"pitch":67,"velocity":95,"startTime":133.2065395,"endTime":133.31523516666667,"instrument":1,"program":12},{"pitch":70,"velocity":95,"startTime":133.36958299999998,"endTime":133.47827866666665,"instrument":1,"program":12},{"pitch":74,"velocity":95,"startTime":133.5326265,"endTime":133.64132216666667,"instrument":1,"program":12},{"pitch":74,"velocity":95,"startTime":133.69566999999998,"endTime":133.80436566666665,"instrument":1,"program":12},{"pitch":70,"velocity":95,"startTime":133.8587135,"endTime":133.91306133333333,"instrument":1,"program":12},{"pitch":74,"velocity":95,"startTime":134.02175699999998,"endTime":134.13045266666666,"instrument":1,"program":12},{"pitch":70,"velocity":95,"startTime":134.1848005,"endTime":134.29349616666664,"instrument":1,"program":12},{"pitch":74,"velocity":95,"startTime":134.34784399999998,"endTime":134.45653966666666,"instrument":1,"program":12},{"pitch":70,"velocity":95,"startTime":134.5108875,"endTime":134.61958316666664,"instrument":1,"program":12},{"pitch":74,"velocity":95,"startTime":134.67393099999998,"endTime":134.78262666666666,"instrument":1,"program":12},{"pitch":70,"velocity":95,"startTime":134.8369745,"endTime":134.94567016666664,"instrument":1,"program":12},{"pitch":74,"velocity":95,"startTime":135.00001799999998,"endTime":135.10871366666666,"instrument":1,"program":12},{"pitch":70,"velocity":95,"startTime":135.1630615,"endTime":135.21740933333334,"instrument":1,"program":12},{"pitch":67,"velocity":95,"startTime":135.32610499999998,"endTime":135.38045283333332,"instrument":1,"program":12},{"pitch":70,"velocity":95,"startTime":135.4891485,"endTime":135.54349633333334,"instrument":1,"program":12},{"pitch":62,"velocity":95,"startTime":135.65219199999999,"endTime":135.76088766666666,"instrument":1,"program":12},{"pitch":69,"velocity":95,"startTime":135.8152355,"endTime":135.92393116666665,"instrument":1,"program":12},{"pitch":72,"velocity":95,"startTime":135.978279,"endTime":136.08697466666666,"instrument":1,"program":12},{"pitch":74,"velocity":95,"startTime":136.1413225,"endTime":136.25001816666665,"instrument":1,"program":12},{"pitch":69,"velocity":95,"startTime":136.304366,"endTime":136.41306166666666,"instrument":1,"program":12},{"pitch":72,"velocity":95,"startTime":136.4674095,"endTime":136.5217573333333,"instrument":1,"program":12},{"pitch":69,"velocity":95,"startTime":136.630453,"endTime":136.73914866666667,"instrument":1,"program":12},{"pitch":72,"velocity":95,"startTime":136.7934965,"endTime":136.90219216666665,"instrument":1,"program":12},{"pitch":74,"velocity":95,"startTime":136.95654,"endTime":137.06523566666667,"instrument":1,"program":12},{"pitch":69,"velocity":95,"startTime":137.11958349999998,"endTime":137.22827916666665,"instrument":1,"program":12},{"pitch":72,"velocity":95,"startTime":137.282627,"endTime":137.39132266666667,"instrument":1,"program":12},{"pitch":74,"velocity":95,"startTime":137.44567049999998,"endTime":137.55436616666665,"instrument":1,"program":12},{"pitch":74,"velocity":95,"startTime":137.608714,"endTime":137.71740966666667,"instrument":1,"program":12},{"pitch":69,"velocity":95,"startTime":137.77175749999998,"endTime":137.82610533333332,"instrument":1,"program":12},{"pitch":74,"velocity":95,"startTime":137.934801,"endTime":137.98914883333333,"instrument":1,"program":12},{"pitch":69,"velocity":95,"startTime":138.09784449999998,"endTime":138.15219233333332,"instrument":1,"program":12},{"pitch":62,"velocity":95,"startTime":138.260888,"endTime":138.36958366666664,"instrument":1,"program":12},{"pitch":71,"velocity":95,"startTime":138.42393149999998,"endTime":138.53262716666666,"instrument":1,"program":12},{"pitch":74,"velocity":95,"startTime":138.586975,"endTime":138.64132283333333,"instrument":1,"program":12},{"pitch":71,"velocity":95,"startTime":138.75001849999998,"endTime":138.80436633333332,"instrument":1,"program":12},{"pitch":74,"velocity":95,"startTime":138.913062,"endTime":139.02175766666664,"instrument":1,"program":12},{"pitch":74,"velocity":95,"startTime":139.07610549999998,"endTime":139.13045333333332,"instrument":1,"program":12},{"pitch":69,"velocity":95,"startTime":139.239149,"endTime":139.29349683333334,"instrument":1,"program":12},{"pitch":74,"velocity":95,"startTime":139.40219249999998,"endTime":139.45654033333332,"instrument":1,"program":12},{"pitch":74,"velocity":95,"startTime":139.565236,"endTime":139.67393166666665,"instrument":1,"program":12},{"pitch":74,"velocity":95,"startTime":139.72827949999999,"endTime":139.83697516666666,"instrument":1,"program":12},{"pitch":69,"velocity":95,"startTime":139.891323,"endTime":140.00001866666665,"instrument":1,"program":12},{"pitch":74,"velocity":95,"startTime":140.0543665,"endTime":140.16306216666666,"instrument":1,"program":12},{"pitch":74,"velocity":95,"startTime":140.21741,"endTime":140.32610566666665,"instrument":1,"program":12},{"pitch":69,"velocity":95,"startTime":140.3804535,"endTime":140.43480133333333,"instrument":1,"program":12},{"pitch":74,"velocity":95,"startTime":140.543497,"endTime":140.5978448333333,"instrument":1,"program":12},{"pitch":72,"velocity":95,"startTime":140.7065405,"endTime":140.81523616666666,"instrument":1,"program":12},{"pitch":62,"velocity":95,"startTime":140.869584,"endTime":140.97827966666665,"instrument":1,"program":12},{"pitch":67,"velocity":95,"startTime":141.0326275,"endTime":141.14132316666667,"instrument":1,"program":12},{"pitch":70,"velocity":95,"startTime":141.19567099999998,"endTime":141.30436666666665,"instrument":1,"program":12},{"pitch":79,"velocity":95,"startTime":141.3587145,"endTime":141.46741016666667,"instrument":1,"program":12},{"pitch":82,"velocity":95,"startTime":141.52175799999998,"endTime":141.63045366666665,"instrument":1,"program":12},{"pitch":79,"velocity":95,"startTime":141.6848015,"endTime":141.73914933333333,"instrument":1,"program":12},{"pitch":70,"velocity":95,"startTime":141.84784499999998,"endTime":141.90219283333332,"instrument":1,"program":12},{"pitch":76,"velocity":95,"startTime":142.0108885,"endTime":142.06523633333333,"instrument":1,"program":12},{"pitch":79,"velocity":95,"startTime":142.17393199999998,"endTime":142.28262766666666,"instrument":1,"program":12},{"pitch":70,"velocity":95,"startTime":142.3369755,"endTime":142.39132333333333,"instrument":1,"program":12},{"pitch":79,"velocity":95,"startTime":142.50001899999998,"endTime":142.55436683333332,"instrument":1,"program":12},{"pitch":79,"velocity":95,"startTime":142.6630625,"endTime":142.77175816666664,"instrument":1,"program":12},{"pitch":70,"velocity":95,"startTime":142.82610599999998,"endTime":142.93480166666666,"instrument":1,"program":12},{"pitch":79,"velocity":95,"startTime":142.9891495,"endTime":143.09784516666664,"instrument":1,"program":12},{"pitch":70,"velocity":95,"startTime":143.15219299999998,"endTime":143.26088866666666,"instrument":1,"program":12},{"pitch":67,"velocity":95,"startTime":143.3152365,"endTime":143.36958433333334,"instrument":1,"program":12},{"pitch":62,"velocity":95,"startTime":143.47827999999998,"endTime":143.58697566666666,"instrument":1,"program":12},{"pitch":67,"velocity":95,"startTime":143.6413235,"endTime":143.75001916666665,"instrument":1,"program":12},{"pitch":70,"velocity":95,"startTime":143.80436699999998,"endTime":143.85871483333332,"instrument":1,"program":12},{"pitch":67,"velocity":95,"startTime":143.9674105,"endTime":144.07610616666665,"instrument":1,"program":12},{"pitch":70,"velocity":95,"startTime":144.130454,"endTime":144.23914966666666,"instrument":1,"program":12},{"pitch":67,"velocity":95,"startTime":144.2934975,"endTime":144.3478453333333,"instrument":1,"program":12},{"pitch":70,"velocity":95,"startTime":144.456541,"endTime":144.56523666666666,"instrument":1,"program":12},{"pitch":74,"velocity":95,"startTime":144.6195845,"endTime":144.6739323333333,"instrument":1,"program":12},{"pitch":67,"velocity":95,"startTime":144.782628,"endTime":144.89132366666666,"instrument":1,"program":12},{"pitch":70,"velocity":95,"startTime":144.9456715,"endTime":145.0000193333333,"instrument":1,"program":12},{"pitch":67,"velocity":95,"startTime":145.108715,"endTime":145.21741066666667,"instrument":1,"program":12},{"pitch":62,"velocity":95,"startTime":145.27175849999998,"endTime":145.38045416666665,"instrument":1,"program":12},{"pitch":70,"velocity":95,"startTime":145.434802,"endTime":145.54349766666667,"instrument":1,"program":12},{"pitch":67,"velocity":95,"startTime":145.59784549999998,"endTime":145.65219333333332,"instrument":1,"program":12},{"pitch":70,"velocity":95,"startTime":145.760889,"endTime":145.86958466666667,"instrument":1,"program":12},{"pitch":70,"velocity":95,"startTime":145.92393249999998,"endTime":146.03262816666665,"instrument":1,"program":12},{"pitch":38,"velocity":110,"startTime":125.21740799999999,"endTime":125.38045149999999,"instrument":2,"program":32},{"pitch":38,"velocity":110,"startTime":125.7065385,"endTime":125.869582,"instrument":2,"program":32},{"pitch":38,"velocity":110,"startTime":126.195669,"endTime":126.41306033333332,"instrument":2,"program":32},{"pitch":40,"velocity":110,"startTime":126.521756,"endTime":126.6847995,"instrument":2,"program":32},{"pitch":33,"velocity":110,"startTime":126.847843,"endTime":127.06523433333332,"instrument":2,"program":32},{"pitch":38,"velocity":110,"startTime":127.17392999999998,"endTime":127.33697349999998,"instrument":2,"program":32},{"pitch":38,"velocity":110,"startTime":127.50001699999999,"endTime":127.66306049999999,"instrument":2,"program":32},{"pitch":38,"velocity":110,"startTime":127.82610399999999,"endTime":127.98914749999999,"instrument":2,"program":32},{"pitch":38,"velocity":110,"startTime":128.152191,"endTime":128.3152345,"instrument":2,"program":32},{"pitch":33,"velocity":110,"startTime":128.478278,"endTime":128.6413215,"instrument":2,"program":32},{"pitch":38,"velocity":110,"startTime":128.804365,"endTime":128.96740849999998,"instrument":2,"program":32},{"pitch":33,"velocity":110,"startTime":129.130452,"endTime":129.29349549999998,"instrument":2,"program":32},{"pitch":33,"velocity":110,"startTime":129.456539,"endTime":129.61958249999998,"instrument":2,"program":32},{"pitch":33,"velocity":110,"startTime":129.782626,"endTime":129.94566949999998,"instrument":2,"program":32},{"pitch":33,"velocity":110,"startTime":130.108713,"endTime":130.27175649999998,"instrument":2,"program":32},{"pitch":43,"velocity":110,"startTime":130.4348,"endTime":130.59784349999998,"instrument":2,"program":32},{"pitch":43,"velocity":110,"startTime":130.760887,"endTime":130.92393049999998,"instrument":2,"program":32},{"pitch":43,"velocity":110,"startTime":131.086974,"endTime":131.25001749999998,"instrument":2,"program":32},{"pitch":38,"velocity":110,"startTime":131.413061,"endTime":131.57610449999999,"instrument":2,"program":32},{"pitch":43,"velocity":110,"startTime":131.739148,"endTime":131.9021915,"instrument":2,"program":32},{"pitch":43,"velocity":110,"startTime":132.065235,"endTime":132.2282785,"instrument":2,"program":32},{"pitch":43,"velocity":110,"startTime":132.391322,"endTime":132.5543655,"instrument":2,"program":32},{"pitch":38,"velocity":110,"startTime":132.717409,"endTime":132.8804525,"instrument":2,"program":32},{"pitch":43,"velocity":110,"startTime":133.04349599999998,"endTime":133.2065395,"instrument":2,"program":32},{"pitch":43,"velocity":110,"startTime":133.36958299999998,"endTime":133.5326265,"instrument":2,"program":32},{"pitch":34,"velocity":110,"startTime":133.69566999999998,"endTime":133.8587135,"instrument":2,"program":32},{"pitch":38,"velocity":110,"startTime":134.02175699999998,"endTime":134.1848005,"instrument":2,"program":32},{"pitch":43,"velocity":110,"startTime":134.34784399999998,"endTime":134.5108875,"instrument":2,"program":32},{"pitch":38,"velocity":110,"startTime":134.67393099999998,"endTime":134.8369745,"instrument":2,"program":32},{"pitch":46,"velocity":110,"startTime":135.00001799999998,"endTime":135.1630615,"instrument":2,"program":32},{"pitch":38,"velocity":110,"startTime":135.32610499999998,"endTime":135.4891485,"instrument":2,"program":32},{"pitch":38,"velocity":110,"startTime":135.65219199999999,"endTime":135.8152355,"instrument":2,"program":32},{"pitch":33,"velocity":110,"startTime":135.978279,"endTime":136.1413225,"instrument":2,"program":32},{"pitch":38,"velocity":110,"startTime":136.304366,"endTime":136.4674095,"instrument":2,"program":32},{"pitch":38,"velocity":110,"startTime":136.630453,"endTime":136.7934965,"instrument":2,"program":32},{"pitch":33,"velocity":110,"startTime":136.95654,"endTime":137.11958349999998,"instrument":2,"program":32},{"pitch":33,"velocity":110,"startTime":137.282627,"endTime":137.44567049999998,"instrument":2,"program":32},{"pitch":33,"velocity":110,"startTime":137.608714,"endTime":137.77175749999998,"instrument":2,"program":32},{"pitch":33,"velocity":110,"startTime":137.934801,"endTime":138.09784449999998,"instrument":2,"program":32},{"pitch":38,"velocity":110,"startTime":138.260888,"endTime":138.42393149999998,"instrument":2,"program":32},{"pitch":33,"velocity":110,"startTime":138.586975,"endTime":138.75001849999998,"instrument":2,"program":32},{"pitch":38,"velocity":110,"startTime":138.913062,"endTime":139.07610549999998,"instrument":2,"program":32},{"pitch":38,"velocity":110,"startTime":139.239149,"endTime":139.40219249999998,"instrument":2,"program":32},{"pitch":33,"velocity":110,"startTime":139.565236,"endTime":139.72827949999999,"instrument":2,"program":32},{"pitch":33,"velocity":110,"startTime":139.891323,"endTime":140.0543665,"instrument":2,"program":32},{"pitch":33,"velocity":110,"startTime":140.0543665,"endTime":140.16306216666666,"instrument":2,"program":32},{"pitch":33,"velocity":110,"startTime":140.21741,"endTime":140.3804535,"instrument":2,"program":32},{"pitch":38,"velocity":110,"startTime":140.543497,"endTime":140.7065405,"instrument":2,"program":32},{"pitch":43,"velocity":110,"startTime":140.869584,"endTime":141.08697533333333,"instrument":2,"program":32},{"pitch":43,"velocity":110,"startTime":141.19567099999998,"endTime":141.3587145,"instrument":2,"program":32},{"pitch":38,"velocity":110,"startTime":141.52175799999998,"endTime":141.6848015,"instrument":2,"program":32},{"pitch":38,"velocity":110,"startTime":141.84784499999998,"endTime":142.0108885,"instrument":2,"program":32},{"pitch":43,"velocity":110,"startTime":142.17393199999998,"endTime":142.3369755,"instrument":2,"program":32},{"pitch":43,"velocity":110,"startTime":142.50001899999998,"endTime":142.6630625,"instrument":2,"program":32},{"pitch":38,"velocity":110,"startTime":142.82610599999998,"endTime":142.9891495,"instrument":2,"program":32},{"pitch":38,"velocity":110,"startTime":143.15219299999998,"endTime":143.3152365,"instrument":2,"program":32},{"pitch":34,"velocity":110,"startTime":143.47827999999998,"endTime":143.6956713333333,"instrument":2,"program":32},{"pitch":38,"velocity":110,"startTime":143.80436699999998,"endTime":143.9674105,"instrument":2,"program":32},{"pitch":31,"velocity":110,"startTime":144.130454,"endTime":144.2934975,"instrument":2,"program":32},{"pitch":31,"velocity":110,"startTime":144.456541,"endTime":144.6195845,"instrument":2,"program":32},{"pitch":31,"velocity":110,"startTime":144.782628,"endTime":145.0000193333333,"instrument":2,"program":32},{"pitch":33,"velocity":110,"startTime":145.108715,"endTime":145.27175849999998,"instrument":2,"program":32},{"pitch":38,"velocity":110,"startTime":145.434802,"endTime":145.59784549999998,"instrument":2,"program":32},{"pitch":31,"velocity":110,"startTime":145.59784549999998,"endTime":145.760889,"instrument":2,"program":32},{"pitch":38,"velocity":110,"startTime":145.92393249999998,"endTime":146.03262816666665,"instrument":2,"program":32},{"pitch":76,"velocity":105,"startTime":125.21740799999999,"endTime":127.71740833333332,"instrument":3,"program":50},{"pitch":60,"velocity":105,"startTime":127.82610399999999,"endTime":130.4348,"instrument":3,"program":50},{"pitch":62,"velocity":105,"startTime":127.82610399999999,"endTime":130.4348,"instrument":3,"program":50},{"pitch":66,"velocity":105,"startTime":127.82610399999999,"endTime":130.4348,"instrument":3,"program":50},{"pitch":69,"velocity":105,"startTime":127.82610399999999,"endTime":130.4348,"instrument":3,"program":50},{"pitch":58,"velocity":105,"startTime":130.4348,"endTime":133.04349599999998,"instrument":3,"program":50},{"pitch":65,"velocity":105,"startTime":130.4348,"endTime":133.04349599999998,"instrument":3,"program":50},{"pitch":67,"velocity":105,"startTime":130.4348,"endTime":133.04349599999998,"instrument":3,"program":50},{"pitch":74,"velocity":105,"startTime":130.4348,"endTime":133.04349599999998,"instrument":3,"program":50},{"pitch":58,"velocity":105,"startTime":133.04349599999998,"endTime":135.65219199999999,"instrument":3,"program":50},{"pitch":62,"velocity":105,"startTime":133.04349599999998,"endTime":135.65219199999999,"instrument":3,"program":50},{"pitch":65,"velocity":105,"startTime":133.04349599999998,"endTime":135.65219199999999,"instrument":3,"program":50},{"pitch":70,"velocity":105,"startTime":133.04349599999998,"endTime":135.65219199999999,"instrument":3,"program":50},{"pitch":60,"velocity":105,"startTime":135.65219199999999,"endTime":138.260888,"instrument":3,"program":50},{"pitch":64,"velocity":105,"startTime":135.65219199999999,"endTime":138.260888,"instrument":3,"program":50},{"pitch":66,"velocity":105,"startTime":135.65219199999999,"endTime":138.260888,"instrument":3,"program":50},{"pitch":69,"velocity":105,"startTime":135.65219199999999,"endTime":138.260888,"instrument":3,"program":50},{"pitch":60,"velocity":105,"startTime":138.260888,"endTime":140.869584,"instrument":3,"program":50},{"pitch":63,"velocity":105,"startTime":138.260888,"endTime":140.869584,"instrument":3,"program":50},{"pitch":66,"velocity":105,"startTime":138.260888,"endTime":140.869584,"instrument":3,"program":50},{"pitch":69,"velocity":105,"startTime":138.260888,"endTime":140.869584,"instrument":3,"program":50},{"pitch":58,"velocity":105,"startTime":140.869584,"endTime":143.47827999999998,"instrument":3,"program":50},{"pitch":62,"velocity":105,"startTime":140.869584,"endTime":143.47827999999998,"instrument":3,"program":50},{"pitch":67,"velocity":105,"startTime":140.869584,"endTime":143.47827999999998,"instrument":3,"program":50},{"pitch":58,"velocity":105,"startTime":143.47827999999998,"endTime":146.086976,"instrument":3,"program":50},{"pitch":62,"velocity":105,"startTime":143.47827999999998,"endTime":146.086976,"instrument":3,"program":50},{"pitch":65,"velocity":105,"startTime":143.47827999999998,"endTime":146.086976,"instrument":3,"program":50},{"pitch":67,"velocity":105,"startTime":143.47827999999998,"endTime":146.086976,"instrument":3,"program":50},{"pitch":35,"velocity":102,"startTime":146.086976,"endTime":146.19567166666667,"isDrum":true},{"pitch":42,"velocity":102,"startTime":146.086976,"endTime":146.19567166666667,"isDrum":true},{"pitch":42,"velocity":102,"startTime":146.413063,"endTime":146.52175866666664,"isDrum":true},{"pitch":35,"velocity":102,"startTime":146.57610649999998,"endTime":146.68480216666666,"isDrum":true},{"pitch":40,"velocity":102,"startTime":146.73915,"endTime":146.84784566666664,"isDrum":true},{"pitch":42,"velocity":102,"startTime":146.73915,"endTime":146.84784566666664,"isDrum":true},{"pitch":35,"velocity":102,"startTime":147.065237,"endTime":147.17393266666664,"isDrum":true},{"pitch":42,"velocity":102,"startTime":147.065237,"endTime":147.17393266666664,"isDrum":true},{"pitch":35,"velocity":102,"startTime":147.22828049999998,"endTime":147.33697616666666,"isDrum":true},{"pitch":35,"velocity":102,"startTime":147.391324,"endTime":147.50001966666665,"isDrum":true},{"pitch":42,"velocity":102,"startTime":147.391324,"endTime":147.50001966666665,"isDrum":true},{"pitch":42,"velocity":102,"startTime":147.717411,"endTime":147.82610666666665,"isDrum":true},{"pitch":40,"velocity":102,"startTime":148.043498,"endTime":148.15219366666665,"isDrum":true},{"pitch":42,"velocity":102,"startTime":148.043498,"endTime":148.15219366666665,"isDrum":true},{"pitch":42,"velocity":102,"startTime":148.369585,"endTime":148.47828066666665,"isDrum":true},{"pitch":35,"velocity":102,"startTime":148.5326285,"endTime":148.64132416666666,"isDrum":true},{"pitch":35,"velocity":102,"startTime":148.695672,"endTime":148.80436766666665,"isDrum":true},{"pitch":42,"velocity":102,"startTime":148.695672,"endTime":148.80436766666665,"isDrum":true},{"pitch":42,"velocity":102,"startTime":149.021759,"endTime":149.13045466666665,"isDrum":true},{"pitch":40,"velocity":102,"startTime":149.34784599999998,"endTime":149.45654166666665,"isDrum":true},{"pitch":42,"velocity":102,"startTime":149.34784599999998,"endTime":149.45654166666665,"isDrum":true},{"pitch":42,"velocity":102,"startTime":149.67393299999998,"endTime":149.78262866666665,"isDrum":true},{"pitch":35,"velocity":102,"startTime":149.8369765,"endTime":149.94567216666667,"isDrum":true},{"pitch":35,"velocity":102,"startTime":150.00001999999998,"endTime":150.10871566666665,"isDrum":true},{"pitch":42,"velocity":102,"startTime":150.00001999999998,"endTime":150.10871566666665,"isDrum":true},{"pitch":35,"velocity":102,"startTime":150.32610699999998,"endTime":150.43480266666666,"isDrum":true},{"pitch":42,"velocity":102,"startTime":150.32610699999998,"endTime":150.43480266666666,"isDrum":true},{"pitch":40,"velocity":102,"startTime":150.65219399999998,"endTime":150.76088966666666,"isDrum":true},{"pitch":42,"velocity":102,"startTime":150.65219399999998,"endTime":150.76088966666666,"isDrum":true},{"pitch":42,"velocity":102,"startTime":150.97828099999998,"endTime":151.08697666666666,"isDrum":true},{"pitch":35,"velocity":102,"startTime":151.1413245,"endTime":151.25002016666664,"isDrum":true},{"pitch":35,"velocity":102,"startTime":151.30436799999998,"endTime":151.41306366666666,"isDrum":true},{"pitch":42,"velocity":102,"startTime":151.30436799999998,"endTime":151.41306366666666,"isDrum":true},{"pitch":42,"velocity":102,"startTime":151.63045499999998,"endTime":151.73915066666666,"isDrum":true},{"pitch":40,"velocity":102,"startTime":151.95654199999998,"endTime":152.06523766666666,"isDrum":true},{"pitch":42,"velocity":102,"startTime":151.95654199999998,"endTime":152.06523766666666,"isDrum":true},{"pitch":35,"velocity":102,"startTime":152.282629,"endTime":152.39132466666666,"isDrum":true},{"pitch":42,"velocity":102,"startTime":152.282629,"endTime":152.39132466666666,"isDrum":true},{"pitch":35,"velocity":102,"startTime":152.4456725,"endTime":152.55436816666665,"isDrum":true},{"pitch":35,"velocity":102,"startTime":152.608716,"endTime":152.71741166666666,"isDrum":true},{"pitch":42,"velocity":102,"startTime":152.608716,"endTime":152.71741166666666,"isDrum":true},{"pitch":42,"velocity":102,"startTime":152.934803,"endTime":153.04349866666666,"isDrum":true},{"pitch":40,"velocity":102,"startTime":153.26089,"endTime":153.36958566666667,"isDrum":true},{"pitch":42,"velocity":102,"startTime":153.26089,"endTime":153.36958566666667,"isDrum":true},{"pitch":42,"velocity":102,"startTime":153.586977,"endTime":153.69567266666667,"isDrum":true},{"pitch":35,"velocity":102,"startTime":153.75002049999998,"endTime":153.85871616666665,"isDrum":true},{"pitch":35,"velocity":102,"startTime":153.913064,"endTime":154.02175966666667,"isDrum":true},{"pitch":42,"velocity":102,"startTime":153.913064,"endTime":154.02175966666667,"isDrum":true},{"pitch":35,"velocity":102,"startTime":154.239151,"endTime":154.34784666666667,"isDrum":true},{"pitch":42,"velocity":102,"startTime":154.239151,"endTime":154.34784666666667,"isDrum":true},{"pitch":40,"velocity":102,"startTime":154.565238,"endTime":154.67393366666664,"isDrum":true},{"pitch":42,"velocity":102,"startTime":154.565238,"endTime":154.67393366666664,"isDrum":true},{"pitch":40,"velocity":102,"startTime":154.72828149999998,"endTime":154.83697716666666,"isDrum":true},{"pitch":42,"velocity":102,"startTime":154.891325,"endTime":155.00002066666664,"isDrum":true},{"pitch":35,"velocity":102,"startTime":155.05436849999998,"endTime":155.16306416666666,"isDrum":true},{"pitch":40,"velocity":102,"startTime":155.05436849999998,"endTime":155.16306416666666,"isDrum":true},{"pitch":35,"velocity":102,"startTime":155.217412,"endTime":155.32610766666664,"isDrum":true},{"pitch":42,"velocity":102,"startTime":155.217412,"endTime":155.32610766666664,"isDrum":true},{"pitch":42,"velocity":102,"startTime":155.543499,"endTime":155.65219466666665,"isDrum":true},{"pitch":40,"velocity":102,"startTime":155.869586,"endTime":155.97828166666665,"isDrum":true},{"pitch":42,"velocity":102,"startTime":155.869586,"endTime":155.97828166666665,"isDrum":true},{"pitch":35,"velocity":102,"startTime":156.195673,"endTime":156.30436866666665,"isDrum":true},{"pitch":42,"velocity":102,"startTime":156.195673,"endTime":156.30436866666665,"isDrum":true},{"pitch":35,"velocity":102,"startTime":156.35871649999999,"endTime":156.46741216666666,"isDrum":true},{"pitch":35,"velocity":102,"startTime":156.52176,"endTime":156.63045566666665,"isDrum":true},{"pitch":42,"velocity":102,"startTime":156.52176,"endTime":156.63045566666665,"isDrum":true},{"pitch":42,"velocity":102,"startTime":156.847847,"endTime":156.95654266666665,"isDrum":true},{"pitch":40,"velocity":102,"startTime":157.17393399999997,"endTime":157.28262966666665,"isDrum":true},{"pitch":42,"velocity":102,"startTime":157.17393399999997,"endTime":157.28262966666665,"isDrum":true},{"pitch":42,"velocity":102,"startTime":157.50002099999998,"endTime":157.60871666666665,"isDrum":true},{"pitch":40,"velocity":102,"startTime":157.6630645,"endTime":157.77176016666667,"isDrum":true},{"pitch":35,"velocity":102,"startTime":157.82610799999998,"endTime":157.93480366666665,"isDrum":true},{"pitch":42,"velocity":102,"startTime":157.82610799999998,"endTime":157.93480366666665,"isDrum":true},{"pitch":35,"velocity":102,"startTime":157.9891515,"endTime":158.09784716666667,"isDrum":true},{"pitch":35,"velocity":102,"startTime":158.15219499999998,"endTime":158.26089066666665,"isDrum":true},{"pitch":42,"velocity":102,"startTime":158.15219499999998,"endTime":158.26089066666665,"isDrum":true},{"pitch":40,"velocity":102,"startTime":158.47828199999998,"endTime":158.58697766666666,"isDrum":true},{"pitch":42,"velocity":102,"startTime":158.47828199999998,"endTime":158.58697766666666,"isDrum":true},{"pitch":42,"velocity":102,"startTime":158.80436899999998,"endTime":158.91306466666666,"isDrum":true},{"pitch":40,"velocity":102,"startTime":158.9674125,"endTime":159.07610816666664,"isDrum":true},{"pitch":35,"velocity":102,"startTime":159.13045599999998,"endTime":159.23915166666666,"isDrum":true},{"pitch":42,"velocity":102,"startTime":159.13045599999998,"endTime":159.23915166666666,"isDrum":true},{"pitch":42,"velocity":102,"startTime":159.45654299999998,"endTime":159.56523866666666,"isDrum":true},{"pitch":40,"velocity":102,"startTime":159.78262999999998,"endTime":159.89132566666666,"isDrum":true},{"pitch":42,"velocity":102,"startTime":159.78262999999998,"endTime":159.89132566666666,"isDrum":true},{"pitch":42,"velocity":102,"startTime":160.10871699999998,"endTime":160.21741266666666,"isDrum":true},{"pitch":35,"velocity":102,"startTime":160.2717605,"endTime":160.38045616666665,"isDrum":true},{"pitch":35,"velocity":102,"startTime":160.43480399999999,"endTime":160.54349966666666,"isDrum":true},{"pitch":42,"velocity":102,"startTime":160.43480399999999,"endTime":160.54349966666666,"isDrum":true},{"pitch":35,"velocity":102,"startTime":160.760891,"endTime":160.86958666666666,"isDrum":true},{"pitch":42,"velocity":102,"startTime":160.760891,"endTime":160.86958666666666,"isDrum":true},{"pitch":40,"velocity":102,"startTime":161.086978,"endTime":161.19567366666666,"isDrum":true},{"pitch":42,"velocity":102,"startTime":161.086978,"endTime":161.19567366666666,"isDrum":true},{"pitch":42,"velocity":102,"startTime":161.413065,"endTime":161.52176066666667,"isDrum":true},{"pitch":35,"velocity":102,"startTime":161.739152,"endTime":161.84784766666667,"isDrum":true},{"pitch":42,"velocity":102,"startTime":161.739152,"endTime":161.84784766666667,"isDrum":true},{"pitch":42,"velocity":102,"startTime":162.065239,"endTime":162.17393466666667,"isDrum":true},{"pitch":40,"velocity":102,"startTime":162.391326,"endTime":162.50002166666664,"isDrum":true},{"pitch":42,"velocity":102,"startTime":162.391326,"endTime":162.50002166666664,"isDrum":true},{"pitch":42,"velocity":102,"startTime":162.717413,"endTime":162.82610866666664,"isDrum":true},{"pitch":35,"velocity":102,"startTime":162.88045649999998,"endTime":162.98915216666666,"isDrum":true},{"pitch":35,"velocity":102,"startTime":163.0435,"endTime":163.15219566666664,"isDrum":true},{"pitch":42,"velocity":102,"startTime":163.0435,"endTime":163.15219566666664,"isDrum":true},{"pitch":35,"velocity":102,"startTime":163.369587,"endTime":163.47828266666664,"isDrum":true},{"pitch":42,"velocity":102,"startTime":163.369587,"endTime":163.47828266666664,"isDrum":true},{"pitch":40,"velocity":102,"startTime":163.695674,"endTime":163.80436966666664,"isDrum":true},{"pitch":42,"velocity":102,"startTime":163.695674,"endTime":163.80436966666664,"isDrum":true},{"pitch":46,"velocity":102,"startTime":163.85871749999998,"endTime":163.96741316666666,"isDrum":true},{"pitch":42,"velocity":102,"startTime":164.021761,"endTime":164.13045666666665,"isDrum":true},{"pitch":40,"velocity":102,"startTime":164.18480449999998,"endTime":164.29350016666666,"isDrum":true},{"pitch":35,"velocity":102,"startTime":164.347848,"endTime":164.45654366666665,"isDrum":true},{"pitch":42,"velocity":102,"startTime":164.347848,"endTime":164.45654366666665,"isDrum":true},{"pitch":42,"velocity":102,"startTime":164.673935,"endTime":164.78263066666665,"isDrum":true},{"pitch":35,"velocity":102,"startTime":164.8369785,"endTime":164.94567416666666,"isDrum":true},{"pitch":40,"velocity":102,"startTime":165.000022,"endTime":165.10871766666665,"isDrum":true},{"pitch":42,"velocity":102,"startTime":165.000022,"endTime":165.10871766666665,"isDrum":true},{"pitch":35,"velocity":102,"startTime":165.32610899999997,"endTime":165.43480466666665,"isDrum":true},{"pitch":42,"velocity":102,"startTime":165.32610899999997,"endTime":165.43480466666665,"isDrum":true},{"pitch":35,"velocity":102,"startTime":165.65219599999998,"endTime":165.76089166666665,"isDrum":true},{"pitch":42,"velocity":102,"startTime":165.65219599999998,"endTime":165.76089166666665,"isDrum":true},{"pitch":42,"velocity":102,"startTime":165.97828299999998,"endTime":166.08697866666665,"isDrum":true},{"pitch":40,"velocity":102,"startTime":166.30436999999998,"endTime":166.41306566666665,"isDrum":true},{"pitch":42,"velocity":102,"startTime":166.30436999999998,"endTime":166.41306566666665,"isDrum":true},{"pitch":42,"velocity":102,"startTime":166.63045699999998,"endTime":166.73915266666666,"isDrum":true},{"pitch":35,"velocity":102,"startTime":166.7935005,"endTime":166.90219616666664,"isDrum":true},{"pitch":70,"velocity":95,"startTime":146.25001949999998,"endTime":146.35871516666666,"instrument":1,"program":12},{"pitch":75,"velocity":95,"startTime":146.413063,"endTime":146.46741083333333,"instrument":1,"program":12},{"pitch":70,"velocity":95,"startTime":146.57610649999998,"endTime":146.63045433333332,"instrument":1,"program":12},{"pitch":75,"velocity":95,"startTime":146.73915,"endTime":146.79349783333333,"instrument":1,"program":12},{"pitch":70,"velocity":95,"startTime":146.90219349999998,"endTime":146.95654133333332,"instrument":1,"program":12},{"pitch":70,"velocity":95,"startTime":147.065237,"endTime":147.11958483333333,"instrument":1,"program":12},{"pitch":75,"velocity":95,"startTime":147.22828049999998,"endTime":147.28262833333332,"instrument":1,"program":12},{"pitch":70,"velocity":95,"startTime":147.391324,"endTime":147.50001966666665,"instrument":1,"program":12},{"pitch":72,"velocity":95,"startTime":147.55436749999998,"endTime":147.66306316666666,"instrument":1,"program":12},{"pitch":75,"velocity":95,"startTime":147.717411,"endTime":147.7717588333333,"instrument":1,"program":12},{"pitch":70,"velocity":95,"startTime":147.88045449999998,"endTime":147.93480233333332,"instrument":1,"program":12},{"pitch":75,"velocity":95,"startTime":148.043498,"endTime":148.0978458333333,"instrument":1,"program":12},{"pitch":70,"velocity":95,"startTime":148.2065415,"endTime":148.26088933333332,"instrument":1,"program":12},{"pitch":75,"velocity":95,"startTime":148.369585,"endTime":148.4239328333333,"instrument":1,"program":12},{"pitch":70,"velocity":95,"startTime":148.5326285,"endTime":148.58697633333333,"instrument":1,"program":12},{"pitch":70,"velocity":95,"startTime":148.695672,"endTime":148.8587155,"instrument":1,"program":12},{"pitch":72,"velocity":95,"startTime":148.8587155,"endTime":148.96741116666666,"instrument":1,"program":12},{"pitch":75,"velocity":95,"startTime":149.021759,"endTime":149.13045466666665,"instrument":1,"program":12},{"pitch":75,"velocity":95,"startTime":149.1848025,"endTime":149.23915033333333,"instrument":1,"program":12},{"pitch":70,"velocity":95,"startTime":149.34784599999998,"endTime":149.45654166666665,"instrument":1,"program":12},{"pitch":72,"velocity":95,"startTime":149.5108895,"endTime":149.56523733333333,"instrument":1,"program":12},{"pitch":75,"velocity":95,"startTime":149.67393299999998,"endTime":149.72828083333332,"instrument":1,"program":12},{"pitch":70,"velocity":95,"startTime":149.8369765,"endTime":149.89132433333333,"instrument":1,"program":12},{"pitch":75,"velocity":95,"startTime":150.00001999999998,"endTime":150.10871566666665,"instrument":1,"program":12},{"pitch":70,"velocity":95,"startTime":150.1630635,"endTime":150.27175916666667,"instrument":1,"program":12},{"pitch":75,"velocity":95,"startTime":150.32610699999998,"endTime":150.38045483333332,"instrument":1,"program":12},{"pitch":70,"velocity":95,"startTime":150.4891505,"endTime":150.54349833333333,"instrument":1,"program":12},{"pitch":75,"velocity":95,"startTime":150.65219399999998,"endTime":150.70654183333332,"instrument":1,"program":12},{"pitch":70,"velocity":95,"startTime":150.8152375,"endTime":150.86958533333333,"instrument":1,"program":12},{"pitch":72,"velocity":95,"startTime":150.97828099999998,"endTime":151.03262883333332,"instrument":1,"program":12},{"pitch":75,"velocity":95,"startTime":151.1413245,"endTime":151.19567233333333,"instrument":1,"program":12},{"pitch":70,"velocity":95,"startTime":151.30436799999998,"endTime":151.41306366666666,"instrument":1,"program":12},{"pitch":67,"velocity":95,"startTime":151.4674115,"endTime":151.57610716666665,"instrument":1,"program":12},{"pitch":70,"velocity":95,"startTime":151.63045499999998,"endTime":151.73915066666666,"instrument":1,"program":12},{"pitch":70,"velocity":95,"startTime":151.7934985,"endTime":151.90219416666665,"instrument":1,"program":12},{"pitch":74,"velocity":95,"startTime":151.95654199999998,"endTime":152.06523766666666,"instrument":1,"program":12},{"pitch":70,"velocity":95,"startTime":152.1195855,"endTime":152.1739333333333,"instrument":1,"program":12},{"pitch":79,"velocity":95,"startTime":152.282629,"endTime":152.39132466666666,"instrument":1,"program":12},{"pitch":74,"velocity":95,"startTime":152.4456725,"endTime":152.55436816666665,"instrument":1,"program":12},{"pitch":70,"velocity":95,"startTime":152.608716,"endTime":152.71741166666666,"instrument":1,"program":12},{"pitch":74,"velocity":95,"startTime":152.7717595,"endTime":152.88045516666665,"instrument":1,"program":12},{"pitch":70,"velocity":95,"startTime":152.934803,"endTime":152.98915083333333,"instrument":1,"program":12},{"pitch":70,"velocity":95,"startTime":153.09784649999997,"endTime":153.1521943333333,"instrument":1,"program":12},{"pitch":74,"velocity":95,"startTime":153.26089,"endTime":153.36958566666667,"instrument":1,"program":12},{"pitch":70,"velocity":95,"startTime":153.42393349999998,"endTime":153.4782813333333,"instrument":1,"program":12},{"pitch":67,"velocity":95,"startTime":153.586977,"endTime":153.69567266666667,"instrument":1,"program":12},{"pitch":70,"velocity":95,"startTime":153.75002049999998,"endTime":153.85871616666665,"instrument":1,"program":12},{"pitch":70,"velocity":95,"startTime":153.913064,"endTime":154.02175966666667,"instrument":1,"program":12},{"pitch":67,"velocity":95,"startTime":154.07610749999998,"endTime":154.18480316666665,"instrument":1,"program":12},{"pitch":70,"velocity":95,"startTime":154.239151,"endTime":154.29349883333333,"instrument":1,"program":12},{"pitch":67,"velocity":95,"startTime":154.40219449999998,"endTime":154.45654233333332,"instrument":1,"program":12},{"pitch":70,"velocity":95,"startTime":154.565238,"endTime":154.61958583333333,"instrument":1,"program":12},{"pitch":67,"velocity":95,"startTime":154.72828149999998,"endTime":154.83697716666666,"instrument":1,"program":12},{"pitch":70,"velocity":95,"startTime":154.891325,"endTime":155.00002066666664,"instrument":1,"program":12},{"pitch":67,"velocity":95,"startTime":155.05436849999998,"endTime":155.10871633333332,"instrument":1,"program":12},{"pitch":67,"velocity":95,"startTime":155.217412,"endTime":155.32610766666664,"instrument":1,"program":12},{"pitch":70,"velocity":95,"startTime":155.38045549999998,"endTime":155.48915116666666,"instrument":1,"program":12},{"pitch":67,"velocity":95,"startTime":155.543499,"endTime":155.65219466666665,"instrument":1,"program":12},{"pitch":70,"velocity":95,"startTime":155.70654249999998,"endTime":155.81523816666666,"instrument":1,"program":12},{"pitch":67,"velocity":95,"startTime":155.869586,"endTime":155.97828166666665,"instrument":1,"program":12},{"pitch":70,"velocity":95,"startTime":156.03262949999998,"endTime":156.08697733333332,"instrument":1,"program":12},{"pitch":67,"velocity":95,"startTime":156.195673,"endTime":156.2500208333333,"instrument":1,"program":12},{"pitch":70,"velocity":95,"startTime":156.35871649999999,"endTime":156.41306433333332,"instrument":1,"program":12},{"pitch":72,"velocity":95,"startTime":156.52176,"endTime":156.6848035,"instrument":1,"program":12},{"pitch":69,"velocity":95,"startTime":156.6848035,"endTime":156.79349916666666,"instrument":1,"program":12},{"pitch":72,"velocity":95,"startTime":156.847847,"endTime":156.95654266666665,"instrument":1,"program":12},{"pitch":69,"velocity":95,"startTime":157.0108905,"endTime":157.06523833333333,"instrument":1,"program":12},{"pitch":72,"velocity":95,"startTime":157.17393399999997,"endTime":157.28262966666665,"instrument":1,"program":12},{"pitch":69,"velocity":95,"startTime":157.3369775,"endTime":157.44567316666667,"instrument":1,"program":12},{"pitch":69,"velocity":95,"startTime":157.50002099999998,"endTime":157.60871666666665,"instrument":1,"program":12},{"pitch":69,"velocity":95,"startTime":157.6630645,"endTime":157.77176016666667,"instrument":1,"program":12},{"pitch":72,"velocity":95,"startTime":157.82610799999998,"endTime":157.93480366666665,"instrument":1,"program":12},{"pitch":69,"velocity":95,"startTime":157.9891515,"endTime":158.09784716666667,"instrument":1,"program":12},{"pitch":72,"velocity":95,"startTime":158.15219499999998,"endTime":158.26089066666665,"instrument":1,"program":12},{"pitch":69,"velocity":95,"startTime":158.3152385,"endTime":158.36958633333333,"instrument":1,"program":12},{"pitch":72,"velocity":95,"startTime":158.47828199999998,"endTime":158.58697766666666,"instrument":1,"program":12},{"pitch":69,"velocity":95,"startTime":158.6413255,"endTime":158.75002116666664,"instrument":1,"program":12},{"pitch":69,"velocity":95,"startTime":158.80436899999998,"endTime":158.91306466666666,"instrument":1,"program":12},{"pitch":69,"velocity":95,"startTime":158.9674125,"endTime":159.02176033333333,"instrument":1,"program":12},{"pitch":69,"velocity":95,"startTime":159.13045599999998,"endTime":159.2934995,"instrument":1,"program":12},{"pitch":74,"velocity":95,"startTime":159.2934995,"endTime":159.40219516666664,"instrument":1,"program":12},{"pitch":69,"velocity":95,"startTime":159.45654299999998,"endTime":159.56523866666666,"instrument":1,"program":12},{"pitch":74,"velocity":95,"startTime":159.6195865,"endTime":159.72828216666665,"instrument":1,"program":12},{"pitch":69,"velocity":95,"startTime":159.78262999999998,"endTime":159.89132566666666,"instrument":1,"program":12},{"pitch":69,"velocity":95,"startTime":159.9456735,"endTime":160.05436916666665,"instrument":1,"program":12},{"pitch":74,"velocity":95,"startTime":160.10871699999998,"endTime":160.21741266666666,"instrument":1,"program":12},{"pitch":69,"velocity":95,"startTime":160.2717605,"endTime":160.3261083333333,"instrument":1,"program":12},{"pitch":74,"velocity":95,"startTime":160.43480399999999,"endTime":160.54349966666666,"instrument":1,"program":12},{"pitch":69,"velocity":95,"startTime":160.5978475,"endTime":160.70654316666665,"instrument":1,"program":12},{"pitch":74,"velocity":95,"startTime":160.760891,"endTime":160.86958666666666,"instrument":1,"program":12},{"pitch":74,"velocity":95,"startTime":160.9239345,"endTime":161.03263016666665,"instrument":1,"program":12},{"pitch":74,"velocity":95,"startTime":161.086978,"endTime":161.19567366666666,"instrument":1,"program":12},{"pitch":69,"velocity":95,"startTime":161.25002149999997,"endTime":161.35871716666665,"instrument":1,"program":12},{"pitch":74,"velocity":95,"startTime":161.413065,"endTime":161.46741283333333,"instrument":1,"program":12},{"pitch":69,"velocity":95,"startTime":161.57610849999998,"endTime":161.6304563333333,"instrument":1,"program":12},{"pitch":69,"velocity":95,"startTime":161.739152,"endTime":161.90219549999998,"instrument":1,"program":12},{"pitch":69,"velocity":95,"startTime":164.347848,"endTime":164.51089149999999,"instrument":1,"program":12},{"pitch":72,"velocity":95,"startTime":164.51089149999999,"endTime":164.61958716666666,"instrument":1,"program":12},{"pitch":78,"velocity":95,"startTime":164.673935,"endTime":164.78263066666665,"instrument":1,"program":12},{"pitch":78,"velocity":95,"startTime":164.8369785,"endTime":164.89132633333332,"instrument":1,"program":12},{"pitch":84,"velocity":95,"startTime":165.000022,"endTime":165.10871766666665,"instrument":1,"program":12},{"pitch":78,"velocity":95,"startTime":165.1630655,"endTime":165.27176116666666,"instrument":1,"program":12},{"pitch":72,"velocity":95,"startTime":165.32610899999997,"endTime":165.3804568333333,"instrument":1,"program":12},{"pitch":69,"velocity":95,"startTime":165.4891525,"endTime":165.54350033333333,"instrument":1,"program":12},{"pitch":74,"velocity":95,"startTime":165.65219599999998,"endTime":165.8152395,"instrument":1,"program":12},{"pitch":74,"velocity":95,"startTime":165.8152395,"endTime":165.92393516666667,"instrument":1,"program":12},{"pitch":67,"velocity":95,"startTime":165.97828299999998,"endTime":166.08697866666665,"instrument":1,"program":12},{"pitch":74,"velocity":95,"startTime":166.1413265,"endTime":166.19567433333333,"instrument":1,"program":12},{"pitch":74,"velocity":95,"startTime":166.30436999999998,"endTime":166.41306566666665,"instrument":1,"program":12},{"pitch":67,"velocity":95,"startTime":166.4674135,"endTime":166.57610916666664,"instrument":1,"program":12},{"pitch":74,"velocity":95,"startTime":166.63045699999998,"endTime":166.73915266666666,"instrument":1,"program":12},{"pitch":67,"velocity":95,"startTime":166.7935005,"endTime":166.90219616666664,"instrument":1,"program":12},{"pitch":39,"velocity":110,"startTime":146.086976,"endTime":146.413063,"instrument":2,"program":32},{"pitch":39,"velocity":110,"startTime":146.57610649999998,"endTime":146.73915,"instrument":2,"program":32},{"pitch":39,"velocity":110,"startTime":146.90219349999998,"endTime":147.065237,"instrument":2,"program":32},{"pitch":34,"velocity":110,"startTime":147.065237,"endTime":147.28262833333332,"instrument":2,"program":32},{"pitch":39,"velocity":110,"startTime":147.391324,"endTime":147.55436749999998,"instrument":2,"program":32},{"pitch":39,"velocity":110,"startTime":147.717411,"endTime":147.88045449999998,"instrument":2,"program":32},{"pitch":34,"velocity":110,"startTime":148.043498,"endTime":148.2065415,"instrument":2,"program":32},{"pitch":39,"velocity":110,"startTime":148.369585,"endTime":148.5326285,"instrument":2,"program":32},{"pitch":36,"velocity":110,"startTime":148.695672,"endTime":149.021759,"instrument":2,"program":32},{"pitch":43,"velocity":110,"startTime":149.1848025,"endTime":149.34784599999998,"instrument":2,"program":32},{"pitch":48,"velocity":110,"startTime":149.5108895,"endTime":149.67393299999998,"instrument":2,"program":32},{"pitch":43,"velocity":110,"startTime":149.67393299999998,"endTime":149.89132433333333,"instrument":2,"program":32},{"pitch":36,"velocity":110,"startTime":150.00001999999998,"endTime":150.1630635,"instrument":2,"program":32},{"pitch":36,"velocity":110,"startTime":150.32610699999998,"endTime":150.4891505,"instrument":2,"program":32},{"pitch":31,"velocity":110,"startTime":150.65219399999998,"endTime":150.8152375,"instrument":2,"program":32},{"pitch":36,"velocity":110,"startTime":150.97828099999998,"endTime":151.1413245,"instrument":2,"program":32},{"pitch":43,"velocity":110,"startTime":151.30436799999998,"endTime":151.63045499999998,"instrument":2,"program":32},{"pitch":43,"velocity":110,"startTime":151.7934985,"endTime":151.95654199999998,"instrument":2,"program":32},{"pitch":43,"velocity":110,"startTime":152.1195855,"endTime":152.282629,"instrument":2,"program":32},{"pitch":38,"velocity":110,"startTime":152.282629,"endTime":152.5000203333333,"instrument":2,"program":32},{"pitch":46,"velocity":110,"startTime":152.608716,"endTime":152.7717595,"instrument":2,"program":32},{"pitch":38,"velocity":110,"startTime":152.934803,"endTime":153.09784649999997,"instrument":2,"program":32},{"pitch":31,"velocity":110,"startTime":153.26089,"endTime":153.42393349999998,"instrument":2,"program":32},{"pitch":43,"velocity":110,"startTime":153.586977,"endTime":153.80436833333331,"instrument":2,"program":32},{"pitch":31,"velocity":110,"startTime":153.913064,"endTime":154.239151,"instrument":2,"program":32},{"pitch":31,"velocity":110,"startTime":154.40219449999998,"endTime":154.565238,"instrument":2,"program":32},{"pitch":31,"velocity":110,"startTime":154.72828149999998,"endTime":154.891325,"instrument":2,"program":32},{"pitch":36,"velocity":110,"startTime":154.891325,"endTime":155.10871633333332,"instrument":2,"program":32},{"pitch":34,"velocity":110,"startTime":155.217412,"endTime":155.38045549999998,"instrument":2,"program":32},{"pitch":31,"velocity":110,"startTime":155.543499,"endTime":155.76089033333332,"instrument":2,"program":32},{"pitch":31,"velocity":110,"startTime":155.869586,"endTime":156.03262949999998,"instrument":2,"program":32},{"pitch":38,"velocity":110,"startTime":156.195673,"endTime":156.41306433333332,"instrument":2,"program":32},{"pitch":38,"velocity":110,"startTime":156.52176,"endTime":156.847847,"instrument":2,"program":32},{"pitch":38,"velocity":110,"startTime":157.0108905,"endTime":157.17393399999997,"instrument":2,"program":32},{"pitch":38,"velocity":110,"startTime":157.3369775,"endTime":157.50002099999998,"instrument":2,"program":32},{"pitch":38,"velocity":110,"startTime":157.50002099999998,"endTime":157.71741233333333,"instrument":2,"program":32},{"pitch":38,"velocity":110,"startTime":157.82610799999998,"endTime":157.9891515,"instrument":2,"program":32},{"pitch":38,"velocity":110,"startTime":158.15219499999998,"endTime":158.36958633333333,"instrument":2,"program":32},{"pitch":42,"velocity":110,"startTime":158.47828199999998,"endTime":158.6413255,"instrument":2,"program":32},{"pitch":45,"velocity":110,"startTime":158.6413255,"endTime":158.80436899999998,"instrument":2,"program":32},{"pitch":38,"velocity":110,"startTime":158.80436899999998,"endTime":159.02176033333333,"instrument":2,"program":32},{"pitch":38,"velocity":110,"startTime":159.13045599999998,"endTime":159.45654299999998,"instrument":2,"program":32},{"pitch":33,"velocity":110,"startTime":159.6195865,"endTime":159.78262999999998,"instrument":2,"program":32},{"pitch":33,"velocity":110,"startTime":159.9456735,"endTime":160.10871699999998,"instrument":2,"program":32},{"pitch":38,"velocity":110,"startTime":160.43480399999999,"endTime":161.25002149999997,"instrument":2,"program":32},{"pitch":33,"velocity":110,"startTime":161.413065,"endTime":161.57610849999998,"instrument":2,"program":32},{"pitch":40,"velocity":110,"startTime":161.57610849999998,"endTime":161.739152,"instrument":2,"program":32},{"pitch":43,"velocity":110,"startTime":161.739152,"endTime":161.90219549999998,"instrument":2,"program":32},{"pitch":43,"velocity":110,"startTime":162.065239,"endTime":162.22828249999998,"instrument":2,"program":32},{"pitch":38,"velocity":110,"startTime":162.391326,"endTime":162.60871733333332,"instrument":2,"program":32},{"pitch":43,"velocity":110,"startTime":162.717413,"endTime":162.88045649999998,"instrument":2,"program":32},{"pitch":38,"velocity":110,"startTime":163.0435,"endTime":163.20654349999998,"instrument":2,"program":32},{"pitch":43,"velocity":110,"startTime":163.369587,"endTime":163.53263049999998,"instrument":2,"program":32},{"pitch":38,"velocity":110,"startTime":163.695674,"endTime":163.85871749999998,"instrument":2,"program":32},{"pitch":38,"velocity":110,"startTime":164.021761,"endTime":164.18480449999998,"instrument":2,"program":32},{"pitch":38,"velocity":110,"startTime":164.347848,"endTime":164.51089149999999,"instrument":2,"program":32},{"pitch":38,"velocity":110,"startTime":164.673935,"endTime":164.8369785,"instrument":2,"program":32},{"pitch":38,"velocity":110,"startTime":165.000022,"endTime":165.1630655,"instrument":2,"program":32},{"pitch":33,"velocity":110,"startTime":165.32610899999997,"endTime":165.4891525,"instrument":2,"program":32},{"pitch":31,"velocity":110,"startTime":165.65219599999998,"endTime":165.8152395,"instrument":2,"program":32},{"pitch":31,"velocity":110,"startTime":165.97828299999998,"endTime":166.1413265,"instrument":2,"program":32},{"pitch":31,"velocity":110,"startTime":166.30436999999998,"endTime":166.4674135,"instrument":2,"program":32},{"pitch":36,"velocity":110,"startTime":166.63045699999998,"endTime":166.7935005,"instrument":2,"program":32},{"pitch":58,"velocity":105,"startTime":146.413063,"endTime":148.64132416666666,"instrument":3,"program":50},{"pitch":60,"velocity":105,"startTime":146.413063,"endTime":148.58697633333333,"instrument":3,"program":50},{"pitch":63,"velocity":105,"startTime":146.413063,"endTime":148.58697633333333,"instrument":3,"program":50},{"pitch":67,"velocity":105,"startTime":146.413063,"endTime":148.64132416666666,"instrument":3,"program":50},{"pitch":67,"velocity":105,"startTime":147.065237,"endTime":148.58697633333333,"instrument":3,"program":50},{"pitch":72,"velocity":105,"startTime":147.391324,"endTime":148.58697633333333,"instrument":3,"program":50},{"pitch":75,"velocity":105,"startTime":148.043498,"endTime":148.31523716666666,"instrument":3,"program":50},{"pitch":58,"velocity":105,"startTime":148.369585,"endTime":148.58697633333333,"instrument":3,"program":50},{"pitch":60,"velocity":105,"startTime":148.695672,"endTime":151.30436799999998,"instrument":3,"program":50},{"pitch":63,"velocity":105,"startTime":148.695672,"endTime":151.30436799999998,"instrument":3,"program":50},{"pitch":67,"velocity":105,"startTime":148.695672,"endTime":151.30436799999998,"instrument":3,"program":50},{"pitch":58,"velocity":105,"startTime":151.30436799999998,"endTime":153.913064,"instrument":3,"program":50},{"pitch":63,"velocity":105,"startTime":151.30436799999998,"endTime":153.913064,"instrument":3,"program":50},{"pitch":67,"velocity":105,"startTime":151.30436799999998,"endTime":153.913064,"instrument":3,"program":50},{"pitch":74,"velocity":105,"startTime":151.30436799999998,"endTime":153.913064,"instrument":3,"program":50},{"pitch":58,"velocity":105,"startTime":153.913064,"endTime":156.52176,"instrument":3,"program":50},{"pitch":62,"velocity":105,"startTime":153.913064,"endTime":156.52176,"instrument":3,"program":50},{"pitch":63,"velocity":105,"startTime":153.913064,"endTime":156.52176,"instrument":3,"program":50},{"pitch":67,"velocity":105,"startTime":153.913064,"endTime":156.52176,"instrument":3,"program":50},{"pitch":74,"velocity":105,"startTime":153.913064,"endTime":156.52176,"instrument":3,"program":50},{"pitch":60,"velocity":105,"startTime":156.52176,"endTime":159.13045599999998,"instrument":3,"program":50},{"pitch":66,"velocity":105,"startTime":156.52176,"endTime":159.13045599999998,"instrument":3,"program":50},{"pitch":69,"velocity":105,"startTime":156.52176,"endTime":159.13045599999998,"instrument":3,"program":50},{"pitch":74,"velocity":105,"startTime":156.52176,"endTime":159.13045599999998,"instrument":3,"program":50},{"pitch":62,"velocity":105,"startTime":159.13045599999998,"endTime":161.57610849999998,"instrument":3,"program":50},{"pitch":66,"velocity":105,"startTime":159.13045599999998,"endTime":161.57610849999998,"instrument":3,"program":50},{"pitch":70,"velocity":105,"startTime":159.13045599999998,"endTime":161.57610849999998,"instrument":3,"program":50},{"pitch":74,"velocity":105,"startTime":159.13045599999998,"endTime":161.57610849999998,"instrument":3,"program":50},{"pitch":62,"velocity":105,"startTime":161.739152,"endTime":164.347848,"instrument":3,"program":50},{"pitch":67,"velocity":105,"startTime":161.739152,"endTime":164.347848,"instrument":3,"program":50},{"pitch":70,"velocity":105,"startTime":161.739152,"endTime":164.347848,"instrument":3,"program":50},{"pitch":74,"velocity":105,"startTime":161.739152,"endTime":164.347848,"instrument":3,"program":50},{"pitch":60,"velocity":105,"startTime":164.347848,"endTime":165.000022,"instrument":3,"program":50},{"pitch":66,"velocity":105,"startTime":164.347848,"endTime":165.000022,"instrument":3,"program":50},{"pitch":69,"velocity":105,"startTime":164.347848,"endTime":165.000022,"instrument":3,"program":50},{"pitch":74,"velocity":105,"startTime":164.347848,"endTime":165.000022,"instrument":3,"program":50},{"pitch":60,"velocity":105,"startTime":165.000022,"endTime":165.32610899999997,"instrument":3,"program":50},{"pitch":62,"velocity":105,"startTime":165.32610899999997,"endTime":165.8152395,"instrument":3,"program":50},{"pitch":65,"velocity":105,"startTime":165.32610899999997,"endTime":165.8152395,"instrument":3,"program":50},{"pitch":70,"velocity":105,"startTime":165.32610899999997,"endTime":165.8152395,"instrument":3,"program":50},{"pitch":77,"velocity":105,"startTime":165.32610899999997,"endTime":165.7065438333333,"instrument":3,"program":50},{"pitch":58,"velocity":105,"startTime":165.8152395,"endTime":166.1413265,"instrument":3,"program":50},{"pitch":62,"velocity":105,"startTime":165.8152395,"endTime":166.1413265,"instrument":3,"program":50},{"pitch":65,"velocity":105,"startTime":165.8152395,"endTime":166.1413265,"instrument":3,"program":50},{"pitch":70,"velocity":105,"startTime":165.8152395,"endTime":166.1413265,"instrument":3,"program":50},{"pitch":62,"velocity":105,"startTime":166.30436999999998,"endTime":166.4674135,"instrument":3,"program":50},{"pitch":65,"velocity":105,"startTime":166.30436999999998,"endTime":166.4674135,"instrument":3,"program":50},{"pitch":67,"velocity":105,"startTime":166.30436999999998,"endTime":166.4674135,"instrument":3,"program":50},{"pitch":60,"velocity":105,"startTime":166.4674135,"endTime":166.63045699999998,"instrument":3,"program":50},{"pitch":56,"velocity":105,"startTime":166.63045699999998,"endTime":166.95654399999998,"instrument":3,"program":50},{"pitch":60,"velocity":105,"startTime":166.63045699999998,"endTime":166.95654399999998,"instrument":3,"program":50},{"pitch":63,"velocity":105,"startTime":166.63045699999998,"endTime":166.95654399999998,"instrument":3,"program":50},{"pitch":35,"velocity":102,"startTime":166.95654399999998,"endTime":167.1195875,"isDrum":true},{"pitch":42,"velocity":102,"startTime":166.95654399999998,"endTime":167.1195875,"isDrum":true},{"pitch":51,"velocity":102,"startTime":166.95654399999998,"endTime":167.1195875,"isDrum":true},{"pitch":42,"velocity":102,"startTime":167.28263099999998,"endTime":167.4456745,"isDrum":true},{"pitch":51,"velocity":102,"startTime":167.28263099999998,"endTime":167.4456745,"isDrum":true},{"pitch":38,"velocity":102,"startTime":167.60871799999998,"endTime":167.7717615,"isDrum":true},{"pitch":40,"velocity":102,"startTime":167.60871799999998,"endTime":167.7717615,"isDrum":true},{"pitch":42,"velocity":102,"startTime":167.60871799999998,"endTime":167.7717615,"isDrum":true},{"pitch":51,"velocity":102,"startTime":167.60871799999998,"endTime":167.7717615,"isDrum":true},{"pitch":42,"velocity":102,"startTime":167.93480499999998,"endTime":168.0978485,"isDrum":true},{"pitch":51,"velocity":102,"startTime":167.93480499999998,"endTime":168.0978485,"isDrum":true},{"pitch":35,"velocity":102,"startTime":168.26089199999998,"endTime":168.4239355,"isDrum":true},{"pitch":42,"velocity":102,"startTime":168.26089199999998,"endTime":168.4239355,"isDrum":true},{"pitch":51,"velocity":102,"startTime":168.26089199999998,"endTime":168.4239355,"isDrum":true},{"pitch":42,"velocity":102,"startTime":168.58697899999999,"endTime":168.7500225,"isDrum":true},{"pitch":51,"velocity":102,"startTime":168.58697899999999,"endTime":168.7500225,"isDrum":true},{"pitch":38,"velocity":102,"startTime":168.913066,"endTime":169.0761095,"isDrum":true},{"pitch":42,"velocity":102,"startTime":168.913066,"endTime":169.0761095,"isDrum":true},{"pitch":51,"velocity":102,"startTime":168.913066,"endTime":169.0761095,"isDrum":true},{"pitch":35,"velocity":102,"startTime":169.239153,"endTime":169.40219649999997,"isDrum":true},{"pitch":42,"velocity":102,"startTime":169.239153,"endTime":169.40219649999997,"isDrum":true},{"pitch":51,"velocity":102,"startTime":169.239153,"endTime":169.40219649999997,"isDrum":true},{"pitch":35,"velocity":102,"startTime":169.56524,"endTime":169.72828349999997,"isDrum":true},{"pitch":42,"velocity":102,"startTime":169.56524,"endTime":169.72828349999997,"isDrum":true},{"pitch":51,"velocity":102,"startTime":169.56524,"endTime":169.72828349999997,"isDrum":true},{"pitch":42,"velocity":102,"startTime":169.891327,"endTime":170.05437049999998,"isDrum":true},{"pitch":51,"velocity":102,"startTime":169.891327,"endTime":170.05437049999998,"isDrum":true},{"pitch":38,"velocity":102,"startTime":170.217414,"endTime":170.38045749999998,"isDrum":true},{"pitch":40,"velocity":102,"startTime":170.217414,"endTime":170.38045749999998,"isDrum":true},{"pitch":42,"velocity":102,"startTime":170.217414,"endTime":170.38045749999998,"isDrum":true},{"pitch":51,"velocity":102,"startTime":170.217414,"endTime":170.38045749999998,"isDrum":true},{"pitch":42,"velocity":102,"startTime":170.543501,"endTime":170.70654449999998,"isDrum":true},{"pitch":51,"velocity":102,"startTime":170.543501,"endTime":170.70654449999998,"isDrum":true},{"pitch":35,"velocity":102,"startTime":170.869588,"endTime":171.03263149999998,"isDrum":true},{"pitch":42,"velocity":102,"startTime":170.869588,"endTime":171.03263149999998,"isDrum":true},{"pitch":51,"velocity":102,"startTime":170.869588,"endTime":171.03263149999998,"isDrum":true},{"pitch":42,"velocity":102,"startTime":171.195675,"endTime":171.35871849999998,"isDrum":true},{"pitch":51,"velocity":102,"startTime":171.195675,"endTime":171.35871849999998,"isDrum":true},{"pitch":38,"velocity":102,"startTime":171.521762,"endTime":171.68480549999998,"isDrum":true},{"pitch":40,"velocity":102,"startTime":171.521762,"endTime":171.68480549999998,"isDrum":true},{"pitch":42,"velocity":102,"startTime":171.521762,"endTime":171.68480549999998,"isDrum":true},{"pitch":51,"velocity":102,"startTime":171.521762,"endTime":171.68480549999998,"isDrum":true},{"pitch":42,"velocity":102,"startTime":171.847849,"endTime":172.01089249999998,"isDrum":true},{"pitch":51,"velocity":102,"startTime":171.847849,"endTime":172.01089249999998,"isDrum":true},{"pitch":35,"velocity":102,"startTime":172.173936,"endTime":172.33697949999998,"isDrum":true},{"pitch":42,"velocity":102,"startTime":172.173936,"endTime":172.33697949999998,"isDrum":true},{"pitch":51,"velocity":102,"startTime":172.173936,"endTime":172.33697949999998,"isDrum":true},{"pitch":42,"velocity":102,"startTime":172.500023,"endTime":172.66306649999999,"isDrum":true},{"pitch":51,"velocity":102,"startTime":172.500023,"endTime":172.66306649999999,"isDrum":true},{"pitch":38,"velocity":102,"startTime":172.82611,"endTime":172.9891535,"isDrum":true},{"pitch":40,"velocity":102,"startTime":172.82611,"endTime":172.9891535,"isDrum":true},{"pitch":42,"velocity":102,"startTime":172.82611,"endTime":172.9891535,"isDrum":true},{"pitch":51,"velocity":102,"startTime":172.82611,"endTime":172.9891535,"isDrum":true},{"pitch":42,"velocity":102,"startTime":173.152197,"endTime":173.3152405,"isDrum":true},{"pitch":51,"velocity":102,"startTime":173.152197,"endTime":173.3152405,"isDrum":true},{"pitch":35,"velocity":102,"startTime":173.47828399999997,"endTime":173.6413275,"isDrum":true},{"pitch":42,"velocity":102,"startTime":173.47828399999997,"endTime":173.6413275,"isDrum":true},{"pitch":51,"velocity":102,"startTime":173.47828399999997,"endTime":173.6413275,"isDrum":true},{"pitch":42,"velocity":102,"startTime":173.80437099999997,"endTime":173.9674145,"isDrum":true},{"pitch":51,"velocity":102,"startTime":173.80437099999997,"endTime":173.9674145,"isDrum":true},{"pitch":38,"velocity":102,"startTime":174.13045799999998,"endTime":174.2935015,"isDrum":true},{"pitch":40,"velocity":102,"startTime":174.13045799999998,"endTime":174.2935015,"isDrum":true},{"pitch":42,"velocity":102,"startTime":174.13045799999998,"endTime":174.2935015,"isDrum":true},{"pitch":51,"velocity":102,"startTime":174.13045799999998,"endTime":174.2935015,"isDrum":true},{"pitch":42,"velocity":102,"startTime":174.45654499999998,"endTime":174.6195885,"isDrum":true},{"pitch":51,"velocity":102,"startTime":174.45654499999998,"endTime":174.6195885,"isDrum":true},{"pitch":35,"velocity":102,"startTime":174.78263199999998,"endTime":174.9456755,"isDrum":true},{"pitch":42,"velocity":102,"startTime":174.78263199999998,"endTime":174.9456755,"isDrum":true},{"pitch":51,"velocity":102,"startTime":174.78263199999998,"endTime":174.9456755,"isDrum":true},{"pitch":42,"velocity":102,"startTime":175.10871899999998,"endTime":175.2717625,"isDrum":true},{"pitch":51,"velocity":102,"startTime":175.10871899999998,"endTime":175.2717625,"isDrum":true},{"pitch":38,"velocity":102,"startTime":175.43480599999998,"endTime":175.5978495,"isDrum":true},{"pitch":40,"velocity":102,"startTime":175.43480599999998,"endTime":175.5978495,"isDrum":true},{"pitch":42,"velocity":102,"startTime":175.43480599999998,"endTime":175.5978495,"isDrum":true},{"pitch":51,"velocity":102,"startTime":175.43480599999998,"endTime":175.5978495,"isDrum":true},{"pitch":42,"velocity":102,"startTime":175.76089299999998,"endTime":175.9239365,"isDrum":true},{"pitch":51,"velocity":102,"startTime":175.76089299999998,"endTime":175.9239365,"isDrum":true},{"pitch":35,"velocity":102,"startTime":176.08697999999998,"endTime":176.2500235,"isDrum":true},{"pitch":42,"velocity":102,"startTime":176.08697999999998,"endTime":176.2500235,"isDrum":true},{"pitch":51,"velocity":102,"startTime":176.08697999999998,"endTime":176.2500235,"isDrum":true},{"pitch":42,"velocity":102,"startTime":176.41306699999998,"endTime":176.5761105,"isDrum":true},{"pitch":51,"velocity":102,"startTime":176.41306699999998,"endTime":176.5761105,"isDrum":true},{"pitch":38,"velocity":102,"startTime":176.73915399999998,"endTime":176.9021975,"isDrum":true},{"pitch":40,"velocity":102,"startTime":176.73915399999998,"endTime":176.9021975,"isDrum":true},{"pitch":42,"velocity":102,"startTime":176.73915399999998,"endTime":176.9021975,"isDrum":true},{"pitch":51,"velocity":102,"startTime":176.73915399999998,"endTime":176.9021975,"isDrum":true},{"pitch":42,"velocity":102,"startTime":177.065241,"endTime":177.22828449999997,"isDrum":true},{"pitch":51,"velocity":102,"startTime":177.065241,"endTime":177.22828449999997,"isDrum":true},{"pitch":35,"velocity":102,"startTime":177.391328,"endTime":177.55437149999997,"isDrum":true},{"pitch":42,"velocity":102,"startTime":177.391328,"endTime":177.55437149999997,"isDrum":true},{"pitch":51,"velocity":102,"startTime":177.391328,"endTime":177.55437149999997,"isDrum":true},{"pitch":42,"velocity":102,"startTime":177.717415,"endTime":177.88045849999997,"isDrum":true},{"pitch":51,"velocity":102,"startTime":177.717415,"endTime":177.88045849999997,"isDrum":true},{"pitch":38,"velocity":102,"startTime":178.043502,"endTime":178.20654549999998,"isDrum":true},{"pitch":40,"velocity":102,"startTime":178.043502,"endTime":178.20654549999998,"isDrum":true},{"pitch":42,"velocity":102,"startTime":178.043502,"endTime":178.20654549999998,"isDrum":true},{"pitch":51,"velocity":102,"startTime":178.043502,"endTime":178.20654549999998,"isDrum":true},{"pitch":42,"velocity":102,"startTime":178.369589,"endTime":178.53263249999998,"isDrum":true},{"pitch":51,"velocity":102,"startTime":178.369589,"endTime":178.53263249999998,"isDrum":true},{"pitch":35,"velocity":102,"startTime":178.695676,"endTime":178.85871949999998,"isDrum":true},{"pitch":42,"velocity":102,"startTime":178.695676,"endTime":178.85871949999998,"isDrum":true},{"pitch":51,"velocity":102,"startTime":178.695676,"endTime":178.85871949999998,"isDrum":true},{"pitch":42,"velocity":102,"startTime":179.021763,"endTime":179.18480649999998,"isDrum":true},{"pitch":51,"velocity":102,"startTime":179.021763,"endTime":179.18480649999998,"isDrum":true},{"pitch":38,"velocity":102,"startTime":179.34785,"endTime":179.51089349999998,"isDrum":true},{"pitch":42,"velocity":102,"startTime":179.34785,"endTime":179.51089349999998,"isDrum":true},{"pitch":51,"velocity":102,"startTime":179.34785,"endTime":179.51089349999998,"isDrum":true},{"pitch":35,"velocity":102,"startTime":179.673937,"endTime":179.83698049999998,"isDrum":true},{"pitch":42,"velocity":102,"startTime":179.673937,"endTime":179.83698049999998,"isDrum":true},{"pitch":51,"velocity":102,"startTime":179.673937,"endTime":179.83698049999998,"isDrum":true},{"pitch":35,"velocity":102,"startTime":180.000024,"endTime":180.16306749999998,"isDrum":true},{"pitch":42,"velocity":102,"startTime":180.000024,"endTime":180.16306749999998,"isDrum":true},{"pitch":51,"velocity":102,"startTime":180.000024,"endTime":180.16306749999998,"isDrum":true},{"pitch":42,"velocity":102,"startTime":180.326111,"endTime":180.48915449999998,"isDrum":true},{"pitch":51,"velocity":102,"startTime":180.326111,"endTime":180.48915449999998,"isDrum":true},{"pitch":38,"velocity":102,"startTime":180.652198,"endTime":180.81524149999998,"isDrum":true},{"pitch":40,"velocity":102,"startTime":180.652198,"endTime":180.81524149999998,"isDrum":true},{"pitch":42,"velocity":102,"startTime":180.652198,"endTime":180.81524149999998,"isDrum":true},{"pitch":51,"velocity":102,"startTime":180.652198,"endTime":180.81524149999998,"isDrum":true},{"pitch":42,"velocity":102,"startTime":180.978285,"endTime":181.1413285,"isDrum":true},{"pitch":51,"velocity":102,"startTime":180.978285,"endTime":181.1413285,"isDrum":true},{"pitch":35,"velocity":102,"startTime":181.30437199999997,"endTime":181.4674155,"isDrum":true},{"pitch":42,"velocity":102,"startTime":181.30437199999997,"endTime":181.4674155,"isDrum":true},{"pitch":51,"velocity":102,"startTime":181.30437199999997,"endTime":181.4674155,"isDrum":true},{"pitch":42,"velocity":102,"startTime":181.63045899999997,"endTime":181.7935025,"isDrum":true},{"pitch":51,"velocity":102,"startTime":181.63045899999997,"endTime":181.7935025,"isDrum":true},{"pitch":38,"velocity":102,"startTime":181.95654599999997,"endTime":182.1195895,"isDrum":true},{"pitch":40,"velocity":102,"startTime":181.95654599999997,"endTime":182.1195895,"isDrum":true},{"pitch":42,"velocity":102,"startTime":181.95654599999997,"endTime":182.1195895,"isDrum":true},{"pitch":51,"velocity":102,"startTime":181.95654599999997,"endTime":182.1195895,"isDrum":true},{"pitch":42,"velocity":102,"startTime":182.28263299999998,"endTime":182.4456765,"isDrum":true},{"pitch":51,"velocity":102,"startTime":182.28263299999998,"endTime":182.4456765,"isDrum":true},{"pitch":35,"velocity":102,"startTime":182.60871999999998,"endTime":182.7717635,"isDrum":true},{"pitch":42,"velocity":102,"startTime":182.60871999999998,"endTime":182.7717635,"isDrum":true},{"pitch":48,"velocity":102,"startTime":182.60871999999998,"endTime":182.7717635,"isDrum":true},{"pitch":42,"velocity":102,"startTime":182.93480699999998,"endTime":183.0978505,"isDrum":true},{"pitch":51,"velocity":102,"startTime":182.93480699999998,"endTime":183.0978505,"isDrum":true},{"pitch":40,"velocity":102,"startTime":183.26089399999998,"endTime":183.4239375,"isDrum":true},{"pitch":42,"velocity":102,"startTime":183.26089399999998,"endTime":183.4239375,"isDrum":true},{"pitch":51,"velocity":102,"startTime":183.26089399999998,"endTime":183.4239375,"isDrum":true},{"pitch":42,"velocity":102,"startTime":183.58698099999998,"endTime":183.7500245,"isDrum":true},{"pitch":51,"velocity":102,"startTime":183.58698099999998,"endTime":183.7500245,"isDrum":true},{"pitch":35,"velocity":102,"startTime":183.91306799999998,"endTime":184.0761115,"isDrum":true},{"pitch":42,"velocity":102,"startTime":183.91306799999998,"endTime":184.0761115,"isDrum":true},{"pitch":51,"velocity":102,"startTime":183.91306799999998,"endTime":184.0761115,"isDrum":true},{"pitch":42,"velocity":102,"startTime":184.23915499999998,"endTime":184.4021985,"isDrum":true},{"pitch":51,"velocity":102,"startTime":184.23915499999998,"endTime":184.4021985,"isDrum":true},{"pitch":38,"velocity":102,"startTime":184.56524199999998,"endTime":184.7282855,"isDrum":true},{"pitch":40,"velocity":102,"startTime":184.56524199999998,"endTime":184.7282855,"isDrum":true},{"pitch":42,"velocity":102,"startTime":184.56524199999998,"endTime":184.7282855,"isDrum":true},{"pitch":51,"velocity":102,"startTime":184.56524199999998,"endTime":184.7282855,"isDrum":true},{"pitch":42,"velocity":102,"startTime":184.89132899999998,"endTime":185.0543725,"isDrum":true},{"pitch":51,"velocity":102,"startTime":184.89132899999998,"endTime":185.0543725,"isDrum":true},{"pitch":35,"velocity":102,"startTime":185.217416,"endTime":185.38045949999997,"isDrum":true},{"pitch":42,"velocity":102,"startTime":185.217416,"endTime":185.38045949999997,"isDrum":true},{"pitch":51,"velocity":102,"startTime":185.217416,"endTime":185.38045949999997,"isDrum":true},{"pitch":42,"velocity":102,"startTime":185.543503,"endTime":185.70654649999997,"isDrum":true},{"pitch":51,"velocity":102,"startTime":185.543503,"endTime":185.70654649999997,"isDrum":true},{"pitch":38,"velocity":102,"startTime":185.86959,"endTime":186.03263349999997,"isDrum":true},{"pitch":40,"velocity":102,"startTime":185.86959,"endTime":186.03263349999997,"isDrum":true},{"pitch":42,"velocity":102,"startTime":185.86959,"endTime":186.03263349999997,"isDrum":true},{"pitch":51,"velocity":102,"startTime":185.86959,"endTime":186.03263349999997,"isDrum":true},{"pitch":42,"velocity":102,"startTime":186.195677,"endTime":186.35872049999998,"isDrum":true},{"pitch":51,"velocity":102,"startTime":186.195677,"endTime":186.35872049999998,"isDrum":true},{"pitch":35,"velocity":102,"startTime":186.521764,"endTime":186.68480749999998,"isDrum":true},{"pitch":42,"velocity":102,"startTime":186.521764,"endTime":186.68480749999998,"isDrum":true},{"pitch":51,"velocity":102,"startTime":186.521764,"endTime":186.68480749999998,"isDrum":true},{"pitch":42,"velocity":102,"startTime":186.847851,"endTime":187.01089449999998,"isDrum":true},{"pitch":51,"velocity":102,"startTime":186.847851,"endTime":187.01089449999998,"isDrum":true},{"pitch":38,"velocity":102,"startTime":187.173938,"endTime":187.33698149999998,"isDrum":true},{"pitch":40,"velocity":102,"startTime":187.173938,"endTime":187.33698149999998,"isDrum":true},{"pitch":42,"velocity":102,"startTime":187.173938,"endTime":187.33698149999998,"isDrum":true},{"pitch":51,"velocity":102,"startTime":187.173938,"endTime":187.33698149999998,"isDrum":true},{"pitch":42,"velocity":102,"startTime":187.500025,"endTime":187.66306849999998,"isDrum":true},{"pitch":51,"velocity":102,"startTime":187.500025,"endTime":187.66306849999998,"isDrum":true},{"pitch":61,"velocity":95,"startTime":166.95654399999998,"endTime":167.06523966666668,"instrument":1,"program":12},{"pitch":69,"velocity":95,"startTime":167.1195875,"endTime":167.22828316666667,"instrument":1,"program":12},{"pitch":67,"velocity":95,"startTime":167.28263099999998,"endTime":167.39132666666669,"instrument":1,"program":12},{"pitch":73,"velocity":95,"startTime":167.4456745,"endTime":167.55437016666667,"instrument":1,"program":12},{"pitch":69,"velocity":95,"startTime":167.60871799999998,"endTime":167.7174136666667,"instrument":1,"program":12},{"pitch":69,"velocity":95,"startTime":167.7717615,"endTime":167.8261093333333,"instrument":1,"program":12},{"pitch":73,"velocity":95,"startTime":167.93480499999998,"endTime":168.0435006666667,"instrument":1,"program":12},{"pitch":69,"velocity":95,"startTime":168.0978485,"endTime":168.20654416666667,"instrument":1,"program":12},{"pitch":61,"velocity":95,"startTime":168.26089199999998,"endTime":168.36958766666666,"instrument":1,"program":12},{"pitch":67,"velocity":95,"startTime":168.4239355,"endTime":168.53263116666668,"instrument":1,"program":12},{"pitch":69,"velocity":95,"startTime":168.58697899999999,"endTime":168.69567466666666,"instrument":1,"program":12},{"pitch":73,"velocity":95,"startTime":168.7500225,"endTime":168.85871816666668,"instrument":1,"program":12},{"pitch":67,"velocity":95,"startTime":168.913066,"endTime":169.02176166666666,"instrument":1,"program":12},{"pitch":69,"velocity":95,"startTime":169.0761095,"endTime":169.18480516666668,"instrument":1,"program":12},{"pitch":67,"velocity":95,"startTime":169.239153,"endTime":169.34784866666666,"instrument":1,"program":12},{"pitch":70,"velocity":95,"startTime":169.40219649999997,"endTime":169.51089216666668,"instrument":1,"program":12},{"pitch":67,"velocity":95,"startTime":169.56524,"endTime":169.67393566666667,"instrument":1,"program":12},{"pitch":67,"velocity":95,"startTime":169.72828349999997,"endTime":169.83697916666668,"instrument":1,"program":12},{"pitch":69,"velocity":95,"startTime":169.891327,"endTime":170.00002266666667,"instrument":1,"program":12},{"pitch":67,"velocity":95,"startTime":170.05437049999998,"endTime":170.16306616666668,"instrument":1,"program":12},{"pitch":69,"velocity":95,"startTime":170.217414,"endTime":170.32610966666667,"instrument":1,"program":12},{"pitch":69,"velocity":95,"startTime":170.38045749999998,"endTime":170.48915316666668,"instrument":1,"program":12},{"pitch":67,"velocity":95,"startTime":170.543501,"endTime":170.65219666666667,"instrument":1,"program":12},{"pitch":67,"velocity":95,"startTime":170.70654449999998,"endTime":170.81524016666668,"instrument":1,"program":12},{"pitch":69,"velocity":95,"startTime":170.869588,"endTime":170.97828366666667,"instrument":1,"program":12},{"pitch":69,"velocity":95,"startTime":171.03263149999998,"endTime":171.14132716666668,"instrument":1,"program":12},{"pitch":67,"velocity":95,"startTime":171.195675,"endTime":171.30437066666667,"instrument":1,"program":12},{"pitch":69,"velocity":95,"startTime":171.35871849999998,"endTime":171.46741416666669,"instrument":1,"program":12},{"pitch":69,"velocity":95,"startTime":171.521762,"endTime":171.63045766666667,"instrument":1,"program":12},{"pitch":67,"velocity":95,"startTime":171.68480549999998,"endTime":171.7935011666667,"instrument":1,"program":12},{"pitch":67,"velocity":95,"startTime":171.847849,"endTime":171.95654466666667,"instrument":1,"program":12},{"pitch":69,"velocity":95,"startTime":172.01089249999998,"endTime":172.11958816666666,"instrument":1,"program":12},{"pitch":62,"velocity":95,"startTime":172.173936,"endTime":172.28263166666667,"instrument":1,"program":12},{"pitch":65,"velocity":95,"startTime":172.33697949999998,"endTime":172.44567516666666,"instrument":1,"program":12},{"pitch":67,"velocity":95,"startTime":172.500023,"endTime":172.60871866666668,"instrument":1,"program":12},{"pitch":65,"velocity":95,"startTime":172.66306649999999,"endTime":172.77176216666666,"instrument":1,"program":12},{"pitch":74,"velocity":95,"startTime":172.82611,"endTime":172.93480566666668,"instrument":1,"program":12},{"pitch":67,"velocity":95,"startTime":172.9891535,"endTime":173.09784916666666,"instrument":1,"program":12},{"pitch":65,"velocity":95,"startTime":173.152197,"endTime":173.26089266666668,"instrument":1,"program":12},{"pitch":74,"velocity":95,"startTime":173.3152405,"endTime":173.42393616666666,"instrument":1,"program":12},{"pitch":65,"velocity":95,"startTime":173.47828399999997,"endTime":173.58697966666668,"instrument":1,"program":12},{"pitch":67,"velocity":95,"startTime":173.6413275,"endTime":173.75002316666667,"instrument":1,"program":12},{"pitch":70,"velocity":95,"startTime":173.80437099999997,"endTime":173.91306666666668,"instrument":1,"program":12},{"pitch":65,"velocity":95,"startTime":173.9674145,"endTime":174.07611016666667,"instrument":1,"program":12},{"pitch":74,"velocity":95,"startTime":174.13045799999998,"endTime":174.23915366666668,"instrument":1,"program":12},{"pitch":67,"velocity":95,"startTime":174.2935015,"endTime":174.3478493333333,"instrument":1,"program":12},{"pitch":65,"velocity":95,"startTime":174.45654499999998,"endTime":174.56524066666668,"instrument":1,"program":12},{"pitch":67,"velocity":95,"startTime":174.6195885,"endTime":174.72828416666667,"instrument":1,"program":12},{"pitch":62,"velocity":95,"startTime":174.78263199999998,"endTime":174.89132766666668,"instrument":1,"program":12},{"pitch":69,"velocity":95,"startTime":174.9456755,"endTime":175.05437116666667,"instrument":1,"program":12},{"pitch":69,"velocity":95,"startTime":175.10871899999998,"endTime":175.21741466666668,"instrument":1,"program":12},{"pitch":69,"velocity":95,"startTime":175.2717625,"endTime":175.38045816666667,"instrument":1,"program":12},{"pitch":74,"velocity":95,"startTime":175.43480599999998,"endTime":175.54350166666669,"instrument":1,"program":12},{"pitch":69,"velocity":95,"startTime":175.5978495,"endTime":175.70654516666667,"instrument":1,"program":12},{"pitch":69,"velocity":95,"startTime":175.76089299999998,"endTime":175.8695886666667,"instrument":1,"program":12},{"pitch":69,"velocity":95,"startTime":175.9239365,"endTime":176.03263216666667,"instrument":1,"program":12},{"pitch":69,"velocity":95,"startTime":176.08697999999998,"endTime":176.19567566666666,"instrument":1,"program":12},{"pitch":69,"velocity":95,"startTime":176.2500235,"endTime":176.35871916666667,"instrument":1,"program":12},{"pitch":74,"velocity":95,"startTime":176.41306699999998,"endTime":176.52176266666666,"instrument":1,"program":12},{"pitch":69,"velocity":95,"startTime":176.5761105,"endTime":176.68480616666668,"instrument":1,"program":12},{"pitch":72,"velocity":95,"startTime":176.73915399999998,"endTime":176.84784966666666,"instrument":1,"program":12},{"pitch":69,"velocity":95,"startTime":176.9021975,"endTime":177.01089316666668,"instrument":1,"program":12},{"pitch":69,"velocity":95,"startTime":177.065241,"endTime":177.17393666666666,"instrument":1,"program":12},{"pitch":69,"velocity":95,"startTime":177.22828449999997,"endTime":177.2826323333333,"instrument":1,"program":12},{"pitch":67,"velocity":95,"startTime":177.391328,"endTime":177.50002366666666,"instrument":1,"program":12},{"pitch":69,"velocity":95,"startTime":177.55437149999997,"endTime":177.66306716666668,"instrument":1,"program":12},{"pitch":74,"velocity":95,"startTime":177.717415,"endTime":177.82611066666666,"instrument":1,"program":12},{"pitch":69,"velocity":95,"startTime":177.88045849999997,"endTime":177.98915416666668,"instrument":1,"program":12},{"pitch":69,"velocity":95,"startTime":178.043502,"endTime":178.15219766666667,"instrument":1,"program":12},{"pitch":74,"velocity":95,"startTime":178.20654549999998,"endTime":178.31524116666665,"instrument":1,"program":12},{"pitch":69,"velocity":95,"startTime":178.369589,"endTime":178.47828466666667,"instrument":1,"program":12},{"pitch":69,"velocity":95,"startTime":178.53263249999998,"endTime":178.64132816666665,"instrument":1,"program":12},{"pitch":74,"velocity":95,"startTime":178.695676,"endTime":178.80437166666664,"instrument":1,"program":12},{"pitch":69,"velocity":95,"startTime":178.85871949999998,"endTime":178.96741516666665,"instrument":1,"program":12},{"pitch":74,"velocity":95,"startTime":179.021763,"endTime":179.13045866666664,"instrument":1,"program":12},{"pitch":69,"velocity":95,"startTime":179.18480649999998,"endTime":179.29350216666666,"instrument":1,"program":12},{"pitch":67,"velocity":95,"startTime":179.34785,"endTime":179.45654566666664,"instrument":1,"program":12},{"pitch":69,"velocity":95,"startTime":179.51089349999998,"endTime":179.61958916666666,"instrument":1,"program":12},{"pitch":67,"velocity":95,"startTime":179.673937,"endTime":179.78263266666664,"instrument":1,"program":12},{"pitch":69,"velocity":95,"startTime":179.83698049999998,"endTime":179.94567616666666,"instrument":1,"program":12},{"pitch":66,"velocity":95,"startTime":180.000024,"endTime":180.10871966666664,"instrument":1,"program":12},{"pitch":69,"velocity":95,"startTime":180.16306749999998,"endTime":180.27176316666666,"instrument":1,"program":12},{"pitch":72,"velocity":95,"startTime":180.326111,"endTime":180.43480666666665,"instrument":1,"program":12},{"pitch":69,"velocity":95,"startTime":180.48915449999998,"endTime":180.59785016666666,"instrument":1,"program":12},{"pitch":72,"velocity":95,"startTime":180.652198,"endTime":180.76089366666665,"instrument":1,"program":12},{"pitch":69,"velocity":95,"startTime":180.81524149999998,"endTime":180.92393716666666,"instrument":1,"program":12},{"pitch":69,"velocity":95,"startTime":180.978285,"endTime":181.08698066666665,"instrument":1,"program":12},{"pitch":72,"velocity":95,"startTime":181.1413285,"endTime":181.25002416666666,"instrument":1,"program":12},{"pitch":72,"velocity":95,"startTime":181.30437199999997,"endTime":181.41306766666665,"instrument":1,"program":12},{"pitch":69,"velocity":95,"startTime":181.4674155,"endTime":181.57611116666666,"instrument":1,"program":12},{"pitch":72,"velocity":95,"startTime":181.63045899999997,"endTime":181.73915466666665,"instrument":1,"program":12},{"pitch":72,"velocity":95,"startTime":181.7935025,"endTime":181.95654599999997,"instrument":1,"program":12},{"pitch":69,"velocity":95,"startTime":181.95654599999997,"endTime":182.06524166666665,"instrument":1,"program":12},{"pitch":72,"velocity":95,"startTime":182.1195895,"endTime":182.22828516666667,"instrument":1,"program":12},{"pitch":69,"velocity":95,"startTime":182.28263299999998,"endTime":182.39132866666665,"instrument":1,"program":12},{"pitch":72,"velocity":95,"startTime":182.4456765,"endTime":182.55437216666667,"instrument":1,"program":12},{"pitch":67,"velocity":95,"startTime":182.60871999999998,"endTime":182.71741566666665,"instrument":1,"program":12},{"pitch":70,"velocity":95,"startTime":182.7717635,"endTime":182.88045916666664,"instrument":1,"program":12},{"pitch":65,"velocity":95,"startTime":182.93480699999998,"endTime":183.04350266666665,"instrument":1,"program":12},{"pitch":65,"velocity":95,"startTime":183.0978505,"endTime":183.20654616666664,"instrument":1,"program":12},{"pitch":70,"velocity":95,"startTime":183.26089399999998,"endTime":183.36958966666666,"instrument":1,"program":12},{"pitch":65,"velocity":95,"startTime":183.4239375,"endTime":183.53263316666664,"instrument":1,"program":12},{"pitch":65,"velocity":95,"startTime":183.58698099999998,"endTime":183.69567666666666,"instrument":1,"program":12},{"pitch":65,"velocity":95,"startTime":183.7500245,"endTime":183.85872016666664,"instrument":1,"program":12},{"pitch":70,"velocity":95,"startTime":183.91306799999998,"endTime":184.02176366666666,"instrument":1,"program":12},{"pitch":65,"velocity":95,"startTime":184.0761115,"endTime":184.18480716666664,"instrument":1,"program":12},{"pitch":70,"velocity":95,"startTime":184.23915499999998,"endTime":184.34785066666666,"instrument":1,"program":12},{"pitch":65,"velocity":95,"startTime":184.4021985,"endTime":184.51089416666665,"instrument":1,"program":12},{"pitch":70,"velocity":95,"startTime":184.56524199999998,"endTime":184.67393766666666,"instrument":1,"program":12},{"pitch":70,"velocity":95,"startTime":184.7282855,"endTime":184.83698116666665,"instrument":1,"program":12},{"pitch":65,"velocity":95,"startTime":184.89132899999998,"endTime":185.00002466666666,"instrument":1,"program":12},{"pitch":70,"velocity":95,"startTime":185.0543725,"endTime":185.16306816666665,"instrument":1,"program":12},{"pitch":62,"velocity":95,"startTime":185.217416,"endTime":185.32611166666666,"instrument":1,"program":12},{"pitch":65,"velocity":95,"startTime":185.38045949999997,"endTime":185.48915516666665,"instrument":1,"program":12},{"pitch":69,"velocity":95,"startTime":185.543503,"endTime":185.65219866666666,"instrument":1,"program":12},{"pitch":74,"velocity":95,"startTime":185.70654649999997,"endTime":185.81524216666665,"instrument":1,"program":12},{"pitch":77,"velocity":95,"startTime":185.86959,"endTime":185.97828566666666,"instrument":1,"program":12},{"pitch":65,"velocity":95,"startTime":186.03263349999997,"endTime":186.14132916666665,"instrument":1,"program":12},{"pitch":69,"velocity":95,"startTime":186.195677,"endTime":186.30437266666667,"instrument":1,"program":12},{"pitch":74,"velocity":95,"startTime":186.35872049999998,"endTime":186.46741616666665,"instrument":1,"program":12},{"pitch":65,"velocity":95,"startTime":186.521764,"endTime":186.63045966666664,"instrument":1,"program":12},{"pitch":69,"velocity":95,"startTime":186.68480749999998,"endTime":186.79350316666665,"instrument":1,"program":12},{"pitch":74,"velocity":95,"startTime":186.847851,"endTime":186.95654666666664,"instrument":1,"program":12},{"pitch":77,"velocity":95,"startTime":187.01089449999998,"endTime":187.11959016666665,"instrument":1,"program":12},{"pitch":74,"velocity":95,"startTime":187.173938,"endTime":187.28263366666664,"instrument":1,"program":12},{"pitch":74,"velocity":95,"startTime":187.33698149999998,"endTime":187.44567716666666,"instrument":1,"program":12},{"pitch":65,"velocity":95,"startTime":187.500025,"endTime":187.60872066666664,"instrument":1,"program":12},{"pitch":69,"velocity":95,"startTime":187.66306849999998,"endTime":187.77176416666666,"instrument":1,"program":12},{"pitch":43,"velocity":110,"startTime":166.95654399999998,"endTime":167.28263099999998,"instrument":2,"program":32},{"pitch":43,"velocity":110,"startTime":167.4456745,"endTime":167.60871799999998,"instrument":2,"program":32},{"pitch":31,"velocity":110,"startTime":167.7717615,"endTime":167.93480499999998,"instrument":2,"program":32},{"pitch":29,"velocity":110,"startTime":167.93480499999998,"endTime":168.0978485,"instrument":2,"program":32},{"pitch":34,"velocity":110,"startTime":168.26089199999998,"endTime":168.4239355,"instrument":2,"program":32},{"pitch":34,"velocity":110,"startTime":168.58697899999999,"endTime":168.7500225,"instrument":2,"program":32},{"pitch":29,"velocity":110,"startTime":168.913066,"endTime":169.0761095,"instrument":2,"program":32},{"pitch":46,"velocity":110,"startTime":169.239153,"endTime":169.40219649999997,"instrument":2,"program":32},{"pitch":43,"velocity":110,"startTime":169.56524,"endTime":169.891327,"instrument":2,"program":32},{"pitch":43,"velocity":110,"startTime":170.05437049999998,"endTime":170.217414,"instrument":2,"program":32},{"pitch":43,"velocity":110,"startTime":170.38045749999998,"endTime":170.48915316666668,"instrument":2,"program":32},{"pitch":38,"velocity":110,"startTime":170.543501,"endTime":170.70654449999998,"instrument":2,"program":32},{"pitch":38,"velocity":110,"startTime":170.869588,"endTime":171.195675,"instrument":2,"program":32},{"pitch":31,"velocity":110,"startTime":171.521762,"endTime":171.7935011666667,"instrument":2,"program":32},{"pitch":38,"velocity":110,"startTime":171.847849,"endTime":172.01089249999998,"instrument":2,"program":32},{"pitch":39,"velocity":110,"startTime":172.173936,"endTime":172.500023,"instrument":2,"program":32},{"pitch":27,"velocity":110,"startTime":172.66306649999999,"endTime":172.82611,"instrument":2,"program":32},{"pitch":27,"velocity":110,"startTime":172.9891535,"endTime":173.152197,"instrument":2,"program":32},{"pitch":36,"velocity":110,"startTime":173.152197,"endTime":173.75002316666667,"instrument":2,"program":32},{"pitch":38,"velocity":110,"startTime":173.80437099999997,"endTime":173.9674145,"instrument":2,"program":32},{"pitch":29,"velocity":110,"startTime":174.13045799999998,"endTime":174.2935015,"instrument":2,"program":32},{"pitch":33,"velocity":110,"startTime":174.45654499999998,"endTime":174.6195885,"instrument":2,"program":32},{"pitch":38,"velocity":110,"startTime":174.78263199999998,"endTime":175.10871899999998,"instrument":2,"program":32},{"pitch":50,"velocity":110,"startTime":175.2717625,"endTime":175.43480599999998,"instrument":2,"program":32},{"pitch":50,"velocity":110,"startTime":175.5978495,"endTime":175.76089299999998,"instrument":2,"program":32},{"pitch":38,"velocity":110,"startTime":175.76089299999998,"endTime":175.9239365,"instrument":2,"program":32},{"pitch":33,"velocity":110,"startTime":176.08697999999998,"endTime":176.41306699999998,"instrument":2,"program":32},{"pitch":43,"velocity":110,"startTime":176.73915399999998,"endTime":176.84784966666666,"instrument":2,"program":32},{"pitch":43,"velocity":110,"startTime":176.9021975,"endTime":177.01089316666668,"instrument":2,"program":32},{"pitch":38,"velocity":110,"startTime":177.22828449999997,"endTime":177.33698016666668,"instrument":2,"program":32},{"pitch":42,"velocity":110,"startTime":177.391328,"endTime":177.717415,"instrument":2,"program":32},{"pitch":31,"velocity":110,"startTime":178.043502,"endTime":178.20654549999998,"instrument":2,"program":32},{"pitch":43,"velocity":110,"startTime":178.369589,"endTime":178.53263249999998,"instrument":2,"program":32},{"pitch":43,"velocity":110,"startTime":178.695676,"endTime":178.85871949999998,"instrument":2,"program":32},{"pitch":31,"velocity":110,"startTime":179.021763,"endTime":179.18480649999998,"instrument":2,"program":32},{"pitch":34,"velocity":110,"startTime":179.34785,"endTime":179.51089349999998,"instrument":2,"program":32},{"pitch":37,"velocity":110,"startTime":179.673937,"endTime":179.83698049999998,"instrument":2,"program":32},{"pitch":36,"velocity":110,"startTime":180.000024,"endTime":180.54350233333332,"instrument":2,"program":32},{"pitch":31,"velocity":110,"startTime":180.652198,"endTime":180.81524149999998,"instrument":2,"program":32},{"pitch":31,"velocity":110,"startTime":180.978285,"endTime":181.1413285,"instrument":2,"program":32},{"pitch":36,"velocity":110,"startTime":181.30437199999997,"endTime":181.63045899999997,"instrument":2,"program":32},{"pitch":36,"velocity":110,"startTime":181.7935025,"endTime":181.95654599999997,"instrument":2,"program":32},{"pitch":43,"velocity":110,"startTime":182.1195895,"endTime":182.28263299999998,"instrument":2,"program":32},{"pitch":31,"velocity":110,"startTime":182.28263299999998,"endTime":182.4456765,"instrument":2,"program":32},{"pitch":39,"velocity":110,"startTime":182.60871999999998,"endTime":182.93480699999998,"instrument":2,"program":32},{"pitch":39,"velocity":110,"startTime":183.0978505,"endTime":183.26089399999998,"instrument":2,"program":32},{"pitch":39,"velocity":110,"startTime":183.4239375,"endTime":183.58698099999998,"instrument":2,"program":32},{"pitch":41,"velocity":110,"startTime":183.58698099999998,"endTime":183.7500245,"instrument":2,"program":32},{"pitch":31,"velocity":110,"startTime":183.91306799999998,"endTime":184.0761115,"instrument":2,"program":32},{"pitch":31,"velocity":110,"startTime":184.23915499999998,"endTime":184.4021985,"instrument":2,"program":32},{"pitch":34,"velocity":110,"startTime":184.56524199999998,"endTime":184.7282855,"instrument":2,"program":32},{"pitch":38,"velocity":110,"startTime":184.89132899999998,"endTime":185.0543725,"instrument":2,"program":32},{"pitch":38,"velocity":110,"startTime":185.217416,"endTime":185.543503,"instrument":2,"program":32},{"pitch":38,"velocity":110,"startTime":185.86959,"endTime":186.03263349999997,"instrument":2,"program":32},{"pitch":38,"velocity":110,"startTime":186.195677,"endTime":186.35872049999998,"instrument":2,"program":32},{"pitch":38,"velocity":110,"startTime":186.521764,"endTime":186.68480749999998,"instrument":2,"program":32},{"pitch":43,"velocity":110,"startTime":186.847851,"endTime":187.01089449999998,"instrument":2,"program":32},{"pitch":43,"velocity":110,"startTime":187.173938,"endTime":187.33698149999998,"instrument":2,"program":32},{"pitch":38,"velocity":110,"startTime":187.500025,"endTime":187.66306849999998,"instrument":2,"program":32},{"pitch":59,"velocity":105,"startTime":166.95654399999998,"endTime":169.34784866666666,"instrument":3,"program":50},{"pitch":64,"velocity":105,"startTime":166.95654399999998,"endTime":167.93480499999998,"instrument":3,"program":50},{"pitch":67,"velocity":105,"startTime":166.95654399999998,"endTime":169.34784866666666,"instrument":3,"program":50},{"pitch":74,"velocity":105,"startTime":166.95654399999998,"endTime":169.34784866666666,"instrument":3,"program":50},{"pitch":60,"velocity":105,"startTime":167.93480499999998,"endTime":167.9891528333333,"instrument":3,"program":50},{"pitch":63,"velocity":105,"startTime":168.26089199999998,"endTime":168.69567466666666,"instrument":3,"program":50},{"pitch":64,"velocity":105,"startTime":168.913066,"endTime":169.34784866666666,"instrument":3,"program":50},{"pitch":57,"velocity":105,"startTime":169.40219649999997,"endTime":171.7391533333333,"instrument":3,"program":50},{"pitch":60,"velocity":105,"startTime":169.40219649999997,"endTime":171.7391533333333,"instrument":3,"program":50},{"pitch":66,"velocity":105,"startTime":169.40219649999997,"endTime":171.7391533333333,"instrument":3,"program":50},{"pitch":69,"velocity":105,"startTime":169.40219649999997,"endTime":171.7391533333333,"instrument":3,"program":50},{"pitch":55,"velocity":105,"startTime":172.173936,"endTime":174.13045799999998,"instrument":3,"program":50},{"pitch":58,"velocity":105,"startTime":172.173936,"endTime":174.13045799999998,"instrument":3,"program":50},{"pitch":63,"velocity":105,"startTime":172.173936,"endTime":173.47828399999997,"instrument":3,"program":50},{"pitch":67,"velocity":105,"startTime":172.173936,"endTime":174.13045799999998,"instrument":3,"program":50},{"pitch":61,"velocity":105,"startTime":173.47828399999997,"endTime":174.0217623333333,"instrument":3,"program":50},{"pitch":63,"velocity":105,"startTime":173.9674145,"endTime":174.13045799999998,"instrument":3,"program":50},{"pitch":60,"velocity":105,"startTime":174.13045799999998,"endTime":174.78263199999998,"instrument":3,"program":50},{"pitch":63,"velocity":105,"startTime":174.13045799999998,"endTime":174.78263199999998,"instrument":3,"program":50},{"pitch":65,"velocity":105,"startTime":174.13045799999998,"endTime":174.78263199999998,"instrument":3,"program":50},{"pitch":67,"velocity":105,"startTime":174.13045799999998,"endTime":174.78263199999998,"instrument":3,"program":50},{"pitch":58,"velocity":105,"startTime":174.78263199999998,"endTime":177.391328,"instrument":3,"program":50},{"pitch":60,"velocity":105,"startTime":174.78263199999998,"endTime":177.391328,"instrument":3,"program":50},{"pitch":63,"velocity":105,"startTime":174.78263199999998,"endTime":177.391328,"instrument":3,"program":50},{"pitch":66,"velocity":105,"startTime":174.78263199999998,"endTime":177.391328,"instrument":3,"program":50},{"pitch":57,"velocity":105,"startTime":177.391328,"endTime":178.96741516666665,"instrument":3,"program":50},{"pitch":60,"velocity":105,"startTime":177.391328,"endTime":179.34785,"instrument":3,"program":50},{"pitch":65,"velocity":105,"startTime":177.391328,"endTime":179.34785,"instrument":3,"program":50},{"pitch":69,"velocity":105,"startTime":177.391328,"endTime":179.34785,"instrument":3,"program":50},{"pitch":57,"velocity":105,"startTime":179.021763,"endTime":179.34785,"instrument":3,"program":50},{"pitch":58,"velocity":105,"startTime":179.34785,"endTime":180.000024,"instrument":3,"program":50},{"pitch":60,"velocity":105,"startTime":179.34785,"endTime":180.000024,"instrument":3,"program":50},{"pitch":65,"velocity":105,"startTime":179.34785,"endTime":180.000024,"instrument":3,"program":50},{"pitch":58,"velocity":105,"startTime":180.000024,"endTime":182.60871999999998,"instrument":3,"program":50},{"pitch":60,"velocity":105,"startTime":180.000024,"endTime":182.60871999999998,"instrument":3,"program":50},{"pitch":65,"velocity":105,"startTime":180.000024,"endTime":182.60871999999998,"instrument":3,"program":50},{"pitch":67,"velocity":105,"startTime":180.000024,"endTime":182.60871999999998,"instrument":3,"program":50},{"pitch":60,"velocity":105,"startTime":182.60871999999998,"endTime":185.217416,"instrument":3,"program":50},{"pitch":63,"velocity":105,"startTime":182.60871999999998,"endTime":185.217416,"instrument":3,"program":50},{"pitch":65,"velocity":105,"startTime":182.60871999999998,"endTime":185.217416,"instrument":3,"program":50},{"pitch":70,"velocity":105,"startTime":182.60871999999998,"endTime":185.217416,"instrument":3,"program":50},{"pitch":56,"velocity":105,"startTime":185.217416,"endTime":185.38045949999997,"instrument":3,"program":50},{"pitch":62,"velocity":105,"startTime":185.217416,"endTime":185.38045949999997,"instrument":3,"program":50},{"pitch":69,"velocity":105,"startTime":185.217416,"endTime":185.38045949999997,"instrument":3,"program":50},{"pitch":74,"velocity":105,"startTime":185.217416,"endTime":185.38045949999997,"instrument":3,"program":50},{"pitch":35,"velocity":102,"startTime":187.826112,"endTime":187.98915549999998,"isDrum":true},{"pitch":42,"velocity":102,"startTime":187.826112,"endTime":187.98915549999998,"isDrum":true},{"pitch":51,"velocity":102,"startTime":187.826112,"endTime":187.98915549999998,"isDrum":true},{"pitch":42,"velocity":102,"startTime":188.152199,"endTime":188.31524249999998,"isDrum":true},{"pitch":40,"velocity":102,"startTime":188.478286,"endTime":188.64132949999998,"isDrum":true},{"pitch":42,"velocity":102,"startTime":188.478286,"endTime":188.64132949999998,"isDrum":true},{"pitch":51,"velocity":102,"startTime":188.478286,"endTime":188.64132949999998,"isDrum":true},{"pitch":42,"velocity":102,"startTime":188.804373,"endTime":188.96741649999998,"isDrum":true},{"pitch":35,"velocity":102,"startTime":189.13046,"endTime":189.29350349999999,"isDrum":true},{"pitch":42,"velocity":102,"startTime":189.13046,"endTime":189.29350349999999,"isDrum":true},{"pitch":51,"velocity":102,"startTime":189.13046,"endTime":189.29350349999999,"isDrum":true},{"pitch":42,"velocity":102,"startTime":189.45654699999997,"endTime":189.6195905,"isDrum":true},{"pitch":40,"velocity":102,"startTime":189.78263399999997,"endTime":189.9456775,"isDrum":true},{"pitch":42,"velocity":102,"startTime":189.78263399999997,"endTime":189.9456775,"isDrum":true},{"pitch":51,"velocity":102,"startTime":189.78263399999997,"endTime":189.9456775,"isDrum":true},{"pitch":42,"velocity":102,"startTime":190.10872099999997,"endTime":190.2717645,"isDrum":true},{"pitch":35,"velocity":102,"startTime":190.43480799999998,"endTime":190.5978515,"isDrum":true},{"pitch":42,"velocity":102,"startTime":190.43480799999998,"endTime":190.5978515,"isDrum":true},{"pitch":51,"velocity":102,"startTime":190.43480799999998,"endTime":190.5978515,"isDrum":true},{"pitch":42,"velocity":102,"startTime":190.76089499999998,"endTime":190.9239385,"isDrum":true},{"pitch":40,"velocity":102,"startTime":191.08698199999998,"endTime":191.2500255,"isDrum":true},{"pitch":42,"velocity":102,"startTime":191.08698199999998,"endTime":191.2500255,"isDrum":true},{"pitch":51,"velocity":102,"startTime":191.08698199999998,"endTime":191.2500255,"isDrum":true},{"pitch":42,"velocity":102,"startTime":191.41306899999998,"endTime":191.5761125,"isDrum":true},{"pitch":35,"velocity":102,"startTime":191.73915599999998,"endTime":191.9021995,"isDrum":true},{"pitch":42,"velocity":102,"startTime":191.73915599999998,"endTime":191.9021995,"isDrum":true},{"pitch":51,"velocity":102,"startTime":191.73915599999998,"endTime":191.9021995,"isDrum":true},{"pitch":42,"velocity":102,"startTime":192.06524299999998,"endTime":192.2282865,"isDrum":true},{"pitch":40,"velocity":102,"startTime":192.39132999999998,"endTime":192.5543735,"isDrum":true},{"pitch":42,"velocity":102,"startTime":192.39132999999998,"endTime":192.5543735,"isDrum":true},{"pitch":51,"velocity":102,"startTime":192.39132999999998,"endTime":192.5543735,"isDrum":true},{"pitch":42,"velocity":102,"startTime":192.71741699999998,"endTime":192.8804605,"isDrum":true},{"pitch":35,"velocity":102,"startTime":193.04350399999998,"endTime":193.2065475,"isDrum":true},{"pitch":42,"velocity":102,"startTime":193.04350399999998,"endTime":193.2065475,"isDrum":true},{"pitch":51,"velocity":102,"startTime":193.04350399999998,"endTime":193.2065475,"isDrum":true},{"pitch":42,"velocity":102,"startTime":193.36959099999999,"endTime":193.53263449999997,"isDrum":true},{"pitch":40,"velocity":102,"startTime":193.695678,"endTime":193.85872149999997,"isDrum":true},{"pitch":42,"velocity":102,"startTime":193.695678,"endTime":193.85872149999997,"isDrum":true},{"pitch":51,"velocity":102,"startTime":193.695678,"endTime":193.85872149999997,"isDrum":true},{"pitch":42,"velocity":102,"startTime":194.021765,"endTime":194.18480849999997,"isDrum":true},{"pitch":35,"velocity":102,"startTime":194.347852,"endTime":194.51089549999998,"isDrum":true},{"pitch":42,"velocity":102,"startTime":194.347852,"endTime":194.51089549999998,"isDrum":true},{"pitch":51,"velocity":102,"startTime":194.347852,"endTime":194.51089549999998,"isDrum":true},{"pitch":42,"velocity":102,"startTime":194.673939,"endTime":194.83698249999998,"isDrum":true},{"pitch":40,"velocity":102,"startTime":195.000026,"endTime":195.16306949999998,"isDrum":true},{"pitch":42,"velocity":102,"startTime":195.000026,"endTime":195.16306949999998,"isDrum":true},{"pitch":51,"velocity":102,"startTime":195.000026,"endTime":195.16306949999998,"isDrum":true},{"pitch":42,"velocity":102,"startTime":195.326113,"endTime":195.48915649999998,"isDrum":true},{"pitch":35,"velocity":102,"startTime":195.6522,"endTime":195.81524349999998,"isDrum":true},{"pitch":42,"velocity":102,"startTime":195.6522,"endTime":195.81524349999998,"isDrum":true},{"pitch":51,"velocity":102,"startTime":195.6522,"endTime":195.81524349999998,"isDrum":true},{"pitch":42,"velocity":102,"startTime":195.978287,"endTime":196.14133049999998,"isDrum":true},{"pitch":40,"velocity":102,"startTime":196.304374,"endTime":196.46741749999998,"isDrum":true},{"pitch":42,"velocity":102,"startTime":196.304374,"endTime":196.46741749999998,"isDrum":true},{"pitch":51,"velocity":102,"startTime":196.304374,"endTime":196.46741749999998,"isDrum":true},{"pitch":42,"velocity":102,"startTime":196.630461,"endTime":196.79350449999998,"isDrum":true},{"pitch":35,"velocity":102,"startTime":196.956548,"endTime":197.11959149999998,"isDrum":true},{"pitch":42,"velocity":102,"startTime":196.956548,"endTime":197.11959149999998,"isDrum":true},{"pitch":51,"velocity":102,"startTime":196.956548,"endTime":197.11959149999998,"isDrum":true},{"pitch":35,"velocity":102,"startTime":197.282635,"endTime":197.44567849999999,"isDrum":true},{"pitch":42,"velocity":102,"startTime":197.282635,"endTime":197.44567849999999,"isDrum":true},{"pitch":40,"velocity":102,"startTime":197.60872199999997,"endTime":197.7717655,"isDrum":true},{"pitch":42,"velocity":102,"startTime":197.60872199999997,"endTime":197.7717655,"isDrum":true},{"pitch":51,"velocity":102,"startTime":197.60872199999997,"endTime":197.7717655,"isDrum":true},{"pitch":42,"velocity":102,"startTime":197.93480899999997,"endTime":198.0978525,"isDrum":true},{"pitch":35,"velocity":102,"startTime":198.26089599999997,"endTime":198.4239395,"isDrum":true},{"pitch":42,"velocity":102,"startTime":198.26089599999997,"endTime":198.4239395,"isDrum":true},{"pitch":51,"velocity":102,"startTime":198.26089599999997,"endTime":198.4239395,"isDrum":true},{"pitch":42,"velocity":102,"startTime":198.58698299999998,"endTime":198.7500265,"isDrum":true},{"pitch":40,"velocity":102,"startTime":198.91306999999998,"endTime":199.0761135,"isDrum":true},{"pitch":42,"velocity":102,"startTime":198.91306999999998,"endTime":199.0761135,"isDrum":true},{"pitch":51,"velocity":102,"startTime":198.91306999999998,"endTime":199.0761135,"isDrum":true},{"pitch":42,"velocity":102,"startTime":199.23915699999998,"endTime":199.4022005,"isDrum":true},{"pitch":35,"velocity":102,"startTime":199.56524399999998,"endTime":199.7282875,"isDrum":true},{"pitch":42,"velocity":102,"startTime":199.56524399999998,"endTime":199.7282875,"isDrum":true},{"pitch":51,"velocity":102,"startTime":199.56524399999998,"endTime":199.7282875,"isDrum":true},{"pitch":35,"velocity":102,"startTime":199.89133099999998,"endTime":200.0543745,"isDrum":true},{"pitch":42,"velocity":102,"startTime":199.89133099999998,"endTime":200.0543745,"isDrum":true},{"pitch":40,"velocity":102,"startTime":200.21741799999998,"endTime":200.3804615,"isDrum":true},{"pitch":42,"velocity":102,"startTime":200.21741799999998,"endTime":200.3804615,"isDrum":true},{"pitch":51,"velocity":102,"startTime":200.21741799999998,"endTime":200.3804615,"isDrum":true},{"pitch":42,"velocity":102,"startTime":200.54350499999998,"endTime":200.7065485,"isDrum":true},{"pitch":35,"velocity":102,"startTime":200.86959199999998,"endTime":201.0326355,"isDrum":true},{"pitch":42,"velocity":102,"startTime":200.86959199999998,"endTime":201.0326355,"isDrum":true},{"pitch":51,"velocity":102,"startTime":200.86959199999998,"endTime":201.0326355,"isDrum":true},{"pitch":42,"velocity":102,"startTime":201.19567899999998,"endTime":201.3587225,"isDrum":true},{"pitch":40,"velocity":102,"startTime":201.52176599999999,"endTime":201.68480949999997,"isDrum":true},{"pitch":42,"velocity":102,"startTime":201.52176599999999,"endTime":201.68480949999997,"isDrum":true},{"pitch":51,"velocity":102,"startTime":201.52176599999999,"endTime":201.68480949999997,"isDrum":true},{"pitch":42,"velocity":102,"startTime":201.847853,"endTime":202.01089649999997,"isDrum":true},{"pitch":35,"velocity":102,"startTime":202.17394,"endTime":202.33698349999997,"isDrum":true},{"pitch":42,"velocity":102,"startTime":202.17394,"endTime":202.33698349999997,"isDrum":true},{"pitch":51,"velocity":102,"startTime":202.17394,"endTime":202.33698349999997,"isDrum":true},{"pitch":35,"velocity":102,"startTime":202.500027,"endTime":202.66307049999998,"isDrum":true},{"pitch":42,"velocity":102,"startTime":202.500027,"endTime":202.66307049999998,"isDrum":true},{"pitch":40,"velocity":102,"startTime":202.826114,"endTime":202.98915749999998,"isDrum":true},{"pitch":42,"velocity":102,"startTime":202.826114,"endTime":202.98915749999998,"isDrum":true},{"pitch":51,"velocity":102,"startTime":202.826114,"endTime":202.98915749999998,"isDrum":true},{"pitch":42,"velocity":102,"startTime":203.152201,"endTime":203.31524449999998,"isDrum":true},{"pitch":35,"velocity":102,"startTime":203.478288,"endTime":203.64133149999998,"isDrum":true},{"pitch":42,"velocity":102,"startTime":203.478288,"endTime":203.64133149999998,"isDrum":true},{"pitch":51,"velocity":102,"startTime":203.478288,"endTime":203.64133149999998,"isDrum":true},{"pitch":42,"velocity":102,"startTime":203.804375,"endTime":203.96741849999998,"isDrum":true},{"pitch":40,"velocity":102,"startTime":204.130462,"endTime":204.29350549999998,"isDrum":true},{"pitch":42,"velocity":102,"startTime":204.130462,"endTime":204.29350549999998,"isDrum":true},{"pitch":51,"velocity":102,"startTime":204.130462,"endTime":204.29350549999998,"isDrum":true},{"pitch":42,"velocity":102,"startTime":204.456549,"endTime":204.61959249999998,"isDrum":true},{"pitch":35,"velocity":102,"startTime":204.782636,"endTime":204.94567949999998,"isDrum":true},{"pitch":42,"velocity":102,"startTime":204.782636,"endTime":204.94567949999998,"isDrum":true},{"pitch":51,"velocity":102,"startTime":204.782636,"endTime":204.94567949999998,"isDrum":true},{"pitch":35,"velocity":102,"startTime":205.108723,"endTime":205.27176649999998,"isDrum":true},{"pitch":42,"velocity":102,"startTime":205.108723,"endTime":205.27176649999998,"isDrum":true},{"pitch":40,"velocity":102,"startTime":205.43480999999997,"endTime":205.59785349999999,"isDrum":true},{"pitch":42,"velocity":102,"startTime":205.43480999999997,"endTime":205.59785349999999,"isDrum":true},{"pitch":48,"velocity":102,"startTime":205.43480999999997,"endTime":205.59785349999999,"isDrum":true},{"pitch":35,"velocity":102,"startTime":205.76089699999997,"endTime":205.9239405,"isDrum":true},{"pitch":42,"velocity":102,"startTime":205.76089699999997,"endTime":205.9239405,"isDrum":true},{"pitch":35,"velocity":102,"startTime":206.08698399999997,"endTime":206.2500275,"isDrum":true},{"pitch":42,"velocity":102,"startTime":206.08698399999997,"endTime":206.2500275,"isDrum":true},{"pitch":51,"velocity":102,"startTime":206.08698399999997,"endTime":206.2500275,"isDrum":true},{"pitch":42,"velocity":102,"startTime":206.41307099999997,"endTime":206.5761145,"isDrum":true},{"pitch":40,"velocity":102,"startTime":206.73915799999997,"endTime":206.9022015,"isDrum":true},{"pitch":42,"velocity":102,"startTime":206.73915799999997,"endTime":206.9022015,"isDrum":true},{"pitch":51,"velocity":102,"startTime":206.73915799999997,"endTime":206.9022015,"isDrum":true},{"pitch":42,"velocity":102,"startTime":207.06524499999998,"endTime":207.2282885,"isDrum":true},{"pitch":35,"velocity":102,"startTime":207.39133199999998,"endTime":207.5543755,"isDrum":true},{"pitch":42,"velocity":102,"startTime":207.39133199999998,"endTime":207.5543755,"isDrum":true},{"pitch":51,"velocity":102,"startTime":207.39133199999998,"endTime":207.5543755,"isDrum":true},{"pitch":35,"velocity":102,"startTime":207.71741899999998,"endTime":207.8804625,"isDrum":true},{"pitch":42,"velocity":102,"startTime":207.71741899999998,"endTime":207.8804625,"isDrum":true},{"pitch":40,"velocity":102,"startTime":208.04350599999998,"endTime":208.2065495,"isDrum":true},{"pitch":42,"velocity":102,"startTime":208.04350599999998,"endTime":208.2065495,"isDrum":true},{"pitch":42,"velocity":102,"startTime":208.36959299999998,"endTime":208.5326365,"isDrum":true},{"pitch":67,"velocity":95,"startTime":187.826112,"endTime":187.93480766666664,"instrument":1,"program":12},{"pitch":70,"velocity":95,"startTime":187.98915549999998,"endTime":188.09785116666666,"instrument":1,"program":12},{"pitch":67,"velocity":95,"startTime":188.152199,"endTime":188.26089466666664,"instrument":1,"program":12},{"pitch":70,"velocity":95,"startTime":188.31524249999998,"endTime":188.36959033333332,"instrument":1,"program":12},{"pitch":67,"velocity":95,"startTime":188.478286,"endTime":188.58698166666665,"instrument":1,"program":12},{"pitch":67,"velocity":95,"startTime":188.64132949999998,"endTime":188.69567733333332,"instrument":1,"program":12},{"pitch":70,"velocity":95,"startTime":188.804373,"endTime":188.91306866666665,"instrument":1,"program":12},{"pitch":67,"velocity":95,"startTime":188.96741649999998,"endTime":189.07611216666666,"instrument":1,"program":12},{"pitch":63,"velocity":95,"startTime":189.13046,"endTime":189.23915566666665,"instrument":1,"program":12},{"pitch":67,"velocity":95,"startTime":189.29350349999999,"endTime":189.40219916666666,"instrument":1,"program":12},{"pitch":70,"velocity":95,"startTime":189.45654699999997,"endTime":189.56524266666665,"instrument":1,"program":12},{"pitch":75,"velocity":95,"startTime":189.6195905,"endTime":189.72828616666666,"instrument":1,"program":12},{"pitch":70,"velocity":95,"startTime":189.78263399999997,"endTime":189.89132966666665,"instrument":1,"program":12},{"pitch":70,"velocity":95,"startTime":189.9456775,"endTime":190.05437316666666,"instrument":1,"program":12},{"pitch":67,"velocity":95,"startTime":190.10872099999997,"endTime":190.21741666666665,"instrument":1,"program":12},{"pitch":70,"velocity":95,"startTime":190.2717645,"endTime":190.38046016666667,"instrument":1,"program":12},{"pitch":62,"velocity":95,"startTime":190.43480799999998,"endTime":190.54350366666665,"instrument":1,"program":12},{"pitch":69,"velocity":95,"startTime":190.5978515,"endTime":190.70654716666664,"instrument":1,"program":12},{"pitch":74,"velocity":95,"startTime":190.76089499999998,"endTime":190.86959066666665,"instrument":1,"program":12},{"pitch":74,"velocity":95,"startTime":190.9239385,"endTime":191.03263416666664,"instrument":1,"program":12},{"pitch":74,"velocity":95,"startTime":191.08698199999998,"endTime":191.19567766666665,"instrument":1,"program":12},{"pitch":69,"velocity":95,"startTime":191.2500255,"endTime":191.35872116666664,"instrument":1,"program":12},{"pitch":74,"velocity":95,"startTime":191.41306899999998,"endTime":191.52176466666666,"instrument":1,"program":12},{"pitch":69,"velocity":95,"startTime":191.5761125,"endTime":191.68480816666664,"instrument":1,"program":12},{"pitch":74,"velocity":95,"startTime":191.73915599999998,"endTime":191.84785166666666,"instrument":1,"program":12},{"pitch":69,"velocity":95,"startTime":191.9021995,"endTime":192.01089516666664,"instrument":1,"program":12},{"pitch":74,"velocity":95,"startTime":192.06524299999998,"endTime":192.17393866666666,"instrument":1,"program":12},{"pitch":74,"velocity":95,"startTime":192.2282865,"endTime":192.33698216666664,"instrument":1,"program":12},{"pitch":69,"velocity":95,"startTime":192.39132999999998,"endTime":192.50002566666666,"instrument":1,"program":12},{"pitch":74,"velocity":95,"startTime":192.5543735,"endTime":192.66306916666665,"instrument":1,"program":12},{"pitch":69,"velocity":95,"startTime":192.71741699999998,"endTime":192.82611266666666,"instrument":1,"program":12},{"pitch":74,"velocity":95,"startTime":192.8804605,"endTime":192.98915616666665,"instrument":1,"program":12},{"pitch":62,"velocity":95,"startTime":193.04350399999998,"endTime":193.15219966666666,"instrument":1,"program":12},{"pitch":69,"velocity":95,"startTime":193.2065475,"endTime":193.31524316666665,"instrument":1,"program":12},{"pitch":72,"velocity":95,"startTime":193.36959099999999,"endTime":193.47828666666666,"instrument":1,"program":12},{"pitch":69,"velocity":95,"startTime":193.53263449999997,"endTime":193.64133016666665,"instrument":1,"program":12},{"pitch":74,"velocity":95,"startTime":193.695678,"endTime":193.80437366666666,"instrument":1,"program":12},{"pitch":69,"velocity":95,"startTime":193.85872149999997,"endTime":193.96741716666665,"instrument":1,"program":12},{"pitch":74,"velocity":95,"startTime":194.021765,"endTime":194.13046066666666,"instrument":1,"program":12},{"pitch":69,"velocity":95,"startTime":194.18480849999997,"endTime":194.29350416666665,"instrument":1,"program":12},{"pitch":74,"velocity":95,"startTime":194.347852,"endTime":194.45654766666667,"instrument":1,"program":12},{"pitch":69,"velocity":95,"startTime":194.51089549999998,"endTime":194.61959116666665,"instrument":1,"program":12},{"pitch":74,"velocity":95,"startTime":194.673939,"endTime":194.78263466666664,"instrument":1,"program":12},{"pitch":69,"velocity":95,"startTime":194.83698249999998,"endTime":194.89133033333331,"instrument":1,"program":12},{"pitch":74,"velocity":95,"startTime":195.000026,"endTime":195.10872166666664,"instrument":1,"program":12},{"pitch":69,"velocity":95,"startTime":195.16306949999998,"endTime":195.27176516666665,"instrument":1,"program":12},{"pitch":65,"velocity":95,"startTime":195.326113,"endTime":195.43480866666664,"instrument":1,"program":12},{"pitch":72,"velocity":95,"startTime":195.48915649999998,"endTime":195.59785216666666,"instrument":1,"program":12},{"pitch":62,"velocity":95,"startTime":195.6522,"endTime":195.81524349999998,"instrument":1,"program":12},{"pitch":65,"velocity":95,"startTime":195.81524349999998,"endTime":195.92393916666666,"instrument":1,"program":12},{"pitch":70,"velocity":95,"startTime":195.978287,"endTime":196.08698266666664,"instrument":1,"program":12},{"pitch":77,"velocity":95,"startTime":196.14133049999998,"endTime":196.25002616666666,"instrument":1,"program":12},{"pitch":70,"velocity":95,"startTime":196.304374,"endTime":196.41306966666664,"instrument":1,"program":12},{"pitch":77,"velocity":95,"startTime":196.46741749999998,"endTime":196.57611316666666,"instrument":1,"program":12},{"pitch":65,"velocity":95,"startTime":196.630461,"endTime":196.73915666666664,"instrument":1,"program":12},{"pitch":70,"velocity":95,"startTime":196.79350449999998,"endTime":196.90220016666666,"instrument":1,"program":12},{"pitch":77,"velocity":95,"startTime":196.956548,"endTime":197.06524366666665,"instrument":1,"program":12},{"pitch":70,"velocity":95,"startTime":197.11959149999998,"endTime":197.22828716666666,"instrument":1,"program":12},{"pitch":65,"velocity":95,"startTime":197.282635,"endTime":197.39133066666665,"instrument":1,"program":12},{"pitch":70,"velocity":95,"startTime":197.44567849999999,"endTime":197.55437416666666,"instrument":1,"program":12},{"pitch":74,"velocity":95,"startTime":197.60872199999997,"endTime":197.71741766666665,"instrument":1,"program":12},{"pitch":70,"velocity":95,"startTime":197.7717655,"endTime":197.88046116666666,"instrument":1,"program":12},{"pitch":65,"velocity":95,"startTime":197.93480899999997,"endTime":198.04350466666665,"instrument":1,"program":12},{"pitch":70,"velocity":95,"startTime":198.0978525,"endTime":198.20654816666666,"instrument":1,"program":12},{"pitch":62,"velocity":95,"startTime":198.26089599999997,"endTime":198.4239395,"instrument":1,"program":12},{"pitch":65,"velocity":95,"startTime":198.4239395,"endTime":198.53263516666667,"instrument":1,"program":12},{"pitch":67,"velocity":95,"startTime":198.58698299999998,"endTime":198.69567866666665,"instrument":1,"program":12},{"pitch":62,"velocity":95,"startTime":198.7500265,"endTime":198.85872216666664,"instrument":1,"program":12},{"pitch":74,"velocity":95,"startTime":198.91306999999998,"endTime":199.02176566666665,"instrument":1,"program":12},{"pitch":67,"velocity":95,"startTime":199.0761135,"endTime":199.18480916666664,"instrument":1,"program":12},{"pitch":65,"velocity":95,"startTime":199.23915699999998,"endTime":199.34785266666665,"instrument":1,"program":12},{"pitch":62,"velocity":95,"startTime":199.4022005,"endTime":199.51089616666664,"instrument":1,"program":12},{"pitch":74,"velocity":95,"startTime":199.56524399999998,"endTime":199.7282875,"instrument":1,"program":12},{"pitch":67,"velocity":95,"startTime":199.7282875,"endTime":199.83698316666664,"instrument":1,"program":12},{"pitch":65,"velocity":95,"startTime":199.89133099999998,"endTime":200.00002666666666,"instrument":1,"program":12},{"pitch":62,"velocity":95,"startTime":200.0543745,"endTime":200.16307016666664,"instrument":1,"program":12},{"pitch":74,"velocity":95,"startTime":200.21741799999998,"endTime":200.32611366666666,"instrument":1,"program":12},{"pitch":67,"velocity":95,"startTime":200.3804615,"endTime":200.48915716666664,"instrument":1,"program":12},{"pitch":67,"velocity":95,"startTime":200.54350499999998,"endTime":200.65220066666666,"instrument":1,"program":12},{"pitch":74,"velocity":95,"startTime":200.7065485,"endTime":200.81524416666664,"instrument":1,"program":12},{"pitch":62,"velocity":95,"startTime":200.86959199999998,"endTime":201.0326355,"instrument":1,"program":12},{"pitch":69,"velocity":95,"startTime":201.0326355,"endTime":201.14133116666665,"instrument":1,"program":12},{"pitch":69,"velocity":95,"startTime":201.19567899999998,"endTime":201.30437466666666,"instrument":1,"program":12},{"pitch":74,"velocity":95,"startTime":201.3587225,"endTime":201.46741816666665,"instrument":1,"program":12},{"pitch":77,"velocity":95,"startTime":201.52176599999999,"endTime":201.63046166666666,"instrument":1,"program":12},{"pitch":69,"velocity":95,"startTime":201.68480949999997,"endTime":201.79350516666665,"instrument":1,"program":12},{"pitch":69,"velocity":95,"startTime":201.847853,"endTime":201.95654866666666,"instrument":1,"program":12},{"pitch":69,"velocity":95,"startTime":202.01089649999997,"endTime":202.11959216666665,"instrument":1,"program":12},{"pitch":62,"velocity":95,"startTime":202.17394,"endTime":202.33698349999997,"instrument":1,"program":12},{"pitch":69,"velocity":95,"startTime":202.33698349999997,"endTime":202.44567916666665,"instrument":1,"program":12},{"pitch":74,"velocity":95,"startTime":202.500027,"endTime":202.60872266666667,"instrument":1,"program":12},{"pitch":69,"velocity":95,"startTime":202.66307049999998,"endTime":202.77176616666665,"instrument":1,"program":12},{"pitch":62,"velocity":95,"startTime":202.826114,"endTime":202.93480966666664,"instrument":1,"program":12},{"pitch":69,"velocity":95,"startTime":202.98915749999998,"endTime":203.09785316666665,"instrument":1,"program":12},{"pitch":65,"velocity":95,"startTime":203.152201,"endTime":203.26089666666664,"instrument":1,"program":12},{"pitch":69,"velocity":95,"startTime":203.31524449999998,"endTime":203.42394016666665,"instrument":1,"program":12},{"pitch":66,"velocity":95,"startTime":203.478288,"endTime":203.64133149999998,"instrument":1,"program":12},{"pitch":66,"velocity":95,"startTime":203.64133149999998,"endTime":203.75002716666665,"instrument":1,"program":12},{"pitch":70,"velocity":95,"startTime":203.804375,"endTime":203.91307066666664,"instrument":1,"program":12},{"pitch":74,"velocity":95,"startTime":203.96741849999998,"endTime":204.07611416666666,"instrument":1,"program":12},{"pitch":78,"velocity":95,"startTime":204.130462,"endTime":204.23915766666664,"instrument":1,"program":12},{"pitch":78,"velocity":95,"startTime":204.29350549999998,"endTime":204.40220116666666,"instrument":1,"program":12},{"pitch":78,"velocity":95,"startTime":204.456549,"endTime":204.56524466666664,"instrument":1,"program":12},{"pitch":70,"velocity":95,"startTime":204.61959249999998,"endTime":204.72828816666666,"instrument":1,"program":12},{"pitch":66,"velocity":95,"startTime":204.782636,"endTime":204.94567949999998,"instrument":1,"program":12},{"pitch":70,"velocity":95,"startTime":204.94567949999998,"endTime":205.05437516666666,"instrument":1,"program":12},{"pitch":66,"velocity":95,"startTime":205.108723,"endTime":205.21741866666665,"instrument":1,"program":12},{"pitch":66,"velocity":95,"startTime":205.27176649999998,"endTime":205.32611433333332,"instrument":1,"program":12},{"pitch":82,"velocity":95,"startTime":205.43480999999997,"endTime":205.54350566666665,"instrument":1,"program":12},{"pitch":74,"velocity":95,"startTime":205.59785349999999,"endTime":205.70654916666666,"instrument":1,"program":12},{"pitch":70,"velocity":95,"startTime":205.76089699999997,"endTime":205.86959266666665,"instrument":1,"program":12},{"pitch":72,"velocity":95,"startTime":205.9239405,"endTime":206.03263616666666,"instrument":1,"program":12},{"pitch":62,"velocity":95,"startTime":206.08698399999997,"endTime":206.2500275,"instrument":1,"program":12},{"pitch":67,"velocity":95,"startTime":206.2500275,"endTime":206.35872316666666,"instrument":1,"program":12},{"pitch":70,"velocity":95,"startTime":206.41307099999997,"endTime":206.52176666666665,"instrument":1,"program":12},{"pitch":67,"velocity":95,"startTime":206.5761145,"endTime":206.63046233333333,"instrument":1,"program":12},{"pitch":70,"velocity":95,"startTime":206.73915799999997,"endTime":206.9022015,"instrument":1,"program":12},{"pitch":67,"velocity":95,"startTime":206.9022015,"endTime":207.01089716666664,"instrument":1,"program":12},{"pitch":70,"velocity":95,"startTime":207.06524499999998,"endTime":207.17394066666665,"instrument":1,"program":12},{"pitch":74,"velocity":95,"startTime":207.2282885,"endTime":207.33698416666664,"instrument":1,"program":12},{"pitch":67,"velocity":95,"startTime":207.39133199999998,"endTime":207.5543755,"instrument":1,"program":12},{"pitch":70,"velocity":95,"startTime":207.5543755,"endTime":207.66307116666664,"instrument":1,"program":12},{"pitch":67,"velocity":95,"startTime":207.71741899999998,"endTime":207.82611466666665,"instrument":1,"program":12},{"pitch":70,"velocity":95,"startTime":207.8804625,"endTime":207.98915816666664,"instrument":1,"program":12},{"pitch":67,"velocity":95,"startTime":208.04350599999998,"endTime":208.15220166666666,"instrument":1,"program":12},{"pitch":70,"velocity":95,"startTime":208.2065495,"endTime":208.31524516666664,"instrument":1,"program":12},{"pitch":67,"velocity":95,"startTime":208.36959299999998,"endTime":208.47828866666666,"instrument":1,"program":12},{"pitch":70,"velocity":95,"startTime":208.5326365,"endTime":208.64133216666664,"instrument":1,"program":12},{"pitch":43,"velocity":110,"startTime":187.826112,"endTime":187.98915549999998,"instrument":2,"program":32},{"pitch":38,"velocity":110,"startTime":190.43480799999998,"endTime":190.5978515,"instrument":2,"program":32},{"pitch":38,"velocity":110,"startTime":190.76089499999998,"endTime":190.9239385,"instrument":2,"program":32},{"pitch":38,"velocity":110,"startTime":191.08698199999998,"endTime":191.2500255,"instrument":2,"program":32},{"pitch":42,"velocity":110,"startTime":191.41306899999998,"endTime":191.5761125,"instrument":2,"program":32},{"pitch":42,"velocity":110,"startTime":191.73915599999998,"endTime":191.9021995,"instrument":2,"program":32},{"pitch":42,"velocity":110,"startTime":192.06524299999998,"endTime":192.2282865,"instrument":2,"program":32},{"pitch":36,"velocity":110,"startTime":192.39132999999998,"endTime":192.5543735,"instrument":2,"program":32},{"pitch":38,"velocity":110,"startTime":192.71741699999998,"endTime":192.8804605,"instrument":2,"program":32},{"pitch":38,"velocity":110,"startTime":193.04350399999998,"endTime":193.75002583333332,"instrument":2,"program":32},{"pitch":40,"velocity":110,"startTime":193.695678,"endTime":193.85872149999997,"instrument":2,"program":32},{"pitch":33,"velocity":110,"startTime":194.021765,"endTime":194.18480849999997,"instrument":2,"program":32},{"pitch":38,"velocity":110,"startTime":194.347852,"endTime":194.51089549999998,"instrument":2,"program":32},{"pitch":45,"velocity":110,"startTime":194.673939,"endTime":194.83698249999998,"instrument":2,"program":32},{"pitch":38,"velocity":110,"startTime":195.000026,"endTime":195.16306949999998,"instrument":2,"program":32},{"pitch":42,"velocity":110,"startTime":195.326113,"endTime":195.48915649999998,"instrument":2,"program":32},{"pitch":43,"velocity":110,"startTime":195.6522,"endTime":195.81524349999998,"instrument":2,"program":32},{"pitch":43,"velocity":110,"startTime":195.978287,"endTime":196.14133049999998,"instrument":2,"program":32},{"pitch":38,"velocity":110,"startTime":196.304374,"endTime":196.46741749999998,"instrument":2,"program":32},{"pitch":38,"velocity":110,"startTime":196.630461,"endTime":196.79350449999998,"instrument":2,"program":32},{"pitch":43,"velocity":110,"startTime":196.956548,"endTime":197.11959149999998,"instrument":2,"program":32},{"pitch":43,"velocity":110,"startTime":197.282635,"endTime":197.44567849999999,"instrument":2,"program":32},{"pitch":41,"velocity":110,"startTime":197.60872199999997,"endTime":197.7717655,"instrument":2,"program":32},{"pitch":38,"velocity":110,"startTime":197.93480899999997,"endTime":198.0978525,"instrument":2,"program":32},{"pitch":31,"velocity":110,"startTime":198.26089599999997,"endTime":198.4239395,"instrument":2,"program":32},{"pitch":31,"velocity":110,"startTime":198.58698299999998,"endTime":198.7500265,"instrument":2,"program":32},{"pitch":31,"velocity":110,"startTime":198.91306999999998,"endTime":199.0761135,"instrument":2,"program":32},{"pitch":31,"velocity":110,"startTime":199.23915699999998,"endTime":199.4022005,"instrument":2,"program":32},{"pitch":31,"velocity":110,"startTime":199.56524399999998,"endTime":199.7282875,"instrument":2,"program":32},{"pitch":31,"velocity":110,"startTime":199.89133099999998,"endTime":200.0543745,"instrument":2,"program":32},{"pitch":31,"velocity":110,"startTime":200.21741799999998,"endTime":200.3804615,"instrument":2,"program":32},{"pitch":43,"velocity":110,"startTime":200.54350499999998,"endTime":200.7065485,"instrument":2,"program":32},{"pitch":38,"velocity":110,"startTime":200.86959199999998,"endTime":201.0326355,"instrument":2,"program":32},{"pitch":38,"velocity":110,"startTime":201.19567899999998,"endTime":201.3587225,"instrument":2,"program":32},{"pitch":30,"velocity":110,"startTime":201.52176599999999,"endTime":201.68480949999997,"instrument":2,"program":32},{"pitch":38,"velocity":110,"startTime":201.847853,"endTime":202.01089649999997,"instrument":2,"program":32},{"pitch":38,"velocity":110,"startTime":202.17394,"endTime":202.33698349999997,"instrument":2,"program":32},{"pitch":38,"velocity":110,"startTime":202.500027,"endTime":202.66307049999998,"instrument":2,"program":32},{"pitch":33,"velocity":110,"startTime":202.826114,"endTime":202.98915749999998,"instrument":2,"program":32},{"pitch":42,"velocity":110,"startTime":203.152201,"endTime":203.31524449999998,"instrument":2,"program":32},{"pitch":50,"velocity":110,"startTime":203.478288,"endTime":203.64133149999998,"instrument":2,"program":32},{"pitch":38,"velocity":110,"startTime":203.804375,"endTime":203.96741849999998,"instrument":2,"program":32},{"pitch":38,"velocity":110,"startTime":204.130462,"endTime":204.29350549999998,"instrument":2,"program":32},{"pitch":45,"velocity":110,"startTime":204.456549,"endTime":204.61959249999998,"instrument":2,"program":32},{"pitch":38,"velocity":110,"startTime":204.782636,"endTime":204.94567949999998,"instrument":2,"program":32},{"pitch":45,"velocity":110,"startTime":205.108723,"endTime":205.27176649999998,"instrument":2,"program":32},{"pitch":38,"velocity":110,"startTime":205.43480999999997,"endTime":205.59785349999999,"instrument":2,"program":32},{"pitch":48,"velocity":110,"startTime":205.76089699999997,"endTime":205.9239405,"instrument":2,"program":32},{"pitch":36,"velocity":110,"startTime":206.08698399999997,"endTime":206.41307099999997,"instrument":2,"program":32},{"pitch":38,"velocity":110,"startTime":206.5761145,"endTime":206.73915799999997,"instrument":2,"program":32},{"pitch":39,"velocity":110,"startTime":206.73915799999997,"endTime":206.9022015,"instrument":2,"program":32},{"pitch":43,"velocity":110,"startTime":207.06524499999998,"endTime":207.2282885,"instrument":2,"program":32},{"pitch":36,"velocity":110,"startTime":207.39133199999998,"endTime":207.5543755,"instrument":2,"program":32},{"pitch":36,"velocity":110,"startTime":207.71741899999998,"endTime":207.8804625,"instrument":2,"program":32},{"pitch":31,"velocity":110,"startTime":208.04350599999998,"endTime":208.2065495,"instrument":2,"program":32},{"pitch":31,"velocity":110,"startTime":208.36959299999998,"endTime":208.5326365,"instrument":2,"program":32},{"pitch":55,"velocity":105,"startTime":187.826112,"endTime":188.96741649999998,"instrument":3,"program":50},{"pitch":58,"velocity":105,"startTime":187.826112,"endTime":188.96741649999998,"instrument":3,"program":50},{"pitch":62,"velocity":105,"startTime":187.826112,"endTime":188.96741649999998,"instrument":3,"program":50},{"pitch":65,"velocity":105,"startTime":187.826112,"endTime":188.96741649999998,"instrument":3,"program":50},{"pitch":58,"velocity":105,"startTime":189.13046,"endTime":189.45654699999997,"instrument":3,"program":50},{"pitch":63,"velocity":105,"startTime":189.13046,"endTime":189.56524266666665,"instrument":3,"program":50},{"pitch":67,"velocity":105,"startTime":189.13046,"endTime":189.5108948333333,"instrument":3,"program":50},{"pitch":55,"velocity":105,"startTime":189.45654699999997,"endTime":189.5108948333333,"instrument":3,"program":50},{"pitch":58,"velocity":105,"startTime":189.45654699999997,"endTime":189.5108948333333,"instrument":3,"program":50},{"pitch":58,"velocity":105,"startTime":189.78263399999997,"endTime":190.32611233333333,"instrument":3,"program":50},{"pitch":62,"velocity":105,"startTime":189.78263399999997,"endTime":190.2717645,"instrument":3,"program":50},{"pitch":63,"velocity":105,"startTime":189.78263399999997,"endTime":190.32611233333333,"instrument":3,"program":50},{"pitch":60,"velocity":105,"startTime":190.43480799999998,"endTime":191.5761125,"instrument":3,"program":50},{"pitch":62,"velocity":105,"startTime":190.43480799999998,"endTime":191.5761125,"instrument":3,"program":50},{"pitch":65,"velocity":105,"startTime":190.43480799999998,"endTime":191.5761125,"instrument":3,"program":50},{"pitch":69,"velocity":105,"startTime":190.43480799999998,"endTime":191.5761125,"instrument":3,"program":50},{"pitch":57,"velocity":105,"startTime":191.5761125,"endTime":193.04350399999998,"instrument":3,"program":50},{"pitch":60,"velocity":105,"startTime":191.5761125,"endTime":193.04350399999998,"instrument":3,"program":50},{"pitch":62,"velocity":105,"startTime":191.5761125,"endTime":193.04350399999998,"instrument":3,"program":50},{"pitch":65,"velocity":105,"startTime":191.5761125,"endTime":193.04350399999998,"instrument":3,"program":50},{"pitch":65,"velocity":105,"startTime":192.06524299999998,"endTime":192.8804605,"instrument":3,"program":50},{"pitch":60,"velocity":105,"startTime":193.04350399999998,"endTime":195.6522,"instrument":3,"program":50},{"pitch":65,"velocity":105,"startTime":193.04350399999998,"endTime":193.9130693333333,"instrument":3,"program":50},{"pitch":72,"velocity":105,"startTime":193.04350399999998,"endTime":195.6522,"instrument":3,"program":50},{"pitch":57,"velocity":105,"startTime":193.2065475,"endTime":195.6522,"instrument":3,"program":50},{"pitch":65,"velocity":105,"startTime":194.021765,"endTime":195.6522,"instrument":3,"program":50},{"pitch":62,"velocity":105,"startTime":195.6522,"endTime":198.26089599999997,"instrument":3,"program":50},{"pitch":65,"velocity":105,"startTime":195.6522,"endTime":198.26089599999997,"instrument":3,"program":50},{"pitch":67,"velocity":105,"startTime":195.6522,"endTime":198.26089599999997,"instrument":3,"program":50},{"pitch":72,"velocity":105,"startTime":195.6522,"endTime":198.26089599999997,"instrument":3,"program":50},{"pitch":58,"velocity":105,"startTime":198.26089599999997,"endTime":200.4348093333333,"instrument":3,"program":50},{"pitch":62,"velocity":105,"startTime":198.26089599999997,"endTime":200.4348093333333,"instrument":3,"program":50},{"pitch":65,"velocity":105,"startTime":198.26089599999997,"endTime":200.4348093333333,"instrument":3,"program":50},{"pitch":67,"velocity":105,"startTime":198.26089599999997,"endTime":200.32611366666666,"instrument":3,"program":50},{"pitch":74,"velocity":105,"startTime":198.58698299999998,"endTime":200.3804615,"instrument":3,"program":50},{"pitch":79,"velocity":105,"startTime":198.6413308333333,"endTime":200.3804615,"instrument":3,"program":50},{"pitch":62,"velocity":105,"startTime":200.86959199999998,"endTime":202.01089649999997,"instrument":3,"program":50},{"pitch":66,"velocity":105,"startTime":200.86959199999998,"endTime":201.95654866666666,"instrument":3,"program":50},{"pitch":70,"velocity":105,"startTime":200.86959199999998,"endTime":202.01089649999997,"instrument":3,"program":50},{"pitch":74,"velocity":105,"startTime":200.86959199999998,"endTime":202.01089649999997,"instrument":3,"program":50},{"pitch":66,"velocity":105,"startTime":202.01089649999997,"endTime":202.17394,"instrument":3,"program":50},{"pitch":60,"velocity":105,"startTime":202.17394,"endTime":203.31524449999998,"instrument":3,"program":50},{"pitch":62,"velocity":105,"startTime":202.17394,"endTime":203.36959233333332,"instrument":3,"program":50},{"pitch":66,"velocity":105,"startTime":202.17394,"endTime":203.36959233333332,"instrument":3,"program":50},{"pitch":69,"velocity":105,"startTime":202.17394,"endTime":203.42394016666665,"instrument":3,"program":50},{"pitch":72,"velocity":105,"startTime":203.152201,"endTime":203.42394016666665,"instrument":3,"program":50},{"pitch":60,"velocity":105,"startTime":203.478288,"endTime":204.782636,"instrument":3,"program":50},{"pitch":66,"velocity":105,"startTime":203.478288,"endTime":204.782636,"instrument":3,"program":50},{"pitch":70,"velocity":105,"startTime":203.478288,"endTime":204.782636,"instrument":3,"program":50},{"pitch":77,"velocity":105,"startTime":203.478288,"endTime":204.782636,"instrument":3,"program":50},{"pitch":60,"velocity":105,"startTime":204.782636,"endTime":206.08698399999997,"instrument":3,"program":50},{"pitch":66,"velocity":105,"startTime":204.782636,"endTime":206.08698399999997,"instrument":3,"program":50},{"pitch":69,"velocity":105,"startTime":204.782636,"endTime":206.08698399999997,"instrument":3,"program":50},{"pitch":77,"velocity":105,"startTime":204.782636,"endTime":205.27176649999998,"instrument":3,"program":50},{"pitch":58,"velocity":105,"startTime":206.08698399999997,"endTime":207.60872333333333,"instrument":3,"program":50},{"pitch":60,"velocity":105,"startTime":206.08698399999997,"endTime":207.2282885,"instrument":3,"program":50},{"pitch":62,"velocity":105,"startTime":206.08698399999997,"endTime":208.69567999999998,"instrument":3,"program":50},{"pitch":66,"velocity":105,"startTime":206.08698399999997,"endTime":208.69567999999998,"instrument":3,"program":50},{"pitch":62,"velocity":105,"startTime":207.06524499999998,"endTime":207.2282885,"instrument":3,"program":50},{"pitch":60,"velocity":105,"startTime":207.39133199999998,"endTime":208.2065495,"instrument":3,"program":50},{"pitch":58,"velocity":105,"startTime":207.71741899999998,"endTime":208.04350599999998,"instrument":3,"program":50},{"pitch":58,"velocity":105,"startTime":208.04350599999998,"endTime":208.2065495,"instrument":3,"program":50},{"pitch":58,"velocity":105,"startTime":208.2065495,"endTime":208.69567999999998,"instrument":3,"program":50},{"pitch":60,"velocity":105,"startTime":208.5326365,"endTime":208.69567999999998,"instrument":3,"program":50},{"pitch":35,"velocity":102,"startTime":208.69567999999998,"endTime":208.8587235,"isDrum":true},{"pitch":42,"velocity":102,"startTime":208.69567999999998,"endTime":208.8587235,"isDrum":true},{"pitch":42,"velocity":102,"startTime":209.02176699999998,"endTime":209.1848105,"isDrum":true},{"pitch":39,"velocity":102,"startTime":209.34785399999998,"endTime":209.51089749999997,"isDrum":true},{"pitch":40,"velocity":102,"startTime":209.34785399999998,"endTime":209.51089749999997,"isDrum":true},{"pitch":42,"velocity":102,"startTime":209.34785399999998,"endTime":209.51089749999997,"isDrum":true},{"pitch":35,"velocity":102,"startTime":209.67394099999999,"endTime":209.83698449999997,"isDrum":true},{"pitch":42,"velocity":102,"startTime":209.67394099999999,"endTime":209.83698449999997,"isDrum":true},{"pitch":35,"velocity":102,"startTime":210.000028,"endTime":210.16307149999997,"isDrum":true},{"pitch":42,"velocity":102,"startTime":210.000028,"endTime":210.16307149999997,"isDrum":true},{"pitch":42,"velocity":102,"startTime":210.326115,"endTime":210.48915849999997,"isDrum":true},{"pitch":40,"velocity":102,"startTime":210.652202,"endTime":210.81524549999997,"isDrum":true},{"pitch":42,"velocity":102,"startTime":210.652202,"endTime":210.81524549999997,"isDrum":true},{"pitch":42,"velocity":102,"startTime":210.978289,"endTime":211.14133249999998,"isDrum":true},{"pitch":35,"velocity":102,"startTime":211.304376,"endTime":211.46741949999998,"isDrum":true},{"pitch":42,"velocity":102,"startTime":211.304376,"endTime":211.46741949999998,"isDrum":true},{"pitch":42,"velocity":102,"startTime":211.630463,"endTime":211.79350649999998,"isDrum":true},{"pitch":40,"velocity":102,"startTime":211.95655,"endTime":212.11959349999998,"isDrum":true},{"pitch":42,"velocity":102,"startTime":211.95655,"endTime":212.11959349999998,"isDrum":true},{"pitch":42,"velocity":102,"startTime":212.282637,"endTime":212.44568049999998,"isDrum":true},{"pitch":35,"velocity":102,"startTime":212.608724,"endTime":212.77176749999998,"isDrum":true},{"pitch":42,"velocity":102,"startTime":212.608724,"endTime":212.77176749999998,"isDrum":true},{"pitch":42,"velocity":102,"startTime":212.934811,"endTime":213.09785449999998,"isDrum":true},{"pitch":40,"velocity":102,"startTime":213.260898,"endTime":213.42394149999998,"isDrum":true},{"pitch":42,"velocity":102,"startTime":213.260898,"endTime":213.42394149999998,"isDrum":true},{"pitch":42,"velocity":102,"startTime":213.58698499999997,"endTime":213.75002849999998,"isDrum":true},{"pitch":35,"velocity":102,"startTime":213.91307199999997,"endTime":214.0761155,"isDrum":true},{"pitch":42,"velocity":102,"startTime":213.91307199999997,"endTime":214.0761155,"isDrum":true},{"pitch":42,"velocity":102,"startTime":214.23915899999997,"endTime":214.4022025,"isDrum":true},{"pitch":40,"velocity":102,"startTime":214.56524599999997,"endTime":214.7282895,"isDrum":true},{"pitch":42,"velocity":102,"startTime":214.56524599999997,"endTime":214.7282895,"isDrum":true},{"pitch":42,"velocity":102,"startTime":214.89133299999997,"endTime":215.0543765,"isDrum":true},{"pitch":35,"velocity":102,"startTime":215.21741999999998,"endTime":215.3804635,"isDrum":true},{"pitch":42,"velocity":102,"startTime":215.21741999999998,"endTime":215.3804635,"isDrum":true},{"pitch":42,"velocity":102,"startTime":215.54350699999998,"endTime":215.7065505,"isDrum":true},{"pitch":40,"velocity":102,"startTime":215.86959399999998,"endTime":216.0326375,"isDrum":true},{"pitch":42,"velocity":102,"startTime":215.86959399999998,"endTime":216.0326375,"isDrum":true},{"pitch":42,"velocity":102,"startTime":216.19568099999998,"endTime":216.3587245,"isDrum":true},{"pitch":35,"velocity":102,"startTime":216.52176799999998,"endTime":216.6848115,"isDrum":true},{"pitch":42,"velocity":102,"startTime":216.52176799999998,"endTime":216.6848115,"isDrum":true},{"pitch":42,"velocity":102,"startTime":216.84785499999998,"endTime":217.0108985,"isDrum":true},{"pitch":40,"velocity":102,"startTime":217.17394199999998,"endTime":217.3369855,"isDrum":true},{"pitch":42,"velocity":102,"startTime":217.17394199999998,"endTime":217.3369855,"isDrum":true},{"pitch":42,"velocity":102,"startTime":217.50002899999998,"endTime":217.66307249999997,"isDrum":true},{"pitch":35,"velocity":102,"startTime":217.82611599999998,"endTime":217.98915949999997,"isDrum":true},{"pitch":42,"velocity":102,"startTime":217.82611599999998,"endTime":217.98915949999997,"isDrum":true},{"pitch":42,"velocity":102,"startTime":218.152203,"endTime":218.31524649999997,"isDrum":true},{"pitch":40,"velocity":102,"startTime":218.47829,"endTime":218.64133349999997,"isDrum":true},{"pitch":42,"velocity":102,"startTime":218.47829,"endTime":218.64133349999997,"isDrum":true},{"pitch":42,"velocity":102,"startTime":218.804377,"endTime":218.96742049999997,"isDrum":true},{"pitch":35,"velocity":102,"startTime":219.130464,"endTime":219.29350749999998,"isDrum":true},{"pitch":42,"velocity":102,"startTime":219.130464,"endTime":219.29350749999998,"isDrum":true},{"pitch":42,"velocity":102,"startTime":219.456551,"endTime":219.61959449999998,"isDrum":true},{"pitch":40,"velocity":102,"startTime":219.782638,"endTime":219.94568149999998,"isDrum":true},{"pitch":42,"velocity":102,"startTime":219.782638,"endTime":219.94568149999998,"isDrum":true},{"pitch":42,"velocity":102,"startTime":220.108725,"endTime":220.27176849999998,"isDrum":true},{"pitch":35,"velocity":102,"startTime":220.434812,"endTime":220.59785549999998,"isDrum":true},{"pitch":42,"velocity":102,"startTime":220.434812,"endTime":220.59785549999998,"isDrum":true},{"pitch":42,"velocity":102,"startTime":220.760899,"endTime":220.92394249999998,"isDrum":true},{"pitch":40,"velocity":102,"startTime":221.086986,"endTime":221.25002949999998,"isDrum":true},{"pitch":42,"velocity":102,"startTime":221.086986,"endTime":221.25002949999998,"isDrum":true},{"pitch":42,"velocity":102,"startTime":221.413073,"endTime":221.57611649999998,"isDrum":true},{"pitch":35,"velocity":102,"startTime":221.73915999999997,"endTime":221.90220349999998,"isDrum":true},{"pitch":42,"velocity":102,"startTime":221.73915999999997,"endTime":221.90220349999998,"isDrum":true},{"pitch":42,"velocity":102,"startTime":222.06524699999997,"endTime":222.22829049999999,"isDrum":true},{"pitch":40,"velocity":102,"startTime":222.39133399999997,"endTime":222.5543775,"isDrum":true},{"pitch":42,"velocity":102,"startTime":222.39133399999997,"endTime":222.5543775,"isDrum":true},{"pitch":42,"velocity":102,"startTime":222.71742099999997,"endTime":222.8804645,"isDrum":true},{"pitch":35,"velocity":102,"startTime":223.04350799999997,"endTime":223.2065515,"isDrum":true},{"pitch":42,"velocity":102,"startTime":223.04350799999997,"endTime":223.2065515,"isDrum":true},{"pitch":42,"velocity":102,"startTime":223.36959499999998,"endTime":223.5326385,"isDrum":true},{"pitch":40,"velocity":102,"startTime":223.69568199999998,"endTime":223.8587255,"isDrum":true},{"pitch":42,"velocity":102,"startTime":223.69568199999998,"endTime":223.8587255,"isDrum":true},{"pitch":42,"velocity":102,"startTime":224.02176899999998,"endTime":224.1848125,"isDrum":true},{"pitch":35,"velocity":102,"startTime":224.34785599999998,"endTime":224.5108995,"isDrum":true},{"pitch":42,"velocity":102,"startTime":224.34785599999998,"endTime":224.5108995,"isDrum":true},{"pitch":42,"velocity":102,"startTime":224.67394299999998,"endTime":224.8369865,"isDrum":true},{"pitch":40,"velocity":102,"startTime":225.00002999999998,"endTime":225.1630735,"isDrum":true},{"pitch":42,"velocity":102,"startTime":225.00002999999998,"endTime":225.1630735,"isDrum":true},{"pitch":42,"velocity":102,"startTime":225.32611699999998,"endTime":225.4891605,"isDrum":true},{"pitch":35,"velocity":102,"startTime":225.65220399999998,"endTime":225.81524749999997,"isDrum":true},{"pitch":42,"velocity":102,"startTime":225.65220399999998,"endTime":225.81524749999997,"isDrum":true},{"pitch":42,"velocity":102,"startTime":225.97829099999998,"endTime":226.14133449999997,"isDrum":true},{"pitch":40,"velocity":102,"startTime":226.30437799999999,"endTime":226.46742149999997,"isDrum":true},{"pitch":42,"velocity":102,"startTime":226.30437799999999,"endTime":226.46742149999997,"isDrum":true},{"pitch":42,"velocity":102,"startTime":226.630465,"endTime":226.79350849999997,"isDrum":true},{"pitch":35,"velocity":102,"startTime":226.956552,"endTime":227.11959549999997,"isDrum":true},{"pitch":42,"velocity":102,"startTime":226.956552,"endTime":227.11959549999997,"isDrum":true},{"pitch":42,"velocity":102,"startTime":227.282639,"endTime":227.44568249999998,"isDrum":true},{"pitch":40,"velocity":102,"startTime":227.608726,"endTime":227.77176949999998,"isDrum":true},{"pitch":42,"velocity":102,"startTime":227.608726,"endTime":227.77176949999998,"isDrum":true},{"pitch":42,"velocity":102,"startTime":227.934813,"endTime":228.09785649999998,"isDrum":true},{"pitch":35,"velocity":102,"startTime":228.09785649999998,"endTime":228.2609,"isDrum":true},{"pitch":35,"velocity":102,"startTime":228.2609,"endTime":228.42394349999998,"isDrum":true},{"pitch":42,"velocity":102,"startTime":228.2609,"endTime":228.42394349999998,"isDrum":true},{"pitch":42,"velocity":102,"startTime":228.586987,"endTime":228.75003049999998,"isDrum":true},{"pitch":40,"velocity":102,"startTime":228.913074,"endTime":229.07611749999998,"isDrum":true},{"pitch":42,"velocity":102,"startTime":228.913074,"endTime":229.07611749999998,"isDrum":true},{"pitch":42,"velocity":102,"startTime":229.239161,"endTime":229.40220449999998,"isDrum":true},{"pitch":68,"velocity":95,"startTime":208.69567999999998,"endTime":208.8587235,"instrument":1,"program":12},{"pitch":69,"velocity":95,"startTime":208.8587235,"endTime":208.96741916666664,"instrument":1,"program":12},{"pitch":72,"velocity":95,"startTime":209.02176699999998,"endTime":209.13046266666666,"instrument":1,"program":12},{"pitch":69,"velocity":95,"startTime":209.1848105,"endTime":209.2391583333333,"instrument":1,"program":12},{"pitch":74,"velocity":95,"startTime":209.34785399999998,"endTime":209.45654966666666,"instrument":1,"program":12},{"pitch":69,"velocity":95,"startTime":209.51089749999997,"endTime":209.5652453333333,"instrument":1,"program":12},{"pitch":68,"velocity":95,"startTime":209.67394099999999,"endTime":209.78263666666666,"instrument":1,"program":12},{"pitch":69,"velocity":95,"startTime":209.83698449999997,"endTime":209.94568016666665,"instrument":1,"program":12},{"pitch":76,"velocity":95,"startTime":210.000028,"endTime":210.10872366666666,"instrument":1,"program":12},{"pitch":69,"velocity":95,"startTime":210.16307149999997,"endTime":210.27176716666665,"instrument":1,"program":12},{"pitch":74,"velocity":95,"startTime":210.326115,"endTime":210.43481066666666,"instrument":1,"program":12},{"pitch":69,"velocity":95,"startTime":210.48915849999997,"endTime":210.5435063333333,"instrument":1,"program":12},{"pitch":74,"velocity":95,"startTime":210.652202,"endTime":210.76089766666666,"instrument":1,"program":12},{"pitch":69,"velocity":95,"startTime":210.81524549999997,"endTime":210.8695933333333,"instrument":1,"program":12},{"pitch":69,"velocity":95,"startTime":210.978289,"endTime":211.08698466666664,"instrument":1,"program":12},{"pitch":68,"velocity":95,"startTime":211.14133249999998,"endTime":211.25002816666665,"instrument":1,"program":12},{"pitch":72,"velocity":95,"startTime":211.304376,"endTime":211.46741949999998,"instrument":1,"program":12},{"pitch":69,"velocity":95,"startTime":211.46741949999998,"endTime":211.57611516666665,"instrument":1,"program":12},{"pitch":72,"velocity":95,"startTime":211.630463,"endTime":211.73915866666664,"instrument":1,"program":12},{"pitch":69,"velocity":95,"startTime":211.79350649999998,"endTime":211.90220216666665,"instrument":1,"program":12},{"pitch":72,"velocity":95,"startTime":211.95655,"endTime":212.06524566666664,"instrument":1,"program":12},{"pitch":69,"velocity":95,"startTime":212.11959349999998,"endTime":212.22828916666666,"instrument":1,"program":12},{"pitch":72,"velocity":95,"startTime":212.282637,"endTime":212.39133266666664,"instrument":1,"program":12},{"pitch":69,"velocity":95,"startTime":212.44568049999998,"endTime":212.50002833333332,"instrument":1,"program":12},{"pitch":72,"velocity":95,"startTime":212.608724,"endTime":212.71741966666664,"instrument":1,"program":12},{"pitch":69,"velocity":95,"startTime":212.77176749999998,"endTime":212.88046316666666,"instrument":1,"program":12},{"pitch":72,"velocity":95,"startTime":212.934811,"endTime":213.04350666666664,"instrument":1,"program":12},{"pitch":69,"velocity":95,"startTime":213.09785449999998,"endTime":213.20655016666666,"instrument":1,"program":12},{"pitch":72,"velocity":95,"startTime":213.260898,"endTime":213.36959366666665,"instrument":1,"program":12},{"pitch":69,"velocity":95,"startTime":213.42394149999998,"endTime":213.53263716666666,"instrument":1,"program":12},{"pitch":72,"velocity":95,"startTime":213.58698499999997,"endTime":213.6413328333333,"instrument":1,"program":12},{"pitch":69,"velocity":95,"startTime":213.75002849999998,"endTime":213.80437633333332,"instrument":1,"program":12},{"pitch":62,"velocity":95,"startTime":213.91307199999997,"endTime":214.0761155,"instrument":1,"program":12},{"pitch":67,"velocity":95,"startTime":214.0761155,"endTime":214.18481116666666,"instrument":1,"program":12},{"pitch":70,"velocity":95,"startTime":214.23915899999997,"endTime":214.34785466666665,"instrument":1,"program":12},{"pitch":67,"velocity":95,"startTime":214.4022025,"endTime":214.45655033333333,"instrument":1,"program":12},{"pitch":79,"velocity":95,"startTime":214.56524599999997,"endTime":214.67394166666665,"instrument":1,"program":12},{"pitch":70,"velocity":95,"startTime":214.7282895,"endTime":214.78263733333333,"instrument":1,"program":12},{"pitch":67,"velocity":95,"startTime":214.89133299999997,"endTime":214.9456808333333,"instrument":1,"program":12},{"pitch":70,"velocity":95,"startTime":215.0543765,"endTime":215.10872433333333,"instrument":1,"program":12},{"pitch":79,"velocity":95,"startTime":215.21741999999998,"endTime":215.32611566666665,"instrument":1,"program":12},{"pitch":67,"velocity":95,"startTime":215.3804635,"endTime":215.43481133333333,"instrument":1,"program":12},{"pitch":70,"velocity":95,"startTime":215.54350699999998,"endTime":215.65220266666665,"instrument":1,"program":12},{"pitch":67,"velocity":95,"startTime":215.7065505,"endTime":215.81524616666664,"instrument":1,"program":12},{"pitch":70,"velocity":95,"startTime":215.86959399999998,"endTime":215.97828966666665,"instrument":1,"program":12},{"pitch":67,"velocity":95,"startTime":216.0326375,"endTime":216.14133316666664,"instrument":1,"program":12},{"pitch":70,"velocity":95,"startTime":216.19568099999998,"endTime":216.30437666666666,"instrument":1,"program":12},{"pitch":67,"velocity":95,"startTime":216.3587245,"endTime":216.46742016666664,"instrument":1,"program":12},{"pitch":70,"velocity":95,"startTime":216.52176799999998,"endTime":216.6848115,"instrument":1,"program":12},{"pitch":67,"velocity":95,"startTime":216.6848115,"endTime":216.79350716666664,"instrument":1,"program":12},{"pitch":70,"velocity":95,"startTime":216.84785499999998,"endTime":216.95655066666666,"instrument":1,"program":12},{"pitch":74,"velocity":95,"startTime":217.0108985,"endTime":217.0652463333333,"instrument":1,"program":12},{"pitch":79,"velocity":95,"startTime":217.17394199999998,"endTime":217.28263766666666,"instrument":1,"program":12},{"pitch":70,"velocity":95,"startTime":217.3369855,"endTime":217.3913333333333,"instrument":1,"program":12},{"pitch":70,"velocity":95,"startTime":217.50002899999998,"endTime":217.55437683333332,"instrument":1,"program":12},{"pitch":67,"velocity":95,"startTime":217.66307249999997,"endTime":217.7174203333333,"instrument":1,"program":12},{"pitch":70,"velocity":95,"startTime":217.82611599999998,"endTime":217.93481166666666,"instrument":1,"program":12},{"pitch":67,"velocity":95,"startTime":217.98915949999997,"endTime":218.09785516666665,"instrument":1,"program":12},{"pitch":70,"velocity":95,"startTime":218.152203,"endTime":218.20655083333332,"instrument":1,"program":12},{"pitch":74,"velocity":95,"startTime":218.31524649999997,"endTime":218.3695943333333,"instrument":1,"program":12},{"pitch":70,"velocity":95,"startTime":218.47829,"endTime":218.53263783333333,"instrument":1,"program":12},{"pitch":67,"velocity":95,"startTime":218.64133349999997,"endTime":218.6956813333333,"instrument":1,"program":12},{"pitch":70,"velocity":95,"startTime":218.804377,"endTime":218.85872483333333,"instrument":1,"program":12},{"pitch":70,"velocity":95,"startTime":218.96742049999997,"endTime":219.0217683333333,"instrument":1,"program":12},{"pitch":62,"velocity":95,"startTime":219.130464,"endTime":219.29350749999998,"instrument":1,"program":12},{"pitch":69,"velocity":95,"startTime":219.29350749999998,"endTime":219.40220316666665,"instrument":1,"program":12},{"pitch":72,"velocity":95,"startTime":219.456551,"endTime":219.56524666666664,"instrument":1,"program":12},{"pitch":72,"velocity":95,"startTime":219.61959449999998,"endTime":219.67394233333331,"instrument":1,"program":12},{"pitch":69,"velocity":95,"startTime":219.782638,"endTime":219.89133366666664,"instrument":1,"program":12},{"pitch":72,"velocity":95,"startTime":219.94568149999998,"endTime":220.05437716666665,"instrument":1,"program":12},{"pitch":69,"velocity":95,"startTime":220.108725,"endTime":220.21742066666664,"instrument":1,"program":12},{"pitch":72,"velocity":95,"startTime":220.27176849999998,"endTime":220.38046416666666,"instrument":1,"program":12},{"pitch":69,"velocity":95,"startTime":220.434812,"endTime":220.54350766666664,"instrument":1,"program":12},{"pitch":72,"velocity":95,"startTime":220.59785549999998,"endTime":220.70655116666666,"instrument":1,"program":12},{"pitch":72,"velocity":95,"startTime":220.760899,"endTime":220.86959466666664,"instrument":1,"program":12},{"pitch":69,"velocity":95,"startTime":220.92394249999998,"endTime":220.97829033333332,"instrument":1,"program":12},{"pitch":74,"velocity":95,"startTime":221.086986,"endTime":221.19568166666664,"instrument":1,"program":12},{"pitch":69,"velocity":95,"startTime":221.25002949999998,"endTime":221.30437733333332,"instrument":1,"program":12},{"pitch":72,"velocity":95,"startTime":221.413073,"endTime":221.4674208333333,"instrument":1,"program":12},{"pitch":69,"velocity":95,"startTime":221.57611649999998,"endTime":221.63046433333332,"instrument":1,"program":12},{"pitch":69,"velocity":95,"startTime":221.73915999999997,"endTime":221.90220349999998,"instrument":1,"program":12},{"pitch":72,"velocity":95,"startTime":221.90220349999998,"endTime":222.01089916666666,"instrument":1,"program":12},{"pitch":72,"velocity":95,"startTime":222.06524699999997,"endTime":222.1195948333333,"instrument":1,"program":12},{"pitch":69,"velocity":95,"startTime":222.22829049999999,"endTime":222.28263833333332,"instrument":1,"program":12},{"pitch":72,"velocity":95,"startTime":222.39133399999997,"endTime":222.50002966666665,"instrument":1,"program":12},{"pitch":69,"velocity":95,"startTime":222.5543775,"endTime":222.60872533333333,"instrument":1,"program":12},{"pitch":72,"velocity":95,"startTime":222.71742099999997,"endTime":222.7717688333333,"instrument":1,"program":12},{"pitch":69,"velocity":95,"startTime":222.8804645,"endTime":222.93481233333333,"instrument":1,"program":12},{"pitch":74,"velocity":95,"startTime":223.04350799999997,"endTime":223.15220366666665,"instrument":1,"program":12},{"pitch":69,"velocity":95,"startTime":223.2065515,"endTime":223.31524716666664,"instrument":1,"program":12},{"pitch":72,"velocity":95,"startTime":223.36959499999998,"endTime":223.4239428333333,"instrument":1,"program":12},{"pitch":69,"velocity":95,"startTime":223.5326385,"endTime":223.58698633333333,"instrument":1,"program":12},{"pitch":72,"velocity":95,"startTime":223.69568199999998,"endTime":223.80437766666665,"instrument":1,"program":12},{"pitch":69,"velocity":95,"startTime":223.8587255,"endTime":223.96742116666664,"instrument":1,"program":12},{"pitch":72,"velocity":95,"startTime":224.02176899999998,"endTime":224.13046466666665,"instrument":1,"program":12},{"pitch":72,"velocity":95,"startTime":224.1848125,"endTime":224.29350816666664,"instrument":1,"program":12},{"pitch":70,"velocity":95,"startTime":224.34785599999998,"endTime":224.5108995,"instrument":1,"program":12},{"pitch":67,"velocity":95,"startTime":224.5108995,"endTime":224.61959516666664,"instrument":1,"program":12},{"pitch":70,"velocity":95,"startTime":224.67394299999998,"endTime":224.78263866666666,"instrument":1,"program":12},{"pitch":67,"velocity":95,"startTime":224.8369865,"endTime":224.8913343333333,"instrument":1,"program":12},{"pitch":70,"velocity":95,"startTime":225.00002999999998,"endTime":225.10872566666666,"instrument":1,"program":12},{"pitch":67,"velocity":95,"startTime":225.1630735,"endTime":225.27176916666664,"instrument":1,"program":12},{"pitch":70,"velocity":95,"startTime":225.32611699999998,"endTime":225.43481266666666,"instrument":1,"program":12},{"pitch":70,"velocity":95,"startTime":225.4891605,"endTime":225.59785616666665,"instrument":1,"program":12},{"pitch":74,"velocity":95,"startTime":225.65220399999998,"endTime":225.76089966666666,"instrument":1,"program":12},{"pitch":67,"velocity":95,"startTime":225.81524749999997,"endTime":225.8695953333333,"instrument":1,"program":12},{"pitch":70,"velocity":95,"startTime":225.97829099999998,"endTime":226.03263883333332,"instrument":1,"program":12},{"pitch":70,"velocity":95,"startTime":226.14133449999997,"endTime":226.1956823333333,"instrument":1,"program":12},{"pitch":67,"velocity":95,"startTime":226.30437799999999,"endTime":226.41307366666666,"instrument":1,"program":12},{"pitch":70,"velocity":95,"startTime":226.46742149999997,"endTime":226.5217693333333,"instrument":1,"program":12},{"pitch":67,"velocity":95,"startTime":226.630465,"endTime":226.68481283333332,"instrument":1,"program":12},{"pitch":70,"velocity":95,"startTime":226.79350849999997,"endTime":226.8478563333333,"instrument":1,"program":12},{"pitch":67,"velocity":95,"startTime":226.956552,"endTime":227.11959549999997,"instrument":1,"program":12},{"pitch":62,"velocity":95,"startTime":227.11959549999997,"endTime":227.22829116666665,"instrument":1,"program":12},{"pitch":65,"velocity":95,"startTime":227.282639,"endTime":227.39133466666664,"instrument":1,"program":12},{"pitch":67,"velocity":95,"startTime":227.44568249999998,"endTime":227.55437816666665,"instrument":1,"program":12},{"pitch":74,"velocity":95,"startTime":227.608726,"endTime":227.71742166666664,"instrument":1,"program":12},{"pitch":67,"velocity":95,"startTime":227.77176949999998,"endTime":227.88046516666665,"instrument":1,"program":12},{"pitch":65,"velocity":95,"startTime":227.934813,"endTime":228.04350866666664,"instrument":1,"program":12},{"pitch":70,"velocity":95,"startTime":228.09785649999998,"endTime":228.15220433333332,"instrument":1,"program":12},{"pitch":67,"velocity":95,"startTime":228.2609,"endTime":228.36959566666664,"instrument":1,"program":12},{"pitch":70,"velocity":95,"startTime":228.42394349999998,"endTime":228.53263916666666,"instrument":1,"program":12},{"pitch":74,"velocity":95,"startTime":228.586987,"endTime":228.69568266666664,"instrument":1,"program":12},{"pitch":65,"velocity":95,"startTime":228.75003049999998,"endTime":228.80437833333332,"instrument":1,"program":12},{"pitch":62,"velocity":95,"startTime":228.913074,"endTime":229.02176966666664,"instrument":1,"program":12},{"pitch":70,"velocity":95,"startTime":229.07611749999998,"endTime":229.18481316666666,"instrument":1,"program":12},{"pitch":65,"velocity":95,"startTime":229.239161,"endTime":229.34785666666664,"instrument":1,"program":12},{"pitch":67,"velocity":95,"startTime":229.40220449999998,"endTime":229.45655233333332,"instrument":1,"program":12},{"pitch":38,"velocity":110,"startTime":208.69567999999998,"endTime":209.02176699999998,"instrument":2,"program":32},{"pitch":42,"velocity":110,"startTime":209.1848105,"endTime":209.34785399999998,"instrument":2,"program":32},{"pitch":38,"velocity":110,"startTime":209.51089749999997,"endTime":209.67394099999999,"instrument":2,"program":32},{"pitch":38,"velocity":110,"startTime":209.67394099999999,"endTime":209.83698449999997,"instrument":2,"program":32},{"pitch":33,"velocity":110,"startTime":210.000028,"endTime":210.16307149999997,"instrument":2,"program":32},{"pitch":33,"velocity":110,"startTime":210.326115,"endTime":210.48915849999997,"instrument":2,"program":32},{"pitch":33,"velocity":110,"startTime":210.652202,"endTime":210.81524549999997,"instrument":2,"program":32},{"pitch":38,"velocity":110,"startTime":211.14133249999998,"endTime":211.304376,"instrument":2,"program":32},{"pitch":38,"velocity":110,"startTime":211.46741949999998,"endTime":211.630463,"instrument":2,"program":32},{"pitch":35,"velocity":110,"startTime":211.79350649999998,"endTime":211.95655,"instrument":2,"program":32},{"pitch":30,"velocity":110,"startTime":212.11959349999998,"endTime":212.282637,"instrument":2,"program":32},{"pitch":38,"velocity":110,"startTime":212.282637,"endTime":212.44568049999998,"instrument":2,"program":32},{"pitch":38,"velocity":110,"startTime":212.608724,"endTime":212.77176749999998,"instrument":2,"program":32},{"pitch":45,"velocity":110,"startTime":212.934811,"endTime":213.09785449999998,"instrument":2,"program":32},{"pitch":42,"velocity":110,"startTime":213.260898,"endTime":213.42394149999998,"instrument":2,"program":32},{"pitch":42,"velocity":110,"startTime":213.58698499999997,"endTime":213.75002849999998,"instrument":2,"program":32},{"pitch":31,"velocity":110,"startTime":213.91307199999997,"endTime":214.23915899999997,"instrument":2,"program":32},{"pitch":31,"velocity":110,"startTime":214.4022025,"endTime":214.56524599999997,"instrument":2,"program":32},{"pitch":34,"velocity":110,"startTime":214.7282895,"endTime":214.89133299999997,"instrument":2,"program":32},{"pitch":38,"velocity":110,"startTime":214.89133299999997,"endTime":215.0543765,"instrument":2,"program":32},{"pitch":34,"velocity":110,"startTime":215.21741999999998,"endTime":215.3804635,"instrument":2,"program":32},{"pitch":34,"velocity":110,"startTime":215.3804635,"endTime":215.54350699999998,"instrument":2,"program":32},{"pitch":34,"velocity":110,"startTime":215.7065505,"endTime":215.86959399999998,"instrument":2,"program":32},{"pitch":34,"velocity":110,"startTime":216.0326375,"endTime":216.19568099999998,"instrument":2,"program":32},{"pitch":38,"velocity":110,"startTime":216.19568099999998,"endTime":216.3587245,"instrument":2,"program":32},{"pitch":31,"velocity":110,"startTime":216.52176799999998,"endTime":216.84785499999998,"instrument":2,"program":32},{"pitch":31,"velocity":110,"startTime":217.0108985,"endTime":217.17394199999998,"instrument":2,"program":32},{"pitch":38,"velocity":110,"startTime":217.3369855,"endTime":217.50002899999998,"instrument":2,"program":32},{"pitch":50,"velocity":110,"startTime":217.50002899999998,"endTime":217.66307249999997,"instrument":2,"program":32},{"pitch":43,"velocity":110,"startTime":217.82611599999998,"endTime":218.152203,"instrument":2,"program":32},{"pitch":38,"velocity":110,"startTime":218.31524649999997,"endTime":218.47829,"instrument":2,"program":32},{"pitch":38,"velocity":110,"startTime":218.64133349999997,"endTime":218.804377,"instrument":2,"program":32},{"pitch":34,"velocity":110,"startTime":218.804377,"endTime":218.96742049999997,"instrument":2,"program":32},{"pitch":38,"velocity":110,"startTime":219.130464,"endTime":219.456551,"instrument":2,"program":32},{"pitch":50,"velocity":110,"startTime":219.61959449999998,"endTime":219.782638,"instrument":2,"program":32},{"pitch":50,"velocity":110,"startTime":219.94568149999998,"endTime":220.108725,"instrument":2,"program":32},{"pitch":38,"velocity":110,"startTime":220.108725,"endTime":220.27176849999998,"instrument":2,"program":32},{"pitch":38,"velocity":110,"startTime":220.434812,"endTime":220.59785549999998,"instrument":2,"program":32},{"pitch":38,"velocity":110,"startTime":220.760899,"endTime":220.92394249999998,"instrument":2,"program":32},{"pitch":38,"velocity":110,"startTime":221.086986,"endTime":221.25002949999998,"instrument":2,"program":32},{"pitch":50,"velocity":110,"startTime":221.413073,"endTime":221.57611649999998,"instrument":2,"program":32},{"pitch":38,"velocity":110,"startTime":221.73915999999997,"endTime":222.06524699999997,"instrument":2,"program":32},{"pitch":38,"velocity":110,"startTime":222.22829049999999,"endTime":222.39133399999997,"instrument":2,"program":32},{"pitch":38,"velocity":110,"startTime":222.5543775,"endTime":222.71742099999997,"instrument":2,"program":32},{"pitch":38,"velocity":110,"startTime":222.71742099999997,"endTime":222.8804645,"instrument":2,"program":32},{"pitch":38,"velocity":110,"startTime":223.04350799999997,"endTime":223.2065515,"instrument":2,"program":32},{"pitch":38,"velocity":110,"startTime":223.36959499999998,"endTime":223.5326385,"instrument":2,"program":32},{"pitch":38,"velocity":110,"startTime":223.69568199999998,"endTime":223.8587255,"instrument":2,"program":32},{"pitch":38,"velocity":110,"startTime":224.02176899999998,"endTime":224.1848125,"instrument":2,"program":32},{"pitch":31,"velocity":110,"startTime":224.34785599999998,"endTime":224.67394299999998,"instrument":2,"program":32},{"pitch":31,"velocity":110,"startTime":224.8369865,"endTime":225.00002999999998,"instrument":2,"program":32},{"pitch":31,"velocity":110,"startTime":225.1630735,"endTime":225.32611699999998,"instrument":2,"program":32},{"pitch":34,"velocity":110,"startTime":225.32611699999998,"endTime":225.4891605,"instrument":2,"program":32},{"pitch":31,"velocity":110,"startTime":225.65220399999998,"endTime":225.81524749999997,"instrument":2,"program":32},{"pitch":31,"velocity":110,"startTime":225.97829099999998,"endTime":226.14133449999997,"instrument":2,"program":32},{"pitch":31,"velocity":110,"startTime":226.30437799999999,"endTime":226.46742149999997,"instrument":2,"program":32},{"pitch":31,"velocity":110,"startTime":226.630465,"endTime":226.79350849999997,"instrument":2,"program":32},{"pitch":31,"velocity":110,"startTime":226.956552,"endTime":227.282639,"instrument":2,"program":32},{"pitch":31,"velocity":110,"startTime":227.44568249999998,"endTime":227.608726,"instrument":2,"program":32},{"pitch":31,"velocity":110,"startTime":227.77176949999998,"endTime":227.934813,"instrument":2,"program":32},{"pitch":31,"velocity":110,"startTime":227.934813,"endTime":228.09785649999998,"instrument":2,"program":32},{"pitch":34,"velocity":110,"startTime":228.2609,"endTime":228.42394349999998,"instrument":2,"program":32},{"pitch":31,"velocity":110,"startTime":228.586987,"endTime":228.75003049999998,"instrument":2,"program":32},{"pitch":31,"velocity":110,"startTime":228.913074,"endTime":229.07611749999998,"instrument":2,"program":32},{"pitch":29,"velocity":110,"startTime":229.239161,"endTime":229.40220449999998,"instrument":2,"program":32},{"pitch":58,"velocity":105,"startTime":208.69567999999998,"endTime":211.304376,"instrument":3,"program":50},{"pitch":60,"velocity":105,"startTime":208.69567999999998,"endTime":211.304376,"instrument":3,"program":50},{"pitch":64,"velocity":105,"startTime":208.69567999999998,"endTime":211.304376,"instrument":3,"program":50},{"pitch":66,"velocity":105,"startTime":208.69567999999998,"endTime":211.304376,"instrument":3,"program":50},{"pitch":58,"velocity":105,"startTime":211.304376,"endTime":211.79350649999998,"instrument":3,"program":50},{"pitch":62,"velocity":105,"startTime":211.304376,"endTime":211.84785433333332,"instrument":3,"program":50},{"pitch":66,"velocity":105,"startTime":211.304376,"endTime":212.44568049999998,"instrument":3,"program":50},{"pitch":69,"velocity":105,"startTime":211.304376,"endTime":211.84785433333332,"instrument":3,"program":50},{"pitch":54,"velocity":105,"startTime":211.630463,"endTime":211.84785433333332,"instrument":3,"program":50},{"pitch":57,"velocity":105,"startTime":211.95655,"endTime":213.80437633333332,"instrument":3,"program":50},{"pitch":60,"velocity":105,"startTime":211.95655,"endTime":212.50002833333332,"instrument":3,"program":50},{"pitch":66,"velocity":105,"startTime":212.50002833333332,"endTime":213.75002849999998,"instrument":3,"program":50},{"pitch":72,"velocity":105,"startTime":212.608724,"endTime":213.75002849999998,"instrument":3,"program":50},{"pitch":69,"velocity":105,"startTime":212.6630718333333,"endTime":212.82611533333332,"instrument":3,"program":50},{"pitch":68,"velocity":105,"startTime":212.934811,"endTime":213.80437633333332,"instrument":3,"program":50},{"pitch":62,"velocity":105,"startTime":213.91307199999997,"endTime":216.52176799999998,"instrument":3,"program":50},{"pitch":67,"velocity":105,"startTime":213.91307199999997,"endTime":216.52176799999998,"instrument":3,"program":50},{"pitch":70,"velocity":105,"startTime":213.91307199999997,"endTime":216.52176799999998,"instrument":3,"program":50},{"pitch":74,"velocity":105,"startTime":213.91307199999997,"endTime":216.52176799999998,"instrument":3,"program":50},{"pitch":62,"velocity":105,"startTime":216.52176799999998,"endTime":218.0435073333333,"instrument":3,"program":50},{"pitch":65,"velocity":105,"startTime":216.52176799999998,"endTime":218.26089866666666,"instrument":3,"program":50},{"pitch":67,"velocity":105,"startTime":216.52176799999998,"endTime":218.91307266666664,"instrument":3,"program":50},{"pitch":70,"velocity":105,"startTime":216.52176799999998,"endTime":218.96742049999997,"instrument":3,"program":50},{"pitch":62,"velocity":105,"startTime":218.31524649999997,"endTime":218.47829,"instrument":3,"program":50},{"pitch":55,"velocity":105,"startTime":218.47829,"endTime":218.96742049999997,"instrument":3,"program":50},{"pitch":62,"velocity":105,"startTime":218.804377,"endTime":218.96742049999997,"instrument":3,"program":50},{"pitch":60,"velocity":105,"startTime":219.130464,"endTime":221.73915999999997,"instrument":3,"program":50},{"pitch":62,"velocity":105,"startTime":219.130464,"endTime":221.73915999999997,"instrument":3,"program":50},{"pitch":66,"velocity":105,"startTime":219.130464,"endTime":221.73915999999997,"instrument":3,"program":50},{"pitch":69,"velocity":105,"startTime":219.130464,"endTime":221.73915999999997,"instrument":3,"program":50},{"pitch":60,"velocity":105,"startTime":221.73915999999997,"endTime":224.13046466666665,"instrument":3,"program":50},{"pitch":62,"velocity":105,"startTime":221.73915999999997,"endTime":224.1848125,"instrument":3,"program":50},{"pitch":66,"velocity":105,"startTime":221.73915999999997,"endTime":224.1848125,"instrument":3,"program":50},{"pitch":69,"velocity":105,"startTime":221.73915999999997,"endTime":224.1848125,"instrument":3,"program":50},{"pitch":62,"velocity":105,"startTime":224.34785599999998,"endTime":226.68481283333332,"instrument":3,"program":50},{"pitch":67,"velocity":105,"startTime":224.34785599999998,"endTime":226.73916066666666,"instrument":3,"program":50},{"pitch":70,"velocity":105,"startTime":224.34785599999998,"endTime":226.73916066666666,"instrument":3,"program":50},{"pitch":62,"velocity":105,"startTime":227.608726,"endTime":227.71742166666664,"instrument":3,"program":50},{"pitch":67,"velocity":105,"startTime":227.608726,"endTime":227.71742166666664,"instrument":3,"program":50},{"pitch":74,"velocity":105,"startTime":227.608726,"endTime":227.77176949999998,"instrument":3,"program":50},{"pitch":62,"velocity":105,"startTime":227.77176949999998,"endTime":227.98916083333333,"instrument":3,"program":50},{"pitch":67,"velocity":105,"startTime":227.77176949999998,"endTime":227.98916083333333,"instrument":3,"program":50},{"pitch":74,"velocity":105,"startTime":227.77176949999998,"endTime":227.98916083333333,"instrument":3,"program":50},{"pitch":62,"velocity":105,"startTime":228.2609,"endTime":228.586987,"instrument":3,"program":50},{"pitch":67,"velocity":105,"startTime":228.2609,"endTime":228.586987,"instrument":3,"program":50},{"pitch":74,"velocity":105,"startTime":228.2609,"endTime":228.586987,"instrument":3,"program":50},{"pitch":62,"velocity":105,"startTime":228.586987,"endTime":229.45655233333332,"instrument":3,"program":50},{"pitch":67,"velocity":105,"startTime":228.586987,"endTime":229.565248,"instrument":3,"program":50},{"pitch":74,"velocity":105,"startTime":228.586987,"endTime":229.51090016666666,"instrument":3,"program":50},{"pitch":62,"velocity":105,"startTime":229.45655233333332,"endTime":229.565248,"instrument":3,"program":50},{"pitch":35,"velocity":102,"startTime":229.565248,"endTime":229.67394366666664,"isDrum":true},{"pitch":42,"velocity":102,"startTime":229.565248,"endTime":229.67394366666664,"isDrum":true},{"pitch":51,"velocity":102,"startTime":229.565248,"endTime":229.67394366666664,"isDrum":true},{"pitch":42,"velocity":102,"startTime":229.89133499999997,"endTime":230.00003066666665,"isDrum":true},{"pitch":51,"velocity":102,"startTime":229.89133499999997,"endTime":230.00003066666665,"isDrum":true},{"pitch":42,"velocity":102,"startTime":231.19568299999997,"endTime":231.30437866666665,"isDrum":true},{"pitch":51,"velocity":102,"startTime":231.19568299999997,"endTime":231.30437866666665,"isDrum":true},{"pitch":35,"velocity":102,"startTime":231.3587265,"endTime":231.46742216666664,"isDrum":true},{"pitch":51,"velocity":102,"startTime":231.3587265,"endTime":231.46742216666664,"isDrum":true},{"pitch":35,"velocity":102,"startTime":231.52176999999998,"endTime":231.63046566666665,"isDrum":true},{"pitch":42,"velocity":102,"startTime":231.52176999999998,"endTime":231.63046566666665,"isDrum":true},{"pitch":51,"velocity":102,"startTime":231.52176999999998,"endTime":231.63046566666665,"isDrum":true},{"pitch":42,"velocity":102,"startTime":231.84785699999998,"endTime":231.95655266666665,"isDrum":true},{"pitch":51,"velocity":102,"startTime":231.84785699999998,"endTime":231.95655266666665,"isDrum":true},{"pitch":51,"velocity":102,"startTime":232.0109005,"endTime":232.11959616666664,"isDrum":true},{"pitch":40,"velocity":102,"startTime":232.17394399999998,"endTime":232.28263966666665,"isDrum":true},{"pitch":42,"velocity":102,"startTime":232.17394399999998,"endTime":232.28263966666665,"isDrum":true},{"pitch":35,"velocity":102,"startTime":232.50003099999998,"endTime":232.60872666666666,"isDrum":true},{"pitch":42,"velocity":102,"startTime":232.50003099999998,"endTime":232.60872666666666,"isDrum":true},{"pitch":51,"velocity":102,"startTime":232.50003099999998,"endTime":232.60872666666666,"isDrum":true},{"pitch":40,"velocity":102,"startTime":232.6630745,"endTime":232.77177016666664,"isDrum":true},{"pitch":35,"velocity":102,"startTime":232.82611799999998,"endTime":232.93481366666666,"isDrum":true},{"pitch":42,"velocity":102,"startTime":232.82611799999998,"endTime":232.93481366666666,"isDrum":true},{"pitch":51,"velocity":102,"startTime":232.82611799999998,"endTime":232.93481366666666,"isDrum":true},{"pitch":35,"velocity":102,"startTime":233.15220499999998,"endTime":233.26090066666666,"isDrum":true},{"pitch":42,"velocity":102,"startTime":233.15220499999998,"endTime":233.26090066666666,"isDrum":true},{"pitch":51,"velocity":102,"startTime":233.15220499999998,"endTime":233.26090066666666,"isDrum":true},{"pitch":40,"velocity":102,"startTime":233.3152485,"endTime":233.42394416666664,"isDrum":true},{"pitch":40,"velocity":102,"startTime":233.47829199999998,"endTime":233.58698766666666,"isDrum":true},{"pitch":42,"velocity":102,"startTime":233.47829199999998,"endTime":233.58698766666666,"isDrum":true},{"pitch":42,"velocity":102,"startTime":233.80437899999998,"endTime":233.91307466666666,"isDrum":true},{"pitch":51,"velocity":102,"startTime":233.80437899999998,"endTime":233.91307466666666,"isDrum":true},{"pitch":40,"velocity":102,"startTime":233.96742249999997,"endTime":234.07611816666665,"isDrum":true},{"pitch":35,"velocity":102,"startTime":234.13046599999998,"endTime":234.23916166666666,"isDrum":true},{"pitch":42,"velocity":102,"startTime":234.13046599999998,"endTime":234.23916166666666,"isDrum":true},{"pitch":35,"velocity":102,"startTime":234.45655299999999,"endTime":234.56524866666666,"isDrum":true},{"pitch":42,"velocity":102,"startTime":234.45655299999999,"endTime":234.56524866666666,"isDrum":true},{"pitch":51,"velocity":102,"startTime":234.45655299999999,"endTime":234.56524866666666,"isDrum":true},{"pitch":40,"velocity":102,"startTime":234.61959649999997,"endTime":234.72829216666665,"isDrum":true},{"pitch":40,"velocity":102,"startTime":234.78264,"endTime":234.89133566666666,"isDrum":true},{"pitch":42,"velocity":102,"startTime":234.78264,"endTime":234.89133566666666,"isDrum":true},{"pitch":35,"velocity":102,"startTime":235.108727,"endTime":235.21742266666664,"isDrum":true},{"pitch":42,"velocity":102,"startTime":235.108727,"endTime":235.21742266666664,"isDrum":true},{"pitch":51,"velocity":102,"startTime":235.108727,"endTime":235.21742266666664,"isDrum":true},{"pitch":35,"velocity":102,"startTime":235.434814,"endTime":235.54350966666664,"isDrum":true},{"pitch":42,"velocity":102,"startTime":235.434814,"endTime":235.54350966666664,"isDrum":true},{"pitch":51,"velocity":102,"startTime":235.434814,"endTime":235.54350966666664,"isDrum":true},{"pitch":42,"velocity":102,"startTime":235.760901,"endTime":235.86959666666664,"isDrum":true},{"pitch":40,"velocity":102,"startTime":236.086988,"endTime":236.19568366666664,"isDrum":true},{"pitch":42,"velocity":102,"startTime":236.086988,"endTime":236.19568366666664,"isDrum":true},{"pitch":42,"velocity":102,"startTime":236.413075,"endTime":236.52177066666664,"isDrum":true},{"pitch":51,"velocity":102,"startTime":236.413075,"endTime":236.52177066666664,"isDrum":true},{"pitch":35,"velocity":102,"startTime":236.57611849999998,"endTime":236.68481416666665,"isDrum":true},{"pitch":35,"velocity":102,"startTime":236.739162,"endTime":236.84785766666664,"isDrum":true},{"pitch":42,"velocity":102,"startTime":236.739162,"endTime":236.84785766666664,"isDrum":true},{"pitch":51,"velocity":102,"startTime":236.739162,"endTime":236.84785766666664,"isDrum":true},{"pitch":35,"velocity":102,"startTime":237.065249,"endTime":237.17394466666664,"isDrum":true},{"pitch":42,"velocity":102,"startTime":237.065249,"endTime":237.17394466666664,"isDrum":true},{"pitch":51,"velocity":102,"startTime":237.065249,"endTime":237.17394466666664,"isDrum":true},{"pitch":40,"velocity":102,"startTime":237.391336,"endTime":237.50003166666664,"isDrum":true},{"pitch":42,"velocity":102,"startTime":237.391336,"endTime":237.50003166666664,"isDrum":true},{"pitch":35,"velocity":102,"startTime":237.71742299999997,"endTime":237.82611866666664,"isDrum":true},{"pitch":42,"velocity":102,"startTime":237.71742299999997,"endTime":237.82611866666664,"isDrum":true},{"pitch":51,"velocity":102,"startTime":237.71742299999997,"endTime":237.82611866666664,"isDrum":true},{"pitch":35,"velocity":102,"startTime":238.04350999999997,"endTime":238.15220566666665,"isDrum":true},{"pitch":42,"velocity":102,"startTime":238.04350999999997,"endTime":238.15220566666665,"isDrum":true},{"pitch":51,"velocity":102,"startTime":238.04350999999997,"endTime":238.15220566666665,"isDrum":true},{"pitch":42,"velocity":102,"startTime":238.36959699999997,"endTime":238.47829266666665,"isDrum":true},{"pitch":51,"velocity":102,"startTime":238.36959699999997,"endTime":238.47829266666665,"isDrum":true},{"pitch":40,"velocity":102,"startTime":238.69568399999997,"endTime":238.80437966666665,"isDrum":true},{"pitch":42,"velocity":102,"startTime":238.69568399999997,"endTime":238.80437966666665,"isDrum":true},{"pitch":42,"velocity":102,"startTime":239.02177099999997,"endTime":239.13046666666665,"isDrum":true},{"pitch":51,"velocity":102,"startTime":239.02177099999997,"endTime":239.13046666666665,"isDrum":true},{"pitch":35,"velocity":102,"startTime":239.1848145,"endTime":239.29351016666664,"isDrum":true},{"pitch":35,"velocity":102,"startTime":239.34785799999997,"endTime":239.45655366666665,"isDrum":true},{"pitch":42,"velocity":102,"startTime":239.34785799999997,"endTime":239.45655366666665,"isDrum":true},{"pitch":51,"velocity":102,"startTime":239.34785799999997,"endTime":239.45655366666665,"isDrum":true},{"pitch":35,"velocity":102,"startTime":239.67394499999997,"endTime":239.78264066666665,"isDrum":true},{"pitch":42,"velocity":102,"startTime":239.67394499999997,"endTime":239.78264066666665,"isDrum":true},{"pitch":51,"velocity":102,"startTime":239.67394499999997,"endTime":239.78264066666665,"isDrum":true},{"pitch":40,"velocity":102,"startTime":240.00003199999998,"endTime":240.10872766666665,"isDrum":true},{"pitch":42,"velocity":102,"startTime":240.00003199999998,"endTime":240.10872766666665,"isDrum":true},{"pitch":35,"velocity":102,"startTime":240.32611899999998,"endTime":240.43481466666665,"isDrum":true},{"pitch":42,"velocity":102,"startTime":240.32611899999998,"endTime":240.43481466666665,"isDrum":true},{"pitch":51,"velocity":102,"startTime":240.32611899999998,"endTime":240.43481466666665,"isDrum":true},{"pitch":35,"velocity":102,"startTime":240.65220599999998,"endTime":240.76090166666665,"isDrum":true},{"pitch":42,"velocity":102,"startTime":240.65220599999998,"endTime":240.76090166666665,"isDrum":true},{"pitch":42,"velocity":102,"startTime":240.97829299999998,"endTime":241.08698866666666,"isDrum":true},{"pitch":51,"velocity":102,"startTime":240.97829299999998,"endTime":241.08698866666666,"isDrum":true},{"pitch":40,"velocity":102,"startTime":241.30437999999998,"endTime":241.41307566666666,"isDrum":true},{"pitch":42,"velocity":102,"startTime":241.30437999999998,"endTime":241.41307566666666,"isDrum":true},{"pitch":42,"velocity":102,"startTime":241.63046699999998,"endTime":241.73916266666666,"isDrum":true},{"pitch":51,"velocity":102,"startTime":241.63046699999998,"endTime":241.73916266666666,"isDrum":true},{"pitch":35,"velocity":102,"startTime":241.79351049999997,"endTime":241.90220616666664,"isDrum":true},{"pitch":35,"velocity":102,"startTime":241.95655399999998,"endTime":242.06524966666666,"isDrum":true},{"pitch":42,"velocity":102,"startTime":241.95655399999998,"endTime":242.06524966666666,"isDrum":true},{"pitch":35,"velocity":102,"startTime":242.28264099999998,"endTime":242.39133666666666,"isDrum":true},{"pitch":42,"velocity":102,"startTime":242.28264099999998,"endTime":242.39133666666666,"isDrum":true},{"pitch":51,"velocity":102,"startTime":242.28264099999998,"endTime":242.39133666666666,"isDrum":true},{"pitch":40,"velocity":102,"startTime":242.60872799999999,"endTime":242.71742366666666,"isDrum":true},{"pitch":42,"velocity":102,"startTime":242.60872799999999,"endTime":242.71742366666666,"isDrum":true},{"pitch":42,"velocity":102,"startTime":242.934815,"endTime":243.04351066666663,"isDrum":true},{"pitch":51,"velocity":102,"startTime":242.934815,"endTime":243.04351066666663,"isDrum":true},{"pitch":35,"velocity":102,"startTime":243.260902,"endTime":243.36959766666664,"isDrum":true},{"pitch":42,"velocity":102,"startTime":243.260902,"endTime":243.36959766666664,"isDrum":true},{"pitch":42,"velocity":102,"startTime":243.586989,"endTime":243.69568466666664,"isDrum":true},{"pitch":51,"velocity":102,"startTime":243.586989,"endTime":243.69568466666664,"isDrum":true},{"pitch":40,"velocity":102,"startTime":243.913076,"endTime":244.02177166666664,"isDrum":true},{"pitch":42,"velocity":102,"startTime":243.913076,"endTime":244.02177166666664,"isDrum":true},{"pitch":42,"velocity":102,"startTime":244.239163,"endTime":244.34785866666664,"isDrum":true},{"pitch":51,"velocity":102,"startTime":244.239163,"endTime":244.34785866666664,"isDrum":true},{"pitch":35,"velocity":102,"startTime":244.40220649999998,"endTime":244.51090216666665,"isDrum":true},{"pitch":35,"velocity":102,"startTime":244.56525,"endTime":244.67394566666664,"isDrum":true},{"pitch":42,"velocity":102,"startTime":244.56525,"endTime":244.67394566666664,"isDrum":true},{"pitch":42,"velocity":102,"startTime":244.891337,"endTime":245.00003266666664,"isDrum":true},{"pitch":40,"velocity":102,"startTime":245.217424,"endTime":245.32611966666664,"isDrum":true},{"pitch":42,"velocity":102,"startTime":245.217424,"endTime":245.32611966666664,"isDrum":true},{"pitch":42,"velocity":102,"startTime":245.543511,"endTime":245.65220666666664,"isDrum":true},{"pitch":35,"velocity":102,"startTime":245.86959799999997,"endTime":245.97829366666664,"isDrum":true},{"pitch":42,"velocity":102,"startTime":245.86959799999997,"endTime":245.97829366666664,"isDrum":true},{"pitch":42,"velocity":102,"startTime":246.19568499999997,"endTime":246.30438066666665,"isDrum":true},{"pitch":40,"velocity":102,"startTime":246.52177199999997,"endTime":246.63046766666665,"isDrum":true},{"pitch":42,"velocity":102,"startTime":246.52177199999997,"endTime":246.63046766666665,"isDrum":true},{"pitch":42,"velocity":102,"startTime":246.84785899999997,"endTime":246.95655466666665,"isDrum":true},{"pitch":35,"velocity":102,"startTime":247.0109025,"endTime":247.11959816666663,"isDrum":true},{"pitch":35,"velocity":102,"startTime":247.17394599999997,"endTime":247.28264166666665,"isDrum":true},{"pitch":42,"velocity":102,"startTime":247.17394599999997,"endTime":247.28264166666665,"isDrum":true},{"pitch":35,"velocity":102,"startTime":247.50003299999997,"endTime":247.60872866666665,"isDrum":true},{"pitch":42,"velocity":102,"startTime":247.50003299999997,"endTime":247.60872866666665,"isDrum":true},{"pitch":40,"velocity":102,"startTime":247.82611999999997,"endTime":247.93481566666665,"isDrum":true},{"pitch":42,"velocity":102,"startTime":247.82611999999997,"endTime":247.93481566666665,"isDrum":true},{"pitch":42,"velocity":102,"startTime":248.15220699999998,"endTime":248.26090266666665,"isDrum":true},{"pitch":35,"velocity":102,"startTime":248.3152505,"endTime":248.42394616666664,"isDrum":true},{"pitch":35,"velocity":102,"startTime":248.47829399999998,"endTime":248.58698966666665,"isDrum":true},{"pitch":42,"velocity":102,"startTime":248.47829399999998,"endTime":248.58698966666665,"isDrum":true},{"pitch":42,"velocity":102,"startTime":248.80438099999998,"endTime":248.91307666666665,"isDrum":true},{"pitch":40,"velocity":102,"startTime":249.13046799999998,"endTime":249.23916366666666,"isDrum":true},{"pitch":42,"velocity":102,"startTime":249.13046799999998,"endTime":249.23916366666666,"isDrum":true},{"pitch":35,"velocity":102,"startTime":249.45655499999998,"endTime":249.5584571875,"isDrum":true},{"pitch":42,"velocity":102,"startTime":249.45655499999998,"endTime":249.5584571875,"isDrum":true},{"pitch":51,"velocity":102,"startTime":249.45655499999998,"endTime":249.5584571875,"isDrum":true},{"pitch":60,"velocity":95,"startTime":229.565248,"endTime":229.67394366666664,"instrument":1,"program":12},{"pitch":63,"velocity":95,"startTime":229.72829149999998,"endTime":229.83698716666666,"instrument":1,"program":12},{"pitch":67,"velocity":95,"startTime":229.89133499999997,"endTime":230.00003066666665,"instrument":1,"program":12},{"pitch":60,"velocity":95,"startTime":230.05437849999998,"endTime":230.10872633333332,"instrument":1,"program":12},{"pitch":63,"velocity":95,"startTime":230.21742199999997,"endTime":230.32611766666665,"instrument":1,"program":12},{"pitch":67,"velocity":95,"startTime":230.38046549999999,"endTime":230.48916116666666,"instrument":1,"program":12},{"pitch":72,"velocity":95,"startTime":230.54350899999997,"endTime":230.65220466666665,"instrument":1,"program":12},{"pitch":63,"velocity":95,"startTime":230.7065525,"endTime":230.76090033333332,"instrument":1,"program":12},{"pitch":60,"velocity":95,"startTime":230.86959599999997,"endTime":230.97829166666665,"instrument":1,"program":12},{"pitch":67,"velocity":95,"startTime":231.0326395,"endTime":231.14133516666664,"instrument":1,"program":12},{"pitch":63,"velocity":95,"startTime":231.19568299999997,"endTime":231.30437866666665,"instrument":1,"program":12},{"pitch":60,"velocity":95,"startTime":231.3587265,"endTime":231.41307433333333,"instrument":1,"program":12},{"pitch":63,"velocity":95,"startTime":231.52176999999998,"endTime":231.63046566666665,"instrument":1,"program":12},{"pitch":67,"velocity":95,"startTime":231.6848135,"endTime":231.79350916666664,"instrument":1,"program":12},{"pitch":60,"velocity":95,"startTime":231.84785699999998,"endTime":231.95655266666665,"instrument":1,"program":12},{"pitch":63,"velocity":95,"startTime":232.0109005,"endTime":232.11959616666664,"instrument":1,"program":12},{"pitch":60,"velocity":95,"startTime":232.17394399999998,"endTime":232.28263966666665,"instrument":1,"program":12},{"pitch":63,"velocity":95,"startTime":232.3369875,"endTime":232.44568316666664,"instrument":1,"program":12},{"pitch":67,"velocity":95,"startTime":232.50003099999998,"endTime":232.60872666666666,"instrument":1,"program":12},{"pitch":60,"velocity":95,"startTime":232.6630745,"endTime":232.7174223333333,"instrument":1,"program":12},{"pitch":75,"velocity":95,"startTime":232.82611799999998,"endTime":232.93481366666666,"instrument":1,"program":12},{"pitch":75,"velocity":95,"startTime":232.9891615,"endTime":233.0435093333333,"instrument":1,"program":12},{"pitch":72,"velocity":95,"startTime":233.3152485,"endTime":233.3695963333333,"instrument":1,"program":12},{"pitch":75,"velocity":95,"startTime":233.47829199999998,"endTime":233.58698766666666,"instrument":1,"program":12},{"pitch":72,"velocity":95,"startTime":233.64133549999997,"endTime":233.6956833333333,"instrument":1,"program":12},{"pitch":63,"velocity":95,"startTime":233.80437899999998,"endTime":233.91307466666666,"instrument":1,"program":12},{"pitch":70,"velocity":95,"startTime":233.96742249999997,"endTime":234.07611816666665,"instrument":1,"program":12},{"pitch":60,"velocity":95,"startTime":234.13046599999998,"endTime":234.23916166666666,"instrument":1,"program":12},{"pitch":63,"velocity":95,"startTime":234.29350949999997,"endTime":234.40220516666665,"instrument":1,"program":12},{"pitch":67,"velocity":95,"startTime":234.45655299999999,"endTime":234.56524866666666,"instrument":1,"program":12},{"pitch":67,"velocity":95,"startTime":234.61959649999997,"endTime":234.6739443333333,"instrument":1,"program":12},{"pitch":62,"velocity":95,"startTime":234.78264,"endTime":234.89133566666666,"instrument":1,"program":12},{"pitch":70,"velocity":95,"startTime":234.94568349999997,"endTime":235.05437916666665,"instrument":1,"program":12},{"pitch":74,"velocity":95,"startTime":235.108727,"endTime":235.21742266666664,"instrument":1,"program":12},{"pitch":70,"velocity":95,"startTime":235.27177049999997,"endTime":235.38046616666665,"instrument":1,"program":12},{"pitch":62,"velocity":95,"startTime":235.434814,"endTime":235.54350966666664,"instrument":1,"program":12},{"pitch":70,"velocity":95,"startTime":235.59785749999998,"endTime":235.70655316666665,"instrument":1,"program":12},{"pitch":74,"velocity":95,"startTime":235.760901,"endTime":235.86959666666664,"instrument":1,"program":12},{"pitch":70,"velocity":95,"startTime":235.92394449999998,"endTime":236.03264016666665,"instrument":1,"program":12},{"pitch":62,"velocity":95,"startTime":236.086988,"endTime":236.19568366666664,"instrument":1,"program":12},{"pitch":70,"velocity":95,"startTime":236.25003149999998,"endTime":236.35872716666665,"instrument":1,"program":12},{"pitch":74,"velocity":95,"startTime":236.413075,"endTime":236.52177066666664,"instrument":1,"program":12},{"pitch":70,"velocity":95,"startTime":236.57611849999998,"endTime":236.68481416666665,"instrument":1,"program":12},{"pitch":62,"velocity":95,"startTime":236.739162,"endTime":236.84785766666664,"instrument":1,"program":12},{"pitch":70,"velocity":95,"startTime":236.90220549999998,"endTime":236.95655333333332,"instrument":1,"program":12},{"pitch":74,"velocity":95,"startTime":237.065249,"endTime":237.17394466666664,"instrument":1,"program":12},{"pitch":70,"velocity":95,"startTime":237.22829249999998,"endTime":237.33698816666666,"instrument":1,"program":12},{"pitch":62,"velocity":95,"startTime":237.391336,"endTime":237.50003166666664,"instrument":1,"program":12},{"pitch":67,"velocity":95,"startTime":237.55437949999998,"endTime":237.66307516666666,"instrument":1,"program":12},{"pitch":70,"velocity":95,"startTime":237.71742299999997,"endTime":237.82611866666664,"instrument":1,"program":12},{"pitch":74,"velocity":95,"startTime":237.88046649999998,"endTime":237.98916216666666,"instrument":1,"program":12},{"pitch":62,"velocity":95,"startTime":238.04350999999997,"endTime":238.15220566666665,"instrument":1,"program":12},{"pitch":67,"velocity":95,"startTime":238.20655349999998,"endTime":238.31524916666666,"instrument":1,"program":12},{"pitch":70,"velocity":95,"startTime":238.36959699999997,"endTime":238.47829266666665,"instrument":1,"program":12},{"pitch":67,"velocity":95,"startTime":238.53264049999999,"endTime":238.64133616666666,"instrument":1,"program":12},{"pitch":74,"velocity":95,"startTime":238.69568399999997,"endTime":238.80437966666665,"instrument":1,"program":12},{"pitch":70,"velocity":95,"startTime":238.8587275,"endTime":238.91307533333332,"instrument":1,"program":12},{"pitch":67,"velocity":95,"startTime":239.02177099999997,"endTime":239.13046666666665,"instrument":1,"program":12},{"pitch":74,"velocity":95,"startTime":239.1848145,"endTime":239.29351016666664,"instrument":1,"program":12},{"pitch":70,"velocity":95,"startTime":239.34785799999997,"endTime":239.45655366666665,"instrument":1,"program":12},{"pitch":67,"velocity":95,"startTime":239.5109015,"endTime":239.56524933333333,"instrument":1,"program":12},{"pitch":70,"velocity":95,"startTime":239.67394499999997,"endTime":239.78264066666665,"instrument":1,"program":12},{"pitch":62,"velocity":95,"startTime":239.8369885,"endTime":239.94568416666664,"instrument":1,"program":12},{"pitch":60,"velocity":95,"startTime":240.00003199999998,"endTime":240.10872766666665,"instrument":1,"program":12},{"pitch":69,"velocity":95,"startTime":240.1630755,"endTime":240.27177116666664,"instrument":1,"program":12},{"pitch":72,"velocity":95,"startTime":240.32611899999998,"endTime":240.43481466666665,"instrument":1,"program":12},{"pitch":69,"velocity":95,"startTime":240.4891625,"endTime":240.59785816666664,"instrument":1,"program":12},{"pitch":62,"velocity":95,"startTime":240.65220599999998,"endTime":240.76090166666665,"instrument":1,"program":12},{"pitch":69,"velocity":95,"startTime":240.8152495,"endTime":240.92394516666664,"instrument":1,"program":12},{"pitch":72,"velocity":95,"startTime":240.97829299999998,"endTime":241.08698866666666,"instrument":1,"program":12},{"pitch":69,"velocity":95,"startTime":241.1413365,"endTime":241.25003216666664,"instrument":1,"program":12},{"pitch":62,"velocity":95,"startTime":241.30437999999998,"endTime":241.41307566666666,"instrument":1,"program":12},{"pitch":69,"velocity":95,"startTime":241.4674235,"endTime":241.57611916666664,"instrument":1,"program":12},{"pitch":69,"velocity":95,"startTime":241.63046699999998,"endTime":241.73916266666666,"instrument":1,"program":12},{"pitch":72,"velocity":95,"startTime":241.79351049999997,"endTime":241.90220616666664,"instrument":1,"program":12},{"pitch":62,"velocity":95,"startTime":241.95655399999998,"endTime":242.06524966666666,"instrument":1,"program":12},{"pitch":69,"velocity":95,"startTime":242.11959749999997,"endTime":242.22829316666665,"instrument":1,"program":12},{"pitch":66,"velocity":95,"startTime":242.28264099999998,"endTime":242.39133666666666,"instrument":1,"program":12},{"pitch":69,"velocity":95,"startTime":242.44568449999997,"endTime":242.5000323333333,"instrument":1,"program":12},{"pitch":62,"velocity":95,"startTime":242.60872799999999,"endTime":242.77177149999997,"instrument":1,"program":12},{"pitch":66,"velocity":95,"startTime":242.77177149999997,"endTime":242.88046716666665,"instrument":1,"program":12},{"pitch":69,"velocity":95,"startTime":242.934815,"endTime":243.04351066666663,"instrument":1,"program":12},{"pitch":69,"velocity":95,"startTime":243.09785849999997,"endTime":243.20655416666665,"instrument":1,"program":12},{"pitch":74,"velocity":95,"startTime":243.260902,"endTime":243.36959766666664,"instrument":1,"program":12},{"pitch":69,"velocity":95,"startTime":243.42394549999997,"endTime":243.53264116666665,"instrument":1,"program":12},{"pitch":66,"velocity":95,"startTime":243.586989,"endTime":243.64133683333333,"instrument":1,"program":12},{"pitch":69,"velocity":95,"startTime":243.75003249999997,"endTime":243.8043803333333,"instrument":1,"program":12},{"pitch":62,"velocity":95,"startTime":243.913076,"endTime":244.02177166666664,"instrument":1,"program":12},{"pitch":69,"velocity":95,"startTime":244.07611949999998,"endTime":244.18481516666665,"instrument":1,"program":12},{"pitch":72,"velocity":95,"startTime":244.239163,"endTime":244.34785866666664,"instrument":1,"program":12},{"pitch":69,"velocity":95,"startTime":244.40220649999998,"endTime":244.51090216666665,"instrument":1,"program":12},{"pitch":66,"velocity":95,"startTime":244.56525,"endTime":244.67394566666664,"instrument":1,"program":12},{"pitch":72,"velocity":95,"startTime":244.72829349999998,"endTime":244.83698916666665,"instrument":1,"program":12},{"pitch":69,"velocity":95,"startTime":244.891337,"endTime":245.00003266666664,"instrument":1,"program":12},{"pitch":69,"velocity":95,"startTime":245.05438049999998,"endTime":245.10872833333332,"instrument":1,"program":12},{"pitch":65,"velocity":95,"startTime":247.82611999999997,"endTime":247.93481566666665,"instrument":1,"program":12},{"pitch":69,"velocity":95,"startTime":247.9891635,"endTime":248.09785916666664,"instrument":1,"program":12},{"pitch":72,"velocity":95,"startTime":248.15220699999998,"endTime":248.26090266666665,"instrument":1,"program":12},{"pitch":69,"velocity":95,"startTime":248.3152505,"endTime":248.42394616666664,"instrument":1,"program":12},{"pitch":77,"velocity":95,"startTime":248.47829399999998,"endTime":248.58698966666665,"instrument":1,"program":12},{"pitch":69,"velocity":95,"startTime":248.6413375,"endTime":248.75003316666664,"instrument":1,"program":12},{"pitch":74,"velocity":95,"startTime":248.80438099999998,"endTime":248.91307666666665,"instrument":1,"program":12},{"pitch":69,"velocity":95,"startTime":248.9674245,"endTime":249.07612016666664,"instrument":1,"program":12},{"pitch":74,"velocity":95,"startTime":249.13046799999998,"endTime":249.23916366666666,"instrument":1,"program":12},{"pitch":67,"velocity":95,"startTime":249.2935115,"endTime":249.40220716666664,"instrument":1,"program":12},{"pitch":70,"velocity":95,"startTime":249.45655499999998,"endTime":249.5584571875,"instrument":1,"program":12},{"pitch":39,"velocity":110,"startTime":229.565248,"endTime":229.89133499999997,"instrument":2,"program":32},{"pitch":27,"velocity":110,"startTime":230.05437849999998,"endTime":230.21742199999997,"instrument":2,"program":32},{"pitch":31,"velocity":110,"startTime":230.38046549999999,"endTime":230.54350899999997,"instrument":2,"program":32},{"pitch":34,"velocity":110,"startTime":230.54350899999997,"endTime":230.7065525,"instrument":2,"program":32},{"pitch":36,"velocity":110,"startTime":230.86959599999997,"endTime":231.0326395,"instrument":2,"program":32},{"pitch":34,"velocity":110,"startTime":231.52176999999998,"endTime":231.6848135,"instrument":2,"program":32},{"pitch":39,"velocity":110,"startTime":231.84785699999998,"endTime":232.0109005,"instrument":2,"program":32},{"pitch":39,"velocity":110,"startTime":232.17394399999998,"endTime":232.50003099999998,"instrument":2,"program":32},{"pitch":34,"velocity":110,"startTime":232.6630745,"endTime":232.82611799999998,"instrument":2,"program":32},{"pitch":39,"velocity":110,"startTime":232.9891615,"endTime":233.15220499999998,"instrument":2,"program":32},{"pitch":36,"velocity":110,"startTime":233.15220499999998,"endTime":233.3152485,"instrument":2,"program":32},{"pitch":39,"velocity":110,"startTime":233.47829199999998,"endTime":233.64133549999997,"instrument":2,"program":32},{"pitch":36,"velocity":110,"startTime":233.80437899999998,"endTime":233.96742249999997,"instrument":2,"program":32},{"pitch":39,"velocity":110,"startTime":234.13046599999998,"endTime":234.29350949999997,"instrument":2,"program":32},{"pitch":46,"velocity":110,"startTime":234.45655299999999,"endTime":234.61959649999997,"instrument":2,"program":32},{"pitch":34,"velocity":110,"startTime":234.78264,"endTime":235.108727,"instrument":2,"program":32},{"pitch":31,"velocity":110,"startTime":235.27177049999997,"endTime":235.434814,"instrument":2,"program":32},{"pitch":29,"velocity":110,"startTime":235.59785749999998,"endTime":235.760901,"instrument":2,"program":32},{"pitch":34,"velocity":110,"startTime":235.760901,"endTime":235.92394449999998,"instrument":2,"program":32},{"pitch":38,"velocity":110,"startTime":236.086988,"endTime":236.25003149999998,"instrument":2,"program":32},{"pitch":38,"velocity":110,"startTime":236.57611849999998,"endTime":236.739162,"instrument":2,"program":32},{"pitch":34,"velocity":110,"startTime":236.90220549999998,"endTime":237.065249,"instrument":2,"program":32},{"pitch":34,"velocity":110,"startTime":237.065249,"endTime":237.22829249999998,"instrument":2,"program":32},{"pitch":31,"velocity":110,"startTime":237.391336,"endTime":237.71742299999997,"instrument":2,"program":32},{"pitch":43,"velocity":110,"startTime":237.88046649999998,"endTime":238.04350999999997,"instrument":2,"program":32},{"pitch":35,"velocity":110,"startTime":238.20655349999998,"endTime":238.36959699999997,"instrument":2,"program":32},{"pitch":38,"velocity":110,"startTime":238.36959699999997,"endTime":238.53264049999999,"instrument":2,"program":32},{"pitch":31,"velocity":110,"startTime":238.69568399999997,"endTime":238.8587275,"instrument":2,"program":32},{"pitch":31,"velocity":110,"startTime":239.02177099999997,"endTime":239.1848145,"instrument":2,"program":32},{"pitch":31,"velocity":110,"startTime":239.34785799999997,"endTime":239.5109015,"instrument":2,"program":32},{"pitch":34,"velocity":110,"startTime":239.67394499999997,"endTime":239.8369885,"instrument":2,"program":32},{"pitch":38,"velocity":110,"startTime":240.00003199999998,"endTime":240.32611899999998,"instrument":2,"program":32},{"pitch":38,"velocity":110,"startTime":240.4891625,"endTime":240.65220599999998,"instrument":2,"program":32},{"pitch":33,"velocity":110,"startTime":240.8152495,"endTime":240.97829299999998,"instrument":2,"program":32},{"pitch":38,"velocity":110,"startTime":240.97829299999998,"endTime":241.1413365,"instrument":2,"program":32},{"pitch":38,"velocity":110,"startTime":241.30437999999998,"endTime":241.4674235,"instrument":2,"program":32},{"pitch":38,"velocity":110,"startTime":241.63046699999998,"endTime":241.79351049999997,"instrument":2,"program":32},{"pitch":38,"velocity":110,"startTime":241.95655399999998,"endTime":242.11959749999997,"instrument":2,"program":32},{"pitch":38,"velocity":110,"startTime":242.28264099999998,"endTime":242.44568449999997,"instrument":2,"program":32},{"pitch":38,"velocity":110,"startTime":242.60872799999999,"endTime":242.934815,"instrument":2,"program":32},{"pitch":38,"velocity":110,"startTime":243.09785849999997,"endTime":243.260902,"instrument":2,"program":32},{"pitch":40,"velocity":110,"startTime":243.42394549999997,"endTime":243.586989,"instrument":2,"program":32},{"pitch":38,"velocity":110,"startTime":243.586989,"endTime":243.75003249999997,"instrument":2,"program":32},{"pitch":33,"velocity":110,"startTime":243.913076,"endTime":244.07611949999998,"instrument":2,"program":32},{"pitch":33,"velocity":110,"startTime":244.239163,"endTime":244.40220649999998,"instrument":2,"program":32},{"pitch":45,"velocity":110,"startTime":244.56525,"endTime":244.72829349999998,"instrument":2,"program":32},{"pitch":33,"velocity":110,"startTime":244.891337,"endTime":245.05438049999998,"instrument":2,"program":32},{"pitch":31,"velocity":110,"startTime":245.217424,"endTime":245.43481533333332,"instrument":2,"program":32},{"pitch":38,"velocity":110,"startTime":247.82611999999997,"endTime":248.15220699999998,"instrument":2,"program":32},{"pitch":33,"velocity":110,"startTime":248.3152505,"endTime":248.47829399999998,"instrument":2,"program":32},{"pitch":33,"velocity":110,"startTime":248.6413375,"endTime":248.80438099999998,"instrument":2,"program":32},{"pitch":38,"velocity":110,"startTime":248.80438099999998,"endTime":248.9674245,"instrument":2,"program":32},{"pitch":31,"velocity":110,"startTime":249.13046799999998,"endTime":249.2935115,"instrument":2,"program":32},{"pitch":31,"velocity":110,"startTime":249.3478593333333,"endTime":249.45655499999998,"instrument":2,"program":32},{"pitch":60,"velocity":105,"startTime":229.565248,"endTime":232.06524833333333,"instrument":3,"program":50},{"pitch":63,"velocity":105,"startTime":229.565248,"endTime":232.06524833333333,"instrument":3,"program":50},{"pitch":67,"velocity":105,"startTime":229.565248,"endTime":232.06524833333333,"instrument":3,"program":50},{"pitch":70,"velocity":105,"startTime":229.565248,"endTime":232.06524833333333,"instrument":3,"program":50},{"pitch":60,"velocity":105,"startTime":232.17394399999998,"endTime":233.3695963333333,"instrument":3,"program":50},{"pitch":63,"velocity":105,"startTime":232.17394399999998,"endTime":233.3695963333333,"instrument":3,"program":50},{"pitch":67,"velocity":105,"startTime":232.17394399999998,"endTime":233.3695963333333,"instrument":3,"program":50},{"pitch":70,"velocity":105,"startTime":232.17394399999998,"endTime":233.3695963333333,"instrument":3,"program":50},{"pitch":58,"velocity":105,"startTime":233.47829199999998,"endTime":233.85872683333332,"instrument":3,"program":50},{"pitch":60,"velocity":105,"startTime":233.47829199999998,"endTime":233.85872683333332,"instrument":3,"program":50},{"pitch":63,"velocity":105,"startTime":233.47829199999998,"endTime":233.85872683333332,"instrument":3,"program":50},{"pitch":67,"velocity":105,"startTime":233.47829199999998,"endTime":233.85872683333332,"instrument":3,"program":50},{"pitch":58,"velocity":105,"startTime":233.96742249999997,"endTime":234.78264,"instrument":3,"program":50},{"pitch":60,"velocity":105,"startTime":233.96742249999997,"endTime":234.78264,"instrument":3,"program":50},{"pitch":63,"velocity":105,"startTime":233.96742249999997,"endTime":234.78264,"instrument":3,"program":50},{"pitch":67,"velocity":105,"startTime":233.96742249999997,"endTime":234.78264,"instrument":3,"program":50},{"pitch":58,"velocity":105,"startTime":234.78264,"endTime":237.28264033333332,"instrument":3,"program":50},{"pitch":62,"velocity":105,"startTime":234.78264,"endTime":237.28264033333332,"instrument":3,"program":50},{"pitch":65,"velocity":105,"startTime":234.78264,"endTime":237.28264033333332,"instrument":3,"program":50},{"pitch":67,"velocity":105,"startTime":234.78264,"endTime":237.28264033333332,"instrument":3,"program":50},{"pitch":58,"velocity":105,"startTime":237.391336,"endTime":239.61959716666664,"instrument":3,"program":50},{"pitch":62,"velocity":105,"startTime":237.391336,"endTime":239.61959716666664,"instrument":3,"program":50},{"pitch":65,"velocity":105,"startTime":237.391336,"endTime":239.61959716666664,"instrument":3,"program":50},{"pitch":67,"velocity":105,"startTime":237.391336,"endTime":239.61959716666664,"instrument":3,"program":50},{"pitch":57,"velocity":105,"startTime":239.67394499999997,"endTime":242.44568449999997,"instrument":3,"program":50},{"pitch":58,"velocity":105,"startTime":239.67394499999997,"endTime":242.44568449999997,"instrument":3,"program":50},{"pitch":62,"velocity":105,"startTime":239.67394499999997,"endTime":242.44568449999997,"instrument":3,"program":50},{"pitch":66,"velocity":105,"startTime":239.67394499999997,"endTime":242.44568449999997,"instrument":3,"program":50},{"pitch":60,"velocity":105,"startTime":242.60872799999999,"endTime":245.10872833333332,"instrument":3,"program":50},{"pitch":62,"velocity":105,"startTime":242.60872799999999,"endTime":245.10872833333332,"instrument":3,"program":50},{"pitch":69,"velocity":105,"startTime":242.60872799999999,"endTime":245.10872833333332,"instrument":3,"program":50},{"pitch":58,"velocity":105,"startTime":245.217424,"endTime":245.38046749999998,"instrument":3,"program":50},{"pitch":62,"velocity":105,"startTime":245.217424,"endTime":245.38046749999998,"instrument":3,"program":50},{"pitch":67,"velocity":105,"startTime":245.217424,"endTime":245.38046749999998,"instrument":3,"program":50},{"pitch":74,"velocity":105,"startTime":245.217424,"endTime":245.38046749999998,"instrument":3,"program":50},{"pitch":60,"velocity":105,"startTime":247.82611999999997,"endTime":248.47829399999998,"instrument":3,"program":50},{"pitch":63,"velocity":105,"startTime":247.82611999999997,"endTime":248.47829399999998,"instrument":3,"program":50},{"pitch":66,"velocity":105,"startTime":247.82611999999997,"endTime":248.47829399999998,"instrument":3,"program":50},{"pitch":69,"velocity":105,"startTime":247.82611999999997,"endTime":248.47829399999998,"instrument":3,"program":50},{"pitch":62,"velocity":105,"startTime":248.47829399999998,"endTime":249.5584571875,"instrument":3,"program":50},{"pitch":65,"velocity":105,"startTime":248.47829399999998,"endTime":249.5584571875,"instrument":3,"program":50},{"pitch":67,"velocity":105,"startTime":248.47829399999998,"endTime":249.5584571875,"instrument":3,"program":50},{"pitch":70,"velocity":105,"startTime":248.47829399999998,"endTime":249.5584571875,"instrument":3,"program":50}],"totalTime":249.5584571875},"tempo":92,"selectedInstruments":[0,1,2]},"remix":{"trimmedSequence":{"filename":"cumparsita_tango__sunflower__remix.mid","ticksPerQuarter":192,"timeSignatures":[{"numerator":4,"denominator":4}],"tempos":[{"qpm":91.99998773333498}],"notes":[{"pitch":35,"velocity":102,"endTime":0.16304349999999998,"isDrum":true},{"pitch":42,"velocity":102,"endTime":0.16304349999999998,"isDrum":true},{"pitch":42,"velocity":102,"startTime":0.32608699999999996,"endTime":0.48913049999999997,"isDrum":true},{"pitch":40,"velocity":102,"startTime":0.6521739999999999,"endTime":0.8152174999999999,"isDrum":true},{"pitch":42,"velocity":102,"startTime":0.6521739999999999,"endTime":0.8152174999999999,"isDrum":true},{"pitch":42,"velocity":102,"startTime":0.9782609999999999,"endTime":1.1413045,"isDrum":true},{"pitch":35,"velocity":102,"startTime":1.3043479999999998,"endTime":1.4673915,"isDrum":true},{"pitch":42,"velocity":102,"startTime":1.3043479999999998,"endTime":1.4673915,"isDrum":true},{"pitch":42,"velocity":102,"startTime":1.6304349999999999,"endTime":1.7934785,"isDrum":true},{"pitch":40,"velocity":102,"startTime":1.9565219999999999,"endTime":2.1195654999999998,"isDrum":true},{"pitch":42,"velocity":102,"startTime":1.9565219999999999,"endTime":2.1195654999999998,"isDrum":true},{"pitch":42,"velocity":102,"startTime":2.282609,"endTime":2.4456525,"isDrum":true},{"pitch":35,"velocity":102,"startTime":2.6086959999999997,"endTime":2.7717395,"isDrum":true},{"pitch":42,"velocity":102,"startTime":2.6086959999999997,"endTime":2.7717395,"isDrum":true},{"pitch":42,"velocity":102,"startTime":2.934783,"endTime":3.0978264999999996,"isDrum":true},{"pitch":40,"velocity":102,"startTime":3.2608699999999997,"endTime":3.4239135,"isDrum":true},{"pitch":42,"velocity":102,"startTime":3.2608699999999997,"endTime":3.4239135,"isDrum":true},{"pitch":42,"velocity":102,"startTime":3.586957,"endTime":3.7500004999999996,"isDrum":true},{"pitch":35,"velocity":102,"startTime":3.9130439999999997,"endTime":4.0760875,"isDrum":true},{"pitch":42,"velocity":102,"startTime":3.9130439999999997,"endTime":4.0760875,"isDrum":true},{"pitch":42,"velocity":102,"startTime":4.2391309999999995,"endTime":4.4021745,"isDrum":true},{"pitch":40,"velocity":102,"startTime":4.565218,"endTime":4.7282614999999995,"isDrum":true},{"pitch":42,"velocity":102,"startTime":4.565218,"endTime":4.7282614999999995,"isDrum":true},{"pitch":42,"velocity":102,"startTime":4.891305,"endTime":5.0543485,"isDrum":true},{"pitch":35,"velocity":102,"startTime":5.217391999999999,"endTime":5.3804355,"isDrum":true},{"pitch":42,"velocity":102,"startTime":5.217391999999999,"endTime":5.3804355,"isDrum":true},{"pitch":42,"velocity":102,"startTime":5.543479,"endTime":5.706522499999999,"isDrum":true},{"pitch":40,"velocity":102,"startTime":5.869566,"endTime":6.0326094999999995,"isDrum":true},{"pitch":42,"velocity":102,"startTime":5.869566,"endTime":6.0326094999999995,"isDrum":true},{"pitch":42,"velocity":102,"startTime":6.195652999999999,"endTime":6.3586965,"isDrum":true},{"pitch":35,"velocity":102,"startTime":6.521739999999999,"endTime":6.684783499999999,"isDrum":true},{"pitch":42,"velocity":102,"startTime":6.521739999999999,"endTime":6.684783499999999,"isDrum":true},{"pitch":42,"velocity":102,"startTime":6.847827,"endTime":7.010870499999999,"isDrum":true},{"pitch":40,"velocity":102,"startTime":7.173914,"endTime":7.3369575,"isDrum":true},{"pitch":42,"velocity":102,"startTime":7.173914,"endTime":7.3369575,"isDrum":true},{"pitch":42,"velocity":102,"startTime":7.500000999999999,"endTime":7.6630445,"isDrum":true},{"pitch":35,"velocity":102,"startTime":7.8260879999999995,"endTime":7.989131499999999,"isDrum":true},{"pitch":42,"velocity":102,"startTime":7.8260879999999995,"endTime":7.989131499999999,"isDrum":true},{"pitch":42,"velocity":102,"startTime":8.152175,"endTime":8.315218499999999,"isDrum":true},{"pitch":40,"velocity":102,"startTime":8.478261999999999,"endTime":8.6413055,"isDrum":true},{"pitch":42,"velocity":102,"startTime":8.478261999999999,"endTime":8.6413055,"isDrum":true},{"pitch":42,"velocity":102,"startTime":8.804349,"endTime":8.967392499999999,"isDrum":true},{"pitch":51,"velocity":102,"startTime":8.804349,"endTime":8.967392499999999,"isDrum":true},{"pitch":35,"velocity":102,"startTime":9.130436,"endTime":9.2934795,"isDrum":true},{"pitch":42,"velocity":102,"startTime":9.130436,"endTime":9.2934795,"isDrum":true},{"pitch":42,"velocity":102,"startTime":9.456522999999999,"endTime":9.6195665,"isDrum":true},{"pitch":40,"velocity":102,"startTime":9.78261,"endTime":9.945653499999999,"isDrum":true},{"pitch":42,"velocity":102,"startTime":9.78261,"endTime":9.945653499999999,"isDrum":true},{"pitch":42,"velocity":102,"startTime":10.108697,"endTime":10.2717405,"isDrum":true},{"pitch":35,"velocity":102,"startTime":10.434783999999999,"endTime":10.5978275,"isDrum":true},{"pitch":42,"velocity":102,"startTime":10.434783999999999,"endTime":10.5978275,"isDrum":true},{"pitch":42,"velocity":102,"startTime":10.760871,"endTime":10.923914499999999,"isDrum":true},{"pitch":40,"velocity":102,"startTime":11.086958,"endTime":11.2500015,"isDrum":true},{"pitch":42,"velocity":102,"startTime":11.086958,"endTime":11.2500015,"isDrum":true},{"pitch":42,"velocity":102,"startTime":11.413044999999999,"endTime":11.5760885,"isDrum":true},{"pitch":35,"velocity":102,"startTime":11.739132,"endTime":11.902175499999998,"isDrum":true},{"pitch":42,"velocity":102,"startTime":11.739132,"endTime":11.902175499999998,"isDrum":true},{"pitch":42,"velocity":102,"startTime":12.065218999999999,"endTime":12.2282625,"isDrum":true},{"pitch":40,"velocity":102,"startTime":12.391305999999998,"endTime":12.554349499999999,"isDrum":true},{"pitch":42,"velocity":102,"startTime":12.391305999999998,"endTime":12.554349499999999,"isDrum":true},{"pitch":42,"velocity":102,"startTime":12.717393,"endTime":12.880436499999998,"isDrum":true},{"pitch":35,"velocity":102,"startTime":13.043479999999999,"endTime":13.2065235,"isDrum":true},{"pitch":42,"velocity":102,"startTime":13.043479999999999,"endTime":13.2065235,"isDrum":true},{"pitch":42,"velocity":102,"startTime":13.369566999999998,"endTime":13.532610499999999,"isDrum":true},{"pitch":40,"velocity":102,"startTime":13.695654,"endTime":13.858697499999998,"isDrum":true},{"pitch":42,"velocity":102,"startTime":13.695654,"endTime":13.858697499999998,"isDrum":true},{"pitch":42,"velocity":102,"startTime":14.021740999999999,"endTime":14.1847845,"isDrum":true},{"pitch":35,"velocity":102,"startTime":14.347828,"endTime":14.510871499999999,"isDrum":true},{"pitch":42,"velocity":102,"startTime":14.347828,"endTime":14.510871499999999,"isDrum":true},{"pitch":42,"velocity":102,"startTime":14.673915,"endTime":14.8369585,"isDrum":true},{"pitch":40,"velocity":102,"startTime":15.000001999999999,"endTime":15.163045499999999,"isDrum":true},{"pitch":42,"velocity":102,"startTime":15.000001999999999,"endTime":15.163045499999999,"isDrum":true},{"pitch":42,"velocity":102,"startTime":15.326089,"endTime":15.489132499999998,"isDrum":true},{"pitch":35,"velocity":102,"startTime":15.652175999999999,"endTime":15.8152195,"isDrum":true},{"pitch":42,"velocity":102,"startTime":15.652175999999999,"endTime":15.8152195,"isDrum":true},{"pitch":42,"velocity":102,"startTime":15.978262999999998,"endTime":16.1413065,"isDrum":true},{"pitch":40,"velocity":102,"startTime":16.30435,"endTime":16.4673935,"isDrum":true},{"pitch":42,"velocity":102,"startTime":16.30435,"endTime":16.4673935,"isDrum":true},{"pitch":42,"velocity":102,"startTime":16.630436999999997,"endTime":16.793480499999998,"isDrum":true},{"pitch":35,"velocity":102,"startTime":16.956523999999998,"endTime":17.1195675,"isDrum":true},{"pitch":42,"velocity":102,"startTime":16.956523999999998,"endTime":17.1195675,"isDrum":true},{"pitch":42,"velocity":102,"startTime":17.282611,"endTime":17.4456545,"isDrum":true},{"pitch":40,"velocity":102,"startTime":17.608698,"endTime":17.771741499999997,"isDrum":true},{"pitch":42,"velocity":102,"startTime":17.608698,"endTime":17.771741499999997,"isDrum":true},{"pitch":42,"velocity":102,"startTime":17.934784999999998,"endTime":18.0978285,"isDrum":true},{"pitch":35,"velocity":102,"startTime":18.260872,"endTime":18.4239155,"isDrum":true},{"pitch":42,"velocity":102,"startTime":18.260872,"endTime":18.4239155,"isDrum":true},{"pitch":42,"velocity":102,"startTime":18.586959,"endTime":18.750002499999997,"isDrum":true},{"pitch":40,"velocity":102,"startTime":18.913045999999998,"endTime":19.0760895,"isDrum":true},{"pitch":42,"velocity":102,"startTime":18.913045999999998,"endTime":19.0760895,"isDrum":true},{"pitch":42,"velocity":102,"startTime":19.239133,"endTime":19.4021765,"isDrum":true},{"pitch":51,"velocity":102,"startTime":19.239133,"endTime":19.4021765,"isDrum":true},{"pitch":35,"velocity":102,"startTime":19.4021765,"endTime":19.56522,"isDrum":true},{"pitch":35,"velocity":102,"startTime":19.56522,"endTime":19.728263499999997,"isDrum":true},{"pitch":42,"velocity":102,"startTime":19.56522,"endTime":19.728263499999997,"isDrum":true},{"pitch":42,"velocity":102,"startTime":19.891306999999998,"endTime":20.054350499999998,"isDrum":true},{"pitch":40,"velocity":102,"startTime":20.217394,"endTime":20.3804375,"isDrum":true},{"pitch":42,"velocity":102,"startTime":20.217394,"endTime":20.3804375,"isDrum":true},{"pitch":42,"velocity":102,"startTime":20.543481,"endTime":20.706524499999997,"isDrum":true},{"pitch":58,"velocity":95,"endTime":0.10869566666666666,"instrument":1,"program":12},{"pitch":64,"velocity":95,"startTime":0.16304349999999998,"endTime":0.27173916666666664,"instrument":1,"program":12},{"pitch":69,"velocity":95,"startTime":0.32608699999999996,"endTime":0.3804348333333333,"instrument":1,"program":12},{"pitch":64,"velocity":95,"startTime":0.48913049999999997,"endTime":0.5434783333333333,"instrument":1,"program":12},{"pitch":69,"velocity":95,"startTime":0.6521739999999999,"endTime":0.7608696666666666,"instrument":1,"program":12},{"pitch":69,"velocity":95,"startTime":0.8152174999999999,"endTime":0.9239131666666666,"instrument":1,"program":12},{"pitch":64,"velocity":95,"startTime":0.9782609999999999,"endTime":1.0869566666666663,"instrument":1,"program":12},{"pitch":69,"velocity":95,"startTime":1.1413045,"endTime":1.2500001666666665,"instrument":1,"program":12},{"pitch":64,"velocity":95,"startTime":1.3043479999999998,"endTime":1.4130436666666666,"instrument":1,"program":12},{"pitch":69,"velocity":95,"startTime":1.4673915,"endTime":1.5760871666666665,"instrument":1,"program":12},{"pitch":64,"velocity":95,"startTime":1.6304349999999999,"endTime":1.7391306666666666,"instrument":1,"program":12},{"pitch":70,"velocity":95,"startTime":1.7934785,"endTime":1.8478263333333331,"instrument":1,"program":12},{"pitch":76,"velocity":95,"startTime":1.9565219999999999,"endTime":2.0652176666666664,"instrument":1,"program":12},{"pitch":69,"velocity":95,"startTime":2.1195654999999998,"endTime":2.2282611666666665,"instrument":1,"program":12},{"pitch":69,"velocity":95,"startTime":2.282609,"endTime":2.3913046666666666,"instrument":1,"program":12},{"pitch":72,"velocity":95,"startTime":2.4456525,"endTime":2.5543481666666663,"instrument":1,"program":12},{"pitch":62,"velocity":95,"startTime":2.6086959999999997,"endTime":2.717391666666667,"instrument":1,"program":12},{"pitch":69,"velocity":95,"startTime":2.7717395,"endTime":2.8804351666666665,"instrument":1,"program":12},{"pitch":72,"velocity":95,"startTime":2.934783,"endTime":3.043478666666666,"instrument":1,"program":12},{"pitch":69,"velocity":95,"startTime":3.0978264999999996,"endTime":3.2065221666666663,"instrument":1,"program":12},{"pitch":72,"velocity":95,"startTime":3.2608699999999997,"endTime":3.3695656666666665,"instrument":1,"program":12},{"pitch":69,"velocity":95,"startTime":3.4239135,"endTime":3.5326091666666666,"instrument":1,"program":12},{"pitch":69,"velocity":95,"startTime":3.586957,"endTime":3.6956526666666663,"instrument":1,"program":12},{"pitch":72,"velocity":95,"startTime":3.7500004999999996,"endTime":3.8586961666666664,"instrument":1,"program":12},{"pitch":74,"velocity":95,"startTime":3.9130439999999997,"endTime":4.021739666666666,"instrument":1,"program":12},{"pitch":69,"velocity":95,"startTime":4.0760875,"endTime":4.184783166666667,"instrument":1,"program":12},{"pitch":69,"velocity":95,"startTime":4.2391309999999995,"endTime":4.347826666666666,"instrument":1,"program":12},{"pitch":74,"velocity":95,"startTime":4.4021745,"endTime":4.510870166666666,"instrument":1,"program":12},{"pitch":69,"velocity":95,"startTime":4.565218,"endTime":4.6739136666666665,"instrument":1,"program":12},{"pitch":74,"velocity":95,"startTime":4.7282614999999995,"endTime":4.836957166666666,"instrument":1,"program":12},{"pitch":69,"velocity":95,"startTime":4.891305,"endTime":5.000000666666666,"instrument":1,"program":12},{"pitch":72,"velocity":95,"startTime":5.217391999999999,"endTime":5.326087666666665,"instrument":1,"program":12},{"pitch":69,"velocity":95,"startTime":5.3804355,"endTime":5.489131166666666,"instrument":1,"program":12},{"pitch":74,"velocity":95,"startTime":5.543479,"endTime":5.652174666666666,"instrument":1,"program":12},{"pitch":69,"velocity":95,"startTime":5.706522499999999,"endTime":5.815218166666666,"instrument":1,"program":12},{"pitch":72,"velocity":95,"startTime":5.869566,"endTime":5.978261666666667,"instrument":1,"program":12},{"pitch":69,"velocity":95,"startTime":6.0326094999999995,"endTime":6.141305166666666,"instrument":1,"program":12},{"pitch":74,"velocity":95,"startTime":6.195652999999999,"endTime":6.304348666666666,"instrument":1,"program":12},{"pitch":74,"velocity":95,"startTime":6.3586965,"endTime":6.4673921666666665,"instrument":1,"program":12},{"pitch":69,"velocity":95,"startTime":6.521739999999999,"endTime":6.630435666666666,"instrument":1,"program":12},{"pitch":74,"velocity":95,"startTime":6.684783499999999,"endTime":6.793479166666666,"instrument":1,"program":12},{"pitch":74,"velocity":95,"startTime":6.847827,"endTime":6.956522666666666,"instrument":1,"program":12},{"pitch":69,"velocity":95,"startTime":7.010870499999999,"endTime":7.119566166666666,"instrument":1,"program":12},{"pitch":74,"velocity":95,"startTime":7.173914,"endTime":7.282609666666666,"instrument":1,"program":12},{"pitch":69,"velocity":95,"startTime":7.3369575,"endTime":7.445653166666666,"instrument":1,"program":12},{"pitch":67,"velocity":95,"startTime":7.500000999999999,"endTime":7.608696666666666,"instrument":1,"program":12},{"pitch":62,"velocity":95,"startTime":7.6630445,"endTime":7.771740166666666,"instrument":1,"program":12},{"pitch":74,"velocity":95,"startTime":7.8260879999999995,"endTime":7.934783666666666,"instrument":1,"program":12},{"pitch":67,"velocity":95,"startTime":7.989131499999999,"endTime":8.097827166666667,"instrument":1,"program":12},{"pitch":62,"velocity":95,"startTime":8.152175,"endTime":8.260870666666666,"instrument":1,"program":12},{"pitch":62,"velocity":95,"startTime":8.315218499999999,"endTime":8.423914166666666,"instrument":1,"program":12},{"pitch":67,"velocity":95,"startTime":8.478261999999999,"endTime":8.586957666666667,"instrument":1,"program":12},{"pitch":74,"velocity":95,"startTime":8.6413055,"endTime":8.750001166666665,"instrument":1,"program":12},{"pitch":67,"velocity":95,"startTime":8.804349,"endTime":8.913044666666666,"instrument":1,"program":12},{"pitch":74,"velocity":95,"startTime":8.967392499999999,"endTime":9.076088166666667,"instrument":1,"program":12},{"pitch":79,"velocity":95,"startTime":9.130436,"endTime":9.239131666666665,"instrument":1,"program":12},{"pitch":74,"velocity":95,"startTime":9.2934795,"endTime":9.402175166666666,"instrument":1,"program":12},{"pitch":67,"velocity":95,"startTime":9.456522999999999,"endTime":9.565218666666667,"instrument":1,"program":12},{"pitch":74,"velocity":95,"startTime":9.6195665,"endTime":9.728262166666665,"instrument":1,"program":12},{"pitch":74,"velocity":95,"startTime":9.78261,"endTime":9.891305666666666,"instrument":1,"program":12},{"pitch":74,"velocity":95,"startTime":9.945653499999999,"endTime":10.054349166666666,"instrument":1,"program":12},{"pitch":67,"velocity":95,"startTime":10.108697,"endTime":10.217392666666665,"instrument":1,"program":12},{"pitch":71,"velocity":95,"startTime":10.2717405,"endTime":10.380436166666666,"instrument":1,"program":12},{"pitch":60,"velocity":95,"startTime":10.434783999999999,"endTime":10.543479666666666,"instrument":1,"program":12},{"pitch":69,"velocity":95,"startTime":10.5978275,"endTime":10.706523166666667,"instrument":1,"program":12},{"pitch":69,"velocity":95,"startTime":10.760871,"endTime":10.869566666666667,"instrument":1,"program":12},{"pitch":74,"velocity":95,"startTime":10.923914499999999,"endTime":11.032610166666666,"instrument":1,"program":12},{"pitch":81,"velocity":95,"startTime":11.086958,"endTime":11.195653666666665,"instrument":1,"program":12},{"pitch":69,"velocity":95,"startTime":11.2500015,"endTime":11.304349333333333,"instrument":1,"program":12},{"pitch":69,"velocity":95,"startTime":11.413044999999999,"endTime":11.521740666666666,"instrument":1,"program":12},{"pitch":69,"velocity":95,"startTime":11.5760885,"endTime":11.684784166666665,"instrument":1,"program":12},{"pitch":64,"velocity":95,"startTime":11.739132,"endTime":11.847827666666666,"instrument":1,"program":12},{"pitch":69,"velocity":95,"startTime":11.902175499999998,"endTime":12.010871166666666,"instrument":1,"program":12},{"pitch":74,"velocity":95,"startTime":12.065218999999999,"endTime":12.173914666666665,"instrument":1,"program":12},{"pitch":69,"velocity":95,"startTime":12.2282625,"endTime":12.336958166666665,"instrument":1,"program":12},{"pitch":74,"velocity":95,"startTime":12.391305999999998,"endTime":12.500001666666666,"instrument":1,"program":12},{"pitch":69,"velocity":95,"startTime":12.554349499999999,"endTime":12.608697333333332,"instrument":1,"program":12},{"pitch":69,"velocity":95,"startTime":12.717393,"endTime":12.826088666666665,"instrument":1,"program":12},{"pitch":69,"velocity":95,"startTime":12.880436499999998,"endTime":12.989132166666666,"instrument":1,"program":12},{"pitch":62,"velocity":95,"startTime":13.043479999999999,"endTime":13.152175666666666,"instrument":1,"program":12},{"pitch":69,"velocity":95,"startTime":13.2065235,"endTime":13.315219166666665,"instrument":1,"program":12},{"pitch":74,"velocity":95,"startTime":13.369566999999998,"endTime":13.478262666666666,"instrument":1,"program":12},{"pitch":69,"velocity":95,"startTime":13.532610499999999,"endTime":13.641306166666666,"instrument":1,"program":12},{"pitch":74,"velocity":95,"startTime":13.695654,"endTime":13.804349666666665,"instrument":1,"program":12},{"pitch":69,"velocity":95,"startTime":13.858697499999998,"endTime":13.967393166666666,"instrument":1,"program":12},{"pitch":69,"velocity":95,"startTime":14.021740999999999,"endTime":14.130436666666666,"instrument":1,"program":12},{"pitch":74,"velocity":95,"startTime":14.1847845,"endTime":14.293480166666665,"instrument":1,"program":12},{"pitch":69,"velocity":95,"startTime":14.347828,"endTime":14.456523666666666,"instrument":1,"program":12},{"pitch":74,"velocity":95,"startTime":14.510871499999999,"endTime":14.619567166666666,"instrument":1,"program":12},{"pitch":72,"velocity":95,"startTime":14.673915,"endTime":14.782610666666665,"instrument":1,"program":12},{"pitch":69,"velocity":95,"startTime":14.8369585,"endTime":14.945654166666666,"instrument":1,"program":12},{"pitch":74,"velocity":95,"startTime":15.000001999999999,"endTime":15.108697666666666,"instrument":1,"program":12},{"pitch":69,"velocity":95,"startTime":15.163045499999999,"endTime":15.271741166666665,"instrument":1,"program":12},{"pitch":69,"velocity":95,"startTime":15.326089,"endTime":15.434784666666665,"instrument":1,"program":12},{"pitch":69,"velocity":95,"startTime":15.489132499999998,"endTime":15.597828166666666,"instrument":1,"program":12},{"pitch":62,"velocity":95,"startTime":15.652175999999999,"endTime":15.760871666666665,"instrument":1,"program":12},{"pitch":67,"velocity":95,"startTime":15.8152195,"endTime":15.923915166666665,"instrument":1,"program":12},{"pitch":74,"velocity":95,"startTime":15.978262999999998,"endTime":16.086958666666664,"instrument":1,"program":12},{"pitch":67,"velocity":95,"startTime":16.1413065,"endTime":16.250002166666665,"instrument":1,"program":12},{"pitch":74,"velocity":95,"startTime":16.30435,"endTime":16.413045666666665,"instrument":1,"program":12},{"pitch":67,"velocity":95,"startTime":16.4673935,"endTime":16.576089166666666,"instrument":1,"program":12},{"pitch":74,"velocity":95,"startTime":16.630436999999997,"endTime":16.739132666666666,"instrument":1,"program":12},{"pitch":67,"velocity":95,"startTime":16.793480499999998,"endTime":16.902176166666667,"instrument":1,"program":12},{"pitch":74,"velocity":95,"startTime":16.956523999999998,"endTime":17.065219666666664,"instrument":1,"program":12},{"pitch":67,"velocity":95,"startTime":17.1195675,"endTime":17.228263166666665,"instrument":1,"program":12},{"pitch":74,"velocity":95,"startTime":17.282611,"endTime":17.391306666666665,"instrument":1,"program":12},{"pitch":67,"velocity":95,"startTime":17.4456545,"endTime":17.554350166666666,"instrument":1,"program":12},{"pitch":74,"velocity":95,"startTime":17.608698,"endTime":17.717393666666666,"instrument":1,"program":12},{"pitch":67,"velocity":95,"startTime":17.771741499999997,"endTime":17.880437166666667,"instrument":1,"program":12},{"pitch":74,"velocity":95,"startTime":17.934784999999998,"endTime":18.043480666666664,"instrument":1,"program":12},{"pitch":67,"velocity":95,"startTime":18.0978285,"endTime":18.206524166666664,"instrument":1,"program":12},{"pitch":74,"velocity":95,"startTime":18.260872,"endTime":18.4239155,"instrument":1,"program":12},{"pitch":67,"velocity":95,"startTime":18.4239155,"endTime":18.532611166666666,"instrument":1,"program":12},{"pitch":74,"velocity":95,"startTime":18.586959,"endTime":18.695654666666666,"instrument":1,"program":12},{"pitch":74,"velocity":95,"startTime":18.750002499999997,"endTime":18.858698166666667,"instrument":1,"program":12},{"pitch":74,"velocity":95,"startTime":18.913045999999998,"endTime":18.967393833333333,"instrument":1,"program":12},{"pitch":67,"velocity":95,"startTime":19.0760895,"endTime":19.184785166666664,"instrument":1,"program":12},{"pitch":74,"velocity":95,"startTime":19.239133,"endTime":19.347828666666665,"instrument":1,"program":12},{"pitch":74,"velocity":95,"startTime":19.4021765,"endTime":19.510872166666665,"instrument":1,"program":12},{"pitch":74,"velocity":95,"startTime":19.56522,"endTime":19.673915666666666,"instrument":1,"program":12},{"pitch":67,"velocity":95,"startTime":19.728263499999997,"endTime":19.836959166666666,"instrument":1,"program":12},{"pitch":74,"velocity":95,"startTime":19.891306999999998,"endTime":20.000002666666663,"instrument":1,"program":12},{"pitch":74,"velocity":95,"startTime":20.054350499999998,"endTime":20.163046166666664,"instrument":1,"program":12},{"pitch":74,"velocity":95,"startTime":20.217394,"endTime":20.326089666666665,"instrument":1,"program":12},{"pitch":67,"velocity":95,"startTime":20.3804375,"endTime":20.489133166666665,"instrument":1,"program":12},{"pitch":74,"velocity":95,"startTime":20.543481,"endTime":20.652176666666666,"instrument":1,"program":12},{"pitch":74,"velocity":95,"startTime":20.706524499999997,"endTime":20.815220166666666,"instrument":1,"program":12},{"pitch":38,"velocity":110,"endTime":0.32608699999999996,"instrument":2,"program":32},{"pitch":42,"velocity":110,"startTime":0.48913049999999997,"endTime":0.6521739999999999,"instrument":2,"program":32},{"pitch":45,"velocity":110,"startTime":0.8152174999999999,"endTime":0.9782609999999999,"instrument":2,"program":32},{"pitch":38,"velocity":110,"startTime":0.9782609999999999,"endTime":1.1413045,"instrument":2,"program":32},{"pitch":38,"velocity":110,"startTime":1.3043479999999998,"endTime":1.4673915,"instrument":2,"program":32},{"pitch":50,"velocity":110,"startTime":1.6304349999999999,"endTime":1.7934785,"instrument":2,"program":32},{"pitch":48,"velocity":110,"startTime":1.9565219999999999,"endTime":2.1195654999999998,"instrument":2,"program":32},{"pitch":42,"velocity":110,"startTime":2.282609,"endTime":2.4456525,"instrument":2,"program":32},{"pitch":38,"velocity":110,"startTime":2.6086959999999997,"endTime":2.934783,"instrument":2,"program":32},{"pitch":50,"velocity":110,"startTime":3.0978264999999996,"endTime":3.2608699999999997,"instrument":2,"program":32},{"pitch":50,"velocity":110,"startTime":3.4239135,"endTime":3.586957,"instrument":2,"program":32},{"pitch":38,"velocity":110,"startTime":3.586957,"endTime":3.7500004999999996,"instrument":2,"program":32},{"pitch":45,"velocity":110,"startTime":3.9130439999999997,"endTime":4.2391309999999995,"instrument":2,"program":32},{"pitch":45,"velocity":110,"startTime":4.4021745,"endTime":4.565218,"instrument":2,"program":32},{"pitch":50,"velocity":110,"startTime":4.7282614999999995,"endTime":4.891305,"instrument":2,"program":32},{"pitch":38,"velocity":110,"startTime":4.891305,"endTime":5.0543485,"instrument":2,"program":32},{"pitch":43,"velocity":110,"startTime":5.217391999999999,"endTime":5.434783333333334,"instrument":2,"program":32},{"pitch":43,"velocity":110,"startTime":5.706522499999999,"endTime":5.869566,"instrument":2,"program":32},{"pitch":38,"velocity":110,"startTime":6.0326094999999995,"endTime":6.195652999999999,"instrument":2,"program":32},{"pitch":43,"velocity":110,"startTime":6.195652999999999,"endTime":6.3586965,"instrument":2,"program":32},{"pitch":43,"velocity":110,"startTime":6.521739999999999,"endTime":6.739131333333333,"instrument":2,"program":32},{"pitch":43,"velocity":110,"startTime":6.847827,"endTime":7.010870499999999,"instrument":2,"program":32},{"pitch":43,"velocity":110,"startTime":7.173914,"endTime":7.3369575,"instrument":2,"program":32},{"pitch":46,"velocity":110,"startTime":7.500000999999999,"endTime":7.6630445,"instrument":2,"program":32},{"pitch":55,"velocity":110,"startTime":7.8260879999999995,"endTime":8.152175,"instrument":2,"program":32},{"pitch":48,"velocity":110,"startTime":8.315218499999999,"endTime":8.478261999999999,"instrument":2,"program":32},{"pitch":48,"velocity":110,"startTime":8.6413055,"endTime":8.804349,"instrument":2,"program":32},{"pitch":38,"velocity":110,"startTime":8.804349,"endTime":8.967392499999999,"instrument":2,"program":32},{"pitch":34,"velocity":110,"startTime":9.130436,"endTime":9.2934795,"instrument":2,"program":32},{"pitch":38,"velocity":110,"startTime":9.6195665,"endTime":9.78261,"instrument":2,"program":32},{"pitch":38,"velocity":110,"startTime":9.945653499999999,"endTime":10.108697,"instrument":2,"program":32},{"pitch":34,"velocity":110,"startTime":10.108697,"endTime":10.2717405,"instrument":2,"program":32},{"pitch":38,"velocity":110,"startTime":10.434783999999999,"endTime":10.760871,"instrument":2,"program":32},{"pitch":38,"velocity":110,"startTime":10.923914499999999,"endTime":11.086958,"instrument":2,"program":32},{"pitch":38,"velocity":110,"startTime":11.2500015,"endTime":11.413044999999999,"instrument":2,"program":32},{"pitch":45,"velocity":110,"startTime":11.413044999999999,"endTime":11.5760885,"instrument":2,"program":32},{"pitch":45,"velocity":110,"startTime":11.739132,"endTime":11.956523333333333,"instrument":2,"program":32},{"pitch":42,"velocity":110,"startTime":12.2282625,"endTime":12.391305999999998,"instrument":2,"program":32},{"pitch":45,"velocity":110,"startTime":12.554349499999999,"endTime":12.717393,"instrument":2,"program":32},{"pitch":38,"velocity":110,"startTime":12.717393,"endTime":12.880436499999998,"instrument":2,"program":32},{"pitch":38,"velocity":110,"startTime":13.043479999999999,"endTime":13.260871333333332,"instrument":2,"program":32},{"pitch":33,"velocity":110,"startTime":13.369566999999998,"endTime":13.532610499999999,"instrument":2,"program":32},{"pitch":38,"velocity":110,"startTime":13.695654,"endTime":14.021740999999999,"instrument":2,"program":32},{"pitch":33,"velocity":110,"startTime":14.1847845,"endTime":14.347828,"instrument":2,"program":32},{"pitch":38,"velocity":110,"startTime":14.510871499999999,"endTime":14.673915,"instrument":2,"program":32},{"pitch":33,"velocity":110,"startTime":14.673915,"endTime":14.8369585,"instrument":2,"program":32},{"pitch":42,"velocity":110,"startTime":15.000001999999999,"endTime":15.217393333333332,"instrument":2,"program":32},{"pitch":38,"velocity":110,"startTime":15.326089,"endTime":15.489132499999998,"instrument":2,"program":32},{"pitch":43,"velocity":110,"startTime":15.652175999999999,"endTime":15.869567333333332,"instrument":2,"program":32},{"pitch":43,"velocity":110,"startTime":16.1413065,"endTime":16.30435,"instrument":2,"program":32},{"pitch":43,"velocity":110,"startTime":16.4673935,"endTime":16.630436999999997,"instrument":2,"program":32},{"pitch":31,"velocity":110,"startTime":16.630436999999997,"endTime":16.793480499999998,"instrument":2,"program":32},{"pitch":43,"velocity":110,"startTime":16.956523999999998,"endTime":17.173915333333333,"instrument":2,"program":32},{"pitch":38,"velocity":110,"startTime":17.282611,"endTime":17.4456545,"instrument":2,"program":32},{"pitch":43,"velocity":110,"startTime":17.608698,"endTime":17.771741499999997,"instrument":2,"program":32},{"pitch":38,"velocity":110,"startTime":17.934784999999998,"endTime":18.0978285,"instrument":2,"program":32},{"pitch":31,"velocity":110,"startTime":18.260872,"endTime":18.586959,"instrument":2,"program":32},{"pitch":31,"velocity":110,"startTime":18.750002499999997,"endTime":18.913045999999998,"instrument":2,"program":32},{"pitch":31,"velocity":110,"startTime":19.0760895,"endTime":19.239133,"instrument":2,"program":32},{"pitch":38,"velocity":110,"startTime":19.239133,"endTime":19.4021765,"instrument":2,"program":32},{"pitch":31,"velocity":110,"startTime":19.56522,"endTime":19.78261133333333,"instrument":2,"program":32},{"pitch":43,"velocity":110,"startTime":20.054350499999998,"endTime":20.217394,"instrument":2,"program":32},{"pitch":31,"velocity":110,"startTime":20.3804375,"endTime":20.543481,"instrument":2,"program":32},{"pitch":38,"velocity":110,"startTime":20.543481,"endTime":20.706524499999997,"instrument":2,"program":32},{"pitch":62,"velocity":105,"endTime":0.9782609999999999,"instrument":3,"program":50},{"pitch":66,"velocity":105,"endTime":2.4456525,"instrument":3,"program":50},{"pitch":72,"velocity":105,"endTime":2.4456525,"instrument":3,"program":50},{"pitch":78,"velocity":105,"endTime":2.500000333333333,"instrument":3,"program":50},{"pitch":60,"velocity":105,"startTime":0.9782609999999999,"endTime":2.4456525,"instrument":3,"program":50},{"pitch":60,"velocity":105,"startTime":2.500000333333333,"endTime":3.9130439999999997,"instrument":3,"program":50},{"pitch":62,"velocity":105,"startTime":2.500000333333333,"endTime":3.2608699999999997,"instrument":3,"program":50},{"pitch":66,"velocity":105,"startTime":2.500000333333333,"endTime":3.9130439999999997,"instrument":3,"program":50},{"pitch":69,"velocity":105,"startTime":2.500000333333333,"endTime":3.9130439999999997,"instrument":3,"program":50},{"pitch":57,"velocity":105,"startTime":3.2608699999999997,"endTime":3.7500004999999996,"instrument":3,"program":50},{"pitch":62,"velocity":105,"startTime":3.586957,"endTime":3.8586961666666664,"instrument":3,"program":50},{"pitch":57,"velocity":105,"startTime":3.7500004999999996,"endTime":5.217391999999999,"instrument":3,"program":50},{"pitch":62,"velocity":105,"startTime":3.9130439999999997,"endTime":5.217391999999999,"instrument":3,"program":50},{"pitch":66,"velocity":105,"startTime":3.9130439999999997,"endTime":5.217391999999999,"instrument":3,"program":50},{"pitch":58,"velocity":105,"startTime":5.217391999999999,"endTime":7.8260879999999995,"instrument":3,"program":50},{"pitch":62,"velocity":105,"startTime":5.217391999999999,"endTime":7.8260879999999995,"instrument":3,"program":50},{"pitch":64,"velocity":105,"startTime":5.217391999999999,"endTime":7.8260879999999995,"instrument":3,"program":50},{"pitch":67,"velocity":105,"startTime":5.217391999999999,"endTime":7.8260879999999995,"instrument":3,"program":50},{"pitch":62,"velocity":105,"startTime":7.8260879999999995,"endTime":8.315218499999999,"instrument":3,"program":50},{"pitch":65,"velocity":105,"startTime":7.8260879999999995,"endTime":8.315218499999999,"instrument":3,"program":50},{"pitch":67,"velocity":105,"startTime":7.8260879999999995,"endTime":8.315218499999999,"instrument":3,"program":50},{"pitch":70,"velocity":105,"startTime":7.8260879999999995,"endTime":8.532609833333332,"instrument":3,"program":50},{"pitch":62,"velocity":105,"startTime":8.315218499999999,"endTime":8.478261999999999,"instrument":3,"program":50},{"pitch":67,"velocity":105,"startTime":8.315218499999999,"endTime":8.532609833333332,"instrument":3,"program":50},{"pitch":62,"velocity":105,"startTime":8.478261999999999,"endTime":8.6413055,"instrument":3,"program":50},{"pitch":65,"velocity":105,"startTime":8.532609833333332,"endTime":8.858696833333333,"instrument":3,"program":50},{"pitch":67,"velocity":105,"startTime":8.532609833333332,"endTime":8.858696833333333,"instrument":3,"program":50},{"pitch":62,"velocity":105,"startTime":8.6413055,"endTime":9.184783833333332,"instrument":3,"program":50},{"pitch":67,"velocity":105,"startTime":8.967392499999999,"endTime":9.184783833333332,"instrument":3,"program":50},{"pitch":70,"velocity":105,"startTime":9.130436,"endTime":9.565218666666667,"instrument":3,"program":50},{"pitch":62,"velocity":105,"startTime":9.456522999999999,"endTime":9.6195665,"instrument":3,"program":50},{"pitch":65,"velocity":105,"startTime":9.456522999999999,"endTime":9.510870833333332,"instrument":3,"program":50},{"pitch":67,"velocity":105,"startTime":9.456522999999999,"endTime":9.510870833333332,"instrument":3,"program":50},{"pitch":55,"velocity":105,"startTime":9.6195665,"endTime":10.108697,"instrument":3,"program":50},{"pitch":62,"velocity":105,"startTime":9.6195665,"endTime":10.108697,"instrument":3,"program":50},{"pitch":55,"velocity":105,"startTime":10.108697,"endTime":10.380436166666666,"instrument":3,"program":50},{"pitch":62,"velocity":105,"startTime":10.108697,"endTime":10.380436166666666,"instrument":3,"program":50},{"pitch":60,"velocity":105,"startTime":10.434783999999999,"endTime":12.989132166666666,"instrument":3,"program":50},{"pitch":66,"velocity":105,"startTime":10.434783999999999,"endTime":11.467392833333333,"instrument":3,"program":50},{"pitch":69,"velocity":105,"startTime":10.434783999999999,"endTime":11.086958,"instrument":3,"program":50},{"pitch":72,"velocity":105,"startTime":10.923914499999999,"endTime":11.086958,"instrument":3,"program":50},{"pitch":60,"velocity":105,"startTime":11.086958,"endTime":12.989132166666666,"instrument":3,"program":50},{"pitch":78,"velocity":105,"startTime":11.086958,"endTime":11.467392833333333,"instrument":3,"program":50},{"pitch":76,"velocity":105,"startTime":11.467392833333333,"endTime":11.5760885,"instrument":3,"program":50},{"pitch":66,"velocity":105,"startTime":11.5760885,"endTime":12.173914666666665,"instrument":3,"program":50},{"pitch":90,"velocity":105,"startTime":11.5760885,"endTime":12.989132166666666,"instrument":3,"program":50},{"pitch":72,"velocity":105,"startTime":12.2282625,"endTime":12.989132166666666,"instrument":3,"program":50},{"pitch":81,"velocity":105,"startTime":12.336958166666665,"endTime":12.717393,"instrument":3,"program":50},{"pitch":81,"velocity":105,"startTime":12.880436499999998,"endTime":12.989132166666666,"instrument":3,"program":50},{"pitch":60,"velocity":105,"startTime":13.043479999999999,"endTime":14.347828,"instrument":3,"program":50},{"pitch":62,"velocity":105,"startTime":13.043479999999999,"endTime":14.1847845,"instrument":3,"program":50},{"pitch":66,"velocity":105,"startTime":13.043479999999999,"endTime":14.1847845,"instrument":3,"program":50},{"pitch":74,"velocity":105,"startTime":13.043479999999999,"endTime":14.347828,"instrument":3,"program":50},{"pitch":62,"velocity":105,"startTime":14.1847845,"endTime":14.293480166666665,"instrument":3,"program":50},{"pitch":60,"velocity":105,"startTime":14.347828,"endTime":14.510871499999999,"instrument":3,"program":50},{"pitch":62,"velocity":105,"startTime":14.347828,"endTime":14.510871499999999,"instrument":3,"program":50},{"pitch":66,"velocity":105,"startTime":14.347828,"endTime":14.510871499999999,"instrument":3,"program":50},{"pitch":69,"velocity":105,"startTime":14.347828,"endTime":14.510871499999999,"instrument":3,"program":50},{"pitch":60,"velocity":105,"startTime":14.510871499999999,"endTime":14.8369585,"instrument":3,"program":50},{"pitch":62,"velocity":105,"startTime":14.510871499999999,"endTime":14.891306333333333,"instrument":3,"program":50},{"pitch":66,"velocity":105,"startTime":14.510871499999999,"endTime":14.945654166666666,"instrument":3,"program":50},{"pitch":54,"velocity":105,"startTime":14.728262833333332,"endTime":14.891306333333333,"instrument":3,"program":50},{"pitch":60,"velocity":105,"startTime":15.000001999999999,"endTime":15.380436833333333,"instrument":3,"program":50},{"pitch":62,"velocity":105,"startTime":15.000001999999999,"endTime":15.271741166666665,"instrument":3,"program":50},{"pitch":66,"velocity":105,"startTime":15.000001999999999,"endTime":15.380436833333333,"instrument":3,"program":50},{"pitch":58,"velocity":105,"startTime":15.652175999999999,"endTime":18.043480666666664,"instrument":3,"program":50},{"pitch":62,"velocity":105,"startTime":15.652175999999999,"endTime":18.043480666666664,"instrument":3,"program":50},{"pitch":65,"velocity":105,"startTime":15.652175999999999,"endTime":18.043480666666664,"instrument":3,"program":50},{"pitch":67,"velocity":105,"startTime":15.652175999999999,"endTime":18.043480666666664,"instrument":3,"program":50},{"pitch":58,"velocity":105,"startTime":18.0978285,"endTime":20.815220166666666,"instrument":3,"program":50},{"pitch":62,"velocity":105,"startTime":18.0978285,"endTime":20.815220166666666,"instrument":3,"program":50},{"pitch":65,"velocity":105,"startTime":18.0978285,"endTime":20.815220166666666,"instrument":3,"program":50},{"pitch":67,"velocity":105,"startTime":18.0978285,"endTime":20.815220166666666,"instrument":3,"program":50},{"pitch":35,"velocity":102,"startTime":20.869567999999997,"endTime":21.032611499999998,"isDrum":true},{"pitch":42,"velocity":102,"startTime":20.869567999999997,"endTime":21.032611499999998,"isDrum":true},{"pitch":51,"velocity":102,"startTime":20.869567999999997,"endTime":21.032611499999998,"isDrum":true},{"pitch":42,"velocity":102,"startTime":21.195655,"endTime":21.3586985,"isDrum":true},{"pitch":40,"velocity":102,"startTime":21.521742,"endTime":21.684785499999997,"isDrum":true},{"pitch":42,"velocity":102,"startTime":21.521742,"endTime":21.684785499999997,"isDrum":true},{"pitch":42,"velocity":102,"startTime":21.847828999999997,"endTime":22.010872499999998,"isDrum":true},{"pitch":35,"velocity":102,"startTime":22.010872499999998,"endTime":22.173916,"isDrum":true},{"pitch":40,"velocity":102,"startTime":22.173916,"endTime":22.3369595,"isDrum":true},{"pitch":42,"velocity":102,"startTime":22.173916,"endTime":22.3369595,"isDrum":true},{"pitch":51,"velocity":102,"startTime":22.3369595,"endTime":22.500003,"isDrum":true},{"pitch":35,"velocity":102,"startTime":22.500003,"endTime":22.663046499999997,"isDrum":true},{"pitch":42,"velocity":102,"startTime":22.500003,"endTime":22.663046499999997,"isDrum":true},{"pitch":40,"velocity":102,"startTime":22.826089999999997,"endTime":22.989133499999998,"isDrum":true},{"pitch":42,"velocity":102,"startTime":22.826089999999997,"endTime":22.989133499999998,"isDrum":true},{"pitch":42,"velocity":102,"startTime":23.152177,"endTime":23.3152205,"isDrum":true},{"pitch":35,"velocity":102,"startTime":23.478264,"endTime":23.6413075,"isDrum":true},{"pitch":42,"velocity":102,"startTime":23.478264,"endTime":23.6413075,"isDrum":true},{"pitch":42,"velocity":102,"startTime":23.804350999999997,"endTime":23.967394499999997,"isDrum":true},{"pitch":40,"velocity":102,"startTime":24.130437999999998,"endTime":24.2934815,"isDrum":true},{"pitch":42,"velocity":102,"startTime":24.130437999999998,"endTime":24.2934815,"isDrum":true},{"pitch":42,"velocity":102,"startTime":24.456525,"endTime":24.6195685,"isDrum":true},{"pitch":35,"velocity":102,"startTime":24.782611999999997,"endTime":24.945655499999997,"isDrum":true},{"pitch":42,"velocity":102,"startTime":24.782611999999997,"endTime":24.945655499999997,"isDrum":true},{"pitch":35,"velocity":102,"startTime":25.108698999999998,"endTime":25.2717425,"isDrum":true},{"pitch":42,"velocity":102,"startTime":25.108698999999998,"endTime":25.2717425,"isDrum":true},{"pitch":40,"velocity":102,"startTime":25.434786,"endTime":25.5978295,"isDrum":true},{"pitch":42,"velocity":102,"startTime":25.434786,"endTime":25.5978295,"isDrum":true},{"pitch":35,"velocity":102,"startTime":25.760872999999997,"endTime":25.923916499999997,"isDrum":true},{"pitch":42,"velocity":102,"startTime":25.760872999999997,"endTime":25.923916499999997,"isDrum":true},{"pitch":35,"velocity":102,"startTime":26.086959999999998,"endTime":26.2500035,"isDrum":true},{"pitch":42,"velocity":102,"startTime":26.086959999999998,"endTime":26.2500035,"isDrum":true},{"pitch":42,"velocity":102,"startTime":26.413047,"endTime":26.5760905,"isDrum":true},{"pitch":40,"velocity":102,"startTime":26.739133999999996,"endTime":26.902177499999997,"isDrum":true},{"pitch":42,"velocity":102,"startTime":26.739133999999996,"endTime":26.902177499999997,"isDrum":true},{"pitch":42,"velocity":102,"startTime":27.065220999999998,"endTime":27.228264499999998,"isDrum":true},{"pitch":35,"velocity":102,"startTime":27.391308,"endTime":27.5543515,"isDrum":true},{"pitch":42,"velocity":102,"startTime":27.391308,"endTime":27.5543515,"isDrum":true},{"pitch":35,"velocity":102,"startTime":27.717394999999996,"endTime":27.880438499999997,"isDrum":true},{"pitch":42,"velocity":102,"startTime":27.717394999999996,"endTime":27.880438499999997,"isDrum":true},{"pitch":40,"velocity":102,"startTime":28.043481999999997,"endTime":28.206525499999998,"isDrum":true},{"pitch":42,"velocity":102,"startTime":28.043481999999997,"endTime":28.206525499999998,"isDrum":true},{"pitch":42,"velocity":102,"startTime":28.369569,"endTime":28.5326125,"isDrum":true},{"pitch":35,"velocity":102,"startTime":28.695656,"endTime":28.858699499999997,"isDrum":true},{"pitch":42,"velocity":102,"startTime":28.695656,"endTime":28.858699499999997,"isDrum":true},{"pitch":42,"velocity":102,"startTime":29.021742999999997,"endTime":29.184786499999998,"isDrum":true},{"pitch":40,"velocity":102,"startTime":29.34783,"endTime":29.5108735,"isDrum":true},{"pitch":42,"velocity":102,"startTime":29.34783,"endTime":29.5108735,"isDrum":true},{"pitch":42,"velocity":102,"startTime":29.673917,"endTime":29.836960499999996,"isDrum":true},{"pitch":35,"velocity":102,"startTime":29.836960499999996,"endTime":30.000003999999997,"isDrum":true},{"pitch":35,"velocity":102,"startTime":30.000003999999997,"endTime":30.163047499999998,"isDrum":true},{"pitch":42,"velocity":102,"startTime":30.000003999999997,"endTime":30.163047499999998,"isDrum":true},{"pitch":42,"velocity":102,"startTime":30.163047499999998,"endTime":30.326090999999998,"isDrum":true},{"pitch":40,"velocity":102,"startTime":30.326090999999998,"endTime":30.4891345,"isDrum":true},{"pitch":35,"velocity":102,"startTime":30.4891345,"endTime":30.652178,"isDrum":true},{"pitch":40,"velocity":102,"startTime":30.652178,"endTime":30.815221499999996,"isDrum":true},{"pitch":42,"velocity":102,"startTime":30.652178,"endTime":30.815221499999996,"isDrum":true},{"pitch":35,"velocity":102,"startTime":30.978264999999997,"endTime":31.141308499999997,"isDrum":true},{"pitch":42,"velocity":102,"startTime":30.978264999999997,"endTime":31.141308499999997,"isDrum":true},{"pitch":35,"velocity":102,"startTime":31.304351999999998,"endTime":31.4673955,"isDrum":true},{"pitch":42,"velocity":102,"startTime":31.304351999999998,"endTime":31.4673955,"isDrum":true},{"pitch":42,"velocity":102,"startTime":31.630439,"endTime":31.793482499999996,"isDrum":true},{"pitch":40,"velocity":102,"startTime":31.956525999999997,"endTime":32.1195695,"isDrum":true},{"pitch":42,"velocity":102,"startTime":31.956525999999997,"endTime":32.1195695,"isDrum":true},{"pitch":42,"velocity":102,"startTime":32.282613,"endTime":32.4456565,"isDrum":true},{"pitch":35,"velocity":102,"startTime":32.6087,"endTime":32.7717435,"isDrum":true},{"pitch":42,"velocity":102,"startTime":32.6087,"endTime":32.7717435,"isDrum":true},{"pitch":42,"velocity":102,"startTime":32.934787,"endTime":33.0978305,"isDrum":true},{"pitch":40,"velocity":102,"startTime":33.260873999999994,"endTime":33.423917499999995,"isDrum":true},{"pitch":42,"velocity":102,"startTime":33.260873999999994,"endTime":33.423917499999995,"isDrum":true},{"pitch":42,"velocity":102,"startTime":33.586960999999995,"endTime":33.750004499999996,"isDrum":true},{"pitch":35,"velocity":102,"startTime":33.913047999999996,"endTime":34.0760915,"isDrum":true},{"pitch":42,"velocity":102,"startTime":33.913047999999996,"endTime":34.0760915,"isDrum":true},{"pitch":42,"velocity":102,"startTime":34.239135,"endTime":34.4021785,"isDrum":true},{"pitch":40,"velocity":102,"startTime":34.565222,"endTime":34.7282655,"isDrum":true},{"pitch":42,"velocity":102,"startTime":34.565222,"endTime":34.7282655,"isDrum":true},{"pitch":42,"velocity":102,"startTime":34.891309,"endTime":35.0543525,"isDrum":true},{"pitch":35,"velocity":102,"startTime":35.217396,"endTime":35.380439499999994,"isDrum":true},{"pitch":42,"velocity":102,"startTime":35.217396,"endTime":35.380439499999994,"isDrum":true},{"pitch":42,"velocity":102,"startTime":35.543482999999995,"endTime":35.706526499999995,"isDrum":true},{"pitch":40,"velocity":102,"startTime":35.869569999999996,"endTime":36.0326135,"isDrum":true},{"pitch":42,"velocity":102,"startTime":35.869569999999996,"endTime":36.0326135,"isDrum":true},{"pitch":42,"velocity":102,"startTime":36.195657,"endTime":36.3587005,"isDrum":true},{"pitch":35,"velocity":102,"startTime":36.521744,"endTime":36.6847875,"isDrum":true},{"pitch":42,"velocity":102,"startTime":36.521744,"endTime":36.6847875,"isDrum":true},{"pitch":42,"velocity":102,"startTime":36.847831,"endTime":37.0108745,"isDrum":true},{"pitch":40,"velocity":102,"startTime":37.173918,"endTime":37.336961499999994,"isDrum":true},{"pitch":42,"velocity":102,"startTime":37.173918,"endTime":37.336961499999994,"isDrum":true},{"pitch":42,"velocity":102,"startTime":37.500004999999994,"endTime":37.663048499999995,"isDrum":true},{"pitch":35,"velocity":102,"startTime":37.663048499999995,"endTime":37.826091999999996,"isDrum":true},{"pitch":35,"velocity":102,"startTime":37.826091999999996,"endTime":37.989135499999996,"isDrum":true},{"pitch":42,"velocity":102,"startTime":37.826091999999996,"endTime":37.989135499999996,"isDrum":true},{"pitch":42,"velocity":102,"startTime":38.152179,"endTime":38.3152225,"isDrum":true},{"pitch":40,"velocity":102,"startTime":38.478266,"endTime":38.6413095,"isDrum":true},{"pitch":42,"velocity":102,"startTime":38.478266,"endTime":38.6413095,"isDrum":true},{"pitch":42,"velocity":102,"startTime":38.804353,"endTime":38.9673965,"isDrum":true},{"pitch":35,"velocity":102,"startTime":39.13044,"endTime":39.293483499999994,"isDrum":true},{"pitch":42,"velocity":102,"startTime":39.13044,"endTime":39.293483499999994,"isDrum":true},{"pitch":42,"velocity":102,"startTime":39.456526999999994,"endTime":39.619570499999995,"isDrum":true},{"pitch":40,"velocity":102,"startTime":39.782613999999995,"endTime":39.945657499999996,"isDrum":true},{"pitch":42,"velocity":102,"startTime":39.782613999999995,"endTime":39.945657499999996,"isDrum":true},{"pitch":42,"velocity":102,"startTime":40.108700999999996,"endTime":40.2717445,"isDrum":true},{"pitch":35,"velocity":102,"startTime":40.2717445,"endTime":40.434788,"isDrum":true},{"pitch":35,"velocity":102,"startTime":40.434788,"endTime":40.5978315,"isDrum":true},{"pitch":42,"velocity":102,"startTime":40.434788,"endTime":40.5978315,"isDrum":true},{"pitch":42,"velocity":102,"startTime":40.760875,"endTime":40.9239185,"isDrum":true},{"pitch":40,"velocity":102,"startTime":41.086962,"endTime":41.2500055,"isDrum":true},{"pitch":42,"velocity":102,"startTime":41.086962,"endTime":41.2500055,"isDrum":true},{"pitch":42,"velocity":102,"startTime":41.413048999999994,"endTime":41.576092499999994,"isDrum":true},{"pitch":63,"velocity":95,"startTime":20.869567999999997,"endTime":20.978263666666663,"instrument":1,"program":12},{"pitch":67,"velocity":95,"startTime":21.032611499999998,"endTime":21.141307166666664,"instrument":1,"program":12},{"pitch":72,"velocity":95,"startTime":21.195655,"endTime":21.30435066666666,"instrument":1,"program":12},{"pitch":63,"velocity":95,"startTime":21.3586985,"endTime":21.46739416666666,"instrument":1,"program":12},{"pitch":67,"velocity":95,"startTime":21.521742,"endTime":21.630437666666662,"instrument":1,"program":12},{"pitch":72,"velocity":95,"startTime":21.684785499999997,"endTime":21.793481166666663,"instrument":1,"program":12},{"pitch":72,"velocity":95,"startTime":21.847828999999997,"endTime":21.956524666666663,"instrument":1,"program":12},{"pitch":67,"velocity":95,"startTime":22.010872499999998,"endTime":22.119568166666664,"instrument":1,"program":12},{"pitch":72,"velocity":95,"startTime":22.173916,"endTime":22.282611666666664,"instrument":1,"program":12},{"pitch":75,"velocity":95,"startTime":22.3369595,"endTime":22.445655166666665,"instrument":1,"program":12},{"pitch":72,"velocity":95,"startTime":22.500003,"endTime":22.608698666666665,"instrument":1,"program":12},{"pitch":63,"velocity":95,"startTime":22.663046499999997,"endTime":22.771742166666666,"instrument":1,"program":12},{"pitch":67,"velocity":95,"startTime":22.826089999999997,"endTime":22.934785666666667,"instrument":1,"program":12},{"pitch":72,"velocity":95,"startTime":22.989133499999998,"endTime":23.097829166666664,"instrument":1,"program":12},{"pitch":67,"velocity":95,"startTime":23.152177,"endTime":23.260872666666664,"instrument":1,"program":12},{"pitch":72,"velocity":95,"startTime":23.3152205,"endTime":23.423916166666665,"instrument":1,"program":12},{"pitch":63,"velocity":95,"startTime":23.478264,"endTime":23.6413075,"instrument":1,"program":12},{"pitch":67,"velocity":95,"startTime":23.6413075,"endTime":23.750003166666666,"instrument":1,"program":12},{"pitch":70,"velocity":95,"startTime":23.804350999999997,"endTime":23.913046666666666,"instrument":1,"program":12},{"pitch":72,"velocity":95,"startTime":23.967394499999997,"endTime":24.076090166666663,"instrument":1,"program":12},{"pitch":63,"velocity":95,"startTime":24.130437999999998,"endTime":24.239133666666664,"instrument":1,"program":12},{"pitch":72,"velocity":95,"startTime":24.2934815,"endTime":24.402177166666664,"instrument":1,"program":12},{"pitch":67,"velocity":95,"startTime":24.456525,"endTime":24.565220666666665,"instrument":1,"program":12},{"pitch":70,"velocity":95,"startTime":24.6195685,"endTime":24.728264166666666,"instrument":1,"program":12},{"pitch":63,"velocity":95,"startTime":24.782611999999997,"endTime":24.891307666666666,"instrument":1,"program":12},{"pitch":67,"velocity":95,"startTime":24.945655499999997,"endTime":25.054351166666663,"instrument":1,"program":12},{"pitch":72,"velocity":95,"startTime":25.108698999999998,"endTime":25.217394666666664,"instrument":1,"program":12},{"pitch":75,"velocity":95,"startTime":25.2717425,"endTime":25.380438166666664,"instrument":1,"program":12},{"pitch":72,"velocity":95,"startTime":25.434786,"endTime":25.543481666666665,"instrument":1,"program":12},{"pitch":67,"velocity":95,"startTime":25.5978295,"endTime":25.706525166666665,"instrument":1,"program":12},{"pitch":63,"velocity":95,"startTime":25.760872999999997,"endTime":25.869568666666666,"instrument":1,"program":12},{"pitch":70,"velocity":95,"startTime":25.923916499999997,"endTime":26.032612166666663,"instrument":1,"program":12},{"pitch":62,"velocity":95,"startTime":26.086959999999998,"endTime":26.195655666666664,"instrument":1,"program":12},{"pitch":67,"velocity":95,"startTime":26.2500035,"endTime":26.358699166666664,"instrument":1,"program":12},{"pitch":70,"velocity":95,"startTime":26.413047,"endTime":26.521742666666665,"instrument":1,"program":12},{"pitch":62,"velocity":95,"startTime":26.5760905,"endTime":26.684786166666665,"instrument":1,"program":12},{"pitch":67,"velocity":95,"startTime":26.739133999999996,"endTime":26.847829666666666,"instrument":1,"program":12},{"pitch":70,"velocity":95,"startTime":26.902177499999997,"endTime":27.010873166666666,"instrument":1,"program":12},{"pitch":74,"velocity":95,"startTime":27.065220999999998,"endTime":27.173916666666663,"instrument":1,"program":12},{"pitch":67,"velocity":95,"startTime":27.228264499999998,"endTime":27.336960166666664,"instrument":1,"program":12},{"pitch":70,"velocity":95,"startTime":27.391308,"endTime":27.500003666666665,"instrument":1,"program":12},{"pitch":67,"velocity":95,"startTime":27.5543515,"endTime":27.663047166666665,"instrument":1,"program":12},{"pitch":70,"velocity":95,"startTime":27.717394999999996,"endTime":27.826090666666666,"instrument":1,"program":12},{"pitch":74,"velocity":95,"startTime":27.880438499999997,"endTime":27.989134166666666,"instrument":1,"program":12},{"pitch":70,"velocity":95,"startTime":28.043481999999997,"endTime":28.152177666666663,"instrument":1,"program":12},{"pitch":67,"velocity":95,"startTime":28.206525499999998,"endTime":28.315221166666664,"instrument":1,"program":12},{"pitch":70,"velocity":95,"startTime":28.369569,"endTime":28.478264666666664,"instrument":1,"program":12},{"pitch":62,"velocity":95,"startTime":28.5326125,"endTime":28.641308166666665,"instrument":1,"program":12},{"pitch":70,"velocity":95,"startTime":28.695656,"endTime":28.804351666666665,"instrument":1,"program":12},{"pitch":74,"velocity":95,"startTime":28.858699499999997,"endTime":28.967395166666666,"instrument":1,"program":12},{"pitch":70,"velocity":95,"startTime":29.021742999999997,"endTime":29.130438666666663,"instrument":1,"program":12},{"pitch":67,"velocity":95,"startTime":29.184786499999998,"endTime":29.293482166666664,"instrument":1,"program":12},{"pitch":70,"velocity":95,"startTime":29.34783,"endTime":29.456525666666664,"instrument":1,"program":12},{"pitch":67,"velocity":95,"startTime":29.5108735,"endTime":29.619569166666665,"instrument":1,"program":12},{"pitch":62,"velocity":95,"startTime":29.673917,"endTime":29.782612666666665,"instrument":1,"program":12},{"pitch":67,"velocity":95,"startTime":29.836960499999996,"endTime":29.945656166666666,"instrument":1,"program":12},{"pitch":70,"velocity":95,"startTime":30.000003999999997,"endTime":30.108699666666663,"instrument":1,"program":12},{"pitch":67,"velocity":95,"startTime":30.163047499999998,"endTime":30.271743166666663,"instrument":1,"program":12},{"pitch":70,"velocity":95,"startTime":30.326090999999998,"endTime":30.434786666666664,"instrument":1,"program":12},{"pitch":67,"velocity":95,"startTime":30.4891345,"endTime":30.597830166666665,"instrument":1,"program":12},{"pitch":74,"velocity":95,"startTime":30.652178,"endTime":30.760873666666665,"instrument":1,"program":12},{"pitch":70,"velocity":95,"startTime":30.815221499999996,"endTime":30.923917166666666,"instrument":1,"program":12},{"pitch":67,"velocity":95,"startTime":30.978264999999997,"endTime":31.141308499999997,"instrument":1,"program":12},{"pitch":70,"velocity":95,"startTime":31.141308499999997,"endTime":31.250004166666663,"instrument":1,"program":12},{"pitch":62,"velocity":95,"startTime":31.304351999999998,"endTime":31.4673955,"instrument":1,"program":12},{"pitch":66,"velocity":95,"startTime":31.4673955,"endTime":31.576091166666668,"instrument":1,"program":12},{"pitch":69,"velocity":95,"startTime":31.630439,"endTime":31.73913466666667,"instrument":1,"program":12},{"pitch":62,"velocity":95,"startTime":31.793482499999996,"endTime":31.90217816666667,"instrument":1,"program":12},{"pitch":69,"velocity":95,"startTime":31.956525999999997,"endTime":32.065221666666666,"instrument":1,"program":12},{"pitch":66,"velocity":95,"startTime":32.1195695,"endTime":32.22826516666667,"instrument":1,"program":12},{"pitch":69,"velocity":95,"startTime":32.282613,"endTime":32.39130866666667,"instrument":1,"program":12},{"pitch":62,"velocity":95,"startTime":32.4456565,"endTime":32.55435216666667,"instrument":1,"program":12},{"pitch":69,"velocity":95,"startTime":32.6087,"endTime":32.71739566666667,"instrument":1,"program":12},{"pitch":66,"velocity":95,"startTime":32.7717435,"endTime":32.88043916666667,"instrument":1,"program":12},{"pitch":69,"velocity":95,"startTime":32.934787,"endTime":33.04348266666667,"instrument":1,"program":12},{"pitch":62,"velocity":95,"startTime":33.0978305,"endTime":33.20652616666667,"instrument":1,"program":12},{"pitch":66,"velocity":95,"startTime":33.260873999999994,"endTime":33.36956966666667,"instrument":1,"program":12},{"pitch":69,"velocity":95,"startTime":33.423917499999995,"endTime":33.53261316666667,"instrument":1,"program":12},{"pitch":62,"velocity":95,"startTime":33.586960999999995,"endTime":33.69565666666667,"instrument":1,"program":12},{"pitch":69,"velocity":95,"startTime":33.750004499999996,"endTime":33.85870016666667,"instrument":1,"program":12},{"pitch":60,"velocity":95,"startTime":33.913047999999996,"endTime":34.0760915,"instrument":1,"program":12},{"pitch":69,"velocity":95,"startTime":34.0760915,"endTime":34.184787166666666,"instrument":1,"program":12},{"pitch":69,"velocity":95,"startTime":34.239135,"endTime":34.34783066666667,"instrument":1,"program":12},{"pitch":72,"velocity":95,"startTime":34.4021785,"endTime":34.51087416666667,"instrument":1,"program":12},{"pitch":69,"velocity":95,"startTime":34.565222,"endTime":34.67391766666667,"instrument":1,"program":12},{"pitch":69,"velocity":95,"startTime":34.7282655,"endTime":34.83696116666667,"instrument":1,"program":12},{"pitch":60,"velocity":95,"startTime":34.891309,"endTime":35.00000466666667,"instrument":1,"program":12},{"pitch":69,"velocity":95,"startTime":35.0543525,"endTime":35.16304816666667,"instrument":1,"program":12},{"pitch":66,"velocity":95,"startTime":35.217396,"endTime":35.32609166666667,"instrument":1,"program":12},{"pitch":69,"velocity":95,"startTime":35.380439499999994,"endTime":35.48913516666667,"instrument":1,"program":12},{"pitch":69,"velocity":95,"startTime":35.543482999999995,"endTime":35.65217866666667,"instrument":1,"program":12},{"pitch":69,"velocity":95,"startTime":35.706526499999995,"endTime":35.81522216666667,"instrument":1,"program":12},{"pitch":72,"velocity":95,"startTime":35.869569999999996,"endTime":35.978265666666665,"instrument":1,"program":12},{"pitch":69,"velocity":95,"startTime":36.0326135,"endTime":36.141309166666666,"instrument":1,"program":12},{"pitch":69,"velocity":95,"startTime":36.195657,"endTime":36.46739616666667,"instrument":1,"program":12},{"pitch":67,"velocity":95,"startTime":36.521744,"endTime":36.63043966666667,"instrument":1,"program":12},{"pitch":70,"velocity":95,"startTime":36.6847875,"endTime":36.79348316666667,"instrument":1,"program":12},{"pitch":67,"velocity":95,"startTime":36.847831,"endTime":36.95652666666667,"instrument":1,"program":12},{"pitch":70,"velocity":95,"startTime":37.0108745,"endTime":37.11957016666667,"instrument":1,"program":12},{"pitch":67,"velocity":95,"startTime":37.173918,"endTime":37.28261366666667,"instrument":1,"program":12},{"pitch":70,"velocity":95,"startTime":37.336961499999994,"endTime":37.44565716666667,"instrument":1,"program":12},{"pitch":67,"velocity":95,"startTime":37.500004999999994,"endTime":37.60870066666667,"instrument":1,"program":12},{"pitch":70,"velocity":95,"startTime":37.663048499999995,"endTime":37.77174416666667,"instrument":1,"program":12},{"pitch":70,"velocity":95,"startTime":39.13044,"endTime":39.23913566666667,"instrument":1,"program":12},{"pitch":72,"velocity":95,"startTime":39.293483499999994,"endTime":39.40217916666667,"instrument":1,"program":12},{"pitch":67,"velocity":95,"startTime":39.456526999999994,"endTime":39.56522266666667,"instrument":1,"program":12},{"pitch":70,"velocity":95,"startTime":39.619570499999995,"endTime":39.72826616666667,"instrument":1,"program":12},{"pitch":72,"velocity":95,"startTime":39.782613999999995,"endTime":39.89130966666667,"instrument":1,"program":12},{"pitch":67,"velocity":95,"startTime":39.945657499999996,"endTime":40.054353166666665,"instrument":1,"program":12},{"pitch":70,"velocity":95,"startTime":40.108700999999996,"endTime":40.217396666666666,"instrument":1,"program":12},{"pitch":67,"velocity":95,"startTime":40.2717445,"endTime":40.380440166666666,"instrument":1,"program":12},{"pitch":70,"velocity":95,"startTime":40.434788,"endTime":40.54348366666667,"instrument":1,"program":12},{"pitch":67,"velocity":95,"startTime":40.5978315,"endTime":40.70652716666667,"instrument":1,"program":12},{"pitch":70,"velocity":95,"startTime":40.760875,"endTime":40.86957066666667,"instrument":1,"program":12},{"pitch":67,"velocity":95,"startTime":40.9239185,"endTime":41.03261416666667,"instrument":1,"program":12},{"pitch":70,"velocity":95,"startTime":41.086962,"endTime":41.19565766666667,"instrument":1,"program":12},{"pitch":67,"velocity":95,"startTime":41.2500055,"endTime":41.35870116666667,"instrument":1,"program":12},{"pitch":70,"velocity":95,"startTime":41.413048999999994,"endTime":41.52174466666667,"instrument":1,"program":12},{"pitch":67,"velocity":95,"startTime":41.576092499999994,"endTime":41.68478816666667,"instrument":1,"program":12},{"pitch":36,"velocity":110,"startTime":20.869567999999997,"endTime":21.195655,"instrument":2,"program":32},{"pitch":28,"velocity":110,"startTime":21.3586985,"endTime":21.521742,"instrument":2,"program":32},{"pitch":28,"velocity":110,"startTime":21.684785499999997,"endTime":21.793481166666663,"instrument":2,"program":32},{"pitch":36,"velocity":110,"startTime":21.847828999999997,"endTime":22.010872499999998,"instrument":2,"program":32},{"pitch":39,"velocity":110,"startTime":22.173916,"endTime":22.3369595,"instrument":2,"program":32},{"pitch":39,"velocity":110,"startTime":22.500003,"endTime":22.663046499999997,"instrument":2,"program":32},{"pitch":34,"velocity":110,"startTime":22.826089999999997,"endTime":22.989133499999998,"instrument":2,"program":32},{"pitch":48,"velocity":110,"startTime":23.152177,"endTime":23.3152205,"instrument":2,"program":32},{"pitch":39,"velocity":110,"startTime":23.478264,"endTime":23.804350999999997,"instrument":2,"program":32},{"pitch":46,"velocity":110,"startTime":23.967394499999997,"endTime":24.130437999999998,"instrument":2,"program":32},{"pitch":46,"velocity":110,"startTime":24.2934815,"endTime":24.456525,"instrument":2,"program":32},{"pitch":36,"velocity":110,"startTime":24.456525,"endTime":24.6195685,"instrument":2,"program":32},{"pitch":39,"velocity":110,"startTime":24.782611999999997,"endTime":24.945655499999997,"instrument":2,"program":32},{"pitch":39,"velocity":110,"startTime":25.108698999999998,"endTime":25.2717425,"instrument":2,"program":32},{"pitch":39,"velocity":110,"startTime":25.434786,"endTime":25.760872999999997,"instrument":2,"program":32},{"pitch":34,"velocity":110,"startTime":25.923916499999997,"endTime":26.032612166666663,"instrument":2,"program":32},{"pitch":43,"velocity":110,"startTime":26.086959999999998,"endTime":26.413047,"instrument":2,"program":32},{"pitch":38,"velocity":110,"startTime":26.5760905,"endTime":26.739133999999996,"instrument":2,"program":32},{"pitch":34,"velocity":110,"startTime":26.902177499999997,"endTime":27.065220999999998,"instrument":2,"program":32},{"pitch":38,"velocity":110,"startTime":27.065220999999998,"endTime":27.228264499999998,"instrument":2,"program":32},{"pitch":31,"velocity":110,"startTime":27.391308,"endTime":27.5543515,"instrument":2,"program":32},{"pitch":31,"velocity":110,"startTime":27.717394999999996,"endTime":27.880438499999997,"instrument":2,"program":32},{"pitch":31,"velocity":110,"startTime":28.043481999999997,"endTime":28.206525499999998,"instrument":2,"program":32},{"pitch":38,"velocity":110,"startTime":28.369569,"endTime":28.5326125,"instrument":2,"program":32},{"pitch":31,"velocity":110,"startTime":28.695656,"endTime":29.021742999999997,"instrument":2,"program":32},{"pitch":31,"velocity":110,"startTime":29.184786499999998,"endTime":29.34783,"instrument":2,"program":32},{"pitch":31,"velocity":110,"startTime":29.5108735,"endTime":29.673917,"instrument":2,"program":32},{"pitch":38,"velocity":110,"startTime":29.673917,"endTime":29.836960499999996,"instrument":2,"program":32},{"pitch":31,"velocity":110,"startTime":30.000003999999997,"endTime":30.163047499999998,"instrument":2,"program":32},{"pitch":31,"velocity":110,"startTime":30.326090999999998,"endTime":30.4891345,"instrument":2,"program":32},{"pitch":31,"velocity":110,"startTime":30.652178,"endTime":30.815221499999996,"instrument":2,"program":32},{"pitch":31,"velocity":110,"startTime":30.978264999999997,"endTime":31.141308499999997,"instrument":2,"program":32},{"pitch":38,"velocity":110,"startTime":31.304351999999998,"endTime":31.630439,"instrument":2,"program":32},{"pitch":33,"velocity":110,"startTime":31.793482499999996,"endTime":31.956525999999997,"instrument":2,"program":32},{"pitch":36,"velocity":110,"startTime":32.1195695,"endTime":32.282613,"instrument":2,"program":32},{"pitch":38,"velocity":110,"startTime":32.282613,"endTime":32.4456565,"instrument":2,"program":32},{"pitch":33,"velocity":110,"startTime":32.6087,"endTime":32.7717435,"instrument":2,"program":32},{"pitch":36,"velocity":110,"startTime":32.934787,"endTime":33.0978305,"instrument":2,"program":32},{"pitch":33,"velocity":110,"startTime":33.260873999999994,"endTime":33.423917499999995,"instrument":2,"program":32},{"pitch":36,"velocity":110,"startTime":33.586960999999995,"endTime":33.750004499999996,"instrument":2,"program":32},{"pitch":38,"velocity":110,"startTime":33.913047999999996,"endTime":34.239135,"instrument":2,"program":32},{"pitch":38,"velocity":110,"startTime":34.4021785,"endTime":34.565222,"instrument":2,"program":32},{"pitch":38,"velocity":110,"startTime":34.7282655,"endTime":34.891309,"instrument":2,"program":32},{"pitch":38,"velocity":110,"startTime":34.891309,"endTime":35.0543525,"instrument":2,"program":32},{"pitch":38,"velocity":110,"startTime":35.217396,"endTime":35.380439499999994,"instrument":2,"program":32},{"pitch":38,"velocity":110,"startTime":35.706526499999995,"endTime":35.869569999999996,"instrument":2,"program":32},{"pitch":50,"velocity":110,"startTime":36.0326135,"endTime":36.195657,"instrument":2,"program":32},{"pitch":38,"velocity":110,"startTime":36.195657,"endTime":36.3587005,"instrument":2,"program":32},{"pitch":60,"velocity":105,"startTime":20.869567999999997,"endTime":22.500003,"instrument":3,"program":50},{"pitch":63,"velocity":105,"startTime":20.869567999999997,"endTime":22.500003,"instrument":3,"program":50},{"pitch":67,"velocity":105,"startTime":20.869567999999997,"endTime":22.500003,"instrument":3,"program":50},{"pitch":70,"velocity":105,"startTime":20.869567999999997,"endTime":22.500003,"instrument":3,"program":50},{"pitch":75,"velocity":105,"startTime":20.869567999999997,"endTime":22.500003,"instrument":3,"program":50},{"pitch":60,"velocity":105,"startTime":22.500003,"endTime":23.478264,"instrument":3,"program":50},{"pitch":63,"velocity":105,"startTime":22.500003,"endTime":23.478264,"instrument":3,"program":50},{"pitch":67,"velocity":105,"startTime":22.500003,"endTime":23.478264,"instrument":3,"program":50},{"pitch":70,"velocity":105,"startTime":22.500003,"endTime":23.478264,"instrument":3,"program":50},{"pitch":60,"velocity":105,"startTime":23.478264,"endTime":26.086959999999998,"instrument":3,"program":50},{"pitch":63,"velocity":105,"startTime":23.478264,"endTime":26.086959999999998,"instrument":3,"program":50},{"pitch":67,"velocity":105,"startTime":23.478264,"endTime":26.086959999999998,"instrument":3,"program":50},{"pitch":70,"velocity":105,"startTime":23.478264,"endTime":26.086959999999998,"instrument":3,"program":50},{"pitch":62,"velocity":105,"startTime":26.086959999999998,"endTime":28.695656,"instrument":3,"program":50},{"pitch":67,"velocity":105,"startTime":26.086959999999998,"endTime":28.695656,"instrument":3,"program":50},{"pitch":70,"velocity":105,"startTime":26.086959999999998,"endTime":28.695656,"instrument":3,"program":50},{"pitch":74,"velocity":105,"startTime":26.086959999999998,"endTime":28.695656,"instrument":3,"program":50},{"pitch":58,"velocity":105,"startTime":28.695656,"endTime":31.304351999999998,"instrument":3,"program":50},{"pitch":62,"velocity":105,"startTime":28.695656,"endTime":29.184786499999998,"instrument":3,"program":50},{"pitch":67,"velocity":105,"startTime":28.695656,"endTime":30.000003999999997,"instrument":3,"program":50},{"pitch":74,"velocity":105,"startTime":28.695656,"endTime":31.304351999999998,"instrument":3,"program":50},{"pitch":62,"velocity":105,"startTime":29.184786499999998,"endTime":29.34783,"instrument":3,"program":50},{"pitch":62,"velocity":105,"startTime":29.34783,"endTime":29.72826483333333,"instrument":3,"program":50},{"pitch":74,"velocity":105,"startTime":29.673917,"endTime":30.000003999999997,"instrument":3,"program":50},{"pitch":67,"velocity":105,"startTime":30.000003999999997,"endTime":31.304351999999998,"instrument":3,"program":50},{"pitch":74,"velocity":105,"startTime":30.000003999999997,"endTime":30.326090999999998,"instrument":3,"program":50},{"pitch":67,"velocity":105,"startTime":30.326090999999998,"endTime":30.652178,"instrument":3,"program":50},{"pitch":67,"velocity":105,"startTime":30.652178,"endTime":30.815221499999996,"instrument":3,"program":50},{"pitch":62,"velocity":105,"startTime":30.815221499999996,"endTime":31.304351999999998,"instrument":3,"program":50},{"pitch":60,"velocity":105,"startTime":31.304351999999998,"endTime":33.641308833333326,"instrument":3,"program":50},{"pitch":66,"velocity":105,"startTime":31.304351999999998,"endTime":33.641308833333326,"instrument":3,"program":50},{"pitch":70,"velocity":105,"startTime":31.304351999999998,"endTime":33.586960999999995,"instrument":3,"program":50},{"pitch":74,"velocity":105,"startTime":31.304351999999998,"endTime":33.641308833333326,"instrument":3,"program":50},{"pitch":60,"velocity":105,"startTime":33.913047999999996,"endTime":36.195657,"instrument":3,"program":50},{"pitch":62,"velocity":105,"startTime":33.913047999999996,"endTime":36.195657,"instrument":3,"program":50},{"pitch":66,"velocity":105,"startTime":33.913047999999996,"endTime":36.195657,"instrument":3,"program":50},{"pitch":69,"velocity":105,"startTime":33.913047999999996,"endTime":36.195657,"instrument":3,"program":50},{"pitch":74,"velocity":105,"startTime":33.913047999999996,"endTime":36.195657,"instrument":3,"program":50},{"pitch":55,"velocity":105,"startTime":36.195657,"endTime":36.521744,"instrument":3,"program":50},{"pitch":62,"velocity":105,"startTime":36.195657,"endTime":36.521744,"instrument":3,"program":50},{"pitch":64,"velocity":105,"startTime":36.195657,"endTime":36.521744,"instrument":3,"program":50},{"pitch":70,"velocity":105,"startTime":36.195657,"endTime":36.521744,"instrument":3,"program":50},{"pitch":35,"velocity":102,"startTime":41.739135999999995,"endTime":41.84783166666667,"isDrum":true},{"pitch":42,"velocity":102,"startTime":41.739135999999995,"endTime":41.84783166666667,"isDrum":true},{"pitch":42,"velocity":102,"startTime":42.065222999999996,"endTime":42.173918666666665,"isDrum":true},{"pitch":35,"velocity":102,"startTime":42.2282665,"endTime":42.336962166666666,"isDrum":true},{"pitch":40,"velocity":102,"startTime":42.39131,"endTime":42.50000566666667,"isDrum":true},{"pitch":42,"velocity":102,"startTime":42.39131,"endTime":42.50000566666667,"isDrum":true},{"pitch":35,"velocity":102,"startTime":42.717397,"endTime":42.82609266666667,"isDrum":true},{"pitch":42,"velocity":102,"startTime":42.717397,"endTime":42.82609266666667,"isDrum":true},{"pitch":35,"velocity":102,"startTime":43.043484,"endTime":43.15217966666667,"isDrum":true},{"pitch":42,"velocity":102,"startTime":43.043484,"endTime":43.15217966666667,"isDrum":true},{"pitch":42,"velocity":102,"startTime":43.36957099999999,"endTime":43.47826666666667,"isDrum":true},{"pitch":40,"velocity":102,"startTime":43.695657999999995,"endTime":43.80435366666667,"isDrum":true},{"pitch":42,"velocity":102,"startTime":43.695657999999995,"endTime":43.80435366666667,"isDrum":true},{"pitch":42,"velocity":102,"startTime":44.021744999999996,"endTime":44.130440666666665,"isDrum":true},{"pitch":35,"velocity":102,"startTime":44.184788499999996,"endTime":44.293484166666666,"isDrum":true},{"pitch":42,"velocity":102,"startTime":44.347832,"endTime":44.456527666666666,"isDrum":true},{"pitch":40,"velocity":102,"startTime":44.5108755,"endTime":44.61957116666667,"isDrum":true},{"pitch":35,"velocity":102,"startTime":44.673919,"endTime":44.78261466666666,"isDrum":true},{"pitch":42,"velocity":102,"startTime":44.673919,"endTime":44.78261466666666,"isDrum":true},{"pitch":40,"velocity":102,"startTime":44.8369625,"endTime":44.94565816666666,"isDrum":true},{"pitch":40,"velocity":102,"startTime":45.000006,"endTime":45.10870166666666,"isDrum":true},{"pitch":42,"velocity":102,"startTime":45.000006,"endTime":45.10870166666666,"isDrum":true},{"pitch":35,"velocity":102,"startTime":45.32609299999999,"endTime":45.43478866666666,"isDrum":true},{"pitch":42,"velocity":102,"startTime":45.32609299999999,"endTime":45.43478866666666,"isDrum":true},{"pitch":35,"velocity":102,"startTime":45.652179999999994,"endTime":45.760875666666664,"isDrum":true},{"pitch":42,"velocity":102,"startTime":45.652179999999994,"endTime":45.760875666666664,"isDrum":true},{"pitch":42,"velocity":102,"startTime":45.978266999999995,"endTime":46.086962666666665,"isDrum":true},{"pitch":40,"velocity":102,"startTime":46.304354,"endTime":46.413049666666666,"isDrum":true},{"pitch":42,"velocity":102,"startTime":46.304354,"endTime":46.413049666666666,"isDrum":true},{"pitch":48,"velocity":102,"startTime":46.304354,"endTime":46.413049666666666,"isDrum":true},{"pitch":42,"velocity":102,"startTime":46.630441,"endTime":46.73913666666666,"isDrum":true},{"pitch":35,"velocity":102,"startTime":46.956528,"endTime":47.06522366666666,"isDrum":true},{"pitch":42,"velocity":102,"startTime":46.956528,"endTime":47.06522366666666,"isDrum":true},{"pitch":35,"velocity":102,"startTime":47.282615,"endTime":47.39131066666666,"isDrum":true},{"pitch":42,"velocity":102,"startTime":47.282615,"endTime":47.39131066666666,"isDrum":true},{"pitch":40,"velocity":102,"startTime":47.608701999999994,"endTime":47.71739766666666,"isDrum":true},{"pitch":42,"velocity":102,"startTime":47.608701999999994,"endTime":47.71739766666666,"isDrum":true},{"pitch":48,"velocity":102,"startTime":47.608701999999994,"endTime":47.71739766666666,"isDrum":true},{"pitch":40,"velocity":102,"startTime":47.771745499999994,"endTime":47.880441166666664,"isDrum":true},{"pitch":42,"velocity":102,"startTime":47.934788999999995,"endTime":48.043484666666664,"isDrum":true},{"pitch":40,"velocity":102,"startTime":48.097832499999996,"endTime":48.206528166666665,"isDrum":true},{"pitch":35,"velocity":102,"startTime":48.260875999999996,"endTime":48.369571666666666,"isDrum":true},{"pitch":42,"velocity":102,"startTime":48.260875999999996,"endTime":48.369571666666666,"isDrum":true},{"pitch":42,"velocity":102,"startTime":48.586963,"endTime":48.69565866666666,"isDrum":true},{"pitch":40,"velocity":102,"startTime":48.91305,"endTime":49.02174566666666,"isDrum":true},{"pitch":42,"velocity":102,"startTime":48.91305,"endTime":49.02174566666666,"isDrum":true},{"pitch":42,"velocity":102,"startTime":49.239137,"endTime":49.34783266666666,"isDrum":true},{"pitch":35,"velocity":102,"startTime":49.40218049999999,"endTime":49.51087616666666,"isDrum":true},{"pitch":42,"velocity":102,"startTime":49.56522399999999,"endTime":49.67391966666666,"isDrum":true},{"pitch":35,"velocity":102,"startTime":49.891310999999995,"endTime":50.000006666666664,"isDrum":true},{"pitch":42,"velocity":102,"startTime":49.891310999999995,"endTime":50.000006666666664,"isDrum":true},{"pitch":40,"velocity":102,"startTime":50.217397999999996,"endTime":50.326093666666665,"isDrum":true},{"pitch":42,"velocity":102,"startTime":50.217397999999996,"endTime":50.326093666666665,"isDrum":true},{"pitch":48,"velocity":102,"startTime":50.217397999999996,"endTime":50.326093666666665,"isDrum":true},{"pitch":48,"velocity":102,"startTime":50.380441499999996,"endTime":50.489137166666666,"isDrum":true},{"pitch":42,"velocity":102,"startTime":50.543485,"endTime":50.652180666666666,"isDrum":true},{"pitch":35,"velocity":102,"startTime":50.7065285,"endTime":50.81522416666666,"isDrum":true},{"pitch":35,"velocity":102,"startTime":50.869572,"endTime":50.97826766666666,"isDrum":true},{"pitch":42,"velocity":102,"startTime":50.869572,"endTime":50.97826766666666,"isDrum":true},{"pitch":42,"velocity":102,"startTime":51.0326155,"endTime":51.14131116666666,"isDrum":true},{"pitch":35,"velocity":102,"startTime":51.195659,"endTime":51.30435466666666,"isDrum":true},{"pitch":42,"velocity":102,"startTime":51.195659,"endTime":51.30435466666666,"isDrum":true},{"pitch":40,"velocity":102,"startTime":51.52174599999999,"endTime":51.63044166666666,"isDrum":true},{"pitch":42,"velocity":102,"startTime":51.52174599999999,"endTime":51.63044166666666,"isDrum":true},{"pitch":42,"velocity":102,"startTime":51.847832999999994,"endTime":51.956528666666664,"isDrum":true},{"pitch":35,"velocity":102,"startTime":52.173919999999995,"endTime":52.282615666666665,"isDrum":true},{"pitch":42,"velocity":102,"startTime":52.173919999999995,"endTime":52.282615666666665,"isDrum":true},{"pitch":42,"velocity":102,"startTime":52.500007,"endTime":52.608702666666666,"isDrum":true},{"pitch":40,"velocity":102,"startTime":52.826094,"endTime":52.93478966666666,"isDrum":true},{"pitch":42,"velocity":102,"startTime":52.826094,"endTime":52.93478966666666,"isDrum":true},{"pitch":42,"velocity":102,"startTime":53.152181,"endTime":53.26087666666666,"isDrum":true},{"pitch":35,"velocity":102,"startTime":53.47826799999999,"endTime":53.58696366666666,"isDrum":true},{"pitch":42,"velocity":102,"startTime":53.47826799999999,"endTime":53.58696366666666,"isDrum":true},{"pitch":35,"velocity":102,"startTime":53.804354999999994,"endTime":53.91305066666666,"isDrum":true},{"pitch":42,"velocity":102,"startTime":53.804354999999994,"endTime":53.91305066666666,"isDrum":true},{"pitch":40,"velocity":102,"startTime":54.130441999999995,"endTime":54.239137666666664,"isDrum":true},{"pitch":42,"velocity":102,"startTime":54.130441999999995,"endTime":54.239137666666664,"isDrum":true},{"pitch":48,"velocity":102,"startTime":54.130441999999995,"endTime":54.239137666666664,"isDrum":true},{"pitch":48,"velocity":102,"startTime":54.293485499999996,"endTime":54.402181166666665,"isDrum":true},{"pitch":42,"velocity":102,"startTime":54.456528999999996,"endTime":54.565224666666666,"isDrum":true},{"pitch":35,"velocity":102,"startTime":54.6195725,"endTime":54.72826816666666,"isDrum":true},{"pitch":35,"velocity":102,"startTime":54.782616,"endTime":54.89131166666666,"isDrum":true},{"pitch":42,"velocity":102,"startTime":54.782616,"endTime":54.89131166666666,"isDrum":true},{"pitch":42,"velocity":102,"startTime":55.108703,"endTime":55.21739866666666,"isDrum":true},{"pitch":35,"velocity":102,"startTime":55.2717465,"endTime":55.38044216666666,"isDrum":true},{"pitch":40,"velocity":102,"startTime":55.43478999999999,"endTime":55.54348566666666,"isDrum":true},{"pitch":42,"velocity":102,"startTime":55.43478999999999,"endTime":55.54348566666666,"isDrum":true},{"pitch":48,"velocity":102,"startTime":55.43478999999999,"endTime":55.54348566666666,"isDrum":true},{"pitch":40,"velocity":102,"startTime":55.59783349999999,"endTime":55.70652916666666,"isDrum":true},{"pitch":35,"velocity":102,"startTime":55.760876999999994,"endTime":55.86957266666666,"isDrum":true},{"pitch":42,"velocity":102,"startTime":55.760876999999994,"endTime":55.86957266666666,"isDrum":true},{"pitch":40,"velocity":102,"startTime":55.923920499999994,"endTime":56.032616166666664,"isDrum":true},{"pitch":42,"velocity":102,"startTime":56.086963999999995,"endTime":56.195659666666664,"isDrum":true},{"pitch":35,"velocity":102,"startTime":56.413050999999996,"endTime":56.521746666666665,"isDrum":true},{"pitch":42,"velocity":102,"startTime":56.413050999999996,"endTime":56.521746666666665,"isDrum":true},{"pitch":40,"velocity":102,"startTime":56.739138,"endTime":56.84783366666666,"isDrum":true},{"pitch":42,"velocity":102,"startTime":56.739138,"endTime":56.84783366666666,"isDrum":true},{"pitch":40,"velocity":102,"startTime":56.9021815,"endTime":57.01087716666666,"isDrum":true},{"pitch":42,"velocity":102,"startTime":57.065225,"endTime":57.17392066666666,"isDrum":true},{"pitch":40,"velocity":102,"startTime":57.2282685,"endTime":57.33696416666666,"isDrum":true},{"pitch":35,"velocity":102,"startTime":57.391312,"endTime":57.50000766666666,"isDrum":true},{"pitch":42,"velocity":102,"startTime":57.391312,"endTime":57.50000766666666,"isDrum":true},{"pitch":48,"velocity":102,"startTime":57.391312,"endTime":57.50000766666666,"isDrum":true},{"pitch":48,"velocity":102,"startTime":57.55435549999999,"endTime":57.66305116666666,"isDrum":true},{"pitch":42,"velocity":102,"startTime":57.71739899999999,"endTime":57.82609466666666,"isDrum":true},{"pitch":35,"velocity":102,"startTime":57.880442499999994,"endTime":57.98913816666666,"isDrum":true},{"pitch":40,"velocity":102,"startTime":57.880442499999994,"endTime":57.98913816666666,"isDrum":true},{"pitch":40,"velocity":102,"startTime":58.043485999999994,"endTime":58.152181666666664,"isDrum":true},{"pitch":42,"velocity":102,"startTime":58.043485999999994,"endTime":58.152181666666664,"isDrum":true},{"pitch":48,"velocity":102,"startTime":58.043485999999994,"endTime":58.152181666666664,"isDrum":true},{"pitch":40,"velocity":102,"startTime":58.206529499999995,"endTime":58.315225166666664,"isDrum":true},{"pitch":42,"velocity":102,"startTime":58.369572999999995,"endTime":58.478268666666665,"isDrum":true},{"pitch":40,"velocity":102,"startTime":58.532616499999996,"endTime":58.641312166666665,"isDrum":true},{"pitch":42,"velocity":102,"startTime":58.69566,"endTime":58.80435566666666,"isDrum":true},{"pitch":45,"velocity":102,"startTime":58.69566,"endTime":58.80435566666666,"isDrum":true},{"pitch":40,"velocity":102,"startTime":58.8587035,"endTime":58.96739916666666,"isDrum":true},{"pitch":35,"velocity":102,"startTime":59.021747,"endTime":59.13044266666666,"isDrum":true},{"pitch":42,"velocity":102,"startTime":59.021747,"endTime":59.13044266666666,"isDrum":true},{"pitch":40,"velocity":102,"startTime":59.347834,"endTime":59.45652966666666,"isDrum":true},{"pitch":42,"velocity":102,"startTime":59.347834,"endTime":59.45652966666666,"isDrum":true},{"pitch":40,"velocity":102,"startTime":59.51087749999999,"endTime":59.61957316666666,"isDrum":true},{"pitch":46,"velocity":102,"startTime":59.67392099999999,"endTime":59.78261666666666,"isDrum":true},{"pitch":62,"velocity":95,"startTime":41.739135999999995,"endTime":41.95652733333333,"instrument":1,"program":12},{"pitch":74,"velocity":95,"startTime":42.065222999999996,"endTime":42.39131,"instrument":1,"program":12},{"pitch":69,"velocity":95,"startTime":42.39131,"endTime":42.717397,"instrument":1,"program":12},{"pitch":74,"velocity":95,"startTime":42.717397,"endTime":42.8804405,"instrument":1,"program":12},{"pitch":74,"velocity":95,"startTime":42.93478833333332,"endTime":43.043484,"instrument":1,"program":12},{"pitch":69,"velocity":95,"startTime":43.043484,"endTime":43.15217966666667,"instrument":1,"program":12},{"pitch":74,"velocity":95,"startTime":43.36957099999999,"endTime":43.47826666666667,"instrument":1,"program":12},{"pitch":62,"velocity":95,"startTime":43.695657999999995,"endTime":43.858701499999995,"instrument":1,"program":12},{"pitch":69,"velocity":95,"startTime":44.021744999999996,"endTime":44.130440666666665,"instrument":1,"program":12},{"pitch":62,"velocity":95,"startTime":44.347832,"endTime":44.456527666666666,"instrument":1,"program":12},{"pitch":69,"velocity":95,"startTime":44.673919,"endTime":44.78261466666666,"instrument":1,"program":12},{"pitch":74,"velocity":95,"startTime":44.8369625,"endTime":44.94565816666666,"instrument":1,"program":12},{"pitch":69,"velocity":95,"startTime":45.000006,"endTime":45.10870166666666,"instrument":1,"program":12},{"pitch":74,"velocity":95,"startTime":45.1630495,"endTime":45.27174516666666,"instrument":1,"program":12},{"pitch":69,"velocity":95,"startTime":45.32609299999999,"endTime":45.43478866666666,"instrument":1,"program":12},{"pitch":74,"velocity":95,"startTime":45.489136499999994,"endTime":45.59783216666666,"instrument":1,"program":12},{"pitch":74,"velocity":95,"startTime":45.652179999999994,"endTime":45.760875666666664,"instrument":1,"program":12},{"pitch":69,"velocity":95,"startTime":45.815223499999995,"endTime":45.923919166666664,"instrument":1,"program":12},{"pitch":74,"velocity":95,"startTime":45.978266999999995,"endTime":46.086962666666665,"instrument":1,"program":12},{"pitch":69,"velocity":95,"startTime":46.141310499999996,"endTime":46.19565833333333,"instrument":1,"program":12},{"pitch":74,"velocity":95,"startTime":46.304354,"endTime":46.413049666666666,"instrument":1,"program":12},{"pitch":69,"velocity":95,"startTime":46.4673975,"endTime":46.52174533333333,"instrument":1,"program":12},{"pitch":74,"velocity":95,"startTime":46.630441,"endTime":46.73913666666666,"instrument":1,"program":12},{"pitch":69,"velocity":95,"startTime":46.7934845,"endTime":46.90218016666666,"instrument":1,"program":12},{"pitch":58,"velocity":95,"startTime":46.956528,"endTime":47.06522366666666,"instrument":1,"program":12},{"pitch":65,"velocity":95,"startTime":47.1195715,"endTime":47.22826716666666,"instrument":1,"program":12},{"pitch":67,"velocity":95,"startTime":47.282615,"endTime":47.39131066666666,"instrument":1,"program":12},{"pitch":65,"velocity":95,"startTime":47.44565849999999,"endTime":47.55435416666666,"instrument":1,"program":12},{"pitch":74,"velocity":95,"startTime":47.608701999999994,"endTime":47.71739766666666,"instrument":1,"program":12},{"pitch":67,"velocity":95,"startTime":47.771745499999994,"endTime":47.880441166666664,"instrument":1,"program":12},{"pitch":65,"velocity":95,"startTime":47.934788999999995,"endTime":48.043484666666664,"instrument":1,"program":12},{"pitch":67,"velocity":95,"startTime":48.097832499999996,"endTime":48.206528166666665,"instrument":1,"program":12},{"pitch":58,"velocity":95,"startTime":48.260875999999996,"endTime":48.369571666666666,"instrument":1,"program":12},{"pitch":67,"velocity":95,"startTime":48.4239195,"endTime":48.532615166666666,"instrument":1,"program":12},{"pitch":70,"velocity":95,"startTime":48.586963,"endTime":48.69565866666666,"instrument":1,"program":12},{"pitch":67,"velocity":95,"startTime":48.7500065,"endTime":48.85870216666666,"instrument":1,"program":12},{"pitch":58,"velocity":95,"startTime":48.91305,"endTime":49.02174566666666,"instrument":1,"program":12},{"pitch":67,"velocity":95,"startTime":49.0760935,"endTime":49.18478916666666,"instrument":1,"program":12},{"pitch":65,"velocity":95,"startTime":49.239137,"endTime":49.34783266666666,"instrument":1,"program":12},{"pitch":67,"velocity":95,"startTime":49.40218049999999,"endTime":49.51087616666666,"instrument":1,"program":12},{"pitch":62,"velocity":95,"startTime":49.56522399999999,"endTime":49.67391966666666,"instrument":1,"program":12},{"pitch":67,"velocity":95,"startTime":49.728267499999994,"endTime":49.83696316666666,"instrument":1,"program":12},{"pitch":70,"velocity":95,"startTime":49.891310999999995,"endTime":50.000006666666664,"instrument":1,"program":12},{"pitch":67,"velocity":95,"startTime":50.054354499999995,"endTime":50.163050166666665,"instrument":1,"program":12},{"pitch":70,"velocity":95,"startTime":50.217397999999996,"endTime":50.326093666666665,"instrument":1,"program":12},{"pitch":67,"velocity":95,"startTime":50.380441499999996,"endTime":50.489137166666666,"instrument":1,"program":12},{"pitch":70,"velocity":95,"startTime":50.543485,"endTime":50.652180666666666,"instrument":1,"program":12},{"pitch":67,"velocity":95,"startTime":50.7065285,"endTime":50.81522416666666,"instrument":1,"program":12},{"pitch":70,"velocity":95,"startTime":50.869572,"endTime":50.97826766666666,"instrument":1,"program":12},{"pitch":67,"velocity":95,"startTime":51.0326155,"endTime":51.14131116666666,"instrument":1,"program":12},{"pitch":70,"velocity":95,"startTime":51.195659,"endTime":51.30435466666666,"instrument":1,"program":12},{"pitch":70,"velocity":95,"startTime":51.35870249999999,"endTime":51.46739816666666,"instrument":1,"program":12},{"pitch":62,"velocity":95,"startTime":51.52174599999999,"endTime":51.63044166666666,"instrument":1,"program":12},{"pitch":67,"velocity":95,"startTime":51.684789499999994,"endTime":51.79348516666666,"instrument":1,"program":12},{"pitch":70,"velocity":95,"startTime":51.847832999999994,"endTime":51.956528666666664,"instrument":1,"program":12},{"pitch":67,"velocity":95,"startTime":52.010876499999995,"endTime":52.119572166666664,"instrument":1,"program":12},{"pitch":62,"velocity":95,"startTime":52.173919999999995,"endTime":52.282615666666665,"instrument":1,"program":12},{"pitch":69,"velocity":95,"startTime":52.336963499999996,"endTime":52.445659166666665,"instrument":1,"program":12},{"pitch":72,"velocity":95,"startTime":52.500007,"endTime":52.608702666666666,"instrument":1,"program":12},{"pitch":78,"velocity":95,"startTime":52.6630505,"endTime":52.77174616666666,"instrument":1,"program":12},{"pitch":69,"velocity":95,"startTime":52.826094,"endTime":52.93478966666666,"instrument":1,"program":12},{"pitch":72,"velocity":95,"startTime":52.9891375,"endTime":53.09783316666666,"instrument":1,"program":12},{"pitch":78,"velocity":95,"startTime":53.152181,"endTime":53.26087666666666,"instrument":1,"program":12},{"pitch":72,"velocity":95,"startTime":53.3152245,"endTime":53.42392016666666,"instrument":1,"program":12},{"pitch":62,"velocity":95,"startTime":53.47826799999999,"endTime":53.58696366666666,"instrument":1,"program":12},{"pitch":72,"velocity":95,"startTime":53.64131149999999,"endTime":53.75000716666666,"instrument":1,"program":12},{"pitch":78,"velocity":95,"startTime":53.804354999999994,"endTime":53.91305066666666,"instrument":1,"program":12},{"pitch":74,"velocity":95,"startTime":53.967398499999994,"endTime":54.02174633333333,"instrument":1,"program":12},{"pitch":78,"velocity":95,"startTime":54.130441999999995,"endTime":54.184789833333326,"instrument":1,"program":12},{"pitch":72,"velocity":95,"startTime":54.293485499999996,"endTime":54.34783333333333,"instrument":1,"program":12},{"pitch":69,"velocity":95,"startTime":54.456528999999996,"endTime":54.565224666666666,"instrument":1,"program":12},{"pitch":62,"velocity":95,"startTime":54.6195725,"endTime":54.72826816666666,"instrument":1,"program":12},{"pitch":62,"velocity":95,"startTime":54.782616,"endTime":54.89131166666666,"instrument":1,"program":12},{"pitch":72,"velocity":95,"startTime":54.9456595,"endTime":55.05435516666666,"instrument":1,"program":12},{"pitch":69,"velocity":95,"startTime":55.108703,"endTime":55.21739866666666,"instrument":1,"program":12},{"pitch":72,"velocity":95,"startTime":55.2717465,"endTime":55.38044216666666,"instrument":1,"program":12},{"pitch":62,"velocity":95,"startTime":55.43478999999999,"endTime":55.54348566666666,"instrument":1,"program":12},{"pitch":69,"velocity":95,"startTime":55.59783349999999,"endTime":55.70652916666666,"instrument":1,"program":12},{"pitch":72,"velocity":95,"startTime":55.760876999999994,"endTime":55.86957266666666,"instrument":1,"program":12},{"pitch":72,"velocity":95,"startTime":55.923920499999994,"endTime":55.97826833333333,"instrument":1,"program":12},{"pitch":69,"velocity":95,"startTime":56.086963999999995,"endTime":56.195659666666664,"instrument":1,"program":12},{"pitch":72,"velocity":95,"startTime":56.250007499999995,"endTime":56.358703166666665,"instrument":1,"program":12},{"pitch":78,"velocity":95,"startTime":56.413050999999996,"endTime":56.521746666666665,"instrument":1,"program":12},{"pitch":72,"velocity":95,"startTime":56.576094499999996,"endTime":56.684790166666666,"instrument":1,"program":12},{"pitch":78,"velocity":95,"startTime":56.739138,"endTime":56.84783366666666,"instrument":1,"program":12},{"pitch":69,"velocity":95,"startTime":56.9021815,"endTime":56.95652933333333,"instrument":1,"program":12},{"pitch":69,"velocity":95,"startTime":57.065225,"endTime":57.17392066666666,"instrument":1,"program":12},{"pitch":72,"velocity":95,"startTime":57.2282685,"endTime":57.33696416666666,"instrument":1,"program":12},{"pitch":58,"velocity":95,"startTime":57.391312,"endTime":57.55435549999999,"instrument":1,"program":12},{"pitch":67,"velocity":95,"startTime":57.55435549999999,"endTime":57.66305116666666,"instrument":1,"program":12},{"pitch":70,"velocity":95,"startTime":57.71739899999999,"endTime":57.82609466666666,"instrument":1,"program":12},{"pitch":76,"velocity":95,"startTime":57.880442499999994,"endTime":57.98913816666666,"instrument":1,"program":12},{"pitch":79,"velocity":95,"startTime":58.043485999999994,"endTime":58.152181666666664,"instrument":1,"program":12},{"pitch":70,"velocity":95,"startTime":58.206529499999995,"endTime":58.260877333333326,"instrument":1,"program":12},{"pitch":67,"velocity":95,"startTime":58.369572999999995,"endTime":58.478268666666665,"instrument":1,"program":12},{"pitch":76,"velocity":95,"startTime":58.532616499999996,"endTime":58.58696433333333,"instrument":1,"program":12},{"pitch":79,"velocity":95,"startTime":58.69566,"endTime":58.80435566666666,"instrument":1,"program":12},{"pitch":67,"velocity":95,"startTime":58.8587035,"endTime":58.91305133333333,"instrument":1,"program":12},{"pitch":70,"velocity":95,"startTime":59.021747,"endTime":59.13044266666666,"instrument":1,"program":12},{"pitch":76,"velocity":95,"startTime":59.1847905,"endTime":59.29348616666666,"instrument":1,"program":12},{"pitch":76,"velocity":95,"startTime":59.347834,"endTime":59.45652966666666,"instrument":1,"program":12},{"pitch":70,"velocity":95,"startTime":59.51087749999999,"endTime":59.56522533333333,"instrument":1,"program":12},{"pitch":67,"velocity":95,"startTime":59.67392099999999,"endTime":59.78261666666666,"instrument":1,"program":12},{"pitch":70,"velocity":95,"startTime":59.83696449999999,"endTime":59.94566016666666,"instrument":1,"program":12},{"pitch":62,"velocity":95,"startTime":60.000007999999994,"endTime":60.10870366666666,"instrument":1,"program":12},{"pitch":67,"velocity":95,"startTime":60.163051499999995,"endTime":60.271747166666664,"instrument":1,"program":12},{"pitch":70,"velocity":95,"startTime":60.326094999999995,"endTime":60.434790666666665,"instrument":1,"program":12},{"pitch":67,"velocity":95,"startTime":60.489138499999996,"endTime":60.597834166666665,"instrument":1,"program":12},{"pitch":74,"velocity":95,"startTime":60.652181999999996,"endTime":60.76087766666666,"instrument":1,"program":12},{"pitch":67,"velocity":95,"startTime":60.8152255,"endTime":60.86957333333333,"instrument":1,"program":12},{"pitch":70,"velocity":95,"startTime":60.978269,"endTime":61.08696466666666,"instrument":1,"program":12},{"pitch":67,"velocity":95,"startTime":61.1413125,"endTime":61.25000816666666,"instrument":1,"program":12},{"pitch":79,"velocity":95,"startTime":61.304356,"endTime":61.41305166666666,"instrument":1,"program":12},{"pitch":74,"velocity":95,"startTime":61.46739949999999,"endTime":61.57609516666666,"instrument":1,"program":12},{"pitch":70,"velocity":95,"startTime":61.63044299999999,"endTime":61.73913866666666,"instrument":1,"program":12},{"pitch":74,"velocity":95,"startTime":61.79348649999999,"endTime":61.90218216666666,"instrument":1,"program":12},{"pitch":62,"velocity":95,"startTime":61.956529999999994,"endTime":62.06522566666666,"instrument":1,"program":12},{"pitch":70,"velocity":95,"startTime":62.119573499999994,"endTime":62.228269166666664,"instrument":1,"program":12},{"pitch":62,"velocity":95,"startTime":62.282616999999995,"endTime":62.391312666666664,"instrument":1,"program":12},{"pitch":67,"velocity":95,"startTime":62.445660499999995,"endTime":62.554356166666665,"instrument":1,"program":12},{"pitch":38,"velocity":110,"startTime":41.739135999999995,"endTime":41.902179499999995,"instrument":2,"program":32},{"pitch":38,"velocity":110,"startTime":42.065222999999996,"endTime":42.2282665,"instrument":2,"program":32},{"pitch":38,"velocity":110,"startTime":42.39131,"endTime":42.5543535,"instrument":2,"program":32},{"pitch":45,"velocity":110,"startTime":42.717397,"endTime":42.8804405,"instrument":2,"program":32},{"pitch":45,"velocity":110,"startTime":43.043484,"endTime":43.2065275,"instrument":2,"program":32},{"pitch":45,"velocity":110,"startTime":43.36957099999999,"endTime":43.532614499999994,"instrument":2,"program":32},{"pitch":38,"velocity":110,"startTime":43.695657999999995,"endTime":43.858701499999995,"instrument":2,"program":32},{"pitch":50,"velocity":110,"startTime":44.021744999999996,"endTime":44.184788499999996,"instrument":2,"program":32},{"pitch":38,"velocity":110,"startTime":44.347832,"endTime":44.5108755,"instrument":2,"program":32},{"pitch":38,"velocity":110,"startTime":44.673919,"endTime":44.8369625,"instrument":2,"program":32},{"pitch":42,"velocity":110,"startTime":45.000006,"endTime":45.1630495,"instrument":2,"program":32},{"pitch":45,"velocity":110,"startTime":45.32609299999999,"endTime":45.489136499999994,"instrument":2,"program":32},{"pitch":45,"velocity":110,"startTime":45.652179999999994,"endTime":45.815223499999995,"instrument":2,"program":32},{"pitch":45,"velocity":110,"startTime":45.978266999999995,"endTime":46.141310499999996,"instrument":2,"program":32},{"pitch":38,"velocity":110,"startTime":46.304354,"endTime":46.4673975,"instrument":2,"program":32},{"pitch":50,"velocity":110,"startTime":46.630441,"endTime":46.7934845,"instrument":2,"program":32},{"pitch":34,"velocity":110,"startTime":46.956528,"endTime":47.1195715,"instrument":2,"program":32},{"pitch":34,"velocity":110,"startTime":47.282615,"endTime":47.44565849999999,"instrument":2,"program":32},{"pitch":38,"velocity":110,"startTime":47.608701999999994,"endTime":47.771745499999994,"instrument":2,"program":32},{"pitch":41,"velocity":110,"startTime":47.934788999999995,"endTime":48.097832499999996,"instrument":2,"program":32},{"pitch":34,"velocity":110,"startTime":48.260875999999996,"endTime":48.4239195,"instrument":2,"program":32},{"pitch":38,"velocity":110,"startTime":48.586963,"endTime":48.7500065,"instrument":2,"program":32},{"pitch":34,"velocity":110,"startTime":48.91305,"endTime":49.0760935,"instrument":2,"program":32},{"pitch":38,"velocity":110,"startTime":49.239137,"endTime":49.40218049999999,"instrument":2,"program":32},{"pitch":31,"velocity":110,"startTime":49.56522399999999,"endTime":49.67391966666666,"instrument":2,"program":32},{"pitch":38,"velocity":110,"startTime":49.891310999999995,"endTime":50.054354499999995,"instrument":2,"program":32},{"pitch":41,"velocity":110,"startTime":50.217397999999996,"endTime":50.380441499999996,"instrument":2,"program":32},{"pitch":38,"velocity":110,"startTime":50.543485,"endTime":50.7065285,"instrument":2,"program":32},{"pitch":34,"velocity":110,"startTime":50.869572,"endTime":51.0326155,"instrument":2,"program":32},{"pitch":38,"velocity":110,"startTime":51.195659,"endTime":51.35870249999999,"instrument":2,"program":32},{"pitch":38,"velocity":110,"startTime":51.52174599999999,"endTime":51.684789499999994,"instrument":2,"program":32},{"pitch":46,"velocity":110,"startTime":51.847832999999994,"endTime":52.010876499999995,"instrument":2,"program":32},{"pitch":38,"velocity":110,"startTime":52.173919999999995,"endTime":52.336963499999996,"instrument":2,"program":32},{"pitch":33,"velocity":110,"startTime":52.500007,"endTime":52.6630505,"instrument":2,"program":32},{"pitch":33,"velocity":110,"startTime":52.826094,"endTime":52.9891375,"instrument":2,"program":32},{"pitch":33,"velocity":110,"startTime":53.152181,"endTime":53.3152245,"instrument":2,"program":32},{"pitch":33,"velocity":110,"startTime":53.47826799999999,"endTime":53.64131149999999,"instrument":2,"program":32},{"pitch":33,"velocity":110,"startTime":53.804354999999994,"endTime":53.967398499999994,"instrument":2,"program":32},{"pitch":38,"velocity":110,"startTime":54.130441999999995,"endTime":54.293485499999996,"instrument":2,"program":32},{"pitch":33,"velocity":110,"startTime":54.456528999999996,"endTime":54.6195725,"instrument":2,"program":32},{"pitch":38,"velocity":110,"startTime":54.782616,"endTime":54.9456595,"instrument":2,"program":32},{"pitch":38,"velocity":110,"startTime":55.108703,"endTime":55.2717465,"instrument":2,"program":32},{"pitch":38,"velocity":110,"startTime":55.43478999999999,"endTime":55.59783349999999,"instrument":2,"program":32},{"pitch":38,"velocity":110,"startTime":55.760876999999994,"endTime":55.923920499999994,"instrument":2,"program":32},{"pitch":38,"velocity":110,"startTime":56.086963999999995,"endTime":56.250007499999995,"instrument":2,"program":32},{"pitch":33,"velocity":110,"startTime":56.413050999999996,"endTime":56.576094499999996,"instrument":2,"program":32},{"pitch":38,"velocity":110,"startTime":56.739138,"endTime":56.9021815,"instrument":2,"program":32},{"pitch":38,"velocity":110,"startTime":57.065225,"endTime":57.2282685,"instrument":2,"program":32},{"pitch":31,"velocity":110,"startTime":57.391312,"endTime":57.55435549999999,"instrument":2,"program":32},{"pitch":34,"velocity":110,"startTime":57.71739899999999,"endTime":57.880442499999994,"instrument":2,"program":32},{"pitch":38,"velocity":110,"startTime":58.043485999999994,"endTime":58.206529499999995,"instrument":2,"program":32},{"pitch":38,"velocity":110,"startTime":58.369572999999995,"endTime":58.532616499999996,"instrument":2,"program":32},{"pitch":31,"velocity":110,"startTime":58.69566,"endTime":58.8587035,"instrument":2,"program":32},{"pitch":31,"velocity":110,"startTime":59.021747,"endTime":59.1847905,"instrument":2,"program":32},{"pitch":38,"velocity":110,"startTime":59.347834,"endTime":59.51087749999999,"instrument":2,"program":32},{"pitch":31,"velocity":110,"startTime":59.67392099999999,"endTime":59.83696449999999,"instrument":2,"program":32},{"pitch":43,"velocity":110,"startTime":60.000007999999994,"endTime":60.163051499999995,"instrument":2,"program":32},{"pitch":43,"velocity":110,"startTime":60.326094999999995,"endTime":60.489138499999996,"instrument":2,"program":32},{"pitch":43,"velocity":110,"startTime":60.652181999999996,"endTime":60.8152255,"instrument":2,"program":32},{"pitch":38,"velocity":110,"startTime":60.978269,"endTime":61.1413125,"instrument":2,"program":32},{"pitch":34,"velocity":110,"startTime":61.304356,"endTime":61.46739949999999,"instrument":2,"program":32},{"pitch":38,"velocity":110,"startTime":61.63044299999999,"endTime":61.79348649999999,"instrument":2,"program":32},{"pitch":37,"velocity":110,"startTime":61.956529999999994,"endTime":62.119573499999994,"instrument":2,"program":32},{"pitch":38,"velocity":110,"startTime":62.282616999999995,"endTime":62.445660499999995,"instrument":2,"program":32},{"pitch":62,"velocity":105,"startTime":41.739135999999995,"endTime":44.347832,"instrument":3,"program":50},{"pitch":66,"velocity":105,"startTime":41.739135999999995,"endTime":44.347832,"instrument":3,"program":50},{"pitch":69,"velocity":105,"startTime":41.739135999999995,"endTime":44.347832,"instrument":3,"program":50},{"pitch":72,"velocity":105,"startTime":41.739135999999995,"endTime":44.347832,"instrument":3,"program":50},{"pitch":60,"velocity":105,"startTime":44.347832,"endTime":46.304354,"instrument":3,"program":50},{"pitch":62,"velocity":105,"startTime":44.347832,"endTime":46.304354,"instrument":3,"program":50},{"pitch":66,"velocity":105,"startTime":44.347832,"endTime":46.304354,"instrument":3,"program":50},{"pitch":69,"velocity":105,"startTime":44.347832,"endTime":46.304354,"instrument":3,"program":50},{"pitch":58,"velocity":105,"startTime":46.304354,"endTime":46.956528,"instrument":3,"program":50},{"pitch":62,"velocity":105,"startTime":46.304354,"endTime":46.956528,"instrument":3,"program":50},{"pitch":66,"velocity":105,"startTime":46.304354,"endTime":46.956528,"instrument":3,"program":50},{"pitch":70,"velocity":105,"startTime":46.304354,"endTime":46.956528,"instrument":3,"program":50},{"pitch":62,"velocity":105,"startTime":46.956528,"endTime":49.56522399999999,"instrument":3,"program":50},{"pitch":67,"velocity":105,"startTime":46.956528,"endTime":49.56522399999999,"instrument":3,"program":50},{"pitch":74,"velocity":105,"startTime":46.956528,"endTime":49.56522399999999,"instrument":3,"program":50},{"pitch":62,"velocity":105,"startTime":49.56522399999999,"endTime":52.173919999999995,"instrument":3,"program":50},{"pitch":67,"velocity":105,"startTime":49.56522399999999,"endTime":52.173919999999995,"instrument":3,"program":50},{"pitch":74,"velocity":105,"startTime":49.56522399999999,"endTime":52.173919999999995,"instrument":3,"program":50},{"pitch":77,"velocity":105,"startTime":49.56522399999999,"endTime":52.173919999999995,"instrument":3,"program":50},{"pitch":60,"velocity":105,"startTime":52.173919999999995,"endTime":54.51087683333333,"instrument":3,"program":50},{"pitch":66,"velocity":105,"startTime":52.173919999999995,"endTime":54.456528999999996,"instrument":3,"program":50},{"pitch":69,"velocity":105,"startTime":52.173919999999995,"endTime":54.456528999999996,"instrument":3,"program":50},{"pitch":78,"velocity":105,"startTime":52.173919999999995,"endTime":54.51087683333333,"instrument":3,"program":50},{"pitch":62,"velocity":105,"startTime":52.6630505,"endTime":54.456528999999996,"instrument":3,"program":50},{"pitch":66,"velocity":105,"startTime":54.782616,"endTime":57.391312,"instrument":3,"program":50},{"pitch":69,"velocity":105,"startTime":54.782616,"endTime":57.391312,"instrument":3,"program":50},{"pitch":74,"velocity":105,"startTime":54.782616,"endTime":57.391312,"instrument":3,"program":50},{"pitch":76,"velocity":105,"startTime":54.782616,"endTime":57.391312,"instrument":3,"program":50},{"pitch":62,"velocity":105,"startTime":57.391312,"endTime":60.000007999999994,"instrument":3,"program":50},{"pitch":65,"velocity":105,"startTime":57.391312,"endTime":60.000007999999994,"instrument":3,"program":50},{"pitch":70,"velocity":105,"startTime":57.391312,"endTime":60.000007999999994,"instrument":3,"program":50},{"pitch":67,"velocity":105,"startTime":57.50000766666666,"endTime":60.000007999999994,"instrument":3,"program":50},{"pitch":58,"velocity":105,"startTime":60.000007999999994,"endTime":62.608703999999996,"instrument":3,"program":50},{"pitch":65,"velocity":105,"startTime":60.000007999999994,"endTime":62.608703999999996,"instrument":3,"program":50},{"pitch":67,"velocity":105,"startTime":60.000007999999994,"endTime":62.608703999999996,"instrument":3,"program":50},{"pitch":74,"velocity":105,"startTime":60.000007999999994,"endTime":62.608703999999996,"instrument":3,"program":50},{"pitch":35,"velocity":102,"startTime":62.608703999999996,"endTime":62.717399666666665,"isDrum":true},{"pitch":42,"velocity":102,"startTime":62.608703999999996,"endTime":62.717399666666665,"isDrum":true},{"pitch":51,"velocity":102,"startTime":62.608703999999996,"endTime":62.717399666666665,"isDrum":true},{"pitch":42,"velocity":102,"startTime":62.934791,"endTime":63.04348666666666,"isDrum":true},{"pitch":51,"velocity":102,"startTime":62.934791,"endTime":63.04348666666666,"isDrum":true},{"pitch":38,"velocity":102,"startTime":63.260878,"endTime":63.36957366666666,"isDrum":true},{"pitch":40,"velocity":102,"startTime":63.260878,"endTime":63.36957366666666,"isDrum":true},{"pitch":42,"velocity":102,"startTime":63.260878,"endTime":63.36957366666666,"isDrum":true},{"pitch":42,"velocity":102,"startTime":63.58696499999999,"endTime":63.69566066666666,"isDrum":true},{"pitch":51,"velocity":102,"startTime":63.58696499999999,"endTime":63.69566066666666,"isDrum":true},{"pitch":35,"velocity":102,"startTime":63.75000849999999,"endTime":63.85870416666666,"isDrum":true},{"pitch":35,"velocity":102,"startTime":63.91305199999999,"endTime":64.02174766666666,"isDrum":true},{"pitch":42,"velocity":102,"startTime":63.91305199999999,"endTime":64.02174766666666,"isDrum":true},{"pitch":42,"velocity":102,"startTime":64.0760955,"endTime":64.18479116666666,"isDrum":true},{"pitch":35,"velocity":102,"startTime":64.239139,"endTime":64.34783466666666,"isDrum":true},{"pitch":42,"velocity":102,"startTime":64.239139,"endTime":64.34783466666666,"isDrum":true},{"pitch":51,"velocity":102,"startTime":64.239139,"endTime":64.34783466666666,"isDrum":true},{"pitch":40,"velocity":102,"startTime":64.4021825,"endTime":64.51087816666666,"isDrum":true},{"pitch":38,"velocity":102,"startTime":64.565226,"endTime":64.67392166666666,"isDrum":true},{"pitch":42,"velocity":102,"startTime":64.565226,"endTime":64.67392166666666,"isDrum":true},{"pitch":40,"velocity":102,"startTime":64.7282695,"endTime":64.83696516666666,"isDrum":true},{"pitch":35,"velocity":102,"startTime":64.891313,"endTime":65.00000866666666,"isDrum":true},{"pitch":42,"velocity":102,"startTime":64.891313,"endTime":65.00000866666666,"isDrum":true},{"pitch":35,"velocity":102,"startTime":65.0543565,"endTime":65.16305216666666,"isDrum":true},{"pitch":35,"velocity":102,"startTime":65.2174,"endTime":65.32609566666666,"isDrum":true},{"pitch":42,"velocity":102,"startTime":65.2174,"endTime":65.32609566666666,"isDrum":true},{"pitch":40,"velocity":102,"startTime":65.3804435,"endTime":65.48913916666666,"isDrum":true},{"pitch":42,"velocity":102,"startTime":65.543487,"endTime":65.65218266666666,"isDrum":true},{"pitch":35,"velocity":102,"startTime":65.7065305,"endTime":65.81522616666666,"isDrum":true},{"pitch":38,"velocity":102,"startTime":65.869574,"endTime":65.97826966666666,"isDrum":true},{"pitch":40,"velocity":102,"startTime":65.869574,"endTime":65.97826966666666,"isDrum":true},{"pitch":42,"velocity":102,"startTime":65.869574,"endTime":65.97826966666666,"isDrum":true},{"pitch":42,"velocity":102,"startTime":66.195661,"endTime":66.30435666666666,"isDrum":true},{"pitch":40,"velocity":102,"startTime":66.3587045,"endTime":66.46740016666666,"isDrum":true},{"pitch":35,"velocity":102,"startTime":66.52174799999999,"endTime":66.63044366666666,"isDrum":true},{"pitch":42,"velocity":102,"startTime":66.52174799999999,"endTime":66.63044366666666,"isDrum":true},{"pitch":40,"velocity":102,"startTime":66.68479149999999,"endTime":66.79348716666667,"isDrum":true},{"pitch":35,"velocity":102,"startTime":66.84783499999999,"endTime":66.95653066666667,"isDrum":true},{"pitch":42,"velocity":102,"startTime":66.84783499999999,"endTime":66.95653066666667,"isDrum":true},{"pitch":38,"velocity":102,"startTime":67.17392199999999,"endTime":67.28261766666667,"isDrum":true},{"pitch":40,"velocity":102,"startTime":67.17392199999999,"endTime":67.28261766666667,"isDrum":true},{"pitch":42,"velocity":102,"startTime":67.17392199999999,"endTime":67.28261766666667,"isDrum":true},{"pitch":42,"velocity":102,"startTime":67.50000899999999,"endTime":67.60870466666667,"isDrum":true},{"pitch":35,"velocity":102,"startTime":67.82609599999999,"endTime":67.93479166666665,"isDrum":true},{"pitch":42,"velocity":102,"startTime":67.82609599999999,"endTime":67.93479166666665,"isDrum":true},{"pitch":42,"velocity":102,"startTime":68.152183,"endTime":68.26087866666666,"isDrum":true},{"pitch":38,"velocity":102,"startTime":68.47827,"endTime":68.58696566666666,"isDrum":true},{"pitch":40,"velocity":102,"startTime":68.47827,"endTime":68.58696566666666,"isDrum":true},{"pitch":42,"velocity":102,"startTime":68.47827,"endTime":68.58696566666666,"isDrum":true},{"pitch":42,"velocity":102,"startTime":68.804357,"endTime":68.91305266666666,"isDrum":true},{"pitch":35,"velocity":102,"startTime":68.9674005,"endTime":69.07609616666666,"isDrum":true},{"pitch":35,"velocity":102,"startTime":69.130444,"endTime":69.23913966666666,"isDrum":true},{"pitch":42,"velocity":102,"startTime":69.130444,"endTime":69.23913966666666,"isDrum":true},{"pitch":40,"velocity":102,"startTime":69.2934875,"endTime":69.40218316666666,"isDrum":true},{"pitch":35,"velocity":102,"startTime":69.456531,"endTime":69.56522666666666,"isDrum":true},{"pitch":42,"velocity":102,"startTime":69.456531,"endTime":69.56522666666666,"isDrum":true},{"pitch":35,"velocity":102,"startTime":69.6195745,"endTime":69.72827016666666,"isDrum":true},{"pitch":40,"velocity":102,"startTime":69.782618,"endTime":69.89131366666666,"isDrum":true},{"pitch":42,"velocity":102,"startTime":69.782618,"endTime":69.89131366666666,"isDrum":true},{"pitch":35,"velocity":102,"startTime":70.108705,"endTime":70.21740066666666,"isDrum":true},{"pitch":42,"velocity":102,"startTime":70.108705,"endTime":70.21740066666666,"isDrum":true},{"pitch":40,"velocity":102,"startTime":70.2717485,"endTime":70.38044416666666,"isDrum":true},{"pitch":35,"velocity":102,"startTime":70.434792,"endTime":70.54348766666666,"isDrum":true},{"pitch":42,"velocity":102,"startTime":70.434792,"endTime":70.54348766666666,"isDrum":true},{"pitch":42,"velocity":102,"startTime":70.76087899999999,"endTime":70.86957466666667,"isDrum":true},{"pitch":38,"velocity":102,"startTime":71.08696599999999,"endTime":71.19566166666667,"isDrum":true},{"pitch":40,"velocity":102,"startTime":71.08696599999999,"endTime":71.19566166666667,"isDrum":true},{"pitch":42,"velocity":102,"startTime":71.08696599999999,"endTime":71.19566166666667,"isDrum":true},{"pitch":42,"velocity":102,"startTime":71.41305299999999,"endTime":71.52174866666667,"isDrum":true},{"pitch":35,"velocity":102,"startTime":71.57609649999999,"endTime":71.68479216666667,"isDrum":true},{"pitch":35,"velocity":102,"startTime":71.73913999999999,"endTime":71.84783566666665,"isDrum":true},{"pitch":42,"velocity":102,"startTime":71.73913999999999,"endTime":71.84783566666665,"isDrum":true},{"pitch":38,"velocity":102,"startTime":71.90218349999999,"endTime":72.01087916666665,"isDrum":true},{"pitch":35,"velocity":102,"startTime":72.065227,"endTime":72.17392266666666,"isDrum":true},{"pitch":42,"velocity":102,"startTime":72.065227,"endTime":72.17392266666666,"isDrum":true},{"pitch":38,"velocity":102,"startTime":72.391314,"endTime":72.50000966666666,"isDrum":true},{"pitch":42,"velocity":102,"startTime":72.391314,"endTime":72.50000966666666,"isDrum":true},{"pitch":35,"velocity":102,"startTime":72.717401,"endTime":72.82609666666666,"isDrum":true},{"pitch":42,"velocity":102,"startTime":72.717401,"endTime":72.82609666666666,"isDrum":true},{"pitch":40,"velocity":102,"startTime":72.8804445,"endTime":72.98914016666666,"isDrum":true},{"pitch":35,"velocity":102,"startTime":73.043488,"endTime":73.15218366666666,"isDrum":true},{"pitch":42,"velocity":102,"startTime":73.043488,"endTime":73.15218366666666,"isDrum":true},{"pitch":42,"velocity":102,"startTime":73.369575,"endTime":73.47827066666666,"isDrum":true},{"pitch":38,"velocity":102,"startTime":73.695662,"endTime":73.80435766666666,"isDrum":true},{"pitch":42,"velocity":102,"startTime":73.695662,"endTime":73.80435766666666,"isDrum":true},{"pitch":35,"velocity":102,"startTime":74.021749,"endTime":74.13044466666666,"isDrum":true},{"pitch":42,"velocity":102,"startTime":74.021749,"endTime":74.13044466666666,"isDrum":true},{"pitch":40,"velocity":102,"startTime":74.1847925,"endTime":74.29348816666666,"isDrum":true},{"pitch":42,"velocity":102,"startTime":74.347836,"endTime":74.45653166666666,"isDrum":true},{"pitch":35,"velocity":102,"startTime":74.5108795,"endTime":74.61957516666666,"isDrum":true},{"pitch":42,"velocity":102,"startTime":74.67392299999999,"endTime":74.78261866666666,"isDrum":true},{"pitch":35,"velocity":102,"startTime":74.83696649999999,"endTime":74.94566216666666,"isDrum":true},{"pitch":38,"velocity":102,"startTime":75.00000999999999,"endTime":75.10870566666667,"isDrum":true},{"pitch":40,"velocity":102,"startTime":75.00000999999999,"endTime":75.10870566666667,"isDrum":true},{"pitch":42,"velocity":102,"startTime":75.00000999999999,"endTime":75.10870566666667,"isDrum":true},{"pitch":40,"velocity":102,"startTime":75.16305349999999,"endTime":75.27174916666667,"isDrum":true},{"pitch":42,"velocity":102,"startTime":75.32609699999999,"endTime":75.43479266666667,"isDrum":true},{"pitch":40,"velocity":102,"startTime":75.48914049999999,"endTime":75.59783616666667,"isDrum":true},{"pitch":35,"velocity":102,"startTime":75.65218399999999,"endTime":75.76087966666667,"isDrum":true},{"pitch":42,"velocity":102,"startTime":75.65218399999999,"endTime":75.76087966666667,"isDrum":true},{"pitch":42,"velocity":102,"startTime":75.97827099999999,"endTime":76.08696666666665,"isDrum":true},{"pitch":38,"velocity":102,"startTime":76.304358,"endTime":76.41305366666666,"isDrum":true},{"pitch":42,"velocity":102,"startTime":76.304358,"endTime":76.41305366666666,"isDrum":true},{"pitch":35,"velocity":102,"startTime":76.630445,"endTime":76.73914066666666,"isDrum":true},{"pitch":42,"velocity":102,"startTime":76.630445,"endTime":76.73914066666666,"isDrum":true},{"pitch":35,"velocity":102,"startTime":76.956532,"endTime":77.06522766666666,"isDrum":true},{"pitch":42,"velocity":102,"startTime":76.956532,"endTime":77.06522766666666,"isDrum":true},{"pitch":35,"velocity":102,"startTime":77.282619,"endTime":77.39131466666666,"isDrum":true},{"pitch":42,"velocity":102,"startTime":77.282619,"endTime":77.39131466666666,"isDrum":true},{"pitch":38,"velocity":102,"startTime":77.608706,"endTime":77.71740166666666,"isDrum":true},{"pitch":42,"velocity":102,"startTime":77.608706,"endTime":77.71740166666666,"isDrum":true},{"pitch":42,"velocity":102,"startTime":77.934793,"endTime":78.04348866666666,"isDrum":true},{"pitch":35,"velocity":102,"startTime":78.26088,"endTime":78.36957566666666,"isDrum":true},{"pitch":42,"velocity":102,"startTime":78.26088,"endTime":78.36957566666666,"isDrum":true},{"pitch":40,"velocity":102,"startTime":78.4239235,"endTime":78.53261916666666,"isDrum":true},{"pitch":42,"velocity":102,"startTime":78.58696699999999,"endTime":78.69566266666666,"isDrum":true},{"pitch":35,"velocity":102,"startTime":78.75001049999999,"endTime":78.85870616666666,"isDrum":true},{"pitch":38,"velocity":102,"startTime":78.91305399999999,"endTime":79.02174966666666,"isDrum":true},{"pitch":40,"velocity":102,"startTime":78.91305399999999,"endTime":79.02174966666666,"isDrum":true},{"pitch":42,"velocity":102,"startTime":78.91305399999999,"endTime":79.02174966666666,"isDrum":true},{"pitch":40,"velocity":102,"startTime":79.07609749999999,"endTime":79.18479316666667,"isDrum":true},{"pitch":42,"velocity":102,"startTime":79.23914099999999,"endTime":79.34783666666667,"isDrum":true},{"pitch":40,"velocity":102,"startTime":79.40218449999999,"endTime":79.51088016666667,"isDrum":true},{"pitch":42,"velocity":102,"startTime":79.56522799999999,"endTime":79.67392366666667,"isDrum":true},{"pitch":40,"velocity":102,"startTime":79.72827149999999,"endTime":79.83696716666667,"isDrum":true},{"pitch":35,"velocity":102,"startTime":79.89131499999999,"endTime":80.00001066666665,"isDrum":true},{"pitch":42,"velocity":102,"startTime":79.89131499999999,"endTime":80.00001066666665,"isDrum":true},{"pitch":40,"velocity":102,"startTime":80.05435849999999,"endTime":80.16305416666665,"isDrum":true},{"pitch":38,"velocity":102,"startTime":80.21740199999999,"endTime":80.32609766666666,"isDrum":true},{"pitch":42,"velocity":102,"startTime":80.21740199999999,"endTime":80.32609766666666,"isDrum":true},{"pitch":40,"velocity":102,"startTime":80.3804455,"endTime":80.48914116666666,"isDrum":true},{"pitch":42,"velocity":102,"startTime":80.543489,"endTime":80.65218466666666,"isDrum":true},{"pitch":40,"velocity":102,"startTime":80.7065325,"endTime":80.81522816666666,"isDrum":true},{"pitch":35,"velocity":102,"startTime":80.869576,"endTime":80.97827166666666,"isDrum":true},{"pitch":42,"velocity":102,"startTime":80.869576,"endTime":80.97827166666666,"isDrum":true},{"pitch":40,"velocity":102,"startTime":81.0326195,"endTime":81.14131516666666,"isDrum":true},{"pitch":42,"velocity":102,"startTime":81.195663,"endTime":81.30435866666666,"isDrum":true},{"pitch":35,"velocity":102,"startTime":81.3587065,"endTime":81.46740216666666,"isDrum":true},{"pitch":40,"velocity":102,"startTime":81.52175,"endTime":81.63044566666666,"isDrum":true},{"pitch":42,"velocity":102,"startTime":81.52175,"endTime":81.63044566666666,"isDrum":true},{"pitch":35,"velocity":102,"startTime":81.6847935,"endTime":81.79348916666666,"isDrum":true},{"pitch":46,"velocity":102,"startTime":81.847837,"endTime":81.95653266666666,"isDrum":true},{"pitch":67,"velocity":95,"startTime":62.7717475,"endTime":62.88044316666666,"instrument":1,"program":12},{"pitch":67,"velocity":95,"startTime":62.934791,"endTime":63.04348666666666,"instrument":1,"program":12},{"pitch":60,"velocity":95,"startTime":63.0978345,"endTime":63.20653016666666,"instrument":1,"program":12},{"pitch":67,"velocity":95,"startTime":63.260878,"endTime":63.36957366666666,"instrument":1,"program":12},{"pitch":67,"velocity":95,"startTime":63.4239215,"endTime":63.53261716666666,"instrument":1,"program":12},{"pitch":63,"velocity":95,"startTime":63.58696499999999,"endTime":63.69566066666666,"instrument":1,"program":12},{"pitch":60,"velocity":95,"startTime":63.75000849999999,"endTime":63.85870416666666,"instrument":1,"program":12},{"pitch":63,"velocity":95,"startTime":64.0760955,"endTime":64.18479116666666,"instrument":1,"program":12},{"pitch":67,"velocity":95,"startTime":64.239139,"endTime":64.34783466666666,"instrument":1,"program":12},{"pitch":60,"velocity":95,"startTime":64.4021825,"endTime":64.51087816666666,"instrument":1,"program":12},{"pitch":63,"velocity":95,"startTime":64.565226,"endTime":64.67392166666666,"instrument":1,"program":12},{"pitch":67,"velocity":95,"startTime":64.7282695,"endTime":64.83696516666666,"instrument":1,"program":12},{"pitch":72,"velocity":95,"startTime":64.891313,"endTime":65.00000866666666,"instrument":1,"program":12},{"pitch":67,"velocity":95,"startTime":65.0543565,"endTime":65.16305216666666,"instrument":1,"program":12},{"pitch":70,"velocity":95,"startTime":65.2174,"endTime":65.32609566666666,"instrument":1,"program":12},{"pitch":70,"velocity":95,"startTime":65.3804435,"endTime":65.48913916666666,"instrument":1,"program":12},{"pitch":72,"velocity":95,"startTime":65.543487,"endTime":65.65218266666666,"instrument":1,"program":12},{"pitch":70,"velocity":95,"startTime":65.7065305,"endTime":65.81522616666666,"instrument":1,"program":12},{"pitch":72,"velocity":95,"startTime":65.869574,"endTime":65.97826966666666,"instrument":1,"program":12},{"pitch":70,"velocity":95,"startTime":66.195661,"endTime":66.30435666666666,"instrument":1,"program":12},{"pitch":72,"velocity":95,"startTime":66.3587045,"endTime":66.46740016666666,"instrument":1,"program":12},{"pitch":75,"velocity":95,"startTime":66.52174799999999,"endTime":66.63044366666666,"instrument":1,"program":12},{"pitch":70,"velocity":95,"startTime":66.68479149999999,"endTime":66.79348716666667,"instrument":1,"program":12},{"pitch":70,"velocity":95,"startTime":66.84783499999999,"endTime":66.95653066666667,"instrument":1,"program":12},{"pitch":72,"velocity":95,"startTime":67.01087849999999,"endTime":67.11957416666667,"instrument":1,"program":12},{"pitch":75,"velocity":95,"startTime":67.17392199999999,"endTime":67.28261766666667,"instrument":1,"program":12},{"pitch":70,"velocity":95,"startTime":67.33696549999999,"endTime":67.39131333333333,"instrument":1,"program":12},{"pitch":72,"velocity":95,"startTime":67.50000899999999,"endTime":67.60870466666667,"instrument":1,"program":12},{"pitch":70,"velocity":95,"startTime":67.66305249999999,"endTime":67.77174816666667,"instrument":1,"program":12},{"pitch":67,"velocity":95,"startTime":67.82609599999999,"endTime":67.9891395,"instrument":1,"program":12},{"pitch":67,"velocity":95,"startTime":67.9891395,"endTime":68.09783516666666,"instrument":1,"program":12},{"pitch":70,"velocity":95,"startTime":68.152183,"endTime":68.26087866666666,"instrument":1,"program":12},{"pitch":67,"velocity":95,"startTime":68.3152265,"endTime":68.42392216666666,"instrument":1,"program":12},{"pitch":70,"velocity":95,"startTime":68.47827,"endTime":68.58696566666666,"instrument":1,"program":12},{"pitch":67,"velocity":95,"startTime":68.6413135,"endTime":68.75000916666666,"instrument":1,"program":12},{"pitch":70,"velocity":95,"startTime":68.804357,"endTime":68.91305266666666,"instrument":1,"program":12},{"pitch":67,"velocity":95,"startTime":68.9674005,"endTime":69.07609616666666,"instrument":1,"program":12},{"pitch":70,"velocity":95,"startTime":69.130444,"endTime":69.23913966666666,"instrument":1,"program":12},{"pitch":67,"velocity":95,"startTime":69.2934875,"endTime":69.40218316666666,"instrument":1,"program":12},{"pitch":70,"velocity":95,"startTime":69.456531,"endTime":69.56522666666666,"instrument":1,"program":12},{"pitch":67,"velocity":95,"startTime":69.6195745,"endTime":69.782618,"instrument":1,"program":12},{"pitch":70,"velocity":95,"startTime":69.782618,"endTime":69.89131366666666,"instrument":1,"program":12},{"pitch":67,"velocity":95,"startTime":69.9456615,"endTime":70.05435716666666,"instrument":1,"program":12},{"pitch":70,"velocity":95,"startTime":70.108705,"endTime":70.21740066666666,"instrument":1,"program":12},{"pitch":67,"velocity":95,"startTime":70.2717485,"endTime":70.38044416666666,"instrument":1,"program":12},{"pitch":70,"velocity":95,"startTime":70.434792,"endTime":70.54348766666666,"instrument":1,"program":12},{"pitch":67,"velocity":95,"startTime":70.59783549999999,"endTime":70.70653116666666,"instrument":1,"program":12},{"pitch":70,"velocity":95,"startTime":70.76087899999999,"endTime":70.86957466666667,"instrument":1,"program":12},{"pitch":67,"velocity":95,"startTime":70.92392249999999,"endTime":71.03261816666667,"instrument":1,"program":12},{"pitch":70,"velocity":95,"startTime":71.08696599999999,"endTime":71.19566166666667,"instrument":1,"program":12},{"pitch":70,"velocity":95,"startTime":71.25000949999999,"endTime":71.35870516666667,"instrument":1,"program":12},{"pitch":67,"velocity":95,"startTime":71.41305299999999,"endTime":71.52174866666667,"instrument":1,"program":12},{"pitch":70,"velocity":95,"startTime":71.57609649999999,"endTime":71.68479216666667,"instrument":1,"program":12},{"pitch":67,"velocity":95,"startTime":71.73913999999999,"endTime":71.84783566666665,"instrument":1,"program":12},{"pitch":70,"velocity":95,"startTime":71.90218349999999,"endTime":72.01087916666665,"instrument":1,"program":12},{"pitch":67,"velocity":95,"startTime":72.065227,"endTime":72.17392266666666,"instrument":1,"program":12},{"pitch":70,"velocity":95,"startTime":72.2282705,"endTime":72.33696616666666,"instrument":1,"program":12},{"pitch":67,"velocity":95,"startTime":72.391314,"endTime":72.50000966666666,"instrument":1,"program":12},{"pitch":70,"velocity":95,"startTime":72.5543575,"endTime":72.66305316666666,"instrument":1,"program":12},{"pitch":67,"velocity":95,"startTime":72.717401,"endTime":72.82609666666666,"instrument":1,"program":12},{"pitch":70,"velocity":95,"startTime":72.8804445,"endTime":72.98914016666666,"instrument":1,"program":12},{"pitch":69,"velocity":95,"startTime":73.043488,"endTime":73.15218366666666,"instrument":1,"program":12},{"pitch":72,"velocity":95,"startTime":73.2065315,"endTime":73.31522716666666,"instrument":1,"program":12},{"pitch":74,"velocity":95,"startTime":73.369575,"endTime":73.47827066666666,"instrument":1,"program":12},{"pitch":69,"velocity":95,"startTime":73.5326185,"endTime":73.64131416666666,"instrument":1,"program":12},{"pitch":74,"velocity":95,"startTime":73.695662,"endTime":73.80435766666666,"instrument":1,"program":12},{"pitch":74,"velocity":95,"startTime":73.8587055,"endTime":73.96740116666666,"instrument":1,"program":12},{"pitch":69,"velocity":95,"startTime":74.021749,"endTime":74.13044466666666,"instrument":1,"program":12},{"pitch":74,"velocity":95,"startTime":74.1847925,"endTime":74.29348816666666,"instrument":1,"program":12},{"pitch":69,"velocity":95,"startTime":74.347836,"endTime":74.45653166666666,"instrument":1,"program":12},{"pitch":74,"velocity":95,"startTime":74.5108795,"endTime":74.61957516666666,"instrument":1,"program":12},{"pitch":69,"velocity":95,"startTime":74.67392299999999,"endTime":74.78261866666666,"instrument":1,"program":12},{"pitch":74,"velocity":95,"startTime":74.83696649999999,"endTime":74.94566216666666,"instrument":1,"program":12},{"pitch":74,"velocity":95,"startTime":75.00000999999999,"endTime":75.10870566666667,"instrument":1,"program":12},{"pitch":69,"velocity":95,"startTime":75.16305349999999,"endTime":75.27174916666667,"instrument":1,"program":12},{"pitch":74,"velocity":95,"startTime":75.32609699999999,"endTime":75.43479266666667,"instrument":1,"program":12},{"pitch":69,"velocity":95,"startTime":75.48914049999999,"endTime":75.59783616666667,"instrument":1,"program":12},{"pitch":74,"velocity":95,"startTime":75.65218399999999,"endTime":75.76087966666667,"instrument":1,"program":12},{"pitch":69,"velocity":95,"startTime":75.81522749999999,"endTime":75.92392316666665,"instrument":1,"program":12},{"pitch":72,"velocity":95,"startTime":75.97827099999999,"endTime":76.08696666666665,"instrument":1,"program":12},{"pitch":74,"velocity":95,"startTime":76.1413145,"endTime":76.25001016666666,"instrument":1,"program":12},{"pitch":69,"velocity":95,"startTime":76.304358,"endTime":76.41305366666666,"instrument":1,"program":12},{"pitch":74,"velocity":95,"startTime":76.4674015,"endTime":76.57609716666666,"instrument":1,"program":12},{"pitch":69,"velocity":95,"startTime":76.630445,"endTime":76.73914066666666,"instrument":1,"program":12},{"pitch":74,"velocity":95,"startTime":76.7934885,"endTime":76.90218416666666,"instrument":1,"program":12},{"pitch":74,"velocity":95,"startTime":76.956532,"endTime":77.06522766666666,"instrument":1,"program":12},{"pitch":69,"velocity":95,"startTime":77.1195755,"endTime":77.22827116666666,"instrument":1,"program":12},{"pitch":72,"velocity":95,"startTime":77.282619,"endTime":77.39131466666666,"instrument":1,"program":12},{"pitch":74,"velocity":95,"startTime":77.4456625,"endTime":77.55435816666666,"instrument":1,"program":12},{"pitch":74,"velocity":95,"startTime":77.608706,"endTime":77.71740166666666,"instrument":1,"program":12},{"pitch":69,"velocity":95,"startTime":77.7717495,"endTime":77.88044516666666,"instrument":1,"program":12},{"pitch":72,"velocity":95,"startTime":77.934793,"endTime":78.04348866666666,"instrument":1,"program":12},{"pitch":69,"velocity":95,"startTime":78.0978365,"endTime":78.20653216666666,"instrument":1,"program":12},{"pitch":67,"velocity":95,"startTime":78.26088,"endTime":78.36957566666666,"instrument":1,"program":12},{"pitch":67,"velocity":95,"startTime":78.4239235,"endTime":78.53261916666666,"instrument":1,"program":12},{"pitch":70,"velocity":95,"startTime":78.58696699999999,"endTime":78.69566266666666,"instrument":1,"program":12},{"pitch":67,"velocity":95,"startTime":78.75001049999999,"endTime":78.85870616666666,"instrument":1,"program":12},{"pitch":70,"velocity":95,"startTime":78.91305399999999,"endTime":79.02174966666666,"instrument":1,"program":12},{"pitch":67,"velocity":95,"startTime":79.07609749999999,"endTime":79.18479316666667,"instrument":1,"program":12},{"pitch":70,"velocity":95,"startTime":79.23914099999999,"endTime":79.34783666666667,"instrument":1,"program":12},{"pitch":67,"velocity":95,"startTime":79.40218449999999,"endTime":79.51088016666667,"instrument":1,"program":12},{"pitch":70,"velocity":95,"startTime":79.56522799999999,"endTime":79.67392366666667,"instrument":1,"program":12},{"pitch":67,"velocity":95,"startTime":79.72827149999999,"endTime":79.83696716666667,"instrument":1,"program":12},{"pitch":70,"velocity":95,"startTime":79.89131499999999,"endTime":80.00001066666665,"instrument":1,"program":12},{"pitch":67,"velocity":95,"startTime":80.05435849999999,"endTime":80.16305416666665,"instrument":1,"program":12},{"pitch":70,"velocity":95,"startTime":80.21740199999999,"endTime":80.32609766666666,"instrument":1,"program":12},{"pitch":70,"velocity":95,"startTime":80.3804455,"endTime":80.48914116666666,"instrument":1,"program":12},{"pitch":67,"velocity":95,"startTime":80.543489,"endTime":80.65218466666666,"instrument":1,"program":12},{"pitch":70,"velocity":95,"startTime":80.7065325,"endTime":80.81522816666666,"instrument":1,"program":12},{"pitch":66,"velocity":95,"startTime":80.869576,"endTime":80.97827166666666,"instrument":1,"program":12},{"pitch":69,"velocity":95,"startTime":81.0326195,"endTime":81.14131516666666,"instrument":1,"program":12},{"pitch":72,"velocity":95,"startTime":81.195663,"endTime":81.30435866666666,"instrument":1,"program":12},{"pitch":69,"velocity":95,"startTime":81.3587065,"endTime":81.46740216666666,"instrument":1,"program":12},{"pitch":81,"velocity":95,"startTime":81.52175,"endTime":81.63044566666666,"instrument":1,"program":12},{"pitch":69,"velocity":95,"startTime":81.6847935,"endTime":81.79348916666666,"instrument":1,"program":12},{"pitch":69,"velocity":95,"startTime":81.847837,"endTime":81.95653266666666,"instrument":1,"program":12},{"pitch":69,"velocity":95,"startTime":82.0108805,"endTime":82.11957616666666,"instrument":1,"program":12},{"pitch":74,"velocity":95,"startTime":82.173924,"endTime":82.28261966666666,"instrument":1,"program":12},{"pitch":74,"velocity":95,"startTime":82.3369675,"endTime":82.44566316666666,"instrument":1,"program":12},{"pitch":74,"velocity":95,"startTime":82.500011,"endTime":82.60870666666666,"instrument":1,"program":12},{"pitch":74,"velocity":95,"startTime":82.66305449999999,"endTime":82.77175016666666,"instrument":1,"program":12},{"pitch":69,"velocity":95,"startTime":82.82609799999999,"endTime":82.93479366666666,"instrument":1,"program":12},{"pitch":74,"velocity":95,"startTime":82.98914149999999,"endTime":83.09783716666666,"instrument":1,"program":12},{"pitch":74,"velocity":95,"startTime":83.15218499999999,"endTime":83.26088066666667,"instrument":1,"program":12},{"pitch":69,"velocity":95,"startTime":83.31522849999999,"endTime":83.42392416666667,"instrument":1,"program":12},{"pitch":34,"velocity":110,"startTime":62.608703999999996,"endTime":62.7717475,"instrument":2,"program":32},{"pitch":36,"velocity":110,"startTime":62.934791,"endTime":63.0978345,"instrument":2,"program":32},{"pitch":36,"velocity":110,"startTime":63.260878,"endTime":63.4239215,"instrument":2,"program":32},{"pitch":31,"velocity":110,"startTime":63.58696499999999,"endTime":63.75000849999999,"instrument":2,"program":32},{"pitch":36,"velocity":110,"startTime":63.91305199999999,"endTime":64.0760955,"instrument":2,"program":32},{"pitch":48,"velocity":110,"startTime":64.239139,"endTime":64.4021825,"instrument":2,"program":32},{"pitch":43,"velocity":110,"startTime":64.565226,"endTime":64.7282695,"instrument":2,"program":32},{"pitch":36,"velocity":110,"startTime":64.891313,"endTime":65.0543565,"instrument":2,"program":32},{"pitch":36,"velocity":110,"startTime":65.2174,"endTime":65.3804435,"instrument":2,"program":32},{"pitch":31,"velocity":110,"startTime":65.543487,"endTime":65.7065305,"instrument":2,"program":32},{"pitch":36,"velocity":110,"startTime":65.869574,"endTime":66.0326175,"instrument":2,"program":32},{"pitch":36,"velocity":110,"startTime":66.195661,"endTime":66.3587045,"instrument":2,"program":32},{"pitch":39,"velocity":110,"startTime":66.52174799999999,"endTime":66.68479149999999,"instrument":2,"program":32},{"pitch":27,"velocity":110,"startTime":66.84783499999999,"endTime":67.01087849999999,"instrument":2,"program":32},{"pitch":39,"velocity":110,"startTime":67.17392199999999,"endTime":67.33696549999999,"instrument":2,"program":32},{"pitch":48,"velocity":110,"startTime":67.50000899999999,"endTime":67.66305249999999,"instrument":2,"program":32},{"pitch":43,"velocity":110,"startTime":67.82609599999999,"endTime":67.9891395,"instrument":2,"program":32},{"pitch":43,"velocity":110,"startTime":68.152183,"endTime":68.3152265,"instrument":2,"program":32},{"pitch":43,"velocity":110,"startTime":68.47827,"endTime":68.6413135,"instrument":2,"program":32},{"pitch":38,"velocity":110,"startTime":68.804357,"endTime":68.9674005,"instrument":2,"program":32},{"pitch":34,"velocity":110,"startTime":69.130444,"endTime":69.2934875,"instrument":2,"program":32},{"pitch":34,"velocity":110,"startTime":69.456531,"endTime":69.72827016666666,"instrument":2,"program":32},{"pitch":36,"velocity":110,"startTime":69.782618,"endTime":69.9456615,"instrument":2,"program":32},{"pitch":34,"velocity":110,"startTime":70.108705,"endTime":70.2717485,"instrument":2,"program":32},{"pitch":43,"velocity":110,"startTime":70.434792,"endTime":70.59783549999999,"instrument":2,"program":32},{"pitch":43,"velocity":110,"startTime":70.76087899999999,"endTime":70.92392249999999,"instrument":2,"program":32},{"pitch":43,"velocity":110,"startTime":71.08696599999999,"endTime":71.25000949999999,"instrument":2,"program":32},{"pitch":35,"velocity":110,"startTime":71.41305299999999,"endTime":71.57609649999999,"instrument":2,"program":32},{"pitch":34,"velocity":110,"startTime":71.73913999999999,"endTime":71.90218349999999,"instrument":2,"program":32},{"pitch":34,"velocity":110,"startTime":72.065227,"endTime":72.2282705,"instrument":2,"program":32},{"pitch":38,"velocity":110,"startTime":72.391314,"endTime":72.5543575,"instrument":2,"program":32},{"pitch":38,"velocity":110,"startTime":72.717401,"endTime":72.8804445,"instrument":2,"program":32},{"pitch":38,"velocity":110,"startTime":73.043488,"endTime":73.2065315,"instrument":2,"program":32},{"pitch":42,"velocity":110,"startTime":73.369575,"endTime":73.5326185,"instrument":2,"program":32},{"pitch":42,"velocity":110,"startTime":73.695662,"endTime":73.8587055,"instrument":2,"program":32},{"pitch":38,"velocity":110,"startTime":74.021749,"endTime":74.1847925,"instrument":2,"program":32},{"pitch":33,"velocity":110,"startTime":74.347836,"endTime":74.5108795,"instrument":2,"program":32},{"pitch":33,"velocity":110,"startTime":74.67392299999999,"endTime":74.83696649999999,"instrument":2,"program":32},{"pitch":38,"velocity":110,"startTime":75.00000999999999,"endTime":75.16305349999999,"instrument":2,"program":32},{"pitch":38,"velocity":110,"startTime":75.32609699999999,"endTime":75.48914049999999,"instrument":2,"program":32},{"pitch":38,"velocity":110,"startTime":75.65218399999999,"endTime":75.81522749999999,"instrument":2,"program":32},{"pitch":38,"velocity":110,"startTime":75.97827099999999,"endTime":76.1413145,"instrument":2,"program":32},{"pitch":38,"velocity":110,"startTime":76.304358,"endTime":76.4674015,"instrument":2,"program":32},{"pitch":38,"velocity":110,"startTime":76.630445,"endTime":76.90218416666666,"instrument":2,"program":32},{"pitch":33,"velocity":110,"startTime":76.956532,"endTime":77.1195755,"instrument":2,"program":32},{"pitch":33,"velocity":110,"startTime":77.282619,"endTime":77.4456625,"instrument":2,"program":32},{"pitch":33,"velocity":110,"startTime":77.608706,"endTime":77.7717495,"instrument":2,"program":32},{"pitch":38,"velocity":110,"startTime":77.934793,"endTime":78.0978365,"instrument":2,"program":32},{"pitch":31,"velocity":110,"startTime":78.26088,"endTime":78.4239235,"instrument":2,"program":32},{"pitch":38,"velocity":110,"startTime":80.869576,"endTime":81.0326195,"instrument":2,"program":32},{"pitch":38,"velocity":110,"startTime":81.195663,"endTime":81.3587065,"instrument":2,"program":32},{"pitch":33,"velocity":110,"startTime":81.52175,"endTime":81.6847935,"instrument":2,"program":32},{"pitch":38,"velocity":110,"startTime":81.847837,"endTime":82.0108805,"instrument":2,"program":32},{"pitch":43,"velocity":110,"startTime":82.173924,"endTime":82.3369675,"instrument":2,"program":32},{"pitch":43,"velocity":110,"startTime":82.500011,"endTime":82.66305449999999,"instrument":2,"program":32},{"pitch":43,"velocity":110,"startTime":82.82609799999999,"endTime":82.98914149999999,"instrument":2,"program":32},{"pitch":38,"velocity":110,"startTime":83.15218499999999,"endTime":83.31522849999999,"instrument":2,"program":32},{"pitch":60,"velocity":105,"startTime":62.608703999999996,"endTime":65.0543565,"instrument":3,"program":50},{"pitch":63,"velocity":105,"startTime":62.608703999999996,"endTime":65.10870433333334,"instrument":3,"program":50},{"pitch":67,"velocity":105,"startTime":62.608703999999996,"endTime":65.10870433333334,"instrument":3,"program":50},{"pitch":62,"velocity":105,"startTime":65.2174,"endTime":67.71740033333333,"instrument":3,"program":50},{"pitch":67,"velocity":105,"startTime":65.2174,"endTime":67.71740033333333,"instrument":3,"program":50},{"pitch":74,"velocity":105,"startTime":65.2174,"endTime":67.71740033333333,"instrument":3,"program":50},{"pitch":55,"velocity":105,"startTime":67.82609599999999,"endTime":70.05435716666666,"instrument":3,"program":50},{"pitch":58,"velocity":105,"startTime":67.82609599999999,"endTime":70.16305283333332,"instrument":3,"program":50},{"pitch":62,"velocity":105,"startTime":67.82609599999999,"endTime":70.05435716666666,"instrument":3,"program":50},{"pitch":67,"velocity":105,"startTime":67.82609599999999,"endTime":70.108705,"instrument":3,"program":50},{"pitch":67,"velocity":105,"startTime":70.434792,"endTime":73.043488,"instrument":3,"program":50},{"pitch":74,"velocity":105,"startTime":70.434792,"endTime":71.57609649999999,"instrument":3,"program":50},{"pitch":62,"velocity":105,"startTime":70.48913983333333,"endTime":73.043488,"instrument":3,"program":50},{"pitch":55,"velocity":105,"startTime":70.76087899999999,"endTime":73.043488,"instrument":3,"program":50},{"pitch":58,"velocity":105,"startTime":71.08696599999999,"endTime":73.043488,"instrument":3,"program":50},{"pitch":54,"velocity":105,"startTime":73.043488,"endTime":74.5108795,"instrument":3,"program":50},{"pitch":62,"velocity":105,"startTime":73.043488,"endTime":73.695662,"instrument":3,"program":50},{"pitch":72,"velocity":105,"startTime":73.043488,"endTime":73.64131416666666,"instrument":3,"program":50},{"pitch":78,"velocity":105,"startTime":73.043488,"endTime":73.91305333333332,"instrument":3,"program":50},{"pitch":66,"velocity":105,"startTime":74.021749,"endTime":75.32609699999999,"instrument":3,"program":50},{"pitch":78,"velocity":105,"startTime":74.021749,"endTime":74.1847925,"instrument":3,"program":50},{"pitch":72,"velocity":105,"startTime":74.347836,"endTime":75.32609699999999,"instrument":3,"program":50},{"pitch":78,"velocity":105,"startTime":74.347836,"endTime":74.40218383333332,"instrument":3,"program":50},{"pitch":78,"velocity":105,"startTime":74.72827083333333,"endTime":74.83696649999999,"instrument":3,"program":50},{"pitch":78,"velocity":105,"startTime":75.00000999999999,"endTime":75.32609699999999,"instrument":3,"program":50},{"pitch":54,"velocity":105,"startTime":75.32609699999999,"endTime":75.48914049999999,"instrument":3,"program":50},{"pitch":57,"velocity":105,"startTime":75.65218399999999,"endTime":78.15218433333332,"instrument":3,"program":50},{"pitch":60,"velocity":105,"startTime":75.65218399999999,"endTime":78.26088,"instrument":3,"program":50},{"pitch":64,"velocity":105,"startTime":75.65218399999999,"endTime":78.15218433333332,"instrument":3,"program":50},{"pitch":67,"velocity":105,"startTime":75.65218399999999,"endTime":78.26088,"instrument":3,"program":50},{"pitch":62,"velocity":105,"startTime":78.26088,"endTime":78.47827133333332,"instrument":3,"program":50},{"pitch":70,"velocity":105,"startTime":78.26088,"endTime":78.47827133333332,"instrument":3,"program":50},{"pitch":82,"velocity":105,"startTime":78.26088,"endTime":78.47827133333332,"instrument":3,"program":50},{"pitch":60,"velocity":105,"startTime":80.869576,"endTime":82.173924,"instrument":3,"program":50},{"pitch":62,"velocity":105,"startTime":80.869576,"endTime":82.173924,"instrument":3,"program":50},{"pitch":66,"velocity":105,"startTime":80.869576,"endTime":82.173924,"instrument":3,"program":50},{"pitch":70,"velocity":105,"startTime":80.869576,"endTime":82.173924,"instrument":3,"program":50},{"pitch":58,"velocity":105,"startTime":82.173924,"endTime":82.3369675,"instrument":3,"program":50},{"pitch":62,"velocity":105,"startTime":82.173924,"endTime":82.3369675,"instrument":3,"program":50},{"pitch":67,"velocity":105,"startTime":82.173924,"endTime":82.3369675,"instrument":3,"program":50},{"pitch":74,"velocity":105,"startTime":82.173924,"endTime":82.3369675,"instrument":3,"program":50},{"pitch":35,"velocity":102,"startTime":83.47827199999999,"endTime":83.64131549999999,"isDrum":true},{"pitch":42,"velocity":102,"startTime":83.47827199999999,"endTime":83.64131549999999,"isDrum":true},{"pitch":51,"velocity":102,"startTime":83.47827199999999,"endTime":83.64131549999999,"isDrum":true},{"pitch":42,"velocity":102,"startTime":83.80435899999999,"endTime":83.96740249999999,"isDrum":true},{"pitch":38,"velocity":102,"startTime":84.13044599999999,"endTime":84.29348949999999,"isDrum":true},{"pitch":42,"velocity":102,"startTime":84.13044599999999,"endTime":84.29348949999999,"isDrum":true},{"pitch":51,"velocity":102,"startTime":84.13044599999999,"endTime":84.29348949999999,"isDrum":true},{"pitch":42,"velocity":102,"startTime":84.456533,"endTime":84.6195765,"isDrum":true},{"pitch":35,"velocity":102,"startTime":84.78262,"endTime":84.9456635,"isDrum":true},{"pitch":42,"velocity":102,"startTime":84.78262,"endTime":84.9456635,"isDrum":true},{"pitch":51,"velocity":102,"startTime":84.78262,"endTime":84.9456635,"isDrum":true},{"pitch":35,"velocity":102,"startTime":85.108707,"endTime":85.2717505,"isDrum":true},{"pitch":42,"velocity":102,"startTime":85.108707,"endTime":85.2717505,"isDrum":true},{"pitch":38,"velocity":102,"startTime":85.434794,"endTime":85.5978375,"isDrum":true},{"pitch":42,"velocity":102,"startTime":85.434794,"endTime":85.5978375,"isDrum":true},{"pitch":51,"velocity":102,"startTime":85.434794,"endTime":85.5978375,"isDrum":true},{"pitch":35,"velocity":102,"startTime":85.760881,"endTime":85.9239245,"isDrum":true},{"pitch":42,"velocity":102,"startTime":85.760881,"endTime":85.9239245,"isDrum":true},{"pitch":35,"velocity":102,"startTime":86.086968,"endTime":86.2500115,"isDrum":true},{"pitch":42,"velocity":102,"startTime":86.086968,"endTime":86.2500115,"isDrum":true},{"pitch":51,"velocity":102,"startTime":86.086968,"endTime":86.2500115,"isDrum":true},{"pitch":42,"velocity":102,"startTime":86.413055,"endTime":86.5760985,"isDrum":true},{"pitch":38,"velocity":102,"startTime":86.73914199999999,"endTime":86.90218549999999,"isDrum":true},{"pitch":42,"velocity":102,"startTime":86.73914199999999,"endTime":86.90218549999999,"isDrum":true},{"pitch":51,"velocity":102,"startTime":86.73914199999999,"endTime":86.90218549999999,"isDrum":true},{"pitch":42,"velocity":102,"startTime":87.06522899999999,"endTime":87.22827249999999,"isDrum":true},{"pitch":35,"velocity":102,"startTime":87.39131599999999,"endTime":87.55435949999999,"isDrum":true},{"pitch":42,"velocity":102,"startTime":87.39131599999999,"endTime":87.55435949999999,"isDrum":true},{"pitch":51,"velocity":102,"startTime":87.39131599999999,"endTime":87.55435949999999,"isDrum":true},{"pitch":35,"velocity":102,"startTime":87.71740299999999,"endTime":87.88044649999999,"isDrum":true},{"pitch":42,"velocity":102,"startTime":87.71740299999999,"endTime":87.88044649999999,"isDrum":true},{"pitch":38,"velocity":102,"startTime":88.04348999999999,"endTime":88.20653349999999,"isDrum":true},{"pitch":42,"velocity":102,"startTime":88.04348999999999,"endTime":88.20653349999999,"isDrum":true},{"pitch":51,"velocity":102,"startTime":88.04348999999999,"endTime":88.20653349999999,"isDrum":true},{"pitch":51,"velocity":102,"startTime":88.20653349999999,"endTime":88.36957699999999,"isDrum":true},{"pitch":35,"velocity":102,"startTime":88.36957699999999,"endTime":88.5326205,"isDrum":true},{"pitch":42,"velocity":102,"startTime":88.36957699999999,"endTime":88.5326205,"isDrum":true},{"pitch":35,"velocity":102,"startTime":88.695664,"endTime":88.8587075,"isDrum":true},{"pitch":42,"velocity":102,"startTime":88.695664,"endTime":88.8587075,"isDrum":true},{"pitch":51,"velocity":102,"startTime":88.695664,"endTime":88.8587075,"isDrum":true},{"pitch":42,"velocity":102,"startTime":89.021751,"endTime":89.1847945,"isDrum":true},{"pitch":38,"velocity":102,"startTime":89.347838,"endTime":89.5108815,"isDrum":true},{"pitch":42,"velocity":102,"startTime":89.347838,"endTime":89.5108815,"isDrum":true},{"pitch":42,"velocity":102,"startTime":89.673925,"endTime":89.8369685,"isDrum":true},{"pitch":35,"velocity":102,"startTime":90.000012,"endTime":90.1630555,"isDrum":true},{"pitch":42,"velocity":102,"startTime":90.000012,"endTime":90.1630555,"isDrum":true},{"pitch":51,"velocity":102,"startTime":90.000012,"endTime":90.1630555,"isDrum":true},{"pitch":42,"velocity":102,"startTime":90.326099,"endTime":90.4891425,"isDrum":true},{"pitch":38,"velocity":102,"startTime":90.65218599999999,"endTime":90.81522949999999,"isDrum":true},{"pitch":42,"velocity":102,"startTime":90.65218599999999,"endTime":90.81522949999999,"isDrum":true},{"pitch":51,"velocity":102,"startTime":90.65218599999999,"endTime":90.81522949999999,"isDrum":true},{"pitch":35,"velocity":102,"startTime":90.97827299999999,"endTime":91.14131649999999,"isDrum":true},{"pitch":42,"velocity":102,"startTime":90.97827299999999,"endTime":91.14131649999999,"isDrum":true},{"pitch":42,"velocity":102,"startTime":91.14131649999999,"endTime":91.30435999999999,"isDrum":true},{"pitch":35,"velocity":102,"startTime":91.30435999999999,"endTime":91.46740349999999,"isDrum":true},{"pitch":42,"velocity":102,"startTime":91.30435999999999,"endTime":91.46740349999999,"isDrum":true},{"pitch":51,"velocity":102,"startTime":91.30435999999999,"endTime":91.46740349999999,"isDrum":true},{"pitch":42,"velocity":102,"startTime":91.63044699999999,"endTime":91.79349049999999,"isDrum":true},{"pitch":38,"velocity":102,"startTime":91.95653399999999,"endTime":92.11957749999999,"isDrum":true},{"pitch":42,"velocity":102,"startTime":91.95653399999999,"endTime":92.11957749999999,"isDrum":true},{"pitch":51,"velocity":102,"startTime":91.95653399999999,"endTime":92.11957749999999,"isDrum":true},{"pitch":42,"velocity":102,"startTime":92.28262099999999,"endTime":92.44566449999999,"isDrum":true},{"pitch":35,"velocity":102,"startTime":92.608708,"endTime":92.7717515,"isDrum":true},{"pitch":42,"velocity":102,"startTime":92.608708,"endTime":92.7717515,"isDrum":true},{"pitch":51,"velocity":102,"startTime":92.608708,"endTime":92.7717515,"isDrum":true},{"pitch":42,"velocity":102,"startTime":92.934795,"endTime":93.0978385,"isDrum":true},{"pitch":38,"velocity":102,"startTime":93.260882,"endTime":93.4239255,"isDrum":true},{"pitch":42,"velocity":102,"startTime":93.260882,"endTime":93.4239255,"isDrum":true},{"pitch":51,"velocity":102,"startTime":93.260882,"endTime":93.4239255,"isDrum":true},{"pitch":42,"velocity":102,"startTime":93.586969,"endTime":93.7500125,"isDrum":true},{"pitch":35,"velocity":102,"startTime":93.913056,"endTime":94.0760995,"isDrum":true},{"pitch":42,"velocity":102,"startTime":93.913056,"endTime":94.0760995,"isDrum":true},{"pitch":51,"velocity":102,"startTime":93.913056,"endTime":94.0760995,"isDrum":true},{"pitch":35,"velocity":102,"startTime":94.239143,"endTime":94.4021865,"isDrum":true},{"pitch":42,"velocity":102,"startTime":94.239143,"endTime":94.4021865,"isDrum":true},{"pitch":38,"velocity":102,"startTime":94.56523,"endTime":94.72827349999999,"isDrum":true},{"pitch":42,"velocity":102,"startTime":94.56523,"endTime":94.72827349999999,"isDrum":true},{"pitch":51,"velocity":102,"startTime":94.56523,"endTime":94.72827349999999,"isDrum":true},{"pitch":35,"velocity":102,"startTime":94.89131699999999,"endTime":95.05436049999999,"isDrum":true},{"pitch":42,"velocity":102,"startTime":94.89131699999999,"endTime":95.05436049999999,"isDrum":true},{"pitch":42,"velocity":102,"startTime":95.05436049999999,"endTime":95.21740399999999,"isDrum":true},{"pitch":35,"velocity":102,"startTime":95.21740399999999,"endTime":95.38044749999999,"isDrum":true},{"pitch":42,"velocity":102,"startTime":95.21740399999999,"endTime":95.38044749999999,"isDrum":true},{"pitch":51,"velocity":102,"startTime":95.21740399999999,"endTime":95.38044749999999,"isDrum":true},{"pitch":42,"velocity":102,"startTime":95.54349099999999,"endTime":95.70653449999999,"isDrum":true},{"pitch":38,"velocity":102,"startTime":95.86957799999999,"endTime":96.03262149999999,"isDrum":true},{"pitch":42,"velocity":102,"startTime":95.86957799999999,"endTime":96.03262149999999,"isDrum":true},{"pitch":51,"velocity":102,"startTime":95.86957799999999,"endTime":96.03262149999999,"isDrum":true},{"pitch":42,"velocity":102,"startTime":96.19566499999999,"endTime":96.35870849999999,"isDrum":true},{"pitch":35,"velocity":102,"startTime":96.52175199999999,"endTime":96.68479549999999,"isDrum":true},{"pitch":42,"velocity":102,"startTime":96.52175199999999,"endTime":96.68479549999999,"isDrum":true},{"pitch":51,"velocity":102,"startTime":96.52175199999999,"endTime":96.68479549999999,"isDrum":true},{"pitch":35,"velocity":102,"startTime":96.847839,"endTime":97.0108825,"isDrum":true},{"pitch":42,"velocity":102,"startTime":96.847839,"endTime":97.0108825,"isDrum":true},{"pitch":38,"velocity":102,"startTime":97.173926,"endTime":97.3369695,"isDrum":true},{"pitch":42,"velocity":102,"startTime":97.173926,"endTime":97.3369695,"isDrum":true},{"pitch":51,"velocity":102,"startTime":97.173926,"endTime":97.3369695,"isDrum":true},{"pitch":35,"velocity":102,"startTime":97.500013,"endTime":97.6630565,"isDrum":true},{"pitch":42,"velocity":102,"startTime":97.500013,"endTime":97.6630565,"isDrum":true},{"pitch":35,"velocity":102,"startTime":97.8261,"endTime":97.9891435,"isDrum":true},{"pitch":42,"velocity":102,"startTime":97.8261,"endTime":97.9891435,"isDrum":true},{"pitch":51,"velocity":102,"startTime":97.8261,"endTime":97.9891435,"isDrum":true},{"pitch":42,"velocity":102,"startTime":98.152187,"endTime":98.3152305,"isDrum":true},{"pitch":38,"velocity":102,"startTime":98.478274,"endTime":98.6413175,"isDrum":true},{"pitch":42,"velocity":102,"startTime":98.478274,"endTime":98.6413175,"isDrum":true},{"pitch":51,"velocity":102,"startTime":98.478274,"endTime":98.6413175,"isDrum":true},{"pitch":42,"velocity":102,"startTime":98.80436099999999,"endTime":98.96740449999999,"isDrum":true},{"pitch":35,"velocity":102,"startTime":99.13044799999999,"endTime":99.29349149999999,"isDrum":true},{"pitch":42,"velocity":102,"startTime":99.13044799999999,"endTime":99.29349149999999,"isDrum":true},{"pitch":51,"velocity":102,"startTime":99.13044799999999,"endTime":99.29349149999999,"isDrum":true},{"pitch":35,"velocity":102,"startTime":99.45653499999999,"endTime":99.61957849999999,"isDrum":true},{"pitch":42,"velocity":102,"startTime":99.45653499999999,"endTime":99.61957849999999,"isDrum":true},{"pitch":38,"velocity":102,"startTime":99.78262199999999,"endTime":99.94566549999999,"isDrum":true},{"pitch":42,"velocity":102,"startTime":99.78262199999999,"endTime":99.94566549999999,"isDrum":true},{"pitch":51,"velocity":102,"startTime":99.78262199999999,"endTime":99.94566549999999,"isDrum":true},{"pitch":35,"velocity":102,"startTime":100.10870899999999,"endTime":100.27175249999999,"isDrum":true},{"pitch":42,"velocity":102,"startTime":100.10870899999999,"endTime":100.27175249999999,"isDrum":true},{"pitch":35,"velocity":102,"startTime":100.43479599999999,"endTime":100.59783949999999,"isDrum":true},{"pitch":42,"velocity":102,"startTime":100.43479599999999,"endTime":100.59783949999999,"isDrum":true},{"pitch":51,"velocity":102,"startTime":100.43479599999999,"endTime":100.59783949999999,"isDrum":true},{"pitch":42,"velocity":102,"startTime":100.76088299999999,"endTime":100.9239265,"isDrum":true},{"pitch":38,"velocity":102,"startTime":101.08697,"endTime":101.2500135,"isDrum":true},{"pitch":42,"velocity":102,"startTime":101.08697,"endTime":101.2500135,"isDrum":true},{"pitch":51,"velocity":102,"startTime":101.08697,"endTime":101.2500135,"isDrum":true},{"pitch":42,"velocity":102,"startTime":101.413057,"endTime":101.5761005,"isDrum":true},{"pitch":35,"velocity":102,"startTime":101.739144,"endTime":101.9021875,"isDrum":true},{"pitch":42,"velocity":102,"startTime":101.739144,"endTime":101.9021875,"isDrum":true},{"pitch":51,"velocity":102,"startTime":101.739144,"endTime":101.9021875,"isDrum":true},{"pitch":35,"velocity":102,"startTime":102.065231,"endTime":102.2282745,"isDrum":true},{"pitch":42,"velocity":102,"startTime":102.065231,"endTime":102.2282745,"isDrum":true},{"pitch":51,"velocity":102,"startTime":102.065231,"endTime":102.2282745,"isDrum":true},{"pitch":51,"velocity":102,"startTime":102.2282745,"endTime":102.391318,"isDrum":true},{"pitch":38,"velocity":102,"startTime":102.391318,"endTime":102.5543615,"isDrum":true},{"pitch":42,"velocity":102,"startTime":102.391318,"endTime":102.5543615,"isDrum":true},{"pitch":51,"velocity":102,"startTime":102.391318,"endTime":102.5543615,"isDrum":true},{"pitch":35,"velocity":102,"startTime":102.71740499999999,"endTime":102.88044849999999,"isDrum":true},{"pitch":42,"velocity":102,"startTime":102.71740499999999,"endTime":102.88044849999999,"isDrum":true},{"pitch":51,"velocity":102,"startTime":102.71740499999999,"endTime":102.88044849999999,"isDrum":true},{"pitch":65,"velocity":95,"startTime":83.47827199999999,"endTime":83.64131549999999,"instrument":1,"program":12},{"pitch":67,"velocity":95,"startTime":83.64131549999999,"endTime":83.75001116666665,"instrument":1,"program":12},{"pitch":70,"velocity":95,"startTime":83.80435899999999,"endTime":83.91305466666665,"instrument":1,"program":12},{"pitch":67,"velocity":95,"startTime":83.96740249999999,"endTime":84.07609816666665,"instrument":1,"program":12},{"pitch":74,"velocity":95,"startTime":84.13044599999999,"endTime":84.29348949999999,"instrument":1,"program":12},{"pitch":67,"velocity":95,"startTime":84.29348949999999,"endTime":84.40218516666665,"instrument":1,"program":12},{"pitch":65,"velocity":95,"startTime":84.456533,"endTime":84.56522866666666,"instrument":1,"program":12},{"pitch":67,"velocity":95,"startTime":84.6195765,"endTime":84.67392433333333,"instrument":1,"program":12},{"pitch":65,"velocity":95,"startTime":84.78262,"endTime":84.9456635,"instrument":1,"program":12},{"pitch":67,"velocity":95,"startTime":84.9456635,"endTime":85.05435916666666,"instrument":1,"program":12},{"pitch":70,"velocity":95,"startTime":85.108707,"endTime":85.21740266666664,"instrument":1,"program":12},{"pitch":74,"velocity":95,"startTime":85.2717505,"endTime":85.38044616666664,"instrument":1,"program":12},{"pitch":67,"velocity":95,"startTime":85.434794,"endTime":85.54348966666664,"instrument":1,"program":12},{"pitch":70,"velocity":95,"startTime":85.5978375,"endTime":85.65218533333334,"instrument":1,"program":12},{"pitch":67,"velocity":95,"startTime":85.760881,"endTime":85.86957666666665,"instrument":1,"program":12},{"pitch":65,"velocity":95,"startTime":85.9239245,"endTime":86.03262016666665,"instrument":1,"program":12},{"pitch":64,"velocity":95,"startTime":86.086968,"endTime":86.2500115,"instrument":1,"program":12},{"pitch":64,"velocity":95,"startTime":86.2500115,"endTime":86.35870716666665,"instrument":1,"program":12},{"pitch":69,"velocity":95,"startTime":86.413055,"endTime":86.52175066666665,"instrument":1,"program":12},{"pitch":64,"velocity":95,"startTime":86.5760985,"endTime":86.63044633333334,"instrument":1,"program":12},{"pitch":69,"velocity":95,"startTime":87.39131599999999,"endTime":87.50001166666665,"instrument":1,"program":12},{"pitch":74,"velocity":95,"startTime":87.55435949999999,"endTime":87.66305516666665,"instrument":1,"program":12},{"pitch":69,"velocity":95,"startTime":87.71740299999999,"endTime":87.82609866666665,"instrument":1,"program":12},{"pitch":74,"velocity":95,"startTime":87.88044649999999,"endTime":87.98914216666665,"instrument":1,"program":12},{"pitch":65,"velocity":95,"startTime":88.04348999999999,"endTime":88.20653349999999,"instrument":1,"program":12},{"pitch":70,"velocity":95,"startTime":88.20653349999999,"endTime":88.31522916666665,"instrument":1,"program":12},{"pitch":65,"velocity":95,"startTime":88.36957699999999,"endTime":88.47827266666665,"instrument":1,"program":12},{"pitch":62,"velocity":95,"startTime":88.5326205,"endTime":88.64131616666666,"instrument":1,"program":12},{"pitch":62,"velocity":95,"startTime":91.63044699999999,"endTime":91.84783833333333,"instrument":1,"program":12},{"pitch":74,"velocity":95,"startTime":93.913056,"endTime":94.0760995,"instrument":1,"program":12},{"pitch":69,"velocity":95,"startTime":94.0760995,"endTime":94.18479516666666,"instrument":1,"program":12},{"pitch":69,"velocity":95,"startTime":94.239143,"endTime":94.34783866666666,"instrument":1,"program":12},{"pitch":72,"velocity":95,"startTime":94.4021865,"endTime":94.51088216666666,"instrument":1,"program":12},{"pitch":69,"velocity":95,"startTime":95.86957799999999,"endTime":96.03262149999999,"instrument":1,"program":12},{"pitch":74,"velocity":95,"startTime":96.03262149999999,"endTime":96.14131716666665,"instrument":1,"program":12},{"pitch":69,"velocity":95,"startTime":96.19566499999999,"endTime":96.30436066666665,"instrument":1,"program":12},{"pitch":72,"velocity":95,"startTime":96.35870849999999,"endTime":96.46740416666665,"instrument":1,"program":12},{"pitch":74,"velocity":95,"startTime":97.173926,"endTime":97.3369695,"instrument":1,"program":12},{"pitch":69,"velocity":95,"startTime":97.3369695,"endTime":97.44566516666666,"instrument":1,"program":12},{"pitch":74,"velocity":95,"startTime":97.500013,"endTime":97.60870866666666,"instrument":1,"program":12},{"pitch":69,"velocity":95,"startTime":97.6630565,"endTime":97.77175216666666,"instrument":1,"program":12},{"pitch":74,"velocity":95,"startTime":97.8261,"endTime":97.93479566666666,"instrument":1,"program":12},{"pitch":74,"velocity":95,"startTime":97.9891435,"endTime":98.09783916666666,"instrument":1,"program":12},{"pitch":69,"velocity":95,"startTime":98.152187,"endTime":98.26088266666666,"instrument":1,"program":12},{"pitch":74,"velocity":95,"startTime":98.3152305,"endTime":98.36957833333332,"instrument":1,"program":12},{"pitch":74,"velocity":95,"startTime":98.478274,"endTime":98.58696966666666,"instrument":1,"program":12},{"pitch":69,"velocity":95,"startTime":98.6413175,"endTime":98.75001316666666,"instrument":1,"program":12},{"pitch":74,"velocity":95,"startTime":98.80436099999999,"endTime":98.91305666666666,"instrument":1,"program":12},{"pitch":74,"velocity":95,"startTime":98.96740449999999,"endTime":99.07610016666666,"instrument":1,"program":12},{"pitch":69,"velocity":95,"startTime":99.13044799999999,"endTime":99.29349149999999,"instrument":1,"program":12},{"pitch":74,"velocity":95,"startTime":99.29349149999999,"endTime":99.40218716666666,"instrument":1,"program":12},{"pitch":69,"velocity":95,"startTime":99.45653499999999,"endTime":99.56523066666666,"instrument":1,"program":12},{"pitch":74,"velocity":95,"startTime":99.61957849999999,"endTime":99.67392633333333,"instrument":1,"program":12},{"pitch":81,"velocity":95,"startTime":99.78262199999999,"endTime":99.89131766666667,"instrument":1,"program":12},{"pitch":69,"velocity":95,"startTime":99.94566549999999,"endTime":100.00001333333333,"instrument":1,"program":12},{"pitch":74,"velocity":95,"startTime":100.10870899999999,"endTime":100.21740466666665,"instrument":1,"program":12},{"pitch":69,"velocity":95,"startTime":100.27175249999999,"endTime":100.32610033333333,"instrument":1,"program":12},{"pitch":62,"velocity":95,"startTime":100.43479599999999,"endTime":100.54349166666665,"instrument":1,"program":12},{"pitch":74,"velocity":95,"startTime":100.59783949999999,"endTime":100.70653516666665,"instrument":1,"program":12},{"pitch":69,"velocity":95,"startTime":100.76088299999999,"endTime":100.86957866666665,"instrument":1,"program":12},{"pitch":74,"velocity":95,"startTime":100.9239265,"endTime":101.03262216666666,"instrument":1,"program":12},{"pitch":72,"velocity":95,"startTime":101.08697,"endTime":101.19566566666666,"instrument":1,"program":12},{"pitch":74,"velocity":95,"startTime":101.2500135,"endTime":101.35870916666666,"instrument":1,"program":12},{"pitch":72,"velocity":95,"startTime":101.413057,"endTime":101.52175266666666,"instrument":1,"program":12},{"pitch":69,"velocity":95,"startTime":101.5761005,"endTime":101.68479616666666,"instrument":1,"program":12},{"pitch":70,"velocity":95,"startTime":101.739144,"endTime":101.9021875,"instrument":1,"program":12},{"pitch":65,"velocity":95,"startTime":101.9021875,"endTime":102.01088316666666,"instrument":1,"program":12},{"pitch":67,"velocity":95,"startTime":102.065231,"endTime":102.17392666666666,"instrument":1,"program":12},{"pitch":70,"velocity":95,"startTime":102.2282745,"endTime":102.28262233333332,"instrument":1,"program":12},{"pitch":77,"velocity":95,"startTime":102.391318,"endTime":102.50001366666666,"instrument":1,"program":12},{"pitch":70,"velocity":95,"startTime":102.5543615,"endTime":102.60870933333332,"instrument":1,"program":12},{"pitch":67,"velocity":95,"startTime":102.71740499999999,"endTime":102.82610066666666,"instrument":1,"program":12},{"pitch":70,"velocity":95,"startTime":102.88044849999999,"endTime":102.93479633333332,"instrument":1,"program":12},{"pitch":74,"velocity":95,"startTime":103.04349199999999,"endTime":103.15218766666666,"instrument":1,"program":12},{"pitch":67,"velocity":95,"startTime":103.20653549999999,"endTime":103.31523116666666,"instrument":1,"program":12},{"pitch":70,"velocity":95,"startTime":103.36957899999999,"endTime":103.47827466666666,"instrument":1,"program":12},{"pitch":77,"velocity":95,"startTime":103.53262249999999,"endTime":103.58697033333333,"instrument":1,"program":12},{"pitch":74,"velocity":95,"startTime":103.69566599999999,"endTime":103.75001383333333,"instrument":1,"program":12},{"pitch":67,"velocity":95,"startTime":103.85870949999999,"endTime":103.96740516666667,"instrument":1,"program":12},{"pitch":70,"velocity":95,"startTime":104.02175299999999,"endTime":104.13044866666665,"instrument":1,"program":12},{"pitch":67,"velocity":95,"startTime":104.18479649999999,"endTime":104.29349216666665,"instrument":1,"program":12},{"pitch":43,"velocity":110,"startTime":83.47827199999999,"endTime":83.64131549999999,"instrument":2,"program":32},{"pitch":43,"velocity":110,"startTime":83.80435899999999,"endTime":83.96740249999999,"instrument":2,"program":32},{"pitch":38,"velocity":110,"startTime":84.13044599999999,"endTime":84.29348949999999,"instrument":2,"program":32},{"pitch":38,"velocity":110,"startTime":84.456533,"endTime":84.9456635,"instrument":2,"program":32},{"pitch":29,"velocity":110,"startTime":85.108707,"endTime":85.2717505,"instrument":2,"program":32},{"pitch":41,"velocity":110,"startTime":85.434794,"endTime":85.5978375,"instrument":2,"program":32},{"pitch":46,"velocity":110,"startTime":85.760881,"endTime":85.9239245,"instrument":2,"program":32},{"pitch":40,"velocity":110,"startTime":86.086968,"endTime":86.413055,"instrument":2,"program":32},{"pitch":40,"velocity":110,"startTime":86.5760985,"endTime":86.73914199999999,"instrument":2,"program":32},{"pitch":40,"velocity":110,"startTime":86.90218549999999,"endTime":87.06522899999999,"instrument":2,"program":32},{"pitch":28,"velocity":110,"startTime":87.06522899999999,"endTime":87.22827249999999,"instrument":2,"program":32},{"pitch":39,"velocity":110,"startTime":87.39131599999999,"endTime":87.71740299999999,"instrument":2,"program":32},{"pitch":39,"velocity":110,"startTime":87.88044649999999,"endTime":88.04348999999999,"instrument":2,"program":32},{"pitch":38,"velocity":110,"startTime":88.04348999999999,"endTime":88.26088133333333,"instrument":2,"program":32},{"pitch":38,"velocity":110,"startTime":88.36957699999999,"endTime":88.5326205,"instrument":2,"program":32},{"pitch":31,"velocity":110,"startTime":88.695664,"endTime":88.91305533333333,"instrument":2,"program":32},{"pitch":33,"velocity":110,"startTime":90.97827299999999,"endTime":91.46740349999999,"instrument":2,"program":32},{"pitch":33,"velocity":110,"startTime":91.63044699999999,"endTime":91.79349049999999,"instrument":2,"program":32},{"pitch":38,"velocity":110,"startTime":91.95653399999999,"endTime":92.11957749999999,"instrument":2,"program":32},{"pitch":38,"velocity":110,"startTime":92.28262099999999,"endTime":92.44566449999999,"instrument":2,"program":32},{"pitch":33,"velocity":110,"startTime":92.608708,"endTime":92.7717515,"instrument":2,"program":32},{"pitch":36,"velocity":110,"startTime":92.934795,"endTime":93.0978385,"instrument":2,"program":32},{"pitch":38,"velocity":110,"startTime":93.260882,"endTime":93.4239255,"instrument":2,"program":32},{"pitch":36,"velocity":110,"startTime":93.586969,"endTime":93.7500125,"instrument":2,"program":32},{"pitch":38,"velocity":110,"startTime":93.913056,"endTime":94.239143,"instrument":2,"program":32},{"pitch":38,"velocity":110,"startTime":94.4021865,"endTime":94.56523,"instrument":2,"program":32},{"pitch":45,"velocity":110,"startTime":94.72827349999999,"endTime":94.89131699999999,"instrument":2,"program":32},{"pitch":38,"velocity":110,"startTime":94.89131699999999,"endTime":95.05436049999999,"instrument":2,"program":32},{"pitch":45,"velocity":110,"startTime":95.21740399999999,"endTime":95.38044749999999,"instrument":2,"program":32},{"pitch":38,"velocity":110,"startTime":95.54349099999999,"endTime":95.70653449999999,"instrument":2,"program":32},{"pitch":42,"velocity":110,"startTime":95.86957799999999,"endTime":96.03262149999999,"instrument":2,"program":32},{"pitch":45,"velocity":110,"startTime":96.19566499999999,"endTime":96.35870849999999,"instrument":2,"program":32},{"pitch":38,"velocity":110,"startTime":96.52175199999999,"endTime":96.847839,"instrument":2,"program":32},{"pitch":50,"velocity":110,"startTime":97.0108825,"endTime":97.173926,"instrument":2,"program":32},{"pitch":45,"velocity":110,"startTime":97.3369695,"endTime":97.500013,"instrument":2,"program":32},{"pitch":50,"velocity":110,"startTime":97.500013,"endTime":97.6630565,"instrument":2,"program":32},{"pitch":45,"velocity":110,"startTime":97.8261,"endTime":97.9891435,"instrument":2,"program":32},{"pitch":50,"velocity":110,"startTime":98.152187,"endTime":98.3152305,"instrument":2,"program":32},{"pitch":42,"velocity":110,"startTime":98.478274,"endTime":98.6413175,"instrument":2,"program":32},{"pitch":42,"velocity":110,"startTime":98.80436099999999,"endTime":98.96740449999999,"instrument":2,"program":32},{"pitch":38,"velocity":110,"startTime":99.13044799999999,"endTime":99.45653499999999,"instrument":2,"program":32},{"pitch":38,"velocity":110,"startTime":99.61957849999999,"endTime":99.78262199999999,"instrument":2,"program":32},{"pitch":38,"velocity":110,"startTime":99.94566549999999,"endTime":100.10870899999999,"instrument":2,"program":32},{"pitch":42,"velocity":110,"startTime":100.10870899999999,"endTime":100.27175249999999,"instrument":2,"program":32},{"pitch":43,"velocity":110,"startTime":100.43479599999999,"endTime":100.59783949999999,"instrument":2,"program":32},{"pitch":48,"velocity":110,"startTime":100.76088299999999,"endTime":100.9239265,"instrument":2,"program":32},{"pitch":42,"velocity":110,"startTime":101.08697,"endTime":101.2500135,"instrument":2,"program":32},{"pitch":45,"velocity":110,"startTime":101.413057,"endTime":101.5761005,"instrument":2,"program":32},{"pitch":31,"velocity":110,"startTime":101.739144,"endTime":102.065231,"instrument":2,"program":32},{"pitch":31,"velocity":110,"startTime":102.2282745,"endTime":102.391318,"instrument":2,"program":32},{"pitch":31,"velocity":110,"startTime":102.5543615,"endTime":102.71740499999999,"instrument":2,"program":32},{"pitch":31,"velocity":110,"startTime":102.71740499999999,"endTime":102.88044849999999,"instrument":2,"program":32},{"pitch":31,"velocity":110,"startTime":103.04349199999999,"endTime":103.20653549999999,"instrument":2,"program":32},{"pitch":31,"velocity":110,"startTime":103.36957899999999,"endTime":103.53262249999999,"instrument":2,"program":32},{"pitch":31,"velocity":110,"startTime":103.69566599999999,"endTime":103.85870949999999,"instrument":2,"program":32},{"pitch":43,"velocity":110,"startTime":104.02175299999999,"endTime":104.18479649999999,"instrument":2,"program":32},{"pitch":55,"velocity":105,"startTime":83.47827199999999,"endTime":84.56522866666666,"instrument":3,"program":50},{"pitch":58,"velocity":105,"startTime":83.47827199999999,"endTime":84.56522866666666,"instrument":3,"program":50},{"pitch":62,"velocity":105,"startTime":83.47827199999999,"endTime":84.56522866666666,"instrument":3,"program":50},{"pitch":65,"velocity":105,"startTime":83.47827199999999,"endTime":84.56522866666666,"instrument":3,"program":50},{"pitch":58,"velocity":105,"startTime":84.6195765,"endTime":85.97827233333334,"instrument":3,"program":50},{"pitch":60,"velocity":105,"startTime":84.6195765,"endTime":85.97827233333334,"instrument":3,"program":50},{"pitch":65,"velocity":105,"startTime":84.6195765,"endTime":85.97827233333334,"instrument":3,"program":50},{"pitch":67,"velocity":105,"startTime":85.108707,"endTime":85.97827233333334,"instrument":3,"program":50},{"pitch":72,"velocity":105,"startTime":85.434794,"endTime":85.9239245,"instrument":3,"program":50},{"pitch":57,"velocity":105,"startTime":86.086968,"endTime":87.17392466666665,"instrument":3,"program":50},{"pitch":60,"velocity":105,"startTime":86.086968,"endTime":87.17392466666665,"instrument":3,"program":50},{"pitch":64,"velocity":105,"startTime":86.086968,"endTime":87.17392466666665,"instrument":3,"program":50},{"pitch":67,"velocity":105,"startTime":86.086968,"endTime":87.17392466666665,"instrument":3,"program":50},{"pitch":72,"velocity":105,"startTime":86.086968,"endTime":87.17392466666665,"instrument":3,"program":50},{"pitch":58,"velocity":105,"startTime":87.22827249999999,"endTime":87.98914216666665,"instrument":3,"program":50},{"pitch":62,"velocity":105,"startTime":87.22827249999999,"endTime":87.55435949999999,"instrument":3,"program":50},{"pitch":65,"velocity":105,"startTime":87.22827249999999,"endTime":88.04348999999999,"instrument":3,"program":50},{"pitch":68,"velocity":105,"startTime":87.22827249999999,"endTime":87.55435949999999,"instrument":3,"program":50},{"pitch":74,"velocity":105,"startTime":87.22827249999999,"endTime":87.98914216666665,"instrument":3,"program":50},{"pitch":62,"velocity":105,"startTime":87.60870733333334,"endTime":87.93479433333334,"instrument":3,"program":50},{"pitch":55,"velocity":105,"startTime":88.04348999999999,"endTime":88.695664,"instrument":3,"program":50},{"pitch":58,"velocity":105,"startTime":88.04348999999999,"endTime":88.695664,"instrument":3,"program":50},{"pitch":63,"velocity":105,"startTime":88.04348999999999,"endTime":88.695664,"instrument":3,"program":50},{"pitch":67,"velocity":105,"startTime":88.04348999999999,"endTime":88.695664,"instrument":3,"program":50},{"pitch":59,"velocity":105,"startTime":88.695664,"endTime":91.19566433333333,"instrument":3,"program":50},{"pitch":62,"velocity":105,"startTime":88.695664,"endTime":91.19566433333333,"instrument":3,"program":50},{"pitch":65,"velocity":105,"startTime":88.695664,"endTime":91.19566433333333,"instrument":3,"program":50},{"pitch":67,"velocity":105,"startTime":88.695664,"endTime":91.19566433333333,"instrument":3,"program":50},{"pitch":58,"velocity":105,"startTime":95.76088233333333,"endTime":96.52175199999999,"instrument":3,"program":50},{"pitch":60,"velocity":105,"startTime":95.76088233333333,"endTime":96.52175199999999,"instrument":3,"program":50},{"pitch":62,"velocity":105,"startTime":95.76088233333333,"endTime":96.52175199999999,"instrument":3,"program":50},{"pitch":66,"velocity":105,"startTime":95.76088233333333,"endTime":96.52175199999999,"instrument":3,"program":50},{"pitch":69,"velocity":105,"startTime":95.76088233333333,"endTime":96.52175199999999,"instrument":3,"program":50},{"pitch":56,"velocity":105,"startTime":96.52175199999999,"endTime":99.02175233333332,"instrument":3,"program":50},{"pitch":60,"velocity":105,"startTime":96.52175199999999,"endTime":99.02175233333332,"instrument":3,"program":50},{"pitch":62,"velocity":105,"startTime":96.52175199999999,"endTime":99.02175233333332,"instrument":3,"program":50},{"pitch":66,"velocity":105,"startTime":96.52175199999999,"endTime":99.02175233333332,"instrument":3,"program":50},{"pitch":60,"velocity":105,"startTime":99.13044799999999,"endTime":101.46740483333332,"instrument":3,"program":50},{"pitch":62,"velocity":105,"startTime":99.13044799999999,"endTime":101.413057,"instrument":3,"program":50},{"pitch":66,"velocity":105,"startTime":99.13044799999999,"endTime":101.46740483333332,"instrument":3,"program":50},{"pitch":69,"velocity":105,"startTime":99.13044799999999,"endTime":101.413057,"instrument":3,"program":50},{"pitch":58,"velocity":105,"startTime":101.739144,"endTime":104.23914433333333,"instrument":3,"program":50},{"pitch":62,"velocity":105,"startTime":101.739144,"endTime":104.23914433333333,"instrument":3,"program":50},{"pitch":65,"velocity":105,"startTime":101.739144,"endTime":104.23914433333333,"instrument":3,"program":50},{"pitch":67,"velocity":105,"startTime":101.739144,"endTime":104.23914433333333,"instrument":3,"program":50},{"pitch":35,"velocity":102,"startTime":104.34783999999999,"endTime":104.45653566666665,"isDrum":true},{"pitch":42,"velocity":102,"startTime":104.34783999999999,"endTime":104.45653566666665,"isDrum":true},{"pitch":42,"velocity":102,"startTime":104.67392699999999,"endTime":104.78262266666665,"isDrum":true},{"pitch":35,"velocity":102,"startTime":104.83697049999999,"endTime":104.94566616666665,"isDrum":true},{"pitch":40,"velocity":102,"startTime":105.000014,"endTime":105.10870966666666,"isDrum":true},{"pitch":42,"velocity":102,"startTime":105.000014,"endTime":105.10870966666666,"isDrum":true},{"pitch":35,"velocity":102,"startTime":105.326101,"endTime":105.43479666666666,"isDrum":true},{"pitch":42,"velocity":102,"startTime":105.326101,"endTime":105.43479666666666,"isDrum":true},{"pitch":35,"velocity":102,"startTime":105.652188,"endTime":105.76088366666666,"isDrum":true},{"pitch":42,"velocity":102,"startTime":105.652188,"endTime":105.76088366666666,"isDrum":true},{"pitch":42,"velocity":102,"startTime":105.978275,"endTime":106.08697066666666,"isDrum":true},{"pitch":40,"velocity":102,"startTime":106.304362,"endTime":106.41305766666666,"isDrum":true},{"pitch":42,"velocity":102,"startTime":106.304362,"endTime":106.41305766666666,"isDrum":true},{"pitch":42,"velocity":102,"startTime":106.630449,"endTime":106.73914466666666,"isDrum":true},{"pitch":35,"velocity":102,"startTime":106.79349249999999,"endTime":106.90218816666666,"isDrum":true},{"pitch":35,"velocity":102,"startTime":106.95653599999999,"endTime":107.06523166666666,"isDrum":true},{"pitch":42,"velocity":102,"startTime":106.95653599999999,"endTime":107.06523166666666,"isDrum":true},{"pitch":42,"velocity":102,"startTime":107.11957949999999,"endTime":107.22827516666666,"isDrum":true},{"pitch":35,"velocity":102,"startTime":107.28262299999999,"endTime":107.39131866666666,"isDrum":true},{"pitch":42,"velocity":102,"startTime":107.28262299999999,"endTime":107.39131866666666,"isDrum":true},{"pitch":40,"velocity":102,"startTime":107.44566649999999,"endTime":107.55436216666666,"isDrum":true},{"pitch":40,"velocity":102,"startTime":107.60870999999999,"endTime":107.71740566666666,"isDrum":true},{"pitch":42,"velocity":102,"startTime":107.60870999999999,"endTime":107.71740566666666,"isDrum":true},{"pitch":35,"velocity":102,"startTime":107.93479699999999,"endTime":108.04349266666667,"isDrum":true},{"pitch":42,"velocity":102,"startTime":107.93479699999999,"endTime":108.04349266666667,"isDrum":true},{"pitch":35,"velocity":102,"startTime":108.09784049999999,"endTime":108.20653616666665,"isDrum":true},{"pitch":42,"velocity":102,"startTime":108.09784049999999,"endTime":108.20653616666665,"isDrum":true},{"pitch":35,"velocity":102,"startTime":108.26088399999999,"endTime":108.36957966666665,"isDrum":true},{"pitch":42,"velocity":102,"startTime":108.26088399999999,"endTime":108.36957966666665,"isDrum":true},{"pitch":42,"velocity":102,"startTime":108.58697099999999,"endTime":108.69566666666665,"isDrum":true},{"pitch":40,"velocity":102,"startTime":108.91305799999999,"endTime":109.02175366666665,"isDrum":true},{"pitch":42,"velocity":102,"startTime":108.91305799999999,"endTime":109.02175366666665,"isDrum":true},{"pitch":42,"velocity":102,"startTime":109.239145,"endTime":109.34784066666666,"isDrum":true},{"pitch":40,"velocity":102,"startTime":109.4021885,"endTime":109.51088416666666,"isDrum":true},{"pitch":35,"velocity":102,"startTime":109.565232,"endTime":109.67392766666666,"isDrum":true},{"pitch":42,"velocity":102,"startTime":109.565232,"endTime":109.67392766666666,"isDrum":true},{"pitch":35,"velocity":102,"startTime":109.891319,"endTime":110.00001466666666,"isDrum":true},{"pitch":42,"velocity":102,"startTime":109.891319,"endTime":110.00001466666666,"isDrum":true},{"pitch":40,"velocity":102,"startTime":110.217406,"endTime":110.32610166666666,"isDrum":true},{"pitch":42,"velocity":102,"startTime":110.217406,"endTime":110.32610166666666,"isDrum":true},{"pitch":42,"velocity":102,"startTime":110.543493,"endTime":110.65218866666666,"isDrum":true},{"pitch":35,"velocity":102,"startTime":110.86957999999998,"endTime":110.97827566666666,"isDrum":true},{"pitch":42,"velocity":102,"startTime":110.86957999999998,"endTime":110.97827566666666,"isDrum":true},{"pitch":42,"velocity":102,"startTime":111.19566699999999,"endTime":111.30436266666666,"isDrum":true},{"pitch":40,"velocity":102,"startTime":111.52175399999999,"endTime":111.63044966666666,"isDrum":true},{"pitch":42,"velocity":102,"startTime":111.52175399999999,"endTime":111.63044966666666,"isDrum":true},{"pitch":42,"velocity":102,"startTime":111.84784099999999,"endTime":111.95653666666666,"isDrum":true},{"pitch":35,"velocity":102,"startTime":112.01088449999999,"endTime":112.11958016666665,"isDrum":true},{"pitch":40,"velocity":102,"startTime":112.01088449999999,"endTime":112.11958016666665,"isDrum":true},{"pitch":35,"velocity":102,"startTime":112.17392799999999,"endTime":112.28262366666665,"isDrum":true},{"pitch":42,"velocity":102,"startTime":112.17392799999999,"endTime":112.28262366666665,"isDrum":true},{"pitch":40,"velocity":102,"startTime":112.33697149999999,"endTime":112.44566716666665,"isDrum":true},{"pitch":35,"velocity":102,"startTime":112.50001499999999,"endTime":112.60871066666665,"isDrum":true},{"pitch":42,"velocity":102,"startTime":112.50001499999999,"endTime":112.60871066666665,"isDrum":true},{"pitch":40,"velocity":102,"startTime":112.82610199999999,"endTime":112.93479766666665,"isDrum":true},{"pitch":42,"velocity":102,"startTime":112.82610199999999,"endTime":112.93479766666665,"isDrum":true},{"pitch":51,"velocity":102,"startTime":112.82610199999999,"endTime":112.93479766666665,"isDrum":true},{"pitch":42,"velocity":102,"startTime":113.15218899999999,"endTime":113.26088466666666,"isDrum":true},{"pitch":35,"velocity":102,"startTime":113.478276,"endTime":113.58697166666666,"isDrum":true},{"pitch":40,"velocity":102,"startTime":113.478276,"endTime":113.58697166666666,"isDrum":true},{"pitch":42,"velocity":102,"startTime":113.478276,"endTime":113.58697166666666,"isDrum":true},{"pitch":40,"velocity":102,"startTime":113.6413195,"endTime":113.75001516666666,"isDrum":true},{"pitch":42,"velocity":102,"startTime":113.804363,"endTime":113.91305866666666,"isDrum":true},{"pitch":35,"velocity":102,"startTime":113.9674065,"endTime":114.07610216666666,"isDrum":true},{"pitch":40,"velocity":102,"startTime":113.9674065,"endTime":114.07610216666666,"isDrum":true},{"pitch":40,"velocity":102,"startTime":114.13045,"endTime":114.23914566666666,"isDrum":true},{"pitch":42,"velocity":102,"startTime":114.13045,"endTime":114.23914566666666,"isDrum":true},{"pitch":40,"velocity":102,"startTime":114.2934935,"endTime":114.40218916666666,"isDrum":true},{"pitch":42,"velocity":102,"startTime":114.456537,"endTime":114.56523266666666,"isDrum":true},{"pitch":40,"velocity":102,"startTime":114.6195805,"endTime":114.72827616666666,"isDrum":true},{"pitch":35,"velocity":102,"startTime":114.782624,"endTime":114.89131966666666,"isDrum":true},{"pitch":40,"velocity":102,"startTime":114.782624,"endTime":114.89131966666666,"isDrum":true},{"pitch":42,"velocity":102,"startTime":114.782624,"endTime":114.89131966666666,"isDrum":true},{"pitch":40,"velocity":102,"startTime":114.94566749999998,"endTime":115.05436316666666,"isDrum":true},{"pitch":35,"velocity":102,"startTime":115.10871099999999,"endTime":115.21740666666666,"isDrum":true},{"pitch":42,"velocity":102,"startTime":115.10871099999999,"endTime":115.21740666666666,"isDrum":true},{"pitch":40,"velocity":102,"startTime":115.27175449999999,"endTime":115.38045016666666,"isDrum":true},{"pitch":40,"velocity":102,"startTime":115.43479799999999,"endTime":115.54349366666666,"isDrum":true},{"pitch":42,"velocity":102,"startTime":115.43479799999999,"endTime":115.54349366666666,"isDrum":true},{"pitch":40,"velocity":102,"startTime":115.59784149999999,"endTime":115.70653716666666,"isDrum":true},{"pitch":42,"velocity":102,"startTime":115.76088499999999,"endTime":115.86958066666666,"isDrum":true},{"pitch":40,"velocity":102,"startTime":115.92392849999999,"endTime":116.03262416666666,"isDrum":true},{"pitch":35,"velocity":102,"startTime":116.08697199999999,"endTime":116.19566766666665,"isDrum":true},{"pitch":40,"velocity":102,"startTime":116.08697199999999,"endTime":116.19566766666665,"isDrum":true},{"pitch":42,"velocity":102,"startTime":116.08697199999999,"endTime":116.19566766666665,"isDrum":true},{"pitch":40,"velocity":102,"startTime":116.25001549999999,"endTime":116.35871116666665,"isDrum":true},{"pitch":35,"velocity":102,"startTime":116.41305899999999,"endTime":116.52175466666665,"isDrum":true},{"pitch":42,"velocity":102,"startTime":116.41305899999999,"endTime":116.52175466666665,"isDrum":true},{"pitch":40,"velocity":102,"startTime":116.57610249999999,"endTime":116.68479816666665,"isDrum":true},{"pitch":40,"velocity":102,"startTime":116.73914599999999,"endTime":116.84784166666665,"isDrum":true},{"pitch":42,"velocity":102,"startTime":116.73914599999999,"endTime":116.84784166666665,"isDrum":true},{"pitch":42,"velocity":102,"startTime":117.06523299999999,"endTime":117.17392866666665,"isDrum":true},{"pitch":40,"velocity":102,"startTime":117.22827649999999,"endTime":117.33697216666665,"isDrum":true},{"pitch":35,"velocity":102,"startTime":117.39132,"endTime":117.50001566666666,"isDrum":true},{"pitch":42,"velocity":102,"startTime":117.39132,"endTime":117.50001566666666,"isDrum":true},{"pitch":35,"velocity":102,"startTime":117.717407,"endTime":117.82610266666666,"isDrum":true},{"pitch":42,"velocity":102,"startTime":117.717407,"endTime":117.82610266666666,"isDrum":true},{"pitch":40,"velocity":102,"startTime":118.043494,"endTime":118.15218966666666,"isDrum":true},{"pitch":42,"velocity":102,"startTime":118.043494,"endTime":118.15218966666666,"isDrum":true},{"pitch":42,"velocity":102,"startTime":118.369581,"endTime":118.47827666666666,"isDrum":true},{"pitch":40,"velocity":102,"startTime":118.5326245,"endTime":118.64132016666666,"isDrum":true},{"pitch":35,"velocity":102,"startTime":118.695668,"endTime":118.80436366666666,"isDrum":true},{"pitch":42,"velocity":102,"startTime":118.695668,"endTime":118.80436366666666,"isDrum":true},{"pitch":35,"velocity":102,"startTime":119.02175499999998,"endTime":119.13045066666666,"isDrum":true},{"pitch":42,"velocity":102,"startTime":119.02175499999998,"endTime":119.13045066666666,"isDrum":true},{"pitch":40,"velocity":102,"startTime":119.34784199999999,"endTime":119.45653766666666,"isDrum":true},{"pitch":42,"velocity":102,"startTime":119.34784199999999,"endTime":119.45653766666666,"isDrum":true},{"pitch":40,"velocity":102,"startTime":119.51088549999999,"endTime":119.61958116666666,"isDrum":true},{"pitch":42,"velocity":102,"startTime":119.67392899999999,"endTime":119.78262466666666,"isDrum":true},{"pitch":40,"velocity":102,"startTime":119.83697249999999,"endTime":119.94566816666666,"isDrum":true},{"pitch":35,"velocity":102,"startTime":120.00001599999999,"endTime":120.10871166666666,"isDrum":true},{"pitch":42,"velocity":102,"startTime":120.00001599999999,"endTime":120.10871166666666,"isDrum":true},{"pitch":35,"velocity":102,"startTime":120.32610299999999,"endTime":120.43479866666665,"isDrum":true},{"pitch":42,"velocity":102,"startTime":120.32610299999999,"endTime":120.43479866666665,"isDrum":true},{"pitch":40,"velocity":102,"startTime":120.65218999999999,"endTime":120.76088566666665,"isDrum":true},{"pitch":42,"velocity":102,"startTime":120.65218999999999,"endTime":120.76088566666665,"isDrum":true},{"pitch":42,"velocity":102,"startTime":120.97827699999999,"endTime":121.08697266666665,"isDrum":true},{"pitch":40,"velocity":102,"startTime":121.14132049999999,"endTime":121.25001616666665,"isDrum":true},{"pitch":35,"velocity":102,"startTime":121.30436399999999,"endTime":121.41305966666665,"isDrum":true},{"pitch":42,"velocity":102,"startTime":121.30436399999999,"endTime":121.41305966666665,"isDrum":true},{"pitch":35,"velocity":102,"startTime":121.630451,"endTime":121.73914666666666,"isDrum":true},{"pitch":42,"velocity":102,"startTime":121.630451,"endTime":121.73914666666666,"isDrum":true},{"pitch":40,"velocity":102,"startTime":121.956538,"endTime":122.06523366666666,"isDrum":true},{"pitch":42,"velocity":102,"startTime":121.956538,"endTime":122.06523366666666,"isDrum":true},{"pitch":42,"velocity":102,"startTime":122.282625,"endTime":122.39132066666666,"isDrum":true},{"pitch":40,"velocity":102,"startTime":122.4456685,"endTime":122.55436416666666,"isDrum":true},{"pitch":35,"velocity":102,"startTime":122.608712,"endTime":122.71740766666666,"isDrum":true},{"pitch":42,"velocity":102,"startTime":122.608712,"endTime":122.71740766666666,"isDrum":true},{"pitch":35,"velocity":102,"startTime":122.93479899999998,"endTime":123.04349466666666,"isDrum":true},{"pitch":42,"velocity":102,"startTime":122.93479899999998,"endTime":123.04349466666666,"isDrum":true},{"pitch":40,"velocity":102,"startTime":123.26088599999999,"endTime":123.36958166666666,"isDrum":true},{"pitch":42,"velocity":102,"startTime":123.26088599999999,"endTime":123.36958166666666,"isDrum":true},{"pitch":42,"velocity":102,"startTime":123.58697299999999,"endTime":123.69566866666666,"isDrum":true},{"pitch":40,"velocity":102,"startTime":123.75001649999999,"endTime":123.85871216666666,"isDrum":true},{"pitch":35,"velocity":102,"startTime":123.91305999999999,"endTime":124.02175566666666,"isDrum":true},{"pitch":42,"velocity":102,"startTime":123.91305999999999,"endTime":124.02175566666666,"isDrum":true},{"pitch":35,"velocity":102,"startTime":124.23914699999999,"endTime":124.34784266666665,"isDrum":true},{"pitch":42,"velocity":102,"startTime":124.23914699999999,"endTime":124.34784266666665,"isDrum":true},{"pitch":40,"velocity":102,"startTime":124.56523399999999,"endTime":124.67392966666665,"isDrum":true},{"pitch":42,"velocity":102,"startTime":124.56523399999999,"endTime":124.67392966666665,"isDrum":true},{"pitch":35,"velocity":102,"startTime":124.89132099999999,"endTime":125.00001666666665,"isDrum":true},{"pitch":42,"velocity":102,"startTime":124.89132099999999,"endTime":125.00001666666665,"isDrum":true},{"pitch":42,"velocity":102,"startTime":125.05436449999999,"endTime":125.16306016666665,"isDrum":true},{"pitch":67,"velocity":95,"startTime":104.34783999999999,"endTime":104.45653566666665,"instrument":1,"program":12},{"pitch":67,"velocity":95,"startTime":104.51088349999999,"endTime":104.61957916666665,"instrument":1,"program":12},{"pitch":70,"velocity":95,"startTime":104.67392699999999,"endTime":104.78262266666665,"instrument":1,"program":12},{"pitch":67,"velocity":95,"startTime":104.83697049999999,"endTime":104.94566616666665,"instrument":1,"program":12},{"pitch":70,"velocity":95,"startTime":105.000014,"endTime":105.10870966666666,"instrument":1,"program":12},{"pitch":67,"velocity":95,"startTime":105.1630575,"endTime":105.27175316666666,"instrument":1,"program":12},{"pitch":70,"velocity":95,"startTime":105.326101,"endTime":105.43479666666666,"instrument":1,"program":12},{"pitch":67,"velocity":95,"startTime":105.4891445,"endTime":105.59784016666666,"instrument":1,"program":12},{"pitch":62,"velocity":95,"startTime":105.652188,"endTime":105.76088366666666,"instrument":1,"program":12},{"pitch":67,"velocity":95,"startTime":105.8152315,"endTime":105.92392716666666,"instrument":1,"program":12},{"pitch":70,"velocity":95,"startTime":105.978275,"endTime":106.08697066666666,"instrument":1,"program":12},{"pitch":67,"velocity":95,"startTime":106.1413185,"endTime":106.25001416666666,"instrument":1,"program":12},{"pitch":70,"velocity":95,"startTime":106.304362,"endTime":106.41305766666666,"instrument":1,"program":12},{"pitch":67,"velocity":95,"startTime":106.4674055,"endTime":106.57610116666666,"instrument":1,"program":12},{"pitch":70,"velocity":95,"startTime":106.630449,"endTime":106.73914466666666,"instrument":1,"program":12},{"pitch":67,"velocity":95,"startTime":106.79349249999999,"endTime":106.90218816666666,"instrument":1,"program":12},{"pitch":64,"velocity":95,"startTime":106.95653599999999,"endTime":107.06523166666666,"instrument":1,"program":12},{"pitch":64,"velocity":95,"startTime":107.11957949999999,"endTime":107.22827516666666,"instrument":1,"program":12},{"pitch":69,"velocity":95,"startTime":107.28262299999999,"endTime":107.39131866666666,"instrument":1,"program":12},{"pitch":64,"velocity":95,"startTime":107.44566649999999,"endTime":107.55436216666666,"instrument":1,"program":12},{"pitch":69,"velocity":95,"startTime":107.60870999999999,"endTime":107.71740566666666,"instrument":1,"program":12},{"pitch":64,"velocity":95,"startTime":107.77175349999999,"endTime":107.88044916666666,"instrument":1,"program":12},{"pitch":65,"velocity":95,"startTime":107.93479699999999,"endTime":108.04349266666667,"instrument":1,"program":12},{"pitch":69,"velocity":95,"startTime":108.09784049999999,"endTime":108.20653616666665,"instrument":1,"program":12},{"pitch":62,"velocity":95,"startTime":108.26088399999999,"endTime":108.36957966666665,"instrument":1,"program":12},{"pitch":69,"velocity":95,"startTime":108.42392749999999,"endTime":108.53262316666665,"instrument":1,"program":12},{"pitch":69,"velocity":95,"startTime":108.58697099999999,"endTime":108.69566666666665,"instrument":1,"program":12},{"pitch":69,"velocity":95,"startTime":108.75001449999999,"endTime":108.85871016666665,"instrument":1,"program":12},{"pitch":62,"velocity":95,"startTime":108.91305799999999,"endTime":109.02175366666665,"instrument":1,"program":12},{"pitch":67,"velocity":95,"startTime":109.0761015,"endTime":109.18479716666666,"instrument":1,"program":12},{"pitch":70,"velocity":95,"startTime":109.239145,"endTime":109.34784066666666,"instrument":1,"program":12},{"pitch":62,"velocity":95,"startTime":109.4021885,"endTime":109.51088416666666,"instrument":1,"program":12},{"pitch":62,"velocity":95,"startTime":109.565232,"endTime":109.67392766666666,"instrument":1,"program":12},{"pitch":67,"velocity":95,"startTime":109.7282755,"endTime":109.83697116666666,"instrument":1,"program":12},{"pitch":71,"velocity":95,"startTime":109.891319,"endTime":110.00001466666666,"instrument":1,"program":12},{"pitch":77,"velocity":95,"startTime":110.0543625,"endTime":110.16305816666666,"instrument":1,"program":12},{"pitch":67,"velocity":95,"startTime":110.217406,"endTime":110.32610166666666,"instrument":1,"program":12},{"pitch":71,"velocity":95,"startTime":110.3804495,"endTime":110.48914516666666,"instrument":1,"program":12},{"pitch":62,"velocity":95,"startTime":110.543493,"endTime":110.65218866666666,"instrument":1,"program":12},{"pitch":67,"velocity":95,"startTime":110.7065365,"endTime":110.81523216666666,"instrument":1,"program":12},{"pitch":62,"velocity":95,"startTime":110.86957999999998,"endTime":110.97827566666666,"instrument":1,"program":12},{"pitch":67,"velocity":95,"startTime":111.03262349999999,"endTime":111.14131916666666,"instrument":1,"program":12},{"pitch":71,"velocity":95,"startTime":111.19566699999999,"endTime":111.30436266666666,"instrument":1,"program":12},{"pitch":67,"velocity":95,"startTime":111.35871049999999,"endTime":111.46740616666666,"instrument":1,"program":12},{"pitch":71,"velocity":95,"startTime":111.52175399999999,"endTime":111.63044966666666,"instrument":1,"program":12},{"pitch":67,"velocity":95,"startTime":111.68479749999999,"endTime":111.79349316666666,"instrument":1,"program":12},{"pitch":62,"velocity":95,"startTime":111.84784099999999,"endTime":111.95653666666666,"instrument":1,"program":12},{"pitch":62,"velocity":95,"startTime":112.01088449999999,"endTime":112.11958016666665,"instrument":1,"program":12},{"pitch":63,"velocity":95,"startTime":112.17392799999999,"endTime":112.28262366666665,"instrument":1,"program":12},{"pitch":67,"velocity":95,"startTime":112.33697149999999,"endTime":112.44566716666665,"instrument":1,"program":12},{"pitch":70,"velocity":95,"startTime":112.50001499999999,"endTime":112.60871066666665,"instrument":1,"program":12},{"pitch":63,"velocity":95,"startTime":112.66305849999999,"endTime":112.77175416666665,"instrument":1,"program":12},{"pitch":75,"velocity":95,"startTime":112.82610199999999,"endTime":112.93479766666665,"instrument":1,"program":12},{"pitch":70,"velocity":95,"startTime":112.98914549999999,"endTime":113.09784116666665,"instrument":1,"program":12},{"pitch":67,"velocity":95,"startTime":113.15218899999999,"endTime":113.26088466666666,"instrument":1,"program":12},{"pitch":63,"velocity":95,"startTime":113.3152325,"endTime":113.42392816666666,"instrument":1,"program":12},{"pitch":70,"velocity":95,"startTime":113.478276,"endTime":113.58697166666666,"instrument":1,"program":12},{"pitch":67,"velocity":95,"startTime":113.6413195,"endTime":113.75001516666666,"instrument":1,"program":12},{"pitch":72,"velocity":95,"startTime":113.804363,"endTime":113.91305866666666,"instrument":1,"program":12},{"pitch":70,"velocity":95,"startTime":113.9674065,"endTime":114.07610216666666,"instrument":1,"program":12},{"pitch":63,"velocity":95,"startTime":114.13045,"endTime":114.23914566666666,"instrument":1,"program":12},{"pitch":67,"velocity":95,"startTime":114.2934935,"endTime":114.40218916666666,"instrument":1,"program":12},{"pitch":70,"velocity":95,"startTime":114.456537,"endTime":114.56523266666666,"instrument":1,"program":12},{"pitch":63,"velocity":95,"startTime":114.6195805,"endTime":114.72827616666666,"instrument":1,"program":12},{"pitch":63,"velocity":95,"startTime":114.782624,"endTime":114.89131966666666,"instrument":1,"program":12},{"pitch":72,"velocity":95,"startTime":114.94566749999998,"endTime":115.05436316666666,"instrument":1,"program":12},{"pitch":72,"velocity":95,"startTime":115.10871099999999,"endTime":115.21740666666666,"instrument":1,"program":12},{"pitch":75,"velocity":95,"startTime":115.27175449999999,"endTime":115.38045016666666,"instrument":1,"program":12},{"pitch":72,"velocity":95,"startTime":115.43479799999999,"endTime":115.54349366666666,"instrument":1,"program":12},{"pitch":63,"velocity":95,"startTime":115.59784149999999,"endTime":115.70653716666666,"instrument":1,"program":12},{"pitch":72,"velocity":95,"startTime":115.76088499999999,"endTime":115.86958066666666,"instrument":1,"program":12},{"pitch":72,"velocity":95,"startTime":115.92392849999999,"endTime":116.03262416666666,"instrument":1,"program":12},{"pitch":75,"velocity":95,"startTime":116.08697199999999,"endTime":116.19566766666665,"instrument":1,"program":12},{"pitch":75,"velocity":95,"startTime":116.25001549999999,"endTime":116.35871116666665,"instrument":1,"program":12},{"pitch":72,"velocity":95,"startTime":116.41305899999999,"endTime":116.52175466666665,"instrument":1,"program":12},{"pitch":75,"velocity":95,"startTime":116.57610249999999,"endTime":116.68479816666665,"instrument":1,"program":12},{"pitch":63,"velocity":95,"startTime":116.73914599999999,"endTime":116.84784166666665,"instrument":1,"program":12},{"pitch":70,"velocity":95,"startTime":116.90218949999999,"endTime":117.01088516666665,"instrument":1,"program":12},{"pitch":72,"velocity":95,"startTime":117.06523299999999,"endTime":117.17392866666665,"instrument":1,"program":12},{"pitch":63,"velocity":95,"startTime":117.22827649999999,"endTime":117.33697216666665,"instrument":1,"program":12},{"pitch":62,"velocity":95,"startTime":117.39132,"endTime":117.50001566666666,"instrument":1,"program":12},{"pitch":70,"velocity":95,"startTime":117.5543635,"endTime":117.66305916666666,"instrument":1,"program":12},{"pitch":67,"velocity":95,"startTime":117.717407,"endTime":117.82610266666666,"instrument":1,"program":12},{"pitch":62,"velocity":95,"startTime":117.8804505,"endTime":117.98914616666666,"instrument":1,"program":12},{"pitch":67,"velocity":95,"startTime":118.043494,"endTime":118.15218966666666,"instrument":1,"program":12},{"pitch":74,"velocity":95,"startTime":118.2065375,"endTime":118.31523316666666,"instrument":1,"program":12},{"pitch":70,"velocity":95,"startTime":118.369581,"endTime":118.47827666666666,"instrument":1,"program":12},{"pitch":67,"velocity":95,"startTime":118.5326245,"endTime":118.64132016666666,"instrument":1,"program":12},{"pitch":62,"velocity":95,"startTime":118.695668,"endTime":118.80436366666666,"instrument":1,"program":12},{"pitch":70,"velocity":95,"startTime":118.85871149999998,"endTime":118.96740716666666,"instrument":1,"program":12},{"pitch":67,"velocity":95,"startTime":119.02175499999998,"endTime":119.13045066666666,"instrument":1,"program":12},{"pitch":62,"velocity":95,"startTime":119.18479849999999,"endTime":119.29349416666666,"instrument":1,"program":12},{"pitch":67,"velocity":95,"startTime":119.34784199999999,"endTime":119.45653766666666,"instrument":1,"program":12},{"pitch":70,"velocity":95,"startTime":119.51088549999999,"endTime":119.61958116666666,"instrument":1,"program":12},{"pitch":67,"velocity":95,"startTime":119.67392899999999,"endTime":119.78262466666666,"instrument":1,"program":12},{"pitch":70,"velocity":95,"startTime":119.83697249999999,"endTime":119.94566816666666,"instrument":1,"program":12},{"pitch":62,"velocity":95,"startTime":120.00001599999999,"endTime":120.10871166666666,"instrument":1,"program":12},{"pitch":69,"velocity":95,"startTime":120.16305949999999,"endTime":120.27175516666665,"instrument":1,"program":12},{"pitch":72,"velocity":95,"startTime":120.32610299999999,"endTime":120.43479866666665,"instrument":1,"program":12},{"pitch":69,"velocity":95,"startTime":120.48914649999999,"endTime":120.59784216666665,"instrument":1,"program":12},{"pitch":74,"velocity":95,"startTime":120.65218999999999,"endTime":120.76088566666665,"instrument":1,"program":12},{"pitch":69,"velocity":95,"startTime":120.81523349999999,"endTime":120.92392916666665,"instrument":1,"program":12},{"pitch":69,"velocity":95,"startTime":120.97827699999999,"endTime":121.08697266666665,"instrument":1,"program":12},{"pitch":69,"velocity":95,"startTime":121.14132049999999,"endTime":121.25001616666665,"instrument":1,"program":12},{"pitch":62,"velocity":95,"startTime":121.30436399999999,"endTime":121.41305966666665,"instrument":1,"program":12},{"pitch":69,"velocity":95,"startTime":121.4674075,"endTime":121.57610316666666,"instrument":1,"program":12},{"pitch":74,"velocity":95,"startTime":121.630451,"endTime":121.73914666666666,"instrument":1,"program":12},{"pitch":69,"velocity":95,"startTime":121.7934945,"endTime":121.90219016666666,"instrument":1,"program":12},{"pitch":69,"velocity":95,"startTime":121.956538,"endTime":122.06523366666666,"instrument":1,"program":12},{"pitch":74,"velocity":95,"startTime":122.1195815,"endTime":122.22827716666666,"instrument":1,"program":12},{"pitch":69,"velocity":95,"startTime":122.282625,"endTime":122.39132066666666,"instrument":1,"program":12},{"pitch":69,"velocity":95,"startTime":122.4456685,"endTime":122.55436416666666,"instrument":1,"program":12},{"pitch":62,"velocity":95,"startTime":122.608712,"endTime":122.71740766666666,"instrument":1,"program":12},{"pitch":69,"velocity":95,"startTime":122.7717555,"endTime":122.88045116666666,"instrument":1,"program":12},{"pitch":74,"velocity":95,"startTime":122.93479899999998,"endTime":123.04349466666666,"instrument":1,"program":12},{"pitch":69,"velocity":95,"startTime":123.09784249999998,"endTime":123.20653816666666,"instrument":1,"program":12},{"pitch":74,"velocity":95,"startTime":123.26088599999999,"endTime":123.36958166666666,"instrument":1,"program":12},{"pitch":69,"velocity":95,"startTime":123.42392949999999,"endTime":123.53262516666666,"instrument":1,"program":12},{"pitch":69,"velocity":95,"startTime":123.58697299999999,"endTime":123.69566866666666,"instrument":1,"program":12},{"pitch":74,"velocity":95,"startTime":123.75001649999999,"endTime":123.85871216666666,"instrument":1,"program":12},{"pitch":69,"velocity":95,"startTime":123.91305999999999,"endTime":124.02175566666666,"instrument":1,"program":12},{"pitch":69,"velocity":95,"startTime":124.07610349999999,"endTime":124.18479916666666,"instrument":1,"program":12},{"pitch":74,"velocity":95,"startTime":124.23914699999999,"endTime":124.34784266666665,"instrument":1,"program":12},{"pitch":69,"velocity":95,"startTime":124.40219049999999,"endTime":124.51088616666665,"instrument":1,"program":12},{"pitch":74,"velocity":95,"startTime":124.56523399999999,"endTime":124.67392966666665,"instrument":1,"program":12},{"pitch":69,"velocity":95,"startTime":124.72827749999999,"endTime":124.83697316666665,"instrument":1,"program":12},{"pitch":69,"velocity":95,"startTime":124.89132099999999,"endTime":125.00001666666665,"instrument":1,"program":12},{"pitch":69,"velocity":95,"startTime":125.05436449999999,"endTime":125.16306016666665,"instrument":1,"program":12},{"pitch":43,"velocity":110,"startTime":104.34783999999999,"endTime":104.45653566666665,"instrument":2,"program":32},{"pitch":43,"velocity":110,"startTime":104.51088349999999,"endTime":104.67392699999999,"instrument":2,"program":32},{"pitch":43,"velocity":110,"startTime":104.83697049999999,"endTime":104.94566616666665,"instrument":2,"program":32},{"pitch":43,"velocity":110,"startTime":105.000014,"endTime":105.10870966666666,"instrument":2,"program":32},{"pitch":29,"velocity":110,"startTime":105.1630575,"endTime":105.27175316666666,"instrument":2,"program":32},{"pitch":31,"velocity":110,"startTime":105.326101,"endTime":105.4891445,"instrument":2,"program":32},{"pitch":29,"velocity":110,"startTime":105.652188,"endTime":105.76088366666666,"instrument":2,"program":32},{"pitch":29,"velocity":110,"startTime":105.8152315,"endTime":105.92392716666666,"instrument":2,"program":32},{"pitch":36,"velocity":110,"startTime":106.1413185,"endTime":106.304362,"instrument":2,"program":32},{"pitch":36,"velocity":110,"startTime":106.4674055,"endTime":106.57610116666666,"instrument":2,"program":32},{"pitch":29,"velocity":110,"startTime":106.630449,"endTime":106.79349249999999,"instrument":2,"program":32},{"pitch":28,"velocity":110,"startTime":106.95653599999999,"endTime":107.06523166666666,"instrument":2,"program":32},{"pitch":28,"velocity":110,"startTime":107.11957949999999,"endTime":107.22827516666666,"instrument":2,"program":32},{"pitch":31,"velocity":110,"startTime":107.28262299999999,"endTime":107.39131866666666,"instrument":2,"program":32},{"pitch":33,"velocity":110,"startTime":107.60870999999999,"endTime":107.77175349999999,"instrument":2,"program":32},{"pitch":45,"velocity":110,"startTime":107.93479699999999,"endTime":108.09784049999999,"instrument":2,"program":32},{"pitch":39,"velocity":110,"startTime":108.26088399999999,"endTime":108.42392749999999,"instrument":2,"program":32},{"pitch":39,"velocity":110,"startTime":108.58697099999999,"endTime":108.75001449999999,"instrument":2,"program":32},{"pitch":39,"velocity":110,"startTime":108.91305799999999,"endTime":109.0761015,"instrument":2,"program":32},{"pitch":43,"velocity":110,"startTime":109.239145,"endTime":109.4021885,"instrument":2,"program":32},{"pitch":31,"velocity":110,"startTime":109.565232,"endTime":109.7282755,"instrument":2,"program":32},{"pitch":36,"velocity":110,"startTime":112.01088449999999,"endTime":112.17392799999999,"instrument":2,"program":32},{"pitch":36,"velocity":110,"startTime":112.17392799999999,"endTime":112.33697149999999,"instrument":2,"program":32},{"pitch":36,"velocity":110,"startTime":112.50001499999999,"endTime":112.66305849999999,"instrument":2,"program":32},{"pitch":31,"velocity":110,"startTime":112.82610199999999,"endTime":112.93479766666665,"instrument":2,"program":32},{"pitch":31,"velocity":110,"startTime":112.98914549999999,"endTime":113.09784116666665,"instrument":2,"program":32},{"pitch":36,"velocity":110,"startTime":113.15218899999999,"endTime":113.3152325,"instrument":2,"program":32},{"pitch":36,"velocity":110,"startTime":113.478276,"endTime":113.58697166666666,"instrument":2,"program":32},{"pitch":31,"velocity":110,"startTime":113.6413195,"endTime":113.804363,"instrument":2,"program":32},{"pitch":29,"velocity":110,"startTime":114.13045,"endTime":114.34784133333332,"instrument":2,"program":32},{"pitch":46,"velocity":110,"startTime":114.456537,"endTime":114.6195805,"instrument":2,"program":32},{"pitch":36,"velocity":110,"startTime":114.782624,"endTime":114.94566749999998,"instrument":2,"program":32},{"pitch":36,"velocity":110,"startTime":115.10871099999999,"endTime":115.27175449999999,"instrument":2,"program":32},{"pitch":36,"velocity":110,"startTime":115.43479799999999,"endTime":115.59784149999999,"instrument":2,"program":32},{"pitch":36,"velocity":110,"startTime":115.76088499999999,"endTime":115.92392849999999,"instrument":2,"program":32},{"pitch":36,"velocity":110,"startTime":116.08697199999999,"endTime":116.25001549999999,"instrument":2,"program":32},{"pitch":36,"velocity":110,"startTime":116.41305899999999,"endTime":116.57610249999999,"instrument":2,"program":32},{"pitch":36,"velocity":110,"startTime":116.73914599999999,"endTime":116.90218949999999,"instrument":2,"program":32},{"pitch":36,"velocity":110,"startTime":117.06523299999999,"endTime":117.22827649999999,"instrument":2,"program":32},{"pitch":31,"velocity":110,"startTime":117.39132,"endTime":117.5543635,"instrument":2,"program":32},{"pitch":31,"velocity":110,"startTime":117.717407,"endTime":117.8804505,"instrument":2,"program":32},{"pitch":31,"velocity":110,"startTime":118.043494,"endTime":118.2065375,"instrument":2,"program":32},{"pitch":31,"velocity":110,"startTime":118.369581,"endTime":118.5326245,"instrument":2,"program":32},{"pitch":31,"velocity":110,"startTime":118.695668,"endTime":118.85871149999998,"instrument":2,"program":32},{"pitch":31,"velocity":110,"startTime":119.02175499999998,"endTime":119.18479849999999,"instrument":2,"program":32},{"pitch":31,"velocity":110,"startTime":119.34784199999999,"endTime":119.61958116666666,"instrument":2,"program":32},{"pitch":43,"velocity":110,"startTime":119.67392899999999,"endTime":119.83697249999999,"instrument":2,"program":32},{"pitch":38,"velocity":110,"startTime":120.00001599999999,"endTime":120.16305949999999,"instrument":2,"program":32},{"pitch":38,"velocity":110,"startTime":120.32610299999999,"endTime":120.48914649999999,"instrument":2,"program":32},{"pitch":38,"velocity":110,"startTime":120.65218999999999,"endTime":120.81523349999999,"instrument":2,"program":32},{"pitch":38,"velocity":110,"startTime":120.97827699999999,"endTime":121.14132049999999,"instrument":2,"program":32},{"pitch":42,"velocity":110,"startTime":121.30436399999999,"endTime":121.41305966666665,"instrument":2,"program":32},{"pitch":45,"velocity":110,"startTime":121.4674075,"endTime":121.630451,"instrument":2,"program":32},{"pitch":38,"velocity":110,"startTime":121.630451,"endTime":121.7934945,"instrument":2,"program":32},{"pitch":31,"velocity":110,"startTime":121.956538,"endTime":122.1195815,"instrument":2,"program":32},{"pitch":42,"velocity":110,"startTime":122.282625,"endTime":122.4456685,"instrument":2,"program":32},{"pitch":33,"velocity":110,"startTime":122.608712,"endTime":122.7717555,"instrument":2,"program":32},{"pitch":33,"velocity":110,"startTime":122.93479899999998,"endTime":123.09784249999998,"instrument":2,"program":32},{"pitch":38,"velocity":110,"startTime":123.26088599999999,"endTime":123.42392949999999,"instrument":2,"program":32},{"pitch":38,"velocity":110,"startTime":123.58697299999999,"endTime":123.75001649999999,"instrument":2,"program":32},{"pitch":31,"velocity":110,"startTime":123.91305999999999,"endTime":124.07610349999999,"instrument":2,"program":32},{"pitch":31,"velocity":110,"startTime":124.23914699999999,"endTime":124.40219049999999,"instrument":2,"program":32},{"pitch":38,"velocity":110,"startTime":124.56523399999999,"endTime":124.72827749999999,"instrument":2,"program":32},{"pitch":43,"velocity":110,"startTime":124.89132099999999,"endTime":125.05436449999999,"instrument":2,"program":32},{"pitch":58,"velocity":105,"startTime":104.34783999999999,"endTime":105.652188,"instrument":3,"program":50},{"pitch":62,"velocity":105,"startTime":104.34783999999999,"endTime":105.652188,"instrument":3,"program":50},{"pitch":65,"velocity":105,"startTime":104.34783999999999,"endTime":105.652188,"instrument":3,"program":50},{"pitch":67,"velocity":105,"startTime":104.34783999999999,"endTime":105.652188,"instrument":3,"program":50},{"pitch":57,"velocity":105,"startTime":105.652188,"endTime":106.95653599999999,"instrument":3,"program":50},{"pitch":58,"velocity":105,"startTime":105.652188,"endTime":106.95653599999999,"instrument":3,"program":50},{"pitch":62,"velocity":105,"startTime":105.652188,"endTime":106.95653599999999,"instrument":3,"program":50},{"pitch":65,"velocity":105,"startTime":105.652188,"endTime":106.95653599999999,"instrument":3,"program":50},{"pitch":55,"velocity":105,"startTime":106.95653599999999,"endTime":108.26088399999999,"instrument":3,"program":50},{"pitch":57,"velocity":105,"startTime":106.95653599999999,"endTime":108.26088399999999,"instrument":3,"program":50},{"pitch":64,"velocity":105,"startTime":106.95653599999999,"endTime":108.26088399999999,"instrument":3,"program":50},{"pitch":67,"velocity":105,"startTime":106.95653599999999,"endTime":108.26088399999999,"instrument":3,"program":50},{"pitch":58,"velocity":105,"startTime":108.26088399999999,"endTime":108.80436233333333,"instrument":3,"program":50},{"pitch":62,"velocity":105,"startTime":108.26088399999999,"endTime":108.80436233333333,"instrument":3,"program":50},{"pitch":65,"velocity":105,"startTime":108.26088399999999,"endTime":108.80436233333333,"instrument":3,"program":50},{"pitch":69,"velocity":105,"startTime":108.26088399999999,"endTime":108.80436233333333,"instrument":3,"program":50},{"pitch":58,"velocity":105,"startTime":108.91305799999999,"endTime":109.565232,"instrument":3,"program":50},{"pitch":62,"velocity":105,"startTime":108.91305799999999,"endTime":109.565232,"instrument":3,"program":50},{"pitch":65,"velocity":105,"startTime":108.91305799999999,"endTime":109.565232,"instrument":3,"program":50},{"pitch":69,"velocity":105,"startTime":108.91305799999999,"endTime":109.565232,"instrument":3,"program":50},{"pitch":55,"velocity":105,"startTime":109.565232,"endTime":109.78262333333332,"instrument":3,"program":50},{"pitch":62,"velocity":105,"startTime":109.565232,"endTime":109.7282755,"instrument":3,"program":50},{"pitch":65,"velocity":105,"startTime":109.565232,"endTime":109.7282755,"instrument":3,"program":50},{"pitch":71,"velocity":105,"startTime":109.565232,"endTime":109.7282755,"instrument":3,"program":50},{"pitch":63,"velocity":105,"startTime":112.17392799999999,"endTime":114.72827616666666,"instrument":3,"program":50},{"pitch":67,"velocity":105,"startTime":112.17392799999999,"endTime":114.72827616666666,"instrument":3,"program":50},{"pitch":70,"velocity":105,"startTime":112.17392799999999,"endTime":114.67392833333332,"instrument":3,"program":50},{"pitch":72,"velocity":105,"startTime":112.17392799999999,"endTime":114.67392833333332,"instrument":3,"program":50},{"pitch":55,"velocity":105,"startTime":114.782624,"endTime":117.39132,"instrument":3,"program":50},{"pitch":60,"velocity":105,"startTime":114.782624,"endTime":117.39132,"instrument":3,"program":50},{"pitch":63,"velocity":105,"startTime":114.782624,"endTime":117.39132,"instrument":3,"program":50},{"pitch":70,"velocity":105,"startTime":114.782624,"endTime":117.39132,"instrument":3,"program":50},{"pitch":58,"velocity":105,"startTime":117.39132,"endTime":118.369581,"instrument":3,"program":50},{"pitch":62,"velocity":105,"startTime":117.39132,"endTime":118.369581,"instrument":3,"program":50},{"pitch":67,"velocity":105,"startTime":117.39132,"endTime":118.369581,"instrument":3,"program":50},{"pitch":74,"velocity":105,"startTime":117.39132,"endTime":118.64132016666666,"instrument":3,"program":50},{"pitch":62,"velocity":105,"startTime":118.369581,"endTime":118.58697233333332,"instrument":3,"program":50},{"pitch":67,"velocity":105,"startTime":118.369581,"endTime":118.64132016666666,"instrument":3,"program":50},{"pitch":70,"velocity":105,"startTime":118.369581,"endTime":118.58697233333332,"instrument":3,"program":50},{"pitch":62,"velocity":105,"startTime":118.695668,"endTime":120.00001599999999,"instrument":3,"program":50},{"pitch":67,"velocity":105,"startTime":118.695668,"endTime":119.18479849999999,"instrument":3,"program":50},{"pitch":70,"velocity":105,"startTime":118.695668,"endTime":119.18479849999999,"instrument":3,"program":50},{"pitch":74,"velocity":105,"startTime":118.695668,"endTime":119.18479849999999,"instrument":3,"program":50},{"pitch":67,"velocity":105,"startTime":119.23914633333332,"endTime":119.29349416666666,"instrument":3,"program":50},{"pitch":70,"velocity":105,"startTime":119.29349416666666,"endTime":120.00001599999999,"instrument":3,"program":50},{"pitch":67,"velocity":105,"startTime":119.34784199999999,"endTime":120.00001599999999,"instrument":3,"program":50},{"pitch":60,"velocity":105,"startTime":120.00001599999999,"endTime":122.55436416666666,"instrument":3,"program":50},{"pitch":62,"velocity":105,"startTime":120.00001599999999,"endTime":122.55436416666666,"instrument":3,"program":50},{"pitch":66,"velocity":105,"startTime":120.00001599999999,"endTime":122.55436416666666,"instrument":3,"program":50},{"pitch":69,"velocity":105,"startTime":120.00001599999999,"endTime":122.55436416666666,"instrument":3,"program":50},{"pitch":60,"velocity":105,"startTime":122.608712,"endTime":123.26088599999999,"instrument":3,"program":50},{"pitch":62,"velocity":105,"startTime":122.608712,"endTime":123.26088599999999,"instrument":3,"program":50},{"pitch":70,"velocity":105,"startTime":122.608712,"endTime":123.26088599999999,"instrument":3,"program":50},{"pitch":73,"velocity":105,"startTime":122.608712,"endTime":123.26088599999999,"instrument":3,"program":50},{"pitch":62,"velocity":105,"startTime":123.26088599999999,"endTime":125.00001666666665,"instrument":3,"program":50},{"pitch":65,"velocity":105,"startTime":123.26088599999999,"endTime":123.42392949999999,"instrument":3,"program":50},{"pitch":70,"velocity":105,"startTime":123.26088599999999,"endTime":125.00001666666665,"instrument":3,"program":50},{"pitch":74,"velocity":105,"startTime":123.26088599999999,"endTime":123.42392949999999,"instrument":3,"program":50},{"pitch":74,"velocity":105,"startTime":123.47827733333332,"endTime":123.75001649999999,"instrument":3,"program":50},{"pitch":65,"velocity":105,"startTime":123.58697299999999,"endTime":123.80436433333333,"instrument":3,"program":50},{"pitch":70,"velocity":105,"startTime":123.58697299999999,"endTime":123.75001649999999,"instrument":3,"program":50},{"pitch":65,"velocity":105,"startTime":123.85871216666666,"endTime":125.00001666666665,"instrument":3,"program":50},{"pitch":70,"velocity":105,"startTime":123.85871216666666,"endTime":125.00001666666665,"instrument":3,"program":50},{"pitch":35,"velocity":102,"startTime":125.21740799999999,"endTime":125.38045149999999,"isDrum":true},{"pitch":42,"velocity":102,"startTime":125.21740799999999,"endTime":125.38045149999999,"isDrum":true},{"pitch":51,"velocity":102,"startTime":125.21740799999999,"endTime":125.38045149999999,"isDrum":true},{"pitch":42,"velocity":102,"startTime":125.543495,"endTime":125.7065385,"isDrum":true},{"pitch":40,"velocity":102,"startTime":125.869582,"endTime":126.0326255,"isDrum":true},{"pitch":42,"velocity":102,"startTime":125.869582,"endTime":126.0326255,"isDrum":true},{"pitch":42,"velocity":102,"startTime":126.195669,"endTime":126.3587125,"isDrum":true},{"pitch":35,"velocity":102,"startTime":126.3587125,"endTime":126.521756,"isDrum":true},{"pitch":35,"velocity":102,"startTime":126.521756,"endTime":126.6847995,"isDrum":true},{"pitch":42,"velocity":102,"startTime":126.521756,"endTime":126.6847995,"isDrum":true},{"pitch":42,"velocity":102,"startTime":126.847843,"endTime":127.01088649999998,"isDrum":true},{"pitch":40,"velocity":102,"startTime":127.17392999999998,"endTime":127.33697349999998,"isDrum":true},{"pitch":42,"velocity":102,"startTime":127.17392999999998,"endTime":127.33697349999998,"isDrum":true},{"pitch":42,"velocity":102,"startTime":127.50001699999999,"endTime":127.66306049999999,"isDrum":true},{"pitch":35,"velocity":102,"startTime":127.66306049999999,"endTime":127.82610399999999,"isDrum":true},{"pitch":35,"velocity":102,"startTime":127.82610399999999,"endTime":127.98914749999999,"isDrum":true},{"pitch":42,"velocity":102,"startTime":127.82610399999999,"endTime":127.98914749999999,"isDrum":true},{"pitch":42,"velocity":102,"startTime":128.152191,"endTime":128.3152345,"isDrum":true},{"pitch":40,"velocity":102,"startTime":128.478278,"endTime":128.6413215,"isDrum":true},{"pitch":42,"velocity":102,"startTime":128.478278,"endTime":128.6413215,"isDrum":true},{"pitch":42,"velocity":102,"startTime":128.804365,"endTime":128.96740849999998,"isDrum":true},{"pitch":35,"velocity":102,"startTime":128.96740849999998,"endTime":129.130452,"isDrum":true},{"pitch":35,"velocity":102,"startTime":129.130452,"endTime":129.29349549999998,"isDrum":true},{"pitch":42,"velocity":102,"startTime":129.130452,"endTime":129.29349549999998,"isDrum":true},{"pitch":42,"velocity":102,"startTime":129.456539,"endTime":129.61958249999998,"isDrum":true},{"pitch":40,"velocity":102,"startTime":129.782626,"endTime":129.94566949999998,"isDrum":true},{"pitch":42,"velocity":102,"startTime":129.782626,"endTime":129.94566949999998,"isDrum":true},{"pitch":42,"velocity":102,"startTime":130.108713,"endTime":130.27175649999998,"isDrum":true},{"pitch":35,"velocity":102,"startTime":130.4348,"endTime":130.59784349999998,"isDrum":true},{"pitch":42,"velocity":102,"startTime":130.4348,"endTime":130.59784349999998,"isDrum":true},{"pitch":42,"velocity":102,"startTime":130.760887,"endTime":130.92393049999998,"isDrum":true},{"pitch":35,"velocity":102,"startTime":130.92393049999998,"endTime":131.086974,"isDrum":true},{"pitch":40,"velocity":102,"startTime":131.086974,"endTime":131.25001749999998,"isDrum":true},{"pitch":42,"velocity":102,"startTime":131.086974,"endTime":131.25001749999998,"isDrum":true},{"pitch":35,"velocity":102,"startTime":131.413061,"endTime":131.57610449999999,"isDrum":true},{"pitch":42,"velocity":102,"startTime":131.413061,"endTime":131.57610449999999,"isDrum":true},{"pitch":35,"velocity":102,"startTime":131.739148,"endTime":131.9021915,"isDrum":true},{"pitch":42,"velocity":102,"startTime":131.739148,"endTime":131.9021915,"isDrum":true},{"pitch":42,"velocity":102,"startTime":132.065235,"endTime":132.2282785,"isDrum":true},{"pitch":40,"velocity":102,"startTime":132.391322,"endTime":132.5543655,"isDrum":true},{"pitch":42,"velocity":102,"startTime":132.391322,"endTime":132.5543655,"isDrum":true},{"pitch":42,"velocity":102,"startTime":132.717409,"endTime":132.8804525,"isDrum":true},{"pitch":35,"velocity":102,"startTime":133.04349599999998,"endTime":133.2065395,"isDrum":true},{"pitch":42,"velocity":102,"startTime":133.04349599999998,"endTime":133.2065395,"isDrum":true},{"pitch":42,"velocity":102,"startTime":133.36958299999998,"endTime":133.5326265,"isDrum":true},{"pitch":40,"velocity":102,"startTime":133.69566999999998,"endTime":133.8587135,"isDrum":true},{"pitch":42,"velocity":102,"startTime":133.69566999999998,"endTime":133.8587135,"isDrum":true},{"pitch":42,"velocity":102,"startTime":134.02175699999998,"endTime":134.1848005,"isDrum":true},{"pitch":35,"velocity":102,"startTime":134.1848005,"endTime":134.34784399999998,"isDrum":true},{"pitch":35,"velocity":102,"startTime":134.34784399999998,"endTime":134.5108875,"isDrum":true},{"pitch":42,"velocity":102,"startTime":134.34784399999998,"endTime":134.5108875,"isDrum":true},{"pitch":42,"velocity":102,"startTime":134.67393099999998,"endTime":134.8369745,"isDrum":true},{"pitch":40,"velocity":102,"startTime":135.00001799999998,"endTime":135.1630615,"isDrum":true},{"pitch":42,"velocity":102,"startTime":135.00001799999998,"endTime":135.1630615,"isDrum":true},{"pitch":42,"velocity":102,"startTime":135.32610499999998,"endTime":135.4891485,"isDrum":true},{"pitch":35,"velocity":102,"startTime":135.4891485,"endTime":135.65219199999999,"isDrum":true},{"pitch":35,"velocity":102,"startTime":135.65219199999999,"endTime":135.8152355,"isDrum":true},{"pitch":42,"velocity":102,"startTime":135.65219199999999,"endTime":135.8152355,"isDrum":true},{"pitch":42,"velocity":102,"startTime":135.978279,"endTime":136.1413225,"isDrum":true},{"pitch":40,"velocity":102,"startTime":136.304366,"endTime":136.4674095,"isDrum":true},{"pitch":42,"velocity":102,"startTime":136.304366,"endTime":136.4674095,"isDrum":true},{"pitch":42,"velocity":102,"startTime":136.630453,"endTime":136.7934965,"isDrum":true},{"pitch":35,"velocity":102,"startTime":136.7934965,"endTime":136.95654,"isDrum":true},{"pitch":35,"velocity":102,"startTime":136.95654,"endTime":137.11958349999998,"isDrum":true},{"pitch":42,"velocity":102,"startTime":136.95654,"endTime":137.11958349999998,"isDrum":true},{"pitch":42,"velocity":102,"startTime":137.282627,"endTime":137.44567049999998,"isDrum":true},{"pitch":40,"velocity":102,"startTime":137.608714,"endTime":137.77175749999998,"isDrum":true},{"pitch":42,"velocity":102,"startTime":137.608714,"endTime":137.77175749999998,"isDrum":true},{"pitch":42,"velocity":102,"startTime":137.934801,"endTime":138.09784449999998,"isDrum":true},{"pitch":35,"velocity":102,"startTime":138.260888,"endTime":138.42393149999998,"isDrum":true},{"pitch":42,"velocity":102,"startTime":138.260888,"endTime":138.42393149999998,"isDrum":true},{"pitch":42,"velocity":102,"startTime":138.586975,"endTime":138.75001849999998,"isDrum":true},{"pitch":40,"velocity":102,"startTime":138.913062,"endTime":139.07610549999998,"isDrum":true},{"pitch":42,"velocity":102,"startTime":138.913062,"endTime":139.07610549999998,"isDrum":true},{"pitch":42,"velocity":102,"startTime":139.239149,"endTime":139.40219249999998,"isDrum":true},{"pitch":35,"velocity":102,"startTime":139.40219249999998,"endTime":139.565236,"isDrum":true},{"pitch":35,"velocity":102,"startTime":139.565236,"endTime":139.72827949999999,"isDrum":true},{"pitch":42,"velocity":102,"startTime":139.565236,"endTime":139.72827949999999,"isDrum":true},{"pitch":42,"velocity":102,"startTime":139.891323,"endTime":140.0543665,"isDrum":true},{"pitch":40,"velocity":102,"startTime":140.21741,"endTime":140.3804535,"isDrum":true},{"pitch":42,"velocity":102,"startTime":140.21741,"endTime":140.3804535,"isDrum":true},{"pitch":42,"velocity":102,"startTime":140.543497,"endTime":140.7065405,"isDrum":true},{"pitch":35,"velocity":102,"startTime":140.7065405,"endTime":140.869584,"isDrum":true},{"pitch":35,"velocity":102,"startTime":140.869584,"endTime":141.0326275,"isDrum":true},{"pitch":42,"velocity":102,"startTime":140.869584,"endTime":141.0326275,"isDrum":true},{"pitch":42,"velocity":102,"startTime":141.19567099999998,"endTime":141.3587145,"isDrum":true},{"pitch":40,"velocity":102,"startTime":141.52175799999998,"endTime":141.6848015,"isDrum":true},{"pitch":42,"velocity":102,"startTime":141.52175799999998,"endTime":141.6848015,"isDrum":true},{"pitch":42,"velocity":102,"startTime":141.84784499999998,"endTime":142.0108885,"isDrum":true},{"pitch":35,"velocity":102,"startTime":142.0108885,"endTime":142.17393199999998,"isDrum":true},{"pitch":35,"velocity":102,"startTime":142.17393199999998,"endTime":142.3369755,"isDrum":true},{"pitch":42,"velocity":102,"startTime":142.17393199999998,"endTime":142.3369755,"isDrum":true},{"pitch":42,"velocity":102,"startTime":142.50001899999998,"endTime":142.6630625,"isDrum":true},{"pitch":40,"velocity":102,"startTime":142.82610599999998,"endTime":142.9891495,"isDrum":true},{"pitch":42,"velocity":102,"startTime":142.82610599999998,"endTime":142.9891495,"isDrum":true},{"pitch":42,"velocity":102,"startTime":143.15219299999998,"endTime":143.3152365,"isDrum":true},{"pitch":35,"velocity":102,"startTime":143.3152365,"endTime":143.47827999999998,"isDrum":true},{"pitch":35,"velocity":102,"startTime":143.47827999999998,"endTime":143.6413235,"isDrum":true},{"pitch":42,"velocity":102,"startTime":143.47827999999998,"endTime":143.6413235,"isDrum":true},{"pitch":42,"velocity":102,"startTime":143.80436699999998,"endTime":143.9674105,"isDrum":true},{"pitch":40,"velocity":102,"startTime":144.130454,"endTime":144.2934975,"isDrum":true},{"pitch":42,"velocity":102,"startTime":144.130454,"endTime":144.2934975,"isDrum":true},{"pitch":42,"velocity":102,"startTime":144.456541,"endTime":144.6195845,"isDrum":true},{"pitch":35,"velocity":102,"startTime":144.6195845,"endTime":144.782628,"isDrum":true},{"pitch":35,"velocity":102,"startTime":144.782628,"endTime":144.9456715,"isDrum":true},{"pitch":42,"velocity":102,"startTime":144.782628,"endTime":144.9456715,"isDrum":true},{"pitch":42,"velocity":102,"startTime":145.108715,"endTime":145.27175849999998,"isDrum":true},{"pitch":40,"velocity":102,"startTime":145.434802,"endTime":145.59784549999998,"isDrum":true},{"pitch":42,"velocity":102,"startTime":145.434802,"endTime":145.59784549999998,"isDrum":true},{"pitch":42,"velocity":102,"startTime":145.760889,"endTime":145.92393249999998,"isDrum":true},{"pitch":69,"velocity":95,"startTime":125.38045149999999,"endTime":125.43479933333333,"instrument":1,"program":12},{"pitch":64,"velocity":95,"startTime":125.543495,"endTime":125.59784283333332,"instrument":1,"program":12},{"pitch":69,"velocity":95,"startTime":125.7065385,"endTime":125.76088633333332,"instrument":1,"program":12},{"pitch":74,"velocity":95,"startTime":125.869582,"endTime":125.97827766666666,"instrument":1,"program":12},{"pitch":69,"velocity":95,"startTime":126.0326255,"endTime":126.08697333333332,"instrument":1,"program":12},{"pitch":64,"velocity":95,"startTime":126.195669,"endTime":126.30436466666666,"instrument":1,"program":12},{"pitch":69,"velocity":95,"startTime":126.3587125,"endTime":126.46740816666666,"instrument":1,"program":12},{"pitch":64,"velocity":95,"startTime":126.521756,"endTime":126.63045166666666,"instrument":1,"program":12},{"pitch":69,"velocity":95,"startTime":126.6847995,"endTime":126.79349516666666,"instrument":1,"program":12},{"pitch":64,"velocity":95,"startTime":126.847843,"endTime":126.95653866666666,"instrument":1,"program":12},{"pitch":62,"velocity":95,"startTime":127.01088649999998,"endTime":127.06523433333332,"instrument":1,"program":12},{"pitch":69,"velocity":95,"startTime":127.17392999999998,"endTime":127.28262566666666,"instrument":1,"program":12},{"pitch":69,"velocity":95,"startTime":127.33697349999998,"endTime":127.39132133333332,"instrument":1,"program":12},{"pitch":72,"velocity":95,"startTime":127.50001699999999,"endTime":127.60871266666666,"instrument":1,"program":12},{"pitch":69,"velocity":95,"startTime":127.66306049999999,"endTime":127.77175616666666,"instrument":1,"program":12},{"pitch":62,"velocity":95,"startTime":127.82610399999999,"endTime":127.93479966666666,"instrument":1,"program":12},{"pitch":69,"velocity":95,"startTime":127.98914749999999,"endTime":128.09784316666665,"instrument":1,"program":12},{"pitch":74,"velocity":95,"startTime":128.152191,"endTime":128.26088666666666,"instrument":1,"program":12},{"pitch":69,"velocity":95,"startTime":128.3152345,"endTime":128.3695823333333,"instrument":1,"program":12},{"pitch":72,"velocity":95,"startTime":128.478278,"endTime":128.58697366666667,"instrument":1,"program":12},{"pitch":69,"velocity":95,"startTime":128.6413215,"endTime":128.6956693333333,"instrument":1,"program":12},{"pitch":69,"velocity":95,"startTime":128.804365,"endTime":128.91306066666667,"instrument":1,"program":12},{"pitch":74,"velocity":95,"startTime":128.96740849999998,"endTime":129.07610416666665,"instrument":1,"program":12},{"pitch":69,"velocity":95,"startTime":129.130452,"endTime":129.23914766666667,"instrument":1,"program":12},{"pitch":74,"velocity":95,"startTime":129.29349549999998,"endTime":129.40219116666665,"instrument":1,"program":12},{"pitch":69,"velocity":95,"startTime":129.456539,"endTime":129.56523466666667,"instrument":1,"program":12},{"pitch":74,"velocity":95,"startTime":129.61958249999998,"endTime":129.72827816666666,"instrument":1,"program":12},{"pitch":74,"velocity":95,"startTime":129.782626,"endTime":129.89132166666667,"instrument":1,"program":12},{"pitch":69,"velocity":95,"startTime":129.94566949999998,"endTime":130.00001733333332,"instrument":1,"program":12},{"pitch":69,"velocity":95,"startTime":130.108713,"endTime":130.21740866666667,"instrument":1,"program":12},{"pitch":72,"velocity":95,"startTime":130.27175649999998,"endTime":130.38045216666666,"instrument":1,"program":12},{"pitch":58,"velocity":95,"startTime":130.4348,"endTime":130.54349566666664,"instrument":1,"program":12},{"pitch":62,"velocity":95,"startTime":130.59784349999998,"endTime":130.70653916666666,"instrument":1,"program":12},{"pitch":67,"velocity":95,"startTime":130.760887,"endTime":130.86958266666664,"instrument":1,"program":12},{"pitch":62,"velocity":95,"startTime":130.92393049999998,"endTime":131.03262616666666,"instrument":1,"program":12},{"pitch":74,"velocity":95,"startTime":131.086974,"endTime":131.19566966666665,"instrument":1,"program":12},{"pitch":79,"velocity":95,"startTime":131.25001749999998,"endTime":131.30436533333332,"instrument":1,"program":12},{"pitch":70,"velocity":95,"startTime":131.413061,"endTime":131.52175666666665,"instrument":1,"program":12},{"pitch":62,"velocity":95,"startTime":131.57610449999999,"endTime":131.68480016666666,"instrument":1,"program":12},{"pitch":74,"velocity":95,"startTime":131.739148,"endTime":131.84784366666665,"instrument":1,"program":12},{"pitch":70,"velocity":95,"startTime":131.9021915,"endTime":132.01088716666666,"instrument":1,"program":12},{"pitch":74,"velocity":95,"startTime":132.065235,"endTime":132.17393066666665,"instrument":1,"program":12},{"pitch":74,"velocity":95,"startTime":132.2282785,"endTime":132.33697416666666,"instrument":1,"program":12},{"pitch":77,"velocity":95,"startTime":132.391322,"endTime":132.50001766666665,"instrument":1,"program":12},{"pitch":70,"velocity":95,"startTime":132.5543655,"endTime":132.60871333333333,"instrument":1,"program":12},{"pitch":67,"velocity":95,"startTime":132.717409,"endTime":132.7717568333333,"instrument":1,"program":12},{"pitch":62,"velocity":95,"startTime":132.8804525,"endTime":132.98914816666667,"instrument":1,"program":12},{"pitch":62,"velocity":95,"startTime":133.04349599999998,"endTime":133.15219166666665,"instrument":1,"program":12},{"pitch":67,"velocity":95,"startTime":133.2065395,"endTime":133.31523516666667,"instrument":1,"program":12},{"pitch":70,"velocity":95,"startTime":133.36958299999998,"endTime":133.47827866666665,"instrument":1,"program":12},{"pitch":74,"velocity":95,"startTime":133.5326265,"endTime":133.64132216666667,"instrument":1,"program":12},{"pitch":74,"velocity":95,"startTime":133.69566999999998,"endTime":133.80436566666665,"instrument":1,"program":12},{"pitch":70,"velocity":95,"startTime":133.8587135,"endTime":133.91306133333333,"instrument":1,"program":12},{"pitch":74,"velocity":95,"startTime":134.02175699999998,"endTime":134.13045266666666,"instrument":1,"program":12},{"pitch":70,"velocity":95,"startTime":134.1848005,"endTime":134.29349616666664,"instrument":1,"program":12},{"pitch":74,"velocity":95,"startTime":134.34784399999998,"endTime":134.45653966666666,"instrument":1,"program":12},{"pitch":70,"velocity":95,"startTime":134.5108875,"endTime":134.61958316666664,"instrument":1,"program":12},{"pitch":74,"velocity":95,"startTime":134.67393099999998,"endTime":134.78262666666666,"instrument":1,"program":12},{"pitch":70,"velocity":95,"startTime":134.8369745,"endTime":134.94567016666664,"instrument":1,"program":12},{"pitch":74,"velocity":95,"startTime":135.00001799999998,"endTime":135.10871366666666,"instrument":1,"program":12},{"pitch":70,"velocity":95,"startTime":135.1630615,"endTime":135.21740933333334,"instrument":1,"program":12},{"pitch":67,"velocity":95,"startTime":135.32610499999998,"endTime":135.38045283333332,"instrument":1,"program":12},{"pitch":70,"velocity":95,"startTime":135.4891485,"endTime":135.54349633333334,"instrument":1,"program":12},{"pitch":62,"velocity":95,"startTime":135.65219199999999,"endTime":135.76088766666666,"instrument":1,"program":12},{"pitch":69,"velocity":95,"startTime":135.8152355,"endTime":135.92393116666665,"instrument":1,"program":12},{"pitch":72,"velocity":95,"startTime":135.978279,"endTime":136.08697466666666,"instrument":1,"program":12},{"pitch":74,"velocity":95,"startTime":136.1413225,"endTime":136.25001816666665,"instrument":1,"program":12},{"pitch":69,"velocity":95,"startTime":136.304366,"endTime":136.41306166666666,"instrument":1,"program":12},{"pitch":72,"velocity":95,"startTime":136.4674095,"endTime":136.5217573333333,"instrument":1,"program":12},{"pitch":69,"velocity":95,"startTime":136.630453,"endTime":136.73914866666667,"instrument":1,"program":12},{"pitch":72,"velocity":95,"startTime":136.7934965,"endTime":136.90219216666665,"instrument":1,"program":12},{"pitch":74,"velocity":95,"startTime":136.95654,"endTime":137.06523566666667,"instrument":1,"program":12},{"pitch":69,"velocity":95,"startTime":137.11958349999998,"endTime":137.22827916666665,"instrument":1,"program":12},{"pitch":72,"velocity":95,"startTime":137.282627,"endTime":137.39132266666667,"instrument":1,"program":12},{"pitch":74,"velocity":95,"startTime":137.44567049999998,"endTime":137.55436616666665,"instrument":1,"program":12},{"pitch":74,"velocity":95,"startTime":137.608714,"endTime":137.71740966666667,"instrument":1,"program":12},{"pitch":69,"velocity":95,"startTime":137.77175749999998,"endTime":137.82610533333332,"instrument":1,"program":12},{"pitch":74,"velocity":95,"startTime":137.934801,"endTime":137.98914883333333,"instrument":1,"program":12},{"pitch":69,"velocity":95,"startTime":138.09784449999998,"endTime":138.15219233333332,"instrument":1,"program":12},{"pitch":62,"velocity":95,"startTime":138.260888,"endTime":138.36958366666664,"instrument":1,"program":12},{"pitch":71,"velocity":95,"startTime":138.42393149999998,"endTime":138.53262716666666,"instrument":1,"program":12},{"pitch":74,"velocity":95,"startTime":138.586975,"endTime":138.64132283333333,"instrument":1,"program":12},{"pitch":71,"velocity":95,"startTime":138.75001849999998,"endTime":138.80436633333332,"instrument":1,"program":12},{"pitch":74,"velocity":95,"startTime":138.913062,"endTime":139.02175766666664,"instrument":1,"program":12},{"pitch":74,"velocity":95,"startTime":139.07610549999998,"endTime":139.13045333333332,"instrument":1,"program":12},{"pitch":69,"velocity":95,"startTime":139.239149,"endTime":139.29349683333334,"instrument":1,"program":12},{"pitch":74,"velocity":95,"startTime":139.40219249999998,"endTime":139.45654033333332,"instrument":1,"program":12},{"pitch":74,"velocity":95,"startTime":139.565236,"endTime":139.67393166666665,"instrument":1,"program":12},{"pitch":74,"velocity":95,"startTime":139.72827949999999,"endTime":139.83697516666666,"instrument":1,"program":12},{"pitch":69,"velocity":95,"startTime":139.891323,"endTime":140.00001866666665,"instrument":1,"program":12},{"pitch":74,"velocity":95,"startTime":140.0543665,"endTime":140.16306216666666,"instrument":1,"program":12},{"pitch":74,"velocity":95,"startTime":140.21741,"endTime":140.32610566666665,"instrument":1,"program":12},{"pitch":69,"velocity":95,"startTime":140.3804535,"endTime":140.43480133333333,"instrument":1,"program":12},{"pitch":74,"velocity":95,"startTime":140.543497,"endTime":140.5978448333333,"instrument":1,"program":12},{"pitch":72,"velocity":95,"startTime":140.7065405,"endTime":140.81523616666666,"instrument":1,"program":12},{"pitch":62,"velocity":95,"startTime":140.869584,"endTime":140.97827966666665,"instrument":1,"program":12},{"pitch":67,"velocity":95,"startTime":141.0326275,"endTime":141.14132316666667,"instrument":1,"program":12},{"pitch":70,"velocity":95,"startTime":141.19567099999998,"endTime":141.30436666666665,"instrument":1,"program":12},{"pitch":79,"velocity":95,"startTime":141.3587145,"endTime":141.46741016666667,"instrument":1,"program":12},{"pitch":82,"velocity":95,"startTime":141.52175799999998,"endTime":141.63045366666665,"instrument":1,"program":12},{"pitch":79,"velocity":95,"startTime":141.6848015,"endTime":141.73914933333333,"instrument":1,"program":12},{"pitch":70,"velocity":95,"startTime":141.84784499999998,"endTime":141.90219283333332,"instrument":1,"program":12},{"pitch":76,"velocity":95,"startTime":142.0108885,"endTime":142.06523633333333,"instrument":1,"program":12},{"pitch":79,"velocity":95,"startTime":142.17393199999998,"endTime":142.28262766666666,"instrument":1,"program":12},{"pitch":70,"velocity":95,"startTime":142.3369755,"endTime":142.39132333333333,"instrument":1,"program":12},{"pitch":79,"velocity":95,"startTime":142.50001899999998,"endTime":142.55436683333332,"instrument":1,"program":12},{"pitch":79,"velocity":95,"startTime":142.6630625,"endTime":142.77175816666664,"instrument":1,"program":12},{"pitch":70,"velocity":95,"startTime":142.82610599999998,"endTime":142.93480166666666,"instrument":1,"program":12},{"pitch":79,"velocity":95,"startTime":142.9891495,"endTime":143.09784516666664,"instrument":1,"program":12},{"pitch":70,"velocity":95,"startTime":143.15219299999998,"endTime":143.26088866666666,"instrument":1,"program":12},{"pitch":67,"velocity":95,"startTime":143.3152365,"endTime":143.36958433333334,"instrument":1,"program":12},{"pitch":62,"velocity":95,"startTime":143.47827999999998,"endTime":143.58697566666666,"instrument":1,"program":12},{"pitch":67,"velocity":95,"startTime":143.6413235,"endTime":143.75001916666665,"instrument":1,"program":12},{"pitch":70,"velocity":95,"startTime":143.80436699999998,"endTime":143.85871483333332,"instrument":1,"program":12},{"pitch":67,"velocity":95,"startTime":143.9674105,"endTime":144.07610616666665,"instrument":1,"program":12},{"pitch":70,"velocity":95,"startTime":144.130454,"endTime":144.23914966666666,"instrument":1,"program":12},{"pitch":67,"velocity":95,"startTime":144.2934975,"endTime":144.3478453333333,"instrument":1,"program":12},{"pitch":70,"velocity":95,"startTime":144.456541,"endTime":144.56523666666666,"instrument":1,"program":12},{"pitch":74,"velocity":95,"startTime":144.6195845,"endTime":144.6739323333333,"instrument":1,"program":12},{"pitch":67,"velocity":95,"startTime":144.782628,"endTime":144.89132366666666,"instrument":1,"program":12},{"pitch":70,"velocity":95,"startTime":144.9456715,"endTime":145.0000193333333,"instrument":1,"program":12},{"pitch":67,"velocity":95,"startTime":145.108715,"endTime":145.21741066666667,"instrument":1,"program":12},{"pitch":62,"velocity":95,"startTime":145.27175849999998,"endTime":145.38045416666665,"instrument":1,"program":12},{"pitch":70,"velocity":95,"startTime":145.434802,"endTime":145.54349766666667,"instrument":1,"program":12},{"pitch":67,"velocity":95,"startTime":145.59784549999998,"endTime":145.65219333333332,"instrument":1,"program":12},{"pitch":70,"velocity":95,"startTime":145.760889,"endTime":145.86958466666667,"instrument":1,"program":12},{"pitch":70,"velocity":95,"startTime":145.92393249999998,"endTime":146.03262816666665,"instrument":1,"program":12},{"pitch":38,"velocity":110,"startTime":125.21740799999999,"endTime":125.38045149999999,"instrument":2,"program":32},{"pitch":38,"velocity":110,"startTime":125.7065385,"endTime":125.869582,"instrument":2,"program":32},{"pitch":38,"velocity":110,"startTime":126.195669,"endTime":126.41306033333332,"instrument":2,"program":32},{"pitch":40,"velocity":110,"startTime":126.521756,"endTime":126.6847995,"instrument":2,"program":32},{"pitch":33,"velocity":110,"startTime":126.847843,"endTime":127.06523433333332,"instrument":2,"program":32},{"pitch":38,"velocity":110,"startTime":127.17392999999998,"endTime":127.33697349999998,"instrument":2,"program":32},{"pitch":38,"velocity":110,"startTime":127.50001699999999,"endTime":127.66306049999999,"instrument":2,"program":32},{"pitch":38,"velocity":110,"startTime":127.82610399999999,"endTime":127.98914749999999,"instrument":2,"program":32},{"pitch":38,"velocity":110,"startTime":128.152191,"endTime":128.3152345,"instrument":2,"program":32},{"pitch":33,"velocity":110,"startTime":128.478278,"endTime":128.6413215,"instrument":2,"program":32},{"pitch":38,"velocity":110,"startTime":128.804365,"endTime":128.96740849999998,"instrument":2,"program":32},{"pitch":33,"velocity":110,"startTime":129.130452,"endTime":129.29349549999998,"instrument":2,"program":32},{"pitch":33,"velocity":110,"startTime":129.456539,"endTime":129.61958249999998,"instrument":2,"program":32},{"pitch":33,"velocity":110,"startTime":129.782626,"endTime":129.94566949999998,"instrument":2,"program":32},{"pitch":33,"velocity":110,"startTime":130.108713,"endTime":130.27175649999998,"instrument":2,"program":32},{"pitch":43,"velocity":110,"startTime":130.4348,"endTime":130.59784349999998,"instrument":2,"program":32},{"pitch":43,"velocity":110,"startTime":130.760887,"endTime":130.92393049999998,"instrument":2,"program":32},{"pitch":43,"velocity":110,"startTime":131.086974,"endTime":131.25001749999998,"instrument":2,"program":32},{"pitch":38,"velocity":110,"startTime":131.413061,"endTime":131.57610449999999,"instrument":2,"program":32},{"pitch":43,"velocity":110,"startTime":131.739148,"endTime":131.9021915,"instrument":2,"program":32},{"pitch":43,"velocity":110,"startTime":132.065235,"endTime":132.2282785,"instrument":2,"program":32},{"pitch":43,"velocity":110,"startTime":132.391322,"endTime":132.5543655,"instrument":2,"program":32},{"pitch":38,"velocity":110,"startTime":132.717409,"endTime":132.8804525,"instrument":2,"program":32},{"pitch":43,"velocity":110,"startTime":133.04349599999998,"endTime":133.2065395,"instrument":2,"program":32},{"pitch":43,"velocity":110,"startTime":133.36958299999998,"endTime":133.5326265,"instrument":2,"program":32},{"pitch":34,"velocity":110,"startTime":133.69566999999998,"endTime":133.8587135,"instrument":2,"program":32},{"pitch":38,"velocity":110,"startTime":134.02175699999998,"endTime":134.1848005,"instrument":2,"program":32},{"pitch":43,"velocity":110,"startTime":134.34784399999998,"endTime":134.5108875,"instrument":2,"program":32},{"pitch":38,"velocity":110,"startTime":134.67393099999998,"endTime":134.8369745,"instrument":2,"program":32},{"pitch":46,"velocity":110,"startTime":135.00001799999998,"endTime":135.1630615,"instrument":2,"program":32},{"pitch":38,"velocity":110,"startTime":135.32610499999998,"endTime":135.4891485,"instrument":2,"program":32},{"pitch":38,"velocity":110,"startTime":135.65219199999999,"endTime":135.8152355,"instrument":2,"program":32},{"pitch":33,"velocity":110,"startTime":135.978279,"endTime":136.1413225,"instrument":2,"program":32},{"pitch":38,"velocity":110,"startTime":136.304366,"endTime":136.4674095,"instrument":2,"program":32},{"pitch":38,"velocity":110,"startTime":136.630453,"endTime":136.7934965,"instrument":2,"program":32},{"pitch":33,"velocity":110,"startTime":136.95654,"endTime":137.11958349999998,"instrument":2,"program":32},{"pitch":33,"velocity":110,"startTime":137.282627,"endTime":137.44567049999998,"instrument":2,"program":32},{"pitch":33,"velocity":110,"startTime":137.608714,"endTime":137.77175749999998,"instrument":2,"program":32},{"pitch":33,"velocity":110,"startTime":137.934801,"endTime":138.09784449999998,"instrument":2,"program":32},{"pitch":38,"velocity":110,"startTime":138.260888,"endTime":138.42393149999998,"instrument":2,"program":32},{"pitch":33,"velocity":110,"startTime":138.586975,"endTime":138.75001849999998,"instrument":2,"program":32},{"pitch":38,"velocity":110,"startTime":138.913062,"endTime":139.07610549999998,"instrument":2,"program":32},{"pitch":38,"velocity":110,"startTime":139.239149,"endTime":139.40219249999998,"instrument":2,"program":32},{"pitch":33,"velocity":110,"startTime":139.565236,"endTime":139.72827949999999,"instrument":2,"program":32},{"pitch":33,"velocity":110,"startTime":139.891323,"endTime":140.0543665,"instrument":2,"program":32},{"pitch":33,"velocity":110,"startTime":140.0543665,"endTime":140.16306216666666,"instrument":2,"program":32},{"pitch":33,"velocity":110,"startTime":140.21741,"endTime":140.3804535,"instrument":2,"program":32},{"pitch":38,"velocity":110,"startTime":140.543497,"endTime":140.7065405,"instrument":2,"program":32},{"pitch":43,"velocity":110,"startTime":140.869584,"endTime":141.08697533333333,"instrument":2,"program":32},{"pitch":43,"velocity":110,"startTime":141.19567099999998,"endTime":141.3587145,"instrument":2,"program":32},{"pitch":38,"velocity":110,"startTime":141.52175799999998,"endTime":141.6848015,"instrument":2,"program":32},{"pitch":38,"velocity":110,"startTime":141.84784499999998,"endTime":142.0108885,"instrument":2,"program":32},{"pitch":43,"velocity":110,"startTime":142.17393199999998,"endTime":142.3369755,"instrument":2,"program":32},{"pitch":43,"velocity":110,"startTime":142.50001899999998,"endTime":142.6630625,"instrument":2,"program":32},{"pitch":38,"velocity":110,"startTime":142.82610599999998,"endTime":142.9891495,"instrument":2,"program":32},{"pitch":38,"velocity":110,"startTime":143.15219299999998,"endTime":143.3152365,"instrument":2,"program":32},{"pitch":34,"velocity":110,"startTime":143.47827999999998,"endTime":143.6956713333333,"instrument":2,"program":32},{"pitch":38,"velocity":110,"startTime":143.80436699999998,"endTime":143.9674105,"instrument":2,"program":32},{"pitch":31,"velocity":110,"startTime":144.130454,"endTime":144.2934975,"instrument":2,"program":32},{"pitch":31,"velocity":110,"startTime":144.456541,"endTime":144.6195845,"instrument":2,"program":32},{"pitch":31,"velocity":110,"startTime":144.782628,"endTime":145.0000193333333,"instrument":2,"program":32},{"pitch":33,"velocity":110,"startTime":145.108715,"endTime":145.27175849999998,"instrument":2,"program":32},{"pitch":38,"velocity":110,"startTime":145.434802,"endTime":145.59784549999998,"instrument":2,"program":32},{"pitch":31,"velocity":110,"startTime":145.59784549999998,"endTime":145.760889,"instrument":2,"program":32},{"pitch":38,"velocity":110,"startTime":145.92393249999998,"endTime":146.03262816666665,"instrument":2,"program":32},{"pitch":76,"velocity":105,"startTime":125.21740799999999,"endTime":127.71740833333332,"instrument":3,"program":50},{"pitch":60,"velocity":105,"startTime":127.82610399999999,"endTime":130.4348,"instrument":3,"program":50},{"pitch":62,"velocity":105,"startTime":127.82610399999999,"endTime":130.4348,"instrument":3,"program":50},{"pitch":66,"velocity":105,"startTime":127.82610399999999,"endTime":130.4348,"instrument":3,"program":50},{"pitch":69,"velocity":105,"startTime":127.82610399999999,"endTime":130.4348,"instrument":3,"program":50},{"pitch":58,"velocity":105,"startTime":130.4348,"endTime":133.04349599999998,"instrument":3,"program":50},{"pitch":65,"velocity":105,"startTime":130.4348,"endTime":133.04349599999998,"instrument":3,"program":50},{"pitch":67,"velocity":105,"startTime":130.4348,"endTime":133.04349599999998,"instrument":3,"program":50},{"pitch":74,"velocity":105,"startTime":130.4348,"endTime":133.04349599999998,"instrument":3,"program":50},{"pitch":58,"velocity":105,"startTime":133.04349599999998,"endTime":135.65219199999999,"instrument":3,"program":50},{"pitch":62,"velocity":105,"startTime":133.04349599999998,"endTime":135.65219199999999,"instrument":3,"program":50},{"pitch":65,"velocity":105,"startTime":133.04349599999998,"endTime":135.65219199999999,"instrument":3,"program":50},{"pitch":70,"velocity":105,"startTime":133.04349599999998,"endTime":135.65219199999999,"instrument":3,"program":50},{"pitch":60,"velocity":105,"startTime":135.65219199999999,"endTime":138.260888,"instrument":3,"program":50},{"pitch":64,"velocity":105,"startTime":135.65219199999999,"endTime":138.260888,"instrument":3,"program":50},{"pitch":66,"velocity":105,"startTime":135.65219199999999,"endTime":138.260888,"instrument":3,"program":50},{"pitch":69,"velocity":105,"startTime":135.65219199999999,"endTime":138.260888,"instrument":3,"program":50},{"pitch":60,"velocity":105,"startTime":138.260888,"endTime":140.869584,"instrument":3,"program":50},{"pitch":63,"velocity":105,"startTime":138.260888,"endTime":140.869584,"instrument":3,"program":50},{"pitch":66,"velocity":105,"startTime":138.260888,"endTime":140.869584,"instrument":3,"program":50},{"pitch":69,"velocity":105,"startTime":138.260888,"endTime":140.869584,"instrument":3,"program":50},{"pitch":58,"velocity":105,"startTime":140.869584,"endTime":143.47827999999998,"instrument":3,"program":50},{"pitch":62,"velocity":105,"startTime":140.869584,"endTime":143.47827999999998,"instrument":3,"program":50},{"pitch":67,"velocity":105,"startTime":140.869584,"endTime":143.47827999999998,"instrument":3,"program":50},{"pitch":58,"velocity":105,"startTime":143.47827999999998,"endTime":146.086976,"instrument":3,"program":50},{"pitch":62,"velocity":105,"startTime":143.47827999999998,"endTime":146.086976,"instrument":3,"program":50},{"pitch":65,"velocity":105,"startTime":143.47827999999998,"endTime":146.086976,"instrument":3,"program":50},{"pitch":67,"velocity":105,"startTime":143.47827999999998,"endTime":146.086976,"instrument":3,"program":50},{"pitch":35,"velocity":102,"startTime":146.086976,"endTime":146.19567166666667,"isDrum":true},{"pitch":42,"velocity":102,"startTime":146.086976,"endTime":146.19567166666667,"isDrum":true},{"pitch":42,"velocity":102,"startTime":146.413063,"endTime":146.52175866666664,"isDrum":true},{"pitch":35,"velocity":102,"startTime":146.57610649999998,"endTime":146.68480216666666,"isDrum":true},{"pitch":40,"velocity":102,"startTime":146.73915,"endTime":146.84784566666664,"isDrum":true},{"pitch":42,"velocity":102,"startTime":146.73915,"endTime":146.84784566666664,"isDrum":true},{"pitch":35,"velocity":102,"startTime":147.065237,"endTime":147.17393266666664,"isDrum":true},{"pitch":42,"velocity":102,"startTime":147.065237,"endTime":147.17393266666664,"isDrum":true},{"pitch":35,"velocity":102,"startTime":147.22828049999998,"endTime":147.33697616666666,"isDrum":true},{"pitch":35,"velocity":102,"startTime":147.391324,"endTime":147.50001966666665,"isDrum":true},{"pitch":42,"velocity":102,"startTime":147.391324,"endTime":147.50001966666665,"isDrum":true},{"pitch":42,"velocity":102,"startTime":147.717411,"endTime":147.82610666666665,"isDrum":true},{"pitch":40,"velocity":102,"startTime":148.043498,"endTime":148.15219366666665,"isDrum":true},{"pitch":42,"velocity":102,"startTime":148.043498,"endTime":148.15219366666665,"isDrum":true},{"pitch":42,"velocity":102,"startTime":148.369585,"endTime":148.47828066666665,"isDrum":true},{"pitch":35,"velocity":102,"startTime":148.5326285,"endTime":148.64132416666666,"isDrum":true},{"pitch":35,"velocity":102,"startTime":148.695672,"endTime":148.80436766666665,"isDrum":true},{"pitch":42,"velocity":102,"startTime":148.695672,"endTime":148.80436766666665,"isDrum":true},{"pitch":42,"velocity":102,"startTime":149.021759,"endTime":149.13045466666665,"isDrum":true},{"pitch":40,"velocity":102,"startTime":149.34784599999998,"endTime":149.45654166666665,"isDrum":true},{"pitch":42,"velocity":102,"startTime":149.34784599999998,"endTime":149.45654166666665,"isDrum":true},{"pitch":42,"velocity":102,"startTime":149.67393299999998,"endTime":149.78262866666665,"isDrum":true},{"pitch":35,"velocity":102,"startTime":149.8369765,"endTime":149.94567216666667,"isDrum":true},{"pitch":35,"velocity":102,"startTime":150.00001999999998,"endTime":150.10871566666665,"isDrum":true},{"pitch":42,"velocity":102,"startTime":150.00001999999998,"endTime":150.10871566666665,"isDrum":true},{"pitch":35,"velocity":102,"startTime":150.32610699999998,"endTime":150.43480266666666,"isDrum":true},{"pitch":42,"velocity":102,"startTime":150.32610699999998,"endTime":150.43480266666666,"isDrum":true},{"pitch":40,"velocity":102,"startTime":150.65219399999998,"endTime":150.76088966666666,"isDrum":true},{"pitch":42,"velocity":102,"startTime":150.65219399999998,"endTime":150.76088966666666,"isDrum":true},{"pitch":42,"velocity":102,"startTime":150.97828099999998,"endTime":151.08697666666666,"isDrum":true},{"pitch":35,"velocity":102,"startTime":151.1413245,"endTime":151.25002016666664,"isDrum":true},{"pitch":35,"velocity":102,"startTime":151.30436799999998,"endTime":151.41306366666666,"isDrum":true},{"pitch":42,"velocity":102,"startTime":151.30436799999998,"endTime":151.41306366666666,"isDrum":true},{"pitch":42,"velocity":102,"startTime":151.63045499999998,"endTime":151.73915066666666,"isDrum":true},{"pitch":40,"velocity":102,"startTime":151.95654199999998,"endTime":152.06523766666666,"isDrum":true},{"pitch":42,"velocity":102,"startTime":151.95654199999998,"endTime":152.06523766666666,"isDrum":true},{"pitch":35,"velocity":102,"startTime":152.282629,"endTime":152.39132466666666,"isDrum":true},{"pitch":42,"velocity":102,"startTime":152.282629,"endTime":152.39132466666666,"isDrum":true},{"pitch":35,"velocity":102,"startTime":152.4456725,"endTime":152.55436816666665,"isDrum":true},{"pitch":35,"velocity":102,"startTime":152.608716,"endTime":152.71741166666666,"isDrum":true},{"pitch":42,"velocity":102,"startTime":152.608716,"endTime":152.71741166666666,"isDrum":true},{"pitch":42,"velocity":102,"startTime":152.934803,"endTime":153.04349866666666,"isDrum":true},{"pitch":40,"velocity":102,"startTime":153.26089,"endTime":153.36958566666667,"isDrum":true},{"pitch":42,"velocity":102,"startTime":153.26089,"endTime":153.36958566666667,"isDrum":true},{"pitch":42,"velocity":102,"startTime":153.586977,"endTime":153.69567266666667,"isDrum":true},{"pitch":35,"velocity":102,"startTime":153.75002049999998,"endTime":153.85871616666665,"isDrum":true},{"pitch":35,"velocity":102,"startTime":153.913064,"endTime":154.02175966666667,"isDrum":true},{"pitch":42,"velocity":102,"startTime":153.913064,"endTime":154.02175966666667,"isDrum":true},{"pitch":35,"velocity":102,"startTime":154.239151,"endTime":154.34784666666667,"isDrum":true},{"pitch":42,"velocity":102,"startTime":154.239151,"endTime":154.34784666666667,"isDrum":true},{"pitch":40,"velocity":102,"startTime":154.565238,"endTime":154.67393366666664,"isDrum":true},{"pitch":42,"velocity":102,"startTime":154.565238,"endTime":154.67393366666664,"isDrum":true},{"pitch":40,"velocity":102,"startTime":154.72828149999998,"endTime":154.83697716666666,"isDrum":true},{"pitch":42,"velocity":102,"startTime":154.891325,"endTime":155.00002066666664,"isDrum":true},{"pitch":35,"velocity":102,"startTime":155.05436849999998,"endTime":155.16306416666666,"isDrum":true},{"pitch":40,"velocity":102,"startTime":155.05436849999998,"endTime":155.16306416666666,"isDrum":true},{"pitch":35,"velocity":102,"startTime":155.217412,"endTime":155.32610766666664,"isDrum":true},{"pitch":42,"velocity":102,"startTime":155.217412,"endTime":155.32610766666664,"isDrum":true},{"pitch":42,"velocity":102,"startTime":155.543499,"endTime":155.65219466666665,"isDrum":true},{"pitch":40,"velocity":102,"startTime":155.869586,"endTime":155.97828166666665,"isDrum":true},{"pitch":42,"velocity":102,"startTime":155.869586,"endTime":155.97828166666665,"isDrum":true},{"pitch":35,"velocity":102,"startTime":156.195673,"endTime":156.30436866666665,"isDrum":true},{"pitch":42,"velocity":102,"startTime":156.195673,"endTime":156.30436866666665,"isDrum":true},{"pitch":35,"velocity":102,"startTime":156.35871649999999,"endTime":156.46741216666666,"isDrum":true},{"pitch":35,"velocity":102,"startTime":156.52176,"endTime":156.63045566666665,"isDrum":true},{"pitch":42,"velocity":102,"startTime":156.52176,"endTime":156.63045566666665,"isDrum":true},{"pitch":42,"velocity":102,"startTime":156.847847,"endTime":156.95654266666665,"isDrum":true},{"pitch":40,"velocity":102,"startTime":157.17393399999997,"endTime":157.28262966666665,"isDrum":true},{"pitch":42,"velocity":102,"startTime":157.17393399999997,"endTime":157.28262966666665,"isDrum":true},{"pitch":42,"velocity":102,"startTime":157.50002099999998,"endTime":157.60871666666665,"isDrum":true},{"pitch":40,"velocity":102,"startTime":157.6630645,"endTime":157.77176016666667,"isDrum":true},{"pitch":35,"velocity":102,"startTime":157.82610799999998,"endTime":157.93480366666665,"isDrum":true},{"pitch":42,"velocity":102,"startTime":157.82610799999998,"endTime":157.93480366666665,"isDrum":true},{"pitch":35,"velocity":102,"startTime":157.9891515,"endTime":158.09784716666667,"isDrum":true},{"pitch":35,"velocity":102,"startTime":158.15219499999998,"endTime":158.26089066666665,"isDrum":true},{"pitch":42,"velocity":102,"startTime":158.15219499999998,"endTime":158.26089066666665,"isDrum":true},{"pitch":40,"velocity":102,"startTime":158.47828199999998,"endTime":158.58697766666666,"isDrum":true},{"pitch":42,"velocity":102,"startTime":158.47828199999998,"endTime":158.58697766666666,"isDrum":true},{"pitch":42,"velocity":102,"startTime":158.80436899999998,"endTime":158.91306466666666,"isDrum":true},{"pitch":40,"velocity":102,"startTime":158.9674125,"endTime":159.07610816666664,"isDrum":true},{"pitch":35,"velocity":102,"startTime":159.13045599999998,"endTime":159.23915166666666,"isDrum":true},{"pitch":42,"velocity":102,"startTime":159.13045599999998,"endTime":159.23915166666666,"isDrum":true},{"pitch":42,"velocity":102,"startTime":159.45654299999998,"endTime":159.56523866666666,"isDrum":true},{"pitch":40,"velocity":102,"startTime":159.78262999999998,"endTime":159.89132566666666,"isDrum":true},{"pitch":42,"velocity":102,"startTime":159.78262999999998,"endTime":159.89132566666666,"isDrum":true},{"pitch":42,"velocity":102,"startTime":160.10871699999998,"endTime":160.21741266666666,"isDrum":true},{"pitch":35,"velocity":102,"startTime":160.2717605,"endTime":160.38045616666665,"isDrum":true},{"pitch":35,"velocity":102,"startTime":160.43480399999999,"endTime":160.54349966666666,"isDrum":true},{"pitch":42,"velocity":102,"startTime":160.43480399999999,"endTime":160.54349966666666,"isDrum":true},{"pitch":35,"velocity":102,"startTime":160.760891,"endTime":160.86958666666666,"isDrum":true},{"pitch":42,"velocity":102,"startTime":160.760891,"endTime":160.86958666666666,"isDrum":true},{"pitch":40,"velocity":102,"startTime":161.086978,"endTime":161.19567366666666,"isDrum":true},{"pitch":42,"velocity":102,"startTime":161.086978,"endTime":161.19567366666666,"isDrum":true},{"pitch":42,"velocity":102,"startTime":161.413065,"endTime":161.52176066666667,"isDrum":true},{"pitch":35,"velocity":102,"startTime":161.739152,"endTime":161.84784766666667,"isDrum":true},{"pitch":42,"velocity":102,"startTime":161.739152,"endTime":161.84784766666667,"isDrum":true},{"pitch":42,"velocity":102,"startTime":162.065239,"endTime":162.17393466666667,"isDrum":true},{"pitch":40,"velocity":102,"startTime":162.391326,"endTime":162.50002166666664,"isDrum":true},{"pitch":42,"velocity":102,"startTime":162.391326,"endTime":162.50002166666664,"isDrum":true},{"pitch":42,"velocity":102,"startTime":162.717413,"endTime":162.82610866666664,"isDrum":true},{"pitch":35,"velocity":102,"startTime":162.88045649999998,"endTime":162.98915216666666,"isDrum":true},{"pitch":35,"velocity":102,"startTime":163.0435,"endTime":163.15219566666664,"isDrum":true},{"pitch":42,"velocity":102,"startTime":163.0435,"endTime":163.15219566666664,"isDrum":true},{"pitch":35,"velocity":102,"startTime":163.369587,"endTime":163.47828266666664,"isDrum":true},{"pitch":42,"velocity":102,"startTime":163.369587,"endTime":163.47828266666664,"isDrum":true},{"pitch":40,"velocity":102,"startTime":163.695674,"endTime":163.80436966666664,"isDrum":true},{"pitch":42,"velocity":102,"startTime":163.695674,"endTime":163.80436966666664,"isDrum":true},{"pitch":46,"velocity":102,"startTime":163.85871749999998,"endTime":163.96741316666666,"isDrum":true},{"pitch":42,"velocity":102,"startTime":164.021761,"endTime":164.13045666666665,"isDrum":true},{"pitch":40,"velocity":102,"startTime":164.18480449999998,"endTime":164.29350016666666,"isDrum":true},{"pitch":35,"velocity":102,"startTime":164.347848,"endTime":164.45654366666665,"isDrum":true},{"pitch":42,"velocity":102,"startTime":164.347848,"endTime":164.45654366666665,"isDrum":true},{"pitch":42,"velocity":102,"startTime":164.673935,"endTime":164.78263066666665,"isDrum":true},{"pitch":35,"velocity":102,"startTime":164.8369785,"endTime":164.94567416666666,"isDrum":true},{"pitch":40,"velocity":102,"startTime":165.000022,"endTime":165.10871766666665,"isDrum":true},{"pitch":42,"velocity":102,"startTime":165.000022,"endTime":165.10871766666665,"isDrum":true},{"pitch":35,"velocity":102,"startTime":165.32610899999997,"endTime":165.43480466666665,"isDrum":true},{"pitch":42,"velocity":102,"startTime":165.32610899999997,"endTime":165.43480466666665,"isDrum":true},{"pitch":35,"velocity":102,"startTime":165.65219599999998,"endTime":165.76089166666665,"isDrum":true},{"pitch":42,"velocity":102,"startTime":165.65219599999998,"endTime":165.76089166666665,"isDrum":true},{"pitch":42,"velocity":102,"startTime":165.97828299999998,"endTime":166.08697866666665,"isDrum":true},{"pitch":40,"velocity":102,"startTime":166.30436999999998,"endTime":166.41306566666665,"isDrum":true},{"pitch":42,"velocity":102,"startTime":166.30436999999998,"endTime":166.41306566666665,"isDrum":true},{"pitch":42,"velocity":102,"startTime":166.63045699999998,"endTime":166.73915266666666,"isDrum":true},{"pitch":35,"velocity":102,"startTime":166.7935005,"endTime":166.90219616666664,"isDrum":true},{"pitch":70,"velocity":95,"startTime":146.25001949999998,"endTime":146.35871516666666,"instrument":1,"program":12},{"pitch":75,"velocity":95,"startTime":146.413063,"endTime":146.46741083333333,"instrument":1,"program":12},{"pitch":70,"velocity":95,"startTime":146.57610649999998,"endTime":146.63045433333332,"instrument":1,"program":12},{"pitch":75,"velocity":95,"startTime":146.73915,"endTime":146.79349783333333,"instrument":1,"program":12},{"pitch":70,"velocity":95,"startTime":146.90219349999998,"endTime":146.95654133333332,"instrument":1,"program":12},{"pitch":70,"velocity":95,"startTime":147.065237,"endTime":147.11958483333333,"instrument":1,"program":12},{"pitch":75,"velocity":95,"startTime":147.22828049999998,"endTime":147.28262833333332,"instrument":1,"program":12},{"pitch":70,"velocity":95,"startTime":147.391324,"endTime":147.50001966666665,"instrument":1,"program":12},{"pitch":72,"velocity":95,"startTime":147.55436749999998,"endTime":147.66306316666666,"instrument":1,"program":12},{"pitch":75,"velocity":95,"startTime":147.717411,"endTime":147.7717588333333,"instrument":1,"program":12},{"pitch":70,"velocity":95,"startTime":147.88045449999998,"endTime":147.93480233333332,"instrument":1,"program":12},{"pitch":75,"velocity":95,"startTime":148.043498,"endTime":148.0978458333333,"instrument":1,"program":12},{"pitch":70,"velocity":95,"startTime":148.2065415,"endTime":148.26088933333332,"instrument":1,"program":12},{"pitch":75,"velocity":95,"startTime":148.369585,"endTime":148.4239328333333,"instrument":1,"program":12},{"pitch":70,"velocity":95,"startTime":148.5326285,"endTime":148.58697633333333,"instrument":1,"program":12},{"pitch":70,"velocity":95,"startTime":148.695672,"endTime":148.8587155,"instrument":1,"program":12},{"pitch":72,"velocity":95,"startTime":148.8587155,"endTime":148.96741116666666,"instrument":1,"program":12},{"pitch":75,"velocity":95,"startTime":149.021759,"endTime":149.13045466666665,"instrument":1,"program":12},{"pitch":75,"velocity":95,"startTime":149.1848025,"endTime":149.23915033333333,"instrument":1,"program":12},{"pitch":70,"velocity":95,"startTime":149.34784599999998,"endTime":149.45654166666665,"instrument":1,"program":12},{"pitch":72,"velocity":95,"startTime":149.5108895,"endTime":149.56523733333333,"instrument":1,"program":12},{"pitch":75,"velocity":95,"startTime":149.67393299999998,"endTime":149.72828083333332,"instrument":1,"program":12},{"pitch":70,"velocity":95,"startTime":149.8369765,"endTime":149.89132433333333,"instrument":1,"program":12},{"pitch":75,"velocity":95,"startTime":150.00001999999998,"endTime":150.10871566666665,"instrument":1,"program":12},{"pitch":70,"velocity":95,"startTime":150.1630635,"endTime":150.27175916666667,"instrument":1,"program":12},{"pitch":75,"velocity":95,"startTime":150.32610699999998,"endTime":150.38045483333332,"instrument":1,"program":12},{"pitch":70,"velocity":95,"startTime":150.4891505,"endTime":150.54349833333333,"instrument":1,"program":12},{"pitch":75,"velocity":95,"startTime":150.65219399999998,"endTime":150.70654183333332,"instrument":1,"program":12},{"pitch":70,"velocity":95,"startTime":150.8152375,"endTime":150.86958533333333,"instrument":1,"program":12},{"pitch":72,"velocity":95,"startTime":150.97828099999998,"endTime":151.03262883333332,"instrument":1,"program":12},{"pitch":75,"velocity":95,"startTime":151.1413245,"endTime":151.19567233333333,"instrument":1,"program":12},{"pitch":70,"velocity":95,"startTime":151.30436799999998,"endTime":151.41306366666666,"instrument":1,"program":12},{"pitch":67,"velocity":95,"startTime":151.4674115,"endTime":151.57610716666665,"instrument":1,"program":12},{"pitch":70,"velocity":95,"startTime":151.63045499999998,"endTime":151.73915066666666,"instrument":1,"program":12},{"pitch":70,"velocity":95,"startTime":151.7934985,"endTime":151.90219416666665,"instrument":1,"program":12},{"pitch":74,"velocity":95,"startTime":151.95654199999998,"endTime":152.06523766666666,"instrument":1,"program":12},{"pitch":70,"velocity":95,"startTime":152.1195855,"endTime":152.1739333333333,"instrument":1,"program":12},{"pitch":79,"velocity":95,"startTime":152.282629,"endTime":152.39132466666666,"instrument":1,"program":12},{"pitch":74,"velocity":95,"startTime":152.4456725,"endTime":152.55436816666665,"instrument":1,"program":12},{"pitch":70,"velocity":95,"startTime":152.608716,"endTime":152.71741166666666,"instrument":1,"program":12},{"pitch":74,"velocity":95,"startTime":152.7717595,"endTime":152.88045516666665,"instrument":1,"program":12},{"pitch":70,"velocity":95,"startTime":152.934803,"endTime":152.98915083333333,"instrument":1,"program":12},{"pitch":70,"velocity":95,"startTime":153.09784649999997,"endTime":153.1521943333333,"instrument":1,"program":12},{"pitch":74,"velocity":95,"startTime":153.26089,"endTime":153.36958566666667,"instrument":1,"program":12},{"pitch":70,"velocity":95,"startTime":153.42393349999998,"endTime":153.4782813333333,"instrument":1,"program":12},{"pitch":67,"velocity":95,"startTime":153.586977,"endTime":153.69567266666667,"instrument":1,"program":12},{"pitch":70,"velocity":95,"startTime":153.75002049999998,"endTime":153.85871616666665,"instrument":1,"program":12},{"pitch":70,"velocity":95,"startTime":153.913064,"endTime":154.02175966666667,"instrument":1,"program":12},{"pitch":67,"velocity":95,"startTime":154.07610749999998,"endTime":154.18480316666665,"instrument":1,"program":12},{"pitch":70,"velocity":95,"startTime":154.239151,"endTime":154.29349883333333,"instrument":1,"program":12},{"pitch":67,"velocity":95,"startTime":154.40219449999998,"endTime":154.45654233333332,"instrument":1,"program":12},{"pitch":70,"velocity":95,"startTime":154.565238,"endTime":154.61958583333333,"instrument":1,"program":12},{"pitch":67,"velocity":95,"startTime":154.72828149999998,"endTime":154.83697716666666,"instrument":1,"program":12},{"pitch":70,"velocity":95,"startTime":154.891325,"endTime":155.00002066666664,"instrument":1,"program":12},{"pitch":67,"velocity":95,"startTime":155.05436849999998,"endTime":155.10871633333332,"instrument":1,"program":12},{"pitch":67,"velocity":95,"startTime":155.217412,"endTime":155.32610766666664,"instrument":1,"program":12},{"pitch":70,"velocity":95,"startTime":155.38045549999998,"endTime":155.48915116666666,"instrument":1,"program":12},{"pitch":67,"velocity":95,"startTime":155.543499,"endTime":155.65219466666665,"instrument":1,"program":12},{"pitch":70,"velocity":95,"startTime":155.70654249999998,"endTime":155.81523816666666,"instrument":1,"program":12},{"pitch":67,"velocity":95,"startTime":155.869586,"endTime":155.97828166666665,"instrument":1,"program":12},{"pitch":70,"velocity":95,"startTime":156.03262949999998,"endTime":156.08697733333332,"instrument":1,"program":12},{"pitch":67,"velocity":95,"startTime":156.195673,"endTime":156.2500208333333,"instrument":1,"program":12},{"pitch":70,"velocity":95,"startTime":156.35871649999999,"endTime":156.41306433333332,"instrument":1,"program":12},{"pitch":72,"velocity":95,"startTime":156.52176,"endTime":156.6848035,"instrument":1,"program":12},{"pitch":69,"velocity":95,"startTime":156.6848035,"endTime":156.79349916666666,"instrument":1,"program":12},{"pitch":72,"velocity":95,"startTime":156.847847,"endTime":156.95654266666665,"instrument":1,"program":12},{"pitch":69,"velocity":95,"startTime":157.0108905,"endTime":157.06523833333333,"instrument":1,"program":12},{"pitch":72,"velocity":95,"startTime":157.17393399999997,"endTime":157.28262966666665,"instrument":1,"program":12},{"pitch":69,"velocity":95,"startTime":157.3369775,"endTime":157.44567316666667,"instrument":1,"program":12},{"pitch":69,"velocity":95,"startTime":157.50002099999998,"endTime":157.60871666666665,"instrument":1,"program":12},{"pitch":69,"velocity":95,"startTime":157.6630645,"endTime":157.77176016666667,"instrument":1,"program":12},{"pitch":72,"velocity":95,"startTime":157.82610799999998,"endTime":157.93480366666665,"instrument":1,"program":12},{"pitch":69,"velocity":95,"startTime":157.9891515,"endTime":158.09784716666667,"instrument":1,"program":12},{"pitch":72,"velocity":95,"startTime":158.15219499999998,"endTime":158.26089066666665,"instrument":1,"program":12},{"pitch":69,"velocity":95,"startTime":158.3152385,"endTime":158.36958633333333,"instrument":1,"program":12},{"pitch":72,"velocity":95,"startTime":158.47828199999998,"endTime":158.58697766666666,"instrument":1,"program":12},{"pitch":69,"velocity":95,"startTime":158.6413255,"endTime":158.75002116666664,"instrument":1,"program":12},{"pitch":69,"velocity":95,"startTime":158.80436899999998,"endTime":158.91306466666666,"instrument":1,"program":12},{"pitch":69,"velocity":95,"startTime":158.9674125,"endTime":159.02176033333333,"instrument":1,"program":12},{"pitch":69,"velocity":95,"startTime":159.13045599999998,"endTime":159.2934995,"instrument":1,"program":12},{"pitch":74,"velocity":95,"startTime":159.2934995,"endTime":159.40219516666664,"instrument":1,"program":12},{"pitch":69,"velocity":95,"startTime":159.45654299999998,"endTime":159.56523866666666,"instrument":1,"program":12},{"pitch":74,"velocity":95,"startTime":159.6195865,"endTime":159.72828216666665,"instrument":1,"program":12},{"pitch":69,"velocity":95,"startTime":159.78262999999998,"endTime":159.89132566666666,"instrument":1,"program":12},{"pitch":69,"velocity":95,"startTime":159.9456735,"endTime":160.05436916666665,"instrument":1,"program":12},{"pitch":74,"velocity":95,"startTime":160.10871699999998,"endTime":160.21741266666666,"instrument":1,"program":12},{"pitch":69,"velocity":95,"startTime":160.2717605,"endTime":160.3261083333333,"instrument":1,"program":12},{"pitch":74,"velocity":95,"startTime":160.43480399999999,"endTime":160.54349966666666,"instrument":1,"program":12},{"pitch":69,"velocity":95,"startTime":160.5978475,"endTime":160.70654316666665,"instrument":1,"program":12},{"pitch":74,"velocity":95,"startTime":160.760891,"endTime":160.86958666666666,"instrument":1,"program":12},{"pitch":74,"velocity":95,"startTime":160.9239345,"endTime":161.03263016666665,"instrument":1,"program":12},{"pitch":74,"velocity":95,"startTime":161.086978,"endTime":161.19567366666666,"instrument":1,"program":12},{"pitch":69,"velocity":95,"startTime":161.25002149999997,"endTime":161.35871716666665,"instrument":1,"program":12},{"pitch":74,"velocity":95,"startTime":161.413065,"endTime":161.46741283333333,"instrument":1,"program":12},{"pitch":69,"velocity":95,"startTime":161.57610849999998,"endTime":161.6304563333333,"instrument":1,"program":12},{"pitch":69,"velocity":95,"startTime":161.739152,"endTime":161.90219549999998,"instrument":1,"program":12},{"pitch":69,"velocity":95,"startTime":164.347848,"endTime":164.51089149999999,"instrument":1,"program":12},{"pitch":72,"velocity":95,"startTime":164.51089149999999,"endTime":164.61958716666666,"instrument":1,"program":12},{"pitch":78,"velocity":95,"startTime":164.673935,"endTime":164.78263066666665,"instrument":1,"program":12},{"pitch":78,"velocity":95,"startTime":164.8369785,"endTime":164.89132633333332,"instrument":1,"program":12},{"pitch":84,"velocity":95,"startTime":165.000022,"endTime":165.10871766666665,"instrument":1,"program":12},{"pitch":78,"velocity":95,"startTime":165.1630655,"endTime":165.27176116666666,"instrument":1,"program":12},{"pitch":72,"velocity":95,"startTime":165.32610899999997,"endTime":165.3804568333333,"instrument":1,"program":12},{"pitch":69,"velocity":95,"startTime":165.4891525,"endTime":165.54350033333333,"instrument":1,"program":12},{"pitch":74,"velocity":95,"startTime":165.65219599999998,"endTime":165.8152395,"instrument":1,"program":12},{"pitch":74,"velocity":95,"startTime":165.8152395,"endTime":165.92393516666667,"instrument":1,"program":12},{"pitch":67,"velocity":95,"startTime":165.97828299999998,"endTime":166.08697866666665,"instrument":1,"program":12},{"pitch":74,"velocity":95,"startTime":166.1413265,"endTime":166.19567433333333,"instrument":1,"program":12},{"pitch":74,"velocity":95,"startTime":166.30436999999998,"endTime":166.41306566666665,"instrument":1,"program":12},{"pitch":67,"velocity":95,"startTime":166.4674135,"endTime":166.57610916666664,"instrument":1,"program":12},{"pitch":74,"velocity":95,"startTime":166.63045699999998,"endTime":166.73915266666666,"instrument":1,"program":12},{"pitch":67,"velocity":95,"startTime":166.7935005,"endTime":166.90219616666664,"instrument":1,"program":12},{"pitch":39,"velocity":110,"startTime":146.086976,"endTime":146.413063,"instrument":2,"program":32},{"pitch":39,"velocity":110,"startTime":146.57610649999998,"endTime":146.73915,"instrument":2,"program":32},{"pitch":39,"velocity":110,"startTime":146.90219349999998,"endTime":147.065237,"instrument":2,"program":32},{"pitch":34,"velocity":110,"startTime":147.065237,"endTime":147.28262833333332,"instrument":2,"program":32},{"pitch":39,"velocity":110,"startTime":147.391324,"endTime":147.55436749999998,"instrument":2,"program":32},{"pitch":39,"velocity":110,"startTime":147.717411,"endTime":147.88045449999998,"instrument":2,"program":32},{"pitch":34,"velocity":110,"startTime":148.043498,"endTime":148.2065415,"instrument":2,"program":32},{"pitch":39,"velocity":110,"startTime":148.369585,"endTime":148.5326285,"instrument":2,"program":32},{"pitch":36,"velocity":110,"startTime":148.695672,"endTime":149.021759,"instrument":2,"program":32},{"pitch":43,"velocity":110,"startTime":149.1848025,"endTime":149.34784599999998,"instrument":2,"program":32},{"pitch":48,"velocity":110,"startTime":149.5108895,"endTime":149.67393299999998,"instrument":2,"program":32},{"pitch":43,"velocity":110,"startTime":149.67393299999998,"endTime":149.89132433333333,"instrument":2,"program":32},{"pitch":36,"velocity":110,"startTime":150.00001999999998,"endTime":150.1630635,"instrument":2,"program":32},{"pitch":36,"velocity":110,"startTime":150.32610699999998,"endTime":150.4891505,"instrument":2,"program":32},{"pitch":31,"velocity":110,"startTime":150.65219399999998,"endTime":150.8152375,"instrument":2,"program":32},{"pitch":36,"velocity":110,"startTime":150.97828099999998,"endTime":151.1413245,"instrument":2,"program":32},{"pitch":43,"velocity":110,"startTime":151.30436799999998,"endTime":151.63045499999998,"instrument":2,"program":32},{"pitch":43,"velocity":110,"startTime":151.7934985,"endTime":151.95654199999998,"instrument":2,"program":32},{"pitch":43,"velocity":110,"startTime":152.1195855,"endTime":152.282629,"instrument":2,"program":32},{"pitch":38,"velocity":110,"startTime":152.282629,"endTime":152.5000203333333,"instrument":2,"program":32},{"pitch":46,"velocity":110,"startTime":152.608716,"endTime":152.7717595,"instrument":2,"program":32},{"pitch":38,"velocity":110,"startTime":152.934803,"endTime":153.09784649999997,"instrument":2,"program":32},{"pitch":31,"velocity":110,"startTime":153.26089,"endTime":153.42393349999998,"instrument":2,"program":32},{"pitch":43,"velocity":110,"startTime":153.586977,"endTime":153.80436833333331,"instrument":2,"program":32},{"pitch":31,"velocity":110,"startTime":153.913064,"endTime":154.239151,"instrument":2,"program":32},{"pitch":31,"velocity":110,"startTime":154.40219449999998,"endTime":154.565238,"instrument":2,"program":32},{"pitch":31,"velocity":110,"startTime":154.72828149999998,"endTime":154.891325,"instrument":2,"program":32},{"pitch":36,"velocity":110,"startTime":154.891325,"endTime":155.10871633333332,"instrument":2,"program":32},{"pitch":34,"velocity":110,"startTime":155.217412,"endTime":155.38045549999998,"instrument":2,"program":32},{"pitch":31,"velocity":110,"startTime":155.543499,"endTime":155.76089033333332,"instrument":2,"program":32},{"pitch":31,"velocity":110,"startTime":155.869586,"endTime":156.03262949999998,"instrument":2,"program":32},{"pitch":38,"velocity":110,"startTime":156.195673,"endTime":156.41306433333332,"instrument":2,"program":32},{"pitch":38,"velocity":110,"startTime":156.52176,"endTime":156.847847,"instrument":2,"program":32},{"pitch":38,"velocity":110,"startTime":157.0108905,"endTime":157.17393399999997,"instrument":2,"program":32},{"pitch":38,"velocity":110,"startTime":157.3369775,"endTime":157.50002099999998,"instrument":2,"program":32},{"pitch":38,"velocity":110,"startTime":157.50002099999998,"endTime":157.71741233333333,"instrument":2,"program":32},{"pitch":38,"velocity":110,"startTime":157.82610799999998,"endTime":157.9891515,"instrument":2,"program":32},{"pitch":38,"velocity":110,"startTime":158.15219499999998,"endTime":158.36958633333333,"instrument":2,"program":32},{"pitch":42,"velocity":110,"startTime":158.47828199999998,"endTime":158.6413255,"instrument":2,"program":32},{"pitch":45,"velocity":110,"startTime":158.6413255,"endTime":158.80436899999998,"instrument":2,"program":32},{"pitch":38,"velocity":110,"startTime":158.80436899999998,"endTime":159.02176033333333,"instrument":2,"program":32},{"pitch":38,"velocity":110,"startTime":159.13045599999998,"endTime":159.45654299999998,"instrument":2,"program":32},{"pitch":33,"velocity":110,"startTime":159.6195865,"endTime":159.78262999999998,"instrument":2,"program":32},{"pitch":33,"velocity":110,"startTime":159.9456735,"endTime":160.10871699999998,"instrument":2,"program":32},{"pitch":38,"velocity":110,"startTime":160.43480399999999,"endTime":161.25002149999997,"instrument":2,"program":32},{"pitch":33,"velocity":110,"startTime":161.413065,"endTime":161.57610849999998,"instrument":2,"program":32},{"pitch":40,"velocity":110,"startTime":161.57610849999998,"endTime":161.739152,"instrument":2,"program":32},{"pitch":43,"velocity":110,"startTime":161.739152,"endTime":161.90219549999998,"instrument":2,"program":32},{"pitch":43,"velocity":110,"startTime":162.065239,"endTime":162.22828249999998,"instrument":2,"program":32},{"pitch":38,"velocity":110,"startTime":162.391326,"endTime":162.60871733333332,"instrument":2,"program":32},{"pitch":43,"velocity":110,"startTime":162.717413,"endTime":162.88045649999998,"instrument":2,"program":32},{"pitch":38,"velocity":110,"startTime":163.0435,"endTime":163.20654349999998,"instrument":2,"program":32},{"pitch":43,"velocity":110,"startTime":163.369587,"endTime":163.53263049999998,"instrument":2,"program":32},{"pitch":38,"velocity":110,"startTime":163.695674,"endTime":163.85871749999998,"instrument":2,"program":32},{"pitch":38,"velocity":110,"startTime":164.021761,"endTime":164.18480449999998,"instrument":2,"program":32},{"pitch":38,"velocity":110,"startTime":164.347848,"endTime":164.51089149999999,"instrument":2,"program":32},{"pitch":38,"velocity":110,"startTime":164.673935,"endTime":164.8369785,"instrument":2,"program":32},{"pitch":38,"velocity":110,"startTime":165.000022,"endTime":165.1630655,"instrument":2,"program":32},{"pitch":33,"velocity":110,"startTime":165.32610899999997,"endTime":165.4891525,"instrument":2,"program":32},{"pitch":31,"velocity":110,"startTime":165.65219599999998,"endTime":165.8152395,"instrument":2,"program":32},{"pitch":31,"velocity":110,"startTime":165.97828299999998,"endTime":166.1413265,"instrument":2,"program":32},{"pitch":31,"velocity":110,"startTime":166.30436999999998,"endTime":166.4674135,"instrument":2,"program":32},{"pitch":36,"velocity":110,"startTime":166.63045699999998,"endTime":166.7935005,"instrument":2,"program":32},{"pitch":58,"velocity":105,"startTime":146.413063,"endTime":148.64132416666666,"instrument":3,"program":50},{"pitch":60,"velocity":105,"startTime":146.413063,"endTime":148.58697633333333,"instrument":3,"program":50},{"pitch":63,"velocity":105,"startTime":146.413063,"endTime":148.58697633333333,"instrument":3,"program":50},{"pitch":67,"velocity":105,"startTime":146.413063,"endTime":148.64132416666666,"instrument":3,"program":50},{"pitch":67,"velocity":105,"startTime":147.065237,"endTime":148.58697633333333,"instrument":3,"program":50},{"pitch":72,"velocity":105,"startTime":147.391324,"endTime":148.58697633333333,"instrument":3,"program":50},{"pitch":75,"velocity":105,"startTime":148.043498,"endTime":148.31523716666666,"instrument":3,"program":50},{"pitch":58,"velocity":105,"startTime":148.369585,"endTime":148.58697633333333,"instrument":3,"program":50},{"pitch":60,"velocity":105,"startTime":148.695672,"endTime":151.30436799999998,"instrument":3,"program":50},{"pitch":63,"velocity":105,"startTime":148.695672,"endTime":151.30436799999998,"instrument":3,"program":50},{"pitch":67,"velocity":105,"startTime":148.695672,"endTime":151.30436799999998,"instrument":3,"program":50},{"pitch":58,"velocity":105,"startTime":151.30436799999998,"endTime":153.913064,"instrument":3,"program":50},{"pitch":63,"velocity":105,"startTime":151.30436799999998,"endTime":153.913064,"instrument":3,"program":50},{"pitch":67,"velocity":105,"startTime":151.30436799999998,"endTime":153.913064,"instrument":3,"program":50},{"pitch":74,"velocity":105,"startTime":151.30436799999998,"endTime":153.913064,"instrument":3,"program":50},{"pitch":58,"velocity":105,"startTime":153.913064,"endTime":156.52176,"instrument":3,"program":50},{"pitch":62,"velocity":105,"startTime":153.913064,"endTime":156.52176,"instrument":3,"program":50},{"pitch":63,"velocity":105,"startTime":153.913064,"endTime":156.52176,"instrument":3,"program":50},{"pitch":67,"velocity":105,"startTime":153.913064,"endTime":156.52176,"instrument":3,"program":50},{"pitch":74,"velocity":105,"startTime":153.913064,"endTime":156.52176,"instrument":3,"program":50},{"pitch":60,"velocity":105,"startTime":156.52176,"endTime":159.13045599999998,"instrument":3,"program":50},{"pitch":66,"velocity":105,"startTime":156.52176,"endTime":159.13045599999998,"instrument":3,"program":50},{"pitch":69,"velocity":105,"startTime":156.52176,"endTime":159.13045599999998,"instrument":3,"program":50},{"pitch":74,"velocity":105,"startTime":156.52176,"endTime":159.13045599999998,"instrument":3,"program":50},{"pitch":62,"velocity":105,"startTime":159.13045599999998,"endTime":161.57610849999998,"instrument":3,"program":50},{"pitch":66,"velocity":105,"startTime":159.13045599999998,"endTime":161.57610849999998,"instrument":3,"program":50},{"pitch":70,"velocity":105,"startTime":159.13045599999998,"endTime":161.57610849999998,"instrument":3,"program":50},{"pitch":74,"velocity":105,"startTime":159.13045599999998,"endTime":161.57610849999998,"instrument":3,"program":50},{"pitch":62,"velocity":105,"startTime":161.739152,"endTime":164.347848,"instrument":3,"program":50},{"pitch":67,"velocity":105,"startTime":161.739152,"endTime":164.347848,"instrument":3,"program":50},{"pitch":70,"velocity":105,"startTime":161.739152,"endTime":164.347848,"instrument":3,"program":50},{"pitch":74,"velocity":105,"startTime":161.739152,"endTime":164.347848,"instrument":3,"program":50},{"pitch":60,"velocity":105,"startTime":164.347848,"endTime":165.000022,"instrument":3,"program":50},{"pitch":66,"velocity":105,"startTime":164.347848,"endTime":165.000022,"instrument":3,"program":50},{"pitch":69,"velocity":105,"startTime":164.347848,"endTime":165.000022,"instrument":3,"program":50},{"pitch":74,"velocity":105,"startTime":164.347848,"endTime":165.000022,"instrument":3,"program":50},{"pitch":60,"velocity":105,"startTime":165.000022,"endTime":165.32610899999997,"instrument":3,"program":50},{"pitch":62,"velocity":105,"startTime":165.32610899999997,"endTime":165.8152395,"instrument":3,"program":50},{"pitch":65,"velocity":105,"startTime":165.32610899999997,"endTime":165.8152395,"instrument":3,"program":50},{"pitch":70,"velocity":105,"startTime":165.32610899999997,"endTime":165.8152395,"instrument":3,"program":50},{"pitch":77,"velocity":105,"startTime":165.32610899999997,"endTime":165.7065438333333,"instrument":3,"program":50},{"pitch":58,"velocity":105,"startTime":165.8152395,"endTime":166.1413265,"instrument":3,"program":50},{"pitch":62,"velocity":105,"startTime":165.8152395,"endTime":166.1413265,"instrument":3,"program":50},{"pitch":65,"velocity":105,"startTime":165.8152395,"endTime":166.1413265,"instrument":3,"program":50},{"pitch":70,"velocity":105,"startTime":165.8152395,"endTime":166.1413265,"instrument":3,"program":50},{"pitch":62,"velocity":105,"startTime":166.30436999999998,"endTime":166.4674135,"instrument":3,"program":50},{"pitch":65,"velocity":105,"startTime":166.30436999999998,"endTime":166.4674135,"instrument":3,"program":50},{"pitch":67,"velocity":105,"startTime":166.30436999999998,"endTime":166.4674135,"instrument":3,"program":50},{"pitch":60,"velocity":105,"startTime":166.4674135,"endTime":166.63045699999998,"instrument":3,"program":50},{"pitch":56,"velocity":105,"startTime":166.63045699999998,"endTime":166.95654399999998,"instrument":3,"program":50},{"pitch":60,"velocity":105,"startTime":166.63045699999998,"endTime":166.95654399999998,"instrument":3,"program":50},{"pitch":63,"velocity":105,"startTime":166.63045699999998,"endTime":166.95654399999998,"instrument":3,"program":50},{"pitch":35,"velocity":102,"startTime":166.95654399999998,"endTime":167.1195875,"isDrum":true},{"pitch":42,"velocity":102,"startTime":166.95654399999998,"endTime":167.1195875,"isDrum":true},{"pitch":51,"velocity":102,"startTime":166.95654399999998,"endTime":167.1195875,"isDrum":true},{"pitch":42,"velocity":102,"startTime":167.28263099999998,"endTime":167.4456745,"isDrum":true},{"pitch":51,"velocity":102,"startTime":167.28263099999998,"endTime":167.4456745,"isDrum":true},{"pitch":38,"velocity":102,"startTime":167.60871799999998,"endTime":167.7717615,"isDrum":true},{"pitch":40,"velocity":102,"startTime":167.60871799999998,"endTime":167.7717615,"isDrum":true},{"pitch":42,"velocity":102,"startTime":167.60871799999998,"endTime":167.7717615,"isDrum":true},{"pitch":51,"velocity":102,"startTime":167.60871799999998,"endTime":167.7717615,"isDrum":true},{"pitch":42,"velocity":102,"startTime":167.93480499999998,"endTime":168.0978485,"isDrum":true},{"pitch":51,"velocity":102,"startTime":167.93480499999998,"endTime":168.0978485,"isDrum":true},{"pitch":35,"velocity":102,"startTime":168.26089199999998,"endTime":168.4239355,"isDrum":true},{"pitch":42,"velocity":102,"startTime":168.26089199999998,"endTime":168.4239355,"isDrum":true},{"pitch":51,"velocity":102,"startTime":168.26089199999998,"endTime":168.4239355,"isDrum":true},{"pitch":42,"velocity":102,"startTime":168.58697899999999,"endTime":168.7500225,"isDrum":true},{"pitch":51,"velocity":102,"startTime":168.58697899999999,"endTime":168.7500225,"isDrum":true},{"pitch":38,"velocity":102,"startTime":168.913066,"endTime":169.0761095,"isDrum":true},{"pitch":42,"velocity":102,"startTime":168.913066,"endTime":169.0761095,"isDrum":true},{"pitch":51,"velocity":102,"startTime":168.913066,"endTime":169.0761095,"isDrum":true},{"pitch":35,"velocity":102,"startTime":169.239153,"endTime":169.40219649999997,"isDrum":true},{"pitch":42,"velocity":102,"startTime":169.239153,"endTime":169.40219649999997,"isDrum":true},{"pitch":51,"velocity":102,"startTime":169.239153,"endTime":169.40219649999997,"isDrum":true},{"pitch":35,"velocity":102,"startTime":169.56524,"endTime":169.72828349999997,"isDrum":true},{"pitch":42,"velocity":102,"startTime":169.56524,"endTime":169.72828349999997,"isDrum":true},{"pitch":51,"velocity":102,"startTime":169.56524,"endTime":169.72828349999997,"isDrum":true},{"pitch":42,"velocity":102,"startTime":169.891327,"endTime":170.05437049999998,"isDrum":true},{"pitch":51,"velocity":102,"startTime":169.891327,"endTime":170.05437049999998,"isDrum":true},{"pitch":38,"velocity":102,"startTime":170.217414,"endTime":170.38045749999998,"isDrum":true},{"pitch":40,"velocity":102,"startTime":170.217414,"endTime":170.38045749999998,"isDrum":true},{"pitch":42,"velocity":102,"startTime":170.217414,"endTime":170.38045749999998,"isDrum":true},{"pitch":51,"velocity":102,"startTime":170.217414,"endTime":170.38045749999998,"isDrum":true},{"pitch":42,"velocity":102,"startTime":170.543501,"endTime":170.70654449999998,"isDrum":true},{"pitch":51,"velocity":102,"startTime":170.543501,"endTime":170.70654449999998,"isDrum":true},{"pitch":35,"velocity":102,"startTime":170.869588,"endTime":171.03263149999998,"isDrum":true},{"pitch":42,"velocity":102,"startTime":170.869588,"endTime":171.03263149999998,"isDrum":true},{"pitch":51,"velocity":102,"startTime":170.869588,"endTime":171.03263149999998,"isDrum":true},{"pitch":42,"velocity":102,"startTime":171.195675,"endTime":171.35871849999998,"isDrum":true},{"pitch":51,"velocity":102,"startTime":171.195675,"endTime":171.35871849999998,"isDrum":true},{"pitch":38,"velocity":102,"startTime":171.521762,"endTime":171.68480549999998,"isDrum":true},{"pitch":40,"velocity":102,"startTime":171.521762,"endTime":171.68480549999998,"isDrum":true},{"pitch":42,"velocity":102,"startTime":171.521762,"endTime":171.68480549999998,"isDrum":true},{"pitch":51,"velocity":102,"startTime":171.521762,"endTime":171.68480549999998,"isDrum":true},{"pitch":42,"velocity":102,"startTime":171.847849,"endTime":172.01089249999998,"isDrum":true},{"pitch":51,"velocity":102,"startTime":171.847849,"endTime":172.01089249999998,"isDrum":true},{"pitch":35,"velocity":102,"startTime":172.173936,"endTime":172.33697949999998,"isDrum":true},{"pitch":42,"velocity":102,"startTime":172.173936,"endTime":172.33697949999998,"isDrum":true},{"pitch":51,"velocity":102,"startTime":172.173936,"endTime":172.33697949999998,"isDrum":true},{"pitch":42,"velocity":102,"startTime":172.500023,"endTime":172.66306649999999,"isDrum":true},{"pitch":51,"velocity":102,"startTime":172.500023,"endTime":172.66306649999999,"isDrum":true},{"pitch":38,"velocity":102,"startTime":172.82611,"endTime":172.9891535,"isDrum":true},{"pitch":40,"velocity":102,"startTime":172.82611,"endTime":172.9891535,"isDrum":true},{"pitch":42,"velocity":102,"startTime":172.82611,"endTime":172.9891535,"isDrum":true},{"pitch":51,"velocity":102,"startTime":172.82611,"endTime":172.9891535,"isDrum":true},{"pitch":42,"velocity":102,"startTime":173.152197,"endTime":173.3152405,"isDrum":true},{"pitch":51,"velocity":102,"startTime":173.152197,"endTime":173.3152405,"isDrum":true},{"pitch":35,"velocity":102,"startTime":173.47828399999997,"endTime":173.6413275,"isDrum":true},{"pitch":42,"velocity":102,"startTime":173.47828399999997,"endTime":173.6413275,"isDrum":true},{"pitch":51,"velocity":102,"startTime":173.47828399999997,"endTime":173.6413275,"isDrum":true},{"pitch":42,"velocity":102,"startTime":173.80437099999997,"endTime":173.9674145,"isDrum":true},{"pitch":51,"velocity":102,"startTime":173.80437099999997,"endTime":173.9674145,"isDrum":true},{"pitch":38,"velocity":102,"startTime":174.13045799999998,"endTime":174.2935015,"isDrum":true},{"pitch":40,"velocity":102,"startTime":174.13045799999998,"endTime":174.2935015,"isDrum":true},{"pitch":42,"velocity":102,"startTime":174.13045799999998,"endTime":174.2935015,"isDrum":true},{"pitch":51,"velocity":102,"startTime":174.13045799999998,"endTime":174.2935015,"isDrum":true},{"pitch":42,"velocity":102,"startTime":174.45654499999998,"endTime":174.6195885,"isDrum":true},{"pitch":51,"velocity":102,"startTime":174.45654499999998,"endTime":174.6195885,"isDrum":true},{"pitch":35,"velocity":102,"startTime":174.78263199999998,"endTime":174.9456755,"isDrum":true},{"pitch":42,"velocity":102,"startTime":174.78263199999998,"endTime":174.9456755,"isDrum":true},{"pitch":51,"velocity":102,"startTime":174.78263199999998,"endTime":174.9456755,"isDrum":true},{"pitch":42,"velocity":102,"startTime":175.10871899999998,"endTime":175.2717625,"isDrum":true},{"pitch":51,"velocity":102,"startTime":175.10871899999998,"endTime":175.2717625,"isDrum":true},{"pitch":38,"velocity":102,"startTime":175.43480599999998,"endTime":175.5978495,"isDrum":true},{"pitch":40,"velocity":102,"startTime":175.43480599999998,"endTime":175.5978495,"isDrum":true},{"pitch":42,"velocity":102,"startTime":175.43480599999998,"endTime":175.5978495,"isDrum":true},{"pitch":51,"velocity":102,"startTime":175.43480599999998,"endTime":175.5978495,"isDrum":true},{"pitch":42,"velocity":102,"startTime":175.76089299999998,"endTime":175.9239365,"isDrum":true},{"pitch":51,"velocity":102,"startTime":175.76089299999998,"endTime":175.9239365,"isDrum":true},{"pitch":35,"velocity":102,"startTime":176.08697999999998,"endTime":176.2500235,"isDrum":true},{"pitch":42,"velocity":102,"startTime":176.08697999999998,"endTime":176.2500235,"isDrum":true},{"pitch":51,"velocity":102,"startTime":176.08697999999998,"endTime":176.2500235,"isDrum":true},{"pitch":42,"velocity":102,"startTime":176.41306699999998,"endTime":176.5761105,"isDrum":true},{"pitch":51,"velocity":102,"startTime":176.41306699999998,"endTime":176.5761105,"isDrum":true},{"pitch":38,"velocity":102,"startTime":176.73915399999998,"endTime":176.9021975,"isDrum":true},{"pitch":40,"velocity":102,"startTime":176.73915399999998,"endTime":176.9021975,"isDrum":true},{"pitch":42,"velocity":102,"startTime":176.73915399999998,"endTime":176.9021975,"isDrum":true},{"pitch":51,"velocity":102,"startTime":176.73915399999998,"endTime":176.9021975,"isDrum":true},{"pitch":42,"velocity":102,"startTime":177.065241,"endTime":177.22828449999997,"isDrum":true},{"pitch":51,"velocity":102,"startTime":177.065241,"endTime":177.22828449999997,"isDrum":true},{"pitch":35,"velocity":102,"startTime":177.391328,"endTime":177.55437149999997,"isDrum":true},{"pitch":42,"velocity":102,"startTime":177.391328,"endTime":177.55437149999997,"isDrum":true},{"pitch":51,"velocity":102,"startTime":177.391328,"endTime":177.55437149999997,"isDrum":true},{"pitch":42,"velocity":102,"startTime":177.717415,"endTime":177.88045849999997,"isDrum":true},{"pitch":51,"velocity":102,"startTime":177.717415,"endTime":177.88045849999997,"isDrum":true},{"pitch":38,"velocity":102,"startTime":178.043502,"endTime":178.20654549999998,"isDrum":true},{"pitch":40,"velocity":102,"startTime":178.043502,"endTime":178.20654549999998,"isDrum":true},{"pitch":42,"velocity":102,"startTime":178.043502,"endTime":178.20654549999998,"isDrum":true},{"pitch":51,"velocity":102,"startTime":178.043502,"endTime":178.20654549999998,"isDrum":true},{"pitch":42,"velocity":102,"startTime":178.369589,"endTime":178.53263249999998,"isDrum":true},{"pitch":51,"velocity":102,"startTime":178.369589,"endTime":178.53263249999998,"isDrum":true},{"pitch":35,"velocity":102,"startTime":178.695676,"endTime":178.85871949999998,"isDrum":true},{"pitch":42,"velocity":102,"startTime":178.695676,"endTime":178.85871949999998,"isDrum":true},{"pitch":51,"velocity":102,"startTime":178.695676,"endTime":178.85871949999998,"isDrum":true},{"pitch":42,"velocity":102,"startTime":179.021763,"endTime":179.18480649999998,"isDrum":true},{"pitch":51,"velocity":102,"startTime":179.021763,"endTime":179.18480649999998,"isDrum":true},{"pitch":38,"velocity":102,"startTime":179.34785,"endTime":179.51089349999998,"isDrum":true},{"pitch":42,"velocity":102,"startTime":179.34785,"endTime":179.51089349999998,"isDrum":true},{"pitch":51,"velocity":102,"startTime":179.34785,"endTime":179.51089349999998,"isDrum":true},{"pitch":35,"velocity":102,"startTime":179.673937,"endTime":179.83698049999998,"isDrum":true},{"pitch":42,"velocity":102,"startTime":179.673937,"endTime":179.83698049999998,"isDrum":true},{"pitch":51,"velocity":102,"startTime":179.673937,"endTime":179.83698049999998,"isDrum":true},{"pitch":35,"velocity":102,"startTime":180.000024,"endTime":180.16306749999998,"isDrum":true},{"pitch":42,"velocity":102,"startTime":180.000024,"endTime":180.16306749999998,"isDrum":true},{"pitch":51,"velocity":102,"startTime":180.000024,"endTime":180.16306749999998,"isDrum":true},{"pitch":42,"velocity":102,"startTime":180.326111,"endTime":180.48915449999998,"isDrum":true},{"pitch":51,"velocity":102,"startTime":180.326111,"endTime":180.48915449999998,"isDrum":true},{"pitch":38,"velocity":102,"startTime":180.652198,"endTime":180.81524149999998,"isDrum":true},{"pitch":40,"velocity":102,"startTime":180.652198,"endTime":180.81524149999998,"isDrum":true},{"pitch":42,"velocity":102,"startTime":180.652198,"endTime":180.81524149999998,"isDrum":true},{"pitch":51,"velocity":102,"startTime":180.652198,"endTime":180.81524149999998,"isDrum":true},{"pitch":42,"velocity":102,"startTime":180.978285,"endTime":181.1413285,"isDrum":true},{"pitch":51,"velocity":102,"startTime":180.978285,"endTime":181.1413285,"isDrum":true},{"pitch":35,"velocity":102,"startTime":181.30437199999997,"endTime":181.4674155,"isDrum":true},{"pitch":42,"velocity":102,"startTime":181.30437199999997,"endTime":181.4674155,"isDrum":true},{"pitch":51,"velocity":102,"startTime":181.30437199999997,"endTime":181.4674155,"isDrum":true},{"pitch":42,"velocity":102,"startTime":181.63045899999997,"endTime":181.7935025,"isDrum":true},{"pitch":51,"velocity":102,"startTime":181.63045899999997,"endTime":181.7935025,"isDrum":true},{"pitch":38,"velocity":102,"startTime":181.95654599999997,"endTime":182.1195895,"isDrum":true},{"pitch":40,"velocity":102,"startTime":181.95654599999997,"endTime":182.1195895,"isDrum":true},{"pitch":42,"velocity":102,"startTime":181.95654599999997,"endTime":182.1195895,"isDrum":true},{"pitch":51,"velocity":102,"startTime":181.95654599999997,"endTime":182.1195895,"isDrum":true},{"pitch":42,"velocity":102,"startTime":182.28263299999998,"endTime":182.4456765,"isDrum":true},{"pitch":51,"velocity":102,"startTime":182.28263299999998,"endTime":182.4456765,"isDrum":true},{"pitch":35,"velocity":102,"startTime":182.60871999999998,"endTime":182.7717635,"isDrum":true},{"pitch":42,"velocity":102,"startTime":182.60871999999998,"endTime":182.7717635,"isDrum":true},{"pitch":48,"velocity":102,"startTime":182.60871999999998,"endTime":182.7717635,"isDrum":true},{"pitch":42,"velocity":102,"startTime":182.93480699999998,"endTime":183.0978505,"isDrum":true},{"pitch":51,"velocity":102,"startTime":182.93480699999998,"endTime":183.0978505,"isDrum":true},{"pitch":40,"velocity":102,"startTime":183.26089399999998,"endTime":183.4239375,"isDrum":true},{"pitch":42,"velocity":102,"startTime":183.26089399999998,"endTime":183.4239375,"isDrum":true},{"pitch":51,"velocity":102,"startTime":183.26089399999998,"endTime":183.4239375,"isDrum":true},{"pitch":42,"velocity":102,"startTime":183.58698099999998,"endTime":183.7500245,"isDrum":true},{"pitch":51,"velocity":102,"startTime":183.58698099999998,"endTime":183.7500245,"isDrum":true},{"pitch":35,"velocity":102,"startTime":183.91306799999998,"endTime":184.0761115,"isDrum":true},{"pitch":42,"velocity":102,"startTime":183.91306799999998,"endTime":184.0761115,"isDrum":true},{"pitch":51,"velocity":102,"startTime":183.91306799999998,"endTime":184.0761115,"isDrum":true},{"pitch":42,"velocity":102,"startTime":184.23915499999998,"endTime":184.4021985,"isDrum":true},{"pitch":51,"velocity":102,"startTime":184.23915499999998,"endTime":184.4021985,"isDrum":true},{"pitch":38,"velocity":102,"startTime":184.56524199999998,"endTime":184.7282855,"isDrum":true},{"pitch":40,"velocity":102,"startTime":184.56524199999998,"endTime":184.7282855,"isDrum":true},{"pitch":42,"velocity":102,"startTime":184.56524199999998,"endTime":184.7282855,"isDrum":true},{"pitch":51,"velocity":102,"startTime":184.56524199999998,"endTime":184.7282855,"isDrum":true},{"pitch":42,"velocity":102,"startTime":184.89132899999998,"endTime":185.0543725,"isDrum":true},{"pitch":51,"velocity":102,"startTime":184.89132899999998,"endTime":185.0543725,"isDrum":true},{"pitch":35,"velocity":102,"startTime":185.217416,"endTime":185.38045949999997,"isDrum":true},{"pitch":42,"velocity":102,"startTime":185.217416,"endTime":185.38045949999997,"isDrum":true},{"pitch":51,"velocity":102,"startTime":185.217416,"endTime":185.38045949999997,"isDrum":true},{"pitch":42,"velocity":102,"startTime":185.543503,"endTime":185.70654649999997,"isDrum":true},{"pitch":51,"velocity":102,"startTime":185.543503,"endTime":185.70654649999997,"isDrum":true},{"pitch":38,"velocity":102,"startTime":185.86959,"endTime":186.03263349999997,"isDrum":true},{"pitch":40,"velocity":102,"startTime":185.86959,"endTime":186.03263349999997,"isDrum":true},{"pitch":42,"velocity":102,"startTime":185.86959,"endTime":186.03263349999997,"isDrum":true},{"pitch":51,"velocity":102,"startTime":185.86959,"endTime":186.03263349999997,"isDrum":true},{"pitch":42,"velocity":102,"startTime":186.195677,"endTime":186.35872049999998,"isDrum":true},{"pitch":51,"velocity":102,"startTime":186.195677,"endTime":186.35872049999998,"isDrum":true},{"pitch":35,"velocity":102,"startTime":186.521764,"endTime":186.68480749999998,"isDrum":true},{"pitch":42,"velocity":102,"startTime":186.521764,"endTime":186.68480749999998,"isDrum":true},{"pitch":51,"velocity":102,"startTime":186.521764,"endTime":186.68480749999998,"isDrum":true},{"pitch":42,"velocity":102,"startTime":186.847851,"endTime":187.01089449999998,"isDrum":true},{"pitch":51,"velocity":102,"startTime":186.847851,"endTime":187.01089449999998,"isDrum":true},{"pitch":38,"velocity":102,"startTime":187.173938,"endTime":187.33698149999998,"isDrum":true},{"pitch":40,"velocity":102,"startTime":187.173938,"endTime":187.33698149999998,"isDrum":true},{"pitch":42,"velocity":102,"startTime":187.173938,"endTime":187.33698149999998,"isDrum":true},{"pitch":51,"velocity":102,"startTime":187.173938,"endTime":187.33698149999998,"isDrum":true},{"pitch":42,"velocity":102,"startTime":187.500025,"endTime":187.66306849999998,"isDrum":true},{"pitch":51,"velocity":102,"startTime":187.500025,"endTime":187.66306849999998,"isDrum":true},{"pitch":61,"velocity":95,"startTime":166.95654399999998,"endTime":167.06523966666668,"instrument":1,"program":12},{"pitch":69,"velocity":95,"startTime":167.1195875,"endTime":167.22828316666667,"instrument":1,"program":12},{"pitch":67,"velocity":95,"startTime":167.28263099999998,"endTime":167.39132666666669,"instrument":1,"program":12},{"pitch":73,"velocity":95,"startTime":167.4456745,"endTime":167.55437016666667,"instrument":1,"program":12},{"pitch":69,"velocity":95,"startTime":167.60871799999998,"endTime":167.7174136666667,"instrument":1,"program":12},{"pitch":69,"velocity":95,"startTime":167.7717615,"endTime":167.8261093333333,"instrument":1,"program":12},{"pitch":73,"velocity":95,"startTime":167.93480499999998,"endTime":168.0435006666667,"instrument":1,"program":12},{"pitch":69,"velocity":95,"startTime":168.0978485,"endTime":168.20654416666667,"instrument":1,"program":12},{"pitch":61,"velocity":95,"startTime":168.26089199999998,"endTime":168.36958766666666,"instrument":1,"program":12},{"pitch":67,"velocity":95,"startTime":168.4239355,"endTime":168.53263116666668,"instrument":1,"program":12},{"pitch":69,"velocity":95,"startTime":168.58697899999999,"endTime":168.69567466666666,"instrument":1,"program":12},{"pitch":73,"velocity":95,"startTime":168.7500225,"endTime":168.85871816666668,"instrument":1,"program":12},{"pitch":67,"velocity":95,"startTime":168.913066,"endTime":169.02176166666666,"instrument":1,"program":12},{"pitch":69,"velocity":95,"startTime":169.0761095,"endTime":169.18480516666668,"instrument":1,"program":12},{"pitch":67,"velocity":95,"startTime":169.239153,"endTime":169.34784866666666,"instrument":1,"program":12},{"pitch":70,"velocity":95,"startTime":169.40219649999997,"endTime":169.51089216666668,"instrument":1,"program":12},{"pitch":67,"velocity":95,"startTime":169.56524,"endTime":169.67393566666667,"instrument":1,"program":12},{"pitch":67,"velocity":95,"startTime":169.72828349999997,"endTime":169.83697916666668,"instrument":1,"program":12},{"pitch":69,"velocity":95,"startTime":169.891327,"endTime":170.00002266666667,"instrument":1,"program":12},{"pitch":67,"velocity":95,"startTime":170.05437049999998,"endTime":170.16306616666668,"instrument":1,"program":12},{"pitch":69,"velocity":95,"startTime":170.217414,"endTime":170.32610966666667,"instrument":1,"program":12},{"pitch":69,"velocity":95,"startTime":170.38045749999998,"endTime":170.48915316666668,"instrument":1,"program":12},{"pitch":67,"velocity":95,"startTime":170.543501,"endTime":170.65219666666667,"instrument":1,"program":12},{"pitch":67,"velocity":95,"startTime":170.70654449999998,"endTime":170.81524016666668,"instrument":1,"program":12},{"pitch":69,"velocity":95,"startTime":170.869588,"endTime":170.97828366666667,"instrument":1,"program":12},{"pitch":69,"velocity":95,"startTime":171.03263149999998,"endTime":171.14132716666668,"instrument":1,"program":12},{"pitch":67,"velocity":95,"startTime":171.195675,"endTime":171.30437066666667,"instrument":1,"program":12},{"pitch":69,"velocity":95,"startTime":171.35871849999998,"endTime":171.46741416666669,"instrument":1,"program":12},{"pitch":69,"velocity":95,"startTime":171.521762,"endTime":171.63045766666667,"instrument":1,"program":12},{"pitch":67,"velocity":95,"startTime":171.68480549999998,"endTime":171.7935011666667,"instrument":1,"program":12},{"pitch":67,"velocity":95,"startTime":171.847849,"endTime":171.95654466666667,"instrument":1,"program":12},{"pitch":69,"velocity":95,"startTime":172.01089249999998,"endTime":172.11958816666666,"instrument":1,"program":12},{"pitch":62,"velocity":95,"startTime":172.173936,"endTime":172.28263166666667,"instrument":1,"program":12},{"pitch":65,"velocity":95,"startTime":172.33697949999998,"endTime":172.44567516666666,"instrument":1,"program":12},{"pitch":67,"velocity":95,"startTime":172.500023,"endTime":172.60871866666668,"instrument":1,"program":12},{"pitch":65,"velocity":95,"startTime":172.66306649999999,"endTime":172.77176216666666,"instrument":1,"program":12},{"pitch":74,"velocity":95,"startTime":172.82611,"endTime":172.93480566666668,"instrument":1,"program":12},{"pitch":67,"velocity":95,"startTime":172.9891535,"endTime":173.09784916666666,"instrument":1,"program":12},{"pitch":65,"velocity":95,"startTime":173.152197,"endTime":173.26089266666668,"instrument":1,"program":12},{"pitch":74,"velocity":95,"startTime":173.3152405,"endTime":173.42393616666666,"instrument":1,"program":12},{"pitch":65,"velocity":95,"startTime":173.47828399999997,"endTime":173.58697966666668,"instrument":1,"program":12},{"pitch":67,"velocity":95,"startTime":173.6413275,"endTime":173.75002316666667,"instrument":1,"program":12},{"pitch":70,"velocity":95,"startTime":173.80437099999997,"endTime":173.91306666666668,"instrument":1,"program":12},{"pitch":65,"velocity":95,"startTime":173.9674145,"endTime":174.07611016666667,"instrument":1,"program":12},{"pitch":74,"velocity":95,"startTime":174.13045799999998,"endTime":174.23915366666668,"instrument":1,"program":12},{"pitch":67,"velocity":95,"startTime":174.2935015,"endTime":174.3478493333333,"instrument":1,"program":12},{"pitch":65,"velocity":95,"startTime":174.45654499999998,"endTime":174.56524066666668,"instrument":1,"program":12},{"pitch":67,"velocity":95,"startTime":174.6195885,"endTime":174.72828416666667,"instrument":1,"program":12},{"pitch":62,"velocity":95,"startTime":174.78263199999998,"endTime":174.89132766666668,"instrument":1,"program":12},{"pitch":69,"velocity":95,"startTime":174.9456755,"endTime":175.05437116666667,"instrument":1,"program":12},{"pitch":69,"velocity":95,"startTime":175.10871899999998,"endTime":175.21741466666668,"instrument":1,"program":12},{"pitch":69,"velocity":95,"startTime":175.2717625,"endTime":175.38045816666667,"instrument":1,"program":12},{"pitch":74,"velocity":95,"startTime":175.43480599999998,"endTime":175.54350166666669,"instrument":1,"program":12},{"pitch":69,"velocity":95,"startTime":175.5978495,"endTime":175.70654516666667,"instrument":1,"program":12},{"pitch":69,"velocity":95,"startTime":175.76089299999998,"endTime":175.8695886666667,"instrument":1,"program":12},{"pitch":69,"velocity":95,"startTime":175.9239365,"endTime":176.03263216666667,"instrument":1,"program":12},{"pitch":69,"velocity":95,"startTime":176.08697999999998,"endTime":176.19567566666666,"instrument":1,"program":12},{"pitch":69,"velocity":95,"startTime":176.2500235,"endTime":176.35871916666667,"instrument":1,"program":12},{"pitch":74,"velocity":95,"startTime":176.41306699999998,"endTime":176.52176266666666,"instrument":1,"program":12},{"pitch":69,"velocity":95,"startTime":176.5761105,"endTime":176.68480616666668,"instrument":1,"program":12},{"pitch":72,"velocity":95,"startTime":176.73915399999998,"endTime":176.84784966666666,"instrument":1,"program":12},{"pitch":69,"velocity":95,"startTime":176.9021975,"endTime":177.01089316666668,"instrument":1,"program":12},{"pitch":69,"velocity":95,"startTime":177.065241,"endTime":177.17393666666666,"instrument":1,"program":12},{"pitch":69,"velocity":95,"startTime":177.22828449999997,"endTime":177.2826323333333,"instrument":1,"program":12},{"pitch":67,"velocity":95,"startTime":177.391328,"endTime":177.50002366666666,"instrument":1,"program":12},{"pitch":69,"velocity":95,"startTime":177.55437149999997,"endTime":177.66306716666668,"instrument":1,"program":12},{"pitch":74,"velocity":95,"startTime":177.717415,"endTime":177.82611066666666,"instrument":1,"program":12},{"pitch":69,"velocity":95,"startTime":177.88045849999997,"endTime":177.98915416666668,"instrument":1,"program":12},{"pitch":69,"velocity":95,"startTime":178.043502,"endTime":178.15219766666667,"instrument":1,"program":12},{"pitch":74,"velocity":95,"startTime":178.20654549999998,"endTime":178.31524116666665,"instrument":1,"program":12},{"pitch":69,"velocity":95,"startTime":178.369589,"endTime":178.47828466666667,"instrument":1,"program":12},{"pitch":69,"velocity":95,"startTime":178.53263249999998,"endTime":178.64132816666665,"instrument":1,"program":12},{"pitch":74,"velocity":95,"startTime":178.695676,"endTime":178.80437166666664,"instrument":1,"program":12},{"pitch":69,"velocity":95,"startTime":178.85871949999998,"endTime":178.96741516666665,"instrument":1,"program":12},{"pitch":74,"velocity":95,"startTime":179.021763,"endTime":179.13045866666664,"instrument":1,"program":12},{"pitch":69,"velocity":95,"startTime":179.18480649999998,"endTime":179.29350216666666,"instrument":1,"program":12},{"pitch":67,"velocity":95,"startTime":179.34785,"endTime":179.45654566666664,"instrument":1,"program":12},{"pitch":69,"velocity":95,"startTime":179.51089349999998,"endTime":179.61958916666666,"instrument":1,"program":12},{"pitch":67,"velocity":95,"startTime":179.673937,"endTime":179.78263266666664,"instrument":1,"program":12},{"pitch":69,"velocity":95,"startTime":179.83698049999998,"endTime":179.94567616666666,"instrument":1,"program":12},{"pitch":66,"velocity":95,"startTime":180.000024,"endTime":180.10871966666664,"instrument":1,"program":12},{"pitch":69,"velocity":95,"startTime":180.16306749999998,"endTime":180.27176316666666,"instrument":1,"program":12},{"pitch":72,"velocity":95,"startTime":180.326111,"endTime":180.43480666666665,"instrument":1,"program":12},{"pitch":69,"velocity":95,"startTime":180.48915449999998,"endTime":180.59785016666666,"instrument":1,"program":12},{"pitch":72,"velocity":95,"startTime":180.652198,"endTime":180.76089366666665,"instrument":1,"program":12},{"pitch":69,"velocity":95,"startTime":180.81524149999998,"endTime":180.92393716666666,"instrument":1,"program":12},{"pitch":69,"velocity":95,"startTime":180.978285,"endTime":181.08698066666665,"instrument":1,"program":12},{"pitch":72,"velocity":95,"startTime":181.1413285,"endTime":181.25002416666666,"instrument":1,"program":12},{"pitch":72,"velocity":95,"startTime":181.30437199999997,"endTime":181.41306766666665,"instrument":1,"program":12},{"pitch":69,"velocity":95,"startTime":181.4674155,"endTime":181.57611116666666,"instrument":1,"program":12},{"pitch":72,"velocity":95,"startTime":181.63045899999997,"endTime":181.73915466666665,"instrument":1,"program":12},{"pitch":72,"velocity":95,"startTime":181.7935025,"endTime":181.95654599999997,"instrument":1,"program":12},{"pitch":69,"velocity":95,"startTime":181.95654599999997,"endTime":182.06524166666665,"instrument":1,"program":12},{"pitch":72,"velocity":95,"startTime":182.1195895,"endTime":182.22828516666667,"instrument":1,"program":12},{"pitch":69,"velocity":95,"startTime":182.28263299999998,"endTime":182.39132866666665,"instrument":1,"program":12},{"pitch":72,"velocity":95,"startTime":182.4456765,"endTime":182.55437216666667,"instrument":1,"program":12},{"pitch":67,"velocity":95,"startTime":182.60871999999998,"endTime":182.71741566666665,"instrument":1,"program":12},{"pitch":70,"velocity":95,"startTime":182.7717635,"endTime":182.88045916666664,"instrument":1,"program":12},{"pitch":65,"velocity":95,"startTime":182.93480699999998,"endTime":183.04350266666665,"instrument":1,"program":12},{"pitch":65,"velocity":95,"startTime":183.0978505,"endTime":183.20654616666664,"instrument":1,"program":12},{"pitch":70,"velocity":95,"startTime":183.26089399999998,"endTime":183.36958966666666,"instrument":1,"program":12},{"pitch":65,"velocity":95,"startTime":183.4239375,"endTime":183.53263316666664,"instrument":1,"program":12},{"pitch":65,"velocity":95,"startTime":183.58698099999998,"endTime":183.69567666666666,"instrument":1,"program":12},{"pitch":65,"velocity":95,"startTime":183.7500245,"endTime":183.85872016666664,"instrument":1,"program":12},{"pitch":70,"velocity":95,"startTime":183.91306799999998,"endTime":184.02176366666666,"instrument":1,"program":12},{"pitch":65,"velocity":95,"startTime":184.0761115,"endTime":184.18480716666664,"instrument":1,"program":12},{"pitch":70,"velocity":95,"startTime":184.23915499999998,"endTime":184.34785066666666,"instrument":1,"program":12},{"pitch":65,"velocity":95,"startTime":184.4021985,"endTime":184.51089416666665,"instrument":1,"program":12},{"pitch":70,"velocity":95,"startTime":184.56524199999998,"endTime":184.67393766666666,"instrument":1,"program":12},{"pitch":70,"velocity":95,"startTime":184.7282855,"endTime":184.83698116666665,"instrument":1,"program":12},{"pitch":65,"velocity":95,"startTime":184.89132899999998,"endTime":185.00002466666666,"instrument":1,"program":12},{"pitch":70,"velocity":95,"startTime":185.0543725,"endTime":185.16306816666665,"instrument":1,"program":12},{"pitch":62,"velocity":95,"startTime":185.217416,"endTime":185.32611166666666,"instrument":1,"program":12},{"pitch":65,"velocity":95,"startTime":185.38045949999997,"endTime":185.48915516666665,"instrument":1,"program":12},{"pitch":69,"velocity":95,"startTime":185.543503,"endTime":185.65219866666666,"instrument":1,"program":12},{"pitch":74,"velocity":95,"startTime":185.70654649999997,"endTime":185.81524216666665,"instrument":1,"program":12},{"pitch":77,"velocity":95,"startTime":185.86959,"endTime":185.97828566666666,"instrument":1,"program":12},{"pitch":65,"velocity":95,"startTime":186.03263349999997,"endTime":186.14132916666665,"instrument":1,"program":12},{"pitch":69,"velocity":95,"startTime":186.195677,"endTime":186.30437266666667,"instrument":1,"program":12},{"pitch":74,"velocity":95,"startTime":186.35872049999998,"endTime":186.46741616666665,"instrument":1,"program":12},{"pitch":65,"velocity":95,"startTime":186.521764,"endTime":186.63045966666664,"instrument":1,"program":12},{"pitch":69,"velocity":95,"startTime":186.68480749999998,"endTime":186.79350316666665,"instrument":1,"program":12},{"pitch":74,"velocity":95,"startTime":186.847851,"endTime":186.95654666666664,"instrument":1,"program":12},{"pitch":77,"velocity":95,"startTime":187.01089449999998,"endTime":187.11959016666665,"instrument":1,"program":12},{"pitch":74,"velocity":95,"startTime":187.173938,"endTime":187.28263366666664,"instrument":1,"program":12},{"pitch":74,"velocity":95,"startTime":187.33698149999998,"endTime":187.44567716666666,"instrument":1,"program":12},{"pitch":65,"velocity":95,"startTime":187.500025,"endTime":187.60872066666664,"instrument":1,"program":12},{"pitch":69,"velocity":95,"startTime":187.66306849999998,"endTime":187.77176416666666,"instrument":1,"program":12},{"pitch":43,"velocity":110,"startTime":166.95654399999998,"endTime":167.28263099999998,"instrument":2,"program":32},{"pitch":43,"velocity":110,"startTime":167.4456745,"endTime":167.60871799999998,"instrument":2,"program":32},{"pitch":31,"velocity":110,"startTime":167.7717615,"endTime":167.93480499999998,"instrument":2,"program":32},{"pitch":29,"velocity":110,"startTime":167.93480499999998,"endTime":168.0978485,"instrument":2,"program":32},{"pitch":34,"velocity":110,"startTime":168.26089199999998,"endTime":168.4239355,"instrument":2,"program":32},{"pitch":34,"velocity":110,"startTime":168.58697899999999,"endTime":168.7500225,"instrument":2,"program":32},{"pitch":29,"velocity":110,"startTime":168.913066,"endTime":169.0761095,"instrument":2,"program":32},{"pitch":46,"velocity":110,"startTime":169.239153,"endTime":169.40219649999997,"instrument":2,"program":32},{"pitch":43,"velocity":110,"startTime":169.56524,"endTime":169.891327,"instrument":2,"program":32},{"pitch":43,"velocity":110,"startTime":170.05437049999998,"endTime":170.217414,"instrument":2,"program":32},{"pitch":43,"velocity":110,"startTime":170.38045749999998,"endTime":170.48915316666668,"instrument":2,"program":32},{"pitch":38,"velocity":110,"startTime":170.543501,"endTime":170.70654449999998,"instrument":2,"program":32},{"pitch":38,"velocity":110,"startTime":170.869588,"endTime":171.195675,"instrument":2,"program":32},{"pitch":31,"velocity":110,"startTime":171.521762,"endTime":171.7935011666667,"instrument":2,"program":32},{"pitch":38,"velocity":110,"startTime":171.847849,"endTime":172.01089249999998,"instrument":2,"program":32},{"pitch":39,"velocity":110,"startTime":172.173936,"endTime":172.500023,"instrument":2,"program":32},{"pitch":27,"velocity":110,"startTime":172.66306649999999,"endTime":172.82611,"instrument":2,"program":32},{"pitch":27,"velocity":110,"startTime":172.9891535,"endTime":173.152197,"instrument":2,"program":32},{"pitch":36,"velocity":110,"startTime":173.152197,"endTime":173.75002316666667,"instrument":2,"program":32},{"pitch":38,"velocity":110,"startTime":173.80437099999997,"endTime":173.9674145,"instrument":2,"program":32},{"pitch":29,"velocity":110,"startTime":174.13045799999998,"endTime":174.2935015,"instrument":2,"program":32},{"pitch":33,"velocity":110,"startTime":174.45654499999998,"endTime":174.6195885,"instrument":2,"program":32},{"pitch":38,"velocity":110,"startTime":174.78263199999998,"endTime":175.10871899999998,"instrument":2,"program":32},{"pitch":50,"velocity":110,"startTime":175.2717625,"endTime":175.43480599999998,"instrument":2,"program":32},{"pitch":50,"velocity":110,"startTime":175.5978495,"endTime":175.76089299999998,"instrument":2,"program":32},{"pitch":38,"velocity":110,"startTime":175.76089299999998,"endTime":175.9239365,"instrument":2,"program":32},{"pitch":33,"velocity":110,"startTime":176.08697999999998,"endTime":176.41306699999998,"instrument":2,"program":32},{"pitch":43,"velocity":110,"startTime":176.73915399999998,"endTime":176.84784966666666,"instrument":2,"program":32},{"pitch":43,"velocity":110,"startTime":176.9021975,"endTime":177.01089316666668,"instrument":2,"program":32},{"pitch":38,"velocity":110,"startTime":177.22828449999997,"endTime":177.33698016666668,"instrument":2,"program":32},{"pitch":42,"velocity":110,"startTime":177.391328,"endTime":177.717415,"instrument":2,"program":32},{"pitch":31,"velocity":110,"startTime":178.043502,"endTime":178.20654549999998,"instrument":2,"program":32},{"pitch":43,"velocity":110,"startTime":178.369589,"endTime":178.53263249999998,"instrument":2,"program":32},{"pitch":43,"velocity":110,"startTime":178.695676,"endTime":178.85871949999998,"instrument":2,"program":32},{"pitch":31,"velocity":110,"startTime":179.021763,"endTime":179.18480649999998,"instrument":2,"program":32},{"pitch":34,"velocity":110,"startTime":179.34785,"endTime":179.51089349999998,"instrument":2,"program":32},{"pitch":37,"velocity":110,"startTime":179.673937,"endTime":179.83698049999998,"instrument":2,"program":32},{"pitch":36,"velocity":110,"startTime":180.000024,"endTime":180.54350233333332,"instrument":2,"program":32},{"pitch":31,"velocity":110,"startTime":180.652198,"endTime":180.81524149999998,"instrument":2,"program":32},{"pitch":31,"velocity":110,"startTime":180.978285,"endTime":181.1413285,"instrument":2,"program":32},{"pitch":36,"velocity":110,"startTime":181.30437199999997,"endTime":181.63045899999997,"instrument":2,"program":32},{"pitch":36,"velocity":110,"startTime":181.7935025,"endTime":181.95654599999997,"instrument":2,"program":32},{"pitch":43,"velocity":110,"startTime":182.1195895,"endTime":182.28263299999998,"instrument":2,"program":32},{"pitch":31,"velocity":110,"startTime":182.28263299999998,"endTime":182.4456765,"instrument":2,"program":32},{"pitch":39,"velocity":110,"startTime":182.60871999999998,"endTime":182.93480699999998,"instrument":2,"program":32},{"pitch":39,"velocity":110,"startTime":183.0978505,"endTime":183.26089399999998,"instrument":2,"program":32},{"pitch":39,"velocity":110,"startTime":183.4239375,"endTime":183.58698099999998,"instrument":2,"program":32},{"pitch":41,"velocity":110,"startTime":183.58698099999998,"endTime":183.7500245,"instrument":2,"program":32},{"pitch":31,"velocity":110,"startTime":183.91306799999998,"endTime":184.0761115,"instrument":2,"program":32},{"pitch":31,"velocity":110,"startTime":184.23915499999998,"endTime":184.4021985,"instrument":2,"program":32},{"pitch":34,"velocity":110,"startTime":184.56524199999998,"endTime":184.7282855,"instrument":2,"program":32},{"pitch":38,"velocity":110,"startTime":184.89132899999998,"endTime":185.0543725,"instrument":2,"program":32},{"pitch":38,"velocity":110,"startTime":185.217416,"endTime":185.543503,"instrument":2,"program":32},{"pitch":38,"velocity":110,"startTime":185.86959,"endTime":186.03263349999997,"instrument":2,"program":32},{"pitch":38,"velocity":110,"startTime":186.195677,"endTime":186.35872049999998,"instrument":2,"program":32},{"pitch":38,"velocity":110,"startTime":186.521764,"endTime":186.68480749999998,"instrument":2,"program":32},{"pitch":43,"velocity":110,"startTime":186.847851,"endTime":187.01089449999998,"instrument":2,"program":32},{"pitch":43,"velocity":110,"startTime":187.173938,"endTime":187.33698149999998,"instrument":2,"program":32},{"pitch":38,"velocity":110,"startTime":187.500025,"endTime":187.66306849999998,"instrument":2,"program":32},{"pitch":59,"velocity":105,"startTime":166.95654399999998,"endTime":169.34784866666666,"instrument":3,"program":50},{"pitch":64,"velocity":105,"startTime":166.95654399999998,"endTime":167.93480499999998,"instrument":3,"program":50},{"pitch":67,"velocity":105,"startTime":166.95654399999998,"endTime":169.34784866666666,"instrument":3,"program":50},{"pitch":74,"velocity":105,"startTime":166.95654399999998,"endTime":169.34784866666666,"instrument":3,"program":50},{"pitch":60,"velocity":105,"startTime":167.93480499999998,"endTime":167.9891528333333,"instrument":3,"program":50},{"pitch":63,"velocity":105,"startTime":168.26089199999998,"endTime":168.69567466666666,"instrument":3,"program":50},{"pitch":64,"velocity":105,"startTime":168.913066,"endTime":169.34784866666666,"instrument":3,"program":50},{"pitch":57,"velocity":105,"startTime":169.40219649999997,"endTime":171.7391533333333,"instrument":3,"program":50},{"pitch":60,"velocity":105,"startTime":169.40219649999997,"endTime":171.7391533333333,"instrument":3,"program":50},{"pitch":66,"velocity":105,"startTime":169.40219649999997,"endTime":171.7391533333333,"instrument":3,"program":50},{"pitch":69,"velocity":105,"startTime":169.40219649999997,"endTime":171.7391533333333,"instrument":3,"program":50},{"pitch":55,"velocity":105,"startTime":172.173936,"endTime":174.13045799999998,"instrument":3,"program":50},{"pitch":58,"velocity":105,"startTime":172.173936,"endTime":174.13045799999998,"instrument":3,"program":50},{"pitch":63,"velocity":105,"startTime":172.173936,"endTime":173.47828399999997,"instrument":3,"program":50},{"pitch":67,"velocity":105,"startTime":172.173936,"endTime":174.13045799999998,"instrument":3,"program":50},{"pitch":61,"velocity":105,"startTime":173.47828399999997,"endTime":174.0217623333333,"instrument":3,"program":50},{"pitch":63,"velocity":105,"startTime":173.9674145,"endTime":174.13045799999998,"instrument":3,"program":50},{"pitch":60,"velocity":105,"startTime":174.13045799999998,"endTime":174.78263199999998,"instrument":3,"program":50},{"pitch":63,"velocity":105,"startTime":174.13045799999998,"endTime":174.78263199999998,"instrument":3,"program":50},{"pitch":65,"velocity":105,"startTime":174.13045799999998,"endTime":174.78263199999998,"instrument":3,"program":50},{"pitch":67,"velocity":105,"startTime":174.13045799999998,"endTime":174.78263199999998,"instrument":3,"program":50},{"pitch":58,"velocity":105,"startTime":174.78263199999998,"endTime":177.391328,"instrument":3,"program":50},{"pitch":60,"velocity":105,"startTime":174.78263199999998,"endTime":177.391328,"instrument":3,"program":50},{"pitch":63,"velocity":105,"startTime":174.78263199999998,"endTime":177.391328,"instrument":3,"program":50},{"pitch":66,"velocity":105,"startTime":174.78263199999998,"endTime":177.391328,"instrument":3,"program":50},{"pitch":57,"velocity":105,"startTime":177.391328,"endTime":178.96741516666665,"instrument":3,"program":50},{"pitch":60,"velocity":105,"startTime":177.391328,"endTime":179.34785,"instrument":3,"program":50},{"pitch":65,"velocity":105,"startTime":177.391328,"endTime":179.34785,"instrument":3,"program":50},{"pitch":69,"velocity":105,"startTime":177.391328,"endTime":179.34785,"instrument":3,"program":50},{"pitch":57,"velocity":105,"startTime":179.021763,"endTime":179.34785,"instrument":3,"program":50},{"pitch":58,"velocity":105,"startTime":179.34785,"endTime":180.000024,"instrument":3,"program":50},{"pitch":60,"velocity":105,"startTime":179.34785,"endTime":180.000024,"instrument":3,"program":50},{"pitch":65,"velocity":105,"startTime":179.34785,"endTime":180.000024,"instrument":3,"program":50},{"pitch":58,"velocity":105,"startTime":180.000024,"endTime":182.60871999999998,"instrument":3,"program":50},{"pitch":60,"velocity":105,"startTime":180.000024,"endTime":182.60871999999998,"instrument":3,"program":50},{"pitch":65,"velocity":105,"startTime":180.000024,"endTime":182.60871999999998,"instrument":3,"program":50},{"pitch":67,"velocity":105,"startTime":180.000024,"endTime":182.60871999999998,"instrument":3,"program":50},{"pitch":60,"velocity":105,"startTime":182.60871999999998,"endTime":185.217416,"instrument":3,"program":50},{"pitch":63,"velocity":105,"startTime":182.60871999999998,"endTime":185.217416,"instrument":3,"program":50},{"pitch":65,"velocity":105,"startTime":182.60871999999998,"endTime":185.217416,"instrument":3,"program":50},{"pitch":70,"velocity":105,"startTime":182.60871999999998,"endTime":185.217416,"instrument":3,"program":50},{"pitch":56,"velocity":105,"startTime":185.217416,"endTime":185.38045949999997,"instrument":3,"program":50},{"pitch":62,"velocity":105,"startTime":185.217416,"endTime":185.38045949999997,"instrument":3,"program":50},{"pitch":69,"velocity":105,"startTime":185.217416,"endTime":185.38045949999997,"instrument":3,"program":50},{"pitch":74,"velocity":105,"startTime":185.217416,"endTime":185.38045949999997,"instrument":3,"program":50},{"pitch":35,"velocity":102,"startTime":187.826112,"endTime":187.98915549999998,"isDrum":true},{"pitch":42,"velocity":102,"startTime":187.826112,"endTime":187.98915549999998,"isDrum":true},{"pitch":51,"velocity":102,"startTime":187.826112,"endTime":187.98915549999998,"isDrum":true},{"pitch":42,"velocity":102,"startTime":188.152199,"endTime":188.31524249999998,"isDrum":true},{"pitch":40,"velocity":102,"startTime":188.478286,"endTime":188.64132949999998,"isDrum":true},{"pitch":42,"velocity":102,"startTime":188.478286,"endTime":188.64132949999998,"isDrum":true},{"pitch":51,"velocity":102,"startTime":188.478286,"endTime":188.64132949999998,"isDrum":true},{"pitch":42,"velocity":102,"startTime":188.804373,"endTime":188.96741649999998,"isDrum":true},{"pitch":35,"velocity":102,"startTime":189.13046,"endTime":189.29350349999999,"isDrum":true},{"pitch":42,"velocity":102,"startTime":189.13046,"endTime":189.29350349999999,"isDrum":true},{"pitch":51,"velocity":102,"startTime":189.13046,"endTime":189.29350349999999,"isDrum":true},{"pitch":42,"velocity":102,"startTime":189.45654699999997,"endTime":189.6195905,"isDrum":true},{"pitch":40,"velocity":102,"startTime":189.78263399999997,"endTime":189.9456775,"isDrum":true},{"pitch":42,"velocity":102,"startTime":189.78263399999997,"endTime":189.9456775,"isDrum":true},{"pitch":51,"velocity":102,"startTime":189.78263399999997,"endTime":189.9456775,"isDrum":true},{"pitch":42,"velocity":102,"startTime":190.10872099999997,"endTime":190.2717645,"isDrum":true},{"pitch":35,"velocity":102,"startTime":190.43480799999998,"endTime":190.5978515,"isDrum":true},{"pitch":42,"velocity":102,"startTime":190.43480799999998,"endTime":190.5978515,"isDrum":true},{"pitch":51,"velocity":102,"startTime":190.43480799999998,"endTime":190.5978515,"isDrum":true},{"pitch":42,"velocity":102,"startTime":190.76089499999998,"endTime":190.9239385,"isDrum":true},{"pitch":40,"velocity":102,"startTime":191.08698199999998,"endTime":191.2500255,"isDrum":true},{"pitch":42,"velocity":102,"startTime":191.08698199999998,"endTime":191.2500255,"isDrum":true},{"pitch":51,"velocity":102,"startTime":191.08698199999998,"endTime":191.2500255,"isDrum":true},{"pitch":42,"velocity":102,"startTime":191.41306899999998,"endTime":191.5761125,"isDrum":true},{"pitch":35,"velocity":102,"startTime":191.73915599999998,"endTime":191.9021995,"isDrum":true},{"pitch":42,"velocity":102,"startTime":191.73915599999998,"endTime":191.9021995,"isDrum":true},{"pitch":51,"velocity":102,"startTime":191.73915599999998,"endTime":191.9021995,"isDrum":true},{"pitch":42,"velocity":102,"startTime":192.06524299999998,"endTime":192.2282865,"isDrum":true},{"pitch":40,"velocity":102,"startTime":192.39132999999998,"endTime":192.5543735,"isDrum":true},{"pitch":42,"velocity":102,"startTime":192.39132999999998,"endTime":192.5543735,"isDrum":true},{"pitch":51,"velocity":102,"startTime":192.39132999999998,"endTime":192.5543735,"isDrum":true},{"pitch":42,"velocity":102,"startTime":192.71741699999998,"endTime":192.8804605,"isDrum":true},{"pitch":35,"velocity":102,"startTime":193.04350399999998,"endTime":193.2065475,"isDrum":true},{"pitch":42,"velocity":102,"startTime":193.04350399999998,"endTime":193.2065475,"isDrum":true},{"pitch":51,"velocity":102,"startTime":193.04350399999998,"endTime":193.2065475,"isDrum":true},{"pitch":42,"velocity":102,"startTime":193.36959099999999,"endTime":193.53263449999997,"isDrum":true},{"pitch":40,"velocity":102,"startTime":193.695678,"endTime":193.85872149999997,"isDrum":true},{"pitch":42,"velocity":102,"startTime":193.695678,"endTime":193.85872149999997,"isDrum":true},{"pitch":51,"velocity":102,"startTime":193.695678,"endTime":193.85872149999997,"isDrum":true},{"pitch":42,"velocity":102,"startTime":194.021765,"endTime":194.18480849999997,"isDrum":true},{"pitch":35,"velocity":102,"startTime":194.347852,"endTime":194.51089549999998,"isDrum":true},{"pitch":42,"velocity":102,"startTime":194.347852,"endTime":194.51089549999998,"isDrum":true},{"pitch":51,"velocity":102,"startTime":194.347852,"endTime":194.51089549999998,"isDrum":true},{"pitch":42,"velocity":102,"startTime":194.673939,"endTime":194.83698249999998,"isDrum":true},{"pitch":40,"velocity":102,"startTime":195.000026,"endTime":195.16306949999998,"isDrum":true},{"pitch":42,"velocity":102,"startTime":195.000026,"endTime":195.16306949999998,"isDrum":true},{"pitch":51,"velocity":102,"startTime":195.000026,"endTime":195.16306949999998,"isDrum":true},{"pitch":42,"velocity":102,"startTime":195.326113,"endTime":195.48915649999998,"isDrum":true},{"pitch":35,"velocity":102,"startTime":195.6522,"endTime":195.81524349999998,"isDrum":true},{"pitch":42,"velocity":102,"startTime":195.6522,"endTime":195.81524349999998,"isDrum":true},{"pitch":51,"velocity":102,"startTime":195.6522,"endTime":195.81524349999998,"isDrum":true},{"pitch":42,"velocity":102,"startTime":195.978287,"endTime":196.14133049999998,"isDrum":true},{"pitch":40,"velocity":102,"startTime":196.304374,"endTime":196.46741749999998,"isDrum":true},{"pitch":42,"velocity":102,"startTime":196.304374,"endTime":196.46741749999998,"isDrum":true},{"pitch":51,"velocity":102,"startTime":196.304374,"endTime":196.46741749999998,"isDrum":true},{"pitch":42,"velocity":102,"startTime":196.630461,"endTime":196.79350449999998,"isDrum":true},{"pitch":35,"velocity":102,"startTime":196.956548,"endTime":197.11959149999998,"isDrum":true},{"pitch":42,"velocity":102,"startTime":196.956548,"endTime":197.11959149999998,"isDrum":true},{"pitch":51,"velocity":102,"startTime":196.956548,"endTime":197.11959149999998,"isDrum":true},{"pitch":35,"velocity":102,"startTime":197.282635,"endTime":197.44567849999999,"isDrum":true},{"pitch":42,"velocity":102,"startTime":197.282635,"endTime":197.44567849999999,"isDrum":true},{"pitch":40,"velocity":102,"startTime":197.60872199999997,"endTime":197.7717655,"isDrum":true},{"pitch":42,"velocity":102,"startTime":197.60872199999997,"endTime":197.7717655,"isDrum":true},{"pitch":51,"velocity":102,"startTime":197.60872199999997,"endTime":197.7717655,"isDrum":true},{"pitch":42,"velocity":102,"startTime":197.93480899999997,"endTime":198.0978525,"isDrum":true},{"pitch":35,"velocity":102,"startTime":198.26089599999997,"endTime":198.4239395,"isDrum":true},{"pitch":42,"velocity":102,"startTime":198.26089599999997,"endTime":198.4239395,"isDrum":true},{"pitch":51,"velocity":102,"startTime":198.26089599999997,"endTime":198.4239395,"isDrum":true},{"pitch":42,"velocity":102,"startTime":198.58698299999998,"endTime":198.7500265,"isDrum":true},{"pitch":40,"velocity":102,"startTime":198.91306999999998,"endTime":199.0761135,"isDrum":true},{"pitch":42,"velocity":102,"startTime":198.91306999999998,"endTime":199.0761135,"isDrum":true},{"pitch":51,"velocity":102,"startTime":198.91306999999998,"endTime":199.0761135,"isDrum":true},{"pitch":42,"velocity":102,"startTime":199.23915699999998,"endTime":199.4022005,"isDrum":true},{"pitch":35,"velocity":102,"startTime":199.56524399999998,"endTime":199.7282875,"isDrum":true},{"pitch":42,"velocity":102,"startTime":199.56524399999998,"endTime":199.7282875,"isDrum":true},{"pitch":51,"velocity":102,"startTime":199.56524399999998,"endTime":199.7282875,"isDrum":true},{"pitch":35,"velocity":102,"startTime":199.89133099999998,"endTime":200.0543745,"isDrum":true},{"pitch":42,"velocity":102,"startTime":199.89133099999998,"endTime":200.0543745,"isDrum":true},{"pitch":40,"velocity":102,"startTime":200.21741799999998,"endTime":200.3804615,"isDrum":true},{"pitch":42,"velocity":102,"startTime":200.21741799999998,"endTime":200.3804615,"isDrum":true},{"pitch":51,"velocity":102,"startTime":200.21741799999998,"endTime":200.3804615,"isDrum":true},{"pitch":42,"velocity":102,"startTime":200.54350499999998,"endTime":200.7065485,"isDrum":true},{"pitch":35,"velocity":102,"startTime":200.86959199999998,"endTime":201.0326355,"isDrum":true},{"pitch":42,"velocity":102,"startTime":200.86959199999998,"endTime":201.0326355,"isDrum":true},{"pitch":51,"velocity":102,"startTime":200.86959199999998,"endTime":201.0326355,"isDrum":true},{"pitch":42,"velocity":102,"startTime":201.19567899999998,"endTime":201.3587225,"isDrum":true},{"pitch":40,"velocity":102,"startTime":201.52176599999999,"endTime":201.68480949999997,"isDrum":true},{"pitch":42,"velocity":102,"startTime":201.52176599999999,"endTime":201.68480949999997,"isDrum":true},{"pitch":51,"velocity":102,"startTime":201.52176599999999,"endTime":201.68480949999997,"isDrum":true},{"pitch":42,"velocity":102,"startTime":201.847853,"endTime":202.01089649999997,"isDrum":true},{"pitch":35,"velocity":102,"startTime":202.17394,"endTime":202.33698349999997,"isDrum":true},{"pitch":42,"velocity":102,"startTime":202.17394,"endTime":202.33698349999997,"isDrum":true},{"pitch":51,"velocity":102,"startTime":202.17394,"endTime":202.33698349999997,"isDrum":true},{"pitch":35,"velocity":102,"startTime":202.500027,"endTime":202.66307049999998,"isDrum":true},{"pitch":42,"velocity":102,"startTime":202.500027,"endTime":202.66307049999998,"isDrum":true},{"pitch":40,"velocity":102,"startTime":202.826114,"endTime":202.98915749999998,"isDrum":true},{"pitch":42,"velocity":102,"startTime":202.826114,"endTime":202.98915749999998,"isDrum":true},{"pitch":51,"velocity":102,"startTime":202.826114,"endTime":202.98915749999998,"isDrum":true},{"pitch":42,"velocity":102,"startTime":203.152201,"endTime":203.31524449999998,"isDrum":true},{"pitch":35,"velocity":102,"startTime":203.478288,"endTime":203.64133149999998,"isDrum":true},{"pitch":42,"velocity":102,"startTime":203.478288,"endTime":203.64133149999998,"isDrum":true},{"pitch":51,"velocity":102,"startTime":203.478288,"endTime":203.64133149999998,"isDrum":true},{"pitch":42,"velocity":102,"startTime":203.804375,"endTime":203.96741849999998,"isDrum":true},{"pitch":40,"velocity":102,"startTime":204.130462,"endTime":204.29350549999998,"isDrum":true},{"pitch":42,"velocity":102,"startTime":204.130462,"endTime":204.29350549999998,"isDrum":true},{"pitch":51,"velocity":102,"startTime":204.130462,"endTime":204.29350549999998,"isDrum":true},{"pitch":42,"velocity":102,"startTime":204.456549,"endTime":204.61959249999998,"isDrum":true},{"pitch":35,"velocity":102,"startTime":204.782636,"endTime":204.94567949999998,"isDrum":true},{"pitch":42,"velocity":102,"startTime":204.782636,"endTime":204.94567949999998,"isDrum":true},{"pitch":51,"velocity":102,"startTime":204.782636,"endTime":204.94567949999998,"isDrum":true},{"pitch":35,"velocity":102,"startTime":205.108723,"endTime":205.27176649999998,"isDrum":true},{"pitch":42,"velocity":102,"startTime":205.108723,"endTime":205.27176649999998,"isDrum":true},{"pitch":40,"velocity":102,"startTime":205.43480999999997,"endTime":205.59785349999999,"isDrum":true},{"pitch":42,"velocity":102,"startTime":205.43480999999997,"endTime":205.59785349999999,"isDrum":true},{"pitch":48,"velocity":102,"startTime":205.43480999999997,"endTime":205.59785349999999,"isDrum":true},{"pitch":35,"velocity":102,"startTime":205.76089699999997,"endTime":205.9239405,"isDrum":true},{"pitch":42,"velocity":102,"startTime":205.76089699999997,"endTime":205.9239405,"isDrum":true},{"pitch":35,"velocity":102,"startTime":206.08698399999997,"endTime":206.2500275,"isDrum":true},{"pitch":42,"velocity":102,"startTime":206.08698399999997,"endTime":206.2500275,"isDrum":true},{"pitch":51,"velocity":102,"startTime":206.08698399999997,"endTime":206.2500275,"isDrum":true},{"pitch":42,"velocity":102,"startTime":206.41307099999997,"endTime":206.5761145,"isDrum":true},{"pitch":40,"velocity":102,"startTime":206.73915799999997,"endTime":206.9022015,"isDrum":true},{"pitch":42,"velocity":102,"startTime":206.73915799999997,"endTime":206.9022015,"isDrum":true},{"pitch":51,"velocity":102,"startTime":206.73915799999997,"endTime":206.9022015,"isDrum":true},{"pitch":42,"velocity":102,"startTime":207.06524499999998,"endTime":207.2282885,"isDrum":true},{"pitch":35,"velocity":102,"startTime":207.39133199999998,"endTime":207.5543755,"isDrum":true},{"pitch":42,"velocity":102,"startTime":207.39133199999998,"endTime":207.5543755,"isDrum":true},{"pitch":51,"velocity":102,"startTime":207.39133199999998,"endTime":207.5543755,"isDrum":true},{"pitch":35,"velocity":102,"startTime":207.71741899999998,"endTime":207.8804625,"isDrum":true},{"pitch":42,"velocity":102,"startTime":207.71741899999998,"endTime":207.8804625,"isDrum":true},{"pitch":40,"velocity":102,"startTime":208.04350599999998,"endTime":208.2065495,"isDrum":true},{"pitch":42,"velocity":102,"startTime":208.04350599999998,"endTime":208.2065495,"isDrum":true},{"pitch":42,"velocity":102,"startTime":208.36959299999998,"endTime":208.5326365,"isDrum":true},{"pitch":67,"velocity":95,"startTime":187.826112,"endTime":187.93480766666664,"instrument":1,"program":12},{"pitch":70,"velocity":95,"startTime":187.98915549999998,"endTime":188.09785116666666,"instrument":1,"program":12},{"pitch":67,"velocity":95,"startTime":188.152199,"endTime":188.26089466666664,"instrument":1,"program":12},{"pitch":70,"velocity":95,"startTime":188.31524249999998,"endTime":188.36959033333332,"instrument":1,"program":12},{"pitch":67,"velocity":95,"startTime":188.478286,"endTime":188.58698166666665,"instrument":1,"program":12},{"pitch":67,"velocity":95,"startTime":188.64132949999998,"endTime":188.69567733333332,"instrument":1,"program":12},{"pitch":70,"velocity":95,"startTime":188.804373,"endTime":188.91306866666665,"instrument":1,"program":12},{"pitch":67,"velocity":95,"startTime":188.96741649999998,"endTime":189.07611216666666,"instrument":1,"program":12},{"pitch":63,"velocity":95,"startTime":189.13046,"endTime":189.23915566666665,"instrument":1,"program":12},{"pitch":67,"velocity":95,"startTime":189.29350349999999,"endTime":189.40219916666666,"instrument":1,"program":12},{"pitch":70,"velocity":95,"startTime":189.45654699999997,"endTime":189.56524266666665,"instrument":1,"program":12},{"pitch":75,"velocity":95,"startTime":189.6195905,"endTime":189.72828616666666,"instrument":1,"program":12},{"pitch":70,"velocity":95,"startTime":189.78263399999997,"endTime":189.89132966666665,"instrument":1,"program":12},{"pitch":70,"velocity":95,"startTime":189.9456775,"endTime":190.05437316666666,"instrument":1,"program":12},{"pitch":67,"velocity":95,"startTime":190.10872099999997,"endTime":190.21741666666665,"instrument":1,"program":12},{"pitch":70,"velocity":95,"startTime":190.2717645,"endTime":190.38046016666667,"instrument":1,"program":12},{"pitch":62,"velocity":95,"startTime":190.43480799999998,"endTime":190.54350366666665,"instrument":1,"program":12},{"pitch":69,"velocity":95,"startTime":190.5978515,"endTime":190.70654716666664,"instrument":1,"program":12},{"pitch":74,"velocity":95,"startTime":190.76089499999998,"endTime":190.86959066666665,"instrument":1,"program":12},{"pitch":74,"velocity":95,"startTime":190.9239385,"endTime":191.03263416666664,"instrument":1,"program":12},{"pitch":74,"velocity":95,"startTime":191.08698199999998,"endTime":191.19567766666665,"instrument":1,"program":12},{"pitch":69,"velocity":95,"startTime":191.2500255,"endTime":191.35872116666664,"instrument":1,"program":12},{"pitch":74,"velocity":95,"startTime":191.41306899999998,"endTime":191.52176466666666,"instrument":1,"program":12},{"pitch":69,"velocity":95,"startTime":191.5761125,"endTime":191.68480816666664,"instrument":1,"program":12},{"pitch":74,"velocity":95,"startTime":191.73915599999998,"endTime":191.84785166666666,"instrument":1,"program":12},{"pitch":69,"velocity":95,"startTime":191.9021995,"endTime":192.01089516666664,"instrument":1,"program":12},{"pitch":74,"velocity":95,"startTime":192.06524299999998,"endTime":192.17393866666666,"instrument":1,"program":12},{"pitch":74,"velocity":95,"startTime":192.2282865,"endTime":192.33698216666664,"instrument":1,"program":12},{"pitch":69,"velocity":95,"startTime":192.39132999999998,"endTime":192.50002566666666,"instrument":1,"program":12},{"pitch":74,"velocity":95,"startTime":192.5543735,"endTime":192.66306916666665,"instrument":1,"program":12},{"pitch":69,"velocity":95,"startTime":192.71741699999998,"endTime":192.82611266666666,"instrument":1,"program":12},{"pitch":74,"velocity":95,"startTime":192.8804605,"endTime":192.98915616666665,"instrument":1,"program":12},{"pitch":62,"velocity":95,"startTime":193.04350399999998,"endTime":193.15219966666666,"instrument":1,"program":12},{"pitch":69,"velocity":95,"startTime":193.2065475,"endTime":193.31524316666665,"instrument":1,"program":12},{"pitch":72,"velocity":95,"startTime":193.36959099999999,"endTime":193.47828666666666,"instrument":1,"program":12},{"pitch":69,"velocity":95,"startTime":193.53263449999997,"endTime":193.64133016666665,"instrument":1,"program":12},{"pitch":74,"velocity":95,"startTime":193.695678,"endTime":193.80437366666666,"instrument":1,"program":12},{"pitch":69,"velocity":95,"startTime":193.85872149999997,"endTime":193.96741716666665,"instrument":1,"program":12},{"pitch":74,"velocity":95,"startTime":194.021765,"endTime":194.13046066666666,"instrument":1,"program":12},{"pitch":69,"velocity":95,"startTime":194.18480849999997,"endTime":194.29350416666665,"instrument":1,"program":12},{"pitch":74,"velocity":95,"startTime":194.347852,"endTime":194.45654766666667,"instrument":1,"program":12},{"pitch":69,"velocity":95,"startTime":194.51089549999998,"endTime":194.61959116666665,"instrument":1,"program":12},{"pitch":74,"velocity":95,"startTime":194.673939,"endTime":194.78263466666664,"instrument":1,"program":12},{"pitch":69,"velocity":95,"startTime":194.83698249999998,"endTime":194.89133033333331,"instrument":1,"program":12},{"pitch":74,"velocity":95,"startTime":195.000026,"endTime":195.10872166666664,"instrument":1,"program":12},{"pitch":69,"velocity":95,"startTime":195.16306949999998,"endTime":195.27176516666665,"instrument":1,"program":12},{"pitch":65,"velocity":95,"startTime":195.326113,"endTime":195.43480866666664,"instrument":1,"program":12},{"pitch":72,"velocity":95,"startTime":195.48915649999998,"endTime":195.59785216666666,"instrument":1,"program":12},{"pitch":62,"velocity":95,"startTime":195.6522,"endTime":195.81524349999998,"instrument":1,"program":12},{"pitch":65,"velocity":95,"startTime":195.81524349999998,"endTime":195.92393916666666,"instrument":1,"program":12},{"pitch":70,"velocity":95,"startTime":195.978287,"endTime":196.08698266666664,"instrument":1,"program":12},{"pitch":77,"velocity":95,"startTime":196.14133049999998,"endTime":196.25002616666666,"instrument":1,"program":12},{"pitch":70,"velocity":95,"startTime":196.304374,"endTime":196.41306966666664,"instrument":1,"program":12},{"pitch":77,"velocity":95,"startTime":196.46741749999998,"endTime":196.57611316666666,"instrument":1,"program":12},{"pitch":65,"velocity":95,"startTime":196.630461,"endTime":196.73915666666664,"instrument":1,"program":12},{"pitch":70,"velocity":95,"startTime":196.79350449999998,"endTime":196.90220016666666,"instrument":1,"program":12},{"pitch":77,"velocity":95,"startTime":196.956548,"endTime":197.06524366666665,"instrument":1,"program":12},{"pitch":70,"velocity":95,"startTime":197.11959149999998,"endTime":197.22828716666666,"instrument":1,"program":12},{"pitch":65,"velocity":95,"startTime":197.282635,"endTime":197.39133066666665,"instrument":1,"program":12},{"pitch":70,"velocity":95,"startTime":197.44567849999999,"endTime":197.55437416666666,"instrument":1,"program":12},{"pitch":74,"velocity":95,"startTime":197.60872199999997,"endTime":197.71741766666665,"instrument":1,"program":12},{"pitch":70,"velocity":95,"startTime":197.7717655,"endTime":197.88046116666666,"instrument":1,"program":12},{"pitch":65,"velocity":95,"startTime":197.93480899999997,"endTime":198.04350466666665,"instrument":1,"program":12},{"pitch":70,"velocity":95,"startTime":198.0978525,"endTime":198.20654816666666,"instrument":1,"program":12},{"pitch":62,"velocity":95,"startTime":198.26089599999997,"endTime":198.4239395,"instrument":1,"program":12},{"pitch":65,"velocity":95,"startTime":198.4239395,"endTime":198.53263516666667,"instrument":1,"program":12},{"pitch":67,"velocity":95,"startTime":198.58698299999998,"endTime":198.69567866666665,"instrument":1,"program":12},{"pitch":62,"velocity":95,"startTime":198.7500265,"endTime":198.85872216666664,"instrument":1,"program":12},{"pitch":74,"velocity":95,"startTime":198.91306999999998,"endTime":199.02176566666665,"instrument":1,"program":12},{"pitch":67,"velocity":95,"startTime":199.0761135,"endTime":199.18480916666664,"instrument":1,"program":12},{"pitch":65,"velocity":95,"startTime":199.23915699999998,"endTime":199.34785266666665,"instrument":1,"program":12},{"pitch":62,"velocity":95,"startTime":199.4022005,"endTime":199.51089616666664,"instrument":1,"program":12},{"pitch":74,"velocity":95,"startTime":199.56524399999998,"endTime":199.7282875,"instrument":1,"program":12},{"pitch":67,"velocity":95,"startTime":199.7282875,"endTime":199.83698316666664,"instrument":1,"program":12},{"pitch":65,"velocity":95,"startTime":199.89133099999998,"endTime":200.00002666666666,"instrument":1,"program":12},{"pitch":62,"velocity":95,"startTime":200.0543745,"endTime":200.16307016666664,"instrument":1,"program":12},{"pitch":74,"velocity":95,"startTime":200.21741799999998,"endTime":200.32611366666666,"instrument":1,"program":12},{"pitch":67,"velocity":95,"startTime":200.3804615,"endTime":200.48915716666664,"instrument":1,"program":12},{"pitch":67,"velocity":95,"startTime":200.54350499999998,"endTime":200.65220066666666,"instrument":1,"program":12},{"pitch":74,"velocity":95,"startTime":200.7065485,"endTime":200.81524416666664,"instrument":1,"program":12},{"pitch":62,"velocity":95,"startTime":200.86959199999998,"endTime":201.0326355,"instrument":1,"program":12},{"pitch":69,"velocity":95,"startTime":201.0326355,"endTime":201.14133116666665,"instrument":1,"program":12},{"pitch":69,"velocity":95,"startTime":201.19567899999998,"endTime":201.30437466666666,"instrument":1,"program":12},{"pitch":74,"velocity":95,"startTime":201.3587225,"endTime":201.46741816666665,"instrument":1,"program":12},{"pitch":77,"velocity":95,"startTime":201.52176599999999,"endTime":201.63046166666666,"instrument":1,"program":12},{"pitch":69,"velocity":95,"startTime":201.68480949999997,"endTime":201.79350516666665,"instrument":1,"program":12},{"pitch":69,"velocity":95,"startTime":201.847853,"endTime":201.95654866666666,"instrument":1,"program":12},{"pitch":69,"velocity":95,"startTime":202.01089649999997,"endTime":202.11959216666665,"instrument":1,"program":12},{"pitch":62,"velocity":95,"startTime":202.17394,"endTime":202.33698349999997,"instrument":1,"program":12},{"pitch":69,"velocity":95,"startTime":202.33698349999997,"endTime":202.44567916666665,"instrument":1,"program":12},{"pitch":74,"velocity":95,"startTime":202.500027,"endTime":202.60872266666667,"instrument":1,"program":12},{"pitch":69,"velocity":95,"startTime":202.66307049999998,"endTime":202.77176616666665,"instrument":1,"program":12},{"pitch":62,"velocity":95,"startTime":202.826114,"endTime":202.93480966666664,"instrument":1,"program":12},{"pitch":69,"velocity":95,"startTime":202.98915749999998,"endTime":203.09785316666665,"instrument":1,"program":12},{"pitch":65,"velocity":95,"startTime":203.152201,"endTime":203.26089666666664,"instrument":1,"program":12},{"pitch":69,"velocity":95,"startTime":203.31524449999998,"endTime":203.42394016666665,"instrument":1,"program":12},{"pitch":66,"velocity":95,"startTime":203.478288,"endTime":203.64133149999998,"instrument":1,"program":12},{"pitch":66,"velocity":95,"startTime":203.64133149999998,"endTime":203.75002716666665,"instrument":1,"program":12},{"pitch":70,"velocity":95,"startTime":203.804375,"endTime":203.91307066666664,"instrument":1,"program":12},{"pitch":74,"velocity":95,"startTime":203.96741849999998,"endTime":204.07611416666666,"instrument":1,"program":12},{"pitch":78,"velocity":95,"startTime":204.130462,"endTime":204.23915766666664,"instrument":1,"program":12},{"pitch":78,"velocity":95,"startTime":204.29350549999998,"endTime":204.40220116666666,"instrument":1,"program":12},{"pitch":78,"velocity":95,"startTime":204.456549,"endTime":204.56524466666664,"instrument":1,"program":12},{"pitch":70,"velocity":95,"startTime":204.61959249999998,"endTime":204.72828816666666,"instrument":1,"program":12},{"pitch":66,"velocity":95,"startTime":204.782636,"endTime":204.94567949999998,"instrument":1,"program":12},{"pitch":70,"velocity":95,"startTime":204.94567949999998,"endTime":205.05437516666666,"instrument":1,"program":12},{"pitch":66,"velocity":95,"startTime":205.108723,"endTime":205.21741866666665,"instrument":1,"program":12},{"pitch":66,"velocity":95,"startTime":205.27176649999998,"endTime":205.32611433333332,"instrument":1,"program":12},{"pitch":82,"velocity":95,"startTime":205.43480999999997,"endTime":205.54350566666665,"instrument":1,"program":12},{"pitch":74,"velocity":95,"startTime":205.59785349999999,"endTime":205.70654916666666,"instrument":1,"program":12},{"pitch":70,"velocity":95,"startTime":205.76089699999997,"endTime":205.86959266666665,"instrument":1,"program":12},{"pitch":72,"velocity":95,"startTime":205.9239405,"endTime":206.03263616666666,"instrument":1,"program":12},{"pitch":62,"velocity":95,"startTime":206.08698399999997,"endTime":206.2500275,"instrument":1,"program":12},{"pitch":67,"velocity":95,"startTime":206.2500275,"endTime":206.35872316666666,"instrument":1,"program":12},{"pitch":70,"velocity":95,"startTime":206.41307099999997,"endTime":206.52176666666665,"instrument":1,"program":12},{"pitch":67,"velocity":95,"startTime":206.5761145,"endTime":206.63046233333333,"instrument":1,"program":12},{"pitch":70,"velocity":95,"startTime":206.73915799999997,"endTime":206.9022015,"instrument":1,"program":12},{"pitch":67,"velocity":95,"startTime":206.9022015,"endTime":207.01089716666664,"instrument":1,"program":12},{"pitch":70,"velocity":95,"startTime":207.06524499999998,"endTime":207.17394066666665,"instrument":1,"program":12},{"pitch":74,"velocity":95,"startTime":207.2282885,"endTime":207.33698416666664,"instrument":1,"program":12},{"pitch":67,"velocity":95,"startTime":207.39133199999998,"endTime":207.5543755,"instrument":1,"program":12},{"pitch":70,"velocity":95,"startTime":207.5543755,"endTime":207.66307116666664,"instrument":1,"program":12},{"pitch":67,"velocity":95,"startTime":207.71741899999998,"endTime":207.82611466666665,"instrument":1,"program":12},{"pitch":70,"velocity":95,"startTime":207.8804625,"endTime":207.98915816666664,"instrument":1,"program":12},{"pitch":67,"velocity":95,"startTime":208.04350599999998,"endTime":208.15220166666666,"instrument":1,"program":12},{"pitch":70,"velocity":95,"startTime":208.2065495,"endTime":208.31524516666664,"instrument":1,"program":12},{"pitch":67,"velocity":95,"startTime":208.36959299999998,"endTime":208.47828866666666,"instrument":1,"program":12},{"pitch":70,"velocity":95,"startTime":208.5326365,"endTime":208.64133216666664,"instrument":1,"program":12},{"pitch":43,"velocity":110,"startTime":187.826112,"endTime":187.98915549999998,"instrument":2,"program":32},{"pitch":38,"velocity":110,"startTime":190.43480799999998,"endTime":190.5978515,"instrument":2,"program":32},{"pitch":38,"velocity":110,"startTime":190.76089499999998,"endTime":190.9239385,"instrument":2,"program":32},{"pitch":38,"velocity":110,"startTime":191.08698199999998,"endTime":191.2500255,"instrument":2,"program":32},{"pitch":42,"velocity":110,"startTime":191.41306899999998,"endTime":191.5761125,"instrument":2,"program":32},{"pitch":42,"velocity":110,"startTime":191.73915599999998,"endTime":191.9021995,"instrument":2,"program":32},{"pitch":42,"velocity":110,"startTime":192.06524299999998,"endTime":192.2282865,"instrument":2,"program":32},{"pitch":36,"velocity":110,"startTime":192.39132999999998,"endTime":192.5543735,"instrument":2,"program":32},{"pitch":38,"velocity":110,"startTime":192.71741699999998,"endTime":192.8804605,"instrument":2,"program":32},{"pitch":38,"velocity":110,"startTime":193.04350399999998,"endTime":193.75002583333332,"instrument":2,"program":32},{"pitch":40,"velocity":110,"startTime":193.695678,"endTime":193.85872149999997,"instrument":2,"program":32},{"pitch":33,"velocity":110,"startTime":194.021765,"endTime":194.18480849999997,"instrument":2,"program":32},{"pitch":38,"velocity":110,"startTime":194.347852,"endTime":194.51089549999998,"instrument":2,"program":32},{"pitch":45,"velocity":110,"startTime":194.673939,"endTime":194.83698249999998,"instrument":2,"program":32},{"pitch":38,"velocity":110,"startTime":195.000026,"endTime":195.16306949999998,"instrument":2,"program":32},{"pitch":42,"velocity":110,"startTime":195.326113,"endTime":195.48915649999998,"instrument":2,"program":32},{"pitch":43,"velocity":110,"startTime":195.6522,"endTime":195.81524349999998,"instrument":2,"program":32},{"pitch":43,"velocity":110,"startTime":195.978287,"endTime":196.14133049999998,"instrument":2,"program":32},{"pitch":38,"velocity":110,"startTime":196.304374,"endTime":196.46741749999998,"instrument":2,"program":32},{"pitch":38,"velocity":110,"startTime":196.630461,"endTime":196.79350449999998,"instrument":2,"program":32},{"pitch":43,"velocity":110,"startTime":196.956548,"endTime":197.11959149999998,"instrument":2,"program":32},{"pitch":43,"velocity":110,"startTime":197.282635,"endTime":197.44567849999999,"instrument":2,"program":32},{"pitch":41,"velocity":110,"startTime":197.60872199999997,"endTime":197.7717655,"instrument":2,"program":32},{"pitch":38,"velocity":110,"startTime":197.93480899999997,"endTime":198.0978525,"instrument":2,"program":32},{"pitch":31,"velocity":110,"startTime":198.26089599999997,"endTime":198.4239395,"instrument":2,"program":32},{"pitch":31,"velocity":110,"startTime":198.58698299999998,"endTime":198.7500265,"instrument":2,"program":32},{"pitch":31,"velocity":110,"startTime":198.91306999999998,"endTime":199.0761135,"instrument":2,"program":32},{"pitch":31,"velocity":110,"startTime":199.23915699999998,"endTime":199.4022005,"instrument":2,"program":32},{"pitch":31,"velocity":110,"startTime":199.56524399999998,"endTime":199.7282875,"instrument":2,"program":32},{"pitch":31,"velocity":110,"startTime":199.89133099999998,"endTime":200.0543745,"instrument":2,"program":32},{"pitch":31,"velocity":110,"startTime":200.21741799999998,"endTime":200.3804615,"instrument":2,"program":32},{"pitch":43,"velocity":110,"startTime":200.54350499999998,"endTime":200.7065485,"instrument":2,"program":32},{"pitch":38,"velocity":110,"startTime":200.86959199999998,"endTime":201.0326355,"instrument":2,"program":32},{"pitch":38,"velocity":110,"startTime":201.19567899999998,"endTime":201.3587225,"instrument":2,"program":32},{"pitch":30,"velocity":110,"startTime":201.52176599999999,"endTime":201.68480949999997,"instrument":2,"program":32},{"pitch":38,"velocity":110,"startTime":201.847853,"endTime":202.01089649999997,"instrument":2,"program":32},{"pitch":38,"velocity":110,"startTime":202.17394,"endTime":202.33698349999997,"instrument":2,"program":32},{"pitch":38,"velocity":110,"startTime":202.500027,"endTime":202.66307049999998,"instrument":2,"program":32},{"pitch":33,"velocity":110,"startTime":202.826114,"endTime":202.98915749999998,"instrument":2,"program":32},{"pitch":42,"velocity":110,"startTime":203.152201,"endTime":203.31524449999998,"instrument":2,"program":32},{"pitch":50,"velocity":110,"startTime":203.478288,"endTime":203.64133149999998,"instrument":2,"program":32},{"pitch":38,"velocity":110,"startTime":203.804375,"endTime":203.96741849999998,"instrument":2,"program":32},{"pitch":38,"velocity":110,"startTime":204.130462,"endTime":204.29350549999998,"instrument":2,"program":32},{"pitch":45,"velocity":110,"startTime":204.456549,"endTime":204.61959249999998,"instrument":2,"program":32},{"pitch":38,"velocity":110,"startTime":204.782636,"endTime":204.94567949999998,"instrument":2,"program":32},{"pitch":45,"velocity":110,"startTime":205.108723,"endTime":205.27176649999998,"instrument":2,"program":32},{"pitch":38,"velocity":110,"startTime":205.43480999999997,"endTime":205.59785349999999,"instrument":2,"program":32},{"pitch":48,"velocity":110,"startTime":205.76089699999997,"endTime":205.9239405,"instrument":2,"program":32},{"pitch":36,"velocity":110,"startTime":206.08698399999997,"endTime":206.41307099999997,"instrument":2,"program":32},{"pitch":38,"velocity":110,"startTime":206.5761145,"endTime":206.73915799999997,"instrument":2,"program":32},{"pitch":39,"velocity":110,"startTime":206.73915799999997,"endTime":206.9022015,"instrument":2,"program":32},{"pitch":43,"velocity":110,"startTime":207.06524499999998,"endTime":207.2282885,"instrument":2,"program":32},{"pitch":36,"velocity":110,"startTime":207.39133199999998,"endTime":207.5543755,"instrument":2,"program":32},{"pitch":36,"velocity":110,"startTime":207.71741899999998,"endTime":207.8804625,"instrument":2,"program":32},{"pitch":31,"velocity":110,"startTime":208.04350599999998,"endTime":208.2065495,"instrument":2,"program":32},{"pitch":31,"velocity":110,"startTime":208.36959299999998,"endTime":208.5326365,"instrument":2,"program":32},{"pitch":55,"velocity":105,"startTime":187.826112,"endTime":188.96741649999998,"instrument":3,"program":50},{"pitch":58,"velocity":105,"startTime":187.826112,"endTime":188.96741649999998,"instrument":3,"program":50},{"pitch":62,"velocity":105,"startTime":187.826112,"endTime":188.96741649999998,"instrument":3,"program":50},{"pitch":65,"velocity":105,"startTime":187.826112,"endTime":188.96741649999998,"instrument":3,"program":50},{"pitch":58,"velocity":105,"startTime":189.13046,"endTime":189.45654699999997,"instrument":3,"program":50},{"pitch":63,"velocity":105,"startTime":189.13046,"endTime":189.56524266666665,"instrument":3,"program":50},{"pitch":67,"velocity":105,"startTime":189.13046,"endTime":189.5108948333333,"instrument":3,"program":50},{"pitch":55,"velocity":105,"startTime":189.45654699999997,"endTime":189.5108948333333,"instrument":3,"program":50},{"pitch":58,"velocity":105,"startTime":189.45654699999997,"endTime":189.5108948333333,"instrument":3,"program":50},{"pitch":58,"velocity":105,"startTime":189.78263399999997,"endTime":190.32611233333333,"instrument":3,"program":50},{"pitch":62,"velocity":105,"startTime":189.78263399999997,"endTime":190.2717645,"instrument":3,"program":50},{"pitch":63,"velocity":105,"startTime":189.78263399999997,"endTime":190.32611233333333,"instrument":3,"program":50},{"pitch":60,"velocity":105,"startTime":190.43480799999998,"endTime":191.5761125,"instrument":3,"program":50},{"pitch":62,"velocity":105,"startTime":190.43480799999998,"endTime":191.5761125,"instrument":3,"program":50},{"pitch":65,"velocity":105,"startTime":190.43480799999998,"endTime":191.5761125,"instrument":3,"program":50},{"pitch":69,"velocity":105,"startTime":190.43480799999998,"endTime":191.5761125,"instrument":3,"program":50},{"pitch":57,"velocity":105,"startTime":191.5761125,"endTime":193.04350399999998,"instrument":3,"program":50},{"pitch":60,"velocity":105,"startTime":191.5761125,"endTime":193.04350399999998,"instrument":3,"program":50},{"pitch":62,"velocity":105,"startTime":191.5761125,"endTime":193.04350399999998,"instrument":3,"program":50},{"pitch":65,"velocity":105,"startTime":191.5761125,"endTime":193.04350399999998,"instrument":3,"program":50},{"pitch":65,"velocity":105,"startTime":192.06524299999998,"endTime":192.8804605,"instrument":3,"program":50},{"pitch":60,"velocity":105,"startTime":193.04350399999998,"endTime":195.6522,"instrument":3,"program":50},{"pitch":65,"velocity":105,"startTime":193.04350399999998,"endTime":193.9130693333333,"instrument":3,"program":50},{"pitch":72,"velocity":105,"startTime":193.04350399999998,"endTime":195.6522,"instrument":3,"program":50},{"pitch":57,"velocity":105,"startTime":193.2065475,"endTime":195.6522,"instrument":3,"program":50},{"pitch":65,"velocity":105,"startTime":194.021765,"endTime":195.6522,"instrument":3,"program":50},{"pitch":62,"velocity":105,"startTime":195.6522,"endTime":198.26089599999997,"instrument":3,"program":50},{"pitch":65,"velocity":105,"startTime":195.6522,"endTime":198.26089599999997,"instrument":3,"program":50},{"pitch":67,"velocity":105,"startTime":195.6522,"endTime":198.26089599999997,"instrument":3,"program":50},{"pitch":72,"velocity":105,"startTime":195.6522,"endTime":198.26089599999997,"instrument":3,"program":50},{"pitch":58,"velocity":105,"startTime":198.26089599999997,"endTime":200.4348093333333,"instrument":3,"program":50},{"pitch":62,"velocity":105,"startTime":198.26089599999997,"endTime":200.4348093333333,"instrument":3,"program":50},{"pitch":65,"velocity":105,"startTime":198.26089599999997,"endTime":200.4348093333333,"instrument":3,"program":50},{"pitch":67,"velocity":105,"startTime":198.26089599999997,"endTime":200.32611366666666,"instrument":3,"program":50},{"pitch":74,"velocity":105,"startTime":198.58698299999998,"endTime":200.3804615,"instrument":3,"program":50},{"pitch":79,"velocity":105,"startTime":198.6413308333333,"endTime":200.3804615,"instrument":3,"program":50},{"pitch":62,"velocity":105,"startTime":200.86959199999998,"endTime":202.01089649999997,"instrument":3,"program":50},{"pitch":66,"velocity":105,"startTime":200.86959199999998,"endTime":201.95654866666666,"instrument":3,"program":50},{"pitch":70,"velocity":105,"startTime":200.86959199999998,"endTime":202.01089649999997,"instrument":3,"program":50},{"pitch":74,"velocity":105,"startTime":200.86959199999998,"endTime":202.01089649999997,"instrument":3,"program":50},{"pitch":66,"velocity":105,"startTime":202.01089649999997,"endTime":202.17394,"instrument":3,"program":50},{"pitch":60,"velocity":105,"startTime":202.17394,"endTime":203.31524449999998,"instrument":3,"program":50},{"pitch":62,"velocity":105,"startTime":202.17394,"endTime":203.36959233333332,"instrument":3,"program":50},{"pitch":66,"velocity":105,"startTime":202.17394,"endTime":203.36959233333332,"instrument":3,"program":50},{"pitch":69,"velocity":105,"startTime":202.17394,"endTime":203.42394016666665,"instrument":3,"program":50},{"pitch":72,"velocity":105,"startTime":203.152201,"endTime":203.42394016666665,"instrument":3,"program":50},{"pitch":60,"velocity":105,"startTime":203.478288,"endTime":204.782636,"instrument":3,"program":50},{"pitch":66,"velocity":105,"startTime":203.478288,"endTime":204.782636,"instrument":3,"program":50},{"pitch":70,"velocity":105,"startTime":203.478288,"endTime":204.782636,"instrument":3,"program":50},{"pitch":77,"velocity":105,"startTime":203.478288,"endTime":204.782636,"instrument":3,"program":50},{"pitch":60,"velocity":105,"startTime":204.782636,"endTime":206.08698399999997,"instrument":3,"program":50},{"pitch":66,"velocity":105,"startTime":204.782636,"endTime":206.08698399999997,"instrument":3,"program":50},{"pitch":69,"velocity":105,"startTime":204.782636,"endTime":206.08698399999997,"instrument":3,"program":50},{"pitch":77,"velocity":105,"startTime":204.782636,"endTime":205.27176649999998,"instrument":3,"program":50},{"pitch":58,"velocity":105,"startTime":206.08698399999997,"endTime":207.60872333333333,"instrument":3,"program":50},{"pitch":60,"velocity":105,"startTime":206.08698399999997,"endTime":207.2282885,"instrument":3,"program":50},{"pitch":62,"velocity":105,"startTime":206.08698399999997,"endTime":208.69567999999998,"instrument":3,"program":50},{"pitch":66,"velocity":105,"startTime":206.08698399999997,"endTime":208.69567999999998,"instrument":3,"program":50},{"pitch":62,"velocity":105,"startTime":207.06524499999998,"endTime":207.2282885,"instrument":3,"program":50},{"pitch":60,"velocity":105,"startTime":207.39133199999998,"endTime":208.2065495,"instrument":3,"program":50},{"pitch":58,"velocity":105,"startTime":207.71741899999998,"endTime":208.04350599999998,"instrument":3,"program":50},{"pitch":58,"velocity":105,"startTime":208.04350599999998,"endTime":208.2065495,"instrument":3,"program":50},{"pitch":58,"velocity":105,"startTime":208.2065495,"endTime":208.69567999999998,"instrument":3,"program":50},{"pitch":60,"velocity":105,"startTime":208.5326365,"endTime":208.69567999999998,"instrument":3,"program":50},{"pitch":35,"velocity":102,"startTime":208.69567999999998,"endTime":208.8587235,"isDrum":true},{"pitch":42,"velocity":102,"startTime":208.69567999999998,"endTime":208.8587235,"isDrum":true},{"pitch":42,"velocity":102,"startTime":209.02176699999998,"endTime":209.1848105,"isDrum":true},{"pitch":39,"velocity":102,"startTime":209.34785399999998,"endTime":209.51089749999997,"isDrum":true},{"pitch":40,"velocity":102,"startTime":209.34785399999998,"endTime":209.51089749999997,"isDrum":true},{"pitch":42,"velocity":102,"startTime":209.34785399999998,"endTime":209.51089749999997,"isDrum":true},{"pitch":35,"velocity":102,"startTime":209.67394099999999,"endTime":209.83698449999997,"isDrum":true},{"pitch":42,"velocity":102,"startTime":209.67394099999999,"endTime":209.83698449999997,"isDrum":true},{"pitch":35,"velocity":102,"startTime":210.000028,"endTime":210.16307149999997,"isDrum":true},{"pitch":42,"velocity":102,"startTime":210.000028,"endTime":210.16307149999997,"isDrum":true},{"pitch":42,"velocity":102,"startTime":210.326115,"endTime":210.48915849999997,"isDrum":true},{"pitch":40,"velocity":102,"startTime":210.652202,"endTime":210.81524549999997,"isDrum":true},{"pitch":42,"velocity":102,"startTime":210.652202,"endTime":210.81524549999997,"isDrum":true},{"pitch":42,"velocity":102,"startTime":210.978289,"endTime":211.14133249999998,"isDrum":true},{"pitch":35,"velocity":102,"startTime":211.304376,"endTime":211.46741949999998,"isDrum":true},{"pitch":42,"velocity":102,"startTime":211.304376,"endTime":211.46741949999998,"isDrum":true},{"pitch":42,"velocity":102,"startTime":211.630463,"endTime":211.79350649999998,"isDrum":true},{"pitch":40,"velocity":102,"startTime":211.95655,"endTime":212.11959349999998,"isDrum":true},{"pitch":42,"velocity":102,"startTime":211.95655,"endTime":212.11959349999998,"isDrum":true},{"pitch":42,"velocity":102,"startTime":212.282637,"endTime":212.44568049999998,"isDrum":true},{"pitch":35,"velocity":102,"startTime":212.608724,"endTime":212.77176749999998,"isDrum":true},{"pitch":42,"velocity":102,"startTime":212.608724,"endTime":212.77176749999998,"isDrum":true},{"pitch":42,"velocity":102,"startTime":212.934811,"endTime":213.09785449999998,"isDrum":true},{"pitch":40,"velocity":102,"startTime":213.260898,"endTime":213.42394149999998,"isDrum":true},{"pitch":42,"velocity":102,"startTime":213.260898,"endTime":213.42394149999998,"isDrum":true},{"pitch":42,"velocity":102,"startTime":213.58698499999997,"endTime":213.75002849999998,"isDrum":true},{"pitch":35,"velocity":102,"startTime":213.91307199999997,"endTime":214.0761155,"isDrum":true},{"pitch":42,"velocity":102,"startTime":213.91307199999997,"endTime":214.0761155,"isDrum":true},{"pitch":42,"velocity":102,"startTime":214.23915899999997,"endTime":214.4022025,"isDrum":true},{"pitch":40,"velocity":102,"startTime":214.56524599999997,"endTime":214.7282895,"isDrum":true},{"pitch":42,"velocity":102,"startTime":214.56524599999997,"endTime":214.7282895,"isDrum":true},{"pitch":42,"velocity":102,"startTime":214.89133299999997,"endTime":215.0543765,"isDrum":true},{"pitch":35,"velocity":102,"startTime":215.21741999999998,"endTime":215.3804635,"isDrum":true},{"pitch":42,"velocity":102,"startTime":215.21741999999998,"endTime":215.3804635,"isDrum":true},{"pitch":42,"velocity":102,"startTime":215.54350699999998,"endTime":215.7065505,"isDrum":true},{"pitch":40,"velocity":102,"startTime":215.86959399999998,"endTime":216.0326375,"isDrum":true},{"pitch":42,"velocity":102,"startTime":215.86959399999998,"endTime":216.0326375,"isDrum":true},{"pitch":42,"velocity":102,"startTime":216.19568099999998,"endTime":216.3587245,"isDrum":true},{"pitch":35,"velocity":102,"startTime":216.52176799999998,"endTime":216.6848115,"isDrum":true},{"pitch":42,"velocity":102,"startTime":216.52176799999998,"endTime":216.6848115,"isDrum":true},{"pitch":42,"velocity":102,"startTime":216.84785499999998,"endTime":217.0108985,"isDrum":true},{"pitch":40,"velocity":102,"startTime":217.17394199999998,"endTime":217.3369855,"isDrum":true},{"pitch":42,"velocity":102,"startTime":217.17394199999998,"endTime":217.3369855,"isDrum":true},{"pitch":42,"velocity":102,"startTime":217.50002899999998,"endTime":217.66307249999997,"isDrum":true},{"pitch":35,"velocity":102,"startTime":217.82611599999998,"endTime":217.98915949999997,"isDrum":true},{"pitch":42,"velocity":102,"startTime":217.82611599999998,"endTime":217.98915949999997,"isDrum":true},{"pitch":42,"velocity":102,"startTime":218.152203,"endTime":218.31524649999997,"isDrum":true},{"pitch":40,"velocity":102,"startTime":218.47829,"endTime":218.64133349999997,"isDrum":true},{"pitch":42,"velocity":102,"startTime":218.47829,"endTime":218.64133349999997,"isDrum":true},{"pitch":42,"velocity":102,"startTime":218.804377,"endTime":218.96742049999997,"isDrum":true},{"pitch":35,"velocity":102,"startTime":219.130464,"endTime":219.29350749999998,"isDrum":true},{"pitch":42,"velocity":102,"startTime":219.130464,"endTime":219.29350749999998,"isDrum":true},{"pitch":42,"velocity":102,"startTime":219.456551,"endTime":219.61959449999998,"isDrum":true},{"pitch":40,"velocity":102,"startTime":219.782638,"endTime":219.94568149999998,"isDrum":true},{"pitch":42,"velocity":102,"startTime":219.782638,"endTime":219.94568149999998,"isDrum":true},{"pitch":42,"velocity":102,"startTime":220.108725,"endTime":220.27176849999998,"isDrum":true},{"pitch":35,"velocity":102,"startTime":220.434812,"endTime":220.59785549999998,"isDrum":true},{"pitch":42,"velocity":102,"startTime":220.434812,"endTime":220.59785549999998,"isDrum":true},{"pitch":42,"velocity":102,"startTime":220.760899,"endTime":220.92394249999998,"isDrum":true},{"pitch":40,"velocity":102,"startTime":221.086986,"endTime":221.25002949999998,"isDrum":true},{"pitch":42,"velocity":102,"startTime":221.086986,"endTime":221.25002949999998,"isDrum":true},{"pitch":42,"velocity":102,"startTime":221.413073,"endTime":221.57611649999998,"isDrum":true},{"pitch":35,"velocity":102,"startTime":221.73915999999997,"endTime":221.90220349999998,"isDrum":true},{"pitch":42,"velocity":102,"startTime":221.73915999999997,"endTime":221.90220349999998,"isDrum":true},{"pitch":42,"velocity":102,"startTime":222.06524699999997,"endTime":222.22829049999999,"isDrum":true},{"pitch":40,"velocity":102,"startTime":222.39133399999997,"endTime":222.5543775,"isDrum":true},{"pitch":42,"velocity":102,"startTime":222.39133399999997,"endTime":222.5543775,"isDrum":true},{"pitch":42,"velocity":102,"startTime":222.71742099999997,"endTime":222.8804645,"isDrum":true},{"pitch":35,"velocity":102,"startTime":223.04350799999997,"endTime":223.2065515,"isDrum":true},{"pitch":42,"velocity":102,"startTime":223.04350799999997,"endTime":223.2065515,"isDrum":true},{"pitch":42,"velocity":102,"startTime":223.36959499999998,"endTime":223.5326385,"isDrum":true},{"pitch":40,"velocity":102,"startTime":223.69568199999998,"endTime":223.8587255,"isDrum":true},{"pitch":42,"velocity":102,"startTime":223.69568199999998,"endTime":223.8587255,"isDrum":true},{"pitch":42,"velocity":102,"startTime":224.02176899999998,"endTime":224.1848125,"isDrum":true},{"pitch":35,"velocity":102,"startTime":224.34785599999998,"endTime":224.5108995,"isDrum":true},{"pitch":42,"velocity":102,"startTime":224.34785599999998,"endTime":224.5108995,"isDrum":true},{"pitch":42,"velocity":102,"startTime":224.67394299999998,"endTime":224.8369865,"isDrum":true},{"pitch":40,"velocity":102,"startTime":225.00002999999998,"endTime":225.1630735,"isDrum":true},{"pitch":42,"velocity":102,"startTime":225.00002999999998,"endTime":225.1630735,"isDrum":true},{"pitch":42,"velocity":102,"startTime":225.32611699999998,"endTime":225.4891605,"isDrum":true},{"pitch":35,"velocity":102,"startTime":225.65220399999998,"endTime":225.81524749999997,"isDrum":true},{"pitch":42,"velocity":102,"startTime":225.65220399999998,"endTime":225.81524749999997,"isDrum":true},{"pitch":42,"velocity":102,"startTime":225.97829099999998,"endTime":226.14133449999997,"isDrum":true},{"pitch":40,"velocity":102,"startTime":226.30437799999999,"endTime":226.46742149999997,"isDrum":true},{"pitch":42,"velocity":102,"startTime":226.30437799999999,"endTime":226.46742149999997,"isDrum":true},{"pitch":42,"velocity":102,"startTime":226.630465,"endTime":226.79350849999997,"isDrum":true},{"pitch":35,"velocity":102,"startTime":226.956552,"endTime":227.11959549999997,"isDrum":true},{"pitch":42,"velocity":102,"startTime":226.956552,"endTime":227.11959549999997,"isDrum":true},{"pitch":42,"velocity":102,"startTime":227.282639,"endTime":227.44568249999998,"isDrum":true},{"pitch":40,"velocity":102,"startTime":227.608726,"endTime":227.77176949999998,"isDrum":true},{"pitch":42,"velocity":102,"startTime":227.608726,"endTime":227.77176949999998,"isDrum":true},{"pitch":42,"velocity":102,"startTime":227.934813,"endTime":228.09785649999998,"isDrum":true},{"pitch":35,"velocity":102,"startTime":228.09785649999998,"endTime":228.2609,"isDrum":true},{"pitch":35,"velocity":102,"startTime":228.2609,"endTime":228.42394349999998,"isDrum":true},{"pitch":42,"velocity":102,"startTime":228.2609,"endTime":228.42394349999998,"isDrum":true},{"pitch":42,"velocity":102,"startTime":228.586987,"endTime":228.75003049999998,"isDrum":true},{"pitch":40,"velocity":102,"startTime":228.913074,"endTime":229.07611749999998,"isDrum":true},{"pitch":42,"velocity":102,"startTime":228.913074,"endTime":229.07611749999998,"isDrum":true},{"pitch":42,"velocity":102,"startTime":229.239161,"endTime":229.40220449999998,"isDrum":true},{"pitch":68,"velocity":95,"startTime":208.69567999999998,"endTime":208.8587235,"instrument":1,"program":12},{"pitch":69,"velocity":95,"startTime":208.8587235,"endTime":208.96741916666664,"instrument":1,"program":12},{"pitch":72,"velocity":95,"startTime":209.02176699999998,"endTime":209.13046266666666,"instrument":1,"program":12},{"pitch":69,"velocity":95,"startTime":209.1848105,"endTime":209.2391583333333,"instrument":1,"program":12},{"pitch":74,"velocity":95,"startTime":209.34785399999998,"endTime":209.45654966666666,"instrument":1,"program":12},{"pitch":69,"velocity":95,"startTime":209.51089749999997,"endTime":209.5652453333333,"instrument":1,"program":12},{"pitch":68,"velocity":95,"startTime":209.67394099999999,"endTime":209.78263666666666,"instrument":1,"program":12},{"pitch":69,"velocity":95,"startTime":209.83698449999997,"endTime":209.94568016666665,"instrument":1,"program":12},{"pitch":76,"velocity":95,"startTime":210.000028,"endTime":210.10872366666666,"instrument":1,"program":12},{"pitch":69,"velocity":95,"startTime":210.16307149999997,"endTime":210.27176716666665,"instrument":1,"program":12},{"pitch":74,"velocity":95,"startTime":210.326115,"endTime":210.43481066666666,"instrument":1,"program":12},{"pitch":69,"velocity":95,"startTime":210.48915849999997,"endTime":210.5435063333333,"instrument":1,"program":12},{"pitch":74,"velocity":95,"startTime":210.652202,"endTime":210.76089766666666,"instrument":1,"program":12},{"pitch":69,"velocity":95,"startTime":210.81524549999997,"endTime":210.8695933333333,"instrument":1,"program":12},{"pitch":69,"velocity":95,"startTime":210.978289,"endTime":211.08698466666664,"instrument":1,"program":12},{"pitch":68,"velocity":95,"startTime":211.14133249999998,"endTime":211.25002816666665,"instrument":1,"program":12},{"pitch":72,"velocity":95,"startTime":211.304376,"endTime":211.46741949999998,"instrument":1,"program":12},{"pitch":69,"velocity":95,"startTime":211.46741949999998,"endTime":211.57611516666665,"instrument":1,"program":12},{"pitch":72,"velocity":95,"startTime":211.630463,"endTime":211.73915866666664,"instrument":1,"program":12},{"pitch":69,"velocity":95,"startTime":211.79350649999998,"endTime":211.90220216666665,"instrument":1,"program":12},{"pitch":72,"velocity":95,"startTime":211.95655,"endTime":212.06524566666664,"instrument":1,"program":12},{"pitch":69,"velocity":95,"startTime":212.11959349999998,"endTime":212.22828916666666,"instrument":1,"program":12},{"pitch":72,"velocity":95,"startTime":212.282637,"endTime":212.39133266666664,"instrument":1,"program":12},{"pitch":69,"velocity":95,"startTime":212.44568049999998,"endTime":212.50002833333332,"instrument":1,"program":12},{"pitch":72,"velocity":95,"startTime":212.608724,"endTime":212.71741966666664,"instrument":1,"program":12},{"pitch":69,"velocity":95,"startTime":212.77176749999998,"endTime":212.88046316666666,"instrument":1,"program":12},{"pitch":72,"velocity":95,"startTime":212.934811,"endTime":213.04350666666664,"instrument":1,"program":12},{"pitch":69,"velocity":95,"startTime":213.09785449999998,"endTime":213.20655016666666,"instrument":1,"program":12},{"pitch":72,"velocity":95,"startTime":213.260898,"endTime":213.36959366666665,"instrument":1,"program":12},{"pitch":69,"velocity":95,"startTime":213.42394149999998,"endTime":213.53263716666666,"instrument":1,"program":12},{"pitch":72,"velocity":95,"startTime":213.58698499999997,"endTime":213.6413328333333,"instrument":1,"program":12},{"pitch":69,"velocity":95,"startTime":213.75002849999998,"endTime":213.80437633333332,"instrument":1,"program":12},{"pitch":62,"velocity":95,"startTime":213.91307199999997,"endTime":214.0761155,"instrument":1,"program":12},{"pitch":67,"velocity":95,"startTime":214.0761155,"endTime":214.18481116666666,"instrument":1,"program":12},{"pitch":70,"velocity":95,"startTime":214.23915899999997,"endTime":214.34785466666665,"instrument":1,"program":12},{"pitch":67,"velocity":95,"startTime":214.4022025,"endTime":214.45655033333333,"instrument":1,"program":12},{"pitch":79,"velocity":95,"startTime":214.56524599999997,"endTime":214.67394166666665,"instrument":1,"program":12},{"pitch":70,"velocity":95,"startTime":214.7282895,"endTime":214.78263733333333,"instrument":1,"program":12},{"pitch":67,"velocity":95,"startTime":214.89133299999997,"endTime":214.9456808333333,"instrument":1,"program":12},{"pitch":70,"velocity":95,"startTime":215.0543765,"endTime":215.10872433333333,"instrument":1,"program":12},{"pitch":79,"velocity":95,"startTime":215.21741999999998,"endTime":215.32611566666665,"instrument":1,"program":12},{"pitch":67,"velocity":95,"startTime":215.3804635,"endTime":215.43481133333333,"instrument":1,"program":12},{"pitch":70,"velocity":95,"startTime":215.54350699999998,"endTime":215.65220266666665,"instrument":1,"program":12},{"pitch":67,"velocity":95,"startTime":215.7065505,"endTime":215.81524616666664,"instrument":1,"program":12},{"pitch":70,"velocity":95,"startTime":215.86959399999998,"endTime":215.97828966666665,"instrument":1,"program":12},{"pitch":67,"velocity":95,"startTime":216.0326375,"endTime":216.14133316666664,"instrument":1,"program":12},{"pitch":70,"velocity":95,"startTime":216.19568099999998,"endTime":216.30437666666666,"instrument":1,"program":12},{"pitch":67,"velocity":95,"startTime":216.3587245,"endTime":216.46742016666664,"instrument":1,"program":12},{"pitch":70,"velocity":95,"startTime":216.52176799999998,"endTime":216.6848115,"instrument":1,"program":12},{"pitch":67,"velocity":95,"startTime":216.6848115,"endTime":216.79350716666664,"instrument":1,"program":12},{"pitch":70,"velocity":95,"startTime":216.84785499999998,"endTime":216.95655066666666,"instrument":1,"program":12},{"pitch":74,"velocity":95,"startTime":217.0108985,"endTime":217.0652463333333,"instrument":1,"program":12},{"pitch":79,"velocity":95,"startTime":217.17394199999998,"endTime":217.28263766666666,"instrument":1,"program":12},{"pitch":70,"velocity":95,"startTime":217.3369855,"endTime":217.3913333333333,"instrument":1,"program":12},{"pitch":70,"velocity":95,"startTime":217.50002899999998,"endTime":217.55437683333332,"instrument":1,"program":12},{"pitch":67,"velocity":95,"startTime":217.66307249999997,"endTime":217.7174203333333,"instrument":1,"program":12},{"pitch":70,"velocity":95,"startTime":217.82611599999998,"endTime":217.93481166666666,"instrument":1,"program":12},{"pitch":67,"velocity":95,"startTime":217.98915949999997,"endTime":218.09785516666665,"instrument":1,"program":12},{"pitch":70,"velocity":95,"startTime":218.152203,"endTime":218.20655083333332,"instrument":1,"program":12},{"pitch":74,"velocity":95,"startTime":218.31524649999997,"endTime":218.3695943333333,"instrument":1,"program":12},{"pitch":70,"velocity":95,"startTime":218.47829,"endTime":218.53263783333333,"instrument":1,"program":12},{"pitch":67,"velocity":95,"startTime":218.64133349999997,"endTime":218.6956813333333,"instrument":1,"program":12},{"pitch":70,"velocity":95,"startTime":218.804377,"endTime":218.85872483333333,"instrument":1,"program":12},{"pitch":70,"velocity":95,"startTime":218.96742049999997,"endTime":219.0217683333333,"instrument":1,"program":12},{"pitch":62,"velocity":95,"startTime":219.130464,"endTime":219.29350749999998,"instrument":1,"program":12},{"pitch":69,"velocity":95,"startTime":219.29350749999998,"endTime":219.40220316666665,"instrument":1,"program":12},{"pitch":72,"velocity":95,"startTime":219.456551,"endTime":219.56524666666664,"instrument":1,"program":12},{"pitch":72,"velocity":95,"startTime":219.61959449999998,"endTime":219.67394233333331,"instrument":1,"program":12},{"pitch":69,"velocity":95,"startTime":219.782638,"endTime":219.89133366666664,"instrument":1,"program":12},{"pitch":72,"velocity":95,"startTime":219.94568149999998,"endTime":220.05437716666665,"instrument":1,"program":12},{"pitch":69,"velocity":95,"startTime":220.108725,"endTime":220.21742066666664,"instrument":1,"program":12},{"pitch":72,"velocity":95,"startTime":220.27176849999998,"endTime":220.38046416666666,"instrument":1,"program":12},{"pitch":69,"velocity":95,"startTime":220.434812,"endTime":220.54350766666664,"instrument":1,"program":12},{"pitch":72,"velocity":95,"startTime":220.59785549999998,"endTime":220.70655116666666,"instrument":1,"program":12},{"pitch":72,"velocity":95,"startTime":220.760899,"endTime":220.86959466666664,"instrument":1,"program":12},{"pitch":69,"velocity":95,"startTime":220.92394249999998,"endTime":220.97829033333332,"instrument":1,"program":12},{"pitch":74,"velocity":95,"startTime":221.086986,"endTime":221.19568166666664,"instrument":1,"program":12},{"pitch":69,"velocity":95,"startTime":221.25002949999998,"endTime":221.30437733333332,"instrument":1,"program":12},{"pitch":72,"velocity":95,"startTime":221.413073,"endTime":221.4674208333333,"instrument":1,"program":12},{"pitch":69,"velocity":95,"startTime":221.57611649999998,"endTime":221.63046433333332,"instrument":1,"program":12},{"pitch":69,"velocity":95,"startTime":221.73915999999997,"endTime":221.90220349999998,"instrument":1,"program":12},{"pitch":72,"velocity":95,"startTime":221.90220349999998,"endTime":222.01089916666666,"instrument":1,"program":12},{"pitch":72,"velocity":95,"startTime":222.06524699999997,"endTime":222.1195948333333,"instrument":1,"program":12},{"pitch":69,"velocity":95,"startTime":222.22829049999999,"endTime":222.28263833333332,"instrument":1,"program":12},{"pitch":72,"velocity":95,"startTime":222.39133399999997,"endTime":222.50002966666665,"instrument":1,"program":12},{"pitch":69,"velocity":95,"startTime":222.5543775,"endTime":222.60872533333333,"instrument":1,"program":12},{"pitch":72,"velocity":95,"startTime":222.71742099999997,"endTime":222.7717688333333,"instrument":1,"program":12},{"pitch":69,"velocity":95,"startTime":222.8804645,"endTime":222.93481233333333,"instrument":1,"program":12},{"pitch":74,"velocity":95,"startTime":223.04350799999997,"endTime":223.15220366666665,"instrument":1,"program":12},{"pitch":69,"velocity":95,"startTime":223.2065515,"endTime":223.31524716666664,"instrument":1,"program":12},{"pitch":72,"velocity":95,"startTime":223.36959499999998,"endTime":223.4239428333333,"instrument":1,"program":12},{"pitch":69,"velocity":95,"startTime":223.5326385,"endTime":223.58698633333333,"instrument":1,"program":12},{"pitch":72,"velocity":95,"startTime":223.69568199999998,"endTime":223.80437766666665,"instrument":1,"program":12},{"pitch":69,"velocity":95,"startTime":223.8587255,"endTime":223.96742116666664,"instrument":1,"program":12},{"pitch":72,"velocity":95,"startTime":224.02176899999998,"endTime":224.13046466666665,"instrument":1,"program":12},{"pitch":72,"velocity":95,"startTime":224.1848125,"endTime":224.29350816666664,"instrument":1,"program":12},{"pitch":70,"velocity":95,"startTime":224.34785599999998,"endTime":224.5108995,"instrument":1,"program":12},{"pitch":67,"velocity":95,"startTime":224.5108995,"endTime":224.61959516666664,"instrument":1,"program":12},{"pitch":70,"velocity":95,"startTime":224.67394299999998,"endTime":224.78263866666666,"instrument":1,"program":12},{"pitch":67,"velocity":95,"startTime":224.8369865,"endTime":224.8913343333333,"instrument":1,"program":12},{"pitch":70,"velocity":95,"startTime":225.00002999999998,"endTime":225.10872566666666,"instrument":1,"program":12},{"pitch":67,"velocity":95,"startTime":225.1630735,"endTime":225.27176916666664,"instrument":1,"program":12},{"pitch":70,"velocity":95,"startTime":225.32611699999998,"endTime":225.43481266666666,"instrument":1,"program":12},{"pitch":70,"velocity":95,"startTime":225.4891605,"endTime":225.59785616666665,"instrument":1,"program":12},{"pitch":74,"velocity":95,"startTime":225.65220399999998,"endTime":225.76089966666666,"instrument":1,"program":12},{"pitch":67,"velocity":95,"startTime":225.81524749999997,"endTime":225.8695953333333,"instrument":1,"program":12},{"pitch":70,"velocity":95,"startTime":225.97829099999998,"endTime":226.03263883333332,"instrument":1,"program":12},{"pitch":70,"velocity":95,"startTime":226.14133449999997,"endTime":226.1956823333333,"instrument":1,"program":12},{"pitch":67,"velocity":95,"startTime":226.30437799999999,"endTime":226.41307366666666,"instrument":1,"program":12},{"pitch":70,"velocity":95,"startTime":226.46742149999997,"endTime":226.5217693333333,"instrument":1,"program":12},{"pitch":67,"velocity":95,"startTime":226.630465,"endTime":226.68481283333332,"instrument":1,"program":12},{"pitch":70,"velocity":95,"startTime":226.79350849999997,"endTime":226.8478563333333,"instrument":1,"program":12},{"pitch":67,"velocity":95,"startTime":226.956552,"endTime":227.11959549999997,"instrument":1,"program":12},{"pitch":62,"velocity":95,"startTime":227.11959549999997,"endTime":227.22829116666665,"instrument":1,"program":12},{"pitch":65,"velocity":95,"startTime":227.282639,"endTime":227.39133466666664,"instrument":1,"program":12},{"pitch":67,"velocity":95,"startTime":227.44568249999998,"endTime":227.55437816666665,"instrument":1,"program":12},{"pitch":74,"velocity":95,"startTime":227.608726,"endTime":227.71742166666664,"instrument":1,"program":12},{"pitch":67,"velocity":95,"startTime":227.77176949999998,"endTime":227.88046516666665,"instrument":1,"program":12},{"pitch":65,"velocity":95,"startTime":227.934813,"endTime":228.04350866666664,"instrument":1,"program":12},{"pitch":70,"velocity":95,"startTime":228.09785649999998,"endTime":228.15220433333332,"instrument":1,"program":12},{"pitch":67,"velocity":95,"startTime":228.2609,"endTime":228.36959566666664,"instrument":1,"program":12},{"pitch":70,"velocity":95,"startTime":228.42394349999998,"endTime":228.53263916666666,"instrument":1,"program":12},{"pitch":74,"velocity":95,"startTime":228.586987,"endTime":228.69568266666664,"instrument":1,"program":12},{"pitch":65,"velocity":95,"startTime":228.75003049999998,"endTime":228.80437833333332,"instrument":1,"program":12},{"pitch":62,"velocity":95,"startTime":228.913074,"endTime":229.02176966666664,"instrument":1,"program":12},{"pitch":70,"velocity":95,"startTime":229.07611749999998,"endTime":229.18481316666666,"instrument":1,"program":12},{"pitch":65,"velocity":95,"startTime":229.239161,"endTime":229.34785666666664,"instrument":1,"program":12},{"pitch":67,"velocity":95,"startTime":229.40220449999998,"endTime":229.45655233333332,"instrument":1,"program":12},{"pitch":38,"velocity":110,"startTime":208.69567999999998,"endTime":209.02176699999998,"instrument":2,"program":32},{"pitch":42,"velocity":110,"startTime":209.1848105,"endTime":209.34785399999998,"instrument":2,"program":32},{"pitch":38,"velocity":110,"startTime":209.51089749999997,"endTime":209.67394099999999,"instrument":2,"program":32},{"pitch":38,"velocity":110,"startTime":209.67394099999999,"endTime":209.83698449999997,"instrument":2,"program":32},{"pitch":33,"velocity":110,"startTime":210.000028,"endTime":210.16307149999997,"instrument":2,"program":32},{"pitch":33,"velocity":110,"startTime":210.326115,"endTime":210.48915849999997,"instrument":2,"program":32},{"pitch":33,"velocity":110,"startTime":210.652202,"endTime":210.81524549999997,"instrument":2,"program":32},{"pitch":38,"velocity":110,"startTime":211.14133249999998,"endTime":211.304376,"instrument":2,"program":32},{"pitch":38,"velocity":110,"startTime":211.46741949999998,"endTime":211.630463,"instrument":2,"program":32},{"pitch":35,"velocity":110,"startTime":211.79350649999998,"endTime":211.95655,"instrument":2,"program":32},{"pitch":30,"velocity":110,"startTime":212.11959349999998,"endTime":212.282637,"instrument":2,"program":32},{"pitch":38,"velocity":110,"startTime":212.282637,"endTime":212.44568049999998,"instrument":2,"program":32},{"pitch":38,"velocity":110,"startTime":212.608724,"endTime":212.77176749999998,"instrument":2,"program":32},{"pitch":45,"velocity":110,"startTime":212.934811,"endTime":213.09785449999998,"instrument":2,"program":32},{"pitch":42,"velocity":110,"startTime":213.260898,"endTime":213.42394149999998,"instrument":2,"program":32},{"pitch":42,"velocity":110,"startTime":213.58698499999997,"endTime":213.75002849999998,"instrument":2,"program":32},{"pitch":31,"velocity":110,"startTime":213.91307199999997,"endTime":214.23915899999997,"instrument":2,"program":32},{"pitch":31,"velocity":110,"startTime":214.4022025,"endTime":214.56524599999997,"instrument":2,"program":32},{"pitch":34,"velocity":110,"startTime":214.7282895,"endTime":214.89133299999997,"instrument":2,"program":32},{"pitch":38,"velocity":110,"startTime":214.89133299999997,"endTime":215.0543765,"instrument":2,"program":32},{"pitch":34,"velocity":110,"startTime":215.21741999999998,"endTime":215.3804635,"instrument":2,"program":32},{"pitch":34,"velocity":110,"startTime":215.3804635,"endTime":215.54350699999998,"instrument":2,"program":32},{"pitch":34,"velocity":110,"startTime":215.7065505,"endTime":215.86959399999998,"instrument":2,"program":32},{"pitch":34,"velocity":110,"startTime":216.0326375,"endTime":216.19568099999998,"instrument":2,"program":32},{"pitch":38,"velocity":110,"startTime":216.19568099999998,"endTime":216.3587245,"instrument":2,"program":32},{"pitch":31,"velocity":110,"startTime":216.52176799999998,"endTime":216.84785499999998,"instrument":2,"program":32},{"pitch":31,"velocity":110,"startTime":217.0108985,"endTime":217.17394199999998,"instrument":2,"program":32},{"pitch":38,"velocity":110,"startTime":217.3369855,"endTime":217.50002899999998,"instrument":2,"program":32},{"pitch":50,"velocity":110,"startTime":217.50002899999998,"endTime":217.66307249999997,"instrument":2,"program":32},{"pitch":43,"velocity":110,"startTime":217.82611599999998,"endTime":218.152203,"instrument":2,"program":32},{"pitch":38,"velocity":110,"startTime":218.31524649999997,"endTime":218.47829,"instrument":2,"program":32},{"pitch":38,"velocity":110,"startTime":218.64133349999997,"endTime":218.804377,"instrument":2,"program":32},{"pitch":34,"velocity":110,"startTime":218.804377,"endTime":218.96742049999997,"instrument":2,"program":32},{"pitch":38,"velocity":110,"startTime":219.130464,"endTime":219.456551,"instrument":2,"program":32},{"pitch":50,"velocity":110,"startTime":219.61959449999998,"endTime":219.782638,"instrument":2,"program":32},{"pitch":50,"velocity":110,"startTime":219.94568149999998,"endTime":220.108725,"instrument":2,"program":32},{"pitch":38,"velocity":110,"startTime":220.108725,"endTime":220.27176849999998,"instrument":2,"program":32},{"pitch":38,"velocity":110,"startTime":220.434812,"endTime":220.59785549999998,"instrument":2,"program":32},{"pitch":38,"velocity":110,"startTime":220.760899,"endTime":220.92394249999998,"instrument":2,"program":32},{"pitch":38,"velocity":110,"startTime":221.086986,"endTime":221.25002949999998,"instrument":2,"program":32},{"pitch":50,"velocity":110,"startTime":221.413073,"endTime":221.57611649999998,"instrument":2,"program":32},{"pitch":38,"velocity":110,"startTime":221.73915999999997,"endTime":222.06524699999997,"instrument":2,"program":32},{"pitch":38,"velocity":110,"startTime":222.22829049999999,"endTime":222.39133399999997,"instrument":2,"program":32},{"pitch":38,"velocity":110,"startTime":222.5543775,"endTime":222.71742099999997,"instrument":2,"program":32},{"pitch":38,"velocity":110,"startTime":222.71742099999997,"endTime":222.8804645,"instrument":2,"program":32},{"pitch":38,"velocity":110,"startTime":223.04350799999997,"endTime":223.2065515,"instrument":2,"program":32},{"pitch":38,"velocity":110,"startTime":223.36959499999998,"endTime":223.5326385,"instrument":2,"program":32},{"pitch":38,"velocity":110,"startTime":223.69568199999998,"endTime":223.8587255,"instrument":2,"program":32},{"pitch":38,"velocity":110,"startTime":224.02176899999998,"endTime":224.1848125,"instrument":2,"program":32},{"pitch":31,"velocity":110,"startTime":224.34785599999998,"endTime":224.67394299999998,"instrument":2,"program":32},{"pitch":31,"velocity":110,"startTime":224.8369865,"endTime":225.00002999999998,"instrument":2,"program":32},{"pitch":31,"velocity":110,"startTime":225.1630735,"endTime":225.32611699999998,"instrument":2,"program":32},{"pitch":34,"velocity":110,"startTime":225.32611699999998,"endTime":225.4891605,"instrument":2,"program":32},{"pitch":31,"velocity":110,"startTime":225.65220399999998,"endTime":225.81524749999997,"instrument":2,"program":32},{"pitch":31,"velocity":110,"startTime":225.97829099999998,"endTime":226.14133449999997,"instrument":2,"program":32},{"pitch":31,"velocity":110,"startTime":226.30437799999999,"endTime":226.46742149999997,"instrument":2,"program":32},{"pitch":31,"velocity":110,"startTime":226.630465,"endTime":226.79350849999997,"instrument":2,"program":32},{"pitch":31,"velocity":110,"startTime":226.956552,"endTime":227.282639,"instrument":2,"program":32},{"pitch":31,"velocity":110,"startTime":227.44568249999998,"endTime":227.608726,"instrument":2,"program":32},{"pitch":31,"velocity":110,"startTime":227.77176949999998,"endTime":227.934813,"instrument":2,"program":32},{"pitch":31,"velocity":110,"startTime":227.934813,"endTime":228.09785649999998,"instrument":2,"program":32},{"pitch":34,"velocity":110,"startTime":228.2609,"endTime":228.42394349999998,"instrument":2,"program":32},{"pitch":31,"velocity":110,"startTime":228.586987,"endTime":228.75003049999998,"instrument":2,"program":32},{"pitch":31,"velocity":110,"startTime":228.913074,"endTime":229.07611749999998,"instrument":2,"program":32},{"pitch":29,"velocity":110,"startTime":229.239161,"endTime":229.40220449999998,"instrument":2,"program":32},{"pitch":58,"velocity":105,"startTime":208.69567999999998,"endTime":211.304376,"instrument":3,"program":50},{"pitch":60,"velocity":105,"startTime":208.69567999999998,"endTime":211.304376,"instrument":3,"program":50},{"pitch":64,"velocity":105,"startTime":208.69567999999998,"endTime":211.304376,"instrument":3,"program":50},{"pitch":66,"velocity":105,"startTime":208.69567999999998,"endTime":211.304376,"instrument":3,"program":50},{"pitch":58,"velocity":105,"startTime":211.304376,"endTime":211.79350649999998,"instrument":3,"program":50},{"pitch":62,"velocity":105,"startTime":211.304376,"endTime":211.84785433333332,"instrument":3,"program":50},{"pitch":66,"velocity":105,"startTime":211.304376,"endTime":212.44568049999998,"instrument":3,"program":50},{"pitch":69,"velocity":105,"startTime":211.304376,"endTime":211.84785433333332,"instrument":3,"program":50},{"pitch":54,"velocity":105,"startTime":211.630463,"endTime":211.84785433333332,"instrument":3,"program":50},{"pitch":57,"velocity":105,"startTime":211.95655,"endTime":213.80437633333332,"instrument":3,"program":50},{"pitch":60,"velocity":105,"startTime":211.95655,"endTime":212.50002833333332,"instrument":3,"program":50},{"pitch":66,"velocity":105,"startTime":212.50002833333332,"endTime":213.75002849999998,"instrument":3,"program":50},{"pitch":72,"velocity":105,"startTime":212.608724,"endTime":213.75002849999998,"instrument":3,"program":50},{"pitch":69,"velocity":105,"startTime":212.6630718333333,"endTime":212.82611533333332,"instrument":3,"program":50},{"pitch":68,"velocity":105,"startTime":212.934811,"endTime":213.80437633333332,"instrument":3,"program":50},{"pitch":62,"velocity":105,"startTime":213.91307199999997,"endTime":216.52176799999998,"instrument":3,"program":50},{"pitch":67,"velocity":105,"startTime":213.91307199999997,"endTime":216.52176799999998,"instrument":3,"program":50},{"pitch":70,"velocity":105,"startTime":213.91307199999997,"endTime":216.52176799999998,"instrument":3,"program":50},{"pitch":74,"velocity":105,"startTime":213.91307199999997,"endTime":216.52176799999998,"instrument":3,"program":50},{"pitch":62,"velocity":105,"startTime":216.52176799999998,"endTime":218.0435073333333,"instrument":3,"program":50},{"pitch":65,"velocity":105,"startTime":216.52176799999998,"endTime":218.26089866666666,"instrument":3,"program":50},{"pitch":67,"velocity":105,"startTime":216.52176799999998,"endTime":218.91307266666664,"instrument":3,"program":50},{"pitch":70,"velocity":105,"startTime":216.52176799999998,"endTime":218.96742049999997,"instrument":3,"program":50},{"pitch":62,"velocity":105,"startTime":218.31524649999997,"endTime":218.47829,"instrument":3,"program":50},{"pitch":55,"velocity":105,"startTime":218.47829,"endTime":218.96742049999997,"instrument":3,"program":50},{"pitch":62,"velocity":105,"startTime":218.804377,"endTime":218.96742049999997,"instrument":3,"program":50},{"pitch":60,"velocity":105,"startTime":219.130464,"endTime":221.73915999999997,"instrument":3,"program":50},{"pitch":62,"velocity":105,"startTime":219.130464,"endTime":221.73915999999997,"instrument":3,"program":50},{"pitch":66,"velocity":105,"startTime":219.130464,"endTime":221.73915999999997,"instrument":3,"program":50},{"pitch":69,"velocity":105,"startTime":219.130464,"endTime":221.73915999999997,"instrument":3,"program":50},{"pitch":60,"velocity":105,"startTime":221.73915999999997,"endTime":224.13046466666665,"instrument":3,"program":50},{"pitch":62,"velocity":105,"startTime":221.73915999999997,"endTime":224.1848125,"instrument":3,"program":50},{"pitch":66,"velocity":105,"startTime":221.73915999999997,"endTime":224.1848125,"instrument":3,"program":50},{"pitch":69,"velocity":105,"startTime":221.73915999999997,"endTime":224.1848125,"instrument":3,"program":50},{"pitch":62,"velocity":105,"startTime":224.34785599999998,"endTime":226.68481283333332,"instrument":3,"program":50},{"pitch":67,"velocity":105,"startTime":224.34785599999998,"endTime":226.73916066666666,"instrument":3,"program":50},{"pitch":70,"velocity":105,"startTime":224.34785599999998,"endTime":226.73916066666666,"instrument":3,"program":50},{"pitch":62,"velocity":105,"startTime":227.608726,"endTime":227.71742166666664,"instrument":3,"program":50},{"pitch":67,"velocity":105,"startTime":227.608726,"endTime":227.71742166666664,"instrument":3,"program":50},{"pitch":74,"velocity":105,"startTime":227.608726,"endTime":227.77176949999998,"instrument":3,"program":50},{"pitch":62,"velocity":105,"startTime":227.77176949999998,"endTime":227.98916083333333,"instrument":3,"program":50},{"pitch":67,"velocity":105,"startTime":227.77176949999998,"endTime":227.98916083333333,"instrument":3,"program":50},{"pitch":74,"velocity":105,"startTime":227.77176949999998,"endTime":227.98916083333333,"instrument":3,"program":50},{"pitch":62,"velocity":105,"startTime":228.2609,"endTime":228.586987,"instrument":3,"program":50},{"pitch":67,"velocity":105,"startTime":228.2609,"endTime":228.586987,"instrument":3,"program":50},{"pitch":74,"velocity":105,"startTime":228.2609,"endTime":228.586987,"instrument":3,"program":50},{"pitch":62,"velocity":105,"startTime":228.586987,"endTime":229.45655233333332,"instrument":3,"program":50},{"pitch":67,"velocity":105,"startTime":228.586987,"endTime":229.565248,"instrument":3,"program":50},{"pitch":74,"velocity":105,"startTime":228.586987,"endTime":229.51090016666666,"instrument":3,"program":50},{"pitch":62,"velocity":105,"startTime":229.45655233333332,"endTime":229.565248,"instrument":3,"program":50},{"pitch":35,"velocity":102,"startTime":229.565248,"endTime":229.67394366666664,"isDrum":true},{"pitch":42,"velocity":102,"startTime":229.565248,"endTime":229.67394366666664,"isDrum":true},{"pitch":51,"velocity":102,"startTime":229.565248,"endTime":229.67394366666664,"isDrum":true},{"pitch":42,"velocity":102,"startTime":229.89133499999997,"endTime":230.00003066666665,"isDrum":true},{"pitch":51,"velocity":102,"startTime":229.89133499999997,"endTime":230.00003066666665,"isDrum":true},{"pitch":42,"velocity":102,"startTime":231.19568299999997,"endTime":231.30437866666665,"isDrum":true},{"pitch":51,"velocity":102,"startTime":231.19568299999997,"endTime":231.30437866666665,"isDrum":true},{"pitch":35,"velocity":102,"startTime":231.3587265,"endTime":231.46742216666664,"isDrum":true},{"pitch":51,"velocity":102,"startTime":231.3587265,"endTime":231.46742216666664,"isDrum":true},{"pitch":35,"velocity":102,"startTime":231.52176999999998,"endTime":231.63046566666665,"isDrum":true},{"pitch":42,"velocity":102,"startTime":231.52176999999998,"endTime":231.63046566666665,"isDrum":true},{"pitch":51,"velocity":102,"startTime":231.52176999999998,"endTime":231.63046566666665,"isDrum":true},{"pitch":42,"velocity":102,"startTime":231.84785699999998,"endTime":231.95655266666665,"isDrum":true},{"pitch":51,"velocity":102,"startTime":231.84785699999998,"endTime":231.95655266666665,"isDrum":true},{"pitch":51,"velocity":102,"startTime":232.0109005,"endTime":232.11959616666664,"isDrum":true},{"pitch":40,"velocity":102,"startTime":232.17394399999998,"endTime":232.28263966666665,"isDrum":true},{"pitch":42,"velocity":102,"startTime":232.17394399999998,"endTime":232.28263966666665,"isDrum":true},{"pitch":35,"velocity":102,"startTime":232.50003099999998,"endTime":232.60872666666666,"isDrum":true},{"pitch":42,"velocity":102,"startTime":232.50003099999998,"endTime":232.60872666666666,"isDrum":true},{"pitch":51,"velocity":102,"startTime":232.50003099999998,"endTime":232.60872666666666,"isDrum":true},{"pitch":40,"velocity":102,"startTime":232.6630745,"endTime":232.77177016666664,"isDrum":true},{"pitch":35,"velocity":102,"startTime":232.82611799999998,"endTime":232.93481366666666,"isDrum":true},{"pitch":42,"velocity":102,"startTime":232.82611799999998,"endTime":232.93481366666666,"isDrum":true},{"pitch":51,"velocity":102,"startTime":232.82611799999998,"endTime":232.93481366666666,"isDrum":true},{"pitch":35,"velocity":102,"startTime":233.15220499999998,"endTime":233.26090066666666,"isDrum":true},{"pitch":42,"velocity":102,"startTime":233.15220499999998,"endTime":233.26090066666666,"isDrum":true},{"pitch":51,"velocity":102,"startTime":233.15220499999998,"endTime":233.26090066666666,"isDrum":true},{"pitch":40,"velocity":102,"startTime":233.3152485,"endTime":233.42394416666664,"isDrum":true},{"pitch":40,"velocity":102,"startTime":233.47829199999998,"endTime":233.58698766666666,"isDrum":true},{"pitch":42,"velocity":102,"startTime":233.47829199999998,"endTime":233.58698766666666,"isDrum":true},{"pitch":42,"velocity":102,"startTime":233.80437899999998,"endTime":233.91307466666666,"isDrum":true},{"pitch":51,"velocity":102,"startTime":233.80437899999998,"endTime":233.91307466666666,"isDrum":true},{"pitch":40,"velocity":102,"startTime":233.96742249999997,"endTime":234.07611816666665,"isDrum":true},{"pitch":35,"velocity":102,"startTime":234.13046599999998,"endTime":234.23916166666666,"isDrum":true},{"pitch":42,"velocity":102,"startTime":234.13046599999998,"endTime":234.23916166666666,"isDrum":true},{"pitch":35,"velocity":102,"startTime":234.45655299999999,"endTime":234.56524866666666,"isDrum":true},{"pitch":42,"velocity":102,"startTime":234.45655299999999,"endTime":234.56524866666666,"isDrum":true},{"pitch":51,"velocity":102,"startTime":234.45655299999999,"endTime":234.56524866666666,"isDrum":true},{"pitch":40,"velocity":102,"startTime":234.61959649999997,"endTime":234.72829216666665,"isDrum":true},{"pitch":40,"velocity":102,"startTime":234.78264,"endTime":234.89133566666666,"isDrum":true},{"pitch":42,"velocity":102,"startTime":234.78264,"endTime":234.89133566666666,"isDrum":true},{"pitch":35,"velocity":102,"startTime":235.108727,"endTime":235.21742266666664,"isDrum":true},{"pitch":42,"velocity":102,"startTime":235.108727,"endTime":235.21742266666664,"isDrum":true},{"pitch":51,"velocity":102,"startTime":235.108727,"endTime":235.21742266666664,"isDrum":true},{"pitch":35,"velocity":102,"startTime":235.434814,"endTime":235.54350966666664,"isDrum":true},{"pitch":42,"velocity":102,"startTime":235.434814,"endTime":235.54350966666664,"isDrum":true},{"pitch":51,"velocity":102,"startTime":235.434814,"endTime":235.54350966666664,"isDrum":true},{"pitch":42,"velocity":102,"startTime":235.760901,"endTime":235.86959666666664,"isDrum":true},{"pitch":40,"velocity":102,"startTime":236.086988,"endTime":236.19568366666664,"isDrum":true},{"pitch":42,"velocity":102,"startTime":236.086988,"endTime":236.19568366666664,"isDrum":true},{"pitch":42,"velocity":102,"startTime":236.413075,"endTime":236.52177066666664,"isDrum":true},{"pitch":51,"velocity":102,"startTime":236.413075,"endTime":236.52177066666664,"isDrum":true},{"pitch":35,"velocity":102,"startTime":236.57611849999998,"endTime":236.68481416666665,"isDrum":true},{"pitch":35,"velocity":102,"startTime":236.739162,"endTime":236.84785766666664,"isDrum":true},{"pitch":42,"velocity":102,"startTime":236.739162,"endTime":236.84785766666664,"isDrum":true},{"pitch":51,"velocity":102,"startTime":236.739162,"endTime":236.84785766666664,"isDrum":true},{"pitch":35,"velocity":102,"startTime":237.065249,"endTime":237.17394466666664,"isDrum":true},{"pitch":42,"velocity":102,"startTime":237.065249,"endTime":237.17394466666664,"isDrum":true},{"pitch":51,"velocity":102,"startTime":237.065249,"endTime":237.17394466666664,"isDrum":true},{"pitch":40,"velocity":102,"startTime":237.391336,"endTime":237.50003166666664,"isDrum":true},{"pitch":42,"velocity":102,"startTime":237.391336,"endTime":237.50003166666664,"isDrum":true},{"pitch":35,"velocity":102,"startTime":237.71742299999997,"endTime":237.82611866666664,"isDrum":true},{"pitch":42,"velocity":102,"startTime":237.71742299999997,"endTime":237.82611866666664,"isDrum":true},{"pitch":51,"velocity":102,"startTime":237.71742299999997,"endTime":237.82611866666664,"isDrum":true},{"pitch":35,"velocity":102,"startTime":238.04350999999997,"endTime":238.15220566666665,"isDrum":true},{"pitch":42,"velocity":102,"startTime":238.04350999999997,"endTime":238.15220566666665,"isDrum":true},{"pitch":51,"velocity":102,"startTime":238.04350999999997,"endTime":238.15220566666665,"isDrum":true},{"pitch":42,"velocity":102,"startTime":238.36959699999997,"endTime":238.47829266666665,"isDrum":true},{"pitch":51,"velocity":102,"startTime":238.36959699999997,"endTime":238.47829266666665,"isDrum":true},{"pitch":40,"velocity":102,"startTime":238.69568399999997,"endTime":238.80437966666665,"isDrum":true},{"pitch":42,"velocity":102,"startTime":238.69568399999997,"endTime":238.80437966666665,"isDrum":true},{"pitch":42,"velocity":102,"startTime":239.02177099999997,"endTime":239.13046666666665,"isDrum":true},{"pitch":51,"velocity":102,"startTime":239.02177099999997,"endTime":239.13046666666665,"isDrum":true},{"pitch":35,"velocity":102,"startTime":239.1848145,"endTime":239.29351016666664,"isDrum":true},{"pitch":35,"velocity":102,"startTime":239.34785799999997,"endTime":239.45655366666665,"isDrum":true},{"pitch":42,"velocity":102,"startTime":239.34785799999997,"endTime":239.45655366666665,"isDrum":true},{"pitch":51,"velocity":102,"startTime":239.34785799999997,"endTime":239.45655366666665,"isDrum":true},{"pitch":35,"velocity":102,"startTime":239.67394499999997,"endTime":239.78264066666665,"isDrum":true},{"pitch":42,"velocity":102,"startTime":239.67394499999997,"endTime":239.78264066666665,"isDrum":true},{"pitch":51,"velocity":102,"startTime":239.67394499999997,"endTime":239.78264066666665,"isDrum":true},{"pitch":40,"velocity":102,"startTime":240.00003199999998,"endTime":240.10872766666665,"isDrum":true},{"pitch":42,"velocity":102,"startTime":240.00003199999998,"endTime":240.10872766666665,"isDrum":true},{"pitch":35,"velocity":102,"startTime":240.32611899999998,"endTime":240.43481466666665,"isDrum":true},{"pitch":42,"velocity":102,"startTime":240.32611899999998,"endTime":240.43481466666665,"isDrum":true},{"pitch":51,"velocity":102,"startTime":240.32611899999998,"endTime":240.43481466666665,"isDrum":true},{"pitch":35,"velocity":102,"startTime":240.65220599999998,"endTime":240.76090166666665,"isDrum":true},{"pitch":42,"velocity":102,"startTime":240.65220599999998,"endTime":240.76090166666665,"isDrum":true},{"pitch":42,"velocity":102,"startTime":240.97829299999998,"endTime":241.08698866666666,"isDrum":true},{"pitch":51,"velocity":102,"startTime":240.97829299999998,"endTime":241.08698866666666,"isDrum":true},{"pitch":40,"velocity":102,"startTime":241.30437999999998,"endTime":241.41307566666666,"isDrum":true},{"pitch":42,"velocity":102,"startTime":241.30437999999998,"endTime":241.41307566666666,"isDrum":true},{"pitch":42,"velocity":102,"startTime":241.63046699999998,"endTime":241.73916266666666,"isDrum":true},{"pitch":51,"velocity":102,"startTime":241.63046699999998,"endTime":241.73916266666666,"isDrum":true},{"pitch":35,"velocity":102,"startTime":241.79351049999997,"endTime":241.90220616666664,"isDrum":true},{"pitch":35,"velocity":102,"startTime":241.95655399999998,"endTime":242.06524966666666,"isDrum":true},{"pitch":42,"velocity":102,"startTime":241.95655399999998,"endTime":242.06524966666666,"isDrum":true},{"pitch":35,"velocity":102,"startTime":242.28264099999998,"endTime":242.39133666666666,"isDrum":true},{"pitch":42,"velocity":102,"startTime":242.28264099999998,"endTime":242.39133666666666,"isDrum":true},{"pitch":51,"velocity":102,"startTime":242.28264099999998,"endTime":242.39133666666666,"isDrum":true},{"pitch":40,"velocity":102,"startTime":242.60872799999999,"endTime":242.71742366666666,"isDrum":true},{"pitch":42,"velocity":102,"startTime":242.60872799999999,"endTime":242.71742366666666,"isDrum":true},{"pitch":42,"velocity":102,"startTime":242.934815,"endTime":243.04351066666663,"isDrum":true},{"pitch":51,"velocity":102,"startTime":242.934815,"endTime":243.04351066666663,"isDrum":true},{"pitch":35,"velocity":102,"startTime":243.260902,"endTime":243.36959766666664,"isDrum":true},{"pitch":42,"velocity":102,"startTime":243.260902,"endTime":243.36959766666664,"isDrum":true},{"pitch":42,"velocity":102,"startTime":243.586989,"endTime":243.69568466666664,"isDrum":true},{"pitch":51,"velocity":102,"startTime":243.586989,"endTime":243.69568466666664,"isDrum":true},{"pitch":40,"velocity":102,"startTime":243.913076,"endTime":244.02177166666664,"isDrum":true},{"pitch":42,"velocity":102,"startTime":243.913076,"endTime":244.02177166666664,"isDrum":true},{"pitch":42,"velocity":102,"startTime":244.239163,"endTime":244.34785866666664,"isDrum":true},{"pitch":51,"velocity":102,"startTime":244.239163,"endTime":244.34785866666664,"isDrum":true},{"pitch":35,"velocity":102,"startTime":244.40220649999998,"endTime":244.51090216666665,"isDrum":true},{"pitch":35,"velocity":102,"startTime":244.56525,"endTime":244.67394566666664,"isDrum":true},{"pitch":42,"velocity":102,"startTime":244.56525,"endTime":244.67394566666664,"isDrum":true},{"pitch":42,"velocity":102,"startTime":244.891337,"endTime":245.00003266666664,"isDrum":true},{"pitch":40,"velocity":102,"startTime":245.217424,"endTime":245.32611966666664,"isDrum":true},{"pitch":42,"velocity":102,"startTime":245.217424,"endTime":245.32611966666664,"isDrum":true},{"pitch":42,"velocity":102,"startTime":245.543511,"endTime":245.65220666666664,"isDrum":true},{"pitch":35,"velocity":102,"startTime":245.86959799999997,"endTime":245.97829366666664,"isDrum":true},{"pitch":42,"velocity":102,"startTime":245.86959799999997,"endTime":245.97829366666664,"isDrum":true},{"pitch":42,"velocity":102,"startTime":246.19568499999997,"endTime":246.30438066666665,"isDrum":true},{"pitch":40,"velocity":102,"startTime":246.52177199999997,"endTime":246.63046766666665,"isDrum":true},{"pitch":42,"velocity":102,"startTime":246.52177199999997,"endTime":246.63046766666665,"isDrum":true},{"pitch":42,"velocity":102,"startTime":246.84785899999997,"endTime":246.95655466666665,"isDrum":true},{"pitch":35,"velocity":102,"startTime":247.0109025,"endTime":247.11959816666663,"isDrum":true},{"pitch":35,"velocity":102,"startTime":247.17394599999997,"endTime":247.28264166666665,"isDrum":true},{"pitch":42,"velocity":102,"startTime":247.17394599999997,"endTime":247.28264166666665,"isDrum":true},{"pitch":35,"velocity":102,"startTime":247.50003299999997,"endTime":247.60872866666665,"isDrum":true},{"pitch":42,"velocity":102,"startTime":247.50003299999997,"endTime":247.60872866666665,"isDrum":true},{"pitch":40,"velocity":102,"startTime":247.82611999999997,"endTime":247.93481566666665,"isDrum":true},{"pitch":42,"velocity":102,"startTime":247.82611999999997,"endTime":247.93481566666665,"isDrum":true},{"pitch":42,"velocity":102,"startTime":248.15220699999998,"endTime":248.26090266666665,"isDrum":true},{"pitch":35,"velocity":102,"startTime":248.3152505,"endTime":248.42394616666664,"isDrum":true},{"pitch":35,"velocity":102,"startTime":248.47829399999998,"endTime":248.58698966666665,"isDrum":true},{"pitch":42,"velocity":102,"startTime":248.47829399999998,"endTime":248.58698966666665,"isDrum":true},{"pitch":42,"velocity":102,"startTime":248.80438099999998,"endTime":248.91307666666665,"isDrum":true},{"pitch":40,"velocity":102,"startTime":249.13046799999998,"endTime":249.23916366666666,"isDrum":true},{"pitch":42,"velocity":102,"startTime":249.13046799999998,"endTime":249.23916366666666,"isDrum":true},{"pitch":35,"velocity":102,"startTime":249.45655499999998,"endTime":249.5584571875,"isDrum":true},{"pitch":42,"velocity":102,"startTime":249.45655499999998,"endTime":249.5584571875,"isDrum":true},{"pitch":51,"velocity":102,"startTime":249.45655499999998,"endTime":249.5584571875,"isDrum":true},{"pitch":60,"velocity":95,"startTime":229.565248,"endTime":229.67394366666664,"instrument":1,"program":12},{"pitch":63,"velocity":95,"startTime":229.72829149999998,"endTime":229.83698716666666,"instrument":1,"program":12},{"pitch":67,"velocity":95,"startTime":229.89133499999997,"endTime":230.00003066666665,"instrument":1,"program":12},{"pitch":60,"velocity":95,"startTime":230.05437849999998,"endTime":230.10872633333332,"instrument":1,"program":12},{"pitch":63,"velocity":95,"startTime":230.21742199999997,"endTime":230.32611766666665,"instrument":1,"program":12},{"pitch":67,"velocity":95,"startTime":230.38046549999999,"endTime":230.48916116666666,"instrument":1,"program":12},{"pitch":72,"velocity":95,"startTime":230.54350899999997,"endTime":230.65220466666665,"instrument":1,"program":12},{"pitch":63,"velocity":95,"startTime":230.7065525,"endTime":230.76090033333332,"instrument":1,"program":12},{"pitch":60,"velocity":95,"startTime":230.86959599999997,"endTime":230.97829166666665,"instrument":1,"program":12},{"pitch":67,"velocity":95,"startTime":231.0326395,"endTime":231.14133516666664,"instrument":1,"program":12},{"pitch":63,"velocity":95,"startTime":231.19568299999997,"endTime":231.30437866666665,"instrument":1,"program":12},{"pitch":60,"velocity":95,"startTime":231.3587265,"endTime":231.41307433333333,"instrument":1,"program":12},{"pitch":63,"velocity":95,"startTime":231.52176999999998,"endTime":231.63046566666665,"instrument":1,"program":12},{"pitch":67,"velocity":95,"startTime":231.6848135,"endTime":231.79350916666664,"instrument":1,"program":12},{"pitch":60,"velocity":95,"startTime":231.84785699999998,"endTime":231.95655266666665,"instrument":1,"program":12},{"pitch":63,"velocity":95,"startTime":232.0109005,"endTime":232.11959616666664,"instrument":1,"program":12},{"pitch":60,"velocity":95,"startTime":232.17394399999998,"endTime":232.28263966666665,"instrument":1,"program":12},{"pitch":63,"velocity":95,"startTime":232.3369875,"endTime":232.44568316666664,"instrument":1,"program":12},{"pitch":67,"velocity":95,"startTime":232.50003099999998,"endTime":232.60872666666666,"instrument":1,"program":12},{"pitch":60,"velocity":95,"startTime":232.6630745,"endTime":232.7174223333333,"instrument":1,"program":12},{"pitch":75,"velocity":95,"startTime":232.82611799999998,"endTime":232.93481366666666,"instrument":1,"program":12},{"pitch":75,"velocity":95,"startTime":232.9891615,"endTime":233.0435093333333,"instrument":1,"program":12},{"pitch":72,"velocity":95,"startTime":233.3152485,"endTime":233.3695963333333,"instrument":1,"program":12},{"pitch":75,"velocity":95,"startTime":233.47829199999998,"endTime":233.58698766666666,"instrument":1,"program":12},{"pitch":72,"velocity":95,"startTime":233.64133549999997,"endTime":233.6956833333333,"instrument":1,"program":12},{"pitch":63,"velocity":95,"startTime":233.80437899999998,"endTime":233.91307466666666,"instrument":1,"program":12},{"pitch":70,"velocity":95,"startTime":233.96742249999997,"endTime":234.07611816666665,"instrument":1,"program":12},{"pitch":60,"velocity":95,"startTime":234.13046599999998,"endTime":234.23916166666666,"instrument":1,"program":12},{"pitch":63,"velocity":95,"startTime":234.29350949999997,"endTime":234.40220516666665,"instrument":1,"program":12},{"pitch":67,"velocity":95,"startTime":234.45655299999999,"endTime":234.56524866666666,"instrument":1,"program":12},{"pitch":67,"velocity":95,"startTime":234.61959649999997,"endTime":234.6739443333333,"instrument":1,"program":12},{"pitch":62,"velocity":95,"startTime":234.78264,"endTime":234.89133566666666,"instrument":1,"program":12},{"pitch":70,"velocity":95,"startTime":234.94568349999997,"endTime":235.05437916666665,"instrument":1,"program":12},{"pitch":74,"velocity":95,"startTime":235.108727,"endTime":235.21742266666664,"instrument":1,"program":12},{"pitch":70,"velocity":95,"startTime":235.27177049999997,"endTime":235.38046616666665,"instrument":1,"program":12},{"pitch":62,"velocity":95,"startTime":235.434814,"endTime":235.54350966666664,"instrument":1,"program":12},{"pitch":70,"velocity":95,"startTime":235.59785749999998,"endTime":235.70655316666665,"instrument":1,"program":12},{"pitch":74,"velocity":95,"startTime":235.760901,"endTime":235.86959666666664,"instrument":1,"program":12},{"pitch":70,"velocity":95,"startTime":235.92394449999998,"endTime":236.03264016666665,"instrument":1,"program":12},{"pitch":62,"velocity":95,"startTime":236.086988,"endTime":236.19568366666664,"instrument":1,"program":12},{"pitch":70,"velocity":95,"startTime":236.25003149999998,"endTime":236.35872716666665,"instrument":1,"program":12},{"pitch":74,"velocity":95,"startTime":236.413075,"endTime":236.52177066666664,"instrument":1,"program":12},{"pitch":70,"velocity":95,"startTime":236.57611849999998,"endTime":236.68481416666665,"instrument":1,"program":12},{"pitch":62,"velocity":95,"startTime":236.739162,"endTime":236.84785766666664,"instrument":1,"program":12},{"pitch":70,"velocity":95,"startTime":236.90220549999998,"endTime":236.95655333333332,"instrument":1,"program":12},{"pitch":74,"velocity":95,"startTime":237.065249,"endTime":237.17394466666664,"instrument":1,"program":12},{"pitch":70,"velocity":95,"startTime":237.22829249999998,"endTime":237.33698816666666,"instrument":1,"program":12},{"pitch":62,"velocity":95,"startTime":237.391336,"endTime":237.50003166666664,"instrument":1,"program":12},{"pitch":67,"velocity":95,"startTime":237.55437949999998,"endTime":237.66307516666666,"instrument":1,"program":12},{"pitch":70,"velocity":95,"startTime":237.71742299999997,"endTime":237.82611866666664,"instrument":1,"program":12},{"pitch":74,"velocity":95,"startTime":237.88046649999998,"endTime":237.98916216666666,"instrument":1,"program":12},{"pitch":62,"velocity":95,"startTime":238.04350999999997,"endTime":238.15220566666665,"instrument":1,"program":12},{"pitch":67,"velocity":95,"startTime":238.20655349999998,"endTime":238.31524916666666,"instrument":1,"program":12},{"pitch":70,"velocity":95,"startTime":238.36959699999997,"endTime":238.47829266666665,"instrument":1,"program":12},{"pitch":67,"velocity":95,"startTime":238.53264049999999,"endTime":238.64133616666666,"instrument":1,"program":12},{"pitch":74,"velocity":95,"startTime":238.69568399999997,"endTime":238.80437966666665,"instrument":1,"program":12},{"pitch":70,"velocity":95,"startTime":238.8587275,"endTime":238.91307533333332,"instrument":1,"program":12},{"pitch":67,"velocity":95,"startTime":239.02177099999997,"endTime":239.13046666666665,"instrument":1,"program":12},{"pitch":74,"velocity":95,"startTime":239.1848145,"endTime":239.29351016666664,"instrument":1,"program":12},{"pitch":70,"velocity":95,"startTime":239.34785799999997,"endTime":239.45655366666665,"instrument":1,"program":12},{"pitch":67,"velocity":95,"startTime":239.5109015,"endTime":239.56524933333333,"instrument":1,"program":12},{"pitch":70,"velocity":95,"startTime":239.67394499999997,"endTime":239.78264066666665,"instrument":1,"program":12},{"pitch":62,"velocity":95,"startTime":239.8369885,"endTime":239.94568416666664,"instrument":1,"program":12},{"pitch":60,"velocity":95,"startTime":240.00003199999998,"endTime":240.10872766666665,"instrument":1,"program":12},{"pitch":69,"velocity":95,"startTime":240.1630755,"endTime":240.27177116666664,"instrument":1,"program":12},{"pitch":72,"velocity":95,"startTime":240.32611899999998,"endTime":240.43481466666665,"instrument":1,"program":12},{"pitch":69,"velocity":95,"startTime":240.4891625,"endTime":240.59785816666664,"instrument":1,"program":12},{"pitch":62,"velocity":95,"startTime":240.65220599999998,"endTime":240.76090166666665,"instrument":1,"program":12},{"pitch":69,"velocity":95,"startTime":240.8152495,"endTime":240.92394516666664,"instrument":1,"program":12},{"pitch":72,"velocity":95,"startTime":240.97829299999998,"endTime":241.08698866666666,"instrument":1,"program":12},{"pitch":69,"velocity":95,"startTime":241.1413365,"endTime":241.25003216666664,"instrument":1,"program":12},{"pitch":62,"velocity":95,"startTime":241.30437999999998,"endTime":241.41307566666666,"instrument":1,"program":12},{"pitch":69,"velocity":95,"startTime":241.4674235,"endTime":241.57611916666664,"instrument":1,"program":12},{"pitch":69,"velocity":95,"startTime":241.63046699999998,"endTime":241.73916266666666,"instrument":1,"program":12},{"pitch":72,"velocity":95,"startTime":241.79351049999997,"endTime":241.90220616666664,"instrument":1,"program":12},{"pitch":62,"velocity":95,"startTime":241.95655399999998,"endTime":242.06524966666666,"instrument":1,"program":12},{"pitch":69,"velocity":95,"startTime":242.11959749999997,"endTime":242.22829316666665,"instrument":1,"program":12},{"pitch":66,"velocity":95,"startTime":242.28264099999998,"endTime":242.39133666666666,"instrument":1,"program":12},{"pitch":69,"velocity":95,"startTime":242.44568449999997,"endTime":242.5000323333333,"instrument":1,"program":12},{"pitch":62,"velocity":95,"startTime":242.60872799999999,"endTime":242.77177149999997,"instrument":1,"program":12},{"pitch":66,"velocity":95,"startTime":242.77177149999997,"endTime":242.88046716666665,"instrument":1,"program":12},{"pitch":69,"velocity":95,"startTime":242.934815,"endTime":243.04351066666663,"instrument":1,"program":12},{"pitch":69,"velocity":95,"startTime":243.09785849999997,"endTime":243.20655416666665,"instrument":1,"program":12},{"pitch":74,"velocity":95,"startTime":243.260902,"endTime":243.36959766666664,"instrument":1,"program":12},{"pitch":69,"velocity":95,"startTime":243.42394549999997,"endTime":243.53264116666665,"instrument":1,"program":12},{"pitch":66,"velocity":95,"startTime":243.586989,"endTime":243.64133683333333,"instrument":1,"program":12},{"pitch":69,"velocity":95,"startTime":243.75003249999997,"endTime":243.8043803333333,"instrument":1,"program":12},{"pitch":62,"velocity":95,"startTime":243.913076,"endTime":244.02177166666664,"instrument":1,"program":12},{"pitch":69,"velocity":95,"startTime":244.07611949999998,"endTime":244.18481516666665,"instrument":1,"program":12},{"pitch":72,"velocity":95,"startTime":244.239163,"endTime":244.34785866666664,"instrument":1,"program":12},{"pitch":69,"velocity":95,"startTime":244.40220649999998,"endTime":244.51090216666665,"instrument":1,"program":12},{"pitch":66,"velocity":95,"startTime":244.56525,"endTime":244.67394566666664,"instrument":1,"program":12},{"pitch":72,"velocity":95,"startTime":244.72829349999998,"endTime":244.83698916666665,"instrument":1,"program":12},{"pitch":69,"velocity":95,"startTime":244.891337,"endTime":245.00003266666664,"instrument":1,"program":12},{"pitch":69,"velocity":95,"startTime":245.05438049999998,"endTime":245.10872833333332,"instrument":1,"program":12},{"pitch":65,"velocity":95,"startTime":247.82611999999997,"endTime":247.93481566666665,"instrument":1,"program":12},{"pitch":69,"velocity":95,"startTime":247.9891635,"endTime":248.09785916666664,"instrument":1,"program":12},{"pitch":72,"velocity":95,"startTime":248.15220699999998,"endTime":248.26090266666665,"instrument":1,"program":12},{"pitch":69,"velocity":95,"startTime":248.3152505,"endTime":248.42394616666664,"instrument":1,"program":12},{"pitch":77,"velocity":95,"startTime":248.47829399999998,"endTime":248.58698966666665,"instrument":1,"program":12},{"pitch":69,"velocity":95,"startTime":248.6413375,"endTime":248.75003316666664,"instrument":1,"program":12},{"pitch":74,"velocity":95,"startTime":248.80438099999998,"endTime":248.91307666666665,"instrument":1,"program":12},{"pitch":69,"velocity":95,"startTime":248.9674245,"endTime":249.07612016666664,"instrument":1,"program":12},{"pitch":74,"velocity":95,"startTime":249.13046799999998,"endTime":249.23916366666666,"instrument":1,"program":12},{"pitch":67,"velocity":95,"startTime":249.2935115,"endTime":249.40220716666664,"instrument":1,"program":12},{"pitch":70,"velocity":95,"startTime":249.45655499999998,"endTime":249.5584571875,"instrument":1,"program":12},{"pitch":39,"velocity":110,"startTime":229.565248,"endTime":229.89133499999997,"instrument":2,"program":32},{"pitch":27,"velocity":110,"startTime":230.05437849999998,"endTime":230.21742199999997,"instrument":2,"program":32},{"pitch":31,"velocity":110,"startTime":230.38046549999999,"endTime":230.54350899999997,"instrument":2,"program":32},{"pitch":34,"velocity":110,"startTime":230.54350899999997,"endTime":230.7065525,"instrument":2,"program":32},{"pitch":36,"velocity":110,"startTime":230.86959599999997,"endTime":231.0326395,"instrument":2,"program":32},{"pitch":34,"velocity":110,"startTime":231.52176999999998,"endTime":231.6848135,"instrument":2,"program":32},{"pitch":39,"velocity":110,"startTime":231.84785699999998,"endTime":232.0109005,"instrument":2,"program":32},{"pitch":39,"velocity":110,"startTime":232.17394399999998,"endTime":232.50003099999998,"instrument":2,"program":32},{"pitch":34,"velocity":110,"startTime":232.6630745,"endTime":232.82611799999998,"instrument":2,"program":32},{"pitch":39,"velocity":110,"startTime":232.9891615,"endTime":233.15220499999998,"instrument":2,"program":32},{"pitch":36,"velocity":110,"startTime":233.15220499999998,"endTime":233.3152485,"instrument":2,"program":32},{"pitch":39,"velocity":110,"startTime":233.47829199999998,"endTime":233.64133549999997,"instrument":2,"program":32},{"pitch":36,"velocity":110,"startTime":233.80437899999998,"endTime":233.96742249999997,"instrument":2,"program":32},{"pitch":39,"velocity":110,"startTime":234.13046599999998,"endTime":234.29350949999997,"instrument":2,"program":32},{"pitch":46,"velocity":110,"startTime":234.45655299999999,"endTime":234.61959649999997,"instrument":2,"program":32},{"pitch":34,"velocity":110,"startTime":234.78264,"endTime":235.108727,"instrument":2,"program":32},{"pitch":31,"velocity":110,"startTime":235.27177049999997,"endTime":235.434814,"instrument":2,"program":32},{"pitch":29,"velocity":110,"startTime":235.59785749999998,"endTime":235.760901,"instrument":2,"program":32},{"pitch":34,"velocity":110,"startTime":235.760901,"endTime":235.92394449999998,"instrument":2,"program":32},{"pitch":38,"velocity":110,"startTime":236.086988,"endTime":236.25003149999998,"instrument":2,"program":32},{"pitch":38,"velocity":110,"startTime":236.57611849999998,"endTime":236.739162,"instrument":2,"program":32},{"pitch":34,"velocity":110,"startTime":236.90220549999998,"endTime":237.065249,"instrument":2,"program":32},{"pitch":34,"velocity":110,"startTime":237.065249,"endTime":237.22829249999998,"instrument":2,"program":32},{"pitch":31,"velocity":110,"startTime":237.391336,"endTime":237.71742299999997,"instrument":2,"program":32},{"pitch":43,"velocity":110,"startTime":237.88046649999998,"endTime":238.04350999999997,"instrument":2,"program":32},{"pitch":35,"velocity":110,"startTime":238.20655349999998,"endTime":238.36959699999997,"instrument":2,"program":32},{"pitch":38,"velocity":110,"startTime":238.36959699999997,"endTime":238.53264049999999,"instrument":2,"program":32},{"pitch":31,"velocity":110,"startTime":238.69568399999997,"endTime":238.8587275,"instrument":2,"program":32},{"pitch":31,"velocity":110,"startTime":239.02177099999997,"endTime":239.1848145,"instrument":2,"program":32},{"pitch":31,"velocity":110,"startTime":239.34785799999997,"endTime":239.5109015,"instrument":2,"program":32},{"pitch":34,"velocity":110,"startTime":239.67394499999997,"endTime":239.8369885,"instrument":2,"program":32},{"pitch":38,"velocity":110,"startTime":240.00003199999998,"endTime":240.32611899999998,"instrument":2,"program":32},{"pitch":38,"velocity":110,"startTime":240.4891625,"endTime":240.65220599999998,"instrument":2,"program":32},{"pitch":33,"velocity":110,"startTime":240.8152495,"endTime":240.97829299999998,"instrument":2,"program":32},{"pitch":38,"velocity":110,"startTime":240.97829299999998,"endTime":241.1413365,"instrument":2,"program":32},{"pitch":38,"velocity":110,"startTime":241.30437999999998,"endTime":241.4674235,"instrument":2,"program":32},{"pitch":38,"velocity":110,"startTime":241.63046699999998,"endTime":241.79351049999997,"instrument":2,"program":32},{"pitch":38,"velocity":110,"startTime":241.95655399999998,"endTime":242.11959749999997,"instrument":2,"program":32},{"pitch":38,"velocity":110,"startTime":242.28264099999998,"endTime":242.44568449999997,"instrument":2,"program":32},{"pitch":38,"velocity":110,"startTime":242.60872799999999,"endTime":242.934815,"instrument":2,"program":32},{"pitch":38,"velocity":110,"startTime":243.09785849999997,"endTime":243.260902,"instrument":2,"program":32},{"pitch":40,"velocity":110,"startTime":243.42394549999997,"endTime":243.586989,"instrument":2,"program":32},{"pitch":38,"velocity":110,"startTime":243.586989,"endTime":243.75003249999997,"instrument":2,"program":32},{"pitch":33,"velocity":110,"startTime":243.913076,"endTime":244.07611949999998,"instrument":2,"program":32},{"pitch":33,"velocity":110,"startTime":244.239163,"endTime":244.40220649999998,"instrument":2,"program":32},{"pitch":45,"velocity":110,"startTime":244.56525,"endTime":244.72829349999998,"instrument":2,"program":32},{"pitch":33,"velocity":110,"startTime":244.891337,"endTime":245.05438049999998,"instrument":2,"program":32},{"pitch":31,"velocity":110,"startTime":245.217424,"endTime":245.43481533333332,"instrument":2,"program":32},{"pitch":38,"velocity":110,"startTime":247.82611999999997,"endTime":248.15220699999998,"instrument":2,"program":32},{"pitch":33,"velocity":110,"startTime":248.3152505,"endTime":248.47829399999998,"instrument":2,"program":32},{"pitch":33,"velocity":110,"startTime":248.6413375,"endTime":248.80438099999998,"instrument":2,"program":32},{"pitch":38,"velocity":110,"startTime":248.80438099999998,"endTime":248.9674245,"instrument":2,"program":32},{"pitch":31,"velocity":110,"startTime":249.13046799999998,"endTime":249.2935115,"instrument":2,"program":32},{"pitch":31,"velocity":110,"startTime":249.3478593333333,"endTime":249.45655499999998,"instrument":2,"program":32},{"pitch":60,"velocity":105,"startTime":229.565248,"endTime":232.06524833333333,"instrument":3,"program":50},{"pitch":63,"velocity":105,"startTime":229.565248,"endTime":232.06524833333333,"instrument":3,"program":50},{"pitch":67,"velocity":105,"startTime":229.565248,"endTime":232.06524833333333,"instrument":3,"program":50},{"pitch":70,"velocity":105,"startTime":229.565248,"endTime":232.06524833333333,"instrument":3,"program":50},{"pitch":60,"velocity":105,"startTime":232.17394399999998,"endTime":233.3695963333333,"instrument":3,"program":50},{"pitch":63,"velocity":105,"startTime":232.17394399999998,"endTime":233.3695963333333,"instrument":3,"program":50},{"pitch":67,"velocity":105,"startTime":232.17394399999998,"endTime":233.3695963333333,"instrument":3,"program":50},{"pitch":70,"velocity":105,"startTime":232.17394399999998,"endTime":233.3695963333333,"instrument":3,"program":50},{"pitch":58,"velocity":105,"startTime":233.47829199999998,"endTime":233.85872683333332,"instrument":3,"program":50},{"pitch":60,"velocity":105,"startTime":233.47829199999998,"endTime":233.85872683333332,"instrument":3,"program":50},{"pitch":63,"velocity":105,"startTime":233.47829199999998,"endTime":233.85872683333332,"instrument":3,"program":50},{"pitch":67,"velocity":105,"startTime":233.47829199999998,"endTime":233.85872683333332,"instrument":3,"program":50},{"pitch":58,"velocity":105,"startTime":233.96742249999997,"endTime":234.78264,"instrument":3,"program":50},{"pitch":60,"velocity":105,"startTime":233.96742249999997,"endTime":234.78264,"instrument":3,"program":50},{"pitch":63,"velocity":105,"startTime":233.96742249999997,"endTime":234.78264,"instrument":3,"program":50},{"pitch":67,"velocity":105,"startTime":233.96742249999997,"endTime":234.78264,"instrument":3,"program":50},{"pitch":58,"velocity":105,"startTime":234.78264,"endTime":237.28264033333332,"instrument":3,"program":50},{"pitch":62,"velocity":105,"startTime":234.78264,"endTime":237.28264033333332,"instrument":3,"program":50},{"pitch":65,"velocity":105,"startTime":234.78264,"endTime":237.28264033333332,"instrument":3,"program":50},{"pitch":67,"velocity":105,"startTime":234.78264,"endTime":237.28264033333332,"instrument":3,"program":50},{"pitch":58,"velocity":105,"startTime":237.391336,"endTime":239.61959716666664,"instrument":3,"program":50},{"pitch":62,"velocity":105,"startTime":237.391336,"endTime":239.61959716666664,"instrument":3,"program":50},{"pitch":65,"velocity":105,"startTime":237.391336,"endTime":239.61959716666664,"instrument":3,"program":50},{"pitch":67,"velocity":105,"startTime":237.391336,"endTime":239.61959716666664,"instrument":3,"program":50},{"pitch":57,"velocity":105,"startTime":239.67394499999997,"endTime":242.44568449999997,"instrument":3,"program":50},{"pitch":58,"velocity":105,"startTime":239.67394499999997,"endTime":242.44568449999997,"instrument":3,"program":50},{"pitch":62,"velocity":105,"startTime":239.67394499999997,"endTime":242.44568449999997,"instrument":3,"program":50},{"pitch":66,"velocity":105,"startTime":239.67394499999997,"endTime":242.44568449999997,"instrument":3,"program":50},{"pitch":60,"velocity":105,"startTime":242.60872799999999,"endTime":245.10872833333332,"instrument":3,"program":50},{"pitch":62,"velocity":105,"startTime":242.60872799999999,"endTime":245.10872833333332,"instrument":3,"program":50},{"pitch":69,"velocity":105,"startTime":242.60872799999999,"endTime":245.10872833333332,"instrument":3,"program":50},{"pitch":58,"velocity":105,"startTime":245.217424,"endTime":245.38046749999998,"instrument":3,"program":50},{"pitch":62,"velocity":105,"startTime":245.217424,"endTime":245.38046749999998,"instrument":3,"program":50},{"pitch":67,"velocity":105,"startTime":245.217424,"endTime":245.38046749999998,"instrument":3,"program":50},{"pitch":74,"velocity":105,"startTime":245.217424,"endTime":245.38046749999998,"instrument":3,"program":50},{"pitch":60,"velocity":105,"startTime":247.82611999999997,"endTime":248.47829399999998,"instrument":3,"program":50},{"pitch":63,"velocity":105,"startTime":247.82611999999997,"endTime":248.47829399999998,"instrument":3,"program":50},{"pitch":66,"velocity":105,"startTime":247.82611999999997,"endTime":248.47829399999998,"instrument":3,"program":50},{"pitch":69,"velocity":105,"startTime":247.82611999999997,"endTime":248.47829399999998,"instrument":3,"program":50},{"pitch":62,"velocity":105,"startTime":248.47829399999998,"endTime":249.5584571875,"instrument":3,"program":50},{"pitch":65,"velocity":105,"startTime":248.47829399999998,"endTime":249.5584571875,"instrument":3,"program":50},{"pitch":67,"velocity":105,"startTime":248.47829399999998,"endTime":249.5584571875,"instrument":3,"program":50},{"pitch":70,"velocity":105,"startTime":248.47829399999998,"endTime":249.5584571875,"instrument":3,"program":50},{"pitch":38,"velocity":55,"endTime":0.0679347916666671,"instrument":4,"isDrum":true},{"pitch":38,"velocity":85,"endTime":0.0679347916666671,"instrument":4,"isDrum":true},{"pitch":51,"velocity":87,"endTime":0.129076104166667,"instrument":4,"isDrum":true},{"pitch":38,"velocity":55,"startTime":0.652174,"endTime":0.7336957499999999,"instrument":4,"isDrum":true},{"pitch":38,"velocity":85,"startTime":0.652174,"endTime":0.7336957499999999,"instrument":4,"isDrum":true},{"pitch":44,"velocity":95,"startTime":0.652174,"endTime":0.7880435833333331,"instrument":4,"isDrum":true},{"pitch":38,"velocity":55,"startTime":1.304348,"endTime":1.38586975,"instrument":4,"isDrum":true},{"pitch":38,"velocity":85,"startTime":1.304348,"endTime":1.38586975,"instrument":4,"isDrum":true},{"pitch":44,"velocity":95,"startTime":1.304348,"endTime":1.433424104166667,"instrument":4,"isDrum":true},{"pitch":38,"velocity":55,"startTime":1.956522,"endTime":2.03804375,"instrument":4,"isDrum":true},{"pitch":38,"velocity":85,"startTime":1.956522,"endTime":2.03804375,"instrument":4,"isDrum":true},{"pitch":44,"velocity":95,"startTime":1.956522,"endTime":2.085598104166667,"instrument":4,"isDrum":true},{"pitch":38,"velocity":34,"startTime":2.282609,"endTime":2.3369568333333333,"instrument":4,"isDrum":true},{"pitch":46,"velocity":69,"startTime":2.282609,"endTime":2.5951090416666664,"instrument":4,"isDrum":true},{"pitch":38,"velocity":39,"startTime":2.3369568333333333,"endTime":2.391304666666667,"instrument":4,"isDrum":true},{"pitch":38,"velocity":39,"startTime":2.391304666666667,"endTime":2.4456525000000005,"instrument":4,"isDrum":true},{"pitch":38,"velocity":42,"startTime":2.4456525000000005,"endTime":2.5000003333333334,"instrument":4,"isDrum":true},{"pitch":38,"velocity":48,"startTime":2.5000003333333334,"endTime":2.5543481666666668,"instrument":4,"isDrum":true},{"pitch":38,"velocity":53,"startTime":2.5543481666666668,"endTime":2.608696,"instrument":4,"isDrum":true},{"pitch":38,"velocity":55,"startTime":2.608696,"endTime":2.69021775,"instrument":4,"isDrum":true},{"pitch":38,"velocity":85,"startTime":2.608696,"endTime":2.69021775,"instrument":4,"isDrum":true},{"pitch":44,"velocity":95,"startTime":2.608696,"endTime":2.7445655833333342,"instrument":4,"isDrum":true},{"pitch":38,"velocity":55,"startTime":3.26087,"endTime":3.34239175,"instrument":4,"isDrum":true},{"pitch":38,"velocity":85,"startTime":3.26087,"endTime":3.34239175,"instrument":4,"isDrum":true},{"pitch":44,"velocity":95,"startTime":3.26087,"endTime":3.3899461041666665,"instrument":4,"isDrum":true},{"pitch":38,"velocity":55,"startTime":3.913044,"endTime":3.99456575,"instrument":4,"isDrum":true},{"pitch":38,"velocity":85,"startTime":3.913044,"endTime":3.99456575,"instrument":4,"isDrum":true},{"pitch":44,"velocity":95,"startTime":3.913044,"endTime":4.048913583333334,"instrument":4,"isDrum":true},{"pitch":38,"velocity":55,"startTime":4.565218,"endTime":4.64673975,"instrument":4,"isDrum":true},{"pitch":38,"velocity":85,"startTime":4.565218,"endTime":4.64673975,"instrument":4,"isDrum":true},{"pitch":44,"velocity":95,"startTime":4.565218,"endTime":4.701087583333334,"instrument":4,"isDrum":true},{"pitch":38,"velocity":34,"startTime":4.891305000000001,"endTime":4.945652833333334,"instrument":4,"isDrum":true},{"pitch":46,"velocity":69,"startTime":4.891305000000001,"endTime":5.203805041666667,"instrument":4,"isDrum":true},{"pitch":38,"velocity":39,"startTime":4.945652833333334,"endTime":5.000000666666666,"instrument":4,"isDrum":true},{"pitch":38,"velocity":39,"startTime":5.000000666666666,"endTime":5.054348500000001,"instrument":4,"isDrum":true},{"pitch":38,"velocity":42,"startTime":5.054348500000001,"endTime":5.1086963333333335,"instrument":4,"isDrum":true},{"pitch":38,"velocity":48,"startTime":5.1086963333333335,"endTime":5.163044166666666,"instrument":4,"isDrum":true},{"pitch":38,"velocity":53,"startTime":5.163044166666666,"endTime":5.217392,"instrument":4,"isDrum":true},{"pitch":38,"velocity":55,"startTime":5.217392,"endTime":5.29891375,"instrument":4,"isDrum":true},{"pitch":38,"velocity":85,"startTime":5.217392,"endTime":5.29891375,"instrument":4,"isDrum":true},{"pitch":44,"velocity":95,"startTime":5.217392,"endTime":5.353261583333334,"instrument":4,"isDrum":true},{"pitch":38,"velocity":55,"startTime":5.869566,"endTime":5.95108775,"instrument":4,"isDrum":true},{"pitch":38,"velocity":85,"startTime":5.869566,"endTime":5.95108775,"instrument":4,"isDrum":true},{"pitch":44,"velocity":95,"startTime":5.869566,"endTime":6.005435583333334,"instrument":4,"isDrum":true},{"pitch":38,"velocity":55,"startTime":6.52174,"endTime":6.60326175,"instrument":4,"isDrum":true},{"pitch":38,"velocity":85,"startTime":6.52174,"endTime":6.60326175,"instrument":4,"isDrum":true},{"pitch":44,"velocity":95,"startTime":6.52174,"endTime":6.644022625,"instrument":4,"isDrum":true},{"pitch":38,"velocity":55,"startTime":7.173914,"endTime":7.25543575,"instrument":4,"isDrum":true},{"pitch":38,"velocity":85,"startTime":7.173914,"endTime":7.25543575,"instrument":4,"isDrum":true},{"pitch":44,"velocity":95,"startTime":7.173914,"endTime":7.302990104166667,"instrument":4,"isDrum":true},{"pitch":38,"velocity":34,"startTime":7.500001,"endTime":7.554348833333334,"instrument":4,"isDrum":true},{"pitch":46,"velocity":69,"startTime":7.500001,"endTime":7.812501041666667,"instrument":4,"isDrum":true},{"pitch":38,"velocity":39,"startTime":7.554348833333334,"endTime":7.608696666666667,"instrument":4,"isDrum":true},{"pitch":38,"velocity":39,"startTime":7.608696666666667,"endTime":7.6630445,"instrument":4,"isDrum":true},{"pitch":38,"velocity":42,"startTime":7.6630445,"endTime":7.717392333333334,"instrument":4,"isDrum":true},{"pitch":38,"velocity":48,"startTime":7.717392333333334,"endTime":7.771740166666667,"instrument":4,"isDrum":true},{"pitch":38,"velocity":53,"startTime":7.771740166666667,"endTime":7.826088,"instrument":4,"isDrum":true},{"pitch":38,"velocity":55,"startTime":7.826088,"endTime":7.90760975,"instrument":4,"isDrum":true},{"pitch":38,"velocity":85,"startTime":7.826088,"endTime":7.90760975,"instrument":4,"isDrum":true},{"pitch":44,"velocity":95,"startTime":7.826088,"endTime":7.982338020833332,"instrument":4,"isDrum":true},{"pitch":38,"velocity":55,"startTime":8.478261999999999,"endTime":8.559783750000001,"instrument":4,"isDrum":true},{"pitch":38,"velocity":85,"startTime":8.478261999999999,"endTime":8.559783750000001,"instrument":4,"isDrum":true},{"pitch":44,"velocity":95,"startTime":8.478261999999999,"endTime":8.6209250625,"instrument":4,"isDrum":true},{"pitch":38,"velocity":55,"startTime":9.130436,"endTime":9.21195775,"instrument":4,"isDrum":true},{"pitch":38,"velocity":85,"startTime":9.130436,"endTime":9.21195775,"instrument":4,"isDrum":true},{"pitch":44,"velocity":95,"startTime":9.130436,"endTime":9.259512104166667,"instrument":4,"isDrum":true},{"pitch":38,"velocity":55,"startTime":9.782610000000002,"endTime":9.86413175,"instrument":4,"isDrum":true},{"pitch":38,"velocity":85,"startTime":9.782610000000002,"endTime":9.86413175,"instrument":4,"isDrum":true},{"pitch":44,"velocity":95,"startTime":9.782610000000002,"endTime":9.904892625,"instrument":4,"isDrum":true},{"pitch":38,"velocity":34,"startTime":10.108697000000001,"endTime":10.163044833333332,"instrument":4,"isDrum":true},{"pitch":46,"velocity":69,"startTime":10.108697000000001,"endTime":10.421197041666666,"instrument":4,"isDrum":true},{"pitch":38,"velocity":39,"startTime":10.163044833333332,"endTime":10.217392666666667,"instrument":4,"isDrum":true},{"pitch":38,"velocity":39,"startTime":10.217392666666667,"endTime":10.2717405,"instrument":4,"isDrum":true},{"pitch":38,"velocity":42,"startTime":10.2717405,"endTime":10.326088333333333,"instrument":4,"isDrum":true},{"pitch":38,"velocity":48,"startTime":10.326088333333333,"endTime":10.380436166666666,"instrument":4,"isDrum":true},{"pitch":38,"velocity":53,"startTime":10.380436166666666,"endTime":10.434784,"instrument":4,"isDrum":true},{"pitch":38,"velocity":55,"startTime":10.434784,"endTime":10.516305749999999,"instrument":4,"isDrum":true},{"pitch":38,"velocity":85,"startTime":10.434784,"endTime":10.516305749999999,"instrument":4,"isDrum":true},{"pitch":44,"velocity":95,"startTime":10.434784,"endTime":10.570653583333334,"instrument":4,"isDrum":true},{"pitch":38,"velocity":55,"startTime":11.086958,"endTime":11.168479750000001,"instrument":4,"isDrum":true},{"pitch":38,"velocity":85,"startTime":11.086958,"endTime":11.168479750000001,"instrument":4,"isDrum":true},{"pitch":44,"velocity":95,"startTime":11.086958,"endTime":11.216034104166667,"instrument":4,"isDrum":true},{"pitch":38,"velocity":55,"startTime":11.739132,"endTime":11.82065375,"instrument":4,"isDrum":true},{"pitch":38,"velocity":85,"startTime":11.739132,"endTime":11.82065375,"instrument":4,"isDrum":true},{"pitch":44,"velocity":95,"startTime":11.739132,"endTime":11.861414625,"instrument":4,"isDrum":true},{"pitch":38,"velocity":55,"startTime":12.391306,"endTime":12.47282775,"instrument":4,"isDrum":true},{"pitch":38,"velocity":85,"startTime":12.391306,"endTime":12.47282775,"instrument":4,"isDrum":true},{"pitch":44,"velocity":95,"startTime":12.391306,"endTime":12.506795145833333,"instrument":4,"isDrum":true},{"pitch":38,"velocity":34,"startTime":12.717393000000001,"endTime":12.77174083333333,"instrument":4,"isDrum":true},{"pitch":46,"velocity":69,"startTime":12.717393000000001,"endTime":13.029893041666666,"instrument":4,"isDrum":true},{"pitch":38,"velocity":39,"startTime":12.77174083333333,"endTime":12.826088666666667,"instrument":4,"isDrum":true},{"pitch":38,"velocity":39,"startTime":12.826088666666667,"endTime":12.8804365,"instrument":4,"isDrum":true},{"pitch":38,"velocity":42,"startTime":12.8804365,"endTime":12.934784333333333,"instrument":4,"isDrum":true},{"pitch":38,"velocity":48,"startTime":12.934784333333333,"endTime":12.989132166666666,"instrument":4,"isDrum":true},{"pitch":38,"velocity":53,"startTime":12.989132166666666,"endTime":13.04348,"instrument":4,"isDrum":true},{"pitch":38,"velocity":55,"startTime":13.04348,"endTime":13.111414791666666,"instrument":4,"isDrum":true},{"pitch":38,"velocity":85,"startTime":13.04348,"endTime":13.111414791666666,"instrument":4,"isDrum":true},{"pitch":44,"velocity":95,"startTime":13.04348,"endTime":13.172556104166668,"instrument":4,"isDrum":true},{"pitch":38,"velocity":55,"startTime":13.695654,"endTime":13.777175750000001,"instrument":4,"isDrum":true},{"pitch":38,"velocity":85,"startTime":13.695654,"endTime":13.777175750000001,"instrument":4,"isDrum":true},{"pitch":44,"velocity":95,"startTime":13.695654,"endTime":13.831523583333333,"instrument":4,"isDrum":true},{"pitch":38,"velocity":55,"startTime":14.347828,"endTime":14.42934975,"instrument":4,"isDrum":true},{"pitch":38,"velocity":85,"startTime":14.347828,"endTime":14.42934975,"instrument":4,"isDrum":true},{"pitch":44,"velocity":95,"startTime":14.347828,"endTime":14.476904104166668,"instrument":4,"isDrum":true},{"pitch":38,"velocity":55,"startTime":15.000002,"endTime":15.08152375,"instrument":4,"isDrum":true},{"pitch":38,"velocity":85,"startTime":15.000002,"endTime":15.08152375,"instrument":4,"isDrum":true},{"pitch":44,"velocity":95,"startTime":15.000002,"endTime":15.129078104166666,"instrument":4,"isDrum":true},{"pitch":38,"velocity":34,"startTime":15.326089,"endTime":15.38043683333333,"instrument":4,"isDrum":true},{"pitch":46,"velocity":69,"startTime":15.326089,"endTime":15.638589041666666,"instrument":4,"isDrum":true},{"pitch":38,"velocity":39,"startTime":15.38043683333333,"endTime":15.434784666666667,"instrument":4,"isDrum":true},{"pitch":38,"velocity":39,"startTime":15.434784666666667,"endTime":15.4891325,"instrument":4,"isDrum":true},{"pitch":38,"velocity":42,"startTime":15.4891325,"endTime":15.543480333333333,"instrument":4,"isDrum":true},{"pitch":38,"velocity":48,"startTime":15.543480333333333,"endTime":15.597828166666666,"instrument":4,"isDrum":true},{"pitch":38,"velocity":53,"startTime":15.597828166666666,"endTime":15.652176,"instrument":4,"isDrum":true},{"pitch":38,"velocity":55,"startTime":15.652176,"endTime":15.73369775,"instrument":4,"isDrum":true},{"pitch":38,"velocity":85,"startTime":15.652176,"endTime":15.73369775,"instrument":4,"isDrum":true},{"pitch":44,"velocity":95,"startTime":15.652176,"endTime":15.788045583333332,"instrument":4,"isDrum":true},{"pitch":38,"velocity":55,"startTime":16.30435,"endTime":16.38587175,"instrument":4,"isDrum":true},{"pitch":38,"velocity":85,"startTime":16.30435,"endTime":16.38587175,"instrument":4,"isDrum":true},{"pitch":44,"velocity":95,"startTime":16.30435,"endTime":16.433426104166667,"instrument":4,"isDrum":true},{"pitch":38,"velocity":55,"startTime":16.956523999999998,"endTime":17.03804575,"instrument":4,"isDrum":true},{"pitch":38,"velocity":85,"startTime":16.956523999999998,"endTime":17.03804575,"instrument":4,"isDrum":true},{"pitch":44,"velocity":95,"startTime":16.956523999999998,"endTime":17.092393583333333,"instrument":4,"isDrum":true},{"pitch":38,"velocity":55,"startTime":17.608698,"endTime":17.69021975,"instrument":4,"isDrum":true},{"pitch":38,"velocity":85,"startTime":17.608698,"endTime":17.69021975,"instrument":4,"isDrum":true},{"pitch":44,"velocity":95,"startTime":17.608698,"endTime":17.744567583333335,"instrument":4,"isDrum":true},{"pitch":38,"velocity":34,"startTime":17.934785,"endTime":17.989132833333333,"instrument":4,"isDrum":true},{"pitch":46,"velocity":69,"startTime":17.934785,"endTime":18.247285041666668,"instrument":4,"isDrum":true},{"pitch":38,"velocity":39,"startTime":17.989132833333333,"endTime":18.043480666666667,"instrument":4,"isDrum":true},{"pitch":38,"velocity":39,"startTime":18.043480666666667,"endTime":18.0978285,"instrument":4,"isDrum":true},{"pitch":38,"velocity":42,"startTime":18.0978285,"endTime":18.152176333333333,"instrument":4,"isDrum":true},{"pitch":38,"velocity":48,"startTime":18.152176333333333,"endTime":18.206524166666668,"instrument":4,"isDrum":true},{"pitch":38,"velocity":53,"startTime":18.206524166666668,"endTime":18.260872,"instrument":4,"isDrum":true},{"pitch":38,"velocity":55,"startTime":18.260872,"endTime":18.34239375,"instrument":4,"isDrum":true},{"pitch":38,"velocity":85,"startTime":18.260872,"endTime":18.34239375,"instrument":4,"isDrum":true},{"pitch":44,"velocity":95,"startTime":18.260872,"endTime":18.396741583333334,"instrument":4,"isDrum":true},{"pitch":38,"velocity":55,"startTime":18.913045999999998,"endTime":18.994567749999998,"instrument":4,"isDrum":true},{"pitch":38,"velocity":85,"startTime":18.913045999999998,"endTime":18.994567749999998,"instrument":4,"isDrum":true},{"pitch":44,"velocity":95,"startTime":18.913045999999998,"endTime":19.048915583333336,"instrument":4,"isDrum":true},{"pitch":38,"velocity":55,"startTime":19.565219999999997,"endTime":19.64674175,"instrument":4,"isDrum":true},{"pitch":38,"velocity":85,"startTime":19.565219999999997,"endTime":19.64674175,"instrument":4,"isDrum":true},{"pitch":44,"velocity":95,"startTime":19.565219999999997,"endTime":19.687502625,"instrument":4,"isDrum":true},{"pitch":38,"velocity":55,"startTime":20.217394000000002,"endTime":20.29891575,"instrument":4,"isDrum":true},{"pitch":38,"velocity":85,"startTime":20.217394000000002,"endTime":20.29891575,"instrument":4,"isDrum":true},{"pitch":44,"velocity":95,"startTime":20.217394000000002,"endTime":20.346470104166663,"instrument":4,"isDrum":true},{"pitch":38,"velocity":34,"startTime":20.543481,"endTime":20.597828833333335,"instrument":4,"isDrum":true},{"pitch":46,"velocity":69,"startTime":20.543481,"endTime":20.855981041666663,"instrument":4,"isDrum":true},{"pitch":38,"velocity":39,"startTime":20.597828833333335,"endTime":20.652176666666666,"instrument":4,"isDrum":true},{"pitch":38,"velocity":39,"startTime":20.652176666666666,"endTime":20.7065245,"instrument":4,"isDrum":true},{"pitch":38,"velocity":42,"startTime":20.7065245,"endTime":20.76087233333333,"instrument":4,"isDrum":true},{"pitch":38,"velocity":48,"startTime":20.76087233333333,"endTime":20.815220166666666,"instrument":4,"isDrum":true},{"pitch":38,"velocity":53,"startTime":20.815220166666666,"endTime":20.869568,"instrument":4,"isDrum":true},{"pitch":38,"velocity":55,"startTime":20.869568,"endTime":20.95108975,"instrument":4,"isDrum":true},{"pitch":38,"velocity":85,"startTime":20.869568,"endTime":20.95108975,"instrument":4,"isDrum":true},{"pitch":44,"velocity":95,"startTime":20.869568,"endTime":21.025818020833334,"instrument":4,"isDrum":true},{"pitch":38,"velocity":55,"startTime":21.521742,"endTime":21.60326375,"instrument":4,"isDrum":true},{"pitch":38,"velocity":85,"startTime":21.521742,"endTime":21.60326375,"instrument":4,"isDrum":true},{"pitch":44,"velocity":95,"startTime":21.521742,"endTime":21.664405062500002,"instrument":4,"isDrum":true},{"pitch":38,"velocity":55,"startTime":22.173916000000002,"endTime":22.255437750000002,"instrument":4,"isDrum":true},{"pitch":38,"velocity":85,"startTime":22.173916000000002,"endTime":22.255437750000002,"instrument":4,"isDrum":true},{"pitch":44,"velocity":95,"startTime":22.173916000000002,"endTime":22.302992104166666,"instrument":4,"isDrum":true},{"pitch":38,"velocity":55,"startTime":22.82609,"endTime":22.90761175,"instrument":4,"isDrum":true},{"pitch":38,"velocity":85,"startTime":22.82609,"endTime":22.90761175,"instrument":4,"isDrum":true},{"pitch":44,"velocity":95,"startTime":22.82609,"endTime":22.948372624999998,"instrument":4,"isDrum":true},{"pitch":38,"velocity":34,"startTime":23.152177000000002,"endTime":23.206524833333333,"instrument":4,"isDrum":true},{"pitch":46,"velocity":69,"startTime":23.152177000000002,"endTime":23.464677041666665,"instrument":4,"isDrum":true},{"pitch":38,"velocity":39,"startTime":23.206524833333333,"endTime":23.260872666666668,"instrument":4,"isDrum":true},{"pitch":38,"velocity":39,"startTime":23.260872666666668,"endTime":23.3152205,"instrument":4,"isDrum":true},{"pitch":38,"velocity":42,"startTime":23.3152205,"endTime":23.369568333333333,"instrument":4,"isDrum":true},{"pitch":38,"velocity":48,"startTime":23.369568333333333,"endTime":23.423916166666668,"instrument":4,"isDrum":true},{"pitch":38,"velocity":53,"startTime":23.423916166666668,"endTime":23.478264,"instrument":4,"isDrum":true},{"pitch":38,"velocity":55,"startTime":23.478264,"endTime":23.55978575,"instrument":4,"isDrum":true},{"pitch":38,"velocity":85,"startTime":23.478264,"endTime":23.55978575,"instrument":4,"isDrum":true},{"pitch":44,"velocity":95,"startTime":23.478264,"endTime":23.614133583333334,"instrument":4,"isDrum":true},{"pitch":38,"velocity":55,"startTime":24.130437999999998,"endTime":24.21195975,"instrument":4,"isDrum":true},{"pitch":38,"velocity":85,"startTime":24.130437999999998,"endTime":24.21195975,"instrument":4,"isDrum":true},{"pitch":44,"velocity":95,"startTime":24.130437999999998,"endTime":24.259514104166666,"instrument":4,"isDrum":true},{"pitch":38,"velocity":55,"startTime":24.782611999999997,"endTime":24.86413375,"instrument":4,"isDrum":true},{"pitch":38,"velocity":85,"startTime":24.782611999999997,"endTime":24.86413375,"instrument":4,"isDrum":true},{"pitch":44,"velocity":95,"startTime":24.782611999999997,"endTime":24.904894625,"instrument":4,"isDrum":true},{"pitch":38,"velocity":55,"startTime":25.434786000000003,"endTime":25.51630775,"instrument":4,"isDrum":true},{"pitch":38,"velocity":85,"startTime":25.434786000000003,"endTime":25.51630775,"instrument":4,"isDrum":true},{"pitch":44,"velocity":95,"startTime":25.434786000000003,"endTime":25.550275145833332,"instrument":4,"isDrum":true},{"pitch":38,"velocity":34,"startTime":25.760873,"endTime":25.815220833333335,"instrument":4,"isDrum":true},{"pitch":46,"velocity":69,"startTime":25.760873,"endTime":26.073373041666663,"instrument":4,"isDrum":true},{"pitch":38,"velocity":39,"startTime":25.815220833333335,"endTime":25.869568666666666,"instrument":4,"isDrum":true},{"pitch":38,"velocity":39,"startTime":25.869568666666666,"endTime":25.9239165,"instrument":4,"isDrum":true},{"pitch":38,"velocity":42,"startTime":25.9239165,"endTime":25.978264333333332,"instrument":4,"isDrum":true},{"pitch":38,"velocity":48,"startTime":25.978264333333332,"endTime":26.032612166666667,"instrument":4,"isDrum":true},{"pitch":38,"velocity":53,"startTime":26.032612166666667,"endTime":26.08696,"instrument":4,"isDrum":true},{"pitch":38,"velocity":55,"startTime":26.08696,"endTime":26.168481749999998,"instrument":4,"isDrum":true},{"pitch":38,"velocity":85,"startTime":26.08696,"endTime":26.168481749999998,"instrument":4,"isDrum":true},{"pitch":44,"velocity":95,"startTime":26.08696,"endTime":26.222829583333333,"instrument":4,"isDrum":true},{"pitch":38,"velocity":55,"startTime":26.739134,"endTime":26.82065575,"instrument":4,"isDrum":true},{"pitch":38,"velocity":85,"startTime":26.739134,"endTime":26.82065575,"instrument":4,"isDrum":true},{"pitch":44,"velocity":95,"startTime":26.739134,"endTime":26.868210104166668,"instrument":4,"isDrum":true},{"pitch":38,"velocity":55,"startTime":27.391308000000002,"endTime":27.472829750000002,"instrument":4,"isDrum":true},{"pitch":38,"velocity":85,"startTime":27.391308000000002,"endTime":27.472829750000002,"instrument":4,"isDrum":true},{"pitch":44,"velocity":95,"startTime":27.391308000000002,"endTime":27.513590625,"instrument":4,"isDrum":true},{"pitch":38,"velocity":55,"startTime":28.043482,"endTime":28.12500375,"instrument":4,"isDrum":true},{"pitch":38,"velocity":85,"startTime":28.043482,"endTime":28.12500375,"instrument":4,"isDrum":true},{"pitch":44,"velocity":95,"startTime":28.043482,"endTime":28.158971145833334,"instrument":4,"isDrum":true},{"pitch":38,"velocity":34,"startTime":28.369569000000002,"endTime":28.423916833333333,"instrument":4,"isDrum":true},{"pitch":46,"velocity":69,"startTime":28.369569000000002,"endTime":28.682069041666665,"instrument":4,"isDrum":true},{"pitch":38,"velocity":39,"startTime":28.423916833333333,"endTime":28.478264666666668,"instrument":4,"isDrum":true},{"pitch":38,"velocity":39,"startTime":28.478264666666668,"endTime":28.5326125,"instrument":4,"isDrum":true},{"pitch":38,"velocity":42,"startTime":28.5326125,"endTime":28.586960333333334,"instrument":4,"isDrum":true},{"pitch":38,"velocity":48,"startTime":28.586960333333334,"endTime":28.641308166666665,"instrument":4,"isDrum":true},{"pitch":38,"velocity":53,"startTime":28.641308166666665,"endTime":28.695656,"instrument":4,"isDrum":true},{"pitch":38,"velocity":55,"startTime":28.695656,"endTime":28.77717775,"instrument":4,"isDrum":true},{"pitch":38,"velocity":85,"startTime":28.695656,"endTime":28.77717775,"instrument":4,"isDrum":true},{"pitch":44,"velocity":95,"startTime":28.695656,"endTime":28.831525583333335,"instrument":4,"isDrum":true},{"pitch":38,"velocity":55,"startTime":29.34783,"endTime":29.42935175,"instrument":4,"isDrum":true},{"pitch":38,"velocity":85,"startTime":29.34783,"endTime":29.42935175,"instrument":4,"isDrum":true},{"pitch":44,"velocity":95,"startTime":29.34783,"endTime":29.476906104166666,"instrument":4,"isDrum":true},{"pitch":38,"velocity":55,"startTime":30.000003999999997,"endTime":30.08152575,"instrument":4,"isDrum":true},{"pitch":38,"velocity":85,"startTime":30.000003999999997,"endTime":30.08152575,"instrument":4,"isDrum":true},{"pitch":44,"velocity":95,"startTime":30.000003999999997,"endTime":30.122286625,"instrument":4,"isDrum":true},{"pitch":38,"velocity":55,"startTime":30.652178,"endTime":30.73369975,"instrument":4,"isDrum":true},{"pitch":38,"velocity":85,"startTime":30.652178,"endTime":30.73369975,"instrument":4,"isDrum":true},{"pitch":44,"velocity":95,"startTime":30.652178,"endTime":30.767667145833332,"instrument":4,"isDrum":true},{"pitch":38,"velocity":34,"startTime":30.978265,"endTime":31.032612833333335,"instrument":4,"isDrum":true},{"pitch":46,"velocity":69,"startTime":30.978265,"endTime":31.290765041666663,"instrument":4,"isDrum":true},{"pitch":38,"velocity":39,"startTime":31.032612833333335,"endTime":31.086960666666666,"instrument":4,"isDrum":true},{"pitch":38,"velocity":39,"startTime":31.086960666666666,"endTime":31.1413085,"instrument":4,"isDrum":true},{"pitch":38,"velocity":42,"startTime":31.1413085,"endTime":31.195656333333332,"instrument":4,"isDrum":true},{"pitch":38,"velocity":48,"startTime":31.195656333333332,"endTime":31.250004166666667,"instrument":4,"isDrum":true},{"pitch":38,"velocity":53,"startTime":31.250004166666667,"endTime":31.304352,"instrument":4,"isDrum":true},{"pitch":38,"velocity":55,"startTime":31.304352,"endTime":31.38587375,"instrument":4,"isDrum":true},{"pitch":38,"velocity":85,"startTime":31.304352,"endTime":31.38587375,"instrument":4,"isDrum":true},{"pitch":44,"velocity":95,"startTime":31.304352,"endTime":31.440221583333333,"instrument":4,"isDrum":true},{"pitch":38,"velocity":55,"startTime":31.956526,"endTime":32.03804775,"instrument":4,"isDrum":true},{"pitch":38,"velocity":85,"startTime":31.956526,"endTime":32.03804775,"instrument":4,"isDrum":true},{"pitch":44,"velocity":95,"startTime":31.956526,"endTime":32.08560210416667,"instrument":4,"isDrum":true},{"pitch":38,"velocity":55,"startTime":32.6087,"endTime":32.69022175,"instrument":4,"isDrum":true},{"pitch":38,"velocity":85,"startTime":32.6087,"endTime":32.69022175,"instrument":4,"isDrum":true},{"pitch":44,"velocity":95,"startTime":32.6087,"endTime":32.730982625,"instrument":4,"isDrum":true},{"pitch":38,"velocity":55,"startTime":33.260874,"endTime":33.34239575,"instrument":4,"isDrum":true},{"pitch":38,"velocity":85,"startTime":33.260874,"endTime":33.34239575,"instrument":4,"isDrum":true},{"pitch":44,"velocity":95,"startTime":33.260874,"endTime":33.37636314583333,"instrument":4,"isDrum":true},{"pitch":38,"velocity":34,"startTime":33.586961,"endTime":33.64130883333333,"instrument":4,"isDrum":true},{"pitch":46,"velocity":69,"startTime":33.586961,"endTime":33.89946104166666,"instrument":4,"isDrum":true},{"pitch":38,"velocity":39,"startTime":33.64130883333333,"endTime":33.695656666666665,"instrument":4,"isDrum":true},{"pitch":38,"velocity":39,"startTime":33.695656666666665,"endTime":33.7500045,"instrument":4,"isDrum":true},{"pitch":38,"velocity":42,"startTime":33.7500045,"endTime":33.804352333333334,"instrument":4,"isDrum":true},{"pitch":38,"velocity":48,"startTime":33.804352333333334,"endTime":33.858700166666665,"instrument":4,"isDrum":true},{"pitch":38,"velocity":53,"startTime":33.858700166666665,"endTime":33.913047999999996,"instrument":4,"isDrum":true},{"pitch":38,"velocity":55,"startTime":33.913047999999996,"endTime":33.99456975,"instrument":4,"isDrum":true},{"pitch":38,"velocity":85,"startTime":33.913047999999996,"endTime":33.99456975,"instrument":4,"isDrum":true},{"pitch":44,"velocity":95,"startTime":33.913047999999996,"endTime":34.035330625,"instrument":4,"isDrum":true},{"pitch":38,"velocity":55,"startTime":34.565222,"endTime":34.64674375,"instrument":4,"isDrum":true},{"pitch":38,"velocity":85,"startTime":34.565222,"endTime":34.64674375,"instrument":4,"isDrum":true},{"pitch":44,"velocity":95,"startTime":34.565222,"endTime":34.687504625,"instrument":4,"isDrum":true},{"pitch":38,"velocity":55,"startTime":35.217396,"endTime":35.29891775,"instrument":4,"isDrum":true},{"pitch":38,"velocity":85,"startTime":35.217396,"endTime":35.29891775,"instrument":4,"isDrum":true},{"pitch":44,"velocity":95,"startTime":35.217396,"endTime":35.33288514583334,"instrument":4,"isDrum":true},{"pitch":38,"velocity":55,"startTime":35.86957,"endTime":35.95109175,"instrument":4,"isDrum":true},{"pitch":38,"velocity":85,"startTime":35.86957,"endTime":35.95109175,"instrument":4,"isDrum":true},{"pitch":44,"velocity":95,"startTime":35.86957,"endTime":35.99864610416667,"instrument":4,"isDrum":true},{"pitch":38,"velocity":34,"startTime":36.195657,"endTime":36.250004833333335,"instrument":4,"isDrum":true},{"pitch":46,"velocity":69,"startTime":36.195657,"endTime":36.508157041666664,"instrument":4,"isDrum":true},{"pitch":38,"velocity":39,"startTime":36.250004833333335,"endTime":36.30435266666667,"instrument":4,"isDrum":true},{"pitch":38,"velocity":39,"startTime":36.30435266666667,"endTime":36.3587005,"instrument":4,"isDrum":true},{"pitch":38,"velocity":42,"startTime":36.3587005,"endTime":36.413048333333336,"instrument":4,"isDrum":true},{"pitch":38,"velocity":48,"startTime":36.413048333333336,"endTime":36.46739616666667,"instrument":4,"isDrum":true},{"pitch":38,"velocity":53,"startTime":36.46739616666667,"endTime":36.521744,"instrument":4,"isDrum":true},{"pitch":38,"velocity":55,"startTime":36.521744,"endTime":36.60326575,"instrument":4,"isDrum":true},{"pitch":38,"velocity":85,"startTime":36.521744,"endTime":36.60326575,"instrument":4,"isDrum":true},{"pitch":51,"velocity":87,"startTime":36.521744,"endTime":36.637233145833335,"instrument":4,"isDrum":true},{"pitch":70,"velocity":78,"startTime":39.13044,"endTime":39.26630958333333,"instrument":4,"isDrum":true},{"pitch":51,"velocity":85,"startTime":39.456527,"endTime":39.7214726875,"instrument":4,"isDrum":true},{"pitch":38,"velocity":55,"startTime":39.782613999999995,"endTime":39.911690104166674,"instrument":4,"isDrum":true},{"pitch":38,"velocity":85,"startTime":39.782613999999995,"endTime":39.911690104166674,"instrument":4,"isDrum":true},{"pitch":44,"velocity":95,"startTime":39.782613999999995,"endTime":40.09511404166667,"instrument":4,"isDrum":true},{"pitch":38,"velocity":55,"startTime":40.434788000000005,"endTime":40.550277145833334,"instrument":4,"isDrum":true},{"pitch":38,"velocity":85,"startTime":40.434788000000005,"endTime":40.550277145833334,"instrument":4,"isDrum":true},{"pitch":44,"velocity":66,"startTime":40.434788000000005,"endTime":40.59783149999999,"instrument":4,"isDrum":true},{"pitch":51,"velocity":87,"startTime":40.434788000000005,"endTime":40.665766291666664,"instrument":4,"isDrum":true},{"pitch":38,"velocity":34,"startTime":41.413049,"endTime":41.467396833333325,"instrument":4,"isDrum":true},{"pitch":46,"velocity":69,"startTime":41.413049,"endTime":41.72554904166667,"instrument":4,"isDrum":true},{"pitch":38,"velocity":39,"startTime":41.467396833333325,"endTime":41.52174466666666,"instrument":4,"isDrum":true},{"pitch":38,"velocity":39,"startTime":41.52174466666666,"endTime":41.576092499999994,"instrument":4,"isDrum":true},{"pitch":38,"velocity":42,"startTime":41.576092499999994,"endTime":41.63044033333333,"instrument":4,"isDrum":true},{"pitch":38,"velocity":48,"startTime":41.63044033333333,"endTime":41.68478816666668,"instrument":4,"isDrum":true},{"pitch":38,"velocity":53,"startTime":41.68478816666668,"endTime":41.739136,"instrument":4,"isDrum":true},{"pitch":38,"velocity":55,"startTime":41.739136,"endTime":41.807070791666675,"instrument":4,"isDrum":true},{"pitch":38,"velocity":85,"startTime":41.739136,"endTime":41.807070791666675,"instrument":4,"isDrum":true},{"pitch":51,"velocity":87,"startTime":41.739136,"endTime":41.868212104166666,"instrument":4,"isDrum":true},{"pitch":38,"velocity":55,"startTime":42.39131,"endTime":42.472831750000005,"instrument":4,"isDrum":true},{"pitch":38,"velocity":85,"startTime":42.39131,"endTime":42.472831750000005,"instrument":4,"isDrum":true},{"pitch":44,"velocity":95,"startTime":42.39131,"endTime":42.52717958333333,"instrument":4,"isDrum":true},{"pitch":38,"velocity":55,"startTime":43.043484,"endTime":43.12500575,"instrument":4,"isDrum":true},{"pitch":38,"velocity":85,"startTime":43.043484,"endTime":43.12500575,"instrument":4,"isDrum":true},{"pitch":44,"velocity":95,"startTime":43.043484,"endTime":43.172560104166664,"instrument":4,"isDrum":true},{"pitch":38,"velocity":55,"startTime":43.695657999999995,"endTime":43.77717975,"instrument":4,"isDrum":true},{"pitch":38,"velocity":85,"startTime":43.695657999999995,"endTime":43.77717975,"instrument":4,"isDrum":true},{"pitch":44,"velocity":95,"startTime":43.695657999999995,"endTime":43.82473410416668,"instrument":4,"isDrum":true},{"pitch":38,"velocity":34,"startTime":44.021744999999996,"endTime":44.07609283333334,"instrument":4,"isDrum":true},{"pitch":46,"velocity":69,"startTime":44.021744999999996,"endTime":44.33424504166666,"instrument":4,"isDrum":true},{"pitch":38,"velocity":39,"startTime":44.07609283333334,"endTime":44.130440666666665,"instrument":4,"isDrum":true},{"pitch":38,"velocity":39,"startTime":44.130440666666665,"endTime":44.1847885,"instrument":4,"isDrum":true},{"pitch":38,"velocity":42,"startTime":44.1847885,"endTime":44.23913633333333,"instrument":4,"isDrum":true},{"pitch":38,"velocity":48,"startTime":44.23913633333333,"endTime":44.29348416666667,"instrument":4,"isDrum":true},{"pitch":38,"velocity":53,"startTime":44.29348416666667,"endTime":44.347832,"instrument":4,"isDrum":true},{"pitch":38,"velocity":55,"startTime":44.347832,"endTime":44.42935375,"instrument":4,"isDrum":true},{"pitch":38,"velocity":85,"startTime":44.347832,"endTime":44.42935375,"instrument":4,"isDrum":true},{"pitch":44,"velocity":95,"startTime":44.347832,"endTime":44.48370158333332,"instrument":4,"isDrum":true},{"pitch":38,"velocity":55,"startTime":45.00000599999999,"endTime":45.08152775,"instrument":4,"isDrum":true},{"pitch":38,"velocity":85,"startTime":45.00000599999999,"endTime":45.08152775,"instrument":4,"isDrum":true},{"pitch":44,"velocity":95,"startTime":45.00000599999999,"endTime":45.12908210416668,"instrument":4,"isDrum":true},{"pitch":38,"velocity":55,"startTime":45.652179999999994,"endTime":45.733701749999994,"instrument":4,"isDrum":true},{"pitch":38,"velocity":85,"startTime":45.652179999999994,"endTime":45.733701749999994,"instrument":4,"isDrum":true},{"pitch":44,"velocity":95,"startTime":45.652179999999994,"endTime":45.78804958333332,"instrument":4,"isDrum":true},{"pitch":38,"velocity":55,"startTime":46.30435399999999,"endTime":46.38587575,"instrument":4,"isDrum":true},{"pitch":38,"velocity":85,"startTime":46.30435399999999,"endTime":46.38587575,"instrument":4,"isDrum":true},{"pitch":44,"velocity":95,"startTime":46.30435399999999,"endTime":46.440223583333335,"instrument":4,"isDrum":true},{"pitch":38,"velocity":34,"startTime":46.63044099999999,"endTime":46.684788833333336,"instrument":4,"isDrum":true},{"pitch":46,"velocity":69,"startTime":46.63044099999999,"endTime":46.94294104166668,"instrument":4,"isDrum":true},{"pitch":38,"velocity":39,"startTime":46.684788833333336,"endTime":46.739136666666674,"instrument":4,"isDrum":true},{"pitch":38,"velocity":39,"startTime":46.739136666666674,"endTime":46.7934845,"instrument":4,"isDrum":true},{"pitch":38,"velocity":42,"startTime":46.7934845,"endTime":46.84783233333332,"instrument":4,"isDrum":true},{"pitch":38,"velocity":48,"startTime":46.84783233333332,"endTime":46.90218016666667,"instrument":4,"isDrum":true},{"pitch":38,"velocity":53,"startTime":46.90218016666667,"endTime":46.956528000000006,"instrument":4,"isDrum":true},{"pitch":38,"velocity":55,"startTime":46.956528000000006,"endTime":47.03804974999999,"instrument":4,"isDrum":true},{"pitch":38,"velocity":85,"startTime":46.956528000000006,"endTime":47.03804974999999,"instrument":4,"isDrum":true},{"pitch":44,"velocity":95,"startTime":46.956528000000006,"endTime":47.09239758333334,"instrument":4,"isDrum":true},{"pitch":38,"velocity":55,"startTime":47.60870200000001,"endTime":47.690223749999994,"instrument":4,"isDrum":true},{"pitch":38,"velocity":85,"startTime":47.60870200000001,"endTime":47.690223749999994,"instrument":4,"isDrum":true},{"pitch":44,"velocity":95,"startTime":47.60870200000001,"endTime":47.74457158333334,"instrument":4,"isDrum":true},{"pitch":38,"velocity":55,"startTime":48.260876,"endTime":48.34239774999999,"instrument":4,"isDrum":true},{"pitch":38,"velocity":85,"startTime":48.260876,"endTime":48.34239774999999,"instrument":4,"isDrum":true},{"pitch":44,"velocity":95,"startTime":48.260876,"endTime":48.38315862500001,"instrument":4,"isDrum":true},{"pitch":38,"velocity":55,"startTime":48.913050000000005,"endTime":48.99457174999999,"instrument":4,"isDrum":true},{"pitch":38,"velocity":85,"startTime":48.913050000000005,"endTime":48.99457174999999,"instrument":4,"isDrum":true},{"pitch":44,"velocity":95,"startTime":48.913050000000005,"endTime":49.04212610416667,"instrument":4,"isDrum":true},{"pitch":38,"velocity":34,"startTime":49.23913700000001,"endTime":49.29348483333333,"instrument":4,"isDrum":true},{"pitch":46,"velocity":69,"startTime":49.23913700000001,"endTime":49.55163704166667,"instrument":4,"isDrum":true},{"pitch":38,"velocity":39,"startTime":49.29348483333333,"endTime":49.34783266666667,"instrument":4,"isDrum":true},{"pitch":38,"velocity":39,"startTime":49.34783266666667,"endTime":49.40218049999999,"instrument":4,"isDrum":true},{"pitch":38,"velocity":42,"startTime":49.40218049999999,"endTime":49.45652833333334,"instrument":4,"isDrum":true},{"pitch":38,"velocity":48,"startTime":49.45652833333334,"endTime":49.51087616666666,"instrument":4,"isDrum":true},{"pitch":38,"velocity":53,"startTime":49.51087616666666,"endTime":49.565224,"instrument":4,"isDrum":true},{"pitch":38,"velocity":55,"startTime":49.565224,"endTime":49.64674575000001,"instrument":4,"isDrum":true},{"pitch":38,"velocity":85,"startTime":49.565224,"endTime":49.64674575000001,"instrument":4,"isDrum":true},{"pitch":44,"velocity":95,"startTime":49.565224,"endTime":49.72147402083333,"instrument":4,"isDrum":true},{"pitch":38,"velocity":55,"startTime":50.217398,"endTime":50.29891975000001,"instrument":4,"isDrum":true},{"pitch":38,"velocity":85,"startTime":50.217398,"endTime":50.29891975000001,"instrument":4,"isDrum":true},{"pitch":44,"velocity":95,"startTime":50.217398,"endTime":50.360061062499994,"instrument":4,"isDrum":true},{"pitch":38,"velocity":55,"startTime":50.869572000000005,"endTime":50.951093750000005,"instrument":4,"isDrum":true},{"pitch":38,"velocity":85,"startTime":50.869572000000005,"endTime":50.951093750000005,"instrument":4,"isDrum":true},{"pitch":44,"velocity":95,"startTime":50.869572000000005,"endTime":50.99864810416666,"instrument":4,"isDrum":true},{"pitch":38,"velocity":55,"startTime":51.521746,"endTime":51.60326775000001,"instrument":4,"isDrum":true},{"pitch":38,"velocity":85,"startTime":51.521746,"endTime":51.60326775000001,"instrument":4,"isDrum":true},{"pitch":44,"velocity":95,"startTime":51.521746,"endTime":51.644028625,"instrument":4,"isDrum":true},{"pitch":38,"velocity":34,"startTime":51.847833,"endTime":51.902180833333325,"instrument":4,"isDrum":true},{"pitch":46,"velocity":69,"startTime":51.847833,"endTime":52.16033304166667,"instrument":4,"isDrum":true},{"pitch":38,"velocity":39,"startTime":51.902180833333325,"endTime":51.956528666666664,"instrument":4,"isDrum":true},{"pitch":38,"velocity":39,"startTime":51.956528666666664,"endTime":52.01087649999999,"instrument":4,"isDrum":true},{"pitch":38,"velocity":42,"startTime":52.01087649999999,"endTime":52.06522433333333,"instrument":4,"isDrum":true},{"pitch":38,"velocity":48,"startTime":52.06522433333333,"endTime":52.11957216666668,"instrument":4,"isDrum":true},{"pitch":38,"velocity":53,"startTime":52.11957216666668,"endTime":52.17392,"instrument":4,"isDrum":true},{"pitch":38,"velocity":55,"startTime":52.17392,"endTime":52.25544175,"instrument":4,"isDrum":true},{"pitch":38,"velocity":85,"startTime":52.17392,"endTime":52.25544175,"instrument":4,"isDrum":true},{"pitch":44,"velocity":95,"startTime":52.17392,"endTime":52.30978958333333,"instrument":4,"isDrum":true},{"pitch":38,"velocity":55,"startTime":52.826094,"endTime":52.907615750000005,"instrument":4,"isDrum":true},{"pitch":38,"velocity":85,"startTime":52.826094,"endTime":52.907615750000005,"instrument":4,"isDrum":true},{"pitch":44,"velocity":95,"startTime":52.826094,"endTime":52.95517010416666,"instrument":4,"isDrum":true},{"pitch":38,"velocity":55,"startTime":53.478268,"endTime":53.55978975,"instrument":4,"isDrum":true},{"pitch":38,"velocity":85,"startTime":53.478268,"endTime":53.55978975,"instrument":4,"isDrum":true},{"pitch":44,"velocity":95,"startTime":53.478268,"endTime":53.600550625,"instrument":4,"isDrum":true},{"pitch":38,"velocity":55,"startTime":54.130441999999995,"endTime":54.21196375,"instrument":4,"isDrum":true},{"pitch":38,"velocity":85,"startTime":54.130441999999995,"endTime":54.21196375,"instrument":4,"isDrum":true},{"pitch":44,"velocity":95,"startTime":54.130441999999995,"endTime":54.24593114583333,"instrument":4,"isDrum":true},{"pitch":38,"velocity":34,"startTime":54.456528999999996,"endTime":54.510876833333334,"instrument":4,"isDrum":true},{"pitch":46,"velocity":69,"startTime":54.456528999999996,"endTime":54.76902904166666,"instrument":4,"isDrum":true},{"pitch":38,"velocity":39,"startTime":54.510876833333334,"endTime":54.565224666666666,"instrument":4,"isDrum":true},{"pitch":38,"velocity":39,"startTime":54.565224666666666,"endTime":54.619572500000004,"instrument":4,"isDrum":true},{"pitch":38,"velocity":42,"startTime":54.619572500000004,"endTime":54.67392033333333,"instrument":4,"isDrum":true},{"pitch":38,"velocity":48,"startTime":54.67392033333333,"endTime":54.72826816666667,"instrument":4,"isDrum":true},{"pitch":38,"velocity":53,"startTime":54.72826816666667,"endTime":54.782616,"instrument":4,"isDrum":true},{"pitch":38,"velocity":55,"startTime":54.782616,"endTime":54.85055079166667,"instrument":4,"isDrum":true},{"pitch":38,"velocity":85,"startTime":54.782616,"endTime":54.85055079166667,"instrument":4,"isDrum":true},{"pitch":44,"velocity":95,"startTime":54.782616,"endTime":54.911692104166676,"instrument":4,"isDrum":true},{"pitch":38,"velocity":55,"startTime":55.43478999999999,"endTime":55.51631175,"instrument":4,"isDrum":true},{"pitch":38,"velocity":85,"startTime":55.43478999999999,"endTime":55.51631175,"instrument":4,"isDrum":true},{"pitch":44,"velocity":95,"startTime":55.43478999999999,"endTime":55.570659583333324,"instrument":4,"isDrum":true},{"pitch":38,"velocity":55,"startTime":56.086963999999995,"endTime":56.168485749999995,"instrument":4,"isDrum":true},{"pitch":38,"velocity":85,"startTime":56.086963999999995,"endTime":56.168485749999995,"instrument":4,"isDrum":true},{"pitch":44,"velocity":95,"startTime":56.086963999999995,"endTime":56.21604010416667,"instrument":4,"isDrum":true},{"pitch":38,"velocity":55,"startTime":56.73913799999999,"endTime":56.82065975,"instrument":4,"isDrum":true},{"pitch":38,"velocity":85,"startTime":56.73913799999999,"endTime":56.82065975,"instrument":4,"isDrum":true},{"pitch":44,"velocity":95,"startTime":56.73913799999999,"endTime":56.868214104166675,"instrument":4,"isDrum":true},{"pitch":38,"velocity":34,"startTime":57.06522499999999,"endTime":57.119572833333336,"instrument":4,"isDrum":true},{"pitch":46,"velocity":69,"startTime":57.06522499999999,"endTime":57.37772504166668,"instrument":4,"isDrum":true},{"pitch":38,"velocity":39,"startTime":57.119572833333336,"endTime":57.173920666666675,"instrument":4,"isDrum":true},{"pitch":38,"velocity":39,"startTime":57.173920666666675,"endTime":57.2282685,"instrument":4,"isDrum":true},{"pitch":38,"velocity":42,"startTime":57.2282685,"endTime":57.28261633333332,"instrument":4,"isDrum":true},{"pitch":38,"velocity":48,"startTime":57.28261633333332,"endTime":57.33696416666667,"instrument":4,"isDrum":true},{"pitch":38,"velocity":53,"startTime":57.33696416666667,"endTime":57.391312000000006,"instrument":4,"isDrum":true},{"pitch":38,"velocity":55,"startTime":57.391312000000006,"endTime":57.47283374999999,"instrument":4,"isDrum":true},{"pitch":38,"velocity":85,"startTime":57.391312000000006,"endTime":57.47283374999999,"instrument":4,"isDrum":true},{"pitch":44,"velocity":95,"startTime":57.391312000000006,"endTime":57.52718158333334,"instrument":4,"isDrum":true},{"pitch":38,"velocity":55,"startTime":58.04348600000001,"endTime":58.125007749999995,"instrument":4,"isDrum":true},{"pitch":38,"velocity":85,"startTime":58.04348600000001,"endTime":58.125007749999995,"instrument":4,"isDrum":true},{"pitch":44,"velocity":95,"startTime":58.04348600000001,"endTime":58.17256210416667,"instrument":4,"isDrum":true},{"pitch":38,"velocity":55,"startTime":58.695660000000004,"endTime":58.77718174999999,"instrument":4,"isDrum":true},{"pitch":38,"velocity":85,"startTime":58.695660000000004,"endTime":58.77718174999999,"instrument":4,"isDrum":true},{"pitch":44,"velocity":95,"startTime":58.695660000000004,"endTime":58.831529583333335,"instrument":4,"isDrum":true},{"pitch":38,"velocity":55,"startTime":59.347834000000006,"endTime":59.42935574999999,"instrument":4,"isDrum":true},{"pitch":38,"velocity":85,"startTime":59.347834000000006,"endTime":59.42935574999999,"instrument":4,"isDrum":true},{"pitch":44,"velocity":95,"startTime":59.347834000000006,"endTime":59.48370358333333,"instrument":4,"isDrum":true},{"pitch":38,"velocity":34,"startTime":59.67392100000001,"endTime":59.72826883333333,"instrument":4,"isDrum":true},{"pitch":46,"velocity":69,"startTime":59.67392100000001,"endTime":59.986421041666674,"instrument":4,"isDrum":true},{"pitch":38,"velocity":39,"startTime":59.72826883333333,"endTime":59.78261666666667,"instrument":4,"isDrum":true},{"pitch":38,"velocity":39,"startTime":59.78261666666667,"endTime":59.83696449999999,"instrument":4,"isDrum":true},{"pitch":38,"velocity":42,"startTime":59.83696449999999,"endTime":59.89131233333334,"instrument":4,"isDrum":true},{"pitch":38,"velocity":48,"startTime":59.89131233333334,"endTime":59.94566016666666,"instrument":4,"isDrum":true},{"pitch":38,"velocity":53,"startTime":59.94566016666666,"endTime":60.000008,"instrument":4,"isDrum":true},{"pitch":38,"velocity":55,"startTime":60.000008,"endTime":60.08152975000001,"instrument":4,"isDrum":true},{"pitch":38,"velocity":85,"startTime":60.000008,"endTime":60.08152975000001,"instrument":4,"isDrum":true},{"pitch":44,"velocity":95,"startTime":60.000008,"endTime":60.13587758333333,"instrument":4,"isDrum":true},{"pitch":38,"velocity":55,"startTime":60.652182,"endTime":60.733703750000004,"instrument":4,"isDrum":true},{"pitch":38,"velocity":85,"startTime":60.652182,"endTime":60.733703750000004,"instrument":4,"isDrum":true},{"pitch":44,"velocity":95,"startTime":60.652182,"endTime":60.788051583333335,"instrument":4,"isDrum":true},{"pitch":38,"velocity":55,"startTime":61.304356,"endTime":61.385877750000006,"instrument":4,"isDrum":true},{"pitch":38,"velocity":85,"startTime":61.304356,"endTime":61.385877750000006,"instrument":4,"isDrum":true},{"pitch":44,"velocity":95,"startTime":61.304356,"endTime":61.426638625,"instrument":4,"isDrum":true},{"pitch":38,"velocity":55,"startTime":61.95653,"endTime":62.03805175000001,"instrument":4,"isDrum":true},{"pitch":38,"velocity":85,"startTime":61.95653,"endTime":62.03805175000001,"instrument":4,"isDrum":true},{"pitch":44,"velocity":95,"startTime":61.95653,"endTime":62.085606104166665,"instrument":4,"isDrum":true},{"pitch":38,"velocity":34,"startTime":62.282617,"endTime":62.336964833333326,"instrument":4,"isDrum":true},{"pitch":46,"velocity":69,"startTime":62.282617,"endTime":62.59511704166667,"instrument":4,"isDrum":true},{"pitch":38,"velocity":39,"startTime":62.336964833333326,"endTime":62.391312666666664,"instrument":4,"isDrum":true},{"pitch":38,"velocity":39,"startTime":62.391312666666664,"endTime":62.44566049999999,"instrument":4,"isDrum":true},{"pitch":38,"velocity":42,"startTime":62.44566049999999,"endTime":62.500008333333334,"instrument":4,"isDrum":true},{"pitch":38,"velocity":48,"startTime":62.500008333333334,"endTime":62.55435616666667,"instrument":4,"isDrum":true},{"pitch":38,"velocity":53,"startTime":62.55435616666667,"endTime":62.608704,"instrument":4,"isDrum":true},{"pitch":38,"velocity":55,"startTime":62.608704,"endTime":62.69022575,"instrument":4,"isDrum":true},{"pitch":38,"velocity":85,"startTime":62.608704,"endTime":62.69022575,"instrument":4,"isDrum":true},{"pitch":44,"velocity":95,"startTime":62.608704,"endTime":62.76495402083332,"instrument":4,"isDrum":true},{"pitch":38,"velocity":55,"startTime":63.260878,"endTime":63.342399750000006,"instrument":4,"isDrum":true},{"pitch":38,"velocity":85,"startTime":63.260878,"endTime":63.342399750000006,"instrument":4,"isDrum":true},{"pitch":44,"velocity":95,"startTime":63.260878,"endTime":63.40354106249999,"instrument":4,"isDrum":true},{"pitch":38,"velocity":55,"startTime":63.913052,"endTime":63.99457375,"instrument":4,"isDrum":true},{"pitch":38,"velocity":85,"startTime":63.913052,"endTime":63.99457375,"instrument":4,"isDrum":true},{"pitch":44,"velocity":95,"startTime":63.913052,"endTime":64.04212810416666,"instrument":4,"isDrum":true},{"pitch":38,"velocity":55,"startTime":64.565226,"endTime":64.64674775,"instrument":4,"isDrum":true},{"pitch":38,"velocity":85,"startTime":64.565226,"endTime":64.64674775,"instrument":4,"isDrum":true},{"pitch":44,"velocity":95,"startTime":64.565226,"endTime":64.68750862499999,"instrument":4,"isDrum":true},{"pitch":38,"velocity":34,"startTime":64.891313,"endTime":64.94566083333333,"instrument":4,"isDrum":true},{"pitch":46,"velocity":69,"startTime":64.891313,"endTime":65.20381304166666,"instrument":4,"isDrum":true},{"pitch":38,"velocity":39,"startTime":64.94566083333333,"endTime":65.00000866666666,"instrument":4,"isDrum":true},{"pitch":38,"velocity":39,"startTime":65.00000866666666,"endTime":65.0543565,"instrument":4,"isDrum":true},{"pitch":38,"velocity":42,"startTime":65.0543565,"endTime":65.10870433333334,"instrument":4,"isDrum":true},{"pitch":38,"velocity":48,"startTime":65.10870433333334,"endTime":65.16305216666667,"instrument":4,"isDrum":true},{"pitch":38,"velocity":53,"startTime":65.16305216666667,"endTime":65.2174,"instrument":4,"isDrum":true},{"pitch":38,"velocity":55,"startTime":65.2174,"endTime":65.29892175,"instrument":4,"isDrum":true},{"pitch":38,"velocity":85,"startTime":65.2174,"endTime":65.29892175,"instrument":4,"isDrum":true},{"pitch":44,"velocity":95,"startTime":65.2174,"endTime":65.35326958333333,"instrument":4,"isDrum":true},{"pitch":38,"velocity":55,"startTime":65.869574,"endTime":65.95109575,"instrument":4,"isDrum":true},{"pitch":38,"velocity":85,"startTime":65.869574,"endTime":65.95109575,"instrument":4,"isDrum":true},{"pitch":44,"velocity":95,"startTime":65.869574,"endTime":65.99865010416667,"instrument":4,"isDrum":true},{"pitch":38,"velocity":55,"startTime":66.52174799999999,"endTime":66.60326975,"instrument":4,"isDrum":true},{"pitch":38,"velocity":85,"startTime":66.52174799999999,"endTime":66.60326975,"instrument":4,"isDrum":true},{"pitch":44,"velocity":95,"startTime":66.52174799999999,"endTime":66.64403062500001,"instrument":4,"isDrum":true},{"pitch":38,"velocity":55,"startTime":67.17392199999999,"endTime":67.25544375,"instrument":4,"isDrum":true},{"pitch":38,"velocity":85,"startTime":67.17392199999999,"endTime":67.25544375,"instrument":4,"isDrum":true},{"pitch":44,"velocity":95,"startTime":67.17392199999999,"endTime":67.28941114583333,"instrument":4,"isDrum":true},{"pitch":38,"velocity":34,"startTime":67.50000899999999,"endTime":67.55435683333333,"instrument":4,"isDrum":true},{"pitch":46,"velocity":69,"startTime":67.50000899999999,"endTime":67.81250904166667,"instrument":4,"isDrum":true},{"pitch":38,"velocity":39,"startTime":67.55435683333333,"endTime":67.60870466666668,"instrument":4,"isDrum":true},{"pitch":38,"velocity":39,"startTime":67.60870466666668,"endTime":67.6630525,"instrument":4,"isDrum":true},{"pitch":38,"velocity":42,"startTime":67.6630525,"endTime":67.71740033333333,"instrument":4,"isDrum":true},{"pitch":38,"velocity":48,"startTime":67.71740033333333,"endTime":67.77174816666667,"instrument":4,"isDrum":true},{"pitch":38,"velocity":53,"startTime":67.77174816666667,"endTime":67.826096,"instrument":4,"isDrum":true},{"pitch":38,"velocity":55,"startTime":67.826096,"endTime":67.90761775,"instrument":4,"isDrum":true},{"pitch":38,"velocity":85,"startTime":67.826096,"endTime":67.90761775,"instrument":4,"isDrum":true},{"pitch":44,"velocity":95,"startTime":67.826096,"endTime":67.96196558333334,"instrument":4,"isDrum":true},{"pitch":38,"velocity":55,"startTime":68.47827000000001,"endTime":68.55979174999999,"instrument":4,"isDrum":true},{"pitch":38,"velocity":85,"startTime":68.47827000000001,"endTime":68.55979174999999,"instrument":4,"isDrum":true},{"pitch":44,"velocity":95,"startTime":68.47827000000001,"endTime":68.60734610416667,"instrument":4,"isDrum":true},{"pitch":38,"velocity":55,"startTime":69.13044400000001,"endTime":69.21196574999999,"instrument":4,"isDrum":true},{"pitch":38,"velocity":85,"startTime":69.13044400000001,"endTime":69.21196574999999,"instrument":4,"isDrum":true},{"pitch":44,"velocity":95,"startTime":69.13044400000001,"endTime":69.25272662500001,"instrument":4,"isDrum":true},{"pitch":38,"velocity":55,"startTime":69.782618,"endTime":69.86413974999999,"instrument":4,"isDrum":true},{"pitch":38,"velocity":85,"startTime":69.782618,"endTime":69.86413974999999,"instrument":4,"isDrum":true},{"pitch":44,"velocity":95,"startTime":69.782618,"endTime":69.89810714583334,"instrument":4,"isDrum":true},{"pitch":38,"velocity":34,"startTime":70.108705,"endTime":70.16305283333332,"instrument":4,"isDrum":true},{"pitch":46,"velocity":69,"startTime":70.108705,"endTime":70.42120504166667,"instrument":4,"isDrum":true},{"pitch":38,"velocity":39,"startTime":70.16305283333332,"endTime":70.21740066666668,"instrument":4,"isDrum":true},{"pitch":38,"velocity":39,"startTime":70.21740066666668,"endTime":70.2717485,"instrument":4,"isDrum":true},{"pitch":38,"velocity":42,"startTime":70.2717485,"endTime":70.32609633333334,"instrument":4,"isDrum":true},{"pitch":38,"velocity":48,"startTime":70.32609633333334,"endTime":70.38044416666666,"instrument":4,"isDrum":true},{"pitch":38,"velocity":53,"startTime":70.38044416666666,"endTime":70.434792,"instrument":4,"isDrum":true},{"pitch":38,"velocity":55,"startTime":70.434792,"endTime":70.51631375000001,"instrument":4,"isDrum":true},{"pitch":38,"velocity":85,"startTime":70.434792,"endTime":70.51631375000001,"instrument":4,"isDrum":true},{"pitch":44,"velocity":95,"startTime":70.434792,"endTime":70.57066158333333,"instrument":4,"isDrum":true},{"pitch":38,"velocity":55,"startTime":71.086966,"endTime":71.16848775000001,"instrument":4,"isDrum":true},{"pitch":38,"velocity":85,"startTime":71.086966,"endTime":71.16848775000001,"instrument":4,"isDrum":true},{"pitch":44,"velocity":95,"startTime":71.086966,"endTime":71.21604210416666,"instrument":4,"isDrum":true},{"pitch":38,"velocity":55,"startTime":71.73914,"endTime":71.82066175,"instrument":4,"isDrum":true},{"pitch":38,"velocity":85,"startTime":71.73914,"endTime":71.82066175,"instrument":4,"isDrum":true},{"pitch":44,"velocity":95,"startTime":71.73914,"endTime":71.861422625,"instrument":4,"isDrum":true},{"pitch":38,"velocity":55,"startTime":72.391314,"endTime":72.47283575,"instrument":4,"isDrum":true},{"pitch":38,"velocity":85,"startTime":72.391314,"endTime":72.47283575,"instrument":4,"isDrum":true},{"pitch":44,"velocity":95,"startTime":72.391314,"endTime":72.50680314583333,"instrument":4,"isDrum":true},{"pitch":38,"velocity":34,"startTime":72.717401,"endTime":72.77174883333332,"instrument":4,"isDrum":true},{"pitch":46,"velocity":69,"startTime":72.717401,"endTime":73.02990104166666,"instrument":4,"isDrum":true},{"pitch":38,"velocity":39,"startTime":72.77174883333332,"endTime":72.82609666666667,"instrument":4,"isDrum":true},{"pitch":38,"velocity":39,"startTime":72.82609666666667,"endTime":72.8804445,"instrument":4,"isDrum":true},{"pitch":38,"velocity":42,"startTime":72.8804445,"endTime":72.93479233333333,"instrument":4,"isDrum":true},{"pitch":38,"velocity":48,"startTime":72.93479233333333,"endTime":72.98914016666667,"instrument":4,"isDrum":true},{"pitch":38,"velocity":53,"startTime":72.98914016666667,"endTime":73.043488,"instrument":4,"isDrum":true},{"pitch":38,"velocity":55,"startTime":73.043488,"endTime":73.12500975,"instrument":4,"isDrum":true},{"pitch":38,"velocity":85,"startTime":73.043488,"endTime":73.12500975,"instrument":4,"isDrum":true},{"pitch":44,"velocity":95,"startTime":73.043488,"endTime":73.17935758333333,"instrument":4,"isDrum":true},{"pitch":38,"velocity":55,"startTime":73.695662,"endTime":73.77718375,"instrument":4,"isDrum":true},{"pitch":38,"velocity":85,"startTime":73.695662,"endTime":73.77718375,"instrument":4,"isDrum":true},{"pitch":44,"velocity":95,"startTime":73.695662,"endTime":73.82473810416666,"instrument":4,"isDrum":true},{"pitch":38,"velocity":55,"startTime":74.347836,"endTime":74.42935775000001,"instrument":4,"isDrum":true},{"pitch":38,"velocity":85,"startTime":74.347836,"endTime":74.42935775000001,"instrument":4,"isDrum":true},{"pitch":44,"velocity":95,"startTime":74.347836,"endTime":74.470118625,"instrument":4,"isDrum":true},{"pitch":38,"velocity":55,"startTime":75.00000999999999,"endTime":75.08153175,"instrument":4,"isDrum":true},{"pitch":38,"velocity":85,"startTime":75.00000999999999,"endTime":75.08153175,"instrument":4,"isDrum":true},{"pitch":44,"velocity":95,"startTime":75.00000999999999,"endTime":75.11549914583333,"instrument":4,"isDrum":true},{"pitch":38,"velocity":34,"startTime":75.32609699999999,"endTime":75.38044483333334,"instrument":4,"isDrum":true},{"pitch":46,"velocity":69,"startTime":75.32609699999999,"endTime":75.63859704166667,"instrument":4,"isDrum":true},{"pitch":38,"velocity":39,"startTime":75.38044483333334,"endTime":75.43479266666667,"instrument":4,"isDrum":true},{"pitch":38,"velocity":39,"startTime":75.43479266666667,"endTime":75.4891405,"instrument":4,"isDrum":true},{"pitch":38,"velocity":42,"startTime":75.4891405,"endTime":75.54348833333333,"instrument":4,"isDrum":true},{"pitch":38,"velocity":48,"startTime":75.54348833333333,"endTime":75.59783616666667,"instrument":4,"isDrum":true},{"pitch":38,"velocity":53,"startTime":75.59783616666667,"endTime":75.65218399999999,"instrument":4,"isDrum":true},{"pitch":38,"velocity":55,"startTime":75.65218399999999,"endTime":75.73370575,"instrument":4,"isDrum":true},{"pitch":38,"velocity":85,"startTime":75.65218399999999,"endTime":75.73370575,"instrument":4,"isDrum":true},{"pitch":44,"velocity":95,"startTime":75.65218399999999,"endTime":75.77446662499999,"instrument":4,"isDrum":true},{"pitch":38,"velocity":55,"startTime":76.304358,"endTime":76.38587975,"instrument":4,"isDrum":true},{"pitch":38,"velocity":85,"startTime":76.304358,"endTime":76.38587975,"instrument":4,"isDrum":true},{"pitch":44,"velocity":95,"startTime":76.304358,"endTime":76.42664062499999,"instrument":4,"isDrum":true},{"pitch":38,"velocity":55,"startTime":76.956532,"endTime":77.03805375,"instrument":4,"isDrum":true},{"pitch":38,"velocity":85,"startTime":76.956532,"endTime":77.03805375,"instrument":4,"isDrum":true},{"pitch":44,"velocity":95,"startTime":76.956532,"endTime":77.07202114583332,"instrument":4,"isDrum":true},{"pitch":38,"velocity":55,"startTime":77.60870600000001,"endTime":77.69022774999999,"instrument":4,"isDrum":true},{"pitch":38,"velocity":85,"startTime":77.60870600000001,"endTime":77.69022774999999,"instrument":4,"isDrum":true},{"pitch":44,"velocity":95,"startTime":77.60870600000001,"endTime":77.73778210416667,"instrument":4,"isDrum":true},{"pitch":38,"velocity":34,"startTime":77.93479300000001,"endTime":77.98914083333334,"instrument":4,"isDrum":true},{"pitch":46,"velocity":69,"startTime":77.93479300000001,"endTime":78.24729304166668,"instrument":4,"isDrum":true},{"pitch":38,"velocity":39,"startTime":77.98914083333334,"endTime":78.04348866666668,"instrument":4,"isDrum":true},{"pitch":38,"velocity":39,"startTime":78.04348866666668,"endTime":78.0978365,"instrument":4,"isDrum":true},{"pitch":38,"velocity":42,"startTime":78.0978365,"endTime":78.15218433333334,"instrument":4,"isDrum":true},{"pitch":38,"velocity":48,"startTime":78.15218433333334,"endTime":78.20653216666666,"instrument":4,"isDrum":true},{"pitch":38,"velocity":53,"startTime":78.20653216666666,"endTime":78.26088000000001,"instrument":4,"isDrum":true},{"pitch":38,"velocity":55,"startTime":78.26088000000001,"endTime":78.34240175000001,"instrument":4,"isDrum":true},{"pitch":38,"velocity":85,"startTime":78.26088000000001,"endTime":78.34240175000001,"instrument":4,"isDrum":true},{"pitch":51,"velocity":87,"startTime":78.26088000000001,"endTime":78.37636914583334,"instrument":4,"isDrum":true},{"pitch":70,"velocity":78,"startTime":80.86957600000001,"endTime":80.991858625,"instrument":4,"isDrum":true},{"pitch":51,"velocity":85,"startTime":81.195663,"endTime":81.4606086875,"instrument":4,"isDrum":true},{"pitch":38,"velocity":55,"startTime":81.52175,"endTime":81.65082610416667,"instrument":4,"isDrum":true},{"pitch":38,"velocity":85,"startTime":81.52175,"endTime":81.65082610416667,"instrument":4,"isDrum":true},{"pitch":44,"velocity":95,"startTime":81.52175,"endTime":81.83425004166668,"instrument":4,"isDrum":true},{"pitch":38,"velocity":55,"startTime":82.173924,"endTime":82.28941314583335,"instrument":4,"isDrum":true},{"pitch":38,"velocity":85,"startTime":82.173924,"endTime":82.28941314583335,"instrument":4,"isDrum":true},{"pitch":44,"velocity":90,"startTime":82.173924,"endTime":82.35055445833333,"instrument":4,"isDrum":true},{"pitch":51,"velocity":87,"startTime":82.173924,"endTime":82.40490229166666,"instrument":4,"isDrum":true},{"pitch":38,"velocity":85,"startTime":83.478272,"endTime":83.7432176875,"instrument":4,"isDrum":true},{"pitch":51,"velocity":87,"startTime":83.478272,"endTime":83.5394133125,"instrument":4,"isDrum":true},{"pitch":53,"velocity":80,"startTime":83.478272,"endTime":83.94702206250001,"instrument":4,"isDrum":true},{"pitch":38,"velocity":85,"startTime":84.78262,"endTime":84.94566350000001,"instrument":4,"isDrum":true},{"pitch":51,"velocity":87,"startTime":84.78262,"endTime":84.8437613125,"instrument":4,"isDrum":true},{"pitch":53,"velocity":93,"startTime":84.78262,"endTime":85.04077220833334,"instrument":4,"isDrum":true},{"pitch":38,"velocity":85,"startTime":86.086968,"endTime":86.2296310625,"instrument":4,"isDrum":true},{"pitch":51,"velocity":87,"startTime":86.086968,"endTime":86.15490279166667,"instrument":4,"isDrum":true},{"pitch":53,"velocity":93,"startTime":86.086968,"endTime":86.41984847916666,"instrument":4,"isDrum":true},{"pitch":38,"velocity":85,"startTime":87.391316,"endTime":87.53397906250001,"instrument":4,"isDrum":true},{"pitch":51,"velocity":87,"startTime":87.391316,"endTime":87.45925079166666,"instrument":4,"isDrum":true},{"pitch":53,"velocity":93,"startTime":87.391316,"endTime":87.66305516666667,"instrument":4,"isDrum":true},{"pitch":38,"velocity":85,"startTime":88.04349,"endTime":88.1861530625,"instrument":4,"isDrum":true},{"pitch":51,"velocity":87,"startTime":88.04349,"endTime":88.11142479166666,"instrument":4,"isDrum":true},{"pitch":53,"velocity":93,"startTime":88.04349,"endTime":88.31522916666667,"instrument":4,"isDrum":true},{"pitch":38,"velocity":85,"startTime":88.69566400000001,"endTime":88.82474010416666,"instrument":4,"isDrum":true},{"pitch":51,"velocity":85,"startTime":88.69566400000001,"endTime":88.74321835416667,"instrument":4,"isDrum":true},{"pitch":51,"velocity":87,"startTime":88.69566400000001,"endTime":88.74321835416667,"instrument":4,"isDrum":true},{"pitch":38,"velocity":34,"startTime":90.978273,"endTime":91.03262083333334,"instrument":4,"isDrum":true},{"pitch":46,"velocity":69,"startTime":90.978273,"endTime":91.29077304166667,"instrument":4,"isDrum":true},{"pitch":38,"velocity":39,"startTime":91.03262083333334,"endTime":91.08696866666666,"instrument":4,"isDrum":true},{"pitch":38,"velocity":39,"startTime":91.08696866666666,"endTime":91.1413165,"instrument":4,"isDrum":true},{"pitch":38,"velocity":42,"startTime":91.1413165,"endTime":91.19566433333334,"instrument":4,"isDrum":true},{"pitch":38,"velocity":48,"startTime":91.19566433333334,"endTime":91.25001216666666,"instrument":4,"isDrum":true},{"pitch":38,"velocity":53,"startTime":91.25001216666666,"endTime":91.30436,"instrument":4,"isDrum":true},{"pitch":38,"velocity":55,"startTime":91.30436,"endTime":91.38588175000001,"instrument":4,"isDrum":true},{"pitch":38,"velocity":85,"startTime":91.30436,"endTime":91.38588175000001,"instrument":4,"isDrum":true},{"pitch":44,"velocity":95,"startTime":91.30436,"endTime":91.46061002083334,"instrument":4,"isDrum":true},{"pitch":38,"velocity":55,"startTime":91.956534,"endTime":92.03805575000001,"instrument":4,"isDrum":true},{"pitch":38,"velocity":85,"startTime":91.956534,"endTime":92.03805575000001,"instrument":4,"isDrum":true},{"pitch":44,"velocity":95,"startTime":91.956534,"endTime":92.0991970625,"instrument":4,"isDrum":true},{"pitch":38,"velocity":55,"startTime":92.60870800000001,"endTime":92.69022975,"instrument":4,"isDrum":true},{"pitch":38,"velocity":85,"startTime":92.60870800000001,"endTime":92.69022975,"instrument":4,"isDrum":true},{"pitch":44,"velocity":95,"startTime":92.60870800000001,"endTime":92.73778410416666,"instrument":4,"isDrum":true},{"pitch":38,"velocity":55,"startTime":93.260882,"endTime":93.34240375,"instrument":4,"isDrum":true},{"pitch":38,"velocity":85,"startTime":93.260882,"endTime":93.34240375,"instrument":4,"isDrum":true},{"pitch":44,"velocity":95,"startTime":93.260882,"endTime":93.38316462499999,"instrument":4,"isDrum":true},{"pitch":38,"velocity":34,"startTime":93.586969,"endTime":93.64131683333335,"instrument":4,"isDrum":true},{"pitch":46,"velocity":69,"startTime":93.586969,"endTime":93.89946904166666,"instrument":4,"isDrum":true},{"pitch":38,"velocity":39,"startTime":93.64131683333335,"endTime":93.69566466666667,"instrument":4,"isDrum":true},{"pitch":38,"velocity":39,"startTime":93.69566466666667,"endTime":93.75001250000001,"instrument":4,"isDrum":true},{"pitch":38,"velocity":42,"startTime":93.75001250000001,"endTime":93.80436033333335,"instrument":4,"isDrum":true},{"pitch":38,"velocity":48,"startTime":93.80436033333335,"endTime":93.85870816666666,"instrument":4,"isDrum":true},{"pitch":38,"velocity":53,"startTime":93.85870816666666,"endTime":93.913056,"instrument":4,"isDrum":true},{"pitch":38,"velocity":55,"startTime":93.913056,"endTime":93.99457775,"instrument":4,"isDrum":true},{"pitch":38,"velocity":85,"startTime":93.913056,"endTime":93.99457775,"instrument":4,"isDrum":true},{"pitch":44,"velocity":95,"startTime":93.913056,"endTime":94.04892558333334,"instrument":4,"isDrum":true},{"pitch":38,"velocity":55,"startTime":94.56523,"endTime":94.64675175,"instrument":4,"isDrum":true},{"pitch":38,"velocity":85,"startTime":94.56523,"endTime":94.64675175,"instrument":4,"isDrum":true},{"pitch":44,"velocity":95,"startTime":94.56523,"endTime":94.69430610416666,"instrument":4,"isDrum":true},{"pitch":38,"velocity":55,"startTime":95.217404,"endTime":95.29892575,"instrument":4,"isDrum":true},{"pitch":38,"velocity":85,"startTime":95.217404,"endTime":95.29892575,"instrument":4,"isDrum":true},{"pitch":44,"velocity":95,"startTime":95.217404,"endTime":95.33968662500001,"instrument":4,"isDrum":true},{"pitch":38,"velocity":55,"startTime":95.86957799999999,"endTime":95.95109975,"instrument":4,"isDrum":true},{"pitch":38,"velocity":85,"startTime":95.86957799999999,"endTime":95.95109975,"instrument":4,"isDrum":true},{"pitch":44,"velocity":95,"startTime":95.86957799999999,"endTime":95.98506714583334,"instrument":4,"isDrum":true},{"pitch":38,"velocity":34,"startTime":96.19566499999999,"endTime":96.25001283333334,"instrument":4,"isDrum":true},{"pitch":46,"velocity":69,"startTime":96.19566499999999,"endTime":96.50816504166666,"instrument":4,"isDrum":true},{"pitch":38,"velocity":39,"startTime":96.25001283333334,"endTime":96.30436066666667,"instrument":4,"isDrum":true},{"pitch":38,"velocity":39,"startTime":96.30436066666667,"endTime":96.3587085,"instrument":4,"isDrum":true},{"pitch":38,"velocity":42,"startTime":96.3587085,"endTime":96.41305633333334,"instrument":4,"isDrum":true},{"pitch":38,"velocity":48,"startTime":96.41305633333334,"endTime":96.46740416666667,"instrument":4,"isDrum":true},{"pitch":38,"velocity":53,"startTime":96.46740416666667,"endTime":96.521752,"instrument":4,"isDrum":true},{"pitch":38,"velocity":55,"startTime":96.521752,"endTime":96.58968679166667,"instrument":4,"isDrum":true},{"pitch":38,"velocity":85,"startTime":96.521752,"endTime":96.58968679166667,"instrument":4,"isDrum":true},{"pitch":44,"velocity":95,"startTime":96.521752,"endTime":96.65082810416666,"instrument":4,"isDrum":true},{"pitch":38,"velocity":55,"startTime":97.17392600000001,"endTime":97.25544775,"instrument":4,"isDrum":true},{"pitch":38,"velocity":85,"startTime":97.17392600000001,"endTime":97.25544775,"instrument":4,"isDrum":true},{"pitch":44,"velocity":95,"startTime":97.17392600000001,"endTime":97.30979558333334,"instrument":4,"isDrum":true},{"pitch":38,"velocity":55,"startTime":97.82610000000001,"endTime":97.90762174999999,"instrument":4,"isDrum":true},{"pitch":38,"velocity":85,"startTime":97.82610000000001,"endTime":97.90762174999999,"instrument":4,"isDrum":true},{"pitch":44,"velocity":95,"startTime":97.82610000000001,"endTime":97.95517610416665,"instrument":4,"isDrum":true},{"pitch":38,"velocity":55,"startTime":98.47827400000001,"endTime":98.55979574999999,"instrument":4,"isDrum":true},{"pitch":38,"velocity":85,"startTime":98.47827400000001,"endTime":98.55979574999999,"instrument":4,"isDrum":true},{"pitch":44,"velocity":95,"startTime":98.47827400000001,"endTime":98.60735010416667,"instrument":4,"isDrum":true},{"pitch":38,"velocity":34,"startTime":98.80436100000001,"endTime":98.85870883333335,"instrument":4,"isDrum":true},{"pitch":46,"velocity":69,"startTime":98.80436100000001,"endTime":99.11686104166665,"instrument":4,"isDrum":true},{"pitch":38,"velocity":39,"startTime":98.85870883333335,"endTime":98.91305666666666,"instrument":4,"isDrum":true},{"pitch":38,"velocity":39,"startTime":98.91305666666666,"endTime":98.9674045,"instrument":4,"isDrum":true},{"pitch":38,"velocity":42,"startTime":98.9674045,"endTime":99.02175233333334,"instrument":4,"isDrum":true},{"pitch":38,"velocity":48,"startTime":99.02175233333334,"endTime":99.07610016666666,"instrument":4,"isDrum":true},{"pitch":38,"velocity":53,"startTime":99.07610016666666,"endTime":99.130448,"instrument":4,"isDrum":true},{"pitch":38,"velocity":55,"startTime":99.130448,"endTime":99.21196975000001,"instrument":4,"isDrum":true},{"pitch":38,"velocity":85,"startTime":99.130448,"endTime":99.21196975000001,"instrument":4,"isDrum":true},{"pitch":44,"velocity":95,"startTime":99.130448,"endTime":99.26631758333333,"instrument":4,"isDrum":true},{"pitch":38,"velocity":55,"startTime":99.782622,"endTime":99.86414375000001,"instrument":4,"isDrum":true},{"pitch":38,"velocity":85,"startTime":99.782622,"endTime":99.86414375000001,"instrument":4,"isDrum":true},{"pitch":44,"velocity":95,"startTime":99.782622,"endTime":99.91169810416667,"instrument":4,"isDrum":true},{"pitch":38,"velocity":55,"startTime":100.434796,"endTime":100.51631775000001,"instrument":4,"isDrum":true},{"pitch":38,"velocity":85,"startTime":100.434796,"endTime":100.51631775000001,"instrument":4,"isDrum":true},{"pitch":44,"velocity":95,"startTime":100.434796,"endTime":100.57066558333334,"instrument":4,"isDrum":true},{"pitch":38,"velocity":55,"startTime":101.08697000000001,"endTime":101.16849175000002,"instrument":4,"isDrum":true},{"pitch":38,"velocity":85,"startTime":101.08697000000001,"endTime":101.16849175000002,"instrument":4,"isDrum":true},{"pitch":44,"velocity":95,"startTime":101.08697000000001,"endTime":101.22283958333335,"instrument":4,"isDrum":true},{"pitch":38,"velocity":34,"startTime":101.41305700000001,"endTime":101.46740483333335,"instrument":4,"isDrum":true},{"pitch":46,"velocity":69,"startTime":101.41305700000001,"endTime":101.72555704166668,"instrument":4,"isDrum":true},{"pitch":38,"velocity":39,"startTime":101.46740483333335,"endTime":101.52175266666667,"instrument":4,"isDrum":true},{"pitch":38,"velocity":39,"startTime":101.52175266666667,"endTime":101.5761005,"instrument":4,"isDrum":true},{"pitch":38,"velocity":42,"startTime":101.5761005,"endTime":101.63044833333333,"instrument":4,"isDrum":true},{"pitch":38,"velocity":48,"startTime":101.63044833333333,"endTime":101.68479616666666,"instrument":4,"isDrum":true},{"pitch":38,"velocity":53,"startTime":101.68479616666666,"endTime":101.73914400000001,"instrument":4,"isDrum":true},{"pitch":38,"velocity":55,"startTime":101.73914400000001,"endTime":101.82066575,"instrument":4,"isDrum":true},{"pitch":38,"velocity":85,"startTime":101.73914400000001,"endTime":101.82066575,"instrument":4,"isDrum":true},{"pitch":44,"velocity":95,"startTime":101.73914400000001,"endTime":101.87501358333336,"instrument":4,"isDrum":true},{"pitch":38,"velocity":55,"startTime":102.391318,"endTime":102.47283975,"instrument":4,"isDrum":true},{"pitch":38,"velocity":85,"startTime":102.391318,"endTime":102.47283975,"instrument":4,"isDrum":true},{"pitch":44,"velocity":95,"startTime":102.391318,"endTime":102.52718758333334,"instrument":4,"isDrum":true},{"pitch":38,"velocity":55,"startTime":103.043492,"endTime":103.12501375000001,"instrument":4,"isDrum":true},{"pitch":38,"velocity":85,"startTime":103.043492,"endTime":103.12501375000001,"instrument":4,"isDrum":true},{"pitch":44,"velocity":95,"startTime":103.043492,"endTime":103.165774625,"instrument":4,"isDrum":true},{"pitch":38,"velocity":55,"startTime":103.695666,"endTime":103.77718775000001,"instrument":4,"isDrum":true},{"pitch":38,"velocity":85,"startTime":103.695666,"endTime":103.77718775000001,"instrument":4,"isDrum":true},{"pitch":44,"velocity":95,"startTime":103.695666,"endTime":103.82474210416666,"instrument":4,"isDrum":true},{"pitch":38,"velocity":34,"startTime":104.021753,"endTime":104.07610083333334,"instrument":4,"isDrum":true},{"pitch":46,"velocity":69,"startTime":104.021753,"endTime":104.33425304166667,"instrument":4,"isDrum":true},{"pitch":38,"velocity":39,"startTime":104.07610083333334,"endTime":104.13044866666667,"instrument":4,"isDrum":true},{"pitch":38,"velocity":39,"startTime":104.13044866666667,"endTime":104.1847965,"instrument":4,"isDrum":true},{"pitch":38,"velocity":42,"startTime":104.1847965,"endTime":104.23914433333336,"instrument":4,"isDrum":true},{"pitch":38,"velocity":48,"startTime":104.23914433333336,"endTime":104.29349216666665,"instrument":4,"isDrum":true},{"pitch":38,"velocity":53,"startTime":104.29349216666665,"endTime":104.34784,"instrument":4,"isDrum":true},{"pitch":38,"velocity":85,"startTime":104.34784,"endTime":104.61278568750001,"instrument":4,"isDrum":true},{"pitch":51,"velocity":87,"startTime":104.34784,"endTime":104.4089813125,"instrument":4,"isDrum":true},{"pitch":53,"velocity":80,"startTime":104.34784,"endTime":104.81659006250001,"instrument":4,"isDrum":true},{"pitch":38,"velocity":85,"startTime":105.652188,"endTime":105.81523150000001,"instrument":4,"isDrum":true},{"pitch":51,"velocity":87,"startTime":105.652188,"endTime":105.71332931250001,"instrument":4,"isDrum":true},{"pitch":53,"velocity":93,"startTime":105.652188,"endTime":105.91034020833334,"instrument":4,"isDrum":true},{"pitch":38,"velocity":85,"startTime":106.956536,"endTime":107.0991990625,"instrument":4,"isDrum":true},{"pitch":51,"velocity":87,"startTime":106.956536,"endTime":107.02447079166667,"instrument":4,"isDrum":true},{"pitch":53,"velocity":93,"startTime":106.956536,"endTime":107.28941647916666,"instrument":4,"isDrum":true},{"pitch":38,"velocity":85,"startTime":108.260884,"endTime":108.40354706250001,"instrument":4,"isDrum":true},{"pitch":51,"velocity":87,"startTime":108.260884,"endTime":108.32881879166666,"instrument":4,"isDrum":true},{"pitch":53,"velocity":93,"startTime":108.260884,"endTime":108.53262316666667,"instrument":4,"isDrum":true},{"pitch":38,"velocity":85,"startTime":108.913058,"endTime":109.0557210625,"instrument":4,"isDrum":true},{"pitch":51,"velocity":87,"startTime":108.913058,"endTime":108.98099279166667,"instrument":4,"isDrum":true},{"pitch":53,"velocity":93,"startTime":108.913058,"endTime":109.18479716666667,"instrument":4,"isDrum":true},{"pitch":38,"velocity":85,"startTime":109.56523200000001,"endTime":109.69430810416667,"instrument":4,"isDrum":true},{"pitch":51,"velocity":85,"startTime":109.56523200000001,"endTime":109.61278635416667,"instrument":4,"isDrum":true},{"pitch":51,"velocity":87,"startTime":109.56523200000001,"endTime":109.61278635416667,"instrument":4,"isDrum":true},{"pitch":38,"velocity":34,"startTime":111.847841,"endTime":111.90218883333334,"instrument":4,"isDrum":true},{"pitch":46,"velocity":69,"startTime":111.847841,"endTime":112.16034104166667,"instrument":4,"isDrum":true},{"pitch":38,"velocity":39,"startTime":111.90218883333334,"endTime":111.95653666666666,"instrument":4,"isDrum":true},{"pitch":38,"velocity":39,"startTime":111.95653666666666,"endTime":112.01088449999999,"instrument":4,"isDrum":true},{"pitch":38,"velocity":42,"startTime":112.01088449999999,"endTime":112.06523233333334,"instrument":4,"isDrum":true},{"pitch":38,"velocity":48,"startTime":112.06523233333334,"endTime":112.11958016666667,"instrument":4,"isDrum":true},{"pitch":38,"velocity":53,"startTime":112.11958016666667,"endTime":112.173928,"instrument":4,"isDrum":true},{"pitch":38,"velocity":55,"startTime":112.173928,"endTime":112.25544975000001,"instrument":4,"isDrum":true},{"pitch":38,"velocity":85,"startTime":112.173928,"endTime":112.25544975000001,"instrument":4,"isDrum":true},{"pitch":44,"velocity":95,"startTime":112.173928,"endTime":112.33017802083334,"instrument":4,"isDrum":true},{"pitch":38,"velocity":55,"startTime":112.826102,"endTime":112.90762375000001,"instrument":4,"isDrum":true},{"pitch":38,"velocity":85,"startTime":112.826102,"endTime":112.90762375000001,"instrument":4,"isDrum":true},{"pitch":44,"velocity":95,"startTime":112.826102,"endTime":112.9687650625,"instrument":4,"isDrum":true},{"pitch":38,"velocity":55,"startTime":113.47827600000001,"endTime":113.55979775,"instrument":4,"isDrum":true},{"pitch":38,"velocity":85,"startTime":113.47827600000001,"endTime":113.55979775,"instrument":4,"isDrum":true},{"pitch":44,"velocity":95,"startTime":113.47827600000001,"endTime":113.60735210416667,"instrument":4,"isDrum":true},{"pitch":38,"velocity":55,"startTime":114.13045,"endTime":114.21197175,"instrument":4,"isDrum":true},{"pitch":38,"velocity":85,"startTime":114.13045,"endTime":114.21197175,"instrument":4,"isDrum":true},{"pitch":44,"velocity":95,"startTime":114.13045,"endTime":114.252732625,"instrument":4,"isDrum":true},{"pitch":38,"velocity":34,"startTime":114.456537,"endTime":114.51088483333334,"instrument":4,"isDrum":true},{"pitch":46,"velocity":69,"startTime":114.456537,"endTime":114.76903704166666,"instrument":4,"isDrum":true},{"pitch":38,"velocity":39,"startTime":114.51088483333334,"endTime":114.56523266666666,"instrument":4,"isDrum":true},{"pitch":38,"velocity":39,"startTime":114.56523266666666,"endTime":114.61958050000001,"instrument":4,"isDrum":true},{"pitch":38,"velocity":42,"startTime":114.61958050000001,"endTime":114.67392833333335,"instrument":4,"isDrum":true},{"pitch":38,"velocity":48,"startTime":114.67392833333335,"endTime":114.72827616666666,"instrument":4,"isDrum":true},{"pitch":38,"velocity":53,"startTime":114.72827616666666,"endTime":114.782624,"instrument":4,"isDrum":true},{"pitch":38,"velocity":55,"startTime":114.782624,"endTime":114.85735227083333,"instrument":4,"isDrum":true},{"pitch":38,"velocity":85,"startTime":114.782624,"endTime":114.85735227083333,"instrument":4,"isDrum":true},{"pitch":44,"velocity":95,"startTime":114.782624,"endTime":114.87773270833334,"instrument":4,"isDrum":true},{"pitch":51,"velocity":87,"startTime":114.782624,"endTime":114.83697183333334,"instrument":4,"isDrum":true},{"pitch":38,"velocity":55,"startTime":115.108711,"endTime":115.20381970833336,"instrument":4,"isDrum":true},{"pitch":38,"velocity":85,"startTime":115.108711,"endTime":115.20381970833336,"instrument":4,"isDrum":true},{"pitch":44,"velocity":95,"startTime":115.108711,"endTime":115.20381970833336,"instrument":4,"isDrum":true},{"pitch":51,"velocity":87,"startTime":115.108711,"endTime":115.19023275,"instrument":4,"isDrum":true},{"pitch":38,"velocity":55,"startTime":115.760885,"endTime":115.8627871875,"instrument":4,"isDrum":true},{"pitch":38,"velocity":85,"startTime":115.760885,"endTime":115.8627871875,"instrument":4,"isDrum":true},{"pitch":44,"velocity":95,"startTime":115.760885,"endTime":115.91034154166665,"instrument":4,"isDrum":true},{"pitch":38,"velocity":55,"startTime":116.41305899999999,"endTime":116.52175466666667,"instrument":4,"isDrum":true},{"pitch":44,"velocity":95,"startTime":116.41305899999999,"endTime":116.50816770833335,"instrument":4,"isDrum":true},{"pitch":38,"velocity":55,"startTime":116.73914599999999,"endTime":116.83425470833335,"instrument":4,"isDrum":true},{"pitch":38,"velocity":85,"startTime":116.73914599999999,"endTime":116.83425470833335,"instrument":4,"isDrum":true},{"pitch":44,"velocity":95,"startTime":116.73914599999999,"endTime":116.86142862500002,"instrument":4,"isDrum":true},{"pitch":51,"velocity":87,"startTime":116.73914599999999,"endTime":116.82066775,"instrument":4,"isDrum":true},{"pitch":38,"velocity":55,"startTime":117.39132000000001,"endTime":117.50001566666666,"instrument":4,"isDrum":true},{"pitch":38,"velocity":85,"startTime":117.39132000000001,"endTime":117.50001566666666,"instrument":4,"isDrum":true},{"pitch":44,"velocity":95,"startTime":117.39132000000001,"endTime":117.4932221875,"instrument":4,"isDrum":true},{"pitch":38,"velocity":55,"startTime":117.71740700000001,"endTime":117.80572222916666,"instrument":4,"isDrum":true},{"pitch":38,"velocity":85,"startTime":117.71740700000001,"endTime":117.80572222916666,"instrument":4,"isDrum":true},{"pitch":44,"velocity":95,"startTime":117.71740700000001,"endTime":117.81251570833335,"instrument":4,"isDrum":true},{"pitch":38,"velocity":55,"startTime":118.36958100000001,"endTime":118.47148318750001,"instrument":4,"isDrum":true},{"pitch":38,"velocity":85,"startTime":118.36958100000001,"endTime":118.47148318750001,"instrument":4,"isDrum":true},{"pitch":44,"velocity":95,"startTime":118.36958100000001,"endTime":118.47148318750001,"instrument":4,"isDrum":true},{"pitch":38,"velocity":55,"startTime":119.02175500000001,"endTime":119.14403762500001,"instrument":4,"isDrum":true},{"pitch":44,"velocity":95,"startTime":119.02175500000001,"endTime":119.19838545833335,"instrument":4,"isDrum":true},{"pitch":38,"velocity":55,"startTime":119.34784200000001,"endTime":119.45653766666666,"instrument":4,"isDrum":true},{"pitch":38,"velocity":85,"startTime":119.34784200000001,"endTime":119.45653766666666,"instrument":4,"isDrum":true},{"pitch":44,"velocity":95,"startTime":119.34784200000001,"endTime":119.45653766666666,"instrument":4,"isDrum":true},{"pitch":51,"velocity":87,"startTime":119.34784200000001,"endTime":119.43615722916667,"instrument":4,"isDrum":true},{"pitch":38,"velocity":55,"startTime":120.000016,"endTime":120.07474427083335,"instrument":4,"isDrum":true},{"pitch":38,"velocity":85,"startTime":120.000016,"endTime":120.07474427083335,"instrument":4,"isDrum":true},{"pitch":51,"velocity":85,"startTime":120.000016,"endTime":120.08833122916666,"instrument":4,"isDrum":true},{"pitch":51,"velocity":87,"startTime":120.000016,"endTime":120.08833122916666,"instrument":4,"isDrum":true},{"pitch":70,"velocity":78,"startTime":122.608712,"endTime":122.77175550000001,"instrument":4,"isDrum":true},{"pitch":51,"velocity":85,"startTime":122.934799,"endTime":123.21333164583335,"instrument":4,"isDrum":true},{"pitch":38,"velocity":55,"startTime":123.260886,"endTime":123.383168625,"instrument":4,"isDrum":true},{"pitch":38,"velocity":85,"startTime":123.260886,"endTime":123.383168625,"instrument":4,"isDrum":true},{"pitch":44,"velocity":95,"startTime":123.260886,"endTime":123.45110341666665,"instrument":4,"isDrum":true},{"pitch":38,"velocity":55,"startTime":123.91306,"endTime":123.97420131250001,"instrument":4,"isDrum":true},{"pitch":38,"velocity":85,"startTime":123.91306,"endTime":123.97420131250001,"instrument":4,"isDrum":true},{"pitch":44,"velocity":95,"startTime":123.91306,"endTime":124.07610350000002,"instrument":4,"isDrum":true},{"pitch":51,"velocity":87,"startTime":123.91306,"endTime":124.035342625,"instrument":4,"isDrum":true},{"pitch":38,"velocity":34,"startTime":124.891321,"endTime":124.94566883333334,"instrument":4,"isDrum":true},{"pitch":46,"velocity":69,"startTime":124.891321,"endTime":125.20382104166667,"instrument":4,"isDrum":true},{"pitch":38,"velocity":39,"startTime":124.94566883333334,"endTime":125.00001666666667,"instrument":4,"isDrum":true},{"pitch":38,"velocity":39,"startTime":125.00001666666667,"endTime":125.0543645,"instrument":4,"isDrum":true},{"pitch":38,"velocity":42,"startTime":125.0543645,"endTime":125.10871233333334,"instrument":4,"isDrum":true},{"pitch":38,"velocity":48,"startTime":125.10871233333334,"endTime":125.16306016666665,"instrument":4,"isDrum":true},{"pitch":38,"velocity":53,"startTime":125.16306016666665,"endTime":125.217408,"instrument":4,"isDrum":true},{"pitch":38,"velocity":55,"startTime":125.217408,"endTime":125.28534279166668,"instrument":4,"isDrum":true},{"pitch":38,"velocity":85,"startTime":125.217408,"endTime":125.28534279166668,"instrument":4,"isDrum":true},{"pitch":51,"velocity":87,"startTime":125.217408,"endTime":125.34648410416666,"instrument":4,"isDrum":true},{"pitch":38,"velocity":55,"startTime":125.869582,"endTime":125.95110375,"instrument":4,"isDrum":true},{"pitch":38,"velocity":85,"startTime":125.869582,"endTime":125.95110375,"instrument":4,"isDrum":true},{"pitch":44,"velocity":95,"startTime":125.869582,"endTime":126.00545158333334,"instrument":4,"isDrum":true},{"pitch":38,"velocity":55,"startTime":126.521756,"endTime":126.60327775,"instrument":4,"isDrum":true},{"pitch":38,"velocity":85,"startTime":126.521756,"endTime":126.60327775,"instrument":4,"isDrum":true},{"pitch":44,"velocity":95,"startTime":126.521756,"endTime":126.65083210416665,"instrument":4,"isDrum":true},{"pitch":38,"velocity":55,"startTime":127.17393,"endTime":127.25545175,"instrument":4,"isDrum":true},{"pitch":38,"velocity":85,"startTime":127.17393,"endTime":127.25545175,"instrument":4,"isDrum":true},{"pitch":44,"velocity":95,"startTime":127.17393,"endTime":127.30300610416666,"instrument":4,"isDrum":true},{"pitch":38,"velocity":34,"startTime":127.500017,"endTime":127.55436483333334,"instrument":4,"isDrum":true},{"pitch":46,"velocity":69,"startTime":127.500017,"endTime":127.81251704166667,"instrument":4,"isDrum":true},{"pitch":38,"velocity":39,"startTime":127.55436483333334,"endTime":127.60871266666666,"instrument":4,"isDrum":true},{"pitch":38,"velocity":39,"startTime":127.60871266666666,"endTime":127.6630605,"instrument":4,"isDrum":true},{"pitch":38,"velocity":42,"startTime":127.6630605,"endTime":127.71740833333335,"instrument":4,"isDrum":true},{"pitch":38,"velocity":48,"startTime":127.71740833333335,"endTime":127.77175616666668,"instrument":4,"isDrum":true},{"pitch":38,"velocity":53,"startTime":127.77175616666668,"endTime":127.826104,"instrument":4,"isDrum":true},{"pitch":38,"velocity":55,"startTime":127.826104,"endTime":127.90762575,"instrument":4,"isDrum":true},{"pitch":38,"velocity":85,"startTime":127.826104,"endTime":127.90762575,"instrument":4,"isDrum":true},{"pitch":44,"velocity":95,"startTime":127.826104,"endTime":127.96197358333335,"instrument":4,"isDrum":true},{"pitch":38,"velocity":55,"startTime":128.47827800000002,"endTime":128.55979975,"instrument":4,"isDrum":true},{"pitch":38,"velocity":85,"startTime":128.47827800000002,"endTime":128.55979975,"instrument":4,"isDrum":true},{"pitch":44,"velocity":95,"startTime":128.47827800000002,"endTime":128.60735410416666,"instrument":4,"isDrum":true},{"pitch":38,"velocity":55,"startTime":129.13045200000002,"endTime":129.21197375,"instrument":4,"isDrum":true},{"pitch":38,"velocity":85,"startTime":129.13045200000002,"endTime":129.21197375,"instrument":4,"isDrum":true},{"pitch":44,"velocity":95,"startTime":129.13045200000002,"endTime":129.26632158333334,"instrument":4,"isDrum":true},{"pitch":38,"velocity":55,"startTime":129.78262600000002,"endTime":129.86414775,"instrument":4,"isDrum":true},{"pitch":38,"velocity":85,"startTime":129.78262600000002,"endTime":129.86414775,"instrument":4,"isDrum":true},{"pitch":44,"velocity":95,"startTime":129.78262600000002,"endTime":129.91849558333334,"instrument":4,"isDrum":true},{"pitch":38,"velocity":34,"startTime":130.108713,"endTime":130.16306083333336,"instrument":4,"isDrum":true},{"pitch":46,"velocity":69,"startTime":130.108713,"endTime":130.42121304166665,"instrument":4,"isDrum":true},{"pitch":38,"velocity":39,"startTime":130.16306083333336,"endTime":130.21740866666667,"instrument":4,"isDrum":true},{"pitch":38,"velocity":39,"startTime":130.21740866666667,"endTime":130.2717565,"instrument":4,"isDrum":true},{"pitch":38,"velocity":42,"startTime":130.2717565,"endTime":130.32610433333335,"instrument":4,"isDrum":true},{"pitch":38,"velocity":48,"startTime":130.32610433333335,"endTime":130.38045216666666,"instrument":4,"isDrum":true},{"pitch":38,"velocity":53,"startTime":130.38045216666666,"endTime":130.4348,"instrument":4,"isDrum":true},{"pitch":38,"velocity":55,"startTime":130.4348,"endTime":130.51632175,"instrument":4,"isDrum":true},{"pitch":38,"velocity":85,"startTime":130.4348,"endTime":130.51632175,"instrument":4,"isDrum":true},{"pitch":44,"velocity":95,"startTime":130.4348,"endTime":130.57066958333334,"instrument":4,"isDrum":true},{"pitch":38,"velocity":55,"startTime":131.086974,"endTime":131.16849575,"instrument":4,"isDrum":true},{"pitch":38,"velocity":85,"startTime":131.086974,"endTime":131.16849575,"instrument":4,"isDrum":true},{"pitch":44,"velocity":95,"startTime":131.086974,"endTime":131.22284358333334,"instrument":4,"isDrum":true},{"pitch":38,"velocity":55,"startTime":131.739148,"endTime":131.82066975,"instrument":4,"isDrum":true},{"pitch":38,"velocity":85,"startTime":131.739148,"endTime":131.82066975,"instrument":4,"isDrum":true},{"pitch":44,"velocity":95,"startTime":131.739148,"endTime":131.861430625,"instrument":4,"isDrum":true},{"pitch":38,"velocity":55,"startTime":132.391322,"endTime":132.47284375,"instrument":4,"isDrum":true},{"pitch":38,"velocity":85,"startTime":132.391322,"endTime":132.47284375,"instrument":4,"isDrum":true},{"pitch":44,"velocity":95,"startTime":132.391322,"endTime":132.52039810416667,"instrument":4,"isDrum":true},{"pitch":38,"velocity":34,"startTime":132.717409,"endTime":132.77175683333334,"instrument":4,"isDrum":true},{"pitch":46,"velocity":69,"startTime":132.717409,"endTime":133.02990904166668,"instrument":4,"isDrum":true},{"pitch":38,"velocity":39,"startTime":132.77175683333334,"endTime":132.82610466666668,"instrument":4,"isDrum":true},{"pitch":38,"velocity":39,"startTime":132.82610466666668,"endTime":132.8804525,"instrument":4,"isDrum":true},{"pitch":38,"velocity":42,"startTime":132.8804525,"endTime":132.93480033333333,"instrument":4,"isDrum":true},{"pitch":38,"velocity":48,"startTime":132.93480033333333,"endTime":132.98914816666667,"instrument":4,"isDrum":true},{"pitch":38,"velocity":53,"startTime":132.98914816666667,"endTime":133.043496,"instrument":4,"isDrum":true},{"pitch":38,"velocity":55,"startTime":133.043496,"endTime":133.12501775,"instrument":4,"isDrum":true},{"pitch":38,"velocity":85,"startTime":133.043496,"endTime":133.12501775,"instrument":4,"isDrum":true},{"pitch":44,"velocity":95,"startTime":133.043496,"endTime":133.19974602083335,"instrument":4,"isDrum":true},{"pitch":38,"velocity":55,"startTime":133.69567,"endTime":133.77719175000001,"instrument":4,"isDrum":true},{"pitch":38,"velocity":85,"startTime":133.69567,"endTime":133.77719175000001,"instrument":4,"isDrum":true},{"pitch":44,"velocity":95,"startTime":133.69567,"endTime":133.8383330625,"instrument":4,"isDrum":true},{"pitch":38,"velocity":55,"startTime":134.347844,"endTime":134.42936575000002,"instrument":4,"isDrum":true},{"pitch":38,"velocity":85,"startTime":134.347844,"endTime":134.42936575000002,"instrument":4,"isDrum":true},{"pitch":44,"velocity":95,"startTime":134.347844,"endTime":134.47692010416665,"instrument":4,"isDrum":true},{"pitch":38,"velocity":55,"startTime":135.000018,"endTime":135.08153975,"instrument":4,"isDrum":true},{"pitch":38,"velocity":85,"startTime":135.000018,"endTime":135.08153975,"instrument":4,"isDrum":true},{"pitch":44,"velocity":95,"startTime":135.000018,"endTime":135.122300625,"instrument":4,"isDrum":true},{"pitch":38,"velocity":34,"startTime":135.326105,"endTime":135.38045283333335,"instrument":4,"isDrum":true},{"pitch":46,"velocity":69,"startTime":135.326105,"endTime":135.63860504166666,"instrument":4,"isDrum":true},{"pitch":38,"velocity":39,"startTime":135.38045283333335,"endTime":135.43480066666666,"instrument":4,"isDrum":true},{"pitch":38,"velocity":39,"startTime":135.43480066666666,"endTime":135.4891485,"instrument":4,"isDrum":true},{"pitch":38,"velocity":42,"startTime":135.4891485,"endTime":135.54349633333334,"instrument":4,"isDrum":true},{"pitch":38,"velocity":48,"startTime":135.54349633333334,"endTime":135.59784416666665,"instrument":4,"isDrum":true},{"pitch":38,"velocity":53,"startTime":135.59784416666665,"endTime":135.65219199999999,"instrument":4,"isDrum":true},{"pitch":38,"velocity":55,"startTime":135.65219199999999,"endTime":135.73371375,"instrument":4,"isDrum":true},{"pitch":38,"velocity":85,"startTime":135.65219199999999,"endTime":135.73371375,"instrument":4,"isDrum":true},{"pitch":44,"velocity":95,"startTime":135.65219199999999,"endTime":135.78806158333336,"instrument":4,"isDrum":true},{"pitch":38,"velocity":55,"startTime":136.304366,"endTime":136.38588775,"instrument":4,"isDrum":true},{"pitch":38,"velocity":85,"startTime":136.304366,"endTime":136.38588775,"instrument":4,"isDrum":true},{"pitch":44,"velocity":95,"startTime":136.304366,"endTime":136.43344210416666,"instrument":4,"isDrum":true},{"pitch":38,"velocity":55,"startTime":136.95654,"endTime":137.03806175,"instrument":4,"isDrum":true},{"pitch":38,"velocity":85,"startTime":136.95654,"endTime":137.03806175,"instrument":4,"isDrum":true},{"pitch":44,"velocity":95,"startTime":136.95654,"endTime":137.07882262500002,"instrument":4,"isDrum":true},{"pitch":38,"velocity":55,"startTime":137.608714,"endTime":137.69023575,"instrument":4,"isDrum":true},{"pitch":38,"velocity":85,"startTime":137.608714,"endTime":137.69023575,"instrument":4,"isDrum":true},{"pitch":44,"velocity":95,"startTime":137.608714,"endTime":137.72420314583334,"instrument":4,"isDrum":true},{"pitch":38,"velocity":34,"startTime":137.934801,"endTime":137.98914883333333,"instrument":4,"isDrum":true},{"pitch":46,"velocity":69,"startTime":137.934801,"endTime":138.24730104166667,"instrument":4,"isDrum":true},{"pitch":38,"velocity":39,"startTime":137.98914883333333,"endTime":138.04349666666667,"instrument":4,"isDrum":true},{"pitch":38,"velocity":39,"startTime":138.04349666666667,"endTime":138.0978445,"instrument":4,"isDrum":true},{"pitch":38,"velocity":42,"startTime":138.0978445,"endTime":138.15219233333335,"instrument":4,"isDrum":true},{"pitch":38,"velocity":48,"startTime":138.15219233333335,"endTime":138.20654016666666,"instrument":4,"isDrum":true},{"pitch":38,"velocity":53,"startTime":138.20654016666666,"endTime":138.26088800000002,"instrument":4,"isDrum":true},{"pitch":38,"velocity":55,"startTime":138.26088800000002,"endTime":138.32882279166668,"instrument":4,"isDrum":true},{"pitch":38,"velocity":85,"startTime":138.26088800000002,"endTime":138.32882279166668,"instrument":4,"isDrum":true},{"pitch":44,"velocity":95,"startTime":138.26088800000002,"endTime":138.38996410416667,"instrument":4,"isDrum":true},{"pitch":38,"velocity":55,"startTime":138.91306200000002,"endTime":138.99458375,"instrument":4,"isDrum":true},{"pitch":38,"velocity":85,"startTime":138.91306200000002,"endTime":138.99458375,"instrument":4,"isDrum":true},{"pitch":44,"velocity":95,"startTime":138.91306200000002,"endTime":139.04893158333334,"instrument":4,"isDrum":true},{"pitch":38,"velocity":55,"startTime":139.565236,"endTime":139.64675775,"instrument":4,"isDrum":true},{"pitch":38,"velocity":85,"startTime":139.565236,"endTime":139.64675775,"instrument":4,"isDrum":true},{"pitch":44,"velocity":95,"startTime":139.565236,"endTime":139.69431210416664,"instrument":4,"isDrum":true},{"pitch":38,"velocity":55,"startTime":140.21741,"endTime":140.29893175,"instrument":4,"isDrum":true},{"pitch":38,"velocity":85,"startTime":140.21741,"endTime":140.29893175,"instrument":4,"isDrum":true},{"pitch":44,"velocity":95,"startTime":140.21741,"endTime":140.34648610416667,"instrument":4,"isDrum":true},{"pitch":38,"velocity":34,"startTime":140.543497,"endTime":140.59784483333334,"instrument":4,"isDrum":true},{"pitch":46,"velocity":69,"startTime":140.543497,"endTime":140.85599704166665,"instrument":4,"isDrum":true},{"pitch":38,"velocity":39,"startTime":140.59784483333334,"endTime":140.65219266666665,"instrument":4,"isDrum":true},{"pitch":38,"velocity":39,"startTime":140.65219266666665,"endTime":140.7065405,"instrument":4,"isDrum":true},{"pitch":38,"velocity":42,"startTime":140.7065405,"endTime":140.76088833333336,"instrument":4,"isDrum":true},{"pitch":38,"velocity":48,"startTime":140.76088833333336,"endTime":140.81523616666666,"instrument":4,"isDrum":true},{"pitch":38,"velocity":53,"startTime":140.81523616666666,"endTime":140.869584,"instrument":4,"isDrum":true},{"pitch":38,"velocity":55,"startTime":140.869584,"endTime":140.95110575,"instrument":4,"isDrum":true},{"pitch":38,"velocity":85,"startTime":140.869584,"endTime":140.95110575,"instrument":4,"isDrum":true},{"pitch":44,"velocity":95,"startTime":140.869584,"endTime":141.00545358333335,"instrument":4,"isDrum":true},{"pitch":38,"velocity":55,"startTime":141.521758,"endTime":141.60327975,"instrument":4,"isDrum":true},{"pitch":38,"velocity":85,"startTime":141.521758,"endTime":141.60327975,"instrument":4,"isDrum":true},{"pitch":44,"velocity":95,"startTime":141.521758,"endTime":141.65083410416668,"instrument":4,"isDrum":true},{"pitch":38,"velocity":55,"startTime":142.173932,"endTime":142.25545375000002,"instrument":4,"isDrum":true},{"pitch":38,"velocity":85,"startTime":142.173932,"endTime":142.25545375000002,"instrument":4,"isDrum":true},{"pitch":44,"velocity":95,"startTime":142.173932,"endTime":142.30980158333332,"instrument":4,"isDrum":true},{"pitch":38,"velocity":55,"startTime":142.826106,"endTime":142.90762775000002,"instrument":4,"isDrum":true},{"pitch":38,"velocity":85,"startTime":142.826106,"endTime":142.90762775000002,"instrument":4,"isDrum":true},{"pitch":44,"velocity":95,"startTime":142.826106,"endTime":142.96197558333336,"instrument":4,"isDrum":true},{"pitch":38,"velocity":34,"startTime":143.152193,"endTime":143.20654083333335,"instrument":4,"isDrum":true},{"pitch":46,"velocity":69,"startTime":143.152193,"endTime":143.46469304166666,"instrument":4,"isDrum":true},{"pitch":38,"velocity":39,"startTime":143.20654083333335,"endTime":143.26088866666666,"instrument":4,"isDrum":true},{"pitch":38,"velocity":39,"startTime":143.26088866666666,"endTime":143.3152365,"instrument":4,"isDrum":true},{"pitch":38,"velocity":42,"startTime":143.3152365,"endTime":143.36958433333334,"instrument":4,"isDrum":true},{"pitch":38,"velocity":48,"startTime":143.36958433333334,"endTime":143.42393216666667,"instrument":4,"isDrum":true},{"pitch":38,"velocity":53,"startTime":143.42393216666667,"endTime":143.47828,"instrument":4,"isDrum":true},{"pitch":38,"velocity":55,"startTime":143.47828,"endTime":143.55980175000002,"instrument":4,"isDrum":true},{"pitch":38,"velocity":85,"startTime":143.47828,"endTime":143.55980175000002,"instrument":4,"isDrum":true},{"pitch":44,"velocity":95,"startTime":143.47828,"endTime":143.61414958333336,"instrument":4,"isDrum":true},{"pitch":38,"velocity":55,"startTime":144.13045400000001,"endTime":144.21197575,"instrument":4,"isDrum":true},{"pitch":38,"velocity":85,"startTime":144.13045400000001,"endTime":144.21197575,"instrument":4,"isDrum":true},{"pitch":44,"velocity":95,"startTime":144.13045400000001,"endTime":144.26632358333336,"instrument":4,"isDrum":true},{"pitch":38,"velocity":55,"startTime":144.782628,"endTime":144.86414975,"instrument":4,"isDrum":true},{"pitch":38,"velocity":85,"startTime":144.782628,"endTime":144.86414975,"instrument":4,"isDrum":true},{"pitch":44,"velocity":95,"startTime":144.782628,"endTime":144.90491062499999,"instrument":4,"isDrum":true},{"pitch":38,"velocity":55,"startTime":145.434802,"endTime":145.51632375,"instrument":4,"isDrum":true},{"pitch":38,"velocity":85,"startTime":145.434802,"endTime":145.51632375,"instrument":4,"isDrum":true},{"pitch":44,"velocity":95,"startTime":145.434802,"endTime":145.56387810416666,"instrument":4,"isDrum":true},{"pitch":38,"velocity":34,"startTime":145.760889,"endTime":145.81523683333333,"instrument":4,"isDrum":true},{"pitch":46,"velocity":69,"startTime":145.760889,"endTime":146.07338904166667,"instrument":4,"isDrum":true},{"pitch":38,"velocity":39,"startTime":145.81523683333333,"endTime":145.86958466666667,"instrument":4,"isDrum":true},{"pitch":38,"velocity":39,"startTime":145.86958466666667,"endTime":145.9239325,"instrument":4,"isDrum":true},{"pitch":38,"velocity":42,"startTime":145.9239325,"endTime":145.97828033333334,"instrument":4,"isDrum":true},{"pitch":38,"velocity":48,"startTime":145.97828033333334,"endTime":146.03262816666665,"instrument":4,"isDrum":true},{"pitch":38,"velocity":53,"startTime":146.03262816666665,"endTime":146.086976,"instrument":4,"isDrum":true},{"pitch":38,"velocity":55,"startTime":146.086976,"endTime":146.16849775,"instrument":4,"isDrum":true},{"pitch":38,"velocity":85,"startTime":146.086976,"endTime":146.16849775,"instrument":4,"isDrum":true},{"pitch":44,"velocity":95,"startTime":146.086976,"endTime":146.24322602083333,"instrument":4,"isDrum":true},{"pitch":38,"velocity":55,"startTime":146.73915,"endTime":146.82067175,"instrument":4,"isDrum":true},{"pitch":38,"velocity":85,"startTime":146.73915,"endTime":146.82067175,"instrument":4,"isDrum":true},{"pitch":44,"velocity":95,"startTime":146.73915,"endTime":146.88181306250002,"instrument":4,"isDrum":true},{"pitch":38,"velocity":55,"startTime":147.391324,"endTime":147.47284575,"instrument":4,"isDrum":true},{"pitch":38,"velocity":85,"startTime":147.391324,"endTime":147.47284575,"instrument":4,"isDrum":true},{"pitch":44,"velocity":95,"startTime":147.391324,"endTime":147.52040010416667,"instrument":4,"isDrum":true},{"pitch":38,"velocity":55,"startTime":148.043498,"endTime":148.12501975,"instrument":4,"isDrum":true},{"pitch":38,"velocity":85,"startTime":148.043498,"endTime":148.12501975,"instrument":4,"isDrum":true},{"pitch":44,"velocity":95,"startTime":148.043498,"endTime":148.16578062500002,"instrument":4,"isDrum":true},{"pitch":38,"velocity":34,"startTime":148.369585,"endTime":148.42393283333334,"instrument":4,"isDrum":true},{"pitch":46,"velocity":69,"startTime":148.369585,"endTime":148.68208504166665,"instrument":4,"isDrum":true},{"pitch":38,"velocity":39,"startTime":148.42393283333334,"endTime":148.47828066666665,"instrument":4,"isDrum":true},{"pitch":38,"velocity":39,"startTime":148.47828066666665,"endTime":148.53262850000002,"instrument":4,"isDrum":true},{"pitch":38,"velocity":42,"startTime":148.53262850000002,"endTime":148.58697633333335,"instrument":4,"isDrum":true},{"pitch":38,"velocity":48,"startTime":148.58697633333335,"endTime":148.64132416666666,"instrument":4,"isDrum":true},{"pitch":38,"velocity":53,"startTime":148.64132416666666,"endTime":148.695672,"instrument":4,"isDrum":true},{"pitch":38,"velocity":55,"startTime":148.695672,"endTime":148.77719375,"instrument":4,"isDrum":true},{"pitch":38,"velocity":85,"startTime":148.695672,"endTime":148.77719375,"instrument":4,"isDrum":true},{"pitch":44,"velocity":95,"startTime":148.695672,"endTime":148.83154158333335,"instrument":4,"isDrum":true},{"pitch":38,"velocity":55,"startTime":149.347846,"endTime":149.42936775,"instrument":4,"isDrum":true},{"pitch":38,"velocity":85,"startTime":149.347846,"endTime":149.42936775,"instrument":4,"isDrum":true},{"pitch":44,"velocity":95,"startTime":149.347846,"endTime":149.47692210416665,"instrument":4,"isDrum":true},{"pitch":38,"velocity":55,"startTime":150.00002,"endTime":150.08154174999999,"instrument":4,"isDrum":true},{"pitch":38,"velocity":85,"startTime":150.00002,"endTime":150.08154174999999,"instrument":4,"isDrum":true},{"pitch":44,"velocity":95,"startTime":150.00002,"endTime":150.122302625,"instrument":4,"isDrum":true},{"pitch":38,"velocity":55,"startTime":150.652194,"endTime":150.73371575,"instrument":4,"isDrum":true},{"pitch":38,"velocity":85,"startTime":150.652194,"endTime":150.73371575,"instrument":4,"isDrum":true},{"pitch":44,"velocity":95,"startTime":150.652194,"endTime":150.76768314583333,"instrument":4,"isDrum":true},{"pitch":38,"velocity":34,"startTime":150.978281,"endTime":151.03262883333335,"instrument":4,"isDrum":true},{"pitch":46,"velocity":69,"startTime":150.978281,"endTime":151.29078104166666,"instrument":4,"isDrum":true},{"pitch":38,"velocity":39,"startTime":151.03262883333335,"endTime":151.08697666666666,"instrument":4,"isDrum":true},{"pitch":38,"velocity":39,"startTime":151.08697666666666,"endTime":151.1413245,"instrument":4,"isDrum":true},{"pitch":38,"velocity":42,"startTime":151.1413245,"endTime":151.19567233333333,"instrument":4,"isDrum":true},{"pitch":38,"velocity":48,"startTime":151.19567233333333,"endTime":151.25002016666667,"instrument":4,"isDrum":true},{"pitch":38,"velocity":53,"startTime":151.25002016666667,"endTime":151.304368,"instrument":4,"isDrum":true},{"pitch":38,"velocity":55,"startTime":151.304368,"endTime":151.38588975000002,"instrument":4,"isDrum":true},{"pitch":38,"velocity":85,"startTime":151.304368,"endTime":151.38588975000002,"instrument":4,"isDrum":true},{"pitch":44,"velocity":95,"startTime":151.304368,"endTime":151.44023758333333,"instrument":4,"isDrum":true},{"pitch":38,"velocity":55,"startTime":151.956542,"endTime":152.03806375000002,"instrument":4,"isDrum":true},{"pitch":38,"velocity":85,"startTime":151.956542,"endTime":152.03806375000002,"instrument":4,"isDrum":true},{"pitch":44,"velocity":95,"startTime":151.956542,"endTime":152.08561810416666,"instrument":4,"isDrum":true},{"pitch":38,"velocity":55,"startTime":152.60871600000002,"endTime":152.69023775000002,"instrument":4,"isDrum":true},{"pitch":38,"velocity":85,"startTime":152.60871600000002,"endTime":152.69023775000002,"instrument":4,"isDrum":true},{"pitch":44,"velocity":95,"startTime":152.60871600000002,"endTime":152.730998625,"instrument":4,"isDrum":true},{"pitch":38,"velocity":55,"startTime":153.26089000000002,"endTime":153.34241175,"instrument":4,"isDrum":true},{"pitch":38,"velocity":85,"startTime":153.26089000000002,"endTime":153.34241175,"instrument":4,"isDrum":true},{"pitch":44,"velocity":95,"startTime":153.26089000000002,"endTime":153.37637914583334,"instrument":4,"isDrum":true},{"pitch":38,"velocity":34,"startTime":153.586977,"endTime":153.64132483333336,"instrument":4,"isDrum":true},{"pitch":46,"velocity":69,"startTime":153.586977,"endTime":153.89947704166667,"instrument":4,"isDrum":true},{"pitch":38,"velocity":39,"startTime":153.64132483333336,"endTime":153.69567266666667,"instrument":4,"isDrum":true},{"pitch":38,"velocity":39,"startTime":153.69567266666667,"endTime":153.7500205,"instrument":4,"isDrum":true},{"pitch":38,"velocity":42,"startTime":153.7500205,"endTime":153.80436833333334,"instrument":4,"isDrum":true},{"pitch":38,"velocity":48,"startTime":153.80436833333334,"endTime":153.85871616666665,"instrument":4,"isDrum":true},{"pitch":38,"velocity":53,"startTime":153.85871616666665,"endTime":153.913064,"instrument":4,"isDrum":true},{"pitch":38,"velocity":55,"startTime":153.913064,"endTime":153.99458575,"instrument":4,"isDrum":true},{"pitch":38,"velocity":85,"startTime":153.913064,"endTime":153.99458575,"instrument":4,"isDrum":true},{"pitch":44,"velocity":95,"startTime":153.913064,"endTime":154.04893358333334,"instrument":4,"isDrum":true},{"pitch":38,"velocity":55,"startTime":154.565238,"endTime":154.64675975,"instrument":4,"isDrum":true},{"pitch":38,"velocity":85,"startTime":154.565238,"endTime":154.64675975,"instrument":4,"isDrum":true},{"pitch":44,"velocity":95,"startTime":154.565238,"endTime":154.69431410416666,"instrument":4,"isDrum":true},{"pitch":38,"velocity":55,"startTime":155.217412,"endTime":155.29893375,"instrument":4,"isDrum":true},{"pitch":38,"velocity":85,"startTime":155.217412,"endTime":155.29893375,"instrument":4,"isDrum":true},{"pitch":44,"velocity":95,"startTime":155.217412,"endTime":155.339694625,"instrument":4,"isDrum":true},{"pitch":38,"velocity":55,"startTime":155.869586,"endTime":155.95110775,"instrument":4,"isDrum":true},{"pitch":38,"velocity":85,"startTime":155.869586,"endTime":155.95110775,"instrument":4,"isDrum":true},{"pitch":44,"velocity":95,"startTime":155.869586,"endTime":155.98507514583335,"instrument":4,"isDrum":true},{"pitch":38,"velocity":34,"startTime":156.195673,"endTime":156.25002083333334,"instrument":4,"isDrum":true},{"pitch":46,"velocity":69,"startTime":156.195673,"endTime":156.50817304166668,"instrument":4,"isDrum":true},{"pitch":38,"velocity":39,"startTime":156.25002083333334,"endTime":156.30436866666668,"instrument":4,"isDrum":true},{"pitch":38,"velocity":39,"startTime":156.30436866666668,"endTime":156.3587165,"instrument":4,"isDrum":true},{"pitch":38,"velocity":42,"startTime":156.3587165,"endTime":156.41306433333335,"instrument":4,"isDrum":true},{"pitch":38,"velocity":48,"startTime":156.41306433333335,"endTime":156.46741216666666,"instrument":4,"isDrum":true},{"pitch":38,"velocity":53,"startTime":156.46741216666666,"endTime":156.52176,"instrument":4,"isDrum":true},{"pitch":38,"velocity":55,"startTime":156.52176,"endTime":156.60328175,"instrument":4,"isDrum":true},{"pitch":38,"velocity":85,"startTime":156.52176,"endTime":156.60328175,"instrument":4,"isDrum":true},{"pitch":44,"velocity":95,"startTime":156.52176,"endTime":156.65762958333335,"instrument":4,"isDrum":true},{"pitch":38,"velocity":55,"startTime":157.173934,"endTime":157.25545575,"instrument":4,"isDrum":true},{"pitch":38,"velocity":85,"startTime":157.173934,"endTime":157.25545575,"instrument":4,"isDrum":true},{"pitch":44,"velocity":95,"startTime":157.173934,"endTime":157.30301010416667,"instrument":4,"isDrum":true},{"pitch":38,"velocity":55,"startTime":157.826108,"endTime":157.90762975,"instrument":4,"isDrum":true},{"pitch":38,"velocity":85,"startTime":157.826108,"endTime":157.90762975,"instrument":4,"isDrum":true},{"pitch":44,"velocity":95,"startTime":157.826108,"endTime":157.948390625,"instrument":4,"isDrum":true},{"pitch":38,"velocity":55,"startTime":158.478282,"endTime":158.55980375,"instrument":4,"isDrum":true},{"pitch":38,"velocity":85,"startTime":158.478282,"endTime":158.55980375,"instrument":4,"isDrum":true},{"pitch":44,"velocity":95,"startTime":158.478282,"endTime":158.59377114583336,"instrument":4,"isDrum":true},{"pitch":38,"velocity":34,"startTime":158.804369,"endTime":158.85871683333335,"instrument":4,"isDrum":true},{"pitch":46,"velocity":69,"startTime":158.804369,"endTime":159.1168690416667,"instrument":4,"isDrum":true},{"pitch":38,"velocity":39,"startTime":158.85871683333335,"endTime":158.91306466666668,"instrument":4,"isDrum":true},{"pitch":38,"velocity":39,"startTime":158.91306466666668,"endTime":158.9674125,"instrument":4,"isDrum":true},{"pitch":38,"velocity":42,"startTime":158.9674125,"endTime":159.02176033333333,"instrument":4,"isDrum":true},{"pitch":38,"velocity":48,"startTime":159.02176033333333,"endTime":159.07610816666664,"instrument":4,"isDrum":true},{"pitch":38,"velocity":53,"startTime":159.07610816666664,"endTime":159.130456,"instrument":4,"isDrum":true},{"pitch":38,"velocity":55,"startTime":159.130456,"endTime":159.21197775,"instrument":4,"isDrum":true},{"pitch":38,"velocity":85,"startTime":159.130456,"endTime":159.21197775,"instrument":4,"isDrum":true},{"pitch":44,"velocity":95,"startTime":159.130456,"endTime":159.25273862499998,"instrument":4,"isDrum":true},{"pitch":38,"velocity":55,"startTime":159.78263,"endTime":159.86415175,"instrument":4,"isDrum":true},{"pitch":38,"velocity":85,"startTime":159.78263,"endTime":159.86415175,"instrument":4,"isDrum":true},{"pitch":44,"velocity":95,"startTime":159.78263,"endTime":159.90491262499998,"instrument":4,"isDrum":true},{"pitch":38,"velocity":55,"startTime":160.434804,"endTime":160.51632575,"instrument":4,"isDrum":true},{"pitch":38,"velocity":85,"startTime":160.434804,"endTime":160.51632575,"instrument":4,"isDrum":true},{"pitch":44,"velocity":95,"startTime":160.434804,"endTime":160.55029314583334,"instrument":4,"isDrum":true},{"pitch":38,"velocity":55,"startTime":161.08697800000002,"endTime":161.16849975,"instrument":4,"isDrum":true},{"pitch":38,"velocity":85,"startTime":161.08697800000002,"endTime":161.16849975,"instrument":4,"isDrum":true},{"pitch":44,"velocity":95,"startTime":161.08697800000002,"endTime":161.21605410416666,"instrument":4,"isDrum":true},{"pitch":38,"velocity":34,"startTime":161.413065,"endTime":161.46741283333336,"instrument":4,"isDrum":true},{"pitch":46,"velocity":69,"startTime":161.413065,"endTime":161.72556504166667,"instrument":4,"isDrum":true},{"pitch":38,"velocity":39,"startTime":161.46741283333336,"endTime":161.52176066666667,"instrument":4,"isDrum":true},{"pitch":38,"velocity":39,"startTime":161.52176066666667,"endTime":161.5761085,"instrument":4,"isDrum":true},{"pitch":38,"velocity":42,"startTime":161.5761085,"endTime":161.63045633333337,"instrument":4,"isDrum":true},{"pitch":38,"velocity":48,"startTime":161.63045633333337,"endTime":161.68480416666665,"instrument":4,"isDrum":true},{"pitch":38,"velocity":53,"startTime":161.68480416666665,"endTime":161.73915200000002,"instrument":4,"isDrum":true},{"pitch":38,"velocity":55,"startTime":161.73915200000002,"endTime":161.82067375,"instrument":4,"isDrum":true},{"pitch":38,"velocity":85,"startTime":161.73915200000002,"endTime":161.82067375,"instrument":4,"isDrum":true},{"pitch":51,"velocity":87,"startTime":161.73915200000002,"endTime":161.85464114583334,"instrument":4,"isDrum":true},{"pitch":70,"velocity":78,"startTime":164.347848,"endTime":164.48371758333332,"instrument":4,"isDrum":true},{"pitch":51,"velocity":85,"startTime":164.67393500000003,"endTime":164.9388806875,"instrument":4,"isDrum":true},{"pitch":38,"velocity":55,"startTime":165.000022,"endTime":165.12909810416667,"instrument":4,"isDrum":true},{"pitch":38,"velocity":85,"startTime":165.000022,"endTime":165.12909810416667,"instrument":4,"isDrum":true},{"pitch":44,"velocity":95,"startTime":165.000022,"endTime":165.31252204166668,"instrument":4,"isDrum":true},{"pitch":38,"velocity":55,"startTime":165.652196,"endTime":165.76768514583333,"instrument":4,"isDrum":true},{"pitch":38,"velocity":85,"startTime":165.652196,"endTime":165.76768514583333,"instrument":4,"isDrum":true},{"pitch":51,"velocity":87,"startTime":165.652196,"endTime":165.88317429166668,"instrument":4,"isDrum":true},{"pitch":38,"velocity":55,"startTime":166.956544,"endTime":167.06523966666668,"instrument":4,"isDrum":true},{"pitch":38,"velocity":85,"startTime":166.956544,"endTime":167.06523966666668,"instrument":4,"isDrum":true},{"pitch":44,"velocity":95,"startTime":166.956544,"endTime":167.03806575000002,"instrument":4,"isDrum":true},{"pitch":51,"velocity":87,"startTime":166.956544,"endTime":167.04485922916666,"instrument":4,"isDrum":true},{"pitch":38,"velocity":55,"startTime":167.282631,"endTime":167.3709462291667,"instrument":4,"isDrum":true},{"pitch":38,"velocity":85,"startTime":167.282631,"endTime":167.3709462291667,"instrument":4,"isDrum":true},{"pitch":44,"velocity":95,"startTime":167.282631,"endTime":167.37773970833334,"instrument":4,"isDrum":true},{"pitch":51,"velocity":87,"startTime":167.282631,"endTime":167.37773970833334,"instrument":4,"isDrum":true},{"pitch":38,"velocity":55,"startTime":167.608718,"endTime":167.69023975000002,"instrument":4,"isDrum":true},{"pitch":38,"velocity":85,"startTime":167.608718,"endTime":167.69023975000002,"instrument":4,"isDrum":true},{"pitch":44,"velocity":95,"startTime":167.608718,"endTime":167.69023975000002,"instrument":4,"isDrum":true},{"pitch":51,"velocity":87,"startTime":167.608718,"endTime":167.7038267083333,"instrument":4,"isDrum":true},{"pitch":38,"velocity":55,"startTime":167.934805,"endTime":168.01632675,"instrument":4,"isDrum":true},{"pitch":38,"velocity":85,"startTime":167.934805,"endTime":168.01632675,"instrument":4,"isDrum":true},{"pitch":44,"velocity":95,"startTime":167.934805,"endTime":168.0367071875,"instrument":4,"isDrum":true},{"pitch":51,"velocity":87,"startTime":167.934805,"endTime":168.0367071875,"instrument":4,"isDrum":true},{"pitch":38,"velocity":55,"startTime":168.586979,"endTime":168.66170727083332,"instrument":4,"isDrum":true},{"pitch":38,"velocity":85,"startTime":168.586979,"endTime":168.66170727083332,"instrument":4,"isDrum":true},{"pitch":44,"velocity":95,"startTime":168.586979,"endTime":168.68208770833334,"instrument":4,"isDrum":true},{"pitch":51,"velocity":87,"startTime":168.586979,"endTime":168.6752942291667,"instrument":4,"isDrum":true},{"pitch":38,"velocity":55,"startTime":169.23915300000002,"endTime":169.30029431250003,"instrument":4,"isDrum":true},{"pitch":38,"velocity":85,"startTime":169.23915300000002,"endTime":169.30029431250003,"instrument":4,"isDrum":true},{"pitch":44,"velocity":95,"startTime":169.23915300000002,"endTime":169.30708779166667,"instrument":4,"isDrum":true},{"pitch":51,"velocity":87,"startTime":169.23915300000002,"endTime":169.32067475,"instrument":4,"isDrum":true},{"pitch":38,"velocity":85,"startTime":169.56524,"endTime":169.6943161041667,"instrument":4,"isDrum":true},{"pitch":51,"velocity":85,"startTime":169.56524,"endTime":169.59920739583333,"instrument":4,"isDrum":true},{"pitch":51,"velocity":87,"startTime":169.56524,"endTime":169.59920739583333,"instrument":4,"isDrum":true},{"pitch":38,"velocity":55,"startTime":172.173936,"endTime":172.28263166666667,"instrument":4,"isDrum":true},{"pitch":38,"velocity":85,"startTime":172.173936,"endTime":172.28263166666667,"instrument":4,"isDrum":true},{"pitch":44,"velocity":95,"startTime":172.173936,"endTime":172.25545775,"instrument":4,"isDrum":true},{"pitch":51,"velocity":87,"startTime":172.173936,"endTime":172.2622512291667,"instrument":4,"isDrum":true},{"pitch":38,"velocity":55,"startTime":172.500023,"endTime":172.58833822916668,"instrument":4,"isDrum":true},{"pitch":38,"velocity":85,"startTime":172.500023,"endTime":172.58833822916668,"instrument":4,"isDrum":true},{"pitch":44,"velocity":95,"startTime":172.500023,"endTime":172.59513170833333,"instrument":4,"isDrum":true},{"pitch":51,"velocity":87,"startTime":172.500023,"endTime":172.59513170833333,"instrument":4,"isDrum":true},{"pitch":38,"velocity":55,"startTime":172.82611,"endTime":172.90763175,"instrument":4,"isDrum":true},{"pitch":38,"velocity":85,"startTime":172.82611,"endTime":172.90763175,"instrument":4,"isDrum":true},{"pitch":44,"velocity":95,"startTime":172.82611,"endTime":172.90763175,"instrument":4,"isDrum":true},{"pitch":51,"velocity":87,"startTime":172.82611,"endTime":172.92121870833333,"instrument":4,"isDrum":true},{"pitch":38,"velocity":55,"startTime":173.152197,"endTime":173.23371874999998,"instrument":4,"isDrum":true},{"pitch":38,"velocity":85,"startTime":173.152197,"endTime":173.23371874999998,"instrument":4,"isDrum":true},{"pitch":44,"velocity":95,"startTime":173.152197,"endTime":173.2540991875,"instrument":4,"isDrum":true},{"pitch":51,"velocity":87,"startTime":173.152197,"endTime":173.2540991875,"instrument":4,"isDrum":true},{"pitch":38,"velocity":55,"startTime":173.804371,"endTime":173.8790992708333,"instrument":4,"isDrum":true},{"pitch":38,"velocity":85,"startTime":173.804371,"endTime":173.8790992708333,"instrument":4,"isDrum":true},{"pitch":44,"velocity":95,"startTime":173.804371,"endTime":173.89947970833333,"instrument":4,"isDrum":true},{"pitch":51,"velocity":87,"startTime":173.804371,"endTime":173.89268622916669,"instrument":4,"isDrum":true},{"pitch":38,"velocity":55,"startTime":174.456545,"endTime":174.51768631250002,"instrument":4,"isDrum":true},{"pitch":38,"velocity":85,"startTime":174.456545,"endTime":174.51768631250002,"instrument":4,"isDrum":true},{"pitch":44,"velocity":95,"startTime":174.456545,"endTime":174.5244797916667,"instrument":4,"isDrum":true},{"pitch":51,"velocity":87,"startTime":174.456545,"endTime":174.53806674999998,"instrument":4,"isDrum":true},{"pitch":38,"velocity":85,"startTime":174.78263199999998,"endTime":174.91170810416668,"instrument":4,"isDrum":true},{"pitch":51,"velocity":85,"startTime":174.78263199999998,"endTime":174.81659939583332,"instrument":4,"isDrum":true},{"pitch":51,"velocity":87,"startTime":174.78263199999998,"endTime":174.81659939583332,"instrument":4,"isDrum":true},{"pitch":38,"velocity":55,"startTime":177.39132800000002,"endTime":177.50002366666666,"instrument":4,"isDrum":true},{"pitch":38,"velocity":85,"startTime":177.39132800000002,"endTime":177.50002366666666,"instrument":4,"isDrum":true},{"pitch":44,"velocity":95,"startTime":177.39132800000002,"endTime":177.47284975,"instrument":4,"isDrum":true},{"pitch":51,"velocity":87,"startTime":177.39132800000002,"endTime":177.4796432291667,"instrument":4,"isDrum":true},{"pitch":38,"velocity":55,"startTime":177.717415,"endTime":177.80573022916667,"instrument":4,"isDrum":true},{"pitch":38,"velocity":85,"startTime":177.717415,"endTime":177.80573022916667,"instrument":4,"isDrum":true},{"pitch":44,"velocity":95,"startTime":177.717415,"endTime":177.81252370833332,"instrument":4,"isDrum":true},{"pitch":51,"velocity":87,"startTime":177.717415,"endTime":177.81252370833332,"instrument":4,"isDrum":true},{"pitch":38,"velocity":55,"startTime":178.04350200000002,"endTime":178.12502375,"instrument":4,"isDrum":true},{"pitch":38,"velocity":85,"startTime":178.04350200000002,"endTime":178.12502375,"instrument":4,"isDrum":true},{"pitch":44,"velocity":95,"startTime":178.04350200000002,"endTime":178.12502375,"instrument":4,"isDrum":true},{"pitch":51,"velocity":87,"startTime":178.04350200000002,"endTime":178.13861070833335,"instrument":4,"isDrum":true},{"pitch":38,"velocity":55,"startTime":178.369589,"endTime":178.45111075000003,"instrument":4,"isDrum":true},{"pitch":38,"velocity":85,"startTime":178.369589,"endTime":178.45111075000003,"instrument":4,"isDrum":true},{"pitch":44,"velocity":95,"startTime":178.369589,"endTime":178.4714911875,"instrument":4,"isDrum":true},{"pitch":51,"velocity":87,"startTime":178.369589,"endTime":178.4714911875,"instrument":4,"isDrum":true},{"pitch":38,"velocity":55,"startTime":179.021763,"endTime":179.09649127083333,"instrument":4,"isDrum":true},{"pitch":38,"velocity":85,"startTime":179.021763,"endTime":179.09649127083333,"instrument":4,"isDrum":true},{"pitch":44,"velocity":95,"startTime":179.021763,"endTime":179.11687170833332,"instrument":4,"isDrum":true},{"pitch":51,"velocity":87,"startTime":179.021763,"endTime":179.11007822916667,"instrument":4,"isDrum":true},{"pitch":38,"velocity":55,"startTime":179.673937,"endTime":179.7350783125,"instrument":4,"isDrum":true},{"pitch":38,"velocity":85,"startTime":179.673937,"endTime":179.7350783125,"instrument":4,"isDrum":true},{"pitch":44,"velocity":95,"startTime":179.673937,"endTime":179.74187179166668,"instrument":4,"isDrum":true},{"pitch":51,"velocity":87,"startTime":179.673937,"endTime":179.75545875000003,"instrument":4,"isDrum":true},{"pitch":38,"velocity":85,"startTime":180.00002400000002,"endTime":180.12910010416667,"instrument":4,"isDrum":true},{"pitch":51,"velocity":85,"startTime":180.00002400000002,"endTime":180.0339913958333,"instrument":4,"isDrum":true},{"pitch":51,"velocity":87,"startTime":180.00002400000002,"endTime":180.0339913958333,"instrument":4,"isDrum":true},{"pitch":38,"velocity":55,"startTime":182.60872,"endTime":182.71741566666668,"instrument":4,"isDrum":true},{"pitch":38,"velocity":85,"startTime":182.60872,"endTime":182.71741566666668,"instrument":4,"isDrum":true},{"pitch":44,"velocity":95,"startTime":182.60872,"endTime":182.69024174999998,"instrument":4,"isDrum":true},{"pitch":51,"velocity":87,"startTime":182.60872,"endTime":182.6970352291667,"instrument":4,"isDrum":true},{"pitch":38,"velocity":55,"startTime":182.93480699999998,"endTime":183.0231222291667,"instrument":4,"isDrum":true},{"pitch":38,"velocity":85,"startTime":182.93480699999998,"endTime":183.0231222291667,"instrument":4,"isDrum":true},{"pitch":44,"velocity":95,"startTime":182.93480699999998,"endTime":183.0299157083333,"instrument":4,"isDrum":true},{"pitch":51,"velocity":87,"startTime":182.93480699999998,"endTime":183.0299157083333,"instrument":4,"isDrum":true},{"pitch":38,"velocity":55,"startTime":183.260894,"endTime":183.34241575,"instrument":4,"isDrum":true},{"pitch":38,"velocity":85,"startTime":183.260894,"endTime":183.34241575,"instrument":4,"isDrum":true},{"pitch":44,"velocity":95,"startTime":183.260894,"endTime":183.34241575,"instrument":4,"isDrum":true},{"pitch":51,"velocity":87,"startTime":183.260894,"endTime":183.35600270833334,"instrument":4,"isDrum":true},{"pitch":38,"velocity":55,"startTime":183.58698099999998,"endTime":183.66850275000002,"instrument":4,"isDrum":true},{"pitch":38,"velocity":85,"startTime":183.58698099999998,"endTime":183.66850275000002,"instrument":4,"isDrum":true},{"pitch":44,"velocity":95,"startTime":183.58698099999998,"endTime":183.68888318749998,"instrument":4,"isDrum":true},{"pitch":51,"velocity":87,"startTime":183.58698099999998,"endTime":183.68888318749998,"instrument":4,"isDrum":true},{"pitch":38,"velocity":55,"startTime":184.23915499999998,"endTime":184.31388327083332,"instrument":4,"isDrum":true},{"pitch":38,"velocity":85,"startTime":184.23915499999998,"endTime":184.31388327083332,"instrument":4,"isDrum":true},{"pitch":44,"velocity":95,"startTime":184.23915499999998,"endTime":184.33426370833334,"instrument":4,"isDrum":true},{"pitch":51,"velocity":87,"startTime":184.23915499999998,"endTime":184.3274702291667,"instrument":4,"isDrum":true},{"pitch":38,"velocity":55,"startTime":184.89132899999998,"endTime":184.9524703125,"instrument":4,"isDrum":true},{"pitch":38,"velocity":85,"startTime":184.89132899999998,"endTime":184.9524703125,"instrument":4,"isDrum":true},{"pitch":44,"velocity":95,"startTime":184.89132899999998,"endTime":184.95926379166667,"instrument":4,"isDrum":true},{"pitch":51,"velocity":87,"startTime":184.89132899999998,"endTime":184.97285075000002,"instrument":4,"isDrum":true},{"pitch":38,"velocity":85,"startTime":185.21741600000001,"endTime":185.34649210416666,"instrument":4,"isDrum":true},{"pitch":51,"velocity":85,"startTime":185.21741600000001,"endTime":185.2513833958333,"instrument":4,"isDrum":true},{"pitch":51,"velocity":87,"startTime":185.21741600000001,"endTime":185.2513833958333,"instrument":4,"isDrum":true},{"pitch":38,"velocity":85,"startTime":187.826112,"endTime":187.94839462500002,"instrument":4,"isDrum":true},{"pitch":51,"velocity":85,"startTime":187.826112,"endTime":187.8600793958333,"instrument":4,"isDrum":true},{"pitch":51,"velocity":87,"startTime":187.826112,"endTime":187.8600793958333,"instrument":4,"isDrum":true},{"pitch":38,"velocity":85,"startTime":190.434808,"endTime":190.52312322916669,"instrument":4,"isDrum":true},{"pitch":51,"velocity":87,"startTime":190.434808,"endTime":190.4959493125,"instrument":4,"isDrum":true},{"pitch":53,"velocity":80,"startTime":190.434808,"endTime":190.8492102291667,"instrument":4,"isDrum":true},{"pitch":38,"velocity":85,"startTime":191.73915599999998,"endTime":191.8342647083333,"instrument":4,"isDrum":true},{"pitch":51,"velocity":87,"startTime":191.73915599999998,"endTime":191.8002973125,"instrument":4,"isDrum":true},{"pitch":53,"velocity":93,"startTime":191.73915599999998,"endTime":192.07882995833333,"instrument":4,"isDrum":true},{"pitch":38,"velocity":85,"startTime":193.04350399999998,"endTime":193.11823227083332,"instrument":4,"isDrum":true},{"pitch":51,"velocity":87,"startTime":193.04350399999998,"endTime":193.09785183333332,"instrument":4,"isDrum":true},{"pitch":53,"velocity":128,"startTime":193.04350399999998,"endTime":193.45790622916667,"instrument":4,"isDrum":true},{"pitch":38,"velocity":85,"startTime":194.347852,"endTime":194.42937375,"instrument":4,"isDrum":true},{"pitch":51,"velocity":87,"startTime":194.347852,"endTime":194.3954063541667,"instrument":4,"isDrum":true},{"pitch":53,"velocity":128,"startTime":194.347852,"endTime":194.7758411875,"instrument":4,"isDrum":true},{"pitch":38,"velocity":85,"startTime":195.65220000000002,"endTime":195.74730870833335,"instrument":4,"isDrum":true},{"pitch":51,"velocity":87,"startTime":195.65220000000002,"endTime":195.692960875,"instrument":4,"isDrum":true},{"pitch":53,"velocity":93,"startTime":195.65220000000002,"endTime":195.91714568749998,"instrument":4,"isDrum":true},{"pitch":38,"velocity":85,"startTime":196.95654800000003,"endTime":197.03806975,"instrument":4,"isDrum":true},{"pitch":51,"velocity":87,"startTime":196.95654800000003,"endTime":196.99051539583334,"instrument":4,"isDrum":true},{"pitch":53,"velocity":93,"startTime":196.95654800000003,"endTime":197.26225456249998,"instrument":4,"isDrum":true},{"pitch":38,"velocity":85,"startTime":198.260896,"endTime":198.3356242708333,"instrument":4,"isDrum":true},{"pitch":51,"velocity":87,"startTime":198.260896,"endTime":198.29486339583332,"instrument":4,"isDrum":true},{"pitch":53,"velocity":93,"startTime":198.260896,"endTime":198.47149385416665,"instrument":4,"isDrum":true},{"pitch":38,"velocity":85,"startTime":199.565244,"endTime":199.61959183333335,"instrument":4,"isDrum":true},{"pitch":51,"velocity":87,"startTime":199.565244,"endTime":199.59241791666668,"instrument":4,"isDrum":true},{"pitch":53,"velocity":93,"startTime":199.565244,"endTime":200.09513537499998,"instrument":4,"isDrum":true},{"pitch":38,"velocity":85,"startTime":200.869592,"endTime":200.94432027083332,"instrument":4,"isDrum":true},{"pitch":51,"velocity":87,"startTime":200.869592,"endTime":200.910352875,"instrument":4,"isDrum":true},{"pitch":53,"velocity":128,"startTime":200.869592,"endTime":201.36551597916667,"instrument":4,"isDrum":true},{"pitch":38,"velocity":85,"startTime":202.17394000000002,"endTime":202.23508131250003,"instrument":4,"isDrum":true},{"pitch":51,"velocity":87,"startTime":202.17394000000002,"endTime":202.22149435416668,"instrument":4,"isDrum":true},{"pitch":53,"velocity":128,"startTime":202.17394000000002,"endTime":202.57475527083332,"instrument":4,"isDrum":true},{"pitch":38,"velocity":85,"startTime":203.47828800000002,"endTime":203.5530162708333,"instrument":4,"isDrum":true},{"pitch":51,"velocity":87,"startTime":203.47828800000002,"endTime":203.5122553958333,"instrument":4,"isDrum":true},{"pitch":53,"velocity":128,"startTime":203.47828800000002,"endTime":203.8315489166667,"instrument":4,"isDrum":true},{"pitch":38,"velocity":85,"startTime":204.782636,"endTime":204.8573642708333,"instrument":4,"isDrum":true},{"pitch":51,"velocity":87,"startTime":204.782636,"endTime":204.8301903541667,"instrument":4,"isDrum":true},{"pitch":53,"velocity":93,"startTime":204.782636,"endTime":205.5027447916667,"instrument":4,"isDrum":true},{"pitch":38,"velocity":85,"startTime":206.086984,"endTime":206.1617122708333,"instrument":4,"isDrum":true},{"pitch":51,"velocity":87,"startTime":206.086984,"endTime":206.127744875,"instrument":4,"isDrum":true},{"pitch":53,"velocity":128,"startTime":206.086984,"endTime":206.20247314583332,"instrument":4,"isDrum":true},{"pitch":51,"velocity":85,"startTime":206.41307100000003,"endTime":206.6032884166667,"instrument":4,"isDrum":true},{"pitch":38,"velocity":55,"startTime":206.739158,"endTime":206.82747322916669,"instrument":4,"isDrum":true},{"pitch":38,"velocity":85,"startTime":206.739158,"endTime":206.82747322916669,"instrument":4,"isDrum":true},{"pitch":44,"velocity":95,"startTime":206.739158,"endTime":206.90220150000002,"instrument":4,"isDrum":true},{"pitch":38,"velocity":55,"startTime":207.391332,"endTime":207.45247331250002,"instrument":4,"isDrum":true},{"pitch":38,"velocity":85,"startTime":207.391332,"endTime":207.45247331250002,"instrument":4,"isDrum":true},{"pitch":44,"velocity":95,"startTime":207.391332,"endTime":207.54078854166667,"instrument":4,"isDrum":true},{"pitch":51,"velocity":87,"startTime":207.391332,"endTime":207.56796245833334,"instrument":4,"isDrum":true},{"pitch":38,"velocity":34,"startTime":208.369593,"endTime":208.42394083333335,"instrument":4,"isDrum":true},{"pitch":46,"velocity":69,"startTime":208.369593,"endTime":208.68209304166666,"instrument":4,"isDrum":true},{"pitch":38,"velocity":39,"startTime":208.42394083333335,"endTime":208.47828866666666,"instrument":4,"isDrum":true},{"pitch":38,"velocity":39,"startTime":208.47828866666666,"endTime":208.5326365,"instrument":4,"isDrum":true},{"pitch":38,"velocity":42,"startTime":208.5326365,"endTime":208.5869843333333,"instrument":4,"isDrum":true},{"pitch":38,"velocity":48,"startTime":208.5869843333333,"endTime":208.64133216666667,"instrument":4,"isDrum":true},{"pitch":38,"velocity":53,"startTime":208.64133216666667,"endTime":208.69568,"instrument":4,"isDrum":true},{"pitch":38,"velocity":55,"startTime":208.69568,"endTime":208.7636147916667,"instrument":4,"isDrum":true},{"pitch":38,"velocity":85,"startTime":208.69568,"endTime":208.7636147916667,"instrument":4,"isDrum":true},{"pitch":51,"velocity":87,"startTime":208.69568,"endTime":208.8247561041667,"instrument":4,"isDrum":true},{"pitch":38,"velocity":55,"startTime":209.34785399999998,"endTime":209.42937575000002,"instrument":4,"isDrum":true},{"pitch":38,"velocity":85,"startTime":209.34785399999998,"endTime":209.42937575000002,"instrument":4,"isDrum":true},{"pitch":44,"velocity":95,"startTime":209.34785399999998,"endTime":209.4837235833333,"instrument":4,"isDrum":true},{"pitch":38,"velocity":55,"startTime":210.000028,"endTime":210.08154975000002,"instrument":4,"isDrum":true},{"pitch":38,"velocity":85,"startTime":210.000028,"endTime":210.08154975000002,"instrument":4,"isDrum":true},{"pitch":44,"velocity":95,"startTime":210.000028,"endTime":210.1291041041667,"instrument":4,"isDrum":true},{"pitch":38,"velocity":55,"startTime":210.652202,"endTime":210.73372375000002,"instrument":4,"isDrum":true},{"pitch":38,"velocity":85,"startTime":210.652202,"endTime":210.73372375000002,"instrument":4,"isDrum":true},{"pitch":44,"velocity":95,"startTime":210.652202,"endTime":210.7812781041667,"instrument":4,"isDrum":true},{"pitch":38,"velocity":34,"startTime":210.97828900000002,"endTime":211.03263683333333,"instrument":4,"isDrum":true},{"pitch":46,"velocity":69,"startTime":210.97828900000002,"endTime":211.2907890416667,"instrument":4,"isDrum":true},{"pitch":38,"velocity":39,"startTime":211.03263683333333,"endTime":211.0869846666667,"instrument":4,"isDrum":true},{"pitch":38,"velocity":39,"startTime":211.0869846666667,"endTime":211.14133249999998,"instrument":4,"isDrum":true},{"pitch":38,"velocity":42,"startTime":211.14133249999998,"endTime":211.1956803333333,"instrument":4,"isDrum":true},{"pitch":38,"velocity":48,"startTime":211.1956803333333,"endTime":211.25002816666668,"instrument":4,"isDrum":true},{"pitch":38,"velocity":53,"startTime":211.25002816666668,"endTime":211.304376,"instrument":4,"isDrum":true},{"pitch":38,"velocity":55,"startTime":211.304376,"endTime":211.38589775000003,"instrument":4,"isDrum":true},{"pitch":38,"velocity":85,"startTime":211.304376,"endTime":211.38589775000003,"instrument":4,"isDrum":true},{"pitch":44,"velocity":95,"startTime":211.304376,"endTime":211.44024558333334,"instrument":4,"isDrum":true},{"pitch":38,"velocity":55,"startTime":211.95655,"endTime":212.03807175000003,"instrument":4,"isDrum":true},{"pitch":38,"velocity":85,"startTime":211.95655,"endTime":212.03807175000003,"instrument":4,"isDrum":true},{"pitch":44,"velocity":95,"startTime":211.95655,"endTime":212.0856261041667,"instrument":4,"isDrum":true},{"pitch":38,"velocity":55,"startTime":212.608724,"endTime":212.69024575,"instrument":4,"isDrum":true},{"pitch":38,"velocity":85,"startTime":212.608724,"endTime":212.69024575,"instrument":4,"isDrum":true},{"pitch":44,"velocity":95,"startTime":212.608724,"endTime":212.74459358333334,"instrument":4,"isDrum":true},{"pitch":38,"velocity":55,"startTime":213.260898,"endTime":213.34241975,"instrument":4,"isDrum":true},{"pitch":38,"velocity":85,"startTime":213.260898,"endTime":213.34241975,"instrument":4,"isDrum":true},{"pitch":44,"velocity":95,"startTime":213.260898,"endTime":213.39676758333334,"instrument":4,"isDrum":true},{"pitch":38,"velocity":34,"startTime":213.586985,"endTime":213.64133283333334,"instrument":4,"isDrum":true},{"pitch":46,"velocity":69,"startTime":213.586985,"endTime":213.8994850416667,"instrument":4,"isDrum":true},{"pitch":38,"velocity":39,"startTime":213.64133283333334,"endTime":213.6956806666667,"instrument":4,"isDrum":true},{"pitch":38,"velocity":39,"startTime":213.6956806666667,"endTime":213.7500285,"instrument":4,"isDrum":true},{"pitch":38,"velocity":42,"startTime":213.7500285,"endTime":213.80437633333335,"instrument":4,"isDrum":true},{"pitch":38,"velocity":48,"startTime":213.80437633333335,"endTime":213.85872416666666,"instrument":4,"isDrum":true},{"pitch":38,"velocity":53,"startTime":213.85872416666666,"endTime":213.913072,"instrument":4,"isDrum":true},{"pitch":38,"velocity":55,"startTime":213.913072,"endTime":213.99459375,"instrument":4,"isDrum":true},{"pitch":38,"velocity":85,"startTime":213.913072,"endTime":213.99459375,"instrument":4,"isDrum":true},{"pitch":44,"velocity":95,"startTime":213.913072,"endTime":214.04894158333335,"instrument":4,"isDrum":true},{"pitch":38,"velocity":55,"startTime":214.565246,"endTime":214.64676775,"instrument":4,"isDrum":true},{"pitch":38,"velocity":85,"startTime":214.565246,"endTime":214.64676775,"instrument":4,"isDrum":true},{"pitch":44,"velocity":95,"startTime":214.565246,"endTime":214.70111558333335,"instrument":4,"isDrum":true},{"pitch":38,"velocity":55,"startTime":215.21741999999998,"endTime":215.29894175,"instrument":4,"isDrum":true},{"pitch":38,"velocity":85,"startTime":215.21741999999998,"endTime":215.29894175,"instrument":4,"isDrum":true},{"pitch":44,"velocity":95,"startTime":215.21741999999998,"endTime":215.339702625,"instrument":4,"isDrum":true},{"pitch":38,"velocity":55,"startTime":215.86959399999998,"endTime":215.95111575,"instrument":4,"isDrum":true},{"pitch":38,"velocity":85,"startTime":215.86959399999998,"endTime":215.95111575,"instrument":4,"isDrum":true},{"pitch":44,"velocity":95,"startTime":215.86959399999998,"endTime":215.99867010416668,"instrument":4,"isDrum":true},{"pitch":38,"velocity":34,"startTime":216.195681,"endTime":216.25002883333332,"instrument":4,"isDrum":true},{"pitch":46,"velocity":69,"startTime":216.195681,"endTime":216.5081810416667,"instrument":4,"isDrum":true},{"pitch":38,"velocity":39,"startTime":216.25002883333332,"endTime":216.30437666666668,"instrument":4,"isDrum":true},{"pitch":38,"velocity":39,"startTime":216.30437666666668,"endTime":216.35872450000002,"instrument":4,"isDrum":true},{"pitch":38,"velocity":42,"startTime":216.35872450000002,"endTime":216.41307233333333,"instrument":4,"isDrum":true},{"pitch":38,"velocity":48,"startTime":216.41307233333333,"endTime":216.4674201666667,"instrument":4,"isDrum":true},{"pitch":38,"velocity":53,"startTime":216.4674201666667,"endTime":216.52176799999998,"instrument":4,"isDrum":true},{"pitch":38,"velocity":55,"startTime":216.52176799999998,"endTime":216.60328975000002,"instrument":4,"isDrum":true},{"pitch":38,"velocity":85,"startTime":216.52176799999998,"endTime":216.60328975000002,"instrument":4,"isDrum":true},{"pitch":44,"velocity":95,"startTime":216.52176799999998,"endTime":216.67801802083332,"instrument":4,"isDrum":true},{"pitch":38,"velocity":55,"startTime":217.173942,"endTime":217.25546375000002,"instrument":4,"isDrum":true},{"pitch":38,"velocity":85,"startTime":217.173942,"endTime":217.25546375000002,"instrument":4,"isDrum":true},{"pitch":44,"velocity":95,"startTime":217.173942,"endTime":217.3166050625,"instrument":4,"isDrum":true},{"pitch":38,"velocity":55,"startTime":217.826116,"endTime":217.90763775,"instrument":4,"isDrum":true},{"pitch":38,"velocity":85,"startTime":217.826116,"endTime":217.90763775,"instrument":4,"isDrum":true},{"pitch":44,"velocity":95,"startTime":217.826116,"endTime":217.95519210416668,"instrument":4,"isDrum":true},{"pitch":38,"velocity":55,"startTime":218.47829000000002,"endTime":218.55981175,"instrument":4,"isDrum":true},{"pitch":38,"velocity":85,"startTime":218.47829000000002,"endTime":218.55981175,"instrument":4,"isDrum":true},{"pitch":44,"velocity":95,"startTime":218.47829000000002,"endTime":218.60057262499998,"instrument":4,"isDrum":true},{"pitch":38,"velocity":34,"startTime":218.804377,"endTime":218.85872483333333,"instrument":4,"isDrum":true},{"pitch":46,"velocity":69,"startTime":218.804377,"endTime":219.1168770416667,"instrument":4,"isDrum":true},{"pitch":38,"velocity":39,"startTime":218.85872483333333,"endTime":218.9130726666667,"instrument":4,"isDrum":true},{"pitch":38,"velocity":39,"startTime":218.9130726666667,"endTime":218.9674205,"instrument":4,"isDrum":true},{"pitch":38,"velocity":42,"startTime":218.9674205,"endTime":219.02176833333334,"instrument":4,"isDrum":true},{"pitch":38,"velocity":48,"startTime":219.02176833333334,"endTime":219.07611616666668,"instrument":4,"isDrum":true},{"pitch":38,"velocity":53,"startTime":219.07611616666668,"endTime":219.13046400000002,"instrument":4,"isDrum":true},{"pitch":38,"velocity":55,"startTime":219.13046400000002,"endTime":219.21198575,"instrument":4,"isDrum":true},{"pitch":38,"velocity":85,"startTime":219.13046400000002,"endTime":219.21198575,"instrument":4,"isDrum":true},{"pitch":44,"velocity":95,"startTime":219.13046400000002,"endTime":219.26633358333333,"instrument":4,"isDrum":true},{"pitch":38,"velocity":55,"startTime":219.78263800000002,"endTime":219.86415975,"instrument":4,"isDrum":true},{"pitch":38,"velocity":85,"startTime":219.78263800000002,"endTime":219.86415975,"instrument":4,"isDrum":true},{"pitch":44,"velocity":95,"startTime":219.78263800000002,"endTime":219.9117141041667,"instrument":4,"isDrum":true},{"pitch":38,"velocity":55,"startTime":220.43481200000002,"endTime":220.51633375,"instrument":4,"isDrum":true},{"pitch":38,"velocity":85,"startTime":220.43481200000002,"endTime":220.51633375,"instrument":4,"isDrum":true},{"pitch":44,"velocity":95,"startTime":220.43481200000002,"endTime":220.557094625,"instrument":4,"isDrum":true},{"pitch":38,"velocity":55,"startTime":221.08698600000002,"endTime":221.16850775,"instrument":4,"isDrum":true},{"pitch":38,"velocity":85,"startTime":221.08698600000002,"endTime":221.16850775,"instrument":4,"isDrum":true},{"pitch":44,"velocity":95,"startTime":221.08698600000002,"endTime":221.20247514583332,"instrument":4,"isDrum":true},{"pitch":38,"velocity":34,"startTime":221.413073,"endTime":221.4674208333333,"instrument":4,"isDrum":true},{"pitch":46,"velocity":69,"startTime":221.413073,"endTime":221.72557304166668,"instrument":4,"isDrum":true},{"pitch":38,"velocity":39,"startTime":221.4674208333333,"endTime":221.52176866666667,"instrument":4,"isDrum":true},{"pitch":38,"velocity":39,"startTime":221.52176866666667,"endTime":221.5761165,"instrument":4,"isDrum":true},{"pitch":38,"velocity":42,"startTime":221.5761165,"endTime":221.63046433333332,"instrument":4,"isDrum":true},{"pitch":38,"velocity":48,"startTime":221.63046433333332,"endTime":221.6848121666667,"instrument":4,"isDrum":true},{"pitch":38,"velocity":53,"startTime":221.6848121666667,"endTime":221.73916,"instrument":4,"isDrum":true},{"pitch":38,"velocity":55,"startTime":221.73916,"endTime":221.80709479166666,"instrument":4,"isDrum":true},{"pitch":38,"velocity":85,"startTime":221.73916,"endTime":221.80709479166666,"instrument":4,"isDrum":true},{"pitch":44,"velocity":95,"startTime":221.73916,"endTime":221.86823610416667,"instrument":4,"isDrum":true},{"pitch":38,"velocity":55,"startTime":222.391334,"endTime":222.47285575,"instrument":4,"isDrum":true},{"pitch":38,"velocity":85,"startTime":222.391334,"endTime":222.47285575,"instrument":4,"isDrum":true},{"pitch":44,"velocity":95,"startTime":222.391334,"endTime":222.52720358333332,"instrument":4,"isDrum":true},{"pitch":38,"velocity":55,"startTime":223.043508,"endTime":223.12502974999998,"instrument":4,"isDrum":true},{"pitch":38,"velocity":85,"startTime":223.043508,"endTime":223.12502974999998,"instrument":4,"isDrum":true},{"pitch":44,"velocity":95,"startTime":223.043508,"endTime":223.17258410416667,"instrument":4,"isDrum":true},{"pitch":38,"velocity":55,"startTime":223.695682,"endTime":223.77720374999998,"instrument":4,"isDrum":true},{"pitch":38,"velocity":85,"startTime":223.695682,"endTime":223.77720374999998,"instrument":4,"isDrum":true},{"pitch":44,"velocity":95,"startTime":223.695682,"endTime":223.82475810416668,"instrument":4,"isDrum":true},{"pitch":38,"velocity":34,"startTime":224.02176899999998,"endTime":224.07611683333332,"instrument":4,"isDrum":true},{"pitch":46,"velocity":69,"startTime":224.02176899999998,"endTime":224.3342690416667,"instrument":4,"isDrum":true},{"pitch":38,"velocity":39,"startTime":224.07611683333332,"endTime":224.13046466666668,"instrument":4,"isDrum":true},{"pitch":38,"velocity":39,"startTime":224.13046466666668,"endTime":224.1848125,"instrument":4,"isDrum":true},{"pitch":38,"velocity":42,"startTime":224.1848125,"endTime":224.23916033333333,"instrument":4,"isDrum":true},{"pitch":38,"velocity":48,"startTime":224.23916033333333,"endTime":224.29350816666667,"instrument":4,"isDrum":true},{"pitch":38,"velocity":53,"startTime":224.29350816666667,"endTime":224.347856,"instrument":4,"isDrum":true},{"pitch":38,"velocity":55,"startTime":224.347856,"endTime":224.42937775,"instrument":4,"isDrum":true},{"pitch":38,"velocity":85,"startTime":224.347856,"endTime":224.42937775,"instrument":4,"isDrum":true},{"pitch":44,"velocity":95,"startTime":224.347856,"endTime":224.48372558333332,"instrument":4,"isDrum":true},{"pitch":38,"velocity":55,"startTime":225.00003,"endTime":225.08155175,"instrument":4,"isDrum":true},{"pitch":38,"velocity":85,"startTime":225.00003,"endTime":225.08155175,"instrument":4,"isDrum":true},{"pitch":44,"velocity":95,"startTime":225.00003,"endTime":225.12910610416668,"instrument":4,"isDrum":true},{"pitch":38,"velocity":55,"startTime":225.652204,"endTime":225.73372575,"instrument":4,"isDrum":true},{"pitch":38,"velocity":85,"startTime":225.652204,"endTime":225.73372575,"instrument":4,"isDrum":true},{"pitch":44,"velocity":95,"startTime":225.652204,"endTime":225.78807358333333,"instrument":4,"isDrum":true},{"pitch":38,"velocity":55,"startTime":226.304378,"endTime":226.38589975,"instrument":4,"isDrum":true},{"pitch":38,"velocity":85,"startTime":226.304378,"endTime":226.38589975,"instrument":4,"isDrum":true},{"pitch":44,"velocity":95,"startTime":226.304378,"endTime":226.4402475833333,"instrument":4,"isDrum":true},{"pitch":38,"velocity":34,"startTime":226.630465,"endTime":226.6848128333333,"instrument":4,"isDrum":true},{"pitch":46,"velocity":69,"startTime":226.630465,"endTime":226.94296504166667,"instrument":4,"isDrum":true},{"pitch":38,"velocity":39,"startTime":226.6848128333333,"endTime":226.73916066666666,"instrument":4,"isDrum":true},{"pitch":38,"velocity":39,"startTime":226.73916066666666,"endTime":226.7935085,"instrument":4,"isDrum":true},{"pitch":38,"velocity":42,"startTime":226.7935085,"endTime":226.8478563333333,"instrument":4,"isDrum":true},{"pitch":38,"velocity":48,"startTime":226.8478563333333,"endTime":226.90220416666668,"instrument":4,"isDrum":true},{"pitch":38,"velocity":53,"startTime":226.90220416666668,"endTime":226.95655200000002,"instrument":4,"isDrum":true},{"pitch":38,"velocity":55,"startTime":226.95655200000002,"endTime":227.03807375,"instrument":4,"isDrum":true},{"pitch":38,"velocity":85,"startTime":226.95655200000002,"endTime":227.03807375,"instrument":4,"isDrum":true},{"pitch":44,"velocity":95,"startTime":226.95655200000002,"endTime":227.0924215833333,"instrument":4,"isDrum":true},{"pitch":38,"velocity":55,"startTime":227.608726,"endTime":227.69024775,"instrument":4,"isDrum":true},{"pitch":38,"velocity":85,"startTime":227.608726,"endTime":227.69024775,"instrument":4,"isDrum":true},{"pitch":44,"velocity":95,"startTime":227.608726,"endTime":227.7445955833333,"instrument":4,"isDrum":true},{"pitch":38,"velocity":55,"startTime":228.2609,"endTime":228.34242175,"instrument":4,"isDrum":true},{"pitch":38,"velocity":85,"startTime":228.2609,"endTime":228.34242175,"instrument":4,"isDrum":true},{"pitch":44,"velocity":95,"startTime":228.2609,"endTime":228.38318262500002,"instrument":4,"isDrum":true},{"pitch":38,"velocity":55,"startTime":228.913074,"endTime":228.99459574999997,"instrument":4,"isDrum":true},{"pitch":38,"velocity":85,"startTime":228.913074,"endTime":228.99459574999997,"instrument":4,"isDrum":true},{"pitch":44,"velocity":95,"startTime":228.913074,"endTime":229.0421501041667,"instrument":4,"isDrum":true},{"pitch":38,"velocity":34,"startTime":229.23916100000002,"endTime":229.29350883333333,"instrument":4,"isDrum":true},{"pitch":46,"velocity":69,"startTime":229.23916100000002,"endTime":229.55166104166668,"instrument":4,"isDrum":true},{"pitch":38,"velocity":39,"startTime":229.29350883333333,"endTime":229.34785666666667,"instrument":4,"isDrum":true},{"pitch":38,"velocity":39,"startTime":229.34785666666667,"endTime":229.40220449999998,"instrument":4,"isDrum":true},{"pitch":38,"velocity":42,"startTime":229.40220449999998,"endTime":229.45655233333332,"instrument":4,"isDrum":true},{"pitch":38,"velocity":48,"startTime":229.45655233333332,"endTime":229.5109001666667,"instrument":4,"isDrum":true},{"pitch":38,"velocity":53,"startTime":229.5109001666667,"endTime":229.565248,"instrument":4,"isDrum":true},{"pitch":38,"velocity":55,"startTime":229.565248,"endTime":229.64676975000003,"instrument":4,"isDrum":true},{"pitch":38,"velocity":85,"startTime":229.565248,"endTime":229.64676975000003,"instrument":4,"isDrum":true},{"pitch":44,"velocity":95,"startTime":229.565248,"endTime":229.72149802083334,"instrument":4,"isDrum":true},{"pitch":38,"velocity":55,"startTime":230.217422,"endTime":230.29894375,"instrument":4,"isDrum":true},{"pitch":38,"velocity":85,"startTime":230.217422,"endTime":230.29894375,"instrument":4,"isDrum":true},{"pitch":44,"velocity":95,"startTime":230.217422,"endTime":230.3600850625,"instrument":4,"isDrum":true},{"pitch":38,"velocity":55,"startTime":230.869596,"endTime":230.95111775,"instrument":4,"isDrum":true},{"pitch":38,"velocity":85,"startTime":230.869596,"endTime":230.95111775,"instrument":4,"isDrum":true},{"pitch":44,"velocity":95,"startTime":230.869596,"endTime":230.9986721041667,"instrument":4,"isDrum":true},{"pitch":38,"velocity":55,"startTime":231.52177,"endTime":231.60329175,"instrument":4,"isDrum":true},{"pitch":38,"velocity":85,"startTime":231.52177,"endTime":231.60329175,"instrument":4,"isDrum":true},{"pitch":44,"velocity":95,"startTime":231.52177,"endTime":231.644052625,"instrument":4,"isDrum":true},{"pitch":38,"velocity":34,"startTime":231.847857,"endTime":231.90220483333334,"instrument":4,"isDrum":true},{"pitch":46,"velocity":69,"startTime":231.847857,"endTime":232.16035704166669,"instrument":4,"isDrum":true},{"pitch":38,"velocity":39,"startTime":231.90220483333334,"endTime":231.9565526666667,"instrument":4,"isDrum":true},{"pitch":38,"velocity":39,"startTime":231.9565526666667,"endTime":232.0109005,"instrument":4,"isDrum":true},{"pitch":38,"velocity":42,"startTime":232.0109005,"endTime":232.0652483333333,"instrument":4,"isDrum":true},{"pitch":38,"velocity":48,"startTime":232.0652483333333,"endTime":232.11959616666667,"instrument":4,"isDrum":true},{"pitch":38,"velocity":53,"startTime":232.11959616666667,"endTime":232.173944,"instrument":4,"isDrum":true},{"pitch":38,"velocity":55,"startTime":232.173944,"endTime":232.25546575,"instrument":4,"isDrum":true},{"pitch":38,"velocity":85,"startTime":232.173944,"endTime":232.25546575,"instrument":4,"isDrum":true},{"pitch":44,"velocity":95,"startTime":232.173944,"endTime":232.30981358333335,"instrument":4,"isDrum":true},{"pitch":38,"velocity":55,"startTime":232.82611799999998,"endTime":232.90763975000002,"instrument":4,"isDrum":true},{"pitch":38,"velocity":85,"startTime":232.82611799999998,"endTime":232.90763975000002,"instrument":4,"isDrum":true},{"pitch":44,"velocity":95,"startTime":232.82611799999998,"endTime":232.95519410416668,"instrument":4,"isDrum":true},{"pitch":38,"velocity":55,"startTime":233.47829199999998,"endTime":233.55981375000002,"instrument":4,"isDrum":true},{"pitch":38,"velocity":85,"startTime":233.47829199999998,"endTime":233.55981375000002,"instrument":4,"isDrum":true},{"pitch":44,"velocity":95,"startTime":233.47829199999998,"endTime":233.600574625,"instrument":4,"isDrum":true},{"pitch":38,"velocity":55,"startTime":234.13046599999998,"endTime":234.21198775000002,"instrument":4,"isDrum":true},{"pitch":38,"velocity":85,"startTime":234.13046599999998,"endTime":234.21198775000002,"instrument":4,"isDrum":true},{"pitch":44,"velocity":95,"startTime":234.13046599999998,"endTime":234.24595514583334,"instrument":4,"isDrum":true},{"pitch":38,"velocity":34,"startTime":234.456553,"endTime":234.51090083333332,"instrument":4,"isDrum":true},{"pitch":46,"velocity":69,"startTime":234.456553,"endTime":234.7690530416667,"instrument":4,"isDrum":true},{"pitch":38,"velocity":39,"startTime":234.51090083333332,"endTime":234.5652486666667,"instrument":4,"isDrum":true},{"pitch":38,"velocity":39,"startTime":234.5652486666667,"endTime":234.61959650000003,"instrument":4,"isDrum":true},{"pitch":38,"velocity":42,"startTime":234.61959650000003,"endTime":234.67394433333334,"instrument":4,"isDrum":true},{"pitch":38,"velocity":48,"startTime":234.67394433333334,"endTime":234.72829216666668,"instrument":4,"isDrum":true},{"pitch":38,"velocity":53,"startTime":234.72829216666668,"endTime":234.78264,"instrument":4,"isDrum":true},{"pitch":38,"velocity":55,"startTime":234.78264,"endTime":234.86416175000002,"instrument":4,"isDrum":true},{"pitch":38,"velocity":85,"startTime":234.78264,"endTime":234.86416175000002,"instrument":4,"isDrum":true},{"pitch":44,"velocity":95,"startTime":234.78264,"endTime":234.91850958333333,"instrument":4,"isDrum":true},{"pitch":38,"velocity":55,"startTime":235.434814,"endTime":235.51633575,"instrument":4,"isDrum":true},{"pitch":38,"velocity":85,"startTime":235.434814,"endTime":235.51633575,"instrument":4,"isDrum":true},{"pitch":44,"velocity":95,"startTime":235.434814,"endTime":235.5638901041667,"instrument":4,"isDrum":true},{"pitch":38,"velocity":55,"startTime":236.086988,"endTime":236.16850975,"instrument":4,"isDrum":true},{"pitch":38,"velocity":85,"startTime":236.086988,"endTime":236.16850975,"instrument":4,"isDrum":true},{"pitch":44,"velocity":95,"startTime":236.086988,"endTime":236.20927062500002,"instrument":4,"isDrum":true},{"pitch":38,"velocity":55,"startTime":236.739162,"endTime":236.82068375,"instrument":4,"isDrum":true},{"pitch":38,"velocity":85,"startTime":236.739162,"endTime":236.82068375,"instrument":4,"isDrum":true},{"pitch":44,"velocity":95,"startTime":236.739162,"endTime":236.85465114583332,"instrument":4,"isDrum":true},{"pitch":38,"velocity":34,"startTime":237.065249,"endTime":237.11959683333333,"instrument":4,"isDrum":true},{"pitch":46,"velocity":69,"startTime":237.065249,"endTime":237.37774904166668,"instrument":4,"isDrum":true},{"pitch":38,"velocity":39,"startTime":237.11959683333333,"endTime":237.1739446666667,"instrument":4,"isDrum":true},{"pitch":38,"velocity":39,"startTime":237.1739446666667,"endTime":237.2282925,"instrument":4,"isDrum":true},{"pitch":38,"velocity":42,"startTime":237.2282925,"endTime":237.28264033333335,"instrument":4,"isDrum":true},{"pitch":38,"velocity":48,"startTime":237.28264033333335,"endTime":237.33698816666669,"instrument":4,"isDrum":true},{"pitch":38,"velocity":53,"startTime":237.33698816666669,"endTime":237.39133600000002,"instrument":4,"isDrum":true},{"pitch":38,"velocity":55,"startTime":237.39133600000002,"endTime":237.47285775,"instrument":4,"isDrum":true},{"pitch":38,"velocity":85,"startTime":237.39133600000002,"endTime":237.47285775,"instrument":4,"isDrum":true},{"pitch":44,"velocity":95,"startTime":237.39133600000002,"endTime":237.52720558333334,"instrument":4,"isDrum":true},{"pitch":38,"velocity":55,"startTime":238.04351000000003,"endTime":238.12503175,"instrument":4,"isDrum":true},{"pitch":38,"velocity":85,"startTime":238.04351000000003,"endTime":238.12503175,"instrument":4,"isDrum":true},{"pitch":44,"velocity":95,"startTime":238.04351000000003,"endTime":238.17258610416667,"instrument":4,"isDrum":true},{"pitch":38,"velocity":55,"startTime":238.69568400000003,"endTime":238.77720575,"instrument":4,"isDrum":true},{"pitch":38,"velocity":85,"startTime":238.69568400000003,"endTime":238.77720575,"instrument":4,"isDrum":true},{"pitch":44,"velocity":95,"startTime":238.69568400000003,"endTime":238.817966625,"instrument":4,"isDrum":true},{"pitch":38,"velocity":55,"startTime":239.34785800000003,"endTime":239.42937975,"instrument":4,"isDrum":true},{"pitch":38,"velocity":85,"startTime":239.34785800000003,"endTime":239.42937975,"instrument":4,"isDrum":true},{"pitch":44,"velocity":95,"startTime":239.34785800000003,"endTime":239.46334714583332,"instrument":4,"isDrum":true},{"pitch":38,"velocity":34,"startTime":239.673945,"endTime":239.7282928333333,"instrument":4,"isDrum":true},{"pitch":46,"velocity":69,"startTime":239.673945,"endTime":239.98644504166668,"instrument":4,"isDrum":true},{"pitch":38,"velocity":39,"startTime":239.7282928333333,"endTime":239.78264066666668,"instrument":4,"isDrum":true},{"pitch":38,"velocity":39,"startTime":239.78264066666668,"endTime":239.83698850000002,"instrument":4,"isDrum":true},{"pitch":38,"velocity":42,"startTime":239.83698850000002,"endTime":239.89133633333333,"instrument":4,"isDrum":true},{"pitch":38,"velocity":48,"startTime":239.89133633333333,"endTime":239.9456841666667,"instrument":4,"isDrum":true},{"pitch":38,"velocity":53,"startTime":239.9456841666667,"endTime":240.000032,"instrument":4,"isDrum":true},{"pitch":38,"velocity":55,"startTime":240.000032,"endTime":240.08155375,"instrument":4,"isDrum":true},{"pitch":38,"velocity":85,"startTime":240.000032,"endTime":240.08155375,"instrument":4,"isDrum":true},{"pitch":44,"velocity":95,"startTime":240.000032,"endTime":240.13590158333332,"instrument":4,"isDrum":true},{"pitch":38,"velocity":55,"startTime":240.652206,"endTime":240.73372775,"instrument":4,"isDrum":true},{"pitch":38,"velocity":85,"startTime":240.652206,"endTime":240.73372775,"instrument":4,"isDrum":true},{"pitch":44,"velocity":95,"startTime":240.652206,"endTime":240.78128210416668,"instrument":4,"isDrum":true},{"pitch":38,"velocity":55,"startTime":241.30438,"endTime":241.38590175,"instrument":4,"isDrum":true},{"pitch":38,"velocity":85,"startTime":241.30438,"endTime":241.38590175,"instrument":4,"isDrum":true},{"pitch":44,"velocity":95,"startTime":241.30438,"endTime":241.426662625,"instrument":4,"isDrum":true},{"pitch":38,"velocity":55,"startTime":241.956554,"endTime":242.03807575,"instrument":4,"isDrum":true},{"pitch":38,"velocity":85,"startTime":241.956554,"endTime":242.03807575,"instrument":4,"isDrum":true},{"pitch":44,"velocity":95,"startTime":241.956554,"endTime":242.0720431458333,"instrument":4,"isDrum":true},{"pitch":38,"velocity":34,"startTime":242.28264099999998,"endTime":242.33698883333332,"instrument":4,"isDrum":true},{"pitch":46,"velocity":69,"startTime":242.28264099999998,"endTime":242.5951410416667,"instrument":4,"isDrum":true},{"pitch":38,"velocity":39,"startTime":242.33698883333332,"endTime":242.3913366666667,"instrument":4,"isDrum":true},{"pitch":38,"velocity":39,"startTime":242.3913366666667,"endTime":242.4456845,"instrument":4,"isDrum":true},{"pitch":38,"velocity":42,"startTime":242.4456845,"endTime":242.50003233333334,"instrument":4,"isDrum":true},{"pitch":38,"velocity":48,"startTime":242.50003233333334,"endTime":242.55438016666668,"instrument":4,"isDrum":true},{"pitch":38,"velocity":53,"startTime":242.55438016666668,"endTime":242.608728,"instrument":4,"isDrum":true},{"pitch":38,"velocity":55,"startTime":242.608728,"endTime":242.69024975,"instrument":4,"isDrum":true},{"pitch":38,"velocity":85,"startTime":242.608728,"endTime":242.69024975,"instrument":4,"isDrum":true},{"pitch":44,"velocity":95,"startTime":242.608728,"endTime":242.73101062499998,"instrument":4,"isDrum":true},{"pitch":38,"velocity":55,"startTime":243.26090200000002,"endTime":243.34242375,"instrument":4,"isDrum":true},{"pitch":38,"velocity":85,"startTime":243.26090200000002,"endTime":243.34242375,"instrument":4,"isDrum":true},{"pitch":44,"velocity":95,"startTime":243.26090200000002,"endTime":243.38318462499998,"instrument":4,"isDrum":true},{"pitch":38,"velocity":55,"startTime":243.91307600000002,"endTime":243.99459775,"instrument":4,"isDrum":true},{"pitch":38,"velocity":85,"startTime":243.91307600000002,"endTime":243.99459775,"instrument":4,"isDrum":true},{"pitch":44,"velocity":95,"startTime":243.91307600000002,"endTime":244.02856514583334,"instrument":4,"isDrum":true},{"pitch":38,"velocity":55,"startTime":244.56525000000002,"endTime":244.64677175,"instrument":4,"isDrum":true},{"pitch":38,"velocity":85,"startTime":244.56525000000002,"endTime":244.64677175,"instrument":4,"isDrum":true},{"pitch":44,"velocity":95,"startTime":244.56525000000002,"endTime":244.69432610416666,"instrument":4,"isDrum":true},{"pitch":38,"velocity":34,"startTime":244.891337,"endTime":244.9456848333333,"instrument":4,"isDrum":true},{"pitch":46,"velocity":69,"startTime":244.891337,"endTime":245.20383704166667,"instrument":4,"isDrum":true},{"pitch":38,"velocity":39,"startTime":244.9456848333333,"endTime":245.00003266666667,"instrument":4,"isDrum":true},{"pitch":38,"velocity":39,"startTime":245.00003266666667,"endTime":245.0543805,"instrument":4,"isDrum":true},{"pitch":38,"velocity":42,"startTime":245.0543805,"endTime":245.10872833333332,"instrument":4,"isDrum":true},{"pitch":38,"velocity":48,"startTime":245.10872833333332,"endTime":245.16307616666668,"instrument":4,"isDrum":true},{"pitch":38,"velocity":53,"startTime":245.16307616666668,"endTime":245.217424,"instrument":4,"isDrum":true},{"pitch":38,"velocity":55,"startTime":245.217424,"endTime":245.29894575,"instrument":4,"isDrum":true},{"pitch":38,"velocity":85,"startTime":245.217424,"endTime":245.29894575,"instrument":4,"isDrum":true},{"pitch":51,"velocity":87,"startTime":245.217424,"endTime":245.33291314583334,"instrument":4,"isDrum":true},{"pitch":70,"velocity":78,"startTime":247.82612,"endTime":247.96198958333332,"instrument":4,"isDrum":true},{"pitch":51,"velocity":85,"startTime":248.15220700000003,"endTime":248.4171526875,"instrument":4,"isDrum":true},{"pitch":38,"velocity":55,"startTime":248.478294,"endTime":248.60737010416668,"instrument":4,"isDrum":true},{"pitch":38,"velocity":85,"startTime":248.478294,"endTime":248.60737010416668,"instrument":4,"isDrum":true},{"pitch":44,"velocity":95,"startTime":248.478294,"endTime":248.7907940416667,"instrument":4,"isDrum":true},{"pitch":38,"velocity":55,"startTime":249.130468,"endTime":249.24595714583333,"instrument":4,"isDrum":true},{"pitch":38,"velocity":85,"startTime":249.130468,"endTime":249.24595714583333,"instrument":4,"isDrum":true},{"pitch":44,"velocity":97,"startTime":249.130468,"endTime":249.32068541666666,"instrument":4,"isDrum":true},{"pitch":38,"velocity":94,"endTime":0.4279891874999998,"instrument":5,"program":32},{"pitch":42,"velocity":94,"startTime":0.652174,"endTime":1.0801631874999997,"instrument":5,"program":32},{"pitch":45,"velocity":94,"startTime":1.304348,"endTime":1.7323371874999998,"instrument":5,"program":32},{"pitch":42,"velocity":94,"startTime":1.956522,"endTime":2.3845111875,"instrument":5,"program":32},{"pitch":38,"velocity":94,"startTime":2.608696,"endTime":3.0366851875000003,"instrument":5,"program":32},{"pitch":42,"velocity":94,"startTime":3.26087,"endTime":3.6888591875000003,"instrument":5,"program":32},{"pitch":45,"velocity":94,"startTime":3.913044,"endTime":4.341033187500001,"instrument":5,"program":32},{"pitch":42,"velocity":94,"startTime":4.565218,"endTime":4.9932071875,"instrument":5,"program":32},{"pitch":31,"velocity":94,"startTime":5.217392,"endTime":5.6453811875,"instrument":5,"program":32},{"pitch":34,"velocity":94,"startTime":5.869566,"endTime":6.2975551875,"instrument":5,"program":32},{"pitch":38,"velocity":94,"startTime":6.52174,"endTime":6.9497291875,"instrument":5,"program":32},{"pitch":34,"velocity":94,"startTime":7.173914,"endTime":7.6019031875,"instrument":5,"program":32},{"pitch":31,"velocity":94,"startTime":7.826088,"endTime":8.2540771875,"instrument":5,"program":32},{"pitch":34,"velocity":94,"startTime":8.478261999999999,"endTime":8.906251187499999,"instrument":5,"program":32},{"pitch":38,"velocity":94,"startTime":9.130436,"endTime":9.558425187500001,"instrument":5,"program":32},{"pitch":34,"velocity":94,"startTime":9.782610000000002,"endTime":10.2105991875,"instrument":5,"program":32},{"pitch":38,"velocity":94,"startTime":10.434784,"endTime":10.8627731875,"instrument":5,"program":32},{"pitch":42,"velocity":94,"startTime":11.086958,"endTime":11.514947187499999,"instrument":5,"program":32},{"pitch":45,"velocity":94,"startTime":11.739132,"endTime":12.167121187500001,"instrument":5,"program":32},{"pitch":42,"velocity":94,"startTime":12.391306,"endTime":12.8192951875,"instrument":5,"program":32},{"pitch":38,"velocity":94,"startTime":13.04348,"endTime":13.4714691875,"instrument":5,"program":32},{"pitch":42,"velocity":94,"startTime":13.695654,"endTime":14.123643187499999,"instrument":5,"program":32},{"pitch":45,"velocity":94,"startTime":14.347828,"endTime":14.7758171875,"instrument":5,"program":32},{"pitch":42,"velocity":94,"startTime":15.000002,"endTime":15.4279911875,"instrument":5,"program":32},{"pitch":31,"velocity":94,"startTime":15.652176,"endTime":16.0801651875,"instrument":5,"program":32},{"pitch":34,"velocity":94,"startTime":16.30435,"endTime":16.7323391875,"instrument":5,"program":32},{"pitch":38,"velocity":94,"startTime":16.956523999999998,"endTime":17.3845131875,"instrument":5,"program":32},{"pitch":34,"velocity":94,"startTime":17.608698,"endTime":18.0366871875,"instrument":5,"program":32},{"pitch":31,"velocity":94,"startTime":18.260872,"endTime":18.6888611875,"instrument":5,"program":32},{"pitch":34,"velocity":94,"startTime":18.913045999999998,"endTime":19.341035187499998,"instrument":5,"program":32},{"pitch":38,"velocity":94,"startTime":19.565219999999997,"endTime":19.9932091875,"instrument":5,"program":32},{"pitch":34,"velocity":94,"startTime":20.217394000000002,"endTime":20.645383187500002,"instrument":5,"program":32},{"pitch":36,"velocity":94,"startTime":20.869568,"endTime":21.2975571875,"instrument":5,"program":32},{"pitch":39,"velocity":94,"startTime":21.521742,"endTime":21.9497311875,"instrument":5,"program":32},{"pitch":43,"velocity":94,"startTime":22.173916000000002,"endTime":22.601905187499998,"instrument":5,"program":32},{"pitch":39,"velocity":94,"startTime":22.82609,"endTime":23.2540791875,"instrument":5,"program":32},{"pitch":36,"velocity":94,"startTime":23.478264,"endTime":23.9062531875,"instrument":5,"program":32},{"pitch":39,"velocity":94,"startTime":24.130437999999998,"endTime":24.558427187499998,"instrument":5,"program":32},{"pitch":43,"velocity":94,"startTime":24.782611999999997,"endTime":25.210601187499996,"instrument":5,"program":32},{"pitch":39,"velocity":94,"startTime":25.434786000000003,"endTime":25.862775187500002,"instrument":5,"program":32},{"pitch":31,"velocity":94,"startTime":26.08696,"endTime":26.5149491875,"instrument":5,"program":32},{"pitch":34,"velocity":94,"startTime":26.739134,"endTime":27.1671231875,"instrument":5,"program":32},{"pitch":38,"velocity":94,"startTime":27.391308000000002,"endTime":27.8192971875,"instrument":5,"program":32},{"pitch":34,"velocity":94,"startTime":28.043482,"endTime":28.4714711875,"instrument":5,"program":32},{"pitch":31,"velocity":94,"startTime":28.695656,"endTime":29.1236451875,"instrument":5,"program":32},{"pitch":34,"velocity":94,"startTime":29.34783,"endTime":29.775819187499998,"instrument":5,"program":32},{"pitch":38,"velocity":94,"startTime":30.000003999999997,"endTime":30.427993187499997,"instrument":5,"program":32},{"pitch":34,"velocity":94,"startTime":30.652178,"endTime":31.080167187500003,"instrument":5,"program":32},{"pitch":38,"velocity":94,"startTime":31.304352,"endTime":31.7323411875,"instrument":5,"program":32},{"pitch":42,"velocity":94,"startTime":31.956526,"endTime":32.3845151875,"instrument":5,"program":32},{"pitch":45,"velocity":94,"startTime":32.6087,"endTime":33.036689187499995,"instrument":5,"program":32},{"pitch":42,"velocity":94,"startTime":33.260874,"endTime":33.688863187500004,"instrument":5,"program":32},{"pitch":38,"velocity":94,"startTime":33.913047999999996,"endTime":34.3410371875,"instrument":5,"program":32},{"pitch":42,"velocity":94,"startTime":34.565222,"endTime":34.9932111875,"instrument":5,"program":32},{"pitch":45,"velocity":94,"startTime":35.217396,"endTime":35.6453851875,"instrument":5,"program":32},{"pitch":42,"velocity":94,"startTime":35.86957,"endTime":36.2975591875,"instrument":5,"program":32},{"pitch":43,"velocity":94,"startTime":36.521744,"endTime":36.9497331875,"instrument":5,"program":32},{"pitch":38,"velocity":94,"startTime":39.782613999999995,"endTime":40.210603187500006,"instrument":5,"program":32},{"pitch":43,"velocity":94,"startTime":40.434788000000005,"endTime":40.8627771875,"instrument":5,"program":32},{"pitch":38,"velocity":94,"startTime":41.739136,"endTime":42.1671251875,"instrument":5,"program":32},{"pitch":42,"velocity":94,"startTime":42.39131,"endTime":42.8192991875,"instrument":5,"program":32},{"pitch":45,"velocity":94,"startTime":43.043484,"endTime":43.471473187499996,"instrument":5,"program":32},{"pitch":42,"velocity":94,"startTime":43.695657999999995,"endTime":44.1236471875,"instrument":5,"program":32},{"pitch":38,"velocity":94,"startTime":44.347832,"endTime":44.77582118749999,"instrument":5,"program":32},{"pitch":42,"velocity":94,"startTime":45.00000599999999,"endTime":45.427995187499995,"instrument":5,"program":32},{"pitch":45,"velocity":94,"startTime":45.652179999999994,"endTime":46.08016918749999,"instrument":5,"program":32},{"pitch":42,"velocity":94,"startTime":46.30435399999999,"endTime":46.73234318749999,"instrument":5,"program":32},{"pitch":31,"velocity":94,"startTime":46.956528000000006,"endTime":47.38451718749999,"instrument":5,"program":32},{"pitch":34,"velocity":94,"startTime":47.60870200000001,"endTime":48.036691187500004,"instrument":5,"program":32},{"pitch":38,"velocity":94,"startTime":48.260876,"endTime":48.68886518750001,"instrument":5,"program":32},{"pitch":34,"velocity":94,"startTime":48.913050000000005,"endTime":49.34103918750001,"instrument":5,"program":32},{"pitch":31,"velocity":94,"startTime":49.565224,"endTime":49.993213187500004,"instrument":5,"program":32},{"pitch":34,"velocity":94,"startTime":50.217398,"endTime":50.645387187500006,"instrument":5,"program":32},{"pitch":38,"velocity":94,"startTime":50.869572000000005,"endTime":51.2975611875,"instrument":5,"program":32},{"pitch":34,"velocity":94,"startTime":51.521746,"endTime":51.9497351875,"instrument":5,"program":32},{"pitch":38,"velocity":94,"startTime":52.17392,"endTime":52.6019091875,"instrument":5,"program":32},{"pitch":42,"velocity":94,"startTime":52.826094,"endTime":53.2540831875,"instrument":5,"program":32},{"pitch":45,"velocity":94,"startTime":53.478268,"endTime":53.906257187499996,"instrument":5,"program":32},{"pitch":42,"velocity":94,"startTime":54.130441999999995,"endTime":54.5584311875,"instrument":5,"program":32},{"pitch":38,"velocity":94,"startTime":54.782616,"endTime":55.21060518749999,"instrument":5,"program":32},{"pitch":42,"velocity":94,"startTime":55.43478999999999,"endTime":55.862779187499996,"instrument":5,"program":32},{"pitch":45,"velocity":94,"startTime":56.086963999999995,"endTime":56.51495318749999,"instrument":5,"program":32},{"pitch":42,"velocity":94,"startTime":56.73913799999999,"endTime":57.16712718749999,"instrument":5,"program":32},{"pitch":31,"velocity":94,"startTime":57.391312000000006,"endTime":57.81930118749999,"instrument":5,"program":32},{"pitch":34,"velocity":94,"startTime":58.04348600000001,"endTime":58.471475187500005,"instrument":5,"program":32},{"pitch":38,"velocity":94,"startTime":58.695660000000004,"endTime":59.12364918750001,"instrument":5,"program":32},{"pitch":34,"velocity":94,"startTime":59.347834000000006,"endTime":59.7758231875,"instrument":5,"program":32},{"pitch":31,"velocity":94,"startTime":60.000008,"endTime":60.427997187500004,"instrument":5,"program":32},{"pitch":34,"velocity":94,"startTime":60.652182,"endTime":61.08017118750001,"instrument":5,"program":32},{"pitch":38,"velocity":94,"startTime":61.304356,"endTime":61.7323451875,"instrument":5,"program":32},{"pitch":34,"velocity":94,"startTime":61.95653,"endTime":62.384519187500004,"instrument":5,"program":32},{"pitch":36,"velocity":94,"startTime":62.608704,"endTime":63.0366931875,"instrument":5,"program":32},{"pitch":39,"velocity":94,"startTime":63.260878,"endTime":63.6888671875,"instrument":5,"program":32},{"pitch":43,"velocity":94,"startTime":63.913052,"endTime":64.3410411875,"instrument":5,"program":32},{"pitch":39,"velocity":94,"startTime":64.565226,"endTime":64.9932151875,"instrument":5,"program":32},{"pitch":36,"velocity":94,"startTime":65.2174,"endTime":65.6453891875,"instrument":5,"program":32},{"pitch":39,"velocity":94,"startTime":65.869574,"endTime":66.29756318749999,"instrument":5,"program":32},{"pitch":43,"velocity":94,"startTime":66.52174799999999,"endTime":66.94973718749999,"instrument":5,"program":32},{"pitch":39,"velocity":94,"startTime":67.17392199999999,"endTime":67.6019111875,"instrument":5,"program":32},{"pitch":31,"velocity":94,"startTime":67.826096,"endTime":68.2540851875,"instrument":5,"program":32},{"pitch":34,"velocity":94,"startTime":68.47827000000001,"endTime":68.90625918750001,"instrument":5,"program":32},{"pitch":38,"velocity":94,"startTime":69.13044400000001,"endTime":69.5584331875,"instrument":5,"program":32},{"pitch":34,"velocity":94,"startTime":69.782618,"endTime":70.2106071875,"instrument":5,"program":32},{"pitch":31,"velocity":94,"startTime":70.434792,"endTime":70.8627811875,"instrument":5,"program":32},{"pitch":34,"velocity":94,"startTime":71.086966,"endTime":71.51495518750001,"instrument":5,"program":32},{"pitch":38,"velocity":94,"startTime":71.73914,"endTime":72.1671291875,"instrument":5,"program":32},{"pitch":34,"velocity":94,"startTime":72.391314,"endTime":72.8193031875,"instrument":5,"program":32},{"pitch":38,"velocity":94,"startTime":73.043488,"endTime":73.4714771875,"instrument":5,"program":32},{"pitch":42,"velocity":94,"startTime":73.695662,"endTime":74.1236511875,"instrument":5,"program":32},{"pitch":45,"velocity":94,"startTime":74.347836,"endTime":74.7758251875,"instrument":5,"program":32},{"pitch":42,"velocity":94,"startTime":75.00000999999999,"endTime":75.42799918749999,"instrument":5,"program":32},{"pitch":38,"velocity":94,"startTime":75.65218399999999,"endTime":76.0801731875,"instrument":5,"program":32},{"pitch":42,"velocity":94,"startTime":76.304358,"endTime":76.7323471875,"instrument":5,"program":32},{"pitch":45,"velocity":94,"startTime":76.956532,"endTime":77.3845211875,"instrument":5,"program":32},{"pitch":42,"velocity":94,"startTime":77.60870600000001,"endTime":78.03669518750002,"instrument":5,"program":32},{"pitch":43,"velocity":94,"startTime":78.26088000000001,"endTime":78.6888691875,"instrument":5,"program":32},{"pitch":38,"velocity":94,"startTime":81.52175,"endTime":81.9497391875,"instrument":5,"program":32},{"pitch":43,"velocity":94,"startTime":82.173924,"endTime":82.6019131875,"instrument":5,"program":32},{"pitch":43,"velocity":94,"startTime":83.478272,"endTime":84.456533,"instrument":5,"program":32},{"pitch":41,"velocity":94,"startTime":84.78262,"endTime":85.78805491666665,"instrument":5,"program":32},{"pitch":40,"velocity":94,"startTime":86.086968,"endTime":87.06522900000002,"instrument":5,"program":32},{"pitch":39,"velocity":94,"startTime":87.391316,"endTime":87.93479433333334,"instrument":5,"program":32},{"pitch":38,"velocity":94,"startTime":88.04349,"endTime":88.57338137500001,"instrument":5,"program":32},{"pitch":43,"velocity":94,"startTime":88.69566400000001,"endTime":89.12365318750001,"instrument":5,"program":32},{"pitch":38,"velocity":94,"startTime":91.30436,"endTime":91.7323491875,"instrument":5,"program":32},{"pitch":42,"velocity":94,"startTime":91.956534,"endTime":92.38452318750001,"instrument":5,"program":32},{"pitch":45,"velocity":94,"startTime":92.60870800000001,"endTime":93.0366971875,"instrument":5,"program":32},{"pitch":42,"velocity":94,"startTime":93.260882,"endTime":93.6888711875,"instrument":5,"program":32},{"pitch":38,"velocity":94,"startTime":93.913056,"endTime":94.3410451875,"instrument":5,"program":32},{"pitch":42,"velocity":94,"startTime":94.56523,"endTime":94.9932191875,"instrument":5,"program":32},{"pitch":45,"velocity":94,"startTime":95.217404,"endTime":95.64539318749999,"instrument":5,"program":32},{"pitch":42,"velocity":94,"startTime":95.86957799999999,"endTime":96.2975671875,"instrument":5,"program":32},{"pitch":38,"velocity":94,"startTime":96.521752,"endTime":96.9497411875,"instrument":5,"program":32},{"pitch":42,"velocity":94,"startTime":97.17392600000001,"endTime":97.60191518750001,"instrument":5,"program":32},{"pitch":45,"velocity":94,"startTime":97.82610000000001,"endTime":98.25408918750001,"instrument":5,"program":32},{"pitch":42,"velocity":94,"startTime":98.47827400000001,"endTime":98.90626318750002,"instrument":5,"program":32},{"pitch":38,"velocity":94,"startTime":99.130448,"endTime":99.5584371875,"instrument":5,"program":32},{"pitch":42,"velocity":94,"startTime":99.782622,"endTime":100.2106111875,"instrument":5,"program":32},{"pitch":45,"velocity":94,"startTime":100.434796,"endTime":100.86278518750001,"instrument":5,"program":32},{"pitch":42,"velocity":94,"startTime":101.08697000000001,"endTime":101.51495918750001,"instrument":5,"program":32},{"pitch":43,"velocity":94,"startTime":101.73914400000001,"endTime":102.1671331875,"instrument":5,"program":32},{"pitch":38,"velocity":94,"startTime":102.391318,"endTime":102.8193071875,"instrument":5,"program":32},{"pitch":34,"velocity":94,"startTime":103.043492,"endTime":103.4714811875,"instrument":5,"program":32},{"pitch":38,"velocity":94,"startTime":103.695666,"endTime":104.1236551875,"instrument":5,"program":32},{"pitch":43,"velocity":94,"startTime":104.34784,"endTime":105.326101,"instrument":5,"program":32},{"pitch":41,"velocity":94,"startTime":105.652188,"endTime":106.64403595833335,"instrument":5,"program":32},{"pitch":40,"velocity":94,"startTime":106.956536,"endTime":107.94838395833334,"instrument":5,"program":32},{"pitch":39,"velocity":94,"startTime":108.260884,"endTime":108.76360145833335,"instrument":5,"program":32},{"pitch":38,"velocity":94,"startTime":108.913058,"endTime":109.45653633333335,"instrument":5,"program":32},{"pitch":43,"velocity":94,"startTime":109.56523200000001,"endTime":109.99322118750001,"instrument":5,"program":32},{"pitch":36,"velocity":94,"startTime":112.173928,"endTime":112.6019171875,"instrument":5,"program":32},{"pitch":39,"velocity":94,"startTime":112.826102,"endTime":113.25409118750001,"instrument":5,"program":32},{"pitch":43,"velocity":94,"startTime":113.47827600000001,"endTime":113.9062651875,"instrument":5,"program":32},{"pitch":39,"velocity":94,"startTime":114.13045,"endTime":114.5584391875,"instrument":5,"program":32},{"pitch":36,"velocity":94,"startTime":114.782624,"endTime":115.00001533333335,"instrument":5,"program":32},{"pitch":36,"velocity":94,"startTime":115.108711,"endTime":115.40762408333333,"instrument":5,"program":32},{"pitch":36,"velocity":94,"startTime":115.760885,"endTime":116.07338504166667,"instrument":5,"program":32},{"pitch":31,"velocity":94,"startTime":116.41305899999999,"endTime":116.698385125,"instrument":5,"program":32},{"pitch":36,"velocity":94,"startTime":116.73914599999999,"endTime":117.03805908333335,"instrument":5,"program":32},{"pitch":43,"velocity":94,"startTime":117.39132000000001,"endTime":117.595124375,"instrument":5,"program":32},{"pitch":43,"velocity":94,"startTime":117.71740700000001,"endTime":118.04349400000001,"instrument":5,"program":32},{"pitch":43,"velocity":94,"startTime":118.36958100000001,"endTime":118.83153758333334,"instrument":5,"program":32},{"pitch":38,"velocity":94,"startTime":119.02175500000001,"endTime":119.307081125,"instrument":5,"program":32},{"pitch":43,"velocity":94,"startTime":119.34784200000001,"endTime":119.66034204166667,"instrument":5,"program":32},{"pitch":38,"velocity":94,"startTime":120.000016,"endTime":121.20925529166666,"instrument":5,"program":32},{"pitch":38,"velocity":94,"startTime":123.260886,"endTime":123.81795129166666,"instrument":5,"program":32},{"pitch":43,"velocity":94,"startTime":123.91306,"endTime":124.22556004166667,"instrument":5,"program":32},{"pitch":38,"velocity":94,"startTime":125.217408,"endTime":125.6453971875,"instrument":5,"program":32},{"pitch":42,"velocity":94,"startTime":125.869582,"endTime":126.2975711875,"instrument":5,"program":32},{"pitch":45,"velocity":94,"startTime":126.521756,"endTime":126.9497451875,"instrument":5,"program":32},{"pitch":42,"velocity":94,"startTime":127.17393,"endTime":127.6019191875,"instrument":5,"program":32},{"pitch":38,"velocity":94,"startTime":127.826104,"endTime":128.2540931875,"instrument":5,"program":32},{"pitch":42,"velocity":94,"startTime":128.47827800000002,"endTime":128.90626718750002,"instrument":5,"program":32},{"pitch":45,"velocity":94,"startTime":129.13045200000002,"endTime":129.55844118750002,"instrument":5,"program":32},{"pitch":42,"velocity":94,"startTime":129.78262600000002,"endTime":130.2106151875,"instrument":5,"program":32},{"pitch":31,"velocity":94,"startTime":130.4348,"endTime":130.8627891875,"instrument":5,"program":32},{"pitch":34,"velocity":94,"startTime":131.086974,"endTime":131.5149631875,"instrument":5,"program":32},{"pitch":38,"velocity":94,"startTime":131.739148,"endTime":132.1671371875,"instrument":5,"program":32},{"pitch":34,"velocity":94,"startTime":132.391322,"endTime":132.8193111875,"instrument":5,"program":32},{"pitch":31,"velocity":94,"startTime":133.043496,"endTime":133.4714851875,"instrument":5,"program":32},{"pitch":34,"velocity":94,"startTime":133.69567,"endTime":134.1236591875,"instrument":5,"program":32},{"pitch":38,"velocity":94,"startTime":134.347844,"endTime":134.7758331875,"instrument":5,"program":32},{"pitch":34,"velocity":94,"startTime":135.000018,"endTime":135.4280071875,"instrument":5,"program":32},{"pitch":38,"velocity":94,"startTime":135.65219199999999,"endTime":136.0801811875,"instrument":5,"program":32},{"pitch":42,"velocity":94,"startTime":136.304366,"endTime":136.7323551875,"instrument":5,"program":32},{"pitch":45,"velocity":94,"startTime":136.95654,"endTime":137.3845291875,"instrument":5,"program":32},{"pitch":42,"velocity":94,"startTime":137.608714,"endTime":138.0367031875,"instrument":5,"program":32},{"pitch":38,"velocity":94,"startTime":138.26088800000002,"endTime":138.6888771875,"instrument":5,"program":32},{"pitch":42,"velocity":94,"startTime":138.91306200000002,"endTime":139.3410511875,"instrument":5,"program":32},{"pitch":45,"velocity":94,"startTime":139.565236,"endTime":139.9932251875,"instrument":5,"program":32},{"pitch":42,"velocity":94,"startTime":140.21741,"endTime":140.6453991875,"instrument":5,"program":32},{"pitch":31,"velocity":94,"startTime":140.869584,"endTime":141.2975731875,"instrument":5,"program":32},{"pitch":34,"velocity":94,"startTime":141.521758,"endTime":141.9497471875,"instrument":5,"program":32},{"pitch":38,"velocity":94,"startTime":142.173932,"endTime":142.6019211875,"instrument":5,"program":32},{"pitch":34,"velocity":94,"startTime":142.826106,"endTime":143.2540951875,"instrument":5,"program":32},{"pitch":31,"velocity":94,"startTime":143.47828,"endTime":143.90626918750002,"instrument":5,"program":32},{"pitch":34,"velocity":94,"startTime":144.13045400000001,"endTime":144.5584431875,"instrument":5,"program":32},{"pitch":38,"velocity":94,"startTime":144.782628,"endTime":145.2106171875,"instrument":5,"program":32},{"pitch":34,"velocity":94,"startTime":145.434802,"endTime":145.8627911875,"instrument":5,"program":32},{"pitch":36,"velocity":94,"startTime":146.086976,"endTime":146.5149651875,"instrument":5,"program":32},{"pitch":39,"velocity":94,"startTime":146.73915,"endTime":147.1671391875,"instrument":5,"program":32},{"pitch":43,"velocity":94,"startTime":147.391324,"endTime":147.8193131875,"instrument":5,"program":32},{"pitch":39,"velocity":94,"startTime":148.043498,"endTime":148.4714871875,"instrument":5,"program":32},{"pitch":36,"velocity":94,"startTime":148.695672,"endTime":149.1236611875,"instrument":5,"program":32},{"pitch":39,"velocity":94,"startTime":149.347846,"endTime":149.7758351875,"instrument":5,"program":32},{"pitch":43,"velocity":94,"startTime":150.00002,"endTime":150.4280091875,"instrument":5,"program":32},{"pitch":39,"velocity":94,"startTime":150.652194,"endTime":151.0801831875,"instrument":5,"program":32},{"pitch":31,"velocity":94,"startTime":151.304368,"endTime":151.7323571875,"instrument":5,"program":32},{"pitch":34,"velocity":94,"startTime":151.956542,"endTime":152.38453118750002,"instrument":5,"program":32},{"pitch":38,"velocity":94,"startTime":152.60871600000002,"endTime":153.03670518750002,"instrument":5,"program":32},{"pitch":34,"velocity":94,"startTime":153.26089000000002,"endTime":153.6888791875,"instrument":5,"program":32},{"pitch":31,"velocity":94,"startTime":153.913064,"endTime":154.3410531875,"instrument":5,"program":32},{"pitch":34,"velocity":94,"startTime":154.565238,"endTime":154.9932271875,"instrument":5,"program":32},{"pitch":38,"velocity":94,"startTime":155.217412,"endTime":155.6454011875,"instrument":5,"program":32},{"pitch":34,"velocity":94,"startTime":155.869586,"endTime":156.2975751875,"instrument":5,"program":32},{"pitch":38,"velocity":94,"startTime":156.52176,"endTime":156.9497491875,"instrument":5,"program":32},{"pitch":42,"velocity":94,"startTime":157.173934,"endTime":157.6019231875,"instrument":5,"program":32},{"pitch":45,"velocity":94,"startTime":157.826108,"endTime":158.2540971875,"instrument":5,"program":32},{"pitch":42,"velocity":94,"startTime":158.478282,"endTime":158.90627118749998,"instrument":5,"program":32},{"pitch":38,"velocity":94,"startTime":159.130456,"endTime":159.55844518749998,"instrument":5,"program":32},{"pitch":42,"velocity":94,"startTime":159.78263,"endTime":160.2106191875,"instrument":5,"program":32},{"pitch":45,"velocity":94,"startTime":160.434804,"endTime":160.8627931875,"instrument":5,"program":32},{"pitch":42,"velocity":94,"startTime":161.08697800000002,"endTime":161.5149671875,"instrument":5,"program":32},{"pitch":43,"velocity":94,"startTime":161.73915200000002,"endTime":162.1671411875,"instrument":5,"program":32},{"pitch":38,"velocity":94,"startTime":165.000022,"endTime":165.42801118750003,"instrument":5,"program":32},{"pitch":43,"velocity":94,"startTime":165.652196,"endTime":166.0801851875,"instrument":5,"program":32},{"pitch":43,"velocity":94,"startTime":166.956544,"endTime":167.14676141666666,"instrument":5,"program":32},{"pitch":42,"velocity":94,"startTime":167.282631,"endTime":167.52719625,"instrument":5,"program":32},{"pitch":43,"velocity":94,"startTime":167.608718,"endTime":167.812522375,"instrument":5,"program":32},{"pitch":45,"velocity":94,"startTime":167.934805,"endTime":168.19295720833335,"instrument":5,"program":32},{"pitch":46,"velocity":94,"startTime":168.586979,"endTime":169.15763124999998,"instrument":5,"program":32},{"pitch":45,"velocity":94,"startTime":169.23915300000002,"endTime":169.5516530416667,"instrument":5,"program":32},{"pitch":43,"velocity":94,"startTime":169.56524,"endTime":169.86415308333332,"instrument":5,"program":32},{"pitch":39,"velocity":94,"startTime":172.173936,"endTime":172.377740375,"instrument":5,"program":32},{"pitch":38,"velocity":94,"startTime":172.500023,"endTime":172.69703389583333,"instrument":5,"program":32},{"pitch":39,"velocity":94,"startTime":172.82611,"endTime":172.9959469791667,"instrument":5,"program":32},{"pitch":41,"velocity":94,"startTime":173.152197,"endTime":173.43752312499998,"instrument":5,"program":32},{"pitch":43,"velocity":94,"startTime":173.804371,"endTime":174.37502325000003,"instrument":5,"program":32},{"pitch":39,"velocity":94,"startTime":174.456545,"endTime":174.741871125,"instrument":5,"program":32},{"pitch":38,"velocity":94,"startTime":174.78263199999998,"endTime":175.02719725000003,"instrument":5,"program":32},{"pitch":43,"velocity":94,"startTime":177.39132800000002,"endTime":177.6087193333333,"instrument":5,"program":32},{"pitch":42,"velocity":94,"startTime":177.717415,"endTime":177.9483932916667,"instrument":5,"program":32},{"pitch":43,"velocity":94,"startTime":178.04350200000002,"endTime":178.24730637500002,"instrument":5,"program":32},{"pitch":45,"velocity":94,"startTime":178.369589,"endTime":178.68208904166667,"instrument":5,"program":32},{"pitch":46,"velocity":94,"startTime":179.021763,"endTime":179.56524133333332,"instrument":5,"program":32},{"pitch":45,"velocity":94,"startTime":179.673937,"endTime":179.9456761666667,"instrument":5,"program":32},{"pitch":43,"velocity":94,"startTime":180.00002400000002,"endTime":180.1766544583333,"instrument":5,"program":32},{"pitch":39,"velocity":94,"startTime":182.60872,"endTime":182.7853504583333,"instrument":5,"program":32},{"pitch":38,"velocity":94,"startTime":182.93480699999998,"endTime":183.1250244166667,"instrument":5,"program":32},{"pitch":39,"velocity":94,"startTime":183.260894,"endTime":183.42393750000002,"instrument":5,"program":32},{"pitch":41,"velocity":94,"startTime":183.58698099999998,"endTime":183.89948104166666,"instrument":5,"program":32},{"pitch":43,"velocity":94,"startTime":184.23915499999998,"endTime":184.8030137708333,"instrument":5,"program":32},{"pitch":39,"velocity":94,"startTime":184.89132899999998,"endTime":185.13589425,"instrument":5,"program":32},{"pitch":38,"velocity":94,"startTime":185.21741600000001,"endTime":185.584263875,"instrument":5,"program":32},{"pitch":43,"velocity":94,"startTime":187.826112,"endTime":188.24730770833332,"instrument":5,"program":32},{"pitch":38,"velocity":94,"startTime":190.434808,"endTime":190.9103515416667,"instrument":5,"program":32},{"pitch":38,"velocity":94,"startTime":191.73915599999998,"endTime":192.22828650000002,"instrument":5,"program":32},{"pitch":38,"velocity":94,"startTime":193.04350399999998,"endTime":193.53263450000003,"instrument":5,"program":32},{"pitch":38,"velocity":94,"startTime":194.347852,"endTime":194.8369825,"instrument":5,"program":32},{"pitch":43,"velocity":94,"startTime":195.65220000000002,"endTime":196.1413305,"instrument":5,"program":32},{"pitch":43,"velocity":94,"startTime":196.95654800000003,"endTime":197.4456785,"instrument":5,"program":32},{"pitch":43,"velocity":94,"startTime":198.260896,"endTime":198.75002650000002,"instrument":5,"program":32},{"pitch":43,"velocity":94,"startTime":199.565244,"endTime":200.0543745,"instrument":5,"program":32},{"pitch":38,"velocity":94,"startTime":200.869592,"endTime":201.3587225,"instrument":5,"program":32},{"pitch":38,"velocity":94,"startTime":202.17394000000002,"endTime":202.6630705,"instrument":5,"program":32},{"pitch":38,"velocity":94,"startTime":203.47828800000002,"endTime":203.9674185,"instrument":5,"program":32},{"pitch":38,"velocity":94,"startTime":204.782636,"endTime":205.27176649999998,"instrument":5,"program":32},{"pitch":43,"velocity":94,"startTime":206.086984,"endTime":206.44024491666667,"instrument":5,"program":32},{"pitch":38,"velocity":94,"startTime":206.739158,"endTime":207.2282885,"instrument":5,"program":32},{"pitch":43,"velocity":94,"startTime":207.391332,"endTime":207.77176683333332,"instrument":5,"program":32},{"pitch":38,"velocity":94,"startTime":208.69568,"endTime":209.1236691875,"instrument":5,"program":32},{"pitch":42,"velocity":94,"startTime":209.34785399999998,"endTime":209.77584318750002,"instrument":5,"program":32},{"pitch":45,"velocity":94,"startTime":210.000028,"endTime":210.42801718750002,"instrument":5,"program":32},{"pitch":42,"velocity":94,"startTime":210.652202,"endTime":211.08019118750002,"instrument":5,"program":32},{"pitch":38,"velocity":94,"startTime":211.304376,"endTime":211.73236518750002,"instrument":5,"program":32},{"pitch":42,"velocity":94,"startTime":211.95655,"endTime":212.38453918750002,"instrument":5,"program":32},{"pitch":45,"velocity":94,"startTime":212.608724,"endTime":213.0367131875,"instrument":5,"program":32},{"pitch":42,"velocity":94,"startTime":213.260898,"endTime":213.6888871875,"instrument":5,"program":32},{"pitch":31,"velocity":94,"startTime":213.913072,"endTime":214.3410611875,"instrument":5,"program":32},{"pitch":34,"velocity":94,"startTime":214.565246,"endTime":214.9932351875,"instrument":5,"program":32},{"pitch":38,"velocity":94,"startTime":215.21741999999998,"endTime":215.6454091875,"instrument":5,"program":32},{"pitch":34,"velocity":94,"startTime":215.86959399999998,"endTime":216.2975831875,"instrument":5,"program":32},{"pitch":31,"velocity":94,"startTime":216.52176799999998,"endTime":216.9497571875,"instrument":5,"program":32},{"pitch":34,"velocity":94,"startTime":217.173942,"endTime":217.6019311875,"instrument":5,"program":32},{"pitch":38,"velocity":94,"startTime":217.826116,"endTime":218.2541051875,"instrument":5,"program":32},{"pitch":34,"velocity":94,"startTime":218.47829000000002,"endTime":218.9062791875,"instrument":5,"program":32},{"pitch":38,"velocity":94,"startTime":219.13046400000002,"endTime":219.5584531875,"instrument":5,"program":32},{"pitch":42,"velocity":94,"startTime":219.78263800000002,"endTime":220.2106271875,"instrument":5,"program":32},{"pitch":45,"velocity":94,"startTime":220.43481200000002,"endTime":220.8628011875,"instrument":5,"program":32},{"pitch":42,"velocity":94,"startTime":221.08698600000002,"endTime":221.5149751875,"instrument":5,"program":32},{"pitch":38,"velocity":94,"startTime":221.73916,"endTime":222.1671491875,"instrument":5,"program":32},{"pitch":42,"velocity":94,"startTime":222.391334,"endTime":222.8193231875,"instrument":5,"program":32},{"pitch":45,"velocity":94,"startTime":223.043508,"endTime":223.4714971875,"instrument":5,"program":32},{"pitch":42,"velocity":94,"startTime":223.695682,"endTime":224.12367118749998,"instrument":5,"program":32},{"pitch":31,"velocity":94,"startTime":224.347856,"endTime":224.77584518749998,"instrument":5,"program":32},{"pitch":34,"velocity":94,"startTime":225.00003,"endTime":225.42801918749998,"instrument":5,"program":32},{"pitch":38,"velocity":94,"startTime":225.652204,"endTime":226.0801931875,"instrument":5,"program":32},{"pitch":34,"velocity":94,"startTime":226.304378,"endTime":226.7323671875,"instrument":5,"program":32},{"pitch":31,"velocity":94,"startTime":226.95655200000002,"endTime":227.3845411875,"instrument":5,"program":32},{"pitch":34,"velocity":94,"startTime":227.608726,"endTime":228.03671518750002,"instrument":5,"program":32},{"pitch":38,"velocity":94,"startTime":228.2609,"endTime":228.68888918750002,"instrument":5,"program":32},{"pitch":34,"velocity":94,"startTime":228.913074,"endTime":229.34106318750003,"instrument":5,"program":32},{"pitch":36,"velocity":94,"startTime":229.565248,"endTime":229.99323718750003,"instrument":5,"program":32},{"pitch":39,"velocity":94,"startTime":230.217422,"endTime":230.6454111875,"instrument":5,"program":32},{"pitch":43,"velocity":94,"startTime":230.869596,"endTime":231.2975851875,"instrument":5,"program":32},{"pitch":39,"velocity":94,"startTime":231.52177,"endTime":231.9497591875,"instrument":5,"program":32},{"pitch":36,"velocity":94,"startTime":232.173944,"endTime":232.6019331875,"instrument":5,"program":32},{"pitch":39,"velocity":94,"startTime":232.82611799999998,"endTime":233.2541071875,"instrument":5,"program":32},{"pitch":43,"velocity":94,"startTime":233.47829199999998,"endTime":233.9062811875,"instrument":5,"program":32},{"pitch":39,"velocity":94,"startTime":234.13046599999998,"endTime":234.55845518750002,"instrument":5,"program":32},{"pitch":31,"velocity":94,"startTime":234.78264,"endTime":235.21062918750002,"instrument":5,"program":32},{"pitch":34,"velocity":94,"startTime":235.434814,"endTime":235.86280318750002,"instrument":5,"program":32},{"pitch":38,"velocity":94,"startTime":236.086988,"endTime":236.5149771875,"instrument":5,"program":32},{"pitch":34,"velocity":94,"startTime":236.739162,"endTime":237.1671511875,"instrument":5,"program":32},{"pitch":31,"velocity":94,"startTime":237.39133600000002,"endTime":237.8193251875,"instrument":5,"program":32},{"pitch":34,"velocity":94,"startTime":238.04351000000003,"endTime":238.4714991875,"instrument":5,"program":32},{"pitch":38,"velocity":94,"startTime":238.69568400000003,"endTime":239.1236731875,"instrument":5,"program":32},{"pitch":34,"velocity":94,"startTime":239.34785800000003,"endTime":239.7758471875,"instrument":5,"program":32},{"pitch":38,"velocity":94,"startTime":240.000032,"endTime":240.4280211875,"instrument":5,"program":32},{"pitch":42,"velocity":94,"startTime":240.652206,"endTime":241.0801951875,"instrument":5,"program":32},{"pitch":45,"velocity":94,"startTime":241.30438,"endTime":241.73236918749998,"instrument":5,"program":32},{"pitch":42,"velocity":94,"startTime":241.956554,"endTime":242.3845431875,"instrument":5,"program":32},{"pitch":38,"velocity":94,"startTime":242.608728,"endTime":243.0367171875,"instrument":5,"program":32},{"pitch":42,"velocity":94,"startTime":243.26090200000002,"endTime":243.6888911875,"instrument":5,"program":32},{"pitch":45,"velocity":94,"startTime":243.91307600000002,"endTime":244.3410651875,"instrument":5,"program":32},{"pitch":42,"velocity":94,"startTime":244.56525000000002,"endTime":244.9932391875,"instrument":5,"program":32},{"pitch":43,"velocity":94,"startTime":245.217424,"endTime":245.6454131875,"instrument":5,"program":32},{"pitch":38,"velocity":94,"startTime":248.478294,"endTime":248.9062831875,"instrument":5,"program":32},{"pitch":43,"velocity":94,"startTime":249.130468,"endTime":249.5584571875,"instrument":5,"program":32},{"pitch":62,"velocity":76,"endTime":0.1358695833333331,"instrument":6,"program":24},{"pitch":66,"velocity":76,"endTime":0.1358695833333331,"instrument":6,"program":24},{"pitch":69,"velocity":76,"endTime":0.1358695833333331,"instrument":6,"program":24},{"pitch":72,"velocity":76,"endTime":0.1358695833333331,"instrument":6,"program":24},{"pitch":62,"velocity":76,"startTime":0.652174,"endTime":0.7880435833333331,"instrument":6,"program":24},{"pitch":66,"velocity":76,"startTime":0.652174,"endTime":0.7880435833333331,"instrument":6,"program":24},{"pitch":69,"velocity":76,"startTime":0.652174,"endTime":0.7880435833333331,"instrument":6,"program":24},{"pitch":72,"velocity":76,"startTime":0.652174,"endTime":0.7880435833333331,"instrument":6,"program":24},{"pitch":62,"velocity":76,"startTime":1.304348,"endTime":1.440217583333333,"instrument":6,"program":24},{"pitch":66,"velocity":76,"startTime":1.304348,"endTime":1.440217583333333,"instrument":6,"program":24},{"pitch":69,"velocity":76,"startTime":1.304348,"endTime":1.440217583333333,"instrument":6,"program":24},{"pitch":72,"velocity":76,"startTime":1.304348,"endTime":1.440217583333333,"instrument":6,"program":24},{"pitch":62,"velocity":76,"startTime":1.956522,"endTime":2.0923915833333333,"instrument":6,"program":24},{"pitch":66,"velocity":76,"startTime":1.956522,"endTime":2.0923915833333333,"instrument":6,"program":24},{"pitch":69,"velocity":76,"startTime":1.956522,"endTime":2.0923915833333333,"instrument":6,"program":24},{"pitch":72,"velocity":76,"startTime":1.956522,"endTime":2.0923915833333333,"instrument":6,"program":24},{"pitch":62,"velocity":76,"startTime":2.282609,"endTime":2.724185145833334,"instrument":6,"program":24},{"pitch":66,"velocity":76,"startTime":2.282609,"endTime":2.724185145833334,"instrument":6,"program":24},{"pitch":69,"velocity":76,"startTime":2.282609,"endTime":2.724185145833334,"instrument":6,"program":24},{"pitch":72,"velocity":76,"startTime":2.282609,"endTime":2.724185145833334,"instrument":6,"program":24},{"pitch":62,"velocity":76,"startTime":3.26087,"endTime":3.3967395833333343,"instrument":6,"program":24},{"pitch":66,"velocity":76,"startTime":3.26087,"endTime":3.3967395833333343,"instrument":6,"program":24},{"pitch":69,"velocity":76,"startTime":3.26087,"endTime":3.3967395833333343,"instrument":6,"program":24},{"pitch":72,"velocity":76,"startTime":3.26087,"endTime":3.3967395833333343,"instrument":6,"program":24},{"pitch":62,"velocity":76,"startTime":3.913044,"endTime":4.048913583333334,"instrument":6,"program":24},{"pitch":66,"velocity":76,"startTime":3.913044,"endTime":4.048913583333334,"instrument":6,"program":24},{"pitch":69,"velocity":76,"startTime":3.913044,"endTime":4.048913583333334,"instrument":6,"program":24},{"pitch":72,"velocity":76,"startTime":3.913044,"endTime":4.048913583333334,"instrument":6,"program":24},{"pitch":62,"velocity":76,"startTime":4.565218,"endTime":4.701087583333334,"instrument":6,"program":24},{"pitch":66,"velocity":76,"startTime":4.565218,"endTime":4.701087583333334,"instrument":6,"program":24},{"pitch":69,"velocity":76,"startTime":4.565218,"endTime":4.701087583333334,"instrument":6,"program":24},{"pitch":72,"velocity":76,"startTime":4.565218,"endTime":4.701087583333334,"instrument":6,"program":24},{"pitch":62,"velocity":76,"startTime":4.891305000000001,"endTime":5.332881145833334,"instrument":6,"program":24},{"pitch":67,"velocity":76,"startTime":4.891305000000001,"endTime":5.332881145833334,"instrument":6,"program":24},{"pitch":70,"velocity":76,"startTime":4.891305000000001,"endTime":5.332881145833334,"instrument":6,"program":24},{"pitch":62,"velocity":76,"startTime":5.869566,"endTime":6.005435583333334,"instrument":6,"program":24},{"pitch":67,"velocity":76,"startTime":5.869566,"endTime":6.005435583333334,"instrument":6,"program":24},{"pitch":70,"velocity":76,"startTime":5.869566,"endTime":6.005435583333334,"instrument":6,"program":24},{"pitch":62,"velocity":76,"startTime":6.52174,"endTime":6.657609583333334,"instrument":6,"program":24},{"pitch":67,"velocity":76,"startTime":6.52174,"endTime":6.657609583333334,"instrument":6,"program":24},{"pitch":70,"velocity":76,"startTime":6.52174,"endTime":6.657609583333334,"instrument":6,"program":24},{"pitch":62,"velocity":76,"startTime":7.173914,"endTime":7.309783583333334,"instrument":6,"program":24},{"pitch":67,"velocity":76,"startTime":7.173914,"endTime":7.309783583333334,"instrument":6,"program":24},{"pitch":70,"velocity":76,"startTime":7.173914,"endTime":7.309783583333334,"instrument":6,"program":24},{"pitch":62,"velocity":76,"startTime":7.500001,"endTime":7.941577145833332,"instrument":6,"program":24},{"pitch":67,"velocity":76,"startTime":7.500001,"endTime":7.941577145833332,"instrument":6,"program":24},{"pitch":70,"velocity":76,"startTime":7.500001,"endTime":7.941577145833332,"instrument":6,"program":24},{"pitch":62,"velocity":76,"startTime":8.478261999999999,"endTime":8.614131583333332,"instrument":6,"program":24},{"pitch":67,"velocity":76,"startTime":8.478261999999999,"endTime":8.614131583333332,"instrument":6,"program":24},{"pitch":70,"velocity":76,"startTime":8.478261999999999,"endTime":8.614131583333332,"instrument":6,"program":24},{"pitch":62,"velocity":76,"startTime":9.130436,"endTime":9.266305583333333,"instrument":6,"program":24},{"pitch":67,"velocity":76,"startTime":9.130436,"endTime":9.266305583333333,"instrument":6,"program":24},{"pitch":70,"velocity":76,"startTime":9.130436,"endTime":9.266305583333333,"instrument":6,"program":24},{"pitch":62,"velocity":76,"startTime":9.782610000000002,"endTime":9.918479583333331,"instrument":6,"program":24},{"pitch":67,"velocity":76,"startTime":9.782610000000002,"endTime":9.918479583333331,"instrument":6,"program":24},{"pitch":70,"velocity":76,"startTime":9.782610000000002,"endTime":9.918479583333331,"instrument":6,"program":24},{"pitch":62,"velocity":76,"startTime":10.108697000000001,"endTime":10.550273145833332,"instrument":6,"program":24},{"pitch":66,"velocity":76,"startTime":10.108697000000001,"endTime":10.550273145833332,"instrument":6,"program":24},{"pitch":69,"velocity":76,"startTime":10.108697000000001,"endTime":10.550273145833332,"instrument":6,"program":24},{"pitch":72,"velocity":76,"startTime":10.108697000000001,"endTime":10.550273145833332,"instrument":6,"program":24},{"pitch":62,"velocity":76,"startTime":11.086958,"endTime":11.222827583333332,"instrument":6,"program":24},{"pitch":66,"velocity":76,"startTime":11.086958,"endTime":11.222827583333332,"instrument":6,"program":24},{"pitch":69,"velocity":76,"startTime":11.086958,"endTime":11.222827583333332,"instrument":6,"program":24},{"pitch":72,"velocity":76,"startTime":11.086958,"endTime":11.222827583333332,"instrument":6,"program":24},{"pitch":62,"velocity":76,"startTime":11.739132,"endTime":11.875001583333333,"instrument":6,"program":24},{"pitch":66,"velocity":76,"startTime":11.739132,"endTime":11.875001583333333,"instrument":6,"program":24},{"pitch":69,"velocity":76,"startTime":11.739132,"endTime":11.875001583333333,"instrument":6,"program":24},{"pitch":72,"velocity":76,"startTime":11.739132,"endTime":11.875001583333333,"instrument":6,"program":24},{"pitch":62,"velocity":76,"startTime":12.391306,"endTime":12.527175583333332,"instrument":6,"program":24},{"pitch":66,"velocity":76,"startTime":12.391306,"endTime":12.527175583333332,"instrument":6,"program":24},{"pitch":69,"velocity":76,"startTime":12.391306,"endTime":12.527175583333332,"instrument":6,"program":24},{"pitch":72,"velocity":76,"startTime":12.391306,"endTime":12.527175583333332,"instrument":6,"program":24},{"pitch":62,"velocity":76,"startTime":12.717393000000001,"endTime":13.158969145833332,"instrument":6,"program":24},{"pitch":66,"velocity":76,"startTime":12.717393000000001,"endTime":13.158969145833332,"instrument":6,"program":24},{"pitch":69,"velocity":76,"startTime":12.717393000000001,"endTime":13.158969145833332,"instrument":6,"program":24},{"pitch":72,"velocity":76,"startTime":12.717393000000001,"endTime":13.158969145833332,"instrument":6,"program":24},{"pitch":62,"velocity":76,"startTime":13.695654,"endTime":13.831523583333333,"instrument":6,"program":24},{"pitch":66,"velocity":76,"startTime":13.695654,"endTime":13.831523583333333,"instrument":6,"program":24},{"pitch":69,"velocity":76,"startTime":13.695654,"endTime":13.831523583333333,"instrument":6,"program":24},{"pitch":72,"velocity":76,"startTime":13.695654,"endTime":13.831523583333333,"instrument":6,"program":24},{"pitch":62,"velocity":76,"startTime":14.347828,"endTime":14.483697583333333,"instrument":6,"program":24},{"pitch":66,"velocity":76,"startTime":14.347828,"endTime":14.483697583333333,"instrument":6,"program":24},{"pitch":69,"velocity":76,"startTime":14.347828,"endTime":14.483697583333333,"instrument":6,"program":24},{"pitch":72,"velocity":76,"startTime":14.347828,"endTime":14.483697583333333,"instrument":6,"program":24},{"pitch":62,"velocity":76,"startTime":15.000002,"endTime":15.135871583333332,"instrument":6,"program":24},{"pitch":66,"velocity":76,"startTime":15.000002,"endTime":15.135871583333332,"instrument":6,"program":24},{"pitch":69,"velocity":76,"startTime":15.000002,"endTime":15.135871583333332,"instrument":6,"program":24},{"pitch":72,"velocity":76,"startTime":15.000002,"endTime":15.135871583333332,"instrument":6,"program":24},{"pitch":62,"velocity":76,"startTime":15.326089,"endTime":15.767665145833332,"instrument":6,"program":24},{"pitch":67,"velocity":76,"startTime":15.326089,"endTime":15.767665145833332,"instrument":6,"program":24},{"pitch":70,"velocity":76,"startTime":15.326089,"endTime":15.767665145833332,"instrument":6,"program":24},{"pitch":62,"velocity":76,"startTime":16.30435,"endTime":16.44021958333333,"instrument":6,"program":24},{"pitch":67,"velocity":76,"startTime":16.30435,"endTime":16.44021958333333,"instrument":6,"program":24},{"pitch":70,"velocity":76,"startTime":16.30435,"endTime":16.44021958333333,"instrument":6,"program":24},{"pitch":62,"velocity":76,"startTime":16.956523999999998,"endTime":17.092393583333333,"instrument":6,"program":24},{"pitch":67,"velocity":76,"startTime":16.956523999999998,"endTime":17.092393583333333,"instrument":6,"program":24},{"pitch":70,"velocity":76,"startTime":16.956523999999998,"endTime":17.092393583333333,"instrument":6,"program":24},{"pitch":62,"velocity":76,"startTime":17.608698,"endTime":17.744567583333335,"instrument":6,"program":24},{"pitch":67,"velocity":76,"startTime":17.608698,"endTime":17.744567583333335,"instrument":6,"program":24},{"pitch":70,"velocity":76,"startTime":17.608698,"endTime":17.744567583333335,"instrument":6,"program":24},{"pitch":62,"velocity":76,"startTime":17.934785,"endTime":18.376361145833336,"instrument":6,"program":24},{"pitch":67,"velocity":76,"startTime":17.934785,"endTime":18.376361145833336,"instrument":6,"program":24},{"pitch":70,"velocity":76,"startTime":17.934785,"endTime":18.376361145833336,"instrument":6,"program":24},{"pitch":62,"velocity":76,"startTime":18.913045999999998,"endTime":19.048915583333336,"instrument":6,"program":24},{"pitch":67,"velocity":76,"startTime":18.913045999999998,"endTime":19.048915583333336,"instrument":6,"program":24},{"pitch":70,"velocity":76,"startTime":18.913045999999998,"endTime":19.048915583333336,"instrument":6,"program":24},{"pitch":62,"velocity":76,"startTime":19.565219999999997,"endTime":19.701089583333335,"instrument":6,"program":24},{"pitch":67,"velocity":76,"startTime":19.565219999999997,"endTime":19.701089583333335,"instrument":6,"program":24},{"pitch":70,"velocity":76,"startTime":19.565219999999997,"endTime":19.701089583333335,"instrument":6,"program":24},{"pitch":62,"velocity":76,"startTime":20.217394000000002,"endTime":20.353263583333334,"instrument":6,"program":24},{"pitch":67,"velocity":76,"startTime":20.217394000000002,"endTime":20.353263583333334,"instrument":6,"program":24},{"pitch":70,"velocity":76,"startTime":20.217394000000002,"endTime":20.353263583333334,"instrument":6,"program":24},{"pitch":63,"velocity":76,"startTime":20.543481,"endTime":20.985057145833338,"instrument":6,"program":24},{"pitch":67,"velocity":76,"startTime":20.543481,"endTime":20.985057145833338,"instrument":6,"program":24},{"pitch":72,"velocity":76,"startTime":20.543481,"endTime":20.985057145833338,"instrument":6,"program":24},{"pitch":63,"velocity":76,"startTime":21.521742,"endTime":21.657611583333335,"instrument":6,"program":24},{"pitch":67,"velocity":76,"startTime":21.521742,"endTime":21.657611583333335,"instrument":6,"program":24},{"pitch":72,"velocity":76,"startTime":21.521742,"endTime":21.657611583333335,"instrument":6,"program":24},{"pitch":63,"velocity":76,"startTime":22.173916000000002,"endTime":22.309785583333333,"instrument":6,"program":24},{"pitch":67,"velocity":76,"startTime":22.173916000000002,"endTime":22.309785583333333,"instrument":6,"program":24},{"pitch":72,"velocity":76,"startTime":22.173916000000002,"endTime":22.309785583333333,"instrument":6,"program":24},{"pitch":63,"velocity":76,"startTime":22.82609,"endTime":22.961959583333336,"instrument":6,"program":24},{"pitch":67,"velocity":76,"startTime":22.82609,"endTime":22.961959583333336,"instrument":6,"program":24},{"pitch":72,"velocity":76,"startTime":22.82609,"endTime":22.961959583333336,"instrument":6,"program":24},{"pitch":63,"velocity":76,"startTime":23.152177000000002,"endTime":23.593753145833336,"instrument":6,"program":24},{"pitch":67,"velocity":76,"startTime":23.152177000000002,"endTime":23.593753145833336,"instrument":6,"program":24},{"pitch":72,"velocity":76,"startTime":23.152177000000002,"endTime":23.593753145833336,"instrument":6,"program":24},{"pitch":63,"velocity":76,"startTime":24.130437999999998,"endTime":24.266307583333337,"instrument":6,"program":24},{"pitch":67,"velocity":76,"startTime":24.130437999999998,"endTime":24.266307583333337,"instrument":6,"program":24},{"pitch":72,"velocity":76,"startTime":24.130437999999998,"endTime":24.266307583333337,"instrument":6,"program":24},{"pitch":63,"velocity":76,"startTime":24.782611999999997,"endTime":24.918481583333335,"instrument":6,"program":24},{"pitch":67,"velocity":76,"startTime":24.782611999999997,"endTime":24.918481583333335,"instrument":6,"program":24},{"pitch":72,"velocity":76,"startTime":24.782611999999997,"endTime":24.918481583333335,"instrument":6,"program":24},{"pitch":63,"velocity":76,"startTime":25.434786000000003,"endTime":25.570655583333334,"instrument":6,"program":24},{"pitch":67,"velocity":76,"startTime":25.434786000000003,"endTime":25.570655583333334,"instrument":6,"program":24},{"pitch":72,"velocity":76,"startTime":25.434786000000003,"endTime":25.570655583333334,"instrument":6,"program":24},{"pitch":62,"velocity":76,"startTime":25.760873,"endTime":26.202449145833338,"instrument":6,"program":24},{"pitch":67,"velocity":76,"startTime":25.760873,"endTime":26.202449145833338,"instrument":6,"program":24},{"pitch":70,"velocity":76,"startTime":25.760873,"endTime":26.202449145833338,"instrument":6,"program":24},{"pitch":62,"velocity":76,"startTime":26.739134,"endTime":26.875003583333335,"instrument":6,"program":24},{"pitch":67,"velocity":76,"startTime":26.739134,"endTime":26.875003583333335,"instrument":6,"program":24},{"pitch":70,"velocity":76,"startTime":26.739134,"endTime":26.875003583333335,"instrument":6,"program":24},{"pitch":62,"velocity":76,"startTime":27.391308000000002,"endTime":27.527177583333334,"instrument":6,"program":24},{"pitch":67,"velocity":76,"startTime":27.391308000000002,"endTime":27.527177583333334,"instrument":6,"program":24},{"pitch":70,"velocity":76,"startTime":27.391308000000002,"endTime":27.527177583333334,"instrument":6,"program":24},{"pitch":62,"velocity":76,"startTime":28.043482,"endTime":28.179351583333332,"instrument":6,"program":24},{"pitch":67,"velocity":76,"startTime":28.043482,"endTime":28.179351583333332,"instrument":6,"program":24},{"pitch":70,"velocity":76,"startTime":28.043482,"endTime":28.179351583333332,"instrument":6,"program":24},{"pitch":62,"velocity":76,"startTime":28.369569000000002,"endTime":28.811145145833336,"instrument":6,"program":24},{"pitch":67,"velocity":76,"startTime":28.369569000000002,"endTime":28.811145145833336,"instrument":6,"program":24},{"pitch":70,"velocity":76,"startTime":28.369569000000002,"endTime":28.811145145833336,"instrument":6,"program":24},{"pitch":62,"velocity":76,"startTime":29.34783,"endTime":29.483699583333337,"instrument":6,"program":24},{"pitch":67,"velocity":76,"startTime":29.34783,"endTime":29.483699583333337,"instrument":6,"program":24},{"pitch":70,"velocity":76,"startTime":29.34783,"endTime":29.483699583333337,"instrument":6,"program":24},{"pitch":62,"velocity":76,"startTime":30.000003999999997,"endTime":30.135873583333336,"instrument":6,"program":24},{"pitch":67,"velocity":76,"startTime":30.000003999999997,"endTime":30.135873583333336,"instrument":6,"program":24},{"pitch":70,"velocity":76,"startTime":30.000003999999997,"endTime":30.135873583333336,"instrument":6,"program":24},{"pitch":62,"velocity":76,"startTime":30.652178,"endTime":30.788047583333334,"instrument":6,"program":24},{"pitch":67,"velocity":76,"startTime":30.652178,"endTime":30.788047583333334,"instrument":6,"program":24},{"pitch":70,"velocity":76,"startTime":30.652178,"endTime":30.788047583333334,"instrument":6,"program":24},{"pitch":62,"velocity":76,"startTime":30.978265,"endTime":31.419841145833335,"instrument":6,"program":24},{"pitch":66,"velocity":76,"startTime":30.978265,"endTime":31.419841145833335,"instrument":6,"program":24},{"pitch":69,"velocity":76,"startTime":30.978265,"endTime":31.419841145833335,"instrument":6,"program":24},{"pitch":72,"velocity":76,"startTime":30.978265,"endTime":31.419841145833335,"instrument":6,"program":24},{"pitch":62,"velocity":76,"startTime":31.956526,"endTime":32.092395583333335,"instrument":6,"program":24},{"pitch":66,"velocity":76,"startTime":31.956526,"endTime":32.092395583333335,"instrument":6,"program":24},{"pitch":69,"velocity":76,"startTime":31.956526,"endTime":32.092395583333335,"instrument":6,"program":24},{"pitch":72,"velocity":76,"startTime":31.956526,"endTime":32.092395583333335,"instrument":6,"program":24},{"pitch":62,"velocity":76,"startTime":32.6087,"endTime":32.74456958333334,"instrument":6,"program":24},{"pitch":66,"velocity":76,"startTime":32.6087,"endTime":32.74456958333334,"instrument":6,"program":24},{"pitch":69,"velocity":76,"startTime":32.6087,"endTime":32.74456958333334,"instrument":6,"program":24},{"pitch":72,"velocity":76,"startTime":32.6087,"endTime":32.74456958333334,"instrument":6,"program":24},{"pitch":62,"velocity":76,"startTime":33.260874,"endTime":33.39674358333333,"instrument":6,"program":24},{"pitch":66,"velocity":76,"startTime":33.260874,"endTime":33.39674358333333,"instrument":6,"program":24},{"pitch":69,"velocity":76,"startTime":33.260874,"endTime":33.39674358333333,"instrument":6,"program":24},{"pitch":72,"velocity":76,"startTime":33.260874,"endTime":33.39674358333333,"instrument":6,"program":24},{"pitch":62,"velocity":76,"startTime":33.586961,"endTime":34.02853714583333,"instrument":6,"program":24},{"pitch":66,"velocity":76,"startTime":33.586961,"endTime":34.02853714583333,"instrument":6,"program":24},{"pitch":69,"velocity":76,"startTime":33.586961,"endTime":34.02853714583333,"instrument":6,"program":24},{"pitch":72,"velocity":76,"startTime":33.586961,"endTime":34.02853714583333,"instrument":6,"program":24},{"pitch":62,"velocity":76,"startTime":34.565222,"endTime":34.70109158333334,"instrument":6,"program":24},{"pitch":66,"velocity":76,"startTime":34.565222,"endTime":34.70109158333334,"instrument":6,"program":24},{"pitch":69,"velocity":76,"startTime":34.565222,"endTime":34.70109158333334,"instrument":6,"program":24},{"pitch":72,"velocity":76,"startTime":34.565222,"endTime":34.70109158333334,"instrument":6,"program":24},{"pitch":62,"velocity":76,"startTime":35.217396,"endTime":35.35326558333333,"instrument":6,"program":24},{"pitch":66,"velocity":76,"startTime":35.217396,"endTime":35.35326558333333,"instrument":6,"program":24},{"pitch":69,"velocity":76,"startTime":35.217396,"endTime":35.35326558333333,"instrument":6,"program":24},{"pitch":72,"velocity":76,"startTime":35.217396,"endTime":35.35326558333333,"instrument":6,"program":24},{"pitch":62,"velocity":76,"startTime":35.86957,"endTime":36.005439583333334,"instrument":6,"program":24},{"pitch":66,"velocity":76,"startTime":35.86957,"endTime":36.005439583333334,"instrument":6,"program":24},{"pitch":69,"velocity":76,"startTime":35.86957,"endTime":36.005439583333334,"instrument":6,"program":24},{"pitch":72,"velocity":76,"startTime":35.86957,"endTime":36.005439583333334,"instrument":6,"program":24},{"pitch":62,"velocity":76,"startTime":36.195657,"endTime":36.637233145833335,"instrument":6,"program":24},{"pitch":67,"velocity":76,"startTime":36.195657,"endTime":36.637233145833335,"instrument":6,"program":24},{"pitch":70,"velocity":76,"startTime":36.195657,"endTime":36.637233145833335,"instrument":6,"program":24},{"pitch":62,"velocity":76,"startTime":39.456527,"endTime":39.89810314583333,"instrument":6,"program":24},{"pitch":66,"velocity":76,"startTime":39.782613999999995,"endTime":40.22419014583333,"instrument":6,"program":24},{"pitch":69,"velocity":76,"startTime":39.782613999999995,"endTime":40.22419014583333,"instrument":6,"program":24},{"pitch":72,"velocity":76,"startTime":39.782613999999995,"endTime":40.22419014583333,"instrument":6,"program":24},{"pitch":62,"velocity":76,"startTime":40.434788000000005,"endTime":40.57065758333333,"instrument":6,"program":24},{"pitch":67,"velocity":76,"startTime":40.434788000000005,"endTime":40.57065758333333,"instrument":6,"program":24},{"pitch":70,"velocity":76,"startTime":40.434788000000005,"endTime":40.57065758333333,"instrument":6,"program":24},{"pitch":62,"velocity":76,"startTime":41.739136,"endTime":41.875005583333326,"instrument":6,"program":24},{"pitch":66,"velocity":76,"startTime":41.739136,"endTime":41.875005583333326,"instrument":6,"program":24},{"pitch":69,"velocity":76,"startTime":41.739136,"endTime":41.875005583333326,"instrument":6,"program":24},{"pitch":72,"velocity":76,"startTime":41.739136,"endTime":41.875005583333326,"instrument":6,"program":24},{"pitch":62,"velocity":76,"startTime":42.39131,"endTime":42.52717958333333,"instrument":6,"program":24},{"pitch":66,"velocity":76,"startTime":42.39131,"endTime":42.52717958333333,"instrument":6,"program":24},{"pitch":69,"velocity":76,"startTime":42.39131,"endTime":42.52717958333333,"instrument":6,"program":24},{"pitch":72,"velocity":76,"startTime":42.39131,"endTime":42.52717958333333,"instrument":6,"program":24},{"pitch":62,"velocity":76,"startTime":43.043484,"endTime":43.179353583333324,"instrument":6,"program":24},{"pitch":66,"velocity":76,"startTime":43.043484,"endTime":43.179353583333324,"instrument":6,"program":24},{"pitch":69,"velocity":76,"startTime":43.043484,"endTime":43.179353583333324,"instrument":6,"program":24},{"pitch":72,"velocity":76,"startTime":43.043484,"endTime":43.179353583333324,"instrument":6,"program":24},{"pitch":62,"velocity":76,"startTime":43.695657999999995,"endTime":43.831527583333326,"instrument":6,"program":24},{"pitch":66,"velocity":76,"startTime":43.695657999999995,"endTime":43.831527583333326,"instrument":6,"program":24},{"pitch":69,"velocity":76,"startTime":43.695657999999995,"endTime":43.831527583333326,"instrument":6,"program":24},{"pitch":72,"velocity":76,"startTime":43.695657999999995,"endTime":43.831527583333326,"instrument":6,"program":24},{"pitch":62,"velocity":76,"startTime":44.021744999999996,"endTime":44.463321145833326,"instrument":6,"program":24},{"pitch":66,"velocity":76,"startTime":44.021744999999996,"endTime":44.463321145833326,"instrument":6,"program":24},{"pitch":69,"velocity":76,"startTime":44.021744999999996,"endTime":44.463321145833326,"instrument":6,"program":24},{"pitch":72,"velocity":76,"startTime":44.021744999999996,"endTime":44.463321145833326,"instrument":6,"program":24},{"pitch":62,"velocity":76,"startTime":45.00000599999999,"endTime":45.13587558333332,"instrument":6,"program":24},{"pitch":66,"velocity":76,"startTime":45.00000599999999,"endTime":45.13587558333332,"instrument":6,"program":24},{"pitch":69,"velocity":76,"startTime":45.00000599999999,"endTime":45.13587558333332,"instrument":6,"program":24},{"pitch":72,"velocity":76,"startTime":45.00000599999999,"endTime":45.13587558333332,"instrument":6,"program":24},{"pitch":62,"velocity":76,"startTime":45.652179999999994,"endTime":45.78804958333332,"instrument":6,"program":24},{"pitch":66,"velocity":76,"startTime":45.652179999999994,"endTime":45.78804958333332,"instrument":6,"program":24},{"pitch":69,"velocity":76,"startTime":45.652179999999994,"endTime":45.78804958333332,"instrument":6,"program":24},{"pitch":72,"velocity":76,"startTime":45.652179999999994,"endTime":45.78804958333332,"instrument":6,"program":24},{"pitch":62,"velocity":76,"startTime":46.30435399999999,"endTime":46.440223583333335,"instrument":6,"program":24},{"pitch":66,"velocity":76,"startTime":46.30435399999999,"endTime":46.440223583333335,"instrument":6,"program":24},{"pitch":69,"velocity":76,"startTime":46.30435399999999,"endTime":46.440223583333335,"instrument":6,"program":24},{"pitch":72,"velocity":76,"startTime":46.30435399999999,"endTime":46.440223583333335,"instrument":6,"program":24},{"pitch":62,"velocity":76,"startTime":46.63044099999999,"endTime":47.07201714583332,"instrument":6,"program":24},{"pitch":67,"velocity":76,"startTime":46.63044099999999,"endTime":47.07201714583332,"instrument":6,"program":24},{"pitch":70,"velocity":76,"startTime":46.63044099999999,"endTime":47.07201714583332,"instrument":6,"program":24},{"pitch":62,"velocity":76,"startTime":47.60870200000001,"endTime":47.74457158333334,"instrument":6,"program":24},{"pitch":67,"velocity":76,"startTime":47.60870200000001,"endTime":47.74457158333334,"instrument":6,"program":24},{"pitch":70,"velocity":76,"startTime":47.60870200000001,"endTime":47.74457158333334,"instrument":6,"program":24},{"pitch":62,"velocity":76,"startTime":48.260876,"endTime":48.396745583333335,"instrument":6,"program":24},{"pitch":67,"velocity":76,"startTime":48.260876,"endTime":48.396745583333335,"instrument":6,"program":24},{"pitch":70,"velocity":76,"startTime":48.260876,"endTime":48.396745583333335,"instrument":6,"program":24},{"pitch":62,"velocity":76,"startTime":48.913050000000005,"endTime":49.04891958333334,"instrument":6,"program":24},{"pitch":67,"velocity":76,"startTime":48.913050000000005,"endTime":49.04891958333334,"instrument":6,"program":24},{"pitch":70,"velocity":76,"startTime":48.913050000000005,"endTime":49.04891958333334,"instrument":6,"program":24},{"pitch":62,"velocity":76,"startTime":49.23913700000001,"endTime":49.68071314583334,"instrument":6,"program":24},{"pitch":67,"velocity":76,"startTime":49.23913700000001,"endTime":49.68071314583334,"instrument":6,"program":24},{"pitch":70,"velocity":76,"startTime":49.23913700000001,"endTime":49.68071314583334,"instrument":6,"program":24},{"pitch":62,"velocity":76,"startTime":50.217398,"endTime":50.353267583333334,"instrument":6,"program":24},{"pitch":67,"velocity":76,"startTime":50.217398,"endTime":50.353267583333334,"instrument":6,"program":24},{"pitch":70,"velocity":76,"startTime":50.217398,"endTime":50.353267583333334,"instrument":6,"program":24},{"pitch":62,"velocity":76,"startTime":50.869572000000005,"endTime":51.00544158333333,"instrument":6,"program":24},{"pitch":67,"velocity":76,"startTime":50.869572000000005,"endTime":51.00544158333333,"instrument":6,"program":24},{"pitch":70,"velocity":76,"startTime":50.869572000000005,"endTime":51.00544158333333,"instrument":6,"program":24},{"pitch":62,"velocity":76,"startTime":51.521746,"endTime":51.65761558333333,"instrument":6,"program":24},{"pitch":67,"velocity":76,"startTime":51.521746,"endTime":51.65761558333333,"instrument":6,"program":24},{"pitch":70,"velocity":76,"startTime":51.521746,"endTime":51.65761558333333,"instrument":6,"program":24},{"pitch":62,"velocity":76,"startTime":51.847833,"endTime":52.28940914583333,"instrument":6,"program":24},{"pitch":66,"velocity":76,"startTime":51.847833,"endTime":52.28940914583333,"instrument":6,"program":24},{"pitch":69,"velocity":76,"startTime":51.847833,"endTime":52.28940914583333,"instrument":6,"program":24},{"pitch":72,"velocity":76,"startTime":51.847833,"endTime":52.28940914583333,"instrument":6,"program":24},{"pitch":62,"velocity":76,"startTime":52.826094,"endTime":52.96196358333333,"instrument":6,"program":24},{"pitch":66,"velocity":76,"startTime":52.826094,"endTime":52.96196358333333,"instrument":6,"program":24},{"pitch":69,"velocity":76,"startTime":52.826094,"endTime":52.96196358333333,"instrument":6,"program":24},{"pitch":72,"velocity":76,"startTime":52.826094,"endTime":52.96196358333333,"instrument":6,"program":24},{"pitch":62,"velocity":76,"startTime":53.478268,"endTime":53.614137583333324,"instrument":6,"program":24},{"pitch":66,"velocity":76,"startTime":53.478268,"endTime":53.614137583333324,"instrument":6,"program":24},{"pitch":69,"velocity":76,"startTime":53.478268,"endTime":53.614137583333324,"instrument":6,"program":24},{"pitch":72,"velocity":76,"startTime":53.478268,"endTime":53.614137583333324,"instrument":6,"program":24},{"pitch":62,"velocity":76,"startTime":54.130441999999995,"endTime":54.26631158333333,"instrument":6,"program":24},{"pitch":66,"velocity":76,"startTime":54.130441999999995,"endTime":54.26631158333333,"instrument":6,"program":24},{"pitch":69,"velocity":76,"startTime":54.130441999999995,"endTime":54.26631158333333,"instrument":6,"program":24},{"pitch":72,"velocity":76,"startTime":54.130441999999995,"endTime":54.26631158333333,"instrument":6,"program":24},{"pitch":62,"velocity":76,"startTime":54.456528999999996,"endTime":54.89810514583333,"instrument":6,"program":24},{"pitch":66,"velocity":76,"startTime":54.456528999999996,"endTime":54.89810514583333,"instrument":6,"program":24},{"pitch":69,"velocity":76,"startTime":54.456528999999996,"endTime":54.89810514583333,"instrument":6,"program":24},{"pitch":72,"velocity":76,"startTime":54.456528999999996,"endTime":54.89810514583333,"instrument":6,"program":24},{"pitch":62,"velocity":76,"startTime":55.43478999999999,"endTime":55.570659583333324,"instrument":6,"program":24},{"pitch":66,"velocity":76,"startTime":55.43478999999999,"endTime":55.570659583333324,"instrument":6,"program":24},{"pitch":69,"velocity":76,"startTime":55.43478999999999,"endTime":55.570659583333324,"instrument":6,"program":24},{"pitch":72,"velocity":76,"startTime":55.43478999999999,"endTime":55.570659583333324,"instrument":6,"program":24},{"pitch":62,"velocity":76,"startTime":56.086963999999995,"endTime":56.22283358333332,"instrument":6,"program":24},{"pitch":66,"velocity":76,"startTime":56.086963999999995,"endTime":56.22283358333332,"instrument":6,"program":24},{"pitch":69,"velocity":76,"startTime":56.086963999999995,"endTime":56.22283358333332,"instrument":6,"program":24},{"pitch":72,"velocity":76,"startTime":56.086963999999995,"endTime":56.22283358333332,"instrument":6,"program":24},{"pitch":62,"velocity":76,"startTime":56.73913799999999,"endTime":56.875007583333336,"instrument":6,"program":24},{"pitch":66,"velocity":76,"startTime":56.73913799999999,"endTime":56.875007583333336,"instrument":6,"program":24},{"pitch":69,"velocity":76,"startTime":56.73913799999999,"endTime":56.875007583333336,"instrument":6,"program":24},{"pitch":72,"velocity":76,"startTime":56.73913799999999,"endTime":56.875007583333336,"instrument":6,"program":24},{"pitch":62,"velocity":76,"startTime":57.06522499999999,"endTime":57.50680114583332,"instrument":6,"program":24},{"pitch":67,"velocity":76,"startTime":57.06522499999999,"endTime":57.50680114583332,"instrument":6,"program":24},{"pitch":70,"velocity":76,"startTime":57.06522499999999,"endTime":57.50680114583332,"instrument":6,"program":24},{"pitch":62,"velocity":76,"startTime":58.04348600000001,"endTime":58.17935558333333,"instrument":6,"program":24},{"pitch":67,"velocity":76,"startTime":58.04348600000001,"endTime":58.17935558333333,"instrument":6,"program":24},{"pitch":70,"velocity":76,"startTime":58.04348600000001,"endTime":58.17935558333333,"instrument":6,"program":24},{"pitch":62,"velocity":76,"startTime":58.695660000000004,"endTime":58.831529583333335,"instrument":6,"program":24},{"pitch":67,"velocity":76,"startTime":58.695660000000004,"endTime":58.831529583333335,"instrument":6,"program":24},{"pitch":70,"velocity":76,"startTime":58.695660000000004,"endTime":58.831529583333335,"instrument":6,"program":24},{"pitch":62,"velocity":76,"startTime":59.347834000000006,"endTime":59.48370358333333,"instrument":6,"program":24},{"pitch":67,"velocity":76,"startTime":59.347834000000006,"endTime":59.48370358333333,"instrument":6,"program":24},{"pitch":70,"velocity":76,"startTime":59.347834000000006,"endTime":59.48370358333333,"instrument":6,"program":24},{"pitch":62,"velocity":76,"startTime":59.67392100000001,"endTime":60.11549714583334,"instrument":6,"program":24},{"pitch":67,"velocity":76,"startTime":59.67392100000001,"endTime":60.11549714583334,"instrument":6,"program":24},{"pitch":70,"velocity":76,"startTime":59.67392100000001,"endTime":60.11549714583334,"instrument":6,"program":24},{"pitch":62,"velocity":76,"startTime":60.652182,"endTime":60.788051583333335,"instrument":6,"program":24},{"pitch":67,"velocity":76,"startTime":60.652182,"endTime":60.788051583333335,"instrument":6,"program":24},{"pitch":70,"velocity":76,"startTime":60.652182,"endTime":60.788051583333335,"instrument":6,"program":24},{"pitch":62,"velocity":76,"startTime":61.304356,"endTime":61.44022558333333,"instrument":6,"program":24},{"pitch":67,"velocity":76,"startTime":61.304356,"endTime":61.44022558333333,"instrument":6,"program":24},{"pitch":70,"velocity":76,"startTime":61.304356,"endTime":61.44022558333333,"instrument":6,"program":24},{"pitch":62,"velocity":76,"startTime":61.95653,"endTime":62.09239958333333,"instrument":6,"program":24},{"pitch":67,"velocity":76,"startTime":61.95653,"endTime":62.09239958333333,"instrument":6,"program":24},{"pitch":70,"velocity":76,"startTime":61.95653,"endTime":62.09239958333333,"instrument":6,"program":24},{"pitch":63,"velocity":76,"startTime":62.282617,"endTime":62.72419314583333,"instrument":6,"program":24},{"pitch":67,"velocity":76,"startTime":62.282617,"endTime":62.72419314583333,"instrument":6,"program":24},{"pitch":72,"velocity":76,"startTime":62.282617,"endTime":62.72419314583333,"instrument":6,"program":24},{"pitch":63,"velocity":76,"startTime":63.260878,"endTime":63.39674758333333,"instrument":6,"program":24},{"pitch":67,"velocity":76,"startTime":63.260878,"endTime":63.39674758333333,"instrument":6,"program":24},{"pitch":72,"velocity":76,"startTime":63.260878,"endTime":63.39674758333333,"instrument":6,"program":24},{"pitch":63,"velocity":76,"startTime":63.913052,"endTime":64.04892158333332,"instrument":6,"program":24},{"pitch":67,"velocity":76,"startTime":63.913052,"endTime":64.04892158333332,"instrument":6,"program":24},{"pitch":72,"velocity":76,"startTime":63.913052,"endTime":64.04892158333332,"instrument":6,"program":24},{"pitch":63,"velocity":76,"startTime":64.565226,"endTime":64.70109558333333,"instrument":6,"program":24},{"pitch":67,"velocity":76,"startTime":64.565226,"endTime":64.70109558333333,"instrument":6,"program":24},{"pitch":72,"velocity":76,"startTime":64.565226,"endTime":64.70109558333333,"instrument":6,"program":24},{"pitch":63,"velocity":76,"startTime":64.891313,"endTime":65.33288914583332,"instrument":6,"program":24},{"pitch":67,"velocity":76,"startTime":64.891313,"endTime":65.33288914583332,"instrument":6,"program":24},{"pitch":72,"velocity":76,"startTime":64.891313,"endTime":65.33288914583332,"instrument":6,"program":24},{"pitch":63,"velocity":76,"startTime":65.869574,"endTime":66.00544358333332,"instrument":6,"program":24},{"pitch":67,"velocity":76,"startTime":65.869574,"endTime":66.00544358333332,"instrument":6,"program":24},{"pitch":72,"velocity":76,"startTime":65.869574,"endTime":66.00544358333332,"instrument":6,"program":24},{"pitch":63,"velocity":76,"startTime":66.52174799999999,"endTime":66.65761758333332,"instrument":6,"program":24},{"pitch":67,"velocity":76,"startTime":66.52174799999999,"endTime":66.65761758333332,"instrument":6,"program":24},{"pitch":72,"velocity":76,"startTime":66.52174799999999,"endTime":66.65761758333332,"instrument":6,"program":24},{"pitch":63,"velocity":76,"startTime":67.17392199999999,"endTime":67.30979158333334,"instrument":6,"program":24},{"pitch":67,"velocity":76,"startTime":67.17392199999999,"endTime":67.30979158333334,"instrument":6,"program":24},{"pitch":72,"velocity":76,"startTime":67.17392199999999,"endTime":67.30979158333334,"instrument":6,"program":24},{"pitch":62,"velocity":76,"startTime":67.50000899999999,"endTime":67.94158514583333,"instrument":6,"program":24},{"pitch":67,"velocity":76,"startTime":67.50000899999999,"endTime":67.94158514583333,"instrument":6,"program":24},{"pitch":70,"velocity":76,"startTime":67.50000899999999,"endTime":67.94158514583333,"instrument":6,"program":24},{"pitch":62,"velocity":76,"startTime":68.47827000000001,"endTime":68.61413958333334,"instrument":6,"program":24},{"pitch":67,"velocity":76,"startTime":68.47827000000001,"endTime":68.61413958333334,"instrument":6,"program":24},{"pitch":70,"velocity":76,"startTime":68.47827000000001,"endTime":68.61413958333334,"instrument":6,"program":24},{"pitch":62,"velocity":76,"startTime":69.13044400000001,"endTime":69.26631358333333,"instrument":6,"program":24},{"pitch":67,"velocity":76,"startTime":69.13044400000001,"endTime":69.26631358333333,"instrument":6,"program":24},{"pitch":70,"velocity":76,"startTime":69.13044400000001,"endTime":69.26631358333333,"instrument":6,"program":24},{"pitch":62,"velocity":76,"startTime":69.782618,"endTime":69.91848758333333,"instrument":6,"program":24},{"pitch":67,"velocity":76,"startTime":69.782618,"endTime":69.91848758333333,"instrument":6,"program":24},{"pitch":70,"velocity":76,"startTime":69.782618,"endTime":69.91848758333333,"instrument":6,"program":24},{"pitch":62,"velocity":76,"startTime":70.108705,"endTime":70.55028114583334,"instrument":6,"program":24},{"pitch":67,"velocity":76,"startTime":70.108705,"endTime":70.55028114583334,"instrument":6,"program":24},{"pitch":70,"velocity":76,"startTime":70.108705,"endTime":70.55028114583334,"instrument":6,"program":24},{"pitch":62,"velocity":76,"startTime":71.086966,"endTime":71.22283558333334,"instrument":6,"program":24},{"pitch":67,"velocity":76,"startTime":71.086966,"endTime":71.22283558333334,"instrument":6,"program":24},{"pitch":70,"velocity":76,"startTime":71.086966,"endTime":71.22283558333334,"instrument":6,"program":24},{"pitch":62,"velocity":76,"startTime":71.73914,"endTime":71.87500958333332,"instrument":6,"program":24},{"pitch":67,"velocity":76,"startTime":71.73914,"endTime":71.87500958333332,"instrument":6,"program":24},{"pitch":70,"velocity":76,"startTime":71.73914,"endTime":71.87500958333332,"instrument":6,"program":24},{"pitch":62,"velocity":76,"startTime":72.391314,"endTime":72.52718358333333,"instrument":6,"program":24},{"pitch":67,"velocity":76,"startTime":72.391314,"endTime":72.52718358333333,"instrument":6,"program":24},{"pitch":70,"velocity":76,"startTime":72.391314,"endTime":72.52718358333333,"instrument":6,"program":24},{"pitch":62,"velocity":76,"startTime":72.717401,"endTime":73.15897714583333,"instrument":6,"program":24},{"pitch":66,"velocity":76,"startTime":72.717401,"endTime":73.15897714583333,"instrument":6,"program":24},{"pitch":69,"velocity":76,"startTime":72.717401,"endTime":73.15897714583333,"instrument":6,"program":24},{"pitch":72,"velocity":76,"startTime":72.717401,"endTime":73.15897714583333,"instrument":6,"program":24},{"pitch":62,"velocity":76,"startTime":73.695662,"endTime":73.83153158333333,"instrument":6,"program":24},{"pitch":66,"velocity":76,"startTime":73.695662,"endTime":73.83153158333333,"instrument":6,"program":24},{"pitch":69,"velocity":76,"startTime":73.695662,"endTime":73.83153158333333,"instrument":6,"program":24},{"pitch":72,"velocity":76,"startTime":73.695662,"endTime":73.83153158333333,"instrument":6,"program":24},{"pitch":62,"velocity":76,"startTime":74.347836,"endTime":74.48370558333333,"instrument":6,"program":24},{"pitch":66,"velocity":76,"startTime":74.347836,"endTime":74.48370558333333,"instrument":6,"program":24},{"pitch":69,"velocity":76,"startTime":74.347836,"endTime":74.48370558333333,"instrument":6,"program":24},{"pitch":72,"velocity":76,"startTime":74.347836,"endTime":74.48370558333333,"instrument":6,"program":24},{"pitch":62,"velocity":76,"startTime":75.00000999999999,"endTime":75.13587958333332,"instrument":6,"program":24},{"pitch":66,"velocity":76,"startTime":75.00000999999999,"endTime":75.13587958333332,"instrument":6,"program":24},{"pitch":69,"velocity":76,"startTime":75.00000999999999,"endTime":75.13587958333332,"instrument":6,"program":24},{"pitch":72,"velocity":76,"startTime":75.00000999999999,"endTime":75.13587958333332,"instrument":6,"program":24},{"pitch":62,"velocity":76,"startTime":75.32609699999999,"endTime":75.76767314583333,"instrument":6,"program":24},{"pitch":66,"velocity":76,"startTime":75.32609699999999,"endTime":75.76767314583333,"instrument":6,"program":24},{"pitch":69,"velocity":76,"startTime":75.32609699999999,"endTime":75.76767314583333,"instrument":6,"program":24},{"pitch":72,"velocity":76,"startTime":75.32609699999999,"endTime":75.76767314583333,"instrument":6,"program":24},{"pitch":62,"velocity":76,"startTime":76.304358,"endTime":76.44022758333332,"instrument":6,"program":24},{"pitch":66,"velocity":76,"startTime":76.304358,"endTime":76.44022758333332,"instrument":6,"program":24},{"pitch":69,"velocity":76,"startTime":76.304358,"endTime":76.44022758333332,"instrument":6,"program":24},{"pitch":72,"velocity":76,"startTime":76.304358,"endTime":76.44022758333332,"instrument":6,"program":24},{"pitch":62,"velocity":76,"startTime":76.956532,"endTime":77.09240158333333,"instrument":6,"program":24},{"pitch":66,"velocity":76,"startTime":76.956532,"endTime":77.09240158333333,"instrument":6,"program":24},{"pitch":69,"velocity":76,"startTime":76.956532,"endTime":77.09240158333333,"instrument":6,"program":24},{"pitch":72,"velocity":76,"startTime":76.956532,"endTime":77.09240158333333,"instrument":6,"program":24},{"pitch":62,"velocity":76,"startTime":77.60870600000001,"endTime":77.74457558333334,"instrument":6,"program":24},{"pitch":66,"velocity":76,"startTime":77.60870600000001,"endTime":77.74457558333334,"instrument":6,"program":24},{"pitch":69,"velocity":76,"startTime":77.60870600000001,"endTime":77.74457558333334,"instrument":6,"program":24},{"pitch":72,"velocity":76,"startTime":77.60870600000001,"endTime":77.74457558333334,"instrument":6,"program":24},{"pitch":62,"velocity":76,"startTime":77.93479300000001,"endTime":78.37636914583334,"instrument":6,"program":24},{"pitch":67,"velocity":76,"startTime":77.93479300000001,"endTime":78.37636914583334,"instrument":6,"program":24},{"pitch":70,"velocity":76,"startTime":77.93479300000001,"endTime":78.37636914583334,"instrument":6,"program":24},{"pitch":62,"velocity":76,"startTime":81.195663,"endTime":81.99729354166666,"instrument":6,"program":24},{"pitch":66,"velocity":76,"startTime":81.52175,"endTime":81.96332614583335,"instrument":6,"program":24},{"pitch":69,"velocity":76,"startTime":81.52175,"endTime":81.96332614583335,"instrument":6,"program":24},{"pitch":72,"velocity":76,"startTime":81.52175,"endTime":81.96332614583335,"instrument":6,"program":24},{"pitch":62,"velocity":76,"startTime":82.173924,"endTime":82.30979358333335,"instrument":6,"program":24},{"pitch":67,"velocity":76,"startTime":82.173924,"endTime":82.30979358333335,"instrument":6,"program":24},{"pitch":70,"velocity":76,"startTime":82.173924,"endTime":82.30979358333335,"instrument":6,"program":24},{"pitch":67,"velocity":76,"startTime":83.478272,"endTime":84.47011995833334,"instrument":6,"program":24},{"pitch":65,"velocity":76,"startTime":84.78262,"endTime":85.74729404166666,"instrument":6,"program":24},{"pitch":64,"velocity":76,"startTime":86.086968,"endTime":87.05164204166667,"instrument":6,"program":24},{"pitch":63,"velocity":76,"startTime":87.391316,"endTime":87.83289214583334,"instrument":6,"program":24},{"pitch":62,"velocity":76,"startTime":88.04349,"endTime":88.48506614583334,"instrument":6,"program":24},{"pitch":67,"velocity":76,"startTime":88.69566400000001,"endTime":88.83153358333334,"instrument":6,"program":24},{"pitch":62,"velocity":76,"startTime":91.30436,"endTime":91.44022958333335,"instrument":6,"program":24},{"pitch":66,"velocity":76,"startTime":91.30436,"endTime":91.44022958333335,"instrument":6,"program":24},{"pitch":69,"velocity":76,"startTime":91.30436,"endTime":91.44022958333335,"instrument":6,"program":24},{"pitch":72,"velocity":76,"startTime":91.30436,"endTime":91.44022958333335,"instrument":6,"program":24},{"pitch":62,"velocity":76,"startTime":91.956534,"endTime":92.09240358333335,"instrument":6,"program":24},{"pitch":66,"velocity":76,"startTime":91.956534,"endTime":92.09240358333335,"instrument":6,"program":24},{"pitch":69,"velocity":76,"startTime":91.956534,"endTime":92.09240358333335,"instrument":6,"program":24},{"pitch":72,"velocity":76,"startTime":91.956534,"endTime":92.09240358333335,"instrument":6,"program":24},{"pitch":62,"velocity":76,"startTime":92.60870800000001,"endTime":92.74457758333335,"instrument":6,"program":24},{"pitch":66,"velocity":76,"startTime":92.60870800000001,"endTime":92.74457758333335,"instrument":6,"program":24},{"pitch":69,"velocity":76,"startTime":92.60870800000001,"endTime":92.74457758333335,"instrument":6,"program":24},{"pitch":72,"velocity":76,"startTime":92.60870800000001,"endTime":92.74457758333335,"instrument":6,"program":24},{"pitch":62,"velocity":76,"startTime":93.260882,"endTime":93.39675158333334,"instrument":6,"program":24},{"pitch":66,"velocity":76,"startTime":93.260882,"endTime":93.39675158333334,"instrument":6,"program":24},{"pitch":69,"velocity":76,"startTime":93.260882,"endTime":93.39675158333334,"instrument":6,"program":24},{"pitch":72,"velocity":76,"startTime":93.260882,"endTime":93.39675158333334,"instrument":6,"program":24},{"pitch":62,"velocity":76,"startTime":93.586969,"endTime":94.02854514583335,"instrument":6,"program":24},{"pitch":66,"velocity":76,"startTime":93.586969,"endTime":94.02854514583335,"instrument":6,"program":24},{"pitch":69,"velocity":76,"startTime":93.586969,"endTime":94.02854514583335,"instrument":6,"program":24},{"pitch":72,"velocity":76,"startTime":93.586969,"endTime":94.02854514583335,"instrument":6,"program":24},{"pitch":62,"velocity":76,"startTime":94.56523,"endTime":94.70109958333335,"instrument":6,"program":24},{"pitch":66,"velocity":76,"startTime":94.56523,"endTime":94.70109958333335,"instrument":6,"program":24},{"pitch":69,"velocity":76,"startTime":94.56523,"endTime":94.70109958333335,"instrument":6,"program":24},{"pitch":72,"velocity":76,"startTime":94.56523,"endTime":94.70109958333335,"instrument":6,"program":24},{"pitch":62,"velocity":76,"startTime":95.217404,"endTime":95.35327358333335,"instrument":6,"program":24},{"pitch":66,"velocity":76,"startTime":95.217404,"endTime":95.35327358333335,"instrument":6,"program":24},{"pitch":69,"velocity":76,"startTime":95.217404,"endTime":95.35327358333335,"instrument":6,"program":24},{"pitch":72,"velocity":76,"startTime":95.217404,"endTime":95.35327358333335,"instrument":6,"program":24},{"pitch":62,"velocity":76,"startTime":95.86957799999999,"endTime":96.00544758333334,"instrument":6,"program":24},{"pitch":66,"velocity":76,"startTime":95.86957799999999,"endTime":96.00544758333334,"instrument":6,"program":24},{"pitch":69,"velocity":76,"startTime":95.86957799999999,"endTime":96.00544758333334,"instrument":6,"program":24},{"pitch":72,"velocity":76,"startTime":95.86957799999999,"endTime":96.00544758333334,"instrument":6,"program":24},{"pitch":62,"velocity":76,"startTime":96.19566499999999,"endTime":96.63724114583334,"instrument":6,"program":24},{"pitch":66,"velocity":76,"startTime":96.19566499999999,"endTime":96.63724114583334,"instrument":6,"program":24},{"pitch":69,"velocity":76,"startTime":96.19566499999999,"endTime":96.63724114583334,"instrument":6,"program":24},{"pitch":72,"velocity":76,"startTime":96.19566499999999,"endTime":96.63724114583334,"instrument":6,"program":24},{"pitch":62,"velocity":76,"startTime":97.17392600000001,"endTime":97.30979558333334,"instrument":6,"program":24},{"pitch":66,"velocity":76,"startTime":97.17392600000001,"endTime":97.30979558333334,"instrument":6,"program":24},{"pitch":69,"velocity":76,"startTime":97.17392600000001,"endTime":97.30979558333334,"instrument":6,"program":24},{"pitch":72,"velocity":76,"startTime":97.17392600000001,"endTime":97.30979558333334,"instrument":6,"program":24},{"pitch":62,"velocity":76,"startTime":97.82610000000001,"endTime":97.96196958333334,"instrument":6,"program":24},{"pitch":66,"velocity":76,"startTime":97.82610000000001,"endTime":97.96196958333334,"instrument":6,"program":24},{"pitch":69,"velocity":76,"startTime":97.82610000000001,"endTime":97.96196958333334,"instrument":6,"program":24},{"pitch":72,"velocity":76,"startTime":97.82610000000001,"endTime":97.96196958333334,"instrument":6,"program":24},{"pitch":62,"velocity":76,"startTime":98.47827400000001,"endTime":98.61414358333334,"instrument":6,"program":24},{"pitch":66,"velocity":76,"startTime":98.47827400000001,"endTime":98.61414358333334,"instrument":6,"program":24},{"pitch":69,"velocity":76,"startTime":98.47827400000001,"endTime":98.61414358333334,"instrument":6,"program":24},{"pitch":72,"velocity":76,"startTime":98.47827400000001,"endTime":98.61414358333334,"instrument":6,"program":24},{"pitch":62,"velocity":76,"startTime":98.80436100000001,"endTime":99.24593714583334,"instrument":6,"program":24},{"pitch":66,"velocity":76,"startTime":98.80436100000001,"endTime":99.24593714583334,"instrument":6,"program":24},{"pitch":69,"velocity":76,"startTime":98.80436100000001,"endTime":99.24593714583334,"instrument":6,"program":24},{"pitch":72,"velocity":76,"startTime":98.80436100000001,"endTime":99.24593714583334,"instrument":6,"program":24},{"pitch":62,"velocity":76,"startTime":99.782622,"endTime":99.91849158333333,"instrument":6,"program":24},{"pitch":66,"velocity":76,"startTime":99.782622,"endTime":99.91849158333333,"instrument":6,"program":24},{"pitch":69,"velocity":76,"startTime":99.782622,"endTime":99.91849158333333,"instrument":6,"program":24},{"pitch":72,"velocity":76,"startTime":99.782622,"endTime":99.91849158333333,"instrument":6,"program":24},{"pitch":62,"velocity":76,"startTime":100.434796,"endTime":100.57066558333334,"instrument":6,"program":24},{"pitch":66,"velocity":76,"startTime":100.434796,"endTime":100.57066558333334,"instrument":6,"program":24},{"pitch":69,"velocity":76,"startTime":100.434796,"endTime":100.57066558333334,"instrument":6,"program":24},{"pitch":72,"velocity":76,"startTime":100.434796,"endTime":100.57066558333334,"instrument":6,"program":24},{"pitch":62,"velocity":76,"startTime":101.08697000000001,"endTime":101.22283958333335,"instrument":6,"program":24},{"pitch":66,"velocity":76,"startTime":101.08697000000001,"endTime":101.22283958333335,"instrument":6,"program":24},{"pitch":69,"velocity":76,"startTime":101.08697000000001,"endTime":101.22283958333335,"instrument":6,"program":24},{"pitch":72,"velocity":76,"startTime":101.08697000000001,"endTime":101.22283958333335,"instrument":6,"program":24},{"pitch":62,"velocity":76,"startTime":101.41305700000001,"endTime":101.85463314583333,"instrument":6,"program":24},{"pitch":67,"velocity":76,"startTime":101.41305700000001,"endTime":101.85463314583333,"instrument":6,"program":24},{"pitch":70,"velocity":76,"startTime":101.41305700000001,"endTime":101.85463314583333,"instrument":6,"program":24},{"pitch":62,"velocity":76,"startTime":102.391318,"endTime":102.52718758333334,"instrument":6,"program":24},{"pitch":67,"velocity":76,"startTime":102.391318,"endTime":102.52718758333334,"instrument":6,"program":24},{"pitch":70,"velocity":76,"startTime":102.391318,"endTime":102.52718758333334,"instrument":6,"program":24},{"pitch":62,"velocity":76,"startTime":103.043492,"endTime":103.17936158333335,"instrument":6,"program":24},{"pitch":67,"velocity":76,"startTime":103.043492,"endTime":103.17936158333335,"instrument":6,"program":24},{"pitch":70,"velocity":76,"startTime":103.043492,"endTime":103.17936158333335,"instrument":6,"program":24},{"pitch":62,"velocity":76,"startTime":103.695666,"endTime":103.83153558333335,"instrument":6,"program":24},{"pitch":67,"velocity":76,"startTime":103.695666,"endTime":103.83153558333335,"instrument":6,"program":24},{"pitch":70,"velocity":76,"startTime":103.695666,"endTime":103.83153558333335,"instrument":6,"program":24},{"pitch":62,"velocity":76,"startTime":104.021753,"endTime":104.33425304166667,"instrument":6,"program":24},{"pitch":67,"velocity":76,"startTime":104.021753,"endTime":104.32066608333334,"instrument":6,"program":24},{"pitch":70,"velocity":76,"startTime":104.021753,"endTime":104.34784,"instrument":6,"program":24},{"pitch":67,"velocity":76,"startTime":104.34784,"endTime":105.29892708333334,"instrument":6,"program":24},{"pitch":65,"velocity":76,"startTime":105.652188,"endTime":106.61686204166666,"instrument":6,"program":24},{"pitch":64,"velocity":76,"startTime":106.956536,"endTime":107.93479700000002,"instrument":6,"program":24},{"pitch":63,"velocity":76,"startTime":108.260884,"endTime":108.70246014583334,"instrument":6,"program":24},{"pitch":62,"velocity":76,"startTime":108.913058,"endTime":109.35463414583334,"instrument":6,"program":24},{"pitch":67,"velocity":76,"startTime":109.56523200000001,"endTime":109.70110158333334,"instrument":6,"program":24},{"pitch":63,"velocity":76,"startTime":112.173928,"endTime":112.30979758333335,"instrument":6,"program":24},{"pitch":67,"velocity":76,"startTime":112.173928,"endTime":112.30979758333335,"instrument":6,"program":24},{"pitch":72,"velocity":76,"startTime":112.173928,"endTime":112.30979758333335,"instrument":6,"program":24},{"pitch":63,"velocity":76,"startTime":112.826102,"endTime":112.96197158333335,"instrument":6,"program":24},{"pitch":67,"velocity":76,"startTime":112.826102,"endTime":112.96197158333335,"instrument":6,"program":24},{"pitch":72,"velocity":76,"startTime":112.826102,"endTime":112.96197158333335,"instrument":6,"program":24},{"pitch":63,"velocity":76,"startTime":113.47827600000001,"endTime":113.61414558333335,"instrument":6,"program":24},{"pitch":67,"velocity":76,"startTime":113.47827600000001,"endTime":113.61414558333335,"instrument":6,"program":24},{"pitch":72,"velocity":76,"startTime":113.47827600000001,"endTime":113.61414558333335,"instrument":6,"program":24},{"pitch":63,"velocity":76,"startTime":114.13045,"endTime":114.26631958333334,"instrument":6,"program":24},{"pitch":67,"velocity":76,"startTime":114.13045,"endTime":114.26631958333334,"instrument":6,"program":24},{"pitch":72,"velocity":76,"startTime":114.13045,"endTime":114.26631958333334,"instrument":6,"program":24},{"pitch":63,"velocity":76,"startTime":114.456537,"endTime":114.904906625,"instrument":6,"program":24},{"pitch":67,"velocity":76,"startTime":114.456537,"endTime":114.93208054166666,"instrument":6,"program":24},{"pitch":72,"velocity":76,"startTime":114.456537,"endTime":114.93208054166666,"instrument":6,"program":24},{"pitch":63,"velocity":76,"startTime":115.108711,"endTime":115.24458058333335,"instrument":6,"program":24},{"pitch":67,"velocity":76,"startTime":115.108711,"endTime":115.24458058333335,"instrument":6,"program":24},{"pitch":72,"velocity":76,"startTime":115.108711,"endTime":115.24458058333335,"instrument":6,"program":24},{"pitch":63,"velocity":76,"startTime":115.760885,"endTime":116.01903720833334,"instrument":6,"program":24},{"pitch":67,"velocity":76,"startTime":115.760885,"endTime":115.99865677083335,"instrument":6,"program":24},{"pitch":72,"velocity":76,"startTime":115.760885,"endTime":115.99186329166666,"instrument":6,"program":24},{"pitch":63,"velocity":76,"startTime":116.41305899999999,"endTime":116.54892858333335,"instrument":6,"program":24},{"pitch":67,"velocity":76,"startTime":116.41305899999999,"endTime":116.54892858333335,"instrument":6,"program":24},{"pitch":72,"velocity":76,"startTime":116.41305899999999,"endTime":116.54892858333335,"instrument":6,"program":24},{"pitch":63,"velocity":76,"startTime":116.73914599999999,"endTime":116.87501558333334,"instrument":6,"program":24},{"pitch":67,"velocity":76,"startTime":116.73914599999999,"endTime":116.87501558333334,"instrument":6,"program":24},{"pitch":72,"velocity":76,"startTime":116.73914599999999,"endTime":116.87501558333334,"instrument":6,"program":24},{"pitch":62,"velocity":76,"startTime":117.39132000000001,"endTime":117.52718958333334,"instrument":6,"program":24},{"pitch":67,"velocity":76,"startTime":117.39132000000001,"endTime":117.52718958333334,"instrument":6,"program":24},{"pitch":70,"velocity":76,"startTime":117.39132000000001,"endTime":117.52718958333334,"instrument":6,"program":24},{"pitch":62,"velocity":76,"startTime":117.71740700000001,"endTime":117.85327658333334,"instrument":6,"program":24},{"pitch":67,"velocity":76,"startTime":117.71740700000001,"endTime":117.85327658333334,"instrument":6,"program":24},{"pitch":70,"velocity":76,"startTime":117.71740700000001,"endTime":117.85327658333334,"instrument":6,"program":24},{"pitch":62,"velocity":76,"startTime":118.36958100000001,"endTime":118.66849408333334,"instrument":6,"program":24},{"pitch":67,"velocity":76,"startTime":118.36958100000001,"endTime":118.68208104166666,"instrument":6,"program":24},{"pitch":70,"velocity":76,"startTime":118.36958100000001,"endTime":118.66849408333334,"instrument":6,"program":24},{"pitch":62,"velocity":76,"startTime":119.02175500000001,"endTime":119.15762458333334,"instrument":6,"program":24},{"pitch":67,"velocity":76,"startTime":119.02175500000001,"endTime":119.15762458333334,"instrument":6,"program":24},{"pitch":70,"velocity":76,"startTime":119.02175500000001,"endTime":119.15762458333334,"instrument":6,"program":24},{"pitch":62,"velocity":76,"startTime":119.34784200000001,"endTime":119.48371158333333,"instrument":6,"program":24},{"pitch":67,"velocity":76,"startTime":119.34784200000001,"endTime":119.48371158333333,"instrument":6,"program":24},{"pitch":70,"velocity":76,"startTime":119.34784200000001,"endTime":119.48371158333333,"instrument":6,"program":24},{"pitch":62,"velocity":76,"startTime":120.000016,"endTime":120.44159214583334,"instrument":6,"program":24},{"pitch":66,"velocity":76,"startTime":120.000016,"endTime":120.44159214583334,"instrument":6,"program":24},{"pitch":69,"velocity":76,"startTime":120.000016,"endTime":120.44159214583334,"instrument":6,"program":24},{"pitch":72,"velocity":76,"startTime":120.000016,"endTime":120.44159214583334,"instrument":6,"program":24},{"pitch":62,"velocity":76,"startTime":122.934799,"endTime":123.37637514583334,"instrument":6,"program":24},{"pitch":66,"velocity":76,"startTime":123.260886,"endTime":123.70246214583335,"instrument":6,"program":24},{"pitch":69,"velocity":76,"startTime":123.260886,"endTime":123.70246214583335,"instrument":6,"program":24},{"pitch":72,"velocity":76,"startTime":123.260886,"endTime":123.70246214583335,"instrument":6,"program":24},{"pitch":67,"velocity":76,"startTime":123.91306,"endTime":124.04892958333335,"instrument":6,"program":24},{"pitch":70,"velocity":76,"startTime":123.91306,"endTime":124.04892958333335,"instrument":6,"program":24},{"pitch":62,"velocity":76,"startTime":125.217408,"endTime":125.35327758333335,"instrument":6,"program":24},{"pitch":66,"velocity":76,"startTime":125.217408,"endTime":125.35327758333335,"instrument":6,"program":24},{"pitch":69,"velocity":76,"startTime":125.217408,"endTime":125.35327758333335,"instrument":6,"program":24},{"pitch":72,"velocity":76,"startTime":125.217408,"endTime":125.35327758333335,"instrument":6,"program":24},{"pitch":62,"velocity":76,"startTime":125.869582,"endTime":126.00545158333334,"instrument":6,"program":24},{"pitch":66,"velocity":76,"startTime":125.869582,"endTime":126.00545158333334,"instrument":6,"program":24},{"pitch":69,"velocity":76,"startTime":125.869582,"endTime":126.00545158333334,"instrument":6,"program":24},{"pitch":72,"velocity":76,"startTime":125.869582,"endTime":126.00545158333334,"instrument":6,"program":24},{"pitch":62,"velocity":76,"startTime":126.521756,"endTime":126.65762558333334,"instrument":6,"program":24},{"pitch":66,"velocity":76,"startTime":126.521756,"endTime":126.65762558333334,"instrument":6,"program":24},{"pitch":69,"velocity":76,"startTime":126.521756,"endTime":126.65762558333334,"instrument":6,"program":24},{"pitch":72,"velocity":76,"startTime":126.521756,"endTime":126.65762558333334,"instrument":6,"program":24},{"pitch":62,"velocity":76,"startTime":127.17393,"endTime":127.30979958333334,"instrument":6,"program":24},{"pitch":66,"velocity":76,"startTime":127.17393,"endTime":127.30979958333334,"instrument":6,"program":24},{"pitch":69,"velocity":76,"startTime":127.17393,"endTime":127.30979958333334,"instrument":6,"program":24},{"pitch":72,"velocity":76,"startTime":127.17393,"endTime":127.30979958333334,"instrument":6,"program":24},{"pitch":62,"velocity":76,"startTime":127.500017,"endTime":127.94159314583334,"instrument":6,"program":24},{"pitch":66,"velocity":76,"startTime":127.500017,"endTime":127.94159314583334,"instrument":6,"program":24},{"pitch":69,"velocity":76,"startTime":127.500017,"endTime":127.94159314583334,"instrument":6,"program":24},{"pitch":72,"velocity":76,"startTime":127.500017,"endTime":127.94159314583334,"instrument":6,"program":24},{"pitch":62,"velocity":76,"startTime":128.47827800000002,"endTime":128.61414758333333,"instrument":6,"program":24},{"pitch":66,"velocity":76,"startTime":128.47827800000002,"endTime":128.61414758333333,"instrument":6,"program":24},{"pitch":69,"velocity":76,"startTime":128.47827800000002,"endTime":128.61414758333333,"instrument":6,"program":24},{"pitch":72,"velocity":76,"startTime":128.47827800000002,"endTime":128.61414758333333,"instrument":6,"program":24},{"pitch":62,"velocity":76,"startTime":129.13045200000002,"endTime":129.26632158333334,"instrument":6,"program":24},{"pitch":66,"velocity":76,"startTime":129.13045200000002,"endTime":129.26632158333334,"instrument":6,"program":24},{"pitch":69,"velocity":76,"startTime":129.13045200000002,"endTime":129.26632158333334,"instrument":6,"program":24},{"pitch":72,"velocity":76,"startTime":129.13045200000002,"endTime":129.26632158333334,"instrument":6,"program":24},{"pitch":62,"velocity":76,"startTime":129.78262600000002,"endTime":129.91849558333334,"instrument":6,"program":24},{"pitch":66,"velocity":76,"startTime":129.78262600000002,"endTime":129.91849558333334,"instrument":6,"program":24},{"pitch":69,"velocity":76,"startTime":129.78262600000002,"endTime":129.91849558333334,"instrument":6,"program":24},{"pitch":72,"velocity":76,"startTime":129.78262600000002,"endTime":129.91849558333334,"instrument":6,"program":24},{"pitch":62,"velocity":76,"startTime":130.108713,"endTime":130.55028914583335,"instrument":6,"program":24},{"pitch":67,"velocity":76,"startTime":130.108713,"endTime":130.55028914583335,"instrument":6,"program":24},{"pitch":70,"velocity":76,"startTime":130.108713,"endTime":130.55028914583335,"instrument":6,"program":24},{"pitch":62,"velocity":76,"startTime":131.086974,"endTime":131.22284358333334,"instrument":6,"program":24},{"pitch":67,"velocity":76,"startTime":131.086974,"endTime":131.22284358333334,"instrument":6,"program":24},{"pitch":70,"velocity":76,"startTime":131.086974,"endTime":131.22284358333334,"instrument":6,"program":24},{"pitch":62,"velocity":76,"startTime":131.739148,"endTime":131.87501758333335,"instrument":6,"program":24},{"pitch":67,"velocity":76,"startTime":131.739148,"endTime":131.87501758333335,"instrument":6,"program":24},{"pitch":70,"velocity":76,"startTime":131.739148,"endTime":131.87501758333335,"instrument":6,"program":24},{"pitch":62,"velocity":76,"startTime":132.391322,"endTime":132.52719158333335,"instrument":6,"program":24},{"pitch":67,"velocity":76,"startTime":132.391322,"endTime":132.52719158333335,"instrument":6,"program":24},{"pitch":70,"velocity":76,"startTime":132.391322,"endTime":132.52719158333335,"instrument":6,"program":24},{"pitch":62,"velocity":76,"startTime":132.717409,"endTime":133.15898514583333,"instrument":6,"program":24},{"pitch":67,"velocity":76,"startTime":132.717409,"endTime":133.15898514583333,"instrument":6,"program":24},{"pitch":70,"velocity":76,"startTime":132.717409,"endTime":133.15898514583333,"instrument":6,"program":24},{"pitch":62,"velocity":76,"startTime":133.69567,"endTime":133.83153958333335,"instrument":6,"program":24},{"pitch":67,"velocity":76,"startTime":133.69567,"endTime":133.83153958333335,"instrument":6,"program":24},{"pitch":70,"velocity":76,"startTime":133.69567,"endTime":133.83153958333335,"instrument":6,"program":24},{"pitch":62,"velocity":76,"startTime":134.347844,"endTime":134.48371358333335,"instrument":6,"program":24},{"pitch":67,"velocity":76,"startTime":134.347844,"endTime":134.48371358333335,"instrument":6,"program":24},{"pitch":70,"velocity":76,"startTime":134.347844,"endTime":134.48371358333335,"instrument":6,"program":24},{"pitch":62,"velocity":76,"startTime":135.000018,"endTime":135.13588758333336,"instrument":6,"program":24},{"pitch":67,"velocity":76,"startTime":135.000018,"endTime":135.13588758333336,"instrument":6,"program":24},{"pitch":70,"velocity":76,"startTime":135.000018,"endTime":135.13588758333336,"instrument":6,"program":24},{"pitch":62,"velocity":76,"startTime":135.326105,"endTime":135.76768114583334,"instrument":6,"program":24},{"pitch":66,"velocity":76,"startTime":135.326105,"endTime":135.76768114583334,"instrument":6,"program":24},{"pitch":69,"velocity":76,"startTime":135.326105,"endTime":135.76768114583334,"instrument":6,"program":24},{"pitch":72,"velocity":76,"startTime":135.326105,"endTime":135.76768114583334,"instrument":6,"program":24},{"pitch":62,"velocity":76,"startTime":136.304366,"endTime":136.44023558333333,"instrument":6,"program":24},{"pitch":66,"velocity":76,"startTime":136.304366,"endTime":136.44023558333333,"instrument":6,"program":24},{"pitch":69,"velocity":76,"startTime":136.304366,"endTime":136.44023558333333,"instrument":6,"program":24},{"pitch":72,"velocity":76,"startTime":136.304366,"endTime":136.44023558333333,"instrument":6,"program":24},{"pitch":62,"velocity":76,"startTime":136.95654,"endTime":137.09240958333334,"instrument":6,"program":24},{"pitch":66,"velocity":76,"startTime":136.95654,"endTime":137.09240958333334,"instrument":6,"program":24},{"pitch":69,"velocity":76,"startTime":136.95654,"endTime":137.09240958333334,"instrument":6,"program":24},{"pitch":72,"velocity":76,"startTime":136.95654,"endTime":137.09240958333334,"instrument":6,"program":24},{"pitch":62,"velocity":76,"startTime":137.608714,"endTime":137.74458358333334,"instrument":6,"program":24},{"pitch":66,"velocity":76,"startTime":137.608714,"endTime":137.74458358333334,"instrument":6,"program":24},{"pitch":69,"velocity":76,"startTime":137.608714,"endTime":137.74458358333334,"instrument":6,"program":24},{"pitch":72,"velocity":76,"startTime":137.608714,"endTime":137.74458358333334,"instrument":6,"program":24},{"pitch":62,"velocity":76,"startTime":137.934801,"endTime":138.37637714583335,"instrument":6,"program":24},{"pitch":66,"velocity":76,"startTime":137.934801,"endTime":138.37637714583335,"instrument":6,"program":24},{"pitch":69,"velocity":76,"startTime":137.934801,"endTime":138.37637714583335,"instrument":6,"program":24},{"pitch":72,"velocity":76,"startTime":137.934801,"endTime":138.37637714583335,"instrument":6,"program":24},{"pitch":62,"velocity":76,"startTime":138.91306200000002,"endTime":139.04893158333334,"instrument":6,"program":24},{"pitch":66,"velocity":76,"startTime":138.91306200000002,"endTime":139.04893158333334,"instrument":6,"program":24},{"pitch":69,"velocity":76,"startTime":138.91306200000002,"endTime":139.04893158333334,"instrument":6,"program":24},{"pitch":72,"velocity":76,"startTime":138.91306200000002,"endTime":139.04893158333334,"instrument":6,"program":24},{"pitch":62,"velocity":76,"startTime":139.565236,"endTime":139.70110558333334,"instrument":6,"program":24},{"pitch":66,"velocity":76,"startTime":139.565236,"endTime":139.70110558333334,"instrument":6,"program":24},{"pitch":69,"velocity":76,"startTime":139.565236,"endTime":139.70110558333334,"instrument":6,"program":24},{"pitch":72,"velocity":76,"startTime":139.565236,"endTime":139.70110558333334,"instrument":6,"program":24},{"pitch":62,"velocity":76,"startTime":140.21741,"endTime":140.35327958333335,"instrument":6,"program":24},{"pitch":66,"velocity":76,"startTime":140.21741,"endTime":140.35327958333335,"instrument":6,"program":24},{"pitch":69,"velocity":76,"startTime":140.21741,"endTime":140.35327958333335,"instrument":6,"program":24},{"pitch":72,"velocity":76,"startTime":140.21741,"endTime":140.35327958333335,"instrument":6,"program":24},{"pitch":62,"velocity":76,"startTime":140.543497,"endTime":140.98507314583333,"instrument":6,"program":24},{"pitch":67,"velocity":76,"startTime":140.543497,"endTime":140.98507314583333,"instrument":6,"program":24},{"pitch":70,"velocity":76,"startTime":140.543497,"endTime":140.98507314583333,"instrument":6,"program":24},{"pitch":62,"velocity":76,"startTime":141.521758,"endTime":141.65762758333332,"instrument":6,"program":24},{"pitch":67,"velocity":76,"startTime":141.521758,"endTime":141.65762758333332,"instrument":6,"program":24},{"pitch":70,"velocity":76,"startTime":141.521758,"endTime":141.65762758333332,"instrument":6,"program":24},{"pitch":62,"velocity":76,"startTime":142.173932,"endTime":142.30980158333332,"instrument":6,"program":24},{"pitch":67,"velocity":76,"startTime":142.173932,"endTime":142.30980158333332,"instrument":6,"program":24},{"pitch":70,"velocity":76,"startTime":142.173932,"endTime":142.30980158333332,"instrument":6,"program":24},{"pitch":62,"velocity":76,"startTime":142.826106,"endTime":142.96197558333336,"instrument":6,"program":24},{"pitch":67,"velocity":76,"startTime":142.826106,"endTime":142.96197558333336,"instrument":6,"program":24},{"pitch":70,"velocity":76,"startTime":142.826106,"endTime":142.96197558333336,"instrument":6,"program":24},{"pitch":62,"velocity":76,"startTime":143.152193,"endTime":143.59376914583333,"instrument":6,"program":24},{"pitch":67,"velocity":76,"startTime":143.152193,"endTime":143.59376914583333,"instrument":6,"program":24},{"pitch":70,"velocity":76,"startTime":143.152193,"endTime":143.59376914583333,"instrument":6,"program":24},{"pitch":62,"velocity":76,"startTime":144.13045400000001,"endTime":144.26632358333336,"instrument":6,"program":24},{"pitch":67,"velocity":76,"startTime":144.13045400000001,"endTime":144.26632358333336,"instrument":6,"program":24},{"pitch":70,"velocity":76,"startTime":144.13045400000001,"endTime":144.26632358333336,"instrument":6,"program":24},{"pitch":62,"velocity":76,"startTime":144.782628,"endTime":144.91849758333333,"instrument":6,"program":24},{"pitch":67,"velocity":76,"startTime":144.782628,"endTime":144.91849758333333,"instrument":6,"program":24},{"pitch":70,"velocity":76,"startTime":144.782628,"endTime":144.91849758333333,"instrument":6,"program":24},{"pitch":62,"velocity":76,"startTime":145.434802,"endTime":145.57067158333334,"instrument":6,"program":24},{"pitch":67,"velocity":76,"startTime":145.434802,"endTime":145.57067158333334,"instrument":6,"program":24},{"pitch":70,"velocity":76,"startTime":145.434802,"endTime":145.57067158333334,"instrument":6,"program":24},{"pitch":63,"velocity":76,"startTime":145.760889,"endTime":146.20246514583334,"instrument":6,"program":24},{"pitch":67,"velocity":76,"startTime":145.760889,"endTime":146.20246514583334,"instrument":6,"program":24},{"pitch":72,"velocity":76,"startTime":145.760889,"endTime":146.20246514583334,"instrument":6,"program":24},{"pitch":63,"velocity":76,"startTime":146.73915,"endTime":146.87501958333334,"instrument":6,"program":24},{"pitch":67,"velocity":76,"startTime":146.73915,"endTime":146.87501958333334,"instrument":6,"program":24},{"pitch":72,"velocity":76,"startTime":146.73915,"endTime":146.87501958333334,"instrument":6,"program":24},{"pitch":63,"velocity":76,"startTime":147.391324,"endTime":147.52719358333334,"instrument":6,"program":24},{"pitch":67,"velocity":76,"startTime":147.391324,"endTime":147.52719358333334,"instrument":6,"program":24},{"pitch":72,"velocity":76,"startTime":147.391324,"endTime":147.52719358333334,"instrument":6,"program":24},{"pitch":63,"velocity":76,"startTime":148.043498,"endTime":148.17936758333335,"instrument":6,"program":24},{"pitch":67,"velocity":76,"startTime":148.043498,"endTime":148.17936758333335,"instrument":6,"program":24},{"pitch":72,"velocity":76,"startTime":148.043498,"endTime":148.17936758333335,"instrument":6,"program":24},{"pitch":63,"velocity":76,"startTime":148.369585,"endTime":148.81116114583335,"instrument":6,"program":24},{"pitch":67,"velocity":76,"startTime":148.369585,"endTime":148.81116114583335,"instrument":6,"program":24},{"pitch":72,"velocity":76,"startTime":148.369585,"endTime":148.81116114583335,"instrument":6,"program":24},{"pitch":63,"velocity":76,"startTime":149.347846,"endTime":149.48371558333335,"instrument":6,"program":24},{"pitch":67,"velocity":76,"startTime":149.347846,"endTime":149.48371558333335,"instrument":6,"program":24},{"pitch":72,"velocity":76,"startTime":149.347846,"endTime":149.48371558333335,"instrument":6,"program":24},{"pitch":63,"velocity":76,"startTime":150.00002,"endTime":150.13588958333335,"instrument":6,"program":24},{"pitch":67,"velocity":76,"startTime":150.00002,"endTime":150.13588958333335,"instrument":6,"program":24},{"pitch":72,"velocity":76,"startTime":150.00002,"endTime":150.13588958333335,"instrument":6,"program":24},{"pitch":63,"velocity":76,"startTime":150.652194,"endTime":150.78806358333333,"instrument":6,"program":24},{"pitch":67,"velocity":76,"startTime":150.652194,"endTime":150.78806358333333,"instrument":6,"program":24},{"pitch":72,"velocity":76,"startTime":150.652194,"endTime":150.78806358333333,"instrument":6,"program":24},{"pitch":62,"velocity":76,"startTime":150.978281,"endTime":151.41985714583333,"instrument":6,"program":24},{"pitch":67,"velocity":76,"startTime":150.978281,"endTime":151.41985714583333,"instrument":6,"program":24},{"pitch":70,"velocity":76,"startTime":150.978281,"endTime":151.41985714583333,"instrument":6,"program":24},{"pitch":62,"velocity":76,"startTime":151.956542,"endTime":152.09241158333333,"instrument":6,"program":24},{"pitch":67,"velocity":76,"startTime":151.956542,"endTime":152.09241158333333,"instrument":6,"program":24},{"pitch":70,"velocity":76,"startTime":151.956542,"endTime":152.09241158333333,"instrument":6,"program":24},{"pitch":62,"velocity":76,"startTime":152.60871600000002,"endTime":152.74458558333333,"instrument":6,"program":24},{"pitch":67,"velocity":76,"startTime":152.60871600000002,"endTime":152.74458558333333,"instrument":6,"program":24},{"pitch":70,"velocity":76,"startTime":152.60871600000002,"endTime":152.74458558333333,"instrument":6,"program":24},{"pitch":62,"velocity":76,"startTime":153.26089000000002,"endTime":153.39675958333336,"instrument":6,"program":24},{"pitch":67,"velocity":76,"startTime":153.26089000000002,"endTime":153.39675958333336,"instrument":6,"program":24},{"pitch":70,"velocity":76,"startTime":153.26089000000002,"endTime":153.39675958333336,"instrument":6,"program":24},{"pitch":62,"velocity":76,"startTime":153.586977,"endTime":154.02855314583334,"instrument":6,"program":24},{"pitch":67,"velocity":76,"startTime":153.586977,"endTime":154.02855314583334,"instrument":6,"program":24},{"pitch":70,"velocity":76,"startTime":153.586977,"endTime":154.02855314583334,"instrument":6,"program":24},{"pitch":62,"velocity":76,"startTime":154.565238,"endTime":154.70110758333334,"instrument":6,"program":24},{"pitch":67,"velocity":76,"startTime":154.565238,"endTime":154.70110758333334,"instrument":6,"program":24},{"pitch":70,"velocity":76,"startTime":154.565238,"endTime":154.70110758333334,"instrument":6,"program":24},{"pitch":62,"velocity":76,"startTime":155.217412,"endTime":155.35328158333334,"instrument":6,"program":24},{"pitch":67,"velocity":76,"startTime":155.217412,"endTime":155.35328158333334,"instrument":6,"program":24},{"pitch":70,"velocity":76,"startTime":155.217412,"endTime":155.35328158333334,"instrument":6,"program":24},{"pitch":62,"velocity":76,"startTime":155.869586,"endTime":156.00545558333334,"instrument":6,"program":24},{"pitch":67,"velocity":76,"startTime":155.869586,"endTime":156.00545558333334,"instrument":6,"program":24},{"pitch":70,"velocity":76,"startTime":155.869586,"endTime":156.00545558333334,"instrument":6,"program":24},{"pitch":62,"velocity":76,"startTime":156.195673,"endTime":156.63724914583335,"instrument":6,"program":24},{"pitch":66,"velocity":76,"startTime":156.195673,"endTime":156.63724914583335,"instrument":6,"program":24},{"pitch":69,"velocity":76,"startTime":156.195673,"endTime":156.63724914583335,"instrument":6,"program":24},{"pitch":72,"velocity":76,"startTime":156.195673,"endTime":156.63724914583335,"instrument":6,"program":24},{"pitch":62,"velocity":76,"startTime":157.173934,"endTime":157.30980358333335,"instrument":6,"program":24},{"pitch":66,"velocity":76,"startTime":157.173934,"endTime":157.30980358333335,"instrument":6,"program":24},{"pitch":69,"velocity":76,"startTime":157.173934,"endTime":157.30980358333335,"instrument":6,"program":24},{"pitch":72,"velocity":76,"startTime":157.173934,"endTime":157.30980358333335,"instrument":6,"program":24},{"pitch":62,"velocity":76,"startTime":157.826108,"endTime":157.96197758333332,"instrument":6,"program":24},{"pitch":66,"velocity":76,"startTime":157.826108,"endTime":157.96197758333332,"instrument":6,"program":24},{"pitch":69,"velocity":76,"startTime":157.826108,"endTime":157.96197758333332,"instrument":6,"program":24},{"pitch":72,"velocity":76,"startTime":157.826108,"endTime":157.96197758333332,"instrument":6,"program":24},{"pitch":62,"velocity":76,"startTime":158.478282,"endTime":158.61415158333335,"instrument":6,"program":24},{"pitch":66,"velocity":76,"startTime":158.478282,"endTime":158.61415158333335,"instrument":6,"program":24},{"pitch":69,"velocity":76,"startTime":158.478282,"endTime":158.61415158333335,"instrument":6,"program":24},{"pitch":72,"velocity":76,"startTime":158.478282,"endTime":158.61415158333335,"instrument":6,"program":24},{"pitch":62,"velocity":76,"startTime":158.804369,"endTime":159.24594514583333,"instrument":6,"program":24},{"pitch":66,"velocity":76,"startTime":158.804369,"endTime":159.24594514583333,"instrument":6,"program":24},{"pitch":69,"velocity":76,"startTime":158.804369,"endTime":159.24594514583333,"instrument":6,"program":24},{"pitch":72,"velocity":76,"startTime":158.804369,"endTime":159.24594514583333,"instrument":6,"program":24},{"pitch":62,"velocity":76,"startTime":159.78263,"endTime":159.91849958333336,"instrument":6,"program":24},{"pitch":66,"velocity":76,"startTime":159.78263,"endTime":159.91849958333336,"instrument":6,"program":24},{"pitch":69,"velocity":76,"startTime":159.78263,"endTime":159.91849958333336,"instrument":6,"program":24},{"pitch":72,"velocity":76,"startTime":159.78263,"endTime":159.91849958333336,"instrument":6,"program":24},{"pitch":62,"velocity":76,"startTime":160.434804,"endTime":160.57067358333336,"instrument":6,"program":24},{"pitch":66,"velocity":76,"startTime":160.434804,"endTime":160.57067358333336,"instrument":6,"program":24},{"pitch":69,"velocity":76,"startTime":160.434804,"endTime":160.57067358333336,"instrument":6,"program":24},{"pitch":72,"velocity":76,"startTime":160.434804,"endTime":160.57067358333336,"instrument":6,"program":24},{"pitch":62,"velocity":76,"startTime":161.08697800000002,"endTime":161.22284758333336,"instrument":6,"program":24},{"pitch":66,"velocity":76,"startTime":161.08697800000002,"endTime":161.22284758333336,"instrument":6,"program":24},{"pitch":69,"velocity":76,"startTime":161.08697800000002,"endTime":161.22284758333336,"instrument":6,"program":24},{"pitch":72,"velocity":76,"startTime":161.08697800000002,"endTime":161.22284758333336,"instrument":6,"program":24},{"pitch":62,"velocity":76,"startTime":161.413065,"endTime":161.85464114583334,"instrument":6,"program":24},{"pitch":67,"velocity":76,"startTime":161.413065,"endTime":161.85464114583334,"instrument":6,"program":24},{"pitch":70,"velocity":76,"startTime":161.413065,"endTime":161.85464114583334,"instrument":6,"program":24},{"pitch":62,"velocity":76,"startTime":164.67393500000003,"endTime":165.11551114583332,"instrument":6,"program":24},{"pitch":66,"velocity":76,"startTime":165.000022,"endTime":165.44159814583332,"instrument":6,"program":24},{"pitch":69,"velocity":76,"startTime":165.000022,"endTime":165.44159814583332,"instrument":6,"program":24},{"pitch":72,"velocity":76,"startTime":165.000022,"endTime":165.44159814583332,"instrument":6,"program":24},{"pitch":62,"velocity":76,"startTime":165.652196,"endTime":165.78806558333332,"instrument":6,"program":24},{"pitch":67,"velocity":76,"startTime":165.652196,"endTime":165.78806558333332,"instrument":6,"program":24},{"pitch":70,"velocity":76,"startTime":165.652196,"endTime":165.78806558333332,"instrument":6,"program":24},{"pitch":67,"velocity":76,"startTime":166.956544,"endTime":167.06523966666668,"instrument":6,"program":24},{"pitch":66,"velocity":76,"startTime":167.282631,"endTime":167.3845331875,"instrument":6,"program":24},{"pitch":67,"velocity":76,"startTime":167.608718,"endTime":167.731000625,"instrument":6,"program":24},{"pitch":69,"velocity":76,"startTime":167.934805,"endTime":168.0435006666667,"instrument":6,"program":24},{"pitch":70,"velocity":76,"startTime":168.586979,"endTime":169.15763124999998,"instrument":6,"program":24},{"pitch":69,"velocity":76,"startTime":169.23915300000002,"endTime":169.60600087499998,"instrument":6,"program":24},{"pitch":67,"velocity":76,"startTime":169.56524,"endTime":169.71469654166668,"instrument":6,"program":24},{"pitch":63,"velocity":76,"startTime":172.173936,"endTime":172.296218625,"instrument":6,"program":24},{"pitch":62,"velocity":76,"startTime":172.500023,"endTime":172.61551214583335,"instrument":6,"program":24},{"pitch":63,"velocity":76,"startTime":172.82611,"endTime":172.948392625,"instrument":6,"program":24},{"pitch":65,"velocity":76,"startTime":173.152197,"endTime":173.3016535416667,"instrument":6,"program":24},{"pitch":67,"velocity":76,"startTime":173.804371,"endTime":174.3546428125,"instrument":6,"program":24},{"pitch":63,"velocity":76,"startTime":174.456545,"endTime":174.741871125,"instrument":6,"program":24},{"pitch":62,"velocity":76,"startTime":174.78263199999998,"endTime":174.91170810416668,"instrument":6,"program":24},{"pitch":67,"velocity":76,"startTime":177.39132800000002,"endTime":177.5068171458333,"instrument":6,"program":24},{"pitch":66,"velocity":76,"startTime":177.717415,"endTime":177.8193171875,"instrument":6,"program":24},{"pitch":67,"velocity":76,"startTime":178.04350200000002,"endTime":178.1725781041667,"instrument":6,"program":24},{"pitch":69,"velocity":76,"startTime":178.369589,"endTime":178.49187162500002,"instrument":6,"program":24},{"pitch":70,"velocity":76,"startTime":179.021763,"endTime":179.5856217708333,"instrument":6,"program":24},{"pitch":69,"velocity":76,"startTime":179.673937,"endTime":179.98643704166668,"instrument":6,"program":24},{"pitch":67,"velocity":76,"startTime":180.00002400000002,"endTime":180.1494805416667,"instrument":6,"program":24},{"pitch":63,"velocity":76,"startTime":182.60872,"endTime":182.73100262499997,"instrument":6,"program":24},{"pitch":62,"velocity":76,"startTime":182.93480699999998,"endTime":183.05029614583333,"instrument":6,"program":24},{"pitch":63,"velocity":76,"startTime":183.260894,"endTime":183.36958966666668,"instrument":6,"program":24},{"pitch":65,"velocity":76,"startTime":183.58698099999998,"endTime":183.72285058333333,"instrument":6,"program":24},{"pitch":67,"velocity":76,"startTime":184.23915499999998,"endTime":184.84377464583332,"instrument":6,"program":24},{"pitch":63,"velocity":76,"startTime":184.89132899999998,"endTime":185.19024208333335,"instrument":6,"program":24},{"pitch":62,"velocity":76,"startTime":185.21741600000001,"endTime":185.3600790625,"instrument":6,"program":24},{"pitch":62,"velocity":76,"startTime":187.826112,"endTime":187.99594897916668,"instrument":6,"program":24},{"pitch":67,"velocity":76,"startTime":187.826112,"endTime":187.99594897916668,"instrument":6,"program":24},{"pitch":70,"velocity":76,"startTime":187.826112,"endTime":188.00274245833333,"instrument":6,"program":24},{"pitch":62,"velocity":76,"startTime":190.434808,"endTime":190.5978515,"instrument":6,"program":24},{"pitch":66,"velocity":76,"startTime":190.434808,"endTime":190.5978515,"instrument":6,"program":24},{"pitch":69,"velocity":76,"startTime":190.434808,"endTime":190.5978515,"instrument":6,"program":24},{"pitch":72,"velocity":76,"startTime":190.434808,"endTime":190.5978515,"instrument":6,"program":24},{"pitch":62,"velocity":76,"startTime":191.73915599999998,"endTime":191.9021995,"instrument":6,"program":24},{"pitch":66,"velocity":76,"startTime":191.73915599999998,"endTime":191.9021995,"instrument":6,"program":24},{"pitch":69,"velocity":76,"startTime":191.73915599999998,"endTime":191.9021995,"instrument":6,"program":24},{"pitch":72,"velocity":76,"startTime":191.73915599999998,"endTime":191.9021995,"instrument":6,"program":24},{"pitch":62,"velocity":76,"startTime":193.04350399999998,"endTime":193.2065475,"instrument":6,"program":24},{"pitch":66,"velocity":76,"startTime":193.04350399999998,"endTime":193.2065475,"instrument":6,"program":24},{"pitch":69,"velocity":76,"startTime":193.04350399999998,"endTime":193.2065475,"instrument":6,"program":24},{"pitch":72,"velocity":76,"startTime":193.04350399999998,"endTime":193.2065475,"instrument":6,"program":24},{"pitch":62,"velocity":76,"startTime":194.347852,"endTime":194.5108955,"instrument":6,"program":24},{"pitch":66,"velocity":76,"startTime":194.347852,"endTime":194.5108955,"instrument":6,"program":24},{"pitch":69,"velocity":76,"startTime":194.347852,"endTime":194.5108955,"instrument":6,"program":24},{"pitch":72,"velocity":76,"startTime":194.347852,"endTime":194.5108955,"instrument":6,"program":24},{"pitch":62,"velocity":76,"startTime":195.65220000000002,"endTime":195.81524349999998,"instrument":6,"program":24},{"pitch":67,"velocity":76,"startTime":195.65220000000002,"endTime":195.81524349999998,"instrument":6,"program":24},{"pitch":70,"velocity":76,"startTime":195.65220000000002,"endTime":195.81524349999998,"instrument":6,"program":24},{"pitch":62,"velocity":76,"startTime":196.95654800000003,"endTime":197.11959149999998,"instrument":6,"program":24},{"pitch":67,"velocity":76,"startTime":196.95654800000003,"endTime":197.11959149999998,"instrument":6,"program":24},{"pitch":70,"velocity":76,"startTime":196.95654800000003,"endTime":197.11959149999998,"instrument":6,"program":24},{"pitch":62,"velocity":76,"startTime":198.260896,"endTime":198.4239395,"instrument":6,"program":24},{"pitch":67,"velocity":76,"startTime":198.260896,"endTime":198.4239395,"instrument":6,"program":24},{"pitch":70,"velocity":76,"startTime":198.260896,"endTime":198.4239395,"instrument":6,"program":24},{"pitch":62,"velocity":76,"startTime":199.565244,"endTime":199.7282875,"instrument":6,"program":24},{"pitch":67,"velocity":76,"startTime":199.565244,"endTime":199.7282875,"instrument":6,"program":24},{"pitch":70,"velocity":76,"startTime":199.565244,"endTime":199.7282875,"instrument":6,"program":24},{"pitch":62,"velocity":76,"startTime":200.869592,"endTime":201.03263550000003,"instrument":6,"program":24},{"pitch":66,"velocity":76,"startTime":200.869592,"endTime":201.03263550000003,"instrument":6,"program":24},{"pitch":69,"velocity":76,"startTime":200.869592,"endTime":201.03263550000003,"instrument":6,"program":24},{"pitch":72,"velocity":76,"startTime":200.869592,"endTime":201.03263550000003,"instrument":6,"program":24},{"pitch":62,"velocity":76,"startTime":202.17394000000002,"endTime":202.33698350000003,"instrument":6,"program":24},{"pitch":66,"velocity":76,"startTime":202.17394000000002,"endTime":202.33698350000003,"instrument":6,"program":24},{"pitch":69,"velocity":76,"startTime":202.17394000000002,"endTime":202.33698350000003,"instrument":6,"program":24},{"pitch":72,"velocity":76,"startTime":202.17394000000002,"endTime":202.33698350000003,"instrument":6,"program":24},{"pitch":62,"velocity":76,"startTime":203.47828800000002,"endTime":203.6413315,"instrument":6,"program":24},{"pitch":66,"velocity":76,"startTime":203.47828800000002,"endTime":203.6413315,"instrument":6,"program":24},{"pitch":69,"velocity":76,"startTime":203.47828800000002,"endTime":203.6413315,"instrument":6,"program":24},{"pitch":72,"velocity":76,"startTime":203.47828800000002,"endTime":203.6413315,"instrument":6,"program":24},{"pitch":62,"velocity":76,"startTime":204.782636,"endTime":204.9456795,"instrument":6,"program":24},{"pitch":66,"velocity":76,"startTime":204.782636,"endTime":204.9456795,"instrument":6,"program":24},{"pitch":69,"velocity":76,"startTime":204.782636,"endTime":204.9456795,"instrument":6,"program":24},{"pitch":72,"velocity":76,"startTime":204.782636,"endTime":204.9456795,"instrument":6,"program":24},{"pitch":62,"velocity":76,"startTime":206.086984,"endTime":206.25002750000002,"instrument":6,"program":24},{"pitch":67,"velocity":76,"startTime":206.086984,"endTime":206.25002750000002,"instrument":6,"program":24},{"pitch":70,"velocity":76,"startTime":206.086984,"endTime":206.25002750000002,"instrument":6,"program":24},{"pitch":62,"velocity":76,"startTime":206.41307100000003,"endTime":207.2282885,"instrument":6,"program":24},{"pitch":66,"velocity":76,"startTime":206.739158,"endTime":207.187527625,"instrument":6,"program":24},{"pitch":69,"velocity":76,"startTime":206.739158,"endTime":207.20111458333332,"instrument":6,"program":24},{"pitch":72,"velocity":76,"startTime":206.739158,"endTime":207.16035370833333,"instrument":6,"program":24},{"pitch":62,"velocity":76,"startTime":207.391332,"endTime":207.55437550000002,"instrument":6,"program":24},{"pitch":67,"velocity":76,"startTime":207.391332,"endTime":207.55437550000002,"instrument":6,"program":24},{"pitch":70,"velocity":76,"startTime":207.391332,"endTime":207.55437550000002,"instrument":6,"program":24},{"pitch":62,"velocity":76,"startTime":208.69568,"endTime":208.8315495833333,"instrument":6,"program":24},{"pitch":66,"velocity":76,"startTime":208.69568,"endTime":208.8315495833333,"instrument":6,"program":24},{"pitch":69,"velocity":76,"startTime":208.69568,"endTime":208.8315495833333,"instrument":6,"program":24},{"pitch":72,"velocity":76,"startTime":208.69568,"endTime":208.8315495833333,"instrument":6,"program":24},{"pitch":62,"velocity":76,"startTime":209.34785399999998,"endTime":209.4837235833333,"instrument":6,"program":24},{"pitch":66,"velocity":76,"startTime":209.34785399999998,"endTime":209.4837235833333,"instrument":6,"program":24},{"pitch":69,"velocity":76,"startTime":209.34785399999998,"endTime":209.4837235833333,"instrument":6,"program":24},{"pitch":72,"velocity":76,"startTime":209.34785399999998,"endTime":209.4837235833333,"instrument":6,"program":24},{"pitch":62,"velocity":76,"startTime":210.000028,"endTime":210.1358975833333,"instrument":6,"program":24},{"pitch":66,"velocity":76,"startTime":210.000028,"endTime":210.1358975833333,"instrument":6,"program":24},{"pitch":69,"velocity":76,"startTime":210.000028,"endTime":210.1358975833333,"instrument":6,"program":24},{"pitch":72,"velocity":76,"startTime":210.000028,"endTime":210.1358975833333,"instrument":6,"program":24},{"pitch":62,"velocity":76,"startTime":210.652202,"endTime":210.78807158333333,"instrument":6,"program":24},{"pitch":66,"velocity":76,"startTime":210.652202,"endTime":210.78807158333333,"instrument":6,"program":24},{"pitch":69,"velocity":76,"startTime":210.652202,"endTime":210.78807158333333,"instrument":6,"program":24},{"pitch":72,"velocity":76,"startTime":210.652202,"endTime":210.78807158333333,"instrument":6,"program":24},{"pitch":62,"velocity":76,"startTime":210.97828900000002,"endTime":211.4198651458333,"instrument":6,"program":24},{"pitch":66,"velocity":76,"startTime":210.97828900000002,"endTime":211.4198651458333,"instrument":6,"program":24},{"pitch":69,"velocity":76,"startTime":210.97828900000002,"endTime":211.4198651458333,"instrument":6,"program":24},{"pitch":72,"velocity":76,"startTime":210.97828900000002,"endTime":211.4198651458333,"instrument":6,"program":24},{"pitch":62,"velocity":76,"startTime":211.95655,"endTime":212.09241958333334,"instrument":6,"program":24},{"pitch":66,"velocity":76,"startTime":211.95655,"endTime":212.09241958333334,"instrument":6,"program":24},{"pitch":69,"velocity":76,"startTime":211.95655,"endTime":212.09241958333334,"instrument":6,"program":24},{"pitch":72,"velocity":76,"startTime":211.95655,"endTime":212.09241958333334,"instrument":6,"program":24},{"pitch":62,"velocity":76,"startTime":212.608724,"endTime":212.74459358333334,"instrument":6,"program":24},{"pitch":66,"velocity":76,"startTime":212.608724,"endTime":212.74459358333334,"instrument":6,"program":24},{"pitch":69,"velocity":76,"startTime":212.608724,"endTime":212.74459358333334,"instrument":6,"program":24},{"pitch":72,"velocity":76,"startTime":212.608724,"endTime":212.74459358333334,"instrument":6,"program":24},{"pitch":62,"velocity":76,"startTime":213.260898,"endTime":213.39676758333334,"instrument":6,"program":24},{"pitch":66,"velocity":76,"startTime":213.260898,"endTime":213.39676758333334,"instrument":6,"program":24},{"pitch":69,"velocity":76,"startTime":213.260898,"endTime":213.39676758333334,"instrument":6,"program":24},{"pitch":72,"velocity":76,"startTime":213.260898,"endTime":213.39676758333334,"instrument":6,"program":24},{"pitch":62,"velocity":76,"startTime":213.586985,"endTime":214.02856114583332,"instrument":6,"program":24},{"pitch":67,"velocity":76,"startTime":213.586985,"endTime":214.02856114583332,"instrument":6,"program":24},{"pitch":70,"velocity":76,"startTime":213.586985,"endTime":214.02856114583332,"instrument":6,"program":24},{"pitch":62,"velocity":76,"startTime":214.565246,"endTime":214.70111558333335,"instrument":6,"program":24},{"pitch":67,"velocity":76,"startTime":214.565246,"endTime":214.70111558333335,"instrument":6,"program":24},{"pitch":70,"velocity":76,"startTime":214.565246,"endTime":214.70111558333335,"instrument":6,"program":24},{"pitch":62,"velocity":76,"startTime":215.21741999999998,"endTime":215.35328958333332,"instrument":6,"program":24},{"pitch":67,"velocity":76,"startTime":215.21741999999998,"endTime":215.35328958333332,"instrument":6,"program":24},{"pitch":70,"velocity":76,"startTime":215.21741999999998,"endTime":215.35328958333332,"instrument":6,"program":24},{"pitch":62,"velocity":76,"startTime":215.86959399999998,"endTime":216.00546358333332,"instrument":6,"program":24},{"pitch":67,"velocity":76,"startTime":215.86959399999998,"endTime":216.00546358333332,"instrument":6,"program":24},{"pitch":70,"velocity":76,"startTime":215.86959399999998,"endTime":216.00546358333332,"instrument":6,"program":24},{"pitch":62,"velocity":76,"startTime":216.195681,"endTime":216.63725714583333,"instrument":6,"program":24},{"pitch":67,"velocity":76,"startTime":216.195681,"endTime":216.63725714583333,"instrument":6,"program":24},{"pitch":70,"velocity":76,"startTime":216.195681,"endTime":216.63725714583333,"instrument":6,"program":24},{"pitch":62,"velocity":76,"startTime":217.173942,"endTime":217.30981158333333,"instrument":6,"program":24},{"pitch":67,"velocity":76,"startTime":217.173942,"endTime":217.30981158333333,"instrument":6,"program":24},{"pitch":70,"velocity":76,"startTime":217.173942,"endTime":217.30981158333333,"instrument":6,"program":24},{"pitch":62,"velocity":76,"startTime":217.826116,"endTime":217.96198558333333,"instrument":6,"program":24},{"pitch":67,"velocity":76,"startTime":217.826116,"endTime":217.96198558333333,"instrument":6,"program":24},{"pitch":70,"velocity":76,"startTime":217.826116,"endTime":217.96198558333333,"instrument":6,"program":24},{"pitch":62,"velocity":76,"startTime":218.47829000000002,"endTime":218.61415958333333,"instrument":6,"program":24},{"pitch":67,"velocity":76,"startTime":218.47829000000002,"endTime":218.61415958333333,"instrument":6,"program":24},{"pitch":70,"velocity":76,"startTime":218.47829000000002,"endTime":218.61415958333333,"instrument":6,"program":24},{"pitch":62,"velocity":76,"startTime":218.804377,"endTime":219.2459531458333,"instrument":6,"program":24},{"pitch":66,"velocity":76,"startTime":218.804377,"endTime":219.2459531458333,"instrument":6,"program":24},{"pitch":69,"velocity":76,"startTime":218.804377,"endTime":219.2459531458333,"instrument":6,"program":24},{"pitch":72,"velocity":76,"startTime":218.804377,"endTime":219.2459531458333,"instrument":6,"program":24},{"pitch":62,"velocity":76,"startTime":219.78263800000002,"endTime":219.91850758333334,"instrument":6,"program":24},{"pitch":66,"velocity":76,"startTime":219.78263800000002,"endTime":219.91850758333334,"instrument":6,"program":24},{"pitch":69,"velocity":76,"startTime":219.78263800000002,"endTime":219.91850758333334,"instrument":6,"program":24},{"pitch":72,"velocity":76,"startTime":219.78263800000002,"endTime":219.91850758333334,"instrument":6,"program":24},{"pitch":62,"velocity":76,"startTime":220.43481200000002,"endTime":220.5706815833333,"instrument":6,"program":24},{"pitch":66,"velocity":76,"startTime":220.43481200000002,"endTime":220.5706815833333,"instrument":6,"program":24},{"pitch":69,"velocity":76,"startTime":220.43481200000002,"endTime":220.5706815833333,"instrument":6,"program":24},{"pitch":72,"velocity":76,"startTime":220.43481200000002,"endTime":220.5706815833333,"instrument":6,"program":24},{"pitch":62,"velocity":76,"startTime":221.08698600000002,"endTime":221.2228555833333,"instrument":6,"program":24},{"pitch":66,"velocity":76,"startTime":221.08698600000002,"endTime":221.2228555833333,"instrument":6,"program":24},{"pitch":69,"velocity":76,"startTime":221.08698600000002,"endTime":221.2228555833333,"instrument":6,"program":24},{"pitch":72,"velocity":76,"startTime":221.08698600000002,"endTime":221.2228555833333,"instrument":6,"program":24},{"pitch":62,"velocity":76,"startTime":221.413073,"endTime":221.85464914583332,"instrument":6,"program":24},{"pitch":66,"velocity":76,"startTime":221.413073,"endTime":221.85464914583332,"instrument":6,"program":24},{"pitch":69,"velocity":76,"startTime":221.413073,"endTime":221.85464914583332,"instrument":6,"program":24},{"pitch":72,"velocity":76,"startTime":221.413073,"endTime":221.85464914583332,"instrument":6,"program":24},{"pitch":62,"velocity":76,"startTime":222.391334,"endTime":222.52720358333332,"instrument":6,"program":24},{"pitch":66,"velocity":76,"startTime":222.391334,"endTime":222.52720358333332,"instrument":6,"program":24},{"pitch":69,"velocity":76,"startTime":222.391334,"endTime":222.52720358333332,"instrument":6,"program":24},{"pitch":72,"velocity":76,"startTime":222.391334,"endTime":222.52720358333332,"instrument":6,"program":24},{"pitch":62,"velocity":76,"startTime":223.043508,"endTime":223.17937758333332,"instrument":6,"program":24},{"pitch":66,"velocity":76,"startTime":223.043508,"endTime":223.17937758333332,"instrument":6,"program":24},{"pitch":69,"velocity":76,"startTime":223.043508,"endTime":223.17937758333332,"instrument":6,"program":24},{"pitch":72,"velocity":76,"startTime":223.043508,"endTime":223.17937758333332,"instrument":6,"program":24},{"pitch":62,"velocity":76,"startTime":223.695682,"endTime":223.83155158333332,"instrument":6,"program":24},{"pitch":66,"velocity":76,"startTime":223.695682,"endTime":223.83155158333332,"instrument":6,"program":24},{"pitch":69,"velocity":76,"startTime":223.695682,"endTime":223.83155158333332,"instrument":6,"program":24},{"pitch":72,"velocity":76,"startTime":223.695682,"endTime":223.83155158333332,"instrument":6,"program":24},{"pitch":62,"velocity":76,"startTime":224.02176899999998,"endTime":224.46334514583333,"instrument":6,"program":24},{"pitch":67,"velocity":76,"startTime":224.02176899999998,"endTime":224.46334514583333,"instrument":6,"program":24},{"pitch":70,"velocity":76,"startTime":224.02176899999998,"endTime":224.46334514583333,"instrument":6,"program":24},{"pitch":62,"velocity":76,"startTime":225.00003,"endTime":225.13589958333333,"instrument":6,"program":24},{"pitch":67,"velocity":76,"startTime":225.00003,"endTime":225.13589958333333,"instrument":6,"program":24},{"pitch":70,"velocity":76,"startTime":225.00003,"endTime":225.13589958333333,"instrument":6,"program":24},{"pitch":62,"velocity":76,"startTime":225.652204,"endTime":225.78807358333333,"instrument":6,"program":24},{"pitch":67,"velocity":76,"startTime":225.652204,"endTime":225.78807358333333,"instrument":6,"program":24},{"pitch":70,"velocity":76,"startTime":225.652204,"endTime":225.78807358333333,"instrument":6,"program":24},{"pitch":62,"velocity":76,"startTime":226.304378,"endTime":226.4402475833333,"instrument":6,"program":24},{"pitch":67,"velocity":76,"startTime":226.304378,"endTime":226.4402475833333,"instrument":6,"program":24},{"pitch":70,"velocity":76,"startTime":226.304378,"endTime":226.4402475833333,"instrument":6,"program":24},{"pitch":62,"velocity":76,"startTime":226.630465,"endTime":227.07204114583334,"instrument":6,"program":24},{"pitch":67,"velocity":76,"startTime":226.630465,"endTime":227.07204114583334,"instrument":6,"program":24},{"pitch":70,"velocity":76,"startTime":226.630465,"endTime":227.07204114583334,"instrument":6,"program":24},{"pitch":62,"velocity":76,"startTime":227.608726,"endTime":227.7445955833333,"instrument":6,"program":24},{"pitch":67,"velocity":76,"startTime":227.608726,"endTime":227.7445955833333,"instrument":6,"program":24},{"pitch":70,"velocity":76,"startTime":227.608726,"endTime":227.7445955833333,"instrument":6,"program":24},{"pitch":62,"velocity":76,"startTime":228.2609,"endTime":228.3967695833333,"instrument":6,"program":24},{"pitch":67,"velocity":76,"startTime":228.2609,"endTime":228.3967695833333,"instrument":6,"program":24},{"pitch":70,"velocity":76,"startTime":228.2609,"endTime":228.3967695833333,"instrument":6,"program":24},{"pitch":62,"velocity":76,"startTime":228.913074,"endTime":229.0489435833333,"instrument":6,"program":24},{"pitch":67,"velocity":76,"startTime":228.913074,"endTime":229.0489435833333,"instrument":6,"program":24},{"pitch":70,"velocity":76,"startTime":228.913074,"endTime":229.0489435833333,"instrument":6,"program":24},{"pitch":63,"velocity":76,"startTime":229.23916100000002,"endTime":229.68073714583332,"instrument":6,"program":24},{"pitch":67,"velocity":76,"startTime":229.23916100000002,"endTime":229.68073714583332,"instrument":6,"program":24},{"pitch":72,"velocity":76,"startTime":229.23916100000002,"endTime":229.68073714583332,"instrument":6,"program":24},{"pitch":63,"velocity":76,"startTime":230.217422,"endTime":230.35329158333332,"instrument":6,"program":24},{"pitch":67,"velocity":76,"startTime":230.217422,"endTime":230.35329158333332,"instrument":6,"program":24},{"pitch":72,"velocity":76,"startTime":230.217422,"endTime":230.35329158333332,"instrument":6,"program":24},{"pitch":63,"velocity":76,"startTime":230.869596,"endTime":231.00546558333332,"instrument":6,"program":24},{"pitch":67,"velocity":76,"startTime":230.869596,"endTime":231.00546558333332,"instrument":6,"program":24},{"pitch":72,"velocity":76,"startTime":230.869596,"endTime":231.00546558333332,"instrument":6,"program":24},{"pitch":63,"velocity":76,"startTime":231.52177,"endTime":231.65763958333335,"instrument":6,"program":24},{"pitch":67,"velocity":76,"startTime":231.52177,"endTime":231.65763958333335,"instrument":6,"program":24},{"pitch":72,"velocity":76,"startTime":231.52177,"endTime":231.65763958333335,"instrument":6,"program":24},{"pitch":63,"velocity":76,"startTime":231.847857,"endTime":232.28943314583333,"instrument":6,"program":24},{"pitch":67,"velocity":76,"startTime":231.847857,"endTime":232.28943314583333,"instrument":6,"program":24},{"pitch":72,"velocity":76,"startTime":231.847857,"endTime":232.28943314583333,"instrument":6,"program":24},{"pitch":63,"velocity":76,"startTime":232.82611799999998,"endTime":232.96198758333333,"instrument":6,"program":24},{"pitch":67,"velocity":76,"startTime":232.82611799999998,"endTime":232.96198758333333,"instrument":6,"program":24},{"pitch":72,"velocity":76,"startTime":232.82611799999998,"endTime":232.96198758333333,"instrument":6,"program":24},{"pitch":63,"velocity":76,"startTime":233.47829199999998,"endTime":233.61416158333333,"instrument":6,"program":24},{"pitch":67,"velocity":76,"startTime":233.47829199999998,"endTime":233.61416158333333,"instrument":6,"program":24},{"pitch":72,"velocity":76,"startTime":233.47829199999998,"endTime":233.61416158333333,"instrument":6,"program":24},{"pitch":63,"velocity":76,"startTime":234.13046599999998,"endTime":234.26633558333333,"instrument":6,"program":24},{"pitch":67,"velocity":76,"startTime":234.13046599999998,"endTime":234.26633558333333,"instrument":6,"program":24},{"pitch":72,"velocity":76,"startTime":234.13046599999998,"endTime":234.26633558333333,"instrument":6,"program":24},{"pitch":62,"velocity":76,"startTime":234.456553,"endTime":234.8981291458333,"instrument":6,"program":24},{"pitch":67,"velocity":76,"startTime":234.456553,"endTime":234.8981291458333,"instrument":6,"program":24},{"pitch":70,"velocity":76,"startTime":234.456553,"endTime":234.8981291458333,"instrument":6,"program":24},{"pitch":62,"velocity":76,"startTime":235.434814,"endTime":235.57068358333333,"instrument":6,"program":24},{"pitch":67,"velocity":76,"startTime":235.434814,"endTime":235.57068358333333,"instrument":6,"program":24},{"pitch":70,"velocity":76,"startTime":235.434814,"endTime":235.57068358333333,"instrument":6,"program":24},{"pitch":62,"velocity":76,"startTime":236.086988,"endTime":236.22285758333334,"instrument":6,"program":24},{"pitch":67,"velocity":76,"startTime":236.086988,"endTime":236.22285758333334,"instrument":6,"program":24},{"pitch":70,"velocity":76,"startTime":236.086988,"endTime":236.22285758333334,"instrument":6,"program":24},{"pitch":62,"velocity":76,"startTime":236.739162,"endTime":236.87503158333334,"instrument":6,"program":24},{"pitch":67,"velocity":76,"startTime":236.739162,"endTime":236.87503158333334,"instrument":6,"program":24},{"pitch":70,"velocity":76,"startTime":236.739162,"endTime":236.87503158333334,"instrument":6,"program":24},{"pitch":62,"velocity":76,"startTime":237.065249,"endTime":237.50682514583332,"instrument":6,"program":24},{"pitch":67,"velocity":76,"startTime":237.065249,"endTime":237.50682514583332,"instrument":6,"program":24},{"pitch":70,"velocity":76,"startTime":237.065249,"endTime":237.50682514583332,"instrument":6,"program":24},{"pitch":62,"velocity":76,"startTime":238.04351000000003,"endTime":238.17937958333334,"instrument":6,"program":24},{"pitch":67,"velocity":76,"startTime":238.04351000000003,"endTime":238.17937958333334,"instrument":6,"program":24},{"pitch":70,"velocity":76,"startTime":238.04351000000003,"endTime":238.17937958333334,"instrument":6,"program":24},{"pitch":62,"velocity":76,"startTime":238.69568400000003,"endTime":238.83155358333332,"instrument":6,"program":24},{"pitch":67,"velocity":76,"startTime":238.69568400000003,"endTime":238.83155358333332,"instrument":6,"program":24},{"pitch":70,"velocity":76,"startTime":238.69568400000003,"endTime":238.83155358333332,"instrument":6,"program":24},{"pitch":62,"velocity":76,"startTime":239.34785800000003,"endTime":239.48372758333332,"instrument":6,"program":24},{"pitch":67,"velocity":76,"startTime":239.34785800000003,"endTime":239.48372758333332,"instrument":6,"program":24},{"pitch":70,"velocity":76,"startTime":239.34785800000003,"endTime":239.48372758333332,"instrument":6,"program":24},{"pitch":62,"velocity":76,"startTime":239.673945,"endTime":240.1155211458333,"instrument":6,"program":24},{"pitch":66,"velocity":76,"startTime":239.673945,"endTime":240.1155211458333,"instrument":6,"program":24},{"pitch":69,"velocity":76,"startTime":239.673945,"endTime":240.1155211458333,"instrument":6,"program":24},{"pitch":72,"velocity":76,"startTime":239.673945,"endTime":240.1155211458333,"instrument":6,"program":24},{"pitch":62,"velocity":76,"startTime":240.652206,"endTime":240.78807558333332,"instrument":6,"program":24},{"pitch":66,"velocity":76,"startTime":240.652206,"endTime":240.78807558333332,"instrument":6,"program":24},{"pitch":69,"velocity":76,"startTime":240.652206,"endTime":240.78807558333332,"instrument":6,"program":24},{"pitch":72,"velocity":76,"startTime":240.652206,"endTime":240.78807558333332,"instrument":6,"program":24},{"pitch":62,"velocity":76,"startTime":241.30438,"endTime":241.44024958333333,"instrument":6,"program":24},{"pitch":66,"velocity":76,"startTime":241.30438,"endTime":241.44024958333333,"instrument":6,"program":24},{"pitch":69,"velocity":76,"startTime":241.30438,"endTime":241.44024958333333,"instrument":6,"program":24},{"pitch":72,"velocity":76,"startTime":241.30438,"endTime":241.44024958333333,"instrument":6,"program":24},{"pitch":62,"velocity":76,"startTime":241.956554,"endTime":242.09242358333333,"instrument":6,"program":24},{"pitch":66,"velocity":76,"startTime":241.956554,"endTime":242.09242358333333,"instrument":6,"program":24},{"pitch":69,"velocity":76,"startTime":241.956554,"endTime":242.09242358333333,"instrument":6,"program":24},{"pitch":72,"velocity":76,"startTime":241.956554,"endTime":242.09242358333333,"instrument":6,"program":24},{"pitch":62,"velocity":76,"startTime":242.28264099999998,"endTime":242.7242171458333,"instrument":6,"program":24},{"pitch":66,"velocity":76,"startTime":242.28264099999998,"endTime":242.7242171458333,"instrument":6,"program":24},{"pitch":69,"velocity":76,"startTime":242.28264099999998,"endTime":242.7242171458333,"instrument":6,"program":24},{"pitch":72,"velocity":76,"startTime":242.28264099999998,"endTime":242.7242171458333,"instrument":6,"program":24},{"pitch":62,"velocity":76,"startTime":243.26090200000002,"endTime":243.39677158333333,"instrument":6,"program":24},{"pitch":66,"velocity":76,"startTime":243.26090200000002,"endTime":243.39677158333333,"instrument":6,"program":24},{"pitch":69,"velocity":76,"startTime":243.26090200000002,"endTime":243.39677158333333,"instrument":6,"program":24},{"pitch":72,"velocity":76,"startTime":243.26090200000002,"endTime":243.39677158333333,"instrument":6,"program":24},{"pitch":62,"velocity":76,"startTime":243.91307600000002,"endTime":244.0489455833333,"instrument":6,"program":24},{"pitch":66,"velocity":76,"startTime":243.91307600000002,"endTime":244.0489455833333,"instrument":6,"program":24},{"pitch":69,"velocity":76,"startTime":243.91307600000002,"endTime":244.0489455833333,"instrument":6,"program":24},{"pitch":72,"velocity":76,"startTime":243.91307600000002,"endTime":244.0489455833333,"instrument":6,"program":24},{"pitch":62,"velocity":76,"startTime":244.56525000000002,"endTime":244.7011195833333,"instrument":6,"program":24},{"pitch":66,"velocity":76,"startTime":244.56525000000002,"endTime":244.7011195833333,"instrument":6,"program":24},{"pitch":69,"velocity":76,"startTime":244.56525000000002,"endTime":244.7011195833333,"instrument":6,"program":24},{"pitch":72,"velocity":76,"startTime":244.56525000000002,"endTime":244.7011195833333,"instrument":6,"program":24},{"pitch":62,"velocity":76,"startTime":244.891337,"endTime":245.33291314583334,"instrument":6,"program":24},{"pitch":67,"velocity":76,"startTime":244.891337,"endTime":245.33291314583334,"instrument":6,"program":24},{"pitch":70,"velocity":76,"startTime":244.891337,"endTime":245.33291314583334,"instrument":6,"program":24},{"pitch":62,"velocity":76,"startTime":248.15220700000003,"endTime":248.59378314583333,"instrument":6,"program":24},{"pitch":66,"velocity":76,"startTime":248.478294,"endTime":248.91987014583333,"instrument":6,"program":24},{"pitch":69,"velocity":76,"startTime":248.478294,"endTime":248.91987014583333,"instrument":6,"program":24},{"pitch":72,"velocity":76,"startTime":248.478294,"endTime":248.91987014583333,"instrument":6,"program":24},{"pitch":62,"velocity":76,"startTime":249.130468,"endTime":249.26633758333332,"instrument":6,"program":24},{"pitch":67,"velocity":76,"startTime":249.130468,"endTime":249.26633758333332,"instrument":6,"program":24},{"pitch":70,"velocity":76,"startTime":249.130468,"endTime":249.26633758333332,"instrument":6,"program":24},{"pitch":57,"velocity":56,"endTime":5.217392,"instrument":7,"program":99},{"pitch":60,"velocity":56,"endTime":5.190218083333333,"instrument":7,"program":99},{"pitch":62,"velocity":56,"endTime":5.163044166666666,"instrument":7,"program":99},{"pitch":66,"velocity":56,"endTime":5.190218083333333,"instrument":7,"program":99},{"pitch":58,"velocity":56,"startTime":5.217392,"endTime":10.434784,"instrument":7,"program":99},{"pitch":62,"velocity":56,"startTime":5.217392,"endTime":20.869568,"instrument":7,"program":99},{"pitch":67,"velocity":56,"startTime":5.217392,"endTime":10.434784,"instrument":7,"program":99},{"pitch":60,"velocity":56,"startTime":10.434784,"endTime":15.625002083333333,"instrument":7,"program":99},{"pitch":66,"velocity":56,"startTime":10.434784,"endTime":15.652176,"instrument":7,"program":99},{"pitch":69,"velocity":56,"startTime":10.434784,"endTime":15.625002083333333,"instrument":7,"program":99},{"pitch":58,"velocity":56,"startTime":15.652176,"endTime":20.869568,"instrument":7,"program":99},{"pitch":67,"velocity":56,"startTime":15.652176,"endTime":26.046199124999998,"instrument":7,"program":99},{"pitch":60,"velocity":56,"startTime":20.869568,"endTime":26.032612166666667,"instrument":7,"program":99},{"pitch":63,"velocity":56,"startTime":20.869568,"endTime":26.046199124999998,"instrument":7,"program":99},{"pitch":62,"velocity":56,"startTime":26.08696,"endTime":36.752722291666664,"instrument":7,"program":99},{"pitch":67,"velocity":56,"startTime":26.08696,"endTime":31.263591124999998,"instrument":7,"program":99},{"pitch":70,"velocity":56,"startTime":26.08696,"endTime":31.277178083333332,"instrument":7,"program":99},{"pitch":66,"velocity":56,"startTime":31.304352,"endTime":36.508157041666664,"instrument":7,"program":99},{"pitch":69,"velocity":56,"startTime":31.304352,"endTime":36.5421244375,"instrument":7,"program":99},{"pitch":72,"velocity":56,"startTime":31.304352,"endTime":36.54891791666667,"instrument":7,"program":99},{"pitch":67,"velocity":56,"startTime":36.521744,"endTime":36.79348316666667,"instrument":7,"program":99},{"pitch":70,"velocity":56,"startTime":36.521744,"endTime":36.807070125,"instrument":7,"program":99},{"pitch":62,"velocity":56,"startTime":39.456527,"endTime":40.36685320833333,"instrument":7,"program":99},{"pitch":60,"velocity":56,"startTime":39.782613999999995,"endTime":40.38044016666668,"instrument":7,"program":99},{"pitch":66,"velocity":56,"startTime":39.782613999999995,"endTime":40.36685320833333,"instrument":7,"program":99},{"pitch":58,"velocity":56,"startTime":40.434788000000005,"endTime":40.61821193750001,"instrument":7,"program":99},{"pitch":62,"velocity":56,"startTime":40.434788000000005,"endTime":40.611418458333326,"instrument":7,"program":99},{"pitch":67,"velocity":56,"startTime":40.434788000000005,"endTime":40.611418458333326,"instrument":7,"program":99},{"pitch":57,"velocity":56,"startTime":41.739136,"endTime":46.956528000000006,"instrument":7,"program":99},{"pitch":60,"velocity":56,"startTime":41.739136,"endTime":46.92935408333333,"instrument":7,"program":99},{"pitch":62,"velocity":56,"startTime":41.739136,"endTime":46.90218016666667,"instrument":7,"program":99},{"pitch":66,"velocity":56,"startTime":41.739136,"endTime":46.92935408333333,"instrument":7,"program":99},{"pitch":58,"velocity":56,"startTime":46.956528000000006,"endTime":52.17392,"instrument":7,"program":99},{"pitch":62,"velocity":56,"startTime":46.956528000000006,"endTime":62.608704,"instrument":7,"program":99},{"pitch":67,"velocity":56,"startTime":46.956528000000006,"endTime":52.17392,"instrument":7,"program":99},{"pitch":60,"velocity":56,"startTime":52.17392,"endTime":57.36413808333333,"instrument":7,"program":99},{"pitch":66,"velocity":56,"startTime":52.17392,"endTime":57.391312000000006,"instrument":7,"program":99},{"pitch":69,"velocity":56,"startTime":52.17392,"endTime":57.36413808333333,"instrument":7,"program":99},{"pitch":58,"velocity":56,"startTime":57.391312000000006,"endTime":62.608704,"instrument":7,"program":99},{"pitch":67,"velocity":56,"startTime":57.391312000000006,"endTime":67.785335125,"instrument":7,"program":99},{"pitch":60,"velocity":56,"startTime":62.608704,"endTime":67.77174816666667,"instrument":7,"program":99},{"pitch":63,"velocity":56,"startTime":62.608704,"endTime":67.785335125,"instrument":7,"program":99},{"pitch":62,"velocity":56,"startTime":67.826096,"endTime":78.49185829166667,"instrument":7,"program":99},{"pitch":67,"velocity":56,"startTime":67.826096,"endTime":73.002727125,"instrument":7,"program":99},{"pitch":70,"velocity":56,"startTime":67.826096,"endTime":73.01631408333334,"instrument":7,"program":99},{"pitch":66,"velocity":56,"startTime":73.043488,"endTime":78.24729304166668,"instrument":7,"program":99},{"pitch":69,"velocity":56,"startTime":73.043488,"endTime":78.28126043750001,"instrument":7,"program":99},{"pitch":72,"velocity":56,"startTime":73.043488,"endTime":78.28805391666667,"instrument":7,"program":99},{"pitch":67,"velocity":56,"startTime":78.26088000000001,"endTime":78.53261916666666,"instrument":7,"program":99},{"pitch":70,"velocity":56,"startTime":78.26088000000001,"endTime":78.546206125,"instrument":7,"program":99},{"pitch":62,"velocity":56,"startTime":81.195663,"endTime":82.10598920833334,"instrument":7,"program":99},{"pitch":60,"velocity":56,"startTime":81.52175,"endTime":82.11957616666666,"instrument":7,"program":99},{"pitch":66,"velocity":56,"startTime":81.52175,"endTime":82.10598920833334,"instrument":7,"program":99},{"pitch":58,"velocity":56,"startTime":82.173924,"endTime":82.35734793750001,"instrument":7,"program":99},{"pitch":62,"velocity":56,"startTime":82.173924,"endTime":82.35055445833333,"instrument":7,"program":99},{"pitch":67,"velocity":56,"startTime":82.173924,"endTime":82.35055445833333,"instrument":7,"program":99},{"pitch":43,"velocity":56,"startTime":83.478272,"endTime":84.53805475,"instrument":7,"program":99},{"pitch":55,"velocity":56,"startTime":83.478272,"endTime":84.47011995833334,"instrument":7,"program":99},{"pitch":67,"velocity":56,"startTime":83.478272,"endTime":84.78262,"instrument":7,"program":99},{"pitch":41,"velocity":56,"startTime":84.78262,"endTime":85.84240275,"instrument":7,"program":99},{"pitch":53,"velocity":56,"startTime":84.78262,"endTime":85.66577229166666,"instrument":7,"program":99},{"pitch":65,"velocity":56,"startTime":84.78262,"endTime":86.10055495833335,"instrument":7,"program":99},{"pitch":40,"velocity":56,"startTime":86.086968,"endTime":87.03126160416666,"instrument":7,"program":99},{"pitch":52,"velocity":56,"startTime":86.086968,"endTime":86.89539202083334,"instrument":7,"program":99},{"pitch":64,"velocity":56,"startTime":86.086968,"endTime":87.29620729166666,"instrument":7,"program":99},{"pitch":39,"velocity":56,"startTime":87.391316,"endTime":88.04349,"instrument":7,"program":99},{"pitch":51,"velocity":56,"startTime":87.391316,"endTime":88.002729125,"instrument":7,"program":99},{"pitch":63,"velocity":56,"startTime":87.391316,"endTime":88.07066391666667,"instrument":7,"program":99},{"pitch":38,"velocity":56,"startTime":88.04349,"endTime":88.736424875,"instrument":7,"program":99},{"pitch":50,"velocity":56,"startTime":88.04349,"endTime":88.736424875,"instrument":7,"program":99},{"pitch":62,"velocity":56,"startTime":88.04349,"endTime":88.69566400000001,"instrument":7,"program":99},{"pitch":43,"velocity":56,"startTime":88.69566400000001,"endTime":89.09647927083334,"instrument":7,"program":99},{"pitch":55,"velocity":56,"startTime":88.69566400000001,"endTime":89.0828923125,"instrument":7,"program":99},{"pitch":67,"velocity":56,"startTime":88.69566400000001,"endTime":89.09647927083334,"instrument":7,"program":99},{"pitch":60,"velocity":56,"startTime":91.30436,"endTime":101.40626352083333,"instrument":7,"program":99},{"pitch":62,"velocity":56,"startTime":91.30436,"endTime":104.144035625,"instrument":7,"program":99},{"pitch":66,"velocity":56,"startTime":91.30436,"endTime":101.56930702083335,"instrument":7,"program":99},{"pitch":69,"velocity":56,"startTime":99.130448,"endTime":101.63044833333333,"instrument":7,"program":99},{"pitch":58,"velocity":56,"startTime":101.73914400000001,"endTime":104.23914433333336,"instrument":7,"program":99},{"pitch":67,"velocity":56,"startTime":101.73914400000001,"endTime":104.33425304166667,"instrument":7,"program":99},{"pitch":43,"velocity":56,"startTime":104.34784,"endTime":105.652188,"instrument":7,"program":99},{"pitch":55,"velocity":56,"startTime":104.34784,"endTime":105.62501408333334,"instrument":7,"program":99},{"pitch":67,"velocity":56,"startTime":104.34784,"endTime":105.611427125,"instrument":7,"program":99},{"pitch":41,"velocity":56,"startTime":105.652188,"endTime":106.915775125,"instrument":7,"program":99},{"pitch":53,"velocity":56,"startTime":105.652188,"endTime":106.997296875,"instrument":7,"program":99},{"pitch":65,"velocity":56,"startTime":105.652188,"endTime":106.956536,"instrument":7,"program":99},{"pitch":40,"velocity":56,"startTime":106.956536,"endTime":108.20653616666667,"instrument":7,"program":99},{"pitch":52,"velocity":56,"startTime":106.956536,"endTime":108.23371008333335,"instrument":7,"program":99},{"pitch":64,"velocity":56,"startTime":106.956536,"endTime":108.22691660416666,"instrument":7,"program":99},{"pitch":39,"velocity":56,"startTime":108.260884,"endTime":108.85871016666667,"instrument":7,"program":99},{"pitch":51,"velocity":56,"startTime":108.260884,"endTime":108.83153625,"instrument":7,"program":99},{"pitch":63,"velocity":56,"startTime":108.260884,"endTime":108.90626452083335,"instrument":7,"program":99},{"pitch":38,"velocity":56,"startTime":108.913058,"endTime":109.51088416666667,"instrument":7,"program":99},{"pitch":50,"velocity":56,"startTime":108.913058,"endTime":109.49729720833334,"instrument":7,"program":99},{"pitch":62,"velocity":56,"startTime":108.913058,"endTime":109.55843852083335,"instrument":7,"program":99},{"pitch":43,"velocity":56,"startTime":109.56523200000001,"endTime":109.91849291666666,"instrument":7,"program":99},{"pitch":55,"velocity":56,"startTime":109.56523200000001,"endTime":109.9116994375,"instrument":7,"program":99},{"pitch":67,"velocity":56,"startTime":109.56523200000001,"endTime":109.9524603125,"instrument":7,"program":99},{"pitch":60,"velocity":56,"startTime":112.173928,"endTime":114.986428375,"instrument":7,"program":99},{"pitch":63,"velocity":56,"startTime":112.173928,"endTime":114.986428375,"instrument":7,"program":99},{"pitch":67,"velocity":56,"startTime":112.173928,"endTime":114.986428375,"instrument":7,"program":99},{"pitch":60,"velocity":56,"startTime":115.108711,"endTime":115.28534145833333,"instrument":7,"program":99},{"pitch":63,"velocity":56,"startTime":115.108711,"endTime":115.2717545,"instrument":7,"program":99},{"pitch":67,"velocity":56,"startTime":115.108711,"endTime":115.28534145833333,"instrument":7,"program":99},{"pitch":60,"velocity":56,"startTime":115.760885,"endTime":115.883167625,"instrument":7,"program":99},{"pitch":63,"velocity":56,"startTime":115.760885,"endTime":115.86958066666666,"instrument":7,"program":99},{"pitch":67,"velocity":56,"startTime":115.760885,"endTime":115.87637414583335,"instrument":7,"program":99},{"pitch":60,"velocity":56,"startTime":116.41305899999999,"endTime":116.58968945833334,"instrument":7,"program":99},{"pitch":63,"velocity":56,"startTime":116.41305899999999,"endTime":116.53534162500002,"instrument":7,"program":99},{"pitch":67,"velocity":56,"startTime":116.41305899999999,"endTime":116.54892858333335,"instrument":7,"program":99},{"pitch":60,"velocity":56,"startTime":116.73914599999999,"endTime":116.92936341666666,"instrument":7,"program":99},{"pitch":63,"velocity":56,"startTime":116.73914599999999,"endTime":116.92936341666666,"instrument":7,"program":99},{"pitch":67,"velocity":56,"startTime":116.73914599999999,"endTime":116.92936341666666,"instrument":7,"program":99},{"pitch":58,"velocity":56,"startTime":117.39132000000001,"endTime":117.56795045833333,"instrument":7,"program":99},{"pitch":62,"velocity":56,"startTime":117.39132000000001,"endTime":117.56795045833333,"instrument":7,"program":99},{"pitch":67,"velocity":56,"startTime":117.39132000000001,"endTime":117.54077654166667,"instrument":7,"program":99},{"pitch":58,"velocity":56,"startTime":117.71740700000001,"endTime":117.93479833333335,"instrument":7,"program":99},{"pitch":62,"velocity":56,"startTime":117.71740700000001,"endTime":117.921211375,"instrument":7,"program":99},{"pitch":67,"velocity":56,"startTime":117.71740700000001,"endTime":117.90762441666666,"instrument":7,"program":99},{"pitch":58,"velocity":56,"startTime":118.36958100000001,"endTime":118.49186362500001,"instrument":7,"program":99},{"pitch":62,"velocity":56,"startTime":118.36958100000001,"endTime":118.50545058333334,"instrument":7,"program":99},{"pitch":67,"velocity":56,"startTime":118.36958100000001,"endTime":118.49865710416665,"instrument":7,"program":99},{"pitch":58,"velocity":56,"startTime":119.02175500000001,"endTime":119.1847985,"instrument":7,"program":99},{"pitch":62,"velocity":56,"startTime":119.02175500000001,"endTime":119.19838545833335,"instrument":7,"program":99},{"pitch":67,"velocity":56,"startTime":119.02175500000001,"endTime":119.17121154166666,"instrument":7,"program":99},{"pitch":58,"velocity":56,"startTime":119.34784200000001,"endTime":119.48371158333333,"instrument":7,"program":99},{"pitch":62,"velocity":56,"startTime":119.34784200000001,"endTime":119.5108855,"instrument":7,"program":99},{"pitch":67,"velocity":56,"startTime":119.34784200000001,"endTime":119.51767897916666,"instrument":7,"program":99},{"pitch":60,"velocity":56,"startTime":120.000016,"endTime":120.88316829166668,"instrument":7,"program":99},{"pitch":62,"velocity":56,"startTime":120.000016,"endTime":120.89675525,"instrument":7,"program":99},{"pitch":66,"velocity":56,"startTime":120.000016,"endTime":120.937516125,"instrument":7,"program":99},{"pitch":62,"velocity":56,"startTime":122.934799,"endTime":123.84512520833334,"instrument":7,"program":99},{"pitch":60,"velocity":56,"startTime":123.260886,"endTime":123.88588608333333,"instrument":7,"program":99},{"pitch":66,"velocity":56,"startTime":123.260886,"endTime":123.82474477083335,"instrument":7,"program":99},{"pitch":58,"velocity":56,"startTime":123.91306,"endTime":124.13045133333334,"instrument":7,"program":99},{"pitch":62,"velocity":56,"startTime":123.91306,"endTime":124.1372448125,"instrument":7,"program":99},{"pitch":67,"velocity":56,"startTime":123.91306,"endTime":124.1372448125,"instrument":7,"program":99},{"pitch":57,"velocity":56,"startTime":125.217408,"endTime":130.4348,"instrument":7,"program":99},{"pitch":60,"velocity":56,"startTime":125.217408,"endTime":130.40762608333335,"instrument":7,"program":99},{"pitch":62,"velocity":56,"startTime":125.217408,"endTime":130.38045216666666,"instrument":7,"program":99},{"pitch":66,"velocity":56,"startTime":125.217408,"endTime":130.40762608333335,"instrument":7,"program":99},{"pitch":58,"velocity":56,"startTime":130.4348,"endTime":135.65219199999999,"instrument":7,"program":99},{"pitch":62,"velocity":56,"startTime":130.4348,"endTime":146.086976,"instrument":7,"program":99},{"pitch":67,"velocity":56,"startTime":130.4348,"endTime":135.65219199999999,"instrument":7,"program":99},{"pitch":60,"velocity":56,"startTime":135.65219199999999,"endTime":140.84241008333333,"instrument":7,"program":99},{"pitch":66,"velocity":56,"startTime":135.65219199999999,"endTime":140.869584,"instrument":7,"program":99},{"pitch":69,"velocity":56,"startTime":135.65219199999999,"endTime":140.84241008333333,"instrument":7,"program":99},{"pitch":58,"velocity":56,"startTime":140.869584,"endTime":146.086976,"instrument":7,"program":99},{"pitch":67,"velocity":56,"startTime":140.869584,"endTime":151.263607125,"instrument":7,"program":99},{"pitch":60,"velocity":56,"startTime":146.086976,"endTime":151.25002016666667,"instrument":7,"program":99},{"pitch":63,"velocity":56,"startTime":146.086976,"endTime":151.263607125,"instrument":7,"program":99},{"pitch":62,"velocity":56,"startTime":151.304368,"endTime":161.97013029166666,"instrument":7,"program":99},{"pitch":67,"velocity":56,"startTime":151.304368,"endTime":156.480999125,"instrument":7,"program":99},{"pitch":70,"velocity":56,"startTime":151.304368,"endTime":156.49458608333333,"instrument":7,"program":99},{"pitch":66,"velocity":56,"startTime":156.52176,"endTime":161.72556504166667,"instrument":7,"program":99},{"pitch":69,"velocity":56,"startTime":156.52176,"endTime":161.75953243749998,"instrument":7,"program":99},{"pitch":72,"velocity":56,"startTime":156.52176,"endTime":161.76632591666666,"instrument":7,"program":99},{"pitch":67,"velocity":56,"startTime":161.73915200000002,"endTime":162.01089116666665,"instrument":7,"program":99},{"pitch":70,"velocity":56,"startTime":161.73915200000002,"endTime":162.024478125,"instrument":7,"program":99},{"pitch":62,"velocity":56,"startTime":164.67393500000003,"endTime":165.58426120833332,"instrument":7,"program":99},{"pitch":60,"velocity":56,"startTime":165.000022,"endTime":165.59784816666667,"instrument":7,"program":99},{"pitch":66,"velocity":56,"startTime":165.000022,"endTime":165.58426120833332,"instrument":7,"program":99},{"pitch":58,"velocity":56,"startTime":165.652196,"endTime":165.83561993749998,"instrument":7,"program":99},{"pitch":62,"velocity":56,"startTime":165.652196,"endTime":165.82882645833334,"instrument":7,"program":99},{"pitch":67,"velocity":56,"startTime":165.652196,"endTime":165.82882645833334,"instrument":7,"program":99},{"pitch":43,"velocity":56,"startTime":166.956544,"endTime":167.0244787916667,"instrument":7,"program":99},{"pitch":55,"velocity":56,"startTime":166.956544,"endTime":167.0176853125,"instrument":7,"program":99},{"pitch":67,"velocity":56,"startTime":166.956544,"endTime":167.04485922916666,"instrument":7,"program":99},{"pitch":42,"velocity":56,"startTime":167.282631,"endTime":167.37773970833334,"instrument":7,"program":99},{"pitch":54,"velocity":56,"startTime":167.282631,"endTime":167.3709462291667,"instrument":7,"program":99},{"pitch":66,"velocity":56,"startTime":167.282631,"endTime":167.3845331875,"instrument":7,"program":99},{"pitch":43,"velocity":56,"startTime":167.608718,"endTime":167.7174136666667,"instrument":7,"program":99},{"pitch":55,"velocity":56,"startTime":167.608718,"endTime":167.7038267083333,"instrument":7,"program":99},{"pitch":67,"velocity":56,"startTime":167.608718,"endTime":167.7377941041667,"instrument":7,"program":99},{"pitch":45,"velocity":56,"startTime":167.934805,"endTime":168.28806591666668,"instrument":7,"program":99},{"pitch":57,"velocity":56,"startTime":167.934805,"endTime":168.2812724375,"instrument":7,"program":99},{"pitch":69,"velocity":56,"startTime":167.934805,"endTime":168.3627941875,"instrument":7,"program":99},{"pitch":46,"velocity":56,"startTime":168.586979,"endTime":168.87909860416667,"instrument":7,"program":99},{"pitch":58,"velocity":56,"startTime":168.586979,"endTime":168.872305125,"instrument":7,"program":99},{"pitch":70,"velocity":56,"startTime":168.586979,"endTime":169.0149681875,"instrument":7,"program":99},{"pitch":45,"velocity":56,"startTime":169.23915300000002,"endTime":169.3818160625,"instrument":7,"program":99},{"pitch":57,"velocity":56,"startTime":169.23915300000002,"endTime":169.36143562499998,"instrument":7,"program":99},{"pitch":69,"velocity":56,"startTime":169.23915300000002,"endTime":169.54485956250002,"instrument":7,"program":99},{"pitch":43,"velocity":56,"startTime":169.56524,"endTime":169.73507697916668,"instrument":7,"program":99},{"pitch":55,"velocity":56,"startTime":169.56524,"endTime":169.71469654166668,"instrument":7,"program":99},{"pitch":67,"velocity":56,"startTime":169.56524,"endTime":169.72149002083333,"instrument":7,"program":99},{"pitch":39,"velocity":56,"startTime":172.173936,"endTime":172.3030121041667,"instrument":7,"program":99},{"pitch":51,"velocity":56,"startTime":172.173936,"endTime":172.2690447083333,"instrument":7,"program":99},{"pitch":63,"velocity":56,"startTime":172.173936,"endTime":172.3301860208333,"instrument":7,"program":99},{"pitch":38,"velocity":56,"startTime":172.500023,"endTime":172.622305625,"instrument":7,"program":99},{"pitch":50,"velocity":56,"startTime":172.500023,"endTime":172.6087186666667,"instrument":7,"program":99},{"pitch":62,"velocity":56,"startTime":172.500023,"endTime":172.6494795416667,"instrument":7,"program":99},{"pitch":39,"velocity":56,"startTime":172.82611,"endTime":172.92121870833333,"instrument":7,"program":99},{"pitch":51,"velocity":56,"startTime":172.82611,"endTime":172.9280121875,"instrument":7,"program":99},{"pitch":63,"velocity":56,"startTime":172.82611,"endTime":172.96197958333335,"instrument":7,"program":99},{"pitch":41,"velocity":56,"startTime":173.152197,"endTime":173.4986644375,"instrument":7,"program":99},{"pitch":53,"velocity":56,"startTime":173.152197,"endTime":173.4986644375,"instrument":7,"program":99},{"pitch":65,"velocity":56,"startTime":173.152197,"endTime":173.55301227083334,"instrument":7,"program":99},{"pitch":43,"velocity":56,"startTime":173.804371,"endTime":174.12366452083333,"instrument":7,"program":99},{"pitch":55,"velocity":56,"startTime":173.804371,"endTime":174.0761101666667,"instrument":7,"program":99},{"pitch":67,"velocity":56,"startTime":173.804371,"endTime":174.22556670833333,"instrument":7,"program":99},{"pitch":39,"velocity":56,"startTime":174.456545,"endTime":174.5992080625,"instrument":7,"program":99},{"pitch":51,"velocity":56,"startTime":174.456545,"endTime":174.59241458333332,"instrument":7,"program":99},{"pitch":63,"velocity":56,"startTime":174.456545,"endTime":174.64676241666666,"instrument":7,"program":99},{"pitch":38,"velocity":56,"startTime":174.78263199999998,"endTime":174.95246897916667,"instrument":7,"program":99},{"pitch":50,"velocity":56,"startTime":174.78263199999998,"endTime":174.93888202083332,"instrument":7,"program":99},{"pitch":62,"velocity":56,"startTime":174.78263199999998,"endTime":174.9456755,"instrument":7,"program":99},{"pitch":43,"velocity":56,"startTime":177.39132800000002,"endTime":177.5204041041667,"instrument":7,"program":99},{"pitch":55,"velocity":56,"startTime":177.39132800000002,"endTime":177.50002366666666,"instrument":7,"program":99},{"pitch":67,"velocity":56,"startTime":177.39132800000002,"endTime":177.5339910625,"instrument":7,"program":99},{"pitch":42,"velocity":56,"startTime":177.717415,"endTime":177.80573022916667,"instrument":7,"program":99},{"pitch":54,"velocity":56,"startTime":177.717415,"endTime":177.80573022916667,"instrument":7,"program":99},{"pitch":66,"velocity":56,"startTime":177.717415,"endTime":177.83290414583334,"instrument":7,"program":99},{"pitch":43,"velocity":56,"startTime":178.04350200000002,"endTime":178.13861070833335,"instrument":7,"program":99},{"pitch":55,"velocity":56,"startTime":178.04350200000002,"endTime":178.14540418750002,"instrument":7,"program":99},{"pitch":67,"velocity":56,"startTime":178.04350200000002,"endTime":178.17937158333334,"instrument":7,"program":99},{"pitch":45,"velocity":56,"startTime":178.369589,"endTime":178.74323035416668,"instrument":7,"program":99},{"pitch":57,"velocity":56,"startTime":178.369589,"endTime":178.736436875,"instrument":7,"program":99},{"pitch":69,"velocity":56,"startTime":178.369589,"endTime":178.8043716666667,"instrument":7,"program":99},{"pitch":46,"velocity":56,"startTime":179.021763,"endTime":179.31388260416668,"instrument":7,"program":99},{"pitch":58,"velocity":56,"startTime":179.021763,"endTime":179.2867086875,"instrument":7,"program":99},{"pitch":70,"velocity":56,"startTime":179.021763,"endTime":179.388610875,"instrument":7,"program":99},{"pitch":45,"velocity":56,"startTime":179.673937,"endTime":179.82339354166666,"instrument":7,"program":99},{"pitch":57,"velocity":56,"startTime":179.673937,"endTime":179.8030131041667,"instrument":7,"program":99},{"pitch":69,"velocity":56,"startTime":179.673937,"endTime":179.92529572916666,"instrument":7,"program":99},{"pitch":43,"velocity":56,"startTime":180.00002400000002,"endTime":180.15627402083334,"instrument":7,"program":99},{"pitch":55,"velocity":56,"startTime":180.00002400000002,"endTime":180.1494805416667,"instrument":7,"program":99},{"pitch":67,"velocity":56,"startTime":180.00002400000002,"endTime":180.16986097916666,"instrument":7,"program":99},{"pitch":39,"velocity":56,"startTime":182.60872,"endTime":182.71741566666668,"instrument":7,"program":99},{"pitch":51,"velocity":56,"startTime":182.60872,"endTime":182.69024174999998,"instrument":7,"program":99},{"pitch":63,"velocity":56,"startTime":182.60872,"endTime":182.75817654166667,"instrument":7,"program":99},{"pitch":38,"velocity":56,"startTime":182.93480699999998,"endTime":183.04350266666668,"instrument":7,"program":99},{"pitch":50,"velocity":56,"startTime":182.93480699999998,"endTime":183.03670918749998,"instrument":7,"program":99},{"pitch":62,"velocity":56,"startTime":182.93480699999998,"endTime":183.07067658333332,"instrument":7,"program":99},{"pitch":39,"velocity":56,"startTime":183.260894,"endTime":183.34241575,"instrument":7,"program":99},{"pitch":51,"velocity":56,"startTime":183.260894,"endTime":183.35600270833334,"instrument":7,"program":99},{"pitch":63,"velocity":56,"startTime":183.260894,"endTime":183.38317662499998,"instrument":7,"program":99},{"pitch":41,"velocity":56,"startTime":183.58698099999998,"endTime":183.92665495833333,"instrument":7,"program":99},{"pitch":53,"velocity":56,"startTime":183.58698099999998,"endTime":183.913068,"instrument":7,"program":99},{"pitch":65,"velocity":56,"startTime":183.58698099999998,"endTime":183.97420931250002,"instrument":7,"program":99},{"pitch":43,"velocity":56,"startTime":184.23915499999998,"endTime":184.57882895833333,"instrument":7,"program":99},{"pitch":55,"velocity":56,"startTime":184.23915499999998,"endTime":184.49051372916668,"instrument":7,"program":99},{"pitch":67,"velocity":56,"startTime":184.23915499999998,"endTime":184.64676375,"instrument":7,"program":99},{"pitch":39,"velocity":56,"startTime":184.89132899999998,"endTime":185.0068181458333,"instrument":7,"program":99},{"pitch":51,"velocity":56,"startTime":184.89132899999998,"endTime":185.0068181458333,"instrument":7,"program":99},{"pitch":63,"velocity":56,"startTime":184.89132899999998,"endTime":185.07475293750002,"instrument":7,"program":99},{"pitch":38,"velocity":56,"startTime":185.21741600000001,"endTime":185.39404645833332,"instrument":7,"program":99},{"pitch":50,"velocity":56,"startTime":185.21741600000001,"endTime":185.3600790625,"instrument":7,"program":99},{"pitch":62,"velocity":56,"startTime":185.21741600000001,"endTime":185.41442689583332,"instrument":7,"program":99},{"pitch":58,"velocity":56,"startTime":187.826112,"endTime":188.00274245833333,"instrument":7,"program":99},{"pitch":62,"velocity":56,"startTime":187.826112,"endTime":188.00953593749998,"instrument":7,"program":99},{"pitch":67,"velocity":56,"startTime":187.826112,"endTime":188.02312289583332,"instrument":7,"program":99},{"pitch":60,"velocity":56,"startTime":190.434808,"endTime":190.557090625,"instrument":7,"program":99},{"pitch":62,"velocity":56,"startTime":190.434808,"endTime":190.6318188958333,"instrument":7,"program":99},{"pitch":66,"velocity":56,"startTime":190.434808,"endTime":190.638612375,"instrument":7,"program":99},{"pitch":60,"velocity":56,"startTime":191.698395125,"endTime":191.85464514583333,"instrument":7,"program":99},{"pitch":66,"velocity":56,"startTime":191.698395125,"endTime":191.861438625,"instrument":7,"program":99},{"pitch":62,"velocity":56,"startTime":191.7051886041667,"endTime":191.85464514583333,"instrument":7,"program":99},{"pitch":60,"velocity":56,"startTime":193.04350399999998,"endTime":193.2065475,"instrument":7,"program":99},{"pitch":62,"velocity":56,"startTime":193.04350399999998,"endTime":193.2065475,"instrument":7,"program":99},{"pitch":66,"velocity":56,"startTime":193.04350399999998,"endTime":193.2065475,"instrument":7,"program":99},{"pitch":60,"velocity":56,"startTime":194.347852,"endTime":194.5108955,"instrument":7,"program":99},{"pitch":62,"velocity":56,"startTime":194.347852,"endTime":194.5108955,"instrument":7,"program":99},{"pitch":66,"velocity":56,"startTime":194.347852,"endTime":194.5108955,"instrument":7,"program":99},{"pitch":58,"velocity":56,"startTime":195.65220000000002,"endTime":195.81524349999998,"instrument":7,"program":99},{"pitch":62,"velocity":56,"startTime":195.65220000000002,"endTime":195.81524349999998,"instrument":7,"program":99},{"pitch":67,"velocity":56,"startTime":195.65220000000002,"endTime":195.81524349999998,"instrument":7,"program":99},{"pitch":58,"velocity":56,"startTime":196.95654800000003,"endTime":197.11959149999998,"instrument":7,"program":99},{"pitch":62,"velocity":56,"startTime":196.95654800000003,"endTime":197.11959149999998,"instrument":7,"program":99},{"pitch":67,"velocity":56,"startTime":196.95654800000003,"endTime":197.11959149999998,"instrument":7,"program":99},{"pitch":58,"velocity":56,"startTime":198.260896,"endTime":198.4239395,"instrument":7,"program":99},{"pitch":62,"velocity":56,"startTime":198.260896,"endTime":198.4239395,"instrument":7,"program":99},{"pitch":67,"velocity":56,"startTime":198.260896,"endTime":198.4239395,"instrument":7,"program":99},{"pitch":58,"velocity":56,"startTime":199.565244,"endTime":199.7282875,"instrument":7,"program":99},{"pitch":62,"velocity":56,"startTime":199.565244,"endTime":199.7282875,"instrument":7,"program":99},{"pitch":67,"velocity":56,"startTime":199.565244,"endTime":199.7282875,"instrument":7,"program":99},{"pitch":60,"velocity":56,"startTime":200.869592,"endTime":201.03263550000003,"instrument":7,"program":99},{"pitch":62,"velocity":56,"startTime":200.869592,"endTime":201.03263550000003,"instrument":7,"program":99},{"pitch":66,"velocity":56,"startTime":200.869592,"endTime":201.03263550000003,"instrument":7,"program":99},{"pitch":60,"velocity":56,"startTime":202.17394000000002,"endTime":202.33698350000003,"instrument":7,"program":99},{"pitch":62,"velocity":56,"startTime":202.17394000000002,"endTime":202.33698350000003,"instrument":7,"program":99},{"pitch":66,"velocity":56,"startTime":202.17394000000002,"endTime":202.33698350000003,"instrument":7,"program":99},{"pitch":60,"velocity":56,"startTime":203.47828800000002,"endTime":203.6413315,"instrument":7,"program":99},{"pitch":62,"velocity":56,"startTime":203.47828800000002,"endTime":203.6413315,"instrument":7,"program":99},{"pitch":66,"velocity":56,"startTime":203.47828800000002,"endTime":203.6413315,"instrument":7,"program":99},{"pitch":60,"velocity":56,"startTime":204.782636,"endTime":204.9456795,"instrument":7,"program":99},{"pitch":62,"velocity":56,"startTime":204.782636,"endTime":204.9456795,"instrument":7,"program":99},{"pitch":66,"velocity":56,"startTime":204.782636,"endTime":204.9456795,"instrument":7,"program":99},{"pitch":58,"velocity":56,"startTime":206.086984,"endTime":206.25002750000002,"instrument":7,"program":99},{"pitch":62,"velocity":56,"startTime":206.086984,"endTime":206.25002750000002,"instrument":7,"program":99},{"pitch":67,"velocity":56,"startTime":206.086984,"endTime":206.25002750000002,"instrument":7,"program":99},{"pitch":62,"velocity":56,"startTime":206.41307100000003,"endTime":207.2147015416667,"instrument":7,"program":99},{"pitch":60,"velocity":56,"startTime":206.739158,"endTime":207.2147015416667,"instrument":7,"program":99},{"pitch":66,"velocity":56,"startTime":206.739158,"endTime":207.2282885,"instrument":7,"program":99},{"pitch":58,"velocity":56,"startTime":207.391332,"endTime":207.55437550000002,"instrument":7,"program":99},{"pitch":62,"velocity":56,"startTime":207.391332,"endTime":207.55437550000002,"instrument":7,"program":99},{"pitch":67,"velocity":56,"startTime":207.391332,"endTime":207.55437550000002,"instrument":7,"program":99},{"pitch":57,"velocity":56,"startTime":208.69568,"endTime":213.913072,"instrument":7,"program":99},{"pitch":60,"velocity":56,"startTime":208.69568,"endTime":213.88589808333333,"instrument":7,"program":99},{"pitch":62,"velocity":56,"startTime":208.69568,"endTime":213.85872416666666,"instrument":7,"program":99},{"pitch":66,"velocity":56,"startTime":208.69568,"endTime":213.88589808333333,"instrument":7,"program":99},{"pitch":58,"velocity":56,"startTime":213.913072,"endTime":219.13046400000002,"instrument":7,"program":99},{"pitch":62,"velocity":56,"startTime":213.913072,"endTime":229.565248,"instrument":7,"program":99},{"pitch":67,"velocity":56,"startTime":213.913072,"endTime":219.13046400000002,"instrument":7,"program":99},{"pitch":60,"velocity":56,"startTime":219.13046400000002,"endTime":224.3206820833333,"instrument":7,"program":99},{"pitch":66,"velocity":56,"startTime":219.13046400000002,"endTime":224.347856,"instrument":7,"program":99},{"pitch":69,"velocity":56,"startTime":219.13046400000002,"endTime":224.3206820833333,"instrument":7,"program":99},{"pitch":58,"velocity":56,"startTime":224.347856,"endTime":229.565248,"instrument":7,"program":99},{"pitch":67,"velocity":56,"startTime":224.347856,"endTime":234.741879125,"instrument":7,"program":99},{"pitch":60,"velocity":56,"startTime":229.565248,"endTime":234.72829216666668,"instrument":7,"program":99},{"pitch":63,"velocity":56,"startTime":229.565248,"endTime":234.741879125,"instrument":7,"program":99},{"pitch":62,"velocity":56,"startTime":234.78264,"endTime":245.44840229166667,"instrument":7,"program":99},{"pitch":67,"velocity":56,"startTime":234.78264,"endTime":239.959271125,"instrument":7,"program":99},{"pitch":70,"velocity":56,"startTime":234.78264,"endTime":239.9728580833333,"instrument":7,"program":99},{"pitch":66,"velocity":56,"startTime":240.000032,"endTime":245.20383704166667,"instrument":7,"program":99},{"pitch":69,"velocity":56,"startTime":240.000032,"endTime":245.2378044375,"instrument":7,"program":99},{"pitch":72,"velocity":56,"startTime":240.000032,"endTime":245.24459791666666,"instrument":7,"program":99},{"pitch":67,"velocity":56,"startTime":245.217424,"endTime":245.48916316666666,"instrument":7,"program":99},{"pitch":70,"velocity":56,"startTime":245.217424,"endTime":245.502750125,"instrument":7,"program":99},{"pitch":62,"velocity":56,"startTime":248.15220700000003,"endTime":249.06253320833332,"instrument":7,"program":99},{"pitch":60,"velocity":56,"startTime":248.478294,"endTime":249.07612016666667,"instrument":7,"program":99},{"pitch":66,"velocity":56,"startTime":248.478294,"endTime":249.06253320833332,"instrument":7,"program":99},{"pitch":58,"velocity":56,"startTime":249.130468,"endTime":249.3138919375,"instrument":7,"program":99},{"pitch":62,"velocity":56,"startTime":249.130468,"endTime":249.30709845833334,"instrument":7,"program":99},{"pitch":67,"velocity":56,"startTime":249.130468,"endTime":249.30709845833334,"instrument":7,"program":99},{"pitch":72,"velocity":87,"startTime":0.6046196458333334,"endTime":0.7065218333333332,"instrument":8,"program":23},{"pitch":62,"velocity":87,"startTime":0.6182066041666667,"endTime":0.7065218333333332,"instrument":8,"program":23},{"pitch":69,"velocity":87,"startTime":1.2364132083333328,"endTime":1.3383153958333334,"instrument":8,"program":23},{"pitch":62,"velocity":87,"startTime":1.2500001666666667,"endTime":1.3247284375,"instrument":8,"program":23},{"pitch":66,"velocity":128,"startTime":1.9089676458333333,"endTime":1.9904893958333332,"instrument":8,"program":23},{"pitch":62,"velocity":87,"startTime":1.915761125,"endTime":1.9836959166666666,"instrument":8,"program":23},{"pitch":62,"velocity":114,"startTime":2.880435166666666,"endTime":3.206522166666667,"instrument":8,"program":23},{"pitch":63,"velocity":97,"startTime":3.220109125,"endTime":3.519022208333334,"instrument":8,"program":23},{"pitch":62,"velocity":87,"startTime":3.5258156874999997,"endTime":3.858696166666667,"instrument":8,"program":23},{"pitch":61,"velocity":114,"startTime":3.858696166666667,"endTime":4.470109291666667,"instrument":8,"program":23},{"pitch":62,"velocity":97,"startTime":4.524457125,"endTime":4.660326708333333,"instrument":8,"program":23},{"pitch":62,"velocity":97,"startTime":5.176631125,"endTime":5.285326791666667,"instrument":8,"program":23},{"pitch":74,"velocity":75,"startTime":5.794837729166667,"endTime":5.896739916666666,"instrument":8,"program":23},{"pitch":62,"velocity":78,"startTime":5.8084246875,"endTime":5.896739916666666,"instrument":8,"program":23},{"pitch":70,"velocity":128,"startTime":6.5013595625,"endTime":6.60326175,"instrument":8,"program":23},{"pitch":62,"velocity":97,"startTime":6.514946520833333,"endTime":6.610055229166666,"instrument":8,"program":23},{"pitch":67,"velocity":97,"startTime":7.133153125,"endTime":7.221468354166666,"instrument":8,"program":23},{"pitch":62,"velocity":87,"startTime":7.139946604166667,"endTime":7.228261833333333,"instrument":8,"program":23},{"pitch":62,"velocity":97,"startTime":8.111414125,"endTime":8.430707645833333,"instrument":8,"program":23},{"pitch":63,"velocity":114,"startTime":8.437501124999999,"endTime":8.682066375000002,"instrument":8,"program":23},{"pitch":62,"velocity":78,"startTime":8.7024468125,"endTime":9.076088166666667,"instrument":8,"program":23},{"pitch":61,"velocity":97,"startTime":9.076088166666667,"endTime":9.694294770833334,"instrument":8,"program":23},{"pitch":62,"velocity":87,"startTime":9.728262166666667,"endTime":9.870925229166666,"instrument":8,"program":23},{"pitch":62,"velocity":114,"startTime":10.394023125,"endTime":10.502718791666666,"instrument":8,"program":23},{"pitch":72,"velocity":87,"startTime":11.039403645833334,"endTime":11.1480993125,"instrument":8,"program":23},{"pitch":62,"velocity":87,"startTime":11.052990604166666,"endTime":11.1480993125,"instrument":8,"program":23},{"pitch":69,"velocity":87,"startTime":11.7187515625,"endTime":11.813860270833333,"instrument":8,"program":23},{"pitch":62,"velocity":87,"startTime":11.725545041666667,"endTime":11.807066791666667,"instrument":8,"program":23},{"pitch":66,"velocity":128,"startTime":12.391306,"endTime":12.466034270833333,"instrument":8,"program":23},{"pitch":62,"velocity":87,"startTime":12.404892958333333,"endTime":12.479621229166666,"instrument":8,"program":23},{"pitch":62,"velocity":114,"startTime":13.342393083333333,"endTime":13.641306166666668,"instrument":8,"program":23},{"pitch":63,"velocity":114,"startTime":13.641306166666668,"endTime":13.9198388125,"instrument":8,"program":23},{"pitch":62,"velocity":87,"startTime":13.94021925,"endTime":14.279893208333334,"instrument":8,"program":23},{"pitch":61,"velocity":97,"startTime":14.300273645833332,"endTime":14.891306333333333,"instrument":8,"program":23},{"pitch":62,"velocity":87,"startTime":14.925273729166667,"endTime":15.095110708333332,"instrument":8,"program":23},{"pitch":62,"velocity":114,"startTime":15.577447729166668,"endTime":15.692936875,"instrument":8,"program":23},{"pitch":74,"velocity":75,"startTime":16.236415208333334,"endTime":16.345110875,"instrument":8,"program":23},{"pitch":62,"velocity":70,"startTime":16.263589125,"endTime":16.35869783333333,"instrument":8,"program":23},{"pitch":70,"velocity":128,"startTime":16.90896964583333,"endTime":17.0176653125,"instrument":8,"program":23},{"pitch":62,"velocity":75,"startTime":16.92255660416667,"endTime":17.010871833333333,"instrument":8,"program":23},{"pitch":62,"velocity":87,"startTime":17.55435016666667,"endTime":17.649458874999997,"instrument":8,"program":23},{"pitch":67,"velocity":114,"startTime":17.55435016666667,"endTime":17.656252354166668,"instrument":8,"program":23},{"pitch":75,"velocity":128,"startTime":18.383154625000003,"endTime":18.498643770833333,"instrument":8,"program":23},{"pitch":74,"velocity":87,"startTime":18.552991604166667,"endTime":18.6481003125,"instrument":8,"program":23},{"pitch":73,"velocity":128,"startTime":18.695654666666666,"endTime":18.804350333333335,"instrument":8,"program":23},{"pitch":72,"velocity":97,"startTime":18.858698166666667,"endTime":18.953806875,"instrument":8,"program":23},{"pitch":71,"velocity":54,"startTime":19.008154708333333,"endTime":19.103263416666664,"instrument":8,"program":23},{"pitch":70,"velocity":128,"startTime":19.164404729166662,"endTime":19.266306916666665,"instrument":8,"program":23},{"pitch":69,"velocity":75,"startTime":19.32065475,"endTime":19.429350416666665,"instrument":8,"program":23},{"pitch":68,"velocity":128,"startTime":19.490491729166664,"endTime":19.619567833333335,"instrument":8,"program":23},{"pitch":67,"velocity":78,"startTime":19.653535229166664,"endTime":19.74185045833333,"instrument":8,"program":23},{"pitch":66,"velocity":128,"startTime":19.802991770833337,"endTime":19.918480916666663,"instrument":8,"program":23},{"pitch":65,"velocity":87,"startTime":19.97282875,"endTime":20.081524416666664,"instrument":8,"program":23},{"pitch":64,"velocity":70,"startTime":20.135872250000002,"endTime":20.2377744375,"instrument":8,"program":23},{"pitch":63,"velocity":128,"startTime":20.292122270833335,"endTime":20.414404895833332,"instrument":8,"program":23},{"pitch":62,"velocity":70,"startTime":20.455165770833336,"endTime":20.557067958333334,"instrument":8,"program":23},{"pitch":61,"velocity":128,"startTime":20.618209270833336,"endTime":20.740491895833337,"instrument":8,"program":23},{"pitch":60,"velocity":87,"startTime":20.815220166666666,"endTime":20.937502791666663,"instrument":8,"program":23},{"pitch":67,"velocity":97,"startTime":21.453807208333334,"endTime":21.555709395833336,"instrument":8,"program":23},{"pitch":60,"velocity":78,"startTime":21.467394166666665,"endTime":21.548915916666665,"instrument":8,"program":23},{"pitch":66,"velocity":128,"startTime":22.119568166666664,"endTime":22.201089916666664,"instrument":8,"program":23},{"pitch":60,"velocity":78,"startTime":22.126361645833335,"endTime":22.221470354166666,"instrument":8,"program":23},{"pitch":60,"velocity":97,"startTime":22.7649486875,"endTime":22.860057395833334,"instrument":8,"program":23},{"pitch":67,"velocity":87,"startTime":22.7649486875,"endTime":22.853263916666663,"instrument":8,"program":23},{"pitch":60,"velocity":87,"startTime":23.77717708333333,"endTime":23.85869883333333,"instrument":8,"program":23},{"pitch":67,"velocity":87,"startTime":23.77717708333333,"endTime":23.872285791666663,"instrument":8,"program":23},{"pitch":67,"velocity":78,"startTime":24.062503208333336,"endTime":24.171198875,"instrument":8,"program":23},{"pitch":60,"velocity":78,"startTime":24.082883645833334,"endTime":24.171198875,"instrument":8,"program":23},{"pitch":66,"velocity":128,"startTime":24.402177166666664,"endTime":24.5176663125,"instrument":8,"program":23},{"pitch":60,"velocity":61,"startTime":24.429351083333337,"endTime":24.504079354166667,"instrument":8,"program":23},{"pitch":60,"velocity":75,"startTime":24.741851125,"endTime":24.843753312500002,"instrument":8,"program":23},{"pitch":67,"velocity":87,"startTime":24.741851125,"endTime":24.843753312500002,"instrument":8,"program":23},{"pitch":66,"velocity":114,"startTime":25.054351166666663,"endTime":25.176633791666667,"instrument":8,"program":23},{"pitch":60,"velocity":55,"startTime":25.0883185625,"endTime":25.1698403125,"instrument":8,"program":23},{"pitch":60,"velocity":75,"startTime":25.380438166666664,"endTime":25.502720791666665,"instrument":8,"program":23},{"pitch":67,"velocity":97,"startTime":25.38723164583333,"endTime":25.502720791666665,"instrument":8,"program":23},{"pitch":66,"velocity":128,"startTime":25.6997316875,"endTime":25.828807791666666,"instrument":8,"program":23},{"pitch":60,"velocity":70,"startTime":25.720112124999996,"endTime":25.8220143125,"instrument":8,"program":23},{"pitch":58,"velocity":114,"startTime":26.059786083333332,"endTime":26.175275229166665,"instrument":8,"program":23},{"pitch":58,"velocity":87,"startTime":26.739134,"endTime":26.834242708333335,"instrument":8,"program":23},{"pitch":67,"velocity":97,"startTime":26.739134,"endTime":26.847829666666666,"instrument":8,"program":23},{"pitch":58,"velocity":70,"startTime":27.391308000000002,"endTime":27.493210187499997,"instrument":8,"program":23},{"pitch":66,"velocity":97,"startTime":27.391308000000002,"endTime":27.500003666666665,"instrument":8,"program":23},{"pitch":58,"velocity":75,"startTime":28.043482,"endTime":28.131797229166665,"instrument":8,"program":23},{"pitch":67,"velocity":87,"startTime":28.043482,"endTime":28.152177666666663,"instrument":8,"program":23},{"pitch":66,"velocity":128,"startTime":29.0013625625,"endTime":29.110058229166665,"instrument":8,"program":23},{"pitch":58,"velocity":87,"startTime":29.014949520833333,"endTime":29.089677791666663,"instrument":8,"program":23},{"pitch":67,"velocity":87,"startTime":29.300275645833334,"endTime":29.42255827083333,"instrument":8,"program":23},{"pitch":58,"velocity":87,"startTime":29.313862604166665,"endTime":29.402177833333337,"instrument":8,"program":23},{"pitch":66,"velocity":128,"startTime":29.626362645833336,"endTime":29.741851791666665,"instrument":8,"program":23},{"pitch":58,"velocity":70,"startTime":29.646743083333337,"endTime":29.728264833333334,"instrument":8,"program":23},{"pitch":58,"velocity":70,"startTime":29.945656166666666,"endTime":30.047558354166664,"instrument":8,"program":23},{"pitch":67,"velocity":78,"startTime":29.945656166666666,"endTime":30.074732270833337,"instrument":8,"program":23},{"pitch":66,"velocity":128,"startTime":30.271743166666663,"endTime":30.394025791666667,"instrument":8,"program":23},{"pitch":58,"velocity":78,"startTime":30.285330124999998,"endTime":30.366851875,"instrument":8,"program":23},{"pitch":58,"velocity":75,"startTime":30.584243208333337,"endTime":30.67935191666666,"instrument":8,"program":23},{"pitch":67,"velocity":78,"startTime":30.584243208333337,"endTime":30.699732354166663,"instrument":8,"program":23},{"pitch":66,"velocity":128,"startTime":30.883156291666666,"endTime":31.005438916666666,"instrument":8,"program":23},{"pitch":58,"velocity":61,"startTime":30.903536729166667,"endTime":30.985058479166664,"instrument":8,"program":23},{"pitch":57,"velocity":87,"startTime":31.256797645833338,"endTime":31.379080270833335,"instrument":8,"program":23},{"pitch":57,"velocity":87,"startTime":31.915765125,"endTime":32.0176673125,"instrument":8,"program":23},{"pitch":62,"velocity":97,"startTime":31.915765125,"endTime":32.02446079166666,"instrument":8,"program":23},{"pitch":60,"velocity":97,"startTime":32.567939125,"endTime":32.69022175,"instrument":8,"program":23},{"pitch":57,"velocity":75,"startTime":32.57473260416666,"endTime":32.69022175,"instrument":8,"program":23},{"pitch":62,"velocity":114,"startTime":33.192939208333335,"endTime":33.301634875,"instrument":8,"program":23},{"pitch":57,"velocity":87,"startTime":33.199732687499996,"endTime":33.301634875,"instrument":8,"program":23},{"pitch":60,"velocity":97,"startTime":34.15761325,"endTime":34.714678541666665,"instrument":8,"program":23},{"pitch":58,"velocity":87,"startTime":34.7486459375,"endTime":34.91848291666666,"instrument":8,"program":23},{"pitch":57,"velocity":75,"startTime":34.925276395833336,"endTime":35.08831989583334,"instrument":8,"program":23},{"pitch":55,"velocity":75,"startTime":35.095113375,"endTime":35.77446129166667,"instrument":8,"program":23},{"pitch":54,"velocity":97,"startTime":35.781254770833335,"endTime":36.42663529166666,"instrument":8,"program":23},{"pitch":55,"velocity":114,"startTime":36.447015729166665,"endTime":36.589678791666664,"instrument":8,"program":23},{"pitch":67,"velocity":87,"startTime":37.500005,"endTime":37.58832022916666,"instrument":8,"program":23},{"pitch":75,"velocity":128,"startTime":37.500005,"endTime":37.581526749999995,"instrument":8,"program":23},{"pitch":65,"velocity":64,"startTime":37.826092,"endTime":37.92120070833334,"instrument":8,"program":23},{"pitch":74,"velocity":114,"startTime":37.826092,"endTime":37.92120070833334,"instrument":8,"program":23},{"pitch":63,"velocity":128,"startTime":38.152179000000004,"endTime":38.22690727083333,"instrument":8,"program":23},{"pitch":72,"velocity":87,"startTime":38.152179000000004,"endTime":38.22690727083333,"instrument":8,"program":23},{"pitch":62,"velocity":87,"startTime":38.478266,"endTime":38.55978775,"instrument":8,"program":23},{"pitch":70,"velocity":128,"startTime":38.478266,"endTime":38.546200791666664,"instrument":8,"program":23},{"pitch":60,"velocity":78,"startTime":38.804353,"endTime":38.87908127083334,"instrument":8,"program":23},{"pitch":69,"velocity":87,"startTime":38.804353,"endTime":38.89266822916666,"instrument":8,"program":23},{"pitch":58,"velocity":97,"startTime":39.13044,"endTime":39.21875522916667,"instrument":8,"program":23},{"pitch":67,"velocity":78,"startTime":39.13044,"endTime":39.21196175000001,"instrument":8,"program":23},{"pitch":62,"velocity":97,"startTime":39.456527,"endTime":40.36685320833333,"instrument":8,"program":23},{"pitch":60,"velocity":78,"startTime":39.782613999999995,"endTime":40.36685320833333,"instrument":8,"program":23},{"pitch":66,"velocity":114,"startTime":39.782613999999995,"endTime":40.38044016666668,"instrument":8,"program":23},{"pitch":62,"velocity":97,"startTime":40.400820604166675,"endTime":40.56386410416666,"instrument":8,"program":23},{"pitch":67,"velocity":78,"startTime":40.400820604166675,"endTime":40.577451062499996,"instrument":8,"program":23},{"pitch":58,"velocity":128,"startTime":40.4144075625,"endTime":40.577451062499996,"instrument":8,"program":23},{"pitch":62,"velocity":128,"startTime":41.42663595833333,"endTime":41.542125104166665,"instrument":8,"program":23},{"pitch":62,"velocity":75,"startTime":41.576092499999994,"endTime":41.66440772916666,"instrument":8,"program":23},{"pitch":62,"velocity":128,"startTime":41.72554904166667,"endTime":41.82065775,"instrument":8,"program":23},{"pitch":72,"velocity":87,"startTime":42.34375564583332,"endTime":42.44565783333332,"instrument":8,"program":23},{"pitch":62,"velocity":87,"startTime":42.35734260416667,"endTime":42.44565783333332,"instrument":8,"program":23},{"pitch":69,"velocity":87,"startTime":42.97554920833333,"endTime":43.07745139583332,"instrument":8,"program":23},{"pitch":62,"velocity":87,"startTime":42.989136166666675,"endTime":43.063864437499994,"instrument":8,"program":23},{"pitch":66,"velocity":128,"startTime":43.64810364583334,"endTime":43.729625395833324,"instrument":8,"program":23},{"pitch":62,"velocity":87,"startTime":43.654897125000005,"endTime":43.72283191666668,"instrument":8,"program":23},{"pitch":62,"velocity":114,"startTime":44.61957116666667,"endTime":44.94565816666667,"instrument":8,"program":23},{"pitch":63,"velocity":97,"startTime":44.959245125,"endTime":45.25815820833334,"instrument":8,"program":23},{"pitch":62,"velocity":87,"startTime":45.2649516875,"endTime":45.59783216666667,"instrument":8,"program":23},{"pitch":61,"velocity":114,"startTime":45.59783216666667,"endTime":46.209245291666676,"instrument":8,"program":23},{"pitch":62,"velocity":97,"startTime":46.263593125,"endTime":46.399462708333324,"instrument":8,"program":23},{"pitch":62,"velocity":97,"startTime":46.915767124999995,"endTime":47.024462791666664,"instrument":8,"program":23},{"pitch":74,"velocity":75,"startTime":47.53397372916667,"endTime":47.63587591666667,"instrument":8,"program":23},{"pitch":62,"velocity":78,"startTime":47.5475606875,"endTime":47.63587591666667,"instrument":8,"program":23},{"pitch":70,"velocity":128,"startTime":48.240495562499994,"endTime":48.34239774999999,"instrument":8,"program":23},{"pitch":62,"velocity":97,"startTime":48.25408252083332,"endTime":48.34919122916668,"instrument":8,"program":23},{"pitch":67,"velocity":97,"startTime":48.872289124999995,"endTime":48.96060435416666,"instrument":8,"program":23},{"pitch":62,"velocity":87,"startTime":48.879082604166676,"endTime":48.96739783333333,"instrument":8,"program":23},{"pitch":62,"velocity":97,"startTime":49.85055012499999,"endTime":50.169843645833325,"instrument":8,"program":23},{"pitch":63,"velocity":114,"startTime":50.17663712499999,"endTime":50.42120237500001,"instrument":8,"program":23},{"pitch":62,"velocity":78,"startTime":50.4415828125,"endTime":50.815224166666674,"instrument":8,"program":23},{"pitch":61,"velocity":97,"startTime":50.815224166666674,"endTime":51.43343077083333,"instrument":8,"program":23},{"pitch":62,"velocity":87,"startTime":51.467398166666676,"endTime":51.61006122916667,"instrument":8,"program":23},{"pitch":62,"velocity":114,"startTime":52.133159125000006,"endTime":52.241854791666675,"instrument":8,"program":23},{"pitch":72,"velocity":87,"startTime":52.77853964583332,"endTime":52.8872353125,"instrument":8,"program":23},{"pitch":62,"velocity":87,"startTime":52.79212660416667,"endTime":52.8872353125,"instrument":8,"program":23},{"pitch":69,"velocity":87,"startTime":53.4578875625,"endTime":53.55299627083333,"instrument":8,"program":23},{"pitch":62,"velocity":87,"startTime":53.464681041666665,"endTime":53.54620279166667,"instrument":8,"program":23},{"pitch":66,"velocity":128,"startTime":54.130441999999995,"endTime":54.205170270833335,"instrument":8,"program":23},{"pitch":62,"velocity":87,"startTime":54.14402895833333,"endTime":54.21875722916666,"instrument":8,"program":23},{"pitch":62,"velocity":114,"startTime":55.08152908333333,"endTime":55.38044216666667,"instrument":8,"program":23},{"pitch":63,"velocity":114,"startTime":55.38044216666667,"endTime":55.65897481249999,"instrument":8,"program":23},{"pitch":62,"velocity":87,"startTime":55.67935525000001,"endTime":56.019029208333336,"instrument":8,"program":23},{"pitch":61,"velocity":97,"startTime":56.03940964583333,"endTime":56.63044233333333,"instrument":8,"program":23},{"pitch":62,"velocity":87,"startTime":56.66440972916667,"endTime":56.834246708333325,"instrument":8,"program":23},{"pitch":62,"velocity":114,"startTime":57.316583729166666,"endTime":57.432072875,"instrument":8,"program":23},{"pitch":74,"velocity":75,"startTime":57.975551208333336,"endTime":58.084246875,"instrument":8,"program":23},{"pitch":62,"velocity":70,"startTime":58.002725125,"endTime":58.09783383333333,"instrument":8,"program":23},{"pitch":70,"velocity":128,"startTime":58.64810564583333,"endTime":58.756801312499995,"instrument":8,"program":23},{"pitch":62,"velocity":75,"startTime":58.66169260416666,"endTime":58.75000783333333,"instrument":8,"program":23},{"pitch":62,"velocity":87,"startTime":59.29348616666666,"endTime":59.388594874999995,"instrument":8,"program":23},{"pitch":67,"velocity":114,"startTime":59.29348616666666,"endTime":59.39538835416666,"instrument":8,"program":23},{"pitch":75,"velocity":128,"startTime":60.122290625,"endTime":60.237779770833335,"instrument":8,"program":23},{"pitch":74,"velocity":87,"startTime":60.29212760416667,"endTime":60.387236312499994,"instrument":8,"program":23},{"pitch":73,"velocity":128,"startTime":60.43479066666667,"endTime":60.543486333333334,"instrument":8,"program":23},{"pitch":72,"velocity":97,"startTime":60.59783416666666,"endTime":60.69294287499999,"instrument":8,"program":23},{"pitch":71,"velocity":54,"startTime":60.74729070833334,"endTime":60.84239941666667,"instrument":8,"program":23},{"pitch":70,"velocity":128,"startTime":60.903540729166664,"endTime":61.00544291666667,"instrument":8,"program":23},{"pitch":69,"velocity":75,"startTime":61.059790750000005,"endTime":61.168486416666674,"instrument":8,"program":23},{"pitch":68,"velocity":128,"startTime":61.229627729166666,"endTime":61.35870383333332,"instrument":8,"program":23},{"pitch":67,"velocity":78,"startTime":61.39267122916667,"endTime":61.48098645833333,"instrument":8,"program":23},{"pitch":66,"velocity":128,"startTime":61.54212777083333,"endTime":61.65761691666666,"instrument":8,"program":23},{"pitch":65,"velocity":87,"startTime":61.71196475000001,"endTime":61.82066041666667,"instrument":8,"program":23},{"pitch":64,"velocity":70,"startTime":61.87500824999999,"endTime":61.976910437499996,"instrument":8,"program":23},{"pitch":63,"velocity":128,"startTime":62.03125827083332,"endTime":62.15354089583334,"instrument":8,"program":23},{"pitch":62,"velocity":70,"startTime":62.19430177083333,"endTime":62.29620395833333,"instrument":8,"program":23},{"pitch":61,"velocity":128,"startTime":62.35734527083332,"endTime":62.47962789583334,"instrument":8,"program":23},{"pitch":60,"velocity":87,"startTime":62.55435616666667,"endTime":62.676638791666676,"instrument":8,"program":23},{"pitch":67,"velocity":97,"startTime":63.192943208333325,"endTime":63.29484539583333,"instrument":8,"program":23},{"pitch":60,"velocity":78,"startTime":63.206530166666674,"endTime":63.28805191666666,"instrument":8,"program":23},{"pitch":66,"velocity":128,"startTime":63.858704166666676,"endTime":63.94022591666668,"instrument":8,"program":23},{"pitch":60,"velocity":78,"startTime":63.86549764583334,"endTime":63.96060635416667,"instrument":8,"program":23},{"pitch":60,"velocity":97,"startTime":64.50408468750001,"endTime":64.59919339583332,"instrument":8,"program":23},{"pitch":67,"velocity":87,"startTime":64.50408468750001,"endTime":64.59239991666668,"instrument":8,"program":23},{"pitch":60,"velocity":87,"startTime":65.51631308333333,"endTime":65.59783483333334,"instrument":8,"program":23},{"pitch":67,"velocity":87,"startTime":65.51631308333333,"endTime":65.61142179166667,"instrument":8,"program":23},{"pitch":67,"velocity":78,"startTime":65.80163920833334,"endTime":65.910334875,"instrument":8,"program":23},{"pitch":60,"velocity":78,"startTime":65.82201964583334,"endTime":65.910334875,"instrument":8,"program":23},{"pitch":66,"velocity":128,"startTime":66.14131316666666,"endTime":66.2568023125,"instrument":8,"program":23},{"pitch":60,"velocity":61,"startTime":66.16848708333333,"endTime":66.24321535416667,"instrument":8,"program":23},{"pitch":60,"velocity":75,"startTime":66.480987125,"endTime":66.5828893125,"instrument":8,"program":23},{"pitch":67,"velocity":87,"startTime":66.480987125,"endTime":66.5828893125,"instrument":8,"program":23},{"pitch":66,"velocity":114,"startTime":66.79348716666667,"endTime":66.91576979166666,"instrument":8,"program":23},{"pitch":60,"velocity":55,"startTime":66.8274545625,"endTime":66.9089763125,"instrument":8,"program":23},{"pitch":60,"velocity":75,"startTime":67.11957416666667,"endTime":67.24185679166666,"instrument":8,"program":23},{"pitch":67,"velocity":97,"startTime":67.12636764583333,"endTime":67.24185679166666,"instrument":8,"program":23},{"pitch":66,"velocity":128,"startTime":67.43886768750001,"endTime":67.56794379166666,"instrument":8,"program":23},{"pitch":60,"velocity":70,"startTime":67.459248125,"endTime":67.5611503125,"instrument":8,"program":23},{"pitch":58,"velocity":114,"startTime":67.79892208333332,"endTime":67.91441122916666,"instrument":8,"program":23},{"pitch":58,"velocity":87,"startTime":68.47827000000001,"endTime":68.57337870833332,"instrument":8,"program":23},{"pitch":67,"velocity":97,"startTime":68.47827000000001,"endTime":68.58696566666667,"instrument":8,"program":23},{"pitch":58,"velocity":70,"startTime":69.13044400000001,"endTime":69.23234618750001,"instrument":8,"program":23},{"pitch":66,"velocity":97,"startTime":69.13044400000001,"endTime":69.23913966666667,"instrument":8,"program":23},{"pitch":58,"velocity":75,"startTime":69.782618,"endTime":69.87093322916668,"instrument":8,"program":23},{"pitch":67,"velocity":87,"startTime":69.782618,"endTime":69.89131366666668,"instrument":8,"program":23},{"pitch":66,"velocity":128,"startTime":70.74049856250001,"endTime":70.84919422916667,"instrument":8,"program":23},{"pitch":58,"velocity":87,"startTime":70.75408552083334,"endTime":70.82881379166668,"instrument":8,"program":23},{"pitch":67,"velocity":87,"startTime":71.03941164583333,"endTime":71.16169427083332,"instrument":8,"program":23},{"pitch":58,"velocity":87,"startTime":71.05299860416667,"endTime":71.14131383333333,"instrument":8,"program":23},{"pitch":66,"velocity":128,"startTime":71.36549864583333,"endTime":71.48098779166668,"instrument":8,"program":23},{"pitch":58,"velocity":70,"startTime":71.38587908333332,"endTime":71.46740083333333,"instrument":8,"program":23},{"pitch":58,"velocity":70,"startTime":71.68479216666668,"endTime":71.78669435416666,"instrument":8,"program":23},{"pitch":67,"velocity":78,"startTime":71.68479216666668,"endTime":71.81386827083332,"instrument":8,"program":23},{"pitch":66,"velocity":128,"startTime":72.01087916666668,"endTime":72.13316179166668,"instrument":8,"program":23},{"pitch":58,"velocity":78,"startTime":72.024466125,"endTime":72.105987875,"instrument":8,"program":23},{"pitch":58,"velocity":75,"startTime":72.32337920833332,"endTime":72.41848791666666,"instrument":8,"program":23},{"pitch":67,"velocity":78,"startTime":72.32337920833332,"endTime":72.43886835416667,"instrument":8,"program":23},{"pitch":66,"velocity":128,"startTime":72.62229229166667,"endTime":72.74457491666666,"instrument":8,"program":23},{"pitch":58,"velocity":61,"startTime":72.64267272916666,"endTime":72.72419447916667,"instrument":8,"program":23},{"pitch":57,"velocity":87,"startTime":72.99593364583332,"endTime":73.11821627083334,"instrument":8,"program":23},{"pitch":57,"velocity":87,"startTime":73.65490112500001,"endTime":73.75680331250001,"instrument":8,"program":23},{"pitch":62,"velocity":97,"startTime":73.65490112500001,"endTime":73.76359679166667,"instrument":8,"program":23},{"pitch":60,"velocity":97,"startTime":74.307075125,"endTime":74.42935775000001,"instrument":8,"program":23},{"pitch":57,"velocity":75,"startTime":74.31386860416667,"endTime":74.42935775000001,"instrument":8,"program":23},{"pitch":62,"velocity":114,"startTime":74.93207520833332,"endTime":75.040770875,"instrument":8,"program":23},{"pitch":57,"velocity":87,"startTime":74.9388686875,"endTime":75.040770875,"instrument":8,"program":23},{"pitch":60,"velocity":97,"startTime":75.89674925000001,"endTime":76.45381454166667,"instrument":8,"program":23},{"pitch":58,"velocity":87,"startTime":76.4877819375,"endTime":76.65761891666668,"instrument":8,"program":23},{"pitch":57,"velocity":75,"startTime":76.66441239583332,"endTime":76.82745589583332,"instrument":8,"program":23},{"pitch":55,"velocity":75,"startTime":76.834249375,"endTime":77.51359729166667,"instrument":8,"program":23},{"pitch":54,"velocity":97,"startTime":77.52039077083334,"endTime":78.16577129166667,"instrument":8,"program":23},{"pitch":55,"velocity":114,"startTime":78.18615172916667,"endTime":78.32881479166669,"instrument":8,"program":23},{"pitch":67,"velocity":87,"startTime":79.239141,"endTime":79.32745622916667,"instrument":8,"program":23},{"pitch":75,"velocity":128,"startTime":79.239141,"endTime":79.32066275000001,"instrument":8,"program":23},{"pitch":65,"velocity":64,"startTime":79.565228,"endTime":79.66033670833335,"instrument":8,"program":23},{"pitch":74,"velocity":114,"startTime":79.565228,"endTime":79.66033670833335,"instrument":8,"program":23},{"pitch":63,"velocity":128,"startTime":79.891315,"endTime":79.96604327083332,"instrument":8,"program":23},{"pitch":72,"velocity":87,"startTime":79.891315,"endTime":79.96604327083332,"instrument":8,"program":23},{"pitch":62,"velocity":87,"startTime":80.217402,"endTime":80.29892375000001,"instrument":8,"program":23},{"pitch":70,"velocity":128,"startTime":80.217402,"endTime":80.28533679166668,"instrument":8,"program":23},{"pitch":60,"velocity":78,"startTime":80.54348900000001,"endTime":80.61821727083333,"instrument":8,"program":23},{"pitch":69,"velocity":87,"startTime":80.54348900000001,"endTime":80.63180422916668,"instrument":8,"program":23},{"pitch":58,"velocity":97,"startTime":80.86957600000001,"endTime":80.95789122916666,"instrument":8,"program":23},{"pitch":67,"velocity":78,"startTime":80.86957600000001,"endTime":80.95109775,"instrument":8,"program":23},{"pitch":62,"velocity":97,"startTime":81.195663,"endTime":82.10598920833334,"instrument":8,"program":23},{"pitch":60,"velocity":78,"startTime":81.52175,"endTime":82.10598920833334,"instrument":8,"program":23},{"pitch":66,"velocity":114,"startTime":81.52175,"endTime":82.11957616666666,"instrument":8,"program":23},{"pitch":62,"velocity":97,"startTime":82.13995660416666,"endTime":82.30300010416667,"instrument":8,"program":23},{"pitch":67,"velocity":78,"startTime":82.13995660416666,"endTime":82.31658706249999,"instrument":8,"program":23},{"pitch":58,"velocity":128,"startTime":82.1535435625,"endTime":82.31658706249999,"instrument":8,"program":23},{"pitch":55,"velocity":97,"startTime":83.478272,"endTime":83.79756552083334,"instrument":8,"program":23},{"pitch":57,"velocity":87,"startTime":83.804359,"endTime":84.07609816666665,"instrument":8,"program":23},{"pitch":58,"velocity":78,"startTime":84.09647860416668,"endTime":85.0883265625,"instrument":8,"program":23},{"pitch":55,"velocity":87,"startTime":85.10191352083335,"endTime":85.42120704166666,"instrument":8,"program":23},{"pitch":57,"velocity":97,"startTime":85.434794,"endTime":85.72012012500001,"instrument":8,"program":23},{"pitch":58,"velocity":87,"startTime":85.7405005625,"endTime":86.05979408333334,"instrument":8,"program":23},{"pitch":57,"velocity":114,"startTime":86.10055495833335,"endTime":86.69158764583334,"instrument":8,"program":23},{"pitch":55,"velocity":97,"startTime":86.70517460416667,"endTime":86.78669635416666,"instrument":8,"program":23},{"pitch":74,"velocity":114,"startTime":87.0448485625,"endTime":87.13995727083335,"instrument":8,"program":23},{"pitch":70,"velocity":128,"startTime":87.37772904166665,"endTime":87.45925079166666,"instrument":8,"program":23},{"pitch":67,"velocity":97,"startTime":87.68343560416666,"endTime":87.78533779166666,"instrument":8,"program":23},{"pitch":74,"velocity":114,"startTime":87.99593564583336,"endTime":88.09104435416667,"instrument":8,"program":23},{"pitch":72,"velocity":87,"startTime":88.17935958333334,"endTime":88.3084356875,"instrument":8,"program":23},{"pitch":70,"velocity":128,"startTime":88.30164220833333,"endTime":88.45789222916666,"instrument":8,"program":23},{"pitch":69,"velocity":87,"startTime":88.48506614583334,"endTime":88.5937618125,"instrument":8,"program":23},{"pitch":67,"velocity":97,"startTime":88.6345226875,"endTime":88.72963139583334,"instrument":8,"program":23},{"pitch":67,"velocity":97,"startTime":89.00816404166666,"endTime":89.06930535416667,"instrument":8,"program":23},{"pitch":67,"velocity":87,"startTime":89.10327275000002,"endTime":89.19158797916667,"instrument":8,"program":23},{"pitch":67,"velocity":87,"startTime":89.23914233333333,"endTime":89.31387060416667,"instrument":8,"program":23},{"pitch":65,"velocity":87,"startTime":89.56522933333333,"endTime":89.65354456250002,"instrument":8,"program":23},{"pitch":65,"velocity":114,"startTime":89.89810981250001,"endTime":89.98642504166666,"instrument":8,"program":23},{"pitch":63,"velocity":128,"startTime":90.19702289583334,"endTime":90.27175116666666,"instrument":8,"program":23},{"pitch":63,"velocity":128,"startTime":90.52310989583334,"endTime":90.61142512500001,"instrument":8,"program":23},{"pitch":62,"velocity":128,"startTime":90.82881645833335,"endTime":90.92392516666666,"instrument":8,"program":23},{"pitch":62,"velocity":97,"startTime":91.16849041666666,"endTime":92.11278402083335,"instrument":8,"program":23},{"pitch":63,"velocity":114,"startTime":92.0991970625,"endTime":92.24865360416666,"instrument":8,"program":23},{"pitch":62,"velocity":87,"startTime":92.26224056250001,"endTime":92.41849058333335,"instrument":8,"program":23},{"pitch":61,"velocity":128,"startTime":92.43207754166666,"endTime":92.56115364583334,"instrument":8,"program":23},{"pitch":60,"velocity":78,"startTime":92.60191452083333,"endTime":93.31522983333335,"instrument":8,"program":23},{"pitch":69,"velocity":128,"startTime":94.26631691666667,"endTime":94.361425625,"instrument":8,"program":23},{"pitch":69,"velocity":128,"startTime":94.40897997916667,"endTime":94.47691477083335,"instrument":8,"program":23},{"pitch":69,"velocity":97,"startTime":94.51088216666666,"endTime":94.59919739583334,"instrument":8,"program":23},{"pitch":67,"velocity":97,"startTime":94.86414308333333,"endTime":94.96604527083333,"instrument":8,"program":23},{"pitch":67,"velocity":114,"startTime":95.20381704166667,"endTime":95.29213227083333,"instrument":8,"program":23},{"pitch":66,"velocity":128,"startTime":95.50952360416667,"endTime":95.59104535416667,"instrument":8,"program":23},{"pitch":66,"velocity":128,"startTime":95.83561060416667,"endTime":95.91033887500001,"instrument":8,"program":23},{"pitch":63,"velocity":128,"startTime":96.88180639583334,"endTime":96.94294770833335,"instrument":8,"program":23},{"pitch":63,"velocity":128,"startTime":97.01088250000001,"endTime":97.08561077083334,"instrument":8,"program":23},{"pitch":63,"velocity":128,"startTime":97.14675208333335,"endTime":97.20789339583334,"instrument":8,"program":23},{"pitch":62,"velocity":128,"startTime":97.47283908333335,"endTime":97.55436083333333,"instrument":8,"program":23},{"pitch":62,"velocity":97,"startTime":97.81930652083335,"endTime":99.38860020833333,"instrument":8,"program":23},{"pitch":60,"velocity":97,"startTime":99.42256760416666,"endTime":99.72827416666667,"instrument":8,"program":23},{"pitch":72,"velocity":78,"startTime":99.7214806875,"endTime":99.82338287500001,"instrument":8,"program":23},{"pitch":60,"velocity":114,"startTime":100.74050256250001,"endTime":100.84919822916666,"instrument":8,"program":23},{"pitch":58,"velocity":128,"startTime":101.06658956250001,"endTime":101.15490479166667,"instrument":8,"program":23},{"pitch":57,"velocity":114,"startTime":101.37908960416667,"endTime":101.46740483333335,"instrument":8,"program":23},{"pitch":55,"velocity":114,"startTime":101.7187635625,"endTime":101.81387227083334,"instrument":8,"program":23},{"pitch":54,"velocity":128,"startTime":101.87501358333336,"endTime":101.97691577083336,"instrument":8,"program":23},{"pitch":55,"velocity":97,"startTime":102.02447012500001,"endTime":102.13316579166666,"instrument":8,"program":23},{"pitch":57,"velocity":128,"startTime":102.187513625,"endTime":102.2894158125,"instrument":8,"program":23},{"pitch":58,"velocity":128,"startTime":102.35055712500001,"endTime":102.45245931250001,"instrument":8,"program":23},{"pitch":57,"velocity":97,"startTime":102.50001366666667,"endTime":102.58832889583334,"instrument":8,"program":23},{"pitch":58,"velocity":128,"startTime":102.64267672916667,"endTime":102.75137239583334,"instrument":8,"program":23},{"pitch":60,"velocity":78,"startTime":102.81251370833334,"endTime":102.921209375,"instrument":8,"program":23},{"pitch":62,"velocity":78,"startTime":102.97555720833334,"endTime":103.11822027083333,"instrument":8,"program":23},{"pitch":61,"velocity":128,"startTime":103.15218766666666,"endTime":103.24050289583334,"instrument":8,"program":23},{"pitch":62,"velocity":78,"startTime":103.30843768750002,"endTime":103.45789422916667,"instrument":8,"program":23},{"pitch":63,"velocity":128,"startTime":103.45110075000001,"endTime":103.55300293750001,"instrument":8,"program":23},{"pitch":62,"velocity":87,"startTime":103.62773120833334,"endTime":103.7975681875,"instrument":8,"program":23},{"pitch":60,"velocity":114,"startTime":103.77718775000001,"endTime":103.92664429166666,"instrument":8,"program":23},{"pitch":58,"velocity":128,"startTime":103.92664429166666,"endTime":104.0828943125,"instrument":8,"program":23},{"pitch":57,"velocity":78,"startTime":104.09648127083334,"endTime":104.26631825,"instrument":8,"program":23},{"pitch":55,"velocity":97,"startTime":104.307079125,"endTime":104.64675308333334,"instrument":8,"program":23},{"pitch":57,"velocity":78,"startTime":104.66713352083335,"endTime":104.91849225000001,"instrument":8,"program":23},{"pitch":58,"velocity":78,"startTime":104.93887268750001,"endTime":105.91713368750001,"instrument":8,"program":23},{"pitch":55,"velocity":128,"startTime":105.95110108333336,"endTime":106.2024598125,"instrument":8,"program":23},{"pitch":57,"velocity":114,"startTime":106.25001416666667,"endTime":106.48099245833333,"instrument":8,"program":23},{"pitch":58,"velocity":128,"startTime":106.51495985416666,"endTime":106.80707945833333,"instrument":8,"program":23},{"pitch":57,"velocity":114,"startTime":106.86142729166666,"endTime":107.47284041666667,"instrument":8,"program":23},{"pitch":55,"velocity":97,"startTime":107.52039477083333,"endTime":107.61550347916666,"instrument":8,"program":23},{"pitch":74,"velocity":87,"startTime":107.88724264583334,"endTime":107.98235135416667,"instrument":8,"program":23},{"pitch":70,"velocity":128,"startTime":108.1997426875,"endTime":108.28805791666667,"instrument":8,"program":23},{"pitch":67,"velocity":97,"startTime":108.51903620833333,"endTime":108.6073514375,"instrument":8,"program":23},{"pitch":74,"velocity":97,"startTime":108.86550364583336,"endTime":108.96061235416667,"instrument":8,"program":23},{"pitch":72,"velocity":97,"startTime":109.04213410416668,"endTime":109.20517760416666,"instrument":8,"program":23},{"pitch":70,"velocity":128,"startTime":109.17121020833333,"endTime":109.31387327083334,"instrument":8,"program":23},{"pitch":69,"velocity":78,"startTime":109.34784066666666,"endTime":109.47012329166667,"instrument":8,"program":23},{"pitch":67,"velocity":114,"startTime":109.49729720833334,"endTime":109.59919939583334,"instrument":8,"program":23},{"pitch":67,"velocity":114,"startTime":109.85055812499999,"endTime":109.92528639583334,"instrument":8,"program":23},{"pitch":67,"velocity":97,"startTime":109.97963422916666,"endTime":110.06794945833335,"instrument":8,"program":23},{"pitch":67,"velocity":78,"startTime":110.10191685416666,"endTime":110.19023208333334,"instrument":8,"program":23},{"pitch":65,"velocity":97,"startTime":110.42800385416666,"endTime":110.51631908333334,"instrument":8,"program":23},{"pitch":65,"velocity":97,"startTime":110.78126477083333,"endTime":110.86278652083334,"instrument":8,"program":23},{"pitch":63,"velocity":128,"startTime":111.073384375,"endTime":111.15490612500001,"instrument":8,"program":23},{"pitch":63,"velocity":128,"startTime":111.39267789583334,"endTime":111.47419964583335,"instrument":8,"program":23},{"pitch":62,"velocity":97,"startTime":111.73235185416667,"endTime":111.82746056250001,"instrument":8,"program":23},{"pitch":60,"velocity":128,"startTime":112.16713452083334,"endTime":112.26224322916666,"instrument":8,"program":23},{"pitch":59,"velocity":87,"startTime":112.32338454166667,"endTime":112.41849325,"instrument":8,"program":23},{"pitch":60,"velocity":87,"startTime":112.47963456250001,"endTime":112.57474327083334,"instrument":8,"program":23},{"pitch":62,"velocity":114,"startTime":112.622297625,"endTime":112.73778677083335,"instrument":8,"program":23},{"pitch":63,"velocity":128,"startTime":112.79892808333334,"endTime":112.8872433125,"instrument":8,"program":23},{"pitch":62,"velocity":97,"startTime":112.92800418750001,"endTime":113.02311289583334,"instrument":8,"program":23},{"pitch":63,"velocity":128,"startTime":113.08425420833335,"endTime":113.18615639583335,"instrument":8,"program":23},{"pitch":65,"velocity":61,"startTime":113.25409118750001,"endTime":113.34240641666668,"instrument":8,"program":23},{"pitch":67,"velocity":87,"startTime":113.41713468750001,"endTime":113.5394173125,"instrument":8,"program":23},{"pitch":66,"velocity":128,"startTime":113.56659122916668,"endTime":113.6616999375,"instrument":8,"program":23},{"pitch":67,"velocity":61,"startTime":113.73642820833335,"endTime":113.87229779166665,"instrument":8,"program":23},{"pitch":68,"velocity":114,"startTime":113.86550431250001,"endTime":113.97419997916666,"instrument":8,"program":23},{"pitch":67,"velocity":78,"startTime":114.04213477083334,"endTime":114.19838479166665,"instrument":8,"program":23},{"pitch":65,"velocity":114,"startTime":114.19838479166665,"endTime":114.34784133333335,"instrument":8,"program":23},{"pitch":63,"velocity":114,"startTime":114.34784133333335,"endTime":114.51767831250001,"instrument":8,"program":23},{"pitch":62,"velocity":75,"startTime":114.51767831250001,"endTime":114.65354789583334,"instrument":8,"program":23},{"pitch":60,"velocity":114,"startTime":114.73506964583333,"endTime":115.0068088125,"instrument":8,"program":23},{"pitch":60,"velocity":87,"startTime":115.05436316666666,"endTime":115.16305883333334,"instrument":8,"program":23},{"pitch":63,"velocity":114,"startTime":115.05436316666666,"endTime":115.15626535416666,"instrument":8,"program":23},{"pitch":67,"velocity":78,"startTime":115.6997436875,"endTime":116.21604810416666,"instrument":8,"program":23},{"pitch":60,"velocity":87,"startTime":115.71333064583334,"endTime":116.19566766666667,"instrument":8,"program":23},{"pitch":66,"velocity":97,"startTime":116.30436333333334,"endTime":116.54213510416666,"instrument":8,"program":23},{"pitch":60,"velocity":87,"startTime":116.3111568125,"endTime":116.48778727083334,"instrument":8,"program":23},{"pitch":67,"velocity":78,"startTime":116.67121120833335,"endTime":116.82066775,"instrument":8,"program":23},{"pitch":60,"velocity":78,"startTime":116.6780046875,"endTime":116.80708079166666,"instrument":8,"program":23},{"pitch":58,"velocity":97,"startTime":117.32338520833333,"endTime":117.5747439375,"instrument":8,"program":23},{"pitch":58,"velocity":18,"startTime":117.66305916666667,"endTime":117.79213527083336,"instrument":8,"program":23},{"pitch":62,"velocity":114,"startTime":117.69023308333335,"endTime":117.79892875,"instrument":8,"program":23},{"pitch":67,"velocity":87,"startTime":118.33561360416667,"endTime":118.87229845833335,"instrument":8,"program":23},{"pitch":58,"velocity":97,"startTime":118.34240708333334,"endTime":118.77039627083334,"instrument":8,"program":23},{"pitch":66,"velocity":114,"startTime":118.93343977083335,"endTime":119.307081125,"instrument":8,"program":23},{"pitch":58,"velocity":97,"startTime":118.94702672916667,"endTime":119.09648327083335,"instrument":8,"program":23},{"pitch":58,"velocity":61,"startTime":119.307081125,"endTime":119.43615722916667,"instrument":8,"program":23},{"pitch":67,"velocity":97,"startTime":119.32746156249999,"endTime":119.46333114583334,"instrument":8,"program":23},{"pitch":62,"velocity":97,"startTime":120.30572256250001,"endTime":120.64539652083334,"instrument":8,"program":23},{"pitch":69,"velocity":97,"startTime":120.65219,"endTime":120.978277,"instrument":8,"program":23},{"pitch":66,"velocity":87,"startTime":120.95789656250001,"endTime":121.29077704166666,"instrument":8,"program":23},{"pitch":62,"velocity":64,"startTime":121.29757052083335,"endTime":121.6508314375,"instrument":8,"program":23},{"pitch":60,"velocity":70,"startTime":121.65762491666666,"endTime":122.18751629166667,"instrument":8,"program":23},{"pitch":54,"velocity":114,"startTime":122.20789672916666,"endTime":122.55436416666666,"instrument":8,"program":23},{"pitch":55,"velocity":97,"startTime":122.56795112500001,"endTime":122.66985331250001,"instrument":8,"program":23},{"pitch":62,"velocity":114,"startTime":122.9144185625,"endTime":123.76360345833334,"instrument":8,"program":23},{"pitch":60,"velocity":87,"startTime":123.260886,"endTime":123.62773387499999,"instrument":8,"program":23},{"pitch":66,"velocity":114,"startTime":123.27447295833335,"endTime":123.79757085416666,"instrument":8,"program":23},{"pitch":67,"velocity":70,"startTime":123.84512520833334,"endTime":124.035342625,"instrument":8,"program":23},{"pitch":62,"velocity":87,"startTime":123.85191868750002,"endTime":124.02175566666666,"instrument":8,"program":23},{"pitch":58,"velocity":114,"startTime":123.86550564583334,"endTime":124.0149621875,"instrument":8,"program":23},{"pitch":62,"velocity":128,"startTime":125.24458191666666,"endTime":125.32610366666667,"instrument":8,"program":23},{"pitch":62,"velocity":114,"startTime":125.37365802083335,"endTime":125.46876672916666,"instrument":8,"program":23},{"pitch":62,"velocity":114,"startTime":125.55028847916667,"endTime":125.63860370833335,"instrument":8,"program":23},{"pitch":62,"velocity":114,"startTime":125.69295154166666,"endTime":125.82202764583334,"instrument":8,"program":23},{"pitch":72,"velocity":114,"startTime":125.85599504166667,"endTime":125.96469070833335,"instrument":8,"program":23},{"pitch":62,"velocity":97,"startTime":126.01903854166666,"endTime":126.12773420833334,"instrument":8,"program":23},{"pitch":62,"velocity":114,"startTime":126.154908125,"endTime":126.25681031250001,"instrument":8,"program":23},{"pitch":62,"velocity":114,"startTime":126.31115814583335,"endTime":126.44702772916666,"instrument":8,"program":23},{"pitch":69,"velocity":128,"startTime":126.480995125,"endTime":126.60327775,"instrument":8,"program":23},{"pitch":62,"velocity":114,"startTime":126.63724514583335,"endTime":126.725560375,"instrument":8,"program":23},{"pitch":62,"velocity":114,"startTime":126.80028864583333,"endTime":126.89539735416668,"instrument":8,"program":23},{"pitch":62,"velocity":97,"startTime":126.9497451875,"endTime":127.0720278125,"instrument":8,"program":23},{"pitch":66,"velocity":128,"startTime":127.13996260416667,"endTime":127.26224522916667,"instrument":8,"program":23},{"pitch":62,"velocity":114,"startTime":127.28262566666666,"endTime":127.377734375,"instrument":8,"program":23},{"pitch":62,"velocity":128,"startTime":127.44566916666668,"endTime":127.5611583125,"instrument":8,"program":23},{"pitch":62,"velocity":87,"startTime":127.60871266666666,"endTime":127.72420181250001,"instrument":8,"program":23},{"pitch":62,"velocity":128,"startTime":127.785343125,"endTime":127.90083227083335,"instrument":8,"program":23},{"pitch":62,"velocity":87,"startTime":127.94159314583334,"endTime":128.05708229166666,"instrument":8,"program":23},{"pitch":62,"velocity":114,"startTime":128.10463664583332,"endTime":128.22012579166667,"instrument":8,"program":23},{"pitch":62,"velocity":87,"startTime":128.26088666666666,"endTime":128.36958233333334,"instrument":8,"program":23},{"pitch":62,"velocity":128,"startTime":128.43072364583333,"endTime":128.54621279166668,"instrument":8,"program":23},{"pitch":62,"velocity":87,"startTime":128.58697366666667,"endTime":128.69566933333334,"instrument":8,"program":23},{"pitch":62,"velocity":128,"startTime":128.75681064583333,"endTime":128.87229979166668,"instrument":8,"program":23},{"pitch":62,"velocity":97,"startTime":128.92664762500002,"endTime":129.04213677083334,"instrument":8,"program":23},{"pitch":63,"velocity":128,"startTime":129.09648460416668,"endTime":129.20518027083335,"instrument":8,"program":23},{"pitch":62,"velocity":97,"startTime":129.24594114583334,"endTime":129.34784333333334,"instrument":8,"program":23},{"pitch":61,"velocity":128,"startTime":129.40898464583336,"endTime":129.50409335416666,"instrument":8,"program":23},{"pitch":62,"velocity":97,"startTime":129.55844118750002,"endTime":129.68072381250002,"instrument":8,"program":23},{"pitch":63,"velocity":128,"startTime":129.73507164583336,"endTime":129.8437673125,"instrument":8,"program":23},{"pitch":62,"velocity":114,"startTime":129.89811514583334,"endTime":129.99322385416667,"instrument":8,"program":23},{"pitch":61,"velocity":128,"startTime":130.05436516666666,"endTime":130.15626735416666,"instrument":8,"program":23},{"pitch":62,"velocity":114,"startTime":130.2106151875,"endTime":130.31931085416664,"instrument":8,"program":23},{"pitch":62,"velocity":128,"startTime":130.394039125,"endTime":130.51632175,"instrument":8,"program":23},{"pitch":62,"velocity":97,"startTime":130.55028914583335,"endTime":130.6589848125,"instrument":8,"program":23},{"pitch":62,"velocity":114,"startTime":130.720126125,"endTime":130.81523483333336,"instrument":8,"program":23},{"pitch":62,"velocity":87,"startTime":130.883169625,"endTime":131.02583268749999,"instrument":8,"program":23},{"pitch":74,"velocity":128,"startTime":131.0665935625,"endTime":131.18208270833335,"instrument":8,"program":23},{"pitch":62,"velocity":128,"startTime":131.21605010416667,"endTime":131.33153925,"instrument":8,"program":23},{"pitch":62,"velocity":114,"startTime":131.37230012499998,"endTime":131.47420231249998,"instrument":8,"program":23},{"pitch":62,"velocity":114,"startTime":131.535343625,"endTime":131.65762625,"instrument":8,"program":23},{"pitch":70,"velocity":128,"startTime":131.70518060416666,"endTime":131.82066975,"instrument":8,"program":23},{"pitch":62,"velocity":114,"startTime":131.85463714583335,"endTime":131.95653933333332,"instrument":8,"program":23},{"pitch":62,"velocity":114,"startTime":132.01768064583334,"endTime":132.11278935416667,"instrument":8,"program":23},{"pitch":62,"velocity":97,"startTime":132.1671371875,"endTime":132.29621329166667,"instrument":8,"program":23},{"pitch":67,"velocity":128,"startTime":132.34376764583334,"endTime":132.47284375,"instrument":8,"program":23},{"pitch":62,"velocity":114,"startTime":132.52039810416667,"endTime":132.62230029166668,"instrument":8,"program":23},{"pitch":62,"velocity":114,"startTime":132.68344160416666,"endTime":132.79893075,"instrument":8,"program":23},{"pitch":62,"velocity":87,"startTime":132.83289814583333,"endTime":132.94838729166668,"instrument":8,"program":23},{"pitch":62,"velocity":114,"startTime":133.00273512500002,"endTime":133.12501775,"instrument":8,"program":23},{"pitch":62,"velocity":97,"startTime":133.165778625,"endTime":133.27447429166668,"instrument":8,"program":23},{"pitch":62,"velocity":114,"startTime":133.33561560416666,"endTime":133.45110475,"instrument":8,"program":23},{"pitch":62,"velocity":97,"startTime":133.49865910416668,"endTime":133.60735477083335,"instrument":8,"program":23},{"pitch":62,"velocity":114,"startTime":133.66849608333334,"endTime":133.79077870833333,"instrument":8,"program":23},{"pitch":62,"velocity":87,"startTime":133.82474610416668,"endTime":133.93344177083335,"instrument":8,"program":23},{"pitch":62,"velocity":128,"startTime":133.98778960416666,"endTime":134.09648527083334,"instrument":8,"program":23},{"pitch":62,"velocity":97,"startTime":134.15083310416665,"endTime":134.26632225,"instrument":8,"program":23},{"pitch":63,"velocity":128,"startTime":134.31387660416667,"endTime":134.42257227083334,"instrument":8,"program":23},{"pitch":62,"velocity":114,"startTime":134.47692010416665,"endTime":134.5720288125,"instrument":8,"program":23},{"pitch":61,"velocity":128,"startTime":134.62637664583335,"endTime":134.7350723125,"instrument":8,"program":23},{"pitch":62,"velocity":114,"startTime":134.7758331875,"endTime":134.89132233333336,"instrument":8,"program":23},{"pitch":63,"velocity":128,"startTime":134.94567016666664,"endTime":135.06795279166664,"instrument":8,"program":23},{"pitch":62,"velocity":114,"startTime":135.122300625,"endTime":135.21740933333336,"instrument":8,"program":23},{"pitch":61,"velocity":128,"startTime":135.27855064583335,"endTime":135.3872463125,"instrument":8,"program":23},{"pitch":62,"velocity":97,"startTime":135.43480066666666,"endTime":135.5502898125,"instrument":8,"program":23},{"pitch":62,"velocity":128,"startTime":135.6318115625,"endTime":135.7540941875,"instrument":8,"program":23},{"pitch":62,"velocity":87,"startTime":135.78806158333336,"endTime":135.89675725,"instrument":8,"program":23},{"pitch":62,"velocity":114,"startTime":135.96469204166667,"endTime":136.06659422916667,"instrument":8,"program":23},{"pitch":62,"velocity":97,"startTime":136.1209420625,"endTime":136.25681164583335,"instrument":8,"program":23},{"pitch":72,"velocity":114,"startTime":136.29757252083334,"endTime":136.4062681875,"instrument":8,"program":23},{"pitch":62,"velocity":128,"startTime":136.44023558333333,"endTime":136.54213777083334,"instrument":8,"program":23},{"pitch":62,"velocity":114,"startTime":136.589692125,"endTime":136.6915943125,"instrument":8,"program":23},{"pitch":62,"velocity":97,"startTime":136.75273562499999,"endTime":136.8953986875,"instrument":8,"program":23},{"pitch":69,"velocity":128,"startTime":136.92936608333332,"endTime":137.05164870833335,"instrument":8,"program":23},{"pitch":62,"velocity":114,"startTime":137.08561610416666,"endTime":137.18751829166666,"instrument":8,"program":23},{"pitch":62,"velocity":114,"startTime":137.24865960416668,"endTime":137.35056179166668,"instrument":8,"program":23},{"pitch":62,"velocity":97,"startTime":137.39132266666667,"endTime":137.51360529166666,"instrument":8,"program":23},{"pitch":66,"velocity":128,"startTime":137.567953125,"endTime":137.68344227083332,"instrument":8,"program":23},{"pitch":62,"velocity":114,"startTime":137.73779010416666,"endTime":137.83289881250002,"instrument":8,"program":23},{"pitch":62,"velocity":114,"startTime":137.90083360416668,"endTime":138.01632275,"instrument":8,"program":23},{"pitch":62,"velocity":87,"startTime":138.05029014583334,"endTime":138.16577929166667,"instrument":8,"program":23},{"pitch":62,"velocity":128,"startTime":138.23371408333335,"endTime":138.35599670833335,"instrument":8,"program":23},{"pitch":62,"velocity":97,"startTime":138.38996410416667,"endTime":138.50545325000002,"instrument":8,"program":23},{"pitch":62,"velocity":114,"startTime":138.55980108333335,"endTime":138.67529022916668,"instrument":8,"program":23},{"pitch":62,"velocity":97,"startTime":138.71605110416667,"endTime":138.83154025000002,"instrument":8,"program":23},{"pitch":62,"velocity":114,"startTime":138.88588808333336,"endTime":138.99458375,"instrument":8,"program":23},{"pitch":62,"velocity":87,"startTime":139.04893158333334,"endTime":139.16442072916666,"instrument":8,"program":23},{"pitch":62,"velocity":97,"startTime":139.20518160416665,"endTime":139.31387727083336,"instrument":8,"program":23},{"pitch":62,"velocity":114,"startTime":139.361431625,"endTime":139.48371425000002,"instrument":8,"program":23},{"pitch":63,"velocity":128,"startTime":139.53126860416666,"endTime":139.63996427083336,"instrument":8,"program":23},{"pitch":62,"velocity":97,"startTime":139.68072514583335,"endTime":139.78262733333335,"instrument":8,"program":23},{"pitch":61,"velocity":128,"startTime":139.84376864583336,"endTime":139.95925779166666,"instrument":8,"program":23},{"pitch":62,"velocity":97,"startTime":139.9932251875,"endTime":140.1155078125,"instrument":8,"program":23},{"pitch":63,"velocity":128,"startTime":140.18344260416666,"endTime":140.29893175,"instrument":8,"program":23},{"pitch":62,"velocity":97,"startTime":140.34648610416667,"endTime":140.43480133333335,"instrument":8,"program":23},{"pitch":61,"velocity":128,"startTime":140.50273612499998,"endTime":140.61143179166666,"instrument":8,"program":23},{"pitch":62,"velocity":97,"startTime":140.65898614583335,"endTime":140.76088833333336,"instrument":8,"program":23},{"pitch":62,"velocity":128,"startTime":140.84241008333333,"endTime":140.95789922916666,"instrument":8,"program":23},{"pitch":62,"velocity":78,"startTime":140.99866010416667,"endTime":141.11414925,"instrument":8,"program":23},{"pitch":62,"velocity":97,"startTime":141.1752905625,"endTime":141.28398622916666,"instrument":8,"program":23},{"pitch":62,"velocity":87,"startTime":141.3383340625,"endTime":141.47420364583334,"instrument":8,"program":23},{"pitch":74,"velocity":128,"startTime":141.51496452083333,"endTime":141.61007322916666,"instrument":8,"program":23},{"pitch":62,"velocity":114,"startTime":141.6644210625,"endTime":141.7867036875,"instrument":8,"program":23},{"pitch":62,"velocity":114,"startTime":141.807084125,"endTime":141.92257327083334,"instrument":8,"program":23},{"pitch":62,"velocity":114,"startTime":141.970127625,"endTime":142.09920372916667,"instrument":8,"program":23},{"pitch":70,"velocity":128,"startTime":142.14675808333334,"endTime":142.24866027083334,"instrument":8,"program":23},{"pitch":62,"velocity":114,"startTime":142.296214625,"endTime":142.38452985416666,"instrument":8,"program":23},{"pitch":62,"velocity":97,"startTime":142.44567116666667,"endTime":142.54757335416667,"instrument":8,"program":23},{"pitch":62,"velocity":97,"startTime":142.59512770833334,"endTime":142.73099729166668,"instrument":8,"program":23},{"pitch":67,"velocity":128,"startTime":142.7649646875,"endTime":142.88045383333335,"instrument":8,"program":23},{"pitch":62,"velocity":128,"startTime":142.94159514583333,"endTime":143.03670385416666,"instrument":8,"program":23},{"pitch":62,"velocity":114,"startTime":143.0910516875,"endTime":143.21333431250002,"instrument":8,"program":23},{"pitch":62,"velocity":97,"startTime":143.24730170833334,"endTime":143.36279085416666,"instrument":8,"program":23},{"pitch":62,"velocity":114,"startTime":143.42393216666667,"endTime":143.54621479166667,"instrument":8,"program":23},{"pitch":62,"velocity":97,"startTime":143.58018218750001,"endTime":143.69567133333334,"instrument":8,"program":23},{"pitch":62,"velocity":97,"startTime":143.763606125,"endTime":143.87230179166667,"instrument":8,"program":23},{"pitch":62,"velocity":87,"startTime":143.90626918750002,"endTime":144.01496485416666,"instrument":8,"program":23},{"pitch":62,"velocity":128,"startTime":144.089693125,"endTime":144.1915953125,"instrument":8,"program":23},{"pitch":62,"velocity":87,"startTime":144.23235618750002,"endTime":144.34105185416666,"instrument":8,"program":23},{"pitch":62,"velocity":114,"startTime":144.40898664583335,"endTime":144.51088883333335,"instrument":8,"program":23},{"pitch":62,"velocity":87,"startTime":144.56523666666666,"endTime":144.6807258125,"instrument":8,"program":23},{"pitch":63,"velocity":128,"startTime":144.73507364583335,"endTime":144.8437693125,"instrument":8,"program":23},{"pitch":62,"velocity":114,"startTime":144.90491062499999,"endTime":144.99322585416667,"instrument":8,"program":23},{"pitch":61,"velocity":128,"startTime":145.06116064583335,"endTime":145.16306283333336,"instrument":8,"program":23},{"pitch":62,"velocity":97,"startTime":145.2106171875,"endTime":145.31931285416667,"instrument":8,"program":23},{"pitch":63,"velocity":128,"startTime":145.3736606875,"endTime":145.48914983333333,"instrument":8,"program":23},{"pitch":62,"velocity":114,"startTime":145.55029114583334,"endTime":145.6589868125,"instrument":8,"program":23},{"pitch":61,"velocity":128,"startTime":145.68616072916666,"endTime":145.78806291666666,"instrument":8,"program":23},{"pitch":62,"velocity":128,"startTime":145.84241075,"endTime":145.97148685416667,"instrument":8,"program":23},{"pitch":60,"velocity":114,"startTime":146.01224772916666,"endTime":146.11414991666666,"instrument":8,"program":23},{"pitch":59,"velocity":87,"startTime":146.1888781875,"endTime":146.2703999375,"instrument":8,"program":23},{"pitch":60,"velocity":114,"startTime":146.33833472916666,"endTime":146.44703039583334,"instrument":8,"program":23},{"pitch":62,"velocity":128,"startTime":146.5149651875,"endTime":146.63045433333335,"instrument":8,"program":23},{"pitch":63,"velocity":128,"startTime":146.6780086875,"endTime":146.77311739583334,"instrument":8,"program":23},{"pitch":62,"velocity":128,"startTime":146.82746522916668,"endTime":146.92936741666668,"instrument":8,"program":23},{"pitch":63,"velocity":128,"startTime":146.98371525000002,"endTime":147.09241091666667,"instrument":8,"program":23},{"pitch":65,"velocity":114,"startTime":147.14675875,"endTime":147.26224789583335,"instrument":8,"program":23},{"pitch":67,"velocity":114,"startTime":147.3301826875,"endTime":147.47963922916668,"instrument":8,"program":23},{"pitch":66,"velocity":128,"startTime":147.50001966666667,"endTime":147.60871533333335,"instrument":8,"program":23},{"pitch":67,"velocity":87,"startTime":147.66306316666666,"endTime":147.76496535416666,"instrument":8,"program":23},{"pitch":71,"velocity":128,"startTime":147.83290014583335,"endTime":147.9415958125,"instrument":8,"program":23},{"pitch":72,"velocity":128,"startTime":147.99594364583334,"endTime":148.1046393125,"instrument":8,"program":23},{"pitch":71,"velocity":114,"startTime":148.15898714583335,"endTime":148.25409585416665,"instrument":8,"program":23},{"pitch":72,"velocity":114,"startTime":148.31523716666666,"endTime":148.41034587500002,"instrument":8,"program":23},{"pitch":74,"velocity":97,"startTime":148.46469370833336,"endTime":148.60056329166665,"instrument":8,"program":23},{"pitch":75,"velocity":128,"startTime":148.654911125,"endTime":148.79078070833336,"instrument":8,"program":23},{"pitch":74,"velocity":97,"startTime":148.84512854166667,"endTime":148.94023725,"instrument":8,"program":23},{"pitch":73,"velocity":128,"startTime":148.980998125,"endTime":149.08290031250002,"instrument":8,"program":23},{"pitch":74,"velocity":128,"startTime":149.15083510416665,"endTime":149.27991120833335,"instrument":8,"program":23},{"pitch":75,"velocity":128,"startTime":149.31387860416666,"endTime":149.470128625,"instrument":8,"program":23},{"pitch":74,"velocity":97,"startTime":149.46333514583335,"endTime":149.5720308125,"instrument":8,"program":23},{"pitch":73,"velocity":128,"startTime":149.6127916875,"endTime":149.72828083333334,"instrument":8,"program":23},{"pitch":74,"velocity":128,"startTime":149.78262866666665,"endTime":149.90491129166665,"instrument":8,"program":23},{"pitch":75,"velocity":128,"startTime":149.95246564583334,"endTime":150.0611613125,"instrument":8,"program":23},{"pitch":74,"velocity":114,"startTime":150.1019221875,"endTime":150.21061785416666,"instrument":8,"program":23},{"pitch":73,"velocity":128,"startTime":150.25137872916667,"endTime":150.3872483125,"instrument":8,"program":23},{"pitch":74,"velocity":97,"startTime":150.4280091875,"endTime":150.529911375,"instrument":8,"program":23},{"pitch":75,"velocity":128,"startTime":150.57746572916668,"endTime":150.6725744375,"instrument":8,"program":23},{"pitch":76,"velocity":114,"startTime":150.73371575,"endTime":150.84920489583334,"instrument":8,"program":23},{"pitch":77,"velocity":128,"startTime":150.9171396875,"endTime":151.00545491666668,"instrument":8,"program":23},{"pitch":78,"velocity":128,"startTime":151.06659622916666,"endTime":151.16849841666667,"instrument":8,"program":23},{"pitch":79,"velocity":114,"startTime":151.25002016666667,"endTime":151.35871583333335,"instrument":8,"program":23},{"pitch":78,"velocity":128,"startTime":151.39947670833334,"endTime":151.51496585416666,"instrument":8,"program":23},{"pitch":79,"velocity":97,"startTime":151.57610716666667,"endTime":151.69838979166667,"instrument":8,"program":23},{"pitch":81,"velocity":87,"startTime":151.752737625,"endTime":151.84784633333334,"instrument":8,"program":23},{"pitch":79,"velocity":97,"startTime":151.915781125,"endTime":152.02447679166667,"instrument":8,"program":23},{"pitch":78,"velocity":128,"startTime":152.05165070833334,"endTime":152.17393333333334,"instrument":8,"program":23},{"pitch":77,"velocity":114,"startTime":152.2214876875,"endTime":152.35056379166667,"instrument":8,"program":23},{"pitch":76,"velocity":114,"startTime":152.39132466666666,"endTime":152.51360729166666,"instrument":8,"program":23},{"pitch":75,"velocity":128,"startTime":152.56116164583335,"endTime":152.66306383333335,"instrument":8,"program":23},{"pitch":74,"velocity":114,"startTime":152.71741166666666,"endTime":152.82610733333334,"instrument":8,"program":23},{"pitch":73,"velocity":128,"startTime":152.894042125,"endTime":152.9959443125,"instrument":8,"program":23},{"pitch":74,"velocity":114,"startTime":153.05029214583334,"endTime":153.14540085416667,"instrument":8,"program":23},{"pitch":75,"velocity":128,"startTime":153.22692260416665,"endTime":153.34241175,"instrument":8,"program":23},{"pitch":74,"velocity":97,"startTime":153.39675958333336,"endTime":153.5258356875,"instrument":8,"program":23},{"pitch":70,"velocity":128,"startTime":153.5665965625,"endTime":153.6888791875,"instrument":8,"program":23},{"pitch":67,"velocity":114,"startTime":153.72284658333336,"endTime":153.84512920833336,"instrument":8,"program":23},{"pitch":75,"velocity":128,"startTime":153.88589008333335,"endTime":154.02175966666667,"instrument":8,"program":23},{"pitch":74,"velocity":64,"startTime":154.04893358333334,"endTime":154.20518360416665,"instrument":8,"program":23},{"pitch":70,"velocity":128,"startTime":154.21197708333335,"endTime":154.34784666666667,"instrument":8,"program":23},{"pitch":67,"velocity":97,"startTime":154.38860754166666,"endTime":154.48371625,"instrument":8,"program":23},{"pitch":70,"velocity":128,"startTime":154.57203147916667,"endTime":154.73507497916665,"instrument":8,"program":23},{"pitch":67,"velocity":97,"startTime":154.72148802083333,"endTime":154.87773804166667,"instrument":8,"program":23},{"pitch":63,"velocity":128,"startTime":154.87773804166667,"endTime":155.00002066666667,"instrument":8,"program":23},{"pitch":62,"velocity":75,"startTime":155.0339880625,"endTime":155.14268372916666,"instrument":8,"program":23},{"pitch":63,"velocity":128,"startTime":155.1970315625,"endTime":155.33290114583335,"instrument":8,"program":23},{"pitch":62,"velocity":97,"startTime":155.3600750625,"endTime":155.51632508333333,"instrument":8,"program":23},{"pitch":58,"velocity":97,"startTime":155.5231185625,"endTime":155.65219466666667,"instrument":8,"program":23},{"pitch":55,"velocity":78,"startTime":155.65898814583335,"endTime":155.78806425,"instrument":8,"program":23},{"pitch":58,"velocity":128,"startTime":155.83561860416668,"endTime":155.95110775,"instrument":8,"program":23},{"pitch":55,"velocity":128,"startTime":156.00545558333334,"endTime":156.14811864583334,"instrument":8,"program":23},{"pitch":53,"velocity":97,"startTime":156.154912125,"endTime":156.2636077916667,"instrument":8,"program":23},{"pitch":51,"velocity":128,"startTime":156.317955625,"endTime":156.480999125,"instrument":8,"program":23},{"pitch":50,"velocity":97,"startTime":156.48779260416666,"endTime":156.60328175,"instrument":8,"program":23},{"pitch":49,"velocity":128,"startTime":156.65762958333335,"endTime":156.75953177083335,"instrument":8,"program":23},{"pitch":50,"velocity":97,"startTime":156.80029264583334,"endTime":156.92936875,"instrument":8,"program":23},{"pitch":52,"velocity":128,"startTime":156.97692310416667,"endTime":157.08561877083335,"instrument":8,"program":23},{"pitch":54,"velocity":128,"startTime":157.12637964583334,"endTime":157.23507531250002,"instrument":8,"program":23},{"pitch":53,"velocity":114,"startTime":157.28262966666665,"endTime":157.40491229166668,"instrument":8,"program":23},{"pitch":54,"velocity":128,"startTime":157.43208620833335,"endTime":157.59512970833336,"instrument":8,"program":23},{"pitch":55,"velocity":114,"startTime":157.59512970833336,"endTime":157.71741233333333,"instrument":8,"program":23},{"pitch":57,"velocity":114,"startTime":157.785347125,"endTime":157.948390625,"instrument":8,"program":23},{"pitch":56,"velocity":128,"startTime":157.948390625,"endTime":158.05708629166668,"instrument":8,"program":23},{"pitch":57,"velocity":97,"startTime":158.10464064583334,"endTime":158.22012979166666,"instrument":8,"program":23},{"pitch":59,"velocity":128,"startTime":158.26768414583333,"endTime":158.38317329166665,"instrument":8,"program":23},{"pitch":60,"velocity":114,"startTime":158.43072764583334,"endTime":158.54621679166667,"instrument":8,"program":23},{"pitch":59,"velocity":114,"startTime":158.57339070833333,"endTime":158.68887985416666,"instrument":8,"program":23},{"pitch":60,"velocity":128,"startTime":158.7432276875,"endTime":158.845129875,"instrument":8,"program":23},{"pitch":61,"velocity":128,"startTime":158.89268422916666,"endTime":159.00137989583334,"instrument":8,"program":23},{"pitch":62,"velocity":114,"startTime":159.0693146875,"endTime":159.20518427083334,"instrument":8,"program":23},{"pitch":61,"velocity":128,"startTime":159.22556470833334,"endTime":159.334260375,"instrument":8,"program":23},{"pitch":62,"velocity":97,"startTime":159.37502125,"endTime":159.49051039583333,"instrument":8,"program":23},{"pitch":64,"velocity":128,"startTime":159.55844518749998,"endTime":159.6671408541667,"instrument":8,"program":23},{"pitch":66,"velocity":128,"startTime":159.7214886875,"endTime":159.83018435416665,"instrument":8,"program":23},{"pitch":65,"velocity":114,"startTime":159.87773870833334,"endTime":159.99322785416666,"instrument":8,"program":23},{"pitch":66,"velocity":128,"startTime":160.04078220833333,"endTime":160.14268439583333,"instrument":8,"program":23},{"pitch":67,"velocity":114,"startTime":160.19703222916667,"endTime":160.3329018125,"instrument":8,"program":23},{"pitch":69,"velocity":97,"startTime":160.36686920833336,"endTime":160.51632575,"instrument":8,"program":23},{"pitch":66,"velocity":128,"startTime":160.52311922916667,"endTime":160.64540185416666,"instrument":8,"program":23},{"pitch":62,"velocity":97,"startTime":160.6657822916667,"endTime":160.7812714375,"instrument":8,"program":23},{"pitch":63,"velocity":128,"startTime":160.84241275000002,"endTime":160.97148885416667,"instrument":8,"program":23},{"pitch":62,"velocity":97,"startTime":161.01224972916668,"endTime":161.10735843749998,"instrument":8,"program":23},{"pitch":60,"velocity":114,"startTime":161.18888018750002,"endTime":161.33154325,"instrument":8,"program":23},{"pitch":58,"velocity":128,"startTime":161.33833672916666,"endTime":161.46061935416665,"instrument":8,"program":23},{"pitch":57,"velocity":128,"startTime":161.49458675000002,"endTime":161.60328241666667,"instrument":8,"program":23},{"pitch":55,"velocity":97,"startTime":161.68480416666665,"endTime":161.77311939583336,"instrument":8,"program":23},{"pitch":75,"velocity":128,"startTime":161.95654333333334,"endTime":162.09241291666666,"instrument":8,"program":23},{"pitch":74,"velocity":114,"startTime":162.09241291666666,"endTime":162.23507597916668,"instrument":8,"program":23},{"pitch":72,"velocity":97,"startTime":162.25545641666665,"endTime":162.350565125,"instrument":8,"program":23},{"pitch":70,"velocity":128,"startTime":162.42529339583336,"endTime":162.52040210416666,"instrument":8,"program":23},{"pitch":69,"velocity":114,"startTime":162.58154341666668,"endTime":162.68344560416668,"instrument":8,"program":23},{"pitch":67,"velocity":97,"startTime":162.70382604166664,"endTime":162.8193151875,"instrument":8,"program":23},{"pitch":66,"velocity":128,"startTime":162.88724997916668,"endTime":163.002739125,"instrument":8,"program":23},{"pitch":63,"velocity":128,"startTime":163.0435,"endTime":163.16578262500002,"instrument":8,"program":23},{"pitch":62,"velocity":128,"startTime":163.19975002083333,"endTime":163.31523916666666,"instrument":8,"program":23},{"pitch":60,"velocity":124,"startTime":163.33561960416668,"endTime":163.46469570833335,"instrument":8,"program":23},{"pitch":58,"velocity":128,"startTime":163.51904354166666,"endTime":163.62773920833334,"instrument":8,"program":23},{"pitch":57,"velocity":114,"startTime":163.6752935625,"endTime":163.79078270833335,"instrument":8,"program":23},{"pitch":55,"velocity":114,"startTime":163.80436966666664,"endTime":163.91985881250002,"instrument":8,"program":23},{"pitch":54,"velocity":128,"startTime":163.98100012499998,"endTime":164.09648927083336,"instrument":8,"program":23},{"pitch":57,"velocity":114,"startTime":164.15083710416664,"endTime":164.2867066875,"instrument":8,"program":23},{"pitch":55,"velocity":114,"startTime":164.31388060416666,"endTime":164.4225762708333,"instrument":8,"program":23},{"pitch":62,"velocity":128,"startTime":164.67393500000003,"endTime":165.57067425000002,"instrument":8,"program":23},{"pitch":60,"velocity":70,"startTime":164.97964156249998,"endTime":165.5774677291667,"instrument":8,"program":23},{"pitch":66,"velocity":114,"startTime":164.98643504166668,"endTime":165.5502938125,"instrument":8,"program":23},{"pitch":67,"velocity":50,"startTime":165.5774677291667,"endTime":165.74730470833333,"instrument":8,"program":23},{"pitch":62,"velocity":58,"startTime":165.59784816666667,"endTime":165.74730470833333,"instrument":8,"program":23},{"pitch":58,"velocity":128,"startTime":165.6046416458333,"endTime":165.74051122916666,"instrument":8,"program":23},{"pitch":67,"velocity":128,"startTime":166.9905113958333,"endTime":167.0924135833333,"instrument":8,"program":23},{"pitch":66,"velocity":128,"startTime":167.2962179583333,"endTime":167.37773970833334,"instrument":8,"program":23},{"pitch":67,"velocity":128,"startTime":167.5747506041667,"endTime":167.69023975000002,"instrument":8,"program":23},{"pitch":69,"velocity":128,"startTime":167.9212180416667,"endTime":168.28806591666668,"instrument":8,"program":23},{"pitch":70,"velocity":128,"startTime":168.54621812500002,"endTime":169.1372508125,"instrument":8,"program":23},{"pitch":69,"velocity":128,"startTime":169.2187725625,"endTime":169.31388127083332,"instrument":8,"program":23},{"pitch":67,"velocity":128,"startTime":169.57882695833334,"endTime":169.66034870833332,"instrument":8,"program":23},{"pitch":66,"velocity":128,"startTime":169.72149002083333,"endTime":169.81659872916669,"instrument":8,"program":23},{"pitch":67,"velocity":97,"startTime":169.8709465625,"endTime":169.95246831250003,"instrument":8,"program":23},{"pitch":69,"velocity":128,"startTime":170.02040310416666,"endTime":170.12230529166666,"instrument":8,"program":23},{"pitch":70,"velocity":128,"startTime":170.176653125,"endTime":170.2785553125,"instrument":8,"program":23},{"pitch":69,"velocity":128,"startTime":170.3329031458333,"endTime":170.42801185416667,"instrument":8,"program":23},{"pitch":70,"velocity":128,"startTime":170.47556620833333,"endTime":170.5774683958333,"instrument":8,"program":23},{"pitch":72,"velocity":114,"startTime":170.6521966666667,"endTime":170.7676858125,"instrument":8,"program":23},{"pitch":74,"velocity":114,"startTime":170.81524016666665,"endTime":170.9239358333333,"instrument":8,"program":23},{"pitch":72,"velocity":97,"startTime":170.9714901875,"endTime":171.09377281250002,"instrument":8,"program":23},{"pitch":70,"velocity":128,"startTime":171.12094672916666,"endTime":171.2432293541667,"instrument":8,"program":23},{"pitch":69,"velocity":97,"startTime":171.29078370833332,"endTime":171.41306633333332,"instrument":8,"program":23},{"pitch":67,"velocity":64,"startTime":171.4606206875,"endTime":171.56931635416666,"instrument":8,"program":23},{"pitch":69,"velocity":114,"startTime":171.60328375,"endTime":171.73235985416667,"instrument":8,"program":23},{"pitch":67,"velocity":87,"startTime":171.75953377083334,"endTime":171.86143595833335,"instrument":8,"program":23},{"pitch":65,"velocity":114,"startTime":171.93616422916668,"endTime":172.06524033333335,"instrument":8,"program":23},{"pitch":63,"velocity":128,"startTime":172.1127946875,"endTime":172.46605560416668,"instrument":8,"program":23},{"pitch":62,"velocity":128,"startTime":172.48643604166668,"endTime":172.59513170833333,"instrument":8,"program":23},{"pitch":63,"velocity":128,"startTime":172.78534912499998,"endTime":172.88725131249998,"instrument":8,"program":23},{"pitch":65,"velocity":128,"startTime":173.1182296041667,"endTime":173.26768614583335,"instrument":8,"program":23},{"pitch":67,"velocity":128,"startTime":173.71605577083332,"endTime":174.30708845833334,"instrument":8,"program":23},{"pitch":63,"velocity":128,"startTime":174.3546428125,"endTime":174.47013195833333,"instrument":8,"program":23},{"pitch":62,"velocity":128,"startTime":174.7690450416667,"endTime":174.8573602708333,"instrument":8,"program":23},{"pitch":61,"velocity":128,"startTime":174.91170810416668,"endTime":175.00002333333333,"instrument":8,"program":23},{"pitch":62,"velocity":97,"startTime":175.0475776875,"endTime":175.14268639583332,"instrument":8,"program":23},{"pitch":66,"velocity":128,"startTime":175.2038277083333,"endTime":175.2921429375,"instrument":8,"program":23},{"pitch":67,"velocity":114,"startTime":175.36007772916668,"endTime":175.4823603541667,"instrument":8,"program":23},{"pitch":66,"velocity":128,"startTime":175.5231212291667,"endTime":175.61143645833332,"instrument":8,"program":23},{"pitch":67,"velocity":78,"startTime":175.67257777083333,"endTime":175.77447995833333,"instrument":8,"program":23},{"pitch":69,"velocity":128,"startTime":175.83562127083334,"endTime":175.93752345833335,"instrument":8,"program":23},{"pitch":70,"velocity":128,"startTime":175.9850778125,"endTime":176.09377347916666,"instrument":8,"program":23},{"pitch":69,"velocity":114,"startTime":176.1481213125,"endTime":176.2432300208333,"instrument":8,"program":23},{"pitch":70,"velocity":128,"startTime":176.3043713333333,"endTime":176.413067,"instrument":8,"program":23},{"pitch":72,"velocity":87,"startTime":176.48779527083335,"endTime":176.5964909375,"instrument":8,"program":23},{"pitch":74,"velocity":114,"startTime":176.6508387708333,"endTime":176.7595344375,"instrument":8,"program":23},{"pitch":72,"velocity":114,"startTime":176.8002953125,"endTime":176.9225779375,"instrument":8,"program":23},{"pitch":70,"velocity":128,"startTime":176.94295837500002,"endTime":177.0856214375,"instrument":8,"program":23},{"pitch":69,"velocity":97,"startTime":177.11279535416668,"endTime":177.25545841666667,"instrument":8,"program":23},{"pitch":67,"velocity":128,"startTime":177.2962192916667,"endTime":177.6562736875,"instrument":8,"program":23},{"pitch":66,"velocity":128,"startTime":177.69024108333335,"endTime":177.77176283333333,"instrument":8,"program":23},{"pitch":67,"velocity":114,"startTime":178.01632808333332,"endTime":178.10464331249997,"instrument":8,"program":23},{"pitch":69,"velocity":128,"startTime":178.34241508333332,"endTime":178.42393683333333,"instrument":8,"program":23},{"pitch":70,"velocity":128,"startTime":178.9470347291667,"endTime":179.53806741666668,"instrument":8,"program":23},{"pitch":69,"velocity":114,"startTime":179.59241525000002,"endTime":179.68752395833332,"instrument":8,"program":23},{"pitch":67,"velocity":128,"startTime":179.97285008333333,"endTime":180.0611653125,"instrument":8,"program":23},{"pitch":66,"velocity":128,"startTime":180.122306625,"endTime":180.2106218541667,"instrument":8,"program":23},{"pitch":67,"velocity":97,"startTime":180.26496968749998,"endTime":180.36007839583334,"instrument":8,"program":23},{"pitch":69,"velocity":128,"startTime":180.42121970833333,"endTime":180.51632841666665,"instrument":8,"program":23},{"pitch":70,"velocity":128,"startTime":180.57067625,"endTime":180.67937191666667,"instrument":8,"program":23},{"pitch":69,"velocity":128,"startTime":180.74730670833333,"endTime":180.8356219375,"instrument":8,"program":23},{"pitch":70,"velocity":128,"startTime":180.88996977083332,"endTime":180.99187195833332,"instrument":8,"program":23},{"pitch":72,"velocity":78,"startTime":181.0666002291667,"endTime":181.18888285416668,"instrument":8,"program":23},{"pitch":74,"velocity":87,"startTime":181.2364372083333,"endTime":181.345132875,"instrument":8,"program":23},{"pitch":72,"velocity":87,"startTime":181.39268722916668,"endTime":181.5149698541667,"instrument":8,"program":23},{"pitch":70,"velocity":128,"startTime":181.5285568125,"endTime":181.6576329166667,"instrument":8,"program":23},{"pitch":69,"velocity":97,"startTime":181.6916003125,"endTime":181.8274698958333,"instrument":8,"program":23},{"pitch":67,"velocity":87,"startTime":181.8614372916667,"endTime":181.956546,"instrument":8,"program":23},{"pitch":69,"velocity":128,"startTime":182.0041003541667,"endTime":182.12638297916666,"instrument":8,"program":23},{"pitch":67,"velocity":87,"startTime":182.15355689583333,"endTime":182.25545908333334,"instrument":8,"program":23},{"pitch":65,"velocity":114,"startTime":182.32339387500002,"endTime":182.45926345833334,"instrument":8,"program":23},{"pitch":63,"velocity":128,"startTime":182.51361129166668,"endTime":182.9212200416667,"instrument":8,"program":23},{"pitch":62,"velocity":114,"startTime":182.94839395833333,"endTime":183.04350266666668,"instrument":8,"program":23},{"pitch":63,"velocity":128,"startTime":183.24051356249998,"endTime":183.3356222708333,"instrument":8,"program":23},{"pitch":65,"velocity":128,"startTime":183.55980708333334,"endTime":183.6752962291667,"instrument":8,"program":23},{"pitch":67,"velocity":128,"startTime":184.17122020833332,"endTime":184.7622528958333,"instrument":8,"program":23},{"pitch":63,"velocity":128,"startTime":184.80980725,"endTime":184.9117094375,"instrument":8,"program":23},{"pitch":62,"velocity":128,"startTime":185.21741600000001,"endTime":185.3125247083333,"instrument":8,"program":23},{"pitch":61,"velocity":128,"startTime":185.3804595,"endTime":185.47556820833333,"instrument":8,"program":23},{"pitch":62,"velocity":97,"startTime":185.54350300000002,"endTime":185.62502475,"instrument":8,"program":23},{"pitch":66,"velocity":114,"startTime":185.7065465,"endTime":185.78806825,"instrument":8,"program":23},{"pitch":67,"velocity":97,"startTime":185.86959,"endTime":185.991872625,"instrument":8,"program":23},{"pitch":66,"velocity":128,"startTime":186.0326335,"endTime":186.12774220833333,"instrument":8,"program":23},{"pitch":67,"velocity":97,"startTime":186.19567700000002,"endTime":186.29757918750002,"instrument":8,"program":23},{"pitch":69,"velocity":114,"startTime":186.3587205,"endTime":186.4606226875,"instrument":8,"program":23},{"pitch":70,"velocity":128,"startTime":186.521764,"endTime":186.6304596666667,"instrument":8,"program":23},{"pitch":69,"velocity":114,"startTime":186.6848075,"endTime":186.77991620833333,"instrument":8,"program":23},{"pitch":70,"velocity":128,"startTime":186.84785100000002,"endTime":186.95654666666667,"instrument":8,"program":23},{"pitch":72,"velocity":87,"startTime":187.01089449999998,"endTime":187.133177125,"instrument":8,"program":23},{"pitch":74,"velocity":87,"startTime":187.173938,"endTime":187.2758401875,"instrument":8,"program":23},{"pitch":75,"velocity":128,"startTime":187.3369815,"endTime":187.4252967291667,"instrument":8,"program":23},{"pitch":76,"velocity":97,"startTime":187.50002500000002,"endTime":187.60872066666667,"instrument":8,"program":23},{"pitch":78,"velocity":128,"startTime":187.66306849999998,"endTime":187.77855764583333,"instrument":8,"program":23},{"pitch":79,"velocity":128,"startTime":187.826112,"endTime":188.01632941666668,"instrument":8,"program":23},{"pitch":74,"velocity":87,"startTime":188.57339470833332,"endTime":189.21198175,"instrument":8,"program":23},{"pitch":75,"velocity":114,"startTime":189.23915566666668,"endTime":190.1291014375,"instrument":8,"program":23},{"pitch":74,"velocity":97,"startTime":190.0815470833333,"endTime":190.36687320833335,"instrument":8,"program":23},{"pitch":74,"velocity":87,"startTime":190.4280145208333,"endTime":191.3519276875,"instrument":8,"program":23},{"pitch":72,"velocity":87,"startTime":191.36551464583334,"endTime":191.57611250000002,"instrument":8,"program":23},{"pitch":72,"velocity":97,"startTime":191.69160164583332,"endTime":192.0041016875,"instrument":8,"program":23},{"pitch":75,"velocity":128,"startTime":192.0516560416667,"endTime":192.32339520833332,"instrument":8,"program":23},{"pitch":74,"velocity":87,"startTime":192.36415608333334,"endTime":193.28127577083333,"instrument":8,"program":23},{"pitch":72,"velocity":128,"startTime":193.70247147916666,"endTime":194.27991720833333,"instrument":8,"program":23},{"pitch":74,"velocity":128,"startTime":194.32747156250002,"endTime":195.17665645833333,"instrument":8,"program":23},{"pitch":72,"velocity":97,"startTime":195.2242108125,"endTime":195.49594997916668,"instrument":8,"program":23},{"pitch":72,"velocity":128,"startTime":195.62502608333332,"endTime":196.508178375,"instrument":8,"program":23},{"pitch":70,"velocity":114,"startTime":196.5353522916667,"endTime":196.80709145833333,"instrument":8,"program":23},{"pitch":70,"velocity":128,"startTime":196.92937408333333,"endTime":197.2147002083333,"instrument":8,"program":23},{"pitch":74,"velocity":97,"startTime":197.26904804166668,"endTime":197.52040677083332,"instrument":8,"program":23},{"pitch":72,"velocity":78,"startTime":197.59513504166668,"endTime":198.86551564583334,"instrument":8,"program":23},{"pitch":70,"velocity":128,"startTime":198.8926895625,"endTime":199.4633418125,"instrument":8,"program":23},{"pitch":72,"velocity":114,"startTime":199.5108961666667,"endTime":200.4008419375,"instrument":8,"program":23},{"pitch":70,"velocity":128,"startTime":200.41442889583334,"endTime":200.73372241666667,"instrument":8,"program":23},{"pitch":70,"velocity":128,"startTime":200.81524416666667,"endTime":201.71198341666667,"instrument":8,"program":23},{"pitch":69,"velocity":114,"startTime":201.7527442916667,"endTime":201.99730954166668,"instrument":8,"program":23},{"pitch":69,"velocity":128,"startTime":202.1127986875,"endTime":202.41171177083334,"instrument":8,"program":23},{"pitch":72,"velocity":114,"startTime":202.459266125,"endTime":202.72421181250002,"instrument":8,"program":23},{"pitch":70,"velocity":128,"startTime":202.77176616666668,"endTime":204.0013858958333,"instrument":8,"program":23},{"pitch":69,"velocity":114,"startTime":204.0625272083333,"endTime":204.70790772916666,"instrument":8,"program":23},{"pitch":67,"velocity":114,"startTime":204.72149468749998,"endTime":205.3804621666667,"instrument":8,"program":23},{"pitch":66,"velocity":128,"startTime":205.42122304166668,"endTime":206.03942964583334,"instrument":8,"program":23},{"pitch":67,"velocity":87,"startTime":206.05981008333333,"endTime":206.1481253125,"instrument":8,"program":23},{"pitch":62,"velocity":114,"startTime":206.37231012499998,"endTime":207.23508197916667,"instrument":8,"program":23},{"pitch":60,"velocity":97,"startTime":206.71198408333333,"endTime":207.29622329166668,"instrument":8,"program":23},{"pitch":66,"velocity":114,"startTime":206.71877756249998,"endTime":207.27584285416665,"instrument":8,"program":23},{"pitch":67,"velocity":61,"startTime":207.30981025000003,"endTime":207.50682114583333,"instrument":8,"program":23},{"pitch":62,"velocity":87,"startTime":207.3166037291667,"endTime":207.4932341875,"instrument":8,"program":23},{"pitch":58,"velocity":128,"startTime":207.32339720833332,"endTime":207.47964722916666,"instrument":8,"program":23},{"pitch":50,"velocity":87,"startTime":208.8587235,"endTime":208.9606256875,"instrument":8,"program":23},{"pitch":50,"velocity":114,"startTime":209.021767,"endTime":209.144049625,"instrument":8,"program":23},{"pitch":50,"velocity":128,"startTime":209.1848105,"endTime":209.3138866041667,"instrument":8,"program":23},{"pitch":54,"velocity":128,"startTime":209.34785399999998,"endTime":209.470136625,"instrument":8,"program":23},{"pitch":54,"velocity":114,"startTime":209.5108975,"endTime":209.5856257708333,"instrument":8,"program":23},{"pitch":54,"velocity":128,"startTime":209.673941,"endTime":209.76904970833334,"instrument":8,"program":23},{"pitch":54,"velocity":128,"startTime":209.8369845,"endTime":209.89812581249998,"instrument":8,"program":23},{"pitch":57,"velocity":128,"startTime":210.000028,"endTime":210.122310625,"instrument":8,"program":23},{"pitch":57,"velocity":75,"startTime":210.1630715,"endTime":210.25138672916668,"instrument":8,"program":23},{"pitch":57,"velocity":114,"startTime":210.32611500000002,"endTime":210.4348106666667,"instrument":8,"program":23},{"pitch":57,"velocity":87,"startTime":210.48915849999997,"endTime":210.59106068749998,"instrument":8,"program":23},{"pitch":60,"velocity":114,"startTime":210.652202,"endTime":210.7541041875,"instrument":8,"program":23},{"pitch":60,"velocity":97,"startTime":210.8152455,"endTime":210.91035420833333,"instrument":8,"program":23},{"pitch":60,"velocity":114,"startTime":210.97828900000002,"endTime":211.07339770833332,"instrument":8,"program":23},{"pitch":60,"velocity":97,"startTime":211.14133249999998,"endTime":211.24323468749998,"instrument":8,"program":23},{"pitch":63,"velocity":128,"startTime":211.304376,"endTime":211.38589775000003,"instrument":8,"program":23},{"pitch":63,"velocity":128,"startTime":211.4674195,"endTime":211.54894124999998,"instrument":8,"program":23},{"pitch":63,"velocity":128,"startTime":211.63046300000002,"endTime":211.73236518750002,"instrument":8,"program":23},{"pitch":63,"velocity":128,"startTime":211.7935065,"endTime":211.8682347708333,"instrument":8,"program":23},{"pitch":62,"velocity":128,"startTime":211.95655,"endTime":212.06524566666667,"instrument":8,"program":23},{"pitch":62,"velocity":97,"startTime":212.1195935,"endTime":212.2147022083333,"instrument":8,"program":23},{"pitch":62,"velocity":128,"startTime":212.28263700000002,"endTime":212.3913326666667,"instrument":8,"program":23},{"pitch":62,"velocity":97,"startTime":212.4456805,"endTime":212.5475826875,"instrument":8,"program":23},{"pitch":60,"velocity":114,"startTime":212.608724,"endTime":212.73100662500002,"instrument":8,"program":23},{"pitch":60,"velocity":97,"startTime":212.7717675,"endTime":212.8668762083333,"instrument":8,"program":23},{"pitch":60,"velocity":114,"startTime":212.934811,"endTime":213.057093625,"instrument":8,"program":23},{"pitch":60,"velocity":87,"startTime":213.0978545,"endTime":213.1861697291667,"instrument":8,"program":23},{"pitch":57,"velocity":114,"startTime":213.260898,"endTime":213.37638714583332,"instrument":8,"program":23},{"pitch":57,"velocity":97,"startTime":213.4239415,"endTime":213.5190502083333,"instrument":8,"program":23},{"pitch":57,"velocity":78,"startTime":213.586985,"endTime":213.6888871875,"instrument":8,"program":23},{"pitch":57,"velocity":97,"startTime":213.7500285,"endTime":213.85193068750002,"instrument":8,"program":23},{"pitch":58,"velocity":128,"startTime":213.913072,"endTime":214.0149741875,"instrument":8,"program":23},{"pitch":58,"velocity":128,"startTime":214.0761155,"endTime":214.15084377083335,"instrument":8,"program":23},{"pitch":58,"velocity":128,"startTime":214.239159,"endTime":214.3410611875,"instrument":8,"program":23},{"pitch":58,"velocity":128,"startTime":214.40220250000002,"endTime":214.50410468750002,"instrument":8,"program":23},{"pitch":62,"velocity":128,"startTime":214.565246,"endTime":214.68073514583332,"instrument":8,"program":23},{"pitch":62,"velocity":97,"startTime":214.7282895,"endTime":214.80981125000002,"instrument":8,"program":23},{"pitch":62,"velocity":128,"startTime":214.891333,"endTime":214.9932351875,"instrument":8,"program":23},{"pitch":62,"velocity":114,"startTime":215.05437650000002,"endTime":215.15627868750002,"instrument":8,"program":23},{"pitch":67,"velocity":128,"startTime":215.21741999999998,"endTime":215.32611566666668,"instrument":8,"program":23},{"pitch":67,"velocity":97,"startTime":215.3804635,"endTime":215.48915916666667,"instrument":8,"program":23},{"pitch":67,"velocity":97,"startTime":215.543507,"endTime":215.6454091875,"instrument":8,"program":23},{"pitch":67,"velocity":97,"startTime":215.70655050000002,"endTime":215.80845268750002,"instrument":8,"program":23},{"pitch":69,"velocity":128,"startTime":215.86959399999998,"endTime":215.97828966666668,"instrument":8,"program":23},{"pitch":69,"velocity":97,"startTime":216.0326375,"endTime":216.1345396875,"instrument":8,"program":23},{"pitch":69,"velocity":114,"startTime":216.195681,"endTime":216.2975831875,"instrument":8,"program":23},{"pitch":69,"velocity":114,"startTime":216.35872450000002,"endTime":216.4674201666667,"instrument":8,"program":23},{"pitch":70,"velocity":128,"startTime":216.52176799999998,"endTime":216.61687670833334,"instrument":8,"program":23},{"pitch":70,"velocity":128,"startTime":216.6848115,"endTime":216.76633325,"instrument":8,"program":23},{"pitch":70,"velocity":128,"startTime":216.847855,"endTime":216.9429637083333,"instrument":8,"program":23},{"pitch":70,"velocity":128,"startTime":217.01089850000002,"endTime":217.10600720833332,"instrument":8,"program":23},{"pitch":69,"velocity":114,"startTime":217.173942,"endTime":217.2894311458333,"instrument":8,"program":23},{"pitch":69,"velocity":97,"startTime":217.3369855,"endTime":217.4320942083333,"instrument":8,"program":23},{"pitch":69,"velocity":97,"startTime":217.500029,"endTime":217.6087246666667,"instrument":8,"program":23},{"pitch":69,"velocity":97,"startTime":217.6630725,"endTime":217.75818120833333,"instrument":8,"program":23},{"pitch":67,"velocity":128,"startTime":217.826116,"endTime":217.93481166666666,"instrument":8,"program":23},{"pitch":67,"velocity":97,"startTime":217.9891595,"endTime":218.0842682083333,"instrument":8,"program":23},{"pitch":67,"velocity":114,"startTime":218.152203,"endTime":218.2473117083333,"instrument":8,"program":23},{"pitch":67,"velocity":87,"startTime":218.3152465,"endTime":218.4239421666667,"instrument":8,"program":23},{"pitch":66,"velocity":128,"startTime":218.47829000000002,"endTime":218.57339870833334,"instrument":8,"program":23},{"pitch":66,"velocity":128,"startTime":218.6413335,"endTime":218.72964872916668,"instrument":8,"program":23},{"pitch":66,"velocity":128,"startTime":218.804377,"endTime":218.89269222916667,"instrument":8,"program":23},{"pitch":66,"velocity":128,"startTime":218.9674205,"endTime":219.06252920833333,"instrument":8,"program":23},{"pitch":69,"velocity":128,"startTime":219.13046400000002,"endTime":219.2595401041667,"instrument":8,"program":23},{"pitch":69,"velocity":97,"startTime":219.29350749999998,"endTime":219.3818227291667,"instrument":8,"program":23},{"pitch":69,"velocity":128,"startTime":219.456551,"endTime":219.57204014583334,"instrument":8,"program":23},{"pitch":69,"velocity":87,"startTime":219.6195945,"endTime":219.7214966875,"instrument":8,"program":23},{"pitch":66,"velocity":128,"startTime":219.78263800000002,"endTime":219.8981271458333,"instrument":8,"program":23},{"pitch":66,"velocity":128,"startTime":219.94568149999998,"endTime":220.0339967291667,"instrument":8,"program":23},{"pitch":66,"velocity":128,"startTime":220.108725,"endTime":220.20383370833332,"instrument":8,"program":23},{"pitch":66,"velocity":128,"startTime":220.2717685,"endTime":220.312529375,"instrument":8,"program":23},{"pitch":62,"velocity":128,"startTime":220.43481200000002,"endTime":220.557094625,"instrument":8,"program":23},{"pitch":62,"velocity":87,"startTime":220.59785549999998,"endTime":220.69296420833334,"instrument":8,"program":23},{"pitch":62,"velocity":114,"startTime":220.760899,"endTime":220.87638814583332,"instrument":8,"program":23},{"pitch":62,"velocity":97,"startTime":220.9239425,"endTime":221.0190512083333,"instrument":8,"program":23},{"pitch":60,"velocity":114,"startTime":221.08698600000002,"endTime":221.20247514583332,"instrument":8,"program":23},{"pitch":60,"velocity":97,"startTime":221.25002949999998,"endTime":221.35193168749998,"instrument":8,"program":23},{"pitch":60,"velocity":114,"startTime":221.413073,"endTime":221.5149751875,"instrument":8,"program":23},{"pitch":60,"velocity":87,"startTime":221.5761165,"endTime":221.6712252083333,"instrument":8,"program":23},{"pitch":57,"velocity":114,"startTime":221.73916,"endTime":221.85464914583332,"instrument":8,"program":23},{"pitch":57,"velocity":87,"startTime":221.9022035,"endTime":221.99731220833334,"instrument":8,"program":23},{"pitch":57,"velocity":97,"startTime":222.065247,"endTime":222.17394266666668,"instrument":8,"program":23},{"pitch":57,"velocity":87,"startTime":222.2282905,"endTime":222.3233992083333,"instrument":8,"program":23},{"pitch":54,"velocity":128,"startTime":222.391334,"endTime":222.5000296666667,"instrument":8,"program":23},{"pitch":54,"velocity":128,"startTime":222.55437750000002,"endTime":222.64948620833334,"instrument":8,"program":23},{"pitch":54,"velocity":87,"startTime":222.717421,"endTime":222.8464971041667,"instrument":8,"program":23},{"pitch":54,"velocity":114,"startTime":222.8804645,"endTime":222.9891601666667,"instrument":8,"program":23},{"pitch":50,"velocity":128,"startTime":223.043508,"endTime":223.17258410416667,"instrument":8,"program":23},{"pitch":50,"velocity":87,"startTime":223.20655150000002,"endTime":223.30166020833335,"instrument":8,"program":23},{"pitch":50,"velocity":97,"startTime":223.369595,"endTime":223.48508414583333,"instrument":8,"program":23},{"pitch":50,"velocity":87,"startTime":223.5326385,"endTime":223.62774720833332,"instrument":8,"program":23},{"pitch":54,"velocity":128,"startTime":223.695682,"endTime":223.7975841875,"instrument":8,"program":23},{"pitch":54,"velocity":114,"startTime":223.85872550000002,"endTime":223.93345377083332,"instrument":8,"program":23},{"pitch":54,"velocity":128,"startTime":224.02176899999998,"endTime":224.1168777083333,"instrument":8,"program":23},{"pitch":54,"velocity":128,"startTime":224.1848125,"endTime":224.27312772916667,"instrument":8,"program":23},{"pitch":55,"velocity":128,"startTime":224.347856,"endTime":224.47693210416668,"instrument":8,"program":23},{"pitch":55,"velocity":97,"startTime":224.51089950000002,"endTime":224.60600820833332,"instrument":8,"program":23},{"pitch":55,"velocity":128,"startTime":224.67394299999998,"endTime":224.78943214583333,"instrument":8,"program":23},{"pitch":55,"velocity":97,"startTime":224.8369865,"endTime":224.92530172916668,"instrument":8,"program":23},{"pitch":50,"velocity":114,"startTime":225.00003,"endTime":225.1019321875,"instrument":8,"program":23},{"pitch":50,"velocity":97,"startTime":225.16307350000002,"endTime":225.26497568750003,"instrument":8,"program":23},{"pitch":50,"velocity":97,"startTime":225.32611699999998,"endTime":225.44160614583333,"instrument":8,"program":23},{"pitch":50,"velocity":87,"startTime":225.4891605,"endTime":225.60464964583332,"instrument":8,"program":23},{"pitch":58,"velocity":128,"startTime":225.652204,"endTime":225.74051922916667,"instrument":8,"program":23},{"pitch":58,"velocity":128,"startTime":225.81524750000003,"endTime":225.87638881249998,"instrument":8,"program":23},{"pitch":58,"velocity":128,"startTime":225.97829099999998,"endTime":226.07339970833334,"instrument":8,"program":23},{"pitch":58,"velocity":114,"startTime":226.1413345,"endTime":226.1956823333333,"instrument":8,"program":23},{"pitch":55,"velocity":114,"startTime":226.304378,"endTime":226.41986714583334,"instrument":8,"program":23},{"pitch":55,"velocity":97,"startTime":226.4674215,"endTime":226.55573672916668,"instrument":8,"program":23},{"pitch":55,"velocity":128,"startTime":226.630465,"endTime":226.72557370833334,"instrument":8,"program":23},{"pitch":55,"velocity":87,"startTime":226.7935085,"endTime":226.8886172083333,"instrument":8,"program":23},{"pitch":62,"velocity":114,"startTime":226.95655200000002,"endTime":227.04486722916667,"instrument":8,"program":23},{"pitch":62,"velocity":114,"startTime":227.1195955,"endTime":227.20791072916668,"instrument":8,"program":23},{"pitch":62,"velocity":114,"startTime":227.28263900000002,"endTime":227.39133466666667,"instrument":8,"program":23},{"pitch":62,"velocity":87,"startTime":227.4456825,"endTime":227.53399772916669,"instrument":8,"program":23},{"pitch":58,"velocity":128,"startTime":227.608726,"endTime":227.69704122916667,"instrument":8,"program":23},{"pitch":58,"velocity":128,"startTime":227.7717695,"endTime":227.8464977708333,"instrument":8,"program":23},{"pitch":58,"velocity":128,"startTime":227.93481300000002,"endTime":228.0231282291667,"instrument":8,"program":23},{"pitch":58,"velocity":128,"startTime":228.09785649999998,"endTime":228.17258477083334,"instrument":8,"program":23},{"pitch":62,"velocity":114,"startTime":228.2609,"endTime":228.3695956666667,"instrument":8,"program":23},{"pitch":62,"velocity":115,"startTime":228.4239435,"endTime":228.54622612499998,"instrument":8,"program":23},{"pitch":62,"velocity":111,"startTime":228.58698700000002,"endTime":228.68209570833332,"instrument":8,"program":23},{"pitch":62,"velocity":120,"startTime":228.75003049999998,"endTime":228.872313125,"instrument":8,"program":23},{"pitch":59,"velocity":114,"startTime":228.913074,"endTime":229.03535662500002,"instrument":8,"program":23},{"pitch":59,"velocity":97,"startTime":229.0761175,"endTime":229.17122620833334,"instrument":8,"program":23},{"pitch":59,"velocity":114,"startTime":229.23916100000002,"endTime":229.34106318750003,"instrument":8,"program":23},{"pitch":59,"velocity":114,"startTime":229.40220449999998,"endTime":229.50410668749998,"instrument":8,"program":23},{"pitch":60,"velocity":128,"startTime":229.565248,"endTime":229.67394366666667,"instrument":8,"program":23},{"pitch":60,"velocity":87,"startTime":229.7282915,"endTime":229.8234002083333,"instrument":8,"program":23},{"pitch":60,"velocity":97,"startTime":229.89133500000003,"endTime":229.99323718750003,"instrument":8,"program":23},{"pitch":60,"velocity":97,"startTime":230.05437849999998,"endTime":230.1494872083333,"instrument":8,"program":23},{"pitch":63,"velocity":128,"startTime":230.217422,"endTime":230.29894375,"instrument":8,"program":23},{"pitch":63,"velocity":128,"startTime":230.3804655,"endTime":230.4484002916667,"instrument":8,"program":23},{"pitch":63,"velocity":128,"startTime":230.543509,"endTime":230.63861770833333,"instrument":8,"program":23},{"pitch":63,"velocity":128,"startTime":230.7065525,"endTime":230.7948677291667,"instrument":8,"program":23},{"pitch":67,"velocity":114,"startTime":230.869596,"endTime":230.97829166666668,"instrument":8,"program":23},{"pitch":67,"velocity":87,"startTime":231.03263950000002,"endTime":231.12095472916667,"instrument":8,"program":23},{"pitch":67,"velocity":114,"startTime":231.195683,"endTime":231.317965625,"instrument":8,"program":23},{"pitch":67,"velocity":97,"startTime":231.3587265,"endTime":231.4470417291667,"instrument":8,"program":23},{"pitch":66,"velocity":128,"startTime":231.52177,"endTime":231.6168787083333,"instrument":8,"program":23},{"pitch":66,"velocity":128,"startTime":231.6848135,"endTime":231.76633525,"instrument":8,"program":23},{"pitch":66,"velocity":128,"startTime":231.847857,"endTime":231.94296570833333,"instrument":8,"program":23},{"pitch":66,"velocity":128,"startTime":232.0109005,"endTime":232.10600920833335,"instrument":8,"program":23},{"pitch":67,"velocity":87,"startTime":232.173944,"endTime":232.3030201041667,"instrument":8,"program":23},{"pitch":67,"velocity":87,"startTime":232.3369875,"endTime":232.41850925,"instrument":8,"program":23},{"pitch":67,"velocity":114,"startTime":232.500031,"endTime":232.6155201458333,"instrument":8,"program":23},{"pitch":67,"velocity":97,"startTime":232.66307450000002,"endTime":232.75818320833335,"instrument":8,"program":23},{"pitch":69,"velocity":114,"startTime":232.82611799999998,"endTime":232.93481366666668,"instrument":8,"program":23},{"pitch":69,"velocity":97,"startTime":232.9891615,"endTime":233.0910636875,"instrument":8,"program":23},{"pitch":69,"velocity":97,"startTime":233.152205,"endTime":233.2676941458333,"instrument":8,"program":23},{"pitch":69,"velocity":114,"startTime":233.31524850000002,"endTime":233.40356372916668,"instrument":8,"program":23},{"pitch":70,"velocity":128,"startTime":233.47829199999998,"endTime":233.5666072291667,"instrument":8,"program":23},{"pitch":70,"velocity":128,"startTime":233.6413355,"endTime":233.70927029166668,"instrument":8,"program":23},{"pitch":70,"velocity":128,"startTime":233.804379,"endTime":233.89948770833334,"instrument":8,"program":23},{"pitch":70,"velocity":128,"startTime":233.96742250000003,"endTime":234.05573772916668,"instrument":8,"program":23},{"pitch":69,"velocity":128,"startTime":234.13046599999998,"endTime":234.23916166666666,"instrument":8,"program":23},{"pitch":69,"velocity":97,"startTime":234.2935095,"endTime":234.3954116875,"instrument":8,"program":23},{"pitch":69,"velocity":97,"startTime":234.456553,"endTime":234.5652486666667,"instrument":8,"program":23},{"pitch":69,"velocity":97,"startTime":234.61959650000003,"endTime":234.72829216666668,"instrument":8,"program":23},{"pitch":67,"velocity":114,"startTime":234.78264,"endTime":234.904922625,"instrument":8,"program":23},{"pitch":67,"velocity":97,"startTime":234.9456835,"endTime":235.0475856875,"instrument":8,"program":23},{"pitch":67,"velocity":97,"startTime":235.10872700000002,"endTime":235.19704222916667,"instrument":8,"program":23},{"pitch":67,"velocity":78,"startTime":235.2717705,"endTime":235.36687920833333,"instrument":8,"program":23},{"pitch":66,"velocity":128,"startTime":235.434814,"endTime":235.52992270833334,"instrument":8,"program":23},{"pitch":66,"velocity":128,"startTime":235.5978575,"endTime":235.68617272916666,"instrument":8,"program":23},{"pitch":66,"velocity":128,"startTime":235.76090100000002,"endTime":235.86280318750002,"instrument":8,"program":23},{"pitch":66,"velocity":128,"startTime":235.9239445,"endTime":235.9986727708333,"instrument":8,"program":23},{"pitch":65,"velocity":128,"startTime":236.086988,"endTime":236.1888901875,"instrument":8,"program":23},{"pitch":65,"velocity":97,"startTime":236.2500315,"endTime":236.3519336875,"instrument":8,"program":23},{"pitch":65,"velocity":114,"startTime":236.413075,"endTime":236.52856414583334,"instrument":8,"program":23},{"pitch":65,"velocity":97,"startTime":236.5761185,"endTime":236.67122720833333,"instrument":8,"program":23},{"pitch":64,"velocity":128,"startTime":236.739162,"endTime":236.85465114583332,"instrument":8,"program":23},{"pitch":64,"velocity":87,"startTime":236.9022055,"endTime":237.01090116666668,"instrument":8,"program":23},{"pitch":64,"velocity":97,"startTime":237.065249,"endTime":237.1739446666667,"instrument":8,"program":23},{"pitch":64,"velocity":87,"startTime":237.2282925,"endTime":237.3301946875,"instrument":8,"program":23},{"pitch":63,"velocity":128,"startTime":237.39133600000002,"endTime":237.50682514583332,"instrument":8,"program":23},{"pitch":63,"velocity":128,"startTime":237.55437949999998,"endTime":237.6426947291667,"instrument":8,"program":23},{"pitch":63,"velocity":128,"startTime":237.717423,"endTime":237.8193251875,"instrument":8,"program":23},{"pitch":63,"velocity":128,"startTime":237.8804665,"endTime":237.95519477083332,"instrument":8,"program":23},{"pitch":62,"velocity":128,"startTime":238.04351000000003,"endTime":238.15220566666667,"instrument":8,"program":23},{"pitch":62,"velocity":97,"startTime":238.20655349999998,"endTime":238.3016622083333,"instrument":8,"program":23},{"pitch":62,"velocity":97,"startTime":238.369597,"endTime":238.4714991875,"instrument":8,"program":23},{"pitch":62,"velocity":87,"startTime":238.5326405,"endTime":238.6413361666667,"instrument":8,"program":23},{"pitch":61,"velocity":128,"startTime":238.69568400000003,"endTime":238.79758618750003,"instrument":8,"program":23},{"pitch":61,"velocity":128,"startTime":238.8587275,"endTime":238.94024925000002,"instrument":8,"program":23},{"pitch":61,"velocity":128,"startTime":239.021771,"endTime":239.11687970833333,"instrument":8,"program":23},{"pitch":61,"velocity":128,"startTime":239.18481450000002,"endTime":239.27992320833332,"instrument":8,"program":23},{"pitch":62,"velocity":114,"startTime":239.34785800000003,"endTime":239.47693410416667,"instrument":8,"program":23},{"pitch":62,"velocity":87,"startTime":239.5109015,"endTime":239.60601020833332,"instrument":8,"program":23},{"pitch":62,"velocity":114,"startTime":239.673945,"endTime":239.7690537083333,"instrument":8,"program":23},{"pitch":62,"velocity":97,"startTime":239.83698850000002,"endTime":239.93209720833332,"instrument":8,"program":23},{"pitch":63,"velocity":128,"startTime":240.000032,"endTime":240.0883472291667,"instrument":8,"program":23},{"pitch":63,"velocity":128,"startTime":240.1630755,"endTime":240.2513907291667,"instrument":8,"program":23},{"pitch":63,"velocity":128,"startTime":240.326119,"endTime":240.4280211875,"instrument":8,"program":23},{"pitch":63,"velocity":128,"startTime":240.4891625,"endTime":240.5503038125,"instrument":8,"program":23},{"pitch":62,"velocity":114,"startTime":240.652206,"endTime":240.7676951458333,"instrument":8,"program":23},{"pitch":62,"velocity":97,"startTime":240.8152495,"endTime":240.9171516875,"instrument":8,"program":23},{"pitch":62,"velocity":97,"startTime":240.978293,"endTime":241.09378214583333,"instrument":8,"program":23},{"pitch":62,"velocity":87,"startTime":241.1413365,"endTime":241.2500321666667,"instrument":8,"program":23},{"pitch":60,"velocity":114,"startTime":241.30438,"endTime":241.4198691458333,"instrument":8,"program":23},{"pitch":60,"velocity":87,"startTime":241.4674235,"endTime":241.56253220833335,"instrument":8,"program":23},{"pitch":60,"velocity":114,"startTime":241.63046699999998,"endTime":241.752749625,"instrument":8,"program":23},{"pitch":60,"velocity":87,"startTime":241.7935105,"endTime":241.88861920833332,"instrument":8,"program":23},{"pitch":57,"velocity":97,"startTime":241.956554,"endTime":242.0652496666667,"instrument":8,"program":23},{"pitch":57,"velocity":75,"startTime":242.1195975,"endTime":242.2214996875,"instrument":8,"program":23},{"pitch":57,"velocity":114,"startTime":242.28264099999998,"endTime":242.39813014583333,"instrument":8,"program":23},{"pitch":57,"velocity":87,"startTime":242.4456845,"endTime":242.54079320833333,"instrument":8,"program":23},{"pitch":54,"velocity":128,"startTime":242.608728,"endTime":242.70383670833334,"instrument":8,"program":23},{"pitch":54,"velocity":128,"startTime":242.77177150000003,"endTime":242.86688020833333,"instrument":8,"program":23},{"pitch":54,"velocity":128,"startTime":242.934815,"endTime":243.0367171875,"instrument":8,"program":23},{"pitch":54,"velocity":128,"startTime":243.0978585,"endTime":243.1657932916667,"instrument":8,"program":23},{"pitch":50,"velocity":128,"startTime":243.26090200000002,"endTime":243.36280418750002,"instrument":8,"program":23},{"pitch":50,"velocity":87,"startTime":243.42394550000003,"endTime":243.51226072916668,"instrument":8,"program":23},{"pitch":50,"velocity":114,"startTime":243.586989,"endTime":243.69568466666666,"instrument":8,"program":23},{"pitch":50,"velocity":87,"startTime":243.7500325,"endTime":243.8519346875,"instrument":8,"program":23},{"pitch":54,"velocity":128,"startTime":243.91307600000002,"endTime":244.01497818750002,"instrument":8,"program":23},{"pitch":54,"velocity":114,"startTime":244.0761195,"endTime":244.14405429166666,"instrument":8,"program":23},{"pitch":54,"velocity":128,"startTime":244.239163,"endTime":244.3410651875,"instrument":8,"program":23},{"pitch":54,"velocity":114,"startTime":244.4022065,"endTime":244.51090216666668,"instrument":8,"program":23},{"pitch":57,"velocity":47,"startTime":244.56525000000002,"endTime":244.66715218750002,"instrument":8,"program":23},{"pitch":57,"velocity":70,"startTime":244.7282935,"endTime":244.80981525,"instrument":8,"program":23},{"pitch":57,"velocity":97,"startTime":244.891337,"endTime":244.9932391875,"instrument":8,"program":23},{"pitch":57,"velocity":87,"startTime":245.0543805,"endTime":245.1494892083333,"instrument":8,"program":23},{"pitch":55,"velocity":114,"startTime":245.217424,"endTime":245.2853587916667,"instrument":8,"program":23},{"pitch":75,"velocity":128,"startTime":245.3804675,"endTime":245.4823696875,"instrument":8,"program":23},{"pitch":74,"velocity":128,"startTime":245.543511,"endTime":245.6725871041667,"instrument":8,"program":23},{"pitch":72,"velocity":87,"startTime":245.7065545,"endTime":245.82204364583333,"instrument":8,"program":23},{"pitch":70,"velocity":128,"startTime":245.869598,"endTime":245.9782936666667,"instrument":8,"program":23},{"pitch":69,"velocity":114,"startTime":246.0326415,"endTime":246.1345436875,"instrument":8,"program":23},{"pitch":67,"velocity":114,"startTime":246.195685,"endTime":246.31117414583332,"instrument":8,"program":23},{"pitch":66,"velocity":128,"startTime":246.35872849999998,"endTime":246.4945980833333,"instrument":8,"program":23},{"pitch":63,"velocity":128,"startTime":246.521772,"endTime":246.6644350625,"instrument":8,"program":23},{"pitch":62,"velocity":114,"startTime":246.6848155,"endTime":246.80709812499998,"instrument":8,"program":23},{"pitch":60,"velocity":87,"startTime":246.847859,"endTime":246.96334814583332,"instrument":8,"program":23},{"pitch":58,"velocity":128,"startTime":247.0109025,"endTime":247.133185125,"instrument":8,"program":23},{"pitch":57,"velocity":114,"startTime":247.173946,"endTime":247.28943514583332,"instrument":8,"program":23},{"pitch":55,"velocity":87,"startTime":247.33698950000002,"endTime":247.45927212499998,"instrument":8,"program":23},{"pitch":54,"velocity":128,"startTime":247.50003299999997,"endTime":247.61552214583332,"instrument":8,"program":23},{"pitch":57,"velocity":114,"startTime":247.6630765,"endTime":247.7921526041667,"instrument":8,"program":23},{"pitch":55,"velocity":97,"startTime":247.82612,"endTime":247.93481566666668,"instrument":8,"program":23},{"pitch":62,"velocity":128,"startTime":248.111446125,"endTime":249.0217723333333,"instrument":8,"program":23},{"pitch":60,"velocity":87,"startTime":248.4443266041667,"endTime":249.04215277083333,"instrument":8,"program":23},{"pitch":66,"velocity":128,"startTime":248.45112008333334,"endTime":249.0217723333333,"instrument":8,"program":23},{"pitch":67,"velocity":75,"startTime":249.03535929166668,"endTime":249.252750625,"instrument":8,"program":23},{"pitch":62,"velocity":114,"startTime":249.0557397291667,"endTime":249.24595714583333,"instrument":8,"program":23},{"pitch":58,"velocity":128,"startTime":249.06253320833332,"endTime":249.24595714583333,"instrument":8,"program":23},{"pitch":62,"velocity":76,"startTime":41.739136,"endTime":45.55027781249999,"instrument":9,"program":48},{"pitch":60,"velocity":76,"startTime":45.577451729166675,"endTime":46.88179972916667,"instrument":9,"program":48},{"pitch":66,"velocity":85,"startTime":45.584245208333336,"endTime":46.82745189583333,"instrument":9,"program":48},{"pitch":58,"velocity":53,"startTime":46.8138649375,"endTime":50.04756102083333,"instrument":9,"program":48},{"pitch":67,"velocity":61,"startTime":46.8138649375,"endTime":50.06794145833332,"instrument":9,"program":48},{"pitch":55,"velocity":100,"startTime":50.088321895833325,"endTime":50.75408285416667,"instrument":9,"program":48},{"pitch":67,"velocity":85,"startTime":50.75408285416667,"endTime":51.43343077083333,"instrument":9,"program":48},{"pitch":63,"velocity":85,"startTime":51.4198438125,"endTime":52.06522433333333,"instrument":9,"program":48},{"pitch":62,"velocity":85,"startTime":52.0720178125,"endTime":56.01223572916667,"instrument":9,"program":48},{"pitch":60,"velocity":68,"startTime":56.01223572916667,"endTime":57.316583729166666,"instrument":9,"program":48},{"pitch":66,"velocity":100,"startTime":56.01223572916667,"endTime":57.32337720833333,"instrument":9,"program":48},{"pitch":67,"velocity":51,"startTime":57.25544241666666,"endTime":60.0203884375,"instrument":9,"program":48},{"pitch":58,"velocity":61,"startTime":57.26223589583333,"endTime":59.979627562500006,"instrument":9,"program":48},{"pitch":70,"velocity":128,"startTime":60.543486333333334,"endTime":61.16169293750001,"instrument":9,"program":48},{"pitch":69,"velocity":100,"startTime":61.18886685416667,"endTime":61.88180172916666,"instrument":9,"program":48},{"pitch":67,"velocity":85,"startTime":61.86821477083333,"endTime":62.493214854166666,"instrument":9,"program":48},{"pitch":72,"velocity":85,"startTime":62.486421375,"endTime":65.42799785416666,"instrument":9,"program":48},{"pitch":74,"velocity":85,"startTime":65.45517177083333,"endTime":65.81522616666668,"instrument":9,"program":48},{"pitch":75,"velocity":85,"startTime":65.82201964583334,"endTime":66.1345196875,"instrument":9,"program":48},{"pitch":74,"velocity":53,"startTime":66.1345196875,"endTime":66.4606066875,"instrument":9,"program":48},{"pitch":75,"velocity":85,"startTime":66.46740016666666,"endTime":67.1127806875,"instrument":9,"program":48},{"pitch":77,"velocity":85,"startTime":67.09240025000001,"endTime":67.703813375,"instrument":9,"program":48},{"pitch":74,"velocity":66,"startTime":67.73098729166668,"endTime":69.07609616666666,"instrument":9,"program":48},{"pitch":70,"velocity":76,"startTime":69.05571572916666,"endTime":70.71332464583332,"instrument":9,"program":48},{"pitch":73,"velocity":100,"startTime":70.720118125,"endTime":71.02582468749999,"instrument":9,"program":48},{"pitch":74,"velocity":76,"startTime":71.03941164583333,"endTime":71.36549864583333,"instrument":9,"program":48},{"pitch":73,"velocity":51,"startTime":71.33832472916666,"endTime":71.68479216666668,"instrument":9,"program":48},{"pitch":74,"velocity":61,"startTime":71.69837912499999,"endTime":72.3301726875,"instrument":9,"program":48},{"pitch":75,"velocity":85,"startTime":72.31658572916666,"endTime":72.94837929166667,"instrument":9,"program":48},{"pitch":72,"velocity":68,"startTime":72.9415858125,"endTime":74.27990120833333,"instrument":9,"program":48},{"pitch":69,"velocity":85,"startTime":74.27990120833333,"endTime":75.86278185416666,"instrument":9,"program":48},{"pitch":72,"velocity":76,"startTime":75.86957533333333,"endTime":76.25680364583333,"instrument":9,"program":48},{"pitch":70,"velocity":68,"startTime":76.22283625,"endTime":76.51495585416666,"instrument":9,"program":48},{"pitch":69,"velocity":76,"startTime":76.50136889583332,"endTime":76.86142329166668,"instrument":9,"program":48},{"pitch":67,"velocity":68,"startTime":76.86821677083333,"endTime":77.50001033333335,"instrument":9,"program":48},{"pitch":66,"velocity":76,"startTime":77.48642337500002,"endTime":78.14539085416668,"instrument":9,"program":48},{"pitch":67,"velocity":68,"startTime":78.15218433333334,"endTime":78.53261916666666,"instrument":9,"program":48},{"pitch":62,"velocity":85,"startTime":81.46740216666666,"endTime":81.89539135416666,"instrument":9,"program":48},{"pitch":67,"velocity":85,"startTime":82.16033704166666,"endTime":82.33017402083334,"instrument":9,"program":48},{"pitch":67,"velocity":68,"startTime":83.478272,"endTime":83.91305466666667,"instrument":9,"program":48},{"pitch":69,"velocity":68,"startTime":83.804359,"endTime":84.21196775,"instrument":9,"program":48},{"pitch":70,"velocity":61,"startTime":84.1915873125,"endTime":85.10191352083335,"instrument":9,"program":48},{"pitch":67,"velocity":66,"startTime":85.10191352083335,"endTime":85.475554875,"instrument":9,"program":48},{"pitch":69,"velocity":68,"startTime":85.475554875,"endTime":85.7405005625,"instrument":9,"program":48},{"pitch":70,"velocity":51,"startTime":85.72691360416667,"endTime":86.046207125,"instrument":9,"program":48},{"pitch":69,"velocity":76,"startTime":86.05300060416667,"endTime":86.73234852083334,"instrument":9,"program":48},{"pitch":67,"velocity":76,"startTime":86.72555504166667,"endTime":86.93615289583335,"instrument":9,"program":48},{"pitch":67,"velocity":76,"startTime":104.30028564583334,"endTime":104.72827483333334,"instrument":9,"program":48},{"pitch":69,"velocity":68,"startTime":104.74186179166666,"endTime":105.08832922916667,"instrument":9,"program":48},{"pitch":70,"velocity":66,"startTime":105.08832922916667,"endTime":105.99186195833335,"instrument":9,"program":48},{"pitch":67,"velocity":68,"startTime":105.98506847916666,"endTime":106.2839815625,"instrument":9,"program":48},{"pitch":69,"velocity":76,"startTime":106.27039460416667,"endTime":106.52175333333335,"instrument":9,"program":48},{"pitch":70,"velocity":68,"startTime":106.508166375,"endTime":106.82066641666667,"instrument":9,"program":48},{"pitch":69,"velocity":76,"startTime":106.82066641666667,"endTime":107.53398172916667,"instrument":9,"program":48},{"pitch":67,"velocity":85,"startTime":107.52039477083333,"endTime":107.73778610416666,"instrument":9,"program":48},{"pitch":62,"velocity":68,"startTime":125.217408,"endTime":129.16441939583333,"instrument":9,"program":48},{"pitch":60,"velocity":56,"startTime":129.09648460416668,"endTime":130.38045216666666,"instrument":9,"program":48},{"pitch":66,"velocity":76,"startTime":129.09648460416668,"endTime":130.4144195625,"instrument":9,"program":48},{"pitch":58,"velocity":53,"startTime":130.3328978125,"endTime":133.5122460625,"instrument":9,"program":48},{"pitch":67,"velocity":36,"startTime":130.33969129166667,"endTime":133.54621345833334,"instrument":9,"program":48},{"pitch":55,"velocity":68,"startTime":133.573387375,"endTime":134.25952877083336,"instrument":9,"program":48},{"pitch":67,"velocity":61,"startTime":134.25952877083336,"endTime":134.94567016666664,"instrument":9,"program":48},{"pitch":63,"velocity":85,"startTime":134.8981158125,"endTime":135.529909375,"instrument":9,"program":48},{"pitch":62,"velocity":76,"startTime":135.52311589583334,"endTime":139.44974685416665,"instrument":9,"program":48},{"pitch":60,"velocity":61,"startTime":139.47012729166667,"endTime":140.82202964583334,"instrument":9,"program":48},{"pitch":66,"velocity":76,"startTime":139.47012729166667,"endTime":140.82202964583334,"instrument":9,"program":48},{"pitch":58,"velocity":51,"startTime":140.74050789583333,"endTime":143.48507347916666,"instrument":9,"program":48},{"pitch":67,"velocity":48,"startTime":140.74050789583333,"endTime":143.54621479166667,"instrument":9,"program":48},{"pitch":70,"velocity":116,"startTime":144.04213877083336,"endTime":144.69431277083333,"instrument":9,"program":48},{"pitch":69,"velocity":100,"startTime":144.68751929166666,"endTime":145.36007372916666,"instrument":9,"program":48},{"pitch":67,"velocity":76,"startTime":145.33969329166666,"endTime":145.9850738125,"instrument":9,"program":48},{"pitch":72,"velocity":76,"startTime":145.95110641666668,"endTime":148.9606176875,"instrument":9,"program":48},{"pitch":74,"velocity":68,"startTime":148.99458508333336,"endTime":149.49730254166667,"instrument":9,"program":48},{"pitch":75,"velocity":85,"startTime":149.48371558333335,"endTime":149.74866127083334,"instrument":9,"program":48},{"pitch":74,"velocity":56,"startTime":149.72828083333334,"endTime":149.96605260416666,"instrument":9,"program":48},{"pitch":75,"velocity":85,"startTime":149.94567216666667,"endTime":150.62502008333334,"instrument":9,"program":48},{"pitch":77,"velocity":76,"startTime":150.5910526875,"endTime":151.2024658125,"instrument":9,"program":48},{"pitch":74,"velocity":66,"startTime":151.23643320833332,"endTime":152.57474860416667,"instrument":9,"program":48},{"pitch":70,"velocity":76,"startTime":152.56116164583335,"endTime":154.16442272916666,"instrument":9,"program":48},{"pitch":73,"velocity":100,"startTime":154.15762924999999,"endTime":154.51089016666666,"instrument":9,"program":48},{"pitch":74,"velocity":68,"startTime":154.51768364583333,"endTime":154.83697716666666,"instrument":9,"program":48},{"pitch":73,"velocity":66,"startTime":154.80980325,"endTime":155.12909677083334,"instrument":9,"program":48},{"pitch":74,"velocity":61,"startTime":155.14268372916666,"endTime":155.79485772916667,"instrument":9,"program":48},{"pitch":75,"velocity":85,"startTime":155.78127077083334,"endTime":156.41306433333335,"instrument":9,"program":48},{"pitch":72,"velocity":68,"startTime":156.41306433333335,"endTime":157.75817320833335,"instrument":9,"program":48},{"pitch":69,"velocity":76,"startTime":157.76496668750002,"endTime":159.36143429166668,"instrument":9,"program":48},{"pitch":72,"velocity":76,"startTime":159.36822777083336,"endTime":159.75545608333334,"instrument":9,"program":48},{"pitch":70,"velocity":76,"startTime":159.73507564583335,"endTime":160.067956125,"instrument":9,"program":48},{"pitch":69,"velocity":85,"startTime":160.02719525,"endTime":160.36686920833336,"instrument":9,"program":48},{"pitch":67,"velocity":76,"startTime":160.36686920833336,"endTime":161.01224972916668,"instrument":9,"program":48},{"pitch":66,"velocity":85,"startTime":160.9850758125,"endTime":161.56252154166665,"instrument":9,"program":48},{"pitch":67,"velocity":76,"startTime":161.61007589583335,"endTime":161.8818150625,"instrument":9,"program":48},{"pitch":62,"velocity":85,"startTime":164.97964156249998,"endTime":165.5163264166667,"instrument":9,"program":48},{"pitch":67,"velocity":76,"startTime":165.57067425000002,"endTime":165.77447862500003,"instrument":9,"program":48},{"pitch":67,"velocity":100,"startTime":166.956544,"endTime":167.0584461875,"instrument":9,"program":48},{"pitch":66,"velocity":128,"startTime":167.282631,"endTime":167.37773970833334,"instrument":9,"program":48},{"pitch":67,"velocity":100,"startTime":167.608718,"endTime":167.731000625,"instrument":9,"program":48},{"pitch":69,"velocity":116,"startTime":167.934805,"endTime":168.0367071875,"instrument":9,"program":48},{"pitch":70,"velocity":128,"startTime":168.586979,"endTime":169.18480516666668,"instrument":9,"program":48},{"pitch":69,"velocity":116,"startTime":169.23915300000002,"endTime":169.56524,"instrument":9,"program":48},{"pitch":67,"velocity":100,"startTime":169.56524,"endTime":169.71469654166668,"instrument":9,"program":48},{"pitch":63,"velocity":128,"startTime":172.173936,"endTime":172.32339254166666,"instrument":9,"program":48},{"pitch":62,"velocity":116,"startTime":172.500023,"endTime":172.6426860625,"instrument":9,"program":48},{"pitch":63,"velocity":128,"startTime":172.82611,"endTime":172.9551861041667,"instrument":9,"program":48},{"pitch":65,"velocity":116,"startTime":173.152197,"endTime":173.31524050000002,"instrument":9,"program":48},{"pitch":67,"velocity":116,"startTime":173.804371,"endTime":174.37502325000003,"instrument":9,"program":48},{"pitch":63,"velocity":128,"startTime":174.456545,"endTime":174.8030124375,"instrument":9,"program":48},{"pitch":62,"velocity":128,"startTime":174.78263199999998,"endTime":174.9728494166667,"instrument":9,"program":48},{"pitch":67,"velocity":100,"startTime":177.39132800000002,"endTime":177.52719758333333,"instrument":9,"program":48},{"pitch":66,"velocity":128,"startTime":177.717415,"endTime":177.83290414583334,"instrument":9,"program":48},{"pitch":67,"velocity":100,"startTime":178.04350200000002,"endTime":178.17937158333334,"instrument":9,"program":48},{"pitch":69,"velocity":128,"startTime":178.369589,"endTime":178.48507814583334,"instrument":9,"program":48},{"pitch":70,"velocity":128,"startTime":179.021763,"endTime":179.59241525000002,"instrument":9,"program":48},{"pitch":69,"velocity":116,"startTime":179.673937,"endTime":180.01361095833332,"instrument":9,"program":48},{"pitch":67,"velocity":116,"startTime":180.00002400000002,"endTime":180.15627402083334,"instrument":9,"program":48},{"pitch":63,"velocity":128,"startTime":182.60872,"endTime":182.75817654166667,"instrument":9,"program":48},{"pitch":62,"velocity":128,"startTime":182.93480699999998,"endTime":183.08426354166667,"instrument":9,"program":48},{"pitch":63,"velocity":128,"startTime":183.260894,"endTime":183.38997010416668,"instrument":9,"program":48},{"pitch":65,"velocity":128,"startTime":183.58698099999998,"endTime":183.72285058333333,"instrument":9,"program":48},{"pitch":67,"velocity":116,"startTime":184.23915499999998,"endTime":184.7894268125,"instrument":9,"program":48},{"pitch":63,"velocity":128,"startTime":184.89132899999998,"endTime":185.20382904166667,"instrument":9,"program":48},{"pitch":62,"velocity":128,"startTime":185.21741600000001,"endTime":185.36687254166668,"instrument":9,"program":48},{"pitch":60,"velocity":66,"startTime":190.434808,"endTime":190.557090625,"instrument":9,"program":48},{"pitch":62,"velocity":68,"startTime":190.434808,"endTime":190.557090625,"instrument":9,"program":48},{"pitch":66,"velocity":116,"startTime":190.434808,"endTime":190.557090625,"instrument":9,"program":48},{"pitch":60,"velocity":85,"startTime":191.73915599999998,"endTime":191.861438625,"instrument":9,"program":48},{"pitch":62,"velocity":85,"startTime":191.73915599999998,"endTime":191.861438625,"instrument":9,"program":48},{"pitch":66,"velocity":116,"startTime":191.73915599999998,"endTime":191.861438625,"instrument":9,"program":48},{"pitch":60,"velocity":76,"startTime":193.04350399999998,"endTime":193.165786625,"instrument":9,"program":48},{"pitch":62,"velocity":85,"startTime":193.04350399999998,"endTime":193.165786625,"instrument":9,"program":48},{"pitch":66,"velocity":128,"startTime":193.04350399999998,"endTime":193.165786625,"instrument":9,"program":48},{"pitch":60,"velocity":76,"startTime":194.347852,"endTime":194.47013462500001,"instrument":9,"program":48},{"pitch":62,"velocity":85,"startTime":194.347852,"endTime":194.47013462500001,"instrument":9,"program":48},{"pitch":66,"velocity":116,"startTime":194.347852,"endTime":194.47013462500001,"instrument":9,"program":48},{"pitch":58,"velocity":68,"startTime":195.65220000000002,"endTime":195.774482625,"instrument":9,"program":48},{"pitch":62,"velocity":76,"startTime":195.65220000000002,"endTime":195.774482625,"instrument":9,"program":48},{"pitch":67,"velocity":66,"startTime":195.65220000000002,"endTime":195.774482625,"instrument":9,"program":48},{"pitch":58,"velocity":66,"startTime":196.95654800000003,"endTime":197.078830625,"instrument":9,"program":48},{"pitch":62,"velocity":76,"startTime":196.95654800000003,"endTime":197.078830625,"instrument":9,"program":48},{"pitch":67,"velocity":66,"startTime":196.95654800000003,"endTime":197.078830625,"instrument":9,"program":48},{"pitch":58,"velocity":66,"startTime":198.260896,"endTime":198.383178625,"instrument":9,"program":48},{"pitch":62,"velocity":85,"startTime":198.260896,"endTime":198.383178625,"instrument":9,"program":48},{"pitch":67,"velocity":68,"startTime":198.260896,"endTime":198.383178625,"instrument":9,"program":48},{"pitch":58,"velocity":61,"startTime":199.565244,"endTime":199.687526625,"instrument":9,"program":48},{"pitch":62,"velocity":76,"startTime":199.565244,"endTime":199.687526625,"instrument":9,"program":48},{"pitch":67,"velocity":76,"startTime":199.565244,"endTime":199.687526625,"instrument":9,"program":48},{"pitch":60,"velocity":76,"startTime":200.869592,"endTime":200.99187462499998,"instrument":9,"program":48},{"pitch":62,"velocity":76,"startTime":200.869592,"endTime":200.99187462499998,"instrument":9,"program":48},{"pitch":66,"velocity":128,"startTime":200.869592,"endTime":200.99187462499998,"instrument":9,"program":48},{"pitch":60,"velocity":76,"startTime":202.17394000000002,"endTime":202.29622262499998,"instrument":9,"program":48},{"pitch":62,"velocity":76,"startTime":202.17394000000002,"endTime":202.29622262499998,"instrument":9,"program":48},{"pitch":66,"velocity":116,"startTime":202.17394000000002,"endTime":202.29622262499998,"instrument":9,"program":48},{"pitch":60,"velocity":85,"startTime":203.47828800000002,"endTime":203.600570625,"instrument":9,"program":48},{"pitch":62,"velocity":85,"startTime":203.47828800000002,"endTime":203.600570625,"instrument":9,"program":48},{"pitch":66,"velocity":128,"startTime":203.47828800000002,"endTime":203.600570625,"instrument":9,"program":48},{"pitch":60,"velocity":85,"startTime":204.782636,"endTime":204.90491862500002,"instrument":9,"program":48},{"pitch":62,"velocity":85,"startTime":204.782636,"endTime":204.90491862500002,"instrument":9,"program":48},{"pitch":66,"velocity":116,"startTime":204.782636,"endTime":204.90491862500002,"instrument":9,"program":48},{"pitch":62,"velocity":100,"startTime":206.739158,"endTime":207.23508197916667,"instrument":9,"program":48},{"pitch":67,"velocity":100,"startTime":207.391332,"endTime":207.513614625,"instrument":9,"program":48},{"pitch":62,"velocity":76,"startTime":208.69568,"endTime":212.5951370416667,"instrument":9,"program":48},{"pitch":60,"velocity":68,"startTime":212.52720225000002,"endTime":213.83155025,"instrument":9,"program":48},{"pitch":66,"velocity":100,"startTime":212.54078920833334,"endTime":213.8383437291667,"instrument":9,"program":48},{"pitch":58,"velocity":66,"startTime":213.77720241666668,"endTime":217.0176919791667,"instrument":9,"program":48},{"pitch":67,"velocity":51,"startTime":213.77720241666668,"endTime":217.09242025,"instrument":9,"program":48},{"pitch":55,"velocity":85,"startTime":217.0720398125,"endTime":217.74459425,"instrument":9,"program":48},{"pitch":67,"velocity":76,"startTime":217.7378007708333,"endTime":218.40356172916668,"instrument":9,"program":48},{"pitch":63,"velocity":100,"startTime":218.356007375,"endTime":219.00138789583332,"instrument":9,"program":48},{"pitch":62,"velocity":85,"startTime":219.02856181250002,"endTime":222.921225375,"instrument":9,"program":48},{"pitch":60,"velocity":76,"startTime":222.9416058125,"endTime":224.3206820833333,"instrument":9,"program":48},{"pitch":66,"velocity":100,"startTime":222.9483992916667,"endTime":224.30709512500002,"instrument":9,"program":48},{"pitch":58,"velocity":61,"startTime":224.25954077083333,"endTime":226.97013895833334,"instrument":9,"program":48},{"pitch":67,"velocity":38,"startTime":224.27312772916667,"endTime":227.0244867916667,"instrument":9,"program":48},{"pitch":70,"velocity":128,"startTime":227.5068238125,"endTime":228.1929652083333,"instrument":9,"program":48},{"pitch":69,"velocity":76,"startTime":228.1929652083333,"endTime":228.85193268749998,"instrument":9,"program":48},{"pitch":67,"velocity":76,"startTime":228.8451392083333,"endTime":229.47013929166667,"instrument":9,"program":48},{"pitch":72,"velocity":85,"startTime":229.4633458125,"endTime":232.41850925,"instrument":9,"program":48},{"pitch":74,"velocity":68,"startTime":232.41850925,"endTime":232.7921506041667,"instrument":9,"program":48},{"pitch":75,"velocity":100,"startTime":232.785357125,"endTime":233.0910636875,"instrument":9,"program":48},{"pitch":74,"velocity":61,"startTime":233.07747672916668,"endTime":233.4443246041667,"instrument":9,"program":48},{"pitch":75,"velocity":85,"startTime":233.437531125,"endTime":234.089705125,"instrument":9,"program":48},{"pitch":77,"velocity":85,"startTime":234.06253120833333,"endTime":234.65356389583332,"instrument":9,"program":48},{"pitch":74,"velocity":61,"startTime":234.68073781249998,"endTime":236.0326401666667,"instrument":9,"program":48},{"pitch":70,"velocity":85,"startTime":236.01905320833333,"endTime":237.6426947291667,"instrument":9,"program":48},{"pitch":73,"velocity":100,"startTime":237.62910777083334,"endTime":237.9823686875,"instrument":9,"program":48},{"pitch":74,"velocity":85,"startTime":237.9891621666667,"endTime":238.3152491666667,"instrument":9,"program":48},{"pitch":73,"velocity":85,"startTime":238.3152491666667,"endTime":238.6481296458333,"instrument":9,"program":48},{"pitch":74,"velocity":68,"startTime":238.66171660416668,"endTime":239.32068408333333,"instrument":9,"program":48},{"pitch":75,"velocity":76,"startTime":239.30709712499998,"endTime":239.9456841666667,"instrument":9,"program":48},{"pitch":72,"velocity":76,"startTime":239.93209720833332,"endTime":241.27041260416667,"instrument":9,"program":48},{"pitch":69,"velocity":85,"startTime":241.263619125,"endTime":242.86008672916668,"instrument":9,"program":48},{"pitch":72,"velocity":85,"startTime":242.86008672916668,"endTime":243.2541085208333,"instrument":9,"program":48},{"pitch":70,"velocity":66,"startTime":243.1997606875,"endTime":243.55981508333332,"instrument":9,"program":48},{"pitch":69,"velocity":76,"startTime":243.51905420833333,"endTime":243.87231512500003,"instrument":9,"program":48},{"pitch":67,"velocity":76,"startTime":243.86552164583333,"endTime":244.524489125,"instrument":9,"program":48},{"pitch":66,"velocity":85,"startTime":244.4973152083333,"endTime":245.1155218125,"instrument":9,"program":48},{"pitch":67,"velocity":76,"startTime":245.14269572916666,"endTime":245.40764141666668,"instrument":9,"program":48},{"pitch":62,"velocity":116,"startTime":248.4171526875,"endTime":249.04894625,"instrument":9,"program":48},{"pitch":67,"velocity":76,"startTime":249.08291364583332,"endTime":249.3003049791667,"instrument":9,"program":48},{"pitch":62,"velocity":71,"startTime":41.739136,"endTime":45.55027781249999,"instrument":10,"program":49},{"pitch":60,"velocity":71,"startTime":45.577451729166675,"endTime":46.88179972916667,"instrument":10,"program":49},{"pitch":66,"velocity":80,"startTime":45.584245208333336,"endTime":46.82745189583333,"instrument":10,"program":49},{"pitch":58,"velocity":50,"startTime":46.8138649375,"endTime":50.04756102083333,"instrument":10,"program":49},{"pitch":67,"velocity":57,"startTime":46.8138649375,"endTime":50.06794145833332,"instrument":10,"program":49},{"pitch":55,"velocity":94,"startTime":50.088321895833325,"endTime":50.75408285416667,"instrument":10,"program":49},{"pitch":67,"velocity":80,"startTime":50.75408285416667,"endTime":51.43343077083333,"instrument":10,"program":49},{"pitch":63,"velocity":80,"startTime":51.4198438125,"endTime":52.06522433333333,"instrument":10,"program":49},{"pitch":62,"velocity":80,"startTime":52.0720178125,"endTime":56.01223572916667,"instrument":10,"program":49},{"pitch":60,"velocity":64,"startTime":56.01223572916667,"endTime":57.316583729166666,"instrument":10,"program":49},{"pitch":66,"velocity":94,"startTime":56.01223572916667,"endTime":57.32337720833333,"instrument":10,"program":49},{"pitch":67,"velocity":48,"startTime":57.25544241666666,"endTime":60.0203884375,"instrument":10,"program":49},{"pitch":58,"velocity":57,"startTime":57.26223589583333,"endTime":59.979627562500006,"instrument":10,"program":49},{"pitch":70,"velocity":128,"startTime":60.543486333333334,"endTime":61.16169293750001,"instrument":10,"program":49},{"pitch":69,"velocity":94,"startTime":61.18886685416667,"endTime":61.88180172916666,"instrument":10,"program":49},{"pitch":67,"velocity":80,"startTime":61.86821477083333,"endTime":62.493214854166666,"instrument":10,"program":49},{"pitch":72,"velocity":80,"startTime":62.486421375,"endTime":65.42799785416666,"instrument":10,"program":49},{"pitch":74,"velocity":80,"startTime":65.45517177083333,"endTime":65.81522616666668,"instrument":10,"program":49},{"pitch":75,"velocity":80,"startTime":65.82201964583334,"endTime":66.1345196875,"instrument":10,"program":49},{"pitch":74,"velocity":50,"startTime":66.1345196875,"endTime":66.4606066875,"instrument":10,"program":49},{"pitch":75,"velocity":80,"startTime":66.46740016666666,"endTime":67.1127806875,"instrument":10,"program":49},{"pitch":77,"velocity":80,"startTime":67.09240025000001,"endTime":67.703813375,"instrument":10,"program":49},{"pitch":74,"velocity":62,"startTime":67.73098729166668,"endTime":69.07609616666666,"instrument":10,"program":49},{"pitch":70,"velocity":71,"startTime":69.05571572916666,"endTime":70.71332464583332,"instrument":10,"program":49},{"pitch":73,"velocity":94,"startTime":70.720118125,"endTime":71.02582468749999,"instrument":10,"program":49},{"pitch":74,"velocity":71,"startTime":71.03941164583333,"endTime":71.36549864583333,"instrument":10,"program":49},{"pitch":73,"velocity":48,"startTime":71.33832472916666,"endTime":71.68479216666668,"instrument":10,"program":49},{"pitch":74,"velocity":57,"startTime":71.69837912499999,"endTime":72.3301726875,"instrument":10,"program":49},{"pitch":75,"velocity":80,"startTime":72.31658572916666,"endTime":72.94837929166667,"instrument":10,"program":49},{"pitch":72,"velocity":64,"startTime":72.9415858125,"endTime":74.27990120833333,"instrument":10,"program":49},{"pitch":69,"velocity":80,"startTime":74.27990120833333,"endTime":75.86278185416666,"instrument":10,"program":49},{"pitch":72,"velocity":71,"startTime":75.86957533333333,"endTime":76.25680364583333,"instrument":10,"program":49},{"pitch":70,"velocity":64,"startTime":76.22283625,"endTime":76.51495585416666,"instrument":10,"program":49},{"pitch":69,"velocity":71,"startTime":76.50136889583332,"endTime":76.86142329166668,"instrument":10,"program":49},{"pitch":67,"velocity":64,"startTime":76.86821677083333,"endTime":77.50001033333335,"instrument":10,"program":49},{"pitch":66,"velocity":71,"startTime":77.48642337500002,"endTime":78.14539085416668,"instrument":10,"program":49},{"pitch":67,"velocity":64,"startTime":78.15218433333334,"endTime":78.53261916666666,"instrument":10,"program":49},{"pitch":62,"velocity":80,"startTime":81.46740216666666,"endTime":81.89539135416666,"instrument":10,"program":49},{"pitch":67,"velocity":80,"startTime":82.16033704166666,"endTime":82.33017402083334,"instrument":10,"program":49},{"pitch":67,"velocity":64,"startTime":83.478272,"endTime":83.91305466666667,"instrument":10,"program":49},{"pitch":69,"velocity":64,"startTime":83.804359,"endTime":84.21196775,"instrument":10,"program":49},{"pitch":70,"velocity":57,"startTime":84.1915873125,"endTime":85.10191352083335,"instrument":10,"program":49},{"pitch":67,"velocity":62,"startTime":85.10191352083335,"endTime":85.475554875,"instrument":10,"program":49},{"pitch":69,"velocity":64,"startTime":85.475554875,"endTime":85.7405005625,"instrument":10,"program":49},{"pitch":70,"velocity":48,"startTime":85.72691360416667,"endTime":86.046207125,"instrument":10,"program":49},{"pitch":69,"velocity":71,"startTime":86.05300060416667,"endTime":86.73234852083334,"instrument":10,"program":49},{"pitch":67,"velocity":71,"startTime":86.72555504166667,"endTime":86.93615289583335,"instrument":10,"program":49},{"pitch":67,"velocity":71,"startTime":104.30028564583334,"endTime":104.72827483333334,"instrument":10,"program":49},{"pitch":69,"velocity":64,"startTime":104.74186179166666,"endTime":105.08832922916667,"instrument":10,"program":49},{"pitch":70,"velocity":62,"startTime":105.08832922916667,"endTime":105.99186195833335,"instrument":10,"program":49},{"pitch":67,"velocity":64,"startTime":105.98506847916666,"endTime":106.2839815625,"instrument":10,"program":49},{"pitch":69,"velocity":71,"startTime":106.27039460416667,"endTime":106.52175333333335,"instrument":10,"program":49},{"pitch":70,"velocity":64,"startTime":106.508166375,"endTime":106.82066641666667,"instrument":10,"program":49},{"pitch":69,"velocity":71,"startTime":106.82066641666667,"endTime":107.53398172916667,"instrument":10,"program":49},{"pitch":67,"velocity":80,"startTime":107.52039477083333,"endTime":107.73778610416666,"instrument":10,"program":49},{"pitch":62,"velocity":64,"startTime":125.217408,"endTime":129.16441939583333,"instrument":10,"program":49},{"pitch":60,"velocity":53,"startTime":129.09648460416668,"endTime":130.38045216666666,"instrument":10,"program":49},{"pitch":66,"velocity":71,"startTime":129.09648460416668,"endTime":130.4144195625,"instrument":10,"program":49},{"pitch":58,"velocity":50,"startTime":130.3328978125,"endTime":133.5122460625,"instrument":10,"program":49},{"pitch":67,"velocity":34,"startTime":130.33969129166667,"endTime":133.54621345833334,"instrument":10,"program":49},{"pitch":55,"velocity":64,"startTime":133.573387375,"endTime":134.25952877083336,"instrument":10,"program":49},{"pitch":67,"velocity":57,"startTime":134.25952877083336,"endTime":134.94567016666664,"instrument":10,"program":49},{"pitch":63,"velocity":80,"startTime":134.8981158125,"endTime":135.529909375,"instrument":10,"program":49},{"pitch":62,"velocity":71,"startTime":135.52311589583334,"endTime":139.44974685416665,"instrument":10,"program":49},{"pitch":60,"velocity":57,"startTime":139.47012729166667,"endTime":140.82202964583334,"instrument":10,"program":49},{"pitch":66,"velocity":71,"startTime":139.47012729166667,"endTime":140.82202964583334,"instrument":10,"program":49},{"pitch":58,"velocity":48,"startTime":140.74050789583333,"endTime":143.48507347916666,"instrument":10,"program":49},{"pitch":67,"velocity":46,"startTime":140.74050789583333,"endTime":143.54621479166667,"instrument":10,"program":49},{"pitch":70,"velocity":109,"startTime":144.04213877083336,"endTime":144.69431277083333,"instrument":10,"program":49},{"pitch":69,"velocity":94,"startTime":144.68751929166666,"endTime":145.36007372916666,"instrument":10,"program":49},{"pitch":67,"velocity":71,"startTime":145.33969329166666,"endTime":145.9850738125,"instrument":10,"program":49},{"pitch":72,"velocity":71,"startTime":145.95110641666668,"endTime":148.9606176875,"instrument":10,"program":49},{"pitch":74,"velocity":64,"startTime":148.99458508333336,"endTime":149.49730254166667,"instrument":10,"program":49},{"pitch":75,"velocity":80,"startTime":149.48371558333335,"endTime":149.74866127083334,"instrument":10,"program":49},{"pitch":74,"velocity":53,"startTime":149.72828083333334,"endTime":149.96605260416666,"instrument":10,"program":49},{"pitch":75,"velocity":80,"startTime":149.94567216666667,"endTime":150.62502008333334,"instrument":10,"program":49},{"pitch":77,"velocity":71,"startTime":150.5910526875,"endTime":151.2024658125,"instrument":10,"program":49},{"pitch":74,"velocity":62,"startTime":151.23643320833332,"endTime":152.57474860416667,"instrument":10,"program":49},{"pitch":70,"velocity":71,"startTime":152.56116164583335,"endTime":154.16442272916666,"instrument":10,"program":49},{"pitch":73,"velocity":94,"startTime":154.15762924999999,"endTime":154.51089016666666,"instrument":10,"program":49},{"pitch":74,"velocity":64,"startTime":154.51768364583333,"endTime":154.83697716666666,"instrument":10,"program":49},{"pitch":73,"velocity":62,"startTime":154.80980325,"endTime":155.12909677083334,"instrument":10,"program":49},{"pitch":74,"velocity":57,"startTime":155.14268372916666,"endTime":155.79485772916667,"instrument":10,"program":49},{"pitch":75,"velocity":80,"startTime":155.78127077083334,"endTime":156.41306433333335,"instrument":10,"program":49},{"pitch":72,"velocity":64,"startTime":156.41306433333335,"endTime":157.75817320833335,"instrument":10,"program":49},{"pitch":69,"velocity":71,"startTime":157.76496668750002,"endTime":159.36143429166668,"instrument":10,"program":49},{"pitch":72,"velocity":71,"startTime":159.36822777083336,"endTime":159.75545608333334,"instrument":10,"program":49},{"pitch":70,"velocity":71,"startTime":159.73507564583335,"endTime":160.067956125,"instrument":10,"program":49},{"pitch":69,"velocity":80,"startTime":160.02719525,"endTime":160.36686920833336,"instrument":10,"program":49},{"pitch":67,"velocity":71,"startTime":160.36686920833336,"endTime":161.01224972916668,"instrument":10,"program":49},{"pitch":66,"velocity":80,"startTime":160.9850758125,"endTime":161.56252154166665,"instrument":10,"program":49},{"pitch":67,"velocity":71,"startTime":161.61007589583335,"endTime":161.8818150625,"instrument":10,"program":49},{"pitch":62,"velocity":80,"startTime":164.97964156249998,"endTime":165.5163264166667,"instrument":10,"program":49},{"pitch":67,"velocity":71,"startTime":165.57067425000002,"endTime":165.77447862500003,"instrument":10,"program":49},{"pitch":67,"velocity":94,"startTime":166.956544,"endTime":167.0584461875,"instrument":10,"program":49},{"pitch":66,"velocity":128,"startTime":167.282631,"endTime":167.37773970833334,"instrument":10,"program":49},{"pitch":67,"velocity":94,"startTime":167.608718,"endTime":167.731000625,"instrument":10,"program":49},{"pitch":69,"velocity":109,"startTime":167.934805,"endTime":168.0367071875,"instrument":10,"program":49},{"pitch":70,"velocity":128,"startTime":168.586979,"endTime":169.18480516666668,"instrument":10,"program":49},{"pitch":69,"velocity":109,"startTime":169.23915300000002,"endTime":169.56524,"instrument":10,"program":49},{"pitch":67,"velocity":94,"startTime":169.56524,"endTime":169.71469654166668,"instrument":10,"program":49},{"pitch":63,"velocity":128,"startTime":172.173936,"endTime":172.32339254166666,"instrument":10,"program":49},{"pitch":62,"velocity":109,"startTime":172.500023,"endTime":172.6426860625,"instrument":10,"program":49},{"pitch":63,"velocity":128,"startTime":172.82611,"endTime":172.9551861041667,"instrument":10,"program":49},{"pitch":65,"velocity":109,"startTime":173.152197,"endTime":173.31524050000002,"instrument":10,"program":49},{"pitch":67,"velocity":109,"startTime":173.804371,"endTime":174.37502325000003,"instrument":10,"program":49},{"pitch":63,"velocity":128,"startTime":174.456545,"endTime":174.8030124375,"instrument":10,"program":49},{"pitch":62,"velocity":128,"startTime":174.78263199999998,"endTime":174.9728494166667,"instrument":10,"program":49},{"pitch":67,"velocity":94,"startTime":177.39132800000002,"endTime":177.52719758333333,"instrument":10,"program":49},{"pitch":66,"velocity":128,"startTime":177.717415,"endTime":177.83290414583334,"instrument":10,"program":49},{"pitch":67,"velocity":94,"startTime":178.04350200000002,"endTime":178.17937158333334,"instrument":10,"program":49},{"pitch":69,"velocity":128,"startTime":178.369589,"endTime":178.48507814583334,"instrument":10,"program":49},{"pitch":70,"velocity":128,"startTime":179.021763,"endTime":179.59241525000002,"instrument":10,"program":49},{"pitch":69,"velocity":109,"startTime":179.673937,"endTime":180.01361095833332,"instrument":10,"program":49},{"pitch":67,"velocity":109,"startTime":180.00002400000002,"endTime":180.15627402083334,"instrument":10,"program":49},{"pitch":63,"velocity":128,"startTime":182.60872,"endTime":182.75817654166667,"instrument":10,"program":49},{"pitch":62,"velocity":128,"startTime":182.93480699999998,"endTime":183.08426354166667,"instrument":10,"program":49},{"pitch":63,"velocity":128,"startTime":183.260894,"endTime":183.38997010416668,"instrument":10,"program":49},{"pitch":65,"velocity":128,"startTime":183.58698099999998,"endTime":183.72285058333333,"instrument":10,"program":49},{"pitch":67,"velocity":109,"startTime":184.23915499999998,"endTime":184.7894268125,"instrument":10,"program":49},{"pitch":63,"velocity":128,"startTime":184.89132899999998,"endTime":185.20382904166667,"instrument":10,"program":49},{"pitch":62,"velocity":128,"startTime":185.21741600000001,"endTime":185.36687254166668,"instrument":10,"program":49},{"pitch":60,"velocity":62,"startTime":190.434808,"endTime":190.557090625,"instrument":10,"program":49},{"pitch":62,"velocity":64,"startTime":190.434808,"endTime":190.557090625,"instrument":10,"program":49},{"pitch":66,"velocity":109,"startTime":190.434808,"endTime":190.557090625,"instrument":10,"program":49},{"pitch":60,"velocity":80,"startTime":191.73915599999998,"endTime":191.861438625,"instrument":10,"program":49},{"pitch":62,"velocity":80,"startTime":191.73915599999998,"endTime":191.861438625,"instrument":10,"program":49},{"pitch":66,"velocity":109,"startTime":191.73915599999998,"endTime":191.861438625,"instrument":10,"program":49},{"pitch":60,"velocity":71,"startTime":193.04350399999998,"endTime":193.165786625,"instrument":10,"program":49},{"pitch":62,"velocity":80,"startTime":193.04350399999998,"endTime":193.165786625,"instrument":10,"program":49},{"pitch":66,"velocity":128,"startTime":193.04350399999998,"endTime":193.165786625,"instrument":10,"program":49},{"pitch":60,"velocity":71,"startTime":194.347852,"endTime":194.47013462500001,"instrument":10,"program":49},{"pitch":62,"velocity":80,"startTime":194.347852,"endTime":194.47013462500001,"instrument":10,"program":49},{"pitch":66,"velocity":109,"startTime":194.347852,"endTime":194.47013462500001,"instrument":10,"program":49},{"pitch":58,"velocity":64,"startTime":195.65220000000002,"endTime":195.774482625,"instrument":10,"program":49},{"pitch":62,"velocity":71,"startTime":195.65220000000002,"endTime":195.774482625,"instrument":10,"program":49},{"pitch":67,"velocity":62,"startTime":195.65220000000002,"endTime":195.774482625,"instrument":10,"program":49},{"pitch":58,"velocity":62,"startTime":196.95654800000003,"endTime":197.078830625,"instrument":10,"program":49},{"pitch":62,"velocity":71,"startTime":196.95654800000003,"endTime":197.078830625,"instrument":10,"program":49},{"pitch":67,"velocity":62,"startTime":196.95654800000003,"endTime":197.078830625,"instrument":10,"program":49},{"pitch":58,"velocity":62,"startTime":198.260896,"endTime":198.383178625,"instrument":10,"program":49},{"pitch":62,"velocity":80,"startTime":198.260896,"endTime":198.383178625,"instrument":10,"program":49},{"pitch":67,"velocity":64,"startTime":198.260896,"endTime":198.383178625,"instrument":10,"program":49},{"pitch":58,"velocity":57,"startTime":199.565244,"endTime":199.687526625,"instrument":10,"program":49},{"pitch":62,"velocity":71,"startTime":199.565244,"endTime":199.687526625,"instrument":10,"program":49},{"pitch":67,"velocity":71,"startTime":199.565244,"endTime":199.687526625,"instrument":10,"program":49},{"pitch":60,"velocity":71,"startTime":200.869592,"endTime":200.99187462499998,"instrument":10,"program":49},{"pitch":62,"velocity":71,"startTime":200.869592,"endTime":200.99187462499998,"instrument":10,"program":49},{"pitch":66,"velocity":128,"startTime":200.869592,"endTime":200.99187462499998,"instrument":10,"program":49},{"pitch":60,"velocity":71,"startTime":202.17394000000002,"endTime":202.29622262499998,"instrument":10,"program":49},{"pitch":62,"velocity":71,"startTime":202.17394000000002,"endTime":202.29622262499998,"instrument":10,"program":49},{"pitch":66,"velocity":109,"startTime":202.17394000000002,"endTime":202.29622262499998,"instrument":10,"program":49},{"pitch":60,"velocity":80,"startTime":203.47828800000002,"endTime":203.600570625,"instrument":10,"program":49},{"pitch":62,"velocity":80,"startTime":203.47828800000002,"endTime":203.600570625,"instrument":10,"program":49},{"pitch":66,"velocity":128,"startTime":203.47828800000002,"endTime":203.600570625,"instrument":10,"program":49},{"pitch":60,"velocity":80,"startTime":204.782636,"endTime":204.90491862500002,"instrument":10,"program":49},{"pitch":62,"velocity":80,"startTime":204.782636,"endTime":204.90491862500002,"instrument":10,"program":49},{"pitch":66,"velocity":109,"startTime":204.782636,"endTime":204.90491862500002,"instrument":10,"program":49},{"pitch":62,"velocity":94,"startTime":206.739158,"endTime":207.23508197916667,"instrument":10,"program":49},{"pitch":67,"velocity":94,"startTime":207.391332,"endTime":207.513614625,"instrument":10,"program":49},{"pitch":62,"velocity":71,"startTime":208.69568,"endTime":212.5951370416667,"instrument":10,"program":49},{"pitch":60,"velocity":64,"startTime":212.52720225000002,"endTime":213.83155025,"instrument":10,"program":49},{"pitch":66,"velocity":94,"startTime":212.54078920833334,"endTime":213.8383437291667,"instrument":10,"program":49},{"pitch":58,"velocity":62,"startTime":213.77720241666668,"endTime":217.0176919791667,"instrument":10,"program":49},{"pitch":67,"velocity":48,"startTime":213.77720241666668,"endTime":217.09242025,"instrument":10,"program":49},{"pitch":55,"velocity":80,"startTime":217.0720398125,"endTime":217.74459425,"instrument":10,"program":49},{"pitch":67,"velocity":71,"startTime":217.7378007708333,"endTime":218.40356172916668,"instrument":10,"program":49},{"pitch":63,"velocity":94,"startTime":218.356007375,"endTime":219.00138789583332,"instrument":10,"program":49},{"pitch":62,"velocity":80,"startTime":219.02856181250002,"endTime":222.921225375,"instrument":10,"program":49},{"pitch":60,"velocity":71,"startTime":222.9416058125,"endTime":224.3206820833333,"instrument":10,"program":49},{"pitch":66,"velocity":94,"startTime":222.9483992916667,"endTime":224.30709512500002,"instrument":10,"program":49},{"pitch":58,"velocity":57,"startTime":224.25954077083333,"endTime":226.97013895833334,"instrument":10,"program":49},{"pitch":67,"velocity":36,"startTime":224.27312772916667,"endTime":227.0244867916667,"instrument":10,"program":49},{"pitch":70,"velocity":128,"startTime":227.5068238125,"endTime":228.1929652083333,"instrument":10,"program":49},{"pitch":69,"velocity":71,"startTime":228.1929652083333,"endTime":228.85193268749998,"instrument":10,"program":49},{"pitch":67,"velocity":71,"startTime":228.8451392083333,"endTime":229.47013929166667,"instrument":10,"program":49},{"pitch":72,"velocity":80,"startTime":229.4633458125,"endTime":232.41850925,"instrument":10,"program":49},{"pitch":74,"velocity":64,"startTime":232.41850925,"endTime":232.7921506041667,"instrument":10,"program":49},{"pitch":75,"velocity":94,"startTime":232.785357125,"endTime":233.0910636875,"instrument":10,"program":49},{"pitch":74,"velocity":57,"startTime":233.07747672916668,"endTime":233.4443246041667,"instrument":10,"program":49},{"pitch":75,"velocity":80,"startTime":233.437531125,"endTime":234.089705125,"instrument":10,"program":49},{"pitch":77,"velocity":80,"startTime":234.06253120833333,"endTime":234.65356389583332,"instrument":10,"program":49},{"pitch":74,"velocity":57,"startTime":234.68073781249998,"endTime":236.0326401666667,"instrument":10,"program":49},{"pitch":70,"velocity":80,"startTime":236.01905320833333,"endTime":237.6426947291667,"instrument":10,"program":49},{"pitch":73,"velocity":94,"startTime":237.62910777083334,"endTime":237.9823686875,"instrument":10,"program":49},{"pitch":74,"velocity":80,"startTime":237.9891621666667,"endTime":238.3152491666667,"instrument":10,"program":49},{"pitch":73,"velocity":80,"startTime":238.3152491666667,"endTime":238.6481296458333,"instrument":10,"program":49},{"pitch":74,"velocity":64,"startTime":238.66171660416668,"endTime":239.32068408333333,"instrument":10,"program":49},{"pitch":75,"velocity":71,"startTime":239.30709712499998,"endTime":239.9456841666667,"instrument":10,"program":49},{"pitch":72,"velocity":71,"startTime":239.93209720833332,"endTime":241.27041260416667,"instrument":10,"program":49},{"pitch":69,"velocity":80,"startTime":241.263619125,"endTime":242.86008672916668,"instrument":10,"program":49},{"pitch":72,"velocity":80,"startTime":242.86008672916668,"endTime":243.2541085208333,"instrument":10,"program":49},{"pitch":70,"velocity":62,"startTime":243.1997606875,"endTime":243.55981508333332,"instrument":10,"program":49},{"pitch":69,"velocity":71,"startTime":243.51905420833333,"endTime":243.87231512500003,"instrument":10,"program":49},{"pitch":67,"velocity":71,"startTime":243.86552164583333,"endTime":244.524489125,"instrument":10,"program":49},{"pitch":66,"velocity":80,"startTime":244.4973152083333,"endTime":245.1155218125,"instrument":10,"program":49},{"pitch":67,"velocity":71,"startTime":245.14269572916666,"endTime":245.40764141666668,"instrument":10,"program":49},{"pitch":62,"velocity":109,"startTime":248.4171526875,"endTime":249.04894625,"instrument":10,"program":49},{"pitch":67,"velocity":71,"startTime":249.08291364583332,"endTime":249.3003049791667,"instrument":10,"program":49},{"pitch":72,"velocity":75,"startTime":0.6046196458333334,"endTime":0.7065218333333332,"instrument":11,"program":21},{"pitch":62,"velocity":75,"startTime":0.6182066041666667,"endTime":0.7065218333333332,"instrument":11,"program":21},{"pitch":69,"velocity":75,"startTime":1.2364132083333328,"endTime":1.3383153958333334,"instrument":11,"program":21},{"pitch":62,"velocity":75,"startTime":1.2500001666666667,"endTime":1.3247284375,"instrument":11,"program":21},{"pitch":66,"velocity":110,"startTime":1.9089676458333333,"endTime":1.9904893958333332,"instrument":11,"program":21},{"pitch":62,"velocity":75,"startTime":1.915761125,"endTime":1.9836959166666666,"instrument":11,"program":21},{"pitch":62,"velocity":99,"startTime":2.880435166666666,"endTime":3.206522166666667,"instrument":11,"program":21},{"pitch":63,"velocity":84,"startTime":3.220109125,"endTime":3.519022208333334,"instrument":11,"program":21},{"pitch":62,"velocity":75,"startTime":3.5258156874999997,"endTime":3.858696166666667,"instrument":11,"program":21},{"pitch":61,"velocity":99,"startTime":3.858696166666667,"endTime":4.470109291666667,"instrument":11,"program":21},{"pitch":62,"velocity":84,"startTime":4.524457125,"endTime":4.660326708333333,"instrument":11,"program":21},{"pitch":62,"velocity":84,"startTime":5.176631125,"endTime":5.285326791666667,"instrument":11,"program":21},{"pitch":74,"velocity":65,"startTime":5.794837729166667,"endTime":5.896739916666666,"instrument":11,"program":21},{"pitch":62,"velocity":67,"startTime":5.8084246875,"endTime":5.896739916666666,"instrument":11,"program":21},{"pitch":70,"velocity":110,"startTime":6.5013595625,"endTime":6.60326175,"instrument":11,"program":21},{"pitch":62,"velocity":84,"startTime":6.514946520833333,"endTime":6.610055229166666,"instrument":11,"program":21},{"pitch":67,"velocity":84,"startTime":7.133153125,"endTime":7.221468354166666,"instrument":11,"program":21},{"pitch":62,"velocity":75,"startTime":7.139946604166667,"endTime":7.228261833333333,"instrument":11,"program":21},{"pitch":62,"velocity":84,"startTime":8.111414125,"endTime":8.430707645833333,"instrument":11,"program":21},{"pitch":63,"velocity":99,"startTime":8.437501124999999,"endTime":8.682066375000002,"instrument":11,"program":21},{"pitch":62,"velocity":67,"startTime":8.7024468125,"endTime":9.076088166666667,"instrument":11,"program":21},{"pitch":61,"velocity":84,"startTime":9.076088166666667,"endTime":9.694294770833334,"instrument":11,"program":21},{"pitch":62,"velocity":75,"startTime":9.728262166666667,"endTime":9.870925229166666,"instrument":11,"program":21},{"pitch":62,"velocity":99,"startTime":10.394023125,"endTime":10.502718791666666,"instrument":11,"program":21},{"pitch":72,"velocity":75,"startTime":11.039403645833334,"endTime":11.1480993125,"instrument":11,"program":21},{"pitch":62,"velocity":75,"startTime":11.052990604166666,"endTime":11.1480993125,"instrument":11,"program":21},{"pitch":69,"velocity":75,"startTime":11.7187515625,"endTime":11.813860270833333,"instrument":11,"program":21},{"pitch":62,"velocity":75,"startTime":11.725545041666667,"endTime":11.807066791666667,"instrument":11,"program":21},{"pitch":66,"velocity":110,"startTime":12.391306,"endTime":12.466034270833333,"instrument":11,"program":21},{"pitch":62,"velocity":75,"startTime":12.404892958333333,"endTime":12.479621229166666,"instrument":11,"program":21},{"pitch":62,"velocity":99,"startTime":13.342393083333333,"endTime":13.641306166666668,"instrument":11,"program":21},{"pitch":63,"velocity":99,"startTime":13.641306166666668,"endTime":13.9198388125,"instrument":11,"program":21},{"pitch":62,"velocity":75,"startTime":13.94021925,"endTime":14.279893208333334,"instrument":11,"program":21},{"pitch":61,"velocity":84,"startTime":14.300273645833332,"endTime":14.891306333333333,"instrument":11,"program":21},{"pitch":62,"velocity":75,"startTime":14.925273729166667,"endTime":15.095110708333332,"instrument":11,"program":21},{"pitch":62,"velocity":99,"startTime":15.577447729166668,"endTime":15.692936875,"instrument":11,"program":21},{"pitch":74,"velocity":65,"startTime":16.236415208333334,"endTime":16.345110875,"instrument":11,"program":21},{"pitch":62,"velocity":60,"startTime":16.263589125,"endTime":16.35869783333333,"instrument":11,"program":21},{"pitch":70,"velocity":110,"startTime":16.90896964583333,"endTime":17.0176653125,"instrument":11,"program":21},{"pitch":62,"velocity":65,"startTime":16.92255660416667,"endTime":17.010871833333333,"instrument":11,"program":21},{"pitch":62,"velocity":75,"startTime":17.55435016666667,"endTime":17.649458874999997,"instrument":11,"program":21},{"pitch":67,"velocity":99,"startTime":17.55435016666667,"endTime":17.656252354166668,"instrument":11,"program":21},{"pitch":75,"velocity":110,"startTime":18.383154625000003,"endTime":18.498643770833333,"instrument":11,"program":21},{"pitch":74,"velocity":75,"startTime":18.552991604166667,"endTime":18.6481003125,"instrument":11,"program":21},{"pitch":73,"velocity":110,"startTime":18.695654666666666,"endTime":18.804350333333335,"instrument":11,"program":21},{"pitch":72,"velocity":84,"startTime":18.858698166666667,"endTime":18.953806875,"instrument":11,"program":21},{"pitch":71,"velocity":46,"startTime":19.008154708333333,"endTime":19.103263416666664,"instrument":11,"program":21},{"pitch":70,"velocity":110,"startTime":19.164404729166662,"endTime":19.266306916666665,"instrument":11,"program":21},{"pitch":69,"velocity":65,"startTime":19.32065475,"endTime":19.429350416666665,"instrument":11,"program":21},{"pitch":68,"velocity":110,"startTime":19.490491729166664,"endTime":19.619567833333335,"instrument":11,"program":21},{"pitch":67,"velocity":67,"startTime":19.653535229166664,"endTime":19.74185045833333,"instrument":11,"program":21},{"pitch":66,"velocity":110,"startTime":19.802991770833337,"endTime":19.918480916666663,"instrument":11,"program":21},{"pitch":65,"velocity":75,"startTime":19.97282875,"endTime":20.081524416666664,"instrument":11,"program":21},{"pitch":64,"velocity":60,"startTime":20.135872250000002,"endTime":20.2377744375,"instrument":11,"program":21},{"pitch":63,"velocity":110,"startTime":20.292122270833335,"endTime":20.414404895833332,"instrument":11,"program":21},{"pitch":62,"velocity":60,"startTime":20.455165770833336,"endTime":20.557067958333334,"instrument":11,"program":21},{"pitch":61,"velocity":110,"startTime":20.618209270833336,"endTime":20.740491895833337,"instrument":11,"program":21},{"pitch":60,"velocity":75,"startTime":20.815220166666666,"endTime":20.937502791666663,"instrument":11,"program":21},{"pitch":67,"velocity":84,"startTime":21.453807208333334,"endTime":21.555709395833336,"instrument":11,"program":21},{"pitch":60,"velocity":67,"startTime":21.467394166666665,"endTime":21.548915916666665,"instrument":11,"program":21},{"pitch":66,"velocity":110,"startTime":22.119568166666664,"endTime":22.201089916666664,"instrument":11,"program":21},{"pitch":60,"velocity":67,"startTime":22.126361645833335,"endTime":22.221470354166666,"instrument":11,"program":21},{"pitch":60,"velocity":84,"startTime":22.7649486875,"endTime":22.860057395833334,"instrument":11,"program":21},{"pitch":67,"velocity":75,"startTime":22.7649486875,"endTime":22.853263916666663,"instrument":11,"program":21},{"pitch":60,"velocity":75,"startTime":23.77717708333333,"endTime":23.85869883333333,"instrument":11,"program":21},{"pitch":67,"velocity":75,"startTime":23.77717708333333,"endTime":23.872285791666663,"instrument":11,"program":21},{"pitch":67,"velocity":67,"startTime":24.062503208333336,"endTime":24.171198875,"instrument":11,"program":21},{"pitch":60,"velocity":67,"startTime":24.082883645833334,"endTime":24.171198875,"instrument":11,"program":21},{"pitch":66,"velocity":110,"startTime":24.402177166666664,"endTime":24.5176663125,"instrument":11,"program":21},{"pitch":60,"velocity":53,"startTime":24.429351083333337,"endTime":24.504079354166667,"instrument":11,"program":21},{"pitch":60,"velocity":65,"startTime":24.741851125,"endTime":24.843753312500002,"instrument":11,"program":21},{"pitch":67,"velocity":75,"startTime":24.741851125,"endTime":24.843753312500002,"instrument":11,"program":21},{"pitch":66,"velocity":99,"startTime":25.054351166666663,"endTime":25.176633791666667,"instrument":11,"program":21},{"pitch":60,"velocity":47,"startTime":25.0883185625,"endTime":25.1698403125,"instrument":11,"program":21},{"pitch":60,"velocity":65,"startTime":25.380438166666664,"endTime":25.502720791666665,"instrument":11,"program":21},{"pitch":67,"velocity":84,"startTime":25.38723164583333,"endTime":25.502720791666665,"instrument":11,"program":21},{"pitch":66,"velocity":110,"startTime":25.6997316875,"endTime":25.828807791666666,"instrument":11,"program":21},{"pitch":60,"velocity":60,"startTime":25.720112124999996,"endTime":25.8220143125,"instrument":11,"program":21},{"pitch":58,"velocity":99,"startTime":26.059786083333332,"endTime":26.175275229166665,"instrument":11,"program":21},{"pitch":58,"velocity":75,"startTime":26.739134,"endTime":26.834242708333335,"instrument":11,"program":21},{"pitch":67,"velocity":84,"startTime":26.739134,"endTime":26.847829666666666,"instrument":11,"program":21},{"pitch":58,"velocity":60,"startTime":27.391308000000002,"endTime":27.493210187499997,"instrument":11,"program":21},{"pitch":66,"velocity":84,"startTime":27.391308000000002,"endTime":27.500003666666665,"instrument":11,"program":21},{"pitch":58,"velocity":65,"startTime":28.043482,"endTime":28.131797229166665,"instrument":11,"program":21},{"pitch":67,"velocity":75,"startTime":28.043482,"endTime":28.152177666666663,"instrument":11,"program":21},{"pitch":66,"velocity":110,"startTime":29.0013625625,"endTime":29.110058229166665,"instrument":11,"program":21},{"pitch":58,"velocity":75,"startTime":29.014949520833333,"endTime":29.089677791666663,"instrument":11,"program":21},{"pitch":67,"velocity":75,"startTime":29.300275645833334,"endTime":29.42255827083333,"instrument":11,"program":21},{"pitch":58,"velocity":75,"startTime":29.313862604166665,"endTime":29.402177833333337,"instrument":11,"program":21},{"pitch":66,"velocity":110,"startTime":29.626362645833336,"endTime":29.741851791666665,"instrument":11,"program":21},{"pitch":58,"velocity":60,"startTime":29.646743083333337,"endTime":29.728264833333334,"instrument":11,"program":21},{"pitch":58,"velocity":60,"startTime":29.945656166666666,"endTime":30.047558354166664,"instrument":11,"program":21},{"pitch":67,"velocity":67,"startTime":29.945656166666666,"endTime":30.074732270833337,"instrument":11,"program":21},{"pitch":66,"velocity":110,"startTime":30.271743166666663,"endTime":30.394025791666667,"instrument":11,"program":21},{"pitch":58,"velocity":67,"startTime":30.285330124999998,"endTime":30.366851875,"instrument":11,"program":21},{"pitch":58,"velocity":65,"startTime":30.584243208333337,"endTime":30.67935191666666,"instrument":11,"program":21},{"pitch":67,"velocity":67,"startTime":30.584243208333337,"endTime":30.699732354166663,"instrument":11,"program":21},{"pitch":66,"velocity":110,"startTime":30.883156291666666,"endTime":31.005438916666666,"instrument":11,"program":21},{"pitch":58,"velocity":53,"startTime":30.903536729166667,"endTime":30.985058479166664,"instrument":11,"program":21},{"pitch":57,"velocity":75,"startTime":31.256797645833338,"endTime":31.379080270833335,"instrument":11,"program":21},{"pitch":57,"velocity":75,"startTime":31.915765125,"endTime":32.0176673125,"instrument":11,"program":21},{"pitch":62,"velocity":84,"startTime":31.915765125,"endTime":32.02446079166666,"instrument":11,"program":21},{"pitch":60,"velocity":84,"startTime":32.567939125,"endTime":32.69022175,"instrument":11,"program":21},{"pitch":57,"velocity":65,"startTime":32.57473260416666,"endTime":32.69022175,"instrument":11,"program":21},{"pitch":62,"velocity":99,"startTime":33.192939208333335,"endTime":33.301634875,"instrument":11,"program":21},{"pitch":57,"velocity":75,"startTime":33.199732687499996,"endTime":33.301634875,"instrument":11,"program":21},{"pitch":60,"velocity":84,"startTime":34.15761325,"endTime":34.714678541666665,"instrument":11,"program":21},{"pitch":58,"velocity":75,"startTime":34.7486459375,"endTime":34.91848291666666,"instrument":11,"program":21},{"pitch":57,"velocity":65,"startTime":34.925276395833336,"endTime":35.08831989583334,"instrument":11,"program":21},{"pitch":55,"velocity":65,"startTime":35.095113375,"endTime":35.77446129166667,"instrument":11,"program":21},{"pitch":54,"velocity":84,"startTime":35.781254770833335,"endTime":36.42663529166666,"instrument":11,"program":21},{"pitch":55,"velocity":99,"startTime":36.447015729166665,"endTime":36.589678791666664,"instrument":11,"program":21},{"pitch":67,"velocity":75,"startTime":37.500005,"endTime":37.58832022916666,"instrument":11,"program":21},{"pitch":75,"velocity":110,"startTime":37.500005,"endTime":37.581526749999995,"instrument":11,"program":21},{"pitch":65,"velocity":55,"startTime":37.826092,"endTime":37.92120070833334,"instrument":11,"program":21},{"pitch":74,"velocity":99,"startTime":37.826092,"endTime":37.92120070833334,"instrument":11,"program":21},{"pitch":63,"velocity":110,"startTime":38.152179000000004,"endTime":38.22690727083333,"instrument":11,"program":21},{"pitch":72,"velocity":75,"startTime":38.152179000000004,"endTime":38.22690727083333,"instrument":11,"program":21},{"pitch":62,"velocity":75,"startTime":38.478266,"endTime":38.55978775,"instrument":11,"program":21},{"pitch":70,"velocity":110,"startTime":38.478266,"endTime":38.546200791666664,"instrument":11,"program":21},{"pitch":60,"velocity":67,"startTime":38.804353,"endTime":38.87908127083334,"instrument":11,"program":21},{"pitch":69,"velocity":75,"startTime":38.804353,"endTime":38.89266822916666,"instrument":11,"program":21},{"pitch":58,"velocity":84,"startTime":39.13044,"endTime":39.21875522916667,"instrument":11,"program":21},{"pitch":67,"velocity":67,"startTime":39.13044,"endTime":39.21196175000001,"instrument":11,"program":21},{"pitch":62,"velocity":84,"startTime":39.456527,"endTime":40.36685320833333,"instrument":11,"program":21},{"pitch":60,"velocity":67,"startTime":39.782613999999995,"endTime":40.36685320833333,"instrument":11,"program":21},{"pitch":66,"velocity":99,"startTime":39.782613999999995,"endTime":40.38044016666668,"instrument":11,"program":21},{"pitch":62,"velocity":84,"startTime":40.400820604166675,"endTime":40.56386410416666,"instrument":11,"program":21},{"pitch":67,"velocity":67,"startTime":40.400820604166675,"endTime":40.577451062499996,"instrument":11,"program":21},{"pitch":58,"velocity":110,"startTime":40.4144075625,"endTime":40.577451062499996,"instrument":11,"program":21},{"pitch":62,"velocity":110,"startTime":41.42663595833333,"endTime":41.542125104166665,"instrument":11,"program":21},{"pitch":62,"velocity":65,"startTime":41.576092499999994,"endTime":41.66440772916666,"instrument":11,"program":21},{"pitch":62,"velocity":110,"startTime":41.72554904166667,"endTime":41.82065775,"instrument":11,"program":21},{"pitch":72,"velocity":75,"startTime":42.34375564583332,"endTime":42.44565783333332,"instrument":11,"program":21},{"pitch":62,"velocity":75,"startTime":42.35734260416667,"endTime":42.44565783333332,"instrument":11,"program":21},{"pitch":69,"velocity":75,"startTime":42.97554920833333,"endTime":43.07745139583332,"instrument":11,"program":21},{"pitch":62,"velocity":75,"startTime":42.989136166666675,"endTime":43.063864437499994,"instrument":11,"program":21},{"pitch":66,"velocity":110,"startTime":43.64810364583334,"endTime":43.729625395833324,"instrument":11,"program":21},{"pitch":62,"velocity":75,"startTime":43.654897125000005,"endTime":43.72283191666668,"instrument":11,"program":21},{"pitch":62,"velocity":99,"startTime":44.61957116666667,"endTime":44.94565816666667,"instrument":11,"program":21},{"pitch":63,"velocity":84,"startTime":44.959245125,"endTime":45.25815820833334,"instrument":11,"program":21},{"pitch":62,"velocity":75,"startTime":45.2649516875,"endTime":45.59783216666667,"instrument":11,"program":21},{"pitch":61,"velocity":99,"startTime":45.59783216666667,"endTime":46.209245291666676,"instrument":11,"program":21},{"pitch":62,"velocity":84,"startTime":46.263593125,"endTime":46.399462708333324,"instrument":11,"program":21},{"pitch":62,"velocity":84,"startTime":46.915767124999995,"endTime":47.024462791666664,"instrument":11,"program":21},{"pitch":74,"velocity":65,"startTime":47.53397372916667,"endTime":47.63587591666667,"instrument":11,"program":21},{"pitch":62,"velocity":67,"startTime":47.5475606875,"endTime":47.63587591666667,"instrument":11,"program":21},{"pitch":70,"velocity":110,"startTime":48.240495562499994,"endTime":48.34239774999999,"instrument":11,"program":21},{"pitch":62,"velocity":84,"startTime":48.25408252083332,"endTime":48.34919122916668,"instrument":11,"program":21},{"pitch":67,"velocity":84,"startTime":48.872289124999995,"endTime":48.96060435416666,"instrument":11,"program":21},{"pitch":62,"velocity":75,"startTime":48.879082604166676,"endTime":48.96739783333333,"instrument":11,"program":21},{"pitch":62,"velocity":84,"startTime":49.85055012499999,"endTime":50.169843645833325,"instrument":11,"program":21},{"pitch":63,"velocity":99,"startTime":50.17663712499999,"endTime":50.42120237500001,"instrument":11,"program":21},{"pitch":62,"velocity":67,"startTime":50.4415828125,"endTime":50.815224166666674,"instrument":11,"program":21},{"pitch":61,"velocity":84,"startTime":50.815224166666674,"endTime":51.43343077083333,"instrument":11,"program":21},{"pitch":62,"velocity":75,"startTime":51.467398166666676,"endTime":51.61006122916667,"instrument":11,"program":21},{"pitch":62,"velocity":99,"startTime":52.133159125000006,"endTime":52.241854791666675,"instrument":11,"program":21},{"pitch":72,"velocity":75,"startTime":52.77853964583332,"endTime":52.8872353125,"instrument":11,"program":21},{"pitch":62,"velocity":75,"startTime":52.79212660416667,"endTime":52.8872353125,"instrument":11,"program":21},{"pitch":69,"velocity":75,"startTime":53.4578875625,"endTime":53.55299627083333,"instrument":11,"program":21},{"pitch":62,"velocity":75,"startTime":53.464681041666665,"endTime":53.54620279166667,"instrument":11,"program":21},{"pitch":66,"velocity":110,"startTime":54.130441999999995,"endTime":54.205170270833335,"instrument":11,"program":21},{"pitch":62,"velocity":75,"startTime":54.14402895833333,"endTime":54.21875722916666,"instrument":11,"program":21},{"pitch":62,"velocity":99,"startTime":55.08152908333333,"endTime":55.38044216666667,"instrument":11,"program":21},{"pitch":63,"velocity":99,"startTime":55.38044216666667,"endTime":55.65897481249999,"instrument":11,"program":21},{"pitch":62,"velocity":75,"startTime":55.67935525000001,"endTime":56.019029208333336,"instrument":11,"program":21},{"pitch":61,"velocity":84,"startTime":56.03940964583333,"endTime":56.63044233333333,"instrument":11,"program":21},{"pitch":62,"velocity":75,"startTime":56.66440972916667,"endTime":56.834246708333325,"instrument":11,"program":21},{"pitch":62,"velocity":99,"startTime":57.316583729166666,"endTime":57.432072875,"instrument":11,"program":21},{"pitch":74,"velocity":65,"startTime":57.975551208333336,"endTime":58.084246875,"instrument":11,"program":21},{"pitch":62,"velocity":60,"startTime":58.002725125,"endTime":58.09783383333333,"instrument":11,"program":21},{"pitch":70,"velocity":110,"startTime":58.64810564583333,"endTime":58.756801312499995,"instrument":11,"program":21},{"pitch":62,"velocity":65,"startTime":58.66169260416666,"endTime":58.75000783333333,"instrument":11,"program":21},{"pitch":62,"velocity":75,"startTime":59.29348616666666,"endTime":59.388594874999995,"instrument":11,"program":21},{"pitch":67,"velocity":99,"startTime":59.29348616666666,"endTime":59.39538835416666,"instrument":11,"program":21},{"pitch":75,"velocity":110,"startTime":60.122290625,"endTime":60.237779770833335,"instrument":11,"program":21},{"pitch":74,"velocity":75,"startTime":60.29212760416667,"endTime":60.387236312499994,"instrument":11,"program":21},{"pitch":73,"velocity":110,"startTime":60.43479066666667,"endTime":60.543486333333334,"instrument":11,"program":21},{"pitch":72,"velocity":84,"startTime":60.59783416666666,"endTime":60.69294287499999,"instrument":11,"program":21},{"pitch":71,"velocity":46,"startTime":60.74729070833334,"endTime":60.84239941666667,"instrument":11,"program":21},{"pitch":70,"velocity":110,"startTime":60.903540729166664,"endTime":61.00544291666667,"instrument":11,"program":21},{"pitch":69,"velocity":65,"startTime":61.059790750000005,"endTime":61.168486416666674,"instrument":11,"program":21},{"pitch":68,"velocity":110,"startTime":61.229627729166666,"endTime":61.35870383333332,"instrument":11,"program":21},{"pitch":67,"velocity":67,"startTime":61.39267122916667,"endTime":61.48098645833333,"instrument":11,"program":21},{"pitch":66,"velocity":110,"startTime":61.54212777083333,"endTime":61.65761691666666,"instrument":11,"program":21},{"pitch":65,"velocity":75,"startTime":61.71196475000001,"endTime":61.82066041666667,"instrument":11,"program":21},{"pitch":64,"velocity":60,"startTime":61.87500824999999,"endTime":61.976910437499996,"instrument":11,"program":21},{"pitch":63,"velocity":110,"startTime":62.03125827083332,"endTime":62.15354089583334,"instrument":11,"program":21},{"pitch":62,"velocity":60,"startTime":62.19430177083333,"endTime":62.29620395833333,"instrument":11,"program":21},{"pitch":61,"velocity":110,"startTime":62.35734527083332,"endTime":62.47962789583334,"instrument":11,"program":21},{"pitch":60,"velocity":75,"startTime":62.55435616666667,"endTime":62.676638791666676,"instrument":11,"program":21},{"pitch":67,"velocity":84,"startTime":63.192943208333325,"endTime":63.29484539583333,"instrument":11,"program":21},{"pitch":60,"velocity":67,"startTime":63.206530166666674,"endTime":63.28805191666666,"instrument":11,"program":21},{"pitch":66,"velocity":110,"startTime":63.858704166666676,"endTime":63.94022591666668,"instrument":11,"program":21},{"pitch":60,"velocity":67,"startTime":63.86549764583334,"endTime":63.96060635416667,"instrument":11,"program":21},{"pitch":60,"velocity":84,"startTime":64.50408468750001,"endTime":64.59919339583332,"instrument":11,"program":21},{"pitch":67,"velocity":75,"startTime":64.50408468750001,"endTime":64.59239991666668,"instrument":11,"program":21},{"pitch":60,"velocity":75,"startTime":65.51631308333333,"endTime":65.59783483333334,"instrument":11,"program":21},{"pitch":67,"velocity":75,"startTime":65.51631308333333,"endTime":65.61142179166667,"instrument":11,"program":21},{"pitch":67,"velocity":67,"startTime":65.80163920833334,"endTime":65.910334875,"instrument":11,"program":21},{"pitch":60,"velocity":67,"startTime":65.82201964583334,"endTime":65.910334875,"instrument":11,"program":21},{"pitch":66,"velocity":110,"startTime":66.14131316666666,"endTime":66.2568023125,"instrument":11,"program":21},{"pitch":60,"velocity":53,"startTime":66.16848708333333,"endTime":66.24321535416667,"instrument":11,"program":21},{"pitch":60,"velocity":65,"startTime":66.480987125,"endTime":66.5828893125,"instrument":11,"program":21},{"pitch":67,"velocity":75,"startTime":66.480987125,"endTime":66.5828893125,"instrument":11,"program":21},{"pitch":66,"velocity":99,"startTime":66.79348716666667,"endTime":66.91576979166666,"instrument":11,"program":21},{"pitch":60,"velocity":47,"startTime":66.8274545625,"endTime":66.9089763125,"instrument":11,"program":21},{"pitch":60,"velocity":65,"startTime":67.11957416666667,"endTime":67.24185679166666,"instrument":11,"program":21},{"pitch":67,"velocity":84,"startTime":67.12636764583333,"endTime":67.24185679166666,"instrument":11,"program":21},{"pitch":66,"velocity":110,"startTime":67.43886768750001,"endTime":67.56794379166666,"instrument":11,"program":21},{"pitch":60,"velocity":60,"startTime":67.459248125,"endTime":67.5611503125,"instrument":11,"program":21},{"pitch":58,"velocity":99,"startTime":67.79892208333332,"endTime":67.91441122916666,"instrument":11,"program":21},{"pitch":58,"velocity":75,"startTime":68.47827000000001,"endTime":68.57337870833332,"instrument":11,"program":21},{"pitch":67,"velocity":84,"startTime":68.47827000000001,"endTime":68.58696566666667,"instrument":11,"program":21},{"pitch":58,"velocity":60,"startTime":69.13044400000001,"endTime":69.23234618750001,"instrument":11,"program":21},{"pitch":66,"velocity":84,"startTime":69.13044400000001,"endTime":69.23913966666667,"instrument":11,"program":21},{"pitch":58,"velocity":65,"startTime":69.782618,"endTime":69.87093322916668,"instrument":11,"program":21},{"pitch":67,"velocity":75,"startTime":69.782618,"endTime":69.89131366666668,"instrument":11,"program":21},{"pitch":66,"velocity":110,"startTime":70.74049856250001,"endTime":70.84919422916667,"instrument":11,"program":21},{"pitch":58,"velocity":75,"startTime":70.75408552083334,"endTime":70.82881379166668,"instrument":11,"program":21},{"pitch":67,"velocity":75,"startTime":71.03941164583333,"endTime":71.16169427083332,"instrument":11,"program":21},{"pitch":58,"velocity":75,"startTime":71.05299860416667,"endTime":71.14131383333333,"instrument":11,"program":21},{"pitch":66,"velocity":110,"startTime":71.36549864583333,"endTime":71.48098779166668,"instrument":11,"program":21},{"pitch":58,"velocity":60,"startTime":71.38587908333332,"endTime":71.46740083333333,"instrument":11,"program":21},{"pitch":58,"velocity":60,"startTime":71.68479216666668,"endTime":71.78669435416666,"instrument":11,"program":21},{"pitch":67,"velocity":67,"startTime":71.68479216666668,"endTime":71.81386827083332,"instrument":11,"program":21},{"pitch":66,"velocity":110,"startTime":72.01087916666668,"endTime":72.13316179166668,"instrument":11,"program":21},{"pitch":58,"velocity":67,"startTime":72.024466125,"endTime":72.105987875,"instrument":11,"program":21},{"pitch":58,"velocity":65,"startTime":72.32337920833332,"endTime":72.41848791666666,"instrument":11,"program":21},{"pitch":67,"velocity":67,"startTime":72.32337920833332,"endTime":72.43886835416667,"instrument":11,"program":21},{"pitch":66,"velocity":110,"startTime":72.62229229166667,"endTime":72.74457491666666,"instrument":11,"program":21},{"pitch":58,"velocity":53,"startTime":72.64267272916666,"endTime":72.72419447916667,"instrument":11,"program":21},{"pitch":57,"velocity":75,"startTime":72.99593364583332,"endTime":73.11821627083334,"instrument":11,"program":21},{"pitch":57,"velocity":75,"startTime":73.65490112500001,"endTime":73.75680331250001,"instrument":11,"program":21},{"pitch":62,"velocity":84,"startTime":73.65490112500001,"endTime":73.76359679166667,"instrument":11,"program":21},{"pitch":60,"velocity":84,"startTime":74.307075125,"endTime":74.42935775000001,"instrument":11,"program":21},{"pitch":57,"velocity":65,"startTime":74.31386860416667,"endTime":74.42935775000001,"instrument":11,"program":21},{"pitch":62,"velocity":99,"startTime":74.93207520833332,"endTime":75.040770875,"instrument":11,"program":21},{"pitch":57,"velocity":75,"startTime":74.9388686875,"endTime":75.040770875,"instrument":11,"program":21},{"pitch":60,"velocity":84,"startTime":75.89674925000001,"endTime":76.45381454166667,"instrument":11,"program":21},{"pitch":58,"velocity":75,"startTime":76.4877819375,"endTime":76.65761891666668,"instrument":11,"program":21},{"pitch":57,"velocity":65,"startTime":76.66441239583332,"endTime":76.82745589583332,"instrument":11,"program":21},{"pitch":55,"velocity":65,"startTime":76.834249375,"endTime":77.51359729166667,"instrument":11,"program":21},{"pitch":54,"velocity":84,"startTime":77.52039077083334,"endTime":78.16577129166667,"instrument":11,"program":21},{"pitch":55,"velocity":99,"startTime":78.18615172916667,"endTime":78.32881479166669,"instrument":11,"program":21},{"pitch":67,"velocity":75,"startTime":79.239141,"endTime":79.32745622916667,"instrument":11,"program":21},{"pitch":75,"velocity":110,"startTime":79.239141,"endTime":79.32066275000001,"instrument":11,"program":21},{"pitch":65,"velocity":55,"startTime":79.565228,"endTime":79.66033670833335,"instrument":11,"program":21},{"pitch":74,"velocity":99,"startTime":79.565228,"endTime":79.66033670833335,"instrument":11,"program":21},{"pitch":63,"velocity":110,"startTime":79.891315,"endTime":79.96604327083332,"instrument":11,"program":21},{"pitch":72,"velocity":75,"startTime":79.891315,"endTime":79.96604327083332,"instrument":11,"program":21},{"pitch":62,"velocity":75,"startTime":80.217402,"endTime":80.29892375000001,"instrument":11,"program":21},{"pitch":70,"velocity":110,"startTime":80.217402,"endTime":80.28533679166668,"instrument":11,"program":21},{"pitch":60,"velocity":67,"startTime":80.54348900000001,"endTime":80.61821727083333,"instrument":11,"program":21},{"pitch":69,"velocity":75,"startTime":80.54348900000001,"endTime":80.63180422916668,"instrument":11,"program":21},{"pitch":58,"velocity":84,"startTime":80.86957600000001,"endTime":80.95789122916666,"instrument":11,"program":21},{"pitch":67,"velocity":67,"startTime":80.86957600000001,"endTime":80.95109775,"instrument":11,"program":21},{"pitch":62,"velocity":84,"startTime":81.195663,"endTime":82.10598920833334,"instrument":11,"program":21},{"pitch":60,"velocity":67,"startTime":81.52175,"endTime":82.10598920833334,"instrument":11,"program":21},{"pitch":66,"velocity":99,"startTime":81.52175,"endTime":82.11957616666666,"instrument":11,"program":21},{"pitch":62,"velocity":84,"startTime":82.13995660416666,"endTime":82.30300010416667,"instrument":11,"program":21},{"pitch":67,"velocity":67,"startTime":82.13995660416666,"endTime":82.31658706249999,"instrument":11,"program":21},{"pitch":58,"velocity":110,"startTime":82.1535435625,"endTime":82.31658706249999,"instrument":11,"program":21},{"pitch":55,"velocity":84,"startTime":83.478272,"endTime":83.79756552083334,"instrument":11,"program":21},{"pitch":57,"velocity":75,"startTime":83.804359,"endTime":84.07609816666665,"instrument":11,"program":21},{"pitch":58,"velocity":67,"startTime":84.09647860416668,"endTime":85.0883265625,"instrument":11,"program":21},{"pitch":55,"velocity":75,"startTime":85.10191352083335,"endTime":85.42120704166666,"instrument":11,"program":21},{"pitch":57,"velocity":84,"startTime":85.434794,"endTime":85.72012012500001,"instrument":11,"program":21},{"pitch":58,"velocity":75,"startTime":85.7405005625,"endTime":86.05979408333334,"instrument":11,"program":21},{"pitch":57,"velocity":99,"startTime":86.10055495833335,"endTime":86.69158764583334,"instrument":11,"program":21},{"pitch":55,"velocity":84,"startTime":86.70517460416667,"endTime":86.78669635416666,"instrument":11,"program":21},{"pitch":74,"velocity":99,"startTime":87.0448485625,"endTime":87.13995727083335,"instrument":11,"program":21},{"pitch":70,"velocity":110,"startTime":87.37772904166665,"endTime":87.45925079166666,"instrument":11,"program":21},{"pitch":67,"velocity":84,"startTime":87.68343560416666,"endTime":87.78533779166666,"instrument":11,"program":21},{"pitch":74,"velocity":99,"startTime":87.99593564583336,"endTime":88.09104435416667,"instrument":11,"program":21},{"pitch":72,"velocity":75,"startTime":88.17935958333334,"endTime":88.3084356875,"instrument":11,"program":21},{"pitch":70,"velocity":110,"startTime":88.30164220833333,"endTime":88.45789222916666,"instrument":11,"program":21},{"pitch":69,"velocity":75,"startTime":88.48506614583334,"endTime":88.5937618125,"instrument":11,"program":21},{"pitch":67,"velocity":84,"startTime":88.6345226875,"endTime":88.72963139583334,"instrument":11,"program":21},{"pitch":67,"velocity":84,"startTime":89.00816404166666,"endTime":89.06930535416667,"instrument":11,"program":21},{"pitch":67,"velocity":75,"startTime":89.10327275000002,"endTime":89.19158797916667,"instrument":11,"program":21},{"pitch":67,"velocity":75,"startTime":89.23914233333333,"endTime":89.31387060416667,"instrument":11,"program":21},{"pitch":65,"velocity":75,"startTime":89.56522933333333,"endTime":89.65354456250002,"instrument":11,"program":21},{"pitch":65,"velocity":99,"startTime":89.89810981250001,"endTime":89.98642504166666,"instrument":11,"program":21},{"pitch":63,"velocity":110,"startTime":90.19702289583334,"endTime":90.27175116666666,"instrument":11,"program":21},{"pitch":63,"velocity":110,"startTime":90.52310989583334,"endTime":90.61142512500001,"instrument":11,"program":21},{"pitch":62,"velocity":110,"startTime":90.82881645833335,"endTime":90.92392516666666,"instrument":11,"program":21},{"pitch":62,"velocity":84,"startTime":91.16849041666666,"endTime":92.11278402083335,"instrument":11,"program":21},{"pitch":63,"velocity":99,"startTime":92.0991970625,"endTime":92.24865360416666,"instrument":11,"program":21},{"pitch":62,"velocity":75,"startTime":92.26224056250001,"endTime":92.41849058333335,"instrument":11,"program":21},{"pitch":61,"velocity":110,"startTime":92.43207754166666,"endTime":92.56115364583334,"instrument":11,"program":21},{"pitch":60,"velocity":67,"startTime":92.60191452083333,"endTime":93.31522983333335,"instrument":11,"program":21},{"pitch":69,"velocity":110,"startTime":94.26631691666667,"endTime":94.361425625,"instrument":11,"program":21},{"pitch":69,"velocity":110,"startTime":94.40897997916667,"endTime":94.47691477083335,"instrument":11,"program":21},{"pitch":69,"velocity":84,"startTime":94.51088216666666,"endTime":94.59919739583334,"instrument":11,"program":21},{"pitch":67,"velocity":84,"startTime":94.86414308333333,"endTime":94.96604527083333,"instrument":11,"program":21},{"pitch":67,"velocity":99,"startTime":95.20381704166667,"endTime":95.29213227083333,"instrument":11,"program":21},{"pitch":66,"velocity":110,"startTime":95.50952360416667,"endTime":95.59104535416667,"instrument":11,"program":21},{"pitch":66,"velocity":110,"startTime":95.83561060416667,"endTime":95.91033887500001,"instrument":11,"program":21},{"pitch":63,"velocity":110,"startTime":96.88180639583334,"endTime":96.94294770833335,"instrument":11,"program":21},{"pitch":63,"velocity":110,"startTime":97.01088250000001,"endTime":97.08561077083334,"instrument":11,"program":21},{"pitch":63,"velocity":110,"startTime":97.14675208333335,"endTime":97.20789339583334,"instrument":11,"program":21},{"pitch":62,"velocity":110,"startTime":97.47283908333335,"endTime":97.55436083333333,"instrument":11,"program":21},{"pitch":62,"velocity":84,"startTime":97.81930652083335,"endTime":99.38860020833333,"instrument":11,"program":21},{"pitch":60,"velocity":84,"startTime":99.42256760416666,"endTime":99.72827416666667,"instrument":11,"program":21},{"pitch":72,"velocity":67,"startTime":99.7214806875,"endTime":99.82338287500001,"instrument":11,"program":21},{"pitch":60,"velocity":99,"startTime":100.74050256250001,"endTime":100.84919822916666,"instrument":11,"program":21},{"pitch":58,"velocity":110,"startTime":101.06658956250001,"endTime":101.15490479166667,"instrument":11,"program":21},{"pitch":57,"velocity":99,"startTime":101.37908960416667,"endTime":101.46740483333335,"instrument":11,"program":21},{"pitch":55,"velocity":99,"startTime":101.7187635625,"endTime":101.81387227083334,"instrument":11,"program":21},{"pitch":54,"velocity":110,"startTime":101.87501358333336,"endTime":101.97691577083336,"instrument":11,"program":21},{"pitch":55,"velocity":84,"startTime":102.02447012500001,"endTime":102.13316579166666,"instrument":11,"program":21},{"pitch":57,"velocity":110,"startTime":102.187513625,"endTime":102.2894158125,"instrument":11,"program":21},{"pitch":58,"velocity":110,"startTime":102.35055712500001,"endTime":102.45245931250001,"instrument":11,"program":21},{"pitch":57,"velocity":84,"startTime":102.50001366666667,"endTime":102.58832889583334,"instrument":11,"program":21},{"pitch":58,"velocity":110,"startTime":102.64267672916667,"endTime":102.75137239583334,"instrument":11,"program":21},{"pitch":60,"velocity":67,"startTime":102.81251370833334,"endTime":102.921209375,"instrument":11,"program":21},{"pitch":62,"velocity":67,"startTime":102.97555720833334,"endTime":103.11822027083333,"instrument":11,"program":21},{"pitch":61,"velocity":110,"startTime":103.15218766666666,"endTime":103.24050289583334,"instrument":11,"program":21},{"pitch":62,"velocity":67,"startTime":103.30843768750002,"endTime":103.45789422916667,"instrument":11,"program":21},{"pitch":63,"velocity":110,"startTime":103.45110075000001,"endTime":103.55300293750001,"instrument":11,"program":21},{"pitch":62,"velocity":75,"startTime":103.62773120833334,"endTime":103.7975681875,"instrument":11,"program":21},{"pitch":60,"velocity":99,"startTime":103.77718775000001,"endTime":103.92664429166666,"instrument":11,"program":21},{"pitch":58,"velocity":110,"startTime":103.92664429166666,"endTime":104.0828943125,"instrument":11,"program":21},{"pitch":57,"velocity":67,"startTime":104.09648127083334,"endTime":104.26631825,"instrument":11,"program":21},{"pitch":55,"velocity":84,"startTime":104.307079125,"endTime":104.64675308333334,"instrument":11,"program":21},{"pitch":57,"velocity":67,"startTime":104.66713352083335,"endTime":104.91849225000001,"instrument":11,"program":21},{"pitch":58,"velocity":67,"startTime":104.93887268750001,"endTime":105.91713368750001,"instrument":11,"program":21},{"pitch":55,"velocity":110,"startTime":105.95110108333336,"endTime":106.2024598125,"instrument":11,"program":21},{"pitch":57,"velocity":99,"startTime":106.25001416666667,"endTime":106.48099245833333,"instrument":11,"program":21},{"pitch":58,"velocity":110,"startTime":106.51495985416666,"endTime":106.80707945833333,"instrument":11,"program":21},{"pitch":57,"velocity":99,"startTime":106.86142729166666,"endTime":107.47284041666667,"instrument":11,"program":21},{"pitch":55,"velocity":84,"startTime":107.52039477083333,"endTime":107.61550347916666,"instrument":11,"program":21},{"pitch":74,"velocity":75,"startTime":107.88724264583334,"endTime":107.98235135416667,"instrument":11,"program":21},{"pitch":70,"velocity":110,"startTime":108.1997426875,"endTime":108.28805791666667,"instrument":11,"program":21},{"pitch":67,"velocity":84,"startTime":108.51903620833333,"endTime":108.6073514375,"instrument":11,"program":21},{"pitch":74,"velocity":84,"startTime":108.86550364583336,"endTime":108.96061235416667,"instrument":11,"program":21},{"pitch":72,"velocity":84,"startTime":109.04213410416668,"endTime":109.20517760416666,"instrument":11,"program":21},{"pitch":70,"velocity":110,"startTime":109.17121020833333,"endTime":109.31387327083334,"instrument":11,"program":21},{"pitch":69,"velocity":67,"startTime":109.34784066666666,"endTime":109.47012329166667,"instrument":11,"program":21},{"pitch":67,"velocity":99,"startTime":109.49729720833334,"endTime":109.59919939583334,"instrument":11,"program":21},{"pitch":67,"velocity":99,"startTime":109.85055812499999,"endTime":109.92528639583334,"instrument":11,"program":21},{"pitch":67,"velocity":84,"startTime":109.97963422916666,"endTime":110.06794945833335,"instrument":11,"program":21},{"pitch":67,"velocity":67,"startTime":110.10191685416666,"endTime":110.19023208333334,"instrument":11,"program":21},{"pitch":65,"velocity":84,"startTime":110.42800385416666,"endTime":110.51631908333334,"instrument":11,"program":21},{"pitch":65,"velocity":84,"startTime":110.78126477083333,"endTime":110.86278652083334,"instrument":11,"program":21},{"pitch":63,"velocity":110,"startTime":111.073384375,"endTime":111.15490612500001,"instrument":11,"program":21},{"pitch":63,"velocity":110,"startTime":111.39267789583334,"endTime":111.47419964583335,"instrument":11,"program":21},{"pitch":62,"velocity":84,"startTime":111.73235185416667,"endTime":111.82746056250001,"instrument":11,"program":21},{"pitch":60,"velocity":110,"startTime":112.16713452083334,"endTime":112.26224322916666,"instrument":11,"program":21},{"pitch":59,"velocity":75,"startTime":112.32338454166667,"endTime":112.41849325,"instrument":11,"program":21},{"pitch":60,"velocity":75,"startTime":112.47963456250001,"endTime":112.57474327083334,"instrument":11,"program":21},{"pitch":62,"velocity":99,"startTime":112.622297625,"endTime":112.73778677083335,"instrument":11,"program":21},{"pitch":63,"velocity":110,"startTime":112.79892808333334,"endTime":112.8872433125,"instrument":11,"program":21},{"pitch":62,"velocity":84,"startTime":112.92800418750001,"endTime":113.02311289583334,"instrument":11,"program":21},{"pitch":63,"velocity":110,"startTime":113.08425420833335,"endTime":113.18615639583335,"instrument":11,"program":21},{"pitch":65,"velocity":53,"startTime":113.25409118750001,"endTime":113.34240641666668,"instrument":11,"program":21},{"pitch":67,"velocity":75,"startTime":113.41713468750001,"endTime":113.5394173125,"instrument":11,"program":21},{"pitch":66,"velocity":110,"startTime":113.56659122916668,"endTime":113.6616999375,"instrument":11,"program":21},{"pitch":67,"velocity":53,"startTime":113.73642820833335,"endTime":113.87229779166665,"instrument":11,"program":21},{"pitch":68,"velocity":99,"startTime":113.86550431250001,"endTime":113.97419997916666,"instrument":11,"program":21},{"pitch":67,"velocity":67,"startTime":114.04213477083334,"endTime":114.19838479166665,"instrument":11,"program":21},{"pitch":65,"velocity":99,"startTime":114.19838479166665,"endTime":114.34784133333335,"instrument":11,"program":21},{"pitch":63,"velocity":99,"startTime":114.34784133333335,"endTime":114.51767831250001,"instrument":11,"program":21},{"pitch":62,"velocity":65,"startTime":114.51767831250001,"endTime":114.65354789583334,"instrument":11,"program":21},{"pitch":60,"velocity":99,"startTime":114.73506964583333,"endTime":115.0068088125,"instrument":11,"program":21},{"pitch":60,"velocity":75,"startTime":115.05436316666666,"endTime":115.16305883333334,"instrument":11,"program":21},{"pitch":63,"velocity":99,"startTime":115.05436316666666,"endTime":115.15626535416666,"instrument":11,"program":21},{"pitch":67,"velocity":67,"startTime":115.6997436875,"endTime":116.21604810416666,"instrument":11,"program":21},{"pitch":60,"velocity":75,"startTime":115.71333064583334,"endTime":116.19566766666667,"instrument":11,"program":21},{"pitch":66,"velocity":84,"startTime":116.30436333333334,"endTime":116.54213510416666,"instrument":11,"program":21},{"pitch":60,"velocity":75,"startTime":116.3111568125,"endTime":116.48778727083334,"instrument":11,"program":21},{"pitch":67,"velocity":67,"startTime":116.67121120833335,"endTime":116.82066775,"instrument":11,"program":21},{"pitch":60,"velocity":67,"startTime":116.6780046875,"endTime":116.80708079166666,"instrument":11,"program":21},{"pitch":58,"velocity":84,"startTime":117.32338520833333,"endTime":117.5747439375,"instrument":11,"program":21},{"pitch":58,"velocity":15,"startTime":117.66305916666667,"endTime":117.79213527083336,"instrument":11,"program":21},{"pitch":62,"velocity":99,"startTime":117.69023308333335,"endTime":117.79892875,"instrument":11,"program":21},{"pitch":67,"velocity":75,"startTime":118.33561360416667,"endTime":118.87229845833335,"instrument":11,"program":21},{"pitch":58,"velocity":84,"startTime":118.34240708333334,"endTime":118.77039627083334,"instrument":11,"program":21},{"pitch":66,"velocity":99,"startTime":118.93343977083335,"endTime":119.307081125,"instrument":11,"program":21},{"pitch":58,"velocity":84,"startTime":118.94702672916667,"endTime":119.09648327083335,"instrument":11,"program":21},{"pitch":58,"velocity":53,"startTime":119.307081125,"endTime":119.43615722916667,"instrument":11,"program":21},{"pitch":67,"velocity":84,"startTime":119.32746156249999,"endTime":119.46333114583334,"instrument":11,"program":21},{"pitch":62,"velocity":84,"startTime":120.30572256250001,"endTime":120.64539652083334,"instrument":11,"program":21},{"pitch":69,"velocity":84,"startTime":120.65219,"endTime":120.978277,"instrument":11,"program":21},{"pitch":66,"velocity":75,"startTime":120.95789656250001,"endTime":121.29077704166666,"instrument":11,"program":21},{"pitch":62,"velocity":55,"startTime":121.29757052083335,"endTime":121.6508314375,"instrument":11,"program":21},{"pitch":60,"velocity":60,"startTime":121.65762491666666,"endTime":122.18751629166667,"instrument":11,"program":21},{"pitch":54,"velocity":99,"startTime":122.20789672916666,"endTime":122.55436416666666,"instrument":11,"program":21},{"pitch":55,"velocity":84,"startTime":122.56795112500001,"endTime":122.66985331250001,"instrument":11,"program":21},{"pitch":62,"velocity":99,"startTime":122.9144185625,"endTime":123.76360345833334,"instrument":11,"program":21},{"pitch":60,"velocity":75,"startTime":123.260886,"endTime":123.62773387499999,"instrument":11,"program":21},{"pitch":66,"velocity":99,"startTime":123.27447295833335,"endTime":123.79757085416666,"instrument":11,"program":21},{"pitch":67,"velocity":60,"startTime":123.84512520833334,"endTime":124.035342625,"instrument":11,"program":21},{"pitch":62,"velocity":75,"startTime":123.85191868750002,"endTime":124.02175566666666,"instrument":11,"program":21},{"pitch":58,"velocity":99,"startTime":123.86550564583334,"endTime":124.0149621875,"instrument":11,"program":21},{"pitch":62,"velocity":110,"startTime":125.24458191666666,"endTime":125.32610366666667,"instrument":11,"program":21},{"pitch":62,"velocity":99,"startTime":125.37365802083335,"endTime":125.46876672916666,"instrument":11,"program":21},{"pitch":62,"velocity":99,"startTime":125.55028847916667,"endTime":125.63860370833335,"instrument":11,"program":21},{"pitch":62,"velocity":99,"startTime":125.69295154166666,"endTime":125.82202764583334,"instrument":11,"program":21},{"pitch":72,"velocity":99,"startTime":125.85599504166667,"endTime":125.96469070833335,"instrument":11,"program":21},{"pitch":62,"velocity":84,"startTime":126.01903854166666,"endTime":126.12773420833334,"instrument":11,"program":21},{"pitch":62,"velocity":99,"startTime":126.154908125,"endTime":126.25681031250001,"instrument":11,"program":21},{"pitch":62,"velocity":99,"startTime":126.31115814583335,"endTime":126.44702772916666,"instrument":11,"program":21},{"pitch":69,"velocity":110,"startTime":126.480995125,"endTime":126.60327775,"instrument":11,"program":21},{"pitch":62,"velocity":99,"startTime":126.63724514583335,"endTime":126.725560375,"instrument":11,"program":21},{"pitch":62,"velocity":99,"startTime":126.80028864583333,"endTime":126.89539735416668,"instrument":11,"program":21},{"pitch":62,"velocity":84,"startTime":126.9497451875,"endTime":127.0720278125,"instrument":11,"program":21},{"pitch":66,"velocity":110,"startTime":127.13996260416667,"endTime":127.26224522916667,"instrument":11,"program":21},{"pitch":62,"velocity":99,"startTime":127.28262566666666,"endTime":127.377734375,"instrument":11,"program":21},{"pitch":62,"velocity":110,"startTime":127.44566916666668,"endTime":127.5611583125,"instrument":11,"program":21},{"pitch":62,"velocity":75,"startTime":127.60871266666666,"endTime":127.72420181250001,"instrument":11,"program":21},{"pitch":62,"velocity":110,"startTime":127.785343125,"endTime":127.90083227083335,"instrument":11,"program":21},{"pitch":62,"velocity":75,"startTime":127.94159314583334,"endTime":128.05708229166666,"instrument":11,"program":21},{"pitch":62,"velocity":99,"startTime":128.10463664583332,"endTime":128.22012579166667,"instrument":11,"program":21},{"pitch":62,"velocity":75,"startTime":128.26088666666666,"endTime":128.36958233333334,"instrument":11,"program":21},{"pitch":62,"velocity":110,"startTime":128.43072364583333,"endTime":128.54621279166668,"instrument":11,"program":21},{"pitch":62,"velocity":75,"startTime":128.58697366666667,"endTime":128.69566933333334,"instrument":11,"program":21},{"pitch":62,"velocity":110,"startTime":128.75681064583333,"endTime":128.87229979166668,"instrument":11,"program":21},{"pitch":62,"velocity":84,"startTime":128.92664762500002,"endTime":129.04213677083334,"instrument":11,"program":21},{"pitch":63,"velocity":110,"startTime":129.09648460416668,"endTime":129.20518027083335,"instrument":11,"program":21},{"pitch":62,"velocity":84,"startTime":129.24594114583334,"endTime":129.34784333333334,"instrument":11,"program":21},{"pitch":61,"velocity":110,"startTime":129.40898464583336,"endTime":129.50409335416666,"instrument":11,"program":21},{"pitch":62,"velocity":84,"startTime":129.55844118750002,"endTime":129.68072381250002,"instrument":11,"program":21},{"pitch":63,"velocity":110,"startTime":129.73507164583336,"endTime":129.8437673125,"instrument":11,"program":21},{"pitch":62,"velocity":99,"startTime":129.89811514583334,"endTime":129.99322385416667,"instrument":11,"program":21},{"pitch":61,"velocity":110,"startTime":130.05436516666666,"endTime":130.15626735416666,"instrument":11,"program":21},{"pitch":62,"velocity":99,"startTime":130.2106151875,"endTime":130.31931085416664,"instrument":11,"program":21},{"pitch":62,"velocity":110,"startTime":130.394039125,"endTime":130.51632175,"instrument":11,"program":21},{"pitch":62,"velocity":84,"startTime":130.55028914583335,"endTime":130.6589848125,"instrument":11,"program":21},{"pitch":62,"velocity":99,"startTime":130.720126125,"endTime":130.81523483333336,"instrument":11,"program":21},{"pitch":62,"velocity":75,"startTime":130.883169625,"endTime":131.02583268749999,"instrument":11,"program":21},{"pitch":74,"velocity":110,"startTime":131.0665935625,"endTime":131.18208270833335,"instrument":11,"program":21},{"pitch":62,"velocity":110,"startTime":131.21605010416667,"endTime":131.33153925,"instrument":11,"program":21},{"pitch":62,"velocity":99,"startTime":131.37230012499998,"endTime":131.47420231249998,"instrument":11,"program":21},{"pitch":62,"velocity":99,"startTime":131.535343625,"endTime":131.65762625,"instrument":11,"program":21},{"pitch":70,"velocity":110,"startTime":131.70518060416666,"endTime":131.82066975,"instrument":11,"program":21},{"pitch":62,"velocity":99,"startTime":131.85463714583335,"endTime":131.95653933333332,"instrument":11,"program":21},{"pitch":62,"velocity":99,"startTime":132.01768064583334,"endTime":132.11278935416667,"instrument":11,"program":21},{"pitch":62,"velocity":84,"startTime":132.1671371875,"endTime":132.29621329166667,"instrument":11,"program":21},{"pitch":67,"velocity":110,"startTime":132.34376764583334,"endTime":132.47284375,"instrument":11,"program":21},{"pitch":62,"velocity":99,"startTime":132.52039810416667,"endTime":132.62230029166668,"instrument":11,"program":21},{"pitch":62,"velocity":99,"startTime":132.68344160416666,"endTime":132.79893075,"instrument":11,"program":21},{"pitch":62,"velocity":75,"startTime":132.83289814583333,"endTime":132.94838729166668,"instrument":11,"program":21},{"pitch":62,"velocity":99,"startTime":133.00273512500002,"endTime":133.12501775,"instrument":11,"program":21},{"pitch":62,"velocity":84,"startTime":133.165778625,"endTime":133.27447429166668,"instrument":11,"program":21},{"pitch":62,"velocity":99,"startTime":133.33561560416666,"endTime":133.45110475,"instrument":11,"program":21},{"pitch":62,"velocity":84,"startTime":133.49865910416668,"endTime":133.60735477083335,"instrument":11,"program":21},{"pitch":62,"velocity":99,"startTime":133.66849608333334,"endTime":133.79077870833333,"instrument":11,"program":21},{"pitch":62,"velocity":75,"startTime":133.82474610416668,"endTime":133.93344177083335,"instrument":11,"program":21},{"pitch":62,"velocity":110,"startTime":133.98778960416666,"endTime":134.09648527083334,"instrument":11,"program":21},{"pitch":62,"velocity":84,"startTime":134.15083310416665,"endTime":134.26632225,"instrument":11,"program":21},{"pitch":63,"velocity":110,"startTime":134.31387660416667,"endTime":134.42257227083334,"instrument":11,"program":21},{"pitch":62,"velocity":99,"startTime":134.47692010416665,"endTime":134.5720288125,"instrument":11,"program":21},{"pitch":61,"velocity":110,"startTime":134.62637664583335,"endTime":134.7350723125,"instrument":11,"program":21},{"pitch":62,"velocity":99,"startTime":134.7758331875,"endTime":134.89132233333336,"instrument":11,"program":21},{"pitch":63,"velocity":110,"startTime":134.94567016666664,"endTime":135.06795279166664,"instrument":11,"program":21},{"pitch":62,"velocity":99,"startTime":135.122300625,"endTime":135.21740933333336,"instrument":11,"program":21},{"pitch":61,"velocity":110,"startTime":135.27855064583335,"endTime":135.3872463125,"instrument":11,"program":21},{"pitch":62,"velocity":84,"startTime":135.43480066666666,"endTime":135.5502898125,"instrument":11,"program":21},{"pitch":62,"velocity":110,"startTime":135.6318115625,"endTime":135.7540941875,"instrument":11,"program":21},{"pitch":62,"velocity":75,"startTime":135.78806158333336,"endTime":135.89675725,"instrument":11,"program":21},{"pitch":62,"velocity":99,"startTime":135.96469204166667,"endTime":136.06659422916667,"instrument":11,"program":21},{"pitch":62,"velocity":84,"startTime":136.1209420625,"endTime":136.25681164583335,"instrument":11,"program":21},{"pitch":72,"velocity":99,"startTime":136.29757252083334,"endTime":136.4062681875,"instrument":11,"program":21},{"pitch":62,"velocity":110,"startTime":136.44023558333333,"endTime":136.54213777083334,"instrument":11,"program":21},{"pitch":62,"velocity":99,"startTime":136.589692125,"endTime":136.6915943125,"instrument":11,"program":21},{"pitch":62,"velocity":84,"startTime":136.75273562499999,"endTime":136.8953986875,"instrument":11,"program":21},{"pitch":69,"velocity":110,"startTime":136.92936608333332,"endTime":137.05164870833335,"instrument":11,"program":21},{"pitch":62,"velocity":99,"startTime":137.08561610416666,"endTime":137.18751829166666,"instrument":11,"program":21},{"pitch":62,"velocity":99,"startTime":137.24865960416668,"endTime":137.35056179166668,"instrument":11,"program":21},{"pitch":62,"velocity":84,"startTime":137.39132266666667,"endTime":137.51360529166666,"instrument":11,"program":21},{"pitch":66,"velocity":110,"startTime":137.567953125,"endTime":137.68344227083332,"instrument":11,"program":21},{"pitch":62,"velocity":99,"startTime":137.73779010416666,"endTime":137.83289881250002,"instrument":11,"program":21},{"pitch":62,"velocity":99,"startTime":137.90083360416668,"endTime":138.01632275,"instrument":11,"program":21},{"pitch":62,"velocity":75,"startTime":138.05029014583334,"endTime":138.16577929166667,"instrument":11,"program":21},{"pitch":62,"velocity":110,"startTime":138.23371408333335,"endTime":138.35599670833335,"instrument":11,"program":21},{"pitch":62,"velocity":84,"startTime":138.38996410416667,"endTime":138.50545325000002,"instrument":11,"program":21},{"pitch":62,"velocity":99,"startTime":138.55980108333335,"endTime":138.67529022916668,"instrument":11,"program":21},{"pitch":62,"velocity":84,"startTime":138.71605110416667,"endTime":138.83154025000002,"instrument":11,"program":21},{"pitch":62,"velocity":99,"startTime":138.88588808333336,"endTime":138.99458375,"instrument":11,"program":21},{"pitch":62,"velocity":75,"startTime":139.04893158333334,"endTime":139.16442072916666,"instrument":11,"program":21},{"pitch":62,"velocity":84,"startTime":139.20518160416665,"endTime":139.31387727083336,"instrument":11,"program":21},{"pitch":62,"velocity":99,"startTime":139.361431625,"endTime":139.48371425000002,"instrument":11,"program":21},{"pitch":63,"velocity":110,"startTime":139.53126860416666,"endTime":139.63996427083336,"instrument":11,"program":21},{"pitch":62,"velocity":84,"startTime":139.68072514583335,"endTime":139.78262733333335,"instrument":11,"program":21},{"pitch":61,"velocity":110,"startTime":139.84376864583336,"endTime":139.95925779166666,"instrument":11,"program":21},{"pitch":62,"velocity":84,"startTime":139.9932251875,"endTime":140.1155078125,"instrument":11,"program":21},{"pitch":63,"velocity":110,"startTime":140.18344260416666,"endTime":140.29893175,"instrument":11,"program":21},{"pitch":62,"velocity":84,"startTime":140.34648610416667,"endTime":140.43480133333335,"instrument":11,"program":21},{"pitch":61,"velocity":110,"startTime":140.50273612499998,"endTime":140.61143179166666,"instrument":11,"program":21},{"pitch":62,"velocity":84,"startTime":140.65898614583335,"endTime":140.76088833333336,"instrument":11,"program":21},{"pitch":62,"velocity":110,"startTime":140.84241008333333,"endTime":140.95789922916666,"instrument":11,"program":21},{"pitch":62,"velocity":67,"startTime":140.99866010416667,"endTime":141.11414925,"instrument":11,"program":21},{"pitch":62,"velocity":84,"startTime":141.1752905625,"endTime":141.28398622916666,"instrument":11,"program":21},{"pitch":62,"velocity":75,"startTime":141.3383340625,"endTime":141.47420364583334,"instrument":11,"program":21},{"pitch":74,"velocity":110,"startTime":141.51496452083333,"endTime":141.61007322916666,"instrument":11,"program":21},{"pitch":62,"velocity":99,"startTime":141.6644210625,"endTime":141.7867036875,"instrument":11,"program":21},{"pitch":62,"velocity":99,"startTime":141.807084125,"endTime":141.92257327083334,"instrument":11,"program":21},{"pitch":62,"velocity":99,"startTime":141.970127625,"endTime":142.09920372916667,"instrument":11,"program":21},{"pitch":70,"velocity":110,"startTime":142.14675808333334,"endTime":142.24866027083334,"instrument":11,"program":21},{"pitch":62,"velocity":99,"startTime":142.296214625,"endTime":142.38452985416666,"instrument":11,"program":21},{"pitch":62,"velocity":84,"startTime":142.44567116666667,"endTime":142.54757335416667,"instrument":11,"program":21},{"pitch":62,"velocity":84,"startTime":142.59512770833334,"endTime":142.73099729166668,"instrument":11,"program":21},{"pitch":67,"velocity":110,"startTime":142.7649646875,"endTime":142.88045383333335,"instrument":11,"program":21},{"pitch":62,"velocity":110,"startTime":142.94159514583333,"endTime":143.03670385416666,"instrument":11,"program":21},{"pitch":62,"velocity":99,"startTime":143.0910516875,"endTime":143.21333431250002,"instrument":11,"program":21},{"pitch":62,"velocity":84,"startTime":143.24730170833334,"endTime":143.36279085416666,"instrument":11,"program":21},{"pitch":62,"velocity":99,"startTime":143.42393216666667,"endTime":143.54621479166667,"instrument":11,"program":21},{"pitch":62,"velocity":84,"startTime":143.58018218750001,"endTime":143.69567133333334,"instrument":11,"program":21},{"pitch":62,"velocity":84,"startTime":143.763606125,"endTime":143.87230179166667,"instrument":11,"program":21},{"pitch":62,"velocity":75,"startTime":143.90626918750002,"endTime":144.01496485416666,"instrument":11,"program":21},{"pitch":62,"velocity":110,"startTime":144.089693125,"endTime":144.1915953125,"instrument":11,"program":21},{"pitch":62,"velocity":75,"startTime":144.23235618750002,"endTime":144.34105185416666,"instrument":11,"program":21},{"pitch":62,"velocity":99,"startTime":144.40898664583335,"endTime":144.51088883333335,"instrument":11,"program":21},{"pitch":62,"velocity":75,"startTime":144.56523666666666,"endTime":144.6807258125,"instrument":11,"program":21},{"pitch":63,"velocity":110,"startTime":144.73507364583335,"endTime":144.8437693125,"instrument":11,"program":21},{"pitch":62,"velocity":99,"startTime":144.90491062499999,"endTime":144.99322585416667,"instrument":11,"program":21},{"pitch":61,"velocity":110,"startTime":145.06116064583335,"endTime":145.16306283333336,"instrument":11,"program":21},{"pitch":62,"velocity":84,"startTime":145.2106171875,"endTime":145.31931285416667,"instrument":11,"program":21},{"pitch":63,"velocity":110,"startTime":145.3736606875,"endTime":145.48914983333333,"instrument":11,"program":21},{"pitch":62,"velocity":99,"startTime":145.55029114583334,"endTime":145.6589868125,"instrument":11,"program":21},{"pitch":61,"velocity":110,"startTime":145.68616072916666,"endTime":145.78806291666666,"instrument":11,"program":21},{"pitch":62,"velocity":110,"startTime":145.84241075,"endTime":145.97148685416667,"instrument":11,"program":21},{"pitch":60,"velocity":99,"startTime":146.01224772916666,"endTime":146.11414991666666,"instrument":11,"program":21},{"pitch":59,"velocity":75,"startTime":146.1888781875,"endTime":146.2703999375,"instrument":11,"program":21},{"pitch":60,"velocity":99,"startTime":146.33833472916666,"endTime":146.44703039583334,"instrument":11,"program":21},{"pitch":62,"velocity":110,"startTime":146.5149651875,"endTime":146.63045433333335,"instrument":11,"program":21},{"pitch":63,"velocity":110,"startTime":146.6780086875,"endTime":146.77311739583334,"instrument":11,"program":21},{"pitch":62,"velocity":110,"startTime":146.82746522916668,"endTime":146.92936741666668,"instrument":11,"program":21},{"pitch":63,"velocity":110,"startTime":146.98371525000002,"endTime":147.09241091666667,"instrument":11,"program":21},{"pitch":65,"velocity":99,"startTime":147.14675875,"endTime":147.26224789583335,"instrument":11,"program":21},{"pitch":67,"velocity":99,"startTime":147.3301826875,"endTime":147.47963922916668,"instrument":11,"program":21},{"pitch":66,"velocity":110,"startTime":147.50001966666667,"endTime":147.60871533333335,"instrument":11,"program":21},{"pitch":67,"velocity":75,"startTime":147.66306316666666,"endTime":147.76496535416666,"instrument":11,"program":21},{"pitch":71,"velocity":110,"startTime":147.83290014583335,"endTime":147.9415958125,"instrument":11,"program":21},{"pitch":72,"velocity":110,"startTime":147.99594364583334,"endTime":148.1046393125,"instrument":11,"program":21},{"pitch":71,"velocity":99,"startTime":148.15898714583335,"endTime":148.25409585416665,"instrument":11,"program":21},{"pitch":72,"velocity":99,"startTime":148.31523716666666,"endTime":148.41034587500002,"instrument":11,"program":21},{"pitch":74,"velocity":84,"startTime":148.46469370833336,"endTime":148.60056329166665,"instrument":11,"program":21},{"pitch":75,"velocity":110,"startTime":148.654911125,"endTime":148.79078070833336,"instrument":11,"program":21},{"pitch":74,"velocity":84,"startTime":148.84512854166667,"endTime":148.94023725,"instrument":11,"program":21},{"pitch":73,"velocity":110,"startTime":148.980998125,"endTime":149.08290031250002,"instrument":11,"program":21},{"pitch":74,"velocity":110,"startTime":149.15083510416665,"endTime":149.27991120833335,"instrument":11,"program":21},{"pitch":75,"velocity":110,"startTime":149.31387860416666,"endTime":149.470128625,"instrument":11,"program":21},{"pitch":74,"velocity":84,"startTime":149.46333514583335,"endTime":149.5720308125,"instrument":11,"program":21},{"pitch":73,"velocity":110,"startTime":149.6127916875,"endTime":149.72828083333334,"instrument":11,"program":21},{"pitch":74,"velocity":110,"startTime":149.78262866666665,"endTime":149.90491129166665,"instrument":11,"program":21},{"pitch":75,"velocity":110,"startTime":149.95246564583334,"endTime":150.0611613125,"instrument":11,"program":21},{"pitch":74,"velocity":99,"startTime":150.1019221875,"endTime":150.21061785416666,"instrument":11,"program":21},{"pitch":73,"velocity":110,"startTime":150.25137872916667,"endTime":150.3872483125,"instrument":11,"program":21},{"pitch":74,"velocity":84,"startTime":150.4280091875,"endTime":150.529911375,"instrument":11,"program":21},{"pitch":75,"velocity":110,"startTime":150.57746572916668,"endTime":150.6725744375,"instrument":11,"program":21},{"pitch":76,"velocity":99,"startTime":150.73371575,"endTime":150.84920489583334,"instrument":11,"program":21},{"pitch":77,"velocity":110,"startTime":150.9171396875,"endTime":151.00545491666668,"instrument":11,"program":21},{"pitch":78,"velocity":110,"startTime":151.06659622916666,"endTime":151.16849841666667,"instrument":11,"program":21},{"pitch":79,"velocity":99,"startTime":151.25002016666667,"endTime":151.35871583333335,"instrument":11,"program":21},{"pitch":78,"velocity":110,"startTime":151.39947670833334,"endTime":151.51496585416666,"instrument":11,"program":21},{"pitch":79,"velocity":84,"startTime":151.57610716666667,"endTime":151.69838979166667,"instrument":11,"program":21},{"pitch":81,"velocity":75,"startTime":151.752737625,"endTime":151.84784633333334,"instrument":11,"program":21},{"pitch":79,"velocity":84,"startTime":151.915781125,"endTime":152.02447679166667,"instrument":11,"program":21},{"pitch":78,"velocity":110,"startTime":152.05165070833334,"endTime":152.17393333333334,"instrument":11,"program":21},{"pitch":77,"velocity":99,"startTime":152.2214876875,"endTime":152.35056379166667,"instrument":11,"program":21},{"pitch":76,"velocity":99,"startTime":152.39132466666666,"endTime":152.51360729166666,"instrument":11,"program":21},{"pitch":75,"velocity":110,"startTime":152.56116164583335,"endTime":152.66306383333335,"instrument":11,"program":21},{"pitch":74,"velocity":99,"startTime":152.71741166666666,"endTime":152.82610733333334,"instrument":11,"program":21},{"pitch":73,"velocity":110,"startTime":152.894042125,"endTime":152.9959443125,"instrument":11,"program":21},{"pitch":74,"velocity":99,"startTime":153.05029214583334,"endTime":153.14540085416667,"instrument":11,"program":21},{"pitch":75,"velocity":110,"startTime":153.22692260416665,"endTime":153.34241175,"instrument":11,"program":21},{"pitch":74,"velocity":84,"startTime":153.39675958333336,"endTime":153.5258356875,"instrument":11,"program":21},{"pitch":70,"velocity":110,"startTime":153.5665965625,"endTime":153.6888791875,"instrument":11,"program":21},{"pitch":67,"velocity":99,"startTime":153.72284658333336,"endTime":153.84512920833336,"instrument":11,"program":21},{"pitch":75,"velocity":110,"startTime":153.88589008333335,"endTime":154.02175966666667,"instrument":11,"program":21},{"pitch":74,"velocity":55,"startTime":154.04893358333334,"endTime":154.20518360416665,"instrument":11,"program":21},{"pitch":70,"velocity":110,"startTime":154.21197708333335,"endTime":154.34784666666667,"instrument":11,"program":21},{"pitch":67,"velocity":84,"startTime":154.38860754166666,"endTime":154.48371625,"instrument":11,"program":21},{"pitch":70,"velocity":110,"startTime":154.57203147916667,"endTime":154.73507497916665,"instrument":11,"program":21},{"pitch":67,"velocity":84,"startTime":154.72148802083333,"endTime":154.87773804166667,"instrument":11,"program":21},{"pitch":63,"velocity":110,"startTime":154.87773804166667,"endTime":155.00002066666667,"instrument":11,"program":21},{"pitch":62,"velocity":65,"startTime":155.0339880625,"endTime":155.14268372916666,"instrument":11,"program":21},{"pitch":63,"velocity":110,"startTime":155.1970315625,"endTime":155.33290114583335,"instrument":11,"program":21},{"pitch":62,"velocity":84,"startTime":155.3600750625,"endTime":155.51632508333333,"instrument":11,"program":21},{"pitch":58,"velocity":84,"startTime":155.5231185625,"endTime":155.65219466666667,"instrument":11,"program":21},{"pitch":55,"velocity":67,"startTime":155.65898814583335,"endTime":155.78806425,"instrument":11,"program":21},{"pitch":58,"velocity":110,"startTime":155.83561860416668,"endTime":155.95110775,"instrument":11,"program":21},{"pitch":55,"velocity":110,"startTime":156.00545558333334,"endTime":156.14811864583334,"instrument":11,"program":21},{"pitch":53,"velocity":84,"startTime":156.154912125,"endTime":156.2636077916667,"instrument":11,"program":21},{"pitch":51,"velocity":110,"startTime":156.317955625,"endTime":156.480999125,"instrument":11,"program":21},{"pitch":50,"velocity":84,"startTime":156.48779260416666,"endTime":156.60328175,"instrument":11,"program":21},{"pitch":49,"velocity":110,"startTime":156.65762958333335,"endTime":156.75953177083335,"instrument":11,"program":21},{"pitch":50,"velocity":84,"startTime":156.80029264583334,"endTime":156.92936875,"instrument":11,"program":21},{"pitch":52,"velocity":110,"startTime":156.97692310416667,"endTime":157.08561877083335,"instrument":11,"program":21},{"pitch":54,"velocity":110,"startTime":157.12637964583334,"endTime":157.23507531250002,"instrument":11,"program":21},{"pitch":53,"velocity":99,"startTime":157.28262966666665,"endTime":157.40491229166668,"instrument":11,"program":21},{"pitch":54,"velocity":110,"startTime":157.43208620833335,"endTime":157.59512970833336,"instrument":11,"program":21},{"pitch":55,"velocity":99,"startTime":157.59512970833336,"endTime":157.71741233333333,"instrument":11,"program":21},{"pitch":57,"velocity":99,"startTime":157.785347125,"endTime":157.948390625,"instrument":11,"program":21},{"pitch":56,"velocity":110,"startTime":157.948390625,"endTime":158.05708629166668,"instrument":11,"program":21},{"pitch":57,"velocity":84,"startTime":158.10464064583334,"endTime":158.22012979166666,"instrument":11,"program":21},{"pitch":59,"velocity":110,"startTime":158.26768414583333,"endTime":158.38317329166665,"instrument":11,"program":21},{"pitch":60,"velocity":99,"startTime":158.43072764583334,"endTime":158.54621679166667,"instrument":11,"program":21},{"pitch":59,"velocity":99,"startTime":158.57339070833333,"endTime":158.68887985416666,"instrument":11,"program":21},{"pitch":60,"velocity":110,"startTime":158.7432276875,"endTime":158.845129875,"instrument":11,"program":21},{"pitch":61,"velocity":110,"startTime":158.89268422916666,"endTime":159.00137989583334,"instrument":11,"program":21},{"pitch":62,"velocity":99,"startTime":159.0693146875,"endTime":159.20518427083334,"instrument":11,"program":21},{"pitch":61,"velocity":110,"startTime":159.22556470833334,"endTime":159.334260375,"instrument":11,"program":21},{"pitch":62,"velocity":84,"startTime":159.37502125,"endTime":159.49051039583333,"instrument":11,"program":21},{"pitch":64,"velocity":110,"startTime":159.55844518749998,"endTime":159.6671408541667,"instrument":11,"program":21},{"pitch":66,"velocity":110,"startTime":159.7214886875,"endTime":159.83018435416665,"instrument":11,"program":21},{"pitch":65,"velocity":99,"startTime":159.87773870833334,"endTime":159.99322785416666,"instrument":11,"program":21},{"pitch":66,"velocity":110,"startTime":160.04078220833333,"endTime":160.14268439583333,"instrument":11,"program":21},{"pitch":67,"velocity":99,"startTime":160.19703222916667,"endTime":160.3329018125,"instrument":11,"program":21},{"pitch":69,"velocity":84,"startTime":160.36686920833336,"endTime":160.51632575,"instrument":11,"program":21},{"pitch":66,"velocity":110,"startTime":160.52311922916667,"endTime":160.64540185416666,"instrument":11,"program":21},{"pitch":62,"velocity":84,"startTime":160.6657822916667,"endTime":160.7812714375,"instrument":11,"program":21},{"pitch":63,"velocity":110,"startTime":160.84241275000002,"endTime":160.97148885416667,"instrument":11,"program":21},{"pitch":62,"velocity":84,"startTime":161.01224972916668,"endTime":161.10735843749998,"instrument":11,"program":21},{"pitch":60,"velocity":99,"startTime":161.18888018750002,"endTime":161.33154325,"instrument":11,"program":21},{"pitch":58,"velocity":110,"startTime":161.33833672916666,"endTime":161.46061935416665,"instrument":11,"program":21},{"pitch":57,"velocity":110,"startTime":161.49458675000002,"endTime":161.60328241666667,"instrument":11,"program":21},{"pitch":55,"velocity":84,"startTime":161.68480416666665,"endTime":161.77311939583336,"instrument":11,"program":21},{"pitch":75,"velocity":110,"startTime":161.95654333333334,"endTime":162.09241291666666,"instrument":11,"program":21},{"pitch":74,"velocity":99,"startTime":162.09241291666666,"endTime":162.23507597916668,"instrument":11,"program":21},{"pitch":72,"velocity":84,"startTime":162.25545641666665,"endTime":162.350565125,"instrument":11,"program":21},{"pitch":70,"velocity":110,"startTime":162.42529339583336,"endTime":162.52040210416666,"instrument":11,"program":21},{"pitch":69,"velocity":99,"startTime":162.58154341666668,"endTime":162.68344560416668,"instrument":11,"program":21},{"pitch":67,"velocity":84,"startTime":162.70382604166664,"endTime":162.8193151875,"instrument":11,"program":21},{"pitch":66,"velocity":110,"startTime":162.88724997916668,"endTime":163.002739125,"instrument":11,"program":21},{"pitch":63,"velocity":110,"startTime":163.0435,"endTime":163.16578262500002,"instrument":11,"program":21},{"pitch":62,"velocity":110,"startTime":163.19975002083333,"endTime":163.31523916666666,"instrument":11,"program":21},{"pitch":60,"velocity":107,"startTime":163.33561960416668,"endTime":163.46469570833335,"instrument":11,"program":21},{"pitch":58,"velocity":110,"startTime":163.51904354166666,"endTime":163.62773920833334,"instrument":11,"program":21},{"pitch":57,"velocity":99,"startTime":163.6752935625,"endTime":163.79078270833335,"instrument":11,"program":21},{"pitch":55,"velocity":99,"startTime":163.80436966666664,"endTime":163.91985881250002,"instrument":11,"program":21},{"pitch":54,"velocity":110,"startTime":163.98100012499998,"endTime":164.09648927083336,"instrument":11,"program":21},{"pitch":57,"velocity":99,"startTime":164.15083710416664,"endTime":164.2867066875,"instrument":11,"program":21},{"pitch":55,"velocity":99,"startTime":164.31388060416666,"endTime":164.4225762708333,"instrument":11,"program":21},{"pitch":62,"velocity":110,"startTime":164.67393500000003,"endTime":165.57067425000002,"instrument":11,"program":21},{"pitch":60,"velocity":60,"startTime":164.97964156249998,"endTime":165.5774677291667,"instrument":11,"program":21},{"pitch":66,"velocity":99,"startTime":164.98643504166668,"endTime":165.5502938125,"instrument":11,"program":21},{"pitch":67,"velocity":43,"startTime":165.5774677291667,"endTime":165.74730470833333,"instrument":11,"program":21},{"pitch":62,"velocity":50,"startTime":165.59784816666667,"endTime":165.74730470833333,"instrument":11,"program":21},{"pitch":58,"velocity":110,"startTime":165.6046416458333,"endTime":165.74051122916666,"instrument":11,"program":21},{"pitch":67,"velocity":110,"startTime":166.9905113958333,"endTime":167.0924135833333,"instrument":11,"program":21},{"pitch":66,"velocity":110,"startTime":167.2962179583333,"endTime":167.37773970833334,"instrument":11,"program":21},{"pitch":67,"velocity":110,"startTime":167.5747506041667,"endTime":167.69023975000002,"instrument":11,"program":21},{"pitch":69,"velocity":110,"startTime":167.9212180416667,"endTime":168.28806591666668,"instrument":11,"program":21},{"pitch":70,"velocity":110,"startTime":168.54621812500002,"endTime":169.1372508125,"instrument":11,"program":21},{"pitch":69,"velocity":110,"startTime":169.2187725625,"endTime":169.31388127083332,"instrument":11,"program":21},{"pitch":67,"velocity":110,"startTime":169.57882695833334,"endTime":169.66034870833332,"instrument":11,"program":21},{"pitch":66,"velocity":110,"startTime":169.72149002083333,"endTime":169.81659872916669,"instrument":11,"program":21},{"pitch":67,"velocity":84,"startTime":169.8709465625,"endTime":169.95246831250003,"instrument":11,"program":21},{"pitch":69,"velocity":110,"startTime":170.02040310416666,"endTime":170.12230529166666,"instrument":11,"program":21},{"pitch":70,"velocity":110,"startTime":170.176653125,"endTime":170.2785553125,"instrument":11,"program":21},{"pitch":69,"velocity":110,"startTime":170.3329031458333,"endTime":170.42801185416667,"instrument":11,"program":21},{"pitch":70,"velocity":110,"startTime":170.47556620833333,"endTime":170.5774683958333,"instrument":11,"program":21},{"pitch":72,"velocity":99,"startTime":170.6521966666667,"endTime":170.7676858125,"instrument":11,"program":21},{"pitch":74,"velocity":99,"startTime":170.81524016666665,"endTime":170.9239358333333,"instrument":11,"program":21},{"pitch":72,"velocity":84,"startTime":170.9714901875,"endTime":171.09377281250002,"instrument":11,"program":21},{"pitch":70,"velocity":110,"startTime":171.12094672916666,"endTime":171.2432293541667,"instrument":11,"program":21},{"pitch":69,"velocity":84,"startTime":171.29078370833332,"endTime":171.41306633333332,"instrument":11,"program":21},{"pitch":67,"velocity":55,"startTime":171.4606206875,"endTime":171.56931635416666,"instrument":11,"program":21},{"pitch":69,"velocity":99,"startTime":171.60328375,"endTime":171.73235985416667,"instrument":11,"program":21},{"pitch":67,"velocity":75,"startTime":171.75953377083334,"endTime":171.86143595833335,"instrument":11,"program":21},{"pitch":65,"velocity":99,"startTime":171.93616422916668,"endTime":172.06524033333335,"instrument":11,"program":21},{"pitch":63,"velocity":110,"startTime":172.1127946875,"endTime":172.46605560416668,"instrument":11,"program":21},{"pitch":62,"velocity":110,"startTime":172.48643604166668,"endTime":172.59513170833333,"instrument":11,"program":21},{"pitch":63,"velocity":110,"startTime":172.78534912499998,"endTime":172.88725131249998,"instrument":11,"program":21},{"pitch":65,"velocity":110,"startTime":173.1182296041667,"endTime":173.26768614583335,"instrument":11,"program":21},{"pitch":67,"velocity":110,"startTime":173.71605577083332,"endTime":174.30708845833334,"instrument":11,"program":21},{"pitch":63,"velocity":110,"startTime":174.3546428125,"endTime":174.47013195833333,"instrument":11,"program":21},{"pitch":62,"velocity":110,"startTime":174.7690450416667,"endTime":174.8573602708333,"instrument":11,"program":21},{"pitch":61,"velocity":110,"startTime":174.91170810416668,"endTime":175.00002333333333,"instrument":11,"program":21},{"pitch":62,"velocity":84,"startTime":175.0475776875,"endTime":175.14268639583332,"instrument":11,"program":21},{"pitch":66,"velocity":110,"startTime":175.2038277083333,"endTime":175.2921429375,"instrument":11,"program":21},{"pitch":67,"velocity":99,"startTime":175.36007772916668,"endTime":175.4823603541667,"instrument":11,"program":21},{"pitch":66,"velocity":110,"startTime":175.5231212291667,"endTime":175.61143645833332,"instrument":11,"program":21},{"pitch":67,"velocity":67,"startTime":175.67257777083333,"endTime":175.77447995833333,"instrument":11,"program":21},{"pitch":69,"velocity":110,"startTime":175.83562127083334,"endTime":175.93752345833335,"instrument":11,"program":21},{"pitch":70,"velocity":110,"startTime":175.9850778125,"endTime":176.09377347916666,"instrument":11,"program":21},{"pitch":69,"velocity":99,"startTime":176.1481213125,"endTime":176.2432300208333,"instrument":11,"program":21},{"pitch":70,"velocity":110,"startTime":176.3043713333333,"endTime":176.413067,"instrument":11,"program":21},{"pitch":72,"velocity":75,"startTime":176.48779527083335,"endTime":176.5964909375,"instrument":11,"program":21},{"pitch":74,"velocity":99,"startTime":176.6508387708333,"endTime":176.7595344375,"instrument":11,"program":21},{"pitch":72,"velocity":99,"startTime":176.8002953125,"endTime":176.9225779375,"instrument":11,"program":21},{"pitch":70,"velocity":110,"startTime":176.94295837500002,"endTime":177.0856214375,"instrument":11,"program":21},{"pitch":69,"velocity":84,"startTime":177.11279535416668,"endTime":177.25545841666667,"instrument":11,"program":21},{"pitch":67,"velocity":110,"startTime":177.2962192916667,"endTime":177.6562736875,"instrument":11,"program":21},{"pitch":66,"velocity":110,"startTime":177.69024108333335,"endTime":177.77176283333333,"instrument":11,"program":21},{"pitch":67,"velocity":99,"startTime":178.01632808333332,"endTime":178.10464331249997,"instrument":11,"program":21},{"pitch":69,"velocity":110,"startTime":178.34241508333332,"endTime":178.42393683333333,"instrument":11,"program":21},{"pitch":70,"velocity":110,"startTime":178.9470347291667,"endTime":179.53806741666668,"instrument":11,"program":21},{"pitch":69,"velocity":99,"startTime":179.59241525000002,"endTime":179.68752395833332,"instrument":11,"program":21},{"pitch":67,"velocity":110,"startTime":179.97285008333333,"endTime":180.0611653125,"instrument":11,"program":21},{"pitch":66,"velocity":110,"startTime":180.122306625,"endTime":180.2106218541667,"instrument":11,"program":21},{"pitch":67,"velocity":84,"startTime":180.26496968749998,"endTime":180.36007839583334,"instrument":11,"program":21},{"pitch":69,"velocity":110,"startTime":180.42121970833333,"endTime":180.51632841666665,"instrument":11,"program":21},{"pitch":70,"velocity":110,"startTime":180.57067625,"endTime":180.67937191666667,"instrument":11,"program":21},{"pitch":69,"velocity":110,"startTime":180.74730670833333,"endTime":180.8356219375,"instrument":11,"program":21},{"pitch":70,"velocity":110,"startTime":180.88996977083332,"endTime":180.99187195833332,"instrument":11,"program":21},{"pitch":72,"velocity":67,"startTime":181.0666002291667,"endTime":181.18888285416668,"instrument":11,"program":21},{"pitch":74,"velocity":75,"startTime":181.2364372083333,"endTime":181.345132875,"instrument":11,"program":21},{"pitch":72,"velocity":75,"startTime":181.39268722916668,"endTime":181.5149698541667,"instrument":11,"program":21},{"pitch":70,"velocity":110,"startTime":181.5285568125,"endTime":181.6576329166667,"instrument":11,"program":21},{"pitch":69,"velocity":84,"startTime":181.6916003125,"endTime":181.8274698958333,"instrument":11,"program":21},{"pitch":67,"velocity":75,"startTime":181.8614372916667,"endTime":181.956546,"instrument":11,"program":21},{"pitch":69,"velocity":110,"startTime":182.0041003541667,"endTime":182.12638297916666,"instrument":11,"program":21},{"pitch":67,"velocity":75,"startTime":182.15355689583333,"endTime":182.25545908333334,"instrument":11,"program":21},{"pitch":65,"velocity":99,"startTime":182.32339387500002,"endTime":182.45926345833334,"instrument":11,"program":21},{"pitch":63,"velocity":110,"startTime":182.51361129166668,"endTime":182.9212200416667,"instrument":11,"program":21},{"pitch":62,"velocity":99,"startTime":182.94839395833333,"endTime":183.04350266666668,"instrument":11,"program":21},{"pitch":63,"velocity":110,"startTime":183.24051356249998,"endTime":183.3356222708333,"instrument":11,"program":21},{"pitch":65,"velocity":110,"startTime":183.55980708333334,"endTime":183.6752962291667,"instrument":11,"program":21},{"pitch":67,"velocity":110,"startTime":184.17122020833332,"endTime":184.7622528958333,"instrument":11,"program":21},{"pitch":63,"velocity":110,"startTime":184.80980725,"endTime":184.9117094375,"instrument":11,"program":21},{"pitch":62,"velocity":110,"startTime":185.21741600000001,"endTime":185.3125247083333,"instrument":11,"program":21},{"pitch":61,"velocity":110,"startTime":185.3804595,"endTime":185.47556820833333,"instrument":11,"program":21},{"pitch":62,"velocity":84,"startTime":185.54350300000002,"endTime":185.62502475,"instrument":11,"program":21},{"pitch":66,"velocity":99,"startTime":185.7065465,"endTime":185.78806825,"instrument":11,"program":21},{"pitch":67,"velocity":84,"startTime":185.86959,"endTime":185.991872625,"instrument":11,"program":21},{"pitch":66,"velocity":110,"startTime":186.0326335,"endTime":186.12774220833333,"instrument":11,"program":21},{"pitch":67,"velocity":84,"startTime":186.19567700000002,"endTime":186.29757918750002,"instrument":11,"program":21},{"pitch":69,"velocity":99,"startTime":186.3587205,"endTime":186.4606226875,"instrument":11,"program":21},{"pitch":70,"velocity":110,"startTime":186.521764,"endTime":186.6304596666667,"instrument":11,"program":21},{"pitch":69,"velocity":99,"startTime":186.6848075,"endTime":186.77991620833333,"instrument":11,"program":21},{"pitch":70,"velocity":110,"startTime":186.84785100000002,"endTime":186.95654666666667,"instrument":11,"program":21},{"pitch":72,"velocity":75,"startTime":187.01089449999998,"endTime":187.133177125,"instrument":11,"program":21},{"pitch":74,"velocity":75,"startTime":187.173938,"endTime":187.2758401875,"instrument":11,"program":21},{"pitch":75,"velocity":110,"startTime":187.3369815,"endTime":187.4252967291667,"instrument":11,"program":21},{"pitch":76,"velocity":84,"startTime":187.50002500000002,"endTime":187.60872066666667,"instrument":11,"program":21},{"pitch":78,"velocity":110,"startTime":187.66306849999998,"endTime":187.77855764583333,"instrument":11,"program":21},{"pitch":79,"velocity":110,"startTime":187.826112,"endTime":188.01632941666668,"instrument":11,"program":21},{"pitch":74,"velocity":75,"startTime":188.57339470833332,"endTime":189.21198175,"instrument":11,"program":21},{"pitch":75,"velocity":99,"startTime":189.23915566666668,"endTime":190.1291014375,"instrument":11,"program":21},{"pitch":74,"velocity":84,"startTime":190.0815470833333,"endTime":190.36687320833335,"instrument":11,"program":21},{"pitch":74,"velocity":75,"startTime":190.4280145208333,"endTime":191.3519276875,"instrument":11,"program":21},{"pitch":72,"velocity":75,"startTime":191.36551464583334,"endTime":191.57611250000002,"instrument":11,"program":21},{"pitch":72,"velocity":84,"startTime":191.69160164583332,"endTime":192.0041016875,"instrument":11,"program":21},{"pitch":75,"velocity":110,"startTime":192.0516560416667,"endTime":192.32339520833332,"instrument":11,"program":21},{"pitch":74,"velocity":75,"startTime":192.36415608333334,"endTime":193.28127577083333,"instrument":11,"program":21},{"pitch":72,"velocity":110,"startTime":193.70247147916666,"endTime":194.27991720833333,"instrument":11,"program":21},{"pitch":74,"velocity":110,"startTime":194.32747156250002,"endTime":195.17665645833333,"instrument":11,"program":21},{"pitch":72,"velocity":84,"startTime":195.2242108125,"endTime":195.49594997916668,"instrument":11,"program":21},{"pitch":72,"velocity":110,"startTime":195.62502608333332,"endTime":196.508178375,"instrument":11,"program":21},{"pitch":70,"velocity":99,"startTime":196.5353522916667,"endTime":196.80709145833333,"instrument":11,"program":21},{"pitch":70,"velocity":110,"startTime":196.92937408333333,"endTime":197.2147002083333,"instrument":11,"program":21},{"pitch":74,"velocity":84,"startTime":197.26904804166668,"endTime":197.52040677083332,"instrument":11,"program":21},{"pitch":72,"velocity":67,"startTime":197.59513504166668,"endTime":198.86551564583334,"instrument":11,"program":21},{"pitch":70,"velocity":110,"startTime":198.8926895625,"endTime":199.4633418125,"instrument":11,"program":21},{"pitch":72,"velocity":99,"startTime":199.5108961666667,"endTime":200.4008419375,"instrument":11,"program":21},{"pitch":70,"velocity":110,"startTime":200.41442889583334,"endTime":200.73372241666667,"instrument":11,"program":21},{"pitch":70,"velocity":110,"startTime":200.81524416666667,"endTime":201.71198341666667,"instrument":11,"program":21},{"pitch":69,"velocity":99,"startTime":201.7527442916667,"endTime":201.99730954166668,"instrument":11,"program":21},{"pitch":69,"velocity":110,"startTime":202.1127986875,"endTime":202.41171177083334,"instrument":11,"program":21},{"pitch":72,"velocity":99,"startTime":202.459266125,"endTime":202.72421181250002,"instrument":11,"program":21},{"pitch":70,"velocity":110,"startTime":202.77176616666668,"endTime":204.0013858958333,"instrument":11,"program":21},{"pitch":69,"velocity":99,"startTime":204.0625272083333,"endTime":204.70790772916666,"instrument":11,"program":21},{"pitch":67,"velocity":99,"startTime":204.72149468749998,"endTime":205.3804621666667,"instrument":11,"program":21},{"pitch":66,"velocity":110,"startTime":205.42122304166668,"endTime":206.03942964583334,"instrument":11,"program":21},{"pitch":67,"velocity":75,"startTime":206.05981008333333,"endTime":206.1481253125,"instrument":11,"program":21},{"pitch":62,"velocity":99,"startTime":206.37231012499998,"endTime":207.23508197916667,"instrument":11,"program":21},{"pitch":60,"velocity":84,"startTime":206.71198408333333,"endTime":207.29622329166668,"instrument":11,"program":21},{"pitch":66,"velocity":99,"startTime":206.71877756249998,"endTime":207.27584285416665,"instrument":11,"program":21},{"pitch":67,"velocity":53,"startTime":207.30981025000003,"endTime":207.50682114583333,"instrument":11,"program":21},{"pitch":62,"velocity":75,"startTime":207.3166037291667,"endTime":207.4932341875,"instrument":11,"program":21},{"pitch":58,"velocity":110,"startTime":207.32339720833332,"endTime":207.47964722916666,"instrument":11,"program":21},{"pitch":50,"velocity":75,"startTime":208.8587235,"endTime":208.9606256875,"instrument":11,"program":21},{"pitch":50,"velocity":99,"startTime":209.021767,"endTime":209.144049625,"instrument":11,"program":21},{"pitch":50,"velocity":110,"startTime":209.1848105,"endTime":209.3138866041667,"instrument":11,"program":21},{"pitch":54,"velocity":110,"startTime":209.34785399999998,"endTime":209.470136625,"instrument":11,"program":21},{"pitch":54,"velocity":99,"startTime":209.5108975,"endTime":209.5856257708333,"instrument":11,"program":21},{"pitch":54,"velocity":110,"startTime":209.673941,"endTime":209.76904970833334,"instrument":11,"program":21},{"pitch":54,"velocity":110,"startTime":209.8369845,"endTime":209.89812581249998,"instrument":11,"program":21},{"pitch":57,"velocity":110,"startTime":210.000028,"endTime":210.122310625,"instrument":11,"program":21},{"pitch":57,"velocity":65,"startTime":210.1630715,"endTime":210.25138672916668,"instrument":11,"program":21},{"pitch":57,"velocity":99,"startTime":210.32611500000002,"endTime":210.4348106666667,"instrument":11,"program":21},{"pitch":57,"velocity":75,"startTime":210.48915849999997,"endTime":210.59106068749998,"instrument":11,"program":21},{"pitch":60,"velocity":99,"startTime":210.652202,"endTime":210.7541041875,"instrument":11,"program":21},{"pitch":60,"velocity":84,"startTime":210.8152455,"endTime":210.91035420833333,"instrument":11,"program":21},{"pitch":60,"velocity":99,"startTime":210.97828900000002,"endTime":211.07339770833332,"instrument":11,"program":21},{"pitch":60,"velocity":84,"startTime":211.14133249999998,"endTime":211.24323468749998,"instrument":11,"program":21},{"pitch":63,"velocity":110,"startTime":211.304376,"endTime":211.38589775000003,"instrument":11,"program":21},{"pitch":63,"velocity":110,"startTime":211.4674195,"endTime":211.54894124999998,"instrument":11,"program":21},{"pitch":63,"velocity":110,"startTime":211.63046300000002,"endTime":211.73236518750002,"instrument":11,"program":21},{"pitch":63,"velocity":110,"startTime":211.7935065,"endTime":211.8682347708333,"instrument":11,"program":21},{"pitch":62,"velocity":110,"startTime":211.95655,"endTime":212.06524566666667,"instrument":11,"program":21},{"pitch":62,"velocity":84,"startTime":212.1195935,"endTime":212.2147022083333,"instrument":11,"program":21},{"pitch":62,"velocity":110,"startTime":212.28263700000002,"endTime":212.3913326666667,"instrument":11,"program":21},{"pitch":62,"velocity":84,"startTime":212.4456805,"endTime":212.5475826875,"instrument":11,"program":21},{"pitch":60,"velocity":99,"startTime":212.608724,"endTime":212.73100662500002,"instrument":11,"program":21},{"pitch":60,"velocity":84,"startTime":212.7717675,"endTime":212.8668762083333,"instrument":11,"program":21},{"pitch":60,"velocity":99,"startTime":212.934811,"endTime":213.057093625,"instrument":11,"program":21},{"pitch":60,"velocity":75,"startTime":213.0978545,"endTime":213.1861697291667,"instrument":11,"program":21},{"pitch":57,"velocity":99,"startTime":213.260898,"endTime":213.37638714583332,"instrument":11,"program":21},{"pitch":57,"velocity":84,"startTime":213.4239415,"endTime":213.5190502083333,"instrument":11,"program":21},{"pitch":57,"velocity":67,"startTime":213.586985,"endTime":213.6888871875,"instrument":11,"program":21},{"pitch":57,"velocity":84,"startTime":213.7500285,"endTime":213.85193068750002,"instrument":11,"program":21},{"pitch":58,"velocity":110,"startTime":213.913072,"endTime":214.0149741875,"instrument":11,"program":21},{"pitch":58,"velocity":110,"startTime":214.0761155,"endTime":214.15084377083335,"instrument":11,"program":21},{"pitch":58,"velocity":110,"startTime":214.239159,"endTime":214.3410611875,"instrument":11,"program":21},{"pitch":58,"velocity":110,"startTime":214.40220250000002,"endTime":214.50410468750002,"instrument":11,"program":21},{"pitch":62,"velocity":110,"startTime":214.565246,"endTime":214.68073514583332,"instrument":11,"program":21},{"pitch":62,"velocity":84,"startTime":214.7282895,"endTime":214.80981125000002,"instrument":11,"program":21},{"pitch":62,"velocity":110,"startTime":214.891333,"endTime":214.9932351875,"instrument":11,"program":21},{"pitch":62,"velocity":99,"startTime":215.05437650000002,"endTime":215.15627868750002,"instrument":11,"program":21},{"pitch":67,"velocity":110,"startTime":215.21741999999998,"endTime":215.32611566666668,"instrument":11,"program":21},{"pitch":67,"velocity":84,"startTime":215.3804635,"endTime":215.48915916666667,"instrument":11,"program":21},{"pitch":67,"velocity":84,"startTime":215.543507,"endTime":215.6454091875,"instrument":11,"program":21},{"pitch":67,"velocity":84,"startTime":215.70655050000002,"endTime":215.80845268750002,"instrument":11,"program":21},{"pitch":69,"velocity":110,"startTime":215.86959399999998,"endTime":215.97828966666668,"instrument":11,"program":21},{"pitch":69,"velocity":84,"startTime":216.0326375,"endTime":216.1345396875,"instrument":11,"program":21},{"pitch":69,"velocity":99,"startTime":216.195681,"endTime":216.2975831875,"instrument":11,"program":21},{"pitch":69,"velocity":99,"startTime":216.35872450000002,"endTime":216.4674201666667,"instrument":11,"program":21},{"pitch":70,"velocity":110,"startTime":216.52176799999998,"endTime":216.61687670833334,"instrument":11,"program":21},{"pitch":70,"velocity":110,"startTime":216.6848115,"endTime":216.76633325,"instrument":11,"program":21},{"pitch":70,"velocity":110,"startTime":216.847855,"endTime":216.9429637083333,"instrument":11,"program":21},{"pitch":70,"velocity":110,"startTime":217.01089850000002,"endTime":217.10600720833332,"instrument":11,"program":21},{"pitch":69,"velocity":99,"startTime":217.173942,"endTime":217.2894311458333,"instrument":11,"program":21},{"pitch":69,"velocity":84,"startTime":217.3369855,"endTime":217.4320942083333,"instrument":11,"program":21},{"pitch":69,"velocity":84,"startTime":217.500029,"endTime":217.6087246666667,"instrument":11,"program":21},{"pitch":69,"velocity":84,"startTime":217.6630725,"endTime":217.75818120833333,"instrument":11,"program":21},{"pitch":67,"velocity":110,"startTime":217.826116,"endTime":217.93481166666666,"instrument":11,"program":21},{"pitch":67,"velocity":84,"startTime":217.9891595,"endTime":218.0842682083333,"instrument":11,"program":21},{"pitch":67,"velocity":99,"startTime":218.152203,"endTime":218.2473117083333,"instrument":11,"program":21},{"pitch":67,"velocity":75,"startTime":218.3152465,"endTime":218.4239421666667,"instrument":11,"program":21},{"pitch":66,"velocity":110,"startTime":218.47829000000002,"endTime":218.57339870833334,"instrument":11,"program":21},{"pitch":66,"velocity":110,"startTime":218.6413335,"endTime":218.72964872916668,"instrument":11,"program":21},{"pitch":66,"velocity":110,"startTime":218.804377,"endTime":218.89269222916667,"instrument":11,"program":21},{"pitch":66,"velocity":110,"startTime":218.9674205,"endTime":219.06252920833333,"instrument":11,"program":21},{"pitch":69,"velocity":110,"startTime":219.13046400000002,"endTime":219.2595401041667,"instrument":11,"program":21},{"pitch":69,"velocity":84,"startTime":219.29350749999998,"endTime":219.3818227291667,"instrument":11,"program":21},{"pitch":69,"velocity":110,"startTime":219.456551,"endTime":219.57204014583334,"instrument":11,"program":21},{"pitch":69,"velocity":75,"startTime":219.6195945,"endTime":219.7214966875,"instrument":11,"program":21},{"pitch":66,"velocity":110,"startTime":219.78263800000002,"endTime":219.8981271458333,"instrument":11,"program":21},{"pitch":66,"velocity":110,"startTime":219.94568149999998,"endTime":220.0339967291667,"instrument":11,"program":21},{"pitch":66,"velocity":110,"startTime":220.108725,"endTime":220.20383370833332,"instrument":11,"program":21},{"pitch":66,"velocity":110,"startTime":220.2717685,"endTime":220.312529375,"instrument":11,"program":21},{"pitch":62,"velocity":110,"startTime":220.43481200000002,"endTime":220.557094625,"instrument":11,"program":21},{"pitch":62,"velocity":75,"startTime":220.59785549999998,"endTime":220.69296420833334,"instrument":11,"program":21},{"pitch":62,"velocity":99,"startTime":220.760899,"endTime":220.87638814583332,"instrument":11,"program":21},{"pitch":62,"velocity":84,"startTime":220.9239425,"endTime":221.0190512083333,"instrument":11,"program":21},{"pitch":60,"velocity":99,"startTime":221.08698600000002,"endTime":221.20247514583332,"instrument":11,"program":21},{"pitch":60,"velocity":84,"startTime":221.25002949999998,"endTime":221.35193168749998,"instrument":11,"program":21},{"pitch":60,"velocity":99,"startTime":221.413073,"endTime":221.5149751875,"instrument":11,"program":21},{"pitch":60,"velocity":75,"startTime":221.5761165,"endTime":221.6712252083333,"instrument":11,"program":21},{"pitch":57,"velocity":99,"startTime":221.73916,"endTime":221.85464914583332,"instrument":11,"program":21},{"pitch":57,"velocity":75,"startTime":221.9022035,"endTime":221.99731220833334,"instrument":11,"program":21},{"pitch":57,"velocity":84,"startTime":222.065247,"endTime":222.17394266666668,"instrument":11,"program":21},{"pitch":57,"velocity":75,"startTime":222.2282905,"endTime":222.3233992083333,"instrument":11,"program":21},{"pitch":54,"velocity":110,"startTime":222.391334,"endTime":222.5000296666667,"instrument":11,"program":21},{"pitch":54,"velocity":110,"startTime":222.55437750000002,"endTime":222.64948620833334,"instrument":11,"program":21},{"pitch":54,"velocity":75,"startTime":222.717421,"endTime":222.8464971041667,"instrument":11,"program":21},{"pitch":54,"velocity":99,"startTime":222.8804645,"endTime":222.9891601666667,"instrument":11,"program":21},{"pitch":50,"velocity":110,"startTime":223.043508,"endTime":223.17258410416667,"instrument":11,"program":21},{"pitch":50,"velocity":75,"startTime":223.20655150000002,"endTime":223.30166020833335,"instrument":11,"program":21},{"pitch":50,"velocity":84,"startTime":223.369595,"endTime":223.48508414583333,"instrument":11,"program":21},{"pitch":50,"velocity":75,"startTime":223.5326385,"endTime":223.62774720833332,"instrument":11,"program":21},{"pitch":54,"velocity":110,"startTime":223.695682,"endTime":223.7975841875,"instrument":11,"program":21},{"pitch":54,"velocity":99,"startTime":223.85872550000002,"endTime":223.93345377083332,"instrument":11,"program":21},{"pitch":54,"velocity":110,"startTime":224.02176899999998,"endTime":224.1168777083333,"instrument":11,"program":21},{"pitch":54,"velocity":110,"startTime":224.1848125,"endTime":224.27312772916667,"instrument":11,"program":21},{"pitch":55,"velocity":110,"startTime":224.347856,"endTime":224.47693210416668,"instrument":11,"program":21},{"pitch":55,"velocity":84,"startTime":224.51089950000002,"endTime":224.60600820833332,"instrument":11,"program":21},{"pitch":55,"velocity":110,"startTime":224.67394299999998,"endTime":224.78943214583333,"instrument":11,"program":21},{"pitch":55,"velocity":84,"startTime":224.8369865,"endTime":224.92530172916668,"instrument":11,"program":21},{"pitch":50,"velocity":99,"startTime":225.00003,"endTime":225.1019321875,"instrument":11,"program":21},{"pitch":50,"velocity":84,"startTime":225.16307350000002,"endTime":225.26497568750003,"instrument":11,"program":21},{"pitch":50,"velocity":84,"startTime":225.32611699999998,"endTime":225.44160614583333,"instrument":11,"program":21},{"pitch":50,"velocity":75,"startTime":225.4891605,"endTime":225.60464964583332,"instrument":11,"program":21},{"pitch":58,"velocity":110,"startTime":225.652204,"endTime":225.74051922916667,"instrument":11,"program":21},{"pitch":58,"velocity":110,"startTime":225.81524750000003,"endTime":225.87638881249998,"instrument":11,"program":21},{"pitch":58,"velocity":110,"startTime":225.97829099999998,"endTime":226.07339970833334,"instrument":11,"program":21},{"pitch":58,"velocity":99,"startTime":226.1413345,"endTime":226.1956823333333,"instrument":11,"program":21},{"pitch":55,"velocity":99,"startTime":226.304378,"endTime":226.41986714583334,"instrument":11,"program":21},{"pitch":55,"velocity":84,"startTime":226.4674215,"endTime":226.55573672916668,"instrument":11,"program":21},{"pitch":55,"velocity":110,"startTime":226.630465,"endTime":226.72557370833334,"instrument":11,"program":21},{"pitch":55,"velocity":75,"startTime":226.7935085,"endTime":226.8886172083333,"instrument":11,"program":21},{"pitch":62,"velocity":99,"startTime":226.95655200000002,"endTime":227.04486722916667,"instrument":11,"program":21},{"pitch":62,"velocity":99,"startTime":227.1195955,"endTime":227.20791072916668,"instrument":11,"program":21},{"pitch":62,"velocity":99,"startTime":227.28263900000002,"endTime":227.39133466666667,"instrument":11,"program":21},{"pitch":62,"velocity":75,"startTime":227.4456825,"endTime":227.53399772916669,"instrument":11,"program":21},{"pitch":58,"velocity":110,"startTime":227.608726,"endTime":227.69704122916667,"instrument":11,"program":21},{"pitch":58,"velocity":110,"startTime":227.7717695,"endTime":227.8464977708333,"instrument":11,"program":21},{"pitch":58,"velocity":110,"startTime":227.93481300000002,"endTime":228.0231282291667,"instrument":11,"program":21},{"pitch":58,"velocity":110,"startTime":228.09785649999998,"endTime":228.17258477083334,"instrument":11,"program":21},{"pitch":62,"velocity":99,"startTime":228.2609,"endTime":228.3695956666667,"instrument":11,"program":21},{"pitch":62,"velocity":100,"startTime":228.4239435,"endTime":228.54622612499998,"instrument":11,"program":21},{"pitch":62,"velocity":96,"startTime":228.58698700000002,"endTime":228.68209570833332,"instrument":11,"program":21},{"pitch":62,"velocity":104,"startTime":228.75003049999998,"endTime":228.872313125,"instrument":11,"program":21},{"pitch":59,"velocity":99,"startTime":228.913074,"endTime":229.03535662500002,"instrument":11,"program":21},{"pitch":59,"velocity":84,"startTime":229.0761175,"endTime":229.17122620833334,"instrument":11,"program":21},{"pitch":59,"velocity":99,"startTime":229.23916100000002,"endTime":229.34106318750003,"instrument":11,"program":21},{"pitch":59,"velocity":99,"startTime":229.40220449999998,"endTime":229.50410668749998,"instrument":11,"program":21},{"pitch":60,"velocity":110,"startTime":229.565248,"endTime":229.67394366666667,"instrument":11,"program":21},{"pitch":60,"velocity":75,"startTime":229.7282915,"endTime":229.8234002083333,"instrument":11,"program":21},{"pitch":60,"velocity":84,"startTime":229.89133500000003,"endTime":229.99323718750003,"instrument":11,"program":21},{"pitch":60,"velocity":84,"startTime":230.05437849999998,"endTime":230.1494872083333,"instrument":11,"program":21},{"pitch":63,"velocity":110,"startTime":230.217422,"endTime":230.29894375,"instrument":11,"program":21},{"pitch":63,"velocity":110,"startTime":230.3804655,"endTime":230.4484002916667,"instrument":11,"program":21},{"pitch":63,"velocity":110,"startTime":230.543509,"endTime":230.63861770833333,"instrument":11,"program":21},{"pitch":63,"velocity":110,"startTime":230.7065525,"endTime":230.7948677291667,"instrument":11,"program":21},{"pitch":67,"velocity":99,"startTime":230.869596,"endTime":230.97829166666668,"instrument":11,"program":21},{"pitch":67,"velocity":75,"startTime":231.03263950000002,"endTime":231.12095472916667,"instrument":11,"program":21},{"pitch":67,"velocity":99,"startTime":231.195683,"endTime":231.317965625,"instrument":11,"program":21},{"pitch":67,"velocity":84,"startTime":231.3587265,"endTime":231.4470417291667,"instrument":11,"program":21},{"pitch":66,"velocity":110,"startTime":231.52177,"endTime":231.6168787083333,"instrument":11,"program":21},{"pitch":66,"velocity":110,"startTime":231.6848135,"endTime":231.76633525,"instrument":11,"program":21},{"pitch":66,"velocity":110,"startTime":231.847857,"endTime":231.94296570833333,"instrument":11,"program":21},{"pitch":66,"velocity":110,"startTime":232.0109005,"endTime":232.10600920833335,"instrument":11,"program":21},{"pitch":67,"velocity":75,"startTime":232.173944,"endTime":232.3030201041667,"instrument":11,"program":21},{"pitch":67,"velocity":75,"startTime":232.3369875,"endTime":232.41850925,"instrument":11,"program":21},{"pitch":67,"velocity":99,"startTime":232.500031,"endTime":232.6155201458333,"instrument":11,"program":21},{"pitch":67,"velocity":84,"startTime":232.66307450000002,"endTime":232.75818320833335,"instrument":11,"program":21},{"pitch":69,"velocity":99,"startTime":232.82611799999998,"endTime":232.93481366666668,"instrument":11,"program":21},{"pitch":69,"velocity":84,"startTime":232.9891615,"endTime":233.0910636875,"instrument":11,"program":21},{"pitch":69,"velocity":84,"startTime":233.152205,"endTime":233.2676941458333,"instrument":11,"program":21},{"pitch":69,"velocity":99,"startTime":233.31524850000002,"endTime":233.40356372916668,"instrument":11,"program":21},{"pitch":70,"velocity":110,"startTime":233.47829199999998,"endTime":233.5666072291667,"instrument":11,"program":21},{"pitch":70,"velocity":110,"startTime":233.6413355,"endTime":233.70927029166668,"instrument":11,"program":21},{"pitch":70,"velocity":110,"startTime":233.804379,"endTime":233.89948770833334,"instrument":11,"program":21},{"pitch":70,"velocity":110,"startTime":233.96742250000003,"endTime":234.05573772916668,"instrument":11,"program":21},{"pitch":69,"velocity":110,"startTime":234.13046599999998,"endTime":234.23916166666666,"instrument":11,"program":21},{"pitch":69,"velocity":84,"startTime":234.2935095,"endTime":234.3954116875,"instrument":11,"program":21},{"pitch":69,"velocity":84,"startTime":234.456553,"endTime":234.5652486666667,"instrument":11,"program":21},{"pitch":69,"velocity":84,"startTime":234.61959650000003,"endTime":234.72829216666668,"instrument":11,"program":21},{"pitch":67,"velocity":99,"startTime":234.78264,"endTime":234.904922625,"instrument":11,"program":21},{"pitch":67,"velocity":84,"startTime":234.9456835,"endTime":235.0475856875,"instrument":11,"program":21},{"pitch":67,"velocity":84,"startTime":235.10872700000002,"endTime":235.19704222916667,"instrument":11,"program":21},{"pitch":67,"velocity":67,"startTime":235.2717705,"endTime":235.36687920833333,"instrument":11,"program":21},{"pitch":66,"velocity":110,"startTime":235.434814,"endTime":235.52992270833334,"instrument":11,"program":21},{"pitch":66,"velocity":110,"startTime":235.5978575,"endTime":235.68617272916666,"instrument":11,"program":21},{"pitch":66,"velocity":110,"startTime":235.76090100000002,"endTime":235.86280318750002,"instrument":11,"program":21},{"pitch":66,"velocity":110,"startTime":235.9239445,"endTime":235.9986727708333,"instrument":11,"program":21},{"pitch":65,"velocity":110,"startTime":236.086988,"endTime":236.1888901875,"instrument":11,"program":21},{"pitch":65,"velocity":84,"startTime":236.2500315,"endTime":236.3519336875,"instrument":11,"program":21},{"pitch":65,"velocity":99,"startTime":236.413075,"endTime":236.52856414583334,"instrument":11,"program":21},{"pitch":65,"velocity":84,"startTime":236.5761185,"endTime":236.67122720833333,"instrument":11,"program":21},{"pitch":64,"velocity":110,"startTime":236.739162,"endTime":236.85465114583332,"instrument":11,"program":21},{"pitch":64,"velocity":75,"startTime":236.9022055,"endTime":237.01090116666668,"instrument":11,"program":21},{"pitch":64,"velocity":84,"startTime":237.065249,"endTime":237.1739446666667,"instrument":11,"program":21},{"pitch":64,"velocity":75,"startTime":237.2282925,"endTime":237.3301946875,"instrument":11,"program":21},{"pitch":63,"velocity":110,"startTime":237.39133600000002,"endTime":237.50682514583332,"instrument":11,"program":21},{"pitch":63,"velocity":110,"startTime":237.55437949999998,"endTime":237.6426947291667,"instrument":11,"program":21},{"pitch":63,"velocity":110,"startTime":237.717423,"endTime":237.8193251875,"instrument":11,"program":21},{"pitch":63,"velocity":110,"startTime":237.8804665,"endTime":237.95519477083332,"instrument":11,"program":21},{"pitch":62,"velocity":110,"startTime":238.04351000000003,"endTime":238.15220566666667,"instrument":11,"program":21},{"pitch":62,"velocity":84,"startTime":238.20655349999998,"endTime":238.3016622083333,"instrument":11,"program":21},{"pitch":62,"velocity":84,"startTime":238.369597,"endTime":238.4714991875,"instrument":11,"program":21},{"pitch":62,"velocity":75,"startTime":238.5326405,"endTime":238.6413361666667,"instrument":11,"program":21},{"pitch":61,"velocity":110,"startTime":238.69568400000003,"endTime":238.79758618750003,"instrument":11,"program":21},{"pitch":61,"velocity":110,"startTime":238.8587275,"endTime":238.94024925000002,"instrument":11,"program":21},{"pitch":61,"velocity":110,"startTime":239.021771,"endTime":239.11687970833333,"instrument":11,"program":21},{"pitch":61,"velocity":110,"startTime":239.18481450000002,"endTime":239.27992320833332,"instrument":11,"program":21},{"pitch":62,"velocity":99,"startTime":239.34785800000003,"endTime":239.47693410416667,"instrument":11,"program":21},{"pitch":62,"velocity":75,"startTime":239.5109015,"endTime":239.60601020833332,"instrument":11,"program":21},{"pitch":62,"velocity":99,"startTime":239.673945,"endTime":239.7690537083333,"instrument":11,"program":21},{"pitch":62,"velocity":84,"startTime":239.83698850000002,"endTime":239.93209720833332,"instrument":11,"program":21},{"pitch":63,"velocity":110,"startTime":240.000032,"endTime":240.0883472291667,"instrument":11,"program":21},{"pitch":63,"velocity":110,"startTime":240.1630755,"endTime":240.2513907291667,"instrument":11,"program":21},{"pitch":63,"velocity":110,"startTime":240.326119,"endTime":240.4280211875,"instrument":11,"program":21},{"pitch":63,"velocity":110,"startTime":240.4891625,"endTime":240.5503038125,"instrument":11,"program":21},{"pitch":62,"velocity":99,"startTime":240.652206,"endTime":240.7676951458333,"instrument":11,"program":21},{"pitch":62,"velocity":84,"startTime":240.8152495,"endTime":240.9171516875,"instrument":11,"program":21},{"pitch":62,"velocity":84,"startTime":240.978293,"endTime":241.09378214583333,"instrument":11,"program":21},{"pitch":62,"velocity":75,"startTime":241.1413365,"endTime":241.2500321666667,"instrument":11,"program":21},{"pitch":60,"velocity":99,"startTime":241.30438,"endTime":241.4198691458333,"instrument":11,"program":21},{"pitch":60,"velocity":75,"startTime":241.4674235,"endTime":241.56253220833335,"instrument":11,"program":21},{"pitch":60,"velocity":99,"startTime":241.63046699999998,"endTime":241.752749625,"instrument":11,"program":21},{"pitch":60,"velocity":75,"startTime":241.7935105,"endTime":241.88861920833332,"instrument":11,"program":21},{"pitch":57,"velocity":84,"startTime":241.956554,"endTime":242.0652496666667,"instrument":11,"program":21},{"pitch":57,"velocity":65,"startTime":242.1195975,"endTime":242.2214996875,"instrument":11,"program":21},{"pitch":57,"velocity":99,"startTime":242.28264099999998,"endTime":242.39813014583333,"instrument":11,"program":21},{"pitch":57,"velocity":75,"startTime":242.4456845,"endTime":242.54079320833333,"instrument":11,"program":21},{"pitch":54,"velocity":110,"startTime":242.608728,"endTime":242.70383670833334,"instrument":11,"program":21},{"pitch":54,"velocity":110,"startTime":242.77177150000003,"endTime":242.86688020833333,"instrument":11,"program":21},{"pitch":54,"velocity":110,"startTime":242.934815,"endTime":243.0367171875,"instrument":11,"program":21},{"pitch":54,"velocity":110,"startTime":243.0978585,"endTime":243.1657932916667,"instrument":11,"program":21},{"pitch":50,"velocity":110,"startTime":243.26090200000002,"endTime":243.36280418750002,"instrument":11,"program":21},{"pitch":50,"velocity":75,"startTime":243.42394550000003,"endTime":243.51226072916668,"instrument":11,"program":21},{"pitch":50,"velocity":99,"startTime":243.586989,"endTime":243.69568466666666,"instrument":11,"program":21},{"pitch":50,"velocity":75,"startTime":243.7500325,"endTime":243.8519346875,"instrument":11,"program":21},{"pitch":54,"velocity":110,"startTime":243.91307600000002,"endTime":244.01497818750002,"instrument":11,"program":21},{"pitch":54,"velocity":99,"startTime":244.0761195,"endTime":244.14405429166666,"instrument":11,"program":21},{"pitch":54,"velocity":110,"startTime":244.239163,"endTime":244.3410651875,"instrument":11,"program":21},{"pitch":54,"velocity":99,"startTime":244.4022065,"endTime":244.51090216666668,"instrument":11,"program":21},{"pitch":57,"velocity":40,"startTime":244.56525000000002,"endTime":244.66715218750002,"instrument":11,"program":21},{"pitch":57,"velocity":60,"startTime":244.7282935,"endTime":244.80981525,"instrument":11,"program":21},{"pitch":57,"velocity":84,"startTime":244.891337,"endTime":244.9932391875,"instrument":11,"program":21},{"pitch":57,"velocity":75,"startTime":245.0543805,"endTime":245.1494892083333,"instrument":11,"program":21},{"pitch":55,"velocity":99,"startTime":245.217424,"endTime":245.2853587916667,"instrument":11,"program":21},{"pitch":75,"velocity":110,"startTime":245.3804675,"endTime":245.4823696875,"instrument":11,"program":21},{"pitch":74,"velocity":110,"startTime":245.543511,"endTime":245.6725871041667,"instrument":11,"program":21},{"pitch":72,"velocity":75,"startTime":245.7065545,"endTime":245.82204364583333,"instrument":11,"program":21},{"pitch":70,"velocity":110,"startTime":245.869598,"endTime":245.9782936666667,"instrument":11,"program":21},{"pitch":69,"velocity":99,"startTime":246.0326415,"endTime":246.1345436875,"instrument":11,"program":21},{"pitch":67,"velocity":99,"startTime":246.195685,"endTime":246.31117414583332,"instrument":11,"program":21},{"pitch":66,"velocity":110,"startTime":246.35872849999998,"endTime":246.4945980833333,"instrument":11,"program":21},{"pitch":63,"velocity":110,"startTime":246.521772,"endTime":246.6644350625,"instrument":11,"program":21},{"pitch":62,"velocity":99,"startTime":246.6848155,"endTime":246.80709812499998,"instrument":11,"program":21},{"pitch":60,"velocity":75,"startTime":246.847859,"endTime":246.96334814583332,"instrument":11,"program":21},{"pitch":58,"velocity":110,"startTime":247.0109025,"endTime":247.133185125,"instrument":11,"program":21},{"pitch":57,"velocity":99,"startTime":247.173946,"endTime":247.28943514583332,"instrument":11,"program":21},{"pitch":55,"velocity":75,"startTime":247.33698950000002,"endTime":247.45927212499998,"instrument":11,"program":21},{"pitch":54,"velocity":110,"startTime":247.50003299999997,"endTime":247.61552214583332,"instrument":11,"program":21},{"pitch":57,"velocity":99,"startTime":247.6630765,"endTime":247.7921526041667,"instrument":11,"program":21},{"pitch":55,"velocity":84,"startTime":247.82612,"endTime":247.93481566666668,"instrument":11,"program":21},{"pitch":62,"velocity":110,"startTime":248.111446125,"endTime":249.0217723333333,"instrument":11,"program":21},{"pitch":60,"velocity":75,"startTime":248.4443266041667,"endTime":249.04215277083333,"instrument":11,"program":21},{"pitch":66,"velocity":110,"startTime":248.45112008333334,"endTime":249.0217723333333,"instrument":11,"program":21},{"pitch":67,"velocity":65,"startTime":249.03535929166668,"endTime":249.252750625,"instrument":11,"program":21},{"pitch":62,"velocity":99,"startTime":249.0557397291667,"endTime":249.24595714583333,"instrument":11,"program":21},{"pitch":58,"velocity":110,"startTime":249.06253320833332,"endTime":249.24595714583333,"instrument":11,"program":21}],"totalTime":249.5584571875,"sourceInfo":{"encodingType":"MIDI","parser":"TONEJS_MIDI_CONVERT"}},"sequence":{"filename":"cumparsita_tango__sunflower__remix.mid","ticksPerQuarter":192,"timeSignatures":[{"numerator":4,"denominator":4}],"tempos":[{"qpm":91.99998773333498}],"notes":[{"pitch":35,"velocity":102,"endTime":0.16304349999999998,"isDrum":true},{"pitch":42,"velocity":102,"endTime":0.16304349999999998,"isDrum":true},{"pitch":42,"velocity":102,"startTime":0.32608699999999996,"endTime":0.48913049999999997,"isDrum":true},{"pitch":40,"velocity":102,"startTime":0.6521739999999999,"endTime":0.8152174999999999,"isDrum":true},{"pitch":42,"velocity":102,"startTime":0.6521739999999999,"endTime":0.8152174999999999,"isDrum":true},{"pitch":42,"velocity":102,"startTime":0.9782609999999999,"endTime":1.1413045,"isDrum":true},{"pitch":35,"velocity":102,"startTime":1.3043479999999998,"endTime":1.4673915,"isDrum":true},{"pitch":42,"velocity":102,"startTime":1.3043479999999998,"endTime":1.4673915,"isDrum":true},{"pitch":42,"velocity":102,"startTime":1.6304349999999999,"endTime":1.7934785,"isDrum":true},{"pitch":40,"velocity":102,"startTime":1.9565219999999999,"endTime":2.1195654999999998,"isDrum":true},{"pitch":42,"velocity":102,"startTime":1.9565219999999999,"endTime":2.1195654999999998,"isDrum":true},{"pitch":42,"velocity":102,"startTime":2.282609,"endTime":2.4456525,"isDrum":true},{"pitch":35,"velocity":102,"startTime":2.6086959999999997,"endTime":2.7717395,"isDrum":true},{"pitch":42,"velocity":102,"startTime":2.6086959999999997,"endTime":2.7717395,"isDrum":true},{"pitch":42,"velocity":102,"startTime":2.934783,"endTime":3.0978264999999996,"isDrum":true},{"pitch":40,"velocity":102,"startTime":3.2608699999999997,"endTime":3.4239135,"isDrum":true},{"pitch":42,"velocity":102,"startTime":3.2608699999999997,"endTime":3.4239135,"isDrum":true},{"pitch":42,"velocity":102,"startTime":3.586957,"endTime":3.7500004999999996,"isDrum":true},{"pitch":35,"velocity":102,"startTime":3.9130439999999997,"endTime":4.0760875,"isDrum":true},{"pitch":42,"velocity":102,"startTime":3.9130439999999997,"endTime":4.0760875,"isDrum":true},{"pitch":42,"velocity":102,"startTime":4.2391309999999995,"endTime":4.4021745,"isDrum":true},{"pitch":40,"velocity":102,"startTime":4.565218,"endTime":4.7282614999999995,"isDrum":true},{"pitch":42,"velocity":102,"startTime":4.565218,"endTime":4.7282614999999995,"isDrum":true},{"pitch":42,"velocity":102,"startTime":4.891305,"endTime":5.0543485,"isDrum":true},{"pitch":35,"velocity":102,"startTime":5.217391999999999,"endTime":5.3804355,"isDrum":true},{"pitch":42,"velocity":102,"startTime":5.217391999999999,"endTime":5.3804355,"isDrum":true},{"pitch":42,"velocity":102,"startTime":5.543479,"endTime":5.706522499999999,"isDrum":true},{"pitch":40,"velocity":102,"startTime":5.869566,"endTime":6.0326094999999995,"isDrum":true},{"pitch":42,"velocity":102,"startTime":5.869566,"endTime":6.0326094999999995,"isDrum":true},{"pitch":42,"velocity":102,"startTime":6.195652999999999,"endTime":6.3586965,"isDrum":true},{"pitch":35,"velocity":102,"startTime":6.521739999999999,"endTime":6.684783499999999,"isDrum":true},{"pitch":42,"velocity":102,"startTime":6.521739999999999,"endTime":6.684783499999999,"isDrum":true},{"pitch":42,"velocity":102,"startTime":6.847827,"endTime":7.010870499999999,"isDrum":true},{"pitch":40,"velocity":102,"startTime":7.173914,"endTime":7.3369575,"isDrum":true},{"pitch":42,"velocity":102,"startTime":7.173914,"endTime":7.3369575,"isDrum":true},{"pitch":42,"velocity":102,"startTime":7.500000999999999,"endTime":7.6630445,"isDrum":true},{"pitch":35,"velocity":102,"startTime":7.8260879999999995,"endTime":7.989131499999999,"isDrum":true},{"pitch":42,"velocity":102,"startTime":7.8260879999999995,"endTime":7.989131499999999,"isDrum":true},{"pitch":42,"velocity":102,"startTime":8.152175,"endTime":8.315218499999999,"isDrum":true},{"pitch":40,"velocity":102,"startTime":8.478261999999999,"endTime":8.6413055,"isDrum":true},{"pitch":42,"velocity":102,"startTime":8.478261999999999,"endTime":8.6413055,"isDrum":true},{"pitch":42,"velocity":102,"startTime":8.804349,"endTime":8.967392499999999,"isDrum":true},{"pitch":51,"velocity":102,"startTime":8.804349,"endTime":8.967392499999999,"isDrum":true},{"pitch":35,"velocity":102,"startTime":9.130436,"endTime":9.2934795,"isDrum":true},{"pitch":42,"velocity":102,"startTime":9.130436,"endTime":9.2934795,"isDrum":true},{"pitch":42,"velocity":102,"startTime":9.456522999999999,"endTime":9.6195665,"isDrum":true},{"pitch":40,"velocity":102,"startTime":9.78261,"endTime":9.945653499999999,"isDrum":true},{"pitch":42,"velocity":102,"startTime":9.78261,"endTime":9.945653499999999,"isDrum":true},{"pitch":42,"velocity":102,"startTime":10.108697,"endTime":10.2717405,"isDrum":true},{"pitch":35,"velocity":102,"startTime":10.434783999999999,"endTime":10.5978275,"isDrum":true},{"pitch":42,"velocity":102,"startTime":10.434783999999999,"endTime":10.5978275,"isDrum":true},{"pitch":42,"velocity":102,"startTime":10.760871,"endTime":10.923914499999999,"isDrum":true},{"pitch":40,"velocity":102,"startTime":11.086958,"endTime":11.2500015,"isDrum":true},{"pitch":42,"velocity":102,"startTime":11.086958,"endTime":11.2500015,"isDrum":true},{"pitch":42,"velocity":102,"startTime":11.413044999999999,"endTime":11.5760885,"isDrum":true},{"pitch":35,"velocity":102,"startTime":11.739132,"endTime":11.902175499999998,"isDrum":true},{"pitch":42,"velocity":102,"startTime":11.739132,"endTime":11.902175499999998,"isDrum":true},{"pitch":42,"velocity":102,"startTime":12.065218999999999,"endTime":12.2282625,"isDrum":true},{"pitch":40,"velocity":102,"startTime":12.391305999999998,"endTime":12.554349499999999,"isDrum":true},{"pitch":42,"velocity":102,"startTime":12.391305999999998,"endTime":12.554349499999999,"isDrum":true},{"pitch":42,"velocity":102,"startTime":12.717393,"endTime":12.880436499999998,"isDrum":true},{"pitch":35,"velocity":102,"startTime":13.043479999999999,"endTime":13.2065235,"isDrum":true},{"pitch":42,"velocity":102,"startTime":13.043479999999999,"endTime":13.2065235,"isDrum":true},{"pitch":42,"velocity":102,"startTime":13.369566999999998,"endTime":13.532610499999999,"isDrum":true},{"pitch":40,"velocity":102,"startTime":13.695654,"endTime":13.858697499999998,"isDrum":true},{"pitch":42,"velocity":102,"startTime":13.695654,"endTime":13.858697499999998,"isDrum":true},{"pitch":42,"velocity":102,"startTime":14.021740999999999,"endTime":14.1847845,"isDrum":true},{"pitch":35,"velocity":102,"startTime":14.347828,"endTime":14.510871499999999,"isDrum":true},{"pitch":42,"velocity":102,"startTime":14.347828,"endTime":14.510871499999999,"isDrum":true},{"pitch":42,"velocity":102,"startTime":14.673915,"endTime":14.8369585,"isDrum":true},{"pitch":40,"velocity":102,"startTime":15.000001999999999,"endTime":15.163045499999999,"isDrum":true},{"pitch":42,"velocity":102,"startTime":15.000001999999999,"endTime":15.163045499999999,"isDrum":true},{"pitch":42,"velocity":102,"startTime":15.326089,"endTime":15.489132499999998,"isDrum":true},{"pitch":35,"velocity":102,"startTime":15.652175999999999,"endTime":15.8152195,"isDrum":true},{"pitch":42,"velocity":102,"startTime":15.652175999999999,"endTime":15.8152195,"isDrum":true},{"pitch":42,"velocity":102,"startTime":15.978262999999998,"endTime":16.1413065,"isDrum":true},{"pitch":40,"velocity":102,"startTime":16.30435,"endTime":16.4673935,"isDrum":true},{"pitch":42,"velocity":102,"startTime":16.30435,"endTime":16.4673935,"isDrum":true},{"pitch":42,"velocity":102,"startTime":16.630436999999997,"endTime":16.793480499999998,"isDrum":true},{"pitch":35,"velocity":102,"startTime":16.956523999999998,"endTime":17.1195675,"isDrum":true},{"pitch":42,"velocity":102,"startTime":16.956523999999998,"endTime":17.1195675,"isDrum":true},{"pitch":42,"velocity":102,"startTime":17.282611,"endTime":17.4456545,"isDrum":true},{"pitch":40,"velocity":102,"startTime":17.608698,"endTime":17.771741499999997,"isDrum":true},{"pitch":42,"velocity":102,"startTime":17.608698,"endTime":17.771741499999997,"isDrum":true},{"pitch":42,"velocity":102,"startTime":17.934784999999998,"endTime":18.0978285,"isDrum":true},{"pitch":35,"velocity":102,"startTime":18.260872,"endTime":18.4239155,"isDrum":true},{"pitch":42,"velocity":102,"startTime":18.260872,"endTime":18.4239155,"isDrum":true},{"pitch":42,"velocity":102,"startTime":18.586959,"endTime":18.750002499999997,"isDrum":true},{"pitch":40,"velocity":102,"startTime":18.913045999999998,"endTime":19.0760895,"isDrum":true},{"pitch":42,"velocity":102,"startTime":18.913045999999998,"endTime":19.0760895,"isDrum":true},{"pitch":42,"velocity":102,"startTime":19.239133,"endTime":19.4021765,"isDrum":true},{"pitch":51,"velocity":102,"startTime":19.239133,"endTime":19.4021765,"isDrum":true},{"pitch":35,"velocity":102,"startTime":19.4021765,"endTime":19.56522,"isDrum":true},{"pitch":35,"velocity":102,"startTime":19.56522,"endTime":19.728263499999997,"isDrum":true},{"pitch":42,"velocity":102,"startTime":19.56522,"endTime":19.728263499999997,"isDrum":true},{"pitch":42,"velocity":102,"startTime":19.891306999999998,"endTime":20.054350499999998,"isDrum":true},{"pitch":40,"velocity":102,"startTime":20.217394,"endTime":20.3804375,"isDrum":true},{"pitch":42,"velocity":102,"startTime":20.217394,"endTime":20.3804375,"isDrum":true},{"pitch":42,"velocity":102,"startTime":20.543481,"endTime":20.706524499999997,"isDrum":true},{"pitch":58,"velocity":95,"endTime":0.10869566666666666,"instrument":1,"program":12},{"pitch":64,"velocity":95,"startTime":0.16304349999999998,"endTime":0.27173916666666664,"instrument":1,"program":12},{"pitch":69,"velocity":95,"startTime":0.32608699999999996,"endTime":0.3804348333333333,"instrument":1,"program":12},{"pitch":64,"velocity":95,"startTime":0.48913049999999997,"endTime":0.5434783333333333,"instrument":1,"program":12},{"pitch":69,"velocity":95,"startTime":0.6521739999999999,"endTime":0.7608696666666666,"instrument":1,"program":12},{"pitch":69,"velocity":95,"startTime":0.8152174999999999,"endTime":0.9239131666666666,"instrument":1,"program":12},{"pitch":64,"velocity":95,"startTime":0.9782609999999999,"endTime":1.0869566666666663,"instrument":1,"program":12},{"pitch":69,"velocity":95,"startTime":1.1413045,"endTime":1.2500001666666665,"instrument":1,"program":12},{"pitch":64,"velocity":95,"startTime":1.3043479999999998,"endTime":1.4130436666666666,"instrument":1,"program":12},{"pitch":69,"velocity":95,"startTime":1.4673915,"endTime":1.5760871666666665,"instrument":1,"program":12},{"pitch":64,"velocity":95,"startTime":1.6304349999999999,"endTime":1.7391306666666666,"instrument":1,"program":12},{"pitch":70,"velocity":95,"startTime":1.7934785,"endTime":1.8478263333333331,"instrument":1,"program":12},{"pitch":76,"velocity":95,"startTime":1.9565219999999999,"endTime":2.0652176666666664,"instrument":1,"program":12},{"pitch":69,"velocity":95,"startTime":2.1195654999999998,"endTime":2.2282611666666665,"instrument":1,"program":12},{"pitch":69,"velocity":95,"startTime":2.282609,"endTime":2.3913046666666666,"instrument":1,"program":12},{"pitch":72,"velocity":95,"startTime":2.4456525,"endTime":2.5543481666666663,"instrument":1,"program":12},{"pitch":62,"velocity":95,"startTime":2.6086959999999997,"endTime":2.717391666666667,"instrument":1,"program":12},{"pitch":69,"velocity":95,"startTime":2.7717395,"endTime":2.8804351666666665,"instrument":1,"program":12},{"pitch":72,"velocity":95,"startTime":2.934783,"endTime":3.043478666666666,"instrument":1,"program":12},{"pitch":69,"velocity":95,"startTime":3.0978264999999996,"endTime":3.2065221666666663,"instrument":1,"program":12},{"pitch":72,"velocity":95,"startTime":3.2608699999999997,"endTime":3.3695656666666665,"instrument":1,"program":12},{"pitch":69,"velocity":95,"startTime":3.4239135,"endTime":3.5326091666666666,"instrument":1,"program":12},{"pitch":69,"velocity":95,"startTime":3.586957,"endTime":3.6956526666666663,"instrument":1,"program":12},{"pitch":72,"velocity":95,"startTime":3.7500004999999996,"endTime":3.8586961666666664,"instrument":1,"program":12},{"pitch":74,"velocity":95,"startTime":3.9130439999999997,"endTime":4.021739666666666,"instrument":1,"program":12},{"pitch":69,"velocity":95,"startTime":4.0760875,"endTime":4.184783166666667,"instrument":1,"program":12},{"pitch":69,"velocity":95,"startTime":4.2391309999999995,"endTime":4.347826666666666,"instrument":1,"program":12},{"pitch":74,"velocity":95,"startTime":4.4021745,"endTime":4.510870166666666,"instrument":1,"program":12},{"pitch":69,"velocity":95,"startTime":4.565218,"endTime":4.6739136666666665,"instrument":1,"program":12},{"pitch":74,"velocity":95,"startTime":4.7282614999999995,"endTime":4.836957166666666,"instrument":1,"program":12},{"pitch":69,"velocity":95,"startTime":4.891305,"endTime":5.000000666666666,"instrument":1,"program":12},{"pitch":72,"velocity":95,"startTime":5.217391999999999,"endTime":5.326087666666665,"instrument":1,"program":12},{"pitch":69,"velocity":95,"startTime":5.3804355,"endTime":5.489131166666666,"instrument":1,"program":12},{"pitch":74,"velocity":95,"startTime":5.543479,"endTime":5.652174666666666,"instrument":1,"program":12},{"pitch":69,"velocity":95,"startTime":5.706522499999999,"endTime":5.815218166666666,"instrument":1,"program":12},{"pitch":72,"velocity":95,"startTime":5.869566,"endTime":5.978261666666667,"instrument":1,"program":12},{"pitch":69,"velocity":95,"startTime":6.0326094999999995,"endTime":6.141305166666666,"instrument":1,"program":12},{"pitch":74,"velocity":95,"startTime":6.195652999999999,"endTime":6.304348666666666,"instrument":1,"program":12},{"pitch":74,"velocity":95,"startTime":6.3586965,"endTime":6.4673921666666665,"instrument":1,"program":12},{"pitch":69,"velocity":95,"startTime":6.521739999999999,"endTime":6.630435666666666,"instrument":1,"program":12},{"pitch":74,"velocity":95,"startTime":6.684783499999999,"endTime":6.793479166666666,"instrument":1,"program":12},{"pitch":74,"velocity":95,"startTime":6.847827,"endTime":6.956522666666666,"instrument":1,"program":12},{"pitch":69,"velocity":95,"startTime":7.010870499999999,"endTime":7.119566166666666,"instrument":1,"program":12},{"pitch":74,"velocity":95,"startTime":7.173914,"endTime":7.282609666666666,"instrument":1,"program":12},{"pitch":69,"velocity":95,"startTime":7.3369575,"endTime":7.445653166666666,"instrument":1,"program":12},{"pitch":67,"velocity":95,"startTime":7.500000999999999,"endTime":7.608696666666666,"instrument":1,"program":12},{"pitch":62,"velocity":95,"startTime":7.6630445,"endTime":7.771740166666666,"instrument":1,"program":12},{"pitch":74,"velocity":95,"startTime":7.8260879999999995,"endTime":7.934783666666666,"instrument":1,"program":12},{"pitch":67,"velocity":95,"startTime":7.989131499999999,"endTime":8.097827166666667,"instrument":1,"program":12},{"pitch":62,"velocity":95,"startTime":8.152175,"endTime":8.260870666666666,"instrument":1,"program":12},{"pitch":62,"velocity":95,"startTime":8.315218499999999,"endTime":8.423914166666666,"instrument":1,"program":12},{"pitch":67,"velocity":95,"startTime":8.478261999999999,"endTime":8.586957666666667,"instrument":1,"program":12},{"pitch":74,"velocity":95,"startTime":8.6413055,"endTime":8.750001166666665,"instrument":1,"program":12},{"pitch":67,"velocity":95,"startTime":8.804349,"endTime":8.913044666666666,"instrument":1,"program":12},{"pitch":74,"velocity":95,"startTime":8.967392499999999,"endTime":9.076088166666667,"instrument":1,"program":12},{"pitch":79,"velocity":95,"startTime":9.130436,"endTime":9.239131666666665,"instrument":1,"program":12},{"pitch":74,"velocity":95,"startTime":9.2934795,"endTime":9.402175166666666,"instrument":1,"program":12},{"pitch":67,"velocity":95,"startTime":9.456522999999999,"endTime":9.565218666666667,"instrument":1,"program":12},{"pitch":74,"velocity":95,"startTime":9.6195665,"endTime":9.728262166666665,"instrument":1,"program":12},{"pitch":74,"velocity":95,"startTime":9.78261,"endTime":9.891305666666666,"instrument":1,"program":12},{"pitch":74,"velocity":95,"startTime":9.945653499999999,"endTime":10.054349166666666,"instrument":1,"program":12},{"pitch":67,"velocity":95,"startTime":10.108697,"endTime":10.217392666666665,"instrument":1,"program":12},{"pitch":71,"velocity":95,"startTime":10.2717405,"endTime":10.380436166666666,"instrument":1,"program":12},{"pitch":60,"velocity":95,"startTime":10.434783999999999,"endTime":10.543479666666666,"instrument":1,"program":12},{"pitch":69,"velocity":95,"startTime":10.5978275,"endTime":10.706523166666667,"instrument":1,"program":12},{"pitch":69,"velocity":95,"startTime":10.760871,"endTime":10.869566666666667,"instrument":1,"program":12},{"pitch":74,"velocity":95,"startTime":10.923914499999999,"endTime":11.032610166666666,"instrument":1,"program":12},{"pitch":81,"velocity":95,"startTime":11.086958,"endTime":11.195653666666665,"instrument":1,"program":12},{"pitch":69,"velocity":95,"startTime":11.2500015,"endTime":11.304349333333333,"instrument":1,"program":12},{"pitch":69,"velocity":95,"startTime":11.413044999999999,"endTime":11.521740666666666,"instrument":1,"program":12},{"pitch":69,"velocity":95,"startTime":11.5760885,"endTime":11.684784166666665,"instrument":1,"program":12},{"pitch":64,"velocity":95,"startTime":11.739132,"endTime":11.847827666666666,"instrument":1,"program":12},{"pitch":69,"velocity":95,"startTime":11.902175499999998,"endTime":12.010871166666666,"instrument":1,"program":12},{"pitch":74,"velocity":95,"startTime":12.065218999999999,"endTime":12.173914666666665,"instrument":1,"program":12},{"pitch":69,"velocity":95,"startTime":12.2282625,"endTime":12.336958166666665,"instrument":1,"program":12},{"pitch":74,"velocity":95,"startTime":12.391305999999998,"endTime":12.500001666666666,"instrument":1,"program":12},{"pitch":69,"velocity":95,"startTime":12.554349499999999,"endTime":12.608697333333332,"instrument":1,"program":12},{"pitch":69,"velocity":95,"startTime":12.717393,"endTime":12.826088666666665,"instrument":1,"program":12},{"pitch":69,"velocity":95,"startTime":12.880436499999998,"endTime":12.989132166666666,"instrument":1,"program":12},{"pitch":62,"velocity":95,"startTime":13.043479999999999,"endTime":13.152175666666666,"instrument":1,"program":12},{"pitch":69,"velocity":95,"startTime":13.2065235,"endTime":13.315219166666665,"instrument":1,"program":12},{"pitch":74,"velocity":95,"startTime":13.369566999999998,"endTime":13.478262666666666,"instrument":1,"program":12},{"pitch":69,"velocity":95,"startTime":13.532610499999999,"endTime":13.641306166666666,"instrument":1,"program":12},{"pitch":74,"velocity":95,"startTime":13.695654,"endTime":13.804349666666665,"instrument":1,"program":12},{"pitch":69,"velocity":95,"startTime":13.858697499999998,"endTime":13.967393166666666,"instrument":1,"program":12},{"pitch":69,"velocity":95,"startTime":14.021740999999999,"endTime":14.130436666666666,"instrument":1,"program":12},{"pitch":74,"velocity":95,"startTime":14.1847845,"endTime":14.293480166666665,"instrument":1,"program":12},{"pitch":69,"velocity":95,"startTime":14.347828,"endTime":14.456523666666666,"instrument":1,"program":12},{"pitch":74,"velocity":95,"startTime":14.510871499999999,"endTime":14.619567166666666,"instrument":1,"program":12},{"pitch":72,"velocity":95,"startTime":14.673915,"endTime":14.782610666666665,"instrument":1,"program":12},{"pitch":69,"velocity":95,"startTime":14.8369585,"endTime":14.945654166666666,"instrument":1,"program":12},{"pitch":74,"velocity":95,"startTime":15.000001999999999,"endTime":15.108697666666666,"instrument":1,"program":12},{"pitch":69,"velocity":95,"startTime":15.163045499999999,"endTime":15.271741166666665,"instrument":1,"program":12},{"pitch":69,"velocity":95,"startTime":15.326089,"endTime":15.434784666666665,"instrument":1,"program":12},{"pitch":69,"velocity":95,"startTime":15.489132499999998,"endTime":15.597828166666666,"instrument":1,"program":12},{"pitch":62,"velocity":95,"startTime":15.652175999999999,"endTime":15.760871666666665,"instrument":1,"program":12},{"pitch":67,"velocity":95,"startTime":15.8152195,"endTime":15.923915166666665,"instrument":1,"program":12},{"pitch":74,"velocity":95,"startTime":15.978262999999998,"endTime":16.086958666666664,"instrument":1,"program":12},{"pitch":67,"velocity":95,"startTime":16.1413065,"endTime":16.250002166666665,"instrument":1,"program":12},{"pitch":74,"velocity":95,"startTime":16.30435,"endTime":16.413045666666665,"instrument":1,"program":12},{"pitch":67,"velocity":95,"startTime":16.4673935,"endTime":16.576089166666666,"instrument":1,"program":12},{"pitch":74,"velocity":95,"startTime":16.630436999999997,"endTime":16.739132666666666,"instrument":1,"program":12},{"pitch":67,"velocity":95,"startTime":16.793480499999998,"endTime":16.902176166666667,"instrument":1,"program":12},{"pitch":74,"velocity":95,"startTime":16.956523999999998,"endTime":17.065219666666664,"instrument":1,"program":12},{"pitch":67,"velocity":95,"startTime":17.1195675,"endTime":17.228263166666665,"instrument":1,"program":12},{"pitch":74,"velocity":95,"startTime":17.282611,"endTime":17.391306666666665,"instrument":1,"program":12},{"pitch":67,"velocity":95,"startTime":17.4456545,"endTime":17.554350166666666,"instrument":1,"program":12},{"pitch":74,"velocity":95,"startTime":17.608698,"endTime":17.717393666666666,"instrument":1,"program":12},{"pitch":67,"velocity":95,"startTime":17.771741499999997,"endTime":17.880437166666667,"instrument":1,"program":12},{"pitch":74,"velocity":95,"startTime":17.934784999999998,"endTime":18.043480666666664,"instrument":1,"program":12},{"pitch":67,"velocity":95,"startTime":18.0978285,"endTime":18.206524166666664,"instrument":1,"program":12},{"pitch":74,"velocity":95,"startTime":18.260872,"endTime":18.4239155,"instrument":1,"program":12},{"pitch":67,"velocity":95,"startTime":18.4239155,"endTime":18.532611166666666,"instrument":1,"program":12},{"pitch":74,"velocity":95,"startTime":18.586959,"endTime":18.695654666666666,"instrument":1,"program":12},{"pitch":74,"velocity":95,"startTime":18.750002499999997,"endTime":18.858698166666667,"instrument":1,"program":12},{"pitch":74,"velocity":95,"startTime":18.913045999999998,"endTime":18.967393833333333,"instrument":1,"program":12},{"pitch":67,"velocity":95,"startTime":19.0760895,"endTime":19.184785166666664,"instrument":1,"program":12},{"pitch":74,"velocity":95,"startTime":19.239133,"endTime":19.347828666666665,"instrument":1,"program":12},{"pitch":74,"velocity":95,"startTime":19.4021765,"endTime":19.510872166666665,"instrument":1,"program":12},{"pitch":74,"velocity":95,"startTime":19.56522,"endTime":19.673915666666666,"instrument":1,"program":12},{"pitch":67,"velocity":95,"startTime":19.728263499999997,"endTime":19.836959166666666,"instrument":1,"program":12},{"pitch":74,"velocity":95,"startTime":19.891306999999998,"endTime":20.000002666666663,"instrument":1,"program":12},{"pitch":74,"velocity":95,"startTime":20.054350499999998,"endTime":20.163046166666664,"instrument":1,"program":12},{"pitch":74,"velocity":95,"startTime":20.217394,"endTime":20.326089666666665,"instrument":1,"program":12},{"pitch":67,"velocity":95,"startTime":20.3804375,"endTime":20.489133166666665,"instrument":1,"program":12},{"pitch":74,"velocity":95,"startTime":20.543481,"endTime":20.652176666666666,"instrument":1,"program":12},{"pitch":74,"velocity":95,"startTime":20.706524499999997,"endTime":20.815220166666666,"instrument":1,"program":12},{"pitch":38,"velocity":110,"endTime":0.32608699999999996,"instrument":2,"program":32},{"pitch":42,"velocity":110,"startTime":0.48913049999999997,"endTime":0.6521739999999999,"instrument":2,"program":32},{"pitch":45,"velocity":110,"startTime":0.8152174999999999,"endTime":0.9782609999999999,"instrument":2,"program":32},{"pitch":38,"velocity":110,"startTime":0.9782609999999999,"endTime":1.1413045,"instrument":2,"program":32},{"pitch":38,"velocity":110,"startTime":1.3043479999999998,"endTime":1.4673915,"instrument":2,"program":32},{"pitch":50,"velocity":110,"startTime":1.6304349999999999,"endTime":1.7934785,"instrument":2,"program":32},{"pitch":48,"velocity":110,"startTime":1.9565219999999999,"endTime":2.1195654999999998,"instrument":2,"program":32},{"pitch":42,"velocity":110,"startTime":2.282609,"endTime":2.4456525,"instrument":2,"program":32},{"pitch":38,"velocity":110,"startTime":2.6086959999999997,"endTime":2.934783,"instrument":2,"program":32},{"pitch":50,"velocity":110,"startTime":3.0978264999999996,"endTime":3.2608699999999997,"instrument":2,"program":32},{"pitch":50,"velocity":110,"startTime":3.4239135,"endTime":3.586957,"instrument":2,"program":32},{"pitch":38,"velocity":110,"startTime":3.586957,"endTime":3.7500004999999996,"instrument":2,"program":32},{"pitch":45,"velocity":110,"startTime":3.9130439999999997,"endTime":4.2391309999999995,"instrument":2,"program":32},{"pitch":45,"velocity":110,"startTime":4.4021745,"endTime":4.565218,"instrument":2,"program":32},{"pitch":50,"velocity":110,"startTime":4.7282614999999995,"endTime":4.891305,"instrument":2,"program":32},{"pitch":38,"velocity":110,"startTime":4.891305,"endTime":5.0543485,"instrument":2,"program":32},{"pitch":43,"velocity":110,"startTime":5.217391999999999,"endTime":5.434783333333334,"instrument":2,"program":32},{"pitch":43,"velocity":110,"startTime":5.706522499999999,"endTime":5.869566,"instrument":2,"program":32},{"pitch":38,"velocity":110,"startTime":6.0326094999999995,"endTime":6.195652999999999,"instrument":2,"program":32},{"pitch":43,"velocity":110,"startTime":6.195652999999999,"endTime":6.3586965,"instrument":2,"program":32},{"pitch":43,"velocity":110,"startTime":6.521739999999999,"endTime":6.739131333333333,"instrument":2,"program":32},{"pitch":43,"velocity":110,"startTime":6.847827,"endTime":7.010870499999999,"instrument":2,"program":32},{"pitch":43,"velocity":110,"startTime":7.173914,"endTime":7.3369575,"instrument":2,"program":32},{"pitch":46,"velocity":110,"startTime":7.500000999999999,"endTime":7.6630445,"instrument":2,"program":32},{"pitch":55,"velocity":110,"startTime":7.8260879999999995,"endTime":8.152175,"instrument":2,"program":32},{"pitch":48,"velocity":110,"startTime":8.315218499999999,"endTime":8.478261999999999,"instrument":2,"program":32},{"pitch":48,"velocity":110,"startTime":8.6413055,"endTime":8.804349,"instrument":2,"program":32},{"pitch":38,"velocity":110,"startTime":8.804349,"endTime":8.967392499999999,"instrument":2,"program":32},{"pitch":34,"velocity":110,"startTime":9.130436,"endTime":9.2934795,"instrument":2,"program":32},{"pitch":38,"velocity":110,"startTime":9.6195665,"endTime":9.78261,"instrument":2,"program":32},{"pitch":38,"velocity":110,"startTime":9.945653499999999,"endTime":10.108697,"instrument":2,"program":32},{"pitch":34,"velocity":110,"startTime":10.108697,"endTime":10.2717405,"instrument":2,"program":32},{"pitch":38,"velocity":110,"startTime":10.434783999999999,"endTime":10.760871,"instrument":2,"program":32},{"pitch":38,"velocity":110,"startTime":10.923914499999999,"endTime":11.086958,"instrument":2,"program":32},{"pitch":38,"velocity":110,"startTime":11.2500015,"endTime":11.413044999999999,"instrument":2,"program":32},{"pitch":45,"velocity":110,"startTime":11.413044999999999,"endTime":11.5760885,"instrument":2,"program":32},{"pitch":45,"velocity":110,"startTime":11.739132,"endTime":11.956523333333333,"instrument":2,"program":32},{"pitch":42,"velocity":110,"startTime":12.2282625,"endTime":12.391305999999998,"instrument":2,"program":32},{"pitch":45,"velocity":110,"startTime":12.554349499999999,"endTime":12.717393,"instrument":2,"program":32},{"pitch":38,"velocity":110,"startTime":12.717393,"endTime":12.880436499999998,"instrument":2,"program":32},{"pitch":38,"velocity":110,"startTime":13.043479999999999,"endTime":13.260871333333332,"instrument":2,"program":32},{"pitch":33,"velocity":110,"startTime":13.369566999999998,"endTime":13.532610499999999,"instrument":2,"program":32},{"pitch":38,"velocity":110,"startTime":13.695654,"endTime":14.021740999999999,"instrument":2,"program":32},{"pitch":33,"velocity":110,"startTime":14.1847845,"endTime":14.347828,"instrument":2,"program":32},{"pitch":38,"velocity":110,"startTime":14.510871499999999,"endTime":14.673915,"instrument":2,"program":32},{"pitch":33,"velocity":110,"startTime":14.673915,"endTime":14.8369585,"instrument":2,"program":32},{"pitch":42,"velocity":110,"startTime":15.000001999999999,"endTime":15.217393333333332,"instrument":2,"program":32},{"pitch":38,"velocity":110,"startTime":15.326089,"endTime":15.489132499999998,"instrument":2,"program":32},{"pitch":43,"velocity":110,"startTime":15.652175999999999,"endTime":15.869567333333332,"instrument":2,"program":32},{"pitch":43,"velocity":110,"startTime":16.1413065,"endTime":16.30435,"instrument":2,"program":32},{"pitch":43,"velocity":110,"startTime":16.4673935,"endTime":16.630436999999997,"instrument":2,"program":32},{"pitch":31,"velocity":110,"startTime":16.630436999999997,"endTime":16.793480499999998,"instrument":2,"program":32},{"pitch":43,"velocity":110,"startTime":16.956523999999998,"endTime":17.173915333333333,"instrument":2,"program":32},{"pitch":38,"velocity":110,"startTime":17.282611,"endTime":17.4456545,"instrument":2,"program":32},{"pitch":43,"velocity":110,"startTime":17.608698,"endTime":17.771741499999997,"instrument":2,"program":32},{"pitch":38,"velocity":110,"startTime":17.934784999999998,"endTime":18.0978285,"instrument":2,"program":32},{"pitch":31,"velocity":110,"startTime":18.260872,"endTime":18.586959,"instrument":2,"program":32},{"pitch":31,"velocity":110,"startTime":18.750002499999997,"endTime":18.913045999999998,"instrument":2,"program":32},{"pitch":31,"velocity":110,"startTime":19.0760895,"endTime":19.239133,"instrument":2,"program":32},{"pitch":38,"velocity":110,"startTime":19.239133,"endTime":19.4021765,"instrument":2,"program":32},{"pitch":31,"velocity":110,"startTime":19.56522,"endTime":19.78261133333333,"instrument":2,"program":32},{"pitch":43,"velocity":110,"startTime":20.054350499999998,"endTime":20.217394,"instrument":2,"program":32},{"pitch":31,"velocity":110,"startTime":20.3804375,"endTime":20.543481,"instrument":2,"program":32},{"pitch":38,"velocity":110,"startTime":20.543481,"endTime":20.706524499999997,"instrument":2,"program":32},{"pitch":62,"velocity":105,"endTime":0.9782609999999999,"instrument":3,"program":50},{"pitch":66,"velocity":105,"endTime":2.4456525,"instrument":3,"program":50},{"pitch":72,"velocity":105,"endTime":2.4456525,"instrument":3,"program":50},{"pitch":78,"velocity":105,"endTime":2.500000333333333,"instrument":3,"program":50},{"pitch":60,"velocity":105,"startTime":0.9782609999999999,"endTime":2.4456525,"instrument":3,"program":50},{"pitch":60,"velocity":105,"startTime":2.500000333333333,"endTime":3.9130439999999997,"instrument":3,"program":50},{"pitch":62,"velocity":105,"startTime":2.500000333333333,"endTime":3.2608699999999997,"instrument":3,"program":50},{"pitch":66,"velocity":105,"startTime":2.500000333333333,"endTime":3.9130439999999997,"instrument":3,"program":50},{"pitch":69,"velocity":105,"startTime":2.500000333333333,"endTime":3.9130439999999997,"instrument":3,"program":50},{"pitch":57,"velocity":105,"startTime":3.2608699999999997,"endTime":3.7500004999999996,"instrument":3,"program":50},{"pitch":62,"velocity":105,"startTime":3.586957,"endTime":3.8586961666666664,"instrument":3,"program":50},{"pitch":57,"velocity":105,"startTime":3.7500004999999996,"endTime":5.217391999999999,"instrument":3,"program":50},{"pitch":62,"velocity":105,"startTime":3.9130439999999997,"endTime":5.217391999999999,"instrument":3,"program":50},{"pitch":66,"velocity":105,"startTime":3.9130439999999997,"endTime":5.217391999999999,"instrument":3,"program":50},{"pitch":58,"velocity":105,"startTime":5.217391999999999,"endTime":7.8260879999999995,"instrument":3,"program":50},{"pitch":62,"velocity":105,"startTime":5.217391999999999,"endTime":7.8260879999999995,"instrument":3,"program":50},{"pitch":64,"velocity":105,"startTime":5.217391999999999,"endTime":7.8260879999999995,"instrument":3,"program":50},{"pitch":67,"velocity":105,"startTime":5.217391999999999,"endTime":7.8260879999999995,"instrument":3,"program":50},{"pitch":62,"velocity":105,"startTime":7.8260879999999995,"endTime":8.315218499999999,"instrument":3,"program":50},{"pitch":65,"velocity":105,"startTime":7.8260879999999995,"endTime":8.315218499999999,"instrument":3,"program":50},{"pitch":67,"velocity":105,"startTime":7.8260879999999995,"endTime":8.315218499999999,"instrument":3,"program":50},{"pitch":70,"velocity":105,"startTime":7.8260879999999995,"endTime":8.532609833333332,"instrument":3,"program":50},{"pitch":62,"velocity":105,"startTime":8.315218499999999,"endTime":8.478261999999999,"instrument":3,"program":50},{"pitch":67,"velocity":105,"startTime":8.315218499999999,"endTime":8.532609833333332,"instrument":3,"program":50},{"pitch":62,"velocity":105,"startTime":8.478261999999999,"endTime":8.6413055,"instrument":3,"program":50},{"pitch":65,"velocity":105,"startTime":8.532609833333332,"endTime":8.858696833333333,"instrument":3,"program":50},{"pitch":67,"velocity":105,"startTime":8.532609833333332,"endTime":8.858696833333333,"instrument":3,"program":50},{"pitch":62,"velocity":105,"startTime":8.6413055,"endTime":9.184783833333332,"instrument":3,"program":50},{"pitch":67,"velocity":105,"startTime":8.967392499999999,"endTime":9.184783833333332,"instrument":3,"program":50},{"pitch":70,"velocity":105,"startTime":9.130436,"endTime":9.565218666666667,"instrument":3,"program":50},{"pitch":62,"velocity":105,"startTime":9.456522999999999,"endTime":9.6195665,"instrument":3,"program":50},{"pitch":65,"velocity":105,"startTime":9.456522999999999,"endTime":9.510870833333332,"instrument":3,"program":50},{"pitch":67,"velocity":105,"startTime":9.456522999999999,"endTime":9.510870833333332,"instrument":3,"program":50},{"pitch":55,"velocity":105,"startTime":9.6195665,"endTime":10.108697,"instrument":3,"program":50},{"pitch":62,"velocity":105,"startTime":9.6195665,"endTime":10.108697,"instrument":3,"program":50},{"pitch":55,"velocity":105,"startTime":10.108697,"endTime":10.380436166666666,"instrument":3,"program":50},{"pitch":62,"velocity":105,"startTime":10.108697,"endTime":10.380436166666666,"instrument":3,"program":50},{"pitch":60,"velocity":105,"startTime":10.434783999999999,"endTime":12.989132166666666,"instrument":3,"program":50},{"pitch":66,"velocity":105,"startTime":10.434783999999999,"endTime":11.467392833333333,"instrument":3,"program":50},{"pitch":69,"velocity":105,"startTime":10.434783999999999,"endTime":11.086958,"instrument":3,"program":50},{"pitch":72,"velocity":105,"startTime":10.923914499999999,"endTime":11.086958,"instrument":3,"program":50},{"pitch":60,"velocity":105,"startTime":11.086958,"endTime":12.989132166666666,"instrument":3,"program":50},{"pitch":78,"velocity":105,"startTime":11.086958,"endTime":11.467392833333333,"instrument":3,"program":50},{"pitch":76,"velocity":105,"startTime":11.467392833333333,"endTime":11.5760885,"instrument":3,"program":50},{"pitch":66,"velocity":105,"startTime":11.5760885,"endTime":12.173914666666665,"instrument":3,"program":50},{"pitch":90,"velocity":105,"startTime":11.5760885,"endTime":12.989132166666666,"instrument":3,"program":50},{"pitch":72,"velocity":105,"startTime":12.2282625,"endTime":12.989132166666666,"instrument":3,"program":50},{"pitch":81,"velocity":105,"startTime":12.336958166666665,"endTime":12.717393,"instrument":3,"program":50},{"pitch":81,"velocity":105,"startTime":12.880436499999998,"endTime":12.989132166666666,"instrument":3,"program":50},{"pitch":60,"velocity":105,"startTime":13.043479999999999,"endTime":14.347828,"instrument":3,"program":50},{"pitch":62,"velocity":105,"startTime":13.043479999999999,"endTime":14.1847845,"instrument":3,"program":50},{"pitch":66,"velocity":105,"startTime":13.043479999999999,"endTime":14.1847845,"instrument":3,"program":50},{"pitch":74,"velocity":105,"startTime":13.043479999999999,"endTime":14.347828,"instrument":3,"program":50},{"pitch":62,"velocity":105,"startTime":14.1847845,"endTime":14.293480166666665,"instrument":3,"program":50},{"pitch":60,"velocity":105,"startTime":14.347828,"endTime":14.510871499999999,"instrument":3,"program":50},{"pitch":62,"velocity":105,"startTime":14.347828,"endTime":14.510871499999999,"instrument":3,"program":50},{"pitch":66,"velocity":105,"startTime":14.347828,"endTime":14.510871499999999,"instrument":3,"program":50},{"pitch":69,"velocity":105,"startTime":14.347828,"endTime":14.510871499999999,"instrument":3,"program":50},{"pitch":60,"velocity":105,"startTime":14.510871499999999,"endTime":14.8369585,"instrument":3,"program":50},{"pitch":62,"velocity":105,"startTime":14.510871499999999,"endTime":14.891306333333333,"instrument":3,"program":50},{"pitch":66,"velocity":105,"startTime":14.510871499999999,"endTime":14.945654166666666,"instrument":3,"program":50},{"pitch":54,"velocity":105,"startTime":14.728262833333332,"endTime":14.891306333333333,"instrument":3,"program":50},{"pitch":60,"velocity":105,"startTime":15.000001999999999,"endTime":15.380436833333333,"instrument":3,"program":50},{"pitch":62,"velocity":105,"startTime":15.000001999999999,"endTime":15.271741166666665,"instrument":3,"program":50},{"pitch":66,"velocity":105,"startTime":15.000001999999999,"endTime":15.380436833333333,"instrument":3,"program":50},{"pitch":58,"velocity":105,"startTime":15.652175999999999,"endTime":18.043480666666664,"instrument":3,"program":50},{"pitch":62,"velocity":105,"startTime":15.652175999999999,"endTime":18.043480666666664,"instrument":3,"program":50},{"pitch":65,"velocity":105,"startTime":15.652175999999999,"endTime":18.043480666666664,"instrument":3,"program":50},{"pitch":67,"velocity":105,"startTime":15.652175999999999,"endTime":18.043480666666664,"instrument":3,"program":50},{"pitch":58,"velocity":105,"startTime":18.0978285,"endTime":20.815220166666666,"instrument":3,"program":50},{"pitch":62,"velocity":105,"startTime":18.0978285,"endTime":20.815220166666666,"instrument":3,"program":50},{"pitch":65,"velocity":105,"startTime":18.0978285,"endTime":20.815220166666666,"instrument":3,"program":50},{"pitch":67,"velocity":105,"startTime":18.0978285,"endTime":20.815220166666666,"instrument":3,"program":50},{"pitch":35,"velocity":102,"startTime":20.869567999999997,"endTime":21.032611499999998,"isDrum":true},{"pitch":42,"velocity":102,"startTime":20.869567999999997,"endTime":21.032611499999998,"isDrum":true},{"pitch":51,"velocity":102,"startTime":20.869567999999997,"endTime":21.032611499999998,"isDrum":true},{"pitch":42,"velocity":102,"startTime":21.195655,"endTime":21.3586985,"isDrum":true},{"pitch":40,"velocity":102,"startTime":21.521742,"endTime":21.684785499999997,"isDrum":true},{"pitch":42,"velocity":102,"startTime":21.521742,"endTime":21.684785499999997,"isDrum":true},{"pitch":42,"velocity":102,"startTime":21.847828999999997,"endTime":22.010872499999998,"isDrum":true},{"pitch":35,"velocity":102,"startTime":22.010872499999998,"endTime":22.173916,"isDrum":true},{"pitch":40,"velocity":102,"startTime":22.173916,"endTime":22.3369595,"isDrum":true},{"pitch":42,"velocity":102,"startTime":22.173916,"endTime":22.3369595,"isDrum":true},{"pitch":51,"velocity":102,"startTime":22.3369595,"endTime":22.500003,"isDrum":true},{"pitch":35,"velocity":102,"startTime":22.500003,"endTime":22.663046499999997,"isDrum":true},{"pitch":42,"velocity":102,"startTime":22.500003,"endTime":22.663046499999997,"isDrum":true},{"pitch":40,"velocity":102,"startTime":22.826089999999997,"endTime":22.989133499999998,"isDrum":true},{"pitch":42,"velocity":102,"startTime":22.826089999999997,"endTime":22.989133499999998,"isDrum":true},{"pitch":42,"velocity":102,"startTime":23.152177,"endTime":23.3152205,"isDrum":true},{"pitch":35,"velocity":102,"startTime":23.478264,"endTime":23.6413075,"isDrum":true},{"pitch":42,"velocity":102,"startTime":23.478264,"endTime":23.6413075,"isDrum":true},{"pitch":42,"velocity":102,"startTime":23.804350999999997,"endTime":23.967394499999997,"isDrum":true},{"pitch":40,"velocity":102,"startTime":24.130437999999998,"endTime":24.2934815,"isDrum":true},{"pitch":42,"velocity":102,"startTime":24.130437999999998,"endTime":24.2934815,"isDrum":true},{"pitch":42,"velocity":102,"startTime":24.456525,"endTime":24.6195685,"isDrum":true},{"pitch":35,"velocity":102,"startTime":24.782611999999997,"endTime":24.945655499999997,"isDrum":true},{"pitch":42,"velocity":102,"startTime":24.782611999999997,"endTime":24.945655499999997,"isDrum":true},{"pitch":35,"velocity":102,"startTime":25.108698999999998,"endTime":25.2717425,"isDrum":true},{"pitch":42,"velocity":102,"startTime":25.108698999999998,"endTime":25.2717425,"isDrum":true},{"pitch":40,"velocity":102,"startTime":25.434786,"endTime":25.5978295,"isDrum":true},{"pitch":42,"velocity":102,"startTime":25.434786,"endTime":25.5978295,"isDrum":true},{"pitch":35,"velocity":102,"startTime":25.760872999999997,"endTime":25.923916499999997,"isDrum":true},{"pitch":42,"velocity":102,"startTime":25.760872999999997,"endTime":25.923916499999997,"isDrum":true},{"pitch":35,"velocity":102,"startTime":26.086959999999998,"endTime":26.2500035,"isDrum":true},{"pitch":42,"velocity":102,"startTime":26.086959999999998,"endTime":26.2500035,"isDrum":true},{"pitch":42,"velocity":102,"startTime":26.413047,"endTime":26.5760905,"isDrum":true},{"pitch":40,"velocity":102,"startTime":26.739133999999996,"endTime":26.902177499999997,"isDrum":true},{"pitch":42,"velocity":102,"startTime":26.739133999999996,"endTime":26.902177499999997,"isDrum":true},{"pitch":42,"velocity":102,"startTime":27.065220999999998,"endTime":27.228264499999998,"isDrum":true},{"pitch":35,"velocity":102,"startTime":27.391308,"endTime":27.5543515,"isDrum":true},{"pitch":42,"velocity":102,"startTime":27.391308,"endTime":27.5543515,"isDrum":true},{"pitch":35,"velocity":102,"startTime":27.717394999999996,"endTime":27.880438499999997,"isDrum":true},{"pitch":42,"velocity":102,"startTime":27.717394999999996,"endTime":27.880438499999997,"isDrum":true},{"pitch":40,"velocity":102,"startTime":28.043481999999997,"endTime":28.206525499999998,"isDrum":true},{"pitch":42,"velocity":102,"startTime":28.043481999999997,"endTime":28.206525499999998,"isDrum":true},{"pitch":42,"velocity":102,"startTime":28.369569,"endTime":28.5326125,"isDrum":true},{"pitch":35,"velocity":102,"startTime":28.695656,"endTime":28.858699499999997,"isDrum":true},{"pitch":42,"velocity":102,"startTime":28.695656,"endTime":28.858699499999997,"isDrum":true},{"pitch":42,"velocity":102,"startTime":29.021742999999997,"endTime":29.184786499999998,"isDrum":true},{"pitch":40,"velocity":102,"startTime":29.34783,"endTime":29.5108735,"isDrum":true},{"pitch":42,"velocity":102,"startTime":29.34783,"endTime":29.5108735,"isDrum":true},{"pitch":42,"velocity":102,"startTime":29.673917,"endTime":29.836960499999996,"isDrum":true},{"pitch":35,"velocity":102,"startTime":29.836960499999996,"endTime":30.000003999999997,"isDrum":true},{"pitch":35,"velocity":102,"startTime":30.000003999999997,"endTime":30.163047499999998,"isDrum":true},{"pitch":42,"velocity":102,"startTime":30.000003999999997,"endTime":30.163047499999998,"isDrum":true},{"pitch":42,"velocity":102,"startTime":30.163047499999998,"endTime":30.326090999999998,"isDrum":true},{"pitch":40,"velocity":102,"startTime":30.326090999999998,"endTime":30.4891345,"isDrum":true},{"pitch":35,"velocity":102,"startTime":30.4891345,"endTime":30.652178,"isDrum":true},{"pitch":40,"velocity":102,"startTime":30.652178,"endTime":30.815221499999996,"isDrum":true},{"pitch":42,"velocity":102,"startTime":30.652178,"endTime":30.815221499999996,"isDrum":true},{"pitch":35,"velocity":102,"startTime":30.978264999999997,"endTime":31.141308499999997,"isDrum":true},{"pitch":42,"velocity":102,"startTime":30.978264999999997,"endTime":31.141308499999997,"isDrum":true},{"pitch":35,"velocity":102,"startTime":31.304351999999998,"endTime":31.4673955,"isDrum":true},{"pitch":42,"velocity":102,"startTime":31.304351999999998,"endTime":31.4673955,"isDrum":true},{"pitch":42,"velocity":102,"startTime":31.630439,"endTime":31.793482499999996,"isDrum":true},{"pitch":40,"velocity":102,"startTime":31.956525999999997,"endTime":32.1195695,"isDrum":true},{"pitch":42,"velocity":102,"startTime":31.956525999999997,"endTime":32.1195695,"isDrum":true},{"pitch":42,"velocity":102,"startTime":32.282613,"endTime":32.4456565,"isDrum":true},{"pitch":35,"velocity":102,"startTime":32.6087,"endTime":32.7717435,"isDrum":true},{"pitch":42,"velocity":102,"startTime":32.6087,"endTime":32.7717435,"isDrum":true},{"pitch":42,"velocity":102,"startTime":32.934787,"endTime":33.0978305,"isDrum":true},{"pitch":40,"velocity":102,"startTime":33.260873999999994,"endTime":33.423917499999995,"isDrum":true},{"pitch":42,"velocity":102,"startTime":33.260873999999994,"endTime":33.423917499999995,"isDrum":true},{"pitch":42,"velocity":102,"startTime":33.586960999999995,"endTime":33.750004499999996,"isDrum":true},{"pitch":35,"velocity":102,"startTime":33.913047999999996,"endTime":34.0760915,"isDrum":true},{"pitch":42,"velocity":102,"startTime":33.913047999999996,"endTime":34.0760915,"isDrum":true},{"pitch":42,"velocity":102,"startTime":34.239135,"endTime":34.4021785,"isDrum":true},{"pitch":40,"velocity":102,"startTime":34.565222,"endTime":34.7282655,"isDrum":true},{"pitch":42,"velocity":102,"startTime":34.565222,"endTime":34.7282655,"isDrum":true},{"pitch":42,"velocity":102,"startTime":34.891309,"endTime":35.0543525,"isDrum":true},{"pitch":35,"velocity":102,"startTime":35.217396,"endTime":35.380439499999994,"isDrum":true},{"pitch":42,"velocity":102,"startTime":35.217396,"endTime":35.380439499999994,"isDrum":true},{"pitch":42,"velocity":102,"startTime":35.543482999999995,"endTime":35.706526499999995,"isDrum":true},{"pitch":40,"velocity":102,"startTime":35.869569999999996,"endTime":36.0326135,"isDrum":true},{"pitch":42,"velocity":102,"startTime":35.869569999999996,"endTime":36.0326135,"isDrum":true},{"pitch":42,"velocity":102,"startTime":36.195657,"endTime":36.3587005,"isDrum":true},{"pitch":35,"velocity":102,"startTime":36.521744,"endTime":36.6847875,"isDrum":true},{"pitch":42,"velocity":102,"startTime":36.521744,"endTime":36.6847875,"isDrum":true},{"pitch":42,"velocity":102,"startTime":36.847831,"endTime":37.0108745,"isDrum":true},{"pitch":40,"velocity":102,"startTime":37.173918,"endTime":37.336961499999994,"isDrum":true},{"pitch":42,"velocity":102,"startTime":37.173918,"endTime":37.336961499999994,"isDrum":true},{"pitch":42,"velocity":102,"startTime":37.500004999999994,"endTime":37.663048499999995,"isDrum":true},{"pitch":35,"velocity":102,"startTime":37.663048499999995,"endTime":37.826091999999996,"isDrum":true},{"pitch":35,"velocity":102,"startTime":37.826091999999996,"endTime":37.989135499999996,"isDrum":true},{"pitch":42,"velocity":102,"startTime":37.826091999999996,"endTime":37.989135499999996,"isDrum":true},{"pitch":42,"velocity":102,"startTime":38.152179,"endTime":38.3152225,"isDrum":true},{"pitch":40,"velocity":102,"startTime":38.478266,"endTime":38.6413095,"isDrum":true},{"pitch":42,"velocity":102,"startTime":38.478266,"endTime":38.6413095,"isDrum":true},{"pitch":42,"velocity":102,"startTime":38.804353,"endTime":38.9673965,"isDrum":true},{"pitch":35,"velocity":102,"startTime":39.13044,"endTime":39.293483499999994,"isDrum":true},{"pitch":42,"velocity":102,"startTime":39.13044,"endTime":39.293483499999994,"isDrum":true},{"pitch":42,"velocity":102,"startTime":39.456526999999994,"endTime":39.619570499999995,"isDrum":true},{"pitch":40,"velocity":102,"startTime":39.782613999999995,"endTime":39.945657499999996,"isDrum":true},{"pitch":42,"velocity":102,"startTime":39.782613999999995,"endTime":39.945657499999996,"isDrum":true},{"pitch":42,"velocity":102,"startTime":40.108700999999996,"endTime":40.2717445,"isDrum":true},{"pitch":35,"velocity":102,"startTime":40.2717445,"endTime":40.434788,"isDrum":true},{"pitch":35,"velocity":102,"startTime":40.434788,"endTime":40.5978315,"isDrum":true},{"pitch":42,"velocity":102,"startTime":40.434788,"endTime":40.5978315,"isDrum":true},{"pitch":42,"velocity":102,"startTime":40.760875,"endTime":40.9239185,"isDrum":true},{"pitch":40,"velocity":102,"startTime":41.086962,"endTime":41.2500055,"isDrum":true},{"pitch":42,"velocity":102,"startTime":41.086962,"endTime":41.2500055,"isDrum":true},{"pitch":42,"velocity":102,"startTime":41.413048999999994,"endTime":41.576092499999994,"isDrum":true},{"pitch":63,"velocity":95,"startTime":20.869567999999997,"endTime":20.978263666666663,"instrument":1,"program":12},{"pitch":67,"velocity":95,"startTime":21.032611499999998,"endTime":21.141307166666664,"instrument":1,"program":12},{"pitch":72,"velocity":95,"startTime":21.195655,"endTime":21.30435066666666,"instrument":1,"program":12},{"pitch":63,"velocity":95,"startTime":21.3586985,"endTime":21.46739416666666,"instrument":1,"program":12},{"pitch":67,"velocity":95,"startTime":21.521742,"endTime":21.630437666666662,"instrument":1,"program":12},{"pitch":72,"velocity":95,"startTime":21.684785499999997,"endTime":21.793481166666663,"instrument":1,"program":12},{"pitch":72,"velocity":95,"startTime":21.847828999999997,"endTime":21.956524666666663,"instrument":1,"program":12},{"pitch":67,"velocity":95,"startTime":22.010872499999998,"endTime":22.119568166666664,"instrument":1,"program":12},{"pitch":72,"velocity":95,"startTime":22.173916,"endTime":22.282611666666664,"instrument":1,"program":12},{"pitch":75,"velocity":95,"startTime":22.3369595,"endTime":22.445655166666665,"instrument":1,"program":12},{"pitch":72,"velocity":95,"startTime":22.500003,"endTime":22.608698666666665,"instrument":1,"program":12},{"pitch":63,"velocity":95,"startTime":22.663046499999997,"endTime":22.771742166666666,"instrument":1,"program":12},{"pitch":67,"velocity":95,"startTime":22.826089999999997,"endTime":22.934785666666667,"instrument":1,"program":12},{"pitch":72,"velocity":95,"startTime":22.989133499999998,"endTime":23.097829166666664,"instrument":1,"program":12},{"pitch":67,"velocity":95,"startTime":23.152177,"endTime":23.260872666666664,"instrument":1,"program":12},{"pitch":72,"velocity":95,"startTime":23.3152205,"endTime":23.423916166666665,"instrument":1,"program":12},{"pitch":63,"velocity":95,"startTime":23.478264,"endTime":23.6413075,"instrument":1,"program":12},{"pitch":67,"velocity":95,"startTime":23.6413075,"endTime":23.750003166666666,"instrument":1,"program":12},{"pitch":70,"velocity":95,"startTime":23.804350999999997,"endTime":23.913046666666666,"instrument":1,"program":12},{"pitch":72,"velocity":95,"startTime":23.967394499999997,"endTime":24.076090166666663,"instrument":1,"program":12},{"pitch":63,"velocity":95,"startTime":24.130437999999998,"endTime":24.239133666666664,"instrument":1,"program":12},{"pitch":72,"velocity":95,"startTime":24.2934815,"endTime":24.402177166666664,"instrument":1,"program":12},{"pitch":67,"velocity":95,"startTime":24.456525,"endTime":24.565220666666665,"instrument":1,"program":12},{"pitch":70,"velocity":95,"startTime":24.6195685,"endTime":24.728264166666666,"instrument":1,"program":12},{"pitch":63,"velocity":95,"startTime":24.782611999999997,"endTime":24.891307666666666,"instrument":1,"program":12},{"pitch":67,"velocity":95,"startTime":24.945655499999997,"endTime":25.054351166666663,"instrument":1,"program":12},{"pitch":72,"velocity":95,"startTime":25.108698999999998,"endTime":25.217394666666664,"instrument":1,"program":12},{"pitch":75,"velocity":95,"startTime":25.2717425,"endTime":25.380438166666664,"instrument":1,"program":12},{"pitch":72,"velocity":95,"startTime":25.434786,"endTime":25.543481666666665,"instrument":1,"program":12},{"pitch":67,"velocity":95,"startTime":25.5978295,"endTime":25.706525166666665,"instrument":1,"program":12},{"pitch":63,"velocity":95,"startTime":25.760872999999997,"endTime":25.869568666666666,"instrument":1,"program":12},{"pitch":70,"velocity":95,"startTime":25.923916499999997,"endTime":26.032612166666663,"instrument":1,"program":12},{"pitch":62,"velocity":95,"startTime":26.086959999999998,"endTime":26.195655666666664,"instrument":1,"program":12},{"pitch":67,"velocity":95,"startTime":26.2500035,"endTime":26.358699166666664,"instrument":1,"program":12},{"pitch":70,"velocity":95,"startTime":26.413047,"endTime":26.521742666666665,"instrument":1,"program":12},{"pitch":62,"velocity":95,"startTime":26.5760905,"endTime":26.684786166666665,"instrument":1,"program":12},{"pitch":67,"velocity":95,"startTime":26.739133999999996,"endTime":26.847829666666666,"instrument":1,"program":12},{"pitch":70,"velocity":95,"startTime":26.902177499999997,"endTime":27.010873166666666,"instrument":1,"program":12},{"pitch":74,"velocity":95,"startTime":27.065220999999998,"endTime":27.173916666666663,"instrument":1,"program":12},{"pitch":67,"velocity":95,"startTime":27.228264499999998,"endTime":27.336960166666664,"instrument":1,"program":12},{"pitch":70,"velocity":95,"startTime":27.391308,"endTime":27.500003666666665,"instrument":1,"program":12},{"pitch":67,"velocity":95,"startTime":27.5543515,"endTime":27.663047166666665,"instrument":1,"program":12},{"pitch":70,"velocity":95,"startTime":27.717394999999996,"endTime":27.826090666666666,"instrument":1,"program":12},{"pitch":74,"velocity":95,"startTime":27.880438499999997,"endTime":27.989134166666666,"instrument":1,"program":12},{"pitch":70,"velocity":95,"startTime":28.043481999999997,"endTime":28.152177666666663,"instrument":1,"program":12},{"pitch":67,"velocity":95,"startTime":28.206525499999998,"endTime":28.315221166666664,"instrument":1,"program":12},{"pitch":70,"velocity":95,"startTime":28.369569,"endTime":28.478264666666664,"instrument":1,"program":12},{"pitch":62,"velocity":95,"startTime":28.5326125,"endTime":28.641308166666665,"instrument":1,"program":12},{"pitch":70,"velocity":95,"startTime":28.695656,"endTime":28.804351666666665,"instrument":1,"program":12},{"pitch":74,"velocity":95,"startTime":28.858699499999997,"endTime":28.967395166666666,"instrument":1,"program":12},{"pitch":70,"velocity":95,"startTime":29.021742999999997,"endTime":29.130438666666663,"instrument":1,"program":12},{"pitch":67,"velocity":95,"startTime":29.184786499999998,"endTime":29.293482166666664,"instrument":1,"program":12},{"pitch":70,"velocity":95,"startTime":29.34783,"endTime":29.456525666666664,"instrument":1,"program":12},{"pitch":67,"velocity":95,"startTime":29.5108735,"endTime":29.619569166666665,"instrument":1,"program":12},{"pitch":62,"velocity":95,"startTime":29.673917,"endTime":29.782612666666665,"instrument":1,"program":12},{"pitch":67,"velocity":95,"startTime":29.836960499999996,"endTime":29.945656166666666,"instrument":1,"program":12},{"pitch":70,"velocity":95,"startTime":30.000003999999997,"endTime":30.108699666666663,"instrument":1,"program":12},{"pitch":67,"velocity":95,"startTime":30.163047499999998,"endTime":30.271743166666663,"instrument":1,"program":12},{"pitch":70,"velocity":95,"startTime":30.326090999999998,"endTime":30.434786666666664,"instrument":1,"program":12},{"pitch":67,"velocity":95,"startTime":30.4891345,"endTime":30.597830166666665,"instrument":1,"program":12},{"pitch":74,"velocity":95,"startTime":30.652178,"endTime":30.760873666666665,"instrument":1,"program":12},{"pitch":70,"velocity":95,"startTime":30.815221499999996,"endTime":30.923917166666666,"instrument":1,"program":12},{"pitch":67,"velocity":95,"startTime":30.978264999999997,"endTime":31.141308499999997,"instrument":1,"program":12},{"pitch":70,"velocity":95,"startTime":31.141308499999997,"endTime":31.250004166666663,"instrument":1,"program":12},{"pitch":62,"velocity":95,"startTime":31.304351999999998,"endTime":31.4673955,"instrument":1,"program":12},{"pitch":66,"velocity":95,"startTime":31.4673955,"endTime":31.576091166666668,"instrument":1,"program":12},{"pitch":69,"velocity":95,"startTime":31.630439,"endTime":31.73913466666667,"instrument":1,"program":12},{"pitch":62,"velocity":95,"startTime":31.793482499999996,"endTime":31.90217816666667,"instrument":1,"program":12},{"pitch":69,"velocity":95,"startTime":31.956525999999997,"endTime":32.065221666666666,"instrument":1,"program":12},{"pitch":66,"velocity":95,"startTime":32.1195695,"endTime":32.22826516666667,"instrument":1,"program":12},{"pitch":69,"velocity":95,"startTime":32.282613,"endTime":32.39130866666667,"instrument":1,"program":12},{"pitch":62,"velocity":95,"startTime":32.4456565,"endTime":32.55435216666667,"instrument":1,"program":12},{"pitch":69,"velocity":95,"startTime":32.6087,"endTime":32.71739566666667,"instrument":1,"program":12},{"pitch":66,"velocity":95,"startTime":32.7717435,"endTime":32.88043916666667,"instrument":1,"program":12},{"pitch":69,"velocity":95,"startTime":32.934787,"endTime":33.04348266666667,"instrument":1,"program":12},{"pitch":62,"velocity":95,"startTime":33.0978305,"endTime":33.20652616666667,"instrument":1,"program":12},{"pitch":66,"velocity":95,"startTime":33.260873999999994,"endTime":33.36956966666667,"instrument":1,"program":12},{"pitch":69,"velocity":95,"startTime":33.423917499999995,"endTime":33.53261316666667,"instrument":1,"program":12},{"pitch":62,"velocity":95,"startTime":33.586960999999995,"endTime":33.69565666666667,"instrument":1,"program":12},{"pitch":69,"velocity":95,"startTime":33.750004499999996,"endTime":33.85870016666667,"instrument":1,"program":12},{"pitch":60,"velocity":95,"startTime":33.913047999999996,"endTime":34.0760915,"instrument":1,"program":12},{"pitch":69,"velocity":95,"startTime":34.0760915,"endTime":34.184787166666666,"instrument":1,"program":12},{"pitch":69,"velocity":95,"startTime":34.239135,"endTime":34.34783066666667,"instrument":1,"program":12},{"pitch":72,"velocity":95,"startTime":34.4021785,"endTime":34.51087416666667,"instrument":1,"program":12},{"pitch":69,"velocity":95,"startTime":34.565222,"endTime":34.67391766666667,"instrument":1,"program":12},{"pitch":69,"velocity":95,"startTime":34.7282655,"endTime":34.83696116666667,"instrument":1,"program":12},{"pitch":60,"velocity":95,"startTime":34.891309,"endTime":35.00000466666667,"instrument":1,"program":12},{"pitch":69,"velocity":95,"startTime":35.0543525,"endTime":35.16304816666667,"instrument":1,"program":12},{"pitch":66,"velocity":95,"startTime":35.217396,"endTime":35.32609166666667,"instrument":1,"program":12},{"pitch":69,"velocity":95,"startTime":35.380439499999994,"endTime":35.48913516666667,"instrument":1,"program":12},{"pitch":69,"velocity":95,"startTime":35.543482999999995,"endTime":35.65217866666667,"instrument":1,"program":12},{"pitch":69,"velocity":95,"startTime":35.706526499999995,"endTime":35.81522216666667,"instrument":1,"program":12},{"pitch":72,"velocity":95,"startTime":35.869569999999996,"endTime":35.978265666666665,"instrument":1,"program":12},{"pitch":69,"velocity":95,"startTime":36.0326135,"endTime":36.141309166666666,"instrument":1,"program":12},{"pitch":69,"velocity":95,"startTime":36.195657,"endTime":36.46739616666667,"instrument":1,"program":12},{"pitch":67,"velocity":95,"startTime":36.521744,"endTime":36.63043966666667,"instrument":1,"program":12},{"pitch":70,"velocity":95,"startTime":36.6847875,"endTime":36.79348316666667,"instrument":1,"program":12},{"pitch":67,"velocity":95,"startTime":36.847831,"endTime":36.95652666666667,"instrument":1,"program":12},{"pitch":70,"velocity":95,"startTime":37.0108745,"endTime":37.11957016666667,"instrument":1,"program":12},{"pitch":67,"velocity":95,"startTime":37.173918,"endTime":37.28261366666667,"instrument":1,"program":12},{"pitch":70,"velocity":95,"startTime":37.336961499999994,"endTime":37.44565716666667,"instrument":1,"program":12},{"pitch":67,"velocity":95,"startTime":37.500004999999994,"endTime":37.60870066666667,"instrument":1,"program":12},{"pitch":70,"velocity":95,"startTime":37.663048499999995,"endTime":37.77174416666667,"instrument":1,"program":12},{"pitch":70,"velocity":95,"startTime":39.13044,"endTime":39.23913566666667,"instrument":1,"program":12},{"pitch":72,"velocity":95,"startTime":39.293483499999994,"endTime":39.40217916666667,"instrument":1,"program":12},{"pitch":67,"velocity":95,"startTime":39.456526999999994,"endTime":39.56522266666667,"instrument":1,"program":12},{"pitch":70,"velocity":95,"startTime":39.619570499999995,"endTime":39.72826616666667,"instrument":1,"program":12},{"pitch":72,"velocity":95,"startTime":39.782613999999995,"endTime":39.89130966666667,"instrument":1,"program":12},{"pitch":67,"velocity":95,"startTime":39.945657499999996,"endTime":40.054353166666665,"instrument":1,"program":12},{"pitch":70,"velocity":95,"startTime":40.108700999999996,"endTime":40.217396666666666,"instrument":1,"program":12},{"pitch":67,"velocity":95,"startTime":40.2717445,"endTime":40.380440166666666,"instrument":1,"program":12},{"pitch":70,"velocity":95,"startTime":40.434788,"endTime":40.54348366666667,"instrument":1,"program":12},{"pitch":67,"velocity":95,"startTime":40.5978315,"endTime":40.70652716666667,"instrument":1,"program":12},{"pitch":70,"velocity":95,"startTime":40.760875,"endTime":40.86957066666667,"instrument":1,"program":12},{"pitch":67,"velocity":95,"startTime":40.9239185,"endTime":41.03261416666667,"instrument":1,"program":12},{"pitch":70,"velocity":95,"startTime":41.086962,"endTime":41.19565766666667,"instrument":1,"program":12},{"pitch":67,"velocity":95,"startTime":41.2500055,"endTime":41.35870116666667,"instrument":1,"program":12},{"pitch":70,"velocity":95,"startTime":41.413048999999994,"endTime":41.52174466666667,"instrument":1,"program":12},{"pitch":67,"velocity":95,"startTime":41.576092499999994,"endTime":41.68478816666667,"instrument":1,"program":12},{"pitch":36,"velocity":110,"startTime":20.869567999999997,"endTime":21.195655,"instrument":2,"program":32},{"pitch":28,"velocity":110,"startTime":21.3586985,"endTime":21.521742,"instrument":2,"program":32},{"pitch":28,"velocity":110,"startTime":21.684785499999997,"endTime":21.793481166666663,"instrument":2,"program":32},{"pitch":36,"velocity":110,"startTime":21.847828999999997,"endTime":22.010872499999998,"instrument":2,"program":32},{"pitch":39,"velocity":110,"startTime":22.173916,"endTime":22.3369595,"instrument":2,"program":32},{"pitch":39,"velocity":110,"startTime":22.500003,"endTime":22.663046499999997,"instrument":2,"program":32},{"pitch":34,"velocity":110,"startTime":22.826089999999997,"endTime":22.989133499999998,"instrument":2,"program":32},{"pitch":48,"velocity":110,"startTime":23.152177,"endTime":23.3152205,"instrument":2,"program":32},{"pitch":39,"velocity":110,"startTime":23.478264,"endTime":23.804350999999997,"instrument":2,"program":32},{"pitch":46,"velocity":110,"startTime":23.967394499999997,"endTime":24.130437999999998,"instrument":2,"program":32},{"pitch":46,"velocity":110,"startTime":24.2934815,"endTime":24.456525,"instrument":2,"program":32},{"pitch":36,"velocity":110,"startTime":24.456525,"endTime":24.6195685,"instrument":2,"program":32},{"pitch":39,"velocity":110,"startTime":24.782611999999997,"endTime":24.945655499999997,"instrument":2,"program":32},{"pitch":39,"velocity":110,"startTime":25.108698999999998,"endTime":25.2717425,"instrument":2,"program":32},{"pitch":39,"velocity":110,"startTime":25.434786,"endTime":25.760872999999997,"instrument":2,"program":32},{"pitch":34,"velocity":110,"startTime":25.923916499999997,"endTime":26.032612166666663,"instrument":2,"program":32},{"pitch":43,"velocity":110,"startTime":26.086959999999998,"endTime":26.413047,"instrument":2,"program":32},{"pitch":38,"velocity":110,"startTime":26.5760905,"endTime":26.739133999999996,"instrument":2,"program":32},{"pitch":34,"velocity":110,"startTime":26.902177499999997,"endTime":27.065220999999998,"instrument":2,"program":32},{"pitch":38,"velocity":110,"startTime":27.065220999999998,"endTime":27.228264499999998,"instrument":2,"program":32},{"pitch":31,"velocity":110,"startTime":27.391308,"endTime":27.5543515,"instrument":2,"program":32},{"pitch":31,"velocity":110,"startTime":27.717394999999996,"endTime":27.880438499999997,"instrument":2,"program":32},{"pitch":31,"velocity":110,"startTime":28.043481999999997,"endTime":28.206525499999998,"instrument":2,"program":32},{"pitch":38,"velocity":110,"startTime":28.369569,"endTime":28.5326125,"instrument":2,"program":32},{"pitch":31,"velocity":110,"startTime":28.695656,"endTime":29.021742999999997,"instrument":2,"program":32},{"pitch":31,"velocity":110,"startTime":29.184786499999998,"endTime":29.34783,"instrument":2,"program":32},{"pitch":31,"velocity":110,"startTime":29.5108735,"endTime":29.673917,"instrument":2,"program":32},{"pitch":38,"velocity":110,"startTime":29.673917,"endTime":29.836960499999996,"instrument":2,"program":32},{"pitch":31,"velocity":110,"startTime":30.000003999999997,"endTime":30.163047499999998,"instrument":2,"program":32},{"pitch":31,"velocity":110,"startTime":30.326090999999998,"endTime":30.4891345,"instrument":2,"program":32},{"pitch":31,"velocity":110,"startTime":30.652178,"endTime":30.815221499999996,"instrument":2,"program":32},{"pitch":31,"velocity":110,"startTime":30.978264999999997,"endTime":31.141308499999997,"instrument":2,"program":32},{"pitch":38,"velocity":110,"startTime":31.304351999999998,"endTime":31.630439,"instrument":2,"program":32},{"pitch":33,"velocity":110,"startTime":31.793482499999996,"endTime":31.956525999999997,"instrument":2,"program":32},{"pitch":36,"velocity":110,"startTime":32.1195695,"endTime":32.282613,"instrument":2,"program":32},{"pitch":38,"velocity":110,"startTime":32.282613,"endTime":32.4456565,"instrument":2,"program":32},{"pitch":33,"velocity":110,"startTime":32.6087,"endTime":32.7717435,"instrument":2,"program":32},{"pitch":36,"velocity":110,"startTime":32.934787,"endTime":33.0978305,"instrument":2,"program":32},{"pitch":33,"velocity":110,"startTime":33.260873999999994,"endTime":33.423917499999995,"instrument":2,"program":32},{"pitch":36,"velocity":110,"startTime":33.586960999999995,"endTime":33.750004499999996,"instrument":2,"program":32},{"pitch":38,"velocity":110,"startTime":33.913047999999996,"endTime":34.239135,"instrument":2,"program":32},{"pitch":38,"velocity":110,"startTime":34.4021785,"endTime":34.565222,"instrument":2,"program":32},{"pitch":38,"velocity":110,"startTime":34.7282655,"endTime":34.891309,"instrument":2,"program":32},{"pitch":38,"velocity":110,"startTime":34.891309,"endTime":35.0543525,"instrument":2,"program":32},{"pitch":38,"velocity":110,"startTime":35.217396,"endTime":35.380439499999994,"instrument":2,"program":32},{"pitch":38,"velocity":110,"startTime":35.706526499999995,"endTime":35.869569999999996,"instrument":2,"program":32},{"pitch":50,"velocity":110,"startTime":36.0326135,"endTime":36.195657,"instrument":2,"program":32},{"pitch":38,"velocity":110,"startTime":36.195657,"endTime":36.3587005,"instrument":2,"program":32},{"pitch":60,"velocity":105,"startTime":20.869567999999997,"endTime":22.500003,"instrument":3,"program":50},{"pitch":63,"velocity":105,"startTime":20.869567999999997,"endTime":22.500003,"instrument":3,"program":50},{"pitch":67,"velocity":105,"startTime":20.869567999999997,"endTime":22.500003,"instrument":3,"program":50},{"pitch":70,"velocity":105,"startTime":20.869567999999997,"endTime":22.500003,"instrument":3,"program":50},{"pitch":75,"velocity":105,"startTime":20.869567999999997,"endTime":22.500003,"instrument":3,"program":50},{"pitch":60,"velocity":105,"startTime":22.500003,"endTime":23.478264,"instrument":3,"program":50},{"pitch":63,"velocity":105,"startTime":22.500003,"endTime":23.478264,"instrument":3,"program":50},{"pitch":67,"velocity":105,"startTime":22.500003,"endTime":23.478264,"instrument":3,"program":50},{"pitch":70,"velocity":105,"startTime":22.500003,"endTime":23.478264,"instrument":3,"program":50},{"pitch":60,"velocity":105,"startTime":23.478264,"endTime":26.086959999999998,"instrument":3,"program":50},{"pitch":63,"velocity":105,"startTime":23.478264,"endTime":26.086959999999998,"instrument":3,"program":50},{"pitch":67,"velocity":105,"startTime":23.478264,"endTime":26.086959999999998,"instrument":3,"program":50},{"pitch":70,"velocity":105,"startTime":23.478264,"endTime":26.086959999999998,"instrument":3,"program":50},{"pitch":62,"velocity":105,"startTime":26.086959999999998,"endTime":28.695656,"instrument":3,"program":50},{"pitch":67,"velocity":105,"startTime":26.086959999999998,"endTime":28.695656,"instrument":3,"program":50},{"pitch":70,"velocity":105,"startTime":26.086959999999998,"endTime":28.695656,"instrument":3,"program":50},{"pitch":74,"velocity":105,"startTime":26.086959999999998,"endTime":28.695656,"instrument":3,"program":50},{"pitch":58,"velocity":105,"startTime":28.695656,"endTime":31.304351999999998,"instrument":3,"program":50},{"pitch":62,"velocity":105,"startTime":28.695656,"endTime":29.184786499999998,"instrument":3,"program":50},{"pitch":67,"velocity":105,"startTime":28.695656,"endTime":30.000003999999997,"instrument":3,"program":50},{"pitch":74,"velocity":105,"startTime":28.695656,"endTime":31.304351999999998,"instrument":3,"program":50},{"pitch":62,"velocity":105,"startTime":29.184786499999998,"endTime":29.34783,"instrument":3,"program":50},{"pitch":62,"velocity":105,"startTime":29.34783,"endTime":29.72826483333333,"instrument":3,"program":50},{"pitch":74,"velocity":105,"startTime":29.673917,"endTime":30.000003999999997,"instrument":3,"program":50},{"pitch":67,"velocity":105,"startTime":30.000003999999997,"endTime":31.304351999999998,"instrument":3,"program":50},{"pitch":74,"velocity":105,"startTime":30.000003999999997,"endTime":30.326090999999998,"instrument":3,"program":50},{"pitch":67,"velocity":105,"startTime":30.326090999999998,"endTime":30.652178,"instrument":3,"program":50},{"pitch":67,"velocity":105,"startTime":30.652178,"endTime":30.815221499999996,"instrument":3,"program":50},{"pitch":62,"velocity":105,"startTime":30.815221499999996,"endTime":31.304351999999998,"instrument":3,"program":50},{"pitch":60,"velocity":105,"startTime":31.304351999999998,"endTime":33.641308833333326,"instrument":3,"program":50},{"pitch":66,"velocity":105,"startTime":31.304351999999998,"endTime":33.641308833333326,"instrument":3,"program":50},{"pitch":70,"velocity":105,"startTime":31.304351999999998,"endTime":33.586960999999995,"instrument":3,"program":50},{"pitch":74,"velocity":105,"startTime":31.304351999999998,"endTime":33.641308833333326,"instrument":3,"program":50},{"pitch":60,"velocity":105,"startTime":33.913047999999996,"endTime":36.195657,"instrument":3,"program":50},{"pitch":62,"velocity":105,"startTime":33.913047999999996,"endTime":36.195657,"instrument":3,"program":50},{"pitch":66,"velocity":105,"startTime":33.913047999999996,"endTime":36.195657,"instrument":3,"program":50},{"pitch":69,"velocity":105,"startTime":33.913047999999996,"endTime":36.195657,"instrument":3,"program":50},{"pitch":74,"velocity":105,"startTime":33.913047999999996,"endTime":36.195657,"instrument":3,"program":50},{"pitch":55,"velocity":105,"startTime":36.195657,"endTime":36.521744,"instrument":3,"program":50},{"pitch":62,"velocity":105,"startTime":36.195657,"endTime":36.521744,"instrument":3,"program":50},{"pitch":64,"velocity":105,"startTime":36.195657,"endTime":36.521744,"instrument":3,"program":50},{"pitch":70,"velocity":105,"startTime":36.195657,"endTime":36.521744,"instrument":3,"program":50},{"pitch":35,"velocity":102,"startTime":41.739135999999995,"endTime":41.84783166666667,"isDrum":true},{"pitch":42,"velocity":102,"startTime":41.739135999999995,"endTime":41.84783166666667,"isDrum":true},{"pitch":42,"velocity":102,"startTime":42.065222999999996,"endTime":42.173918666666665,"isDrum":true},{"pitch":35,"velocity":102,"startTime":42.2282665,"endTime":42.336962166666666,"isDrum":true},{"pitch":40,"velocity":102,"startTime":42.39131,"endTime":42.50000566666667,"isDrum":true},{"pitch":42,"velocity":102,"startTime":42.39131,"endTime":42.50000566666667,"isDrum":true},{"pitch":35,"velocity":102,"startTime":42.717397,"endTime":42.82609266666667,"isDrum":true},{"pitch":42,"velocity":102,"startTime":42.717397,"endTime":42.82609266666667,"isDrum":true},{"pitch":35,"velocity":102,"startTime":43.043484,"endTime":43.15217966666667,"isDrum":true},{"pitch":42,"velocity":102,"startTime":43.043484,"endTime":43.15217966666667,"isDrum":true},{"pitch":42,"velocity":102,"startTime":43.36957099999999,"endTime":43.47826666666667,"isDrum":true},{"pitch":40,"velocity":102,"startTime":43.695657999999995,"endTime":43.80435366666667,"isDrum":true},{"pitch":42,"velocity":102,"startTime":43.695657999999995,"endTime":43.80435366666667,"isDrum":true},{"pitch":42,"velocity":102,"startTime":44.021744999999996,"endTime":44.130440666666665,"isDrum":true},{"pitch":35,"velocity":102,"startTime":44.184788499999996,"endTime":44.293484166666666,"isDrum":true},{"pitch":42,"velocity":102,"startTime":44.347832,"endTime":44.456527666666666,"isDrum":true},{"pitch":40,"velocity":102,"startTime":44.5108755,"endTime":44.61957116666667,"isDrum":true},{"pitch":35,"velocity":102,"startTime":44.673919,"endTime":44.78261466666666,"isDrum":true},{"pitch":42,"velocity":102,"startTime":44.673919,"endTime":44.78261466666666,"isDrum":true},{"pitch":40,"velocity":102,"startTime":44.8369625,"endTime":44.94565816666666,"isDrum":true},{"pitch":40,"velocity":102,"startTime":45.000006,"endTime":45.10870166666666,"isDrum":true},{"pitch":42,"velocity":102,"startTime":45.000006,"endTime":45.10870166666666,"isDrum":true},{"pitch":35,"velocity":102,"startTime":45.32609299999999,"endTime":45.43478866666666,"isDrum":true},{"pitch":42,"velocity":102,"startTime":45.32609299999999,"endTime":45.43478866666666,"isDrum":true},{"pitch":35,"velocity":102,"startTime":45.652179999999994,"endTime":45.760875666666664,"isDrum":true},{"pitch":42,"velocity":102,"startTime":45.652179999999994,"endTime":45.760875666666664,"isDrum":true},{"pitch":42,"velocity":102,"startTime":45.978266999999995,"endTime":46.086962666666665,"isDrum":true},{"pitch":40,"velocity":102,"startTime":46.304354,"endTime":46.413049666666666,"isDrum":true},{"pitch":42,"velocity":102,"startTime":46.304354,"endTime":46.413049666666666,"isDrum":true},{"pitch":48,"velocity":102,"startTime":46.304354,"endTime":46.413049666666666,"isDrum":true},{"pitch":42,"velocity":102,"startTime":46.630441,"endTime":46.73913666666666,"isDrum":true},{"pitch":35,"velocity":102,"startTime":46.956528,"endTime":47.06522366666666,"isDrum":true},{"pitch":42,"velocity":102,"startTime":46.956528,"endTime":47.06522366666666,"isDrum":true},{"pitch":35,"velocity":102,"startTime":47.282615,"endTime":47.39131066666666,"isDrum":true},{"pitch":42,"velocity":102,"startTime":47.282615,"endTime":47.39131066666666,"isDrum":true},{"pitch":40,"velocity":102,"startTime":47.608701999999994,"endTime":47.71739766666666,"isDrum":true},{"pitch":42,"velocity":102,"startTime":47.608701999999994,"endTime":47.71739766666666,"isDrum":true},{"pitch":48,"velocity":102,"startTime":47.608701999999994,"endTime":47.71739766666666,"isDrum":true},{"pitch":40,"velocity":102,"startTime":47.771745499999994,"endTime":47.880441166666664,"isDrum":true},{"pitch":42,"velocity":102,"startTime":47.934788999999995,"endTime":48.043484666666664,"isDrum":true},{"pitch":40,"velocity":102,"startTime":48.097832499999996,"endTime":48.206528166666665,"isDrum":true},{"pitch":35,"velocity":102,"startTime":48.260875999999996,"endTime":48.369571666666666,"isDrum":true},{"pitch":42,"velocity":102,"startTime":48.260875999999996,"endTime":48.369571666666666,"isDrum":true},{"pitch":42,"velocity":102,"startTime":48.586963,"endTime":48.69565866666666,"isDrum":true},{"pitch":40,"velocity":102,"startTime":48.91305,"endTime":49.02174566666666,"isDrum":true},{"pitch":42,"velocity":102,"startTime":48.91305,"endTime":49.02174566666666,"isDrum":true},{"pitch":42,"velocity":102,"startTime":49.239137,"endTime":49.34783266666666,"isDrum":true},{"pitch":35,"velocity":102,"startTime":49.40218049999999,"endTime":49.51087616666666,"isDrum":true},{"pitch":42,"velocity":102,"startTime":49.56522399999999,"endTime":49.67391966666666,"isDrum":true},{"pitch":35,"velocity":102,"startTime":49.891310999999995,"endTime":50.000006666666664,"isDrum":true},{"pitch":42,"velocity":102,"startTime":49.891310999999995,"endTime":50.000006666666664,"isDrum":true},{"pitch":40,"velocity":102,"startTime":50.217397999999996,"endTime":50.326093666666665,"isDrum":true},{"pitch":42,"velocity":102,"startTime":50.217397999999996,"endTime":50.326093666666665,"isDrum":true},{"pitch":48,"velocity":102,"startTime":50.217397999999996,"endTime":50.326093666666665,"isDrum":true},{"pitch":48,"velocity":102,"startTime":50.380441499999996,"endTime":50.489137166666666,"isDrum":true},{"pitch":42,"velocity":102,"startTime":50.543485,"endTime":50.652180666666666,"isDrum":true},{"pitch":35,"velocity":102,"startTime":50.7065285,"endTime":50.81522416666666,"isDrum":true},{"pitch":35,"velocity":102,"startTime":50.869572,"endTime":50.97826766666666,"isDrum":true},{"pitch":42,"velocity":102,"startTime":50.869572,"endTime":50.97826766666666,"isDrum":true},{"pitch":42,"velocity":102,"startTime":51.0326155,"endTime":51.14131116666666,"isDrum":true},{"pitch":35,"velocity":102,"startTime":51.195659,"endTime":51.30435466666666,"isDrum":true},{"pitch":42,"velocity":102,"startTime":51.195659,"endTime":51.30435466666666,"isDrum":true},{"pitch":40,"velocity":102,"startTime":51.52174599999999,"endTime":51.63044166666666,"isDrum":true},{"pitch":42,"velocity":102,"startTime":51.52174599999999,"endTime":51.63044166666666,"isDrum":true},{"pitch":42,"velocity":102,"startTime":51.847832999999994,"endTime":51.956528666666664,"isDrum":true},{"pitch":35,"velocity":102,"startTime":52.173919999999995,"endTime":52.282615666666665,"isDrum":true},{"pitch":42,"velocity":102,"startTime":52.173919999999995,"endTime":52.282615666666665,"isDrum":true},{"pitch":42,"velocity":102,"startTime":52.500007,"endTime":52.608702666666666,"isDrum":true},{"pitch":40,"velocity":102,"startTime":52.826094,"endTime":52.93478966666666,"isDrum":true},{"pitch":42,"velocity":102,"startTime":52.826094,"endTime":52.93478966666666,"isDrum":true},{"pitch":42,"velocity":102,"startTime":53.152181,"endTime":53.26087666666666,"isDrum":true},{"pitch":35,"velocity":102,"startTime":53.47826799999999,"endTime":53.58696366666666,"isDrum":true},{"pitch":42,"velocity":102,"startTime":53.47826799999999,"endTime":53.58696366666666,"isDrum":true},{"pitch":35,"velocity":102,"startTime":53.804354999999994,"endTime":53.91305066666666,"isDrum":true},{"pitch":42,"velocity":102,"startTime":53.804354999999994,"endTime":53.91305066666666,"isDrum":true},{"pitch":40,"velocity":102,"startTime":54.130441999999995,"endTime":54.239137666666664,"isDrum":true},{"pitch":42,"velocity":102,"startTime":54.130441999999995,"endTime":54.239137666666664,"isDrum":true},{"pitch":48,"velocity":102,"startTime":54.130441999999995,"endTime":54.239137666666664,"isDrum":true},{"pitch":48,"velocity":102,"startTime":54.293485499999996,"endTime":54.402181166666665,"isDrum":true},{"pitch":42,"velocity":102,"startTime":54.456528999999996,"endTime":54.565224666666666,"isDrum":true},{"pitch":35,"velocity":102,"startTime":54.6195725,"endTime":54.72826816666666,"isDrum":true},{"pitch":35,"velocity":102,"startTime":54.782616,"endTime":54.89131166666666,"isDrum":true},{"pitch":42,"velocity":102,"startTime":54.782616,"endTime":54.89131166666666,"isDrum":true},{"pitch":42,"velocity":102,"startTime":55.108703,"endTime":55.21739866666666,"isDrum":true},{"pitch":35,"velocity":102,"startTime":55.2717465,"endTime":55.38044216666666,"isDrum":true},{"pitch":40,"velocity":102,"startTime":55.43478999999999,"endTime":55.54348566666666,"isDrum":true},{"pitch":42,"velocity":102,"startTime":55.43478999999999,"endTime":55.54348566666666,"isDrum":true},{"pitch":48,"velocity":102,"startTime":55.43478999999999,"endTime":55.54348566666666,"isDrum":true},{"pitch":40,"velocity":102,"startTime":55.59783349999999,"endTime":55.70652916666666,"isDrum":true},{"pitch":35,"velocity":102,"startTime":55.760876999999994,"endTime":55.86957266666666,"isDrum":true},{"pitch":42,"velocity":102,"startTime":55.760876999999994,"endTime":55.86957266666666,"isDrum":true},{"pitch":40,"velocity":102,"startTime":55.923920499999994,"endTime":56.032616166666664,"isDrum":true},{"pitch":42,"velocity":102,"startTime":56.086963999999995,"endTime":56.195659666666664,"isDrum":true},{"pitch":35,"velocity":102,"startTime":56.413050999999996,"endTime":56.521746666666665,"isDrum":true},{"pitch":42,"velocity":102,"startTime":56.413050999999996,"endTime":56.521746666666665,"isDrum":true},{"pitch":40,"velocity":102,"startTime":56.739138,"endTime":56.84783366666666,"isDrum":true},{"pitch":42,"velocity":102,"startTime":56.739138,"endTime":56.84783366666666,"isDrum":true},{"pitch":40,"velocity":102,"startTime":56.9021815,"endTime":57.01087716666666,"isDrum":true},{"pitch":42,"velocity":102,"startTime":57.065225,"endTime":57.17392066666666,"isDrum":true},{"pitch":40,"velocity":102,"startTime":57.2282685,"endTime":57.33696416666666,"isDrum":true},{"pitch":35,"velocity":102,"startTime":57.391312,"endTime":57.50000766666666,"isDrum":true},{"pitch":42,"velocity":102,"startTime":57.391312,"endTime":57.50000766666666,"isDrum":true},{"pitch":48,"velocity":102,"startTime":57.391312,"endTime":57.50000766666666,"isDrum":true},{"pitch":48,"velocity":102,"startTime":57.55435549999999,"endTime":57.66305116666666,"isDrum":true},{"pitch":42,"velocity":102,"startTime":57.71739899999999,"endTime":57.82609466666666,"isDrum":true},{"pitch":35,"velocity":102,"startTime":57.880442499999994,"endTime":57.98913816666666,"isDrum":true},{"pitch":40,"velocity":102,"startTime":57.880442499999994,"endTime":57.98913816666666,"isDrum":true},{"pitch":40,"velocity":102,"startTime":58.043485999999994,"endTime":58.152181666666664,"isDrum":true},{"pitch":42,"velocity":102,"startTime":58.043485999999994,"endTime":58.152181666666664,"isDrum":true},{"pitch":48,"velocity":102,"startTime":58.043485999999994,"endTime":58.152181666666664,"isDrum":true},{"pitch":40,"velocity":102,"startTime":58.206529499999995,"endTime":58.315225166666664,"isDrum":true},{"pitch":42,"velocity":102,"startTime":58.369572999999995,"endTime":58.478268666666665,"isDrum":true},{"pitch":40,"velocity":102,"startTime":58.532616499999996,"endTime":58.641312166666665,"isDrum":true},{"pitch":42,"velocity":102,"startTime":58.69566,"endTime":58.80435566666666,"isDrum":true},{"pitch":45,"velocity":102,"startTime":58.69566,"endTime":58.80435566666666,"isDrum":true},{"pitch":40,"velocity":102,"startTime":58.8587035,"endTime":58.96739916666666,"isDrum":true},{"pitch":35,"velocity":102,"startTime":59.021747,"endTime":59.13044266666666,"isDrum":true},{"pitch":42,"velocity":102,"startTime":59.021747,"endTime":59.13044266666666,"isDrum":true},{"pitch":40,"velocity":102,"startTime":59.347834,"endTime":59.45652966666666,"isDrum":true},{"pitch":42,"velocity":102,"startTime":59.347834,"endTime":59.45652966666666,"isDrum":true},{"pitch":40,"velocity":102,"startTime":59.51087749999999,"endTime":59.61957316666666,"isDrum":true},{"pitch":46,"velocity":102,"startTime":59.67392099999999,"endTime":59.78261666666666,"isDrum":true},{"pitch":62,"velocity":95,"startTime":41.739135999999995,"endTime":41.95652733333333,"instrument":1,"program":12},{"pitch":74,"velocity":95,"startTime":42.065222999999996,"endTime":42.39131,"instrument":1,"program":12},{"pitch":69,"velocity":95,"startTime":42.39131,"endTime":42.717397,"instrument":1,"program":12},{"pitch":74,"velocity":95,"startTime":42.717397,"endTime":42.8804405,"instrument":1,"program":12},{"pitch":74,"velocity":95,"startTime":42.93478833333332,"endTime":43.043484,"instrument":1,"program":12},{"pitch":69,"velocity":95,"startTime":43.043484,"endTime":43.15217966666667,"instrument":1,"program":12},{"pitch":74,"velocity":95,"startTime":43.36957099999999,"endTime":43.47826666666667,"instrument":1,"program":12},{"pitch":62,"velocity":95,"startTime":43.695657999999995,"endTime":43.858701499999995,"instrument":1,"program":12},{"pitch":69,"velocity":95,"startTime":44.021744999999996,"endTime":44.130440666666665,"instrument":1,"program":12},{"pitch":62,"velocity":95,"startTime":44.347832,"endTime":44.456527666666666,"instrument":1,"program":12},{"pitch":69,"velocity":95,"startTime":44.673919,"endTime":44.78261466666666,"instrument":1,"program":12},{"pitch":74,"velocity":95,"startTime":44.8369625,"endTime":44.94565816666666,"instrument":1,"program":12},{"pitch":69,"velocity":95,"startTime":45.000006,"endTime":45.10870166666666,"instrument":1,"program":12},{"pitch":74,"velocity":95,"startTime":45.1630495,"endTime":45.27174516666666,"instrument":1,"program":12},{"pitch":69,"velocity":95,"startTime":45.32609299999999,"endTime":45.43478866666666,"instrument":1,"program":12},{"pitch":74,"velocity":95,"startTime":45.489136499999994,"endTime":45.59783216666666,"instrument":1,"program":12},{"pitch":74,"velocity":95,"startTime":45.652179999999994,"endTime":45.760875666666664,"instrument":1,"program":12},{"pitch":69,"velocity":95,"startTime":45.815223499999995,"endTime":45.923919166666664,"instrument":1,"program":12},{"pitch":74,"velocity":95,"startTime":45.978266999999995,"endTime":46.086962666666665,"instrument":1,"program":12},{"pitch":69,"velocity":95,"startTime":46.141310499999996,"endTime":46.19565833333333,"instrument":1,"program":12},{"pitch":74,"velocity":95,"startTime":46.304354,"endTime":46.413049666666666,"instrument":1,"program":12},{"pitch":69,"velocity":95,"startTime":46.4673975,"endTime":46.52174533333333,"instrument":1,"program":12},{"pitch":74,"velocity":95,"startTime":46.630441,"endTime":46.73913666666666,"instrument":1,"program":12},{"pitch":69,"velocity":95,"startTime":46.7934845,"endTime":46.90218016666666,"instrument":1,"program":12},{"pitch":58,"velocity":95,"startTime":46.956528,"endTime":47.06522366666666,"instrument":1,"program":12},{"pitch":65,"velocity":95,"startTime":47.1195715,"endTime":47.22826716666666,"instrument":1,"program":12},{"pitch":67,"velocity":95,"startTime":47.282615,"endTime":47.39131066666666,"instrument":1,"program":12},{"pitch":65,"velocity":95,"startTime":47.44565849999999,"endTime":47.55435416666666,"instrument":1,"program":12},{"pitch":74,"velocity":95,"startTime":47.608701999999994,"endTime":47.71739766666666,"instrument":1,"program":12},{"pitch":67,"velocity":95,"startTime":47.771745499999994,"endTime":47.880441166666664,"instrument":1,"program":12},{"pitch":65,"velocity":95,"startTime":47.934788999999995,"endTime":48.043484666666664,"instrument":1,"program":12},{"pitch":67,"velocity":95,"startTime":48.097832499999996,"endTime":48.206528166666665,"instrument":1,"program":12},{"pitch":58,"velocity":95,"startTime":48.260875999999996,"endTime":48.369571666666666,"instrument":1,"program":12},{"pitch":67,"velocity":95,"startTime":48.4239195,"endTime":48.532615166666666,"instrument":1,"program":12},{"pitch":70,"velocity":95,"startTime":48.586963,"endTime":48.69565866666666,"instrument":1,"program":12},{"pitch":67,"velocity":95,"startTime":48.7500065,"endTime":48.85870216666666,"instrument":1,"program":12},{"pitch":58,"velocity":95,"startTime":48.91305,"endTime":49.02174566666666,"instrument":1,"program":12},{"pitch":67,"velocity":95,"startTime":49.0760935,"endTime":49.18478916666666,"instrument":1,"program":12},{"pitch":65,"velocity":95,"startTime":49.239137,"endTime":49.34783266666666,"instrument":1,"program":12},{"pitch":67,"velocity":95,"startTime":49.40218049999999,"endTime":49.51087616666666,"instrument":1,"program":12},{"pitch":62,"velocity":95,"startTime":49.56522399999999,"endTime":49.67391966666666,"instrument":1,"program":12},{"pitch":67,"velocity":95,"startTime":49.728267499999994,"endTime":49.83696316666666,"instrument":1,"program":12},{"pitch":70,"velocity":95,"startTime":49.891310999999995,"endTime":50.000006666666664,"instrument":1,"program":12},{"pitch":67,"velocity":95,"startTime":50.054354499999995,"endTime":50.163050166666665,"instrument":1,"program":12},{"pitch":70,"velocity":95,"startTime":50.217397999999996,"endTime":50.326093666666665,"instrument":1,"program":12},{"pitch":67,"velocity":95,"startTime":50.380441499999996,"endTime":50.489137166666666,"instrument":1,"program":12},{"pitch":70,"velocity":95,"startTime":50.543485,"endTime":50.652180666666666,"instrument":1,"program":12},{"pitch":67,"velocity":95,"startTime":50.7065285,"endTime":50.81522416666666,"instrument":1,"program":12},{"pitch":70,"velocity":95,"startTime":50.869572,"endTime":50.97826766666666,"instrument":1,"program":12},{"pitch":67,"velocity":95,"startTime":51.0326155,"endTime":51.14131116666666,"instrument":1,"program":12},{"pitch":70,"velocity":95,"startTime":51.195659,"endTime":51.30435466666666,"instrument":1,"program":12},{"pitch":70,"velocity":95,"startTime":51.35870249999999,"endTime":51.46739816666666,"instrument":1,"program":12},{"pitch":62,"velocity":95,"startTime":51.52174599999999,"endTime":51.63044166666666,"instrument":1,"program":12},{"pitch":67,"velocity":95,"startTime":51.684789499999994,"endTime":51.79348516666666,"instrument":1,"program":12},{"pitch":70,"velocity":95,"startTime":51.847832999999994,"endTime":51.956528666666664,"instrument":1,"program":12},{"pitch":67,"velocity":95,"startTime":52.010876499999995,"endTime":52.119572166666664,"instrument":1,"program":12},{"pitch":62,"velocity":95,"startTime":52.173919999999995,"endTime":52.282615666666665,"instrument":1,"program":12},{"pitch":69,"velocity":95,"startTime":52.336963499999996,"endTime":52.445659166666665,"instrument":1,"program":12},{"pitch":72,"velocity":95,"startTime":52.500007,"endTime":52.608702666666666,"instrument":1,"program":12},{"pitch":78,"velocity":95,"startTime":52.6630505,"endTime":52.77174616666666,"instrument":1,"program":12},{"pitch":69,"velocity":95,"startTime":52.826094,"endTime":52.93478966666666,"instrument":1,"program":12},{"pitch":72,"velocity":95,"startTime":52.9891375,"endTime":53.09783316666666,"instrument":1,"program":12},{"pitch":78,"velocity":95,"startTime":53.152181,"endTime":53.26087666666666,"instrument":1,"program":12},{"pitch":72,"velocity":95,"startTime":53.3152245,"endTime":53.42392016666666,"instrument":1,"program":12},{"pitch":62,"velocity":95,"startTime":53.47826799999999,"endTime":53.58696366666666,"instrument":1,"program":12},{"pitch":72,"velocity":95,"startTime":53.64131149999999,"endTime":53.75000716666666,"instrument":1,"program":12},{"pitch":78,"velocity":95,"startTime":53.804354999999994,"endTime":53.91305066666666,"instrument":1,"program":12},{"pitch":74,"velocity":95,"startTime":53.967398499999994,"endTime":54.02174633333333,"instrument":1,"program":12},{"pitch":78,"velocity":95,"startTime":54.130441999999995,"endTime":54.184789833333326,"instrument":1,"program":12},{"pitch":72,"velocity":95,"startTime":54.293485499999996,"endTime":54.34783333333333,"instrument":1,"program":12},{"pitch":69,"velocity":95,"startTime":54.456528999999996,"endTime":54.565224666666666,"instrument":1,"program":12},{"pitch":62,"velocity":95,"startTime":54.6195725,"endTime":54.72826816666666,"instrument":1,"program":12},{"pitch":62,"velocity":95,"startTime":54.782616,"endTime":54.89131166666666,"instrument":1,"program":12},{"pitch":72,"velocity":95,"startTime":54.9456595,"endTime":55.05435516666666,"instrument":1,"program":12},{"pitch":69,"velocity":95,"startTime":55.108703,"endTime":55.21739866666666,"instrument":1,"program":12},{"pitch":72,"velocity":95,"startTime":55.2717465,"endTime":55.38044216666666,"instrument":1,"program":12},{"pitch":62,"velocity":95,"startTime":55.43478999999999,"endTime":55.54348566666666,"instrument":1,"program":12},{"pitch":69,"velocity":95,"startTime":55.59783349999999,"endTime":55.70652916666666,"instrument":1,"program":12},{"pitch":72,"velocity":95,"startTime":55.760876999999994,"endTime":55.86957266666666,"instrument":1,"program":12},{"pitch":72,"velocity":95,"startTime":55.923920499999994,"endTime":55.97826833333333,"instrument":1,"program":12},{"pitch":69,"velocity":95,"startTime":56.086963999999995,"endTime":56.195659666666664,"instrument":1,"program":12},{"pitch":72,"velocity":95,"startTime":56.250007499999995,"endTime":56.358703166666665,"instrument":1,"program":12},{"pitch":78,"velocity":95,"startTime":56.413050999999996,"endTime":56.521746666666665,"instrument":1,"program":12},{"pitch":72,"velocity":95,"startTime":56.576094499999996,"endTime":56.684790166666666,"instrument":1,"program":12},{"pitch":78,"velocity":95,"startTime":56.739138,"endTime":56.84783366666666,"instrument":1,"program":12},{"pitch":69,"velocity":95,"startTime":56.9021815,"endTime":56.95652933333333,"instrument":1,"program":12},{"pitch":69,"velocity":95,"startTime":57.065225,"endTime":57.17392066666666,"instrument":1,"program":12},{"pitch":72,"velocity":95,"startTime":57.2282685,"endTime":57.33696416666666,"instrument":1,"program":12},{"pitch":58,"velocity":95,"startTime":57.391312,"endTime":57.55435549999999,"instrument":1,"program":12},{"pitch":67,"velocity":95,"startTime":57.55435549999999,"endTime":57.66305116666666,"instrument":1,"program":12},{"pitch":70,"velocity":95,"startTime":57.71739899999999,"endTime":57.82609466666666,"instrument":1,"program":12},{"pitch":76,"velocity":95,"startTime":57.880442499999994,"endTime":57.98913816666666,"instrument":1,"program":12},{"pitch":79,"velocity":95,"startTime":58.043485999999994,"endTime":58.152181666666664,"instrument":1,"program":12},{"pitch":70,"velocity":95,"startTime":58.206529499999995,"endTime":58.260877333333326,"instrument":1,"program":12},{"pitch":67,"velocity":95,"startTime":58.369572999999995,"endTime":58.478268666666665,"instrument":1,"program":12},{"pitch":76,"velocity":95,"startTime":58.532616499999996,"endTime":58.58696433333333,"instrument":1,"program":12},{"pitch":79,"velocity":95,"startTime":58.69566,"endTime":58.80435566666666,"instrument":1,"program":12},{"pitch":67,"velocity":95,"startTime":58.8587035,"endTime":58.91305133333333,"instrument":1,"program":12},{"pitch":70,"velocity":95,"startTime":59.021747,"endTime":59.13044266666666,"instrument":1,"program":12},{"pitch":76,"velocity":95,"startTime":59.1847905,"endTime":59.29348616666666,"instrument":1,"program":12},{"pitch":76,"velocity":95,"startTime":59.347834,"endTime":59.45652966666666,"instrument":1,"program":12},{"pitch":70,"velocity":95,"startTime":59.51087749999999,"endTime":59.56522533333333,"instrument":1,"program":12},{"pitch":67,"velocity":95,"startTime":59.67392099999999,"endTime":59.78261666666666,"instrument":1,"program":12},{"pitch":70,"velocity":95,"startTime":59.83696449999999,"endTime":59.94566016666666,"instrument":1,"program":12},{"pitch":62,"velocity":95,"startTime":60.000007999999994,"endTime":60.10870366666666,"instrument":1,"program":12},{"pitch":67,"velocity":95,"startTime":60.163051499999995,"endTime":60.271747166666664,"instrument":1,"program":12},{"pitch":70,"velocity":95,"startTime":60.326094999999995,"endTime":60.434790666666665,"instrument":1,"program":12},{"pitch":67,"velocity":95,"startTime":60.489138499999996,"endTime":60.597834166666665,"instrument":1,"program":12},{"pitch":74,"velocity":95,"startTime":60.652181999999996,"endTime":60.76087766666666,"instrument":1,"program":12},{"pitch":67,"velocity":95,"startTime":60.8152255,"endTime":60.86957333333333,"instrument":1,"program":12},{"pitch":70,"velocity":95,"startTime":60.978269,"endTime":61.08696466666666,"instrument":1,"program":12},{"pitch":67,"velocity":95,"startTime":61.1413125,"endTime":61.25000816666666,"instrument":1,"program":12},{"pitch":79,"velocity":95,"startTime":61.304356,"endTime":61.41305166666666,"instrument":1,"program":12},{"pitch":74,"velocity":95,"startTime":61.46739949999999,"endTime":61.57609516666666,"instrument":1,"program":12},{"pitch":70,"velocity":95,"startTime":61.63044299999999,"endTime":61.73913866666666,"instrument":1,"program":12},{"pitch":74,"velocity":95,"startTime":61.79348649999999,"endTime":61.90218216666666,"instrument":1,"program":12},{"pitch":62,"velocity":95,"startTime":61.956529999999994,"endTime":62.06522566666666,"instrument":1,"program":12},{"pitch":70,"velocity":95,"startTime":62.119573499999994,"endTime":62.228269166666664,"instrument":1,"program":12},{"pitch":62,"velocity":95,"startTime":62.282616999999995,"endTime":62.391312666666664,"instrument":1,"program":12},{"pitch":67,"velocity":95,"startTime":62.445660499999995,"endTime":62.554356166666665,"instrument":1,"program":12},{"pitch":38,"velocity":110,"startTime":41.739135999999995,"endTime":41.902179499999995,"instrument":2,"program":32},{"pitch":38,"velocity":110,"startTime":42.065222999999996,"endTime":42.2282665,"instrument":2,"program":32},{"pitch":38,"velocity":110,"startTime":42.39131,"endTime":42.5543535,"instrument":2,"program":32},{"pitch":45,"velocity":110,"startTime":42.717397,"endTime":42.8804405,"instrument":2,"program":32},{"pitch":45,"velocity":110,"startTime":43.043484,"endTime":43.2065275,"instrument":2,"program":32},{"pitch":45,"velocity":110,"startTime":43.36957099999999,"endTime":43.532614499999994,"instrument":2,"program":32},{"pitch":38,"velocity":110,"startTime":43.695657999999995,"endTime":43.858701499999995,"instrument":2,"program":32},{"pitch":50,"velocity":110,"startTime":44.021744999999996,"endTime":44.184788499999996,"instrument":2,"program":32},{"pitch":38,"velocity":110,"startTime":44.347832,"endTime":44.5108755,"instrument":2,"program":32},{"pitch":38,"velocity":110,"startTime":44.673919,"endTime":44.8369625,"instrument":2,"program":32},{"pitch":42,"velocity":110,"startTime":45.000006,"endTime":45.1630495,"instrument":2,"program":32},{"pitch":45,"velocity":110,"startTime":45.32609299999999,"endTime":45.489136499999994,"instrument":2,"program":32},{"pitch":45,"velocity":110,"startTime":45.652179999999994,"endTime":45.815223499999995,"instrument":2,"program":32},{"pitch":45,"velocity":110,"startTime":45.978266999999995,"endTime":46.141310499999996,"instrument":2,"program":32},{"pitch":38,"velocity":110,"startTime":46.304354,"endTime":46.4673975,"instrument":2,"program":32},{"pitch":50,"velocity":110,"startTime":46.630441,"endTime":46.7934845,"instrument":2,"program":32},{"pitch":34,"velocity":110,"startTime":46.956528,"endTime":47.1195715,"instrument":2,"program":32},{"pitch":34,"velocity":110,"startTime":47.282615,"endTime":47.44565849999999,"instrument":2,"program":32},{"pitch":38,"velocity":110,"startTime":47.608701999999994,"endTime":47.771745499999994,"instrument":2,"program":32},{"pitch":41,"velocity":110,"startTime":47.934788999999995,"endTime":48.097832499999996,"instrument":2,"program":32},{"pitch":34,"velocity":110,"startTime":48.260875999999996,"endTime":48.4239195,"instrument":2,"program":32},{"pitch":38,"velocity":110,"startTime":48.586963,"endTime":48.7500065,"instrument":2,"program":32},{"pitch":34,"velocity":110,"startTime":48.91305,"endTime":49.0760935,"instrument":2,"program":32},{"pitch":38,"velocity":110,"startTime":49.239137,"endTime":49.40218049999999,"instrument":2,"program":32},{"pitch":31,"velocity":110,"startTime":49.56522399999999,"endTime":49.67391966666666,"instrument":2,"program":32},{"pitch":38,"velocity":110,"startTime":49.891310999999995,"endTime":50.054354499999995,"instrument":2,"program":32},{"pitch":41,"velocity":110,"startTime":50.217397999999996,"endTime":50.380441499999996,"instrument":2,"program":32},{"pitch":38,"velocity":110,"startTime":50.543485,"endTime":50.7065285,"instrument":2,"program":32},{"pitch":34,"velocity":110,"startTime":50.869572,"endTime":51.0326155,"instrument":2,"program":32},{"pitch":38,"velocity":110,"startTime":51.195659,"endTime":51.35870249999999,"instrument":2,"program":32},{"pitch":38,"velocity":110,"startTime":51.52174599999999,"endTime":51.684789499999994,"instrument":2,"program":32},{"pitch":46,"velocity":110,"startTime":51.847832999999994,"endTime":52.010876499999995,"instrument":2,"program":32},{"pitch":38,"velocity":110,"startTime":52.173919999999995,"endTime":52.336963499999996,"instrument":2,"program":32},{"pitch":33,"velocity":110,"startTime":52.500007,"endTime":52.6630505,"instrument":2,"program":32},{"pitch":33,"velocity":110,"startTime":52.826094,"endTime":52.9891375,"instrument":2,"program":32},{"pitch":33,"velocity":110,"startTime":53.152181,"endTime":53.3152245,"instrument":2,"program":32},{"pitch":33,"velocity":110,"startTime":53.47826799999999,"endTime":53.64131149999999,"instrument":2,"program":32},{"pitch":33,"velocity":110,"startTime":53.804354999999994,"endTime":53.967398499999994,"instrument":2,"program":32},{"pitch":38,"velocity":110,"startTime":54.130441999999995,"endTime":54.293485499999996,"instrument":2,"program":32},{"pitch":33,"velocity":110,"startTime":54.456528999999996,"endTime":54.6195725,"instrument":2,"program":32},{"pitch":38,"velocity":110,"startTime":54.782616,"endTime":54.9456595,"instrument":2,"program":32},{"pitch":38,"velocity":110,"startTime":55.108703,"endTime":55.2717465,"instrument":2,"program":32},{"pitch":38,"velocity":110,"startTime":55.43478999999999,"endTime":55.59783349999999,"instrument":2,"program":32},{"pitch":38,"velocity":110,"startTime":55.760876999999994,"endTime":55.923920499999994,"instrument":2,"program":32},{"pitch":38,"velocity":110,"startTime":56.086963999999995,"endTime":56.250007499999995,"instrument":2,"program":32},{"pitch":33,"velocity":110,"startTime":56.413050999999996,"endTime":56.576094499999996,"instrument":2,"program":32},{"pitch":38,"velocity":110,"startTime":56.739138,"endTime":56.9021815,"instrument":2,"program":32},{"pitch":38,"velocity":110,"startTime":57.065225,"endTime":57.2282685,"instrument":2,"program":32},{"pitch":31,"velocity":110,"startTime":57.391312,"endTime":57.55435549999999,"instrument":2,"program":32},{"pitch":34,"velocity":110,"startTime":57.71739899999999,"endTime":57.880442499999994,"instrument":2,"program":32},{"pitch":38,"velocity":110,"startTime":58.043485999999994,"endTime":58.206529499999995,"instrument":2,"program":32},{"pitch":38,"velocity":110,"startTime":58.369572999999995,"endTime":58.532616499999996,"instrument":2,"program":32},{"pitch":31,"velocity":110,"startTime":58.69566,"endTime":58.8587035,"instrument":2,"program":32},{"pitch":31,"velocity":110,"startTime":59.021747,"endTime":59.1847905,"instrument":2,"program":32},{"pitch":38,"velocity":110,"startTime":59.347834,"endTime":59.51087749999999,"instrument":2,"program":32},{"pitch":31,"velocity":110,"startTime":59.67392099999999,"endTime":59.83696449999999,"instrument":2,"program":32},{"pitch":43,"velocity":110,"startTime":60.000007999999994,"endTime":60.163051499999995,"instrument":2,"program":32},{"pitch":43,"velocity":110,"startTime":60.326094999999995,"endTime":60.489138499999996,"instrument":2,"program":32},{"pitch":43,"velocity":110,"startTime":60.652181999999996,"endTime":60.8152255,"instrument":2,"program":32},{"pitch":38,"velocity":110,"startTime":60.978269,"endTime":61.1413125,"instrument":2,"program":32},{"pitch":34,"velocity":110,"startTime":61.304356,"endTime":61.46739949999999,"instrument":2,"program":32},{"pitch":38,"velocity":110,"startTime":61.63044299999999,"endTime":61.79348649999999,"instrument":2,"program":32},{"pitch":37,"velocity":110,"startTime":61.956529999999994,"endTime":62.119573499999994,"instrument":2,"program":32},{"pitch":38,"velocity":110,"startTime":62.282616999999995,"endTime":62.445660499999995,"instrument":2,"program":32},{"pitch":62,"velocity":105,"startTime":41.739135999999995,"endTime":44.347832,"instrument":3,"program":50},{"pitch":66,"velocity":105,"startTime":41.739135999999995,"endTime":44.347832,"instrument":3,"program":50},{"pitch":69,"velocity":105,"startTime":41.739135999999995,"endTime":44.347832,"instrument":3,"program":50},{"pitch":72,"velocity":105,"startTime":41.739135999999995,"endTime":44.347832,"instrument":3,"program":50},{"pitch":60,"velocity":105,"startTime":44.347832,"endTime":46.304354,"instrument":3,"program":50},{"pitch":62,"velocity":105,"startTime":44.347832,"endTime":46.304354,"instrument":3,"program":50},{"pitch":66,"velocity":105,"startTime":44.347832,"endTime":46.304354,"instrument":3,"program":50},{"pitch":69,"velocity":105,"startTime":44.347832,"endTime":46.304354,"instrument":3,"program":50},{"pitch":58,"velocity":105,"startTime":46.304354,"endTime":46.956528,"instrument":3,"program":50},{"pitch":62,"velocity":105,"startTime":46.304354,"endTime":46.956528,"instrument":3,"program":50},{"pitch":66,"velocity":105,"startTime":46.304354,"endTime":46.956528,"instrument":3,"program":50},{"pitch":70,"velocity":105,"startTime":46.304354,"endTime":46.956528,"instrument":3,"program":50},{"pitch":62,"velocity":105,"startTime":46.956528,"endTime":49.56522399999999,"instrument":3,"program":50},{"pitch":67,"velocity":105,"startTime":46.956528,"endTime":49.56522399999999,"instrument":3,"program":50},{"pitch":74,"velocity":105,"startTime":46.956528,"endTime":49.56522399999999,"instrument":3,"program":50},{"pitch":62,"velocity":105,"startTime":49.56522399999999,"endTime":52.173919999999995,"instrument":3,"program":50},{"pitch":67,"velocity":105,"startTime":49.56522399999999,"endTime":52.173919999999995,"instrument":3,"program":50},{"pitch":74,"velocity":105,"startTime":49.56522399999999,"endTime":52.173919999999995,"instrument":3,"program":50},{"pitch":77,"velocity":105,"startTime":49.56522399999999,"endTime":52.173919999999995,"instrument":3,"program":50},{"pitch":60,"velocity":105,"startTime":52.173919999999995,"endTime":54.51087683333333,"instrument":3,"program":50},{"pitch":66,"velocity":105,"startTime":52.173919999999995,"endTime":54.456528999999996,"instrument":3,"program":50},{"pitch":69,"velocity":105,"startTime":52.173919999999995,"endTime":54.456528999999996,"instrument":3,"program":50},{"pitch":78,"velocity":105,"startTime":52.173919999999995,"endTime":54.51087683333333,"instrument":3,"program":50},{"pitch":62,"velocity":105,"startTime":52.6630505,"endTime":54.456528999999996,"instrument":3,"program":50},{"pitch":66,"velocity":105,"startTime":54.782616,"endTime":57.391312,"instrument":3,"program":50},{"pitch":69,"velocity":105,"startTime":54.782616,"endTime":57.391312,"instrument":3,"program":50},{"pitch":74,"velocity":105,"startTime":54.782616,"endTime":57.391312,"instrument":3,"program":50},{"pitch":76,"velocity":105,"startTime":54.782616,"endTime":57.391312,"instrument":3,"program":50},{"pitch":62,"velocity":105,"startTime":57.391312,"endTime":60.000007999999994,"instrument":3,"program":50},{"pitch":65,"velocity":105,"startTime":57.391312,"endTime":60.000007999999994,"instrument":3,"program":50},{"pitch":70,"velocity":105,"startTime":57.391312,"endTime":60.000007999999994,"instrument":3,"program":50},{"pitch":67,"velocity":105,"startTime":57.50000766666666,"endTime":60.000007999999994,"instrument":3,"program":50},{"pitch":58,"velocity":105,"startTime":60.000007999999994,"endTime":62.608703999999996,"instrument":3,"program":50},{"pitch":65,"velocity":105,"startTime":60.000007999999994,"endTime":62.608703999999996,"instrument":3,"program":50},{"pitch":67,"velocity":105,"startTime":60.000007999999994,"endTime":62.608703999999996,"instrument":3,"program":50},{"pitch":74,"velocity":105,"startTime":60.000007999999994,"endTime":62.608703999999996,"instrument":3,"program":50},{"pitch":35,"velocity":102,"startTime":62.608703999999996,"endTime":62.717399666666665,"isDrum":true},{"pitch":42,"velocity":102,"startTime":62.608703999999996,"endTime":62.717399666666665,"isDrum":true},{"pitch":51,"velocity":102,"startTime":62.608703999999996,"endTime":62.717399666666665,"isDrum":true},{"pitch":42,"velocity":102,"startTime":62.934791,"endTime":63.04348666666666,"isDrum":true},{"pitch":51,"velocity":102,"startTime":62.934791,"endTime":63.04348666666666,"isDrum":true},{"pitch":38,"velocity":102,"startTime":63.260878,"endTime":63.36957366666666,"isDrum":true},{"pitch":40,"velocity":102,"startTime":63.260878,"endTime":63.36957366666666,"isDrum":true},{"pitch":42,"velocity":102,"startTime":63.260878,"endTime":63.36957366666666,"isDrum":true},{"pitch":42,"velocity":102,"startTime":63.58696499999999,"endTime":63.69566066666666,"isDrum":true},{"pitch":51,"velocity":102,"startTime":63.58696499999999,"endTime":63.69566066666666,"isDrum":true},{"pitch":35,"velocity":102,"startTime":63.75000849999999,"endTime":63.85870416666666,"isDrum":true},{"pitch":35,"velocity":102,"startTime":63.91305199999999,"endTime":64.02174766666666,"isDrum":true},{"pitch":42,"velocity":102,"startTime":63.91305199999999,"endTime":64.02174766666666,"isDrum":true},{"pitch":42,"velocity":102,"startTime":64.0760955,"endTime":64.18479116666666,"isDrum":true},{"pitch":35,"velocity":102,"startTime":64.239139,"endTime":64.34783466666666,"isDrum":true},{"pitch":42,"velocity":102,"startTime":64.239139,"endTime":64.34783466666666,"isDrum":true},{"pitch":51,"velocity":102,"startTime":64.239139,"endTime":64.34783466666666,"isDrum":true},{"pitch":40,"velocity":102,"startTime":64.4021825,"endTime":64.51087816666666,"isDrum":true},{"pitch":38,"velocity":102,"startTime":64.565226,"endTime":64.67392166666666,"isDrum":true},{"pitch":42,"velocity":102,"startTime":64.565226,"endTime":64.67392166666666,"isDrum":true},{"pitch":40,"velocity":102,"startTime":64.7282695,"endTime":64.83696516666666,"isDrum":true},{"pitch":35,"velocity":102,"startTime":64.891313,"endTime":65.00000866666666,"isDrum":true},{"pitch":42,"velocity":102,"startTime":64.891313,"endTime":65.00000866666666,"isDrum":true},{"pitch":35,"velocity":102,"startTime":65.0543565,"endTime":65.16305216666666,"isDrum":true},{"pitch":35,"velocity":102,"startTime":65.2174,"endTime":65.32609566666666,"isDrum":true},{"pitch":42,"velocity":102,"startTime":65.2174,"endTime":65.32609566666666,"isDrum":true},{"pitch":40,"velocity":102,"startTime":65.3804435,"endTime":65.48913916666666,"isDrum":true},{"pitch":42,"velocity":102,"startTime":65.543487,"endTime":65.65218266666666,"isDrum":true},{"pitch":35,"velocity":102,"startTime":65.7065305,"endTime":65.81522616666666,"isDrum":true},{"pitch":38,"velocity":102,"startTime":65.869574,"endTime":65.97826966666666,"isDrum":true},{"pitch":40,"velocity":102,"startTime":65.869574,"endTime":65.97826966666666,"isDrum":true},{"pitch":42,"velocity":102,"startTime":65.869574,"endTime":65.97826966666666,"isDrum":true},{"pitch":42,"velocity":102,"startTime":66.195661,"endTime":66.30435666666666,"isDrum":true},{"pitch":40,"velocity":102,"startTime":66.3587045,"endTime":66.46740016666666,"isDrum":true},{"pitch":35,"velocity":102,"startTime":66.52174799999999,"endTime":66.63044366666666,"isDrum":true},{"pitch":42,"velocity":102,"startTime":66.52174799999999,"endTime":66.63044366666666,"isDrum":true},{"pitch":40,"velocity":102,"startTime":66.68479149999999,"endTime":66.79348716666667,"isDrum":true},{"pitch":35,"velocity":102,"startTime":66.84783499999999,"endTime":66.95653066666667,"isDrum":true},{"pitch":42,"velocity":102,"startTime":66.84783499999999,"endTime":66.95653066666667,"isDrum":true},{"pitch":38,"velocity":102,"startTime":67.17392199999999,"endTime":67.28261766666667,"isDrum":true},{"pitch":40,"velocity":102,"startTime":67.17392199999999,"endTime":67.28261766666667,"isDrum":true},{"pitch":42,"velocity":102,"startTime":67.17392199999999,"endTime":67.28261766666667,"isDrum":true},{"pitch":42,"velocity":102,"startTime":67.50000899999999,"endTime":67.60870466666667,"isDrum":true},{"pitch":35,"velocity":102,"startTime":67.82609599999999,"endTime":67.93479166666665,"isDrum":true},{"pitch":42,"velocity":102,"startTime":67.82609599999999,"endTime":67.93479166666665,"isDrum":true},{"pitch":42,"velocity":102,"startTime":68.152183,"endTime":68.26087866666666,"isDrum":true},{"pitch":38,"velocity":102,"startTime":68.47827,"endTime":68.58696566666666,"isDrum":true},{"pitch":40,"velocity":102,"startTime":68.47827,"endTime":68.58696566666666,"isDrum":true},{"pitch":42,"velocity":102,"startTime":68.47827,"endTime":68.58696566666666,"isDrum":true},{"pitch":42,"velocity":102,"startTime":68.804357,"endTime":68.91305266666666,"isDrum":true},{"pitch":35,"velocity":102,"startTime":68.9674005,"endTime":69.07609616666666,"isDrum":true},{"pitch":35,"velocity":102,"startTime":69.130444,"endTime":69.23913966666666,"isDrum":true},{"pitch":42,"velocity":102,"startTime":69.130444,"endTime":69.23913966666666,"isDrum":true},{"pitch":40,"velocity":102,"startTime":69.2934875,"endTime":69.40218316666666,"isDrum":true},{"pitch":35,"velocity":102,"startTime":69.456531,"endTime":69.56522666666666,"isDrum":true},{"pitch":42,"velocity":102,"startTime":69.456531,"endTime":69.56522666666666,"isDrum":true},{"pitch":35,"velocity":102,"startTime":69.6195745,"endTime":69.72827016666666,"isDrum":true},{"pitch":40,"velocity":102,"startTime":69.782618,"endTime":69.89131366666666,"isDrum":true},{"pitch":42,"velocity":102,"startTime":69.782618,"endTime":69.89131366666666,"isDrum":true},{"pitch":35,"velocity":102,"startTime":70.108705,"endTime":70.21740066666666,"isDrum":true},{"pitch":42,"velocity":102,"startTime":70.108705,"endTime":70.21740066666666,"isDrum":true},{"pitch":40,"velocity":102,"startTime":70.2717485,"endTime":70.38044416666666,"isDrum":true},{"pitch":35,"velocity":102,"startTime":70.434792,"endTime":70.54348766666666,"isDrum":true},{"pitch":42,"velocity":102,"startTime":70.434792,"endTime":70.54348766666666,"isDrum":true},{"pitch":42,"velocity":102,"startTime":70.76087899999999,"endTime":70.86957466666667,"isDrum":true},{"pitch":38,"velocity":102,"startTime":71.08696599999999,"endTime":71.19566166666667,"isDrum":true},{"pitch":40,"velocity":102,"startTime":71.08696599999999,"endTime":71.19566166666667,"isDrum":true},{"pitch":42,"velocity":102,"startTime":71.08696599999999,"endTime":71.19566166666667,"isDrum":true},{"pitch":42,"velocity":102,"startTime":71.41305299999999,"endTime":71.52174866666667,"isDrum":true},{"pitch":35,"velocity":102,"startTime":71.57609649999999,"endTime":71.68479216666667,"isDrum":true},{"pitch":35,"velocity":102,"startTime":71.73913999999999,"endTime":71.84783566666665,"isDrum":true},{"pitch":42,"velocity":102,"startTime":71.73913999999999,"endTime":71.84783566666665,"isDrum":true},{"pitch":38,"velocity":102,"startTime":71.90218349999999,"endTime":72.01087916666665,"isDrum":true},{"pitch":35,"velocity":102,"startTime":72.065227,"endTime":72.17392266666666,"isDrum":true},{"pitch":42,"velocity":102,"startTime":72.065227,"endTime":72.17392266666666,"isDrum":true},{"pitch":38,"velocity":102,"startTime":72.391314,"endTime":72.50000966666666,"isDrum":true},{"pitch":42,"velocity":102,"startTime":72.391314,"endTime":72.50000966666666,"isDrum":true},{"pitch":35,"velocity":102,"startTime":72.717401,"endTime":72.82609666666666,"isDrum":true},{"pitch":42,"velocity":102,"startTime":72.717401,"endTime":72.82609666666666,"isDrum":true},{"pitch":40,"velocity":102,"startTime":72.8804445,"endTime":72.98914016666666,"isDrum":true},{"pitch":35,"velocity":102,"startTime":73.043488,"endTime":73.15218366666666,"isDrum":true},{"pitch":42,"velocity":102,"startTime":73.043488,"endTime":73.15218366666666,"isDrum":true},{"pitch":42,"velocity":102,"startTime":73.369575,"endTime":73.47827066666666,"isDrum":true},{"pitch":38,"velocity":102,"startTime":73.695662,"endTime":73.80435766666666,"isDrum":true},{"pitch":42,"velocity":102,"startTime":73.695662,"endTime":73.80435766666666,"isDrum":true},{"pitch":35,"velocity":102,"startTime":74.021749,"endTime":74.13044466666666,"isDrum":true},{"pitch":42,"velocity":102,"startTime":74.021749,"endTime":74.13044466666666,"isDrum":true},{"pitch":40,"velocity":102,"startTime":74.1847925,"endTime":74.29348816666666,"isDrum":true},{"pitch":42,"velocity":102,"startTime":74.347836,"endTime":74.45653166666666,"isDrum":true},{"pitch":35,"velocity":102,"startTime":74.5108795,"endTime":74.61957516666666,"isDrum":true},{"pitch":42,"velocity":102,"startTime":74.67392299999999,"endTime":74.78261866666666,"isDrum":true},{"pitch":35,"velocity":102,"startTime":74.83696649999999,"endTime":74.94566216666666,"isDrum":true},{"pitch":38,"velocity":102,"startTime":75.00000999999999,"endTime":75.10870566666667,"isDrum":true},{"pitch":40,"velocity":102,"startTime":75.00000999999999,"endTime":75.10870566666667,"isDrum":true},{"pitch":42,"velocity":102,"startTime":75.00000999999999,"endTime":75.10870566666667,"isDrum":true},{"pitch":40,"velocity":102,"startTime":75.16305349999999,"endTime":75.27174916666667,"isDrum":true},{"pitch":42,"velocity":102,"startTime":75.32609699999999,"endTime":75.43479266666667,"isDrum":true},{"pitch":40,"velocity":102,"startTime":75.48914049999999,"endTime":75.59783616666667,"isDrum":true},{"pitch":35,"velocity":102,"startTime":75.65218399999999,"endTime":75.76087966666667,"isDrum":true},{"pitch":42,"velocity":102,"startTime":75.65218399999999,"endTime":75.76087966666667,"isDrum":true},{"pitch":42,"velocity":102,"startTime":75.97827099999999,"endTime":76.08696666666665,"isDrum":true},{"pitch":38,"velocity":102,"startTime":76.304358,"endTime":76.41305366666666,"isDrum":true},{"pitch":42,"velocity":102,"startTime":76.304358,"endTime":76.41305366666666,"isDrum":true},{"pitch":35,"velocity":102,"startTime":76.630445,"endTime":76.73914066666666,"isDrum":true},{"pitch":42,"velocity":102,"startTime":76.630445,"endTime":76.73914066666666,"isDrum":true},{"pitch":35,"velocity":102,"startTime":76.956532,"endTime":77.06522766666666,"isDrum":true},{"pitch":42,"velocity":102,"startTime":76.956532,"endTime":77.06522766666666,"isDrum":true},{"pitch":35,"velocity":102,"startTime":77.282619,"endTime":77.39131466666666,"isDrum":true},{"pitch":42,"velocity":102,"startTime":77.282619,"endTime":77.39131466666666,"isDrum":true},{"pitch":38,"velocity":102,"startTime":77.608706,"endTime":77.71740166666666,"isDrum":true},{"pitch":42,"velocity":102,"startTime":77.608706,"endTime":77.71740166666666,"isDrum":true},{"pitch":42,"velocity":102,"startTime":77.934793,"endTime":78.04348866666666,"isDrum":true},{"pitch":35,"velocity":102,"startTime":78.26088,"endTime":78.36957566666666,"isDrum":true},{"pitch":42,"velocity":102,"startTime":78.26088,"endTime":78.36957566666666,"isDrum":true},{"pitch":40,"velocity":102,"startTime":78.4239235,"endTime":78.53261916666666,"isDrum":true},{"pitch":42,"velocity":102,"startTime":78.58696699999999,"endTime":78.69566266666666,"isDrum":true},{"pitch":35,"velocity":102,"startTime":78.75001049999999,"endTime":78.85870616666666,"isDrum":true},{"pitch":38,"velocity":102,"startTime":78.91305399999999,"endTime":79.02174966666666,"isDrum":true},{"pitch":40,"velocity":102,"startTime":78.91305399999999,"endTime":79.02174966666666,"isDrum":true},{"pitch":42,"velocity":102,"startTime":78.91305399999999,"endTime":79.02174966666666,"isDrum":true},{"pitch":40,"velocity":102,"startTime":79.07609749999999,"endTime":79.18479316666667,"isDrum":true},{"pitch":42,"velocity":102,"startTime":79.23914099999999,"endTime":79.34783666666667,"isDrum":true},{"pitch":40,"velocity":102,"startTime":79.40218449999999,"endTime":79.51088016666667,"isDrum":true},{"pitch":42,"velocity":102,"startTime":79.56522799999999,"endTime":79.67392366666667,"isDrum":true},{"pitch":40,"velocity":102,"startTime":79.72827149999999,"endTime":79.83696716666667,"isDrum":true},{"pitch":35,"velocity":102,"startTime":79.89131499999999,"endTime":80.00001066666665,"isDrum":true},{"pitch":42,"velocity":102,"startTime":79.89131499999999,"endTime":80.00001066666665,"isDrum":true},{"pitch":40,"velocity":102,"startTime":80.05435849999999,"endTime":80.16305416666665,"isDrum":true},{"pitch":38,"velocity":102,"startTime":80.21740199999999,"endTime":80.32609766666666,"isDrum":true},{"pitch":42,"velocity":102,"startTime":80.21740199999999,"endTime":80.32609766666666,"isDrum":true},{"pitch":40,"velocity":102,"startTime":80.3804455,"endTime":80.48914116666666,"isDrum":true},{"pitch":42,"velocity":102,"startTime":80.543489,"endTime":80.65218466666666,"isDrum":true},{"pitch":40,"velocity":102,"startTime":80.7065325,"endTime":80.81522816666666,"isDrum":true},{"pitch":35,"velocity":102,"startTime":80.869576,"endTime":80.97827166666666,"isDrum":true},{"pitch":42,"velocity":102,"startTime":80.869576,"endTime":80.97827166666666,"isDrum":true},{"pitch":40,"velocity":102,"startTime":81.0326195,"endTime":81.14131516666666,"isDrum":true},{"pitch":42,"velocity":102,"startTime":81.195663,"endTime":81.30435866666666,"isDrum":true},{"pitch":35,"velocity":102,"startTime":81.3587065,"endTime":81.46740216666666,"isDrum":true},{"pitch":40,"velocity":102,"startTime":81.52175,"endTime":81.63044566666666,"isDrum":true},{"pitch":42,"velocity":102,"startTime":81.52175,"endTime":81.63044566666666,"isDrum":true},{"pitch":35,"velocity":102,"startTime":81.6847935,"endTime":81.79348916666666,"isDrum":true},{"pitch":46,"velocity":102,"startTime":81.847837,"endTime":81.95653266666666,"isDrum":true},{"pitch":67,"velocity":95,"startTime":62.7717475,"endTime":62.88044316666666,"instrument":1,"program":12},{"pitch":67,"velocity":95,"startTime":62.934791,"endTime":63.04348666666666,"instrument":1,"program":12},{"pitch":60,"velocity":95,"startTime":63.0978345,"endTime":63.20653016666666,"instrument":1,"program":12},{"pitch":67,"velocity":95,"startTime":63.260878,"endTime":63.36957366666666,"instrument":1,"program":12},{"pitch":67,"velocity":95,"startTime":63.4239215,"endTime":63.53261716666666,"instrument":1,"program":12},{"pitch":63,"velocity":95,"startTime":63.58696499999999,"endTime":63.69566066666666,"instrument":1,"program":12},{"pitch":60,"velocity":95,"startTime":63.75000849999999,"endTime":63.85870416666666,"instrument":1,"program":12},{"pitch":63,"velocity":95,"startTime":64.0760955,"endTime":64.18479116666666,"instrument":1,"program":12},{"pitch":67,"velocity":95,"startTime":64.239139,"endTime":64.34783466666666,"instrument":1,"program":12},{"pitch":60,"velocity":95,"startTime":64.4021825,"endTime":64.51087816666666,"instrument":1,"program":12},{"pitch":63,"velocity":95,"startTime":64.565226,"endTime":64.67392166666666,"instrument":1,"program":12},{"pitch":67,"velocity":95,"startTime":64.7282695,"endTime":64.83696516666666,"instrument":1,"program":12},{"pitch":72,"velocity":95,"startTime":64.891313,"endTime":65.00000866666666,"instrument":1,"program":12},{"pitch":67,"velocity":95,"startTime":65.0543565,"endTime":65.16305216666666,"instrument":1,"program":12},{"pitch":70,"velocity":95,"startTime":65.2174,"endTime":65.32609566666666,"instrument":1,"program":12},{"pitch":70,"velocity":95,"startTime":65.3804435,"endTime":65.48913916666666,"instrument":1,"program":12},{"pitch":72,"velocity":95,"startTime":65.543487,"endTime":65.65218266666666,"instrument":1,"program":12},{"pitch":70,"velocity":95,"startTime":65.7065305,"endTime":65.81522616666666,"instrument":1,"program":12},{"pitch":72,"velocity":95,"startTime":65.869574,"endTime":65.97826966666666,"instrument":1,"program":12},{"pitch":70,"velocity":95,"startTime":66.195661,"endTime":66.30435666666666,"instrument":1,"program":12},{"pitch":72,"velocity":95,"startTime":66.3587045,"endTime":66.46740016666666,"instrument":1,"program":12},{"pitch":75,"velocity":95,"startTime":66.52174799999999,"endTime":66.63044366666666,"instrument":1,"program":12},{"pitch":70,"velocity":95,"startTime":66.68479149999999,"endTime":66.79348716666667,"instrument":1,"program":12},{"pitch":70,"velocity":95,"startTime":66.84783499999999,"endTime":66.95653066666667,"instrument":1,"program":12},{"pitch":72,"velocity":95,"startTime":67.01087849999999,"endTime":67.11957416666667,"instrument":1,"program":12},{"pitch":75,"velocity":95,"startTime":67.17392199999999,"endTime":67.28261766666667,"instrument":1,"program":12},{"pitch":70,"velocity":95,"startTime":67.33696549999999,"endTime":67.39131333333333,"instrument":1,"program":12},{"pitch":72,"velocity":95,"startTime":67.50000899999999,"endTime":67.60870466666667,"instrument":1,"program":12},{"pitch":70,"velocity":95,"startTime":67.66305249999999,"endTime":67.77174816666667,"instrument":1,"program":12},{"pitch":67,"velocity":95,"startTime":67.82609599999999,"endTime":67.9891395,"instrument":1,"program":12},{"pitch":67,"velocity":95,"startTime":67.9891395,"endTime":68.09783516666666,"instrument":1,"program":12},{"pitch":70,"velocity":95,"startTime":68.152183,"endTime":68.26087866666666,"instrument":1,"program":12},{"pitch":67,"velocity":95,"startTime":68.3152265,"endTime":68.42392216666666,"instrument":1,"program":12},{"pitch":70,"velocity":95,"startTime":68.47827,"endTime":68.58696566666666,"instrument":1,"program":12},{"pitch":67,"velocity":95,"startTime":68.6413135,"endTime":68.75000916666666,"instrument":1,"program":12},{"pitch":70,"velocity":95,"startTime":68.804357,"endTime":68.91305266666666,"instrument":1,"program":12},{"pitch":67,"velocity":95,"startTime":68.9674005,"endTime":69.07609616666666,"instrument":1,"program":12},{"pitch":70,"velocity":95,"startTime":69.130444,"endTime":69.23913966666666,"instrument":1,"program":12},{"pitch":67,"velocity":95,"startTime":69.2934875,"endTime":69.40218316666666,"instrument":1,"program":12},{"pitch":70,"velocity":95,"startTime":69.456531,"endTime":69.56522666666666,"instrument":1,"program":12},{"pitch":67,"velocity":95,"startTime":69.6195745,"endTime":69.782618,"instrument":1,"program":12},{"pitch":70,"velocity":95,"startTime":69.782618,"endTime":69.89131366666666,"instrument":1,"program":12},{"pitch":67,"velocity":95,"startTime":69.9456615,"endTime":70.05435716666666,"instrument":1,"program":12},{"pitch":70,"velocity":95,"startTime":70.108705,"endTime":70.21740066666666,"instrument":1,"program":12},{"pitch":67,"velocity":95,"startTime":70.2717485,"endTime":70.38044416666666,"instrument":1,"program":12},{"pitch":70,"velocity":95,"startTime":70.434792,"endTime":70.54348766666666,"instrument":1,"program":12},{"pitch":67,"velocity":95,"startTime":70.59783549999999,"endTime":70.70653116666666,"instrument":1,"program":12},{"pitch":70,"velocity":95,"startTime":70.76087899999999,"endTime":70.86957466666667,"instrument":1,"program":12},{"pitch":67,"velocity":95,"startTime":70.92392249999999,"endTime":71.03261816666667,"instrument":1,"program":12},{"pitch":70,"velocity":95,"startTime":71.08696599999999,"endTime":71.19566166666667,"instrument":1,"program":12},{"pitch":70,"velocity":95,"startTime":71.25000949999999,"endTime":71.35870516666667,"instrument":1,"program":12},{"pitch":67,"velocity":95,"startTime":71.41305299999999,"endTime":71.52174866666667,"instrument":1,"program":12},{"pitch":70,"velocity":95,"startTime":71.57609649999999,"endTime":71.68479216666667,"instrument":1,"program":12},{"pitch":67,"velocity":95,"startTime":71.73913999999999,"endTime":71.84783566666665,"instrument":1,"program":12},{"pitch":70,"velocity":95,"startTime":71.90218349999999,"endTime":72.01087916666665,"instrument":1,"program":12},{"pitch":67,"velocity":95,"startTime":72.065227,"endTime":72.17392266666666,"instrument":1,"program":12},{"pitch":70,"velocity":95,"startTime":72.2282705,"endTime":72.33696616666666,"instrument":1,"program":12},{"pitch":67,"velocity":95,"startTime":72.391314,"endTime":72.50000966666666,"instrument":1,"program":12},{"pitch":70,"velocity":95,"startTime":72.5543575,"endTime":72.66305316666666,"instrument":1,"program":12},{"pitch":67,"velocity":95,"startTime":72.717401,"endTime":72.82609666666666,"instrument":1,"program":12},{"pitch":70,"velocity":95,"startTime":72.8804445,"endTime":72.98914016666666,"instrument":1,"program":12},{"pitch":69,"velocity":95,"startTime":73.043488,"endTime":73.15218366666666,"instrument":1,"program":12},{"pitch":72,"velocity":95,"startTime":73.2065315,"endTime":73.31522716666666,"instrument":1,"program":12},{"pitch":74,"velocity":95,"startTime":73.369575,"endTime":73.47827066666666,"instrument":1,"program":12},{"pitch":69,"velocity":95,"startTime":73.5326185,"endTime":73.64131416666666,"instrument":1,"program":12},{"pitch":74,"velocity":95,"startTime":73.695662,"endTime":73.80435766666666,"instrument":1,"program":12},{"pitch":74,"velocity":95,"startTime":73.8587055,"endTime":73.96740116666666,"instrument":1,"program":12},{"pitch":69,"velocity":95,"startTime":74.021749,"endTime":74.13044466666666,"instrument":1,"program":12},{"pitch":74,"velocity":95,"startTime":74.1847925,"endTime":74.29348816666666,"instrument":1,"program":12},{"pitch":69,"velocity":95,"startTime":74.347836,"endTime":74.45653166666666,"instrument":1,"program":12},{"pitch":74,"velocity":95,"startTime":74.5108795,"endTime":74.61957516666666,"instrument":1,"program":12},{"pitch":69,"velocity":95,"startTime":74.67392299999999,"endTime":74.78261866666666,"instrument":1,"program":12},{"pitch":74,"velocity":95,"startTime":74.83696649999999,"endTime":74.94566216666666,"instrument":1,"program":12},{"pitch":74,"velocity":95,"startTime":75.00000999999999,"endTime":75.10870566666667,"instrument":1,"program":12},{"pitch":69,"velocity":95,"startTime":75.16305349999999,"endTime":75.27174916666667,"instrument":1,"program":12},{"pitch":74,"velocity":95,"startTime":75.32609699999999,"endTime":75.43479266666667,"instrument":1,"program":12},{"pitch":69,"velocity":95,"startTime":75.48914049999999,"endTime":75.59783616666667,"instrument":1,"program":12},{"pitch":74,"velocity":95,"startTime":75.65218399999999,"endTime":75.76087966666667,"instrument":1,"program":12},{"pitch":69,"velocity":95,"startTime":75.81522749999999,"endTime":75.92392316666665,"instrument":1,"program":12},{"pitch":72,"velocity":95,"startTime":75.97827099999999,"endTime":76.08696666666665,"instrument":1,"program":12},{"pitch":74,"velocity":95,"startTime":76.1413145,"endTime":76.25001016666666,"instrument":1,"program":12},{"pitch":69,"velocity":95,"startTime":76.304358,"endTime":76.41305366666666,"instrument":1,"program":12},{"pitch":74,"velocity":95,"startTime":76.4674015,"endTime":76.57609716666666,"instrument":1,"program":12},{"pitch":69,"velocity":95,"startTime":76.630445,"endTime":76.73914066666666,"instrument":1,"program":12},{"pitch":74,"velocity":95,"startTime":76.7934885,"endTime":76.90218416666666,"instrument":1,"program":12},{"pitch":74,"velocity":95,"startTime":76.956532,"endTime":77.06522766666666,"instrument":1,"program":12},{"pitch":69,"velocity":95,"startTime":77.1195755,"endTime":77.22827116666666,"instrument":1,"program":12},{"pitch":72,"velocity":95,"startTime":77.282619,"endTime":77.39131466666666,"instrument":1,"program":12},{"pitch":74,"velocity":95,"startTime":77.4456625,"endTime":77.55435816666666,"instrument":1,"program":12},{"pitch":74,"velocity":95,"startTime":77.608706,"endTime":77.71740166666666,"instrument":1,"program":12},{"pitch":69,"velocity":95,"startTime":77.7717495,"endTime":77.88044516666666,"instrument":1,"program":12},{"pitch":72,"velocity":95,"startTime":77.934793,"endTime":78.04348866666666,"instrument":1,"program":12},{"pitch":69,"velocity":95,"startTime":78.0978365,"endTime":78.20653216666666,"instrument":1,"program":12},{"pitch":67,"velocity":95,"startTime":78.26088,"endTime":78.36957566666666,"instrument":1,"program":12},{"pitch":67,"velocity":95,"startTime":78.4239235,"endTime":78.53261916666666,"instrument":1,"program":12},{"pitch":70,"velocity":95,"startTime":78.58696699999999,"endTime":78.69566266666666,"instrument":1,"program":12},{"pitch":67,"velocity":95,"startTime":78.75001049999999,"endTime":78.85870616666666,"instrument":1,"program":12},{"pitch":70,"velocity":95,"startTime":78.91305399999999,"endTime":79.02174966666666,"instrument":1,"program":12},{"pitch":67,"velocity":95,"startTime":79.07609749999999,"endTime":79.18479316666667,"instrument":1,"program":12},{"pitch":70,"velocity":95,"startTime":79.23914099999999,"endTime":79.34783666666667,"instrument":1,"program":12},{"pitch":67,"velocity":95,"startTime":79.40218449999999,"endTime":79.51088016666667,"instrument":1,"program":12},{"pitch":70,"velocity":95,"startTime":79.56522799999999,"endTime":79.67392366666667,"instrument":1,"program":12},{"pitch":67,"velocity":95,"startTime":79.72827149999999,"endTime":79.83696716666667,"instrument":1,"program":12},{"pitch":70,"velocity":95,"startTime":79.89131499999999,"endTime":80.00001066666665,"instrument":1,"program":12},{"pitch":67,"velocity":95,"startTime":80.05435849999999,"endTime":80.16305416666665,"instrument":1,"program":12},{"pitch":70,"velocity":95,"startTime":80.21740199999999,"endTime":80.32609766666666,"instrument":1,"program":12},{"pitch":70,"velocity":95,"startTime":80.3804455,"endTime":80.48914116666666,"instrument":1,"program":12},{"pitch":67,"velocity":95,"startTime":80.543489,"endTime":80.65218466666666,"instrument":1,"program":12},{"pitch":70,"velocity":95,"startTime":80.7065325,"endTime":80.81522816666666,"instrument":1,"program":12},{"pitch":66,"velocity":95,"startTime":80.869576,"endTime":80.97827166666666,"instrument":1,"program":12},{"pitch":69,"velocity":95,"startTime":81.0326195,"endTime":81.14131516666666,"instrument":1,"program":12},{"pitch":72,"velocity":95,"startTime":81.195663,"endTime":81.30435866666666,"instrument":1,"program":12},{"pitch":69,"velocity":95,"startTime":81.3587065,"endTime":81.46740216666666,"instrument":1,"program":12},{"pitch":81,"velocity":95,"startTime":81.52175,"endTime":81.63044566666666,"instrument":1,"program":12},{"pitch":69,"velocity":95,"startTime":81.6847935,"endTime":81.79348916666666,"instrument":1,"program":12},{"pitch":69,"velocity":95,"startTime":81.847837,"endTime":81.95653266666666,"instrument":1,"program":12},{"pitch":69,"velocity":95,"startTime":82.0108805,"endTime":82.11957616666666,"instrument":1,"program":12},{"pitch":74,"velocity":95,"startTime":82.173924,"endTime":82.28261966666666,"instrument":1,"program":12},{"pitch":74,"velocity":95,"startTime":82.3369675,"endTime":82.44566316666666,"instrument":1,"program":12},{"pitch":74,"velocity":95,"startTime":82.500011,"endTime":82.60870666666666,"instrument":1,"program":12},{"pitch":74,"velocity":95,"startTime":82.66305449999999,"endTime":82.77175016666666,"instrument":1,"program":12},{"pitch":69,"velocity":95,"startTime":82.82609799999999,"endTime":82.93479366666666,"instrument":1,"program":12},{"pitch":74,"velocity":95,"startTime":82.98914149999999,"endTime":83.09783716666666,"instrument":1,"program":12},{"pitch":74,"velocity":95,"startTime":83.15218499999999,"endTime":83.26088066666667,"instrument":1,"program":12},{"pitch":69,"velocity":95,"startTime":83.31522849999999,"endTime":83.42392416666667,"instrument":1,"program":12},{"pitch":34,"velocity":110,"startTime":62.608703999999996,"endTime":62.7717475,"instrument":2,"program":32},{"pitch":36,"velocity":110,"startTime":62.934791,"endTime":63.0978345,"instrument":2,"program":32},{"pitch":36,"velocity":110,"startTime":63.260878,"endTime":63.4239215,"instrument":2,"program":32},{"pitch":31,"velocity":110,"startTime":63.58696499999999,"endTime":63.75000849999999,"instrument":2,"program":32},{"pitch":36,"velocity":110,"startTime":63.91305199999999,"endTime":64.0760955,"instrument":2,"program":32},{"pitch":48,"velocity":110,"startTime":64.239139,"endTime":64.4021825,"instrument":2,"program":32},{"pitch":43,"velocity":110,"startTime":64.565226,"endTime":64.7282695,"instrument":2,"program":32},{"pitch":36,"velocity":110,"startTime":64.891313,"endTime":65.0543565,"instrument":2,"program":32},{"pitch":36,"velocity":110,"startTime":65.2174,"endTime":65.3804435,"instrument":2,"program":32},{"pitch":31,"velocity":110,"startTime":65.543487,"endTime":65.7065305,"instrument":2,"program":32},{"pitch":36,"velocity":110,"startTime":65.869574,"endTime":66.0326175,"instrument":2,"program":32},{"pitch":36,"velocity":110,"startTime":66.195661,"endTime":66.3587045,"instrument":2,"program":32},{"pitch":39,"velocity":110,"startTime":66.52174799999999,"endTime":66.68479149999999,"instrument":2,"program":32},{"pitch":27,"velocity":110,"startTime":66.84783499999999,"endTime":67.01087849999999,"instrument":2,"program":32},{"pitch":39,"velocity":110,"startTime":67.17392199999999,"endTime":67.33696549999999,"instrument":2,"program":32},{"pitch":48,"velocity":110,"startTime":67.50000899999999,"endTime":67.66305249999999,"instrument":2,"program":32},{"pitch":43,"velocity":110,"startTime":67.82609599999999,"endTime":67.9891395,"instrument":2,"program":32},{"pitch":43,"velocity":110,"startTime":68.152183,"endTime":68.3152265,"instrument":2,"program":32},{"pitch":43,"velocity":110,"startTime":68.47827,"endTime":68.6413135,"instrument":2,"program":32},{"pitch":38,"velocity":110,"startTime":68.804357,"endTime":68.9674005,"instrument":2,"program":32},{"pitch":34,"velocity":110,"startTime":69.130444,"endTime":69.2934875,"instrument":2,"program":32},{"pitch":34,"velocity":110,"startTime":69.456531,"endTime":69.72827016666666,"instrument":2,"program":32},{"pitch":36,"velocity":110,"startTime":69.782618,"endTime":69.9456615,"instrument":2,"program":32},{"pitch":34,"velocity":110,"startTime":70.108705,"endTime":70.2717485,"instrument":2,"program":32},{"pitch":43,"velocity":110,"startTime":70.434792,"endTime":70.59783549999999,"instrument":2,"program":32},{"pitch":43,"velocity":110,"startTime":70.76087899999999,"endTime":70.92392249999999,"instrument":2,"program":32},{"pitch":43,"velocity":110,"startTime":71.08696599999999,"endTime":71.25000949999999,"instrument":2,"program":32},{"pitch":35,"velocity":110,"startTime":71.41305299999999,"endTime":71.57609649999999,"instrument":2,"program":32},{"pitch":34,"velocity":110,"startTime":71.73913999999999,"endTime":71.90218349999999,"instrument":2,"program":32},{"pitch":34,"velocity":110,"startTime":72.065227,"endTime":72.2282705,"instrument":2,"program":32},{"pitch":38,"velocity":110,"startTime":72.391314,"endTime":72.5543575,"instrument":2,"program":32},{"pitch":38,"velocity":110,"startTime":72.717401,"endTime":72.8804445,"instrument":2,"program":32},{"pitch":38,"velocity":110,"startTime":73.043488,"endTime":73.2065315,"instrument":2,"program":32},{"pitch":42,"velocity":110,"startTime":73.369575,"endTime":73.5326185,"instrument":2,"program":32},{"pitch":42,"velocity":110,"startTime":73.695662,"endTime":73.8587055,"instrument":2,"program":32},{"pitch":38,"velocity":110,"startTime":74.021749,"endTime":74.1847925,"instrument":2,"program":32},{"pitch":33,"velocity":110,"startTime":74.347836,"endTime":74.5108795,"instrument":2,"program":32},{"pitch":33,"velocity":110,"startTime":74.67392299999999,"endTime":74.83696649999999,"instrument":2,"program":32},{"pitch":38,"velocity":110,"startTime":75.00000999999999,"endTime":75.16305349999999,"instrument":2,"program":32},{"pitch":38,"velocity":110,"startTime":75.32609699999999,"endTime":75.48914049999999,"instrument":2,"program":32},{"pitch":38,"velocity":110,"startTime":75.65218399999999,"endTime":75.81522749999999,"instrument":2,"program":32},{"pitch":38,"velocity":110,"startTime":75.97827099999999,"endTime":76.1413145,"instrument":2,"program":32},{"pitch":38,"velocity":110,"startTime":76.304358,"endTime":76.4674015,"instrument":2,"program":32},{"pitch":38,"velocity":110,"startTime":76.630445,"endTime":76.90218416666666,"instrument":2,"program":32},{"pitch":33,"velocity":110,"startTime":76.956532,"endTime":77.1195755,"instrument":2,"program":32},{"pitch":33,"velocity":110,"startTime":77.282619,"endTime":77.4456625,"instrument":2,"program":32},{"pitch":33,"velocity":110,"startTime":77.608706,"endTime":77.7717495,"instrument":2,"program":32},{"pitch":38,"velocity":110,"startTime":77.934793,"endTime":78.0978365,"instrument":2,"program":32},{"pitch":31,"velocity":110,"startTime":78.26088,"endTime":78.4239235,"instrument":2,"program":32},{"pitch":38,"velocity":110,"startTime":80.869576,"endTime":81.0326195,"instrument":2,"program":32},{"pitch":38,"velocity":110,"startTime":81.195663,"endTime":81.3587065,"instrument":2,"program":32},{"pitch":33,"velocity":110,"startTime":81.52175,"endTime":81.6847935,"instrument":2,"program":32},{"pitch":38,"velocity":110,"startTime":81.847837,"endTime":82.0108805,"instrument":2,"program":32},{"pitch":43,"velocity":110,"startTime":82.173924,"endTime":82.3369675,"instrument":2,"program":32},{"pitch":43,"velocity":110,"startTime":82.500011,"endTime":82.66305449999999,"instrument":2,"program":32},{"pitch":43,"velocity":110,"startTime":82.82609799999999,"endTime":82.98914149999999,"instrument":2,"program":32},{"pitch":38,"velocity":110,"startTime":83.15218499999999,"endTime":83.31522849999999,"instrument":2,"program":32},{"pitch":60,"velocity":105,"startTime":62.608703999999996,"endTime":65.0543565,"instrument":3,"program":50},{"pitch":63,"velocity":105,"startTime":62.608703999999996,"endTime":65.10870433333334,"instrument":3,"program":50},{"pitch":67,"velocity":105,"startTime":62.608703999999996,"endTime":65.10870433333334,"instrument":3,"program":50},{"pitch":62,"velocity":105,"startTime":65.2174,"endTime":67.71740033333333,"instrument":3,"program":50},{"pitch":67,"velocity":105,"startTime":65.2174,"endTime":67.71740033333333,"instrument":3,"program":50},{"pitch":74,"velocity":105,"startTime":65.2174,"endTime":67.71740033333333,"instrument":3,"program":50},{"pitch":55,"velocity":105,"startTime":67.82609599999999,"endTime":70.05435716666666,"instrument":3,"program":50},{"pitch":58,"velocity":105,"startTime":67.82609599999999,"endTime":70.16305283333332,"instrument":3,"program":50},{"pitch":62,"velocity":105,"startTime":67.82609599999999,"endTime":70.05435716666666,"instrument":3,"program":50},{"pitch":67,"velocity":105,"startTime":67.82609599999999,"endTime":70.108705,"instrument":3,"program":50},{"pitch":67,"velocity":105,"startTime":70.434792,"endTime":73.043488,"instrument":3,"program":50},{"pitch":74,"velocity":105,"startTime":70.434792,"endTime":71.57609649999999,"instrument":3,"program":50},{"pitch":62,"velocity":105,"startTime":70.48913983333333,"endTime":73.043488,"instrument":3,"program":50},{"pitch":55,"velocity":105,"startTime":70.76087899999999,"endTime":73.043488,"instrument":3,"program":50},{"pitch":58,"velocity":105,"startTime":71.08696599999999,"endTime":73.043488,"instrument":3,"program":50},{"pitch":54,"velocity":105,"startTime":73.043488,"endTime":74.5108795,"instrument":3,"program":50},{"pitch":62,"velocity":105,"startTime":73.043488,"endTime":73.695662,"instrument":3,"program":50},{"pitch":72,"velocity":105,"startTime":73.043488,"endTime":73.64131416666666,"instrument":3,"program":50},{"pitch":78,"velocity":105,"startTime":73.043488,"endTime":73.91305333333332,"instrument":3,"program":50},{"pitch":66,"velocity":105,"startTime":74.021749,"endTime":75.32609699999999,"instrument":3,"program":50},{"pitch":78,"velocity":105,"startTime":74.021749,"endTime":74.1847925,"instrument":3,"program":50},{"pitch":72,"velocity":105,"startTime":74.347836,"endTime":75.32609699999999,"instrument":3,"program":50},{"pitch":78,"velocity":105,"startTime":74.347836,"endTime":74.40218383333332,"instrument":3,"program":50},{"pitch":78,"velocity":105,"startTime":74.72827083333333,"endTime":74.83696649999999,"instrument":3,"program":50},{"pitch":78,"velocity":105,"startTime":75.00000999999999,"endTime":75.32609699999999,"instrument":3,"program":50},{"pitch":54,"velocity":105,"startTime":75.32609699999999,"endTime":75.48914049999999,"instrument":3,"program":50},{"pitch":57,"velocity":105,"startTime":75.65218399999999,"endTime":78.15218433333332,"instrument":3,"program":50},{"pitch":60,"velocity":105,"startTime":75.65218399999999,"endTime":78.26088,"instrument":3,"program":50},{"pitch":64,"velocity":105,"startTime":75.65218399999999,"endTime":78.15218433333332,"instrument":3,"program":50},{"pitch":67,"velocity":105,"startTime":75.65218399999999,"endTime":78.26088,"instrument":3,"program":50},{"pitch":62,"velocity":105,"startTime":78.26088,"endTime":78.47827133333332,"instrument":3,"program":50},{"pitch":70,"velocity":105,"startTime":78.26088,"endTime":78.47827133333332,"instrument":3,"program":50},{"pitch":82,"velocity":105,"startTime":78.26088,"endTime":78.47827133333332,"instrument":3,"program":50},{"pitch":60,"velocity":105,"startTime":80.869576,"endTime":82.173924,"instrument":3,"program":50},{"pitch":62,"velocity":105,"startTime":80.869576,"endTime":82.173924,"instrument":3,"program":50},{"pitch":66,"velocity":105,"startTime":80.869576,"endTime":82.173924,"instrument":3,"program":50},{"pitch":70,"velocity":105,"startTime":80.869576,"endTime":82.173924,"instrument":3,"program":50},{"pitch":58,"velocity":105,"startTime":82.173924,"endTime":82.3369675,"instrument":3,"program":50},{"pitch":62,"velocity":105,"startTime":82.173924,"endTime":82.3369675,"instrument":3,"program":50},{"pitch":67,"velocity":105,"startTime":82.173924,"endTime":82.3369675,"instrument":3,"program":50},{"pitch":74,"velocity":105,"startTime":82.173924,"endTime":82.3369675,"instrument":3,"program":50},{"pitch":35,"velocity":102,"startTime":83.47827199999999,"endTime":83.64131549999999,"isDrum":true},{"pitch":42,"velocity":102,"startTime":83.47827199999999,"endTime":83.64131549999999,"isDrum":true},{"pitch":51,"velocity":102,"startTime":83.47827199999999,"endTime":83.64131549999999,"isDrum":true},{"pitch":42,"velocity":102,"startTime":83.80435899999999,"endTime":83.96740249999999,"isDrum":true},{"pitch":38,"velocity":102,"startTime":84.13044599999999,"endTime":84.29348949999999,"isDrum":true},{"pitch":42,"velocity":102,"startTime":84.13044599999999,"endTime":84.29348949999999,"isDrum":true},{"pitch":51,"velocity":102,"startTime":84.13044599999999,"endTime":84.29348949999999,"isDrum":true},{"pitch":42,"velocity":102,"startTime":84.456533,"endTime":84.6195765,"isDrum":true},{"pitch":35,"velocity":102,"startTime":84.78262,"endTime":84.9456635,"isDrum":true},{"pitch":42,"velocity":102,"startTime":84.78262,"endTime":84.9456635,"isDrum":true},{"pitch":51,"velocity":102,"startTime":84.78262,"endTime":84.9456635,"isDrum":true},{"pitch":35,"velocity":102,"startTime":85.108707,"endTime":85.2717505,"isDrum":true},{"pitch":42,"velocity":102,"startTime":85.108707,"endTime":85.2717505,"isDrum":true},{"pitch":38,"velocity":102,"startTime":85.434794,"endTime":85.5978375,"isDrum":true},{"pitch":42,"velocity":102,"startTime":85.434794,"endTime":85.5978375,"isDrum":true},{"pitch":51,"velocity":102,"startTime":85.434794,"endTime":85.5978375,"isDrum":true},{"pitch":35,"velocity":102,"startTime":85.760881,"endTime":85.9239245,"isDrum":true},{"pitch":42,"velocity":102,"startTime":85.760881,"endTime":85.9239245,"isDrum":true},{"pitch":35,"velocity":102,"startTime":86.086968,"endTime":86.2500115,"isDrum":true},{"pitch":42,"velocity":102,"startTime":86.086968,"endTime":86.2500115,"isDrum":true},{"pitch":51,"velocity":102,"startTime":86.086968,"endTime":86.2500115,"isDrum":true},{"pitch":42,"velocity":102,"startTime":86.413055,"endTime":86.5760985,"isDrum":true},{"pitch":38,"velocity":102,"startTime":86.73914199999999,"endTime":86.90218549999999,"isDrum":true},{"pitch":42,"velocity":102,"startTime":86.73914199999999,"endTime":86.90218549999999,"isDrum":true},{"pitch":51,"velocity":102,"startTime":86.73914199999999,"endTime":86.90218549999999,"isDrum":true},{"pitch":42,"velocity":102,"startTime":87.06522899999999,"endTime":87.22827249999999,"isDrum":true},{"pitch":35,"velocity":102,"startTime":87.39131599999999,"endTime":87.55435949999999,"isDrum":true},{"pitch":42,"velocity":102,"startTime":87.39131599999999,"endTime":87.55435949999999,"isDrum":true},{"pitch":51,"velocity":102,"startTime":87.39131599999999,"endTime":87.55435949999999,"isDrum":true},{"pitch":35,"velocity":102,"startTime":87.71740299999999,"endTime":87.88044649999999,"isDrum":true},{"pitch":42,"velocity":102,"startTime":87.71740299999999,"endTime":87.88044649999999,"isDrum":true},{"pitch":38,"velocity":102,"startTime":88.04348999999999,"endTime":88.20653349999999,"isDrum":true},{"pitch":42,"velocity":102,"startTime":88.04348999999999,"endTime":88.20653349999999,"isDrum":true},{"pitch":51,"velocity":102,"startTime":88.04348999999999,"endTime":88.20653349999999,"isDrum":true},{"pitch":51,"velocity":102,"startTime":88.20653349999999,"endTime":88.36957699999999,"isDrum":true},{"pitch":35,"velocity":102,"startTime":88.36957699999999,"endTime":88.5326205,"isDrum":true},{"pitch":42,"velocity":102,"startTime":88.36957699999999,"endTime":88.5326205,"isDrum":true},{"pitch":35,"velocity":102,"startTime":88.695664,"endTime":88.8587075,"isDrum":true},{"pitch":42,"velocity":102,"startTime":88.695664,"endTime":88.8587075,"isDrum":true},{"pitch":51,"velocity":102,"startTime":88.695664,"endTime":88.8587075,"isDrum":true},{"pitch":42,"velocity":102,"startTime":89.021751,"endTime":89.1847945,"isDrum":true},{"pitch":38,"velocity":102,"startTime":89.347838,"endTime":89.5108815,"isDrum":true},{"pitch":42,"velocity":102,"startTime":89.347838,"endTime":89.5108815,"isDrum":true},{"pitch":42,"velocity":102,"startTime":89.673925,"endTime":89.8369685,"isDrum":true},{"pitch":35,"velocity":102,"startTime":90.000012,"endTime":90.1630555,"isDrum":true},{"pitch":42,"velocity":102,"startTime":90.000012,"endTime":90.1630555,"isDrum":true},{"pitch":51,"velocity":102,"startTime":90.000012,"endTime":90.1630555,"isDrum":true},{"pitch":42,"velocity":102,"startTime":90.326099,"endTime":90.4891425,"isDrum":true},{"pitch":38,"velocity":102,"startTime":90.65218599999999,"endTime":90.81522949999999,"isDrum":true},{"pitch":42,"velocity":102,"startTime":90.65218599999999,"endTime":90.81522949999999,"isDrum":true},{"pitch":51,"velocity":102,"startTime":90.65218599999999,"endTime":90.81522949999999,"isDrum":true},{"pitch":35,"velocity":102,"startTime":90.97827299999999,"endTime":91.14131649999999,"isDrum":true},{"pitch":42,"velocity":102,"startTime":90.97827299999999,"endTime":91.14131649999999,"isDrum":true},{"pitch":42,"velocity":102,"startTime":91.14131649999999,"endTime":91.30435999999999,"isDrum":true},{"pitch":35,"velocity":102,"startTime":91.30435999999999,"endTime":91.46740349999999,"isDrum":true},{"pitch":42,"velocity":102,"startTime":91.30435999999999,"endTime":91.46740349999999,"isDrum":true},{"pitch":51,"velocity":102,"startTime":91.30435999999999,"endTime":91.46740349999999,"isDrum":true},{"pitch":42,"velocity":102,"startTime":91.63044699999999,"endTime":91.79349049999999,"isDrum":true},{"pitch":38,"velocity":102,"startTime":91.95653399999999,"endTime":92.11957749999999,"isDrum":true},{"pitch":42,"velocity":102,"startTime":91.95653399999999,"endTime":92.11957749999999,"isDrum":true},{"pitch":51,"velocity":102,"startTime":91.95653399999999,"endTime":92.11957749999999,"isDrum":true},{"pitch":42,"velocity":102,"startTime":92.28262099999999,"endTime":92.44566449999999,"isDrum":true},{"pitch":35,"velocity":102,"startTime":92.608708,"endTime":92.7717515,"isDrum":true},{"pitch":42,"velocity":102,"startTime":92.608708,"endTime":92.7717515,"isDrum":true},{"pitch":51,"velocity":102,"startTime":92.608708,"endTime":92.7717515,"isDrum":true},{"pitch":42,"velocity":102,"startTime":92.934795,"endTime":93.0978385,"isDrum":true},{"pitch":38,"velocity":102,"startTime":93.260882,"endTime":93.4239255,"isDrum":true},{"pitch":42,"velocity":102,"startTime":93.260882,"endTime":93.4239255,"isDrum":true},{"pitch":51,"velocity":102,"startTime":93.260882,"endTime":93.4239255,"isDrum":true},{"pitch":42,"velocity":102,"startTime":93.586969,"endTime":93.7500125,"isDrum":true},{"pitch":35,"velocity":102,"startTime":93.913056,"endTime":94.0760995,"isDrum":true},{"pitch":42,"velocity":102,"startTime":93.913056,"endTime":94.0760995,"isDrum":true},{"pitch":51,"velocity":102,"startTime":93.913056,"endTime":94.0760995,"isDrum":true},{"pitch":35,"velocity":102,"startTime":94.239143,"endTime":94.4021865,"isDrum":true},{"pitch":42,"velocity":102,"startTime":94.239143,"endTime":94.4021865,"isDrum":true},{"pitch":38,"velocity":102,"startTime":94.56523,"endTime":94.72827349999999,"isDrum":true},{"pitch":42,"velocity":102,"startTime":94.56523,"endTime":94.72827349999999,"isDrum":true},{"pitch":51,"velocity":102,"startTime":94.56523,"endTime":94.72827349999999,"isDrum":true},{"pitch":35,"velocity":102,"startTime":94.89131699999999,"endTime":95.05436049999999,"isDrum":true},{"pitch":42,"velocity":102,"startTime":94.89131699999999,"endTime":95.05436049999999,"isDrum":true},{"pitch":42,"velocity":102,"startTime":95.05436049999999,"endTime":95.21740399999999,"isDrum":true},{"pitch":35,"velocity":102,"startTime":95.21740399999999,"endTime":95.38044749999999,"isDrum":true},{"pitch":42,"velocity":102,"startTime":95.21740399999999,"endTime":95.38044749999999,"isDrum":true},{"pitch":51,"velocity":102,"startTime":95.21740399999999,"endTime":95.38044749999999,"isDrum":true},{"pitch":42,"velocity":102,"startTime":95.54349099999999,"endTime":95.70653449999999,"isDrum":true},{"pitch":38,"velocity":102,"startTime":95.86957799999999,"endTime":96.03262149999999,"isDrum":true},{"pitch":42,"velocity":102,"startTime":95.86957799999999,"endTime":96.03262149999999,"isDrum":true},{"pitch":51,"velocity":102,"startTime":95.86957799999999,"endTime":96.03262149999999,"isDrum":true},{"pitch":42,"velocity":102,"startTime":96.19566499999999,"endTime":96.35870849999999,"isDrum":true},{"pitch":35,"velocity":102,"startTime":96.52175199999999,"endTime":96.68479549999999,"isDrum":true},{"pitch":42,"velocity":102,"startTime":96.52175199999999,"endTime":96.68479549999999,"isDrum":true},{"pitch":51,"velocity":102,"startTime":96.52175199999999,"endTime":96.68479549999999,"isDrum":true},{"pitch":35,"velocity":102,"startTime":96.847839,"endTime":97.0108825,"isDrum":true},{"pitch":42,"velocity":102,"startTime":96.847839,"endTime":97.0108825,"isDrum":true},{"pitch":38,"velocity":102,"startTime":97.173926,"endTime":97.3369695,"isDrum":true},{"pitch":42,"velocity":102,"startTime":97.173926,"endTime":97.3369695,"isDrum":true},{"pitch":51,"velocity":102,"startTime":97.173926,"endTime":97.3369695,"isDrum":true},{"pitch":35,"velocity":102,"startTime":97.500013,"endTime":97.6630565,"isDrum":true},{"pitch":42,"velocity":102,"startTime":97.500013,"endTime":97.6630565,"isDrum":true},{"pitch":35,"velocity":102,"startTime":97.8261,"endTime":97.9891435,"isDrum":true},{"pitch":42,"velocity":102,"startTime":97.8261,"endTime":97.9891435,"isDrum":true},{"pitch":51,"velocity":102,"startTime":97.8261,"endTime":97.9891435,"isDrum":true},{"pitch":42,"velocity":102,"startTime":98.152187,"endTime":98.3152305,"isDrum":true},{"pitch":38,"velocity":102,"startTime":98.478274,"endTime":98.6413175,"isDrum":true},{"pitch":42,"velocity":102,"startTime":98.478274,"endTime":98.6413175,"isDrum":true},{"pitch":51,"velocity":102,"startTime":98.478274,"endTime":98.6413175,"isDrum":true},{"pitch":42,"velocity":102,"startTime":98.80436099999999,"endTime":98.96740449999999,"isDrum":true},{"pitch":35,"velocity":102,"startTime":99.13044799999999,"endTime":99.29349149999999,"isDrum":true},{"pitch":42,"velocity":102,"startTime":99.13044799999999,"endTime":99.29349149999999,"isDrum":true},{"pitch":51,"velocity":102,"startTime":99.13044799999999,"endTime":99.29349149999999,"isDrum":true},{"pitch":35,"velocity":102,"startTime":99.45653499999999,"endTime":99.61957849999999,"isDrum":true},{"pitch":42,"velocity":102,"startTime":99.45653499999999,"endTime":99.61957849999999,"isDrum":true},{"pitch":38,"velocity":102,"startTime":99.78262199999999,"endTime":99.94566549999999,"isDrum":true},{"pitch":42,"velocity":102,"startTime":99.78262199999999,"endTime":99.94566549999999,"isDrum":true},{"pitch":51,"velocity":102,"startTime":99.78262199999999,"endTime":99.94566549999999,"isDrum":true},{"pitch":35,"velocity":102,"startTime":100.10870899999999,"endTime":100.27175249999999,"isDrum":true},{"pitch":42,"velocity":102,"startTime":100.10870899999999,"endTime":100.27175249999999,"isDrum":true},{"pitch":35,"velocity":102,"startTime":100.43479599999999,"endTime":100.59783949999999,"isDrum":true},{"pitch":42,"velocity":102,"startTime":100.43479599999999,"endTime":100.59783949999999,"isDrum":true},{"pitch":51,"velocity":102,"startTime":100.43479599999999,"endTime":100.59783949999999,"isDrum":true},{"pitch":42,"velocity":102,"startTime":100.76088299999999,"endTime":100.9239265,"isDrum":true},{"pitch":38,"velocity":102,"startTime":101.08697,"endTime":101.2500135,"isDrum":true},{"pitch":42,"velocity":102,"startTime":101.08697,"endTime":101.2500135,"isDrum":true},{"pitch":51,"velocity":102,"startTime":101.08697,"endTime":101.2500135,"isDrum":true},{"pitch":42,"velocity":102,"startTime":101.413057,"endTime":101.5761005,"isDrum":true},{"pitch":35,"velocity":102,"startTime":101.739144,"endTime":101.9021875,"isDrum":true},{"pitch":42,"velocity":102,"startTime":101.739144,"endTime":101.9021875,"isDrum":true},{"pitch":51,"velocity":102,"startTime":101.739144,"endTime":101.9021875,"isDrum":true},{"pitch":35,"velocity":102,"startTime":102.065231,"endTime":102.2282745,"isDrum":true},{"pitch":42,"velocity":102,"startTime":102.065231,"endTime":102.2282745,"isDrum":true},{"pitch":51,"velocity":102,"startTime":102.065231,"endTime":102.2282745,"isDrum":true},{"pitch":51,"velocity":102,"startTime":102.2282745,"endTime":102.391318,"isDrum":true},{"pitch":38,"velocity":102,"startTime":102.391318,"endTime":102.5543615,"isDrum":true},{"pitch":42,"velocity":102,"startTime":102.391318,"endTime":102.5543615,"isDrum":true},{"pitch":51,"velocity":102,"startTime":102.391318,"endTime":102.5543615,"isDrum":true},{"pitch":35,"velocity":102,"startTime":102.71740499999999,"endTime":102.88044849999999,"isDrum":true},{"pitch":42,"velocity":102,"startTime":102.71740499999999,"endTime":102.88044849999999,"isDrum":true},{"pitch":51,"velocity":102,"startTime":102.71740499999999,"endTime":102.88044849999999,"isDrum":true},{"pitch":65,"velocity":95,"startTime":83.47827199999999,"endTime":83.64131549999999,"instrument":1,"program":12},{"pitch":67,"velocity":95,"startTime":83.64131549999999,"endTime":83.75001116666665,"instrument":1,"program":12},{"pitch":70,"velocity":95,"startTime":83.80435899999999,"endTime":83.91305466666665,"instrument":1,"program":12},{"pitch":67,"velocity":95,"startTime":83.96740249999999,"endTime":84.07609816666665,"instrument":1,"program":12},{"pitch":74,"velocity":95,"startTime":84.13044599999999,"endTime":84.29348949999999,"instrument":1,"program":12},{"pitch":67,"velocity":95,"startTime":84.29348949999999,"endTime":84.40218516666665,"instrument":1,"program":12},{"pitch":65,"velocity":95,"startTime":84.456533,"endTime":84.56522866666666,"instrument":1,"program":12},{"pitch":67,"velocity":95,"startTime":84.6195765,"endTime":84.67392433333333,"instrument":1,"program":12},{"pitch":65,"velocity":95,"startTime":84.78262,"endTime":84.9456635,"instrument":1,"program":12},{"pitch":67,"velocity":95,"startTime":84.9456635,"endTime":85.05435916666666,"instrument":1,"program":12},{"pitch":70,"velocity":95,"startTime":85.108707,"endTime":85.21740266666664,"instrument":1,"program":12},{"pitch":74,"velocity":95,"startTime":85.2717505,"endTime":85.38044616666664,"instrument":1,"program":12},{"pitch":67,"velocity":95,"startTime":85.434794,"endTime":85.54348966666664,"instrument":1,"program":12},{"pitch":70,"velocity":95,"startTime":85.5978375,"endTime":85.65218533333334,"instrument":1,"program":12},{"pitch":67,"velocity":95,"startTime":85.760881,"endTime":85.86957666666665,"instrument":1,"program":12},{"pitch":65,"velocity":95,"startTime":85.9239245,"endTime":86.03262016666665,"instrument":1,"program":12},{"pitch":64,"velocity":95,"startTime":86.086968,"endTime":86.2500115,"instrument":1,"program":12},{"pitch":64,"velocity":95,"startTime":86.2500115,"endTime":86.35870716666665,"instrument":1,"program":12},{"pitch":69,"velocity":95,"startTime":86.413055,"endTime":86.52175066666665,"instrument":1,"program":12},{"pitch":64,"velocity":95,"startTime":86.5760985,"endTime":86.63044633333334,"instrument":1,"program":12},{"pitch":69,"velocity":95,"startTime":87.39131599999999,"endTime":87.50001166666665,"instrument":1,"program":12},{"pitch":74,"velocity":95,"startTime":87.55435949999999,"endTime":87.66305516666665,"instrument":1,"program":12},{"pitch":69,"velocity":95,"startTime":87.71740299999999,"endTime":87.82609866666665,"instrument":1,"program":12},{"pitch":74,"velocity":95,"startTime":87.88044649999999,"endTime":87.98914216666665,"instrument":1,"program":12},{"pitch":65,"velocity":95,"startTime":88.04348999999999,"endTime":88.20653349999999,"instrument":1,"program":12},{"pitch":70,"velocity":95,"startTime":88.20653349999999,"endTime":88.31522916666665,"instrument":1,"program":12},{"pitch":65,"velocity":95,"startTime":88.36957699999999,"endTime":88.47827266666665,"instrument":1,"program":12},{"pitch":62,"velocity":95,"startTime":88.5326205,"endTime":88.64131616666666,"instrument":1,"program":12},{"pitch":62,"velocity":95,"startTime":91.63044699999999,"endTime":91.84783833333333,"instrument":1,"program":12},{"pitch":74,"velocity":95,"startTime":93.913056,"endTime":94.0760995,"instrument":1,"program":12},{"pitch":69,"velocity":95,"startTime":94.0760995,"endTime":94.18479516666666,"instrument":1,"program":12},{"pitch":69,"velocity":95,"startTime":94.239143,"endTime":94.34783866666666,"instrument":1,"program":12},{"pitch":72,"velocity":95,"startTime":94.4021865,"endTime":94.51088216666666,"instrument":1,"program":12},{"pitch":69,"velocity":95,"startTime":95.86957799999999,"endTime":96.03262149999999,"instrument":1,"program":12},{"pitch":74,"velocity":95,"startTime":96.03262149999999,"endTime":96.14131716666665,"instrument":1,"program":12},{"pitch":69,"velocity":95,"startTime":96.19566499999999,"endTime":96.30436066666665,"instrument":1,"program":12},{"pitch":72,"velocity":95,"startTime":96.35870849999999,"endTime":96.46740416666665,"instrument":1,"program":12},{"pitch":74,"velocity":95,"startTime":97.173926,"endTime":97.3369695,"instrument":1,"program":12},{"pitch":69,"velocity":95,"startTime":97.3369695,"endTime":97.44566516666666,"instrument":1,"program":12},{"pitch":74,"velocity":95,"startTime":97.500013,"endTime":97.60870866666666,"instrument":1,"program":12},{"pitch":69,"velocity":95,"startTime":97.6630565,"endTime":97.77175216666666,"instrument":1,"program":12},{"pitch":74,"velocity":95,"startTime":97.8261,"endTime":97.93479566666666,"instrument":1,"program":12},{"pitch":74,"velocity":95,"startTime":97.9891435,"endTime":98.09783916666666,"instrument":1,"program":12},{"pitch":69,"velocity":95,"startTime":98.152187,"endTime":98.26088266666666,"instrument":1,"program":12},{"pitch":74,"velocity":95,"startTime":98.3152305,"endTime":98.36957833333332,"instrument":1,"program":12},{"pitch":74,"velocity":95,"startTime":98.478274,"endTime":98.58696966666666,"instrument":1,"program":12},{"pitch":69,"velocity":95,"startTime":98.6413175,"endTime":98.75001316666666,"instrument":1,"program":12},{"pitch":74,"velocity":95,"startTime":98.80436099999999,"endTime":98.91305666666666,"instrument":1,"program":12},{"pitch":74,"velocity":95,"startTime":98.96740449999999,"endTime":99.07610016666666,"instrument":1,"program":12},{"pitch":69,"velocity":95,"startTime":99.13044799999999,"endTime":99.29349149999999,"instrument":1,"program":12},{"pitch":74,"velocity":95,"startTime":99.29349149999999,"endTime":99.40218716666666,"instrument":1,"program":12},{"pitch":69,"velocity":95,"startTime":99.45653499999999,"endTime":99.56523066666666,"instrument":1,"program":12},{"pitch":74,"velocity":95,"startTime":99.61957849999999,"endTime":99.67392633333333,"instrument":1,"program":12},{"pitch":81,"velocity":95,"startTime":99.78262199999999,"endTime":99.89131766666667,"instrument":1,"program":12},{"pitch":69,"velocity":95,"startTime":99.94566549999999,"endTime":100.00001333333333,"instrument":1,"program":12},{"pitch":74,"velocity":95,"startTime":100.10870899999999,"endTime":100.21740466666665,"instrument":1,"program":12},{"pitch":69,"velocity":95,"startTime":100.27175249999999,"endTime":100.32610033333333,"instrument":1,"program":12},{"pitch":62,"velocity":95,"startTime":100.43479599999999,"endTime":100.54349166666665,"instrument":1,"program":12},{"pitch":74,"velocity":95,"startTime":100.59783949999999,"endTime":100.70653516666665,"instrument":1,"program":12},{"pitch":69,"velocity":95,"startTime":100.76088299999999,"endTime":100.86957866666665,"instrument":1,"program":12},{"pitch":74,"velocity":95,"startTime":100.9239265,"endTime":101.03262216666666,"instrument":1,"program":12},{"pitch":72,"velocity":95,"startTime":101.08697,"endTime":101.19566566666666,"instrument":1,"program":12},{"pitch":74,"velocity":95,"startTime":101.2500135,"endTime":101.35870916666666,"instrument":1,"program":12},{"pitch":72,"velocity":95,"startTime":101.413057,"endTime":101.52175266666666,"instrument":1,"program":12},{"pitch":69,"velocity":95,"startTime":101.5761005,"endTime":101.68479616666666,"instrument":1,"program":12},{"pitch":70,"velocity":95,"startTime":101.739144,"endTime":101.9021875,"instrument":1,"program":12},{"pitch":65,"velocity":95,"startTime":101.9021875,"endTime":102.01088316666666,"instrument":1,"program":12},{"pitch":67,"velocity":95,"startTime":102.065231,"endTime":102.17392666666666,"instrument":1,"program":12},{"pitch":70,"velocity":95,"startTime":102.2282745,"endTime":102.28262233333332,"instrument":1,"program":12},{"pitch":77,"velocity":95,"startTime":102.391318,"endTime":102.50001366666666,"instrument":1,"program":12},{"pitch":70,"velocity":95,"startTime":102.5543615,"endTime":102.60870933333332,"instrument":1,"program":12},{"pitch":67,"velocity":95,"startTime":102.71740499999999,"endTime":102.82610066666666,"instrument":1,"program":12},{"pitch":70,"velocity":95,"startTime":102.88044849999999,"endTime":102.93479633333332,"instrument":1,"program":12},{"pitch":74,"velocity":95,"startTime":103.04349199999999,"endTime":103.15218766666666,"instrument":1,"program":12},{"pitch":67,"velocity":95,"startTime":103.20653549999999,"endTime":103.31523116666666,"instrument":1,"program":12},{"pitch":70,"velocity":95,"startTime":103.36957899999999,"endTime":103.47827466666666,"instrument":1,"program":12},{"pitch":77,"velocity":95,"startTime":103.53262249999999,"endTime":103.58697033333333,"instrument":1,"program":12},{"pitch":74,"velocity":95,"startTime":103.69566599999999,"endTime":103.75001383333333,"instrument":1,"program":12},{"pitch":67,"velocity":95,"startTime":103.85870949999999,"endTime":103.96740516666667,"instrument":1,"program":12},{"pitch":70,"velocity":95,"startTime":104.02175299999999,"endTime":104.13044866666665,"instrument":1,"program":12},{"pitch":67,"velocity":95,"startTime":104.18479649999999,"endTime":104.29349216666665,"instrument":1,"program":12},{"pitch":43,"velocity":110,"startTime":83.47827199999999,"endTime":83.64131549999999,"instrument":2,"program":32},{"pitch":43,"velocity":110,"startTime":83.80435899999999,"endTime":83.96740249999999,"instrument":2,"program":32},{"pitch":38,"velocity":110,"startTime":84.13044599999999,"endTime":84.29348949999999,"instrument":2,"program":32},{"pitch":38,"velocity":110,"startTime":84.456533,"endTime":84.9456635,"instrument":2,"program":32},{"pitch":29,"velocity":110,"startTime":85.108707,"endTime":85.2717505,"instrument":2,"program":32},{"pitch":41,"velocity":110,"startTime":85.434794,"endTime":85.5978375,"instrument":2,"program":32},{"pitch":46,"velocity":110,"startTime":85.760881,"endTime":85.9239245,"instrument":2,"program":32},{"pitch":40,"velocity":110,"startTime":86.086968,"endTime":86.413055,"instrument":2,"program":32},{"pitch":40,"velocity":110,"startTime":86.5760985,"endTime":86.73914199999999,"instrument":2,"program":32},{"pitch":40,"velocity":110,"startTime":86.90218549999999,"endTime":87.06522899999999,"instrument":2,"program":32},{"pitch":28,"velocity":110,"startTime":87.06522899999999,"endTime":87.22827249999999,"instrument":2,"program":32},{"pitch":39,"velocity":110,"startTime":87.39131599999999,"endTime":87.71740299999999,"instrument":2,"program":32},{"pitch":39,"velocity":110,"startTime":87.88044649999999,"endTime":88.04348999999999,"instrument":2,"program":32},{"pitch":38,"velocity":110,"startTime":88.04348999999999,"endTime":88.26088133333333,"instrument":2,"program":32},{"pitch":38,"velocity":110,"startTime":88.36957699999999,"endTime":88.5326205,"instrument":2,"program":32},{"pitch":31,"velocity":110,"startTime":88.695664,"endTime":88.91305533333333,"instrument":2,"program":32},{"pitch":33,"velocity":110,"startTime":90.97827299999999,"endTime":91.46740349999999,"instrument":2,"program":32},{"pitch":33,"velocity":110,"startTime":91.63044699999999,"endTime":91.79349049999999,"instrument":2,"program":32},{"pitch":38,"velocity":110,"startTime":91.95653399999999,"endTime":92.11957749999999,"instrument":2,"program":32},{"pitch":38,"velocity":110,"startTime":92.28262099999999,"endTime":92.44566449999999,"instrument":2,"program":32},{"pitch":33,"velocity":110,"startTime":92.608708,"endTime":92.7717515,"instrument":2,"program":32},{"pitch":36,"velocity":110,"startTime":92.934795,"endTime":93.0978385,"instrument":2,"program":32},{"pitch":38,"velocity":110,"startTime":93.260882,"endTime":93.4239255,"instrument":2,"program":32},{"pitch":36,"velocity":110,"startTime":93.586969,"endTime":93.7500125,"instrument":2,"program":32},{"pitch":38,"velocity":110,"startTime":93.913056,"endTime":94.239143,"instrument":2,"program":32},{"pitch":38,"velocity":110,"startTime":94.4021865,"endTime":94.56523,"instrument":2,"program":32},{"pitch":45,"velocity":110,"startTime":94.72827349999999,"endTime":94.89131699999999,"instrument":2,"program":32},{"pitch":38,"velocity":110,"startTime":94.89131699999999,"endTime":95.05436049999999,"instrument":2,"program":32},{"pitch":45,"velocity":110,"startTime":95.21740399999999,"endTime":95.38044749999999,"instrument":2,"program":32},{"pitch":38,"velocity":110,"startTime":95.54349099999999,"endTime":95.70653449999999,"instrument":2,"program":32},{"pitch":42,"velocity":110,"startTime":95.86957799999999,"endTime":96.03262149999999,"instrument":2,"program":32},{"pitch":45,"velocity":110,"startTime":96.19566499999999,"endTime":96.35870849999999,"instrument":2,"program":32},{"pitch":38,"velocity":110,"startTime":96.52175199999999,"endTime":96.847839,"instrument":2,"program":32},{"pitch":50,"velocity":110,"startTime":97.0108825,"endTime":97.173926,"instrument":2,"program":32},{"pitch":45,"velocity":110,"startTime":97.3369695,"endTime":97.500013,"instrument":2,"program":32},{"pitch":50,"velocity":110,"startTime":97.500013,"endTime":97.6630565,"instrument":2,"program":32},{"pitch":45,"velocity":110,"startTime":97.8261,"endTime":97.9891435,"instrument":2,"program":32},{"pitch":50,"velocity":110,"startTime":98.152187,"endTime":98.3152305,"instrument":2,"program":32},{"pitch":42,"velocity":110,"startTime":98.478274,"endTime":98.6413175,"instrument":2,"program":32},{"pitch":42,"velocity":110,"startTime":98.80436099999999,"endTime":98.96740449999999,"instrument":2,"program":32},{"pitch":38,"velocity":110,"startTime":99.13044799999999,"endTime":99.45653499999999,"instrument":2,"program":32},{"pitch":38,"velocity":110,"startTime":99.61957849999999,"endTime":99.78262199999999,"instrument":2,"program":32},{"pitch":38,"velocity":110,"startTime":99.94566549999999,"endTime":100.10870899999999,"instrument":2,"program":32},{"pitch":42,"velocity":110,"startTime":100.10870899999999,"endTime":100.27175249999999,"instrument":2,"program":32},{"pitch":43,"velocity":110,"startTime":100.43479599999999,"endTime":100.59783949999999,"instrument":2,"program":32},{"pitch":48,"velocity":110,"startTime":100.76088299999999,"endTime":100.9239265,"instrument":2,"program":32},{"pitch":42,"velocity":110,"startTime":101.08697,"endTime":101.2500135,"instrument":2,"program":32},{"pitch":45,"velocity":110,"startTime":101.413057,"endTime":101.5761005,"instrument":2,"program":32},{"pitch":31,"velocity":110,"startTime":101.739144,"endTime":102.065231,"instrument":2,"program":32},{"pitch":31,"velocity":110,"startTime":102.2282745,"endTime":102.391318,"instrument":2,"program":32},{"pitch":31,"velocity":110,"startTime":102.5543615,"endTime":102.71740499999999,"instrument":2,"program":32},{"pitch":31,"velocity":110,"startTime":102.71740499999999,"endTime":102.88044849999999,"instrument":2,"program":32},{"pitch":31,"velocity":110,"startTime":103.04349199999999,"endTime":103.20653549999999,"instrument":2,"program":32},{"pitch":31,"velocity":110,"startTime":103.36957899999999,"endTime":103.53262249999999,"instrument":2,"program":32},{"pitch":31,"velocity":110,"startTime":103.69566599999999,"endTime":103.85870949999999,"instrument":2,"program":32},{"pitch":43,"velocity":110,"startTime":104.02175299999999,"endTime":104.18479649999999,"instrument":2,"program":32},{"pitch":55,"velocity":105,"startTime":83.47827199999999,"endTime":84.56522866666666,"instrument":3,"program":50},{"pitch":58,"velocity":105,"startTime":83.47827199999999,"endTime":84.56522866666666,"instrument":3,"program":50},{"pitch":62,"velocity":105,"startTime":83.47827199999999,"endTime":84.56522866666666,"instrument":3,"program":50},{"pitch":65,"velocity":105,"startTime":83.47827199999999,"endTime":84.56522866666666,"instrument":3,"program":50},{"pitch":58,"velocity":105,"startTime":84.6195765,"endTime":85.97827233333334,"instrument":3,"program":50},{"pitch":60,"velocity":105,"startTime":84.6195765,"endTime":85.97827233333334,"instrument":3,"program":50},{"pitch":65,"velocity":105,"startTime":84.6195765,"endTime":85.97827233333334,"instrument":3,"program":50},{"pitch":67,"velocity":105,"startTime":85.108707,"endTime":85.97827233333334,"instrument":3,"program":50},{"pitch":72,"velocity":105,"startTime":85.434794,"endTime":85.9239245,"instrument":3,"program":50},{"pitch":57,"velocity":105,"startTime":86.086968,"endTime":87.17392466666665,"instrument":3,"program":50},{"pitch":60,"velocity":105,"startTime":86.086968,"endTime":87.17392466666665,"instrument":3,"program":50},{"pitch":64,"velocity":105,"startTime":86.086968,"endTime":87.17392466666665,"instrument":3,"program":50},{"pitch":67,"velocity":105,"startTime":86.086968,"endTime":87.17392466666665,"instrument":3,"program":50},{"pitch":72,"velocity":105,"startTime":86.086968,"endTime":87.17392466666665,"instrument":3,"program":50},{"pitch":58,"velocity":105,"startTime":87.22827249999999,"endTime":87.98914216666665,"instrument":3,"program":50},{"pitch":62,"velocity":105,"startTime":87.22827249999999,"endTime":87.55435949999999,"instrument":3,"program":50},{"pitch":65,"velocity":105,"startTime":87.22827249999999,"endTime":88.04348999999999,"instrument":3,"program":50},{"pitch":68,"velocity":105,"startTime":87.22827249999999,"endTime":87.55435949999999,"instrument":3,"program":50},{"pitch":74,"velocity":105,"startTime":87.22827249999999,"endTime":87.98914216666665,"instrument":3,"program":50},{"pitch":62,"velocity":105,"startTime":87.60870733333334,"endTime":87.93479433333334,"instrument":3,"program":50},{"pitch":55,"velocity":105,"startTime":88.04348999999999,"endTime":88.695664,"instrument":3,"program":50},{"pitch":58,"velocity":105,"startTime":88.04348999999999,"endTime":88.695664,"instrument":3,"program":50},{"pitch":63,"velocity":105,"startTime":88.04348999999999,"endTime":88.695664,"instrument":3,"program":50},{"pitch":67,"velocity":105,"startTime":88.04348999999999,"endTime":88.695664,"instrument":3,"program":50},{"pitch":59,"velocity":105,"startTime":88.695664,"endTime":91.19566433333333,"instrument":3,"program":50},{"pitch":62,"velocity":105,"startTime":88.695664,"endTime":91.19566433333333,"instrument":3,"program":50},{"pitch":65,"velocity":105,"startTime":88.695664,"endTime":91.19566433333333,"instrument":3,"program":50},{"pitch":67,"velocity":105,"startTime":88.695664,"endTime":91.19566433333333,"instrument":3,"program":50},{"pitch":58,"velocity":105,"startTime":95.76088233333333,"endTime":96.52175199999999,"instrument":3,"program":50},{"pitch":60,"velocity":105,"startTime":95.76088233333333,"endTime":96.52175199999999,"instrument":3,"program":50},{"pitch":62,"velocity":105,"startTime":95.76088233333333,"endTime":96.52175199999999,"instrument":3,"program":50},{"pitch":66,"velocity":105,"startTime":95.76088233333333,"endTime":96.52175199999999,"instrument":3,"program":50},{"pitch":69,"velocity":105,"startTime":95.76088233333333,"endTime":96.52175199999999,"instrument":3,"program":50},{"pitch":56,"velocity":105,"startTime":96.52175199999999,"endTime":99.02175233333332,"instrument":3,"program":50},{"pitch":60,"velocity":105,"startTime":96.52175199999999,"endTime":99.02175233333332,"instrument":3,"program":50},{"pitch":62,"velocity":105,"startTime":96.52175199999999,"endTime":99.02175233333332,"instrument":3,"program":50},{"pitch":66,"velocity":105,"startTime":96.52175199999999,"endTime":99.02175233333332,"instrument":3,"program":50},{"pitch":60,"velocity":105,"startTime":99.13044799999999,"endTime":101.46740483333332,"instrument":3,"program":50},{"pitch":62,"velocity":105,"startTime":99.13044799999999,"endTime":101.413057,"instrument":3,"program":50},{"pitch":66,"velocity":105,"startTime":99.13044799999999,"endTime":101.46740483333332,"instrument":3,"program":50},{"pitch":69,"velocity":105,"startTime":99.13044799999999,"endTime":101.413057,"instrument":3,"program":50},{"pitch":58,"velocity":105,"startTime":101.739144,"endTime":104.23914433333333,"instrument":3,"program":50},{"pitch":62,"velocity":105,"startTime":101.739144,"endTime":104.23914433333333,"instrument":3,"program":50},{"pitch":65,"velocity":105,"startTime":101.739144,"endTime":104.23914433333333,"instrument":3,"program":50},{"pitch":67,"velocity":105,"startTime":101.739144,"endTime":104.23914433333333,"instrument":3,"program":50},{"pitch":35,"velocity":102,"startTime":104.34783999999999,"endTime":104.45653566666665,"isDrum":true},{"pitch":42,"velocity":102,"startTime":104.34783999999999,"endTime":104.45653566666665,"isDrum":true},{"pitch":42,"velocity":102,"startTime":104.67392699999999,"endTime":104.78262266666665,"isDrum":true},{"pitch":35,"velocity":102,"startTime":104.83697049999999,"endTime":104.94566616666665,"isDrum":true},{"pitch":40,"velocity":102,"startTime":105.000014,"endTime":105.10870966666666,"isDrum":true},{"pitch":42,"velocity":102,"startTime":105.000014,"endTime":105.10870966666666,"isDrum":true},{"pitch":35,"velocity":102,"startTime":105.326101,"endTime":105.43479666666666,"isDrum":true},{"pitch":42,"velocity":102,"startTime":105.326101,"endTime":105.43479666666666,"isDrum":true},{"pitch":35,"velocity":102,"startTime":105.652188,"endTime":105.76088366666666,"isDrum":true},{"pitch":42,"velocity":102,"startTime":105.652188,"endTime":105.76088366666666,"isDrum":true},{"pitch":42,"velocity":102,"startTime":105.978275,"endTime":106.08697066666666,"isDrum":true},{"pitch":40,"velocity":102,"startTime":106.304362,"endTime":106.41305766666666,"isDrum":true},{"pitch":42,"velocity":102,"startTime":106.304362,"endTime":106.41305766666666,"isDrum":true},{"pitch":42,"velocity":102,"startTime":106.630449,"endTime":106.73914466666666,"isDrum":true},{"pitch":35,"velocity":102,"startTime":106.79349249999999,"endTime":106.90218816666666,"isDrum":true},{"pitch":35,"velocity":102,"startTime":106.95653599999999,"endTime":107.06523166666666,"isDrum":true},{"pitch":42,"velocity":102,"startTime":106.95653599999999,"endTime":107.06523166666666,"isDrum":true},{"pitch":42,"velocity":102,"startTime":107.11957949999999,"endTime":107.22827516666666,"isDrum":true},{"pitch":35,"velocity":102,"startTime":107.28262299999999,"endTime":107.39131866666666,"isDrum":true},{"pitch":42,"velocity":102,"startTime":107.28262299999999,"endTime":107.39131866666666,"isDrum":true},{"pitch":40,"velocity":102,"startTime":107.44566649999999,"endTime":107.55436216666666,"isDrum":true},{"pitch":40,"velocity":102,"startTime":107.60870999999999,"endTime":107.71740566666666,"isDrum":true},{"pitch":42,"velocity":102,"startTime":107.60870999999999,"endTime":107.71740566666666,"isDrum":true},{"pitch":35,"velocity":102,"startTime":107.93479699999999,"endTime":108.04349266666667,"isDrum":true},{"pitch":42,"velocity":102,"startTime":107.93479699999999,"endTime":108.04349266666667,"isDrum":true},{"pitch":35,"velocity":102,"startTime":108.09784049999999,"endTime":108.20653616666665,"isDrum":true},{"pitch":42,"velocity":102,"startTime":108.09784049999999,"endTime":108.20653616666665,"isDrum":true},{"pitch":35,"velocity":102,"startTime":108.26088399999999,"endTime":108.36957966666665,"isDrum":true},{"pitch":42,"velocity":102,"startTime":108.26088399999999,"endTime":108.36957966666665,"isDrum":true},{"pitch":42,"velocity":102,"startTime":108.58697099999999,"endTime":108.69566666666665,"isDrum":true},{"pitch":40,"velocity":102,"startTime":108.91305799999999,"endTime":109.02175366666665,"isDrum":true},{"pitch":42,"velocity":102,"startTime":108.91305799999999,"endTime":109.02175366666665,"isDrum":true},{"pitch":42,"velocity":102,"startTime":109.239145,"endTime":109.34784066666666,"isDrum":true},{"pitch":40,"velocity":102,"startTime":109.4021885,"endTime":109.51088416666666,"isDrum":true},{"pitch":35,"velocity":102,"startTime":109.565232,"endTime":109.67392766666666,"isDrum":true},{"pitch":42,"velocity":102,"startTime":109.565232,"endTime":109.67392766666666,"isDrum":true},{"pitch":35,"velocity":102,"startTime":109.891319,"endTime":110.00001466666666,"isDrum":true},{"pitch":42,"velocity":102,"startTime":109.891319,"endTime":110.00001466666666,"isDrum":true},{"pitch":40,"velocity":102,"startTime":110.217406,"endTime":110.32610166666666,"isDrum":true},{"pitch":42,"velocity":102,"startTime":110.217406,"endTime":110.32610166666666,"isDrum":true},{"pitch":42,"velocity":102,"startTime":110.543493,"endTime":110.65218866666666,"isDrum":true},{"pitch":35,"velocity":102,"startTime":110.86957999999998,"endTime":110.97827566666666,"isDrum":true},{"pitch":42,"velocity":102,"startTime":110.86957999999998,"endTime":110.97827566666666,"isDrum":true},{"pitch":42,"velocity":102,"startTime":111.19566699999999,"endTime":111.30436266666666,"isDrum":true},{"pitch":40,"velocity":102,"startTime":111.52175399999999,"endTime":111.63044966666666,"isDrum":true},{"pitch":42,"velocity":102,"startTime":111.52175399999999,"endTime":111.63044966666666,"isDrum":true},{"pitch":42,"velocity":102,"startTime":111.84784099999999,"endTime":111.95653666666666,"isDrum":true},{"pitch":35,"velocity":102,"startTime":112.01088449999999,"endTime":112.11958016666665,"isDrum":true},{"pitch":40,"velocity":102,"startTime":112.01088449999999,"endTime":112.11958016666665,"isDrum":true},{"pitch":35,"velocity":102,"startTime":112.17392799999999,"endTime":112.28262366666665,"isDrum":true},{"pitch":42,"velocity":102,"startTime":112.17392799999999,"endTime":112.28262366666665,"isDrum":true},{"pitch":40,"velocity":102,"startTime":112.33697149999999,"endTime":112.44566716666665,"isDrum":true},{"pitch":35,"velocity":102,"startTime":112.50001499999999,"endTime":112.60871066666665,"isDrum":true},{"pitch":42,"velocity":102,"startTime":112.50001499999999,"endTime":112.60871066666665,"isDrum":true},{"pitch":40,"velocity":102,"startTime":112.82610199999999,"endTime":112.93479766666665,"isDrum":true},{"pitch":42,"velocity":102,"startTime":112.82610199999999,"endTime":112.93479766666665,"isDrum":true},{"pitch":51,"velocity":102,"startTime":112.82610199999999,"endTime":112.93479766666665,"isDrum":true},{"pitch":42,"velocity":102,"startTime":113.15218899999999,"endTime":113.26088466666666,"isDrum":true},{"pitch":35,"velocity":102,"startTime":113.478276,"endTime":113.58697166666666,"isDrum":true},{"pitch":40,"velocity":102,"startTime":113.478276,"endTime":113.58697166666666,"isDrum":true},{"pitch":42,"velocity":102,"startTime":113.478276,"endTime":113.58697166666666,"isDrum":true},{"pitch":40,"velocity":102,"startTime":113.6413195,"endTime":113.75001516666666,"isDrum":true},{"pitch":42,"velocity":102,"startTime":113.804363,"endTime":113.91305866666666,"isDrum":true},{"pitch":35,"velocity":102,"startTime":113.9674065,"endTime":114.07610216666666,"isDrum":true},{"pitch":40,"velocity":102,"startTime":113.9674065,"endTime":114.07610216666666,"isDrum":true},{"pitch":40,"velocity":102,"startTime":114.13045,"endTime":114.23914566666666,"isDrum":true},{"pitch":42,"velocity":102,"startTime":114.13045,"endTime":114.23914566666666,"isDrum":true},{"pitch":40,"velocity":102,"startTime":114.2934935,"endTime":114.40218916666666,"isDrum":true},{"pitch":42,"velocity":102,"startTime":114.456537,"endTime":114.56523266666666,"isDrum":true},{"pitch":40,"velocity":102,"startTime":114.6195805,"endTime":114.72827616666666,"isDrum":true},{"pitch":35,"velocity":102,"startTime":114.782624,"endTime":114.89131966666666,"isDrum":true},{"pitch":40,"velocity":102,"startTime":114.782624,"endTime":114.89131966666666,"isDrum":true},{"pitch":42,"velocity":102,"startTime":114.782624,"endTime":114.89131966666666,"isDrum":true},{"pitch":40,"velocity":102,"startTime":114.94566749999998,"endTime":115.05436316666666,"isDrum":true},{"pitch":35,"velocity":102,"startTime":115.10871099999999,"endTime":115.21740666666666,"isDrum":true},{"pitch":42,"velocity":102,"startTime":115.10871099999999,"endTime":115.21740666666666,"isDrum":true},{"pitch":40,"velocity":102,"startTime":115.27175449999999,"endTime":115.38045016666666,"isDrum":true},{"pitch":40,"velocity":102,"startTime":115.43479799999999,"endTime":115.54349366666666,"isDrum":true},{"pitch":42,"velocity":102,"startTime":115.43479799999999,"endTime":115.54349366666666,"isDrum":true},{"pitch":40,"velocity":102,"startTime":115.59784149999999,"endTime":115.70653716666666,"isDrum":true},{"pitch":42,"velocity":102,"startTime":115.76088499999999,"endTime":115.86958066666666,"isDrum":true},{"pitch":40,"velocity":102,"startTime":115.92392849999999,"endTime":116.03262416666666,"isDrum":true},{"pitch":35,"velocity":102,"startTime":116.08697199999999,"endTime":116.19566766666665,"isDrum":true},{"pitch":40,"velocity":102,"startTime":116.08697199999999,"endTime":116.19566766666665,"isDrum":true},{"pitch":42,"velocity":102,"startTime":116.08697199999999,"endTime":116.19566766666665,"isDrum":true},{"pitch":40,"velocity":102,"startTime":116.25001549999999,"endTime":116.35871116666665,"isDrum":true},{"pitch":35,"velocity":102,"startTime":116.41305899999999,"endTime":116.52175466666665,"isDrum":true},{"pitch":42,"velocity":102,"startTime":116.41305899999999,"endTime":116.52175466666665,"isDrum":true},{"pitch":40,"velocity":102,"startTime":116.57610249999999,"endTime":116.68479816666665,"isDrum":true},{"pitch":40,"velocity":102,"startTime":116.73914599999999,"endTime":116.84784166666665,"isDrum":true},{"pitch":42,"velocity":102,"startTime":116.73914599999999,"endTime":116.84784166666665,"isDrum":true},{"pitch":42,"velocity":102,"startTime":117.06523299999999,"endTime":117.17392866666665,"isDrum":true},{"pitch":40,"velocity":102,"startTime":117.22827649999999,"endTime":117.33697216666665,"isDrum":true},{"pitch":35,"velocity":102,"startTime":117.39132,"endTime":117.50001566666666,"isDrum":true},{"pitch":42,"velocity":102,"startTime":117.39132,"endTime":117.50001566666666,"isDrum":true},{"pitch":35,"velocity":102,"startTime":117.717407,"endTime":117.82610266666666,"isDrum":true},{"pitch":42,"velocity":102,"startTime":117.717407,"endTime":117.82610266666666,"isDrum":true},{"pitch":40,"velocity":102,"startTime":118.043494,"endTime":118.15218966666666,"isDrum":true},{"pitch":42,"velocity":102,"startTime":118.043494,"endTime":118.15218966666666,"isDrum":true},{"pitch":42,"velocity":102,"startTime":118.369581,"endTime":118.47827666666666,"isDrum":true},{"pitch":40,"velocity":102,"startTime":118.5326245,"endTime":118.64132016666666,"isDrum":true},{"pitch":35,"velocity":102,"startTime":118.695668,"endTime":118.80436366666666,"isDrum":true},{"pitch":42,"velocity":102,"startTime":118.695668,"endTime":118.80436366666666,"isDrum":true},{"pitch":35,"velocity":102,"startTime":119.02175499999998,"endTime":119.13045066666666,"isDrum":true},{"pitch":42,"velocity":102,"startTime":119.02175499999998,"endTime":119.13045066666666,"isDrum":true},{"pitch":40,"velocity":102,"startTime":119.34784199999999,"endTime":119.45653766666666,"isDrum":true},{"pitch":42,"velocity":102,"startTime":119.34784199999999,"endTime":119.45653766666666,"isDrum":true},{"pitch":40,"velocity":102,"startTime":119.51088549999999,"endTime":119.61958116666666,"isDrum":true},{"pitch":42,"velocity":102,"startTime":119.67392899999999,"endTime":119.78262466666666,"isDrum":true},{"pitch":40,"velocity":102,"startTime":119.83697249999999,"endTime":119.94566816666666,"isDrum":true},{"pitch":35,"velocity":102,"startTime":120.00001599999999,"endTime":120.10871166666666,"isDrum":true},{"pitch":42,"velocity":102,"startTime":120.00001599999999,"endTime":120.10871166666666,"isDrum":true},{"pitch":35,"velocity":102,"startTime":120.32610299999999,"endTime":120.43479866666665,"isDrum":true},{"pitch":42,"velocity":102,"startTime":120.32610299999999,"endTime":120.43479866666665,"isDrum":true},{"pitch":40,"velocity":102,"startTime":120.65218999999999,"endTime":120.76088566666665,"isDrum":true},{"pitch":42,"velocity":102,"startTime":120.65218999999999,"endTime":120.76088566666665,"isDrum":true},{"pitch":42,"velocity":102,"startTime":120.97827699999999,"endTime":121.08697266666665,"isDrum":true},{"pitch":40,"velocity":102,"startTime":121.14132049999999,"endTime":121.25001616666665,"isDrum":true},{"pitch":35,"velocity":102,"startTime":121.30436399999999,"endTime":121.41305966666665,"isDrum":true},{"pitch":42,"velocity":102,"startTime":121.30436399999999,"endTime":121.41305966666665,"isDrum":true},{"pitch":35,"velocity":102,"startTime":121.630451,"endTime":121.73914666666666,"isDrum":true},{"pitch":42,"velocity":102,"startTime":121.630451,"endTime":121.73914666666666,"isDrum":true},{"pitch":40,"velocity":102,"startTime":121.956538,"endTime":122.06523366666666,"isDrum":true},{"pitch":42,"velocity":102,"startTime":121.956538,"endTime":122.06523366666666,"isDrum":true},{"pitch":42,"velocity":102,"startTime":122.282625,"endTime":122.39132066666666,"isDrum":true},{"pitch":40,"velocity":102,"startTime":122.4456685,"endTime":122.55436416666666,"isDrum":true},{"pitch":35,"velocity":102,"startTime":122.608712,"endTime":122.71740766666666,"isDrum":true},{"pitch":42,"velocity":102,"startTime":122.608712,"endTime":122.71740766666666,"isDrum":true},{"pitch":35,"velocity":102,"startTime":122.93479899999998,"endTime":123.04349466666666,"isDrum":true},{"pitch":42,"velocity":102,"startTime":122.93479899999998,"endTime":123.04349466666666,"isDrum":true},{"pitch":40,"velocity":102,"startTime":123.26088599999999,"endTime":123.36958166666666,"isDrum":true},{"pitch":42,"velocity":102,"startTime":123.26088599999999,"endTime":123.36958166666666,"isDrum":true},{"pitch":42,"velocity":102,"startTime":123.58697299999999,"endTime":123.69566866666666,"isDrum":true},{"pitch":40,"velocity":102,"startTime":123.75001649999999,"endTime":123.85871216666666,"isDrum":true},{"pitch":35,"velocity":102,"startTime":123.91305999999999,"endTime":124.02175566666666,"isDrum":true},{"pitch":42,"velocity":102,"startTime":123.91305999999999,"endTime":124.02175566666666,"isDrum":true},{"pitch":35,"velocity":102,"startTime":124.23914699999999,"endTime":124.34784266666665,"isDrum":true},{"pitch":42,"velocity":102,"startTime":124.23914699999999,"endTime":124.34784266666665,"isDrum":true},{"pitch":40,"velocity":102,"startTime":124.56523399999999,"endTime":124.67392966666665,"isDrum":true},{"pitch":42,"velocity":102,"startTime":124.56523399999999,"endTime":124.67392966666665,"isDrum":true},{"pitch":35,"velocity":102,"startTime":124.89132099999999,"endTime":125.00001666666665,"isDrum":true},{"pitch":42,"velocity":102,"startTime":124.89132099999999,"endTime":125.00001666666665,"isDrum":true},{"pitch":42,"velocity":102,"startTime":125.05436449999999,"endTime":125.16306016666665,"isDrum":true},{"pitch":67,"velocity":95,"startTime":104.34783999999999,"endTime":104.45653566666665,"instrument":1,"program":12},{"pitch":67,"velocity":95,"startTime":104.51088349999999,"endTime":104.61957916666665,"instrument":1,"program":12},{"pitch":70,"velocity":95,"startTime":104.67392699999999,"endTime":104.78262266666665,"instrument":1,"program":12},{"pitch":67,"velocity":95,"startTime":104.83697049999999,"endTime":104.94566616666665,"instrument":1,"program":12},{"pitch":70,"velocity":95,"startTime":105.000014,"endTime":105.10870966666666,"instrument":1,"program":12},{"pitch":67,"velocity":95,"startTime":105.1630575,"endTime":105.27175316666666,"instrument":1,"program":12},{"pitch":70,"velocity":95,"startTime":105.326101,"endTime":105.43479666666666,"instrument":1,"program":12},{"pitch":67,"velocity":95,"startTime":105.4891445,"endTime":105.59784016666666,"instrument":1,"program":12},{"pitch":62,"velocity":95,"startTime":105.652188,"endTime":105.76088366666666,"instrument":1,"program":12},{"pitch":67,"velocity":95,"startTime":105.8152315,"endTime":105.92392716666666,"instrument":1,"program":12},{"pitch":70,"velocity":95,"startTime":105.978275,"endTime":106.08697066666666,"instrument":1,"program":12},{"pitch":67,"velocity":95,"startTime":106.1413185,"endTime":106.25001416666666,"instrument":1,"program":12},{"pitch":70,"velocity":95,"startTime":106.304362,"endTime":106.41305766666666,"instrument":1,"program":12},{"pitch":67,"velocity":95,"startTime":106.4674055,"endTime":106.57610116666666,"instrument":1,"program":12},{"pitch":70,"velocity":95,"startTime":106.630449,"endTime":106.73914466666666,"instrument":1,"program":12},{"pitch":67,"velocity":95,"startTime":106.79349249999999,"endTime":106.90218816666666,"instrument":1,"program":12},{"pitch":64,"velocity":95,"startTime":106.95653599999999,"endTime":107.06523166666666,"instrument":1,"program":12},{"pitch":64,"velocity":95,"startTime":107.11957949999999,"endTime":107.22827516666666,"instrument":1,"program":12},{"pitch":69,"velocity":95,"startTime":107.28262299999999,"endTime":107.39131866666666,"instrument":1,"program":12},{"pitch":64,"velocity":95,"startTime":107.44566649999999,"endTime":107.55436216666666,"instrument":1,"program":12},{"pitch":69,"velocity":95,"startTime":107.60870999999999,"endTime":107.71740566666666,"instrument":1,"program":12},{"pitch":64,"velocity":95,"startTime":107.77175349999999,"endTime":107.88044916666666,"instrument":1,"program":12},{"pitch":65,"velocity":95,"startTime":107.93479699999999,"endTime":108.04349266666667,"instrument":1,"program":12},{"pitch":69,"velocity":95,"startTime":108.09784049999999,"endTime":108.20653616666665,"instrument":1,"program":12},{"pitch":62,"velocity":95,"startTime":108.26088399999999,"endTime":108.36957966666665,"instrument":1,"program":12},{"pitch":69,"velocity":95,"startTime":108.42392749999999,"endTime":108.53262316666665,"instrument":1,"program":12},{"pitch":69,"velocity":95,"startTime":108.58697099999999,"endTime":108.69566666666665,"instrument":1,"program":12},{"pitch":69,"velocity":95,"startTime":108.75001449999999,"endTime":108.85871016666665,"instrument":1,"program":12},{"pitch":62,"velocity":95,"startTime":108.91305799999999,"endTime":109.02175366666665,"instrument":1,"program":12},{"pitch":67,"velocity":95,"startTime":109.0761015,"endTime":109.18479716666666,"instrument":1,"program":12},{"pitch":70,"velocity":95,"startTime":109.239145,"endTime":109.34784066666666,"instrument":1,"program":12},{"pitch":62,"velocity":95,"startTime":109.4021885,"endTime":109.51088416666666,"instrument":1,"program":12},{"pitch":62,"velocity":95,"startTime":109.565232,"endTime":109.67392766666666,"instrument":1,"program":12},{"pitch":67,"velocity":95,"startTime":109.7282755,"endTime":109.83697116666666,"instrument":1,"program":12},{"pitch":71,"velocity":95,"startTime":109.891319,"endTime":110.00001466666666,"instrument":1,"program":12},{"pitch":77,"velocity":95,"startTime":110.0543625,"endTime":110.16305816666666,"instrument":1,"program":12},{"pitch":67,"velocity":95,"startTime":110.217406,"endTime":110.32610166666666,"instrument":1,"program":12},{"pitch":71,"velocity":95,"startTime":110.3804495,"endTime":110.48914516666666,"instrument":1,"program":12},{"pitch":62,"velocity":95,"startTime":110.543493,"endTime":110.65218866666666,"instrument":1,"program":12},{"pitch":67,"velocity":95,"startTime":110.7065365,"endTime":110.81523216666666,"instrument":1,"program":12},{"pitch":62,"velocity":95,"startTime":110.86957999999998,"endTime":110.97827566666666,"instrument":1,"program":12},{"pitch":67,"velocity":95,"startTime":111.03262349999999,"endTime":111.14131916666666,"instrument":1,"program":12},{"pitch":71,"velocity":95,"startTime":111.19566699999999,"endTime":111.30436266666666,"instrument":1,"program":12},{"pitch":67,"velocity":95,"startTime":111.35871049999999,"endTime":111.46740616666666,"instrument":1,"program":12},{"pitch":71,"velocity":95,"startTime":111.52175399999999,"endTime":111.63044966666666,"instrument":1,"program":12},{"pitch":67,"velocity":95,"startTime":111.68479749999999,"endTime":111.79349316666666,"instrument":1,"program":12},{"pitch":62,"velocity":95,"startTime":111.84784099999999,"endTime":111.95653666666666,"instrument":1,"program":12},{"pitch":62,"velocity":95,"startTime":112.01088449999999,"endTime":112.11958016666665,"instrument":1,"program":12},{"pitch":63,"velocity":95,"startTime":112.17392799999999,"endTime":112.28262366666665,"instrument":1,"program":12},{"pitch":67,"velocity":95,"startTime":112.33697149999999,"endTime":112.44566716666665,"instrument":1,"program":12},{"pitch":70,"velocity":95,"startTime":112.50001499999999,"endTime":112.60871066666665,"instrument":1,"program":12},{"pitch":63,"velocity":95,"startTime":112.66305849999999,"endTime":112.77175416666665,"instrument":1,"program":12},{"pitch":75,"velocity":95,"startTime":112.82610199999999,"endTime":112.93479766666665,"instrument":1,"program":12},{"pitch":70,"velocity":95,"startTime":112.98914549999999,"endTime":113.09784116666665,"instrument":1,"program":12},{"pitch":67,"velocity":95,"startTime":113.15218899999999,"endTime":113.26088466666666,"instrument":1,"program":12},{"pitch":63,"velocity":95,"startTime":113.3152325,"endTime":113.42392816666666,"instrument":1,"program":12},{"pitch":70,"velocity":95,"startTime":113.478276,"endTime":113.58697166666666,"instrument":1,"program":12},{"pitch":67,"velocity":95,"startTime":113.6413195,"endTime":113.75001516666666,"instrument":1,"program":12},{"pitch":72,"velocity":95,"startTime":113.804363,"endTime":113.91305866666666,"instrument":1,"program":12},{"pitch":70,"velocity":95,"startTime":113.9674065,"endTime":114.07610216666666,"instrument":1,"program":12},{"pitch":63,"velocity":95,"startTime":114.13045,"endTime":114.23914566666666,"instrument":1,"program":12},{"pitch":67,"velocity":95,"startTime":114.2934935,"endTime":114.40218916666666,"instrument":1,"program":12},{"pitch":70,"velocity":95,"startTime":114.456537,"endTime":114.56523266666666,"instrument":1,"program":12},{"pitch":63,"velocity":95,"startTime":114.6195805,"endTime":114.72827616666666,"instrument":1,"program":12},{"pitch":63,"velocity":95,"startTime":114.782624,"endTime":114.89131966666666,"instrument":1,"program":12},{"pitch":72,"velocity":95,"startTime":114.94566749999998,"endTime":115.05436316666666,"instrument":1,"program":12},{"pitch":72,"velocity":95,"startTime":115.10871099999999,"endTime":115.21740666666666,"instrument":1,"program":12},{"pitch":75,"velocity":95,"startTime":115.27175449999999,"endTime":115.38045016666666,"instrument":1,"program":12},{"pitch":72,"velocity":95,"startTime":115.43479799999999,"endTime":115.54349366666666,"instrument":1,"program":12},{"pitch":63,"velocity":95,"startTime":115.59784149999999,"endTime":115.70653716666666,"instrument":1,"program":12},{"pitch":72,"velocity":95,"startTime":115.76088499999999,"endTime":115.86958066666666,"instrument":1,"program":12},{"pitch":72,"velocity":95,"startTime":115.92392849999999,"endTime":116.03262416666666,"instrument":1,"program":12},{"pitch":75,"velocity":95,"startTime":116.08697199999999,"endTime":116.19566766666665,"instrument":1,"program":12},{"pitch":75,"velocity":95,"startTime":116.25001549999999,"endTime":116.35871116666665,"instrument":1,"program":12},{"pitch":72,"velocity":95,"startTime":116.41305899999999,"endTime":116.52175466666665,"instrument":1,"program":12},{"pitch":75,"velocity":95,"startTime":116.57610249999999,"endTime":116.68479816666665,"instrument":1,"program":12},{"pitch":63,"velocity":95,"startTime":116.73914599999999,"endTime":116.84784166666665,"instrument":1,"program":12},{"pitch":70,"velocity":95,"startTime":116.90218949999999,"endTime":117.01088516666665,"instrument":1,"program":12},{"pitch":72,"velocity":95,"startTime":117.06523299999999,"endTime":117.17392866666665,"instrument":1,"program":12},{"pitch":63,"velocity":95,"startTime":117.22827649999999,"endTime":117.33697216666665,"instrument":1,"program":12},{"pitch":62,"velocity":95,"startTime":117.39132,"endTime":117.50001566666666,"instrument":1,"program":12},{"pitch":70,"velocity":95,"startTime":117.5543635,"endTime":117.66305916666666,"instrument":1,"program":12},{"pitch":67,"velocity":95,"startTime":117.717407,"endTime":117.82610266666666,"instrument":1,"program":12},{"pitch":62,"velocity":95,"startTime":117.8804505,"endTime":117.98914616666666,"instrument":1,"program":12},{"pitch":67,"velocity":95,"startTime":118.043494,"endTime":118.15218966666666,"instrument":1,"program":12},{"pitch":74,"velocity":95,"startTime":118.2065375,"endTime":118.31523316666666,"instrument":1,"program":12},{"pitch":70,"velocity":95,"startTime":118.369581,"endTime":118.47827666666666,"instrument":1,"program":12},{"pitch":67,"velocity":95,"startTime":118.5326245,"endTime":118.64132016666666,"instrument":1,"program":12},{"pitch":62,"velocity":95,"startTime":118.695668,"endTime":118.80436366666666,"instrument":1,"program":12},{"pitch":70,"velocity":95,"startTime":118.85871149999998,"endTime":118.96740716666666,"instrument":1,"program":12},{"pitch":67,"velocity":95,"startTime":119.02175499999998,"endTime":119.13045066666666,"instrument":1,"program":12},{"pitch":62,"velocity":95,"startTime":119.18479849999999,"endTime":119.29349416666666,"instrument":1,"program":12},{"pitch":67,"velocity":95,"startTime":119.34784199999999,"endTime":119.45653766666666,"instrument":1,"program":12},{"pitch":70,"velocity":95,"startTime":119.51088549999999,"endTime":119.61958116666666,"instrument":1,"program":12},{"pitch":67,"velocity":95,"startTime":119.67392899999999,"endTime":119.78262466666666,"instrument":1,"program":12},{"pitch":70,"velocity":95,"startTime":119.83697249999999,"endTime":119.94566816666666,"instrument":1,"program":12},{"pitch":62,"velocity":95,"startTime":120.00001599999999,"endTime":120.10871166666666,"instrument":1,"program":12},{"pitch":69,"velocity":95,"startTime":120.16305949999999,"endTime":120.27175516666665,"instrument":1,"program":12},{"pitch":72,"velocity":95,"startTime":120.32610299999999,"endTime":120.43479866666665,"instrument":1,"program":12},{"pitch":69,"velocity":95,"startTime":120.48914649999999,"endTime":120.59784216666665,"instrument":1,"program":12},{"pitch":74,"velocity":95,"startTime":120.65218999999999,"endTime":120.76088566666665,"instrument":1,"program":12},{"pitch":69,"velocity":95,"startTime":120.81523349999999,"endTime":120.92392916666665,"instrument":1,"program":12},{"pitch":69,"velocity":95,"startTime":120.97827699999999,"endTime":121.08697266666665,"instrument":1,"program":12},{"pitch":69,"velocity":95,"startTime":121.14132049999999,"endTime":121.25001616666665,"instrument":1,"program":12},{"pitch":62,"velocity":95,"startTime":121.30436399999999,"endTime":121.41305966666665,"instrument":1,"program":12},{"pitch":69,"velocity":95,"startTime":121.4674075,"endTime":121.57610316666666,"instrument":1,"program":12},{"pitch":74,"velocity":95,"startTime":121.630451,"endTime":121.73914666666666,"instrument":1,"program":12},{"pitch":69,"velocity":95,"startTime":121.7934945,"endTime":121.90219016666666,"instrument":1,"program":12},{"pitch":69,"velocity":95,"startTime":121.956538,"endTime":122.06523366666666,"instrument":1,"program":12},{"pitch":74,"velocity":95,"startTime":122.1195815,"endTime":122.22827716666666,"instrument":1,"program":12},{"pitch":69,"velocity":95,"startTime":122.282625,"endTime":122.39132066666666,"instrument":1,"program":12},{"pitch":69,"velocity":95,"startTime":122.4456685,"endTime":122.55436416666666,"instrument":1,"program":12},{"pitch":62,"velocity":95,"startTime":122.608712,"endTime":122.71740766666666,"instrument":1,"program":12},{"pitch":69,"velocity":95,"startTime":122.7717555,"endTime":122.88045116666666,"instrument":1,"program":12},{"pitch":74,"velocity":95,"startTime":122.93479899999998,"endTime":123.04349466666666,"instrument":1,"program":12},{"pitch":69,"velocity":95,"startTime":123.09784249999998,"endTime":123.20653816666666,"instrument":1,"program":12},{"pitch":74,"velocity":95,"startTime":123.26088599999999,"endTime":123.36958166666666,"instrument":1,"program":12},{"pitch":69,"velocity":95,"startTime":123.42392949999999,"endTime":123.53262516666666,"instrument":1,"program":12},{"pitch":69,"velocity":95,"startTime":123.58697299999999,"endTime":123.69566866666666,"instrument":1,"program":12},{"pitch":74,"velocity":95,"startTime":123.75001649999999,"endTime":123.85871216666666,"instrument":1,"program":12},{"pitch":69,"velocity":95,"startTime":123.91305999999999,"endTime":124.02175566666666,"instrument":1,"program":12},{"pitch":69,"velocity":95,"startTime":124.07610349999999,"endTime":124.18479916666666,"instrument":1,"program":12},{"pitch":74,"velocity":95,"startTime":124.23914699999999,"endTime":124.34784266666665,"instrument":1,"program":12},{"pitch":69,"velocity":95,"startTime":124.40219049999999,"endTime":124.51088616666665,"instrument":1,"program":12},{"pitch":74,"velocity":95,"startTime":124.56523399999999,"endTime":124.67392966666665,"instrument":1,"program":12},{"pitch":69,"velocity":95,"startTime":124.72827749999999,"endTime":124.83697316666665,"instrument":1,"program":12},{"pitch":69,"velocity":95,"startTime":124.89132099999999,"endTime":125.00001666666665,"instrument":1,"program":12},{"pitch":69,"velocity":95,"startTime":125.05436449999999,"endTime":125.16306016666665,"instrument":1,"program":12},{"pitch":43,"velocity":110,"startTime":104.34783999999999,"endTime":104.45653566666665,"instrument":2,"program":32},{"pitch":43,"velocity":110,"startTime":104.51088349999999,"endTime":104.67392699999999,"instrument":2,"program":32},{"pitch":43,"velocity":110,"startTime":104.83697049999999,"endTime":104.94566616666665,"instrument":2,"program":32},{"pitch":43,"velocity":110,"startTime":105.000014,"endTime":105.10870966666666,"instrument":2,"program":32},{"pitch":29,"velocity":110,"startTime":105.1630575,"endTime":105.27175316666666,"instrument":2,"program":32},{"pitch":31,"velocity":110,"startTime":105.326101,"endTime":105.4891445,"instrument":2,"program":32},{"pitch":29,"velocity":110,"startTime":105.652188,"endTime":105.76088366666666,"instrument":2,"program":32},{"pitch":29,"velocity":110,"startTime":105.8152315,"endTime":105.92392716666666,"instrument":2,"program":32},{"pitch":36,"velocity":110,"startTime":106.1413185,"endTime":106.304362,"instrument":2,"program":32},{"pitch":36,"velocity":110,"startTime":106.4674055,"endTime":106.57610116666666,"instrument":2,"program":32},{"pitch":29,"velocity":110,"startTime":106.630449,"endTime":106.79349249999999,"instrument":2,"program":32},{"pitch":28,"velocity":110,"startTime":106.95653599999999,"endTime":107.06523166666666,"instrument":2,"program":32},{"pitch":28,"velocity":110,"startTime":107.11957949999999,"endTime":107.22827516666666,"instrument":2,"program":32},{"pitch":31,"velocity":110,"startTime":107.28262299999999,"endTime":107.39131866666666,"instrument":2,"program":32},{"pitch":33,"velocity":110,"startTime":107.60870999999999,"endTime":107.77175349999999,"instrument":2,"program":32},{"pitch":45,"velocity":110,"startTime":107.93479699999999,"endTime":108.09784049999999,"instrument":2,"program":32},{"pitch":39,"velocity":110,"startTime":108.26088399999999,"endTime":108.42392749999999,"instrument":2,"program":32},{"pitch":39,"velocity":110,"startTime":108.58697099999999,"endTime":108.75001449999999,"instrument":2,"program":32},{"pitch":39,"velocity":110,"startTime":108.91305799999999,"endTime":109.0761015,"instrument":2,"program":32},{"pitch":43,"velocity":110,"startTime":109.239145,"endTime":109.4021885,"instrument":2,"program":32},{"pitch":31,"velocity":110,"startTime":109.565232,"endTime":109.7282755,"instrument":2,"program":32},{"pitch":36,"velocity":110,"startTime":112.01088449999999,"endTime":112.17392799999999,"instrument":2,"program":32},{"pitch":36,"velocity":110,"startTime":112.17392799999999,"endTime":112.33697149999999,"instrument":2,"program":32},{"pitch":36,"velocity":110,"startTime":112.50001499999999,"endTime":112.66305849999999,"instrument":2,"program":32},{"pitch":31,"velocity":110,"startTime":112.82610199999999,"endTime":112.93479766666665,"instrument":2,"program":32},{"pitch":31,"velocity":110,"startTime":112.98914549999999,"endTime":113.09784116666665,"instrument":2,"program":32},{"pitch":36,"velocity":110,"startTime":113.15218899999999,"endTime":113.3152325,"instrument":2,"program":32},{"pitch":36,"velocity":110,"startTime":113.478276,"endTime":113.58697166666666,"instrument":2,"program":32},{"pitch":31,"velocity":110,"startTime":113.6413195,"endTime":113.804363,"instrument":2,"program":32},{"pitch":29,"velocity":110,"startTime":114.13045,"endTime":114.34784133333332,"instrument":2,"program":32},{"pitch":46,"velocity":110,"startTime":114.456537,"endTime":114.6195805,"instrument":2,"program":32},{"pitch":36,"velocity":110,"startTime":114.782624,"endTime":114.94566749999998,"instrument":2,"program":32},{"pitch":36,"velocity":110,"startTime":115.10871099999999,"endTime":115.27175449999999,"instrument":2,"program":32},{"pitch":36,"velocity":110,"startTime":115.43479799999999,"endTime":115.59784149999999,"instrument":2,"program":32},{"pitch":36,"velocity":110,"startTime":115.76088499999999,"endTime":115.92392849999999,"instrument":2,"program":32},{"pitch":36,"velocity":110,"startTime":116.08697199999999,"endTime":116.25001549999999,"instrument":2,"program":32},{"pitch":36,"velocity":110,"startTime":116.41305899999999,"endTime":116.57610249999999,"instrument":2,"program":32},{"pitch":36,"velocity":110,"startTime":116.73914599999999,"endTime":116.90218949999999,"instrument":2,"program":32},{"pitch":36,"velocity":110,"startTime":117.06523299999999,"endTime":117.22827649999999,"instrument":2,"program":32},{"pitch":31,"velocity":110,"startTime":117.39132,"endTime":117.5543635,"instrument":2,"program":32},{"pitch":31,"velocity":110,"startTime":117.717407,"endTime":117.8804505,"instrument":2,"program":32},{"pitch":31,"velocity":110,"startTime":118.043494,"endTime":118.2065375,"instrument":2,"program":32},{"pitch":31,"velocity":110,"startTime":118.369581,"endTime":118.5326245,"instrument":2,"program":32},{"pitch":31,"velocity":110,"startTime":118.695668,"endTime":118.85871149999998,"instrument":2,"program":32},{"pitch":31,"velocity":110,"startTime":119.02175499999998,"endTime":119.18479849999999,"instrument":2,"program":32},{"pitch":31,"velocity":110,"startTime":119.34784199999999,"endTime":119.61958116666666,"instrument":2,"program":32},{"pitch":43,"velocity":110,"startTime":119.67392899999999,"endTime":119.83697249999999,"instrument":2,"program":32},{"pitch":38,"velocity":110,"startTime":120.00001599999999,"endTime":120.16305949999999,"instrument":2,"program":32},{"pitch":38,"velocity":110,"startTime":120.32610299999999,"endTime":120.48914649999999,"instrument":2,"program":32},{"pitch":38,"velocity":110,"startTime":120.65218999999999,"endTime":120.81523349999999,"instrument":2,"program":32},{"pitch":38,"velocity":110,"startTime":120.97827699999999,"endTime":121.14132049999999,"instrument":2,"program":32},{"pitch":42,"velocity":110,"startTime":121.30436399999999,"endTime":121.41305966666665,"instrument":2,"program":32},{"pitch":45,"velocity":110,"startTime":121.4674075,"endTime":121.630451,"instrument":2,"program":32},{"pitch":38,"velocity":110,"startTime":121.630451,"endTime":121.7934945,"instrument":2,"program":32},{"pitch":31,"velocity":110,"startTime":121.956538,"endTime":122.1195815,"instrument":2,"program":32},{"pitch":42,"velocity":110,"startTime":122.282625,"endTime":122.4456685,"instrument":2,"program":32},{"pitch":33,"velocity":110,"startTime":122.608712,"endTime":122.7717555,"instrument":2,"program":32},{"pitch":33,"velocity":110,"startTime":122.93479899999998,"endTime":123.09784249999998,"instrument":2,"program":32},{"pitch":38,"velocity":110,"startTime":123.26088599999999,"endTime":123.42392949999999,"instrument":2,"program":32},{"pitch":38,"velocity":110,"startTime":123.58697299999999,"endTime":123.75001649999999,"instrument":2,"program":32},{"pitch":31,"velocity":110,"startTime":123.91305999999999,"endTime":124.07610349999999,"instrument":2,"program":32},{"pitch":31,"velocity":110,"startTime":124.23914699999999,"endTime":124.40219049999999,"instrument":2,"program":32},{"pitch":38,"velocity":110,"startTime":124.56523399999999,"endTime":124.72827749999999,"instrument":2,"program":32},{"pitch":43,"velocity":110,"startTime":124.89132099999999,"endTime":125.05436449999999,"instrument":2,"program":32},{"pitch":58,"velocity":105,"startTime":104.34783999999999,"endTime":105.652188,"instrument":3,"program":50},{"pitch":62,"velocity":105,"startTime":104.34783999999999,"endTime":105.652188,"instrument":3,"program":50},{"pitch":65,"velocity":105,"startTime":104.34783999999999,"endTime":105.652188,"instrument":3,"program":50},{"pitch":67,"velocity":105,"startTime":104.34783999999999,"endTime":105.652188,"instrument":3,"program":50},{"pitch":57,"velocity":105,"startTime":105.652188,"endTime":106.95653599999999,"instrument":3,"program":50},{"pitch":58,"velocity":105,"startTime":105.652188,"endTime":106.95653599999999,"instrument":3,"program":50},{"pitch":62,"velocity":105,"startTime":105.652188,"endTime":106.95653599999999,"instrument":3,"program":50},{"pitch":65,"velocity":105,"startTime":105.652188,"endTime":106.95653599999999,"instrument":3,"program":50},{"pitch":55,"velocity":105,"startTime":106.95653599999999,"endTime":108.26088399999999,"instrument":3,"program":50},{"pitch":57,"velocity":105,"startTime":106.95653599999999,"endTime":108.26088399999999,"instrument":3,"program":50},{"pitch":64,"velocity":105,"startTime":106.95653599999999,"endTime":108.26088399999999,"instrument":3,"program":50},{"pitch":67,"velocity":105,"startTime":106.95653599999999,"endTime":108.26088399999999,"instrument":3,"program":50},{"pitch":58,"velocity":105,"startTime":108.26088399999999,"endTime":108.80436233333333,"instrument":3,"program":50},{"pitch":62,"velocity":105,"startTime":108.26088399999999,"endTime":108.80436233333333,"instrument":3,"program":50},{"pitch":65,"velocity":105,"startTime":108.26088399999999,"endTime":108.80436233333333,"instrument":3,"program":50},{"pitch":69,"velocity":105,"startTime":108.26088399999999,"endTime":108.80436233333333,"instrument":3,"program":50},{"pitch":58,"velocity":105,"startTime":108.91305799999999,"endTime":109.565232,"instrument":3,"program":50},{"pitch":62,"velocity":105,"startTime":108.91305799999999,"endTime":109.565232,"instrument":3,"program":50},{"pitch":65,"velocity":105,"startTime":108.91305799999999,"endTime":109.565232,"instrument":3,"program":50},{"pitch":69,"velocity":105,"startTime":108.91305799999999,"endTime":109.565232,"instrument":3,"program":50},{"pitch":55,"velocity":105,"startTime":109.565232,"endTime":109.78262333333332,"instrument":3,"program":50},{"pitch":62,"velocity":105,"startTime":109.565232,"endTime":109.7282755,"instrument":3,"program":50},{"pitch":65,"velocity":105,"startTime":109.565232,"endTime":109.7282755,"instrument":3,"program":50},{"pitch":71,"velocity":105,"startTime":109.565232,"endTime":109.7282755,"instrument":3,"program":50},{"pitch":63,"velocity":105,"startTime":112.17392799999999,"endTime":114.72827616666666,"instrument":3,"program":50},{"pitch":67,"velocity":105,"startTime":112.17392799999999,"endTime":114.72827616666666,"instrument":3,"program":50},{"pitch":70,"velocity":105,"startTime":112.17392799999999,"endTime":114.67392833333332,"instrument":3,"program":50},{"pitch":72,"velocity":105,"startTime":112.17392799999999,"endTime":114.67392833333332,"instrument":3,"program":50},{"pitch":55,"velocity":105,"startTime":114.782624,"endTime":117.39132,"instrument":3,"program":50},{"pitch":60,"velocity":105,"startTime":114.782624,"endTime":117.39132,"instrument":3,"program":50},{"pitch":63,"velocity":105,"startTime":114.782624,"endTime":117.39132,"instrument":3,"program":50},{"pitch":70,"velocity":105,"startTime":114.782624,"endTime":117.39132,"instrument":3,"program":50},{"pitch":58,"velocity":105,"startTime":117.39132,"endTime":118.369581,"instrument":3,"program":50},{"pitch":62,"velocity":105,"startTime":117.39132,"endTime":118.369581,"instrument":3,"program":50},{"pitch":67,"velocity":105,"startTime":117.39132,"endTime":118.369581,"instrument":3,"program":50},{"pitch":74,"velocity":105,"startTime":117.39132,"endTime":118.64132016666666,"instrument":3,"program":50},{"pitch":62,"velocity":105,"startTime":118.369581,"endTime":118.58697233333332,"instrument":3,"program":50},{"pitch":67,"velocity":105,"startTime":118.369581,"endTime":118.64132016666666,"instrument":3,"program":50},{"pitch":70,"velocity":105,"startTime":118.369581,"endTime":118.58697233333332,"instrument":3,"program":50},{"pitch":62,"velocity":105,"startTime":118.695668,"endTime":120.00001599999999,"instrument":3,"program":50},{"pitch":67,"velocity":105,"startTime":118.695668,"endTime":119.18479849999999,"instrument":3,"program":50},{"pitch":70,"velocity":105,"startTime":118.695668,"endTime":119.18479849999999,"instrument":3,"program":50},{"pitch":74,"velocity":105,"startTime":118.695668,"endTime":119.18479849999999,"instrument":3,"program":50},{"pitch":67,"velocity":105,"startTime":119.23914633333332,"endTime":119.29349416666666,"instrument":3,"program":50},{"pitch":70,"velocity":105,"startTime":119.29349416666666,"endTime":120.00001599999999,"instrument":3,"program":50},{"pitch":67,"velocity":105,"startTime":119.34784199999999,"endTime":120.00001599999999,"instrument":3,"program":50},{"pitch":60,"velocity":105,"startTime":120.00001599999999,"endTime":122.55436416666666,"instrument":3,"program":50},{"pitch":62,"velocity":105,"startTime":120.00001599999999,"endTime":122.55436416666666,"instrument":3,"program":50},{"pitch":66,"velocity":105,"startTime":120.00001599999999,"endTime":122.55436416666666,"instrument":3,"program":50},{"pitch":69,"velocity":105,"startTime":120.00001599999999,"endTime":122.55436416666666,"instrument":3,"program":50},{"pitch":60,"velocity":105,"startTime":122.608712,"endTime":123.26088599999999,"instrument":3,"program":50},{"pitch":62,"velocity":105,"startTime":122.608712,"endTime":123.26088599999999,"instrument":3,"program":50},{"pitch":70,"velocity":105,"startTime":122.608712,"endTime":123.26088599999999,"instrument":3,"program":50},{"pitch":73,"velocity":105,"startTime":122.608712,"endTime":123.26088599999999,"instrument":3,"program":50},{"pitch":62,"velocity":105,"startTime":123.26088599999999,"endTime":125.00001666666665,"instrument":3,"program":50},{"pitch":65,"velocity":105,"startTime":123.26088599999999,"endTime":123.42392949999999,"instrument":3,"program":50},{"pitch":70,"velocity":105,"startTime":123.26088599999999,"endTime":125.00001666666665,"instrument":3,"program":50},{"pitch":74,"velocity":105,"startTime":123.26088599999999,"endTime":123.42392949999999,"instrument":3,"program":50},{"pitch":74,"velocity":105,"startTime":123.47827733333332,"endTime":123.75001649999999,"instrument":3,"program":50},{"pitch":65,"velocity":105,"startTime":123.58697299999999,"endTime":123.80436433333333,"instrument":3,"program":50},{"pitch":70,"velocity":105,"startTime":123.58697299999999,"endTime":123.75001649999999,"instrument":3,"program":50},{"pitch":65,"velocity":105,"startTime":123.85871216666666,"endTime":125.00001666666665,"instrument":3,"program":50},{"pitch":70,"velocity":105,"startTime":123.85871216666666,"endTime":125.00001666666665,"instrument":3,"program":50},{"pitch":35,"velocity":102,"startTime":125.21740799999999,"endTime":125.38045149999999,"isDrum":true},{"pitch":42,"velocity":102,"startTime":125.21740799999999,"endTime":125.38045149999999,"isDrum":true},{"pitch":51,"velocity":102,"startTime":125.21740799999999,"endTime":125.38045149999999,"isDrum":true},{"pitch":42,"velocity":102,"startTime":125.543495,"endTime":125.7065385,"isDrum":true},{"pitch":40,"velocity":102,"startTime":125.869582,"endTime":126.0326255,"isDrum":true},{"pitch":42,"velocity":102,"startTime":125.869582,"endTime":126.0326255,"isDrum":true},{"pitch":42,"velocity":102,"startTime":126.195669,"endTime":126.3587125,"isDrum":true},{"pitch":35,"velocity":102,"startTime":126.3587125,"endTime":126.521756,"isDrum":true},{"pitch":35,"velocity":102,"startTime":126.521756,"endTime":126.6847995,"isDrum":true},{"pitch":42,"velocity":102,"startTime":126.521756,"endTime":126.6847995,"isDrum":true},{"pitch":42,"velocity":102,"startTime":126.847843,"endTime":127.01088649999998,"isDrum":true},{"pitch":40,"velocity":102,"startTime":127.17392999999998,"endTime":127.33697349999998,"isDrum":true},{"pitch":42,"velocity":102,"startTime":127.17392999999998,"endTime":127.33697349999998,"isDrum":true},{"pitch":42,"velocity":102,"startTime":127.50001699999999,"endTime":127.66306049999999,"isDrum":true},{"pitch":35,"velocity":102,"startTime":127.66306049999999,"endTime":127.82610399999999,"isDrum":true},{"pitch":35,"velocity":102,"startTime":127.82610399999999,"endTime":127.98914749999999,"isDrum":true},{"pitch":42,"velocity":102,"startTime":127.82610399999999,"endTime":127.98914749999999,"isDrum":true},{"pitch":42,"velocity":102,"startTime":128.152191,"endTime":128.3152345,"isDrum":true},{"pitch":40,"velocity":102,"startTime":128.478278,"endTime":128.6413215,"isDrum":true},{"pitch":42,"velocity":102,"startTime":128.478278,"endTime":128.6413215,"isDrum":true},{"pitch":42,"velocity":102,"startTime":128.804365,"endTime":128.96740849999998,"isDrum":true},{"pitch":35,"velocity":102,"startTime":128.96740849999998,"endTime":129.130452,"isDrum":true},{"pitch":35,"velocity":102,"startTime":129.130452,"endTime":129.29349549999998,"isDrum":true},{"pitch":42,"velocity":102,"startTime":129.130452,"endTime":129.29349549999998,"isDrum":true},{"pitch":42,"velocity":102,"startTime":129.456539,"endTime":129.61958249999998,"isDrum":true},{"pitch":40,"velocity":102,"startTime":129.782626,"endTime":129.94566949999998,"isDrum":true},{"pitch":42,"velocity":102,"startTime":129.782626,"endTime":129.94566949999998,"isDrum":true},{"pitch":42,"velocity":102,"startTime":130.108713,"endTime":130.27175649999998,"isDrum":true},{"pitch":35,"velocity":102,"startTime":130.4348,"endTime":130.59784349999998,"isDrum":true},{"pitch":42,"velocity":102,"startTime":130.4348,"endTime":130.59784349999998,"isDrum":true},{"pitch":42,"velocity":102,"startTime":130.760887,"endTime":130.92393049999998,"isDrum":true},{"pitch":35,"velocity":102,"startTime":130.92393049999998,"endTime":131.086974,"isDrum":true},{"pitch":40,"velocity":102,"startTime":131.086974,"endTime":131.25001749999998,"isDrum":true},{"pitch":42,"velocity":102,"startTime":131.086974,"endTime":131.25001749999998,"isDrum":true},{"pitch":35,"velocity":102,"startTime":131.413061,"endTime":131.57610449999999,"isDrum":true},{"pitch":42,"velocity":102,"startTime":131.413061,"endTime":131.57610449999999,"isDrum":true},{"pitch":35,"velocity":102,"startTime":131.739148,"endTime":131.9021915,"isDrum":true},{"pitch":42,"velocity":102,"startTime":131.739148,"endTime":131.9021915,"isDrum":true},{"pitch":42,"velocity":102,"startTime":132.065235,"endTime":132.2282785,"isDrum":true},{"pitch":40,"velocity":102,"startTime":132.391322,"endTime":132.5543655,"isDrum":true},{"pitch":42,"velocity":102,"startTime":132.391322,"endTime":132.5543655,"isDrum":true},{"pitch":42,"velocity":102,"startTime":132.717409,"endTime":132.8804525,"isDrum":true},{"pitch":35,"velocity":102,"startTime":133.04349599999998,"endTime":133.2065395,"isDrum":true},{"pitch":42,"velocity":102,"startTime":133.04349599999998,"endTime":133.2065395,"isDrum":true},{"pitch":42,"velocity":102,"startTime":133.36958299999998,"endTime":133.5326265,"isDrum":true},{"pitch":40,"velocity":102,"startTime":133.69566999999998,"endTime":133.8587135,"isDrum":true},{"pitch":42,"velocity":102,"startTime":133.69566999999998,"endTime":133.8587135,"isDrum":true},{"pitch":42,"velocity":102,"startTime":134.02175699999998,"endTime":134.1848005,"isDrum":true},{"pitch":35,"velocity":102,"startTime":134.1848005,"endTime":134.34784399999998,"isDrum":true},{"pitch":35,"velocity":102,"startTime":134.34784399999998,"endTime":134.5108875,"isDrum":true},{"pitch":42,"velocity":102,"startTime":134.34784399999998,"endTime":134.5108875,"isDrum":true},{"pitch":42,"velocity":102,"startTime":134.67393099999998,"endTime":134.8369745,"isDrum":true},{"pitch":40,"velocity":102,"startTime":135.00001799999998,"endTime":135.1630615,"isDrum":true},{"pitch":42,"velocity":102,"startTime":135.00001799999998,"endTime":135.1630615,"isDrum":true},{"pitch":42,"velocity":102,"startTime":135.32610499999998,"endTime":135.4891485,"isDrum":true},{"pitch":35,"velocity":102,"startTime":135.4891485,"endTime":135.65219199999999,"isDrum":true},{"pitch":35,"velocity":102,"startTime":135.65219199999999,"endTime":135.8152355,"isDrum":true},{"pitch":42,"velocity":102,"startTime":135.65219199999999,"endTime":135.8152355,"isDrum":true},{"pitch":42,"velocity":102,"startTime":135.978279,"endTime":136.1413225,"isDrum":true},{"pitch":40,"velocity":102,"startTime":136.304366,"endTime":136.4674095,"isDrum":true},{"pitch":42,"velocity":102,"startTime":136.304366,"endTime":136.4674095,"isDrum":true},{"pitch":42,"velocity":102,"startTime":136.630453,"endTime":136.7934965,"isDrum":true},{"pitch":35,"velocity":102,"startTime":136.7934965,"endTime":136.95654,"isDrum":true},{"pitch":35,"velocity":102,"startTime":136.95654,"endTime":137.11958349999998,"isDrum":true},{"pitch":42,"velocity":102,"startTime":136.95654,"endTime":137.11958349999998,"isDrum":true},{"pitch":42,"velocity":102,"startTime":137.282627,"endTime":137.44567049999998,"isDrum":true},{"pitch":40,"velocity":102,"startTime":137.608714,"endTime":137.77175749999998,"isDrum":true},{"pitch":42,"velocity":102,"startTime":137.608714,"endTime":137.77175749999998,"isDrum":true},{"pitch":42,"velocity":102,"startTime":137.934801,"endTime":138.09784449999998,"isDrum":true},{"pitch":35,"velocity":102,"startTime":138.260888,"endTime":138.42393149999998,"isDrum":true},{"pitch":42,"velocity":102,"startTime":138.260888,"endTime":138.42393149999998,"isDrum":true},{"pitch":42,"velocity":102,"startTime":138.586975,"endTime":138.75001849999998,"isDrum":true},{"pitch":40,"velocity":102,"startTime":138.913062,"endTime":139.07610549999998,"isDrum":true},{"pitch":42,"velocity":102,"startTime":138.913062,"endTime":139.07610549999998,"isDrum":true},{"pitch":42,"velocity":102,"startTime":139.239149,"endTime":139.40219249999998,"isDrum":true},{"pitch":35,"velocity":102,"startTime":139.40219249999998,"endTime":139.565236,"isDrum":true},{"pitch":35,"velocity":102,"startTime":139.565236,"endTime":139.72827949999999,"isDrum":true},{"pitch":42,"velocity":102,"startTime":139.565236,"endTime":139.72827949999999,"isDrum":true},{"pitch":42,"velocity":102,"startTime":139.891323,"endTime":140.0543665,"isDrum":true},{"pitch":40,"velocity":102,"startTime":140.21741,"endTime":140.3804535,"isDrum":true},{"pitch":42,"velocity":102,"startTime":140.21741,"endTime":140.3804535,"isDrum":true},{"pitch":42,"velocity":102,"startTime":140.543497,"endTime":140.7065405,"isDrum":true},{"pitch":35,"velocity":102,"startTime":140.7065405,"endTime":140.869584,"isDrum":true},{"pitch":35,"velocity":102,"startTime":140.869584,"endTime":141.0326275,"isDrum":true},{"pitch":42,"velocity":102,"startTime":140.869584,"endTime":141.0326275,"isDrum":true},{"pitch":42,"velocity":102,"startTime":141.19567099999998,"endTime":141.3587145,"isDrum":true},{"pitch":40,"velocity":102,"startTime":141.52175799999998,"endTime":141.6848015,"isDrum":true},{"pitch":42,"velocity":102,"startTime":141.52175799999998,"endTime":141.6848015,"isDrum":true},{"pitch":42,"velocity":102,"startTime":141.84784499999998,"endTime":142.0108885,"isDrum":true},{"pitch":35,"velocity":102,"startTime":142.0108885,"endTime":142.17393199999998,"isDrum":true},{"pitch":35,"velocity":102,"startTime":142.17393199999998,"endTime":142.3369755,"isDrum":true},{"pitch":42,"velocity":102,"startTime":142.17393199999998,"endTime":142.3369755,"isDrum":true},{"pitch":42,"velocity":102,"startTime":142.50001899999998,"endTime":142.6630625,"isDrum":true},{"pitch":40,"velocity":102,"startTime":142.82610599999998,"endTime":142.9891495,"isDrum":true},{"pitch":42,"velocity":102,"startTime":142.82610599999998,"endTime":142.9891495,"isDrum":true},{"pitch":42,"velocity":102,"startTime":143.15219299999998,"endTime":143.3152365,"isDrum":true},{"pitch":35,"velocity":102,"startTime":143.3152365,"endTime":143.47827999999998,"isDrum":true},{"pitch":35,"velocity":102,"startTime":143.47827999999998,"endTime":143.6413235,"isDrum":true},{"pitch":42,"velocity":102,"startTime":143.47827999999998,"endTime":143.6413235,"isDrum":true},{"pitch":42,"velocity":102,"startTime":143.80436699999998,"endTime":143.9674105,"isDrum":true},{"pitch":40,"velocity":102,"startTime":144.130454,"endTime":144.2934975,"isDrum":true},{"pitch":42,"velocity":102,"startTime":144.130454,"endTime":144.2934975,"isDrum":true},{"pitch":42,"velocity":102,"startTime":144.456541,"endTime":144.6195845,"isDrum":true},{"pitch":35,"velocity":102,"startTime":144.6195845,"endTime":144.782628,"isDrum":true},{"pitch":35,"velocity":102,"startTime":144.782628,"endTime":144.9456715,"isDrum":true},{"pitch":42,"velocity":102,"startTime":144.782628,"endTime":144.9456715,"isDrum":true},{"pitch":42,"velocity":102,"startTime":145.108715,"endTime":145.27175849999998,"isDrum":true},{"pitch":40,"velocity":102,"startTime":145.434802,"endTime":145.59784549999998,"isDrum":true},{"pitch":42,"velocity":102,"startTime":145.434802,"endTime":145.59784549999998,"isDrum":true},{"pitch":42,"velocity":102,"startTime":145.760889,"endTime":145.92393249999998,"isDrum":true},{"pitch":69,"velocity":95,"startTime":125.38045149999999,"endTime":125.43479933333333,"instrument":1,"program":12},{"pitch":64,"velocity":95,"startTime":125.543495,"endTime":125.59784283333332,"instrument":1,"program":12},{"pitch":69,"velocity":95,"startTime":125.7065385,"endTime":125.76088633333332,"instrument":1,"program":12},{"pitch":74,"velocity":95,"startTime":125.869582,"endTime":125.97827766666666,"instrument":1,"program":12},{"pitch":69,"velocity":95,"startTime":126.0326255,"endTime":126.08697333333332,"instrument":1,"program":12},{"pitch":64,"velocity":95,"startTime":126.195669,"endTime":126.30436466666666,"instrument":1,"program":12},{"pitch":69,"velocity":95,"startTime":126.3587125,"endTime":126.46740816666666,"instrument":1,"program":12},{"pitch":64,"velocity":95,"startTime":126.521756,"endTime":126.63045166666666,"instrument":1,"program":12},{"pitch":69,"velocity":95,"startTime":126.6847995,"endTime":126.79349516666666,"instrument":1,"program":12},{"pitch":64,"velocity":95,"startTime":126.847843,"endTime":126.95653866666666,"instrument":1,"program":12},{"pitch":62,"velocity":95,"startTime":127.01088649999998,"endTime":127.06523433333332,"instrument":1,"program":12},{"pitch":69,"velocity":95,"startTime":127.17392999999998,"endTime":127.28262566666666,"instrument":1,"program":12},{"pitch":69,"velocity":95,"startTime":127.33697349999998,"endTime":127.39132133333332,"instrument":1,"program":12},{"pitch":72,"velocity":95,"startTime":127.50001699999999,"endTime":127.60871266666666,"instrument":1,"program":12},{"pitch":69,"velocity":95,"startTime":127.66306049999999,"endTime":127.77175616666666,"instrument":1,"program":12},{"pitch":62,"velocity":95,"startTime":127.82610399999999,"endTime":127.93479966666666,"instrument":1,"program":12},{"pitch":69,"velocity":95,"startTime":127.98914749999999,"endTime":128.09784316666665,"instrument":1,"program":12},{"pitch":74,"velocity":95,"startTime":128.152191,"endTime":128.26088666666666,"instrument":1,"program":12},{"pitch":69,"velocity":95,"startTime":128.3152345,"endTime":128.3695823333333,"instrument":1,"program":12},{"pitch":72,"velocity":95,"startTime":128.478278,"endTime":128.58697366666667,"instrument":1,"program":12},{"pitch":69,"velocity":95,"startTime":128.6413215,"endTime":128.6956693333333,"instrument":1,"program":12},{"pitch":69,"velocity":95,"startTime":128.804365,"endTime":128.91306066666667,"instrument":1,"program":12},{"pitch":74,"velocity":95,"startTime":128.96740849999998,"endTime":129.07610416666665,"instrument":1,"program":12},{"pitch":69,"velocity":95,"startTime":129.130452,"endTime":129.23914766666667,"instrument":1,"program":12},{"pitch":74,"velocity":95,"startTime":129.29349549999998,"endTime":129.40219116666665,"instrument":1,"program":12},{"pitch":69,"velocity":95,"startTime":129.456539,"endTime":129.56523466666667,"instrument":1,"program":12},{"pitch":74,"velocity":95,"startTime":129.61958249999998,"endTime":129.72827816666666,"instrument":1,"program":12},{"pitch":74,"velocity":95,"startTime":129.782626,"endTime":129.89132166666667,"instrument":1,"program":12},{"pitch":69,"velocity":95,"startTime":129.94566949999998,"endTime":130.00001733333332,"instrument":1,"program":12},{"pitch":69,"velocity":95,"startTime":130.108713,"endTime":130.21740866666667,"instrument":1,"program":12},{"pitch":72,"velocity":95,"startTime":130.27175649999998,"endTime":130.38045216666666,"instrument":1,"program":12},{"pitch":58,"velocity":95,"startTime":130.4348,"endTime":130.54349566666664,"instrument":1,"program":12},{"pitch":62,"velocity":95,"startTime":130.59784349999998,"endTime":130.70653916666666,"instrument":1,"program":12},{"pitch":67,"velocity":95,"startTime":130.760887,"endTime":130.86958266666664,"instrument":1,"program":12},{"pitch":62,"velocity":95,"startTime":130.92393049999998,"endTime":131.03262616666666,"instrument":1,"program":12},{"pitch":74,"velocity":95,"startTime":131.086974,"endTime":131.19566966666665,"instrument":1,"program":12},{"pitch":79,"velocity":95,"startTime":131.25001749999998,"endTime":131.30436533333332,"instrument":1,"program":12},{"pitch":70,"velocity":95,"startTime":131.413061,"endTime":131.52175666666665,"instrument":1,"program":12},{"pitch":62,"velocity":95,"startTime":131.57610449999999,"endTime":131.68480016666666,"instrument":1,"program":12},{"pitch":74,"velocity":95,"startTime":131.739148,"endTime":131.84784366666665,"instrument":1,"program":12},{"pitch":70,"velocity":95,"startTime":131.9021915,"endTime":132.01088716666666,"instrument":1,"program":12},{"pitch":74,"velocity":95,"startTime":132.065235,"endTime":132.17393066666665,"instrument":1,"program":12},{"pitch":74,"velocity":95,"startTime":132.2282785,"endTime":132.33697416666666,"instrument":1,"program":12},{"pitch":77,"velocity":95,"startTime":132.391322,"endTime":132.50001766666665,"instrument":1,"program":12},{"pitch":70,"velocity":95,"startTime":132.5543655,"endTime":132.60871333333333,"instrument":1,"program":12},{"pitch":67,"velocity":95,"startTime":132.717409,"endTime":132.7717568333333,"instrument":1,"program":12},{"pitch":62,"velocity":95,"startTime":132.8804525,"endTime":132.98914816666667,"instrument":1,"program":12},{"pitch":62,"velocity":95,"startTime":133.04349599999998,"endTime":133.15219166666665,"instrument":1,"program":12},{"pitch":67,"velocity":95,"startTime":133.2065395,"endTime":133.31523516666667,"instrument":1,"program":12},{"pitch":70,"velocity":95,"startTime":133.36958299999998,"endTime":133.47827866666665,"instrument":1,"program":12},{"pitch":74,"velocity":95,"startTime":133.5326265,"endTime":133.64132216666667,"instrument":1,"program":12},{"pitch":74,"velocity":95,"startTime":133.69566999999998,"endTime":133.80436566666665,"instrument":1,"program":12},{"pitch":70,"velocity":95,"startTime":133.8587135,"endTime":133.91306133333333,"instrument":1,"program":12},{"pitch":74,"velocity":95,"startTime":134.02175699999998,"endTime":134.13045266666666,"instrument":1,"program":12},{"pitch":70,"velocity":95,"startTime":134.1848005,"endTime":134.29349616666664,"instrument":1,"program":12},{"pitch":74,"velocity":95,"startTime":134.34784399999998,"endTime":134.45653966666666,"instrument":1,"program":12},{"pitch":70,"velocity":95,"startTime":134.5108875,"endTime":134.61958316666664,"instrument":1,"program":12},{"pitch":74,"velocity":95,"startTime":134.67393099999998,"endTime":134.78262666666666,"instrument":1,"program":12},{"pitch":70,"velocity":95,"startTime":134.8369745,"endTime":134.94567016666664,"instrument":1,"program":12},{"pitch":74,"velocity":95,"startTime":135.00001799999998,"endTime":135.10871366666666,"instrument":1,"program":12},{"pitch":70,"velocity":95,"startTime":135.1630615,"endTime":135.21740933333334,"instrument":1,"program":12},{"pitch":67,"velocity":95,"startTime":135.32610499999998,"endTime":135.38045283333332,"instrument":1,"program":12},{"pitch":70,"velocity":95,"startTime":135.4891485,"endTime":135.54349633333334,"instrument":1,"program":12},{"pitch":62,"velocity":95,"startTime":135.65219199999999,"endTime":135.76088766666666,"instrument":1,"program":12},{"pitch":69,"velocity":95,"startTime":135.8152355,"endTime":135.92393116666665,"instrument":1,"program":12},{"pitch":72,"velocity":95,"startTime":135.978279,"endTime":136.08697466666666,"instrument":1,"program":12},{"pitch":74,"velocity":95,"startTime":136.1413225,"endTime":136.25001816666665,"instrument":1,"program":12},{"pitch":69,"velocity":95,"startTime":136.304366,"endTime":136.41306166666666,"instrument":1,"program":12},{"pitch":72,"velocity":95,"startTime":136.4674095,"endTime":136.5217573333333,"instrument":1,"program":12},{"pitch":69,"velocity":95,"startTime":136.630453,"endTime":136.73914866666667,"instrument":1,"program":12},{"pitch":72,"velocity":95,"startTime":136.7934965,"endTime":136.90219216666665,"instrument":1,"program":12},{"pitch":74,"velocity":95,"startTime":136.95654,"endTime":137.06523566666667,"instrument":1,"program":12},{"pitch":69,"velocity":95,"startTime":137.11958349999998,"endTime":137.22827916666665,"instrument":1,"program":12},{"pitch":72,"velocity":95,"startTime":137.282627,"endTime":137.39132266666667,"instrument":1,"program":12},{"pitch":74,"velocity":95,"startTime":137.44567049999998,"endTime":137.55436616666665,"instrument":1,"program":12},{"pitch":74,"velocity":95,"startTime":137.608714,"endTime":137.71740966666667,"instrument":1,"program":12},{"pitch":69,"velocity":95,"startTime":137.77175749999998,"endTime":137.82610533333332,"instrument":1,"program":12},{"pitch":74,"velocity":95,"startTime":137.934801,"endTime":137.98914883333333,"instrument":1,"program":12},{"pitch":69,"velocity":95,"startTime":138.09784449999998,"endTime":138.15219233333332,"instrument":1,"program":12},{"pitch":62,"velocity":95,"startTime":138.260888,"endTime":138.36958366666664,"instrument":1,"program":12},{"pitch":71,"velocity":95,"startTime":138.42393149999998,"endTime":138.53262716666666,"instrument":1,"program":12},{"pitch":74,"velocity":95,"startTime":138.586975,"endTime":138.64132283333333,"instrument":1,"program":12},{"pitch":71,"velocity":95,"startTime":138.75001849999998,"endTime":138.80436633333332,"instrument":1,"program":12},{"pitch":74,"velocity":95,"startTime":138.913062,"endTime":139.02175766666664,"instrument":1,"program":12},{"pitch":74,"velocity":95,"startTime":139.07610549999998,"endTime":139.13045333333332,"instrument":1,"program":12},{"pitch":69,"velocity":95,"startTime":139.239149,"endTime":139.29349683333334,"instrument":1,"program":12},{"pitch":74,"velocity":95,"startTime":139.40219249999998,"endTime":139.45654033333332,"instrument":1,"program":12},{"pitch":74,"velocity":95,"startTime":139.565236,"endTime":139.67393166666665,"instrument":1,"program":12},{"pitch":74,"velocity":95,"startTime":139.72827949999999,"endTime":139.83697516666666,"instrument":1,"program":12},{"pitch":69,"velocity":95,"startTime":139.891323,"endTime":140.00001866666665,"instrument":1,"program":12},{"pitch":74,"velocity":95,"startTime":140.0543665,"endTime":140.16306216666666,"instrument":1,"program":12},{"pitch":74,"velocity":95,"startTime":140.21741,"endTime":140.32610566666665,"instrument":1,"program":12},{"pitch":69,"velocity":95,"startTime":140.3804535,"endTime":140.43480133333333,"instrument":1,"program":12},{"pitch":74,"velocity":95,"startTime":140.543497,"endTime":140.5978448333333,"instrument":1,"program":12},{"pitch":72,"velocity":95,"startTime":140.7065405,"endTime":140.81523616666666,"instrument":1,"program":12},{"pitch":62,"velocity":95,"startTime":140.869584,"endTime":140.97827966666665,"instrument":1,"program":12},{"pitch":67,"velocity":95,"startTime":141.0326275,"endTime":141.14132316666667,"instrument":1,"program":12},{"pitch":70,"velocity":95,"startTime":141.19567099999998,"endTime":141.30436666666665,"instrument":1,"program":12},{"pitch":79,"velocity":95,"startTime":141.3587145,"endTime":141.46741016666667,"instrument":1,"program":12},{"pitch":82,"velocity":95,"startTime":141.52175799999998,"endTime":141.63045366666665,"instrument":1,"program":12},{"pitch":79,"velocity":95,"startTime":141.6848015,"endTime":141.73914933333333,"instrument":1,"program":12},{"pitch":70,"velocity":95,"startTime":141.84784499999998,"endTime":141.90219283333332,"instrument":1,"program":12},{"pitch":76,"velocity":95,"startTime":142.0108885,"endTime":142.06523633333333,"instrument":1,"program":12},{"pitch":79,"velocity":95,"startTime":142.17393199999998,"endTime":142.28262766666666,"instrument":1,"program":12},{"pitch":70,"velocity":95,"startTime":142.3369755,"endTime":142.39132333333333,"instrument":1,"program":12},{"pitch":79,"velocity":95,"startTime":142.50001899999998,"endTime":142.55436683333332,"instrument":1,"program":12},{"pitch":79,"velocity":95,"startTime":142.6630625,"endTime":142.77175816666664,"instrument":1,"program":12},{"pitch":70,"velocity":95,"startTime":142.82610599999998,"endTime":142.93480166666666,"instrument":1,"program":12},{"pitch":79,"velocity":95,"startTime":142.9891495,"endTime":143.09784516666664,"instrument":1,"program":12},{"pitch":70,"velocity":95,"startTime":143.15219299999998,"endTime":143.26088866666666,"instrument":1,"program":12},{"pitch":67,"velocity":95,"startTime":143.3152365,"endTime":143.36958433333334,"instrument":1,"program":12},{"pitch":62,"velocity":95,"startTime":143.47827999999998,"endTime":143.58697566666666,"instrument":1,"program":12},{"pitch":67,"velocity":95,"startTime":143.6413235,"endTime":143.75001916666665,"instrument":1,"program":12},{"pitch":70,"velocity":95,"startTime":143.80436699999998,"endTime":143.85871483333332,"instrument":1,"program":12},{"pitch":67,"velocity":95,"startTime":143.9674105,"endTime":144.07610616666665,"instrument":1,"program":12},{"pitch":70,"velocity":95,"startTime":144.130454,"endTime":144.23914966666666,"instrument":1,"program":12},{"pitch":67,"velocity":95,"startTime":144.2934975,"endTime":144.3478453333333,"instrument":1,"program":12},{"pitch":70,"velocity":95,"startTime":144.456541,"endTime":144.56523666666666,"instrument":1,"program":12},{"pitch":74,"velocity":95,"startTime":144.6195845,"endTime":144.6739323333333,"instrument":1,"program":12},{"pitch":67,"velocity":95,"startTime":144.782628,"endTime":144.89132366666666,"instrument":1,"program":12},{"pitch":70,"velocity":95,"startTime":144.9456715,"endTime":145.0000193333333,"instrument":1,"program":12},{"pitch":67,"velocity":95,"startTime":145.108715,"endTime":145.21741066666667,"instrument":1,"program":12},{"pitch":62,"velocity":95,"startTime":145.27175849999998,"endTime":145.38045416666665,"instrument":1,"program":12},{"pitch":70,"velocity":95,"startTime":145.434802,"endTime":145.54349766666667,"instrument":1,"program":12},{"pitch":67,"velocity":95,"startTime":145.59784549999998,"endTime":145.65219333333332,"instrument":1,"program":12},{"pitch":70,"velocity":95,"startTime":145.760889,"endTime":145.86958466666667,"instrument":1,"program":12},{"pitch":70,"velocity":95,"startTime":145.92393249999998,"endTime":146.03262816666665,"instrument":1,"program":12},{"pitch":38,"velocity":110,"startTime":125.21740799999999,"endTime":125.38045149999999,"instrument":2,"program":32},{"pitch":38,"velocity":110,"startTime":125.7065385,"endTime":125.869582,"instrument":2,"program":32},{"pitch":38,"velocity":110,"startTime":126.195669,"endTime":126.41306033333332,"instrument":2,"program":32},{"pitch":40,"velocity":110,"startTime":126.521756,"endTime":126.6847995,"instrument":2,"program":32},{"pitch":33,"velocity":110,"startTime":126.847843,"endTime":127.06523433333332,"instrument":2,"program":32},{"pitch":38,"velocity":110,"startTime":127.17392999999998,"endTime":127.33697349999998,"instrument":2,"program":32},{"pitch":38,"velocity":110,"startTime":127.50001699999999,"endTime":127.66306049999999,"instrument":2,"program":32},{"pitch":38,"velocity":110,"startTime":127.82610399999999,"endTime":127.98914749999999,"instrument":2,"program":32},{"pitch":38,"velocity":110,"startTime":128.152191,"endTime":128.3152345,"instrument":2,"program":32},{"pitch":33,"velocity":110,"startTime":128.478278,"endTime":128.6413215,"instrument":2,"program":32},{"pitch":38,"velocity":110,"startTime":128.804365,"endTime":128.96740849999998,"instrument":2,"program":32},{"pitch":33,"velocity":110,"startTime":129.130452,"endTime":129.29349549999998,"instrument":2,"program":32},{"pitch":33,"velocity":110,"startTime":129.456539,"endTime":129.61958249999998,"instrument":2,"program":32},{"pitch":33,"velocity":110,"startTime":129.782626,"endTime":129.94566949999998,"instrument":2,"program":32},{"pitch":33,"velocity":110,"startTime":130.108713,"endTime":130.27175649999998,"instrument":2,"program":32},{"pitch":43,"velocity":110,"startTime":130.4348,"endTime":130.59784349999998,"instrument":2,"program":32},{"pitch":43,"velocity":110,"startTime":130.760887,"endTime":130.92393049999998,"instrument":2,"program":32},{"pitch":43,"velocity":110,"startTime":131.086974,"endTime":131.25001749999998,"instrument":2,"program":32},{"pitch":38,"velocity":110,"startTime":131.413061,"endTime":131.57610449999999,"instrument":2,"program":32},{"pitch":43,"velocity":110,"startTime":131.739148,"endTime":131.9021915,"instrument":2,"program":32},{"pitch":43,"velocity":110,"startTime":132.065235,"endTime":132.2282785,"instrument":2,"program":32},{"pitch":43,"velocity":110,"startTime":132.391322,"endTime":132.5543655,"instrument":2,"program":32},{"pitch":38,"velocity":110,"startTime":132.717409,"endTime":132.8804525,"instrument":2,"program":32},{"pitch":43,"velocity":110,"startTime":133.04349599999998,"endTime":133.2065395,"instrument":2,"program":32},{"pitch":43,"velocity":110,"startTime":133.36958299999998,"endTime":133.5326265,"instrument":2,"program":32},{"pitch":34,"velocity":110,"startTime":133.69566999999998,"endTime":133.8587135,"instrument":2,"program":32},{"pitch":38,"velocity":110,"startTime":134.02175699999998,"endTime":134.1848005,"instrument":2,"program":32},{"pitch":43,"velocity":110,"startTime":134.34784399999998,"endTime":134.5108875,"instrument":2,"program":32},{"pitch":38,"velocity":110,"startTime":134.67393099999998,"endTime":134.8369745,"instrument":2,"program":32},{"pitch":46,"velocity":110,"startTime":135.00001799999998,"endTime":135.1630615,"instrument":2,"program":32},{"pitch":38,"velocity":110,"startTime":135.32610499999998,"endTime":135.4891485,"instrument":2,"program":32},{"pitch":38,"velocity":110,"startTime":135.65219199999999,"endTime":135.8152355,"instrument":2,"program":32},{"pitch":33,"velocity":110,"startTime":135.978279,"endTime":136.1413225,"instrument":2,"program":32},{"pitch":38,"velocity":110,"startTime":136.304366,"endTime":136.4674095,"instrument":2,"program":32},{"pitch":38,"velocity":110,"startTime":136.630453,"endTime":136.7934965,"instrument":2,"program":32},{"pitch":33,"velocity":110,"startTime":136.95654,"endTime":137.11958349999998,"instrument":2,"program":32},{"pitch":33,"velocity":110,"startTime":137.282627,"endTime":137.44567049999998,"instrument":2,"program":32},{"pitch":33,"velocity":110,"startTime":137.608714,"endTime":137.77175749999998,"instrument":2,"program":32},{"pitch":33,"velocity":110,"startTime":137.934801,"endTime":138.09784449999998,"instrument":2,"program":32},{"pitch":38,"velocity":110,"startTime":138.260888,"endTime":138.42393149999998,"instrument":2,"program":32},{"pitch":33,"velocity":110,"startTime":138.586975,"endTime":138.75001849999998,"instrument":2,"program":32},{"pitch":38,"velocity":110,"startTime":138.913062,"endTime":139.07610549999998,"instrument":2,"program":32},{"pitch":38,"velocity":110,"startTime":139.239149,"endTime":139.40219249999998,"instrument":2,"program":32},{"pitch":33,"velocity":110,"startTime":139.565236,"endTime":139.72827949999999,"instrument":2,"program":32},{"pitch":33,"velocity":110,"startTime":139.891323,"endTime":140.0543665,"instrument":2,"program":32},{"pitch":33,"velocity":110,"startTime":140.0543665,"endTime":140.16306216666666,"instrument":2,"program":32},{"pitch":33,"velocity":110,"startTime":140.21741,"endTime":140.3804535,"instrument":2,"program":32},{"pitch":38,"velocity":110,"startTime":140.543497,"endTime":140.7065405,"instrument":2,"program":32},{"pitch":43,"velocity":110,"startTime":140.869584,"endTime":141.08697533333333,"instrument":2,"program":32},{"pitch":43,"velocity":110,"startTime":141.19567099999998,"endTime":141.3587145,"instrument":2,"program":32},{"pitch":38,"velocity":110,"startTime":141.52175799999998,"endTime":141.6848015,"instrument":2,"program":32},{"pitch":38,"velocity":110,"startTime":141.84784499999998,"endTime":142.0108885,"instrument":2,"program":32},{"pitch":43,"velocity":110,"startTime":142.17393199999998,"endTime":142.3369755,"instrument":2,"program":32},{"pitch":43,"velocity":110,"startTime":142.50001899999998,"endTime":142.6630625,"instrument":2,"program":32},{"pitch":38,"velocity":110,"startTime":142.82610599999998,"endTime":142.9891495,"instrument":2,"program":32},{"pitch":38,"velocity":110,"startTime":143.15219299999998,"endTime":143.3152365,"instrument":2,"program":32},{"pitch":34,"velocity":110,"startTime":143.47827999999998,"endTime":143.6956713333333,"instrument":2,"program":32},{"pitch":38,"velocity":110,"startTime":143.80436699999998,"endTime":143.9674105,"instrument":2,"program":32},{"pitch":31,"velocity":110,"startTime":144.130454,"endTime":144.2934975,"instrument":2,"program":32},{"pitch":31,"velocity":110,"startTime":144.456541,"endTime":144.6195845,"instrument":2,"program":32},{"pitch":31,"velocity":110,"startTime":144.782628,"endTime":145.0000193333333,"instrument":2,"program":32},{"pitch":33,"velocity":110,"startTime":145.108715,"endTime":145.27175849999998,"instrument":2,"program":32},{"pitch":38,"velocity":110,"startTime":145.434802,"endTime":145.59784549999998,"instrument":2,"program":32},{"pitch":31,"velocity":110,"startTime":145.59784549999998,"endTime":145.760889,"instrument":2,"program":32},{"pitch":38,"velocity":110,"startTime":145.92393249999998,"endTime":146.03262816666665,"instrument":2,"program":32},{"pitch":76,"velocity":105,"startTime":125.21740799999999,"endTime":127.71740833333332,"instrument":3,"program":50},{"pitch":60,"velocity":105,"startTime":127.82610399999999,"endTime":130.4348,"instrument":3,"program":50},{"pitch":62,"velocity":105,"startTime":127.82610399999999,"endTime":130.4348,"instrument":3,"program":50},{"pitch":66,"velocity":105,"startTime":127.82610399999999,"endTime":130.4348,"instrument":3,"program":50},{"pitch":69,"velocity":105,"startTime":127.82610399999999,"endTime":130.4348,"instrument":3,"program":50},{"pitch":58,"velocity":105,"startTime":130.4348,"endTime":133.04349599999998,"instrument":3,"program":50},{"pitch":65,"velocity":105,"startTime":130.4348,"endTime":133.04349599999998,"instrument":3,"program":50},{"pitch":67,"velocity":105,"startTime":130.4348,"endTime":133.04349599999998,"instrument":3,"program":50},{"pitch":74,"velocity":105,"startTime":130.4348,"endTime":133.04349599999998,"instrument":3,"program":50},{"pitch":58,"velocity":105,"startTime":133.04349599999998,"endTime":135.65219199999999,"instrument":3,"program":50},{"pitch":62,"velocity":105,"startTime":133.04349599999998,"endTime":135.65219199999999,"instrument":3,"program":50},{"pitch":65,"velocity":105,"startTime":133.04349599999998,"endTime":135.65219199999999,"instrument":3,"program":50},{"pitch":70,"velocity":105,"startTime":133.04349599999998,"endTime":135.65219199999999,"instrument":3,"program":50},{"pitch":60,"velocity":105,"startTime":135.65219199999999,"endTime":138.260888,"instrument":3,"program":50},{"pitch":64,"velocity":105,"startTime":135.65219199999999,"endTime":138.260888,"instrument":3,"program":50},{"pitch":66,"velocity":105,"startTime":135.65219199999999,"endTime":138.260888,"instrument":3,"program":50},{"pitch":69,"velocity":105,"startTime":135.65219199999999,"endTime":138.260888,"instrument":3,"program":50},{"pitch":60,"velocity":105,"startTime":138.260888,"endTime":140.869584,"instrument":3,"program":50},{"pitch":63,"velocity":105,"startTime":138.260888,"endTime":140.869584,"instrument":3,"program":50},{"pitch":66,"velocity":105,"startTime":138.260888,"endTime":140.869584,"instrument":3,"program":50},{"pitch":69,"velocity":105,"startTime":138.260888,"endTime":140.869584,"instrument":3,"program":50},{"pitch":58,"velocity":105,"startTime":140.869584,"endTime":143.47827999999998,"instrument":3,"program":50},{"pitch":62,"velocity":105,"startTime":140.869584,"endTime":143.47827999999998,"instrument":3,"program":50},{"pitch":67,"velocity":105,"startTime":140.869584,"endTime":143.47827999999998,"instrument":3,"program":50},{"pitch":58,"velocity":105,"startTime":143.47827999999998,"endTime":146.086976,"instrument":3,"program":50},{"pitch":62,"velocity":105,"startTime":143.47827999999998,"endTime":146.086976,"instrument":3,"program":50},{"pitch":65,"velocity":105,"startTime":143.47827999999998,"endTime":146.086976,"instrument":3,"program":50},{"pitch":67,"velocity":105,"startTime":143.47827999999998,"endTime":146.086976,"instrument":3,"program":50},{"pitch":35,"velocity":102,"startTime":146.086976,"endTime":146.19567166666667,"isDrum":true},{"pitch":42,"velocity":102,"startTime":146.086976,"endTime":146.19567166666667,"isDrum":true},{"pitch":42,"velocity":102,"startTime":146.413063,"endTime":146.52175866666664,"isDrum":true},{"pitch":35,"velocity":102,"startTime":146.57610649999998,"endTime":146.68480216666666,"isDrum":true},{"pitch":40,"velocity":102,"startTime":146.73915,"endTime":146.84784566666664,"isDrum":true},{"pitch":42,"velocity":102,"startTime":146.73915,"endTime":146.84784566666664,"isDrum":true},{"pitch":35,"velocity":102,"startTime":147.065237,"endTime":147.17393266666664,"isDrum":true},{"pitch":42,"velocity":102,"startTime":147.065237,"endTime":147.17393266666664,"isDrum":true},{"pitch":35,"velocity":102,"startTime":147.22828049999998,"endTime":147.33697616666666,"isDrum":true},{"pitch":35,"velocity":102,"startTime":147.391324,"endTime":147.50001966666665,"isDrum":true},{"pitch":42,"velocity":102,"startTime":147.391324,"endTime":147.50001966666665,"isDrum":true},{"pitch":42,"velocity":102,"startTime":147.717411,"endTime":147.82610666666665,"isDrum":true},{"pitch":40,"velocity":102,"startTime":148.043498,"endTime":148.15219366666665,"isDrum":true},{"pitch":42,"velocity":102,"startTime":148.043498,"endTime":148.15219366666665,"isDrum":true},{"pitch":42,"velocity":102,"startTime":148.369585,"endTime":148.47828066666665,"isDrum":true},{"pitch":35,"velocity":102,"startTime":148.5326285,"endTime":148.64132416666666,"isDrum":true},{"pitch":35,"velocity":102,"startTime":148.695672,"endTime":148.80436766666665,"isDrum":true},{"pitch":42,"velocity":102,"startTime":148.695672,"endTime":148.80436766666665,"isDrum":true},{"pitch":42,"velocity":102,"startTime":149.021759,"endTime":149.13045466666665,"isDrum":true},{"pitch":40,"velocity":102,"startTime":149.34784599999998,"endTime":149.45654166666665,"isDrum":true},{"pitch":42,"velocity":102,"startTime":149.34784599999998,"endTime":149.45654166666665,"isDrum":true},{"pitch":42,"velocity":102,"startTime":149.67393299999998,"endTime":149.78262866666665,"isDrum":true},{"pitch":35,"velocity":102,"startTime":149.8369765,"endTime":149.94567216666667,"isDrum":true},{"pitch":35,"velocity":102,"startTime":150.00001999999998,"endTime":150.10871566666665,"isDrum":true},{"pitch":42,"velocity":102,"startTime":150.00001999999998,"endTime":150.10871566666665,"isDrum":true},{"pitch":35,"velocity":102,"startTime":150.32610699999998,"endTime":150.43480266666666,"isDrum":true},{"pitch":42,"velocity":102,"startTime":150.32610699999998,"endTime":150.43480266666666,"isDrum":true},{"pitch":40,"velocity":102,"startTime":150.65219399999998,"endTime":150.76088966666666,"isDrum":true},{"pitch":42,"velocity":102,"startTime":150.65219399999998,"endTime":150.76088966666666,"isDrum":true},{"pitch":42,"velocity":102,"startTime":150.97828099999998,"endTime":151.08697666666666,"isDrum":true},{"pitch":35,"velocity":102,"startTime":151.1413245,"endTime":151.25002016666664,"isDrum":true},{"pitch":35,"velocity":102,"startTime":151.30436799999998,"endTime":151.41306366666666,"isDrum":true},{"pitch":42,"velocity":102,"startTime":151.30436799999998,"endTime":151.41306366666666,"isDrum":true},{"pitch":42,"velocity":102,"startTime":151.63045499999998,"endTime":151.73915066666666,"isDrum":true},{"pitch":40,"velocity":102,"startTime":151.95654199999998,"endTime":152.06523766666666,"isDrum":true},{"pitch":42,"velocity":102,"startTime":151.95654199999998,"endTime":152.06523766666666,"isDrum":true},{"pitch":35,"velocity":102,"startTime":152.282629,"endTime":152.39132466666666,"isDrum":true},{"pitch":42,"velocity":102,"startTime":152.282629,"endTime":152.39132466666666,"isDrum":true},{"pitch":35,"velocity":102,"startTime":152.4456725,"endTime":152.55436816666665,"isDrum":true},{"pitch":35,"velocity":102,"startTime":152.608716,"endTime":152.71741166666666,"isDrum":true},{"pitch":42,"velocity":102,"startTime":152.608716,"endTime":152.71741166666666,"isDrum":true},{"pitch":42,"velocity":102,"startTime":152.934803,"endTime":153.04349866666666,"isDrum":true},{"pitch":40,"velocity":102,"startTime":153.26089,"endTime":153.36958566666667,"isDrum":true},{"pitch":42,"velocity":102,"startTime":153.26089,"endTime":153.36958566666667,"isDrum":true},{"pitch":42,"velocity":102,"startTime":153.586977,"endTime":153.69567266666667,"isDrum":true},{"pitch":35,"velocity":102,"startTime":153.75002049999998,"endTime":153.85871616666665,"isDrum":true},{"pitch":35,"velocity":102,"startTime":153.913064,"endTime":154.02175966666667,"isDrum":true},{"pitch":42,"velocity":102,"startTime":153.913064,"endTime":154.02175966666667,"isDrum":true},{"pitch":35,"velocity":102,"startTime":154.239151,"endTime":154.34784666666667,"isDrum":true},{"pitch":42,"velocity":102,"startTime":154.239151,"endTime":154.34784666666667,"isDrum":true},{"pitch":40,"velocity":102,"startTime":154.565238,"endTime":154.67393366666664,"isDrum":true},{"pitch":42,"velocity":102,"startTime":154.565238,"endTime":154.67393366666664,"isDrum":true},{"pitch":40,"velocity":102,"startTime":154.72828149999998,"endTime":154.83697716666666,"isDrum":true},{"pitch":42,"velocity":102,"startTime":154.891325,"endTime":155.00002066666664,"isDrum":true},{"pitch":35,"velocity":102,"startTime":155.05436849999998,"endTime":155.16306416666666,"isDrum":true},{"pitch":40,"velocity":102,"startTime":155.05436849999998,"endTime":155.16306416666666,"isDrum":true},{"pitch":35,"velocity":102,"startTime":155.217412,"endTime":155.32610766666664,"isDrum":true},{"pitch":42,"velocity":102,"startTime":155.217412,"endTime":155.32610766666664,"isDrum":true},{"pitch":42,"velocity":102,"startTime":155.543499,"endTime":155.65219466666665,"isDrum":true},{"pitch":40,"velocity":102,"startTime":155.869586,"endTime":155.97828166666665,"isDrum":true},{"pitch":42,"velocity":102,"startTime":155.869586,"endTime":155.97828166666665,"isDrum":true},{"pitch":35,"velocity":102,"startTime":156.195673,"endTime":156.30436866666665,"isDrum":true},{"pitch":42,"velocity":102,"startTime":156.195673,"endTime":156.30436866666665,"isDrum":true},{"pitch":35,"velocity":102,"startTime":156.35871649999999,"endTime":156.46741216666666,"isDrum":true},{"pitch":35,"velocity":102,"startTime":156.52176,"endTime":156.63045566666665,"isDrum":true},{"pitch":42,"velocity":102,"startTime":156.52176,"endTime":156.63045566666665,"isDrum":true},{"pitch":42,"velocity":102,"startTime":156.847847,"endTime":156.95654266666665,"isDrum":true},{"pitch":40,"velocity":102,"startTime":157.17393399999997,"endTime":157.28262966666665,"isDrum":true},{"pitch":42,"velocity":102,"startTime":157.17393399999997,"endTime":157.28262966666665,"isDrum":true},{"pitch":42,"velocity":102,"startTime":157.50002099999998,"endTime":157.60871666666665,"isDrum":true},{"pitch":40,"velocity":102,"startTime":157.6630645,"endTime":157.77176016666667,"isDrum":true},{"pitch":35,"velocity":102,"startTime":157.82610799999998,"endTime":157.93480366666665,"isDrum":true},{"pitch":42,"velocity":102,"startTime":157.82610799999998,"endTime":157.93480366666665,"isDrum":true},{"pitch":35,"velocity":102,"startTime":157.9891515,"endTime":158.09784716666667,"isDrum":true},{"pitch":35,"velocity":102,"startTime":158.15219499999998,"endTime":158.26089066666665,"isDrum":true},{"pitch":42,"velocity":102,"startTime":158.15219499999998,"endTime":158.26089066666665,"isDrum":true},{"pitch":40,"velocity":102,"startTime":158.47828199999998,"endTime":158.58697766666666,"isDrum":true},{"pitch":42,"velocity":102,"startTime":158.47828199999998,"endTime":158.58697766666666,"isDrum":true},{"pitch":42,"velocity":102,"startTime":158.80436899999998,"endTime":158.91306466666666,"isDrum":true},{"pitch":40,"velocity":102,"startTime":158.9674125,"endTime":159.07610816666664,"isDrum":true},{"pitch":35,"velocity":102,"startTime":159.13045599999998,"endTime":159.23915166666666,"isDrum":true},{"pitch":42,"velocity":102,"startTime":159.13045599999998,"endTime":159.23915166666666,"isDrum":true},{"pitch":42,"velocity":102,"startTime":159.45654299999998,"endTime":159.56523866666666,"isDrum":true},{"pitch":40,"velocity":102,"startTime":159.78262999999998,"endTime":159.89132566666666,"isDrum":true},{"pitch":42,"velocity":102,"startTime":159.78262999999998,"endTime":159.89132566666666,"isDrum":true},{"pitch":42,"velocity":102,"startTime":160.10871699999998,"endTime":160.21741266666666,"isDrum":true},{"pitch":35,"velocity":102,"startTime":160.2717605,"endTime":160.38045616666665,"isDrum":true},{"pitch":35,"velocity":102,"startTime":160.43480399999999,"endTime":160.54349966666666,"isDrum":true},{"pitch":42,"velocity":102,"startTime":160.43480399999999,"endTime":160.54349966666666,"isDrum":true},{"pitch":35,"velocity":102,"startTime":160.760891,"endTime":160.86958666666666,"isDrum":true},{"pitch":42,"velocity":102,"startTime":160.760891,"endTime":160.86958666666666,"isDrum":true},{"pitch":40,"velocity":102,"startTime":161.086978,"endTime":161.19567366666666,"isDrum":true},{"pitch":42,"velocity":102,"startTime":161.086978,"endTime":161.19567366666666,"isDrum":true},{"pitch":42,"velocity":102,"startTime":161.413065,"endTime":161.52176066666667,"isDrum":true},{"pitch":35,"velocity":102,"startTime":161.739152,"endTime":161.84784766666667,"isDrum":true},{"pitch":42,"velocity":102,"startTime":161.739152,"endTime":161.84784766666667,"isDrum":true},{"pitch":42,"velocity":102,"startTime":162.065239,"endTime":162.17393466666667,"isDrum":true},{"pitch":40,"velocity":102,"startTime":162.391326,"endTime":162.50002166666664,"isDrum":true},{"pitch":42,"velocity":102,"startTime":162.391326,"endTime":162.50002166666664,"isDrum":true},{"pitch":42,"velocity":102,"startTime":162.717413,"endTime":162.82610866666664,"isDrum":true},{"pitch":35,"velocity":102,"startTime":162.88045649999998,"endTime":162.98915216666666,"isDrum":true},{"pitch":35,"velocity":102,"startTime":163.0435,"endTime":163.15219566666664,"isDrum":true},{"pitch":42,"velocity":102,"startTime":163.0435,"endTime":163.15219566666664,"isDrum":true},{"pitch":35,"velocity":102,"startTime":163.369587,"endTime":163.47828266666664,"isDrum":true},{"pitch":42,"velocity":102,"startTime":163.369587,"endTime":163.47828266666664,"isDrum":true},{"pitch":40,"velocity":102,"startTime":163.695674,"endTime":163.80436966666664,"isDrum":true},{"pitch":42,"velocity":102,"startTime":163.695674,"endTime":163.80436966666664,"isDrum":true},{"pitch":46,"velocity":102,"startTime":163.85871749999998,"endTime":163.96741316666666,"isDrum":true},{"pitch":42,"velocity":102,"startTime":164.021761,"endTime":164.13045666666665,"isDrum":true},{"pitch":40,"velocity":102,"startTime":164.18480449999998,"endTime":164.29350016666666,"isDrum":true},{"pitch":35,"velocity":102,"startTime":164.347848,"endTime":164.45654366666665,"isDrum":true},{"pitch":42,"velocity":102,"startTime":164.347848,"endTime":164.45654366666665,"isDrum":true},{"pitch":42,"velocity":102,"startTime":164.673935,"endTime":164.78263066666665,"isDrum":true},{"pitch":35,"velocity":102,"startTime":164.8369785,"endTime":164.94567416666666,"isDrum":true},{"pitch":40,"velocity":102,"startTime":165.000022,"endTime":165.10871766666665,"isDrum":true},{"pitch":42,"velocity":102,"startTime":165.000022,"endTime":165.10871766666665,"isDrum":true},{"pitch":35,"velocity":102,"startTime":165.32610899999997,"endTime":165.43480466666665,"isDrum":true},{"pitch":42,"velocity":102,"startTime":165.32610899999997,"endTime":165.43480466666665,"isDrum":true},{"pitch":35,"velocity":102,"startTime":165.65219599999998,"endTime":165.76089166666665,"isDrum":true},{"pitch":42,"velocity":102,"startTime":165.65219599999998,"endTime":165.76089166666665,"isDrum":true},{"pitch":42,"velocity":102,"startTime":165.97828299999998,"endTime":166.08697866666665,"isDrum":true},{"pitch":40,"velocity":102,"startTime":166.30436999999998,"endTime":166.41306566666665,"isDrum":true},{"pitch":42,"velocity":102,"startTime":166.30436999999998,"endTime":166.41306566666665,"isDrum":true},{"pitch":42,"velocity":102,"startTime":166.63045699999998,"endTime":166.73915266666666,"isDrum":true},{"pitch":35,"velocity":102,"startTime":166.7935005,"endTime":166.90219616666664,"isDrum":true},{"pitch":70,"velocity":95,"startTime":146.25001949999998,"endTime":146.35871516666666,"instrument":1,"program":12},{"pitch":75,"velocity":95,"startTime":146.413063,"endTime":146.46741083333333,"instrument":1,"program":12},{"pitch":70,"velocity":95,"startTime":146.57610649999998,"endTime":146.63045433333332,"instrument":1,"program":12},{"pitch":75,"velocity":95,"startTime":146.73915,"endTime":146.79349783333333,"instrument":1,"program":12},{"pitch":70,"velocity":95,"startTime":146.90219349999998,"endTime":146.95654133333332,"instrument":1,"program":12},{"pitch":70,"velocity":95,"startTime":147.065237,"endTime":147.11958483333333,"instrument":1,"program":12},{"pitch":75,"velocity":95,"startTime":147.22828049999998,"endTime":147.28262833333332,"instrument":1,"program":12},{"pitch":70,"velocity":95,"startTime":147.391324,"endTime":147.50001966666665,"instrument":1,"program":12},{"pitch":72,"velocity":95,"startTime":147.55436749999998,"endTime":147.66306316666666,"instrument":1,"program":12},{"pitch":75,"velocity":95,"startTime":147.717411,"endTime":147.7717588333333,"instrument":1,"program":12},{"pitch":70,"velocity":95,"startTime":147.88045449999998,"endTime":147.93480233333332,"instrument":1,"program":12},{"pitch":75,"velocity":95,"startTime":148.043498,"endTime":148.0978458333333,"instrument":1,"program":12},{"pitch":70,"velocity":95,"startTime":148.2065415,"endTime":148.26088933333332,"instrument":1,"program":12},{"pitch":75,"velocity":95,"startTime":148.369585,"endTime":148.4239328333333,"instrument":1,"program":12},{"pitch":70,"velocity":95,"startTime":148.5326285,"endTime":148.58697633333333,"instrument":1,"program":12},{"pitch":70,"velocity":95,"startTime":148.695672,"endTime":148.8587155,"instrument":1,"program":12},{"pitch":72,"velocity":95,"startTime":148.8587155,"endTime":148.96741116666666,"instrument":1,"program":12},{"pitch":75,"velocity":95,"startTime":149.021759,"endTime":149.13045466666665,"instrument":1,"program":12},{"pitch":75,"velocity":95,"startTime":149.1848025,"endTime":149.23915033333333,"instrument":1,"program":12},{"pitch":70,"velocity":95,"startTime":149.34784599999998,"endTime":149.45654166666665,"instrument":1,"program":12},{"pitch":72,"velocity":95,"startTime":149.5108895,"endTime":149.56523733333333,"instrument":1,"program":12},{"pitch":75,"velocity":95,"startTime":149.67393299999998,"endTime":149.72828083333332,"instrument":1,"program":12},{"pitch":70,"velocity":95,"startTime":149.8369765,"endTime":149.89132433333333,"instrument":1,"program":12},{"pitch":75,"velocity":95,"startTime":150.00001999999998,"endTime":150.10871566666665,"instrument":1,"program":12},{"pitch":70,"velocity":95,"startTime":150.1630635,"endTime":150.27175916666667,"instrument":1,"program":12},{"pitch":75,"velocity":95,"startTime":150.32610699999998,"endTime":150.38045483333332,"instrument":1,"program":12},{"pitch":70,"velocity":95,"startTime":150.4891505,"endTime":150.54349833333333,"instrument":1,"program":12},{"pitch":75,"velocity":95,"startTime":150.65219399999998,"endTime":150.70654183333332,"instrument":1,"program":12},{"pitch":70,"velocity":95,"startTime":150.8152375,"endTime":150.86958533333333,"instrument":1,"program":12},{"pitch":72,"velocity":95,"startTime":150.97828099999998,"endTime":151.03262883333332,"instrument":1,"program":12},{"pitch":75,"velocity":95,"startTime":151.1413245,"endTime":151.19567233333333,"instrument":1,"program":12},{"pitch":70,"velocity":95,"startTime":151.30436799999998,"endTime":151.41306366666666,"instrument":1,"program":12},{"pitch":67,"velocity":95,"startTime":151.4674115,"endTime":151.57610716666665,"instrument":1,"program":12},{"pitch":70,"velocity":95,"startTime":151.63045499999998,"endTime":151.73915066666666,"instrument":1,"program":12},{"pitch":70,"velocity":95,"startTime":151.7934985,"endTime":151.90219416666665,"instrument":1,"program":12},{"pitch":74,"velocity":95,"startTime":151.95654199999998,"endTime":152.06523766666666,"instrument":1,"program":12},{"pitch":70,"velocity":95,"startTime":152.1195855,"endTime":152.1739333333333,"instrument":1,"program":12},{"pitch":79,"velocity":95,"startTime":152.282629,"endTime":152.39132466666666,"instrument":1,"program":12},{"pitch":74,"velocity":95,"startTime":152.4456725,"endTime":152.55436816666665,"instrument":1,"program":12},{"pitch":70,"velocity":95,"startTime":152.608716,"endTime":152.71741166666666,"instrument":1,"program":12},{"pitch":74,"velocity":95,"startTime":152.7717595,"endTime":152.88045516666665,"instrument":1,"program":12},{"pitch":70,"velocity":95,"startTime":152.934803,"endTime":152.98915083333333,"instrument":1,"program":12},{"pitch":70,"velocity":95,"startTime":153.09784649999997,"endTime":153.1521943333333,"instrument":1,"program":12},{"pitch":74,"velocity":95,"startTime":153.26089,"endTime":153.36958566666667,"instrument":1,"program":12},{"pitch":70,"velocity":95,"startTime":153.42393349999998,"endTime":153.4782813333333,"instrument":1,"program":12},{"pitch":67,"velocity":95,"startTime":153.586977,"endTime":153.69567266666667,"instrument":1,"program":12},{"pitch":70,"velocity":95,"startTime":153.75002049999998,"endTime":153.85871616666665,"instrument":1,"program":12},{"pitch":70,"velocity":95,"startTime":153.913064,"endTime":154.02175966666667,"instrument":1,"program":12},{"pitch":67,"velocity":95,"startTime":154.07610749999998,"endTime":154.18480316666665,"instrument":1,"program":12},{"pitch":70,"velocity":95,"startTime":154.239151,"endTime":154.29349883333333,"instrument":1,"program":12},{"pitch":67,"velocity":95,"startTime":154.40219449999998,"endTime":154.45654233333332,"instrument":1,"program":12},{"pitch":70,"velocity":95,"startTime":154.565238,"endTime":154.61958583333333,"instrument":1,"program":12},{"pitch":67,"velocity":95,"startTime":154.72828149999998,"endTime":154.83697716666666,"instrument":1,"program":12},{"pitch":70,"velocity":95,"startTime":154.891325,"endTime":155.00002066666664,"instrument":1,"program":12},{"pitch":67,"velocity":95,"startTime":155.05436849999998,"endTime":155.10871633333332,"instrument":1,"program":12},{"pitch":67,"velocity":95,"startTime":155.217412,"endTime":155.32610766666664,"instrument":1,"program":12},{"pitch":70,"velocity":95,"startTime":155.38045549999998,"endTime":155.48915116666666,"instrument":1,"program":12},{"pitch":67,"velocity":95,"startTime":155.543499,"endTime":155.65219466666665,"instrument":1,"program":12},{"pitch":70,"velocity":95,"startTime":155.70654249999998,"endTime":155.81523816666666,"instrument":1,"program":12},{"pitch":67,"velocity":95,"startTime":155.869586,"endTime":155.97828166666665,"instrument":1,"program":12},{"pitch":70,"velocity":95,"startTime":156.03262949999998,"endTime":156.08697733333332,"instrument":1,"program":12},{"pitch":67,"velocity":95,"startTime":156.195673,"endTime":156.2500208333333,"instrument":1,"program":12},{"pitch":70,"velocity":95,"startTime":156.35871649999999,"endTime":156.41306433333332,"instrument":1,"program":12},{"pitch":72,"velocity":95,"startTime":156.52176,"endTime":156.6848035,"instrument":1,"program":12},{"pitch":69,"velocity":95,"startTime":156.6848035,"endTime":156.79349916666666,"instrument":1,"program":12},{"pitch":72,"velocity":95,"startTime":156.847847,"endTime":156.95654266666665,"instrument":1,"program":12},{"pitch":69,"velocity":95,"startTime":157.0108905,"endTime":157.06523833333333,"instrument":1,"program":12},{"pitch":72,"velocity":95,"startTime":157.17393399999997,"endTime":157.28262966666665,"instrument":1,"program":12},{"pitch":69,"velocity":95,"startTime":157.3369775,"endTime":157.44567316666667,"instrument":1,"program":12},{"pitch":69,"velocity":95,"startTime":157.50002099999998,"endTime":157.60871666666665,"instrument":1,"program":12},{"pitch":69,"velocity":95,"startTime":157.6630645,"endTime":157.77176016666667,"instrument":1,"program":12},{"pitch":72,"velocity":95,"startTime":157.82610799999998,"endTime":157.93480366666665,"instrument":1,"program":12},{"pitch":69,"velocity":95,"startTime":157.9891515,"endTime":158.09784716666667,"instrument":1,"program":12},{"pitch":72,"velocity":95,"startTime":158.15219499999998,"endTime":158.26089066666665,"instrument":1,"program":12},{"pitch":69,"velocity":95,"startTime":158.3152385,"endTime":158.36958633333333,"instrument":1,"program":12},{"pitch":72,"velocity":95,"startTime":158.47828199999998,"endTime":158.58697766666666,"instrument":1,"program":12},{"pitch":69,"velocity":95,"startTime":158.6413255,"endTime":158.75002116666664,"instrument":1,"program":12},{"pitch":69,"velocity":95,"startTime":158.80436899999998,"endTime":158.91306466666666,"instrument":1,"program":12},{"pitch":69,"velocity":95,"startTime":158.9674125,"endTime":159.02176033333333,"instrument":1,"program":12},{"pitch":69,"velocity":95,"startTime":159.13045599999998,"endTime":159.2934995,"instrument":1,"program":12},{"pitch":74,"velocity":95,"startTime":159.2934995,"endTime":159.40219516666664,"instrument":1,"program":12},{"pitch":69,"velocity":95,"startTime":159.45654299999998,"endTime":159.56523866666666,"instrument":1,"program":12},{"pitch":74,"velocity":95,"startTime":159.6195865,"endTime":159.72828216666665,"instrument":1,"program":12},{"pitch":69,"velocity":95,"startTime":159.78262999999998,"endTime":159.89132566666666,"instrument":1,"program":12},{"pitch":69,"velocity":95,"startTime":159.9456735,"endTime":160.05436916666665,"instrument":1,"program":12},{"pitch":74,"velocity":95,"startTime":160.10871699999998,"endTime":160.21741266666666,"instrument":1,"program":12},{"pitch":69,"velocity":95,"startTime":160.2717605,"endTime":160.3261083333333,"instrument":1,"program":12},{"pitch":74,"velocity":95,"startTime":160.43480399999999,"endTime":160.54349966666666,"instrument":1,"program":12},{"pitch":69,"velocity":95,"startTime":160.5978475,"endTime":160.70654316666665,"instrument":1,"program":12},{"pitch":74,"velocity":95,"startTime":160.760891,"endTime":160.86958666666666,"instrument":1,"program":12},{"pitch":74,"velocity":95,"startTime":160.9239345,"endTime":161.03263016666665,"instrument":1,"program":12},{"pitch":74,"velocity":95,"startTime":161.086978,"endTime":161.19567366666666,"instrument":1,"program":12},{"pitch":69,"velocity":95,"startTime":161.25002149999997,"endTime":161.35871716666665,"instrument":1,"program":12},{"pitch":74,"velocity":95,"startTime":161.413065,"endTime":161.46741283333333,"instrument":1,"program":12},{"pitch":69,"velocity":95,"startTime":161.57610849999998,"endTime":161.6304563333333,"instrument":1,"program":12},{"pitch":69,"velocity":95,"startTime":161.739152,"endTime":161.90219549999998,"instrument":1,"program":12},{"pitch":69,"velocity":95,"startTime":164.347848,"endTime":164.51089149999999,"instrument":1,"program":12},{"pitch":72,"velocity":95,"startTime":164.51089149999999,"endTime":164.61958716666666,"instrument":1,"program":12},{"pitch":78,"velocity":95,"startTime":164.673935,"endTime":164.78263066666665,"instrument":1,"program":12},{"pitch":78,"velocity":95,"startTime":164.8369785,"endTime":164.89132633333332,"instrument":1,"program":12},{"pitch":84,"velocity":95,"startTime":165.000022,"endTime":165.10871766666665,"instrument":1,"program":12},{"pitch":78,"velocity":95,"startTime":165.1630655,"endTime":165.27176116666666,"instrument":1,"program":12},{"pitch":72,"velocity":95,"startTime":165.32610899999997,"endTime":165.3804568333333,"instrument":1,"program":12},{"pitch":69,"velocity":95,"startTime":165.4891525,"endTime":165.54350033333333,"instrument":1,"program":12},{"pitch":74,"velocity":95,"startTime":165.65219599999998,"endTime":165.8152395,"instrument":1,"program":12},{"pitch":74,"velocity":95,"startTime":165.8152395,"endTime":165.92393516666667,"instrument":1,"program":12},{"pitch":67,"velocity":95,"startTime":165.97828299999998,"endTime":166.08697866666665,"instrument":1,"program":12},{"pitch":74,"velocity":95,"startTime":166.1413265,"endTime":166.19567433333333,"instrument":1,"program":12},{"pitch":74,"velocity":95,"startTime":166.30436999999998,"endTime":166.41306566666665,"instrument":1,"program":12},{"pitch":67,"velocity":95,"startTime":166.4674135,"endTime":166.57610916666664,"instrument":1,"program":12},{"pitch":74,"velocity":95,"startTime":166.63045699999998,"endTime":166.73915266666666,"instrument":1,"program":12},{"pitch":67,"velocity":95,"startTime":166.7935005,"endTime":166.90219616666664,"instrument":1,"program":12},{"pitch":39,"velocity":110,"startTime":146.086976,"endTime":146.413063,"instrument":2,"program":32},{"pitch":39,"velocity":110,"startTime":146.57610649999998,"endTime":146.73915,"instrument":2,"program":32},{"pitch":39,"velocity":110,"startTime":146.90219349999998,"endTime":147.065237,"instrument":2,"program":32},{"pitch":34,"velocity":110,"startTime":147.065237,"endTime":147.28262833333332,"instrument":2,"program":32},{"pitch":39,"velocity":110,"startTime":147.391324,"endTime":147.55436749999998,"instrument":2,"program":32},{"pitch":39,"velocity":110,"startTime":147.717411,"endTime":147.88045449999998,"instrument":2,"program":32},{"pitch":34,"velocity":110,"startTime":148.043498,"endTime":148.2065415,"instrument":2,"program":32},{"pitch":39,"velocity":110,"startTime":148.369585,"endTime":148.5326285,"instrument":2,"program":32},{"pitch":36,"velocity":110,"startTime":148.695672,"endTime":149.021759,"instrument":2,"program":32},{"pitch":43,"velocity":110,"startTime":149.1848025,"endTime":149.34784599999998,"instrument":2,"program":32},{"pitch":48,"velocity":110,"startTime":149.5108895,"endTime":149.67393299999998,"instrument":2,"program":32},{"pitch":43,"velocity":110,"startTime":149.67393299999998,"endTime":149.89132433333333,"instrument":2,"program":32},{"pitch":36,"velocity":110,"startTime":150.00001999999998,"endTime":150.1630635,"instrument":2,"program":32},{"pitch":36,"velocity":110,"startTime":150.32610699999998,"endTime":150.4891505,"instrument":2,"program":32},{"pitch":31,"velocity":110,"startTime":150.65219399999998,"endTime":150.8152375,"instrument":2,"program":32},{"pitch":36,"velocity":110,"startTime":150.97828099999998,"endTime":151.1413245,"instrument":2,"program":32},{"pitch":43,"velocity":110,"startTime":151.30436799999998,"endTime":151.63045499999998,"instrument":2,"program":32},{"pitch":43,"velocity":110,"startTime":151.7934985,"endTime":151.95654199999998,"instrument":2,"program":32},{"pitch":43,"velocity":110,"startTime":152.1195855,"endTime":152.282629,"instrument":2,"program":32},{"pitch":38,"velocity":110,"startTime":152.282629,"endTime":152.5000203333333,"instrument":2,"program":32},{"pitch":46,"velocity":110,"startTime":152.608716,"endTime":152.7717595,"instrument":2,"program":32},{"pitch":38,"velocity":110,"startTime":152.934803,"endTime":153.09784649999997,"instrument":2,"program":32},{"pitch":31,"velocity":110,"startTime":153.26089,"endTime":153.42393349999998,"instrument":2,"program":32},{"pitch":43,"velocity":110,"startTime":153.586977,"endTime":153.80436833333331,"instrument":2,"program":32},{"pitch":31,"velocity":110,"startTime":153.913064,"endTime":154.239151,"instrument":2,"program":32},{"pitch":31,"velocity":110,"startTime":154.40219449999998,"endTime":154.565238,"instrument":2,"program":32},{"pitch":31,"velocity":110,"startTime":154.72828149999998,"endTime":154.891325,"instrument":2,"program":32},{"pitch":36,"velocity":110,"startTime":154.891325,"endTime":155.10871633333332,"instrument":2,"program":32},{"pitch":34,"velocity":110,"startTime":155.217412,"endTime":155.38045549999998,"instrument":2,"program":32},{"pitch":31,"velocity":110,"startTime":155.543499,"endTime":155.76089033333332,"instrument":2,"program":32},{"pitch":31,"velocity":110,"startTime":155.869586,"endTime":156.03262949999998,"instrument":2,"program":32},{"pitch":38,"velocity":110,"startTime":156.195673,"endTime":156.41306433333332,"instrument":2,"program":32},{"pitch":38,"velocity":110,"startTime":156.52176,"endTime":156.847847,"instrument":2,"program":32},{"pitch":38,"velocity":110,"startTime":157.0108905,"endTime":157.17393399999997,"instrument":2,"program":32},{"pitch":38,"velocity":110,"startTime":157.3369775,"endTime":157.50002099999998,"instrument":2,"program":32},{"pitch":38,"velocity":110,"startTime":157.50002099999998,"endTime":157.71741233333333,"instrument":2,"program":32},{"pitch":38,"velocity":110,"startTime":157.82610799999998,"endTime":157.9891515,"instrument":2,"program":32},{"pitch":38,"velocity":110,"startTime":158.15219499999998,"endTime":158.36958633333333,"instrument":2,"program":32},{"pitch":42,"velocity":110,"startTime":158.47828199999998,"endTime":158.6413255,"instrument":2,"program":32},{"pitch":45,"velocity":110,"startTime":158.6413255,"endTime":158.80436899999998,"instrument":2,"program":32},{"pitch":38,"velocity":110,"startTime":158.80436899999998,"endTime":159.02176033333333,"instrument":2,"program":32},{"pitch":38,"velocity":110,"startTime":159.13045599999998,"endTime":159.45654299999998,"instrument":2,"program":32},{"pitch":33,"velocity":110,"startTime":159.6195865,"endTime":159.78262999999998,"instrument":2,"program":32},{"pitch":33,"velocity":110,"startTime":159.9456735,"endTime":160.10871699999998,"instrument":2,"program":32},{"pitch":38,"velocity":110,"startTime":160.43480399999999,"endTime":161.25002149999997,"instrument":2,"program":32},{"pitch":33,"velocity":110,"startTime":161.413065,"endTime":161.57610849999998,"instrument":2,"program":32},{"pitch":40,"velocity":110,"startTime":161.57610849999998,"endTime":161.739152,"instrument":2,"program":32},{"pitch":43,"velocity":110,"startTime":161.739152,"endTime":161.90219549999998,"instrument":2,"program":32},{"pitch":43,"velocity":110,"startTime":162.065239,"endTime":162.22828249999998,"instrument":2,"program":32},{"pitch":38,"velocity":110,"startTime":162.391326,"endTime":162.60871733333332,"instrument":2,"program":32},{"pitch":43,"velocity":110,"startTime":162.717413,"endTime":162.88045649999998,"instrument":2,"program":32},{"pitch":38,"velocity":110,"startTime":163.0435,"endTime":163.20654349999998,"instrument":2,"program":32},{"pitch":43,"velocity":110,"startTime":163.369587,"endTime":163.53263049999998,"instrument":2,"program":32},{"pitch":38,"velocity":110,"startTime":163.695674,"endTime":163.85871749999998,"instrument":2,"program":32},{"pitch":38,"velocity":110,"startTime":164.021761,"endTime":164.18480449999998,"instrument":2,"program":32},{"pitch":38,"velocity":110,"startTime":164.347848,"endTime":164.51089149999999,"instrument":2,"program":32},{"pitch":38,"velocity":110,"startTime":164.673935,"endTime":164.8369785,"instrument":2,"program":32},{"pitch":38,"velocity":110,"startTime":165.000022,"endTime":165.1630655,"instrument":2,"program":32},{"pitch":33,"velocity":110,"startTime":165.32610899999997,"endTime":165.4891525,"instrument":2,"program":32},{"pitch":31,"velocity":110,"startTime":165.65219599999998,"endTime":165.8152395,"instrument":2,"program":32},{"pitch":31,"velocity":110,"startTime":165.97828299999998,"endTime":166.1413265,"instrument":2,"program":32},{"pitch":31,"velocity":110,"startTime":166.30436999999998,"endTime":166.4674135,"instrument":2,"program":32},{"pitch":36,"velocity":110,"startTime":166.63045699999998,"endTime":166.7935005,"instrument":2,"program":32},{"pitch":58,"velocity":105,"startTime":146.413063,"endTime":148.64132416666666,"instrument":3,"program":50},{"pitch":60,"velocity":105,"startTime":146.413063,"endTime":148.58697633333333,"instrument":3,"program":50},{"pitch":63,"velocity":105,"startTime":146.413063,"endTime":148.58697633333333,"instrument":3,"program":50},{"pitch":67,"velocity":105,"startTime":146.413063,"endTime":148.64132416666666,"instrument":3,"program":50},{"pitch":67,"velocity":105,"startTime":147.065237,"endTime":148.58697633333333,"instrument":3,"program":50},{"pitch":72,"velocity":105,"startTime":147.391324,"endTime":148.58697633333333,"instrument":3,"program":50},{"pitch":75,"velocity":105,"startTime":148.043498,"endTime":148.31523716666666,"instrument":3,"program":50},{"pitch":58,"velocity":105,"startTime":148.369585,"endTime":148.58697633333333,"instrument":3,"program":50},{"pitch":60,"velocity":105,"startTime":148.695672,"endTime":151.30436799999998,"instrument":3,"program":50},{"pitch":63,"velocity":105,"startTime":148.695672,"endTime":151.30436799999998,"instrument":3,"program":50},{"pitch":67,"velocity":105,"startTime":148.695672,"endTime":151.30436799999998,"instrument":3,"program":50},{"pitch":58,"velocity":105,"startTime":151.30436799999998,"endTime":153.913064,"instrument":3,"program":50},{"pitch":63,"velocity":105,"startTime":151.30436799999998,"endTime":153.913064,"instrument":3,"program":50},{"pitch":67,"velocity":105,"startTime":151.30436799999998,"endTime":153.913064,"instrument":3,"program":50},{"pitch":74,"velocity":105,"startTime":151.30436799999998,"endTime":153.913064,"instrument":3,"program":50},{"pitch":58,"velocity":105,"startTime":153.913064,"endTime":156.52176,"instrument":3,"program":50},{"pitch":62,"velocity":105,"startTime":153.913064,"endTime":156.52176,"instrument":3,"program":50},{"pitch":63,"velocity":105,"startTime":153.913064,"endTime":156.52176,"instrument":3,"program":50},{"pitch":67,"velocity":105,"startTime":153.913064,"endTime":156.52176,"instrument":3,"program":50},{"pitch":74,"velocity":105,"startTime":153.913064,"endTime":156.52176,"instrument":3,"program":50},{"pitch":60,"velocity":105,"startTime":156.52176,"endTime":159.13045599999998,"instrument":3,"program":50},{"pitch":66,"velocity":105,"startTime":156.52176,"endTime":159.13045599999998,"instrument":3,"program":50},{"pitch":69,"velocity":105,"startTime":156.52176,"endTime":159.13045599999998,"instrument":3,"program":50},{"pitch":74,"velocity":105,"startTime":156.52176,"endTime":159.13045599999998,"instrument":3,"program":50},{"pitch":62,"velocity":105,"startTime":159.13045599999998,"endTime":161.57610849999998,"instrument":3,"program":50},{"pitch":66,"velocity":105,"startTime":159.13045599999998,"endTime":161.57610849999998,"instrument":3,"program":50},{"pitch":70,"velocity":105,"startTime":159.13045599999998,"endTime":161.57610849999998,"instrument":3,"program":50},{"pitch":74,"velocity":105,"startTime":159.13045599999998,"endTime":161.57610849999998,"instrument":3,"program":50},{"pitch":62,"velocity":105,"startTime":161.739152,"endTime":164.347848,"instrument":3,"program":50},{"pitch":67,"velocity":105,"startTime":161.739152,"endTime":164.347848,"instrument":3,"program":50},{"pitch":70,"velocity":105,"startTime":161.739152,"endTime":164.347848,"instrument":3,"program":50},{"pitch":74,"velocity":105,"startTime":161.739152,"endTime":164.347848,"instrument":3,"program":50},{"pitch":60,"velocity":105,"startTime":164.347848,"endTime":165.000022,"instrument":3,"program":50},{"pitch":66,"velocity":105,"startTime":164.347848,"endTime":165.000022,"instrument":3,"program":50},{"pitch":69,"velocity":105,"startTime":164.347848,"endTime":165.000022,"instrument":3,"program":50},{"pitch":74,"velocity":105,"startTime":164.347848,"endTime":165.000022,"instrument":3,"program":50},{"pitch":60,"velocity":105,"startTime":165.000022,"endTime":165.32610899999997,"instrument":3,"program":50},{"pitch":62,"velocity":105,"startTime":165.32610899999997,"endTime":165.8152395,"instrument":3,"program":50},{"pitch":65,"velocity":105,"startTime":165.32610899999997,"endTime":165.8152395,"instrument":3,"program":50},{"pitch":70,"velocity":105,"startTime":165.32610899999997,"endTime":165.8152395,"instrument":3,"program":50},{"pitch":77,"velocity":105,"startTime":165.32610899999997,"endTime":165.7065438333333,"instrument":3,"program":50},{"pitch":58,"velocity":105,"startTime":165.8152395,"endTime":166.1413265,"instrument":3,"program":50},{"pitch":62,"velocity":105,"startTime":165.8152395,"endTime":166.1413265,"instrument":3,"program":50},{"pitch":65,"velocity":105,"startTime":165.8152395,"endTime":166.1413265,"instrument":3,"program":50},{"pitch":70,"velocity":105,"startTime":165.8152395,"endTime":166.1413265,"instrument":3,"program":50},{"pitch":62,"velocity":105,"startTime":166.30436999999998,"endTime":166.4674135,"instrument":3,"program":50},{"pitch":65,"velocity":105,"startTime":166.30436999999998,"endTime":166.4674135,"instrument":3,"program":50},{"pitch":67,"velocity":105,"startTime":166.30436999999998,"endTime":166.4674135,"instrument":3,"program":50},{"pitch":60,"velocity":105,"startTime":166.4674135,"endTime":166.63045699999998,"instrument":3,"program":50},{"pitch":56,"velocity":105,"startTime":166.63045699999998,"endTime":166.95654399999998,"instrument":3,"program":50},{"pitch":60,"velocity":105,"startTime":166.63045699999998,"endTime":166.95654399999998,"instrument":3,"program":50},{"pitch":63,"velocity":105,"startTime":166.63045699999998,"endTime":166.95654399999998,"instrument":3,"program":50},{"pitch":35,"velocity":102,"startTime":166.95654399999998,"endTime":167.1195875,"isDrum":true},{"pitch":42,"velocity":102,"startTime":166.95654399999998,"endTime":167.1195875,"isDrum":true},{"pitch":51,"velocity":102,"startTime":166.95654399999998,"endTime":167.1195875,"isDrum":true},{"pitch":42,"velocity":102,"startTime":167.28263099999998,"endTime":167.4456745,"isDrum":true},{"pitch":51,"velocity":102,"startTime":167.28263099999998,"endTime":167.4456745,"isDrum":true},{"pitch":38,"velocity":102,"startTime":167.60871799999998,"endTime":167.7717615,"isDrum":true},{"pitch":40,"velocity":102,"startTime":167.60871799999998,"endTime":167.7717615,"isDrum":true},{"pitch":42,"velocity":102,"startTime":167.60871799999998,"endTime":167.7717615,"isDrum":true},{"pitch":51,"velocity":102,"startTime":167.60871799999998,"endTime":167.7717615,"isDrum":true},{"pitch":42,"velocity":102,"startTime":167.93480499999998,"endTime":168.0978485,"isDrum":true},{"pitch":51,"velocity":102,"startTime":167.93480499999998,"endTime":168.0978485,"isDrum":true},{"pitch":35,"velocity":102,"startTime":168.26089199999998,"endTime":168.4239355,"isDrum":true},{"pitch":42,"velocity":102,"startTime":168.26089199999998,"endTime":168.4239355,"isDrum":true},{"pitch":51,"velocity":102,"startTime":168.26089199999998,"endTime":168.4239355,"isDrum":true},{"pitch":42,"velocity":102,"startTime":168.58697899999999,"endTime":168.7500225,"isDrum":true},{"pitch":51,"velocity":102,"startTime":168.58697899999999,"endTime":168.7500225,"isDrum":true},{"pitch":38,"velocity":102,"startTime":168.913066,"endTime":169.0761095,"isDrum":true},{"pitch":42,"velocity":102,"startTime":168.913066,"endTime":169.0761095,"isDrum":true},{"pitch":51,"velocity":102,"startTime":168.913066,"endTime":169.0761095,"isDrum":true},{"pitch":35,"velocity":102,"startTime":169.239153,"endTime":169.40219649999997,"isDrum":true},{"pitch":42,"velocity":102,"startTime":169.239153,"endTime":169.40219649999997,"isDrum":true},{"pitch":51,"velocity":102,"startTime":169.239153,"endTime":169.40219649999997,"isDrum":true},{"pitch":35,"velocity":102,"startTime":169.56524,"endTime":169.72828349999997,"isDrum":true},{"pitch":42,"velocity":102,"startTime":169.56524,"endTime":169.72828349999997,"isDrum":true},{"pitch":51,"velocity":102,"startTime":169.56524,"endTime":169.72828349999997,"isDrum":true},{"pitch":42,"velocity":102,"startTime":169.891327,"endTime":170.05437049999998,"isDrum":true},{"pitch":51,"velocity":102,"startTime":169.891327,"endTime":170.05437049999998,"isDrum":true},{"pitch":38,"velocity":102,"startTime":170.217414,"endTime":170.38045749999998,"isDrum":true},{"pitch":40,"velocity":102,"startTime":170.217414,"endTime":170.38045749999998,"isDrum":true},{"pitch":42,"velocity":102,"startTime":170.217414,"endTime":170.38045749999998,"isDrum":true},{"pitch":51,"velocity":102,"startTime":170.217414,"endTime":170.38045749999998,"isDrum":true},{"pitch":42,"velocity":102,"startTime":170.543501,"endTime":170.70654449999998,"isDrum":true},{"pitch":51,"velocity":102,"startTime":170.543501,"endTime":170.70654449999998,"isDrum":true},{"pitch":35,"velocity":102,"startTime":170.869588,"endTime":171.03263149999998,"isDrum":true},{"pitch":42,"velocity":102,"startTime":170.869588,"endTime":171.03263149999998,"isDrum":true},{"pitch":51,"velocity":102,"startTime":170.869588,"endTime":171.03263149999998,"isDrum":true},{"pitch":42,"velocity":102,"startTime":171.195675,"endTime":171.35871849999998,"isDrum":true},{"pitch":51,"velocity":102,"startTime":171.195675,"endTime":171.35871849999998,"isDrum":true},{"pitch":38,"velocity":102,"startTime":171.521762,"endTime":171.68480549999998,"isDrum":true},{"pitch":40,"velocity":102,"startTime":171.521762,"endTime":171.68480549999998,"isDrum":true},{"pitch":42,"velocity":102,"startTime":171.521762,"endTime":171.68480549999998,"isDrum":true},{"pitch":51,"velocity":102,"startTime":171.521762,"endTime":171.68480549999998,"isDrum":true},{"pitch":42,"velocity":102,"startTime":171.847849,"endTime":172.01089249999998,"isDrum":true},{"pitch":51,"velocity":102,"startTime":171.847849,"endTime":172.01089249999998,"isDrum":true},{"pitch":35,"velocity":102,"startTime":172.173936,"endTime":172.33697949999998,"isDrum":true},{"pitch":42,"velocity":102,"startTime":172.173936,"endTime":172.33697949999998,"isDrum":true},{"pitch":51,"velocity":102,"startTime":172.173936,"endTime":172.33697949999998,"isDrum":true},{"pitch":42,"velocity":102,"startTime":172.500023,"endTime":172.66306649999999,"isDrum":true},{"pitch":51,"velocity":102,"startTime":172.500023,"endTime":172.66306649999999,"isDrum":true},{"pitch":38,"velocity":102,"startTime":172.82611,"endTime":172.9891535,"isDrum":true},{"pitch":40,"velocity":102,"startTime":172.82611,"endTime":172.9891535,"isDrum":true},{"pitch":42,"velocity":102,"startTime":172.82611,"endTime":172.9891535,"isDrum":true},{"pitch":51,"velocity":102,"startTime":172.82611,"endTime":172.9891535,"isDrum":true},{"pitch":42,"velocity":102,"startTime":173.152197,"endTime":173.3152405,"isDrum":true},{"pitch":51,"velocity":102,"startTime":173.152197,"endTime":173.3152405,"isDrum":true},{"pitch":35,"velocity":102,"startTime":173.47828399999997,"endTime":173.6413275,"isDrum":true},{"pitch":42,"velocity":102,"startTime":173.47828399999997,"endTime":173.6413275,"isDrum":true},{"pitch":51,"velocity":102,"startTime":173.47828399999997,"endTime":173.6413275,"isDrum":true},{"pitch":42,"velocity":102,"startTime":173.80437099999997,"endTime":173.9674145,"isDrum":true},{"pitch":51,"velocity":102,"startTime":173.80437099999997,"endTime":173.9674145,"isDrum":true},{"pitch":38,"velocity":102,"startTime":174.13045799999998,"endTime":174.2935015,"isDrum":true},{"pitch":40,"velocity":102,"startTime":174.13045799999998,"endTime":174.2935015,"isDrum":true},{"pitch":42,"velocity":102,"startTime":174.13045799999998,"endTime":174.2935015,"isDrum":true},{"pitch":51,"velocity":102,"startTime":174.13045799999998,"endTime":174.2935015,"isDrum":true},{"pitch":42,"velocity":102,"startTime":174.45654499999998,"endTime":174.6195885,"isDrum":true},{"pitch":51,"velocity":102,"startTime":174.45654499999998,"endTime":174.6195885,"isDrum":true},{"pitch":35,"velocity":102,"startTime":174.78263199999998,"endTime":174.9456755,"isDrum":true},{"pitch":42,"velocity":102,"startTime":174.78263199999998,"endTime":174.9456755,"isDrum":true},{"pitch":51,"velocity":102,"startTime":174.78263199999998,"endTime":174.9456755,"isDrum":true},{"pitch":42,"velocity":102,"startTime":175.10871899999998,"endTime":175.2717625,"isDrum":true},{"pitch":51,"velocity":102,"startTime":175.10871899999998,"endTime":175.2717625,"isDrum":true},{"pitch":38,"velocity":102,"startTime":175.43480599999998,"endTime":175.5978495,"isDrum":true},{"pitch":40,"velocity":102,"startTime":175.43480599999998,"endTime":175.5978495,"isDrum":true},{"pitch":42,"velocity":102,"startTime":175.43480599999998,"endTime":175.5978495,"isDrum":true},{"pitch":51,"velocity":102,"startTime":175.43480599999998,"endTime":175.5978495,"isDrum":true},{"pitch":42,"velocity":102,"startTime":175.76089299999998,"endTime":175.9239365,"isDrum":true},{"pitch":51,"velocity":102,"startTime":175.76089299999998,"endTime":175.9239365,"isDrum":true},{"pitch":35,"velocity":102,"startTime":176.08697999999998,"endTime":176.2500235,"isDrum":true},{"pitch":42,"velocity":102,"startTime":176.08697999999998,"endTime":176.2500235,"isDrum":true},{"pitch":51,"velocity":102,"startTime":176.08697999999998,"endTime":176.2500235,"isDrum":true},{"pitch":42,"velocity":102,"startTime":176.41306699999998,"endTime":176.5761105,"isDrum":true},{"pitch":51,"velocity":102,"startTime":176.41306699999998,"endTime":176.5761105,"isDrum":true},{"pitch":38,"velocity":102,"startTime":176.73915399999998,"endTime":176.9021975,"isDrum":true},{"pitch":40,"velocity":102,"startTime":176.73915399999998,"endTime":176.9021975,"isDrum":true},{"pitch":42,"velocity":102,"startTime":176.73915399999998,"endTime":176.9021975,"isDrum":true},{"pitch":51,"velocity":102,"startTime":176.73915399999998,"endTime":176.9021975,"isDrum":true},{"pitch":42,"velocity":102,"startTime":177.065241,"endTime":177.22828449999997,"isDrum":true},{"pitch":51,"velocity":102,"startTime":177.065241,"endTime":177.22828449999997,"isDrum":true},{"pitch":35,"velocity":102,"startTime":177.391328,"endTime":177.55437149999997,"isDrum":true},{"pitch":42,"velocity":102,"startTime":177.391328,"endTime":177.55437149999997,"isDrum":true},{"pitch":51,"velocity":102,"startTime":177.391328,"endTime":177.55437149999997,"isDrum":true},{"pitch":42,"velocity":102,"startTime":177.717415,"endTime":177.88045849999997,"isDrum":true},{"pitch":51,"velocity":102,"startTime":177.717415,"endTime":177.88045849999997,"isDrum":true},{"pitch":38,"velocity":102,"startTime":178.043502,"endTime":178.20654549999998,"isDrum":true},{"pitch":40,"velocity":102,"startTime":178.043502,"endTime":178.20654549999998,"isDrum":true},{"pitch":42,"velocity":102,"startTime":178.043502,"endTime":178.20654549999998,"isDrum":true},{"pitch":51,"velocity":102,"startTime":178.043502,"endTime":178.20654549999998,"isDrum":true},{"pitch":42,"velocity":102,"startTime":178.369589,"endTime":178.53263249999998,"isDrum":true},{"pitch":51,"velocity":102,"startTime":178.369589,"endTime":178.53263249999998,"isDrum":true},{"pitch":35,"velocity":102,"startTime":178.695676,"endTime":178.85871949999998,"isDrum":true},{"pitch":42,"velocity":102,"startTime":178.695676,"endTime":178.85871949999998,"isDrum":true},{"pitch":51,"velocity":102,"startTime":178.695676,"endTime":178.85871949999998,"isDrum":true},{"pitch":42,"velocity":102,"startTime":179.021763,"endTime":179.18480649999998,"isDrum":true},{"pitch":51,"velocity":102,"startTime":179.021763,"endTime":179.18480649999998,"isDrum":true},{"pitch":38,"velocity":102,"startTime":179.34785,"endTime":179.51089349999998,"isDrum":true},{"pitch":42,"velocity":102,"startTime":179.34785,"endTime":179.51089349999998,"isDrum":true},{"pitch":51,"velocity":102,"startTime":179.34785,"endTime":179.51089349999998,"isDrum":true},{"pitch":35,"velocity":102,"startTime":179.673937,"endTime":179.83698049999998,"isDrum":true},{"pitch":42,"velocity":102,"startTime":179.673937,"endTime":179.83698049999998,"isDrum":true},{"pitch":51,"velocity":102,"startTime":179.673937,"endTime":179.83698049999998,"isDrum":true},{"pitch":35,"velocity":102,"startTime":180.000024,"endTime":180.16306749999998,"isDrum":true},{"pitch":42,"velocity":102,"startTime":180.000024,"endTime":180.16306749999998,"isDrum":true},{"pitch":51,"velocity":102,"startTime":180.000024,"endTime":180.16306749999998,"isDrum":true},{"pitch":42,"velocity":102,"startTime":180.326111,"endTime":180.48915449999998,"isDrum":true},{"pitch":51,"velocity":102,"startTime":180.326111,"endTime":180.48915449999998,"isDrum":true},{"pitch":38,"velocity":102,"startTime":180.652198,"endTime":180.81524149999998,"isDrum":true},{"pitch":40,"velocity":102,"startTime":180.652198,"endTime":180.81524149999998,"isDrum":true},{"pitch":42,"velocity":102,"startTime":180.652198,"endTime":180.81524149999998,"isDrum":true},{"pitch":51,"velocity":102,"startTime":180.652198,"endTime":180.81524149999998,"isDrum":true},{"pitch":42,"velocity":102,"startTime":180.978285,"endTime":181.1413285,"isDrum":true},{"pitch":51,"velocity":102,"startTime":180.978285,"endTime":181.1413285,"isDrum":true},{"pitch":35,"velocity":102,"startTime":181.30437199999997,"endTime":181.4674155,"isDrum":true},{"pitch":42,"velocity":102,"startTime":181.30437199999997,"endTime":181.4674155,"isDrum":true},{"pitch":51,"velocity":102,"startTime":181.30437199999997,"endTime":181.4674155,"isDrum":true},{"pitch":42,"velocity":102,"startTime":181.63045899999997,"endTime":181.7935025,"isDrum":true},{"pitch":51,"velocity":102,"startTime":181.63045899999997,"endTime":181.7935025,"isDrum":true},{"pitch":38,"velocity":102,"startTime":181.95654599999997,"endTime":182.1195895,"isDrum":true},{"pitch":40,"velocity":102,"startTime":181.95654599999997,"endTime":182.1195895,"isDrum":true},{"pitch":42,"velocity":102,"startTime":181.95654599999997,"endTime":182.1195895,"isDrum":true},{"pitch":51,"velocity":102,"startTime":181.95654599999997,"endTime":182.1195895,"isDrum":true},{"pitch":42,"velocity":102,"startTime":182.28263299999998,"endTime":182.4456765,"isDrum":true},{"pitch":51,"velocity":102,"startTime":182.28263299999998,"endTime":182.4456765,"isDrum":true},{"pitch":35,"velocity":102,"startTime":182.60871999999998,"endTime":182.7717635,"isDrum":true},{"pitch":42,"velocity":102,"startTime":182.60871999999998,"endTime":182.7717635,"isDrum":true},{"pitch":48,"velocity":102,"startTime":182.60871999999998,"endTime":182.7717635,"isDrum":true},{"pitch":42,"velocity":102,"startTime":182.93480699999998,"endTime":183.0978505,"isDrum":true},{"pitch":51,"velocity":102,"startTime":182.93480699999998,"endTime":183.0978505,"isDrum":true},{"pitch":40,"velocity":102,"startTime":183.26089399999998,"endTime":183.4239375,"isDrum":true},{"pitch":42,"velocity":102,"startTime":183.26089399999998,"endTime":183.4239375,"isDrum":true},{"pitch":51,"velocity":102,"startTime":183.26089399999998,"endTime":183.4239375,"isDrum":true},{"pitch":42,"velocity":102,"startTime":183.58698099999998,"endTime":183.7500245,"isDrum":true},{"pitch":51,"velocity":102,"startTime":183.58698099999998,"endTime":183.7500245,"isDrum":true},{"pitch":35,"velocity":102,"startTime":183.91306799999998,"endTime":184.0761115,"isDrum":true},{"pitch":42,"velocity":102,"startTime":183.91306799999998,"endTime":184.0761115,"isDrum":true},{"pitch":51,"velocity":102,"startTime":183.91306799999998,"endTime":184.0761115,"isDrum":true},{"pitch":42,"velocity":102,"startTime":184.23915499999998,"endTime":184.4021985,"isDrum":true},{"pitch":51,"velocity":102,"startTime":184.23915499999998,"endTime":184.4021985,"isDrum":true},{"pitch":38,"velocity":102,"startTime":184.56524199999998,"endTime":184.7282855,"isDrum":true},{"pitch":40,"velocity":102,"startTime":184.56524199999998,"endTime":184.7282855,"isDrum":true},{"pitch":42,"velocity":102,"startTime":184.56524199999998,"endTime":184.7282855,"isDrum":true},{"pitch":51,"velocity":102,"startTime":184.56524199999998,"endTime":184.7282855,"isDrum":true},{"pitch":42,"velocity":102,"startTime":184.89132899999998,"endTime":185.0543725,"isDrum":true},{"pitch":51,"velocity":102,"startTime":184.89132899999998,"endTime":185.0543725,"isDrum":true},{"pitch":35,"velocity":102,"startTime":185.217416,"endTime":185.38045949999997,"isDrum":true},{"pitch":42,"velocity":102,"startTime":185.217416,"endTime":185.38045949999997,"isDrum":true},{"pitch":51,"velocity":102,"startTime":185.217416,"endTime":185.38045949999997,"isDrum":true},{"pitch":42,"velocity":102,"startTime":185.543503,"endTime":185.70654649999997,"isDrum":true},{"pitch":51,"velocity":102,"startTime":185.543503,"endTime":185.70654649999997,"isDrum":true},{"pitch":38,"velocity":102,"startTime":185.86959,"endTime":186.03263349999997,"isDrum":true},{"pitch":40,"velocity":102,"startTime":185.86959,"endTime":186.03263349999997,"isDrum":true},{"pitch":42,"velocity":102,"startTime":185.86959,"endTime":186.03263349999997,"isDrum":true},{"pitch":51,"velocity":102,"startTime":185.86959,"endTime":186.03263349999997,"isDrum":true},{"pitch":42,"velocity":102,"startTime":186.195677,"endTime":186.35872049999998,"isDrum":true},{"pitch":51,"velocity":102,"startTime":186.195677,"endTime":186.35872049999998,"isDrum":true},{"pitch":35,"velocity":102,"startTime":186.521764,"endTime":186.68480749999998,"isDrum":true},{"pitch":42,"velocity":102,"startTime":186.521764,"endTime":186.68480749999998,"isDrum":true},{"pitch":51,"velocity":102,"startTime":186.521764,"endTime":186.68480749999998,"isDrum":true},{"pitch":42,"velocity":102,"startTime":186.847851,"endTime":187.01089449999998,"isDrum":true},{"pitch":51,"velocity":102,"startTime":186.847851,"endTime":187.01089449999998,"isDrum":true},{"pitch":38,"velocity":102,"startTime":187.173938,"endTime":187.33698149999998,"isDrum":true},{"pitch":40,"velocity":102,"startTime":187.173938,"endTime":187.33698149999998,"isDrum":true},{"pitch":42,"velocity":102,"startTime":187.173938,"endTime":187.33698149999998,"isDrum":true},{"pitch":51,"velocity":102,"startTime":187.173938,"endTime":187.33698149999998,"isDrum":true},{"pitch":42,"velocity":102,"startTime":187.500025,"endTime":187.66306849999998,"isDrum":true},{"pitch":51,"velocity":102,"startTime":187.500025,"endTime":187.66306849999998,"isDrum":true},{"pitch":61,"velocity":95,"startTime":166.95654399999998,"endTime":167.06523966666668,"instrument":1,"program":12},{"pitch":69,"velocity":95,"startTime":167.1195875,"endTime":167.22828316666667,"instrument":1,"program":12},{"pitch":67,"velocity":95,"startTime":167.28263099999998,"endTime":167.39132666666669,"instrument":1,"program":12},{"pitch":73,"velocity":95,"startTime":167.4456745,"endTime":167.55437016666667,"instrument":1,"program":12},{"pitch":69,"velocity":95,"startTime":167.60871799999998,"endTime":167.7174136666667,"instrument":1,"program":12},{"pitch":69,"velocity":95,"startTime":167.7717615,"endTime":167.8261093333333,"instrument":1,"program":12},{"pitch":73,"velocity":95,"startTime":167.93480499999998,"endTime":168.0435006666667,"instrument":1,"program":12},{"pitch":69,"velocity":95,"startTime":168.0978485,"endTime":168.20654416666667,"instrument":1,"program":12},{"pitch":61,"velocity":95,"startTime":168.26089199999998,"endTime":168.36958766666666,"instrument":1,"program":12},{"pitch":67,"velocity":95,"startTime":168.4239355,"endTime":168.53263116666668,"instrument":1,"program":12},{"pitch":69,"velocity":95,"startTime":168.58697899999999,"endTime":168.69567466666666,"instrument":1,"program":12},{"pitch":73,"velocity":95,"startTime":168.7500225,"endTime":168.85871816666668,"instrument":1,"program":12},{"pitch":67,"velocity":95,"startTime":168.913066,"endTime":169.02176166666666,"instrument":1,"program":12},{"pitch":69,"velocity":95,"startTime":169.0761095,"endTime":169.18480516666668,"instrument":1,"program":12},{"pitch":67,"velocity":95,"startTime":169.239153,"endTime":169.34784866666666,"instrument":1,"program":12},{"pitch":70,"velocity":95,"startTime":169.40219649999997,"endTime":169.51089216666668,"instrument":1,"program":12},{"pitch":67,"velocity":95,"startTime":169.56524,"endTime":169.67393566666667,"instrument":1,"program":12},{"pitch":67,"velocity":95,"startTime":169.72828349999997,"endTime":169.83697916666668,"instrument":1,"program":12},{"pitch":69,"velocity":95,"startTime":169.891327,"endTime":170.00002266666667,"instrument":1,"program":12},{"pitch":67,"velocity":95,"startTime":170.05437049999998,"endTime":170.16306616666668,"instrument":1,"program":12},{"pitch":69,"velocity":95,"startTime":170.217414,"endTime":170.32610966666667,"instrument":1,"program":12},{"pitch":69,"velocity":95,"startTime":170.38045749999998,"endTime":170.48915316666668,"instrument":1,"program":12},{"pitch":67,"velocity":95,"startTime":170.543501,"endTime":170.65219666666667,"instrument":1,"program":12},{"pitch":67,"velocity":95,"startTime":170.70654449999998,"endTime":170.81524016666668,"instrument":1,"program":12},{"pitch":69,"velocity":95,"startTime":170.869588,"endTime":170.97828366666667,"instrument":1,"program":12},{"pitch":69,"velocity":95,"startTime":171.03263149999998,"endTime":171.14132716666668,"instrument":1,"program":12},{"pitch":67,"velocity":95,"startTime":171.195675,"endTime":171.30437066666667,"instrument":1,"program":12},{"pitch":69,"velocity":95,"startTime":171.35871849999998,"endTime":171.46741416666669,"instrument":1,"program":12},{"pitch":69,"velocity":95,"startTime":171.521762,"endTime":171.63045766666667,"instrument":1,"program":12},{"pitch":67,"velocity":95,"startTime":171.68480549999998,"endTime":171.7935011666667,"instrument":1,"program":12},{"pitch":67,"velocity":95,"startTime":171.847849,"endTime":171.95654466666667,"instrument":1,"program":12},{"pitch":69,"velocity":95,"startTime":172.01089249999998,"endTime":172.11958816666666,"instrument":1,"program":12},{"pitch":62,"velocity":95,"startTime":172.173936,"endTime":172.28263166666667,"instrument":1,"program":12},{"pitch":65,"velocity":95,"startTime":172.33697949999998,"endTime":172.44567516666666,"instrument":1,"program":12},{"pitch":67,"velocity":95,"startTime":172.500023,"endTime":172.60871866666668,"instrument":1,"program":12},{"pitch":65,"velocity":95,"startTime":172.66306649999999,"endTime":172.77176216666666,"instrument":1,"program":12},{"pitch":74,"velocity":95,"startTime":172.82611,"endTime":172.93480566666668,"instrument":1,"program":12},{"pitch":67,"velocity":95,"startTime":172.9891535,"endTime":173.09784916666666,"instrument":1,"program":12},{"pitch":65,"velocity":95,"startTime":173.152197,"endTime":173.26089266666668,"instrument":1,"program":12},{"pitch":74,"velocity":95,"startTime":173.3152405,"endTime":173.42393616666666,"instrument":1,"program":12},{"pitch":65,"velocity":95,"startTime":173.47828399999997,"endTime":173.58697966666668,"instrument":1,"program":12},{"pitch":67,"velocity":95,"startTime":173.6413275,"endTime":173.75002316666667,"instrument":1,"program":12},{"pitch":70,"velocity":95,"startTime":173.80437099999997,"endTime":173.91306666666668,"instrument":1,"program":12},{"pitch":65,"velocity":95,"startTime":173.9674145,"endTime":174.07611016666667,"instrument":1,"program":12},{"pitch":74,"velocity":95,"startTime":174.13045799999998,"endTime":174.23915366666668,"instrument":1,"program":12},{"pitch":67,"velocity":95,"startTime":174.2935015,"endTime":174.3478493333333,"instrument":1,"program":12},{"pitch":65,"velocity":95,"startTime":174.45654499999998,"endTime":174.56524066666668,"instrument":1,"program":12},{"pitch":67,"velocity":95,"startTime":174.6195885,"endTime":174.72828416666667,"instrument":1,"program":12},{"pitch":62,"velocity":95,"startTime":174.78263199999998,"endTime":174.89132766666668,"instrument":1,"program":12},{"pitch":69,"velocity":95,"startTime":174.9456755,"endTime":175.05437116666667,"instrument":1,"program":12},{"pitch":69,"velocity":95,"startTime":175.10871899999998,"endTime":175.21741466666668,"instrument":1,"program":12},{"pitch":69,"velocity":95,"startTime":175.2717625,"endTime":175.38045816666667,"instrument":1,"program":12},{"pitch":74,"velocity":95,"startTime":175.43480599999998,"endTime":175.54350166666669,"instrument":1,"program":12},{"pitch":69,"velocity":95,"startTime":175.5978495,"endTime":175.70654516666667,"instrument":1,"program":12},{"pitch":69,"velocity":95,"startTime":175.76089299999998,"endTime":175.8695886666667,"instrument":1,"program":12},{"pitch":69,"velocity":95,"startTime":175.9239365,"endTime":176.03263216666667,"instrument":1,"program":12},{"pitch":69,"velocity":95,"startTime":176.08697999999998,"endTime":176.19567566666666,"instrument":1,"program":12},{"pitch":69,"velocity":95,"startTime":176.2500235,"endTime":176.35871916666667,"instrument":1,"program":12},{"pitch":74,"velocity":95,"startTime":176.41306699999998,"endTime":176.52176266666666,"instrument":1,"program":12},{"pitch":69,"velocity":95,"startTime":176.5761105,"endTime":176.68480616666668,"instrument":1,"program":12},{"pitch":72,"velocity":95,"startTime":176.73915399999998,"endTime":176.84784966666666,"instrument":1,"program":12},{"pitch":69,"velocity":95,"startTime":176.9021975,"endTime":177.01089316666668,"instrument":1,"program":12},{"pitch":69,"velocity":95,"startTime":177.065241,"endTime":177.17393666666666,"instrument":1,"program":12},{"pitch":69,"velocity":95,"startTime":177.22828449999997,"endTime":177.2826323333333,"instrument":1,"program":12},{"pitch":67,"velocity":95,"startTime":177.391328,"endTime":177.50002366666666,"instrument":1,"program":12},{"pitch":69,"velocity":95,"startTime":177.55437149999997,"endTime":177.66306716666668,"instrument":1,"program":12},{"pitch":74,"velocity":95,"startTime":177.717415,"endTime":177.82611066666666,"instrument":1,"program":12},{"pitch":69,"velocity":95,"startTime":177.88045849999997,"endTime":177.98915416666668,"instrument":1,"program":12},{"pitch":69,"velocity":95,"startTime":178.043502,"endTime":178.15219766666667,"instrument":1,"program":12},{"pitch":74,"velocity":95,"startTime":178.20654549999998,"endTime":178.31524116666665,"instrument":1,"program":12},{"pitch":69,"velocity":95,"startTime":178.369589,"endTime":178.47828466666667,"instrument":1,"program":12},{"pitch":69,"velocity":95,"startTime":178.53263249999998,"endTime":178.64132816666665,"instrument":1,"program":12},{"pitch":74,"velocity":95,"startTime":178.695676,"endTime":178.80437166666664,"instrument":1,"program":12},{"pitch":69,"velocity":95,"startTime":178.85871949999998,"endTime":178.96741516666665,"instrument":1,"program":12},{"pitch":74,"velocity":95,"startTime":179.021763,"endTime":179.13045866666664,"instrument":1,"program":12},{"pitch":69,"velocity":95,"startTime":179.18480649999998,"endTime":179.29350216666666,"instrument":1,"program":12},{"pitch":67,"velocity":95,"startTime":179.34785,"endTime":179.45654566666664,"instrument":1,"program":12},{"pitch":69,"velocity":95,"startTime":179.51089349999998,"endTime":179.61958916666666,"instrument":1,"program":12},{"pitch":67,"velocity":95,"startTime":179.673937,"endTime":179.78263266666664,"instrument":1,"program":12},{"pitch":69,"velocity":95,"startTime":179.83698049999998,"endTime":179.94567616666666,"instrument":1,"program":12},{"pitch":66,"velocity":95,"startTime":180.000024,"endTime":180.10871966666664,"instrument":1,"program":12},{"pitch":69,"velocity":95,"startTime":180.16306749999998,"endTime":180.27176316666666,"instrument":1,"program":12},{"pitch":72,"velocity":95,"startTime":180.326111,"endTime":180.43480666666665,"instrument":1,"program":12},{"pitch":69,"velocity":95,"startTime":180.48915449999998,"endTime":180.59785016666666,"instrument":1,"program":12},{"pitch":72,"velocity":95,"startTime":180.652198,"endTime":180.76089366666665,"instrument":1,"program":12},{"pitch":69,"velocity":95,"startTime":180.81524149999998,"endTime":180.92393716666666,"instrument":1,"program":12},{"pitch":69,"velocity":95,"startTime":180.978285,"endTime":181.08698066666665,"instrument":1,"program":12},{"pitch":72,"velocity":95,"startTime":181.1413285,"endTime":181.25002416666666,"instrument":1,"program":12},{"pitch":72,"velocity":95,"startTime":181.30437199999997,"endTime":181.41306766666665,"instrument":1,"program":12},{"pitch":69,"velocity":95,"startTime":181.4674155,"endTime":181.57611116666666,"instrument":1,"program":12},{"pitch":72,"velocity":95,"startTime":181.63045899999997,"endTime":181.73915466666665,"instrument":1,"program":12},{"pitch":72,"velocity":95,"startTime":181.7935025,"endTime":181.95654599999997,"instrument":1,"program":12},{"pitch":69,"velocity":95,"startTime":181.95654599999997,"endTime":182.06524166666665,"instrument":1,"program":12},{"pitch":72,"velocity":95,"startTime":182.1195895,"endTime":182.22828516666667,"instrument":1,"program":12},{"pitch":69,"velocity":95,"startTime":182.28263299999998,"endTime":182.39132866666665,"instrument":1,"program":12},{"pitch":72,"velocity":95,"startTime":182.4456765,"endTime":182.55437216666667,"instrument":1,"program":12},{"pitch":67,"velocity":95,"startTime":182.60871999999998,"endTime":182.71741566666665,"instrument":1,"program":12},{"pitch":70,"velocity":95,"startTime":182.7717635,"endTime":182.88045916666664,"instrument":1,"program":12},{"pitch":65,"velocity":95,"startTime":182.93480699999998,"endTime":183.04350266666665,"instrument":1,"program":12},{"pitch":65,"velocity":95,"startTime":183.0978505,"endTime":183.20654616666664,"instrument":1,"program":12},{"pitch":70,"velocity":95,"startTime":183.26089399999998,"endTime":183.36958966666666,"instrument":1,"program":12},{"pitch":65,"velocity":95,"startTime":183.4239375,"endTime":183.53263316666664,"instrument":1,"program":12},{"pitch":65,"velocity":95,"startTime":183.58698099999998,"endTime":183.69567666666666,"instrument":1,"program":12},{"pitch":65,"velocity":95,"startTime":183.7500245,"endTime":183.85872016666664,"instrument":1,"program":12},{"pitch":70,"velocity":95,"startTime":183.91306799999998,"endTime":184.02176366666666,"instrument":1,"program":12},{"pitch":65,"velocity":95,"startTime":184.0761115,"endTime":184.18480716666664,"instrument":1,"program":12},{"pitch":70,"velocity":95,"startTime":184.23915499999998,"endTime":184.34785066666666,"instrument":1,"program":12},{"pitch":65,"velocity":95,"startTime":184.4021985,"endTime":184.51089416666665,"instrument":1,"program":12},{"pitch":70,"velocity":95,"startTime":184.56524199999998,"endTime":184.67393766666666,"instrument":1,"program":12},{"pitch":70,"velocity":95,"startTime":184.7282855,"endTime":184.83698116666665,"instrument":1,"program":12},{"pitch":65,"velocity":95,"startTime":184.89132899999998,"endTime":185.00002466666666,"instrument":1,"program":12},{"pitch":70,"velocity":95,"startTime":185.0543725,"endTime":185.16306816666665,"instrument":1,"program":12},{"pitch":62,"velocity":95,"startTime":185.217416,"endTime":185.32611166666666,"instrument":1,"program":12},{"pitch":65,"velocity":95,"startTime":185.38045949999997,"endTime":185.48915516666665,"instrument":1,"program":12},{"pitch":69,"velocity":95,"startTime":185.543503,"endTime":185.65219866666666,"instrument":1,"program":12},{"pitch":74,"velocity":95,"startTime":185.70654649999997,"endTime":185.81524216666665,"instrument":1,"program":12},{"pitch":77,"velocity":95,"startTime":185.86959,"endTime":185.97828566666666,"instrument":1,"program":12},{"pitch":65,"velocity":95,"startTime":186.03263349999997,"endTime":186.14132916666665,"instrument":1,"program":12},{"pitch":69,"velocity":95,"startTime":186.195677,"endTime":186.30437266666667,"instrument":1,"program":12},{"pitch":74,"velocity":95,"startTime":186.35872049999998,"endTime":186.46741616666665,"instrument":1,"program":12},{"pitch":65,"velocity":95,"startTime":186.521764,"endTime":186.63045966666664,"instrument":1,"program":12},{"pitch":69,"velocity":95,"startTime":186.68480749999998,"endTime":186.79350316666665,"instrument":1,"program":12},{"pitch":74,"velocity":95,"startTime":186.847851,"endTime":186.95654666666664,"instrument":1,"program":12},{"pitch":77,"velocity":95,"startTime":187.01089449999998,"endTime":187.11959016666665,"instrument":1,"program":12},{"pitch":74,"velocity":95,"startTime":187.173938,"endTime":187.28263366666664,"instrument":1,"program":12},{"pitch":74,"velocity":95,"startTime":187.33698149999998,"endTime":187.44567716666666,"instrument":1,"program":12},{"pitch":65,"velocity":95,"startTime":187.500025,"endTime":187.60872066666664,"instrument":1,"program":12},{"pitch":69,"velocity":95,"startTime":187.66306849999998,"endTime":187.77176416666666,"instrument":1,"program":12},{"pitch":43,"velocity":110,"startTime":166.95654399999998,"endTime":167.28263099999998,"instrument":2,"program":32},{"pitch":43,"velocity":110,"startTime":167.4456745,"endTime":167.60871799999998,"instrument":2,"program":32},{"pitch":31,"velocity":110,"startTime":167.7717615,"endTime":167.93480499999998,"instrument":2,"program":32},{"pitch":29,"velocity":110,"startTime":167.93480499999998,"endTime":168.0978485,"instrument":2,"program":32},{"pitch":34,"velocity":110,"startTime":168.26089199999998,"endTime":168.4239355,"instrument":2,"program":32},{"pitch":34,"velocity":110,"startTime":168.58697899999999,"endTime":168.7500225,"instrument":2,"program":32},{"pitch":29,"velocity":110,"startTime":168.913066,"endTime":169.0761095,"instrument":2,"program":32},{"pitch":46,"velocity":110,"startTime":169.239153,"endTime":169.40219649999997,"instrument":2,"program":32},{"pitch":43,"velocity":110,"startTime":169.56524,"endTime":169.891327,"instrument":2,"program":32},{"pitch":43,"velocity":110,"startTime":170.05437049999998,"endTime":170.217414,"instrument":2,"program":32},{"pitch":43,"velocity":110,"startTime":170.38045749999998,"endTime":170.48915316666668,"instrument":2,"program":32},{"pitch":38,"velocity":110,"startTime":170.543501,"endTime":170.70654449999998,"instrument":2,"program":32},{"pitch":38,"velocity":110,"startTime":170.869588,"endTime":171.195675,"instrument":2,"program":32},{"pitch":31,"velocity":110,"startTime":171.521762,"endTime":171.7935011666667,"instrument":2,"program":32},{"pitch":38,"velocity":110,"startTime":171.847849,"endTime":172.01089249999998,"instrument":2,"program":32},{"pitch":39,"velocity":110,"startTime":172.173936,"endTime":172.500023,"instrument":2,"program":32},{"pitch":27,"velocity":110,"startTime":172.66306649999999,"endTime":172.82611,"instrument":2,"program":32},{"pitch":27,"velocity":110,"startTime":172.9891535,"endTime":173.152197,"instrument":2,"program":32},{"pitch":36,"velocity":110,"startTime":173.152197,"endTime":173.75002316666667,"instrument":2,"program":32},{"pitch":38,"velocity":110,"startTime":173.80437099999997,"endTime":173.9674145,"instrument":2,"program":32},{"pitch":29,"velocity":110,"startTime":174.13045799999998,"endTime":174.2935015,"instrument":2,"program":32},{"pitch":33,"velocity":110,"startTime":174.45654499999998,"endTime":174.6195885,"instrument":2,"program":32},{"pitch":38,"velocity":110,"startTime":174.78263199999998,"endTime":175.10871899999998,"instrument":2,"program":32},{"pitch":50,"velocity":110,"startTime":175.2717625,"endTime":175.43480599999998,"instrument":2,"program":32},{"pitch":50,"velocity":110,"startTime":175.5978495,"endTime":175.76089299999998,"instrument":2,"program":32},{"pitch":38,"velocity":110,"startTime":175.76089299999998,"endTime":175.9239365,"instrument":2,"program":32},{"pitch":33,"velocity":110,"startTime":176.08697999999998,"endTime":176.41306699999998,"instrument":2,"program":32},{"pitch":43,"velocity":110,"startTime":176.73915399999998,"endTime":176.84784966666666,"instrument":2,"program":32},{"pitch":43,"velocity":110,"startTime":176.9021975,"endTime":177.01089316666668,"instrument":2,"program":32},{"pitch":38,"velocity":110,"startTime":177.22828449999997,"endTime":177.33698016666668,"instrument":2,"program":32},{"pitch":42,"velocity":110,"startTime":177.391328,"endTime":177.717415,"instrument":2,"program":32},{"pitch":31,"velocity":110,"startTime":178.043502,"endTime":178.20654549999998,"instrument":2,"program":32},{"pitch":43,"velocity":110,"startTime":178.369589,"endTime":178.53263249999998,"instrument":2,"program":32},{"pitch":43,"velocity":110,"startTime":178.695676,"endTime":178.85871949999998,"instrument":2,"program":32},{"pitch":31,"velocity":110,"startTime":179.021763,"endTime":179.18480649999998,"instrument":2,"program":32},{"pitch":34,"velocity":110,"startTime":179.34785,"endTime":179.51089349999998,"instrument":2,"program":32},{"pitch":37,"velocity":110,"startTime":179.673937,"endTime":179.83698049999998,"instrument":2,"program":32},{"pitch":36,"velocity":110,"startTime":180.000024,"endTime":180.54350233333332,"instrument":2,"program":32},{"pitch":31,"velocity":110,"startTime":180.652198,"endTime":180.81524149999998,"instrument":2,"program":32},{"pitch":31,"velocity":110,"startTime":180.978285,"endTime":181.1413285,"instrument":2,"program":32},{"pitch":36,"velocity":110,"startTime":181.30437199999997,"endTime":181.63045899999997,"instrument":2,"program":32},{"pitch":36,"velocity":110,"startTime":181.7935025,"endTime":181.95654599999997,"instrument":2,"program":32},{"pitch":43,"velocity":110,"startTime":182.1195895,"endTime":182.28263299999998,"instrument":2,"program":32},{"pitch":31,"velocity":110,"startTime":182.28263299999998,"endTime":182.4456765,"instrument":2,"program":32},{"pitch":39,"velocity":110,"startTime":182.60871999999998,"endTime":182.93480699999998,"instrument":2,"program":32},{"pitch":39,"velocity":110,"startTime":183.0978505,"endTime":183.26089399999998,"instrument":2,"program":32},{"pitch":39,"velocity":110,"startTime":183.4239375,"endTime":183.58698099999998,"instrument":2,"program":32},{"pitch":41,"velocity":110,"startTime":183.58698099999998,"endTime":183.7500245,"instrument":2,"program":32},{"pitch":31,"velocity":110,"startTime":183.91306799999998,"endTime":184.0761115,"instrument":2,"program":32},{"pitch":31,"velocity":110,"startTime":184.23915499999998,"endTime":184.4021985,"instrument":2,"program":32},{"pitch":34,"velocity":110,"startTime":184.56524199999998,"endTime":184.7282855,"instrument":2,"program":32},{"pitch":38,"velocity":110,"startTime":184.89132899999998,"endTime":185.0543725,"instrument":2,"program":32},{"pitch":38,"velocity":110,"startTime":185.217416,"endTime":185.543503,"instrument":2,"program":32},{"pitch":38,"velocity":110,"startTime":185.86959,"endTime":186.03263349999997,"instrument":2,"program":32},{"pitch":38,"velocity":110,"startTime":186.195677,"endTime":186.35872049999998,"instrument":2,"program":32},{"pitch":38,"velocity":110,"startTime":186.521764,"endTime":186.68480749999998,"instrument":2,"program":32},{"pitch":43,"velocity":110,"startTime":186.847851,"endTime":187.01089449999998,"instrument":2,"program":32},{"pitch":43,"velocity":110,"startTime":187.173938,"endTime":187.33698149999998,"instrument":2,"program":32},{"pitch":38,"velocity":110,"startTime":187.500025,"endTime":187.66306849999998,"instrument":2,"program":32},{"pitch":59,"velocity":105,"startTime":166.95654399999998,"endTime":169.34784866666666,"instrument":3,"program":50},{"pitch":64,"velocity":105,"startTime":166.95654399999998,"endTime":167.93480499999998,"instrument":3,"program":50},{"pitch":67,"velocity":105,"startTime":166.95654399999998,"endTime":169.34784866666666,"instrument":3,"program":50},{"pitch":74,"velocity":105,"startTime":166.95654399999998,"endTime":169.34784866666666,"instrument":3,"program":50},{"pitch":60,"velocity":105,"startTime":167.93480499999998,"endTime":167.9891528333333,"instrument":3,"program":50},{"pitch":63,"velocity":105,"startTime":168.26089199999998,"endTime":168.69567466666666,"instrument":3,"program":50},{"pitch":64,"velocity":105,"startTime":168.913066,"endTime":169.34784866666666,"instrument":3,"program":50},{"pitch":57,"velocity":105,"startTime":169.40219649999997,"endTime":171.7391533333333,"instrument":3,"program":50},{"pitch":60,"velocity":105,"startTime":169.40219649999997,"endTime":171.7391533333333,"instrument":3,"program":50},{"pitch":66,"velocity":105,"startTime":169.40219649999997,"endTime":171.7391533333333,"instrument":3,"program":50},{"pitch":69,"velocity":105,"startTime":169.40219649999997,"endTime":171.7391533333333,"instrument":3,"program":50},{"pitch":55,"velocity":105,"startTime":172.173936,"endTime":174.13045799999998,"instrument":3,"program":50},{"pitch":58,"velocity":105,"startTime":172.173936,"endTime":174.13045799999998,"instrument":3,"program":50},{"pitch":63,"velocity":105,"startTime":172.173936,"endTime":173.47828399999997,"instrument":3,"program":50},{"pitch":67,"velocity":105,"startTime":172.173936,"endTime":174.13045799999998,"instrument":3,"program":50},{"pitch":61,"velocity":105,"startTime":173.47828399999997,"endTime":174.0217623333333,"instrument":3,"program":50},{"pitch":63,"velocity":105,"startTime":173.9674145,"endTime":174.13045799999998,"instrument":3,"program":50},{"pitch":60,"velocity":105,"startTime":174.13045799999998,"endTime":174.78263199999998,"instrument":3,"program":50},{"pitch":63,"velocity":105,"startTime":174.13045799999998,"endTime":174.78263199999998,"instrument":3,"program":50},{"pitch":65,"velocity":105,"startTime":174.13045799999998,"endTime":174.78263199999998,"instrument":3,"program":50},{"pitch":67,"velocity":105,"startTime":174.13045799999998,"endTime":174.78263199999998,"instrument":3,"program":50},{"pitch":58,"velocity":105,"startTime":174.78263199999998,"endTime":177.391328,"instrument":3,"program":50},{"pitch":60,"velocity":105,"startTime":174.78263199999998,"endTime":177.391328,"instrument":3,"program":50},{"pitch":63,"velocity":105,"startTime":174.78263199999998,"endTime":177.391328,"instrument":3,"program":50},{"pitch":66,"velocity":105,"startTime":174.78263199999998,"endTime":177.391328,"instrument":3,"program":50},{"pitch":57,"velocity":105,"startTime":177.391328,"endTime":178.96741516666665,"instrument":3,"program":50},{"pitch":60,"velocity":105,"startTime":177.391328,"endTime":179.34785,"instrument":3,"program":50},{"pitch":65,"velocity":105,"startTime":177.391328,"endTime":179.34785,"instrument":3,"program":50},{"pitch":69,"velocity":105,"startTime":177.391328,"endTime":179.34785,"instrument":3,"program":50},{"pitch":57,"velocity":105,"startTime":179.021763,"endTime":179.34785,"instrument":3,"program":50},{"pitch":58,"velocity":105,"startTime":179.34785,"endTime":180.000024,"instrument":3,"program":50},{"pitch":60,"velocity":105,"startTime":179.34785,"endTime":180.000024,"instrument":3,"program":50},{"pitch":65,"velocity":105,"startTime":179.34785,"endTime":180.000024,"instrument":3,"program":50},{"pitch":58,"velocity":105,"startTime":180.000024,"endTime":182.60871999999998,"instrument":3,"program":50},{"pitch":60,"velocity":105,"startTime":180.000024,"endTime":182.60871999999998,"instrument":3,"program":50},{"pitch":65,"velocity":105,"startTime":180.000024,"endTime":182.60871999999998,"instrument":3,"program":50},{"pitch":67,"velocity":105,"startTime":180.000024,"endTime":182.60871999999998,"instrument":3,"program":50},{"pitch":60,"velocity":105,"startTime":182.60871999999998,"endTime":185.217416,"instrument":3,"program":50},{"pitch":63,"velocity":105,"startTime":182.60871999999998,"endTime":185.217416,"instrument":3,"program":50},{"pitch":65,"velocity":105,"startTime":182.60871999999998,"endTime":185.217416,"instrument":3,"program":50},{"pitch":70,"velocity":105,"startTime":182.60871999999998,"endTime":185.217416,"instrument":3,"program":50},{"pitch":56,"velocity":105,"startTime":185.217416,"endTime":185.38045949999997,"instrument":3,"program":50},{"pitch":62,"velocity":105,"startTime":185.217416,"endTime":185.38045949999997,"instrument":3,"program":50},{"pitch":69,"velocity":105,"startTime":185.217416,"endTime":185.38045949999997,"instrument":3,"program":50},{"pitch":74,"velocity":105,"startTime":185.217416,"endTime":185.38045949999997,"instrument":3,"program":50},{"pitch":35,"velocity":102,"startTime":187.826112,"endTime":187.98915549999998,"isDrum":true},{"pitch":42,"velocity":102,"startTime":187.826112,"endTime":187.98915549999998,"isDrum":true},{"pitch":51,"velocity":102,"startTime":187.826112,"endTime":187.98915549999998,"isDrum":true},{"pitch":42,"velocity":102,"startTime":188.152199,"endTime":188.31524249999998,"isDrum":true},{"pitch":40,"velocity":102,"startTime":188.478286,"endTime":188.64132949999998,"isDrum":true},{"pitch":42,"velocity":102,"startTime":188.478286,"endTime":188.64132949999998,"isDrum":true},{"pitch":51,"velocity":102,"startTime":188.478286,"endTime":188.64132949999998,"isDrum":true},{"pitch":42,"velocity":102,"startTime":188.804373,"endTime":188.96741649999998,"isDrum":true},{"pitch":35,"velocity":102,"startTime":189.13046,"endTime":189.29350349999999,"isDrum":true},{"pitch":42,"velocity":102,"startTime":189.13046,"endTime":189.29350349999999,"isDrum":true},{"pitch":51,"velocity":102,"startTime":189.13046,"endTime":189.29350349999999,"isDrum":true},{"pitch":42,"velocity":102,"startTime":189.45654699999997,"endTime":189.6195905,"isDrum":true},{"pitch":40,"velocity":102,"startTime":189.78263399999997,"endTime":189.9456775,"isDrum":true},{"pitch":42,"velocity":102,"startTime":189.78263399999997,"endTime":189.9456775,"isDrum":true},{"pitch":51,"velocity":102,"startTime":189.78263399999997,"endTime":189.9456775,"isDrum":true},{"pitch":42,"velocity":102,"startTime":190.10872099999997,"endTime":190.2717645,"isDrum":true},{"pitch":35,"velocity":102,"startTime":190.43480799999998,"endTime":190.5978515,"isDrum":true},{"pitch":42,"velocity":102,"startTime":190.43480799999998,"endTime":190.5978515,"isDrum":true},{"pitch":51,"velocity":102,"startTime":190.43480799999998,"endTime":190.5978515,"isDrum":true},{"pitch":42,"velocity":102,"startTime":190.76089499999998,"endTime":190.9239385,"isDrum":true},{"pitch":40,"velocity":102,"startTime":191.08698199999998,"endTime":191.2500255,"isDrum":true},{"pitch":42,"velocity":102,"startTime":191.08698199999998,"endTime":191.2500255,"isDrum":true},{"pitch":51,"velocity":102,"startTime":191.08698199999998,"endTime":191.2500255,"isDrum":true},{"pitch":42,"velocity":102,"startTime":191.41306899999998,"endTime":191.5761125,"isDrum":true},{"pitch":35,"velocity":102,"startTime":191.73915599999998,"endTime":191.9021995,"isDrum":true},{"pitch":42,"velocity":102,"startTime":191.73915599999998,"endTime":191.9021995,"isDrum":true},{"pitch":51,"velocity":102,"startTime":191.73915599999998,"endTime":191.9021995,"isDrum":true},{"pitch":42,"velocity":102,"startTime":192.06524299999998,"endTime":192.2282865,"isDrum":true},{"pitch":40,"velocity":102,"startTime":192.39132999999998,"endTime":192.5543735,"isDrum":true},{"pitch":42,"velocity":102,"startTime":192.39132999999998,"endTime":192.5543735,"isDrum":true},{"pitch":51,"velocity":102,"startTime":192.39132999999998,"endTime":192.5543735,"isDrum":true},{"pitch":42,"velocity":102,"startTime":192.71741699999998,"endTime":192.8804605,"isDrum":true},{"pitch":35,"velocity":102,"startTime":193.04350399999998,"endTime":193.2065475,"isDrum":true},{"pitch":42,"velocity":102,"startTime":193.04350399999998,"endTime":193.2065475,"isDrum":true},{"pitch":51,"velocity":102,"startTime":193.04350399999998,"endTime":193.2065475,"isDrum":true},{"pitch":42,"velocity":102,"startTime":193.36959099999999,"endTime":193.53263449999997,"isDrum":true},{"pitch":40,"velocity":102,"startTime":193.695678,"endTime":193.85872149999997,"isDrum":true},{"pitch":42,"velocity":102,"startTime":193.695678,"endTime":193.85872149999997,"isDrum":true},{"pitch":51,"velocity":102,"startTime":193.695678,"endTime":193.85872149999997,"isDrum":true},{"pitch":42,"velocity":102,"startTime":194.021765,"endTime":194.18480849999997,"isDrum":true},{"pitch":35,"velocity":102,"startTime":194.347852,"endTime":194.51089549999998,"isDrum":true},{"pitch":42,"velocity":102,"startTime":194.347852,"endTime":194.51089549999998,"isDrum":true},{"pitch":51,"velocity":102,"startTime":194.347852,"endTime":194.51089549999998,"isDrum":true},{"pitch":42,"velocity":102,"startTime":194.673939,"endTime":194.83698249999998,"isDrum":true},{"pitch":40,"velocity":102,"startTime":195.000026,"endTime":195.16306949999998,"isDrum":true},{"pitch":42,"velocity":102,"startTime":195.000026,"endTime":195.16306949999998,"isDrum":true},{"pitch":51,"velocity":102,"startTime":195.000026,"endTime":195.16306949999998,"isDrum":true},{"pitch":42,"velocity":102,"startTime":195.326113,"endTime":195.48915649999998,"isDrum":true},{"pitch":35,"velocity":102,"startTime":195.6522,"endTime":195.81524349999998,"isDrum":true},{"pitch":42,"velocity":102,"startTime":195.6522,"endTime":195.81524349999998,"isDrum":true},{"pitch":51,"velocity":102,"startTime":195.6522,"endTime":195.81524349999998,"isDrum":true},{"pitch":42,"velocity":102,"startTime":195.978287,"endTime":196.14133049999998,"isDrum":true},{"pitch":40,"velocity":102,"startTime":196.304374,"endTime":196.46741749999998,"isDrum":true},{"pitch":42,"velocity":102,"startTime":196.304374,"endTime":196.46741749999998,"isDrum":true},{"pitch":51,"velocity":102,"startTime":196.304374,"endTime":196.46741749999998,"isDrum":true},{"pitch":42,"velocity":102,"startTime":196.630461,"endTime":196.79350449999998,"isDrum":true},{"pitch":35,"velocity":102,"startTime":196.956548,"endTime":197.11959149999998,"isDrum":true},{"pitch":42,"velocity":102,"startTime":196.956548,"endTime":197.11959149999998,"isDrum":true},{"pitch":51,"velocity":102,"startTime":196.956548,"endTime":197.11959149999998,"isDrum":true},{"pitch":35,"velocity":102,"startTime":197.282635,"endTime":197.44567849999999,"isDrum":true},{"pitch":42,"velocity":102,"startTime":197.282635,"endTime":197.44567849999999,"isDrum":true},{"pitch":40,"velocity":102,"startTime":197.60872199999997,"endTime":197.7717655,"isDrum":true},{"pitch":42,"velocity":102,"startTime":197.60872199999997,"endTime":197.7717655,"isDrum":true},{"pitch":51,"velocity":102,"startTime":197.60872199999997,"endTime":197.7717655,"isDrum":true},{"pitch":42,"velocity":102,"startTime":197.93480899999997,"endTime":198.0978525,"isDrum":true},{"pitch":35,"velocity":102,"startTime":198.26089599999997,"endTime":198.4239395,"isDrum":true},{"pitch":42,"velocity":102,"startTime":198.26089599999997,"endTime":198.4239395,"isDrum":true},{"pitch":51,"velocity":102,"startTime":198.26089599999997,"endTime":198.4239395,"isDrum":true},{"pitch":42,"velocity":102,"startTime":198.58698299999998,"endTime":198.7500265,"isDrum":true},{"pitch":40,"velocity":102,"startTime":198.91306999999998,"endTime":199.0761135,"isDrum":true},{"pitch":42,"velocity":102,"startTime":198.91306999999998,"endTime":199.0761135,"isDrum":true},{"pitch":51,"velocity":102,"startTime":198.91306999999998,"endTime":199.0761135,"isDrum":true},{"pitch":42,"velocity":102,"startTime":199.23915699999998,"endTime":199.4022005,"isDrum":true},{"pitch":35,"velocity":102,"startTime":199.56524399999998,"endTime":199.7282875,"isDrum":true},{"pitch":42,"velocity":102,"startTime":199.56524399999998,"endTime":199.7282875,"isDrum":true},{"pitch":51,"velocity":102,"startTime":199.56524399999998,"endTime":199.7282875,"isDrum":true},{"pitch":35,"velocity":102,"startTime":199.89133099999998,"endTime":200.0543745,"isDrum":true},{"pitch":42,"velocity":102,"startTime":199.89133099999998,"endTime":200.0543745,"isDrum":true},{"pitch":40,"velocity":102,"startTime":200.21741799999998,"endTime":200.3804615,"isDrum":true},{"pitch":42,"velocity":102,"startTime":200.21741799999998,"endTime":200.3804615,"isDrum":true},{"pitch":51,"velocity":102,"startTime":200.21741799999998,"endTime":200.3804615,"isDrum":true},{"pitch":42,"velocity":102,"startTime":200.54350499999998,"endTime":200.7065485,"isDrum":true},{"pitch":35,"velocity":102,"startTime":200.86959199999998,"endTime":201.0326355,"isDrum":true},{"pitch":42,"velocity":102,"startTime":200.86959199999998,"endTime":201.0326355,"isDrum":true},{"pitch":51,"velocity":102,"startTime":200.86959199999998,"endTime":201.0326355,"isDrum":true},{"pitch":42,"velocity":102,"startTime":201.19567899999998,"endTime":201.3587225,"isDrum":true},{"pitch":40,"velocity":102,"startTime":201.52176599999999,"endTime":201.68480949999997,"isDrum":true},{"pitch":42,"velocity":102,"startTime":201.52176599999999,"endTime":201.68480949999997,"isDrum":true},{"pitch":51,"velocity":102,"startTime":201.52176599999999,"endTime":201.68480949999997,"isDrum":true},{"pitch":42,"velocity":102,"startTime":201.847853,"endTime":202.01089649999997,"isDrum":true},{"pitch":35,"velocity":102,"startTime":202.17394,"endTime":202.33698349999997,"isDrum":true},{"pitch":42,"velocity":102,"startTime":202.17394,"endTime":202.33698349999997,"isDrum":true},{"pitch":51,"velocity":102,"startTime":202.17394,"endTime":202.33698349999997,"isDrum":true},{"pitch":35,"velocity":102,"startTime":202.500027,"endTime":202.66307049999998,"isDrum":true},{"pitch":42,"velocity":102,"startTime":202.500027,"endTime":202.66307049999998,"isDrum":true},{"pitch":40,"velocity":102,"startTime":202.826114,"endTime":202.98915749999998,"isDrum":true},{"pitch":42,"velocity":102,"startTime":202.826114,"endTime":202.98915749999998,"isDrum":true},{"pitch":51,"velocity":102,"startTime":202.826114,"endTime":202.98915749999998,"isDrum":true},{"pitch":42,"velocity":102,"startTime":203.152201,"endTime":203.31524449999998,"isDrum":true},{"pitch":35,"velocity":102,"startTime":203.478288,"endTime":203.64133149999998,"isDrum":true},{"pitch":42,"velocity":102,"startTime":203.478288,"endTime":203.64133149999998,"isDrum":true},{"pitch":51,"velocity":102,"startTime":203.478288,"endTime":203.64133149999998,"isDrum":true},{"pitch":42,"velocity":102,"startTime":203.804375,"endTime":203.96741849999998,"isDrum":true},{"pitch":40,"velocity":102,"startTime":204.130462,"endTime":204.29350549999998,"isDrum":true},{"pitch":42,"velocity":102,"startTime":204.130462,"endTime":204.29350549999998,"isDrum":true},{"pitch":51,"velocity":102,"startTime":204.130462,"endTime":204.29350549999998,"isDrum":true},{"pitch":42,"velocity":102,"startTime":204.456549,"endTime":204.61959249999998,"isDrum":true},{"pitch":35,"velocity":102,"startTime":204.782636,"endTime":204.94567949999998,"isDrum":true},{"pitch":42,"velocity":102,"startTime":204.782636,"endTime":204.94567949999998,"isDrum":true},{"pitch":51,"velocity":102,"startTime":204.782636,"endTime":204.94567949999998,"isDrum":true},{"pitch":35,"velocity":102,"startTime":205.108723,"endTime":205.27176649999998,"isDrum":true},{"pitch":42,"velocity":102,"startTime":205.108723,"endTime":205.27176649999998,"isDrum":true},{"pitch":40,"velocity":102,"startTime":205.43480999999997,"endTime":205.59785349999999,"isDrum":true},{"pitch":42,"velocity":102,"startTime":205.43480999999997,"endTime":205.59785349999999,"isDrum":true},{"pitch":48,"velocity":102,"startTime":205.43480999999997,"endTime":205.59785349999999,"isDrum":true},{"pitch":35,"velocity":102,"startTime":205.76089699999997,"endTime":205.9239405,"isDrum":true},{"pitch":42,"velocity":102,"startTime":205.76089699999997,"endTime":205.9239405,"isDrum":true},{"pitch":35,"velocity":102,"startTime":206.08698399999997,"endTime":206.2500275,"isDrum":true},{"pitch":42,"velocity":102,"startTime":206.08698399999997,"endTime":206.2500275,"isDrum":true},{"pitch":51,"velocity":102,"startTime":206.08698399999997,"endTime":206.2500275,"isDrum":true},{"pitch":42,"velocity":102,"startTime":206.41307099999997,"endTime":206.5761145,"isDrum":true},{"pitch":40,"velocity":102,"startTime":206.73915799999997,"endTime":206.9022015,"isDrum":true},{"pitch":42,"velocity":102,"startTime":206.73915799999997,"endTime":206.9022015,"isDrum":true},{"pitch":51,"velocity":102,"startTime":206.73915799999997,"endTime":206.9022015,"isDrum":true},{"pitch":42,"velocity":102,"startTime":207.06524499999998,"endTime":207.2282885,"isDrum":true},{"pitch":35,"velocity":102,"startTime":207.39133199999998,"endTime":207.5543755,"isDrum":true},{"pitch":42,"velocity":102,"startTime":207.39133199999998,"endTime":207.5543755,"isDrum":true},{"pitch":51,"velocity":102,"startTime":207.39133199999998,"endTime":207.5543755,"isDrum":true},{"pitch":35,"velocity":102,"startTime":207.71741899999998,"endTime":207.8804625,"isDrum":true},{"pitch":42,"velocity":102,"startTime":207.71741899999998,"endTime":207.8804625,"isDrum":true},{"pitch":40,"velocity":102,"startTime":208.04350599999998,"endTime":208.2065495,"isDrum":true},{"pitch":42,"velocity":102,"startTime":208.04350599999998,"endTime":208.2065495,"isDrum":true},{"pitch":42,"velocity":102,"startTime":208.36959299999998,"endTime":208.5326365,"isDrum":true},{"pitch":67,"velocity":95,"startTime":187.826112,"endTime":187.93480766666664,"instrument":1,"program":12},{"pitch":70,"velocity":95,"startTime":187.98915549999998,"endTime":188.09785116666666,"instrument":1,"program":12},{"pitch":67,"velocity":95,"startTime":188.152199,"endTime":188.26089466666664,"instrument":1,"program":12},{"pitch":70,"velocity":95,"startTime":188.31524249999998,"endTime":188.36959033333332,"instrument":1,"program":12},{"pitch":67,"velocity":95,"startTime":188.478286,"endTime":188.58698166666665,"instrument":1,"program":12},{"pitch":67,"velocity":95,"startTime":188.64132949999998,"endTime":188.69567733333332,"instrument":1,"program":12},{"pitch":70,"velocity":95,"startTime":188.804373,"endTime":188.91306866666665,"instrument":1,"program":12},{"pitch":67,"velocity":95,"startTime":188.96741649999998,"endTime":189.07611216666666,"instrument":1,"program":12},{"pitch":63,"velocity":95,"startTime":189.13046,"endTime":189.23915566666665,"instrument":1,"program":12},{"pitch":67,"velocity":95,"startTime":189.29350349999999,"endTime":189.40219916666666,"instrument":1,"program":12},{"pitch":70,"velocity":95,"startTime":189.45654699999997,"endTime":189.56524266666665,"instrument":1,"program":12},{"pitch":75,"velocity":95,"startTime":189.6195905,"endTime":189.72828616666666,"instrument":1,"program":12},{"pitch":70,"velocity":95,"startTime":189.78263399999997,"endTime":189.89132966666665,"instrument":1,"program":12},{"pitch":70,"velocity":95,"startTime":189.9456775,"endTime":190.05437316666666,"instrument":1,"program":12},{"pitch":67,"velocity":95,"startTime":190.10872099999997,"endTime":190.21741666666665,"instrument":1,"program":12},{"pitch":70,"velocity":95,"startTime":190.2717645,"endTime":190.38046016666667,"instrument":1,"program":12},{"pitch":62,"velocity":95,"startTime":190.43480799999998,"endTime":190.54350366666665,"instrument":1,"program":12},{"pitch":69,"velocity":95,"startTime":190.5978515,"endTime":190.70654716666664,"instrument":1,"program":12},{"pitch":74,"velocity":95,"startTime":190.76089499999998,"endTime":190.86959066666665,"instrument":1,"program":12},{"pitch":74,"velocity":95,"startTime":190.9239385,"endTime":191.03263416666664,"instrument":1,"program":12},{"pitch":74,"velocity":95,"startTime":191.08698199999998,"endTime":191.19567766666665,"instrument":1,"program":12},{"pitch":69,"velocity":95,"startTime":191.2500255,"endTime":191.35872116666664,"instrument":1,"program":12},{"pitch":74,"velocity":95,"startTime":191.41306899999998,"endTime":191.52176466666666,"instrument":1,"program":12},{"pitch":69,"velocity":95,"startTime":191.5761125,"endTime":191.68480816666664,"instrument":1,"program":12},{"pitch":74,"velocity":95,"startTime":191.73915599999998,"endTime":191.84785166666666,"instrument":1,"program":12},{"pitch":69,"velocity":95,"startTime":191.9021995,"endTime":192.01089516666664,"instrument":1,"program":12},{"pitch":74,"velocity":95,"startTime":192.06524299999998,"endTime":192.17393866666666,"instrument":1,"program":12},{"pitch":74,"velocity":95,"startTime":192.2282865,"endTime":192.33698216666664,"instrument":1,"program":12},{"pitch":69,"velocity":95,"startTime":192.39132999999998,"endTime":192.50002566666666,"instrument":1,"program":12},{"pitch":74,"velocity":95,"startTime":192.5543735,"endTime":192.66306916666665,"instrument":1,"program":12},{"pitch":69,"velocity":95,"startTime":192.71741699999998,"endTime":192.82611266666666,"instrument":1,"program":12},{"pitch":74,"velocity":95,"startTime":192.8804605,"endTime":192.98915616666665,"instrument":1,"program":12},{"pitch":62,"velocity":95,"startTime":193.04350399999998,"endTime":193.15219966666666,"instrument":1,"program":12},{"pitch":69,"velocity":95,"startTime":193.2065475,"endTime":193.31524316666665,"instrument":1,"program":12},{"pitch":72,"velocity":95,"startTime":193.36959099999999,"endTime":193.47828666666666,"instrument":1,"program":12},{"pitch":69,"velocity":95,"startTime":193.53263449999997,"endTime":193.64133016666665,"instrument":1,"program":12},{"pitch":74,"velocity":95,"startTime":193.695678,"endTime":193.80437366666666,"instrument":1,"program":12},{"pitch":69,"velocity":95,"startTime":193.85872149999997,"endTime":193.96741716666665,"instrument":1,"program":12},{"pitch":74,"velocity":95,"startTime":194.021765,"endTime":194.13046066666666,"instrument":1,"program":12},{"pitch":69,"velocity":95,"startTime":194.18480849999997,"endTime":194.29350416666665,"instrument":1,"program":12},{"pitch":74,"velocity":95,"startTime":194.347852,"endTime":194.45654766666667,"instrument":1,"program":12},{"pitch":69,"velocity":95,"startTime":194.51089549999998,"endTime":194.61959116666665,"instrument":1,"program":12},{"pitch":74,"velocity":95,"startTime":194.673939,"endTime":194.78263466666664,"instrument":1,"program":12},{"pitch":69,"velocity":95,"startTime":194.83698249999998,"endTime":194.89133033333331,"instrument":1,"program":12},{"pitch":74,"velocity":95,"startTime":195.000026,"endTime":195.10872166666664,"instrument":1,"program":12},{"pitch":69,"velocity":95,"startTime":195.16306949999998,"endTime":195.27176516666665,"instrument":1,"program":12},{"pitch":65,"velocity":95,"startTime":195.326113,"endTime":195.43480866666664,"instrument":1,"program":12},{"pitch":72,"velocity":95,"startTime":195.48915649999998,"endTime":195.59785216666666,"instrument":1,"program":12},{"pitch":62,"velocity":95,"startTime":195.6522,"endTime":195.81524349999998,"instrument":1,"program":12},{"pitch":65,"velocity":95,"startTime":195.81524349999998,"endTime":195.92393916666666,"instrument":1,"program":12},{"pitch":70,"velocity":95,"startTime":195.978287,"endTime":196.08698266666664,"instrument":1,"program":12},{"pitch":77,"velocity":95,"startTime":196.14133049999998,"endTime":196.25002616666666,"instrument":1,"program":12},{"pitch":70,"velocity":95,"startTime":196.304374,"endTime":196.41306966666664,"instrument":1,"program":12},{"pitch":77,"velocity":95,"startTime":196.46741749999998,"endTime":196.57611316666666,"instrument":1,"program":12},{"pitch":65,"velocity":95,"startTime":196.630461,"endTime":196.73915666666664,"instrument":1,"program":12},{"pitch":70,"velocity":95,"startTime":196.79350449999998,"endTime":196.90220016666666,"instrument":1,"program":12},{"pitch":77,"velocity":95,"startTime":196.956548,"endTime":197.06524366666665,"instrument":1,"program":12},{"pitch":70,"velocity":95,"startTime":197.11959149999998,"endTime":197.22828716666666,"instrument":1,"program":12},{"pitch":65,"velocity":95,"startTime":197.282635,"endTime":197.39133066666665,"instrument":1,"program":12},{"pitch":70,"velocity":95,"startTime":197.44567849999999,"endTime":197.55437416666666,"instrument":1,"program":12},{"pitch":74,"velocity":95,"startTime":197.60872199999997,"endTime":197.71741766666665,"instrument":1,"program":12},{"pitch":70,"velocity":95,"startTime":197.7717655,"endTime":197.88046116666666,"instrument":1,"program":12},{"pitch":65,"velocity":95,"startTime":197.93480899999997,"endTime":198.04350466666665,"instrument":1,"program":12},{"pitch":70,"velocity":95,"startTime":198.0978525,"endTime":198.20654816666666,"instrument":1,"program":12},{"pitch":62,"velocity":95,"startTime":198.26089599999997,"endTime":198.4239395,"instrument":1,"program":12},{"pitch":65,"velocity":95,"startTime":198.4239395,"endTime":198.53263516666667,"instrument":1,"program":12},{"pitch":67,"velocity":95,"startTime":198.58698299999998,"endTime":198.69567866666665,"instrument":1,"program":12},{"pitch":62,"velocity":95,"startTime":198.7500265,"endTime":198.85872216666664,"instrument":1,"program":12},{"pitch":74,"velocity":95,"startTime":198.91306999999998,"endTime":199.02176566666665,"instrument":1,"program":12},{"pitch":67,"velocity":95,"startTime":199.0761135,"endTime":199.18480916666664,"instrument":1,"program":12},{"pitch":65,"velocity":95,"startTime":199.23915699999998,"endTime":199.34785266666665,"instrument":1,"program":12},{"pitch":62,"velocity":95,"startTime":199.4022005,"endTime":199.51089616666664,"instrument":1,"program":12},{"pitch":74,"velocity":95,"startTime":199.56524399999998,"endTime":199.7282875,"instrument":1,"program":12},{"pitch":67,"velocity":95,"startTime":199.7282875,"endTime":199.83698316666664,"instrument":1,"program":12},{"pitch":65,"velocity":95,"startTime":199.89133099999998,"endTime":200.00002666666666,"instrument":1,"program":12},{"pitch":62,"velocity":95,"startTime":200.0543745,"endTime":200.16307016666664,"instrument":1,"program":12},{"pitch":74,"velocity":95,"startTime":200.21741799999998,"endTime":200.32611366666666,"instrument":1,"program":12},{"pitch":67,"velocity":95,"startTime":200.3804615,"endTime":200.48915716666664,"instrument":1,"program":12},{"pitch":67,"velocity":95,"startTime":200.54350499999998,"endTime":200.65220066666666,"instrument":1,"program":12},{"pitch":74,"velocity":95,"startTime":200.7065485,"endTime":200.81524416666664,"instrument":1,"program":12},{"pitch":62,"velocity":95,"startTime":200.86959199999998,"endTime":201.0326355,"instrument":1,"program":12},{"pitch":69,"velocity":95,"startTime":201.0326355,"endTime":201.14133116666665,"instrument":1,"program":12},{"pitch":69,"velocity":95,"startTime":201.19567899999998,"endTime":201.30437466666666,"instrument":1,"program":12},{"pitch":74,"velocity":95,"startTime":201.3587225,"endTime":201.46741816666665,"instrument":1,"program":12},{"pitch":77,"velocity":95,"startTime":201.52176599999999,"endTime":201.63046166666666,"instrument":1,"program":12},{"pitch":69,"velocity":95,"startTime":201.68480949999997,"endTime":201.79350516666665,"instrument":1,"program":12},{"pitch":69,"velocity":95,"startTime":201.847853,"endTime":201.95654866666666,"instrument":1,"program":12},{"pitch":69,"velocity":95,"startTime":202.01089649999997,"endTime":202.11959216666665,"instrument":1,"program":12},{"pitch":62,"velocity":95,"startTime":202.17394,"endTime":202.33698349999997,"instrument":1,"program":12},{"pitch":69,"velocity":95,"startTime":202.33698349999997,"endTime":202.44567916666665,"instrument":1,"program":12},{"pitch":74,"velocity":95,"startTime":202.500027,"endTime":202.60872266666667,"instrument":1,"program":12},{"pitch":69,"velocity":95,"startTime":202.66307049999998,"endTime":202.77176616666665,"instrument":1,"program":12},{"pitch":62,"velocity":95,"startTime":202.826114,"endTime":202.93480966666664,"instrument":1,"program":12},{"pitch":69,"velocity":95,"startTime":202.98915749999998,"endTime":203.09785316666665,"instrument":1,"program":12},{"pitch":65,"velocity":95,"startTime":203.152201,"endTime":203.26089666666664,"instrument":1,"program":12},{"pitch":69,"velocity":95,"startTime":203.31524449999998,"endTime":203.42394016666665,"instrument":1,"program":12},{"pitch":66,"velocity":95,"startTime":203.478288,"endTime":203.64133149999998,"instrument":1,"program":12},{"pitch":66,"velocity":95,"startTime":203.64133149999998,"endTime":203.75002716666665,"instrument":1,"program":12},{"pitch":70,"velocity":95,"startTime":203.804375,"endTime":203.91307066666664,"instrument":1,"program":12},{"pitch":74,"velocity":95,"startTime":203.96741849999998,"endTime":204.07611416666666,"instrument":1,"program":12},{"pitch":78,"velocity":95,"startTime":204.130462,"endTime":204.23915766666664,"instrument":1,"program":12},{"pitch":78,"velocity":95,"startTime":204.29350549999998,"endTime":204.40220116666666,"instrument":1,"program":12},{"pitch":78,"velocity":95,"startTime":204.456549,"endTime":204.56524466666664,"instrument":1,"program":12},{"pitch":70,"velocity":95,"startTime":204.61959249999998,"endTime":204.72828816666666,"instrument":1,"program":12},{"pitch":66,"velocity":95,"startTime":204.782636,"endTime":204.94567949999998,"instrument":1,"program":12},{"pitch":70,"velocity":95,"startTime":204.94567949999998,"endTime":205.05437516666666,"instrument":1,"program":12},{"pitch":66,"velocity":95,"startTime":205.108723,"endTime":205.21741866666665,"instrument":1,"program":12},{"pitch":66,"velocity":95,"startTime":205.27176649999998,"endTime":205.32611433333332,"instrument":1,"program":12},{"pitch":82,"velocity":95,"startTime":205.43480999999997,"endTime":205.54350566666665,"instrument":1,"program":12},{"pitch":74,"velocity":95,"startTime":205.59785349999999,"endTime":205.70654916666666,"instrument":1,"program":12},{"pitch":70,"velocity":95,"startTime":205.76089699999997,"endTime":205.86959266666665,"instrument":1,"program":12},{"pitch":72,"velocity":95,"startTime":205.9239405,"endTime":206.03263616666666,"instrument":1,"program":12},{"pitch":62,"velocity":95,"startTime":206.08698399999997,"endTime":206.2500275,"instrument":1,"program":12},{"pitch":67,"velocity":95,"startTime":206.2500275,"endTime":206.35872316666666,"instrument":1,"program":12},{"pitch":70,"velocity":95,"startTime":206.41307099999997,"endTime":206.52176666666665,"instrument":1,"program":12},{"pitch":67,"velocity":95,"startTime":206.5761145,"endTime":206.63046233333333,"instrument":1,"program":12},{"pitch":70,"velocity":95,"startTime":206.73915799999997,"endTime":206.9022015,"instrument":1,"program":12},{"pitch":67,"velocity":95,"startTime":206.9022015,"endTime":207.01089716666664,"instrument":1,"program":12},{"pitch":70,"velocity":95,"startTime":207.06524499999998,"endTime":207.17394066666665,"instrument":1,"program":12},{"pitch":74,"velocity":95,"startTime":207.2282885,"endTime":207.33698416666664,"instrument":1,"program":12},{"pitch":67,"velocity":95,"startTime":207.39133199999998,"endTime":207.5543755,"instrument":1,"program":12},{"pitch":70,"velocity":95,"startTime":207.5543755,"endTime":207.66307116666664,"instrument":1,"program":12},{"pitch":67,"velocity":95,"startTime":207.71741899999998,"endTime":207.82611466666665,"instrument":1,"program":12},{"pitch":70,"velocity":95,"startTime":207.8804625,"endTime":207.98915816666664,"instrument":1,"program":12},{"pitch":67,"velocity":95,"startTime":208.04350599999998,"endTime":208.15220166666666,"instrument":1,"program":12},{"pitch":70,"velocity":95,"startTime":208.2065495,"endTime":208.31524516666664,"instrument":1,"program":12},{"pitch":67,"velocity":95,"startTime":208.36959299999998,"endTime":208.47828866666666,"instrument":1,"program":12},{"pitch":70,"velocity":95,"startTime":208.5326365,"endTime":208.64133216666664,"instrument":1,"program":12},{"pitch":43,"velocity":110,"startTime":187.826112,"endTime":187.98915549999998,"instrument":2,"program":32},{"pitch":38,"velocity":110,"startTime":190.43480799999998,"endTime":190.5978515,"instrument":2,"program":32},{"pitch":38,"velocity":110,"startTime":190.76089499999998,"endTime":190.9239385,"instrument":2,"program":32},{"pitch":38,"velocity":110,"startTime":191.08698199999998,"endTime":191.2500255,"instrument":2,"program":32},{"pitch":42,"velocity":110,"startTime":191.41306899999998,"endTime":191.5761125,"instrument":2,"program":32},{"pitch":42,"velocity":110,"startTime":191.73915599999998,"endTime":191.9021995,"instrument":2,"program":32},{"pitch":42,"velocity":110,"startTime":192.06524299999998,"endTime":192.2282865,"instrument":2,"program":32},{"pitch":36,"velocity":110,"startTime":192.39132999999998,"endTime":192.5543735,"instrument":2,"program":32},{"pitch":38,"velocity":110,"startTime":192.71741699999998,"endTime":192.8804605,"instrument":2,"program":32},{"pitch":38,"velocity":110,"startTime":193.04350399999998,"endTime":193.75002583333332,"instrument":2,"program":32},{"pitch":40,"velocity":110,"startTime":193.695678,"endTime":193.85872149999997,"instrument":2,"program":32},{"pitch":33,"velocity":110,"startTime":194.021765,"endTime":194.18480849999997,"instrument":2,"program":32},{"pitch":38,"velocity":110,"startTime":194.347852,"endTime":194.51089549999998,"instrument":2,"program":32},{"pitch":45,"velocity":110,"startTime":194.673939,"endTime":194.83698249999998,"instrument":2,"program":32},{"pitch":38,"velocity":110,"startTime":195.000026,"endTime":195.16306949999998,"instrument":2,"program":32},{"pitch":42,"velocity":110,"startTime":195.326113,"endTime":195.48915649999998,"instrument":2,"program":32},{"pitch":43,"velocity":110,"startTime":195.6522,"endTime":195.81524349999998,"instrument":2,"program":32},{"pitch":43,"velocity":110,"startTime":195.978287,"endTime":196.14133049999998,"instrument":2,"program":32},{"pitch":38,"velocity":110,"startTime":196.304374,"endTime":196.46741749999998,"instrument":2,"program":32},{"pitch":38,"velocity":110,"startTime":196.630461,"endTime":196.79350449999998,"instrument":2,"program":32},{"pitch":43,"velocity":110,"startTime":196.956548,"endTime":197.11959149999998,"instrument":2,"program":32},{"pitch":43,"velocity":110,"startTime":197.282635,"endTime":197.44567849999999,"instrument":2,"program":32},{"pitch":41,"velocity":110,"startTime":197.60872199999997,"endTime":197.7717655,"instrument":2,"program":32},{"pitch":38,"velocity":110,"startTime":197.93480899999997,"endTime":198.0978525,"instrument":2,"program":32},{"pitch":31,"velocity":110,"startTime":198.26089599999997,"endTime":198.4239395,"instrument":2,"program":32},{"pitch":31,"velocity":110,"startTime":198.58698299999998,"endTime":198.7500265,"instrument":2,"program":32},{"pitch":31,"velocity":110,"startTime":198.91306999999998,"endTime":199.0761135,"instrument":2,"program":32},{"pitch":31,"velocity":110,"startTime":199.23915699999998,"endTime":199.4022005,"instrument":2,"program":32},{"pitch":31,"velocity":110,"startTime":199.56524399999998,"endTime":199.7282875,"instrument":2,"program":32},{"pitch":31,"velocity":110,"startTime":199.89133099999998,"endTime":200.0543745,"instrument":2,"program":32},{"pitch":31,"velocity":110,"startTime":200.21741799999998,"endTime":200.3804615,"instrument":2,"program":32},{"pitch":43,"velocity":110,"startTime":200.54350499999998,"endTime":200.7065485,"instrument":2,"program":32},{"pitch":38,"velocity":110,"startTime":200.86959199999998,"endTime":201.0326355,"instrument":2,"program":32},{"pitch":38,"velocity":110,"startTime":201.19567899999998,"endTime":201.3587225,"instrument":2,"program":32},{"pitch":30,"velocity":110,"startTime":201.52176599999999,"endTime":201.68480949999997,"instrument":2,"program":32},{"pitch":38,"velocity":110,"startTime":201.847853,"endTime":202.01089649999997,"instrument":2,"program":32},{"pitch":38,"velocity":110,"startTime":202.17394,"endTime":202.33698349999997,"instrument":2,"program":32},{"pitch":38,"velocity":110,"startTime":202.500027,"endTime":202.66307049999998,"instrument":2,"program":32},{"pitch":33,"velocity":110,"startTime":202.826114,"endTime":202.98915749999998,"instrument":2,"program":32},{"pitch":42,"velocity":110,"startTime":203.152201,"endTime":203.31524449999998,"instrument":2,"program":32},{"pitch":50,"velocity":110,"startTime":203.478288,"endTime":203.64133149999998,"instrument":2,"program":32},{"pitch":38,"velocity":110,"startTime":203.804375,"endTime":203.96741849999998,"instrument":2,"program":32},{"pitch":38,"velocity":110,"startTime":204.130462,"endTime":204.29350549999998,"instrument":2,"program":32},{"pitch":45,"velocity":110,"startTime":204.456549,"endTime":204.61959249999998,"instrument":2,"program":32},{"pitch":38,"velocity":110,"startTime":204.782636,"endTime":204.94567949999998,"instrument":2,"program":32},{"pitch":45,"velocity":110,"startTime":205.108723,"endTime":205.27176649999998,"instrument":2,"program":32},{"pitch":38,"velocity":110,"startTime":205.43480999999997,"endTime":205.59785349999999,"instrument":2,"program":32},{"pitch":48,"velocity":110,"startTime":205.76089699999997,"endTime":205.9239405,"instrument":2,"program":32},{"pitch":36,"velocity":110,"startTime":206.08698399999997,"endTime":206.41307099999997,"instrument":2,"program":32},{"pitch":38,"velocity":110,"startTime":206.5761145,"endTime":206.73915799999997,"instrument":2,"program":32},{"pitch":39,"velocity":110,"startTime":206.73915799999997,"endTime":206.9022015,"instrument":2,"program":32},{"pitch":43,"velocity":110,"startTime":207.06524499999998,"endTime":207.2282885,"instrument":2,"program":32},{"pitch":36,"velocity":110,"startTime":207.39133199999998,"endTime":207.5543755,"instrument":2,"program":32},{"pitch":36,"velocity":110,"startTime":207.71741899999998,"endTime":207.8804625,"instrument":2,"program":32},{"pitch":31,"velocity":110,"startTime":208.04350599999998,"endTime":208.2065495,"instrument":2,"program":32},{"pitch":31,"velocity":110,"startTime":208.36959299999998,"endTime":208.5326365,"instrument":2,"program":32},{"pitch":55,"velocity":105,"startTime":187.826112,"endTime":188.96741649999998,"instrument":3,"program":50},{"pitch":58,"velocity":105,"startTime":187.826112,"endTime":188.96741649999998,"instrument":3,"program":50},{"pitch":62,"velocity":105,"startTime":187.826112,"endTime":188.96741649999998,"instrument":3,"program":50},{"pitch":65,"velocity":105,"startTime":187.826112,"endTime":188.96741649999998,"instrument":3,"program":50},{"pitch":58,"velocity":105,"startTime":189.13046,"endTime":189.45654699999997,"instrument":3,"program":50},{"pitch":63,"velocity":105,"startTime":189.13046,"endTime":189.56524266666665,"instrument":3,"program":50},{"pitch":67,"velocity":105,"startTime":189.13046,"endTime":189.5108948333333,"instrument":3,"program":50},{"pitch":55,"velocity":105,"startTime":189.45654699999997,"endTime":189.5108948333333,"instrument":3,"program":50},{"pitch":58,"velocity":105,"startTime":189.45654699999997,"endTime":189.5108948333333,"instrument":3,"program":50},{"pitch":58,"velocity":105,"startTime":189.78263399999997,"endTime":190.32611233333333,"instrument":3,"program":50},{"pitch":62,"velocity":105,"startTime":189.78263399999997,"endTime":190.2717645,"instrument":3,"program":50},{"pitch":63,"velocity":105,"startTime":189.78263399999997,"endTime":190.32611233333333,"instrument":3,"program":50},{"pitch":60,"velocity":105,"startTime":190.43480799999998,"endTime":191.5761125,"instrument":3,"program":50},{"pitch":62,"velocity":105,"startTime":190.43480799999998,"endTime":191.5761125,"instrument":3,"program":50},{"pitch":65,"velocity":105,"startTime":190.43480799999998,"endTime":191.5761125,"instrument":3,"program":50},{"pitch":69,"velocity":105,"startTime":190.43480799999998,"endTime":191.5761125,"instrument":3,"program":50},{"pitch":57,"velocity":105,"startTime":191.5761125,"endTime":193.04350399999998,"instrument":3,"program":50},{"pitch":60,"velocity":105,"startTime":191.5761125,"endTime":193.04350399999998,"instrument":3,"program":50},{"pitch":62,"velocity":105,"startTime":191.5761125,"endTime":193.04350399999998,"instrument":3,"program":50},{"pitch":65,"velocity":105,"startTime":191.5761125,"endTime":193.04350399999998,"instrument":3,"program":50},{"pitch":65,"velocity":105,"startTime":192.06524299999998,"endTime":192.8804605,"instrument":3,"program":50},{"pitch":60,"velocity":105,"startTime":193.04350399999998,"endTime":195.6522,"instrument":3,"program":50},{"pitch":65,"velocity":105,"startTime":193.04350399999998,"endTime":193.9130693333333,"instrument":3,"program":50},{"pitch":72,"velocity":105,"startTime":193.04350399999998,"endTime":195.6522,"instrument":3,"program":50},{"pitch":57,"velocity":105,"startTime":193.2065475,"endTime":195.6522,"instrument":3,"program":50},{"pitch":65,"velocity":105,"startTime":194.021765,"endTime":195.6522,"instrument":3,"program":50},{"pitch":62,"velocity":105,"startTime":195.6522,"endTime":198.26089599999997,"instrument":3,"program":50},{"pitch":65,"velocity":105,"startTime":195.6522,"endTime":198.26089599999997,"instrument":3,"program":50},{"pitch":67,"velocity":105,"startTime":195.6522,"endTime":198.26089599999997,"instrument":3,"program":50},{"pitch":72,"velocity":105,"startTime":195.6522,"endTime":198.26089599999997,"instrument":3,"program":50},{"pitch":58,"velocity":105,"startTime":198.26089599999997,"endTime":200.4348093333333,"instrument":3,"program":50},{"pitch":62,"velocity":105,"startTime":198.26089599999997,"endTime":200.4348093333333,"instrument":3,"program":50},{"pitch":65,"velocity":105,"startTime":198.26089599999997,"endTime":200.4348093333333,"instrument":3,"program":50},{"pitch":67,"velocity":105,"startTime":198.26089599999997,"endTime":200.32611366666666,"instrument":3,"program":50},{"pitch":74,"velocity":105,"startTime":198.58698299999998,"endTime":200.3804615,"instrument":3,"program":50},{"pitch":79,"velocity":105,"startTime":198.6413308333333,"endTime":200.3804615,"instrument":3,"program":50},{"pitch":62,"velocity":105,"startTime":200.86959199999998,"endTime":202.01089649999997,"instrument":3,"program":50},{"pitch":66,"velocity":105,"startTime":200.86959199999998,"endTime":201.95654866666666,"instrument":3,"program":50},{"pitch":70,"velocity":105,"startTime":200.86959199999998,"endTime":202.01089649999997,"instrument":3,"program":50},{"pitch":74,"velocity":105,"startTime":200.86959199999998,"endTime":202.01089649999997,"instrument":3,"program":50},{"pitch":66,"velocity":105,"startTime":202.01089649999997,"endTime":202.17394,"instrument":3,"program":50},{"pitch":60,"velocity":105,"startTime":202.17394,"endTime":203.31524449999998,"instrument":3,"program":50},{"pitch":62,"velocity":105,"startTime":202.17394,"endTime":203.36959233333332,"instrument":3,"program":50},{"pitch":66,"velocity":105,"startTime":202.17394,"endTime":203.36959233333332,"instrument":3,"program":50},{"pitch":69,"velocity":105,"startTime":202.17394,"endTime":203.42394016666665,"instrument":3,"program":50},{"pitch":72,"velocity":105,"startTime":203.152201,"endTime":203.42394016666665,"instrument":3,"program":50},{"pitch":60,"velocity":105,"startTime":203.478288,"endTime":204.782636,"instrument":3,"program":50},{"pitch":66,"velocity":105,"startTime":203.478288,"endTime":204.782636,"instrument":3,"program":50},{"pitch":70,"velocity":105,"startTime":203.478288,"endTime":204.782636,"instrument":3,"program":50},{"pitch":77,"velocity":105,"startTime":203.478288,"endTime":204.782636,"instrument":3,"program":50},{"pitch":60,"velocity":105,"startTime":204.782636,"endTime":206.08698399999997,"instrument":3,"program":50},{"pitch":66,"velocity":105,"startTime":204.782636,"endTime":206.08698399999997,"instrument":3,"program":50},{"pitch":69,"velocity":105,"startTime":204.782636,"endTime":206.08698399999997,"instrument":3,"program":50},{"pitch":77,"velocity":105,"startTime":204.782636,"endTime":205.27176649999998,"instrument":3,"program":50},{"pitch":58,"velocity":105,"startTime":206.08698399999997,"endTime":207.60872333333333,"instrument":3,"program":50},{"pitch":60,"velocity":105,"startTime":206.08698399999997,"endTime":207.2282885,"instrument":3,"program":50},{"pitch":62,"velocity":105,"startTime":206.08698399999997,"endTime":208.69567999999998,"instrument":3,"program":50},{"pitch":66,"velocity":105,"startTime":206.08698399999997,"endTime":208.69567999999998,"instrument":3,"program":50},{"pitch":62,"velocity":105,"startTime":207.06524499999998,"endTime":207.2282885,"instrument":3,"program":50},{"pitch":60,"velocity":105,"startTime":207.39133199999998,"endTime":208.2065495,"instrument":3,"program":50},{"pitch":58,"velocity":105,"startTime":207.71741899999998,"endTime":208.04350599999998,"instrument":3,"program":50},{"pitch":58,"velocity":105,"startTime":208.04350599999998,"endTime":208.2065495,"instrument":3,"program":50},{"pitch":58,"velocity":105,"startTime":208.2065495,"endTime":208.69567999999998,"instrument":3,"program":50},{"pitch":60,"velocity":105,"startTime":208.5326365,"endTime":208.69567999999998,"instrument":3,"program":50},{"pitch":35,"velocity":102,"startTime":208.69567999999998,"endTime":208.8587235,"isDrum":true},{"pitch":42,"velocity":102,"startTime":208.69567999999998,"endTime":208.8587235,"isDrum":true},{"pitch":42,"velocity":102,"startTime":209.02176699999998,"endTime":209.1848105,"isDrum":true},{"pitch":39,"velocity":102,"startTime":209.34785399999998,"endTime":209.51089749999997,"isDrum":true},{"pitch":40,"velocity":102,"startTime":209.34785399999998,"endTime":209.51089749999997,"isDrum":true},{"pitch":42,"velocity":102,"startTime":209.34785399999998,"endTime":209.51089749999997,"isDrum":true},{"pitch":35,"velocity":102,"startTime":209.67394099999999,"endTime":209.83698449999997,"isDrum":true},{"pitch":42,"velocity":102,"startTime":209.67394099999999,"endTime":209.83698449999997,"isDrum":true},{"pitch":35,"velocity":102,"startTime":210.000028,"endTime":210.16307149999997,"isDrum":true},{"pitch":42,"velocity":102,"startTime":210.000028,"endTime":210.16307149999997,"isDrum":true},{"pitch":42,"velocity":102,"startTime":210.326115,"endTime":210.48915849999997,"isDrum":true},{"pitch":40,"velocity":102,"startTime":210.652202,"endTime":210.81524549999997,"isDrum":true},{"pitch":42,"velocity":102,"startTime":210.652202,"endTime":210.81524549999997,"isDrum":true},{"pitch":42,"velocity":102,"startTime":210.978289,"endTime":211.14133249999998,"isDrum":true},{"pitch":35,"velocity":102,"startTime":211.304376,"endTime":211.46741949999998,"isDrum":true},{"pitch":42,"velocity":102,"startTime":211.304376,"endTime":211.46741949999998,"isDrum":true},{"pitch":42,"velocity":102,"startTime":211.630463,"endTime":211.79350649999998,"isDrum":true},{"pitch":40,"velocity":102,"startTime":211.95655,"endTime":212.11959349999998,"isDrum":true},{"pitch":42,"velocity":102,"startTime":211.95655,"endTime":212.11959349999998,"isDrum":true},{"pitch":42,"velocity":102,"startTime":212.282637,"endTime":212.44568049999998,"isDrum":true},{"pitch":35,"velocity":102,"startTime":212.608724,"endTime":212.77176749999998,"isDrum":true},{"pitch":42,"velocity":102,"startTime":212.608724,"endTime":212.77176749999998,"isDrum":true},{"pitch":42,"velocity":102,"startTime":212.934811,"endTime":213.09785449999998,"isDrum":true},{"pitch":40,"velocity":102,"startTime":213.260898,"endTime":213.42394149999998,"isDrum":true},{"pitch":42,"velocity":102,"startTime":213.260898,"endTime":213.42394149999998,"isDrum":true},{"pitch":42,"velocity":102,"startTime":213.58698499999997,"endTime":213.75002849999998,"isDrum":true},{"pitch":35,"velocity":102,"startTime":213.91307199999997,"endTime":214.0761155,"isDrum":true},{"pitch":42,"velocity":102,"startTime":213.91307199999997,"endTime":214.0761155,"isDrum":true},{"pitch":42,"velocity":102,"startTime":214.23915899999997,"endTime":214.4022025,"isDrum":true},{"pitch":40,"velocity":102,"startTime":214.56524599999997,"endTime":214.7282895,"isDrum":true},{"pitch":42,"velocity":102,"startTime":214.56524599999997,"endTime":214.7282895,"isDrum":true},{"pitch":42,"velocity":102,"startTime":214.89133299999997,"endTime":215.0543765,"isDrum":true},{"pitch":35,"velocity":102,"startTime":215.21741999999998,"endTime":215.3804635,"isDrum":true},{"pitch":42,"velocity":102,"startTime":215.21741999999998,"endTime":215.3804635,"isDrum":true},{"pitch":42,"velocity":102,"startTime":215.54350699999998,"endTime":215.7065505,"isDrum":true},{"pitch":40,"velocity":102,"startTime":215.86959399999998,"endTime":216.0326375,"isDrum":true},{"pitch":42,"velocity":102,"startTime":215.86959399999998,"endTime":216.0326375,"isDrum":true},{"pitch":42,"velocity":102,"startTime":216.19568099999998,"endTime":216.3587245,"isDrum":true},{"pitch":35,"velocity":102,"startTime":216.52176799999998,"endTime":216.6848115,"isDrum":true},{"pitch":42,"velocity":102,"startTime":216.52176799999998,"endTime":216.6848115,"isDrum":true},{"pitch":42,"velocity":102,"startTime":216.84785499999998,"endTime":217.0108985,"isDrum":true},{"pitch":40,"velocity":102,"startTime":217.17394199999998,"endTime":217.3369855,"isDrum":true},{"pitch":42,"velocity":102,"startTime":217.17394199999998,"endTime":217.3369855,"isDrum":true},{"pitch":42,"velocity":102,"startTime":217.50002899999998,"endTime":217.66307249999997,"isDrum":true},{"pitch":35,"velocity":102,"startTime":217.82611599999998,"endTime":217.98915949999997,"isDrum":true},{"pitch":42,"velocity":102,"startTime":217.82611599999998,"endTime":217.98915949999997,"isDrum":true},{"pitch":42,"velocity":102,"startTime":218.152203,"endTime":218.31524649999997,"isDrum":true},{"pitch":40,"velocity":102,"startTime":218.47829,"endTime":218.64133349999997,"isDrum":true},{"pitch":42,"velocity":102,"startTime":218.47829,"endTime":218.64133349999997,"isDrum":true},{"pitch":42,"velocity":102,"startTime":218.804377,"endTime":218.96742049999997,"isDrum":true},{"pitch":35,"velocity":102,"startTime":219.130464,"endTime":219.29350749999998,"isDrum":true},{"pitch":42,"velocity":102,"startTime":219.130464,"endTime":219.29350749999998,"isDrum":true},{"pitch":42,"velocity":102,"startTime":219.456551,"endTime":219.61959449999998,"isDrum":true},{"pitch":40,"velocity":102,"startTime":219.782638,"endTime":219.94568149999998,"isDrum":true},{"pitch":42,"velocity":102,"startTime":219.782638,"endTime":219.94568149999998,"isDrum":true},{"pitch":42,"velocity":102,"startTime":220.108725,"endTime":220.27176849999998,"isDrum":true},{"pitch":35,"velocity":102,"startTime":220.434812,"endTime":220.59785549999998,"isDrum":true},{"pitch":42,"velocity":102,"startTime":220.434812,"endTime":220.59785549999998,"isDrum":true},{"pitch":42,"velocity":102,"startTime":220.760899,"endTime":220.92394249999998,"isDrum":true},{"pitch":40,"velocity":102,"startTime":221.086986,"endTime":221.25002949999998,"isDrum":true},{"pitch":42,"velocity":102,"startTime":221.086986,"endTime":221.25002949999998,"isDrum":true},{"pitch":42,"velocity":102,"startTime":221.413073,"endTime":221.57611649999998,"isDrum":true},{"pitch":35,"velocity":102,"startTime":221.73915999999997,"endTime":221.90220349999998,"isDrum":true},{"pitch":42,"velocity":102,"startTime":221.73915999999997,"endTime":221.90220349999998,"isDrum":true},{"pitch":42,"velocity":102,"startTime":222.06524699999997,"endTime":222.22829049999999,"isDrum":true},{"pitch":40,"velocity":102,"startTime":222.39133399999997,"endTime":222.5543775,"isDrum":true},{"pitch":42,"velocity":102,"startTime":222.39133399999997,"endTime":222.5543775,"isDrum":true},{"pitch":42,"velocity":102,"startTime":222.71742099999997,"endTime":222.8804645,"isDrum":true},{"pitch":35,"velocity":102,"startTime":223.04350799999997,"endTime":223.2065515,"isDrum":true},{"pitch":42,"velocity":102,"startTime":223.04350799999997,"endTime":223.2065515,"isDrum":true},{"pitch":42,"velocity":102,"startTime":223.36959499999998,"endTime":223.5326385,"isDrum":true},{"pitch":40,"velocity":102,"startTime":223.69568199999998,"endTime":223.8587255,"isDrum":true},{"pitch":42,"velocity":102,"startTime":223.69568199999998,"endTime":223.8587255,"isDrum":true},{"pitch":42,"velocity":102,"startTime":224.02176899999998,"endTime":224.1848125,"isDrum":true},{"pitch":35,"velocity":102,"startTime":224.34785599999998,"endTime":224.5108995,"isDrum":true},{"pitch":42,"velocity":102,"startTime":224.34785599999998,"endTime":224.5108995,"isDrum":true},{"pitch":42,"velocity":102,"startTime":224.67394299999998,"endTime":224.8369865,"isDrum":true},{"pitch":40,"velocity":102,"startTime":225.00002999999998,"endTime":225.1630735,"isDrum":true},{"pitch":42,"velocity":102,"startTime":225.00002999999998,"endTime":225.1630735,"isDrum":true},{"pitch":42,"velocity":102,"startTime":225.32611699999998,"endTime":225.4891605,"isDrum":true},{"pitch":35,"velocity":102,"startTime":225.65220399999998,"endTime":225.81524749999997,"isDrum":true},{"pitch":42,"velocity":102,"startTime":225.65220399999998,"endTime":225.81524749999997,"isDrum":true},{"pitch":42,"velocity":102,"startTime":225.97829099999998,"endTime":226.14133449999997,"isDrum":true},{"pitch":40,"velocity":102,"startTime":226.30437799999999,"endTime":226.46742149999997,"isDrum":true},{"pitch":42,"velocity":102,"startTime":226.30437799999999,"endTime":226.46742149999997,"isDrum":true},{"pitch":42,"velocity":102,"startTime":226.630465,"endTime":226.79350849999997,"isDrum":true},{"pitch":35,"velocity":102,"startTime":226.956552,"endTime":227.11959549999997,"isDrum":true},{"pitch":42,"velocity":102,"startTime":226.956552,"endTime":227.11959549999997,"isDrum":true},{"pitch":42,"velocity":102,"startTime":227.282639,"endTime":227.44568249999998,"isDrum":true},{"pitch":40,"velocity":102,"startTime":227.608726,"endTime":227.77176949999998,"isDrum":true},{"pitch":42,"velocity":102,"startTime":227.608726,"endTime":227.77176949999998,"isDrum":true},{"pitch":42,"velocity":102,"startTime":227.934813,"endTime":228.09785649999998,"isDrum":true},{"pitch":35,"velocity":102,"startTime":228.09785649999998,"endTime":228.2609,"isDrum":true},{"pitch":35,"velocity":102,"startTime":228.2609,"endTime":228.42394349999998,"isDrum":true},{"pitch":42,"velocity":102,"startTime":228.2609,"endTime":228.42394349999998,"isDrum":true},{"pitch":42,"velocity":102,"startTime":228.586987,"endTime":228.75003049999998,"isDrum":true},{"pitch":40,"velocity":102,"startTime":228.913074,"endTime":229.07611749999998,"isDrum":true},{"pitch":42,"velocity":102,"startTime":228.913074,"endTime":229.07611749999998,"isDrum":true},{"pitch":42,"velocity":102,"startTime":229.239161,"endTime":229.40220449999998,"isDrum":true},{"pitch":68,"velocity":95,"startTime":208.69567999999998,"endTime":208.8587235,"instrument":1,"program":12},{"pitch":69,"velocity":95,"startTime":208.8587235,"endTime":208.96741916666664,"instrument":1,"program":12},{"pitch":72,"velocity":95,"startTime":209.02176699999998,"endTime":209.13046266666666,"instrument":1,"program":12},{"pitch":69,"velocity":95,"startTime":209.1848105,"endTime":209.2391583333333,"instrument":1,"program":12},{"pitch":74,"velocity":95,"startTime":209.34785399999998,"endTime":209.45654966666666,"instrument":1,"program":12},{"pitch":69,"velocity":95,"startTime":209.51089749999997,"endTime":209.5652453333333,"instrument":1,"program":12},{"pitch":68,"velocity":95,"startTime":209.67394099999999,"endTime":209.78263666666666,"instrument":1,"program":12},{"pitch":69,"velocity":95,"startTime":209.83698449999997,"endTime":209.94568016666665,"instrument":1,"program":12},{"pitch":76,"velocity":95,"startTime":210.000028,"endTime":210.10872366666666,"instrument":1,"program":12},{"pitch":69,"velocity":95,"startTime":210.16307149999997,"endTime":210.27176716666665,"instrument":1,"program":12},{"pitch":74,"velocity":95,"startTime":210.326115,"endTime":210.43481066666666,"instrument":1,"program":12},{"pitch":69,"velocity":95,"startTime":210.48915849999997,"endTime":210.5435063333333,"instrument":1,"program":12},{"pitch":74,"velocity":95,"startTime":210.652202,"endTime":210.76089766666666,"instrument":1,"program":12},{"pitch":69,"velocity":95,"startTime":210.81524549999997,"endTime":210.8695933333333,"instrument":1,"program":12},{"pitch":69,"velocity":95,"startTime":210.978289,"endTime":211.08698466666664,"instrument":1,"program":12},{"pitch":68,"velocity":95,"startTime":211.14133249999998,"endTime":211.25002816666665,"instrument":1,"program":12},{"pitch":72,"velocity":95,"startTime":211.304376,"endTime":211.46741949999998,"instrument":1,"program":12},{"pitch":69,"velocity":95,"startTime":211.46741949999998,"endTime":211.57611516666665,"instrument":1,"program":12},{"pitch":72,"velocity":95,"startTime":211.630463,"endTime":211.73915866666664,"instrument":1,"program":12},{"pitch":69,"velocity":95,"startTime":211.79350649999998,"endTime":211.90220216666665,"instrument":1,"program":12},{"pitch":72,"velocity":95,"startTime":211.95655,"endTime":212.06524566666664,"instrument":1,"program":12},{"pitch":69,"velocity":95,"startTime":212.11959349999998,"endTime":212.22828916666666,"instrument":1,"program":12},{"pitch":72,"velocity":95,"startTime":212.282637,"endTime":212.39133266666664,"instrument":1,"program":12},{"pitch":69,"velocity":95,"startTime":212.44568049999998,"endTime":212.50002833333332,"instrument":1,"program":12},{"pitch":72,"velocity":95,"startTime":212.608724,"endTime":212.71741966666664,"instrument":1,"program":12},{"pitch":69,"velocity":95,"startTime":212.77176749999998,"endTime":212.88046316666666,"instrument":1,"program":12},{"pitch":72,"velocity":95,"startTime":212.934811,"endTime":213.04350666666664,"instrument":1,"program":12},{"pitch":69,"velocity":95,"startTime":213.09785449999998,"endTime":213.20655016666666,"instrument":1,"program":12},{"pitch":72,"velocity":95,"startTime":213.260898,"endTime":213.36959366666665,"instrument":1,"program":12},{"pitch":69,"velocity":95,"startTime":213.42394149999998,"endTime":213.53263716666666,"instrument":1,"program":12},{"pitch":72,"velocity":95,"startTime":213.58698499999997,"endTime":213.6413328333333,"instrument":1,"program":12},{"pitch":69,"velocity":95,"startTime":213.75002849999998,"endTime":213.80437633333332,"instrument":1,"program":12},{"pitch":62,"velocity":95,"startTime":213.91307199999997,"endTime":214.0761155,"instrument":1,"program":12},{"pitch":67,"velocity":95,"startTime":214.0761155,"endTime":214.18481116666666,"instrument":1,"program":12},{"pitch":70,"velocity":95,"startTime":214.23915899999997,"endTime":214.34785466666665,"instrument":1,"program":12},{"pitch":67,"velocity":95,"startTime":214.4022025,"endTime":214.45655033333333,"instrument":1,"program":12},{"pitch":79,"velocity":95,"startTime":214.56524599999997,"endTime":214.67394166666665,"instrument":1,"program":12},{"pitch":70,"velocity":95,"startTime":214.7282895,"endTime":214.78263733333333,"instrument":1,"program":12},{"pitch":67,"velocity":95,"startTime":214.89133299999997,"endTime":214.9456808333333,"instrument":1,"program":12},{"pitch":70,"velocity":95,"startTime":215.0543765,"endTime":215.10872433333333,"instrument":1,"program":12},{"pitch":79,"velocity":95,"startTime":215.21741999999998,"endTime":215.32611566666665,"instrument":1,"program":12},{"pitch":67,"velocity":95,"startTime":215.3804635,"endTime":215.43481133333333,"instrument":1,"program":12},{"pitch":70,"velocity":95,"startTime":215.54350699999998,"endTime":215.65220266666665,"instrument":1,"program":12},{"pitch":67,"velocity":95,"startTime":215.7065505,"endTime":215.81524616666664,"instrument":1,"program":12},{"pitch":70,"velocity":95,"startTime":215.86959399999998,"endTime":215.97828966666665,"instrument":1,"program":12},{"pitch":67,"velocity":95,"startTime":216.0326375,"endTime":216.14133316666664,"instrument":1,"program":12},{"pitch":70,"velocity":95,"startTime":216.19568099999998,"endTime":216.30437666666666,"instrument":1,"program":12},{"pitch":67,"velocity":95,"startTime":216.3587245,"endTime":216.46742016666664,"instrument":1,"program":12},{"pitch":70,"velocity":95,"startTime":216.52176799999998,"endTime":216.6848115,"instrument":1,"program":12},{"pitch":67,"velocity":95,"startTime":216.6848115,"endTime":216.79350716666664,"instrument":1,"program":12},{"pitch":70,"velocity":95,"startTime":216.84785499999998,"endTime":216.95655066666666,"instrument":1,"program":12},{"pitch":74,"velocity":95,"startTime":217.0108985,"endTime":217.0652463333333,"instrument":1,"program":12},{"pitch":79,"velocity":95,"startTime":217.17394199999998,"endTime":217.28263766666666,"instrument":1,"program":12},{"pitch":70,"velocity":95,"startTime":217.3369855,"endTime":217.3913333333333,"instrument":1,"program":12},{"pitch":70,"velocity":95,"startTime":217.50002899999998,"endTime":217.55437683333332,"instrument":1,"program":12},{"pitch":67,"velocity":95,"startTime":217.66307249999997,"endTime":217.7174203333333,"instrument":1,"program":12},{"pitch":70,"velocity":95,"startTime":217.82611599999998,"endTime":217.93481166666666,"instrument":1,"program":12},{"pitch":67,"velocity":95,"startTime":217.98915949999997,"endTime":218.09785516666665,"instrument":1,"program":12},{"pitch":70,"velocity":95,"startTime":218.152203,"endTime":218.20655083333332,"instrument":1,"program":12},{"pitch":74,"velocity":95,"startTime":218.31524649999997,"endTime":218.3695943333333,"instrument":1,"program":12},{"pitch":70,"velocity":95,"startTime":218.47829,"endTime":218.53263783333333,"instrument":1,"program":12},{"pitch":67,"velocity":95,"startTime":218.64133349999997,"endTime":218.6956813333333,"instrument":1,"program":12},{"pitch":70,"velocity":95,"startTime":218.804377,"endTime":218.85872483333333,"instrument":1,"program":12},{"pitch":70,"velocity":95,"startTime":218.96742049999997,"endTime":219.0217683333333,"instrument":1,"program":12},{"pitch":62,"velocity":95,"startTime":219.130464,"endTime":219.29350749999998,"instrument":1,"program":12},{"pitch":69,"velocity":95,"startTime":219.29350749999998,"endTime":219.40220316666665,"instrument":1,"program":12},{"pitch":72,"velocity":95,"startTime":219.456551,"endTime":219.56524666666664,"instrument":1,"program":12},{"pitch":72,"velocity":95,"startTime":219.61959449999998,"endTime":219.67394233333331,"instrument":1,"program":12},{"pitch":69,"velocity":95,"startTime":219.782638,"endTime":219.89133366666664,"instrument":1,"program":12},{"pitch":72,"velocity":95,"startTime":219.94568149999998,"endTime":220.05437716666665,"instrument":1,"program":12},{"pitch":69,"velocity":95,"startTime":220.108725,"endTime":220.21742066666664,"instrument":1,"program":12},{"pitch":72,"velocity":95,"startTime":220.27176849999998,"endTime":220.38046416666666,"instrument":1,"program":12},{"pitch":69,"velocity":95,"startTime":220.434812,"endTime":220.54350766666664,"instrument":1,"program":12},{"pitch":72,"velocity":95,"startTime":220.59785549999998,"endTime":220.70655116666666,"instrument":1,"program":12},{"pitch":72,"velocity":95,"startTime":220.760899,"endTime":220.86959466666664,"instrument":1,"program":12},{"pitch":69,"velocity":95,"startTime":220.92394249999998,"endTime":220.97829033333332,"instrument":1,"program":12},{"pitch":74,"velocity":95,"startTime":221.086986,"endTime":221.19568166666664,"instrument":1,"program":12},{"pitch":69,"velocity":95,"startTime":221.25002949999998,"endTime":221.30437733333332,"instrument":1,"program":12},{"pitch":72,"velocity":95,"startTime":221.413073,"endTime":221.4674208333333,"instrument":1,"program":12},{"pitch":69,"velocity":95,"startTime":221.57611649999998,"endTime":221.63046433333332,"instrument":1,"program":12},{"pitch":69,"velocity":95,"startTime":221.73915999999997,"endTime":221.90220349999998,"instrument":1,"program":12},{"pitch":72,"velocity":95,"startTime":221.90220349999998,"endTime":222.01089916666666,"instrument":1,"program":12},{"pitch":72,"velocity":95,"startTime":222.06524699999997,"endTime":222.1195948333333,"instrument":1,"program":12},{"pitch":69,"velocity":95,"startTime":222.22829049999999,"endTime":222.28263833333332,"instrument":1,"program":12},{"pitch":72,"velocity":95,"startTime":222.39133399999997,"endTime":222.50002966666665,"instrument":1,"program":12},{"pitch":69,"velocity":95,"startTime":222.5543775,"endTime":222.60872533333333,"instrument":1,"program":12},{"pitch":72,"velocity":95,"startTime":222.71742099999997,"endTime":222.7717688333333,"instrument":1,"program":12},{"pitch":69,"velocity":95,"startTime":222.8804645,"endTime":222.93481233333333,"instrument":1,"program":12},{"pitch":74,"velocity":95,"startTime":223.04350799999997,"endTime":223.15220366666665,"instrument":1,"program":12},{"pitch":69,"velocity":95,"startTime":223.2065515,"endTime":223.31524716666664,"instrument":1,"program":12},{"pitch":72,"velocity":95,"startTime":223.36959499999998,"endTime":223.4239428333333,"instrument":1,"program":12},{"pitch":69,"velocity":95,"startTime":223.5326385,"endTime":223.58698633333333,"instrument":1,"program":12},{"pitch":72,"velocity":95,"startTime":223.69568199999998,"endTime":223.80437766666665,"instrument":1,"program":12},{"pitch":69,"velocity":95,"startTime":223.8587255,"endTime":223.96742116666664,"instrument":1,"program":12},{"pitch":72,"velocity":95,"startTime":224.02176899999998,"endTime":224.13046466666665,"instrument":1,"program":12},{"pitch":72,"velocity":95,"startTime":224.1848125,"endTime":224.29350816666664,"instrument":1,"program":12},{"pitch":70,"velocity":95,"startTime":224.34785599999998,"endTime":224.5108995,"instrument":1,"program":12},{"pitch":67,"velocity":95,"startTime":224.5108995,"endTime":224.61959516666664,"instrument":1,"program":12},{"pitch":70,"velocity":95,"startTime":224.67394299999998,"endTime":224.78263866666666,"instrument":1,"program":12},{"pitch":67,"velocity":95,"startTime":224.8369865,"endTime":224.8913343333333,"instrument":1,"program":12},{"pitch":70,"velocity":95,"startTime":225.00002999999998,"endTime":225.10872566666666,"instrument":1,"program":12},{"pitch":67,"velocity":95,"startTime":225.1630735,"endTime":225.27176916666664,"instrument":1,"program":12},{"pitch":70,"velocity":95,"startTime":225.32611699999998,"endTime":225.43481266666666,"instrument":1,"program":12},{"pitch":70,"velocity":95,"startTime":225.4891605,"endTime":225.59785616666665,"instrument":1,"program":12},{"pitch":74,"velocity":95,"startTime":225.65220399999998,"endTime":225.76089966666666,"instrument":1,"program":12},{"pitch":67,"velocity":95,"startTime":225.81524749999997,"endTime":225.8695953333333,"instrument":1,"program":12},{"pitch":70,"velocity":95,"startTime":225.97829099999998,"endTime":226.03263883333332,"instrument":1,"program":12},{"pitch":70,"velocity":95,"startTime":226.14133449999997,"endTime":226.1956823333333,"instrument":1,"program":12},{"pitch":67,"velocity":95,"startTime":226.30437799999999,"endTime":226.41307366666666,"instrument":1,"program":12},{"pitch":70,"velocity":95,"startTime":226.46742149999997,"endTime":226.5217693333333,"instrument":1,"program":12},{"pitch":67,"velocity":95,"startTime":226.630465,"endTime":226.68481283333332,"instrument":1,"program":12},{"pitch":70,"velocity":95,"startTime":226.79350849999997,"endTime":226.8478563333333,"instrument":1,"program":12},{"pitch":67,"velocity":95,"startTime":226.956552,"endTime":227.11959549999997,"instrument":1,"program":12},{"pitch":62,"velocity":95,"startTime":227.11959549999997,"endTime":227.22829116666665,"instrument":1,"program":12},{"pitch":65,"velocity":95,"startTime":227.282639,"endTime":227.39133466666664,"instrument":1,"program":12},{"pitch":67,"velocity":95,"startTime":227.44568249999998,"endTime":227.55437816666665,"instrument":1,"program":12},{"pitch":74,"velocity":95,"startTime":227.608726,"endTime":227.71742166666664,"instrument":1,"program":12},{"pitch":67,"velocity":95,"startTime":227.77176949999998,"endTime":227.88046516666665,"instrument":1,"program":12},{"pitch":65,"velocity":95,"startTime":227.934813,"endTime":228.04350866666664,"instrument":1,"program":12},{"pitch":70,"velocity":95,"startTime":228.09785649999998,"endTime":228.15220433333332,"instrument":1,"program":12},{"pitch":67,"velocity":95,"startTime":228.2609,"endTime":228.36959566666664,"instrument":1,"program":12},{"pitch":70,"velocity":95,"startTime":228.42394349999998,"endTime":228.53263916666666,"instrument":1,"program":12},{"pitch":74,"velocity":95,"startTime":228.586987,"endTime":228.69568266666664,"instrument":1,"program":12},{"pitch":65,"velocity":95,"startTime":228.75003049999998,"endTime":228.80437833333332,"instrument":1,"program":12},{"pitch":62,"velocity":95,"startTime":228.913074,"endTime":229.02176966666664,"instrument":1,"program":12},{"pitch":70,"velocity":95,"startTime":229.07611749999998,"endTime":229.18481316666666,"instrument":1,"program":12},{"pitch":65,"velocity":95,"startTime":229.239161,"endTime":229.34785666666664,"instrument":1,"program":12},{"pitch":67,"velocity":95,"startTime":229.40220449999998,"endTime":229.45655233333332,"instrument":1,"program":12},{"pitch":38,"velocity":110,"startTime":208.69567999999998,"endTime":209.02176699999998,"instrument":2,"program":32},{"pitch":42,"velocity":110,"startTime":209.1848105,"endTime":209.34785399999998,"instrument":2,"program":32},{"pitch":38,"velocity":110,"startTime":209.51089749999997,"endTime":209.67394099999999,"instrument":2,"program":32},{"pitch":38,"velocity":110,"startTime":209.67394099999999,"endTime":209.83698449999997,"instrument":2,"program":32},{"pitch":33,"velocity":110,"startTime":210.000028,"endTime":210.16307149999997,"instrument":2,"program":32},{"pitch":33,"velocity":110,"startTime":210.326115,"endTime":210.48915849999997,"instrument":2,"program":32},{"pitch":33,"velocity":110,"startTime":210.652202,"endTime":210.81524549999997,"instrument":2,"program":32},{"pitch":38,"velocity":110,"startTime":211.14133249999998,"endTime":211.304376,"instrument":2,"program":32},{"pitch":38,"velocity":110,"startTime":211.46741949999998,"endTime":211.630463,"instrument":2,"program":32},{"pitch":35,"velocity":110,"startTime":211.79350649999998,"endTime":211.95655,"instrument":2,"program":32},{"pitch":30,"velocity":110,"startTime":212.11959349999998,"endTime":212.282637,"instrument":2,"program":32},{"pitch":38,"velocity":110,"startTime":212.282637,"endTime":212.44568049999998,"instrument":2,"program":32},{"pitch":38,"velocity":110,"startTime":212.608724,"endTime":212.77176749999998,"instrument":2,"program":32},{"pitch":45,"velocity":110,"startTime":212.934811,"endTime":213.09785449999998,"instrument":2,"program":32},{"pitch":42,"velocity":110,"startTime":213.260898,"endTime":213.42394149999998,"instrument":2,"program":32},{"pitch":42,"velocity":110,"startTime":213.58698499999997,"endTime":213.75002849999998,"instrument":2,"program":32},{"pitch":31,"velocity":110,"startTime":213.91307199999997,"endTime":214.23915899999997,"instrument":2,"program":32},{"pitch":31,"velocity":110,"startTime":214.4022025,"endTime":214.56524599999997,"instrument":2,"program":32},{"pitch":34,"velocity":110,"startTime":214.7282895,"endTime":214.89133299999997,"instrument":2,"program":32},{"pitch":38,"velocity":110,"startTime":214.89133299999997,"endTime":215.0543765,"instrument":2,"program":32},{"pitch":34,"velocity":110,"startTime":215.21741999999998,"endTime":215.3804635,"instrument":2,"program":32},{"pitch":34,"velocity":110,"startTime":215.3804635,"endTime":215.54350699999998,"instrument":2,"program":32},{"pitch":34,"velocity":110,"startTime":215.7065505,"endTime":215.86959399999998,"instrument":2,"program":32},{"pitch":34,"velocity":110,"startTime":216.0326375,"endTime":216.19568099999998,"instrument":2,"program":32},{"pitch":38,"velocity":110,"startTime":216.19568099999998,"endTime":216.3587245,"instrument":2,"program":32},{"pitch":31,"velocity":110,"startTime":216.52176799999998,"endTime":216.84785499999998,"instrument":2,"program":32},{"pitch":31,"velocity":110,"startTime":217.0108985,"endTime":217.17394199999998,"instrument":2,"program":32},{"pitch":38,"velocity":110,"startTime":217.3369855,"endTime":217.50002899999998,"instrument":2,"program":32},{"pitch":50,"velocity":110,"startTime":217.50002899999998,"endTime":217.66307249999997,"instrument":2,"program":32},{"pitch":43,"velocity":110,"startTime":217.82611599999998,"endTime":218.152203,"instrument":2,"program":32},{"pitch":38,"velocity":110,"startTime":218.31524649999997,"endTime":218.47829,"instrument":2,"program":32},{"pitch":38,"velocity":110,"startTime":218.64133349999997,"endTime":218.804377,"instrument":2,"program":32},{"pitch":34,"velocity":110,"startTime":218.804377,"endTime":218.96742049999997,"instrument":2,"program":32},{"pitch":38,"velocity":110,"startTime":219.130464,"endTime":219.456551,"instrument":2,"program":32},{"pitch":50,"velocity":110,"startTime":219.61959449999998,"endTime":219.782638,"instrument":2,"program":32},{"pitch":50,"velocity":110,"startTime":219.94568149999998,"endTime":220.108725,"instrument":2,"program":32},{"pitch":38,"velocity":110,"startTime":220.108725,"endTime":220.27176849999998,"instrument":2,"program":32},{"pitch":38,"velocity":110,"startTime":220.434812,"endTime":220.59785549999998,"instrument":2,"program":32},{"pitch":38,"velocity":110,"startTime":220.760899,"endTime":220.92394249999998,"instrument":2,"program":32},{"pitch":38,"velocity":110,"startTime":221.086986,"endTime":221.25002949999998,"instrument":2,"program":32},{"pitch":50,"velocity":110,"startTime":221.413073,"endTime":221.57611649999998,"instrument":2,"program":32},{"pitch":38,"velocity":110,"startTime":221.73915999999997,"endTime":222.06524699999997,"instrument":2,"program":32},{"pitch":38,"velocity":110,"startTime":222.22829049999999,"endTime":222.39133399999997,"instrument":2,"program":32},{"pitch":38,"velocity":110,"startTime":222.5543775,"endTime":222.71742099999997,"instrument":2,"program":32},{"pitch":38,"velocity":110,"startTime":222.71742099999997,"endTime":222.8804645,"instrument":2,"program":32},{"pitch":38,"velocity":110,"startTime":223.04350799999997,"endTime":223.2065515,"instrument":2,"program":32},{"pitch":38,"velocity":110,"startTime":223.36959499999998,"endTime":223.5326385,"instrument":2,"program":32},{"pitch":38,"velocity":110,"startTime":223.69568199999998,"endTime":223.8587255,"instrument":2,"program":32},{"pitch":38,"velocity":110,"startTime":224.02176899999998,"endTime":224.1848125,"instrument":2,"program":32},{"pitch":31,"velocity":110,"startTime":224.34785599999998,"endTime":224.67394299999998,"instrument":2,"program":32},{"pitch":31,"velocity":110,"startTime":224.8369865,"endTime":225.00002999999998,"instrument":2,"program":32},{"pitch":31,"velocity":110,"startTime":225.1630735,"endTime":225.32611699999998,"instrument":2,"program":32},{"pitch":34,"velocity":110,"startTime":225.32611699999998,"endTime":225.4891605,"instrument":2,"program":32},{"pitch":31,"velocity":110,"startTime":225.65220399999998,"endTime":225.81524749999997,"instrument":2,"program":32},{"pitch":31,"velocity":110,"startTime":225.97829099999998,"endTime":226.14133449999997,"instrument":2,"program":32},{"pitch":31,"velocity":110,"startTime":226.30437799999999,"endTime":226.46742149999997,"instrument":2,"program":32},{"pitch":31,"velocity":110,"startTime":226.630465,"endTime":226.79350849999997,"instrument":2,"program":32},{"pitch":31,"velocity":110,"startTime":226.956552,"endTime":227.282639,"instrument":2,"program":32},{"pitch":31,"velocity":110,"startTime":227.44568249999998,"endTime":227.608726,"instrument":2,"program":32},{"pitch":31,"velocity":110,"startTime":227.77176949999998,"endTime":227.934813,"instrument":2,"program":32},{"pitch":31,"velocity":110,"startTime":227.934813,"endTime":228.09785649999998,"instrument":2,"program":32},{"pitch":34,"velocity":110,"startTime":228.2609,"endTime":228.42394349999998,"instrument":2,"program":32},{"pitch":31,"velocity":110,"startTime":228.586987,"endTime":228.75003049999998,"instrument":2,"program":32},{"pitch":31,"velocity":110,"startTime":228.913074,"endTime":229.07611749999998,"instrument":2,"program":32},{"pitch":29,"velocity":110,"startTime":229.239161,"endTime":229.40220449999998,"instrument":2,"program":32},{"pitch":58,"velocity":105,"startTime":208.69567999999998,"endTime":211.304376,"instrument":3,"program":50},{"pitch":60,"velocity":105,"startTime":208.69567999999998,"endTime":211.304376,"instrument":3,"program":50},{"pitch":64,"velocity":105,"startTime":208.69567999999998,"endTime":211.304376,"instrument":3,"program":50},{"pitch":66,"velocity":105,"startTime":208.69567999999998,"endTime":211.304376,"instrument":3,"program":50},{"pitch":58,"velocity":105,"startTime":211.304376,"endTime":211.79350649999998,"instrument":3,"program":50},{"pitch":62,"velocity":105,"startTime":211.304376,"endTime":211.84785433333332,"instrument":3,"program":50},{"pitch":66,"velocity":105,"startTime":211.304376,"endTime":212.44568049999998,"instrument":3,"program":50},{"pitch":69,"velocity":105,"startTime":211.304376,"endTime":211.84785433333332,"instrument":3,"program":50},{"pitch":54,"velocity":105,"startTime":211.630463,"endTime":211.84785433333332,"instrument":3,"program":50},{"pitch":57,"velocity":105,"startTime":211.95655,"endTime":213.80437633333332,"instrument":3,"program":50},{"pitch":60,"velocity":105,"startTime":211.95655,"endTime":212.50002833333332,"instrument":3,"program":50},{"pitch":66,"velocity":105,"startTime":212.50002833333332,"endTime":213.75002849999998,"instrument":3,"program":50},{"pitch":72,"velocity":105,"startTime":212.608724,"endTime":213.75002849999998,"instrument":3,"program":50},{"pitch":69,"velocity":105,"startTime":212.6630718333333,"endTime":212.82611533333332,"instrument":3,"program":50},{"pitch":68,"velocity":105,"startTime":212.934811,"endTime":213.80437633333332,"instrument":3,"program":50},{"pitch":62,"velocity":105,"startTime":213.91307199999997,"endTime":216.52176799999998,"instrument":3,"program":50},{"pitch":67,"velocity":105,"startTime":213.91307199999997,"endTime":216.52176799999998,"instrument":3,"program":50},{"pitch":70,"velocity":105,"startTime":213.91307199999997,"endTime":216.52176799999998,"instrument":3,"program":50},{"pitch":74,"velocity":105,"startTime":213.91307199999997,"endTime":216.52176799999998,"instrument":3,"program":50},{"pitch":62,"velocity":105,"startTime":216.52176799999998,"endTime":218.0435073333333,"instrument":3,"program":50},{"pitch":65,"velocity":105,"startTime":216.52176799999998,"endTime":218.26089866666666,"instrument":3,"program":50},{"pitch":67,"velocity":105,"startTime":216.52176799999998,"endTime":218.91307266666664,"instrument":3,"program":50},{"pitch":70,"velocity":105,"startTime":216.52176799999998,"endTime":218.96742049999997,"instrument":3,"program":50},{"pitch":62,"velocity":105,"startTime":218.31524649999997,"endTime":218.47829,"instrument":3,"program":50},{"pitch":55,"velocity":105,"startTime":218.47829,"endTime":218.96742049999997,"instrument":3,"program":50},{"pitch":62,"velocity":105,"startTime":218.804377,"endTime":218.96742049999997,"instrument":3,"program":50},{"pitch":60,"velocity":105,"startTime":219.130464,"endTime":221.73915999999997,"instrument":3,"program":50},{"pitch":62,"velocity":105,"startTime":219.130464,"endTime":221.73915999999997,"instrument":3,"program":50},{"pitch":66,"velocity":105,"startTime":219.130464,"endTime":221.73915999999997,"instrument":3,"program":50},{"pitch":69,"velocity":105,"startTime":219.130464,"endTime":221.73915999999997,"instrument":3,"program":50},{"pitch":60,"velocity":105,"startTime":221.73915999999997,"endTime":224.13046466666665,"instrument":3,"program":50},{"pitch":62,"velocity":105,"startTime":221.73915999999997,"endTime":224.1848125,"instrument":3,"program":50},{"pitch":66,"velocity":105,"startTime":221.73915999999997,"endTime":224.1848125,"instrument":3,"program":50},{"pitch":69,"velocity":105,"startTime":221.73915999999997,"endTime":224.1848125,"instrument":3,"program":50},{"pitch":62,"velocity":105,"startTime":224.34785599999998,"endTime":226.68481283333332,"instrument":3,"program":50},{"pitch":67,"velocity":105,"startTime":224.34785599999998,"endTime":226.73916066666666,"instrument":3,"program":50},{"pitch":70,"velocity":105,"startTime":224.34785599999998,"endTime":226.73916066666666,"instrument":3,"program":50},{"pitch":62,"velocity":105,"startTime":227.608726,"endTime":227.71742166666664,"instrument":3,"program":50},{"pitch":67,"velocity":105,"startTime":227.608726,"endTime":227.71742166666664,"instrument":3,"program":50},{"pitch":74,"velocity":105,"startTime":227.608726,"endTime":227.77176949999998,"instrument":3,"program":50},{"pitch":62,"velocity":105,"startTime":227.77176949999998,"endTime":227.98916083333333,"instrument":3,"program":50},{"pitch":67,"velocity":105,"startTime":227.77176949999998,"endTime":227.98916083333333,"instrument":3,"program":50},{"pitch":74,"velocity":105,"startTime":227.77176949999998,"endTime":227.98916083333333,"instrument":3,"program":50},{"pitch":62,"velocity":105,"startTime":228.2609,"endTime":228.586987,"instrument":3,"program":50},{"pitch":67,"velocity":105,"startTime":228.2609,"endTime":228.586987,"instrument":3,"program":50},{"pitch":74,"velocity":105,"startTime":228.2609,"endTime":228.586987,"instrument":3,"program":50},{"pitch":62,"velocity":105,"startTime":228.586987,"endTime":229.45655233333332,"instrument":3,"program":50},{"pitch":67,"velocity":105,"startTime":228.586987,"endTime":229.565248,"instrument":3,"program":50},{"pitch":74,"velocity":105,"startTime":228.586987,"endTime":229.51090016666666,"instrument":3,"program":50},{"pitch":62,"velocity":105,"startTime":229.45655233333332,"endTime":229.565248,"instrument":3,"program":50},{"pitch":35,"velocity":102,"startTime":229.565248,"endTime":229.67394366666664,"isDrum":true},{"pitch":42,"velocity":102,"startTime":229.565248,"endTime":229.67394366666664,"isDrum":true},{"pitch":51,"velocity":102,"startTime":229.565248,"endTime":229.67394366666664,"isDrum":true},{"pitch":42,"velocity":102,"startTime":229.89133499999997,"endTime":230.00003066666665,"isDrum":true},{"pitch":51,"velocity":102,"startTime":229.89133499999997,"endTime":230.00003066666665,"isDrum":true},{"pitch":42,"velocity":102,"startTime":231.19568299999997,"endTime":231.30437866666665,"isDrum":true},{"pitch":51,"velocity":102,"startTime":231.19568299999997,"endTime":231.30437866666665,"isDrum":true},{"pitch":35,"velocity":102,"startTime":231.3587265,"endTime":231.46742216666664,"isDrum":true},{"pitch":51,"velocity":102,"startTime":231.3587265,"endTime":231.46742216666664,"isDrum":true},{"pitch":35,"velocity":102,"startTime":231.52176999999998,"endTime":231.63046566666665,"isDrum":true},{"pitch":42,"velocity":102,"startTime":231.52176999999998,"endTime":231.63046566666665,"isDrum":true},{"pitch":51,"velocity":102,"startTime":231.52176999999998,"endTime":231.63046566666665,"isDrum":true},{"pitch":42,"velocity":102,"startTime":231.84785699999998,"endTime":231.95655266666665,"isDrum":true},{"pitch":51,"velocity":102,"startTime":231.84785699999998,"endTime":231.95655266666665,"isDrum":true},{"pitch":51,"velocity":102,"startTime":232.0109005,"endTime":232.11959616666664,"isDrum":true},{"pitch":40,"velocity":102,"startTime":232.17394399999998,"endTime":232.28263966666665,"isDrum":true},{"pitch":42,"velocity":102,"startTime":232.17394399999998,"endTime":232.28263966666665,"isDrum":true},{"pitch":35,"velocity":102,"startTime":232.50003099999998,"endTime":232.60872666666666,"isDrum":true},{"pitch":42,"velocity":102,"startTime":232.50003099999998,"endTime":232.60872666666666,"isDrum":true},{"pitch":51,"velocity":102,"startTime":232.50003099999998,"endTime":232.60872666666666,"isDrum":true},{"pitch":40,"velocity":102,"startTime":232.6630745,"endTime":232.77177016666664,"isDrum":true},{"pitch":35,"velocity":102,"startTime":232.82611799999998,"endTime":232.93481366666666,"isDrum":true},{"pitch":42,"velocity":102,"startTime":232.82611799999998,"endTime":232.93481366666666,"isDrum":true},{"pitch":51,"velocity":102,"startTime":232.82611799999998,"endTime":232.93481366666666,"isDrum":true},{"pitch":35,"velocity":102,"startTime":233.15220499999998,"endTime":233.26090066666666,"isDrum":true},{"pitch":42,"velocity":102,"startTime":233.15220499999998,"endTime":233.26090066666666,"isDrum":true},{"pitch":51,"velocity":102,"startTime":233.15220499999998,"endTime":233.26090066666666,"isDrum":true},{"pitch":40,"velocity":102,"startTime":233.3152485,"endTime":233.42394416666664,"isDrum":true},{"pitch":40,"velocity":102,"startTime":233.47829199999998,"endTime":233.58698766666666,"isDrum":true},{"pitch":42,"velocity":102,"startTime":233.47829199999998,"endTime":233.58698766666666,"isDrum":true},{"pitch":42,"velocity":102,"startTime":233.80437899999998,"endTime":233.91307466666666,"isDrum":true},{"pitch":51,"velocity":102,"startTime":233.80437899999998,"endTime":233.91307466666666,"isDrum":true},{"pitch":40,"velocity":102,"startTime":233.96742249999997,"endTime":234.07611816666665,"isDrum":true},{"pitch":35,"velocity":102,"startTime":234.13046599999998,"endTime":234.23916166666666,"isDrum":true},{"pitch":42,"velocity":102,"startTime":234.13046599999998,"endTime":234.23916166666666,"isDrum":true},{"pitch":35,"velocity":102,"startTime":234.45655299999999,"endTime":234.56524866666666,"isDrum":true},{"pitch":42,"velocity":102,"startTime":234.45655299999999,"endTime":234.56524866666666,"isDrum":true},{"pitch":51,"velocity":102,"startTime":234.45655299999999,"endTime":234.56524866666666,"isDrum":true},{"pitch":40,"velocity":102,"startTime":234.61959649999997,"endTime":234.72829216666665,"isDrum":true},{"pitch":40,"velocity":102,"startTime":234.78264,"endTime":234.89133566666666,"isDrum":true},{"pitch":42,"velocity":102,"startTime":234.78264,"endTime":234.89133566666666,"isDrum":true},{"pitch":35,"velocity":102,"startTime":235.108727,"endTime":235.21742266666664,"isDrum":true},{"pitch":42,"velocity":102,"startTime":235.108727,"endTime":235.21742266666664,"isDrum":true},{"pitch":51,"velocity":102,"startTime":235.108727,"endTime":235.21742266666664,"isDrum":true},{"pitch":35,"velocity":102,"startTime":235.434814,"endTime":235.54350966666664,"isDrum":true},{"pitch":42,"velocity":102,"startTime":235.434814,"endTime":235.54350966666664,"isDrum":true},{"pitch":51,"velocity":102,"startTime":235.434814,"endTime":235.54350966666664,"isDrum":true},{"pitch":42,"velocity":102,"startTime":235.760901,"endTime":235.86959666666664,"isDrum":true},{"pitch":40,"velocity":102,"startTime":236.086988,"endTime":236.19568366666664,"isDrum":true},{"pitch":42,"velocity":102,"startTime":236.086988,"endTime":236.19568366666664,"isDrum":true},{"pitch":42,"velocity":102,"startTime":236.413075,"endTime":236.52177066666664,"isDrum":true},{"pitch":51,"velocity":102,"startTime":236.413075,"endTime":236.52177066666664,"isDrum":true},{"pitch":35,"velocity":102,"startTime":236.57611849999998,"endTime":236.68481416666665,"isDrum":true},{"pitch":35,"velocity":102,"startTime":236.739162,"endTime":236.84785766666664,"isDrum":true},{"pitch":42,"velocity":102,"startTime":236.739162,"endTime":236.84785766666664,"isDrum":true},{"pitch":51,"velocity":102,"startTime":236.739162,"endTime":236.84785766666664,"isDrum":true},{"pitch":35,"velocity":102,"startTime":237.065249,"endTime":237.17394466666664,"isDrum":true},{"pitch":42,"velocity":102,"startTime":237.065249,"endTime":237.17394466666664,"isDrum":true},{"pitch":51,"velocity":102,"startTime":237.065249,"endTime":237.17394466666664,"isDrum":true},{"pitch":40,"velocity":102,"startTime":237.391336,"endTime":237.50003166666664,"isDrum":true},{"pitch":42,"velocity":102,"startTime":237.391336,"endTime":237.50003166666664,"isDrum":true},{"pitch":35,"velocity":102,"startTime":237.71742299999997,"endTime":237.82611866666664,"isDrum":true},{"pitch":42,"velocity":102,"startTime":237.71742299999997,"endTime":237.82611866666664,"isDrum":true},{"pitch":51,"velocity":102,"startTime":237.71742299999997,"endTime":237.82611866666664,"isDrum":true},{"pitch":35,"velocity":102,"startTime":238.04350999999997,"endTime":238.15220566666665,"isDrum":true},{"pitch":42,"velocity":102,"startTime":238.04350999999997,"endTime":238.15220566666665,"isDrum":true},{"pitch":51,"velocity":102,"startTime":238.04350999999997,"endTime":238.15220566666665,"isDrum":true},{"pitch":42,"velocity":102,"startTime":238.36959699999997,"endTime":238.47829266666665,"isDrum":true},{"pitch":51,"velocity":102,"startTime":238.36959699999997,"endTime":238.47829266666665,"isDrum":true},{"pitch":40,"velocity":102,"startTime":238.69568399999997,"endTime":238.80437966666665,"isDrum":true},{"pitch":42,"velocity":102,"startTime":238.69568399999997,"endTime":238.80437966666665,"isDrum":true},{"pitch":42,"velocity":102,"startTime":239.02177099999997,"endTime":239.13046666666665,"isDrum":true},{"pitch":51,"velocity":102,"startTime":239.02177099999997,"endTime":239.13046666666665,"isDrum":true},{"pitch":35,"velocity":102,"startTime":239.1848145,"endTime":239.29351016666664,"isDrum":true},{"pitch":35,"velocity":102,"startTime":239.34785799999997,"endTime":239.45655366666665,"isDrum":true},{"pitch":42,"velocity":102,"startTime":239.34785799999997,"endTime":239.45655366666665,"isDrum":true},{"pitch":51,"velocity":102,"startTime":239.34785799999997,"endTime":239.45655366666665,"isDrum":true},{"pitch":35,"velocity":102,"startTime":239.67394499999997,"endTime":239.78264066666665,"isDrum":true},{"pitch":42,"velocity":102,"startTime":239.67394499999997,"endTime":239.78264066666665,"isDrum":true},{"pitch":51,"velocity":102,"startTime":239.67394499999997,"endTime":239.78264066666665,"isDrum":true},{"pitch":40,"velocity":102,"startTime":240.00003199999998,"endTime":240.10872766666665,"isDrum":true},{"pitch":42,"velocity":102,"startTime":240.00003199999998,"endTime":240.10872766666665,"isDrum":true},{"pitch":35,"velocity":102,"startTime":240.32611899999998,"endTime":240.43481466666665,"isDrum":true},{"pitch":42,"velocity":102,"startTime":240.32611899999998,"endTime":240.43481466666665,"isDrum":true},{"pitch":51,"velocity":102,"startTime":240.32611899999998,"endTime":240.43481466666665,"isDrum":true},{"pitch":35,"velocity":102,"startTime":240.65220599999998,"endTime":240.76090166666665,"isDrum":true},{"pitch":42,"velocity":102,"startTime":240.65220599999998,"endTime":240.76090166666665,"isDrum":true},{"pitch":42,"velocity":102,"startTime":240.97829299999998,"endTime":241.08698866666666,"isDrum":true},{"pitch":51,"velocity":102,"startTime":240.97829299999998,"endTime":241.08698866666666,"isDrum":true},{"pitch":40,"velocity":102,"startTime":241.30437999999998,"endTime":241.41307566666666,"isDrum":true},{"pitch":42,"velocity":102,"startTime":241.30437999999998,"endTime":241.41307566666666,"isDrum":true},{"pitch":42,"velocity":102,"startTime":241.63046699999998,"endTime":241.73916266666666,"isDrum":true},{"pitch":51,"velocity":102,"startTime":241.63046699999998,"endTime":241.73916266666666,"isDrum":true},{"pitch":35,"velocity":102,"startTime":241.79351049999997,"endTime":241.90220616666664,"isDrum":true},{"pitch":35,"velocity":102,"startTime":241.95655399999998,"endTime":242.06524966666666,"isDrum":true},{"pitch":42,"velocity":102,"startTime":241.95655399999998,"endTime":242.06524966666666,"isDrum":true},{"pitch":35,"velocity":102,"startTime":242.28264099999998,"endTime":242.39133666666666,"isDrum":true},{"pitch":42,"velocity":102,"startTime":242.28264099999998,"endTime":242.39133666666666,"isDrum":true},{"pitch":51,"velocity":102,"startTime":242.28264099999998,"endTime":242.39133666666666,"isDrum":true},{"pitch":40,"velocity":102,"startTime":242.60872799999999,"endTime":242.71742366666666,"isDrum":true},{"pitch":42,"velocity":102,"startTime":242.60872799999999,"endTime":242.71742366666666,"isDrum":true},{"pitch":42,"velocity":102,"startTime":242.934815,"endTime":243.04351066666663,"isDrum":true},{"pitch":51,"velocity":102,"startTime":242.934815,"endTime":243.04351066666663,"isDrum":true},{"pitch":35,"velocity":102,"startTime":243.260902,"endTime":243.36959766666664,"isDrum":true},{"pitch":42,"velocity":102,"startTime":243.260902,"endTime":243.36959766666664,"isDrum":true},{"pitch":42,"velocity":102,"startTime":243.586989,"endTime":243.69568466666664,"isDrum":true},{"pitch":51,"velocity":102,"startTime":243.586989,"endTime":243.69568466666664,"isDrum":true},{"pitch":40,"velocity":102,"startTime":243.913076,"endTime":244.02177166666664,"isDrum":true},{"pitch":42,"velocity":102,"startTime":243.913076,"endTime":244.02177166666664,"isDrum":true},{"pitch":42,"velocity":102,"startTime":244.239163,"endTime":244.34785866666664,"isDrum":true},{"pitch":51,"velocity":102,"startTime":244.239163,"endTime":244.34785866666664,"isDrum":true},{"pitch":35,"velocity":102,"startTime":244.40220649999998,"endTime":244.51090216666665,"isDrum":true},{"pitch":35,"velocity":102,"startTime":244.56525,"endTime":244.67394566666664,"isDrum":true},{"pitch":42,"velocity":102,"startTime":244.56525,"endTime":244.67394566666664,"isDrum":true},{"pitch":42,"velocity":102,"startTime":244.891337,"endTime":245.00003266666664,"isDrum":true},{"pitch":40,"velocity":102,"startTime":245.217424,"endTime":245.32611966666664,"isDrum":true},{"pitch":42,"velocity":102,"startTime":245.217424,"endTime":245.32611966666664,"isDrum":true},{"pitch":42,"velocity":102,"startTime":245.543511,"endTime":245.65220666666664,"isDrum":true},{"pitch":35,"velocity":102,"startTime":245.86959799999997,"endTime":245.97829366666664,"isDrum":true},{"pitch":42,"velocity":102,"startTime":245.86959799999997,"endTime":245.97829366666664,"isDrum":true},{"pitch":42,"velocity":102,"startTime":246.19568499999997,"endTime":246.30438066666665,"isDrum":true},{"pitch":40,"velocity":102,"startTime":246.52177199999997,"endTime":246.63046766666665,"isDrum":true},{"pitch":42,"velocity":102,"startTime":246.52177199999997,"endTime":246.63046766666665,"isDrum":true},{"pitch":42,"velocity":102,"startTime":246.84785899999997,"endTime":246.95655466666665,"isDrum":true},{"pitch":35,"velocity":102,"startTime":247.0109025,"endTime":247.11959816666663,"isDrum":true},{"pitch":35,"velocity":102,"startTime":247.17394599999997,"endTime":247.28264166666665,"isDrum":true},{"pitch":42,"velocity":102,"startTime":247.17394599999997,"endTime":247.28264166666665,"isDrum":true},{"pitch":35,"velocity":102,"startTime":247.50003299999997,"endTime":247.60872866666665,"isDrum":true},{"pitch":42,"velocity":102,"startTime":247.50003299999997,"endTime":247.60872866666665,"isDrum":true},{"pitch":40,"velocity":102,"startTime":247.82611999999997,"endTime":247.93481566666665,"isDrum":true},{"pitch":42,"velocity":102,"startTime":247.82611999999997,"endTime":247.93481566666665,"isDrum":true},{"pitch":42,"velocity":102,"startTime":248.15220699999998,"endTime":248.26090266666665,"isDrum":true},{"pitch":35,"velocity":102,"startTime":248.3152505,"endTime":248.42394616666664,"isDrum":true},{"pitch":35,"velocity":102,"startTime":248.47829399999998,"endTime":248.58698966666665,"isDrum":true},{"pitch":42,"velocity":102,"startTime":248.47829399999998,"endTime":248.58698966666665,"isDrum":true},{"pitch":42,"velocity":102,"startTime":248.80438099999998,"endTime":248.91307666666665,"isDrum":true},{"pitch":40,"velocity":102,"startTime":249.13046799999998,"endTime":249.23916366666666,"isDrum":true},{"pitch":42,"velocity":102,"startTime":249.13046799999998,"endTime":249.23916366666666,"isDrum":true},{"pitch":35,"velocity":102,"startTime":249.45655499999998,"endTime":249.5584571875,"isDrum":true},{"pitch":42,"velocity":102,"startTime":249.45655499999998,"endTime":249.5584571875,"isDrum":true},{"pitch":51,"velocity":102,"startTime":249.45655499999998,"endTime":249.5584571875,"isDrum":true},{"pitch":60,"velocity":95,"startTime":229.565248,"endTime":229.67394366666664,"instrument":1,"program":12},{"pitch":63,"velocity":95,"startTime":229.72829149999998,"endTime":229.83698716666666,"instrument":1,"program":12},{"pitch":67,"velocity":95,"startTime":229.89133499999997,"endTime":230.00003066666665,"instrument":1,"program":12},{"pitch":60,"velocity":95,"startTime":230.05437849999998,"endTime":230.10872633333332,"instrument":1,"program":12},{"pitch":63,"velocity":95,"startTime":230.21742199999997,"endTime":230.32611766666665,"instrument":1,"program":12},{"pitch":67,"velocity":95,"startTime":230.38046549999999,"endTime":230.48916116666666,"instrument":1,"program":12},{"pitch":72,"velocity":95,"startTime":230.54350899999997,"endTime":230.65220466666665,"instrument":1,"program":12},{"pitch":63,"velocity":95,"startTime":230.7065525,"endTime":230.76090033333332,"instrument":1,"program":12},{"pitch":60,"velocity":95,"startTime":230.86959599999997,"endTime":230.97829166666665,"instrument":1,"program":12},{"pitch":67,"velocity":95,"startTime":231.0326395,"endTime":231.14133516666664,"instrument":1,"program":12},{"pitch":63,"velocity":95,"startTime":231.19568299999997,"endTime":231.30437866666665,"instrument":1,"program":12},{"pitch":60,"velocity":95,"startTime":231.3587265,"endTime":231.41307433333333,"instrument":1,"program":12},{"pitch":63,"velocity":95,"startTime":231.52176999999998,"endTime":231.63046566666665,"instrument":1,"program":12},{"pitch":67,"velocity":95,"startTime":231.6848135,"endTime":231.79350916666664,"instrument":1,"program":12},{"pitch":60,"velocity":95,"startTime":231.84785699999998,"endTime":231.95655266666665,"instrument":1,"program":12},{"pitch":63,"velocity":95,"startTime":232.0109005,"endTime":232.11959616666664,"instrument":1,"program":12},{"pitch":60,"velocity":95,"startTime":232.17394399999998,"endTime":232.28263966666665,"instrument":1,"program":12},{"pitch":63,"velocity":95,"startTime":232.3369875,"endTime":232.44568316666664,"instrument":1,"program":12},{"pitch":67,"velocity":95,"startTime":232.50003099999998,"endTime":232.60872666666666,"instrument":1,"program":12},{"pitch":60,"velocity":95,"startTime":232.6630745,"endTime":232.7174223333333,"instrument":1,"program":12},{"pitch":75,"velocity":95,"startTime":232.82611799999998,"endTime":232.93481366666666,"instrument":1,"program":12},{"pitch":75,"velocity":95,"startTime":232.9891615,"endTime":233.0435093333333,"instrument":1,"program":12},{"pitch":72,"velocity":95,"startTime":233.3152485,"endTime":233.3695963333333,"instrument":1,"program":12},{"pitch":75,"velocity":95,"startTime":233.47829199999998,"endTime":233.58698766666666,"instrument":1,"program":12},{"pitch":72,"velocity":95,"startTime":233.64133549999997,"endTime":233.6956833333333,"instrument":1,"program":12},{"pitch":63,"velocity":95,"startTime":233.80437899999998,"endTime":233.91307466666666,"instrument":1,"program":12},{"pitch":70,"velocity":95,"startTime":233.96742249999997,"endTime":234.07611816666665,"instrument":1,"program":12},{"pitch":60,"velocity":95,"startTime":234.13046599999998,"endTime":234.23916166666666,"instrument":1,"program":12},{"pitch":63,"velocity":95,"startTime":234.29350949999997,"endTime":234.40220516666665,"instrument":1,"program":12},{"pitch":67,"velocity":95,"startTime":234.45655299999999,"endTime":234.56524866666666,"instrument":1,"program":12},{"pitch":67,"velocity":95,"startTime":234.61959649999997,"endTime":234.6739443333333,"instrument":1,"program":12},{"pitch":62,"velocity":95,"startTime":234.78264,"endTime":234.89133566666666,"instrument":1,"program":12},{"pitch":70,"velocity":95,"startTime":234.94568349999997,"endTime":235.05437916666665,"instrument":1,"program":12},{"pitch":74,"velocity":95,"startTime":235.108727,"endTime":235.21742266666664,"instrument":1,"program":12},{"pitch":70,"velocity":95,"startTime":235.27177049999997,"endTime":235.38046616666665,"instrument":1,"program":12},{"pitch":62,"velocity":95,"startTime":235.434814,"endTime":235.54350966666664,"instrument":1,"program":12},{"pitch":70,"velocity":95,"startTime":235.59785749999998,"endTime":235.70655316666665,"instrument":1,"program":12},{"pitch":74,"velocity":95,"startTime":235.760901,"endTime":235.86959666666664,"instrument":1,"program":12},{"pitch":70,"velocity":95,"startTime":235.92394449999998,"endTime":236.03264016666665,"instrument":1,"program":12},{"pitch":62,"velocity":95,"startTime":236.086988,"endTime":236.19568366666664,"instrument":1,"program":12},{"pitch":70,"velocity":95,"startTime":236.25003149999998,"endTime":236.35872716666665,"instrument":1,"program":12},{"pitch":74,"velocity":95,"startTime":236.413075,"endTime":236.52177066666664,"instrument":1,"program":12},{"pitch":70,"velocity":95,"startTime":236.57611849999998,"endTime":236.68481416666665,"instrument":1,"program":12},{"pitch":62,"velocity":95,"startTime":236.739162,"endTime":236.84785766666664,"instrument":1,"program":12},{"pitch":70,"velocity":95,"startTime":236.90220549999998,"endTime":236.95655333333332,"instrument":1,"program":12},{"pitch":74,"velocity":95,"startTime":237.065249,"endTime":237.17394466666664,"instrument":1,"program":12},{"pitch":70,"velocity":95,"startTime":237.22829249999998,"endTime":237.33698816666666,"instrument":1,"program":12},{"pitch":62,"velocity":95,"startTime":237.391336,"endTime":237.50003166666664,"instrument":1,"program":12},{"pitch":67,"velocity":95,"startTime":237.55437949999998,"endTime":237.66307516666666,"instrument":1,"program":12},{"pitch":70,"velocity":95,"startTime":237.71742299999997,"endTime":237.82611866666664,"instrument":1,"program":12},{"pitch":74,"velocity":95,"startTime":237.88046649999998,"endTime":237.98916216666666,"instrument":1,"program":12},{"pitch":62,"velocity":95,"startTime":238.04350999999997,"endTime":238.15220566666665,"instrument":1,"program":12},{"pitch":67,"velocity":95,"startTime":238.20655349999998,"endTime":238.31524916666666,"instrument":1,"program":12},{"pitch":70,"velocity":95,"startTime":238.36959699999997,"endTime":238.47829266666665,"instrument":1,"program":12},{"pitch":67,"velocity":95,"startTime":238.53264049999999,"endTime":238.64133616666666,"instrument":1,"program":12},{"pitch":74,"velocity":95,"startTime":238.69568399999997,"endTime":238.80437966666665,"instrument":1,"program":12},{"pitch":70,"velocity":95,"startTime":238.8587275,"endTime":238.91307533333332,"instrument":1,"program":12},{"pitch":67,"velocity":95,"startTime":239.02177099999997,"endTime":239.13046666666665,"instrument":1,"program":12},{"pitch":74,"velocity":95,"startTime":239.1848145,"endTime":239.29351016666664,"instrument":1,"program":12},{"pitch":70,"velocity":95,"startTime":239.34785799999997,"endTime":239.45655366666665,"instrument":1,"program":12},{"pitch":67,"velocity":95,"startTime":239.5109015,"endTime":239.56524933333333,"instrument":1,"program":12},{"pitch":70,"velocity":95,"startTime":239.67394499999997,"endTime":239.78264066666665,"instrument":1,"program":12},{"pitch":62,"velocity":95,"startTime":239.8369885,"endTime":239.94568416666664,"instrument":1,"program":12},{"pitch":60,"velocity":95,"startTime":240.00003199999998,"endTime":240.10872766666665,"instrument":1,"program":12},{"pitch":69,"velocity":95,"startTime":240.1630755,"endTime":240.27177116666664,"instrument":1,"program":12},{"pitch":72,"velocity":95,"startTime":240.32611899999998,"endTime":240.43481466666665,"instrument":1,"program":12},{"pitch":69,"velocity":95,"startTime":240.4891625,"endTime":240.59785816666664,"instrument":1,"program":12},{"pitch":62,"velocity":95,"startTime":240.65220599999998,"endTime":240.76090166666665,"instrument":1,"program":12},{"pitch":69,"velocity":95,"startTime":240.8152495,"endTime":240.92394516666664,"instrument":1,"program":12},{"pitch":72,"velocity":95,"startTime":240.97829299999998,"endTime":241.08698866666666,"instrument":1,"program":12},{"pitch":69,"velocity":95,"startTime":241.1413365,"endTime":241.25003216666664,"instrument":1,"program":12},{"pitch":62,"velocity":95,"startTime":241.30437999999998,"endTime":241.41307566666666,"instrument":1,"program":12},{"pitch":69,"velocity":95,"startTime":241.4674235,"endTime":241.57611916666664,"instrument":1,"program":12},{"pitch":69,"velocity":95,"startTime":241.63046699999998,"endTime":241.73916266666666,"instrument":1,"program":12},{"pitch":72,"velocity":95,"startTime":241.79351049999997,"endTime":241.90220616666664,"instrument":1,"program":12},{"pitch":62,"velocity":95,"startTime":241.95655399999998,"endTime":242.06524966666666,"instrument":1,"program":12},{"pitch":69,"velocity":95,"startTime":242.11959749999997,"endTime":242.22829316666665,"instrument":1,"program":12},{"pitch":66,"velocity":95,"startTime":242.28264099999998,"endTime":242.39133666666666,"instrument":1,"program":12},{"pitch":69,"velocity":95,"startTime":242.44568449999997,"endTime":242.5000323333333,"instrument":1,"program":12},{"pitch":62,"velocity":95,"startTime":242.60872799999999,"endTime":242.77177149999997,"instrument":1,"program":12},{"pitch":66,"velocity":95,"startTime":242.77177149999997,"endTime":242.88046716666665,"instrument":1,"program":12},{"pitch":69,"velocity":95,"startTime":242.934815,"endTime":243.04351066666663,"instrument":1,"program":12},{"pitch":69,"velocity":95,"startTime":243.09785849999997,"endTime":243.20655416666665,"instrument":1,"program":12},{"pitch":74,"velocity":95,"startTime":243.260902,"endTime":243.36959766666664,"instrument":1,"program":12},{"pitch":69,"velocity":95,"startTime":243.42394549999997,"endTime":243.53264116666665,"instrument":1,"program":12},{"pitch":66,"velocity":95,"startTime":243.586989,"endTime":243.64133683333333,"instrument":1,"program":12},{"pitch":69,"velocity":95,"startTime":243.75003249999997,"endTime":243.8043803333333,"instrument":1,"program":12},{"pitch":62,"velocity":95,"startTime":243.913076,"endTime":244.02177166666664,"instrument":1,"program":12},{"pitch":69,"velocity":95,"startTime":244.07611949999998,"endTime":244.18481516666665,"instrument":1,"program":12},{"pitch":72,"velocity":95,"startTime":244.239163,"endTime":244.34785866666664,"instrument":1,"program":12},{"pitch":69,"velocity":95,"startTime":244.40220649999998,"endTime":244.51090216666665,"instrument":1,"program":12},{"pitch":66,"velocity":95,"startTime":244.56525,"endTime":244.67394566666664,"instrument":1,"program":12},{"pitch":72,"velocity":95,"startTime":244.72829349999998,"endTime":244.83698916666665,"instrument":1,"program":12},{"pitch":69,"velocity":95,"startTime":244.891337,"endTime":245.00003266666664,"instrument":1,"program":12},{"pitch":69,"velocity":95,"startTime":245.05438049999998,"endTime":245.10872833333332,"instrument":1,"program":12},{"pitch":65,"velocity":95,"startTime":247.82611999999997,"endTime":247.93481566666665,"instrument":1,"program":12},{"pitch":69,"velocity":95,"startTime":247.9891635,"endTime":248.09785916666664,"instrument":1,"program":12},{"pitch":72,"velocity":95,"startTime":248.15220699999998,"endTime":248.26090266666665,"instrument":1,"program":12},{"pitch":69,"velocity":95,"startTime":248.3152505,"endTime":248.42394616666664,"instrument":1,"program":12},{"pitch":77,"velocity":95,"startTime":248.47829399999998,"endTime":248.58698966666665,"instrument":1,"program":12},{"pitch":69,"velocity":95,"startTime":248.6413375,"endTime":248.75003316666664,"instrument":1,"program":12},{"pitch":74,"velocity":95,"startTime":248.80438099999998,"endTime":248.91307666666665,"instrument":1,"program":12},{"pitch":69,"velocity":95,"startTime":248.9674245,"endTime":249.07612016666664,"instrument":1,"program":12},{"pitch":74,"velocity":95,"startTime":249.13046799999998,"endTime":249.23916366666666,"instrument":1,"program":12},{"pitch":67,"velocity":95,"startTime":249.2935115,"endTime":249.40220716666664,"instrument":1,"program":12},{"pitch":70,"velocity":95,"startTime":249.45655499999998,"endTime":249.5584571875,"instrument":1,"program":12},{"pitch":39,"velocity":110,"startTime":229.565248,"endTime":229.89133499999997,"instrument":2,"program":32},{"pitch":27,"velocity":110,"startTime":230.05437849999998,"endTime":230.21742199999997,"instrument":2,"program":32},{"pitch":31,"velocity":110,"startTime":230.38046549999999,"endTime":230.54350899999997,"instrument":2,"program":32},{"pitch":34,"velocity":110,"startTime":230.54350899999997,"endTime":230.7065525,"instrument":2,"program":32},{"pitch":36,"velocity":110,"startTime":230.86959599999997,"endTime":231.0326395,"instrument":2,"program":32},{"pitch":34,"velocity":110,"startTime":231.52176999999998,"endTime":231.6848135,"instrument":2,"program":32},{"pitch":39,"velocity":110,"startTime":231.84785699999998,"endTime":232.0109005,"instrument":2,"program":32},{"pitch":39,"velocity":110,"startTime":232.17394399999998,"endTime":232.50003099999998,"instrument":2,"program":32},{"pitch":34,"velocity":110,"startTime":232.6630745,"endTime":232.82611799999998,"instrument":2,"program":32},{"pitch":39,"velocity":110,"startTime":232.9891615,"endTime":233.15220499999998,"instrument":2,"program":32},{"pitch":36,"velocity":110,"startTime":233.15220499999998,"endTime":233.3152485,"instrument":2,"program":32},{"pitch":39,"velocity":110,"startTime":233.47829199999998,"endTime":233.64133549999997,"instrument":2,"program":32},{"pitch":36,"velocity":110,"startTime":233.80437899999998,"endTime":233.96742249999997,"instrument":2,"program":32},{"pitch":39,"velocity":110,"startTime":234.13046599999998,"endTime":234.29350949999997,"instrument":2,"program":32},{"pitch":46,"velocity":110,"startTime":234.45655299999999,"endTime":234.61959649999997,"instrument":2,"program":32},{"pitch":34,"velocity":110,"startTime":234.78264,"endTime":235.108727,"instrument":2,"program":32},{"pitch":31,"velocity":110,"startTime":235.27177049999997,"endTime":235.434814,"instrument":2,"program":32},{"pitch":29,"velocity":110,"startTime":235.59785749999998,"endTime":235.760901,"instrument":2,"program":32},{"pitch":34,"velocity":110,"startTime":235.760901,"endTime":235.92394449999998,"instrument":2,"program":32},{"pitch":38,"velocity":110,"startTime":236.086988,"endTime":236.25003149999998,"instrument":2,"program":32},{"pitch":38,"velocity":110,"startTime":236.57611849999998,"endTime":236.739162,"instrument":2,"program":32},{"pitch":34,"velocity":110,"startTime":236.90220549999998,"endTime":237.065249,"instrument":2,"program":32},{"pitch":34,"velocity":110,"startTime":237.065249,"endTime":237.22829249999998,"instrument":2,"program":32},{"pitch":31,"velocity":110,"startTime":237.391336,"endTime":237.71742299999997,"instrument":2,"program":32},{"pitch":43,"velocity":110,"startTime":237.88046649999998,"endTime":238.04350999999997,"instrument":2,"program":32},{"pitch":35,"velocity":110,"startTime":238.20655349999998,"endTime":238.36959699999997,"instrument":2,"program":32},{"pitch":38,"velocity":110,"startTime":238.36959699999997,"endTime":238.53264049999999,"instrument":2,"program":32},{"pitch":31,"velocity":110,"startTime":238.69568399999997,"endTime":238.8587275,"instrument":2,"program":32},{"pitch":31,"velocity":110,"startTime":239.02177099999997,"endTime":239.1848145,"instrument":2,"program":32},{"pitch":31,"velocity":110,"startTime":239.34785799999997,"endTime":239.5109015,"instrument":2,"program":32},{"pitch":34,"velocity":110,"startTime":239.67394499999997,"endTime":239.8369885,"instrument":2,"program":32},{"pitch":38,"velocity":110,"startTime":240.00003199999998,"endTime":240.32611899999998,"instrument":2,"program":32},{"pitch":38,"velocity":110,"startTime":240.4891625,"endTime":240.65220599999998,"instrument":2,"program":32},{"pitch":33,"velocity":110,"startTime":240.8152495,"endTime":240.97829299999998,"instrument":2,"program":32},{"pitch":38,"velocity":110,"startTime":240.97829299999998,"endTime":241.1413365,"instrument":2,"program":32},{"pitch":38,"velocity":110,"startTime":241.30437999999998,"endTime":241.4674235,"instrument":2,"program":32},{"pitch":38,"velocity":110,"startTime":241.63046699999998,"endTime":241.79351049999997,"instrument":2,"program":32},{"pitch":38,"velocity":110,"startTime":241.95655399999998,"endTime":242.11959749999997,"instrument":2,"program":32},{"pitch":38,"velocity":110,"startTime":242.28264099999998,"endTime":242.44568449999997,"instrument":2,"program":32},{"pitch":38,"velocity":110,"startTime":242.60872799999999,"endTime":242.934815,"instrument":2,"program":32},{"pitch":38,"velocity":110,"startTime":243.09785849999997,"endTime":243.260902,"instrument":2,"program":32},{"pitch":40,"velocity":110,"startTime":243.42394549999997,"endTime":243.586989,"instrument":2,"program":32},{"pitch":38,"velocity":110,"startTime":243.586989,"endTime":243.75003249999997,"instrument":2,"program":32},{"pitch":33,"velocity":110,"startTime":243.913076,"endTime":244.07611949999998,"instrument":2,"program":32},{"pitch":33,"velocity":110,"startTime":244.239163,"endTime":244.40220649999998,"instrument":2,"program":32},{"pitch":45,"velocity":110,"startTime":244.56525,"endTime":244.72829349999998,"instrument":2,"program":32},{"pitch":33,"velocity":110,"startTime":244.891337,"endTime":245.05438049999998,"instrument":2,"program":32},{"pitch":31,"velocity":110,"startTime":245.217424,"endTime":245.43481533333332,"instrument":2,"program":32},{"pitch":38,"velocity":110,"startTime":247.82611999999997,"endTime":248.15220699999998,"instrument":2,"program":32},{"pitch":33,"velocity":110,"startTime":248.3152505,"endTime":248.47829399999998,"instrument":2,"program":32},{"pitch":33,"velocity":110,"startTime":248.6413375,"endTime":248.80438099999998,"instrument":2,"program":32},{"pitch":38,"velocity":110,"startTime":248.80438099999998,"endTime":248.9674245,"instrument":2,"program":32},{"pitch":31,"velocity":110,"startTime":249.13046799999998,"endTime":249.2935115,"instrument":2,"program":32},{"pitch":31,"velocity":110,"startTime":249.3478593333333,"endTime":249.45655499999998,"instrument":2,"program":32},{"pitch":60,"velocity":105,"startTime":229.565248,"endTime":232.06524833333333,"instrument":3,"program":50},{"pitch":63,"velocity":105,"startTime":229.565248,"endTime":232.06524833333333,"instrument":3,"program":50},{"pitch":67,"velocity":105,"startTime":229.565248,"endTime":232.06524833333333,"instrument":3,"program":50},{"pitch":70,"velocity":105,"startTime":229.565248,"endTime":232.06524833333333,"instrument":3,"program":50},{"pitch":60,"velocity":105,"startTime":232.17394399999998,"endTime":233.3695963333333,"instrument":3,"program":50},{"pitch":63,"velocity":105,"startTime":232.17394399999998,"endTime":233.3695963333333,"instrument":3,"program":50},{"pitch":67,"velocity":105,"startTime":232.17394399999998,"endTime":233.3695963333333,"instrument":3,"program":50},{"pitch":70,"velocity":105,"startTime":232.17394399999998,"endTime":233.3695963333333,"instrument":3,"program":50},{"pitch":58,"velocity":105,"startTime":233.47829199999998,"endTime":233.85872683333332,"instrument":3,"program":50},{"pitch":60,"velocity":105,"startTime":233.47829199999998,"endTime":233.85872683333332,"instrument":3,"program":50},{"pitch":63,"velocity":105,"startTime":233.47829199999998,"endTime":233.85872683333332,"instrument":3,"program":50},{"pitch":67,"velocity":105,"startTime":233.47829199999998,"endTime":233.85872683333332,"instrument":3,"program":50},{"pitch":58,"velocity":105,"startTime":233.96742249999997,"endTime":234.78264,"instrument":3,"program":50},{"pitch":60,"velocity":105,"startTime":233.96742249999997,"endTime":234.78264,"instrument":3,"program":50},{"pitch":63,"velocity":105,"startTime":233.96742249999997,"endTime":234.78264,"instrument":3,"program":50},{"pitch":67,"velocity":105,"startTime":233.96742249999997,"endTime":234.78264,"instrument":3,"program":50},{"pitch":58,"velocity":105,"startTime":234.78264,"endTime":237.28264033333332,"instrument":3,"program":50},{"pitch":62,"velocity":105,"startTime":234.78264,"endTime":237.28264033333332,"instrument":3,"program":50},{"pitch":65,"velocity":105,"startTime":234.78264,"endTime":237.28264033333332,"instrument":3,"program":50},{"pitch":67,"velocity":105,"startTime":234.78264,"endTime":237.28264033333332,"instrument":3,"program":50},{"pitch":58,"velocity":105,"startTime":237.391336,"endTime":239.61959716666664,"instrument":3,"program":50},{"pitch":62,"velocity":105,"startTime":237.391336,"endTime":239.61959716666664,"instrument":3,"program":50},{"pitch":65,"velocity":105,"startTime":237.391336,"endTime":239.61959716666664,"instrument":3,"program":50},{"pitch":67,"velocity":105,"startTime":237.391336,"endTime":239.61959716666664,"instrument":3,"program":50},{"pitch":57,"velocity":105,"startTime":239.67394499999997,"endTime":242.44568449999997,"instrument":3,"program":50},{"pitch":58,"velocity":105,"startTime":239.67394499999997,"endTime":242.44568449999997,"instrument":3,"program":50},{"pitch":62,"velocity":105,"startTime":239.67394499999997,"endTime":242.44568449999997,"instrument":3,"program":50},{"pitch":66,"velocity":105,"startTime":239.67394499999997,"endTime":242.44568449999997,"instrument":3,"program":50},{"pitch":60,"velocity":105,"startTime":242.60872799999999,"endTime":245.10872833333332,"instrument":3,"program":50},{"pitch":62,"velocity":105,"startTime":242.60872799999999,"endTime":245.10872833333332,"instrument":3,"program":50},{"pitch":69,"velocity":105,"startTime":242.60872799999999,"endTime":245.10872833333332,"instrument":3,"program":50},{"pitch":58,"velocity":105,"startTime":245.217424,"endTime":245.38046749999998,"instrument":3,"program":50},{"pitch":62,"velocity":105,"startTime":245.217424,"endTime":245.38046749999998,"instrument":3,"program":50},{"pitch":67,"velocity":105,"startTime":245.217424,"endTime":245.38046749999998,"instrument":3,"program":50},{"pitch":74,"velocity":105,"startTime":245.217424,"endTime":245.38046749999998,"instrument":3,"program":50},{"pitch":60,"velocity":105,"startTime":247.82611999999997,"endTime":248.47829399999998,"instrument":3,"program":50},{"pitch":63,"velocity":105,"startTime":247.82611999999997,"endTime":248.47829399999998,"instrument":3,"program":50},{"pitch":66,"velocity":105,"startTime":247.82611999999997,"endTime":248.47829399999998,"instrument":3,"program":50},{"pitch":69,"velocity":105,"startTime":247.82611999999997,"endTime":248.47829399999998,"instrument":3,"program":50},{"pitch":62,"velocity":105,"startTime":248.47829399999998,"endTime":249.5584571875,"instrument":3,"program":50},{"pitch":65,"velocity":105,"startTime":248.47829399999998,"endTime":249.5584571875,"instrument":3,"program":50},{"pitch":67,"velocity":105,"startTime":248.47829399999998,"endTime":249.5584571875,"instrument":3,"program":50},{"pitch":70,"velocity":105,"startTime":248.47829399999998,"endTime":249.5584571875,"instrument":3,"program":50},{"pitch":72,"velocity":87,"startTime":0.6046196458333334,"endTime":0.7065218333333332,"instrument":8,"program":23},{"pitch":62,"velocity":87,"startTime":0.6182066041666667,"endTime":0.7065218333333332,"instrument":8,"program":23},{"pitch":69,"velocity":87,"startTime":1.2364132083333328,"endTime":1.3383153958333334,"instrument":8,"program":23},{"pitch":62,"velocity":87,"startTime":1.2500001666666667,"endTime":1.3247284375,"instrument":8,"program":23},{"pitch":66,"velocity":128,"startTime":1.9089676458333333,"endTime":1.9904893958333332,"instrument":8,"program":23},{"pitch":62,"velocity":87,"startTime":1.915761125,"endTime":1.9836959166666666,"instrument":8,"program":23},{"pitch":62,"velocity":114,"startTime":2.880435166666666,"endTime":3.206522166666667,"instrument":8,"program":23},{"pitch":63,"velocity":97,"startTime":3.220109125,"endTime":3.519022208333334,"instrument":8,"program":23},{"pitch":62,"velocity":87,"startTime":3.5258156874999997,"endTime":3.858696166666667,"instrument":8,"program":23},{"pitch":61,"velocity":114,"startTime":3.858696166666667,"endTime":4.470109291666667,"instrument":8,"program":23},{"pitch":62,"velocity":97,"startTime":4.524457125,"endTime":4.660326708333333,"instrument":8,"program":23},{"pitch":62,"velocity":97,"startTime":5.176631125,"endTime":5.285326791666667,"instrument":8,"program":23},{"pitch":74,"velocity":75,"startTime":5.794837729166667,"endTime":5.896739916666666,"instrument":8,"program":23},{"pitch":62,"velocity":78,"startTime":5.8084246875,"endTime":5.896739916666666,"instrument":8,"program":23},{"pitch":70,"velocity":128,"startTime":6.5013595625,"endTime":6.60326175,"instrument":8,"program":23},{"pitch":62,"velocity":97,"startTime":6.514946520833333,"endTime":6.610055229166666,"instrument":8,"program":23},{"pitch":67,"velocity":97,"startTime":7.133153125,"endTime":7.221468354166666,"instrument":8,"program":23},{"pitch":62,"velocity":87,"startTime":7.139946604166667,"endTime":7.228261833333333,"instrument":8,"program":23},{"pitch":62,"velocity":97,"startTime":8.111414125,"endTime":8.430707645833333,"instrument":8,"program":23},{"pitch":63,"velocity":114,"startTime":8.437501124999999,"endTime":8.682066375000002,"instrument":8,"program":23},{"pitch":62,"velocity":78,"startTime":8.7024468125,"endTime":9.076088166666667,"instrument":8,"program":23},{"pitch":61,"velocity":97,"startTime":9.076088166666667,"endTime":9.694294770833334,"instrument":8,"program":23},{"pitch":62,"velocity":87,"startTime":9.728262166666667,"endTime":9.870925229166666,"instrument":8,"program":23},{"pitch":62,"velocity":114,"startTime":10.394023125,"endTime":10.502718791666666,"instrument":8,"program":23},{"pitch":72,"velocity":87,"startTime":11.039403645833334,"endTime":11.1480993125,"instrument":8,"program":23},{"pitch":62,"velocity":87,"startTime":11.052990604166666,"endTime":11.1480993125,"instrument":8,"program":23},{"pitch":69,"velocity":87,"startTime":11.7187515625,"endTime":11.813860270833333,"instrument":8,"program":23},{"pitch":62,"velocity":87,"startTime":11.725545041666667,"endTime":11.807066791666667,"instrument":8,"program":23},{"pitch":66,"velocity":128,"startTime":12.391306,"endTime":12.466034270833333,"instrument":8,"program":23},{"pitch":62,"velocity":87,"startTime":12.404892958333333,"endTime":12.479621229166666,"instrument":8,"program":23},{"pitch":62,"velocity":114,"startTime":13.342393083333333,"endTime":13.641306166666668,"instrument":8,"program":23},{"pitch":63,"velocity":114,"startTime":13.641306166666668,"endTime":13.9198388125,"instrument":8,"program":23},{"pitch":62,"velocity":87,"startTime":13.94021925,"endTime":14.279893208333334,"instrument":8,"program":23},{"pitch":61,"velocity":97,"startTime":14.300273645833332,"endTime":14.891306333333333,"instrument":8,"program":23},{"pitch":62,"velocity":87,"startTime":14.925273729166667,"endTime":15.095110708333332,"instrument":8,"program":23},{"pitch":62,"velocity":114,"startTime":15.577447729166668,"endTime":15.692936875,"instrument":8,"program":23},{"pitch":74,"velocity":75,"startTime":16.236415208333334,"endTime":16.345110875,"instrument":8,"program":23},{"pitch":62,"velocity":70,"startTime":16.263589125,"endTime":16.35869783333333,"instrument":8,"program":23},{"pitch":70,"velocity":128,"startTime":16.90896964583333,"endTime":17.0176653125,"instrument":8,"program":23},{"pitch":62,"velocity":75,"startTime":16.92255660416667,"endTime":17.010871833333333,"instrument":8,"program":23},{"pitch":62,"velocity":87,"startTime":17.55435016666667,"endTime":17.649458874999997,"instrument":8,"program":23},{"pitch":67,"velocity":114,"startTime":17.55435016666667,"endTime":17.656252354166668,"instrument":8,"program":23},{"pitch":75,"velocity":128,"startTime":18.383154625000003,"endTime":18.498643770833333,"instrument":8,"program":23},{"pitch":74,"velocity":87,"startTime":18.552991604166667,"endTime":18.6481003125,"instrument":8,"program":23},{"pitch":73,"velocity":128,"startTime":18.695654666666666,"endTime":18.804350333333335,"instrument":8,"program":23},{"pitch":72,"velocity":97,"startTime":18.858698166666667,"endTime":18.953806875,"instrument":8,"program":23},{"pitch":71,"velocity":54,"startTime":19.008154708333333,"endTime":19.103263416666664,"instrument":8,"program":23},{"pitch":70,"velocity":128,"startTime":19.164404729166662,"endTime":19.266306916666665,"instrument":8,"program":23},{"pitch":69,"velocity":75,"startTime":19.32065475,"endTime":19.429350416666665,"instrument":8,"program":23},{"pitch":68,"velocity":128,"startTime":19.490491729166664,"endTime":19.619567833333335,"instrument":8,"program":23},{"pitch":67,"velocity":78,"startTime":19.653535229166664,"endTime":19.74185045833333,"instrument":8,"program":23},{"pitch":66,"velocity":128,"startTime":19.802991770833337,"endTime":19.918480916666663,"instrument":8,"program":23},{"pitch":65,"velocity":87,"startTime":19.97282875,"endTime":20.081524416666664,"instrument":8,"program":23},{"pitch":64,"velocity":70,"startTime":20.135872250000002,"endTime":20.2377744375,"instrument":8,"program":23},{"pitch":63,"velocity":128,"startTime":20.292122270833335,"endTime":20.414404895833332,"instrument":8,"program":23},{"pitch":62,"velocity":70,"startTime":20.455165770833336,"endTime":20.557067958333334,"instrument":8,"program":23},{"pitch":61,"velocity":128,"startTime":20.618209270833336,"endTime":20.740491895833337,"instrument":8,"program":23},{"pitch":60,"velocity":87,"startTime":20.815220166666666,"endTime":20.937502791666663,"instrument":8,"program":23},{"pitch":67,"velocity":97,"startTime":21.453807208333334,"endTime":21.555709395833336,"instrument":8,"program":23},{"pitch":60,"velocity":78,"startTime":21.467394166666665,"endTime":21.548915916666665,"instrument":8,"program":23},{"pitch":66,"velocity":128,"startTime":22.119568166666664,"endTime":22.201089916666664,"instrument":8,"program":23},{"pitch":60,"velocity":78,"startTime":22.126361645833335,"endTime":22.221470354166666,"instrument":8,"program":23},{"pitch":60,"velocity":97,"startTime":22.7649486875,"endTime":22.860057395833334,"instrument":8,"program":23},{"pitch":67,"velocity":87,"startTime":22.7649486875,"endTime":22.853263916666663,"instrument":8,"program":23},{"pitch":60,"velocity":87,"startTime":23.77717708333333,"endTime":23.85869883333333,"instrument":8,"program":23},{"pitch":67,"velocity":87,"startTime":23.77717708333333,"endTime":23.872285791666663,"instrument":8,"program":23},{"pitch":67,"velocity":78,"startTime":24.062503208333336,"endTime":24.171198875,"instrument":8,"program":23},{"pitch":60,"velocity":78,"startTime":24.082883645833334,"endTime":24.171198875,"instrument":8,"program":23},{"pitch":66,"velocity":128,"startTime":24.402177166666664,"endTime":24.5176663125,"instrument":8,"program":23},{"pitch":60,"velocity":61,"startTime":24.429351083333337,"endTime":24.504079354166667,"instrument":8,"program":23},{"pitch":60,"velocity":75,"startTime":24.741851125,"endTime":24.843753312500002,"instrument":8,"program":23},{"pitch":67,"velocity":87,"startTime":24.741851125,"endTime":24.843753312500002,"instrument":8,"program":23},{"pitch":66,"velocity":114,"startTime":25.054351166666663,"endTime":25.176633791666667,"instrument":8,"program":23},{"pitch":60,"velocity":55,"startTime":25.0883185625,"endTime":25.1698403125,"instrument":8,"program":23},{"pitch":60,"velocity":75,"startTime":25.380438166666664,"endTime":25.502720791666665,"instrument":8,"program":23},{"pitch":67,"velocity":97,"startTime":25.38723164583333,"endTime":25.502720791666665,"instrument":8,"program":23},{"pitch":66,"velocity":128,"startTime":25.6997316875,"endTime":25.828807791666666,"instrument":8,"program":23},{"pitch":60,"velocity":70,"startTime":25.720112124999996,"endTime":25.8220143125,"instrument":8,"program":23},{"pitch":58,"velocity":114,"startTime":26.059786083333332,"endTime":26.175275229166665,"instrument":8,"program":23},{"pitch":58,"velocity":87,"startTime":26.739134,"endTime":26.834242708333335,"instrument":8,"program":23},{"pitch":67,"velocity":97,"startTime":26.739134,"endTime":26.847829666666666,"instrument":8,"program":23},{"pitch":58,"velocity":70,"startTime":27.391308000000002,"endTime":27.493210187499997,"instrument":8,"program":23},{"pitch":66,"velocity":97,"startTime":27.391308000000002,"endTime":27.500003666666665,"instrument":8,"program":23},{"pitch":58,"velocity":75,"startTime":28.043482,"endTime":28.131797229166665,"instrument":8,"program":23},{"pitch":67,"velocity":87,"startTime":28.043482,"endTime":28.152177666666663,"instrument":8,"program":23},{"pitch":66,"velocity":128,"startTime":29.0013625625,"endTime":29.110058229166665,"instrument":8,"program":23},{"pitch":58,"velocity":87,"startTime":29.014949520833333,"endTime":29.089677791666663,"instrument":8,"program":23},{"pitch":67,"velocity":87,"startTime":29.300275645833334,"endTime":29.42255827083333,"instrument":8,"program":23},{"pitch":58,"velocity":87,"startTime":29.313862604166665,"endTime":29.402177833333337,"instrument":8,"program":23},{"pitch":66,"velocity":128,"startTime":29.626362645833336,"endTime":29.741851791666665,"instrument":8,"program":23},{"pitch":58,"velocity":70,"startTime":29.646743083333337,"endTime":29.728264833333334,"instrument":8,"program":23},{"pitch":58,"velocity":70,"startTime":29.945656166666666,"endTime":30.047558354166664,"instrument":8,"program":23},{"pitch":67,"velocity":78,"startTime":29.945656166666666,"endTime":30.074732270833337,"instrument":8,"program":23},{"pitch":66,"velocity":128,"startTime":30.271743166666663,"endTime":30.394025791666667,"instrument":8,"program":23},{"pitch":58,"velocity":78,"startTime":30.285330124999998,"endTime":30.366851875,"instrument":8,"program":23},{"pitch":58,"velocity":75,"startTime":30.584243208333337,"endTime":30.67935191666666,"instrument":8,"program":23},{"pitch":67,"velocity":78,"startTime":30.584243208333337,"endTime":30.699732354166663,"instrument":8,"program":23},{"pitch":66,"velocity":128,"startTime":30.883156291666666,"endTime":31.005438916666666,"instrument":8,"program":23},{"pitch":58,"velocity":61,"startTime":30.903536729166667,"endTime":30.985058479166664,"instrument":8,"program":23},{"pitch":57,"velocity":87,"startTime":31.256797645833338,"endTime":31.379080270833335,"instrument":8,"program":23},{"pitch":57,"velocity":87,"startTime":31.915765125,"endTime":32.0176673125,"instrument":8,"program":23},{"pitch":62,"velocity":97,"startTime":31.915765125,"endTime":32.02446079166666,"instrument":8,"program":23},{"pitch":60,"velocity":97,"startTime":32.567939125,"endTime":32.69022175,"instrument":8,"program":23},{"pitch":57,"velocity":75,"startTime":32.57473260416666,"endTime":32.69022175,"instrument":8,"program":23},{"pitch":62,"velocity":114,"startTime":33.192939208333335,"endTime":33.301634875,"instrument":8,"program":23},{"pitch":57,"velocity":87,"startTime":33.199732687499996,"endTime":33.301634875,"instrument":8,"program":23},{"pitch":60,"velocity":97,"startTime":34.15761325,"endTime":34.714678541666665,"instrument":8,"program":23},{"pitch":58,"velocity":87,"startTime":34.7486459375,"endTime":34.91848291666666,"instrument":8,"program":23},{"pitch":57,"velocity":75,"startTime":34.925276395833336,"endTime":35.08831989583334,"instrument":8,"program":23},{"pitch":55,"velocity":75,"startTime":35.095113375,"endTime":35.77446129166667,"instrument":8,"program":23},{"pitch":54,"velocity":97,"startTime":35.781254770833335,"endTime":36.42663529166666,"instrument":8,"program":23},{"pitch":55,"velocity":114,"startTime":36.447015729166665,"endTime":36.589678791666664,"instrument":8,"program":23},{"pitch":67,"velocity":87,"startTime":37.500005,"endTime":37.58832022916666,"instrument":8,"program":23},{"pitch":75,"velocity":128,"startTime":37.500005,"endTime":37.581526749999995,"instrument":8,"program":23},{"pitch":65,"velocity":64,"startTime":37.826092,"endTime":37.92120070833334,"instrument":8,"program":23},{"pitch":74,"velocity":114,"startTime":37.826092,"endTime":37.92120070833334,"instrument":8,"program":23},{"pitch":63,"velocity":128,"startTime":38.152179000000004,"endTime":38.22690727083333,"instrument":8,"program":23},{"pitch":72,"velocity":87,"startTime":38.152179000000004,"endTime":38.22690727083333,"instrument":8,"program":23},{"pitch":62,"velocity":87,"startTime":38.478266,"endTime":38.55978775,"instrument":8,"program":23},{"pitch":70,"velocity":128,"startTime":38.478266,"endTime":38.546200791666664,"instrument":8,"program":23},{"pitch":60,"velocity":78,"startTime":38.804353,"endTime":38.87908127083334,"instrument":8,"program":23},{"pitch":69,"velocity":87,"startTime":38.804353,"endTime":38.89266822916666,"instrument":8,"program":23},{"pitch":58,"velocity":97,"startTime":39.13044,"endTime":39.21875522916667,"instrument":8,"program":23},{"pitch":67,"velocity":78,"startTime":39.13044,"endTime":39.21196175000001,"instrument":8,"program":23},{"pitch":62,"velocity":97,"startTime":39.456527,"endTime":40.36685320833333,"instrument":8,"program":23},{"pitch":60,"velocity":78,"startTime":39.782613999999995,"endTime":40.36685320833333,"instrument":8,"program":23},{"pitch":66,"velocity":114,"startTime":39.782613999999995,"endTime":40.38044016666668,"instrument":8,"program":23},{"pitch":62,"velocity":97,"startTime":40.400820604166675,"endTime":40.56386410416666,"instrument":8,"program":23},{"pitch":67,"velocity":78,"startTime":40.400820604166675,"endTime":40.577451062499996,"instrument":8,"program":23},{"pitch":58,"velocity":128,"startTime":40.4144075625,"endTime":40.577451062499996,"instrument":8,"program":23},{"pitch":62,"velocity":128,"startTime":41.42663595833333,"endTime":41.542125104166665,"instrument":8,"program":23},{"pitch":62,"velocity":75,"startTime":41.576092499999994,"endTime":41.66440772916666,"instrument":8,"program":23},{"pitch":62,"velocity":128,"startTime":41.72554904166667,"endTime":41.82065775,"instrument":8,"program":23},{"pitch":72,"velocity":87,"startTime":42.34375564583332,"endTime":42.44565783333332,"instrument":8,"program":23},{"pitch":62,"velocity":87,"startTime":42.35734260416667,"endTime":42.44565783333332,"instrument":8,"program":23},{"pitch":69,"velocity":87,"startTime":42.97554920833333,"endTime":43.07745139583332,"instrument":8,"program":23},{"pitch":62,"velocity":87,"startTime":42.989136166666675,"endTime":43.063864437499994,"instrument":8,"program":23},{"pitch":66,"velocity":128,"startTime":43.64810364583334,"endTime":43.729625395833324,"instrument":8,"program":23},{"pitch":62,"velocity":87,"startTime":43.654897125000005,"endTime":43.72283191666668,"instrument":8,"program":23},{"pitch":62,"velocity":114,"startTime":44.61957116666667,"endTime":44.94565816666667,"instrument":8,"program":23},{"pitch":63,"velocity":97,"startTime":44.959245125,"endTime":45.25815820833334,"instrument":8,"program":23},{"pitch":62,"velocity":87,"startTime":45.2649516875,"endTime":45.59783216666667,"instrument":8,"program":23},{"pitch":61,"velocity":114,"startTime":45.59783216666667,"endTime":46.209245291666676,"instrument":8,"program":23},{"pitch":62,"velocity":97,"startTime":46.263593125,"endTime":46.399462708333324,"instrument":8,"program":23},{"pitch":62,"velocity":97,"startTime":46.915767124999995,"endTime":47.024462791666664,"instrument":8,"program":23},{"pitch":74,"velocity":75,"startTime":47.53397372916667,"endTime":47.63587591666667,"instrument":8,"program":23},{"pitch":62,"velocity":78,"startTime":47.5475606875,"endTime":47.63587591666667,"instrument":8,"program":23},{"pitch":70,"velocity":128,"startTime":48.240495562499994,"endTime":48.34239774999999,"instrument":8,"program":23},{"pitch":62,"velocity":97,"startTime":48.25408252083332,"endTime":48.34919122916668,"instrument":8,"program":23},{"pitch":67,"velocity":97,"startTime":48.872289124999995,"endTime":48.96060435416666,"instrument":8,"program":23},{"pitch":62,"velocity":87,"startTime":48.879082604166676,"endTime":48.96739783333333,"instrument":8,"program":23},{"pitch":62,"velocity":97,"startTime":49.85055012499999,"endTime":50.169843645833325,"instrument":8,"program":23},{"pitch":63,"velocity":114,"startTime":50.17663712499999,"endTime":50.42120237500001,"instrument":8,"program":23},{"pitch":62,"velocity":78,"startTime":50.4415828125,"endTime":50.815224166666674,"instrument":8,"program":23},{"pitch":61,"velocity":97,"startTime":50.815224166666674,"endTime":51.43343077083333,"instrument":8,"program":23},{"pitch":62,"velocity":87,"startTime":51.467398166666676,"endTime":51.61006122916667,"instrument":8,"program":23},{"pitch":62,"velocity":114,"startTime":52.133159125000006,"endTime":52.241854791666675,"instrument":8,"program":23},{"pitch":72,"velocity":87,"startTime":52.77853964583332,"endTime":52.8872353125,"instrument":8,"program":23},{"pitch":62,"velocity":87,"startTime":52.79212660416667,"endTime":52.8872353125,"instrument":8,"program":23},{"pitch":69,"velocity":87,"startTime":53.4578875625,"endTime":53.55299627083333,"instrument":8,"program":23},{"pitch":62,"velocity":87,"startTime":53.464681041666665,"endTime":53.54620279166667,"instrument":8,"program":23},{"pitch":66,"velocity":128,"startTime":54.130441999999995,"endTime":54.205170270833335,"instrument":8,"program":23},{"pitch":62,"velocity":87,"startTime":54.14402895833333,"endTime":54.21875722916666,"instrument":8,"program":23},{"pitch":62,"velocity":114,"startTime":55.08152908333333,"endTime":55.38044216666667,"instrument":8,"program":23},{"pitch":63,"velocity":114,"startTime":55.38044216666667,"endTime":55.65897481249999,"instrument":8,"program":23},{"pitch":62,"velocity":87,"startTime":55.67935525000001,"endTime":56.019029208333336,"instrument":8,"program":23},{"pitch":61,"velocity":97,"startTime":56.03940964583333,"endTime":56.63044233333333,"instrument":8,"program":23},{"pitch":62,"velocity":87,"startTime":56.66440972916667,"endTime":56.834246708333325,"instrument":8,"program":23},{"pitch":62,"velocity":114,"startTime":57.316583729166666,"endTime":57.432072875,"instrument":8,"program":23},{"pitch":74,"velocity":75,"startTime":57.975551208333336,"endTime":58.084246875,"instrument":8,"program":23},{"pitch":62,"velocity":70,"startTime":58.002725125,"endTime":58.09783383333333,"instrument":8,"program":23},{"pitch":70,"velocity":128,"startTime":58.64810564583333,"endTime":58.756801312499995,"instrument":8,"program":23},{"pitch":62,"velocity":75,"startTime":58.66169260416666,"endTime":58.75000783333333,"instrument":8,"program":23},{"pitch":62,"velocity":87,"startTime":59.29348616666666,"endTime":59.388594874999995,"instrument":8,"program":23},{"pitch":67,"velocity":114,"startTime":59.29348616666666,"endTime":59.39538835416666,"instrument":8,"program":23},{"pitch":75,"velocity":128,"startTime":60.122290625,"endTime":60.237779770833335,"instrument":8,"program":23},{"pitch":74,"velocity":87,"startTime":60.29212760416667,"endTime":60.387236312499994,"instrument":8,"program":23},{"pitch":73,"velocity":128,"startTime":60.43479066666667,"endTime":60.543486333333334,"instrument":8,"program":23},{"pitch":72,"velocity":97,"startTime":60.59783416666666,"endTime":60.69294287499999,"instrument":8,"program":23},{"pitch":71,"velocity":54,"startTime":60.74729070833334,"endTime":60.84239941666667,"instrument":8,"program":23},{"pitch":70,"velocity":128,"startTime":60.903540729166664,"endTime":61.00544291666667,"instrument":8,"program":23},{"pitch":69,"velocity":75,"startTime":61.059790750000005,"endTime":61.168486416666674,"instrument":8,"program":23},{"pitch":68,"velocity":128,"startTime":61.229627729166666,"endTime":61.35870383333332,"instrument":8,"program":23},{"pitch":67,"velocity":78,"startTime":61.39267122916667,"endTime":61.48098645833333,"instrument":8,"program":23},{"pitch":66,"velocity":128,"startTime":61.54212777083333,"endTime":61.65761691666666,"instrument":8,"program":23},{"pitch":65,"velocity":87,"startTime":61.71196475000001,"endTime":61.82066041666667,"instrument":8,"program":23},{"pitch":64,"velocity":70,"startTime":61.87500824999999,"endTime":61.976910437499996,"instrument":8,"program":23},{"pitch":63,"velocity":128,"startTime":62.03125827083332,"endTime":62.15354089583334,"instrument":8,"program":23},{"pitch":62,"velocity":70,"startTime":62.19430177083333,"endTime":62.29620395833333,"instrument":8,"program":23},{"pitch":61,"velocity":128,"startTime":62.35734527083332,"endTime":62.47962789583334,"instrument":8,"program":23},{"pitch":60,"velocity":87,"startTime":62.55435616666667,"endTime":62.676638791666676,"instrument":8,"program":23},{"pitch":67,"velocity":97,"startTime":63.192943208333325,"endTime":63.29484539583333,"instrument":8,"program":23},{"pitch":60,"velocity":78,"startTime":63.206530166666674,"endTime":63.28805191666666,"instrument":8,"program":23},{"pitch":66,"velocity":128,"startTime":63.858704166666676,"endTime":63.94022591666668,"instrument":8,"program":23},{"pitch":60,"velocity":78,"startTime":63.86549764583334,"endTime":63.96060635416667,"instrument":8,"program":23},{"pitch":60,"velocity":97,"startTime":64.50408468750001,"endTime":64.59919339583332,"instrument":8,"program":23},{"pitch":67,"velocity":87,"startTime":64.50408468750001,"endTime":64.59239991666668,"instrument":8,"program":23},{"pitch":60,"velocity":87,"startTime":65.51631308333333,"endTime":65.59783483333334,"instrument":8,"program":23},{"pitch":67,"velocity":87,"startTime":65.51631308333333,"endTime":65.61142179166667,"instrument":8,"program":23},{"pitch":67,"velocity":78,"startTime":65.80163920833334,"endTime":65.910334875,"instrument":8,"program":23},{"pitch":60,"velocity":78,"startTime":65.82201964583334,"endTime":65.910334875,"instrument":8,"program":23},{"pitch":66,"velocity":128,"startTime":66.14131316666666,"endTime":66.2568023125,"instrument":8,"program":23},{"pitch":60,"velocity":61,"startTime":66.16848708333333,"endTime":66.24321535416667,"instrument":8,"program":23},{"pitch":60,"velocity":75,"startTime":66.480987125,"endTime":66.5828893125,"instrument":8,"program":23},{"pitch":67,"velocity":87,"startTime":66.480987125,"endTime":66.5828893125,"instrument":8,"program":23},{"pitch":66,"velocity":114,"startTime":66.79348716666667,"endTime":66.91576979166666,"instrument":8,"program":23},{"pitch":60,"velocity":55,"startTime":66.8274545625,"endTime":66.9089763125,"instrument":8,"program":23},{"pitch":60,"velocity":75,"startTime":67.11957416666667,"endTime":67.24185679166666,"instrument":8,"program":23},{"pitch":67,"velocity":97,"startTime":67.12636764583333,"endTime":67.24185679166666,"instrument":8,"program":23},{"pitch":66,"velocity":128,"startTime":67.43886768750001,"endTime":67.56794379166666,"instrument":8,"program":23},{"pitch":60,"velocity":70,"startTime":67.459248125,"endTime":67.5611503125,"instrument":8,"program":23},{"pitch":58,"velocity":114,"startTime":67.79892208333332,"endTime":67.91441122916666,"instrument":8,"program":23},{"pitch":58,"velocity":87,"startTime":68.47827000000001,"endTime":68.57337870833332,"instrument":8,"program":23},{"pitch":67,"velocity":97,"startTime":68.47827000000001,"endTime":68.58696566666667,"instrument":8,"program":23},{"pitch":58,"velocity":70,"startTime":69.13044400000001,"endTime":69.23234618750001,"instrument":8,"program":23},{"pitch":66,"velocity":97,"startTime":69.13044400000001,"endTime":69.23913966666667,"instrument":8,"program":23},{"pitch":58,"velocity":75,"startTime":69.782618,"endTime":69.87093322916668,"instrument":8,"program":23},{"pitch":67,"velocity":87,"startTime":69.782618,"endTime":69.89131366666668,"instrument":8,"program":23},{"pitch":66,"velocity":128,"startTime":70.74049856250001,"endTime":70.84919422916667,"instrument":8,"program":23},{"pitch":58,"velocity":87,"startTime":70.75408552083334,"endTime":70.82881379166668,"instrument":8,"program":23},{"pitch":67,"velocity":87,"startTime":71.03941164583333,"endTime":71.16169427083332,"instrument":8,"program":23},{"pitch":58,"velocity":87,"startTime":71.05299860416667,"endTime":71.14131383333333,"instrument":8,"program":23},{"pitch":66,"velocity":128,"startTime":71.36549864583333,"endTime":71.48098779166668,"instrument":8,"program":23},{"pitch":58,"velocity":70,"startTime":71.38587908333332,"endTime":71.46740083333333,"instrument":8,"program":23},{"pitch":58,"velocity":70,"startTime":71.68479216666668,"endTime":71.78669435416666,"instrument":8,"program":23},{"pitch":67,"velocity":78,"startTime":71.68479216666668,"endTime":71.81386827083332,"instrument":8,"program":23},{"pitch":66,"velocity":128,"startTime":72.01087916666668,"endTime":72.13316179166668,"instrument":8,"program":23},{"pitch":58,"velocity":78,"startTime":72.024466125,"endTime":72.105987875,"instrument":8,"program":23},{"pitch":58,"velocity":75,"startTime":72.32337920833332,"endTime":72.41848791666666,"instrument":8,"program":23},{"pitch":67,"velocity":78,"startTime":72.32337920833332,"endTime":72.43886835416667,"instrument":8,"program":23},{"pitch":66,"velocity":128,"startTime":72.62229229166667,"endTime":72.74457491666666,"instrument":8,"program":23},{"pitch":58,"velocity":61,"startTime":72.64267272916666,"endTime":72.72419447916667,"instrument":8,"program":23},{"pitch":57,"velocity":87,"startTime":72.99593364583332,"endTime":73.11821627083334,"instrument":8,"program":23},{"pitch":57,"velocity":87,"startTime":73.65490112500001,"endTime":73.75680331250001,"instrument":8,"program":23},{"pitch":62,"velocity":97,"startTime":73.65490112500001,"endTime":73.76359679166667,"instrument":8,"program":23},{"pitch":60,"velocity":97,"startTime":74.307075125,"endTime":74.42935775000001,"instrument":8,"program":23},{"pitch":57,"velocity":75,"startTime":74.31386860416667,"endTime":74.42935775000001,"instrument":8,"program":23},{"pitch":62,"velocity":114,"startTime":74.93207520833332,"endTime":75.040770875,"instrument":8,"program":23},{"pitch":57,"velocity":87,"startTime":74.9388686875,"endTime":75.040770875,"instrument":8,"program":23},{"pitch":60,"velocity":97,"startTime":75.89674925000001,"endTime":76.45381454166667,"instrument":8,"program":23},{"pitch":58,"velocity":87,"startTime":76.4877819375,"endTime":76.65761891666668,"instrument":8,"program":23},{"pitch":57,"velocity":75,"startTime":76.66441239583332,"endTime":76.82745589583332,"instrument":8,"program":23},{"pitch":55,"velocity":75,"startTime":76.834249375,"endTime":77.51359729166667,"instrument":8,"program":23},{"pitch":54,"velocity":97,"startTime":77.52039077083334,"endTime":78.16577129166667,"instrument":8,"program":23},{"pitch":55,"velocity":114,"startTime":78.18615172916667,"endTime":78.32881479166669,"instrument":8,"program":23},{"pitch":67,"velocity":87,"startTime":79.239141,"endTime":79.32745622916667,"instrument":8,"program":23},{"pitch":75,"velocity":128,"startTime":79.239141,"endTime":79.32066275000001,"instrument":8,"program":23},{"pitch":65,"velocity":64,"startTime":79.565228,"endTime":79.66033670833335,"instrument":8,"program":23},{"pitch":74,"velocity":114,"startTime":79.565228,"endTime":79.66033670833335,"instrument":8,"program":23},{"pitch":63,"velocity":128,"startTime":79.891315,"endTime":79.96604327083332,"instrument":8,"program":23},{"pitch":72,"velocity":87,"startTime":79.891315,"endTime":79.96604327083332,"instrument":8,"program":23},{"pitch":62,"velocity":87,"startTime":80.217402,"endTime":80.29892375000001,"instrument":8,"program":23},{"pitch":70,"velocity":128,"startTime":80.217402,"endTime":80.28533679166668,"instrument":8,"program":23},{"pitch":60,"velocity":78,"startTime":80.54348900000001,"endTime":80.61821727083333,"instrument":8,"program":23},{"pitch":69,"velocity":87,"startTime":80.54348900000001,"endTime":80.63180422916668,"instrument":8,"program":23},{"pitch":58,"velocity":97,"startTime":80.86957600000001,"endTime":80.95789122916666,"instrument":8,"program":23},{"pitch":67,"velocity":78,"startTime":80.86957600000001,"endTime":80.95109775,"instrument":8,"program":23},{"pitch":62,"velocity":97,"startTime":81.195663,"endTime":82.10598920833334,"instrument":8,"program":23},{"pitch":60,"velocity":78,"startTime":81.52175,"endTime":82.10598920833334,"instrument":8,"program":23},{"pitch":66,"velocity":114,"startTime":81.52175,"endTime":82.11957616666666,"instrument":8,"program":23},{"pitch":62,"velocity":97,"startTime":82.13995660416666,"endTime":82.30300010416667,"instrument":8,"program":23},{"pitch":67,"velocity":78,"startTime":82.13995660416666,"endTime":82.31658706249999,"instrument":8,"program":23},{"pitch":58,"velocity":128,"startTime":82.1535435625,"endTime":82.31658706249999,"instrument":8,"program":23},{"pitch":55,"velocity":97,"startTime":83.478272,"endTime":83.79756552083334,"instrument":8,"program":23},{"pitch":57,"velocity":87,"startTime":83.804359,"endTime":84.07609816666665,"instrument":8,"program":23},{"pitch":58,"velocity":78,"startTime":84.09647860416668,"endTime":85.0883265625,"instrument":8,"program":23},{"pitch":55,"velocity":87,"startTime":85.10191352083335,"endTime":85.42120704166666,"instrument":8,"program":23},{"pitch":57,"velocity":97,"startTime":85.434794,"endTime":85.72012012500001,"instrument":8,"program":23},{"pitch":58,"velocity":87,"startTime":85.7405005625,"endTime":86.05979408333334,"instrument":8,"program":23},{"pitch":57,"velocity":114,"startTime":86.10055495833335,"endTime":86.69158764583334,"instrument":8,"program":23},{"pitch":55,"velocity":97,"startTime":86.70517460416667,"endTime":86.78669635416666,"instrument":8,"program":23},{"pitch":74,"velocity":114,"startTime":87.0448485625,"endTime":87.13995727083335,"instrument":8,"program":23},{"pitch":70,"velocity":128,"startTime":87.37772904166665,"endTime":87.45925079166666,"instrument":8,"program":23},{"pitch":67,"velocity":97,"startTime":87.68343560416666,"endTime":87.78533779166666,"instrument":8,"program":23},{"pitch":74,"velocity":114,"startTime":87.99593564583336,"endTime":88.09104435416667,"instrument":8,"program":23},{"pitch":72,"velocity":87,"startTime":88.17935958333334,"endTime":88.3084356875,"instrument":8,"program":23},{"pitch":70,"velocity":128,"startTime":88.30164220833333,"endTime":88.45789222916666,"instrument":8,"program":23},{"pitch":69,"velocity":87,"startTime":88.48506614583334,"endTime":88.5937618125,"instrument":8,"program":23},{"pitch":67,"velocity":97,"startTime":88.6345226875,"endTime":88.72963139583334,"instrument":8,"program":23},{"pitch":67,"velocity":97,"startTime":89.00816404166666,"endTime":89.06930535416667,"instrument":8,"program":23},{"pitch":67,"velocity":87,"startTime":89.10327275000002,"endTime":89.19158797916667,"instrument":8,"program":23},{"pitch":67,"velocity":87,"startTime":89.23914233333333,"endTime":89.31387060416667,"instrument":8,"program":23},{"pitch":65,"velocity":87,"startTime":89.56522933333333,"endTime":89.65354456250002,"instrument":8,"program":23},{"pitch":65,"velocity":114,"startTime":89.89810981250001,"endTime":89.98642504166666,"instrument":8,"program":23},{"pitch":63,"velocity":128,"startTime":90.19702289583334,"endTime":90.27175116666666,"instrument":8,"program":23},{"pitch":63,"velocity":128,"startTime":90.52310989583334,"endTime":90.61142512500001,"instrument":8,"program":23},{"pitch":62,"velocity":128,"startTime":90.82881645833335,"endTime":90.92392516666666,"instrument":8,"program":23},{"pitch":62,"velocity":97,"startTime":91.16849041666666,"endTime":92.11278402083335,"instrument":8,"program":23},{"pitch":63,"velocity":114,"startTime":92.0991970625,"endTime":92.24865360416666,"instrument":8,"program":23},{"pitch":62,"velocity":87,"startTime":92.26224056250001,"endTime":92.41849058333335,"instrument":8,"program":23},{"pitch":61,"velocity":128,"startTime":92.43207754166666,"endTime":92.56115364583334,"instrument":8,"program":23},{"pitch":60,"velocity":78,"startTime":92.60191452083333,"endTime":93.31522983333335,"instrument":8,"program":23},{"pitch":69,"velocity":128,"startTime":94.26631691666667,"endTime":94.361425625,"instrument":8,"program":23},{"pitch":69,"velocity":128,"startTime":94.40897997916667,"endTime":94.47691477083335,"instrument":8,"program":23},{"pitch":69,"velocity":97,"startTime":94.51088216666666,"endTime":94.59919739583334,"instrument":8,"program":23},{"pitch":67,"velocity":97,"startTime":94.86414308333333,"endTime":94.96604527083333,"instrument":8,"program":23},{"pitch":67,"velocity":114,"startTime":95.20381704166667,"endTime":95.29213227083333,"instrument":8,"program":23},{"pitch":66,"velocity":128,"startTime":95.50952360416667,"endTime":95.59104535416667,"instrument":8,"program":23},{"pitch":66,"velocity":128,"startTime":95.83561060416667,"endTime":95.91033887500001,"instrument":8,"program":23},{"pitch":63,"velocity":128,"startTime":96.88180639583334,"endTime":96.94294770833335,"instrument":8,"program":23},{"pitch":63,"velocity":128,"startTime":97.01088250000001,"endTime":97.08561077083334,"instrument":8,"program":23},{"pitch":63,"velocity":128,"startTime":97.14675208333335,"endTime":97.20789339583334,"instrument":8,"program":23},{"pitch":62,"velocity":128,"startTime":97.47283908333335,"endTime":97.55436083333333,"instrument":8,"program":23},{"pitch":62,"velocity":97,"startTime":97.81930652083335,"endTime":99.38860020833333,"instrument":8,"program":23},{"pitch":60,"velocity":97,"startTime":99.42256760416666,"endTime":99.72827416666667,"instrument":8,"program":23},{"pitch":72,"velocity":78,"startTime":99.7214806875,"endTime":99.82338287500001,"instrument":8,"program":23},{"pitch":60,"velocity":114,"startTime":100.74050256250001,"endTime":100.84919822916666,"instrument":8,"program":23},{"pitch":58,"velocity":128,"startTime":101.06658956250001,"endTime":101.15490479166667,"instrument":8,"program":23},{"pitch":57,"velocity":114,"startTime":101.37908960416667,"endTime":101.46740483333335,"instrument":8,"program":23},{"pitch":55,"velocity":114,"startTime":101.7187635625,"endTime":101.81387227083334,"instrument":8,"program":23},{"pitch":54,"velocity":128,"startTime":101.87501358333336,"endTime":101.97691577083336,"instrument":8,"program":23},{"pitch":55,"velocity":97,"startTime":102.02447012500001,"endTime":102.13316579166666,"instrument":8,"program":23},{"pitch":57,"velocity":128,"startTime":102.187513625,"endTime":102.2894158125,"instrument":8,"program":23},{"pitch":58,"velocity":128,"startTime":102.35055712500001,"endTime":102.45245931250001,"instrument":8,"program":23},{"pitch":57,"velocity":97,"startTime":102.50001366666667,"endTime":102.58832889583334,"instrument":8,"program":23},{"pitch":58,"velocity":128,"startTime":102.64267672916667,"endTime":102.75137239583334,"instrument":8,"program":23},{"pitch":60,"velocity":78,"startTime":102.81251370833334,"endTime":102.921209375,"instrument":8,"program":23},{"pitch":62,"velocity":78,"startTime":102.97555720833334,"endTime":103.11822027083333,"instrument":8,"program":23},{"pitch":61,"velocity":128,"startTime":103.15218766666666,"endTime":103.24050289583334,"instrument":8,"program":23},{"pitch":62,"velocity":78,"startTime":103.30843768750002,"endTime":103.45789422916667,"instrument":8,"program":23},{"pitch":63,"velocity":128,"startTime":103.45110075000001,"endTime":103.55300293750001,"instrument":8,"program":23},{"pitch":62,"velocity":87,"startTime":103.62773120833334,"endTime":103.7975681875,"instrument":8,"program":23},{"pitch":60,"velocity":114,"startTime":103.77718775000001,"endTime":103.92664429166666,"instrument":8,"program":23},{"pitch":58,"velocity":128,"startTime":103.92664429166666,"endTime":104.0828943125,"instrument":8,"program":23},{"pitch":57,"velocity":78,"startTime":104.09648127083334,"endTime":104.26631825,"instrument":8,"program":23},{"pitch":55,"velocity":97,"startTime":104.307079125,"endTime":104.64675308333334,"instrument":8,"program":23},{"pitch":57,"velocity":78,"startTime":104.66713352083335,"endTime":104.91849225000001,"instrument":8,"program":23},{"pitch":58,"velocity":78,"startTime":104.93887268750001,"endTime":105.91713368750001,"instrument":8,"program":23},{"pitch":55,"velocity":128,"startTime":105.95110108333336,"endTime":106.2024598125,"instrument":8,"program":23},{"pitch":57,"velocity":114,"startTime":106.25001416666667,"endTime":106.48099245833333,"instrument":8,"program":23},{"pitch":58,"velocity":128,"startTime":106.51495985416666,"endTime":106.80707945833333,"instrument":8,"program":23},{"pitch":57,"velocity":114,"startTime":106.86142729166666,"endTime":107.47284041666667,"instrument":8,"program":23},{"pitch":55,"velocity":97,"startTime":107.52039477083333,"endTime":107.61550347916666,"instrument":8,"program":23},{"pitch":74,"velocity":87,"startTime":107.88724264583334,"endTime":107.98235135416667,"instrument":8,"program":23},{"pitch":70,"velocity":128,"startTime":108.1997426875,"endTime":108.28805791666667,"instrument":8,"program":23},{"pitch":67,"velocity":97,"startTime":108.51903620833333,"endTime":108.6073514375,"instrument":8,"program":23},{"pitch":74,"velocity":97,"startTime":108.86550364583336,"endTime":108.96061235416667,"instrument":8,"program":23},{"pitch":72,"velocity":97,"startTime":109.04213410416668,"endTime":109.20517760416666,"instrument":8,"program":23},{"pitch":70,"velocity":128,"startTime":109.17121020833333,"endTime":109.31387327083334,"instrument":8,"program":23},{"pitch":69,"velocity":78,"startTime":109.34784066666666,"endTime":109.47012329166667,"instrument":8,"program":23},{"pitch":67,"velocity":114,"startTime":109.49729720833334,"endTime":109.59919939583334,"instrument":8,"program":23},{"pitch":67,"velocity":114,"startTime":109.85055812499999,"endTime":109.92528639583334,"instrument":8,"program":23},{"pitch":67,"velocity":97,"startTime":109.97963422916666,"endTime":110.06794945833335,"instrument":8,"program":23},{"pitch":67,"velocity":78,"startTime":110.10191685416666,"endTime":110.19023208333334,"instrument":8,"program":23},{"pitch":65,"velocity":97,"startTime":110.42800385416666,"endTime":110.51631908333334,"instrument":8,"program":23},{"pitch":65,"velocity":97,"startTime":110.78126477083333,"endTime":110.86278652083334,"instrument":8,"program":23},{"pitch":63,"velocity":128,"startTime":111.073384375,"endTime":111.15490612500001,"instrument":8,"program":23},{"pitch":63,"velocity":128,"startTime":111.39267789583334,"endTime":111.47419964583335,"instrument":8,"program":23},{"pitch":62,"velocity":97,"startTime":111.73235185416667,"endTime":111.82746056250001,"instrument":8,"program":23},{"pitch":60,"velocity":128,"startTime":112.16713452083334,"endTime":112.26224322916666,"instrument":8,"program":23},{"pitch":59,"velocity":87,"startTime":112.32338454166667,"endTime":112.41849325,"instrument":8,"program":23},{"pitch":60,"velocity":87,"startTime":112.47963456250001,"endTime":112.57474327083334,"instrument":8,"program":23},{"pitch":62,"velocity":114,"startTime":112.622297625,"endTime":112.73778677083335,"instrument":8,"program":23},{"pitch":63,"velocity":128,"startTime":112.79892808333334,"endTime":112.8872433125,"instrument":8,"program":23},{"pitch":62,"velocity":97,"startTime":112.92800418750001,"endTime":113.02311289583334,"instrument":8,"program":23},{"pitch":63,"velocity":128,"startTime":113.08425420833335,"endTime":113.18615639583335,"instrument":8,"program":23},{"pitch":65,"velocity":61,"startTime":113.25409118750001,"endTime":113.34240641666668,"instrument":8,"program":23},{"pitch":67,"velocity":87,"startTime":113.41713468750001,"endTime":113.5394173125,"instrument":8,"program":23},{"pitch":66,"velocity":128,"startTime":113.56659122916668,"endTime":113.6616999375,"instrument":8,"program":23},{"pitch":67,"velocity":61,"startTime":113.73642820833335,"endTime":113.87229779166665,"instrument":8,"program":23},{"pitch":68,"velocity":114,"startTime":113.86550431250001,"endTime":113.97419997916666,"instrument":8,"program":23},{"pitch":67,"velocity":78,"startTime":114.04213477083334,"endTime":114.19838479166665,"instrument":8,"program":23},{"pitch":65,"velocity":114,"startTime":114.19838479166665,"endTime":114.34784133333335,"instrument":8,"program":23},{"pitch":63,"velocity":114,"startTime":114.34784133333335,"endTime":114.51767831250001,"instrument":8,"program":23},{"pitch":62,"velocity":75,"startTime":114.51767831250001,"endTime":114.65354789583334,"instrument":8,"program":23},{"pitch":60,"velocity":114,"startTime":114.73506964583333,"endTime":115.0068088125,"instrument":8,"program":23},{"pitch":60,"velocity":87,"startTime":115.05436316666666,"endTime":115.16305883333334,"instrument":8,"program":23},{"pitch":63,"velocity":114,"startTime":115.05436316666666,"endTime":115.15626535416666,"instrument":8,"program":23},{"pitch":67,"velocity":78,"startTime":115.6997436875,"endTime":116.21604810416666,"instrument":8,"program":23},{"pitch":60,"velocity":87,"startTime":115.71333064583334,"endTime":116.19566766666667,"instrument":8,"program":23},{"pitch":66,"velocity":97,"startTime":116.30436333333334,"endTime":116.54213510416666,"instrument":8,"program":23},{"pitch":60,"velocity":87,"startTime":116.3111568125,"endTime":116.48778727083334,"instrument":8,"program":23},{"pitch":67,"velocity":78,"startTime":116.67121120833335,"endTime":116.82066775,"instrument":8,"program":23},{"pitch":60,"velocity":78,"startTime":116.6780046875,"endTime":116.80708079166666,"instrument":8,"program":23},{"pitch":58,"velocity":97,"startTime":117.32338520833333,"endTime":117.5747439375,"instrument":8,"program":23},{"pitch":58,"velocity":18,"startTime":117.66305916666667,"endTime":117.79213527083336,"instrument":8,"program":23},{"pitch":62,"velocity":114,"startTime":117.69023308333335,"endTime":117.79892875,"instrument":8,"program":23},{"pitch":67,"velocity":87,"startTime":118.33561360416667,"endTime":118.87229845833335,"instrument":8,"program":23},{"pitch":58,"velocity":97,"startTime":118.34240708333334,"endTime":118.77039627083334,"instrument":8,"program":23},{"pitch":66,"velocity":114,"startTime":118.93343977083335,"endTime":119.307081125,"instrument":8,"program":23},{"pitch":58,"velocity":97,"startTime":118.94702672916667,"endTime":119.09648327083335,"instrument":8,"program":23},{"pitch":58,"velocity":61,"startTime":119.307081125,"endTime":119.43615722916667,"instrument":8,"program":23},{"pitch":67,"velocity":97,"startTime":119.32746156249999,"endTime":119.46333114583334,"instrument":8,"program":23},{"pitch":62,"velocity":97,"startTime":120.30572256250001,"endTime":120.64539652083334,"instrument":8,"program":23},{"pitch":69,"velocity":97,"startTime":120.65219,"endTime":120.978277,"instrument":8,"program":23},{"pitch":66,"velocity":87,"startTime":120.95789656250001,"endTime":121.29077704166666,"instrument":8,"program":23},{"pitch":62,"velocity":64,"startTime":121.29757052083335,"endTime":121.6508314375,"instrument":8,"program":23},{"pitch":60,"velocity":70,"startTime":121.65762491666666,"endTime":122.18751629166667,"instrument":8,"program":23},{"pitch":54,"velocity":114,"startTime":122.20789672916666,"endTime":122.55436416666666,"instrument":8,"program":23},{"pitch":55,"velocity":97,"startTime":122.56795112500001,"endTime":122.66985331250001,"instrument":8,"program":23},{"pitch":62,"velocity":114,"startTime":122.9144185625,"endTime":123.76360345833334,"instrument":8,"program":23},{"pitch":60,"velocity":87,"startTime":123.260886,"endTime":123.62773387499999,"instrument":8,"program":23},{"pitch":66,"velocity":114,"startTime":123.27447295833335,"endTime":123.79757085416666,"instrument":8,"program":23},{"pitch":67,"velocity":70,"startTime":123.84512520833334,"endTime":124.035342625,"instrument":8,"program":23},{"pitch":62,"velocity":87,"startTime":123.85191868750002,"endTime":124.02175566666666,"instrument":8,"program":23},{"pitch":58,"velocity":114,"startTime":123.86550564583334,"endTime":124.0149621875,"instrument":8,"program":23},{"pitch":62,"velocity":128,"startTime":125.24458191666666,"endTime":125.32610366666667,"instrument":8,"program":23},{"pitch":62,"velocity":114,"startTime":125.37365802083335,"endTime":125.46876672916666,"instrument":8,"program":23},{"pitch":62,"velocity":114,"startTime":125.55028847916667,"endTime":125.63860370833335,"instrument":8,"program":23},{"pitch":62,"velocity":114,"startTime":125.69295154166666,"endTime":125.82202764583334,"instrument":8,"program":23},{"pitch":72,"velocity":114,"startTime":125.85599504166667,"endTime":125.96469070833335,"instrument":8,"program":23},{"pitch":62,"velocity":97,"startTime":126.01903854166666,"endTime":126.12773420833334,"instrument":8,"program":23},{"pitch":62,"velocity":114,"startTime":126.154908125,"endTime":126.25681031250001,"instrument":8,"program":23},{"pitch":62,"velocity":114,"startTime":126.31115814583335,"endTime":126.44702772916666,"instrument":8,"program":23},{"pitch":69,"velocity":128,"startTime":126.480995125,"endTime":126.60327775,"instrument":8,"program":23},{"pitch":62,"velocity":114,"startTime":126.63724514583335,"endTime":126.725560375,"instrument":8,"program":23},{"pitch":62,"velocity":114,"startTime":126.80028864583333,"endTime":126.89539735416668,"instrument":8,"program":23},{"pitch":62,"velocity":97,"startTime":126.9497451875,"endTime":127.0720278125,"instrument":8,"program":23},{"pitch":66,"velocity":128,"startTime":127.13996260416667,"endTime":127.26224522916667,"instrument":8,"program":23},{"pitch":62,"velocity":114,"startTime":127.28262566666666,"endTime":127.377734375,"instrument":8,"program":23},{"pitch":62,"velocity":128,"startTime":127.44566916666668,"endTime":127.5611583125,"instrument":8,"program":23},{"pitch":62,"velocity":87,"startTime":127.60871266666666,"endTime":127.72420181250001,"instrument":8,"program":23},{"pitch":62,"velocity":128,"startTime":127.785343125,"endTime":127.90083227083335,"instrument":8,"program":23},{"pitch":62,"velocity":87,"startTime":127.94159314583334,"endTime":128.05708229166666,"instrument":8,"program":23},{"pitch":62,"velocity":114,"startTime":128.10463664583332,"endTime":128.22012579166667,"instrument":8,"program":23},{"pitch":62,"velocity":87,"startTime":128.26088666666666,"endTime":128.36958233333334,"instrument":8,"program":23},{"pitch":62,"velocity":128,"startTime":128.43072364583333,"endTime":128.54621279166668,"instrument":8,"program":23},{"pitch":62,"velocity":87,"startTime":128.58697366666667,"endTime":128.69566933333334,"instrument":8,"program":23},{"pitch":62,"velocity":128,"startTime":128.75681064583333,"endTime":128.87229979166668,"instrument":8,"program":23},{"pitch":62,"velocity":97,"startTime":128.92664762500002,"endTime":129.04213677083334,"instrument":8,"program":23},{"pitch":63,"velocity":128,"startTime":129.09648460416668,"endTime":129.20518027083335,"instrument":8,"program":23},{"pitch":62,"velocity":97,"startTime":129.24594114583334,"endTime":129.34784333333334,"instrument":8,"program":23},{"pitch":61,"velocity":128,"startTime":129.40898464583336,"endTime":129.50409335416666,"instrument":8,"program":23},{"pitch":62,"velocity":97,"startTime":129.55844118750002,"endTime":129.68072381250002,"instrument":8,"program":23},{"pitch":63,"velocity":128,"startTime":129.73507164583336,"endTime":129.8437673125,"instrument":8,"program":23},{"pitch":62,"velocity":114,"startTime":129.89811514583334,"endTime":129.99322385416667,"instrument":8,"program":23},{"pitch":61,"velocity":128,"startTime":130.05436516666666,"endTime":130.15626735416666,"instrument":8,"program":23},{"pitch":62,"velocity":114,"startTime":130.2106151875,"endTime":130.31931085416664,"instrument":8,"program":23},{"pitch":62,"velocity":128,"startTime":130.394039125,"endTime":130.51632175,"instrument":8,"program":23},{"pitch":62,"velocity":97,"startTime":130.55028914583335,"endTime":130.6589848125,"instrument":8,"program":23},{"pitch":62,"velocity":114,"startTime":130.720126125,"endTime":130.81523483333336,"instrument":8,"program":23},{"pitch":62,"velocity":87,"startTime":130.883169625,"endTime":131.02583268749999,"instrument":8,"program":23},{"pitch":74,"velocity":128,"startTime":131.0665935625,"endTime":131.18208270833335,"instrument":8,"program":23},{"pitch":62,"velocity":128,"startTime":131.21605010416667,"endTime":131.33153925,"instrument":8,"program":23},{"pitch":62,"velocity":114,"startTime":131.37230012499998,"endTime":131.47420231249998,"instrument":8,"program":23},{"pitch":62,"velocity":114,"startTime":131.535343625,"endTime":131.65762625,"instrument":8,"program":23},{"pitch":70,"velocity":128,"startTime":131.70518060416666,"endTime":131.82066975,"instrument":8,"program":23},{"pitch":62,"velocity":114,"startTime":131.85463714583335,"endTime":131.95653933333332,"instrument":8,"program":23},{"pitch":62,"velocity":114,"startTime":132.01768064583334,"endTime":132.11278935416667,"instrument":8,"program":23},{"pitch":62,"velocity":97,"startTime":132.1671371875,"endTime":132.29621329166667,"instrument":8,"program":23},{"pitch":67,"velocity":128,"startTime":132.34376764583334,"endTime":132.47284375,"instrument":8,"program":23},{"pitch":62,"velocity":114,"startTime":132.52039810416667,"endTime":132.62230029166668,"instrument":8,"program":23},{"pitch":62,"velocity":114,"startTime":132.68344160416666,"endTime":132.79893075,"instrument":8,"program":23},{"pitch":62,"velocity":87,"startTime":132.83289814583333,"endTime":132.94838729166668,"instrument":8,"program":23},{"pitch":62,"velocity":114,"startTime":133.00273512500002,"endTime":133.12501775,"instrument":8,"program":23},{"pitch":62,"velocity":97,"startTime":133.165778625,"endTime":133.27447429166668,"instrument":8,"program":23},{"pitch":62,"velocity":114,"startTime":133.33561560416666,"endTime":133.45110475,"instrument":8,"program":23},{"pitch":62,"velocity":97,"startTime":133.49865910416668,"endTime":133.60735477083335,"instrument":8,"program":23},{"pitch":62,"velocity":114,"startTime":133.66849608333334,"endTime":133.79077870833333,"instrument":8,"program":23},{"pitch":62,"velocity":87,"startTime":133.82474610416668,"endTime":133.93344177083335,"instrument":8,"program":23},{"pitch":62,"velocity":128,"startTime":133.98778960416666,"endTime":134.09648527083334,"instrument":8,"program":23},{"pitch":62,"velocity":97,"startTime":134.15083310416665,"endTime":134.26632225,"instrument":8,"program":23},{"pitch":63,"velocity":128,"startTime":134.31387660416667,"endTime":134.42257227083334,"instrument":8,"program":23},{"pitch":62,"velocity":114,"startTime":134.47692010416665,"endTime":134.5720288125,"instrument":8,"program":23},{"pitch":61,"velocity":128,"startTime":134.62637664583335,"endTime":134.7350723125,"instrument":8,"program":23},{"pitch":62,"velocity":114,"startTime":134.7758331875,"endTime":134.89132233333336,"instrument":8,"program":23},{"pitch":63,"velocity":128,"startTime":134.94567016666664,"endTime":135.06795279166664,"instrument":8,"program":23},{"pitch":62,"velocity":114,"startTime":135.122300625,"endTime":135.21740933333336,"instrument":8,"program":23},{"pitch":61,"velocity":128,"startTime":135.27855064583335,"endTime":135.3872463125,"instrument":8,"program":23},{"pitch":62,"velocity":97,"startTime":135.43480066666666,"endTime":135.5502898125,"instrument":8,"program":23},{"pitch":62,"velocity":128,"startTime":135.6318115625,"endTime":135.7540941875,"instrument":8,"program":23},{"pitch":62,"velocity":87,"startTime":135.78806158333336,"endTime":135.89675725,"instrument":8,"program":23},{"pitch":62,"velocity":114,"startTime":135.96469204166667,"endTime":136.06659422916667,"instrument":8,"program":23},{"pitch":62,"velocity":97,"startTime":136.1209420625,"endTime":136.25681164583335,"instrument":8,"program":23},{"pitch":72,"velocity":114,"startTime":136.29757252083334,"endTime":136.4062681875,"instrument":8,"program":23},{"pitch":62,"velocity":128,"startTime":136.44023558333333,"endTime":136.54213777083334,"instrument":8,"program":23},{"pitch":62,"velocity":114,"startTime":136.589692125,"endTime":136.6915943125,"instrument":8,"program":23},{"pitch":62,"velocity":97,"startTime":136.75273562499999,"endTime":136.8953986875,"instrument":8,"program":23},{"pitch":69,"velocity":128,"startTime":136.92936608333332,"endTime":137.05164870833335,"instrument":8,"program":23},{"pitch":62,"velocity":114,"startTime":137.08561610416666,"endTime":137.18751829166666,"instrument":8,"program":23},{"pitch":62,"velocity":114,"startTime":137.24865960416668,"endTime":137.35056179166668,"instrument":8,"program":23},{"pitch":62,"velocity":97,"startTime":137.39132266666667,"endTime":137.51360529166666,"instrument":8,"program":23},{"pitch":66,"velocity":128,"startTime":137.567953125,"endTime":137.68344227083332,"instrument":8,"program":23},{"pitch":62,"velocity":114,"startTime":137.73779010416666,"endTime":137.83289881250002,"instrument":8,"program":23},{"pitch":62,"velocity":114,"startTime":137.90083360416668,"endTime":138.01632275,"instrument":8,"program":23},{"pitch":62,"velocity":87,"startTime":138.05029014583334,"endTime":138.16577929166667,"instrument":8,"program":23},{"pitch":62,"velocity":128,"startTime":138.23371408333335,"endTime":138.35599670833335,"instrument":8,"program":23},{"pitch":62,"velocity":97,"startTime":138.38996410416667,"endTime":138.50545325000002,"instrument":8,"program":23},{"pitch":62,"velocity":114,"startTime":138.55980108333335,"endTime":138.67529022916668,"instrument":8,"program":23},{"pitch":62,"velocity":97,"startTime":138.71605110416667,"endTime":138.83154025000002,"instrument":8,"program":23},{"pitch":62,"velocity":114,"startTime":138.88588808333336,"endTime":138.99458375,"instrument":8,"program":23},{"pitch":62,"velocity":87,"startTime":139.04893158333334,"endTime":139.16442072916666,"instrument":8,"program":23},{"pitch":62,"velocity":97,"startTime":139.20518160416665,"endTime":139.31387727083336,"instrument":8,"program":23},{"pitch":62,"velocity":114,"startTime":139.361431625,"endTime":139.48371425000002,"instrument":8,"program":23},{"pitch":63,"velocity":128,"startTime":139.53126860416666,"endTime":139.63996427083336,"instrument":8,"program":23},{"pitch":62,"velocity":97,"startTime":139.68072514583335,"endTime":139.78262733333335,"instrument":8,"program":23},{"pitch":61,"velocity":128,"startTime":139.84376864583336,"endTime":139.95925779166666,"instrument":8,"program":23},{"pitch":62,"velocity":97,"startTime":139.9932251875,"endTime":140.1155078125,"instrument":8,"program":23},{"pitch":63,"velocity":128,"startTime":140.18344260416666,"endTime":140.29893175,"instrument":8,"program":23},{"pitch":62,"velocity":97,"startTime":140.34648610416667,"endTime":140.43480133333335,"instrument":8,"program":23},{"pitch":61,"velocity":128,"startTime":140.50273612499998,"endTime":140.61143179166666,"instrument":8,"program":23},{"pitch":62,"velocity":97,"startTime":140.65898614583335,"endTime":140.76088833333336,"instrument":8,"program":23},{"pitch":62,"velocity":128,"startTime":140.84241008333333,"endTime":140.95789922916666,"instrument":8,"program":23},{"pitch":62,"velocity":78,"startTime":140.99866010416667,"endTime":141.11414925,"instrument":8,"program":23},{"pitch":62,"velocity":97,"startTime":141.1752905625,"endTime":141.28398622916666,"instrument":8,"program":23},{"pitch":62,"velocity":87,"startTime":141.3383340625,"endTime":141.47420364583334,"instrument":8,"program":23},{"pitch":74,"velocity":128,"startTime":141.51496452083333,"endTime":141.61007322916666,"instrument":8,"program":23},{"pitch":62,"velocity":114,"startTime":141.6644210625,"endTime":141.7867036875,"instrument":8,"program":23},{"pitch":62,"velocity":114,"startTime":141.807084125,"endTime":141.92257327083334,"instrument":8,"program":23},{"pitch":62,"velocity":114,"startTime":141.970127625,"endTime":142.09920372916667,"instrument":8,"program":23},{"pitch":70,"velocity":128,"startTime":142.14675808333334,"endTime":142.24866027083334,"instrument":8,"program":23},{"pitch":62,"velocity":114,"startTime":142.296214625,"endTime":142.38452985416666,"instrument":8,"program":23},{"pitch":62,"velocity":97,"startTime":142.44567116666667,"endTime":142.54757335416667,"instrument":8,"program":23},{"pitch":62,"velocity":97,"startTime":142.59512770833334,"endTime":142.73099729166668,"instrument":8,"program":23},{"pitch":67,"velocity":128,"startTime":142.7649646875,"endTime":142.88045383333335,"instrument":8,"program":23},{"pitch":62,"velocity":128,"startTime":142.94159514583333,"endTime":143.03670385416666,"instrument":8,"program":23},{"pitch":62,"velocity":114,"startTime":143.0910516875,"endTime":143.21333431250002,"instrument":8,"program":23},{"pitch":62,"velocity":97,"startTime":143.24730170833334,"endTime":143.36279085416666,"instrument":8,"program":23},{"pitch":62,"velocity":114,"startTime":143.42393216666667,"endTime":143.54621479166667,"instrument":8,"program":23},{"pitch":62,"velocity":97,"startTime":143.58018218750001,"endTime":143.69567133333334,"instrument":8,"program":23},{"pitch":62,"velocity":97,"startTime":143.763606125,"endTime":143.87230179166667,"instrument":8,"program":23},{"pitch":62,"velocity":87,"startTime":143.90626918750002,"endTime":144.01496485416666,"instrument":8,"program":23},{"pitch":62,"velocity":128,"startTime":144.089693125,"endTime":144.1915953125,"instrument":8,"program":23},{"pitch":62,"velocity":87,"startTime":144.23235618750002,"endTime":144.34105185416666,"instrument":8,"program":23},{"pitch":62,"velocity":114,"startTime":144.40898664583335,"endTime":144.51088883333335,"instrument":8,"program":23},{"pitch":62,"velocity":87,"startTime":144.56523666666666,"endTime":144.6807258125,"instrument":8,"program":23},{"pitch":63,"velocity":128,"startTime":144.73507364583335,"endTime":144.8437693125,"instrument":8,"program":23},{"pitch":62,"velocity":114,"startTime":144.90491062499999,"endTime":144.99322585416667,"instrument":8,"program":23},{"pitch":61,"velocity":128,"startTime":145.06116064583335,"endTime":145.16306283333336,"instrument":8,"program":23},{"pitch":62,"velocity":97,"startTime":145.2106171875,"endTime":145.31931285416667,"instrument":8,"program":23},{"pitch":63,"velocity":128,"startTime":145.3736606875,"endTime":145.48914983333333,"instrument":8,"program":23},{"pitch":62,"velocity":114,"startTime":145.55029114583334,"endTime":145.6589868125,"instrument":8,"program":23},{"pitch":61,"velocity":128,"startTime":145.68616072916666,"endTime":145.78806291666666,"instrument":8,"program":23},{"pitch":62,"velocity":128,"startTime":145.84241075,"endTime":145.97148685416667,"instrument":8,"program":23},{"pitch":60,"velocity":114,"startTime":146.01224772916666,"endTime":146.11414991666666,"instrument":8,"program":23},{"pitch":59,"velocity":87,"startTime":146.1888781875,"endTime":146.2703999375,"instrument":8,"program":23},{"pitch":60,"velocity":114,"startTime":146.33833472916666,"endTime":146.44703039583334,"instrument":8,"program":23},{"pitch":62,"velocity":128,"startTime":146.5149651875,"endTime":146.63045433333335,"instrument":8,"program":23},{"pitch":63,"velocity":128,"startTime":146.6780086875,"endTime":146.77311739583334,"instrument":8,"program":23},{"pitch":62,"velocity":128,"startTime":146.82746522916668,"endTime":146.92936741666668,"instrument":8,"program":23},{"pitch":63,"velocity":128,"startTime":146.98371525000002,"endTime":147.09241091666667,"instrument":8,"program":23},{"pitch":65,"velocity":114,"startTime":147.14675875,"endTime":147.26224789583335,"instrument":8,"program":23},{"pitch":67,"velocity":114,"startTime":147.3301826875,"endTime":147.47963922916668,"instrument":8,"program":23},{"pitch":66,"velocity":128,"startTime":147.50001966666667,"endTime":147.60871533333335,"instrument":8,"program":23},{"pitch":67,"velocity":87,"startTime":147.66306316666666,"endTime":147.76496535416666,"instrument":8,"program":23},{"pitch":71,"velocity":128,"startTime":147.83290014583335,"endTime":147.9415958125,"instrument":8,"program":23},{"pitch":72,"velocity":128,"startTime":147.99594364583334,"endTime":148.1046393125,"instrument":8,"program":23},{"pitch":71,"velocity":114,"startTime":148.15898714583335,"endTime":148.25409585416665,"instrument":8,"program":23},{"pitch":72,"velocity":114,"startTime":148.31523716666666,"endTime":148.41034587500002,"instrument":8,"program":23},{"pitch":74,"velocity":97,"startTime":148.46469370833336,"endTime":148.60056329166665,"instrument":8,"program":23},{"pitch":75,"velocity":128,"startTime":148.654911125,"endTime":148.79078070833336,"instrument":8,"program":23},{"pitch":74,"velocity":97,"startTime":148.84512854166667,"endTime":148.94023725,"instrument":8,"program":23},{"pitch":73,"velocity":128,"startTime":148.980998125,"endTime":149.08290031250002,"instrument":8,"program":23},{"pitch":74,"velocity":128,"startTime":149.15083510416665,"endTime":149.27991120833335,"instrument":8,"program":23},{"pitch":75,"velocity":128,"startTime":149.31387860416666,"endTime":149.470128625,"instrument":8,"program":23},{"pitch":74,"velocity":97,"startTime":149.46333514583335,"endTime":149.5720308125,"instrument":8,"program":23},{"pitch":73,"velocity":128,"startTime":149.6127916875,"endTime":149.72828083333334,"instrument":8,"program":23},{"pitch":74,"velocity":128,"startTime":149.78262866666665,"endTime":149.90491129166665,"instrument":8,"program":23},{"pitch":75,"velocity":128,"startTime":149.95246564583334,"endTime":150.0611613125,"instrument":8,"program":23},{"pitch":74,"velocity":114,"startTime":150.1019221875,"endTime":150.21061785416666,"instrument":8,"program":23},{"pitch":73,"velocity":128,"startTime":150.25137872916667,"endTime":150.3872483125,"instrument":8,"program":23},{"pitch":74,"velocity":97,"startTime":150.4280091875,"endTime":150.529911375,"instrument":8,"program":23},{"pitch":75,"velocity":128,"startTime":150.57746572916668,"endTime":150.6725744375,"instrument":8,"program":23},{"pitch":76,"velocity":114,"startTime":150.73371575,"endTime":150.84920489583334,"instrument":8,"program":23},{"pitch":77,"velocity":128,"startTime":150.9171396875,"endTime":151.00545491666668,"instrument":8,"program":23},{"pitch":78,"velocity":128,"startTime":151.06659622916666,"endTime":151.16849841666667,"instrument":8,"program":23},{"pitch":79,"velocity":114,"startTime":151.25002016666667,"endTime":151.35871583333335,"instrument":8,"program":23},{"pitch":78,"velocity":128,"startTime":151.39947670833334,"endTime":151.51496585416666,"instrument":8,"program":23},{"pitch":79,"velocity":97,"startTime":151.57610716666667,"endTime":151.69838979166667,"instrument":8,"program":23},{"pitch":81,"velocity":87,"startTime":151.752737625,"endTime":151.84784633333334,"instrument":8,"program":23},{"pitch":79,"velocity":97,"startTime":151.915781125,"endTime":152.02447679166667,"instrument":8,"program":23},{"pitch":78,"velocity":128,"startTime":152.05165070833334,"endTime":152.17393333333334,"instrument":8,"program":23},{"pitch":77,"velocity":114,"startTime":152.2214876875,"endTime":152.35056379166667,"instrument":8,"program":23},{"pitch":76,"velocity":114,"startTime":152.39132466666666,"endTime":152.51360729166666,"instrument":8,"program":23},{"pitch":75,"velocity":128,"startTime":152.56116164583335,"endTime":152.66306383333335,"instrument":8,"program":23},{"pitch":74,"velocity":114,"startTime":152.71741166666666,"endTime":152.82610733333334,"instrument":8,"program":23},{"pitch":73,"velocity":128,"startTime":152.894042125,"endTime":152.9959443125,"instrument":8,"program":23},{"pitch":74,"velocity":114,"startTime":153.05029214583334,"endTime":153.14540085416667,"instrument":8,"program":23},{"pitch":75,"velocity":128,"startTime":153.22692260416665,"endTime":153.34241175,"instrument":8,"program":23},{"pitch":74,"velocity":97,"startTime":153.39675958333336,"endTime":153.5258356875,"instrument":8,"program":23},{"pitch":70,"velocity":128,"startTime":153.5665965625,"endTime":153.6888791875,"instrument":8,"program":23},{"pitch":67,"velocity":114,"startTime":153.72284658333336,"endTime":153.84512920833336,"instrument":8,"program":23},{"pitch":75,"velocity":128,"startTime":153.88589008333335,"endTime":154.02175966666667,"instrument":8,"program":23},{"pitch":74,"velocity":64,"startTime":154.04893358333334,"endTime":154.20518360416665,"instrument":8,"program":23},{"pitch":70,"velocity":128,"startTime":154.21197708333335,"endTime":154.34784666666667,"instrument":8,"program":23},{"pitch":67,"velocity":97,"startTime":154.38860754166666,"endTime":154.48371625,"instrument":8,"program":23},{"pitch":70,"velocity":128,"startTime":154.57203147916667,"endTime":154.73507497916665,"instrument":8,"program":23},{"pitch":67,"velocity":97,"startTime":154.72148802083333,"endTime":154.87773804166667,"instrument":8,"program":23},{"pitch":63,"velocity":128,"startTime":154.87773804166667,"endTime":155.00002066666667,"instrument":8,"program":23},{"pitch":62,"velocity":75,"startTime":155.0339880625,"endTime":155.14268372916666,"instrument":8,"program":23},{"pitch":63,"velocity":128,"startTime":155.1970315625,"endTime":155.33290114583335,"instrument":8,"program":23},{"pitch":62,"velocity":97,"startTime":155.3600750625,"endTime":155.51632508333333,"instrument":8,"program":23},{"pitch":58,"velocity":97,"startTime":155.5231185625,"endTime":155.65219466666667,"instrument":8,"program":23},{"pitch":55,"velocity":78,"startTime":155.65898814583335,"endTime":155.78806425,"instrument":8,"program":23},{"pitch":58,"velocity":128,"startTime":155.83561860416668,"endTime":155.95110775,"instrument":8,"program":23},{"pitch":55,"velocity":128,"startTime":156.00545558333334,"endTime":156.14811864583334,"instrument":8,"program":23},{"pitch":53,"velocity":97,"startTime":156.154912125,"endTime":156.2636077916667,"instrument":8,"program":23},{"pitch":51,"velocity":128,"startTime":156.317955625,"endTime":156.480999125,"instrument":8,"program":23},{"pitch":50,"velocity":97,"startTime":156.48779260416666,"endTime":156.60328175,"instrument":8,"program":23},{"pitch":49,"velocity":128,"startTime":156.65762958333335,"endTime":156.75953177083335,"instrument":8,"program":23},{"pitch":50,"velocity":97,"startTime":156.80029264583334,"endTime":156.92936875,"instrument":8,"program":23},{"pitch":52,"velocity":128,"startTime":156.97692310416667,"endTime":157.08561877083335,"instrument":8,"program":23},{"pitch":54,"velocity":128,"startTime":157.12637964583334,"endTime":157.23507531250002,"instrument":8,"program":23},{"pitch":53,"velocity":114,"startTime":157.28262966666665,"endTime":157.40491229166668,"instrument":8,"program":23},{"pitch":54,"velocity":128,"startTime":157.43208620833335,"endTime":157.59512970833336,"instrument":8,"program":23},{"pitch":55,"velocity":114,"startTime":157.59512970833336,"endTime":157.71741233333333,"instrument":8,"program":23},{"pitch":57,"velocity":114,"startTime":157.785347125,"endTime":157.948390625,"instrument":8,"program":23},{"pitch":56,"velocity":128,"startTime":157.948390625,"endTime":158.05708629166668,"instrument":8,"program":23},{"pitch":57,"velocity":97,"startTime":158.10464064583334,"endTime":158.22012979166666,"instrument":8,"program":23},{"pitch":59,"velocity":128,"startTime":158.26768414583333,"endTime":158.38317329166665,"instrument":8,"program":23},{"pitch":60,"velocity":114,"startTime":158.43072764583334,"endTime":158.54621679166667,"instrument":8,"program":23},{"pitch":59,"velocity":114,"startTime":158.57339070833333,"endTime":158.68887985416666,"instrument":8,"program":23},{"pitch":60,"velocity":128,"startTime":158.7432276875,"endTime":158.845129875,"instrument":8,"program":23},{"pitch":61,"velocity":128,"startTime":158.89268422916666,"endTime":159.00137989583334,"instrument":8,"program":23},{"pitch":62,"velocity":114,"startTime":159.0693146875,"endTime":159.20518427083334,"instrument":8,"program":23},{"pitch":61,"velocity":128,"startTime":159.22556470833334,"endTime":159.334260375,"instrument":8,"program":23},{"pitch":62,"velocity":97,"startTime":159.37502125,"endTime":159.49051039583333,"instrument":8,"program":23},{"pitch":64,"velocity":128,"startTime":159.55844518749998,"endTime":159.6671408541667,"instrument":8,"program":23},{"pitch":66,"velocity":128,"startTime":159.7214886875,"endTime":159.83018435416665,"instrument":8,"program":23},{"pitch":65,"velocity":114,"startTime":159.87773870833334,"endTime":159.99322785416666,"instrument":8,"program":23},{"pitch":66,"velocity":128,"startTime":160.04078220833333,"endTime":160.14268439583333,"instrument":8,"program":23},{"pitch":67,"velocity":114,"startTime":160.19703222916667,"endTime":160.3329018125,"instrument":8,"program":23},{"pitch":69,"velocity":97,"startTime":160.36686920833336,"endTime":160.51632575,"instrument":8,"program":23},{"pitch":66,"velocity":128,"startTime":160.52311922916667,"endTime":160.64540185416666,"instrument":8,"program":23},{"pitch":62,"velocity":97,"startTime":160.6657822916667,"endTime":160.7812714375,"instrument":8,"program":23},{"pitch":63,"velocity":128,"startTime":160.84241275000002,"endTime":160.97148885416667,"instrument":8,"program":23},{"pitch":62,"velocity":97,"startTime":161.01224972916668,"endTime":161.10735843749998,"instrument":8,"program":23},{"pitch":60,"velocity":114,"startTime":161.18888018750002,"endTime":161.33154325,"instrument":8,"program":23},{"pitch":58,"velocity":128,"startTime":161.33833672916666,"endTime":161.46061935416665,"instrument":8,"program":23},{"pitch":57,"velocity":128,"startTime":161.49458675000002,"endTime":161.60328241666667,"instrument":8,"program":23},{"pitch":55,"velocity":97,"startTime":161.68480416666665,"endTime":161.77311939583336,"instrument":8,"program":23},{"pitch":75,"velocity":128,"startTime":161.95654333333334,"endTime":162.09241291666666,"instrument":8,"program":23},{"pitch":74,"velocity":114,"startTime":162.09241291666666,"endTime":162.23507597916668,"instrument":8,"program":23},{"pitch":72,"velocity":97,"startTime":162.25545641666665,"endTime":162.350565125,"instrument":8,"program":23},{"pitch":70,"velocity":128,"startTime":162.42529339583336,"endTime":162.52040210416666,"instrument":8,"program":23},{"pitch":69,"velocity":114,"startTime":162.58154341666668,"endTime":162.68344560416668,"instrument":8,"program":23},{"pitch":67,"velocity":97,"startTime":162.70382604166664,"endTime":162.8193151875,"instrument":8,"program":23},{"pitch":66,"velocity":128,"startTime":162.88724997916668,"endTime":163.002739125,"instrument":8,"program":23},{"pitch":63,"velocity":128,"startTime":163.0435,"endTime":163.16578262500002,"instrument":8,"program":23},{"pitch":62,"velocity":128,"startTime":163.19975002083333,"endTime":163.31523916666666,"instrument":8,"program":23},{"pitch":60,"velocity":124,"startTime":163.33561960416668,"endTime":163.46469570833335,"instrument":8,"program":23},{"pitch":58,"velocity":128,"startTime":163.51904354166666,"endTime":163.62773920833334,"instrument":8,"program":23},{"pitch":57,"velocity":114,"startTime":163.6752935625,"endTime":163.79078270833335,"instrument":8,"program":23},{"pitch":55,"velocity":114,"startTime":163.80436966666664,"endTime":163.91985881250002,"instrument":8,"program":23},{"pitch":54,"velocity":128,"startTime":163.98100012499998,"endTime":164.09648927083336,"instrument":8,"program":23},{"pitch":57,"velocity":114,"startTime":164.15083710416664,"endTime":164.2867066875,"instrument":8,"program":23},{"pitch":55,"velocity":114,"startTime":164.31388060416666,"endTime":164.4225762708333,"instrument":8,"program":23},{"pitch":62,"velocity":128,"startTime":164.67393500000003,"endTime":165.57067425000002,"instrument":8,"program":23},{"pitch":60,"velocity":70,"startTime":164.97964156249998,"endTime":165.5774677291667,"instrument":8,"program":23},{"pitch":66,"velocity":114,"startTime":164.98643504166668,"endTime":165.5502938125,"instrument":8,"program":23},{"pitch":67,"velocity":50,"startTime":165.5774677291667,"endTime":165.74730470833333,"instrument":8,"program":23},{"pitch":62,"velocity":58,"startTime":165.59784816666667,"endTime":165.74730470833333,"instrument":8,"program":23},{"pitch":58,"velocity":128,"startTime":165.6046416458333,"endTime":165.74051122916666,"instrument":8,"program":23},{"pitch":67,"velocity":128,"startTime":166.9905113958333,"endTime":167.0924135833333,"instrument":8,"program":23},{"pitch":66,"velocity":128,"startTime":167.2962179583333,"endTime":167.37773970833334,"instrument":8,"program":23},{"pitch":67,"velocity":128,"startTime":167.5747506041667,"endTime":167.69023975000002,"instrument":8,"program":23},{"pitch":69,"velocity":128,"startTime":167.9212180416667,"endTime":168.28806591666668,"instrument":8,"program":23},{"pitch":70,"velocity":128,"startTime":168.54621812500002,"endTime":169.1372508125,"instrument":8,"program":23},{"pitch":69,"velocity":128,"startTime":169.2187725625,"endTime":169.31388127083332,"instrument":8,"program":23},{"pitch":67,"velocity":128,"startTime":169.57882695833334,"endTime":169.66034870833332,"instrument":8,"program":23},{"pitch":66,"velocity":128,"startTime":169.72149002083333,"endTime":169.81659872916669,"instrument":8,"program":23},{"pitch":67,"velocity":97,"startTime":169.8709465625,"endTime":169.95246831250003,"instrument":8,"program":23},{"pitch":69,"velocity":128,"startTime":170.02040310416666,"endTime":170.12230529166666,"instrument":8,"program":23},{"pitch":70,"velocity":128,"startTime":170.176653125,"endTime":170.2785553125,"instrument":8,"program":23},{"pitch":69,"velocity":128,"startTime":170.3329031458333,"endTime":170.42801185416667,"instrument":8,"program":23},{"pitch":70,"velocity":128,"startTime":170.47556620833333,"endTime":170.5774683958333,"instrument":8,"program":23},{"pitch":72,"velocity":114,"startTime":170.6521966666667,"endTime":170.7676858125,"instrument":8,"program":23},{"pitch":74,"velocity":114,"startTime":170.81524016666665,"endTime":170.9239358333333,"instrument":8,"program":23},{"pitch":72,"velocity":97,"startTime":170.9714901875,"endTime":171.09377281250002,"instrument":8,"program":23},{"pitch":70,"velocity":128,"startTime":171.12094672916666,"endTime":171.2432293541667,"instrument":8,"program":23},{"pitch":69,"velocity":97,"startTime":171.29078370833332,"endTime":171.41306633333332,"instrument":8,"program":23},{"pitch":67,"velocity":64,"startTime":171.4606206875,"endTime":171.56931635416666,"instrument":8,"program":23},{"pitch":69,"velocity":114,"startTime":171.60328375,"endTime":171.73235985416667,"instrument":8,"program":23},{"pitch":67,"velocity":87,"startTime":171.75953377083334,"endTime":171.86143595833335,"instrument":8,"program":23},{"pitch":65,"velocity":114,"startTime":171.93616422916668,"endTime":172.06524033333335,"instrument":8,"program":23},{"pitch":63,"velocity":128,"startTime":172.1127946875,"endTime":172.46605560416668,"instrument":8,"program":23},{"pitch":62,"velocity":128,"startTime":172.48643604166668,"endTime":172.59513170833333,"instrument":8,"program":23},{"pitch":63,"velocity":128,"startTime":172.78534912499998,"endTime":172.88725131249998,"instrument":8,"program":23},{"pitch":65,"velocity":128,"startTime":173.1182296041667,"endTime":173.26768614583335,"instrument":8,"program":23},{"pitch":67,"velocity":128,"startTime":173.71605577083332,"endTime":174.30708845833334,"instrument":8,"program":23},{"pitch":63,"velocity":128,"startTime":174.3546428125,"endTime":174.47013195833333,"instrument":8,"program":23},{"pitch":62,"velocity":128,"startTime":174.7690450416667,"endTime":174.8573602708333,"instrument":8,"program":23},{"pitch":61,"velocity":128,"startTime":174.91170810416668,"endTime":175.00002333333333,"instrument":8,"program":23},{"pitch":62,"velocity":97,"startTime":175.0475776875,"endTime":175.14268639583332,"instrument":8,"program":23},{"pitch":66,"velocity":128,"startTime":175.2038277083333,"endTime":175.2921429375,"instrument":8,"program":23},{"pitch":67,"velocity":114,"startTime":175.36007772916668,"endTime":175.4823603541667,"instrument":8,"program":23},{"pitch":66,"velocity":128,"startTime":175.5231212291667,"endTime":175.61143645833332,"instrument":8,"program":23},{"pitch":67,"velocity":78,"startTime":175.67257777083333,"endTime":175.77447995833333,"instrument":8,"program":23},{"pitch":69,"velocity":128,"startTime":175.83562127083334,"endTime":175.93752345833335,"instrument":8,"program":23},{"pitch":70,"velocity":128,"startTime":175.9850778125,"endTime":176.09377347916666,"instrument":8,"program":23},{"pitch":69,"velocity":114,"startTime":176.1481213125,"endTime":176.2432300208333,"instrument":8,"program":23},{"pitch":70,"velocity":128,"startTime":176.3043713333333,"endTime":176.413067,"instrument":8,"program":23},{"pitch":72,"velocity":87,"startTime":176.48779527083335,"endTime":176.5964909375,"instrument":8,"program":23},{"pitch":74,"velocity":114,"startTime":176.6508387708333,"endTime":176.7595344375,"instrument":8,"program":23},{"pitch":72,"velocity":114,"startTime":176.8002953125,"endTime":176.9225779375,"instrument":8,"program":23},{"pitch":70,"velocity":128,"startTime":176.94295837500002,"endTime":177.0856214375,"instrument":8,"program":23},{"pitch":69,"velocity":97,"startTime":177.11279535416668,"endTime":177.25545841666667,"instrument":8,"program":23},{"pitch":67,"velocity":128,"startTime":177.2962192916667,"endTime":177.6562736875,"instrument":8,"program":23},{"pitch":66,"velocity":128,"startTime":177.69024108333335,"endTime":177.77176283333333,"instrument":8,"program":23},{"pitch":67,"velocity":114,"startTime":178.01632808333332,"endTime":178.10464331249997,"instrument":8,"program":23},{"pitch":69,"velocity":128,"startTime":178.34241508333332,"endTime":178.42393683333333,"instrument":8,"program":23},{"pitch":70,"velocity":128,"startTime":178.9470347291667,"endTime":179.53806741666668,"instrument":8,"program":23},{"pitch":69,"velocity":114,"startTime":179.59241525000002,"endTime":179.68752395833332,"instrument":8,"program":23},{"pitch":67,"velocity":128,"startTime":179.97285008333333,"endTime":180.0611653125,"instrument":8,"program":23},{"pitch":66,"velocity":128,"startTime":180.122306625,"endTime":180.2106218541667,"instrument":8,"program":23},{"pitch":67,"velocity":97,"startTime":180.26496968749998,"endTime":180.36007839583334,"instrument":8,"program":23},{"pitch":69,"velocity":128,"startTime":180.42121970833333,"endTime":180.51632841666665,"instrument":8,"program":23},{"pitch":70,"velocity":128,"startTime":180.57067625,"endTime":180.67937191666667,"instrument":8,"program":23},{"pitch":69,"velocity":128,"startTime":180.74730670833333,"endTime":180.8356219375,"instrument":8,"program":23},{"pitch":70,"velocity":128,"startTime":180.88996977083332,"endTime":180.99187195833332,"instrument":8,"program":23},{"pitch":72,"velocity":78,"startTime":181.0666002291667,"endTime":181.18888285416668,"instrument":8,"program":23},{"pitch":74,"velocity":87,"startTime":181.2364372083333,"endTime":181.345132875,"instrument":8,"program":23},{"pitch":72,"velocity":87,"startTime":181.39268722916668,"endTime":181.5149698541667,"instrument":8,"program":23},{"pitch":70,"velocity":128,"startTime":181.5285568125,"endTime":181.6576329166667,"instrument":8,"program":23},{"pitch":69,"velocity":97,"startTime":181.6916003125,"endTime":181.8274698958333,"instrument":8,"program":23},{"pitch":67,"velocity":87,"startTime":181.8614372916667,"endTime":181.956546,"instrument":8,"program":23},{"pitch":69,"velocity":128,"startTime":182.0041003541667,"endTime":182.12638297916666,"instrument":8,"program":23},{"pitch":67,"velocity":87,"startTime":182.15355689583333,"endTime":182.25545908333334,"instrument":8,"program":23},{"pitch":65,"velocity":114,"startTime":182.32339387500002,"endTime":182.45926345833334,"instrument":8,"program":23},{"pitch":63,"velocity":128,"startTime":182.51361129166668,"endTime":182.9212200416667,"instrument":8,"program":23},{"pitch":62,"velocity":114,"startTime":182.94839395833333,"endTime":183.04350266666668,"instrument":8,"program":23},{"pitch":63,"velocity":128,"startTime":183.24051356249998,"endTime":183.3356222708333,"instrument":8,"program":23},{"pitch":65,"velocity":128,"startTime":183.55980708333334,"endTime":183.6752962291667,"instrument":8,"program":23},{"pitch":67,"velocity":128,"startTime":184.17122020833332,"endTime":184.7622528958333,"instrument":8,"program":23},{"pitch":63,"velocity":128,"startTime":184.80980725,"endTime":184.9117094375,"instrument":8,"program":23},{"pitch":62,"velocity":128,"startTime":185.21741600000001,"endTime":185.3125247083333,"instrument":8,"program":23},{"pitch":61,"velocity":128,"startTime":185.3804595,"endTime":185.47556820833333,"instrument":8,"program":23},{"pitch":62,"velocity":97,"startTime":185.54350300000002,"endTime":185.62502475,"instrument":8,"program":23},{"pitch":66,"velocity":114,"startTime":185.7065465,"endTime":185.78806825,"instrument":8,"program":23},{"pitch":67,"velocity":97,"startTime":185.86959,"endTime":185.991872625,"instrument":8,"program":23},{"pitch":66,"velocity":128,"startTime":186.0326335,"endTime":186.12774220833333,"instrument":8,"program":23},{"pitch":67,"velocity":97,"startTime":186.19567700000002,"endTime":186.29757918750002,"instrument":8,"program":23},{"pitch":69,"velocity":114,"startTime":186.3587205,"endTime":186.4606226875,"instrument":8,"program":23},{"pitch":70,"velocity":128,"startTime":186.521764,"endTime":186.6304596666667,"instrument":8,"program":23},{"pitch":69,"velocity":114,"startTime":186.6848075,"endTime":186.77991620833333,"instrument":8,"program":23},{"pitch":70,"velocity":128,"startTime":186.84785100000002,"endTime":186.95654666666667,"instrument":8,"program":23},{"pitch":72,"velocity":87,"startTime":187.01089449999998,"endTime":187.133177125,"instrument":8,"program":23},{"pitch":74,"velocity":87,"startTime":187.173938,"endTime":187.2758401875,"instrument":8,"program":23},{"pitch":75,"velocity":128,"startTime":187.3369815,"endTime":187.4252967291667,"instrument":8,"program":23},{"pitch":76,"velocity":97,"startTime":187.50002500000002,"endTime":187.60872066666667,"instrument":8,"program":23},{"pitch":78,"velocity":128,"startTime":187.66306849999998,"endTime":187.77855764583333,"instrument":8,"program":23},{"pitch":79,"velocity":128,"startTime":187.826112,"endTime":188.01632941666668,"instrument":8,"program":23},{"pitch":74,"velocity":87,"startTime":188.57339470833332,"endTime":189.21198175,"instrument":8,"program":23},{"pitch":75,"velocity":114,"startTime":189.23915566666668,"endTime":190.1291014375,"instrument":8,"program":23},{"pitch":74,"velocity":97,"startTime":190.0815470833333,"endTime":190.36687320833335,"instrument":8,"program":23},{"pitch":74,"velocity":87,"startTime":190.4280145208333,"endTime":191.3519276875,"instrument":8,"program":23},{"pitch":72,"velocity":87,"startTime":191.36551464583334,"endTime":191.57611250000002,"instrument":8,"program":23},{"pitch":72,"velocity":97,"startTime":191.69160164583332,"endTime":192.0041016875,"instrument":8,"program":23},{"pitch":75,"velocity":128,"startTime":192.0516560416667,"endTime":192.32339520833332,"instrument":8,"program":23},{"pitch":74,"velocity":87,"startTime":192.36415608333334,"endTime":193.28127577083333,"instrument":8,"program":23},{"pitch":72,"velocity":128,"startTime":193.70247147916666,"endTime":194.27991720833333,"instrument":8,"program":23},{"pitch":74,"velocity":128,"startTime":194.32747156250002,"endTime":195.17665645833333,"instrument":8,"program":23},{"pitch":72,"velocity":97,"startTime":195.2242108125,"endTime":195.49594997916668,"instrument":8,"program":23},{"pitch":72,"velocity":128,"startTime":195.62502608333332,"endTime":196.508178375,"instrument":8,"program":23},{"pitch":70,"velocity":114,"startTime":196.5353522916667,"endTime":196.80709145833333,"instrument":8,"program":23},{"pitch":70,"velocity":128,"startTime":196.92937408333333,"endTime":197.2147002083333,"instrument":8,"program":23},{"pitch":74,"velocity":97,"startTime":197.26904804166668,"endTime":197.52040677083332,"instrument":8,"program":23},{"pitch":72,"velocity":78,"startTime":197.59513504166668,"endTime":198.86551564583334,"instrument":8,"program":23},{"pitch":70,"velocity":128,"startTime":198.8926895625,"endTime":199.4633418125,"instrument":8,"program":23},{"pitch":72,"velocity":114,"startTime":199.5108961666667,"endTime":200.4008419375,"instrument":8,"program":23},{"pitch":70,"velocity":128,"startTime":200.41442889583334,"endTime":200.73372241666667,"instrument":8,"program":23},{"pitch":70,"velocity":128,"startTime":200.81524416666667,"endTime":201.71198341666667,"instrument":8,"program":23},{"pitch":69,"velocity":114,"startTime":201.7527442916667,"endTime":201.99730954166668,"instrument":8,"program":23},{"pitch":69,"velocity":128,"startTime":202.1127986875,"endTime":202.41171177083334,"instrument":8,"program":23},{"pitch":72,"velocity":114,"startTime":202.459266125,"endTime":202.72421181250002,"instrument":8,"program":23},{"pitch":70,"velocity":128,"startTime":202.77176616666668,"endTime":204.0013858958333,"instrument":8,"program":23},{"pitch":69,"velocity":114,"startTime":204.0625272083333,"endTime":204.70790772916666,"instrument":8,"program":23},{"pitch":67,"velocity":114,"startTime":204.72149468749998,"endTime":205.3804621666667,"instrument":8,"program":23},{"pitch":66,"velocity":128,"startTime":205.42122304166668,"endTime":206.03942964583334,"instrument":8,"program":23},{"pitch":67,"velocity":87,"startTime":206.05981008333333,"endTime":206.1481253125,"instrument":8,"program":23},{"pitch":62,"velocity":114,"startTime":206.37231012499998,"endTime":207.23508197916667,"instrument":8,"program":23},{"pitch":60,"velocity":97,"startTime":206.71198408333333,"endTime":207.29622329166668,"instrument":8,"program":23},{"pitch":66,"velocity":114,"startTime":206.71877756249998,"endTime":207.27584285416665,"instrument":8,"program":23},{"pitch":67,"velocity":61,"startTime":207.30981025000003,"endTime":207.50682114583333,"instrument":8,"program":23},{"pitch":62,"velocity":87,"startTime":207.3166037291667,"endTime":207.4932341875,"instrument":8,"program":23},{"pitch":58,"velocity":128,"startTime":207.32339720833332,"endTime":207.47964722916666,"instrument":8,"program":23},{"pitch":50,"velocity":87,"startTime":208.8587235,"endTime":208.9606256875,"instrument":8,"program":23},{"pitch":50,"velocity":114,"startTime":209.021767,"endTime":209.144049625,"instrument":8,"program":23},{"pitch":50,"velocity":128,"startTime":209.1848105,"endTime":209.3138866041667,"instrument":8,"program":23},{"pitch":54,"velocity":128,"startTime":209.34785399999998,"endTime":209.470136625,"instrument":8,"program":23},{"pitch":54,"velocity":114,"startTime":209.5108975,"endTime":209.5856257708333,"instrument":8,"program":23},{"pitch":54,"velocity":128,"startTime":209.673941,"endTime":209.76904970833334,"instrument":8,"program":23},{"pitch":54,"velocity":128,"startTime":209.8369845,"endTime":209.89812581249998,"instrument":8,"program":23},{"pitch":57,"velocity":128,"startTime":210.000028,"endTime":210.122310625,"instrument":8,"program":23},{"pitch":57,"velocity":75,"startTime":210.1630715,"endTime":210.25138672916668,"instrument":8,"program":23},{"pitch":57,"velocity":114,"startTime":210.32611500000002,"endTime":210.4348106666667,"instrument":8,"program":23},{"pitch":57,"velocity":87,"startTime":210.48915849999997,"endTime":210.59106068749998,"instrument":8,"program":23},{"pitch":60,"velocity":114,"startTime":210.652202,"endTime":210.7541041875,"instrument":8,"program":23},{"pitch":60,"velocity":97,"startTime":210.8152455,"endTime":210.91035420833333,"instrument":8,"program":23},{"pitch":60,"velocity":114,"startTime":210.97828900000002,"endTime":211.07339770833332,"instrument":8,"program":23},{"pitch":60,"velocity":97,"startTime":211.14133249999998,"endTime":211.24323468749998,"instrument":8,"program":23},{"pitch":63,"velocity":128,"startTime":211.304376,"endTime":211.38589775000003,"instrument":8,"program":23},{"pitch":63,"velocity":128,"startTime":211.4674195,"endTime":211.54894124999998,"instrument":8,"program":23},{"pitch":63,"velocity":128,"startTime":211.63046300000002,"endTime":211.73236518750002,"instrument":8,"program":23},{"pitch":63,"velocity":128,"startTime":211.7935065,"endTime":211.8682347708333,"instrument":8,"program":23},{"pitch":62,"velocity":128,"startTime":211.95655,"endTime":212.06524566666667,"instrument":8,"program":23},{"pitch":62,"velocity":97,"startTime":212.1195935,"endTime":212.2147022083333,"instrument":8,"program":23},{"pitch":62,"velocity":128,"startTime":212.28263700000002,"endTime":212.3913326666667,"instrument":8,"program":23},{"pitch":62,"velocity":97,"startTime":212.4456805,"endTime":212.5475826875,"instrument":8,"program":23},{"pitch":60,"velocity":114,"startTime":212.608724,"endTime":212.73100662500002,"instrument":8,"program":23},{"pitch":60,"velocity":97,"startTime":212.7717675,"endTime":212.8668762083333,"instrument":8,"program":23},{"pitch":60,"velocity":114,"startTime":212.934811,"endTime":213.057093625,"instrument":8,"program":23},{"pitch":60,"velocity":87,"startTime":213.0978545,"endTime":213.1861697291667,"instrument":8,"program":23},{"pitch":57,"velocity":114,"startTime":213.260898,"endTime":213.37638714583332,"instrument":8,"program":23},{"pitch":57,"velocity":97,"startTime":213.4239415,"endTime":213.5190502083333,"instrument":8,"program":23},{"pitch":57,"velocity":78,"startTime":213.586985,"endTime":213.6888871875,"instrument":8,"program":23},{"pitch":57,"velocity":97,"startTime":213.7500285,"endTime":213.85193068750002,"instrument":8,"program":23},{"pitch":58,"velocity":128,"startTime":213.913072,"endTime":214.0149741875,"instrument":8,"program":23},{"pitch":58,"velocity":128,"startTime":214.0761155,"endTime":214.15084377083335,"instrument":8,"program":23},{"pitch":58,"velocity":128,"startTime":214.239159,"endTime":214.3410611875,"instrument":8,"program":23},{"pitch":58,"velocity":128,"startTime":214.40220250000002,"endTime":214.50410468750002,"instrument":8,"program":23},{"pitch":62,"velocity":128,"startTime":214.565246,"endTime":214.68073514583332,"instrument":8,"program":23},{"pitch":62,"velocity":97,"startTime":214.7282895,"endTime":214.80981125000002,"instrument":8,"program":23},{"pitch":62,"velocity":128,"startTime":214.891333,"endTime":214.9932351875,"instrument":8,"program":23},{"pitch":62,"velocity":114,"startTime":215.05437650000002,"endTime":215.15627868750002,"instrument":8,"program":23},{"pitch":67,"velocity":128,"startTime":215.21741999999998,"endTime":215.32611566666668,"instrument":8,"program":23},{"pitch":67,"velocity":97,"startTime":215.3804635,"endTime":215.48915916666667,"instrument":8,"program":23},{"pitch":67,"velocity":97,"startTime":215.543507,"endTime":215.6454091875,"instrument":8,"program":23},{"pitch":67,"velocity":97,"startTime":215.70655050000002,"endTime":215.80845268750002,"instrument":8,"program":23},{"pitch":69,"velocity":128,"startTime":215.86959399999998,"endTime":215.97828966666668,"instrument":8,"program":23},{"pitch":69,"velocity":97,"startTime":216.0326375,"endTime":216.1345396875,"instrument":8,"program":23},{"pitch":69,"velocity":114,"startTime":216.195681,"endTime":216.2975831875,"instrument":8,"program":23},{"pitch":69,"velocity":114,"startTime":216.35872450000002,"endTime":216.4674201666667,"instrument":8,"program":23},{"pitch":70,"velocity":128,"startTime":216.52176799999998,"endTime":216.61687670833334,"instrument":8,"program":23},{"pitch":70,"velocity":128,"startTime":216.6848115,"endTime":216.76633325,"instrument":8,"program":23},{"pitch":70,"velocity":128,"startTime":216.847855,"endTime":216.9429637083333,"instrument":8,"program":23},{"pitch":70,"velocity":128,"startTime":217.01089850000002,"endTime":217.10600720833332,"instrument":8,"program":23},{"pitch":69,"velocity":114,"startTime":217.173942,"endTime":217.2894311458333,"instrument":8,"program":23},{"pitch":69,"velocity":97,"startTime":217.3369855,"endTime":217.4320942083333,"instrument":8,"program":23},{"pitch":69,"velocity":97,"startTime":217.500029,"endTime":217.6087246666667,"instrument":8,"program":23},{"pitch":69,"velocity":97,"startTime":217.6630725,"endTime":217.75818120833333,"instrument":8,"program":23},{"pitch":67,"velocity":128,"startTime":217.826116,"endTime":217.93481166666666,"instrument":8,"program":23},{"pitch":67,"velocity":97,"startTime":217.9891595,"endTime":218.0842682083333,"instrument":8,"program":23},{"pitch":67,"velocity":114,"startTime":218.152203,"endTime":218.2473117083333,"instrument":8,"program":23},{"pitch":67,"velocity":87,"startTime":218.3152465,"endTime":218.4239421666667,"instrument":8,"program":23},{"pitch":66,"velocity":128,"startTime":218.47829000000002,"endTime":218.57339870833334,"instrument":8,"program":23},{"pitch":66,"velocity":128,"startTime":218.6413335,"endTime":218.72964872916668,"instrument":8,"program":23},{"pitch":66,"velocity":128,"startTime":218.804377,"endTime":218.89269222916667,"instrument":8,"program":23},{"pitch":66,"velocity":128,"startTime":218.9674205,"endTime":219.06252920833333,"instrument":8,"program":23},{"pitch":69,"velocity":128,"startTime":219.13046400000002,"endTime":219.2595401041667,"instrument":8,"program":23},{"pitch":69,"velocity":97,"startTime":219.29350749999998,"endTime":219.3818227291667,"instrument":8,"program":23},{"pitch":69,"velocity":128,"startTime":219.456551,"endTime":219.57204014583334,"instrument":8,"program":23},{"pitch":69,"velocity":87,"startTime":219.6195945,"endTime":219.7214966875,"instrument":8,"program":23},{"pitch":66,"velocity":128,"startTime":219.78263800000002,"endTime":219.8981271458333,"instrument":8,"program":23},{"pitch":66,"velocity":128,"startTime":219.94568149999998,"endTime":220.0339967291667,"instrument":8,"program":23},{"pitch":66,"velocity":128,"startTime":220.108725,"endTime":220.20383370833332,"instrument":8,"program":23},{"pitch":66,"velocity":128,"startTime":220.2717685,"endTime":220.312529375,"instrument":8,"program":23},{"pitch":62,"velocity":128,"startTime":220.43481200000002,"endTime":220.557094625,"instrument":8,"program":23},{"pitch":62,"velocity":87,"startTime":220.59785549999998,"endTime":220.69296420833334,"instrument":8,"program":23},{"pitch":62,"velocity":114,"startTime":220.760899,"endTime":220.87638814583332,"instrument":8,"program":23},{"pitch":62,"velocity":97,"startTime":220.9239425,"endTime":221.0190512083333,"instrument":8,"program":23},{"pitch":60,"velocity":114,"startTime":221.08698600000002,"endTime":221.20247514583332,"instrument":8,"program":23},{"pitch":60,"velocity":97,"startTime":221.25002949999998,"endTime":221.35193168749998,"instrument":8,"program":23},{"pitch":60,"velocity":114,"startTime":221.413073,"endTime":221.5149751875,"instrument":8,"program":23},{"pitch":60,"velocity":87,"startTime":221.5761165,"endTime":221.6712252083333,"instrument":8,"program":23},{"pitch":57,"velocity":114,"startTime":221.73916,"endTime":221.85464914583332,"instrument":8,"program":23},{"pitch":57,"velocity":87,"startTime":221.9022035,"endTime":221.99731220833334,"instrument":8,"program":23},{"pitch":57,"velocity":97,"startTime":222.065247,"endTime":222.17394266666668,"instrument":8,"program":23},{"pitch":57,"velocity":87,"startTime":222.2282905,"endTime":222.3233992083333,"instrument":8,"program":23},{"pitch":54,"velocity":128,"startTime":222.391334,"endTime":222.5000296666667,"instrument":8,"program":23},{"pitch":54,"velocity":128,"startTime":222.55437750000002,"endTime":222.64948620833334,"instrument":8,"program":23},{"pitch":54,"velocity":87,"startTime":222.717421,"endTime":222.8464971041667,"instrument":8,"program":23},{"pitch":54,"velocity":114,"startTime":222.8804645,"endTime":222.9891601666667,"instrument":8,"program":23},{"pitch":50,"velocity":128,"startTime":223.043508,"endTime":223.17258410416667,"instrument":8,"program":23},{"pitch":50,"velocity":87,"startTime":223.20655150000002,"endTime":223.30166020833335,"instrument":8,"program":23},{"pitch":50,"velocity":97,"startTime":223.369595,"endTime":223.48508414583333,"instrument":8,"program":23},{"pitch":50,"velocity":87,"startTime":223.5326385,"endTime":223.62774720833332,"instrument":8,"program":23},{"pitch":54,"velocity":128,"startTime":223.695682,"endTime":223.7975841875,"instrument":8,"program":23},{"pitch":54,"velocity":114,"startTime":223.85872550000002,"endTime":223.93345377083332,"instrument":8,"program":23},{"pitch":54,"velocity":128,"startTime":224.02176899999998,"endTime":224.1168777083333,"instrument":8,"program":23},{"pitch":54,"velocity":128,"startTime":224.1848125,"endTime":224.27312772916667,"instrument":8,"program":23},{"pitch":55,"velocity":128,"startTime":224.347856,"endTime":224.47693210416668,"instrument":8,"program":23},{"pitch":55,"velocity":97,"startTime":224.51089950000002,"endTime":224.60600820833332,"instrument":8,"program":23},{"pitch":55,"velocity":128,"startTime":224.67394299999998,"endTime":224.78943214583333,"instrument":8,"program":23},{"pitch":55,"velocity":97,"startTime":224.8369865,"endTime":224.92530172916668,"instrument":8,"program":23},{"pitch":50,"velocity":114,"startTime":225.00003,"endTime":225.1019321875,"instrument":8,"program":23},{"pitch":50,"velocity":97,"startTime":225.16307350000002,"endTime":225.26497568750003,"instrument":8,"program":23},{"pitch":50,"velocity":97,"startTime":225.32611699999998,"endTime":225.44160614583333,"instrument":8,"program":23},{"pitch":50,"velocity":87,"startTime":225.4891605,"endTime":225.60464964583332,"instrument":8,"program":23},{"pitch":58,"velocity":128,"startTime":225.652204,"endTime":225.74051922916667,"instrument":8,"program":23},{"pitch":58,"velocity":128,"startTime":225.81524750000003,"endTime":225.87638881249998,"instrument":8,"program":23},{"pitch":58,"velocity":128,"startTime":225.97829099999998,"endTime":226.07339970833334,"instrument":8,"program":23},{"pitch":58,"velocity":114,"startTime":226.1413345,"endTime":226.1956823333333,"instrument":8,"program":23},{"pitch":55,"velocity":114,"startTime":226.304378,"endTime":226.41986714583334,"instrument":8,"program":23},{"pitch":55,"velocity":97,"startTime":226.4674215,"endTime":226.55573672916668,"instrument":8,"program":23},{"pitch":55,"velocity":128,"startTime":226.630465,"endTime":226.72557370833334,"instrument":8,"program":23},{"pitch":55,"velocity":87,"startTime":226.7935085,"endTime":226.8886172083333,"instrument":8,"program":23},{"pitch":62,"velocity":114,"startTime":226.95655200000002,"endTime":227.04486722916667,"instrument":8,"program":23},{"pitch":62,"velocity":114,"startTime":227.1195955,"endTime":227.20791072916668,"instrument":8,"program":23},{"pitch":62,"velocity":114,"startTime":227.28263900000002,"endTime":227.39133466666667,"instrument":8,"program":23},{"pitch":62,"velocity":87,"startTime":227.4456825,"endTime":227.53399772916669,"instrument":8,"program":23},{"pitch":58,"velocity":128,"startTime":227.608726,"endTime":227.69704122916667,"instrument":8,"program":23},{"pitch":58,"velocity":128,"startTime":227.7717695,"endTime":227.8464977708333,"instrument":8,"program":23},{"pitch":58,"velocity":128,"startTime":227.93481300000002,"endTime":228.0231282291667,"instrument":8,"program":23},{"pitch":58,"velocity":128,"startTime":228.09785649999998,"endTime":228.17258477083334,"instrument":8,"program":23},{"pitch":62,"velocity":114,"startTime":228.2609,"endTime":228.3695956666667,"instrument":8,"program":23},{"pitch":62,"velocity":115,"startTime":228.4239435,"endTime":228.54622612499998,"instrument":8,"program":23},{"pitch":62,"velocity":111,"startTime":228.58698700000002,"endTime":228.68209570833332,"instrument":8,"program":23},{"pitch":62,"velocity":120,"startTime":228.75003049999998,"endTime":228.872313125,"instrument":8,"program":23},{"pitch":59,"velocity":114,"startTime":228.913074,"endTime":229.03535662500002,"instrument":8,"program":23},{"pitch":59,"velocity":97,"startTime":229.0761175,"endTime":229.17122620833334,"instrument":8,"program":23},{"pitch":59,"velocity":114,"startTime":229.23916100000002,"endTime":229.34106318750003,"instrument":8,"program":23},{"pitch":59,"velocity":114,"startTime":229.40220449999998,"endTime":229.50410668749998,"instrument":8,"program":23},{"pitch":60,"velocity":128,"startTime":229.565248,"endTime":229.67394366666667,"instrument":8,"program":23},{"pitch":60,"velocity":87,"startTime":229.7282915,"endTime":229.8234002083333,"instrument":8,"program":23},{"pitch":60,"velocity":97,"startTime":229.89133500000003,"endTime":229.99323718750003,"instrument":8,"program":23},{"pitch":60,"velocity":97,"startTime":230.05437849999998,"endTime":230.1494872083333,"instrument":8,"program":23},{"pitch":63,"velocity":128,"startTime":230.217422,"endTime":230.29894375,"instrument":8,"program":23},{"pitch":63,"velocity":128,"startTime":230.3804655,"endTime":230.4484002916667,"instrument":8,"program":23},{"pitch":63,"velocity":128,"startTime":230.543509,"endTime":230.63861770833333,"instrument":8,"program":23},{"pitch":63,"velocity":128,"startTime":230.7065525,"endTime":230.7948677291667,"instrument":8,"program":23},{"pitch":67,"velocity":114,"startTime":230.869596,"endTime":230.97829166666668,"instrument":8,"program":23},{"pitch":67,"velocity":87,"startTime":231.03263950000002,"endTime":231.12095472916667,"instrument":8,"program":23},{"pitch":67,"velocity":114,"startTime":231.195683,"endTime":231.317965625,"instrument":8,"program":23},{"pitch":67,"velocity":97,"startTime":231.3587265,"endTime":231.4470417291667,"instrument":8,"program":23},{"pitch":66,"velocity":128,"startTime":231.52177,"endTime":231.6168787083333,"instrument":8,"program":23},{"pitch":66,"velocity":128,"startTime":231.6848135,"endTime":231.76633525,"instrument":8,"program":23},{"pitch":66,"velocity":128,"startTime":231.847857,"endTime":231.94296570833333,"instrument":8,"program":23},{"pitch":66,"velocity":128,"startTime":232.0109005,"endTime":232.10600920833335,"instrument":8,"program":23},{"pitch":67,"velocity":87,"startTime":232.173944,"endTime":232.3030201041667,"instrument":8,"program":23},{"pitch":67,"velocity":87,"startTime":232.3369875,"endTime":232.41850925,"instrument":8,"program":23},{"pitch":67,"velocity":114,"startTime":232.500031,"endTime":232.6155201458333,"instrument":8,"program":23},{"pitch":67,"velocity":97,"startTime":232.66307450000002,"endTime":232.75818320833335,"instrument":8,"program":23},{"pitch":69,"velocity":114,"startTime":232.82611799999998,"endTime":232.93481366666668,"instrument":8,"program":23},{"pitch":69,"velocity":97,"startTime":232.9891615,"endTime":233.0910636875,"instrument":8,"program":23},{"pitch":69,"velocity":97,"startTime":233.152205,"endTime":233.2676941458333,"instrument":8,"program":23},{"pitch":69,"velocity":114,"startTime":233.31524850000002,"endTime":233.40356372916668,"instrument":8,"program":23},{"pitch":70,"velocity":128,"startTime":233.47829199999998,"endTime":233.5666072291667,"instrument":8,"program":23},{"pitch":70,"velocity":128,"startTime":233.6413355,"endTime":233.70927029166668,"instrument":8,"program":23},{"pitch":70,"velocity":128,"startTime":233.804379,"endTime":233.89948770833334,"instrument":8,"program":23},{"pitch":70,"velocity":128,"startTime":233.96742250000003,"endTime":234.05573772916668,"instrument":8,"program":23},{"pitch":69,"velocity":128,"startTime":234.13046599999998,"endTime":234.23916166666666,"instrument":8,"program":23},{"pitch":69,"velocity":97,"startTime":234.2935095,"endTime":234.3954116875,"instrument":8,"program":23},{"pitch":69,"velocity":97,"startTime":234.456553,"endTime":234.5652486666667,"instrument":8,"program":23},{"pitch":69,"velocity":97,"startTime":234.61959650000003,"endTime":234.72829216666668,"instrument":8,"program":23},{"pitch":67,"velocity":114,"startTime":234.78264,"endTime":234.904922625,"instrument":8,"program":23},{"pitch":67,"velocity":97,"startTime":234.9456835,"endTime":235.0475856875,"instrument":8,"program":23},{"pitch":67,"velocity":97,"startTime":235.10872700000002,"endTime":235.19704222916667,"instrument":8,"program":23},{"pitch":67,"velocity":78,"startTime":235.2717705,"endTime":235.36687920833333,"instrument":8,"program":23},{"pitch":66,"velocity":128,"startTime":235.434814,"endTime":235.52992270833334,"instrument":8,"program":23},{"pitch":66,"velocity":128,"startTime":235.5978575,"endTime":235.68617272916666,"instrument":8,"program":23},{"pitch":66,"velocity":128,"startTime":235.76090100000002,"endTime":235.86280318750002,"instrument":8,"program":23},{"pitch":66,"velocity":128,"startTime":235.9239445,"endTime":235.9986727708333,"instrument":8,"program":23},{"pitch":65,"velocity":128,"startTime":236.086988,"endTime":236.1888901875,"instrument":8,"program":23},{"pitch":65,"velocity":97,"startTime":236.2500315,"endTime":236.3519336875,"instrument":8,"program":23},{"pitch":65,"velocity":114,"startTime":236.413075,"endTime":236.52856414583334,"instrument":8,"program":23},{"pitch":65,"velocity":97,"startTime":236.5761185,"endTime":236.67122720833333,"instrument":8,"program":23},{"pitch":64,"velocity":128,"startTime":236.739162,"endTime":236.85465114583332,"instrument":8,"program":23},{"pitch":64,"velocity":87,"startTime":236.9022055,"endTime":237.01090116666668,"instrument":8,"program":23},{"pitch":64,"velocity":97,"startTime":237.065249,"endTime":237.1739446666667,"instrument":8,"program":23},{"pitch":64,"velocity":87,"startTime":237.2282925,"endTime":237.3301946875,"instrument":8,"program":23},{"pitch":63,"velocity":128,"startTime":237.39133600000002,"endTime":237.50682514583332,"instrument":8,"program":23},{"pitch":63,"velocity":128,"startTime":237.55437949999998,"endTime":237.6426947291667,"instrument":8,"program":23},{"pitch":63,"velocity":128,"startTime":237.717423,"endTime":237.8193251875,"instrument":8,"program":23},{"pitch":63,"velocity":128,"startTime":237.8804665,"endTime":237.95519477083332,"instrument":8,"program":23},{"pitch":62,"velocity":128,"startTime":238.04351000000003,"endTime":238.15220566666667,"instrument":8,"program":23},{"pitch":62,"velocity":97,"startTime":238.20655349999998,"endTime":238.3016622083333,"instrument":8,"program":23},{"pitch":62,"velocity":97,"startTime":238.369597,"endTime":238.4714991875,"instrument":8,"program":23},{"pitch":62,"velocity":87,"startTime":238.5326405,"endTime":238.6413361666667,"instrument":8,"program":23},{"pitch":61,"velocity":128,"startTime":238.69568400000003,"endTime":238.79758618750003,"instrument":8,"program":23},{"pitch":61,"velocity":128,"startTime":238.8587275,"endTime":238.94024925000002,"instrument":8,"program":23},{"pitch":61,"velocity":128,"startTime":239.021771,"endTime":239.11687970833333,"instrument":8,"program":23},{"pitch":61,"velocity":128,"startTime":239.18481450000002,"endTime":239.27992320833332,"instrument":8,"program":23},{"pitch":62,"velocity":114,"startTime":239.34785800000003,"endTime":239.47693410416667,"instrument":8,"program":23},{"pitch":62,"velocity":87,"startTime":239.5109015,"endTime":239.60601020833332,"instrument":8,"program":23},{"pitch":62,"velocity":114,"startTime":239.673945,"endTime":239.7690537083333,"instrument":8,"program":23},{"pitch":62,"velocity":97,"startTime":239.83698850000002,"endTime":239.93209720833332,"instrument":8,"program":23},{"pitch":63,"velocity":128,"startTime":240.000032,"endTime":240.0883472291667,"instrument":8,"program":23},{"pitch":63,"velocity":128,"startTime":240.1630755,"endTime":240.2513907291667,"instrument":8,"program":23},{"pitch":63,"velocity":128,"startTime":240.326119,"endTime":240.4280211875,"instrument":8,"program":23},{"pitch":63,"velocity":128,"startTime":240.4891625,"endTime":240.5503038125,"instrument":8,"program":23},{"pitch":62,"velocity":114,"startTime":240.652206,"endTime":240.7676951458333,"instrument":8,"program":23},{"pitch":62,"velocity":97,"startTime":240.8152495,"endTime":240.9171516875,"instrument":8,"program":23},{"pitch":62,"velocity":97,"startTime":240.978293,"endTime":241.09378214583333,"instrument":8,"program":23},{"pitch":62,"velocity":87,"startTime":241.1413365,"endTime":241.2500321666667,"instrument":8,"program":23},{"pitch":60,"velocity":114,"startTime":241.30438,"endTime":241.4198691458333,"instrument":8,"program":23},{"pitch":60,"velocity":87,"startTime":241.4674235,"endTime":241.56253220833335,"instrument":8,"program":23},{"pitch":60,"velocity":114,"startTime":241.63046699999998,"endTime":241.752749625,"instrument":8,"program":23},{"pitch":60,"velocity":87,"startTime":241.7935105,"endTime":241.88861920833332,"instrument":8,"program":23},{"pitch":57,"velocity":97,"startTime":241.956554,"endTime":242.0652496666667,"instrument":8,"program":23},{"pitch":57,"velocity":75,"startTime":242.1195975,"endTime":242.2214996875,"instrument":8,"program":23},{"pitch":57,"velocity":114,"startTime":242.28264099999998,"endTime":242.39813014583333,"instrument":8,"program":23},{"pitch":57,"velocity":87,"startTime":242.4456845,"endTime":242.54079320833333,"instrument":8,"program":23},{"pitch":54,"velocity":128,"startTime":242.608728,"endTime":242.70383670833334,"instrument":8,"program":23},{"pitch":54,"velocity":128,"startTime":242.77177150000003,"endTime":242.86688020833333,"instrument":8,"program":23},{"pitch":54,"velocity":128,"startTime":242.934815,"endTime":243.0367171875,"instrument":8,"program":23},{"pitch":54,"velocity":128,"startTime":243.0978585,"endTime":243.1657932916667,"instrument":8,"program":23},{"pitch":50,"velocity":128,"startTime":243.26090200000002,"endTime":243.36280418750002,"instrument":8,"program":23},{"pitch":50,"velocity":87,"startTime":243.42394550000003,"endTime":243.51226072916668,"instrument":8,"program":23},{"pitch":50,"velocity":114,"startTime":243.586989,"endTime":243.69568466666666,"instrument":8,"program":23},{"pitch":50,"velocity":87,"startTime":243.7500325,"endTime":243.8519346875,"instrument":8,"program":23},{"pitch":54,"velocity":128,"startTime":243.91307600000002,"endTime":244.01497818750002,"instrument":8,"program":23},{"pitch":54,"velocity":114,"startTime":244.0761195,"endTime":244.14405429166666,"instrument":8,"program":23},{"pitch":54,"velocity":128,"startTime":244.239163,"endTime":244.3410651875,"instrument":8,"program":23},{"pitch":54,"velocity":114,"startTime":244.4022065,"endTime":244.51090216666668,"instrument":8,"program":23},{"pitch":57,"velocity":47,"startTime":244.56525000000002,"endTime":244.66715218750002,"instrument":8,"program":23},{"pitch":57,"velocity":70,"startTime":244.7282935,"endTime":244.80981525,"instrument":8,"program":23},{"pitch":57,"velocity":97,"startTime":244.891337,"endTime":244.9932391875,"instrument":8,"program":23},{"pitch":57,"velocity":87,"startTime":245.0543805,"endTime":245.1494892083333,"instrument":8,"program":23},{"pitch":55,"velocity":114,"startTime":245.217424,"endTime":245.2853587916667,"instrument":8,"program":23},{"pitch":75,"velocity":128,"startTime":245.3804675,"endTime":245.4823696875,"instrument":8,"program":23},{"pitch":74,"velocity":128,"startTime":245.543511,"endTime":245.6725871041667,"instrument":8,"program":23},{"pitch":72,"velocity":87,"startTime":245.7065545,"endTime":245.82204364583333,"instrument":8,"program":23},{"pitch":70,"velocity":128,"startTime":245.869598,"endTime":245.9782936666667,"instrument":8,"program":23},{"pitch":69,"velocity":114,"startTime":246.0326415,"endTime":246.1345436875,"instrument":8,"program":23},{"pitch":67,"velocity":114,"startTime":246.195685,"endTime":246.31117414583332,"instrument":8,"program":23},{"pitch":66,"velocity":128,"startTime":246.35872849999998,"endTime":246.4945980833333,"instrument":8,"program":23},{"pitch":63,"velocity":128,"startTime":246.521772,"endTime":246.6644350625,"instrument":8,"program":23},{"pitch":62,"velocity":114,"startTime":246.6848155,"endTime":246.80709812499998,"instrument":8,"program":23},{"pitch":60,"velocity":87,"startTime":246.847859,"endTime":246.96334814583332,"instrument":8,"program":23},{"pitch":58,"velocity":128,"startTime":247.0109025,"endTime":247.133185125,"instrument":8,"program":23},{"pitch":57,"velocity":114,"startTime":247.173946,"endTime":247.28943514583332,"instrument":8,"program":23},{"pitch":55,"velocity":87,"startTime":247.33698950000002,"endTime":247.45927212499998,"instrument":8,"program":23},{"pitch":54,"velocity":128,"startTime":247.50003299999997,"endTime":247.61552214583332,"instrument":8,"program":23},{"pitch":57,"velocity":114,"startTime":247.6630765,"endTime":247.7921526041667,"instrument":8,"program":23},{"pitch":55,"velocity":97,"startTime":247.82612,"endTime":247.93481566666668,"instrument":8,"program":23},{"pitch":62,"velocity":128,"startTime":248.111446125,"endTime":249.0217723333333,"instrument":8,"program":23},{"pitch":60,"velocity":87,"startTime":248.4443266041667,"endTime":249.04215277083333,"instrument":8,"program":23},{"pitch":66,"velocity":128,"startTime":248.45112008333334,"endTime":249.0217723333333,"instrument":8,"program":23},{"pitch":67,"velocity":75,"startTime":249.03535929166668,"endTime":249.252750625,"instrument":8,"program":23},{"pitch":62,"velocity":114,"startTime":249.0557397291667,"endTime":249.24595714583333,"instrument":8,"program":23},{"pitch":58,"velocity":128,"startTime":249.06253320833332,"endTime":249.24595714583333,"instrument":8,"program":23}],"totalTime":249.5584571875,"sourceInfo":{"encodingType":"MIDI","parser":"TONEJS_MIDI_CONVERT"}},"tempo":92,"selectedInstruments":[0,1,2,3,8]}},"controls":[{"name":"contentStartTime","value":"4"},{"name":"contentEndTime","value":"387"},{"name":"contentInstrument0","value":"0"},{"name":"contentInstrument1","value":"1"},{"name":"contentInstrument2","value":"2"},{"name":"contentInstrument3","value":"3"},{"name":"contentInstrument4","value":"4"},{"name":"contentInstrument5","value":"5"},{"name":"contentInstrument6","value":"6"},{"name":"contentInstrument7","value":"7"},{"name":"contentTempo","value":"115"},{"name":"styleStartTime","value":"20"},{"name":"styleEndTime","value":"52"},{"name":"styleInstrument1","value":"1"},{"name":"styleInstrument2","value":"2"},{"name":"styleInstrument4","value":"4"},{"name":"styleInstrument5","value":"5"},{"name":"styleInstrument6","value":"6"},{"name":"styleTempo","value":"92"},{"name":"modelName","value":"v01_drums"},{"name":"samplingCheckbox","value":"on"},{"name":"samplingTemperature","value":"0.8"},{"name":"outputInstrument0","value":"0"},{"name":"outputInstrument1","value":"1"},{"name":"outputInstrument2","value":"2"},{"name":"outputInstrument3","value":"3"},{"name":"outputTempo","value":"92"},{"name":"remixInstrument0","value":"0"},{"name":"remixInstrument1","value":"1"},{"name":"remixInstrument2","value":"2"},{"name":"remixInstrument3","value":"3"},{"name":"remixInstrument8","value":"8"},{"name":"remixTempo","value":"92"}]}