{"data":{"content":{"trimmedSequence":{"filename":"Ill_Be_Missing_You.mid","ticksPerQuarter":240,"timeSignatures":[{"time":0,"numerator":4,"denominator":4}],"tempos":[{"time":0,"qpm":109.00014170018422}],"notes":[{"pitch":31,"velocity":99,"startTime":0,"endTime":0.458714999999998,"instrument":0,"program":35,"isDrum":false},{"pitch":31,"velocity":99,"startTime":1.926603,"endTime":2.096327550000005,"instrument":0,"program":35,"isDrum":false},{"pitch":31,"velocity":99,"startTime":2.201832000000003,"endTime":2.660546999999994,"instrument":0,"program":35,"isDrum":false},{"pitch":35,"velocity":99,"startTime":3.302748000000001,"endTime":3.993114075000001,"instrument":0,"program":35,"isDrum":false},{"pitch":26,"velocity":99,"startTime":3.862380299999998,"endTime":4.392196125000005,"instrument":0,"program":35,"isDrum":false},{"pitch":28,"velocity":99,"startTime":4.403663999999999,"endTime":4.862378999999997,"instrument":0,"program":35,"isDrum":false},{"pitch":28,"velocity":99,"startTime":6.330266999999999,"endTime":6.4862301,"instrument":0,"program":35,"isDrum":false},{"pitch":28,"velocity":99,"startTime":6.605496000000002,"endTime":7.064211,"instrument":0,"program":35,"isDrum":false},{"pitch":36,"velocity":99,"startTime":8.807327999999998,"endTime":9.266042999999996,"instrument":0,"program":35,"isDrum":false},{"pitch":40,"velocity":99,"startTime":10.733930999999998,"endTime":11.0183343,"instrument":0,"program":35,"isDrum":false},{"pitch":38,"velocity":99,"startTime":11.009160000000001,"endTime":11.467875,"instrument":0,"program":35,"isDrum":false},{"pitch":31,"velocity":99,"startTime":13.210991999999997,"endTime":13.600899749999996,"instrument":0,"program":35,"isDrum":false},{"pitch":31,"velocity":99,"startTime":15.137594999999997,"endTime":15.279796650000002,"instrument":0,"program":35,"isDrum":false},{"pitch":31,"velocity":99,"startTime":15.412824,"endTime":15.871538999999999,"instrument":0,"program":35,"isDrum":false},{"pitch":26,"velocity":99,"startTime":17.064197999999998,"endTime":17.589426675,"instrument":0,"program":35,"isDrum":false},{"pitch":31,"velocity":99,"startTime":17.614656000000004,"endTime":18.073370999999995,"instrument":0,"program":35,"isDrum":false},{"pitch":31,"velocity":99,"startTime":19.541258999999997,"endTime":19.71098355,"instrument":0,"program":35,"isDrum":false},{"pitch":31,"velocity":99,"startTime":19.816488,"endTime":20.275202999999998,"instrument":0,"program":35,"isDrum":false},{"pitch":35,"velocity":99,"startTime":20.917403999999998,"endTime":21.607770074999998,"instrument":0,"program":35,"isDrum":false},{"pitch":26,"velocity":99,"startTime":21.4770363,"endTime":22.006852125,"instrument":0,"program":35,"isDrum":false},{"pitch":28,"velocity":99,"startTime":22.018320000000003,"endTime":22.477035,"instrument":0,"program":35,"isDrum":false},{"pitch":28,"velocity":99,"startTime":23.944923000000003,"endTime":24.100886099999997,"instrument":0,"program":35,"isDrum":false},{"pitch":28,"velocity":99,"startTime":24.220152,"endTime":24.678866999999997,"instrument":0,"program":35,"isDrum":false},{"pitch":36,"velocity":99,"startTime":26.421984000000002,"endTime":26.880699,"instrument":0,"program":35,"isDrum":false},{"pitch":40,"velocity":99,"startTime":28.348587000000002,"endTime":28.632990300000003,"instrument":0,"program":35,"isDrum":false},{"pitch":38,"velocity":99,"startTime":28.623815999999998,"endTime":29.082530999999996,"instrument":0,"program":35,"isDrum":false},{"pitch":31,"velocity":99,"startTime":30.825647999999994,"endTime":31.21555575,"instrument":0,"program":35,"isDrum":false},{"pitch":31,"velocity":99,"startTime":32.752250999999994,"endTime":32.89445265,"instrument":0,"program":35,"isDrum":false},{"pitch":31,"velocity":99,"startTime":33.027480000000004,"endTime":33.486195,"instrument":0,"program":35,"isDrum":false},{"pitch":26,"velocity":99,"startTime":34.678853999999994,"endTime":35.204082675,"instrument":0,"program":35,"isDrum":false},{"pitch":31,"velocity":99,"startTime":35.229312,"endTime":35.68802700000001,"instrument":0,"program":35,"isDrum":false},{"pitch":31,"velocity":99,"startTime":37.155915,"endTime":37.32563955,"instrument":0,"program":35,"isDrum":false},{"pitch":31,"velocity":99,"startTime":37.431143999999996,"endTime":37.88985900000001,"instrument":0,"program":35,"isDrum":false},{"pitch":35,"velocity":99,"startTime":38.532059999999994,"endTime":39.222426074999994,"instrument":0,"program":35,"isDrum":false},{"pitch":26,"velocity":99,"startTime":39.09169230000001,"endTime":39.621508125,"instrument":0,"program":35,"isDrum":false},{"pitch":28,"velocity":99,"startTime":39.632976000000006,"endTime":40.091691000000004,"instrument":0,"program":35,"isDrum":false},{"pitch":28,"velocity":99,"startTime":41.55957900000001,"endTime":41.7155421,"instrument":0,"program":35,"isDrum":false},{"pitch":28,"velocity":99,"startTime":41.834808,"endTime":42.293523,"instrument":0,"program":35,"isDrum":false},{"pitch":36,"velocity":99,"startTime":44.03664,"endTime":44.49535500000001,"instrument":0,"program":35,"isDrum":false},{"pitch":40,"velocity":99,"startTime":45.963243,"endTime":46.24764630000001,"instrument":0,"program":35,"isDrum":false},{"pitch":38,"velocity":99,"startTime":46.238471999999994,"endTime":46.69718700000001,"instrument":0,"program":35,"isDrum":false},{"pitch":31,"velocity":99,"startTime":48.440304000000005,"endTime":48.83021175000001,"instrument":0,"program":35,"isDrum":false},{"pitch":31,"velocity":99,"startTime":50.366907000000005,"endTime":50.509108649999995,"instrument":0,"program":35,"isDrum":false},{"pitch":31,"velocity":99,"startTime":50.642136,"endTime":51.100851,"instrument":0,"program":35,"isDrum":false},{"pitch":26,"velocity":99,"startTime":52.293510000000005,"endTime":52.81873867500001,"instrument":0,"program":35,"isDrum":false},{"pitch":31,"velocity":99,"startTime":52.843968,"endTime":53.30268300000001,"instrument":0,"program":35,"isDrum":false},{"pitch":31,"velocity":99,"startTime":54.770571,"endTime":54.94029555000001,"instrument":0,"program":35,"isDrum":false},{"pitch":31,"velocity":99,"startTime":55.04580000000001,"endTime":55.504515000000005,"instrument":0,"program":35,"isDrum":false},{"pitch":35,"velocity":99,"startTime":56.146716000000005,"endTime":56.837082075000005,"instrument":0,"program":35,"isDrum":false},{"pitch":26,"velocity":99,"startTime":56.70634830000001,"endTime":57.236164124999995,"instrument":0,"program":35,"isDrum":false},{"pitch":28,"velocity":99,"startTime":57.247632,"endTime":57.706347,"instrument":0,"program":35,"isDrum":false},{"pitch":28,"velocity":99,"startTime":59.174235,"endTime":59.3301981,"instrument":0,"program":35,"isDrum":false},{"pitch":28,"velocity":99,"startTime":59.449464,"endTime":59.90817900000001,"instrument":0,"program":35,"isDrum":false},{"pitch":36,"velocity":99,"startTime":61.651295999999995,"endTime":62.11001100000001,"instrument":0,"program":35,"isDrum":false},{"pitch":40,"velocity":99,"startTime":63.577898999999995,"endTime":63.8623023,"instrument":0,"program":35,"isDrum":false},{"pitch":38,"velocity":99,"startTime":63.853128000000005,"endTime":64.31184300000001,"instrument":0,"program":35,"isDrum":false},{"pitch":31,"velocity":99,"startTime":66.05496,"endTime":66.44486775000001,"instrument":0,"program":35,"isDrum":false},{"pitch":31,"velocity":99,"startTime":67.981563,"endTime":68.12376465,"instrument":0,"program":35,"isDrum":false},{"pitch":31,"velocity":99,"startTime":68.25679199999999,"endTime":68.715507,"instrument":0,"program":35,"isDrum":false},{"pitch":26,"velocity":99,"startTime":69.908166,"endTime":70.43339467500002,"instrument":0,"program":35,"isDrum":false},{"pitch":31,"velocity":99,"startTime":70.45862400000001,"endTime":70.917339,"instrument":0,"program":35,"isDrum":false},{"pitch":31,"velocity":99,"startTime":72.38522699999999,"endTime":72.55495155,"instrument":0,"program":35,"isDrum":false},{"pitch":31,"velocity":99,"startTime":72.66045600000001,"endTime":73.119171,"instrument":0,"program":35,"isDrum":false},{"pitch":35,"velocity":99,"startTime":73.761372,"endTime":74.45173807500001,"instrument":0,"program":35,"isDrum":false},{"pitch":26,"velocity":99,"startTime":74.3210043,"endTime":74.85082012499998,"instrument":0,"program":35,"isDrum":false},{"pitch":28,"velocity":99,"startTime":74.862288,"endTime":75.32100300000002,"instrument":0,"program":35,"isDrum":false},{"pitch":28,"velocity":99,"startTime":76.788891,"endTime":76.94485409999999,"instrument":0,"program":35,"isDrum":false},{"pitch":28,"velocity":99,"startTime":77.06412,"endTime":77.52283500000001,"instrument":0,"program":35,"isDrum":false},{"pitch":36,"velocity":99,"startTime":79.265952,"endTime":79.72466700000001,"instrument":0,"program":35,"isDrum":false},{"pitch":40,"velocity":99,"startTime":81.192555,"endTime":81.4769583,"instrument":0,"program":35,"isDrum":false},{"pitch":38,"velocity":99,"startTime":81.467784,"endTime":81.926499,"instrument":0,"program":35,"isDrum":false},{"pitch":31,"velocity":99,"startTime":83.66961599999999,"endTime":84.05952375000001,"instrument":0,"program":35,"isDrum":false},{"pitch":31,"velocity":99,"startTime":85.59621899999999,"endTime":85.73842065,"instrument":0,"program":35,"isDrum":false},{"pitch":31,"velocity":99,"startTime":85.87144799999999,"endTime":86.330163,"instrument":0,"program":35,"isDrum":false},{"pitch":26,"velocity":99,"startTime":87.52282199999999,"endTime":88.04805067500001,"instrument":0,"program":35,"isDrum":false},{"pitch":31,"velocity":99,"startTime":88.07328000000001,"endTime":88.531995,"instrument":0,"program":35,"isDrum":false},{"pitch":31,"velocity":99,"startTime":89.99988300000001,"endTime":90.16960755,"instrument":0,"program":35,"isDrum":false},{"pitch":31,"velocity":99,"startTime":90.27511200000001,"endTime":90.73382700000002,"instrument":0,"program":35,"isDrum":false},{"pitch":35,"velocity":99,"startTime":91.37602799999999,"endTime":92.066394075,"instrument":0,"program":35,"isDrum":false},{"pitch":26,"velocity":99,"startTime":91.9356603,"endTime":92.46547612500001,"instrument":0,"program":35,"isDrum":false},{"pitch":28,"velocity":99,"startTime":92.476944,"endTime":92.93565900000002,"instrument":0,"program":35,"isDrum":false},{"pitch":28,"velocity":99,"startTime":94.403547,"endTime":94.55951010000001,"instrument":0,"program":35,"isDrum":false},{"pitch":28,"velocity":99,"startTime":94.678776,"endTime":95.13749100000001,"instrument":0,"program":35,"isDrum":false},{"pitch":36,"velocity":99,"startTime":96.880608,"endTime":97.33932300000001,"instrument":0,"program":35,"isDrum":false},{"pitch":40,"velocity":99,"startTime":98.807211,"endTime":99.0916143,"instrument":0,"program":35,"isDrum":false},{"pitch":38,"velocity":99,"startTime":99.08244000000002,"endTime":99.541155,"instrument":0,"program":35,"isDrum":false},{"pitch":31,"velocity":99,"startTime":101.28427200000002,"endTime":101.67417975000001,"instrument":0,"program":35,"isDrum":false},{"pitch":31,"velocity":99,"startTime":103.21087500000002,"endTime":103.35307664999999,"instrument":0,"program":35,"isDrum":false},{"pitch":31,"velocity":99,"startTime":103.48610400000001,"endTime":103.94481900000002,"instrument":0,"program":35,"isDrum":false},{"pitch":26,"velocity":99,"startTime":105.13747800000002,"endTime":105.66270667500001,"instrument":0,"program":35,"isDrum":false},{"pitch":31,"velocity":99,"startTime":105.68793600000001,"endTime":106.14665099999999,"instrument":0,"program":35,"isDrum":false},{"pitch":31,"velocity":99,"startTime":107.61453900000001,"endTime":107.78426355000002,"instrument":0,"program":35,"isDrum":false},{"pitch":31,"velocity":99,"startTime":107.889768,"endTime":108.34848299999999,"instrument":0,"program":35,"isDrum":false},{"pitch":35,"velocity":99,"startTime":108.99068400000002,"endTime":109.681050075,"instrument":0,"program":35,"isDrum":false},{"pitch":26,"velocity":99,"startTime":109.55031629999999,"endTime":110.080132125,"instrument":0,"program":35,"isDrum":false},{"pitch":28,"velocity":99,"startTime":110.0916,"endTime":110.55031499999998,"instrument":0,"program":35,"isDrum":false},{"pitch":28,"velocity":99,"startTime":112.018203,"endTime":112.17416610000004,"instrument":0,"program":35,"isDrum":false},{"pitch":28,"velocity":99,"startTime":112.293432,"endTime":112.75214700000001,"instrument":0,"program":35,"isDrum":false},{"pitch":36,"velocity":99,"startTime":114.49526400000002,"endTime":114.953979,"instrument":0,"program":35,"isDrum":false},{"pitch":40,"velocity":99,"startTime":116.42186700000002,"endTime":116.7062703,"instrument":0,"program":35,"isDrum":false},{"pitch":38,"velocity":99,"startTime":116.69709600000002,"endTime":117.155811,"instrument":0,"program":35,"isDrum":false},{"pitch":31,"velocity":99,"startTime":118.89892800000001,"endTime":119.28883575,"instrument":0,"program":35,"isDrum":false},{"pitch":31,"velocity":99,"startTime":120.82553100000001,"endTime":120.96773265000002,"instrument":0,"program":35,"isDrum":false},{"pitch":31,"velocity":99,"startTime":121.10076000000001,"endTime":121.55947499999999,"instrument":0,"program":35,"isDrum":false},{"pitch":26,"velocity":99,"startTime":122.75213400000001,"endTime":123.277362675,"instrument":0,"program":35,"isDrum":false},{"pitch":31,"velocity":99,"startTime":123.302592,"endTime":123.76130699999999,"instrument":0,"program":35,"isDrum":false},{"pitch":31,"velocity":99,"startTime":125.229195,"endTime":125.39891955000002,"instrument":0,"program":35,"isDrum":false},{"pitch":31,"velocity":99,"startTime":125.504424,"endTime":125.96313899999998,"instrument":0,"program":35,"isDrum":false},{"pitch":35,"velocity":99,"startTime":126.60534000000001,"endTime":127.295706075,"instrument":0,"program":35,"isDrum":false},{"pitch":26,"velocity":99,"startTime":127.16497229999999,"endTime":127.69478812500003,"instrument":0,"program":35,"isDrum":false},{"pitch":28,"velocity":99,"startTime":127.706256,"endTime":128.164971,"instrument":0,"program":35,"isDrum":false},{"pitch":28,"velocity":99,"startTime":129.632859,"endTime":129.78882210000003,"instrument":0,"program":35,"isDrum":false},{"pitch":28,"velocity":99,"startTime":129.90808800000002,"endTime":130.366803,"instrument":0,"program":35,"isDrum":false},{"pitch":36,"velocity":99,"startTime":132.10992000000002,"endTime":132.568635,"instrument":0,"program":35,"isDrum":false},{"pitch":40,"velocity":99,"startTime":134.03652300000002,"endTime":134.3209263,"instrument":0,"program":35,"isDrum":false},{"pitch":38,"velocity":99,"startTime":134.311752,"endTime":134.770467,"instrument":0,"program":35,"isDrum":false},{"pitch":31,"velocity":99,"startTime":136.513584,"endTime":136.90349175,"instrument":0,"program":35,"isDrum":false},{"pitch":31,"velocity":99,"startTime":138.440187,"endTime":138.58238865,"instrument":0,"program":35,"isDrum":false},{"pitch":31,"velocity":99,"startTime":138.715416,"endTime":139.174131,"instrument":0,"program":35,"isDrum":false},{"pitch":26,"velocity":99,"startTime":140.36679,"endTime":140.892018675,"instrument":0,"program":35,"isDrum":false},{"pitch":31,"velocity":99,"startTime":140.917248,"endTime":141.37596299999998,"instrument":0,"program":35,"isDrum":false},{"pitch":31,"velocity":99,"startTime":142.843851,"endTime":143.01357555,"instrument":0,"program":35,"isDrum":false},{"pitch":31,"velocity":99,"startTime":143.11908,"endTime":143.577795,"instrument":0,"program":35,"isDrum":false},{"pitch":35,"velocity":99,"startTime":144.219996,"endTime":144.910362075,"instrument":0,"program":35,"isDrum":false},{"pitch":26,"velocity":99,"startTime":144.7796283,"endTime":145.30944412500003,"instrument":0,"program":35,"isDrum":false},{"pitch":28,"velocity":99,"startTime":145.32091200000002,"endTime":145.779627,"instrument":0,"program":35,"isDrum":false},{"pitch":28,"velocity":99,"startTime":147.24751500000002,"endTime":147.40347810000003,"instrument":0,"program":35,"isDrum":false},{"pitch":28,"velocity":118,"startTime":147.52274400000002,"endTime":147.981459,"instrument":0,"program":35,"isDrum":false},{"pitch":36,"velocity":118,"startTime":149.724576,"endTime":150.183291,"instrument":0,"program":35,"isDrum":false},{"pitch":40,"velocity":118,"startTime":151.651179,"endTime":151.9355823,"instrument":0,"program":35,"isDrum":false},{"pitch":38,"velocity":118,"startTime":151.926408,"endTime":152.385123,"instrument":0,"program":35,"isDrum":false},{"pitch":31,"velocity":118,"startTime":154.12824,"endTime":154.51814775,"instrument":0,"program":35,"isDrum":false},{"pitch":31,"velocity":118,"startTime":156.054843,"endTime":156.19704465,"instrument":0,"program":35,"isDrum":false},{"pitch":31,"velocity":118,"startTime":156.330072,"endTime":156.78878699999999,"instrument":0,"program":35,"isDrum":false},{"pitch":26,"velocity":118,"startTime":157.981446,"endTime":158.506674675,"instrument":0,"program":35,"isDrum":false},{"pitch":31,"velocity":118,"startTime":158.531904,"endTime":158.990619,"instrument":0,"program":35,"isDrum":false},{"pitch":31,"velocity":118,"startTime":160.458507,"endTime":160.62823155,"instrument":0,"program":35,"isDrum":false},{"pitch":31,"velocity":118,"startTime":160.73373600000002,"endTime":161.192451,"instrument":0,"program":35,"isDrum":false},{"pitch":35,"velocity":118,"startTime":161.834652,"endTime":162.52501807500002,"instrument":0,"program":35,"isDrum":false},{"pitch":26,"velocity":118,"startTime":162.3942843,"endTime":162.92410012500002,"instrument":0,"program":35,"isDrum":false},{"pitch":28,"velocity":118,"startTime":162.93556800000002,"endTime":163.394283,"instrument":0,"program":35,"isDrum":false},{"pitch":28,"velocity":118,"startTime":164.86217100000002,"endTime":165.01813410000003,"instrument":0,"program":35,"isDrum":false},{"pitch":28,"velocity":118,"startTime":165.1374,"endTime":165.596115,"instrument":0,"program":35,"isDrum":false},{"pitch":36,"velocity":118,"startTime":167.339232,"endTime":167.797947,"instrument":0,"program":35,"isDrum":false},{"pitch":40,"velocity":118,"startTime":169.265835,"endTime":169.5502383,"instrument":0,"program":35,"isDrum":false},{"pitch":38,"velocity":118,"startTime":169.541064,"endTime":169.999779,"instrument":0,"program":35,"isDrum":false},{"pitch":31,"velocity":118,"startTime":171.742896,"endTime":172.13280375,"instrument":0,"program":35,"isDrum":false},{"pitch":31,"velocity":118,"startTime":173.669499,"endTime":173.81170065,"instrument":0,"program":35,"isDrum":false},{"pitch":31,"velocity":118,"startTime":173.944728,"endTime":174.403443,"instrument":0,"program":35,"isDrum":false},{"pitch":26,"velocity":118,"startTime":175.596102,"endTime":176.121330675,"instrument":0,"program":35,"isDrum":false},{"pitch":31,"velocity":118,"startTime":176.14656000000002,"endTime":176.605275,"instrument":0,"program":35,"isDrum":false},{"pitch":31,"velocity":118,"startTime":178.073163,"endTime":178.24288755,"instrument":0,"program":35,"isDrum":false},{"pitch":31,"velocity":118,"startTime":178.34839200000002,"endTime":178.807107,"instrument":0,"program":35,"isDrum":false},{"pitch":35,"velocity":118,"startTime":179.449308,"endTime":180.13967407500002,"instrument":0,"program":35,"isDrum":false},{"pitch":26,"velocity":118,"startTime":180.0089403,"endTime":180.53875612500002,"instrument":0,"program":35,"isDrum":false},{"pitch":28,"velocity":118,"startTime":180.55022400000001,"endTime":181.008939,"instrument":0,"program":35,"isDrum":false},{"pitch":28,"velocity":118,"startTime":182.47682700000001,"endTime":182.63279010000002,"instrument":0,"program":35,"isDrum":false},{"pitch":28,"velocity":118,"startTime":182.752056,"endTime":183.210771,"instrument":0,"program":35,"isDrum":false},{"pitch":36,"velocity":118,"startTime":184.953888,"endTime":185.412603,"instrument":0,"program":35,"isDrum":false},{"pitch":40,"velocity":118,"startTime":186.880491,"endTime":187.1648943,"instrument":0,"program":35,"isDrum":false},{"pitch":38,"velocity":118,"startTime":187.15572,"endTime":187.614435,"instrument":0,"program":35,"isDrum":false},{"pitch":31,"velocity":118,"startTime":189.357552,"endTime":189.74745975,"instrument":0,"program":35,"isDrum":false},{"pitch":31,"velocity":118,"startTime":191.284155,"endTime":191.42635665,"instrument":0,"program":35,"isDrum":false},{"pitch":31,"velocity":118,"startTime":191.559384,"endTime":192.018099,"instrument":0,"program":35,"isDrum":false},{"pitch":26,"velocity":118,"startTime":193.210758,"endTime":193.735986675,"instrument":0,"program":35,"isDrum":false},{"pitch":31,"velocity":118,"startTime":193.76121600000002,"endTime":194.219931,"instrument":0,"program":35,"isDrum":false},{"pitch":31,"velocity":118,"startTime":195.68781900000002,"endTime":195.85754355,"instrument":0,"program":35,"isDrum":false},{"pitch":31,"velocity":118,"startTime":195.96304800000001,"endTime":196.421763,"instrument":0,"program":35,"isDrum":false},{"pitch":35,"velocity":118,"startTime":197.063964,"endTime":197.754330075,"instrument":0,"program":35,"isDrum":false},{"pitch":26,"velocity":118,"startTime":197.6235963,"endTime":198.15341212500002,"instrument":0,"program":35,"isDrum":false},{"pitch":28,"velocity":118,"startTime":198.16488,"endTime":198.623595,"instrument":0,"program":35,"isDrum":false},{"pitch":28,"velocity":118,"startTime":200.091483,"endTime":200.24744610000002,"instrument":0,"program":35,"isDrum":false},{"pitch":28,"velocity":118,"startTime":200.366712,"endTime":200.825427,"instrument":0,"program":35,"isDrum":false},{"pitch":36,"velocity":118,"startTime":202.568544,"endTime":203.027259,"instrument":0,"program":35,"isDrum":false},{"pitch":40,"velocity":118,"startTime":204.495147,"endTime":204.7795503,"instrument":0,"program":35,"isDrum":false},{"pitch":38,"velocity":118,"startTime":204.770376,"endTime":205.229091,"instrument":0,"program":35,"isDrum":false},{"pitch":31,"velocity":118,"startTime":206.972208,"endTime":207.36211575,"instrument":0,"program":35,"isDrum":false},{"pitch":31,"velocity":118,"startTime":208.898811,"endTime":209.04101265,"instrument":0,"program":35,"isDrum":false},{"pitch":31,"velocity":118,"startTime":209.17404000000002,"endTime":209.632755,"instrument":0,"program":35,"isDrum":false},{"pitch":26,"velocity":118,"startTime":210.825414,"endTime":211.350642675,"instrument":0,"program":35,"isDrum":false},{"pitch":31,"velocity":118,"startTime":211.37587200000002,"endTime":211.834587,"instrument":0,"program":35,"isDrum":false},{"pitch":31,"velocity":118,"startTime":213.30247500000002,"endTime":213.47219955,"instrument":0,"program":35,"isDrum":false},{"pitch":31,"velocity":118,"startTime":213.577704,"endTime":214.036419,"instrument":0,"program":35,"isDrum":false},{"pitch":35,"velocity":118,"startTime":214.67862,"endTime":215.368986075,"instrument":0,"program":35,"isDrum":false},{"pitch":26,"velocity":118,"startTime":215.2382523,"endTime":215.768068125,"instrument":0,"program":35,"isDrum":false},{"pitch":28,"velocity":118,"startTime":215.779536,"endTime":216.238251,"instrument":0,"program":35,"isDrum":false},{"pitch":28,"velocity":118,"startTime":217.706139,"endTime":217.86210210000002,"instrument":0,"program":35,"isDrum":false},{"pitch":28,"velocity":118,"startTime":217.981368,"endTime":218.440083,"instrument":0,"program":35,"isDrum":false},{"pitch":36,"velocity":118,"startTime":220.1832,"endTime":220.641915,"instrument":0,"program":35,"isDrum":false},{"pitch":40,"velocity":118,"startTime":222.109803,"endTime":222.3942063,"instrument":0,"program":35,"isDrum":false},{"pitch":38,"velocity":118,"startTime":222.38503200000002,"endTime":222.843747,"instrument":0,"program":35,"isDrum":false},{"pitch":31,"velocity":118,"startTime":224.586864,"endTime":224.97677175,"instrument":0,"program":35,"isDrum":false},{"pitch":31,"velocity":118,"startTime":226.513467,"endTime":226.65566865,"instrument":0,"program":35,"isDrum":false},{"pitch":31,"velocity":118,"startTime":226.78869600000002,"endTime":227.247411,"instrument":0,"program":35,"isDrum":false},{"pitch":26,"velocity":118,"startTime":228.44007,"endTime":228.96529867499999,"instrument":0,"program":35,"isDrum":false},{"pitch":31,"velocity":118,"startTime":228.99052799999998,"endTime":229.44924300000002,"instrument":0,"program":35,"isDrum":false},{"pitch":31,"velocity":118,"startTime":230.91713099999998,"endTime":231.08685555,"instrument":0,"program":35,"isDrum":false},{"pitch":31,"velocity":118,"startTime":231.19236,"endTime":231.651075,"instrument":0,"program":35,"isDrum":false},{"pitch":35,"velocity":118,"startTime":232.293276,"endTime":232.98364207500003,"instrument":0,"program":35,"isDrum":false},{"pitch":26,"velocity":118,"startTime":232.85290830000002,"endTime":233.38272412500004,"instrument":0,"program":35,"isDrum":false},{"pitch":28,"velocity":118,"startTime":233.39419200000003,"endTime":233.85290700000002,"instrument":0,"program":35,"isDrum":false},{"pitch":28,"velocity":118,"startTime":235.32079500000003,"endTime":235.47675810000004,"instrument":0,"program":35,"isDrum":false},{"pitch":28,"velocity":99,"startTime":235.596024,"endTime":236.05473899999998,"instrument":0,"program":35,"isDrum":false},{"pitch":36,"velocity":99,"startTime":237.79785600000002,"endTime":238.256571,"instrument":0,"program":35,"isDrum":false},{"pitch":40,"velocity":99,"startTime":239.72445900000002,"endTime":240.00886229999998,"instrument":0,"program":35,"isDrum":false},{"pitch":38,"velocity":99,"startTime":239.999688,"endTime":240.45840299999998,"instrument":0,"program":35,"isDrum":false},{"pitch":31,"velocity":99,"startTime":242.20152000000002,"endTime":242.59142774999998,"instrument":0,"program":35,"isDrum":false},{"pitch":31,"velocity":99,"startTime":244.12812300000002,"endTime":244.27032465000002,"instrument":0,"program":35,"isDrum":false},{"pitch":31,"velocity":99,"startTime":244.40335199999998,"endTime":244.86206700000002,"instrument":0,"program":35,"isDrum":false},{"pitch":26,"velocity":99,"startTime":246.05472600000002,"endTime":246.579954675,"instrument":0,"program":35,"isDrum":false},{"pitch":31,"velocity":99,"startTime":246.605184,"endTime":247.06389900000005,"instrument":0,"program":35,"isDrum":false},{"pitch":31,"velocity":99,"startTime":248.531787,"endTime":248.70151154999996,"instrument":0,"program":35,"isDrum":false},{"pitch":31,"velocity":99,"startTime":248.80701600000003,"endTime":249.26573100000002,"instrument":0,"program":35,"isDrum":false},{"pitch":35,"velocity":99,"startTime":249.90793200000002,"endTime":250.59829807500006,"instrument":0,"program":35,"isDrum":false},{"pitch":26,"velocity":99,"startTime":250.4675643,"endTime":250.997380125,"instrument":0,"program":35,"isDrum":false},{"pitch":28,"velocity":99,"startTime":251.008848,"endTime":251.46756300000004,"instrument":0,"program":35,"isDrum":false},{"pitch":28,"velocity":99,"startTime":252.935451,"endTime":253.0914141,"instrument":0,"program":35,"isDrum":false},{"pitch":28,"velocity":99,"startTime":253.21068000000002,"endTime":253.669395,"instrument":0,"program":35,"isDrum":false},{"pitch":36,"velocity":99,"startTime":255.412512,"endTime":255.87122700000003,"instrument":0,"program":35,"isDrum":false},{"pitch":40,"velocity":99,"startTime":257.339115,"endTime":257.6235183,"instrument":0,"program":35,"isDrum":false},{"pitch":38,"velocity":99,"startTime":257.614344,"endTime":258.07305900000006,"instrument":0,"program":35,"isDrum":false},{"pitch":31,"velocity":99,"startTime":259.816176,"endTime":260.20608375,"instrument":0,"program":35,"isDrum":false},{"pitch":31,"velocity":99,"startTime":261.742779,"endTime":261.88498065,"instrument":0,"program":35,"isDrum":false},{"pitch":31,"velocity":79,"startTime":262.018008,"endTime":262.47672300000005,"instrument":0,"program":35,"isDrum":false},{"pitch":26,"velocity":79,"startTime":263.669382,"endTime":264.194610675,"instrument":0,"program":35,"isDrum":false},{"pitch":31,"velocity":64,"startTime":264.21984000000003,"endTime":264.678555,"instrument":0,"program":35,"isDrum":false},{"pitch":31,"velocity":64,"startTime":266.14644300000003,"endTime":266.31616755,"instrument":0,"program":35,"isDrum":false},{"pitch":31,"velocity":45,"startTime":266.421672,"endTime":266.88038700000004,"instrument":0,"program":35,"isDrum":false},{"pitch":35,"velocity":45,"startTime":267.522588,"endTime":268.212954075,"instrument":0,"program":35,"isDrum":false},{"pitch":26,"velocity":45,"startTime":268.0822203,"endTime":268.612036125,"instrument":0,"program":35,"isDrum":false},{"pitch":28,"velocity":20,"startTime":268.623504,"endTime":269.082219,"instrument":0,"program":35,"isDrum":false},{"pitch":28,"velocity":20,"startTime":270.550107,"endTime":270.7060701,"instrument":0,"program":35,"isDrum":false},{"pitch":28,"velocity":10,"startTime":270.825336,"endTime":271.28405100000003,"instrument":0,"program":35,"isDrum":false},{"pitch":36,"velocity":1,"startTime":273.027168,"endTime":273.485883,"instrument":0,"program":35,"isDrum":false},{"pitch":40,"velocity":1,"startTime":274.953771,"endTime":275.2381743,"instrument":0,"program":35,"isDrum":false},{"pitch":71,"velocity":95,"startTime":15.956401274999997,"endTime":16.483923525,"instrument":1,"program":66,"isDrum":false},{"pitch":71,"velocity":90,"startTime":16.51374,"endTime":17.034381525,"instrument":1,"program":66,"isDrum":false},{"pitch":69,"velocity":92,"startTime":17.068785150000004,"endTime":17.454105749999997,"instrument":1,"program":66,"isDrum":false},{"pitch":67,"velocity":86,"startTime":17.614656000000004,"endTime":19.24309425,"instrument":1,"program":66,"isDrum":false},{"pitch":71,"velocity":91,"startTime":20.366946,"endTime":21.4495134,"instrument":1,"program":66,"isDrum":false},{"pitch":69,"velocity":87,"startTime":21.460981275,"endTime":21.8623569,"instrument":1,"program":66,"isDrum":false},{"pitch":71,"velocity":84,"startTime":22.018320000000003,"endTime":23.639877525000003,"instrument":1,"program":66,"isDrum":false},{"pitch":67,"velocity":90,"startTime":24.495381000000002,"endTime":24.610059749999998,"instrument":1,"program":66,"isDrum":false},{"pitch":67,"velocity":84,"startTime":24.763729274999996,"endTime":24.873820875,"instrument":1,"program":66,"isDrum":false},{"pitch":71,"velocity":108,"startTime":25.045839,"endTime":25.577948400000004,"instrument":1,"program":66,"isDrum":false},{"pitch":72,"velocity":87,"startTime":25.584829125000006,"endTime":26.100883500000002,"instrument":1,"program":66,"isDrum":false},{"pitch":67,"velocity":99,"startTime":26.135287125000005,"endTime":26.353176750000003,"instrument":1,"program":66,"isDrum":false},{"pitch":67,"velocity":83,"startTime":26.690332274999996,"endTime":26.839414650000002,"instrument":1,"program":66,"isDrum":false},{"pitch":67,"velocity":76,"startTime":26.965561275,"endTime":27.075652875000003,"instrument":1,"program":66,"isDrum":false},{"pitch":72,"velocity":108,"startTime":27.236203125000003,"endTime":27.7797804,"instrument":1,"program":66,"isDrum":false},{"pitch":71,"velocity":89,"startTime":27.786661125000002,"endTime":28.314183375,"instrument":1,"program":66,"isDrum":false},{"pitch":69,"velocity":83,"startTime":28.341706275,"endTime":28.616935274999996,"instrument":1,"program":66,"isDrum":false},{"pitch":69,"velocity":86,"startTime":28.90363215,"endTime":29.013723750000004,"instrument":1,"program":66,"isDrum":false},{"pitch":67,"velocity":81,"startTime":29.17886115000001,"endTime":29.316475650000008,"instrument":1,"program":66,"isDrum":false},{"pitch":71,"velocity":105,"startTime":29.449503,"endTime":29.981612399999996,"instrument":1,"program":66,"isDrum":false},{"pitch":67,"velocity":72,"startTime":29.993080275000004,"endTime":30.199502024999994,"instrument":1,"program":66,"isDrum":false},{"pitch":67,"velocity":86,"startTime":30.538951125000004,"endTime":32.259132375,"instrument":1,"program":66,"isDrum":false},{"pitch":71,"velocity":95,"startTime":33.571057274999994,"endTime":34.098579525,"instrument":1,"program":66,"isDrum":false},{"pitch":71,"velocity":90,"startTime":34.128396,"endTime":34.649037525000004,"instrument":1,"program":66,"isDrum":false},{"pitch":69,"velocity":92,"startTime":34.68344115,"endTime":35.06876175,"instrument":1,"program":66,"isDrum":false},{"pitch":67,"velocity":86,"startTime":35.229312,"endTime":36.85775025,"instrument":1,"program":66,"isDrum":false},{"pitch":71,"velocity":91,"startTime":37.981602,"endTime":39.064169400000004,"instrument":1,"program":66,"isDrum":false},{"pitch":69,"velocity":87,"startTime":39.07563727500001,"endTime":39.4770129,"instrument":1,"program":66,"isDrum":false},{"pitch":71,"velocity":84,"startTime":39.632976000000006,"endTime":41.25453352499999,"instrument":1,"program":66,"isDrum":false},{"pitch":67,"velocity":90,"startTime":42.110037,"endTime":42.22471575000001,"instrument":1,"program":66,"isDrum":false},{"pitch":67,"velocity":84,"startTime":42.37838527500001,"endTime":42.488476874999996,"instrument":1,"program":66,"isDrum":false},{"pitch":71,"velocity":108,"startTime":42.660495000000004,"endTime":43.1926044,"instrument":1,"program":66,"isDrum":false},{"pitch":72,"velocity":87,"startTime":43.19948512499999,"endTime":43.7155395,"instrument":1,"program":66,"isDrum":false},{"pitch":67,"velocity":99,"startTime":43.749943124999994,"endTime":43.96783275000001,"instrument":1,"program":66,"isDrum":false},{"pitch":67,"velocity":83,"startTime":44.30498827500001,"endTime":44.45407065,"instrument":1,"program":66,"isDrum":false},{"pitch":67,"velocity":76,"startTime":44.580217275,"endTime":44.69030887500001,"instrument":1,"program":66,"isDrum":false},{"pitch":72,"velocity":108,"startTime":44.85085912499999,"endTime":45.3944364,"instrument":1,"program":66,"isDrum":false},{"pitch":71,"velocity":89,"startTime":45.401317125,"endTime":45.928839375,"instrument":1,"program":66,"isDrum":false},{"pitch":69,"velocity":83,"startTime":45.95636227500001,"endTime":46.23159127500001,"instrument":1,"program":66,"isDrum":false},{"pitch":69,"velocity":86,"startTime":46.51828815,"endTime":46.62837975,"instrument":1,"program":66,"isDrum":false},{"pitch":67,"velocity":81,"startTime":46.79351714999999,"endTime":46.93113164999999,"instrument":1,"program":66,"isDrum":false},{"pitch":71,"velocity":105,"startTime":47.064159,"endTime":47.59626840000001,"instrument":1,"program":66,"isDrum":false},{"pitch":67,"velocity":72,"startTime":47.607736275,"endTime":47.814158025000005,"instrument":1,"program":66,"isDrum":false},{"pitch":67,"velocity":86,"startTime":48.153607125,"endTime":49.873788375,"instrument":1,"program":66,"isDrum":false},{"pitch":71,"velocity":95,"startTime":86.415025275,"endTime":86.94254752500001,"instrument":1,"program":66,"isDrum":false},{"pitch":71,"velocity":90,"startTime":86.972364,"endTime":87.493005525,"instrument":1,"program":66,"isDrum":false},{"pitch":69,"velocity":92,"startTime":87.52740914999998,"endTime":87.91272975000001,"instrument":1,"program":66,"isDrum":false},{"pitch":67,"velocity":86,"startTime":88.07328000000001,"endTime":89.70171825,"instrument":1,"program":66,"isDrum":false},{"pitch":71,"velocity":91,"startTime":90.82557,"endTime":91.90813740000002,"instrument":1,"program":66,"isDrum":false},{"pitch":69,"velocity":87,"startTime":91.91960527500001,"endTime":92.3209809,"instrument":1,"program":66,"isDrum":false},{"pitch":71,"velocity":84,"startTime":92.476944,"endTime":94.09850152500002,"instrument":1,"program":66,"isDrum":false},{"pitch":67,"velocity":90,"startTime":94.954005,"endTime":95.06868375000002,"instrument":1,"program":66,"isDrum":false},{"pitch":67,"velocity":84,"startTime":95.22235327500002,"endTime":95.33244487500002,"instrument":1,"program":66,"isDrum":false},{"pitch":71,"velocity":108,"startTime":95.50446300000002,"endTime":96.03657240000001,"instrument":1,"program":66,"isDrum":false},{"pitch":72,"velocity":87,"startTime":96.04345312500001,"endTime":96.5595075,"instrument":1,"program":66,"isDrum":false},{"pitch":67,"velocity":99,"startTime":96.593911125,"endTime":96.81180075,"instrument":1,"program":66,"isDrum":false},{"pitch":67,"velocity":83,"startTime":97.14895627500002,"endTime":97.29803865,"instrument":1,"program":66,"isDrum":false},{"pitch":67,"velocity":76,"startTime":97.42418527500001,"endTime":97.53427687500002,"instrument":1,"program":66,"isDrum":false},{"pitch":72,"velocity":108,"startTime":97.69482712499999,"endTime":98.23840440000001,"instrument":1,"program":66,"isDrum":false},{"pitch":71,"velocity":89,"startTime":98.24528512500001,"endTime":98.77280737500001,"instrument":1,"program":66,"isDrum":false},{"pitch":69,"velocity":83,"startTime":98.80033027500002,"endTime":99.07555927500002,"instrument":1,"program":66,"isDrum":false},{"pitch":69,"velocity":86,"startTime":99.36225615000001,"endTime":99.47234775000001,"instrument":1,"program":66,"isDrum":false},{"pitch":67,"velocity":81,"startTime":99.63748515,"endTime":99.77509965000002,"instrument":1,"program":66,"isDrum":false},{"pitch":71,"velocity":105,"startTime":99.90812700000001,"endTime":100.4402364,"instrument":1,"program":66,"isDrum":false},{"pitch":67,"velocity":72,"startTime":100.45170427500003,"endTime":100.658126025,"instrument":1,"program":66,"isDrum":false},{"pitch":67,"velocity":86,"startTime":100.997575125,"endTime":102.717756375,"instrument":1,"program":66,"isDrum":false},{"pitch":71,"velocity":95,"startTime":104.029681275,"endTime":104.557203525,"instrument":1,"program":66,"isDrum":false},{"pitch":71,"velocity":90,"startTime":104.58702,"endTime":105.107661525,"instrument":1,"program":66,"isDrum":false},{"pitch":69,"velocity":92,"startTime":105.14206515000001,"endTime":105.52738575000001,"instrument":1,"program":66,"isDrum":false},{"pitch":67,"velocity":86,"startTime":105.68793600000001,"endTime":107.31637425,"instrument":1,"program":66,"isDrum":false},{"pitch":71,"velocity":91,"startTime":108.440226,"endTime":109.52279339999998,"instrument":1,"program":66,"isDrum":false},{"pitch":69,"velocity":87,"startTime":109.534261275,"endTime":109.93563689999999,"instrument":1,"program":66,"isDrum":false},{"pitch":71,"velocity":84,"startTime":110.0916,"endTime":111.71315752500001,"instrument":1,"program":66,"isDrum":false},{"pitch":67,"velocity":90,"startTime":112.56866100000002,"endTime":112.68333974999999,"instrument":1,"program":66,"isDrum":false},{"pitch":67,"velocity":84,"startTime":112.83700927500001,"endTime":112.94710087500002,"instrument":1,"program":66,"isDrum":false},{"pitch":71,"velocity":108,"startTime":113.11911900000001,"endTime":113.65122839999998,"instrument":1,"program":66,"isDrum":false},{"pitch":72,"velocity":87,"startTime":113.65810912500001,"endTime":114.17416350000002,"instrument":1,"program":66,"isDrum":false},{"pitch":67,"velocity":99,"startTime":114.20856712500003,"endTime":114.42645675,"instrument":1,"program":66,"isDrum":false},{"pitch":67,"velocity":83,"startTime":114.76361227500001,"endTime":114.91269464999999,"instrument":1,"program":66,"isDrum":false},{"pitch":67,"velocity":76,"startTime":115.03884127500001,"endTime":115.14893287500001,"instrument":1,"program":66,"isDrum":false},{"pitch":72,"velocity":108,"startTime":115.30948312500001,"endTime":115.8530604,"instrument":1,"program":66,"isDrum":false},{"pitch":71,"velocity":89,"startTime":115.859941125,"endTime":116.38746337500001,"instrument":1,"program":66,"isDrum":false},{"pitch":69,"velocity":83,"startTime":116.41498627500002,"endTime":116.69021527500001,"instrument":1,"program":66,"isDrum":false},{"pitch":69,"velocity":86,"startTime":116.97691215,"endTime":117.08700375000001,"instrument":1,"program":66,"isDrum":false},{"pitch":67,"velocity":81,"startTime":117.25214115,"endTime":117.38975565000001,"instrument":1,"program":66,"isDrum":false},{"pitch":71,"velocity":105,"startTime":117.522783,"endTime":118.0548924,"instrument":1,"program":66,"isDrum":false},{"pitch":67,"velocity":72,"startTime":118.06636027500002,"endTime":118.27278202500003,"instrument":1,"program":66,"isDrum":false},{"pitch":67,"velocity":86,"startTime":118.61223112500002,"endTime":120.33241237500002,"instrument":1,"program":66,"isDrum":false},{"pitch":71,"velocity":95,"startTime":174.48830527500002,"endTime":175.015827525,"instrument":1,"program":66,"isDrum":false},{"pitch":71,"velocity":90,"startTime":175.045644,"endTime":175.566285525,"instrument":1,"program":66,"isDrum":false},{"pitch":69,"velocity":92,"startTime":175.60068915,"endTime":175.98600975,"instrument":1,"program":66,"isDrum":false},{"pitch":67,"velocity":86,"startTime":176.14656000000002,"endTime":177.77499825,"instrument":1,"program":66,"isDrum":false},{"pitch":71,"velocity":91,"startTime":178.89885,"endTime":179.9814174,"instrument":1,"program":66,"isDrum":false},{"pitch":69,"velocity":87,"startTime":179.99288527500002,"endTime":180.3942609,"instrument":1,"program":66,"isDrum":false},{"pitch":71,"velocity":84,"startTime":180.55022400000001,"endTime":182.171781525,"instrument":1,"program":66,"isDrum":false},{"pitch":67,"velocity":90,"startTime":183.027285,"endTime":183.14196375,"instrument":1,"program":66,"isDrum":false},{"pitch":67,"velocity":84,"startTime":183.295633275,"endTime":183.405724875,"instrument":1,"program":66,"isDrum":false},{"pitch":71,"velocity":108,"startTime":183.577743,"endTime":184.1098524,"instrument":1,"program":66,"isDrum":false},{"pitch":72,"velocity":87,"startTime":184.11673312500002,"endTime":184.6327875,"instrument":1,"program":66,"isDrum":false},{"pitch":67,"velocity":99,"startTime":184.66719112500002,"endTime":184.88508075000001,"instrument":1,"program":66,"isDrum":false},{"pitch":67,"velocity":83,"startTime":185.222236275,"endTime":185.37131865,"instrument":1,"program":66,"isDrum":false},{"pitch":67,"velocity":76,"startTime":185.49746527500002,"endTime":185.607556875,"instrument":1,"program":66,"isDrum":false},{"pitch":72,"velocity":108,"startTime":185.76810712500003,"endTime":186.3116844,"instrument":1,"program":66,"isDrum":false},{"pitch":71,"velocity":89,"startTime":186.31856512500002,"endTime":186.846087375,"instrument":1,"program":66,"isDrum":false},{"pitch":69,"velocity":83,"startTime":186.873610275,"endTime":187.148839275,"instrument":1,"program":66,"isDrum":false},{"pitch":69,"velocity":86,"startTime":187.43553615,"endTime":187.54562775,"instrument":1,"program":66,"isDrum":false},{"pitch":67,"velocity":81,"startTime":187.71076515000001,"endTime":187.84837965,"instrument":1,"program":66,"isDrum":false},{"pitch":71,"velocity":105,"startTime":187.98140700000002,"endTime":188.5135164,"instrument":1,"program":66,"isDrum":false},{"pitch":67,"velocity":72,"startTime":188.524984275,"endTime":188.731406025,"instrument":1,"program":66,"isDrum":false},{"pitch":67,"velocity":86,"startTime":189.070855125,"endTime":190.791036375,"instrument":1,"program":66,"isDrum":false},{"pitch":71,"velocity":95,"startTime":192.102961275,"endTime":192.63048352500002,"instrument":1,"program":66,"isDrum":false},{"pitch":71,"velocity":90,"startTime":192.6603,"endTime":193.180941525,"instrument":1,"program":66,"isDrum":false},{"pitch":69,"velocity":92,"startTime":193.21534515,"endTime":193.60066575,"instrument":1,"program":66,"isDrum":false},{"pitch":67,"velocity":86,"startTime":193.76121600000002,"endTime":195.38965425,"instrument":1,"program":66,"isDrum":false},{"pitch":71,"velocity":91,"startTime":196.513506,"endTime":197.5960734,"instrument":1,"program":66,"isDrum":false},{"pitch":69,"velocity":87,"startTime":197.60754127500002,"endTime":198.0089169,"instrument":1,"program":66,"isDrum":false},{"pitch":71,"velocity":84,"startTime":198.16488,"endTime":199.786437525,"instrument":1,"program":66,"isDrum":false},{"pitch":67,"velocity":90,"startTime":200.641941,"endTime":200.75661975,"instrument":1,"program":66,"isDrum":false},{"pitch":67,"velocity":84,"startTime":200.91028927500003,"endTime":201.020380875,"instrument":1,"program":66,"isDrum":false},{"pitch":71,"velocity":108,"startTime":201.192399,"endTime":201.7245084,"instrument":1,"program":66,"isDrum":false},{"pitch":72,"velocity":87,"startTime":201.73138912500002,"endTime":202.24744350000003,"instrument":1,"program":66,"isDrum":false},{"pitch":67,"velocity":99,"startTime":202.281847125,"endTime":202.49973675,"instrument":1,"program":66,"isDrum":false},{"pitch":67,"velocity":83,"startTime":202.83689227500003,"endTime":202.98597465,"instrument":1,"program":66,"isDrum":false},{"pitch":67,"velocity":76,"startTime":203.11212127500002,"endTime":203.222212875,"instrument":1,"program":66,"isDrum":false},{"pitch":72,"velocity":108,"startTime":203.38276312500003,"endTime":203.9263404,"instrument":1,"program":66,"isDrum":false},{"pitch":71,"velocity":89,"startTime":203.93322112500002,"endTime":204.46074337500002,"instrument":1,"program":66,"isDrum":false},{"pitch":69,"velocity":83,"startTime":204.488266275,"endTime":204.76349527500003,"instrument":1,"program":66,"isDrum":false},{"pitch":69,"velocity":86,"startTime":205.05019215000002,"endTime":205.16028375,"instrument":1,"program":66,"isDrum":false},{"pitch":67,"velocity":81,"startTime":205.32542115,"endTime":205.46303565,"instrument":1,"program":66,"isDrum":false},{"pitch":71,"velocity":105,"startTime":205.59606300000002,"endTime":206.12817239999998,"instrument":1,"program":66,"isDrum":false},{"pitch":67,"velocity":72,"startTime":206.139640275,"endTime":206.346062025,"instrument":1,"program":66,"isDrum":false},{"pitch":67,"velocity":86,"startTime":206.685511125,"endTime":208.40569237500003,"instrument":1,"program":66,"isDrum":false},{"pitch":71,"velocity":95,"startTime":209.717617275,"endTime":210.245139525,"instrument":1,"program":66,"isDrum":false},{"pitch":71,"velocity":90,"startTime":210.274956,"endTime":210.795597525,"instrument":1,"program":66,"isDrum":false},{"pitch":69,"velocity":92,"startTime":210.83000115000002,"endTime":211.21532175,"instrument":1,"program":66,"isDrum":false},{"pitch":67,"velocity":86,"startTime":211.37587200000002,"endTime":213.00431025,"instrument":1,"program":66,"isDrum":false},{"pitch":71,"velocity":91,"startTime":214.128162,"endTime":215.2107294,"instrument":1,"program":66,"isDrum":false},{"pitch":69,"velocity":87,"startTime":215.222197275,"endTime":215.6235729,"instrument":1,"program":66,"isDrum":false},{"pitch":71,"velocity":84,"startTime":215.779536,"endTime":217.401093525,"instrument":1,"program":66,"isDrum":false},{"pitch":67,"velocity":90,"startTime":218.256597,"endTime":218.37127575,"instrument":1,"program":66,"isDrum":false},{"pitch":67,"velocity":84,"startTime":218.52494527500002,"endTime":218.635036875,"instrument":1,"program":66,"isDrum":false},{"pitch":71,"velocity":108,"startTime":218.80705500000002,"endTime":219.3391644,"instrument":1,"program":66,"isDrum":false},{"pitch":72,"velocity":87,"startTime":219.34604512500002,"endTime":219.86209950000003,"instrument":1,"program":66,"isDrum":false},{"pitch":67,"velocity":99,"startTime":219.896503125,"endTime":220.11439275,"instrument":1,"program":66,"isDrum":false},{"pitch":67,"velocity":83,"startTime":220.45154827500002,"endTime":220.60063065,"instrument":1,"program":66,"isDrum":false},{"pitch":67,"velocity":76,"startTime":220.72677727500002,"endTime":220.836868875,"instrument":1,"program":66,"isDrum":false},{"pitch":72,"velocity":108,"startTime":220.99741912500002,"endTime":221.54099639999998,"instrument":1,"program":66,"isDrum":false},{"pitch":71,"velocity":89,"startTime":221.547877125,"endTime":222.07539937500002,"instrument":1,"program":66,"isDrum":false},{"pitch":69,"velocity":83,"startTime":222.10292227500003,"endTime":222.378151275,"instrument":1,"program":66,"isDrum":false},{"pitch":69,"velocity":86,"startTime":222.66484815,"endTime":222.77493975,"instrument":1,"program":66,"isDrum":false},{"pitch":67,"velocity":81,"startTime":222.94007714999998,"endTime":223.07769165000002,"instrument":1,"program":66,"isDrum":false},{"pitch":71,"velocity":105,"startTime":223.21071899999998,"endTime":223.7428284,"instrument":1,"program":66,"isDrum":false},{"pitch":67,"velocity":72,"startTime":223.754296275,"endTime":223.960718025,"instrument":1,"program":66,"isDrum":false},{"pitch":67,"velocity":86,"startTime":224.30016712500003,"endTime":226.02034837500003,"instrument":1,"program":66,"isDrum":false},{"pitch":71,"velocity":95,"startTime":227.33227327500003,"endTime":227.85979552499998,"instrument":1,"program":66,"isDrum":false},{"pitch":71,"velocity":90,"startTime":227.889612,"endTime":228.41025352500003,"instrument":1,"program":66,"isDrum":false},{"pitch":69,"velocity":92,"startTime":228.44465715,"endTime":228.82997775,"instrument":1,"program":66,"isDrum":false},{"pitch":67,"velocity":86,"startTime":228.99052799999998,"endTime":230.61896624999997,"instrument":1,"program":66,"isDrum":false},{"pitch":71,"velocity":91,"startTime":231.742818,"endTime":232.82538540000002,"instrument":1,"program":66,"isDrum":false},{"pitch":69,"velocity":87,"startTime":232.836853275,"endTime":233.23822889999997,"instrument":1,"program":66,"isDrum":false},{"pitch":71,"velocity":84,"startTime":233.39419200000003,"endTime":235.015749525,"instrument":1,"program":66,"isDrum":false},{"pitch":67,"velocity":90,"startTime":235.87125300000002,"endTime":235.98593175000002,"instrument":1,"program":66,"isDrum":false},{"pitch":67,"velocity":84,"startTime":236.13960127500002,"endTime":236.249692875,"instrument":1,"program":66,"isDrum":false},{"pitch":71,"velocity":108,"startTime":236.42171100000002,"endTime":236.95382039999998,"instrument":1,"program":66,"isDrum":false},{"pitch":72,"velocity":87,"startTime":236.960701125,"endTime":237.47675550000002,"instrument":1,"program":66,"isDrum":false},{"pitch":67,"velocity":99,"startTime":237.511159125,"endTime":237.72904875,"instrument":1,"program":66,"isDrum":false},{"pitch":67,"velocity":83,"startTime":238.06620427500002,"endTime":238.21528665,"instrument":1,"program":66,"isDrum":false},{"pitch":67,"velocity":76,"startTime":238.34143327500004,"endTime":238.45152487500002,"instrument":1,"program":66,"isDrum":false},{"pitch":72,"velocity":108,"startTime":238.61207512500005,"endTime":239.1556524,"instrument":1,"program":66,"isDrum":false},{"pitch":71,"velocity":89,"startTime":239.16253312500004,"endTime":239.690055375,"instrument":1,"program":66,"isDrum":false},{"pitch":69,"velocity":83,"startTime":239.717578275,"endTime":239.99280727500002,"instrument":1,"program":66,"isDrum":false},{"pitch":69,"velocity":86,"startTime":240.27950414999998,"endTime":240.38959575,"instrument":1,"program":66,"isDrum":false},{"pitch":67,"velocity":81,"startTime":240.55473315,"endTime":240.69234765,"instrument":1,"program":66,"isDrum":false},{"pitch":71,"velocity":105,"startTime":240.825375,"endTime":241.35748439999998,"instrument":1,"program":66,"isDrum":false},{"pitch":67,"velocity":72,"startTime":241.36895227500003,"endTime":241.57537402500003,"instrument":1,"program":66,"isDrum":false},{"pitch":67,"velocity":86,"startTime":241.914823125,"endTime":243.635004375,"instrument":1,"program":66,"isDrum":false},{"pitch":71,"velocity":95,"startTime":244.946929275,"endTime":245.474451525,"instrument":1,"program":66,"isDrum":false},{"pitch":71,"velocity":90,"startTime":245.50426800000002,"endTime":246.024909525,"instrument":1,"program":66,"isDrum":false},{"pitch":69,"velocity":92,"startTime":246.05931314999998,"endTime":246.44463374999998,"instrument":1,"program":66,"isDrum":false},{"pitch":67,"velocity":86,"startTime":246.605184,"endTime":248.23362225000005,"instrument":1,"program":66,"isDrum":false},{"pitch":71,"velocity":91,"startTime":249.35747400000002,"endTime":250.44004140000004,"instrument":1,"program":66,"isDrum":false},{"pitch":69,"velocity":87,"startTime":250.45150927499998,"endTime":250.85288490000005,"instrument":1,"program":66,"isDrum":false},{"pitch":71,"velocity":84,"startTime":251.008848,"endTime":252.63040552500001,"instrument":1,"program":66,"isDrum":false},{"pitch":67,"velocity":90,"startTime":253.485909,"endTime":253.60058775000005,"instrument":1,"program":66,"isDrum":false},{"pitch":67,"velocity":84,"startTime":253.754257275,"endTime":253.86434887500002,"instrument":1,"program":66,"isDrum":false},{"pitch":71,"velocity":108,"startTime":254.03636699999998,"endTime":254.5684764,"instrument":1,"program":66,"isDrum":false},{"pitch":72,"velocity":87,"startTime":254.57535712499998,"endTime":255.0914115,"instrument":1,"program":66,"isDrum":false},{"pitch":67,"velocity":99,"startTime":255.12581512499997,"endTime":255.34370475000003,"instrument":1,"program":66,"isDrum":false},{"pitch":67,"velocity":83,"startTime":255.680860275,"endTime":255.82994265000002,"instrument":1,"program":66,"isDrum":false},{"pitch":67,"velocity":76,"startTime":255.956089275,"endTime":256.066180875,"instrument":1,"program":66,"isDrum":false},{"pitch":72,"velocity":108,"startTime":256.226731125,"endTime":256.77030840000003,"instrument":1,"program":66,"isDrum":false},{"pitch":71,"velocity":89,"startTime":256.777189125,"endTime":257.304711375,"instrument":1,"program":66,"isDrum":false},{"pitch":69,"velocity":83,"startTime":257.33223427499996,"endTime":257.607463275,"instrument":1,"program":66,"isDrum":false},{"pitch":69,"velocity":86,"startTime":257.89416015,"endTime":258.00425175000004,"instrument":1,"program":66,"isDrum":false},{"pitch":67,"velocity":81,"startTime":258.16938915000003,"endTime":258.30700365,"instrument":1,"program":66,"isDrum":false},{"pitch":71,"velocity":105,"startTime":258.44003100000003,"endTime":258.9721404,"instrument":1,"program":66,"isDrum":false},{"pitch":67,"velocity":72,"startTime":258.983608275,"endTime":259.190030025,"instrument":1,"program":66,"isDrum":false},{"pitch":67,"velocity":86,"startTime":259.52947912499997,"endTime":261.24966037499996,"instrument":1,"program":66,"isDrum":false},{"pitch":71,"velocity":76,"startTime":262.56158527499997,"endTime":263.08910752500003,"instrument":1,"program":66,"isDrum":false},{"pitch":71,"velocity":72,"startTime":263.118924,"endTime":263.639565525,"instrument":1,"program":66,"isDrum":false},{"pitch":69,"velocity":74,"startTime":263.67396915,"endTime":264.05928975,"instrument":1,"program":66,"isDrum":false},{"pitch":67,"velocity":56,"startTime":264.21984000000003,"endTime":265.84827825,"instrument":1,"program":66,"isDrum":false},{"pitch":71,"velocity":41,"startTime":266.97213,"endTime":268.0546974,"instrument":1,"program":66,"isDrum":false},{"pitch":69,"velocity":39,"startTime":268.066165275,"endTime":268.4675409,"instrument":1,"program":66,"isDrum":false},{"pitch":71,"velocity":17,"startTime":268.623504,"endTime":270.245061525,"instrument":1,"program":66,"isDrum":false},{"pitch":67,"velocity":9,"startTime":271.100565,"endTime":271.21524375,"instrument":1,"program":66,"isDrum":false},{"pitch":67,"velocity":8,"startTime":271.368913275,"endTime":271.479004875,"instrument":1,"program":66,"isDrum":false},{"pitch":71,"velocity":11,"startTime":271.651023,"endTime":272.18313240000003,"instrument":1,"program":66,"isDrum":false},{"pitch":72,"velocity":9,"startTime":272.190013125,"endTime":272.70606749999996,"instrument":1,"program":66,"isDrum":false},{"pitch":67,"velocity":10,"startTime":272.740471125,"endTime":272.95836075,"instrument":1,"program":66,"isDrum":false},{"pitch":67,"velocity":1,"startTime":273.295516275,"endTime":273.44459865,"instrument":1,"program":66,"isDrum":false},{"pitch":67,"velocity":1,"startTime":273.570745275,"endTime":273.680836875,"instrument":1,"program":66,"isDrum":false},{"pitch":72,"velocity":1,"startTime":273.841387125,"endTime":274.3849644,"instrument":1,"program":66,"isDrum":false},{"pitch":71,"velocity":1,"startTime":274.391845125,"endTime":274.91936737500004,"instrument":1,"program":66,"isDrum":false},{"pitch":69,"velocity":1,"startTime":274.946890275,"endTime":275.222119275,"instrument":1,"program":66,"isDrum":false},{"pitch":43,"velocity":103,"startTime":0.0045871500000060905,"endTime":0.550457999999999,"instrument":2,"program":28,"isDrum":false},{"pitch":50,"velocity":95,"startTime":0.27522900000000305,"endTime":0.749999025000001,"instrument":2,"program":28,"isDrum":false},{"pitch":57,"velocity":108,"startTime":0.543577274999997,"endTime":1.307337750000002,"instrument":2,"program":28,"isDrum":false},{"pitch":43,"velocity":79,"startTime":0.550457999999999,"endTime":1.020640875000005,"instrument":2,"program":28,"isDrum":false},{"pitch":50,"velocity":78,"startTime":0.8256870000000021,"endTime":1.575686024999996,"instrument":2,"program":28,"isDrum":false},{"pitch":43,"velocity":79,"startTime":1.089448125000004,"endTime":2.172015525000006,"instrument":2,"program":28,"isDrum":false},{"pitch":59,"velocity":97,"startTime":1.100915999999998,"endTime":2.286694275000002,"instrument":2,"program":28,"isDrum":false},{"pitch":57,"velocity":84,"startTime":1.369264274999999,"endTime":1.857795750000001,"instrument":2,"program":28,"isDrum":false},{"pitch":50,"velocity":76,"startTime":1.651373999999997,"endTime":2.431189500000002,"instrument":2,"program":28,"isDrum":false},{"pitch":57,"velocity":72,"startTime":1.919722274999998,"endTime":2.683482750000003,"instrument":2,"program":28,"isDrum":false},{"pitch":43,"velocity":75,"startTime":2.194951275000001,"endTime":2.470180274999997,"instrument":2,"program":28,"isDrum":false},{"pitch":50,"velocity":94,"startTime":2.477060999999999,"endTime":2.947243875000005,"instrument":2,"program":28,"isDrum":false},{"pitch":43,"velocity":76,"startTime":2.481648150000005,"endTime":2.699537775000003,"instrument":2,"program":28,"isDrum":false},{"pitch":57,"velocity":93,"startTime":2.745409275,"endTime":3.497701875000004,"instrument":2,"program":28,"isDrum":false},{"pitch":43,"velocity":82,"startTime":2.756877150000001,"endTime":3.222472875000001,"instrument":2,"program":28,"isDrum":false},{"pitch":50,"velocity":74,"startTime":3.032106150000004,"endTime":3.777518024999999,"instrument":2,"program":28,"isDrum":false},{"pitch":43,"velocity":79,"startTime":3.295867274999999,"endTime":4.305040275000003,"instrument":2,"program":28,"isDrum":false},{"pitch":59,"velocity":84,"startTime":3.302748000000001,"endTime":4.477058400000004,"instrument":2,"program":28,"isDrum":false},{"pitch":57,"velocity":72,"startTime":3.571096274999995,"endTime":4.071095624999998,"instrument":2,"program":28,"isDrum":false},{"pitch":50,"velocity":83,"startTime":3.853206,"endTime":4.465590524999996,"instrument":2,"program":28,"isDrum":false},{"pitch":57,"velocity":80,"startTime":4.133022150000002,"endTime":4.568801399999998,"instrument":2,"program":28,"isDrum":false},{"pitch":40,"velocity":81,"startTime":4.392196125000005,"endTime":4.683480150000001,"instrument":2,"program":28,"isDrum":false},{"pitch":47,"velocity":96,"startTime":4.678893000000002,"endTime":5.153663025,"instrument":2,"program":28,"isDrum":false},{"pitch":40,"velocity":87,"startTime":4.683480150000001,"endTime":4.901369774999999,"instrument":2,"program":28,"isDrum":false},{"pitch":54,"velocity":92,"startTime":4.947241274999996,"endTime":5.451827774999998,"instrument":2,"program":28,"isDrum":false},{"pitch":40,"velocity":76,"startTime":4.954121999999998,"endTime":5.3944884,"instrument":2,"program":28,"isDrum":false},{"pitch":47,"velocity":83,"startTime":5.217883125,"endTime":5.516047874999998,"instrument":2,"program":28,"isDrum":false},{"pitch":55,"velocity":94,"startTime":5.504579999999997,"endTime":7.665127649999995,"instrument":2,"program":28,"isDrum":false},{"pitch":40,"velocity":81,"startTime":5.504579999999997,"endTime":6.564211649999997,"instrument":2,"program":28,"isDrum":false},{"pitch":54,"velocity":84,"startTime":5.779809,"endTime":6.048157275000001,"instrument":2,"program":28,"isDrum":false},{"pitch":47,"velocity":84,"startTime":6.048157275000001,"endTime":6.834853500000001,"instrument":2,"program":28,"isDrum":false},{"pitch":54,"velocity":85,"startTime":6.323386274999997,"endTime":6.759165525,"instrument":2,"program":28,"isDrum":false},{"pitch":40,"velocity":82,"startTime":6.605496000000002,"endTime":7.126137525000004,"instrument":2,"program":28,"isDrum":false},{"pitch":47,"velocity":93,"startTime":6.885312150000004,"endTime":7.3853115,"instrument":2,"program":28,"isDrum":false},{"pitch":54,"velocity":100,"startTime":7.155954000000001,"endTime":7.928888775000004,"instrument":2,"program":28,"isDrum":false},{"pitch":40,"velocity":83,"startTime":7.16054115,"endTime":7.3853115,"instrument":2,"program":28,"isDrum":false},{"pitch":47,"velocity":97,"startTime":7.431182999999997,"endTime":8.176594875,"instrument":2,"program":28,"isDrum":false},{"pitch":40,"velocity":81,"startTime":7.706412,"endTime":8.061916124999996,"instrument":2,"program":28,"isDrum":false},{"pitch":55,"velocity":102,"startTime":7.710999150000006,"endTime":8.960997525000003,"instrument":2,"program":28,"isDrum":false},{"pitch":54,"velocity":71,"startTime":7.981641000000003,"endTime":8.394484499999997,"instrument":2,"program":28,"isDrum":false},{"pitch":47,"velocity":81,"startTime":8.25687,"endTime":8.784392249999996,"instrument":2,"program":28,"isDrum":false},{"pitch":54,"velocity":82,"startTime":8.532099000000002,"endTime":8.800447274999996,"instrument":2,"program":28,"isDrum":false},{"pitch":48,"velocity":79,"startTime":8.811915150000004,"endTime":8.99540115,"instrument":2,"program":28,"isDrum":false},{"pitch":55,"velocity":104,"startTime":9.075676275,"endTime":9.5687949,"instrument":2,"program":28,"isDrum":false},{"pitch":48,"velocity":91,"startTime":9.082557000000001,"endTime":9.2476944,"instrument":2,"program":28,"isDrum":false},{"pitch":62,"velocity":103,"startTime":9.346318125000003,"endTime":10.394481900000002,"instrument":2,"program":28,"isDrum":false},{"pitch":48,"velocity":89,"startTime":9.357785999999997,"endTime":9.832556024999995,"instrument":2,"program":28,"isDrum":false},{"pitch":55,"velocity":93,"startTime":9.637602150000006,"endTime":10.130720775,"instrument":2,"program":28,"isDrum":false},{"pitch":48,"velocity":92,"startTime":9.901363275000001,"endTime":10.451821275,"instrument":2,"program":28,"isDrum":false},{"pitch":60,"velocity":100,"startTime":9.908244000000003,"endTime":10.871545500000003,"instrument":2,"program":28,"isDrum":false},{"pitch":55,"velocity":85,"startTime":10.176592274999997,"endTime":10.69264665,"instrument":2,"program":28,"isDrum":false},{"pitch":48,"velocity":94,"startTime":10.458702000000002,"endTime":10.887600525000003,"instrument":2,"program":28,"isDrum":false},{"pitch":55,"velocity":72,"startTime":10.727050274999996,"endTime":11.208701024999996,"instrument":2,"program":28,"isDrum":false},{"pitch":50,"velocity":100,"startTime":11.01374715,"endTime":11.277508274999995,"instrument":2,"program":28,"isDrum":false},{"pitch":50,"velocity":108,"startTime":11.284388999999997,"endTime":11.422003500000002,"instrument":2,"program":28,"isDrum":false},{"pitch":57,"velocity":89,"startTime":11.284388999999997,"endTime":11.605489499999997,"instrument":2,"program":28,"isDrum":false},{"pitch":64,"velocity":103,"startTime":11.541269400000004,"endTime":12.561910275000002,"instrument":2,"program":28,"isDrum":false},{"pitch":50,"velocity":88,"startTime":11.548150125,"endTime":11.743103999999995,"instrument":2,"program":28,"isDrum":false},{"pitch":57,"velocity":85,"startTime":11.827966275000001,"endTime":12.350901375,"instrument":2,"program":28,"isDrum":false},{"pitch":62,"velocity":101,"startTime":12.098608125000005,"endTime":13.107781125000002,"instrument":2,"program":28,"isDrum":false},{"pitch":50,"velocity":91,"startTime":12.103195274999997,"endTime":12.607781775,"instrument":2,"program":28,"isDrum":false},{"pitch":57,"velocity":100,"startTime":12.373837125000001,"endTime":12.855487875000001,"instrument":2,"program":28,"isDrum":false},{"pitch":50,"velocity":94,"startTime":12.653653274999996,"endTime":13.181175525,"instrument":2,"program":28,"isDrum":false},{"pitch":57,"velocity":81,"startTime":12.924295125,"endTime":13.222459874999998,"instrument":2,"program":28,"isDrum":false},{"pitch":50,"velocity":72,"startTime":13.192643400000001,"endTime":13.428881624999995,"instrument":2,"program":28,"isDrum":false},{"pitch":43,"velocity":72,"startTime":13.210991999999997,"endTime":13.410533025,"instrument":2,"program":28,"isDrum":false},{"pitch":50,"velocity":101,"startTime":13.479340274999998,"endTime":13.960991024999998,"instrument":2,"program":28,"isDrum":false},{"pitch":43,"velocity":86,"startTime":13.490808150000007,"endTime":13.704110624999998,"instrument":2,"program":28,"isDrum":false},{"pitch":57,"velocity":100,"startTime":13.754569275000001,"endTime":14.511449024999997,"instrument":2,"program":28,"isDrum":false},{"pitch":43,"velocity":86,"startTime":13.766037150000002,"endTime":14.208697125,"instrument":2,"program":28,"isDrum":false},{"pitch":50,"velocity":88,"startTime":14.029798274999997,"endTime":14.752274399999997,"instrument":2,"program":28,"isDrum":false},{"pitch":43,"velocity":82,"startTime":14.300440125000002,"endTime":15.383007525000004,"instrument":2,"program":28,"isDrum":false},{"pitch":59,"velocity":103,"startTime":14.305027275,"endTime":15.463282650000004,"instrument":2,"program":28,"isDrum":false},{"pitch":57,"velocity":89,"startTime":14.568788400000003,"endTime":15.045851999999996,"instrument":2,"program":28,"isDrum":false},{"pitch":50,"velocity":99,"startTime":14.862366000000002,"endTime":15.612365024999995,"instrument":2,"program":28,"isDrum":false},{"pitch":57,"velocity":72,"startTime":15.130714274999995,"endTime":15.905942624999994,"instrument":2,"program":28,"isDrum":false},{"pitch":43,"velocity":83,"startTime":15.405943274999998,"endTime":15.561906375,"instrument":2,"program":28,"isDrum":false},{"pitch":43,"velocity":90,"startTime":15.681172275000002,"endTime":15.841722525000002,"instrument":2,"program":28,"isDrum":false},{"pitch":50,"velocity":97,"startTime":15.688053000000004,"endTime":16.094015774999995,"instrument":2,"program":28,"isDrum":false},{"pitch":57,"velocity":103,"startTime":15.956401274999997,"endTime":16.70181315,"instrument":2,"program":28,"isDrum":false},{"pitch":43,"velocity":86,"startTime":15.967869150000006,"endTime":16.421996999999998,"instrument":2,"program":28,"isDrum":false},{"pitch":50,"velocity":89,"startTime":16.238511000000003,"endTime":16.988510024999997,"instrument":2,"program":28,"isDrum":false},{"pitch":59,"velocity":103,"startTime":16.502272125000005,"endTime":17.642178899999998,"instrument":2,"program":28,"isDrum":false},{"pitch":43,"velocity":75,"startTime":16.51374,"endTime":17.458692900000003,"instrument":2,"program":28,"isDrum":false},{"pitch":57,"velocity":89,"startTime":16.782088275,"endTime":17.263739025,"instrument":2,"program":28,"isDrum":false},{"pitch":50,"velocity":100,"startTime":17.068785150000004,"endTime":17.775206250000004,"instrument":2,"program":28,"isDrum":false},{"pitch":57,"velocity":72,"startTime":17.344014150000007,"endTime":18.119242500000006,"instrument":2,"program":28,"isDrum":false},{"pitch":43,"velocity":103,"startTime":17.619243150000003,"endTime":18.165114000000003,"instrument":2,"program":28,"isDrum":false},{"pitch":50,"velocity":95,"startTime":17.889885,"endTime":18.364655024999998,"instrument":2,"program":28,"isDrum":false},{"pitch":57,"velocity":108,"startTime":18.158233275,"endTime":18.92199375,"instrument":2,"program":28,"isDrum":false},{"pitch":43,"velocity":79,"startTime":18.165114000000003,"endTime":18.635296875,"instrument":2,"program":28,"isDrum":false},{"pitch":50,"velocity":78,"startTime":18.440343,"endTime":19.190342025,"instrument":2,"program":28,"isDrum":false},{"pitch":43,"velocity":79,"startTime":18.704104125,"endTime":19.786671525000003,"instrument":2,"program":28,"isDrum":false},{"pitch":59,"velocity":97,"startTime":18.715572,"endTime":19.901350275,"instrument":2,"program":28,"isDrum":false},{"pitch":57,"velocity":84,"startTime":18.983920274999996,"endTime":19.472451749999998,"instrument":2,"program":28,"isDrum":false},{"pitch":50,"velocity":76,"startTime":19.26603,"endTime":20.045845500000006,"instrument":2,"program":28,"isDrum":false},{"pitch":57,"velocity":72,"startTime":19.534378275,"endTime":20.29813875,"instrument":2,"program":28,"isDrum":false},{"pitch":43,"velocity":75,"startTime":19.809607274999998,"endTime":20.084836275,"instrument":2,"program":28,"isDrum":false},{"pitch":50,"velocity":94,"startTime":20.091717000000003,"endTime":20.561899875,"instrument":2,"program":28,"isDrum":false},{"pitch":43,"velocity":76,"startTime":20.09630415,"endTime":20.314193775,"instrument":2,"program":28,"isDrum":false},{"pitch":57,"velocity":93,"startTime":20.360065274999997,"endTime":21.112357875,"instrument":2,"program":28,"isDrum":false},{"pitch":43,"velocity":82,"startTime":20.371533150000005,"endTime":20.837128875000005,"instrument":2,"program":28,"isDrum":false},{"pitch":50,"velocity":74,"startTime":20.64676215,"endTime":21.392174024999996,"instrument":2,"program":28,"isDrum":false},{"pitch":43,"velocity":79,"startTime":20.910523274999996,"endTime":21.919696275000007,"instrument":2,"program":28,"isDrum":false},{"pitch":59,"velocity":84,"startTime":20.917403999999998,"endTime":22.0917144,"instrument":2,"program":28,"isDrum":false},{"pitch":57,"velocity":72,"startTime":21.185752275,"endTime":21.685751624999995,"instrument":2,"program":28,"isDrum":false},{"pitch":50,"velocity":83,"startTime":21.467861999999997,"endTime":22.080246525,"instrument":2,"program":28,"isDrum":false},{"pitch":57,"velocity":80,"startTime":21.747678150000006,"endTime":22.1834574,"instrument":2,"program":28,"isDrum":false},{"pitch":40,"velocity":81,"startTime":22.006852125,"endTime":22.298136150000005,"instrument":2,"program":28,"isDrum":false},{"pitch":47,"velocity":96,"startTime":22.293549,"endTime":22.768319024999997,"instrument":2,"program":28,"isDrum":false},{"pitch":40,"velocity":87,"startTime":22.298136150000005,"endTime":22.516025775000003,"instrument":2,"program":28,"isDrum":false},{"pitch":54,"velocity":92,"startTime":22.561897275,"endTime":23.066483775000002,"instrument":2,"program":28,"isDrum":false},{"pitch":40,"velocity":76,"startTime":22.568778000000002,"endTime":23.009144399999997,"instrument":2,"program":28,"isDrum":false},{"pitch":47,"velocity":83,"startTime":22.832539125000004,"endTime":23.130703874999995,"instrument":2,"program":28,"isDrum":false},{"pitch":55,"velocity":94,"startTime":23.119236,"endTime":25.27978365,"instrument":2,"program":28,"isDrum":false},{"pitch":40,"velocity":81,"startTime":23.119236,"endTime":24.17886765,"instrument":2,"program":28,"isDrum":false},{"pitch":54,"velocity":84,"startTime":23.394464999999997,"endTime":23.662813274999998,"instrument":2,"program":28,"isDrum":false},{"pitch":47,"velocity":84,"startTime":23.662813274999998,"endTime":24.449509500000005,"instrument":2,"program":28,"isDrum":false},{"pitch":54,"velocity":85,"startTime":23.938042275,"endTime":24.373821525000004,"instrument":2,"program":28,"isDrum":false},{"pitch":40,"velocity":82,"startTime":24.220152,"endTime":24.740793525,"instrument":2,"program":28,"isDrum":false},{"pitch":47,"velocity":93,"startTime":24.49996815,"endTime":24.999967500000004,"instrument":2,"program":28,"isDrum":false},{"pitch":54,"velocity":100,"startTime":24.770609999999998,"endTime":25.543544775,"instrument":2,"program":28,"isDrum":false},{"pitch":40,"velocity":83,"startTime":24.775197150000004,"endTime":24.999967500000004,"instrument":2,"program":28,"isDrum":false},{"pitch":47,"velocity":97,"startTime":25.045839,"endTime":25.791250875000003,"instrument":2,"program":28,"isDrum":false},{"pitch":40,"velocity":81,"startTime":25.321067999999997,"endTime":25.676572125,"instrument":2,"program":28,"isDrum":false},{"pitch":55,"velocity":102,"startTime":25.325655150000003,"endTime":26.575653525,"instrument":2,"program":28,"isDrum":false},{"pitch":54,"velocity":71,"startTime":25.596297,"endTime":26.0091405,"instrument":2,"program":28,"isDrum":false},{"pitch":47,"velocity":81,"startTime":25.871526000000003,"endTime":26.39904825,"instrument":2,"program":28,"isDrum":false},{"pitch":54,"velocity":82,"startTime":26.146755,"endTime":26.415103275,"instrument":2,"program":28,"isDrum":false},{"pitch":48,"velocity":79,"startTime":26.42657115,"endTime":26.610057150000003,"instrument":2,"program":28,"isDrum":false},{"pitch":55,"velocity":104,"startTime":26.690332274999996,"endTime":27.183450900000004,"instrument":2,"program":28,"isDrum":false},{"pitch":48,"velocity":91,"startTime":26.697212999999998,"endTime":26.862350399999997,"instrument":2,"program":28,"isDrum":false},{"pitch":62,"velocity":103,"startTime":26.960974125,"endTime":28.009137900000006,"instrument":2,"program":28,"isDrum":false},{"pitch":48,"velocity":89,"startTime":26.972442,"endTime":27.447212025,"instrument":2,"program":28,"isDrum":false},{"pitch":55,"velocity":93,"startTime":27.252258150000003,"endTime":27.745376775000004,"instrument":2,"program":28,"isDrum":false},{"pitch":48,"velocity":92,"startTime":27.516019274999998,"endTime":28.066477274999997,"instrument":2,"program":28,"isDrum":false},{"pitch":60,"velocity":100,"startTime":27.5229,"endTime":28.4862015,"instrument":2,"program":28,"isDrum":false},{"pitch":55,"velocity":85,"startTime":27.791248275,"endTime":28.307302649999997,"instrument":2,"program":28,"isDrum":false},{"pitch":48,"velocity":94,"startTime":28.073358,"endTime":28.502256525,"instrument":2,"program":28,"isDrum":false},{"pitch":55,"velocity":72,"startTime":28.341706275,"endTime":28.823357025,"instrument":2,"program":28,"isDrum":false},{"pitch":50,"velocity":100,"startTime":28.628403150000004,"endTime":28.892164274999992,"instrument":2,"program":28,"isDrum":false},{"pitch":50,"velocity":108,"startTime":28.899044999999994,"endTime":29.036659500000006,"instrument":2,"program":28,"isDrum":false},{"pitch":57,"velocity":89,"startTime":28.899044999999994,"endTime":29.220145499999994,"instrument":2,"program":28,"isDrum":false},{"pitch":64,"velocity":103,"startTime":29.155925400000008,"endTime":30.176566275000006,"instrument":2,"program":28,"isDrum":false},{"pitch":50,"velocity":88,"startTime":29.162806124999996,"endTime":29.357759999999992,"instrument":2,"program":28,"isDrum":false},{"pitch":57,"velocity":85,"startTime":29.442622274999998,"endTime":29.965557374999996,"instrument":2,"program":28,"isDrum":false},{"pitch":62,"velocity":101,"startTime":29.713264125000002,"endTime":30.722437125000006,"instrument":2,"program":28,"isDrum":false},{"pitch":50,"velocity":91,"startTime":29.717851274999994,"endTime":30.222437774999996,"instrument":2,"program":28,"isDrum":false},{"pitch":57,"velocity":100,"startTime":29.988493124999998,"endTime":30.470143874999998,"instrument":2,"program":28,"isDrum":false},{"pitch":50,"velocity":94,"startTime":30.268309275,"endTime":30.795831525000004,"instrument":2,"program":28,"isDrum":false},{"pitch":57,"velocity":81,"startTime":30.538951125000004,"endTime":30.837115875000002,"instrument":2,"program":28,"isDrum":false},{"pitch":50,"velocity":72,"startTime":30.807299399999998,"endTime":31.043537624999992,"instrument":2,"program":28,"isDrum":false},{"pitch":43,"velocity":72,"startTime":30.825647999999994,"endTime":31.025189024999996,"instrument":2,"program":28,"isDrum":false},{"pitch":50,"velocity":101,"startTime":31.093996275000002,"endTime":31.575647025000002,"instrument":2,"program":28,"isDrum":false},{"pitch":43,"velocity":86,"startTime":31.10546415000001,"endTime":31.318766625000002,"instrument":2,"program":28,"isDrum":false},{"pitch":57,"velocity":100,"startTime":31.369225274999998,"endTime":32.126105024999994,"instrument":2,"program":28,"isDrum":false},{"pitch":43,"velocity":86,"startTime":31.380693150000006,"endTime":31.823353125000004,"instrument":2,"program":28,"isDrum":false},{"pitch":50,"velocity":88,"startTime":31.644454274999994,"endTime":32.366930399999994,"instrument":2,"program":28,"isDrum":false},{"pitch":43,"velocity":82,"startTime":31.915096124999998,"endTime":32.997663525,"instrument":2,"program":28,"isDrum":false},{"pitch":59,"velocity":103,"startTime":31.919683275000004,"endTime":33.07793865,"instrument":2,"program":28,"isDrum":false},{"pitch":57,"velocity":89,"startTime":32.183444400000006,"endTime":32.660508,"instrument":2,"program":28,"isDrum":false},{"pitch":50,"velocity":99,"startTime":32.477022,"endTime":33.22702102499999,"instrument":2,"program":28,"isDrum":false},{"pitch":57,"velocity":72,"startTime":32.74537027499999,"endTime":33.520598625,"instrument":2,"program":28,"isDrum":false},{"pitch":43,"velocity":83,"startTime":33.020599275,"endTime":33.176562374999996,"instrument":2,"program":28,"isDrum":false},{"pitch":43,"velocity":90,"startTime":33.295828275,"endTime":33.456378525,"instrument":2,"program":28,"isDrum":false},{"pitch":50,"velocity":97,"startTime":33.302709,"endTime":33.70867177499999,"instrument":2,"program":28,"isDrum":false},{"pitch":57,"velocity":103,"startTime":33.571057274999994,"endTime":34.316469149999996,"instrument":2,"program":28,"isDrum":false},{"pitch":43,"velocity":86,"startTime":33.58252515,"endTime":34.036652999999994,"instrument":2,"program":28,"isDrum":false},{"pitch":50,"velocity":89,"startTime":33.853167000000006,"endTime":34.603166025,"instrument":2,"program":28,"isDrum":false},{"pitch":59,"velocity":103,"startTime":34.11692812500001,"endTime":35.25683490000001,"instrument":2,"program":28,"isDrum":false},{"pitch":43,"velocity":75,"startTime":34.128396,"endTime":35.073348900000006,"instrument":2,"program":28,"isDrum":false},{"pitch":57,"velocity":89,"startTime":34.396744274999996,"endTime":34.878395024999996,"instrument":2,"program":28,"isDrum":false},{"pitch":50,"velocity":100,"startTime":34.68344115,"endTime":35.38986225,"instrument":2,"program":28,"isDrum":false},{"pitch":57,"velocity":72,"startTime":34.95867015000001,"endTime":35.73389849999999,"instrument":2,"program":28,"isDrum":false},{"pitch":43,"velocity":81,"startTime":35.23389914999999,"endTime":35.263715624999996,"instrument":2,"program":28,"isDrum":false},{"pitch":50,"velocity":96,"startTime":35.504540999999996,"endTime":35.9907789,"instrument":2,"program":28,"isDrum":false},{"pitch":43,"velocity":80,"startTime":35.504540999999996,"endTime":35.676559125000004,"instrument":2,"program":28,"isDrum":false},{"pitch":57,"velocity":92,"startTime":35.779770000000006,"endTime":36.525181874999994,"instrument":2,"program":28,"isDrum":false},{"pitch":43,"velocity":82,"startTime":35.78435715,"endTime":36.227017124999996,"instrument":2,"program":28,"isDrum":false},{"pitch":50,"velocity":77,"startTime":36.059586149999994,"endTime":36.766007249999994,"instrument":2,"program":28,"isDrum":false},{"pitch":59,"velocity":99,"startTime":36.330228,"endTime":37.343988149999994,"instrument":2,"program":28,"isDrum":false},{"pitch":43,"velocity":76,"startTime":36.33481514999999,"endTime":37.38527249999999,"instrument":2,"program":28,"isDrum":false},{"pitch":57,"velocity":86,"startTime":36.598576275000006,"endTime":37.052704125,"instrument":2,"program":28,"isDrum":false},{"pitch":50,"velocity":91,"startTime":36.880686000000004,"endTime":37.63068502500001,"instrument":2,"program":28,"isDrum":false},{"pitch":57,"velocity":86,"startTime":37.16050214999999,"endTime":37.9173819,"instrument":2,"program":28,"isDrum":false},{"pitch":43,"velocity":88,"startTime":37.42426327500001,"endTime":37.5962814,"instrument":2,"program":28,"isDrum":false},{"pitch":50,"velocity":98,"startTime":37.706373000000006,"endTime":38.1926109,"instrument":2,"program":28,"isDrum":false},{"pitch":43,"velocity":89,"startTime":37.71096015,"endTime":37.940317650000004,"instrument":2,"program":28,"isDrum":false},{"pitch":57,"velocity":105,"startTime":37.981602,"endTime":38.73160102500001,"instrument":2,"program":28,"isDrum":false},{"pitch":43,"velocity":79,"startTime":37.981602,"endTime":38.421968400000004,"instrument":2,"program":28,"isDrum":false},{"pitch":50,"velocity":94,"startTime":38.256831,"endTime":38.98389427499999,"instrument":2,"program":28,"isDrum":false},{"pitch":43,"velocity":78,"startTime":38.53664715,"endTime":39.649031025000006,"instrument":2,"program":28,"isDrum":false},{"pitch":59,"velocity":79,"startTime":38.53664715,"endTime":39.483893625,"instrument":2,"program":28,"isDrum":false},{"pitch":57,"velocity":88,"startTime":38.800408275,"endTime":39.270591149999994,"instrument":2,"program":28,"isDrum":false},{"pitch":50,"velocity":105,"startTime":39.082518,"endTime":39.736186874999994,"instrument":2,"program":28,"isDrum":false},{"pitch":57,"velocity":92,"startTime":39.357746999999996,"endTime":39.81646200000001,"instrument":2,"program":28,"isDrum":false},{"pitch":40,"velocity":96,"startTime":39.626095275000004,"endTime":39.83251702500001,"instrument":2,"program":28,"isDrum":false},{"pitch":40,"velocity":93,"startTime":39.896737124999994,"endTime":40.126094625,"instrument":2,"program":28,"isDrum":false},{"pitch":47,"velocity":77,"startTime":39.908205,"endTime":40.378387874999994,"instrument":2,"program":28,"isDrum":false},{"pitch":54,"velocity":104,"startTime":40.17655327500001,"endTime":40.940313749999994,"instrument":2,"program":28,"isDrum":false},{"pitch":40,"velocity":83,"startTime":40.17655327500001,"endTime":40.681139775,"instrument":2,"program":28,"isDrum":false},{"pitch":47,"velocity":91,"startTime":40.447195125,"endTime":41.197194149999994,"instrument":2,"program":28,"isDrum":false},{"pitch":55,"velocity":105,"startTime":40.733892000000004,"endTime":41.75912002500001,"instrument":2,"program":28,"isDrum":false},{"pitch":40,"velocity":84,"startTime":40.733892000000004,"endTime":41.81645940000001,"instrument":2,"program":28,"isDrum":false},{"pitch":54,"velocity":88,"startTime":41.009121,"endTime":41.49077175,"instrument":2,"program":28,"isDrum":false},{"pitch":47,"velocity":94,"startTime":41.28893715,"endTime":41.99994540000001,"instrument":2,"program":28,"isDrum":false},{"pitch":54,"velocity":82,"startTime":41.552698275000004,"endTime":42.304990874999994,"instrument":2,"program":28,"isDrum":false},{"pitch":40,"velocity":86,"startTime":41.839395149999994,"endTime":42.018294000000004,"instrument":2,"program":28,"isDrum":false},{"pitch":40,"velocity":88,"startTime":42.10315627500001,"endTime":42.32792662500001,"instrument":2,"program":28,"isDrum":false},{"pitch":47,"velocity":96,"startTime":42.10315627500001,"endTime":42.561871274999994,"instrument":2,"program":28,"isDrum":false},{"pitch":54,"velocity":101,"startTime":42.36233025000001,"endTime":43.123797149999994,"instrument":2,"program":28,"isDrum":false},{"pitch":40,"velocity":84,"startTime":42.37838527500001,"endTime":42.866916749999994,"instrument":2,"program":28,"isDrum":false},{"pitch":47,"velocity":98,"startTime":42.660495000000004,"endTime":43.399026150000005,"instrument":2,"program":28,"isDrum":false},{"pitch":55,"velocity":106,"startTime":42.935724,"endTime":44.19719025,"instrument":2,"program":28,"isDrum":false},{"pitch":40,"velocity":80,"startTime":42.935724,"endTime":43.915080525,"instrument":2,"program":28,"isDrum":false},{"pitch":54,"velocity":101,"startTime":43.20407227500001,"endTime":43.64673224999999,"instrument":2,"program":28,"isDrum":false},{"pitch":47,"velocity":96,"startTime":43.474714125,"endTime":43.91049337500001,"instrument":2,"program":28,"isDrum":false},{"pitch":54,"velocity":90,"startTime":43.754530275,"endTime":44.006823524999994,"instrument":2,"program":28,"isDrum":false},{"pitch":48,"velocity":105,"startTime":44.02975927500001,"endTime":44.201777400000005,"instrument":2,"program":28,"isDrum":false},{"pitch":48,"velocity":84,"startTime":44.30498827500001,"endTime":44.51141002500001,"instrument":2,"program":28,"isDrum":false},{"pitch":55,"velocity":104,"startTime":44.311868999999994,"endTime":44.782051875,"instrument":2,"program":28,"isDrum":false},{"pitch":48,"velocity":96,"startTime":44.568749399999994,"endTime":45.034345124999994,"instrument":2,"program":28,"isDrum":false},{"pitch":62,"velocity":104,"startTime":44.580217275,"endTime":45.153611025,"instrument":2,"program":28,"isDrum":false},{"pitch":55,"velocity":90,"startTime":44.85544627500001,"endTime":45.405904275000005,"instrument":2,"program":28,"isDrum":false},{"pitch":60,"velocity":102,"startTime":45.1192074,"endTime":46.12379325,"instrument":2,"program":28,"isDrum":false},{"pitch":48,"velocity":86,"startTime":45.13067527500001,"endTime":45.681133275,"instrument":2,"program":28,"isDrum":false},{"pitch":55,"velocity":100,"startTime":45.41278500000001,"endTime":45.646729650000005,"instrument":2,"program":28,"isDrum":false},{"pitch":48,"velocity":84,"startTime":45.688014,"endTime":46.158196874999994,"instrument":2,"program":28,"isDrum":false},{"pitch":55,"velocity":92,"startTime":45.95177512499999,"endTime":46.410490125,"instrument":2,"program":28,"isDrum":false},{"pitch":50,"velocity":108,"startTime":46.23159127500001,"endTime":46.415077274999994,"instrument":2,"program":28,"isDrum":false},{"pitch":50,"velocity":96,"startTime":46.513701000000005,"endTime":47.309571525,"instrument":2,"program":28,"isDrum":false},{"pitch":57,"velocity":89,"startTime":46.513701000000005,"endTime":46.960948124999994,"instrument":2,"program":28,"isDrum":false},{"pitch":64,"velocity":106,"startTime":46.78204927500001,"endTime":48.089387025,"instrument":2,"program":28,"isDrum":false},{"pitch":57,"velocity":88,"startTime":47.05727827500001,"endTime":47.607736275,"instrument":2,"program":28,"isDrum":false},{"pitch":62,"velocity":104,"startTime":47.34397515,"endTime":47.855442375,"instrument":2,"program":28,"isDrum":false},{"pitch":50,"velocity":86,"startTime":47.350855875,"endTime":47.88296527500001,"instrument":2,"program":28,"isDrum":false},{"pitch":57,"velocity":88,"startTime":47.619204149999995,"endTime":48.112322775,"instrument":2,"program":28,"isDrum":false},{"pitch":50,"velocity":100,"startTime":47.889846,"endTime":48.36002887499999,"instrument":2,"program":28,"isDrum":false},{"pitch":57,"velocity":81,"startTime":48.16966215,"endTime":48.49764337499999,"instrument":2,"program":28,"isDrum":false},{"pitch":43,"velocity":87,"startTime":48.433423275,"endTime":48.635257875,"instrument":2,"program":28,"isDrum":false},{"pitch":50,"velocity":99,"startTime":48.715533,"endTime":49.19030302500001,"instrument":2,"program":28,"isDrum":false},{"pitch":43,"velocity":86,"startTime":48.72012014999999,"endTime":48.938009775000005,"instrument":2,"program":28,"isDrum":false},{"pitch":57,"velocity":104,"startTime":48.98388127500001,"endTime":49.7522289,"instrument":2,"program":28,"isDrum":false},{"pitch":43,"velocity":83,"startTime":48.990762,"endTime":49.4953485,"instrument":2,"program":28,"isDrum":false},{"pitch":50,"velocity":109,"startTime":49.259110275000005,"endTime":50.011402874999995,"instrument":2,"program":28,"isDrum":false},{"pitch":59,"velocity":104,"startTime":49.534339275,"endTime":50.56644802500001,"instrument":2,"program":28,"isDrum":false},{"pitch":43,"velocity":68,"startTime":49.54122,"endTime":50.61920025,"instrument":2,"program":28,"isDrum":false},{"pitch":57,"velocity":91,"startTime":49.816449,"endTime":50.28663187499999,"instrument":2,"program":28,"isDrum":false},{"pitch":50,"velocity":108,"startTime":50.08479727500001,"endTime":50.848557750000005,"instrument":2,"program":28,"isDrum":false},{"pitch":57,"velocity":84,"startTime":50.366907000000005,"endTime":50.66507174999999,"instrument":2,"program":28,"isDrum":false},{"pitch":43,"velocity":78,"startTime":50.64672314999999,"endTime":50.8531449,"instrument":2,"program":28,"isDrum":false},{"pitch":50,"velocity":107,"startTime":50.917365,"endTime":51.38754787499999,"instrument":2,"program":28,"isDrum":false},{"pitch":43,"velocity":90,"startTime":50.917365,"endTime":51.12378675,"instrument":2,"program":28,"isDrum":false},{"pitch":57,"velocity":92,"startTime":51.185713275000005,"endTime":51.942593025,"instrument":2,"program":28,"isDrum":false},{"pitch":43,"velocity":84,"startTime":51.19259400000001,"endTime":51.69029977500001,"instrument":2,"program":28,"isDrum":false},{"pitch":50,"velocity":103,"startTime":51.467823,"endTime":52.21782202500001,"instrument":2,"program":28,"isDrum":false},{"pitch":43,"velocity":84,"startTime":51.743052,"endTime":52.73387640000001,"instrument":2,"program":28,"isDrum":false},{"pitch":59,"velocity":108,"startTime":51.743052,"endTime":52.01140027500001,"instrument":2,"program":28,"isDrum":false},{"pitch":57,"velocity":101,"startTime":52.018280999999995,"endTime":52.550390400000005,"instrument":2,"program":28,"isDrum":false},{"pitch":50,"velocity":94,"startTime":52.293510000000005,"endTime":52.79809649999999,"instrument":2,"program":28,"isDrum":false},{"pitch":57,"velocity":85,"startTime":52.56185827500001,"endTime":52.83708727500001,"instrument":2,"program":28,"isDrum":false},{"pitch":43,"velocity":103,"startTime":52.84855515,"endTime":53.394426,"instrument":2,"program":28,"isDrum":false},{"pitch":50,"velocity":95,"startTime":53.11919700000001,"endTime":53.593967025000005,"instrument":2,"program":28,"isDrum":false},{"pitch":57,"velocity":108,"startTime":53.387545275,"endTime":54.15130575,"instrument":2,"program":28,"isDrum":false},{"pitch":43,"velocity":79,"startTime":53.394426,"endTime":53.864608874999995,"instrument":2,"program":28,"isDrum":false},{"pitch":50,"velocity":78,"startTime":53.669655,"endTime":54.41965402500001,"instrument":2,"program":28,"isDrum":false},{"pitch":43,"velocity":79,"startTime":53.933416125,"endTime":55.015983525,"instrument":2,"program":28,"isDrum":false},{"pitch":59,"velocity":97,"startTime":53.944883999999995,"endTime":55.130662275,"instrument":2,"program":28,"isDrum":false},{"pitch":57,"velocity":84,"startTime":54.213232275,"endTime":54.701763750000005,"instrument":2,"program":28,"isDrum":false},{"pitch":50,"velocity":76,"startTime":54.495342,"endTime":55.2751575,"instrument":2,"program":28,"isDrum":false},{"pitch":57,"velocity":72,"startTime":54.76369027500001,"endTime":55.52745075000001,"instrument":2,"program":28,"isDrum":false},{"pitch":43,"velocity":75,"startTime":55.038919275000005,"endTime":55.314148275,"instrument":2,"program":28,"isDrum":false},{"pitch":50,"velocity":94,"startTime":55.321029,"endTime":55.791211874999995,"instrument":2,"program":28,"isDrum":false},{"pitch":43,"velocity":76,"startTime":55.325616149999995,"endTime":55.54350577500001,"instrument":2,"program":28,"isDrum":false},{"pitch":57,"velocity":93,"startTime":55.58937727500001,"endTime":56.341669875,"instrument":2,"program":28,"isDrum":false},{"pitch":43,"velocity":82,"startTime":55.60084514999999,"endTime":56.06644087499999,"instrument":2,"program":28,"isDrum":false},{"pitch":50,"velocity":74,"startTime":55.87607415,"endTime":56.621486025,"instrument":2,"program":28,"isDrum":false},{"pitch":43,"velocity":79,"startTime":56.139835275,"endTime":57.14900827499999,"instrument":2,"program":28,"isDrum":false},{"pitch":59,"velocity":84,"startTime":56.146716000000005,"endTime":57.3210264,"instrument":2,"program":28,"isDrum":false},{"pitch":57,"velocity":72,"startTime":56.41506427500001,"endTime":56.91506362500001,"instrument":2,"program":28,"isDrum":false},{"pitch":50,"velocity":83,"startTime":56.697174,"endTime":57.30955852500001,"instrument":2,"program":28,"isDrum":false},{"pitch":57,"velocity":80,"startTime":56.97699015,"endTime":57.41276940000001,"instrument":2,"program":28,"isDrum":false},{"pitch":40,"velocity":81,"startTime":57.236164124999995,"endTime":57.52744814999999,"instrument":2,"program":28,"isDrum":false},{"pitch":47,"velocity":96,"startTime":57.522861,"endTime":57.99763102500001,"instrument":2,"program":28,"isDrum":false},{"pitch":40,"velocity":87,"startTime":57.52744814999999,"endTime":57.745337775,"instrument":2,"program":28,"isDrum":false},{"pitch":54,"velocity":92,"startTime":57.79120927500001,"endTime":58.295795774999995,"instrument":2,"program":28,"isDrum":false},{"pitch":40,"velocity":76,"startTime":57.798089999999995,"endTime":58.23845640000001,"instrument":2,"program":28,"isDrum":false},{"pitch":47,"velocity":83,"startTime":58.061851125,"endTime":58.36001587500001,"instrument":2,"program":28,"isDrum":false},{"pitch":55,"velocity":94,"startTime":58.348548,"endTime":60.50909565000001,"instrument":2,"program":28,"isDrum":false},{"pitch":40,"velocity":81,"startTime":58.348548,"endTime":59.40817965,"instrument":2,"program":28,"isDrum":false},{"pitch":54,"velocity":84,"startTime":58.623777,"endTime":58.892125275000005,"instrument":2,"program":28,"isDrum":false},{"pitch":47,"velocity":84,"startTime":58.892125275000005,"endTime":59.67882149999999,"instrument":2,"program":28,"isDrum":false},{"pitch":54,"velocity":85,"startTime":59.167354275,"endTime":59.603133525,"instrument":2,"program":28,"isDrum":false},{"pitch":40,"velocity":82,"startTime":59.449464,"endTime":59.970105525,"instrument":2,"program":28,"isDrum":false},{"pitch":47,"velocity":93,"startTime":59.72928015,"endTime":60.2292795,"instrument":2,"program":28,"isDrum":false},{"pitch":54,"velocity":100,"startTime":59.999922000000005,"endTime":60.772856775,"instrument":2,"program":28,"isDrum":false},{"pitch":40,"velocity":83,"startTime":60.00450915,"endTime":60.2292795,"instrument":2,"program":28,"isDrum":false},{"pitch":47,"velocity":97,"startTime":60.275151,"endTime":61.02056287499999,"instrument":2,"program":28,"isDrum":false},{"pitch":40,"velocity":81,"startTime":60.55038,"endTime":60.90588412500001,"instrument":2,"program":28,"isDrum":false},{"pitch":55,"velocity":102,"startTime":60.55496715,"endTime":61.80496552500001,"instrument":2,"program":28,"isDrum":false},{"pitch":54,"velocity":71,"startTime":60.82560900000001,"endTime":61.2384525,"instrument":2,"program":28,"isDrum":false},{"pitch":47,"velocity":81,"startTime":61.100838,"endTime":61.62836025000001,"instrument":2,"program":28,"isDrum":false},{"pitch":54,"velocity":82,"startTime":61.376067,"endTime":61.64441527500001,"instrument":2,"program":28,"isDrum":false},{"pitch":48,"velocity":79,"startTime":61.65588315,"endTime":61.83936915,"instrument":2,"program":28,"isDrum":false},{"pitch":55,"velocity":104,"startTime":61.919644275,"endTime":62.4127629,"instrument":2,"program":28,"isDrum":false},{"pitch":48,"velocity":91,"startTime":61.926525000000005,"endTime":62.09166240000001,"instrument":2,"program":28,"isDrum":false},{"pitch":62,"velocity":103,"startTime":62.19028612499999,"endTime":63.2384499,"instrument":2,"program":28,"isDrum":false},{"pitch":48,"velocity":89,"startTime":62.201754,"endTime":62.67652402500001,"instrument":2,"program":28,"isDrum":false},{"pitch":55,"velocity":93,"startTime":62.48157015,"endTime":62.974688775,"instrument":2,"program":28,"isDrum":false},{"pitch":48,"velocity":92,"startTime":62.745331275000005,"endTime":63.29578927500001,"instrument":2,"program":28,"isDrum":false},{"pitch":60,"velocity":100,"startTime":62.75221200000001,"endTime":63.71551350000001,"instrument":2,"program":28,"isDrum":false},{"pitch":55,"velocity":85,"startTime":63.020560275,"endTime":63.53661465000001,"instrument":2,"program":28,"isDrum":false},{"pitch":48,"velocity":94,"startTime":63.30267,"endTime":63.73156852500001,"instrument":2,"program":28,"isDrum":false},{"pitch":55,"velocity":72,"startTime":63.57101827500001,"endTime":64.052669025,"instrument":2,"program":28,"isDrum":false},{"pitch":50,"velocity":100,"startTime":63.85771515,"endTime":64.12147627500002,"instrument":2,"program":28,"isDrum":false},{"pitch":50,"velocity":108,"startTime":64.128357,"endTime":64.2659715,"instrument":2,"program":28,"isDrum":false},{"pitch":57,"velocity":89,"startTime":64.128357,"endTime":64.4494575,"instrument":2,"program":28,"isDrum":false},{"pitch":64,"velocity":103,"startTime":64.3852374,"endTime":65.40587827499999,"instrument":2,"program":28,"isDrum":false},{"pitch":50,"velocity":88,"startTime":64.392118125,"endTime":64.587072,"instrument":2,"program":28,"isDrum":false},{"pitch":57,"velocity":85,"startTime":64.67193427500001,"endTime":65.194869375,"instrument":2,"program":28,"isDrum":false},{"pitch":62,"velocity":101,"startTime":64.94257612499999,"endTime":65.95174912499999,"instrument":2,"program":28,"isDrum":false},{"pitch":50,"velocity":91,"startTime":64.94716327500001,"endTime":65.451749775,"instrument":2,"program":28,"isDrum":false},{"pitch":57,"velocity":100,"startTime":65.21780512499998,"endTime":65.69945587499998,"instrument":2,"program":28,"isDrum":false},{"pitch":50,"velocity":94,"startTime":65.497621275,"endTime":66.025143525,"instrument":2,"program":28,"isDrum":false},{"pitch":57,"velocity":81,"startTime":65.768263125,"endTime":66.06642787500002,"instrument":2,"program":28,"isDrum":false},{"pitch":50,"velocity":72,"startTime":66.0366114,"endTime":66.27284962499999,"instrument":2,"program":28,"isDrum":false},{"pitch":43,"velocity":72,"startTime":66.05496,"endTime":66.254501025,"instrument":2,"program":28,"isDrum":false},{"pitch":50,"velocity":101,"startTime":66.32330827500002,"endTime":66.80495902500002,"instrument":2,"program":28,"isDrum":false},{"pitch":43,"velocity":86,"startTime":66.33477615000001,"endTime":66.54807862500002,"instrument":2,"program":28,"isDrum":false},{"pitch":57,"velocity":100,"startTime":66.59853727500001,"endTime":67.35541702500001,"instrument":2,"program":28,"isDrum":false},{"pitch":43,"velocity":86,"startTime":66.61000515,"endTime":67.052665125,"instrument":2,"program":28,"isDrum":false},{"pitch":50,"velocity":88,"startTime":66.87376627500001,"endTime":67.5962424,"instrument":2,"program":28,"isDrum":false},{"pitch":43,"velocity":82,"startTime":67.14440812499998,"endTime":68.226975525,"instrument":2,"program":28,"isDrum":false},{"pitch":59,"velocity":103,"startTime":67.148995275,"endTime":68.30725065000001,"instrument":2,"program":28,"isDrum":false},{"pitch":57,"velocity":89,"startTime":67.4127564,"endTime":67.88982000000001,"instrument":2,"program":28,"isDrum":false},{"pitch":50,"velocity":99,"startTime":67.706334,"endTime":68.45633302500002,"instrument":2,"program":28,"isDrum":false},{"pitch":57,"velocity":72,"startTime":67.97468227500002,"endTime":68.74991062500001,"instrument":2,"program":28,"isDrum":false},{"pitch":43,"velocity":83,"startTime":68.24991127500002,"endTime":68.405874375,"instrument":2,"program":28,"isDrum":false},{"pitch":43,"velocity":103,"startTime":68.26137914999998,"endTime":68.80725000000001,"instrument":2,"program":28,"isDrum":false},{"pitch":50,"velocity":95,"startTime":68.53202100000001,"endTime":69.00679102500001,"instrument":2,"program":28,"isDrum":false},{"pitch":57,"velocity":108,"startTime":68.80036927500001,"endTime":69.56412975,"instrument":2,"program":28,"isDrum":false},{"pitch":43,"velocity":79,"startTime":68.80725000000001,"endTime":69.27743287499999,"instrument":2,"program":28,"isDrum":false},{"pitch":50,"velocity":78,"startTime":69.082479,"endTime":69.832478025,"instrument":2,"program":28,"isDrum":false},{"pitch":43,"velocity":79,"startTime":69.34624012500001,"endTime":70.428807525,"instrument":2,"program":28,"isDrum":false},{"pitch":59,"velocity":97,"startTime":69.357708,"endTime":70.54348627499999,"instrument":2,"program":28,"isDrum":false},{"pitch":57,"velocity":84,"startTime":69.626056275,"endTime":70.11458775,"instrument":2,"program":28,"isDrum":false},{"pitch":50,"velocity":76,"startTime":69.908166,"endTime":70.6879815,"instrument":2,"program":28,"isDrum":false},{"pitch":57,"velocity":72,"startTime":70.17651427500002,"endTime":70.94027474999999,"instrument":2,"program":28,"isDrum":false},{"pitch":43,"velocity":75,"startTime":70.45174327500001,"endTime":70.72697227500001,"instrument":2,"program":28,"isDrum":false},{"pitch":43,"velocity":103,"startTime":70.46321115,"endTime":71.009082,"instrument":2,"program":28,"isDrum":false},{"pitch":50,"velocity":95,"startTime":70.73385300000001,"endTime":71.20862302500001,"instrument":2,"program":28,"isDrum":false},{"pitch":57,"velocity":108,"startTime":71.002201275,"endTime":71.76596175,"instrument":2,"program":28,"isDrum":false},{"pitch":43,"velocity":79,"startTime":71.009082,"endTime":71.47926487499998,"instrument":2,"program":28,"isDrum":false},{"pitch":50,"velocity":78,"startTime":71.284311,"endTime":72.034310025,"instrument":2,"program":28,"isDrum":false},{"pitch":43,"velocity":79,"startTime":71.548072125,"endTime":72.63063952499999,"instrument":2,"program":28,"isDrum":false},{"pitch":59,"velocity":97,"startTime":71.55954,"endTime":72.74531827499999,"instrument":2,"program":28,"isDrum":false},{"pitch":57,"velocity":84,"startTime":71.82788827500002,"endTime":72.31641975,"instrument":2,"program":28,"isDrum":false},{"pitch":50,"velocity":76,"startTime":72.10999799999999,"endTime":72.8898135,"instrument":2,"program":28,"isDrum":false},{"pitch":57,"velocity":72,"startTime":72.37834627500001,"endTime":73.14210675000001,"instrument":2,"program":28,"isDrum":false},{"pitch":43,"velocity":75,"startTime":72.65357527500001,"endTime":72.928804275,"instrument":2,"program":28,"isDrum":false},{"pitch":50,"velocity":94,"startTime":72.935685,"endTime":73.40586787499998,"instrument":2,"program":28,"isDrum":false},{"pitch":43,"velocity":76,"startTime":72.94027215,"endTime":73.158161775,"instrument":2,"program":28,"isDrum":false},{"pitch":57,"velocity":93,"startTime":73.204033275,"endTime":73.956325875,"instrument":2,"program":28,"isDrum":false},{"pitch":43,"velocity":82,"startTime":73.21550115,"endTime":73.68109687500001,"instrument":2,"program":28,"isDrum":false},{"pitch":50,"velocity":74,"startTime":73.49073014999999,"endTime":74.23614202500002,"instrument":2,"program":28,"isDrum":false},{"pitch":43,"velocity":79,"startTime":73.75449127500002,"endTime":74.763664275,"instrument":2,"program":28,"isDrum":false},{"pitch":59,"velocity":84,"startTime":73.761372,"endTime":74.93568239999999,"instrument":2,"program":28,"isDrum":false},{"pitch":57,"velocity":72,"startTime":74.02972027500002,"endTime":74.52971962500001,"instrument":2,"program":28,"isDrum":false},{"pitch":50,"velocity":83,"startTime":74.31182999999999,"endTime":74.924214525,"instrument":2,"program":28,"isDrum":false},{"pitch":57,"velocity":80,"startTime":74.59164615,"endTime":75.0274254,"instrument":2,"program":28,"isDrum":false},{"pitch":40,"velocity":81,"startTime":74.85082012499998,"endTime":75.14210415,"instrument":2,"program":28,"isDrum":false},{"pitch":47,"velocity":96,"startTime":75.137517,"endTime":75.612287025,"instrument":2,"program":28,"isDrum":false},{"pitch":40,"velocity":87,"startTime":75.14210415,"endTime":75.35999377499999,"instrument":2,"program":28,"isDrum":false},{"pitch":54,"velocity":92,"startTime":75.405865275,"endTime":75.91045177500001,"instrument":2,"program":28,"isDrum":false},{"pitch":40,"velocity":76,"startTime":75.412746,"endTime":75.85311240000001,"instrument":2,"program":28,"isDrum":false},{"pitch":47,"velocity":83,"startTime":75.676507125,"endTime":75.97467187500001,"instrument":2,"program":28,"isDrum":false},{"pitch":55,"velocity":94,"startTime":75.96320399999999,"endTime":78.12375165,"instrument":2,"program":28,"isDrum":false},{"pitch":40,"velocity":81,"startTime":75.96320399999999,"endTime":77.02283565000002,"instrument":2,"program":28,"isDrum":false},{"pitch":54,"velocity":84,"startTime":76.23843299999999,"endTime":76.50678127500001,"instrument":2,"program":28,"isDrum":false},{"pitch":47,"velocity":84,"startTime":76.50678127500001,"endTime":77.2934775,"instrument":2,"program":28,"isDrum":false},{"pitch":54,"velocity":85,"startTime":76.782010275,"endTime":77.217789525,"instrument":2,"program":28,"isDrum":false},{"pitch":40,"velocity":82,"startTime":77.06412,"endTime":77.584761525,"instrument":2,"program":28,"isDrum":false},{"pitch":47,"velocity":93,"startTime":77.34393614999999,"endTime":77.84393549999999,"instrument":2,"program":28,"isDrum":false},{"pitch":54,"velocity":100,"startTime":77.614578,"endTime":78.387512775,"instrument":2,"program":28,"isDrum":false},{"pitch":40,"velocity":83,"startTime":77.61916514999999,"endTime":77.84393549999999,"instrument":2,"program":28,"isDrum":false},{"pitch":47,"velocity":97,"startTime":77.88980699999999,"endTime":78.63521887499999,"instrument":2,"program":28,"isDrum":false},{"pitch":40,"velocity":81,"startTime":78.16503599999999,"endTime":78.520540125,"instrument":2,"program":28,"isDrum":false},{"pitch":55,"velocity":102,"startTime":78.16962315,"endTime":79.419621525,"instrument":2,"program":28,"isDrum":false},{"pitch":54,"velocity":71,"startTime":78.44026500000001,"endTime":78.85310849999999,"instrument":2,"program":28,"isDrum":false},{"pitch":47,"velocity":81,"startTime":78.715494,"endTime":79.24301625000001,"instrument":2,"program":28,"isDrum":false},{"pitch":54,"velocity":82,"startTime":78.990723,"endTime":79.259071275,"instrument":2,"program":28,"isDrum":false},{"pitch":48,"velocity":79,"startTime":79.27053914999999,"endTime":79.45402515,"instrument":2,"program":28,"isDrum":false},{"pitch":55,"velocity":104,"startTime":79.53430027499999,"endTime":80.02741889999999,"instrument":2,"program":28,"isDrum":false},{"pitch":48,"velocity":91,"startTime":79.541181,"endTime":79.70631840000001,"instrument":2,"program":28,"isDrum":false},{"pitch":62,"velocity":103,"startTime":79.804942125,"endTime":80.8531059,"instrument":2,"program":28,"isDrum":false},{"pitch":48,"velocity":89,"startTime":79.81640999999999,"endTime":80.29118002500002,"instrument":2,"program":28,"isDrum":false},{"pitch":55,"velocity":93,"startTime":80.09622615,"endTime":80.589344775,"instrument":2,"program":28,"isDrum":false},{"pitch":48,"velocity":92,"startTime":80.35998727500001,"endTime":80.910445275,"instrument":2,"program":28,"isDrum":false},{"pitch":60,"velocity":100,"startTime":80.36686800000001,"endTime":81.33016950000001,"instrument":2,"program":28,"isDrum":false},{"pitch":55,"velocity":85,"startTime":80.635216275,"endTime":81.15127065000001,"instrument":2,"program":28,"isDrum":false},{"pitch":48,"velocity":94,"startTime":80.917326,"endTime":81.346224525,"instrument":2,"program":28,"isDrum":false},{"pitch":55,"velocity":72,"startTime":81.185674275,"endTime":81.667325025,"instrument":2,"program":28,"isDrum":false},{"pitch":50,"velocity":100,"startTime":81.47237114999999,"endTime":81.73613227500002,"instrument":2,"program":28,"isDrum":false},{"pitch":50,"velocity":108,"startTime":81.74301299999999,"endTime":81.8806275,"instrument":2,"program":28,"isDrum":false},{"pitch":57,"velocity":89,"startTime":81.74301299999999,"endTime":82.06411350000002,"instrument":2,"program":28,"isDrum":false},{"pitch":64,"velocity":103,"startTime":81.99989339999999,"endTime":83.02053427499999,"instrument":2,"program":28,"isDrum":false},{"pitch":50,"velocity":88,"startTime":82.00677412499999,"endTime":82.201728,"instrument":2,"program":28,"isDrum":false},{"pitch":57,"velocity":85,"startTime":82.28659027500001,"endTime":82.80952537499999,"instrument":2,"program":28,"isDrum":false},{"pitch":62,"velocity":101,"startTime":82.55723212499998,"endTime":83.56640512499999,"instrument":2,"program":28,"isDrum":false},{"pitch":50,"velocity":91,"startTime":82.561819275,"endTime":83.06640577499999,"instrument":2,"program":28,"isDrum":false},{"pitch":57,"velocity":100,"startTime":82.83246112500001,"endTime":83.31411187500001,"instrument":2,"program":28,"isDrum":false},{"pitch":50,"velocity":94,"startTime":83.112277275,"endTime":83.639799525,"instrument":2,"program":28,"isDrum":false},{"pitch":57,"velocity":81,"startTime":83.382919125,"endTime":83.68108387500001,"instrument":2,"program":28,"isDrum":false},{"pitch":50,"velocity":72,"startTime":83.6512674,"endTime":83.88750562500002,"instrument":2,"program":28,"isDrum":false},{"pitch":43,"velocity":72,"startTime":83.66961599999999,"endTime":83.86915702499999,"instrument":2,"program":28,"isDrum":false},{"pitch":50,"velocity":101,"startTime":83.93796427500001,"endTime":84.41961502500001,"instrument":2,"program":28,"isDrum":false},{"pitch":43,"velocity":86,"startTime":83.94943215,"endTime":84.16273462500001,"instrument":2,"program":28,"isDrum":false},{"pitch":57,"velocity":100,"startTime":84.21319327500001,"endTime":84.970073025,"instrument":2,"program":28,"isDrum":false},{"pitch":43,"velocity":86,"startTime":84.22466115,"endTime":84.667321125,"instrument":2,"program":28,"isDrum":false},{"pitch":50,"velocity":88,"startTime":84.488422275,"endTime":85.21089840000002,"instrument":2,"program":28,"isDrum":false},{"pitch":43,"velocity":82,"startTime":84.75906412500001,"endTime":85.841631525,"instrument":2,"program":28,"isDrum":false},{"pitch":59,"velocity":103,"startTime":84.763651275,"endTime":85.92190665000001,"instrument":2,"program":28,"isDrum":false},{"pitch":57,"velocity":89,"startTime":85.0274124,"endTime":85.50447600000001,"instrument":2,"program":28,"isDrum":false},{"pitch":50,"velocity":99,"startTime":85.32099,"endTime":86.07098902500002,"instrument":2,"program":28,"isDrum":false},{"pitch":57,"velocity":72,"startTime":85.58933827500002,"endTime":86.36456662500001,"instrument":2,"program":28,"isDrum":false},{"pitch":43,"velocity":83,"startTime":85.86456727500001,"endTime":86.02053037499999,"instrument":2,"program":28,"isDrum":false},{"pitch":43,"velocity":103,"startTime":85.87603515,"endTime":86.421906,"instrument":2,"program":28,"isDrum":false},{"pitch":50,"velocity":95,"startTime":86.14667700000001,"endTime":86.62144702500001,"instrument":2,"program":28,"isDrum":false},{"pitch":57,"velocity":108,"startTime":86.415025275,"endTime":87.17878575,"instrument":2,"program":28,"isDrum":false},{"pitch":43,"velocity":79,"startTime":86.421906,"endTime":86.89208887499998,"instrument":2,"program":28,"isDrum":false},{"pitch":50,"velocity":78,"startTime":86.697135,"endTime":87.447134025,"instrument":2,"program":28,"isDrum":false},{"pitch":43,"velocity":79,"startTime":86.960896125,"endTime":88.04346352499999,"instrument":2,"program":28,"isDrum":false},{"pitch":59,"velocity":97,"startTime":86.972364,"endTime":88.15814227499999,"instrument":2,"program":28,"isDrum":false},{"pitch":57,"velocity":84,"startTime":87.24071227499999,"endTime":87.72924375,"instrument":2,"program":28,"isDrum":false},{"pitch":50,"velocity":76,"startTime":87.52282199999999,"endTime":88.3026375,"instrument":2,"program":28,"isDrum":false},{"pitch":57,"velocity":72,"startTime":87.79117027500001,"endTime":88.55493075000001,"instrument":2,"program":28,"isDrum":false},{"pitch":43,"velocity":75,"startTime":88.06639927500001,"endTime":88.341628275,"instrument":2,"program":28,"isDrum":false},{"pitch":43,"velocity":103,"startTime":88.07786715,"endTime":88.623738,"instrument":2,"program":28,"isDrum":false},{"pitch":50,"velocity":95,"startTime":88.348509,"endTime":88.823279025,"instrument":2,"program":28,"isDrum":false},{"pitch":57,"velocity":108,"startTime":88.616857275,"endTime":89.38061775,"instrument":2,"program":28,"isDrum":false},{"pitch":43,"velocity":79,"startTime":88.623738,"endTime":89.09392087500001,"instrument":2,"program":28,"isDrum":false},{"pitch":50,"velocity":78,"startTime":88.898967,"endTime":89.648966025,"instrument":2,"program":28,"isDrum":false},{"pitch":43,"velocity":79,"startTime":89.162728125,"endTime":90.24529552499999,"instrument":2,"program":28,"isDrum":false},{"pitch":59,"velocity":97,"startTime":89.174196,"endTime":90.35997427500001,"instrument":2,"program":28,"isDrum":false},{"pitch":57,"velocity":84,"startTime":89.44254427500002,"endTime":89.93107574999999,"instrument":2,"program":28,"isDrum":false},{"pitch":50,"velocity":76,"startTime":89.72465399999999,"endTime":90.5044695,"instrument":2,"program":28,"isDrum":false},{"pitch":57,"velocity":72,"startTime":89.99300227500001,"endTime":90.75676275000001,"instrument":2,"program":28,"isDrum":false},{"pitch":43,"velocity":75,"startTime":90.268231275,"endTime":90.543460275,"instrument":2,"program":28,"isDrum":false},{"pitch":50,"velocity":94,"startTime":90.550341,"endTime":91.02052387500001,"instrument":2,"program":28,"isDrum":false},{"pitch":43,"velocity":76,"startTime":90.55492815,"endTime":90.772817775,"instrument":2,"program":28,"isDrum":false},{"pitch":57,"velocity":93,"startTime":90.818689275,"endTime":91.570981875,"instrument":2,"program":28,"isDrum":false},{"pitch":43,"velocity":82,"startTime":90.83015714999999,"endTime":91.295752875,"instrument":2,"program":28,"isDrum":false},{"pitch":50,"velocity":74,"startTime":91.10538614999999,"endTime":91.85079802500002,"instrument":2,"program":28,"isDrum":false},{"pitch":43,"velocity":79,"startTime":91.36914727500002,"endTime":92.378320275,"instrument":2,"program":28,"isDrum":false},{"pitch":59,"velocity":84,"startTime":91.37602799999999,"endTime":92.55033839999999,"instrument":2,"program":28,"isDrum":false},{"pitch":57,"velocity":72,"startTime":91.64437627500001,"endTime":92.14437562500001,"instrument":2,"program":28,"isDrum":false},{"pitch":50,"velocity":83,"startTime":91.92648600000001,"endTime":92.538870525,"instrument":2,"program":28,"isDrum":false},{"pitch":57,"velocity":80,"startTime":92.20630215,"endTime":92.6420814,"instrument":2,"program":28,"isDrum":false},{"pitch":40,"velocity":81,"startTime":92.46547612500001,"endTime":92.75676014999999,"instrument":2,"program":28,"isDrum":false},{"pitch":47,"velocity":96,"startTime":92.752173,"endTime":93.22694302500003,"instrument":2,"program":28,"isDrum":false},{"pitch":40,"velocity":87,"startTime":92.75676014999999,"endTime":92.97464977500002,"instrument":2,"program":28,"isDrum":false},{"pitch":54,"velocity":92,"startTime":93.02052127500002,"endTime":93.52510777500001,"instrument":2,"program":28,"isDrum":false},{"pitch":40,"velocity":76,"startTime":93.027402,"endTime":93.46776840000001,"instrument":2,"program":28,"isDrum":false},{"pitch":47,"velocity":83,"startTime":93.291163125,"endTime":93.58932787500001,"instrument":2,"program":28,"isDrum":false},{"pitch":55,"velocity":94,"startTime":93.57786000000002,"endTime":95.73840765000003,"instrument":2,"program":28,"isDrum":false},{"pitch":40,"velocity":81,"startTime":93.57786000000002,"endTime":94.63749165000002,"instrument":2,"program":28,"isDrum":false},{"pitch":54,"velocity":84,"startTime":93.85308900000001,"endTime":94.121437275,"instrument":2,"program":28,"isDrum":false},{"pitch":47,"velocity":84,"startTime":94.121437275,"endTime":94.90813349999999,"instrument":2,"program":28,"isDrum":false},{"pitch":54,"velocity":85,"startTime":94.396666275,"endTime":94.832445525,"instrument":2,"program":28,"isDrum":false},{"pitch":40,"velocity":82,"startTime":94.678776,"endTime":95.199417525,"instrument":2,"program":28,"isDrum":false},{"pitch":47,"velocity":93,"startTime":94.95859215000002,"endTime":95.45859150000001,"instrument":2,"program":28,"isDrum":false},{"pitch":54,"velocity":100,"startTime":95.22923400000002,"endTime":96.002168775,"instrument":2,"program":28,"isDrum":false},{"pitch":40,"velocity":83,"startTime":95.23382115000001,"endTime":95.45859150000001,"instrument":2,"program":28,"isDrum":false},{"pitch":47,"velocity":97,"startTime":95.50446300000002,"endTime":96.24987487499999,"instrument":2,"program":28,"isDrum":false},{"pitch":40,"velocity":81,"startTime":95.77969200000001,"endTime":96.13519612500002,"instrument":2,"program":28,"isDrum":false},{"pitch":55,"velocity":102,"startTime":95.78427915,"endTime":97.03427752500002,"instrument":2,"program":28,"isDrum":false},{"pitch":54,"velocity":71,"startTime":96.05492100000001,"endTime":96.46776450000002,"instrument":2,"program":28,"isDrum":false},{"pitch":47,"velocity":81,"startTime":96.33015,"endTime":96.85767225000001,"instrument":2,"program":28,"isDrum":false},{"pitch":54,"velocity":82,"startTime":96.605379,"endTime":96.87372727500002,"instrument":2,"program":28,"isDrum":false},{"pitch":48,"velocity":79,"startTime":96.88519515000002,"endTime":97.06868115,"instrument":2,"program":28,"isDrum":false},{"pitch":55,"velocity":104,"startTime":97.14895627500002,"endTime":97.64207490000001,"instrument":2,"program":28,"isDrum":false},{"pitch":48,"velocity":91,"startTime":97.15583700000002,"endTime":97.32097440000001,"instrument":2,"program":28,"isDrum":false},{"pitch":62,"velocity":103,"startTime":97.419598125,"endTime":98.4677619,"instrument":2,"program":28,"isDrum":false},{"pitch":48,"velocity":89,"startTime":97.43106600000002,"endTime":97.90583602500001,"instrument":2,"program":28,"isDrum":false},{"pitch":55,"velocity":93,"startTime":97.71088215,"endTime":98.204000775,"instrument":2,"program":28,"isDrum":false},{"pitch":48,"velocity":92,"startTime":97.974643275,"endTime":98.52510127500003,"instrument":2,"program":28,"isDrum":false},{"pitch":60,"velocity":100,"startTime":97.98152400000001,"endTime":98.94482550000001,"instrument":2,"program":28,"isDrum":false},{"pitch":55,"velocity":85,"startTime":98.249872275,"endTime":98.76592665000001,"instrument":2,"program":28,"isDrum":false},{"pitch":48,"velocity":94,"startTime":98.531982,"endTime":98.96088052500002,"instrument":2,"program":28,"isDrum":false},{"pitch":55,"velocity":72,"startTime":98.80033027500002,"endTime":99.28198102500002,"instrument":2,"program":28,"isDrum":false},{"pitch":50,"velocity":100,"startTime":99.08702715000001,"endTime":99.35078827500001,"instrument":2,"program":28,"isDrum":false},{"pitch":50,"velocity":108,"startTime":99.35766900000002,"endTime":99.4952835,"instrument":2,"program":28,"isDrum":false},{"pitch":57,"velocity":89,"startTime":99.35766900000002,"endTime":99.67876950000002,"instrument":2,"program":28,"isDrum":false},{"pitch":64,"velocity":103,"startTime":99.61454940000002,"endTime":100.63519027500001,"instrument":2,"program":28,"isDrum":false},{"pitch":50,"velocity":88,"startTime":99.62143012499999,"endTime":99.816384,"instrument":2,"program":28,"isDrum":false},{"pitch":57,"velocity":85,"startTime":99.901246275,"endTime":100.42418137500002,"instrument":2,"program":28,"isDrum":false},{"pitch":62,"velocity":101,"startTime":100.17188812500001,"endTime":101.18106112500001,"instrument":2,"program":28,"isDrum":false},{"pitch":50,"velocity":91,"startTime":100.176475275,"endTime":100.68106177500002,"instrument":2,"program":28,"isDrum":false},{"pitch":57,"velocity":100,"startTime":100.447117125,"endTime":100.928767875,"instrument":2,"program":28,"isDrum":false},{"pitch":50,"velocity":94,"startTime":100.72693327500002,"endTime":101.254455525,"instrument":2,"program":28,"isDrum":false},{"pitch":57,"velocity":81,"startTime":100.997575125,"endTime":101.29573987500001,"instrument":2,"program":28,"isDrum":false},{"pitch":50,"velocity":72,"startTime":101.26592340000002,"endTime":101.50216162500001,"instrument":2,"program":28,"isDrum":false},{"pitch":43,"velocity":72,"startTime":101.28427200000002,"endTime":101.48381302500002,"instrument":2,"program":28,"isDrum":false},{"pitch":50,"velocity":101,"startTime":101.55262027500001,"endTime":102.03427102500001,"instrument":2,"program":28,"isDrum":false},{"pitch":43,"velocity":86,"startTime":101.56408815,"endTime":101.77739062500001,"instrument":2,"program":28,"isDrum":false},{"pitch":57,"velocity":100,"startTime":101.827849275,"endTime":102.584729025,"instrument":2,"program":28,"isDrum":false},{"pitch":43,"velocity":86,"startTime":101.83931715,"endTime":102.281977125,"instrument":2,"program":28,"isDrum":false},{"pitch":50,"velocity":88,"startTime":102.103078275,"endTime":102.82555440000002,"instrument":2,"program":28,"isDrum":false},{"pitch":43,"velocity":82,"startTime":102.373720125,"endTime":103.456287525,"instrument":2,"program":28,"isDrum":false},{"pitch":59,"velocity":103,"startTime":102.37830727500003,"endTime":103.53656265000001,"instrument":2,"program":28,"isDrum":false},{"pitch":57,"velocity":89,"startTime":102.6420684,"endTime":103.11913200000001,"instrument":2,"program":28,"isDrum":false},{"pitch":50,"velocity":99,"startTime":102.93564600000002,"endTime":103.68564502500001,"instrument":2,"program":28,"isDrum":false},{"pitch":57,"velocity":72,"startTime":103.20399427500001,"endTime":103.979222625,"instrument":2,"program":28,"isDrum":false},{"pitch":43,"velocity":83,"startTime":103.47922327500001,"endTime":103.63518637500002,"instrument":2,"program":28,"isDrum":false},{"pitch":43,"velocity":90,"startTime":103.754452275,"endTime":103.915002525,"instrument":2,"program":28,"isDrum":false},{"pitch":50,"velocity":97,"startTime":103.76133300000001,"endTime":104.16729577500001,"instrument":2,"program":28,"isDrum":false},{"pitch":57,"velocity":103,"startTime":104.029681275,"endTime":104.77509315,"instrument":2,"program":28,"isDrum":false},{"pitch":43,"velocity":86,"startTime":104.04114915,"endTime":104.49527700000002,"instrument":2,"program":28,"isDrum":false},{"pitch":50,"velocity":89,"startTime":104.311791,"endTime":105.06179002500002,"instrument":2,"program":28,"isDrum":false},{"pitch":59,"velocity":103,"startTime":104.575552125,"endTime":105.71545890000002,"instrument":2,"program":28,"isDrum":false},{"pitch":43,"velocity":75,"startTime":104.58702,"endTime":105.5319729,"instrument":2,"program":28,"isDrum":false},{"pitch":57,"velocity":89,"startTime":104.85536827500002,"endTime":105.33701902500002,"instrument":2,"program":28,"isDrum":false},{"pitch":50,"velocity":100,"startTime":105.14206515000001,"endTime":105.84848625000001,"instrument":2,"program":28,"isDrum":false},{"pitch":57,"velocity":72,"startTime":105.41729415,"endTime":106.19252250000002,"instrument":2,"program":28,"isDrum":false},{"pitch":43,"velocity":81,"startTime":105.69252315,"endTime":105.72233962500002,"instrument":2,"program":28,"isDrum":false},{"pitch":50,"velocity":96,"startTime":105.963165,"endTime":106.4494029,"instrument":2,"program":28,"isDrum":false},{"pitch":43,"velocity":80,"startTime":105.963165,"endTime":106.135183125,"instrument":2,"program":28,"isDrum":false},{"pitch":57,"velocity":92,"startTime":106.238394,"endTime":106.98380587500003,"instrument":2,"program":28,"isDrum":false},{"pitch":43,"velocity":82,"startTime":106.24298114999999,"endTime":106.68564112500002,"instrument":2,"program":28,"isDrum":false},{"pitch":50,"velocity":77,"startTime":106.51821015000002,"endTime":107.22463125000002,"instrument":2,"program":28,"isDrum":false},{"pitch":59,"velocity":99,"startTime":106.78885200000002,"endTime":107.80261214999999,"instrument":2,"program":28,"isDrum":false},{"pitch":43,"velocity":76,"startTime":106.79343915000001,"endTime":107.84389650000003,"instrument":2,"program":28,"isDrum":false},{"pitch":57,"velocity":86,"startTime":107.05720027500001,"endTime":107.511328125,"instrument":2,"program":28,"isDrum":false},{"pitch":50,"velocity":91,"startTime":107.33931000000001,"endTime":108.089309025,"instrument":2,"program":28,"isDrum":false},{"pitch":57,"velocity":86,"startTime":107.61912615,"endTime":108.3760059,"instrument":2,"program":28,"isDrum":false},{"pitch":43,"velocity":88,"startTime":107.882887275,"endTime":108.05490540000002,"instrument":2,"program":28,"isDrum":false},{"pitch":50,"velocity":98,"startTime":108.164997,"endTime":108.65123489999999,"instrument":2,"program":28,"isDrum":false},{"pitch":43,"velocity":89,"startTime":108.16958414999999,"endTime":108.39894165000001,"instrument":2,"program":28,"isDrum":false},{"pitch":57,"velocity":105,"startTime":108.440226,"endTime":109.19022502500002,"instrument":2,"program":28,"isDrum":false},{"pitch":43,"velocity":79,"startTime":108.440226,"endTime":108.88059240000001,"instrument":2,"program":28,"isDrum":false},{"pitch":50,"velocity":94,"startTime":108.71545500000002,"endTime":109.442518275,"instrument":2,"program":28,"isDrum":false},{"pitch":43,"velocity":78,"startTime":108.99527115000001,"endTime":110.10765502499999,"instrument":2,"program":28,"isDrum":false},{"pitch":59,"velocity":79,"startTime":108.99527115000001,"endTime":109.94251762500002,"instrument":2,"program":28,"isDrum":false},{"pitch":57,"velocity":88,"startTime":109.25903227500001,"endTime":109.72921514999999,"instrument":2,"program":28,"isDrum":false},{"pitch":50,"velocity":105,"startTime":109.54114200000001,"endTime":110.194810875,"instrument":2,"program":28,"isDrum":false},{"pitch":57,"velocity":92,"startTime":109.816371,"endTime":110.27508599999999,"instrument":2,"program":28,"isDrum":false},{"pitch":40,"velocity":96,"startTime":110.08471927500003,"endTime":110.291141025,"instrument":2,"program":28,"isDrum":false},{"pitch":40,"velocity":93,"startTime":110.35536112500003,"endTime":110.584718625,"instrument":2,"program":28,"isDrum":false},{"pitch":47,"velocity":77,"startTime":110.366829,"endTime":110.83701187500003,"instrument":2,"program":28,"isDrum":false},{"pitch":54,"velocity":104,"startTime":110.63517727500002,"endTime":111.39893775000002,"instrument":2,"program":28,"isDrum":false},{"pitch":40,"velocity":83,"startTime":110.63517727500002,"endTime":111.139763775,"instrument":2,"program":28,"isDrum":false},{"pitch":47,"velocity":91,"startTime":110.90581912500002,"endTime":111.65581814999999,"instrument":2,"program":28,"isDrum":false},{"pitch":55,"velocity":105,"startTime":111.19251600000001,"endTime":112.217744025,"instrument":2,"program":28,"isDrum":false},{"pitch":40,"velocity":84,"startTime":111.19251600000001,"endTime":112.2750834,"instrument":2,"program":28,"isDrum":false},{"pitch":54,"velocity":88,"startTime":111.46774500000001,"endTime":111.94939575000001,"instrument":2,"program":28,"isDrum":false},{"pitch":47,"velocity":94,"startTime":111.74756115,"endTime":112.45856940000002,"instrument":2,"program":28,"isDrum":false},{"pitch":54,"velocity":82,"startTime":112.01132227500003,"endTime":112.76361487500003,"instrument":2,"program":28,"isDrum":false},{"pitch":40,"velocity":86,"startTime":112.29801915000002,"endTime":112.47691799999998,"instrument":2,"program":28,"isDrum":false},{"pitch":40,"velocity":88,"startTime":112.56178027500002,"endTime":112.78655062499999,"instrument":2,"program":28,"isDrum":false},{"pitch":47,"velocity":96,"startTime":112.56178027500002,"endTime":113.020495275,"instrument":2,"program":28,"isDrum":false},{"pitch":54,"velocity":101,"startTime":112.82095425,"endTime":113.58242114999999,"instrument":2,"program":28,"isDrum":false},{"pitch":40,"velocity":84,"startTime":112.83700927500001,"endTime":113.32554075000002,"instrument":2,"program":28,"isDrum":false},{"pitch":47,"velocity":98,"startTime":113.11911900000001,"endTime":113.85765014999998,"instrument":2,"program":28,"isDrum":false},{"pitch":55,"velocity":106,"startTime":113.39434800000001,"endTime":114.65581425000002,"instrument":2,"program":28,"isDrum":false},{"pitch":40,"velocity":80,"startTime":113.39434800000001,"endTime":114.373704525,"instrument":2,"program":28,"isDrum":false},{"pitch":54,"velocity":101,"startTime":113.662696275,"endTime":114.10535625000003,"instrument":2,"program":28,"isDrum":false},{"pitch":47,"velocity":96,"startTime":113.933338125,"endTime":114.369117375,"instrument":2,"program":28,"isDrum":false},{"pitch":54,"velocity":90,"startTime":114.21315427500002,"endTime":114.465447525,"instrument":2,"program":28,"isDrum":false},{"pitch":48,"velocity":105,"startTime":114.48838327500002,"endTime":114.66040140000001,"instrument":2,"program":28,"isDrum":false},{"pitch":48,"velocity":84,"startTime":114.76361227500001,"endTime":114.97003402500002,"instrument":2,"program":28,"isDrum":false},{"pitch":55,"velocity":104,"startTime":114.77049300000002,"endTime":115.24067587500002,"instrument":2,"program":28,"isDrum":false},{"pitch":48,"velocity":96,"startTime":115.02737339999999,"endTime":115.492969125,"instrument":2,"program":28,"isDrum":false},{"pitch":62,"velocity":104,"startTime":115.03884127500001,"endTime":115.61223502499999,"instrument":2,"program":28,"isDrum":false},{"pitch":55,"velocity":90,"startTime":115.314070275,"endTime":115.86452827500003,"instrument":2,"program":28,"isDrum":false},{"pitch":60,"velocity":102,"startTime":115.57783139999998,"endTime":116.58241725000002,"instrument":2,"program":28,"isDrum":false},{"pitch":48,"velocity":86,"startTime":115.589299275,"endTime":116.13975727500002,"instrument":2,"program":28,"isDrum":false},{"pitch":55,"velocity":100,"startTime":115.871409,"endTime":116.10535365000001,"instrument":2,"program":28,"isDrum":false},{"pitch":48,"velocity":84,"startTime":116.146638,"endTime":116.61682087500003,"instrument":2,"program":28,"isDrum":false},{"pitch":55,"velocity":92,"startTime":116.41039912500003,"endTime":116.86911412500001,"instrument":2,"program":28,"isDrum":false},{"pitch":50,"velocity":108,"startTime":116.69021527500001,"endTime":116.873701275,"instrument":2,"program":28,"isDrum":false},{"pitch":50,"velocity":96,"startTime":116.97232500000001,"endTime":117.76819552500001,"instrument":2,"program":28,"isDrum":false},{"pitch":57,"velocity":89,"startTime":116.97232500000001,"endTime":117.419572125,"instrument":2,"program":28,"isDrum":false},{"pitch":64,"velocity":106,"startTime":117.240673275,"endTime":118.54801102500002,"instrument":2,"program":28,"isDrum":false},{"pitch":57,"velocity":88,"startTime":117.515902275,"endTime":118.06636027500002,"instrument":2,"program":28,"isDrum":false},{"pitch":62,"velocity":104,"startTime":117.80259914999999,"endTime":118.31406637500001,"instrument":2,"program":28,"isDrum":false},{"pitch":50,"velocity":86,"startTime":117.809479875,"endTime":118.34158927500002,"instrument":2,"program":28,"isDrum":false},{"pitch":57,"velocity":88,"startTime":118.07782815000002,"endTime":118.57094677499998,"instrument":2,"program":28,"isDrum":false},{"pitch":50,"velocity":100,"startTime":118.34847000000002,"endTime":118.81865287500003,"instrument":2,"program":28,"isDrum":false},{"pitch":57,"velocity":81,"startTime":118.62828615000001,"endTime":118.95626737500001,"instrument":2,"program":28,"isDrum":false},{"pitch":43,"velocity":87,"startTime":118.89204727500001,"endTime":119.09388187500002,"instrument":2,"program":28,"isDrum":false},{"pitch":50,"velocity":99,"startTime":119.17415700000001,"endTime":119.648927025,"instrument":2,"program":28,"isDrum":false},{"pitch":43,"velocity":86,"startTime":119.17874415,"endTime":119.396633775,"instrument":2,"program":28,"isDrum":false},{"pitch":57,"velocity":104,"startTime":119.442505275,"endTime":120.21085289999999,"instrument":2,"program":28,"isDrum":false},{"pitch":43,"velocity":83,"startTime":119.449386,"endTime":119.95397250000002,"instrument":2,"program":28,"isDrum":false},{"pitch":50,"velocity":109,"startTime":119.71773427500003,"endTime":120.47002687500003,"instrument":2,"program":28,"isDrum":false},{"pitch":59,"velocity":104,"startTime":119.99296327500002,"endTime":121.02507202500001,"instrument":2,"program":28,"isDrum":false},{"pitch":43,"velocity":68,"startTime":119.999844,"endTime":121.07782424999999,"instrument":2,"program":28,"isDrum":false},{"pitch":57,"velocity":91,"startTime":120.27507300000002,"endTime":120.74525587500003,"instrument":2,"program":28,"isDrum":false},{"pitch":50,"velocity":108,"startTime":120.54342127500001,"endTime":121.30718175000001,"instrument":2,"program":28,"isDrum":false},{"pitch":57,"velocity":84,"startTime":120.82553100000001,"endTime":121.12369575000002,"instrument":2,"program":28,"isDrum":false},{"pitch":43,"velocity":78,"startTime":121.10534715,"endTime":121.3117689,"instrument":2,"program":28,"isDrum":false},{"pitch":50,"velocity":107,"startTime":121.375989,"endTime":121.84617187500001,"instrument":2,"program":28,"isDrum":false},{"pitch":43,"velocity":90,"startTime":121.375989,"endTime":121.58241075000001,"instrument":2,"program":28,"isDrum":false},{"pitch":57,"velocity":92,"startTime":121.64433727500003,"endTime":122.40121702500002,"instrument":2,"program":28,"isDrum":false},{"pitch":43,"velocity":84,"startTime":121.651218,"endTime":122.14892377499999,"instrument":2,"program":28,"isDrum":false},{"pitch":50,"velocity":103,"startTime":121.926447,"endTime":122.67644602500002,"instrument":2,"program":28,"isDrum":false},{"pitch":43,"velocity":84,"startTime":122.20167600000002,"endTime":123.1925004,"instrument":2,"program":28,"isDrum":false},{"pitch":59,"velocity":108,"startTime":122.20167600000002,"endTime":122.47002427500001,"instrument":2,"program":28,"isDrum":false},{"pitch":57,"velocity":101,"startTime":122.47690500000002,"endTime":123.00901439999998,"instrument":2,"program":28,"isDrum":false},{"pitch":50,"velocity":94,"startTime":122.75213400000001,"endTime":123.25672050000003,"instrument":2,"program":28,"isDrum":false},{"pitch":57,"velocity":85,"startTime":123.020482275,"endTime":123.295711275,"instrument":2,"program":28,"isDrum":false},{"pitch":43,"velocity":103,"startTime":123.30717915,"endTime":123.85305,"instrument":2,"program":28,"isDrum":false},{"pitch":50,"velocity":95,"startTime":123.577821,"endTime":124.05259102500003,"instrument":2,"program":28,"isDrum":false},{"pitch":57,"velocity":108,"startTime":123.84616927500002,"endTime":124.60992975000002,"instrument":2,"program":28,"isDrum":false},{"pitch":43,"velocity":79,"startTime":123.85305,"endTime":124.32323287500003,"instrument":2,"program":28,"isDrum":false},{"pitch":50,"velocity":78,"startTime":124.12827900000002,"endTime":124.87827802500001,"instrument":2,"program":28,"isDrum":false},{"pitch":43,"velocity":79,"startTime":124.39204012500002,"endTime":125.47460752500001,"instrument":2,"program":28,"isDrum":false},{"pitch":59,"velocity":97,"startTime":124.40350800000002,"endTime":125.589286275,"instrument":2,"program":28,"isDrum":false},{"pitch":57,"velocity":84,"startTime":124.67185627500001,"endTime":125.16038775000001,"instrument":2,"program":28,"isDrum":false},{"pitch":50,"velocity":76,"startTime":124.95396600000001,"endTime":125.73378150000002,"instrument":2,"program":28,"isDrum":false},{"pitch":57,"velocity":72,"startTime":125.222314275,"endTime":125.98607475,"instrument":2,"program":28,"isDrum":false},{"pitch":43,"velocity":75,"startTime":125.49754327500003,"endTime":125.77277227500002,"instrument":2,"program":28,"isDrum":false},{"pitch":50,"velocity":94,"startTime":125.779653,"endTime":126.24983587500003,"instrument":2,"program":28,"isDrum":false},{"pitch":43,"velocity":76,"startTime":125.78424015000002,"endTime":126.00212977499999,"instrument":2,"program":28,"isDrum":false},{"pitch":57,"velocity":93,"startTime":126.04800127500002,"endTime":126.80029387500002,"instrument":2,"program":28,"isDrum":false},{"pitch":43,"velocity":82,"startTime":126.05946915000001,"endTime":126.52506487500003,"instrument":2,"program":28,"isDrum":false},{"pitch":50,"velocity":74,"startTime":126.33469815000001,"endTime":127.08011002500001,"instrument":2,"program":28,"isDrum":false},{"pitch":43,"velocity":79,"startTime":126.59845927500001,"endTime":127.60763227500001,"instrument":2,"program":28,"isDrum":false},{"pitch":59,"velocity":84,"startTime":126.60534000000001,"endTime":127.77965040000001,"instrument":2,"program":28,"isDrum":false},{"pitch":57,"velocity":72,"startTime":126.873688275,"endTime":127.373687625,"instrument":2,"program":28,"isDrum":false},{"pitch":50,"velocity":83,"startTime":127.155798,"endTime":127.76818252500001,"instrument":2,"program":28,"isDrum":false},{"pitch":57,"velocity":80,"startTime":127.43561414999999,"endTime":127.87139340000002,"instrument":2,"program":28,"isDrum":false},{"pitch":40,"velocity":81,"startTime":127.69478812500003,"endTime":127.98607215000001,"instrument":2,"program":28,"isDrum":false},{"pitch":47,"velocity":96,"startTime":127.98148500000002,"endTime":128.45625502500002,"instrument":2,"program":28,"isDrum":false},{"pitch":40,"velocity":87,"startTime":127.98607215000001,"endTime":128.20396177499998,"instrument":2,"program":28,"isDrum":false},{"pitch":54,"velocity":92,"startTime":128.24983327500001,"endTime":128.754419775,"instrument":2,"program":28,"isDrum":false},{"pitch":40,"velocity":76,"startTime":128.25671400000002,"endTime":128.6970804,"instrument":2,"program":28,"isDrum":false},{"pitch":47,"velocity":83,"startTime":128.52047512500002,"endTime":128.818639875,"instrument":2,"program":28,"isDrum":false},{"pitch":55,"velocity":94,"startTime":128.807172,"endTime":130.96771965000002,"instrument":2,"program":28,"isDrum":false},{"pitch":40,"velocity":81,"startTime":128.807172,"endTime":129.86680365,"instrument":2,"program":28,"isDrum":false},{"pitch":54,"velocity":84,"startTime":129.082401,"endTime":129.35074927500003,"instrument":2,"program":28,"isDrum":false},{"pitch":47,"velocity":84,"startTime":129.35074927500003,"endTime":130.1374455,"instrument":2,"program":28,"isDrum":false},{"pitch":54,"velocity":85,"startTime":129.62597827500002,"endTime":130.061757525,"instrument":2,"program":28,"isDrum":false},{"pitch":40,"velocity":82,"startTime":129.90808800000002,"endTime":130.428729525,"instrument":2,"program":28,"isDrum":false},{"pitch":47,"velocity":93,"startTime":130.18790415,"endTime":130.6879035,"instrument":2,"program":28,"isDrum":false},{"pitch":54,"velocity":100,"startTime":130.458546,"endTime":131.231480775,"instrument":2,"program":28,"isDrum":false},{"pitch":40,"velocity":83,"startTime":130.46313315,"endTime":130.6879035,"instrument":2,"program":28,"isDrum":false},{"pitch":47,"velocity":97,"startTime":130.733775,"endTime":131.479186875,"instrument":2,"program":28,"isDrum":false},{"pitch":40,"velocity":81,"startTime":131.009004,"endTime":131.364508125,"instrument":2,"program":28,"isDrum":false},{"pitch":55,"velocity":102,"startTime":131.01359115,"endTime":132.263589525,"instrument":2,"program":28,"isDrum":false},{"pitch":54,"velocity":71,"startTime":131.284233,"endTime":131.6970765,"instrument":2,"program":28,"isDrum":false},{"pitch":47,"velocity":81,"startTime":131.559462,"endTime":132.08698425,"instrument":2,"program":28,"isDrum":false},{"pitch":54,"velocity":82,"startTime":131.83469100000002,"endTime":132.10303927500001,"instrument":2,"program":28,"isDrum":false},{"pitch":48,"velocity":79,"startTime":132.11450715,"endTime":132.29799315,"instrument":2,"program":28,"isDrum":false},{"pitch":55,"velocity":104,"startTime":132.378268275,"endTime":132.8713869,"instrument":2,"program":28,"isDrum":false},{"pitch":48,"velocity":91,"startTime":132.385149,"endTime":132.5502864,"instrument":2,"program":28,"isDrum":false},{"pitch":62,"velocity":103,"startTime":132.64891012500001,"endTime":133.6970739,"instrument":2,"program":28,"isDrum":false},{"pitch":48,"velocity":89,"startTime":132.660378,"endTime":133.135148025,"instrument":2,"program":28,"isDrum":false},{"pitch":55,"velocity":93,"startTime":132.94019415,"endTime":133.433312775,"instrument":2,"program":28,"isDrum":false},{"pitch":48,"velocity":92,"startTime":133.20395527500003,"endTime":133.75441327500002,"instrument":2,"program":28,"isDrum":false},{"pitch":60,"velocity":100,"startTime":133.210836,"endTime":134.1741375,"instrument":2,"program":28,"isDrum":false},{"pitch":55,"velocity":85,"startTime":133.47918427500002,"endTime":133.99523865,"instrument":2,"program":28,"isDrum":false},{"pitch":48,"velocity":94,"startTime":133.76129400000002,"endTime":134.190192525,"instrument":2,"program":28,"isDrum":false},{"pitch":55,"velocity":72,"startTime":134.02964227500001,"endTime":134.51129302500001,"instrument":2,"program":28,"isDrum":false},{"pitch":50,"velocity":100,"startTime":134.31633915,"endTime":134.580100275,"instrument":2,"program":28,"isDrum":false},{"pitch":50,"velocity":108,"startTime":134.586981,"endTime":134.72459550000002,"instrument":2,"program":28,"isDrum":false},{"pitch":57,"velocity":89,"startTime":134.586981,"endTime":134.9080815,"instrument":2,"program":28,"isDrum":false},{"pitch":64,"velocity":103,"startTime":134.84386139999998,"endTime":135.864502275,"instrument":2,"program":28,"isDrum":false},{"pitch":50,"velocity":88,"startTime":134.850742125,"endTime":135.045696,"instrument":2,"program":28,"isDrum":false},{"pitch":57,"velocity":85,"startTime":135.13055827500003,"endTime":135.653493375,"instrument":2,"program":28,"isDrum":false},{"pitch":62,"velocity":101,"startTime":135.40120012500003,"endTime":136.410373125,"instrument":2,"program":28,"isDrum":false},{"pitch":50,"velocity":91,"startTime":135.40578727500002,"endTime":135.91037377499998,"instrument":2,"program":28,"isDrum":false},{"pitch":57,"velocity":100,"startTime":135.67642912500003,"endTime":136.15807987500003,"instrument":2,"program":28,"isDrum":false},{"pitch":50,"velocity":94,"startTime":135.95624527500001,"endTime":136.483767525,"instrument":2,"program":28,"isDrum":false},{"pitch":57,"velocity":81,"startTime":136.22688712500002,"endTime":136.525051875,"instrument":2,"program":28,"isDrum":false},{"pitch":50,"velocity":72,"startTime":136.49523539999998,"endTime":136.731473625,"instrument":2,"program":28,"isDrum":false},{"pitch":43,"velocity":72,"startTime":136.513584,"endTime":136.713125025,"instrument":2,"program":28,"isDrum":false},{"pitch":50,"velocity":101,"startTime":136.781932275,"endTime":137.263583025,"instrument":2,"program":28,"isDrum":false},{"pitch":43,"velocity":86,"startTime":136.79340015,"endTime":137.006702625,"instrument":2,"program":28,"isDrum":false},{"pitch":57,"velocity":100,"startTime":137.05716127500003,"endTime":137.81404102500002,"instrument":2,"program":28,"isDrum":false},{"pitch":43,"velocity":86,"startTime":137.06862915,"endTime":137.51128912500002,"instrument":2,"program":28,"isDrum":false},{"pitch":50,"velocity":88,"startTime":137.33239027500002,"endTime":138.0548664,"instrument":2,"program":28,"isDrum":false},{"pitch":43,"velocity":82,"startTime":137.60303212500003,"endTime":138.68559952500001,"instrument":2,"program":28,"isDrum":false},{"pitch":59,"velocity":103,"startTime":137.60761927500002,"endTime":138.76587465,"instrument":2,"program":28,"isDrum":false},{"pitch":57,"velocity":89,"startTime":137.8713804,"endTime":138.348444,"instrument":2,"program":28,"isDrum":false},{"pitch":50,"velocity":99,"startTime":138.164958,"endTime":138.914957025,"instrument":2,"program":28,"isDrum":false},{"pitch":57,"velocity":72,"startTime":138.433306275,"endTime":139.208534625,"instrument":2,"program":28,"isDrum":false},{"pitch":43,"velocity":83,"startTime":138.708535275,"endTime":138.864498375,"instrument":2,"program":28,"isDrum":false},{"pitch":43,"velocity":103,"startTime":138.72000315,"endTime":139.265874,"instrument":2,"program":28,"isDrum":false},{"pitch":50,"velocity":95,"startTime":138.990645,"endTime":139.46541502500003,"instrument":2,"program":28,"isDrum":false},{"pitch":57,"velocity":108,"startTime":139.25899327500002,"endTime":140.02275375000002,"instrument":2,"program":28,"isDrum":false},{"pitch":43,"velocity":79,"startTime":139.265874,"endTime":139.73605687500003,"instrument":2,"program":28,"isDrum":false},{"pitch":50,"velocity":78,"startTime":139.54110300000002,"endTime":140.29110202500001,"instrument":2,"program":28,"isDrum":false},{"pitch":43,"velocity":79,"startTime":139.80486412500002,"endTime":140.887431525,"instrument":2,"program":28,"isDrum":false},{"pitch":59,"velocity":97,"startTime":139.81633200000002,"endTime":141.002110275,"instrument":2,"program":28,"isDrum":false},{"pitch":57,"velocity":84,"startTime":140.084680275,"endTime":140.57321175,"instrument":2,"program":28,"isDrum":false},{"pitch":50,"velocity":76,"startTime":140.36679,"endTime":141.14660550000002,"instrument":2,"program":28,"isDrum":false},{"pitch":57,"velocity":72,"startTime":140.635138275,"endTime":141.39889875,"instrument":2,"program":28,"isDrum":false},{"pitch":43,"velocity":75,"startTime":140.91036727500003,"endTime":141.18559627500002,"instrument":2,"program":28,"isDrum":false},{"pitch":43,"velocity":103,"startTime":140.92183515,"endTime":141.46770600000002,"instrument":2,"program":28,"isDrum":false},{"pitch":50,"velocity":95,"startTime":141.192477,"endTime":141.66724702500002,"instrument":2,"program":28,"isDrum":false},{"pitch":57,"velocity":108,"startTime":141.46082527500002,"endTime":142.22458575000002,"instrument":2,"program":28,"isDrum":false},{"pitch":43,"velocity":79,"startTime":141.46770600000002,"endTime":141.93788887500003,"instrument":2,"program":28,"isDrum":false},{"pitch":50,"velocity":78,"startTime":141.74293500000002,"endTime":142.492934025,"instrument":2,"program":28,"isDrum":false},{"pitch":43,"velocity":79,"startTime":142.00669612500002,"endTime":143.089263525,"instrument":2,"program":28,"isDrum":false},{"pitch":59,"velocity":97,"startTime":142.018164,"endTime":143.203942275,"instrument":2,"program":28,"isDrum":false},{"pitch":57,"velocity":84,"startTime":142.286512275,"endTime":142.77504375,"instrument":2,"program":28,"isDrum":false},{"pitch":50,"velocity":76,"startTime":142.568622,"endTime":143.34843750000002,"instrument":2,"program":28,"isDrum":false},{"pitch":57,"velocity":72,"startTime":142.83697027500003,"endTime":143.60073075,"instrument":2,"program":28,"isDrum":false},{"pitch":43,"velocity":75,"startTime":143.11219927500002,"endTime":143.38742827500002,"instrument":2,"program":28,"isDrum":false},{"pitch":50,"velocity":94,"startTime":143.39430900000002,"endTime":143.86449187500003,"instrument":2,"program":28,"isDrum":false},{"pitch":43,"velocity":76,"startTime":143.39889615,"endTime":143.61678577499998,"instrument":2,"program":28,"isDrum":false},{"pitch":57,"velocity":93,"startTime":143.66265727500002,"endTime":144.41494987500002,"instrument":2,"program":28,"isDrum":false},{"pitch":43,"velocity":82,"startTime":143.67412515,"endTime":144.13972087500002,"instrument":2,"program":28,"isDrum":false},{"pitch":50,"velocity":74,"startTime":143.94935415,"endTime":144.694766025,"instrument":2,"program":28,"isDrum":false},{"pitch":43,"velocity":79,"startTime":144.213115275,"endTime":145.222288275,"instrument":2,"program":28,"isDrum":false},{"pitch":59,"velocity":84,"startTime":144.219996,"endTime":145.3943064,"instrument":2,"program":28,"isDrum":false},{"pitch":57,"velocity":72,"startTime":144.488344275,"endTime":144.988343625,"instrument":2,"program":28,"isDrum":false},{"pitch":50,"velocity":83,"startTime":144.770454,"endTime":145.382838525,"instrument":2,"program":28,"isDrum":false},{"pitch":57,"velocity":80,"startTime":145.05027015000002,"endTime":145.4860494,"instrument":2,"program":28,"isDrum":false},{"pitch":40,"velocity":81,"startTime":145.30944412500003,"endTime":145.60072815,"instrument":2,"program":28,"isDrum":false},{"pitch":47,"velocity":96,"startTime":145.59614100000002,"endTime":146.07091102500002,"instrument":2,"program":28,"isDrum":false},{"pitch":40,"velocity":87,"startTime":145.60072815,"endTime":145.818617775,"instrument":2,"program":28,"isDrum":false},{"pitch":54,"velocity":92,"startTime":145.864489275,"endTime":146.369075775,"instrument":2,"program":28,"isDrum":false},{"pitch":40,"velocity":76,"startTime":145.87137,"endTime":146.3117364,"instrument":2,"program":28,"isDrum":false},{"pitch":47,"velocity":83,"startTime":146.13513112500002,"endTime":146.433295875,"instrument":2,"program":28,"isDrum":false},{"pitch":55,"velocity":94,"startTime":146.421828,"endTime":148.58237565000002,"instrument":2,"program":28,"isDrum":false},{"pitch":40,"velocity":81,"startTime":146.421828,"endTime":147.48145965,"instrument":2,"program":28,"isDrum":false},{"pitch":54,"velocity":84,"startTime":146.697057,"endTime":146.96540527500002,"instrument":2,"program":28,"isDrum":false},{"pitch":47,"velocity":84,"startTime":146.96540527500002,"endTime":147.7521015,"instrument":2,"program":28,"isDrum":false},{"pitch":54,"velocity":85,"startTime":147.24063427500002,"endTime":147.676413525,"instrument":2,"program":28,"isDrum":false},{"pitch":40,"velocity":82,"startTime":147.52274400000002,"endTime":148.043385525,"instrument":2,"program":28,"isDrum":false},{"pitch":47,"velocity":93,"startTime":147.80256015,"endTime":148.30255950000003,"instrument":2,"program":28,"isDrum":false},{"pitch":54,"velocity":100,"startTime":148.073202,"endTime":148.846136775,"instrument":2,"program":28,"isDrum":false},{"pitch":40,"velocity":83,"startTime":148.07778915,"endTime":148.30255950000003,"instrument":2,"program":28,"isDrum":false},{"pitch":47,"velocity":97,"startTime":148.348431,"endTime":149.093842875,"instrument":2,"program":28,"isDrum":false},{"pitch":40,"velocity":81,"startTime":148.62366,"endTime":148.979164125,"instrument":2,"program":28,"isDrum":false},{"pitch":55,"velocity":102,"startTime":148.62824715,"endTime":149.87824552499998,"instrument":2,"program":28,"isDrum":false},{"pitch":54,"velocity":71,"startTime":148.898889,"endTime":149.3117325,"instrument":2,"program":28,"isDrum":false},{"pitch":47,"velocity":81,"startTime":149.17411800000002,"endTime":149.70164025,"instrument":2,"program":28,"isDrum":false},{"pitch":54,"velocity":82,"startTime":149.44934700000002,"endTime":149.717695275,"instrument":2,"program":28,"isDrum":false},{"pitch":48,"velocity":79,"startTime":149.72916315,"endTime":149.91264915,"instrument":2,"program":28,"isDrum":false},{"pitch":55,"velocity":104,"startTime":149.992924275,"endTime":150.4860429,"instrument":2,"program":28,"isDrum":false},{"pitch":48,"velocity":91,"startTime":149.999805,"endTime":150.1649424,"instrument":2,"program":28,"isDrum":false},{"pitch":62,"velocity":103,"startTime":150.263566125,"endTime":151.31172990000002,"instrument":2,"program":28,"isDrum":false},{"pitch":48,"velocity":89,"startTime":150.275034,"endTime":150.749804025,"instrument":2,"program":28,"isDrum":false},{"pitch":55,"velocity":93,"startTime":150.55485015,"endTime":151.047968775,"instrument":2,"program":28,"isDrum":false},{"pitch":48,"velocity":92,"startTime":150.81861127500002,"endTime":151.36906927500002,"instrument":2,"program":28,"isDrum":false},{"pitch":60,"velocity":100,"startTime":150.825492,"endTime":151.7887935,"instrument":2,"program":28,"isDrum":false},{"pitch":55,"velocity":85,"startTime":151.09384027500002,"endTime":151.60989465,"instrument":2,"program":28,"isDrum":false},{"pitch":48,"velocity":94,"startTime":151.37595000000002,"endTime":151.80484852499998,"instrument":2,"program":28,"isDrum":false},{"pitch":55,"velocity":72,"startTime":151.644298275,"endTime":152.125949025,"instrument":2,"program":28,"isDrum":false},{"pitch":50,"velocity":100,"startTime":151.93099515,"endTime":152.194756275,"instrument":2,"program":28,"isDrum":false},{"pitch":50,"velocity":108,"startTime":152.201637,"endTime":152.33925150000002,"instrument":2,"program":28,"isDrum":false},{"pitch":57,"velocity":89,"startTime":152.201637,"endTime":152.5227375,"instrument":2,"program":28,"isDrum":false},{"pitch":64,"velocity":103,"startTime":152.4585174,"endTime":153.479158275,"instrument":2,"program":28,"isDrum":false},{"pitch":50,"velocity":88,"startTime":152.465398125,"endTime":152.660352,"instrument":2,"program":28,"isDrum":false},{"pitch":57,"velocity":85,"startTime":152.74521427500002,"endTime":153.268149375,"instrument":2,"program":28,"isDrum":false},{"pitch":62,"velocity":101,"startTime":153.01585612500003,"endTime":154.025029125,"instrument":2,"program":28,"isDrum":false},{"pitch":50,"velocity":91,"startTime":153.02044327500002,"endTime":153.525029775,"instrument":2,"program":28,"isDrum":false},{"pitch":57,"velocity":100,"startTime":153.29108512500002,"endTime":153.77273587500002,"instrument":2,"program":28,"isDrum":false},{"pitch":50,"velocity":94,"startTime":153.570901275,"endTime":154.09842352500002,"instrument":2,"program":28,"isDrum":false},{"pitch":57,"velocity":81,"startTime":153.84154312500002,"endTime":154.139707875,"instrument":2,"program":28,"isDrum":false},{"pitch":50,"velocity":72,"startTime":154.10989139999998,"endTime":154.346129625,"instrument":2,"program":28,"isDrum":false},{"pitch":43,"velocity":72,"startTime":154.12824,"endTime":154.327781025,"instrument":2,"program":28,"isDrum":false},{"pitch":50,"velocity":101,"startTime":154.39658827500003,"endTime":154.87823902500003,"instrument":2,"program":28,"isDrum":false},{"pitch":43,"velocity":86,"startTime":154.40805615,"endTime":154.621358625,"instrument":2,"program":28,"isDrum":false},{"pitch":57,"velocity":100,"startTime":154.67181727500002,"endTime":155.42869702500002,"instrument":2,"program":28,"isDrum":false},{"pitch":43,"velocity":86,"startTime":154.68328515000002,"endTime":155.12594512500002,"instrument":2,"program":28,"isDrum":false},{"pitch":50,"velocity":88,"startTime":154.94704627500002,"endTime":155.6695224,"instrument":2,"program":28,"isDrum":false},{"pitch":43,"velocity":82,"startTime":155.21768812500002,"endTime":156.300255525,"instrument":2,"program":28,"isDrum":false},{"pitch":59,"velocity":103,"startTime":155.22227527500002,"endTime":156.38053065,"instrument":2,"program":28,"isDrum":false},{"pitch":57,"velocity":89,"startTime":155.4860364,"endTime":155.9631,"instrument":2,"program":28,"isDrum":false},{"pitch":50,"velocity":99,"startTime":155.779614,"endTime":156.529613025,"instrument":2,"program":28,"isDrum":false},{"pitch":57,"velocity":72,"startTime":156.047962275,"endTime":156.823190625,"instrument":2,"program":28,"isDrum":false},{"pitch":43,"velocity":83,"startTime":156.32319127500003,"endTime":156.479154375,"instrument":2,"program":28,"isDrum":false},{"pitch":43,"velocity":103,"startTime":156.33465915,"endTime":156.88053000000002,"instrument":2,"program":28,"isDrum":false},{"pitch":50,"velocity":95,"startTime":156.605301,"endTime":157.08007102500002,"instrument":2,"program":28,"isDrum":false},{"pitch":57,"velocity":108,"startTime":156.87364927500002,"endTime":157.63740975000002,"instrument":2,"program":28,"isDrum":false},{"pitch":43,"velocity":79,"startTime":156.88053000000002,"endTime":157.35071287500003,"instrument":2,"program":28,"isDrum":false},{"pitch":50,"velocity":78,"startTime":157.15575900000002,"endTime":157.905758025,"instrument":2,"program":28,"isDrum":false},{"pitch":43,"velocity":79,"startTime":157.41952012500002,"endTime":158.502087525,"instrument":2,"program":28,"isDrum":false},{"pitch":59,"velocity":97,"startTime":157.430988,"endTime":158.616766275,"instrument":2,"program":28,"isDrum":false},{"pitch":57,"velocity":84,"startTime":157.699336275,"endTime":158.18786775,"instrument":2,"program":28,"isDrum":false},{"pitch":50,"velocity":76,"startTime":157.981446,"endTime":158.76126150000002,"instrument":2,"program":28,"isDrum":false},{"pitch":57,"velocity":72,"startTime":158.24979427500003,"endTime":159.01355475,"instrument":2,"program":28,"isDrum":false},{"pitch":43,"velocity":75,"startTime":158.52502327500002,"endTime":158.80025227500002,"instrument":2,"program":28,"isDrum":false},{"pitch":43,"velocity":103,"startTime":158.53649115000002,"endTime":159.08236200000002,"instrument":2,"program":28,"isDrum":false},{"pitch":50,"velocity":95,"startTime":158.80713300000002,"endTime":159.28190302500002,"instrument":2,"program":28,"isDrum":false},{"pitch":57,"velocity":108,"startTime":159.07548127500002,"endTime":159.83924175,"instrument":2,"program":28,"isDrum":false},{"pitch":43,"velocity":79,"startTime":159.08236200000002,"endTime":159.55254487500002,"instrument":2,"program":28,"isDrum":false},{"pitch":50,"velocity":78,"startTime":159.357591,"endTime":160.107590025,"instrument":2,"program":28,"isDrum":false},{"pitch":43,"velocity":79,"startTime":159.62135212500002,"endTime":160.703919525,"instrument":2,"program":28,"isDrum":false},{"pitch":59,"velocity":97,"startTime":159.63282,"endTime":160.818598275,"instrument":2,"program":28,"isDrum":false},{"pitch":57,"velocity":84,"startTime":159.901168275,"endTime":160.38969975,"instrument":2,"program":28,"isDrum":false},{"pitch":50,"velocity":76,"startTime":160.183278,"endTime":160.9630935,"instrument":2,"program":28,"isDrum":false},{"pitch":57,"velocity":72,"startTime":160.45162627500002,"endTime":161.21538675000002,"instrument":2,"program":28,"isDrum":false},{"pitch":43,"velocity":75,"startTime":160.72685527500002,"endTime":161.00208427500002,"instrument":2,"program":28,"isDrum":false},{"pitch":50,"velocity":94,"startTime":161.00896500000002,"endTime":161.47914787500002,"instrument":2,"program":28,"isDrum":false},{"pitch":43,"velocity":76,"startTime":161.01355215,"endTime":161.231441775,"instrument":2,"program":28,"isDrum":false},{"pitch":57,"velocity":93,"startTime":161.277313275,"endTime":162.02960587500002,"instrument":2,"program":28,"isDrum":false},{"pitch":43,"velocity":82,"startTime":161.28878115,"endTime":161.75437687500002,"instrument":2,"program":28,"isDrum":false},{"pitch":50,"velocity":74,"startTime":161.56401015,"endTime":162.309422025,"instrument":2,"program":28,"isDrum":false},{"pitch":43,"velocity":79,"startTime":161.827771275,"endTime":162.836944275,"instrument":2,"program":28,"isDrum":false},{"pitch":59,"velocity":84,"startTime":161.834652,"endTime":163.0089624,"instrument":2,"program":28,"isDrum":false},{"pitch":57,"velocity":72,"startTime":162.10300027500003,"endTime":162.602999625,"instrument":2,"program":28,"isDrum":false},{"pitch":50,"velocity":83,"startTime":162.38511,"endTime":162.997494525,"instrument":2,"program":28,"isDrum":false},{"pitch":57,"velocity":80,"startTime":162.66492615,"endTime":163.1007054,"instrument":2,"program":28,"isDrum":false},{"pitch":40,"velocity":81,"startTime":162.92410012500002,"endTime":163.21538415,"instrument":2,"program":28,"isDrum":false},{"pitch":47,"velocity":96,"startTime":163.210797,"endTime":163.685567025,"instrument":2,"program":28,"isDrum":false},{"pitch":40,"velocity":87,"startTime":163.21538415,"endTime":163.433273775,"instrument":2,"program":28,"isDrum":false},{"pitch":54,"velocity":92,"startTime":163.479145275,"endTime":163.983731775,"instrument":2,"program":28,"isDrum":false},{"pitch":40,"velocity":76,"startTime":163.486026,"endTime":163.92639240000003,"instrument":2,"program":28,"isDrum":false},{"pitch":47,"velocity":83,"startTime":163.749787125,"endTime":164.047951875,"instrument":2,"program":28,"isDrum":false},{"pitch":55,"velocity":94,"startTime":164.036484,"endTime":166.19703165,"instrument":2,"program":28,"isDrum":false},{"pitch":40,"velocity":81,"startTime":164.036484,"endTime":165.09611565,"instrument":2,"program":28,"isDrum":false},{"pitch":54,"velocity":84,"startTime":164.311713,"endTime":164.58006127500002,"instrument":2,"program":28,"isDrum":false},{"pitch":47,"velocity":84,"startTime":164.58006127500002,"endTime":165.3667575,"instrument":2,"program":28,"isDrum":false},{"pitch":54,"velocity":85,"startTime":164.85529027500002,"endTime":165.29106952499998,"instrument":2,"program":28,"isDrum":false},{"pitch":40,"velocity":82,"startTime":165.1374,"endTime":165.65804152500002,"instrument":2,"program":28,"isDrum":false},{"pitch":47,"velocity":93,"startTime":165.41721615,"endTime":165.91721550000003,"instrument":2,"program":28,"isDrum":false},{"pitch":54,"velocity":100,"startTime":165.687858,"endTime":166.460792775,"instrument":2,"program":28,"isDrum":false},{"pitch":40,"velocity":83,"startTime":165.69244515,"endTime":165.91721550000003,"instrument":2,"program":28,"isDrum":false},{"pitch":47,"velocity":97,"startTime":165.963087,"endTime":166.70849887500003,"instrument":2,"program":28,"isDrum":false},{"pitch":40,"velocity":81,"startTime":166.238316,"endTime":166.593820125,"instrument":2,"program":28,"isDrum":false},{"pitch":55,"velocity":102,"startTime":166.24290315000002,"endTime":167.49290152499998,"instrument":2,"program":28,"isDrum":false},{"pitch":54,"velocity":71,"startTime":166.51354500000002,"endTime":166.9263885,"instrument":2,"program":28,"isDrum":false},{"pitch":47,"velocity":81,"startTime":166.78877400000002,"endTime":167.31629625,"instrument":2,"program":28,"isDrum":false},{"pitch":54,"velocity":82,"startTime":167.064003,"endTime":167.332351275,"instrument":2,"program":28,"isDrum":false},{"pitch":48,"velocity":79,"startTime":167.34381915,"endTime":167.52730515,"instrument":2,"program":28,"isDrum":false},{"pitch":55,"velocity":104,"startTime":167.607580275,"endTime":168.1006989,"instrument":2,"program":28,"isDrum":false},{"pitch":48,"velocity":91,"startTime":167.614461,"endTime":167.77959840000003,"instrument":2,"program":28,"isDrum":false},{"pitch":62,"velocity":103,"startTime":167.878222125,"endTime":168.9263859,"instrument":2,"program":28,"isDrum":false},{"pitch":48,"velocity":89,"startTime":167.88969,"endTime":168.36446002500003,"instrument":2,"program":28,"isDrum":false},{"pitch":55,"velocity":93,"startTime":168.16950615000002,"endTime":168.66262477499998,"instrument":2,"program":28,"isDrum":false},{"pitch":48,"velocity":92,"startTime":168.43326727500002,"endTime":168.983725275,"instrument":2,"program":28,"isDrum":false},{"pitch":60,"velocity":100,"startTime":168.44014800000002,"endTime":169.40344950000002,"instrument":2,"program":28,"isDrum":false},{"pitch":55,"velocity":85,"startTime":168.70849627500002,"endTime":169.22455065000003,"instrument":2,"program":28,"isDrum":false},{"pitch":48,"velocity":94,"startTime":168.990606,"endTime":169.41950452499998,"instrument":2,"program":28,"isDrum":false},{"pitch":55,"velocity":72,"startTime":169.258954275,"endTime":169.740605025,"instrument":2,"program":28,"isDrum":false},{"pitch":50,"velocity":100,"startTime":169.54565115,"endTime":169.80941227500003,"instrument":2,"program":28,"isDrum":false},{"pitch":50,"velocity":108,"startTime":169.816293,"endTime":169.9539075,"instrument":2,"program":28,"isDrum":false},{"pitch":57,"velocity":89,"startTime":169.816293,"endTime":170.1373935,"instrument":2,"program":28,"isDrum":false},{"pitch":64,"velocity":103,"startTime":170.0731734,"endTime":171.093814275,"instrument":2,"program":28,"isDrum":false},{"pitch":50,"velocity":88,"startTime":170.08005412500003,"endTime":170.27500799999999,"instrument":2,"program":28,"isDrum":false},{"pitch":57,"velocity":85,"startTime":170.35987027500002,"endTime":170.882805375,"instrument":2,"program":28,"isDrum":false},{"pitch":62,"velocity":101,"startTime":170.63051212500002,"endTime":171.639685125,"instrument":2,"program":28,"isDrum":false},{"pitch":50,"velocity":91,"startTime":170.63509927500002,"endTime":171.139685775,"instrument":2,"program":28,"isDrum":false},{"pitch":57,"velocity":100,"startTime":170.90574112500002,"endTime":171.38739187500002,"instrument":2,"program":28,"isDrum":false},{"pitch":50,"velocity":94,"startTime":171.185557275,"endTime":171.713079525,"instrument":2,"program":28,"isDrum":false},{"pitch":57,"velocity":81,"startTime":171.456199125,"endTime":171.754363875,"instrument":2,"program":28,"isDrum":false},{"pitch":50,"velocity":72,"startTime":171.7245474,"endTime":171.960785625,"instrument":2,"program":28,"isDrum":false},{"pitch":43,"velocity":72,"startTime":171.742896,"endTime":171.942437025,"instrument":2,"program":28,"isDrum":false},{"pitch":50,"velocity":101,"startTime":172.01124427500002,"endTime":172.49289502500002,"instrument":2,"program":28,"isDrum":false},{"pitch":43,"velocity":86,"startTime":172.02271215000002,"endTime":172.236014625,"instrument":2,"program":28,"isDrum":false},{"pitch":57,"velocity":100,"startTime":172.28647327500002,"endTime":173.04335302500002,"instrument":2,"program":28,"isDrum":false},{"pitch":43,"velocity":86,"startTime":172.29794115,"endTime":172.740601125,"instrument":2,"program":28,"isDrum":false},{"pitch":50,"velocity":88,"startTime":172.56170227500002,"endTime":173.2841784,"instrument":2,"program":28,"isDrum":false},{"pitch":43,"velocity":82,"startTime":172.83234412500002,"endTime":173.914911525,"instrument":2,"program":28,"isDrum":false},{"pitch":59,"velocity":103,"startTime":172.836931275,"endTime":173.99518665,"instrument":2,"program":28,"isDrum":false},{"pitch":57,"velocity":89,"startTime":173.10069239999999,"endTime":173.577756,"instrument":2,"program":28,"isDrum":false},{"pitch":50,"velocity":99,"startTime":173.39427,"endTime":174.14426902500003,"instrument":2,"program":28,"isDrum":false},{"pitch":57,"velocity":72,"startTime":173.66261827500003,"endTime":174.437846625,"instrument":2,"program":28,"isDrum":false},{"pitch":43,"velocity":83,"startTime":173.93784727500002,"endTime":174.093810375,"instrument":2,"program":28,"isDrum":false},{"pitch":43,"velocity":103,"startTime":173.94931515,"endTime":174.49518600000002,"instrument":2,"program":28,"isDrum":false},{"pitch":50,"velocity":95,"startTime":174.21995700000002,"endTime":174.69472702500002,"instrument":2,"program":28,"isDrum":false},{"pitch":57,"velocity":108,"startTime":174.48830527500002,"endTime":175.25206575,"instrument":2,"program":28,"isDrum":false},{"pitch":43,"velocity":79,"startTime":174.49518600000002,"endTime":174.96536887500002,"instrument":2,"program":28,"isDrum":false},{"pitch":50,"velocity":78,"startTime":174.770415,"endTime":175.520414025,"instrument":2,"program":28,"isDrum":false},{"pitch":43,"velocity":79,"startTime":175.03417612500002,"endTime":176.116743525,"instrument":2,"program":28,"isDrum":false},{"pitch":59,"velocity":97,"startTime":175.045644,"endTime":176.231422275,"instrument":2,"program":28,"isDrum":false},{"pitch":57,"velocity":84,"startTime":175.313992275,"endTime":175.80252375,"instrument":2,"program":28,"isDrum":false},{"pitch":50,"velocity":76,"startTime":175.596102,"endTime":176.3759175,"instrument":2,"program":28,"isDrum":false},{"pitch":57,"velocity":72,"startTime":175.86445027500002,"endTime":176.62821075,"instrument":2,"program":28,"isDrum":false},{"pitch":43,"velocity":75,"startTime":176.13967927500002,"endTime":176.41490827500002,"instrument":2,"program":28,"isDrum":false},{"pitch":43,"velocity":103,"startTime":176.15114715,"endTime":176.697018,"instrument":2,"program":28,"isDrum":false},{"pitch":50,"velocity":95,"startTime":176.42178900000002,"endTime":176.89655902500002,"instrument":2,"program":28,"isDrum":false},{"pitch":57,"velocity":108,"startTime":176.690137275,"endTime":177.45389775,"instrument":2,"program":28,"isDrum":false},{"pitch":43,"velocity":79,"startTime":176.697018,"endTime":177.16720087500002,"instrument":2,"program":28,"isDrum":false},{"pitch":50,"velocity":78,"startTime":176.972247,"endTime":177.722246025,"instrument":2,"program":28,"isDrum":false},{"pitch":43,"velocity":79,"startTime":177.236008125,"endTime":178.318575525,"instrument":2,"program":28,"isDrum":false},{"pitch":59,"velocity":97,"startTime":177.247476,"endTime":178.433254275,"instrument":2,"program":28,"isDrum":false},{"pitch":57,"velocity":84,"startTime":177.51582427500003,"endTime":178.00435575,"instrument":2,"program":28,"isDrum":false},{"pitch":50,"velocity":76,"startTime":177.797934,"endTime":178.5777495,"instrument":2,"program":28,"isDrum":false},{"pitch":57,"velocity":72,"startTime":178.06628227500002,"endTime":178.83004275000002,"instrument":2,"program":28,"isDrum":false},{"pitch":43,"velocity":75,"startTime":178.34151127500002,"endTime":178.616740275,"instrument":2,"program":28,"isDrum":false},{"pitch":50,"velocity":94,"startTime":178.623621,"endTime":179.09380387500002,"instrument":2,"program":28,"isDrum":false},{"pitch":43,"velocity":76,"startTime":178.62820815,"endTime":178.846097775,"instrument":2,"program":28,"isDrum":false},{"pitch":57,"velocity":93,"startTime":178.891969275,"endTime":179.644261875,"instrument":2,"program":28,"isDrum":false},{"pitch":43,"velocity":82,"startTime":178.90343715,"endTime":179.36903287500002,"instrument":2,"program":28,"isDrum":false},{"pitch":50,"velocity":74,"startTime":179.17866615,"endTime":179.92407802500003,"instrument":2,"program":28,"isDrum":false},{"pitch":43,"velocity":79,"startTime":179.44242727500003,"endTime":180.451600275,"instrument":2,"program":28,"isDrum":false},{"pitch":59,"velocity":84,"startTime":179.449308,"endTime":180.6236184,"instrument":2,"program":28,"isDrum":false},{"pitch":57,"velocity":72,"startTime":179.71765627500002,"endTime":180.217655625,"instrument":2,"program":28,"isDrum":false},{"pitch":50,"velocity":83,"startTime":179.999766,"endTime":180.612150525,"instrument":2,"program":28,"isDrum":false},{"pitch":57,"velocity":80,"startTime":180.27958215,"endTime":180.7153614,"instrument":2,"program":28,"isDrum":false},{"pitch":40,"velocity":81,"startTime":180.53875612500002,"endTime":180.83004015,"instrument":2,"program":28,"isDrum":false},{"pitch":47,"velocity":96,"startTime":180.825453,"endTime":181.300223025,"instrument":2,"program":28,"isDrum":false},{"pitch":40,"velocity":87,"startTime":180.83004015,"endTime":181.047929775,"instrument":2,"program":28,"isDrum":false},{"pitch":54,"velocity":92,"startTime":181.093801275,"endTime":181.598387775,"instrument":2,"program":28,"isDrum":false},{"pitch":40,"velocity":76,"startTime":181.100682,"endTime":181.54104840000002,"instrument":2,"program":28,"isDrum":false},{"pitch":47,"velocity":83,"startTime":181.364443125,"endTime":181.662607875,"instrument":2,"program":28,"isDrum":false},{"pitch":55,"velocity":94,"startTime":181.65114,"endTime":183.81168765,"instrument":2,"program":28,"isDrum":false},{"pitch":40,"velocity":81,"startTime":181.65114,"endTime":182.71077165000003,"instrument":2,"program":28,"isDrum":false},{"pitch":54,"velocity":84,"startTime":181.926369,"endTime":182.19471727500002,"instrument":2,"program":28,"isDrum":false},{"pitch":47,"velocity":84,"startTime":182.19471727500002,"endTime":182.98141350000003,"instrument":2,"program":28,"isDrum":false},{"pitch":54,"velocity":85,"startTime":182.469946275,"endTime":182.90572552499998,"instrument":2,"program":28,"isDrum":false},{"pitch":40,"velocity":82,"startTime":182.752056,"endTime":183.272697525,"instrument":2,"program":28,"isDrum":false},{"pitch":47,"velocity":93,"startTime":183.03187215,"endTime":183.53187150000002,"instrument":2,"program":28,"isDrum":false},{"pitch":54,"velocity":100,"startTime":183.302514,"endTime":184.07544877499998,"instrument":2,"program":28,"isDrum":false},{"pitch":40,"velocity":83,"startTime":183.30710115,"endTime":183.53187150000002,"instrument":2,"program":28,"isDrum":false},{"pitch":47,"velocity":97,"startTime":183.577743,"endTime":184.32315487500003,"instrument":2,"program":28,"isDrum":false},{"pitch":40,"velocity":81,"startTime":183.852972,"endTime":184.208476125,"instrument":2,"program":28,"isDrum":false},{"pitch":55,"velocity":102,"startTime":183.85755915000001,"endTime":185.107557525,"instrument":2,"program":28,"isDrum":false},{"pitch":54,"velocity":71,"startTime":184.12820100000002,"endTime":184.5410445,"instrument":2,"program":28,"isDrum":false},{"pitch":47,"velocity":81,"startTime":184.40343000000001,"endTime":184.93095225,"instrument":2,"program":28,"isDrum":false},{"pitch":54,"velocity":82,"startTime":184.678659,"endTime":184.947007275,"instrument":2,"program":28,"isDrum":false},{"pitch":48,"velocity":79,"startTime":184.95847515,"endTime":185.14196115,"instrument":2,"program":28,"isDrum":false},{"pitch":55,"velocity":104,"startTime":185.222236275,"endTime":185.7153549,"instrument":2,"program":28,"isDrum":false},{"pitch":48,"velocity":91,"startTime":185.229117,"endTime":185.39425440000002,"instrument":2,"program":28,"isDrum":false},{"pitch":62,"velocity":103,"startTime":185.49287812500003,"endTime":186.5410419,"instrument":2,"program":28,"isDrum":false},{"pitch":48,"velocity":89,"startTime":185.504346,"endTime":185.97911602500002,"instrument":2,"program":28,"isDrum":false},{"pitch":55,"velocity":93,"startTime":185.78416215000001,"endTime":186.27728077499998,"instrument":2,"program":28,"isDrum":false},{"pitch":48,"velocity":92,"startTime":186.04792327500002,"endTime":186.598381275,"instrument":2,"program":28,"isDrum":false},{"pitch":60,"velocity":100,"startTime":186.05480400000002,"endTime":187.01810550000002,"instrument":2,"program":28,"isDrum":false},{"pitch":55,"velocity":85,"startTime":186.323152275,"endTime":186.83920665000002,"instrument":2,"program":28,"isDrum":false},{"pitch":48,"velocity":94,"startTime":186.605262,"endTime":187.034160525,"instrument":2,"program":28,"isDrum":false},{"pitch":55,"velocity":72,"startTime":186.873610275,"endTime":187.355261025,"instrument":2,"program":28,"isDrum":false},{"pitch":50,"velocity":100,"startTime":187.16030715,"endTime":187.42406827500002,"instrument":2,"program":28,"isDrum":false},{"pitch":50,"velocity":108,"startTime":187.430949,"endTime":187.5685635,"instrument":2,"program":28,"isDrum":false},{"pitch":57,"velocity":89,"startTime":187.430949,"endTime":187.7520495,"instrument":2,"program":28,"isDrum":false},{"pitch":64,"velocity":103,"startTime":187.6878294,"endTime":188.708470275,"instrument":2,"program":28,"isDrum":false},{"pitch":50,"velocity":88,"startTime":187.69471012500003,"endTime":187.889664,"instrument":2,"program":28,"isDrum":false},{"pitch":57,"velocity":85,"startTime":187.97452627500002,"endTime":188.497461375,"instrument":2,"program":28,"isDrum":false},{"pitch":62,"velocity":101,"startTime":188.24516812500002,"endTime":189.254341125,"instrument":2,"program":28,"isDrum":false},{"pitch":50,"velocity":91,"startTime":188.249755275,"endTime":188.754341775,"instrument":2,"program":28,"isDrum":false},{"pitch":57,"velocity":100,"startTime":188.52039712500002,"endTime":189.00204787500002,"instrument":2,"program":28,"isDrum":false},{"pitch":50,"velocity":94,"startTime":188.800213275,"endTime":189.327735525,"instrument":2,"program":28,"isDrum":false},{"pitch":57,"velocity":81,"startTime":189.070855125,"endTime":189.369019875,"instrument":2,"program":28,"isDrum":false},{"pitch":50,"velocity":72,"startTime":189.3392034,"endTime":189.575441625,"instrument":2,"program":28,"isDrum":false},{"pitch":43,"velocity":72,"startTime":189.357552,"endTime":189.557093025,"instrument":2,"program":28,"isDrum":false},{"pitch":50,"velocity":101,"startTime":189.62590027500002,"endTime":190.10755102500002,"instrument":2,"program":28,"isDrum":false},{"pitch":43,"velocity":86,"startTime":189.63736815000001,"endTime":189.850670625,"instrument":2,"program":28,"isDrum":false},{"pitch":57,"velocity":100,"startTime":189.90112927500002,"endTime":190.658009025,"instrument":2,"program":28,"isDrum":false},{"pitch":43,"velocity":86,"startTime":189.91259715,"endTime":190.355257125,"instrument":2,"program":28,"isDrum":false},{"pitch":50,"velocity":88,"startTime":190.176358275,"endTime":190.89883440000003,"instrument":2,"program":28,"isDrum":false},{"pitch":43,"velocity":82,"startTime":190.44700012500002,"endTime":191.529567525,"instrument":2,"program":28,"isDrum":false},{"pitch":59,"velocity":103,"startTime":190.451587275,"endTime":191.60984265,"instrument":2,"program":28,"isDrum":false},{"pitch":57,"velocity":89,"startTime":190.71534839999998,"endTime":191.192412,"instrument":2,"program":28,"isDrum":false},{"pitch":50,"velocity":99,"startTime":191.008926,"endTime":191.75892502500002,"instrument":2,"program":28,"isDrum":false},{"pitch":57,"velocity":72,"startTime":191.27727427500002,"endTime":192.052502625,"instrument":2,"program":28,"isDrum":false},{"pitch":43,"velocity":83,"startTime":191.55250327500002,"endTime":191.708466375,"instrument":2,"program":28,"isDrum":false},{"pitch":43,"velocity":103,"startTime":191.56397115000001,"endTime":192.10984200000001,"instrument":2,"program":28,"isDrum":false},{"pitch":50,"velocity":95,"startTime":191.83461300000002,"endTime":192.30938302500002,"instrument":2,"program":28,"isDrum":false},{"pitch":57,"velocity":108,"startTime":192.102961275,"endTime":192.86672175,"instrument":2,"program":28,"isDrum":false},{"pitch":43,"velocity":79,"startTime":192.10984200000001,"endTime":192.58002487500002,"instrument":2,"program":28,"isDrum":false},{"pitch":50,"velocity":78,"startTime":192.385071,"endTime":193.135070025,"instrument":2,"program":28,"isDrum":false},{"pitch":43,"velocity":79,"startTime":192.648832125,"endTime":193.731399525,"instrument":2,"program":28,"isDrum":false},{"pitch":59,"velocity":97,"startTime":192.6603,"endTime":193.846078275,"instrument":2,"program":28,"isDrum":false},{"pitch":57,"velocity":84,"startTime":192.928648275,"endTime":193.41717975,"instrument":2,"program":28,"isDrum":false},{"pitch":50,"velocity":76,"startTime":193.210758,"endTime":193.9905735,"instrument":2,"program":28,"isDrum":false},{"pitch":57,"velocity":72,"startTime":193.47910627500002,"endTime":194.24286675000002,"instrument":2,"program":28,"isDrum":false},{"pitch":43,"velocity":75,"startTime":193.75433527500002,"endTime":194.029564275,"instrument":2,"program":28,"isDrum":false},{"pitch":43,"velocity":103,"startTime":193.76580315,"endTime":194.311674,"instrument":2,"program":28,"isDrum":false},{"pitch":50,"velocity":95,"startTime":194.03644500000001,"endTime":194.511215025,"instrument":2,"program":28,"isDrum":false},{"pitch":57,"velocity":108,"startTime":194.304793275,"endTime":195.06855375,"instrument":2,"program":28,"isDrum":false},{"pitch":43,"velocity":79,"startTime":194.311674,"endTime":194.78185687500002,"instrument":2,"program":28,"isDrum":false},{"pitch":50,"velocity":78,"startTime":194.586903,"endTime":195.336902025,"instrument":2,"program":28,"isDrum":false},{"pitch":43,"velocity":79,"startTime":194.850664125,"endTime":195.933231525,"instrument":2,"program":28,"isDrum":false},{"pitch":59,"velocity":97,"startTime":194.862132,"endTime":196.047910275,"instrument":2,"program":28,"isDrum":false},{"pitch":57,"velocity":84,"startTime":195.13048027500002,"endTime":195.61901175,"instrument":2,"program":28,"isDrum":false},{"pitch":50,"velocity":76,"startTime":195.41259,"endTime":196.1924055,"instrument":2,"program":28,"isDrum":false},{"pitch":57,"velocity":72,"startTime":195.68093827500002,"endTime":196.44469875000001,"instrument":2,"program":28,"isDrum":false},{"pitch":43,"velocity":75,"startTime":195.956167275,"endTime":196.231396275,"instrument":2,"program":28,"isDrum":false},{"pitch":50,"velocity":94,"startTime":196.238277,"endTime":196.70845987500002,"instrument":2,"program":28,"isDrum":false},{"pitch":43,"velocity":76,"startTime":196.24286415,"endTime":196.460753775,"instrument":2,"program":28,"isDrum":false},{"pitch":57,"velocity":93,"startTime":196.506625275,"endTime":197.258917875,"instrument":2,"program":28,"isDrum":false},{"pitch":43,"velocity":82,"startTime":196.51809315,"endTime":196.983688875,"instrument":2,"program":28,"isDrum":false},{"pitch":50,"velocity":74,"startTime":196.79332215,"endTime":197.53873402500002,"instrument":2,"program":28,"isDrum":false},{"pitch":43,"velocity":79,"startTime":197.05708327500002,"endTime":198.066256275,"instrument":2,"program":28,"isDrum":false},{"pitch":59,"velocity":84,"startTime":197.063964,"endTime":198.2382744,"instrument":2,"program":28,"isDrum":false},{"pitch":57,"velocity":72,"startTime":197.33231227500002,"endTime":197.832311625,"instrument":2,"program":28,"isDrum":false},{"pitch":50,"velocity":83,"startTime":197.61442200000002,"endTime":198.226806525,"instrument":2,"program":28,"isDrum":false},{"pitch":57,"velocity":80,"startTime":197.89423815,"endTime":198.3300174,"instrument":2,"program":28,"isDrum":false},{"pitch":40,"velocity":81,"startTime":198.15341212500002,"endTime":198.44469615,"instrument":2,"program":28,"isDrum":false},{"pitch":47,"velocity":96,"startTime":198.440109,"endTime":198.914879025,"instrument":2,"program":28,"isDrum":false},{"pitch":40,"velocity":87,"startTime":198.44469615,"endTime":198.662585775,"instrument":2,"program":28,"isDrum":false},{"pitch":54,"velocity":92,"startTime":198.708457275,"endTime":199.213043775,"instrument":2,"program":28,"isDrum":false},{"pitch":40,"velocity":76,"startTime":198.715338,"endTime":199.15570440000002,"instrument":2,"program":28,"isDrum":false},{"pitch":47,"velocity":83,"startTime":198.979099125,"endTime":199.277263875,"instrument":2,"program":28,"isDrum":false},{"pitch":55,"velocity":94,"startTime":199.265796,"endTime":201.42634365,"instrument":2,"program":28,"isDrum":false},{"pitch":40,"velocity":81,"startTime":199.265796,"endTime":200.32542765000002,"instrument":2,"program":28,"isDrum":false},{"pitch":54,"velocity":84,"startTime":199.54102500000002,"endTime":199.809373275,"instrument":2,"program":28,"isDrum":false},{"pitch":47,"velocity":84,"startTime":199.809373275,"endTime":200.59606950000003,"instrument":2,"program":28,"isDrum":false},{"pitch":54,"velocity":85,"startTime":200.084602275,"endTime":200.520381525,"instrument":2,"program":28,"isDrum":false},{"pitch":40,"velocity":82,"startTime":200.366712,"endTime":200.887353525,"instrument":2,"program":28,"isDrum":false},{"pitch":47,"velocity":93,"startTime":200.64652815,"endTime":201.14652750000002,"instrument":2,"program":28,"isDrum":false},{"pitch":54,"velocity":100,"startTime":200.91717,"endTime":201.69010477499998,"instrument":2,"program":28,"isDrum":false},{"pitch":40,"velocity":83,"startTime":200.92175715,"endTime":201.14652750000002,"instrument":2,"program":28,"isDrum":false},{"pitch":47,"velocity":97,"startTime":201.192399,"endTime":201.93781087500003,"instrument":2,"program":28,"isDrum":false},{"pitch":40,"velocity":81,"startTime":201.46762800000002,"endTime":201.823132125,"instrument":2,"program":28,"isDrum":false},{"pitch":55,"velocity":102,"startTime":201.47221515,"endTime":202.722213525,"instrument":2,"program":28,"isDrum":false},{"pitch":54,"velocity":71,"startTime":201.74285700000001,"endTime":202.1557005,"instrument":2,"program":28,"isDrum":false},{"pitch":47,"velocity":81,"startTime":202.018086,"endTime":202.54560825,"instrument":2,"program":28,"isDrum":false},{"pitch":54,"velocity":82,"startTime":202.293315,"endTime":202.561663275,"instrument":2,"program":28,"isDrum":false},{"pitch":48,"velocity":79,"startTime":202.57313115,"endTime":202.75661714999998,"instrument":2,"program":28,"isDrum":false},{"pitch":55,"velocity":104,"startTime":202.83689227500003,"endTime":203.3300109,"instrument":2,"program":28,"isDrum":false},{"pitch":48,"velocity":91,"startTime":202.843773,"endTime":203.00891040000002,"instrument":2,"program":28,"isDrum":false},{"pitch":62,"velocity":103,"startTime":203.10753412500003,"endTime":204.1556979,"instrument":2,"program":28,"isDrum":false},{"pitch":48,"velocity":89,"startTime":203.119002,"endTime":203.59377202500002,"instrument":2,"program":28,"isDrum":false},{"pitch":55,"velocity":93,"startTime":203.39881815,"endTime":203.891936775,"instrument":2,"program":28,"isDrum":false},{"pitch":48,"velocity":92,"startTime":203.662579275,"endTime":204.213037275,"instrument":2,"program":28,"isDrum":false},{"pitch":60,"velocity":100,"startTime":203.66946000000002,"endTime":204.63276150000002,"instrument":2,"program":28,"isDrum":false},{"pitch":55,"velocity":85,"startTime":203.937808275,"endTime":204.45386265000002,"instrument":2,"program":28,"isDrum":false},{"pitch":48,"velocity":94,"startTime":204.219918,"endTime":204.648816525,"instrument":2,"program":28,"isDrum":false},{"pitch":55,"velocity":72,"startTime":204.488266275,"endTime":204.969917025,"instrument":2,"program":28,"isDrum":false},{"pitch":50,"velocity":100,"startTime":204.77496315,"endTime":205.03872427500002,"instrument":2,"program":28,"isDrum":false},{"pitch":50,"velocity":108,"startTime":205.045605,"endTime":205.1832195,"instrument":2,"program":28,"isDrum":false},{"pitch":57,"velocity":89,"startTime":205.045605,"endTime":205.3667055,"instrument":2,"program":28,"isDrum":false},{"pitch":64,"velocity":103,"startTime":205.3024854,"endTime":206.323126275,"instrument":2,"program":28,"isDrum":false},{"pitch":50,"velocity":88,"startTime":205.30936612500003,"endTime":205.50432,"instrument":2,"program":28,"isDrum":false},{"pitch":57,"velocity":85,"startTime":205.589182275,"endTime":206.112117375,"instrument":2,"program":28,"isDrum":false},{"pitch":62,"velocity":101,"startTime":205.85982412500002,"endTime":206.86899712500002,"instrument":2,"program":28,"isDrum":false},{"pitch":50,"velocity":91,"startTime":205.864411275,"endTime":206.368997775,"instrument":2,"program":28,"isDrum":false},{"pitch":57,"velocity":100,"startTime":206.135053125,"endTime":206.616703875,"instrument":2,"program":28,"isDrum":false},{"pitch":50,"velocity":94,"startTime":206.414869275,"endTime":206.942391525,"instrument":2,"program":28,"isDrum":false},{"pitch":57,"velocity":81,"startTime":206.685511125,"endTime":206.983675875,"instrument":2,"program":28,"isDrum":false},{"pitch":50,"velocity":72,"startTime":206.9538594,"endTime":207.190097625,"instrument":2,"program":28,"isDrum":false},{"pitch":43,"velocity":72,"startTime":206.972208,"endTime":207.17174902500003,"instrument":2,"program":28,"isDrum":false},{"pitch":50,"velocity":101,"startTime":207.24055627500002,"endTime":207.72220702500002,"instrument":2,"program":28,"isDrum":false},{"pitch":43,"velocity":86,"startTime":207.25202415,"endTime":207.465326625,"instrument":2,"program":28,"isDrum":false},{"pitch":57,"velocity":100,"startTime":207.515785275,"endTime":208.272665025,"instrument":2,"program":28,"isDrum":false},{"pitch":43,"velocity":86,"startTime":207.52725315,"endTime":207.969913125,"instrument":2,"program":28,"isDrum":false},{"pitch":50,"velocity":88,"startTime":207.791014275,"endTime":208.51349040000002,"instrument":2,"program":28,"isDrum":false},{"pitch":43,"velocity":82,"startTime":208.061656125,"endTime":209.144223525,"instrument":2,"program":28,"isDrum":false},{"pitch":59,"velocity":103,"startTime":208.066243275,"endTime":209.22449865,"instrument":2,"program":28,"isDrum":false},{"pitch":57,"velocity":89,"startTime":208.3300044,"endTime":208.807068,"instrument":2,"program":28,"isDrum":false},{"pitch":50,"velocity":99,"startTime":208.623582,"endTime":209.37358102500002,"instrument":2,"program":28,"isDrum":false},{"pitch":57,"velocity":72,"startTime":208.89193027500002,"endTime":209.66715862499998,"instrument":2,"program":28,"isDrum":false},{"pitch":43,"velocity":83,"startTime":209.16715927500002,"endTime":209.323122375,"instrument":2,"program":28,"isDrum":false},{"pitch":43,"velocity":103,"startTime":209.17862715,"endTime":209.724498,"instrument":2,"program":28,"isDrum":false},{"pitch":50,"velocity":95,"startTime":209.44926900000002,"endTime":209.924039025,"instrument":2,"program":28,"isDrum":false},{"pitch":57,"velocity":108,"startTime":209.717617275,"endTime":210.48137775,"instrument":2,"program":28,"isDrum":false},{"pitch":43,"velocity":79,"startTime":209.724498,"endTime":210.19468087500002,"instrument":2,"program":28,"isDrum":false},{"pitch":50,"velocity":78,"startTime":209.999727,"endTime":210.749726025,"instrument":2,"program":28,"isDrum":false},{"pitch":43,"velocity":79,"startTime":210.263488125,"endTime":211.346055525,"instrument":2,"program":28,"isDrum":false},{"pitch":59,"velocity":97,"startTime":210.274956,"endTime":211.460734275,"instrument":2,"program":28,"isDrum":false},{"pitch":57,"velocity":84,"startTime":210.54330427500003,"endTime":211.03183575,"instrument":2,"program":28,"isDrum":false},{"pitch":50,"velocity":76,"startTime":210.825414,"endTime":211.6052295,"instrument":2,"program":28,"isDrum":false},{"pitch":57,"velocity":72,"startTime":211.09376227500002,"endTime":211.85752275000002,"instrument":2,"program":28,"isDrum":false},{"pitch":43,"velocity":75,"startTime":211.368991275,"endTime":211.644220275,"instrument":2,"program":28,"isDrum":false},{"pitch":43,"velocity":103,"startTime":211.38045915,"endTime":211.92633,"instrument":2,"program":28,"isDrum":false},{"pitch":50,"velocity":95,"startTime":211.651101,"endTime":212.125871025,"instrument":2,"program":28,"isDrum":false},{"pitch":57,"velocity":108,"startTime":211.919449275,"endTime":212.68320975,"instrument":2,"program":28,"isDrum":false},{"pitch":43,"velocity":79,"startTime":211.92633,"endTime":212.396512875,"instrument":2,"program":28,"isDrum":false},{"pitch":50,"velocity":78,"startTime":212.201559,"endTime":212.95155802500003,"instrument":2,"program":28,"isDrum":false},{"pitch":43,"velocity":79,"startTime":212.465320125,"endTime":213.547887525,"instrument":2,"program":28,"isDrum":false},{"pitch":59,"velocity":97,"startTime":212.476788,"endTime":213.662566275,"instrument":2,"program":28,"isDrum":false},{"pitch":57,"velocity":84,"startTime":212.74513627500002,"endTime":213.23366775,"instrument":2,"program":28,"isDrum":false},{"pitch":50,"velocity":76,"startTime":213.02724600000002,"endTime":213.80706150000003,"instrument":2,"program":28,"isDrum":false},{"pitch":57,"velocity":72,"startTime":213.295594275,"endTime":214.05935475,"instrument":2,"program":28,"isDrum":false},{"pitch":43,"velocity":75,"startTime":213.570823275,"endTime":213.846052275,"instrument":2,"program":28,"isDrum":false},{"pitch":50,"velocity":94,"startTime":213.852933,"endTime":214.323115875,"instrument":2,"program":28,"isDrum":false},{"pitch":43,"velocity":76,"startTime":213.85752015,"endTime":214.075409775,"instrument":2,"program":28,"isDrum":false},{"pitch":57,"velocity":93,"startTime":214.121281275,"endTime":214.873573875,"instrument":2,"program":28,"isDrum":false},{"pitch":43,"velocity":82,"startTime":214.13274915,"endTime":214.598344875,"instrument":2,"program":28,"isDrum":false},{"pitch":50,"velocity":74,"startTime":214.40797815,"endTime":215.15339002500002,"instrument":2,"program":28,"isDrum":false},{"pitch":43,"velocity":79,"startTime":214.67173927500002,"endTime":215.680912275,"instrument":2,"program":28,"isDrum":false},{"pitch":59,"velocity":84,"startTime":214.67862,"endTime":215.8529304,"instrument":2,"program":28,"isDrum":false},{"pitch":57,"velocity":72,"startTime":214.94696827500002,"endTime":215.44696762499998,"instrument":2,"program":28,"isDrum":false},{"pitch":50,"velocity":83,"startTime":215.22907800000002,"endTime":215.84146252500003,"instrument":2,"program":28,"isDrum":false},{"pitch":57,"velocity":80,"startTime":215.50889415,"endTime":215.94467340000003,"instrument":2,"program":28,"isDrum":false},{"pitch":40,"velocity":81,"startTime":215.768068125,"endTime":216.05935215,"instrument":2,"program":28,"isDrum":false},{"pitch":47,"velocity":96,"startTime":216.054765,"endTime":216.529535025,"instrument":2,"program":28,"isDrum":false},{"pitch":40,"velocity":87,"startTime":216.05935215,"endTime":216.277241775,"instrument":2,"program":28,"isDrum":false},{"pitch":54,"velocity":92,"startTime":216.32311327500003,"endTime":216.82769977499999,"instrument":2,"program":28,"isDrum":false},{"pitch":40,"velocity":76,"startTime":216.329994,"endTime":216.77036040000002,"instrument":2,"program":28,"isDrum":false},{"pitch":47,"velocity":83,"startTime":216.59375512500003,"endTime":216.89191987499999,"instrument":2,"program":28,"isDrum":false},{"pitch":55,"velocity":94,"startTime":216.88045200000002,"endTime":219.04099965,"instrument":2,"program":28,"isDrum":false},{"pitch":40,"velocity":81,"startTime":216.88045200000002,"endTime":217.94008365000002,"instrument":2,"program":28,"isDrum":false},{"pitch":54,"velocity":84,"startTime":217.15568100000002,"endTime":217.424029275,"instrument":2,"program":28,"isDrum":false},{"pitch":47,"velocity":84,"startTime":217.424029275,"endTime":218.21072550000002,"instrument":2,"program":28,"isDrum":false},{"pitch":54,"velocity":85,"startTime":217.699258275,"endTime":218.135037525,"instrument":2,"program":28,"isDrum":false},{"pitch":40,"velocity":82,"startTime":217.981368,"endTime":218.502009525,"instrument":2,"program":28,"isDrum":false},{"pitch":47,"velocity":93,"startTime":218.26118415,"endTime":218.76118350000002,"instrument":2,"program":28,"isDrum":false},{"pitch":54,"velocity":100,"startTime":218.531826,"endTime":219.304760775,"instrument":2,"program":28,"isDrum":false},{"pitch":40,"velocity":83,"startTime":218.53641315000002,"endTime":218.76118350000002,"instrument":2,"program":28,"isDrum":false},{"pitch":47,"velocity":97,"startTime":218.80705500000002,"endTime":219.55246687500002,"instrument":2,"program":28,"isDrum":false},{"pitch":40,"velocity":81,"startTime":219.08228400000002,"endTime":219.437788125,"instrument":2,"program":28,"isDrum":false},{"pitch":55,"velocity":102,"startTime":219.08687115,"endTime":220.336869525,"instrument":2,"program":28,"isDrum":false},{"pitch":54,"velocity":71,"startTime":219.357513,"endTime":219.77035650000002,"instrument":2,"program":28,"isDrum":false},{"pitch":47,"velocity":81,"startTime":219.632742,"endTime":220.16026425,"instrument":2,"program":28,"isDrum":false},{"pitch":54,"velocity":82,"startTime":219.907971,"endTime":220.17631927500003,"instrument":2,"program":28,"isDrum":false},{"pitch":48,"velocity":79,"startTime":220.18778715,"endTime":220.37127315,"instrument":2,"program":28,"isDrum":false},{"pitch":55,"velocity":104,"startTime":220.45154827500002,"endTime":220.94466690000002,"instrument":2,"program":28,"isDrum":false},{"pitch":48,"velocity":91,"startTime":220.458429,"endTime":220.62356640000002,"instrument":2,"program":28,"isDrum":false},{"pitch":62,"velocity":103,"startTime":220.72219012500003,"endTime":221.77035390000003,"instrument":2,"program":28,"isDrum":false},{"pitch":48,"velocity":89,"startTime":220.73365800000002,"endTime":221.208428025,"instrument":2,"program":28,"isDrum":false},{"pitch":55,"velocity":93,"startTime":221.01347414999998,"endTime":221.506592775,"instrument":2,"program":28,"isDrum":false},{"pitch":48,"velocity":92,"startTime":221.277235275,"endTime":221.827693275,"instrument":2,"program":28,"isDrum":false},{"pitch":60,"velocity":100,"startTime":221.28411599999998,"endTime":222.24741749999998,"instrument":2,"program":28,"isDrum":false},{"pitch":55,"velocity":85,"startTime":221.55246427500003,"endTime":222.06851865,"instrument":2,"program":28,"isDrum":false},{"pitch":48,"velocity":94,"startTime":221.83457400000003,"endTime":222.263472525,"instrument":2,"program":28,"isDrum":false},{"pitch":55,"velocity":72,"startTime":222.10292227500003,"endTime":222.584573025,"instrument":2,"program":28,"isDrum":false},{"pitch":50,"velocity":100,"startTime":222.38961915,"endTime":222.65338027500002,"instrument":2,"program":28,"isDrum":false},{"pitch":50,"velocity":108,"startTime":222.660261,"endTime":222.79787550000003,"instrument":2,"program":28,"isDrum":false},{"pitch":57,"velocity":89,"startTime":222.660261,"endTime":222.9813615,"instrument":2,"program":28,"isDrum":false},{"pitch":64,"velocity":103,"startTime":222.9171414,"endTime":223.93778227500002,"instrument":2,"program":28,"isDrum":false},{"pitch":50,"velocity":88,"startTime":222.92402212500002,"endTime":223.11897599999998,"instrument":2,"program":28,"isDrum":false},{"pitch":57,"velocity":85,"startTime":223.203838275,"endTime":223.726773375,"instrument":2,"program":28,"isDrum":false},{"pitch":62,"velocity":101,"startTime":223.474480125,"endTime":224.483653125,"instrument":2,"program":28,"isDrum":false},{"pitch":50,"velocity":91,"startTime":223.47906727500003,"endTime":223.983653775,"instrument":2,"program":28,"isDrum":false},{"pitch":57,"velocity":100,"startTime":223.74970912500004,"endTime":224.231359875,"instrument":2,"program":28,"isDrum":false},{"pitch":50,"velocity":94,"startTime":224.02952527500003,"endTime":224.55704752500003,"instrument":2,"program":28,"isDrum":false},{"pitch":57,"velocity":81,"startTime":224.30016712500003,"endTime":224.59833187499999,"instrument":2,"program":28,"isDrum":false},{"pitch":50,"velocity":72,"startTime":224.56851539999997,"endTime":224.804753625,"instrument":2,"program":28,"isDrum":false},{"pitch":43,"velocity":72,"startTime":224.586864,"endTime":224.78640502500002,"instrument":2,"program":28,"isDrum":false},{"pitch":50,"velocity":101,"startTime":224.85521227500004,"endTime":225.336863025,"instrument":2,"program":28,"isDrum":false},{"pitch":43,"velocity":86,"startTime":224.86668014999998,"endTime":225.079982625,"instrument":2,"program":28,"isDrum":false},{"pitch":57,"velocity":100,"startTime":225.130441275,"endTime":225.887321025,"instrument":2,"program":28,"isDrum":false},{"pitch":43,"velocity":86,"startTime":225.14190915,"endTime":225.58456912500003,"instrument":2,"program":28,"isDrum":false},{"pitch":50,"velocity":88,"startTime":225.40567027500003,"endTime":226.1281464,"instrument":2,"program":28,"isDrum":false},{"pitch":43,"velocity":82,"startTime":225.67631212500004,"endTime":226.758879525,"instrument":2,"program":28,"isDrum":false},{"pitch":59,"velocity":103,"startTime":225.680899275,"endTime":226.83915465,"instrument":2,"program":28,"isDrum":false},{"pitch":57,"velocity":89,"startTime":225.94466039999998,"endTime":226.42172399999998,"instrument":2,"program":28,"isDrum":false},{"pitch":50,"velocity":99,"startTime":226.23823800000002,"endTime":226.988237025,"instrument":2,"program":28,"isDrum":false},{"pitch":57,"velocity":72,"startTime":226.50658627500002,"endTime":227.28181462499998,"instrument":2,"program":28,"isDrum":false},{"pitch":43,"velocity":83,"startTime":226.78181527500004,"endTime":226.937778375,"instrument":2,"program":28,"isDrum":false},{"pitch":43,"velocity":103,"startTime":226.79328314999998,"endTime":227.339154,"instrument":2,"program":28,"isDrum":false},{"pitch":50,"velocity":95,"startTime":227.06392499999998,"endTime":227.53869502500004,"instrument":2,"program":28,"isDrum":false},{"pitch":57,"velocity":108,"startTime":227.33227327500003,"endTime":228.09603375,"instrument":2,"program":28,"isDrum":false},{"pitch":43,"velocity":79,"startTime":227.339154,"endTime":227.80933687500004,"instrument":2,"program":28,"isDrum":false},{"pitch":50,"velocity":78,"startTime":227.61438300000003,"endTime":228.364382025,"instrument":2,"program":28,"isDrum":false},{"pitch":43,"velocity":79,"startTime":227.878144125,"endTime":228.96071152500002,"instrument":2,"program":28,"isDrum":false},{"pitch":59,"velocity":97,"startTime":227.889612,"endTime":229.07539027500002,"instrument":2,"program":28,"isDrum":false},{"pitch":57,"velocity":84,"startTime":228.157960275,"endTime":228.64649175,"instrument":2,"program":28,"isDrum":false},{"pitch":50,"velocity":76,"startTime":228.44007,"endTime":229.21988550000003,"instrument":2,"program":28,"isDrum":false},{"pitch":57,"velocity":72,"startTime":228.70841827500004,"endTime":229.47217875,"instrument":2,"program":28,"isDrum":false},{"pitch":43,"velocity":75,"startTime":228.983647275,"endTime":229.25887627500003,"instrument":2,"program":28,"isDrum":false},{"pitch":43,"velocity":103,"startTime":228.99511515,"endTime":229.54098600000003,"instrument":2,"program":28,"isDrum":false},{"pitch":50,"velocity":95,"startTime":229.265757,"endTime":229.740527025,"instrument":2,"program":28,"isDrum":false},{"pitch":57,"velocity":108,"startTime":229.534105275,"endTime":230.29786575000003,"instrument":2,"program":28,"isDrum":false},{"pitch":43,"velocity":79,"startTime":229.54098600000003,"endTime":230.011168875,"instrument":2,"program":28,"isDrum":false},{"pitch":50,"velocity":78,"startTime":229.816215,"endTime":230.56621402500002,"instrument":2,"program":28,"isDrum":false},{"pitch":43,"velocity":79,"startTime":230.07997612500003,"endTime":231.162543525,"instrument":2,"program":28,"isDrum":false},{"pitch":59,"velocity":97,"startTime":230.09144400000002,"endTime":231.27722227499999,"instrument":2,"program":28,"isDrum":false},{"pitch":57,"velocity":84,"startTime":230.35979227500002,"endTime":230.84832375000002,"instrument":2,"program":28,"isDrum":false},{"pitch":50,"velocity":76,"startTime":230.64190200000002,"endTime":231.4217175,"instrument":2,"program":28,"isDrum":false},{"pitch":57,"velocity":72,"startTime":230.910250275,"endTime":231.67401075000004,"instrument":2,"program":28,"isDrum":false},{"pitch":43,"velocity":75,"startTime":231.18547927500003,"endTime":231.460708275,"instrument":2,"program":28,"isDrum":false},{"pitch":50,"velocity":94,"startTime":231.46758900000003,"endTime":231.937771875,"instrument":2,"program":28,"isDrum":false},{"pitch":43,"velocity":76,"startTime":231.47217615,"endTime":231.690065775,"instrument":2,"program":28,"isDrum":false},{"pitch":57,"velocity":93,"startTime":231.73593727500003,"endTime":232.488229875,"instrument":2,"program":28,"isDrum":false},{"pitch":43,"velocity":82,"startTime":231.74740515000002,"endTime":232.21300087500003,"instrument":2,"program":28,"isDrum":false},{"pitch":50,"velocity":74,"startTime":232.02263415,"endTime":232.768046025,"instrument":2,"program":28,"isDrum":false},{"pitch":43,"velocity":79,"startTime":232.28639527500002,"endTime":233.295568275,"instrument":2,"program":28,"isDrum":false},{"pitch":59,"velocity":84,"startTime":232.293276,"endTime":233.46758640000002,"instrument":2,"program":28,"isDrum":false},{"pitch":57,"velocity":72,"startTime":232.56162427500004,"endTime":233.06162362499998,"instrument":2,"program":28,"isDrum":false},{"pitch":50,"velocity":83,"startTime":232.84373399999998,"endTime":233.45611852500002,"instrument":2,"program":28,"isDrum":false},{"pitch":57,"velocity":80,"startTime":233.12355015000003,"endTime":233.55932940000002,"instrument":2,"program":28,"isDrum":false},{"pitch":40,"velocity":81,"startTime":233.38272412500004,"endTime":233.67400815000002,"instrument":2,"program":28,"isDrum":false},{"pitch":47,"velocity":96,"startTime":233.669421,"endTime":234.144191025,"instrument":2,"program":28,"isDrum":false},{"pitch":40,"velocity":87,"startTime":233.67400815000002,"endTime":233.89189777500002,"instrument":2,"program":28,"isDrum":false},{"pitch":54,"velocity":92,"startTime":233.937769275,"endTime":234.442355775,"instrument":2,"program":28,"isDrum":false},{"pitch":40,"velocity":76,"startTime":233.94465000000002,"endTime":234.38501640000004,"instrument":2,"program":28,"isDrum":false},{"pitch":47,"velocity":83,"startTime":234.208411125,"endTime":234.506575875,"instrument":2,"program":28,"isDrum":false},{"pitch":55,"velocity":94,"startTime":234.49510800000002,"endTime":236.65565565000003,"instrument":2,"program":28,"isDrum":false},{"pitch":40,"velocity":81,"startTime":234.49510800000002,"endTime":235.55473965,"instrument":2,"program":28,"isDrum":false},{"pitch":54,"velocity":84,"startTime":234.77033699999998,"endTime":235.03868527500003,"instrument":2,"program":28,"isDrum":false},{"pitch":47,"velocity":84,"startTime":235.03868527500003,"endTime":235.8253815,"instrument":2,"program":28,"isDrum":false},{"pitch":54,"velocity":85,"startTime":235.313914275,"endTime":235.749693525,"instrument":2,"program":28,"isDrum":false},{"pitch":40,"velocity":82,"startTime":235.596024,"endTime":236.11666552500003,"instrument":2,"program":28,"isDrum":false},{"pitch":47,"velocity":93,"startTime":235.87584015,"endTime":236.37583950000004,"instrument":2,"program":28,"isDrum":false},{"pitch":54,"velocity":100,"startTime":236.146482,"endTime":236.919416775,"instrument":2,"program":28,"isDrum":false},{"pitch":40,"velocity":83,"startTime":236.15106915,"endTime":236.37583950000004,"instrument":2,"program":28,"isDrum":false},{"pitch":47,"velocity":97,"startTime":236.42171100000002,"endTime":237.16712287500002,"instrument":2,"program":28,"isDrum":false},{"pitch":40,"velocity":81,"startTime":236.69693999999998,"endTime":237.05244412500002,"instrument":2,"program":28,"isDrum":false},{"pitch":55,"velocity":102,"startTime":236.70152715,"endTime":237.95152552499997,"instrument":2,"program":28,"isDrum":false},{"pitch":54,"velocity":71,"startTime":236.972169,"endTime":237.38501250000002,"instrument":2,"program":28,"isDrum":false},{"pitch":47,"velocity":81,"startTime":237.24739800000003,"endTime":237.77492024999998,"instrument":2,"program":28,"isDrum":false},{"pitch":54,"velocity":82,"startTime":237.522627,"endTime":237.790975275,"instrument":2,"program":28,"isDrum":false},{"pitch":48,"velocity":79,"startTime":237.80244315,"endTime":237.98592915,"instrument":2,"program":28,"isDrum":false},{"pitch":55,"velocity":104,"startTime":238.06620427500002,"endTime":238.55932289999998,"instrument":2,"program":28,"isDrum":false},{"pitch":48,"velocity":91,"startTime":238.073085,"endTime":238.23822240000004,"instrument":2,"program":28,"isDrum":false},{"pitch":62,"velocity":103,"startTime":238.33684612500002,"endTime":239.3850099,"instrument":2,"program":28,"isDrum":false},{"pitch":48,"velocity":89,"startTime":238.34831400000002,"endTime":238.823084025,"instrument":2,"program":28,"isDrum":false},{"pitch":55,"velocity":93,"startTime":238.62813015,"endTime":239.12124877499997,"instrument":2,"program":28,"isDrum":false},{"pitch":48,"velocity":92,"startTime":238.89189127500003,"endTime":239.44234927500003,"instrument":2,"program":28,"isDrum":false},{"pitch":60,"velocity":100,"startTime":238.898772,"endTime":239.8620735,"instrument":2,"program":28,"isDrum":false},{"pitch":55,"velocity":85,"startTime":239.167120275,"endTime":239.68317465,"instrument":2,"program":28,"isDrum":false},{"pitch":48,"velocity":94,"startTime":239.44923,"endTime":239.87812852499997,"instrument":2,"program":28,"isDrum":false},{"pitch":55,"velocity":72,"startTime":239.717578275,"endTime":240.19922902500002,"instrument":2,"program":28,"isDrum":false},{"pitch":50,"velocity":100,"startTime":240.00427515,"endTime":240.26803627500004,"instrument":2,"program":28,"isDrum":false},{"pitch":50,"velocity":108,"startTime":240.27491700000002,"endTime":240.4125315,"instrument":2,"program":28,"isDrum":false},{"pitch":57,"velocity":89,"startTime":240.27491700000002,"endTime":240.59601750000002,"instrument":2,"program":28,"isDrum":false},{"pitch":64,"velocity":103,"startTime":240.53179740000002,"endTime":241.552438275,"instrument":2,"program":28,"isDrum":false},{"pitch":50,"velocity":88,"startTime":240.53867812500005,"endTime":240.733632,"instrument":2,"program":28,"isDrum":false},{"pitch":57,"velocity":85,"startTime":240.81849427500003,"endTime":241.34142937500002,"instrument":2,"program":28,"isDrum":false},{"pitch":62,"velocity":101,"startTime":241.08913612500004,"endTime":242.09830912500001,"instrument":2,"program":28,"isDrum":false},{"pitch":50,"velocity":91,"startTime":241.093723275,"endTime":241.59830977500002,"instrument":2,"program":28,"isDrum":false},{"pitch":57,"velocity":100,"startTime":241.364365125,"endTime":241.84601587500003,"instrument":2,"program":28,"isDrum":false},{"pitch":50,"velocity":94,"startTime":241.644181275,"endTime":242.171703525,"instrument":2,"program":28,"isDrum":false},{"pitch":57,"velocity":81,"startTime":241.914823125,"endTime":242.212987875,"instrument":2,"program":28,"isDrum":false},{"pitch":50,"velocity":72,"startTime":242.1831714,"endTime":242.41940962500001,"instrument":2,"program":28,"isDrum":false},{"pitch":43,"velocity":72,"startTime":242.20152000000002,"endTime":242.401061025,"instrument":2,"program":28,"isDrum":false},{"pitch":50,"velocity":101,"startTime":242.469868275,"endTime":242.95151902500004,"instrument":2,"program":28,"isDrum":false},{"pitch":43,"velocity":86,"startTime":242.48133615,"endTime":242.69463862499998,"instrument":2,"program":28,"isDrum":false},{"pitch":57,"velocity":100,"startTime":242.74509727500003,"endTime":243.50197702500003,"instrument":2,"program":28,"isDrum":false},{"pitch":43,"velocity":86,"startTime":242.75656515000003,"endTime":243.199225125,"instrument":2,"program":28,"isDrum":false},{"pitch":50,"velocity":88,"startTime":243.020326275,"endTime":243.74280240000002,"instrument":2,"program":28,"isDrum":false},{"pitch":43,"velocity":82,"startTime":243.290968125,"endTime":244.37353552500002,"instrument":2,"program":28,"isDrum":false},{"pitch":59,"velocity":103,"startTime":243.29555527500003,"endTime":244.45381064999998,"instrument":2,"program":28,"isDrum":false},{"pitch":57,"velocity":89,"startTime":243.5593164,"endTime":244.03638,"instrument":2,"program":28,"isDrum":false},{"pitch":50,"velocity":99,"startTime":243.852894,"endTime":244.60289302500001,"instrument":2,"program":28,"isDrum":false},{"pitch":57,"velocity":72,"startTime":244.12124227500004,"endTime":244.896470625,"instrument":2,"program":28,"isDrum":false},{"pitch":43,"velocity":83,"startTime":244.396471275,"endTime":244.55243437500002,"instrument":2,"program":28,"isDrum":false},{"pitch":43,"velocity":103,"startTime":244.40793915,"endTime":244.95381000000003,"instrument":2,"program":28,"isDrum":false},{"pitch":50,"velocity":95,"startTime":244.678581,"endTime":245.153351025,"instrument":2,"program":28,"isDrum":false},{"pitch":57,"velocity":108,"startTime":244.946929275,"endTime":245.71068975000003,"instrument":2,"program":28,"isDrum":false},{"pitch":43,"velocity":79,"startTime":244.95381000000003,"endTime":245.423992875,"instrument":2,"program":28,"isDrum":false},{"pitch":50,"velocity":78,"startTime":245.229039,"endTime":245.97903802500002,"instrument":2,"program":28,"isDrum":false},{"pitch":43,"velocity":79,"startTime":245.49280012500003,"endTime":246.575367525,"instrument":2,"program":28,"isDrum":false},{"pitch":59,"velocity":97,"startTime":245.50426800000002,"endTime":246.69004627500004,"instrument":2,"program":28,"isDrum":false},{"pitch":57,"velocity":84,"startTime":245.77261627500002,"endTime":246.26114775000002,"instrument":2,"program":28,"isDrum":false},{"pitch":50,"velocity":76,"startTime":246.05472600000002,"endTime":246.8345415,"instrument":2,"program":28,"isDrum":false},{"pitch":57,"velocity":72,"startTime":246.323074275,"endTime":247.08683474999998,"instrument":2,"program":28,"isDrum":false},{"pitch":43,"velocity":75,"startTime":246.59830327500003,"endTime":246.873532275,"instrument":2,"program":28,"isDrum":false},{"pitch":43,"velocity":103,"startTime":246.60977115000003,"endTime":247.155642,"instrument":2,"program":28,"isDrum":false},{"pitch":50,"velocity":95,"startTime":246.88041300000003,"endTime":247.35518302499997,"instrument":2,"program":28,"isDrum":false},{"pitch":57,"velocity":108,"startTime":247.14876127499997,"endTime":247.91252175,"instrument":2,"program":28,"isDrum":false},{"pitch":43,"velocity":79,"startTime":247.155642,"endTime":247.62582487499998,"instrument":2,"program":28,"isDrum":false},{"pitch":50,"velocity":78,"startTime":247.43087100000002,"endTime":248.180870025,"instrument":2,"program":28,"isDrum":false},{"pitch":43,"velocity":79,"startTime":247.694632125,"endTime":248.77719952500001,"instrument":2,"program":28,"isDrum":false},{"pitch":59,"velocity":97,"startTime":247.7061,"endTime":248.891878275,"instrument":2,"program":28,"isDrum":false},{"pitch":57,"velocity":84,"startTime":247.974448275,"endTime":248.46297975,"instrument":2,"program":28,"isDrum":false},{"pitch":50,"velocity":76,"startTime":248.25655799999998,"endTime":249.03637349999997,"instrument":2,"program":28,"isDrum":false},{"pitch":57,"velocity":72,"startTime":248.52490627499998,"endTime":249.28866675,"instrument":2,"program":28,"isDrum":false},{"pitch":43,"velocity":75,"startTime":248.800135275,"endTime":249.07536427499997,"instrument":2,"program":28,"isDrum":false},{"pitch":50,"velocity":94,"startTime":249.082245,"endTime":249.55242787499998,"instrument":2,"program":28,"isDrum":false},{"pitch":43,"velocity":76,"startTime":249.08683215000002,"endTime":249.30472177500002,"instrument":2,"program":28,"isDrum":false},{"pitch":57,"velocity":93,"startTime":249.350593275,"endTime":250.10288587499997,"instrument":2,"program":28,"isDrum":false},{"pitch":43,"velocity":82,"startTime":249.36206115,"endTime":249.827656875,"instrument":2,"program":28,"isDrum":false},{"pitch":50,"velocity":74,"startTime":249.63729015,"endTime":250.38270202499996,"instrument":2,"program":28,"isDrum":false},{"pitch":43,"velocity":79,"startTime":249.901051275,"endTime":250.91022427500002,"instrument":2,"program":28,"isDrum":false},{"pitch":59,"velocity":84,"startTime":249.90793200000002,"endTime":251.08224239999998,"instrument":2,"program":28,"isDrum":false},{"pitch":57,"velocity":72,"startTime":250.176280275,"endTime":250.676279625,"instrument":2,"program":28,"isDrum":false},{"pitch":50,"velocity":83,"startTime":250.45839,"endTime":251.070774525,"instrument":2,"program":28,"isDrum":false},{"pitch":57,"velocity":80,"startTime":250.73820615,"endTime":251.1739854,"instrument":2,"program":28,"isDrum":false},{"pitch":40,"velocity":81,"startTime":250.997380125,"endTime":251.28866415,"instrument":2,"program":28,"isDrum":false},{"pitch":47,"velocity":96,"startTime":251.28407700000002,"endTime":251.75884702499997,"instrument":2,"program":28,"isDrum":false},{"pitch":40,"velocity":87,"startTime":251.28866415,"endTime":251.50655377500004,"instrument":2,"program":28,"isDrum":false},{"pitch":54,"velocity":92,"startTime":251.55242527499996,"endTime":252.05701177500003,"instrument":2,"program":28,"isDrum":false},{"pitch":40,"velocity":76,"startTime":251.559306,"endTime":251.9996724,"instrument":2,"program":28,"isDrum":false},{"pitch":47,"velocity":83,"startTime":251.82306712499997,"endTime":252.12123187500003,"instrument":2,"program":28,"isDrum":false},{"pitch":55,"velocity":94,"startTime":252.10976399999998,"endTime":254.27031165,"instrument":2,"program":28,"isDrum":false},{"pitch":40,"velocity":81,"startTime":252.10976399999998,"endTime":253.16939564999996,"instrument":2,"program":28,"isDrum":false},{"pitch":54,"velocity":84,"startTime":252.384993,"endTime":252.653341275,"instrument":2,"program":28,"isDrum":false},{"pitch":47,"velocity":84,"startTime":252.653341275,"endTime":253.44003749999996,"instrument":2,"program":28,"isDrum":false},{"pitch":54,"velocity":85,"startTime":252.92857027499997,"endTime":253.36434952500002,"instrument":2,"program":28,"isDrum":false},{"pitch":40,"velocity":82,"startTime":253.21068000000002,"endTime":253.731321525,"instrument":2,"program":28,"isDrum":false},{"pitch":47,"velocity":93,"startTime":253.49049615,"endTime":253.9904955,"instrument":2,"program":28,"isDrum":false},{"pitch":54,"velocity":100,"startTime":253.76113800000002,"endTime":254.53407277500003,"instrument":2,"program":28,"isDrum":false},{"pitch":40,"velocity":83,"startTime":253.76572514999998,"endTime":253.9904955,"instrument":2,"program":28,"isDrum":false},{"pitch":47,"velocity":97,"startTime":254.03636699999998,"endTime":254.781778875,"instrument":2,"program":28,"isDrum":false},{"pitch":40,"velocity":81,"startTime":254.311596,"endTime":254.66710012500005,"instrument":2,"program":28,"isDrum":false},{"pitch":55,"velocity":102,"startTime":254.31618315000003,"endTime":255.56618152500005,"instrument":2,"program":28,"isDrum":false},{"pitch":54,"velocity":71,"startTime":254.58682500000003,"endTime":254.99966849999998,"instrument":2,"program":28,"isDrum":false},{"pitch":47,"velocity":81,"startTime":254.862054,"endTime":255.38957625,"instrument":2,"program":28,"isDrum":false},{"pitch":54,"velocity":82,"startTime":255.13728300000002,"endTime":255.40563127499996,"instrument":2,"program":28,"isDrum":false},{"pitch":48,"velocity":79,"startTime":255.41709915,"endTime":255.60058515000003,"instrument":2,"program":28,"isDrum":false},{"pitch":55,"velocity":104,"startTime":255.680860275,"endTime":256.1739789,"instrument":2,"program":28,"isDrum":false},{"pitch":48,"velocity":91,"startTime":255.68774100000002,"endTime":255.8528784,"instrument":2,"program":28,"isDrum":false},{"pitch":62,"velocity":103,"startTime":255.951502125,"endTime":256.9996659,"instrument":2,"program":28,"isDrum":false},{"pitch":48,"velocity":89,"startTime":255.96296999999998,"endTime":256.437740025,"instrument":2,"program":28,"isDrum":false},{"pitch":55,"velocity":93,"startTime":256.24278615000003,"endTime":256.73590477500005,"instrument":2,"program":28,"isDrum":false},{"pitch":48,"velocity":92,"startTime":256.506547275,"endTime":257.057005275,"instrument":2,"program":28,"isDrum":false},{"pitch":60,"velocity":100,"startTime":256.51342800000003,"endTime":257.47672950000003,"instrument":2,"program":28,"isDrum":false},{"pitch":55,"velocity":85,"startTime":256.78177627499997,"endTime":257.29783065,"instrument":2,"program":28,"isDrum":false},{"pitch":48,"velocity":94,"startTime":257.063886,"endTime":257.49278452500005,"instrument":2,"program":28,"isDrum":false},{"pitch":55,"velocity":72,"startTime":257.33223427499996,"endTime":257.813885025,"instrument":2,"program":28,"isDrum":false},{"pitch":50,"velocity":100,"startTime":257.61893115,"endTime":257.882692275,"instrument":2,"program":28,"isDrum":false},{"pitch":50,"velocity":108,"startTime":257.889573,"endTime":258.0271875,"instrument":2,"program":28,"isDrum":false},{"pitch":57,"velocity":89,"startTime":257.889573,"endTime":258.21067350000004,"instrument":2,"program":28,"isDrum":false},{"pitch":64,"velocity":103,"startTime":258.14645340000004,"endTime":259.167094275,"instrument":2,"program":28,"isDrum":false},{"pitch":50,"velocity":88,"startTime":258.153334125,"endTime":258.348288,"instrument":2,"program":28,"isDrum":false},{"pitch":57,"velocity":85,"startTime":258.433150275,"endTime":258.956085375,"instrument":2,"program":28,"isDrum":false},{"pitch":62,"velocity":101,"startTime":258.703792125,"endTime":259.712965125,"instrument":2,"program":28,"isDrum":false},{"pitch":50,"velocity":91,"startTime":258.70837927499997,"endTime":259.21296577500004,"instrument":2,"program":28,"isDrum":false},{"pitch":57,"velocity":100,"startTime":258.979021125,"endTime":259.460671875,"instrument":2,"program":28,"isDrum":false},{"pitch":50,"velocity":94,"startTime":259.25883727499996,"endTime":259.786359525,"instrument":2,"program":28,"isDrum":false},{"pitch":57,"velocity":81,"startTime":259.52947912499997,"endTime":259.82764387500004,"instrument":2,"program":28,"isDrum":false},{"pitch":50,"velocity":72,"startTime":259.7978274,"endTime":260.03406562500004,"instrument":2,"program":28,"isDrum":false},{"pitch":43,"velocity":72,"startTime":259.816176,"endTime":260.01571702499996,"instrument":2,"program":28,"isDrum":false},{"pitch":50,"velocity":101,"startTime":260.084524275,"endTime":260.566175025,"instrument":2,"program":28,"isDrum":false},{"pitch":43,"velocity":86,"startTime":260.09599215000003,"endTime":260.309294625,"instrument":2,"program":28,"isDrum":false},{"pitch":57,"velocity":100,"startTime":260.359753275,"endTime":261.116633025,"instrument":2,"program":28,"isDrum":false},{"pitch":43,"velocity":86,"startTime":260.37122115,"endTime":260.813881125,"instrument":2,"program":28,"isDrum":false},{"pitch":50,"velocity":88,"startTime":260.63498227499997,"endTime":261.3574584,"instrument":2,"program":28,"isDrum":false},{"pitch":43,"velocity":82,"startTime":260.905624125,"endTime":261.988191525,"instrument":2,"program":28,"isDrum":false},{"pitch":59,"velocity":103,"startTime":260.910211275,"endTime":262.06846665,"instrument":2,"program":28,"isDrum":false},{"pitch":57,"velocity":89,"startTime":261.1739724,"endTime":261.65103600000003,"instrument":2,"program":28,"isDrum":false},{"pitch":50,"velocity":99,"startTime":261.46755,"endTime":262.217549025,"instrument":2,"program":28,"isDrum":false},{"pitch":57,"velocity":72,"startTime":261.735898275,"endTime":262.51112662500003,"instrument":2,"program":28,"isDrum":false},{"pitch":43,"velocity":83,"startTime":262.011127275,"endTime":262.16709037500004,"instrument":2,"program":28,"isDrum":false},{"pitch":43,"velocity":82,"startTime":262.02259515000003,"endTime":262.568466,"instrument":2,"program":28,"isDrum":false},{"pitch":50,"velocity":76,"startTime":262.29323700000003,"endTime":262.768007025,"instrument":2,"program":28,"isDrum":false},{"pitch":57,"velocity":86,"startTime":262.56158527499997,"endTime":263.32534575,"instrument":2,"program":28,"isDrum":false},{"pitch":43,"velocity":63,"startTime":262.568466,"endTime":263.038648875,"instrument":2,"program":28,"isDrum":false},{"pitch":50,"velocity":62,"startTime":262.843695,"endTime":263.593694025,"instrument":2,"program":28,"isDrum":false},{"pitch":43,"velocity":63,"startTime":263.107456125,"endTime":264.190023525,"instrument":2,"program":28,"isDrum":false},{"pitch":59,"velocity":78,"startTime":263.118924,"endTime":264.304702275,"instrument":2,"program":28,"isDrum":false},{"pitch":57,"velocity":67,"startTime":263.387272275,"endTime":263.87580375,"instrument":2,"program":28,"isDrum":false},{"pitch":50,"velocity":61,"startTime":263.669382,"endTime":264.44919749999997,"instrument":2,"program":28,"isDrum":false},{"pitch":57,"velocity":58,"startTime":263.937730275,"endTime":264.70149075,"instrument":2,"program":28,"isDrum":false},{"pitch":43,"velocity":60,"startTime":264.212959275,"endTime":264.48818827499997,"instrument":2,"program":28,"isDrum":false},{"pitch":43,"velocity":67,"startTime":264.22442715,"endTime":264.770298,"instrument":2,"program":28,"isDrum":false},{"pitch":50,"velocity":62,"startTime":264.495069,"endTime":264.969839025,"instrument":2,"program":28,"isDrum":false},{"pitch":57,"velocity":70,"startTime":264.763417275,"endTime":265.52717775,"instrument":2,"program":28,"isDrum":false},{"pitch":43,"velocity":51,"startTime":264.770298,"endTime":265.240480875,"instrument":2,"program":28,"isDrum":false},{"pitch":50,"velocity":51,"startTime":265.045527,"endTime":265.79552602499996,"instrument":2,"program":28,"isDrum":false},{"pitch":43,"velocity":51,"startTime":265.30928812499997,"endTime":266.391855525,"instrument":2,"program":28,"isDrum":false},{"pitch":59,"velocity":63,"startTime":265.320756,"endTime":266.50653427500004,"instrument":2,"program":28,"isDrum":false},{"pitch":57,"velocity":55,"startTime":265.589104275,"endTime":266.07763575,"instrument":2,"program":28,"isDrum":false},{"pitch":50,"velocity":49,"startTime":265.871214,"endTime":266.6510295,"instrument":2,"program":28,"isDrum":false},{"pitch":57,"velocity":47,"startTime":266.139562275,"endTime":266.90332275000003,"instrument":2,"program":28,"isDrum":false},{"pitch":43,"velocity":49,"startTime":266.41479127499997,"endTime":266.690020275,"instrument":2,"program":28,"isDrum":false},{"pitch":50,"velocity":42,"startTime":266.696901,"endTime":267.167083875,"instrument":2,"program":28,"isDrum":false},{"pitch":43,"velocity":34,"startTime":266.70148815,"endTime":266.91937777500004,"instrument":2,"program":28,"isDrum":false},{"pitch":57,"velocity":42,"startTime":266.96524927499996,"endTime":267.717541875,"instrument":2,"program":28,"isDrum":false},{"pitch":43,"velocity":37,"startTime":266.97671715,"endTime":267.44231287499997,"instrument":2,"program":28,"isDrum":false},{"pitch":50,"velocity":33,"startTime":267.25194615,"endTime":267.997358025,"instrument":2,"program":28,"isDrum":false},{"pitch":43,"velocity":36,"startTime":267.515707275,"endTime":268.524880275,"instrument":2,"program":28,"isDrum":false},{"pitch":59,"velocity":38,"startTime":267.522588,"endTime":268.6968984,"instrument":2,"program":28,"isDrum":false},{"pitch":57,"velocity":32,"startTime":267.790936275,"endTime":268.29093562500003,"instrument":2,"program":28,"isDrum":false},{"pitch":50,"velocity":37,"startTime":268.07304600000003,"endTime":268.68543052499996,"instrument":2,"program":28,"isDrum":false},{"pitch":57,"velocity":36,"startTime":268.35286215,"endTime":268.78864139999996,"instrument":2,"program":28,"isDrum":false},{"pitch":40,"velocity":36,"startTime":268.612036125,"endTime":268.90332015,"instrument":2,"program":28,"isDrum":false},{"pitch":47,"velocity":19,"startTime":268.898733,"endTime":269.373503025,"instrument":2,"program":28,"isDrum":false},{"pitch":40,"velocity":17,"startTime":268.90332015,"endTime":269.121209775,"instrument":2,"program":28,"isDrum":false},{"pitch":54,"velocity":18,"startTime":269.167081275,"endTime":269.671667775,"instrument":2,"program":28,"isDrum":false},{"pitch":40,"velocity":15,"startTime":269.173962,"endTime":269.6143284,"instrument":2,"program":28,"isDrum":false},{"pitch":47,"velocity":17,"startTime":269.437723125,"endTime":269.735887875,"instrument":2,"program":28,"isDrum":false},{"pitch":55,"velocity":19,"startTime":269.72442,"endTime":271.88496764999996,"instrument":2,"program":28,"isDrum":false},{"pitch":40,"velocity":16,"startTime":269.72442,"endTime":270.78405165,"instrument":2,"program":28,"isDrum":false},{"pitch":54,"velocity":17,"startTime":269.99964900000003,"endTime":270.26799727499997,"instrument":2,"program":28,"isDrum":false},{"pitch":47,"velocity":17,"startTime":270.26799727499997,"endTime":271.0546935,"instrument":2,"program":28,"isDrum":false},{"pitch":54,"velocity":17,"startTime":270.543226275,"endTime":270.97900552500005,"instrument":2,"program":28,"isDrum":false},{"pitch":40,"velocity":8,"startTime":270.825336,"endTime":271.345977525,"instrument":2,"program":28,"isDrum":false},{"pitch":47,"velocity":9,"startTime":271.10515215,"endTime":271.6051515,"instrument":2,"program":28,"isDrum":false},{"pitch":54,"velocity":10,"startTime":271.375794,"endTime":272.14872877500005,"instrument":2,"program":28,"isDrum":false},{"pitch":40,"velocity":8,"startTime":271.38038115,"endTime":271.6051515,"instrument":2,"program":28,"isDrum":false},{"pitch":47,"velocity":10,"startTime":271.651023,"endTime":272.396434875,"instrument":2,"program":28,"isDrum":false},{"pitch":40,"velocity":8,"startTime":271.92625200000003,"endTime":272.281756125,"instrument":2,"program":28,"isDrum":false},{"pitch":55,"velocity":10,"startTime":271.93083915,"endTime":273.180837525,"instrument":2,"program":28,"isDrum":false},{"pitch":54,"velocity":7,"startTime":272.201481,"endTime":272.6143245,"instrument":2,"program":28,"isDrum":false},{"pitch":47,"velocity":8,"startTime":272.47671,"endTime":273.00423225000003,"instrument":2,"program":28,"isDrum":false},{"pitch":54,"velocity":8,"startTime":272.751939,"endTime":273.020287275,"instrument":2,"program":28,"isDrum":false},{"pitch":48,"velocity":1,"startTime":273.03175515,"endTime":273.21524115,"instrument":2,"program":28,"isDrum":false},{"pitch":55,"velocity":1,"startTime":273.295516275,"endTime":273.7886349,"instrument":2,"program":28,"isDrum":false},{"pitch":48,"velocity":1,"startTime":273.302397,"endTime":273.4675344,"instrument":2,"program":28,"isDrum":false},{"pitch":62,"velocity":1,"startTime":273.566158125,"endTime":274.6143219,"instrument":2,"program":28,"isDrum":false},{"pitch":48,"velocity":1,"startTime":273.577626,"endTime":274.052396025,"instrument":2,"program":28,"isDrum":false},{"pitch":55,"velocity":1,"startTime":273.85744215,"endTime":274.350560775,"instrument":2,"program":28,"isDrum":false},{"pitch":48,"velocity":1,"startTime":274.12120327499997,"endTime":274.67166127499996,"instrument":2,"program":28,"isDrum":false},{"pitch":60,"velocity":1,"startTime":274.128084,"endTime":275.0913855,"instrument":2,"program":28,"isDrum":false},{"pitch":55,"velocity":1,"startTime":274.396432275,"endTime":274.91248665,"instrument":2,"program":28,"isDrum":false},{"pitch":48,"velocity":1,"startTime":274.678542,"endTime":275.107440525,"instrument":2,"program":28,"isDrum":false},{"pitch":55,"velocity":1,"startTime":274.946890275,"endTime":275.42854102499996,"instrument":2,"program":28,"isDrum":false},{"pitch":67,"velocity":97,"startTime":121.10076000000001,"endTime":121.67415375000002,"instrument":3,"program":50,"isDrum":false},{"pitch":69,"velocity":102,"startTime":121.651218,"endTime":122.22461175000001,"instrument":3,"program":50,"isDrum":false},{"pitch":71,"velocity":91,"startTime":122.20167600000002,"endTime":122.77506975000003,"instrument":3,"program":50,"isDrum":false},{"pitch":76,"velocity":95,"startTime":122.75213400000001,"endTime":123.32552775000002,"instrument":3,"program":50,"isDrum":false},{"pitch":74,"velocity":95,"startTime":123.302592,"endTime":127.12598152500001,"instrument":3,"program":50,"isDrum":false},{"pitch":79,"velocity":91,"startTime":127.155798,"endTime":127.50900855,"instrument":3,"program":50,"isDrum":false},{"pitch":78,"velocity":91,"startTime":127.431027,"endTime":128.94478650000002,"instrument":3,"program":50,"isDrum":false},{"pitch":74,"velocity":89,"startTime":128.807172,"endTime":129.90808800000002,"instrument":3,"program":50,"isDrum":false},{"pitch":67,"velocity":86,"startTime":129.90808800000002,"endTime":132.171846525,"instrument":3,"program":50,"isDrum":false},{"pitch":71,"velocity":94,"startTime":132.10992000000002,"endTime":135.91954807500002,"instrument":3,"program":50,"isDrum":false},{"pitch":76,"velocity":86,"startTime":135.96312600000002,"endTime":136.3392723,"instrument":3,"program":50,"isDrum":false},{"pitch":74,"velocity":89,"startTime":136.238355,"endTime":138.703948125,"instrument":3,"program":50,"isDrum":false},{"pitch":67,"velocity":97,"startTime":138.715416,"endTime":139.28880975,"instrument":3,"program":50,"isDrum":false},{"pitch":69,"velocity":102,"startTime":139.265874,"endTime":139.83926775,"instrument":3,"program":50,"isDrum":false},{"pitch":71,"velocity":91,"startTime":139.81633200000002,"endTime":140.38972575000003,"instrument":3,"program":50,"isDrum":false},{"pitch":76,"velocity":95,"startTime":140.36679,"endTime":140.94018375000002,"instrument":3,"program":50,"isDrum":false},{"pitch":74,"velocity":95,"startTime":140.917248,"endTime":144.740637525,"instrument":3,"program":50,"isDrum":false},{"pitch":79,"velocity":91,"startTime":144.770454,"endTime":145.12366455,"instrument":3,"program":50,"isDrum":false},{"pitch":78,"velocity":91,"startTime":145.045683,"endTime":146.55944250000002,"instrument":3,"program":50,"isDrum":false},{"pitch":74,"velocity":89,"startTime":146.421828,"endTime":147.52274400000002,"instrument":3,"program":50,"isDrum":false},{"pitch":67,"velocity":86,"startTime":147.52274400000002,"endTime":149.786502525,"instrument":3,"program":50,"isDrum":false},{"pitch":71,"velocity":94,"startTime":149.724576,"endTime":153.53420407500002,"instrument":3,"program":50,"isDrum":false},{"pitch":76,"velocity":86,"startTime":153.577782,"endTime":153.9539283,"instrument":3,"program":50,"isDrum":false},{"pitch":74,"velocity":89,"startTime":153.853011,"endTime":156.318604125,"instrument":3,"program":50,"isDrum":false},{"pitch":67,"velocity":97,"startTime":156.330072,"endTime":156.90346575,"instrument":3,"program":50,"isDrum":false},{"pitch":69,"velocity":102,"startTime":156.88053000000002,"endTime":157.45392375000003,"instrument":3,"program":50,"isDrum":false},{"pitch":71,"velocity":91,"startTime":157.430988,"endTime":158.00438175000002,"instrument":3,"program":50,"isDrum":false},{"pitch":76,"velocity":95,"startTime":157.981446,"endTime":158.55483975,"instrument":3,"program":50,"isDrum":false},{"pitch":74,"velocity":95,"startTime":158.531904,"endTime":162.355293525,"instrument":3,"program":50,"isDrum":false},{"pitch":79,"velocity":91,"startTime":162.38511,"endTime":162.73832055,"instrument":3,"program":50,"isDrum":false},{"pitch":78,"velocity":91,"startTime":162.66033900000002,"endTime":164.1740985,"instrument":3,"program":50,"isDrum":false},{"pitch":74,"velocity":89,"startTime":164.036484,"endTime":165.1374,"instrument":3,"program":50,"isDrum":false},{"pitch":67,"velocity":86,"startTime":165.1374,"endTime":167.40115852500003,"instrument":3,"program":50,"isDrum":false},{"pitch":71,"velocity":94,"startTime":167.339232,"endTime":171.14886007500002,"instrument":3,"program":50,"isDrum":false},{"pitch":76,"velocity":86,"startTime":171.192438,"endTime":171.5685843,"instrument":3,"program":50,"isDrum":false},{"pitch":74,"velocity":89,"startTime":171.467667,"endTime":173.93326012500003,"instrument":3,"program":50,"isDrum":false},{"pitch":67,"velocity":97,"startTime":173.944728,"endTime":174.51812175,"instrument":3,"program":50,"isDrum":false},{"pitch":69,"velocity":102,"startTime":174.49518600000002,"endTime":175.06857975000003,"instrument":3,"program":50,"isDrum":false},{"pitch":71,"velocity":91,"startTime":175.045644,"endTime":175.61903775000002,"instrument":3,"program":50,"isDrum":false},{"pitch":76,"velocity":95,"startTime":175.596102,"endTime":176.16949575,"instrument":3,"program":50,"isDrum":false},{"pitch":74,"velocity":95,"startTime":176.14656000000002,"endTime":179.969949525,"instrument":3,"program":50,"isDrum":false},{"pitch":79,"velocity":91,"startTime":179.999766,"endTime":180.35297655,"instrument":3,"program":50,"isDrum":false},{"pitch":78,"velocity":91,"startTime":180.27499500000002,"endTime":181.7887545,"instrument":3,"program":50,"isDrum":false},{"pitch":74,"velocity":89,"startTime":181.65114,"endTime":182.752056,"instrument":3,"program":50,"isDrum":false},{"pitch":67,"velocity":86,"startTime":182.752056,"endTime":185.01581452500002,"instrument":3,"program":50,"isDrum":false},{"pitch":71,"velocity":94,"startTime":184.953888,"endTime":188.763516075,"instrument":3,"program":50,"isDrum":false},{"pitch":76,"velocity":86,"startTime":188.807094,"endTime":189.18324030000002,"instrument":3,"program":50,"isDrum":false},{"pitch":74,"velocity":89,"startTime":189.082323,"endTime":191.54791612500003,"instrument":3,"program":50,"isDrum":false},{"pitch":67,"velocity":97,"startTime":191.559384,"endTime":192.13277775000003,"instrument":3,"program":50,"isDrum":false},{"pitch":69,"velocity":102,"startTime":192.10984200000001,"endTime":192.68323575000002,"instrument":3,"program":50,"isDrum":false},{"pitch":71,"velocity":91,"startTime":192.6603,"endTime":193.23369375000001,"instrument":3,"program":50,"isDrum":false},{"pitch":76,"velocity":95,"startTime":193.210758,"endTime":193.78415175,"instrument":3,"program":50,"isDrum":false},{"pitch":74,"velocity":95,"startTime":193.76121600000002,"endTime":197.584605525,"instrument":3,"program":50,"isDrum":false},{"pitch":79,"velocity":91,"startTime":197.61442200000002,"endTime":197.96763255,"instrument":3,"program":50,"isDrum":false},{"pitch":78,"velocity":91,"startTime":197.88965100000001,"endTime":199.4034105,"instrument":3,"program":50,"isDrum":false},{"pitch":74,"velocity":89,"startTime":199.265796,"endTime":200.366712,"instrument":3,"program":50,"isDrum":false},{"pitch":67,"velocity":86,"startTime":200.366712,"endTime":202.63047052500002,"instrument":3,"program":50,"isDrum":false},{"pitch":71,"velocity":94,"startTime":202.568544,"endTime":206.378172075,"instrument":3,"program":50,"isDrum":false},{"pitch":76,"velocity":86,"startTime":206.42175,"endTime":206.79789630000002,"instrument":3,"program":50,"isDrum":false},{"pitch":74,"velocity":89,"startTime":206.696979,"endTime":209.16257212500003,"instrument":3,"program":50,"isDrum":false},{"pitch":67,"velocity":97,"startTime":209.17404000000002,"endTime":209.74743375000003,"instrument":3,"program":50,"isDrum":false},{"pitch":69,"velocity":102,"startTime":209.724498,"endTime":210.29789175000002,"instrument":3,"program":50,"isDrum":false},{"pitch":71,"velocity":91,"startTime":210.274956,"endTime":210.84834975,"instrument":3,"program":50,"isDrum":false},{"pitch":76,"velocity":95,"startTime":210.825414,"endTime":211.39880775000003,"instrument":3,"program":50,"isDrum":false},{"pitch":74,"velocity":95,"startTime":211.37587200000002,"endTime":215.199261525,"instrument":3,"program":50,"isDrum":false},{"pitch":79,"velocity":91,"startTime":215.22907800000002,"endTime":215.58228855,"instrument":3,"program":50,"isDrum":false},{"pitch":78,"velocity":91,"startTime":215.504307,"endTime":217.0180665,"instrument":3,"program":50,"isDrum":false},{"pitch":74,"velocity":89,"startTime":216.88045200000002,"endTime":217.981368,"instrument":3,"program":50,"isDrum":false},{"pitch":67,"velocity":86,"startTime":217.981368,"endTime":220.24512652500002,"instrument":3,"program":50,"isDrum":false},{"pitch":71,"velocity":94,"startTime":220.1832,"endTime":223.99282807500003,"instrument":3,"program":50,"isDrum":false},{"pitch":76,"velocity":86,"startTime":224.036406,"endTime":224.41255230000002,"instrument":3,"program":50,"isDrum":false},{"pitch":74,"velocity":89,"startTime":224.31163500000002,"endTime":226.77722812500002,"instrument":3,"program":50,"isDrum":false},{"pitch":67,"velocity":97,"startTime":226.78869600000002,"endTime":227.36208975,"instrument":3,"program":50,"isDrum":false},{"pitch":69,"velocity":102,"startTime":227.339154,"endTime":227.91254775000004,"instrument":3,"program":50,"isDrum":false},{"pitch":71,"velocity":91,"startTime":227.889612,"endTime":228.46300575000004,"instrument":3,"program":50,"isDrum":false},{"pitch":76,"velocity":95,"startTime":228.44007,"endTime":229.01346375000003,"instrument":3,"program":50,"isDrum":false},{"pitch":74,"velocity":95,"startTime":228.99052799999998,"endTime":232.81391752500002,"instrument":3,"program":50,"isDrum":false},{"pitch":79,"velocity":91,"startTime":232.84373399999998,"endTime":233.19694455,"instrument":3,"program":50,"isDrum":false},{"pitch":78,"velocity":91,"startTime":233.118963,"endTime":234.6327225,"instrument":3,"program":50,"isDrum":false},{"pitch":74,"velocity":89,"startTime":234.49510800000002,"endTime":235.596024,"instrument":3,"program":50,"isDrum":false},{"pitch":67,"velocity":86,"startTime":235.596024,"endTime":237.859782525,"instrument":3,"program":50,"isDrum":false},{"pitch":71,"velocity":94,"startTime":237.79785600000002,"endTime":241.607484075,"instrument":3,"program":50,"isDrum":false},{"pitch":76,"velocity":86,"startTime":241.65106200000002,"endTime":242.02720829999998,"instrument":3,"program":50,"isDrum":false},{"pitch":74,"velocity":89,"startTime":241.926291,"endTime":244.39188412500005,"instrument":3,"program":50,"isDrum":false},{"pitch":67,"velocity":97,"startTime":244.40335199999998,"endTime":244.97674575000002,"instrument":3,"program":50,"isDrum":false},{"pitch":69,"velocity":102,"startTime":244.95381000000003,"endTime":245.52720375,"instrument":3,"program":50,"isDrum":false},{"pitch":71,"velocity":91,"startTime":245.50426800000002,"endTime":246.07766175,"instrument":3,"program":50,"isDrum":false},{"pitch":76,"velocity":95,"startTime":246.05472600000002,"endTime":246.62811975,"instrument":3,"program":50,"isDrum":false},{"pitch":74,"velocity":95,"startTime":246.605184,"endTime":250.428573525,"instrument":3,"program":50,"isDrum":false},{"pitch":79,"velocity":91,"startTime":250.45839,"endTime":250.81160054999998,"instrument":3,"program":50,"isDrum":false},{"pitch":78,"velocity":91,"startTime":250.73361900000003,"endTime":252.24737850000002,"instrument":3,"program":50,"isDrum":false},{"pitch":74,"velocity":89,"startTime":252.10976399999998,"endTime":253.21068000000002,"instrument":3,"program":50,"isDrum":false},{"pitch":67,"velocity":86,"startTime":253.21068000000002,"endTime":255.47443852499998,"instrument":3,"program":50,"isDrum":false},{"pitch":71,"velocity":94,"startTime":255.412512,"endTime":259.222140075,"instrument":3,"program":50,"isDrum":false},{"pitch":76,"velocity":86,"startTime":259.265718,"endTime":259.64186429999995,"instrument":3,"program":50,"isDrum":false},{"pitch":74,"velocity":89,"startTime":259.540947,"endTime":262.006540125,"instrument":3,"program":50,"isDrum":false},{"pitch":67,"velocity":78,"startTime":262.018008,"endTime":262.59140175,"instrument":3,"program":50,"isDrum":false},{"pitch":69,"velocity":82,"startTime":262.568466,"endTime":263.14185975,"instrument":3,"program":50,"isDrum":false},{"pitch":71,"velocity":73,"startTime":263.118924,"endTime":263.69231775,"instrument":3,"program":50,"isDrum":false},{"pitch":76,"velocity":76,"startTime":263.669382,"endTime":264.24277574999996,"instrument":3,"program":50,"isDrum":false},{"pitch":74,"velocity":62,"startTime":264.21984000000003,"endTime":268.043229525,"instrument":3,"program":50,"isDrum":false},{"pitch":79,"velocity":41,"startTime":268.07304600000003,"endTime":268.42625655,"instrument":3,"program":50,"isDrum":false},{"pitch":78,"velocity":41,"startTime":268.348275,"endTime":269.8620345,"instrument":3,"program":50,"isDrum":false},{"pitch":74,"velocity":18,"startTime":269.72442,"endTime":270.825336,"instrument":3,"program":50,"isDrum":false},{"pitch":67,"velocity":9,"startTime":270.825336,"endTime":273.089094525,"instrument":3,"program":50,"isDrum":false},{"pitch":71,"velocity":1,"startTime":273.027168,"endTime":276.836796075,"instrument":3,"program":50,"isDrum":false},{"pitch":62,"velocity":94,"startTime":148.348431,"endTime":149.12824650000002,"instrument":4,"program":52,"isDrum":false},{"pitch":62,"velocity":98,"startTime":150.550263,"endTime":151.35301425,"instrument":4,"program":52,"isDrum":false},{"pitch":62,"velocity":100,"startTime":152.752095,"endTime":153.547965525,"instrument":4,"program":52,"isDrum":false},{"pitch":62,"velocity":102,"startTime":154.95392700000002,"endTime":155.779614,"instrument":4,"program":52,"isDrum":false},{"pitch":62,"velocity":101,"startTime":157.15575900000002,"endTime":157.974565275,"instrument":4,"program":52,"isDrum":false},{"pitch":62,"velocity":94,"startTime":159.357591,"endTime":160.153461525,"instrument":4,"program":52,"isDrum":false},{"pitch":62,"velocity":100,"startTime":161.559423,"endTime":162.3667614,"instrument":4,"program":52,"isDrum":false},{"pitch":62,"velocity":94,"startTime":163.761255,"endTime":164.54107050000002,"instrument":4,"program":52,"isDrum":false},{"pitch":62,"velocity":98,"startTime":165.963087,"endTime":166.76583825,"instrument":4,"program":52,"isDrum":false},{"pitch":62,"velocity":100,"startTime":168.164919,"endTime":168.960789525,"instrument":4,"program":52,"isDrum":false},{"pitch":62,"velocity":102,"startTime":170.36675100000002,"endTime":171.192438,"instrument":4,"program":52,"isDrum":false},{"pitch":62,"velocity":101,"startTime":172.56858300000002,"endTime":173.387389275,"instrument":4,"program":52,"isDrum":false},{"pitch":62,"velocity":94,"startTime":174.770415,"endTime":175.566285525,"instrument":4,"program":52,"isDrum":false},{"pitch":62,"velocity":100,"startTime":176.972247,"endTime":177.7795854,"instrument":4,"program":52,"isDrum":false},{"pitch":62,"velocity":94,"startTime":179.174079,"endTime":179.95389450000002,"instrument":4,"program":52,"isDrum":false},{"pitch":62,"velocity":98,"startTime":181.375911,"endTime":182.17866225,"instrument":4,"program":52,"isDrum":false},{"pitch":62,"velocity":100,"startTime":183.577743,"endTime":184.373613525,"instrument":4,"program":52,"isDrum":false},{"pitch":62,"velocity":102,"startTime":185.779575,"endTime":186.605262,"instrument":4,"program":52,"isDrum":false},{"pitch":62,"velocity":101,"startTime":187.98140700000002,"endTime":188.800213275,"instrument":4,"program":52,"isDrum":false},{"pitch":62,"velocity":94,"startTime":190.18323900000001,"endTime":190.979109525,"instrument":4,"program":52,"isDrum":false},{"pitch":62,"velocity":100,"startTime":192.385071,"endTime":193.1924094,"instrument":4,"program":52,"isDrum":false},{"pitch":62,"velocity":94,"startTime":194.586903,"endTime":195.36671850000002,"instrument":4,"program":52,"isDrum":false},{"pitch":62,"velocity":98,"startTime":196.788735,"endTime":197.59148625,"instrument":4,"program":52,"isDrum":false},{"pitch":62,"velocity":100,"startTime":198.990567,"endTime":199.786437525,"instrument":4,"program":52,"isDrum":false},{"pitch":62,"velocity":102,"startTime":201.192399,"endTime":202.018086,"instrument":4,"program":52,"isDrum":false},{"pitch":62,"velocity":101,"startTime":203.39423100000002,"endTime":204.213037275,"instrument":4,"program":52,"isDrum":false},{"pitch":62,"velocity":94,"startTime":205.59606300000002,"endTime":206.391933525,"instrument":4,"program":52,"isDrum":false},{"pitch":62,"velocity":100,"startTime":207.797895,"endTime":208.6052334,"instrument":4,"program":52,"isDrum":false},{"pitch":62,"velocity":94,"startTime":209.999727,"endTime":210.77954250000002,"instrument":4,"program":52,"isDrum":false},{"pitch":62,"velocity":98,"startTime":212.201559,"endTime":213.00431025,"instrument":4,"program":52,"isDrum":false},{"pitch":62,"velocity":100,"startTime":214.403391,"endTime":215.199261525,"instrument":4,"program":52,"isDrum":false},{"pitch":62,"velocity":102,"startTime":216.605223,"endTime":217.43091,"instrument":4,"program":52,"isDrum":false},{"pitch":62,"velocity":101,"startTime":218.80705500000002,"endTime":219.625861275,"instrument":4,"program":52,"isDrum":false},{"pitch":62,"velocity":94,"startTime":221.00888700000002,"endTime":221.804757525,"instrument":4,"program":52,"isDrum":false},{"pitch":62,"velocity":100,"startTime":223.21071899999998,"endTime":224.01805739999998,"instrument":4,"program":52,"isDrum":false},{"pitch":62,"velocity":94,"startTime":225.412551,"endTime":226.1923665,"instrument":4,"program":52,"isDrum":false},{"pitch":62,"velocity":98,"startTime":227.61438300000003,"endTime":228.41713425,"instrument":4,"program":52,"isDrum":false},{"pitch":62,"velocity":100,"startTime":229.816215,"endTime":230.612085525,"instrument":4,"program":52,"isDrum":false},{"pitch":62,"velocity":102,"startTime":232.01804700000002,"endTime":232.84373399999998,"instrument":4,"program":52,"isDrum":false},{"pitch":62,"velocity":101,"startTime":234.219879,"endTime":235.03868527500003,"instrument":4,"program":52,"isDrum":false},{"pitch":62,"velocity":94,"startTime":236.42171100000002,"endTime":237.217581525,"instrument":4,"program":52,"isDrum":false},{"pitch":62,"velocity":100,"startTime":238.62354299999998,"endTime":239.43088139999998,"instrument":4,"program":52,"isDrum":false},{"pitch":62,"velocity":94,"startTime":240.825375,"endTime":241.6051905,"instrument":4,"program":52,"isDrum":false},{"pitch":62,"velocity":98,"startTime":243.02720700000003,"endTime":243.82995825,"instrument":4,"program":52,"isDrum":false},{"pitch":62,"velocity":100,"startTime":245.229039,"endTime":246.024909525,"instrument":4,"program":52,"isDrum":false},{"pitch":62,"velocity":102,"startTime":247.43087100000002,"endTime":248.25655799999998,"instrument":4,"program":52,"isDrum":false},{"pitch":62,"velocity":101,"startTime":249.632703,"endTime":250.45150927499998,"instrument":4,"program":52,"isDrum":false},{"pitch":62,"velocity":94,"startTime":251.83453500000002,"endTime":252.63040552500001,"instrument":4,"program":52,"isDrum":false},{"pitch":62,"velocity":100,"startTime":254.03636699999998,"endTime":254.84370540000003,"instrument":4,"program":52,"isDrum":false},{"pitch":62,"velocity":94,"startTime":256.238199,"endTime":257.0180145,"instrument":4,"program":52,"isDrum":false},{"pitch":62,"velocity":98,"startTime":258.44003100000003,"endTime":259.24278225,"instrument":4,"program":52,"isDrum":false},{"pitch":62,"velocity":100,"startTime":260.641863,"endTime":261.437733525,"instrument":4,"program":52,"isDrum":false},{"pitch":62,"velocity":82,"startTime":262.843695,"endTime":263.669382,"instrument":4,"program":52,"isDrum":false},{"pitch":62,"velocity":66,"startTime":265.045527,"endTime":265.864333275,"instrument":4,"program":52,"isDrum":false},{"pitch":62,"velocity":42,"startTime":267.247359,"endTime":268.043229525,"instrument":4,"program":52,"isDrum":false},{"pitch":62,"velocity":20,"startTime":269.449191,"endTime":270.25652940000003,"instrument":4,"program":52,"isDrum":false},{"pitch":62,"velocity":9,"startTime":271.651023,"endTime":272.4308385,"instrument":4,"program":52,"isDrum":false},{"pitch":62,"velocity":1,"startTime":273.85285500000003,"endTime":274.65560625,"instrument":4,"program":52,"isDrum":false},{"pitch":67,"velocity":82,"startTime":138.990645,"endTime":139.23147037500001,"instrument":5,"program":75,"isDrum":false},{"pitch":71,"velocity":81,"startTime":138.990645,"endTime":139.23147037500001,"instrument":5,"program":75,"isDrum":false},{"pitch":67,"velocity":74,"startTime":139.265874,"endTime":139.51816725,"instrument":5,"program":75,"isDrum":false},{"pitch":71,"velocity":78,"startTime":139.265874,"endTime":139.51816725,"instrument":5,"program":75,"isDrum":false},{"pitch":67,"velocity":81,"startTime":139.54110300000002,"endTime":140.0456895,"instrument":5,"program":75,"isDrum":false},{"pitch":71,"velocity":74,"startTime":139.54110300000002,"endTime":140.0456895,"instrument":5,"program":75,"isDrum":false},{"pitch":67,"velocity":61,"startTime":140.091561,"endTime":140.447065125,"instrument":5,"program":75,"isDrum":false},{"pitch":71,"velocity":69,"startTime":140.091561,"endTime":140.447065125,"instrument":5,"program":75,"isDrum":false},{"pitch":67,"velocity":66,"startTime":140.642019,"endTime":140.91036727500003,"instrument":5,"program":75,"isDrum":false},{"pitch":71,"velocity":77,"startTime":140.642019,"endTime":140.91036727500003,"instrument":5,"program":75,"isDrum":false},{"pitch":67,"velocity":82,"startTime":141.192477,"endTime":141.433302375,"instrument":5,"program":75,"isDrum":false},{"pitch":71,"velocity":81,"startTime":141.192477,"endTime":141.433302375,"instrument":5,"program":75,"isDrum":false},{"pitch":67,"velocity":74,"startTime":141.46770600000002,"endTime":141.71999925,"instrument":5,"program":75,"isDrum":false},{"pitch":71,"velocity":78,"startTime":141.46770600000002,"endTime":141.71999925,"instrument":5,"program":75,"isDrum":false},{"pitch":67,"velocity":81,"startTime":141.74293500000002,"endTime":142.2475215,"instrument":5,"program":75,"isDrum":false},{"pitch":71,"velocity":74,"startTime":141.74293500000002,"endTime":142.2475215,"instrument":5,"program":75,"isDrum":false},{"pitch":67,"velocity":61,"startTime":142.293393,"endTime":142.648897125,"instrument":5,"program":75,"isDrum":false},{"pitch":71,"velocity":69,"startTime":142.293393,"endTime":142.648897125,"instrument":5,"program":75,"isDrum":false},{"pitch":67,"velocity":66,"startTime":142.843851,"endTime":143.11219927500002,"instrument":5,"program":75,"isDrum":false},{"pitch":71,"velocity":77,"startTime":142.843851,"endTime":143.11219927500002,"instrument":5,"program":75,"isDrum":false},{"pitch":67,"velocity":82,"startTime":143.39430900000002,"endTime":143.635134375,"instrument":5,"program":75,"isDrum":false},{"pitch":71,"velocity":81,"startTime":143.39430900000002,"endTime":143.635134375,"instrument":5,"program":75,"isDrum":false},{"pitch":67,"velocity":74,"startTime":143.66953800000002,"endTime":143.92183125,"instrument":5,"program":75,"isDrum":false},{"pitch":71,"velocity":78,"startTime":143.66953800000002,"endTime":143.92183125,"instrument":5,"program":75,"isDrum":false},{"pitch":67,"velocity":81,"startTime":143.944767,"endTime":144.44935350000003,"instrument":5,"program":75,"isDrum":false},{"pitch":71,"velocity":74,"startTime":143.944767,"endTime":144.44935350000003,"instrument":5,"program":75,"isDrum":false},{"pitch":67,"velocity":61,"startTime":144.495225,"endTime":144.850729125,"instrument":5,"program":75,"isDrum":false},{"pitch":71,"velocity":69,"startTime":144.495225,"endTime":144.850729125,"instrument":5,"program":75,"isDrum":false},{"pitch":67,"velocity":66,"startTime":145.045683,"endTime":145.31403127500002,"instrument":5,"program":75,"isDrum":false},{"pitch":71,"velocity":77,"startTime":145.045683,"endTime":145.31403127500002,"instrument":5,"program":75,"isDrum":false},{"pitch":67,"velocity":82,"startTime":145.59614100000002,"endTime":145.836966375,"instrument":5,"program":75,"isDrum":false},{"pitch":71,"velocity":81,"startTime":145.59614100000002,"endTime":145.836966375,"instrument":5,"program":75,"isDrum":false},{"pitch":67,"velocity":74,"startTime":145.87137,"endTime":146.12366325,"instrument":5,"program":75,"isDrum":false},{"pitch":71,"velocity":78,"startTime":145.87137,"endTime":146.12366325,"instrument":5,"program":75,"isDrum":false},{"pitch":67,"velocity":81,"startTime":146.146599,"endTime":146.65118550000003,"instrument":5,"program":75,"isDrum":false},{"pitch":71,"velocity":74,"startTime":146.146599,"endTime":146.65118550000003,"instrument":5,"program":75,"isDrum":false},{"pitch":67,"velocity":61,"startTime":146.697057,"endTime":147.052561125,"instrument":5,"program":75,"isDrum":false},{"pitch":71,"velocity":69,"startTime":146.697057,"endTime":147.052561125,"instrument":5,"program":75,"isDrum":false},{"pitch":67,"velocity":66,"startTime":147.24751500000002,"endTime":147.51586327500002,"instrument":5,"program":75,"isDrum":false},{"pitch":71,"velocity":77,"startTime":147.24751500000002,"endTime":147.51586327500002,"instrument":5,"program":75,"isDrum":false},{"pitch":67,"velocity":82,"startTime":147.797973,"endTime":148.038798375,"instrument":5,"program":75,"isDrum":false},{"pitch":71,"velocity":81,"startTime":147.797973,"endTime":148.038798375,"instrument":5,"program":75,"isDrum":false},{"pitch":67,"velocity":74,"startTime":148.073202,"endTime":148.32549525,"instrument":5,"program":75,"isDrum":false},{"pitch":71,"velocity":78,"startTime":148.073202,"endTime":148.32549525,"instrument":5,"program":75,"isDrum":false},{"pitch":67,"velocity":81,"startTime":148.348431,"endTime":148.85301750000002,"instrument":5,"program":75,"isDrum":false},{"pitch":71,"velocity":74,"startTime":148.348431,"endTime":148.85301750000002,"instrument":5,"program":75,"isDrum":false},{"pitch":67,"velocity":61,"startTime":148.898889,"endTime":149.254393125,"instrument":5,"program":75,"isDrum":false},{"pitch":71,"velocity":69,"startTime":148.898889,"endTime":149.254393125,"instrument":5,"program":75,"isDrum":false},{"pitch":67,"velocity":66,"startTime":149.44934700000002,"endTime":149.717695275,"instrument":5,"program":75,"isDrum":false},{"pitch":71,"velocity":77,"startTime":149.44934700000002,"endTime":149.717695275,"instrument":5,"program":75,"isDrum":false},{"pitch":67,"velocity":82,"startTime":149.999805,"endTime":150.240630375,"instrument":5,"program":75,"isDrum":false},{"pitch":71,"velocity":81,"startTime":149.999805,"endTime":150.240630375,"instrument":5,"program":75,"isDrum":false},{"pitch":67,"velocity":74,"startTime":150.275034,"endTime":150.52732724999998,"instrument":5,"program":75,"isDrum":false},{"pitch":71,"velocity":78,"startTime":150.275034,"endTime":150.52732724999998,"instrument":5,"program":75,"isDrum":false},{"pitch":67,"velocity":81,"startTime":150.550263,"endTime":151.05484950000002,"instrument":5,"program":75,"isDrum":false},{"pitch":71,"velocity":74,"startTime":150.550263,"endTime":151.05484950000002,"instrument":5,"program":75,"isDrum":false},{"pitch":67,"velocity":61,"startTime":151.10072100000002,"endTime":151.456225125,"instrument":5,"program":75,"isDrum":false},{"pitch":71,"velocity":69,"startTime":151.10072100000002,"endTime":151.456225125,"instrument":5,"program":75,"isDrum":false},{"pitch":67,"velocity":66,"startTime":151.651179,"endTime":151.919527275,"instrument":5,"program":75,"isDrum":false},{"pitch":71,"velocity":77,"startTime":151.651179,"endTime":151.919527275,"instrument":5,"program":75,"isDrum":false},{"pitch":67,"velocity":82,"startTime":152.201637,"endTime":152.44246237500002,"instrument":5,"program":75,"isDrum":false},{"pitch":71,"velocity":81,"startTime":152.201637,"endTime":152.44246237500002,"instrument":5,"program":75,"isDrum":false},{"pitch":67,"velocity":74,"startTime":152.476866,"endTime":152.72915925,"instrument":5,"program":75,"isDrum":false},{"pitch":71,"velocity":78,"startTime":152.476866,"endTime":152.72915925,"instrument":5,"program":75,"isDrum":false},{"pitch":67,"velocity":81,"startTime":152.752095,"endTime":153.2566815,"instrument":5,"program":75,"isDrum":false},{"pitch":71,"velocity":74,"startTime":152.752095,"endTime":153.2566815,"instrument":5,"program":75,"isDrum":false},{"pitch":67,"velocity":61,"startTime":153.30255300000002,"endTime":153.658057125,"instrument":5,"program":75,"isDrum":false},{"pitch":71,"velocity":69,"startTime":153.30255300000002,"endTime":153.658057125,"instrument":5,"program":75,"isDrum":false},{"pitch":67,"velocity":66,"startTime":153.853011,"endTime":154.121359275,"instrument":5,"program":75,"isDrum":false},{"pitch":71,"velocity":77,"startTime":153.853011,"endTime":154.121359275,"instrument":5,"program":75,"isDrum":false},{"pitch":67,"velocity":82,"startTime":154.403469,"endTime":154.64429437500002,"instrument":5,"program":75,"isDrum":false},{"pitch":71,"velocity":81,"startTime":154.403469,"endTime":154.64429437500002,"instrument":5,"program":75,"isDrum":false},{"pitch":67,"velocity":74,"startTime":154.678698,"endTime":154.93099125,"instrument":5,"program":75,"isDrum":false},{"pitch":71,"velocity":78,"startTime":154.678698,"endTime":154.93099125,"instrument":5,"program":75,"isDrum":false},{"pitch":67,"velocity":81,"startTime":154.95392700000002,"endTime":155.4585135,"instrument":5,"program":75,"isDrum":false},{"pitch":71,"velocity":74,"startTime":154.95392700000002,"endTime":155.4585135,"instrument":5,"program":75,"isDrum":false},{"pitch":67,"velocity":61,"startTime":155.504385,"endTime":155.859889125,"instrument":5,"program":75,"isDrum":false},{"pitch":71,"velocity":69,"startTime":155.504385,"endTime":155.859889125,"instrument":5,"program":75,"isDrum":false},{"pitch":67,"velocity":66,"startTime":156.054843,"endTime":156.32319127500003,"instrument":5,"program":75,"isDrum":false},{"pitch":71,"velocity":77,"startTime":156.054843,"endTime":156.32319127500003,"instrument":5,"program":75,"isDrum":false},{"pitch":67,"velocity":82,"startTime":156.605301,"endTime":156.846126375,"instrument":5,"program":75,"isDrum":false},{"pitch":71,"velocity":81,"startTime":156.605301,"endTime":156.846126375,"instrument":5,"program":75,"isDrum":false},{"pitch":67,"velocity":74,"startTime":156.88053000000002,"endTime":157.13282325,"instrument":5,"program":75,"isDrum":false},{"pitch":71,"velocity":78,"startTime":156.88053000000002,"endTime":157.13282325,"instrument":5,"program":75,"isDrum":false},{"pitch":67,"velocity":81,"startTime":157.15575900000002,"endTime":157.6603455,"instrument":5,"program":75,"isDrum":false},{"pitch":71,"velocity":74,"startTime":157.15575900000002,"endTime":157.6603455,"instrument":5,"program":75,"isDrum":false},{"pitch":67,"velocity":61,"startTime":157.706217,"endTime":158.061721125,"instrument":5,"program":75,"isDrum":false},{"pitch":71,"velocity":69,"startTime":157.706217,"endTime":158.061721125,"instrument":5,"program":75,"isDrum":false},{"pitch":67,"velocity":66,"startTime":158.256675,"endTime":158.52502327500002,"instrument":5,"program":75,"isDrum":false},{"pitch":71,"velocity":77,"startTime":158.256675,"endTime":158.52502327500002,"instrument":5,"program":75,"isDrum":false},{"pitch":67,"velocity":82,"startTime":158.80713300000002,"endTime":159.047958375,"instrument":5,"program":75,"isDrum":false},{"pitch":71,"velocity":81,"startTime":158.80713300000002,"endTime":159.047958375,"instrument":5,"program":75,"isDrum":false},{"pitch":67,"velocity":74,"startTime":159.08236200000002,"endTime":159.33465525,"instrument":5,"program":75,"isDrum":false},{"pitch":71,"velocity":78,"startTime":159.08236200000002,"endTime":159.33465525,"instrument":5,"program":75,"isDrum":false},{"pitch":67,"velocity":81,"startTime":159.357591,"endTime":159.86217750000003,"instrument":5,"program":75,"isDrum":false},{"pitch":71,"velocity":74,"startTime":159.357591,"endTime":159.86217750000003,"instrument":5,"program":75,"isDrum":false},{"pitch":67,"velocity":61,"startTime":159.908049,"endTime":160.263553125,"instrument":5,"program":75,"isDrum":false},{"pitch":71,"velocity":69,"startTime":159.908049,"endTime":160.263553125,"instrument":5,"program":75,"isDrum":false},{"pitch":67,"velocity":66,"startTime":160.458507,"endTime":160.72685527500002,"instrument":5,"program":75,"isDrum":false},{"pitch":71,"velocity":77,"startTime":160.458507,"endTime":160.72685527500002,"instrument":5,"program":75,"isDrum":false},{"pitch":67,"velocity":82,"startTime":161.00896500000002,"endTime":161.249790375,"instrument":5,"program":75,"isDrum":false},{"pitch":71,"velocity":81,"startTime":161.00896500000002,"endTime":161.249790375,"instrument":5,"program":75,"isDrum":false},{"pitch":67,"velocity":74,"startTime":161.284194,"endTime":161.53648725,"instrument":5,"program":75,"isDrum":false},{"pitch":71,"velocity":78,"startTime":161.284194,"endTime":161.53648725,"instrument":5,"program":75,"isDrum":false},{"pitch":67,"velocity":81,"startTime":161.559423,"endTime":162.06400950000003,"instrument":5,"program":75,"isDrum":false},{"pitch":71,"velocity":74,"startTime":161.559423,"endTime":162.06400950000003,"instrument":5,"program":75,"isDrum":false},{"pitch":67,"velocity":61,"startTime":162.109881,"endTime":162.465385125,"instrument":5,"program":75,"isDrum":false},{"pitch":71,"velocity":69,"startTime":162.109881,"endTime":162.465385125,"instrument":5,"program":75,"isDrum":false},{"pitch":67,"velocity":66,"startTime":162.66033900000002,"endTime":162.92868727500002,"instrument":5,"program":75,"isDrum":false},{"pitch":71,"velocity":77,"startTime":162.66033900000002,"endTime":162.92868727500002,"instrument":5,"program":75,"isDrum":false},{"pitch":67,"velocity":82,"startTime":163.210797,"endTime":163.451622375,"instrument":5,"program":75,"isDrum":false},{"pitch":71,"velocity":81,"startTime":163.210797,"endTime":163.451622375,"instrument":5,"program":75,"isDrum":false},{"pitch":67,"velocity":74,"startTime":163.486026,"endTime":163.73831925,"instrument":5,"program":75,"isDrum":false},{"pitch":71,"velocity":78,"startTime":163.486026,"endTime":163.73831925,"instrument":5,"program":75,"isDrum":false},{"pitch":67,"velocity":81,"startTime":163.761255,"endTime":164.26584150000002,"instrument":5,"program":75,"isDrum":false},{"pitch":71,"velocity":74,"startTime":163.761255,"endTime":164.26584150000002,"instrument":5,"program":75,"isDrum":false},{"pitch":67,"velocity":61,"startTime":164.311713,"endTime":164.667217125,"instrument":5,"program":75,"isDrum":false},{"pitch":71,"velocity":69,"startTime":164.311713,"endTime":164.667217125,"instrument":5,"program":75,"isDrum":false},{"pitch":67,"velocity":66,"startTime":164.86217100000002,"endTime":165.130519275,"instrument":5,"program":75,"isDrum":false},{"pitch":71,"velocity":77,"startTime":164.86217100000002,"endTime":165.130519275,"instrument":5,"program":75,"isDrum":false},{"pitch":67,"velocity":82,"startTime":165.412629,"endTime":165.653454375,"instrument":5,"program":75,"isDrum":false},{"pitch":71,"velocity":81,"startTime":165.412629,"endTime":165.653454375,"instrument":5,"program":75,"isDrum":false},{"pitch":67,"velocity":74,"startTime":165.687858,"endTime":165.94015124999999,"instrument":5,"program":75,"isDrum":false},{"pitch":71,"velocity":78,"startTime":165.687858,"endTime":165.94015124999999,"instrument":5,"program":75,"isDrum":false},{"pitch":67,"velocity":81,"startTime":165.963087,"endTime":166.46767350000002,"instrument":5,"program":75,"isDrum":false},{"pitch":71,"velocity":74,"startTime":165.963087,"endTime":166.46767350000002,"instrument":5,"program":75,"isDrum":false},{"pitch":67,"velocity":61,"startTime":166.51354500000002,"endTime":166.869049125,"instrument":5,"program":75,"isDrum":false},{"pitch":71,"velocity":69,"startTime":166.51354500000002,"endTime":166.869049125,"instrument":5,"program":75,"isDrum":false},{"pitch":67,"velocity":66,"startTime":167.064003,"endTime":167.332351275,"instrument":5,"program":75,"isDrum":false},{"pitch":71,"velocity":77,"startTime":167.064003,"endTime":167.332351275,"instrument":5,"program":75,"isDrum":false},{"pitch":67,"velocity":82,"startTime":167.614461,"endTime":167.85528637500002,"instrument":5,"program":75,"isDrum":false},{"pitch":71,"velocity":81,"startTime":167.614461,"endTime":167.85528637500002,"instrument":5,"program":75,"isDrum":false},{"pitch":67,"velocity":74,"startTime":167.88969,"endTime":168.14198325,"instrument":5,"program":75,"isDrum":false},{"pitch":71,"velocity":78,"startTime":167.88969,"endTime":168.14198325,"instrument":5,"program":75,"isDrum":false},{"pitch":67,"velocity":81,"startTime":168.164919,"endTime":168.6695055,"instrument":5,"program":75,"isDrum":false},{"pitch":71,"velocity":74,"startTime":168.164919,"endTime":168.6695055,"instrument":5,"program":75,"isDrum":false},{"pitch":67,"velocity":61,"startTime":168.71537700000002,"endTime":169.070881125,"instrument":5,"program":75,"isDrum":false},{"pitch":71,"velocity":69,"startTime":168.71537700000002,"endTime":169.070881125,"instrument":5,"program":75,"isDrum":false},{"pitch":67,"velocity":66,"startTime":169.265835,"endTime":169.534183275,"instrument":5,"program":75,"isDrum":false},{"pitch":71,"velocity":77,"startTime":169.265835,"endTime":169.534183275,"instrument":5,"program":75,"isDrum":false},{"pitch":67,"velocity":66,"startTime":169.816293,"endTime":170.05711837500002,"instrument":5,"program":75,"isDrum":false},{"pitch":71,"velocity":65,"startTime":169.816293,"endTime":170.05711837500002,"instrument":5,"program":75,"isDrum":false},{"pitch":67,"velocity":59,"startTime":170.091522,"endTime":170.34381525,"instrument":5,"program":75,"isDrum":false},{"pitch":71,"velocity":62,"startTime":170.091522,"endTime":170.34381525,"instrument":5,"program":75,"isDrum":false},{"pitch":67,"velocity":65,"startTime":170.36675100000002,"endTime":170.8713375,"instrument":5,"program":75,"isDrum":false},{"pitch":71,"velocity":59,"startTime":170.36675100000002,"endTime":170.8713375,"instrument":5,"program":75,"isDrum":false},{"pitch":67,"velocity":49,"startTime":170.917209,"endTime":171.272713125,"instrument":5,"program":75,"isDrum":false},{"pitch":71,"velocity":55,"startTime":170.917209,"endTime":171.272713125,"instrument":5,"program":75,"isDrum":false},{"pitch":67,"velocity":53,"startTime":171.467667,"endTime":171.73601527500003,"instrument":5,"program":75,"isDrum":false},{"pitch":71,"velocity":62,"startTime":171.467667,"endTime":171.73601527500003,"instrument":5,"program":75,"isDrum":false},{"pitch":67,"velocity":49,"startTime":172.018125,"endTime":172.258950375,"instrument":5,"program":75,"isDrum":false},{"pitch":71,"velocity":49,"startTime":172.018125,"endTime":172.258950375,"instrument":5,"program":75,"isDrum":false},{"pitch":67,"velocity":44,"startTime":172.29335400000002,"endTime":172.54564725,"instrument":5,"program":75,"isDrum":false},{"pitch":71,"velocity":47,"startTime":172.29335400000002,"endTime":172.54564725,"instrument":5,"program":75,"isDrum":false},{"pitch":67,"velocity":49,"startTime":172.56858300000002,"endTime":173.0731695,"instrument":5,"program":75,"isDrum":false},{"pitch":71,"velocity":44,"startTime":172.56858300000002,"endTime":173.0731695,"instrument":5,"program":75,"isDrum":false},{"pitch":67,"velocity":37,"startTime":173.119041,"endTime":173.474545125,"instrument":5,"program":75,"isDrum":false},{"pitch":71,"velocity":41,"startTime":173.119041,"endTime":173.474545125,"instrument":5,"program":75,"isDrum":false},{"pitch":67,"velocity":40,"startTime":173.669499,"endTime":173.93784727500002,"instrument":5,"program":75,"isDrum":false},{"pitch":71,"velocity":46,"startTime":173.669499,"endTime":173.93784727500002,"instrument":5,"program":75,"isDrum":false},{"pitch":67,"velocity":33,"startTime":174.21995700000002,"endTime":174.460782375,"instrument":5,"program":75,"isDrum":false},{"pitch":71,"velocity":32,"startTime":174.21995700000002,"endTime":174.460782375,"instrument":5,"program":75,"isDrum":false},{"pitch":67,"velocity":30,"startTime":174.49518600000002,"endTime":174.74747925,"instrument":5,"program":75,"isDrum":false},{"pitch":71,"velocity":31,"startTime":174.49518600000002,"endTime":174.74747925,"instrument":5,"program":75,"isDrum":false},{"pitch":67,"velocity":32,"startTime":174.770415,"endTime":175.27500150000003,"instrument":5,"program":75,"isDrum":false},{"pitch":71,"velocity":30,"startTime":174.770415,"endTime":175.27500150000003,"instrument":5,"program":75,"isDrum":false},{"pitch":67,"velocity":24,"startTime":175.320873,"endTime":175.676377125,"instrument":5,"program":75,"isDrum":false},{"pitch":71,"velocity":28,"startTime":175.320873,"endTime":175.676377125,"instrument":5,"program":75,"isDrum":false},{"pitch":67,"velocity":26,"startTime":175.871331,"endTime":176.13967927500002,"instrument":5,"program":75,"isDrum":false},{"pitch":71,"velocity":31,"startTime":175.871331,"endTime":176.13967927500002,"instrument":5,"program":75,"isDrum":false},{"pitch":46,"velocity":80,"startTime":0,"endTime":0.10321087500000203,"instrument":6,"program":0,"isDrum":true},{"pitch":36,"velocity":120,"startTime":0,"endTime":0.06880724999999899,"instrument":6,"program":0,"isDrum":true},{"pitch":44,"velocity":124,"startTime":0.550457999999999,"endTime":0.768347624999997,"instrument":6,"program":0,"isDrum":true},{"pitch":38,"velocity":128,"startTime":0.550457999999999,"endTime":0.665136749999995,"instrument":6,"program":0,"isDrum":true},{"pitch":44,"velocity":128,"startTime":0.8256870000000021,"endTime":0.928897874999997,"instrument":6,"program":0,"isDrum":true},{"pitch":40,"velocity":100,"startTime":0.9518336250000061,"endTime":1.020640875000005,"instrument":6,"program":0,"isDrum":true},{"pitch":44,"velocity":124,"startTime":1.100915999999998,"endTime":1.169723249999997,"instrument":6,"program":0,"isDrum":true},{"pitch":44,"velocity":125,"startTime":1.376145000000001,"endTime":1.438071524999998,"instrument":6,"program":0,"isDrum":true},{"pitch":44,"velocity":126,"startTime":1.651373999999997,"endTime":1.720181250000003,"instrument":6,"program":0,"isDrum":true},{"pitch":38,"velocity":128,"startTime":1.651373999999997,"endTime":1.788988500000002,"instrument":6,"program":0,"isDrum":true},{"pitch":46,"velocity":80,"startTime":1.926603,"endTime":2.029813875000002,"instrument":6,"program":0,"isDrum":true},{"pitch":36,"velocity":120,"startTime":1.926603,"endTime":2.029813875000002,"instrument":6,"program":0,"isDrum":true},{"pitch":46,"velocity":80,"startTime":2.201832000000003,"endTime":2.305042874999998,"instrument":6,"program":0,"isDrum":true},{"pitch":36,"velocity":120,"startTime":2.201832000000003,"endTime":2.327978625,"instrument":6,"program":0,"isDrum":true},{"pitch":38,"velocity":128,"startTime":2.752290000000002,"endTime":2.844033000000003,"instrument":6,"program":0,"isDrum":true},{"pitch":44,"velocity":121,"startTime":3.027518999999998,"endTime":3.084858375000003,"instrument":6,"program":0,"isDrum":true},{"pitch":44,"velocity":124,"startTime":3.302748000000001,"endTime":3.383023124999994,"instrument":6,"program":0,"isDrum":true},{"pitch":38,"velocity":128,"startTime":3.853206,"endTime":3.979352625000004,"instrument":6,"program":0,"isDrum":true},{"pitch":46,"velocity":80,"startTime":4.403663999999999,"endTime":4.506874875000001,"instrument":6,"program":0,"isDrum":true},{"pitch":36,"velocity":120,"startTime":4.403663999999999,"endTime":4.472471249999998,"instrument":6,"program":0,"isDrum":true},{"pitch":44,"velocity":124,"startTime":4.954121999999998,"endTime":5.172011624999996,"instrument":6,"program":0,"isDrum":true},{"pitch":38,"velocity":128,"startTime":4.954121999999998,"endTime":5.068800749999994,"instrument":6,"program":0,"isDrum":true},{"pitch":44,"velocity":128,"startTime":5.229351000000001,"endTime":5.332561875000003,"instrument":6,"program":0,"isDrum":true},{"pitch":40,"velocity":100,"startTime":5.355497625000005,"endTime":5.424304875000004,"instrument":6,"program":0,"isDrum":true},{"pitch":44,"velocity":124,"startTime":5.504579999999997,"endTime":5.573387250000003,"instrument":6,"program":0,"isDrum":true},{"pitch":44,"velocity":125,"startTime":5.779809,"endTime":5.841735524999997,"instrument":6,"program":0,"isDrum":true},{"pitch":44,"velocity":126,"startTime":6.055038000000003,"endTime":6.123845250000002,"instrument":6,"program":0,"isDrum":true},{"pitch":38,"velocity":128,"startTime":6.055038000000003,"endTime":6.192652500000001,"instrument":6,"program":0,"isDrum":true},{"pitch":36,"velocity":120,"startTime":6.330266999999999,"endTime":6.433477875000001,"instrument":6,"program":0,"isDrum":true},{"pitch":46,"velocity":80,"startTime":6.330266999999999,"endTime":6.433477875000001,"instrument":6,"program":0,"isDrum":true},{"pitch":46,"velocity":80,"startTime":6.605496000000002,"endTime":6.708706874999997,"instrument":6,"program":0,"isDrum":true},{"pitch":36,"velocity":120,"startTime":6.605496000000002,"endTime":6.731642624999999,"instrument":6,"program":0,"isDrum":true},{"pitch":38,"velocity":128,"startTime":7.155954000000001,"endTime":7.247697000000002,"instrument":6,"program":0,"isDrum":true},{"pitch":44,"velocity":121,"startTime":7.431182999999997,"endTime":7.488522375000002,"instrument":6,"program":0,"isDrum":true},{"pitch":44,"velocity":124,"startTime":7.706412,"endTime":7.786687125,"instrument":6,"program":0,"isDrum":true},{"pitch":44,"velocity":128,"startTime":7.981641000000003,"endTime":8.201824200000004,"instrument":6,"program":0,"isDrum":true},{"pitch":44,"velocity":128,"startTime":8.25687,"endTime":8.697236400000001,"instrument":6,"program":0,"isDrum":true},{"pitch":38,"velocity":128,"startTime":8.25687,"endTime":8.383016625000003,"instrument":6,"program":0,"isDrum":true},{"pitch":46,"velocity":80,"startTime":8.807327999999998,"endTime":8.910538875,"instrument":6,"program":0,"isDrum":true},{"pitch":36,"velocity":120,"startTime":8.807327999999998,"endTime":8.876135249999997,"instrument":6,"program":0,"isDrum":true},{"pitch":44,"velocity":124,"startTime":9.357785999999997,"endTime":9.575675624999995,"instrument":6,"program":0,"isDrum":true},{"pitch":38,"velocity":128,"startTime":9.357785999999997,"endTime":9.47246475,"instrument":6,"program":0,"isDrum":true},{"pitch":44,"velocity":128,"startTime":9.633015,"endTime":9.736225875000002,"instrument":6,"program":0,"isDrum":true},{"pitch":40,"velocity":100,"startTime":9.759161625000004,"endTime":9.827968875000003,"instrument":6,"program":0,"isDrum":true},{"pitch":44,"velocity":124,"startTime":9.908244000000003,"endTime":9.977051250000002,"instrument":6,"program":0,"isDrum":true},{"pitch":44,"velocity":125,"startTime":10.183473,"endTime":10.245399524999996,"instrument":6,"program":0,"isDrum":true},{"pitch":44,"velocity":126,"startTime":10.458702000000002,"endTime":10.527509250000001,"instrument":6,"program":0,"isDrum":true},{"pitch":38,"velocity":128,"startTime":10.458702000000002,"endTime":10.5963165,"instrument":6,"program":0,"isDrum":true},{"pitch":36,"velocity":120,"startTime":10.733930999999998,"endTime":10.837141875,"instrument":6,"program":0,"isDrum":true},{"pitch":46,"velocity":80,"startTime":10.733930999999998,"endTime":10.837141875,"instrument":6,"program":0,"isDrum":true},{"pitch":46,"velocity":80,"startTime":11.009160000000001,"endTime":11.112370875000003,"instrument":6,"program":0,"isDrum":true},{"pitch":36,"velocity":120,"startTime":11.009160000000001,"endTime":11.135306625000005,"instrument":6,"program":0,"isDrum":true},{"pitch":38,"velocity":128,"startTime":11.559618,"endTime":11.651361000000001,"instrument":6,"program":0,"isDrum":true},{"pitch":44,"velocity":121,"startTime":11.834847000000003,"endTime":11.892186375000001,"instrument":6,"program":0,"isDrum":true},{"pitch":44,"velocity":124,"startTime":12.110076,"endTime":12.190351125,"instrument":6,"program":0,"isDrum":true},{"pitch":38,"velocity":128,"startTime":12.660533999999998,"endTime":12.786680625000002,"instrument":6,"program":0,"isDrum":true},{"pitch":36,"velocity":120,"startTime":12.935763000000001,"endTime":13.038973875000003,"instrument":6,"program":0,"isDrum":true},{"pitch":46,"velocity":80,"startTime":12.935763000000001,"endTime":13.038973875000003,"instrument":6,"program":0,"isDrum":true},{"pitch":46,"velocity":80,"startTime":13.210991999999997,"endTime":13.314202875,"instrument":6,"program":0,"isDrum":true},{"pitch":36,"velocity":120,"startTime":13.210991999999997,"endTime":13.279799250000003,"instrument":6,"program":0,"isDrum":true},{"pitch":44,"velocity":124,"startTime":13.761450000000004,"endTime":13.979339624999994,"instrument":6,"program":0,"isDrum":true},{"pitch":38,"velocity":128,"startTime":13.761450000000004,"endTime":13.87612875,"instrument":6,"program":0,"isDrum":true},{"pitch":44,"velocity":128,"startTime":14.036679,"endTime":14.139889875000001,"instrument":6,"program":0,"isDrum":true},{"pitch":40,"velocity":100,"startTime":14.162825625000004,"endTime":14.231632875000003,"instrument":6,"program":0,"isDrum":true},{"pitch":44,"velocity":124,"startTime":14.311908000000003,"endTime":14.380715250000002,"instrument":6,"program":0,"isDrum":true},{"pitch":44,"velocity":125,"startTime":14.587136999999998,"endTime":14.649063524999995,"instrument":6,"program":0,"isDrum":true},{"pitch":44,"velocity":126,"startTime":14.862366000000002,"endTime":14.93117325,"instrument":6,"program":0,"isDrum":true},{"pitch":38,"velocity":128,"startTime":14.862366000000002,"endTime":14.9999805,"instrument":6,"program":0,"isDrum":true},{"pitch":36,"velocity":120,"startTime":15.137594999999997,"endTime":15.240805875,"instrument":6,"program":0,"isDrum":true},{"pitch":46,"velocity":80,"startTime":15.137594999999997,"endTime":15.240805875,"instrument":6,"program":0,"isDrum":true},{"pitch":46,"velocity":80,"startTime":15.412824,"endTime":15.516034875000003,"instrument":6,"program":0,"isDrum":true},{"pitch":36,"velocity":120,"startTime":15.412824,"endTime":15.538970625000005,"instrument":6,"program":0,"isDrum":true},{"pitch":38,"velocity":128,"startTime":15.963282,"endTime":16.055025,"instrument":6,"program":0,"isDrum":true},{"pitch":44,"velocity":121,"startTime":16.238511000000003,"endTime":16.295850375,"instrument":6,"program":0,"isDrum":true},{"pitch":44,"velocity":124,"startTime":16.51374,"endTime":16.594015125,"instrument":6,"program":0,"isDrum":true},{"pitch":38,"velocity":128,"startTime":17.064197999999998,"endTime":17.190344625,"instrument":6,"program":0,"isDrum":true},{"pitch":46,"velocity":80,"startTime":17.614656000000004,"endTime":17.717866875,"instrument":6,"program":0,"isDrum":true},{"pitch":36,"velocity":120,"startTime":17.614656000000004,"endTime":17.683463250000003,"instrument":6,"program":0,"isDrum":true},{"pitch":44,"velocity":124,"startTime":18.165114000000003,"endTime":18.383003625,"instrument":6,"program":0,"isDrum":true},{"pitch":38,"velocity":128,"startTime":18.165114000000003,"endTime":18.27979275,"instrument":6,"program":0,"isDrum":true},{"pitch":44,"velocity":128,"startTime":18.440343,"endTime":18.543553875,"instrument":6,"program":0,"isDrum":true},{"pitch":40,"velocity":100,"startTime":18.566489625000003,"endTime":18.635296875,"instrument":6,"program":0,"isDrum":true},{"pitch":44,"velocity":124,"startTime":18.715572,"endTime":18.78437925,"instrument":6,"program":0,"isDrum":true},{"pitch":44,"velocity":125,"startTime":18.990800999999998,"endTime":19.052727525,"instrument":6,"program":0,"isDrum":true},{"pitch":44,"velocity":126,"startTime":19.26603,"endTime":19.33483725,"instrument":6,"program":0,"isDrum":true},{"pitch":38,"velocity":128,"startTime":19.26603,"endTime":19.4036445,"instrument":6,"program":0,"isDrum":true},{"pitch":46,"velocity":80,"startTime":19.541258999999997,"endTime":19.644469875,"instrument":6,"program":0,"isDrum":true},{"pitch":36,"velocity":120,"startTime":19.541258999999997,"endTime":19.644469875,"instrument":6,"program":0,"isDrum":true},{"pitch":46,"velocity":80,"startTime":19.816488,"endTime":19.919698875,"instrument":6,"program":0,"isDrum":true},{"pitch":36,"velocity":120,"startTime":19.816488,"endTime":19.942634625000004,"instrument":6,"program":0,"isDrum":true},{"pitch":38,"velocity":128,"startTime":20.366946,"endTime":20.458689,"instrument":6,"program":0,"isDrum":true},{"pitch":44,"velocity":121,"startTime":20.642175,"endTime":20.699514375,"instrument":6,"program":0,"isDrum":true},{"pitch":44,"velocity":124,"startTime":20.917403999999998,"endTime":20.997679124999998,"instrument":6,"program":0,"isDrum":true},{"pitch":38,"velocity":128,"startTime":21.467861999999997,"endTime":21.594008625,"instrument":6,"program":0,"isDrum":true},{"pitch":46,"velocity":80,"startTime":22.018320000000003,"endTime":22.121530874999998,"instrument":6,"program":0,"isDrum":true},{"pitch":36,"velocity":120,"startTime":22.018320000000003,"endTime":22.08712725,"instrument":6,"program":0,"isDrum":true},{"pitch":44,"velocity":124,"startTime":22.568778000000002,"endTime":22.786667625,"instrument":6,"program":0,"isDrum":true},{"pitch":38,"velocity":128,"startTime":22.568778000000002,"endTime":22.683456749999998,"instrument":6,"program":0,"isDrum":true},{"pitch":44,"velocity":128,"startTime":22.844006999999998,"endTime":22.947217875,"instrument":6,"program":0,"isDrum":true},{"pitch":40,"velocity":100,"startTime":22.970153625000002,"endTime":23.038960875,"instrument":6,"program":0,"isDrum":true},{"pitch":44,"velocity":124,"startTime":23.119236,"endTime":23.18804325,"instrument":6,"program":0,"isDrum":true},{"pitch":44,"velocity":125,"startTime":23.394464999999997,"endTime":23.456391525,"instrument":6,"program":0,"isDrum":true},{"pitch":44,"velocity":126,"startTime":23.669694,"endTime":23.73850125,"instrument":6,"program":0,"isDrum":true},{"pitch":38,"velocity":128,"startTime":23.669694,"endTime":23.807308499999998,"instrument":6,"program":0,"isDrum":true},{"pitch":36,"velocity":120,"startTime":23.944923000000003,"endTime":24.048133874999998,"instrument":6,"program":0,"isDrum":true},{"pitch":46,"velocity":80,"startTime":23.944923000000003,"endTime":24.048133874999998,"instrument":6,"program":0,"isDrum":true},{"pitch":46,"velocity":80,"startTime":24.220152,"endTime":24.323362875,"instrument":6,"program":0,"isDrum":true},{"pitch":36,"velocity":120,"startTime":24.220152,"endTime":24.346298625000003,"instrument":6,"program":0,"isDrum":true},{"pitch":38,"velocity":128,"startTime":24.770609999999998,"endTime":24.862353000000006,"instrument":6,"program":0,"isDrum":true},{"pitch":44,"velocity":121,"startTime":25.045839,"endTime":25.103178375000006,"instrument":6,"program":0,"isDrum":true},{"pitch":44,"velocity":124,"startTime":25.321067999999997,"endTime":25.401343124999997,"instrument":6,"program":0,"isDrum":true},{"pitch":44,"velocity":128,"startTime":25.596297,"endTime":25.8164802,"instrument":6,"program":0,"isDrum":true},{"pitch":44,"velocity":128,"startTime":25.871526000000003,"endTime":26.311892399999998,"instrument":6,"program":0,"isDrum":true},{"pitch":38,"velocity":128,"startTime":25.871526000000003,"endTime":25.997672625,"instrument":6,"program":0,"isDrum":true},{"pitch":46,"velocity":80,"startTime":26.421984000000002,"endTime":26.525194874999997,"instrument":6,"program":0,"isDrum":true},{"pitch":36,"velocity":120,"startTime":26.421984000000002,"endTime":26.49079125,"instrument":6,"program":0,"isDrum":true},{"pitch":44,"velocity":124,"startTime":26.972442,"endTime":27.190331625,"instrument":6,"program":0,"isDrum":true},{"pitch":38,"velocity":128,"startTime":26.972442,"endTime":27.087120749999997,"instrument":6,"program":0,"isDrum":true},{"pitch":44,"velocity":128,"startTime":27.247670999999997,"endTime":27.350881875,"instrument":6,"program":0,"isDrum":true},{"pitch":40,"velocity":100,"startTime":27.373817625,"endTime":27.442624875,"instrument":6,"program":0,"isDrum":true},{"pitch":44,"velocity":124,"startTime":27.5229,"endTime":27.59170725,"instrument":6,"program":0,"isDrum":true},{"pitch":44,"velocity":125,"startTime":27.798129000000003,"endTime":27.860055525,"instrument":6,"program":0,"isDrum":true},{"pitch":44,"velocity":126,"startTime":28.073358,"endTime":28.142165249999998,"instrument":6,"program":0,"isDrum":true},{"pitch":38,"velocity":128,"startTime":28.073358,"endTime":28.210972499999997,"instrument":6,"program":0,"isDrum":true},{"pitch":36,"velocity":120,"startTime":28.348587000000002,"endTime":28.451797874999997,"instrument":6,"program":0,"isDrum":true},{"pitch":46,"velocity":80,"startTime":28.348587000000002,"endTime":28.451797874999997,"instrument":6,"program":0,"isDrum":true},{"pitch":46,"velocity":80,"startTime":28.623815999999998,"endTime":28.727026875,"instrument":6,"program":0,"isDrum":true},{"pitch":36,"velocity":120,"startTime":28.623815999999998,"endTime":28.749962625000002,"instrument":6,"program":0,"isDrum":true},{"pitch":38,"velocity":128,"startTime":29.174274000000004,"endTime":29.266016999999998,"instrument":6,"program":0,"isDrum":true},{"pitch":44,"velocity":121,"startTime":29.449503,"endTime":29.506842374999998,"instrument":6,"program":0,"isDrum":true},{"pitch":44,"velocity":124,"startTime":29.724731999999996,"endTime":29.805007124999996,"instrument":6,"program":0,"isDrum":true},{"pitch":38,"velocity":128,"startTime":30.275190000000002,"endTime":30.401336625000006,"instrument":6,"program":0,"isDrum":true},{"pitch":36,"velocity":120,"startTime":30.550418999999998,"endTime":30.653629875,"instrument":6,"program":0,"isDrum":true},{"pitch":46,"velocity":80,"startTime":30.550418999999998,"endTime":30.653629875,"instrument":6,"program":0,"isDrum":true},{"pitch":46,"velocity":80,"startTime":30.825647999999994,"endTime":30.928858874999996,"instrument":6,"program":0,"isDrum":true},{"pitch":36,"velocity":120,"startTime":30.825647999999994,"endTime":30.89445525,"instrument":6,"program":0,"isDrum":true},{"pitch":44,"velocity":124,"startTime":31.376106,"endTime":31.593995624999998,"instrument":6,"program":0,"isDrum":true},{"pitch":38,"velocity":128,"startTime":31.376106,"endTime":31.490784749999996,"instrument":6,"program":0,"isDrum":true},{"pitch":44,"velocity":128,"startTime":31.651334999999996,"endTime":31.754545874999998,"instrument":6,"program":0,"isDrum":true},{"pitch":40,"velocity":100,"startTime":31.777481625,"endTime":31.846288875000006,"instrument":6,"program":0,"isDrum":true},{"pitch":44,"velocity":124,"startTime":31.926564000000006,"endTime":31.995371249999998,"instrument":6,"program":0,"isDrum":true},{"pitch":44,"velocity":125,"startTime":32.201793,"endTime":32.26371952499999,"instrument":6,"program":0,"isDrum":true},{"pitch":44,"velocity":126,"startTime":32.477022,"endTime":32.545829250000004,"instrument":6,"program":0,"isDrum":true},{"pitch":38,"velocity":128,"startTime":32.477022,"endTime":32.614636499999996,"instrument":6,"program":0,"isDrum":true},{"pitch":36,"velocity":120,"startTime":32.752250999999994,"endTime":32.855461874999996,"instrument":6,"program":0,"isDrum":true},{"pitch":46,"velocity":80,"startTime":32.752250999999994,"endTime":32.855461874999996,"instrument":6,"program":0,"isDrum":true},{"pitch":46,"velocity":80,"startTime":33.027480000000004,"endTime":33.130690875000006,"instrument":6,"program":0,"isDrum":true},{"pitch":36,"velocity":120,"startTime":33.027480000000004,"endTime":33.15362662500001,"instrument":6,"program":0,"isDrum":true},{"pitch":38,"velocity":128,"startTime":33.577937999999996,"endTime":33.669681000000004,"instrument":6,"program":0,"isDrum":true},{"pitch":44,"velocity":121,"startTime":33.853167000000006,"endTime":33.910506375000004,"instrument":6,"program":0,"isDrum":true},{"pitch":44,"velocity":124,"startTime":34.128396,"endTime":34.208671125,"instrument":6,"program":0,"isDrum":true},{"pitch":38,"velocity":128,"startTime":34.678853999999994,"endTime":34.805000625,"instrument":6,"program":0,"isDrum":true},{"pitch":46,"velocity":80,"startTime":35.229312,"endTime":35.332522875,"instrument":6,"program":0,"isDrum":true},{"pitch":36,"velocity":120,"startTime":35.229312,"endTime":35.298119250000006,"instrument":6,"program":0,"isDrum":true},{"pitch":44,"velocity":124,"startTime":35.779770000000006,"endTime":35.997659625000004,"instrument":6,"program":0,"isDrum":true},{"pitch":38,"velocity":128,"startTime":35.779770000000006,"endTime":35.89444875,"instrument":6,"program":0,"isDrum":true},{"pitch":44,"velocity":128,"startTime":36.054999,"endTime":36.158209875000004,"instrument":6,"program":0,"isDrum":true},{"pitch":40,"velocity":100,"startTime":36.18114562499999,"endTime":36.249952875,"instrument":6,"program":0,"isDrum":true},{"pitch":44,"velocity":124,"startTime":36.330228,"endTime":36.399035250000004,"instrument":6,"program":0,"isDrum":true},{"pitch":44,"velocity":125,"startTime":36.605456999999994,"endTime":36.66738352500001,"instrument":6,"program":0,"isDrum":true},{"pitch":44,"velocity":126,"startTime":36.880686000000004,"endTime":36.949493249999996,"instrument":6,"program":0,"isDrum":true},{"pitch":38,"velocity":128,"startTime":36.880686000000004,"endTime":37.0183005,"instrument":6,"program":0,"isDrum":true},{"pitch":46,"velocity":80,"startTime":37.155915,"endTime":37.259125875,"instrument":6,"program":0,"isDrum":true},{"pitch":36,"velocity":120,"startTime":37.155915,"endTime":37.259125875,"instrument":6,"program":0,"isDrum":true},{"pitch":46,"velocity":80,"startTime":37.431143999999996,"endTime":37.534354875,"instrument":6,"program":0,"isDrum":true},{"pitch":36,"velocity":120,"startTime":37.431143999999996,"endTime":37.557290625,"instrument":6,"program":0,"isDrum":true},{"pitch":38,"velocity":128,"startTime":37.981602,"endTime":38.073344999999996,"instrument":6,"program":0,"isDrum":true},{"pitch":44,"velocity":121,"startTime":38.256831,"endTime":38.314170374999996,"instrument":6,"program":0,"isDrum":true},{"pitch":44,"velocity":124,"startTime":38.532059999999994,"endTime":38.61233512500001,"instrument":6,"program":0,"isDrum":true},{"pitch":38,"velocity":128,"startTime":39.082518,"endTime":39.20866462499999,"instrument":6,"program":0,"isDrum":true},{"pitch":46,"velocity":80,"startTime":39.632976000000006,"endTime":39.736186874999994,"instrument":6,"program":0,"isDrum":true},{"pitch":36,"velocity":120,"startTime":39.632976000000006,"endTime":39.70178325,"instrument":6,"program":0,"isDrum":true},{"pitch":44,"velocity":124,"startTime":40.183434,"endTime":40.40132362500001,"instrument":6,"program":0,"isDrum":true},{"pitch":38,"velocity":128,"startTime":40.183434,"endTime":40.29811275000001,"instrument":6,"program":0,"isDrum":true},{"pitch":44,"velocity":128,"startTime":40.458662999999994,"endTime":40.561873874999996,"instrument":6,"program":0,"isDrum":true},{"pitch":40,"velocity":100,"startTime":40.584809625,"endTime":40.65361687499999,"instrument":6,"program":0,"isDrum":true},{"pitch":44,"velocity":124,"startTime":40.733892000000004,"endTime":40.802699249999996,"instrument":6,"program":0,"isDrum":true},{"pitch":44,"velocity":125,"startTime":41.009121,"endTime":41.071047525000004,"instrument":6,"program":0,"isDrum":true},{"pitch":44,"velocity":126,"startTime":41.284349999999996,"endTime":41.35315725,"instrument":6,"program":0,"isDrum":true},{"pitch":38,"velocity":128,"startTime":41.284349999999996,"endTime":41.421964499999994,"instrument":6,"program":0,"isDrum":true},{"pitch":36,"velocity":120,"startTime":41.55957900000001,"endTime":41.662789874999994,"instrument":6,"program":0,"isDrum":true},{"pitch":46,"velocity":80,"startTime":41.55957900000001,"endTime":41.662789874999994,"instrument":6,"program":0,"isDrum":true},{"pitch":46,"velocity":80,"startTime":41.834808,"endTime":41.938018875000004,"instrument":6,"program":0,"isDrum":true},{"pitch":36,"velocity":120,"startTime":41.834808,"endTime":41.96095462499999,"instrument":6,"program":0,"isDrum":true},{"pitch":38,"velocity":128,"startTime":42.385265999999994,"endTime":42.47700899999999,"instrument":6,"program":0,"isDrum":true},{"pitch":44,"velocity":121,"startTime":42.660495000000004,"endTime":42.71783437499999,"instrument":6,"program":0,"isDrum":true},{"pitch":44,"velocity":124,"startTime":42.935724,"endTime":43.015999125,"instrument":6,"program":0,"isDrum":true},{"pitch":44,"velocity":128,"startTime":43.210952999999996,"endTime":43.431136200000005,"instrument":6,"program":0,"isDrum":true},{"pitch":44,"velocity":128,"startTime":43.48618200000001,"endTime":43.92654840000001,"instrument":6,"program":0,"isDrum":true},{"pitch":38,"velocity":128,"startTime":43.48618200000001,"endTime":43.612328624999996,"instrument":6,"program":0,"isDrum":true},{"pitch":46,"velocity":80,"startTime":44.03664,"endTime":44.139850875,"instrument":6,"program":0,"isDrum":true},{"pitch":36,"velocity":120,"startTime":44.03664,"endTime":44.105447250000005,"instrument":6,"program":0,"isDrum":true},{"pitch":44,"velocity":124,"startTime":44.587098000000005,"endTime":44.804987625,"instrument":6,"program":0,"isDrum":true},{"pitch":38,"velocity":128,"startTime":44.587098000000005,"endTime":44.70177675,"instrument":6,"program":0,"isDrum":true},{"pitch":44,"velocity":128,"startTime":44.862327,"endTime":44.965537875,"instrument":6,"program":0,"isDrum":true},{"pitch":40,"velocity":100,"startTime":44.98847362499999,"endTime":45.057280875,"instrument":6,"program":0,"isDrum":true},{"pitch":44,"velocity":124,"startTime":45.137556,"endTime":45.20636325,"instrument":6,"program":0,"isDrum":true},{"pitch":44,"velocity":125,"startTime":45.41278500000001,"endTime":45.47471152500001,"instrument":6,"program":0,"isDrum":true},{"pitch":44,"velocity":126,"startTime":45.688014,"endTime":45.756821249999994,"instrument":6,"program":0,"isDrum":true},{"pitch":38,"velocity":128,"startTime":45.688014,"endTime":45.8256285,"instrument":6,"program":0,"isDrum":true},{"pitch":36,"velocity":120,"startTime":45.963243,"endTime":46.066453875,"instrument":6,"program":0,"isDrum":true},{"pitch":46,"velocity":80,"startTime":45.963243,"endTime":46.066453875,"instrument":6,"program":0,"isDrum":true},{"pitch":46,"velocity":80,"startTime":46.238471999999994,"endTime":46.341682875,"instrument":6,"program":0,"isDrum":true},{"pitch":36,"velocity":120,"startTime":46.238471999999994,"endTime":46.364618625,"instrument":6,"program":0,"isDrum":true},{"pitch":38,"velocity":128,"startTime":46.78893,"endTime":46.880672999999994,"instrument":6,"program":0,"isDrum":true},{"pitch":44,"velocity":121,"startTime":47.064159,"endTime":47.121498374999994,"instrument":6,"program":0,"isDrum":true},{"pitch":44,"velocity":124,"startTime":47.33938800000001,"endTime":47.41966312500001,"instrument":6,"program":0,"isDrum":true},{"pitch":38,"velocity":128,"startTime":47.889846,"endTime":48.01599262499999,"instrument":6,"program":0,"isDrum":true},{"pitch":36,"velocity":120,"startTime":48.165074999999995,"endTime":48.268285875,"instrument":6,"program":0,"isDrum":true},{"pitch":46,"velocity":80,"startTime":48.165074999999995,"endTime":48.268285875,"instrument":6,"program":0,"isDrum":true},{"pitch":46,"velocity":80,"startTime":48.440304000000005,"endTime":48.54351487500001,"instrument":6,"program":0,"isDrum":true},{"pitch":36,"velocity":120,"startTime":48.440304000000005,"endTime":48.50911125,"instrument":6,"program":0,"isDrum":true},{"pitch":44,"velocity":124,"startTime":48.990762,"endTime":49.20865162500001,"instrument":6,"program":0,"isDrum":true},{"pitch":38,"velocity":128,"startTime":48.990762,"endTime":49.10544075000001,"instrument":6,"program":0,"isDrum":true},{"pitch":44,"velocity":128,"startTime":49.26599100000001,"endTime":49.369201874999995,"instrument":6,"program":0,"isDrum":true},{"pitch":40,"velocity":100,"startTime":49.392137625,"endTime":49.46094487499999,"instrument":6,"program":0,"isDrum":true},{"pitch":44,"velocity":124,"startTime":49.54122,"endTime":49.610027249999995,"instrument":6,"program":0,"isDrum":true},{"pitch":44,"velocity":125,"startTime":49.816449,"endTime":49.878375525,"instrument":6,"program":0,"isDrum":true},{"pitch":44,"velocity":126,"startTime":50.091677999999995,"endTime":50.16048525,"instrument":6,"program":0,"isDrum":true},{"pitch":38,"velocity":128,"startTime":50.091677999999995,"endTime":50.22929250000001,"instrument":6,"program":0,"isDrum":true},{"pitch":36,"velocity":120,"startTime":50.366907000000005,"endTime":50.47011787500001,"instrument":6,"program":0,"isDrum":true},{"pitch":46,"velocity":80,"startTime":50.366907000000005,"endTime":50.47011787500001,"instrument":6,"program":0,"isDrum":true},{"pitch":46,"velocity":80,"startTime":50.642136,"endTime":50.745346875,"instrument":6,"program":0,"isDrum":true},{"pitch":36,"velocity":120,"startTime":50.642136,"endTime":50.76828262499999,"instrument":6,"program":0,"isDrum":true},{"pitch":38,"velocity":128,"startTime":51.19259400000001,"endTime":51.284337,"instrument":6,"program":0,"isDrum":true},{"pitch":44,"velocity":121,"startTime":51.467823,"endTime":51.525162375,"instrument":6,"program":0,"isDrum":true},{"pitch":44,"velocity":124,"startTime":51.743052,"endTime":51.823327125,"instrument":6,"program":0,"isDrum":true},{"pitch":38,"velocity":128,"startTime":52.293510000000005,"endTime":52.419656624999995,"instrument":6,"program":0,"isDrum":true},{"pitch":46,"velocity":80,"startTime":52.843968,"endTime":52.947178875,"instrument":6,"program":0,"isDrum":true},{"pitch":36,"velocity":120,"startTime":52.843968,"endTime":52.91277525,"instrument":6,"program":0,"isDrum":true},{"pitch":44,"velocity":124,"startTime":53.394426,"endTime":53.612315625,"instrument":6,"program":0,"isDrum":true},{"pitch":38,"velocity":128,"startTime":53.394426,"endTime":53.50910475,"instrument":6,"program":0,"isDrum":true},{"pitch":44,"velocity":128,"startTime":53.669655,"endTime":53.772865875,"instrument":6,"program":0,"isDrum":true},{"pitch":40,"velocity":100,"startTime":53.79580162499999,"endTime":53.864608874999995,"instrument":6,"program":0,"isDrum":true},{"pitch":44,"velocity":124,"startTime":53.944883999999995,"endTime":54.01369125,"instrument":6,"program":0,"isDrum":true},{"pitch":44,"velocity":125,"startTime":54.220113000000005,"endTime":54.28203952500001,"instrument":6,"program":0,"isDrum":true},{"pitch":44,"velocity":126,"startTime":54.495342,"endTime":54.56414925000001,"instrument":6,"program":0,"isDrum":true},{"pitch":38,"velocity":128,"startTime":54.495342,"endTime":54.6329565,"instrument":6,"program":0,"isDrum":true},{"pitch":46,"velocity":80,"startTime":54.770571,"endTime":54.873781875,"instrument":6,"program":0,"isDrum":true},{"pitch":36,"velocity":120,"startTime":54.770571,"endTime":54.873781875,"instrument":6,"program":0,"isDrum":true},{"pitch":46,"velocity":80,"startTime":55.04580000000001,"endTime":55.149010874999995,"instrument":6,"program":0,"isDrum":true},{"pitch":36,"velocity":120,"startTime":55.04580000000001,"endTime":55.171946625,"instrument":6,"program":0,"isDrum":true},{"pitch":38,"velocity":128,"startTime":55.596258,"endTime":55.68800099999999,"instrument":6,"program":0,"isDrum":true},{"pitch":44,"velocity":121,"startTime":55.871486999999995,"endTime":55.92882637499999,"instrument":6,"program":0,"isDrum":true},{"pitch":44,"velocity":124,"startTime":56.146716000000005,"endTime":56.226991125000005,"instrument":6,"program":0,"isDrum":true},{"pitch":38,"velocity":128,"startTime":56.697174,"endTime":56.823320625,"instrument":6,"program":0,"isDrum":true},{"pitch":46,"velocity":80,"startTime":57.247632,"endTime":57.350842875000005,"instrument":6,"program":0,"isDrum":true},{"pitch":36,"velocity":120,"startTime":57.247632,"endTime":57.316439249999995,"instrument":6,"program":0,"isDrum":true},{"pitch":44,"velocity":124,"startTime":57.798089999999995,"endTime":58.01597962500001,"instrument":6,"program":0,"isDrum":true},{"pitch":38,"velocity":128,"startTime":57.798089999999995,"endTime":57.912768750000005,"instrument":6,"program":0,"isDrum":true},{"pitch":44,"velocity":128,"startTime":58.073319000000005,"endTime":58.17652987500001,"instrument":6,"program":0,"isDrum":true},{"pitch":40,"velocity":100,"startTime":58.199465624999995,"endTime":58.268272875,"instrument":6,"program":0,"isDrum":true},{"pitch":44,"velocity":124,"startTime":58.348548,"endTime":58.41735525000001,"instrument":6,"program":0,"isDrum":true},{"pitch":44,"velocity":125,"startTime":58.623777,"endTime":58.685703525,"instrument":6,"program":0,"isDrum":true},{"pitch":44,"velocity":126,"startTime":58.89900600000001,"endTime":58.96781325,"instrument":6,"program":0,"isDrum":true},{"pitch":38,"velocity":128,"startTime":58.89900600000001,"endTime":59.036620500000005,"instrument":6,"program":0,"isDrum":true},{"pitch":36,"velocity":120,"startTime":59.174235,"endTime":59.277445875000005,"instrument":6,"program":0,"isDrum":true},{"pitch":46,"velocity":80,"startTime":59.174235,"endTime":59.277445875000005,"instrument":6,"program":0,"isDrum":true},{"pitch":46,"velocity":80,"startTime":59.449464,"endTime":59.552674875,"instrument":6,"program":0,"isDrum":true},{"pitch":36,"velocity":120,"startTime":59.449464,"endTime":59.57561062499999,"instrument":6,"program":0,"isDrum":true},{"pitch":38,"velocity":128,"startTime":59.999922000000005,"endTime":60.091665,"instrument":6,"program":0,"isDrum":true},{"pitch":44,"velocity":121,"startTime":60.275151,"endTime":60.332490375,"instrument":6,"program":0,"isDrum":true},{"pitch":44,"velocity":124,"startTime":60.55038,"endTime":60.63065512500001,"instrument":6,"program":0,"isDrum":true},{"pitch":44,"velocity":128,"startTime":60.82560900000001,"endTime":61.0457922,"instrument":6,"program":0,"isDrum":true},{"pitch":44,"velocity":128,"startTime":61.100838,"endTime":61.541204400000005,"instrument":6,"program":0,"isDrum":true},{"pitch":38,"velocity":128,"startTime":61.100838,"endTime":61.22698462499999,"instrument":6,"program":0,"isDrum":true},{"pitch":46,"velocity":80,"startTime":61.651295999999995,"endTime":61.754506875,"instrument":6,"program":0,"isDrum":true},{"pitch":36,"velocity":120,"startTime":61.651295999999995,"endTime":61.72010325,"instrument":6,"program":0,"isDrum":true},{"pitch":44,"velocity":124,"startTime":62.201754,"endTime":62.419643625,"instrument":6,"program":0,"isDrum":true},{"pitch":38,"velocity":128,"startTime":62.201754,"endTime":62.31643275000001,"instrument":6,"program":0,"isDrum":true},{"pitch":44,"velocity":128,"startTime":62.476983,"endTime":62.580193875,"instrument":6,"program":0,"isDrum":true},{"pitch":40,"velocity":100,"startTime":62.603129625,"endTime":62.67193687499999,"instrument":6,"program":0,"isDrum":true},{"pitch":44,"velocity":124,"startTime":62.75221200000001,"endTime":62.82101925,"instrument":6,"program":0,"isDrum":true},{"pitch":44,"velocity":125,"startTime":63.027441,"endTime":63.08936752500001,"instrument":6,"program":0,"isDrum":true},{"pitch":44,"velocity":126,"startTime":63.30267,"endTime":63.371477250000005,"instrument":6,"program":0,"isDrum":true},{"pitch":38,"velocity":128,"startTime":63.30267,"endTime":63.4402845,"instrument":6,"program":0,"isDrum":true},{"pitch":36,"velocity":120,"startTime":63.577898999999995,"endTime":63.681109875,"instrument":6,"program":0,"isDrum":true},{"pitch":46,"velocity":80,"startTime":63.577898999999995,"endTime":63.681109875,"instrument":6,"program":0,"isDrum":true},{"pitch":46,"velocity":80,"startTime":63.853128000000005,"endTime":63.95633887500001,"instrument":6,"program":0,"isDrum":true},{"pitch":36,"velocity":120,"startTime":63.853128000000005,"endTime":63.979274624999995,"instrument":6,"program":0,"isDrum":true},{"pitch":38,"velocity":128,"startTime":64.40358599999999,"endTime":64.495329,"instrument":6,"program":0,"isDrum":true},{"pitch":44,"velocity":121,"startTime":64.67881500000001,"endTime":64.73615437499998,"instrument":6,"program":0,"isDrum":true},{"pitch":44,"velocity":124,"startTime":64.95404400000001,"endTime":65.034319125,"instrument":6,"program":0,"isDrum":true},{"pitch":38,"velocity":128,"startTime":65.504502,"endTime":65.63064862499999,"instrument":6,"program":0,"isDrum":true},{"pitch":36,"velocity":120,"startTime":65.779731,"endTime":65.882941875,"instrument":6,"program":0,"isDrum":true},{"pitch":46,"velocity":80,"startTime":65.779731,"endTime":65.882941875,"instrument":6,"program":0,"isDrum":true},{"pitch":46,"velocity":80,"startTime":66.05496,"endTime":66.158170875,"instrument":6,"program":0,"isDrum":true},{"pitch":36,"velocity":120,"startTime":66.05496,"endTime":66.12376725000001,"instrument":6,"program":0,"isDrum":true},{"pitch":44,"velocity":124,"startTime":66.60541800000001,"endTime":66.82330762500001,"instrument":6,"program":0,"isDrum":true},{"pitch":38,"velocity":128,"startTime":66.60541800000001,"endTime":66.72009675000001,"instrument":6,"program":0,"isDrum":true},{"pitch":44,"velocity":128,"startTime":66.88064700000001,"endTime":66.98385787500001,"instrument":6,"program":0,"isDrum":true},{"pitch":40,"velocity":100,"startTime":67.006793625,"endTime":67.07560087499999,"instrument":6,"program":0,"isDrum":true},{"pitch":44,"velocity":124,"startTime":67.155876,"endTime":67.22468325,"instrument":6,"program":0,"isDrum":true},{"pitch":44,"velocity":125,"startTime":67.431105,"endTime":67.49303152500002,"instrument":6,"program":0,"isDrum":true},{"pitch":44,"velocity":126,"startTime":67.706334,"endTime":67.77514124999999,"instrument":6,"program":0,"isDrum":true},{"pitch":38,"velocity":128,"startTime":67.706334,"endTime":67.84394850000001,"instrument":6,"program":0,"isDrum":true},{"pitch":36,"velocity":120,"startTime":67.981563,"endTime":68.084773875,"instrument":6,"program":0,"isDrum":true},{"pitch":46,"velocity":80,"startTime":67.981563,"endTime":68.084773875,"instrument":6,"program":0,"isDrum":true},{"pitch":46,"velocity":80,"startTime":68.25679199999999,"endTime":68.36000287499999,"instrument":6,"program":0,"isDrum":true},{"pitch":36,"velocity":120,"startTime":68.25679199999999,"endTime":68.38293862500001,"instrument":6,"program":0,"isDrum":true},{"pitch":38,"velocity":128,"startTime":68.80725000000001,"endTime":68.89899299999999,"instrument":6,"program":0,"isDrum":true},{"pitch":44,"velocity":121,"startTime":69.082479,"endTime":69.139818375,"instrument":6,"program":0,"isDrum":true},{"pitch":44,"velocity":124,"startTime":69.357708,"endTime":69.43798312500002,"instrument":6,"program":0,"isDrum":true},{"pitch":38,"velocity":128,"startTime":69.908166,"endTime":70.03431262499998,"instrument":6,"program":0,"isDrum":true},{"pitch":46,"velocity":80,"startTime":70.45862400000001,"endTime":70.56183487499999,"instrument":6,"program":0,"isDrum":true},{"pitch":36,"velocity":120,"startTime":70.45862400000001,"endTime":70.52743125,"instrument":6,"program":0,"isDrum":true},{"pitch":44,"velocity":124,"startTime":71.009082,"endTime":71.226971625,"instrument":6,"program":0,"isDrum":true},{"pitch":38,"velocity":128,"startTime":71.009082,"endTime":71.12376075,"instrument":6,"program":0,"isDrum":true},{"pitch":44,"velocity":128,"startTime":71.284311,"endTime":71.387521875,"instrument":6,"program":0,"isDrum":true},{"pitch":40,"velocity":100,"startTime":71.41045762499999,"endTime":71.47926487499998,"instrument":6,"program":0,"isDrum":true},{"pitch":44,"velocity":124,"startTime":71.55954,"endTime":71.62834724999999,"instrument":6,"program":0,"isDrum":true},{"pitch":44,"velocity":125,"startTime":71.834769,"endTime":71.89669552500001,"instrument":6,"program":0,"isDrum":true},{"pitch":44,"velocity":126,"startTime":72.10999799999999,"endTime":72.17880525000001,"instrument":6,"program":0,"isDrum":true},{"pitch":38,"velocity":128,"startTime":72.10999799999999,"endTime":72.2476125,"instrument":6,"program":0,"isDrum":true},{"pitch":46,"velocity":80,"startTime":72.38522699999999,"endTime":72.48843787499999,"instrument":6,"program":0,"isDrum":true},{"pitch":36,"velocity":120,"startTime":72.38522699999999,"endTime":72.48843787499999,"instrument":6,"program":0,"isDrum":true},{"pitch":46,"velocity":80,"startTime":72.66045600000001,"endTime":72.76366687500001,"instrument":6,"program":0,"isDrum":true},{"pitch":36,"velocity":120,"startTime":72.66045600000001,"endTime":72.786602625,"instrument":6,"program":0,"isDrum":true},{"pitch":38,"velocity":128,"startTime":73.210914,"endTime":73.30265699999998,"instrument":6,"program":0,"isDrum":true},{"pitch":44,"velocity":121,"startTime":73.486143,"endTime":73.543482375,"instrument":6,"program":0,"isDrum":true},{"pitch":44,"velocity":124,"startTime":73.761372,"endTime":73.84164712500001,"instrument":6,"program":0,"isDrum":true},{"pitch":38,"velocity":128,"startTime":74.31182999999999,"endTime":74.437976625,"instrument":6,"program":0,"isDrum":true},{"pitch":46,"velocity":80,"startTime":74.862288,"endTime":74.96549887500001,"instrument":6,"program":0,"isDrum":true},{"pitch":36,"velocity":120,"startTime":74.862288,"endTime":74.93109525,"instrument":6,"program":0,"isDrum":true},{"pitch":44,"velocity":124,"startTime":75.412746,"endTime":75.630635625,"instrument":6,"program":0,"isDrum":true},{"pitch":38,"velocity":128,"startTime":75.412746,"endTime":75.52742475,"instrument":6,"program":0,"isDrum":true},{"pitch":44,"velocity":128,"startTime":75.687975,"endTime":75.791185875,"instrument":6,"program":0,"isDrum":true},{"pitch":40,"velocity":100,"startTime":75.81412162499998,"endTime":75.882928875,"instrument":6,"program":0,"isDrum":true},{"pitch":44,"velocity":124,"startTime":75.96320399999999,"endTime":76.03201125000001,"instrument":6,"program":0,"isDrum":true},{"pitch":44,"velocity":125,"startTime":76.23843299999999,"endTime":76.300359525,"instrument":6,"program":0,"isDrum":true},{"pitch":44,"velocity":126,"startTime":76.51366200000001,"endTime":76.58246925,"instrument":6,"program":0,"isDrum":true},{"pitch":38,"velocity":128,"startTime":76.51366200000001,"endTime":76.6512765,"instrument":6,"program":0,"isDrum":true},{"pitch":36,"velocity":120,"startTime":76.788891,"endTime":76.89210187500001,"instrument":6,"program":0,"isDrum":true},{"pitch":46,"velocity":80,"startTime":76.788891,"endTime":76.89210187500001,"instrument":6,"program":0,"isDrum":true},{"pitch":46,"velocity":80,"startTime":77.06412,"endTime":77.167330875,"instrument":6,"program":0,"isDrum":true},{"pitch":36,"velocity":120,"startTime":77.06412,"endTime":77.19026662499999,"instrument":6,"program":0,"isDrum":true},{"pitch":38,"velocity":128,"startTime":77.614578,"endTime":77.706321,"instrument":6,"program":0,"isDrum":true},{"pitch":44,"velocity":121,"startTime":77.88980699999999,"endTime":77.94714637499999,"instrument":6,"program":0,"isDrum":true},{"pitch":44,"velocity":124,"startTime":78.16503599999999,"endTime":78.245311125,"instrument":6,"program":0,"isDrum":true},{"pitch":44,"velocity":128,"startTime":78.44026500000001,"endTime":78.66044819999999,"instrument":6,"program":0,"isDrum":true},{"pitch":44,"velocity":128,"startTime":78.715494,"endTime":79.1558604,"instrument":6,"program":0,"isDrum":true},{"pitch":38,"velocity":128,"startTime":78.715494,"endTime":78.841640625,"instrument":6,"program":0,"isDrum":true},{"pitch":46,"velocity":80,"startTime":79.265952,"endTime":79.369162875,"instrument":6,"program":0,"isDrum":true},{"pitch":36,"velocity":120,"startTime":79.265952,"endTime":79.33475924999999,"instrument":6,"program":0,"isDrum":true},{"pitch":44,"velocity":124,"startTime":79.81640999999999,"endTime":80.03429962500002,"instrument":6,"program":0,"isDrum":true},{"pitch":38,"velocity":128,"startTime":79.81640999999999,"endTime":79.93108875000001,"instrument":6,"program":0,"isDrum":true},{"pitch":44,"velocity":128,"startTime":80.09163899999999,"endTime":80.19484987499999,"instrument":6,"program":0,"isDrum":true},{"pitch":40,"velocity":100,"startTime":80.217785625,"endTime":80.286592875,"instrument":6,"program":0,"isDrum":true},{"pitch":44,"velocity":124,"startTime":80.36686800000001,"endTime":80.43567525,"instrument":6,"program":0,"isDrum":true},{"pitch":44,"velocity":125,"startTime":80.642097,"endTime":80.704023525,"instrument":6,"program":0,"isDrum":true},{"pitch":44,"velocity":126,"startTime":80.917326,"endTime":80.98613325,"instrument":6,"program":0,"isDrum":true},{"pitch":38,"velocity":128,"startTime":80.917326,"endTime":81.05494049999999,"instrument":6,"program":0,"isDrum":true},{"pitch":36,"velocity":120,"startTime":81.192555,"endTime":81.295765875,"instrument":6,"program":0,"isDrum":true},{"pitch":46,"velocity":80,"startTime":81.192555,"endTime":81.295765875,"instrument":6,"program":0,"isDrum":true},{"pitch":46,"velocity":80,"startTime":81.467784,"endTime":81.570994875,"instrument":6,"program":0,"isDrum":true},{"pitch":36,"velocity":120,"startTime":81.467784,"endTime":81.59393062499998,"instrument":6,"program":0,"isDrum":true},{"pitch":38,"velocity":128,"startTime":82.01824199999999,"endTime":82.109985,"instrument":6,"program":0,"isDrum":true},{"pitch":44,"velocity":121,"startTime":82.29347100000001,"endTime":82.35081037500001,"instrument":6,"program":0,"isDrum":true},{"pitch":44,"velocity":124,"startTime":82.5687,"endTime":82.64897512499999,"instrument":6,"program":0,"isDrum":true},{"pitch":38,"velocity":128,"startTime":83.119158,"endTime":83.24530462499999,"instrument":6,"program":0,"isDrum":true},{"pitch":36,"velocity":120,"startTime":83.394387,"endTime":83.497597875,"instrument":6,"program":0,"isDrum":true},{"pitch":46,"velocity":80,"startTime":83.394387,"endTime":83.497597875,"instrument":6,"program":0,"isDrum":true},{"pitch":46,"velocity":80,"startTime":83.66961599999999,"endTime":83.77282687499999,"instrument":6,"program":0,"isDrum":true},{"pitch":36,"velocity":120,"startTime":83.66961599999999,"endTime":83.73842325000001,"instrument":6,"program":0,"isDrum":true},{"pitch":44,"velocity":124,"startTime":84.22007400000001,"endTime":84.43796362500001,"instrument":6,"program":0,"isDrum":true},{"pitch":38,"velocity":128,"startTime":84.22007400000001,"endTime":84.33475275,"instrument":6,"program":0,"isDrum":true},{"pitch":44,"velocity":128,"startTime":84.495303,"endTime":84.59851387500001,"instrument":6,"program":0,"isDrum":true},{"pitch":40,"velocity":100,"startTime":84.621449625,"endTime":84.69025687499999,"instrument":6,"program":0,"isDrum":true},{"pitch":44,"velocity":124,"startTime":84.770532,"endTime":84.83933925,"instrument":6,"program":0,"isDrum":true},{"pitch":44,"velocity":125,"startTime":85.045761,"endTime":85.10768752500002,"instrument":6,"program":0,"isDrum":true},{"pitch":44,"velocity":126,"startTime":85.32099,"endTime":85.38979724999999,"instrument":6,"program":0,"isDrum":true},{"pitch":38,"velocity":128,"startTime":85.32099,"endTime":85.4586045,"instrument":6,"program":0,"isDrum":true},{"pitch":36,"velocity":120,"startTime":85.59621899999999,"endTime":85.69942987499999,"instrument":6,"program":0,"isDrum":true},{"pitch":46,"velocity":80,"startTime":85.59621899999999,"endTime":85.69942987499999,"instrument":6,"program":0,"isDrum":true},{"pitch":46,"velocity":80,"startTime":85.87144799999999,"endTime":85.97465887499999,"instrument":6,"program":0,"isDrum":true},{"pitch":36,"velocity":120,"startTime":85.87144799999999,"endTime":85.997594625,"instrument":6,"program":0,"isDrum":true},{"pitch":38,"velocity":128,"startTime":86.421906,"endTime":86.51364899999999,"instrument":6,"program":0,"isDrum":true},{"pitch":44,"velocity":121,"startTime":86.697135,"endTime":86.754474375,"instrument":6,"program":0,"isDrum":true},{"pitch":44,"velocity":124,"startTime":86.972364,"endTime":87.05263912500001,"instrument":6,"program":0,"isDrum":true},{"pitch":38,"velocity":128,"startTime":87.52282199999999,"endTime":87.64896862500001,"instrument":6,"program":0,"isDrum":true},{"pitch":46,"velocity":80,"startTime":88.07328000000001,"endTime":88.17649087500001,"instrument":6,"program":0,"isDrum":true},{"pitch":36,"velocity":120,"startTime":88.07328000000001,"endTime":88.14208725,"instrument":6,"program":0,"isDrum":true},{"pitch":44,"velocity":124,"startTime":88.623738,"endTime":88.841627625,"instrument":6,"program":0,"isDrum":true},{"pitch":38,"velocity":128,"startTime":88.623738,"endTime":88.73841675,"instrument":6,"program":0,"isDrum":true},{"pitch":44,"velocity":128,"startTime":88.898967,"endTime":89.002177875,"instrument":6,"program":0,"isDrum":true},{"pitch":40,"velocity":100,"startTime":89.02511362499999,"endTime":89.09392087500001,"instrument":6,"program":0,"isDrum":true},{"pitch":44,"velocity":124,"startTime":89.174196,"endTime":89.24300324999999,"instrument":6,"program":0,"isDrum":true},{"pitch":44,"velocity":125,"startTime":89.44942499999999,"endTime":89.51135152500001,"instrument":6,"program":0,"isDrum":true},{"pitch":44,"velocity":126,"startTime":89.72465399999999,"endTime":89.79346125000001,"instrument":6,"program":0,"isDrum":true},{"pitch":38,"velocity":128,"startTime":89.72465399999999,"endTime":89.8622685,"instrument":6,"program":0,"isDrum":true},{"pitch":46,"velocity":80,"startTime":89.99988300000001,"endTime":90.10309387500001,"instrument":6,"program":0,"isDrum":true},{"pitch":36,"velocity":120,"startTime":89.99988300000001,"endTime":90.10309387500001,"instrument":6,"program":0,"isDrum":true},{"pitch":46,"velocity":80,"startTime":90.27511200000001,"endTime":90.37832287500001,"instrument":6,"program":0,"isDrum":true},{"pitch":36,"velocity":120,"startTime":90.27511200000001,"endTime":90.401258625,"instrument":6,"program":0,"isDrum":true},{"pitch":38,"velocity":128,"startTime":90.82557,"endTime":90.91731300000001,"instrument":6,"program":0,"isDrum":true},{"pitch":44,"velocity":121,"startTime":91.100799,"endTime":91.158138375,"instrument":6,"program":0,"isDrum":true},{"pitch":44,"velocity":124,"startTime":91.37602799999999,"endTime":91.456303125,"instrument":6,"program":0,"isDrum":true},{"pitch":38,"velocity":128,"startTime":91.92648600000001,"endTime":92.052632625,"instrument":6,"program":0,"isDrum":true},{"pitch":46,"velocity":80,"startTime":92.476944,"endTime":92.580154875,"instrument":6,"program":0,"isDrum":true},{"pitch":36,"velocity":120,"startTime":92.476944,"endTime":92.54575125,"instrument":6,"program":0,"isDrum":true},{"pitch":44,"velocity":124,"startTime":93.027402,"endTime":93.24529162500002,"instrument":6,"program":0,"isDrum":true},{"pitch":38,"velocity":128,"startTime":93.027402,"endTime":93.14208075000002,"instrument":6,"program":0,"isDrum":true},{"pitch":44,"velocity":128,"startTime":93.30263100000002,"endTime":93.40584187500002,"instrument":6,"program":0,"isDrum":true},{"pitch":40,"velocity":100,"startTime":93.42877762500001,"endTime":93.497584875,"instrument":6,"program":0,"isDrum":true},{"pitch":44,"velocity":124,"startTime":93.57786000000002,"endTime":93.64666725000001,"instrument":6,"program":0,"isDrum":true},{"pitch":44,"velocity":125,"startTime":93.85308900000001,"endTime":93.915015525,"instrument":6,"program":0,"isDrum":true},{"pitch":44,"velocity":126,"startTime":94.12831800000001,"endTime":94.19712525,"instrument":6,"program":0,"isDrum":true},{"pitch":38,"velocity":128,"startTime":94.12831800000001,"endTime":94.26593250000002,"instrument":6,"program":0,"isDrum":true},{"pitch":36,"velocity":120,"startTime":94.403547,"endTime":94.506757875,"instrument":6,"program":0,"isDrum":true},{"pitch":46,"velocity":80,"startTime":94.403547,"endTime":94.506757875,"instrument":6,"program":0,"isDrum":true},{"pitch":46,"velocity":80,"startTime":94.678776,"endTime":94.781986875,"instrument":6,"program":0,"isDrum":true},{"pitch":36,"velocity":120,"startTime":94.678776,"endTime":94.80492262499999,"instrument":6,"program":0,"isDrum":true},{"pitch":38,"velocity":128,"startTime":95.22923400000002,"endTime":95.320977,"instrument":6,"program":0,"isDrum":true},{"pitch":44,"velocity":121,"startTime":95.50446300000002,"endTime":95.56180237500001,"instrument":6,"program":0,"isDrum":true},{"pitch":44,"velocity":124,"startTime":95.77969200000001,"endTime":95.85996712500003,"instrument":6,"program":0,"isDrum":true},{"pitch":44,"velocity":128,"startTime":96.05492100000001,"endTime":96.27510420000002,"instrument":6,"program":0,"isDrum":true},{"pitch":44,"velocity":128,"startTime":96.33015,"endTime":96.77051640000002,"instrument":6,"program":0,"isDrum":true},{"pitch":38,"velocity":128,"startTime":96.33015,"endTime":96.456296625,"instrument":6,"program":0,"isDrum":true},{"pitch":46,"velocity":80,"startTime":96.880608,"endTime":96.983818875,"instrument":6,"program":0,"isDrum":true},{"pitch":36,"velocity":120,"startTime":96.880608,"endTime":96.94941525000002,"instrument":6,"program":0,"isDrum":true},{"pitch":44,"velocity":124,"startTime":97.43106600000002,"endTime":97.64895562500001,"instrument":6,"program":0,"isDrum":true},{"pitch":38,"velocity":128,"startTime":97.43106600000002,"endTime":97.54574475000001,"instrument":6,"program":0,"isDrum":true},{"pitch":44,"velocity":128,"startTime":97.70629500000001,"endTime":97.80950587500001,"instrument":6,"program":0,"isDrum":true},{"pitch":40,"velocity":100,"startTime":97.832441625,"endTime":97.901248875,"instrument":6,"program":0,"isDrum":true},{"pitch":44,"velocity":124,"startTime":97.98152400000001,"endTime":98.05033125,"instrument":6,"program":0,"isDrum":true},{"pitch":44,"velocity":125,"startTime":98.256753,"endTime":98.31867952500002,"instrument":6,"program":0,"isDrum":true},{"pitch":44,"velocity":126,"startTime":98.531982,"endTime":98.60078925000002,"instrument":6,"program":0,"isDrum":true},{"pitch":38,"velocity":128,"startTime":98.531982,"endTime":98.66959650000001,"instrument":6,"program":0,"isDrum":true},{"pitch":36,"velocity":120,"startTime":98.807211,"endTime":98.910421875,"instrument":6,"program":0,"isDrum":true},{"pitch":46,"velocity":80,"startTime":98.807211,"endTime":98.910421875,"instrument":6,"program":0,"isDrum":true},{"pitch":46,"velocity":80,"startTime":99.08244000000002,"endTime":99.18565087500002,"instrument":6,"program":0,"isDrum":true},{"pitch":36,"velocity":120,"startTime":99.08244000000002,"endTime":99.20858662500001,"instrument":6,"program":0,"isDrum":true},{"pitch":38,"velocity":128,"startTime":99.63289800000001,"endTime":99.72464099999999,"instrument":6,"program":0,"isDrum":true},{"pitch":44,"velocity":121,"startTime":99.90812700000001,"endTime":99.965466375,"instrument":6,"program":0,"isDrum":true},{"pitch":44,"velocity":124,"startTime":100.183356,"endTime":100.26363112500002,"instrument":6,"program":0,"isDrum":true},{"pitch":38,"velocity":128,"startTime":100.733814,"endTime":100.85996062500001,"instrument":6,"program":0,"isDrum":true},{"pitch":36,"velocity":120,"startTime":101.00904300000002,"endTime":101.11225387500002,"instrument":6,"program":0,"isDrum":true},{"pitch":46,"velocity":80,"startTime":101.00904300000002,"endTime":101.11225387500002,"instrument":6,"program":0,"isDrum":true},{"pitch":46,"velocity":80,"startTime":101.28427200000002,"endTime":101.38748287500002,"instrument":6,"program":0,"isDrum":true},{"pitch":36,"velocity":120,"startTime":101.28427200000002,"endTime":101.35307925000001,"instrument":6,"program":0,"isDrum":true},{"pitch":44,"velocity":124,"startTime":101.83473000000001,"endTime":102.052619625,"instrument":6,"program":0,"isDrum":true},{"pitch":38,"velocity":128,"startTime":101.83473000000001,"endTime":101.94940875,"instrument":6,"program":0,"isDrum":true},{"pitch":44,"velocity":128,"startTime":102.109959,"endTime":102.213169875,"instrument":6,"program":0,"isDrum":true},{"pitch":40,"velocity":100,"startTime":102.236105625,"endTime":102.30491287500001,"instrument":6,"program":0,"isDrum":true},{"pitch":44,"velocity":124,"startTime":102.385188,"endTime":102.45399525000002,"instrument":6,"program":0,"isDrum":true},{"pitch":44,"velocity":125,"startTime":102.660417,"endTime":102.72234352500001,"instrument":6,"program":0,"isDrum":true},{"pitch":44,"velocity":126,"startTime":102.93564600000002,"endTime":103.00445325000001,"instrument":6,"program":0,"isDrum":true},{"pitch":38,"velocity":128,"startTime":102.93564600000002,"endTime":103.0732605,"instrument":6,"program":0,"isDrum":true},{"pitch":36,"velocity":120,"startTime":103.21087500000002,"endTime":103.31408587500002,"instrument":6,"program":0,"isDrum":true},{"pitch":46,"velocity":80,"startTime":103.21087500000002,"endTime":103.31408587500002,"instrument":6,"program":0,"isDrum":true},{"pitch":46,"velocity":80,"startTime":103.48610400000001,"endTime":103.58931487500001,"instrument":6,"program":0,"isDrum":true},{"pitch":36,"velocity":120,"startTime":103.48610400000001,"endTime":103.612250625,"instrument":6,"program":0,"isDrum":true},{"pitch":38,"velocity":128,"startTime":104.036562,"endTime":104.12830500000001,"instrument":6,"program":0,"isDrum":true},{"pitch":44,"velocity":121,"startTime":104.311791,"endTime":104.369130375,"instrument":6,"program":0,"isDrum":true},{"pitch":44,"velocity":124,"startTime":104.58702,"endTime":104.66729512500001,"instrument":6,"program":0,"isDrum":true},{"pitch":38,"velocity":128,"startTime":105.13747800000002,"endTime":105.263624625,"instrument":6,"program":0,"isDrum":true},{"pitch":46,"velocity":80,"startTime":105.68793600000001,"endTime":105.79114687500001,"instrument":6,"program":0,"isDrum":true},{"pitch":36,"velocity":120,"startTime":105.68793600000001,"endTime":105.75674325,"instrument":6,"program":0,"isDrum":true},{"pitch":44,"velocity":124,"startTime":106.238394,"endTime":106.456283625,"instrument":6,"program":0,"isDrum":true},{"pitch":38,"velocity":128,"startTime":106.238394,"endTime":106.35307275,"instrument":6,"program":0,"isDrum":true},{"pitch":44,"velocity":128,"startTime":106.513623,"endTime":106.616833875,"instrument":6,"program":0,"isDrum":true},{"pitch":40,"velocity":100,"startTime":106.63976962500001,"endTime":106.708576875,"instrument":6,"program":0,"isDrum":true},{"pitch":44,"velocity":124,"startTime":106.78885200000002,"endTime":106.85765925000001,"instrument":6,"program":0,"isDrum":true},{"pitch":44,"velocity":125,"startTime":107.06408100000002,"endTime":107.126007525,"instrument":6,"program":0,"isDrum":true},{"pitch":44,"velocity":126,"startTime":107.33931000000001,"endTime":107.40811725,"instrument":6,"program":0,"isDrum":true},{"pitch":38,"velocity":128,"startTime":107.33931000000001,"endTime":107.4769245,"instrument":6,"program":0,"isDrum":true},{"pitch":46,"velocity":80,"startTime":107.61453900000001,"endTime":107.71774987500001,"instrument":6,"program":0,"isDrum":true},{"pitch":36,"velocity":120,"startTime":107.61453900000001,"endTime":107.71774987500001,"instrument":6,"program":0,"isDrum":true},{"pitch":46,"velocity":80,"startTime":107.889768,"endTime":107.992978875,"instrument":6,"program":0,"isDrum":true},{"pitch":36,"velocity":120,"startTime":107.889768,"endTime":108.01591462500002,"instrument":6,"program":0,"isDrum":true},{"pitch":38,"velocity":128,"startTime":108.440226,"endTime":108.53196900000003,"instrument":6,"program":0,"isDrum":true},{"pitch":44,"velocity":121,"startTime":108.71545500000002,"endTime":108.77279437500002,"instrument":6,"program":0,"isDrum":true},{"pitch":44,"velocity":124,"startTime":108.99068400000002,"endTime":109.070959125,"instrument":6,"program":0,"isDrum":true},{"pitch":38,"velocity":128,"startTime":109.54114200000001,"endTime":109.66728862500003,"instrument":6,"program":0,"isDrum":true},{"pitch":46,"velocity":80,"startTime":110.0916,"endTime":110.194810875,"instrument":6,"program":0,"isDrum":true},{"pitch":36,"velocity":120,"startTime":110.0916,"endTime":110.16040725000002,"instrument":6,"program":0,"isDrum":true},{"pitch":44,"velocity":124,"startTime":110.64205800000002,"endTime":110.85994762499999,"instrument":6,"program":0,"isDrum":true},{"pitch":38,"velocity":128,"startTime":110.64205800000002,"endTime":110.75673674999999,"instrument":6,"program":0,"isDrum":true},{"pitch":44,"velocity":128,"startTime":110.91728700000002,"endTime":111.02049787500002,"instrument":6,"program":0,"isDrum":true},{"pitch":40,"velocity":100,"startTime":111.043433625,"endTime":111.11224087500003,"instrument":6,"program":0,"isDrum":true},{"pitch":44,"velocity":124,"startTime":111.19251600000001,"endTime":111.26132325,"instrument":6,"program":0,"isDrum":true},{"pitch":44,"velocity":125,"startTime":111.46774500000001,"endTime":111.52967152500003,"instrument":6,"program":0,"isDrum":true},{"pitch":44,"velocity":126,"startTime":111.742974,"endTime":111.81178125,"instrument":6,"program":0,"isDrum":true},{"pitch":38,"velocity":128,"startTime":111.742974,"endTime":111.88058850000002,"instrument":6,"program":0,"isDrum":true},{"pitch":36,"velocity":120,"startTime":112.018203,"endTime":112.121413875,"instrument":6,"program":0,"isDrum":true},{"pitch":46,"velocity":80,"startTime":112.018203,"endTime":112.121413875,"instrument":6,"program":0,"isDrum":true},{"pitch":46,"velocity":80,"startTime":112.293432,"endTime":112.396642875,"instrument":6,"program":0,"isDrum":true},{"pitch":36,"velocity":120,"startTime":112.293432,"endTime":112.41957862500001,"instrument":6,"program":0,"isDrum":true},{"pitch":38,"velocity":128,"startTime":112.84389000000002,"endTime":112.93563300000002,"instrument":6,"program":0,"isDrum":true},{"pitch":44,"velocity":121,"startTime":113.11911900000001,"endTime":113.17645837500001,"instrument":6,"program":0,"isDrum":true},{"pitch":44,"velocity":124,"startTime":113.39434800000001,"endTime":113.474623125,"instrument":6,"program":0,"isDrum":true},{"pitch":44,"velocity":128,"startTime":113.669577,"endTime":113.88976019999998,"instrument":6,"program":0,"isDrum":true},{"pitch":44,"velocity":128,"startTime":113.944806,"endTime":114.38517240000002,"instrument":6,"program":0,"isDrum":true},{"pitch":38,"velocity":128,"startTime":113.944806,"endTime":114.07095262500002,"instrument":6,"program":0,"isDrum":true},{"pitch":46,"velocity":80,"startTime":114.49526400000002,"endTime":114.598474875,"instrument":6,"program":0,"isDrum":true},{"pitch":36,"velocity":120,"startTime":114.49526400000002,"endTime":114.56407125000001,"instrument":6,"program":0,"isDrum":true},{"pitch":44,"velocity":124,"startTime":115.04572200000001,"endTime":115.26361162500001,"instrument":6,"program":0,"isDrum":true},{"pitch":38,"velocity":128,"startTime":115.04572200000001,"endTime":115.16040075000001,"instrument":6,"program":0,"isDrum":true},{"pitch":44,"velocity":128,"startTime":115.32095100000001,"endTime":115.42416187500001,"instrument":6,"program":0,"isDrum":true},{"pitch":40,"velocity":100,"startTime":115.44709762500003,"endTime":115.51590487500002,"instrument":6,"program":0,"isDrum":true},{"pitch":44,"velocity":124,"startTime":115.59618,"endTime":115.66498725,"instrument":6,"program":0,"isDrum":true},{"pitch":44,"velocity":125,"startTime":115.871409,"endTime":115.93333552500002,"instrument":6,"program":0,"isDrum":true},{"pitch":44,"velocity":126,"startTime":116.146638,"endTime":116.21544525000002,"instrument":6,"program":0,"isDrum":true},{"pitch":38,"velocity":128,"startTime":116.146638,"endTime":116.28425250000001,"instrument":6,"program":0,"isDrum":true},{"pitch":36,"velocity":120,"startTime":116.42186700000002,"endTime":116.525077875,"instrument":6,"program":0,"isDrum":true},{"pitch":46,"velocity":80,"startTime":116.42186700000002,"endTime":116.525077875,"instrument":6,"program":0,"isDrum":true},{"pitch":46,"velocity":80,"startTime":116.69709600000002,"endTime":116.80030687500002,"instrument":6,"program":0,"isDrum":true},{"pitch":36,"velocity":120,"startTime":116.69709600000002,"endTime":116.823242625,"instrument":6,"program":0,"isDrum":true},{"pitch":38,"velocity":128,"startTime":117.24755400000001,"endTime":117.33929700000002,"instrument":6,"program":0,"isDrum":true},{"pitch":44,"velocity":121,"startTime":117.522783,"endTime":117.58012237500003,"instrument":6,"program":0,"isDrum":true},{"pitch":44,"velocity":124,"startTime":117.798012,"endTime":117.87828712499999,"instrument":6,"program":0,"isDrum":true},{"pitch":38,"velocity":128,"startTime":118.34847000000002,"endTime":118.47461662500001,"instrument":6,"program":0,"isDrum":true},{"pitch":36,"velocity":120,"startTime":118.62369900000002,"endTime":118.72690987500002,"instrument":6,"program":0,"isDrum":true},{"pitch":46,"velocity":80,"startTime":118.62369900000002,"endTime":118.72690987500002,"instrument":6,"program":0,"isDrum":true},{"pitch":46,"velocity":80,"startTime":118.89892800000001,"endTime":119.00213887500001,"instrument":6,"program":0,"isDrum":true},{"pitch":36,"velocity":120,"startTime":118.89892800000001,"endTime":118.96773525,"instrument":6,"program":0,"isDrum":true},{"pitch":44,"velocity":124,"startTime":119.449386,"endTime":119.667275625,"instrument":6,"program":0,"isDrum":true},{"pitch":38,"velocity":128,"startTime":119.449386,"endTime":119.56406475,"instrument":6,"program":0,"isDrum":true},{"pitch":44,"velocity":128,"startTime":119.724615,"endTime":119.827825875,"instrument":6,"program":0,"isDrum":true},{"pitch":40,"velocity":100,"startTime":119.85076162500002,"endTime":119.91956887500001,"instrument":6,"program":0,"isDrum":true},{"pitch":44,"velocity":124,"startTime":119.999844,"endTime":120.06865125000002,"instrument":6,"program":0,"isDrum":true},{"pitch":44,"velocity":125,"startTime":120.27507300000002,"endTime":120.33699952500001,"instrument":6,"program":0,"isDrum":true},{"pitch":44,"velocity":126,"startTime":120.55030200000002,"endTime":120.61910925000001,"instrument":6,"program":0,"isDrum":true},{"pitch":38,"velocity":128,"startTime":120.55030200000002,"endTime":120.6879165,"instrument":6,"program":0,"isDrum":true},{"pitch":36,"velocity":120,"startTime":120.82553100000001,"endTime":120.92874187500001,"instrument":6,"program":0,"isDrum":true},{"pitch":46,"velocity":80,"startTime":120.82553100000001,"endTime":120.92874187500001,"instrument":6,"program":0,"isDrum":true},{"pitch":46,"velocity":80,"startTime":121.10076000000001,"endTime":121.20397087500001,"instrument":6,"program":0,"isDrum":true},{"pitch":36,"velocity":120,"startTime":121.10076000000001,"endTime":121.22690662500003,"instrument":6,"program":0,"isDrum":true},{"pitch":38,"velocity":128,"startTime":121.651218,"endTime":121.74296100000001,"instrument":6,"program":0,"isDrum":true},{"pitch":44,"velocity":121,"startTime":121.926447,"endTime":121.98378637500002,"instrument":6,"program":0,"isDrum":true},{"pitch":44,"velocity":124,"startTime":122.20167600000002,"endTime":122.281951125,"instrument":6,"program":0,"isDrum":true},{"pitch":38,"velocity":128,"startTime":122.75213400000001,"endTime":122.87828062500003,"instrument":6,"program":0,"isDrum":true},{"pitch":46,"velocity":80,"startTime":123.302592,"endTime":123.405802875,"instrument":6,"program":0,"isDrum":true},{"pitch":36,"velocity":120,"startTime":123.302592,"endTime":123.37139925,"instrument":6,"program":0,"isDrum":true},{"pitch":44,"velocity":124,"startTime":123.85305,"endTime":124.070939625,"instrument":6,"program":0,"isDrum":true},{"pitch":38,"velocity":128,"startTime":123.85305,"endTime":123.96772874999999,"instrument":6,"program":0,"isDrum":true},{"pitch":44,"velocity":128,"startTime":124.12827900000002,"endTime":124.231489875,"instrument":6,"program":0,"isDrum":true},{"pitch":40,"velocity":100,"startTime":124.25442562500001,"endTime":124.32323287500003,"instrument":6,"program":0,"isDrum":true},{"pitch":44,"velocity":124,"startTime":124.40350800000002,"endTime":124.47231525000001,"instrument":6,"program":0,"isDrum":true},{"pitch":44,"velocity":125,"startTime":124.67873700000001,"endTime":124.740663525,"instrument":6,"program":0,"isDrum":true},{"pitch":44,"velocity":126,"startTime":124.95396600000001,"endTime":125.02277325,"instrument":6,"program":0,"isDrum":true},{"pitch":38,"velocity":128,"startTime":124.95396600000001,"endTime":125.09158050000002,"instrument":6,"program":0,"isDrum":true},{"pitch":46,"velocity":80,"startTime":125.229195,"endTime":125.332405875,"instrument":6,"program":0,"isDrum":true},{"pitch":36,"velocity":120,"startTime":125.229195,"endTime":125.332405875,"instrument":6,"program":0,"isDrum":true},{"pitch":46,"velocity":80,"startTime":125.504424,"endTime":125.607634875,"instrument":6,"program":0,"isDrum":true},{"pitch":36,"velocity":120,"startTime":125.504424,"endTime":125.63057062500002,"instrument":6,"program":0,"isDrum":true},{"pitch":38,"velocity":128,"startTime":126.05488200000002,"endTime":126.14662500000003,"instrument":6,"program":0,"isDrum":true},{"pitch":44,"velocity":121,"startTime":126.33011100000002,"endTime":126.38745037500001,"instrument":6,"program":0,"isDrum":true},{"pitch":44,"velocity":124,"startTime":126.60534000000001,"endTime":126.685615125,"instrument":6,"program":0,"isDrum":true},{"pitch":38,"velocity":128,"startTime":127.155798,"endTime":127.28194462500002,"instrument":6,"program":0,"isDrum":true},{"pitch":46,"velocity":80,"startTime":127.706256,"endTime":127.809466875,"instrument":6,"program":0,"isDrum":true},{"pitch":36,"velocity":120,"startTime":127.706256,"endTime":127.77506325000002,"instrument":6,"program":0,"isDrum":true},{"pitch":44,"velocity":124,"startTime":128.25671400000002,"endTime":128.474603625,"instrument":6,"program":0,"isDrum":true},{"pitch":38,"velocity":128,"startTime":128.25671400000002,"endTime":128.37139274999998,"instrument":6,"program":0,"isDrum":true},{"pitch":44,"velocity":128,"startTime":128.531943,"endTime":128.63515387500001,"instrument":6,"program":0,"isDrum":true},{"pitch":40,"velocity":100,"startTime":128.65808962500003,"endTime":128.72689687500002,"instrument":6,"program":0,"isDrum":true},{"pitch":44,"velocity":124,"startTime":128.807172,"endTime":128.87597925,"instrument":6,"program":0,"isDrum":true},{"pitch":44,"velocity":125,"startTime":129.082401,"endTime":129.14432752500002,"instrument":6,"program":0,"isDrum":true},{"pitch":44,"velocity":126,"startTime":129.35763,"endTime":129.42643725000002,"instrument":6,"program":0,"isDrum":true},{"pitch":38,"velocity":128,"startTime":129.35763,"endTime":129.4952445,"instrument":6,"program":0,"isDrum":true},{"pitch":36,"velocity":120,"startTime":129.632859,"endTime":129.736069875,"instrument":6,"program":0,"isDrum":true},{"pitch":46,"velocity":80,"startTime":129.632859,"endTime":129.736069875,"instrument":6,"program":0,"isDrum":true},{"pitch":46,"velocity":80,"startTime":129.90808800000002,"endTime":130.011298875,"instrument":6,"program":0,"isDrum":true},{"pitch":36,"velocity":120,"startTime":129.90808800000002,"endTime":130.034234625,"instrument":6,"program":0,"isDrum":true},{"pitch":38,"velocity":128,"startTime":130.458546,"endTime":130.55028900000002,"instrument":6,"program":0,"isDrum":true},{"pitch":44,"velocity":121,"startTime":130.733775,"endTime":130.791114375,"instrument":6,"program":0,"isDrum":true},{"pitch":44,"velocity":124,"startTime":131.009004,"endTime":131.089279125,"instrument":6,"program":0,"isDrum":true},{"pitch":44,"velocity":128,"startTime":131.284233,"endTime":131.5044162,"instrument":6,"program":0,"isDrum":true},{"pitch":44,"velocity":128,"startTime":131.559462,"endTime":131.9998284,"instrument":6,"program":0,"isDrum":true},{"pitch":38,"velocity":128,"startTime":131.559462,"endTime":131.68560862500001,"instrument":6,"program":0,"isDrum":true},{"pitch":46,"velocity":80,"startTime":132.10992000000002,"endTime":132.21313087500002,"instrument":6,"program":0,"isDrum":true},{"pitch":36,"velocity":120,"startTime":132.10992000000002,"endTime":132.17872725,"instrument":6,"program":0,"isDrum":true},{"pitch":44,"velocity":124,"startTime":132.660378,"endTime":132.878267625,"instrument":6,"program":0,"isDrum":true},{"pitch":38,"velocity":128,"startTime":132.660378,"endTime":132.77505675,"instrument":6,"program":0,"isDrum":true},{"pitch":44,"velocity":128,"startTime":132.935607,"endTime":133.038817875,"instrument":6,"program":0,"isDrum":true},{"pitch":40,"velocity":100,"startTime":133.06175362500002,"endTime":133.13056087500001,"instrument":6,"program":0,"isDrum":true},{"pitch":44,"velocity":124,"startTime":133.210836,"endTime":133.27964325000002,"instrument":6,"program":0,"isDrum":true},{"pitch":44,"velocity":125,"startTime":133.486065,"endTime":133.54799152500001,"instrument":6,"program":0,"isDrum":true},{"pitch":44,"velocity":126,"startTime":133.76129400000002,"endTime":133.83010125,"instrument":6,"program":0,"isDrum":true},{"pitch":38,"velocity":128,"startTime":133.76129400000002,"endTime":133.8989085,"instrument":6,"program":0,"isDrum":true},{"pitch":36,"velocity":120,"startTime":134.03652300000002,"endTime":134.13973387500002,"instrument":6,"program":0,"isDrum":true},{"pitch":46,"velocity":80,"startTime":134.03652300000002,"endTime":134.13973387500002,"instrument":6,"program":0,"isDrum":true},{"pitch":46,"velocity":80,"startTime":134.311752,"endTime":134.41496287500001,"instrument":6,"program":0,"isDrum":true},{"pitch":36,"velocity":120,"startTime":134.311752,"endTime":134.43789862500003,"instrument":6,"program":0,"isDrum":true},{"pitch":38,"velocity":128,"startTime":134.86221,"endTime":134.953953,"instrument":6,"program":0,"isDrum":true},{"pitch":44,"velocity":121,"startTime":135.137439,"endTime":135.19477837500003,"instrument":6,"program":0,"isDrum":true},{"pitch":44,"velocity":124,"startTime":135.412668,"endTime":135.492943125,"instrument":6,"program":0,"isDrum":true},{"pitch":38,"velocity":128,"startTime":135.96312600000002,"endTime":136.089272625,"instrument":6,"program":0,"isDrum":true},{"pitch":36,"velocity":120,"startTime":136.238355,"endTime":136.34156587500001,"instrument":6,"program":0,"isDrum":true},{"pitch":46,"velocity":80,"startTime":136.238355,"endTime":136.34156587500001,"instrument":6,"program":0,"isDrum":true},{"pitch":46,"velocity":80,"startTime":136.513584,"endTime":136.616794875,"instrument":6,"program":0,"isDrum":true},{"pitch":36,"velocity":120,"startTime":136.513584,"endTime":136.58239125,"instrument":6,"program":0,"isDrum":true},{"pitch":44,"velocity":124,"startTime":137.064042,"endTime":137.281931625,"instrument":6,"program":0,"isDrum":true},{"pitch":38,"velocity":128,"startTime":137.064042,"endTime":137.17872075,"instrument":6,"program":0,"isDrum":true},{"pitch":44,"velocity":128,"startTime":137.339271,"endTime":137.442481875,"instrument":6,"program":0,"isDrum":true},{"pitch":40,"velocity":100,"startTime":137.46541762500001,"endTime":137.534224875,"instrument":6,"program":0,"isDrum":true},{"pitch":44,"velocity":124,"startTime":137.61450000000002,"endTime":137.68330725,"instrument":6,"program":0,"isDrum":true},{"pitch":44,"velocity":125,"startTime":137.88972900000002,"endTime":137.951655525,"instrument":6,"program":0,"isDrum":true},{"pitch":44,"velocity":126,"startTime":138.164958,"endTime":138.23376525,"instrument":6,"program":0,"isDrum":true},{"pitch":38,"velocity":128,"startTime":138.164958,"endTime":138.3025725,"instrument":6,"program":0,"isDrum":true},{"pitch":36,"velocity":120,"startTime":138.440187,"endTime":138.543397875,"instrument":6,"program":0,"isDrum":true},{"pitch":46,"velocity":80,"startTime":138.440187,"endTime":138.543397875,"instrument":6,"program":0,"isDrum":true},{"pitch":46,"velocity":80,"startTime":138.715416,"endTime":138.818626875,"instrument":6,"program":0,"isDrum":true},{"pitch":36,"velocity":120,"startTime":138.715416,"endTime":138.84156262500002,"instrument":6,"program":0,"isDrum":true},{"pitch":38,"velocity":128,"startTime":139.265874,"endTime":139.357617,"instrument":6,"program":0,"isDrum":true},{"pitch":44,"velocity":121,"startTime":139.54110300000002,"endTime":139.59844237500002,"instrument":6,"program":0,"isDrum":true},{"pitch":44,"velocity":124,"startTime":139.81633200000002,"endTime":139.896607125,"instrument":6,"program":0,"isDrum":true},{"pitch":38,"velocity":128,"startTime":140.36679,"endTime":140.49293662500003,"instrument":6,"program":0,"isDrum":true},{"pitch":46,"velocity":80,"startTime":140.917248,"endTime":141.020458875,"instrument":6,"program":0,"isDrum":true},{"pitch":36,"velocity":120,"startTime":140.917248,"endTime":140.98605525000002,"instrument":6,"program":0,"isDrum":true},{"pitch":44,"velocity":124,"startTime":141.46770600000002,"endTime":141.685595625,"instrument":6,"program":0,"isDrum":true},{"pitch":38,"velocity":128,"startTime":141.46770600000002,"endTime":141.58238475,"instrument":6,"program":0,"isDrum":true},{"pitch":44,"velocity":128,"startTime":141.74293500000002,"endTime":141.84614587500002,"instrument":6,"program":0,"isDrum":true},{"pitch":40,"velocity":100,"startTime":141.869081625,"endTime":141.93788887500003,"instrument":6,"program":0,"isDrum":true},{"pitch":44,"velocity":124,"startTime":142.018164,"endTime":142.08697125,"instrument":6,"program":0,"isDrum":true},{"pitch":44,"velocity":125,"startTime":142.293393,"endTime":142.35531952500003,"instrument":6,"program":0,"isDrum":true},{"pitch":44,"velocity":126,"startTime":142.568622,"endTime":142.63742925,"instrument":6,"program":0,"isDrum":true},{"pitch":38,"velocity":128,"startTime":142.568622,"endTime":142.70623650000002,"instrument":6,"program":0,"isDrum":true},{"pitch":46,"velocity":80,"startTime":142.843851,"endTime":142.947061875,"instrument":6,"program":0,"isDrum":true},{"pitch":36,"velocity":120,"startTime":142.843851,"endTime":142.947061875,"instrument":6,"program":0,"isDrum":true},{"pitch":46,"velocity":80,"startTime":143.11908,"endTime":143.222290875,"instrument":6,"program":0,"isDrum":true},{"pitch":36,"velocity":120,"startTime":143.11908,"endTime":143.24522662500002,"instrument":6,"program":0,"isDrum":true},{"pitch":38,"velocity":128,"startTime":143.66953800000002,"endTime":143.76128100000003,"instrument":6,"program":0,"isDrum":true},{"pitch":44,"velocity":121,"startTime":143.944767,"endTime":144.002106375,"instrument":6,"program":0,"isDrum":true},{"pitch":44,"velocity":124,"startTime":144.219996,"endTime":144.300271125,"instrument":6,"program":0,"isDrum":true},{"pitch":38,"velocity":128,"startTime":144.770454,"endTime":144.89660062500002,"instrument":6,"program":0,"isDrum":true},{"pitch":46,"velocity":80,"startTime":145.32091200000002,"endTime":145.424122875,"instrument":6,"program":0,"isDrum":true},{"pitch":36,"velocity":120,"startTime":145.32091200000002,"endTime":145.38971925,"instrument":6,"program":0,"isDrum":true},{"pitch":44,"velocity":124,"startTime":145.87137,"endTime":146.089259625,"instrument":6,"program":0,"isDrum":true},{"pitch":38,"velocity":128,"startTime":145.87137,"endTime":145.98604875,"instrument":6,"program":0,"isDrum":true},{"pitch":44,"velocity":128,"startTime":146.146599,"endTime":146.249809875,"instrument":6,"program":0,"isDrum":true},{"pitch":40,"velocity":100,"startTime":146.27274562500003,"endTime":146.34155287500002,"instrument":6,"program":0,"isDrum":true},{"pitch":44,"velocity":124,"startTime":146.421828,"endTime":146.49063525,"instrument":6,"program":0,"isDrum":true},{"pitch":44,"velocity":125,"startTime":146.697057,"endTime":146.75898352500002,"instrument":6,"program":0,"isDrum":true},{"pitch":44,"velocity":126,"startTime":146.972286,"endTime":147.04109325000002,"instrument":6,"program":0,"isDrum":true},{"pitch":38,"velocity":128,"startTime":146.972286,"endTime":147.1099005,"instrument":6,"program":0,"isDrum":true},{"pitch":36,"velocity":120,"startTime":147.24751500000002,"endTime":147.350725875,"instrument":6,"program":0,"isDrum":true},{"pitch":46,"velocity":80,"startTime":147.24751500000002,"endTime":147.350725875,"instrument":6,"program":0,"isDrum":true},{"pitch":46,"velocity":80,"startTime":147.52274400000002,"endTime":147.62595487500002,"instrument":6,"program":0,"isDrum":true},{"pitch":36,"velocity":120,"startTime":147.52274400000002,"endTime":147.648890625,"instrument":6,"program":0,"isDrum":true},{"pitch":38,"velocity":128,"startTime":148.073202,"endTime":148.16494500000002,"instrument":6,"program":0,"isDrum":true},{"pitch":44,"velocity":121,"startTime":148.348431,"endTime":148.40577037500003,"instrument":6,"program":0,"isDrum":true},{"pitch":44,"velocity":124,"startTime":148.62366,"endTime":148.703935125,"instrument":6,"program":0,"isDrum":true},{"pitch":44,"velocity":128,"startTime":148.898889,"endTime":149.1190722,"instrument":6,"program":0,"isDrum":true},{"pitch":44,"velocity":128,"startTime":149.17411800000002,"endTime":149.6144844,"instrument":6,"program":0,"isDrum":true},{"pitch":38,"velocity":128,"startTime":149.17411800000002,"endTime":149.300264625,"instrument":6,"program":0,"isDrum":true},{"pitch":46,"velocity":80,"startTime":149.724576,"endTime":149.82778687500002,"instrument":6,"program":0,"isDrum":true},{"pitch":36,"velocity":120,"startTime":149.724576,"endTime":149.79338325,"instrument":6,"program":0,"isDrum":true},{"pitch":44,"velocity":124,"startTime":150.275034,"endTime":150.492923625,"instrument":6,"program":0,"isDrum":true},{"pitch":38,"velocity":128,"startTime":150.275034,"endTime":150.38971275,"instrument":6,"program":0,"isDrum":true},{"pitch":44,"velocity":128,"startTime":150.550263,"endTime":150.653473875,"instrument":6,"program":0,"isDrum":true},{"pitch":40,"velocity":100,"startTime":150.67640962500002,"endTime":150.745216875,"instrument":6,"program":0,"isDrum":true},{"pitch":44,"velocity":124,"startTime":150.825492,"endTime":150.89429925000002,"instrument":6,"program":0,"isDrum":true},{"pitch":44,"velocity":125,"startTime":151.10072100000002,"endTime":151.162647525,"instrument":6,"program":0,"isDrum":true},{"pitch":44,"velocity":126,"startTime":151.37595000000002,"endTime":151.44475725,"instrument":6,"program":0,"isDrum":true},{"pitch":38,"velocity":128,"startTime":151.37595000000002,"endTime":151.5135645,"instrument":6,"program":0,"isDrum":true},{"pitch":36,"velocity":120,"startTime":151.651179,"endTime":151.75438987500002,"instrument":6,"program":0,"isDrum":true},{"pitch":46,"velocity":80,"startTime":151.651179,"endTime":151.75438987500002,"instrument":6,"program":0,"isDrum":true},{"pitch":46,"velocity":80,"startTime":151.926408,"endTime":152.029618875,"instrument":6,"program":0,"isDrum":true},{"pitch":36,"velocity":120,"startTime":151.926408,"endTime":152.05255462500003,"instrument":6,"program":0,"isDrum":true},{"pitch":38,"velocity":128,"startTime":152.476866,"endTime":152.568609,"instrument":6,"program":0,"isDrum":true},{"pitch":44,"velocity":121,"startTime":152.752095,"endTime":152.80943437500002,"instrument":6,"program":0,"isDrum":true},{"pitch":44,"velocity":124,"startTime":153.02732400000002,"endTime":153.107599125,"instrument":6,"program":0,"isDrum":true},{"pitch":38,"velocity":128,"startTime":153.577782,"endTime":153.70392862500003,"instrument":6,"program":0,"isDrum":true},{"pitch":36,"velocity":120,"startTime":153.853011,"endTime":153.956221875,"instrument":6,"program":0,"isDrum":true},{"pitch":46,"velocity":80,"startTime":153.853011,"endTime":153.956221875,"instrument":6,"program":0,"isDrum":true},{"pitch":46,"velocity":80,"startTime":154.12824,"endTime":154.231450875,"instrument":6,"program":0,"isDrum":true},{"pitch":36,"velocity":120,"startTime":154.12824,"endTime":154.19704725,"instrument":6,"program":0,"isDrum":true},{"pitch":44,"velocity":124,"startTime":154.678698,"endTime":154.896587625,"instrument":6,"program":0,"isDrum":true},{"pitch":38,"velocity":128,"startTime":154.678698,"endTime":154.79337675,"instrument":6,"program":0,"isDrum":true},{"pitch":44,"velocity":128,"startTime":154.95392700000002,"endTime":155.057137875,"instrument":6,"program":0,"isDrum":true},{"pitch":40,"velocity":100,"startTime":155.080073625,"endTime":155.14888087500003,"instrument":6,"program":0,"isDrum":true},{"pitch":44,"velocity":124,"startTime":155.22915600000002,"endTime":155.29796325,"instrument":6,"program":0,"isDrum":true},{"pitch":44,"velocity":125,"startTime":155.504385,"endTime":155.566311525,"instrument":6,"program":0,"isDrum":true},{"pitch":44,"velocity":126,"startTime":155.779614,"endTime":155.84842125,"instrument":6,"program":0,"isDrum":true},{"pitch":38,"velocity":128,"startTime":155.779614,"endTime":155.91722850000002,"instrument":6,"program":0,"isDrum":true},{"pitch":36,"velocity":120,"startTime":156.054843,"endTime":156.158053875,"instrument":6,"program":0,"isDrum":true},{"pitch":46,"velocity":80,"startTime":156.054843,"endTime":156.158053875,"instrument":6,"program":0,"isDrum":true},{"pitch":46,"velocity":80,"startTime":156.330072,"endTime":156.433282875,"instrument":6,"program":0,"isDrum":true},{"pitch":36,"velocity":120,"startTime":156.330072,"endTime":156.45621862500002,"instrument":6,"program":0,"isDrum":true},{"pitch":38,"velocity":128,"startTime":156.88053000000002,"endTime":156.97227300000003,"instrument":6,"program":0,"isDrum":true},{"pitch":44,"velocity":121,"startTime":157.15575900000002,"endTime":157.21309837500002,"instrument":6,"program":0,"isDrum":true},{"pitch":44,"velocity":124,"startTime":157.430988,"endTime":157.511263125,"instrument":6,"program":0,"isDrum":true},{"pitch":38,"velocity":128,"startTime":157.981446,"endTime":158.10759262500002,"instrument":6,"program":0,"isDrum":true},{"pitch":46,"velocity":80,"startTime":158.531904,"endTime":158.635114875,"instrument":6,"program":0,"isDrum":true},{"pitch":36,"velocity":120,"startTime":158.531904,"endTime":158.60071125000002,"instrument":6,"program":0,"isDrum":true},{"pitch":44,"velocity":124,"startTime":159.08236200000002,"endTime":159.300251625,"instrument":6,"program":0,"isDrum":true},{"pitch":38,"velocity":128,"startTime":159.08236200000002,"endTime":159.19704074999999,"instrument":6,"program":0,"isDrum":true},{"pitch":44,"velocity":128,"startTime":159.357591,"endTime":159.46080187500002,"instrument":6,"program":0,"isDrum":true},{"pitch":40,"velocity":100,"startTime":159.48373762500003,"endTime":159.55254487500002,"instrument":6,"program":0,"isDrum":true},{"pitch":44,"velocity":124,"startTime":159.63282,"endTime":159.70162725,"instrument":6,"program":0,"isDrum":true},{"pitch":44,"velocity":125,"startTime":159.908049,"endTime":159.96997552500002,"instrument":6,"program":0,"isDrum":true},{"pitch":44,"velocity":126,"startTime":160.183278,"endTime":160.25208525000002,"instrument":6,"program":0,"isDrum":true},{"pitch":38,"velocity":128,"startTime":160.183278,"endTime":160.3208925,"instrument":6,"program":0,"isDrum":true},{"pitch":46,"velocity":80,"startTime":160.458507,"endTime":160.561717875,"instrument":6,"program":0,"isDrum":true},{"pitch":36,"velocity":120,"startTime":160.458507,"endTime":160.561717875,"instrument":6,"program":0,"isDrum":true},{"pitch":46,"velocity":80,"startTime":160.73373600000002,"endTime":160.836946875,"instrument":6,"program":0,"isDrum":true},{"pitch":36,"velocity":120,"startTime":160.73373600000002,"endTime":160.859882625,"instrument":6,"program":0,"isDrum":true},{"pitch":38,"velocity":128,"startTime":161.284194,"endTime":161.37593700000002,"instrument":6,"program":0,"isDrum":true},{"pitch":44,"velocity":121,"startTime":161.559423,"endTime":161.616762375,"instrument":6,"program":0,"isDrum":true},{"pitch":44,"velocity":124,"startTime":161.834652,"endTime":161.914927125,"instrument":6,"program":0,"isDrum":true},{"pitch":38,"velocity":128,"startTime":162.38511,"endTime":162.51125662500002,"instrument":6,"program":0,"isDrum":true},{"pitch":46,"velocity":80,"startTime":162.93556800000002,"endTime":163.03877887500002,"instrument":6,"program":0,"isDrum":true},{"pitch":36,"velocity":120,"startTime":162.93556800000002,"endTime":163.00437525,"instrument":6,"program":0,"isDrum":true},{"pitch":44,"velocity":124,"startTime":163.486026,"endTime":163.703915625,"instrument":6,"program":0,"isDrum":true},{"pitch":38,"velocity":128,"startTime":163.486026,"endTime":163.60070475,"instrument":6,"program":0,"isDrum":true},{"pitch":44,"velocity":128,"startTime":163.761255,"endTime":163.864465875,"instrument":6,"program":0,"isDrum":true},{"pitch":40,"velocity":100,"startTime":163.88740162500002,"endTime":163.95620887500002,"instrument":6,"program":0,"isDrum":true},{"pitch":44,"velocity":124,"startTime":164.036484,"endTime":164.10529125000002,"instrument":6,"program":0,"isDrum":true},{"pitch":44,"velocity":125,"startTime":164.311713,"endTime":164.37363952500002,"instrument":6,"program":0,"isDrum":true},{"pitch":44,"velocity":126,"startTime":164.58694200000002,"endTime":164.65574925,"instrument":6,"program":0,"isDrum":true},{"pitch":38,"velocity":128,"startTime":164.58694200000002,"endTime":164.7245565,"instrument":6,"program":0,"isDrum":true},{"pitch":36,"velocity":120,"startTime":164.86217100000002,"endTime":164.96538187500002,"instrument":6,"program":0,"isDrum":true},{"pitch":46,"velocity":80,"startTime":164.86217100000002,"endTime":164.96538187500002,"instrument":6,"program":0,"isDrum":true},{"pitch":46,"velocity":80,"startTime":165.1374,"endTime":165.24061087500002,"instrument":6,"program":0,"isDrum":true},{"pitch":36,"velocity":120,"startTime":165.1374,"endTime":165.26354662500003,"instrument":6,"program":0,"isDrum":true},{"pitch":38,"velocity":128,"startTime":165.687858,"endTime":165.779601,"instrument":6,"program":0,"isDrum":true},{"pitch":44,"velocity":121,"startTime":165.963087,"endTime":166.02042637500003,"instrument":6,"program":0,"isDrum":true},{"pitch":44,"velocity":124,"startTime":166.238316,"endTime":166.318591125,"instrument":6,"program":0,"isDrum":true},{"pitch":44,"velocity":128,"startTime":166.51354500000002,"endTime":166.7337282,"instrument":6,"program":0,"isDrum":true},{"pitch":44,"velocity":128,"startTime":166.78877400000002,"endTime":167.2291404,"instrument":6,"program":0,"isDrum":true},{"pitch":38,"velocity":128,"startTime":166.78877400000002,"endTime":166.914920625,"instrument":6,"program":0,"isDrum":true},{"pitch":46,"velocity":80,"startTime":167.339232,"endTime":167.442442875,"instrument":6,"program":0,"isDrum":true},{"pitch":36,"velocity":120,"startTime":167.339232,"endTime":167.40803925,"instrument":6,"program":0,"isDrum":true},{"pitch":44,"velocity":124,"startTime":167.88969,"endTime":168.107579625,"instrument":6,"program":0,"isDrum":true},{"pitch":38,"velocity":128,"startTime":167.88969,"endTime":168.00436875,"instrument":6,"program":0,"isDrum":true},{"pitch":44,"velocity":128,"startTime":168.164919,"endTime":168.268129875,"instrument":6,"program":0,"isDrum":true},{"pitch":40,"velocity":100,"startTime":168.29106562500002,"endTime":168.359872875,"instrument":6,"program":0,"isDrum":true},{"pitch":44,"velocity":124,"startTime":168.44014800000002,"endTime":168.50895525,"instrument":6,"program":0,"isDrum":true},{"pitch":44,"velocity":125,"startTime":168.71537700000002,"endTime":168.777303525,"instrument":6,"program":0,"isDrum":true},{"pitch":44,"velocity":126,"startTime":168.990606,"endTime":169.05941325,"instrument":6,"program":0,"isDrum":true},{"pitch":38,"velocity":128,"startTime":168.990606,"endTime":169.1282205,"instrument":6,"program":0,"isDrum":true},{"pitch":36,"velocity":120,"startTime":169.265835,"endTime":169.369045875,"instrument":6,"program":0,"isDrum":true},{"pitch":46,"velocity":80,"startTime":169.265835,"endTime":169.369045875,"instrument":6,"program":0,"isDrum":true},{"pitch":46,"velocity":80,"startTime":169.541064,"endTime":169.644274875,"instrument":6,"program":0,"isDrum":true},{"pitch":36,"velocity":120,"startTime":169.541064,"endTime":169.66721062500002,"instrument":6,"program":0,"isDrum":true},{"pitch":38,"velocity":128,"startTime":170.091522,"endTime":170.183265,"instrument":6,"program":0,"isDrum":true},{"pitch":44,"velocity":121,"startTime":170.36675100000002,"endTime":170.42409037500002,"instrument":6,"program":0,"isDrum":true},{"pitch":44,"velocity":124,"startTime":170.64198000000002,"endTime":170.722255125,"instrument":6,"program":0,"isDrum":true},{"pitch":38,"velocity":128,"startTime":171.192438,"endTime":171.31858462500003,"instrument":6,"program":0,"isDrum":true},{"pitch":36,"velocity":120,"startTime":171.467667,"endTime":171.570877875,"instrument":6,"program":0,"isDrum":true},{"pitch":46,"velocity":80,"startTime":171.467667,"endTime":171.570877875,"instrument":6,"program":0,"isDrum":true},{"pitch":46,"velocity":80,"startTime":171.742896,"endTime":171.846106875,"instrument":6,"program":0,"isDrum":true},{"pitch":36,"velocity":120,"startTime":171.742896,"endTime":171.81170325000002,"instrument":6,"program":0,"isDrum":true},{"pitch":44,"velocity":124,"startTime":172.29335400000002,"endTime":172.511243625,"instrument":6,"program":0,"isDrum":true},{"pitch":38,"velocity":128,"startTime":172.29335400000002,"endTime":172.40803275,"instrument":6,"program":0,"isDrum":true},{"pitch":44,"velocity":128,"startTime":172.56858300000002,"endTime":172.67179387500002,"instrument":6,"program":0,"isDrum":true},{"pitch":40,"velocity":100,"startTime":172.694729625,"endTime":172.76353687500003,"instrument":6,"program":0,"isDrum":true},{"pitch":44,"velocity":124,"startTime":172.843812,"endTime":172.91261925,"instrument":6,"program":0,"isDrum":true},{"pitch":44,"velocity":125,"startTime":173.119041,"endTime":173.18096752500003,"instrument":6,"program":0,"isDrum":true},{"pitch":44,"velocity":126,"startTime":173.39427,"endTime":173.46307725,"instrument":6,"program":0,"isDrum":true},{"pitch":38,"velocity":128,"startTime":173.39427,"endTime":173.53188450000002,"instrument":6,"program":0,"isDrum":true},{"pitch":36,"velocity":120,"startTime":173.669499,"endTime":173.772709875,"instrument":6,"program":0,"isDrum":true},{"pitch":46,"velocity":80,"startTime":173.669499,"endTime":173.772709875,"instrument":6,"program":0,"isDrum":true},{"pitch":46,"velocity":80,"startTime":173.944728,"endTime":174.047938875,"instrument":6,"program":0,"isDrum":true},{"pitch":36,"velocity":120,"startTime":173.944728,"endTime":174.07087462500002,"instrument":6,"program":0,"isDrum":true},{"pitch":38,"velocity":128,"startTime":174.49518600000002,"endTime":174.58692900000003,"instrument":6,"program":0,"isDrum":true},{"pitch":44,"velocity":121,"startTime":174.770415,"endTime":174.827754375,"instrument":6,"program":0,"isDrum":true},{"pitch":44,"velocity":124,"startTime":175.045644,"endTime":175.125919125,"instrument":6,"program":0,"isDrum":true},{"pitch":38,"velocity":128,"startTime":175.596102,"endTime":175.72224862500002,"instrument":6,"program":0,"isDrum":true},{"pitch":46,"velocity":80,"startTime":176.14656000000002,"endTime":176.249770875,"instrument":6,"program":0,"isDrum":true},{"pitch":36,"velocity":120,"startTime":176.14656000000002,"endTime":176.21536725,"instrument":6,"program":0,"isDrum":true},{"pitch":44,"velocity":124,"startTime":176.697018,"endTime":176.91490762499998,"instrument":6,"program":0,"isDrum":true},{"pitch":38,"velocity":128,"startTime":176.697018,"endTime":176.81169675,"instrument":6,"program":0,"isDrum":true},{"pitch":44,"velocity":128,"startTime":176.972247,"endTime":177.075457875,"instrument":6,"program":0,"isDrum":true},{"pitch":40,"velocity":100,"startTime":177.09839362500003,"endTime":177.16720087500002,"instrument":6,"program":0,"isDrum":true},{"pitch":44,"velocity":124,"startTime":177.247476,"endTime":177.31628325,"instrument":6,"program":0,"isDrum":true},{"pitch":44,"velocity":125,"startTime":177.522705,"endTime":177.58463152500002,"instrument":6,"program":0,"isDrum":true},{"pitch":44,"velocity":126,"startTime":177.797934,"endTime":177.86674125000002,"instrument":6,"program":0,"isDrum":true},{"pitch":38,"velocity":128,"startTime":177.797934,"endTime":177.9355485,"instrument":6,"program":0,"isDrum":true},{"pitch":46,"velocity":80,"startTime":178.073163,"endTime":178.176373875,"instrument":6,"program":0,"isDrum":true},{"pitch":36,"velocity":120,"startTime":178.073163,"endTime":178.176373875,"instrument":6,"program":0,"isDrum":true},{"pitch":46,"velocity":80,"startTime":178.34839200000002,"endTime":178.45160287500002,"instrument":6,"program":0,"isDrum":true},{"pitch":36,"velocity":120,"startTime":178.34839200000002,"endTime":178.474538625,"instrument":6,"program":0,"isDrum":true},{"pitch":38,"velocity":128,"startTime":178.89885,"endTime":178.99059300000002,"instrument":6,"program":0,"isDrum":true},{"pitch":44,"velocity":121,"startTime":179.174079,"endTime":179.23141837500003,"instrument":6,"program":0,"isDrum":true},{"pitch":44,"velocity":124,"startTime":179.449308,"endTime":179.529583125,"instrument":6,"program":0,"isDrum":true},{"pitch":38,"velocity":128,"startTime":179.999766,"endTime":180.125912625,"instrument":6,"program":0,"isDrum":true},{"pitch":46,"velocity":80,"startTime":180.55022400000001,"endTime":180.65343487500002,"instrument":6,"program":0,"isDrum":true},{"pitch":36,"velocity":120,"startTime":180.55022400000001,"endTime":180.61903125,"instrument":6,"program":0,"isDrum":true},{"pitch":44,"velocity":124,"startTime":181.100682,"endTime":181.318571625,"instrument":6,"program":0,"isDrum":true},{"pitch":38,"velocity":128,"startTime":181.100682,"endTime":181.21536075,"instrument":6,"program":0,"isDrum":true},{"pitch":44,"velocity":128,"startTime":181.375911,"endTime":181.479121875,"instrument":6,"program":0,"isDrum":true},{"pitch":40,"velocity":100,"startTime":181.50205762500002,"endTime":181.570864875,"instrument":6,"program":0,"isDrum":true},{"pitch":44,"velocity":124,"startTime":181.65114,"endTime":181.71994725000002,"instrument":6,"program":0,"isDrum":true},{"pitch":44,"velocity":125,"startTime":181.926369,"endTime":181.988295525,"instrument":6,"program":0,"isDrum":true},{"pitch":44,"velocity":126,"startTime":182.20159800000002,"endTime":182.27040525,"instrument":6,"program":0,"isDrum":true},{"pitch":38,"velocity":128,"startTime":182.20159800000002,"endTime":182.3392125,"instrument":6,"program":0,"isDrum":true},{"pitch":36,"velocity":120,"startTime":182.47682700000001,"endTime":182.58003787500002,"instrument":6,"program":0,"isDrum":true},{"pitch":46,"velocity":80,"startTime":182.47682700000001,"endTime":182.58003787500002,"instrument":6,"program":0,"isDrum":true},{"pitch":46,"velocity":80,"startTime":182.752056,"endTime":182.855266875,"instrument":6,"program":0,"isDrum":true},{"pitch":36,"velocity":120,"startTime":182.752056,"endTime":182.87820262500003,"instrument":6,"program":0,"isDrum":true},{"pitch":38,"velocity":128,"startTime":183.302514,"endTime":183.394257,"instrument":6,"program":0,"isDrum":true},{"pitch":44,"velocity":121,"startTime":183.577743,"endTime":183.63508237500002,"instrument":6,"program":0,"isDrum":true},{"pitch":44,"velocity":124,"startTime":183.852972,"endTime":183.933247125,"instrument":6,"program":0,"isDrum":true},{"pitch":44,"velocity":128,"startTime":184.12820100000002,"endTime":184.3483842,"instrument":6,"program":0,"isDrum":true},{"pitch":44,"velocity":128,"startTime":184.40343000000001,"endTime":184.8437964,"instrument":6,"program":0,"isDrum":true},{"pitch":38,"velocity":128,"startTime":184.40343000000001,"endTime":184.52957662500003,"instrument":6,"program":0,"isDrum":true},{"pitch":46,"velocity":80,"startTime":184.953888,"endTime":185.057098875,"instrument":6,"program":0,"isDrum":true},{"pitch":36,"velocity":120,"startTime":184.953888,"endTime":185.02269525,"instrument":6,"program":0,"isDrum":true},{"pitch":44,"velocity":124,"startTime":185.504346,"endTime":185.722235625,"instrument":6,"program":0,"isDrum":true},{"pitch":38,"velocity":128,"startTime":185.504346,"endTime":185.61902475,"instrument":6,"program":0,"isDrum":true},{"pitch":44,"velocity":128,"startTime":185.779575,"endTime":185.882785875,"instrument":6,"program":0,"isDrum":true},{"pitch":40,"velocity":100,"startTime":185.905721625,"endTime":185.974528875,"instrument":6,"program":0,"isDrum":true},{"pitch":44,"velocity":124,"startTime":186.05480400000002,"endTime":186.12361125,"instrument":6,"program":0,"isDrum":true},{"pitch":44,"velocity":125,"startTime":186.33003300000001,"endTime":186.391959525,"instrument":6,"program":0,"isDrum":true},{"pitch":44,"velocity":126,"startTime":186.605262,"endTime":186.67406925,"instrument":6,"program":0,"isDrum":true},{"pitch":38,"velocity":128,"startTime":186.605262,"endTime":186.7428765,"instrument":6,"program":0,"isDrum":true},{"pitch":36,"velocity":120,"startTime":186.880491,"endTime":186.983701875,"instrument":6,"program":0,"isDrum":true},{"pitch":46,"velocity":80,"startTime":186.880491,"endTime":186.983701875,"instrument":6,"program":0,"isDrum":true},{"pitch":46,"velocity":80,"startTime":187.15572,"endTime":187.258930875,"instrument":6,"program":0,"isDrum":true},{"pitch":36,"velocity":120,"startTime":187.15572,"endTime":187.28186662500002,"instrument":6,"program":0,"isDrum":true},{"pitch":38,"velocity":128,"startTime":187.706178,"endTime":187.79792100000003,"instrument":6,"program":0,"isDrum":true},{"pitch":44,"velocity":121,"startTime":187.98140700000002,"endTime":188.03874637500002,"instrument":6,"program":0,"isDrum":true},{"pitch":44,"velocity":124,"startTime":188.25663600000001,"endTime":188.336911125,"instrument":6,"program":0,"isDrum":true},{"pitch":38,"velocity":128,"startTime":188.807094,"endTime":188.93324062500002,"instrument":6,"program":0,"isDrum":true},{"pitch":36,"velocity":120,"startTime":189.082323,"endTime":189.185533875,"instrument":6,"program":0,"isDrum":true},{"pitch":46,"velocity":80,"startTime":189.082323,"endTime":189.185533875,"instrument":6,"program":0,"isDrum":true},{"pitch":46,"velocity":80,"startTime":189.357552,"endTime":189.460762875,"instrument":6,"program":0,"isDrum":true},{"pitch":36,"velocity":120,"startTime":189.357552,"endTime":189.42635925000002,"instrument":6,"program":0,"isDrum":true},{"pitch":44,"velocity":124,"startTime":189.90801000000002,"endTime":190.125899625,"instrument":6,"program":0,"isDrum":true},{"pitch":38,"velocity":128,"startTime":189.90801000000002,"endTime":190.02268875,"instrument":6,"program":0,"isDrum":true},{"pitch":44,"velocity":128,"startTime":190.18323900000001,"endTime":190.28644987500002,"instrument":6,"program":0,"isDrum":true},{"pitch":40,"velocity":100,"startTime":190.309385625,"endTime":190.37819287500002,"instrument":6,"program":0,"isDrum":true},{"pitch":44,"velocity":124,"startTime":190.458468,"endTime":190.52727525,"instrument":6,"program":0,"isDrum":true},{"pitch":44,"velocity":125,"startTime":190.733697,"endTime":190.79562352500002,"instrument":6,"program":0,"isDrum":true},{"pitch":44,"velocity":126,"startTime":191.008926,"endTime":191.07773325,"instrument":6,"program":0,"isDrum":true},{"pitch":38,"velocity":128,"startTime":191.008926,"endTime":191.14654050000001,"instrument":6,"program":0,"isDrum":true},{"pitch":36,"velocity":120,"startTime":191.284155,"endTime":191.387365875,"instrument":6,"program":0,"isDrum":true},{"pitch":46,"velocity":80,"startTime":191.284155,"endTime":191.387365875,"instrument":6,"program":0,"isDrum":true},{"pitch":46,"velocity":80,"startTime":191.559384,"endTime":191.662594875,"instrument":6,"program":0,"isDrum":true},{"pitch":36,"velocity":120,"startTime":191.559384,"endTime":191.685530625,"instrument":6,"program":0,"isDrum":true},{"pitch":38,"velocity":128,"startTime":192.10984200000001,"endTime":192.20158500000002,"instrument":6,"program":0,"isDrum":true},{"pitch":44,"velocity":121,"startTime":192.385071,"endTime":192.442410375,"instrument":6,"program":0,"isDrum":true},{"pitch":44,"velocity":124,"startTime":192.6603,"endTime":192.740575125,"instrument":6,"program":0,"isDrum":true},{"pitch":38,"velocity":128,"startTime":193.210758,"endTime":193.33690462500002,"instrument":6,"program":0,"isDrum":true},{"pitch":46,"velocity":80,"startTime":193.76121600000002,"endTime":193.86442687500002,"instrument":6,"program":0,"isDrum":true},{"pitch":36,"velocity":120,"startTime":193.76121600000002,"endTime":193.83002325,"instrument":6,"program":0,"isDrum":true},{"pitch":44,"velocity":124,"startTime":194.311674,"endTime":194.529563625,"instrument":6,"program":0,"isDrum":true},{"pitch":38,"velocity":128,"startTime":194.311674,"endTime":194.42635275,"instrument":6,"program":0,"isDrum":true},{"pitch":44,"velocity":128,"startTime":194.586903,"endTime":194.690113875,"instrument":6,"program":0,"isDrum":true},{"pitch":40,"velocity":100,"startTime":194.71304962500002,"endTime":194.78185687500002,"instrument":6,"program":0,"isDrum":true},{"pitch":44,"velocity":124,"startTime":194.862132,"endTime":194.93093925,"instrument":6,"program":0,"isDrum":true},{"pitch":44,"velocity":125,"startTime":195.137361,"endTime":195.19928752500002,"instrument":6,"program":0,"isDrum":true},{"pitch":44,"velocity":126,"startTime":195.41259,"endTime":195.48139725000001,"instrument":6,"program":0,"isDrum":true},{"pitch":38,"velocity":128,"startTime":195.41259,"endTime":195.5502045,"instrument":6,"program":0,"isDrum":true},{"pitch":46,"velocity":80,"startTime":195.68781900000002,"endTime":195.79102987500002,"instrument":6,"program":0,"isDrum":true},{"pitch":36,"velocity":120,"startTime":195.68781900000002,"endTime":195.79102987500002,"instrument":6,"program":0,"isDrum":true},{"pitch":46,"velocity":80,"startTime":195.96304800000001,"endTime":196.06625887500002,"instrument":6,"program":0,"isDrum":true},{"pitch":36,"velocity":120,"startTime":195.96304800000001,"endTime":196.089194625,"instrument":6,"program":0,"isDrum":true},{"pitch":38,"velocity":128,"startTime":196.513506,"endTime":196.60524900000001,"instrument":6,"program":0,"isDrum":true},{"pitch":44,"velocity":121,"startTime":196.788735,"endTime":196.84607437500003,"instrument":6,"program":0,"isDrum":true},{"pitch":44,"velocity":124,"startTime":197.063964,"endTime":197.14423912499998,"instrument":6,"program":0,"isDrum":true},{"pitch":38,"velocity":128,"startTime":197.61442200000002,"endTime":197.740568625,"instrument":6,"program":0,"isDrum":true},{"pitch":46,"velocity":80,"startTime":198.16488,"endTime":198.268090875,"instrument":6,"program":0,"isDrum":true},{"pitch":36,"velocity":120,"startTime":198.16488,"endTime":198.23368725,"instrument":6,"program":0,"isDrum":true},{"pitch":44,"velocity":124,"startTime":198.715338,"endTime":198.933227625,"instrument":6,"program":0,"isDrum":true},{"pitch":38,"velocity":128,"startTime":198.715338,"endTime":198.83001675,"instrument":6,"program":0,"isDrum":true},{"pitch":44,"velocity":128,"startTime":198.990567,"endTime":199.093777875,"instrument":6,"program":0,"isDrum":true},{"pitch":40,"velocity":100,"startTime":199.11671362500002,"endTime":199.185520875,"instrument":6,"program":0,"isDrum":true},{"pitch":44,"velocity":124,"startTime":199.265796,"endTime":199.33460325000001,"instrument":6,"program":0,"isDrum":true},{"pitch":44,"velocity":125,"startTime":199.54102500000002,"endTime":199.602951525,"instrument":6,"program":0,"isDrum":true},{"pitch":44,"velocity":126,"startTime":199.81625400000001,"endTime":199.88506125,"instrument":6,"program":0,"isDrum":true},{"pitch":38,"velocity":128,"startTime":199.81625400000001,"endTime":199.9538685,"instrument":6,"program":0,"isDrum":true},{"pitch":36,"velocity":120,"startTime":200.091483,"endTime":200.194693875,"instrument":6,"program":0,"isDrum":true},{"pitch":46,"velocity":80,"startTime":200.091483,"endTime":200.194693875,"instrument":6,"program":0,"isDrum":true},{"pitch":46,"velocity":80,"startTime":200.366712,"endTime":200.469922875,"instrument":6,"program":0,"isDrum":true},{"pitch":36,"velocity":120,"startTime":200.366712,"endTime":200.49285862500003,"instrument":6,"program":0,"isDrum":true},{"pitch":38,"velocity":128,"startTime":200.91717,"endTime":201.008913,"instrument":6,"program":0,"isDrum":true},{"pitch":44,"velocity":121,"startTime":201.192399,"endTime":201.24973837500002,"instrument":6,"program":0,"isDrum":true},{"pitch":44,"velocity":124,"startTime":201.46762800000002,"endTime":201.547903125,"instrument":6,"program":0,"isDrum":true},{"pitch":44,"velocity":128,"startTime":201.74285700000001,"endTime":201.9630402,"instrument":6,"program":0,"isDrum":true},{"pitch":44,"velocity":128,"startTime":202.018086,"endTime":202.45845240000003,"instrument":6,"program":0,"isDrum":true},{"pitch":38,"velocity":128,"startTime":202.018086,"endTime":202.14423262500003,"instrument":6,"program":0,"isDrum":true},{"pitch":46,"velocity":80,"startTime":202.568544,"endTime":202.671754875,"instrument":6,"program":0,"isDrum":true},{"pitch":36,"velocity":120,"startTime":202.568544,"endTime":202.63735125,"instrument":6,"program":0,"isDrum":true},{"pitch":44,"velocity":124,"startTime":203.119002,"endTime":203.336891625,"instrument":6,"program":0,"isDrum":true},{"pitch":38,"velocity":128,"startTime":203.119002,"endTime":203.23368075,"instrument":6,"program":0,"isDrum":true},{"pitch":44,"velocity":128,"startTime":203.39423100000002,"endTime":203.49744187500002,"instrument":6,"program":0,"isDrum":true},{"pitch":40,"velocity":100,"startTime":203.520377625,"endTime":203.58918487500003,"instrument":6,"program":0,"isDrum":true},{"pitch":44,"velocity":124,"startTime":203.66946000000002,"endTime":203.73826725,"instrument":6,"program":0,"isDrum":true},{"pitch":44,"velocity":125,"startTime":203.944689,"endTime":204.006615525,"instrument":6,"program":0,"isDrum":true},{"pitch":44,"velocity":126,"startTime":204.219918,"endTime":204.28872525,"instrument":6,"program":0,"isDrum":true},{"pitch":38,"velocity":128,"startTime":204.219918,"endTime":204.35753250000002,"instrument":6,"program":0,"isDrum":true},{"pitch":36,"velocity":120,"startTime":204.495147,"endTime":204.598357875,"instrument":6,"program":0,"isDrum":true},{"pitch":46,"velocity":80,"startTime":204.495147,"endTime":204.598357875,"instrument":6,"program":0,"isDrum":true},{"pitch":46,"velocity":80,"startTime":204.770376,"endTime":204.873586875,"instrument":6,"program":0,"isDrum":true},{"pitch":36,"velocity":120,"startTime":204.770376,"endTime":204.89652262500002,"instrument":6,"program":0,"isDrum":true},{"pitch":38,"velocity":128,"startTime":205.32083400000002,"endTime":205.41257700000003,"instrument":6,"program":0,"isDrum":true},{"pitch":44,"velocity":121,"startTime":205.59606300000002,"endTime":205.653402375,"instrument":6,"program":0,"isDrum":true},{"pitch":44,"velocity":124,"startTime":205.871292,"endTime":205.951567125,"instrument":6,"program":0,"isDrum":true},{"pitch":38,"velocity":128,"startTime":206.42175,"endTime":206.54789662500002,"instrument":6,"program":0,"isDrum":true},{"pitch":36,"velocity":120,"startTime":206.696979,"endTime":206.800189875,"instrument":6,"program":0,"isDrum":true},{"pitch":46,"velocity":80,"startTime":206.696979,"endTime":206.800189875,"instrument":6,"program":0,"isDrum":true},{"pitch":46,"velocity":80,"startTime":206.972208,"endTime":207.075418875,"instrument":6,"program":0,"isDrum":true},{"pitch":36,"velocity":120,"startTime":206.972208,"endTime":207.04101525000002,"instrument":6,"program":0,"isDrum":true},{"pitch":44,"velocity":124,"startTime":207.52266600000002,"endTime":207.74055562499998,"instrument":6,"program":0,"isDrum":true},{"pitch":38,"velocity":128,"startTime":207.52266600000002,"endTime":207.63734475,"instrument":6,"program":0,"isDrum":true},{"pitch":44,"velocity":128,"startTime":207.797895,"endTime":207.901105875,"instrument":6,"program":0,"isDrum":true},{"pitch":40,"velocity":100,"startTime":207.92404162500003,"endTime":207.99284887500002,"instrument":6,"program":0,"isDrum":true},{"pitch":44,"velocity":124,"startTime":208.073124,"endTime":208.14193125,"instrument":6,"program":0,"isDrum":true},{"pitch":44,"velocity":125,"startTime":208.348353,"endTime":208.41027952500002,"instrument":6,"program":0,"isDrum":true},{"pitch":44,"velocity":126,"startTime":208.623582,"endTime":208.69238925000002,"instrument":6,"program":0,"isDrum":true},{"pitch":38,"velocity":128,"startTime":208.623582,"endTime":208.7611965,"instrument":6,"program":0,"isDrum":true},{"pitch":36,"velocity":120,"startTime":208.898811,"endTime":209.002021875,"instrument":6,"program":0,"isDrum":true},{"pitch":46,"velocity":80,"startTime":208.898811,"endTime":209.002021875,"instrument":6,"program":0,"isDrum":true},{"pitch":46,"velocity":80,"startTime":209.17404000000002,"endTime":209.27725087500002,"instrument":6,"program":0,"isDrum":true},{"pitch":36,"velocity":120,"startTime":209.17404000000002,"endTime":209.300186625,"instrument":6,"program":0,"isDrum":true},{"pitch":38,"velocity":128,"startTime":209.724498,"endTime":209.81624100000002,"instrument":6,"program":0,"isDrum":true},{"pitch":44,"velocity":121,"startTime":209.999727,"endTime":210.057066375,"instrument":6,"program":0,"isDrum":true},{"pitch":44,"velocity":124,"startTime":210.274956,"endTime":210.355231125,"instrument":6,"program":0,"isDrum":true},{"pitch":38,"velocity":128,"startTime":210.825414,"endTime":210.951560625,"instrument":6,"program":0,"isDrum":true},{"pitch":46,"velocity":80,"startTime":211.37587200000002,"endTime":211.47908287500002,"instrument":6,"program":0,"isDrum":true},{"pitch":36,"velocity":120,"startTime":211.37587200000002,"endTime":211.44467925,"instrument":6,"program":0,"isDrum":true},{"pitch":44,"velocity":124,"startTime":211.92633,"endTime":212.144219625,"instrument":6,"program":0,"isDrum":true},{"pitch":38,"velocity":128,"startTime":211.92633,"endTime":212.04100875,"instrument":6,"program":0,"isDrum":true},{"pitch":44,"velocity":128,"startTime":212.201559,"endTime":212.304769875,"instrument":6,"program":0,"isDrum":true},{"pitch":40,"velocity":100,"startTime":212.32770562500002,"endTime":212.396512875,"instrument":6,"program":0,"isDrum":true},{"pitch":44,"velocity":124,"startTime":212.476788,"endTime":212.54559525000002,"instrument":6,"program":0,"isDrum":true},{"pitch":44,"velocity":125,"startTime":212.752017,"endTime":212.813943525,"instrument":6,"program":0,"isDrum":true},{"pitch":44,"velocity":126,"startTime":213.02724600000002,"endTime":213.09605325,"instrument":6,"program":0,"isDrum":true},{"pitch":38,"velocity":128,"startTime":213.02724600000002,"endTime":213.1648605,"instrument":6,"program":0,"isDrum":true},{"pitch":46,"velocity":80,"startTime":213.30247500000002,"endTime":213.40568587500002,"instrument":6,"program":0,"isDrum":true},{"pitch":36,"velocity":120,"startTime":213.30247500000002,"endTime":213.40568587500002,"instrument":6,"program":0,"isDrum":true},{"pitch":46,"velocity":80,"startTime":213.577704,"endTime":213.680914875,"instrument":6,"program":0,"isDrum":true},{"pitch":36,"velocity":120,"startTime":213.577704,"endTime":213.70385062500003,"instrument":6,"program":0,"isDrum":true},{"pitch":38,"velocity":128,"startTime":214.128162,"endTime":214.219905,"instrument":6,"program":0,"isDrum":true},{"pitch":44,"velocity":121,"startTime":214.403391,"endTime":214.46073037500003,"instrument":6,"program":0,"isDrum":true},{"pitch":44,"velocity":124,"startTime":214.67862,"endTime":214.758895125,"instrument":6,"program":0,"isDrum":true},{"pitch":38,"velocity":128,"startTime":215.22907800000002,"endTime":215.355224625,"instrument":6,"program":0,"isDrum":true},{"pitch":46,"velocity":80,"startTime":215.779536,"endTime":215.882746875,"instrument":6,"program":0,"isDrum":true},{"pitch":36,"velocity":120,"startTime":215.779536,"endTime":215.84834325,"instrument":6,"program":0,"isDrum":true},{"pitch":44,"velocity":124,"startTime":216.329994,"endTime":216.547883625,"instrument":6,"program":0,"isDrum":true},{"pitch":38,"velocity":128,"startTime":216.329994,"endTime":216.44467275,"instrument":6,"program":0,"isDrum":true},{"pitch":44,"velocity":128,"startTime":216.605223,"endTime":216.708433875,"instrument":6,"program":0,"isDrum":true},{"pitch":40,"velocity":100,"startTime":216.731369625,"endTime":216.800176875,"instrument":6,"program":0,"isDrum":true},{"pitch":44,"velocity":124,"startTime":216.88045200000002,"endTime":216.94925925,"instrument":6,"program":0,"isDrum":true},{"pitch":44,"velocity":125,"startTime":217.15568100000002,"endTime":217.217607525,"instrument":6,"program":0,"isDrum":true},{"pitch":44,"velocity":126,"startTime":217.43091,"endTime":217.49971725,"instrument":6,"program":0,"isDrum":true},{"pitch":38,"velocity":128,"startTime":217.43091,"endTime":217.5685245,"instrument":6,"program":0,"isDrum":true},{"pitch":36,"velocity":120,"startTime":217.706139,"endTime":217.809349875,"instrument":6,"program":0,"isDrum":true},{"pitch":46,"velocity":80,"startTime":217.706139,"endTime":217.809349875,"instrument":6,"program":0,"isDrum":true},{"pitch":46,"velocity":80,"startTime":217.981368,"endTime":218.084578875,"instrument":6,"program":0,"isDrum":true},{"pitch":36,"velocity":120,"startTime":217.981368,"endTime":218.10751462500002,"instrument":6,"program":0,"isDrum":true},{"pitch":38,"velocity":128,"startTime":218.531826,"endTime":218.62356900000003,"instrument":6,"program":0,"isDrum":true},{"pitch":44,"velocity":121,"startTime":218.80705500000002,"endTime":218.86439437500002,"instrument":6,"program":0,"isDrum":true},{"pitch":44,"velocity":124,"startTime":219.08228400000002,"endTime":219.162559125,"instrument":6,"program":0,"isDrum":true},{"pitch":44,"velocity":128,"startTime":219.357513,"endTime":219.5776962,"instrument":6,"program":0,"isDrum":true},{"pitch":44,"velocity":128,"startTime":219.632742,"endTime":220.07310840000002,"instrument":6,"program":0,"isDrum":true},{"pitch":38,"velocity":128,"startTime":219.632742,"endTime":219.75888862500003,"instrument":6,"program":0,"isDrum":true},{"pitch":46,"velocity":80,"startTime":220.1832,"endTime":220.286410875,"instrument":6,"program":0,"isDrum":true},{"pitch":36,"velocity":120,"startTime":220.1832,"endTime":220.25200725000002,"instrument":6,"program":0,"isDrum":true},{"pitch":44,"velocity":124,"startTime":220.73365800000002,"endTime":220.951547625,"instrument":6,"program":0,"isDrum":true},{"pitch":38,"velocity":128,"startTime":220.73365800000002,"endTime":220.84833675,"instrument":6,"program":0,"isDrum":true},{"pitch":44,"velocity":128,"startTime":221.00888700000002,"endTime":221.11209787500002,"instrument":6,"program":0,"isDrum":true},{"pitch":40,"velocity":100,"startTime":221.135033625,"endTime":221.20384087500003,"instrument":6,"program":0,"isDrum":true},{"pitch":44,"velocity":124,"startTime":221.28411599999998,"endTime":221.35292325,"instrument":6,"program":0,"isDrum":true},{"pitch":44,"velocity":125,"startTime":221.559345,"endTime":221.621271525,"instrument":6,"program":0,"isDrum":true},{"pitch":44,"velocity":126,"startTime":221.83457400000003,"endTime":221.90338125,"instrument":6,"program":0,"isDrum":true},{"pitch":38,"velocity":128,"startTime":221.83457400000003,"endTime":221.97218850000002,"instrument":6,"program":0,"isDrum":true},{"pitch":36,"velocity":120,"startTime":222.109803,"endTime":222.213013875,"instrument":6,"program":0,"isDrum":true},{"pitch":46,"velocity":80,"startTime":222.109803,"endTime":222.213013875,"instrument":6,"program":0,"isDrum":true},{"pitch":46,"velocity":80,"startTime":222.38503200000002,"endTime":222.48824287500003,"instrument":6,"program":0,"isDrum":true},{"pitch":36,"velocity":120,"startTime":222.38503200000002,"endTime":222.511178625,"instrument":6,"program":0,"isDrum":true},{"pitch":38,"velocity":128,"startTime":222.93549000000002,"endTime":223.02723300000002,"instrument":6,"program":0,"isDrum":true},{"pitch":44,"velocity":121,"startTime":223.21071899999998,"endTime":223.268058375,"instrument":6,"program":0,"isDrum":true},{"pitch":44,"velocity":124,"startTime":223.485948,"endTime":223.56622312500002,"instrument":6,"program":0,"isDrum":true},{"pitch":38,"velocity":128,"startTime":224.036406,"endTime":224.16255262500005,"instrument":6,"program":0,"isDrum":true},{"pitch":36,"velocity":120,"startTime":224.31163500000002,"endTime":224.41484587500003,"instrument":6,"program":0,"isDrum":true},{"pitch":46,"velocity":80,"startTime":224.31163500000002,"endTime":224.41484587500003,"instrument":6,"program":0,"isDrum":true},{"pitch":46,"velocity":80,"startTime":224.586864,"endTime":224.690074875,"instrument":6,"program":0,"isDrum":true},{"pitch":36,"velocity":120,"startTime":224.586864,"endTime":224.65567125,"instrument":6,"program":0,"isDrum":true},{"pitch":44,"velocity":124,"startTime":225.13732199999998,"endTime":225.35521162499998,"instrument":6,"program":0,"isDrum":true},{"pitch":38,"velocity":128,"startTime":225.13732199999998,"endTime":225.25200074999998,"instrument":6,"program":0,"isDrum":true},{"pitch":44,"velocity":128,"startTime":225.412551,"endTime":225.515761875,"instrument":6,"program":0,"isDrum":true},{"pitch":40,"velocity":100,"startTime":225.538697625,"endTime":225.60750487500002,"instrument":6,"program":0,"isDrum":true},{"pitch":44,"velocity":124,"startTime":225.68778000000003,"endTime":225.75658725,"instrument":6,"program":0,"isDrum":true},{"pitch":44,"velocity":125,"startTime":225.963009,"endTime":226.024935525,"instrument":6,"program":0,"isDrum":true},{"pitch":44,"velocity":126,"startTime":226.23823800000002,"endTime":226.30704525,"instrument":6,"program":0,"isDrum":true},{"pitch":38,"velocity":128,"startTime":226.23823800000002,"endTime":226.3758525,"instrument":6,"program":0,"isDrum":true},{"pitch":36,"velocity":120,"startTime":226.513467,"endTime":226.616677875,"instrument":6,"program":0,"isDrum":true},{"pitch":46,"velocity":80,"startTime":226.513467,"endTime":226.616677875,"instrument":6,"program":0,"isDrum":true},{"pitch":46,"velocity":80,"startTime":226.78869600000002,"endTime":226.89190687500002,"instrument":6,"program":0,"isDrum":true},{"pitch":36,"velocity":120,"startTime":226.78869600000002,"endTime":226.914842625,"instrument":6,"program":0,"isDrum":true},{"pitch":38,"velocity":128,"startTime":227.339154,"endTime":227.43089700000002,"instrument":6,"program":0,"isDrum":true},{"pitch":44,"velocity":121,"startTime":227.61438300000003,"endTime":227.671722375,"instrument":6,"program":0,"isDrum":true},{"pitch":44,"velocity":124,"startTime":227.889612,"endTime":227.969887125,"instrument":6,"program":0,"isDrum":true},{"pitch":38,"velocity":128,"startTime":228.44007,"endTime":228.56621662500004,"instrument":6,"program":0,"isDrum":true},{"pitch":46,"velocity":80,"startTime":228.99052799999998,"endTime":229.09373887499999,"instrument":6,"program":0,"isDrum":true},{"pitch":36,"velocity":120,"startTime":228.99052799999998,"endTime":229.05933525,"instrument":6,"program":0,"isDrum":true},{"pitch":44,"velocity":124,"startTime":229.54098600000003,"endTime":229.75887562499997,"instrument":6,"program":0,"isDrum":true},{"pitch":38,"velocity":128,"startTime":229.54098600000003,"endTime":229.65566474999997,"instrument":6,"program":0,"isDrum":true},{"pitch":44,"velocity":128,"startTime":229.816215,"endTime":229.919425875,"instrument":6,"program":0,"isDrum":true},{"pitch":40,"velocity":100,"startTime":229.94236162500005,"endTime":230.011168875,"instrument":6,"program":0,"isDrum":true},{"pitch":44,"velocity":124,"startTime":230.09144400000002,"endTime":230.16025125,"instrument":6,"program":0,"isDrum":true},{"pitch":44,"velocity":125,"startTime":230.366673,"endTime":230.42859952500004,"instrument":6,"program":0,"isDrum":true},{"pitch":44,"velocity":126,"startTime":230.64190200000002,"endTime":230.71070925000004,"instrument":6,"program":0,"isDrum":true},{"pitch":38,"velocity":128,"startTime":230.64190200000002,"endTime":230.7795165,"instrument":6,"program":0,"isDrum":true},{"pitch":46,"velocity":80,"startTime":230.91713099999998,"endTime":231.02034187499999,"instrument":6,"program":0,"isDrum":true},{"pitch":36,"velocity":120,"startTime":230.91713099999998,"endTime":231.02034187499999,"instrument":6,"program":0,"isDrum":true},{"pitch":46,"velocity":80,"startTime":231.19236,"endTime":231.295570875,"instrument":6,"program":0,"isDrum":true},{"pitch":36,"velocity":120,"startTime":231.19236,"endTime":231.318506625,"instrument":6,"program":0,"isDrum":true},{"pitch":38,"velocity":128,"startTime":231.742818,"endTime":231.834561,"instrument":6,"program":0,"isDrum":true},{"pitch":44,"velocity":121,"startTime":232.01804700000002,"endTime":232.075386375,"instrument":6,"program":0,"isDrum":true},{"pitch":44,"velocity":124,"startTime":232.293276,"endTime":232.373551125,"instrument":6,"program":0,"isDrum":true},{"pitch":38,"velocity":128,"startTime":232.84373399999998,"endTime":232.96988062500003,"instrument":6,"program":0,"isDrum":true},{"pitch":46,"velocity":80,"startTime":233.39419200000003,"endTime":233.49740287500003,"instrument":6,"program":0,"isDrum":true},{"pitch":36,"velocity":120,"startTime":233.39419200000003,"endTime":233.46299925,"instrument":6,"program":0,"isDrum":true},{"pitch":44,"velocity":124,"startTime":233.94465000000002,"endTime":234.16253962500002,"instrument":6,"program":0,"isDrum":true},{"pitch":38,"velocity":128,"startTime":233.94465000000002,"endTime":234.05932875000002,"instrument":6,"program":0,"isDrum":true},{"pitch":44,"velocity":128,"startTime":234.219879,"endTime":234.323089875,"instrument":6,"program":0,"isDrum":true},{"pitch":40,"velocity":100,"startTime":234.34602562500004,"endTime":234.414832875,"instrument":6,"program":0,"isDrum":true},{"pitch":44,"velocity":124,"startTime":234.49510800000002,"endTime":234.56391525000004,"instrument":6,"program":0,"isDrum":true},{"pitch":44,"velocity":125,"startTime":234.77033699999998,"endTime":234.83226352500003,"instrument":6,"program":0,"isDrum":true},{"pitch":44,"velocity":126,"startTime":235.045566,"endTime":235.11437325000003,"instrument":6,"program":0,"isDrum":true},{"pitch":38,"velocity":128,"startTime":235.045566,"endTime":235.1831805,"instrument":6,"program":0,"isDrum":true},{"pitch":36,"velocity":120,"startTime":235.32079500000003,"endTime":235.42400587500003,"instrument":6,"program":0,"isDrum":true},{"pitch":46,"velocity":80,"startTime":235.32079500000003,"endTime":235.42400587500003,"instrument":6,"program":0,"isDrum":true},{"pitch":46,"velocity":80,"startTime":235.596024,"endTime":235.699234875,"instrument":6,"program":0,"isDrum":true},{"pitch":36,"velocity":120,"startTime":235.596024,"endTime":235.72217062500005,"instrument":6,"program":0,"isDrum":true},{"pitch":38,"velocity":128,"startTime":236.146482,"endTime":236.238225,"instrument":6,"program":0,"isDrum":true},{"pitch":44,"velocity":121,"startTime":236.42171100000002,"endTime":236.47905037500004,"instrument":6,"program":0,"isDrum":true},{"pitch":44,"velocity":124,"startTime":236.69693999999998,"endTime":236.777215125,"instrument":6,"program":0,"isDrum":true},{"pitch":44,"velocity":128,"startTime":236.972169,"endTime":237.19235220000002,"instrument":6,"program":0,"isDrum":true},{"pitch":44,"velocity":128,"startTime":237.24739800000003,"endTime":237.6877644,"instrument":6,"program":0,"isDrum":true},{"pitch":38,"velocity":128,"startTime":237.24739800000003,"endTime":237.37354462500002,"instrument":6,"program":0,"isDrum":true},{"pitch":46,"velocity":80,"startTime":237.79785600000002,"endTime":237.90106687500003,"instrument":6,"program":0,"isDrum":true},{"pitch":36,"velocity":120,"startTime":237.79785600000002,"endTime":237.86666325,"instrument":6,"program":0,"isDrum":true},{"pitch":44,"velocity":124,"startTime":238.34831400000002,"endTime":238.566203625,"instrument":6,"program":0,"isDrum":true},{"pitch":38,"velocity":128,"startTime":238.34831400000002,"endTime":238.46299275,"instrument":6,"program":0,"isDrum":true},{"pitch":44,"velocity":128,"startTime":238.62354299999998,"endTime":238.72675387499999,"instrument":6,"program":0,"isDrum":true},{"pitch":40,"velocity":100,"startTime":238.74968962500003,"endTime":238.818496875,"instrument":6,"program":0,"isDrum":true},{"pitch":44,"velocity":124,"startTime":238.898772,"endTime":238.96757925000003,"instrument":6,"program":0,"isDrum":true},{"pitch":44,"velocity":125,"startTime":239.17400100000003,"endTime":239.23592752500002,"instrument":6,"program":0,"isDrum":true},{"pitch":44,"velocity":126,"startTime":239.44923,"endTime":239.51803725000002,"instrument":6,"program":0,"isDrum":true},{"pitch":38,"velocity":128,"startTime":239.44923,"endTime":239.58684449999998,"instrument":6,"program":0,"isDrum":true},{"pitch":36,"velocity":120,"startTime":239.72445900000002,"endTime":239.82766987500003,"instrument":6,"program":0,"isDrum":true},{"pitch":46,"velocity":80,"startTime":239.72445900000002,"endTime":239.82766987500003,"instrument":6,"program":0,"isDrum":true},{"pitch":46,"velocity":80,"startTime":239.999688,"endTime":240.102898875,"instrument":6,"program":0,"isDrum":true},{"pitch":36,"velocity":120,"startTime":239.999688,"endTime":240.12583462500004,"instrument":6,"program":0,"isDrum":true},{"pitch":38,"velocity":128,"startTime":240.55014599999998,"endTime":240.641889,"instrument":6,"program":0,"isDrum":true},{"pitch":44,"velocity":121,"startTime":240.825375,"endTime":240.88271437500003,"instrument":6,"program":0,"isDrum":true},{"pitch":44,"velocity":124,"startTime":241.10060400000003,"endTime":241.180879125,"instrument":6,"program":0,"isDrum":true},{"pitch":38,"velocity":128,"startTime":241.65106200000002,"endTime":241.77720862500001,"instrument":6,"program":0,"isDrum":true},{"pitch":36,"velocity":120,"startTime":241.926291,"endTime":242.029501875,"instrument":6,"program":0,"isDrum":true},{"pitch":46,"velocity":80,"startTime":241.926291,"endTime":242.029501875,"instrument":6,"program":0,"isDrum":true},{"pitch":46,"velocity":80,"startTime":242.20152000000002,"endTime":242.30473087500002,"instrument":6,"program":0,"isDrum":true},{"pitch":36,"velocity":120,"startTime":242.20152000000002,"endTime":242.27032725000004,"instrument":6,"program":0,"isDrum":true},{"pitch":44,"velocity":124,"startTime":242.751978,"endTime":242.969867625,"instrument":6,"program":0,"isDrum":true},{"pitch":38,"velocity":128,"startTime":242.751978,"endTime":242.86665675,"instrument":6,"program":0,"isDrum":true},{"pitch":44,"velocity":128,"startTime":243.02720700000003,"endTime":243.13041787500003,"instrument":6,"program":0,"isDrum":true},{"pitch":40,"velocity":100,"startTime":243.15335362500002,"endTime":243.22216087500004,"instrument":6,"program":0,"isDrum":true},{"pitch":44,"velocity":124,"startTime":243.302436,"endTime":243.37124325000002,"instrument":6,"program":0,"isDrum":true},{"pitch":44,"velocity":125,"startTime":243.57766500000002,"endTime":243.63959152500001,"instrument":6,"program":0,"isDrum":true},{"pitch":44,"velocity":126,"startTime":243.852894,"endTime":243.92170125,"instrument":6,"program":0,"isDrum":true},{"pitch":38,"velocity":128,"startTime":243.852894,"endTime":243.99050850000003,"instrument":6,"program":0,"isDrum":true},{"pitch":36,"velocity":120,"startTime":244.12812300000002,"endTime":244.23133387500002,"instrument":6,"program":0,"isDrum":true},{"pitch":46,"velocity":80,"startTime":244.12812300000002,"endTime":244.23133387500002,"instrument":6,"program":0,"isDrum":true},{"pitch":46,"velocity":80,"startTime":244.40335199999998,"endTime":244.506562875,"instrument":6,"program":0,"isDrum":true},{"pitch":36,"velocity":120,"startTime":244.40335199999998,"endTime":244.52949862500003,"instrument":6,"program":0,"isDrum":true},{"pitch":38,"velocity":128,"startTime":244.95381000000003,"endTime":245.04555300000004,"instrument":6,"program":0,"isDrum":true},{"pitch":44,"velocity":121,"startTime":245.229039,"endTime":245.28637837500003,"instrument":6,"program":0,"isDrum":true},{"pitch":44,"velocity":124,"startTime":245.50426800000002,"endTime":245.58454312499998,"instrument":6,"program":0,"isDrum":true},{"pitch":38,"velocity":128,"startTime":246.05472600000002,"endTime":246.180872625,"instrument":6,"program":0,"isDrum":true},{"pitch":46,"velocity":80,"startTime":246.605184,"endTime":246.708394875,"instrument":6,"program":0,"isDrum":true},{"pitch":36,"velocity":120,"startTime":246.605184,"endTime":246.67399125000003,"instrument":6,"program":0,"isDrum":true},{"pitch":44,"velocity":124,"startTime":247.155642,"endTime":247.37353162500006,"instrument":6,"program":0,"isDrum":true},{"pitch":38,"velocity":128,"startTime":247.155642,"endTime":247.27032075000005,"instrument":6,"program":0,"isDrum":true},{"pitch":44,"velocity":128,"startTime":247.43087100000002,"endTime":247.53408187500003,"instrument":6,"program":0,"isDrum":true},{"pitch":40,"velocity":100,"startTime":247.55701762500001,"endTime":247.62582487499998,"instrument":6,"program":0,"isDrum":true},{"pitch":44,"velocity":124,"startTime":247.7061,"endTime":247.77490725,"instrument":6,"program":0,"isDrum":true},{"pitch":44,"velocity":125,"startTime":247.98132900000002,"endTime":248.043255525,"instrument":6,"program":0,"isDrum":true},{"pitch":44,"velocity":126,"startTime":248.25655799999998,"endTime":248.32536525,"instrument":6,"program":0,"isDrum":true},{"pitch":38,"velocity":128,"startTime":248.25655799999998,"endTime":248.39417250000002,"instrument":6,"program":0,"isDrum":true},{"pitch":46,"velocity":80,"startTime":248.531787,"endTime":248.634997875,"instrument":6,"program":0,"isDrum":true},{"pitch":36,"velocity":120,"startTime":248.531787,"endTime":248.634997875,"instrument":6,"program":0,"isDrum":true},{"pitch":46,"velocity":80,"startTime":248.80701600000003,"endTime":248.91022687500003,"instrument":6,"program":0,"isDrum":true},{"pitch":36,"velocity":120,"startTime":248.80701600000003,"endTime":248.93316262499997,"instrument":6,"program":0,"isDrum":true},{"pitch":38,"velocity":128,"startTime":249.35747400000002,"endTime":249.44921699999998,"instrument":6,"program":0,"isDrum":true},{"pitch":44,"velocity":121,"startTime":249.632703,"endTime":249.69004237499996,"instrument":6,"program":0,"isDrum":true},{"pitch":44,"velocity":124,"startTime":249.90793200000002,"endTime":249.98820712500003,"instrument":6,"program":0,"isDrum":true},{"pitch":38,"velocity":128,"startTime":250.45839,"endTime":250.584536625,"instrument":6,"program":0,"isDrum":true},{"pitch":46,"velocity":80,"startTime":251.008848,"endTime":251.112058875,"instrument":6,"program":0,"isDrum":true},{"pitch":36,"velocity":120,"startTime":251.008848,"endTime":251.07765525000002,"instrument":6,"program":0,"isDrum":true},{"pitch":44,"velocity":124,"startTime":251.559306,"endTime":251.77719562500005,"instrument":6,"program":0,"isDrum":true},{"pitch":38,"velocity":128,"startTime":251.559306,"endTime":251.67398475000005,"instrument":6,"program":0,"isDrum":true},{"pitch":44,"velocity":128,"startTime":251.83453500000002,"endTime":251.93774587500002,"instrument":6,"program":0,"isDrum":true},{"pitch":40,"velocity":100,"startTime":251.960681625,"endTime":252.02948887499997,"instrument":6,"program":0,"isDrum":true},{"pitch":44,"velocity":124,"startTime":252.10976399999998,"endTime":252.17857125,"instrument":6,"program":0,"isDrum":true},{"pitch":44,"velocity":125,"startTime":252.384993,"endTime":252.446919525,"instrument":6,"program":0,"isDrum":true},{"pitch":44,"velocity":126,"startTime":252.66022200000003,"endTime":252.72902925,"instrument":6,"program":0,"isDrum":true},{"pitch":38,"velocity":128,"startTime":252.66022200000003,"endTime":252.79783650000002,"instrument":6,"program":0,"isDrum":true},{"pitch":36,"velocity":120,"startTime":252.935451,"endTime":253.038661875,"instrument":6,"program":0,"isDrum":true},{"pitch":46,"velocity":80,"startTime":252.935451,"endTime":253.038661875,"instrument":6,"program":0,"isDrum":true},{"pitch":46,"velocity":80,"startTime":253.21068000000002,"endTime":253.31389087500003,"instrument":6,"program":0,"isDrum":true},{"pitch":36,"velocity":120,"startTime":253.21068000000002,"endTime":253.33682662500001,"instrument":6,"program":0,"isDrum":true},{"pitch":38,"velocity":128,"startTime":253.76113800000002,"endTime":253.85288099999997,"instrument":6,"program":0,"isDrum":true},{"pitch":44,"velocity":121,"startTime":254.03636699999998,"endTime":254.093706375,"instrument":6,"program":0,"isDrum":true},{"pitch":44,"velocity":124,"startTime":254.311596,"endTime":254.39187112500002,"instrument":6,"program":0,"isDrum":true},{"pitch":44,"velocity":128,"startTime":254.58682500000003,"endTime":254.80700819999998,"instrument":6,"program":0,"isDrum":true},{"pitch":44,"velocity":128,"startTime":254.862054,"endTime":255.30242039999996,"instrument":6,"program":0,"isDrum":true},{"pitch":38,"velocity":128,"startTime":254.862054,"endTime":254.988200625,"instrument":6,"program":0,"isDrum":true},{"pitch":46,"velocity":80,"startTime":255.412512,"endTime":255.515722875,"instrument":6,"program":0,"isDrum":true},{"pitch":36,"velocity":120,"startTime":255.412512,"endTime":255.48131925,"instrument":6,"program":0,"isDrum":true},{"pitch":44,"velocity":124,"startTime":255.96296999999998,"endTime":256.18085962500004,"instrument":6,"program":0,"isDrum":true},{"pitch":38,"velocity":128,"startTime":255.96296999999998,"endTime":256.07764875000004,"instrument":6,"program":0,"isDrum":true},{"pitch":44,"velocity":128,"startTime":256.238199,"endTime":256.341409875,"instrument":6,"program":0,"isDrum":true},{"pitch":40,"velocity":100,"startTime":256.364345625,"endTime":256.43315287499996,"instrument":6,"program":0,"isDrum":true},{"pitch":44,"velocity":124,"startTime":256.51342800000003,"endTime":256.58223525,"instrument":6,"program":0,"isDrum":true},{"pitch":44,"velocity":125,"startTime":256.788657,"endTime":256.850583525,"instrument":6,"program":0,"isDrum":true},{"pitch":44,"velocity":126,"startTime":257.063886,"endTime":257.13269325,"instrument":6,"program":0,"isDrum":true},{"pitch":38,"velocity":128,"startTime":257.063886,"endTime":257.2015005,"instrument":6,"program":0,"isDrum":true},{"pitch":36,"velocity":120,"startTime":257.339115,"endTime":257.442325875,"instrument":6,"program":0,"isDrum":true},{"pitch":46,"velocity":80,"startTime":257.339115,"endTime":257.442325875,"instrument":6,"program":0,"isDrum":true},{"pitch":46,"velocity":80,"startTime":257.614344,"endTime":257.717554875,"instrument":6,"program":0,"isDrum":true},{"pitch":36,"velocity":120,"startTime":257.614344,"endTime":257.740490625,"instrument":6,"program":0,"isDrum":true},{"pitch":38,"velocity":128,"startTime":258.164802,"endTime":258.25654499999996,"instrument":6,"program":0,"isDrum":true},{"pitch":44,"velocity":121,"startTime":258.44003100000003,"endTime":258.497370375,"instrument":6,"program":0,"isDrum":true},{"pitch":44,"velocity":124,"startTime":258.71526,"endTime":258.795535125,"instrument":6,"program":0,"isDrum":true},{"pitch":38,"velocity":128,"startTime":259.265718,"endTime":259.391864625,"instrument":6,"program":0,"isDrum":true},{"pitch":36,"velocity":120,"startTime":259.540947,"endTime":259.644157875,"instrument":6,"program":0,"isDrum":true},{"pitch":46,"velocity":80,"startTime":259.540947,"endTime":259.644157875,"instrument":6,"program":0,"isDrum":true},{"pitch":46,"velocity":80,"startTime":259.816176,"endTime":259.919386875,"instrument":6,"program":0,"isDrum":true},{"pitch":36,"velocity":120,"startTime":259.816176,"endTime":259.88498325,"instrument":6,"program":0,"isDrum":true},{"pitch":44,"velocity":124,"startTime":260.36663400000003,"endTime":260.58452362500003,"instrument":6,"program":0,"isDrum":true},{"pitch":38,"velocity":128,"startTime":260.36663400000003,"endTime":260.48131275000003,"instrument":6,"program":0,"isDrum":true},{"pitch":44,"velocity":128,"startTime":260.641863,"endTime":260.745073875,"instrument":6,"program":0,"isDrum":true},{"pitch":40,"velocity":100,"startTime":260.768009625,"endTime":260.836816875,"instrument":6,"program":0,"isDrum":true},{"pitch":44,"velocity":124,"startTime":260.917092,"endTime":260.98589925,"instrument":6,"program":0,"isDrum":true},{"pitch":44,"velocity":125,"startTime":261.192321,"endTime":261.254247525,"instrument":6,"program":0,"isDrum":true},{"pitch":44,"velocity":126,"startTime":261.46755,"endTime":261.53635725,"instrument":6,"program":0,"isDrum":true},{"pitch":38,"velocity":128,"startTime":261.46755,"endTime":261.6051645,"instrument":6,"program":0,"isDrum":true},{"pitch":36,"velocity":120,"startTime":261.742779,"endTime":261.845989875,"instrument":6,"program":0,"isDrum":true},{"pitch":46,"velocity":80,"startTime":261.742779,"endTime":261.845989875,"instrument":6,"program":0,"isDrum":true},{"pitch":46,"velocity":64,"startTime":262.018008,"endTime":262.121218875,"instrument":6,"program":0,"isDrum":true},{"pitch":36,"velocity":96,"startTime":262.018008,"endTime":262.144154625,"instrument":6,"program":0,"isDrum":true},{"pitch":38,"velocity":102,"startTime":262.568466,"endTime":262.660209,"instrument":6,"program":0,"isDrum":true},{"pitch":44,"velocity":97,"startTime":262.843695,"endTime":262.901034375,"instrument":6,"program":0,"isDrum":true},{"pitch":44,"velocity":99,"startTime":263.118924,"endTime":263.199199125,"instrument":6,"program":0,"isDrum":true},{"pitch":38,"velocity":102,"startTime":263.669382,"endTime":263.795528625,"instrument":6,"program":0,"isDrum":true},{"pitch":46,"velocity":52,"startTime":264.21984000000003,"endTime":264.32305087500004,"instrument":6,"program":0,"isDrum":true},{"pitch":36,"velocity":78,"startTime":264.21984000000003,"endTime":264.28864725,"instrument":6,"program":0,"isDrum":true},{"pitch":44,"velocity":81,"startTime":264.770298,"endTime":264.988187625,"instrument":6,"program":0,"isDrum":true},{"pitch":38,"velocity":83,"startTime":264.770298,"endTime":264.88497675,"instrument":6,"program":0,"isDrum":true},{"pitch":44,"velocity":83,"startTime":265.045527,"endTime":265.148737875,"instrument":6,"program":0,"isDrum":true},{"pitch":40,"velocity":65,"startTime":265.171673625,"endTime":265.240480875,"instrument":6,"program":0,"isDrum":true},{"pitch":44,"velocity":81,"startTime":265.320756,"endTime":265.38956325,"instrument":6,"program":0,"isDrum":true},{"pitch":44,"velocity":81,"startTime":265.595985,"endTime":265.657911525,"instrument":6,"program":0,"isDrum":true},{"pitch":44,"velocity":82,"startTime":265.871214,"endTime":265.94002125000003,"instrument":6,"program":0,"isDrum":true},{"pitch":38,"velocity":83,"startTime":265.871214,"endTime":266.0088285,"instrument":6,"program":0,"isDrum":true},{"pitch":46,"velocity":52,"startTime":266.14644300000003,"endTime":266.24965387500004,"instrument":6,"program":0,"isDrum":true},{"pitch":36,"velocity":78,"startTime":266.14644300000003,"endTime":266.24965387500004,"instrument":6,"program":0,"isDrum":true},{"pitch":46,"velocity":36,"startTime":266.421672,"endTime":266.524882875,"instrument":6,"program":0,"isDrum":true},{"pitch":36,"velocity":54,"startTime":266.421672,"endTime":266.547818625,"instrument":6,"program":0,"isDrum":true},{"pitch":38,"velocity":57,"startTime":266.97213,"endTime":267.063873,"instrument":6,"program":0,"isDrum":true},{"pitch":44,"velocity":54,"startTime":267.247359,"endTime":267.304698375,"instrument":6,"program":0,"isDrum":true},{"pitch":44,"velocity":56,"startTime":267.522588,"endTime":267.60286312500006,"instrument":6,"program":0,"isDrum":true},{"pitch":38,"velocity":57,"startTime":268.07304600000003,"endTime":268.19919262499997,"instrument":6,"program":0,"isDrum":true},{"pitch":46,"velocity":16,"startTime":268.623504,"endTime":268.726714875,"instrument":6,"program":0,"isDrum":true},{"pitch":36,"velocity":24,"startTime":268.623504,"endTime":268.69231125,"instrument":6,"program":0,"isDrum":true},{"pitch":44,"velocity":25,"startTime":269.173962,"endTime":269.391851625,"instrument":6,"program":0,"isDrum":true},{"pitch":38,"velocity":25,"startTime":269.173962,"endTime":269.28864075,"instrument":6,"program":0,"isDrum":true},{"pitch":44,"velocity":25,"startTime":269.449191,"endTime":269.552401875,"instrument":6,"program":0,"isDrum":true},{"pitch":40,"velocity":20,"startTime":269.575337625,"endTime":269.644144875,"instrument":6,"program":0,"isDrum":true},{"pitch":44,"velocity":25,"startTime":269.72442,"endTime":269.79322725000003,"instrument":6,"program":0,"isDrum":true},{"pitch":44,"velocity":25,"startTime":269.99964900000003,"endTime":270.06157552499997,"instrument":6,"program":0,"isDrum":true},{"pitch":44,"velocity":25,"startTime":270.274878,"endTime":270.34368525,"instrument":6,"program":0,"isDrum":true},{"pitch":38,"velocity":25,"startTime":270.274878,"endTime":270.4124925,"instrument":6,"program":0,"isDrum":true},{"pitch":36,"velocity":24,"startTime":270.550107,"endTime":270.653317875,"instrument":6,"program":0,"isDrum":true},{"pitch":46,"velocity":16,"startTime":270.550107,"endTime":270.653317875,"instrument":6,"program":0,"isDrum":true},{"pitch":46,"velocity":8,"startTime":270.825336,"endTime":270.928546875,"instrument":6,"program":0,"isDrum":true},{"pitch":36,"velocity":12,"startTime":270.825336,"endTime":270.951482625,"instrument":6,"program":0,"isDrum":true},{"pitch":38,"velocity":13,"startTime":271.375794,"endTime":271.467537,"instrument":6,"program":0,"isDrum":true},{"pitch":44,"velocity":12,"startTime":271.651023,"endTime":271.708362375,"instrument":6,"program":0,"isDrum":true},{"pitch":44,"velocity":12,"startTime":271.92625200000003,"endTime":272.00652712500005,"instrument":6,"program":0,"isDrum":true},{"pitch":44,"velocity":13,"startTime":272.201481,"endTime":272.4216642,"instrument":6,"program":0,"isDrum":true},{"pitch":44,"velocity":13,"startTime":272.47671,"endTime":272.9170764,"instrument":6,"program":0,"isDrum":true},{"pitch":38,"velocity":13,"startTime":272.47671,"endTime":272.602856625,"instrument":6,"program":0,"isDrum":true},{"pitch":46,"velocity":1,"startTime":273.027168,"endTime":273.130378875,"instrument":6,"program":0,"isDrum":true},{"pitch":36,"velocity":1,"startTime":273.027168,"endTime":273.09597525,"instrument":6,"program":0,"isDrum":true},{"pitch":44,"velocity":1,"startTime":273.577626,"endTime":273.795515625,"instrument":6,"program":0,"isDrum":true},{"pitch":38,"velocity":1,"startTime":273.577626,"endTime":273.69230475,"instrument":6,"program":0,"isDrum":true},{"pitch":44,"velocity":1,"startTime":273.85285500000003,"endTime":273.95606587500004,"instrument":6,"program":0,"isDrum":true},{"pitch":40,"velocity":1,"startTime":273.97900162499997,"endTime":274.047808875,"instrument":6,"program":0,"isDrum":true},{"pitch":44,"velocity":1,"startTime":274.128084,"endTime":274.19689125,"instrument":6,"program":0,"isDrum":true},{"pitch":44,"velocity":1,"startTime":274.403313,"endTime":274.46523952499996,"instrument":6,"program":0,"isDrum":true},{"pitch":44,"velocity":1,"startTime":274.678542,"endTime":274.74734925,"instrument":6,"program":0,"isDrum":true},{"pitch":38,"velocity":1,"startTime":274.678542,"endTime":274.81615650000003,"instrument":6,"program":0,"isDrum":true},{"pitch":36,"velocity":1,"startTime":274.953771,"endTime":275.056981875,"instrument":6,"program":0,"isDrum":true},{"pitch":46,"velocity":1,"startTime":274.953771,"endTime":275.056981875,"instrument":6,"program":0,"isDrum":true},{"pitch":71,"velocity":74,"startTime":123.302592,"endTime":124.40350800000002,"instrument":7,"program":68,"isDrum":false},{"pitch":67,"velocity":74,"startTime":124.40350800000002,"endTime":125.504424,"instrument":7,"program":68,"isDrum":false},{"pitch":62,"velocity":74,"startTime":125.504424,"endTime":126.60534000000001,"instrument":7,"program":68,"isDrum":false},{"pitch":67,"velocity":74,"startTime":126.60534000000001,"endTime":127.706256,"instrument":7,"program":68,"isDrum":false},{"pitch":71,"velocity":74,"startTime":127.706256,"endTime":128.25671400000002,"instrument":7,"program":68,"isDrum":false},{"pitch":69,"velocity":74,"startTime":128.25671400000002,"endTime":128.807172,"instrument":7,"program":68,"isDrum":false},{"pitch":71,"velocity":74,"startTime":128.807172,"endTime":129.35763,"instrument":7,"program":68,"isDrum":false},{"pitch":72,"velocity":74,"startTime":129.35763,"endTime":129.90808800000002,"instrument":7,"program":68,"isDrum":false},{"pitch":71,"velocity":74,"startTime":129.90808800000002,"endTime":131.009004,"instrument":7,"program":68,"isDrum":false},{"pitch":67,"velocity":74,"startTime":131.009004,"endTime":132.10992000000002,"instrument":7,"program":68,"isDrum":false},{"pitch":62,"velocity":74,"startTime":132.93790057500001,"endTime":133.57551442500002,"instrument":7,"program":68,"isDrum":false},{"pitch":67,"velocity":74,"startTime":133.47918427500002,"endTime":134.4768894,"instrument":7,"program":68,"isDrum":false},{"pitch":67,"velocity":74,"startTime":135.148906875,"endTime":135.6787227,"instrument":7,"program":68,"isDrum":false},{"pitch":69,"velocity":74,"startTime":135.68101627500002,"endTime":136.2475293,"instrument":7,"program":68,"isDrum":false},{"pitch":71,"velocity":74,"startTime":136.238355,"endTime":136.78651942500002,"instrument":7,"program":68,"isDrum":false},{"pitch":69,"velocity":74,"startTime":136.81174875000002,"endTime":137.33697742500001,"instrument":7,"program":68,"isDrum":false},{"pitch":67,"velocity":74,"startTime":137.339271,"endTime":138.56174647500004,"instrument":7,"program":68,"isDrum":false},{"pitch":71,"velocity":74,"startTime":246.605184,"endTime":247.7061,"instrument":7,"program":68,"isDrum":false},{"pitch":67,"velocity":74,"startTime":247.7061,"endTime":248.80701600000003,"instrument":7,"program":68,"isDrum":false},{"pitch":62,"velocity":74,"startTime":248.80701600000003,"endTime":249.90793200000002,"instrument":7,"program":68,"isDrum":false},{"pitch":67,"velocity":74,"startTime":249.90793200000002,"endTime":251.008848,"instrument":7,"program":68,"isDrum":false},{"pitch":71,"velocity":74,"startTime":251.008848,"endTime":251.559306,"instrument":7,"program":68,"isDrum":false},{"pitch":69,"velocity":74,"startTime":251.559306,"endTime":252.10976399999998,"instrument":7,"program":68,"isDrum":false},{"pitch":71,"velocity":74,"startTime":252.10976399999998,"endTime":252.66022200000003,"instrument":7,"program":68,"isDrum":false},{"pitch":72,"velocity":74,"startTime":252.66022200000003,"endTime":253.21068000000002,"instrument":7,"program":68,"isDrum":false},{"pitch":71,"velocity":74,"startTime":253.21068000000002,"endTime":254.311596,"instrument":7,"program":68,"isDrum":false},{"pitch":67,"velocity":74,"startTime":254.311596,"endTime":255.412512,"instrument":7,"program":68,"isDrum":false},{"pitch":62,"velocity":74,"startTime":256.240492575,"endTime":256.878106425,"instrument":7,"program":68,"isDrum":false},{"pitch":67,"velocity":74,"startTime":256.78177627499997,"endTime":257.7794814,"instrument":7,"program":68,"isDrum":false},{"pitch":67,"velocity":74,"startTime":258.451498875,"endTime":258.98131470000004,"instrument":7,"program":68,"isDrum":false},{"pitch":69,"velocity":74,"startTime":258.983608275,"endTime":259.5501213,"instrument":7,"program":68,"isDrum":false},{"pitch":71,"velocity":74,"startTime":259.540947,"endTime":260.089111425,"instrument":7,"program":68,"isDrum":false},{"pitch":69,"velocity":74,"startTime":260.11434075,"endTime":260.639569425,"instrument":7,"program":68,"isDrum":false},{"pitch":67,"velocity":74,"startTime":260.641863,"endTime":261.864338475,"instrument":7,"program":68,"isDrum":false},{"pitch":71,"velocity":48,"startTime":264.21984000000003,"endTime":265.320756,"instrument":7,"program":68,"isDrum":false},{"pitch":67,"velocity":48,"startTime":265.320756,"endTime":266.421672,"instrument":7,"program":68,"isDrum":false},{"pitch":62,"velocity":33,"startTime":266.421672,"endTime":267.522588,"instrument":7,"program":68,"isDrum":false},{"pitch":67,"velocity":33,"startTime":267.522588,"endTime":268.623504,"instrument":7,"program":68,"isDrum":false},{"pitch":71,"velocity":15,"startTime":268.623504,"endTime":269.173962,"instrument":7,"program":68,"isDrum":false},{"pitch":69,"velocity":15,"startTime":269.173962,"endTime":269.72442,"instrument":7,"program":68,"isDrum":false},{"pitch":71,"velocity":15,"startTime":269.72442,"endTime":270.274878,"instrument":7,"program":68,"isDrum":false},{"pitch":72,"velocity":15,"startTime":270.274878,"endTime":270.825336,"instrument":7,"program":68,"isDrum":false},{"pitch":71,"velocity":7,"startTime":270.825336,"endTime":271.92625200000003,"instrument":7,"program":68,"isDrum":false},{"pitch":67,"velocity":7,"startTime":271.92625200000003,"endTime":273.027168,"instrument":7,"program":68,"isDrum":false},{"pitch":62,"velocity":1,"startTime":273.85514857500004,"endTime":274.492762425,"instrument":7,"program":68,"isDrum":false},{"pitch":67,"velocity":1,"startTime":274.396432275,"endTime":275.3941374,"instrument":7,"program":68,"isDrum":false}],"totalTime":276.836796075,"sourceInfo":{"encodingType":"MIDI","parser":"TONEJS_MIDI_CONVERT"}},"sequence":{"filename":"Ill_Be_Missing_You.mid","ticksPerQuarter":240,"timeSignatures":[{"time":0,"numerator":4,"denominator":4}],"tempos":[{"time":0,"qpm":109.00014170018422}],"notes":[{"pitch":31,"velocity":99,"startTime":0,"endTime":0.458714999999998,"instrument":0,"program":35,"isDrum":false},{"pitch":31,"velocity":99,"startTime":1.926603,"endTime":2.096327550000005,"instrument":0,"program":35,"isDrum":false},{"pitch":31,"velocity":99,"startTime":2.201832000000003,"endTime":2.660546999999994,"instrument":0,"program":35,"isDrum":false},{"pitch":35,"velocity":99,"startTime":3.302748000000001,"endTime":3.993114075000001,"instrument":0,"program":35,"isDrum":false},{"pitch":26,"velocity":99,"startTime":3.862380299999998,"endTime":4.392196125000005,"instrument":0,"program":35,"isDrum":false},{"pitch":28,"velocity":99,"startTime":4.403663999999999,"endTime":4.862378999999997,"instrument":0,"program":35,"isDrum":false},{"pitch":28,"velocity":99,"startTime":6.330266999999999,"endTime":6.4862301,"instrument":0,"program":35,"isDrum":false},{"pitch":28,"velocity":99,"startTime":6.605496000000002,"endTime":7.064211,"instrument":0,"program":35,"isDrum":false},{"pitch":36,"velocity":99,"startTime":8.807327999999998,"endTime":9.266042999999996,"instrument":0,"program":35,"isDrum":false},{"pitch":40,"velocity":99,"startTime":10.733930999999998,"endTime":11.0183343,"instrument":0,"program":35,"isDrum":false},{"pitch":38,"velocity":99,"startTime":11.009160000000001,"endTime":11.467875,"instrument":0,"program":35,"isDrum":false},{"pitch":31,"velocity":99,"startTime":13.210991999999997,"endTime":13.600899749999996,"instrument":0,"program":35,"isDrum":false},{"pitch":31,"velocity":99,"startTime":15.137594999999997,"endTime":15.279796650000002,"instrument":0,"program":35,"isDrum":false},{"pitch":31,"velocity":99,"startTime":15.412824,"endTime":15.871538999999999,"instrument":0,"program":35,"isDrum":false},{"pitch":26,"velocity":99,"startTime":17.064197999999998,"endTime":17.589426675,"instrument":0,"program":35,"isDrum":false},{"pitch":31,"velocity":99,"startTime":17.614656000000004,"endTime":18.073370999999995,"instrument":0,"program":35,"isDrum":false},{"pitch":31,"velocity":99,"startTime":19.541258999999997,"endTime":19.71098355,"instrument":0,"program":35,"isDrum":false},{"pitch":31,"velocity":99,"startTime":19.816488,"endTime":20.275202999999998,"instrument":0,"program":35,"isDrum":false},{"pitch":35,"velocity":99,"startTime":20.917403999999998,"endTime":21.607770074999998,"instrument":0,"program":35,"isDrum":false},{"pitch":26,"velocity":99,"startTime":21.4770363,"endTime":22.006852125,"instrument":0,"program":35,"isDrum":false},{"pitch":28,"velocity":99,"startTime":22.018320000000003,"endTime":22.477035,"instrument":0,"program":35,"isDrum":false},{"pitch":28,"velocity":99,"startTime":23.944923000000003,"endTime":24.100886099999997,"instrument":0,"program":35,"isDrum":false},{"pitch":28,"velocity":99,"startTime":24.220152,"endTime":24.678866999999997,"instrument":0,"program":35,"isDrum":false},{"pitch":36,"velocity":99,"startTime":26.421984000000002,"endTime":26.880699,"instrument":0,"program":35,"isDrum":false},{"pitch":40,"velocity":99,"startTime":28.348587000000002,"endTime":28.632990300000003,"instrument":0,"program":35,"isDrum":false},{"pitch":38,"velocity":99,"startTime":28.623815999999998,"endTime":29.082530999999996,"instrument":0,"program":35,"isDrum":false},{"pitch":31,"velocity":99,"startTime":30.825647999999994,"endTime":31.21555575,"instrument":0,"program":35,"isDrum":false},{"pitch":31,"velocity":99,"startTime":32.752250999999994,"endTime":32.89445265,"instrument":0,"program":35,"isDrum":false},{"pitch":31,"velocity":99,"startTime":33.027480000000004,"endTime":33.486195,"instrument":0,"program":35,"isDrum":false},{"pitch":26,"velocity":99,"startTime":34.678853999999994,"endTime":35.204082675,"instrument":0,"program":35,"isDrum":false},{"pitch":31,"velocity":99,"startTime":35.229312,"endTime":35.68802700000001,"instrument":0,"program":35,"isDrum":false},{"pitch":31,"velocity":99,"startTime":37.155915,"endTime":37.32563955,"instrument":0,"program":35,"isDrum":false},{"pitch":31,"velocity":99,"startTime":37.431143999999996,"endTime":37.88985900000001,"instrument":0,"program":35,"isDrum":false},{"pitch":35,"velocity":99,"startTime":38.532059999999994,"endTime":39.222426074999994,"instrument":0,"program":35,"isDrum":false},{"pitch":26,"velocity":99,"startTime":39.09169230000001,"endTime":39.621508125,"instrument":0,"program":35,"isDrum":false},{"pitch":28,"velocity":99,"startTime":39.632976000000006,"endTime":40.091691000000004,"instrument":0,"program":35,"isDrum":false},{"pitch":28,"velocity":99,"startTime":41.55957900000001,"endTime":41.7155421,"instrument":0,"program":35,"isDrum":false},{"pitch":28,"velocity":99,"startTime":41.834808,"endTime":42.293523,"instrument":0,"program":35,"isDrum":false},{"pitch":36,"velocity":99,"startTime":44.03664,"endTime":44.49535500000001,"instrument":0,"program":35,"isDrum":false},{"pitch":40,"velocity":99,"startTime":45.963243,"endTime":46.24764630000001,"instrument":0,"program":35,"isDrum":false},{"pitch":38,"velocity":99,"startTime":46.238471999999994,"endTime":46.69718700000001,"instrument":0,"program":35,"isDrum":false},{"pitch":31,"velocity":99,"startTime":48.440304000000005,"endTime":48.83021175000001,"instrument":0,"program":35,"isDrum":false},{"pitch":31,"velocity":99,"startTime":50.366907000000005,"endTime":50.509108649999995,"instrument":0,"program":35,"isDrum":false},{"pitch":31,"velocity":99,"startTime":50.642136,"endTime":51.100851,"instrument":0,"program":35,"isDrum":false},{"pitch":26,"velocity":99,"startTime":52.293510000000005,"endTime":52.81873867500001,"instrument":0,"program":35,"isDrum":false},{"pitch":31,"velocity":99,"startTime":52.843968,"endTime":53.30268300000001,"instrument":0,"program":35,"isDrum":false},{"pitch":31,"velocity":99,"startTime":54.770571,"endTime":54.94029555000001,"instrument":0,"program":35,"isDrum":false},{"pitch":31,"velocity":99,"startTime":55.04580000000001,"endTime":55.504515000000005,"instrument":0,"program":35,"isDrum":false},{"pitch":35,"velocity":99,"startTime":56.146716000000005,"endTime":56.837082075000005,"instrument":0,"program":35,"isDrum":false},{"pitch":26,"velocity":99,"startTime":56.70634830000001,"endTime":57.236164124999995,"instrument":0,"program":35,"isDrum":false},{"pitch":28,"velocity":99,"startTime":57.247632,"endTime":57.706347,"instrument":0,"program":35,"isDrum":false},{"pitch":28,"velocity":99,"startTime":59.174235,"endTime":59.3301981,"instrument":0,"program":35,"isDrum":false},{"pitch":28,"velocity":99,"startTime":59.449464,"endTime":59.90817900000001,"instrument":0,"program":35,"isDrum":false},{"pitch":36,"velocity":99,"startTime":61.651295999999995,"endTime":62.11001100000001,"instrument":0,"program":35,"isDrum":false},{"pitch":40,"velocity":99,"startTime":63.577898999999995,"endTime":63.8623023,"instrument":0,"program":35,"isDrum":false},{"pitch":38,"velocity":99,"startTime":63.853128000000005,"endTime":64.31184300000001,"instrument":0,"program":35,"isDrum":false},{"pitch":31,"velocity":99,"startTime":66.05496,"endTime":66.44486775000001,"instrument":0,"program":35,"isDrum":false},{"pitch":31,"velocity":99,"startTime":67.981563,"endTime":68.12376465,"instrument":0,"program":35,"isDrum":false},{"pitch":31,"velocity":99,"startTime":68.25679199999999,"endTime":68.715507,"instrument":0,"program":35,"isDrum":false},{"pitch":26,"velocity":99,"startTime":69.908166,"endTime":70.43339467500002,"instrument":0,"program":35,"isDrum":false},{"pitch":31,"velocity":99,"startTime":70.45862400000001,"endTime":70.917339,"instrument":0,"program":35,"isDrum":false},{"pitch":31,"velocity":99,"startTime":72.38522699999999,"endTime":72.55495155,"instrument":0,"program":35,"isDrum":false},{"pitch":31,"velocity":99,"startTime":72.66045600000001,"endTime":73.119171,"instrument":0,"program":35,"isDrum":false},{"pitch":35,"velocity":99,"startTime":73.761372,"endTime":74.45173807500001,"instrument":0,"program":35,"isDrum":false},{"pitch":26,"velocity":99,"startTime":74.3210043,"endTime":74.85082012499998,"instrument":0,"program":35,"isDrum":false},{"pitch":28,"velocity":99,"startTime":74.862288,"endTime":75.32100300000002,"instrument":0,"program":35,"isDrum":false},{"pitch":28,"velocity":99,"startTime":76.788891,"endTime":76.94485409999999,"instrument":0,"program":35,"isDrum":false},{"pitch":28,"velocity":99,"startTime":77.06412,"endTime":77.52283500000001,"instrument":0,"program":35,"isDrum":false},{"pitch":36,"velocity":99,"startTime":79.265952,"endTime":79.72466700000001,"instrument":0,"program":35,"isDrum":false},{"pitch":40,"velocity":99,"startTime":81.192555,"endTime":81.4769583,"instrument":0,"program":35,"isDrum":false},{"pitch":38,"velocity":99,"startTime":81.467784,"endTime":81.926499,"instrument":0,"program":35,"isDrum":false},{"pitch":31,"velocity":99,"startTime":83.66961599999999,"endTime":84.05952375000001,"instrument":0,"program":35,"isDrum":false},{"pitch":31,"velocity":99,"startTime":85.59621899999999,"endTime":85.73842065,"instrument":0,"program":35,"isDrum":false},{"pitch":31,"velocity":99,"startTime":85.87144799999999,"endTime":86.330163,"instrument":0,"program":35,"isDrum":false},{"pitch":26,"velocity":99,"startTime":87.52282199999999,"endTime":88.04805067500001,"instrument":0,"program":35,"isDrum":false},{"pitch":31,"velocity":99,"startTime":88.07328000000001,"endTime":88.531995,"instrument":0,"program":35,"isDrum":false},{"pitch":31,"velocity":99,"startTime":89.99988300000001,"endTime":90.16960755,"instrument":0,"program":35,"isDrum":false},{"pitch":31,"velocity":99,"startTime":90.27511200000001,"endTime":90.73382700000002,"instrument":0,"program":35,"isDrum":false},{"pitch":35,"velocity":99,"startTime":91.37602799999999,"endTime":92.066394075,"instrument":0,"program":35,"isDrum":false},{"pitch":26,"velocity":99,"startTime":91.9356603,"endTime":92.46547612500001,"instrument":0,"program":35,"isDrum":false},{"pitch":28,"velocity":99,"startTime":92.476944,"endTime":92.93565900000002,"instrument":0,"program":35,"isDrum":false},{"pitch":28,"velocity":99,"startTime":94.403547,"endTime":94.55951010000001,"instrument":0,"program":35,"isDrum":false},{"pitch":28,"velocity":99,"startTime":94.678776,"endTime":95.13749100000001,"instrument":0,"program":35,"isDrum":false},{"pitch":36,"velocity":99,"startTime":96.880608,"endTime":97.33932300000001,"instrument":0,"program":35,"isDrum":false},{"pitch":40,"velocity":99,"startTime":98.807211,"endTime":99.0916143,"instrument":0,"program":35,"isDrum":false},{"pitch":38,"velocity":99,"startTime":99.08244000000002,"endTime":99.541155,"instrument":0,"program":35,"isDrum":false},{"pitch":31,"velocity":99,"startTime":101.28427200000002,"endTime":101.67417975000001,"instrument":0,"program":35,"isDrum":false},{"pitch":31,"velocity":99,"startTime":103.21087500000002,"endTime":103.35307664999999,"instrument":0,"program":35,"isDrum":false},{"pitch":31,"velocity":99,"startTime":103.48610400000001,"endTime":103.94481900000002,"instrument":0,"program":35,"isDrum":false},{"pitch":26,"velocity":99,"startTime":105.13747800000002,"endTime":105.66270667500001,"instrument":0,"program":35,"isDrum":false},{"pitch":31,"velocity":99,"startTime":105.68793600000001,"endTime":106.14665099999999,"instrument":0,"program":35,"isDrum":false},{"pitch":31,"velocity":99,"startTime":107.61453900000001,"endTime":107.78426355000002,"instrument":0,"program":35,"isDrum":false},{"pitch":31,"velocity":99,"startTime":107.889768,"endTime":108.34848299999999,"instrument":0,"program":35,"isDrum":false},{"pitch":35,"velocity":99,"startTime":108.99068400000002,"endTime":109.681050075,"instrument":0,"program":35,"isDrum":false},{"pitch":26,"velocity":99,"startTime":109.55031629999999,"endTime":110.080132125,"instrument":0,"program":35,"isDrum":false},{"pitch":28,"velocity":99,"startTime":110.0916,"endTime":110.55031499999998,"instrument":0,"program":35,"isDrum":false},{"pitch":28,"velocity":99,"startTime":112.018203,"endTime":112.17416610000004,"instrument":0,"program":35,"isDrum":false},{"pitch":28,"velocity":99,"startTime":112.293432,"endTime":112.75214700000001,"instrument":0,"program":35,"isDrum":false},{"pitch":36,"velocity":99,"startTime":114.49526400000002,"endTime":114.953979,"instrument":0,"program":35,"isDrum":false},{"pitch":40,"velocity":99,"startTime":116.42186700000002,"endTime":116.7062703,"instrument":0,"program":35,"isDrum":false},{"pitch":38,"velocity":99,"startTime":116.69709600000002,"endTime":117.155811,"instrument":0,"program":35,"isDrum":false},{"pitch":31,"velocity":99,"startTime":118.89892800000001,"endTime":119.28883575,"instrument":0,"program":35,"isDrum":false},{"pitch":31,"velocity":99,"startTime":120.82553100000001,"endTime":120.96773265000002,"instrument":0,"program":35,"isDrum":false},{"pitch":31,"velocity":99,"startTime":121.10076000000001,"endTime":121.55947499999999,"instrument":0,"program":35,"isDrum":false},{"pitch":26,"velocity":99,"startTime":122.75213400000001,"endTime":123.277362675,"instrument":0,"program":35,"isDrum":false},{"pitch":31,"velocity":99,"startTime":123.302592,"endTime":123.76130699999999,"instrument":0,"program":35,"isDrum":false},{"pitch":31,"velocity":99,"startTime":125.229195,"endTime":125.39891955000002,"instrument":0,"program":35,"isDrum":false},{"pitch":31,"velocity":99,"startTime":125.504424,"endTime":125.96313899999998,"instrument":0,"program":35,"isDrum":false},{"pitch":35,"velocity":99,"startTime":126.60534000000001,"endTime":127.295706075,"instrument":0,"program":35,"isDrum":false},{"pitch":26,"velocity":99,"startTime":127.16497229999999,"endTime":127.69478812500003,"instrument":0,"program":35,"isDrum":false},{"pitch":28,"velocity":99,"startTime":127.706256,"endTime":128.164971,"instrument":0,"program":35,"isDrum":false},{"pitch":28,"velocity":99,"startTime":129.632859,"endTime":129.78882210000003,"instrument":0,"program":35,"isDrum":false},{"pitch":28,"velocity":99,"startTime":129.90808800000002,"endTime":130.366803,"instrument":0,"program":35,"isDrum":false},{"pitch":36,"velocity":99,"startTime":132.10992000000002,"endTime":132.568635,"instrument":0,"program":35,"isDrum":false},{"pitch":40,"velocity":99,"startTime":134.03652300000002,"endTime":134.3209263,"instrument":0,"program":35,"isDrum":false},{"pitch":38,"velocity":99,"startTime":134.311752,"endTime":134.770467,"instrument":0,"program":35,"isDrum":false},{"pitch":31,"velocity":99,"startTime":136.513584,"endTime":136.90349175,"instrument":0,"program":35,"isDrum":false},{"pitch":31,"velocity":99,"startTime":138.440187,"endTime":138.58238865,"instrument":0,"program":35,"isDrum":false},{"pitch":31,"velocity":99,"startTime":138.715416,"endTime":139.174131,"instrument":0,"program":35,"isDrum":false},{"pitch":26,"velocity":99,"startTime":140.36679,"endTime":140.892018675,"instrument":0,"program":35,"isDrum":false},{"pitch":31,"velocity":99,"startTime":140.917248,"endTime":141.37596299999998,"instrument":0,"program":35,"isDrum":false},{"pitch":31,"velocity":99,"startTime":142.843851,"endTime":143.01357555,"instrument":0,"program":35,"isDrum":false},{"pitch":31,"velocity":99,"startTime":143.11908,"endTime":143.577795,"instrument":0,"program":35,"isDrum":false},{"pitch":35,"velocity":99,"startTime":144.219996,"endTime":144.910362075,"instrument":0,"program":35,"isDrum":false},{"pitch":26,"velocity":99,"startTime":144.7796283,"endTime":145.30944412500003,"instrument":0,"program":35,"isDrum":false},{"pitch":28,"velocity":99,"startTime":145.32091200000002,"endTime":145.779627,"instrument":0,"program":35,"isDrum":false},{"pitch":28,"velocity":99,"startTime":147.24751500000002,"endTime":147.40347810000003,"instrument":0,"program":35,"isDrum":false},{"pitch":28,"velocity":118,"startTime":147.52274400000002,"endTime":147.981459,"instrument":0,"program":35,"isDrum":false},{"pitch":36,"velocity":118,"startTime":149.724576,"endTime":150.183291,"instrument":0,"program":35,"isDrum":false},{"pitch":40,"velocity":118,"startTime":151.651179,"endTime":151.9355823,"instrument":0,"program":35,"isDrum":false},{"pitch":38,"velocity":118,"startTime":151.926408,"endTime":152.385123,"instrument":0,"program":35,"isDrum":false},{"pitch":31,"velocity":118,"startTime":154.12824,"endTime":154.51814775,"instrument":0,"program":35,"isDrum":false},{"pitch":31,"velocity":118,"startTime":156.054843,"endTime":156.19704465,"instrument":0,"program":35,"isDrum":false},{"pitch":31,"velocity":118,"startTime":156.330072,"endTime":156.78878699999999,"instrument":0,"program":35,"isDrum":false},{"pitch":26,"velocity":118,"startTime":157.981446,"endTime":158.506674675,"instrument":0,"program":35,"isDrum":false},{"pitch":31,"velocity":118,"startTime":158.531904,"endTime":158.990619,"instrument":0,"program":35,"isDrum":false},{"pitch":31,"velocity":118,"startTime":160.458507,"endTime":160.62823155,"instrument":0,"program":35,"isDrum":false},{"pitch":31,"velocity":118,"startTime":160.73373600000002,"endTime":161.192451,"instrument":0,"program":35,"isDrum":false},{"pitch":35,"velocity":118,"startTime":161.834652,"endTime":162.52501807500002,"instrument":0,"program":35,"isDrum":false},{"pitch":26,"velocity":118,"startTime":162.3942843,"endTime":162.92410012500002,"instrument":0,"program":35,"isDrum":false},{"pitch":28,"velocity":118,"startTime":162.93556800000002,"endTime":163.394283,"instrument":0,"program":35,"isDrum":false},{"pitch":28,"velocity":118,"startTime":164.86217100000002,"endTime":165.01813410000003,"instrument":0,"program":35,"isDrum":false},{"pitch":28,"velocity":118,"startTime":165.1374,"endTime":165.596115,"instrument":0,"program":35,"isDrum":false},{"pitch":36,"velocity":118,"startTime":167.339232,"endTime":167.797947,"instrument":0,"program":35,"isDrum":false},{"pitch":40,"velocity":118,"startTime":169.265835,"endTime":169.5502383,"instrument":0,"program":35,"isDrum":false},{"pitch":38,"velocity":118,"startTime":169.541064,"endTime":169.999779,"instrument":0,"program":35,"isDrum":false},{"pitch":31,"velocity":118,"startTime":171.742896,"endTime":172.13280375,"instrument":0,"program":35,"isDrum":false},{"pitch":31,"velocity":118,"startTime":173.669499,"endTime":173.81170065,"instrument":0,"program":35,"isDrum":false},{"pitch":31,"velocity":118,"startTime":173.944728,"endTime":174.403443,"instrument":0,"program":35,"isDrum":false},{"pitch":26,"velocity":118,"startTime":175.596102,"endTime":176.121330675,"instrument":0,"program":35,"isDrum":false},{"pitch":31,"velocity":118,"startTime":176.14656000000002,"endTime":176.605275,"instrument":0,"program":35,"isDrum":false},{"pitch":31,"velocity":118,"startTime":178.073163,"endTime":178.24288755,"instrument":0,"program":35,"isDrum":false},{"pitch":31,"velocity":118,"startTime":178.34839200000002,"endTime":178.807107,"instrument":0,"program":35,"isDrum":false},{"pitch":35,"velocity":118,"startTime":179.449308,"endTime":180.13967407500002,"instrument":0,"program":35,"isDrum":false},{"pitch":26,"velocity":118,"startTime":180.0089403,"endTime":180.53875612500002,"instrument":0,"program":35,"isDrum":false},{"pitch":28,"velocity":118,"startTime":180.55022400000001,"endTime":181.008939,"instrument":0,"program":35,"isDrum":false},{"pitch":28,"velocity":118,"startTime":182.47682700000001,"endTime":182.63279010000002,"instrument":0,"program":35,"isDrum":false},{"pitch":28,"velocity":118,"startTime":182.752056,"endTime":183.210771,"instrument":0,"program":35,"isDrum":false},{"pitch":36,"velocity":118,"startTime":184.953888,"endTime":185.412603,"instrument":0,"program":35,"isDrum":false},{"pitch":40,"velocity":118,"startTime":186.880491,"endTime":187.1648943,"instrument":0,"program":35,"isDrum":false},{"pitch":38,"velocity":118,"startTime":187.15572,"endTime":187.614435,"instrument":0,"program":35,"isDrum":false},{"pitch":31,"velocity":118,"startTime":189.357552,"endTime":189.74745975,"instrument":0,"program":35,"isDrum":false},{"pitch":31,"velocity":118,"startTime":191.284155,"endTime":191.42635665,"instrument":0,"program":35,"isDrum":false},{"pitch":31,"velocity":118,"startTime":191.559384,"endTime":192.018099,"instrument":0,"program":35,"isDrum":false},{"pitch":26,"velocity":118,"startTime":193.210758,"endTime":193.735986675,"instrument":0,"program":35,"isDrum":false},{"pitch":31,"velocity":118,"startTime":193.76121600000002,"endTime":194.219931,"instrument":0,"program":35,"isDrum":false},{"pitch":31,"velocity":118,"startTime":195.68781900000002,"endTime":195.85754355,"instrument":0,"program":35,"isDrum":false},{"pitch":31,"velocity":118,"startTime":195.96304800000001,"endTime":196.421763,"instrument":0,"program":35,"isDrum":false},{"pitch":35,"velocity":118,"startTime":197.063964,"endTime":197.754330075,"instrument":0,"program":35,"isDrum":false},{"pitch":26,"velocity":118,"startTime":197.6235963,"endTime":198.15341212500002,"instrument":0,"program":35,"isDrum":false},{"pitch":28,"velocity":118,"startTime":198.16488,"endTime":198.623595,"instrument":0,"program":35,"isDrum":false},{"pitch":28,"velocity":118,"startTime":200.091483,"endTime":200.24744610000002,"instrument":0,"program":35,"isDrum":false},{"pitch":28,"velocity":118,"startTime":200.366712,"endTime":200.825427,"instrument":0,"program":35,"isDrum":false},{"pitch":36,"velocity":118,"startTime":202.568544,"endTime":203.027259,"instrument":0,"program":35,"isDrum":false},{"pitch":40,"velocity":118,"startTime":204.495147,"endTime":204.7795503,"instrument":0,"program":35,"isDrum":false},{"pitch":38,"velocity":118,"startTime":204.770376,"endTime":205.229091,"instrument":0,"program":35,"isDrum":false},{"pitch":31,"velocity":118,"startTime":206.972208,"endTime":207.36211575,"instrument":0,"program":35,"isDrum":false},{"pitch":31,"velocity":118,"startTime":208.898811,"endTime":209.04101265,"instrument":0,"program":35,"isDrum":false},{"pitch":31,"velocity":118,"startTime":209.17404000000002,"endTime":209.632755,"instrument":0,"program":35,"isDrum":false},{"pitch":26,"velocity":118,"startTime":210.825414,"endTime":211.350642675,"instrument":0,"program":35,"isDrum":false},{"pitch":31,"velocity":118,"startTime":211.37587200000002,"endTime":211.834587,"instrument":0,"program":35,"isDrum":false},{"pitch":31,"velocity":118,"startTime":213.30247500000002,"endTime":213.47219955,"instrument":0,"program":35,"isDrum":false},{"pitch":31,"velocity":118,"startTime":213.577704,"endTime":214.036419,"instrument":0,"program":35,"isDrum":false},{"pitch":35,"velocity":118,"startTime":214.67862,"endTime":215.368986075,"instrument":0,"program":35,"isDrum":false},{"pitch":26,"velocity":118,"startTime":215.2382523,"endTime":215.768068125,"instrument":0,"program":35,"isDrum":false},{"pitch":28,"velocity":118,"startTime":215.779536,"endTime":216.238251,"instrument":0,"program":35,"isDrum":false},{"pitch":28,"velocity":118,"startTime":217.706139,"endTime":217.86210210000002,"instrument":0,"program":35,"isDrum":false},{"pitch":28,"velocity":118,"startTime":217.981368,"endTime":218.440083,"instrument":0,"program":35,"isDrum":false},{"pitch":36,"velocity":118,"startTime":220.1832,"endTime":220.641915,"instrument":0,"program":35,"isDrum":false},{"pitch":40,"velocity":118,"startTime":222.109803,"endTime":222.3942063,"instrument":0,"program":35,"isDrum":false},{"pitch":38,"velocity":118,"startTime":222.38503200000002,"endTime":222.843747,"instrument":0,"program":35,"isDrum":false},{"pitch":31,"velocity":118,"startTime":224.586864,"endTime":224.97677175,"instrument":0,"program":35,"isDrum":false},{"pitch":31,"velocity":118,"startTime":226.513467,"endTime":226.65566865,"instrument":0,"program":35,"isDrum":false},{"pitch":31,"velocity":118,"startTime":226.78869600000002,"endTime":227.247411,"instrument":0,"program":35,"isDrum":false},{"pitch":26,"velocity":118,"startTime":228.44007,"endTime":228.96529867499999,"instrument":0,"program":35,"isDrum":false},{"pitch":31,"velocity":118,"startTime":228.99052799999998,"endTime":229.44924300000002,"instrument":0,"program":35,"isDrum":false},{"pitch":31,"velocity":118,"startTime":230.91713099999998,"endTime":231.08685555,"instrument":0,"program":35,"isDrum":false},{"pitch":31,"velocity":118,"startTime":231.19236,"endTime":231.651075,"instrument":0,"program":35,"isDrum":false},{"pitch":35,"velocity":118,"startTime":232.293276,"endTime":232.98364207500003,"instrument":0,"program":35,"isDrum":false},{"pitch":26,"velocity":118,"startTime":232.85290830000002,"endTime":233.38272412500004,"instrument":0,"program":35,"isDrum":false},{"pitch":28,"velocity":118,"startTime":233.39419200000003,"endTime":233.85290700000002,"instrument":0,"program":35,"isDrum":false},{"pitch":28,"velocity":118,"startTime":235.32079500000003,"endTime":235.47675810000004,"instrument":0,"program":35,"isDrum":false},{"pitch":28,"velocity":99,"startTime":235.596024,"endTime":236.05473899999998,"instrument":0,"program":35,"isDrum":false},{"pitch":36,"velocity":99,"startTime":237.79785600000002,"endTime":238.256571,"instrument":0,"program":35,"isDrum":false},{"pitch":40,"velocity":99,"startTime":239.72445900000002,"endTime":240.00886229999998,"instrument":0,"program":35,"isDrum":false},{"pitch":38,"velocity":99,"startTime":239.999688,"endTime":240.45840299999998,"instrument":0,"program":35,"isDrum":false},{"pitch":31,"velocity":99,"startTime":242.20152000000002,"endTime":242.59142774999998,"instrument":0,"program":35,"isDrum":false},{"pitch":31,"velocity":99,"startTime":244.12812300000002,"endTime":244.27032465000002,"instrument":0,"program":35,"isDrum":false},{"pitch":31,"velocity":99,"startTime":244.40335199999998,"endTime":244.86206700000002,"instrument":0,"program":35,"isDrum":false},{"pitch":26,"velocity":99,"startTime":246.05472600000002,"endTime":246.579954675,"instrument":0,"program":35,"isDrum":false},{"pitch":31,"velocity":99,"startTime":246.605184,"endTime":247.06389900000005,"instrument":0,"program":35,"isDrum":false},{"pitch":31,"velocity":99,"startTime":248.531787,"endTime":248.70151154999996,"instrument":0,"program":35,"isDrum":false},{"pitch":31,"velocity":99,"startTime":248.80701600000003,"endTime":249.26573100000002,"instrument":0,"program":35,"isDrum":false},{"pitch":35,"velocity":99,"startTime":249.90793200000002,"endTime":250.59829807500006,"instrument":0,"program":35,"isDrum":false},{"pitch":26,"velocity":99,"startTime":250.4675643,"endTime":250.997380125,"instrument":0,"program":35,"isDrum":false},{"pitch":28,"velocity":99,"startTime":251.008848,"endTime":251.46756300000004,"instrument":0,"program":35,"isDrum":false},{"pitch":28,"velocity":99,"startTime":252.935451,"endTime":253.0914141,"instrument":0,"program":35,"isDrum":false},{"pitch":28,"velocity":99,"startTime":253.21068000000002,"endTime":253.669395,"instrument":0,"program":35,"isDrum":false},{"pitch":36,"velocity":99,"startTime":255.412512,"endTime":255.87122700000003,"instrument":0,"program":35,"isDrum":false},{"pitch":40,"velocity":99,"startTime":257.339115,"endTime":257.6235183,"instrument":0,"program":35,"isDrum":false},{"pitch":38,"velocity":99,"startTime":257.614344,"endTime":258.07305900000006,"instrument":0,"program":35,"isDrum":false},{"pitch":31,"velocity":99,"startTime":259.816176,"endTime":260.20608375,"instrument":0,"program":35,"isDrum":false},{"pitch":31,"velocity":99,"startTime":261.742779,"endTime":261.88498065,"instrument":0,"program":35,"isDrum":false},{"pitch":31,"velocity":79,"startTime":262.018008,"endTime":262.47672300000005,"instrument":0,"program":35,"isDrum":false},{"pitch":26,"velocity":79,"startTime":263.669382,"endTime":264.194610675,"instrument":0,"program":35,"isDrum":false},{"pitch":31,"velocity":64,"startTime":264.21984000000003,"endTime":264.678555,"instrument":0,"program":35,"isDrum":false},{"pitch":31,"velocity":64,"startTime":266.14644300000003,"endTime":266.31616755,"instrument":0,"program":35,"isDrum":false},{"pitch":31,"velocity":45,"startTime":266.421672,"endTime":266.88038700000004,"instrument":0,"program":35,"isDrum":false},{"pitch":35,"velocity":45,"startTime":267.522588,"endTime":268.212954075,"instrument":0,"program":35,"isDrum":false},{"pitch":26,"velocity":45,"startTime":268.0822203,"endTime":268.612036125,"instrument":0,"program":35,"isDrum":false},{"pitch":28,"velocity":20,"startTime":268.623504,"endTime":269.082219,"instrument":0,"program":35,"isDrum":false},{"pitch":28,"velocity":20,"startTime":270.550107,"endTime":270.7060701,"instrument":0,"program":35,"isDrum":false},{"pitch":28,"velocity":10,"startTime":270.825336,"endTime":271.28405100000003,"instrument":0,"program":35,"isDrum":false},{"pitch":36,"velocity":1,"startTime":273.027168,"endTime":273.485883,"instrument":0,"program":35,"isDrum":false},{"pitch":40,"velocity":1,"startTime":274.953771,"endTime":275.2381743,"instrument":0,"program":35,"isDrum":false},{"pitch":71,"velocity":95,"startTime":15.956401274999997,"endTime":16.483923525,"instrument":1,"program":66,"isDrum":false},{"pitch":71,"velocity":90,"startTime":16.51374,"endTime":17.034381525,"instrument":1,"program":66,"isDrum":false},{"pitch":69,"velocity":92,"startTime":17.068785150000004,"endTime":17.454105749999997,"instrument":1,"program":66,"isDrum":false},{"pitch":67,"velocity":86,"startTime":17.614656000000004,"endTime":19.24309425,"instrument":1,"program":66,"isDrum":false},{"pitch":71,"velocity":91,"startTime":20.366946,"endTime":21.4495134,"instrument":1,"program":66,"isDrum":false},{"pitch":69,"velocity":87,"startTime":21.460981275,"endTime":21.8623569,"instrument":1,"program":66,"isDrum":false},{"pitch":71,"velocity":84,"startTime":22.018320000000003,"endTime":23.639877525000003,"instrument":1,"program":66,"isDrum":false},{"pitch":67,"velocity":90,"startTime":24.495381000000002,"endTime":24.610059749999998,"instrument":1,"program":66,"isDrum":false},{"pitch":67,"velocity":84,"startTime":24.763729274999996,"endTime":24.873820875,"instrument":1,"program":66,"isDrum":false},{"pitch":71,"velocity":108,"startTime":25.045839,"endTime":25.577948400000004,"instrument":1,"program":66,"isDrum":false},{"pitch":72,"velocity":87,"startTime":25.584829125000006,"endTime":26.100883500000002,"instrument":1,"program":66,"isDrum":false},{"pitch":67,"velocity":99,"startTime":26.135287125000005,"endTime":26.353176750000003,"instrument":1,"program":66,"isDrum":false},{"pitch":67,"velocity":83,"startTime":26.690332274999996,"endTime":26.839414650000002,"instrument":1,"program":66,"isDrum":false},{"pitch":67,"velocity":76,"startTime":26.965561275,"endTime":27.075652875000003,"instrument":1,"program":66,"isDrum":false},{"pitch":72,"velocity":108,"startTime":27.236203125000003,"endTime":27.7797804,"instrument":1,"program":66,"isDrum":false},{"pitch":71,"velocity":89,"startTime":27.786661125000002,"endTime":28.314183375,"instrument":1,"program":66,"isDrum":false},{"pitch":69,"velocity":83,"startTime":28.341706275,"endTime":28.616935274999996,"instrument":1,"program":66,"isDrum":false},{"pitch":69,"velocity":86,"startTime":28.90363215,"endTime":29.013723750000004,"instrument":1,"program":66,"isDrum":false},{"pitch":67,"velocity":81,"startTime":29.17886115000001,"endTime":29.316475650000008,"instrument":1,"program":66,"isDrum":false},{"pitch":71,"velocity":105,"startTime":29.449503,"endTime":29.981612399999996,"instrument":1,"program":66,"isDrum":false},{"pitch":67,"velocity":72,"startTime":29.993080275000004,"endTime":30.199502024999994,"instrument":1,"program":66,"isDrum":false},{"pitch":67,"velocity":86,"startTime":30.538951125000004,"endTime":32.259132375,"instrument":1,"program":66,"isDrum":false},{"pitch":71,"velocity":95,"startTime":33.571057274999994,"endTime":34.098579525,"instrument":1,"program":66,"isDrum":false},{"pitch":71,"velocity":90,"startTime":34.128396,"endTime":34.649037525000004,"instrument":1,"program":66,"isDrum":false},{"pitch":69,"velocity":92,"startTime":34.68344115,"endTime":35.06876175,"instrument":1,"program":66,"isDrum":false},{"pitch":67,"velocity":86,"startTime":35.229312,"endTime":36.85775025,"instrument":1,"program":66,"isDrum":false},{"pitch":71,"velocity":91,"startTime":37.981602,"endTime":39.064169400000004,"instrument":1,"program":66,"isDrum":false},{"pitch":69,"velocity":87,"startTime":39.07563727500001,"endTime":39.4770129,"instrument":1,"program":66,"isDrum":false},{"pitch":71,"velocity":84,"startTime":39.632976000000006,"endTime":41.25453352499999,"instrument":1,"program":66,"isDrum":false},{"pitch":67,"velocity":90,"startTime":42.110037,"endTime":42.22471575000001,"instrument":1,"program":66,"isDrum":false},{"pitch":67,"velocity":84,"startTime":42.37838527500001,"endTime":42.488476874999996,"instrument":1,"program":66,"isDrum":false},{"pitch":71,"velocity":108,"startTime":42.660495000000004,"endTime":43.1926044,"instrument":1,"program":66,"isDrum":false},{"pitch":72,"velocity":87,"startTime":43.19948512499999,"endTime":43.7155395,"instrument":1,"program":66,"isDrum":false},{"pitch":67,"velocity":99,"startTime":43.749943124999994,"endTime":43.96783275000001,"instrument":1,"program":66,"isDrum":false},{"pitch":67,"velocity":83,"startTime":44.30498827500001,"endTime":44.45407065,"instrument":1,"program":66,"isDrum":false},{"pitch":67,"velocity":76,"startTime":44.580217275,"endTime":44.69030887500001,"instrument":1,"program":66,"isDrum":false},{"pitch":72,"velocity":108,"startTime":44.85085912499999,"endTime":45.3944364,"instrument":1,"program":66,"isDrum":false},{"pitch":71,"velocity":89,"startTime":45.401317125,"endTime":45.928839375,"instrument":1,"program":66,"isDrum":false},{"pitch":69,"velocity":83,"startTime":45.95636227500001,"endTime":46.23159127500001,"instrument":1,"program":66,"isDrum":false},{"pitch":69,"velocity":86,"startTime":46.51828815,"endTime":46.62837975,"instrument":1,"program":66,"isDrum":false},{"pitch":67,"velocity":81,"startTime":46.79351714999999,"endTime":46.93113164999999,"instrument":1,"program":66,"isDrum":false},{"pitch":71,"velocity":105,"startTime":47.064159,"endTime":47.59626840000001,"instrument":1,"program":66,"isDrum":false},{"pitch":67,"velocity":72,"startTime":47.607736275,"endTime":47.814158025000005,"instrument":1,"program":66,"isDrum":false},{"pitch":67,"velocity":86,"startTime":48.153607125,"endTime":49.873788375,"instrument":1,"program":66,"isDrum":false},{"pitch":71,"velocity":95,"startTime":86.415025275,"endTime":86.94254752500001,"instrument":1,"program":66,"isDrum":false},{"pitch":71,"velocity":90,"startTime":86.972364,"endTime":87.493005525,"instrument":1,"program":66,"isDrum":false},{"pitch":69,"velocity":92,"startTime":87.52740914999998,"endTime":87.91272975000001,"instrument":1,"program":66,"isDrum":false},{"pitch":67,"velocity":86,"startTime":88.07328000000001,"endTime":89.70171825,"instrument":1,"program":66,"isDrum":false},{"pitch":71,"velocity":91,"startTime":90.82557,"endTime":91.90813740000002,"instrument":1,"program":66,"isDrum":false},{"pitch":69,"velocity":87,"startTime":91.91960527500001,"endTime":92.3209809,"instrument":1,"program":66,"isDrum":false},{"pitch":71,"velocity":84,"startTime":92.476944,"endTime":94.09850152500002,"instrument":1,"program":66,"isDrum":false},{"pitch":67,"velocity":90,"startTime":94.954005,"endTime":95.06868375000002,"instrument":1,"program":66,"isDrum":false},{"pitch":67,"velocity":84,"startTime":95.22235327500002,"endTime":95.33244487500002,"instrument":1,"program":66,"isDrum":false},{"pitch":71,"velocity":108,"startTime":95.50446300000002,"endTime":96.03657240000001,"instrument":1,"program":66,"isDrum":false},{"pitch":72,"velocity":87,"startTime":96.04345312500001,"endTime":96.5595075,"instrument":1,"program":66,"isDrum":false},{"pitch":67,"velocity":99,"startTime":96.593911125,"endTime":96.81180075,"instrument":1,"program":66,"isDrum":false},{"pitch":67,"velocity":83,"startTime":97.14895627500002,"endTime":97.29803865,"instrument":1,"program":66,"isDrum":false},{"pitch":67,"velocity":76,"startTime":97.42418527500001,"endTime":97.53427687500002,"instrument":1,"program":66,"isDrum":false},{"pitch":72,"velocity":108,"startTime":97.69482712499999,"endTime":98.23840440000001,"instrument":1,"program":66,"isDrum":false},{"pitch":71,"velocity":89,"startTime":98.24528512500001,"endTime":98.77280737500001,"instrument":1,"program":66,"isDrum":false},{"pitch":69,"velocity":83,"startTime":98.80033027500002,"endTime":99.07555927500002,"instrument":1,"program":66,"isDrum":false},{"pitch":69,"velocity":86,"startTime":99.36225615000001,"endTime":99.47234775000001,"instrument":1,"program":66,"isDrum":false},{"pitch":67,"velocity":81,"startTime":99.63748515,"endTime":99.77509965000002,"instrument":1,"program":66,"isDrum":false},{"pitch":71,"velocity":105,"startTime":99.90812700000001,"endTime":100.4402364,"instrument":1,"program":66,"isDrum":false},{"pitch":67,"velocity":72,"startTime":100.45170427500003,"endTime":100.658126025,"instrument":1,"program":66,"isDrum":false},{"pitch":67,"velocity":86,"startTime":100.997575125,"endTime":102.717756375,"instrument":1,"program":66,"isDrum":false},{"pitch":71,"velocity":95,"startTime":104.029681275,"endTime":104.557203525,"instrument":1,"program":66,"isDrum":false},{"pitch":71,"velocity":90,"startTime":104.58702,"endTime":105.107661525,"instrument":1,"program":66,"isDrum":false},{"pitch":69,"velocity":92,"startTime":105.14206515000001,"endTime":105.52738575000001,"instrument":1,"program":66,"isDrum":false},{"pitch":67,"velocity":86,"startTime":105.68793600000001,"endTime":107.31637425,"instrument":1,"program":66,"isDrum":false},{"pitch":71,"velocity":91,"startTime":108.440226,"endTime":109.52279339999998,"instrument":1,"program":66,"isDrum":false},{"pitch":69,"velocity":87,"startTime":109.534261275,"endTime":109.93563689999999,"instrument":1,"program":66,"isDrum":false},{"pitch":71,"velocity":84,"startTime":110.0916,"endTime":111.71315752500001,"instrument":1,"program":66,"isDrum":false},{"pitch":67,"velocity":90,"startTime":112.56866100000002,"endTime":112.68333974999999,"instrument":1,"program":66,"isDrum":false},{"pitch":67,"velocity":84,"startTime":112.83700927500001,"endTime":112.94710087500002,"instrument":1,"program":66,"isDrum":false},{"pitch":71,"velocity":108,"startTime":113.11911900000001,"endTime":113.65122839999998,"instrument":1,"program":66,"isDrum":false},{"pitch":72,"velocity":87,"startTime":113.65810912500001,"endTime":114.17416350000002,"instrument":1,"program":66,"isDrum":false},{"pitch":67,"velocity":99,"startTime":114.20856712500003,"endTime":114.42645675,"instrument":1,"program":66,"isDrum":false},{"pitch":67,"velocity":83,"startTime":114.76361227500001,"endTime":114.91269464999999,"instrument":1,"program":66,"isDrum":false},{"pitch":67,"velocity":76,"startTime":115.03884127500001,"endTime":115.14893287500001,"instrument":1,"program":66,"isDrum":false},{"pitch":72,"velocity":108,"startTime":115.30948312500001,"endTime":115.8530604,"instrument":1,"program":66,"isDrum":false},{"pitch":71,"velocity":89,"startTime":115.859941125,"endTime":116.38746337500001,"instrument":1,"program":66,"isDrum":false},{"pitch":69,"velocity":83,"startTime":116.41498627500002,"endTime":116.69021527500001,"instrument":1,"program":66,"isDrum":false},{"pitch":69,"velocity":86,"startTime":116.97691215,"endTime":117.08700375000001,"instrument":1,"program":66,"isDrum":false},{"pitch":67,"velocity":81,"startTime":117.25214115,"endTime":117.38975565000001,"instrument":1,"program":66,"isDrum":false},{"pitch":71,"velocity":105,"startTime":117.522783,"endTime":118.0548924,"instrument":1,"program":66,"isDrum":false},{"pitch":67,"velocity":72,"startTime":118.06636027500002,"endTime":118.27278202500003,"instrument":1,"program":66,"isDrum":false},{"pitch":67,"velocity":86,"startTime":118.61223112500002,"endTime":120.33241237500002,"instrument":1,"program":66,"isDrum":false},{"pitch":71,"velocity":95,"startTime":174.48830527500002,"endTime":175.015827525,"instrument":1,"program":66,"isDrum":false},{"pitch":71,"velocity":90,"startTime":175.045644,"endTime":175.566285525,"instrument":1,"program":66,"isDrum":false},{"pitch":69,"velocity":92,"startTime":175.60068915,"endTime":175.98600975,"instrument":1,"program":66,"isDrum":false},{"pitch":67,"velocity":86,"startTime":176.14656000000002,"endTime":177.77499825,"instrument":1,"program":66,"isDrum":false},{"pitch":71,"velocity":91,"startTime":178.89885,"endTime":179.9814174,"instrument":1,"program":66,"isDrum":false},{"pitch":69,"velocity":87,"startTime":179.99288527500002,"endTime":180.3942609,"instrument":1,"program":66,"isDrum":false},{"pitch":71,"velocity":84,"startTime":180.55022400000001,"endTime":182.171781525,"instrument":1,"program":66,"isDrum":false},{"pitch":67,"velocity":90,"startTime":183.027285,"endTime":183.14196375,"instrument":1,"program":66,"isDrum":false},{"pitch":67,"velocity":84,"startTime":183.295633275,"endTime":183.405724875,"instrument":1,"program":66,"isDrum":false},{"pitch":71,"velocity":108,"startTime":183.577743,"endTime":184.1098524,"instrument":1,"program":66,"isDrum":false},{"pitch":72,"velocity":87,"startTime":184.11673312500002,"endTime":184.6327875,"instrument":1,"program":66,"isDrum":false},{"pitch":67,"velocity":99,"startTime":184.66719112500002,"endTime":184.88508075000001,"instrument":1,"program":66,"isDrum":false},{"pitch":67,"velocity":83,"startTime":185.222236275,"endTime":185.37131865,"instrument":1,"program":66,"isDrum":false},{"pitch":67,"velocity":76,"startTime":185.49746527500002,"endTime":185.607556875,"instrument":1,"program":66,"isDrum":false},{"pitch":72,"velocity":108,"startTime":185.76810712500003,"endTime":186.3116844,"instrument":1,"program":66,"isDrum":false},{"pitch":71,"velocity":89,"startTime":186.31856512500002,"endTime":186.846087375,"instrument":1,"program":66,"isDrum":false},{"pitch":69,"velocity":83,"startTime":186.873610275,"endTime":187.148839275,"instrument":1,"program":66,"isDrum":false},{"pitch":69,"velocity":86,"startTime":187.43553615,"endTime":187.54562775,"instrument":1,"program":66,"isDrum":false},{"pitch":67,"velocity":81,"startTime":187.71076515000001,"endTime":187.84837965,"instrument":1,"program":66,"isDrum":false},{"pitch":71,"velocity":105,"startTime":187.98140700000002,"endTime":188.5135164,"instrument":1,"program":66,"isDrum":false},{"pitch":67,"velocity":72,"startTime":188.524984275,"endTime":188.731406025,"instrument":1,"program":66,"isDrum":false},{"pitch":67,"velocity":86,"startTime":189.070855125,"endTime":190.791036375,"instrument":1,"program":66,"isDrum":false},{"pitch":71,"velocity":95,"startTime":192.102961275,"endTime":192.63048352500002,"instrument":1,"program":66,"isDrum":false},{"pitch":71,"velocity":90,"startTime":192.6603,"endTime":193.180941525,"instrument":1,"program":66,"isDrum":false},{"pitch":69,"velocity":92,"startTime":193.21534515,"endTime":193.60066575,"instrument":1,"program":66,"isDrum":false},{"pitch":67,"velocity":86,"startTime":193.76121600000002,"endTime":195.38965425,"instrument":1,"program":66,"isDrum":false},{"pitch":71,"velocity":91,"startTime":196.513506,"endTime":197.5960734,"instrument":1,"program":66,"isDrum":false},{"pitch":69,"velocity":87,"startTime":197.60754127500002,"endTime":198.0089169,"instrument":1,"program":66,"isDrum":false},{"pitch":71,"velocity":84,"startTime":198.16488,"endTime":199.786437525,"instrument":1,"program":66,"isDrum":false},{"pitch":67,"velocity":90,"startTime":200.641941,"endTime":200.75661975,"instrument":1,"program":66,"isDrum":false},{"pitch":67,"velocity":84,"startTime":200.91028927500003,"endTime":201.020380875,"instrument":1,"program":66,"isDrum":false},{"pitch":71,"velocity":108,"startTime":201.192399,"endTime":201.7245084,"instrument":1,"program":66,"isDrum":false},{"pitch":72,"velocity":87,"startTime":201.73138912500002,"endTime":202.24744350000003,"instrument":1,"program":66,"isDrum":false},{"pitch":67,"velocity":99,"startTime":202.281847125,"endTime":202.49973675,"instrument":1,"program":66,"isDrum":false},{"pitch":67,"velocity":83,"startTime":202.83689227500003,"endTime":202.98597465,"instrument":1,"program":66,"isDrum":false},{"pitch":67,"velocity":76,"startTime":203.11212127500002,"endTime":203.222212875,"instrument":1,"program":66,"isDrum":false},{"pitch":72,"velocity":108,"startTime":203.38276312500003,"endTime":203.9263404,"instrument":1,"program":66,"isDrum":false},{"pitch":71,"velocity":89,"startTime":203.93322112500002,"endTime":204.46074337500002,"instrument":1,"program":66,"isDrum":false},{"pitch":69,"velocity":83,"startTime":204.488266275,"endTime":204.76349527500003,"instrument":1,"program":66,"isDrum":false},{"pitch":69,"velocity":86,"startTime":205.05019215000002,"endTime":205.16028375,"instrument":1,"program":66,"isDrum":false},{"pitch":67,"velocity":81,"startTime":205.32542115,"endTime":205.46303565,"instrument":1,"program":66,"isDrum":false},{"pitch":71,"velocity":105,"startTime":205.59606300000002,"endTime":206.12817239999998,"instrument":1,"program":66,"isDrum":false},{"pitch":67,"velocity":72,"startTime":206.139640275,"endTime":206.346062025,"instrument":1,"program":66,"isDrum":false},{"pitch":67,"velocity":86,"startTime":206.685511125,"endTime":208.40569237500003,"instrument":1,"program":66,"isDrum":false},{"pitch":71,"velocity":95,"startTime":209.717617275,"endTime":210.245139525,"instrument":1,"program":66,"isDrum":false},{"pitch":71,"velocity":90,"startTime":210.274956,"endTime":210.795597525,"instrument":1,"program":66,"isDrum":false},{"pitch":69,"velocity":92,"startTime":210.83000115000002,"endTime":211.21532175,"instrument":1,"program":66,"isDrum":false},{"pitch":67,"velocity":86,"startTime":211.37587200000002,"endTime":213.00431025,"instrument":1,"program":66,"isDrum":false},{"pitch":71,"velocity":91,"startTime":214.128162,"endTime":215.2107294,"instrument":1,"program":66,"isDrum":false},{"pitch":69,"velocity":87,"startTime":215.222197275,"endTime":215.6235729,"instrument":1,"program":66,"isDrum":false},{"pitch":71,"velocity":84,"startTime":215.779536,"endTime":217.401093525,"instrument":1,"program":66,"isDrum":false},{"pitch":67,"velocity":90,"startTime":218.256597,"endTime":218.37127575,"instrument":1,"program":66,"isDrum":false},{"pitch":67,"velocity":84,"startTime":218.52494527500002,"endTime":218.635036875,"instrument":1,"program":66,"isDrum":false},{"pitch":71,"velocity":108,"startTime":218.80705500000002,"endTime":219.3391644,"instrument":1,"program":66,"isDrum":false},{"pitch":72,"velocity":87,"startTime":219.34604512500002,"endTime":219.86209950000003,"instrument":1,"program":66,"isDrum":false},{"pitch":67,"velocity":99,"startTime":219.896503125,"endTime":220.11439275,"instrument":1,"program":66,"isDrum":false},{"pitch":67,"velocity":83,"startTime":220.45154827500002,"endTime":220.60063065,"instrument":1,"program":66,"isDrum":false},{"pitch":67,"velocity":76,"startTime":220.72677727500002,"endTime":220.836868875,"instrument":1,"program":66,"isDrum":false},{"pitch":72,"velocity":108,"startTime":220.99741912500002,"endTime":221.54099639999998,"instrument":1,"program":66,"isDrum":false},{"pitch":71,"velocity":89,"startTime":221.547877125,"endTime":222.07539937500002,"instrument":1,"program":66,"isDrum":false},{"pitch":69,"velocity":83,"startTime":222.10292227500003,"endTime":222.378151275,"instrument":1,"program":66,"isDrum":false},{"pitch":69,"velocity":86,"startTime":222.66484815,"endTime":222.77493975,"instrument":1,"program":66,"isDrum":false},{"pitch":67,"velocity":81,"startTime":222.94007714999998,"endTime":223.07769165000002,"instrument":1,"program":66,"isDrum":false},{"pitch":71,"velocity":105,"startTime":223.21071899999998,"endTime":223.7428284,"instrument":1,"program":66,"isDrum":false},{"pitch":67,"velocity":72,"startTime":223.754296275,"endTime":223.960718025,"instrument":1,"program":66,"isDrum":false},{"pitch":67,"velocity":86,"startTime":224.30016712500003,"endTime":226.02034837500003,"instrument":1,"program":66,"isDrum":false},{"pitch":71,"velocity":95,"startTime":227.33227327500003,"endTime":227.85979552499998,"instrument":1,"program":66,"isDrum":false},{"pitch":71,"velocity":90,"startTime":227.889612,"endTime":228.41025352500003,"instrument":1,"program":66,"isDrum":false},{"pitch":69,"velocity":92,"startTime":228.44465715,"endTime":228.82997775,"instrument":1,"program":66,"isDrum":false},{"pitch":67,"velocity":86,"startTime":228.99052799999998,"endTime":230.61896624999997,"instrument":1,"program":66,"isDrum":false},{"pitch":71,"velocity":91,"startTime":231.742818,"endTime":232.82538540000002,"instrument":1,"program":66,"isDrum":false},{"pitch":69,"velocity":87,"startTime":232.836853275,"endTime":233.23822889999997,"instrument":1,"program":66,"isDrum":false},{"pitch":71,"velocity":84,"startTime":233.39419200000003,"endTime":235.015749525,"instrument":1,"program":66,"isDrum":false},{"pitch":67,"velocity":90,"startTime":235.87125300000002,"endTime":235.98593175000002,"instrument":1,"program":66,"isDrum":false},{"pitch":67,"velocity":84,"startTime":236.13960127500002,"endTime":236.249692875,"instrument":1,"program":66,"isDrum":false},{"pitch":71,"velocity":108,"startTime":236.42171100000002,"endTime":236.95382039999998,"instrument":1,"program":66,"isDrum":false},{"pitch":72,"velocity":87,"startTime":236.960701125,"endTime":237.47675550000002,"instrument":1,"program":66,"isDrum":false},{"pitch":67,"velocity":99,"startTime":237.511159125,"endTime":237.72904875,"instrument":1,"program":66,"isDrum":false},{"pitch":67,"velocity":83,"startTime":238.06620427500002,"endTime":238.21528665,"instrument":1,"program":66,"isDrum":false},{"pitch":67,"velocity":76,"startTime":238.34143327500004,"endTime":238.45152487500002,"instrument":1,"program":66,"isDrum":false},{"pitch":72,"velocity":108,"startTime":238.61207512500005,"endTime":239.1556524,"instrument":1,"program":66,"isDrum":false},{"pitch":71,"velocity":89,"startTime":239.16253312500004,"endTime":239.690055375,"instrument":1,"program":66,"isDrum":false},{"pitch":69,"velocity":83,"startTime":239.717578275,"endTime":239.99280727500002,"instrument":1,"program":66,"isDrum":false},{"pitch":69,"velocity":86,"startTime":240.27950414999998,"endTime":240.38959575,"instrument":1,"program":66,"isDrum":false},{"pitch":67,"velocity":81,"startTime":240.55473315,"endTime":240.69234765,"instrument":1,"program":66,"isDrum":false},{"pitch":71,"velocity":105,"startTime":240.825375,"endTime":241.35748439999998,"instrument":1,"program":66,"isDrum":false},{"pitch":67,"velocity":72,"startTime":241.36895227500003,"endTime":241.57537402500003,"instrument":1,"program":66,"isDrum":false},{"pitch":67,"velocity":86,"startTime":241.914823125,"endTime":243.635004375,"instrument":1,"program":66,"isDrum":false},{"pitch":71,"velocity":95,"startTime":244.946929275,"endTime":245.474451525,"instrument":1,"program":66,"isDrum":false},{"pitch":71,"velocity":90,"startTime":245.50426800000002,"endTime":246.024909525,"instrument":1,"program":66,"isDrum":false},{"pitch":69,"velocity":92,"startTime":246.05931314999998,"endTime":246.44463374999998,"instrument":1,"program":66,"isDrum":false},{"pitch":67,"velocity":86,"startTime":246.605184,"endTime":248.23362225000005,"instrument":1,"program":66,"isDrum":false},{"pitch":71,"velocity":91,"startTime":249.35747400000002,"endTime":250.44004140000004,"instrument":1,"program":66,"isDrum":false},{"pitch":69,"velocity":87,"startTime":250.45150927499998,"endTime":250.85288490000005,"instrument":1,"program":66,"isDrum":false},{"pitch":71,"velocity":84,"startTime":251.008848,"endTime":252.63040552500001,"instrument":1,"program":66,"isDrum":false},{"pitch":67,"velocity":90,"startTime":253.485909,"endTime":253.60058775000005,"instrument":1,"program":66,"isDrum":false},{"pitch":67,"velocity":84,"startTime":253.754257275,"endTime":253.86434887500002,"instrument":1,"program":66,"isDrum":false},{"pitch":71,"velocity":108,"startTime":254.03636699999998,"endTime":254.5684764,"instrument":1,"program":66,"isDrum":false},{"pitch":72,"velocity":87,"startTime":254.57535712499998,"endTime":255.0914115,"instrument":1,"program":66,"isDrum":false},{"pitch":67,"velocity":99,"startTime":255.12581512499997,"endTime":255.34370475000003,"instrument":1,"program":66,"isDrum":false},{"pitch":67,"velocity":83,"startTime":255.680860275,"endTime":255.82994265000002,"instrument":1,"program":66,"isDrum":false},{"pitch":67,"velocity":76,"startTime":255.956089275,"endTime":256.066180875,"instrument":1,"program":66,"isDrum":false},{"pitch":72,"velocity":108,"startTime":256.226731125,"endTime":256.77030840000003,"instrument":1,"program":66,"isDrum":false},{"pitch":71,"velocity":89,"startTime":256.777189125,"endTime":257.304711375,"instrument":1,"program":66,"isDrum":false},{"pitch":69,"velocity":83,"startTime":257.33223427499996,"endTime":257.607463275,"instrument":1,"program":66,"isDrum":false},{"pitch":69,"velocity":86,"startTime":257.89416015,"endTime":258.00425175000004,"instrument":1,"program":66,"isDrum":false},{"pitch":67,"velocity":81,"startTime":258.16938915000003,"endTime":258.30700365,"instrument":1,"program":66,"isDrum":false},{"pitch":71,"velocity":105,"startTime":258.44003100000003,"endTime":258.9721404,"instrument":1,"program":66,"isDrum":false},{"pitch":67,"velocity":72,"startTime":258.983608275,"endTime":259.190030025,"instrument":1,"program":66,"isDrum":false},{"pitch":67,"velocity":86,"startTime":259.52947912499997,"endTime":261.24966037499996,"instrument":1,"program":66,"isDrum":false},{"pitch":71,"velocity":76,"startTime":262.56158527499997,"endTime":263.08910752500003,"instrument":1,"program":66,"isDrum":false},{"pitch":71,"velocity":72,"startTime":263.118924,"endTime":263.639565525,"instrument":1,"program":66,"isDrum":false},{"pitch":69,"velocity":74,"startTime":263.67396915,"endTime":264.05928975,"instrument":1,"program":66,"isDrum":false},{"pitch":67,"velocity":56,"startTime":264.21984000000003,"endTime":265.84827825,"instrument":1,"program":66,"isDrum":false},{"pitch":71,"velocity":41,"startTime":266.97213,"endTime":268.0546974,"instrument":1,"program":66,"isDrum":false},{"pitch":69,"velocity":39,"startTime":268.066165275,"endTime":268.4675409,"instrument":1,"program":66,"isDrum":false},{"pitch":71,"velocity":17,"startTime":268.623504,"endTime":270.245061525,"instrument":1,"program":66,"isDrum":false},{"pitch":67,"velocity":9,"startTime":271.100565,"endTime":271.21524375,"instrument":1,"program":66,"isDrum":false},{"pitch":67,"velocity":8,"startTime":271.368913275,"endTime":271.479004875,"instrument":1,"program":66,"isDrum":false},{"pitch":71,"velocity":11,"startTime":271.651023,"endTime":272.18313240000003,"instrument":1,"program":66,"isDrum":false},{"pitch":72,"velocity":9,"startTime":272.190013125,"endTime":272.70606749999996,"instrument":1,"program":66,"isDrum":false},{"pitch":67,"velocity":10,"startTime":272.740471125,"endTime":272.95836075,"instrument":1,"program":66,"isDrum":false},{"pitch":67,"velocity":1,"startTime":273.295516275,"endTime":273.44459865,"instrument":1,"program":66,"isDrum":false},{"pitch":67,"velocity":1,"startTime":273.570745275,"endTime":273.680836875,"instrument":1,"program":66,"isDrum":false},{"pitch":72,"velocity":1,"startTime":273.841387125,"endTime":274.3849644,"instrument":1,"program":66,"isDrum":false},{"pitch":71,"velocity":1,"startTime":274.391845125,"endTime":274.91936737500004,"instrument":1,"program":66,"isDrum":false},{"pitch":69,"velocity":1,"startTime":274.946890275,"endTime":275.222119275,"instrument":1,"program":66,"isDrum":false},{"pitch":43,"velocity":103,"startTime":0.0045871500000060905,"endTime":0.550457999999999,"instrument":2,"program":28,"isDrum":false},{"pitch":50,"velocity":95,"startTime":0.27522900000000305,"endTime":0.749999025000001,"instrument":2,"program":28,"isDrum":false},{"pitch":57,"velocity":108,"startTime":0.543577274999997,"endTime":1.307337750000002,"instrument":2,"program":28,"isDrum":false},{"pitch":43,"velocity":79,"startTime":0.550457999999999,"endTime":1.020640875000005,"instrument":2,"program":28,"isDrum":false},{"pitch":50,"velocity":78,"startTime":0.8256870000000021,"endTime":1.575686024999996,"instrument":2,"program":28,"isDrum":false},{"pitch":43,"velocity":79,"startTime":1.089448125000004,"endTime":2.172015525000006,"instrument":2,"program":28,"isDrum":false},{"pitch":59,"velocity":97,"startTime":1.100915999999998,"endTime":2.286694275000002,"instrument":2,"program":28,"isDrum":false},{"pitch":57,"velocity":84,"startTime":1.369264274999999,"endTime":1.857795750000001,"instrument":2,"program":28,"isDrum":false},{"pitch":50,"velocity":76,"startTime":1.651373999999997,"endTime":2.431189500000002,"instrument":2,"program":28,"isDrum":false},{"pitch":57,"velocity":72,"startTime":1.919722274999998,"endTime":2.683482750000003,"instrument":2,"program":28,"isDrum":false},{"pitch":43,"velocity":75,"startTime":2.194951275000001,"endTime":2.470180274999997,"instrument":2,"program":28,"isDrum":false},{"pitch":50,"velocity":94,"startTime":2.477060999999999,"endTime":2.947243875000005,"instrument":2,"program":28,"isDrum":false},{"pitch":43,"velocity":76,"startTime":2.481648150000005,"endTime":2.699537775000003,"instrument":2,"program":28,"isDrum":false},{"pitch":57,"velocity":93,"startTime":2.745409275,"endTime":3.497701875000004,"instrument":2,"program":28,"isDrum":false},{"pitch":43,"velocity":82,"startTime":2.756877150000001,"endTime":3.222472875000001,"instrument":2,"program":28,"isDrum":false},{"pitch":50,"velocity":74,"startTime":3.032106150000004,"endTime":3.777518024999999,"instrument":2,"program":28,"isDrum":false},{"pitch":43,"velocity":79,"startTime":3.295867274999999,"endTime":4.305040275000003,"instrument":2,"program":28,"isDrum":false},{"pitch":59,"velocity":84,"startTime":3.302748000000001,"endTime":4.477058400000004,"instrument":2,"program":28,"isDrum":false},{"pitch":57,"velocity":72,"startTime":3.571096274999995,"endTime":4.071095624999998,"instrument":2,"program":28,"isDrum":false},{"pitch":50,"velocity":83,"startTime":3.853206,"endTime":4.465590524999996,"instrument":2,"program":28,"isDrum":false},{"pitch":57,"velocity":80,"startTime":4.133022150000002,"endTime":4.568801399999998,"instrument":2,"program":28,"isDrum":false},{"pitch":40,"velocity":81,"startTime":4.392196125000005,"endTime":4.683480150000001,"instrument":2,"program":28,"isDrum":false},{"pitch":47,"velocity":96,"startTime":4.678893000000002,"endTime":5.153663025,"instrument":2,"program":28,"isDrum":false},{"pitch":40,"velocity":87,"startTime":4.683480150000001,"endTime":4.901369774999999,"instrument":2,"program":28,"isDrum":false},{"pitch":54,"velocity":92,"startTime":4.947241274999996,"endTime":5.451827774999998,"instrument":2,"program":28,"isDrum":false},{"pitch":40,"velocity":76,"startTime":4.954121999999998,"endTime":5.3944884,"instrument":2,"program":28,"isDrum":false},{"pitch":47,"velocity":83,"startTime":5.217883125,"endTime":5.516047874999998,"instrument":2,"program":28,"isDrum":false},{"pitch":55,"velocity":94,"startTime":5.504579999999997,"endTime":7.665127649999995,"instrument":2,"program":28,"isDrum":false},{"pitch":40,"velocity":81,"startTime":5.504579999999997,"endTime":6.564211649999997,"instrument":2,"program":28,"isDrum":false},{"pitch":54,"velocity":84,"startTime":5.779809,"endTime":6.048157275000001,"instrument":2,"program":28,"isDrum":false},{"pitch":47,"velocity":84,"startTime":6.048157275000001,"endTime":6.834853500000001,"instrument":2,"program":28,"isDrum":false},{"pitch":54,"velocity":85,"startTime":6.323386274999997,"endTime":6.759165525,"instrument":2,"program":28,"isDrum":false},{"pitch":40,"velocity":82,"startTime":6.605496000000002,"endTime":7.126137525000004,"instrument":2,"program":28,"isDrum":false},{"pitch":47,"velocity":93,"startTime":6.885312150000004,"endTime":7.3853115,"instrument":2,"program":28,"isDrum":false},{"pitch":54,"velocity":100,"startTime":7.155954000000001,"endTime":7.928888775000004,"instrument":2,"program":28,"isDrum":false},{"pitch":40,"velocity":83,"startTime":7.16054115,"endTime":7.3853115,"instrument":2,"program":28,"isDrum":false},{"pitch":47,"velocity":97,"startTime":7.431182999999997,"endTime":8.176594875,"instrument":2,"program":28,"isDrum":false},{"pitch":40,"velocity":81,"startTime":7.706412,"endTime":8.061916124999996,"instrument":2,"program":28,"isDrum":false},{"pitch":55,"velocity":102,"startTime":7.710999150000006,"endTime":8.960997525000003,"instrument":2,"program":28,"isDrum":false},{"pitch":54,"velocity":71,"startTime":7.981641000000003,"endTime":8.394484499999997,"instrument":2,"program":28,"isDrum":false},{"pitch":47,"velocity":81,"startTime":8.25687,"endTime":8.784392249999996,"instrument":2,"program":28,"isDrum":false},{"pitch":54,"velocity":82,"startTime":8.532099000000002,"endTime":8.800447274999996,"instrument":2,"program":28,"isDrum":false},{"pitch":48,"velocity":79,"startTime":8.811915150000004,"endTime":8.99540115,"instrument":2,"program":28,"isDrum":false},{"pitch":55,"velocity":104,"startTime":9.075676275,"endTime":9.5687949,"instrument":2,"program":28,"isDrum":false},{"pitch":48,"velocity":91,"startTime":9.082557000000001,"endTime":9.2476944,"instrument":2,"program":28,"isDrum":false},{"pitch":62,"velocity":103,"startTime":9.346318125000003,"endTime":10.394481900000002,"instrument":2,"program":28,"isDrum":false},{"pitch":48,"velocity":89,"startTime":9.357785999999997,"endTime":9.832556024999995,"instrument":2,"program":28,"isDrum":false},{"pitch":55,"velocity":93,"startTime":9.637602150000006,"endTime":10.130720775,"instrument":2,"program":28,"isDrum":false},{"pitch":48,"velocity":92,"startTime":9.901363275000001,"endTime":10.451821275,"instrument":2,"program":28,"isDrum":false},{"pitch":60,"velocity":100,"startTime":9.908244000000003,"endTime":10.871545500000003,"instrument":2,"program":28,"isDrum":false},{"pitch":55,"velocity":85,"startTime":10.176592274999997,"endTime":10.69264665,"instrument":2,"program":28,"isDrum":false},{"pitch":48,"velocity":94,"startTime":10.458702000000002,"endTime":10.887600525000003,"instrument":2,"program":28,"isDrum":false},{"pitch":55,"velocity":72,"startTime":10.727050274999996,"endTime":11.208701024999996,"instrument":2,"program":28,"isDrum":false},{"pitch":50,"velocity":100,"startTime":11.01374715,"endTime":11.277508274999995,"instrument":2,"program":28,"isDrum":false},{"pitch":50,"velocity":108,"startTime":11.284388999999997,"endTime":11.422003500000002,"instrument":2,"program":28,"isDrum":false},{"pitch":57,"velocity":89,"startTime":11.284388999999997,"endTime":11.605489499999997,"instrument":2,"program":28,"isDrum":false},{"pitch":64,"velocity":103,"startTime":11.541269400000004,"endTime":12.561910275000002,"instrument":2,"program":28,"isDrum":false},{"pitch":50,"velocity":88,"startTime":11.548150125,"endTime":11.743103999999995,"instrument":2,"program":28,"isDrum":false},{"pitch":57,"velocity":85,"startTime":11.827966275000001,"endTime":12.350901375,"instrument":2,"program":28,"isDrum":false},{"pitch":62,"velocity":101,"startTime":12.098608125000005,"endTime":13.107781125000002,"instrument":2,"program":28,"isDrum":false},{"pitch":50,"velocity":91,"startTime":12.103195274999997,"endTime":12.607781775,"instrument":2,"program":28,"isDrum":false},{"pitch":57,"velocity":100,"startTime":12.373837125000001,"endTime":12.855487875000001,"instrument":2,"program":28,"isDrum":false},{"pitch":50,"velocity":94,"startTime":12.653653274999996,"endTime":13.181175525,"instrument":2,"program":28,"isDrum":false},{"pitch":57,"velocity":81,"startTime":12.924295125,"endTime":13.222459874999998,"instrument":2,"program":28,"isDrum":false},{"pitch":50,"velocity":72,"startTime":13.192643400000001,"endTime":13.428881624999995,"instrument":2,"program":28,"isDrum":false},{"pitch":43,"velocity":72,"startTime":13.210991999999997,"endTime":13.410533025,"instrument":2,"program":28,"isDrum":false},{"pitch":50,"velocity":101,"startTime":13.479340274999998,"endTime":13.960991024999998,"instrument":2,"program":28,"isDrum":false},{"pitch":43,"velocity":86,"startTime":13.490808150000007,"endTime":13.704110624999998,"instrument":2,"program":28,"isDrum":false},{"pitch":57,"velocity":100,"startTime":13.754569275000001,"endTime":14.511449024999997,"instrument":2,"program":28,"isDrum":false},{"pitch":43,"velocity":86,"startTime":13.766037150000002,"endTime":14.208697125,"instrument":2,"program":28,"isDrum":false},{"pitch":50,"velocity":88,"startTime":14.029798274999997,"endTime":14.752274399999997,"instrument":2,"program":28,"isDrum":false},{"pitch":43,"velocity":82,"startTime":14.300440125000002,"endTime":15.383007525000004,"instrument":2,"program":28,"isDrum":false},{"pitch":59,"velocity":103,"startTime":14.305027275,"endTime":15.463282650000004,"instrument":2,"program":28,"isDrum":false},{"pitch":57,"velocity":89,"startTime":14.568788400000003,"endTime":15.045851999999996,"instrument":2,"program":28,"isDrum":false},{"pitch":50,"velocity":99,"startTime":14.862366000000002,"endTime":15.612365024999995,"instrument":2,"program":28,"isDrum":false},{"pitch":57,"velocity":72,"startTime":15.130714274999995,"endTime":15.905942624999994,"instrument":2,"program":28,"isDrum":false},{"pitch":43,"velocity":83,"startTime":15.405943274999998,"endTime":15.561906375,"instrument":2,"program":28,"isDrum":false},{"pitch":43,"velocity":90,"startTime":15.681172275000002,"endTime":15.841722525000002,"instrument":2,"program":28,"isDrum":false},{"pitch":50,"velocity":97,"startTime":15.688053000000004,"endTime":16.094015774999995,"instrument":2,"program":28,"isDrum":false},{"pitch":57,"velocity":103,"startTime":15.956401274999997,"endTime":16.70181315,"instrument":2,"program":28,"isDrum":false},{"pitch":43,"velocity":86,"startTime":15.967869150000006,"endTime":16.421996999999998,"instrument":2,"program":28,"isDrum":false},{"pitch":50,"velocity":89,"startTime":16.238511000000003,"endTime":16.988510024999997,"instrument":2,"program":28,"isDrum":false},{"pitch":59,"velocity":103,"startTime":16.502272125000005,"endTime":17.642178899999998,"instrument":2,"program":28,"isDrum":false},{"pitch":43,"velocity":75,"startTime":16.51374,"endTime":17.458692900000003,"instrument":2,"program":28,"isDrum":false},{"pitch":57,"velocity":89,"startTime":16.782088275,"endTime":17.263739025,"instrument":2,"program":28,"isDrum":false},{"pitch":50,"velocity":100,"startTime":17.068785150000004,"endTime":17.775206250000004,"instrument":2,"program":28,"isDrum":false},{"pitch":57,"velocity":72,"startTime":17.344014150000007,"endTime":18.119242500000006,"instrument":2,"program":28,"isDrum":false},{"pitch":43,"velocity":103,"startTime":17.619243150000003,"endTime":18.165114000000003,"instrument":2,"program":28,"isDrum":false},{"pitch":50,"velocity":95,"startTime":17.889885,"endTime":18.364655024999998,"instrument":2,"program":28,"isDrum":false},{"pitch":57,"velocity":108,"startTime":18.158233275,"endTime":18.92199375,"instrument":2,"program":28,"isDrum":false},{"pitch":43,"velocity":79,"startTime":18.165114000000003,"endTime":18.635296875,"instrument":2,"program":28,"isDrum":false},{"pitch":50,"velocity":78,"startTime":18.440343,"endTime":19.190342025,"instrument":2,"program":28,"isDrum":false},{"pitch":43,"velocity":79,"startTime":18.704104125,"endTime":19.786671525000003,"instrument":2,"program":28,"isDrum":false},{"pitch":59,"velocity":97,"startTime":18.715572,"endTime":19.901350275,"instrument":2,"program":28,"isDrum":false},{"pitch":57,"velocity":84,"startTime":18.983920274999996,"endTime":19.472451749999998,"instrument":2,"program":28,"isDrum":false},{"pitch":50,"velocity":76,"startTime":19.26603,"endTime":20.045845500000006,"instrument":2,"program":28,"isDrum":false},{"pitch":57,"velocity":72,"startTime":19.534378275,"endTime":20.29813875,"instrument":2,"program":28,"isDrum":false},{"pitch":43,"velocity":75,"startTime":19.809607274999998,"endTime":20.084836275,"instrument":2,"program":28,"isDrum":false},{"pitch":50,"velocity":94,"startTime":20.091717000000003,"endTime":20.561899875,"instrument":2,"program":28,"isDrum":false},{"pitch":43,"velocity":76,"startTime":20.09630415,"endTime":20.314193775,"instrument":2,"program":28,"isDrum":false},{"pitch":57,"velocity":93,"startTime":20.360065274999997,"endTime":21.112357875,"instrument":2,"program":28,"isDrum":false},{"pitch":43,"velocity":82,"startTime":20.371533150000005,"endTime":20.837128875000005,"instrument":2,"program":28,"isDrum":false},{"pitch":50,"velocity":74,"startTime":20.64676215,"endTime":21.392174024999996,"instrument":2,"program":28,"isDrum":false},{"pitch":43,"velocity":79,"startTime":20.910523274999996,"endTime":21.919696275000007,"instrument":2,"program":28,"isDrum":false},{"pitch":59,"velocity":84,"startTime":20.917403999999998,"endTime":22.0917144,"instrument":2,"program":28,"isDrum":false},{"pitch":57,"velocity":72,"startTime":21.185752275,"endTime":21.685751624999995,"instrument":2,"program":28,"isDrum":false},{"pitch":50,"velocity":83,"startTime":21.467861999999997,"endTime":22.080246525,"instrument":2,"program":28,"isDrum":false},{"pitch":57,"velocity":80,"startTime":21.747678150000006,"endTime":22.1834574,"instrument":2,"program":28,"isDrum":false},{"pitch":40,"velocity":81,"startTime":22.006852125,"endTime":22.298136150000005,"instrument":2,"program":28,"isDrum":false},{"pitch":47,"velocity":96,"startTime":22.293549,"endTime":22.768319024999997,"instrument":2,"program":28,"isDrum":false},{"pitch":40,"velocity":87,"startTime":22.298136150000005,"endTime":22.516025775000003,"instrument":2,"program":28,"isDrum":false},{"pitch":54,"velocity":92,"startTime":22.561897275,"endTime":23.066483775000002,"instrument":2,"program":28,"isDrum":false},{"pitch":40,"velocity":76,"startTime":22.568778000000002,"endTime":23.009144399999997,"instrument":2,"program":28,"isDrum":false},{"pitch":47,"velocity":83,"startTime":22.832539125000004,"endTime":23.130703874999995,"instrument":2,"program":28,"isDrum":false},{"pitch":55,"velocity":94,"startTime":23.119236,"endTime":25.27978365,"instrument":2,"program":28,"isDrum":false},{"pitch":40,"velocity":81,"startTime":23.119236,"endTime":24.17886765,"instrument":2,"program":28,"isDrum":false},{"pitch":54,"velocity":84,"startTime":23.394464999999997,"endTime":23.662813274999998,"instrument":2,"program":28,"isDrum":false},{"pitch":47,"velocity":84,"startTime":23.662813274999998,"endTime":24.449509500000005,"instrument":2,"program":28,"isDrum":false},{"pitch":54,"velocity":85,"startTime":23.938042275,"endTime":24.373821525000004,"instrument":2,"program":28,"isDrum":false},{"pitch":40,"velocity":82,"startTime":24.220152,"endTime":24.740793525,"instrument":2,"program":28,"isDrum":false},{"pitch":47,"velocity":93,"startTime":24.49996815,"endTime":24.999967500000004,"instrument":2,"program":28,"isDrum":false},{"pitch":54,"velocity":100,"startTime":24.770609999999998,"endTime":25.543544775,"instrument":2,"program":28,"isDrum":false},{"pitch":40,"velocity":83,"startTime":24.775197150000004,"endTime":24.999967500000004,"instrument":2,"program":28,"isDrum":false},{"pitch":47,"velocity":97,"startTime":25.045839,"endTime":25.791250875000003,"instrument":2,"program":28,"isDrum":false},{"pitch":40,"velocity":81,"startTime":25.321067999999997,"endTime":25.676572125,"instrument":2,"program":28,"isDrum":false},{"pitch":55,"velocity":102,"startTime":25.325655150000003,"endTime":26.575653525,"instrument":2,"program":28,"isDrum":false},{"pitch":54,"velocity":71,"startTime":25.596297,"endTime":26.0091405,"instrument":2,"program":28,"isDrum":false},{"pitch":47,"velocity":81,"startTime":25.871526000000003,"endTime":26.39904825,"instrument":2,"program":28,"isDrum":false},{"pitch":54,"velocity":82,"startTime":26.146755,"endTime":26.415103275,"instrument":2,"program":28,"isDrum":false},{"pitch":48,"velocity":79,"startTime":26.42657115,"endTime":26.610057150000003,"instrument":2,"program":28,"isDrum":false},{"pitch":55,"velocity":104,"startTime":26.690332274999996,"endTime":27.183450900000004,"instrument":2,"program":28,"isDrum":false},{"pitch":48,"velocity":91,"startTime":26.697212999999998,"endTime":26.862350399999997,"instrument":2,"program":28,"isDrum":false},{"pitch":62,"velocity":103,"startTime":26.960974125,"endTime":28.009137900000006,"instrument":2,"program":28,"isDrum":false},{"pitch":48,"velocity":89,"startTime":26.972442,"endTime":27.447212025,"instrument":2,"program":28,"isDrum":false},{"pitch":55,"velocity":93,"startTime":27.252258150000003,"endTime":27.745376775000004,"instrument":2,"program":28,"isDrum":false},{"pitch":48,"velocity":92,"startTime":27.516019274999998,"endTime":28.066477274999997,"instrument":2,"program":28,"isDrum":false},{"pitch":60,"velocity":100,"startTime":27.5229,"endTime":28.4862015,"instrument":2,"program":28,"isDrum":false},{"pitch":55,"velocity":85,"startTime":27.791248275,"endTime":28.307302649999997,"instrument":2,"program":28,"isDrum":false},{"pitch":48,"velocity":94,"startTime":28.073358,"endTime":28.502256525,"instrument":2,"program":28,"isDrum":false},{"pitch":55,"velocity":72,"startTime":28.341706275,"endTime":28.823357025,"instrument":2,"program":28,"isDrum":false},{"pitch":50,"velocity":100,"startTime":28.628403150000004,"endTime":28.892164274999992,"instrument":2,"program":28,"isDrum":false},{"pitch":50,"velocity":108,"startTime":28.899044999999994,"endTime":29.036659500000006,"instrument":2,"program":28,"isDrum":false},{"pitch":57,"velocity":89,"startTime":28.899044999999994,"endTime":29.220145499999994,"instrument":2,"program":28,"isDrum":false},{"pitch":64,"velocity":103,"startTime":29.155925400000008,"endTime":30.176566275000006,"instrument":2,"program":28,"isDrum":false},{"pitch":50,"velocity":88,"startTime":29.162806124999996,"endTime":29.357759999999992,"instrument":2,"program":28,"isDrum":false},{"pitch":57,"velocity":85,"startTime":29.442622274999998,"endTime":29.965557374999996,"instrument":2,"program":28,"isDrum":false},{"pitch":62,"velocity":101,"startTime":29.713264125000002,"endTime":30.722437125000006,"instrument":2,"program":28,"isDrum":false},{"pitch":50,"velocity":91,"startTime":29.717851274999994,"endTime":30.222437774999996,"instrument":2,"program":28,"isDrum":false},{"pitch":57,"velocity":100,"startTime":29.988493124999998,"endTime":30.470143874999998,"instrument":2,"program":28,"isDrum":false},{"pitch":50,"velocity":94,"startTime":30.268309275,"endTime":30.795831525000004,"instrument":2,"program":28,"isDrum":false},{"pitch":57,"velocity":81,"startTime":30.538951125000004,"endTime":30.837115875000002,"instrument":2,"program":28,"isDrum":false},{"pitch":50,"velocity":72,"startTime":30.807299399999998,"endTime":31.043537624999992,"instrument":2,"program":28,"isDrum":false},{"pitch":43,"velocity":72,"startTime":30.825647999999994,"endTime":31.025189024999996,"instrument":2,"program":28,"isDrum":false},{"pitch":50,"velocity":101,"startTime":31.093996275000002,"endTime":31.575647025000002,"instrument":2,"program":28,"isDrum":false},{"pitch":43,"velocity":86,"startTime":31.10546415000001,"endTime":31.318766625000002,"instrument":2,"program":28,"isDrum":false},{"pitch":57,"velocity":100,"startTime":31.369225274999998,"endTime":32.126105024999994,"instrument":2,"program":28,"isDrum":false},{"pitch":43,"velocity":86,"startTime":31.380693150000006,"endTime":31.823353125000004,"instrument":2,"program":28,"isDrum":false},{"pitch":50,"velocity":88,"startTime":31.644454274999994,"endTime":32.366930399999994,"instrument":2,"program":28,"isDrum":false},{"pitch":43,"velocity":82,"startTime":31.915096124999998,"endTime":32.997663525,"instrument":2,"program":28,"isDrum":false},{"pitch":59,"velocity":103,"startTime":31.919683275000004,"endTime":33.07793865,"instrument":2,"program":28,"isDrum":false},{"pitch":57,"velocity":89,"startTime":32.183444400000006,"endTime":32.660508,"instrument":2,"program":28,"isDrum":false},{"pitch":50,"velocity":99,"startTime":32.477022,"endTime":33.22702102499999,"instrument":2,"program":28,"isDrum":false},{"pitch":57,"velocity":72,"startTime":32.74537027499999,"endTime":33.520598625,"instrument":2,"program":28,"isDrum":false},{"pitch":43,"velocity":83,"startTime":33.020599275,"endTime":33.176562374999996,"instrument":2,"program":28,"isDrum":false},{"pitch":43,"velocity":90,"startTime":33.295828275,"endTime":33.456378525,"instrument":2,"program":28,"isDrum":false},{"pitch":50,"velocity":97,"startTime":33.302709,"endTime":33.70867177499999,"instrument":2,"program":28,"isDrum":false},{"pitch":57,"velocity":103,"startTime":33.571057274999994,"endTime":34.316469149999996,"instrument":2,"program":28,"isDrum":false},{"pitch":43,"velocity":86,"startTime":33.58252515,"endTime":34.036652999999994,"instrument":2,"program":28,"isDrum":false},{"pitch":50,"velocity":89,"startTime":33.853167000000006,"endTime":34.603166025,"instrument":2,"program":28,"isDrum":false},{"pitch":59,"velocity":103,"startTime":34.11692812500001,"endTime":35.25683490000001,"instrument":2,"program":28,"isDrum":false},{"pitch":43,"velocity":75,"startTime":34.128396,"endTime":35.073348900000006,"instrument":2,"program":28,"isDrum":false},{"pitch":57,"velocity":89,"startTime":34.396744274999996,"endTime":34.878395024999996,"instrument":2,"program":28,"isDrum":false},{"pitch":50,"velocity":100,"startTime":34.68344115,"endTime":35.38986225,"instrument":2,"program":28,"isDrum":false},{"pitch":57,"velocity":72,"startTime":34.95867015000001,"endTime":35.73389849999999,"instrument":2,"program":28,"isDrum":false},{"pitch":43,"velocity":81,"startTime":35.23389914999999,"endTime":35.263715624999996,"instrument":2,"program":28,"isDrum":false},{"pitch":50,"velocity":96,"startTime":35.504540999999996,"endTime":35.9907789,"instrument":2,"program":28,"isDrum":false},{"pitch":43,"velocity":80,"startTime":35.504540999999996,"endTime":35.676559125000004,"instrument":2,"program":28,"isDrum":false},{"pitch":57,"velocity":92,"startTime":35.779770000000006,"endTime":36.525181874999994,"instrument":2,"program":28,"isDrum":false},{"pitch":43,"velocity":82,"startTime":35.78435715,"endTime":36.227017124999996,"instrument":2,"program":28,"isDrum":false},{"pitch":50,"velocity":77,"startTime":36.059586149999994,"endTime":36.766007249999994,"instrument":2,"program":28,"isDrum":false},{"pitch":59,"velocity":99,"startTime":36.330228,"endTime":37.343988149999994,"instrument":2,"program":28,"isDrum":false},{"pitch":43,"velocity":76,"startTime":36.33481514999999,"endTime":37.38527249999999,"instrument":2,"program":28,"isDrum":false},{"pitch":57,"velocity":86,"startTime":36.598576275000006,"endTime":37.052704125,"instrument":2,"program":28,"isDrum":false},{"pitch":50,"velocity":91,"startTime":36.880686000000004,"endTime":37.63068502500001,"instrument":2,"program":28,"isDrum":false},{"pitch":57,"velocity":86,"startTime":37.16050214999999,"endTime":37.9173819,"instrument":2,"program":28,"isDrum":false},{"pitch":43,"velocity":88,"startTime":37.42426327500001,"endTime":37.5962814,"instrument":2,"program":28,"isDrum":false},{"pitch":50,"velocity":98,"startTime":37.706373000000006,"endTime":38.1926109,"instrument":2,"program":28,"isDrum":false},{"pitch":43,"velocity":89,"startTime":37.71096015,"endTime":37.940317650000004,"instrument":2,"program":28,"isDrum":false},{"pitch":57,"velocity":105,"startTime":37.981602,"endTime":38.73160102500001,"instrument":2,"program":28,"isDrum":false},{"pitch":43,"velocity":79,"startTime":37.981602,"endTime":38.421968400000004,"instrument":2,"program":28,"isDrum":false},{"pitch":50,"velocity":94,"startTime":38.256831,"endTime":38.98389427499999,"instrument":2,"program":28,"isDrum":false},{"pitch":43,"velocity":78,"startTime":38.53664715,"endTime":39.649031025000006,"instrument":2,"program":28,"isDrum":false},{"pitch":59,"velocity":79,"startTime":38.53664715,"endTime":39.483893625,"instrument":2,"program":28,"isDrum":false},{"pitch":57,"velocity":88,"startTime":38.800408275,"endTime":39.270591149999994,"instrument":2,"program":28,"isDrum":false},{"pitch":50,"velocity":105,"startTime":39.082518,"endTime":39.736186874999994,"instrument":2,"program":28,"isDrum":false},{"pitch":57,"velocity":92,"startTime":39.357746999999996,"endTime":39.81646200000001,"instrument":2,"program":28,"isDrum":false},{"pitch":40,"velocity":96,"startTime":39.626095275000004,"endTime":39.83251702500001,"instrument":2,"program":28,"isDrum":false},{"pitch":40,"velocity":93,"startTime":39.896737124999994,"endTime":40.126094625,"instrument":2,"program":28,"isDrum":false},{"pitch":47,"velocity":77,"startTime":39.908205,"endTime":40.378387874999994,"instrument":2,"program":28,"isDrum":false},{"pitch":54,"velocity":104,"startTime":40.17655327500001,"endTime":40.940313749999994,"instrument":2,"program":28,"isDrum":false},{"pitch":40,"velocity":83,"startTime":40.17655327500001,"endTime":40.681139775,"instrument":2,"program":28,"isDrum":false},{"pitch":47,"velocity":91,"startTime":40.447195125,"endTime":41.197194149999994,"instrument":2,"program":28,"isDrum":false},{"pitch":55,"velocity":105,"startTime":40.733892000000004,"endTime":41.75912002500001,"instrument":2,"program":28,"isDrum":false},{"pitch":40,"velocity":84,"startTime":40.733892000000004,"endTime":41.81645940000001,"instrument":2,"program":28,"isDrum":false},{"pitch":54,"velocity":88,"startTime":41.009121,"endTime":41.49077175,"instrument":2,"program":28,"isDrum":false},{"pitch":47,"velocity":94,"startTime":41.28893715,"endTime":41.99994540000001,"instrument":2,"program":28,"isDrum":false},{"pitch":54,"velocity":82,"startTime":41.552698275000004,"endTime":42.304990874999994,"instrument":2,"program":28,"isDrum":false},{"pitch":40,"velocity":86,"startTime":41.839395149999994,"endTime":42.018294000000004,"instrument":2,"program":28,"isDrum":false},{"pitch":40,"velocity":88,"startTime":42.10315627500001,"endTime":42.32792662500001,"instrument":2,"program":28,"isDrum":false},{"pitch":47,"velocity":96,"startTime":42.10315627500001,"endTime":42.561871274999994,"instrument":2,"program":28,"isDrum":false},{"pitch":54,"velocity":101,"startTime":42.36233025000001,"endTime":43.123797149999994,"instrument":2,"program":28,"isDrum":false},{"pitch":40,"velocity":84,"startTime":42.37838527500001,"endTime":42.866916749999994,"instrument":2,"program":28,"isDrum":false},{"pitch":47,"velocity":98,"startTime":42.660495000000004,"endTime":43.399026150000005,"instrument":2,"program":28,"isDrum":false},{"pitch":55,"velocity":106,"startTime":42.935724,"endTime":44.19719025,"instrument":2,"program":28,"isDrum":false},{"pitch":40,"velocity":80,"startTime":42.935724,"endTime":43.915080525,"instrument":2,"program":28,"isDrum":false},{"pitch":54,"velocity":101,"startTime":43.20407227500001,"endTime":43.64673224999999,"instrument":2,"program":28,"isDrum":false},{"pitch":47,"velocity":96,"startTime":43.474714125,"endTime":43.91049337500001,"instrument":2,"program":28,"isDrum":false},{"pitch":54,"velocity":90,"startTime":43.754530275,"endTime":44.006823524999994,"instrument":2,"program":28,"isDrum":false},{"pitch":48,"velocity":105,"startTime":44.02975927500001,"endTime":44.201777400000005,"instrument":2,"program":28,"isDrum":false},{"pitch":48,"velocity":84,"startTime":44.30498827500001,"endTime":44.51141002500001,"instrument":2,"program":28,"isDrum":false},{"pitch":55,"velocity":104,"startTime":44.311868999999994,"endTime":44.782051875,"instrument":2,"program":28,"isDrum":false},{"pitch":48,"velocity":96,"startTime":44.568749399999994,"endTime":45.034345124999994,"instrument":2,"program":28,"isDrum":false},{"pitch":62,"velocity":104,"startTime":44.580217275,"endTime":45.153611025,"instrument":2,"program":28,"isDrum":false},{"pitch":55,"velocity":90,"startTime":44.85544627500001,"endTime":45.405904275000005,"instrument":2,"program":28,"isDrum":false},{"pitch":60,"velocity":102,"startTime":45.1192074,"endTime":46.12379325,"instrument":2,"program":28,"isDrum":false},{"pitch":48,"velocity":86,"startTime":45.13067527500001,"endTime":45.681133275,"instrument":2,"program":28,"isDrum":false},{"pitch":55,"velocity":100,"startTime":45.41278500000001,"endTime":45.646729650000005,"instrument":2,"program":28,"isDrum":false},{"pitch":48,"velocity":84,"startTime":45.688014,"endTime":46.158196874999994,"instrument":2,"program":28,"isDrum":false},{"pitch":55,"velocity":92,"startTime":45.95177512499999,"endTime":46.410490125,"instrument":2,"program":28,"isDrum":false},{"pitch":50,"velocity":108,"startTime":46.23159127500001,"endTime":46.415077274999994,"instrument":2,"program":28,"isDrum":false},{"pitch":50,"velocity":96,"startTime":46.513701000000005,"endTime":47.309571525,"instrument":2,"program":28,"isDrum":false},{"pitch":57,"velocity":89,"startTime":46.513701000000005,"endTime":46.960948124999994,"instrument":2,"program":28,"isDrum":false},{"pitch":64,"velocity":106,"startTime":46.78204927500001,"endTime":48.089387025,"instrument":2,"program":28,"isDrum":false},{"pitch":57,"velocity":88,"startTime":47.05727827500001,"endTime":47.607736275,"instrument":2,"program":28,"isDrum":false},{"pitch":62,"velocity":104,"startTime":47.34397515,"endTime":47.855442375,"instrument":2,"program":28,"isDrum":false},{"pitch":50,"velocity":86,"startTime":47.350855875,"endTime":47.88296527500001,"instrument":2,"program":28,"isDrum":false},{"pitch":57,"velocity":88,"startTime":47.619204149999995,"endTime":48.112322775,"instrument":2,"program":28,"isDrum":false},{"pitch":50,"velocity":100,"startTime":47.889846,"endTime":48.36002887499999,"instrument":2,"program":28,"isDrum":false},{"pitch":57,"velocity":81,"startTime":48.16966215,"endTime":48.49764337499999,"instrument":2,"program":28,"isDrum":false},{"pitch":43,"velocity":87,"startTime":48.433423275,"endTime":48.635257875,"instrument":2,"program":28,"isDrum":false},{"pitch":50,"velocity":99,"startTime":48.715533,"endTime":49.19030302500001,"instrument":2,"program":28,"isDrum":false},{"pitch":43,"velocity":86,"startTime":48.72012014999999,"endTime":48.938009775000005,"instrument":2,"program":28,"isDrum":false},{"pitch":57,"velocity":104,"startTime":48.98388127500001,"endTime":49.7522289,"instrument":2,"program":28,"isDrum":false},{"pitch":43,"velocity":83,"startTime":48.990762,"endTime":49.4953485,"instrument":2,"program":28,"isDrum":false},{"pitch":50,"velocity":109,"startTime":49.259110275000005,"endTime":50.011402874999995,"instrument":2,"program":28,"isDrum":false},{"pitch":59,"velocity":104,"startTime":49.534339275,"endTime":50.56644802500001,"instrument":2,"program":28,"isDrum":false},{"pitch":43,"velocity":68,"startTime":49.54122,"endTime":50.61920025,"instrument":2,"program":28,"isDrum":false},{"pitch":57,"velocity":91,"startTime":49.816449,"endTime":50.28663187499999,"instrument":2,"program":28,"isDrum":false},{"pitch":50,"velocity":108,"startTime":50.08479727500001,"endTime":50.848557750000005,"instrument":2,"program":28,"isDrum":false},{"pitch":57,"velocity":84,"startTime":50.366907000000005,"endTime":50.66507174999999,"instrument":2,"program":28,"isDrum":false},{"pitch":43,"velocity":78,"startTime":50.64672314999999,"endTime":50.8531449,"instrument":2,"program":28,"isDrum":false},{"pitch":50,"velocity":107,"startTime":50.917365,"endTime":51.38754787499999,"instrument":2,"program":28,"isDrum":false},{"pitch":43,"velocity":90,"startTime":50.917365,"endTime":51.12378675,"instrument":2,"program":28,"isDrum":false},{"pitch":57,"velocity":92,"startTime":51.185713275000005,"endTime":51.942593025,"instrument":2,"program":28,"isDrum":false},{"pitch":43,"velocity":84,"startTime":51.19259400000001,"endTime":51.69029977500001,"instrument":2,"program":28,"isDrum":false},{"pitch":50,"velocity":103,"startTime":51.467823,"endTime":52.21782202500001,"instrument":2,"program":28,"isDrum":false},{"pitch":43,"velocity":84,"startTime":51.743052,"endTime":52.73387640000001,"instrument":2,"program":28,"isDrum":false},{"pitch":59,"velocity":108,"startTime":51.743052,"endTime":52.01140027500001,"instrument":2,"program":28,"isDrum":false},{"pitch":57,"velocity":101,"startTime":52.018280999999995,"endTime":52.550390400000005,"instrument":2,"program":28,"isDrum":false},{"pitch":50,"velocity":94,"startTime":52.293510000000005,"endTime":52.79809649999999,"instrument":2,"program":28,"isDrum":false},{"pitch":57,"velocity":85,"startTime":52.56185827500001,"endTime":52.83708727500001,"instrument":2,"program":28,"isDrum":false},{"pitch":43,"velocity":103,"startTime":52.84855515,"endTime":53.394426,"instrument":2,"program":28,"isDrum":false},{"pitch":50,"velocity":95,"startTime":53.11919700000001,"endTime":53.593967025000005,"instrument":2,"program":28,"isDrum":false},{"pitch":57,"velocity":108,"startTime":53.387545275,"endTime":54.15130575,"instrument":2,"program":28,"isDrum":false},{"pitch":43,"velocity":79,"startTime":53.394426,"endTime":53.864608874999995,"instrument":2,"program":28,"isDrum":false},{"pitch":50,"velocity":78,"startTime":53.669655,"endTime":54.41965402500001,"instrument":2,"program":28,"isDrum":false},{"pitch":43,"velocity":79,"startTime":53.933416125,"endTime":55.015983525,"instrument":2,"program":28,"isDrum":false},{"pitch":59,"velocity":97,"startTime":53.944883999999995,"endTime":55.130662275,"instrument":2,"program":28,"isDrum":false},{"pitch":57,"velocity":84,"startTime":54.213232275,"endTime":54.701763750000005,"instrument":2,"program":28,"isDrum":false},{"pitch":50,"velocity":76,"startTime":54.495342,"endTime":55.2751575,"instrument":2,"program":28,"isDrum":false},{"pitch":57,"velocity":72,"startTime":54.76369027500001,"endTime":55.52745075000001,"instrument":2,"program":28,"isDrum":false},{"pitch":43,"velocity":75,"startTime":55.038919275000005,"endTime":55.314148275,"instrument":2,"program":28,"isDrum":false},{"pitch":50,"velocity":94,"startTime":55.321029,"endTime":55.791211874999995,"instrument":2,"program":28,"isDrum":false},{"pitch":43,"velocity":76,"startTime":55.325616149999995,"endTime":55.54350577500001,"instrument":2,"program":28,"isDrum":false},{"pitch":57,"velocity":93,"startTime":55.58937727500001,"endTime":56.341669875,"instrument":2,"program":28,"isDrum":false},{"pitch":43,"velocity":82,"startTime":55.60084514999999,"endTime":56.06644087499999,"instrument":2,"program":28,"isDrum":false},{"pitch":50,"velocity":74,"startTime":55.87607415,"endTime":56.621486025,"instrument":2,"program":28,"isDrum":false},{"pitch":43,"velocity":79,"startTime":56.139835275,"endTime":57.14900827499999,"instrument":2,"program":28,"isDrum":false},{"pitch":59,"velocity":84,"startTime":56.146716000000005,"endTime":57.3210264,"instrument":2,"program":28,"isDrum":false},{"pitch":57,"velocity":72,"startTime":56.41506427500001,"endTime":56.91506362500001,"instrument":2,"program":28,"isDrum":false},{"pitch":50,"velocity":83,"startTime":56.697174,"endTime":57.30955852500001,"instrument":2,"program":28,"isDrum":false},{"pitch":57,"velocity":80,"startTime":56.97699015,"endTime":57.41276940000001,"instrument":2,"program":28,"isDrum":false},{"pitch":40,"velocity":81,"startTime":57.236164124999995,"endTime":57.52744814999999,"instrument":2,"program":28,"isDrum":false},{"pitch":47,"velocity":96,"startTime":57.522861,"endTime":57.99763102500001,"instrument":2,"program":28,"isDrum":false},{"pitch":40,"velocity":87,"startTime":57.52744814999999,"endTime":57.745337775,"instrument":2,"program":28,"isDrum":false},{"pitch":54,"velocity":92,"startTime":57.79120927500001,"endTime":58.295795774999995,"instrument":2,"program":28,"isDrum":false},{"pitch":40,"velocity":76,"startTime":57.798089999999995,"endTime":58.23845640000001,"instrument":2,"program":28,"isDrum":false},{"pitch":47,"velocity":83,"startTime":58.061851125,"endTime":58.36001587500001,"instrument":2,"program":28,"isDrum":false},{"pitch":55,"velocity":94,"startTime":58.348548,"endTime":60.50909565000001,"instrument":2,"program":28,"isDrum":false},{"pitch":40,"velocity":81,"startTime":58.348548,"endTime":59.40817965,"instrument":2,"program":28,"isDrum":false},{"pitch":54,"velocity":84,"startTime":58.623777,"endTime":58.892125275000005,"instrument":2,"program":28,"isDrum":false},{"pitch":47,"velocity":84,"startTime":58.892125275000005,"endTime":59.67882149999999,"instrument":2,"program":28,"isDrum":false},{"pitch":54,"velocity":85,"startTime":59.167354275,"endTime":59.603133525,"instrument":2,"program":28,"isDrum":false},{"pitch":40,"velocity":82,"startTime":59.449464,"endTime":59.970105525,"instrument":2,"program":28,"isDrum":false},{"pitch":47,"velocity":93,"startTime":59.72928015,"endTime":60.2292795,"instrument":2,"program":28,"isDrum":false},{"pitch":54,"velocity":100,"startTime":59.999922000000005,"endTime":60.772856775,"instrument":2,"program":28,"isDrum":false},{"pitch":40,"velocity":83,"startTime":60.00450915,"endTime":60.2292795,"instrument":2,"program":28,"isDrum":false},{"pitch":47,"velocity":97,"startTime":60.275151,"endTime":61.02056287499999,"instrument":2,"program":28,"isDrum":false},{"pitch":40,"velocity":81,"startTime":60.55038,"endTime":60.90588412500001,"instrument":2,"program":28,"isDrum":false},{"pitch":55,"velocity":102,"startTime":60.55496715,"endTime":61.80496552500001,"instrument":2,"program":28,"isDrum":false},{"pitch":54,"velocity":71,"startTime":60.82560900000001,"endTime":61.2384525,"instrument":2,"program":28,"isDrum":false},{"pitch":47,"velocity":81,"startTime":61.100838,"endTime":61.62836025000001,"instrument":2,"program":28,"isDrum":false},{"pitch":54,"velocity":82,"startTime":61.376067,"endTime":61.64441527500001,"instrument":2,"program":28,"isDrum":false},{"pitch":48,"velocity":79,"startTime":61.65588315,"endTime":61.83936915,"instrument":2,"program":28,"isDrum":false},{"pitch":55,"velocity":104,"startTime":61.919644275,"endTime":62.4127629,"instrument":2,"program":28,"isDrum":false},{"pitch":48,"velocity":91,"startTime":61.926525000000005,"endTime":62.09166240000001,"instrument":2,"program":28,"isDrum":false},{"pitch":62,"velocity":103,"startTime":62.19028612499999,"endTime":63.2384499,"instrument":2,"program":28,"isDrum":false},{"pitch":48,"velocity":89,"startTime":62.201754,"endTime":62.67652402500001,"instrument":2,"program":28,"isDrum":false},{"pitch":55,"velocity":93,"startTime":62.48157015,"endTime":62.974688775,"instrument":2,"program":28,"isDrum":false},{"pitch":48,"velocity":92,"startTime":62.745331275000005,"endTime":63.29578927500001,"instrument":2,"program":28,"isDrum":false},{"pitch":60,"velocity":100,"startTime":62.75221200000001,"endTime":63.71551350000001,"instrument":2,"program":28,"isDrum":false},{"pitch":55,"velocity":85,"startTime":63.020560275,"endTime":63.53661465000001,"instrument":2,"program":28,"isDrum":false},{"pitch":48,"velocity":94,"startTime":63.30267,"endTime":63.73156852500001,"instrument":2,"program":28,"isDrum":false},{"pitch":55,"velocity":72,"startTime":63.57101827500001,"endTime":64.052669025,"instrument":2,"program":28,"isDrum":false},{"pitch":50,"velocity":100,"startTime":63.85771515,"endTime":64.12147627500002,"instrument":2,"program":28,"isDrum":false},{"pitch":50,"velocity":108,"startTime":64.128357,"endTime":64.2659715,"instrument":2,"program":28,"isDrum":false},{"pitch":57,"velocity":89,"startTime":64.128357,"endTime":64.4494575,"instrument":2,"program":28,"isDrum":false},{"pitch":64,"velocity":103,"startTime":64.3852374,"endTime":65.40587827499999,"instrument":2,"program":28,"isDrum":false},{"pitch":50,"velocity":88,"startTime":64.392118125,"endTime":64.587072,"instrument":2,"program":28,"isDrum":false},{"pitch":57,"velocity":85,"startTime":64.67193427500001,"endTime":65.194869375,"instrument":2,"program":28,"isDrum":false},{"pitch":62,"velocity":101,"startTime":64.94257612499999,"endTime":65.95174912499999,"instrument":2,"program":28,"isDrum":false},{"pitch":50,"velocity":91,"startTime":64.94716327500001,"endTime":65.451749775,"instrument":2,"program":28,"isDrum":false},{"pitch":57,"velocity":100,"startTime":65.21780512499998,"endTime":65.69945587499998,"instrument":2,"program":28,"isDrum":false},{"pitch":50,"velocity":94,"startTime":65.497621275,"endTime":66.025143525,"instrument":2,"program":28,"isDrum":false},{"pitch":57,"velocity":81,"startTime":65.768263125,"endTime":66.06642787500002,"instrument":2,"program":28,"isDrum":false},{"pitch":50,"velocity":72,"startTime":66.0366114,"endTime":66.27284962499999,"instrument":2,"program":28,"isDrum":false},{"pitch":43,"velocity":72,"startTime":66.05496,"endTime":66.254501025,"instrument":2,"program":28,"isDrum":false},{"pitch":50,"velocity":101,"startTime":66.32330827500002,"endTime":66.80495902500002,"instrument":2,"program":28,"isDrum":false},{"pitch":43,"velocity":86,"startTime":66.33477615000001,"endTime":66.54807862500002,"instrument":2,"program":28,"isDrum":false},{"pitch":57,"velocity":100,"startTime":66.59853727500001,"endTime":67.35541702500001,"instrument":2,"program":28,"isDrum":false},{"pitch":43,"velocity":86,"startTime":66.61000515,"endTime":67.052665125,"instrument":2,"program":28,"isDrum":false},{"pitch":50,"velocity":88,"startTime":66.87376627500001,"endTime":67.5962424,"instrument":2,"program":28,"isDrum":false},{"pitch":43,"velocity":82,"startTime":67.14440812499998,"endTime":68.226975525,"instrument":2,"program":28,"isDrum":false},{"pitch":59,"velocity":103,"startTime":67.148995275,"endTime":68.30725065000001,"instrument":2,"program":28,"isDrum":false},{"pitch":57,"velocity":89,"startTime":67.4127564,"endTime":67.88982000000001,"instrument":2,"program":28,"isDrum":false},{"pitch":50,"velocity":99,"startTime":67.706334,"endTime":68.45633302500002,"instrument":2,"program":28,"isDrum":false},{"pitch":57,"velocity":72,"startTime":67.97468227500002,"endTime":68.74991062500001,"instrument":2,"program":28,"isDrum":false},{"pitch":43,"velocity":83,"startTime":68.24991127500002,"endTime":68.405874375,"instrument":2,"program":28,"isDrum":false},{"pitch":43,"velocity":103,"startTime":68.26137914999998,"endTime":68.80725000000001,"instrument":2,"program":28,"isDrum":false},{"pitch":50,"velocity":95,"startTime":68.53202100000001,"endTime":69.00679102500001,"instrument":2,"program":28,"isDrum":false},{"pitch":57,"velocity":108,"startTime":68.80036927500001,"endTime":69.56412975,"instrument":2,"program":28,"isDrum":false},{"pitch":43,"velocity":79,"startTime":68.80725000000001,"endTime":69.27743287499999,"instrument":2,"program":28,"isDrum":false},{"pitch":50,"velocity":78,"startTime":69.082479,"endTime":69.832478025,"instrument":2,"program":28,"isDrum":false},{"pitch":43,"velocity":79,"startTime":69.34624012500001,"endTime":70.428807525,"instrument":2,"program":28,"isDrum":false},{"pitch":59,"velocity":97,"startTime":69.357708,"endTime":70.54348627499999,"instrument":2,"program":28,"isDrum":false},{"pitch":57,"velocity":84,"startTime":69.626056275,"endTime":70.11458775,"instrument":2,"program":28,"isDrum":false},{"pitch":50,"velocity":76,"startTime":69.908166,"endTime":70.6879815,"instrument":2,"program":28,"isDrum":false},{"pitch":57,"velocity":72,"startTime":70.17651427500002,"endTime":70.94027474999999,"instrument":2,"program":28,"isDrum":false},{"pitch":43,"velocity":75,"startTime":70.45174327500001,"endTime":70.72697227500001,"instrument":2,"program":28,"isDrum":false},{"pitch":43,"velocity":103,"startTime":70.46321115,"endTime":71.009082,"instrument":2,"program":28,"isDrum":false},{"pitch":50,"velocity":95,"startTime":70.73385300000001,"endTime":71.20862302500001,"instrument":2,"program":28,"isDrum":false},{"pitch":57,"velocity":108,"startTime":71.002201275,"endTime":71.76596175,"instrument":2,"program":28,"isDrum":false},{"pitch":43,"velocity":79,"startTime":71.009082,"endTime":71.47926487499998,"instrument":2,"program":28,"isDrum":false},{"pitch":50,"velocity":78,"startTime":71.284311,"endTime":72.034310025,"instrument":2,"program":28,"isDrum":false},{"pitch":43,"velocity":79,"startTime":71.548072125,"endTime":72.63063952499999,"instrument":2,"program":28,"isDrum":false},{"pitch":59,"velocity":97,"startTime":71.55954,"endTime":72.74531827499999,"instrument":2,"program":28,"isDrum":false},{"pitch":57,"velocity":84,"startTime":71.82788827500002,"endTime":72.31641975,"instrument":2,"program":28,"isDrum":false},{"pitch":50,"velocity":76,"startTime":72.10999799999999,"endTime":72.8898135,"instrument":2,"program":28,"isDrum":false},{"pitch":57,"velocity":72,"startTime":72.37834627500001,"endTime":73.14210675000001,"instrument":2,"program":28,"isDrum":false},{"pitch":43,"velocity":75,"startTime":72.65357527500001,"endTime":72.928804275,"instrument":2,"program":28,"isDrum":false},{"pitch":50,"velocity":94,"startTime":72.935685,"endTime":73.40586787499998,"instrument":2,"program":28,"isDrum":false},{"pitch":43,"velocity":76,"startTime":72.94027215,"endTime":73.158161775,"instrument":2,"program":28,"isDrum":false},{"pitch":57,"velocity":93,"startTime":73.204033275,"endTime":73.956325875,"instrument":2,"program":28,"isDrum":false},{"pitch":43,"velocity":82,"startTime":73.21550115,"endTime":73.68109687500001,"instrument":2,"program":28,"isDrum":false},{"pitch":50,"velocity":74,"startTime":73.49073014999999,"endTime":74.23614202500002,"instrument":2,"program":28,"isDrum":false},{"pitch":43,"velocity":79,"startTime":73.75449127500002,"endTime":74.763664275,"instrument":2,"program":28,"isDrum":false},{"pitch":59,"velocity":84,"startTime":73.761372,"endTime":74.93568239999999,"instrument":2,"program":28,"isDrum":false},{"pitch":57,"velocity":72,"startTime":74.02972027500002,"endTime":74.52971962500001,"instrument":2,"program":28,"isDrum":false},{"pitch":50,"velocity":83,"startTime":74.31182999999999,"endTime":74.924214525,"instrument":2,"program":28,"isDrum":false},{"pitch":57,"velocity":80,"startTime":74.59164615,"endTime":75.0274254,"instrument":2,"program":28,"isDrum":false},{"pitch":40,"velocity":81,"startTime":74.85082012499998,"endTime":75.14210415,"instrument":2,"program":28,"isDrum":false},{"pitch":47,"velocity":96,"startTime":75.137517,"endTime":75.612287025,"instrument":2,"program":28,"isDrum":false},{"pitch":40,"velocity":87,"startTime":75.14210415,"endTime":75.35999377499999,"instrument":2,"program":28,"isDrum":false},{"pitch":54,"velocity":92,"startTime":75.405865275,"endTime":75.91045177500001,"instrument":2,"program":28,"isDrum":false},{"pitch":40,"velocity":76,"startTime":75.412746,"endTime":75.85311240000001,"instrument":2,"program":28,"isDrum":false},{"pitch":47,"velocity":83,"startTime":75.676507125,"endTime":75.97467187500001,"instrument":2,"program":28,"isDrum":false},{"pitch":55,"velocity":94,"startTime":75.96320399999999,"endTime":78.12375165,"instrument":2,"program":28,"isDrum":false},{"pitch":40,"velocity":81,"startTime":75.96320399999999,"endTime":77.02283565000002,"instrument":2,"program":28,"isDrum":false},{"pitch":54,"velocity":84,"startTime":76.23843299999999,"endTime":76.50678127500001,"instrument":2,"program":28,"isDrum":false},{"pitch":47,"velocity":84,"startTime":76.50678127500001,"endTime":77.2934775,"instrument":2,"program":28,"isDrum":false},{"pitch":54,"velocity":85,"startTime":76.782010275,"endTime":77.217789525,"instrument":2,"program":28,"isDrum":false},{"pitch":40,"velocity":82,"startTime":77.06412,"endTime":77.584761525,"instrument":2,"program":28,"isDrum":false},{"pitch":47,"velocity":93,"startTime":77.34393614999999,"endTime":77.84393549999999,"instrument":2,"program":28,"isDrum":false},{"pitch":54,"velocity":100,"startTime":77.614578,"endTime":78.387512775,"instrument":2,"program":28,"isDrum":false},{"pitch":40,"velocity":83,"startTime":77.61916514999999,"endTime":77.84393549999999,"instrument":2,"program":28,"isDrum":false},{"pitch":47,"velocity":97,"startTime":77.88980699999999,"endTime":78.63521887499999,"instrument":2,"program":28,"isDrum":false},{"pitch":40,"velocity":81,"startTime":78.16503599999999,"endTime":78.520540125,"instrument":2,"program":28,"isDrum":false},{"pitch":55,"velocity":102,"startTime":78.16962315,"endTime":79.419621525,"instrument":2,"program":28,"isDrum":false},{"pitch":54,"velocity":71,"startTime":78.44026500000001,"endTime":78.85310849999999,"instrument":2,"program":28,"isDrum":false},{"pitch":47,"velocity":81,"startTime":78.715494,"endTime":79.24301625000001,"instrument":2,"program":28,"isDrum":false},{"pitch":54,"velocity":82,"startTime":78.990723,"endTime":79.259071275,"instrument":2,"program":28,"isDrum":false},{"pitch":48,"velocity":79,"startTime":79.27053914999999,"endTime":79.45402515,"instrument":2,"program":28,"isDrum":false},{"pitch":55,"velocity":104,"startTime":79.53430027499999,"endTime":80.02741889999999,"instrument":2,"program":28,"isDrum":false},{"pitch":48,"velocity":91,"startTime":79.541181,"endTime":79.70631840000001,"instrument":2,"program":28,"isDrum":false},{"pitch":62,"velocity":103,"startTime":79.804942125,"endTime":80.8531059,"instrument":2,"program":28,"isDrum":false},{"pitch":48,"velocity":89,"startTime":79.81640999999999,"endTime":80.29118002500002,"instrument":2,"program":28,"isDrum":false},{"pitch":55,"velocity":93,"startTime":80.09622615,"endTime":80.589344775,"instrument":2,"program":28,"isDrum":false},{"pitch":48,"velocity":92,"startTime":80.35998727500001,"endTime":80.910445275,"instrument":2,"program":28,"isDrum":false},{"pitch":60,"velocity":100,"startTime":80.36686800000001,"endTime":81.33016950000001,"instrument":2,"program":28,"isDrum":false},{"pitch":55,"velocity":85,"startTime":80.635216275,"endTime":81.15127065000001,"instrument":2,"program":28,"isDrum":false},{"pitch":48,"velocity":94,"startTime":80.917326,"endTime":81.346224525,"instrument":2,"program":28,"isDrum":false},{"pitch":55,"velocity":72,"startTime":81.185674275,"endTime":81.667325025,"instrument":2,"program":28,"isDrum":false},{"pitch":50,"velocity":100,"startTime":81.47237114999999,"endTime":81.73613227500002,"instrument":2,"program":28,"isDrum":false},{"pitch":50,"velocity":108,"startTime":81.74301299999999,"endTime":81.8806275,"instrument":2,"program":28,"isDrum":false},{"pitch":57,"velocity":89,"startTime":81.74301299999999,"endTime":82.06411350000002,"instrument":2,"program":28,"isDrum":false},{"pitch":64,"velocity":103,"startTime":81.99989339999999,"endTime":83.02053427499999,"instrument":2,"program":28,"isDrum":false},{"pitch":50,"velocity":88,"startTime":82.00677412499999,"endTime":82.201728,"instrument":2,"program":28,"isDrum":false},{"pitch":57,"velocity":85,"startTime":82.28659027500001,"endTime":82.80952537499999,"instrument":2,"program":28,"isDrum":false},{"pitch":62,"velocity":101,"startTime":82.55723212499998,"endTime":83.56640512499999,"instrument":2,"program":28,"isDrum":false},{"pitch":50,"velocity":91,"startTime":82.561819275,"endTime":83.06640577499999,"instrument":2,"program":28,"isDrum":false},{"pitch":57,"velocity":100,"startTime":82.83246112500001,"endTime":83.31411187500001,"instrument":2,"program":28,"isDrum":false},{"pitch":50,"velocity":94,"startTime":83.112277275,"endTime":83.639799525,"instrument":2,"program":28,"isDrum":false},{"pitch":57,"velocity":81,"startTime":83.382919125,"endTime":83.68108387500001,"instrument":2,"program":28,"isDrum":false},{"pitch":50,"velocity":72,"startTime":83.6512674,"endTime":83.88750562500002,"instrument":2,"program":28,"isDrum":false},{"pitch":43,"velocity":72,"startTime":83.66961599999999,"endTime":83.86915702499999,"instrument":2,"program":28,"isDrum":false},{"pitch":50,"velocity":101,"startTime":83.93796427500001,"endTime":84.41961502500001,"instrument":2,"program":28,"isDrum":false},{"pitch":43,"velocity":86,"startTime":83.94943215,"endTime":84.16273462500001,"instrument":2,"program":28,"isDrum":false},{"pitch":57,"velocity":100,"startTime":84.21319327500001,"endTime":84.970073025,"instrument":2,"program":28,"isDrum":false},{"pitch":43,"velocity":86,"startTime":84.22466115,"endTime":84.667321125,"instrument":2,"program":28,"isDrum":false},{"pitch":50,"velocity":88,"startTime":84.488422275,"endTime":85.21089840000002,"instrument":2,"program":28,"isDrum":false},{"pitch":43,"velocity":82,"startTime":84.75906412500001,"endTime":85.841631525,"instrument":2,"program":28,"isDrum":false},{"pitch":59,"velocity":103,"startTime":84.763651275,"endTime":85.92190665000001,"instrument":2,"program":28,"isDrum":false},{"pitch":57,"velocity":89,"startTime":85.0274124,"endTime":85.50447600000001,"instrument":2,"program":28,"isDrum":false},{"pitch":50,"velocity":99,"startTime":85.32099,"endTime":86.07098902500002,"instrument":2,"program":28,"isDrum":false},{"pitch":57,"velocity":72,"startTime":85.58933827500002,"endTime":86.36456662500001,"instrument":2,"program":28,"isDrum":false},{"pitch":43,"velocity":83,"startTime":85.86456727500001,"endTime":86.02053037499999,"instrument":2,"program":28,"isDrum":false},{"pitch":43,"velocity":103,"startTime":85.87603515,"endTime":86.421906,"instrument":2,"program":28,"isDrum":false},{"pitch":50,"velocity":95,"startTime":86.14667700000001,"endTime":86.62144702500001,"instrument":2,"program":28,"isDrum":false},{"pitch":57,"velocity":108,"startTime":86.415025275,"endTime":87.17878575,"instrument":2,"program":28,"isDrum":false},{"pitch":43,"velocity":79,"startTime":86.421906,"endTime":86.89208887499998,"instrument":2,"program":28,"isDrum":false},{"pitch":50,"velocity":78,"startTime":86.697135,"endTime":87.447134025,"instrument":2,"program":28,"isDrum":false},{"pitch":43,"velocity":79,"startTime":86.960896125,"endTime":88.04346352499999,"instrument":2,"program":28,"isDrum":false},{"pitch":59,"velocity":97,"startTime":86.972364,"endTime":88.15814227499999,"instrument":2,"program":28,"isDrum":false},{"pitch":57,"velocity":84,"startTime":87.24071227499999,"endTime":87.72924375,"instrument":2,"program":28,"isDrum":false},{"pitch":50,"velocity":76,"startTime":87.52282199999999,"endTime":88.3026375,"instrument":2,"program":28,"isDrum":false},{"pitch":57,"velocity":72,"startTime":87.79117027500001,"endTime":88.55493075000001,"instrument":2,"program":28,"isDrum":false},{"pitch":43,"velocity":75,"startTime":88.06639927500001,"endTime":88.341628275,"instrument":2,"program":28,"isDrum":false},{"pitch":43,"velocity":103,"startTime":88.07786715,"endTime":88.623738,"instrument":2,"program":28,"isDrum":false},{"pitch":50,"velocity":95,"startTime":88.348509,"endTime":88.823279025,"instrument":2,"program":28,"isDrum":false},{"pitch":57,"velocity":108,"startTime":88.616857275,"endTime":89.38061775,"instrument":2,"program":28,"isDrum":false},{"pitch":43,"velocity":79,"startTime":88.623738,"endTime":89.09392087500001,"instrument":2,"program":28,"isDrum":false},{"pitch":50,"velocity":78,"startTime":88.898967,"endTime":89.648966025,"instrument":2,"program":28,"isDrum":false},{"pitch":43,"velocity":79,"startTime":89.162728125,"endTime":90.24529552499999,"instrument":2,"program":28,"isDrum":false},{"pitch":59,"velocity":97,"startTime":89.174196,"endTime":90.35997427500001,"instrument":2,"program":28,"isDrum":false},{"pitch":57,"velocity":84,"startTime":89.44254427500002,"endTime":89.93107574999999,"instrument":2,"program":28,"isDrum":false},{"pitch":50,"velocity":76,"startTime":89.72465399999999,"endTime":90.5044695,"instrument":2,"program":28,"isDrum":false},{"pitch":57,"velocity":72,"startTime":89.99300227500001,"endTime":90.75676275000001,"instrument":2,"program":28,"isDrum":false},{"pitch":43,"velocity":75,"startTime":90.268231275,"endTime":90.543460275,"instrument":2,"program":28,"isDrum":false},{"pitch":50,"velocity":94,"startTime":90.550341,"endTime":91.02052387500001,"instrument":2,"program":28,"isDrum":false},{"pitch":43,"velocity":76,"startTime":90.55492815,"endTime":90.772817775,"instrument":2,"program":28,"isDrum":false},{"pitch":57,"velocity":93,"startTime":90.818689275,"endTime":91.570981875,"instrument":2,"program":28,"isDrum":false},{"pitch":43,"velocity":82,"startTime":90.83015714999999,"endTime":91.295752875,"instrument":2,"program":28,"isDrum":false},{"pitch":50,"velocity":74,"startTime":91.10538614999999,"endTime":91.85079802500002,"instrument":2,"program":28,"isDrum":false},{"pitch":43,"velocity":79,"startTime":91.36914727500002,"endTime":92.378320275,"instrument":2,"program":28,"isDrum":false},{"pitch":59,"velocity":84,"startTime":91.37602799999999,"endTime":92.55033839999999,"instrument":2,"program":28,"isDrum":false},{"pitch":57,"velocity":72,"startTime":91.64437627500001,"endTime":92.14437562500001,"instrument":2,"program":28,"isDrum":false},{"pitch":50,"velocity":83,"startTime":91.92648600000001,"endTime":92.538870525,"instrument":2,"program":28,"isDrum":false},{"pitch":57,"velocity":80,"startTime":92.20630215,"endTime":92.6420814,"instrument":2,"program":28,"isDrum":false},{"pitch":40,"velocity":81,"startTime":92.46547612500001,"endTime":92.75676014999999,"instrument":2,"program":28,"isDrum":false},{"pitch":47,"velocity":96,"startTime":92.752173,"endTime":93.22694302500003,"instrument":2,"program":28,"isDrum":false},{"pitch":40,"velocity":87,"startTime":92.75676014999999,"endTime":92.97464977500002,"instrument":2,"program":28,"isDrum":false},{"pitch":54,"velocity":92,"startTime":93.02052127500002,"endTime":93.52510777500001,"instrument":2,"program":28,"isDrum":false},{"pitch":40,"velocity":76,"startTime":93.027402,"endTime":93.46776840000001,"instrument":2,"program":28,"isDrum":false},{"pitch":47,"velocity":83,"startTime":93.291163125,"endTime":93.58932787500001,"instrument":2,"program":28,"isDrum":false},{"pitch":55,"velocity":94,"startTime":93.57786000000002,"endTime":95.73840765000003,"instrument":2,"program":28,"isDrum":false},{"pitch":40,"velocity":81,"startTime":93.57786000000002,"endTime":94.63749165000002,"instrument":2,"program":28,"isDrum":false},{"pitch":54,"velocity":84,"startTime":93.85308900000001,"endTime":94.121437275,"instrument":2,"program":28,"isDrum":false},{"pitch":47,"velocity":84,"startTime":94.121437275,"endTime":94.90813349999999,"instrument":2,"program":28,"isDrum":false},{"pitch":54,"velocity":85,"startTime":94.396666275,"endTime":94.832445525,"instrument":2,"program":28,"isDrum":false},{"pitch":40,"velocity":82,"startTime":94.678776,"endTime":95.199417525,"instrument":2,"program":28,"isDrum":false},{"pitch":47,"velocity":93,"startTime":94.95859215000002,"endTime":95.45859150000001,"instrument":2,"program":28,"isDrum":false},{"pitch":54,"velocity":100,"startTime":95.22923400000002,"endTime":96.002168775,"instrument":2,"program":28,"isDrum":false},{"pitch":40,"velocity":83,"startTime":95.23382115000001,"endTime":95.45859150000001,"instrument":2,"program":28,"isDrum":false},{"pitch":47,"velocity":97,"startTime":95.50446300000002,"endTime":96.24987487499999,"instrument":2,"program":28,"isDrum":false},{"pitch":40,"velocity":81,"startTime":95.77969200000001,"endTime":96.13519612500002,"instrument":2,"program":28,"isDrum":false},{"pitch":55,"velocity":102,"startTime":95.78427915,"endTime":97.03427752500002,"instrument":2,"program":28,"isDrum":false},{"pitch":54,"velocity":71,"startTime":96.05492100000001,"endTime":96.46776450000002,"instrument":2,"program":28,"isDrum":false},{"pitch":47,"velocity":81,"startTime":96.33015,"endTime":96.85767225000001,"instrument":2,"program":28,"isDrum":false},{"pitch":54,"velocity":82,"startTime":96.605379,"endTime":96.87372727500002,"instrument":2,"program":28,"isDrum":false},{"pitch":48,"velocity":79,"startTime":96.88519515000002,"endTime":97.06868115,"instrument":2,"program":28,"isDrum":false},{"pitch":55,"velocity":104,"startTime":97.14895627500002,"endTime":97.64207490000001,"instrument":2,"program":28,"isDrum":false},{"pitch":48,"velocity":91,"startTime":97.15583700000002,"endTime":97.32097440000001,"instrument":2,"program":28,"isDrum":false},{"pitch":62,"velocity":103,"startTime":97.419598125,"endTime":98.4677619,"instrument":2,"program":28,"isDrum":false},{"pitch":48,"velocity":89,"startTime":97.43106600000002,"endTime":97.90583602500001,"instrument":2,"program":28,"isDrum":false},{"pitch":55,"velocity":93,"startTime":97.71088215,"endTime":98.204000775,"instrument":2,"program":28,"isDrum":false},{"pitch":48,"velocity":92,"startTime":97.974643275,"endTime":98.52510127500003,"instrument":2,"program":28,"isDrum":false},{"pitch":60,"velocity":100,"startTime":97.98152400000001,"endTime":98.94482550000001,"instrument":2,"program":28,"isDrum":false},{"pitch":55,"velocity":85,"startTime":98.249872275,"endTime":98.76592665000001,"instrument":2,"program":28,"isDrum":false},{"pitch":48,"velocity":94,"startTime":98.531982,"endTime":98.96088052500002,"instrument":2,"program":28,"isDrum":false},{"pitch":55,"velocity":72,"startTime":98.80033027500002,"endTime":99.28198102500002,"instrument":2,"program":28,"isDrum":false},{"pitch":50,"velocity":100,"startTime":99.08702715000001,"endTime":99.35078827500001,"instrument":2,"program":28,"isDrum":false},{"pitch":50,"velocity":108,"startTime":99.35766900000002,"endTime":99.4952835,"instrument":2,"program":28,"isDrum":false},{"pitch":57,"velocity":89,"startTime":99.35766900000002,"endTime":99.67876950000002,"instrument":2,"program":28,"isDrum":false},{"pitch":64,"velocity":103,"startTime":99.61454940000002,"endTime":100.63519027500001,"instrument":2,"program":28,"isDrum":false},{"pitch":50,"velocity":88,"startTime":99.62143012499999,"endTime":99.816384,"instrument":2,"program":28,"isDrum":false},{"pitch":57,"velocity":85,"startTime":99.901246275,"endTime":100.42418137500002,"instrument":2,"program":28,"isDrum":false},{"pitch":62,"velocity":101,"startTime":100.17188812500001,"endTime":101.18106112500001,"instrument":2,"program":28,"isDrum":false},{"pitch":50,"velocity":91,"startTime":100.176475275,"endTime":100.68106177500002,"instrument":2,"program":28,"isDrum":false},{"pitch":57,"velocity":100,"startTime":100.447117125,"endTime":100.928767875,"instrument":2,"program":28,"isDrum":false},{"pitch":50,"velocity":94,"startTime":100.72693327500002,"endTime":101.254455525,"instrument":2,"program":28,"isDrum":false},{"pitch":57,"velocity":81,"startTime":100.997575125,"endTime":101.29573987500001,"instrument":2,"program":28,"isDrum":false},{"pitch":50,"velocity":72,"startTime":101.26592340000002,"endTime":101.50216162500001,"instrument":2,"program":28,"isDrum":false},{"pitch":43,"velocity":72,"startTime":101.28427200000002,"endTime":101.48381302500002,"instrument":2,"program":28,"isDrum":false},{"pitch":50,"velocity":101,"startTime":101.55262027500001,"endTime":102.03427102500001,"instrument":2,"program":28,"isDrum":false},{"pitch":43,"velocity":86,"startTime":101.56408815,"endTime":101.77739062500001,"instrument":2,"program":28,"isDrum":false},{"pitch":57,"velocity":100,"startTime":101.827849275,"endTime":102.584729025,"instrument":2,"program":28,"isDrum":false},{"pitch":43,"velocity":86,"startTime":101.83931715,"endTime":102.281977125,"instrument":2,"program":28,"isDrum":false},{"pitch":50,"velocity":88,"startTime":102.103078275,"endTime":102.82555440000002,"instrument":2,"program":28,"isDrum":false},{"pitch":43,"velocity":82,"startTime":102.373720125,"endTime":103.456287525,"instrument":2,"program":28,"isDrum":false},{"pitch":59,"velocity":103,"startTime":102.37830727500003,"endTime":103.53656265000001,"instrument":2,"program":28,"isDrum":false},{"pitch":57,"velocity":89,"startTime":102.6420684,"endTime":103.11913200000001,"instrument":2,"program":28,"isDrum":false},{"pitch":50,"velocity":99,"startTime":102.93564600000002,"endTime":103.68564502500001,"instrument":2,"program":28,"isDrum":false},{"pitch":57,"velocity":72,"startTime":103.20399427500001,"endTime":103.979222625,"instrument":2,"program":28,"isDrum":false},{"pitch":43,"velocity":83,"startTime":103.47922327500001,"endTime":103.63518637500002,"instrument":2,"program":28,"isDrum":false},{"pitch":43,"velocity":90,"startTime":103.754452275,"endTime":103.915002525,"instrument":2,"program":28,"isDrum":false},{"pitch":50,"velocity":97,"startTime":103.76133300000001,"endTime":104.16729577500001,"instrument":2,"program":28,"isDrum":false},{"pitch":57,"velocity":103,"startTime":104.029681275,"endTime":104.77509315,"instrument":2,"program":28,"isDrum":false},{"pitch":43,"velocity":86,"startTime":104.04114915,"endTime":104.49527700000002,"instrument":2,"program":28,"isDrum":false},{"pitch":50,"velocity":89,"startTime":104.311791,"endTime":105.06179002500002,"instrument":2,"program":28,"isDrum":false},{"pitch":59,"velocity":103,"startTime":104.575552125,"endTime":105.71545890000002,"instrument":2,"program":28,"isDrum":false},{"pitch":43,"velocity":75,"startTime":104.58702,"endTime":105.5319729,"instrument":2,"program":28,"isDrum":false},{"pitch":57,"velocity":89,"startTime":104.85536827500002,"endTime":105.33701902500002,"instrument":2,"program":28,"isDrum":false},{"pitch":50,"velocity":100,"startTime":105.14206515000001,"endTime":105.84848625000001,"instrument":2,"program":28,"isDrum":false},{"pitch":57,"velocity":72,"startTime":105.41729415,"endTime":106.19252250000002,"instrument":2,"program":28,"isDrum":false},{"pitch":43,"velocity":81,"startTime":105.69252315,"endTime":105.72233962500002,"instrument":2,"program":28,"isDrum":false},{"pitch":50,"velocity":96,"startTime":105.963165,"endTime":106.4494029,"instrument":2,"program":28,"isDrum":false},{"pitch":43,"velocity":80,"startTime":105.963165,"endTime":106.135183125,"instrument":2,"program":28,"isDrum":false},{"pitch":57,"velocity":92,"startTime":106.238394,"endTime":106.98380587500003,"instrument":2,"program":28,"isDrum":false},{"pitch":43,"velocity":82,"startTime":106.24298114999999,"endTime":106.68564112500002,"instrument":2,"program":28,"isDrum":false},{"pitch":50,"velocity":77,"startTime":106.51821015000002,"endTime":107.22463125000002,"instrument":2,"program":28,"isDrum":false},{"pitch":59,"velocity":99,"startTime":106.78885200000002,"endTime":107.80261214999999,"instrument":2,"program":28,"isDrum":false},{"pitch":43,"velocity":76,"startTime":106.79343915000001,"endTime":107.84389650000003,"instrument":2,"program":28,"isDrum":false},{"pitch":57,"velocity":86,"startTime":107.05720027500001,"endTime":107.511328125,"instrument":2,"program":28,"isDrum":false},{"pitch":50,"velocity":91,"startTime":107.33931000000001,"endTime":108.089309025,"instrument":2,"program":28,"isDrum":false},{"pitch":57,"velocity":86,"startTime":107.61912615,"endTime":108.3760059,"instrument":2,"program":28,"isDrum":false},{"pitch":43,"velocity":88,"startTime":107.882887275,"endTime":108.05490540000002,"instrument":2,"program":28,"isDrum":false},{"pitch":50,"velocity":98,"startTime":108.164997,"endTime":108.65123489999999,"instrument":2,"program":28,"isDrum":false},{"pitch":43,"velocity":89,"startTime":108.16958414999999,"endTime":108.39894165000001,"instrument":2,"program":28,"isDrum":false},{"pitch":57,"velocity":105,"startTime":108.440226,"endTime":109.19022502500002,"instrument":2,"program":28,"isDrum":false},{"pitch":43,"velocity":79,"startTime":108.440226,"endTime":108.88059240000001,"instrument":2,"program":28,"isDrum":false},{"pitch":50,"velocity":94,"startTime":108.71545500000002,"endTime":109.442518275,"instrument":2,"program":28,"isDrum":false},{"pitch":43,"velocity":78,"startTime":108.99527115000001,"endTime":110.10765502499999,"instrument":2,"program":28,"isDrum":false},{"pitch":59,"velocity":79,"startTime":108.99527115000001,"endTime":109.94251762500002,"instrument":2,"program":28,"isDrum":false},{"pitch":57,"velocity":88,"startTime":109.25903227500001,"endTime":109.72921514999999,"instrument":2,"program":28,"isDrum":false},{"pitch":50,"velocity":105,"startTime":109.54114200000001,"endTime":110.194810875,"instrument":2,"program":28,"isDrum":false},{"pitch":57,"velocity":92,"startTime":109.816371,"endTime":110.27508599999999,"instrument":2,"program":28,"isDrum":false},{"pitch":40,"velocity":96,"startTime":110.08471927500003,"endTime":110.291141025,"instrument":2,"program":28,"isDrum":false},{"pitch":40,"velocity":93,"startTime":110.35536112500003,"endTime":110.584718625,"instrument":2,"program":28,"isDrum":false},{"pitch":47,"velocity":77,"startTime":110.366829,"endTime":110.83701187500003,"instrument":2,"program":28,"isDrum":false},{"pitch":54,"velocity":104,"startTime":110.63517727500002,"endTime":111.39893775000002,"instrument":2,"program":28,"isDrum":false},{"pitch":40,"velocity":83,"startTime":110.63517727500002,"endTime":111.139763775,"instrument":2,"program":28,"isDrum":false},{"pitch":47,"velocity":91,"startTime":110.90581912500002,"endTime":111.65581814999999,"instrument":2,"program":28,"isDrum":false},{"pitch":55,"velocity":105,"startTime":111.19251600000001,"endTime":112.217744025,"instrument":2,"program":28,"isDrum":false},{"pitch":40,"velocity":84,"startTime":111.19251600000001,"endTime":112.2750834,"instrument":2,"program":28,"isDrum":false},{"pitch":54,"velocity":88,"startTime":111.46774500000001,"endTime":111.94939575000001,"instrument":2,"program":28,"isDrum":false},{"pitch":47,"velocity":94,"startTime":111.74756115,"endTime":112.45856940000002,"instrument":2,"program":28,"isDrum":false},{"pitch":54,"velocity":82,"startTime":112.01132227500003,"endTime":112.76361487500003,"instrument":2,"program":28,"isDrum":false},{"pitch":40,"velocity":86,"startTime":112.29801915000002,"endTime":112.47691799999998,"instrument":2,"program":28,"isDrum":false},{"pitch":40,"velocity":88,"startTime":112.56178027500002,"endTime":112.78655062499999,"instrument":2,"program":28,"isDrum":false},{"pitch":47,"velocity":96,"startTime":112.56178027500002,"endTime":113.020495275,"instrument":2,"program":28,"isDrum":false},{"pitch":54,"velocity":101,"startTime":112.82095425,"endTime":113.58242114999999,"instrument":2,"program":28,"isDrum":false},{"pitch":40,"velocity":84,"startTime":112.83700927500001,"endTime":113.32554075000002,"instrument":2,"program":28,"isDrum":false},{"pitch":47,"velocity":98,"startTime":113.11911900000001,"endTime":113.85765014999998,"instrument":2,"program":28,"isDrum":false},{"pitch":55,"velocity":106,"startTime":113.39434800000001,"endTime":114.65581425000002,"instrument":2,"program":28,"isDrum":false},{"pitch":40,"velocity":80,"startTime":113.39434800000001,"endTime":114.373704525,"instrument":2,"program":28,"isDrum":false},{"pitch":54,"velocity":101,"startTime":113.662696275,"endTime":114.10535625000003,"instrument":2,"program":28,"isDrum":false},{"pitch":47,"velocity":96,"startTime":113.933338125,"endTime":114.369117375,"instrument":2,"program":28,"isDrum":false},{"pitch":54,"velocity":90,"startTime":114.21315427500002,"endTime":114.465447525,"instrument":2,"program":28,"isDrum":false},{"pitch":48,"velocity":105,"startTime":114.48838327500002,"endTime":114.66040140000001,"instrument":2,"program":28,"isDrum":false},{"pitch":48,"velocity":84,"startTime":114.76361227500001,"endTime":114.97003402500002,"instrument":2,"program":28,"isDrum":false},{"pitch":55,"velocity":104,"startTime":114.77049300000002,"endTime":115.24067587500002,"instrument":2,"program":28,"isDrum":false},{"pitch":48,"velocity":96,"startTime":115.02737339999999,"endTime":115.492969125,"instrument":2,"program":28,"isDrum":false},{"pitch":62,"velocity":104,"startTime":115.03884127500001,"endTime":115.61223502499999,"instrument":2,"program":28,"isDrum":false},{"pitch":55,"velocity":90,"startTime":115.314070275,"endTime":115.86452827500003,"instrument":2,"program":28,"isDrum":false},{"pitch":60,"velocity":102,"startTime":115.57783139999998,"endTime":116.58241725000002,"instrument":2,"program":28,"isDrum":false},{"pitch":48,"velocity":86,"startTime":115.589299275,"endTime":116.13975727500002,"instrument":2,"program":28,"isDrum":false},{"pitch":55,"velocity":100,"startTime":115.871409,"endTime":116.10535365000001,"instrument":2,"program":28,"isDrum":false},{"pitch":48,"velocity":84,"startTime":116.146638,"endTime":116.61682087500003,"instrument":2,"program":28,"isDrum":false},{"pitch":55,"velocity":92,"startTime":116.41039912500003,"endTime":116.86911412500001,"instrument":2,"program":28,"isDrum":false},{"pitch":50,"velocity":108,"startTime":116.69021527500001,"endTime":116.873701275,"instrument":2,"program":28,"isDrum":false},{"pitch":50,"velocity":96,"startTime":116.97232500000001,"endTime":117.76819552500001,"instrument":2,"program":28,"isDrum":false},{"pitch":57,"velocity":89,"startTime":116.97232500000001,"endTime":117.419572125,"instrument":2,"program":28,"isDrum":false},{"pitch":64,"velocity":106,"startTime":117.240673275,"endTime":118.54801102500002,"instrument":2,"program":28,"isDrum":false},{"pitch":57,"velocity":88,"startTime":117.515902275,"endTime":118.06636027500002,"instrument":2,"program":28,"isDrum":false},{"pitch":62,"velocity":104,"startTime":117.80259914999999,"endTime":118.31406637500001,"instrument":2,"program":28,"isDrum":false},{"pitch":50,"velocity":86,"startTime":117.809479875,"endTime":118.34158927500002,"instrument":2,"program":28,"isDrum":false},{"pitch":57,"velocity":88,"startTime":118.07782815000002,"endTime":118.57094677499998,"instrument":2,"program":28,"isDrum":false},{"pitch":50,"velocity":100,"startTime":118.34847000000002,"endTime":118.81865287500003,"instrument":2,"program":28,"isDrum":false},{"pitch":57,"velocity":81,"startTime":118.62828615000001,"endTime":118.95626737500001,"instrument":2,"program":28,"isDrum":false},{"pitch":43,"velocity":87,"startTime":118.89204727500001,"endTime":119.09388187500002,"instrument":2,"program":28,"isDrum":false},{"pitch":50,"velocity":99,"startTime":119.17415700000001,"endTime":119.648927025,"instrument":2,"program":28,"isDrum":false},{"pitch":43,"velocity":86,"startTime":119.17874415,"endTime":119.396633775,"instrument":2,"program":28,"isDrum":false},{"pitch":57,"velocity":104,"startTime":119.442505275,"endTime":120.21085289999999,"instrument":2,"program":28,"isDrum":false},{"pitch":43,"velocity":83,"startTime":119.449386,"endTime":119.95397250000002,"instrument":2,"program":28,"isDrum":false},{"pitch":50,"velocity":109,"startTime":119.71773427500003,"endTime":120.47002687500003,"instrument":2,"program":28,"isDrum":false},{"pitch":59,"velocity":104,"startTime":119.99296327500002,"endTime":121.02507202500001,"instrument":2,"program":28,"isDrum":false},{"pitch":43,"velocity":68,"startTime":119.999844,"endTime":121.07782424999999,"instrument":2,"program":28,"isDrum":false},{"pitch":57,"velocity":91,"startTime":120.27507300000002,"endTime":120.74525587500003,"instrument":2,"program":28,"isDrum":false},{"pitch":50,"velocity":108,"startTime":120.54342127500001,"endTime":121.30718175000001,"instrument":2,"program":28,"isDrum":false},{"pitch":57,"velocity":84,"startTime":120.82553100000001,"endTime":121.12369575000002,"instrument":2,"program":28,"isDrum":false},{"pitch":43,"velocity":78,"startTime":121.10534715,"endTime":121.3117689,"instrument":2,"program":28,"isDrum":false},{"pitch":50,"velocity":107,"startTime":121.375989,"endTime":121.84617187500001,"instrument":2,"program":28,"isDrum":false},{"pitch":43,"velocity":90,"startTime":121.375989,"endTime":121.58241075000001,"instrument":2,"program":28,"isDrum":false},{"pitch":57,"velocity":92,"startTime":121.64433727500003,"endTime":122.40121702500002,"instrument":2,"program":28,"isDrum":false},{"pitch":43,"velocity":84,"startTime":121.651218,"endTime":122.14892377499999,"instrument":2,"program":28,"isDrum":false},{"pitch":50,"velocity":103,"startTime":121.926447,"endTime":122.67644602500002,"instrument":2,"program":28,"isDrum":false},{"pitch":43,"velocity":84,"startTime":122.20167600000002,"endTime":123.1925004,"instrument":2,"program":28,"isDrum":false},{"pitch":59,"velocity":108,"startTime":122.20167600000002,"endTime":122.47002427500001,"instrument":2,"program":28,"isDrum":false},{"pitch":57,"velocity":101,"startTime":122.47690500000002,"endTime":123.00901439999998,"instrument":2,"program":28,"isDrum":false},{"pitch":50,"velocity":94,"startTime":122.75213400000001,"endTime":123.25672050000003,"instrument":2,"program":28,"isDrum":false},{"pitch":57,"velocity":85,"startTime":123.020482275,"endTime":123.295711275,"instrument":2,"program":28,"isDrum":false},{"pitch":43,"velocity":103,"startTime":123.30717915,"endTime":123.85305,"instrument":2,"program":28,"isDrum":false},{"pitch":50,"velocity":95,"startTime":123.577821,"endTime":124.05259102500003,"instrument":2,"program":28,"isDrum":false},{"pitch":57,"velocity":108,"startTime":123.84616927500002,"endTime":124.60992975000002,"instrument":2,"program":28,"isDrum":false},{"pitch":43,"velocity":79,"startTime":123.85305,"endTime":124.32323287500003,"instrument":2,"program":28,"isDrum":false},{"pitch":50,"velocity":78,"startTime":124.12827900000002,"endTime":124.87827802500001,"instrument":2,"program":28,"isDrum":false},{"pitch":43,"velocity":79,"startTime":124.39204012500002,"endTime":125.47460752500001,"instrument":2,"program":28,"isDrum":false},{"pitch":59,"velocity":97,"startTime":124.40350800000002,"endTime":125.589286275,"instrument":2,"program":28,"isDrum":false},{"pitch":57,"velocity":84,"startTime":124.67185627500001,"endTime":125.16038775000001,"instrument":2,"program":28,"isDrum":false},{"pitch":50,"velocity":76,"startTime":124.95396600000001,"endTime":125.73378150000002,"instrument":2,"program":28,"isDrum":false},{"pitch":57,"velocity":72,"startTime":125.222314275,"endTime":125.98607475,"instrument":2,"program":28,"isDrum":false},{"pitch":43,"velocity":75,"startTime":125.49754327500003,"endTime":125.77277227500002,"instrument":2,"program":28,"isDrum":false},{"pitch":50,"velocity":94,"startTime":125.779653,"endTime":126.24983587500003,"instrument":2,"program":28,"isDrum":false},{"pitch":43,"velocity":76,"startTime":125.78424015000002,"endTime":126.00212977499999,"instrument":2,"program":28,"isDrum":false},{"pitch":57,"velocity":93,"startTime":126.04800127500002,"endTime":126.80029387500002,"instrument":2,"program":28,"isDrum":false},{"pitch":43,"velocity":82,"startTime":126.05946915000001,"endTime":126.52506487500003,"instrument":2,"program":28,"isDrum":false},{"pitch":50,"velocity":74,"startTime":126.33469815000001,"endTime":127.08011002500001,"instrument":2,"program":28,"isDrum":false},{"pitch":43,"velocity":79,"startTime":126.59845927500001,"endTime":127.60763227500001,"instrument":2,"program":28,"isDrum":false},{"pitch":59,"velocity":84,"startTime":126.60534000000001,"endTime":127.77965040000001,"instrument":2,"program":28,"isDrum":false},{"pitch":57,"velocity":72,"startTime":126.873688275,"endTime":127.373687625,"instrument":2,"program":28,"isDrum":false},{"pitch":50,"velocity":83,"startTime":127.155798,"endTime":127.76818252500001,"instrument":2,"program":28,"isDrum":false},{"pitch":57,"velocity":80,"startTime":127.43561414999999,"endTime":127.87139340000002,"instrument":2,"program":28,"isDrum":false},{"pitch":40,"velocity":81,"startTime":127.69478812500003,"endTime":127.98607215000001,"instrument":2,"program":28,"isDrum":false},{"pitch":47,"velocity":96,"startTime":127.98148500000002,"endTime":128.45625502500002,"instrument":2,"program":28,"isDrum":false},{"pitch":40,"velocity":87,"startTime":127.98607215000001,"endTime":128.20396177499998,"instrument":2,"program":28,"isDrum":false},{"pitch":54,"velocity":92,"startTime":128.24983327500001,"endTime":128.754419775,"instrument":2,"program":28,"isDrum":false},{"pitch":40,"velocity":76,"startTime":128.25671400000002,"endTime":128.6970804,"instrument":2,"program":28,"isDrum":false},{"pitch":47,"velocity":83,"startTime":128.52047512500002,"endTime":128.818639875,"instrument":2,"program":28,"isDrum":false},{"pitch":55,"velocity":94,"startTime":128.807172,"endTime":130.96771965000002,"instrument":2,"program":28,"isDrum":false},{"pitch":40,"velocity":81,"startTime":128.807172,"endTime":129.86680365,"instrument":2,"program":28,"isDrum":false},{"pitch":54,"velocity":84,"startTime":129.082401,"endTime":129.35074927500003,"instrument":2,"program":28,"isDrum":false},{"pitch":47,"velocity":84,"startTime":129.35074927500003,"endTime":130.1374455,"instrument":2,"program":28,"isDrum":false},{"pitch":54,"velocity":85,"startTime":129.62597827500002,"endTime":130.061757525,"instrument":2,"program":28,"isDrum":false},{"pitch":40,"velocity":82,"startTime":129.90808800000002,"endTime":130.428729525,"instrument":2,"program":28,"isDrum":false},{"pitch":47,"velocity":93,"startTime":130.18790415,"endTime":130.6879035,"instrument":2,"program":28,"isDrum":false},{"pitch":54,"velocity":100,"startTime":130.458546,"endTime":131.231480775,"instrument":2,"program":28,"isDrum":false},{"pitch":40,"velocity":83,"startTime":130.46313315,"endTime":130.6879035,"instrument":2,"program":28,"isDrum":false},{"pitch":47,"velocity":97,"startTime":130.733775,"endTime":131.479186875,"instrument":2,"program":28,"isDrum":false},{"pitch":40,"velocity":81,"startTime":131.009004,"endTime":131.364508125,"instrument":2,"program":28,"isDrum":false},{"pitch":55,"velocity":102,"startTime":131.01359115,"endTime":132.263589525,"instrument":2,"program":28,"isDrum":false},{"pitch":54,"velocity":71,"startTime":131.284233,"endTime":131.6970765,"instrument":2,"program":28,"isDrum":false},{"pitch":47,"velocity":81,"startTime":131.559462,"endTime":132.08698425,"instrument":2,"program":28,"isDrum":false},{"pitch":54,"velocity":82,"startTime":131.83469100000002,"endTime":132.10303927500001,"instrument":2,"program":28,"isDrum":false},{"pitch":48,"velocity":79,"startTime":132.11450715,"endTime":132.29799315,"instrument":2,"program":28,"isDrum":false},{"pitch":55,"velocity":104,"startTime":132.378268275,"endTime":132.8713869,"instrument":2,"program":28,"isDrum":false},{"pitch":48,"velocity":91,"startTime":132.385149,"endTime":132.5502864,"instrument":2,"program":28,"isDrum":false},{"pitch":62,"velocity":103,"startTime":132.64891012500001,"endTime":133.6970739,"instrument":2,"program":28,"isDrum":false},{"pitch":48,"velocity":89,"startTime":132.660378,"endTime":133.135148025,"instrument":2,"program":28,"isDrum":false},{"pitch":55,"velocity":93,"startTime":132.94019415,"endTime":133.433312775,"instrument":2,"program":28,"isDrum":false},{"pitch":48,"velocity":92,"startTime":133.20395527500003,"endTime":133.75441327500002,"instrument":2,"program":28,"isDrum":false},{"pitch":60,"velocity":100,"startTime":133.210836,"endTime":134.1741375,"instrument":2,"program":28,"isDrum":false},{"pitch":55,"velocity":85,"startTime":133.47918427500002,"endTime":133.99523865,"instrument":2,"program":28,"isDrum":false},{"pitch":48,"velocity":94,"startTime":133.76129400000002,"endTime":134.190192525,"instrument":2,"program":28,"isDrum":false},{"pitch":55,"velocity":72,"startTime":134.02964227500001,"endTime":134.51129302500001,"instrument":2,"program":28,"isDrum":false},{"pitch":50,"velocity":100,"startTime":134.31633915,"endTime":134.580100275,"instrument":2,"program":28,"isDrum":false},{"pitch":50,"velocity":108,"startTime":134.586981,"endTime":134.72459550000002,"instrument":2,"program":28,"isDrum":false},{"pitch":57,"velocity":89,"startTime":134.586981,"endTime":134.9080815,"instrument":2,"program":28,"isDrum":false},{"pitch":64,"velocity":103,"startTime":134.84386139999998,"endTime":135.864502275,"instrument":2,"program":28,"isDrum":false},{"pitch":50,"velocity":88,"startTime":134.850742125,"endTime":135.045696,"instrument":2,"program":28,"isDrum":false},{"pitch":57,"velocity":85,"startTime":135.13055827500003,"endTime":135.653493375,"instrument":2,"program":28,"isDrum":false},{"pitch":62,"velocity":101,"startTime":135.40120012500003,"endTime":136.410373125,"instrument":2,"program":28,"isDrum":false},{"pitch":50,"velocity":91,"startTime":135.40578727500002,"endTime":135.91037377499998,"instrument":2,"program":28,"isDrum":false},{"pitch":57,"velocity":100,"startTime":135.67642912500003,"endTime":136.15807987500003,"instrument":2,"program":28,"isDrum":false},{"pitch":50,"velocity":94,"startTime":135.95624527500001,"endTime":136.483767525,"instrument":2,"program":28,"isDrum":false},{"pitch":57,"velocity":81,"startTime":136.22688712500002,"endTime":136.525051875,"instrument":2,"program":28,"isDrum":false},{"pitch":50,"velocity":72,"startTime":136.49523539999998,"endTime":136.731473625,"instrument":2,"program":28,"isDrum":false},{"pitch":43,"velocity":72,"startTime":136.513584,"endTime":136.713125025,"instrument":2,"program":28,"isDrum":false},{"pitch":50,"velocity":101,"startTime":136.781932275,"endTime":137.263583025,"instrument":2,"program":28,"isDrum":false},{"pitch":43,"velocity":86,"startTime":136.79340015,"endTime":137.006702625,"instrument":2,"program":28,"isDrum":false},{"pitch":57,"velocity":100,"startTime":137.05716127500003,"endTime":137.81404102500002,"instrument":2,"program":28,"isDrum":false},{"pitch":43,"velocity":86,"startTime":137.06862915,"endTime":137.51128912500002,"instrument":2,"program":28,"isDrum":false},{"pitch":50,"velocity":88,"startTime":137.33239027500002,"endTime":138.0548664,"instrument":2,"program":28,"isDrum":false},{"pitch":43,"velocity":82,"startTime":137.60303212500003,"endTime":138.68559952500001,"instrument":2,"program":28,"isDrum":false},{"pitch":59,"velocity":103,"startTime":137.60761927500002,"endTime":138.76587465,"instrument":2,"program":28,"isDrum":false},{"pitch":57,"velocity":89,"startTime":137.8713804,"endTime":138.348444,"instrument":2,"program":28,"isDrum":false},{"pitch":50,"velocity":99,"startTime":138.164958,"endTime":138.914957025,"instrument":2,"program":28,"isDrum":false},{"pitch":57,"velocity":72,"startTime":138.433306275,"endTime":139.208534625,"instrument":2,"program":28,"isDrum":false},{"pitch":43,"velocity":83,"startTime":138.708535275,"endTime":138.864498375,"instrument":2,"program":28,"isDrum":false},{"pitch":43,"velocity":103,"startTime":138.72000315,"endTime":139.265874,"instrument":2,"program":28,"isDrum":false},{"pitch":50,"velocity":95,"startTime":138.990645,"endTime":139.46541502500003,"instrument":2,"program":28,"isDrum":false},{"pitch":57,"velocity":108,"startTime":139.25899327500002,"endTime":140.02275375000002,"instrument":2,"program":28,"isDrum":false},{"pitch":43,"velocity":79,"startTime":139.265874,"endTime":139.73605687500003,"instrument":2,"program":28,"isDrum":false},{"pitch":50,"velocity":78,"startTime":139.54110300000002,"endTime":140.29110202500001,"instrument":2,"program":28,"isDrum":false},{"pitch":43,"velocity":79,"startTime":139.80486412500002,"endTime":140.887431525,"instrument":2,"program":28,"isDrum":false},{"pitch":59,"velocity":97,"startTime":139.81633200000002,"endTime":141.002110275,"instrument":2,"program":28,"isDrum":false},{"pitch":57,"velocity":84,"startTime":140.084680275,"endTime":140.57321175,"instrument":2,"program":28,"isDrum":false},{"pitch":50,"velocity":76,"startTime":140.36679,"endTime":141.14660550000002,"instrument":2,"program":28,"isDrum":false},{"pitch":57,"velocity":72,"startTime":140.635138275,"endTime":141.39889875,"instrument":2,"program":28,"isDrum":false},{"pitch":43,"velocity":75,"startTime":140.91036727500003,"endTime":141.18559627500002,"instrument":2,"program":28,"isDrum":false},{"pitch":43,"velocity":103,"startTime":140.92183515,"endTime":141.46770600000002,"instrument":2,"program":28,"isDrum":false},{"pitch":50,"velocity":95,"startTime":141.192477,"endTime":141.66724702500002,"instrument":2,"program":28,"isDrum":false},{"pitch":57,"velocity":108,"startTime":141.46082527500002,"endTime":142.22458575000002,"instrument":2,"program":28,"isDrum":false},{"pitch":43,"velocity":79,"startTime":141.46770600000002,"endTime":141.93788887500003,"instrument":2,"program":28,"isDrum":false},{"pitch":50,"velocity":78,"startTime":141.74293500000002,"endTime":142.492934025,"instrument":2,"program":28,"isDrum":false},{"pitch":43,"velocity":79,"startTime":142.00669612500002,"endTime":143.089263525,"instrument":2,"program":28,"isDrum":false},{"pitch":59,"velocity":97,"startTime":142.018164,"endTime":143.203942275,"instrument":2,"program":28,"isDrum":false},{"pitch":57,"velocity":84,"startTime":142.286512275,"endTime":142.77504375,"instrument":2,"program":28,"isDrum":false},{"pitch":50,"velocity":76,"startTime":142.568622,"endTime":143.34843750000002,"instrument":2,"program":28,"isDrum":false},{"pitch":57,"velocity":72,"startTime":142.83697027500003,"endTime":143.60073075,"instrument":2,"program":28,"isDrum":false},{"pitch":43,"velocity":75,"startTime":143.11219927500002,"endTime":143.38742827500002,"instrument":2,"program":28,"isDrum":false},{"pitch":50,"velocity":94,"startTime":143.39430900000002,"endTime":143.86449187500003,"instrument":2,"program":28,"isDrum":false},{"pitch":43,"velocity":76,"startTime":143.39889615,"endTime":143.61678577499998,"instrument":2,"program":28,"isDrum":false},{"pitch":57,"velocity":93,"startTime":143.66265727500002,"endTime":144.41494987500002,"instrument":2,"program":28,"isDrum":false},{"pitch":43,"velocity":82,"startTime":143.67412515,"endTime":144.13972087500002,"instrument":2,"program":28,"isDrum":false},{"pitch":50,"velocity":74,"startTime":143.94935415,"endTime":144.694766025,"instrument":2,"program":28,"isDrum":false},{"pitch":43,"velocity":79,"startTime":144.213115275,"endTime":145.222288275,"instrument":2,"program":28,"isDrum":false},{"pitch":59,"velocity":84,"startTime":144.219996,"endTime":145.3943064,"instrument":2,"program":28,"isDrum":false},{"pitch":57,"velocity":72,"startTime":144.488344275,"endTime":144.988343625,"instrument":2,"program":28,"isDrum":false},{"pitch":50,"velocity":83,"startTime":144.770454,"endTime":145.382838525,"instrument":2,"program":28,"isDrum":false},{"pitch":57,"velocity":80,"startTime":145.05027015000002,"endTime":145.4860494,"instrument":2,"program":28,"isDrum":false},{"pitch":40,"velocity":81,"startTime":145.30944412500003,"endTime":145.60072815,"instrument":2,"program":28,"isDrum":false},{"pitch":47,"velocity":96,"startTime":145.59614100000002,"endTime":146.07091102500002,"instrument":2,"program":28,"isDrum":false},{"pitch":40,"velocity":87,"startTime":145.60072815,"endTime":145.818617775,"instrument":2,"program":28,"isDrum":false},{"pitch":54,"velocity":92,"startTime":145.864489275,"endTime":146.369075775,"instrument":2,"program":28,"isDrum":false},{"pitch":40,"velocity":76,"startTime":145.87137,"endTime":146.3117364,"instrument":2,"program":28,"isDrum":false},{"pitch":47,"velocity":83,"startTime":146.13513112500002,"endTime":146.433295875,"instrument":2,"program":28,"isDrum":false},{"pitch":55,"velocity":94,"startTime":146.421828,"endTime":148.58237565000002,"instrument":2,"program":28,"isDrum":false},{"pitch":40,"velocity":81,"startTime":146.421828,"endTime":147.48145965,"instrument":2,"program":28,"isDrum":false},{"pitch":54,"velocity":84,"startTime":146.697057,"endTime":146.96540527500002,"instrument":2,"program":28,"isDrum":false},{"pitch":47,"velocity":84,"startTime":146.96540527500002,"endTime":147.7521015,"instrument":2,"program":28,"isDrum":false},{"pitch":54,"velocity":85,"startTime":147.24063427500002,"endTime":147.676413525,"instrument":2,"program":28,"isDrum":false},{"pitch":40,"velocity":82,"startTime":147.52274400000002,"endTime":148.043385525,"instrument":2,"program":28,"isDrum":false},{"pitch":47,"velocity":93,"startTime":147.80256015,"endTime":148.30255950000003,"instrument":2,"program":28,"isDrum":false},{"pitch":54,"velocity":100,"startTime":148.073202,"endTime":148.846136775,"instrument":2,"program":28,"isDrum":false},{"pitch":40,"velocity":83,"startTime":148.07778915,"endTime":148.30255950000003,"instrument":2,"program":28,"isDrum":false},{"pitch":47,"velocity":97,"startTime":148.348431,"endTime":149.093842875,"instrument":2,"program":28,"isDrum":false},{"pitch":40,"velocity":81,"startTime":148.62366,"endTime":148.979164125,"instrument":2,"program":28,"isDrum":false},{"pitch":55,"velocity":102,"startTime":148.62824715,"endTime":149.87824552499998,"instrument":2,"program":28,"isDrum":false},{"pitch":54,"velocity":71,"startTime":148.898889,"endTime":149.3117325,"instrument":2,"program":28,"isDrum":false},{"pitch":47,"velocity":81,"startTime":149.17411800000002,"endTime":149.70164025,"instrument":2,"program":28,"isDrum":false},{"pitch":54,"velocity":82,"startTime":149.44934700000002,"endTime":149.717695275,"instrument":2,"program":28,"isDrum":false},{"pitch":48,"velocity":79,"startTime":149.72916315,"endTime":149.91264915,"instrument":2,"program":28,"isDrum":false},{"pitch":55,"velocity":104,"startTime":149.992924275,"endTime":150.4860429,"instrument":2,"program":28,"isDrum":false},{"pitch":48,"velocity":91,"startTime":149.999805,"endTime":150.1649424,"instrument":2,"program":28,"isDrum":false},{"pitch":62,"velocity":103,"startTime":150.263566125,"endTime":151.31172990000002,"instrument":2,"program":28,"isDrum":false},{"pitch":48,"velocity":89,"startTime":150.275034,"endTime":150.749804025,"instrument":2,"program":28,"isDrum":false},{"pitch":55,"velocity":93,"startTime":150.55485015,"endTime":151.047968775,"instrument":2,"program":28,"isDrum":false},{"pitch":48,"velocity":92,"startTime":150.81861127500002,"endTime":151.36906927500002,"instrument":2,"program":28,"isDrum":false},{"pitch":60,"velocity":100,"startTime":150.825492,"endTime":151.7887935,"instrument":2,"program":28,"isDrum":false},{"pitch":55,"velocity":85,"startTime":151.09384027500002,"endTime":151.60989465,"instrument":2,"program":28,"isDrum":false},{"pitch":48,"velocity":94,"startTime":151.37595000000002,"endTime":151.80484852499998,"instrument":2,"program":28,"isDrum":false},{"pitch":55,"velocity":72,"startTime":151.644298275,"endTime":152.125949025,"instrument":2,"program":28,"isDrum":false},{"pitch":50,"velocity":100,"startTime":151.93099515,"endTime":152.194756275,"instrument":2,"program":28,"isDrum":false},{"pitch":50,"velocity":108,"startTime":152.201637,"endTime":152.33925150000002,"instrument":2,"program":28,"isDrum":false},{"pitch":57,"velocity":89,"startTime":152.201637,"endTime":152.5227375,"instrument":2,"program":28,"isDrum":false},{"pitch":64,"velocity":103,"startTime":152.4585174,"endTime":153.479158275,"instrument":2,"program":28,"isDrum":false},{"pitch":50,"velocity":88,"startTime":152.465398125,"endTime":152.660352,"instrument":2,"program":28,"isDrum":false},{"pitch":57,"velocity":85,"startTime":152.74521427500002,"endTime":153.268149375,"instrument":2,"program":28,"isDrum":false},{"pitch":62,"velocity":101,"startTime":153.01585612500003,"endTime":154.025029125,"instrument":2,"program":28,"isDrum":false},{"pitch":50,"velocity":91,"startTime":153.02044327500002,"endTime":153.525029775,"instrument":2,"program":28,"isDrum":false},{"pitch":57,"velocity":100,"startTime":153.29108512500002,"endTime":153.77273587500002,"instrument":2,"program":28,"isDrum":false},{"pitch":50,"velocity":94,"startTime":153.570901275,"endTime":154.09842352500002,"instrument":2,"program":28,"isDrum":false},{"pitch":57,"velocity":81,"startTime":153.84154312500002,"endTime":154.139707875,"instrument":2,"program":28,"isDrum":false},{"pitch":50,"velocity":72,"startTime":154.10989139999998,"endTime":154.346129625,"instrument":2,"program":28,"isDrum":false},{"pitch":43,"velocity":72,"startTime":154.12824,"endTime":154.327781025,"instrument":2,"program":28,"isDrum":false},{"pitch":50,"velocity":101,"startTime":154.39658827500003,"endTime":154.87823902500003,"instrument":2,"program":28,"isDrum":false},{"pitch":43,"velocity":86,"startTime":154.40805615,"endTime":154.621358625,"instrument":2,"program":28,"isDrum":false},{"pitch":57,"velocity":100,"startTime":154.67181727500002,"endTime":155.42869702500002,"instrument":2,"program":28,"isDrum":false},{"pitch":43,"velocity":86,"startTime":154.68328515000002,"endTime":155.12594512500002,"instrument":2,"program":28,"isDrum":false},{"pitch":50,"velocity":88,"startTime":154.94704627500002,"endTime":155.6695224,"instrument":2,"program":28,"isDrum":false},{"pitch":43,"velocity":82,"startTime":155.21768812500002,"endTime":156.300255525,"instrument":2,"program":28,"isDrum":false},{"pitch":59,"velocity":103,"startTime":155.22227527500002,"endTime":156.38053065,"instrument":2,"program":28,"isDrum":false},{"pitch":57,"velocity":89,"startTime":155.4860364,"endTime":155.9631,"instrument":2,"program":28,"isDrum":false},{"pitch":50,"velocity":99,"startTime":155.779614,"endTime":156.529613025,"instrument":2,"program":28,"isDrum":false},{"pitch":57,"velocity":72,"startTime":156.047962275,"endTime":156.823190625,"instrument":2,"program":28,"isDrum":false},{"pitch":43,"velocity":83,"startTime":156.32319127500003,"endTime":156.479154375,"instrument":2,"program":28,"isDrum":false},{"pitch":43,"velocity":103,"startTime":156.33465915,"endTime":156.88053000000002,"instrument":2,"program":28,"isDrum":false},{"pitch":50,"velocity":95,"startTime":156.605301,"endTime":157.08007102500002,"instrument":2,"program":28,"isDrum":false},{"pitch":57,"velocity":108,"startTime":156.87364927500002,"endTime":157.63740975000002,"instrument":2,"program":28,"isDrum":false},{"pitch":43,"velocity":79,"startTime":156.88053000000002,"endTime":157.35071287500003,"instrument":2,"program":28,"isDrum":false},{"pitch":50,"velocity":78,"startTime":157.15575900000002,"endTime":157.905758025,"instrument":2,"program":28,"isDrum":false},{"pitch":43,"velocity":79,"startTime":157.41952012500002,"endTime":158.502087525,"instrument":2,"program":28,"isDrum":false},{"pitch":59,"velocity":97,"startTime":157.430988,"endTime":158.616766275,"instrument":2,"program":28,"isDrum":false},{"pitch":57,"velocity":84,"startTime":157.699336275,"endTime":158.18786775,"instrument":2,"program":28,"isDrum":false},{"pitch":50,"velocity":76,"startTime":157.981446,"endTime":158.76126150000002,"instrument":2,"program":28,"isDrum":false},{"pitch":57,"velocity":72,"startTime":158.24979427500003,"endTime":159.01355475,"instrument":2,"program":28,"isDrum":false},{"pitch":43,"velocity":75,"startTime":158.52502327500002,"endTime":158.80025227500002,"instrument":2,"program":28,"isDrum":false},{"pitch":43,"velocity":103,"startTime":158.53649115000002,"endTime":159.08236200000002,"instrument":2,"program":28,"isDrum":false},{"pitch":50,"velocity":95,"startTime":158.80713300000002,"endTime":159.28190302500002,"instrument":2,"program":28,"isDrum":false},{"pitch":57,"velocity":108,"startTime":159.07548127500002,"endTime":159.83924175,"instrument":2,"program":28,"isDrum":false},{"pitch":43,"velocity":79,"startTime":159.08236200000002,"endTime":159.55254487500002,"instrument":2,"program":28,"isDrum":false},{"pitch":50,"velocity":78,"startTime":159.357591,"endTime":160.107590025,"instrument":2,"program":28,"isDrum":false},{"pitch":43,"velocity":79,"startTime":159.62135212500002,"endTime":160.703919525,"instrument":2,"program":28,"isDrum":false},{"pitch":59,"velocity":97,"startTime":159.63282,"endTime":160.818598275,"instrument":2,"program":28,"isDrum":false},{"pitch":57,"velocity":84,"startTime":159.901168275,"endTime":160.38969975,"instrument":2,"program":28,"isDrum":false},{"pitch":50,"velocity":76,"startTime":160.183278,"endTime":160.9630935,"instrument":2,"program":28,"isDrum":false},{"pitch":57,"velocity":72,"startTime":160.45162627500002,"endTime":161.21538675000002,"instrument":2,"program":28,"isDrum":false},{"pitch":43,"velocity":75,"startTime":160.72685527500002,"endTime":161.00208427500002,"instrument":2,"program":28,"isDrum":false},{"pitch":50,"velocity":94,"startTime":161.00896500000002,"endTime":161.47914787500002,"instrument":2,"program":28,"isDrum":false},{"pitch":43,"velocity":76,"startTime":161.01355215,"endTime":161.231441775,"instrument":2,"program":28,"isDrum":false},{"pitch":57,"velocity":93,"startTime":161.277313275,"endTime":162.02960587500002,"instrument":2,"program":28,"isDrum":false},{"pitch":43,"velocity":82,"startTime":161.28878115,"endTime":161.75437687500002,"instrument":2,"program":28,"isDrum":false},{"pitch":50,"velocity":74,"startTime":161.56401015,"endTime":162.309422025,"instrument":2,"program":28,"isDrum":false},{"pitch":43,"velocity":79,"startTime":161.827771275,"endTime":162.836944275,"instrument":2,"program":28,"isDrum":false},{"pitch":59,"velocity":84,"startTime":161.834652,"endTime":163.0089624,"instrument":2,"program":28,"isDrum":false},{"pitch":57,"velocity":72,"startTime":162.10300027500003,"endTime":162.602999625,"instrument":2,"program":28,"isDrum":false},{"pitch":50,"velocity":83,"startTime":162.38511,"endTime":162.997494525,"instrument":2,"program":28,"isDrum":false},{"pitch":57,"velocity":80,"startTime":162.66492615,"endTime":163.1007054,"instrument":2,"program":28,"isDrum":false},{"pitch":40,"velocity":81,"startTime":162.92410012500002,"endTime":163.21538415,"instrument":2,"program":28,"isDrum":false},{"pitch":47,"velocity":96,"startTime":163.210797,"endTime":163.685567025,"instrument":2,"program":28,"isDrum":false},{"pitch":40,"velocity":87,"startTime":163.21538415,"endTime":163.433273775,"instrument":2,"program":28,"isDrum":false},{"pitch":54,"velocity":92,"startTime":163.479145275,"endTime":163.983731775,"instrument":2,"program":28,"isDrum":false},{"pitch":40,"velocity":76,"startTime":163.486026,"endTime":163.92639240000003,"instrument":2,"program":28,"isDrum":false},{"pitch":47,"velocity":83,"startTime":163.749787125,"endTime":164.047951875,"instrument":2,"program":28,"isDrum":false},{"pitch":55,"velocity":94,"startTime":164.036484,"endTime":166.19703165,"instrument":2,"program":28,"isDrum":false},{"pitch":40,"velocity":81,"startTime":164.036484,"endTime":165.09611565,"instrument":2,"program":28,"isDrum":false},{"pitch":54,"velocity":84,"startTime":164.311713,"endTime":164.58006127500002,"instrument":2,"program":28,"isDrum":false},{"pitch":47,"velocity":84,"startTime":164.58006127500002,"endTime":165.3667575,"instrument":2,"program":28,"isDrum":false},{"pitch":54,"velocity":85,"startTime":164.85529027500002,"endTime":165.29106952499998,"instrument":2,"program":28,"isDrum":false},{"pitch":40,"velocity":82,"startTime":165.1374,"endTime":165.65804152500002,"instrument":2,"program":28,"isDrum":false},{"pitch":47,"velocity":93,"startTime":165.41721615,"endTime":165.91721550000003,"instrument":2,"program":28,"isDrum":false},{"pitch":54,"velocity":100,"startTime":165.687858,"endTime":166.460792775,"instrument":2,"program":28,"isDrum":false},{"pitch":40,"velocity":83,"startTime":165.69244515,"endTime":165.91721550000003,"instrument":2,"program":28,"isDrum":false},{"pitch":47,"velocity":97,"startTime":165.963087,"endTime":166.70849887500003,"instrument":2,"program":28,"isDrum":false},{"pitch":40,"velocity":81,"startTime":166.238316,"endTime":166.593820125,"instrument":2,"program":28,"isDrum":false},{"pitch":55,"velocity":102,"startTime":166.24290315000002,"endTime":167.49290152499998,"instrument":2,"program":28,"isDrum":false},{"pitch":54,"velocity":71,"startTime":166.51354500000002,"endTime":166.9263885,"instrument":2,"program":28,"isDrum":false},{"pitch":47,"velocity":81,"startTime":166.78877400000002,"endTime":167.31629625,"instrument":2,"program":28,"isDrum":false},{"pitch":54,"velocity":82,"startTime":167.064003,"endTime":167.332351275,"instrument":2,"program":28,"isDrum":false},{"pitch":48,"velocity":79,"startTime":167.34381915,"endTime":167.52730515,"instrument":2,"program":28,"isDrum":false},{"pitch":55,"velocity":104,"startTime":167.607580275,"endTime":168.1006989,"instrument":2,"program":28,"isDrum":false},{"pitch":48,"velocity":91,"startTime":167.614461,"endTime":167.77959840000003,"instrument":2,"program":28,"isDrum":false},{"pitch":62,"velocity":103,"startTime":167.878222125,"endTime":168.9263859,"instrument":2,"program":28,"isDrum":false},{"pitch":48,"velocity":89,"startTime":167.88969,"endTime":168.36446002500003,"instrument":2,"program":28,"isDrum":false},{"pitch":55,"velocity":93,"startTime":168.16950615000002,"endTime":168.66262477499998,"instrument":2,"program":28,"isDrum":false},{"pitch":48,"velocity":92,"startTime":168.43326727500002,"endTime":168.983725275,"instrument":2,"program":28,"isDrum":false},{"pitch":60,"velocity":100,"startTime":168.44014800000002,"endTime":169.40344950000002,"instrument":2,"program":28,"isDrum":false},{"pitch":55,"velocity":85,"startTime":168.70849627500002,"endTime":169.22455065000003,"instrument":2,"program":28,"isDrum":false},{"pitch":48,"velocity":94,"startTime":168.990606,"endTime":169.41950452499998,"instrument":2,"program":28,"isDrum":false},{"pitch":55,"velocity":72,"startTime":169.258954275,"endTime":169.740605025,"instrument":2,"program":28,"isDrum":false},{"pitch":50,"velocity":100,"startTime":169.54565115,"endTime":169.80941227500003,"instrument":2,"program":28,"isDrum":false},{"pitch":50,"velocity":108,"startTime":169.816293,"endTime":169.9539075,"instrument":2,"program":28,"isDrum":false},{"pitch":57,"velocity":89,"startTime":169.816293,"endTime":170.1373935,"instrument":2,"program":28,"isDrum":false},{"pitch":64,"velocity":103,"startTime":170.0731734,"endTime":171.093814275,"instrument":2,"program":28,"isDrum":false},{"pitch":50,"velocity":88,"startTime":170.08005412500003,"endTime":170.27500799999999,"instrument":2,"program":28,"isDrum":false},{"pitch":57,"velocity":85,"startTime":170.35987027500002,"endTime":170.882805375,"instrument":2,"program":28,"isDrum":false},{"pitch":62,"velocity":101,"startTime":170.63051212500002,"endTime":171.639685125,"instrument":2,"program":28,"isDrum":false},{"pitch":50,"velocity":91,"startTime":170.63509927500002,"endTime":171.139685775,"instrument":2,"program":28,"isDrum":false},{"pitch":57,"velocity":100,"startTime":170.90574112500002,"endTime":171.38739187500002,"instrument":2,"program":28,"isDrum":false},{"pitch":50,"velocity":94,"startTime":171.185557275,"endTime":171.713079525,"instrument":2,"program":28,"isDrum":false},{"pitch":57,"velocity":81,"startTime":171.456199125,"endTime":171.754363875,"instrument":2,"program":28,"isDrum":false},{"pitch":50,"velocity":72,"startTime":171.7245474,"endTime":171.960785625,"instrument":2,"program":28,"isDrum":false},{"pitch":43,"velocity":72,"startTime":171.742896,"endTime":171.942437025,"instrument":2,"program":28,"isDrum":false},{"pitch":50,"velocity":101,"startTime":172.01124427500002,"endTime":172.49289502500002,"instrument":2,"program":28,"isDrum":false},{"pitch":43,"velocity":86,"startTime":172.02271215000002,"endTime":172.236014625,"instrument":2,"program":28,"isDrum":false},{"pitch":57,"velocity":100,"startTime":172.28647327500002,"endTime":173.04335302500002,"instrument":2,"program":28,"isDrum":false},{"pitch":43,"velocity":86,"startTime":172.29794115,"endTime":172.740601125,"instrument":2,"program":28,"isDrum":false},{"pitch":50,"velocity":88,"startTime":172.56170227500002,"endTime":173.2841784,"instrument":2,"program":28,"isDrum":false},{"pitch":43,"velocity":82,"startTime":172.83234412500002,"endTime":173.914911525,"instrument":2,"program":28,"isDrum":false},{"pitch":59,"velocity":103,"startTime":172.836931275,"endTime":173.99518665,"instrument":2,"program":28,"isDrum":false},{"pitch":57,"velocity":89,"startTime":173.10069239999999,"endTime":173.577756,"instrument":2,"program":28,"isDrum":false},{"pitch":50,"velocity":99,"startTime":173.39427,"endTime":174.14426902500003,"instrument":2,"program":28,"isDrum":false},{"pitch":57,"velocity":72,"startTime":173.66261827500003,"endTime":174.437846625,"instrument":2,"program":28,"isDrum":false},{"pitch":43,"velocity":83,"startTime":173.93784727500002,"endTime":174.093810375,"instrument":2,"program":28,"isDrum":false},{"pitch":43,"velocity":103,"startTime":173.94931515,"endTime":174.49518600000002,"instrument":2,"program":28,"isDrum":false},{"pitch":50,"velocity":95,"startTime":174.21995700000002,"endTime":174.69472702500002,"instrument":2,"program":28,"isDrum":false},{"pitch":57,"velocity":108,"startTime":174.48830527500002,"endTime":175.25206575,"instrument":2,"program":28,"isDrum":false},{"pitch":43,"velocity":79,"startTime":174.49518600000002,"endTime":174.96536887500002,"instrument":2,"program":28,"isDrum":false},{"pitch":50,"velocity":78,"startTime":174.770415,"endTime":175.520414025,"instrument":2,"program":28,"isDrum":false},{"pitch":43,"velocity":79,"startTime":175.03417612500002,"endTime":176.116743525,"instrument":2,"program":28,"isDrum":false},{"pitch":59,"velocity":97,"startTime":175.045644,"endTime":176.231422275,"instrument":2,"program":28,"isDrum":false},{"pitch":57,"velocity":84,"startTime":175.313992275,"endTime":175.80252375,"instrument":2,"program":28,"isDrum":false},{"pitch":50,"velocity":76,"startTime":175.596102,"endTime":176.3759175,"instrument":2,"program":28,"isDrum":false},{"pitch":57,"velocity":72,"startTime":175.86445027500002,"endTime":176.62821075,"instrument":2,"program":28,"isDrum":false},{"pitch":43,"velocity":75,"startTime":176.13967927500002,"endTime":176.41490827500002,"instrument":2,"program":28,"isDrum":false},{"pitch":43,"velocity":103,"startTime":176.15114715,"endTime":176.697018,"instrument":2,"program":28,"isDrum":false},{"pitch":50,"velocity":95,"startTime":176.42178900000002,"endTime":176.89655902500002,"instrument":2,"program":28,"isDrum":false},{"pitch":57,"velocity":108,"startTime":176.690137275,"endTime":177.45389775,"instrument":2,"program":28,"isDrum":false},{"pitch":43,"velocity":79,"startTime":176.697018,"endTime":177.16720087500002,"instrument":2,"program":28,"isDrum":false},{"pitch":50,"velocity":78,"startTime":176.972247,"endTime":177.722246025,"instrument":2,"program":28,"isDrum":false},{"pitch":43,"velocity":79,"startTime":177.236008125,"endTime":178.318575525,"instrument":2,"program":28,"isDrum":false},{"pitch":59,"velocity":97,"startTime":177.247476,"endTime":178.433254275,"instrument":2,"program":28,"isDrum":false},{"pitch":57,"velocity":84,"startTime":177.51582427500003,"endTime":178.00435575,"instrument":2,"program":28,"isDrum":false},{"pitch":50,"velocity":76,"startTime":177.797934,"endTime":178.5777495,"instrument":2,"program":28,"isDrum":false},{"pitch":57,"velocity":72,"startTime":178.06628227500002,"endTime":178.83004275000002,"instrument":2,"program":28,"isDrum":false},{"pitch":43,"velocity":75,"startTime":178.34151127500002,"endTime":178.616740275,"instrument":2,"program":28,"isDrum":false},{"pitch":50,"velocity":94,"startTime":178.623621,"endTime":179.09380387500002,"instrument":2,"program":28,"isDrum":false},{"pitch":43,"velocity":76,"startTime":178.62820815,"endTime":178.846097775,"instrument":2,"program":28,"isDrum":false},{"pitch":57,"velocity":93,"startTime":178.891969275,"endTime":179.644261875,"instrument":2,"program":28,"isDrum":false},{"pitch":43,"velocity":82,"startTime":178.90343715,"endTime":179.36903287500002,"instrument":2,"program":28,"isDrum":false},{"pitch":50,"velocity":74,"startTime":179.17866615,"endTime":179.92407802500003,"instrument":2,"program":28,"isDrum":false},{"pitch":43,"velocity":79,"startTime":179.44242727500003,"endTime":180.451600275,"instrument":2,"program":28,"isDrum":false},{"pitch":59,"velocity":84,"startTime":179.449308,"endTime":180.6236184,"instrument":2,"program":28,"isDrum":false},{"pitch":57,"velocity":72,"startTime":179.71765627500002,"endTime":180.217655625,"instrument":2,"program":28,"isDrum":false},{"pitch":50,"velocity":83,"startTime":179.999766,"endTime":180.612150525,"instrument":2,"program":28,"isDrum":false},{"pitch":57,"velocity":80,"startTime":180.27958215,"endTime":180.7153614,"instrument":2,"program":28,"isDrum":false},{"pitch":40,"velocity":81,"startTime":180.53875612500002,"endTime":180.83004015,"instrument":2,"program":28,"isDrum":false},{"pitch":47,"velocity":96,"startTime":180.825453,"endTime":181.300223025,"instrument":2,"program":28,"isDrum":false},{"pitch":40,"velocity":87,"startTime":180.83004015,"endTime":181.047929775,"instrument":2,"program":28,"isDrum":false},{"pitch":54,"velocity":92,"startTime":181.093801275,"endTime":181.598387775,"instrument":2,"program":28,"isDrum":false},{"pitch":40,"velocity":76,"startTime":181.100682,"endTime":181.54104840000002,"instrument":2,"program":28,"isDrum":false},{"pitch":47,"velocity":83,"startTime":181.364443125,"endTime":181.662607875,"instrument":2,"program":28,"isDrum":false},{"pitch":55,"velocity":94,"startTime":181.65114,"endTime":183.81168765,"instrument":2,"program":28,"isDrum":false},{"pitch":40,"velocity":81,"startTime":181.65114,"endTime":182.71077165000003,"instrument":2,"program":28,"isDrum":false},{"pitch":54,"velocity":84,"startTime":181.926369,"endTime":182.19471727500002,"instrument":2,"program":28,"isDrum":false},{"pitch":47,"velocity":84,"startTime":182.19471727500002,"endTime":182.98141350000003,"instrument":2,"program":28,"isDrum":false},{"pitch":54,"velocity":85,"startTime":182.469946275,"endTime":182.90572552499998,"instrument":2,"program":28,"isDrum":false},{"pitch":40,"velocity":82,"startTime":182.752056,"endTime":183.272697525,"instrument":2,"program":28,"isDrum":false},{"pitch":47,"velocity":93,"startTime":183.03187215,"endTime":183.53187150000002,"instrument":2,"program":28,"isDrum":false},{"pitch":54,"velocity":100,"startTime":183.302514,"endTime":184.07544877499998,"instrument":2,"program":28,"isDrum":false},{"pitch":40,"velocity":83,"startTime":183.30710115,"endTime":183.53187150000002,"instrument":2,"program":28,"isDrum":false},{"pitch":47,"velocity":97,"startTime":183.577743,"endTime":184.32315487500003,"instrument":2,"program":28,"isDrum":false},{"pitch":40,"velocity":81,"startTime":183.852972,"endTime":184.208476125,"instrument":2,"program":28,"isDrum":false},{"pitch":55,"velocity":102,"startTime":183.85755915000001,"endTime":185.107557525,"instrument":2,"program":28,"isDrum":false},{"pitch":54,"velocity":71,"startTime":184.12820100000002,"endTime":184.5410445,"instrument":2,"program":28,"isDrum":false},{"pitch":47,"velocity":81,"startTime":184.40343000000001,"endTime":184.93095225,"instrument":2,"program":28,"isDrum":false},{"pitch":54,"velocity":82,"startTime":184.678659,"endTime":184.947007275,"instrument":2,"program":28,"isDrum":false},{"pitch":48,"velocity":79,"startTime":184.95847515,"endTime":185.14196115,"instrument":2,"program":28,"isDrum":false},{"pitch":55,"velocity":104,"startTime":185.222236275,"endTime":185.7153549,"instrument":2,"program":28,"isDrum":false},{"pitch":48,"velocity":91,"startTime":185.229117,"endTime":185.39425440000002,"instrument":2,"program":28,"isDrum":false},{"pitch":62,"velocity":103,"startTime":185.49287812500003,"endTime":186.5410419,"instrument":2,"program":28,"isDrum":false},{"pitch":48,"velocity":89,"startTime":185.504346,"endTime":185.97911602500002,"instrument":2,"program":28,"isDrum":false},{"pitch":55,"velocity":93,"startTime":185.78416215000001,"endTime":186.27728077499998,"instrument":2,"program":28,"isDrum":false},{"pitch":48,"velocity":92,"startTime":186.04792327500002,"endTime":186.598381275,"instrument":2,"program":28,"isDrum":false},{"pitch":60,"velocity":100,"startTime":186.05480400000002,"endTime":187.01810550000002,"instrument":2,"program":28,"isDrum":false},{"pitch":55,"velocity":85,"startTime":186.323152275,"endTime":186.83920665000002,"instrument":2,"program":28,"isDrum":false},{"pitch":48,"velocity":94,"startTime":186.605262,"endTime":187.034160525,"instrument":2,"program":28,"isDrum":false},{"pitch":55,"velocity":72,"startTime":186.873610275,"endTime":187.355261025,"instrument":2,"program":28,"isDrum":false},{"pitch":50,"velocity":100,"startTime":187.16030715,"endTime":187.42406827500002,"instrument":2,"program":28,"isDrum":false},{"pitch":50,"velocity":108,"startTime":187.430949,"endTime":187.5685635,"instrument":2,"program":28,"isDrum":false},{"pitch":57,"velocity":89,"startTime":187.430949,"endTime":187.7520495,"instrument":2,"program":28,"isDrum":false},{"pitch":64,"velocity":103,"startTime":187.6878294,"endTime":188.708470275,"instrument":2,"program":28,"isDrum":false},{"pitch":50,"velocity":88,"startTime":187.69471012500003,"endTime":187.889664,"instrument":2,"program":28,"isDrum":false},{"pitch":57,"velocity":85,"startTime":187.97452627500002,"endTime":188.497461375,"instrument":2,"program":28,"isDrum":false},{"pitch":62,"velocity":101,"startTime":188.24516812500002,"endTime":189.254341125,"instrument":2,"program":28,"isDrum":false},{"pitch":50,"velocity":91,"startTime":188.249755275,"endTime":188.754341775,"instrument":2,"program":28,"isDrum":false},{"pitch":57,"velocity":100,"startTime":188.52039712500002,"endTime":189.00204787500002,"instrument":2,"program":28,"isDrum":false},{"pitch":50,"velocity":94,"startTime":188.800213275,"endTime":189.327735525,"instrument":2,"program":28,"isDrum":false},{"pitch":57,"velocity":81,"startTime":189.070855125,"endTime":189.369019875,"instrument":2,"program":28,"isDrum":false},{"pitch":50,"velocity":72,"startTime":189.3392034,"endTime":189.575441625,"instrument":2,"program":28,"isDrum":false},{"pitch":43,"velocity":72,"startTime":189.357552,"endTime":189.557093025,"instrument":2,"program":28,"isDrum":false},{"pitch":50,"velocity":101,"startTime":189.62590027500002,"endTime":190.10755102500002,"instrument":2,"program":28,"isDrum":false},{"pitch":43,"velocity":86,"startTime":189.63736815000001,"endTime":189.850670625,"instrument":2,"program":28,"isDrum":false},{"pitch":57,"velocity":100,"startTime":189.90112927500002,"endTime":190.658009025,"instrument":2,"program":28,"isDrum":false},{"pitch":43,"velocity":86,"startTime":189.91259715,"endTime":190.355257125,"instrument":2,"program":28,"isDrum":false},{"pitch":50,"velocity":88,"startTime":190.176358275,"endTime":190.89883440000003,"instrument":2,"program":28,"isDrum":false},{"pitch":43,"velocity":82,"startTime":190.44700012500002,"endTime":191.529567525,"instrument":2,"program":28,"isDrum":false},{"pitch":59,"velocity":103,"startTime":190.451587275,"endTime":191.60984265,"instrument":2,"program":28,"isDrum":false},{"pitch":57,"velocity":89,"startTime":190.71534839999998,"endTime":191.192412,"instrument":2,"program":28,"isDrum":false},{"pitch":50,"velocity":99,"startTime":191.008926,"endTime":191.75892502500002,"instrument":2,"program":28,"isDrum":false},{"pitch":57,"velocity":72,"startTime":191.27727427500002,"endTime":192.052502625,"instrument":2,"program":28,"isDrum":false},{"pitch":43,"velocity":83,"startTime":191.55250327500002,"endTime":191.708466375,"instrument":2,"program":28,"isDrum":false},{"pitch":43,"velocity":103,"startTime":191.56397115000001,"endTime":192.10984200000001,"instrument":2,"program":28,"isDrum":false},{"pitch":50,"velocity":95,"startTime":191.83461300000002,"endTime":192.30938302500002,"instrument":2,"program":28,"isDrum":false},{"pitch":57,"velocity":108,"startTime":192.102961275,"endTime":192.86672175,"instrument":2,"program":28,"isDrum":false},{"pitch":43,"velocity":79,"startTime":192.10984200000001,"endTime":192.58002487500002,"instrument":2,"program":28,"isDrum":false},{"pitch":50,"velocity":78,"startTime":192.385071,"endTime":193.135070025,"instrument":2,"program":28,"isDrum":false},{"pitch":43,"velocity":79,"startTime":192.648832125,"endTime":193.731399525,"instrument":2,"program":28,"isDrum":false},{"pitch":59,"velocity":97,"startTime":192.6603,"endTime":193.846078275,"instrument":2,"program":28,"isDrum":false},{"pitch":57,"velocity":84,"startTime":192.928648275,"endTime":193.41717975,"instrument":2,"program":28,"isDrum":false},{"pitch":50,"velocity":76,"startTime":193.210758,"endTime":193.9905735,"instrument":2,"program":28,"isDrum":false},{"pitch":57,"velocity":72,"startTime":193.47910627500002,"endTime":194.24286675000002,"instrument":2,"program":28,"isDrum":false},{"pitch":43,"velocity":75,"startTime":193.75433527500002,"endTime":194.029564275,"instrument":2,"program":28,"isDrum":false},{"pitch":43,"velocity":103,"startTime":193.76580315,"endTime":194.311674,"instrument":2,"program":28,"isDrum":false},{"pitch":50,"velocity":95,"startTime":194.03644500000001,"endTime":194.511215025,"instrument":2,"program":28,"isDrum":false},{"pitch":57,"velocity":108,"startTime":194.304793275,"endTime":195.06855375,"instrument":2,"program":28,"isDrum":false},{"pitch":43,"velocity":79,"startTime":194.311674,"endTime":194.78185687500002,"instrument":2,"program":28,"isDrum":false},{"pitch":50,"velocity":78,"startTime":194.586903,"endTime":195.336902025,"instrument":2,"program":28,"isDrum":false},{"pitch":43,"velocity":79,"startTime":194.850664125,"endTime":195.933231525,"instrument":2,"program":28,"isDrum":false},{"pitch":59,"velocity":97,"startTime":194.862132,"endTime":196.047910275,"instrument":2,"program":28,"isDrum":false},{"pitch":57,"velocity":84,"startTime":195.13048027500002,"endTime":195.61901175,"instrument":2,"program":28,"isDrum":false},{"pitch":50,"velocity":76,"startTime":195.41259,"endTime":196.1924055,"instrument":2,"program":28,"isDrum":false},{"pitch":57,"velocity":72,"startTime":195.68093827500002,"endTime":196.44469875000001,"instrument":2,"program":28,"isDrum":false},{"pitch":43,"velocity":75,"startTime":195.956167275,"endTime":196.231396275,"instrument":2,"program":28,"isDrum":false},{"pitch":50,"velocity":94,"startTime":196.238277,"endTime":196.70845987500002,"instrument":2,"program":28,"isDrum":false},{"pitch":43,"velocity":76,"startTime":196.24286415,"endTime":196.460753775,"instrument":2,"program":28,"isDrum":false},{"pitch":57,"velocity":93,"startTime":196.506625275,"endTime":197.258917875,"instrument":2,"program":28,"isDrum":false},{"pitch":43,"velocity":82,"startTime":196.51809315,"endTime":196.983688875,"instrument":2,"program":28,"isDrum":false},{"pitch":50,"velocity":74,"startTime":196.79332215,"endTime":197.53873402500002,"instrument":2,"program":28,"isDrum":false},{"pitch":43,"velocity":79,"startTime":197.05708327500002,"endTime":198.066256275,"instrument":2,"program":28,"isDrum":false},{"pitch":59,"velocity":84,"startTime":197.063964,"endTime":198.2382744,"instrument":2,"program":28,"isDrum":false},{"pitch":57,"velocity":72,"startTime":197.33231227500002,"endTime":197.832311625,"instrument":2,"program":28,"isDrum":false},{"pitch":50,"velocity":83,"startTime":197.61442200000002,"endTime":198.226806525,"instrument":2,"program":28,"isDrum":false},{"pitch":57,"velocity":80,"startTime":197.89423815,"endTime":198.3300174,"instrument":2,"program":28,"isDrum":false},{"pitch":40,"velocity":81,"startTime":198.15341212500002,"endTime":198.44469615,"instrument":2,"program":28,"isDrum":false},{"pitch":47,"velocity":96,"startTime":198.440109,"endTime":198.914879025,"instrument":2,"program":28,"isDrum":false},{"pitch":40,"velocity":87,"startTime":198.44469615,"endTime":198.662585775,"instrument":2,"program":28,"isDrum":false},{"pitch":54,"velocity":92,"startTime":198.708457275,"endTime":199.213043775,"instrument":2,"program":28,"isDrum":false},{"pitch":40,"velocity":76,"startTime":198.715338,"endTime":199.15570440000002,"instrument":2,"program":28,"isDrum":false},{"pitch":47,"velocity":83,"startTime":198.979099125,"endTime":199.277263875,"instrument":2,"program":28,"isDrum":false},{"pitch":55,"velocity":94,"startTime":199.265796,"endTime":201.42634365,"instrument":2,"program":28,"isDrum":false},{"pitch":40,"velocity":81,"startTime":199.265796,"endTime":200.32542765000002,"instrument":2,"program":28,"isDrum":false},{"pitch":54,"velocity":84,"startTime":199.54102500000002,"endTime":199.809373275,"instrument":2,"program":28,"isDrum":false},{"pitch":47,"velocity":84,"startTime":199.809373275,"endTime":200.59606950000003,"instrument":2,"program":28,"isDrum":false},{"pitch":54,"velocity":85,"startTime":200.084602275,"endTime":200.520381525,"instrument":2,"program":28,"isDrum":false},{"pitch":40,"velocity":82,"startTime":200.366712,"endTime":200.887353525,"instrument":2,"program":28,"isDrum":false},{"pitch":47,"velocity":93,"startTime":200.64652815,"endTime":201.14652750000002,"instrument":2,"program":28,"isDrum":false},{"pitch":54,"velocity":100,"startTime":200.91717,"endTime":201.69010477499998,"instrument":2,"program":28,"isDrum":false},{"pitch":40,"velocity":83,"startTime":200.92175715,"endTime":201.14652750000002,"instrument":2,"program":28,"isDrum":false},{"pitch":47,"velocity":97,"startTime":201.192399,"endTime":201.93781087500003,"instrument":2,"program":28,"isDrum":false},{"pitch":40,"velocity":81,"startTime":201.46762800000002,"endTime":201.823132125,"instrument":2,"program":28,"isDrum":false},{"pitch":55,"velocity":102,"startTime":201.47221515,"endTime":202.722213525,"instrument":2,"program":28,"isDrum":false},{"pitch":54,"velocity":71,"startTime":201.74285700000001,"endTime":202.1557005,"instrument":2,"program":28,"isDrum":false},{"pitch":47,"velocity":81,"startTime":202.018086,"endTime":202.54560825,"instrument":2,"program":28,"isDrum":false},{"pitch":54,"velocity":82,"startTime":202.293315,"endTime":202.561663275,"instrument":2,"program":28,"isDrum":false},{"pitch":48,"velocity":79,"startTime":202.57313115,"endTime":202.75661714999998,"instrument":2,"program":28,"isDrum":false},{"pitch":55,"velocity":104,"startTime":202.83689227500003,"endTime":203.3300109,"instrument":2,"program":28,"isDrum":false},{"pitch":48,"velocity":91,"startTime":202.843773,"endTime":203.00891040000002,"instrument":2,"program":28,"isDrum":false},{"pitch":62,"velocity":103,"startTime":203.10753412500003,"endTime":204.1556979,"instrument":2,"program":28,"isDrum":false},{"pitch":48,"velocity":89,"startTime":203.119002,"endTime":203.59377202500002,"instrument":2,"program":28,"isDrum":false},{"pitch":55,"velocity":93,"startTime":203.39881815,"endTime":203.891936775,"instrument":2,"program":28,"isDrum":false},{"pitch":48,"velocity":92,"startTime":203.662579275,"endTime":204.213037275,"instrument":2,"program":28,"isDrum":false},{"pitch":60,"velocity":100,"startTime":203.66946000000002,"endTime":204.63276150000002,"instrument":2,"program":28,"isDrum":false},{"pitch":55,"velocity":85,"startTime":203.937808275,"endTime":204.45386265000002,"instrument":2,"program":28,"isDrum":false},{"pitch":48,"velocity":94,"startTime":204.219918,"endTime":204.648816525,"instrument":2,"program":28,"isDrum":false},{"pitch":55,"velocity":72,"startTime":204.488266275,"endTime":204.969917025,"instrument":2,"program":28,"isDrum":false},{"pitch":50,"velocity":100,"startTime":204.77496315,"endTime":205.03872427500002,"instrument":2,"program":28,"isDrum":false},{"pitch":50,"velocity":108,"startTime":205.045605,"endTime":205.1832195,"instrument":2,"program":28,"isDrum":false},{"pitch":57,"velocity":89,"startTime":205.045605,"endTime":205.3667055,"instrument":2,"program":28,"isDrum":false},{"pitch":64,"velocity":103,"startTime":205.3024854,"endTime":206.323126275,"instrument":2,"program":28,"isDrum":false},{"pitch":50,"velocity":88,"startTime":205.30936612500003,"endTime":205.50432,"instrument":2,"program":28,"isDrum":false},{"pitch":57,"velocity":85,"startTime":205.589182275,"endTime":206.112117375,"instrument":2,"program":28,"isDrum":false},{"pitch":62,"velocity":101,"startTime":205.85982412500002,"endTime":206.86899712500002,"instrument":2,"program":28,"isDrum":false},{"pitch":50,"velocity":91,"startTime":205.864411275,"endTime":206.368997775,"instrument":2,"program":28,"isDrum":false},{"pitch":57,"velocity":100,"startTime":206.135053125,"endTime":206.616703875,"instrument":2,"program":28,"isDrum":false},{"pitch":50,"velocity":94,"startTime":206.414869275,"endTime":206.942391525,"instrument":2,"program":28,"isDrum":false},{"pitch":57,"velocity":81,"startTime":206.685511125,"endTime":206.983675875,"instrument":2,"program":28,"isDrum":false},{"pitch":50,"velocity":72,"startTime":206.9538594,"endTime":207.190097625,"instrument":2,"program":28,"isDrum":false},{"pitch":43,"velocity":72,"startTime":206.972208,"endTime":207.17174902500003,"instrument":2,"program":28,"isDrum":false},{"pitch":50,"velocity":101,"startTime":207.24055627500002,"endTime":207.72220702500002,"instrument":2,"program":28,"isDrum":false},{"pitch":43,"velocity":86,"startTime":207.25202415,"endTime":207.465326625,"instrument":2,"program":28,"isDrum":false},{"pitch":57,"velocity":100,"startTime":207.515785275,"endTime":208.272665025,"instrument":2,"program":28,"isDrum":false},{"pitch":43,"velocity":86,"startTime":207.52725315,"endTime":207.969913125,"instrument":2,"program":28,"isDrum":false},{"pitch":50,"velocity":88,"startTime":207.791014275,"endTime":208.51349040000002,"instrument":2,"program":28,"isDrum":false},{"pitch":43,"velocity":82,"startTime":208.061656125,"endTime":209.144223525,"instrument":2,"program":28,"isDrum":false},{"pitch":59,"velocity":103,"startTime":208.066243275,"endTime":209.22449865,"instrument":2,"program":28,"isDrum":false},{"pitch":57,"velocity":89,"startTime":208.3300044,"endTime":208.807068,"instrument":2,"program":28,"isDrum":false},{"pitch":50,"velocity":99,"startTime":208.623582,"endTime":209.37358102500002,"instrument":2,"program":28,"isDrum":false},{"pitch":57,"velocity":72,"startTime":208.89193027500002,"endTime":209.66715862499998,"instrument":2,"program":28,"isDrum":false},{"pitch":43,"velocity":83,"startTime":209.16715927500002,"endTime":209.323122375,"instrument":2,"program":28,"isDrum":false},{"pitch":43,"velocity":103,"startTime":209.17862715,"endTime":209.724498,"instrument":2,"program":28,"isDrum":false},{"pitch":50,"velocity":95,"startTime":209.44926900000002,"endTime":209.924039025,"instrument":2,"program":28,"isDrum":false},{"pitch":57,"velocity":108,"startTime":209.717617275,"endTime":210.48137775,"instrument":2,"program":28,"isDrum":false},{"pitch":43,"velocity":79,"startTime":209.724498,"endTime":210.19468087500002,"instrument":2,"program":28,"isDrum":false},{"pitch":50,"velocity":78,"startTime":209.999727,"endTime":210.749726025,"instrument":2,"program":28,"isDrum":false},{"pitch":43,"velocity":79,"startTime":210.263488125,"endTime":211.346055525,"instrument":2,"program":28,"isDrum":false},{"pitch":59,"velocity":97,"startTime":210.274956,"endTime":211.460734275,"instrument":2,"program":28,"isDrum":false},{"pitch":57,"velocity":84,"startTime":210.54330427500003,"endTime":211.03183575,"instrument":2,"program":28,"isDrum":false},{"pitch":50,"velocity":76,"startTime":210.825414,"endTime":211.6052295,"instrument":2,"program":28,"isDrum":false},{"pitch":57,"velocity":72,"startTime":211.09376227500002,"endTime":211.85752275000002,"instrument":2,"program":28,"isDrum":false},{"pitch":43,"velocity":75,"startTime":211.368991275,"endTime":211.644220275,"instrument":2,"program":28,"isDrum":false},{"pitch":43,"velocity":103,"startTime":211.38045915,"endTime":211.92633,"instrument":2,"program":28,"isDrum":false},{"pitch":50,"velocity":95,"startTime":211.651101,"endTime":212.125871025,"instrument":2,"program":28,"isDrum":false},{"pitch":57,"velocity":108,"startTime":211.919449275,"endTime":212.68320975,"instrument":2,"program":28,"isDrum":false},{"pitch":43,"velocity":79,"startTime":211.92633,"endTime":212.396512875,"instrument":2,"program":28,"isDrum":false},{"pitch":50,"velocity":78,"startTime":212.201559,"endTime":212.95155802500003,"instrument":2,"program":28,"isDrum":false},{"pitch":43,"velocity":79,"startTime":212.465320125,"endTime":213.547887525,"instrument":2,"program":28,"isDrum":false},{"pitch":59,"velocity":97,"startTime":212.476788,"endTime":213.662566275,"instrument":2,"program":28,"isDrum":false},{"pitch":57,"velocity":84,"startTime":212.74513627500002,"endTime":213.23366775,"instrument":2,"program":28,"isDrum":false},{"pitch":50,"velocity":76,"startTime":213.02724600000002,"endTime":213.80706150000003,"instrument":2,"program":28,"isDrum":false},{"pitch":57,"velocity":72,"startTime":213.295594275,"endTime":214.05935475,"instrument":2,"program":28,"isDrum":false},{"pitch":43,"velocity":75,"startTime":213.570823275,"endTime":213.846052275,"instrument":2,"program":28,"isDrum":false},{"pitch":50,"velocity":94,"startTime":213.852933,"endTime":214.323115875,"instrument":2,"program":28,"isDrum":false},{"pitch":43,"velocity":76,"startTime":213.85752015,"endTime":214.075409775,"instrument":2,"program":28,"isDrum":false},{"pitch":57,"velocity":93,"startTime":214.121281275,"endTime":214.873573875,"instrument":2,"program":28,"isDrum":false},{"pitch":43,"velocity":82,"startTime":214.13274915,"endTime":214.598344875,"instrument":2,"program":28,"isDrum":false},{"pitch":50,"velocity":74,"startTime":214.40797815,"endTime":215.15339002500002,"instrument":2,"program":28,"isDrum":false},{"pitch":43,"velocity":79,"startTime":214.67173927500002,"endTime":215.680912275,"instrument":2,"program":28,"isDrum":false},{"pitch":59,"velocity":84,"startTime":214.67862,"endTime":215.8529304,"instrument":2,"program":28,"isDrum":false},{"pitch":57,"velocity":72,"startTime":214.94696827500002,"endTime":215.44696762499998,"instrument":2,"program":28,"isDrum":false},{"pitch":50,"velocity":83,"startTime":215.22907800000002,"endTime":215.84146252500003,"instrument":2,"program":28,"isDrum":false},{"pitch":57,"velocity":80,"startTime":215.50889415,"endTime":215.94467340000003,"instrument":2,"program":28,"isDrum":false},{"pitch":40,"velocity":81,"startTime":215.768068125,"endTime":216.05935215,"instrument":2,"program":28,"isDrum":false},{"pitch":47,"velocity":96,"startTime":216.054765,"endTime":216.529535025,"instrument":2,"program":28,"isDrum":false},{"pitch":40,"velocity":87,"startTime":216.05935215,"endTime":216.277241775,"instrument":2,"program":28,"isDrum":false},{"pitch":54,"velocity":92,"startTime":216.32311327500003,"endTime":216.82769977499999,"instrument":2,"program":28,"isDrum":false},{"pitch":40,"velocity":76,"startTime":216.329994,"endTime":216.77036040000002,"instrument":2,"program":28,"isDrum":false},{"pitch":47,"velocity":83,"startTime":216.59375512500003,"endTime":216.89191987499999,"instrument":2,"program":28,"isDrum":false},{"pitch":55,"velocity":94,"startTime":216.88045200000002,"endTime":219.04099965,"instrument":2,"program":28,"isDrum":false},{"pitch":40,"velocity":81,"startTime":216.88045200000002,"endTime":217.94008365000002,"instrument":2,"program":28,"isDrum":false},{"pitch":54,"velocity":84,"startTime":217.15568100000002,"endTime":217.424029275,"instrument":2,"program":28,"isDrum":false},{"pitch":47,"velocity":84,"startTime":217.424029275,"endTime":218.21072550000002,"instrument":2,"program":28,"isDrum":false},{"pitch":54,"velocity":85,"startTime":217.699258275,"endTime":218.135037525,"instrument":2,"program":28,"isDrum":false},{"pitch":40,"velocity":82,"startTime":217.981368,"endTime":218.502009525,"instrument":2,"program":28,"isDrum":false},{"pitch":47,"velocity":93,"startTime":218.26118415,"endTime":218.76118350000002,"instrument":2,"program":28,"isDrum":false},{"pitch":54,"velocity":100,"startTime":218.531826,"endTime":219.304760775,"instrument":2,"program":28,"isDrum":false},{"pitch":40,"velocity":83,"startTime":218.53641315000002,"endTime":218.76118350000002,"instrument":2,"program":28,"isDrum":false},{"pitch":47,"velocity":97,"startTime":218.80705500000002,"endTime":219.55246687500002,"instrument":2,"program":28,"isDrum":false},{"pitch":40,"velocity":81,"startTime":219.08228400000002,"endTime":219.437788125,"instrument":2,"program":28,"isDrum":false},{"pitch":55,"velocity":102,"startTime":219.08687115,"endTime":220.336869525,"instrument":2,"program":28,"isDrum":false},{"pitch":54,"velocity":71,"startTime":219.357513,"endTime":219.77035650000002,"instrument":2,"program":28,"isDrum":false},{"pitch":47,"velocity":81,"startTime":219.632742,"endTime":220.16026425,"instrument":2,"program":28,"isDrum":false},{"pitch":54,"velocity":82,"startTime":219.907971,"endTime":220.17631927500003,"instrument":2,"program":28,"isDrum":false},{"pitch":48,"velocity":79,"startTime":220.18778715,"endTime":220.37127315,"instrument":2,"program":28,"isDrum":false},{"pitch":55,"velocity":104,"startTime":220.45154827500002,"endTime":220.94466690000002,"instrument":2,"program":28,"isDrum":false},{"pitch":48,"velocity":91,"startTime":220.458429,"endTime":220.62356640000002,"instrument":2,"program":28,"isDrum":false},{"pitch":62,"velocity":103,"startTime":220.72219012500003,"endTime":221.77035390000003,"instrument":2,"program":28,"isDrum":false},{"pitch":48,"velocity":89,"startTime":220.73365800000002,"endTime":221.208428025,"instrument":2,"program":28,"isDrum":false},{"pitch":55,"velocity":93,"startTime":221.01347414999998,"endTime":221.506592775,"instrument":2,"program":28,"isDrum":false},{"pitch":48,"velocity":92,"startTime":221.277235275,"endTime":221.827693275,"instrument":2,"program":28,"isDrum":false},{"pitch":60,"velocity":100,"startTime":221.28411599999998,"endTime":222.24741749999998,"instrument":2,"program":28,"isDrum":false},{"pitch":55,"velocity":85,"startTime":221.55246427500003,"endTime":222.06851865,"instrument":2,"program":28,"isDrum":false},{"pitch":48,"velocity":94,"startTime":221.83457400000003,"endTime":222.263472525,"instrument":2,"program":28,"isDrum":false},{"pitch":55,"velocity":72,"startTime":222.10292227500003,"endTime":222.584573025,"instrument":2,"program":28,"isDrum":false},{"pitch":50,"velocity":100,"startTime":222.38961915,"endTime":222.65338027500002,"instrument":2,"program":28,"isDrum":false},{"pitch":50,"velocity":108,"startTime":222.660261,"endTime":222.79787550000003,"instrument":2,"program":28,"isDrum":false},{"pitch":57,"velocity":89,"startTime":222.660261,"endTime":222.9813615,"instrument":2,"program":28,"isDrum":false},{"pitch":64,"velocity":103,"startTime":222.9171414,"endTime":223.93778227500002,"instrument":2,"program":28,"isDrum":false},{"pitch":50,"velocity":88,"startTime":222.92402212500002,"endTime":223.11897599999998,"instrument":2,"program":28,"isDrum":false},{"pitch":57,"velocity":85,"startTime":223.203838275,"endTime":223.726773375,"instrument":2,"program":28,"isDrum":false},{"pitch":62,"velocity":101,"startTime":223.474480125,"endTime":224.483653125,"instrument":2,"program":28,"isDrum":false},{"pitch":50,"velocity":91,"startTime":223.47906727500003,"endTime":223.983653775,"instrument":2,"program":28,"isDrum":false},{"pitch":57,"velocity":100,"startTime":223.74970912500004,"endTime":224.231359875,"instrument":2,"program":28,"isDrum":false},{"pitch":50,"velocity":94,"startTime":224.02952527500003,"endTime":224.55704752500003,"instrument":2,"program":28,"isDrum":false},{"pitch":57,"velocity":81,"startTime":224.30016712500003,"endTime":224.59833187499999,"instrument":2,"program":28,"isDrum":false},{"pitch":50,"velocity":72,"startTime":224.56851539999997,"endTime":224.804753625,"instrument":2,"program":28,"isDrum":false},{"pitch":43,"velocity":72,"startTime":224.586864,"endTime":224.78640502500002,"instrument":2,"program":28,"isDrum":false},{"pitch":50,"velocity":101,"startTime":224.85521227500004,"endTime":225.336863025,"instrument":2,"program":28,"isDrum":false},{"pitch":43,"velocity":86,"startTime":224.86668014999998,"endTime":225.079982625,"instrument":2,"program":28,"isDrum":false},{"pitch":57,"velocity":100,"startTime":225.130441275,"endTime":225.887321025,"instrument":2,"program":28,"isDrum":false},{"pitch":43,"velocity":86,"startTime":225.14190915,"endTime":225.58456912500003,"instrument":2,"program":28,"isDrum":false},{"pitch":50,"velocity":88,"startTime":225.40567027500003,"endTime":226.1281464,"instrument":2,"program":28,"isDrum":false},{"pitch":43,"velocity":82,"startTime":225.67631212500004,"endTime":226.758879525,"instrument":2,"program":28,"isDrum":false},{"pitch":59,"velocity":103,"startTime":225.680899275,"endTime":226.83915465,"instrument":2,"program":28,"isDrum":false},{"pitch":57,"velocity":89,"startTime":225.94466039999998,"endTime":226.42172399999998,"instrument":2,"program":28,"isDrum":false},{"pitch":50,"velocity":99,"startTime":226.23823800000002,"endTime":226.988237025,"instrument":2,"program":28,"isDrum":false},{"pitch":57,"velocity":72,"startTime":226.50658627500002,"endTime":227.28181462499998,"instrument":2,"program":28,"isDrum":false},{"pitch":43,"velocity":83,"startTime":226.78181527500004,"endTime":226.937778375,"instrument":2,"program":28,"isDrum":false},{"pitch":43,"velocity":103,"startTime":226.79328314999998,"endTime":227.339154,"instrument":2,"program":28,"isDrum":false},{"pitch":50,"velocity":95,"startTime":227.06392499999998,"endTime":227.53869502500004,"instrument":2,"program":28,"isDrum":false},{"pitch":57,"velocity":108,"startTime":227.33227327500003,"endTime":228.09603375,"instrument":2,"program":28,"isDrum":false},{"pitch":43,"velocity":79,"startTime":227.339154,"endTime":227.80933687500004,"instrument":2,"program":28,"isDrum":false},{"pitch":50,"velocity":78,"startTime":227.61438300000003,"endTime":228.364382025,"instrument":2,"program":28,"isDrum":false},{"pitch":43,"velocity":79,"startTime":227.878144125,"endTime":228.96071152500002,"instrument":2,"program":28,"isDrum":false},{"pitch":59,"velocity":97,"startTime":227.889612,"endTime":229.07539027500002,"instrument":2,"program":28,"isDrum":false},{"pitch":57,"velocity":84,"startTime":228.157960275,"endTime":228.64649175,"instrument":2,"program":28,"isDrum":false},{"pitch":50,"velocity":76,"startTime":228.44007,"endTime":229.21988550000003,"instrument":2,"program":28,"isDrum":false},{"pitch":57,"velocity":72,"startTime":228.70841827500004,"endTime":229.47217875,"instrument":2,"program":28,"isDrum":false},{"pitch":43,"velocity":75,"startTime":228.983647275,"endTime":229.25887627500003,"instrument":2,"program":28,"isDrum":false},{"pitch":43,"velocity":103,"startTime":228.99511515,"endTime":229.54098600000003,"instrument":2,"program":28,"isDrum":false},{"pitch":50,"velocity":95,"startTime":229.265757,"endTime":229.740527025,"instrument":2,"program":28,"isDrum":false},{"pitch":57,"velocity":108,"startTime":229.534105275,"endTime":230.29786575000003,"instrument":2,"program":28,"isDrum":false},{"pitch":43,"velocity":79,"startTime":229.54098600000003,"endTime":230.011168875,"instrument":2,"program":28,"isDrum":false},{"pitch":50,"velocity":78,"startTime":229.816215,"endTime":230.56621402500002,"instrument":2,"program":28,"isDrum":false},{"pitch":43,"velocity":79,"startTime":230.07997612500003,"endTime":231.162543525,"instrument":2,"program":28,"isDrum":false},{"pitch":59,"velocity":97,"startTime":230.09144400000002,"endTime":231.27722227499999,"instrument":2,"program":28,"isDrum":false},{"pitch":57,"velocity":84,"startTime":230.35979227500002,"endTime":230.84832375000002,"instrument":2,"program":28,"isDrum":false},{"pitch":50,"velocity":76,"startTime":230.64190200000002,"endTime":231.4217175,"instrument":2,"program":28,"isDrum":false},{"pitch":57,"velocity":72,"startTime":230.910250275,"endTime":231.67401075000004,"instrument":2,"program":28,"isDrum":false},{"pitch":43,"velocity":75,"startTime":231.18547927500003,"endTime":231.460708275,"instrument":2,"program":28,"isDrum":false},{"pitch":50,"velocity":94,"startTime":231.46758900000003,"endTime":231.937771875,"instrument":2,"program":28,"isDrum":false},{"pitch":43,"velocity":76,"startTime":231.47217615,"endTime":231.690065775,"instrument":2,"program":28,"isDrum":false},{"pitch":57,"velocity":93,"startTime":231.73593727500003,"endTime":232.488229875,"instrument":2,"program":28,"isDrum":false},{"pitch":43,"velocity":82,"startTime":231.74740515000002,"endTime":232.21300087500003,"instrument":2,"program":28,"isDrum":false},{"pitch":50,"velocity":74,"startTime":232.02263415,"endTime":232.768046025,"instrument":2,"program":28,"isDrum":false},{"pitch":43,"velocity":79,"startTime":232.28639527500002,"endTime":233.295568275,"instrument":2,"program":28,"isDrum":false},{"pitch":59,"velocity":84,"startTime":232.293276,"endTime":233.46758640000002,"instrument":2,"program":28,"isDrum":false},{"pitch":57,"velocity":72,"startTime":232.56162427500004,"endTime":233.06162362499998,"instrument":2,"program":28,"isDrum":false},{"pitch":50,"velocity":83,"startTime":232.84373399999998,"endTime":233.45611852500002,"instrument":2,"program":28,"isDrum":false},{"pitch":57,"velocity":80,"startTime":233.12355015000003,"endTime":233.55932940000002,"instrument":2,"program":28,"isDrum":false},{"pitch":40,"velocity":81,"startTime":233.38272412500004,"endTime":233.67400815000002,"instrument":2,"program":28,"isDrum":false},{"pitch":47,"velocity":96,"startTime":233.669421,"endTime":234.144191025,"instrument":2,"program":28,"isDrum":false},{"pitch":40,"velocity":87,"startTime":233.67400815000002,"endTime":233.89189777500002,"instrument":2,"program":28,"isDrum":false},{"pitch":54,"velocity":92,"startTime":233.937769275,"endTime":234.442355775,"instrument":2,"program":28,"isDrum":false},{"pitch":40,"velocity":76,"startTime":233.94465000000002,"endTime":234.38501640000004,"instrument":2,"program":28,"isDrum":false},{"pitch":47,"velocity":83,"startTime":234.208411125,"endTime":234.506575875,"instrument":2,"program":28,"isDrum":false},{"pitch":55,"velocity":94,"startTime":234.49510800000002,"endTime":236.65565565000003,"instrument":2,"program":28,"isDrum":false},{"pitch":40,"velocity":81,"startTime":234.49510800000002,"endTime":235.55473965,"instrument":2,"program":28,"isDrum":false},{"pitch":54,"velocity":84,"startTime":234.77033699999998,"endTime":235.03868527500003,"instrument":2,"program":28,"isDrum":false},{"pitch":47,"velocity":84,"startTime":235.03868527500003,"endTime":235.8253815,"instrument":2,"program":28,"isDrum":false},{"pitch":54,"velocity":85,"startTime":235.313914275,"endTime":235.749693525,"instrument":2,"program":28,"isDrum":false},{"pitch":40,"velocity":82,"startTime":235.596024,"endTime":236.11666552500003,"instrument":2,"program":28,"isDrum":false},{"pitch":47,"velocity":93,"startTime":235.87584015,"endTime":236.37583950000004,"instrument":2,"program":28,"isDrum":false},{"pitch":54,"velocity":100,"startTime":236.146482,"endTime":236.919416775,"instrument":2,"program":28,"isDrum":false},{"pitch":40,"velocity":83,"startTime":236.15106915,"endTime":236.37583950000004,"instrument":2,"program":28,"isDrum":false},{"pitch":47,"velocity":97,"startTime":236.42171100000002,"endTime":237.16712287500002,"instrument":2,"program":28,"isDrum":false},{"pitch":40,"velocity":81,"startTime":236.69693999999998,"endTime":237.05244412500002,"instrument":2,"program":28,"isDrum":false},{"pitch":55,"velocity":102,"startTime":236.70152715,"endTime":237.95152552499997,"instrument":2,"program":28,"isDrum":false},{"pitch":54,"velocity":71,"startTime":236.972169,"endTime":237.38501250000002,"instrument":2,"program":28,"isDrum":false},{"pitch":47,"velocity":81,"startTime":237.24739800000003,"endTime":237.77492024999998,"instrument":2,"program":28,"isDrum":false},{"pitch":54,"velocity":82,"startTime":237.522627,"endTime":237.790975275,"instrument":2,"program":28,"isDrum":false},{"pitch":48,"velocity":79,"startTime":237.80244315,"endTime":237.98592915,"instrument":2,"program":28,"isDrum":false},{"pitch":55,"velocity":104,"startTime":238.06620427500002,"endTime":238.55932289999998,"instrument":2,"program":28,"isDrum":false},{"pitch":48,"velocity":91,"startTime":238.073085,"endTime":238.23822240000004,"instrument":2,"program":28,"isDrum":false},{"pitch":62,"velocity":103,"startTime":238.33684612500002,"endTime":239.3850099,"instrument":2,"program":28,"isDrum":false},{"pitch":48,"velocity":89,"startTime":238.34831400000002,"endTime":238.823084025,"instrument":2,"program":28,"isDrum":false},{"pitch":55,"velocity":93,"startTime":238.62813015,"endTime":239.12124877499997,"instrument":2,"program":28,"isDrum":false},{"pitch":48,"velocity":92,"startTime":238.89189127500003,"endTime":239.44234927500003,"instrument":2,"program":28,"isDrum":false},{"pitch":60,"velocity":100,"startTime":238.898772,"endTime":239.8620735,"instrument":2,"program":28,"isDrum":false},{"pitch":55,"velocity":85,"startTime":239.167120275,"endTime":239.68317465,"instrument":2,"program":28,"isDrum":false},{"pitch":48,"velocity":94,"startTime":239.44923,"endTime":239.87812852499997,"instrument":2,"program":28,"isDrum":false},{"pitch":55,"velocity":72,"startTime":239.717578275,"endTime":240.19922902500002,"instrument":2,"program":28,"isDrum":false},{"pitch":50,"velocity":100,"startTime":240.00427515,"endTime":240.26803627500004,"instrument":2,"program":28,"isDrum":false},{"pitch":50,"velocity":108,"startTime":240.27491700000002,"endTime":240.4125315,"instrument":2,"program":28,"isDrum":false},{"pitch":57,"velocity":89,"startTime":240.27491700000002,"endTime":240.59601750000002,"instrument":2,"program":28,"isDrum":false},{"pitch":64,"velocity":103,"startTime":240.53179740000002,"endTime":241.552438275,"instrument":2,"program":28,"isDrum":false},{"pitch":50,"velocity":88,"startTime":240.53867812500005,"endTime":240.733632,"instrument":2,"program":28,"isDrum":false},{"pitch":57,"velocity":85,"startTime":240.81849427500003,"endTime":241.34142937500002,"instrument":2,"program":28,"isDrum":false},{"pitch":62,"velocity":101,"startTime":241.08913612500004,"endTime":242.09830912500001,"instrument":2,"program":28,"isDrum":false},{"pitch":50,"velocity":91,"startTime":241.093723275,"endTime":241.59830977500002,"instrument":2,"program":28,"isDrum":false},{"pitch":57,"velocity":100,"startTime":241.364365125,"endTime":241.84601587500003,"instrument":2,"program":28,"isDrum":false},{"pitch":50,"velocity":94,"startTime":241.644181275,"endTime":242.171703525,"instrument":2,"program":28,"isDrum":false},{"pitch":57,"velocity":81,"startTime":241.914823125,"endTime":242.212987875,"instrument":2,"program":28,"isDrum":false},{"pitch":50,"velocity":72,"startTime":242.1831714,"endTime":242.41940962500001,"instrument":2,"program":28,"isDrum":false},{"pitch":43,"velocity":72,"startTime":242.20152000000002,"endTime":242.401061025,"instrument":2,"program":28,"isDrum":false},{"pitch":50,"velocity":101,"startTime":242.469868275,"endTime":242.95151902500004,"instrument":2,"program":28,"isDrum":false},{"pitch":43,"velocity":86,"startTime":242.48133615,"endTime":242.69463862499998,"instrument":2,"program":28,"isDrum":false},{"pitch":57,"velocity":100,"startTime":242.74509727500003,"endTime":243.50197702500003,"instrument":2,"program":28,"isDrum":false},{"pitch":43,"velocity":86,"startTime":242.75656515000003,"endTime":243.199225125,"instrument":2,"program":28,"isDrum":false},{"pitch":50,"velocity":88,"startTime":243.020326275,"endTime":243.74280240000002,"instrument":2,"program":28,"isDrum":false},{"pitch":43,"velocity":82,"startTime":243.290968125,"endTime":244.37353552500002,"instrument":2,"program":28,"isDrum":false},{"pitch":59,"velocity":103,"startTime":243.29555527500003,"endTime":244.45381064999998,"instrument":2,"program":28,"isDrum":false},{"pitch":57,"velocity":89,"startTime":243.5593164,"endTime":244.03638,"instrument":2,"program":28,"isDrum":false},{"pitch":50,"velocity":99,"startTime":243.852894,"endTime":244.60289302500001,"instrument":2,"program":28,"isDrum":false},{"pitch":57,"velocity":72,"startTime":244.12124227500004,"endTime":244.896470625,"instrument":2,"program":28,"isDrum":false},{"pitch":43,"velocity":83,"startTime":244.396471275,"endTime":244.55243437500002,"instrument":2,"program":28,"isDrum":false},{"pitch":43,"velocity":103,"startTime":244.40793915,"endTime":244.95381000000003,"instrument":2,"program":28,"isDrum":false},{"pitch":50,"velocity":95,"startTime":244.678581,"endTime":245.153351025,"instrument":2,"program":28,"isDrum":false},{"pitch":57,"velocity":108,"startTime":244.946929275,"endTime":245.71068975000003,"instrument":2,"program":28,"isDrum":false},{"pitch":43,"velocity":79,"startTime":244.95381000000003,"endTime":245.423992875,"instrument":2,"program":28,"isDrum":false},{"pitch":50,"velocity":78,"startTime":245.229039,"endTime":245.97903802500002,"instrument":2,"program":28,"isDrum":false},{"pitch":43,"velocity":79,"startTime":245.49280012500003,"endTime":246.575367525,"instrument":2,"program":28,"isDrum":false},{"pitch":59,"velocity":97,"startTime":245.50426800000002,"endTime":246.69004627500004,"instrument":2,"program":28,"isDrum":false},{"pitch":57,"velocity":84,"startTime":245.77261627500002,"endTime":246.26114775000002,"instrument":2,"program":28,"isDrum":false},{"pitch":50,"velocity":76,"startTime":246.05472600000002,"endTime":246.8345415,"instrument":2,"program":28,"isDrum":false},{"pitch":57,"velocity":72,"startTime":246.323074275,"endTime":247.08683474999998,"instrument":2,"program":28,"isDrum":false},{"pitch":43,"velocity":75,"startTime":246.59830327500003,"endTime":246.873532275,"instrument":2,"program":28,"isDrum":false},{"pitch":43,"velocity":103,"startTime":246.60977115000003,"endTime":247.155642,"instrument":2,"program":28,"isDrum":false},{"pitch":50,"velocity":95,"startTime":246.88041300000003,"endTime":247.35518302499997,"instrument":2,"program":28,"isDrum":false},{"pitch":57,"velocity":108,"startTime":247.14876127499997,"endTime":247.91252175,"instrument":2,"program":28,"isDrum":false},{"pitch":43,"velocity":79,"startTime":247.155642,"endTime":247.62582487499998,"instrument":2,"program":28,"isDrum":false},{"pitch":50,"velocity":78,"startTime":247.43087100000002,"endTime":248.180870025,"instrument":2,"program":28,"isDrum":false},{"pitch":43,"velocity":79,"startTime":247.694632125,"endTime":248.77719952500001,"instrument":2,"program":28,"isDrum":false},{"pitch":59,"velocity":97,"startTime":247.7061,"endTime":248.891878275,"instrument":2,"program":28,"isDrum":false},{"pitch":57,"velocity":84,"startTime":247.974448275,"endTime":248.46297975,"instrument":2,"program":28,"isDrum":false},{"pitch":50,"velocity":76,"startTime":248.25655799999998,"endTime":249.03637349999997,"instrument":2,"program":28,"isDrum":false},{"pitch":57,"velocity":72,"startTime":248.52490627499998,"endTime":249.28866675,"instrument":2,"program":28,"isDrum":false},{"pitch":43,"velocity":75,"startTime":248.800135275,"endTime":249.07536427499997,"instrument":2,"program":28,"isDrum":false},{"pitch":50,"velocity":94,"startTime":249.082245,"endTime":249.55242787499998,"instrument":2,"program":28,"isDrum":false},{"pitch":43,"velocity":76,"startTime":249.08683215000002,"endTime":249.30472177500002,"instrument":2,"program":28,"isDrum":false},{"pitch":57,"velocity":93,"startTime":249.350593275,"endTime":250.10288587499997,"instrument":2,"program":28,"isDrum":false},{"pitch":43,"velocity":82,"startTime":249.36206115,"endTime":249.827656875,"instrument":2,"program":28,"isDrum":false},{"pitch":50,"velocity":74,"startTime":249.63729015,"endTime":250.38270202499996,"instrument":2,"program":28,"isDrum":false},{"pitch":43,"velocity":79,"startTime":249.901051275,"endTime":250.91022427500002,"instrument":2,"program":28,"isDrum":false},{"pitch":59,"velocity":84,"startTime":249.90793200000002,"endTime":251.08224239999998,"instrument":2,"program":28,"isDrum":false},{"pitch":57,"velocity":72,"startTime":250.176280275,"endTime":250.676279625,"instrument":2,"program":28,"isDrum":false},{"pitch":50,"velocity":83,"startTime":250.45839,"endTime":251.070774525,"instrument":2,"program":28,"isDrum":false},{"pitch":57,"velocity":80,"startTime":250.73820615,"endTime":251.1739854,"instrument":2,"program":28,"isDrum":false},{"pitch":40,"velocity":81,"startTime":250.997380125,"endTime":251.28866415,"instrument":2,"program":28,"isDrum":false},{"pitch":47,"velocity":96,"startTime":251.28407700000002,"endTime":251.75884702499997,"instrument":2,"program":28,"isDrum":false},{"pitch":40,"velocity":87,"startTime":251.28866415,"endTime":251.50655377500004,"instrument":2,"program":28,"isDrum":false},{"pitch":54,"velocity":92,"startTime":251.55242527499996,"endTime":252.05701177500003,"instrument":2,"program":28,"isDrum":false},{"pitch":40,"velocity":76,"startTime":251.559306,"endTime":251.9996724,"instrument":2,"program":28,"isDrum":false},{"pitch":47,"velocity":83,"startTime":251.82306712499997,"endTime":252.12123187500003,"instrument":2,"program":28,"isDrum":false},{"pitch":55,"velocity":94,"startTime":252.10976399999998,"endTime":254.27031165,"instrument":2,"program":28,"isDrum":false},{"pitch":40,"velocity":81,"startTime":252.10976399999998,"endTime":253.16939564999996,"instrument":2,"program":28,"isDrum":false},{"pitch":54,"velocity":84,"startTime":252.384993,"endTime":252.653341275,"instrument":2,"program":28,"isDrum":false},{"pitch":47,"velocity":84,"startTime":252.653341275,"endTime":253.44003749999996,"instrument":2,"program":28,"isDrum":false},{"pitch":54,"velocity":85,"startTime":252.92857027499997,"endTime":253.36434952500002,"instrument":2,"program":28,"isDrum":false},{"pitch":40,"velocity":82,"startTime":253.21068000000002,"endTime":253.731321525,"instrument":2,"program":28,"isDrum":false},{"pitch":47,"velocity":93,"startTime":253.49049615,"endTime":253.9904955,"instrument":2,"program":28,"isDrum":false},{"pitch":54,"velocity":100,"startTime":253.76113800000002,"endTime":254.53407277500003,"instrument":2,"program":28,"isDrum":false},{"pitch":40,"velocity":83,"startTime":253.76572514999998,"endTime":253.9904955,"instrument":2,"program":28,"isDrum":false},{"pitch":47,"velocity":97,"startTime":254.03636699999998,"endTime":254.781778875,"instrument":2,"program":28,"isDrum":false},{"pitch":40,"velocity":81,"startTime":254.311596,"endTime":254.66710012500005,"instrument":2,"program":28,"isDrum":false},{"pitch":55,"velocity":102,"startTime":254.31618315000003,"endTime":255.56618152500005,"instrument":2,"program":28,"isDrum":false},{"pitch":54,"velocity":71,"startTime":254.58682500000003,"endTime":254.99966849999998,"instrument":2,"program":28,"isDrum":false},{"pitch":47,"velocity":81,"startTime":254.862054,"endTime":255.38957625,"instrument":2,"program":28,"isDrum":false},{"pitch":54,"velocity":82,"startTime":255.13728300000002,"endTime":255.40563127499996,"instrument":2,"program":28,"isDrum":false},{"pitch":48,"velocity":79,"startTime":255.41709915,"endTime":255.60058515000003,"instrument":2,"program":28,"isDrum":false},{"pitch":55,"velocity":104,"startTime":255.680860275,"endTime":256.1739789,"instrument":2,"program":28,"isDrum":false},{"pitch":48,"velocity":91,"startTime":255.68774100000002,"endTime":255.8528784,"instrument":2,"program":28,"isDrum":false},{"pitch":62,"velocity":103,"startTime":255.951502125,"endTime":256.9996659,"instrument":2,"program":28,"isDrum":false},{"pitch":48,"velocity":89,"startTime":255.96296999999998,"endTime":256.437740025,"instrument":2,"program":28,"isDrum":false},{"pitch":55,"velocity":93,"startTime":256.24278615000003,"endTime":256.73590477500005,"instrument":2,"program":28,"isDrum":false},{"pitch":48,"velocity":92,"startTime":256.506547275,"endTime":257.057005275,"instrument":2,"program":28,"isDrum":false},{"pitch":60,"velocity":100,"startTime":256.51342800000003,"endTime":257.47672950000003,"instrument":2,"program":28,"isDrum":false},{"pitch":55,"velocity":85,"startTime":256.78177627499997,"endTime":257.29783065,"instrument":2,"program":28,"isDrum":false},{"pitch":48,"velocity":94,"startTime":257.063886,"endTime":257.49278452500005,"instrument":2,"program":28,"isDrum":false},{"pitch":55,"velocity":72,"startTime":257.33223427499996,"endTime":257.813885025,"instrument":2,"program":28,"isDrum":false},{"pitch":50,"velocity":100,"startTime":257.61893115,"endTime":257.882692275,"instrument":2,"program":28,"isDrum":false},{"pitch":50,"velocity":108,"startTime":257.889573,"endTime":258.0271875,"instrument":2,"program":28,"isDrum":false},{"pitch":57,"velocity":89,"startTime":257.889573,"endTime":258.21067350000004,"instrument":2,"program":28,"isDrum":false},{"pitch":64,"velocity":103,"startTime":258.14645340000004,"endTime":259.167094275,"instrument":2,"program":28,"isDrum":false},{"pitch":50,"velocity":88,"startTime":258.153334125,"endTime":258.348288,"instrument":2,"program":28,"isDrum":false},{"pitch":57,"velocity":85,"startTime":258.433150275,"endTime":258.956085375,"instrument":2,"program":28,"isDrum":false},{"pitch":62,"velocity":101,"startTime":258.703792125,"endTime":259.712965125,"instrument":2,"program":28,"isDrum":false},{"pitch":50,"velocity":91,"startTime":258.70837927499997,"endTime":259.21296577500004,"instrument":2,"program":28,"isDrum":false},{"pitch":57,"velocity":100,"startTime":258.979021125,"endTime":259.460671875,"instrument":2,"program":28,"isDrum":false},{"pitch":50,"velocity":94,"startTime":259.25883727499996,"endTime":259.786359525,"instrument":2,"program":28,"isDrum":false},{"pitch":57,"velocity":81,"startTime":259.52947912499997,"endTime":259.82764387500004,"instrument":2,"program":28,"isDrum":false},{"pitch":50,"velocity":72,"startTime":259.7978274,"endTime":260.03406562500004,"instrument":2,"program":28,"isDrum":false},{"pitch":43,"velocity":72,"startTime":259.816176,"endTime":260.01571702499996,"instrument":2,"program":28,"isDrum":false},{"pitch":50,"velocity":101,"startTime":260.084524275,"endTime":260.566175025,"instrument":2,"program":28,"isDrum":false},{"pitch":43,"velocity":86,"startTime":260.09599215000003,"endTime":260.309294625,"instrument":2,"program":28,"isDrum":false},{"pitch":57,"velocity":100,"startTime":260.359753275,"endTime":261.116633025,"instrument":2,"program":28,"isDrum":false},{"pitch":43,"velocity":86,"startTime":260.37122115,"endTime":260.813881125,"instrument":2,"program":28,"isDrum":false},{"pitch":50,"velocity":88,"startTime":260.63498227499997,"endTime":261.3574584,"instrument":2,"program":28,"isDrum":false},{"pitch":43,"velocity":82,"startTime":260.905624125,"endTime":261.988191525,"instrument":2,"program":28,"isDrum":false},{"pitch":59,"velocity":103,"startTime":260.910211275,"endTime":262.06846665,"instrument":2,"program":28,"isDrum":false},{"pitch":57,"velocity":89,"startTime":261.1739724,"endTime":261.65103600000003,"instrument":2,"program":28,"isDrum":false},{"pitch":50,"velocity":99,"startTime":261.46755,"endTime":262.217549025,"instrument":2,"program":28,"isDrum":false},{"pitch":57,"velocity":72,"startTime":261.735898275,"endTime":262.51112662500003,"instrument":2,"program":28,"isDrum":false},{"pitch":43,"velocity":83,"startTime":262.011127275,"endTime":262.16709037500004,"instrument":2,"program":28,"isDrum":false},{"pitch":43,"velocity":82,"startTime":262.02259515000003,"endTime":262.568466,"instrument":2,"program":28,"isDrum":false},{"pitch":50,"velocity":76,"startTime":262.29323700000003,"endTime":262.768007025,"instrument":2,"program":28,"isDrum":false},{"pitch":57,"velocity":86,"startTime":262.56158527499997,"endTime":263.32534575,"instrument":2,"program":28,"isDrum":false},{"pitch":43,"velocity":63,"startTime":262.568466,"endTime":263.038648875,"instrument":2,"program":28,"isDrum":false},{"pitch":50,"velocity":62,"startTime":262.843695,"endTime":263.593694025,"instrument":2,"program":28,"isDrum":false},{"pitch":43,"velocity":63,"startTime":263.107456125,"endTime":264.190023525,"instrument":2,"program":28,"isDrum":false},{"pitch":59,"velocity":78,"startTime":263.118924,"endTime":264.304702275,"instrument":2,"program":28,"isDrum":false},{"pitch":57,"velocity":67,"startTime":263.387272275,"endTime":263.87580375,"instrument":2,"program":28,"isDrum":false},{"pitch":50,"velocity":61,"startTime":263.669382,"endTime":264.44919749999997,"instrument":2,"program":28,"isDrum":false},{"pitch":57,"velocity":58,"startTime":263.937730275,"endTime":264.70149075,"instrument":2,"program":28,"isDrum":false},{"pitch":43,"velocity":60,"startTime":264.212959275,"endTime":264.48818827499997,"instrument":2,"program":28,"isDrum":false},{"pitch":43,"velocity":67,"startTime":264.22442715,"endTime":264.770298,"instrument":2,"program":28,"isDrum":false},{"pitch":50,"velocity":62,"startTime":264.495069,"endTime":264.969839025,"instrument":2,"program":28,"isDrum":false},{"pitch":57,"velocity":70,"startTime":264.763417275,"endTime":265.52717775,"instrument":2,"program":28,"isDrum":false},{"pitch":43,"velocity":51,"startTime":264.770298,"endTime":265.240480875,"instrument":2,"program":28,"isDrum":false},{"pitch":50,"velocity":51,"startTime":265.045527,"endTime":265.79552602499996,"instrument":2,"program":28,"isDrum":false},{"pitch":43,"velocity":51,"startTime":265.30928812499997,"endTime":266.391855525,"instrument":2,"program":28,"isDrum":false},{"pitch":59,"velocity":63,"startTime":265.320756,"endTime":266.50653427500004,"instrument":2,"program":28,"isDrum":false},{"pitch":57,"velocity":55,"startTime":265.589104275,"endTime":266.07763575,"instrument":2,"program":28,"isDrum":false},{"pitch":50,"velocity":49,"startTime":265.871214,"endTime":266.6510295,"instrument":2,"program":28,"isDrum":false},{"pitch":57,"velocity":47,"startTime":266.139562275,"endTime":266.90332275000003,"instrument":2,"program":28,"isDrum":false},{"pitch":43,"velocity":49,"startTime":266.41479127499997,"endTime":266.690020275,"instrument":2,"program":28,"isDrum":false},{"pitch":50,"velocity":42,"startTime":266.696901,"endTime":267.167083875,"instrument":2,"program":28,"isDrum":false},{"pitch":43,"velocity":34,"startTime":266.70148815,"endTime":266.91937777500004,"instrument":2,"program":28,"isDrum":false},{"pitch":57,"velocity":42,"startTime":266.96524927499996,"endTime":267.717541875,"instrument":2,"program":28,"isDrum":false},{"pitch":43,"velocity":37,"startTime":266.97671715,"endTime":267.44231287499997,"instrument":2,"program":28,"isDrum":false},{"pitch":50,"velocity":33,"startTime":267.25194615,"endTime":267.997358025,"instrument":2,"program":28,"isDrum":false},{"pitch":43,"velocity":36,"startTime":267.515707275,"endTime":268.524880275,"instrument":2,"program":28,"isDrum":false},{"pitch":59,"velocity":38,"startTime":267.522588,"endTime":268.6968984,"instrument":2,"program":28,"isDrum":false},{"pitch":57,"velocity":32,"startTime":267.790936275,"endTime":268.29093562500003,"instrument":2,"program":28,"isDrum":false},{"pitch":50,"velocity":37,"startTime":268.07304600000003,"endTime":268.68543052499996,"instrument":2,"program":28,"isDrum":false},{"pitch":57,"velocity":36,"startTime":268.35286215,"endTime":268.78864139999996,"instrument":2,"program":28,"isDrum":false},{"pitch":40,"velocity":36,"startTime":268.612036125,"endTime":268.90332015,"instrument":2,"program":28,"isDrum":false},{"pitch":47,"velocity":19,"startTime":268.898733,"endTime":269.373503025,"instrument":2,"program":28,"isDrum":false},{"pitch":40,"velocity":17,"startTime":268.90332015,"endTime":269.121209775,"instrument":2,"program":28,"isDrum":false},{"pitch":54,"velocity":18,"startTime":269.167081275,"endTime":269.671667775,"instrument":2,"program":28,"isDrum":false},{"pitch":40,"velocity":15,"startTime":269.173962,"endTime":269.6143284,"instrument":2,"program":28,"isDrum":false},{"pitch":47,"velocity":17,"startTime":269.437723125,"endTime":269.735887875,"instrument":2,"program":28,"isDrum":false},{"pitch":55,"velocity":19,"startTime":269.72442,"endTime":271.88496764999996,"instrument":2,"program":28,"isDrum":false},{"pitch":40,"velocity":16,"startTime":269.72442,"endTime":270.78405165,"instrument":2,"program":28,"isDrum":false},{"pitch":54,"velocity":17,"startTime":269.99964900000003,"endTime":270.26799727499997,"instrument":2,"program":28,"isDrum":false},{"pitch":47,"velocity":17,"startTime":270.26799727499997,"endTime":271.0546935,"instrument":2,"program":28,"isDrum":false},{"pitch":54,"velocity":17,"startTime":270.543226275,"endTime":270.97900552500005,"instrument":2,"program":28,"isDrum":false},{"pitch":40,"velocity":8,"startTime":270.825336,"endTime":271.345977525,"instrument":2,"program":28,"isDrum":false},{"pitch":47,"velocity":9,"startTime":271.10515215,"endTime":271.6051515,"instrument":2,"program":28,"isDrum":false},{"pitch":54,"velocity":10,"startTime":271.375794,"endTime":272.14872877500005,"instrument":2,"program":28,"isDrum":false},{"pitch":40,"velocity":8,"startTime":271.38038115,"endTime":271.6051515,"instrument":2,"program":28,"isDrum":false},{"pitch":47,"velocity":10,"startTime":271.651023,"endTime":272.396434875,"instrument":2,"program":28,"isDrum":false},{"pitch":40,"velocity":8,"startTime":271.92625200000003,"endTime":272.281756125,"instrument":2,"program":28,"isDrum":false},{"pitch":55,"velocity":10,"startTime":271.93083915,"endTime":273.180837525,"instrument":2,"program":28,"isDrum":false},{"pitch":54,"velocity":7,"startTime":272.201481,"endTime":272.6143245,"instrument":2,"program":28,"isDrum":false},{"pitch":47,"velocity":8,"startTime":272.47671,"endTime":273.00423225000003,"instrument":2,"program":28,"isDrum":false},{"pitch":54,"velocity":8,"startTime":272.751939,"endTime":273.020287275,"instrument":2,"program":28,"isDrum":false},{"pitch":48,"velocity":1,"startTime":273.03175515,"endTime":273.21524115,"instrument":2,"program":28,"isDrum":false},{"pitch":55,"velocity":1,"startTime":273.295516275,"endTime":273.7886349,"instrument":2,"program":28,"isDrum":false},{"pitch":48,"velocity":1,"startTime":273.302397,"endTime":273.4675344,"instrument":2,"program":28,"isDrum":false},{"pitch":62,"velocity":1,"startTime":273.566158125,"endTime":274.6143219,"instrument":2,"program":28,"isDrum":false},{"pitch":48,"velocity":1,"startTime":273.577626,"endTime":274.052396025,"instrument":2,"program":28,"isDrum":false},{"pitch":55,"velocity":1,"startTime":273.85744215,"endTime":274.350560775,"instrument":2,"program":28,"isDrum":false},{"pitch":48,"velocity":1,"startTime":274.12120327499997,"endTime":274.67166127499996,"instrument":2,"program":28,"isDrum":false},{"pitch":60,"velocity":1,"startTime":274.128084,"endTime":275.0913855,"instrument":2,"program":28,"isDrum":false},{"pitch":55,"velocity":1,"startTime":274.396432275,"endTime":274.91248665,"instrument":2,"program":28,"isDrum":false},{"pitch":48,"velocity":1,"startTime":274.678542,"endTime":275.107440525,"instrument":2,"program":28,"isDrum":false},{"pitch":55,"velocity":1,"startTime":274.946890275,"endTime":275.42854102499996,"instrument":2,"program":28,"isDrum":false},{"pitch":67,"velocity":97,"startTime":121.10076000000001,"endTime":121.67415375000002,"instrument":3,"program":50,"isDrum":false},{"pitch":69,"velocity":102,"startTime":121.651218,"endTime":122.22461175000001,"instrument":3,"program":50,"isDrum":false},{"pitch":71,"velocity":91,"startTime":122.20167600000002,"endTime":122.77506975000003,"instrument":3,"program":50,"isDrum":false},{"pitch":76,"velocity":95,"startTime":122.75213400000001,"endTime":123.32552775000002,"instrument":3,"program":50,"isDrum":false},{"pitch":74,"velocity":95,"startTime":123.302592,"endTime":127.12598152500001,"instrument":3,"program":50,"isDrum":false},{"pitch":79,"velocity":91,"startTime":127.155798,"endTime":127.50900855,"instrument":3,"program":50,"isDrum":false},{"pitch":78,"velocity":91,"startTime":127.431027,"endTime":128.94478650000002,"instrument":3,"program":50,"isDrum":false},{"pitch":74,"velocity":89,"startTime":128.807172,"endTime":129.90808800000002,"instrument":3,"program":50,"isDrum":false},{"pitch":67,"velocity":86,"startTime":129.90808800000002,"endTime":132.171846525,"instrument":3,"program":50,"isDrum":false},{"pitch":71,"velocity":94,"startTime":132.10992000000002,"endTime":135.91954807500002,"instrument":3,"program":50,"isDrum":false},{"pitch":76,"velocity":86,"startTime":135.96312600000002,"endTime":136.3392723,"instrument":3,"program":50,"isDrum":false},{"pitch":74,"velocity":89,"startTime":136.238355,"endTime":138.703948125,"instrument":3,"program":50,"isDrum":false},{"pitch":67,"velocity":97,"startTime":138.715416,"endTime":139.28880975,"instrument":3,"program":50,"isDrum":false},{"pitch":69,"velocity":102,"startTime":139.265874,"endTime":139.83926775,"instrument":3,"program":50,"isDrum":false},{"pitch":71,"velocity":91,"startTime":139.81633200000002,"endTime":140.38972575000003,"instrument":3,"program":50,"isDrum":false},{"pitch":76,"velocity":95,"startTime":140.36679,"endTime":140.94018375000002,"instrument":3,"program":50,"isDrum":false},{"pitch":74,"velocity":95,"startTime":140.917248,"endTime":144.740637525,"instrument":3,"program":50,"isDrum":false},{"pitch":79,"velocity":91,"startTime":144.770454,"endTime":145.12366455,"instrument":3,"program":50,"isDrum":false},{"pitch":78,"velocity":91,"startTime":145.045683,"endTime":146.55944250000002,"instrument":3,"program":50,"isDrum":false},{"pitch":74,"velocity":89,"startTime":146.421828,"endTime":147.52274400000002,"instrument":3,"program":50,"isDrum":false},{"pitch":67,"velocity":86,"startTime":147.52274400000002,"endTime":149.786502525,"instrument":3,"program":50,"isDrum":false},{"pitch":71,"velocity":94,"startTime":149.724576,"endTime":153.53420407500002,"instrument":3,"program":50,"isDrum":false},{"pitch":76,"velocity":86,"startTime":153.577782,"endTime":153.9539283,"instrument":3,"program":50,"isDrum":false},{"pitch":74,"velocity":89,"startTime":153.853011,"endTime":156.318604125,"instrument":3,"program":50,"isDrum":false},{"pitch":67,"velocity":97,"startTime":156.330072,"endTime":156.90346575,"instrument":3,"program":50,"isDrum":false},{"pitch":69,"velocity":102,"startTime":156.88053000000002,"endTime":157.45392375000003,"instrument":3,"program":50,"isDrum":false},{"pitch":71,"velocity":91,"startTime":157.430988,"endTime":158.00438175000002,"instrument":3,"program":50,"isDrum":false},{"pitch":76,"velocity":95,"startTime":157.981446,"endTime":158.55483975,"instrument":3,"program":50,"isDrum":false},{"pitch":74,"velocity":95,"startTime":158.531904,"endTime":162.355293525,"instrument":3,"program":50,"isDrum":false},{"pitch":79,"velocity":91,"startTime":162.38511,"endTime":162.73832055,"instrument":3,"program":50,"isDrum":false},{"pitch":78,"velocity":91,"startTime":162.66033900000002,"endTime":164.1740985,"instrument":3,"program":50,"isDrum":false},{"pitch":74,"velocity":89,"startTime":164.036484,"endTime":165.1374,"instrument":3,"program":50,"isDrum":false},{"pitch":67,"velocity":86,"startTime":165.1374,"endTime":167.40115852500003,"instrument":3,"program":50,"isDrum":false},{"pitch":71,"velocity":94,"startTime":167.339232,"endTime":171.14886007500002,"instrument":3,"program":50,"isDrum":false},{"pitch":76,"velocity":86,"startTime":171.192438,"endTime":171.5685843,"instrument":3,"program":50,"isDrum":false},{"pitch":74,"velocity":89,"startTime":171.467667,"endTime":173.93326012500003,"instrument":3,"program":50,"isDrum":false},{"pitch":67,"velocity":97,"startTime":173.944728,"endTime":174.51812175,"instrument":3,"program":50,"isDrum":false},{"pitch":69,"velocity":102,"startTime":174.49518600000002,"endTime":175.06857975000003,"instrument":3,"program":50,"isDrum":false},{"pitch":71,"velocity":91,"startTime":175.045644,"endTime":175.61903775000002,"instrument":3,"program":50,"isDrum":false},{"pitch":76,"velocity":95,"startTime":175.596102,"endTime":176.16949575,"instrument":3,"program":50,"isDrum":false},{"pitch":74,"velocity":95,"startTime":176.14656000000002,"endTime":179.969949525,"instrument":3,"program":50,"isDrum":false},{"pitch":79,"velocity":91,"startTime":179.999766,"endTime":180.35297655,"instrument":3,"program":50,"isDrum":false},{"pitch":78,"velocity":91,"startTime":180.27499500000002,"endTime":181.7887545,"instrument":3,"program":50,"isDrum":false},{"pitch":74,"velocity":89,"startTime":181.65114,"endTime":182.752056,"instrument":3,"program":50,"isDrum":false},{"pitch":67,"velocity":86,"startTime":182.752056,"endTime":185.01581452500002,"instrument":3,"program":50,"isDrum":false},{"pitch":71,"velocity":94,"startTime":184.953888,"endTime":188.763516075,"instrument":3,"program":50,"isDrum":false},{"pitch":76,"velocity":86,"startTime":188.807094,"endTime":189.18324030000002,"instrument":3,"program":50,"isDrum":false},{"pitch":74,"velocity":89,"startTime":189.082323,"endTime":191.54791612500003,"instrument":3,"program":50,"isDrum":false},{"pitch":67,"velocity":97,"startTime":191.559384,"endTime":192.13277775000003,"instrument":3,"program":50,"isDrum":false},{"pitch":69,"velocity":102,"startTime":192.10984200000001,"endTime":192.68323575000002,"instrument":3,"program":50,"isDrum":false},{"pitch":71,"velocity":91,"startTime":192.6603,"endTime":193.23369375000001,"instrument":3,"program":50,"isDrum":false},{"pitch":76,"velocity":95,"startTime":193.210758,"endTime":193.78415175,"instrument":3,"program":50,"isDrum":false},{"pitch":74,"velocity":95,"startTime":193.76121600000002,"endTime":197.584605525,"instrument":3,"program":50,"isDrum":false},{"pitch":79,"velocity":91,"startTime":197.61442200000002,"endTime":197.96763255,"instrument":3,"program":50,"isDrum":false},{"pitch":78,"velocity":91,"startTime":197.88965100000001,"endTime":199.4034105,"instrument":3,"program":50,"isDrum":false},{"pitch":74,"velocity":89,"startTime":199.265796,"endTime":200.366712,"instrument":3,"program":50,"isDrum":false},{"pitch":67,"velocity":86,"startTime":200.366712,"endTime":202.63047052500002,"instrument":3,"program":50,"isDrum":false},{"pitch":71,"velocity":94,"startTime":202.568544,"endTime":206.378172075,"instrument":3,"program":50,"isDrum":false},{"pitch":76,"velocity":86,"startTime":206.42175,"endTime":206.79789630000002,"instrument":3,"program":50,"isDrum":false},{"pitch":74,"velocity":89,"startTime":206.696979,"endTime":209.16257212500003,"instrument":3,"program":50,"isDrum":false},{"pitch":67,"velocity":97,"startTime":209.17404000000002,"endTime":209.74743375000003,"instrument":3,"program":50,"isDrum":false},{"pitch":69,"velocity":102,"startTime":209.724498,"endTime":210.29789175000002,"instrument":3,"program":50,"isDrum":false},{"pitch":71,"velocity":91,"startTime":210.274956,"endTime":210.84834975,"instrument":3,"program":50,"isDrum":false},{"pitch":76,"velocity":95,"startTime":210.825414,"endTime":211.39880775000003,"instrument":3,"program":50,"isDrum":false},{"pitch":74,"velocity":95,"startTime":211.37587200000002,"endTime":215.199261525,"instrument":3,"program":50,"isDrum":false},{"pitch":79,"velocity":91,"startTime":215.22907800000002,"endTime":215.58228855,"instrument":3,"program":50,"isDrum":false},{"pitch":78,"velocity":91,"startTime":215.504307,"endTime":217.0180665,"instrument":3,"program":50,"isDrum":false},{"pitch":74,"velocity":89,"startTime":216.88045200000002,"endTime":217.981368,"instrument":3,"program":50,"isDrum":false},{"pitch":67,"velocity":86,"startTime":217.981368,"endTime":220.24512652500002,"instrument":3,"program":50,"isDrum":false},{"pitch":71,"velocity":94,"startTime":220.1832,"endTime":223.99282807500003,"instrument":3,"program":50,"isDrum":false},{"pitch":76,"velocity":86,"startTime":224.036406,"endTime":224.41255230000002,"instrument":3,"program":50,"isDrum":false},{"pitch":74,"velocity":89,"startTime":224.31163500000002,"endTime":226.77722812500002,"instrument":3,"program":50,"isDrum":false},{"pitch":67,"velocity":97,"startTime":226.78869600000002,"endTime":227.36208975,"instrument":3,"program":50,"isDrum":false},{"pitch":69,"velocity":102,"startTime":227.339154,"endTime":227.91254775000004,"instrument":3,"program":50,"isDrum":false},{"pitch":71,"velocity":91,"startTime":227.889612,"endTime":228.46300575000004,"instrument":3,"program":50,"isDrum":false},{"pitch":76,"velocity":95,"startTime":228.44007,"endTime":229.01346375000003,"instrument":3,"program":50,"isDrum":false},{"pitch":74,"velocity":95,"startTime":228.99052799999998,"endTime":232.81391752500002,"instrument":3,"program":50,"isDrum":false},{"pitch":79,"velocity":91,"startTime":232.84373399999998,"endTime":233.19694455,"instrument":3,"program":50,"isDrum":false},{"pitch":78,"velocity":91,"startTime":233.118963,"endTime":234.6327225,"instrument":3,"program":50,"isDrum":false},{"pitch":74,"velocity":89,"startTime":234.49510800000002,"endTime":235.596024,"instrument":3,"program":50,"isDrum":false},{"pitch":67,"velocity":86,"startTime":235.596024,"endTime":237.859782525,"instrument":3,"program":50,"isDrum":false},{"pitch":71,"velocity":94,"startTime":237.79785600000002,"endTime":241.607484075,"instrument":3,"program":50,"isDrum":false},{"pitch":76,"velocity":86,"startTime":241.65106200000002,"endTime":242.02720829999998,"instrument":3,"program":50,"isDrum":false},{"pitch":74,"velocity":89,"startTime":241.926291,"endTime":244.39188412500005,"instrument":3,"program":50,"isDrum":false},{"pitch":67,"velocity":97,"startTime":244.40335199999998,"endTime":244.97674575000002,"instrument":3,"program":50,"isDrum":false},{"pitch":69,"velocity":102,"startTime":244.95381000000003,"endTime":245.52720375,"instrument":3,"program":50,"isDrum":false},{"pitch":71,"velocity":91,"startTime":245.50426800000002,"endTime":246.07766175,"instrument":3,"program":50,"isDrum":false},{"pitch":76,"velocity":95,"startTime":246.05472600000002,"endTime":246.62811975,"instrument":3,"program":50,"isDrum":false},{"pitch":74,"velocity":95,"startTime":246.605184,"endTime":250.428573525,"instrument":3,"program":50,"isDrum":false},{"pitch":79,"velocity":91,"startTime":250.45839,"endTime":250.81160054999998,"instrument":3,"program":50,"isDrum":false},{"pitch":78,"velocity":91,"startTime":250.73361900000003,"endTime":252.24737850000002,"instrument":3,"program":50,"isDrum":false},{"pitch":74,"velocity":89,"startTime":252.10976399999998,"endTime":253.21068000000002,"instrument":3,"program":50,"isDrum":false},{"pitch":67,"velocity":86,"startTime":253.21068000000002,"endTime":255.47443852499998,"instrument":3,"program":50,"isDrum":false},{"pitch":71,"velocity":94,"startTime":255.412512,"endTime":259.222140075,"instrument":3,"program":50,"isDrum":false},{"pitch":76,"velocity":86,"startTime":259.265718,"endTime":259.64186429999995,"instrument":3,"program":50,"isDrum":false},{"pitch":74,"velocity":89,"startTime":259.540947,"endTime":262.006540125,"instrument":3,"program":50,"isDrum":false},{"pitch":67,"velocity":78,"startTime":262.018008,"endTime":262.59140175,"instrument":3,"program":50,"isDrum":false},{"pitch":69,"velocity":82,"startTime":262.568466,"endTime":263.14185975,"instrument":3,"program":50,"isDrum":false},{"pitch":71,"velocity":73,"startTime":263.118924,"endTime":263.69231775,"instrument":3,"program":50,"isDrum":false},{"pitch":76,"velocity":76,"startTime":263.669382,"endTime":264.24277574999996,"instrument":3,"program":50,"isDrum":false},{"pitch":74,"velocity":62,"startTime":264.21984000000003,"endTime":268.043229525,"instrument":3,"program":50,"isDrum":false},{"pitch":79,"velocity":41,"startTime":268.07304600000003,"endTime":268.42625655,"instrument":3,"program":50,"isDrum":false},{"pitch":78,"velocity":41,"startTime":268.348275,"endTime":269.8620345,"instrument":3,"program":50,"isDrum":false},{"pitch":74,"velocity":18,"startTime":269.72442,"endTime":270.825336,"instrument":3,"program":50,"isDrum":false},{"pitch":67,"velocity":9,"startTime":270.825336,"endTime":273.089094525,"instrument":3,"program":50,"isDrum":false},{"pitch":71,"velocity":1,"startTime":273.027168,"endTime":276.836796075,"instrument":3,"program":50,"isDrum":false},{"pitch":62,"velocity":94,"startTime":148.348431,"endTime":149.12824650000002,"instrument":4,"program":52,"isDrum":false},{"pitch":62,"velocity":98,"startTime":150.550263,"endTime":151.35301425,"instrument":4,"program":52,"isDrum":false},{"pitch":62,"velocity":100,"startTime":152.752095,"endTime":153.547965525,"instrument":4,"program":52,"isDrum":false},{"pitch":62,"velocity":102,"startTime":154.95392700000002,"endTime":155.779614,"instrument":4,"program":52,"isDrum":false},{"pitch":62,"velocity":101,"startTime":157.15575900000002,"endTime":157.974565275,"instrument":4,"program":52,"isDrum":false},{"pitch":62,"velocity":94,"startTime":159.357591,"endTime":160.153461525,"instrument":4,"program":52,"isDrum":false},{"pitch":62,"velocity":100,"startTime":161.559423,"endTime":162.3667614,"instrument":4,"program":52,"isDrum":false},{"pitch":62,"velocity":94,"startTime":163.761255,"endTime":164.54107050000002,"instrument":4,"program":52,"isDrum":false},{"pitch":62,"velocity":98,"startTime":165.963087,"endTime":166.76583825,"instrument":4,"program":52,"isDrum":false},{"pitch":62,"velocity":100,"startTime":168.164919,"endTime":168.960789525,"instrument":4,"program":52,"isDrum":false},{"pitch":62,"velocity":102,"startTime":170.36675100000002,"endTime":171.192438,"instrument":4,"program":52,"isDrum":false},{"pitch":62,"velocity":101,"startTime":172.56858300000002,"endTime":173.387389275,"instrument":4,"program":52,"isDrum":false},{"pitch":62,"velocity":94,"startTime":174.770415,"endTime":175.566285525,"instrument":4,"program":52,"isDrum":false},{"pitch":62,"velocity":100,"startTime":176.972247,"endTime":177.7795854,"instrument":4,"program":52,"isDrum":false},{"pitch":62,"velocity":94,"startTime":179.174079,"endTime":179.95389450000002,"instrument":4,"program":52,"isDrum":false},{"pitch":62,"velocity":98,"startTime":181.375911,"endTime":182.17866225,"instrument":4,"program":52,"isDrum":false},{"pitch":62,"velocity":100,"startTime":183.577743,"endTime":184.373613525,"instrument":4,"program":52,"isDrum":false},{"pitch":62,"velocity":102,"startTime":185.779575,"endTime":186.605262,"instrument":4,"program":52,"isDrum":false},{"pitch":62,"velocity":101,"startTime":187.98140700000002,"endTime":188.800213275,"instrument":4,"program":52,"isDrum":false},{"pitch":62,"velocity":94,"startTime":190.18323900000001,"endTime":190.979109525,"instrument":4,"program":52,"isDrum":false},{"pitch":62,"velocity":100,"startTime":192.385071,"endTime":193.1924094,"instrument":4,"program":52,"isDrum":false},{"pitch":62,"velocity":94,"startTime":194.586903,"endTime":195.36671850000002,"instrument":4,"program":52,"isDrum":false},{"pitch":62,"velocity":98,"startTime":196.788735,"endTime":197.59148625,"instrument":4,"program":52,"isDrum":false},{"pitch":62,"velocity":100,"startTime":198.990567,"endTime":199.786437525,"instrument":4,"program":52,"isDrum":false},{"pitch":62,"velocity":102,"startTime":201.192399,"endTime":202.018086,"instrument":4,"program":52,"isDrum":false},{"pitch":62,"velocity":101,"startTime":203.39423100000002,"endTime":204.213037275,"instrument":4,"program":52,"isDrum":false},{"pitch":62,"velocity":94,"startTime":205.59606300000002,"endTime":206.391933525,"instrument":4,"program":52,"isDrum":false},{"pitch":62,"velocity":100,"startTime":207.797895,"endTime":208.6052334,"instrument":4,"program":52,"isDrum":false},{"pitch":62,"velocity":94,"startTime":209.999727,"endTime":210.77954250000002,"instrument":4,"program":52,"isDrum":false},{"pitch":62,"velocity":98,"startTime":212.201559,"endTime":213.00431025,"instrument":4,"program":52,"isDrum":false},{"pitch":62,"velocity":100,"startTime":214.403391,"endTime":215.199261525,"instrument":4,"program":52,"isDrum":false},{"pitch":62,"velocity":102,"startTime":216.605223,"endTime":217.43091,"instrument":4,"program":52,"isDrum":false},{"pitch":62,"velocity":101,"startTime":218.80705500000002,"endTime":219.625861275,"instrument":4,"program":52,"isDrum":false},{"pitch":62,"velocity":94,"startTime":221.00888700000002,"endTime":221.804757525,"instrument":4,"program":52,"isDrum":false},{"pitch":62,"velocity":100,"startTime":223.21071899999998,"endTime":224.01805739999998,"instrument":4,"program":52,"isDrum":false},{"pitch":62,"velocity":94,"startTime":225.412551,"endTime":226.1923665,"instrument":4,"program":52,"isDrum":false},{"pitch":62,"velocity":98,"startTime":227.61438300000003,"endTime":228.41713425,"instrument":4,"program":52,"isDrum":false},{"pitch":62,"velocity":100,"startTime":229.816215,"endTime":230.612085525,"instrument":4,"program":52,"isDrum":false},{"pitch":62,"velocity":102,"startTime":232.01804700000002,"endTime":232.84373399999998,"instrument":4,"program":52,"isDrum":false},{"pitch":62,"velocity":101,"startTime":234.219879,"endTime":235.03868527500003,"instrument":4,"program":52,"isDrum":false},{"pitch":62,"velocity":94,"startTime":236.42171100000002,"endTime":237.217581525,"instrument":4,"program":52,"isDrum":false},{"pitch":62,"velocity":100,"startTime":238.62354299999998,"endTime":239.43088139999998,"instrument":4,"program":52,"isDrum":false},{"pitch":62,"velocity":94,"startTime":240.825375,"endTime":241.6051905,"instrument":4,"program":52,"isDrum":false},{"pitch":62,"velocity":98,"startTime":243.02720700000003,"endTime":243.82995825,"instrument":4,"program":52,"isDrum":false},{"pitch":62,"velocity":100,"startTime":245.229039,"endTime":246.024909525,"instrument":4,"program":52,"isDrum":false},{"pitch":62,"velocity":102,"startTime":247.43087100000002,"endTime":248.25655799999998,"instrument":4,"program":52,"isDrum":false},{"pitch":62,"velocity":101,"startTime":249.632703,"endTime":250.45150927499998,"instrument":4,"program":52,"isDrum":false},{"pitch":62,"velocity":94,"startTime":251.83453500000002,"endTime":252.63040552500001,"instrument":4,"program":52,"isDrum":false},{"pitch":62,"velocity":100,"startTime":254.03636699999998,"endTime":254.84370540000003,"instrument":4,"program":52,"isDrum":false},{"pitch":62,"velocity":94,"startTime":256.238199,"endTime":257.0180145,"instrument":4,"program":52,"isDrum":false},{"pitch":62,"velocity":98,"startTime":258.44003100000003,"endTime":259.24278225,"instrument":4,"program":52,"isDrum":false},{"pitch":62,"velocity":100,"startTime":260.641863,"endTime":261.437733525,"instrument":4,"program":52,"isDrum":false},{"pitch":62,"velocity":82,"startTime":262.843695,"endTime":263.669382,"instrument":4,"program":52,"isDrum":false},{"pitch":62,"velocity":66,"startTime":265.045527,"endTime":265.864333275,"instrument":4,"program":52,"isDrum":false},{"pitch":62,"velocity":42,"startTime":267.247359,"endTime":268.043229525,"instrument":4,"program":52,"isDrum":false},{"pitch":62,"velocity":20,"startTime":269.449191,"endTime":270.25652940000003,"instrument":4,"program":52,"isDrum":false},{"pitch":62,"velocity":9,"startTime":271.651023,"endTime":272.4308385,"instrument":4,"program":52,"isDrum":false},{"pitch":62,"velocity":1,"startTime":273.85285500000003,"endTime":274.65560625,"instrument":4,"program":52,"isDrum":false},{"pitch":67,"velocity":82,"startTime":138.990645,"endTime":139.23147037500001,"instrument":5,"program":75,"isDrum":false},{"pitch":71,"velocity":81,"startTime":138.990645,"endTime":139.23147037500001,"instrument":5,"program":75,"isDrum":false},{"pitch":67,"velocity":74,"startTime":139.265874,"endTime":139.51816725,"instrument":5,"program":75,"isDrum":false},{"pitch":71,"velocity":78,"startTime":139.265874,"endTime":139.51816725,"instrument":5,"program":75,"isDrum":false},{"pitch":67,"velocity":81,"startTime":139.54110300000002,"endTime":140.0456895,"instrument":5,"program":75,"isDrum":false},{"pitch":71,"velocity":74,"startTime":139.54110300000002,"endTime":140.0456895,"instrument":5,"program":75,"isDrum":false},{"pitch":67,"velocity":61,"startTime":140.091561,"endTime":140.447065125,"instrument":5,"program":75,"isDrum":false},{"pitch":71,"velocity":69,"startTime":140.091561,"endTime":140.447065125,"instrument":5,"program":75,"isDrum":false},{"pitch":67,"velocity":66,"startTime":140.642019,"endTime":140.91036727500003,"instrument":5,"program":75,"isDrum":false},{"pitch":71,"velocity":77,"startTime":140.642019,"endTime":140.91036727500003,"instrument":5,"program":75,"isDrum":false},{"pitch":67,"velocity":82,"startTime":141.192477,"endTime":141.433302375,"instrument":5,"program":75,"isDrum":false},{"pitch":71,"velocity":81,"startTime":141.192477,"endTime":141.433302375,"instrument":5,"program":75,"isDrum":false},{"pitch":67,"velocity":74,"startTime":141.46770600000002,"endTime":141.71999925,"instrument":5,"program":75,"isDrum":false},{"pitch":71,"velocity":78,"startTime":141.46770600000002,"endTime":141.71999925,"instrument":5,"program":75,"isDrum":false},{"pitch":67,"velocity":81,"startTime":141.74293500000002,"endTime":142.2475215,"instrument":5,"program":75,"isDrum":false},{"pitch":71,"velocity":74,"startTime":141.74293500000002,"endTime":142.2475215,"instrument":5,"program":75,"isDrum":false},{"pitch":67,"velocity":61,"startTime":142.293393,"endTime":142.648897125,"instrument":5,"program":75,"isDrum":false},{"pitch":71,"velocity":69,"startTime":142.293393,"endTime":142.648897125,"instrument":5,"program":75,"isDrum":false},{"pitch":67,"velocity":66,"startTime":142.843851,"endTime":143.11219927500002,"instrument":5,"program":75,"isDrum":false},{"pitch":71,"velocity":77,"startTime":142.843851,"endTime":143.11219927500002,"instrument":5,"program":75,"isDrum":false},{"pitch":67,"velocity":82,"startTime":143.39430900000002,"endTime":143.635134375,"instrument":5,"program":75,"isDrum":false},{"pitch":71,"velocity":81,"startTime":143.39430900000002,"endTime":143.635134375,"instrument":5,"program":75,"isDrum":false},{"pitch":67,"velocity":74,"startTime":143.66953800000002,"endTime":143.92183125,"instrument":5,"program":75,"isDrum":false},{"pitch":71,"velocity":78,"startTime":143.66953800000002,"endTime":143.92183125,"instrument":5,"program":75,"isDrum":false},{"pitch":67,"velocity":81,"startTime":143.944767,"endTime":144.44935350000003,"instrument":5,"program":75,"isDrum":false},{"pitch":71,"velocity":74,"startTime":143.944767,"endTime":144.44935350000003,"instrument":5,"program":75,"isDrum":false},{"pitch":67,"velocity":61,"startTime":144.495225,"endTime":144.850729125,"instrument":5,"program":75,"isDrum":false},{"pitch":71,"velocity":69,"startTime":144.495225,"endTime":144.850729125,"instrument":5,"program":75,"isDrum":false},{"pitch":67,"velocity":66,"startTime":145.045683,"endTime":145.31403127500002,"instrument":5,"program":75,"isDrum":false},{"pitch":71,"velocity":77,"startTime":145.045683,"endTime":145.31403127500002,"instrument":5,"program":75,"isDrum":false},{"pitch":67,"velocity":82,"startTime":145.59614100000002,"endTime":145.836966375,"instrument":5,"program":75,"isDrum":false},{"pitch":71,"velocity":81,"startTime":145.59614100000002,"endTime":145.836966375,"instrument":5,"program":75,"isDrum":false},{"pitch":67,"velocity":74,"startTime":145.87137,"endTime":146.12366325,"instrument":5,"program":75,"isDrum":false},{"pitch":71,"velocity":78,"startTime":145.87137,"endTime":146.12366325,"instrument":5,"program":75,"isDrum":false},{"pitch":67,"velocity":81,"startTime":146.146599,"endTime":146.65118550000003,"instrument":5,"program":75,"isDrum":false},{"pitch":71,"velocity":74,"startTime":146.146599,"endTime":146.65118550000003,"instrument":5,"program":75,"isDrum":false},{"pitch":67,"velocity":61,"startTime":146.697057,"endTime":147.052561125,"instrument":5,"program":75,"isDrum":false},{"pitch":71,"velocity":69,"startTime":146.697057,"endTime":147.052561125,"instrument":5,"program":75,"isDrum":false},{"pitch":67,"velocity":66,"startTime":147.24751500000002,"endTime":147.51586327500002,"instrument":5,"program":75,"isDrum":false},{"pitch":71,"velocity":77,"startTime":147.24751500000002,"endTime":147.51586327500002,"instrument":5,"program":75,"isDrum":false},{"pitch":67,"velocity":82,"startTime":147.797973,"endTime":148.038798375,"instrument":5,"program":75,"isDrum":false},{"pitch":71,"velocity":81,"startTime":147.797973,"endTime":148.038798375,"instrument":5,"program":75,"isDrum":false},{"pitch":67,"velocity":74,"startTime":148.073202,"endTime":148.32549525,"instrument":5,"program":75,"isDrum":false},{"pitch":71,"velocity":78,"startTime":148.073202,"endTime":148.32549525,"instrument":5,"program":75,"isDrum":false},{"pitch":67,"velocity":81,"startTime":148.348431,"endTime":148.85301750000002,"instrument":5,"program":75,"isDrum":false},{"pitch":71,"velocity":74,"startTime":148.348431,"endTime":148.85301750000002,"instrument":5,"program":75,"isDrum":false},{"pitch":67,"velocity":61,"startTime":148.898889,"endTime":149.254393125,"instrument":5,"program":75,"isDrum":false},{"pitch":71,"velocity":69,"startTime":148.898889,"endTime":149.254393125,"instrument":5,"program":75,"isDrum":false},{"pitch":67,"velocity":66,"startTime":149.44934700000002,"endTime":149.717695275,"instrument":5,"program":75,"isDrum":false},{"pitch":71,"velocity":77,"startTime":149.44934700000002,"endTime":149.717695275,"instrument":5,"program":75,"isDrum":false},{"pitch":67,"velocity":82,"startTime":149.999805,"endTime":150.240630375,"instrument":5,"program":75,"isDrum":false},{"pitch":71,"velocity":81,"startTime":149.999805,"endTime":150.240630375,"instrument":5,"program":75,"isDrum":false},{"pitch":67,"velocity":74,"startTime":150.275034,"endTime":150.52732724999998,"instrument":5,"program":75,"isDrum":false},{"pitch":71,"velocity":78,"startTime":150.275034,"endTime":150.52732724999998,"instrument":5,"program":75,"isDrum":false},{"pitch":67,"velocity":81,"startTime":150.550263,"endTime":151.05484950000002,"instrument":5,"program":75,"isDrum":false},{"pitch":71,"velocity":74,"startTime":150.550263,"endTime":151.05484950000002,"instrument":5,"program":75,"isDrum":false},{"pitch":67,"velocity":61,"startTime":151.10072100000002,"endTime":151.456225125,"instrument":5,"program":75,"isDrum":false},{"pitch":71,"velocity":69,"startTime":151.10072100000002,"endTime":151.456225125,"instrument":5,"program":75,"isDrum":false},{"pitch":67,"velocity":66,"startTime":151.651179,"endTime":151.919527275,"instrument":5,"program":75,"isDrum":false},{"pitch":71,"velocity":77,"startTime":151.651179,"endTime":151.919527275,"instrument":5,"program":75,"isDrum":false},{"pitch":67,"velocity":82,"startTime":152.201637,"endTime":152.44246237500002,"instrument":5,"program":75,"isDrum":false},{"pitch":71,"velocity":81,"startTime":152.201637,"endTime":152.44246237500002,"instrument":5,"program":75,"isDrum":false},{"pitch":67,"velocity":74,"startTime":152.476866,"endTime":152.72915925,"instrument":5,"program":75,"isDrum":false},{"pitch":71,"velocity":78,"startTime":152.476866,"endTime":152.72915925,"instrument":5,"program":75,"isDrum":false},{"pitch":67,"velocity":81,"startTime":152.752095,"endTime":153.2566815,"instrument":5,"program":75,"isDrum":false},{"pitch":71,"velocity":74,"startTime":152.752095,"endTime":153.2566815,"instrument":5,"program":75,"isDrum":false},{"pitch":67,"velocity":61,"startTime":153.30255300000002,"endTime":153.658057125,"instrument":5,"program":75,"isDrum":false},{"pitch":71,"velocity":69,"startTime":153.30255300000002,"endTime":153.658057125,"instrument":5,"program":75,"isDrum":false},{"pitch":67,"velocity":66,"startTime":153.853011,"endTime":154.121359275,"instrument":5,"program":75,"isDrum":false},{"pitch":71,"velocity":77,"startTime":153.853011,"endTime":154.121359275,"instrument":5,"program":75,"isDrum":false},{"pitch":67,"velocity":82,"startTime":154.403469,"endTime":154.64429437500002,"instrument":5,"program":75,"isDrum":false},{"pitch":71,"velocity":81,"startTime":154.403469,"endTime":154.64429437500002,"instrument":5,"program":75,"isDrum":false},{"pitch":67,"velocity":74,"startTime":154.678698,"endTime":154.93099125,"instrument":5,"program":75,"isDrum":false},{"pitch":71,"velocity":78,"startTime":154.678698,"endTime":154.93099125,"instrument":5,"program":75,"isDrum":false},{"pitch":67,"velocity":81,"startTime":154.95392700000002,"endTime":155.4585135,"instrument":5,"program":75,"isDrum":false},{"pitch":71,"velocity":74,"startTime":154.95392700000002,"endTime":155.4585135,"instrument":5,"program":75,"isDrum":false},{"pitch":67,"velocity":61,"startTime":155.504385,"endTime":155.859889125,"instrument":5,"program":75,"isDrum":false},{"pitch":71,"velocity":69,"startTime":155.504385,"endTime":155.859889125,"instrument":5,"program":75,"isDrum":false},{"pitch":67,"velocity":66,"startTime":156.054843,"endTime":156.32319127500003,"instrument":5,"program":75,"isDrum":false},{"pitch":71,"velocity":77,"startTime":156.054843,"endTime":156.32319127500003,"instrument":5,"program":75,"isDrum":false},{"pitch":67,"velocity":82,"startTime":156.605301,"endTime":156.846126375,"instrument":5,"program":75,"isDrum":false},{"pitch":71,"velocity":81,"startTime":156.605301,"endTime":156.846126375,"instrument":5,"program":75,"isDrum":false},{"pitch":67,"velocity":74,"startTime":156.88053000000002,"endTime":157.13282325,"instrument":5,"program":75,"isDrum":false},{"pitch":71,"velocity":78,"startTime":156.88053000000002,"endTime":157.13282325,"instrument":5,"program":75,"isDrum":false},{"pitch":67,"velocity":81,"startTime":157.15575900000002,"endTime":157.6603455,"instrument":5,"program":75,"isDrum":false},{"pitch":71,"velocity":74,"startTime":157.15575900000002,"endTime":157.6603455,"instrument":5,"program":75,"isDrum":false},{"pitch":67,"velocity":61,"startTime":157.706217,"endTime":158.061721125,"instrument":5,"program":75,"isDrum":false},{"pitch":71,"velocity":69,"startTime":157.706217,"endTime":158.061721125,"instrument":5,"program":75,"isDrum":false},{"pitch":67,"velocity":66,"startTime":158.256675,"endTime":158.52502327500002,"instrument":5,"program":75,"isDrum":false},{"pitch":71,"velocity":77,"startTime":158.256675,"endTime":158.52502327500002,"instrument":5,"program":75,"isDrum":false},{"pitch":67,"velocity":82,"startTime":158.80713300000002,"endTime":159.047958375,"instrument":5,"program":75,"isDrum":false},{"pitch":71,"velocity":81,"startTime":158.80713300000002,"endTime":159.047958375,"instrument":5,"program":75,"isDrum":false},{"pitch":67,"velocity":74,"startTime":159.08236200000002,"endTime":159.33465525,"instrument":5,"program":75,"isDrum":false},{"pitch":71,"velocity":78,"startTime":159.08236200000002,"endTime":159.33465525,"instrument":5,"program":75,"isDrum":false},{"pitch":67,"velocity":81,"startTime":159.357591,"endTime":159.86217750000003,"instrument":5,"program":75,"isDrum":false},{"pitch":71,"velocity":74,"startTime":159.357591,"endTime":159.86217750000003,"instrument":5,"program":75,"isDrum":false},{"pitch":67,"velocity":61,"startTime":159.908049,"endTime":160.263553125,"instrument":5,"program":75,"isDrum":false},{"pitch":71,"velocity":69,"startTime":159.908049,"endTime":160.263553125,"instrument":5,"program":75,"isDrum":false},{"pitch":67,"velocity":66,"startTime":160.458507,"endTime":160.72685527500002,"instrument":5,"program":75,"isDrum":false},{"pitch":71,"velocity":77,"startTime":160.458507,"endTime":160.72685527500002,"instrument":5,"program":75,"isDrum":false},{"pitch":67,"velocity":82,"startTime":161.00896500000002,"endTime":161.249790375,"instrument":5,"program":75,"isDrum":false},{"pitch":71,"velocity":81,"startTime":161.00896500000002,"endTime":161.249790375,"instrument":5,"program":75,"isDrum":false},{"pitch":67,"velocity":74,"startTime":161.284194,"endTime":161.53648725,"instrument":5,"program":75,"isDrum":false},{"pitch":71,"velocity":78,"startTime":161.284194,"endTime":161.53648725,"instrument":5,"program":75,"isDrum":false},{"pitch":67,"velocity":81,"startTime":161.559423,"endTime":162.06400950000003,"instrument":5,"program":75,"isDrum":false},{"pitch":71,"velocity":74,"startTime":161.559423,"endTime":162.06400950000003,"instrument":5,"program":75,"isDrum":false},{"pitch":67,"velocity":61,"startTime":162.109881,"endTime":162.465385125,"instrument":5,"program":75,"isDrum":false},{"pitch":71,"velocity":69,"startTime":162.109881,"endTime":162.465385125,"instrument":5,"program":75,"isDrum":false},{"pitch":67,"velocity":66,"startTime":162.66033900000002,"endTime":162.92868727500002,"instrument":5,"program":75,"isDrum":false},{"pitch":71,"velocity":77,"startTime":162.66033900000002,"endTime":162.92868727500002,"instrument":5,"program":75,"isDrum":false},{"pitch":67,"velocity":82,"startTime":163.210797,"endTime":163.451622375,"instrument":5,"program":75,"isDrum":false},{"pitch":71,"velocity":81,"startTime":163.210797,"endTime":163.451622375,"instrument":5,"program":75,"isDrum":false},{"pitch":67,"velocity":74,"startTime":163.486026,"endTime":163.73831925,"instrument":5,"program":75,"isDrum":false},{"pitch":71,"velocity":78,"startTime":163.486026,"endTime":163.73831925,"instrument":5,"program":75,"isDrum":false},{"pitch":67,"velocity":81,"startTime":163.761255,"endTime":164.26584150000002,"instrument":5,"program":75,"isDrum":false},{"pitch":71,"velocity":74,"startTime":163.761255,"endTime":164.26584150000002,"instrument":5,"program":75,"isDrum":false},{"pitch":67,"velocity":61,"startTime":164.311713,"endTime":164.667217125,"instrument":5,"program":75,"isDrum":false},{"pitch":71,"velocity":69,"startTime":164.311713,"endTime":164.667217125,"instrument":5,"program":75,"isDrum":false},{"pitch":67,"velocity":66,"startTime":164.86217100000002,"endTime":165.130519275,"instrument":5,"program":75,"isDrum":false},{"pitch":71,"velocity":77,"startTime":164.86217100000002,"endTime":165.130519275,"instrument":5,"program":75,"isDrum":false},{"pitch":67,"velocity":82,"startTime":165.412629,"endTime":165.653454375,"instrument":5,"program":75,"isDrum":false},{"pitch":71,"velocity":81,"startTime":165.412629,"endTime":165.653454375,"instrument":5,"program":75,"isDrum":false},{"pitch":67,"velocity":74,"startTime":165.687858,"endTime":165.94015124999999,"instrument":5,"program":75,"isDrum":false},{"pitch":71,"velocity":78,"startTime":165.687858,"endTime":165.94015124999999,"instrument":5,"program":75,"isDrum":false},{"pitch":67,"velocity":81,"startTime":165.963087,"endTime":166.46767350000002,"instrument":5,"program":75,"isDrum":false},{"pitch":71,"velocity":74,"startTime":165.963087,"endTime":166.46767350000002,"instrument":5,"program":75,"isDrum":false},{"pitch":67,"velocity":61,"startTime":166.51354500000002,"endTime":166.869049125,"instrument":5,"program":75,"isDrum":false},{"pitch":71,"velocity":69,"startTime":166.51354500000002,"endTime":166.869049125,"instrument":5,"program":75,"isDrum":false},{"pitch":67,"velocity":66,"startTime":167.064003,"endTime":167.332351275,"instrument":5,"program":75,"isDrum":false},{"pitch":71,"velocity":77,"startTime":167.064003,"endTime":167.332351275,"instrument":5,"program":75,"isDrum":false},{"pitch":67,"velocity":82,"startTime":167.614461,"endTime":167.85528637500002,"instrument":5,"program":75,"isDrum":false},{"pitch":71,"velocity":81,"startTime":167.614461,"endTime":167.85528637500002,"instrument":5,"program":75,"isDrum":false},{"pitch":67,"velocity":74,"startTime":167.88969,"endTime":168.14198325,"instrument":5,"program":75,"isDrum":false},{"pitch":71,"velocity":78,"startTime":167.88969,"endTime":168.14198325,"instrument":5,"program":75,"isDrum":false},{"pitch":67,"velocity":81,"startTime":168.164919,"endTime":168.6695055,"instrument":5,"program":75,"isDrum":false},{"pitch":71,"velocity":74,"startTime":168.164919,"endTime":168.6695055,"instrument":5,"program":75,"isDrum":false},{"pitch":67,"velocity":61,"startTime":168.71537700000002,"endTime":169.070881125,"instrument":5,"program":75,"isDrum":false},{"pitch":71,"velocity":69,"startTime":168.71537700000002,"endTime":169.070881125,"instrument":5,"program":75,"isDrum":false},{"pitch":67,"velocity":66,"startTime":169.265835,"endTime":169.534183275,"instrument":5,"program":75,"isDrum":false},{"pitch":71,"velocity":77,"startTime":169.265835,"endTime":169.534183275,"instrument":5,"program":75,"isDrum":false},{"pitch":67,"velocity":66,"startTime":169.816293,"endTime":170.05711837500002,"instrument":5,"program":75,"isDrum":false},{"pitch":71,"velocity":65,"startTime":169.816293,"endTime":170.05711837500002,"instrument":5,"program":75,"isDrum":false},{"pitch":67,"velocity":59,"startTime":170.091522,"endTime":170.34381525,"instrument":5,"program":75,"isDrum":false},{"pitch":71,"velocity":62,"startTime":170.091522,"endTime":170.34381525,"instrument":5,"program":75,"isDrum":false},{"pitch":67,"velocity":65,"startTime":170.36675100000002,"endTime":170.8713375,"instrument":5,"program":75,"isDrum":false},{"pitch":71,"velocity":59,"startTime":170.36675100000002,"endTime":170.8713375,"instrument":5,"program":75,"isDrum":false},{"pitch":67,"velocity":49,"startTime":170.917209,"endTime":171.272713125,"instrument":5,"program":75,"isDrum":false},{"pitch":71,"velocity":55,"startTime":170.917209,"endTime":171.272713125,"instrument":5,"program":75,"isDrum":false},{"pitch":67,"velocity":53,"startTime":171.467667,"endTime":171.73601527500003,"instrument":5,"program":75,"isDrum":false},{"pitch":71,"velocity":62,"startTime":171.467667,"endTime":171.73601527500003,"instrument":5,"program":75,"isDrum":false},{"pitch":67,"velocity":49,"startTime":172.018125,"endTime":172.258950375,"instrument":5,"program":75,"isDrum":false},{"pitch":71,"velocity":49,"startTime":172.018125,"endTime":172.258950375,"instrument":5,"program":75,"isDrum":false},{"pitch":67,"velocity":44,"startTime":172.29335400000002,"endTime":172.54564725,"instrument":5,"program":75,"isDrum":false},{"pitch":71,"velocity":47,"startTime":172.29335400000002,"endTime":172.54564725,"instrument":5,"program":75,"isDrum":false},{"pitch":67,"velocity":49,"startTime":172.56858300000002,"endTime":173.0731695,"instrument":5,"program":75,"isDrum":false},{"pitch":71,"velocity":44,"startTime":172.56858300000002,"endTime":173.0731695,"instrument":5,"program":75,"isDrum":false},{"pitch":67,"velocity":37,"startTime":173.119041,"endTime":173.474545125,"instrument":5,"program":75,"isDrum":false},{"pitch":71,"velocity":41,"startTime":173.119041,"endTime":173.474545125,"instrument":5,"program":75,"isDrum":false},{"pitch":67,"velocity":40,"startTime":173.669499,"endTime":173.93784727500002,"instrument":5,"program":75,"isDrum":false},{"pitch":71,"velocity":46,"startTime":173.669499,"endTime":173.93784727500002,"instrument":5,"program":75,"isDrum":false},{"pitch":67,"velocity":33,"startTime":174.21995700000002,"endTime":174.460782375,"instrument":5,"program":75,"isDrum":false},{"pitch":71,"velocity":32,"startTime":174.21995700000002,"endTime":174.460782375,"instrument":5,"program":75,"isDrum":false},{"pitch":67,"velocity":30,"startTime":174.49518600000002,"endTime":174.74747925,"instrument":5,"program":75,"isDrum":false},{"pitch":71,"velocity":31,"startTime":174.49518600000002,"endTime":174.74747925,"instrument":5,"program":75,"isDrum":false},{"pitch":67,"velocity":32,"startTime":174.770415,"endTime":175.27500150000003,"instrument":5,"program":75,"isDrum":false},{"pitch":71,"velocity":30,"startTime":174.770415,"endTime":175.27500150000003,"instrument":5,"program":75,"isDrum":false},{"pitch":67,"velocity":24,"startTime":175.320873,"endTime":175.676377125,"instrument":5,"program":75,"isDrum":false},{"pitch":71,"velocity":28,"startTime":175.320873,"endTime":175.676377125,"instrument":5,"program":75,"isDrum":false},{"pitch":67,"velocity":26,"startTime":175.871331,"endTime":176.13967927500002,"instrument":5,"program":75,"isDrum":false},{"pitch":71,"velocity":31,"startTime":175.871331,"endTime":176.13967927500002,"instrument":5,"program":75,"isDrum":false},{"pitch":46,"velocity":80,"startTime":0,"endTime":0.10321087500000203,"instrument":6,"program":0,"isDrum":true},{"pitch":36,"velocity":120,"startTime":0,"endTime":0.06880724999999899,"instrument":6,"program":0,"isDrum":true},{"pitch":44,"velocity":124,"startTime":0.550457999999999,"endTime":0.768347624999997,"instrument":6,"program":0,"isDrum":true},{"pitch":38,"velocity":128,"startTime":0.550457999999999,"endTime":0.665136749999995,"instrument":6,"program":0,"isDrum":true},{"pitch":44,"velocity":128,"startTime":0.8256870000000021,"endTime":0.928897874999997,"instrument":6,"program":0,"isDrum":true},{"pitch":40,"velocity":100,"startTime":0.9518336250000061,"endTime":1.020640875000005,"instrument":6,"program":0,"isDrum":true},{"pitch":44,"velocity":124,"startTime":1.100915999999998,"endTime":1.169723249999997,"instrument":6,"program":0,"isDrum":true},{"pitch":44,"velocity":125,"startTime":1.376145000000001,"endTime":1.438071524999998,"instrument":6,"program":0,"isDrum":true},{"pitch":44,"velocity":126,"startTime":1.651373999999997,"endTime":1.720181250000003,"instrument":6,"program":0,"isDrum":true},{"pitch":38,"velocity":128,"startTime":1.651373999999997,"endTime":1.788988500000002,"instrument":6,"program":0,"isDrum":true},{"pitch":46,"velocity":80,"startTime":1.926603,"endTime":2.029813875000002,"instrument":6,"program":0,"isDrum":true},{"pitch":36,"velocity":120,"startTime":1.926603,"endTime":2.029813875000002,"instrument":6,"program":0,"isDrum":true},{"pitch":46,"velocity":80,"startTime":2.201832000000003,"endTime":2.305042874999998,"instrument":6,"program":0,"isDrum":true},{"pitch":36,"velocity":120,"startTime":2.201832000000003,"endTime":2.327978625,"instrument":6,"program":0,"isDrum":true},{"pitch":38,"velocity":128,"startTime":2.752290000000002,"endTime":2.844033000000003,"instrument":6,"program":0,"isDrum":true},{"pitch":44,"velocity":121,"startTime":3.027518999999998,"endTime":3.084858375000003,"instrument":6,"program":0,"isDrum":true},{"pitch":44,"velocity":124,"startTime":3.302748000000001,"endTime":3.383023124999994,"instrument":6,"program":0,"isDrum":true},{"pitch":38,"velocity":128,"startTime":3.853206,"endTime":3.979352625000004,"instrument":6,"program":0,"isDrum":true},{"pitch":46,"velocity":80,"startTime":4.403663999999999,"endTime":4.506874875000001,"instrument":6,"program":0,"isDrum":true},{"pitch":36,"velocity":120,"startTime":4.403663999999999,"endTime":4.472471249999998,"instrument":6,"program":0,"isDrum":true},{"pitch":44,"velocity":124,"startTime":4.954121999999998,"endTime":5.172011624999996,"instrument":6,"program":0,"isDrum":true},{"pitch":38,"velocity":128,"startTime":4.954121999999998,"endTime":5.068800749999994,"instrument":6,"program":0,"isDrum":true},{"pitch":44,"velocity":128,"startTime":5.229351000000001,"endTime":5.332561875000003,"instrument":6,"program":0,"isDrum":true},{"pitch":40,"velocity":100,"startTime":5.355497625000005,"endTime":5.424304875000004,"instrument":6,"program":0,"isDrum":true},{"pitch":44,"velocity":124,"startTime":5.504579999999997,"endTime":5.573387250000003,"instrument":6,"program":0,"isDrum":true},{"pitch":44,"velocity":125,"startTime":5.779809,"endTime":5.841735524999997,"instrument":6,"program":0,"isDrum":true},{"pitch":44,"velocity":126,"startTime":6.055038000000003,"endTime":6.123845250000002,"instrument":6,"program":0,"isDrum":true},{"pitch":38,"velocity":128,"startTime":6.055038000000003,"endTime":6.192652500000001,"instrument":6,"program":0,"isDrum":true},{"pitch":36,"velocity":120,"startTime":6.330266999999999,"endTime":6.433477875000001,"instrument":6,"program":0,"isDrum":true},{"pitch":46,"velocity":80,"startTime":6.330266999999999,"endTime":6.433477875000001,"instrument":6,"program":0,"isDrum":true},{"pitch":46,"velocity":80,"startTime":6.605496000000002,"endTime":6.708706874999997,"instrument":6,"program":0,"isDrum":true},{"pitch":36,"velocity":120,"startTime":6.605496000000002,"endTime":6.731642624999999,"instrument":6,"program":0,"isDrum":true},{"pitch":38,"velocity":128,"startTime":7.155954000000001,"endTime":7.247697000000002,"instrument":6,"program":0,"isDrum":true},{"pitch":44,"velocity":121,"startTime":7.431182999999997,"endTime":7.488522375000002,"instrument":6,"program":0,"isDrum":true},{"pitch":44,"velocity":124,"startTime":7.706412,"endTime":7.786687125,"instrument":6,"program":0,"isDrum":true},{"pitch":44,"velocity":128,"startTime":7.981641000000003,"endTime":8.201824200000004,"instrument":6,"program":0,"isDrum":true},{"pitch":44,"velocity":128,"startTime":8.25687,"endTime":8.697236400000001,"instrument":6,"program":0,"isDrum":true},{"pitch":38,"velocity":128,"startTime":8.25687,"endTime":8.383016625000003,"instrument":6,"program":0,"isDrum":true},{"pitch":46,"velocity":80,"startTime":8.807327999999998,"endTime":8.910538875,"instrument":6,"program":0,"isDrum":true},{"pitch":36,"velocity":120,"startTime":8.807327999999998,"endTime":8.876135249999997,"instrument":6,"program":0,"isDrum":true},{"pitch":44,"velocity":124,"startTime":9.357785999999997,"endTime":9.575675624999995,"instrument":6,"program":0,"isDrum":true},{"pitch":38,"velocity":128,"startTime":9.357785999999997,"endTime":9.47246475,"instrument":6,"program":0,"isDrum":true},{"pitch":44,"velocity":128,"startTime":9.633015,"endTime":9.736225875000002,"instrument":6,"program":0,"isDrum":true},{"pitch":40,"velocity":100,"startTime":9.759161625000004,"endTime":9.827968875000003,"instrument":6,"program":0,"isDrum":true},{"pitch":44,"velocity":124,"startTime":9.908244000000003,"endTime":9.977051250000002,"instrument":6,"program":0,"isDrum":true},{"pitch":44,"velocity":125,"startTime":10.183473,"endTime":10.245399524999996,"instrument":6,"program":0,"isDrum":true},{"pitch":44,"velocity":126,"startTime":10.458702000000002,"endTime":10.527509250000001,"instrument":6,"program":0,"isDrum":true},{"pitch":38,"velocity":128,"startTime":10.458702000000002,"endTime":10.5963165,"instrument":6,"program":0,"isDrum":true},{"pitch":36,"velocity":120,"startTime":10.733930999999998,"endTime":10.837141875,"instrument":6,"program":0,"isDrum":true},{"pitch":46,"velocity":80,"startTime":10.733930999999998,"endTime":10.837141875,"instrument":6,"program":0,"isDrum":true},{"pitch":46,"velocity":80,"startTime":11.009160000000001,"endTime":11.112370875000003,"instrument":6,"program":0,"isDrum":true},{"pitch":36,"velocity":120,"startTime":11.009160000000001,"endTime":11.135306625000005,"instrument":6,"program":0,"isDrum":true},{"pitch":38,"velocity":128,"startTime":11.559618,"endTime":11.651361000000001,"instrument":6,"program":0,"isDrum":true},{"pitch":44,"velocity":121,"startTime":11.834847000000003,"endTime":11.892186375000001,"instrument":6,"program":0,"isDrum":true},{"pitch":44,"velocity":124,"startTime":12.110076,"endTime":12.190351125,"instrument":6,"program":0,"isDrum":true},{"pitch":38,"velocity":128,"startTime":12.660533999999998,"endTime":12.786680625000002,"instrument":6,"program":0,"isDrum":true},{"pitch":36,"velocity":120,"startTime":12.935763000000001,"endTime":13.038973875000003,"instrument":6,"program":0,"isDrum":true},{"pitch":46,"velocity":80,"startTime":12.935763000000001,"endTime":13.038973875000003,"instrument":6,"program":0,"isDrum":true},{"pitch":46,"velocity":80,"startTime":13.210991999999997,"endTime":13.314202875,"instrument":6,"program":0,"isDrum":true},{"pitch":36,"velocity":120,"startTime":13.210991999999997,"endTime":13.279799250000003,"instrument":6,"program":0,"isDrum":true},{"pitch":44,"velocity":124,"startTime":13.761450000000004,"endTime":13.979339624999994,"instrument":6,"program":0,"isDrum":true},{"pitch":38,"velocity":128,"startTime":13.761450000000004,"endTime":13.87612875,"instrument":6,"program":0,"isDrum":true},{"pitch":44,"velocity":128,"startTime":14.036679,"endTime":14.139889875000001,"instrument":6,"program":0,"isDrum":true},{"pitch":40,"velocity":100,"startTime":14.162825625000004,"endTime":14.231632875000003,"instrument":6,"program":0,"isDrum":true},{"pitch":44,"velocity":124,"startTime":14.311908000000003,"endTime":14.380715250000002,"instrument":6,"program":0,"isDrum":true},{"pitch":44,"velocity":125,"startTime":14.587136999999998,"endTime":14.649063524999995,"instrument":6,"program":0,"isDrum":true},{"pitch":44,"velocity":126,"startTime":14.862366000000002,"endTime":14.93117325,"instrument":6,"program":0,"isDrum":true},{"pitch":38,"velocity":128,"startTime":14.862366000000002,"endTime":14.9999805,"instrument":6,"program":0,"isDrum":true},{"pitch":36,"velocity":120,"startTime":15.137594999999997,"endTime":15.240805875,"instrument":6,"program":0,"isDrum":true},{"pitch":46,"velocity":80,"startTime":15.137594999999997,"endTime":15.240805875,"instrument":6,"program":0,"isDrum":true},{"pitch":46,"velocity":80,"startTime":15.412824,"endTime":15.516034875000003,"instrument":6,"program":0,"isDrum":true},{"pitch":36,"velocity":120,"startTime":15.412824,"endTime":15.538970625000005,"instrument":6,"program":0,"isDrum":true},{"pitch":38,"velocity":128,"startTime":15.963282,"endTime":16.055025,"instrument":6,"program":0,"isDrum":true},{"pitch":44,"velocity":121,"startTime":16.238511000000003,"endTime":16.295850375,"instrument":6,"program":0,"isDrum":true},{"pitch":44,"velocity":124,"startTime":16.51374,"endTime":16.594015125,"instrument":6,"program":0,"isDrum":true},{"pitch":38,"velocity":128,"startTime":17.064197999999998,"endTime":17.190344625,"instrument":6,"program":0,"isDrum":true},{"pitch":46,"velocity":80,"startTime":17.614656000000004,"endTime":17.717866875,"instrument":6,"program":0,"isDrum":true},{"pitch":36,"velocity":120,"startTime":17.614656000000004,"endTime":17.683463250000003,"instrument":6,"program":0,"isDrum":true},{"pitch":44,"velocity":124,"startTime":18.165114000000003,"endTime":18.383003625,"instrument":6,"program":0,"isDrum":true},{"pitch":38,"velocity":128,"startTime":18.165114000000003,"endTime":18.27979275,"instrument":6,"program":0,"isDrum":true},{"pitch":44,"velocity":128,"startTime":18.440343,"endTime":18.543553875,"instrument":6,"program":0,"isDrum":true},{"pitch":40,"velocity":100,"startTime":18.566489625000003,"endTime":18.635296875,"instrument":6,"program":0,"isDrum":true},{"pitch":44,"velocity":124,"startTime":18.715572,"endTime":18.78437925,"instrument":6,"program":0,"isDrum":true},{"pitch":44,"velocity":125,"startTime":18.990800999999998,"endTime":19.052727525,"instrument":6,"program":0,"isDrum":true},{"pitch":44,"velocity":126,"startTime":19.26603,"endTime":19.33483725,"instrument":6,"program":0,"isDrum":true},{"pitch":38,"velocity":128,"startTime":19.26603,"endTime":19.4036445,"instrument":6,"program":0,"isDrum":true},{"pitch":46,"velocity":80,"startTime":19.541258999999997,"endTime":19.644469875,"instrument":6,"program":0,"isDrum":true},{"pitch":36,"velocity":120,"startTime":19.541258999999997,"endTime":19.644469875,"instrument":6,"program":0,"isDrum":true},{"pitch":46,"velocity":80,"startTime":19.816488,"endTime":19.919698875,"instrument":6,"program":0,"isDrum":true},{"pitch":36,"velocity":120,"startTime":19.816488,"endTime":19.942634625000004,"instrument":6,"program":0,"isDrum":true},{"pitch":38,"velocity":128,"startTime":20.366946,"endTime":20.458689,"instrument":6,"program":0,"isDrum":true},{"pitch":44,"velocity":121,"startTime":20.642175,"endTime":20.699514375,"instrument":6,"program":0,"isDrum":true},{"pitch":44,"velocity":124,"startTime":20.917403999999998,"endTime":20.997679124999998,"instrument":6,"program":0,"isDrum":true},{"pitch":38,"velocity":128,"startTime":21.467861999999997,"endTime":21.594008625,"instrument":6,"program":0,"isDrum":true},{"pitch":46,"velocity":80,"startTime":22.018320000000003,"endTime":22.121530874999998,"instrument":6,"program":0,"isDrum":true},{"pitch":36,"velocity":120,"startTime":22.018320000000003,"endTime":22.08712725,"instrument":6,"program":0,"isDrum":true},{"pitch":44,"velocity":124,"startTime":22.568778000000002,"endTime":22.786667625,"instrument":6,"program":0,"isDrum":true},{"pitch":38,"velocity":128,"startTime":22.568778000000002,"endTime":22.683456749999998,"instrument":6,"program":0,"isDrum":true},{"pitch":44,"velocity":128,"startTime":22.844006999999998,"endTime":22.947217875,"instrument":6,"program":0,"isDrum":true},{"pitch":40,"velocity":100,"startTime":22.970153625000002,"endTime":23.038960875,"instrument":6,"program":0,"isDrum":true},{"pitch":44,"velocity":124,"startTime":23.119236,"endTime":23.18804325,"instrument":6,"program":0,"isDrum":true},{"pitch":44,"velocity":125,"startTime":23.394464999999997,"endTime":23.456391525,"instrument":6,"program":0,"isDrum":true},{"pitch":44,"velocity":126,"startTime":23.669694,"endTime":23.73850125,"instrument":6,"program":0,"isDrum":true},{"pitch":38,"velocity":128,"startTime":23.669694,"endTime":23.807308499999998,"instrument":6,"program":0,"isDrum":true},{"pitch":36,"velocity":120,"startTime":23.944923000000003,"endTime":24.048133874999998,"instrument":6,"program":0,"isDrum":true},{"pitch":46,"velocity":80,"startTime":23.944923000000003,"endTime":24.048133874999998,"instrument":6,"program":0,"isDrum":true},{"pitch":46,"velocity":80,"startTime":24.220152,"endTime":24.323362875,"instrument":6,"program":0,"isDrum":true},{"pitch":36,"velocity":120,"startTime":24.220152,"endTime":24.346298625000003,"instrument":6,"program":0,"isDrum":true},{"pitch":38,"velocity":128,"startTime":24.770609999999998,"endTime":24.862353000000006,"instrument":6,"program":0,"isDrum":true},{"pitch":44,"velocity":121,"startTime":25.045839,"endTime":25.103178375000006,"instrument":6,"program":0,"isDrum":true},{"pitch":44,"velocity":124,"startTime":25.321067999999997,"endTime":25.401343124999997,"instrument":6,"program":0,"isDrum":true},{"pitch":44,"velocity":128,"startTime":25.596297,"endTime":25.8164802,"instrument":6,"program":0,"isDrum":true},{"pitch":44,"velocity":128,"startTime":25.871526000000003,"endTime":26.311892399999998,"instrument":6,"program":0,"isDrum":true},{"pitch":38,"velocity":128,"startTime":25.871526000000003,"endTime":25.997672625,"instrument":6,"program":0,"isDrum":true},{"pitch":46,"velocity":80,"startTime":26.421984000000002,"endTime":26.525194874999997,"instrument":6,"program":0,"isDrum":true},{"pitch":36,"velocity":120,"startTime":26.421984000000002,"endTime":26.49079125,"instrument":6,"program":0,"isDrum":true},{"pitch":44,"velocity":124,"startTime":26.972442,"endTime":27.190331625,"instrument":6,"program":0,"isDrum":true},{"pitch":38,"velocity":128,"startTime":26.972442,"endTime":27.087120749999997,"instrument":6,"program":0,"isDrum":true},{"pitch":44,"velocity":128,"startTime":27.247670999999997,"endTime":27.350881875,"instrument":6,"program":0,"isDrum":true},{"pitch":40,"velocity":100,"startTime":27.373817625,"endTime":27.442624875,"instrument":6,"program":0,"isDrum":true},{"pitch":44,"velocity":124,"startTime":27.5229,"endTime":27.59170725,"instrument":6,"program":0,"isDrum":true},{"pitch":44,"velocity":125,"startTime":27.798129000000003,"endTime":27.860055525,"instrument":6,"program":0,"isDrum":true},{"pitch":44,"velocity":126,"startTime":28.073358,"endTime":28.142165249999998,"instrument":6,"program":0,"isDrum":true},{"pitch":38,"velocity":128,"startTime":28.073358,"endTime":28.210972499999997,"instrument":6,"program":0,"isDrum":true},{"pitch":36,"velocity":120,"startTime":28.348587000000002,"endTime":28.451797874999997,"instrument":6,"program":0,"isDrum":true},{"pitch":46,"velocity":80,"startTime":28.348587000000002,"endTime":28.451797874999997,"instrument":6,"program":0,"isDrum":true},{"pitch":46,"velocity":80,"startTime":28.623815999999998,"endTime":28.727026875,"instrument":6,"program":0,"isDrum":true},{"pitch":36,"velocity":120,"startTime":28.623815999999998,"endTime":28.749962625000002,"instrument":6,"program":0,"isDrum":true},{"pitch":38,"velocity":128,"startTime":29.174274000000004,"endTime":29.266016999999998,"instrument":6,"program":0,"isDrum":true},{"pitch":44,"velocity":121,"startTime":29.449503,"endTime":29.506842374999998,"instrument":6,"program":0,"isDrum":true},{"pitch":44,"velocity":124,"startTime":29.724731999999996,"endTime":29.805007124999996,"instrument":6,"program":0,"isDrum":true},{"pitch":38,"velocity":128,"startTime":30.275190000000002,"endTime":30.401336625000006,"instrument":6,"program":0,"isDrum":true},{"pitch":36,"velocity":120,"startTime":30.550418999999998,"endTime":30.653629875,"instrument":6,"program":0,"isDrum":true},{"pitch":46,"velocity":80,"startTime":30.550418999999998,"endTime":30.653629875,"instrument":6,"program":0,"isDrum":true},{"pitch":46,"velocity":80,"startTime":30.825647999999994,"endTime":30.928858874999996,"instrument":6,"program":0,"isDrum":true},{"pitch":36,"velocity":120,"startTime":30.825647999999994,"endTime":30.89445525,"instrument":6,"program":0,"isDrum":true},{"pitch":44,"velocity":124,"startTime":31.376106,"endTime":31.593995624999998,"instrument":6,"program":0,"isDrum":true},{"pitch":38,"velocity":128,"startTime":31.376106,"endTime":31.490784749999996,"instrument":6,"program":0,"isDrum":true},{"pitch":44,"velocity":128,"startTime":31.651334999999996,"endTime":31.754545874999998,"instrument":6,"program":0,"isDrum":true},{"pitch":40,"velocity":100,"startTime":31.777481625,"endTime":31.846288875000006,"instrument":6,"program":0,"isDrum":true},{"pitch":44,"velocity":124,"startTime":31.926564000000006,"endTime":31.995371249999998,"instrument":6,"program":0,"isDrum":true},{"pitch":44,"velocity":125,"startTime":32.201793,"endTime":32.26371952499999,"instrument":6,"program":0,"isDrum":true},{"pitch":44,"velocity":126,"startTime":32.477022,"endTime":32.545829250000004,"instrument":6,"program":0,"isDrum":true},{"pitch":38,"velocity":128,"startTime":32.477022,"endTime":32.614636499999996,"instrument":6,"program":0,"isDrum":true},{"pitch":36,"velocity":120,"startTime":32.752250999999994,"endTime":32.855461874999996,"instrument":6,"program":0,"isDrum":true},{"pitch":46,"velocity":80,"startTime":32.752250999999994,"endTime":32.855461874999996,"instrument":6,"program":0,"isDrum":true},{"pitch":46,"velocity":80,"startTime":33.027480000000004,"endTime":33.130690875000006,"instrument":6,"program":0,"isDrum":true},{"pitch":36,"velocity":120,"startTime":33.027480000000004,"endTime":33.15362662500001,"instrument":6,"program":0,"isDrum":true},{"pitch":38,"velocity":128,"startTime":33.577937999999996,"endTime":33.669681000000004,"instrument":6,"program":0,"isDrum":true},{"pitch":44,"velocity":121,"startTime":33.853167000000006,"endTime":33.910506375000004,"instrument":6,"program":0,"isDrum":true},{"pitch":44,"velocity":124,"startTime":34.128396,"endTime":34.208671125,"instrument":6,"program":0,"isDrum":true},{"pitch":38,"velocity":128,"startTime":34.678853999999994,"endTime":34.805000625,"instrument":6,"program":0,"isDrum":true},{"pitch":46,"velocity":80,"startTime":35.229312,"endTime":35.332522875,"instrument":6,"program":0,"isDrum":true},{"pitch":36,"velocity":120,"startTime":35.229312,"endTime":35.298119250000006,"instrument":6,"program":0,"isDrum":true},{"pitch":44,"velocity":124,"startTime":35.779770000000006,"endTime":35.997659625000004,"instrument":6,"program":0,"isDrum":true},{"pitch":38,"velocity":128,"startTime":35.779770000000006,"endTime":35.89444875,"instrument":6,"program":0,"isDrum":true},{"pitch":44,"velocity":128,"startTime":36.054999,"endTime":36.158209875000004,"instrument":6,"program":0,"isDrum":true},{"pitch":40,"velocity":100,"startTime":36.18114562499999,"endTime":36.249952875,"instrument":6,"program":0,"isDrum":true},{"pitch":44,"velocity":124,"startTime":36.330228,"endTime":36.399035250000004,"instrument":6,"program":0,"isDrum":true},{"pitch":44,"velocity":125,"startTime":36.605456999999994,"endTime":36.66738352500001,"instrument":6,"program":0,"isDrum":true},{"pitch":44,"velocity":126,"startTime":36.880686000000004,"endTime":36.949493249999996,"instrument":6,"program":0,"isDrum":true},{"pitch":38,"velocity":128,"startTime":36.880686000000004,"endTime":37.0183005,"instrument":6,"program":0,"isDrum":true},{"pitch":46,"velocity":80,"startTime":37.155915,"endTime":37.259125875,"instrument":6,"program":0,"isDrum":true},{"pitch":36,"velocity":120,"startTime":37.155915,"endTime":37.259125875,"instrument":6,"program":0,"isDrum":true},{"pitch":46,"velocity":80,"startTime":37.431143999999996,"endTime":37.534354875,"instrument":6,"program":0,"isDrum":true},{"pitch":36,"velocity":120,"startTime":37.431143999999996,"endTime":37.557290625,"instrument":6,"program":0,"isDrum":true},{"pitch":38,"velocity":128,"startTime":37.981602,"endTime":38.073344999999996,"instrument":6,"program":0,"isDrum":true},{"pitch":44,"velocity":121,"startTime":38.256831,"endTime":38.314170374999996,"instrument":6,"program":0,"isDrum":true},{"pitch":44,"velocity":124,"startTime":38.532059999999994,"endTime":38.61233512500001,"instrument":6,"program":0,"isDrum":true},{"pitch":38,"velocity":128,"startTime":39.082518,"endTime":39.20866462499999,"instrument":6,"program":0,"isDrum":true},{"pitch":46,"velocity":80,"startTime":39.632976000000006,"endTime":39.736186874999994,"instrument":6,"program":0,"isDrum":true},{"pitch":36,"velocity":120,"startTime":39.632976000000006,"endTime":39.70178325,"instrument":6,"program":0,"isDrum":true},{"pitch":44,"velocity":124,"startTime":40.183434,"endTime":40.40132362500001,"instrument":6,"program":0,"isDrum":true},{"pitch":38,"velocity":128,"startTime":40.183434,"endTime":40.29811275000001,"instrument":6,"program":0,"isDrum":true},{"pitch":44,"velocity":128,"startTime":40.458662999999994,"endTime":40.561873874999996,"instrument":6,"program":0,"isDrum":true},{"pitch":40,"velocity":100,"startTime":40.584809625,"endTime":40.65361687499999,"instrument":6,"program":0,"isDrum":true},{"pitch":44,"velocity":124,"startTime":40.733892000000004,"endTime":40.802699249999996,"instrument":6,"program":0,"isDrum":true},{"pitch":44,"velocity":125,"startTime":41.009121,"endTime":41.071047525000004,"instrument":6,"program":0,"isDrum":true},{"pitch":44,"velocity":126,"startTime":41.284349999999996,"endTime":41.35315725,"instrument":6,"program":0,"isDrum":true},{"pitch":38,"velocity":128,"startTime":41.284349999999996,"endTime":41.421964499999994,"instrument":6,"program":0,"isDrum":true},{"pitch":36,"velocity":120,"startTime":41.55957900000001,"endTime":41.662789874999994,"instrument":6,"program":0,"isDrum":true},{"pitch":46,"velocity":80,"startTime":41.55957900000001,"endTime":41.662789874999994,"instrument":6,"program":0,"isDrum":true},{"pitch":46,"velocity":80,"startTime":41.834808,"endTime":41.938018875000004,"instrument":6,"program":0,"isDrum":true},{"pitch":36,"velocity":120,"startTime":41.834808,"endTime":41.96095462499999,"instrument":6,"program":0,"isDrum":true},{"pitch":38,"velocity":128,"startTime":42.385265999999994,"endTime":42.47700899999999,"instrument":6,"program":0,"isDrum":true},{"pitch":44,"velocity":121,"startTime":42.660495000000004,"endTime":42.71783437499999,"instrument":6,"program":0,"isDrum":true},{"pitch":44,"velocity":124,"startTime":42.935724,"endTime":43.015999125,"instrument":6,"program":0,"isDrum":true},{"pitch":44,"velocity":128,"startTime":43.210952999999996,"endTime":43.431136200000005,"instrument":6,"program":0,"isDrum":true},{"pitch":44,"velocity":128,"startTime":43.48618200000001,"endTime":43.92654840000001,"instrument":6,"program":0,"isDrum":true},{"pitch":38,"velocity":128,"startTime":43.48618200000001,"endTime":43.612328624999996,"instrument":6,"program":0,"isDrum":true},{"pitch":46,"velocity":80,"startTime":44.03664,"endTime":44.139850875,"instrument":6,"program":0,"isDrum":true},{"pitch":36,"velocity":120,"startTime":44.03664,"endTime":44.105447250000005,"instrument":6,"program":0,"isDrum":true},{"pitch":44,"velocity":124,"startTime":44.587098000000005,"endTime":44.804987625,"instrument":6,"program":0,"isDrum":true},{"pitch":38,"velocity":128,"startTime":44.587098000000005,"endTime":44.70177675,"instrument":6,"program":0,"isDrum":true},{"pitch":44,"velocity":128,"startTime":44.862327,"endTime":44.965537875,"instrument":6,"program":0,"isDrum":true},{"pitch":40,"velocity":100,"startTime":44.98847362499999,"endTime":45.057280875,"instrument":6,"program":0,"isDrum":true},{"pitch":44,"velocity":124,"startTime":45.137556,"endTime":45.20636325,"instrument":6,"program":0,"isDrum":true},{"pitch":44,"velocity":125,"startTime":45.41278500000001,"endTime":45.47471152500001,"instrument":6,"program":0,"isDrum":true},{"pitch":44,"velocity":126,"startTime":45.688014,"endTime":45.756821249999994,"instrument":6,"program":0,"isDrum":true},{"pitch":38,"velocity":128,"startTime":45.688014,"endTime":45.8256285,"instrument":6,"program":0,"isDrum":true},{"pitch":36,"velocity":120,"startTime":45.963243,"endTime":46.066453875,"instrument":6,"program":0,"isDrum":true},{"pitch":46,"velocity":80,"startTime":45.963243,"endTime":46.066453875,"instrument":6,"program":0,"isDrum":true},{"pitch":46,"velocity":80,"startTime":46.238471999999994,"endTime":46.341682875,"instrument":6,"program":0,"isDrum":true},{"pitch":36,"velocity":120,"startTime":46.238471999999994,"endTime":46.364618625,"instrument":6,"program":0,"isDrum":true},{"pitch":38,"velocity":128,"startTime":46.78893,"endTime":46.880672999999994,"instrument":6,"program":0,"isDrum":true},{"pitch":44,"velocity":121,"startTime":47.064159,"endTime":47.121498374999994,"instrument":6,"program":0,"isDrum":true},{"pitch":44,"velocity":124,"startTime":47.33938800000001,"endTime":47.41966312500001,"instrument":6,"program":0,"isDrum":true},{"pitch":38,"velocity":128,"startTime":47.889846,"endTime":48.01599262499999,"instrument":6,"program":0,"isDrum":true},{"pitch":36,"velocity":120,"startTime":48.165074999999995,"endTime":48.268285875,"instrument":6,"program":0,"isDrum":true},{"pitch":46,"velocity":80,"startTime":48.165074999999995,"endTime":48.268285875,"instrument":6,"program":0,"isDrum":true},{"pitch":46,"velocity":80,"startTime":48.440304000000005,"endTime":48.54351487500001,"instrument":6,"program":0,"isDrum":true},{"pitch":36,"velocity":120,"startTime":48.440304000000005,"endTime":48.50911125,"instrument":6,"program":0,"isDrum":true},{"pitch":44,"velocity":124,"startTime":48.990762,"endTime":49.20865162500001,"instrument":6,"program":0,"isDrum":true},{"pitch":38,"velocity":128,"startTime":48.990762,"endTime":49.10544075000001,"instrument":6,"program":0,"isDrum":true},{"pitch":44,"velocity":128,"startTime":49.26599100000001,"endTime":49.369201874999995,"instrument":6,"program":0,"isDrum":true},{"pitch":40,"velocity":100,"startTime":49.392137625,"endTime":49.46094487499999,"instrument":6,"program":0,"isDrum":true},{"pitch":44,"velocity":124,"startTime":49.54122,"endTime":49.610027249999995,"instrument":6,"program":0,"isDrum":true},{"pitch":44,"velocity":125,"startTime":49.816449,"endTime":49.878375525,"instrument":6,"program":0,"isDrum":true},{"pitch":44,"velocity":126,"startTime":50.091677999999995,"endTime":50.16048525,"instrument":6,"program":0,"isDrum":true},{"pitch":38,"velocity":128,"startTime":50.091677999999995,"endTime":50.22929250000001,"instrument":6,"program":0,"isDrum":true},{"pitch":36,"velocity":120,"startTime":50.366907000000005,"endTime":50.47011787500001,"instrument":6,"program":0,"isDrum":true},{"pitch":46,"velocity":80,"startTime":50.366907000000005,"endTime":50.47011787500001,"instrument":6,"program":0,"isDrum":true},{"pitch":46,"velocity":80,"startTime":50.642136,"endTime":50.745346875,"instrument":6,"program":0,"isDrum":true},{"pitch":36,"velocity":120,"startTime":50.642136,"endTime":50.76828262499999,"instrument":6,"program":0,"isDrum":true},{"pitch":38,"velocity":128,"startTime":51.19259400000001,"endTime":51.284337,"instrument":6,"program":0,"isDrum":true},{"pitch":44,"velocity":121,"startTime":51.467823,"endTime":51.525162375,"instrument":6,"program":0,"isDrum":true},{"pitch":44,"velocity":124,"startTime":51.743052,"endTime":51.823327125,"instrument":6,"program":0,"isDrum":true},{"pitch":38,"velocity":128,"startTime":52.293510000000005,"endTime":52.419656624999995,"instrument":6,"program":0,"isDrum":true},{"pitch":46,"velocity":80,"startTime":52.843968,"endTime":52.947178875,"instrument":6,"program":0,"isDrum":true},{"pitch":36,"velocity":120,"startTime":52.843968,"endTime":52.91277525,"instrument":6,"program":0,"isDrum":true},{"pitch":44,"velocity":124,"startTime":53.394426,"endTime":53.612315625,"instrument":6,"program":0,"isDrum":true},{"pitch":38,"velocity":128,"startTime":53.394426,"endTime":53.50910475,"instrument":6,"program":0,"isDrum":true},{"pitch":44,"velocity":128,"startTime":53.669655,"endTime":53.772865875,"instrument":6,"program":0,"isDrum":true},{"pitch":40,"velocity":100,"startTime":53.79580162499999,"endTime":53.864608874999995,"instrument":6,"program":0,"isDrum":true},{"pitch":44,"velocity":124,"startTime":53.944883999999995,"endTime":54.01369125,"instrument":6,"program":0,"isDrum":true},{"pitch":44,"velocity":125,"startTime":54.220113000000005,"endTime":54.28203952500001,"instrument":6,"program":0,"isDrum":true},{"pitch":44,"velocity":126,"startTime":54.495342,"endTime":54.56414925000001,"instrument":6,"program":0,"isDrum":true},{"pitch":38,"velocity":128,"startTime":54.495342,"endTime":54.6329565,"instrument":6,"program":0,"isDrum":true},{"pitch":46,"velocity":80,"startTime":54.770571,"endTime":54.873781875,"instrument":6,"program":0,"isDrum":true},{"pitch":36,"velocity":120,"startTime":54.770571,"endTime":54.873781875,"instrument":6,"program":0,"isDrum":true},{"pitch":46,"velocity":80,"startTime":55.04580000000001,"endTime":55.149010874999995,"instrument":6,"program":0,"isDrum":true},{"pitch":36,"velocity":120,"startTime":55.04580000000001,"endTime":55.171946625,"instrument":6,"program":0,"isDrum":true},{"pitch":38,"velocity":128,"startTime":55.596258,"endTime":55.68800099999999,"instrument":6,"program":0,"isDrum":true},{"pitch":44,"velocity":121,"startTime":55.871486999999995,"endTime":55.92882637499999,"instrument":6,"program":0,"isDrum":true},{"pitch":44,"velocity":124,"startTime":56.146716000000005,"endTime":56.226991125000005,"instrument":6,"program":0,"isDrum":true},{"pitch":38,"velocity":128,"startTime":56.697174,"endTime":56.823320625,"instrument":6,"program":0,"isDrum":true},{"pitch":46,"velocity":80,"startTime":57.247632,"endTime":57.350842875000005,"instrument":6,"program":0,"isDrum":true},{"pitch":36,"velocity":120,"startTime":57.247632,"endTime":57.316439249999995,"instrument":6,"program":0,"isDrum":true},{"pitch":44,"velocity":124,"startTime":57.798089999999995,"endTime":58.01597962500001,"instrument":6,"program":0,"isDrum":true},{"pitch":38,"velocity":128,"startTime":57.798089999999995,"endTime":57.912768750000005,"instrument":6,"program":0,"isDrum":true},{"pitch":44,"velocity":128,"startTime":58.073319000000005,"endTime":58.17652987500001,"instrument":6,"program":0,"isDrum":true},{"pitch":40,"velocity":100,"startTime":58.199465624999995,"endTime":58.268272875,"instrument":6,"program":0,"isDrum":true},{"pitch":44,"velocity":124,"startTime":58.348548,"endTime":58.41735525000001,"instrument":6,"program":0,"isDrum":true},{"pitch":44,"velocity":125,"startTime":58.623777,"endTime":58.685703525,"instrument":6,"program":0,"isDrum":true},{"pitch":44,"velocity":126,"startTime":58.89900600000001,"endTime":58.96781325,"instrument":6,"program":0,"isDrum":true},{"pitch":38,"velocity":128,"startTime":58.89900600000001,"endTime":59.036620500000005,"instrument":6,"program":0,"isDrum":true},{"pitch":36,"velocity":120,"startTime":59.174235,"endTime":59.277445875000005,"instrument":6,"program":0,"isDrum":true},{"pitch":46,"velocity":80,"startTime":59.174235,"endTime":59.277445875000005,"instrument":6,"program":0,"isDrum":true},{"pitch":46,"velocity":80,"startTime":59.449464,"endTime":59.552674875,"instrument":6,"program":0,"isDrum":true},{"pitch":36,"velocity":120,"startTime":59.449464,"endTime":59.57561062499999,"instrument":6,"program":0,"isDrum":true},{"pitch":38,"velocity":128,"startTime":59.999922000000005,"endTime":60.091665,"instrument":6,"program":0,"isDrum":true},{"pitch":44,"velocity":121,"startTime":60.275151,"endTime":60.332490375,"instrument":6,"program":0,"isDrum":true},{"pitch":44,"velocity":124,"startTime":60.55038,"endTime":60.63065512500001,"instrument":6,"program":0,"isDrum":true},{"pitch":44,"velocity":128,"startTime":60.82560900000001,"endTime":61.0457922,"instrument":6,"program":0,"isDrum":true},{"pitch":44,"velocity":128,"startTime":61.100838,"endTime":61.541204400000005,"instrument":6,"program":0,"isDrum":true},{"pitch":38,"velocity":128,"startTime":61.100838,"endTime":61.22698462499999,"instrument":6,"program":0,"isDrum":true},{"pitch":46,"velocity":80,"startTime":61.651295999999995,"endTime":61.754506875,"instrument":6,"program":0,"isDrum":true},{"pitch":36,"velocity":120,"startTime":61.651295999999995,"endTime":61.72010325,"instrument":6,"program":0,"isDrum":true},{"pitch":44,"velocity":124,"startTime":62.201754,"endTime":62.419643625,"instrument":6,"program":0,"isDrum":true},{"pitch":38,"velocity":128,"startTime":62.201754,"endTime":62.31643275000001,"instrument":6,"program":0,"isDrum":true},{"pitch":44,"velocity":128,"startTime":62.476983,"endTime":62.580193875,"instrument":6,"program":0,"isDrum":true},{"pitch":40,"velocity":100,"startTime":62.603129625,"endTime":62.67193687499999,"instrument":6,"program":0,"isDrum":true},{"pitch":44,"velocity":124,"startTime":62.75221200000001,"endTime":62.82101925,"instrument":6,"program":0,"isDrum":true},{"pitch":44,"velocity":125,"startTime":63.027441,"endTime":63.08936752500001,"instrument":6,"program":0,"isDrum":true},{"pitch":44,"velocity":126,"startTime":63.30267,"endTime":63.371477250000005,"instrument":6,"program":0,"isDrum":true},{"pitch":38,"velocity":128,"startTime":63.30267,"endTime":63.4402845,"instrument":6,"program":0,"isDrum":true},{"pitch":36,"velocity":120,"startTime":63.577898999999995,"endTime":63.681109875,"instrument":6,"program":0,"isDrum":true},{"pitch":46,"velocity":80,"startTime":63.577898999999995,"endTime":63.681109875,"instrument":6,"program":0,"isDrum":true},{"pitch":46,"velocity":80,"startTime":63.853128000000005,"endTime":63.95633887500001,"instrument":6,"program":0,"isDrum":true},{"pitch":36,"velocity":120,"startTime":63.853128000000005,"endTime":63.979274624999995,"instrument":6,"program":0,"isDrum":true},{"pitch":38,"velocity":128,"startTime":64.40358599999999,"endTime":64.495329,"instrument":6,"program":0,"isDrum":true},{"pitch":44,"velocity":121,"startTime":64.67881500000001,"endTime":64.73615437499998,"instrument":6,"program":0,"isDrum":true},{"pitch":44,"velocity":124,"startTime":64.95404400000001,"endTime":65.034319125,"instrument":6,"program":0,"isDrum":true},{"pitch":38,"velocity":128,"startTime":65.504502,"endTime":65.63064862499999,"instrument":6,"program":0,"isDrum":true},{"pitch":36,"velocity":120,"startTime":65.779731,"endTime":65.882941875,"instrument":6,"program":0,"isDrum":true},{"pitch":46,"velocity":80,"startTime":65.779731,"endTime":65.882941875,"instrument":6,"program":0,"isDrum":true},{"pitch":46,"velocity":80,"startTime":66.05496,"endTime":66.158170875,"instrument":6,"program":0,"isDrum":true},{"pitch":36,"velocity":120,"startTime":66.05496,"endTime":66.12376725000001,"instrument":6,"program":0,"isDrum":true},{"pitch":44,"velocity":124,"startTime":66.60541800000001,"endTime":66.82330762500001,"instrument":6,"program":0,"isDrum":true},{"pitch":38,"velocity":128,"startTime":66.60541800000001,"endTime":66.72009675000001,"instrument":6,"program":0,"isDrum":true},{"pitch":44,"velocity":128,"startTime":66.88064700000001,"endTime":66.98385787500001,"instrument":6,"program":0,"isDrum":true},{"pitch":40,"velocity":100,"startTime":67.006793625,"endTime":67.07560087499999,"instrument":6,"program":0,"isDrum":true},{"pitch":44,"velocity":124,"startTime":67.155876,"endTime":67.22468325,"instrument":6,"program":0,"isDrum":true},{"pitch":44,"velocity":125,"startTime":67.431105,"endTime":67.49303152500002,"instrument":6,"program":0,"isDrum":true},{"pitch":44,"velocity":126,"startTime":67.706334,"endTime":67.77514124999999,"instrument":6,"program":0,"isDrum":true},{"pitch":38,"velocity":128,"startTime":67.706334,"endTime":67.84394850000001,"instrument":6,"program":0,"isDrum":true},{"pitch":36,"velocity":120,"startTime":67.981563,"endTime":68.084773875,"instrument":6,"program":0,"isDrum":true},{"pitch":46,"velocity":80,"startTime":67.981563,"endTime":68.084773875,"instrument":6,"program":0,"isDrum":true},{"pitch":46,"velocity":80,"startTime":68.25679199999999,"endTime":68.36000287499999,"instrument":6,"program":0,"isDrum":true},{"pitch":36,"velocity":120,"startTime":68.25679199999999,"endTime":68.38293862500001,"instrument":6,"program":0,"isDrum":true},{"pitch":38,"velocity":128,"startTime":68.80725000000001,"endTime":68.89899299999999,"instrument":6,"program":0,"isDrum":true},{"pitch":44,"velocity":121,"startTime":69.082479,"endTime":69.139818375,"instrument":6,"program":0,"isDrum":true},{"pitch":44,"velocity":124,"startTime":69.357708,"endTime":69.43798312500002,"instrument":6,"program":0,"isDrum":true},{"pitch":38,"velocity":128,"startTime":69.908166,"endTime":70.03431262499998,"instrument":6,"program":0,"isDrum":true},{"pitch":46,"velocity":80,"startTime":70.45862400000001,"endTime":70.56183487499999,"instrument":6,"program":0,"isDrum":true},{"pitch":36,"velocity":120,"startTime":70.45862400000001,"endTime":70.52743125,"instrument":6,"program":0,"isDrum":true},{"pitch":44,"velocity":124,"startTime":71.009082,"endTime":71.226971625,"instrument":6,"program":0,"isDrum":true},{"pitch":38,"velocity":128,"startTime":71.009082,"endTime":71.12376075,"instrument":6,"program":0,"isDrum":true},{"pitch":44,"velocity":128,"startTime":71.284311,"endTime":71.387521875,"instrument":6,"program":0,"isDrum":true},{"pitch":40,"velocity":100,"startTime":71.41045762499999,"endTime":71.47926487499998,"instrument":6,"program":0,"isDrum":true},{"pitch":44,"velocity":124,"startTime":71.55954,"endTime":71.62834724999999,"instrument":6,"program":0,"isDrum":true},{"pitch":44,"velocity":125,"startTime":71.834769,"endTime":71.89669552500001,"instrument":6,"program":0,"isDrum":true},{"pitch":44,"velocity":126,"startTime":72.10999799999999,"endTime":72.17880525000001,"instrument":6,"program":0,"isDrum":true},{"pitch":38,"velocity":128,"startTime":72.10999799999999,"endTime":72.2476125,"instrument":6,"program":0,"isDrum":true},{"pitch":46,"velocity":80,"startTime":72.38522699999999,"endTime":72.48843787499999,"instrument":6,"program":0,"isDrum":true},{"pitch":36,"velocity":120,"startTime":72.38522699999999,"endTime":72.48843787499999,"instrument":6,"program":0,"isDrum":true},{"pitch":46,"velocity":80,"startTime":72.66045600000001,"endTime":72.76366687500001,"instrument":6,"program":0,"isDrum":true},{"pitch":36,"velocity":120,"startTime":72.66045600000001,"endTime":72.786602625,"instrument":6,"program":0,"isDrum":true},{"pitch":38,"velocity":128,"startTime":73.210914,"endTime":73.30265699999998,"instrument":6,"program":0,"isDrum":true},{"pitch":44,"velocity":121,"startTime":73.486143,"endTime":73.543482375,"instrument":6,"program":0,"isDrum":true},{"pitch":44,"velocity":124,"startTime":73.761372,"endTime":73.84164712500001,"instrument":6,"program":0,"isDrum":true},{"pitch":38,"velocity":128,"startTime":74.31182999999999,"endTime":74.437976625,"instrument":6,"program":0,"isDrum":true},{"pitch":46,"velocity":80,"startTime":74.862288,"endTime":74.96549887500001,"instrument":6,"program":0,"isDrum":true},{"pitch":36,"velocity":120,"startTime":74.862288,"endTime":74.93109525,"instrument":6,"program":0,"isDrum":true},{"pitch":44,"velocity":124,"startTime":75.412746,"endTime":75.630635625,"instrument":6,"program":0,"isDrum":true},{"pitch":38,"velocity":128,"startTime":75.412746,"endTime":75.52742475,"instrument":6,"program":0,"isDrum":true},{"pitch":44,"velocity":128,"startTime":75.687975,"endTime":75.791185875,"instrument":6,"program":0,"isDrum":true},{"pitch":40,"velocity":100,"startTime":75.81412162499998,"endTime":75.882928875,"instrument":6,"program":0,"isDrum":true},{"pitch":44,"velocity":124,"startTime":75.96320399999999,"endTime":76.03201125000001,"instrument":6,"program":0,"isDrum":true},{"pitch":44,"velocity":125,"startTime":76.23843299999999,"endTime":76.300359525,"instrument":6,"program":0,"isDrum":true},{"pitch":44,"velocity":126,"startTime":76.51366200000001,"endTime":76.58246925,"instrument":6,"program":0,"isDrum":true},{"pitch":38,"velocity":128,"startTime":76.51366200000001,"endTime":76.6512765,"instrument":6,"program":0,"isDrum":true},{"pitch":36,"velocity":120,"startTime":76.788891,"endTime":76.89210187500001,"instrument":6,"program":0,"isDrum":true},{"pitch":46,"velocity":80,"startTime":76.788891,"endTime":76.89210187500001,"instrument":6,"program":0,"isDrum":true},{"pitch":46,"velocity":80,"startTime":77.06412,"endTime":77.167330875,"instrument":6,"program":0,"isDrum":true},{"pitch":36,"velocity":120,"startTime":77.06412,"endTime":77.19026662499999,"instrument":6,"program":0,"isDrum":true},{"pitch":38,"velocity":128,"startTime":77.614578,"endTime":77.706321,"instrument":6,"program":0,"isDrum":true},{"pitch":44,"velocity":121,"startTime":77.88980699999999,"endTime":77.94714637499999,"instrument":6,"program":0,"isDrum":true},{"pitch":44,"velocity":124,"startTime":78.16503599999999,"endTime":78.245311125,"instrument":6,"program":0,"isDrum":true},{"pitch":44,"velocity":128,"startTime":78.44026500000001,"endTime":78.66044819999999,"instrument":6,"program":0,"isDrum":true},{"pitch":44,"velocity":128,"startTime":78.715494,"endTime":79.1558604,"instrument":6,"program":0,"isDrum":true},{"pitch":38,"velocity":128,"startTime":78.715494,"endTime":78.841640625,"instrument":6,"program":0,"isDrum":true},{"pitch":46,"velocity":80,"startTime":79.265952,"endTime":79.369162875,"instrument":6,"program":0,"isDrum":true},{"pitch":36,"velocity":120,"startTime":79.265952,"endTime":79.33475924999999,"instrument":6,"program":0,"isDrum":true},{"pitch":44,"velocity":124,"startTime":79.81640999999999,"endTime":80.03429962500002,"instrument":6,"program":0,"isDrum":true},{"pitch":38,"velocity":128,"startTime":79.81640999999999,"endTime":79.93108875000001,"instrument":6,"program":0,"isDrum":true},{"pitch":44,"velocity":128,"startTime":80.09163899999999,"endTime":80.19484987499999,"instrument":6,"program":0,"isDrum":true},{"pitch":40,"velocity":100,"startTime":80.217785625,"endTime":80.286592875,"instrument":6,"program":0,"isDrum":true},{"pitch":44,"velocity":124,"startTime":80.36686800000001,"endTime":80.43567525,"instrument":6,"program":0,"isDrum":true},{"pitch":44,"velocity":125,"startTime":80.642097,"endTime":80.704023525,"instrument":6,"program":0,"isDrum":true},{"pitch":44,"velocity":126,"startTime":80.917326,"endTime":80.98613325,"instrument":6,"program":0,"isDrum":true},{"pitch":38,"velocity":128,"startTime":80.917326,"endTime":81.05494049999999,"instrument":6,"program":0,"isDrum":true},{"pitch":36,"velocity":120,"startTime":81.192555,"endTime":81.295765875,"instrument":6,"program":0,"isDrum":true},{"pitch":46,"velocity":80,"startTime":81.192555,"endTime":81.295765875,"instrument":6,"program":0,"isDrum":true},{"pitch":46,"velocity":80,"startTime":81.467784,"endTime":81.570994875,"instrument":6,"program":0,"isDrum":true},{"pitch":36,"velocity":120,"startTime":81.467784,"endTime":81.59393062499998,"instrument":6,"program":0,"isDrum":true},{"pitch":38,"velocity":128,"startTime":82.01824199999999,"endTime":82.109985,"instrument":6,"program":0,"isDrum":true},{"pitch":44,"velocity":121,"startTime":82.29347100000001,"endTime":82.35081037500001,"instrument":6,"program":0,"isDrum":true},{"pitch":44,"velocity":124,"startTime":82.5687,"endTime":82.64897512499999,"instrument":6,"program":0,"isDrum":true},{"pitch":38,"velocity":128,"startTime":83.119158,"endTime":83.24530462499999,"instrument":6,"program":0,"isDrum":true},{"pitch":36,"velocity":120,"startTime":83.394387,"endTime":83.497597875,"instrument":6,"program":0,"isDrum":true},{"pitch":46,"velocity":80,"startTime":83.394387,"endTime":83.497597875,"instrument":6,"program":0,"isDrum":true},{"pitch":46,"velocity":80,"startTime":83.66961599999999,"endTime":83.77282687499999,"instrument":6,"program":0,"isDrum":true},{"pitch":36,"velocity":120,"startTime":83.66961599999999,"endTime":83.73842325000001,"instrument":6,"program":0,"isDrum":true},{"pitch":44,"velocity":124,"startTime":84.22007400000001,"endTime":84.43796362500001,"instrument":6,"program":0,"isDrum":true},{"pitch":38,"velocity":128,"startTime":84.22007400000001,"endTime":84.33475275,"instrument":6,"program":0,"isDrum":true},{"pitch":44,"velocity":128,"startTime":84.495303,"endTime":84.59851387500001,"instrument":6,"program":0,"isDrum":true},{"pitch":40,"velocity":100,"startTime":84.621449625,"endTime":84.69025687499999,"instrument":6,"program":0,"isDrum":true},{"pitch":44,"velocity":124,"startTime":84.770532,"endTime":84.83933925,"instrument":6,"program":0,"isDrum":true},{"pitch":44,"velocity":125,"startTime":85.045761,"endTime":85.10768752500002,"instrument":6,"program":0,"isDrum":true},{"pitch":44,"velocity":126,"startTime":85.32099,"endTime":85.38979724999999,"instrument":6,"program":0,"isDrum":true},{"pitch":38,"velocity":128,"startTime":85.32099,"endTime":85.4586045,"instrument":6,"program":0,"isDrum":true},{"pitch":36,"velocity":120,"startTime":85.59621899999999,"endTime":85.69942987499999,"instrument":6,"program":0,"isDrum":true},{"pitch":46,"velocity":80,"startTime":85.59621899999999,"endTime":85.69942987499999,"instrument":6,"program":0,"isDrum":true},{"pitch":46,"velocity":80,"startTime":85.87144799999999,"endTime":85.97465887499999,"instrument":6,"program":0,"isDrum":true},{"pitch":36,"velocity":120,"startTime":85.87144799999999,"endTime":85.997594625,"instrument":6,"program":0,"isDrum":true},{"pitch":38,"velocity":128,"startTime":86.421906,"endTime":86.51364899999999,"instrument":6,"program":0,"isDrum":true},{"pitch":44,"velocity":121,"startTime":86.697135,"endTime":86.754474375,"instrument":6,"program":0,"isDrum":true},{"pitch":44,"velocity":124,"startTime":86.972364,"endTime":87.05263912500001,"instrument":6,"program":0,"isDrum":true},{"pitch":38,"velocity":128,"startTime":87.52282199999999,"endTime":87.64896862500001,"instrument":6,"program":0,"isDrum":true},{"pitch":46,"velocity":80,"startTime":88.07328000000001,"endTime":88.17649087500001,"instrument":6,"program":0,"isDrum":true},{"pitch":36,"velocity":120,"startTime":88.07328000000001,"endTime":88.14208725,"instrument":6,"program":0,"isDrum":true},{"pitch":44,"velocity":124,"startTime":88.623738,"endTime":88.841627625,"instrument":6,"program":0,"isDrum":true},{"pitch":38,"velocity":128,"startTime":88.623738,"endTime":88.73841675,"instrument":6,"program":0,"isDrum":true},{"pitch":44,"velocity":128,"startTime":88.898967,"endTime":89.002177875,"instrument":6,"program":0,"isDrum":true},{"pitch":40,"velocity":100,"startTime":89.02511362499999,"endTime":89.09392087500001,"instrument":6,"program":0,"isDrum":true},{"pitch":44,"velocity":124,"startTime":89.174196,"endTime":89.24300324999999,"instrument":6,"program":0,"isDrum":true},{"pitch":44,"velocity":125,"startTime":89.44942499999999,"endTime":89.51135152500001,"instrument":6,"program":0,"isDrum":true},{"pitch":44,"velocity":126,"startTime":89.72465399999999,"endTime":89.79346125000001,"instrument":6,"program":0,"isDrum":true},{"pitch":38,"velocity":128,"startTime":89.72465399999999,"endTime":89.8622685,"instrument":6,"program":0,"isDrum":true},{"pitch":46,"velocity":80,"startTime":89.99988300000001,"endTime":90.10309387500001,"instrument":6,"program":0,"isDrum":true},{"pitch":36,"velocity":120,"startTime":89.99988300000001,"endTime":90.10309387500001,"instrument":6,"program":0,"isDrum":true},{"pitch":46,"velocity":80,"startTime":90.27511200000001,"endTime":90.37832287500001,"instrument":6,"program":0,"isDrum":true},{"pitch":36,"velocity":120,"startTime":90.27511200000001,"endTime":90.401258625,"instrument":6,"program":0,"isDrum":true},{"pitch":38,"velocity":128,"startTime":90.82557,"endTime":90.91731300000001,"instrument":6,"program":0,"isDrum":true},{"pitch":44,"velocity":121,"startTime":91.100799,"endTime":91.158138375,"instrument":6,"program":0,"isDrum":true},{"pitch":44,"velocity":124,"startTime":91.37602799999999,"endTime":91.456303125,"instrument":6,"program":0,"isDrum":true},{"pitch":38,"velocity":128,"startTime":91.92648600000001,"endTime":92.052632625,"instrument":6,"program":0,"isDrum":true},{"pitch":46,"velocity":80,"startTime":92.476944,"endTime":92.580154875,"instrument":6,"program":0,"isDrum":true},{"pitch":36,"velocity":120,"startTime":92.476944,"endTime":92.54575125,"instrument":6,"program":0,"isDrum":true},{"pitch":44,"velocity":124,"startTime":93.027402,"endTime":93.24529162500002,"instrument":6,"program":0,"isDrum":true},{"pitch":38,"velocity":128,"startTime":93.027402,"endTime":93.14208075000002,"instrument":6,"program":0,"isDrum":true},{"pitch":44,"velocity":128,"startTime":93.30263100000002,"endTime":93.40584187500002,"instrument":6,"program":0,"isDrum":true},{"pitch":40,"velocity":100,"startTime":93.42877762500001,"endTime":93.497584875,"instrument":6,"program":0,"isDrum":true},{"pitch":44,"velocity":124,"startTime":93.57786000000002,"endTime":93.64666725000001,"instrument":6,"program":0,"isDrum":true},{"pitch":44,"velocity":125,"startTime":93.85308900000001,"endTime":93.915015525,"instrument":6,"program":0,"isDrum":true},{"pitch":44,"velocity":126,"startTime":94.12831800000001,"endTime":94.19712525,"instrument":6,"program":0,"isDrum":true},{"pitch":38,"velocity":128,"startTime":94.12831800000001,"endTime":94.26593250000002,"instrument":6,"program":0,"isDrum":true},{"pitch":36,"velocity":120,"startTime":94.403547,"endTime":94.506757875,"instrument":6,"program":0,"isDrum":true},{"pitch":46,"velocity":80,"startTime":94.403547,"endTime":94.506757875,"instrument":6,"program":0,"isDrum":true},{"pitch":46,"velocity":80,"startTime":94.678776,"endTime":94.781986875,"instrument":6,"program":0,"isDrum":true},{"pitch":36,"velocity":120,"startTime":94.678776,"endTime":94.80492262499999,"instrument":6,"program":0,"isDrum":true},{"pitch":38,"velocity":128,"startTime":95.22923400000002,"endTime":95.320977,"instrument":6,"program":0,"isDrum":true},{"pitch":44,"velocity":121,"startTime":95.50446300000002,"endTime":95.56180237500001,"instrument":6,"program":0,"isDrum":true},{"pitch":44,"velocity":124,"startTime":95.77969200000001,"endTime":95.85996712500003,"instrument":6,"program":0,"isDrum":true},{"pitch":44,"velocity":128,"startTime":96.05492100000001,"endTime":96.27510420000002,"instrument":6,"program":0,"isDrum":true},{"pitch":44,"velocity":128,"startTime":96.33015,"endTime":96.77051640000002,"instrument":6,"program":0,"isDrum":true},{"pitch":38,"velocity":128,"startTime":96.33015,"endTime":96.456296625,"instrument":6,"program":0,"isDrum":true},{"pitch":46,"velocity":80,"startTime":96.880608,"endTime":96.983818875,"instrument":6,"program":0,"isDrum":true},{"pitch":36,"velocity":120,"startTime":96.880608,"endTime":96.94941525000002,"instrument":6,"program":0,"isDrum":true},{"pitch":44,"velocity":124,"startTime":97.43106600000002,"endTime":97.64895562500001,"instrument":6,"program":0,"isDrum":true},{"pitch":38,"velocity":128,"startTime":97.43106600000002,"endTime":97.54574475000001,"instrument":6,"program":0,"isDrum":true},{"pitch":44,"velocity":128,"startTime":97.70629500000001,"endTime":97.80950587500001,"instrument":6,"program":0,"isDrum":true},{"pitch":40,"velocity":100,"startTime":97.832441625,"endTime":97.901248875,"instrument":6,"program":0,"isDrum":true},{"pitch":44,"velocity":124,"startTime":97.98152400000001,"endTime":98.05033125,"instrument":6,"program":0,"isDrum":true},{"pitch":44,"velocity":125,"startTime":98.256753,"endTime":98.31867952500002,"instrument":6,"program":0,"isDrum":true},{"pitch":44,"velocity":126,"startTime":98.531982,"endTime":98.60078925000002,"instrument":6,"program":0,"isDrum":true},{"pitch":38,"velocity":128,"startTime":98.531982,"endTime":98.66959650000001,"instrument":6,"program":0,"isDrum":true},{"pitch":36,"velocity":120,"startTime":98.807211,"endTime":98.910421875,"instrument":6,"program":0,"isDrum":true},{"pitch":46,"velocity":80,"startTime":98.807211,"endTime":98.910421875,"instrument":6,"program":0,"isDrum":true},{"pitch":46,"velocity":80,"startTime":99.08244000000002,"endTime":99.18565087500002,"instrument":6,"program":0,"isDrum":true},{"pitch":36,"velocity":120,"startTime":99.08244000000002,"endTime":99.20858662500001,"instrument":6,"program":0,"isDrum":true},{"pitch":38,"velocity":128,"startTime":99.63289800000001,"endTime":99.72464099999999,"instrument":6,"program":0,"isDrum":true},{"pitch":44,"velocity":121,"startTime":99.90812700000001,"endTime":99.965466375,"instrument":6,"program":0,"isDrum":true},{"pitch":44,"velocity":124,"startTime":100.183356,"endTime":100.26363112500002,"instrument":6,"program":0,"isDrum":true},{"pitch":38,"velocity":128,"startTime":100.733814,"endTime":100.85996062500001,"instrument":6,"program":0,"isDrum":true},{"pitch":36,"velocity":120,"startTime":101.00904300000002,"endTime":101.11225387500002,"instrument":6,"program":0,"isDrum":true},{"pitch":46,"velocity":80,"startTime":101.00904300000002,"endTime":101.11225387500002,"instrument":6,"program":0,"isDrum":true},{"pitch":46,"velocity":80,"startTime":101.28427200000002,"endTime":101.38748287500002,"instrument":6,"program":0,"isDrum":true},{"pitch":36,"velocity":120,"startTime":101.28427200000002,"endTime":101.35307925000001,"instrument":6,"program":0,"isDrum":true},{"pitch":44,"velocity":124,"startTime":101.83473000000001,"endTime":102.052619625,"instrument":6,"program":0,"isDrum":true},{"pitch":38,"velocity":128,"startTime":101.83473000000001,"endTime":101.94940875,"instrument":6,"program":0,"isDrum":true},{"pitch":44,"velocity":128,"startTime":102.109959,"endTime":102.213169875,"instrument":6,"program":0,"isDrum":true},{"pitch":40,"velocity":100,"startTime":102.236105625,"endTime":102.30491287500001,"instrument":6,"program":0,"isDrum":true},{"pitch":44,"velocity":124,"startTime":102.385188,"endTime":102.45399525000002,"instrument":6,"program":0,"isDrum":true},{"pitch":44,"velocity":125,"startTime":102.660417,"endTime":102.72234352500001,"instrument":6,"program":0,"isDrum":true},{"pitch":44,"velocity":126,"startTime":102.93564600000002,"endTime":103.00445325000001,"instrument":6,"program":0,"isDrum":true},{"pitch":38,"velocity":128,"startTime":102.93564600000002,"endTime":103.0732605,"instrument":6,"program":0,"isDrum":true},{"pitch":36,"velocity":120,"startTime":103.21087500000002,"endTime":103.31408587500002,"instrument":6,"program":0,"isDrum":true},{"pitch":46,"velocity":80,"startTime":103.21087500000002,"endTime":103.31408587500002,"instrument":6,"program":0,"isDrum":true},{"pitch":46,"velocity":80,"startTime":103.48610400000001,"endTime":103.58931487500001,"instrument":6,"program":0,"isDrum":true},{"pitch":36,"velocity":120,"startTime":103.48610400000001,"endTime":103.612250625,"instrument":6,"program":0,"isDrum":true},{"pitch":38,"velocity":128,"startTime":104.036562,"endTime":104.12830500000001,"instrument":6,"program":0,"isDrum":true},{"pitch":44,"velocity":121,"startTime":104.311791,"endTime":104.369130375,"instrument":6,"program":0,"isDrum":true},{"pitch":44,"velocity":124,"startTime":104.58702,"endTime":104.66729512500001,"instrument":6,"program":0,"isDrum":true},{"pitch":38,"velocity":128,"startTime":105.13747800000002,"endTime":105.263624625,"instrument":6,"program":0,"isDrum":true},{"pitch":46,"velocity":80,"startTime":105.68793600000001,"endTime":105.79114687500001,"instrument":6,"program":0,"isDrum":true},{"pitch":36,"velocity":120,"startTime":105.68793600000001,"endTime":105.75674325,"instrument":6,"program":0,"isDrum":true},{"pitch":44,"velocity":124,"startTime":106.238394,"endTime":106.456283625,"instrument":6,"program":0,"isDrum":true},{"pitch":38,"velocity":128,"startTime":106.238394,"endTime":106.35307275,"instrument":6,"program":0,"isDrum":true},{"pitch":44,"velocity":128,"startTime":106.513623,"endTime":106.616833875,"instrument":6,"program":0,"isDrum":true},{"pitch":40,"velocity":100,"startTime":106.63976962500001,"endTime":106.708576875,"instrument":6,"program":0,"isDrum":true},{"pitch":44,"velocity":124,"startTime":106.78885200000002,"endTime":106.85765925000001,"instrument":6,"program":0,"isDrum":true},{"pitch":44,"velocity":125,"startTime":107.06408100000002,"endTime":107.126007525,"instrument":6,"program":0,"isDrum":true},{"pitch":44,"velocity":126,"startTime":107.33931000000001,"endTime":107.40811725,"instrument":6,"program":0,"isDrum":true},{"pitch":38,"velocity":128,"startTime":107.33931000000001,"endTime":107.4769245,"instrument":6,"program":0,"isDrum":true},{"pitch":46,"velocity":80,"startTime":107.61453900000001,"endTime":107.71774987500001,"instrument":6,"program":0,"isDrum":true},{"pitch":36,"velocity":120,"startTime":107.61453900000001,"endTime":107.71774987500001,"instrument":6,"program":0,"isDrum":true},{"pitch":46,"velocity":80,"startTime":107.889768,"endTime":107.992978875,"instrument":6,"program":0,"isDrum":true},{"pitch":36,"velocity":120,"startTime":107.889768,"endTime":108.01591462500002,"instrument":6,"program":0,"isDrum":true},{"pitch":38,"velocity":128,"startTime":108.440226,"endTime":108.53196900000003,"instrument":6,"program":0,"isDrum":true},{"pitch":44,"velocity":121,"startTime":108.71545500000002,"endTime":108.77279437500002,"instrument":6,"program":0,"isDrum":true},{"pitch":44,"velocity":124,"startTime":108.99068400000002,"endTime":109.070959125,"instrument":6,"program":0,"isDrum":true},{"pitch":38,"velocity":128,"startTime":109.54114200000001,"endTime":109.66728862500003,"instrument":6,"program":0,"isDrum":true},{"pitch":46,"velocity":80,"startTime":110.0916,"endTime":110.194810875,"instrument":6,"program":0,"isDrum":true},{"pitch":36,"velocity":120,"startTime":110.0916,"endTime":110.16040725000002,"instrument":6,"program":0,"isDrum":true},{"pitch":44,"velocity":124,"startTime":110.64205800000002,"endTime":110.85994762499999,"instrument":6,"program":0,"isDrum":true},{"pitch":38,"velocity":128,"startTime":110.64205800000002,"endTime":110.75673674999999,"instrument":6,"program":0,"isDrum":true},{"pitch":44,"velocity":128,"startTime":110.91728700000002,"endTime":111.02049787500002,"instrument":6,"program":0,"isDrum":true},{"pitch":40,"velocity":100,"startTime":111.043433625,"endTime":111.11224087500003,"instrument":6,"program":0,"isDrum":true},{"pitch":44,"velocity":124,"startTime":111.19251600000001,"endTime":111.26132325,"instrument":6,"program":0,"isDrum":true},{"pitch":44,"velocity":125,"startTime":111.46774500000001,"endTime":111.52967152500003,"instrument":6,"program":0,"isDrum":true},{"pitch":44,"velocity":126,"startTime":111.742974,"endTime":111.81178125,"instrument":6,"program":0,"isDrum":true},{"pitch":38,"velocity":128,"startTime":111.742974,"endTime":111.88058850000002,"instrument":6,"program":0,"isDrum":true},{"pitch":36,"velocity":120,"startTime":112.018203,"endTime":112.121413875,"instrument":6,"program":0,"isDrum":true},{"pitch":46,"velocity":80,"startTime":112.018203,"endTime":112.121413875,"instrument":6,"program":0,"isDrum":true},{"pitch":46,"velocity":80,"startTime":112.293432,"endTime":112.396642875,"instrument":6,"program":0,"isDrum":true},{"pitch":36,"velocity":120,"startTime":112.293432,"endTime":112.41957862500001,"instrument":6,"program":0,"isDrum":true},{"pitch":38,"velocity":128,"startTime":112.84389000000002,"endTime":112.93563300000002,"instrument":6,"program":0,"isDrum":true},{"pitch":44,"velocity":121,"startTime":113.11911900000001,"endTime":113.17645837500001,"instrument":6,"program":0,"isDrum":true},{"pitch":44,"velocity":124,"startTime":113.39434800000001,"endTime":113.474623125,"instrument":6,"program":0,"isDrum":true},{"pitch":44,"velocity":128,"startTime":113.669577,"endTime":113.88976019999998,"instrument":6,"program":0,"isDrum":true},{"pitch":44,"velocity":128,"startTime":113.944806,"endTime":114.38517240000002,"instrument":6,"program":0,"isDrum":true},{"pitch":38,"velocity":128,"startTime":113.944806,"endTime":114.07095262500002,"instrument":6,"program":0,"isDrum":true},{"pitch":46,"velocity":80,"startTime":114.49526400000002,"endTime":114.598474875,"instrument":6,"program":0,"isDrum":true},{"pitch":36,"velocity":120,"startTime":114.49526400000002,"endTime":114.56407125000001,"instrument":6,"program":0,"isDrum":true},{"pitch":44,"velocity":124,"startTime":115.04572200000001,"endTime":115.26361162500001,"instrument":6,"program":0,"isDrum":true},{"pitch":38,"velocity":128,"startTime":115.04572200000001,"endTime":115.16040075000001,"instrument":6,"program":0,"isDrum":true},{"pitch":44,"velocity":128,"startTime":115.32095100000001,"endTime":115.42416187500001,"instrument":6,"program":0,"isDrum":true},{"pitch":40,"velocity":100,"startTime":115.44709762500003,"endTime":115.51590487500002,"instrument":6,"program":0,"isDrum":true},{"pitch":44,"velocity":124,"startTime":115.59618,"endTime":115.66498725,"instrument":6,"program":0,"isDrum":true},{"pitch":44,"velocity":125,"startTime":115.871409,"endTime":115.93333552500002,"instrument":6,"program":0,"isDrum":true},{"pitch":44,"velocity":126,"startTime":116.146638,"endTime":116.21544525000002,"instrument":6,"program":0,"isDrum":true},{"pitch":38,"velocity":128,"startTime":116.146638,"endTime":116.28425250000001,"instrument":6,"program":0,"isDrum":true},{"pitch":36,"velocity":120,"startTime":116.42186700000002,"endTime":116.525077875,"instrument":6,"program":0,"isDrum":true},{"pitch":46,"velocity":80,"startTime":116.42186700000002,"endTime":116.525077875,"instrument":6,"program":0,"isDrum":true},{"pitch":46,"velocity":80,"startTime":116.69709600000002,"endTime":116.80030687500002,"instrument":6,"program":0,"isDrum":true},{"pitch":36,"velocity":120,"startTime":116.69709600000002,"endTime":116.823242625,"instrument":6,"program":0,"isDrum":true},{"pitch":38,"velocity":128,"startTime":117.24755400000001,"endTime":117.33929700000002,"instrument":6,"program":0,"isDrum":true},{"pitch":44,"velocity":121,"startTime":117.522783,"endTime":117.58012237500003,"instrument":6,"program":0,"isDrum":true},{"pitch":44,"velocity":124,"startTime":117.798012,"endTime":117.87828712499999,"instrument":6,"program":0,"isDrum":true},{"pitch":38,"velocity":128,"startTime":118.34847000000002,"endTime":118.47461662500001,"instrument":6,"program":0,"isDrum":true},{"pitch":36,"velocity":120,"startTime":118.62369900000002,"endTime":118.72690987500002,"instrument":6,"program":0,"isDrum":true},{"pitch":46,"velocity":80,"startTime":118.62369900000002,"endTime":118.72690987500002,"instrument":6,"program":0,"isDrum":true},{"pitch":46,"velocity":80,"startTime":118.89892800000001,"endTime":119.00213887500001,"instrument":6,"program":0,"isDrum":true},{"pitch":36,"velocity":120,"startTime":118.89892800000001,"endTime":118.96773525,"instrument":6,"program":0,"isDrum":true},{"pitch":44,"velocity":124,"startTime":119.449386,"endTime":119.667275625,"instrument":6,"program":0,"isDrum":true},{"pitch":38,"velocity":128,"startTime":119.449386,"endTime":119.56406475,"instrument":6,"program":0,"isDrum":true},{"pitch":44,"velocity":128,"startTime":119.724615,"endTime":119.827825875,"instrument":6,"program":0,"isDrum":true},{"pitch":40,"velocity":100,"startTime":119.85076162500002,"endTime":119.91956887500001,"instrument":6,"program":0,"isDrum":true},{"pitch":44,"velocity":124,"startTime":119.999844,"endTime":120.06865125000002,"instrument":6,"program":0,"isDrum":true},{"pitch":44,"velocity":125,"startTime":120.27507300000002,"endTime":120.33699952500001,"instrument":6,"program":0,"isDrum":true},{"pitch":44,"velocity":126,"startTime":120.55030200000002,"endTime":120.61910925000001,"instrument":6,"program":0,"isDrum":true},{"pitch":38,"velocity":128,"startTime":120.55030200000002,"endTime":120.6879165,"instrument":6,"program":0,"isDrum":true},{"pitch":36,"velocity":120,"startTime":120.82553100000001,"endTime":120.92874187500001,"instrument":6,"program":0,"isDrum":true},{"pitch":46,"velocity":80,"startTime":120.82553100000001,"endTime":120.92874187500001,"instrument":6,"program":0,"isDrum":true},{"pitch":46,"velocity":80,"startTime":121.10076000000001,"endTime":121.20397087500001,"instrument":6,"program":0,"isDrum":true},{"pitch":36,"velocity":120,"startTime":121.10076000000001,"endTime":121.22690662500003,"instrument":6,"program":0,"isDrum":true},{"pitch":38,"velocity":128,"startTime":121.651218,"endTime":121.74296100000001,"instrument":6,"program":0,"isDrum":true},{"pitch":44,"velocity":121,"startTime":121.926447,"endTime":121.98378637500002,"instrument":6,"program":0,"isDrum":true},{"pitch":44,"velocity":124,"startTime":122.20167600000002,"endTime":122.281951125,"instrument":6,"program":0,"isDrum":true},{"pitch":38,"velocity":128,"startTime":122.75213400000001,"endTime":122.87828062500003,"instrument":6,"program":0,"isDrum":true},{"pitch":46,"velocity":80,"startTime":123.302592,"endTime":123.405802875,"instrument":6,"program":0,"isDrum":true},{"pitch":36,"velocity":120,"startTime":123.302592,"endTime":123.37139925,"instrument":6,"program":0,"isDrum":true},{"pitch":44,"velocity":124,"startTime":123.85305,"endTime":124.070939625,"instrument":6,"program":0,"isDrum":true},{"pitch":38,"velocity":128,"startTime":123.85305,"endTime":123.96772874999999,"instrument":6,"program":0,"isDrum":true},{"pitch":44,"velocity":128,"startTime":124.12827900000002,"endTime":124.231489875,"instrument":6,"program":0,"isDrum":true},{"pitch":40,"velocity":100,"startTime":124.25442562500001,"endTime":124.32323287500003,"instrument":6,"program":0,"isDrum":true},{"pitch":44,"velocity":124,"startTime":124.40350800000002,"endTime":124.47231525000001,"instrument":6,"program":0,"isDrum":true},{"pitch":44,"velocity":125,"startTime":124.67873700000001,"endTime":124.740663525,"instrument":6,"program":0,"isDrum":true},{"pitch":44,"velocity":126,"startTime":124.95396600000001,"endTime":125.02277325,"instrument":6,"program":0,"isDrum":true},{"pitch":38,"velocity":128,"startTime":124.95396600000001,"endTime":125.09158050000002,"instrument":6,"program":0,"isDrum":true},{"pitch":46,"velocity":80,"startTime":125.229195,"endTime":125.332405875,"instrument":6,"program":0,"isDrum":true},{"pitch":36,"velocity":120,"startTime":125.229195,"endTime":125.332405875,"instrument":6,"program":0,"isDrum":true},{"pitch":46,"velocity":80,"startTime":125.504424,"endTime":125.607634875,"instrument":6,"program":0,"isDrum":true},{"pitch":36,"velocity":120,"startTime":125.504424,"endTime":125.63057062500002,"instrument":6,"program":0,"isDrum":true},{"pitch":38,"velocity":128,"startTime":126.05488200000002,"endTime":126.14662500000003,"instrument":6,"program":0,"isDrum":true},{"pitch":44,"velocity":121,"startTime":126.33011100000002,"endTime":126.38745037500001,"instrument":6,"program":0,"isDrum":true},{"pitch":44,"velocity":124,"startTime":126.60534000000001,"endTime":126.685615125,"instrument":6,"program":0,"isDrum":true},{"pitch":38,"velocity":128,"startTime":127.155798,"endTime":127.28194462500002,"instrument":6,"program":0,"isDrum":true},{"pitch":46,"velocity":80,"startTime":127.706256,"endTime":127.809466875,"instrument":6,"program":0,"isDrum":true},{"pitch":36,"velocity":120,"startTime":127.706256,"endTime":127.77506325000002,"instrument":6,"program":0,"isDrum":true},{"pitch":44,"velocity":124,"startTime":128.25671400000002,"endTime":128.474603625,"instrument":6,"program":0,"isDrum":true},{"pitch":38,"velocity":128,"startTime":128.25671400000002,"endTime":128.37139274999998,"instrument":6,"program":0,"isDrum":true},{"pitch":44,"velocity":128,"startTime":128.531943,"endTime":128.63515387500001,"instrument":6,"program":0,"isDrum":true},{"pitch":40,"velocity":100,"startTime":128.65808962500003,"endTime":128.72689687500002,"instrument":6,"program":0,"isDrum":true},{"pitch":44,"velocity":124,"startTime":128.807172,"endTime":128.87597925,"instrument":6,"program":0,"isDrum":true},{"pitch":44,"velocity":125,"startTime":129.082401,"endTime":129.14432752500002,"instrument":6,"program":0,"isDrum":true},{"pitch":44,"velocity":126,"startTime":129.35763,"endTime":129.42643725000002,"instrument":6,"program":0,"isDrum":true},{"pitch":38,"velocity":128,"startTime":129.35763,"endTime":129.4952445,"instrument":6,"program":0,"isDrum":true},{"pitch":36,"velocity":120,"startTime":129.632859,"endTime":129.736069875,"instrument":6,"program":0,"isDrum":true},{"pitch":46,"velocity":80,"startTime":129.632859,"endTime":129.736069875,"instrument":6,"program":0,"isDrum":true},{"pitch":46,"velocity":80,"startTime":129.90808800000002,"endTime":130.011298875,"instrument":6,"program":0,"isDrum":true},{"pitch":36,"velocity":120,"startTime":129.90808800000002,"endTime":130.034234625,"instrument":6,"program":0,"isDrum":true},{"pitch":38,"velocity":128,"startTime":130.458546,"endTime":130.55028900000002,"instrument":6,"program":0,"isDrum":true},{"pitch":44,"velocity":121,"startTime":130.733775,"endTime":130.791114375,"instrument":6,"program":0,"isDrum":true},{"pitch":44,"velocity":124,"startTime":131.009004,"endTime":131.089279125,"instrument":6,"program":0,"isDrum":true},{"pitch":44,"velocity":128,"startTime":131.284233,"endTime":131.5044162,"instrument":6,"program":0,"isDrum":true},{"pitch":44,"velocity":128,"startTime":131.559462,"endTime":131.9998284,"instrument":6,"program":0,"isDrum":true},{"pitch":38,"velocity":128,"startTime":131.559462,"endTime":131.68560862500001,"instrument":6,"program":0,"isDrum":true},{"pitch":46,"velocity":80,"startTime":132.10992000000002,"endTime":132.21313087500002,"instrument":6,"program":0,"isDrum":true},{"pitch":36,"velocity":120,"startTime":132.10992000000002,"endTime":132.17872725,"instrument":6,"program":0,"isDrum":true},{"pitch":44,"velocity":124,"startTime":132.660378,"endTime":132.878267625,"instrument":6,"program":0,"isDrum":true},{"pitch":38,"velocity":128,"startTime":132.660378,"endTime":132.77505675,"instrument":6,"program":0,"isDrum":true},{"pitch":44,"velocity":128,"startTime":132.935607,"endTime":133.038817875,"instrument":6,"program":0,"isDrum":true},{"pitch":40,"velocity":100,"startTime":133.06175362500002,"endTime":133.13056087500001,"instrument":6,"program":0,"isDrum":true},{"pitch":44,"velocity":124,"startTime":133.210836,"endTime":133.27964325000002,"instrument":6,"program":0,"isDrum":true},{"pitch":44,"velocity":125,"startTime":133.486065,"endTime":133.54799152500001,"instrument":6,"program":0,"isDrum":true},{"pitch":44,"velocity":126,"startTime":133.76129400000002,"endTime":133.83010125,"instrument":6,"program":0,"isDrum":true},{"pitch":38,"velocity":128,"startTime":133.76129400000002,"endTime":133.8989085,"instrument":6,"program":0,"isDrum":true},{"pitch":36,"velocity":120,"startTime":134.03652300000002,"endTime":134.13973387500002,"instrument":6,"program":0,"isDrum":true},{"pitch":46,"velocity":80,"startTime":134.03652300000002,"endTime":134.13973387500002,"instrument":6,"program":0,"isDrum":true},{"pitch":46,"velocity":80,"startTime":134.311752,"endTime":134.41496287500001,"instrument":6,"program":0,"isDrum":true},{"pitch":36,"velocity":120,"startTime":134.311752,"endTime":134.43789862500003,"instrument":6,"program":0,"isDrum":true},{"pitch":38,"velocity":128,"startTime":134.86221,"endTime":134.953953,"instrument":6,"program":0,"isDrum":true},{"pitch":44,"velocity":121,"startTime":135.137439,"endTime":135.19477837500003,"instrument":6,"program":0,"isDrum":true},{"pitch":44,"velocity":124,"startTime":135.412668,"endTime":135.492943125,"instrument":6,"program":0,"isDrum":true},{"pitch":38,"velocity":128,"startTime":135.96312600000002,"endTime":136.089272625,"instrument":6,"program":0,"isDrum":true},{"pitch":36,"velocity":120,"startTime":136.238355,"endTime":136.34156587500001,"instrument":6,"program":0,"isDrum":true},{"pitch":46,"velocity":80,"startTime":136.238355,"endTime":136.34156587500001,"instrument":6,"program":0,"isDrum":true},{"pitch":46,"velocity":80,"startTime":136.513584,"endTime":136.616794875,"instrument":6,"program":0,"isDrum":true},{"pitch":36,"velocity":120,"startTime":136.513584,"endTime":136.58239125,"instrument":6,"program":0,"isDrum":true},{"pitch":44,"velocity":124,"startTime":137.064042,"endTime":137.281931625,"instrument":6,"program":0,"isDrum":true},{"pitch":38,"velocity":128,"startTime":137.064042,"endTime":137.17872075,"instrument":6,"program":0,"isDrum":true},{"pitch":44,"velocity":128,"startTime":137.339271,"endTime":137.442481875,"instrument":6,"program":0,"isDrum":true},{"pitch":40,"velocity":100,"startTime":137.46541762500001,"endTime":137.534224875,"instrument":6,"program":0,"isDrum":true},{"pitch":44,"velocity":124,"startTime":137.61450000000002,"endTime":137.68330725,"instrument":6,"program":0,"isDrum":true},{"pitch":44,"velocity":125,"startTime":137.88972900000002,"endTime":137.951655525,"instrument":6,"program":0,"isDrum":true},{"pitch":44,"velocity":126,"startTime":138.164958,"endTime":138.23376525,"instrument":6,"program":0,"isDrum":true},{"pitch":38,"velocity":128,"startTime":138.164958,"endTime":138.3025725,"instrument":6,"program":0,"isDrum":true},{"pitch":36,"velocity":120,"startTime":138.440187,"endTime":138.543397875,"instrument":6,"program":0,"isDrum":true},{"pitch":46,"velocity":80,"startTime":138.440187,"endTime":138.543397875,"instrument":6,"program":0,"isDrum":true},{"pitch":46,"velocity":80,"startTime":138.715416,"endTime":138.818626875,"instrument":6,"program":0,"isDrum":true},{"pitch":36,"velocity":120,"startTime":138.715416,"endTime":138.84156262500002,"instrument":6,"program":0,"isDrum":true},{"pitch":38,"velocity":128,"startTime":139.265874,"endTime":139.357617,"instrument":6,"program":0,"isDrum":true},{"pitch":44,"velocity":121,"startTime":139.54110300000002,"endTime":139.59844237500002,"instrument":6,"program":0,"isDrum":true},{"pitch":44,"velocity":124,"startTime":139.81633200000002,"endTime":139.896607125,"instrument":6,"program":0,"isDrum":true},{"pitch":38,"velocity":128,"startTime":140.36679,"endTime":140.49293662500003,"instrument":6,"program":0,"isDrum":true},{"pitch":46,"velocity":80,"startTime":140.917248,"endTime":141.020458875,"instrument":6,"program":0,"isDrum":true},{"pitch":36,"velocity":120,"startTime":140.917248,"endTime":140.98605525000002,"instrument":6,"program":0,"isDrum":true},{"pitch":44,"velocity":124,"startTime":141.46770600000002,"endTime":141.685595625,"instrument":6,"program":0,"isDrum":true},{"pitch":38,"velocity":128,"startTime":141.46770600000002,"endTime":141.58238475,"instrument":6,"program":0,"isDrum":true},{"pitch":44,"velocity":128,"startTime":141.74293500000002,"endTime":141.84614587500002,"instrument":6,"program":0,"isDrum":true},{"pitch":40,"velocity":100,"startTime":141.869081625,"endTime":141.93788887500003,"instrument":6,"program":0,"isDrum":true},{"pitch":44,"velocity":124,"startTime":142.018164,"endTime":142.08697125,"instrument":6,"program":0,"isDrum":true},{"pitch":44,"velocity":125,"startTime":142.293393,"endTime":142.35531952500003,"instrument":6,"program":0,"isDrum":true},{"pitch":44,"velocity":126,"startTime":142.568622,"endTime":142.63742925,"instrument":6,"program":0,"isDrum":true},{"pitch":38,"velocity":128,"startTime":142.568622,"endTime":142.70623650000002,"instrument":6,"program":0,"isDrum":true},{"pitch":46,"velocity":80,"startTime":142.843851,"endTime":142.947061875,"instrument":6,"program":0,"isDrum":true},{"pitch":36,"velocity":120,"startTime":142.843851,"endTime":142.947061875,"instrument":6,"program":0,"isDrum":true},{"pitch":46,"velocity":80,"startTime":143.11908,"endTime":143.222290875,"instrument":6,"program":0,"isDrum":true},{"pitch":36,"velocity":120,"startTime":143.11908,"endTime":143.24522662500002,"instrument":6,"program":0,"isDrum":true},{"pitch":38,"velocity":128,"startTime":143.66953800000002,"endTime":143.76128100000003,"instrument":6,"program":0,"isDrum":true},{"pitch":44,"velocity":121,"startTime":143.944767,"endTime":144.002106375,"instrument":6,"program":0,"isDrum":true},{"pitch":44,"velocity":124,"startTime":144.219996,"endTime":144.300271125,"instrument":6,"program":0,"isDrum":true},{"pitch":38,"velocity":128,"startTime":144.770454,"endTime":144.89660062500002,"instrument":6,"program":0,"isDrum":true},{"pitch":46,"velocity":80,"startTime":145.32091200000002,"endTime":145.424122875,"instrument":6,"program":0,"isDrum":true},{"pitch":36,"velocity":120,"startTime":145.32091200000002,"endTime":145.38971925,"instrument":6,"program":0,"isDrum":true},{"pitch":44,"velocity":124,"startTime":145.87137,"endTime":146.089259625,"instrument":6,"program":0,"isDrum":true},{"pitch":38,"velocity":128,"startTime":145.87137,"endTime":145.98604875,"instrument":6,"program":0,"isDrum":true},{"pitch":44,"velocity":128,"startTime":146.146599,"endTime":146.249809875,"instrument":6,"program":0,"isDrum":true},{"pitch":40,"velocity":100,"startTime":146.27274562500003,"endTime":146.34155287500002,"instrument":6,"program":0,"isDrum":true},{"pitch":44,"velocity":124,"startTime":146.421828,"endTime":146.49063525,"instrument":6,"program":0,"isDrum":true},{"pitch":44,"velocity":125,"startTime":146.697057,"endTime":146.75898352500002,"instrument":6,"program":0,"isDrum":true},{"pitch":44,"velocity":126,"startTime":146.972286,"endTime":147.04109325000002,"instrument":6,"program":0,"isDrum":true},{"pitch":38,"velocity":128,"startTime":146.972286,"endTime":147.1099005,"instrument":6,"program":0,"isDrum":true},{"pitch":36,"velocity":120,"startTime":147.24751500000002,"endTime":147.350725875,"instrument":6,"program":0,"isDrum":true},{"pitch":46,"velocity":80,"startTime":147.24751500000002,"endTime":147.350725875,"instrument":6,"program":0,"isDrum":true},{"pitch":46,"velocity":80,"startTime":147.52274400000002,"endTime":147.62595487500002,"instrument":6,"program":0,"isDrum":true},{"pitch":36,"velocity":120,"startTime":147.52274400000002,"endTime":147.648890625,"instrument":6,"program":0,"isDrum":true},{"pitch":38,"velocity":128,"startTime":148.073202,"endTime":148.16494500000002,"instrument":6,"program":0,"isDrum":true},{"pitch":44,"velocity":121,"startTime":148.348431,"endTime":148.40577037500003,"instrument":6,"program":0,"isDrum":true},{"pitch":44,"velocity":124,"startTime":148.62366,"endTime":148.703935125,"instrument":6,"program":0,"isDrum":true},{"pitch":44,"velocity":128,"startTime":148.898889,"endTime":149.1190722,"instrument":6,"program":0,"isDrum":true},{"pitch":44,"velocity":128,"startTime":149.17411800000002,"endTime":149.6144844,"instrument":6,"program":0,"isDrum":true},{"pitch":38,"velocity":128,"startTime":149.17411800000002,"endTime":149.300264625,"instrument":6,"program":0,"isDrum":true},{"pitch":46,"velocity":80,"startTime":149.724576,"endTime":149.82778687500002,"instrument":6,"program":0,"isDrum":true},{"pitch":36,"velocity":120,"startTime":149.724576,"endTime":149.79338325,"instrument":6,"program":0,"isDrum":true},{"pitch":44,"velocity":124,"startTime":150.275034,"endTime":150.492923625,"instrument":6,"program":0,"isDrum":true},{"pitch":38,"velocity":128,"startTime":150.275034,"endTime":150.38971275,"instrument":6,"program":0,"isDrum":true},{"pitch":44,"velocity":128,"startTime":150.550263,"endTime":150.653473875,"instrument":6,"program":0,"isDrum":true},{"pitch":40,"velocity":100,"startTime":150.67640962500002,"endTime":150.745216875,"instrument":6,"program":0,"isDrum":true},{"pitch":44,"velocity":124,"startTime":150.825492,"endTime":150.89429925000002,"instrument":6,"program":0,"isDrum":true},{"pitch":44,"velocity":125,"startTime":151.10072100000002,"endTime":151.162647525,"instrument":6,"program":0,"isDrum":true},{"pitch":44,"velocity":126,"startTime":151.37595000000002,"endTime":151.44475725,"instrument":6,"program":0,"isDrum":true},{"pitch":38,"velocity":128,"startTime":151.37595000000002,"endTime":151.5135645,"instrument":6,"program":0,"isDrum":true},{"pitch":36,"velocity":120,"startTime":151.651179,"endTime":151.75438987500002,"instrument":6,"program":0,"isDrum":true},{"pitch":46,"velocity":80,"startTime":151.651179,"endTime":151.75438987500002,"instrument":6,"program":0,"isDrum":true},{"pitch":46,"velocity":80,"startTime":151.926408,"endTime":152.029618875,"instrument":6,"program":0,"isDrum":true},{"pitch":36,"velocity":120,"startTime":151.926408,"endTime":152.05255462500003,"instrument":6,"program":0,"isDrum":true},{"pitch":38,"velocity":128,"startTime":152.476866,"endTime":152.568609,"instrument":6,"program":0,"isDrum":true},{"pitch":44,"velocity":121,"startTime":152.752095,"endTime":152.80943437500002,"instrument":6,"program":0,"isDrum":true},{"pitch":44,"velocity":124,"startTime":153.02732400000002,"endTime":153.107599125,"instrument":6,"program":0,"isDrum":true},{"pitch":38,"velocity":128,"startTime":153.577782,"endTime":153.70392862500003,"instrument":6,"program":0,"isDrum":true},{"pitch":36,"velocity":120,"startTime":153.853011,"endTime":153.956221875,"instrument":6,"program":0,"isDrum":true},{"pitch":46,"velocity":80,"startTime":153.853011,"endTime":153.956221875,"instrument":6,"program":0,"isDrum":true},{"pitch":46,"velocity":80,"startTime":154.12824,"endTime":154.231450875,"instrument":6,"program":0,"isDrum":true},{"pitch":36,"velocity":120,"startTime":154.12824,"endTime":154.19704725,"instrument":6,"program":0,"isDrum":true},{"pitch":44,"velocity":124,"startTime":154.678698,"endTime":154.896587625,"instrument":6,"program":0,"isDrum":true},{"pitch":38,"velocity":128,"startTime":154.678698,"endTime":154.79337675,"instrument":6,"program":0,"isDrum":true},{"pitch":44,"velocity":128,"startTime":154.95392700000002,"endTime":155.057137875,"instrument":6,"program":0,"isDrum":true},{"pitch":40,"velocity":100,"startTime":155.080073625,"endTime":155.14888087500003,"instrument":6,"program":0,"isDrum":true},{"pitch":44,"velocity":124,"startTime":155.22915600000002,"endTime":155.29796325,"instrument":6,"program":0,"isDrum":true},{"pitch":44,"velocity":125,"startTime":155.504385,"endTime":155.566311525,"instrument":6,"program":0,"isDrum":true},{"pitch":44,"velocity":126,"startTime":155.779614,"endTime":155.84842125,"instrument":6,"program":0,"isDrum":true},{"pitch":38,"velocity":128,"startTime":155.779614,"endTime":155.91722850000002,"instrument":6,"program":0,"isDrum":true},{"pitch":36,"velocity":120,"startTime":156.054843,"endTime":156.158053875,"instrument":6,"program":0,"isDrum":true},{"pitch":46,"velocity":80,"startTime":156.054843,"endTime":156.158053875,"instrument":6,"program":0,"isDrum":true},{"pitch":46,"velocity":80,"startTime":156.330072,"endTime":156.433282875,"instrument":6,"program":0,"isDrum":true},{"pitch":36,"velocity":120,"startTime":156.330072,"endTime":156.45621862500002,"instrument":6,"program":0,"isDrum":true},{"pitch":38,"velocity":128,"startTime":156.88053000000002,"endTime":156.97227300000003,"instrument":6,"program":0,"isDrum":true},{"pitch":44,"velocity":121,"startTime":157.15575900000002,"endTime":157.21309837500002,"instrument":6,"program":0,"isDrum":true},{"pitch":44,"velocity":124,"startTime":157.430988,"endTime":157.511263125,"instrument":6,"program":0,"isDrum":true},{"pitch":38,"velocity":128,"startTime":157.981446,"endTime":158.10759262500002,"instrument":6,"program":0,"isDrum":true},{"pitch":46,"velocity":80,"startTime":158.531904,"endTime":158.635114875,"instrument":6,"program":0,"isDrum":true},{"pitch":36,"velocity":120,"startTime":158.531904,"endTime":158.60071125000002,"instrument":6,"program":0,"isDrum":true},{"pitch":44,"velocity":124,"startTime":159.08236200000002,"endTime":159.300251625,"instrument":6,"program":0,"isDrum":true},{"pitch":38,"velocity":128,"startTime":159.08236200000002,"endTime":159.19704074999999,"instrument":6,"program":0,"isDrum":true},{"pitch":44,"velocity":128,"startTime":159.357591,"endTime":159.46080187500002,"instrument":6,"program":0,"isDrum":true},{"pitch":40,"velocity":100,"startTime":159.48373762500003,"endTime":159.55254487500002,"instrument":6,"program":0,"isDrum":true},{"pitch":44,"velocity":124,"startTime":159.63282,"endTime":159.70162725,"instrument":6,"program":0,"isDrum":true},{"pitch":44,"velocity":125,"startTime":159.908049,"endTime":159.96997552500002,"instrument":6,"program":0,"isDrum":true},{"pitch":44,"velocity":126,"startTime":160.183278,"endTime":160.25208525000002,"instrument":6,"program":0,"isDrum":true},{"pitch":38,"velocity":128,"startTime":160.183278,"endTime":160.3208925,"instrument":6,"program":0,"isDrum":true},{"pitch":46,"velocity":80,"startTime":160.458507,"endTime":160.561717875,"instrument":6,"program":0,"isDrum":true},{"pitch":36,"velocity":120,"startTime":160.458507,"endTime":160.561717875,"instrument":6,"program":0,"isDrum":true},{"pitch":46,"velocity":80,"startTime":160.73373600000002,"endTime":160.836946875,"instrument":6,"program":0,"isDrum":true},{"pitch":36,"velocity":120,"startTime":160.73373600000002,"endTime":160.859882625,"instrument":6,"program":0,"isDrum":true},{"pitch":38,"velocity":128,"startTime":161.284194,"endTime":161.37593700000002,"instrument":6,"program":0,"isDrum":true},{"pitch":44,"velocity":121,"startTime":161.559423,"endTime":161.616762375,"instrument":6,"program":0,"isDrum":true},{"pitch":44,"velocity":124,"startTime":161.834652,"endTime":161.914927125,"instrument":6,"program":0,"isDrum":true},{"pitch":38,"velocity":128,"startTime":162.38511,"endTime":162.51125662500002,"instrument":6,"program":0,"isDrum":true},{"pitch":46,"velocity":80,"startTime":162.93556800000002,"endTime":163.03877887500002,"instrument":6,"program":0,"isDrum":true},{"pitch":36,"velocity":120,"startTime":162.93556800000002,"endTime":163.00437525,"instrument":6,"program":0,"isDrum":true},{"pitch":44,"velocity":124,"startTime":163.486026,"endTime":163.703915625,"instrument":6,"program":0,"isDrum":true},{"pitch":38,"velocity":128,"startTime":163.486026,"endTime":163.60070475,"instrument":6,"program":0,"isDrum":true},{"pitch":44,"velocity":128,"startTime":163.761255,"endTime":163.864465875,"instrument":6,"program":0,"isDrum":true},{"pitch":40,"velocity":100,"startTime":163.88740162500002,"endTime":163.95620887500002,"instrument":6,"program":0,"isDrum":true},{"pitch":44,"velocity":124,"startTime":164.036484,"endTime":164.10529125000002,"instrument":6,"program":0,"isDrum":true},{"pitch":44,"velocity":125,"startTime":164.311713,"endTime":164.37363952500002,"instrument":6,"program":0,"isDrum":true},{"pitch":44,"velocity":126,"startTime":164.58694200000002,"endTime":164.65574925,"instrument":6,"program":0,"isDrum":true},{"pitch":38,"velocity":128,"startTime":164.58694200000002,"endTime":164.7245565,"instrument":6,"program":0,"isDrum":true},{"pitch":36,"velocity":120,"startTime":164.86217100000002,"endTime":164.96538187500002,"instrument":6,"program":0,"isDrum":true},{"pitch":46,"velocity":80,"startTime":164.86217100000002,"endTime":164.96538187500002,"instrument":6,"program":0,"isDrum":true},{"pitch":46,"velocity":80,"startTime":165.1374,"endTime":165.24061087500002,"instrument":6,"program":0,"isDrum":true},{"pitch":36,"velocity":120,"startTime":165.1374,"endTime":165.26354662500003,"instrument":6,"program":0,"isDrum":true},{"pitch":38,"velocity":128,"startTime":165.687858,"endTime":165.779601,"instrument":6,"program":0,"isDrum":true},{"pitch":44,"velocity":121,"startTime":165.963087,"endTime":166.02042637500003,"instrument":6,"program":0,"isDrum":true},{"pitch":44,"velocity":124,"startTime":166.238316,"endTime":166.318591125,"instrument":6,"program":0,"isDrum":true},{"pitch":44,"velocity":128,"startTime":166.51354500000002,"endTime":166.7337282,"instrument":6,"program":0,"isDrum":true},{"pitch":44,"velocity":128,"startTime":166.78877400000002,"endTime":167.2291404,"instrument":6,"program":0,"isDrum":true},{"pitch":38,"velocity":128,"startTime":166.78877400000002,"endTime":166.914920625,"instrument":6,"program":0,"isDrum":true},{"pitch":46,"velocity":80,"startTime":167.339232,"endTime":167.442442875,"instrument":6,"program":0,"isDrum":true},{"pitch":36,"velocity":120,"startTime":167.339232,"endTime":167.40803925,"instrument":6,"program":0,"isDrum":true},{"pitch":44,"velocity":124,"startTime":167.88969,"endTime":168.107579625,"instrument":6,"program":0,"isDrum":true},{"pitch":38,"velocity":128,"startTime":167.88969,"endTime":168.00436875,"instrument":6,"program":0,"isDrum":true},{"pitch":44,"velocity":128,"startTime":168.164919,"endTime":168.268129875,"instrument":6,"program":0,"isDrum":true},{"pitch":40,"velocity":100,"startTime":168.29106562500002,"endTime":168.359872875,"instrument":6,"program":0,"isDrum":true},{"pitch":44,"velocity":124,"startTime":168.44014800000002,"endTime":168.50895525,"instrument":6,"program":0,"isDrum":true},{"pitch":44,"velocity":125,"startTime":168.71537700000002,"endTime":168.777303525,"instrument":6,"program":0,"isDrum":true},{"pitch":44,"velocity":126,"startTime":168.990606,"endTime":169.05941325,"instrument":6,"program":0,"isDrum":true},{"pitch":38,"velocity":128,"startTime":168.990606,"endTime":169.1282205,"instrument":6,"program":0,"isDrum":true},{"pitch":36,"velocity":120,"startTime":169.265835,"endTime":169.369045875,"instrument":6,"program":0,"isDrum":true},{"pitch":46,"velocity":80,"startTime":169.265835,"endTime":169.369045875,"instrument":6,"program":0,"isDrum":true},{"pitch":46,"velocity":80,"startTime":169.541064,"endTime":169.644274875,"instrument":6,"program":0,"isDrum":true},{"pitch":36,"velocity":120,"startTime":169.541064,"endTime":169.66721062500002,"instrument":6,"program":0,"isDrum":true},{"pitch":38,"velocity":128,"startTime":170.091522,"endTime":170.183265,"instrument":6,"program":0,"isDrum":true},{"pitch":44,"velocity":121,"startTime":170.36675100000002,"endTime":170.42409037500002,"instrument":6,"program":0,"isDrum":true},{"pitch":44,"velocity":124,"startTime":170.64198000000002,"endTime":170.722255125,"instrument":6,"program":0,"isDrum":true},{"pitch":38,"velocity":128,"startTime":171.192438,"endTime":171.31858462500003,"instrument":6,"program":0,"isDrum":true},{"pitch":36,"velocity":120,"startTime":171.467667,"endTime":171.570877875,"instrument":6,"program":0,"isDrum":true},{"pitch":46,"velocity":80,"startTime":171.467667,"endTime":171.570877875,"instrument":6,"program":0,"isDrum":true},{"pitch":46,"velocity":80,"startTime":171.742896,"endTime":171.846106875,"instrument":6,"program":0,"isDrum":true},{"pitch":36,"velocity":120,"startTime":171.742896,"endTime":171.81170325000002,"instrument":6,"program":0,"isDrum":true},{"pitch":44,"velocity":124,"startTime":172.29335400000002,"endTime":172.511243625,"instrument":6,"program":0,"isDrum":true},{"pitch":38,"velocity":128,"startTime":172.29335400000002,"endTime":172.40803275,"instrument":6,"program":0,"isDrum":true},{"pitch":44,"velocity":128,"startTime":172.56858300000002,"endTime":172.67179387500002,"instrument":6,"program":0,"isDrum":true},{"pitch":40,"velocity":100,"startTime":172.694729625,"endTime":172.76353687500003,"instrument":6,"program":0,"isDrum":true},{"pitch":44,"velocity":124,"startTime":172.843812,"endTime":172.91261925,"instrument":6,"program":0,"isDrum":true},{"pitch":44,"velocity":125,"startTime":173.119041,"endTime":173.18096752500003,"instrument":6,"program":0,"isDrum":true},{"pitch":44,"velocity":126,"startTime":173.39427,"endTime":173.46307725,"instrument":6,"program":0,"isDrum":true},{"pitch":38,"velocity":128,"startTime":173.39427,"endTime":173.53188450000002,"instrument":6,"program":0,"isDrum":true},{"pitch":36,"velocity":120,"startTime":173.669499,"endTime":173.772709875,"instrument":6,"program":0,"isDrum":true},{"pitch":46,"velocity":80,"startTime":173.669499,"endTime":173.772709875,"instrument":6,"program":0,"isDrum":true},{"pitch":46,"velocity":80,"startTime":173.944728,"endTime":174.047938875,"instrument":6,"program":0,"isDrum":true},{"pitch":36,"velocity":120,"startTime":173.944728,"endTime":174.07087462500002,"instrument":6,"program":0,"isDrum":true},{"pitch":38,"velocity":128,"startTime":174.49518600000002,"endTime":174.58692900000003,"instrument":6,"program":0,"isDrum":true},{"pitch":44,"velocity":121,"startTime":174.770415,"endTime":174.827754375,"instrument":6,"program":0,"isDrum":true},{"pitch":44,"velocity":124,"startTime":175.045644,"endTime":175.125919125,"instrument":6,"program":0,"isDrum":true},{"pitch":38,"velocity":128,"startTime":175.596102,"endTime":175.72224862500002,"instrument":6,"program":0,"isDrum":true},{"pitch":46,"velocity":80,"startTime":176.14656000000002,"endTime":176.249770875,"instrument":6,"program":0,"isDrum":true},{"pitch":36,"velocity":120,"startTime":176.14656000000002,"endTime":176.21536725,"instrument":6,"program":0,"isDrum":true},{"pitch":44,"velocity":124,"startTime":176.697018,"endTime":176.91490762499998,"instrument":6,"program":0,"isDrum":true},{"pitch":38,"velocity":128,"startTime":176.697018,"endTime":176.81169675,"instrument":6,"program":0,"isDrum":true},{"pitch":44,"velocity":128,"startTime":176.972247,"endTime":177.075457875,"instrument":6,"program":0,"isDrum":true},{"pitch":40,"velocity":100,"startTime":177.09839362500003,"endTime":177.16720087500002,"instrument":6,"program":0,"isDrum":true},{"pitch":44,"velocity":124,"startTime":177.247476,"endTime":177.31628325,"instrument":6,"program":0,"isDrum":true},{"pitch":44,"velocity":125,"startTime":177.522705,"endTime":177.58463152500002,"instrument":6,"program":0,"isDrum":true},{"pitch":44,"velocity":126,"startTime":177.797934,"endTime":177.86674125000002,"instrument":6,"program":0,"isDrum":true},{"pitch":38,"velocity":128,"startTime":177.797934,"endTime":177.9355485,"instrument":6,"program":0,"isDrum":true},{"pitch":46,"velocity":80,"startTime":178.073163,"endTime":178.176373875,"instrument":6,"program":0,"isDrum":true},{"pitch":36,"velocity":120,"startTime":178.073163,"endTime":178.176373875,"instrument":6,"program":0,"isDrum":true},{"pitch":46,"velocity":80,"startTime":178.34839200000002,"endTime":178.45160287500002,"instrument":6,"program":0,"isDrum":true},{"pitch":36,"velocity":120,"startTime":178.34839200000002,"endTime":178.474538625,"instrument":6,"program":0,"isDrum":true},{"pitch":38,"velocity":128,"startTime":178.89885,"endTime":178.99059300000002,"instrument":6,"program":0,"isDrum":true},{"pitch":44,"velocity":121,"startTime":179.174079,"endTime":179.23141837500003,"instrument":6,"program":0,"isDrum":true},{"pitch":44,"velocity":124,"startTime":179.449308,"endTime":179.529583125,"instrument":6,"program":0,"isDrum":true},{"pitch":38,"velocity":128,"startTime":179.999766,"endTime":180.125912625,"instrument":6,"program":0,"isDrum":true},{"pitch":46,"velocity":80,"startTime":180.55022400000001,"endTime":180.65343487500002,"instrument":6,"program":0,"isDrum":true},{"pitch":36,"velocity":120,"startTime":180.55022400000001,"endTime":180.61903125,"instrument":6,"program":0,"isDrum":true},{"pitch":44,"velocity":124,"startTime":181.100682,"endTime":181.318571625,"instrument":6,"program":0,"isDrum":true},{"pitch":38,"velocity":128,"startTime":181.100682,"endTime":181.21536075,"instrument":6,"program":0,"isDrum":true},{"pitch":44,"velocity":128,"startTime":181.375911,"endTime":181.479121875,"instrument":6,"program":0,"isDrum":true},{"pitch":40,"velocity":100,"startTime":181.50205762500002,"endTime":181.570864875,"instrument":6,"program":0,"isDrum":true},{"pitch":44,"velocity":124,"startTime":181.65114,"endTime":181.71994725000002,"instrument":6,"program":0,"isDrum":true},{"pitch":44,"velocity":125,"startTime":181.926369,"endTime":181.988295525,"instrument":6,"program":0,"isDrum":true},{"pitch":44,"velocity":126,"startTime":182.20159800000002,"endTime":182.27040525,"instrument":6,"program":0,"isDrum":true},{"pitch":38,"velocity":128,"startTime":182.20159800000002,"endTime":182.3392125,"instrument":6,"program":0,"isDrum":true},{"pitch":36,"velocity":120,"startTime":182.47682700000001,"endTime":182.58003787500002,"instrument":6,"program":0,"isDrum":true},{"pitch":46,"velocity":80,"startTime":182.47682700000001,"endTime":182.58003787500002,"instrument":6,"program":0,"isDrum":true},{"pitch":46,"velocity":80,"startTime":182.752056,"endTime":182.855266875,"instrument":6,"program":0,"isDrum":true},{"pitch":36,"velocity":120,"startTime":182.752056,"endTime":182.87820262500003,"instrument":6,"program":0,"isDrum":true},{"pitch":38,"velocity":128,"startTime":183.302514,"endTime":183.394257,"instrument":6,"program":0,"isDrum":true},{"pitch":44,"velocity":121,"startTime":183.577743,"endTime":183.63508237500002,"instrument":6,"program":0,"isDrum":true},{"pitch":44,"velocity":124,"startTime":183.852972,"endTime":183.933247125,"instrument":6,"program":0,"isDrum":true},{"pitch":44,"velocity":128,"startTime":184.12820100000002,"endTime":184.3483842,"instrument":6,"program":0,"isDrum":true},{"pitch":44,"velocity":128,"startTime":184.40343000000001,"endTime":184.8437964,"instrument":6,"program":0,"isDrum":true},{"pitch":38,"velocity":128,"startTime":184.40343000000001,"endTime":184.52957662500003,"instrument":6,"program":0,"isDrum":true},{"pitch":46,"velocity":80,"startTime":184.953888,"endTime":185.057098875,"instrument":6,"program":0,"isDrum":true},{"pitch":36,"velocity":120,"startTime":184.953888,"endTime":185.02269525,"instrument":6,"program":0,"isDrum":true},{"pitch":44,"velocity":124,"startTime":185.504346,"endTime":185.722235625,"instrument":6,"program":0,"isDrum":true},{"pitch":38,"velocity":128,"startTime":185.504346,"endTime":185.61902475,"instrument":6,"program":0,"isDrum":true},{"pitch":44,"velocity":128,"startTime":185.779575,"endTime":185.882785875,"instrument":6,"program":0,"isDrum":true},{"pitch":40,"velocity":100,"startTime":185.905721625,"endTime":185.974528875,"instrument":6,"program":0,"isDrum":true},{"pitch":44,"velocity":124,"startTime":186.05480400000002,"endTime":186.12361125,"instrument":6,"program":0,"isDrum":true},{"pitch":44,"velocity":125,"startTime":186.33003300000001,"endTime":186.391959525,"instrument":6,"program":0,"isDrum":true},{"pitch":44,"velocity":126,"startTime":186.605262,"endTime":186.67406925,"instrument":6,"program":0,"isDrum":true},{"pitch":38,"velocity":128,"startTime":186.605262,"endTime":186.7428765,"instrument":6,"program":0,"isDrum":true},{"pitch":36,"velocity":120,"startTime":186.880491,"endTime":186.983701875,"instrument":6,"program":0,"isDrum":true},{"pitch":46,"velocity":80,"startTime":186.880491,"endTime":186.983701875,"instrument":6,"program":0,"isDrum":true},{"pitch":46,"velocity":80,"startTime":187.15572,"endTime":187.258930875,"instrument":6,"program":0,"isDrum":true},{"pitch":36,"velocity":120,"startTime":187.15572,"endTime":187.28186662500002,"instrument":6,"program":0,"isDrum":true},{"pitch":38,"velocity":128,"startTime":187.706178,"endTime":187.79792100000003,"instrument":6,"program":0,"isDrum":true},{"pitch":44,"velocity":121,"startTime":187.98140700000002,"endTime":188.03874637500002,"instrument":6,"program":0,"isDrum":true},{"pitch":44,"velocity":124,"startTime":188.25663600000001,"endTime":188.336911125,"instrument":6,"program":0,"isDrum":true},{"pitch":38,"velocity":128,"startTime":188.807094,"endTime":188.93324062500002,"instrument":6,"program":0,"isDrum":true},{"pitch":36,"velocity":120,"startTime":189.082323,"endTime":189.185533875,"instrument":6,"program":0,"isDrum":true},{"pitch":46,"velocity":80,"startTime":189.082323,"endTime":189.185533875,"instrument":6,"program":0,"isDrum":true},{"pitch":46,"velocity":80,"startTime":189.357552,"endTime":189.460762875,"instrument":6,"program":0,"isDrum":true},{"pitch":36,"velocity":120,"startTime":189.357552,"endTime":189.42635925000002,"instrument":6,"program":0,"isDrum":true},{"pitch":44,"velocity":124,"startTime":189.90801000000002,"endTime":190.125899625,"instrument":6,"program":0,"isDrum":true},{"pitch":38,"velocity":128,"startTime":189.90801000000002,"endTime":190.02268875,"instrument":6,"program":0,"isDrum":true},{"pitch":44,"velocity":128,"startTime":190.18323900000001,"endTime":190.28644987500002,"instrument":6,"program":0,"isDrum":true},{"pitch":40,"velocity":100,"startTime":190.309385625,"endTime":190.37819287500002,"instrument":6,"program":0,"isDrum":true},{"pitch":44,"velocity":124,"startTime":190.458468,"endTime":190.52727525,"instrument":6,"program":0,"isDrum":true},{"pitch":44,"velocity":125,"startTime":190.733697,"endTime":190.79562352500002,"instrument":6,"program":0,"isDrum":true},{"pitch":44,"velocity":126,"startTime":191.008926,"endTime":191.07773325,"instrument":6,"program":0,"isDrum":true},{"pitch":38,"velocity":128,"startTime":191.008926,"endTime":191.14654050000001,"instrument":6,"program":0,"isDrum":true},{"pitch":36,"velocity":120,"startTime":191.284155,"endTime":191.387365875,"instrument":6,"program":0,"isDrum":true},{"pitch":46,"velocity":80,"startTime":191.284155,"endTime":191.387365875,"instrument":6,"program":0,"isDrum":true},{"pitch":46,"velocity":80,"startTime":191.559384,"endTime":191.662594875,"instrument":6,"program":0,"isDrum":true},{"pitch":36,"velocity":120,"startTime":191.559384,"endTime":191.685530625,"instrument":6,"program":0,"isDrum":true},{"pitch":38,"velocity":128,"startTime":192.10984200000001,"endTime":192.20158500000002,"instrument":6,"program":0,"isDrum":true},{"pitch":44,"velocity":121,"startTime":192.385071,"endTime":192.442410375,"instrument":6,"program":0,"isDrum":true},{"pitch":44,"velocity":124,"startTime":192.6603,"endTime":192.740575125,"instrument":6,"program":0,"isDrum":true},{"pitch":38,"velocity":128,"startTime":193.210758,"endTime":193.33690462500002,"instrument":6,"program":0,"isDrum":true},{"pitch":46,"velocity":80,"startTime":193.76121600000002,"endTime":193.86442687500002,"instrument":6,"program":0,"isDrum":true},{"pitch":36,"velocity":120,"startTime":193.76121600000002,"endTime":193.83002325,"instrument":6,"program":0,"isDrum":true},{"pitch":44,"velocity":124,"startTime":194.311674,"endTime":194.529563625,"instrument":6,"program":0,"isDrum":true},{"pitch":38,"velocity":128,"startTime":194.311674,"endTime":194.42635275,"instrument":6,"program":0,"isDrum":true},{"pitch":44,"velocity":128,"startTime":194.586903,"endTime":194.690113875,"instrument":6,"program":0,"isDrum":true},{"pitch":40,"velocity":100,"startTime":194.71304962500002,"endTime":194.78185687500002,"instrument":6,"program":0,"isDrum":true},{"pitch":44,"velocity":124,"startTime":194.862132,"endTime":194.93093925,"instrument":6,"program":0,"isDrum":true},{"pitch":44,"velocity":125,"startTime":195.137361,"endTime":195.19928752500002,"instrument":6,"program":0,"isDrum":true},{"pitch":44,"velocity":126,"startTime":195.41259,"endTime":195.48139725000001,"instrument":6,"program":0,"isDrum":true},{"pitch":38,"velocity":128,"startTime":195.41259,"endTime":195.5502045,"instrument":6,"program":0,"isDrum":true},{"pitch":46,"velocity":80,"startTime":195.68781900000002,"endTime":195.79102987500002,"instrument":6,"program":0,"isDrum":true},{"pitch":36,"velocity":120,"startTime":195.68781900000002,"endTime":195.79102987500002,"instrument":6,"program":0,"isDrum":true},{"pitch":46,"velocity":80,"startTime":195.96304800000001,"endTime":196.06625887500002,"instrument":6,"program":0,"isDrum":true},{"pitch":36,"velocity":120,"startTime":195.96304800000001,"endTime":196.089194625,"instrument":6,"program":0,"isDrum":true},{"pitch":38,"velocity":128,"startTime":196.513506,"endTime":196.60524900000001,"instrument":6,"program":0,"isDrum":true},{"pitch":44,"velocity":121,"startTime":196.788735,"endTime":196.84607437500003,"instrument":6,"program":0,"isDrum":true},{"pitch":44,"velocity":124,"startTime":197.063964,"endTime":197.14423912499998,"instrument":6,"program":0,"isDrum":true},{"pitch":38,"velocity":128,"startTime":197.61442200000002,"endTime":197.740568625,"instrument":6,"program":0,"isDrum":true},{"pitch":46,"velocity":80,"startTime":198.16488,"endTime":198.268090875,"instrument":6,"program":0,"isDrum":true},{"pitch":36,"velocity":120,"startTime":198.16488,"endTime":198.23368725,"instrument":6,"program":0,"isDrum":true},{"pitch":44,"velocity":124,"startTime":198.715338,"endTime":198.933227625,"instrument":6,"program":0,"isDrum":true},{"pitch":38,"velocity":128,"startTime":198.715338,"endTime":198.83001675,"instrument":6,"program":0,"isDrum":true},{"pitch":44,"velocity":128,"startTime":198.990567,"endTime":199.093777875,"instrument":6,"program":0,"isDrum":true},{"pitch":40,"velocity":100,"startTime":199.11671362500002,"endTime":199.185520875,"instrument":6,"program":0,"isDrum":true},{"pitch":44,"velocity":124,"startTime":199.265796,"endTime":199.33460325000001,"instrument":6,"program":0,"isDrum":true},{"pitch":44,"velocity":125,"startTime":199.54102500000002,"endTime":199.602951525,"instrument":6,"program":0,"isDrum":true},{"pitch":44,"velocity":126,"startTime":199.81625400000001,"endTime":199.88506125,"instrument":6,"program":0,"isDrum":true},{"pitch":38,"velocity":128,"startTime":199.81625400000001,"endTime":199.9538685,"instrument":6,"program":0,"isDrum":true},{"pitch":36,"velocity":120,"startTime":200.091483,"endTime":200.194693875,"instrument":6,"program":0,"isDrum":true},{"pitch":46,"velocity":80,"startTime":200.091483,"endTime":200.194693875,"instrument":6,"program":0,"isDrum":true},{"pitch":46,"velocity":80,"startTime":200.366712,"endTime":200.469922875,"instrument":6,"program":0,"isDrum":true},{"pitch":36,"velocity":120,"startTime":200.366712,"endTime":200.49285862500003,"instrument":6,"program":0,"isDrum":true},{"pitch":38,"velocity":128,"startTime":200.91717,"endTime":201.008913,"instrument":6,"program":0,"isDrum":true},{"pitch":44,"velocity":121,"startTime":201.192399,"endTime":201.24973837500002,"instrument":6,"program":0,"isDrum":true},{"pitch":44,"velocity":124,"startTime":201.46762800000002,"endTime":201.547903125,"instrument":6,"program":0,"isDrum":true},{"pitch":44,"velocity":128,"startTime":201.74285700000001,"endTime":201.9630402,"instrument":6,"program":0,"isDrum":true},{"pitch":44,"velocity":128,"startTime":202.018086,"endTime":202.45845240000003,"instrument":6,"program":0,"isDrum":true},{"pitch":38,"velocity":128,"startTime":202.018086,"endTime":202.14423262500003,"instrument":6,"program":0,"isDrum":true},{"pitch":46,"velocity":80,"startTime":202.568544,"endTime":202.671754875,"instrument":6,"program":0,"isDrum":true},{"pitch":36,"velocity":120,"startTime":202.568544,"endTime":202.63735125,"instrument":6,"program":0,"isDrum":true},{"pitch":44,"velocity":124,"startTime":203.119002,"endTime":203.336891625,"instrument":6,"program":0,"isDrum":true},{"pitch":38,"velocity":128,"startTime":203.119002,"endTime":203.23368075,"instrument":6,"program":0,"isDrum":true},{"pitch":44,"velocity":128,"startTime":203.39423100000002,"endTime":203.49744187500002,"instrument":6,"program":0,"isDrum":true},{"pitch":40,"velocity":100,"startTime":203.520377625,"endTime":203.58918487500003,"instrument":6,"program":0,"isDrum":true},{"pitch":44,"velocity":124,"startTime":203.66946000000002,"endTime":203.73826725,"instrument":6,"program":0,"isDrum":true},{"pitch":44,"velocity":125,"startTime":203.944689,"endTime":204.006615525,"instrument":6,"program":0,"isDrum":true},{"pitch":44,"velocity":126,"startTime":204.219918,"endTime":204.28872525,"instrument":6,"program":0,"isDrum":true},{"pitch":38,"velocity":128,"startTime":204.219918,"endTime":204.35753250000002,"instrument":6,"program":0,"isDrum":true},{"pitch":36,"velocity":120,"startTime":204.495147,"endTime":204.598357875,"instrument":6,"program":0,"isDrum":true},{"pitch":46,"velocity":80,"startTime":204.495147,"endTime":204.598357875,"instrument":6,"program":0,"isDrum":true},{"pitch":46,"velocity":80,"startTime":204.770376,"endTime":204.873586875,"instrument":6,"program":0,"isDrum":true},{"pitch":36,"velocity":120,"startTime":204.770376,"endTime":204.89652262500002,"instrument":6,"program":0,"isDrum":true},{"pitch":38,"velocity":128,"startTime":205.32083400000002,"endTime":205.41257700000003,"instrument":6,"program":0,"isDrum":true},{"pitch":44,"velocity":121,"startTime":205.59606300000002,"endTime":205.653402375,"instrument":6,"program":0,"isDrum":true},{"pitch":44,"velocity":124,"startTime":205.871292,"endTime":205.951567125,"instrument":6,"program":0,"isDrum":true},{"pitch":38,"velocity":128,"startTime":206.42175,"endTime":206.54789662500002,"instrument":6,"program":0,"isDrum":true},{"pitch":36,"velocity":120,"startTime":206.696979,"endTime":206.800189875,"instrument":6,"program":0,"isDrum":true},{"pitch":46,"velocity":80,"startTime":206.696979,"endTime":206.800189875,"instrument":6,"program":0,"isDrum":true},{"pitch":46,"velocity":80,"startTime":206.972208,"endTime":207.075418875,"instrument":6,"program":0,"isDrum":true},{"pitch":36,"velocity":120,"startTime":206.972208,"endTime":207.04101525000002,"instrument":6,"program":0,"isDrum":true},{"pitch":44,"velocity":124,"startTime":207.52266600000002,"endTime":207.74055562499998,"instrument":6,"program":0,"isDrum":true},{"pitch":38,"velocity":128,"startTime":207.52266600000002,"endTime":207.63734475,"instrument":6,"program":0,"isDrum":true},{"pitch":44,"velocity":128,"startTime":207.797895,"endTime":207.901105875,"instrument":6,"program":0,"isDrum":true},{"pitch":40,"velocity":100,"startTime":207.92404162500003,"endTime":207.99284887500002,"instrument":6,"program":0,"isDrum":true},{"pitch":44,"velocity":124,"startTime":208.073124,"endTime":208.14193125,"instrument":6,"program":0,"isDrum":true},{"pitch":44,"velocity":125,"startTime":208.348353,"endTime":208.41027952500002,"instrument":6,"program":0,"isDrum":true},{"pitch":44,"velocity":126,"startTime":208.623582,"endTime":208.69238925000002,"instrument":6,"program":0,"isDrum":true},{"pitch":38,"velocity":128,"startTime":208.623582,"endTime":208.7611965,"instrument":6,"program":0,"isDrum":true},{"pitch":36,"velocity":120,"startTime":208.898811,"endTime":209.002021875,"instrument":6,"program":0,"isDrum":true},{"pitch":46,"velocity":80,"startTime":208.898811,"endTime":209.002021875,"instrument":6,"program":0,"isDrum":true},{"pitch":46,"velocity":80,"startTime":209.17404000000002,"endTime":209.27725087500002,"instrument":6,"program":0,"isDrum":true},{"pitch":36,"velocity":120,"startTime":209.17404000000002,"endTime":209.300186625,"instrument":6,"program":0,"isDrum":true},{"pitch":38,"velocity":128,"startTime":209.724498,"endTime":209.81624100000002,"instrument":6,"program":0,"isDrum":true},{"pitch":44,"velocity":121,"startTime":209.999727,"endTime":210.057066375,"instrument":6,"program":0,"isDrum":true},{"pitch":44,"velocity":124,"startTime":210.274956,"endTime":210.355231125,"instrument":6,"program":0,"isDrum":true},{"pitch":38,"velocity":128,"startTime":210.825414,"endTime":210.951560625,"instrument":6,"program":0,"isDrum":true},{"pitch":46,"velocity":80,"startTime":211.37587200000002,"endTime":211.47908287500002,"instrument":6,"program":0,"isDrum":true},{"pitch":36,"velocity":120,"startTime":211.37587200000002,"endTime":211.44467925,"instrument":6,"program":0,"isDrum":true},{"pitch":44,"velocity":124,"startTime":211.92633,"endTime":212.144219625,"instrument":6,"program":0,"isDrum":true},{"pitch":38,"velocity":128,"startTime":211.92633,"endTime":212.04100875,"instrument":6,"program":0,"isDrum":true},{"pitch":44,"velocity":128,"startTime":212.201559,"endTime":212.304769875,"instrument":6,"program":0,"isDrum":true},{"pitch":40,"velocity":100,"startTime":212.32770562500002,"endTime":212.396512875,"instrument":6,"program":0,"isDrum":true},{"pitch":44,"velocity":124,"startTime":212.476788,"endTime":212.54559525000002,"instrument":6,"program":0,"isDrum":true},{"pitch":44,"velocity":125,"startTime":212.752017,"endTime":212.813943525,"instrument":6,"program":0,"isDrum":true},{"pitch":44,"velocity":126,"startTime":213.02724600000002,"endTime":213.09605325,"instrument":6,"program":0,"isDrum":true},{"pitch":38,"velocity":128,"startTime":213.02724600000002,"endTime":213.1648605,"instrument":6,"program":0,"isDrum":true},{"pitch":46,"velocity":80,"startTime":213.30247500000002,"endTime":213.40568587500002,"instrument":6,"program":0,"isDrum":true},{"pitch":36,"velocity":120,"startTime":213.30247500000002,"endTime":213.40568587500002,"instrument":6,"program":0,"isDrum":true},{"pitch":46,"velocity":80,"startTime":213.577704,"endTime":213.680914875,"instrument":6,"program":0,"isDrum":true},{"pitch":36,"velocity":120,"startTime":213.577704,"endTime":213.70385062500003,"instrument":6,"program":0,"isDrum":true},{"pitch":38,"velocity":128,"startTime":214.128162,"endTime":214.219905,"instrument":6,"program":0,"isDrum":true},{"pitch":44,"velocity":121,"startTime":214.403391,"endTime":214.46073037500003,"instrument":6,"program":0,"isDrum":true},{"pitch":44,"velocity":124,"startTime":214.67862,"endTime":214.758895125,"instrument":6,"program":0,"isDrum":true},{"pitch":38,"velocity":128,"startTime":215.22907800000002,"endTime":215.355224625,"instrument":6,"program":0,"isDrum":true},{"pitch":46,"velocity":80,"startTime":215.779536,"endTime":215.882746875,"instrument":6,"program":0,"isDrum":true},{"pitch":36,"velocity":120,"startTime":215.779536,"endTime":215.84834325,"instrument":6,"program":0,"isDrum":true},{"pitch":44,"velocity":124,"startTime":216.329994,"endTime":216.547883625,"instrument":6,"program":0,"isDrum":true},{"pitch":38,"velocity":128,"startTime":216.329994,"endTime":216.44467275,"instrument":6,"program":0,"isDrum":true},{"pitch":44,"velocity":128,"startTime":216.605223,"endTime":216.708433875,"instrument":6,"program":0,"isDrum":true},{"pitch":40,"velocity":100,"startTime":216.731369625,"endTime":216.800176875,"instrument":6,"program":0,"isDrum":true},{"pitch":44,"velocity":124,"startTime":216.88045200000002,"endTime":216.94925925,"instrument":6,"program":0,"isDrum":true},{"pitch":44,"velocity":125,"startTime":217.15568100000002,"endTime":217.217607525,"instrument":6,"program":0,"isDrum":true},{"pitch":44,"velocity":126,"startTime":217.43091,"endTime":217.49971725,"instrument":6,"program":0,"isDrum":true},{"pitch":38,"velocity":128,"startTime":217.43091,"endTime":217.5685245,"instrument":6,"program":0,"isDrum":true},{"pitch":36,"velocity":120,"startTime":217.706139,"endTime":217.809349875,"instrument":6,"program":0,"isDrum":true},{"pitch":46,"velocity":80,"startTime":217.706139,"endTime":217.809349875,"instrument":6,"program":0,"isDrum":true},{"pitch":46,"velocity":80,"startTime":217.981368,"endTime":218.084578875,"instrument":6,"program":0,"isDrum":true},{"pitch":36,"velocity":120,"startTime":217.981368,"endTime":218.10751462500002,"instrument":6,"program":0,"isDrum":true},{"pitch":38,"velocity":128,"startTime":218.531826,"endTime":218.62356900000003,"instrument":6,"program":0,"isDrum":true},{"pitch":44,"velocity":121,"startTime":218.80705500000002,"endTime":218.86439437500002,"instrument":6,"program":0,"isDrum":true},{"pitch":44,"velocity":124,"startTime":219.08228400000002,"endTime":219.162559125,"instrument":6,"program":0,"isDrum":true},{"pitch":44,"velocity":128,"startTime":219.357513,"endTime":219.5776962,"instrument":6,"program":0,"isDrum":true},{"pitch":44,"velocity":128,"startTime":219.632742,"endTime":220.07310840000002,"instrument":6,"program":0,"isDrum":true},{"pitch":38,"velocity":128,"startTime":219.632742,"endTime":219.75888862500003,"instrument":6,"program":0,"isDrum":true},{"pitch":46,"velocity":80,"startTime":220.1832,"endTime":220.286410875,"instrument":6,"program":0,"isDrum":true},{"pitch":36,"velocity":120,"startTime":220.1832,"endTime":220.25200725000002,"instrument":6,"program":0,"isDrum":true},{"pitch":44,"velocity":124,"startTime":220.73365800000002,"endTime":220.951547625,"instrument":6,"program":0,"isDrum":true},{"pitch":38,"velocity":128,"startTime":220.73365800000002,"endTime":220.84833675,"instrument":6,"program":0,"isDrum":true},{"pitch":44,"velocity":128,"startTime":221.00888700000002,"endTime":221.11209787500002,"instrument":6,"program":0,"isDrum":true},{"pitch":40,"velocity":100,"startTime":221.135033625,"endTime":221.20384087500003,"instrument":6,"program":0,"isDrum":true},{"pitch":44,"velocity":124,"startTime":221.28411599999998,"endTime":221.35292325,"instrument":6,"program":0,"isDrum":true},{"pitch":44,"velocity":125,"startTime":221.559345,"endTime":221.621271525,"instrument":6,"program":0,"isDrum":true},{"pitch":44,"velocity":126,"startTime":221.83457400000003,"endTime":221.90338125,"instrument":6,"program":0,"isDrum":true},{"pitch":38,"velocity":128,"startTime":221.83457400000003,"endTime":221.97218850000002,"instrument":6,"program":0,"isDrum":true},{"pitch":36,"velocity":120,"startTime":222.109803,"endTime":222.213013875,"instrument":6,"program":0,"isDrum":true},{"pitch":46,"velocity":80,"startTime":222.109803,"endTime":222.213013875,"instrument":6,"program":0,"isDrum":true},{"pitch":46,"velocity":80,"startTime":222.38503200000002,"endTime":222.48824287500003,"instrument":6,"program":0,"isDrum":true},{"pitch":36,"velocity":120,"startTime":222.38503200000002,"endTime":222.511178625,"instrument":6,"program":0,"isDrum":true},{"pitch":38,"velocity":128,"startTime":222.93549000000002,"endTime":223.02723300000002,"instrument":6,"program":0,"isDrum":true},{"pitch":44,"velocity":121,"startTime":223.21071899999998,"endTime":223.268058375,"instrument":6,"program":0,"isDrum":true},{"pitch":44,"velocity":124,"startTime":223.485948,"endTime":223.56622312500002,"instrument":6,"program":0,"isDrum":true},{"pitch":38,"velocity":128,"startTime":224.036406,"endTime":224.16255262500005,"instrument":6,"program":0,"isDrum":true},{"pitch":36,"velocity":120,"startTime":224.31163500000002,"endTime":224.41484587500003,"instrument":6,"program":0,"isDrum":true},{"pitch":46,"velocity":80,"startTime":224.31163500000002,"endTime":224.41484587500003,"instrument":6,"program":0,"isDrum":true},{"pitch":46,"velocity":80,"startTime":224.586864,"endTime":224.690074875,"instrument":6,"program":0,"isDrum":true},{"pitch":36,"velocity":120,"startTime":224.586864,"endTime":224.65567125,"instrument":6,"program":0,"isDrum":true},{"pitch":44,"velocity":124,"startTime":225.13732199999998,"endTime":225.35521162499998,"instrument":6,"program":0,"isDrum":true},{"pitch":38,"velocity":128,"startTime":225.13732199999998,"endTime":225.25200074999998,"instrument":6,"program":0,"isDrum":true},{"pitch":44,"velocity":128,"startTime":225.412551,"endTime":225.515761875,"instrument":6,"program":0,"isDrum":true},{"pitch":40,"velocity":100,"startTime":225.538697625,"endTime":225.60750487500002,"instrument":6,"program":0,"isDrum":true},{"pitch":44,"velocity":124,"startTime":225.68778000000003,"endTime":225.75658725,"instrument":6,"program":0,"isDrum":true},{"pitch":44,"velocity":125,"startTime":225.963009,"endTime":226.024935525,"instrument":6,"program":0,"isDrum":true},{"pitch":44,"velocity":126,"startTime":226.23823800000002,"endTime":226.30704525,"instrument":6,"program":0,"isDrum":true},{"pitch":38,"velocity":128,"startTime":226.23823800000002,"endTime":226.3758525,"instrument":6,"program":0,"isDrum":true},{"pitch":36,"velocity":120,"startTime":226.513467,"endTime":226.616677875,"instrument":6,"program":0,"isDrum":true},{"pitch":46,"velocity":80,"startTime":226.513467,"endTime":226.616677875,"instrument":6,"program":0,"isDrum":true},{"pitch":46,"velocity":80,"startTime":226.78869600000002,"endTime":226.89190687500002,"instrument":6,"program":0,"isDrum":true},{"pitch":36,"velocity":120,"startTime":226.78869600000002,"endTime":226.914842625,"instrument":6,"program":0,"isDrum":true},{"pitch":38,"velocity":128,"startTime":227.339154,"endTime":227.43089700000002,"instrument":6,"program":0,"isDrum":true},{"pitch":44,"velocity":121,"startTime":227.61438300000003,"endTime":227.671722375,"instrument":6,"program":0,"isDrum":true},{"pitch":44,"velocity":124,"startTime":227.889612,"endTime":227.969887125,"instrument":6,"program":0,"isDrum":true},{"pitch":38,"velocity":128,"startTime":228.44007,"endTime":228.56621662500004,"instrument":6,"program":0,"isDrum":true},{"pitch":46,"velocity":80,"startTime":228.99052799999998,"endTime":229.09373887499999,"instrument":6,"program":0,"isDrum":true},{"pitch":36,"velocity":120,"startTime":228.99052799999998,"endTime":229.05933525,"instrument":6,"program":0,"isDrum":true},{"pitch":44,"velocity":124,"startTime":229.54098600000003,"endTime":229.75887562499997,"instrument":6,"program":0,"isDrum":true},{"pitch":38,"velocity":128,"startTime":229.54098600000003,"endTime":229.65566474999997,"instrument":6,"program":0,"isDrum":true},{"pitch":44,"velocity":128,"startTime":229.816215,"endTime":229.919425875,"instrument":6,"program":0,"isDrum":true},{"pitch":40,"velocity":100,"startTime":229.94236162500005,"endTime":230.011168875,"instrument":6,"program":0,"isDrum":true},{"pitch":44,"velocity":124,"startTime":230.09144400000002,"endTime":230.16025125,"instrument":6,"program":0,"isDrum":true},{"pitch":44,"velocity":125,"startTime":230.366673,"endTime":230.42859952500004,"instrument":6,"program":0,"isDrum":true},{"pitch":44,"velocity":126,"startTime":230.64190200000002,"endTime":230.71070925000004,"instrument":6,"program":0,"isDrum":true},{"pitch":38,"velocity":128,"startTime":230.64190200000002,"endTime":230.7795165,"instrument":6,"program":0,"isDrum":true},{"pitch":46,"velocity":80,"startTime":230.91713099999998,"endTime":231.02034187499999,"instrument":6,"program":0,"isDrum":true},{"pitch":36,"velocity":120,"startTime":230.91713099999998,"endTime":231.02034187499999,"instrument":6,"program":0,"isDrum":true},{"pitch":46,"velocity":80,"startTime":231.19236,"endTime":231.295570875,"instrument":6,"program":0,"isDrum":true},{"pitch":36,"velocity":120,"startTime":231.19236,"endTime":231.318506625,"instrument":6,"program":0,"isDrum":true},{"pitch":38,"velocity":128,"startTime":231.742818,"endTime":231.834561,"instrument":6,"program":0,"isDrum":true},{"pitch":44,"velocity":121,"startTime":232.01804700000002,"endTime":232.075386375,"instrument":6,"program":0,"isDrum":true},{"pitch":44,"velocity":124,"startTime":232.293276,"endTime":232.373551125,"instrument":6,"program":0,"isDrum":true},{"pitch":38,"velocity":128,"startTime":232.84373399999998,"endTime":232.96988062500003,"instrument":6,"program":0,"isDrum":true},{"pitch":46,"velocity":80,"startTime":233.39419200000003,"endTime":233.49740287500003,"instrument":6,"program":0,"isDrum":true},{"pitch":36,"velocity":120,"startTime":233.39419200000003,"endTime":233.46299925,"instrument":6,"program":0,"isDrum":true},{"pitch":44,"velocity":124,"startTime":233.94465000000002,"endTime":234.16253962500002,"instrument":6,"program":0,"isDrum":true},{"pitch":38,"velocity":128,"startTime":233.94465000000002,"endTime":234.05932875000002,"instrument":6,"program":0,"isDrum":true},{"pitch":44,"velocity":128,"startTime":234.219879,"endTime":234.323089875,"instrument":6,"program":0,"isDrum":true},{"pitch":40,"velocity":100,"startTime":234.34602562500004,"endTime":234.414832875,"instrument":6,"program":0,"isDrum":true},{"pitch":44,"velocity":124,"startTime":234.49510800000002,"endTime":234.56391525000004,"instrument":6,"program":0,"isDrum":true},{"pitch":44,"velocity":125,"startTime":234.77033699999998,"endTime":234.83226352500003,"instrument":6,"program":0,"isDrum":true},{"pitch":44,"velocity":126,"startTime":235.045566,"endTime":235.11437325000003,"instrument":6,"program":0,"isDrum":true},{"pitch":38,"velocity":128,"startTime":235.045566,"endTime":235.1831805,"instrument":6,"program":0,"isDrum":true},{"pitch":36,"velocity":120,"startTime":235.32079500000003,"endTime":235.42400587500003,"instrument":6,"program":0,"isDrum":true},{"pitch":46,"velocity":80,"startTime":235.32079500000003,"endTime":235.42400587500003,"instrument":6,"program":0,"isDrum":true},{"pitch":46,"velocity":80,"startTime":235.596024,"endTime":235.699234875,"instrument":6,"program":0,"isDrum":true},{"pitch":36,"velocity":120,"startTime":235.596024,"endTime":235.72217062500005,"instrument":6,"program":0,"isDrum":true},{"pitch":38,"velocity":128,"startTime":236.146482,"endTime":236.238225,"instrument":6,"program":0,"isDrum":true},{"pitch":44,"velocity":121,"startTime":236.42171100000002,"endTime":236.47905037500004,"instrument":6,"program":0,"isDrum":true},{"pitch":44,"velocity":124,"startTime":236.69693999999998,"endTime":236.777215125,"instrument":6,"program":0,"isDrum":true},{"pitch":44,"velocity":128,"startTime":236.972169,"endTime":237.19235220000002,"instrument":6,"program":0,"isDrum":true},{"pitch":44,"velocity":128,"startTime":237.24739800000003,"endTime":237.6877644,"instrument":6,"program":0,"isDrum":true},{"pitch":38,"velocity":128,"startTime":237.24739800000003,"endTime":237.37354462500002,"instrument":6,"program":0,"isDrum":true},{"pitch":46,"velocity":80,"startTime":237.79785600000002,"endTime":237.90106687500003,"instrument":6,"program":0,"isDrum":true},{"pitch":36,"velocity":120,"startTime":237.79785600000002,"endTime":237.86666325,"instrument":6,"program":0,"isDrum":true},{"pitch":44,"velocity":124,"startTime":238.34831400000002,"endTime":238.566203625,"instrument":6,"program":0,"isDrum":true},{"pitch":38,"velocity":128,"startTime":238.34831400000002,"endTime":238.46299275,"instrument":6,"program":0,"isDrum":true},{"pitch":44,"velocity":128,"startTime":238.62354299999998,"endTime":238.72675387499999,"instrument":6,"program":0,"isDrum":true},{"pitch":40,"velocity":100,"startTime":238.74968962500003,"endTime":238.818496875,"instrument":6,"program":0,"isDrum":true},{"pitch":44,"velocity":124,"startTime":238.898772,"endTime":238.96757925000003,"instrument":6,"program":0,"isDrum":true},{"pitch":44,"velocity":125,"startTime":239.17400100000003,"endTime":239.23592752500002,"instrument":6,"program":0,"isDrum":true},{"pitch":44,"velocity":126,"startTime":239.44923,"endTime":239.51803725000002,"instrument":6,"program":0,"isDrum":true},{"pitch":38,"velocity":128,"startTime":239.44923,"endTime":239.58684449999998,"instrument":6,"program":0,"isDrum":true},{"pitch":36,"velocity":120,"startTime":239.72445900000002,"endTime":239.82766987500003,"instrument":6,"program":0,"isDrum":true},{"pitch":46,"velocity":80,"startTime":239.72445900000002,"endTime":239.82766987500003,"instrument":6,"program":0,"isDrum":true},{"pitch":46,"velocity":80,"startTime":239.999688,"endTime":240.102898875,"instrument":6,"program":0,"isDrum":true},{"pitch":36,"velocity":120,"startTime":239.999688,"endTime":240.12583462500004,"instrument":6,"program":0,"isDrum":true},{"pitch":38,"velocity":128,"startTime":240.55014599999998,"endTime":240.641889,"instrument":6,"program":0,"isDrum":true},{"pitch":44,"velocity":121,"startTime":240.825375,"endTime":240.88271437500003,"instrument":6,"program":0,"isDrum":true},{"pitch":44,"velocity":124,"startTime":241.10060400000003,"endTime":241.180879125,"instrument":6,"program":0,"isDrum":true},{"pitch":38,"velocity":128,"startTime":241.65106200000002,"endTime":241.77720862500001,"instrument":6,"program":0,"isDrum":true},{"pitch":36,"velocity":120,"startTime":241.926291,"endTime":242.029501875,"instrument":6,"program":0,"isDrum":true},{"pitch":46,"velocity":80,"startTime":241.926291,"endTime":242.029501875,"instrument":6,"program":0,"isDrum":true},{"pitch":46,"velocity":80,"startTime":242.20152000000002,"endTime":242.30473087500002,"instrument":6,"program":0,"isDrum":true},{"pitch":36,"velocity":120,"startTime":242.20152000000002,"endTime":242.27032725000004,"instrument":6,"program":0,"isDrum":true},{"pitch":44,"velocity":124,"startTime":242.751978,"endTime":242.969867625,"instrument":6,"program":0,"isDrum":true},{"pitch":38,"velocity":128,"startTime":242.751978,"endTime":242.86665675,"instrument":6,"program":0,"isDrum":true},{"pitch":44,"velocity":128,"startTime":243.02720700000003,"endTime":243.13041787500003,"instrument":6,"program":0,"isDrum":true},{"pitch":40,"velocity":100,"startTime":243.15335362500002,"endTime":243.22216087500004,"instrument":6,"program":0,"isDrum":true},{"pitch":44,"velocity":124,"startTime":243.302436,"endTime":243.37124325000002,"instrument":6,"program":0,"isDrum":true},{"pitch":44,"velocity":125,"startTime":243.57766500000002,"endTime":243.63959152500001,"instrument":6,"program":0,"isDrum":true},{"pitch":44,"velocity":126,"startTime":243.852894,"endTime":243.92170125,"instrument":6,"program":0,"isDrum":true},{"pitch":38,"velocity":128,"startTime":243.852894,"endTime":243.99050850000003,"instrument":6,"program":0,"isDrum":true},{"pitch":36,"velocity":120,"startTime":244.12812300000002,"endTime":244.23133387500002,"instrument":6,"program":0,"isDrum":true},{"pitch":46,"velocity":80,"startTime":244.12812300000002,"endTime":244.23133387500002,"instrument":6,"program":0,"isDrum":true},{"pitch":46,"velocity":80,"startTime":244.40335199999998,"endTime":244.506562875,"instrument":6,"program":0,"isDrum":true},{"pitch":36,"velocity":120,"startTime":244.40335199999998,"endTime":244.52949862500003,"instrument":6,"program":0,"isDrum":true},{"pitch":38,"velocity":128,"startTime":244.95381000000003,"endTime":245.04555300000004,"instrument":6,"program":0,"isDrum":true},{"pitch":44,"velocity":121,"startTime":245.229039,"endTime":245.28637837500003,"instrument":6,"program":0,"isDrum":true},{"pitch":44,"velocity":124,"startTime":245.50426800000002,"endTime":245.58454312499998,"instrument":6,"program":0,"isDrum":true},{"pitch":38,"velocity":128,"startTime":246.05472600000002,"endTime":246.180872625,"instrument":6,"program":0,"isDrum":true},{"pitch":46,"velocity":80,"startTime":246.605184,"endTime":246.708394875,"instrument":6,"program":0,"isDrum":true},{"pitch":36,"velocity":120,"startTime":246.605184,"endTime":246.67399125000003,"instrument":6,"program":0,"isDrum":true},{"pitch":44,"velocity":124,"startTime":247.155642,"endTime":247.37353162500006,"instrument":6,"program":0,"isDrum":true},{"pitch":38,"velocity":128,"startTime":247.155642,"endTime":247.27032075000005,"instrument":6,"program":0,"isDrum":true},{"pitch":44,"velocity":128,"startTime":247.43087100000002,"endTime":247.53408187500003,"instrument":6,"program":0,"isDrum":true},{"pitch":40,"velocity":100,"startTime":247.55701762500001,"endTime":247.62582487499998,"instrument":6,"program":0,"isDrum":true},{"pitch":44,"velocity":124,"startTime":247.7061,"endTime":247.77490725,"instrument":6,"program":0,"isDrum":true},{"pitch":44,"velocity":125,"startTime":247.98132900000002,"endTime":248.043255525,"instrument":6,"program":0,"isDrum":true},{"pitch":44,"velocity":126,"startTime":248.25655799999998,"endTime":248.32536525,"instrument":6,"program":0,"isDrum":true},{"pitch":38,"velocity":128,"startTime":248.25655799999998,"endTime":248.39417250000002,"instrument":6,"program":0,"isDrum":true},{"pitch":46,"velocity":80,"startTime":248.531787,"endTime":248.634997875,"instrument":6,"program":0,"isDrum":true},{"pitch":36,"velocity":120,"startTime":248.531787,"endTime":248.634997875,"instrument":6,"program":0,"isDrum":true},{"pitch":46,"velocity":80,"startTime":248.80701600000003,"endTime":248.91022687500003,"instrument":6,"program":0,"isDrum":true},{"pitch":36,"velocity":120,"startTime":248.80701600000003,"endTime":248.93316262499997,"instrument":6,"program":0,"isDrum":true},{"pitch":38,"velocity":128,"startTime":249.35747400000002,"endTime":249.44921699999998,"instrument":6,"program":0,"isDrum":true},{"pitch":44,"velocity":121,"startTime":249.632703,"endTime":249.69004237499996,"instrument":6,"program":0,"isDrum":true},{"pitch":44,"velocity":124,"startTime":249.90793200000002,"endTime":249.98820712500003,"instrument":6,"program":0,"isDrum":true},{"pitch":38,"velocity":128,"startTime":250.45839,"endTime":250.584536625,"instrument":6,"program":0,"isDrum":true},{"pitch":46,"velocity":80,"startTime":251.008848,"endTime":251.112058875,"instrument":6,"program":0,"isDrum":true},{"pitch":36,"velocity":120,"startTime":251.008848,"endTime":251.07765525000002,"instrument":6,"program":0,"isDrum":true},{"pitch":44,"velocity":124,"startTime":251.559306,"endTime":251.77719562500005,"instrument":6,"program":0,"isDrum":true},{"pitch":38,"velocity":128,"startTime":251.559306,"endTime":251.67398475000005,"instrument":6,"program":0,"isDrum":true},{"pitch":44,"velocity":128,"startTime":251.83453500000002,"endTime":251.93774587500002,"instrument":6,"program":0,"isDrum":true},{"pitch":40,"velocity":100,"startTime":251.960681625,"endTime":252.02948887499997,"instrument":6,"program":0,"isDrum":true},{"pitch":44,"velocity":124,"startTime":252.10976399999998,"endTime":252.17857125,"instrument":6,"program":0,"isDrum":true},{"pitch":44,"velocity":125,"startTime":252.384993,"endTime":252.446919525,"instrument":6,"program":0,"isDrum":true},{"pitch":44,"velocity":126,"startTime":252.66022200000003,"endTime":252.72902925,"instrument":6,"program":0,"isDrum":true},{"pitch":38,"velocity":128,"startTime":252.66022200000003,"endTime":252.79783650000002,"instrument":6,"program":0,"isDrum":true},{"pitch":36,"velocity":120,"startTime":252.935451,"endTime":253.038661875,"instrument":6,"program":0,"isDrum":true},{"pitch":46,"velocity":80,"startTime":252.935451,"endTime":253.038661875,"instrument":6,"program":0,"isDrum":true},{"pitch":46,"velocity":80,"startTime":253.21068000000002,"endTime":253.31389087500003,"instrument":6,"program":0,"isDrum":true},{"pitch":36,"velocity":120,"startTime":253.21068000000002,"endTime":253.33682662500001,"instrument":6,"program":0,"isDrum":true},{"pitch":38,"velocity":128,"startTime":253.76113800000002,"endTime":253.85288099999997,"instrument":6,"program":0,"isDrum":true},{"pitch":44,"velocity":121,"startTime":254.03636699999998,"endTime":254.093706375,"instrument":6,"program":0,"isDrum":true},{"pitch":44,"velocity":124,"startTime":254.311596,"endTime":254.39187112500002,"instrument":6,"program":0,"isDrum":true},{"pitch":44,"velocity":128,"startTime":254.58682500000003,"endTime":254.80700819999998,"instrument":6,"program":0,"isDrum":true},{"pitch":44,"velocity":128,"startTime":254.862054,"endTime":255.30242039999996,"instrument":6,"program":0,"isDrum":true},{"pitch":38,"velocity":128,"startTime":254.862054,"endTime":254.988200625,"instrument":6,"program":0,"isDrum":true},{"pitch":46,"velocity":80,"startTime":255.412512,"endTime":255.515722875,"instrument":6,"program":0,"isDrum":true},{"pitch":36,"velocity":120,"startTime":255.412512,"endTime":255.48131925,"instrument":6,"program":0,"isDrum":true},{"pitch":44,"velocity":124,"startTime":255.96296999999998,"endTime":256.18085962500004,"instrument":6,"program":0,"isDrum":true},{"pitch":38,"velocity":128,"startTime":255.96296999999998,"endTime":256.07764875000004,"instrument":6,"program":0,"isDrum":true},{"pitch":44,"velocity":128,"startTime":256.238199,"endTime":256.341409875,"instrument":6,"program":0,"isDrum":true},{"pitch":40,"velocity":100,"startTime":256.364345625,"endTime":256.43315287499996,"instrument":6,"program":0,"isDrum":true},{"pitch":44,"velocity":124,"startTime":256.51342800000003,"endTime":256.58223525,"instrument":6,"program":0,"isDrum":true},{"pitch":44,"velocity":125,"startTime":256.788657,"endTime":256.850583525,"instrument":6,"program":0,"isDrum":true},{"pitch":44,"velocity":126,"startTime":257.063886,"endTime":257.13269325,"instrument":6,"program":0,"isDrum":true},{"pitch":38,"velocity":128,"startTime":257.063886,"endTime":257.2015005,"instrument":6,"program":0,"isDrum":true},{"pitch":36,"velocity":120,"startTime":257.339115,"endTime":257.442325875,"instrument":6,"program":0,"isDrum":true},{"pitch":46,"velocity":80,"startTime":257.339115,"endTime":257.442325875,"instrument":6,"program":0,"isDrum":true},{"pitch":46,"velocity":80,"startTime":257.614344,"endTime":257.717554875,"instrument":6,"program":0,"isDrum":true},{"pitch":36,"velocity":120,"startTime":257.614344,"endTime":257.740490625,"instrument":6,"program":0,"isDrum":true},{"pitch":38,"velocity":128,"startTime":258.164802,"endTime":258.25654499999996,"instrument":6,"program":0,"isDrum":true},{"pitch":44,"velocity":121,"startTime":258.44003100000003,"endTime":258.497370375,"instrument":6,"program":0,"isDrum":true},{"pitch":44,"velocity":124,"startTime":258.71526,"endTime":258.795535125,"instrument":6,"program":0,"isDrum":true},{"pitch":38,"velocity":128,"startTime":259.265718,"endTime":259.391864625,"instrument":6,"program":0,"isDrum":true},{"pitch":36,"velocity":120,"startTime":259.540947,"endTime":259.644157875,"instrument":6,"program":0,"isDrum":true},{"pitch":46,"velocity":80,"startTime":259.540947,"endTime":259.644157875,"instrument":6,"program":0,"isDrum":true},{"pitch":46,"velocity":80,"startTime":259.816176,"endTime":259.919386875,"instrument":6,"program":0,"isDrum":true},{"pitch":36,"velocity":120,"startTime":259.816176,"endTime":259.88498325,"instrument":6,"program":0,"isDrum":true},{"pitch":44,"velocity":124,"startTime":260.36663400000003,"endTime":260.58452362500003,"instrument":6,"program":0,"isDrum":true},{"pitch":38,"velocity":128,"startTime":260.36663400000003,"endTime":260.48131275000003,"instrument":6,"program":0,"isDrum":true},{"pitch":44,"velocity":128,"startTime":260.641863,"endTime":260.745073875,"instrument":6,"program":0,"isDrum":true},{"pitch":40,"velocity":100,"startTime":260.768009625,"endTime":260.836816875,"instrument":6,"program":0,"isDrum":true},{"pitch":44,"velocity":124,"startTime":260.917092,"endTime":260.98589925,"instrument":6,"program":0,"isDrum":true},{"pitch":44,"velocity":125,"startTime":261.192321,"endTime":261.254247525,"instrument":6,"program":0,"isDrum":true},{"pitch":44,"velocity":126,"startTime":261.46755,"endTime":261.53635725,"instrument":6,"program":0,"isDrum":true},{"pitch":38,"velocity":128,"startTime":261.46755,"endTime":261.6051645,"instrument":6,"program":0,"isDrum":true},{"pitch":36,"velocity":120,"startTime":261.742779,"endTime":261.845989875,"instrument":6,"program":0,"isDrum":true},{"pitch":46,"velocity":80,"startTime":261.742779,"endTime":261.845989875,"instrument":6,"program":0,"isDrum":true},{"pitch":46,"velocity":64,"startTime":262.018008,"endTime":262.121218875,"instrument":6,"program":0,"isDrum":true},{"pitch":36,"velocity":96,"startTime":262.018008,"endTime":262.144154625,"instrument":6,"program":0,"isDrum":true},{"pitch":38,"velocity":102,"startTime":262.568466,"endTime":262.660209,"instrument":6,"program":0,"isDrum":true},{"pitch":44,"velocity":97,"startTime":262.843695,"endTime":262.901034375,"instrument":6,"program":0,"isDrum":true},{"pitch":44,"velocity":99,"startTime":263.118924,"endTime":263.199199125,"instrument":6,"program":0,"isDrum":true},{"pitch":38,"velocity":102,"startTime":263.669382,"endTime":263.795528625,"instrument":6,"program":0,"isDrum":true},{"pitch":46,"velocity":52,"startTime":264.21984000000003,"endTime":264.32305087500004,"instrument":6,"program":0,"isDrum":true},{"pitch":36,"velocity":78,"startTime":264.21984000000003,"endTime":264.28864725,"instrument":6,"program":0,"isDrum":true},{"pitch":44,"velocity":81,"startTime":264.770298,"endTime":264.988187625,"instrument":6,"program":0,"isDrum":true},{"pitch":38,"velocity":83,"startTime":264.770298,"endTime":264.88497675,"instrument":6,"program":0,"isDrum":true},{"pitch":44,"velocity":83,"startTime":265.045527,"endTime":265.148737875,"instrument":6,"program":0,"isDrum":true},{"pitch":40,"velocity":65,"startTime":265.171673625,"endTime":265.240480875,"instrument":6,"program":0,"isDrum":true},{"pitch":44,"velocity":81,"startTime":265.320756,"endTime":265.38956325,"instrument":6,"program":0,"isDrum":true},{"pitch":44,"velocity":81,"startTime":265.595985,"endTime":265.657911525,"instrument":6,"program":0,"isDrum":true},{"pitch":44,"velocity":82,"startTime":265.871214,"endTime":265.94002125000003,"instrument":6,"program":0,"isDrum":true},{"pitch":38,"velocity":83,"startTime":265.871214,"endTime":266.0088285,"instrument":6,"program":0,"isDrum":true},{"pitch":46,"velocity":52,"startTime":266.14644300000003,"endTime":266.24965387500004,"instrument":6,"program":0,"isDrum":true},{"pitch":36,"velocity":78,"startTime":266.14644300000003,"endTime":266.24965387500004,"instrument":6,"program":0,"isDrum":true},{"pitch":46,"velocity":36,"startTime":266.421672,"endTime":266.524882875,"instrument":6,"program":0,"isDrum":true},{"pitch":36,"velocity":54,"startTime":266.421672,"endTime":266.547818625,"instrument":6,"program":0,"isDrum":true},{"pitch":38,"velocity":57,"startTime":266.97213,"endTime":267.063873,"instrument":6,"program":0,"isDrum":true},{"pitch":44,"velocity":54,"startTime":267.247359,"endTime":267.304698375,"instrument":6,"program":0,"isDrum":true},{"pitch":44,"velocity":56,"startTime":267.522588,"endTime":267.60286312500006,"instrument":6,"program":0,"isDrum":true},{"pitch":38,"velocity":57,"startTime":268.07304600000003,"endTime":268.19919262499997,"instrument":6,"program":0,"isDrum":true},{"pitch":46,"velocity":16,"startTime":268.623504,"endTime":268.726714875,"instrument":6,"program":0,"isDrum":true},{"pitch":36,"velocity":24,"startTime":268.623504,"endTime":268.69231125,"instrument":6,"program":0,"isDrum":true},{"pitch":44,"velocity":25,"startTime":269.173962,"endTime":269.391851625,"instrument":6,"program":0,"isDrum":true},{"pitch":38,"velocity":25,"startTime":269.173962,"endTime":269.28864075,"instrument":6,"program":0,"isDrum":true},{"pitch":44,"velocity":25,"startTime":269.449191,"endTime":269.552401875,"instrument":6,"program":0,"isDrum":true},{"pitch":40,"velocity":20,"startTime":269.575337625,"endTime":269.644144875,"instrument":6,"program":0,"isDrum":true},{"pitch":44,"velocity":25,"startTime":269.72442,"endTime":269.79322725000003,"instrument":6,"program":0,"isDrum":true},{"pitch":44,"velocity":25,"startTime":269.99964900000003,"endTime":270.06157552499997,"instrument":6,"program":0,"isDrum":true},{"pitch":44,"velocity":25,"startTime":270.274878,"endTime":270.34368525,"instrument":6,"program":0,"isDrum":true},{"pitch":38,"velocity":25,"startTime":270.274878,"endTime":270.4124925,"instrument":6,"program":0,"isDrum":true},{"pitch":36,"velocity":24,"startTime":270.550107,"endTime":270.653317875,"instrument":6,"program":0,"isDrum":true},{"pitch":46,"velocity":16,"startTime":270.550107,"endTime":270.653317875,"instrument":6,"program":0,"isDrum":true},{"pitch":46,"velocity":8,"startTime":270.825336,"endTime":270.928546875,"instrument":6,"program":0,"isDrum":true},{"pitch":36,"velocity":12,"startTime":270.825336,"endTime":270.951482625,"instrument":6,"program":0,"isDrum":true},{"pitch":38,"velocity":13,"startTime":271.375794,"endTime":271.467537,"instrument":6,"program":0,"isDrum":true},{"pitch":44,"velocity":12,"startTime":271.651023,"endTime":271.708362375,"instrument":6,"program":0,"isDrum":true},{"pitch":44,"velocity":12,"startTime":271.92625200000003,"endTime":272.00652712500005,"instrument":6,"program":0,"isDrum":true},{"pitch":44,"velocity":13,"startTime":272.201481,"endTime":272.4216642,"instrument":6,"program":0,"isDrum":true},{"pitch":44,"velocity":13,"startTime":272.47671,"endTime":272.9170764,"instrument":6,"program":0,"isDrum":true},{"pitch":38,"velocity":13,"startTime":272.47671,"endTime":272.602856625,"instrument":6,"program":0,"isDrum":true},{"pitch":46,"velocity":1,"startTime":273.027168,"endTime":273.130378875,"instrument":6,"program":0,"isDrum":true},{"pitch":36,"velocity":1,"startTime":273.027168,"endTime":273.09597525,"instrument":6,"program":0,"isDrum":true},{"pitch":44,"velocity":1,"startTime":273.577626,"endTime":273.795515625,"instrument":6,"program":0,"isDrum":true},{"pitch":38,"velocity":1,"startTime":273.577626,"endTime":273.69230475,"instrument":6,"program":0,"isDrum":true},{"pitch":44,"velocity":1,"startTime":273.85285500000003,"endTime":273.95606587500004,"instrument":6,"program":0,"isDrum":true},{"pitch":40,"velocity":1,"startTime":273.97900162499997,"endTime":274.047808875,"instrument":6,"program":0,"isDrum":true},{"pitch":44,"velocity":1,"startTime":274.128084,"endTime":274.19689125,"instrument":6,"program":0,"isDrum":true},{"pitch":44,"velocity":1,"startTime":274.403313,"endTime":274.46523952499996,"instrument":6,"program":0,"isDrum":true},{"pitch":44,"velocity":1,"startTime":274.678542,"endTime":274.74734925,"instrument":6,"program":0,"isDrum":true},{"pitch":38,"velocity":1,"startTime":274.678542,"endTime":274.81615650000003,"instrument":6,"program":0,"isDrum":true},{"pitch":36,"velocity":1,"startTime":274.953771,"endTime":275.056981875,"instrument":6,"program":0,"isDrum":true},{"pitch":46,"velocity":1,"startTime":274.953771,"endTime":275.056981875,"instrument":6,"program":0,"isDrum":true},{"pitch":71,"velocity":74,"startTime":123.302592,"endTime":124.40350800000002,"instrument":7,"program":68,"isDrum":false},{"pitch":67,"velocity":74,"startTime":124.40350800000002,"endTime":125.504424,"instrument":7,"program":68,"isDrum":false},{"pitch":62,"velocity":74,"startTime":125.504424,"endTime":126.60534000000001,"instrument":7,"program":68,"isDrum":false},{"pitch":67,"velocity":74,"startTime":126.60534000000001,"endTime":127.706256,"instrument":7,"program":68,"isDrum":false},{"pitch":71,"velocity":74,"startTime":127.706256,"endTime":128.25671400000002,"instrument":7,"program":68,"isDrum":false},{"pitch":69,"velocity":74,"startTime":128.25671400000002,"endTime":128.807172,"instrument":7,"program":68,"isDrum":false},{"pitch":71,"velocity":74,"startTime":128.807172,"endTime":129.35763,"instrument":7,"program":68,"isDrum":false},{"pitch":72,"velocity":74,"startTime":129.35763,"endTime":129.90808800000002,"instrument":7,"program":68,"isDrum":false},{"pitch":71,"velocity":74,"startTime":129.90808800000002,"endTime":131.009004,"instrument":7,"program":68,"isDrum":false},{"pitch":67,"velocity":74,"startTime":131.009004,"endTime":132.10992000000002,"instrument":7,"program":68,"isDrum":false},{"pitch":62,"velocity":74,"startTime":132.93790057500001,"endTime":133.57551442500002,"instrument":7,"program":68,"isDrum":false},{"pitch":67,"velocity":74,"startTime":133.47918427500002,"endTime":134.4768894,"instrument":7,"program":68,"isDrum":false},{"pitch":67,"velocity":74,"startTime":135.148906875,"endTime":135.6787227,"instrument":7,"program":68,"isDrum":false},{"pitch":69,"velocity":74,"startTime":135.68101627500002,"endTime":136.2475293,"instrument":7,"program":68,"isDrum":false},{"pitch":71,"velocity":74,"startTime":136.238355,"endTime":136.78651942500002,"instrument":7,"program":68,"isDrum":false},{"pitch":69,"velocity":74,"startTime":136.81174875000002,"endTime":137.33697742500001,"instrument":7,"program":68,"isDrum":false},{"pitch":67,"velocity":74,"startTime":137.339271,"endTime":138.56174647500004,"instrument":7,"program":68,"isDrum":false},{"pitch":71,"velocity":74,"startTime":246.605184,"endTime":247.7061,"instrument":7,"program":68,"isDrum":false},{"pitch":67,"velocity":74,"startTime":247.7061,"endTime":248.80701600000003,"instrument":7,"program":68,"isDrum":false},{"pitch":62,"velocity":74,"startTime":248.80701600000003,"endTime":249.90793200000002,"instrument":7,"program":68,"isDrum":false},{"pitch":67,"velocity":74,"startTime":249.90793200000002,"endTime":251.008848,"instrument":7,"program":68,"isDrum":false},{"pitch":71,"velocity":74,"startTime":251.008848,"endTime":251.559306,"instrument":7,"program":68,"isDrum":false},{"pitch":69,"velocity":74,"startTime":251.559306,"endTime":252.10976399999998,"instrument":7,"program":68,"isDrum":false},{"pitch":71,"velocity":74,"startTime":252.10976399999998,"endTime":252.66022200000003,"instrument":7,"program":68,"isDrum":false},{"pitch":72,"velocity":74,"startTime":252.66022200000003,"endTime":253.21068000000002,"instrument":7,"program":68,"isDrum":false},{"pitch":71,"velocity":74,"startTime":253.21068000000002,"endTime":254.311596,"instrument":7,"program":68,"isDrum":false},{"pitch":67,"velocity":74,"startTime":254.311596,"endTime":255.412512,"instrument":7,"program":68,"isDrum":false},{"pitch":62,"velocity":74,"startTime":256.240492575,"endTime":256.878106425,"instrument":7,"program":68,"isDrum":false},{"pitch":67,"velocity":74,"startTime":256.78177627499997,"endTime":257.7794814,"instrument":7,"program":68,"isDrum":false},{"pitch":67,"velocity":74,"startTime":258.451498875,"endTime":258.98131470000004,"instrument":7,"program":68,"isDrum":false},{"pitch":69,"velocity":74,"startTime":258.983608275,"endTime":259.5501213,"instrument":7,"program":68,"isDrum":false},{"pitch":71,"velocity":74,"startTime":259.540947,"endTime":260.089111425,"instrument":7,"program":68,"isDrum":false},{"pitch":69,"velocity":74,"startTime":260.11434075,"endTime":260.639569425,"instrument":7,"program":68,"isDrum":false},{"pitch":67,"velocity":74,"startTime":260.641863,"endTime":261.864338475,"instrument":7,"program":68,"isDrum":false},{"pitch":71,"velocity":48,"startTime":264.21984000000003,"endTime":265.320756,"instrument":7,"program":68,"isDrum":false},{"pitch":67,"velocity":48,"startTime":265.320756,"endTime":266.421672,"instrument":7,"program":68,"isDrum":false},{"pitch":62,"velocity":33,"startTime":266.421672,"endTime":267.522588,"instrument":7,"program":68,"isDrum":false},{"pitch":67,"velocity":33,"startTime":267.522588,"endTime":268.623504,"instrument":7,"program":68,"isDrum":false},{"pitch":71,"velocity":15,"startTime":268.623504,"endTime":269.173962,"instrument":7,"program":68,"isDrum":false},{"pitch":69,"velocity":15,"startTime":269.173962,"endTime":269.72442,"instrument":7,"program":68,"isDrum":false},{"pitch":71,"velocity":15,"startTime":269.72442,"endTime":270.274878,"instrument":7,"program":68,"isDrum":false},{"pitch":72,"velocity":15,"startTime":270.274878,"endTime":270.825336,"instrument":7,"program":68,"isDrum":false},{"pitch":71,"velocity":7,"startTime":270.825336,"endTime":271.92625200000003,"instrument":7,"program":68,"isDrum":false},{"pitch":67,"velocity":7,"startTime":271.92625200000003,"endTime":273.027168,"instrument":7,"program":68,"isDrum":false},{"pitch":62,"velocity":1,"startTime":273.85514857500004,"endTime":274.492762425,"instrument":7,"program":68,"isDrum":false},{"pitch":67,"velocity":1,"startTime":274.396432275,"endTime":275.3941374,"instrument":7,"program":68,"isDrum":false}],"totalTime":276.836796075,"sourceInfo":{"encodingType":"MIDI","parser":"TONEJS_MIDI_CONVERT"}},"tempo":109,"selectedInstruments":[0,1,2,3,4,5,6,7]},"style":{"trimmedSequence":{"filename":"halfn.mid","ticksPerQuarter":120,"timeSignatures":[{"time":0,"numerator":4,"denominator":4}],"tempos":[{"time":0,"qpm":203.00034510058669}],"notes":[{"pitch":36,"velocity":105,"startTime":0,"endTime":0.16502435000000001,"instrument":0,"program":32,"isDrum":false},{"pitch":36,"velocity":117,"startTime":0.21921145,"endTime":0.2906399,"instrument":0,"program":32,"isDrum":false},{"pitch":37,"velocity":98,"startTime":0.295566,"endTime":0.591132,"instrument":0,"program":32,"isDrum":false},{"pitch":38,"velocity":110,"startTime":0.591132,"endTime":0.7487672,"instrument":0,"program":32,"isDrum":false},{"pitch":38,"velocity":103,"startTime":0.81034345,"endTime":0.8965502,"instrument":0,"program":32,"isDrum":false},{"pitch":45,"velocity":96,"startTime":0.886698,"endTime":1.182264,"instrument":0,"program":32,"isDrum":false},{"pitch":36,"velocity":101,"startTime":1.182264,"endTime":1.527091,"instrument":0,"program":32,"isDrum":false},{"pitch":38,"velocity":103,"startTime":1.47783,"endTime":1.80048955,"instrument":0,"program":32,"isDrum":false},{"pitch":40,"velocity":98,"startTime":1.773396,"endTime":2.118223,"instrument":0,"program":32,"isDrum":false},{"pitch":43,"velocity":99,"startTime":2.068962,"endTime":2.364528,"instrument":0,"program":32,"isDrum":false},{"pitch":41,"velocity":109,"startTime":2.364528,"endTime":2.64777875,"instrument":0,"program":32,"isDrum":false},{"pitch":36,"velocity":85,"startTime":2.58373945,"endTime":2.63300045,"instrument":0,"program":32,"isDrum":false},{"pitch":48,"velocity":102,"startTime":2.660094,"endTime":2.87930545,"instrument":0,"program":32,"isDrum":false},{"pitch":36,"velocity":87,"startTime":2.87930545,"endTime":2.9211772999999996,"instrument":0,"program":32,"isDrum":false},{"pitch":34,"velocity":104,"startTime":2.95566,"endTime":3.3054131,"instrument":0,"program":32,"isDrum":false},{"pitch":41,"velocity":103,"startTime":3.251226,"endTime":3.546792,"instrument":0,"program":32,"isDrum":false},{"pitch":41,"velocity":116,"startTime":3.546792,"endTime":3.842358,"instrument":0,"program":32,"isDrum":false},{"pitch":41,"velocity":123,"startTime":3.842358,"endTime":4.137924,"instrument":0,"program":32,"isDrum":false},{"pitch":34,"velocity":116,"startTime":4.137924,"endTime":4.43349,"instrument":0,"program":32,"isDrum":false},{"pitch":34,"velocity":123,"startTime":4.43349,"endTime":4.729056,"instrument":0,"program":32,"isDrum":false},{"pitch":36,"velocity":121,"startTime":4.729056,"endTime":4.95319355,"instrument":0,"program":32,"isDrum":false},{"pitch":24,"velocity":114,"startTime":4.94826745,"endTime":5.024622,"instrument":0,"program":32,"isDrum":false},{"pitch":36,"velocity":123,"startTime":5.024622,"endTime":5.31772495,"instrument":0,"program":32,"isDrum":false},{"pitch":38,"velocity":95,"startTime":5.320188,"endTime":5.5418625,"instrument":0,"program":32,"isDrum":false},{"pitch":26,"velocity":92,"startTime":5.5418625,"endTime":5.5615669,"instrument":0,"program":32,"isDrum":false},{"pitch":43,"velocity":95,"startTime":5.615754,"endTime":5.8374285,"instrument":0,"program":32,"isDrum":false},{"pitch":31,"velocity":92,"startTime":5.8374285,"endTime":5.8571329,"instrument":0,"program":32,"isDrum":false},{"pitch":36,"velocity":108,"startTime":5.91132,"endTime":6.137920599999999,"instrument":0,"program":32,"isDrum":false},{"pitch":31,"velocity":87,"startTime":6.13053145,"endTime":6.1773294,"instrument":0,"program":32,"isDrum":false},{"pitch":38,"velocity":106,"startTime":6.206886,"endTime":6.49998895,"instrument":0,"program":32,"isDrum":false},{"pitch":40,"velocity":113,"startTime":6.502452,"endTime":6.694569899999999,"instrument":0,"program":32,"isDrum":false},{"pitch":31,"velocity":91,"startTime":6.72166345,"endTime":6.765998349999999,"instrument":0,"program":32,"isDrum":false},{"pitch":43,"velocity":115,"startTime":6.798018,"endTime":7.0689535,"instrument":0,"program":32,"isDrum":false},{"pitch":31,"velocity":84,"startTime":7.01722945,"endTime":7.04185995,"instrument":0,"program":32,"isDrum":false},{"pitch":35,"velocity":110,"startTime":7.093584,"endTime":7.2512192,"instrument":0,"program":32,"isDrum":false},{"pitch":35,"velocity":103,"startTime":7.31279545,"endTime":7.3990022,"instrument":0,"program":32,"isDrum":false},{"pitch":42,"velocity":96,"startTime":7.38915,"endTime":7.684716,"instrument":0,"program":32,"isDrum":false},{"pitch":40,"velocity":109,"startTime":7.684716,"endTime":7.9679667499999995,"instrument":0,"program":32,"isDrum":false},{"pitch":35,"velocity":85,"startTime":7.90392745,"endTime":7.953188450000001,"instrument":0,"program":32,"isDrum":false},{"pitch":47,"velocity":102,"startTime":7.980282,"endTime":8.19949345,"instrument":0,"program":32,"isDrum":false},{"pitch":35,"velocity":87,"startTime":8.19949345,"endTime":8.2413653,"instrument":0,"program":32,"isDrum":false},{"pitch":34,"velocity":110,"startTime":8.275848,"endTime":8.5418574,"instrument":0,"program":32,"isDrum":false},{"pitch":22,"velocity":87,"startTime":8.49505945,"endTime":8.57387705,"instrument":0,"program":32,"isDrum":false},{"pitch":40,"velocity":110,"startTime":8.57387705,"endTime":8.86698,"instrument":0,"program":32,"isDrum":false},{"pitch":39,"velocity":114,"startTime":8.86698,"endTime":9.19949175,"instrument":0,"program":32,"isDrum":false},{"pitch":43,"velocity":111,"startTime":9.162545999999999,"endTime":9.43101845,"instrument":0,"program":32,"isDrum":false},{"pitch":44,"velocity":103,"startTime":9.458112,"endTime":9.458112,"instrument":0,"program":32,"isDrum":false},{"pitch":51,"velocity":97,"startTime":0,"endTime":0.06157625,"instrument":1,"program":0,"isDrum":true},{"pitch":42,"velocity":87,"startTime":0.295566,"endTime":0.35714225,"instrument":1,"program":0,"isDrum":true},{"pitch":51,"velocity":107,"startTime":0.295566,"endTime":0.35714225,"instrument":1,"program":0,"isDrum":true},{"pitch":51,"velocity":77,"startTime":0.51477745,"endTime":0.5763537,"instrument":1,"program":0,"isDrum":true},{"pitch":51,"velocity":97,"startTime":0.591132,"endTime":0.65270825,"instrument":1,"program":0,"isDrum":true},{"pitch":42,"velocity":87,"startTime":0.886698,"endTime":0.94827425,"instrument":1,"program":0,"isDrum":true},{"pitch":37,"velocity":87,"startTime":0.886698,"endTime":0.94827425,"instrument":1,"program":0,"isDrum":true},{"pitch":51,"velocity":107,"startTime":0.886698,"endTime":0.94827425,"instrument":1,"program":0,"isDrum":true},{"pitch":51,"velocity":77,"startTime":1.10590945,"endTime":1.1674857,"instrument":1,"program":0,"isDrum":true},{"pitch":51,"velocity":97,"startTime":1.182264,"endTime":1.2438402499999999,"instrument":1,"program":0,"isDrum":true},{"pitch":42,"velocity":87,"startTime":1.47783,"endTime":1.5394062499999999,"instrument":1,"program":0,"isDrum":true},{"pitch":51,"velocity":107,"startTime":1.47783,"endTime":1.5394062499999999,"instrument":1,"program":0,"isDrum":true},{"pitch":51,"velocity":97,"startTime":1.773396,"endTime":1.8349722499999999,"instrument":1,"program":0,"isDrum":true},{"pitch":42,"velocity":87,"startTime":2.068962,"endTime":2.13053825,"instrument":1,"program":0,"isDrum":true},{"pitch":37,"velocity":87,"startTime":2.068962,"endTime":2.13053825,"instrument":1,"program":0,"isDrum":true},{"pitch":51,"velocity":107,"startTime":2.068962,"endTime":2.13053825,"instrument":1,"program":0,"isDrum":true},{"pitch":51,"velocity":97,"startTime":2.364528,"endTime":2.4261042500000003,"instrument":1,"program":0,"isDrum":true},{"pitch":42,"velocity":87,"startTime":2.660094,"endTime":2.7216702500000003,"instrument":1,"program":0,"isDrum":true},{"pitch":51,"velocity":107,"startTime":2.660094,"endTime":2.7216702500000003,"instrument":1,"program":0,"isDrum":true},{"pitch":51,"velocity":77,"startTime":2.87930545,"endTime":2.9408817,"instrument":1,"program":0,"isDrum":true},{"pitch":51,"velocity":97,"startTime":2.95566,"endTime":3.0172362500000003,"instrument":1,"program":0,"isDrum":true},{"pitch":42,"velocity":87,"startTime":3.251226,"endTime":3.3128022500000003,"instrument":1,"program":0,"isDrum":true},{"pitch":37,"velocity":87,"startTime":3.251226,"endTime":3.3128022500000003,"instrument":1,"program":0,"isDrum":true},{"pitch":51,"velocity":107,"startTime":3.251226,"endTime":3.3128022500000003,"instrument":1,"program":0,"isDrum":true},{"pitch":51,"velocity":77,"startTime":3.47043745,"endTime":3.5320137,"instrument":1,"program":0,"isDrum":true},{"pitch":51,"velocity":97,"startTime":3.546792,"endTime":3.6083682500000003,"instrument":1,"program":0,"isDrum":true},{"pitch":42,"velocity":87,"startTime":3.842358,"endTime":3.9039342500000003,"instrument":1,"program":0,"isDrum":true},{"pitch":51,"velocity":107,"startTime":3.842358,"endTime":3.9039342500000003,"instrument":1,"program":0,"isDrum":true},{"pitch":51,"velocity":97,"startTime":4.137924,"endTime":4.19950025,"instrument":1,"program":0,"isDrum":true},{"pitch":42,"velocity":87,"startTime":4.43349,"endTime":4.49506625,"instrument":1,"program":0,"isDrum":true},{"pitch":37,"velocity":87,"startTime":4.43349,"endTime":4.49506625,"instrument":1,"program":0,"isDrum":true},{"pitch":51,"velocity":107,"startTime":4.43349,"endTime":4.49506625,"instrument":1,"program":0,"isDrum":true},{"pitch":51,"velocity":97,"startTime":4.729056,"endTime":4.79063225,"instrument":1,"program":0,"isDrum":true},{"pitch":42,"velocity":87,"startTime":5.024622,"endTime":5.08619825,"instrument":1,"program":0,"isDrum":true},{"pitch":51,"velocity":117,"startTime":5.024622,"endTime":5.08619825,"instrument":1,"program":0,"isDrum":true},{"pitch":51,"velocity":97,"startTime":5.320188,"endTime":5.38176425,"instrument":1,"program":0,"isDrum":true},{"pitch":42,"velocity":87,"startTime":5.615754,"endTime":5.67733025,"instrument":1,"program":0,"isDrum":true},{"pitch":37,"velocity":87,"startTime":5.615754,"endTime":5.67733025,"instrument":1,"program":0,"isDrum":true},{"pitch":51,"velocity":117,"startTime":5.615754,"endTime":5.67733025,"instrument":1,"program":0,"isDrum":true},{"pitch":51,"velocity":97,"startTime":5.91132,"endTime":5.97289625,"instrument":1,"program":0,"isDrum":true},{"pitch":42,"velocity":87,"startTime":6.206886,"endTime":6.26846225,"instrument":1,"program":0,"isDrum":true},{"pitch":51,"velocity":117,"startTime":6.206886,"endTime":6.26846225,"instrument":1,"program":0,"isDrum":true},{"pitch":51,"velocity":97,"startTime":6.502452,"endTime":6.56402825,"instrument":1,"program":0,"isDrum":true},{"pitch":42,"velocity":87,"startTime":6.798018,"endTime":6.85959425,"instrument":1,"program":0,"isDrum":true},{"pitch":37,"velocity":87,"startTime":6.798018,"endTime":6.85959425,"instrument":1,"program":0,"isDrum":true},{"pitch":51,"velocity":117,"startTime":6.798018,"endTime":6.85959425,"instrument":1,"program":0,"isDrum":true},{"pitch":51,"velocity":97,"startTime":7.093584,"endTime":7.15516025,"instrument":1,"program":0,"isDrum":true},{"pitch":42,"velocity":87,"startTime":7.38915,"endTime":7.45072625,"instrument":1,"program":0,"isDrum":true},{"pitch":51,"velocity":117,"startTime":7.38915,"endTime":7.45072625,"instrument":1,"program":0,"isDrum":true},{"pitch":51,"velocity":97,"startTime":7.684716,"endTime":7.74629225,"instrument":1,"program":0,"isDrum":true},{"pitch":42,"velocity":87,"startTime":7.980282,"endTime":8.041858249999999,"instrument":1,"program":0,"isDrum":true},{"pitch":37,"velocity":87,"startTime":7.980282,"endTime":8.041858249999999,"instrument":1,"program":0,"isDrum":true},{"pitch":51,"velocity":117,"startTime":7.980282,"endTime":8.041858249999999,"instrument":1,"program":0,"isDrum":true},{"pitch":51,"velocity":97,"startTime":8.275848,"endTime":8.33742425,"instrument":1,"program":0,"isDrum":true},{"pitch":42,"velocity":87,"startTime":8.571414,"endTime":8.632990249999999,"instrument":1,"program":0,"isDrum":true},{"pitch":51,"velocity":107,"startTime":8.571414,"endTime":8.632990249999999,"instrument":1,"program":0,"isDrum":true},{"pitch":51,"velocity":97,"startTime":8.86698,"endTime":8.92855625,"instrument":1,"program":0,"isDrum":true},{"pitch":42,"velocity":87,"startTime":9.162545999999999,"endTime":9.224122249999999,"instrument":1,"program":0,"isDrum":true},{"pitch":37,"velocity":87,"startTime":9.162545999999999,"endTime":9.224122249999999,"instrument":1,"program":0,"isDrum":true},{"pitch":51,"velocity":107,"startTime":9.162545999999999,"endTime":9.224122249999999,"instrument":1,"program":0,"isDrum":true},{"pitch":51,"velocity":97,"startTime":9.458112,"endTime":9.458112,"instrument":1,"program":0,"isDrum":true},{"pitch":74,"velocity":74,"startTime":0.20935925,"endTime":0.591132,"instrument":2,"program":0,"isDrum":false},{"pitch":59,"velocity":57,"startTime":0.22413755,"endTime":0.591132,"instrument":2,"program":0,"isDrum":false},{"pitch":64,"velocity":54,"startTime":0.22413755,"endTime":0.591132,"instrument":2,"program":0,"isDrum":false},{"pitch":71,"velocity":59,"startTime":0.23645280000000002,"endTime":0.591132,"instrument":2,"program":0,"isDrum":false},{"pitch":67,"velocity":57,"startTime":0.25615720000000003,"endTime":0.591132,"instrument":2,"program":0,"isDrum":false},{"pitch":65,"velocity":47,"startTime":0.6157625,"endTime":0.6822648499999999,"instrument":2,"program":0,"isDrum":false},{"pitch":50,"velocity":41,"startTime":0.61822555,"endTime":0.6945801,"instrument":2,"program":0,"isDrum":false},{"pitch":64,"velocity":49,"startTime":0.61822555,"endTime":0.6699495999999999,"instrument":2,"program":0,"isDrum":false},{"pitch":60,"velocity":43,"startTime":0.6206886,"endTime":0.69211705,"instrument":2,"program":0,"isDrum":false},{"pitch":36,"velocity":50,"startTime":1.1921161999999998,"endTime":1.2733968500000001,"instrument":2,"program":0,"isDrum":false},{"pitch":59,"velocity":67,"startTime":1.1970423,"endTime":1.25861855,"instrument":2,"program":0,"isDrum":false},{"pitch":52,"velocity":54,"startTime":1.1970423,"endTime":1.2733968500000001,"instrument":2,"program":0,"isDrum":false},{"pitch":55,"velocity":51,"startTime":1.1970423,"endTime":1.2733968500000001,"instrument":2,"program":0,"isDrum":false},{"pitch":59,"velocity":59,"startTime":1.77093295,"endTime":1.8842332499999999,"instrument":2,"program":0,"isDrum":false},{"pitch":67,"velocity":54,"startTime":1.7783221,"endTime":1.87438105,"instrument":2,"program":0,"isDrum":false},{"pitch":48,"velocity":56,"startTime":1.78078515,"endTime":1.8965485,"instrument":2,"program":0,"isDrum":false},{"pitch":64,"velocity":54,"startTime":1.78078515,"endTime":1.8817701999999998,"instrument":2,"program":0,"isDrum":false},{"pitch":63,"velocity":46,"startTime":2.40147375,"endTime":2.4827544,"instrument":2,"program":0,"isDrum":false},{"pitch":60,"velocity":60,"startTime":2.40147375,"endTime":2.4729022,"instrument":2,"program":0,"isDrum":false},{"pitch":56,"velocity":52,"startTime":2.4039368,"endTime":2.4827544,"instrument":2,"program":0,"isDrum":false},{"pitch":67,"velocity":47,"startTime":2.4113259499999997,"endTime":2.4827544,"instrument":2,"program":0,"isDrum":false},{"pitch":41,"velocity":76,"startTime":2.68718755,"endTime":2.8103400499999998,"instrument":2,"program":0,"isDrum":false},{"pitch":65,"velocity":77,"startTime":3.17979755,"endTime":3.23398465,"instrument":2,"program":0,"isDrum":false},{"pitch":60,"velocity":68,"startTime":3.1822606,"endTime":3.22413245,"instrument":2,"program":0,"isDrum":false},{"pitch":50,"velocity":67,"startTime":3.18472365,"endTime":3.2315216,"instrument":2,"program":0,"isDrum":false},{"pitch":56,"velocity":42,"startTime":3.1921128000000003,"endTime":3.22413245,"instrument":2,"program":0,"isDrum":false},{"pitch":56,"velocity":52,"startTime":3.5541811500000002,"endTime":3.9162495,"instrument":2,"program":0,"isDrum":false},{"pitch":53,"velocity":54,"startTime":3.5541811500000002,"endTime":3.96797355,"instrument":2,"program":0,"isDrum":false},{"pitch":51,"velocity":47,"startTime":3.5566442,"endTime":3.9359539,"instrument":2,"program":0,"isDrum":false},{"pitch":41,"velocity":46,"startTime":3.55910725,"endTime":4.00738235,"instrument":2,"program":0,"isDrum":false},{"pitch":40,"velocity":62,"startTime":4.0935891,"endTime":4.137924,"instrument":2,"program":0,"isDrum":false},{"pitch":72,"velocity":74,"startTime":4.34728325,"endTime":4.64284925,"instrument":2,"program":0,"isDrum":false},{"pitch":56,"velocity":57,"startTime":4.36206155,"endTime":4.64284925,"instrument":2,"program":0,"isDrum":false},{"pitch":62,"velocity":54,"startTime":4.36206155,"endTime":4.64284925,"instrument":2,"program":0,"isDrum":false},{"pitch":68,"velocity":59,"startTime":4.3743768,"endTime":4.64284925,"instrument":2,"program":0,"isDrum":false},{"pitch":65,"velocity":57,"startTime":4.3940812000000005,"endTime":4.64284925,"instrument":2,"program":0,"isDrum":false},{"pitch":74,"velocity":74,"startTime":4.938415249999999,"endTime":5.233981249999999,"instrument":2,"program":0,"isDrum":false},{"pitch":59,"velocity":57,"startTime":4.95319355,"endTime":5.233981249999999,"instrument":2,"program":0,"isDrum":false},{"pitch":64,"velocity":54,"startTime":4.95319355,"endTime":5.233981249999999,"instrument":2,"program":0,"isDrum":false},{"pitch":71,"velocity":59,"startTime":4.9655088,"endTime":5.233981249999999,"instrument":2,"program":0,"isDrum":false},{"pitch":67,"velocity":57,"startTime":4.9852132000000005,"endTime":5.233981249999999,"instrument":2,"program":0,"isDrum":false},{"pitch":64,"velocity":58,"startTime":5.2709269999999995,"endTime":5.41132085,"instrument":2,"program":0,"isDrum":false},{"pitch":53,"velocity":50,"startTime":5.27339005,"endTime":5.421173049999999,"instrument":2,"program":0,"isDrum":false},{"pitch":60,"velocity":56,"startTime":5.2758531,"endTime":5.421173049999999,"instrument":2,"program":0,"isDrum":false},{"pitch":69,"velocity":61,"startTime":5.27831615,"endTime":5.4334883,"instrument":2,"program":0,"isDrum":false},{"pitch":65,"velocity":47,"startTime":5.6403845,"endTime":5.70688685,"instrument":2,"program":0,"isDrum":false},{"pitch":43,"velocity":41,"startTime":5.642847549999999,"endTime":5.7192021,"instrument":2,"program":0,"isDrum":false},{"pitch":62,"velocity":49,"startTime":5.642847549999999,"endTime":5.6945716,"instrument":2,"program":0,"isDrum":false},{"pitch":59,"velocity":43,"startTime":5.6453106,"endTime":5.716739049999999,"instrument":2,"program":0,"isDrum":false},{"pitch":67,"velocity":77,"startTime":6.13545755,"endTime":6.18964465,"instrument":2,"program":0,"isDrum":false},{"pitch":60,"velocity":68,"startTime":6.137920599999999,"endTime":6.179792450000001,"instrument":2,"program":0,"isDrum":false},{"pitch":52,"velocity":67,"startTime":6.1403836499999995,"endTime":6.1871816,"instrument":2,"program":0,"isDrum":false},{"pitch":59,"velocity":42,"startTime":6.1477728,"endTime":6.179792450000001,"instrument":2,"program":0,"isDrum":false},{"pitch":60,"velocity":61,"startTime":6.5123042,"endTime":6.5714174000000005,"instrument":2,"program":0,"isDrum":false},{"pitch":67,"velocity":59,"startTime":6.51969335,"endTime":6.5788065499999995,"instrument":2,"program":0,"isDrum":false},{"pitch":59,"velocity":61,"startTime":6.51969335,"endTime":6.57388045,"instrument":2,"program":0,"isDrum":false},{"pitch":52,"velocity":59,"startTime":6.5221564,"endTime":6.55910215,"instrument":2,"program":0,"isDrum":false},{"pitch":51,"velocity":55,"startTime":7.024618599999999,"endTime":7.0689535,"instrument":2,"program":0,"isDrum":false},{"pitch":59,"velocity":68,"startTime":7.320184599999999,"endTime":7.38668695,"instrument":2,"program":0,"isDrum":false},{"pitch":54,"velocity":51,"startTime":7.325110700000001,"endTime":7.40639135,"instrument":2,"program":0,"isDrum":false},{"pitch":66,"velocity":66,"startTime":7.32757375,"endTime":7.38668695,"instrument":2,"program":0,"isDrum":false},{"pitch":47,"velocity":52,"startTime":7.34235205,"endTime":7.3940760999999995,"instrument":2,"program":0,"isDrum":false},{"pitch":62,"velocity":63,"startTime":7.4187066,"endTime":7.57880485,"instrument":2,"program":0,"isDrum":false},{"pitch":54,"velocity":55,"startTime":7.63791805,"endTime":7.684716,"instrument":2,"program":0,"isDrum":false},{"pitch":62,"velocity":46,"startTime":7.72166175,"endTime":7.802942399999999,"instrument":2,"program":0,"isDrum":false},{"pitch":61,"velocity":60,"startTime":7.72166175,"endTime":7.7930902,"instrument":2,"program":0,"isDrum":false},{"pitch":56,"velocity":52,"startTime":7.724124799999999,"endTime":7.802942399999999,"instrument":2,"program":0,"isDrum":false},{"pitch":64,"velocity":47,"startTime":7.73151395,"endTime":7.802942399999999,"instrument":2,"program":0,"isDrum":false},{"pitch":40,"velocity":76,"startTime":8.007375549999999,"endTime":8.13052805,"instrument":2,"program":0,"isDrum":false},{"pitch":61,"velocity":47,"startTime":8.300478499999999,"endTime":8.36698085,"instrument":2,"program":0,"isDrum":false},{"pitch":46,"velocity":41,"startTime":8.30294155,"endTime":8.3792961,"instrument":2,"program":0,"isDrum":false},{"pitch":60,"velocity":49,"startTime":8.30294155,"endTime":8.354665599999999,"instrument":2,"program":0,"isDrum":false},{"pitch":56,"velocity":43,"startTime":8.305404600000001,"endTime":8.37683305,"instrument":2,"program":0,"isDrum":false},{"pitch":39,"velocity":77,"startTime":9.11082195,"endTime":9.1379155,"instrument":2,"program":0,"isDrum":false},{"pitch":61,"velocity":95,"startTime":9.1822504,"endTime":9.32757035,"instrument":2,"program":0,"isDrum":false},{"pitch":58,"velocity":93,"startTime":9.18471345,"endTime":9.31771815,"instrument":2,"program":0,"isDrum":false},{"pitch":67,"velocity":128,"startTime":0.23398975,"endTime":0.344827,"instrument":3,"program":0,"isDrum":false},{"pitch":64,"velocity":128,"startTime":0.33497479999999996,"endTime":0.5073883,"instrument":3,"program":0,"isDrum":false},{"pitch":65,"velocity":128,"startTime":0.5024622,"endTime":0.7068953499999999,"instrument":3,"program":0,"isDrum":false},{"pitch":67,"velocity":113,"startTime":0.6970431500000001,"endTime":0.7807868499999999,"instrument":3,"program":0,"isDrum":false},{"pitch":69,"velocity":121,"startTime":0.7906390499999999,"endTime":0.8768458,"instrument":3,"program":0,"isDrum":false},{"pitch":71,"velocity":128,"startTime":0.8916240999999999,"endTime":1.0689637,"instrument":3,"program":0,"isDrum":false},{"pitch":72,"velocity":128,"startTime":1.0886681,"endTime":1.280786,"instrument":3,"program":0,"isDrum":false},{"pitch":74,"velocity":128,"startTime":1.28324905,"endTime":1.3842341,"instrument":3,"program":0,"isDrum":false},{"pitch":72,"velocity":126,"startTime":1.37684495,"endTime":1.4975344,"instrument":3,"program":0,"isDrum":false},{"pitch":71,"velocity":128,"startTime":1.48029305,"endTime":2.2019667,"instrument":3,"program":0,"isDrum":false},{"pitch":70,"velocity":128,"startTime":2.3694541,"endTime":2.5418676,"instrument":3,"program":0,"isDrum":false},{"pitch":68,"velocity":128,"startTime":2.6674831500000002,"endTime":2.76600515,"instrument":3,"program":0,"isDrum":false},{"pitch":70,"velocity":128,"startTime":2.77093125,"endTime":2.87930545,"instrument":3,"program":0,"isDrum":false},{"pitch":68,"velocity":128,"startTime":2.8620641,"endTime":2.95566,"instrument":3,"program":0,"isDrum":false},{"pitch":67,"velocity":128,"startTime":2.9630491500000002,"endTime":3.1625561999999996,"instrument":3,"program":0,"isDrum":false},{"pitch":65,"velocity":128,"startTime":3.1896497499999996,"endTime":3.43595475,"instrument":3,"program":0,"isDrum":false},{"pitch":72,"velocity":128,"startTime":4.33250495,"endTime":4.39654425,"instrument":3,"program":0,"isDrum":false},{"pitch":71,"velocity":128,"startTime":4.38669205,"endTime":4.5024554,"instrument":3,"program":0,"isDrum":false},{"pitch":70,"velocity":128,"startTime":4.48521405,"endTime":4.58373605,"instrument":3,"program":0,"isDrum":false},{"pitch":68,"velocity":128,"startTime":4.62807095,"endTime":4.73151905,"instrument":3,"program":0,"isDrum":false},{"pitch":67,"velocity":128,"startTime":4.7389082,"endTime":4.9408783,"instrument":3,"program":0,"isDrum":false},{"pitch":69,"velocity":128,"startTime":5.25861175,"endTime":5.44087745,"instrument":3,"program":0,"isDrum":false},{"pitch":71,"velocity":128,"startTime":5.55417775,"endTime":5.7019607500000005,"instrument":3,"program":0,"isDrum":false},{"pitch":72,"velocity":128,"startTime":5.8226502,"endTime":5.9063939,"instrument":3,"program":0,"isDrum":false},{"pitch":74,"velocity":128,"startTime":5.91378305,"endTime":6.088659600000001,"instrument":3,"program":0,"isDrum":false},{"pitch":72,"velocity":125,"startTime":6.11082705,"endTime":6.18471855,"instrument":3,"program":0,"isDrum":false},{"pitch":74,"velocity":128,"startTime":6.20442295,"endTime":6.3645212,"instrument":3,"program":0,"isDrum":false},{"pitch":72,"velocity":128,"startTime":6.3940778,"endTime":6.54432385,"instrument":3,"program":0,"isDrum":false},{"pitch":71,"velocity":128,"startTime":6.50491505,"endTime":6.7389048,"instrument":3,"program":0,"isDrum":false},{"pitch":69,"velocity":128,"startTime":6.7093482,"endTime":6.83496375,"instrument":3,"program":0,"isDrum":false},{"pitch":66,"velocity":128,"startTime":7.03200775,"endTime":7.3300368,"instrument":3,"program":0,"isDrum":false},{"pitch":67,"velocity":119,"startTime":7.2807758,"endTime":7.38668695,"instrument":3,"program":0,"isDrum":false},{"pitch":68,"velocity":119,"startTime":7.3448151,"endTime":7.39161305,"instrument":3,"program":0,"isDrum":false},{"pitch":69,"velocity":128,"startTime":7.3768347499999996,"endTime":7.58865705,"instrument":3,"program":0,"isDrum":false},{"pitch":66,"velocity":128,"startTime":7.5911201,"endTime":7.8916122,"instrument":3,"program":0,"isDrum":false},{"pitch":67,"velocity":121,"startTime":7.8694447499999995,"endTime":7.98767115,"instrument":3,"program":0,"isDrum":false},{"pitch":68,"velocity":119,"startTime":7.9211688,"endTime":7.99259725,"instrument":3,"program":0,"isDrum":false},{"pitch":69,"velocity":128,"startTime":7.97289285,"endTime":8.16993685,"instrument":3,"program":0,"isDrum":false},{"pitch":65,"velocity":128,"startTime":8.17978905,"endTime":8.5517096,"instrument":3,"program":0,"isDrum":false},{"pitch":66,"velocity":108,"startTime":8.51968995,"endTime":8.60835975,"instrument":3,"program":0,"isDrum":false},{"pitch":67,"velocity":128,"startTime":8.5270791,"endTime":8.60835975,"instrument":3,"program":0,"isDrum":false},{"pitch":68,"velocity":128,"startTime":8.578803149999999,"endTime":8.80047765,"instrument":3,"program":0,"isDrum":false},{"pitch":65,"velocity":128,"startTime":8.81032985,"endTime":9.1576199,"instrument":3,"program":0,"isDrum":false},{"pitch":66,"velocity":126,"startTime":9.108358899999999,"endTime":9.19949175,"instrument":3,"program":0,"isDrum":false},{"pitch":67,"velocity":128,"startTime":9.155156850000001,"endTime":9.2265853,"instrument":3,"program":0,"isDrum":false},{"pitch":68,"velocity":128,"startTime":9.19949175,"endTime":9.35959,"instrument":3,"program":0,"isDrum":false},{"pitch":67,"velocity":128,"startTime":9.40146185,"endTime":9.458112,"instrument":3,"program":0,"isDrum":false},{"pitch":42,"velocity":88,"startTime":0.295566,"endTime":0.3201965,"instrument":6,"program":0,"isDrum":true},{"pitch":42,"velocity":90,"startTime":0.886698,"endTime":0.9113285,"instrument":6,"program":0,"isDrum":true},{"pitch":42,"velocity":88,"startTime":1.47783,"endTime":1.5024605,"instrument":6,"program":0,"isDrum":true},{"pitch":42,"velocity":90,"startTime":2.068962,"endTime":2.0935924999999997,"instrument":6,"program":0,"isDrum":true},{"pitch":42,"velocity":90,"startTime":2.660094,"endTime":2.6847245,"instrument":6,"program":0,"isDrum":true},{"pitch":42,"velocity":91,"startTime":3.251226,"endTime":3.2758565,"instrument":6,"program":0,"isDrum":true},{"pitch":42,"velocity":91,"startTime":3.842358,"endTime":3.8669885,"instrument":6,"program":0,"isDrum":true},{"pitch":42,"velocity":89,"startTime":4.43349,"endTime":4.4581205,"instrument":6,"program":0,"isDrum":true},{"pitch":42,"velocity":89,"startTime":5.024622,"endTime":5.0492525,"instrument":6,"program":0,"isDrum":true},{"pitch":42,"velocity":89,"startTime":5.615754,"endTime":5.6403845,"instrument":6,"program":0,"isDrum":true},{"pitch":42,"velocity":90,"startTime":6.206886,"endTime":6.2315165,"instrument":6,"program":0,"isDrum":true},{"pitch":42,"velocity":89,"startTime":6.798018,"endTime":6.8226485,"instrument":6,"program":0,"isDrum":true},{"pitch":42,"velocity":89,"startTime":7.38915,"endTime":7.4137805,"instrument":6,"program":0,"isDrum":true},{"pitch":42,"velocity":89,"startTime":7.980282,"endTime":8.0049125,"instrument":6,"program":0,"isDrum":true},{"pitch":42,"velocity":90,"startTime":8.571414,"endTime":8.5960445,"instrument":6,"program":0,"isDrum":true},{"pitch":42,"velocity":89,"startTime":9.162545999999999,"endTime":9.1871765,"instrument":6,"program":0,"isDrum":true},{"pitch":59,"velocity":64,"startTime":0,"endTime":0.0246305,"instrument":7,"program":0,"isDrum":true},{"pitch":59,"velocity":44,"startTime":0.295566,"endTime":0.3201965,"instrument":7,"program":0,"isDrum":true},{"pitch":59,"velocity":43,"startTime":0.591132,"endTime":0.6157625,"instrument":7,"program":0,"isDrum":true},{"pitch":59,"velocity":64,"startTime":0.886698,"endTime":0.9113285,"instrument":7,"program":0,"isDrum":true},{"pitch":59,"velocity":45,"startTime":1.083742,"endTime":1.1083725,"instrument":7,"program":0,"isDrum":true},{"pitch":59,"velocity":65,"startTime":1.182264,"endTime":1.2068945,"instrument":7,"program":0,"isDrum":true},{"pitch":59,"velocity":45,"startTime":1.47783,"endTime":1.5024605,"instrument":7,"program":0,"isDrum":true},{"pitch":59,"velocity":44,"startTime":1.773396,"endTime":1.7980265,"instrument":7,"program":0,"isDrum":true},{"pitch":59,"velocity":63,"startTime":2.068962,"endTime":2.0935924999999997,"instrument":7,"program":0,"isDrum":true},{"pitch":59,"velocity":43,"startTime":2.266006,"endTime":2.2906364999999997,"instrument":7,"program":0,"isDrum":true},{"pitch":59,"velocity":64,"startTime":2.364528,"endTime":2.3891585,"instrument":7,"program":0,"isDrum":true},{"pitch":59,"velocity":44,"startTime":2.660094,"endTime":2.6847245,"instrument":7,"program":0,"isDrum":true},{"pitch":59,"velocity":43,"startTime":2.95566,"endTime":2.9802905,"instrument":7,"program":0,"isDrum":true},{"pitch":59,"velocity":64,"startTime":3.251226,"endTime":3.2758565,"instrument":7,"program":0,"isDrum":true},{"pitch":59,"velocity":45,"startTime":3.44827,"endTime":3.4729004999999997,"instrument":7,"program":0,"isDrum":true},{"pitch":59,"velocity":65,"startTime":3.546792,"endTime":3.5714225,"instrument":7,"program":0,"isDrum":true},{"pitch":59,"velocity":45,"startTime":3.842358,"endTime":3.8669885,"instrument":7,"program":0,"isDrum":true},{"pitch":59,"velocity":44,"startTime":4.137924,"endTime":4.1625545,"instrument":7,"program":0,"isDrum":true},{"pitch":59,"velocity":63,"startTime":4.43349,"endTime":4.4581205,"instrument":7,"program":0,"isDrum":true},{"pitch":59,"velocity":43,"startTime":4.630534,"endTime":4.6551645,"instrument":7,"program":0,"isDrum":true},{"pitch":59,"velocity":63,"startTime":4.729056,"endTime":4.7536865,"instrument":7,"program":0,"isDrum":true},{"pitch":59,"velocity":44,"startTime":5.024622,"endTime":5.0492525,"instrument":7,"program":0,"isDrum":true},{"pitch":59,"velocity":43,"startTime":5.320188,"endTime":5.3448185,"instrument":7,"program":0,"isDrum":true},{"pitch":59,"velocity":63,"startTime":5.615754,"endTime":5.6403845,"instrument":7,"program":0,"isDrum":true},{"pitch":59,"velocity":46,"startTime":5.812798,"endTime":5.8374285,"instrument":7,"program":0,"isDrum":true},{"pitch":59,"velocity":64,"startTime":5.91132,"endTime":5.9359505,"instrument":7,"program":0,"isDrum":true},{"pitch":59,"velocity":45,"startTime":6.206886,"endTime":6.2315165,"instrument":7,"program":0,"isDrum":true},{"pitch":59,"velocity":46,"startTime":6.502452,"endTime":6.5270825,"instrument":7,"program":0,"isDrum":true},{"pitch":59,"velocity":66,"startTime":6.798018,"endTime":6.8226485,"instrument":7,"program":0,"isDrum":true},{"pitch":59,"velocity":45,"startTime":6.995062,"endTime":7.0196925,"instrument":7,"program":0,"isDrum":true},{"pitch":59,"velocity":65,"startTime":7.093584,"endTime":7.1182145,"instrument":7,"program":0,"isDrum":true},{"pitch":59,"velocity":45,"startTime":7.38915,"endTime":7.4137805,"instrument":7,"program":0,"isDrum":true},{"pitch":59,"velocity":43,"startTime":7.684716,"endTime":7.7093465,"instrument":7,"program":0,"isDrum":true},{"pitch":59,"velocity":66,"startTime":7.980282,"endTime":8.0049125,"instrument":7,"program":0,"isDrum":true},{"pitch":59,"velocity":46,"startTime":8.177326,"endTime":8.2019565,"instrument":7,"program":0,"isDrum":true},{"pitch":59,"velocity":63,"startTime":8.275848,"endTime":8.300478499999999,"instrument":7,"program":0,"isDrum":true},{"pitch":59,"velocity":43,"startTime":8.571414,"endTime":8.5960445,"instrument":7,"program":0,"isDrum":true},{"pitch":59,"velocity":46,"startTime":8.86698,"endTime":8.891610499999999,"instrument":7,"program":0,"isDrum":true},{"pitch":59,"velocity":64,"startTime":9.162545999999999,"endTime":9.1871765,"instrument":7,"program":0,"isDrum":true},{"pitch":59,"velocity":43,"startTime":9.35959,"endTime":9.3842205,"instrument":7,"program":0,"isDrum":true},{"pitch":59,"velocity":65,"startTime":9.458112,"endTime":9.458112,"instrument":7,"program":0,"isDrum":true}],"totalTime":9.458112,"sourceInfo":{"encodingType":"MIDI","parser":"TONEJS_MIDI_CONVERT"}},"sequence":{"filename":"halfn.mid","ticksPerQuarter":120,"timeSignatures":[{"time":0,"numerator":4,"denominator":4}],"tempos":[{"time":0,"qpm":203.00034510058669}],"notes":[{"pitch":36,"velocity":105,"startTime":0,"endTime":0.16502435000000001,"instrument":0,"program":32,"isDrum":false},{"pitch":36,"velocity":117,"startTime":0.21921145,"endTime":0.2906399,"instrument":0,"program":32,"isDrum":false},{"pitch":37,"velocity":98,"startTime":0.295566,"endTime":0.591132,"instrument":0,"program":32,"isDrum":false},{"pitch":38,"velocity":110,"startTime":0.591132,"endTime":0.7487672,"instrument":0,"program":32,"isDrum":false},{"pitch":38,"velocity":103,"startTime":0.81034345,"endTime":0.8965502,"instrument":0,"program":32,"isDrum":false},{"pitch":45,"velocity":96,"startTime":0.886698,"endTime":1.182264,"instrument":0,"program":32,"isDrum":false},{"pitch":36,"velocity":101,"startTime":1.182264,"endTime":1.527091,"instrument":0,"program":32,"isDrum":false},{"pitch":38,"velocity":103,"startTime":1.47783,"endTime":1.80048955,"instrument":0,"program":32,"isDrum":false},{"pitch":40,"velocity":98,"startTime":1.773396,"endTime":2.118223,"instrument":0,"program":32,"isDrum":false},{"pitch":43,"velocity":99,"startTime":2.068962,"endTime":2.364528,"instrument":0,"program":32,"isDrum":false},{"pitch":41,"velocity":109,"startTime":2.364528,"endTime":2.64777875,"instrument":0,"program":32,"isDrum":false},{"pitch":36,"velocity":85,"startTime":2.58373945,"endTime":2.63300045,"instrument":0,"program":32,"isDrum":false},{"pitch":48,"velocity":102,"startTime":2.660094,"endTime":2.87930545,"instrument":0,"program":32,"isDrum":false},{"pitch":36,"velocity":87,"startTime":2.87930545,"endTime":2.9211772999999996,"instrument":0,"program":32,"isDrum":false},{"pitch":34,"velocity":104,"startTime":2.95566,"endTime":3.3054131,"instrument":0,"program":32,"isDrum":false},{"pitch":41,"velocity":103,"startTime":3.251226,"endTime":3.546792,"instrument":0,"program":32,"isDrum":false},{"pitch":41,"velocity":116,"startTime":3.546792,"endTime":3.842358,"instrument":0,"program":32,"isDrum":false},{"pitch":41,"velocity":123,"startTime":3.842358,"endTime":4.137924,"instrument":0,"program":32,"isDrum":false},{"pitch":34,"velocity":116,"startTime":4.137924,"endTime":4.43349,"instrument":0,"program":32,"isDrum":false},{"pitch":34,"velocity":123,"startTime":4.43349,"endTime":4.729056,"instrument":0,"program":32,"isDrum":false},{"pitch":36,"velocity":121,"startTime":4.729056,"endTime":4.95319355,"instrument":0,"program":32,"isDrum":false},{"pitch":24,"velocity":114,"startTime":4.94826745,"endTime":5.024622,"instrument":0,"program":32,"isDrum":false},{"pitch":36,"velocity":123,"startTime":5.024622,"endTime":5.31772495,"instrument":0,"program":32,"isDrum":false},{"pitch":38,"velocity":95,"startTime":5.320188,"endTime":5.5418625,"instrument":0,"program":32,"isDrum":false},{"pitch":26,"velocity":92,"startTime":5.5418625,"endTime":5.5615669,"instrument":0,"program":32,"isDrum":false},{"pitch":43,"velocity":95,"startTime":5.615754,"endTime":5.8374285,"instrument":0,"program":32,"isDrum":false},{"pitch":31,"velocity":92,"startTime":5.8374285,"endTime":5.8571329,"instrument":0,"program":32,"isDrum":false},{"pitch":36,"velocity":108,"startTime":5.91132,"endTime":6.137920599999999,"instrument":0,"program":32,"isDrum":false},{"pitch":31,"velocity":87,"startTime":6.13053145,"endTime":6.1773294,"instrument":0,"program":32,"isDrum":false},{"pitch":38,"velocity":106,"startTime":6.206886,"endTime":6.49998895,"instrument":0,"program":32,"isDrum":false},{"pitch":40,"velocity":113,"startTime":6.502452,"endTime":6.694569899999999,"instrument":0,"program":32,"isDrum":false},{"pitch":31,"velocity":91,"startTime":6.72166345,"endTime":6.765998349999999,"instrument":0,"program":32,"isDrum":false},{"pitch":43,"velocity":115,"startTime":6.798018,"endTime":7.0689535,"instrument":0,"program":32,"isDrum":false},{"pitch":31,"velocity":84,"startTime":7.01722945,"endTime":7.04185995,"instrument":0,"program":32,"isDrum":false},{"pitch":35,"velocity":110,"startTime":7.093584,"endTime":7.2512192,"instrument":0,"program":32,"isDrum":false},{"pitch":35,"velocity":103,"startTime":7.31279545,"endTime":7.3990022,"instrument":0,"program":32,"isDrum":false},{"pitch":42,"velocity":96,"startTime":7.38915,"endTime":7.684716,"instrument":0,"program":32,"isDrum":false},{"pitch":40,"velocity":109,"startTime":7.684716,"endTime":7.9679667499999995,"instrument":0,"program":32,"isDrum":false},{"pitch":35,"velocity":85,"startTime":7.90392745,"endTime":7.953188450000001,"instrument":0,"program":32,"isDrum":false},{"pitch":47,"velocity":102,"startTime":7.980282,"endTime":8.19949345,"instrument":0,"program":32,"isDrum":false},{"pitch":35,"velocity":87,"startTime":8.19949345,"endTime":8.2413653,"instrument":0,"program":32,"isDrum":false},{"pitch":34,"velocity":110,"startTime":8.275848,"endTime":8.5418574,"instrument":0,"program":32,"isDrum":false},{"pitch":22,"velocity":87,"startTime":8.49505945,"endTime":8.57387705,"instrument":0,"program":32,"isDrum":false},{"pitch":40,"velocity":110,"startTime":8.57387705,"endTime":8.86698,"instrument":0,"program":32,"isDrum":false},{"pitch":39,"velocity":114,"startTime":8.86698,"endTime":9.19949175,"instrument":0,"program":32,"isDrum":false},{"pitch":43,"velocity":111,"startTime":9.162545999999999,"endTime":9.43101845,"instrument":0,"program":32,"isDrum":false},{"pitch":44,"velocity":103,"startTime":9.458112,"endTime":9.458112,"instrument":0,"program":32,"isDrum":false},{"pitch":51,"velocity":97,"startTime":0,"endTime":0.06157625,"instrument":1,"program":0,"isDrum":true},{"pitch":42,"velocity":87,"startTime":0.295566,"endTime":0.35714225,"instrument":1,"program":0,"isDrum":true},{"pitch":51,"velocity":107,"startTime":0.295566,"endTime":0.35714225,"instrument":1,"program":0,"isDrum":true},{"pitch":51,"velocity":77,"startTime":0.51477745,"endTime":0.5763537,"instrument":1,"program":0,"isDrum":true},{"pitch":51,"velocity":97,"startTime":0.591132,"endTime":0.65270825,"instrument":1,"program":0,"isDrum":true},{"pitch":42,"velocity":87,"startTime":0.886698,"endTime":0.94827425,"instrument":1,"program":0,"isDrum":true},{"pitch":37,"velocity":87,"startTime":0.886698,"endTime":0.94827425,"instrument":1,"program":0,"isDrum":true},{"pitch":51,"velocity":107,"startTime":0.886698,"endTime":0.94827425,"instrument":1,"program":0,"isDrum":true},{"pitch":51,"velocity":77,"startTime":1.10590945,"endTime":1.1674857,"instrument":1,"program":0,"isDrum":true},{"pitch":51,"velocity":97,"startTime":1.182264,"endTime":1.2438402499999999,"instrument":1,"program":0,"isDrum":true},{"pitch":42,"velocity":87,"startTime":1.47783,"endTime":1.5394062499999999,"instrument":1,"program":0,"isDrum":true},{"pitch":51,"velocity":107,"startTime":1.47783,"endTime":1.5394062499999999,"instrument":1,"program":0,"isDrum":true},{"pitch":51,"velocity":97,"startTime":1.773396,"endTime":1.8349722499999999,"instrument":1,"program":0,"isDrum":true},{"pitch":42,"velocity":87,"startTime":2.068962,"endTime":2.13053825,"instrument":1,"program":0,"isDrum":true},{"pitch":37,"velocity":87,"startTime":2.068962,"endTime":2.13053825,"instrument":1,"program":0,"isDrum":true},{"pitch":51,"velocity":107,"startTime":2.068962,"endTime":2.13053825,"instrument":1,"program":0,"isDrum":true},{"pitch":51,"velocity":97,"startTime":2.364528,"endTime":2.4261042500000003,"instrument":1,"program":0,"isDrum":true},{"pitch":42,"velocity":87,"startTime":2.660094,"endTime":2.7216702500000003,"instrument":1,"program":0,"isDrum":true},{"pitch":51,"velocity":107,"startTime":2.660094,"endTime":2.7216702500000003,"instrument":1,"program":0,"isDrum":true},{"pitch":51,"velocity":77,"startTime":2.87930545,"endTime":2.9408817,"instrument":1,"program":0,"isDrum":true},{"pitch":51,"velocity":97,"startTime":2.95566,"endTime":3.0172362500000003,"instrument":1,"program":0,"isDrum":true},{"pitch":42,"velocity":87,"startTime":3.251226,"endTime":3.3128022500000003,"instrument":1,"program":0,"isDrum":true},{"pitch":37,"velocity":87,"startTime":3.251226,"endTime":3.3128022500000003,"instrument":1,"program":0,"isDrum":true},{"pitch":51,"velocity":107,"startTime":3.251226,"endTime":3.3128022500000003,"instrument":1,"program":0,"isDrum":true},{"pitch":51,"velocity":77,"startTime":3.47043745,"endTime":3.5320137,"instrument":1,"program":0,"isDrum":true},{"pitch":51,"velocity":97,"startTime":3.546792,"endTime":3.6083682500000003,"instrument":1,"program":0,"isDrum":true},{"pitch":42,"velocity":87,"startTime":3.842358,"endTime":3.9039342500000003,"instrument":1,"program":0,"isDrum":true},{"pitch":51,"velocity":107,"startTime":3.842358,"endTime":3.9039342500000003,"instrument":1,"program":0,"isDrum":true},{"pitch":51,"velocity":97,"startTime":4.137924,"endTime":4.19950025,"instrument":1,"program":0,"isDrum":true},{"pitch":42,"velocity":87,"startTime":4.43349,"endTime":4.49506625,"instrument":1,"program":0,"isDrum":true},{"pitch":37,"velocity":87,"startTime":4.43349,"endTime":4.49506625,"instrument":1,"program":0,"isDrum":true},{"pitch":51,"velocity":107,"startTime":4.43349,"endTime":4.49506625,"instrument":1,"program":0,"isDrum":true},{"pitch":51,"velocity":97,"startTime":4.729056,"endTime":4.79063225,"instrument":1,"program":0,"isDrum":true},{"pitch":42,"velocity":87,"startTime":5.024622,"endTime":5.08619825,"instrument":1,"program":0,"isDrum":true},{"pitch":51,"velocity":117,"startTime":5.024622,"endTime":5.08619825,"instrument":1,"program":0,"isDrum":true},{"pitch":51,"velocity":97,"startTime":5.320188,"endTime":5.38176425,"instrument":1,"program":0,"isDrum":true},{"pitch":42,"velocity":87,"startTime":5.615754,"endTime":5.67733025,"instrument":1,"program":0,"isDrum":true},{"pitch":37,"velocity":87,"startTime":5.615754,"endTime":5.67733025,"instrument":1,"program":0,"isDrum":true},{"pitch":51,"velocity":117,"startTime":5.615754,"endTime":5.67733025,"instrument":1,"program":0,"isDrum":true},{"pitch":51,"velocity":97,"startTime":5.91132,"endTime":5.97289625,"instrument":1,"program":0,"isDrum":true},{"pitch":42,"velocity":87,"startTime":6.206886,"endTime":6.26846225,"instrument":1,"program":0,"isDrum":true},{"pitch":51,"velocity":117,"startTime":6.206886,"endTime":6.26846225,"instrument":1,"program":0,"isDrum":true},{"pitch":51,"velocity":97,"startTime":6.502452,"endTime":6.56402825,"instrument":1,"program":0,"isDrum":true},{"pitch":42,"velocity":87,"startTime":6.798018,"endTime":6.85959425,"instrument":1,"program":0,"isDrum":true},{"pitch":37,"velocity":87,"startTime":6.798018,"endTime":6.85959425,"instrument":1,"program":0,"isDrum":true},{"pitch":51,"velocity":117,"startTime":6.798018,"endTime":6.85959425,"instrument":1,"program":0,"isDrum":true},{"pitch":51,"velocity":97,"startTime":7.093584,"endTime":7.15516025,"instrument":1,"program":0,"isDrum":true},{"pitch":42,"velocity":87,"startTime":7.38915,"endTime":7.45072625,"instrument":1,"program":0,"isDrum":true},{"pitch":51,"velocity":117,"startTime":7.38915,"endTime":7.45072625,"instrument":1,"program":0,"isDrum":true},{"pitch":51,"velocity":97,"startTime":7.684716,"endTime":7.74629225,"instrument":1,"program":0,"isDrum":true},{"pitch":42,"velocity":87,"startTime":7.980282,"endTime":8.041858249999999,"instrument":1,"program":0,"isDrum":true},{"pitch":37,"velocity":87,"startTime":7.980282,"endTime":8.041858249999999,"instrument":1,"program":0,"isDrum":true},{"pitch":51,"velocity":117,"startTime":7.980282,"endTime":8.041858249999999,"instrument":1,"program":0,"isDrum":true},{"pitch":51,"velocity":97,"startTime":8.275848,"endTime":8.33742425,"instrument":1,"program":0,"isDrum":true},{"pitch":42,"velocity":87,"startTime":8.571414,"endTime":8.632990249999999,"instrument":1,"program":0,"isDrum":true},{"pitch":51,"velocity":107,"startTime":8.571414,"endTime":8.632990249999999,"instrument":1,"program":0,"isDrum":true},{"pitch":51,"velocity":97,"startTime":8.86698,"endTime":8.92855625,"instrument":1,"program":0,"isDrum":true},{"pitch":42,"velocity":87,"startTime":9.162545999999999,"endTime":9.224122249999999,"instrument":1,"program":0,"isDrum":true},{"pitch":37,"velocity":87,"startTime":9.162545999999999,"endTime":9.224122249999999,"instrument":1,"program":0,"isDrum":true},{"pitch":51,"velocity":107,"startTime":9.162545999999999,"endTime":9.224122249999999,"instrument":1,"program":0,"isDrum":true},{"pitch":51,"velocity":97,"startTime":9.458112,"endTime":9.458112,"instrument":1,"program":0,"isDrum":true},{"pitch":74,"velocity":74,"startTime":0.20935925,"endTime":0.591132,"instrument":2,"program":0,"isDrum":false},{"pitch":59,"velocity":57,"startTime":0.22413755,"endTime":0.591132,"instrument":2,"program":0,"isDrum":false},{"pitch":64,"velocity":54,"startTime":0.22413755,"endTime":0.591132,"instrument":2,"program":0,"isDrum":false},{"pitch":71,"velocity":59,"startTime":0.23645280000000002,"endTime":0.591132,"instrument":2,"program":0,"isDrum":false},{"pitch":67,"velocity":57,"startTime":0.25615720000000003,"endTime":0.591132,"instrument":2,"program":0,"isDrum":false},{"pitch":65,"velocity":47,"startTime":0.6157625,"endTime":0.6822648499999999,"instrument":2,"program":0,"isDrum":false},{"pitch":50,"velocity":41,"startTime":0.61822555,"endTime":0.6945801,"instrument":2,"program":0,"isDrum":false},{"pitch":64,"velocity":49,"startTime":0.61822555,"endTime":0.6699495999999999,"instrument":2,"program":0,"isDrum":false},{"pitch":60,"velocity":43,"startTime":0.6206886,"endTime":0.69211705,"instrument":2,"program":0,"isDrum":false},{"pitch":36,"velocity":50,"startTime":1.1921161999999998,"endTime":1.2733968500000001,"instrument":2,"program":0,"isDrum":false},{"pitch":59,"velocity":67,"startTime":1.1970423,"endTime":1.25861855,"instrument":2,"program":0,"isDrum":false},{"pitch":52,"velocity":54,"startTime":1.1970423,"endTime":1.2733968500000001,"instrument":2,"program":0,"isDrum":false},{"pitch":55,"velocity":51,"startTime":1.1970423,"endTime":1.2733968500000001,"instrument":2,"program":0,"isDrum":false},{"pitch":59,"velocity":59,"startTime":1.77093295,"endTime":1.8842332499999999,"instrument":2,"program":0,"isDrum":false},{"pitch":67,"velocity":54,"startTime":1.7783221,"endTime":1.87438105,"instrument":2,"program":0,"isDrum":false},{"pitch":48,"velocity":56,"startTime":1.78078515,"endTime":1.8965485,"instrument":2,"program":0,"isDrum":false},{"pitch":64,"velocity":54,"startTime":1.78078515,"endTime":1.8817701999999998,"instrument":2,"program":0,"isDrum":false},{"pitch":63,"velocity":46,"startTime":2.40147375,"endTime":2.4827544,"instrument":2,"program":0,"isDrum":false},{"pitch":60,"velocity":60,"startTime":2.40147375,"endTime":2.4729022,"instrument":2,"program":0,"isDrum":false},{"pitch":56,"velocity":52,"startTime":2.4039368,"endTime":2.4827544,"instrument":2,"program":0,"isDrum":false},{"pitch":67,"velocity":47,"startTime":2.4113259499999997,"endTime":2.4827544,"instrument":2,"program":0,"isDrum":false},{"pitch":41,"velocity":76,"startTime":2.68718755,"endTime":2.8103400499999998,"instrument":2,"program":0,"isDrum":false},{"pitch":65,"velocity":77,"startTime":3.17979755,"endTime":3.23398465,"instrument":2,"program":0,"isDrum":false},{"pitch":60,"velocity":68,"startTime":3.1822606,"endTime":3.22413245,"instrument":2,"program":0,"isDrum":false},{"pitch":50,"velocity":67,"startTime":3.18472365,"endTime":3.2315216,"instrument":2,"program":0,"isDrum":false},{"pitch":56,"velocity":42,"startTime":3.1921128000000003,"endTime":3.22413245,"instrument":2,"program":0,"isDrum":false},{"pitch":56,"velocity":52,"startTime":3.5541811500000002,"endTime":3.9162495,"instrument":2,"program":0,"isDrum":false},{"pitch":53,"velocity":54,"startTime":3.5541811500000002,"endTime":3.96797355,"instrument":2,"program":0,"isDrum":false},{"pitch":51,"velocity":47,"startTime":3.5566442,"endTime":3.9359539,"instrument":2,"program":0,"isDrum":false},{"pitch":41,"velocity":46,"startTime":3.55910725,"endTime":4.00738235,"instrument":2,"program":0,"isDrum":false},{"pitch":40,"velocity":62,"startTime":4.0935891,"endTime":4.137924,"instrument":2,"program":0,"isDrum":false},{"pitch":72,"velocity":74,"startTime":4.34728325,"endTime":4.64284925,"instrument":2,"program":0,"isDrum":false},{"pitch":56,"velocity":57,"startTime":4.36206155,"endTime":4.64284925,"instrument":2,"program":0,"isDrum":false},{"pitch":62,"velocity":54,"startTime":4.36206155,"endTime":4.64284925,"instrument":2,"program":0,"isDrum":false},{"pitch":68,"velocity":59,"startTime":4.3743768,"endTime":4.64284925,"instrument":2,"program":0,"isDrum":false},{"pitch":65,"velocity":57,"startTime":4.3940812000000005,"endTime":4.64284925,"instrument":2,"program":0,"isDrum":false},{"pitch":74,"velocity":74,"startTime":4.938415249999999,"endTime":5.233981249999999,"instrument":2,"program":0,"isDrum":false},{"pitch":59,"velocity":57,"startTime":4.95319355,"endTime":5.233981249999999,"instrument":2,"program":0,"isDrum":false},{"pitch":64,"velocity":54,"startTime":4.95319355,"endTime":5.233981249999999,"instrument":2,"program":0,"isDrum":false},{"pitch":71,"velocity":59,"startTime":4.9655088,"endTime":5.233981249999999,"instrument":2,"program":0,"isDrum":false},{"pitch":67,"velocity":57,"startTime":4.9852132000000005,"endTime":5.233981249999999,"instrument":2,"program":0,"isDrum":false},{"pitch":64,"velocity":58,"startTime":5.2709269999999995,"endTime":5.41132085,"instrument":2,"program":0,"isDrum":false},{"pitch":53,"velocity":50,"startTime":5.27339005,"endTime":5.421173049999999,"instrument":2,"program":0,"isDrum":false},{"pitch":60,"velocity":56,"startTime":5.2758531,"endTime":5.421173049999999,"instrument":2,"program":0,"isDrum":false},{"pitch":69,"velocity":61,"startTime":5.27831615,"endTime":5.4334883,"instrument":2,"program":0,"isDrum":false},{"pitch":65,"velocity":47,"startTime":5.6403845,"endTime":5.70688685,"instrument":2,"program":0,"isDrum":false},{"pitch":43,"velocity":41,"startTime":5.642847549999999,"endTime":5.7192021,"instrument":2,"program":0,"isDrum":false},{"pitch":62,"velocity":49,"startTime":5.642847549999999,"endTime":5.6945716,"instrument":2,"program":0,"isDrum":false},{"pitch":59,"velocity":43,"startTime":5.6453106,"endTime":5.716739049999999,"instrument":2,"program":0,"isDrum":false},{"pitch":67,"velocity":77,"startTime":6.13545755,"endTime":6.18964465,"instrument":2,"program":0,"isDrum":false},{"pitch":60,"velocity":68,"startTime":6.137920599999999,"endTime":6.179792450000001,"instrument":2,"program":0,"isDrum":false},{"pitch":52,"velocity":67,"startTime":6.1403836499999995,"endTime":6.1871816,"instrument":2,"program":0,"isDrum":false},{"pitch":59,"velocity":42,"startTime":6.1477728,"endTime":6.179792450000001,"instrument":2,"program":0,"isDrum":false},{"pitch":60,"velocity":61,"startTime":6.5123042,"endTime":6.5714174000000005,"instrument":2,"program":0,"isDrum":false},{"pitch":67,"velocity":59,"startTime":6.51969335,"endTime":6.5788065499999995,"instrument":2,"program":0,"isDrum":false},{"pitch":59,"velocity":61,"startTime":6.51969335,"endTime":6.57388045,"instrument":2,"program":0,"isDrum":false},{"pitch":52,"velocity":59,"startTime":6.5221564,"endTime":6.55910215,"instrument":2,"program":0,"isDrum":false},{"pitch":51,"velocity":55,"startTime":7.024618599999999,"endTime":7.0689535,"instrument":2,"program":0,"isDrum":false},{"pitch":59,"velocity":68,"startTime":7.320184599999999,"endTime":7.38668695,"instrument":2,"program":0,"isDrum":false},{"pitch":54,"velocity":51,"startTime":7.325110700000001,"endTime":7.40639135,"instrument":2,"program":0,"isDrum":false},{"pitch":66,"velocity":66,"startTime":7.32757375,"endTime":7.38668695,"instrument":2,"program":0,"isDrum":false},{"pitch":47,"velocity":52,"startTime":7.34235205,"endTime":7.3940760999999995,"instrument":2,"program":0,"isDrum":false},{"pitch":62,"velocity":63,"startTime":7.4187066,"endTime":7.57880485,"instrument":2,"program":0,"isDrum":false},{"pitch":54,"velocity":55,"startTime":7.63791805,"endTime":7.684716,"instrument":2,"program":0,"isDrum":false},{"pitch":62,"velocity":46,"startTime":7.72166175,"endTime":7.802942399999999,"instrument":2,"program":0,"isDrum":false},{"pitch":61,"velocity":60,"startTime":7.72166175,"endTime":7.7930902,"instrument":2,"program":0,"isDrum":false},{"pitch":56,"velocity":52,"startTime":7.724124799999999,"endTime":7.802942399999999,"instrument":2,"program":0,"isDrum":false},{"pitch":64,"velocity":47,"startTime":7.73151395,"endTime":7.802942399999999,"instrument":2,"program":0,"isDrum":false},{"pitch":40,"velocity":76,"startTime":8.007375549999999,"endTime":8.13052805,"instrument":2,"program":0,"isDrum":false},{"pitch":61,"velocity":47,"startTime":8.300478499999999,"endTime":8.36698085,"instrument":2,"program":0,"isDrum":false},{"pitch":46,"velocity":41,"startTime":8.30294155,"endTime":8.3792961,"instrument":2,"program":0,"isDrum":false},{"pitch":60,"velocity":49,"startTime":8.30294155,"endTime":8.354665599999999,"instrument":2,"program":0,"isDrum":false},{"pitch":56,"velocity":43,"startTime":8.305404600000001,"endTime":8.37683305,"instrument":2,"program":0,"isDrum":false},{"pitch":39,"velocity":77,"startTime":9.11082195,"endTime":9.1379155,"instrument":2,"program":0,"isDrum":false},{"pitch":61,"velocity":95,"startTime":9.1822504,"endTime":9.32757035,"instrument":2,"program":0,"isDrum":false},{"pitch":58,"velocity":93,"startTime":9.18471345,"endTime":9.31771815,"instrument":2,"program":0,"isDrum":false},{"pitch":42,"velocity":88,"startTime":0.295566,"endTime":0.3201965,"instrument":6,"program":0,"isDrum":true},{"pitch":42,"velocity":90,"startTime":0.886698,"endTime":0.9113285,"instrument":6,"program":0,"isDrum":true},{"pitch":42,"velocity":88,"startTime":1.47783,"endTime":1.5024605,"instrument":6,"program":0,"isDrum":true},{"pitch":42,"velocity":90,"startTime":2.068962,"endTime":2.0935924999999997,"instrument":6,"program":0,"isDrum":true},{"pitch":42,"velocity":90,"startTime":2.660094,"endTime":2.6847245,"instrument":6,"program":0,"isDrum":true},{"pitch":42,"velocity":91,"startTime":3.251226,"endTime":3.2758565,"instrument":6,"program":0,"isDrum":true},{"pitch":42,"velocity":91,"startTime":3.842358,"endTime":3.8669885,"instrument":6,"program":0,"isDrum":true},{"pitch":42,"velocity":89,"startTime":4.43349,"endTime":4.4581205,"instrument":6,"program":0,"isDrum":true},{"pitch":42,"velocity":89,"startTime":5.024622,"endTime":5.0492525,"instrument":6,"program":0,"isDrum":true},{"pitch":42,"velocity":89,"startTime":5.615754,"endTime":5.6403845,"instrument":6,"program":0,"isDrum":true},{"pitch":42,"velocity":90,"startTime":6.206886,"endTime":6.2315165,"instrument":6,"program":0,"isDrum":true},{"pitch":42,"velocity":89,"startTime":6.798018,"endTime":6.8226485,"instrument":6,"program":0,"isDrum":true},{"pitch":42,"velocity":89,"startTime":7.38915,"endTime":7.4137805,"instrument":6,"program":0,"isDrum":true},{"pitch":42,"velocity":89,"startTime":7.980282,"endTime":8.0049125,"instrument":6,"program":0,"isDrum":true},{"pitch":42,"velocity":90,"startTime":8.571414,"endTime":8.5960445,"instrument":6,"program":0,"isDrum":true},{"pitch":42,"velocity":89,"startTime":9.162545999999999,"endTime":9.1871765,"instrument":6,"program":0,"isDrum":true},{"pitch":59,"velocity":64,"startTime":0,"endTime":0.0246305,"instrument":7,"program":0,"isDrum":true},{"pitch":59,"velocity":44,"startTime":0.295566,"endTime":0.3201965,"instrument":7,"program":0,"isDrum":true},{"pitch":59,"velocity":43,"startTime":0.591132,"endTime":0.6157625,"instrument":7,"program":0,"isDrum":true},{"pitch":59,"velocity":64,"startTime":0.886698,"endTime":0.9113285,"instrument":7,"program":0,"isDrum":true},{"pitch":59,"velocity":45,"startTime":1.083742,"endTime":1.1083725,"instrument":7,"program":0,"isDrum":true},{"pitch":59,"velocity":65,"startTime":1.182264,"endTime":1.2068945,"instrument":7,"program":0,"isDrum":true},{"pitch":59,"velocity":45,"startTime":1.47783,"endTime":1.5024605,"instrument":7,"program":0,"isDrum":true},{"pitch":59,"velocity":44,"startTime":1.773396,"endTime":1.7980265,"instrument":7,"program":0,"isDrum":true},{"pitch":59,"velocity":63,"startTime":2.068962,"endTime":2.0935924999999997,"instrument":7,"program":0,"isDrum":true},{"pitch":59,"velocity":43,"startTime":2.266006,"endTime":2.2906364999999997,"instrument":7,"program":0,"isDrum":true},{"pitch":59,"velocity":64,"startTime":2.364528,"endTime":2.3891585,"instrument":7,"program":0,"isDrum":true},{"pitch":59,"velocity":44,"startTime":2.660094,"endTime":2.6847245,"instrument":7,"program":0,"isDrum":true},{"pitch":59,"velocity":43,"startTime":2.95566,"endTime":2.9802905,"instrument":7,"program":0,"isDrum":true},{"pitch":59,"velocity":64,"startTime":3.251226,"endTime":3.2758565,"instrument":7,"program":0,"isDrum":true},{"pitch":59,"velocity":45,"startTime":3.44827,"endTime":3.4729004999999997,"instrument":7,"program":0,"isDrum":true},{"pitch":59,"velocity":65,"startTime":3.546792,"endTime":3.5714225,"instrument":7,"program":0,"isDrum":true},{"pitch":59,"velocity":45,"startTime":3.842358,"endTime":3.8669885,"instrument":7,"program":0,"isDrum":true},{"pitch":59,"velocity":44,"startTime":4.137924,"endTime":4.1625545,"instrument":7,"program":0,"isDrum":true},{"pitch":59,"velocity":63,"startTime":4.43349,"endTime":4.4581205,"instrument":7,"program":0,"isDrum":true},{"pitch":59,"velocity":43,"startTime":4.630534,"endTime":4.6551645,"instrument":7,"program":0,"isDrum":true},{"pitch":59,"velocity":63,"startTime":4.729056,"endTime":4.7536865,"instrument":7,"program":0,"isDrum":true},{"pitch":59,"velocity":44,"startTime":5.024622,"endTime":5.0492525,"instrument":7,"program":0,"isDrum":true},{"pitch":59,"velocity":43,"startTime":5.320188,"endTime":5.3448185,"instrument":7,"program":0,"isDrum":true},{"pitch":59,"velocity":63,"startTime":5.615754,"endTime":5.6403845,"instrument":7,"program":0,"isDrum":true},{"pitch":59,"velocity":46,"startTime":5.812798,"endTime":5.8374285,"instrument":7,"program":0,"isDrum":true},{"pitch":59,"velocity":64,"startTime":5.91132,"endTime":5.9359505,"instrument":7,"program":0,"isDrum":true},{"pitch":59,"velocity":45,"startTime":6.206886,"endTime":6.2315165,"instrument":7,"program":0,"isDrum":true},{"pitch":59,"velocity":46,"startTime":6.502452,"endTime":6.5270825,"instrument":7,"program":0,"isDrum":true},{"pitch":59,"velocity":66,"startTime":6.798018,"endTime":6.8226485,"instrument":7,"program":0,"isDrum":true},{"pitch":59,"velocity":45,"startTime":6.995062,"endTime":7.0196925,"instrument":7,"program":0,"isDrum":true},{"pitch":59,"velocity":65,"startTime":7.093584,"endTime":7.1182145,"instrument":7,"program":0,"isDrum":true},{"pitch":59,"velocity":45,"startTime":7.38915,"endTime":7.4137805,"instrument":7,"program":0,"isDrum":true},{"pitch":59,"velocity":43,"startTime":7.684716,"endTime":7.7093465,"instrument":7,"program":0,"isDrum":true},{"pitch":59,"velocity":66,"startTime":7.980282,"endTime":8.0049125,"instrument":7,"program":0,"isDrum":true},{"pitch":59,"velocity":46,"startTime":8.177326,"endTime":8.2019565,"instrument":7,"program":0,"isDrum":true},{"pitch":59,"velocity":63,"startTime":8.275848,"endTime":8.300478499999999,"instrument":7,"program":0,"isDrum":true},{"pitch":59,"velocity":43,"startTime":8.571414,"endTime":8.5960445,"instrument":7,"program":0,"isDrum":true},{"pitch":59,"velocity":46,"startTime":8.86698,"endTime":8.891610499999999,"instrument":7,"program":0,"isDrum":true},{"pitch":59,"velocity":64,"startTime":9.162545999999999,"endTime":9.1871765,"instrument":7,"program":0,"isDrum":true},{"pitch":59,"velocity":43,"startTime":9.35959,"endTime":9.3842205,"instrument":7,"program":0,"isDrum":true},{"pitch":59,"velocity":65,"startTime":9.458112,"endTime":9.458112,"instrument":7,"program":0,"isDrum":true}],"totalTime":9.458112,"sourceInfo":{"encodingType":"MIDI","parser":"TONEJS_MIDI_CONVERT"}},"tempo":203,"selectedInstruments":[0,1,2,5,6,7]},"output":{"trimmedSequence":{"filename":"Ill_Be_Missing_You__halfn.mid","tempos":[{"qpm":203.00034510058669}],"notes":[{"pitch":43,"velocity":57,"endTime":0.098522},{"pitch":59,"velocity":57,"endTime":0.098522},{"pitch":65,"velocity":57,"startTime":0.0246305,"endTime":0.1231525},{"pitch":69,"velocity":57,"startTime":0.0246305,"endTime":0.1231525},{"pitch":43,"velocity":57,"startTime":0.3201965,"endTime":0.3694575},{"pitch":59,"velocity":57,"startTime":0.3201965,"endTime":0.3694575},{"pitch":65,"velocity":57,"startTime":0.3201965,"endTime":0.3694575},{"pitch":69,"velocity":57,"startTime":0.3201965,"endTime":0.394088},{"pitch":43,"velocity":57,"startTime":0.8128065,"endTime":0.8620675},{"pitch":59,"velocity":57,"startTime":0.8128065,"endTime":0.886698},{"pitch":65,"velocity":57,"startTime":0.8128065,"endTime":0.886698},{"pitch":69,"velocity":57,"startTime":0.8128065,"endTime":0.886698},{"pitch":43,"velocity":57,"startTime":1.1083725,"endTime":1.2561555},{"pitch":59,"velocity":57,"startTime":1.1083725,"endTime":1.2561555},{"pitch":64,"velocity":57,"startTime":1.1083725,"endTime":1.2561555},{"pitch":71,"velocity":57,"startTime":1.1083725,"endTime":1.280786},{"pitch":43,"velocity":57,"startTime":1.7980265,"endTime":1.871918},{"pitch":59,"velocity":57,"startTime":1.7980265,"endTime":1.871918},{"pitch":64,"velocity":57,"startTime":1.7980265,"endTime":1.8965485},{"pitch":71,"velocity":57,"startTime":1.7980265,"endTime":1.871918},{"pitch":40,"velocity":57,"startTime":2.561572,"endTime":2.6847244999999997},{"pitch":59,"velocity":57,"startTime":2.561572,"endTime":2.709355},{"pitch":62,"velocity":57,"startTime":2.561572,"endTime":2.709355},{"pitch":69,"velocity":57,"startTime":2.561572,"endTime":2.709355},{"pitch":40,"velocity":57,"startTime":3.1773344999999997,"endTime":3.2758564999999997},{"pitch":59,"velocity":57,"startTime":3.1773344999999997,"endTime":3.300487},{"pitch":62,"velocity":57,"startTime":3.1773344999999997,"endTime":3.300487},{"pitch":66,"velocity":57,"startTime":3.1773344999999997,"endTime":3.300487},{"pitch":40,"velocity":57,"startTime":3.4729004999999997,"endTime":3.5221614999999997},{"pitch":40,"velocity":57,"startTime":3.546792,"endTime":3.6699444999999997},{"pitch":55,"velocity":57,"startTime":3.546792,"endTime":3.645314},{"pitch":59,"velocity":57,"startTime":3.5714224999999997,"endTime":3.645314},{"pitch":62,"velocity":57,"startTime":3.5714224999999997,"endTime":3.645314},{"pitch":47,"velocity":57,"startTime":4.3842289999999995,"endTime":4.43349},{"pitch":59,"velocity":57,"startTime":4.532012,"endTime":4.5566425},{"pitch":62,"velocity":57,"startTime":4.532012,"endTime":4.5812729999999995},{"pitch":48,"velocity":57,"startTime":4.729056,"endTime":4.802947499999999},{"pitch":55,"velocity":57,"startTime":4.753686499999999,"endTime":4.802947499999999},{"pitch":62,"velocity":57,"startTime":4.753686499999999,"endTime":4.827577999999999},{"pitch":48,"velocity":57,"startTime":5.2462965,"endTime":5.320188},{"pitch":55,"velocity":57,"startTime":5.2462965,"endTime":5.320188},{"pitch":60,"velocity":57,"startTime":5.2462965,"endTime":5.3448185},{"pitch":64,"velocity":57,"startTime":5.2462965,"endTime":5.3448185},{"pitch":57,"velocity":57,"startTime":5.8374285,"endTime":6.970431499999999},{"pitch":64,"velocity":57,"startTime":5.8374285,"endTime":6.970431499999999},{"pitch":67,"velocity":57,"startTime":5.8374285,"endTime":6.970431499999999},{"pitch":72,"velocity":57,"startTime":5.8374285,"endTime":6.970431499999999},{"pitch":43,"velocity":57,"startTime":7.0196925,"endTime":8.177325999999999},{"pitch":57,"velocity":57,"startTime":7.0196925,"endTime":8.177325999999999},{"pitch":62,"velocity":57,"startTime":7.0196925,"endTime":8.177325999999999},{"pitch":65,"velocity":57,"startTime":7.0196925,"endTime":8.177325999999999},{"pitch":43,"velocity":57,"startTime":8.2019565,"endTime":9.359589999999999},{"pitch":59,"velocity":57,"startTime":8.2019565,"endTime":9.359589999999999},{"pitch":69,"velocity":57,"startTime":8.2019565,"endTime":9.359589999999999},{"pitch":71,"velocity":57,"startTime":8.2019565,"endTime":9.359589999999999},{"pitch":40,"velocity":57,"startTime":9.3842205,"endTime":9.458112},{"pitch":59,"velocity":57,"startTime":9.3842205,"endTime":9.458112},{"pitch":63,"velocity":57,"startTime":9.3842205,"endTime":9.458112},{"pitch":69,"velocity":57,"startTime":9.3842205,"endTime":9.458112},{"pitch":35,"velocity":80,"endTime":0.049261,"instrument":1,"isDrum":true},{"pitch":44,"velocity":80,"endTime":0.049261,"instrument":1,"isDrum":true},{"pitch":51,"velocity":80,"endTime":0.049261,"instrument":1,"isDrum":true},{"pitch":53,"velocity":80,"endTime":0.049261,"instrument":1,"isDrum":true},{"pitch":51,"velocity":80,"startTime":0.197044,"endTime":0.2709355,"instrument":1,"isDrum":true},{"pitch":44,"velocity":80,"startTime":0.295566,"endTime":0.344827,"instrument":1,"isDrum":true},{"pitch":51,"velocity":80,"startTime":0.295566,"endTime":0.344827,"instrument":1,"isDrum":true},{"pitch":53,"velocity":80,"startTime":0.295566,"endTime":0.344827,"instrument":1,"isDrum":true},{"pitch":51,"velocity":80,"startTime":0.4926099999999999,"endTime":0.5665014999999999,"instrument":1,"isDrum":true},{"pitch":35,"velocity":80,"startTime":0.591132,"endTime":0.640393,"instrument":1,"isDrum":true},{"pitch":44,"velocity":80,"startTime":0.591132,"endTime":0.640393,"instrument":1,"isDrum":true},{"pitch":51,"velocity":80,"startTime":0.591132,"endTime":0.640393,"instrument":1,"isDrum":true},{"pitch":53,"velocity":80,"startTime":0.591132,"endTime":0.640393,"instrument":1,"isDrum":true},{"pitch":51,"velocity":80,"startTime":0.788176,"endTime":0.8620675,"instrument":1,"isDrum":true},{"pitch":38,"velocity":80,"startTime":0.886698,"endTime":0.935959,"instrument":1,"isDrum":true},{"pitch":44,"velocity":80,"startTime":0.886698,"endTime":0.935959,"instrument":1,"isDrum":true},{"pitch":51,"velocity":80,"startTime":0.886698,"endTime":0.935959,"instrument":1,"isDrum":true},{"pitch":53,"velocity":80,"startTime":0.886698,"endTime":0.935959,"instrument":1,"isDrum":true},{"pitch":51,"velocity":80,"startTime":1.083742,"endTime":1.1576335,"instrument":1,"isDrum":true},{"pitch":44,"velocity":80,"startTime":1.182264,"endTime":1.231525,"instrument":1,"isDrum":true},{"pitch":51,"velocity":80,"startTime":1.182264,"endTime":1.231525,"instrument":1,"isDrum":true},{"pitch":53,"velocity":80,"startTime":1.182264,"endTime":1.231525,"instrument":1,"isDrum":true},{"pitch":51,"velocity":80,"startTime":1.379308,"endTime":1.4531995,"instrument":1,"isDrum":true},{"pitch":44,"velocity":80,"startTime":1.47783,"endTime":1.527091,"instrument":1,"isDrum":true},{"pitch":51,"velocity":80,"startTime":1.47783,"endTime":1.527091,"instrument":1,"isDrum":true},{"pitch":53,"velocity":80,"startTime":1.47783,"endTime":1.527091,"instrument":1,"isDrum":true},{"pitch":51,"velocity":80,"startTime":1.674874,"endTime":1.7487655,"instrument":1,"isDrum":true},{"pitch":35,"velocity":80,"startTime":1.773396,"endTime":1.822657,"instrument":1,"isDrum":true},{"pitch":44,"velocity":80,"startTime":1.773396,"endTime":1.822657,"instrument":1,"isDrum":true},{"pitch":51,"velocity":80,"startTime":1.773396,"endTime":1.822657,"instrument":1,"isDrum":true},{"pitch":53,"velocity":80,"startTime":1.773396,"endTime":1.822657,"instrument":1,"isDrum":true},{"pitch":51,"velocity":80,"startTime":1.97044,"endTime":2.0443314999999997,"instrument":1,"isDrum":true},{"pitch":38,"velocity":80,"startTime":2.068962,"endTime":2.118223,"instrument":1,"isDrum":true},{"pitch":44,"velocity":80,"startTime":2.068962,"endTime":2.118223,"instrument":1,"isDrum":true},{"pitch":51,"velocity":80,"startTime":2.068962,"endTime":2.118223,"instrument":1,"isDrum":true},{"pitch":53,"velocity":80,"startTime":2.068962,"endTime":2.118223,"instrument":1,"isDrum":true},{"pitch":35,"velocity":80,"startTime":2.266006,"endTime":2.3398974999999997,"instrument":1,"isDrum":true},{"pitch":51,"velocity":80,"startTime":2.266006,"endTime":2.3398974999999997,"instrument":1,"isDrum":true},{"pitch":44,"velocity":80,"startTime":2.364528,"endTime":2.4137889999999995,"instrument":1,"isDrum":true},{"pitch":51,"velocity":80,"startTime":2.364528,"endTime":2.4137889999999995,"instrument":1,"isDrum":true},{"pitch":53,"velocity":80,"startTime":2.364528,"endTime":2.4137889999999995,"instrument":1,"isDrum":true},{"pitch":35,"velocity":80,"startTime":2.561572,"endTime":2.6354634999999997,"instrument":1,"isDrum":true},{"pitch":51,"velocity":80,"startTime":2.561572,"endTime":2.6354634999999997,"instrument":1,"isDrum":true},{"pitch":38,"velocity":80,"startTime":2.660094,"endTime":2.6847244999999997,"instrument":1,"isDrum":true},{"pitch":44,"velocity":80,"startTime":2.660094,"endTime":2.6847244999999997,"instrument":1,"isDrum":true},{"pitch":53,"velocity":80,"startTime":2.660094,"endTime":2.6847244999999997,"instrument":1,"isDrum":true},{"pitch":35,"velocity":80,"startTime":2.857138,"endTime":2.9310294999999997,"instrument":1,"isDrum":true},{"pitch":51,"velocity":80,"startTime":2.857138,"endTime":2.9310294999999997,"instrument":1,"isDrum":true},{"pitch":35,"velocity":80,"startTime":2.95566,"endTime":3.004921,"instrument":1,"isDrum":true},{"pitch":44,"velocity":80,"startTime":2.95566,"endTime":3.004921,"instrument":1,"isDrum":true},{"pitch":51,"velocity":80,"startTime":2.95566,"endTime":3.004921,"instrument":1,"isDrum":true},{"pitch":53,"velocity":80,"startTime":2.95566,"endTime":3.004921,"instrument":1,"isDrum":true},{"pitch":51,"velocity":80,"startTime":3.152704,"endTime":3.2265954999999997,"instrument":1,"isDrum":true},{"pitch":38,"velocity":80,"startTime":3.251226,"endTime":3.300487,"instrument":1,"isDrum":true},{"pitch":44,"velocity":80,"startTime":3.251226,"endTime":3.300487,"instrument":1,"isDrum":true},{"pitch":51,"velocity":80,"startTime":3.251226,"endTime":3.300487,"instrument":1,"isDrum":true},{"pitch":53,"velocity":80,"startTime":3.251226,"endTime":3.300487,"instrument":1,"isDrum":true},{"pitch":51,"velocity":80,"startTime":3.44827,"endTime":3.5221614999999997,"instrument":1,"isDrum":true},{"pitch":44,"velocity":80,"startTime":3.546792,"endTime":3.596053,"instrument":1,"isDrum":true},{"pitch":51,"velocity":80,"startTime":3.546792,"endTime":3.596053,"instrument":1,"isDrum":true},{"pitch":53,"velocity":80,"startTime":3.546792,"endTime":3.596053,"instrument":1,"isDrum":true},{"pitch":51,"velocity":80,"startTime":3.743836,"endTime":3.8177274999999997,"instrument":1,"isDrum":true},{"pitch":38,"velocity":80,"startTime":3.842358,"endTime":3.891619,"instrument":1,"isDrum":true},{"pitch":44,"velocity":80,"startTime":3.842358,"endTime":3.891619,"instrument":1,"isDrum":true},{"pitch":51,"velocity":80,"startTime":3.842358,"endTime":3.891619,"instrument":1,"isDrum":true},{"pitch":53,"velocity":80,"startTime":3.842358,"endTime":3.891619,"instrument":1,"isDrum":true},{"pitch":35,"velocity":80,"startTime":4.039402,"endTime":4.1132935,"instrument":1,"isDrum":true},{"pitch":38,"velocity":80,"startTime":4.039402,"endTime":4.1132935,"instrument":1,"isDrum":true},{"pitch":51,"velocity":80,"startTime":4.039402,"endTime":4.1132935,"instrument":1,"isDrum":true},{"pitch":35,"velocity":80,"startTime":4.137924,"endTime":4.1871849999999995,"instrument":1,"isDrum":true},{"pitch":44,"velocity":80,"startTime":4.137924,"endTime":4.1871849999999995,"instrument":1,"isDrum":true},{"pitch":51,"velocity":80,"startTime":4.137924,"endTime":4.1871849999999995,"instrument":1,"isDrum":true},{"pitch":53,"velocity":80,"startTime":4.137924,"endTime":4.1871849999999995,"instrument":1,"isDrum":true},{"pitch":51,"velocity":80,"startTime":4.334968,"endTime":4.408859499999999,"instrument":1,"isDrum":true},{"pitch":38,"velocity":80,"startTime":4.43349,"endTime":4.4827509999999995,"instrument":1,"isDrum":true},{"pitch":44,"velocity":80,"startTime":4.43349,"endTime":4.4827509999999995,"instrument":1,"isDrum":true},{"pitch":51,"velocity":80,"startTime":4.43349,"endTime":4.4827509999999995,"instrument":1,"isDrum":true},{"pitch":53,"velocity":80,"startTime":4.43349,"endTime":4.4827509999999995,"instrument":1,"isDrum":true},{"pitch":51,"velocity":80,"startTime":4.630534,"endTime":4.704425499999999,"instrument":1,"isDrum":true},{"pitch":44,"velocity":80,"startTime":4.729056,"endTime":4.778317,"instrument":1,"isDrum":true},{"pitch":51,"velocity":80,"startTime":4.729056,"endTime":4.778317,"instrument":1,"isDrum":true},{"pitch":53,"velocity":80,"startTime":4.729056,"endTime":4.778317,"instrument":1,"isDrum":true},{"pitch":35,"velocity":80,"startTime":4.9261,"endTime":4.9999915,"instrument":1,"isDrum":true},{"pitch":51,"velocity":80,"startTime":4.9261,"endTime":4.9999915,"instrument":1,"isDrum":true},{"pitch":38,"velocity":80,"startTime":5.024622,"endTime":5.0738829999999995,"instrument":1,"isDrum":true},{"pitch":44,"velocity":80,"startTime":5.024622,"endTime":5.0738829999999995,"instrument":1,"isDrum":true},{"pitch":51,"velocity":80,"startTime":5.024622,"endTime":5.0738829999999995,"instrument":1,"isDrum":true},{"pitch":53,"velocity":80,"startTime":5.024622,"endTime":5.0738829999999995,"instrument":1,"isDrum":true},{"pitch":35,"velocity":80,"startTime":5.221666,"endTime":5.295557499999999,"instrument":1,"isDrum":true},{"pitch":51,"velocity":80,"startTime":5.221666,"endTime":5.295557499999999,"instrument":1,"isDrum":true},{"pitch":35,"velocity":80,"startTime":5.320188,"endTime":5.3694489999999995,"instrument":1,"isDrum":true},{"pitch":44,"velocity":80,"startTime":5.320188,"endTime":5.3694489999999995,"instrument":1,"isDrum":true},{"pitch":51,"velocity":80,"startTime":5.320188,"endTime":5.3694489999999995,"instrument":1,"isDrum":true},{"pitch":53,"velocity":80,"startTime":5.320188,"endTime":5.3694489999999995,"instrument":1,"isDrum":true},{"pitch":51,"velocity":80,"startTime":5.517232,"endTime":5.591123499999999,"instrument":1,"isDrum":true},{"pitch":38,"velocity":80,"startTime":5.615754,"endTime":5.6650149999999995,"instrument":1,"isDrum":true},{"pitch":44,"velocity":80,"startTime":5.615754,"endTime":5.6650149999999995,"instrument":1,"isDrum":true},{"pitch":51,"velocity":80,"startTime":5.615754,"endTime":5.6650149999999995,"instrument":1,"isDrum":true},{"pitch":53,"velocity":80,"startTime":5.615754,"endTime":5.6650149999999995,"instrument":1,"isDrum":true},{"pitch":54,"velocity":80,"startTime":5.615754,"endTime":5.6650149999999995,"instrument":1,"isDrum":true},{"pitch":51,"velocity":80,"startTime":5.812798,"endTime":5.886689499999999,"instrument":1,"isDrum":true},{"pitch":35,"velocity":80,"startTime":5.91132,"endTime":5.9605809999999995,"instrument":1,"isDrum":true},{"pitch":44,"velocity":80,"startTime":5.91132,"endTime":5.9605809999999995,"instrument":1,"isDrum":true},{"pitch":51,"velocity":80,"startTime":5.91132,"endTime":5.9605809999999995,"instrument":1,"isDrum":true},{"pitch":51,"velocity":80,"startTime":6.108364,"endTime":6.182255499999999,"instrument":1,"isDrum":true},{"pitch":38,"velocity":80,"startTime":6.206886,"endTime":6.2561469999999995,"instrument":1,"isDrum":true},{"pitch":44,"velocity":80,"startTime":6.206886,"endTime":6.2561469999999995,"instrument":1,"isDrum":true},{"pitch":51,"velocity":80,"startTime":6.206886,"endTime":6.2561469999999995,"instrument":1,"isDrum":true},{"pitch":53,"velocity":80,"startTime":6.206886,"endTime":6.2561469999999995,"instrument":1,"isDrum":true},{"pitch":54,"velocity":80,"startTime":6.206886,"endTime":6.2561469999999995,"instrument":1,"isDrum":true},{"pitch":51,"velocity":80,"startTime":6.40393,"endTime":6.477821499999999,"instrument":1,"isDrum":true},{"pitch":44,"velocity":80,"startTime":6.502452,"endTime":6.5517129999999995,"instrument":1,"isDrum":true},{"pitch":51,"velocity":80,"startTime":6.502452,"endTime":6.5517129999999995,"instrument":1,"isDrum":true},{"pitch":35,"velocity":80,"startTime":6.798018,"endTime":6.8472789999999994,"instrument":1,"isDrum":true},{"pitch":38,"velocity":80,"startTime":6.798018,"endTime":6.8472789999999994,"instrument":1,"isDrum":true},{"pitch":44,"velocity":80,"startTime":6.798018,"endTime":6.8472789999999994,"instrument":1,"isDrum":true},{"pitch":51,"velocity":80,"startTime":6.798018,"endTime":6.8472789999999994,"instrument":1,"isDrum":true},{"pitch":53,"velocity":80,"startTime":6.798018,"endTime":6.8472789999999994,"instrument":1,"isDrum":true},{"pitch":54,"velocity":80,"startTime":6.798018,"endTime":6.8472789999999994,"instrument":1,"isDrum":true},{"pitch":51,"velocity":80,"startTime":6.995062,"endTime":7.068953499999999,"instrument":1,"isDrum":true},{"pitch":35,"velocity":80,"startTime":7.093584,"endTime":7.1428449999999994,"instrument":1,"isDrum":true},{"pitch":44,"velocity":80,"startTime":7.093584,"endTime":7.1428449999999994,"instrument":1,"isDrum":true},{"pitch":51,"velocity":80,"startTime":7.093584,"endTime":7.1428449999999994,"instrument":1,"isDrum":true},{"pitch":53,"velocity":80,"startTime":7.093584,"endTime":7.1428449999999994,"instrument":1,"isDrum":true},{"pitch":38,"velocity":80,"startTime":7.38915,"endTime":7.438410999999999,"instrument":1,"isDrum":true},{"pitch":44,"velocity":80,"startTime":7.38915,"endTime":7.438410999999999,"instrument":1,"isDrum":true},{"pitch":51,"velocity":80,"startTime":7.38915,"endTime":7.438410999999999,"instrument":1,"isDrum":true},{"pitch":53,"velocity":80,"startTime":7.38915,"endTime":7.438410999999999,"instrument":1,"isDrum":true},{"pitch":54,"velocity":80,"startTime":7.38915,"endTime":7.438410999999999,"instrument":1,"isDrum":true},{"pitch":51,"velocity":80,"startTime":7.586194,"endTime":7.660085499999999,"instrument":1,"isDrum":true},{"pitch":44,"velocity":80,"startTime":7.684716,"endTime":7.733976999999999,"instrument":1,"isDrum":true},{"pitch":53,"velocity":80,"startTime":7.684716,"endTime":7.733976999999999,"instrument":1,"isDrum":true},{"pitch":35,"velocity":80,"startTime":7.88176,"endTime":7.955651499999999,"instrument":1,"isDrum":true},{"pitch":53,"velocity":80,"startTime":7.88176,"endTime":7.955651499999999,"instrument":1,"isDrum":true},{"pitch":51,"velocity":80,"startTime":7.980282,"endTime":8.029543,"instrument":1,"isDrum":true},{"pitch":35,"velocity":80,"startTime":8.177325999999999,"endTime":8.2512175,"instrument":1,"isDrum":true},{"pitch":44,"velocity":80,"startTime":8.177325999999999,"endTime":8.2512175,"instrument":1,"isDrum":true},{"pitch":35,"velocity":80,"startTime":8.275848,"endTime":8.325109,"instrument":1,"isDrum":true},{"pitch":44,"velocity":80,"startTime":8.275848,"endTime":8.325109,"instrument":1,"isDrum":true},{"pitch":51,"velocity":80,"startTime":8.275848,"endTime":8.325109,"instrument":1,"isDrum":true},{"pitch":53,"velocity":80,"startTime":8.275848,"endTime":8.325109,"instrument":1,"isDrum":true},{"pitch":51,"velocity":80,"startTime":8.472892,"endTime":8.5467835,"instrument":1,"isDrum":true},{"pitch":38,"velocity":80,"startTime":8.571413999999999,"endTime":8.620674999999999,"instrument":1,"isDrum":true},{"pitch":44,"velocity":80,"startTime":8.571413999999999,"endTime":8.620674999999999,"instrument":1,"isDrum":true},{"pitch":51,"velocity":80,"startTime":8.571413999999999,"endTime":8.620674999999999,"instrument":1,"isDrum":true},{"pitch":53,"velocity":80,"startTime":8.571413999999999,"endTime":8.620674999999999,"instrument":1,"isDrum":true},{"pitch":54,"velocity":80,"startTime":8.571413999999999,"endTime":8.620674999999999,"instrument":1,"isDrum":true},{"pitch":51,"velocity":80,"startTime":8.768457999999999,"endTime":8.8423495,"instrument":1,"isDrum":true},{"pitch":31,"velocity":103,"endTime":0.295566,"instrument":2,"program":32},{"pitch":33,"velocity":103,"startTime":0.295566,"endTime":0.591132,"instrument":2,"program":32},{"pitch":38,"velocity":103,"startTime":0.591132,"endTime":0.886698,"instrument":2,"program":32},{"pitch":38,"velocity":103,"startTime":0.886698,"endTime":1.1083725,"instrument":2,"program":32},{"pitch":26,"velocity":103,"startTime":1.1083725,"endTime":1.1576335,"instrument":2,"program":32},{"pitch":43,"velocity":103,"startTime":1.182264,"endTime":1.47783,"instrument":2,"program":32},{"pitch":50,"velocity":103,"startTime":1.47783,"endTime":1.773396,"instrument":2,"program":32},{"pitch":43,"velocity":103,"startTime":1.773396,"endTime":2.068962,"instrument":2,"program":32},{"pitch":38,"velocity":103,"startTime":2.068962,"endTime":2.3398974999999997,"instrument":2,"program":32},{"pitch":28,"velocity":103,"startTime":2.364528,"endTime":2.660094,"instrument":2,"program":32},{"pitch":28,"velocity":103,"startTime":2.660094,"endTime":2.95566,"instrument":2,"program":32},{"pitch":35,"velocity":103,"startTime":2.95566,"endTime":3.251226,"instrument":2,"program":32},{"pitch":28,"velocity":103,"startTime":3.251226,"endTime":3.4729004999999997,"instrument":2,"program":32},{"pitch":35,"velocity":103,"startTime":3.4729004999999997,"endTime":3.5221614999999997,"instrument":2,"program":32},{"pitch":28,"velocity":103,"startTime":3.546792,"endTime":3.842358,"instrument":2,"program":32},{"pitch":35,"velocity":103,"startTime":3.842358,"endTime":4.137924,"instrument":2,"program":32},{"pitch":35,"velocity":103,"startTime":4.137924,"endTime":4.43349,"instrument":2,"program":32},{"pitch":35,"velocity":103,"startTime":4.43349,"endTime":4.6551645,"instrument":2,"program":32},{"pitch":28,"velocity":103,"startTime":4.6551645,"endTime":4.704425499999999,"instrument":2,"program":32},{"pitch":36,"velocity":103,"startTime":4.729056,"endTime":5.024622,"instrument":2,"program":32},{"pitch":40,"velocity":103,"startTime":5.024622,"endTime":5.320188,"instrument":2,"program":32},{"pitch":40,"velocity":103,"startTime":5.320188,"endTime":5.615754,"instrument":2,"program":32},{"pitch":43,"velocity":103,"startTime":5.615754,"endTime":5.886689499999999,"instrument":2,"program":32},{"pitch":38,"velocity":103,"startTime":5.91132,"endTime":6.206886,"instrument":2,"program":32},{"pitch":45,"velocity":103,"startTime":6.206886,"endTime":6.502452,"instrument":2,"program":32},{"pitch":45,"velocity":103,"startTime":6.502452,"endTime":6.798018,"instrument":2,"program":32},{"pitch":45,"velocity":103,"startTime":6.798018,"endTime":7.093584,"instrument":2,"program":32},{"pitch":43,"velocity":103,"startTime":7.093584,"endTime":7.3152585,"instrument":2,"program":32},{"pitch":43,"velocity":103,"startTime":7.3152585,"endTime":7.38915,"instrument":2,"program":32},{"pitch":43,"velocity":103,"startTime":7.38915,"endTime":7.684716,"instrument":2,"program":32},{"pitch":38,"velocity":103,"startTime":7.684716,"endTime":7.980282,"instrument":2,"program":32},{"pitch":43,"velocity":103,"startTime":7.980282,"endTime":8.275848,"instrument":2,"program":32},{"pitch":43,"velocity":103,"startTime":8.275848,"endTime":8.620674999999999,"instrument":2,"program":32},{"pitch":38,"velocity":103,"startTime":8.571413999999999,"endTime":8.891610499999999,"instrument":2,"program":32},{"pitch":42,"velocity":103,"startTime":8.86698,"endTime":9.1871765,"instrument":2,"program":32},{"pitch":43,"velocity":103,"startTime":9.162545999999999,"endTime":9.458112,"instrument":2,"program":32},{"pitch":55,"velocity":57,"startTime":9.679786499999999,"endTime":9.753677999999999},{"pitch":62,"velocity":57,"startTime":9.679786499999999,"endTime":9.753677999999999},{"pitch":43,"velocity":57,"startTime":9.7783085,"endTime":9.8275695},{"pitch":62,"velocity":57,"startTime":9.7783085,"endTime":9.8522},{"pitch":55,"velocity":57,"startTime":10.344809999999999,"endTime":10.443332},{"pitch":62,"velocity":57,"startTime":10.344809999999999,"endTime":10.443332},{"pitch":59,"velocity":57,"startTime":10.3694405,"endTime":10.443332},{"pitch":57,"velocity":57,"startTime":10.862050499999999,"endTime":10.9113115},{"pitch":59,"velocity":57,"startTime":10.862050499999999,"endTime":10.886681},{"pitch":62,"velocity":57,"startTime":10.862050499999999,"endTime":10.886681},{"pitch":57,"velocity":57,"startTime":11.453182499999999,"endTime":11.5024435},{"pitch":59,"velocity":57,"startTime":11.5517045,"endTime":11.674857},{"pitch":62,"velocity":57,"startTime":11.5517045,"endTime":11.674857},{"pitch":52,"velocity":57,"startTime":12.044314499999999,"endTime":12.0935755},{"pitch":59,"velocity":57,"startTime":12.044314499999999,"endTime":12.0935755},{"pitch":66,"velocity":57,"startTime":12.044314499999999,"endTime":12.0935755},{"pitch":62,"velocity":57,"startTime":12.068945,"endTime":12.0935755},{"pitch":52,"velocity":57,"startTime":12.413772,"endTime":12.512293999999999},{"pitch":55,"velocity":57,"startTime":12.438402499999999,"endTime":12.512293999999999},{"pitch":59,"velocity":57,"startTime":12.438402499999999,"endTime":12.512293999999999},{"pitch":64,"velocity":57,"startTime":12.438402499999999,"endTime":12.512293999999999},{"pitch":40,"velocity":57,"startTime":13.226578499999999,"endTime":13.300469999999999},{"pitch":59,"velocity":57,"startTime":13.3251005,"endTime":13.398992},{"pitch":64,"velocity":57,"startTime":13.3251005,"endTime":13.423622499999999},{"pitch":59,"velocity":57,"startTime":13.891601999999999,"endTime":13.990124},{"pitch":64,"velocity":57,"startTime":13.891601999999999,"endTime":13.9654935},{"pitch":68,"velocity":57,"startTime":13.891601999999999,"endTime":13.9654935},{"pitch":59,"velocity":57,"startTime":14.482733999999999,"endTime":14.581255999999996},{"pitch":64,"velocity":57,"startTime":14.482733999999999,"endTime":14.6058865},{"pitch":67,"velocity":57,"startTime":14.482733999999999,"endTime":14.581255999999996},{"pitch":57,"velocity":57,"startTime":15.2955405,"endTime":15.443323499999998},{"pitch":64,"velocity":57,"startTime":15.2955405,"endTime":15.443323499999998},{"pitch":67,"velocity":57,"startTime":15.2955405,"endTime":15.443323499999998},{"pitch":72,"velocity":57,"startTime":15.2955405,"endTime":15.443323499999998},{"pitch":57,"velocity":57,"startTime":15.8866725,"endTime":15.911302999999997},{"pitch":64,"velocity":57,"startTime":15.8866725,"endTime":15.9359335},{"pitch":67,"velocity":57,"startTime":15.8866725,"endTime":15.9359335},{"pitch":55,"velocity":57,"startTime":17.9556345,"endTime":18.0048955},{"pitch":59,"velocity":57,"startTime":17.9556345,"endTime":17.980264999999996},{"pitch":62,"velocity":57,"startTime":17.9556345,"endTime":18.0048955},{"pitch":55,"velocity":57,"startTime":18.029525999999997,"endTime":18.1034175},{"pitch":62,"velocity":57,"startTime":18.029525999999997,"endTime":18.1034175},{"pitch":59,"velocity":57,"startTime":18.054156499999998,"endTime":18.1034175},{"pitch":35,"velocity":80,"startTime":9.458112,"endTime":9.4827425,"instrument":1,"isDrum":true},{"pitch":44,"velocity":80,"startTime":9.458112,"endTime":9.4827425,"instrument":1,"isDrum":true},{"pitch":51,"velocity":80,"startTime":9.458112,"endTime":9.4827425,"instrument":1,"isDrum":true},{"pitch":51,"velocity":80,"startTime":9.655155999999998,"endTime":9.704417000000001,"instrument":1,"isDrum":true},{"pitch":37,"velocity":80,"startTime":9.753677999999999,"endTime":9.7783085,"instrument":1,"isDrum":true},{"pitch":39,"velocity":80,"startTime":9.753677999999999,"endTime":9.7783085,"instrument":1,"isDrum":true},{"pitch":44,"velocity":80,"startTime":9.753677999999999,"endTime":9.7783085,"instrument":1,"isDrum":true},{"pitch":51,"velocity":80,"startTime":9.753677999999999,"endTime":9.7783085,"instrument":1,"isDrum":true},{"pitch":35,"velocity":80,"startTime":9.950721999999999,"endTime":9.999983,"instrument":1,"isDrum":true},{"pitch":44,"velocity":80,"startTime":10.049244,"endTime":10.0738745,"instrument":1,"isDrum":true},{"pitch":51,"velocity":80,"startTime":10.049244,"endTime":10.0738745,"instrument":1,"isDrum":true},{"pitch":35,"velocity":80,"startTime":10.246288,"endTime":10.295549,"instrument":1,"isDrum":true},{"pitch":51,"velocity":80,"startTime":10.246288,"endTime":10.295549,"instrument":1,"isDrum":true},{"pitch":35,"velocity":80,"startTime":10.344809999999999,"endTime":10.3694405,"instrument":1,"isDrum":true},{"pitch":44,"velocity":80,"startTime":10.344809999999999,"endTime":10.3694405,"instrument":1,"isDrum":true},{"pitch":51,"velocity":80,"startTime":10.344809999999999,"endTime":10.3694405,"instrument":1,"isDrum":true},{"pitch":35,"velocity":80,"startTime":10.541853999999999,"endTime":10.591114999999999,"instrument":1,"isDrum":true},{"pitch":51,"velocity":80,"startTime":10.541853999999999,"endTime":10.591114999999999,"instrument":1,"isDrum":true},{"pitch":35,"velocity":80,"startTime":10.640376,"endTime":10.665006499999999,"instrument":1,"isDrum":true},{"pitch":44,"velocity":80,"startTime":10.640376,"endTime":10.665006499999999,"instrument":1,"isDrum":true},{"pitch":51,"velocity":80,"startTime":10.640376,"endTime":10.665006499999999,"instrument":1,"isDrum":true},{"pitch":35,"velocity":80,"startTime":10.83742,"endTime":10.886681,"instrument":1,"isDrum":true},{"pitch":51,"velocity":80,"startTime":10.83742,"endTime":10.886681,"instrument":1,"isDrum":true},{"pitch":37,"velocity":80,"startTime":10.935941999999999,"endTime":10.9605725,"instrument":1,"isDrum":true},{"pitch":44,"velocity":80,"startTime":10.935941999999999,"endTime":10.9605725,"instrument":1,"isDrum":true},{"pitch":51,"velocity":80,"startTime":10.935941999999999,"endTime":10.9605725,"instrument":1,"isDrum":true},{"pitch":35,"velocity":80,"startTime":11.132985999999999,"endTime":11.182246999999998,"instrument":1,"isDrum":true},{"pitch":51,"velocity":80,"startTime":11.132985999999999,"endTime":11.182246999999998,"instrument":1,"isDrum":true},{"pitch":35,"velocity":80,"startTime":11.231508,"endTime":11.256138499999999,"instrument":1,"isDrum":true},{"pitch":44,"velocity":80,"startTime":11.231508,"endTime":11.256138499999999,"instrument":1,"isDrum":true},{"pitch":51,"velocity":80,"startTime":11.231508,"endTime":11.256138499999999,"instrument":1,"isDrum":true},{"pitch":53,"velocity":80,"startTime":11.428552,"endTime":11.477813,"instrument":1,"isDrum":true},{"pitch":37,"velocity":80,"startTime":11.527073999999999,"endTime":11.5517045,"instrument":1,"isDrum":true},{"pitch":44,"velocity":80,"startTime":11.527073999999999,"endTime":11.5517045,"instrument":1,"isDrum":true},{"pitch":51,"velocity":80,"startTime":11.527073999999999,"endTime":11.5517045,"instrument":1,"isDrum":true},{"pitch":35,"velocity":80,"startTime":11.724117999999999,"endTime":11.773378999999998,"instrument":1,"isDrum":true},{"pitch":51,"velocity":80,"startTime":11.724117999999999,"endTime":11.773378999999998,"instrument":1,"isDrum":true},{"pitch":35,"velocity":80,"startTime":11.82264,"endTime":11.847270499999999,"instrument":1,"isDrum":true},{"pitch":44,"velocity":80,"startTime":11.82264,"endTime":11.847270499999999,"instrument":1,"isDrum":true},{"pitch":51,"velocity":80,"startTime":11.82264,"endTime":11.847270499999999,"instrument":1,"isDrum":true},{"pitch":51,"velocity":80,"startTime":12.019684,"endTime":12.068945,"instrument":1,"isDrum":true},{"pitch":37,"velocity":80,"startTime":12.118205999999999,"endTime":12.1428365,"instrument":1,"isDrum":true},{"pitch":44,"velocity":80,"startTime":12.118205999999999,"endTime":12.1428365,"instrument":1,"isDrum":true},{"pitch":51,"velocity":80,"startTime":12.118205999999999,"endTime":12.1428365,"instrument":1,"isDrum":true},{"pitch":35,"velocity":80,"startTime":12.315249999999999,"endTime":12.364510999999998,"instrument":1,"isDrum":true},{"pitch":51,"velocity":80,"startTime":12.315249999999999,"endTime":12.364510999999998,"instrument":1,"isDrum":true},{"pitch":35,"velocity":80,"startTime":12.413772,"endTime":12.438402499999999,"instrument":1,"isDrum":true},{"pitch":44,"velocity":80,"startTime":12.413772,"endTime":12.438402499999999,"instrument":1,"isDrum":true},{"pitch":51,"velocity":80,"startTime":12.413772,"endTime":12.438402499999999,"instrument":1,"isDrum":true},{"pitch":53,"velocity":80,"startTime":12.610816,"endTime":12.660077,"instrument":1,"isDrum":true},{"pitch":37,"velocity":80,"startTime":12.709337999999999,"endTime":12.7339685,"instrument":1,"isDrum":true},{"pitch":44,"velocity":80,"startTime":12.709337999999999,"endTime":12.7339685,"instrument":1,"isDrum":true},{"pitch":51,"velocity":80,"startTime":12.709337999999999,"endTime":12.7339685,"instrument":1,"isDrum":true},{"pitch":35,"velocity":80,"startTime":12.906381999999999,"endTime":12.955642999999998,"instrument":1,"isDrum":true},{"pitch":51,"velocity":80,"startTime":12.906381999999999,"endTime":12.955642999999998,"instrument":1,"isDrum":true},{"pitch":35,"velocity":80,"startTime":13.004904,"endTime":13.029534499999999,"instrument":1,"isDrum":true},{"pitch":44,"velocity":80,"startTime":13.004904,"endTime":13.029534499999999,"instrument":1,"isDrum":true},{"pitch":51,"velocity":80,"startTime":13.004904,"endTime":13.029534499999999,"instrument":1,"isDrum":true},{"pitch":51,"velocity":80,"startTime":13.201948,"endTime":13.251209,"instrument":1,"isDrum":true},{"pitch":37,"velocity":80,"startTime":13.300469999999999,"endTime":13.3251005,"instrument":1,"isDrum":true},{"pitch":44,"velocity":80,"startTime":13.300469999999999,"endTime":13.3251005,"instrument":1,"isDrum":true},{"pitch":51,"velocity":80,"startTime":13.300469999999999,"endTime":13.3251005,"instrument":1,"isDrum":true},{"pitch":35,"velocity":80,"startTime":13.497513999999999,"endTime":13.546774999999998,"instrument":1,"isDrum":true},{"pitch":51,"velocity":80,"startTime":13.497513999999999,"endTime":13.546774999999998,"instrument":1,"isDrum":true},{"pitch":35,"velocity":80,"startTime":13.596036,"endTime":13.620666499999999,"instrument":1,"isDrum":true},{"pitch":44,"velocity":80,"startTime":13.596036,"endTime":13.620666499999999,"instrument":1,"isDrum":true},{"pitch":51,"velocity":80,"startTime":13.596036,"endTime":13.620666499999999,"instrument":1,"isDrum":true},{"pitch":51,"velocity":80,"startTime":13.79308,"endTime":13.842341,"instrument":1,"isDrum":true},{"pitch":37,"velocity":80,"startTime":13.891601999999999,"endTime":13.9162325,"instrument":1,"isDrum":true},{"pitch":44,"velocity":80,"startTime":13.891601999999999,"endTime":13.9162325,"instrument":1,"isDrum":true},{"pitch":51,"velocity":80,"startTime":13.891601999999999,"endTime":13.9162325,"instrument":1,"isDrum":true},{"pitch":35,"velocity":80,"startTime":14.088645999999999,"endTime":14.137906999999998,"instrument":1,"isDrum":true},{"pitch":51,"velocity":80,"startTime":14.088645999999999,"endTime":14.137906999999998,"instrument":1,"isDrum":true},{"pitch":35,"velocity":80,"startTime":14.187168,"endTime":14.211798499999997,"instrument":1,"isDrum":true},{"pitch":44,"velocity":80,"startTime":14.187168,"endTime":14.211798499999997,"instrument":1,"isDrum":true},{"pitch":51,"velocity":80,"startTime":14.187168,"endTime":14.211798499999997,"instrument":1,"isDrum":true},{"pitch":51,"velocity":80,"startTime":14.384212000000002,"endTime":14.433472999999998,"instrument":1,"isDrum":true},{"pitch":37,"velocity":80,"startTime":14.482733999999999,"endTime":14.507364499999996,"instrument":1,"isDrum":true},{"pitch":44,"velocity":80,"startTime":14.482733999999999,"endTime":14.507364499999996,"instrument":1,"isDrum":true},{"pitch":51,"velocity":80,"startTime":14.482733999999999,"endTime":14.507364499999996,"instrument":1,"isDrum":true},{"pitch":35,"velocity":80,"startTime":14.679778,"endTime":14.729038999999997,"instrument":1,"isDrum":true},{"pitch":51,"velocity":80,"startTime":14.679778,"endTime":14.729038999999997,"instrument":1,"isDrum":true},{"pitch":35,"velocity":80,"startTime":14.7783,"endTime":14.802930499999997,"instrument":1,"isDrum":true},{"pitch":44,"velocity":80,"startTime":14.7783,"endTime":14.802930499999997,"instrument":1,"isDrum":true},{"pitch":51,"velocity":80,"startTime":14.7783,"endTime":14.802930499999997,"instrument":1,"isDrum":true},{"pitch":35,"velocity":80,"startTime":14.975344000000002,"endTime":15.024604999999998,"instrument":1,"isDrum":true},{"pitch":51,"velocity":80,"startTime":14.975344000000002,"endTime":15.024604999999998,"instrument":1,"isDrum":true},{"pitch":37,"velocity":80,"startTime":15.073865999999999,"endTime":15.098496499999996,"instrument":1,"isDrum":true},{"pitch":44,"velocity":80,"startTime":15.073865999999999,"endTime":15.098496499999996,"instrument":1,"isDrum":true},{"pitch":51,"velocity":80,"startTime":15.073865999999999,"endTime":15.098496499999996,"instrument":1,"isDrum":true},{"pitch":35,"velocity":80,"startTime":15.27091,"endTime":15.320170999999997,"instrument":1,"isDrum":true},{"pitch":51,"velocity":80,"startTime":15.27091,"endTime":15.320170999999997,"instrument":1,"isDrum":true},{"pitch":35,"velocity":80,"startTime":15.369432,"endTime":15.394062499999997,"instrument":1,"isDrum":true},{"pitch":44,"velocity":80,"startTime":15.369432,"endTime":15.394062499999997,"instrument":1,"isDrum":true},{"pitch":51,"velocity":80,"startTime":15.369432,"endTime":15.394062499999997,"instrument":1,"isDrum":true},{"pitch":53,"velocity":80,"startTime":15.566476000000002,"endTime":15.615736999999998,"instrument":1,"isDrum":true},{"pitch":37,"velocity":80,"startTime":15.664997999999999,"endTime":15.689628499999996,"instrument":1,"isDrum":true},{"pitch":44,"velocity":80,"startTime":15.664997999999999,"endTime":15.689628499999996,"instrument":1,"isDrum":true},{"pitch":51,"velocity":80,"startTime":15.664997999999999,"endTime":15.689628499999996,"instrument":1,"isDrum":true},{"pitch":35,"velocity":80,"startTime":15.862042,"endTime":15.911302999999997,"instrument":1,"isDrum":true},{"pitch":51,"velocity":80,"startTime":15.862042,"endTime":15.911302999999997,"instrument":1,"isDrum":true},{"pitch":35,"velocity":80,"startTime":15.960564,"endTime":15.985194499999997,"instrument":1,"isDrum":true},{"pitch":44,"velocity":80,"startTime":15.960564,"endTime":15.985194499999997,"instrument":1,"isDrum":true},{"pitch":51,"velocity":80,"startTime":15.960564,"endTime":15.985194499999997,"instrument":1,"isDrum":true},{"pitch":51,"velocity":80,"startTime":16.157608,"endTime":16.206868999999998,"instrument":1,"isDrum":true},{"pitch":37,"velocity":80,"startTime":16.25613,"endTime":16.280760499999996,"instrument":1,"isDrum":true},{"pitch":44,"velocity":80,"startTime":16.25613,"endTime":16.280760499999996,"instrument":1,"isDrum":true},{"pitch":51,"velocity":80,"startTime":16.25613,"endTime":16.280760499999996,"instrument":1,"isDrum":true},{"pitch":35,"velocity":80,"startTime":16.453174,"endTime":16.502434999999995,"instrument":1,"isDrum":true},{"pitch":51,"velocity":80,"startTime":16.453174,"endTime":16.502434999999995,"instrument":1,"isDrum":true},{"pitch":35,"velocity":80,"startTime":16.551696,"endTime":16.576326499999997,"instrument":1,"isDrum":true},{"pitch":44,"velocity":80,"startTime":16.551696,"endTime":16.576326499999997,"instrument":1,"isDrum":true},{"pitch":51,"velocity":80,"startTime":16.551696,"endTime":16.576326499999997,"instrument":1,"isDrum":true},{"pitch":51,"velocity":80,"startTime":16.74874,"endTime":16.798000999999996,"instrument":1,"isDrum":true},{"pitch":37,"velocity":80,"startTime":16.847261999999997,"endTime":16.871892499999998,"instrument":1,"isDrum":true},{"pitch":44,"velocity":80,"startTime":16.847261999999997,"endTime":16.871892499999998,"instrument":1,"isDrum":true},{"pitch":51,"velocity":80,"startTime":16.847261999999997,"endTime":16.871892499999998,"instrument":1,"isDrum":true},{"pitch":35,"velocity":80,"startTime":17.044306000000002,"endTime":17.093566999999997,"instrument":1,"isDrum":true},{"pitch":51,"velocity":80,"startTime":17.044306000000002,"endTime":17.093566999999997,"instrument":1,"isDrum":true},{"pitch":35,"velocity":80,"startTime":17.142827999999998,"endTime":17.167458499999995,"instrument":1,"isDrum":true},{"pitch":44,"velocity":80,"startTime":17.142827999999998,"endTime":17.167458499999995,"instrument":1,"isDrum":true},{"pitch":51,"velocity":80,"startTime":17.142827999999998,"endTime":17.167458499999995,"instrument":1,"isDrum":true},{"pitch":51,"velocity":80,"startTime":17.339872,"endTime":17.389132999999998,"instrument":1,"isDrum":true},{"pitch":37,"velocity":80,"startTime":17.438394,"endTime":17.463024499999996,"instrument":1,"isDrum":true},{"pitch":44,"velocity":80,"startTime":17.438394,"endTime":17.463024499999996,"instrument":1,"isDrum":true},{"pitch":51,"velocity":80,"startTime":17.438394,"endTime":17.463024499999996,"instrument":1,"isDrum":true},{"pitch":35,"velocity":80,"startTime":17.635438,"endTime":17.684698999999995,"instrument":1,"isDrum":true},{"pitch":51,"velocity":80,"startTime":17.635438,"endTime":17.684698999999995,"instrument":1,"isDrum":true},{"pitch":43,"velocity":103,"startTime":9.458112,"endTime":9.679786499999999,"instrument":2,"program":32},{"pitch":31,"velocity":103,"startTime":9.679786499999999,"endTime":9.753677999999999,"instrument":2,"program":32},{"pitch":38,"velocity":103,"startTime":9.753677999999999,"endTime":10.049244,"instrument":2,"program":32},{"pitch":43,"velocity":103,"startTime":10.049244,"endTime":10.246288,"instrument":2,"program":32},{"pitch":38,"velocity":103,"startTime":10.270918499999999,"endTime":10.344809999999999,"instrument":2,"program":32},{"pitch":43,"velocity":103,"startTime":10.344809999999999,"endTime":10.5664845,"instrument":2,"program":32},{"pitch":43,"velocity":103,"startTime":10.640376,"endTime":10.862050499999999,"instrument":2,"program":32},{"pitch":35,"velocity":103,"startTime":10.862050499999999,"endTime":10.935941999999999,"instrument":2,"program":32},{"pitch":38,"velocity":103,"startTime":10.935941999999999,"endTime":11.1576165,"instrument":2,"program":32},{"pitch":37,"velocity":103,"startTime":11.1576165,"endTime":11.231508,"instrument":2,"program":32},{"pitch":38,"velocity":103,"startTime":11.231508,"endTime":11.527073999999999,"instrument":2,"program":32},{"pitch":39,"velocity":103,"startTime":11.527073999999999,"endTime":11.82264,"instrument":2,"program":32},{"pitch":40,"velocity":103,"startTime":11.82264,"endTime":12.044314499999999,"instrument":2,"program":32},{"pitch":28,"velocity":103,"startTime":12.044314499999999,"endTime":12.118205999999999,"instrument":2,"program":32},{"pitch":40,"velocity":103,"startTime":12.118205999999999,"endTime":12.413772,"instrument":2,"program":32},{"pitch":40,"velocity":103,"startTime":12.413772,"endTime":12.709337999999999,"instrument":2,"program":32},{"pitch":35,"velocity":103,"startTime":12.709337999999999,"endTime":12.9310125,"instrument":2,"program":32},{"pitch":28,"velocity":103,"startTime":12.9310125,"endTime":13.004904,"instrument":2,"program":32},{"pitch":40,"velocity":103,"startTime":13.004904,"endTime":13.226578499999999,"instrument":2,"program":32},{"pitch":35,"velocity":103,"startTime":13.226578499999999,"endTime":13.300469999999999,"instrument":2,"program":32},{"pitch":37,"velocity":103,"startTime":13.300469999999999,"endTime":13.596036,"instrument":2,"program":32},{"pitch":30,"velocity":103,"startTime":13.596036,"endTime":13.79308,"instrument":2,"program":32},{"pitch":30,"velocity":103,"startTime":13.817710499999999,"endTime":13.891601999999999,"instrument":2,"program":32},{"pitch":35,"velocity":103,"startTime":13.891601999999999,"endTime":14.1132765,"instrument":2,"program":32},{"pitch":30,"velocity":103,"startTime":14.1132765,"endTime":14.187168,"instrument":2,"program":32},{"pitch":36,"velocity":103,"startTime":14.187168,"endTime":14.408842499999999,"instrument":2,"program":32},{"pitch":24,"velocity":103,"startTime":14.408842499999999,"endTime":14.482733999999999,"instrument":2,"program":32},{"pitch":40,"velocity":103,"startTime":14.482733999999999,"endTime":14.7783,"instrument":2,"program":32},{"pitch":36,"velocity":103,"startTime":14.7783,"endTime":15.073865999999999,"instrument":2,"program":32},{"pitch":28,"velocity":103,"startTime":15.073865999999999,"endTime":15.369432,"instrument":2,"program":32},{"pitch":38,"velocity":103,"startTime":15.369432,"endTime":15.714259000000002,"instrument":2,"program":32},{"pitch":45,"velocity":103,"startTime":15.664997999999999,"endTime":16.25613,"instrument":2,"program":32},{"pitch":45,"velocity":103,"startTime":15.960564,"endTime":15.985194499999997,"instrument":2,"program":32},{"pitch":38,"velocity":103,"startTime":16.25613,"endTime":16.551696,"instrument":2,"program":32},{"pitch":43,"velocity":103,"startTime":16.551696,"endTime":16.7733705,"instrument":2,"program":32},{"pitch":31,"velocity":103,"startTime":16.7733705,"endTime":16.847261999999997,"instrument":2,"program":32},{"pitch":43,"velocity":103,"startTime":16.847261999999997,"endTime":17.142827999999998,"instrument":2,"program":32},{"pitch":38,"velocity":103,"startTime":17.142827999999998,"endTime":17.438394,"instrument":2,"program":32},{"pitch":31,"velocity":103,"startTime":17.438394,"endTime":17.73396,"instrument":2,"program":32},{"pitch":43,"velocity":103,"startTime":17.73396,"endTime":17.9556345,"instrument":2,"program":32},{"pitch":31,"velocity":103,"startTime":17.9556345,"endTime":18.029525999999997,"instrument":2,"program":32},{"pitch":38,"velocity":103,"startTime":18.029525999999997,"endTime":18.325091999999998,"instrument":2,"program":32},{"pitch":43,"velocity":103,"startTime":18.325091999999998,"endTime":18.620658,"instrument":2,"program":32},{"pitch":43,"velocity":103,"startTime":18.620658,"endTime":18.916224,"instrument":2,"program":32},{"pitch":43,"velocity":57,"startTime":18.940854499999997,"endTime":18.965485},{"pitch":57,"velocity":57,"startTime":18.940854499999997,"endTime":18.965485},{"pitch":59,"velocity":57,"startTime":18.940854499999997,"endTime":18.965485},{"pitch":62,"velocity":57,"startTime":18.940854499999997,"endTime":18.965485},{"pitch":65,"velocity":57,"startTime":18.940854499999997,"endTime":18.990115499999998},{"pitch":43,"velocity":57,"startTime":20.098488,"endTime":20.19701},{"pitch":59,"velocity":57,"startTime":20.098488,"endTime":20.2216405},{"pitch":62,"velocity":57,"startTime":20.098488,"endTime":20.2216405},{"pitch":43,"velocity":57,"startTime":20.6157285,"endTime":20.689619999999998},{"pitch":59,"velocity":57,"startTime":20.6157285,"endTime":20.7142505},{"pitch":59,"velocity":57,"startTime":20.6157285,"endTime":20.689619999999998},{"pitch":62,"velocity":57,"startTime":20.6157285,"endTime":20.689619999999998},{"pitch":69,"velocity":57,"startTime":20.6157285,"endTime":20.7142505},{"pitch":40,"velocity":57,"startTime":21.280752,"endTime":21.354643499999998},{"pitch":52,"velocity":57,"startTime":21.280752,"endTime":21.354643499999998},{"pitch":56,"velocity":57,"startTime":21.280752,"endTime":21.354643499999998},{"pitch":59,"velocity":57,"startTime":21.280752,"endTime":21.379274},{"pitch":62,"velocity":57,"startTime":21.280752,"endTime":21.379274},{"pitch":40,"velocity":57,"startTime":21.871883999999998,"endTime":21.995036499999998},{"pitch":52,"velocity":57,"startTime":22.16745,"endTime":22.241341499999997},{"pitch":57,"velocity":57,"startTime":22.16745,"endTime":22.241341499999997},{"pitch":59,"velocity":57,"startTime":22.16745,"endTime":22.241341499999997},{"pitch":62,"velocity":57,"startTime":22.16745,"endTime":22.241341499999997},{"pitch":52,"velocity":57,"startTime":22.463016,"endTime":22.5861685},{"pitch":57,"velocity":57,"startTime":22.463016,"endTime":22.5861685},{"pitch":59,"velocity":57,"startTime":22.463016,"endTime":22.5861685},{"pitch":62,"velocity":57,"startTime":22.463016,"endTime":22.5861685},{"pitch":52,"velocity":57,"startTime":22.709321,"endTime":22.758581999999997},{"pitch":57,"velocity":57,"startTime":22.709321,"endTime":22.758581999999997},{"pitch":59,"velocity":57,"startTime":22.709321,"endTime":22.758581999999997},{"pitch":62,"velocity":57,"startTime":22.709321,"endTime":22.758581999999997},{"pitch":48,"velocity":57,"startTime":23.64528,"endTime":23.743802},{"pitch":60,"velocity":57,"startTime":23.64528,"endTime":23.743802},{"pitch":55,"velocity":57,"startTime":23.669910499999997,"endTime":23.743802},{"pitch":62,"velocity":57,"startTime":23.669910499999997,"endTime":23.7684325},{"pitch":38,"velocity":57,"startTime":24.827544,"endTime":24.9506965},{"pitch":57,"velocity":57,"startTime":24.827544,"endTime":24.926066},{"pitch":62,"velocity":57,"startTime":24.827544,"endTime":24.9506965},{"pitch":60,"velocity":57,"startTime":24.852174499999997,"endTime":24.9506965},{"pitch":50,"velocity":57,"startTime":25.147740499999998,"endTime":25.221632},{"pitch":57,"velocity":57,"startTime":25.147740499999998,"endTime":25.1970015},{"pitch":60,"velocity":57,"startTime":25.147740499999998,"endTime":25.1970015},{"pitch":64,"velocity":57,"startTime":25.147740499999998,"endTime":25.221632},{"pitch":43,"velocity":57,"startTime":26.2314825,"endTime":26.305373999999997},{"pitch":59,"velocity":57,"startTime":26.2314825,"endTime":26.2807435},{"pitch":62,"velocity":57,"startTime":26.2314825,"endTime":26.305373999999997},{"pitch":43,"velocity":57,"startTime":26.896506,"endTime":26.970397499999997},{"pitch":59,"velocity":57,"startTime":26.896506,"endTime":26.970397499999997},{"pitch":62,"velocity":57,"startTime":26.9211365,"endTime":26.970397499999997},{"pitch":65,"velocity":57,"startTime":26.9211365,"endTime":26.995027999999998},{"pitch":43,"velocity":57,"startTime":27.118180499999998,"endTime":27.192072},{"pitch":59,"velocity":57,"startTime":27.118180499999998,"endTime":27.3152245},{"pitch":62,"velocity":57,"startTime":27.118180499999998,"endTime":27.3152245},{"pitch":65,"velocity":57,"startTime":27.118180499999998,"endTime":27.3152245},{"pitch":67,"velocity":57,"startTime":27.118180499999998,"endTime":27.3152245},{"pitch":43,"velocity":57,"startTime":27.783203999999998,"endTime":27.881725999999997},{"pitch":59,"velocity":57,"startTime":27.783203999999998,"endTime":27.881725999999997},{"pitch":62,"velocity":57,"startTime":27.783203999999998,"endTime":27.906356499999998},{"pitch":55,"velocity":57,"startTime":27.8078345,"endTime":27.881725999999997},{"pitch":35,"velocity":80,"startTime":18.916224,"endTime":18.940854499999997,"instrument":1,"isDrum":true},{"pitch":44,"velocity":80,"startTime":18.916224,"endTime":18.940854499999997,"instrument":1,"isDrum":true},{"pitch":53,"velocity":80,"startTime":18.916224,"endTime":18.940854499999997,"instrument":1,"isDrum":true},{"pitch":51,"velocity":80,"startTime":19.113268,"endTime":19.1378985,"instrument":1,"isDrum":true},{"pitch":35,"velocity":80,"startTime":19.211789999999997,"endTime":19.236420499999998,"instrument":1,"isDrum":true},{"pitch":37,"velocity":80,"startTime":19.211789999999997,"endTime":19.236420499999998,"instrument":1,"isDrum":true},{"pitch":44,"velocity":80,"startTime":19.211789999999997,"endTime":19.236420499999998,"instrument":1,"isDrum":true},{"pitch":53,"velocity":80,"startTime":19.211789999999997,"endTime":19.236420499999998,"instrument":1,"isDrum":true},{"pitch":35,"velocity":80,"startTime":19.507355999999998,"endTime":19.531986499999995,"instrument":1,"isDrum":true},{"pitch":44,"velocity":80,"startTime":19.507355999999998,"endTime":19.531986499999995,"instrument":1,"isDrum":true},{"pitch":51,"velocity":80,"startTime":19.507355999999998,"endTime":19.531986499999995,"instrument":1,"isDrum":true},{"pitch":53,"velocity":80,"startTime":19.7044,"endTime":19.7290305,"instrument":1,"isDrum":true},{"pitch":35,"velocity":80,"startTime":19.802922,"endTime":19.827552499999996,"instrument":1,"isDrum":true},{"pitch":37,"velocity":80,"startTime":19.802922,"endTime":19.827552499999996,"instrument":1,"isDrum":true},{"pitch":44,"velocity":80,"startTime":19.802922,"endTime":19.827552499999996,"instrument":1,"isDrum":true},{"pitch":51,"velocity":80,"startTime":19.802922,"endTime":19.827552499999996,"instrument":1,"isDrum":true},{"pitch":51,"velocity":80,"startTime":19.999966,"endTime":20.024596499999998,"instrument":1,"isDrum":true},{"pitch":35,"velocity":80,"startTime":20.098488,"endTime":20.123118499999997,"instrument":1,"isDrum":true},{"pitch":44,"velocity":80,"startTime":20.098488,"endTime":20.123118499999997,"instrument":1,"isDrum":true},{"pitch":51,"velocity":80,"startTime":20.098488,"endTime":20.123118499999997,"instrument":1,"isDrum":true},{"pitch":35,"velocity":80,"startTime":20.394053999999997,"endTime":20.418684499999998,"instrument":1,"isDrum":true},{"pitch":37,"velocity":80,"startTime":20.394053999999997,"endTime":20.418684499999998,"instrument":1,"isDrum":true},{"pitch":38,"velocity":80,"startTime":20.394053999999997,"endTime":20.418684499999998,"instrument":1,"isDrum":true},{"pitch":44,"velocity":80,"startTime":20.394053999999997,"endTime":20.418684499999998,"instrument":1,"isDrum":true},{"pitch":51,"velocity":80,"startTime":20.394053999999997,"endTime":20.418684499999998,"instrument":1,"isDrum":true},{"pitch":35,"velocity":80,"startTime":20.689619999999998,"endTime":20.7142505,"instrument":1,"isDrum":true},{"pitch":44,"velocity":80,"startTime":20.689619999999998,"endTime":20.7142505,"instrument":1,"isDrum":true},{"pitch":51,"velocity":80,"startTime":20.689619999999998,"endTime":20.7142505,"instrument":1,"isDrum":true},{"pitch":51,"velocity":80,"startTime":20.886664,"endTime":20.911294499999997,"instrument":1,"isDrum":true},{"pitch":35,"velocity":80,"startTime":20.985186,"endTime":21.0098165,"instrument":1,"isDrum":true},{"pitch":37,"velocity":80,"startTime":20.985186,"endTime":21.0098165,"instrument":1,"isDrum":true},{"pitch":44,"velocity":80,"startTime":20.985186,"endTime":21.0098165,"instrument":1,"isDrum":true},{"pitch":51,"velocity":80,"startTime":20.985186,"endTime":21.0098165,"instrument":1,"isDrum":true},{"pitch":53,"velocity":80,"startTime":21.182229999999997,"endTime":21.280752,"instrument":1,"isDrum":true},{"pitch":44,"velocity":80,"startTime":21.280752,"endTime":21.305382499999997,"instrument":1,"isDrum":true},{"pitch":51,"velocity":80,"startTime":21.280752,"endTime":21.305382499999997,"instrument":1,"isDrum":true},{"pitch":35,"velocity":80,"startTime":21.477795999999998,"endTime":21.5024265,"instrument":1,"isDrum":true},{"pitch":51,"velocity":80,"startTime":21.477795999999998,"endTime":21.5024265,"instrument":1,"isDrum":true},{"pitch":35,"velocity":80,"startTime":21.576317999999997,"endTime":21.600948499999998,"instrument":1,"isDrum":true},{"pitch":37,"velocity":80,"startTime":21.576317999999997,"endTime":21.600948499999998,"instrument":1,"isDrum":true},{"pitch":38,"velocity":80,"startTime":21.576317999999997,"endTime":21.600948499999998,"instrument":1,"isDrum":true},{"pitch":44,"velocity":80,"startTime":21.576317999999997,"endTime":21.600948499999998,"instrument":1,"isDrum":true},{"pitch":51,"velocity":80,"startTime":21.576317999999997,"endTime":21.600948499999998,"instrument":1,"isDrum":true},{"pitch":53,"velocity":80,"startTime":21.576317999999997,"endTime":21.600948499999998,"instrument":1,"isDrum":true},{"pitch":51,"velocity":80,"startTime":21.773362,"endTime":21.7979925,"instrument":1,"isDrum":true},{"pitch":35,"velocity":80,"startTime":21.871883999999998,"endTime":21.8965145,"instrument":1,"isDrum":true},{"pitch":44,"velocity":80,"startTime":21.871883999999998,"endTime":21.8965145,"instrument":1,"isDrum":true},{"pitch":51,"velocity":80,"startTime":21.871883999999998,"endTime":21.8965145,"instrument":1,"isDrum":true},{"pitch":53,"velocity":80,"startTime":22.068928,"endTime":22.093558499999997,"instrument":1,"isDrum":true},{"pitch":35,"velocity":80,"startTime":22.16745,"endTime":22.1920805,"instrument":1,"isDrum":true},{"pitch":37,"velocity":80,"startTime":22.16745,"endTime":22.1920805,"instrument":1,"isDrum":true},{"pitch":44,"velocity":80,"startTime":22.16745,"endTime":22.1920805,"instrument":1,"isDrum":true},{"pitch":51,"velocity":80,"startTime":22.16745,"endTime":22.1920805,"instrument":1,"isDrum":true},{"pitch":51,"velocity":80,"startTime":22.364493999999997,"endTime":22.463016,"instrument":1,"isDrum":true},{"pitch":35,"velocity":80,"startTime":22.463016,"endTime":22.487646499999997,"instrument":1,"isDrum":true},{"pitch":44,"velocity":80,"startTime":22.463016,"endTime":22.487646499999997,"instrument":1,"isDrum":true},{"pitch":51,"velocity":80,"startTime":22.463016,"endTime":22.487646499999997,"instrument":1,"isDrum":true},{"pitch":35,"velocity":80,"startTime":22.660059999999998,"endTime":22.6846905,"instrument":1,"isDrum":true},{"pitch":51,"velocity":80,"startTime":22.660059999999998,"endTime":22.6846905,"instrument":1,"isDrum":true},{"pitch":35,"velocity":80,"startTime":22.758581999999997,"endTime":22.783212499999998,"instrument":1,"isDrum":true},{"pitch":37,"velocity":80,"startTime":22.758581999999997,"endTime":22.783212499999998,"instrument":1,"isDrum":true},{"pitch":44,"velocity":80,"startTime":22.758581999999997,"endTime":22.783212499999998,"instrument":1,"isDrum":true},{"pitch":51,"velocity":80,"startTime":22.758581999999997,"endTime":22.783212499999998,"instrument":1,"isDrum":true},{"pitch":51,"velocity":80,"startTime":22.955626,"endTime":23.054147999999998,"instrument":1,"isDrum":true},{"pitch":35,"velocity":80,"startTime":23.054147999999998,"endTime":23.0787785,"instrument":1,"isDrum":true},{"pitch":44,"velocity":80,"startTime":23.054147999999998,"endTime":23.0787785,"instrument":1,"isDrum":true},{"pitch":51,"velocity":80,"startTime":23.054147999999998,"endTime":23.0787785,"instrument":1,"isDrum":true},{"pitch":35,"velocity":80,"startTime":23.251192,"endTime":23.275822499999997,"instrument":1,"isDrum":true},{"pitch":51,"velocity":80,"startTime":23.251192,"endTime":23.275822499999997,"instrument":1,"isDrum":true},{"pitch":35,"velocity":80,"startTime":23.349714,"endTime":23.3743445,"instrument":1,"isDrum":true},{"pitch":37,"velocity":80,"startTime":23.349714,"endTime":23.3743445,"instrument":1,"isDrum":true},{"pitch":38,"velocity":80,"startTime":23.349714,"endTime":23.3743445,"instrument":1,"isDrum":true},{"pitch":44,"velocity":80,"startTime":23.349714,"endTime":23.3743445,"instrument":1,"isDrum":true},{"pitch":51,"velocity":80,"startTime":23.349714,"endTime":23.3743445,"instrument":1,"isDrum":true},{"pitch":53,"velocity":80,"startTime":23.349714,"endTime":23.3743445,"instrument":1,"isDrum":true},{"pitch":51,"velocity":80,"startTime":23.546757999999997,"endTime":23.571388499999998,"instrument":1,"isDrum":true},{"pitch":35,"velocity":80,"startTime":23.64528,"endTime":23.669910499999997,"instrument":1,"isDrum":true},{"pitch":44,"velocity":80,"startTime":23.64528,"endTime":23.669910499999997,"instrument":1,"isDrum":true},{"pitch":51,"velocity":80,"startTime":23.64528,"endTime":23.669910499999997,"instrument":1,"isDrum":true},{"pitch":35,"velocity":80,"startTime":23.842323999999998,"endTime":23.8669545,"instrument":1,"isDrum":true},{"pitch":53,"velocity":80,"startTime":23.842323999999998,"endTime":23.8669545,"instrument":1,"isDrum":true},{"pitch":35,"velocity":80,"startTime":23.940845999999997,"endTime":23.965476499999998,"instrument":1,"isDrum":true},{"pitch":37,"velocity":80,"startTime":23.940845999999997,"endTime":23.965476499999998,"instrument":1,"isDrum":true},{"pitch":38,"velocity":80,"startTime":23.940845999999997,"endTime":23.965476499999998,"instrument":1,"isDrum":true},{"pitch":44,"velocity":80,"startTime":23.940845999999997,"endTime":23.965476499999998,"instrument":1,"isDrum":true},{"pitch":51,"velocity":80,"startTime":23.940845999999997,"endTime":23.965476499999998,"instrument":1,"isDrum":true},{"pitch":51,"velocity":80,"startTime":24.13789,"endTime":24.1625205,"instrument":1,"isDrum":true},{"pitch":35,"velocity":80,"startTime":24.236411999999998,"endTime":24.2610425,"instrument":1,"isDrum":true},{"pitch":44,"velocity":80,"startTime":24.236411999999998,"endTime":24.2610425,"instrument":1,"isDrum":true},{"pitch":51,"velocity":80,"startTime":24.236411999999998,"endTime":24.2610425,"instrument":1,"isDrum":true},{"pitch":35,"velocity":80,"startTime":24.433456,"endTime":24.458086499999997,"instrument":1,"isDrum":true},{"pitch":51,"velocity":80,"startTime":24.433456,"endTime":24.458086499999997,"instrument":1,"isDrum":true},{"pitch":35,"velocity":80,"startTime":24.531978,"endTime":24.5566085,"instrument":1,"isDrum":true},{"pitch":37,"velocity":80,"startTime":24.531978,"endTime":24.5566085,"instrument":1,"isDrum":true},{"pitch":38,"velocity":80,"startTime":24.531978,"endTime":24.5566085,"instrument":1,"isDrum":true},{"pitch":44,"velocity":80,"startTime":24.531978,"endTime":24.5566085,"instrument":1,"isDrum":true},{"pitch":51,"velocity":80,"startTime":24.531978,"endTime":24.5566085,"instrument":1,"isDrum":true},{"pitch":51,"velocity":80,"startTime":24.729021999999997,"endTime":24.827544,"instrument":1,"isDrum":true},{"pitch":35,"velocity":80,"startTime":24.827544,"endTime":24.852174499999997,"instrument":1,"isDrum":true},{"pitch":44,"velocity":80,"startTime":24.827544,"endTime":24.852174499999997,"instrument":1,"isDrum":true},{"pitch":51,"velocity":80,"startTime":24.827544,"endTime":24.852174499999997,"instrument":1,"isDrum":true},{"pitch":35,"velocity":80,"startTime":25.024587999999998,"endTime":25.0492185,"instrument":1,"isDrum":true},{"pitch":51,"velocity":80,"startTime":25.024587999999998,"endTime":25.0492185,"instrument":1,"isDrum":true},{"pitch":35,"velocity":80,"startTime":25.123109999999997,"endTime":25.147740499999998,"instrument":1,"isDrum":true},{"pitch":37,"velocity":80,"startTime":25.123109999999997,"endTime":25.147740499999998,"instrument":1,"isDrum":true},{"pitch":38,"velocity":80,"startTime":25.123109999999997,"endTime":25.147740499999998,"instrument":1,"isDrum":true},{"pitch":44,"velocity":80,"startTime":25.123109999999997,"endTime":25.147740499999998,"instrument":1,"isDrum":true},{"pitch":51,"velocity":80,"startTime":25.123109999999997,"endTime":25.147740499999998,"instrument":1,"isDrum":true},{"pitch":51,"velocity":80,"startTime":25.320154,"endTime":25.418675999999998,"instrument":1,"isDrum":true},{"pitch":35,"velocity":80,"startTime":25.418675999999998,"endTime":25.4433065,"instrument":1,"isDrum":true},{"pitch":51,"velocity":80,"startTime":25.418675999999998,"endTime":25.4433065,"instrument":1,"isDrum":true},{"pitch":51,"velocity":80,"startTime":25.61572,"endTime":25.640350499999997,"instrument":1,"isDrum":true},{"pitch":35,"velocity":80,"startTime":25.714242,"endTime":25.7388725,"instrument":1,"isDrum":true},{"pitch":44,"velocity":80,"startTime":25.714242,"endTime":25.7388725,"instrument":1,"isDrum":true},{"pitch":51,"velocity":80,"startTime":25.714242,"endTime":25.7388725,"instrument":1,"isDrum":true},{"pitch":53,"velocity":80,"startTime":25.714242,"endTime":25.7388725,"instrument":1,"isDrum":true},{"pitch":51,"velocity":80,"startTime":25.911285999999997,"endTime":25.935916499999998,"instrument":1,"isDrum":true},{"pitch":35,"velocity":80,"startTime":26.009808,"endTime":26.034438499999997,"instrument":1,"isDrum":true},{"pitch":44,"velocity":80,"startTime":26.009808,"endTime":26.034438499999997,"instrument":1,"isDrum":true},{"pitch":51,"velocity":80,"startTime":26.009808,"endTime":26.034438499999997,"instrument":1,"isDrum":true},{"pitch":51,"velocity":80,"startTime":26.206851999999998,"endTime":26.2314825,"instrument":1,"isDrum":true},{"pitch":35,"velocity":80,"startTime":26.305373999999997,"endTime":26.330004499999998,"instrument":1,"isDrum":true},{"pitch":44,"velocity":80,"startTime":26.305373999999997,"endTime":26.330004499999998,"instrument":1,"isDrum":true},{"pitch":51,"velocity":80,"startTime":26.305373999999997,"endTime":26.330004499999998,"instrument":1,"isDrum":true},{"pitch":53,"velocity":80,"startTime":26.305373999999997,"endTime":26.330004499999998,"instrument":1,"isDrum":true},{"pitch":51,"velocity":80,"startTime":26.502418,"endTime":26.5270485,"instrument":1,"isDrum":true},{"pitch":35,"velocity":80,"startTime":26.600939999999998,"endTime":26.6255705,"instrument":1,"isDrum":true},{"pitch":44,"velocity":80,"startTime":26.600939999999998,"endTime":26.6255705,"instrument":1,"isDrum":true},{"pitch":51,"velocity":80,"startTime":26.600939999999998,"endTime":26.6255705,"instrument":1,"isDrum":true},{"pitch":35,"velocity":80,"startTime":26.797984,"endTime":26.822614499999997,"instrument":1,"isDrum":true},{"pitch":51,"velocity":80,"startTime":26.797984,"endTime":26.822614499999997,"instrument":1,"isDrum":true},{"pitch":35,"velocity":80,"startTime":26.896506,"endTime":26.9211365,"instrument":1,"isDrum":true},{"pitch":37,"velocity":80,"startTime":26.896506,"endTime":26.9211365,"instrument":1,"isDrum":true},{"pitch":38,"velocity":80,"startTime":26.896506,"endTime":26.9211365,"instrument":1,"isDrum":true},{"pitch":44,"velocity":80,"startTime":26.896506,"endTime":26.9211365,"instrument":1,"isDrum":true},{"pitch":51,"velocity":80,"startTime":26.896506,"endTime":26.9211365,"instrument":1,"isDrum":true},{"pitch":51,"velocity":80,"startTime":27.093549999999997,"endTime":27.118180499999998,"instrument":1,"isDrum":true},{"pitch":35,"velocity":80,"startTime":27.192072,"endTime":27.216702499999997,"instrument":1,"isDrum":true},{"pitch":44,"velocity":80,"startTime":27.192072,"endTime":27.216702499999997,"instrument":1,"isDrum":true},{"pitch":51,"velocity":80,"startTime":27.192072,"endTime":27.216702499999997,"instrument":1,"isDrum":true},{"pitch":35,"velocity":80,"startTime":27.389115999999998,"endTime":27.4137465,"instrument":1,"isDrum":true},{"pitch":51,"velocity":80,"startTime":27.389115999999998,"endTime":27.4137465,"instrument":1,"isDrum":true},{"pitch":35,"velocity":80,"startTime":27.487637999999997,"endTime":27.512268499999998,"instrument":1,"isDrum":true},{"pitch":37,"velocity":80,"startTime":27.487637999999997,"endTime":27.512268499999998,"instrument":1,"isDrum":true},{"pitch":38,"velocity":80,"startTime":27.487637999999997,"endTime":27.512268499999998,"instrument":1,"isDrum":true},{"pitch":44,"velocity":80,"startTime":27.487637999999997,"endTime":27.512268499999998,"instrument":1,"isDrum":true},{"pitch":51,"velocity":80,"startTime":27.487637999999997,"endTime":27.512268499999998,"instrument":1,"isDrum":true},{"pitch":51,"velocity":80,"startTime":27.684682,"endTime":27.783203999999998,"instrument":1,"isDrum":true},{"pitch":31,"velocity":103,"startTime":18.916224,"endTime":19.1378985,"instrument":2,"program":32},{"pitch":31,"velocity":103,"startTime":19.1378985,"endTime":19.211789999999997,"instrument":2,"program":32},{"pitch":35,"velocity":103,"startTime":19.211789999999997,"endTime":19.507355999999998,"instrument":2,"program":32},{"pitch":38,"velocity":103,"startTime":19.507355999999998,"endTime":19.802922,"instrument":2,"program":32},{"pitch":31,"velocity":103,"startTime":19.802922,"endTime":19.999966,"instrument":2,"program":32},{"pitch":31,"velocity":103,"startTime":20.024596499999998,"endTime":20.7142505,"instrument":2,"program":32},{"pitch":31,"velocity":103,"startTime":20.394053999999997,"endTime":20.443315,"instrument":2,"program":32},{"pitch":35,"velocity":103,"startTime":20.689619999999998,"endTime":20.985186,"instrument":2,"program":32},{"pitch":31,"velocity":103,"startTime":20.985186,"endTime":21.280752,"instrument":2,"program":32},{"pitch":28,"velocity":103,"startTime":21.280752,"endTime":21.625579,"instrument":2,"program":32},{"pitch":40,"velocity":103,"startTime":21.576317999999997,"endTime":22.16745,"instrument":2,"program":32},{"pitch":40,"velocity":103,"startTime":21.871883999999998,"endTime":21.8965145,"instrument":2,"program":32},{"pitch":35,"velocity":103,"startTime":22.16745,"endTime":22.463016,"instrument":2,"program":32},{"pitch":40,"velocity":103,"startTime":22.463016,"endTime":22.758581999999997,"instrument":2,"program":32},{"pitch":38,"velocity":103,"startTime":22.758581999999997,"endTime":23.054147999999998,"instrument":2,"program":32},{"pitch":40,"velocity":103,"startTime":23.054147999999998,"endTime":23.349714,"instrument":2,"program":32},{"pitch":35,"velocity":103,"startTime":23.349714,"endTime":23.64528,"instrument":2,"program":32},{"pitch":36,"velocity":103,"startTime":23.64528,"endTime":24.2610425,"instrument":2,"program":32},{"pitch":36,"velocity":103,"startTime":23.940845999999997,"endTime":23.990107,"instrument":2,"program":32},{"pitch":40,"velocity":103,"startTime":24.236411999999998,"endTime":24.581239,"instrument":2,"program":32},{"pitch":43,"velocity":103,"startTime":24.531978,"endTime":24.827544,"instrument":2,"program":32},{"pitch":38,"velocity":103,"startTime":24.827544,"endTime":25.0492185,"instrument":2,"program":32},{"pitch":26,"velocity":103,"startTime":25.0492185,"endTime":25.123109999999997,"instrument":2,"program":32},{"pitch":38,"velocity":103,"startTime":25.123109999999997,"endTime":25.418675999999998,"instrument":2,"program":32},{"pitch":38,"velocity":103,"startTime":25.418675999999998,"endTime":25.714242,"instrument":2,"program":32},{"pitch":31,"velocity":103,"startTime":25.714242,"endTime":26.009808,"instrument":2,"program":32},{"pitch":31,"velocity":103,"startTime":26.009808,"endTime":26.182221499999997,"instrument":2,"program":32},{"pitch":31,"velocity":103,"startTime":26.2314825,"endTime":26.305373999999997,"instrument":2,"program":32},{"pitch":35,"velocity":103,"startTime":26.305373999999997,"endTime":26.600939999999998,"instrument":2,"program":32},{"pitch":35,"velocity":103,"startTime":26.600939999999998,"endTime":26.896506,"instrument":2,"program":32},{"pitch":38,"velocity":103,"startTime":26.896506,"endTime":27.192072,"instrument":2,"program":32},{"pitch":31,"velocity":103,"startTime":27.192072,"endTime":27.536899,"instrument":2,"program":32},{"pitch":38,"velocity":103,"startTime":27.487637999999997,"endTime":27.783203999999998,"instrument":2,"program":32},{"pitch":38,"velocity":103,"startTime":27.783203999999998,"endTime":28.07877,"instrument":2,"program":32},{"pitch":31,"velocity":103,"startTime":28.07877,"endTime":28.374336,"instrument":2,"program":32},{"pitch":43,"velocity":57,"startTime":28.398966499999997,"endTime":28.620641},{"pitch":62,"velocity":57,"startTime":28.398966499999997,"endTime":28.6452715},{"pitch":67,"velocity":57,"startTime":28.398966499999997,"endTime":28.6452715},{"pitch":43,"velocity":57,"startTime":28.669901999999997,"endTime":28.916206999999996},{"pitch":62,"velocity":57,"startTime":28.669901999999997,"endTime":28.940837499999997},{"pitch":67,"velocity":57,"startTime":28.669901999999997,"endTime":28.916206999999996},{"pitch":43,"velocity":57,"startTime":29.187142499999997,"endTime":29.261034},{"pitch":64,"velocity":57,"startTime":29.2856645,"endTime":29.3841865},{"pitch":67,"velocity":57,"startTime":29.2856645,"endTime":29.3841865},{"pitch":43,"velocity":57,"startTime":29.7782745,"endTime":29.901426999999998},{"pitch":50,"velocity":57,"startTime":29.876796499999998,"endTime":29.901426999999998},{"pitch":57,"velocity":57,"startTime":29.876796499999998,"endTime":29.901426999999998},{"pitch":64,"velocity":57,"startTime":29.876796499999998,"endTime":29.9260575},{"pitch":67,"velocity":57,"startTime":29.876796499999998,"endTime":29.9260575},{"pitch":57,"velocity":57,"startTime":30.369406499999997,"endTime":30.418667499999998},{"pitch":64,"velocity":57,"startTime":30.369406499999997,"endTime":30.418667499999998},{"pitch":67,"velocity":57,"startTime":30.369406499999997,"endTime":30.418667499999998},{"pitch":50,"velocity":57,"startTime":30.394036999999997,"endTime":30.418667499999998},{"pitch":40,"velocity":57,"startTime":30.738864,"endTime":30.788124999999997},{"pitch":52,"velocity":57,"startTime":30.763494499999997,"endTime":30.812755499999998},{"pitch":56,"velocity":57,"startTime":30.763494499999997,"endTime":30.812755499999998},{"pitch":62,"velocity":57,"startTime":30.763494499999997,"endTime":30.812755499999998},{"pitch":40,"velocity":57,"startTime":31.2561045,"endTime":31.379257},{"pitch":50,"velocity":57,"startTime":31.3546265,"endTime":31.453148499999998},{"pitch":55,"velocity":57,"startTime":31.3546265,"endTime":31.428517999999997},{"pitch":59,"velocity":57,"startTime":31.3546265,"endTime":31.403887499999996},{"pitch":66,"velocity":57,"startTime":31.3546265,"endTime":31.428517999999997},{"pitch":40,"velocity":57,"startTime":31.921128,"endTime":32.01965},{"pitch":55,"velocity":57,"startTime":31.921128,"endTime":32.01965},{"pitch":59,"velocity":57,"startTime":31.921128,"endTime":31.995019499999998},{"pitch":64,"velocity":57,"startTime":31.921128,"endTime":32.01965},{"pitch":40,"velocity":57,"startTime":32.438368499999996,"endTime":32.561521},{"pitch":54,"velocity":57,"startTime":32.51226,"endTime":32.5861515},{"pitch":59,"velocity":57,"startTime":32.5368905,"endTime":32.5861515},{"pitch":62,"velocity":57,"startTime":33.103392,"endTime":33.152653},{"pitch":48,"velocity":57,"startTime":33.1280225,"endTime":33.177283499999994},{"pitch":55,"velocity":57,"startTime":33.1280225,"endTime":33.177283499999994},{"pitch":43,"velocity":57,"startTime":33.6206325,"endTime":33.6698935},{"pitch":62,"velocity":57,"startTime":33.694523999999994,"endTime":33.719154499999995},{"pitch":55,"velocity":57,"startTime":33.719154499999995,"endTime":33.793046},{"pitch":50,"velocity":57,"startTime":34.507330499999995,"endTime":34.556591499999996},{"pitch":57,"velocity":57,"startTime":34.581222,"endTime":34.630483},{"pitch":50,"velocity":57,"startTime":34.6058525,"endTime":34.630483},{"pitch":62,"velocity":57,"startTime":34.6058525,"endTime":34.6551135},{"pitch":50,"velocity":57,"startTime":35.0984625,"endTime":35.1477235},{"pitch":57,"velocity":57,"startTime":35.0984625,"endTime":35.123093},{"pitch":62,"velocity":57,"startTime":35.0984625,"endTime":35.1477235},{"pitch":43,"velocity":57,"startTime":35.6895945,"endTime":35.763486},{"pitch":57,"velocity":57,"startTime":35.7881165,"endTime":35.8866385},{"pitch":59,"velocity":57,"startTime":35.7881165,"endTime":35.862007999999996},{"pitch":62,"velocity":57,"startTime":35.7881165,"endTime":35.8866385},{"pitch":43,"velocity":57,"startTime":35.9851605,"endTime":36.059051999999994},{"pitch":43,"velocity":57,"startTime":36.108312999999995,"endTime":36.1822045},{"pitch":57,"velocity":57,"startTime":36.2807265,"endTime":36.329987499999994},{"pitch":59,"velocity":57,"startTime":36.2807265,"endTime":36.329987499999994},{"pitch":62,"velocity":57,"startTime":36.2807265,"endTime":36.329987499999994},{"pitch":43,"velocity":57,"startTime":36.5762925,"endTime":36.650183999999996},{"pitch":57,"velocity":57,"startTime":36.6748145,"endTime":36.748706},{"pitch":60,"velocity":57,"startTime":36.6748145,"endTime":36.7240755},{"pitch":64,"velocity":57,"startTime":36.6748145,"endTime":36.748706},{"pitch":67,"velocity":57,"startTime":36.6748145,"endTime":36.748706},{"pitch":43,"velocity":57,"startTime":37.167424499999996,"endTime":37.241316},{"pitch":57,"velocity":57,"startTime":37.167424499999996,"endTime":37.241316},{"pitch":60,"velocity":57,"startTime":37.167424499999996,"endTime":37.241316},{"pitch":67,"velocity":57,"startTime":37.167424499999996,"endTime":37.2659465},{"pitch":35,"velocity":80,"startTime":28.374336,"endTime":28.398966499999997,"instrument":1,"isDrum":true},{"pitch":44,"velocity":80,"startTime":28.374336,"endTime":28.398966499999997,"instrument":1,"isDrum":true},{"pitch":51,"velocity":80,"startTime":28.374336,"endTime":28.398966499999997,"instrument":1,"isDrum":true},{"pitch":53,"velocity":80,"startTime":28.374336,"endTime":28.398966499999997,"instrument":1,"isDrum":true},{"pitch":56,"velocity":80,"startTime":28.374336,"endTime":28.398966499999997,"instrument":1,"isDrum":true},{"pitch":35,"velocity":80,"startTime":28.571379999999998,"endTime":28.6452715,"instrument":1,"isDrum":true},{"pitch":53,"velocity":80,"startTime":28.571379999999998,"endTime":28.6452715,"instrument":1,"isDrum":true},{"pitch":35,"velocity":80,"startTime":28.669901999999997,"endTime":28.694532499999998,"instrument":1,"isDrum":true},{"pitch":44,"velocity":80,"startTime":28.669901999999997,"endTime":28.694532499999998,"instrument":1,"isDrum":true},{"pitch":51,"velocity":80,"startTime":28.669901999999997,"endTime":28.694532499999998,"instrument":1,"isDrum":true},{"pitch":53,"velocity":80,"startTime":28.669901999999997,"endTime":28.694532499999998,"instrument":1,"isDrum":true},{"pitch":56,"velocity":80,"startTime":28.669901999999997,"endTime":28.694532499999998,"instrument":1,"isDrum":true},{"pitch":35,"velocity":80,"startTime":28.866946,"endTime":28.940837499999997,"instrument":1,"isDrum":true},{"pitch":38,"velocity":80,"startTime":28.866946,"endTime":28.940837499999997,"instrument":1,"isDrum":true},{"pitch":51,"velocity":80,"startTime":28.866946,"endTime":28.940837499999997,"instrument":1,"isDrum":true},{"pitch":53,"velocity":80,"startTime":28.866946,"endTime":28.940837499999997,"instrument":1,"isDrum":true},{"pitch":35,"velocity":80,"startTime":28.965467999999998,"endTime":28.9900985,"instrument":1,"isDrum":true},{"pitch":44,"velocity":80,"startTime":28.965467999999998,"endTime":28.9900985,"instrument":1,"isDrum":true},{"pitch":51,"velocity":80,"startTime":28.965467999999998,"endTime":28.9900985,"instrument":1,"isDrum":true},{"pitch":56,"velocity":80,"startTime":28.965467999999998,"endTime":28.9900985,"instrument":1,"isDrum":true},{"pitch":35,"velocity":80,"startTime":29.162512,"endTime":29.236403499999998,"instrument":1,"isDrum":true},{"pitch":38,"velocity":80,"startTime":29.162512,"endTime":29.236403499999998,"instrument":1,"isDrum":true},{"pitch":51,"velocity":80,"startTime":29.162512,"endTime":29.236403499999998,"instrument":1,"isDrum":true},{"pitch":35,"velocity":80,"startTime":29.261034,"endTime":29.2856645,"instrument":1,"isDrum":true},{"pitch":44,"velocity":80,"startTime":29.261034,"endTime":29.2856645,"instrument":1,"isDrum":true},{"pitch":51,"velocity":80,"startTime":29.261034,"endTime":29.2856645,"instrument":1,"isDrum":true},{"pitch":53,"velocity":80,"startTime":29.261034,"endTime":29.2856645,"instrument":1,"isDrum":true},{"pitch":56,"velocity":80,"startTime":29.261034,"endTime":29.2856645,"instrument":1,"isDrum":true},{"pitch":35,"velocity":80,"startTime":29.458077999999997,"endTime":29.5319695,"instrument":1,"isDrum":true},{"pitch":38,"velocity":80,"startTime":29.458077999999997,"endTime":29.5319695,"instrument":1,"isDrum":true},{"pitch":51,"velocity":80,"startTime":29.458077999999997,"endTime":29.5319695,"instrument":1,"isDrum":true},{"pitch":35,"velocity":80,"startTime":29.5566,"endTime":29.605860999999997,"instrument":1,"isDrum":true},{"pitch":44,"velocity":80,"startTime":29.5566,"endTime":29.605860999999997,"instrument":1,"isDrum":true},{"pitch":51,"velocity":80,"startTime":29.5566,"endTime":29.605860999999997,"instrument":1,"isDrum":true},{"pitch":53,"velocity":80,"startTime":29.5566,"endTime":29.605860999999997,"instrument":1,"isDrum":true},{"pitch":56,"velocity":80,"startTime":29.5566,"endTime":29.605860999999997,"instrument":1,"isDrum":true},{"pitch":51,"velocity":80,"startTime":29.753643999999998,"endTime":29.827535499999996,"instrument":1,"isDrum":true},{"pitch":35,"velocity":80,"startTime":29.852165999999997,"endTime":29.901426999999998,"instrument":1,"isDrum":true},{"pitch":44,"velocity":80,"startTime":29.852165999999997,"endTime":29.901426999999998,"instrument":1,"isDrum":true},{"pitch":51,"velocity":80,"startTime":29.852165999999997,"endTime":29.901426999999998,"instrument":1,"isDrum":true},{"pitch":53,"velocity":80,"startTime":29.852165999999997,"endTime":29.901426999999998,"instrument":1,"isDrum":true},{"pitch":56,"velocity":80,"startTime":29.852165999999997,"endTime":29.901426999999998,"instrument":1,"isDrum":true},{"pitch":51,"velocity":80,"startTime":30.04921,"endTime":30.123101499999997,"instrument":1,"isDrum":true},{"pitch":35,"velocity":80,"startTime":30.147731999999998,"endTime":30.196993,"instrument":1,"isDrum":true},{"pitch":44,"velocity":80,"startTime":30.147731999999998,"endTime":30.196993,"instrument":1,"isDrum":true},{"pitch":51,"velocity":80,"startTime":30.147731999999998,"endTime":30.196993,"instrument":1,"isDrum":true},{"pitch":56,"velocity":80,"startTime":30.147731999999998,"endTime":30.196993,"instrument":1,"isDrum":true},{"pitch":51,"velocity":80,"startTime":30.344776,"endTime":30.418667499999998,"instrument":1,"isDrum":true},{"pitch":35,"velocity":80,"startTime":30.443298,"endTime":30.492558999999996,"instrument":1,"isDrum":true},{"pitch":44,"velocity":80,"startTime":30.443298,"endTime":30.492558999999996,"instrument":1,"isDrum":true},{"pitch":51,"velocity":80,"startTime":30.443298,"endTime":30.492558999999996,"instrument":1,"isDrum":true},{"pitch":56,"velocity":80,"startTime":30.443298,"endTime":30.492558999999996,"instrument":1,"isDrum":true},{"pitch":51,"velocity":80,"startTime":30.640341999999997,"endTime":30.7142335,"instrument":1,"isDrum":true},{"pitch":35,"velocity":80,"startTime":30.738864,"endTime":30.788124999999997,"instrument":1,"isDrum":true},{"pitch":44,"velocity":80,"startTime":30.738864,"endTime":30.788124999999997,"instrument":1,"isDrum":true},{"pitch":51,"velocity":80,"startTime":30.738864,"endTime":30.788124999999997,"instrument":1,"isDrum":true},{"pitch":53,"velocity":80,"startTime":30.738864,"endTime":30.788124999999997,"instrument":1,"isDrum":true},{"pitch":51,"velocity":80,"startTime":30.935907999999998,"endTime":31.009799499999996,"instrument":1,"isDrum":true},{"pitch":35,"velocity":80,"startTime":31.034429999999997,"endTime":31.083690999999998,"instrument":1,"isDrum":true},{"pitch":44,"velocity":80,"startTime":31.034429999999997,"endTime":31.083690999999998,"instrument":1,"isDrum":true},{"pitch":51,"velocity":80,"startTime":31.034429999999997,"endTime":31.083690999999998,"instrument":1,"isDrum":true},{"pitch":56,"velocity":80,"startTime":31.034429999999997,"endTime":31.083690999999998,"instrument":1,"isDrum":true},{"pitch":51,"velocity":80,"startTime":31.231474,"endTime":31.305365499999997,"instrument":1,"isDrum":true},{"pitch":35,"velocity":80,"startTime":31.329995999999998,"endTime":31.379257,"instrument":1,"isDrum":true},{"pitch":44,"velocity":80,"startTime":31.329995999999998,"endTime":31.379257,"instrument":1,"isDrum":true},{"pitch":51,"velocity":80,"startTime":31.329995999999998,"endTime":31.379257,"instrument":1,"isDrum":true},{"pitch":53,"velocity":80,"startTime":31.329995999999998,"endTime":31.379257,"instrument":1,"isDrum":true},{"pitch":56,"velocity":80,"startTime":31.329995999999998,"endTime":31.379257,"instrument":1,"isDrum":true},{"pitch":51,"velocity":80,"startTime":31.52704,"endTime":31.600931499999998,"instrument":1,"isDrum":true},{"pitch":35,"velocity":80,"startTime":31.625562,"endTime":31.674822999999996,"instrument":1,"isDrum":true},{"pitch":44,"velocity":80,"startTime":31.625562,"endTime":31.674822999999996,"instrument":1,"isDrum":true},{"pitch":51,"velocity":80,"startTime":31.625562,"endTime":31.674822999999996,"instrument":1,"isDrum":true},{"pitch":53,"velocity":80,"startTime":31.625562,"endTime":31.674822999999996,"instrument":1,"isDrum":true},{"pitch":56,"velocity":80,"startTime":31.625562,"endTime":31.674822999999996,"instrument":1,"isDrum":true},{"pitch":51,"velocity":80,"startTime":31.822605999999997,"endTime":31.8964975,"instrument":1,"isDrum":true},{"pitch":35,"velocity":80,"startTime":31.921128,"endTime":31.970388999999997,"instrument":1,"isDrum":true},{"pitch":44,"velocity":80,"startTime":31.921128,"endTime":31.970388999999997,"instrument":1,"isDrum":true},{"pitch":51,"velocity":80,"startTime":31.921128,"endTime":31.970388999999997,"instrument":1,"isDrum":true},{"pitch":53,"velocity":80,"startTime":31.921128,"endTime":31.970388999999997,"instrument":1,"isDrum":true},{"pitch":51,"velocity":80,"startTime":32.118172,"endTime":32.192063499999996,"instrument":1,"isDrum":true},{"pitch":35,"velocity":80,"startTime":32.216694,"endTime":32.265955,"instrument":1,"isDrum":true},{"pitch":44,"velocity":80,"startTime":32.216694,"endTime":32.265955,"instrument":1,"isDrum":true},{"pitch":51,"velocity":80,"startTime":32.216694,"endTime":32.265955,"instrument":1,"isDrum":true},{"pitch":56,"velocity":80,"startTime":32.216694,"endTime":32.265955,"instrument":1,"isDrum":true},{"pitch":53,"velocity":80,"startTime":32.216694,"endTime":32.265955,"instrument":1,"isDrum":true},{"pitch":51,"velocity":80,"startTime":32.413737999999995,"endTime":32.4876295,"instrument":1,"isDrum":true},{"pitch":35,"velocity":80,"startTime":32.51226,"endTime":32.561521,"instrument":1,"isDrum":true},{"pitch":44,"velocity":80,"startTime":32.51226,"endTime":32.561521,"instrument":1,"isDrum":true},{"pitch":51,"velocity":80,"startTime":32.51226,"endTime":32.561521,"instrument":1,"isDrum":true},{"pitch":53,"velocity":80,"startTime":32.51226,"endTime":32.561521,"instrument":1,"isDrum":true},{"pitch":51,"velocity":80,"startTime":32.709303999999996,"endTime":32.7831955,"instrument":1,"isDrum":true},{"pitch":35,"velocity":80,"startTime":32.807826,"endTime":32.857087,"instrument":1,"isDrum":true},{"pitch":44,"velocity":80,"startTime":32.807826,"endTime":32.857087,"instrument":1,"isDrum":true},{"pitch":51,"velocity":80,"startTime":32.807826,"endTime":32.857087,"instrument":1,"isDrum":true},{"pitch":56,"velocity":80,"startTime":32.807826,"endTime":32.857087,"instrument":1,"isDrum":true},{"pitch":51,"velocity":80,"startTime":33.00487,"endTime":33.0787615,"instrument":1,"isDrum":true},{"pitch":35,"velocity":80,"startTime":33.103392,"endTime":33.152653,"instrument":1,"isDrum":true},{"pitch":44,"velocity":80,"startTime":33.103392,"endTime":33.152653,"instrument":1,"isDrum":true},{"pitch":51,"velocity":80,"startTime":33.103392,"endTime":33.152653,"instrument":1,"isDrum":true},{"pitch":53,"velocity":80,"startTime":33.103392,"endTime":33.152653,"instrument":1,"isDrum":true},{"pitch":51,"velocity":80,"startTime":33.300436,"endTime":33.3743275,"instrument":1,"isDrum":true},{"pitch":35,"velocity":80,"startTime":33.398958,"endTime":33.448218999999995,"instrument":1,"isDrum":true},{"pitch":38,"velocity":80,"startTime":33.398958,"endTime":33.448218999999995,"instrument":1,"isDrum":true},{"pitch":44,"velocity":80,"startTime":33.398958,"endTime":33.448218999999995,"instrument":1,"isDrum":true},{"pitch":51,"velocity":80,"startTime":33.398958,"endTime":33.448218999999995,"instrument":1,"isDrum":true},{"pitch":53,"velocity":80,"startTime":33.398958,"endTime":33.448218999999995,"instrument":1,"isDrum":true},{"pitch":56,"velocity":80,"startTime":33.398958,"endTime":33.448218999999995,"instrument":1,"isDrum":true},{"pitch":35,"velocity":80,"startTime":33.596002,"endTime":33.6698935,"instrument":1,"isDrum":true},{"pitch":51,"velocity":80,"startTime":33.596002,"endTime":33.6698935,"instrument":1,"isDrum":true},{"pitch":35,"velocity":80,"startTime":33.694523999999994,"endTime":33.743784999999995,"instrument":1,"isDrum":true},{"pitch":44,"velocity":80,"startTime":33.694523999999994,"endTime":33.743784999999995,"instrument":1,"isDrum":true},{"pitch":51,"velocity":80,"startTime":33.694523999999994,"endTime":33.743784999999995,"instrument":1,"isDrum":true},{"pitch":53,"velocity":80,"startTime":33.694523999999994,"endTime":33.743784999999995,"instrument":1,"isDrum":true},{"pitch":56,"velocity":80,"startTime":33.694523999999994,"endTime":33.743784999999995,"instrument":1,"isDrum":true},{"pitch":51,"velocity":80,"startTime":33.793046,"endTime":33.8669375,"instrument":1,"isDrum":true},{"pitch":51,"velocity":80,"startTime":33.891568,"endTime":33.965459499999994,"instrument":1,"isDrum":true},{"pitch":35,"velocity":80,"startTime":33.990089999999995,"endTime":34.039350999999996,"instrument":1,"isDrum":true},{"pitch":44,"velocity":80,"startTime":33.990089999999995,"endTime":34.039350999999996,"instrument":1,"isDrum":true},{"pitch":51,"velocity":80,"startTime":33.990089999999995,"endTime":34.039350999999996,"instrument":1,"isDrum":true},{"pitch":53,"velocity":80,"startTime":33.990089999999995,"endTime":34.039350999999996,"instrument":1,"isDrum":true},{"pitch":56,"velocity":80,"startTime":33.990089999999995,"endTime":34.039350999999996,"instrument":1,"isDrum":true},{"pitch":51,"velocity":80,"startTime":34.187134,"endTime":34.261025499999995,"instrument":1,"isDrum":true},{"pitch":35,"velocity":80,"startTime":34.285655999999996,"endTime":34.334917,"instrument":1,"isDrum":true},{"pitch":44,"velocity":80,"startTime":34.285655999999996,"endTime":34.334917,"instrument":1,"isDrum":true},{"pitch":51,"velocity":80,"startTime":34.285655999999996,"endTime":34.334917,"instrument":1,"isDrum":true},{"pitch":53,"velocity":80,"startTime":34.285655999999996,"endTime":34.334917,"instrument":1,"isDrum":true},{"pitch":51,"velocity":80,"startTime":34.482699999999994,"endTime":34.556591499999996,"instrument":1,"isDrum":true},{"pitch":35,"velocity":80,"startTime":34.581222,"endTime":34.630483,"instrument":1,"isDrum":true},{"pitch":44,"velocity":80,"startTime":34.581222,"endTime":34.630483,"instrument":1,"isDrum":true},{"pitch":51,"velocity":80,"startTime":34.581222,"endTime":34.630483,"instrument":1,"isDrum":true},{"pitch":53,"velocity":80,"startTime":34.581222,"endTime":34.630483,"instrument":1,"isDrum":true},{"pitch":56,"velocity":80,"startTime":34.581222,"endTime":34.630483,"instrument":1,"isDrum":true},{"pitch":51,"velocity":80,"startTime":34.778265999999995,"endTime":34.8521575,"instrument":1,"isDrum":true},{"pitch":35,"velocity":80,"startTime":34.876788,"endTime":34.926049,"instrument":1,"isDrum":true},{"pitch":44,"velocity":80,"startTime":34.876788,"endTime":34.926049,"instrument":1,"isDrum":true},{"pitch":51,"velocity":80,"startTime":34.876788,"endTime":34.926049,"instrument":1,"isDrum":true},{"pitch":53,"velocity":80,"startTime":34.876788,"endTime":34.926049,"instrument":1,"isDrum":true},{"pitch":38,"velocity":80,"startTime":35.073831999999996,"endTime":35.1477235,"instrument":1,"isDrum":true},{"pitch":51,"velocity":80,"startTime":35.073831999999996,"endTime":35.1477235,"instrument":1,"isDrum":true},{"pitch":35,"velocity":80,"startTime":35.172354,"endTime":35.221615,"instrument":1,"isDrum":true},{"pitch":44,"velocity":80,"startTime":35.172354,"endTime":35.221615,"instrument":1,"isDrum":true},{"pitch":51,"velocity":80,"startTime":35.172354,"endTime":35.221615,"instrument":1,"isDrum":true},{"pitch":53,"velocity":80,"startTime":35.172354,"endTime":35.221615,"instrument":1,"isDrum":true},{"pitch":56,"velocity":80,"startTime":35.172354,"endTime":35.221615,"instrument":1,"isDrum":true},{"pitch":38,"velocity":80,"startTime":35.369398,"endTime":35.4432895,"instrument":1,"isDrum":true},{"pitch":51,"velocity":80,"startTime":35.369398,"endTime":35.4432895,"instrument":1,"isDrum":true},{"pitch":31,"velocity":103,"startTime":28.374336,"endTime":28.719162999999998,"instrument":2,"program":32},{"pitch":38,"velocity":103,"startTime":28.669901999999997,"endTime":28.9900985,"instrument":2,"program":32},{"pitch":43,"velocity":103,"startTime":28.965467999999998,"endTime":29.2856645,"instrument":2,"program":32},{"pitch":35,"velocity":103,"startTime":29.261034,"endTime":29.5566,"instrument":2,"program":32},{"pitch":31,"velocity":103,"startTime":29.5566,"endTime":29.7782745,"instrument":2,"program":32},{"pitch":31,"velocity":103,"startTime":29.7782745,"endTime":29.852165999999997,"instrument":2,"program":32},{"pitch":38,"velocity":103,"startTime":29.852165999999997,"endTime":30.147731999999998,"instrument":2,"program":32},{"pitch":38,"velocity":103,"startTime":30.147731999999998,"endTime":30.443298,"instrument":2,"program":32},{"pitch":31,"velocity":103,"startTime":30.443298,"endTime":30.664972499999998,"instrument":2,"program":32},{"pitch":31,"velocity":103,"startTime":30.664972499999998,"endTime":30.738864,"instrument":2,"program":32},{"pitch":28,"velocity":103,"startTime":30.738864,"endTime":31.034429999999997,"instrument":2,"program":32},{"pitch":30,"velocity":103,"startTime":31.034429999999997,"endTime":31.329995999999998,"instrument":2,"program":32},{"pitch":28,"velocity":103,"startTime":31.329995999999998,"endTime":31.625562,"instrument":2,"program":32},{"pitch":35,"velocity":103,"startTime":31.625562,"endTime":31.921128,"instrument":2,"program":32},{"pitch":28,"velocity":103,"startTime":31.921128,"endTime":32.265955,"instrument":2,"program":32},{"pitch":35,"velocity":103,"startTime":32.216694,"endTime":33.103392,"instrument":2,"program":32},{"pitch":35,"velocity":103,"startTime":32.51226,"endTime":32.5368905,"instrument":2,"program":32},{"pitch":35,"velocity":103,"startTime":32.807826,"endTime":32.857087,"instrument":2,"program":32},{"pitch":36,"velocity":103,"startTime":33.103392,"endTime":33.3250665,"instrument":2,"program":32},{"pitch":24,"velocity":103,"startTime":33.3250665,"endTime":33.398958,"instrument":2,"program":32},{"pitch":40,"velocity":103,"startTime":33.398958,"endTime":33.694523999999994,"instrument":2,"program":32},{"pitch":40,"velocity":103,"startTime":33.694523999999994,"endTime":33.990089999999995,"instrument":2,"program":32},{"pitch":36,"velocity":103,"startTime":33.990089999999995,"endTime":34.285655999999996,"instrument":2,"program":32},{"pitch":38,"velocity":103,"startTime":34.285655999999996,"endTime":34.556591499999996,"instrument":2,"program":32},{"pitch":33,"velocity":103,"startTime":34.507330499999995,"endTime":34.581222,"instrument":2,"program":32},{"pitch":42,"velocity":103,"startTime":34.581222,"endTime":34.876788,"instrument":2,"program":32},{"pitch":45,"velocity":103,"startTime":34.876788,"endTime":35.172354,"instrument":2,"program":32},{"pitch":40,"velocity":103,"startTime":35.172354,"endTime":35.46792,"instrument":2,"program":32},{"pitch":43,"velocity":103,"startTime":35.46792,"endTime":35.6895945,"instrument":2,"program":32},{"pitch":31,"velocity":103,"startTime":35.6895945,"endTime":35.7388555,"instrument":2,"program":32},{"pitch":45,"velocity":103,"startTime":35.763486,"endTime":36.059051999999994,"instrument":2,"program":32},{"pitch":47,"velocity":103,"startTime":36.059051999999994,"endTime":36.354617999999995,"instrument":2,"program":32},{"pitch":43,"velocity":103,"startTime":36.354617999999995,"endTime":36.5762925,"instrument":2,"program":32},{"pitch":31,"velocity":103,"startTime":36.5762925,"endTime":36.625553499999995,"instrument":2,"program":32},{"pitch":31,"velocity":103,"startTime":36.650183999999996,"endTime":36.871858499999995,"instrument":2,"program":32},{"pitch":31,"velocity":103,"startTime":36.871858499999995,"endTime":36.921119499999996,"instrument":2,"program":32},{"pitch":33,"velocity":103,"startTime":36.94575,"endTime":37.241316,"instrument":2,"program":32},{"pitch":38,"velocity":103,"startTime":37.241316,"endTime":37.536882,"instrument":2,"program":32},{"pitch":35,"velocity":103,"startTime":37.536882,"endTime":37.832448,"instrument":2,"program":32},{"pitch":43,"velocity":57,"startTime":37.832448,"endTime":37.906339499999994},{"pitch":55,"velocity":57,"startTime":37.8570785,"endTime":37.906339499999994},{"pitch":59,"velocity":57,"startTime":37.8570785,"endTime":37.93097},{"pitch":64,"velocity":57,"startTime":37.8570785,"endTime":37.93097},{"pitch":43,"velocity":57,"startTime":38.3496885,"endTime":38.54673249999999},{"pitch":55,"velocity":57,"startTime":38.3496885,"endTime":38.522102000000004},{"pitch":59,"velocity":57,"startTime":38.3496885,"endTime":38.522102000000004},{"pitch":64,"velocity":57,"startTime":38.3496885,"endTime":38.522102000000004},{"pitch":55,"velocity":57,"startTime":39.014711999999996,"endTime":39.113234},{"pitch":59,"velocity":57,"startTime":39.014711999999996,"endTime":39.0886035},{"pitch":43,"velocity":57,"startTime":39.039342500000004,"endTime":39.0886035},{"pitch":64,"velocity":57,"startTime":39.039342500000004,"endTime":39.0886035},{"pitch":43,"velocity":57,"startTime":39.531952499999996,"endTime":39.605844},{"pitch":59,"velocity":57,"startTime":39.531952499999996,"endTime":39.6304745},{"pitch":64,"velocity":57,"startTime":39.531952499999996,"endTime":39.6304745},{"pitch":69,"velocity":57,"startTime":39.531952499999996,"endTime":39.6304745},{"pitch":57,"velocity":57,"startTime":40.1230845,"endTime":40.196976},{"pitch":64,"velocity":57,"startTime":40.1230845,"endTime":40.196976},{"pitch":71,"velocity":57,"startTime":40.1230845,"endTime":40.196976},{"pitch":45,"velocity":57,"startTime":40.147715000000005,"endTime":40.196976},{"pitch":40,"velocity":57,"startTime":40.492542,"endTime":40.566433499999995},{"pitch":56,"velocity":57,"startTime":40.492542,"endTime":40.566433499999995},{"pitch":62,"velocity":57,"startTime":40.492542,"endTime":40.591063999999996},{"pitch":66,"velocity":57,"startTime":40.492542,"endTime":40.566433499999995},{"pitch":40,"velocity":57,"startTime":41.0097825,"endTime":41.108304499999996},{"pitch":55,"velocity":57,"startTime":41.0097825,"endTime":41.1575655},{"pitch":64,"velocity":57,"startTime":41.0097825,"endTime":41.083673999999995},{"pitch":40,"velocity":57,"startTime":41.379239999999996,"endTime":41.4531315},{"pitch":55,"velocity":57,"startTime":41.379239999999996,"endTime":41.4531315},{"pitch":59,"velocity":57,"startTime":41.4038705,"endTime":41.4531315},{"pitch":62,"velocity":57,"startTime":41.4038705,"endTime":41.4531315},{"pitch":55,"velocity":57,"startTime":41.896480499999996,"endTime":41.9950025},{"pitch":59,"velocity":57,"startTime":41.896480499999996,"endTime":41.9950025},{"pitch":64,"velocity":57,"startTime":41.896480499999996,"endTime":41.970372},{"pitch":62,"velocity":57,"startTime":41.921110999999996,"endTime":41.9950025},{"pitch":60,"velocity":57,"startTime":43.0787445,"endTime":43.103375},{"pitch":64,"velocity":57,"startTime":43.0787445,"endTime":43.103375},{"pitch":67,"velocity":57,"startTime":43.0787445,"endTime":43.1280055},{"pitch":60,"velocity":57,"startTime":43.743767999999996,"endTime":43.84229},{"pitch":64,"velocity":57,"startTime":43.743767999999996,"endTime":43.84229},{"pitch":67,"velocity":57,"startTime":43.743767999999996,"endTime":43.84229},{"pitch":69,"velocity":57,"startTime":43.743767999999996,"endTime":43.84229},{"pitch":62,"velocity":57,"startTime":44.8521405,"endTime":44.999923499999994},{"pitch":67,"velocity":57,"startTime":44.8521405,"endTime":44.999923499999994},{"pitch":69,"velocity":57,"startTime":44.8521405,"endTime":44.999923499999994},{"pitch":76,"velocity":57,"startTime":44.8521405,"endTime":44.999923499999994},{"pitch":57,"velocity":57,"startTime":45.4432725,"endTime":45.517163999999994},{"pitch":62,"velocity":57,"startTime":45.4432725,"endTime":45.517163999999994},{"pitch":69,"velocity":57,"startTime":45.4432725,"endTime":45.517163999999994},{"pitch":67,"velocity":57,"startTime":45.467903,"endTime":45.517163999999994},{"pitch":57,"velocity":57,"startTime":46.108295999999996,"endTime":46.206818},{"pitch":62,"velocity":57,"startTime":46.132926499999996,"endTime":46.206818},{"pitch":67,"velocity":57,"startTime":46.132926499999996,"endTime":46.206818},{"pitch":57,"velocity":57,"startTime":46.625536499999995,"endTime":46.699428},{"pitch":62,"velocity":57,"startTime":46.625536499999995,"endTime":46.699428},{"pitch":67,"velocity":57,"startTime":46.625536499999995,"endTime":46.699428},{"pitch":35,"velocity":80,"startTime":37.832448,"endTime":37.8570785,"instrument":1,"isDrum":true},{"pitch":44,"velocity":80,"startTime":37.832448,"endTime":37.8570785,"instrument":1,"isDrum":true},{"pitch":51,"velocity":80,"startTime":37.832448,"endTime":37.8570785,"instrument":1,"isDrum":true},{"pitch":35,"velocity":80,"startTime":38.02949199999999,"endTime":38.0541225,"instrument":1,"isDrum":true},{"pitch":51,"velocity":80,"startTime":38.02949199999999,"endTime":38.0541225,"instrument":1,"isDrum":true},{"pitch":53,"velocity":80,"startTime":38.02949199999999,"endTime":38.0541225,"instrument":1,"isDrum":true},{"pitch":38,"velocity":80,"startTime":38.128014,"endTime":38.177274999999995,"instrument":1,"isDrum":true},{"pitch":44,"velocity":80,"startTime":38.128014,"endTime":38.1526445,"instrument":1,"isDrum":true},{"pitch":51,"velocity":80,"startTime":38.128014,"endTime":38.177274999999995,"instrument":1,"isDrum":true},{"pitch":35,"velocity":80,"startTime":38.423579999999994,"endTime":38.4482105,"instrument":1,"isDrum":true},{"pitch":44,"velocity":80,"startTime":38.423579999999994,"endTime":38.4482105,"instrument":1,"isDrum":true},{"pitch":51,"velocity":80,"startTime":38.423579999999994,"endTime":38.4482105,"instrument":1,"isDrum":true},{"pitch":35,"velocity":80,"startTime":38.62062399999999,"endTime":38.6452545,"instrument":1,"isDrum":true},{"pitch":51,"velocity":80,"startTime":38.62062399999999,"endTime":38.6452545,"instrument":1,"isDrum":true},{"pitch":53,"velocity":80,"startTime":38.62062399999999,"endTime":38.6452545,"instrument":1,"isDrum":true},{"pitch":38,"velocity":80,"startTime":38.719145999999995,"endTime":38.7437765,"instrument":1,"isDrum":true},{"pitch":44,"velocity":80,"startTime":38.719145999999995,"endTime":38.7437765,"instrument":1,"isDrum":true},{"pitch":51,"velocity":80,"startTime":38.719145999999995,"endTime":38.7437765,"instrument":1,"isDrum":true},{"pitch":53,"velocity":80,"startTime":38.719145999999995,"endTime":38.7437765,"instrument":1,"isDrum":true},{"pitch":35,"velocity":80,"startTime":38.91618999999999,"endTime":38.940820499999994,"instrument":1,"isDrum":true},{"pitch":51,"velocity":80,"startTime":38.91618999999999,"endTime":38.940820499999994,"instrument":1,"isDrum":true},{"pitch":35,"velocity":80,"startTime":39.014711999999996,"endTime":39.039342500000004,"instrument":1,"isDrum":true},{"pitch":44,"velocity":80,"startTime":39.014711999999996,"endTime":39.039342500000004,"instrument":1,"isDrum":true},{"pitch":51,"velocity":80,"startTime":39.014711999999996,"endTime":39.039342500000004,"instrument":1,"isDrum":true},{"pitch":35,"velocity":80,"startTime":39.211755999999994,"endTime":39.236386499999995,"instrument":1,"isDrum":true},{"pitch":51,"velocity":80,"startTime":39.211755999999994,"endTime":39.236386499999995,"instrument":1,"isDrum":true},{"pitch":38,"velocity":80,"startTime":39.310278,"endTime":39.334908500000004,"instrument":1,"isDrum":true},{"pitch":44,"velocity":80,"startTime":39.310278,"endTime":39.334908500000004,"instrument":1,"isDrum":true},{"pitch":51,"velocity":80,"startTime":39.310278,"endTime":39.334908500000004,"instrument":1,"isDrum":true},{"pitch":53,"velocity":80,"startTime":39.310278,"endTime":39.334908500000004,"instrument":1,"isDrum":true},{"pitch":35,"velocity":80,"startTime":39.507321999999995,"endTime":39.531952499999996,"instrument":1,"isDrum":true},{"pitch":51,"velocity":80,"startTime":39.507321999999995,"endTime":39.531952499999996,"instrument":1,"isDrum":true},{"pitch":35,"velocity":80,"startTime":39.605844,"endTime":39.6304745,"instrument":1,"isDrum":true},{"pitch":44,"velocity":80,"startTime":39.605844,"endTime":39.6304745,"instrument":1,"isDrum":true},{"pitch":51,"velocity":80,"startTime":39.605844,"endTime":39.6304745,"instrument":1,"isDrum":true},{"pitch":35,"velocity":80,"startTime":39.802887999999996,"endTime":39.8275185,"instrument":1,"isDrum":true},{"pitch":51,"velocity":80,"startTime":39.802887999999996,"endTime":39.8275185,"instrument":1,"isDrum":true},{"pitch":38,"velocity":80,"startTime":39.90141,"endTime":39.9260405,"instrument":1,"isDrum":true},{"pitch":44,"velocity":80,"startTime":39.90141,"endTime":39.9260405,"instrument":1,"isDrum":true},{"pitch":51,"velocity":80,"startTime":39.90141,"endTime":39.9260405,"instrument":1,"isDrum":true},{"pitch":53,"velocity":80,"startTime":39.90141,"endTime":39.9260405,"instrument":1,"isDrum":true},{"pitch":35,"velocity":80,"startTime":40.09845399999999,"endTime":40.1230845,"instrument":1,"isDrum":true},{"pitch":51,"velocity":80,"startTime":40.09845399999999,"endTime":40.1230845,"instrument":1,"isDrum":true},{"pitch":35,"velocity":80,"startTime":40.196976,"endTime":40.2216065,"instrument":1,"isDrum":true},{"pitch":44,"velocity":80,"startTime":40.196976,"endTime":40.2216065,"instrument":1,"isDrum":true},{"pitch":51,"velocity":80,"startTime":40.196976,"endTime":40.2216065,"instrument":1,"isDrum":true},{"pitch":35,"velocity":80,"startTime":40.39402,"endTime":40.4186505,"instrument":1,"isDrum":true},{"pitch":51,"velocity":80,"startTime":40.39402,"endTime":40.4186505,"instrument":1,"isDrum":true},{"pitch":38,"velocity":80,"startTime":40.492542,"endTime":40.517172499999994,"instrument":1,"isDrum":true},{"pitch":44,"velocity":80,"startTime":40.492542,"endTime":40.517172499999994,"instrument":1,"isDrum":true},{"pitch":51,"velocity":80,"startTime":40.492542,"endTime":40.517172499999994,"instrument":1,"isDrum":true},{"pitch":53,"velocity":80,"startTime":40.492542,"endTime":40.517172499999994,"instrument":1,"isDrum":true},{"pitch":35,"velocity":80,"startTime":40.689586,"endTime":40.7142165,"instrument":1,"isDrum":true},{"pitch":51,"velocity":80,"startTime":40.689586,"endTime":40.7142165,"instrument":1,"isDrum":true},{"pitch":35,"velocity":80,"startTime":40.788107999999994,"endTime":40.812738499999995,"instrument":1,"isDrum":true},{"pitch":44,"velocity":80,"startTime":40.788107999999994,"endTime":40.812738499999995,"instrument":1,"isDrum":true},{"pitch":51,"velocity":80,"startTime":40.788107999999994,"endTime":40.812738499999995,"instrument":1,"isDrum":true},{"pitch":35,"velocity":80,"startTime":40.985152,"endTime":41.0097825,"instrument":1,"isDrum":true},{"pitch":51,"velocity":80,"startTime":40.985152,"endTime":41.0097825,"instrument":1,"isDrum":true},{"pitch":38,"velocity":80,"startTime":41.083673999999995,"endTime":41.108304499999996,"instrument":1,"isDrum":true},{"pitch":44,"velocity":80,"startTime":41.083673999999995,"endTime":41.108304499999996,"instrument":1,"isDrum":true},{"pitch":51,"velocity":80,"startTime":41.083673999999995,"endTime":41.108304499999996,"instrument":1,"isDrum":true},{"pitch":53,"velocity":80,"startTime":41.083673999999995,"endTime":41.108304499999996,"instrument":1,"isDrum":true},{"pitch":35,"velocity":80,"startTime":41.280718,"endTime":41.305348499999994,"instrument":1,"isDrum":true},{"pitch":51,"velocity":80,"startTime":41.280718,"endTime":41.305348499999994,"instrument":1,"isDrum":true},{"pitch":35,"velocity":80,"startTime":41.379239999999996,"endTime":41.4038705,"instrument":1,"isDrum":true},{"pitch":44,"velocity":80,"startTime":41.379239999999996,"endTime":41.4038705,"instrument":1,"isDrum":true},{"pitch":51,"velocity":80,"startTime":41.379239999999996,"endTime":41.4038705,"instrument":1,"isDrum":true},{"pitch":35,"velocity":80,"startTime":41.576283999999994,"endTime":41.600914499999995,"instrument":1,"isDrum":true},{"pitch":51,"velocity":80,"startTime":41.576283999999994,"endTime":41.600914499999995,"instrument":1,"isDrum":true},{"pitch":38,"velocity":80,"startTime":41.674806,"endTime":41.6994365,"instrument":1,"isDrum":true},{"pitch":44,"velocity":80,"startTime":41.674806,"endTime":41.6994365,"instrument":1,"isDrum":true},{"pitch":51,"velocity":80,"startTime":41.674806,"endTime":41.6994365,"instrument":1,"isDrum":true},{"pitch":53,"velocity":80,"startTime":41.674806,"endTime":41.6994365,"instrument":1,"isDrum":true},{"pitch":35,"velocity":80,"startTime":41.871849999999995,"endTime":41.896480499999996,"instrument":1,"isDrum":true},{"pitch":51,"velocity":80,"startTime":41.871849999999995,"endTime":41.896480499999996,"instrument":1,"isDrum":true},{"pitch":35,"velocity":80,"startTime":41.970372,"endTime":41.9950025,"instrument":1,"isDrum":true},{"pitch":44,"velocity":80,"startTime":41.970372,"endTime":41.9950025,"instrument":1,"isDrum":true},{"pitch":51,"velocity":80,"startTime":41.970372,"endTime":41.9950025,"instrument":1,"isDrum":true},{"pitch":35,"velocity":80,"startTime":42.167415999999996,"endTime":42.1920465,"instrument":1,"isDrum":true},{"pitch":51,"velocity":80,"startTime":42.167415999999996,"endTime":42.1920465,"instrument":1,"isDrum":true},{"pitch":38,"velocity":80,"startTime":42.265938,"endTime":42.2905685,"instrument":1,"isDrum":true},{"pitch":44,"velocity":80,"startTime":42.265938,"endTime":42.2905685,"instrument":1,"isDrum":true},{"pitch":51,"velocity":80,"startTime":42.265938,"endTime":42.2905685,"instrument":1,"isDrum":true},{"pitch":53,"velocity":80,"startTime":42.265938,"endTime":42.2905685,"instrument":1,"isDrum":true},{"pitch":35,"velocity":80,"startTime":42.462982,"endTime":42.4876125,"instrument":1,"isDrum":true},{"pitch":51,"velocity":80,"startTime":42.462982,"endTime":42.4876125,"instrument":1,"isDrum":true},{"pitch":35,"velocity":80,"startTime":42.561504,"endTime":42.5861345,"instrument":1,"isDrum":true},{"pitch":44,"velocity":80,"startTime":42.561504,"endTime":42.5861345,"instrument":1,"isDrum":true},{"pitch":53,"velocity":80,"startTime":42.561504,"endTime":42.5861345,"instrument":1,"isDrum":true},{"pitch":35,"velocity":80,"startTime":42.758548,"endTime":42.7831785,"instrument":1,"isDrum":true},{"pitch":51,"velocity":80,"startTime":42.758548,"endTime":42.7831785,"instrument":1,"isDrum":true},{"pitch":38,"velocity":80,"startTime":42.85707,"endTime":42.881700499999994,"instrument":1,"isDrum":true},{"pitch":44,"velocity":80,"startTime":42.85707,"endTime":42.881700499999994,"instrument":1,"isDrum":true},{"pitch":51,"velocity":80,"startTime":42.85707,"endTime":42.881700499999994,"instrument":1,"isDrum":true},{"pitch":53,"velocity":80,"startTime":42.85707,"endTime":42.881700499999994,"instrument":1,"isDrum":true},{"pitch":35,"velocity":80,"startTime":43.054114,"endTime":43.0787445,"instrument":1,"isDrum":true},{"pitch":51,"velocity":80,"startTime":43.054114,"endTime":43.0787445,"instrument":1,"isDrum":true},{"pitch":35,"velocity":80,"startTime":43.152635999999994,"endTime":43.177266499999995,"instrument":1,"isDrum":true},{"pitch":44,"velocity":80,"startTime":43.152635999999994,"endTime":43.177266499999995,"instrument":1,"isDrum":true},{"pitch":51,"velocity":80,"startTime":43.152635999999994,"endTime":43.177266499999995,"instrument":1,"isDrum":true},{"pitch":35,"velocity":80,"startTime":43.34968,"endTime":43.3743105,"instrument":1,"isDrum":true},{"pitch":51,"velocity":80,"startTime":43.34968,"endTime":43.3743105,"instrument":1,"isDrum":true},{"pitch":38,"velocity":80,"startTime":43.448201999999995,"endTime":43.472832499999996,"instrument":1,"isDrum":true},{"pitch":44,"velocity":80,"startTime":43.448201999999995,"endTime":43.472832499999996,"instrument":1,"isDrum":true},{"pitch":51,"velocity":80,"startTime":43.448201999999995,"endTime":43.472832499999996,"instrument":1,"isDrum":true},{"pitch":53,"velocity":80,"startTime":43.448201999999995,"endTime":43.472832499999996,"instrument":1,"isDrum":true},{"pitch":35,"velocity":80,"startTime":43.645246,"endTime":43.669876499999994,"instrument":1,"isDrum":true},{"pitch":51,"velocity":80,"startTime":43.645246,"endTime":43.669876499999994,"instrument":1,"isDrum":true},{"pitch":35,"velocity":80,"startTime":43.743767999999996,"endTime":43.768398499999996,"instrument":1,"isDrum":true},{"pitch":44,"velocity":80,"startTime":43.743767999999996,"endTime":43.768398499999996,"instrument":1,"isDrum":true},{"pitch":51,"velocity":80,"startTime":43.743767999999996,"endTime":43.768398499999996,"instrument":1,"isDrum":true},{"pitch":35,"velocity":80,"startTime":43.940811999999994,"endTime":43.965442499999995,"instrument":1,"isDrum":true},{"pitch":51,"velocity":80,"startTime":43.940811999999994,"endTime":43.965442499999995,"instrument":1,"isDrum":true},{"pitch":38,"velocity":80,"startTime":44.039334,"endTime":44.0639645,"instrument":1,"isDrum":true},{"pitch":44,"velocity":80,"startTime":44.039334,"endTime":44.0639645,"instrument":1,"isDrum":true},{"pitch":51,"velocity":80,"startTime":44.039334,"endTime":44.0639645,"instrument":1,"isDrum":true},{"pitch":53,"velocity":80,"startTime":44.039334,"endTime":44.0639645,"instrument":1,"isDrum":true},{"pitch":35,"velocity":80,"startTime":44.236377999999995,"endTime":44.3102695,"instrument":1,"isDrum":true},{"pitch":51,"velocity":80,"startTime":44.236377999999995,"endTime":44.261008499999996,"instrument":1,"isDrum":true},{"pitch":35,"velocity":80,"startTime":44.3349,"endTime":44.3595305,"instrument":1,"isDrum":true},{"pitch":44,"velocity":80,"startTime":44.3349,"endTime":44.3595305,"instrument":1,"isDrum":true},{"pitch":51,"velocity":80,"startTime":44.3349,"endTime":44.3595305,"instrument":1,"isDrum":true},{"pitch":35,"velocity":80,"startTime":44.531943999999996,"endTime":44.556574499999996,"instrument":1,"isDrum":true},{"pitch":51,"velocity":80,"startTime":44.531943999999996,"endTime":44.556574499999996,"instrument":1,"isDrum":true},{"pitch":38,"velocity":80,"startTime":44.630466,"endTime":44.6550965,"instrument":1,"isDrum":true},{"pitch":44,"velocity":80,"startTime":44.630466,"endTime":44.6550965,"instrument":1,"isDrum":true},{"pitch":51,"velocity":80,"startTime":44.630466,"endTime":44.6550965,"instrument":1,"isDrum":true},{"pitch":53,"velocity":80,"startTime":44.630466,"endTime":44.6550965,"instrument":1,"isDrum":true},{"pitch":35,"velocity":80,"startTime":44.82751,"endTime":44.8521405,"instrument":1,"isDrum":true},{"pitch":51,"velocity":80,"startTime":44.82751,"endTime":44.8521405,"instrument":1,"isDrum":true},{"pitch":35,"velocity":80,"startTime":44.926032,"endTime":44.9506625,"instrument":1,"isDrum":true},{"pitch":44,"velocity":80,"startTime":44.926032,"endTime":44.9506625,"instrument":1,"isDrum":true},{"pitch":51,"velocity":80,"startTime":44.926032,"endTime":44.9506625,"instrument":1,"isDrum":true},{"pitch":35,"velocity":80,"startTime":45.123076,"endTime":45.1477065,"instrument":1,"isDrum":true},{"pitch":51,"velocity":80,"startTime":45.123076,"endTime":45.1477065,"instrument":1,"isDrum":true},{"pitch":38,"velocity":80,"startTime":45.221598,"endTime":45.246228499999994,"instrument":1,"isDrum":true},{"pitch":44,"velocity":80,"startTime":45.221598,"endTime":45.246228499999994,"instrument":1,"isDrum":true},{"pitch":51,"velocity":80,"startTime":45.221598,"endTime":45.246228499999994,"instrument":1,"isDrum":true},{"pitch":53,"velocity":80,"startTime":45.221598,"endTime":45.246228499999994,"instrument":1,"isDrum":true},{"pitch":35,"velocity":80,"startTime":45.418642,"endTime":45.4432725,"instrument":1,"isDrum":true},{"pitch":51,"velocity":80,"startTime":45.418642,"endTime":45.4432725,"instrument":1,"isDrum":true},{"pitch":43,"velocity":103,"startTime":37.832448,"endTime":38.0541225,"instrument":2,"program":32},{"pitch":31,"velocity":103,"startTime":38.0541225,"endTime":38.10338349999999,"instrument":2,"program":32},{"pitch":43,"velocity":103,"startTime":38.128014,"endTime":38.423579999999994,"instrument":2,"program":32},{"pitch":47,"velocity":103,"startTime":38.423579999999994,"endTime":38.694515499999994,"instrument":2,"program":32},{"pitch":31,"velocity":103,"startTime":38.62062399999999,"endTime":38.694515499999994,"instrument":2,"program":32},{"pitch":47,"velocity":103,"startTime":38.719145999999995,"endTime":39.014711999999996,"instrument":2,"program":32},{"pitch":43,"velocity":103,"startTime":39.014711999999996,"endTime":39.236386499999995,"instrument":2,"program":32},{"pitch":31,"velocity":103,"startTime":39.236386499999995,"endTime":39.285647499999996,"instrument":2,"program":32},{"pitch":43,"velocity":103,"startTime":39.310278,"endTime":39.605844,"instrument":2,"program":32},{"pitch":43,"velocity":103,"startTime":39.605844,"endTime":39.802887999999996,"instrument":2,"program":32},{"pitch":31,"velocity":103,"startTime":39.8275185,"endTime":39.87677949999999,"instrument":2,"program":32},{"pitch":43,"velocity":103,"startTime":39.90141,"endTime":40.1230845,"instrument":2,"program":32},{"pitch":31,"velocity":103,"startTime":40.1230845,"endTime":40.17234549999999,"instrument":2,"program":32},{"pitch":28,"velocity":103,"startTime":40.196976,"endTime":40.4186505,"instrument":2,"program":32},{"pitch":28,"velocity":103,"startTime":40.4186505,"endTime":40.4679115,"instrument":2,"program":32},{"pitch":40,"velocity":103,"startTime":40.492542,"endTime":40.788107999999994,"instrument":2,"program":32},{"pitch":37,"velocity":103,"startTime":40.788107999999994,"endTime":41.0097825,"instrument":2,"program":32},{"pitch":32,"velocity":103,"startTime":41.0097825,"endTime":41.059043499999994,"instrument":2,"program":32},{"pitch":35,"velocity":103,"startTime":41.083673999999995,"endTime":41.305348499999994,"instrument":2,"program":32},{"pitch":28,"velocity":103,"startTime":41.305348499999994,"endTime":41.354609499999995,"instrument":2,"program":32},{"pitch":40,"velocity":103,"startTime":41.379239999999996,"endTime":41.674806,"instrument":2,"program":32},{"pitch":47,"velocity":103,"startTime":41.674806,"endTime":41.970372,"instrument":2,"program":32},{"pitch":47,"velocity":103,"startTime":41.970372,"endTime":42.265938,"instrument":2,"program":32},{"pitch":47,"velocity":103,"startTime":42.265938,"endTime":42.561504,"instrument":2,"program":32},{"pitch":36,"velocity":103,"startTime":42.561504,"endTime":42.85707,"instrument":2,"program":32},{"pitch":36,"velocity":103,"startTime":42.85707,"endTime":43.152635999999994,"instrument":2,"program":32},{"pitch":40,"velocity":103,"startTime":43.152635999999994,"endTime":43.448201999999995,"instrument":2,"program":32},{"pitch":43,"velocity":103,"startTime":43.448201999999995,"endTime":43.669876499999994,"instrument":2,"program":32},{"pitch":36,"velocity":103,"startTime":43.669876499999994,"endTime":43.719137499999995,"instrument":2,"program":32},{"pitch":38,"velocity":103,"startTime":43.743767999999996,"endTime":44.039334,"instrument":2,"program":32},{"pitch":42,"velocity":103,"startTime":44.039334,"endTime":44.3349,"instrument":2,"program":32},{"pitch":45,"velocity":103,"startTime":44.3349,"endTime":44.630466,"instrument":2,"program":32},{"pitch":42,"velocity":103,"startTime":44.630466,"endTime":44.8521405,"instrument":2,"program":32},{"pitch":45,"velocity":103,"startTime":44.8521405,"endTime":44.9014015,"instrument":2,"program":32},{"pitch":43,"velocity":103,"startTime":44.926032,"endTime":45.1477065,"instrument":2,"program":32},{"pitch":31,"velocity":103,"startTime":45.1477065,"endTime":45.1969675,"instrument":2,"program":32},{"pitch":43,"velocity":103,"startTime":45.221598,"endTime":45.517163999999994,"instrument":2,"program":32},{"pitch":41,"velocity":103,"startTime":45.517163999999994,"endTime":45.812729999999995,"instrument":2,"program":32},{"pitch":43,"velocity":103,"startTime":45.812729999999995,"endTime":46.009774,"instrument":2,"program":32},{"pitch":31,"velocity":103,"startTime":46.034404499999994,"endTime":46.083665499999995,"instrument":2,"program":32},{"pitch":43,"velocity":103,"startTime":46.108295999999996,"endTime":46.329970499999995,"instrument":2,"program":32},{"pitch":31,"velocity":103,"startTime":46.329970499999995,"endTime":46.379231499999996,"instrument":2,"program":32},{"pitch":38,"velocity":103,"startTime":46.403862,"endTime":46.699428,"instrument":2,"program":32},{"pitch":35,"velocity":103,"startTime":46.699428,"endTime":46.896471999999996,"instrument":2,"program":32},{"pitch":31,"velocity":103,"startTime":46.921102499999996,"endTime":46.9703635,"instrument":2,"program":32},{"pitch":38,"velocity":103,"startTime":46.994994,"endTime":47.2166685,"instrument":2,"program":32},{"pitch":31,"velocity":103,"startTime":47.2166685,"endTime":47.2659295,"instrument":2,"program":32},{"pitch":43,"velocity":57,"startTime":47.3151905,"endTime":47.389081999999995},{"pitch":59,"velocity":57,"startTime":47.3151905,"endTime":47.389081999999995},{"pitch":62,"velocity":57,"startTime":47.3151905,"endTime":47.389081999999995},{"pitch":67,"velocity":57,"startTime":47.3151905,"endTime":47.413712499999995},{"pitch":43,"velocity":57,"startTime":47.906322499999995,"endTime":47.980214},{"pitch":59,"velocity":57,"startTime":47.906322499999995,"endTime":47.980214},{"pitch":62,"velocity":57,"startTime":47.906322499999995,"endTime":47.980214},{"pitch":67,"velocity":57,"startTime":47.906322499999995,"endTime":48.0048445},{"pitch":43,"velocity":57,"startTime":48.472823999999996,"endTime":48.571346},{"pitch":59,"velocity":57,"startTime":48.472823999999996,"endTime":48.5959765},{"pitch":62,"velocity":57,"startTime":48.472823999999996,"endTime":48.5959765},{"pitch":66,"velocity":57,"startTime":48.472823999999996,"endTime":48.5959765},{"pitch":40,"velocity":57,"startTime":49.655088,"endTime":49.728979499999994},{"pitch":59,"velocity":57,"startTime":49.655088,"endTime":49.728979499999994},{"pitch":50,"velocity":57,"startTime":49.6797185,"endTime":49.753609999999995},{"pitch":56,"velocity":57,"startTime":49.6797185,"endTime":49.728979499999994},{"pitch":66,"velocity":57,"startTime":49.6797185,"endTime":49.753609999999995},{"pitch":40,"velocity":57,"startTime":50.837351999999996,"endTime":50.935874},{"pitch":59,"velocity":57,"startTime":50.837351999999996,"endTime":50.935874},{"pitch":55,"velocity":57,"startTime":50.861982499999996,"endTime":50.9112435},{"pitch":52,"velocity":57,"startTime":50.886613,"endTime":50.9112435},{"pitch":40,"velocity":57,"startTime":51.034395999999994,"endTime":51.108287499999996},{"pitch":52,"velocity":57,"startTime":51.034395999999994,"endTime":51.132918},{"pitch":55,"velocity":57,"startTime":51.034395999999994,"endTime":51.108287499999996},{"pitch":59,"velocity":57,"startTime":51.034395999999994,"endTime":51.108287499999996},{"pitch":45,"velocity":57,"startTime":51.428484,"endTime":51.52700599999999},{"pitch":55,"velocity":57,"startTime":51.4531145,"endTime":51.52700599999999},{"pitch":59,"velocity":57,"startTime":51.4531145,"endTime":51.5023755},{"pitch":64,"velocity":57,"startTime":51.4531145,"endTime":51.52700599999999},{"pitch":48,"velocity":57,"startTime":52.019616,"endTime":52.093507499999994},{"pitch":59,"velocity":57,"startTime":52.019616,"endTime":52.06887699999999},{"pitch":62,"velocity":57,"startTime":52.019616,"endTime":52.093507499999994},{"pitch":64,"velocity":57,"startTime":52.019616,"endTime":52.093507499999994},{"pitch":48,"velocity":57,"startTime":52.5368565,"endTime":52.610747999999994},{"pitch":57,"velocity":57,"startTime":52.5368565,"endTime":52.610747999999994},{"pitch":59,"velocity":57,"startTime":52.5368565,"endTime":52.610747999999994},{"pitch":62,"velocity":57,"startTime":52.5368565,"endTime":52.610747999999994},{"pitch":64,"velocity":57,"startTime":52.5368565,"endTime":52.610747999999994},{"pitch":50,"velocity":57,"startTime":53.201879999999996,"endTime":53.2757715},{"pitch":60,"velocity":57,"startTime":53.201879999999996,"endTime":53.300402},{"pitch":64,"velocity":57,"startTime":53.201879999999996,"endTime":53.300402},{"pitch":69,"velocity":57,"startTime":53.201879999999996,"endTime":53.300402},{"pitch":50,"velocity":57,"startTime":54.285622,"endTime":54.384144},{"pitch":59,"velocity":57,"startTime":54.285622,"endTime":54.384144},{"pitch":62,"velocity":57,"startTime":54.285622,"endTime":54.384144},{"pitch":69,"velocity":57,"startTime":54.285622,"endTime":54.384144},{"pitch":55,"velocity":57,"startTime":54.67970999999999,"endTime":54.728970999999994},{"pitch":59,"velocity":57,"startTime":54.67970999999999,"endTime":54.728970999999994},{"pitch":64,"velocity":57,"startTime":54.67970999999999,"endTime":54.728970999999994},{"pitch":69,"velocity":57,"startTime":54.67970999999999,"endTime":54.728970999999994},{"pitch":43,"velocity":57,"startTime":54.876754,"endTime":54.95064549999999},{"pitch":55,"velocity":57,"startTime":54.975275999999994,"endTime":55.049167499999996},{"pitch":59,"velocity":57,"startTime":54.975275999999994,"endTime":55.073798},{"pitch":64,"velocity":57,"startTime":54.975275999999994,"endTime":55.073798},{"pitch":69,"velocity":57,"startTime":54.975275999999994,"endTime":55.073798},{"pitch":43,"velocity":57,"startTime":55.492516499999994,"endTime":56.65015},{"pitch":59,"velocity":57,"startTime":55.492516499999994,"endTime":56.65015},{"pitch":62,"velocity":57,"startTime":55.492516499999994,"endTime":56.65015},{"pitch":69,"velocity":57,"startTime":55.492516499999994,"endTime":56.65015},{"pitch":35,"velocity":80,"startTime":47.29056,"endTime":47.3151905,"instrument":1,"isDrum":true},{"pitch":44,"velocity":80,"startTime":47.29056,"endTime":47.3151905,"instrument":1,"isDrum":true},{"pitch":51,"velocity":80,"startTime":47.29056,"endTime":47.3151905,"instrument":1,"isDrum":true},{"pitch":51,"velocity":80,"startTime":47.487604,"endTime":47.5122345,"instrument":1,"isDrum":true},{"pitch":35,"velocity":80,"startTime":47.586126,"endTime":47.610756499999994,"instrument":1,"isDrum":true},{"pitch":37,"velocity":80,"startTime":47.586126,"endTime":47.610756499999994,"instrument":1,"isDrum":true},{"pitch":44,"velocity":80,"startTime":47.586126,"endTime":47.610756499999994,"instrument":1,"isDrum":true},{"pitch":51,"velocity":80,"startTime":47.586126,"endTime":47.610756499999994,"instrument":1,"isDrum":true},{"pitch":53,"velocity":80,"startTime":47.586126,"endTime":47.610756499999994,"instrument":1,"isDrum":true},{"pitch":54,"velocity":80,"startTime":47.586126,"endTime":47.610756499999994,"instrument":1,"isDrum":true},{"pitch":51,"velocity":80,"startTime":47.78317,"endTime":47.85706149999999,"instrument":1,"isDrum":true},{"pitch":35,"velocity":80,"startTime":47.881691999999994,"endTime":47.906322499999995,"instrument":1,"isDrum":true},{"pitch":44,"velocity":80,"startTime":47.881691999999994,"endTime":47.906322499999995,"instrument":1,"isDrum":true},{"pitch":51,"velocity":80,"startTime":47.881691999999994,"endTime":47.906322499999995,"instrument":1,"isDrum":true},{"pitch":51,"velocity":80,"startTime":48.078736,"endTime":48.1033665,"instrument":1,"isDrum":true},{"pitch":35,"velocity":80,"startTime":48.177257999999995,"endTime":48.201888499999995,"instrument":1,"isDrum":true},{"pitch":37,"velocity":80,"startTime":48.177257999999995,"endTime":48.201888499999995,"instrument":1,"isDrum":true},{"pitch":44,"velocity":80,"startTime":48.177257999999995,"endTime":48.201888499999995,"instrument":1,"isDrum":true},{"pitch":51,"velocity":80,"startTime":48.177257999999995,"endTime":48.201888499999995,"instrument":1,"isDrum":true},{"pitch":54,"velocity":80,"startTime":48.177257999999995,"endTime":48.201888499999995,"instrument":1,"isDrum":true},{"pitch":51,"velocity":80,"startTime":48.374302,"endTime":48.448193499999995,"instrument":1,"isDrum":true},{"pitch":35,"velocity":80,"startTime":48.472823999999996,"endTime":48.497454499999996,"instrument":1,"isDrum":true},{"pitch":44,"velocity":80,"startTime":48.472823999999996,"endTime":48.497454499999996,"instrument":1,"isDrum":true},{"pitch":51,"velocity":80,"startTime":48.472823999999996,"endTime":48.497454499999996,"instrument":1,"isDrum":true},{"pitch":51,"velocity":80,"startTime":48.669867999999994,"endTime":48.694498499999995,"instrument":1,"isDrum":true},{"pitch":35,"velocity":80,"startTime":48.76839,"endTime":48.7930205,"instrument":1,"isDrum":true},{"pitch":44,"velocity":80,"startTime":48.76839,"endTime":48.7930205,"instrument":1,"isDrum":true},{"pitch":51,"velocity":80,"startTime":48.76839,"endTime":48.7930205,"instrument":1,"isDrum":true},{"pitch":53,"velocity":80,"startTime":48.76839,"endTime":48.7930205,"instrument":1,"isDrum":true},{"pitch":35,"velocity":80,"startTime":49.063956,"endTime":49.0885865,"instrument":1,"isDrum":true},{"pitch":44,"velocity":80,"startTime":49.063956,"endTime":49.0885865,"instrument":1,"isDrum":true},{"pitch":51,"velocity":80,"startTime":49.063956,"endTime":49.0885865,"instrument":1,"isDrum":true},{"pitch":51,"velocity":80,"startTime":49.260999999999996,"endTime":49.285630499999996,"instrument":1,"isDrum":true},{"pitch":35,"velocity":80,"startTime":49.359522,"endTime":49.3841525,"instrument":1,"isDrum":true},{"pitch":37,"velocity":80,"startTime":49.359522,"endTime":49.3841525,"instrument":1,"isDrum":true},{"pitch":44,"velocity":80,"startTime":49.359522,"endTime":49.3841525,"instrument":1,"isDrum":true},{"pitch":51,"velocity":80,"startTime":49.359522,"endTime":49.3841525,"instrument":1,"isDrum":true},{"pitch":54,"velocity":80,"startTime":49.359522,"endTime":49.3841525,"instrument":1,"isDrum":true},{"pitch":51,"velocity":80,"startTime":49.556566,"endTime":49.655088,"instrument":1,"isDrum":true},{"pitch":35,"velocity":80,"startTime":49.655088,"endTime":49.6797185,"instrument":1,"isDrum":true},{"pitch":44,"velocity":80,"startTime":49.655088,"endTime":49.6797185,"instrument":1,"isDrum":true},{"pitch":51,"velocity":80,"startTime":49.655088,"endTime":49.6797185,"instrument":1,"isDrum":true},{"pitch":51,"velocity":80,"startTime":49.852132,"endTime":49.8767625,"instrument":1,"isDrum":true},{"pitch":35,"velocity":80,"startTime":49.95065399999999,"endTime":49.975284499999994,"instrument":1,"isDrum":true},{"pitch":37,"velocity":80,"startTime":49.95065399999999,"endTime":49.975284499999994,"instrument":1,"isDrum":true},{"pitch":44,"velocity":80,"startTime":49.95065399999999,"endTime":49.975284499999994,"instrument":1,"isDrum":true},{"pitch":51,"velocity":80,"startTime":49.95065399999999,"endTime":49.975284499999994,"instrument":1,"isDrum":true},{"pitch":54,"velocity":80,"startTime":49.95065399999999,"endTime":49.975284499999994,"instrument":1,"isDrum":true},{"pitch":51,"velocity":80,"startTime":50.147698,"endTime":50.246219999999994,"instrument":1,"isDrum":true},{"pitch":35,"velocity":80,"startTime":50.246219999999994,"endTime":50.270850499999995,"instrument":1,"isDrum":true},{"pitch":44,"velocity":80,"startTime":50.246219999999994,"endTime":50.270850499999995,"instrument":1,"isDrum":true},{"pitch":51,"velocity":80,"startTime":50.246219999999994,"endTime":50.270850499999995,"instrument":1,"isDrum":true},{"pitch":51,"velocity":80,"startTime":50.443264,"endTime":50.4678945,"instrument":1,"isDrum":true},{"pitch":35,"velocity":80,"startTime":50.541785999999995,"endTime":50.566416499999995,"instrument":1,"isDrum":true},{"pitch":37,"velocity":80,"startTime":50.541785999999995,"endTime":50.566416499999995,"instrument":1,"isDrum":true},{"pitch":44,"velocity":80,"startTime":50.541785999999995,"endTime":50.566416499999995,"instrument":1,"isDrum":true},{"pitch":51,"velocity":80,"startTime":50.541785999999995,"endTime":50.566416499999995,"instrument":1,"isDrum":true},{"pitch":51,"velocity":80,"startTime":50.73882999999999,"endTime":50.837351999999996,"instrument":1,"isDrum":true},{"pitch":35,"velocity":80,"startTime":50.837351999999996,"endTime":50.861982499999996,"instrument":1,"isDrum":true},{"pitch":44,"velocity":80,"startTime":50.837351999999996,"endTime":50.861982499999996,"instrument":1,"isDrum":true},{"pitch":51,"velocity":80,"startTime":50.837351999999996,"endTime":50.861982499999996,"instrument":1,"isDrum":true},{"pitch":51,"velocity":80,"startTime":51.034395999999994,"endTime":51.059026499999995,"instrument":1,"isDrum":true},{"pitch":35,"velocity":80,"startTime":51.132918,"endTime":51.1575485,"instrument":1,"isDrum":true},{"pitch":37,"velocity":80,"startTime":51.132918,"endTime":51.1575485,"instrument":1,"isDrum":true},{"pitch":44,"velocity":80,"startTime":51.132918,"endTime":51.1575485,"instrument":1,"isDrum":true},{"pitch":51,"velocity":80,"startTime":51.132918,"endTime":51.1575485,"instrument":1,"isDrum":true},{"pitch":54,"velocity":80,"startTime":51.132918,"endTime":51.1575485,"instrument":1,"isDrum":true},{"pitch":51,"velocity":80,"startTime":51.329961999999995,"endTime":51.428484,"instrument":1,"isDrum":true},{"pitch":35,"velocity":80,"startTime":51.428484,"endTime":51.4531145,"instrument":1,"isDrum":true},{"pitch":44,"velocity":80,"startTime":51.428484,"endTime":51.4531145,"instrument":1,"isDrum":true},{"pitch":51,"velocity":80,"startTime":51.428484,"endTime":51.4531145,"instrument":1,"isDrum":true},{"pitch":51,"velocity":80,"startTime":51.625527999999996,"endTime":51.650158499999996,"instrument":1,"isDrum":true},{"pitch":35,"velocity":80,"startTime":51.72405,"endTime":51.7486805,"instrument":1,"isDrum":true},{"pitch":37,"velocity":80,"startTime":51.72405,"endTime":51.7486805,"instrument":1,"isDrum":true},{"pitch":44,"velocity":80,"startTime":51.72405,"endTime":51.7486805,"instrument":1,"isDrum":true},{"pitch":51,"velocity":80,"startTime":51.72405,"endTime":51.7486805,"instrument":1,"isDrum":true},{"pitch":54,"velocity":80,"startTime":51.72405,"endTime":51.7486805,"instrument":1,"isDrum":true},{"pitch":51,"velocity":80,"startTime":51.921094,"endTime":52.019616,"instrument":1,"isDrum":true},{"pitch":35,"velocity":80,"startTime":52.019616,"endTime":52.0442465,"instrument":1,"isDrum":true},{"pitch":44,"velocity":80,"startTime":52.019616,"endTime":52.0442465,"instrument":1,"isDrum":true},{"pitch":51,"velocity":80,"startTime":52.019616,"endTime":52.0442465,"instrument":1,"isDrum":true},{"pitch":51,"velocity":80,"startTime":52.21666,"endTime":52.265921,"instrument":1,"isDrum":true},{"pitch":35,"velocity":80,"startTime":52.31518199999999,"endTime":52.339812499999994,"instrument":1,"isDrum":true},{"pitch":37,"velocity":80,"startTime":52.31518199999999,"endTime":52.339812499999994,"instrument":1,"isDrum":true},{"pitch":44,"velocity":80,"startTime":52.31518199999999,"endTime":52.339812499999994,"instrument":1,"isDrum":true},{"pitch":51,"velocity":80,"startTime":52.31518199999999,"endTime":52.339812499999994,"instrument":1,"isDrum":true},{"pitch":51,"velocity":80,"startTime":52.512226,"endTime":52.561487,"instrument":1,"isDrum":true},{"pitch":35,"velocity":80,"startTime":52.610747999999994,"endTime":52.635378499999995,"instrument":1,"isDrum":true},{"pitch":44,"velocity":80,"startTime":52.610747999999994,"endTime":52.635378499999995,"instrument":1,"isDrum":true},{"pitch":51,"velocity":80,"startTime":52.610747999999994,"endTime":52.635378499999995,"instrument":1,"isDrum":true},{"pitch":53,"velocity":80,"startTime":52.807792,"endTime":52.85705299999999,"instrument":1,"isDrum":true},{"pitch":35,"velocity":80,"startTime":52.906313999999995,"endTime":52.930944499999995,"instrument":1,"isDrum":true},{"pitch":37,"velocity":80,"startTime":52.906313999999995,"endTime":52.930944499999995,"instrument":1,"isDrum":true},{"pitch":44,"velocity":80,"startTime":52.906313999999995,"endTime":52.930944499999995,"instrument":1,"isDrum":true},{"pitch":51,"velocity":80,"startTime":52.906313999999995,"endTime":52.930944499999995,"instrument":1,"isDrum":true},{"pitch":51,"velocity":80,"startTime":53.10335799999999,"endTime":53.152618999999994,"instrument":1,"isDrum":true},{"pitch":35,"velocity":80,"startTime":53.201879999999996,"endTime":53.226510499999996,"instrument":1,"isDrum":true},{"pitch":44,"velocity":80,"startTime":53.201879999999996,"endTime":53.226510499999996,"instrument":1,"isDrum":true},{"pitch":51,"velocity":80,"startTime":53.201879999999996,"endTime":53.226510499999996,"instrument":1,"isDrum":true},{"pitch":53,"velocity":80,"startTime":53.398923999999994,"endTime":53.448184999999995,"instrument":1,"isDrum":true},{"pitch":35,"velocity":80,"startTime":53.497446,"endTime":53.5220765,"instrument":1,"isDrum":true},{"pitch":37,"velocity":80,"startTime":53.497446,"endTime":53.5220765,"instrument":1,"isDrum":true},{"pitch":44,"velocity":80,"startTime":53.497446,"endTime":53.5220765,"instrument":1,"isDrum":true},{"pitch":51,"velocity":80,"startTime":53.497446,"endTime":53.5220765,"instrument":1,"isDrum":true},{"pitch":51,"velocity":80,"startTime":53.694489999999995,"endTime":53.743750999999996,"instrument":1,"isDrum":true},{"pitch":35,"velocity":80,"startTime":53.793012,"endTime":53.8176425,"instrument":1,"isDrum":true},{"pitch":44,"velocity":80,"startTime":53.793012,"endTime":53.8176425,"instrument":1,"isDrum":true},{"pitch":51,"velocity":80,"startTime":53.793012,"endTime":53.8176425,"instrument":1,"isDrum":true},{"pitch":51,"velocity":80,"startTime":53.990055999999996,"endTime":54.014686499999996,"instrument":1,"isDrum":true},{"pitch":35,"velocity":80,"startTime":54.088578,"endTime":54.1132085,"instrument":1,"isDrum":true},{"pitch":37,"velocity":80,"startTime":54.088578,"endTime":54.1132085,"instrument":1,"isDrum":true},{"pitch":44,"velocity":80,"startTime":54.088578,"endTime":54.1132085,"instrument":1,"isDrum":true},{"pitch":51,"velocity":80,"startTime":54.088578,"endTime":54.1132085,"instrument":1,"isDrum":true},{"pitch":51,"velocity":80,"startTime":54.285622,"endTime":54.334883,"instrument":1,"isDrum":true},{"pitch":35,"velocity":80,"startTime":54.384144,"endTime":54.40877449999999,"instrument":1,"isDrum":true},{"pitch":44,"velocity":80,"startTime":54.384144,"endTime":54.40877449999999,"instrument":1,"isDrum":true},{"pitch":51,"velocity":80,"startTime":54.384144,"endTime":54.40877449999999,"instrument":1,"isDrum":true},{"pitch":51,"velocity":80,"startTime":54.581188,"endTime":54.630449,"instrument":1,"isDrum":true},{"pitch":35,"velocity":80,"startTime":54.67970999999999,"endTime":54.704340499999994,"instrument":1,"isDrum":true},{"pitch":37,"velocity":80,"startTime":54.67970999999999,"endTime":54.704340499999994,"instrument":1,"isDrum":true},{"pitch":44,"velocity":80,"startTime":54.67970999999999,"endTime":54.704340499999994,"instrument":1,"isDrum":true},{"pitch":51,"velocity":80,"startTime":54.67970999999999,"endTime":54.704340499999994,"instrument":1,"isDrum":true},{"pitch":51,"velocity":80,"startTime":54.876754,"endTime":54.926015,"instrument":1,"isDrum":true},{"pitch":35,"velocity":80,"startTime":54.975275999999994,"endTime":54.999906499999994,"instrument":1,"isDrum":true},{"pitch":44,"velocity":80,"startTime":54.975275999999994,"endTime":54.999906499999994,"instrument":1,"isDrum":true},{"pitch":51,"velocity":80,"startTime":54.975275999999994,"endTime":54.999906499999994,"instrument":1,"isDrum":true},{"pitch":51,"velocity":80,"startTime":55.17232,"endTime":55.22158099999999,"instrument":1,"isDrum":true},{"pitch":35,"velocity":80,"startTime":55.270841999999995,"endTime":55.295472499999995,"instrument":1,"isDrum":true},{"pitch":37,"velocity":80,"startTime":55.270841999999995,"endTime":55.295472499999995,"instrument":1,"isDrum":true},{"pitch":44,"velocity":80,"startTime":55.270841999999995,"endTime":55.295472499999995,"instrument":1,"isDrum":true},{"pitch":51,"velocity":80,"startTime":55.270841999999995,"endTime":55.295472499999995,"instrument":1,"isDrum":true},{"pitch":51,"velocity":80,"startTime":55.46788599999999,"endTime":55.517146999999994,"instrument":1,"isDrum":true},{"pitch":43,"velocity":103,"startTime":47.29056,"endTime":47.5122345,"instrument":2,"program":32},{"pitch":31,"velocity":103,"startTime":47.487604,"endTime":47.536865,"instrument":2,"program":32},{"pitch":43,"velocity":103,"startTime":47.586126,"endTime":47.881691999999994,"instrument":2,"program":32},{"pitch":47,"velocity":103,"startTime":47.881691999999994,"endTime":48.078736,"instrument":2,"program":32},{"pitch":38,"velocity":103,"startTime":48.078736,"endTime":48.152627499999994,"instrument":2,"program":32},{"pitch":43,"velocity":103,"startTime":48.177257999999995,"endTime":48.398932499999994,"instrument":2,"program":32},{"pitch":38,"velocity":103,"startTime":48.398932499999994,"endTime":48.448193499999995,"instrument":2,"program":32},{"pitch":43,"velocity":103,"startTime":48.472823999999996,"endTime":48.669867999999994,"instrument":2,"program":32},{"pitch":43,"velocity":103,"startTime":48.694498499999995,"endTime":48.76839,"instrument":2,"program":32},{"pitch":47,"velocity":103,"startTime":48.76839,"endTime":49.063956,"instrument":2,"program":32},{"pitch":50,"velocity":103,"startTime":49.063956,"endTime":49.359522,"instrument":2,"program":32},{"pitch":47,"velocity":103,"startTime":49.359522,"endTime":49.5811965,"instrument":2,"program":32},{"pitch":38,"velocity":103,"startTime":49.5811965,"endTime":49.6304575,"instrument":2,"program":32},{"pitch":28,"velocity":103,"startTime":49.655088,"endTime":49.999914999999994,"instrument":2,"program":32},{"pitch":35,"velocity":103,"startTime":49.95065399999999,"endTime":50.566416499999995,"instrument":2,"program":32},{"pitch":35,"velocity":103,"startTime":50.246219999999994,"endTime":50.270850499999995,"instrument":2,"program":32},{"pitch":28,"velocity":103,"startTime":50.541785999999995,"endTime":50.837351999999996,"instrument":2,"program":32},{"pitch":28,"velocity":103,"startTime":50.837351999999996,"endTime":51.059026499999995,"instrument":2,"program":32},{"pitch":28,"velocity":103,"startTime":51.059026499999995,"endTime":51.108287499999996,"instrument":2,"program":32},{"pitch":35,"velocity":103,"startTime":51.132918,"endTime":51.428484,"instrument":2,"program":32},{"pitch":38,"velocity":103,"startTime":51.428484,"endTime":51.625527999999996,"instrument":2,"program":32},{"pitch":35,"velocity":103,"startTime":51.650158499999996,"endTime":51.72405,"instrument":2,"program":32},{"pitch":40,"velocity":103,"startTime":51.72405,"endTime":51.9457245,"instrument":2,"program":32},{"pitch":28,"velocity":103,"startTime":51.9457245,"endTime":51.9949855,"instrument":2,"program":32},{"pitch":36,"velocity":103,"startTime":52.019616,"endTime":52.2412905,"instrument":2,"program":32},{"pitch":24,"velocity":103,"startTime":52.2412905,"endTime":52.2905515,"instrument":2,"program":32},{"pitch":43,"velocity":103,"startTime":52.31518199999999,"endTime":52.610747999999994,"instrument":2,"program":32},{"pitch":40,"velocity":103,"startTime":52.610747999999994,"endTime":52.906313999999995,"instrument":2,"program":32},{"pitch":36,"velocity":103,"startTime":52.906313999999995,"endTime":53.10335799999999,"instrument":2,"program":32},{"pitch":38,"velocity":103,"startTime":53.127988499999994,"endTime":54.236360999999995,"instrument":2,"program":32},{"pitch":43,"velocity":103,"startTime":54.3102525,"endTime":54.975275999999994,"instrument":2,"program":32},{"pitch":38,"velocity":103,"startTime":54.975275999999994,"endTime":55.246211499999994,"instrument":2,"program":32},{"pitch":43,"velocity":103,"startTime":55.270841999999995,"endTime":55.492516499999994,"instrument":2,"program":32},{"pitch":38,"velocity":103,"startTime":55.492516499999994,"endTime":55.541777499999995,"instrument":2,"program":32},{"pitch":43,"velocity":103,"startTime":55.566407999999996,"endTime":55.861974,"instrument":2,"program":32},{"pitch":47,"velocity":103,"startTime":55.861974,"endTime":56.15754,"instrument":2,"program":32},{"pitch":47,"velocity":103,"startTime":56.15754,"endTime":56.453106,"instrument":2,"program":32},{"pitch":50,"velocity":103,"startTime":56.453106,"endTime":56.65015,"instrument":2,"program":32},{"pitch":43,"velocity":103,"startTime":56.6747805,"endTime":56.7240415,"instrument":2,"program":32},{"pitch":43,"velocity":57,"startTime":56.77330249999999,"endTime":56.847193999999995},{"pitch":59,"velocity":57,"startTime":56.77330249999999,"endTime":56.871824499999995},{"pitch":62,"velocity":57,"startTime":56.77330249999999,"endTime":56.871824499999995},{"pitch":69,"velocity":57,"startTime":56.77330249999999,"endTime":56.847193999999995},{"pitch":43,"velocity":57,"startTime":57.04423799999999,"endTime":57.142759999999996},{"pitch":59,"velocity":57,"startTime":57.04423799999999,"endTime":57.167390499999996},{"pitch":62,"velocity":57,"startTime":57.04423799999999,"endTime":57.142759999999996},{"pitch":69,"velocity":57,"startTime":57.04423799999999,"endTime":57.142759999999996},{"pitch":43,"velocity":57,"startTime":57.635369999999995,"endTime":57.733892},{"pitch":59,"velocity":57,"startTime":57.635369999999995,"endTime":57.733892},{"pitch":62,"velocity":57,"startTime":57.635369999999995,"endTime":57.7585225},{"pitch":69,"velocity":57,"startTime":57.635369999999995,"endTime":57.733892},{"pitch":43,"velocity":57,"startTime":58.152610499999994,"endTime":58.177240999999995},{"pitch":59,"velocity":57,"startTime":58.152610499999994,"endTime":58.201871499999996},{"pitch":65,"velocity":57,"startTime":58.152610499999994,"endTime":58.177240999999995},{"pitch":69,"velocity":57,"startTime":58.152610499999994,"endTime":58.201871499999996},{"pitch":52,"velocity":57,"startTime":59.3348745,"endTime":59.43339649999999},{"pitch":64,"velocity":57,"startTime":59.3348745,"endTime":59.40876599999999},{"pitch":71,"velocity":57,"startTime":59.3348745,"endTime":59.40876599999999},{"pitch":59,"velocity":57,"startTime":59.359505,"endTime":59.43339649999999},{"pitch":59,"velocity":57,"startTime":59.92600649999999,"endTime":59.999897999999995},{"pitch":59,"velocity":57,"startTime":60.024528499999995,"endTime":60.1230505},{"pitch":64,"velocity":57,"startTime":60.024528499999995,"endTime":60.09842},{"pitch":71,"velocity":57,"startTime":60.024528499999995,"endTime":60.09842},{"pitch":59,"velocity":57,"startTime":60.591029999999996,"endTime":60.689552},{"pitch":62,"velocity":57,"startTime":60.591029999999996,"endTime":60.689552},{"pitch":66,"velocity":57,"startTime":60.591029999999996,"endTime":60.689552},{"pitch":69,"velocity":57,"startTime":60.591029999999996,"endTime":60.689552},{"pitch":59,"velocity":57,"startTime":61.108270499999996,"endTime":61.1575315},{"pitch":62,"velocity":57,"startTime":61.108270499999996,"endTime":61.182162},{"pitch":66,"velocity":57,"startTime":61.108270499999996,"endTime":61.182162},{"pitch":69,"velocity":57,"startTime":61.108270499999996,"endTime":61.1575315},{"pitch":62,"velocity":57,"startTime":61.9949685,"endTime":62.068859999999994},{"pitch":64,"velocity":57,"startTime":61.9949685,"endTime":62.068859999999994},{"pitch":67,"velocity":57,"startTime":61.9949685,"endTime":62.068859999999994},{"pitch":72,"velocity":57,"startTime":61.9949685,"endTime":62.068859999999994},{"pitch":59,"velocity":57,"startTime":62.58610049999999,"endTime":62.659991999999995},{"pitch":62,"velocity":57,"startTime":62.58610049999999,"endTime":62.659991999999995},{"pitch":64,"velocity":57,"startTime":62.58610049999999,"endTime":62.659991999999995},{"pitch":67,"velocity":57,"startTime":62.58610049999999,"endTime":62.659991999999995},{"pitch":57,"velocity":57,"startTime":63.7683645,"endTime":63.792995},{"pitch":62,"velocity":57,"startTime":63.7683645,"endTime":63.792995},{"pitch":65,"velocity":57,"startTime":63.7683645,"endTime":63.792995},{"pitch":67,"velocity":57,"startTime":63.7683645,"endTime":63.792995},{"pitch":55,"velocity":57,"startTime":64.0639305,"endTime":64.137822},{"pitch":62,"velocity":57,"startTime":64.0639305,"endTime":64.137822},{"pitch":65,"velocity":57,"startTime":64.0639305,"endTime":64.137822},{"pitch":58,"velocity":57,"startTime":64.088561,"endTime":64.137822},{"pitch":52,"velocity":57,"startTime":65.83732649999999,"endTime":65.88658749999999},{"pitch":57,"velocity":57,"startTime":65.83732649999999,"endTime":65.88658749999999},{"pitch":59,"velocity":57,"startTime":65.83732649999999,"endTime":65.88658749999999},{"pitch":62,"velocity":57,"startTime":65.83732649999999,"endTime":65.88658749999999},{"pitch":35,"velocity":80,"startTime":56.748672,"endTime":56.822563499999994,"instrument":1,"isDrum":true},{"pitch":44,"velocity":80,"startTime":56.748672,"endTime":56.822563499999994,"instrument":1,"isDrum":true},{"pitch":51,"velocity":80,"startTime":56.748672,"endTime":56.822563499999994,"instrument":1,"isDrum":true},{"pitch":53,"velocity":80,"startTime":56.748672,"endTime":56.822563499999994,"instrument":1,"isDrum":true},{"pitch":51,"velocity":80,"startTime":56.945716,"endTime":57.0196075,"instrument":1,"isDrum":true},{"pitch":44,"velocity":80,"startTime":57.04423799999999,"endTime":57.118129499999995,"instrument":1,"isDrum":true},{"pitch":51,"velocity":80,"startTime":57.04423799999999,"endTime":57.118129499999995,"instrument":1,"isDrum":true},{"pitch":53,"velocity":80,"startTime":57.04423799999999,"endTime":57.118129499999995,"instrument":1,"isDrum":true},{"pitch":51,"velocity":80,"startTime":57.241282,"endTime":57.31517349999999,"instrument":1,"isDrum":true},{"pitch":35,"velocity":80,"startTime":57.339803999999994,"endTime":57.413695499999996,"instrument":1,"isDrum":true},{"pitch":44,"velocity":80,"startTime":57.339803999999994,"endTime":57.413695499999996,"instrument":1,"isDrum":true},{"pitch":53,"velocity":80,"startTime":57.339803999999994,"endTime":57.413695499999996,"instrument":1,"isDrum":true},{"pitch":35,"velocity":80,"startTime":57.635369999999995,"endTime":57.7092615,"instrument":1,"isDrum":true},{"pitch":44,"velocity":80,"startTime":57.635369999999995,"endTime":57.7092615,"instrument":1,"isDrum":true},{"pitch":51,"velocity":80,"startTime":57.635369999999995,"endTime":57.7092615,"instrument":1,"isDrum":true},{"pitch":53,"velocity":80,"startTime":57.635369999999995,"endTime":57.7092615,"instrument":1,"isDrum":true},{"pitch":51,"velocity":80,"startTime":57.83241399999999,"endTime":57.906305499999995,"instrument":1,"isDrum":true},{"pitch":44,"velocity":80,"startTime":57.930935999999996,"endTime":58.0048275,"instrument":1,"isDrum":true},{"pitch":51,"velocity":80,"startTime":57.930935999999996,"endTime":58.0048275,"instrument":1,"isDrum":true},{"pitch":53,"velocity":80,"startTime":57.930935999999996,"endTime":58.0048275,"instrument":1,"isDrum":true},{"pitch":51,"velocity":80,"startTime":58.127979999999994,"endTime":58.201871499999996,"instrument":1,"isDrum":true},{"pitch":44,"velocity":80,"startTime":58.226501999999996,"endTime":58.3003935,"instrument":1,"isDrum":true},{"pitch":51,"velocity":80,"startTime":58.226501999999996,"endTime":58.3003935,"instrument":1,"isDrum":true},{"pitch":53,"velocity":80,"startTime":58.226501999999996,"endTime":58.3003935,"instrument":1,"isDrum":true},{"pitch":51,"velocity":80,"startTime":58.423545999999995,"endTime":58.4974375,"instrument":1,"isDrum":true},{"pitch":35,"velocity":80,"startTime":58.522068,"endTime":58.5959595,"instrument":1,"isDrum":true},{"pitch":44,"velocity":80,"startTime":58.522068,"endTime":58.5959595,"instrument":1,"isDrum":true},{"pitch":51,"velocity":80,"startTime":58.522068,"endTime":58.5959595,"instrument":1,"isDrum":true},{"pitch":53,"velocity":80,"startTime":58.522068,"endTime":58.5959595,"instrument":1,"isDrum":true},{"pitch":51,"velocity":80,"startTime":58.817634,"endTime":58.89152549999999,"instrument":1,"isDrum":true},{"pitch":44,"velocity":80,"startTime":59.1132,"endTime":59.187091499999994,"instrument":1,"isDrum":true},{"pitch":51,"velocity":80,"startTime":59.1132,"endTime":59.187091499999994,"instrument":1,"isDrum":true},{"pitch":53,"velocity":80,"startTime":59.1132,"endTime":59.187091499999994,"instrument":1,"isDrum":true},{"pitch":51,"velocity":80,"startTime":59.310244,"endTime":59.3841355,"instrument":1,"isDrum":true},{"pitch":35,"velocity":80,"startTime":59.40876599999999,"endTime":59.482657499999995,"instrument":1,"isDrum":true},{"pitch":44,"velocity":80,"startTime":59.40876599999999,"endTime":59.482657499999995,"instrument":1,"isDrum":true},{"pitch":51,"velocity":80,"startTime":59.40876599999999,"endTime":59.482657499999995,"instrument":1,"isDrum":true},{"pitch":53,"velocity":80,"startTime":59.40876599999999,"endTime":59.482657499999995,"instrument":1,"isDrum":true},{"pitch":51,"velocity":80,"startTime":59.60581,"endTime":59.67970149999999,"instrument":1,"isDrum":true},{"pitch":44,"velocity":80,"startTime":59.704331999999994,"endTime":59.778223499999996,"instrument":1,"isDrum":true},{"pitch":51,"velocity":80,"startTime":59.704331999999994,"endTime":59.778223499999996,"instrument":1,"isDrum":true},{"pitch":53,"velocity":80,"startTime":59.704331999999994,"endTime":59.778223499999996,"instrument":1,"isDrum":true},{"pitch":51,"velocity":80,"startTime":59.901376,"endTime":59.975267499999994,"instrument":1,"isDrum":true},{"pitch":35,"velocity":80,"startTime":59.999897999999995,"endTime":60.0737895,"instrument":1,"isDrum":true},{"pitch":44,"velocity":80,"startTime":59.999897999999995,"endTime":60.0737895,"instrument":1,"isDrum":true},{"pitch":51,"velocity":80,"startTime":59.999897999999995,"endTime":60.0737895,"instrument":1,"isDrum":true},{"pitch":53,"velocity":80,"startTime":59.999897999999995,"endTime":60.0737895,"instrument":1,"isDrum":true},{"pitch":51,"velocity":80,"startTime":60.19694199999999,"endTime":60.270833499999995,"instrument":1,"isDrum":true},{"pitch":35,"velocity":80,"startTime":60.295463999999996,"endTime":60.3693555,"instrument":1,"isDrum":true},{"pitch":44,"velocity":80,"startTime":60.295463999999996,"endTime":60.3693555,"instrument":1,"isDrum":true},{"pitch":51,"velocity":80,"startTime":60.295463999999996,"endTime":60.3693555,"instrument":1,"isDrum":true},{"pitch":53,"velocity":80,"startTime":60.295463999999996,"endTime":60.3693555,"instrument":1,"isDrum":true},{"pitch":51,"velocity":80,"startTime":60.492507999999994,"endTime":60.566399499999996,"instrument":1,"isDrum":true},{"pitch":44,"velocity":80,"startTime":60.591029999999996,"endTime":60.6649215,"instrument":1,"isDrum":true},{"pitch":51,"velocity":80,"startTime":60.591029999999996,"endTime":60.6649215,"instrument":1,"isDrum":true},{"pitch":53,"velocity":80,"startTime":60.591029999999996,"endTime":60.6649215,"instrument":1,"isDrum":true},{"pitch":51,"velocity":80,"startTime":60.788073999999995,"endTime":60.8619655,"instrument":1,"isDrum":true},{"pitch":35,"velocity":80,"startTime":60.886596,"endTime":60.9604875,"instrument":1,"isDrum":true},{"pitch":44,"velocity":80,"startTime":60.886596,"endTime":60.9604875,"instrument":1,"isDrum":true},{"pitch":51,"velocity":80,"startTime":60.886596,"endTime":60.9604875,"instrument":1,"isDrum":true},{"pitch":53,"velocity":80,"startTime":60.886596,"endTime":60.9604875,"instrument":1,"isDrum":true},{"pitch":51,"velocity":80,"startTime":61.083639999999995,"endTime":61.1575315,"instrument":1,"isDrum":true},{"pitch":35,"velocity":80,"startTime":61.182162,"endTime":61.25605349999999,"instrument":1,"isDrum":true},{"pitch":44,"velocity":80,"startTime":61.182162,"endTime":61.25605349999999,"instrument":1,"isDrum":true},{"pitch":51,"velocity":80,"startTime":61.182162,"endTime":61.25605349999999,"instrument":1,"isDrum":true},{"pitch":53,"velocity":80,"startTime":61.182162,"endTime":61.25605349999999,"instrument":1,"isDrum":true},{"pitch":51,"velocity":80,"startTime":61.379205999999996,"endTime":61.4530975,"instrument":1,"isDrum":true},{"pitch":44,"velocity":80,"startTime":61.477728,"endTime":61.551619499999994,"instrument":1,"isDrum":true},{"pitch":51,"velocity":80,"startTime":61.477728,"endTime":61.551619499999994,"instrument":1,"isDrum":true},{"pitch":53,"velocity":80,"startTime":61.477728,"endTime":61.551619499999994,"instrument":1,"isDrum":true},{"pitch":51,"velocity":80,"startTime":61.674772,"endTime":61.7486635,"instrument":1,"isDrum":true},{"pitch":35,"velocity":80,"startTime":61.77329399999999,"endTime":61.847185499999995,"instrument":1,"isDrum":true},{"pitch":44,"velocity":80,"startTime":61.77329399999999,"endTime":61.847185499999995,"instrument":1,"isDrum":true},{"pitch":51,"velocity":80,"startTime":61.77329399999999,"endTime":61.847185499999995,"instrument":1,"isDrum":true},{"pitch":53,"velocity":80,"startTime":61.77329399999999,"endTime":61.847185499999995,"instrument":1,"isDrum":true},{"pitch":51,"velocity":80,"startTime":61.970338,"endTime":62.04422949999999,"instrument":1,"isDrum":true},{"pitch":35,"velocity":80,"startTime":62.068859999999994,"endTime":62.142751499999996,"instrument":1,"isDrum":true},{"pitch":44,"velocity":80,"startTime":62.068859999999994,"endTime":62.142751499999996,"instrument":1,"isDrum":true},{"pitch":51,"velocity":80,"startTime":62.068859999999994,"endTime":62.142751499999996,"instrument":1,"isDrum":true},{"pitch":53,"velocity":80,"startTime":62.068859999999994,"endTime":62.142751499999996,"instrument":1,"isDrum":true},{"pitch":51,"velocity":80,"startTime":62.265904,"endTime":62.339795499999994,"instrument":1,"isDrum":true},{"pitch":35,"velocity":80,"startTime":62.364425999999995,"endTime":62.4383175,"instrument":1,"isDrum":true},{"pitch":44,"velocity":80,"startTime":62.364425999999995,"endTime":62.4383175,"instrument":1,"isDrum":true},{"pitch":51,"velocity":80,"startTime":62.364425999999995,"endTime":62.4383175,"instrument":1,"isDrum":true},{"pitch":53,"velocity":80,"startTime":62.364425999999995,"endTime":62.4383175,"instrument":1,"isDrum":true},{"pitch":51,"velocity":80,"startTime":62.56146999999999,"endTime":62.635361499999995,"instrument":1,"isDrum":true},{"pitch":44,"velocity":80,"startTime":62.659991999999995,"endTime":62.7338835,"instrument":1,"isDrum":true},{"pitch":51,"velocity":80,"startTime":62.659991999999995,"endTime":62.7338835,"instrument":1,"isDrum":true},{"pitch":53,"velocity":80,"startTime":62.659991999999995,"endTime":62.7338835,"instrument":1,"isDrum":true},{"pitch":51,"velocity":80,"startTime":62.857035999999994,"endTime":62.930927499999996,"instrument":1,"isDrum":true},{"pitch":35,"velocity":80,"startTime":62.955557999999996,"endTime":63.0294495,"instrument":1,"isDrum":true},{"pitch":44,"velocity":80,"startTime":62.955557999999996,"endTime":63.0294495,"instrument":1,"isDrum":true},{"pitch":53,"velocity":80,"startTime":62.955557999999996,"endTime":63.0294495,"instrument":1,"isDrum":true},{"pitch":57,"velocity":80,"startTime":62.955557999999996,"endTime":63.0294495,"instrument":1,"isDrum":true},{"pitch":44,"velocity":80,"startTime":63.251124,"endTime":63.32501549999999,"instrument":1,"isDrum":true},{"pitch":51,"velocity":80,"startTime":63.251124,"endTime":63.32501549999999,"instrument":1,"isDrum":true},{"pitch":53,"velocity":80,"startTime":63.251124,"endTime":63.32501549999999,"instrument":1,"isDrum":true},{"pitch":51,"velocity":80,"startTime":63.448167999999995,"endTime":63.5220595,"instrument":1,"isDrum":true},{"pitch":35,"velocity":80,"startTime":63.54669,"endTime":63.62058149999999,"instrument":1,"isDrum":true},{"pitch":44,"velocity":80,"startTime":63.54669,"endTime":63.62058149999999,"instrument":1,"isDrum":true},{"pitch":51,"velocity":80,"startTime":63.54669,"endTime":63.62058149999999,"instrument":1,"isDrum":true},{"pitch":53,"velocity":80,"startTime":63.54669,"endTime":63.62058149999999,"instrument":1,"isDrum":true},{"pitch":51,"velocity":80,"startTime":63.743733999999996,"endTime":63.8176255,"instrument":1,"isDrum":true},{"pitch":38,"velocity":80,"startTime":63.842256,"endTime":63.916147499999994,"instrument":1,"isDrum":true},{"pitch":44,"velocity":80,"startTime":63.842256,"endTime":63.916147499999994,"instrument":1,"isDrum":true},{"pitch":51,"velocity":80,"startTime":63.842256,"endTime":63.916147499999994,"instrument":1,"isDrum":true},{"pitch":53,"velocity":80,"startTime":63.842256,"endTime":63.916147499999994,"instrument":1,"isDrum":true},{"pitch":51,"velocity":80,"startTime":64.0393,"endTime":64.1131915,"instrument":1,"isDrum":true},{"pitch":44,"velocity":80,"startTime":64.137822,"endTime":64.2117135,"instrument":1,"isDrum":true},{"pitch":51,"velocity":80,"startTime":64.137822,"endTime":64.2117135,"instrument":1,"isDrum":true},{"pitch":53,"velocity":80,"startTime":64.137822,"endTime":64.2117135,"instrument":1,"isDrum":true},{"pitch":51,"velocity":80,"startTime":64.33486599999999,"endTime":64.4087575,"instrument":1,"isDrum":true},{"pitch":44,"velocity":80,"startTime":64.433388,"endTime":64.5072795,"instrument":1,"isDrum":true},{"pitch":53,"velocity":80,"startTime":64.433388,"endTime":64.5072795,"instrument":1,"isDrum":true},{"pitch":43,"velocity":103,"startTime":56.748672,"endTime":56.9703465,"instrument":2,"program":32},{"pitch":31,"velocity":103,"startTime":56.945716,"endTime":57.0196075,"instrument":2,"program":32},{"pitch":47,"velocity":103,"startTime":57.04423799999999,"endTime":57.31517349999999,"instrument":2,"program":32},{"pitch":35,"velocity":103,"startTime":57.339803999999994,"endTime":57.610739499999994,"instrument":2,"program":32},{"pitch":38,"velocity":103,"startTime":57.635369999999995,"endTime":57.906305499999995,"instrument":2,"program":32},{"pitch":31,"velocity":103,"startTime":57.930935999999996,"endTime":58.152610499999994,"instrument":2,"program":32},{"pitch":31,"velocity":103,"startTime":58.152610499999994,"endTime":58.201871499999996,"instrument":2,"program":32},{"pitch":35,"velocity":103,"startTime":58.226501999999996,"endTime":58.522068,"instrument":2,"program":32},{"pitch":38,"velocity":103,"startTime":58.522068,"endTime":58.719111999999996,"instrument":2,"program":32},{"pitch":26,"velocity":103,"startTime":58.719111999999996,"endTime":58.7930035,"instrument":2,"program":32},{"pitch":38,"velocity":103,"startTime":58.817634,"endTime":59.1132,"instrument":2,"program":32},{"pitch":28,"velocity":103,"startTime":59.1132,"endTime":59.3348745,"instrument":2,"program":32},{"pitch":35,"velocity":103,"startTime":59.310244,"endTime":59.3841355,"instrument":2,"program":32},{"pitch":35,"velocity":103,"startTime":59.40876599999999,"endTime":59.6304405,"instrument":2,"program":32},{"pitch":30,"velocity":103,"startTime":59.6304405,"endTime":59.67970149999999,"instrument":2,"program":32},{"pitch":35,"velocity":103,"startTime":59.704331999999994,"endTime":59.975267499999994,"instrument":2,"program":32},{"pitch":38,"velocity":103,"startTime":59.999897999999995,"endTime":60.19694199999999,"instrument":2,"program":32},{"pitch":31,"velocity":103,"startTime":60.19694199999999,"endTime":60.22157249999999,"instrument":2,"program":32},{"pitch":28,"velocity":103,"startTime":60.295463999999996,"endTime":60.492507999999994,"instrument":2,"program":32},{"pitch":35,"velocity":103,"startTime":60.492507999999994,"endTime":60.566399499999996,"instrument":2,"program":32},{"pitch":35,"velocity":103,"startTime":60.591029999999996,"endTime":60.8619655,"instrument":2,"program":32},{"pitch":35,"velocity":103,"startTime":60.886596,"endTime":61.182162,"instrument":2,"program":32},{"pitch":35,"velocity":103,"startTime":61.182162,"endTime":61.379205999999996,"instrument":2,"program":32},{"pitch":42,"velocity":103,"startTime":61.4038365,"endTime":61.4530975,"instrument":2,"program":32},{"pitch":43,"velocity":103,"startTime":61.477728,"endTime":61.674772,"instrument":2,"program":32},{"pitch":43,"velocity":103,"startTime":61.6994025,"endTime":61.7486635,"instrument":2,"program":32},{"pitch":43,"velocity":103,"startTime":61.77329399999999,"endTime":61.9949685,"instrument":2,"program":32},{"pitch":40,"velocity":103,"startTime":62.068859999999994,"endTime":62.265904,"instrument":2,"program":32},{"pitch":43,"velocity":103,"startTime":62.29053449999999,"endTime":62.339795499999994,"instrument":2,"program":32},{"pitch":48,"velocity":103,"startTime":62.364425999999995,"endTime":62.58610049999999,"instrument":2,"program":32},{"pitch":43,"velocity":103,"startTime":62.58610049999999,"endTime":62.635361499999995,"instrument":2,"program":32},{"pitch":38,"velocity":103,"startTime":62.659991999999995,"endTime":62.930927499999996,"instrument":2,"program":32},{"pitch":40,"velocity":103,"startTime":62.955557999999996,"endTime":63.177232499999995,"instrument":2,"program":32},{"pitch":33,"velocity":103,"startTime":63.177232499999995,"endTime":63.2264935,"instrument":2,"program":32},{"pitch":33,"velocity":103,"startTime":63.251124,"endTime":63.5220595,"instrument":2,"program":32},{"pitch":33,"velocity":103,"startTime":63.54669,"endTime":63.7683645,"instrument":2,"program":32},{"pitch":26,"velocity":103,"startTime":63.7683645,"endTime":63.8176255,"instrument":2,"program":32},{"pitch":43,"velocity":103,"startTime":63.842256,"endTime":64.0639305,"instrument":2,"program":32},{"pitch":43,"velocity":103,"startTime":64.0639305,"endTime":64.1131915,"instrument":2,"program":32},{"pitch":50,"velocity":103,"startTime":64.137822,"endTime":64.35949649999999,"instrument":2,"program":32},{"pitch":38,"velocity":103,"startTime":64.35949649999999,"endTime":64.4087575,"instrument":2,"program":32},{"pitch":50,"velocity":103,"startTime":64.433388,"endTime":64.728954,"instrument":2,"program":32},{"pitch":47,"velocity":103,"startTime":64.728954,"endTime":64.92599799999999,"instrument":2,"program":32},{"pitch":43,"velocity":103,"startTime":64.9506285,"endTime":64.9998895,"instrument":2,"program":32},{"pitch":31,"velocity":103,"startTime":65.02452,"endTime":65.36934699999999,"instrument":2,"program":32},{"pitch":38,"velocity":103,"startTime":65.32008599999999,"endTime":65.6402825,"instrument":2,"program":32},{"pitch":43,"velocity":103,"startTime":65.615652,"endTime":65.91121799999999,"instrument":2,"program":32},{"pitch":38,"velocity":103,"startTime":65.91121799999999,"endTime":66.1328925,"instrument":2,"program":32},{"pitch":31,"velocity":103,"startTime":66.1328925,"endTime":66.1821535,"instrument":2,"program":32},{"pitch":43,"velocity":57,"startTime":66.2314145,"endTime":66.600872},{"pitch":55,"velocity":57,"startTime":66.50234999999999,"endTime":66.5762415},{"pitch":62,"velocity":57,"startTime":66.50234999999999,"endTime":66.5762415},{"pitch":57,"velocity":57,"startTime":66.5269805,"endTime":66.5762415},{"pitch":55,"velocity":57,"startTime":66.99495999999999,"endTime":67.044221},{"pitch":62,"velocity":57,"startTime":66.99495999999999,"endTime":67.044221},{"pitch":57,"velocity":57,"startTime":67.01959049999999,"endTime":67.044221},{"pitch":59,"velocity":57,"startTime":67.01959049999999,"endTime":67.044221},{"pitch":43,"velocity":57,"startTime":67.38904799999999,"endTime":67.46293949999999},{"pitch":57,"velocity":57,"startTime":67.38904799999999,"endTime":67.46293949999999},{"pitch":59,"velocity":57,"startTime":67.41367849999999,"endTime":67.46293949999999},{"pitch":62,"velocity":57,"startTime":67.41367849999999,"endTime":67.46293949999999},{"pitch":43,"velocity":57,"startTime":67.9062885,"endTime":68.54668149999999},{"pitch":57,"velocity":57,"startTime":67.9062885,"endTime":68.54668149999999},{"pitch":59,"velocity":57,"startTime":67.9062885,"endTime":68.54668149999999},{"pitch":62,"velocity":57,"startTime":67.9062885,"endTime":68.54668149999999},{"pitch":50,"velocity":57,"startTime":68.57131199999999,"endTime":69.7289455},{"pitch":57,"velocity":57,"startTime":68.57131199999999,"endTime":69.7289455},{"pitch":59,"velocity":57,"startTime":68.59594249999999,"endTime":69.7289455},{"pitch":62,"velocity":57,"startTime":68.59594249999999,"endTime":69.7289455},{"pitch":52,"velocity":57,"startTime":69.753576,"endTime":70.9112095},{"pitch":55,"velocity":57,"startTime":69.753576,"endTime":70.9112095},{"pitch":59,"velocity":57,"startTime":69.7782065,"endTime":70.9112095},{"pitch":62,"velocity":57,"startTime":69.7782065,"endTime":70.9112095},{"pitch":59,"velocity":57,"startTime":70.93584,"endTime":72.0934735},{"pitch":48,"velocity":57,"startTime":70.9604705,"endTime":72.0934735},{"pitch":55,"velocity":57,"startTime":70.9604705,"endTime":72.0934735},{"pitch":64,"velocity":57,"startTime":70.9604705,"endTime":72.0934735},{"pitch":62,"velocity":57,"startTime":72.11810399999999,"endTime":73.27573749999999},{"pitch":38,"velocity":57,"startTime":72.14273449999999,"endTime":73.27573749999999},{"pitch":50,"velocity":57,"startTime":72.14273449999999,"endTime":73.27573749999999},{"pitch":55,"velocity":57,"startTime":72.14273449999999,"endTime":73.27573749999999},{"pitch":59,"velocity":57,"startTime":73.30036799999999,"endTime":73.4235205},{"pitch":43,"velocity":57,"startTime":73.32499849999999,"endTime":73.39889},{"pitch":53,"velocity":57,"startTime":73.32499849999999,"endTime":73.4235205},{"pitch":62,"velocity":57,"startTime":73.32499849999999,"endTime":73.4235205},{"pitch":43,"velocity":57,"startTime":73.81760849999999,"endTime":74.4580015},{"pitch":53,"velocity":57,"startTime":73.84223899999999,"endTime":74.4580015},{"pitch":59,"velocity":57,"startTime":73.84223899999999,"endTime":74.4580015},{"pitch":43,"velocity":57,"startTime":74.482632,"endTime":74.630415},{"pitch":55,"velocity":57,"startTime":74.5072625,"endTime":74.6057845},{"pitch":57,"velocity":57,"startTime":74.5072625,"endTime":74.630415},{"pitch":55,"velocity":57,"startTime":75.073764,"endTime":75.1969165},{"pitch":59,"velocity":57,"startTime":75.073764,"endTime":75.1969165},{"pitch":50,"velocity":57,"startTime":75.0983945,"endTime":75.172286},{"pitch":62,"velocity":57,"startTime":75.0983945,"endTime":75.1969165},{"pitch":35,"velocity":80,"startTime":66.206784,"endTime":66.2314145,"instrument":1,"isDrum":true},{"pitch":44,"velocity":80,"startTime":66.206784,"endTime":66.256045,"instrument":1,"isDrum":true},{"pitch":51,"velocity":80,"startTime":66.206784,"endTime":66.256045,"instrument":1,"isDrum":true},{"pitch":51,"velocity":80,"startTime":66.40382799999999,"endTime":66.45308899999999,"instrument":1,"isDrum":true},{"pitch":35,"velocity":80,"startTime":66.50234999999999,"endTime":66.5269805,"instrument":1,"isDrum":true},{"pitch":44,"velocity":80,"startTime":66.50234999999999,"endTime":66.5269805,"instrument":1,"isDrum":true},{"pitch":51,"velocity":80,"startTime":66.50234999999999,"endTime":66.5269805,"instrument":1,"isDrum":true},{"pitch":53,"velocity":80,"startTime":66.50234999999999,"endTime":66.5269805,"instrument":1,"isDrum":true},{"pitch":35,"velocity":80,"startTime":66.797916,"endTime":66.8225465,"instrument":1,"isDrum":true},{"pitch":44,"velocity":80,"startTime":66.797916,"endTime":66.8225465,"instrument":1,"isDrum":true},{"pitch":51,"velocity":80,"startTime":66.797916,"endTime":66.8225465,"instrument":1,"isDrum":true},{"pitch":51,"velocity":80,"startTime":66.99495999999999,"endTime":67.01959049999999,"instrument":1,"isDrum":true},{"pitch":35,"velocity":80,"startTime":67.093482,"endTime":67.1181125,"instrument":1,"isDrum":true},{"pitch":44,"velocity":80,"startTime":67.093482,"endTime":67.1181125,"instrument":1,"isDrum":true},{"pitch":51,"velocity":80,"startTime":67.093482,"endTime":67.1181125,"instrument":1,"isDrum":true},{"pitch":53,"velocity":80,"startTime":67.093482,"endTime":67.1181125,"instrument":1,"isDrum":true},{"pitch":35,"velocity":80,"startTime":67.38904799999999,"endTime":67.41367849999999,"instrument":1,"isDrum":true},{"pitch":44,"velocity":80,"startTime":67.38904799999999,"endTime":67.41367849999999,"instrument":1,"isDrum":true},{"pitch":51,"velocity":80,"startTime":67.38904799999999,"endTime":67.41367849999999,"instrument":1,"isDrum":true},{"pitch":53,"velocity":80,"startTime":67.586092,"endTime":67.6107225,"instrument":1,"isDrum":true},{"pitch":35,"velocity":80,"startTime":67.684614,"endTime":67.7092445,"instrument":1,"isDrum":true},{"pitch":44,"velocity":80,"startTime":67.684614,"endTime":67.7092445,"instrument":1,"isDrum":true},{"pitch":51,"velocity":80,"startTime":67.684614,"endTime":67.7092445,"instrument":1,"isDrum":true},{"pitch":53,"velocity":80,"startTime":67.881658,"endTime":67.9062885,"instrument":1,"isDrum":true},{"pitch":35,"velocity":80,"startTime":67.98017999999999,"endTime":68.00481049999999,"instrument":1,"isDrum":true},{"pitch":44,"velocity":80,"startTime":67.98017999999999,"endTime":68.00481049999999,"instrument":1,"isDrum":true},{"pitch":51,"velocity":80,"startTime":67.98017999999999,"endTime":68.00481049999999,"instrument":1,"isDrum":true},{"pitch":46,"velocity":80,"startTime":68.177224,"endTime":68.275746,"instrument":1,"isDrum":true},{"pitch":51,"velocity":80,"startTime":68.177224,"endTime":68.275746,"instrument":1,"isDrum":true},{"pitch":35,"velocity":80,"startTime":68.275746,"endTime":68.3003765,"instrument":1,"isDrum":true},{"pitch":44,"velocity":80,"startTime":68.275746,"endTime":68.3003765,"instrument":1,"isDrum":true},{"pitch":51,"velocity":80,"startTime":68.275746,"endTime":68.3003765,"instrument":1,"isDrum":true},{"pitch":53,"velocity":80,"startTime":68.47278999999999,"endTime":68.49742049999999,"instrument":1,"isDrum":true},{"pitch":35,"velocity":80,"startTime":68.57131199999999,"endTime":68.59594249999999,"instrument":1,"isDrum":true},{"pitch":44,"velocity":80,"startTime":68.57131199999999,"endTime":68.59594249999999,"instrument":1,"isDrum":true},{"pitch":51,"velocity":80,"startTime":68.57131199999999,"endTime":68.59594249999999,"instrument":1,"isDrum":true},{"pitch":53,"velocity":80,"startTime":68.57131199999999,"endTime":68.59594249999999,"instrument":1,"isDrum":true},{"pitch":35,"velocity":80,"startTime":68.866878,"endTime":68.8915085,"instrument":1,"isDrum":true},{"pitch":44,"velocity":80,"startTime":68.866878,"endTime":68.8915085,"instrument":1,"isDrum":true},{"pitch":51,"velocity":80,"startTime":68.866878,"endTime":68.8915085,"instrument":1,"isDrum":true},{"pitch":39,"velocity":80,"startTime":69.06392199999999,"endTime":69.08855249999999,"instrument":1,"isDrum":true},{"pitch":51,"velocity":80,"startTime":69.06392199999999,"endTime":69.08855249999999,"instrument":1,"isDrum":true},{"pitch":35,"velocity":80,"startTime":69.162444,"endTime":69.1870745,"instrument":1,"isDrum":true},{"pitch":44,"velocity":80,"startTime":69.162444,"endTime":69.1870745,"instrument":1,"isDrum":true},{"pitch":51,"velocity":80,"startTime":69.162444,"endTime":69.1870745,"instrument":1,"isDrum":true},{"pitch":46,"velocity":80,"startTime":69.359488,"endTime":69.45801,"instrument":1,"isDrum":true},{"pitch":51,"velocity":80,"startTime":69.359488,"endTime":69.45801,"instrument":1,"isDrum":true},{"pitch":35,"velocity":80,"startTime":69.45801,"endTime":69.4826405,"instrument":1,"isDrum":true},{"pitch":39,"velocity":80,"startTime":69.45801,"endTime":69.4826405,"instrument":1,"isDrum":true},{"pitch":44,"velocity":80,"startTime":69.45801,"endTime":69.4826405,"instrument":1,"isDrum":true},{"pitch":51,"velocity":80,"startTime":69.45801,"endTime":69.4826405,"instrument":1,"isDrum":true},{"pitch":39,"velocity":80,"startTime":69.65505399999999,"endTime":69.6796845,"instrument":1,"isDrum":true},{"pitch":51,"velocity":80,"startTime":69.65505399999999,"endTime":69.6796845,"instrument":1,"isDrum":true},{"pitch":35,"velocity":80,"startTime":69.753576,"endTime":69.7782065,"instrument":1,"isDrum":true},{"pitch":44,"velocity":80,"startTime":69.753576,"endTime":69.7782065,"instrument":1,"isDrum":true},{"pitch":51,"velocity":80,"startTime":69.753576,"endTime":69.7782065,"instrument":1,"isDrum":true},{"pitch":51,"velocity":80,"startTime":69.95062,"endTime":69.9752505,"instrument":1,"isDrum":true},{"pitch":35,"velocity":80,"startTime":70.04914199999999,"endTime":70.07377249999999,"instrument":1,"isDrum":true},{"pitch":39,"velocity":80,"startTime":70.04914199999999,"endTime":70.07377249999999,"instrument":1,"isDrum":true},{"pitch":44,"velocity":80,"startTime":70.04914199999999,"endTime":70.07377249999999,"instrument":1,"isDrum":true},{"pitch":51,"velocity":80,"startTime":70.04914199999999,"endTime":70.07377249999999,"instrument":1,"isDrum":true},{"pitch":39,"velocity":80,"startTime":70.246186,"endTime":70.2708165,"instrument":1,"isDrum":true},{"pitch":51,"velocity":80,"startTime":70.246186,"endTime":70.2708165,"instrument":1,"isDrum":true},{"pitch":35,"velocity":80,"startTime":70.344708,"endTime":70.3693385,"instrument":1,"isDrum":true},{"pitch":44,"velocity":80,"startTime":70.344708,"endTime":70.3693385,"instrument":1,"isDrum":true},{"pitch":51,"velocity":80,"startTime":70.344708,"endTime":70.3693385,"instrument":1,"isDrum":true},{"pitch":51,"velocity":80,"startTime":70.54175199999999,"endTime":70.56638249999999,"instrument":1,"isDrum":true},{"pitch":35,"velocity":80,"startTime":70.64027399999999,"endTime":70.66490449999999,"instrument":1,"isDrum":true},{"pitch":39,"velocity":80,"startTime":70.64027399999999,"endTime":70.66490449999999,"instrument":1,"isDrum":true},{"pitch":44,"velocity":80,"startTime":70.64027399999999,"endTime":70.66490449999999,"instrument":1,"isDrum":true},{"pitch":51,"velocity":80,"startTime":70.64027399999999,"endTime":70.66490449999999,"instrument":1,"isDrum":true},{"pitch":39,"velocity":80,"startTime":70.837318,"endTime":70.8619485,"instrument":1,"isDrum":true},{"pitch":51,"velocity":80,"startTime":70.837318,"endTime":70.8619485,"instrument":1,"isDrum":true},{"pitch":35,"velocity":80,"startTime":70.93584,"endTime":70.9604705,"instrument":1,"isDrum":true},{"pitch":44,"velocity":80,"startTime":70.93584,"endTime":70.9604705,"instrument":1,"isDrum":true},{"pitch":53,"velocity":80,"startTime":70.93584,"endTime":70.9604705,"instrument":1,"isDrum":true},{"pitch":51,"velocity":80,"startTime":71.13288399999999,"endTime":71.15751449999999,"instrument":1,"isDrum":true},{"pitch":35,"velocity":80,"startTime":71.23140599999999,"endTime":71.2560365,"instrument":1,"isDrum":true},{"pitch":44,"velocity":80,"startTime":71.23140599999999,"endTime":71.2560365,"instrument":1,"isDrum":true},{"pitch":51,"velocity":80,"startTime":71.23140599999999,"endTime":71.2560365,"instrument":1,"isDrum":true},{"pitch":53,"velocity":80,"startTime":71.23140599999999,"endTime":71.2560365,"instrument":1,"isDrum":true},{"pitch":44,"velocity":80,"startTime":71.526972,"endTime":71.5516025,"instrument":1,"isDrum":true},{"pitch":51,"velocity":80,"startTime":71.72401599999999,"endTime":71.74864649999999,"instrument":1,"isDrum":true},{"pitch":35,"velocity":80,"startTime":71.822538,"endTime":71.8471685,"instrument":1,"isDrum":true},{"pitch":44,"velocity":80,"startTime":71.822538,"endTime":71.8471685,"instrument":1,"isDrum":true},{"pitch":51,"velocity":80,"startTime":71.822538,"endTime":71.8471685,"instrument":1,"isDrum":true},{"pitch":53,"velocity":80,"startTime":71.822538,"endTime":71.8471685,"instrument":1,"isDrum":true},{"pitch":51,"velocity":80,"startTime":72.019582,"endTime":72.0442125,"instrument":1,"isDrum":true},{"pitch":35,"velocity":80,"startTime":72.11810399999999,"endTime":72.14273449999999,"instrument":1,"isDrum":true},{"pitch":44,"velocity":80,"startTime":72.11810399999999,"endTime":72.14273449999999,"instrument":1,"isDrum":true},{"pitch":51,"velocity":80,"startTime":72.11810399999999,"endTime":72.14273449999999,"instrument":1,"isDrum":true},{"pitch":51,"velocity":80,"startTime":72.315148,"endTime":72.3397785,"instrument":1,"isDrum":true},{"pitch":35,"velocity":80,"startTime":72.41367,"endTime":72.4383005,"instrument":1,"isDrum":true},{"pitch":44,"velocity":80,"startTime":72.41367,"endTime":72.4383005,"instrument":1,"isDrum":true},{"pitch":51,"velocity":80,"startTime":72.41367,"endTime":72.4383005,"instrument":1,"isDrum":true},{"pitch":53,"velocity":80,"startTime":72.41367,"endTime":72.4383005,"instrument":1,"isDrum":true},{"pitch":44,"velocity":80,"startTime":72.70923599999999,"endTime":72.73386649999999,"instrument":1,"isDrum":true},{"pitch":51,"velocity":80,"startTime":72.90628,"endTime":72.9309105,"instrument":1,"isDrum":true},{"pitch":35,"velocity":80,"startTime":73.004802,"endTime":73.0294325,"instrument":1,"isDrum":true},{"pitch":44,"velocity":80,"startTime":73.004802,"endTime":73.0294325,"instrument":1,"isDrum":true},{"pitch":51,"velocity":80,"startTime":73.004802,"endTime":73.0294325,"instrument":1,"isDrum":true},{"pitch":53,"velocity":80,"startTime":73.004802,"endTime":73.0294325,"instrument":1,"isDrum":true},{"pitch":51,"velocity":80,"startTime":73.20184599999999,"endTime":73.22647649999999,"instrument":1,"isDrum":true},{"pitch":35,"velocity":80,"startTime":73.30036799999999,"endTime":73.32499849999999,"instrument":1,"isDrum":true},{"pitch":44,"velocity":80,"startTime":73.30036799999999,"endTime":73.32499849999999,"instrument":1,"isDrum":true},{"pitch":51,"velocity":80,"startTime":73.30036799999999,"endTime":73.32499849999999,"instrument":1,"isDrum":true},{"pitch":51,"velocity":80,"startTime":73.497412,"endTime":73.5220425,"instrument":1,"isDrum":true},{"pitch":35,"velocity":80,"startTime":73.595934,"endTime":73.6205645,"instrument":1,"isDrum":true},{"pitch":44,"velocity":80,"startTime":73.595934,"endTime":73.6205645,"instrument":1,"isDrum":true},{"pitch":51,"velocity":80,"startTime":73.595934,"endTime":73.6205645,"instrument":1,"isDrum":true},{"pitch":53,"velocity":80,"startTime":73.595934,"endTime":73.6205645,"instrument":1,"isDrum":true},{"pitch":51,"velocity":80,"startTime":73.79297799999999,"endTime":73.81760849999999,"instrument":1,"isDrum":true},{"pitch":35,"velocity":80,"startTime":73.8915,"endTime":73.9161305,"instrument":1,"isDrum":true},{"pitch":44,"velocity":80,"startTime":73.8915,"endTime":73.9161305,"instrument":1,"isDrum":true},{"pitch":51,"velocity":80,"startTime":73.8915,"endTime":73.9161305,"instrument":1,"isDrum":true},{"pitch":51,"velocity":80,"startTime":74.088544,"endTime":74.1131745,"instrument":1,"isDrum":true},{"pitch":35,"velocity":80,"startTime":74.187066,"endTime":74.21169649999999,"instrument":1,"isDrum":true},{"pitch":44,"velocity":80,"startTime":74.187066,"endTime":74.21169649999999,"instrument":1,"isDrum":true},{"pitch":51,"velocity":80,"startTime":74.187066,"endTime":74.21169649999999,"instrument":1,"isDrum":true},{"pitch":53,"velocity":80,"startTime":74.187066,"endTime":74.21169649999999,"instrument":1,"isDrum":true},{"pitch":39,"velocity":80,"startTime":74.482632,"endTime":74.5072625,"instrument":1,"isDrum":true},{"pitch":44,"velocity":80,"startTime":74.482632,"endTime":74.5072625,"instrument":1,"isDrum":true},{"pitch":51,"velocity":80,"startTime":74.482632,"endTime":74.5072625,"instrument":1,"isDrum":true},{"pitch":39,"velocity":80,"startTime":74.679676,"endTime":74.7043065,"instrument":1,"isDrum":true},{"pitch":51,"velocity":80,"startTime":74.679676,"endTime":74.7043065,"instrument":1,"isDrum":true},{"pitch":35,"velocity":80,"startTime":74.77819799999999,"endTime":74.80282849999999,"instrument":1,"isDrum":true},{"pitch":44,"velocity":80,"startTime":74.77819799999999,"endTime":74.80282849999999,"instrument":1,"isDrum":true},{"pitch":51,"velocity":80,"startTime":74.77819799999999,"endTime":74.80282849999999,"instrument":1,"isDrum":true},{"pitch":53,"velocity":80,"startTime":74.77819799999999,"endTime":74.80282849999999,"instrument":1,"isDrum":true},{"pitch":46,"velocity":80,"startTime":74.975242,"endTime":75.0491335,"instrument":1,"isDrum":true},{"pitch":51,"velocity":80,"startTime":74.975242,"endTime":74.9998725,"instrument":1,"isDrum":true},{"pitch":39,"velocity":80,"startTime":75.073764,"endTime":75.0983945,"instrument":1,"isDrum":true},{"pitch":44,"velocity":80,"startTime":75.073764,"endTime":75.0983945,"instrument":1,"isDrum":true},{"pitch":51,"velocity":80,"startTime":75.073764,"endTime":75.0983945,"instrument":1,"isDrum":true},{"pitch":31,"velocity":103,"startTime":66.206784,"endTime":66.551611,"instrument":2,"program":32},{"pitch":43,"velocity":103,"startTime":66.50234999999999,"endTime":66.8225465,"instrument":2,"program":32},{"pitch":36,"velocity":103,"startTime":66.797916,"endTime":67.142743,"instrument":2,"program":32},{"pitch":38,"velocity":103,"startTime":67.093482,"endTime":67.38904799999999,"instrument":2,"program":32},{"pitch":31,"velocity":103,"startTime":67.38904799999999,"endTime":67.6599835,"instrument":2,"program":32},{"pitch":31,"velocity":103,"startTime":67.684614,"endTime":67.95554949999999,"instrument":2,"program":32},{"pitch":31,"velocity":103,"startTime":67.98017999999999,"endTime":68.2018545,"instrument":2,"program":32},{"pitch":31,"velocity":103,"startTime":68.275746,"endTime":68.54668149999999,"instrument":2,"program":32},{"pitch":28,"velocity":103,"startTime":68.57131199999999,"endTime":68.817617,"instrument":2,"program":32},{"pitch":30,"velocity":103,"startTime":68.866878,"endTime":69.1378135,"instrument":2,"program":32},{"pitch":35,"velocity":103,"startTime":69.162444,"endTime":69.4333795,"instrument":2,"program":32},{"pitch":35,"velocity":103,"startTime":69.45801,"endTime":69.7289455,"instrument":2,"program":32},{"pitch":28,"velocity":103,"startTime":69.753576,"endTime":69.999881,"instrument":2,"program":32},{"pitch":28,"velocity":103,"startTime":70.04914199999999,"endTime":70.295447,"instrument":2,"program":32},{"pitch":35,"velocity":103,"startTime":70.344708,"endTime":70.61564349999999,"instrument":2,"program":32},{"pitch":28,"velocity":103,"startTime":70.64027399999999,"endTime":70.9112095,"instrument":2,"program":32},{"pitch":36,"velocity":103,"startTime":70.93584,"endTime":71.15751449999999,"instrument":2,"program":32},{"pitch":24,"velocity":103,"startTime":71.15751449999999,"endTime":71.23140599999999,"instrument":2,"program":32},{"pitch":36,"velocity":103,"startTime":71.23140599999999,"endTime":71.477711,"instrument":2,"program":32},{"pitch":36,"velocity":103,"startTime":71.526972,"endTime":71.7979075,"instrument":2,"program":32},{"pitch":38,"velocity":103,"startTime":71.822538,"endTime":72.0934735,"instrument":2,"program":32},{"pitch":38,"velocity":103,"startTime":72.11810399999999,"endTime":72.462931,"instrument":2,"program":32},{"pitch":33,"velocity":103,"startTime":72.41367,"endTime":72.73386649999999,"instrument":2,"program":32},{"pitch":40,"velocity":103,"startTime":72.70923599999999,"endTime":73.0294325,"instrument":2,"program":32},{"pitch":45,"velocity":103,"startTime":73.004802,"endTime":73.30036799999999,"instrument":2,"program":32},{"pitch":43,"velocity":103,"startTime":73.30036799999999,"endTime":73.5220425,"instrument":2,"program":32},{"pitch":31,"velocity":103,"startTime":73.5220425,"endTime":73.595934,"instrument":2,"program":32},{"pitch":38,"velocity":103,"startTime":73.595934,"endTime":73.8915,"instrument":2,"program":32},{"pitch":43,"velocity":103,"startTime":73.8915,"endTime":74.187066,"instrument":2,"program":32},{"pitch":38,"velocity":103,"startTime":74.187066,"endTime":74.482632,"instrument":2,"program":32},{"pitch":43,"velocity":103,"startTime":74.482632,"endTime":74.7043065,"instrument":2,"program":32},{"pitch":38,"velocity":103,"startTime":74.7043065,"endTime":74.77819799999999,"instrument":2,"program":32},{"pitch":43,"velocity":103,"startTime":74.77819799999999,"endTime":75.073764,"instrument":2,"program":32},{"pitch":43,"velocity":103,"startTime":75.073764,"endTime":75.36932999999999,"instrument":2,"program":32},{"pitch":38,"velocity":103,"startTime":75.36932999999999,"endTime":75.664896,"instrument":2,"program":32},{"pitch":43,"velocity":57,"startTime":75.68952649999999,"endTime":75.81267899999999},{"pitch":57,"velocity":57,"startTime":75.88657049999999,"endTime":75.9358315},{"pitch":59,"velocity":57,"startTime":75.88657049999999,"endTime":75.9358315},{"pitch":62,"velocity":57,"startTime":75.88657049999999,"endTime":75.9358315},{"pitch":65,"velocity":57,"startTime":75.88657049999999,"endTime":75.9358315},{"pitch":43,"velocity":57,"startTime":76.1821365,"endTime":76.256028},{"pitch":59,"velocity":57,"startTime":76.28065849999999,"endTime":76.35454999999999},{"pitch":62,"velocity":57,"startTime":76.28065849999999,"endTime":76.35454999999999},{"pitch":65,"velocity":57,"startTime":76.28065849999999,"endTime":76.35454999999999},{"pitch":43,"velocity":57,"startTime":77.0688345,"endTime":77.142726},{"pitch":59,"velocity":57,"startTime":77.16735649999998,"endTime":77.24124799999998},{"pitch":62,"velocity":57,"startTime":77.16735649999998,"endTime":77.24124799999998},{"pitch":65,"velocity":57,"startTime":77.16735649999998,"endTime":77.2658785},{"pitch":57,"velocity":57,"startTime":77.95553249999999,"endTime":78.02942399999999},{"pitch":62,"velocity":57,"startTime":77.95553249999999,"endTime":78.02942399999999},{"pitch":66,"velocity":57,"startTime":77.95553249999999,"endTime":78.02942399999999},{"pitch":71,"velocity":57,"startTime":77.95553249999999,"endTime":78.02942399999999},{"pitch":40,"velocity":57,"startTime":78.54666449999999,"endTime":78.620556},{"pitch":59,"velocity":57,"startTime":78.64518649999998,"endTime":78.71907799999998},{"pitch":62,"velocity":57,"startTime":78.64518649999998,"endTime":78.71907799999998},{"pitch":66,"velocity":57,"startTime":78.64518649999998,"endTime":78.7437085},{"pitch":40,"velocity":57,"startTime":78.94075249999999,"endTime":79.06390499999999},{"pitch":59,"velocity":57,"startTime":79.23631849999998,"endTime":79.31020999999998},{"pitch":64,"velocity":57,"startTime":79.23631849999998,"endTime":79.2855795},{"pitch":66,"velocity":57,"startTime":79.23631849999998,"endTime":79.31020999999998},{"pitch":40,"velocity":57,"startTime":79.7289285,"endTime":79.80282},{"pitch":59,"velocity":57,"startTime":79.82745049999998,"endTime":79.8767115},{"pitch":64,"velocity":57,"startTime":79.82745049999998,"endTime":79.8767115},{"pitch":66,"velocity":57,"startTime":79.82745049999998,"endTime":79.90134199999999},{"pitch":59,"velocity":57,"startTime":80.61562649999999,"endTime":80.6648875},{"pitch":60,"velocity":57,"startTime":80.61562649999999,"endTime":80.68951799999999},{"pitch":64,"velocity":57,"startTime":80.61562649999999,"endTime":80.6648875},{"pitch":55,"velocity":57,"startTime":81.20675849999999,"endTime":81.231389},{"pitch":60,"velocity":57,"startTime":81.20675849999999,"endTime":81.2560195},{"pitch":64,"velocity":57,"startTime":81.20675849999999,"endTime":81.231389},{"pitch":57,"velocity":57,"startTime":81.8964125,"endTime":81.9456735},{"pitch":62,"velocity":57,"startTime":81.8964125,"endTime":81.9456735},{"pitch":64,"velocity":57,"startTime":81.8964125,"endTime":81.9456735},{"pitch":67,"velocity":57,"startTime":81.8964125,"endTime":81.970304},{"pitch":62,"velocity":57,"startTime":82.4875445,"endTime":82.561436},{"pitch":64,"velocity":57,"startTime":82.4875445,"endTime":82.561436},{"pitch":67,"velocity":57,"startTime":82.4875445,"endTime":82.561436},{"pitch":71,"velocity":57,"startTime":82.4875445,"endTime":82.561436},{"pitch":62,"velocity":57,"startTime":82.75847999999999,"endTime":82.857002},{"pitch":43,"velocity":57,"startTime":82.78311049999999,"endTime":82.8816325},{"pitch":55,"velocity":57,"startTime":82.78311049999999,"endTime":82.857002},{"pitch":59,"velocity":57,"startTime":82.78311049999999,"endTime":82.857002},{"pitch":55,"velocity":57,"startTime":83.27572049999999,"endTime":83.32498149999999},{"pitch":59,"velocity":57,"startTime":83.27572049999999,"endTime":83.32498149999999},{"pitch":62,"velocity":57,"startTime":83.27572049999999,"endTime":83.32498149999999},{"pitch":50,"velocity":57,"startTime":83.30035099999999,"endTime":83.32498149999999},{"pitch":55,"velocity":57,"startTime":83.8668525,"endTime":85.0491165},{"pitch":59,"velocity":57,"startTime":83.8668525,"endTime":85.0491165},{"pitch":62,"velocity":57,"startTime":83.8668525,"endTime":85.0491165},{"pitch":67,"velocity":57,"startTime":83.8668525,"endTime":85.0491165},{"pitch":35,"velocity":80,"startTime":75.664896,"endTime":75.714157,"instrument":1,"isDrum":true},{"pitch":44,"velocity":80,"startTime":75.664896,"endTime":75.714157,"instrument":1,"isDrum":true},{"pitch":51,"velocity":80,"startTime":75.664896,"endTime":75.714157,"instrument":1,"isDrum":true},{"pitch":53,"velocity":80,"startTime":75.664896,"endTime":75.714157,"instrument":1,"isDrum":true},{"pitch":56,"velocity":80,"startTime":75.664896,"endTime":75.714157,"instrument":1,"isDrum":true},{"pitch":51,"velocity":80,"startTime":75.86194,"endTime":75.9358315,"instrument":1,"isDrum":true},{"pitch":35,"velocity":80,"startTime":75.96046199999999,"endTime":76.00972300000001,"instrument":1,"isDrum":true},{"pitch":44,"velocity":80,"startTime":75.96046199999999,"endTime":76.00972300000001,"instrument":1,"isDrum":true},{"pitch":51,"velocity":80,"startTime":75.96046199999999,"endTime":76.00972300000001,"instrument":1,"isDrum":true},{"pitch":53,"velocity":80,"startTime":75.96046199999999,"endTime":76.00972300000001,"instrument":1,"isDrum":true},{"pitch":56,"velocity":80,"startTime":75.96046199999999,"endTime":76.00972300000001,"instrument":1,"isDrum":true},{"pitch":51,"velocity":80,"startTime":76.157506,"endTime":76.2313975,"instrument":1,"isDrum":true},{"pitch":35,"velocity":80,"startTime":76.256028,"endTime":76.305289,"instrument":1,"isDrum":true},{"pitch":44,"velocity":80,"startTime":76.256028,"endTime":76.305289,"instrument":1,"isDrum":true},{"pitch":51,"velocity":80,"startTime":76.256028,"endTime":76.305289,"instrument":1,"isDrum":true},{"pitch":53,"velocity":80,"startTime":76.256028,"endTime":76.305289,"instrument":1,"isDrum":true},{"pitch":51,"velocity":80,"startTime":76.453072,"endTime":76.52696350000001,"instrument":1,"isDrum":true},{"pitch":35,"velocity":80,"startTime":76.551594,"endTime":76.60085500000001,"instrument":1,"isDrum":true},{"pitch":44,"velocity":80,"startTime":76.551594,"endTime":76.60085500000001,"instrument":1,"isDrum":true},{"pitch":51,"velocity":80,"startTime":76.551594,"endTime":76.60085500000001,"instrument":1,"isDrum":true},{"pitch":53,"velocity":80,"startTime":76.551594,"endTime":76.60085500000001,"instrument":1,"isDrum":true},{"pitch":56,"velocity":80,"startTime":76.551594,"endTime":76.60085500000001,"instrument":1,"isDrum":true},{"pitch":51,"velocity":80,"startTime":76.748638,"endTime":76.8225295,"instrument":1,"isDrum":true},{"pitch":35,"velocity":80,"startTime":76.84715999999999,"endTime":76.896421,"instrument":1,"isDrum":true},{"pitch":44,"velocity":80,"startTime":76.84715999999999,"endTime":76.896421,"instrument":1,"isDrum":true},{"pitch":51,"velocity":80,"startTime":76.84715999999999,"endTime":76.896421,"instrument":1,"isDrum":true},{"pitch":53,"velocity":80,"startTime":76.84715999999999,"endTime":76.896421,"instrument":1,"isDrum":true},{"pitch":51,"velocity":80,"startTime":77.04420400000001,"endTime":77.11809550000001,"instrument":1,"isDrum":true},{"pitch":35,"velocity":80,"startTime":77.142726,"endTime":77.191987,"instrument":1,"isDrum":true},{"pitch":44,"velocity":80,"startTime":77.142726,"endTime":77.191987,"instrument":1,"isDrum":true},{"pitch":51,"velocity":80,"startTime":77.142726,"endTime":77.191987,"instrument":1,"isDrum":true},{"pitch":56,"velocity":80,"startTime":77.142726,"endTime":77.191987,"instrument":1,"isDrum":true},{"pitch":38,"velocity":80,"startTime":77.43829199999999,"endTime":77.487553,"instrument":1,"isDrum":true},{"pitch":44,"velocity":80,"startTime":77.43829199999999,"endTime":77.487553,"instrument":1,"isDrum":true},{"pitch":51,"velocity":80,"startTime":77.43829199999999,"endTime":77.63533600000001,"instrument":1,"isDrum":true},{"pitch":53,"velocity":80,"startTime":77.43829199999999,"endTime":77.487553,"instrument":1,"isDrum":true},{"pitch":56,"velocity":80,"startTime":77.43829199999999,"endTime":77.487553,"instrument":1,"isDrum":true},{"pitch":35,"velocity":80,"startTime":77.733858,"endTime":77.783119,"instrument":1,"isDrum":true},{"pitch":44,"velocity":80,"startTime":77.733858,"endTime":77.783119,"instrument":1,"isDrum":true},{"pitch":51,"velocity":80,"startTime":77.733858,"endTime":77.783119,"instrument":1,"isDrum":true},{"pitch":53,"velocity":80,"startTime":77.733858,"endTime":77.783119,"instrument":1,"isDrum":true},{"pitch":51,"velocity":80,"startTime":77.930902,"endTime":78.0047935,"instrument":1,"isDrum":true},{"pitch":35,"velocity":80,"startTime":78.02942399999999,"endTime":78.07868500000001,"instrument":1,"isDrum":true},{"pitch":44,"velocity":80,"startTime":78.02942399999999,"endTime":78.07868500000001,"instrument":1,"isDrum":true},{"pitch":51,"velocity":80,"startTime":78.02942399999999,"endTime":78.07868500000001,"instrument":1,"isDrum":true},{"pitch":53,"velocity":80,"startTime":78.02942399999999,"endTime":78.07868500000001,"instrument":1,"isDrum":true},{"pitch":56,"velocity":80,"startTime":78.02942399999999,"endTime":78.07868500000001,"instrument":1,"isDrum":true},{"pitch":51,"velocity":80,"startTime":78.226468,"endTime":78.3003595,"instrument":1,"isDrum":true},{"pitch":35,"velocity":80,"startTime":78.32499,"endTime":78.374251,"instrument":1,"isDrum":true},{"pitch":44,"velocity":80,"startTime":78.32499,"endTime":78.374251,"instrument":1,"isDrum":true},{"pitch":51,"velocity":80,"startTime":78.32499,"endTime":78.374251,"instrument":1,"isDrum":true},{"pitch":53,"velocity":80,"startTime":78.32499,"endTime":78.374251,"instrument":1,"isDrum":true},{"pitch":51,"velocity":80,"startTime":78.522034,"endTime":78.5959255,"instrument":1,"isDrum":true},{"pitch":35,"velocity":80,"startTime":78.620556,"endTime":78.66981700000001,"instrument":1,"isDrum":true},{"pitch":44,"velocity":80,"startTime":78.620556,"endTime":78.66981700000001,"instrument":1,"isDrum":true},{"pitch":51,"velocity":80,"startTime":78.620556,"endTime":78.66981700000001,"instrument":1,"isDrum":true},{"pitch":53,"velocity":80,"startTime":78.620556,"endTime":78.66981700000001,"instrument":1,"isDrum":true},{"pitch":56,"velocity":80,"startTime":78.620556,"endTime":78.66981700000001,"instrument":1,"isDrum":true},{"pitch":51,"velocity":80,"startTime":78.8176,"endTime":78.8914915,"instrument":1,"isDrum":true},{"pitch":35,"velocity":80,"startTime":78.916122,"endTime":78.965383,"instrument":1,"isDrum":true},{"pitch":44,"velocity":80,"startTime":78.916122,"endTime":78.965383,"instrument":1,"isDrum":true},{"pitch":51,"velocity":80,"startTime":78.916122,"endTime":78.965383,"instrument":1,"isDrum":true},{"pitch":53,"velocity":80,"startTime":78.916122,"endTime":78.965383,"instrument":1,"isDrum":true},{"pitch":51,"velocity":80,"startTime":79.113166,"endTime":79.18705750000001,"instrument":1,"isDrum":true},{"pitch":35,"velocity":80,"startTime":79.211688,"endTime":79.260949,"instrument":1,"isDrum":true},{"pitch":44,"velocity":80,"startTime":79.211688,"endTime":79.260949,"instrument":1,"isDrum":true},{"pitch":51,"velocity":80,"startTime":79.211688,"endTime":79.260949,"instrument":1,"isDrum":true},{"pitch":53,"velocity":80,"startTime":79.211688,"endTime":79.260949,"instrument":1,"isDrum":true},{"pitch":56,"velocity":80,"startTime":79.211688,"endTime":79.260949,"instrument":1,"isDrum":true},{"pitch":51,"velocity":80,"startTime":79.408732,"endTime":79.4826235,"instrument":1,"isDrum":true},{"pitch":35,"velocity":80,"startTime":79.50725399999999,"endTime":79.556515,"instrument":1,"isDrum":true},{"pitch":44,"velocity":80,"startTime":79.50725399999999,"endTime":79.556515,"instrument":1,"isDrum":true},{"pitch":51,"velocity":80,"startTime":79.50725399999999,"endTime":79.556515,"instrument":1,"isDrum":true},{"pitch":53,"velocity":80,"startTime":79.50725399999999,"endTime":79.556515,"instrument":1,"isDrum":true},{"pitch":51,"velocity":80,"startTime":79.70429800000001,"endTime":79.77818950000001,"instrument":1,"isDrum":true},{"pitch":35,"velocity":80,"startTime":79.80282,"endTime":79.852081,"instrument":1,"isDrum":true},{"pitch":44,"velocity":80,"startTime":79.80282,"endTime":79.852081,"instrument":1,"isDrum":true},{"pitch":53,"velocity":80,"startTime":79.80282,"endTime":79.852081,"instrument":1,"isDrum":true},{"pitch":56,"velocity":80,"startTime":79.80282,"endTime":79.852081,"instrument":1,"isDrum":true},{"pitch":51,"velocity":80,"startTime":79.999864,"endTime":80.0737555,"instrument":1,"isDrum":true},{"pitch":35,"velocity":80,"startTime":80.09838599999999,"endTime":80.147647,"instrument":1,"isDrum":true},{"pitch":44,"velocity":80,"startTime":80.09838599999999,"endTime":80.147647,"instrument":1,"isDrum":true},{"pitch":51,"velocity":80,"startTime":80.09838599999999,"endTime":80.147647,"instrument":1,"isDrum":true},{"pitch":53,"velocity":80,"startTime":80.09838599999999,"endTime":80.147647,"instrument":1,"isDrum":true},{"pitch":51,"velocity":80,"startTime":80.29543000000001,"endTime":80.3693215,"instrument":1,"isDrum":true},{"pitch":35,"velocity":80,"startTime":80.393952,"endTime":80.443213,"instrument":1,"isDrum":true},{"pitch":44,"velocity":80,"startTime":80.393952,"endTime":80.443213,"instrument":1,"isDrum":true},{"pitch":51,"velocity":80,"startTime":80.393952,"endTime":80.443213,"instrument":1,"isDrum":true},{"pitch":53,"velocity":80,"startTime":80.393952,"endTime":80.443213,"instrument":1,"isDrum":true},{"pitch":56,"velocity":80,"startTime":80.393952,"endTime":80.443213,"instrument":1,"isDrum":true},{"pitch":51,"velocity":80,"startTime":80.590996,"endTime":80.6648875,"instrument":1,"isDrum":true},{"pitch":35,"velocity":80,"startTime":80.68951799999999,"endTime":80.738779,"instrument":1,"isDrum":true},{"pitch":44,"velocity":80,"startTime":80.68951799999999,"endTime":80.738779,"instrument":1,"isDrum":true},{"pitch":51,"velocity":80,"startTime":80.68951799999999,"endTime":80.738779,"instrument":1,"isDrum":true},{"pitch":53,"velocity":80,"startTime":80.68951799999999,"endTime":80.738779,"instrument":1,"isDrum":true},{"pitch":51,"velocity":80,"startTime":80.886562,"endTime":80.9604535,"instrument":1,"isDrum":true},{"pitch":35,"velocity":80,"startTime":80.985084,"endTime":81.03434499999999,"instrument":1,"isDrum":true},{"pitch":44,"velocity":80,"startTime":80.985084,"endTime":81.03434499999999,"instrument":1,"isDrum":true},{"pitch":51,"velocity":80,"startTime":80.985084,"endTime":81.03434499999999,"instrument":1,"isDrum":true},{"pitch":56,"velocity":80,"startTime":80.985084,"endTime":81.03434499999999,"instrument":1,"isDrum":true},{"pitch":51,"velocity":80,"startTime":81.18212799999999,"endTime":81.2560195,"instrument":1,"isDrum":true},{"pitch":35,"velocity":80,"startTime":81.28065,"endTime":81.329911,"instrument":1,"isDrum":true},{"pitch":44,"velocity":80,"startTime":81.28065,"endTime":81.329911,"instrument":1,"isDrum":true},{"pitch":51,"velocity":80,"startTime":81.28065,"endTime":81.329911,"instrument":1,"isDrum":true},{"pitch":53,"velocity":80,"startTime":81.28065,"endTime":81.329911,"instrument":1,"isDrum":true},{"pitch":51,"velocity":80,"startTime":81.477694,"endTime":81.55158549999999,"instrument":1,"isDrum":true},{"pitch":35,"velocity":80,"startTime":81.57621599999999,"endTime":81.62547699999999,"instrument":1,"isDrum":true},{"pitch":44,"velocity":80,"startTime":81.57621599999999,"endTime":81.62547699999999,"instrument":1,"isDrum":true},{"pitch":51,"velocity":80,"startTime":81.57621599999999,"endTime":81.62547699999999,"instrument":1,"isDrum":true},{"pitch":53,"velocity":80,"startTime":81.57621599999999,"endTime":81.62547699999999,"instrument":1,"isDrum":true},{"pitch":56,"velocity":80,"startTime":81.57621599999999,"endTime":81.62547699999999,"instrument":1,"isDrum":true},{"pitch":51,"velocity":80,"startTime":81.77326,"endTime":81.8471515,"instrument":1,"isDrum":true},{"pitch":35,"velocity":80,"startTime":81.871782,"endTime":81.921043,"instrument":1,"isDrum":true},{"pitch":44,"velocity":80,"startTime":81.871782,"endTime":81.921043,"instrument":1,"isDrum":true},{"pitch":51,"velocity":80,"startTime":81.871782,"endTime":81.921043,"instrument":1,"isDrum":true},{"pitch":53,"velocity":80,"startTime":81.871782,"endTime":81.921043,"instrument":1,"isDrum":true},{"pitch":53,"velocity":80,"startTime":81.871782,"endTime":81.921043,"instrument":1,"isDrum":true},{"pitch":51,"velocity":80,"startTime":82.068826,"endTime":82.14271749999999,"instrument":1,"isDrum":true},{"pitch":35,"velocity":80,"startTime":82.16734799999999,"endTime":82.21660899999999,"instrument":1,"isDrum":true},{"pitch":44,"velocity":80,"startTime":82.16734799999999,"endTime":82.21660899999999,"instrument":1,"isDrum":true},{"pitch":51,"velocity":80,"startTime":82.16734799999999,"endTime":82.21660899999999,"instrument":1,"isDrum":true},{"pitch":53,"velocity":80,"startTime":82.16734799999999,"endTime":82.21660899999999,"instrument":1,"isDrum":true},{"pitch":56,"velocity":80,"startTime":82.16734799999999,"endTime":82.21660899999999,"instrument":1,"isDrum":true},{"pitch":51,"velocity":80,"startTime":82.364392,"endTime":82.4382835,"instrument":1,"isDrum":true},{"pitch":35,"velocity":80,"startTime":82.462914,"endTime":82.512175,"instrument":1,"isDrum":true},{"pitch":44,"velocity":80,"startTime":82.462914,"endTime":82.512175,"instrument":1,"isDrum":true},{"pitch":51,"velocity":80,"startTime":82.462914,"endTime":82.512175,"instrument":1,"isDrum":true},{"pitch":53,"velocity":80,"startTime":82.462914,"endTime":82.512175,"instrument":1,"isDrum":true},{"pitch":51,"velocity":80,"startTime":82.65995799999999,"endTime":82.73384949999999,"instrument":1,"isDrum":true},{"pitch":35,"velocity":80,"startTime":82.75847999999999,"endTime":82.807741,"instrument":1,"isDrum":true},{"pitch":44,"velocity":80,"startTime":82.75847999999999,"endTime":82.807741,"instrument":1,"isDrum":true},{"pitch":51,"velocity":80,"startTime":82.75847999999999,"endTime":82.807741,"instrument":1,"isDrum":true},{"pitch":56,"velocity":80,"startTime":82.75847999999999,"endTime":82.807741,"instrument":1,"isDrum":true},{"pitch":51,"velocity":80,"startTime":82.955524,"endTime":83.0294155,"instrument":1,"isDrum":true},{"pitch":35,"velocity":80,"startTime":83.054046,"endTime":83.103307,"instrument":1,"isDrum":true},{"pitch":44,"velocity":80,"startTime":83.054046,"endTime":83.103307,"instrument":1,"isDrum":true},{"pitch":51,"velocity":80,"startTime":83.054046,"endTime":83.103307,"instrument":1,"isDrum":true},{"pitch":53,"velocity":80,"startTime":83.054046,"endTime":83.103307,"instrument":1,"isDrum":true},{"pitch":51,"velocity":80,"startTime":83.25108999999999,"endTime":83.32498149999999,"instrument":1,"isDrum":true},{"pitch":35,"velocity":80,"startTime":83.349612,"endTime":83.398873,"instrument":1,"isDrum":true},{"pitch":44,"velocity":80,"startTime":83.349612,"endTime":83.398873,"instrument":1,"isDrum":true},{"pitch":51,"velocity":80,"startTime":83.349612,"endTime":83.398873,"instrument":1,"isDrum":true},{"pitch":53,"velocity":80,"startTime":83.349612,"endTime":83.398873,"instrument":1,"isDrum":true},{"pitch":56,"velocity":80,"startTime":83.349612,"endTime":83.398873,"instrument":1,"isDrum":true},{"pitch":51,"velocity":80,"startTime":83.546656,"endTime":83.6205475,"instrument":1,"isDrum":true},{"pitch":31,"velocity":103,"startTime":75.664896,"endTime":75.98509249999998,"instrument":2,"program":32},{"pitch":38,"velocity":103,"startTime":75.96046199999999,"endTime":76.28065849999999,"instrument":2,"program":32},{"pitch":31,"velocity":103,"startTime":76.256028,"endTime":76.551594,"instrument":2,"program":32},{"pitch":33,"velocity":103,"startTime":76.551594,"endTime":76.84715999999999,"instrument":2,"program":32},{"pitch":31,"velocity":103,"startTime":76.84715999999999,"endTime":77.191987,"instrument":2,"program":32},{"pitch":35,"velocity":103,"startTime":77.142726,"endTime":77.43829199999999,"instrument":2,"program":32},{"pitch":38,"velocity":103,"startTime":77.43829199999999,"endTime":77.733858,"instrument":2,"program":32},{"pitch":35,"velocity":103,"startTime":77.733858,"endTime":78.02942399999999,"instrument":2,"program":32},{"pitch":28,"velocity":103,"startTime":78.02942399999999,"endTime":78.32499,"instrument":2,"program":32},{"pitch":40,"velocity":103,"startTime":78.32499,"endTime":78.5959255,"instrument":2,"program":32},{"pitch":35,"velocity":103,"startTime":78.620556,"endTime":78.8914915,"instrument":2,"program":32},{"pitch":38,"velocity":103,"startTime":78.916122,"endTime":79.211688,"instrument":2,"program":32},{"pitch":28,"velocity":103,"startTime":79.211688,"endTime":79.556515,"instrument":2,"program":32},{"pitch":35,"velocity":103,"startTime":79.50725399999999,"endTime":80.09838599999999,"instrument":2,"program":32},{"pitch":35,"velocity":103,"startTime":79.80282,"endTime":79.82745049999998,"instrument":2,"program":32},{"pitch":38,"velocity":103,"startTime":80.09838599999999,"endTime":80.393952,"instrument":2,"program":32},{"pitch":36,"velocity":103,"startTime":80.393952,"endTime":80.68951799999999,"instrument":2,"program":32},{"pitch":38,"velocity":103,"startTime":80.68951799999999,"endTime":80.985084,"instrument":2,"program":32},{"pitch":40,"velocity":103,"startTime":80.985084,"endTime":81.28065,"instrument":2,"program":32},{"pitch":43,"velocity":103,"startTime":81.28065,"endTime":81.57621599999999,"instrument":2,"program":32},{"pitch":38,"velocity":103,"startTime":81.57621599999999,"endTime":81.871782,"instrument":2,"program":32},{"pitch":40,"velocity":103,"startTime":81.871782,"endTime":82.16734799999999,"instrument":2,"program":32},{"pitch":38,"velocity":103,"startTime":82.16734799999999,"endTime":82.462914,"instrument":2,"program":32},{"pitch":38,"velocity":103,"startTime":82.462914,"endTime":82.68458849999999,"instrument":2,"program":32},{"pitch":26,"velocity":103,"startTime":82.68458849999999,"endTime":82.73384949999999,"instrument":2,"program":32},{"pitch":31,"velocity":103,"startTime":82.75847999999999,"endTime":83.103307,"instrument":2,"program":32},{"pitch":35,"velocity":103,"startTime":83.054046,"endTime":83.349612,"instrument":2,"program":32},{"pitch":38,"velocity":103,"startTime":83.349612,"endTime":83.64517799999999,"instrument":2,"program":32},{"pitch":35,"velocity":103,"startTime":83.64517799999999,"endTime":83.940744,"instrument":2,"program":32},{"pitch":31,"velocity":103,"startTime":83.940744,"endTime":84.28557099999999,"instrument":2,"program":32},{"pitch":38,"velocity":103,"startTime":84.23630999999999,"endTime":84.531876,"instrument":2,"program":32},{"pitch":38,"velocity":103,"startTime":84.531876,"endTime":84.82744199999999,"instrument":2,"program":32},{"pitch":38,"velocity":103,"startTime":84.82744199999999,"endTime":85.123008,"instrument":2,"program":32},{"pitch":43,"velocity":57,"startTime":85.34468249999999,"endTime":85.41857399999999},{"pitch":59,"velocity":57,"startTime":85.34468249999999,"endTime":85.39394349999999},{"pitch":62,"velocity":57,"startTime":85.34468249999999,"endTime":85.39394349999999},{"pitch":52,"velocity":57,"startTime":85.4432045,"endTime":85.517096},{"pitch":59,"velocity":57,"startTime":85.4432045,"endTime":85.517096},{"pitch":62,"velocity":57,"startTime":85.4432045,"endTime":85.517096},{"pitch":43,"velocity":57,"startTime":85.93581449999999,"endTime":86.009706},{"pitch":59,"velocity":57,"startTime":85.93581449999999,"endTime":86.0343365},{"pitch":62,"velocity":57,"startTime":85.93581449999999,"endTime":86.0343365},{"pitch":69,"velocity":57,"startTime":85.93581449999999,"endTime":86.0343365},{"pitch":59,"velocity":57,"startTime":86.30527199999999,"endTime":86.37916349999999},{"pitch":43,"velocity":57,"startTime":86.32990249999999,"endTime":86.37916349999999},{"pitch":62,"velocity":57,"startTime":86.32990249999999,"endTime":86.37916349999999},{"pitch":67,"velocity":57,"startTime":86.32990249999999,"endTime":86.40379399999999},{"pitch":48,"velocity":57,"startTime":86.82251249999999,"endTime":87.43827499999999},{"pitch":59,"velocity":57,"startTime":86.82251249999999,"endTime":87.38901399999999},{"pitch":67,"velocity":57,"startTime":86.82251249999999,"endTime":87.38901399999999},{"pitch":62,"velocity":57,"startTime":86.87177349999999,"endTime":87.38901399999999},{"pitch":50,"velocity":57,"startTime":87.7092105,"endTime":87.7584715},{"pitch":40,"velocity":57,"startTime":88.00477649999999,"endTime":88.05403749999999},{"pitch":59,"velocity":57,"startTime":88.00477649999999,"endTime":88.05403749999999},{"pitch":52,"velocity":57,"startTime":88.1032985,"endTime":88.17719},{"pitch":55,"velocity":57,"startTime":88.1032985,"endTime":88.1525595},{"pitch":62,"velocity":57,"startTime":88.1032985,"endTime":88.17719},{"pitch":50,"velocity":57,"startTime":88.5959085,"endTime":88.7436915},{"pitch":59,"velocity":57,"startTime":88.5959085,"endTime":88.7436915},{"pitch":62,"velocity":57,"startTime":88.5959085,"endTime":88.768322},{"pitch":67,"velocity":57,"startTime":88.5959085,"endTime":88.7436915},{"pitch":50,"velocity":57,"startTime":89.1870405,"endTime":89.63038949999999},{"pitch":59,"velocity":57,"startTime":89.1870405,"endTime":89.58112849999999},{"pitch":62,"velocity":57,"startTime":89.1870405,"endTime":89.58112849999999},{"pitch":67,"velocity":57,"startTime":89.1870405,"endTime":89.58112849999999},{"pitch":48,"velocity":57,"startTime":90.07373849999999,"endTime":90.12299949999999},{"pitch":59,"velocity":57,"startTime":90.14762999999999,"endTime":90.2215215},{"pitch":64,"velocity":57,"startTime":90.14762999999999,"endTime":90.2215215},{"pitch":67,"velocity":57,"startTime":90.14762999999999,"endTime":90.246152},{"pitch":59,"velocity":57,"startTime":90.46782649999999,"endTime":90.64023999999999},{"pitch":64,"velocity":57,"startTime":90.46782649999999,"endTime":90.61560949999999},{"pitch":67,"velocity":57,"startTime":90.46782649999999,"endTime":90.61560949999999},{"pitch":71,"velocity":57,"startTime":90.46782649999999,"endTime":90.61560949999999},{"pitch":59,"velocity":57,"startTime":90.9604365,"endTime":91.15748049999999},{"pitch":62,"velocity":57,"startTime":90.9604365,"endTime":91.15748049999999},{"pitch":67,"velocity":57,"startTime":90.9604365,"endTime":91.13284999999999},{"pitch":71,"velocity":57,"startTime":90.9604365,"endTime":91.10821949999999},{"pitch":62,"velocity":57,"startTime":91.329894,"endTime":91.4530465},{"pitch":67,"velocity":57,"startTime":91.329894,"endTime":91.4530465},{"pitch":71,"velocity":57,"startTime":91.329894,"endTime":91.4530465},{"pitch":59,"velocity":57,"startTime":91.8471345,"endTime":91.8963955},{"pitch":62,"velocity":57,"startTime":91.8471345,"endTime":91.8963955},{"pitch":67,"velocity":57,"startTime":91.8471345,"endTime":91.8963955},{"pitch":71,"velocity":57,"startTime":91.8471345,"endTime":91.8963955},{"pitch":43,"velocity":57,"startTime":92.14270049999999,"endTime":92.19196149999999},{"pitch":59,"velocity":57,"startTime":92.24122249999999,"endTime":92.315114},{"pitch":62,"velocity":57,"startTime":92.24122249999999,"endTime":92.3397445},{"pitch":69,"velocity":57,"startTime":92.24122249999999,"endTime":92.315114},{"pitch":43,"velocity":57,"startTime":92.73383249999999,"endTime":92.78309349999999},{"pitch":59,"velocity":57,"startTime":92.807724,"endTime":92.8816155},{"pitch":62,"velocity":57,"startTime":92.807724,"endTime":92.906246},{"pitch":69,"velocity":57,"startTime":92.807724,"endTime":92.906246},{"pitch":43,"velocity":57,"startTime":93.0293985,"endTime":93.0786595},{"pitch":59,"velocity":57,"startTime":93.10328999999999,"endTime":93.17718149999999},{"pitch":62,"velocity":57,"startTime":93.10328999999999,"endTime":93.20181199999999},{"pitch":69,"velocity":57,"startTime":93.10328999999999,"endTime":93.17718149999999},{"pitch":43,"velocity":57,"startTime":93.62053049999999,"endTime":93.66979149999999},{"pitch":57,"velocity":57,"startTime":93.71905249999999,"endTime":93.79294399999999},{"pitch":62,"velocity":57,"startTime":93.71905249999999,"endTime":93.81757449999999},{"pitch":69,"velocity":57,"startTime":93.71905249999999,"endTime":93.79294399999999},{"pitch":43,"velocity":57,"startTime":93.9160965,"endTime":93.9653575},{"pitch":57,"velocity":57,"startTime":94.0146185,"endTime":94.08851},{"pitch":62,"velocity":57,"startTime":94.0146185,"endTime":94.08851},{"pitch":69,"velocity":57,"startTime":94.0146185,"endTime":94.1131405},{"pitch":43,"velocity":57,"startTime":94.21166249999999,"endTime":94.26092349999999},{"pitch":57,"velocity":57,"startTime":94.31018449999999,"endTime":94.384076},{"pitch":62,"velocity":57,"startTime":94.31018449999999,"endTime":94.384076},{"pitch":69,"velocity":57,"startTime":94.31018449999999,"endTime":94.4087065},{"pitch":35,"velocity":80,"startTime":85.123008,"endTime":85.172269,"instrument":1,"isDrum":true},{"pitch":44,"velocity":80,"startTime":85.123008,"endTime":85.172269,"instrument":1,"isDrum":true},{"pitch":51,"velocity":80,"startTime":85.123008,"endTime":85.172269,"instrument":1,"isDrum":true},{"pitch":53,"velocity":80,"startTime":85.123008,"endTime":85.172269,"instrument":1,"isDrum":true},{"pitch":56,"velocity":80,"startTime":85.123008,"endTime":85.172269,"instrument":1,"isDrum":true},{"pitch":53,"velocity":80,"startTime":85.32005199999999,"endTime":85.39394349999999,"instrument":1,"isDrum":true},{"pitch":37,"velocity":80,"startTime":85.41857399999999,"endTime":85.467835,"instrument":1,"isDrum":true},{"pitch":44,"velocity":80,"startTime":85.41857399999999,"endTime":85.467835,"instrument":1,"isDrum":true},{"pitch":51,"velocity":80,"startTime":85.41857399999999,"endTime":85.467835,"instrument":1,"isDrum":true},{"pitch":56,"velocity":80,"startTime":85.41857399999999,"endTime":85.467835,"instrument":1,"isDrum":true},{"pitch":53,"velocity":80,"startTime":85.615618,"endTime":85.6895095,"instrument":1,"isDrum":true},{"pitch":35,"velocity":80,"startTime":85.71414,"endTime":85.76340099999999,"instrument":1,"isDrum":true},{"pitch":44,"velocity":80,"startTime":85.71414,"endTime":85.76340099999999,"instrument":1,"isDrum":true},{"pitch":51,"velocity":80,"startTime":85.71414,"endTime":85.76340099999999,"instrument":1,"isDrum":true},{"pitch":53,"velocity":80,"startTime":85.71414,"endTime":85.76340099999999,"instrument":1,"isDrum":true},{"pitch":51,"velocity":80,"startTime":85.91118399999999,"endTime":85.9850755,"instrument":1,"isDrum":true},{"pitch":37,"velocity":80,"startTime":86.009706,"endTime":86.058967,"instrument":1,"isDrum":true},{"pitch":38,"velocity":80,"startTime":86.009706,"endTime":86.058967,"instrument":1,"isDrum":true},{"pitch":44,"velocity":80,"startTime":86.009706,"endTime":86.058967,"instrument":1,"isDrum":true},{"pitch":51,"velocity":80,"startTime":86.009706,"endTime":86.058967,"instrument":1,"isDrum":true},{"pitch":53,"velocity":80,"startTime":86.009706,"endTime":86.058967,"instrument":1,"isDrum":true},{"pitch":56,"velocity":80,"startTime":86.009706,"endTime":86.058967,"instrument":1,"isDrum":true},{"pitch":35,"velocity":80,"startTime":86.20675,"endTime":86.28064149999999,"instrument":1,"isDrum":true},{"pitch":53,"velocity":80,"startTime":86.20675,"endTime":86.30527199999999,"instrument":1,"isDrum":true},{"pitch":35,"velocity":80,"startTime":86.30527199999999,"endTime":86.32990249999999,"instrument":1,"isDrum":true},{"pitch":44,"velocity":80,"startTime":86.30527199999999,"endTime":86.32990249999999,"instrument":1,"isDrum":true},{"pitch":53,"velocity":80,"startTime":86.30527199999999,"endTime":86.32990249999999,"instrument":1,"isDrum":true},{"pitch":35,"velocity":80,"startTime":86.502316,"endTime":86.5762075,"instrument":1,"isDrum":true},{"pitch":51,"velocity":80,"startTime":86.502316,"endTime":86.5762075,"instrument":1,"isDrum":true},{"pitch":53,"velocity":80,"startTime":86.502316,"endTime":88.42349499999999,"instrument":1,"isDrum":true},{"pitch":38,"velocity":80,"startTime":86.600838,"endTime":86.650099,"instrument":1,"isDrum":true},{"pitch":44,"velocity":80,"startTime":86.600838,"endTime":86.650099,"instrument":1,"isDrum":true},{"pitch":53,"velocity":80,"startTime":86.600838,"endTime":86.650099,"instrument":1,"isDrum":true},{"pitch":56,"velocity":80,"startTime":86.600838,"endTime":86.650099,"instrument":1,"isDrum":true},{"pitch":51,"velocity":80,"startTime":86.79788199999999,"endTime":86.87177349999999,"instrument":1,"isDrum":true},{"pitch":35,"velocity":80,"startTime":86.89640399999999,"endTime":86.94566499999999,"instrument":1,"isDrum":true},{"pitch":44,"velocity":80,"startTime":86.89640399999999,"endTime":86.94566499999999,"instrument":1,"isDrum":true},{"pitch":53,"velocity":80,"startTime":86.89640399999999,"endTime":86.94566499999999,"instrument":1,"isDrum":true},{"pitch":35,"velocity":80,"startTime":87.093448,"endTime":87.1673395,"instrument":1,"isDrum":true},{"pitch":51,"velocity":80,"startTime":87.093448,"endTime":87.1673395,"instrument":1,"isDrum":true},{"pitch":37,"velocity":80,"startTime":87.19197,"endTime":87.241231,"instrument":1,"isDrum":true},{"pitch":38,"velocity":80,"startTime":87.19197,"endTime":87.241231,"instrument":1,"isDrum":true},{"pitch":44,"velocity":80,"startTime":87.19197,"endTime":87.241231,"instrument":1,"isDrum":true},{"pitch":53,"velocity":80,"startTime":87.19197,"endTime":87.241231,"instrument":1,"isDrum":true},{"pitch":54,"velocity":80,"startTime":87.19197,"endTime":87.241231,"instrument":1,"isDrum":true},{"pitch":35,"velocity":80,"startTime":87.38901399999999,"endTime":87.46290549999999,"instrument":1,"isDrum":true},{"pitch":51,"velocity":80,"startTime":87.38901399999999,"endTime":87.46290549999999,"instrument":1,"isDrum":true},{"pitch":35,"velocity":80,"startTime":87.48753599999999,"endTime":87.53679699999999,"instrument":1,"isDrum":true},{"pitch":44,"velocity":80,"startTime":87.48753599999999,"endTime":87.53679699999999,"instrument":1,"isDrum":true},{"pitch":51,"velocity":80,"startTime":87.48753599999999,"endTime":87.53679699999999,"instrument":1,"isDrum":true},{"pitch":53,"velocity":80,"startTime":87.48753599999999,"endTime":87.53679699999999,"instrument":1,"isDrum":true},{"pitch":51,"velocity":80,"startTime":87.68458,"endTime":87.7584715,"instrument":1,"isDrum":true},{"pitch":37,"velocity":80,"startTime":87.783102,"endTime":87.832363,"instrument":1,"isDrum":true},{"pitch":38,"velocity":80,"startTime":87.783102,"endTime":87.832363,"instrument":1,"isDrum":true},{"pitch":44,"velocity":80,"startTime":87.783102,"endTime":87.832363,"instrument":1,"isDrum":true},{"pitch":51,"velocity":80,"startTime":87.783102,"endTime":87.832363,"instrument":1,"isDrum":true},{"pitch":53,"velocity":80,"startTime":87.783102,"endTime":87.832363,"instrument":1,"isDrum":true},{"pitch":56,"velocity":80,"startTime":87.783102,"endTime":87.832363,"instrument":1,"isDrum":true},{"pitch":35,"velocity":80,"startTime":87.98014599999999,"endTime":88.05403749999999,"instrument":1,"isDrum":true},{"pitch":38,"velocity":80,"startTime":87.98014599999999,"endTime":88.05403749999999,"instrument":1,"isDrum":true},{"pitch":51,"velocity":80,"startTime":87.98014599999999,"endTime":88.05403749999999,"instrument":1,"isDrum":true},{"pitch":35,"velocity":80,"startTime":88.078668,"endTime":88.127929,"instrument":1,"isDrum":true},{"pitch":44,"velocity":80,"startTime":88.078668,"endTime":88.127929,"instrument":1,"isDrum":true},{"pitch":53,"velocity":80,"startTime":88.078668,"endTime":88.127929,"instrument":1,"isDrum":true},{"pitch":35,"velocity":80,"startTime":88.275712,"endTime":88.3496035,"instrument":1,"isDrum":true},{"pitch":51,"velocity":80,"startTime":88.275712,"endTime":88.3496035,"instrument":1,"isDrum":true},{"pitch":37,"velocity":80,"startTime":88.37423399999999,"endTime":88.42349499999999,"instrument":1,"isDrum":true},{"pitch":38,"velocity":80,"startTime":88.37423399999999,"endTime":88.42349499999999,"instrument":1,"isDrum":true},{"pitch":44,"velocity":80,"startTime":88.37423399999999,"endTime":88.42349499999999,"instrument":1,"isDrum":true},{"pitch":53,"velocity":80,"startTime":88.37423399999999,"endTime":88.42349499999999,"instrument":1,"isDrum":true},{"pitch":56,"velocity":80,"startTime":88.37423399999999,"endTime":88.42349499999999,"instrument":1,"isDrum":true},{"pitch":51,"velocity":80,"startTime":88.57127799999999,"endTime":88.6451695,"instrument":1,"isDrum":true},{"pitch":35,"velocity":80,"startTime":88.6698,"endTime":88.719061,"instrument":1,"isDrum":true},{"pitch":44,"velocity":80,"startTime":88.6698,"endTime":88.719061,"instrument":1,"isDrum":true},{"pitch":53,"velocity":80,"startTime":88.6698,"endTime":88.719061,"instrument":1,"isDrum":true},{"pitch":51,"velocity":80,"startTime":88.866844,"endTime":88.94073549999999,"instrument":1,"isDrum":true},{"pitch":37,"velocity":80,"startTime":88.96536599999999,"endTime":89.01462699999999,"instrument":1,"isDrum":true},{"pitch":38,"velocity":80,"startTime":88.96536599999999,"endTime":89.01462699999999,"instrument":1,"isDrum":true},{"pitch":44,"velocity":80,"startTime":88.96536599999999,"endTime":89.01462699999999,"instrument":1,"isDrum":true},{"pitch":51,"velocity":80,"startTime":88.96536599999999,"endTime":89.01462699999999,"instrument":1,"isDrum":true},{"pitch":53,"velocity":80,"startTime":88.96536599999999,"endTime":89.01462699999999,"instrument":1,"isDrum":true},{"pitch":51,"velocity":80,"startTime":89.16241,"endTime":89.2363015,"instrument":1,"isDrum":true},{"pitch":35,"velocity":80,"startTime":89.260932,"endTime":89.310193,"instrument":1,"isDrum":true},{"pitch":44,"velocity":80,"startTime":89.260932,"endTime":89.310193,"instrument":1,"isDrum":true},{"pitch":51,"velocity":80,"startTime":89.260932,"endTime":89.310193,"instrument":1,"isDrum":true},{"pitch":53,"velocity":80,"startTime":89.260932,"endTime":89.310193,"instrument":1,"isDrum":true},{"pitch":51,"velocity":80,"startTime":89.45797599999999,"endTime":89.53186749999999,"instrument":1,"isDrum":true},{"pitch":37,"velocity":80,"startTime":89.55649799999999,"endTime":89.60575899999999,"instrument":1,"isDrum":true},{"pitch":38,"velocity":80,"startTime":89.55649799999999,"endTime":89.60575899999999,"instrument":1,"isDrum":true},{"pitch":44,"velocity":80,"startTime":89.55649799999999,"endTime":89.60575899999999,"instrument":1,"isDrum":true},{"pitch":51,"velocity":80,"startTime":89.55649799999999,"endTime":89.60575899999999,"instrument":1,"isDrum":true},{"pitch":53,"velocity":80,"startTime":89.55649799999999,"endTime":89.60575899999999,"instrument":1,"isDrum":true},{"pitch":35,"velocity":80,"startTime":89.753542,"endTime":89.8274335,"instrument":1,"isDrum":true},{"pitch":51,"velocity":80,"startTime":89.753542,"endTime":89.8274335,"instrument":1,"isDrum":true},{"pitch":35,"velocity":80,"startTime":89.852064,"endTime":89.901325,"instrument":1,"isDrum":true},{"pitch":44,"velocity":80,"startTime":89.852064,"endTime":89.901325,"instrument":1,"isDrum":true},{"pitch":51,"velocity":80,"startTime":89.852064,"endTime":89.901325,"instrument":1,"isDrum":true},{"pitch":53,"velocity":80,"startTime":89.852064,"endTime":89.901325,"instrument":1,"isDrum":true},{"pitch":51,"velocity":80,"startTime":90.04910799999999,"endTime":90.12299949999999,"instrument":1,"isDrum":true},{"pitch":37,"velocity":80,"startTime":90.14762999999999,"endTime":90.196891,"instrument":1,"isDrum":true},{"pitch":38,"velocity":80,"startTime":90.14762999999999,"endTime":90.196891,"instrument":1,"isDrum":true},{"pitch":44,"velocity":80,"startTime":90.14762999999999,"endTime":90.196891,"instrument":1,"isDrum":true},{"pitch":51,"velocity":80,"startTime":90.14762999999999,"endTime":90.196891,"instrument":1,"isDrum":true},{"pitch":53,"velocity":80,"startTime":90.14762999999999,"endTime":90.196891,"instrument":1,"isDrum":true},{"pitch":51,"velocity":80,"startTime":90.344674,"endTime":90.4185655,"instrument":1,"isDrum":true},{"pitch":35,"velocity":80,"startTime":90.443196,"endTime":90.46782649999999,"instrument":1,"isDrum":true},{"pitch":44,"velocity":80,"startTime":90.443196,"endTime":90.46782649999999,"instrument":1,"isDrum":true},{"pitch":51,"velocity":80,"startTime":90.443196,"endTime":90.46782649999999,"instrument":1,"isDrum":true},{"pitch":53,"velocity":80,"startTime":90.443196,"endTime":90.46782649999999,"instrument":1,"isDrum":true},{"pitch":35,"velocity":80,"startTime":90.64023999999999,"endTime":90.7141315,"instrument":1,"isDrum":true},{"pitch":51,"velocity":80,"startTime":90.64023999999999,"endTime":90.7141315,"instrument":1,"isDrum":true},{"pitch":37,"velocity":80,"startTime":90.738762,"endTime":90.788023,"instrument":1,"isDrum":true},{"pitch":44,"velocity":80,"startTime":90.738762,"endTime":90.788023,"instrument":1,"isDrum":true},{"pitch":53,"velocity":80,"startTime":90.738762,"endTime":90.788023,"instrument":1,"isDrum":true},{"pitch":56,"velocity":80,"startTime":90.738762,"endTime":90.788023,"instrument":1,"isDrum":true},{"pitch":51,"velocity":80,"startTime":90.935806,"endTime":91.00969749999999,"instrument":1,"isDrum":true},{"pitch":35,"velocity":80,"startTime":91.03432799999999,"endTime":91.08358899999999,"instrument":1,"isDrum":true},{"pitch":44,"velocity":80,"startTime":91.03432799999999,"endTime":91.08358899999999,"instrument":1,"isDrum":true},{"pitch":51,"velocity":80,"startTime":91.03432799999999,"endTime":91.08358899999999,"instrument":1,"isDrum":true},{"pitch":53,"velocity":80,"startTime":91.03432799999999,"endTime":91.08358899999999,"instrument":1,"isDrum":true},{"pitch":51,"velocity":80,"startTime":91.231372,"endTime":91.3052635,"instrument":1,"isDrum":true},{"pitch":37,"velocity":80,"startTime":91.329894,"endTime":91.379155,"instrument":1,"isDrum":true},{"pitch":38,"velocity":80,"startTime":91.329894,"endTime":91.379155,"instrument":1,"isDrum":true},{"pitch":44,"velocity":80,"startTime":91.329894,"endTime":91.379155,"instrument":1,"isDrum":true},{"pitch":51,"velocity":80,"startTime":91.329894,"endTime":91.379155,"instrument":1,"isDrum":true},{"pitch":53,"velocity":80,"startTime":91.329894,"endTime":91.379155,"instrument":1,"isDrum":true},{"pitch":51,"velocity":80,"startTime":91.52693799999999,"endTime":91.60082949999999,"instrument":1,"isDrum":true},{"pitch":35,"velocity":80,"startTime":91.62545999999999,"endTime":91.67472099999999,"instrument":1,"isDrum":true},{"pitch":44,"velocity":80,"startTime":91.62545999999999,"endTime":91.67472099999999,"instrument":1,"isDrum":true},{"pitch":51,"velocity":80,"startTime":91.62545999999999,"endTime":91.67472099999999,"instrument":1,"isDrum":true},{"pitch":53,"velocity":80,"startTime":91.62545999999999,"endTime":91.67472099999999,"instrument":1,"isDrum":true},{"pitch":51,"velocity":80,"startTime":91.822504,"endTime":91.8963955,"instrument":1,"isDrum":true},{"pitch":37,"velocity":80,"startTime":91.921026,"endTime":91.970287,"instrument":1,"isDrum":true},{"pitch":38,"velocity":80,"startTime":91.921026,"endTime":91.970287,"instrument":1,"isDrum":true},{"pitch":44,"velocity":80,"startTime":91.921026,"endTime":91.970287,"instrument":1,"isDrum":true},{"pitch":51,"velocity":80,"startTime":91.921026,"endTime":91.970287,"instrument":1,"isDrum":true},{"pitch":53,"velocity":80,"startTime":91.921026,"endTime":91.970287,"instrument":1,"isDrum":true},{"pitch":51,"velocity":80,"startTime":92.11806999999999,"endTime":92.19196149999999,"instrument":1,"isDrum":true},{"pitch":35,"velocity":80,"startTime":92.21659199999999,"endTime":92.26585299999999,"instrument":1,"isDrum":true},{"pitch":44,"velocity":80,"startTime":92.21659199999999,"endTime":92.26585299999999,"instrument":1,"isDrum":true},{"pitch":51,"velocity":80,"startTime":92.21659199999999,"endTime":92.26585299999999,"instrument":1,"isDrum":true},{"pitch":53,"velocity":80,"startTime":92.21659199999999,"endTime":92.26585299999999,"instrument":1,"isDrum":true},{"pitch":51,"velocity":80,"startTime":92.413636,"endTime":92.4875275,"instrument":1,"isDrum":true},{"pitch":37,"velocity":80,"startTime":92.512158,"endTime":92.56141899999999,"instrument":1,"isDrum":true},{"pitch":38,"velocity":80,"startTime":92.512158,"endTime":92.56141899999999,"instrument":1,"isDrum":true},{"pitch":44,"velocity":80,"startTime":92.512158,"endTime":92.56141899999999,"instrument":1,"isDrum":true},{"pitch":51,"velocity":80,"startTime":92.512158,"endTime":92.56141899999999,"instrument":1,"isDrum":true},{"pitch":53,"velocity":80,"startTime":92.512158,"endTime":92.56141899999999,"instrument":1,"isDrum":true},{"pitch":35,"velocity":80,"startTime":92.70920199999999,"endTime":92.78309349999999,"instrument":1,"isDrum":true},{"pitch":51,"velocity":80,"startTime":92.70920199999999,"endTime":92.78309349999999,"instrument":1,"isDrum":true},{"pitch":44,"velocity":80,"startTime":92.807724,"endTime":92.856985,"instrument":1,"isDrum":true},{"pitch":51,"velocity":80,"startTime":92.807724,"endTime":92.856985,"instrument":1,"isDrum":true},{"pitch":53,"velocity":80,"startTime":92.807724,"endTime":92.856985,"instrument":1,"isDrum":true},{"pitch":35,"velocity":80,"startTime":93.004768,"endTime":93.0786595,"instrument":1,"isDrum":true},{"pitch":51,"velocity":80,"startTime":93.004768,"endTime":93.0786595,"instrument":1,"isDrum":true},{"pitch":37,"velocity":80,"startTime":93.10328999999999,"endTime":93.15255099999999,"instrument":1,"isDrum":true},{"pitch":38,"velocity":80,"startTime":93.10328999999999,"endTime":93.15255099999999,"instrument":1,"isDrum":true},{"pitch":44,"velocity":80,"startTime":93.10328999999999,"endTime":93.15255099999999,"instrument":1,"isDrum":true},{"pitch":53,"velocity":80,"startTime":93.10328999999999,"endTime":93.15255099999999,"instrument":1,"isDrum":true},{"pitch":35,"velocity":80,"startTime":93.30033399999999,"endTime":93.3742255,"instrument":1,"isDrum":true},{"pitch":51,"velocity":80,"startTime":93.30033399999999,"endTime":93.3742255,"instrument":1,"isDrum":true},{"pitch":31,"velocity":103,"startTime":85.123008,"endTime":85.467835,"instrument":2,"program":32},{"pitch":38,"velocity":103,"startTime":85.41857399999999,"endTime":85.7387705,"instrument":2,"program":32},{"pitch":35,"velocity":103,"startTime":85.71414,"endTime":86.009706,"instrument":2,"program":32},{"pitch":38,"velocity":103,"startTime":86.009706,"endTime":86.30527199999999,"instrument":2,"program":32},{"pitch":31,"velocity":103,"startTime":86.30527199999999,"endTime":86.650099,"instrument":2,"program":32},{"pitch":38,"velocity":103,"startTime":86.600838,"endTime":86.92103449999999,"instrument":2,"program":32},{"pitch":31,"velocity":103,"startTime":86.89640399999999,"endTime":87.48753599999999,"instrument":2,"program":32},{"pitch":31,"velocity":103,"startTime":87.19197,"endTime":87.2166005,"instrument":2,"program":32},{"pitch":28,"velocity":103,"startTime":87.48753599999999,"endTime":87.733841,"instrument":2,"program":32},{"pitch":28,"velocity":103,"startTime":87.783102,"endTime":88.078668,"instrument":2,"program":32},{"pitch":28,"velocity":103,"startTime":88.078668,"endTime":88.275712,"instrument":2,"program":32},{"pitch":28,"velocity":103,"startTime":88.3003425,"endTime":88.37423399999999,"instrument":2,"program":32},{"pitch":33,"velocity":103,"startTime":88.37423399999999,"endTime":88.6698,"instrument":2,"program":32},{"pitch":28,"velocity":103,"startTime":88.6698,"endTime":88.96536599999999,"instrument":2,"program":32},{"pitch":28,"velocity":103,"startTime":88.96536599999999,"endTime":89.260932,"instrument":2,"program":32},{"pitch":28,"velocity":103,"startTime":89.260932,"endTime":89.45797599999999,"instrument":2,"program":32},{"pitch":28,"velocity":103,"startTime":89.48260649999999,"endTime":89.55649799999999,"instrument":2,"program":32},{"pitch":35,"velocity":103,"startTime":89.55649799999999,"endTime":89.852064,"instrument":2,"program":32},{"pitch":36,"velocity":103,"startTime":89.852064,"endTime":90.196891,"instrument":2,"program":32},{"pitch":31,"velocity":103,"startTime":90.14762999999999,"endTime":90.738762,"instrument":2,"program":32},{"pitch":31,"velocity":103,"startTime":90.443196,"endTime":90.46782649999999,"instrument":2,"program":32},{"pitch":36,"velocity":103,"startTime":90.738762,"endTime":91.03432799999999,"instrument":2,"program":32},{"pitch":38,"velocity":103,"startTime":91.03432799999999,"endTime":91.329894,"instrument":2,"program":32},{"pitch":38,"velocity":103,"startTime":91.329894,"endTime":91.62545999999999,"instrument":2,"program":32},{"pitch":38,"velocity":103,"startTime":91.62545999999999,"endTime":91.921026,"instrument":2,"program":32},{"pitch":38,"velocity":103,"startTime":91.921026,"endTime":92.21659199999999,"instrument":2,"program":32},{"pitch":43,"velocity":103,"startTime":92.21659199999999,"endTime":92.4875275,"instrument":2,"program":32},{"pitch":31,"velocity":103,"startTime":92.4382665,"endTime":92.512158,"instrument":2,"program":32},{"pitch":43,"velocity":103,"startTime":92.512158,"endTime":92.807724,"instrument":2,"program":32},{"pitch":43,"velocity":103,"startTime":92.807724,"endTime":93.10328999999999,"instrument":2,"program":32},{"pitch":38,"velocity":103,"startTime":93.10328999999999,"endTime":93.398856,"instrument":2,"program":32},{"pitch":31,"velocity":103,"startTime":93.398856,"endTime":93.74368299999999,"instrument":2,"program":32},{"pitch":38,"velocity":103,"startTime":93.69442199999999,"endTime":93.989988,"instrument":2,"program":32},{"pitch":31,"velocity":103,"startTime":93.989988,"endTime":94.28555399999999,"instrument":2,"program":32},{"pitch":31,"velocity":103,"startTime":94.28555399999999,"endTime":94.482598,"instrument":2,"program":32},{"pitch":31,"velocity":103,"startTime":94.5072285,"endTime":94.58112,"instrument":2,"program":32},{"pitch":43,"velocity":57,"startTime":94.6057505,"endTime":94.67964199999999},{"pitch":59,"velocity":57,"startTime":94.6057505,"endTime":94.67964199999999},{"pitch":62,"velocity":57,"startTime":94.6057505,"endTime":94.70427249999999},{"pitch":66,"velocity":57,"startTime":94.6057505,"endTime":94.67964199999999},{"pitch":43,"velocity":57,"startTime":95.39392649999999,"endTime":95.467818},{"pitch":55,"velocity":57,"startTime":95.39392649999999,"endTime":95.467818},{"pitch":59,"velocity":57,"startTime":95.39392649999999,"endTime":95.467818},{"pitch":62,"velocity":57,"startTime":95.39392649999999,"endTime":95.4431875},{"pitch":66,"velocity":57,"startTime":95.39392649999999,"endTime":95.467818},{"pitch":43,"velocity":57,"startTime":95.6894925,"endTime":96.92101749999999},{"pitch":59,"velocity":57,"startTime":95.6894925,"endTime":96.92101749999999},{"pitch":62,"velocity":57,"startTime":95.6894925,"endTime":96.92101749999999},{"pitch":65,"velocity":57,"startTime":95.6894925,"endTime":96.92101749999999},{"pitch":40,"velocity":57,"startTime":96.94564799999999,"endTime":97.0195395},{"pitch":56,"velocity":57,"startTime":96.94564799999999,"endTime":97.0195395},{"pitch":59,"velocity":57,"startTime":96.94564799999999,"endTime":97.04417},{"pitch":52,"velocity":57,"startTime":96.97027849999999,"endTime":97.0195395},{"pitch":62,"velocity":57,"startTime":96.97027849999999,"endTime":97.0195395},{"pitch":40,"velocity":57,"startTime":97.7584545,"endTime":97.783085},{"pitch":59,"velocity":57,"startTime":97.83234599999999,"endTime":97.93086799999999},{"pitch":62,"velocity":57,"startTime":97.83234599999999,"endTime":97.93086799999999},{"pitch":40,"velocity":57,"startTime":98.34958649999999,"endTime":98.42347799999999},{"pitch":59,"velocity":57,"startTime":98.34958649999999,"endTime":98.42347799999999},{"pitch":67,"velocity":57,"startTime":98.34958649999999,"endTime":98.42347799999999},{"pitch":52,"velocity":57,"startTime":98.37421699999999,"endTime":98.42347799999999},{"pitch":54,"velocity":57,"startTime":98.94071849999999,"endTime":98.98997949999999},{"pitch":59,"velocity":57,"startTime":98.94071849999999,"endTime":98.98997949999999},{"pitch":64,"velocity":57,"startTime":98.94071849999999,"endTime":98.98997949999999},{"pitch":36,"velocity":57,"startTime":99.2362845,"endTime":99.43332849999999},{"pitch":59,"velocity":57,"startTime":99.2362845,"endTime":99.43332849999999},{"pitch":60,"velocity":57,"startTime":99.2362845,"endTime":99.40869799999999},{"pitch":64,"velocity":57,"startTime":99.2362845,"endTime":99.40869799999999},{"pitch":38,"velocity":57,"startTime":100.4185485,"endTime":100.7633755},{"pitch":57,"velocity":57,"startTime":100.7141145,"endTime":100.788006},{"pitch":60,"velocity":57,"startTime":100.7141145,"endTime":100.7633755},{"pitch":64,"velocity":57,"startTime":100.7141145,"endTime":100.7633755},{"pitch":57,"velocity":57,"startTime":101.60081249999999,"endTime":101.7485955},{"pitch":64,"velocity":57,"startTime":101.60081249999999,"endTime":101.7485955},{"pitch":67,"velocity":57,"startTime":101.60081249999999,"endTime":101.7485955},{"pitch":74,"velocity":57,"startTime":101.60081249999999,"endTime":101.7485955},{"pitch":43,"velocity":57,"startTime":102.19194449999999,"endTime":102.265836},{"pitch":57,"velocity":57,"startTime":102.19194449999999,"endTime":102.265836},{"pitch":59,"velocity":57,"startTime":102.19194449999999,"endTime":102.265836},{"pitch":64,"velocity":57,"startTime":102.19194449999999,"endTime":102.265836},{"pitch":67,"velocity":57,"startTime":102.19194449999999,"endTime":102.265836},{"pitch":43,"velocity":57,"startTime":102.78307649999999,"endTime":102.8815985},{"pitch":64,"velocity":57,"startTime":102.78307649999999,"endTime":102.8815985},{"pitch":65,"velocity":57,"startTime":102.78307649999999,"endTime":102.906229},{"pitch":69,"velocity":57,"startTime":102.78307649999999,"endTime":102.8815985},{"pitch":57,"velocity":57,"startTime":103.3742085,"endTime":103.4481},{"pitch":64,"velocity":57,"startTime":103.3742085,"endTime":103.4481},{"pitch":71,"velocity":57,"startTime":103.3742085,"endTime":103.4481},{"pitch":43,"velocity":57,"startTime":103.398839,"endTime":103.4481},{"pitch":35,"velocity":80,"startTime":94.58112,"endTime":94.630381,"instrument":1,"isDrum":true},{"pitch":51,"velocity":80,"startTime":94.58112,"endTime":94.630381,"instrument":1,"isDrum":true},{"pitch":59,"velocity":80,"startTime":94.77816399999999,"endTime":94.85205549999999,"instrument":1,"isDrum":true},{"pitch":35,"velocity":80,"startTime":94.87668599999999,"endTime":94.925947,"instrument":1,"isDrum":true},{"pitch":44,"velocity":80,"startTime":94.87668599999999,"endTime":94.925947,"instrument":1,"isDrum":true},{"pitch":51,"velocity":80,"startTime":94.87668599999999,"endTime":94.925947,"instrument":1,"isDrum":true},{"pitch":56,"velocity":80,"startTime":94.87668599999999,"endTime":94.925947,"instrument":1,"isDrum":true},{"pitch":59,"velocity":80,"startTime":94.87668599999999,"endTime":94.925947,"instrument":1,"isDrum":true},{"pitch":59,"velocity":80,"startTime":95.07373,"endTime":95.1476215,"instrument":1,"isDrum":true},{"pitch":35,"velocity":80,"startTime":95.172252,"endTime":95.22151299999999,"instrument":1,"isDrum":true},{"pitch":59,"velocity":80,"startTime":95.172252,"endTime":95.22151299999999,"instrument":1,"isDrum":true},{"pitch":35,"velocity":80,"startTime":95.467818,"endTime":95.517079,"instrument":1,"isDrum":true},{"pitch":44,"velocity":80,"startTime":95.467818,"endTime":95.517079,"instrument":1,"isDrum":true},{"pitch":51,"velocity":80,"startTime":95.467818,"endTime":95.517079,"instrument":1,"isDrum":true},{"pitch":53,"velocity":80,"startTime":95.467818,"endTime":95.517079,"instrument":1,"isDrum":true},{"pitch":56,"velocity":80,"startTime":95.467818,"endTime":95.517079,"instrument":1,"isDrum":true},{"pitch":59,"velocity":80,"startTime":95.467818,"endTime":95.517079,"instrument":1,"isDrum":true},{"pitch":51,"velocity":80,"startTime":95.664862,"endTime":95.73875349999999,"instrument":1,"isDrum":true},{"pitch":35,"velocity":80,"startTime":95.76338399999999,"endTime":95.81264499999999,"instrument":1,"isDrum":true},{"pitch":51,"velocity":80,"startTime":95.76338399999999,"endTime":95.81264499999999,"instrument":1,"isDrum":true},{"pitch":35,"velocity":80,"startTime":96.05895,"endTime":96.108211,"instrument":1,"isDrum":true},{"pitch":44,"velocity":80,"startTime":96.05895,"endTime":96.108211,"instrument":1,"isDrum":true},{"pitch":51,"velocity":80,"startTime":96.05895,"endTime":96.108211,"instrument":1,"isDrum":true},{"pitch":53,"velocity":80,"startTime":96.05895,"endTime":96.108211,"instrument":1,"isDrum":true},{"pitch":56,"velocity":80,"startTime":96.05895,"endTime":96.108211,"instrument":1,"isDrum":true},{"pitch":59,"velocity":80,"startTime":96.05895,"endTime":96.108211,"instrument":1,"isDrum":true},{"pitch":51,"velocity":80,"startTime":96.25599399999999,"endTime":96.32988549999999,"instrument":1,"isDrum":true},{"pitch":35,"velocity":80,"startTime":96.35451599999999,"endTime":96.40377699999999,"instrument":1,"isDrum":true},{"pitch":51,"velocity":80,"startTime":96.35451599999999,"endTime":96.40377699999999,"instrument":1,"isDrum":true},{"pitch":35,"velocity":80,"startTime":96.650082,"endTime":96.699343,"instrument":1,"isDrum":true},{"pitch":44,"velocity":80,"startTime":96.650082,"endTime":96.699343,"instrument":1,"isDrum":true},{"pitch":51,"velocity":80,"startTime":96.650082,"endTime":96.699343,"instrument":1,"isDrum":true},{"pitch":56,"velocity":80,"startTime":96.650082,"endTime":96.699343,"instrument":1,"isDrum":true},{"pitch":59,"velocity":80,"startTime":96.650082,"endTime":96.699343,"instrument":1,"isDrum":true},{"pitch":51,"velocity":80,"startTime":96.84712599999999,"endTime":96.92101749999999,"instrument":1,"isDrum":true},{"pitch":35,"velocity":80,"startTime":96.94564799999999,"endTime":96.99490899999999,"instrument":1,"isDrum":true},{"pitch":51,"velocity":80,"startTime":96.94564799999999,"endTime":96.99490899999999,"instrument":1,"isDrum":true},{"pitch":35,"velocity":80,"startTime":97.241214,"endTime":97.29047499999999,"instrument":1,"isDrum":true},{"pitch":44,"velocity":80,"startTime":97.241214,"endTime":97.29047499999999,"instrument":1,"isDrum":true},{"pitch":51,"velocity":80,"startTime":97.241214,"endTime":97.29047499999999,"instrument":1,"isDrum":true},{"pitch":56,"velocity":80,"startTime":97.241214,"endTime":97.29047499999999,"instrument":1,"isDrum":true},{"pitch":59,"velocity":80,"startTime":97.241214,"endTime":97.29047499999999,"instrument":1,"isDrum":true},{"pitch":51,"velocity":80,"startTime":97.43825799999999,"endTime":97.51214949999999,"instrument":1,"isDrum":true},{"pitch":35,"velocity":80,"startTime":97.53678,"endTime":97.586041,"instrument":1,"isDrum":true},{"pitch":51,"velocity":80,"startTime":97.53678,"endTime":97.586041,"instrument":1,"isDrum":true},{"pitch":35,"velocity":80,"startTime":97.83234599999999,"endTime":97.88160699999999,"instrument":1,"isDrum":true},{"pitch":44,"velocity":80,"startTime":97.83234599999999,"endTime":97.88160699999999,"instrument":1,"isDrum":true},{"pitch":51,"velocity":80,"startTime":97.83234599999999,"endTime":97.88160699999999,"instrument":1,"isDrum":true},{"pitch":56,"velocity":80,"startTime":97.83234599999999,"endTime":97.88160699999999,"instrument":1,"isDrum":true},{"pitch":59,"velocity":80,"startTime":97.83234599999999,"endTime":97.88160699999999,"instrument":1,"isDrum":true},{"pitch":51,"velocity":80,"startTime":98.02938999999999,"endTime":98.1032815,"instrument":1,"isDrum":true},{"pitch":35,"velocity":80,"startTime":98.127912,"endTime":98.177173,"instrument":1,"isDrum":true},{"pitch":51,"velocity":80,"startTime":98.127912,"endTime":98.177173,"instrument":1,"isDrum":true},{"pitch":35,"velocity":80,"startTime":98.42347799999999,"endTime":98.47273899999999,"instrument":1,"isDrum":true},{"pitch":44,"velocity":80,"startTime":98.42347799999999,"endTime":98.47273899999999,"instrument":1,"isDrum":true},{"pitch":51,"velocity":80,"startTime":98.42347799999999,"endTime":98.47273899999999,"instrument":1,"isDrum":true},{"pitch":56,"velocity":80,"startTime":98.42347799999999,"endTime":98.47273899999999,"instrument":1,"isDrum":true},{"pitch":59,"velocity":80,"startTime":98.42347799999999,"endTime":98.47273899999999,"instrument":1,"isDrum":true},{"pitch":51,"velocity":80,"startTime":98.620522,"endTime":98.6944135,"instrument":1,"isDrum":true},{"pitch":35,"velocity":80,"startTime":98.719044,"endTime":98.768305,"instrument":1,"isDrum":true},{"pitch":51,"velocity":80,"startTime":98.719044,"endTime":98.768305,"instrument":1,"isDrum":true},{"pitch":59,"velocity":80,"startTime":98.719044,"endTime":98.768305,"instrument":1,"isDrum":true},{"pitch":35,"velocity":80,"startTime":99.01460999999999,"endTime":99.06387099999999,"instrument":1,"isDrum":true},{"pitch":44,"velocity":80,"startTime":99.01460999999999,"endTime":99.06387099999999,"instrument":1,"isDrum":true},{"pitch":51,"velocity":80,"startTime":99.01460999999999,"endTime":99.06387099999999,"instrument":1,"isDrum":true},{"pitch":56,"velocity":80,"startTime":99.01460999999999,"endTime":99.06387099999999,"instrument":1,"isDrum":true},{"pitch":59,"velocity":80,"startTime":99.01460999999999,"endTime":99.06387099999999,"instrument":1,"isDrum":true},{"pitch":51,"velocity":80,"startTime":99.211654,"endTime":99.2855455,"instrument":1,"isDrum":true},{"pitch":35,"velocity":80,"startTime":99.310176,"endTime":99.359437,"instrument":1,"isDrum":true},{"pitch":51,"velocity":80,"startTime":99.310176,"endTime":99.359437,"instrument":1,"isDrum":true},{"pitch":59,"velocity":80,"startTime":99.310176,"endTime":99.359437,"instrument":1,"isDrum":true},{"pitch":35,"velocity":80,"startTime":99.60574199999999,"endTime":99.655003,"instrument":1,"isDrum":true},{"pitch":44,"velocity":80,"startTime":99.60574199999999,"endTime":99.655003,"instrument":1,"isDrum":true},{"pitch":51,"velocity":80,"startTime":99.60574199999999,"endTime":99.655003,"instrument":1,"isDrum":true},{"pitch":56,"velocity":80,"startTime":99.60574199999999,"endTime":99.655003,"instrument":1,"isDrum":true},{"pitch":59,"velocity":80,"startTime":99.60574199999999,"endTime":99.655003,"instrument":1,"isDrum":true},{"pitch":51,"velocity":80,"startTime":99.802786,"endTime":99.8766775,"instrument":1,"isDrum":true},{"pitch":35,"velocity":80,"startTime":100.09835199999999,"endTime":100.1722435,"instrument":1,"isDrum":true},{"pitch":44,"velocity":80,"startTime":100.196874,"endTime":100.246135,"instrument":1,"isDrum":true},{"pitch":51,"velocity":80,"startTime":100.196874,"endTime":100.246135,"instrument":1,"isDrum":true},{"pitch":59,"velocity":80,"startTime":100.196874,"endTime":100.246135,"instrument":1,"isDrum":true},{"pitch":62,"velocity":80,"startTime":100.196874,"endTime":100.246135,"instrument":1,"isDrum":true},{"pitch":59,"velocity":80,"startTime":100.295396,"endTime":100.3200265,"instrument":1,"isDrum":true},{"pitch":35,"velocity":80,"startTime":100.393918,"endTime":100.4185485,"instrument":1,"isDrum":true},{"pitch":39,"velocity":80,"startTime":100.393918,"endTime":100.4185485,"instrument":1,"isDrum":true},{"pitch":51,"velocity":80,"startTime":100.393918,"endTime":100.4185485,"instrument":1,"isDrum":true},{"pitch":59,"velocity":80,"startTime":100.393918,"endTime":100.4185485,"instrument":1,"isDrum":true},{"pitch":35,"velocity":80,"startTime":100.49243999999999,"endTime":100.54170099999999,"instrument":1,"isDrum":true},{"pitch":51,"velocity":80,"startTime":100.49243999999999,"endTime":100.54170099999999,"instrument":1,"isDrum":true},{"pitch":35,"velocity":80,"startTime":100.788006,"endTime":100.837267,"instrument":1,"isDrum":true},{"pitch":44,"velocity":80,"startTime":100.788006,"endTime":100.837267,"instrument":1,"isDrum":true},{"pitch":51,"velocity":80,"startTime":100.788006,"endTime":100.837267,"instrument":1,"isDrum":true},{"pitch":56,"velocity":80,"startTime":100.788006,"endTime":100.837267,"instrument":1,"isDrum":true},{"pitch":59,"velocity":80,"startTime":100.788006,"endTime":100.837267,"instrument":1,"isDrum":true},{"pitch":51,"velocity":80,"startTime":100.98504999999999,"endTime":101.05894149999999,"instrument":1,"isDrum":true},{"pitch":51,"velocity":80,"startTime":101.08357199999999,"endTime":101.13283299999999,"instrument":1,"isDrum":true},{"pitch":59,"velocity":80,"startTime":101.08357199999999,"endTime":101.13283299999999,"instrument":1,"isDrum":true},{"pitch":35,"velocity":80,"startTime":101.379138,"endTime":101.428399,"instrument":1,"isDrum":true},{"pitch":44,"velocity":80,"startTime":101.379138,"endTime":101.428399,"instrument":1,"isDrum":true},{"pitch":51,"velocity":80,"startTime":101.379138,"endTime":101.428399,"instrument":1,"isDrum":true},{"pitch":56,"velocity":80,"startTime":101.379138,"endTime":101.428399,"instrument":1,"isDrum":true},{"pitch":59,"velocity":80,"startTime":101.379138,"endTime":101.428399,"instrument":1,"isDrum":true},{"pitch":51,"velocity":80,"startTime":101.57618199999999,"endTime":101.65007349999999,"instrument":1,"isDrum":true},{"pitch":43,"velocity":103,"startTime":94.58112,"endTime":94.82742499999999,"instrument":2,"program":32},{"pitch":31,"velocity":103,"startTime":94.80279449999999,"endTime":94.85205549999999,"instrument":2,"program":32},{"pitch":43,"velocity":103,"startTime":94.87668599999999,"endTime":95.172252,"instrument":2,"program":32},{"pitch":47,"velocity":103,"startTime":95.172252,"endTime":95.4431875,"instrument":2,"program":32},{"pitch":38,"velocity":103,"startTime":95.39392649999999,"endTime":95.4431875,"instrument":2,"program":32},{"pitch":50,"velocity":103,"startTime":95.467818,"endTime":95.73875349999999,"instrument":2,"program":32},{"pitch":38,"velocity":103,"startTime":95.6894925,"endTime":95.71412299999999,"instrument":2,"program":32},{"pitch":31,"velocity":103,"startTime":95.76338399999999,"endTime":96.108211,"instrument":2,"program":32},{"pitch":38,"velocity":103,"startTime":96.05895,"endTime":96.35451599999999,"instrument":2,"program":32},{"pitch":35,"velocity":103,"startTime":96.35451599999999,"endTime":96.650082,"instrument":2,"program":32},{"pitch":38,"velocity":103,"startTime":96.650082,"endTime":96.94564799999999,"instrument":2,"program":32},{"pitch":28,"velocity":103,"startTime":96.94564799999999,"endTime":97.1673225,"instrument":2,"program":32},{"pitch":28,"velocity":103,"startTime":97.1673225,"endTime":97.2165835,"instrument":2,"program":32},{"pitch":35,"velocity":103,"startTime":97.241214,"endTime":97.53678,"instrument":2,"program":32},{"pitch":28,"velocity":103,"startTime":97.53678,"endTime":97.733824,"instrument":2,"program":32},{"pitch":28,"velocity":103,"startTime":97.7584545,"endTime":97.80771549999999,"instrument":2,"program":32},{"pitch":28,"velocity":103,"startTime":97.83234599999999,"endTime":98.1032815,"instrument":2,"program":32},{"pitch":28,"velocity":103,"startTime":98.0540205,"endTime":98.078651,"instrument":2,"program":32},{"pitch":28,"velocity":103,"startTime":98.127912,"endTime":98.719044,"instrument":2,"program":32},{"pitch":35,"velocity":103,"startTime":98.42347799999999,"endTime":98.47273899999999,"instrument":2,"program":32},{"pitch":40,"velocity":103,"startTime":98.719044,"endTime":99.01460999999999,"instrument":2,"program":32},{"pitch":37,"velocity":103,"startTime":99.01460999999999,"endTime":99.310176,"instrument":2,"program":32},{"pitch":36,"velocity":103,"startTime":99.310176,"endTime":99.60574199999999,"instrument":2,"program":32},{"pitch":43,"velocity":103,"startTime":99.60574199999999,"endTime":99.90130799999999,"instrument":2,"program":32},{"pitch":43,"velocity":103,"startTime":99.90130799999999,"endTime":100.09835199999999,"instrument":2,"program":32},{"pitch":31,"velocity":103,"startTime":100.12298249999999,"endTime":100.1722435,"instrument":2,"program":32},{"pitch":43,"velocity":103,"startTime":100.196874,"endTime":100.4185485,"instrument":2,"program":32},{"pitch":31,"velocity":103,"startTime":100.4185485,"endTime":100.46780949999999,"instrument":2,"program":32},{"pitch":38,"velocity":103,"startTime":100.49243999999999,"endTime":100.837267,"instrument":2,"program":32},{"pitch":33,"velocity":103,"startTime":100.788006,"endTime":101.10820249999999,"instrument":2,"program":32},{"pitch":38,"velocity":103,"startTime":101.08357199999999,"endTime":101.67470399999999,"instrument":2,"program":32},{"pitch":38,"velocity":103,"startTime":101.379138,"endTime":101.428399,"instrument":2,"program":32},{"pitch":43,"velocity":103,"startTime":101.67470399999999,"endTime":101.921009,"instrument":2,"program":32},{"pitch":35,"velocity":103,"startTime":101.8963785,"endTime":101.9456395,"instrument":2,"program":32},{"pitch":43,"velocity":103,"startTime":101.97027,"endTime":102.19194449999999,"instrument":2,"program":32},{"pitch":38,"velocity":103,"startTime":102.19194449999999,"endTime":102.24120549999999,"instrument":2,"program":32},{"pitch":47,"velocity":103,"startTime":102.265836,"endTime":102.56140199999999,"instrument":2,"program":32},{"pitch":43,"velocity":103,"startTime":102.56140199999999,"endTime":102.75844599999999,"instrument":2,"program":32},{"pitch":31,"velocity":103,"startTime":102.78307649999999,"endTime":102.807707,"instrument":2,"program":32},{"pitch":43,"velocity":103,"startTime":102.856968,"endTime":103.12790349999999,"instrument":2,"program":32},{"pitch":31,"velocity":103,"startTime":103.07864249999999,"endTime":103.12790349999999,"instrument":2,"program":32},{"pitch":50,"velocity":103,"startTime":103.15253399999999,"endTime":103.3742085,"instrument":2,"program":32},{"pitch":31,"velocity":103,"startTime":103.3742085,"endTime":103.4234695,"instrument":2,"program":32},{"pitch":38,"velocity":103,"startTime":103.4481,"endTime":103.66977449999999,"instrument":2,"program":32},{"pitch":31,"velocity":103,"startTime":103.66977449999999,"endTime":103.71903549999999,"instrument":2,"program":32},{"pitch":43,"velocity":103,"startTime":103.74366599999999,"endTime":104.039232,"instrument":2,"program":32},{"pitch":43,"velocity":57,"startTime":104.33479799999999,"endTime":104.43332},{"pitch":55,"velocity":57,"startTime":104.33479799999999,"endTime":104.43332},{"pitch":59,"velocity":57,"startTime":104.33479799999999,"endTime":104.43332},{"pitch":62,"velocity":57,"startTime":104.33479799999999,"endTime":104.43332},{"pitch":43,"velocity":57,"startTime":104.85203849999999,"endTime":104.9012995},{"pitch":59,"velocity":57,"startTime":104.85203849999999,"endTime":104.9012995},{"pitch":62,"velocity":57,"startTime":104.85203849999999,"endTime":104.9012995},{"pitch":55,"velocity":57,"startTime":104.87666899999999,"endTime":104.9012995},{"pitch":43,"velocity":57,"startTime":105.22149599999999,"endTime":105.32001799999999},{"pitch":59,"velocity":57,"startTime":105.22149599999999,"endTime":105.34464849999999},{"pitch":62,"velocity":57,"startTime":105.22149599999999,"endTime":105.34464849999999},{"pitch":69,"velocity":57,"startTime":105.22149599999999,"endTime":105.32001799999999},{"pitch":43,"velocity":57,"startTime":105.73873649999999,"endTime":105.81262799999999},{"pitch":59,"velocity":57,"startTime":105.73873649999999,"endTime":105.83725849999999},{"pitch":62,"velocity":57,"startTime":105.73873649999999,"endTime":105.83725849999999},{"pitch":69,"velocity":57,"startTime":105.73873649999999,"endTime":105.83725849999999},{"pitch":43,"velocity":57,"startTime":106.0343025,"endTime":106.108194},{"pitch":59,"velocity":57,"startTime":106.0343025,"endTime":106.108194},{"pitch":62,"velocity":57,"startTime":106.0343025,"endTime":106.1328245},{"pitch":69,"velocity":57,"startTime":106.0343025,"endTime":106.108194},{"pitch":40,"velocity":57,"startTime":106.6254345,"endTime":107.51213249999999},{"pitch":59,"velocity":57,"startTime":106.6254345,"endTime":107.51213249999999},{"pitch":62,"velocity":57,"startTime":106.6254345,"endTime":107.51213249999999},{"pitch":66,"velocity":57,"startTime":106.6254345,"endTime":107.51213249999999},{"pitch":40,"velocity":57,"startTime":107.80769849999999,"endTime":108.719027},{"pitch":59,"velocity":57,"startTime":107.80769849999999,"endTime":108.719027},{"pitch":63,"velocity":57,"startTime":107.80769849999999,"endTime":108.6943965},{"pitch":67,"velocity":57,"startTime":107.80769849999999,"endTime":108.669766},{"pitch":48,"velocity":57,"startTime":108.98996249999999,"endTime":109.03922349999999},{"pitch":59,"velocity":57,"startTime":108.98996249999999,"endTime":109.03922349999999},{"pitch":62,"velocity":57,"startTime":108.98996249999999,"endTime":109.03922349999999},{"pitch":43,"velocity":57,"startTime":111.3544905,"endTime":112.21655799999999},{"pitch":57,"velocity":57,"startTime":111.3544905,"endTime":112.21655799999999},{"pitch":59,"velocity":57,"startTime":111.3544905,"endTime":112.21655799999999},{"pitch":62,"velocity":57,"startTime":111.3544905,"endTime":112.21655799999999},{"pitch":43,"velocity":57,"startTime":112.24118849999999,"endTime":113.398822},{"pitch":59,"velocity":57,"startTime":112.24118849999999,"endTime":113.398822},{"pitch":62,"velocity":57,"startTime":112.24118849999999,"endTime":113.398822},{"pitch":65,"velocity":57,"startTime":112.24118849999999,"endTime":113.398822},{"pitch":50,"velocity":57,"startTime":113.4234525,"endTime":113.497344},{"pitch":59,"velocity":57,"startTime":113.4234525,"endTime":113.497344},{"pitch":62,"velocity":57,"startTime":113.4234525,"endTime":113.497344},{"pitch":66,"velocity":57,"startTime":113.4234525,"endTime":113.497344},{"pitch":35,"velocity":80,"startTime":104.039232,"endTime":104.088493,"instrument":1,"isDrum":true},{"pitch":44,"velocity":80,"startTime":104.039232,"endTime":104.088493,"instrument":1,"isDrum":true},{"pitch":51,"velocity":80,"startTime":104.039232,"endTime":104.088493,"instrument":1,"isDrum":true},{"pitch":53,"velocity":80,"startTime":104.039232,"endTime":104.088493,"instrument":1,"isDrum":true},{"pitch":56,"velocity":80,"startTime":104.039232,"endTime":104.088493,"instrument":1,"isDrum":true},{"pitch":51,"velocity":80,"startTime":104.23627599999999,"endTime":104.31016749999999,"instrument":1,"isDrum":true},{"pitch":35,"velocity":80,"startTime":104.33479799999999,"endTime":104.384059,"instrument":1,"isDrum":true},{"pitch":44,"velocity":80,"startTime":104.33479799999999,"endTime":104.384059,"instrument":1,"isDrum":true},{"pitch":51,"velocity":80,"startTime":104.33479799999999,"endTime":104.384059,"instrument":1,"isDrum":true},{"pitch":56,"velocity":80,"startTime":104.33479799999999,"endTime":104.384059,"instrument":1,"isDrum":true},{"pitch":51,"velocity":80,"startTime":104.531842,"endTime":104.6057335,"instrument":1,"isDrum":true},{"pitch":35,"velocity":80,"startTime":104.63036399999999,"endTime":104.67962499999999,"instrument":1,"isDrum":true},{"pitch":44,"velocity":80,"startTime":104.63036399999999,"endTime":104.67962499999999,"instrument":1,"isDrum":true},{"pitch":51,"velocity":80,"startTime":104.63036399999999,"endTime":104.67962499999999,"instrument":1,"isDrum":true},{"pitch":53,"velocity":80,"startTime":104.63036399999999,"endTime":104.67962499999999,"instrument":1,"isDrum":true},{"pitch":51,"velocity":80,"startTime":104.82740799999999,"endTime":104.9012995,"instrument":1,"isDrum":true},{"pitch":35,"velocity":80,"startTime":104.92593,"endTime":104.975191,"instrument":1,"isDrum":true},{"pitch":44,"velocity":80,"startTime":104.92593,"endTime":104.975191,"instrument":1,"isDrum":true},{"pitch":51,"velocity":80,"startTime":104.92593,"endTime":104.975191,"instrument":1,"isDrum":true},{"pitch":56,"velocity":80,"startTime":104.92593,"endTime":104.975191,"instrument":1,"isDrum":true},{"pitch":51,"velocity":80,"startTime":105.122974,"endTime":105.19686549999999,"instrument":1,"isDrum":true},{"pitch":35,"velocity":80,"startTime":105.22149599999999,"endTime":105.27075699999999,"instrument":1,"isDrum":true},{"pitch":44,"velocity":80,"startTime":105.22149599999999,"endTime":105.27075699999999,"instrument":1,"isDrum":true},{"pitch":51,"velocity":80,"startTime":105.22149599999999,"endTime":105.27075699999999,"instrument":1,"isDrum":true},{"pitch":53,"velocity":80,"startTime":105.22149599999999,"endTime":105.27075699999999,"instrument":1,"isDrum":true},{"pitch":51,"velocity":80,"startTime":105.41854,"endTime":105.4924315,"instrument":1,"isDrum":true},{"pitch":35,"velocity":80,"startTime":105.517062,"endTime":105.566323,"instrument":1,"isDrum":true},{"pitch":38,"velocity":80,"startTime":105.517062,"endTime":105.566323,"instrument":1,"isDrum":true},{"pitch":44,"velocity":80,"startTime":105.517062,"endTime":105.566323,"instrument":1,"isDrum":true},{"pitch":51,"velocity":80,"startTime":105.517062,"endTime":105.566323,"instrument":1,"isDrum":true},{"pitch":53,"velocity":80,"startTime":105.517062,"endTime":105.566323,"instrument":1,"isDrum":true},{"pitch":56,"velocity":80,"startTime":105.517062,"endTime":105.566323,"instrument":1,"isDrum":true},{"pitch":51,"velocity":80,"startTime":105.71410599999999,"endTime":105.78799749999999,"instrument":1,"isDrum":true},{"pitch":35,"velocity":80,"startTime":105.81262799999999,"endTime":105.86188899999999,"instrument":1,"isDrum":true},{"pitch":44,"velocity":80,"startTime":105.81262799999999,"endTime":105.86188899999999,"instrument":1,"isDrum":true},{"pitch":51,"velocity":80,"startTime":105.81262799999999,"endTime":105.86188899999999,"instrument":1,"isDrum":true},{"pitch":53,"velocity":80,"startTime":105.81262799999999,"endTime":105.86188899999999,"instrument":1,"isDrum":true},{"pitch":51,"velocity":80,"startTime":106.009672,"endTime":106.0835635,"instrument":1,"isDrum":true},{"pitch":35,"velocity":80,"startTime":106.108194,"endTime":106.157455,"instrument":1,"isDrum":true},{"pitch":38,"velocity":80,"startTime":106.108194,"endTime":106.157455,"instrument":1,"isDrum":true},{"pitch":44,"velocity":80,"startTime":106.108194,"endTime":106.157455,"instrument":1,"isDrum":true},{"pitch":51,"velocity":80,"startTime":106.108194,"endTime":106.157455,"instrument":1,"isDrum":true},{"pitch":53,"velocity":80,"startTime":106.108194,"endTime":106.157455,"instrument":1,"isDrum":true},{"pitch":53,"velocity":80,"startTime":106.108194,"endTime":106.157455,"instrument":1,"isDrum":true},{"pitch":51,"velocity":80,"startTime":106.30523799999999,"endTime":106.37912949999999,"instrument":1,"isDrum":true},{"pitch":35,"velocity":80,"startTime":106.40375999999999,"endTime":106.45302099999999,"instrument":1,"isDrum":true},{"pitch":44,"velocity":80,"startTime":106.40375999999999,"endTime":106.45302099999999,"instrument":1,"isDrum":true},{"pitch":51,"velocity":80,"startTime":106.40375999999999,"endTime":106.45302099999999,"instrument":1,"isDrum":true},{"pitch":53,"velocity":80,"startTime":106.40375999999999,"endTime":106.45302099999999,"instrument":1,"isDrum":true},{"pitch":51,"velocity":80,"startTime":106.600804,"endTime":106.6746955,"instrument":1,"isDrum":true},{"pitch":35,"velocity":80,"startTime":106.699326,"endTime":106.74858699999999,"instrument":1,"isDrum":true},{"pitch":38,"velocity":80,"startTime":106.699326,"endTime":106.74858699999999,"instrument":1,"isDrum":true},{"pitch":44,"velocity":80,"startTime":106.699326,"endTime":106.74858699999999,"instrument":1,"isDrum":true},{"pitch":51,"velocity":80,"startTime":106.699326,"endTime":106.74858699999999,"instrument":1,"isDrum":true},{"pitch":53,"velocity":80,"startTime":106.699326,"endTime":106.74858699999999,"instrument":1,"isDrum":true},{"pitch":54,"velocity":80,"startTime":106.699326,"endTime":106.74858699999999,"instrument":1,"isDrum":true},{"pitch":51,"velocity":80,"startTime":106.89636999999999,"endTime":106.97026149999999,"instrument":1,"isDrum":true},{"pitch":35,"velocity":80,"startTime":106.994892,"endTime":107.044153,"instrument":1,"isDrum":true},{"pitch":44,"velocity":80,"startTime":106.994892,"endTime":107.044153,"instrument":1,"isDrum":true},{"pitch":53,"velocity":80,"startTime":106.994892,"endTime":107.044153,"instrument":1,"isDrum":true},{"pitch":51,"velocity":80,"startTime":107.191936,"endTime":107.26582749999999,"instrument":1,"isDrum":true},{"pitch":35,"velocity":80,"startTime":107.29045799999999,"endTime":107.33971899999999,"instrument":1,"isDrum":true},{"pitch":38,"velocity":80,"startTime":107.29045799999999,"endTime":107.33971899999999,"instrument":1,"isDrum":true},{"pitch":44,"velocity":80,"startTime":107.29045799999999,"endTime":107.33971899999999,"instrument":1,"isDrum":true},{"pitch":51,"velocity":80,"startTime":107.29045799999999,"endTime":107.33971899999999,"instrument":1,"isDrum":true},{"pitch":53,"velocity":80,"startTime":107.29045799999999,"endTime":107.33971899999999,"instrument":1,"isDrum":true},{"pitch":54,"velocity":80,"startTime":107.29045799999999,"endTime":107.33971899999999,"instrument":1,"isDrum":true},{"pitch":51,"velocity":80,"startTime":107.48750199999999,"endTime":107.5613935,"instrument":1,"isDrum":true},{"pitch":35,"velocity":80,"startTime":107.586024,"endTime":107.635285,"instrument":1,"isDrum":true},{"pitch":44,"velocity":80,"startTime":107.586024,"endTime":107.635285,"instrument":1,"isDrum":true},{"pitch":53,"velocity":80,"startTime":107.586024,"endTime":107.635285,"instrument":1,"isDrum":true},{"pitch":51,"velocity":80,"startTime":107.78306799999999,"endTime":107.85695949999999,"instrument":1,"isDrum":true},{"pitch":35,"velocity":80,"startTime":107.88158999999999,"endTime":107.93085099999999,"instrument":1,"isDrum":true},{"pitch":38,"velocity":80,"startTime":107.88158999999999,"endTime":107.93085099999999,"instrument":1,"isDrum":true},{"pitch":44,"velocity":80,"startTime":107.88158999999999,"endTime":107.93085099999999,"instrument":1,"isDrum":true},{"pitch":53,"velocity":80,"startTime":107.88158999999999,"endTime":107.93085099999999,"instrument":1,"isDrum":true},{"pitch":54,"velocity":80,"startTime":107.88158999999999,"endTime":107.93085099999999,"instrument":1,"isDrum":true},{"pitch":51,"velocity":80,"startTime":108.078634,"endTime":108.1525255,"instrument":1,"isDrum":true},{"pitch":35,"velocity":80,"startTime":108.177156,"endTime":108.226417,"instrument":1,"isDrum":true},{"pitch":44,"velocity":80,"startTime":108.177156,"endTime":108.226417,"instrument":1,"isDrum":true},{"pitch":53,"velocity":80,"startTime":108.177156,"endTime":108.226417,"instrument":1,"isDrum":true},{"pitch":35,"velocity":80,"startTime":108.47272199999999,"endTime":108.52198299999999,"instrument":1,"isDrum":true},{"pitch":38,"velocity":80,"startTime":108.47272199999999,"endTime":108.52198299999999,"instrument":1,"isDrum":true},{"pitch":44,"velocity":80,"startTime":108.47272199999999,"endTime":108.52198299999999,"instrument":1,"isDrum":true},{"pitch":51,"velocity":80,"startTime":108.47272199999999,"endTime":108.52198299999999,"instrument":1,"isDrum":true},{"pitch":53,"velocity":80,"startTime":108.47272199999999,"endTime":108.52198299999999,"instrument":1,"isDrum":true},{"pitch":54,"velocity":80,"startTime":108.47272199999999,"endTime":108.52198299999999,"instrument":1,"isDrum":true},{"pitch":51,"velocity":80,"startTime":108.669766,"endTime":108.7436575,"instrument":1,"isDrum":true},{"pitch":35,"velocity":80,"startTime":108.768288,"endTime":108.81754899999999,"instrument":1,"isDrum":true},{"pitch":44,"velocity":80,"startTime":108.768288,"endTime":108.81754899999999,"instrument":1,"isDrum":true},{"pitch":51,"velocity":80,"startTime":108.768288,"endTime":108.81754899999999,"instrument":1,"isDrum":true},{"pitch":53,"velocity":80,"startTime":108.768288,"endTime":108.81754899999999,"instrument":1,"isDrum":true},{"pitch":51,"velocity":80,"startTime":108.96533199999999,"endTime":109.03922349999999,"instrument":1,"isDrum":true},{"pitch":35,"velocity":80,"startTime":109.06385399999999,"endTime":109.113115,"instrument":1,"isDrum":true},{"pitch":38,"velocity":80,"startTime":109.06385399999999,"endTime":109.113115,"instrument":1,"isDrum":true},{"pitch":44,"velocity":80,"startTime":109.06385399999999,"endTime":109.113115,"instrument":1,"isDrum":true},{"pitch":51,"velocity":80,"startTime":109.06385399999999,"endTime":109.113115,"instrument":1,"isDrum":true},{"pitch":53,"velocity":80,"startTime":109.06385399999999,"endTime":109.113115,"instrument":1,"isDrum":true},{"pitch":51,"velocity":80,"startTime":109.260898,"endTime":109.3347895,"instrument":1,"isDrum":true},{"pitch":35,"velocity":80,"startTime":109.35941999999999,"endTime":109.40868099999999,"instrument":1,"isDrum":true},{"pitch":44,"velocity":80,"startTime":109.35941999999999,"endTime":109.40868099999999,"instrument":1,"isDrum":true},{"pitch":51,"velocity":80,"startTime":109.35941999999999,"endTime":109.40868099999999,"instrument":1,"isDrum":true},{"pitch":53,"velocity":80,"startTime":109.35941999999999,"endTime":109.40868099999999,"instrument":1,"isDrum":true},{"pitch":51,"velocity":80,"startTime":109.55646399999999,"endTime":109.6303555,"instrument":1,"isDrum":true},{"pitch":35,"velocity":80,"startTime":109.654986,"endTime":109.704247,"instrument":1,"isDrum":true},{"pitch":38,"velocity":80,"startTime":109.654986,"endTime":109.704247,"instrument":1,"isDrum":true},{"pitch":44,"velocity":80,"startTime":109.654986,"endTime":109.704247,"instrument":1,"isDrum":true},{"pitch":51,"velocity":80,"startTime":109.654986,"endTime":109.704247,"instrument":1,"isDrum":true},{"pitch":53,"velocity":80,"startTime":109.654986,"endTime":109.704247,"instrument":1,"isDrum":true},{"pitch":54,"velocity":80,"startTime":109.654986,"endTime":109.704247,"instrument":1,"isDrum":true},{"pitch":51,"velocity":80,"startTime":109.85203,"endTime":109.92592149999999,"instrument":1,"isDrum":true},{"pitch":35,"velocity":80,"startTime":109.95055199999999,"endTime":109.99981299999999,"instrument":1,"isDrum":true},{"pitch":44,"velocity":80,"startTime":109.95055199999999,"endTime":109.99981299999999,"instrument":1,"isDrum":true},{"pitch":51,"velocity":80,"startTime":109.95055199999999,"endTime":109.99981299999999,"instrument":1,"isDrum":true},{"pitch":53,"velocity":80,"startTime":109.95055199999999,"endTime":109.99981299999999,"instrument":1,"isDrum":true},{"pitch":51,"velocity":80,"startTime":110.147596,"endTime":110.2214875,"instrument":1,"isDrum":true},{"pitch":35,"velocity":80,"startTime":110.246118,"endTime":110.295379,"instrument":1,"isDrum":true},{"pitch":38,"velocity":80,"startTime":110.246118,"endTime":110.295379,"instrument":1,"isDrum":true},{"pitch":44,"velocity":80,"startTime":110.246118,"endTime":110.295379,"instrument":1,"isDrum":true},{"pitch":51,"velocity":80,"startTime":110.246118,"endTime":110.295379,"instrument":1,"isDrum":true},{"pitch":53,"velocity":80,"startTime":110.246118,"endTime":110.295379,"instrument":1,"isDrum":true},{"pitch":54,"velocity":80,"startTime":110.246118,"endTime":110.295379,"instrument":1,"isDrum":true},{"pitch":51,"velocity":80,"startTime":110.44316199999999,"endTime":110.51705349999999,"instrument":1,"isDrum":true},{"pitch":35,"velocity":80,"startTime":110.54168399999999,"endTime":110.59094499999999,"instrument":1,"isDrum":true},{"pitch":44,"velocity":80,"startTime":110.54168399999999,"endTime":110.59094499999999,"instrument":1,"isDrum":true},{"pitch":51,"velocity":80,"startTime":110.54168399999999,"endTime":110.59094499999999,"instrument":1,"isDrum":true},{"pitch":53,"velocity":80,"startTime":110.54168399999999,"endTime":110.59094499999999,"instrument":1,"isDrum":true},{"pitch":51,"velocity":80,"startTime":110.738728,"endTime":110.8126195,"instrument":1,"isDrum":true},{"pitch":35,"velocity":80,"startTime":110.83725,"endTime":110.886511,"instrument":1,"isDrum":true},{"pitch":38,"velocity":80,"startTime":110.83725,"endTime":110.886511,"instrument":1,"isDrum":true},{"pitch":44,"velocity":80,"startTime":110.83725,"endTime":110.886511,"instrument":1,"isDrum":true},{"pitch":51,"velocity":80,"startTime":110.83725,"endTime":110.886511,"instrument":1,"isDrum":true},{"pitch":53,"velocity":80,"startTime":110.83725,"endTime":110.886511,"instrument":1,"isDrum":true},{"pitch":54,"velocity":80,"startTime":110.83725,"endTime":110.886511,"instrument":1,"isDrum":true},{"pitch":51,"velocity":80,"startTime":111.03429399999999,"endTime":111.10818549999999,"instrument":1,"isDrum":true},{"pitch":35,"velocity":80,"startTime":111.13281599999999,"endTime":111.18207699999999,"instrument":1,"isDrum":true},{"pitch":44,"velocity":80,"startTime":111.13281599999999,"endTime":111.18207699999999,"instrument":1,"isDrum":true},{"pitch":51,"velocity":80,"startTime":111.13281599999999,"endTime":111.18207699999999,"instrument":1,"isDrum":true},{"pitch":53,"velocity":80,"startTime":111.13281599999999,"endTime":111.18207699999999,"instrument":1,"isDrum":true},{"pitch":51,"velocity":80,"startTime":111.32986,"endTime":111.4037515,"instrument":1,"isDrum":true},{"pitch":35,"velocity":80,"startTime":111.428382,"endTime":111.47764299999999,"instrument":1,"isDrum":true},{"pitch":38,"velocity":80,"startTime":111.428382,"endTime":111.47764299999999,"instrument":1,"isDrum":true},{"pitch":44,"velocity":80,"startTime":111.428382,"endTime":111.47764299999999,"instrument":1,"isDrum":true},{"pitch":51,"velocity":80,"startTime":111.428382,"endTime":111.47764299999999,"instrument":1,"isDrum":true},{"pitch":53,"velocity":80,"startTime":111.428382,"endTime":111.47764299999999,"instrument":1,"isDrum":true},{"pitch":54,"velocity":80,"startTime":111.428382,"endTime":111.47764299999999,"instrument":1,"isDrum":true},{"pitch":51,"velocity":80,"startTime":111.62542599999999,"endTime":111.69931749999999,"instrument":1,"isDrum":true},{"pitch":43,"velocity":103,"startTime":104.039232,"endTime":104.26090649999999,"instrument":2,"program":32},{"pitch":43,"velocity":103,"startTime":104.26090649999999,"endTime":104.33479799999999,"instrument":2,"program":32},{"pitch":43,"velocity":103,"startTime":104.33479799999999,"endTime":104.63036399999999,"instrument":2,"program":32},{"pitch":50,"velocity":103,"startTime":104.63036399999999,"endTime":104.975191,"instrument":2,"program":32},{"pitch":38,"velocity":103,"startTime":104.92593,"endTime":105.22149599999999,"instrument":2,"program":32},{"pitch":43,"velocity":103,"startTime":105.22149599999999,"endTime":105.4431705,"instrument":2,"program":32},{"pitch":43,"velocity":103,"startTime":105.4431705,"endTime":105.517062,"instrument":2,"program":32},{"pitch":47,"velocity":103,"startTime":105.517062,"endTime":105.81262799999999,"instrument":2,"program":32},{"pitch":50,"velocity":103,"startTime":105.81262799999999,"endTime":106.157455,"instrument":2,"program":32},{"pitch":43,"velocity":103,"startTime":106.108194,"endTime":106.40375999999999,"instrument":2,"program":32},{"pitch":40,"velocity":103,"startTime":106.40375999999999,"endTime":106.6254345,"instrument":2,"program":32},{"pitch":28,"velocity":103,"startTime":106.6254345,"endTime":106.699326,"instrument":2,"program":32},{"pitch":35,"velocity":103,"startTime":106.699326,"endTime":106.994892,"instrument":2,"program":32},{"pitch":40,"velocity":103,"startTime":106.994892,"endTime":107.29045799999999,"instrument":2,"program":32},{"pitch":35,"velocity":103,"startTime":107.29045799999999,"endTime":107.5613935,"instrument":2,"program":32},{"pitch":28,"velocity":103,"startTime":107.586024,"endTime":107.93085099999999,"instrument":2,"program":32},{"pitch":35,"velocity":103,"startTime":107.88158999999999,"endTime":108.177156,"instrument":2,"program":32},{"pitch":35,"velocity":103,"startTime":108.177156,"endTime":108.47272199999999,"instrument":2,"program":32},{"pitch":38,"velocity":103,"startTime":108.47272199999999,"endTime":108.6943965,"instrument":2,"program":32},{"pitch":35,"velocity":103,"startTime":108.6943965,"endTime":108.768288,"instrument":2,"program":32},{"pitch":36,"velocity":103,"startTime":108.768288,"endTime":108.98996249999999,"instrument":2,"program":32},{"pitch":31,"velocity":103,"startTime":108.98996249999999,"endTime":109.06385399999999,"instrument":2,"program":32},{"pitch":43,"velocity":103,"startTime":109.06385399999999,"endTime":109.35941999999999,"instrument":2,"program":32},{"pitch":40,"velocity":103,"startTime":109.35941999999999,"endTime":109.55646399999999,"instrument":2,"program":32},{"pitch":31,"velocity":103,"startTime":109.58109449999999,"endTime":109.654986,"instrument":2,"program":32},{"pitch":43,"velocity":103,"startTime":109.654986,"endTime":109.87666049999999,"instrument":2,"program":32},{"pitch":36,"velocity":103,"startTime":109.87666049999999,"endTime":109.95055199999999,"instrument":2,"program":32},{"pitch":38,"velocity":103,"startTime":109.95055199999999,"endTime":110.295379,"instrument":2,"program":32},{"pitch":45,"velocity":103,"startTime":110.246118,"endTime":110.56631449999999,"instrument":2,"program":32},{"pitch":40,"velocity":103,"startTime":110.54168399999999,"endTime":111.13281599999999,"instrument":2,"program":32},{"pitch":45,"velocity":103,"startTime":110.83725,"endTime":110.886511,"instrument":2,"program":32},{"pitch":43,"velocity":103,"startTime":111.13281599999999,"endTime":111.3052295,"instrument":2,"program":32},{"pitch":38,"velocity":103,"startTime":111.3544905,"endTime":111.428382,"instrument":2,"program":32},{"pitch":38,"velocity":103,"startTime":111.428382,"endTime":111.723948,"instrument":2,"program":32},{"pitch":43,"velocity":103,"startTime":111.723948,"endTime":112.01951399999999,"instrument":2,"program":32},{"pitch":38,"velocity":103,"startTime":112.01951399999999,"endTime":112.31508,"instrument":2,"program":32},{"pitch":31,"velocity":103,"startTime":112.31508,"endTime":112.53675449999999,"instrument":2,"program":32},{"pitch":31,"velocity":103,"startTime":112.53675449999999,"endTime":112.61064599999999,"instrument":2,"program":32},{"pitch":43,"velocity":103,"startTime":112.61064599999999,"endTime":112.906212,"instrument":2,"program":32},{"pitch":38,"velocity":103,"startTime":112.906212,"endTime":113.12788649999999,"instrument":2,"program":32},{"pitch":26,"velocity":103,"startTime":113.12788649999999,"endTime":113.20177799999999,"instrument":2,"program":32},{"pitch":42,"velocity":103,"startTime":113.20177799999999,"endTime":113.497344,"instrument":2,"program":32},{"pitch":43,"velocity":57,"startTime":113.5219745,"endTime":113.59586599999999},{"pitch":58,"velocity":57,"startTime":113.5219745,"endTime":113.59586599999999},{"pitch":62,"velocity":57,"startTime":113.5219745,"endTime":113.62049649999999},{"pitch":69,"velocity":57,"startTime":113.5219745,"endTime":113.59586599999999},{"pitch":48,"velocity":57,"startTime":114.60571649999999,"endTime":114.87665199999999},{"pitch":59,"velocity":57,"startTime":114.60571649999999,"endTime":114.85202149999999},{"pitch":62,"velocity":57,"startTime":114.60571649999999,"endTime":114.85202149999999},{"pitch":69,"velocity":57,"startTime":114.60571649999999,"endTime":114.85202149999999},{"pitch":59,"velocity":57,"startTime":115.566306,"endTime":115.66482799999999},{"pitch":62,"velocity":57,"startTime":115.566306,"endTime":115.66482799999999},{"pitch":69,"velocity":57,"startTime":115.566306,"endTime":115.66482799999999},{"pitch":40,"velocity":57,"startTime":116.0835465,"endTime":116.25595999999999},{"pitch":56,"velocity":57,"startTime":116.0835465,"endTime":116.25595999999999},{"pitch":62,"velocity":57,"startTime":116.0835465,"endTime":116.25595999999999},{"pitch":66,"velocity":57,"startTime":116.0835465,"endTime":116.25595999999999},{"pitch":40,"velocity":57,"startTime":116.6746785,"endTime":116.84709199999999},{"pitch":59,"velocity":57,"startTime":116.6746785,"endTime":116.84709199999999},{"pitch":62,"velocity":57,"startTime":116.6746785,"endTime":116.84709199999999},{"pitch":66,"velocity":57,"startTime":116.6746785,"endTime":116.87172249999999},{"pitch":40,"velocity":57,"startTime":117.26581049999999,"endTime":117.46285449999999},{"pitch":55,"velocity":57,"startTime":117.26581049999999,"endTime":117.43822399999999},{"pitch":62,"velocity":57,"startTime":117.26581049999999,"endTime":117.43822399999999},{"pitch":66,"velocity":57,"startTime":117.26581049999999,"endTime":117.43822399999999},{"pitch":40,"velocity":57,"startTime":118.1525085,"endTime":118.30029149999999},{"pitch":55,"velocity":57,"startTime":118.1525085,"endTime":118.30029149999999},{"pitch":59,"velocity":57,"startTime":118.1525085,"endTime":118.30029149999999},{"pitch":62,"velocity":57,"startTime":118.1525085,"endTime":118.30029149999999},{"pitch":48,"velocity":57,"startTime":118.7436405,"endTime":118.81753199999999},{"pitch":59,"velocity":57,"startTime":118.7436405,"endTime":118.79290149999999},{"pitch":62,"velocity":57,"startTime":118.7436405,"endTime":118.79290149999999},{"pitch":64,"velocity":57,"startTime":118.7436405,"endTime":118.79290149999999},{"pitch":55,"velocity":57,"startTime":119.33477249999999,"endTime":119.40866399999999},{"pitch":62,"velocity":57,"startTime":119.33477249999999,"endTime":119.40866399999999},{"pitch":64,"velocity":57,"startTime":119.33477249999999,"endTime":119.40866399999999},{"pitch":50,"velocity":57,"startTime":119.43329449999999,"endTime":119.48255549999999},{"pitch":62,"velocity":57,"startTime":119.43329449999999,"endTime":119.50718599999999},{"pitch":65,"velocity":57,"startTime":119.43329449999999,"endTime":119.48255549999999},{"pitch":69,"velocity":57,"startTime":119.43329449999999,"endTime":119.48255549999999},{"pitch":50,"velocity":57,"startTime":119.92590449999999,"endTime":119.99979599999999},{"pitch":59,"velocity":57,"startTime":119.92590449999999,"endTime":120.02442649999999},{"pitch":62,"velocity":57,"startTime":119.92590449999999,"endTime":120.02442649999999},{"pitch":65,"velocity":57,"startTime":119.92590449999999,"endTime":120.02442649999999},{"pitch":50,"velocity":57,"startTime":120.2214705,"endTime":120.295362},{"pitch":57,"velocity":57,"startTime":120.2214705,"endTime":120.3199925},{"pitch":62,"velocity":57,"startTime":120.2214705,"endTime":120.3199925},{"pitch":65,"velocity":57,"startTime":120.2214705,"endTime":120.3199925},{"pitch":43,"velocity":57,"startTime":121.10816849999999,"endTime":121.18205999999999},{"pitch":62,"velocity":57,"startTime":121.10816849999999,"endTime":121.18205999999999},{"pitch":67,"velocity":57,"startTime":121.10816849999999,"endTime":121.18205999999999},{"pitch":71,"velocity":57,"startTime":121.10816849999999,"endTime":121.2066905},{"pitch":43,"velocity":57,"startTime":121.69930049999999,"endTime":122.856934},{"pitch":59,"velocity":57,"startTime":121.69930049999999,"endTime":122.856934},{"pitch":62,"velocity":57,"startTime":121.69930049999999,"endTime":122.856934},{"pitch":69,"velocity":57,"startTime":121.69930049999999,"endTime":122.856934},{"pitch":35,"velocity":80,"startTime":113.497344,"endTime":113.57123549999999,"instrument":1,"isDrum":true},{"pitch":44,"velocity":80,"startTime":113.497344,"endTime":113.57123549999999,"instrument":1,"isDrum":true},{"pitch":51,"velocity":80,"startTime":113.497344,"endTime":113.57123549999999,"instrument":1,"isDrum":true},{"pitch":53,"velocity":80,"startTime":113.497344,"endTime":113.57123549999999,"instrument":1,"isDrum":true},{"pitch":51,"velocity":80,"startTime":113.69438799999999,"endTime":113.76827949999999,"instrument":1,"isDrum":true},{"pitch":44,"velocity":80,"startTime":113.79290999999999,"endTime":113.8668015,"instrument":1,"isDrum":true},{"pitch":51,"velocity":80,"startTime":113.79290999999999,"endTime":113.8668015,"instrument":1,"isDrum":true},{"pitch":53,"velocity":80,"startTime":113.79290999999999,"endTime":113.8668015,"instrument":1,"isDrum":true},{"pitch":51,"velocity":80,"startTime":113.989954,"endTime":114.06384549999999,"instrument":1,"isDrum":true},{"pitch":35,"velocity":80,"startTime":114.08847599999999,"endTime":114.16236749999999,"instrument":1,"isDrum":true},{"pitch":44,"velocity":80,"startTime":114.08847599999999,"endTime":114.16236749999999,"instrument":1,"isDrum":true},{"pitch":51,"velocity":80,"startTime":114.08847599999999,"endTime":114.16236749999999,"instrument":1,"isDrum":true},{"pitch":53,"velocity":80,"startTime":114.08847599999999,"endTime":114.16236749999999,"instrument":1,"isDrum":true},{"pitch":51,"velocity":80,"startTime":114.28551999999999,"endTime":114.3594115,"instrument":1,"isDrum":true},{"pitch":44,"velocity":80,"startTime":114.384042,"endTime":114.4579335,"instrument":1,"isDrum":true},{"pitch":51,"velocity":80,"startTime":114.384042,"endTime":114.4579335,"instrument":1,"isDrum":true},{"pitch":53,"velocity":80,"startTime":114.384042,"endTime":114.4579335,"instrument":1,"isDrum":true},{"pitch":51,"velocity":80,"startTime":114.581086,"endTime":114.65497749999999,"instrument":1,"isDrum":true},{"pitch":35,"velocity":80,"startTime":114.67960799999999,"endTime":114.75349949999999,"instrument":1,"isDrum":true},{"pitch":44,"velocity":80,"startTime":114.67960799999999,"endTime":114.75349949999999,"instrument":1,"isDrum":true},{"pitch":51,"velocity":80,"startTime":114.67960799999999,"endTime":114.75349949999999,"instrument":1,"isDrum":true},{"pitch":53,"velocity":80,"startTime":114.67960799999999,"endTime":114.75349949999999,"instrument":1,"isDrum":true},{"pitch":51,"velocity":80,"startTime":114.87665199999999,"endTime":114.9505435,"instrument":1,"isDrum":true},{"pitch":44,"velocity":80,"startTime":114.975174,"endTime":115.0490655,"instrument":1,"isDrum":true},{"pitch":51,"velocity":80,"startTime":114.975174,"endTime":115.0490655,"instrument":1,"isDrum":true},{"pitch":51,"velocity":80,"startTime":115.17221799999999,"endTime":115.24610949999999,"instrument":1,"isDrum":true},{"pitch":35,"velocity":80,"startTime":115.27073999999999,"endTime":115.34463149999999,"instrument":1,"isDrum":true},{"pitch":44,"velocity":80,"startTime":115.27073999999999,"endTime":115.34463149999999,"instrument":1,"isDrum":true},{"pitch":51,"velocity":80,"startTime":115.27073999999999,"endTime":115.34463149999999,"instrument":1,"isDrum":true},{"pitch":53,"velocity":80,"startTime":115.27073999999999,"endTime":115.34463149999999,"instrument":1,"isDrum":true},{"pitch":51,"velocity":80,"startTime":115.467784,"endTime":115.5416755,"instrument":1,"isDrum":true},{"pitch":44,"velocity":80,"startTime":115.566306,"endTime":115.64019749999999,"instrument":1,"isDrum":true},{"pitch":51,"velocity":80,"startTime":115.566306,"endTime":115.64019749999999,"instrument":1,"isDrum":true},{"pitch":53,"velocity":80,"startTime":115.566306,"endTime":115.64019749999999,"instrument":1,"isDrum":true},{"pitch":51,"velocity":80,"startTime":115.76334999999999,"endTime":115.83724149999999,"instrument":1,"isDrum":true},{"pitch":35,"velocity":80,"startTime":115.86187199999999,"endTime":115.9357635,"instrument":1,"isDrum":true},{"pitch":44,"velocity":80,"startTime":115.86187199999999,"endTime":115.9357635,"instrument":1,"isDrum":true},{"pitch":51,"velocity":80,"startTime":115.86187199999999,"endTime":115.9357635,"instrument":1,"isDrum":true},{"pitch":53,"velocity":80,"startTime":115.86187199999999,"endTime":115.9357635,"instrument":1,"isDrum":true},{"pitch":51,"velocity":80,"startTime":116.058916,"endTime":116.1328075,"instrument":1,"isDrum":true},{"pitch":44,"velocity":80,"startTime":116.157438,"endTime":116.23132949999999,"instrument":1,"isDrum":true},{"pitch":51,"velocity":80,"startTime":116.157438,"endTime":116.23132949999999,"instrument":1,"isDrum":true},{"pitch":53,"velocity":80,"startTime":116.157438,"endTime":116.23132949999999,"instrument":1,"isDrum":true},{"pitch":51,"velocity":80,"startTime":116.35448199999999,"endTime":116.42837349999999,"instrument":1,"isDrum":true},{"pitch":35,"velocity":80,"startTime":116.45300399999999,"endTime":116.5268955,"instrument":1,"isDrum":true},{"pitch":44,"velocity":80,"startTime":116.45300399999999,"endTime":116.5268955,"instrument":1,"isDrum":true},{"pitch":51,"velocity":80,"startTime":116.45300399999999,"endTime":116.5268955,"instrument":1,"isDrum":true},{"pitch":53,"velocity":80,"startTime":116.45300399999999,"endTime":116.5268955,"instrument":1,"isDrum":true},{"pitch":51,"velocity":80,"startTime":116.650048,"endTime":116.72393949999999,"instrument":1,"isDrum":true},{"pitch":44,"velocity":80,"startTime":116.74856999999999,"endTime":116.82246149999999,"instrument":1,"isDrum":true},{"pitch":51,"velocity":80,"startTime":116.74856999999999,"endTime":116.82246149999999,"instrument":1,"isDrum":true},{"pitch":53,"velocity":80,"startTime":116.74856999999999,"endTime":116.82246149999999,"instrument":1,"isDrum":true},{"pitch":51,"velocity":80,"startTime":116.94561399999999,"endTime":117.0195055,"instrument":1,"isDrum":true},{"pitch":35,"velocity":80,"startTime":117.044136,"endTime":117.1180275,"instrument":1,"isDrum":true},{"pitch":44,"velocity":80,"startTime":117.044136,"endTime":117.1180275,"instrument":1,"isDrum":true},{"pitch":51,"velocity":80,"startTime":117.044136,"endTime":117.1180275,"instrument":1,"isDrum":true},{"pitch":53,"velocity":80,"startTime":117.044136,"endTime":117.1180275,"instrument":1,"isDrum":true},{"pitch":51,"velocity":80,"startTime":117.24117999999999,"endTime":117.31507149999999,"instrument":1,"isDrum":true},{"pitch":44,"velocity":80,"startTime":117.33970199999999,"endTime":117.41359349999999,"instrument":1,"isDrum":true},{"pitch":51,"velocity":80,"startTime":117.33970199999999,"endTime":117.41359349999999,"instrument":1,"isDrum":true},{"pitch":53,"velocity":80,"startTime":117.33970199999999,"endTime":117.41359349999999,"instrument":1,"isDrum":true},{"pitch":51,"velocity":80,"startTime":117.536746,"endTime":117.6106375,"instrument":1,"isDrum":true},{"pitch":44,"velocity":80,"startTime":117.635268,"endTime":117.7091595,"instrument":1,"isDrum":true},{"pitch":51,"velocity":80,"startTime":117.635268,"endTime":117.7091595,"instrument":1,"isDrum":true},{"pitch":53,"velocity":80,"startTime":117.635268,"endTime":117.7091595,"instrument":1,"isDrum":true},{"pitch":51,"velocity":80,"startTime":117.83231199999999,"endTime":117.90620349999999,"instrument":1,"isDrum":true},{"pitch":44,"velocity":80,"startTime":117.93083399999999,"endTime":118.00472549999999,"instrument":1,"isDrum":true},{"pitch":51,"velocity":80,"startTime":117.93083399999999,"endTime":118.00472549999999,"instrument":1,"isDrum":true},{"pitch":53,"velocity":80,"startTime":117.93083399999999,"endTime":118.00472549999999,"instrument":1,"isDrum":true},{"pitch":51,"velocity":80,"startTime":118.127878,"endTime":118.2017695,"instrument":1,"isDrum":true},{"pitch":35,"velocity":80,"startTime":118.2264,"endTime":118.30029149999999,"instrument":1,"isDrum":true},{"pitch":44,"velocity":80,"startTime":118.2264,"endTime":118.30029149999999,"instrument":1,"isDrum":true},{"pitch":51,"velocity":80,"startTime":118.2264,"endTime":118.30029149999999,"instrument":1,"isDrum":true},{"pitch":53,"velocity":80,"startTime":118.2264,"endTime":118.30029149999999,"instrument":1,"isDrum":true},{"pitch":51,"velocity":80,"startTime":118.42344399999999,"endTime":118.49733549999999,"instrument":1,"isDrum":true},{"pitch":38,"velocity":80,"startTime":118.52196599999999,"endTime":118.5958575,"instrument":1,"isDrum":true},{"pitch":44,"velocity":80,"startTime":118.52196599999999,"endTime":118.5958575,"instrument":1,"isDrum":true},{"pitch":51,"velocity":80,"startTime":118.52196599999999,"endTime":118.5958575,"instrument":1,"isDrum":true},{"pitch":53,"velocity":80,"startTime":118.52196599999999,"endTime":118.5958575,"instrument":1,"isDrum":true},{"pitch":51,"velocity":80,"startTime":118.71901,"endTime":118.79290149999999,"instrument":1,"isDrum":true},{"pitch":44,"velocity":80,"startTime":118.81753199999999,"endTime":118.89142349999999,"instrument":1,"isDrum":true},{"pitch":51,"velocity":80,"startTime":118.81753199999999,"endTime":118.89142349999999,"instrument":1,"isDrum":true},{"pitch":53,"velocity":80,"startTime":118.81753199999999,"endTime":118.89142349999999,"instrument":1,"isDrum":true},{"pitch":51,"velocity":80,"startTime":119.01457599999999,"endTime":119.0884675,"instrument":1,"isDrum":true},{"pitch":44,"velocity":80,"startTime":119.113098,"endTime":119.1869895,"instrument":1,"isDrum":true},{"pitch":51,"velocity":80,"startTime":119.113098,"endTime":119.1869895,"instrument":1,"isDrum":true},{"pitch":53,"velocity":80,"startTime":119.113098,"endTime":119.1869895,"instrument":1,"isDrum":true},{"pitch":51,"velocity":80,"startTime":119.31014199999998,"endTime":119.38403349999999,"instrument":1,"isDrum":true},{"pitch":35,"velocity":80,"startTime":119.40866399999999,"endTime":119.48255549999999,"instrument":1,"isDrum":true},{"pitch":44,"velocity":80,"startTime":119.40866399999999,"endTime":119.48255549999999,"instrument":1,"isDrum":true},{"pitch":51,"velocity":80,"startTime":119.40866399999999,"endTime":119.48255549999999,"instrument":1,"isDrum":true},{"pitch":53,"velocity":80,"startTime":119.40866399999999,"endTime":119.48255549999999,"instrument":1,"isDrum":true},{"pitch":51,"velocity":80,"startTime":119.60570799999999,"endTime":119.6795995,"instrument":1,"isDrum":true},{"pitch":38,"velocity":80,"startTime":119.70423,"endTime":119.7781215,"instrument":1,"isDrum":true},{"pitch":44,"velocity":80,"startTime":119.70423,"endTime":119.7781215,"instrument":1,"isDrum":true},{"pitch":51,"velocity":80,"startTime":119.70423,"endTime":119.7781215,"instrument":1,"isDrum":true},{"pitch":53,"velocity":80,"startTime":119.70423,"endTime":119.7781215,"instrument":1,"isDrum":true},{"pitch":51,"velocity":80,"startTime":119.90127399999999,"endTime":119.97516549999999,"instrument":1,"isDrum":true},{"pitch":44,"velocity":80,"startTime":119.99979599999999,"endTime":120.07368749999999,"instrument":1,"isDrum":true},{"pitch":53,"velocity":80,"startTime":119.99979599999999,"endTime":120.07368749999999,"instrument":1,"isDrum":true},{"pitch":35,"velocity":80,"startTime":120.295362,"endTime":120.36925349999999,"instrument":1,"isDrum":true},{"pitch":44,"velocity":80,"startTime":120.295362,"endTime":120.36925349999999,"instrument":1,"isDrum":true},{"pitch":51,"velocity":80,"startTime":120.295362,"endTime":120.36925349999999,"instrument":1,"isDrum":true},{"pitch":53,"velocity":80,"startTime":120.295362,"endTime":120.36925349999999,"instrument":1,"isDrum":true},{"pitch":51,"velocity":80,"startTime":120.49240599999999,"endTime":120.56629749999999,"instrument":1,"isDrum":true},{"pitch":44,"velocity":80,"startTime":120.59092799999999,"endTime":120.6648195,"instrument":1,"isDrum":true},{"pitch":51,"velocity":80,"startTime":120.59092799999999,"endTime":120.6648195,"instrument":1,"isDrum":true},{"pitch":53,"velocity":80,"startTime":120.59092799999999,"endTime":120.6648195,"instrument":1,"isDrum":true},{"pitch":51,"velocity":80,"startTime":120.787972,"endTime":120.8618635,"instrument":1,"isDrum":true},{"pitch":44,"velocity":80,"startTime":120.88649399999998,"endTime":120.96038549999999,"instrument":1,"isDrum":true},{"pitch":51,"velocity":80,"startTime":120.88649399999998,"endTime":120.96038549999999,"instrument":1,"isDrum":true},{"pitch":53,"velocity":80,"startTime":120.88649399999998,"endTime":120.96038549999999,"instrument":1,"isDrum":true},{"pitch":51,"velocity":80,"startTime":121.08353799999999,"endTime":121.15742949999999,"instrument":1,"isDrum":true},{"pitch":43,"velocity":103,"startTime":113.497344,"endTime":113.71901849999999,"instrument":2,"program":32},{"pitch":31,"velocity":103,"startTime":113.71901849999999,"endTime":113.76827949999999,"instrument":2,"program":32},{"pitch":43,"velocity":103,"startTime":113.79290999999999,"endTime":114.08847599999999,"instrument":2,"program":32},{"pitch":50,"velocity":103,"startTime":114.08847599999999,"endTime":114.31015049999999,"instrument":2,"program":32},{"pitch":38,"velocity":103,"startTime":114.31015049999999,"endTime":114.3594115,"instrument":2,"program":32},{"pitch":43,"velocity":103,"startTime":114.384042,"endTime":114.60571649999999,"instrument":2,"program":32},{"pitch":38,"velocity":103,"startTime":114.60571649999999,"endTime":114.65497749999999,"instrument":2,"program":32},{"pitch":31,"velocity":103,"startTime":114.67960799999999,"endTime":114.9012825,"instrument":2,"program":32},{"pitch":31,"velocity":103,"startTime":114.9012825,"endTime":114.9505435,"instrument":2,"program":32},{"pitch":35,"velocity":103,"startTime":114.975174,"endTime":115.27073999999999,"instrument":2,"program":32},{"pitch":38,"velocity":103,"startTime":115.27073999999999,"endTime":115.4924145,"instrument":2,"program":32},{"pitch":26,"velocity":103,"startTime":115.4924145,"endTime":115.566306,"instrument":2,"program":32},{"pitch":31,"velocity":103,"startTime":115.566306,"endTime":115.83724149999999,"instrument":2,"program":32},{"pitch":40,"velocity":103,"startTime":115.86187199999999,"endTime":116.157438,"instrument":2,"program":32},{"pitch":35,"velocity":103,"startTime":116.157438,"endTime":116.37911249999999,"instrument":2,"program":32},{"pitch":35,"velocity":103,"startTime":116.37911249999999,"endTime":116.42837349999999,"instrument":2,"program":32},{"pitch":40,"velocity":103,"startTime":116.45300399999999,"endTime":116.74856999999999,"instrument":2,"program":32},{"pitch":47,"velocity":103,"startTime":116.74856999999999,"endTime":116.94561399999999,"instrument":2,"program":32},{"pitch":40,"velocity":103,"startTime":116.97024449999999,"endTime":117.0195055,"instrument":2,"program":32},{"pitch":28,"velocity":103,"startTime":117.044136,"endTime":117.33970199999999,"instrument":2,"program":32},{"pitch":35,"velocity":103,"startTime":117.33970199999999,"endTime":117.635268,"instrument":2,"program":32},{"pitch":40,"velocity":103,"startTime":117.635268,"endTime":117.83231199999999,"instrument":2,"program":32},{"pitch":35,"velocity":103,"startTime":117.85694249999999,"endTime":117.90620349999999,"instrument":2,"program":32},{"pitch":28,"velocity":103,"startTime":117.93083399999999,"endTime":118.2017695,"instrument":2,"program":32},{"pitch":36,"velocity":103,"startTime":118.2264,"endTime":118.52196599999999,"instrument":2,"program":32},{"pitch":40,"velocity":103,"startTime":118.52196599999999,"endTime":118.81753199999999,"instrument":2,"program":32},{"pitch":43,"velocity":103,"startTime":118.81753199999999,"endTime":119.113098,"instrument":2,"program":32},{"pitch":40,"velocity":103,"startTime":119.113098,"endTime":119.33477249999999,"instrument":2,"program":32},{"pitch":43,"velocity":103,"startTime":119.33477249999999,"endTime":119.38403349999999,"instrument":2,"program":32},{"pitch":38,"velocity":103,"startTime":119.40866399999999,"endTime":119.70423,"instrument":2,"program":32},{"pitch":33,"velocity":103,"startTime":119.70423,"endTime":119.99979599999999,"instrument":2,"program":32},{"pitch":38,"velocity":103,"startTime":119.99979599999999,"endTime":120.2214705,"instrument":2,"program":32},{"pitch":26,"velocity":103,"startTime":120.2214705,"endTime":120.2707315,"instrument":2,"program":32},{"pitch":38,"velocity":103,"startTime":120.295362,"endTime":120.59092799999999,"instrument":2,"program":32},{"pitch":31,"velocity":103,"startTime":120.59092799999999,"endTime":120.88649399999998,"instrument":2,"program":32},{"pitch":35,"velocity":103,"startTime":120.88649399999998,"endTime":121.18205999999999,"instrument":2,"program":32},{"pitch":38,"velocity":103,"startTime":121.18205999999999,"endTime":121.47762599999999,"instrument":2,"program":32},{"pitch":38,"velocity":103,"startTime":121.47762599999999,"endTime":121.773192,"instrument":2,"program":32},{"pitch":31,"velocity":103,"startTime":121.773192,"endTime":122.11801899999999,"instrument":2,"program":32},{"pitch":38,"velocity":103,"startTime":122.06875799999999,"endTime":122.364324,"instrument":2,"program":32},{"pitch":43,"velocity":103,"startTime":122.364324,"endTime":122.65988999999999,"instrument":2,"program":32},{"pitch":38,"velocity":103,"startTime":122.65988999999999,"endTime":122.8815645,"instrument":2,"program":32},{"pitch":31,"velocity":103,"startTime":122.8815645,"endTime":122.9308255,"instrument":2,"program":32},{"pitch":55,"velocity":57,"startTime":123.15249999999999,"endTime":123.25102199999999},{"pitch":58,"velocity":57,"startTime":123.15249999999999,"endTime":123.22639149999999},{"pitch":62,"velocity":57,"startTime":123.15249999999999,"endTime":123.22639149999999},{"pitch":53,"velocity":57,"startTime":123.27565249999999,"endTime":123.3741745},{"pitch":59,"velocity":57,"startTime":123.27565249999999,"endTime":123.349544},{"pitch":62,"velocity":57,"startTime":123.27565249999999,"endTime":123.3741745},{"pitch":57,"velocity":57,"startTime":123.76826249999999,"endTime":123.842154},{"pitch":62,"velocity":57,"startTime":123.76826249999999,"endTime":123.842154},{"pitch":69,"velocity":57,"startTime":123.76826249999999,"endTime":123.8175235},{"pitch":43,"velocity":57,"startTime":124.13771999999999,"endTime":125.29535349999999},{"pitch":59,"velocity":57,"startTime":124.13771999999999,"endTime":125.29535349999999},{"pitch":52,"velocity":57,"startTime":124.16235049999999,"endTime":125.29535349999999},{"pitch":57,"velocity":57,"startTime":124.16235049999999,"endTime":125.29535349999999},{"pitch":40,"velocity":57,"startTime":125.31998399999999,"endTime":125.4431365},{"pitch":57,"velocity":57,"startTime":125.31998399999999,"endTime":125.4431365},{"pitch":62,"velocity":57,"startTime":125.31998399999999,"endTime":125.418506},{"pitch":66,"velocity":57,"startTime":125.31998399999999,"endTime":125.418506},{"pitch":40,"velocity":57,"startTime":126.502248,"endTime":127.6598815},{"pitch":55,"velocity":57,"startTime":126.502248,"endTime":127.6598815},{"pitch":59,"velocity":57,"startTime":126.502248,"endTime":127.6598815},{"pitch":52,"velocity":57,"startTime":126.5268785,"endTime":127.6598815},{"pitch":59,"velocity":57,"startTime":127.684512,"endTime":127.80766449999999},{"pitch":60,"velocity":57,"startTime":127.684512,"endTime":127.80766449999999},{"pitch":64,"velocity":57,"startTime":127.684512,"endTime":127.78303399999999},{"pitch":67,"velocity":57,"startTime":127.684512,"endTime":127.78303399999999},{"pitch":59,"velocity":57,"startTime":128.3002745,"endTime":128.374166},{"pitch":60,"velocity":57,"startTime":128.3002745,"endTime":128.374166},{"pitch":64,"velocity":57,"startTime":128.3002745,"endTime":128.374166},{"pitch":67,"velocity":57,"startTime":128.3002745,"endTime":128.374166},{"pitch":57,"velocity":57,"startTime":128.866776,"endTime":130.0244095},{"pitch":64,"velocity":57,"startTime":128.866776,"endTime":130.0244095},{"pitch":50,"velocity":57,"startTime":128.8914065,"endTime":130.0244095},{"pitch":57,"velocity":57,"startTime":128.8914065,"endTime":130.0244095},{"pitch":43,"velocity":57,"startTime":130.04904,"endTime":130.147562},{"pitch":57,"velocity":57,"startTime":130.04904,"endTime":130.147562},{"pitch":59,"velocity":57,"startTime":130.04904,"endTime":130.1721925},{"pitch":62,"velocity":57,"startTime":130.04904,"endTime":130.1721925},{"pitch":57,"velocity":57,"startTime":130.86184649999998,"endTime":130.9603685},{"pitch":59,"velocity":57,"startTime":130.86184649999998,"endTime":130.9603685},{"pitch":62,"velocity":57,"startTime":130.86184649999998,"endTime":130.9603685},{"pitch":69,"velocity":57,"startTime":130.86184649999998,"endTime":130.935738},{"pitch":43,"velocity":57,"startTime":131.231304,"endTime":131.329826},{"pitch":57,"velocity":57,"startTime":131.231304,"endTime":131.3544565},{"pitch":59,"velocity":57,"startTime":131.231304,"endTime":131.329826},{"pitch":62,"velocity":57,"startTime":131.231304,"endTime":131.329826},{"pitch":55,"velocity":57,"startTime":131.82243599999998,"endTime":131.92095799999998},{"pitch":59,"velocity":57,"startTime":131.82243599999998,"endTime":131.92095799999998},{"pitch":62,"velocity":57,"startTime":131.82243599999998,"endTime":131.92095799999998},{"pitch":35,"velocity":80,"startTime":122.955456,"endTime":123.00471699999999,"instrument":1,"isDrum":true},{"pitch":44,"velocity":80,"startTime":122.955456,"endTime":123.00471699999999,"instrument":1,"isDrum":true},{"pitch":51,"velocity":80,"startTime":122.955456,"endTime":123.00471699999999,"instrument":1,"isDrum":true},{"pitch":53,"velocity":80,"startTime":122.955456,"endTime":123.00471699999999,"instrument":1,"isDrum":true},{"pitch":56,"velocity":80,"startTime":122.955456,"endTime":123.00471699999999,"instrument":1,"isDrum":true},{"pitch":53,"velocity":80,"startTime":123.15249999999999,"endTime":123.22639149999999,"instrument":1,"isDrum":true},{"pitch":44,"velocity":80,"startTime":123.25102199999999,"endTime":123.300283,"instrument":1,"isDrum":true},{"pitch":51,"velocity":80,"startTime":123.25102199999999,"endTime":123.300283,"instrument":1,"isDrum":true},{"pitch":54,"velocity":80,"startTime":123.25102199999999,"endTime":123.300283,"instrument":1,"isDrum":true},{"pitch":56,"velocity":80,"startTime":123.25102199999999,"endTime":123.300283,"instrument":1,"isDrum":true},{"pitch":53,"velocity":80,"startTime":123.448066,"endTime":123.52195749999998,"instrument":1,"isDrum":true},{"pitch":35,"velocity":80,"startTime":123.54658799999999,"endTime":123.59584899999999,"instrument":1,"isDrum":true},{"pitch":44,"velocity":80,"startTime":123.54658799999999,"endTime":123.59584899999999,"instrument":1,"isDrum":true},{"pitch":51,"velocity":80,"startTime":123.54658799999999,"endTime":123.59584899999999,"instrument":1,"isDrum":true},{"pitch":53,"velocity":80,"startTime":123.54658799999999,"endTime":123.59584899999999,"instrument":1,"isDrum":true},{"pitch":56,"velocity":80,"startTime":123.54658799999999,"endTime":123.59584899999999,"instrument":1,"isDrum":true},{"pitch":51,"velocity":80,"startTime":123.74363199999999,"endTime":123.8175235,"instrument":1,"isDrum":true},{"pitch":38,"velocity":80,"startTime":123.842154,"endTime":123.891415,"instrument":1,"isDrum":true},{"pitch":44,"velocity":80,"startTime":123.842154,"endTime":123.891415,"instrument":1,"isDrum":true},{"pitch":51,"velocity":80,"startTime":123.842154,"endTime":123.891415,"instrument":1,"isDrum":true},{"pitch":53,"velocity":80,"startTime":123.842154,"endTime":123.891415,"instrument":1,"isDrum":true},{"pitch":56,"velocity":80,"startTime":123.842154,"endTime":123.891415,"instrument":1,"isDrum":true},{"pitch":51,"velocity":80,"startTime":124.03919799999998,"endTime":124.11308949999999,"instrument":1,"isDrum":true},{"pitch":44,"velocity":80,"startTime":124.13771999999999,"endTime":124.18698099999999,"instrument":1,"isDrum":true},{"pitch":51,"velocity":80,"startTime":124.13771999999999,"endTime":124.18698099999999,"instrument":1,"isDrum":true},{"pitch":53,"velocity":80,"startTime":124.13771999999999,"endTime":124.18698099999999,"instrument":1,"isDrum":true},{"pitch":56,"velocity":80,"startTime":124.13771999999999,"endTime":124.18698099999999,"instrument":1,"isDrum":true},{"pitch":35,"velocity":80,"startTime":124.33476399999999,"endTime":124.4086555,"instrument":1,"isDrum":true},{"pitch":51,"velocity":80,"startTime":124.33476399999999,"endTime":124.4086555,"instrument":1,"isDrum":true},{"pitch":35,"velocity":80,"startTime":124.433286,"endTime":124.482547,"instrument":1,"isDrum":true},{"pitch":44,"velocity":80,"startTime":124.433286,"endTime":124.482547,"instrument":1,"isDrum":true},{"pitch":51,"velocity":80,"startTime":124.433286,"endTime":124.482547,"instrument":1,"isDrum":true},{"pitch":53,"velocity":80,"startTime":124.433286,"endTime":124.482547,"instrument":1,"isDrum":true},{"pitch":51,"velocity":80,"startTime":124.63032999999999,"endTime":124.70422149999999,"instrument":1,"isDrum":true},{"pitch":35,"velocity":80,"startTime":124.72885199999999,"endTime":124.77811299999999,"instrument":1,"isDrum":true},{"pitch":44,"velocity":80,"startTime":124.72885199999999,"endTime":124.77811299999999,"instrument":1,"isDrum":true},{"pitch":51,"velocity":80,"startTime":124.72885199999999,"endTime":124.77811299999999,"instrument":1,"isDrum":true},{"pitch":53,"velocity":80,"startTime":124.72885199999999,"endTime":124.77811299999999,"instrument":1,"isDrum":true},{"pitch":56,"velocity":80,"startTime":124.72885199999999,"endTime":124.77811299999999,"instrument":1,"isDrum":true},{"pitch":51,"velocity":80,"startTime":124.925896,"endTime":124.9997875,"instrument":1,"isDrum":true},{"pitch":38,"velocity":80,"startTime":125.024418,"endTime":125.07367899999998,"instrument":1,"isDrum":true},{"pitch":44,"velocity":80,"startTime":125.024418,"endTime":125.07367899999998,"instrument":1,"isDrum":true},{"pitch":51,"velocity":80,"startTime":125.024418,"endTime":125.07367899999998,"instrument":1,"isDrum":true},{"pitch":53,"velocity":80,"startTime":125.024418,"endTime":125.07367899999998,"instrument":1,"isDrum":true},{"pitch":56,"velocity":80,"startTime":125.024418,"endTime":125.07367899999998,"instrument":1,"isDrum":true},{"pitch":51,"velocity":80,"startTime":125.22146199999999,"endTime":125.29535349999999,"instrument":1,"isDrum":true},{"pitch":44,"velocity":80,"startTime":125.31998399999999,"endTime":125.36924499999999,"instrument":1,"isDrum":true},{"pitch":53,"velocity":80,"startTime":125.31998399999999,"endTime":125.36924499999999,"instrument":1,"isDrum":true},{"pitch":54,"velocity":80,"startTime":125.31998399999999,"endTime":125.36924499999999,"instrument":1,"isDrum":true},{"pitch":35,"velocity":80,"startTime":125.517028,"endTime":125.5909195,"instrument":1,"isDrum":true},{"pitch":35,"velocity":80,"startTime":125.61554999999998,"endTime":125.66481099999999,"instrument":1,"isDrum":true},{"pitch":44,"velocity":80,"startTime":125.61554999999998,"endTime":125.66481099999999,"instrument":1,"isDrum":true},{"pitch":53,"velocity":80,"startTime":125.61554999999998,"endTime":125.66481099999999,"instrument":1,"isDrum":true},{"pitch":54,"velocity":80,"startTime":125.61554999999998,"endTime":125.66481099999999,"instrument":1,"isDrum":true},{"pitch":35,"velocity":80,"startTime":125.81259399999999,"endTime":125.88648549999999,"instrument":1,"isDrum":true},{"pitch":51,"velocity":80,"startTime":125.81259399999999,"endTime":125.88648549999999,"instrument":1,"isDrum":true},{"pitch":35,"velocity":80,"startTime":125.91111599999999,"endTime":125.960377,"instrument":1,"isDrum":true},{"pitch":44,"velocity":80,"startTime":125.91111599999999,"endTime":125.960377,"instrument":1,"isDrum":true},{"pitch":51,"velocity":80,"startTime":125.91111599999999,"endTime":125.960377,"instrument":1,"isDrum":true},{"pitch":53,"velocity":80,"startTime":125.91111599999999,"endTime":125.960377,"instrument":1,"isDrum":true},{"pitch":51,"velocity":80,"startTime":126.10816,"endTime":126.18205149999999,"instrument":1,"isDrum":true},{"pitch":38,"velocity":80,"startTime":126.20668199999999,"endTime":126.25594299999999,"instrument":1,"isDrum":true},{"pitch":44,"velocity":80,"startTime":126.20668199999999,"endTime":126.25594299999999,"instrument":1,"isDrum":true},{"pitch":51,"velocity":80,"startTime":126.20668199999999,"endTime":126.25594299999999,"instrument":1,"isDrum":true},{"pitch":53,"velocity":80,"startTime":126.20668199999999,"endTime":126.25594299999999,"instrument":1,"isDrum":true},{"pitch":56,"velocity":80,"startTime":126.20668199999999,"endTime":126.25594299999999,"instrument":1,"isDrum":true},{"pitch":51,"velocity":80,"startTime":126.40372599999999,"endTime":126.4776175,"instrument":1,"isDrum":true},{"pitch":44,"velocity":80,"startTime":126.502248,"endTime":126.551509,"instrument":1,"isDrum":true},{"pitch":53,"velocity":80,"startTime":126.502248,"endTime":126.551509,"instrument":1,"isDrum":true},{"pitch":54,"velocity":80,"startTime":126.502248,"endTime":126.551509,"instrument":1,"isDrum":true},{"pitch":35,"velocity":80,"startTime":126.69929199999999,"endTime":126.77318349999999,"instrument":1,"isDrum":true},{"pitch":44,"velocity":80,"startTime":126.79781399999999,"endTime":126.84707499999999,"instrument":1,"isDrum":true},{"pitch":51,"velocity":80,"startTime":126.79781399999999,"endTime":126.84707499999999,"instrument":1,"isDrum":true},{"pitch":54,"velocity":80,"startTime":126.79781399999999,"endTime":126.84707499999999,"instrument":1,"isDrum":true},{"pitch":56,"velocity":80,"startTime":126.79781399999999,"endTime":126.84707499999999,"instrument":1,"isDrum":true},{"pitch":35,"velocity":80,"startTime":126.994858,"endTime":127.0687495,"instrument":1,"isDrum":true},{"pitch":38,"velocity":80,"startTime":126.994858,"endTime":127.0687495,"instrument":1,"isDrum":true},{"pitch":35,"velocity":80,"startTime":127.09338,"endTime":127.142641,"instrument":1,"isDrum":true},{"pitch":44,"velocity":80,"startTime":127.09338,"endTime":127.142641,"instrument":1,"isDrum":true},{"pitch":51,"velocity":80,"startTime":127.09338,"endTime":127.142641,"instrument":1,"isDrum":true},{"pitch":53,"velocity":80,"startTime":127.09338,"endTime":127.142641,"instrument":1,"isDrum":true},{"pitch":51,"velocity":80,"startTime":127.29042399999999,"endTime":127.36431549999999,"instrument":1,"isDrum":true},{"pitch":38,"velocity":80,"startTime":127.38894599999999,"endTime":127.43820699999999,"instrument":1,"isDrum":true},{"pitch":44,"velocity":80,"startTime":127.38894599999999,"endTime":127.43820699999999,"instrument":1,"isDrum":true},{"pitch":51,"velocity":80,"startTime":127.38894599999999,"endTime":127.43820699999999,"instrument":1,"isDrum":true},{"pitch":53,"velocity":80,"startTime":127.38894599999999,"endTime":127.43820699999999,"instrument":1,"isDrum":true},{"pitch":56,"velocity":80,"startTime":127.38894599999999,"endTime":127.43820699999999,"instrument":1,"isDrum":true},{"pitch":35,"velocity":80,"startTime":127.58599,"endTime":127.6598815,"instrument":1,"isDrum":true},{"pitch":53,"velocity":80,"startTime":127.58599,"endTime":127.6598815,"instrument":1,"isDrum":true},{"pitch":44,"velocity":80,"startTime":127.684512,"endTime":127.73377299999999,"instrument":1,"isDrum":true},{"pitch":51,"velocity":80,"startTime":127.684512,"endTime":127.73377299999999,"instrument":1,"isDrum":true},{"pitch":53,"velocity":80,"startTime":127.684512,"endTime":127.73377299999999,"instrument":1,"isDrum":true},{"pitch":56,"velocity":80,"startTime":127.684512,"endTime":127.73377299999999,"instrument":1,"isDrum":true},{"pitch":35,"velocity":80,"startTime":127.88155599999999,"endTime":127.95544749999999,"instrument":1,"isDrum":true},{"pitch":38,"velocity":80,"startTime":127.88155599999999,"endTime":127.95544749999999,"instrument":1,"isDrum":true},{"pitch":51,"velocity":80,"startTime":127.88155599999999,"endTime":127.95544749999999,"instrument":1,"isDrum":true},{"pitch":35,"velocity":80,"startTime":127.98007799999999,"endTime":128.029339,"instrument":1,"isDrum":true},{"pitch":44,"velocity":80,"startTime":127.98007799999999,"endTime":128.029339,"instrument":1,"isDrum":true},{"pitch":51,"velocity":80,"startTime":127.98007799999999,"endTime":128.029339,"instrument":1,"isDrum":true},{"pitch":53,"velocity":80,"startTime":127.98007799999999,"endTime":128.029339,"instrument":1,"isDrum":true},{"pitch":56,"velocity":80,"startTime":127.98007799999999,"endTime":128.029339,"instrument":1,"isDrum":true},{"pitch":53,"velocity":80,"startTime":128.177122,"endTime":128.2510135,"instrument":1,"isDrum":true},{"pitch":35,"velocity":80,"startTime":128.275644,"endTime":128.324905,"instrument":1,"isDrum":true},{"pitch":44,"velocity":80,"startTime":128.275644,"endTime":128.324905,"instrument":1,"isDrum":true},{"pitch":51,"velocity":80,"startTime":128.275644,"endTime":128.324905,"instrument":1,"isDrum":true},{"pitch":53,"velocity":80,"startTime":128.275644,"endTime":128.324905,"instrument":1,"isDrum":true},{"pitch":51,"velocity":80,"startTime":128.472688,"endTime":128.54657949999998,"instrument":1,"isDrum":true},{"pitch":38,"velocity":80,"startTime":128.57120999999998,"endTime":128.62047099999998,"instrument":1,"isDrum":true},{"pitch":44,"velocity":80,"startTime":128.57120999999998,"endTime":128.62047099999998,"instrument":1,"isDrum":true},{"pitch":51,"velocity":80,"startTime":128.57120999999998,"endTime":128.62047099999998,"instrument":1,"isDrum":true},{"pitch":53,"velocity":80,"startTime":128.57120999999998,"endTime":128.62047099999998,"instrument":1,"isDrum":true},{"pitch":56,"velocity":80,"startTime":128.57120999999998,"endTime":128.62047099999998,"instrument":1,"isDrum":true},{"pitch":53,"velocity":80,"startTime":128.76825399999998,"endTime":128.8421455,"instrument":1,"isDrum":true},{"pitch":44,"velocity":80,"startTime":128.866776,"endTime":128.916037,"instrument":1,"isDrum":true},{"pitch":51,"velocity":80,"startTime":128.866776,"endTime":128.916037,"instrument":1,"isDrum":true},{"pitch":53,"velocity":80,"startTime":128.866776,"endTime":128.916037,"instrument":1,"isDrum":true},{"pitch":56,"velocity":80,"startTime":128.866776,"endTime":128.916037,"instrument":1,"isDrum":true},{"pitch":35,"velocity":80,"startTime":129.06382,"endTime":129.1377115,"instrument":1,"isDrum":true},{"pitch":53,"velocity":80,"startTime":129.06382,"endTime":129.1377115,"instrument":1,"isDrum":true},{"pitch":35,"velocity":80,"startTime":129.162342,"endTime":129.211603,"instrument":1,"isDrum":true},{"pitch":44,"velocity":80,"startTime":129.162342,"endTime":129.211603,"instrument":1,"isDrum":true},{"pitch":51,"velocity":80,"startTime":129.162342,"endTime":129.211603,"instrument":1,"isDrum":true},{"pitch":53,"velocity":80,"startTime":129.162342,"endTime":129.211603,"instrument":1,"isDrum":true},{"pitch":54,"velocity":80,"startTime":129.162342,"endTime":129.211603,"instrument":1,"isDrum":true},{"pitch":35,"velocity":80,"startTime":129.359386,"endTime":129.4332775,"instrument":1,"isDrum":true},{"pitch":53,"velocity":80,"startTime":129.359386,"endTime":129.4332775,"instrument":1,"isDrum":true},{"pitch":35,"velocity":80,"startTime":129.457908,"endTime":129.507169,"instrument":1,"isDrum":true},{"pitch":44,"velocity":80,"startTime":129.457908,"endTime":129.507169,"instrument":1,"isDrum":true},{"pitch":51,"velocity":80,"startTime":129.457908,"endTime":129.507169,"instrument":1,"isDrum":true},{"pitch":53,"velocity":80,"startTime":129.457908,"endTime":129.507169,"instrument":1,"isDrum":true},{"pitch":51,"velocity":80,"startTime":129.65495199999998,"endTime":129.72884349999998,"instrument":1,"isDrum":true},{"pitch":38,"velocity":80,"startTime":129.75347399999998,"endTime":129.80273499999998,"instrument":1,"isDrum":true},{"pitch":44,"velocity":80,"startTime":129.75347399999998,"endTime":129.80273499999998,"instrument":1,"isDrum":true},{"pitch":51,"velocity":80,"startTime":129.75347399999998,"endTime":129.80273499999998,"instrument":1,"isDrum":true},{"pitch":53,"velocity":80,"startTime":129.75347399999998,"endTime":129.80273499999998,"instrument":1,"isDrum":true},{"pitch":56,"velocity":80,"startTime":129.75347399999998,"endTime":129.80273499999998,"instrument":1,"isDrum":true},{"pitch":53,"velocity":80,"startTime":129.950518,"endTime":130.0244095,"instrument":1,"isDrum":true},{"pitch":44,"velocity":80,"startTime":130.04904,"endTime":130.098301,"instrument":1,"isDrum":true},{"pitch":51,"velocity":80,"startTime":130.04904,"endTime":130.098301,"instrument":1,"isDrum":true},{"pitch":53,"velocity":80,"startTime":130.04904,"endTime":130.098301,"instrument":1,"isDrum":true},{"pitch":35,"velocity":80,"startTime":130.246084,"endTime":130.3199755,"instrument":1,"isDrum":true},{"pitch":51,"velocity":80,"startTime":130.246084,"endTime":130.3199755,"instrument":1,"isDrum":true},{"pitch":35,"velocity":80,"startTime":130.344606,"endTime":130.393867,"instrument":1,"isDrum":true},{"pitch":44,"velocity":80,"startTime":130.344606,"endTime":130.393867,"instrument":1,"isDrum":true},{"pitch":53,"velocity":80,"startTime":130.344606,"endTime":130.393867,"instrument":1,"isDrum":true},{"pitch":54,"velocity":80,"startTime":130.344606,"endTime":130.393867,"instrument":1,"isDrum":true},{"pitch":56,"velocity":80,"startTime":130.344606,"endTime":130.393867,"instrument":1,"isDrum":true},{"pitch":51,"velocity":80,"startTime":130.54165,"endTime":130.61554149999998,"instrument":1,"isDrum":true},{"pitch":31,"velocity":103,"startTime":122.955456,"endTime":123.300283,"instrument":2,"program":32},{"pitch":38,"velocity":103,"startTime":123.25102199999999,"endTime":123.842154,"instrument":2,"program":32},{"pitch":38,"velocity":103,"startTime":123.54658799999999,"endTime":123.57121849999999,"instrument":2,"program":32},{"pitch":35,"velocity":103,"startTime":123.842154,"endTime":124.13771999999999,"instrument":2,"program":32},{"pitch":31,"velocity":103,"startTime":124.13771999999999,"endTime":124.482547,"instrument":2,"program":32},{"pitch":35,"velocity":103,"startTime":124.433286,"endTime":125.0490485,"instrument":2,"program":32},{"pitch":35,"velocity":103,"startTime":124.72885199999999,"endTime":124.75348249999999,"instrument":2,"program":32},{"pitch":38,"velocity":103,"startTime":125.024418,"endTime":125.31998399999999,"instrument":2,"program":32},{"pitch":40,"velocity":103,"startTime":125.31998399999999,"endTime":125.5909195,"instrument":2,"program":32},{"pitch":35,"velocity":103,"startTime":125.5416585,"endTime":125.61554999999998,"instrument":2,"program":32},{"pitch":40,"velocity":103,"startTime":125.61554999999998,"endTime":125.91111599999999,"instrument":2,"program":32},{"pitch":35,"velocity":103,"startTime":125.91111599999999,"endTime":126.13279049999998,"instrument":2,"program":32},{"pitch":23,"velocity":103,"startTime":126.13279049999998,"endTime":126.20668199999999,"instrument":2,"program":32},{"pitch":35,"velocity":103,"startTime":126.20668199999999,"endTime":126.502248,"instrument":2,"program":32},{"pitch":28,"velocity":103,"startTime":126.502248,"endTime":126.79781399999999,"instrument":2,"program":32},{"pitch":35,"velocity":103,"startTime":126.79781399999999,"endTime":127.09338,"instrument":2,"program":32},{"pitch":35,"velocity":103,"startTime":127.09338,"endTime":127.38894599999999,"instrument":2,"program":32},{"pitch":35,"velocity":103,"startTime":127.38894599999999,"endTime":127.58599,"instrument":2,"program":32},{"pitch":38,"velocity":103,"startTime":127.6106205,"endTime":127.684512,"instrument":2,"program":32},{"pitch":36,"velocity":103,"startTime":127.684512,"endTime":127.98007799999999,"instrument":2,"program":32},{"pitch":40,"velocity":103,"startTime":127.98007799999999,"endTime":128.275644,"instrument":2,"program":32},{"pitch":43,"velocity":103,"startTime":128.275644,"endTime":128.57120999999998,"instrument":2,"program":32},{"pitch":40,"velocity":103,"startTime":128.57120999999998,"endTime":128.866776,"instrument":2,"program":32},{"pitch":38,"velocity":103,"startTime":128.866776,"endTime":129.162342,"instrument":2,"program":32},{"pitch":40,"velocity":103,"startTime":129.162342,"endTime":129.457908,"instrument":2,"program":32},{"pitch":45,"velocity":103,"startTime":129.457908,"endTime":129.75347399999998,"instrument":2,"program":32},{"pitch":45,"velocity":103,"startTime":129.75347399999998,"endTime":130.04904,"instrument":2,"program":32},{"pitch":43,"velocity":103,"startTime":130.04904,"endTime":130.246084,"instrument":2,"program":32},{"pitch":38,"velocity":103,"startTime":130.2707145,"endTime":130.3199755,"instrument":2,"program":32},{"pitch":43,"velocity":103,"startTime":130.344606,"endTime":130.64017199999998,"instrument":2,"program":32},{"pitch":47,"velocity":103,"startTime":130.64017199999998,"endTime":130.935738,"instrument":2,"program":32},{"pitch":43,"velocity":103,"startTime":130.935738,"endTime":131.231304,"instrument":2,"program":32},{"pitch":43,"velocity":103,"startTime":131.231304,"endTime":131.576131,"instrument":2,"program":32},{"pitch":38,"velocity":103,"startTime":131.52687,"endTime":131.84706649999998,"instrument":2,"program":32},{"pitch":43,"velocity":103,"startTime":131.82243599999998,"endTime":132.413568,"instrument":2,"program":32},{"pitch":43,"velocity":103,"startTime":132.118002,"endTime":132.1426325,"instrument":2,"program":32},{"pitch":43,"velocity":57,"startTime":132.4381985,"endTime":132.5367205},{"pitch":67,"velocity":57,"startTime":132.4381985,"endTime":132.561351},{"pitch":59,"velocity":57,"startTime":132.462829,"endTime":132.5367205},{"pitch":62,"velocity":57,"startTime":132.462829,"endTime":132.5367205},{"pitch":38,"velocity":57,"startTime":132.93080849999998,"endTime":132.98006949999998},{"pitch":43,"velocity":57,"startTime":133.0293305,"endTime":133.103222},{"pitch":55,"velocity":57,"startTime":133.0293305,"endTime":133.0785915},{"pitch":62,"velocity":57,"startTime":133.0293305,"endTime":133.103222},{"pitch":67,"velocity":57,"startTime":133.0293305,"endTime":133.103222},{"pitch":43,"velocity":57,"startTime":133.5219405,"endTime":133.595832},{"pitch":43,"velocity":57,"startTime":133.694354,"endTime":133.7189845},{"pitch":57,"velocity":57,"startTime":133.81750649999998,"endTime":133.91602849999998},{"pitch":43,"velocity":57,"startTime":133.84213699999998,"endTime":133.89139799999998},{"pitch":59,"velocity":57,"startTime":133.84213699999998,"endTime":133.91602849999998},{"pitch":67,"velocity":57,"startTime":133.84213699999998,"endTime":133.91602849999998},{"pitch":43,"velocity":57,"startTime":134.1130725,"endTime":134.2115945},{"pitch":57,"velocity":57,"startTime":134.7042045,"endTime":134.77809599999998},{"pitch":62,"velocity":57,"startTime":134.7042045,"endTime":134.77809599999998},{"pitch":66,"velocity":57,"startTime":134.7042045,"endTime":134.77809599999998},{"pitch":40,"velocity":57,"startTime":134.80272649999998,"endTime":134.85198749999998},{"pitch":52,"velocity":57,"startTime":134.85198749999998,"endTime":134.92587899999998},{"pitch":60,"velocity":57,"startTime":134.87661799999998,"endTime":134.92587899999998},{"pitch":50,"velocity":57,"startTime":135.2953365,"endTime":135.3445975},{"pitch":60,"velocity":57,"startTime":135.5909025,"endTime":135.615533},{"pitch":40,"velocity":57,"startTime":135.664794,"endTime":135.7879465},{"pitch":50,"velocity":57,"startTime":135.6894245,"endTime":135.7879465},{"pitch":55,"velocity":57,"startTime":135.6894245,"endTime":135.7879465},{"pitch":59,"velocity":57,"startTime":135.6894245,"endTime":135.763316},{"pitch":40,"velocity":57,"startTime":136.1820345,"endTime":136.206665},{"pitch":52,"velocity":57,"startTime":136.255926,"endTime":136.3298175},{"pitch":59,"velocity":57,"startTime":136.255926,"endTime":136.354448},{"pitch":66,"velocity":57,"startTime":136.255926,"endTime":136.3790785},{"pitch":52,"velocity":57,"startTime":136.7731665,"endTime":136.797797},{"pitch":59,"velocity":57,"startTime":136.847058,"endTime":136.97021049999998},{"pitch":66,"velocity":57,"startTime":136.847058,"endTime":136.94557999999998},{"pitch":36,"velocity":57,"startTime":137.14262399999998,"endTime":137.21651549999999},{"pitch":59,"velocity":57,"startTime":137.14262399999998,"endTime":137.19188499999998},{"pitch":55,"velocity":57,"startTime":137.16725449999998,"endTime":137.21651549999999},{"pitch":38,"velocity":57,"startTime":138.324888,"endTime":138.42341},{"pitch":60,"velocity":57,"startTime":138.324888,"endTime":138.3987795},{"pitch":64,"velocity":57,"startTime":138.324888,"endTime":138.42341},{"pitch":67,"velocity":57,"startTime":138.324888,"endTime":138.42341},{"pitch":38,"velocity":57,"startTime":138.8421285,"endTime":138.866759},{"pitch":60,"velocity":57,"startTime":138.91602,"endTime":139.08843349999998},{"pitch":64,"velocity":57,"startTime":138.91602,"endTime":139.08843349999998},{"pitch":67,"velocity":57,"startTime":138.91602,"endTime":139.08843349999998},{"pitch":40,"velocity":57,"startTime":139.13769449999998,"endTime":139.18695549999998},{"pitch":57,"velocity":57,"startTime":139.23621649999998,"endTime":139.359369},{"pitch":64,"velocity":57,"startTime":139.23621649999998,"endTime":139.359369},{"pitch":67,"velocity":57,"startTime":139.23621649999998,"endTime":139.359369},{"pitch":43,"velocity":57,"startTime":139.507152,"endTime":139.605674},{"pitch":62,"velocity":57,"startTime":139.507152,"endTime":139.6303045},{"pitch":55,"velocity":57,"startTime":139.5317825,"endTime":139.6303045},{"pitch":59,"velocity":57,"startTime":139.5317825,"endTime":139.6303045},{"pitch":55,"velocity":57,"startTime":140.29532799999998,"endTime":140.34458899999998},{"pitch":59,"velocity":57,"startTime":140.39385,"endTime":140.492372},{"pitch":64,"velocity":57,"startTime":140.39385,"endTime":140.5170025},{"pitch":67,"velocity":57,"startTime":140.39385,"endTime":140.492372},{"pitch":43,"velocity":57,"startTime":140.689416,"endTime":140.7633075},{"pitch":53,"velocity":57,"startTime":140.9110905,"endTime":140.935721},{"pitch":43,"velocity":57,"startTime":140.984982,"endTime":141.08350399999998},{"pitch":59,"velocity":57,"startTime":140.984982,"endTime":141.08350399999998},{"pitch":65,"velocity":57,"startTime":140.984982,"endTime":141.10813449999998},{"pitch":43,"velocity":57,"startTime":141.30517849999998,"endTime":141.37906999999998},{"pitch":59,"velocity":57,"startTime":141.30517849999998,"endTime":141.37906999999998},{"pitch":65,"velocity":57,"startTime":141.30517849999998,"endTime":141.40370049999999},{"pitch":69,"velocity":57,"startTime":141.30517849999998,"endTime":141.40370049999999},{"pitch":35,"velocity":80,"startTime":132.413568,"endTime":132.4381985,"instrument":1,"isDrum":true},{"pitch":44,"velocity":80,"startTime":132.413568,"endTime":132.4381985,"instrument":1,"isDrum":true},{"pitch":51,"velocity":80,"startTime":132.413568,"endTime":132.4381985,"instrument":1,"isDrum":true},{"pitch":53,"velocity":80,"startTime":132.413568,"endTime":132.4381985,"instrument":1,"isDrum":true},{"pitch":35,"velocity":80,"startTime":132.70913399999998,"endTime":132.75839499999998,"instrument":1,"isDrum":true},{"pitch":44,"velocity":80,"startTime":132.70913399999998,"endTime":132.73376449999998,"instrument":1,"isDrum":true},{"pitch":51,"velocity":80,"startTime":132.70913399999998,"endTime":132.90617799999998,"instrument":1,"isDrum":true},{"pitch":53,"velocity":80,"startTime":132.70913399999998,"endTime":132.73376449999998,"instrument":1,"isDrum":true},{"pitch":51,"velocity":80,"startTime":132.90617799999998,"endTime":133.103222,"instrument":1,"isDrum":true},{"pitch":35,"velocity":80,"startTime":133.00469999999999,"endTime":133.053961,"instrument":1,"isDrum":true},{"pitch":44,"velocity":80,"startTime":133.00469999999999,"endTime":133.0293305,"instrument":1,"isDrum":true},{"pitch":51,"velocity":80,"startTime":133.201744,"endTime":133.3248965,"instrument":1,"isDrum":true},{"pitch":35,"velocity":80,"startTime":133.300266,"endTime":133.3248965,"instrument":1,"isDrum":true},{"pitch":44,"velocity":80,"startTime":133.300266,"endTime":133.3248965,"instrument":1,"isDrum":true},{"pitch":35,"velocity":80,"startTime":133.49731,"endTime":133.5219405,"instrument":1,"isDrum":true},{"pitch":44,"velocity":80,"startTime":133.49731,"endTime":133.5219405,"instrument":1,"isDrum":true},{"pitch":51,"velocity":80,"startTime":133.49731,"endTime":133.5219405,"instrument":1,"isDrum":true},{"pitch":35,"velocity":80,"startTime":133.595832,"endTime":133.6204625,"instrument":1,"isDrum":true},{"pitch":44,"velocity":80,"startTime":133.595832,"endTime":133.6204625,"instrument":1,"isDrum":true},{"pitch":51,"velocity":80,"startTime":133.595832,"endTime":133.6204625,"instrument":1,"isDrum":true},{"pitch":51,"velocity":80,"startTime":133.79287599999998,"endTime":133.81750649999998,"instrument":1,"isDrum":true},{"pitch":35,"velocity":80,"startTime":133.89139799999998,"endTime":133.91602849999998,"instrument":1,"isDrum":true},{"pitch":44,"velocity":80,"startTime":133.89139799999998,"endTime":133.91602849999998,"instrument":1,"isDrum":true},{"pitch":51,"velocity":80,"startTime":133.89139799999998,"endTime":133.91602849999998,"instrument":1,"isDrum":true},{"pitch":53,"velocity":80,"startTime":133.89139799999998,"endTime":133.91602849999998,"instrument":1,"isDrum":true},{"pitch":35,"velocity":80,"startTime":134.186964,"endTime":134.2115945,"instrument":1,"isDrum":true},{"pitch":44,"velocity":80,"startTime":134.186964,"endTime":134.2115945,"instrument":1,"isDrum":true},{"pitch":51,"velocity":80,"startTime":134.186964,"endTime":134.2115945,"instrument":1,"isDrum":true},{"pitch":51,"velocity":80,"startTime":134.384008,"endTime":134.4086385,"instrument":1,"isDrum":true},{"pitch":35,"velocity":80,"startTime":134.48253,"endTime":134.5071605,"instrument":1,"isDrum":true},{"pitch":44,"velocity":80,"startTime":134.48253,"endTime":134.5071605,"instrument":1,"isDrum":true},{"pitch":51,"velocity":80,"startTime":134.48253,"endTime":134.5071605,"instrument":1,"isDrum":true},{"pitch":53,"velocity":80,"startTime":134.48253,"endTime":134.5071605,"instrument":1,"isDrum":true},{"pitch":51,"velocity":80,"startTime":134.679574,"endTime":134.7042045,"instrument":1,"isDrum":true},{"pitch":35,"velocity":80,"startTime":134.77809599999998,"endTime":134.80272649999998,"instrument":1,"isDrum":true},{"pitch":44,"velocity":80,"startTime":134.77809599999998,"endTime":134.80272649999998,"instrument":1,"isDrum":true},{"pitch":51,"velocity":80,"startTime":134.77809599999998,"endTime":134.80272649999998,"instrument":1,"isDrum":true},{"pitch":51,"velocity":80,"startTime":134.97513999999998,"endTime":134.99977049999998,"instrument":1,"isDrum":true},{"pitch":35,"velocity":80,"startTime":135.07366199999998,"endTime":135.09829249999999,"instrument":1,"isDrum":true},{"pitch":44,"velocity":80,"startTime":135.07366199999998,"endTime":135.09829249999999,"instrument":1,"isDrum":true},{"pitch":51,"velocity":80,"startTime":135.07366199999998,"endTime":135.09829249999999,"instrument":1,"isDrum":true},{"pitch":53,"velocity":80,"startTime":135.07366199999998,"endTime":135.09829249999999,"instrument":1,"isDrum":true},{"pitch":44,"velocity":80,"startTime":135.369228,"endTime":135.3938585,"instrument":1,"isDrum":true},{"pitch":51,"velocity":80,"startTime":135.566272,"endTime":135.5909025,"instrument":1,"isDrum":true},{"pitch":35,"velocity":80,"startTime":135.664794,"endTime":135.6894245,"instrument":1,"isDrum":true},{"pitch":44,"velocity":80,"startTime":135.664794,"endTime":135.6894245,"instrument":1,"isDrum":true},{"pitch":51,"velocity":80,"startTime":135.664794,"endTime":135.6894245,"instrument":1,"isDrum":true},{"pitch":53,"velocity":80,"startTime":135.664794,"endTime":135.6894245,"instrument":1,"isDrum":true},{"pitch":44,"velocity":80,"startTime":135.96035999999998,"endTime":135.98499049999998,"instrument":1,"isDrum":true},{"pitch":51,"velocity":80,"startTime":136.15740399999999,"endTime":136.1820345,"instrument":1,"isDrum":true},{"pitch":35,"velocity":80,"startTime":136.255926,"endTime":136.2805565,"instrument":1,"isDrum":true},{"pitch":44,"velocity":80,"startTime":136.255926,"endTime":136.2805565,"instrument":1,"isDrum":true},{"pitch":51,"velocity":80,"startTime":136.255926,"endTime":136.2805565,"instrument":1,"isDrum":true},{"pitch":53,"velocity":80,"startTime":136.255926,"endTime":136.2805565,"instrument":1,"isDrum":true},{"pitch":44,"velocity":80,"startTime":136.551492,"endTime":136.5761225,"instrument":1,"isDrum":true},{"pitch":53,"velocity":80,"startTime":136.551492,"endTime":136.5761225,"instrument":1,"isDrum":true},{"pitch":51,"velocity":80,"startTime":136.7731665,"endTime":136.8224275,"instrument":1,"isDrum":true},{"pitch":35,"velocity":80,"startTime":136.847058,"endTime":136.8716885,"instrument":1,"isDrum":true},{"pitch":44,"velocity":80,"startTime":136.847058,"endTime":136.8716885,"instrument":1,"isDrum":true},{"pitch":51,"velocity":80,"startTime":136.847058,"endTime":136.8716885,"instrument":1,"isDrum":true},{"pitch":44,"velocity":80,"startTime":137.14262399999998,"endTime":137.16725449999998,"instrument":1,"isDrum":true},{"pitch":51,"velocity":80,"startTime":137.14262399999998,"endTime":137.16725449999998,"instrument":1,"isDrum":true},{"pitch":51,"velocity":80,"startTime":137.339668,"endTime":137.3642985,"instrument":1,"isDrum":true},{"pitch":35,"velocity":80,"startTime":137.43819,"endTime":137.4628205,"instrument":1,"isDrum":true},{"pitch":44,"velocity":80,"startTime":137.43819,"endTime":137.4628205,"instrument":1,"isDrum":true},{"pitch":51,"velocity":80,"startTime":137.43819,"endTime":137.4628205,"instrument":1,"isDrum":true},{"pitch":51,"velocity":80,"startTime":137.635234,"endTime":137.6598645,"instrument":1,"isDrum":true},{"pitch":35,"velocity":80,"startTime":137.733756,"endTime":137.7583865,"instrument":1,"isDrum":true},{"pitch":44,"velocity":80,"startTime":137.733756,"endTime":137.7583865,"instrument":1,"isDrum":true},{"pitch":51,"velocity":80,"startTime":137.733756,"endTime":137.7583865,"instrument":1,"isDrum":true},{"pitch":53,"velocity":80,"startTime":137.733756,"endTime":137.7583865,"instrument":1,"isDrum":true},{"pitch":44,"velocity":80,"startTime":138.02932199999998,"endTime":138.05395249999998,"instrument":1,"isDrum":true},{"pitch":59,"velocity":80,"startTime":138.02932199999998,"endTime":138.05395249999998,"instrument":1,"isDrum":true},{"pitch":51,"velocity":80,"startTime":138.22636599999998,"endTime":138.25099649999999,"instrument":1,"isDrum":true},{"pitch":35,"velocity":80,"startTime":138.324888,"endTime":138.3495185,"instrument":1,"isDrum":true},{"pitch":44,"velocity":80,"startTime":138.324888,"endTime":138.3495185,"instrument":1,"isDrum":true},{"pitch":51,"velocity":80,"startTime":138.324888,"endTime":138.3495185,"instrument":1,"isDrum":true},{"pitch":53,"velocity":80,"startTime":138.324888,"endTime":138.3495185,"instrument":1,"isDrum":true},{"pitch":35,"velocity":80,"startTime":138.620454,"endTime":138.6450845,"instrument":1,"isDrum":true},{"pitch":38,"velocity":80,"startTime":138.620454,"endTime":138.6450845,"instrument":1,"isDrum":true},{"pitch":44,"velocity":80,"startTime":138.620454,"endTime":138.6450845,"instrument":1,"isDrum":true},{"pitch":51,"velocity":80,"startTime":138.620454,"endTime":138.6450845,"instrument":1,"isDrum":true},{"pitch":51,"velocity":80,"startTime":138.817498,"endTime":138.8421285,"instrument":1,"isDrum":true},{"pitch":35,"velocity":80,"startTime":138.91602,"endTime":138.9406505,"instrument":1,"isDrum":true},{"pitch":44,"velocity":80,"startTime":138.91602,"endTime":138.9406505,"instrument":1,"isDrum":true},{"pitch":51,"velocity":80,"startTime":138.91602,"endTime":138.9406505,"instrument":1,"isDrum":true},{"pitch":53,"velocity":80,"startTime":138.91602,"endTime":138.9406505,"instrument":1,"isDrum":true},{"pitch":44,"velocity":80,"startTime":139.21158599999998,"endTime":139.23621649999998,"instrument":1,"isDrum":true},{"pitch":53,"velocity":80,"startTime":139.21158599999998,"endTime":139.23621649999998,"instrument":1,"isDrum":true},{"pitch":51,"velocity":80,"startTime":139.40863,"endTime":139.4332605,"instrument":1,"isDrum":true},{"pitch":44,"velocity":80,"startTime":139.507152,"endTime":139.5317825,"instrument":1,"isDrum":true},{"pitch":53,"velocity":80,"startTime":139.507152,"endTime":139.5317825,"instrument":1,"isDrum":true},{"pitch":51,"velocity":80,"startTime":139.704196,"endTime":139.7288265,"instrument":1,"isDrum":true},{"pitch":35,"velocity":80,"startTime":139.802718,"endTime":139.8273485,"instrument":1,"isDrum":true},{"pitch":44,"velocity":80,"startTime":139.802718,"endTime":139.8273485,"instrument":1,"isDrum":true},{"pitch":51,"velocity":80,"startTime":139.802718,"endTime":139.8273485,"instrument":1,"isDrum":true},{"pitch":53,"velocity":80,"startTime":139.802718,"endTime":139.8273485,"instrument":1,"isDrum":true},{"pitch":44,"velocity":80,"startTime":140.09828399999998,"endTime":140.12291449999998,"instrument":1,"isDrum":true},{"pitch":53,"velocity":80,"startTime":140.09828399999998,"endTime":140.12291449999998,"instrument":1,"isDrum":true},{"pitch":53,"velocity":80,"startTime":140.29532799999998,"endTime":140.31995849999998,"instrument":1,"isDrum":true},{"pitch":44,"velocity":80,"startTime":140.689416,"endTime":140.7140465,"instrument":1,"isDrum":true},{"pitch":53,"velocity":80,"startTime":140.689416,"endTime":140.7140465,"instrument":1,"isDrum":true},{"pitch":51,"velocity":80,"startTime":140.88646,"endTime":140.9110905,"instrument":1,"isDrum":true},{"pitch":35,"velocity":80,"startTime":140.984982,"endTime":141.0096125,"instrument":1,"isDrum":true},{"pitch":44,"velocity":80,"startTime":140.984982,"endTime":141.0096125,"instrument":1,"isDrum":true},{"pitch":51,"velocity":80,"startTime":140.984982,"endTime":141.0096125,"instrument":1,"isDrum":true},{"pitch":53,"velocity":80,"startTime":140.984982,"endTime":141.0096125,"instrument":1,"isDrum":true},{"pitch":31,"velocity":103,"startTime":132.413568,"endTime":132.6352425,"instrument":2,"program":32},{"pitch":31,"velocity":103,"startTime":132.68450349999998,"endTime":132.70913399999998,"instrument":2,"program":32},{"pitch":35,"velocity":103,"startTime":132.70913399999998,"endTime":133.00469999999999,"instrument":2,"program":32},{"pitch":38,"velocity":103,"startTime":133.00469999999999,"endTime":133.300266,"instrument":2,"program":32},{"pitch":31,"velocity":103,"startTime":133.300266,"endTime":133.595832,"instrument":2,"program":32},{"pitch":31,"velocity":103,"startTime":133.595832,"endTime":133.81750649999998,"instrument":2,"program":32},{"pitch":31,"velocity":103,"startTime":133.81750649999998,"endTime":133.86676749999998,"instrument":2,"program":32},{"pitch":31,"velocity":103,"startTime":133.89139799999998,"endTime":134.186964,"instrument":2,"program":32},{"pitch":35,"velocity":103,"startTime":134.186964,"endTime":134.4086385,"instrument":2,"program":32},{"pitch":31,"velocity":103,"startTime":134.4086385,"endTime":134.48253,"instrument":2,"program":32},{"pitch":35,"velocity":103,"startTime":134.48253,"endTime":134.77809599999998,"instrument":2,"program":32},{"pitch":28,"velocity":103,"startTime":134.77809599999998,"endTime":135.07366199999998,"instrument":2,"program":32},{"pitch":28,"velocity":103,"startTime":135.07366199999998,"endTime":135.369228,"instrument":2,"program":32},{"pitch":28,"velocity":103,"startTime":135.369228,"endTime":135.664794,"instrument":2,"program":32},{"pitch":28,"velocity":103,"startTime":135.664794,"endTime":135.96035999999998,"instrument":2,"program":32},{"pitch":28,"velocity":103,"startTime":135.96035999999998,"endTime":136.255926,"instrument":2,"program":32},{"pitch":35,"velocity":103,"startTime":136.255926,"endTime":136.551492,"instrument":2,"program":32},{"pitch":36,"velocity":103,"startTime":136.551492,"endTime":136.847058,"instrument":2,"program":32},{"pitch":35,"velocity":103,"startTime":136.847058,"endTime":137.06873249999998,"instrument":2,"program":32},{"pitch":30,"velocity":103,"startTime":137.06873249999998,"endTime":137.11799349999998,"instrument":2,"program":32},{"pitch":36,"velocity":103,"startTime":137.14262399999998,"endTime":137.43819,"instrument":2,"program":32},{"pitch":35,"velocity":103,"startTime":137.43819,"endTime":137.733756,"instrument":2,"program":32},{"pitch":36,"velocity":103,"startTime":137.733756,"endTime":138.02932199999998,"instrument":2,"program":32},{"pitch":31,"velocity":103,"startTime":138.02932199999998,"endTime":138.324888,"instrument":2,"program":32},{"pitch":38,"velocity":103,"startTime":138.324888,"endTime":138.5465625,"instrument":2,"program":32},{"pitch":26,"velocity":103,"startTime":138.5465625,"endTime":138.620454,"instrument":2,"program":32},{"pitch":38,"velocity":103,"startTime":138.620454,"endTime":138.91602,"instrument":2,"program":32},{"pitch":38,"velocity":103,"startTime":138.91602,"endTime":139.21158599999998,"instrument":2,"program":32},{"pitch":38,"velocity":103,"startTime":139.21158599999998,"endTime":139.4332605,"instrument":2,"program":32},{"pitch":26,"velocity":103,"startTime":139.4332605,"endTime":139.507152,"instrument":2,"program":32},{"pitch":31,"velocity":103,"startTime":139.507152,"endTime":139.802718,"instrument":2,"program":32},{"pitch":38,"velocity":103,"startTime":139.802718,"endTime":140.09828399999998,"instrument":2,"program":32},{"pitch":43,"velocity":103,"startTime":140.09828399999998,"endTime":140.39385,"instrument":2,"program":32},{"pitch":38,"velocity":103,"startTime":140.39385,"endTime":140.689416,"instrument":2,"program":32},{"pitch":43,"velocity":103,"startTime":140.689416,"endTime":140.9110905,"instrument":2,"program":32},{"pitch":31,"velocity":103,"startTime":140.9110905,"endTime":140.984982,"instrument":2,"program":32},{"pitch":43,"velocity":103,"startTime":140.984982,"endTime":141.25591749999998,"instrument":2,"program":32},{"pitch":38,"velocity":103,"startTime":141.28054799999998,"endTime":141.5022225,"instrument":2,"program":32},{"pitch":31,"velocity":103,"startTime":141.5022225,"endTime":141.576114,"instrument":2,"program":32},{"pitch":38,"velocity":103,"startTime":141.576114,"endTime":141.7977885,"instrument":2,"program":32},{"pitch":31,"velocity":103,"startTime":141.7977885,"endTime":141.87168,"instrument":2,"program":32},{"pitch":64,"velocity":57,"startTime":141.87168,"endTime":141.9948325},{"pitch":67,"velocity":57,"startTime":141.87168,"endTime":141.9948325},{"pitch":74,"velocity":57,"startTime":141.8963105,"endTime":141.9948325},{"pitch":57,"velocity":57,"startTime":142.0933545,"endTime":142.19187649999998},{"pitch":64,"velocity":57,"startTime":142.0933545,"endTime":142.19187649999998},{"pitch":65,"velocity":57,"startTime":142.6844865,"endTime":142.7337475},{"pitch":74,"velocity":57,"startTime":142.6844865,"endTime":142.758378},{"pitch":57,"velocity":57,"startTime":142.709117,"endTime":142.7337475},{"pitch":69,"velocity":57,"startTime":142.709117,"endTime":142.758378},{"pitch":43,"velocity":57,"startTime":143.053944,"endTime":143.103205},{"pitch":59,"velocity":57,"startTime":143.053944,"endTime":143.1278355},{"pitch":62,"velocity":57,"startTime":143.053944,"endTime":143.1278355},{"pitch":69,"velocity":57,"startTime":143.053944,"endTime":143.1278355},{"pitch":40,"velocity":57,"startTime":144.45788249999998,"endTime":144.55640449999999},{"pitch":50,"velocity":57,"startTime":144.53177399999998,"endTime":144.6549265},{"pitch":55,"velocity":57,"startTime":144.55640449999999,"endTime":144.6549265},{"pitch":59,"velocity":57,"startTime":144.55640449999999,"endTime":144.630296},{"pitch":50,"velocity":57,"startTime":145.0490145,"endTime":145.0982755},{"pitch":55,"velocity":57,"startTime":145.0490145,"endTime":145.0982755},{"pitch":59,"velocity":57,"startTime":145.0490145,"endTime":145.122906},{"pitch":64,"velocity":57,"startTime":145.0490145,"endTime":145.0982755},{"pitch":40,"velocity":57,"startTime":145.41847199999998,"endTime":145.51699399999998},{"pitch":55,"velocity":57,"startTime":145.41847199999998,"endTime":145.51699399999998},{"pitch":59,"velocity":57,"startTime":145.44310249999998,"endTime":145.51699399999998},{"pitch":64,"velocity":57,"startTime":145.44310249999998,"endTime":145.51699399999998},{"pitch":40,"velocity":57,"startTime":145.9357125,"endTime":146.009604},{"pitch":57,"velocity":57,"startTime":145.9357125,"endTime":145.9849735},{"pitch":60,"velocity":57,"startTime":145.9357125,"endTime":146.009604},{"pitch":64,"velocity":57,"startTime":145.9357125,"endTime":145.9849735},{"pitch":48,"velocity":57,"startTime":146.896302,"endTime":146.9701935},{"pitch":59,"velocity":57,"startTime":146.896302,"endTime":146.945563},{"pitch":55,"velocity":57,"startTime":146.9209325,"endTime":146.9701935},{"pitch":64,"velocity":57,"startTime":146.9209325,"endTime":146.9701935},{"pitch":48,"velocity":57,"startTime":147.41354249999998,"endTime":147.46280349999998},{"pitch":55,"velocity":57,"startTime":147.41354249999998,"endTime":147.48743399999998},{"pitch":59,"velocity":57,"startTime":147.41354249999998,"endTime":147.46280349999998},{"pitch":64,"velocity":57,"startTime":147.41354249999998,"endTime":147.48743399999998},{"pitch":35,"velocity":80,"startTime":141.87168,"endTime":141.8963105,"instrument":1,"isDrum":true},{"pitch":44,"velocity":80,"startTime":141.87168,"endTime":141.8963105,"instrument":1,"isDrum":true},{"pitch":51,"velocity":80,"startTime":141.87168,"endTime":141.8963105,"instrument":1,"isDrum":true},{"pitch":53,"velocity":80,"startTime":141.87168,"endTime":141.920941,"instrument":1,"isDrum":true},{"pitch":56,"velocity":80,"startTime":141.87168,"endTime":141.8963105,"instrument":1,"isDrum":true},{"pitch":35,"velocity":80,"startTime":142.068724,"endTime":142.14261549999998,"instrument":1,"isDrum":true},{"pitch":51,"velocity":80,"startTime":142.068724,"endTime":142.14261549999998,"instrument":1,"isDrum":true},{"pitch":53,"velocity":80,"startTime":142.068724,"endTime":142.14261549999998,"instrument":1,"isDrum":true},{"pitch":44,"velocity":80,"startTime":142.16724599999998,"endTime":142.19187649999998,"instrument":1,"isDrum":true},{"pitch":51,"velocity":80,"startTime":142.16724599999998,"endTime":142.21650699999998,"instrument":1,"isDrum":true},{"pitch":56,"velocity":80,"startTime":142.16724599999998,"endTime":142.19187649999998,"instrument":1,"isDrum":true},{"pitch":35,"velocity":80,"startTime":142.36428999999998,"endTime":142.43818149999998,"instrument":1,"isDrum":true},{"pitch":51,"velocity":80,"startTime":142.36428999999998,"endTime":142.43818149999998,"instrument":1,"isDrum":true},{"pitch":35,"velocity":80,"startTime":142.46281199999999,"endTime":142.4874425,"instrument":1,"isDrum":true},{"pitch":44,"velocity":80,"startTime":142.46281199999999,"endTime":142.4874425,"instrument":1,"isDrum":true},{"pitch":51,"velocity":80,"startTime":142.46281199999999,"endTime":142.4874425,"instrument":1,"isDrum":true},{"pitch":53,"velocity":80,"startTime":142.46281199999999,"endTime":142.4874425,"instrument":1,"isDrum":true},{"pitch":56,"velocity":80,"startTime":142.46281199999999,"endTime":142.4874425,"instrument":1,"isDrum":true},{"pitch":35,"velocity":80,"startTime":142.659856,"endTime":142.7337475,"instrument":1,"isDrum":true},{"pitch":51,"velocity":80,"startTime":142.659856,"endTime":142.7337475,"instrument":1,"isDrum":true},{"pitch":53,"velocity":80,"startTime":142.659856,"endTime":142.7337475,"instrument":1,"isDrum":true},{"pitch":44,"velocity":80,"startTime":142.758378,"endTime":142.7830085,"instrument":1,"isDrum":true},{"pitch":51,"velocity":80,"startTime":142.758378,"endTime":142.7830085,"instrument":1,"isDrum":true},{"pitch":56,"velocity":80,"startTime":142.758378,"endTime":142.7830085,"instrument":1,"isDrum":true},{"pitch":35,"velocity":80,"startTime":142.955422,"endTime":143.0293135,"instrument":1,"isDrum":true},{"pitch":51,"velocity":80,"startTime":142.955422,"endTime":143.0293135,"instrument":1,"isDrum":true},{"pitch":35,"velocity":80,"startTime":143.053944,"endTime":143.0785745,"instrument":1,"isDrum":true},{"pitch":44,"velocity":80,"startTime":143.053944,"endTime":143.0785745,"instrument":1,"isDrum":true},{"pitch":51,"velocity":80,"startTime":143.053944,"endTime":143.0785745,"instrument":1,"isDrum":true},{"pitch":53,"velocity":80,"startTime":143.053944,"endTime":143.0785745,"instrument":1,"isDrum":true},{"pitch":56,"velocity":80,"startTime":143.053944,"endTime":143.0785745,"instrument":1,"isDrum":true},{"pitch":35,"velocity":80,"startTime":143.25098799999998,"endTime":143.32487949999998,"instrument":1,"isDrum":true},{"pitch":51,"velocity":80,"startTime":143.25098799999998,"endTime":143.32487949999998,"instrument":1,"isDrum":true},{"pitch":37,"velocity":80,"startTime":143.34950999999998,"endTime":143.37414049999998,"instrument":1,"isDrum":true},{"pitch":44,"velocity":80,"startTime":143.34950999999998,"endTime":143.37414049999998,"instrument":1,"isDrum":true},{"pitch":51,"velocity":80,"startTime":143.34950999999998,"endTime":143.37414049999998,"instrument":1,"isDrum":true},{"pitch":56,"velocity":80,"startTime":143.34950999999998,"endTime":143.37414049999998,"instrument":1,"isDrum":true},{"pitch":35,"velocity":80,"startTime":143.546554,"endTime":143.6204455,"instrument":1,"isDrum":true},{"pitch":51,"velocity":80,"startTime":143.546554,"endTime":143.6204455,"instrument":1,"isDrum":true},{"pitch":35,"velocity":80,"startTime":143.645076,"endTime":143.6697065,"instrument":1,"isDrum":true},{"pitch":44,"velocity":80,"startTime":143.645076,"endTime":143.6697065,"instrument":1,"isDrum":true},{"pitch":51,"velocity":80,"startTime":143.645076,"endTime":143.6697065,"instrument":1,"isDrum":true},{"pitch":53,"velocity":80,"startTime":143.645076,"endTime":143.6697065,"instrument":1,"isDrum":true},{"pitch":35,"velocity":80,"startTime":143.84212,"endTime":143.9160115,"instrument":1,"isDrum":true},{"pitch":51,"velocity":80,"startTime":143.84212,"endTime":143.9160115,"instrument":1,"isDrum":true},{"pitch":37,"velocity":80,"startTime":143.940642,"endTime":143.9652725,"instrument":1,"isDrum":true},{"pitch":38,"velocity":80,"startTime":143.940642,"endTime":143.9652725,"instrument":1,"isDrum":true},{"pitch":44,"velocity":80,"startTime":143.940642,"endTime":143.9652725,"instrument":1,"isDrum":true},{"pitch":51,"velocity":80,"startTime":143.940642,"endTime":143.9652725,"instrument":1,"isDrum":true},{"pitch":56,"velocity":80,"startTime":143.940642,"endTime":143.9652725,"instrument":1,"isDrum":true},{"pitch":35,"velocity":80,"startTime":144.137686,"endTime":144.2115775,"instrument":1,"isDrum":true},{"pitch":51,"velocity":80,"startTime":144.137686,"endTime":144.2115775,"instrument":1,"isDrum":true},{"pitch":35,"velocity":80,"startTime":144.23620799999998,"endTime":144.26083849999998,"instrument":1,"isDrum":true},{"pitch":44,"velocity":80,"startTime":144.23620799999998,"endTime":144.26083849999998,"instrument":1,"isDrum":true},{"pitch":51,"velocity":80,"startTime":144.23620799999998,"endTime":144.26083849999998,"instrument":1,"isDrum":true},{"pitch":35,"velocity":80,"startTime":144.43325199999998,"endTime":144.48251299999998,"instrument":1,"isDrum":true},{"pitch":51,"velocity":80,"startTime":144.43325199999998,"endTime":144.48251299999998,"instrument":1,"isDrum":true},{"pitch":56,"velocity":80,"startTime":144.43325199999998,"endTime":144.48251299999998,"instrument":1,"isDrum":true},{"pitch":37,"velocity":80,"startTime":144.53177399999998,"endTime":144.55640449999999,"instrument":1,"isDrum":true},{"pitch":44,"velocity":80,"startTime":144.53177399999998,"endTime":144.55640449999999,"instrument":1,"isDrum":true},{"pitch":51,"velocity":80,"startTime":144.53177399999998,"endTime":144.55640449999999,"instrument":1,"isDrum":true},{"pitch":56,"velocity":80,"startTime":144.53177399999998,"endTime":144.55640449999999,"instrument":1,"isDrum":true},{"pitch":35,"velocity":80,"startTime":144.728818,"endTime":144.8027095,"instrument":1,"isDrum":true},{"pitch":51,"velocity":80,"startTime":144.728818,"endTime":144.8027095,"instrument":1,"isDrum":true},{"pitch":35,"velocity":80,"startTime":144.82734,"endTime":144.8519705,"instrument":1,"isDrum":true},{"pitch":44,"velocity":80,"startTime":144.82734,"endTime":144.8519705,"instrument":1,"isDrum":true},{"pitch":51,"velocity":80,"startTime":144.82734,"endTime":144.8519705,"instrument":1,"isDrum":true},{"pitch":35,"velocity":80,"startTime":145.024384,"endTime":145.073645,"instrument":1,"isDrum":true},{"pitch":51,"velocity":80,"startTime":145.024384,"endTime":145.073645,"instrument":1,"isDrum":true},{"pitch":56,"velocity":80,"startTime":145.024384,"endTime":145.073645,"instrument":1,"isDrum":true},{"pitch":37,"velocity":80,"startTime":145.122906,"endTime":145.1475365,"instrument":1,"isDrum":true},{"pitch":44,"velocity":80,"startTime":145.122906,"endTime":145.1475365,"instrument":1,"isDrum":true},{"pitch":51,"velocity":80,"startTime":145.122906,"endTime":145.1475365,"instrument":1,"isDrum":true},{"pitch":56,"velocity":80,"startTime":145.122906,"endTime":145.1475365,"instrument":1,"isDrum":true},{"pitch":59,"velocity":80,"startTime":145.122906,"endTime":145.1475365,"instrument":1,"isDrum":true},{"pitch":35,"velocity":80,"startTime":145.31994999999998,"endTime":145.39384149999998,"instrument":1,"isDrum":true},{"pitch":51,"velocity":80,"startTime":145.31994999999998,"endTime":145.39384149999998,"instrument":1,"isDrum":true},{"pitch":35,"velocity":80,"startTime":145.41847199999998,"endTime":145.44310249999998,"instrument":1,"isDrum":true},{"pitch":44,"velocity":80,"startTime":145.41847199999998,"endTime":145.44310249999998,"instrument":1,"isDrum":true},{"pitch":51,"velocity":80,"startTime":145.41847199999998,"endTime":145.44310249999998,"instrument":1,"isDrum":true},{"pitch":35,"velocity":80,"startTime":145.61551599999999,"endTime":145.664777,"instrument":1,"isDrum":true},{"pitch":51,"velocity":80,"startTime":145.61551599999999,"endTime":145.664777,"instrument":1,"isDrum":true},{"pitch":56,"velocity":80,"startTime":145.61551599999999,"endTime":145.664777,"instrument":1,"isDrum":true},{"pitch":37,"velocity":80,"startTime":145.714038,"endTime":145.7386685,"instrument":1,"isDrum":true},{"pitch":44,"velocity":80,"startTime":145.714038,"endTime":145.7386685,"instrument":1,"isDrum":true},{"pitch":51,"velocity":80,"startTime":145.714038,"endTime":145.7386685,"instrument":1,"isDrum":true},{"pitch":56,"velocity":80,"startTime":145.714038,"endTime":145.7386685,"instrument":1,"isDrum":true},{"pitch":35,"velocity":80,"startTime":145.911082,"endTime":145.9849735,"instrument":1,"isDrum":true},{"pitch":51,"velocity":80,"startTime":145.911082,"endTime":145.9849735,"instrument":1,"isDrum":true},{"pitch":35,"velocity":80,"startTime":146.009604,"endTime":146.0342345,"instrument":1,"isDrum":true},{"pitch":44,"velocity":80,"startTime":146.009604,"endTime":146.0342345,"instrument":1,"isDrum":true},{"pitch":51,"velocity":80,"startTime":146.009604,"endTime":146.0342345,"instrument":1,"isDrum":true},{"pitch":35,"velocity":80,"startTime":146.206648,"endTime":146.2312785,"instrument":1,"isDrum":true},{"pitch":51,"velocity":80,"startTime":146.206648,"endTime":146.2312785,"instrument":1,"isDrum":true},{"pitch":56,"velocity":80,"startTime":146.206648,"endTime":146.2312785,"instrument":1,"isDrum":true},{"pitch":37,"velocity":80,"startTime":146.30517,"endTime":146.32980049999998,"instrument":1,"isDrum":true},{"pitch":38,"velocity":80,"startTime":146.30517,"endTime":146.32980049999998,"instrument":1,"isDrum":true},{"pitch":39,"velocity":80,"startTime":146.30517,"endTime":146.32980049999998,"instrument":1,"isDrum":true},{"pitch":44,"velocity":80,"startTime":146.30517,"endTime":146.32980049999998,"instrument":1,"isDrum":true},{"pitch":51,"velocity":80,"startTime":146.30517,"endTime":146.32980049999998,"instrument":1,"isDrum":true},{"pitch":54,"velocity":80,"startTime":146.30517,"endTime":146.32980049999998,"instrument":1,"isDrum":true},{"pitch":35,"velocity":80,"startTime":146.50221399999998,"endTime":146.57610549999998,"instrument":1,"isDrum":true},{"pitch":51,"velocity":80,"startTime":146.50221399999998,"endTime":146.57610549999998,"instrument":1,"isDrum":true},{"pitch":35,"velocity":80,"startTime":146.60073599999998,"endTime":146.62536649999998,"instrument":1,"isDrum":true},{"pitch":44,"velocity":80,"startTime":146.60073599999998,"endTime":146.62536649999998,"instrument":1,"isDrum":true},{"pitch":51,"velocity":80,"startTime":146.60073599999998,"endTime":146.62536649999998,"instrument":1,"isDrum":true},{"pitch":35,"velocity":80,"startTime":146.79778,"endTime":146.8224105,"instrument":1,"isDrum":true},{"pitch":51,"velocity":80,"startTime":146.79778,"endTime":146.8224105,"instrument":1,"isDrum":true},{"pitch":37,"velocity":80,"startTime":146.896302,"endTime":146.9209325,"instrument":1,"isDrum":true},{"pitch":38,"velocity":80,"startTime":146.896302,"endTime":146.9209325,"instrument":1,"isDrum":true},{"pitch":39,"velocity":80,"startTime":146.896302,"endTime":146.9209325,"instrument":1,"isDrum":true},{"pitch":44,"velocity":80,"startTime":146.896302,"endTime":146.9209325,"instrument":1,"isDrum":true},{"pitch":51,"velocity":80,"startTime":146.896302,"endTime":146.9209325,"instrument":1,"isDrum":true},{"pitch":54,"velocity":80,"startTime":146.896302,"endTime":146.9209325,"instrument":1,"isDrum":true},{"pitch":35,"velocity":80,"startTime":147.093346,"endTime":147.1672375,"instrument":1,"isDrum":true},{"pitch":51,"velocity":80,"startTime":147.093346,"endTime":147.1672375,"instrument":1,"isDrum":true},{"pitch":35,"velocity":80,"startTime":147.191868,"endTime":147.2164985,"instrument":1,"isDrum":true},{"pitch":44,"velocity":80,"startTime":147.191868,"endTime":147.2164985,"instrument":1,"isDrum":true},{"pitch":51,"velocity":80,"startTime":147.191868,"endTime":147.2164985,"instrument":1,"isDrum":true},{"pitch":35,"velocity":80,"startTime":147.38891199999998,"endTime":147.43817299999998,"instrument":1,"isDrum":true},{"pitch":51,"velocity":80,"startTime":147.38891199999998,"endTime":147.43817299999998,"instrument":1,"isDrum":true},{"pitch":56,"velocity":80,"startTime":147.38891199999998,"endTime":147.43817299999998,"instrument":1,"isDrum":true},{"pitch":37,"velocity":80,"startTime":147.48743399999998,"endTime":147.51206449999998,"instrument":1,"isDrum":true},{"pitch":38,"velocity":80,"startTime":147.48743399999998,"endTime":147.51206449999998,"instrument":1,"isDrum":true},{"pitch":39,"velocity":80,"startTime":147.48743399999998,"endTime":147.51206449999998,"instrument":1,"isDrum":true},{"pitch":44,"velocity":80,"startTime":147.48743399999998,"endTime":147.51206449999998,"instrument":1,"isDrum":true},{"pitch":51,"velocity":80,"startTime":147.48743399999998,"endTime":147.51206449999998,"instrument":1,"isDrum":true},{"pitch":54,"velocity":80,"startTime":147.48743399999998,"endTime":147.51206449999998,"instrument":1,"isDrum":true},{"pitch":35,"velocity":80,"startTime":147.68447799999998,"endTime":147.7583695,"instrument":1,"isDrum":true},{"pitch":51,"velocity":80,"startTime":147.68447799999998,"endTime":147.7583695,"instrument":1,"isDrum":true},{"pitch":44,"velocity":80,"startTime":147.783,"endTime":147.8076305,"instrument":1,"isDrum":true},{"pitch":51,"velocity":80,"startTime":147.783,"endTime":147.8076305,"instrument":1,"isDrum":true},{"pitch":35,"velocity":80,"startTime":147.980044,"endTime":148.0046745,"instrument":1,"isDrum":true},{"pitch":51,"velocity":80,"startTime":147.980044,"endTime":148.0046745,"instrument":1,"isDrum":true},{"pitch":37,"velocity":80,"startTime":148.078566,"endTime":148.1031965,"instrument":1,"isDrum":true},{"pitch":38,"velocity":80,"startTime":148.078566,"endTime":148.1031965,"instrument":1,"isDrum":true},{"pitch":44,"velocity":80,"startTime":148.078566,"endTime":148.1031965,"instrument":1,"isDrum":true},{"pitch":51,"velocity":80,"startTime":148.078566,"endTime":148.1031965,"instrument":1,"isDrum":true},{"pitch":53,"velocity":80,"startTime":148.078566,"endTime":148.1031965,"instrument":1,"isDrum":true},{"pitch":56,"velocity":80,"startTime":148.078566,"endTime":148.1031965,"instrument":1,"isDrum":true},{"pitch":35,"velocity":80,"startTime":148.27561,"endTime":148.3495015,"instrument":1,"isDrum":true},{"pitch":51,"velocity":80,"startTime":148.27561,"endTime":148.3495015,"instrument":1,"isDrum":true},{"pitch":43,"velocity":103,"startTime":141.87168,"endTime":142.16724599999998,"instrument":2,"program":32},{"pitch":50,"velocity":103,"startTime":142.16724599999998,"endTime":142.46281199999999,"instrument":2,"program":32},{"pitch":47,"velocity":103,"startTime":142.46281199999999,"endTime":142.7830085,"instrument":2,"program":32},{"pitch":43,"velocity":103,"startTime":142.758378,"endTime":143.004683,"instrument":2,"program":32},{"pitch":43,"velocity":103,"startTime":143.053944,"endTime":143.27561849999998,"instrument":2,"program":32},{"pitch":31,"velocity":103,"startTime":143.27561849999998,"endTime":143.34950999999998,"instrument":2,"program":32},{"pitch":43,"velocity":103,"startTime":143.34950999999998,"endTime":143.645076,"instrument":2,"program":32},{"pitch":35,"velocity":103,"startTime":143.645076,"endTime":143.989903,"instrument":2,"program":32},{"pitch":43,"velocity":103,"startTime":143.940642,"endTime":144.23620799999998,"instrument":2,"program":32},{"pitch":40,"velocity":103,"startTime":144.23620799999998,"endTime":144.53177399999998,"instrument":2,"program":32},{"pitch":28,"velocity":103,"startTime":144.45788249999998,"endTime":144.50714349999998,"instrument":2,"program":32},{"pitch":52,"velocity":103,"startTime":144.53177399999998,"endTime":144.7534485,"instrument":2,"program":32},{"pitch":32,"velocity":103,"startTime":144.7534485,"endTime":144.8027095,"instrument":2,"program":32},{"pitch":40,"velocity":103,"startTime":144.82734,"endTime":145.122906,"instrument":2,"program":32},{"pitch":28,"velocity":103,"startTime":145.0490145,"endTime":145.0982755,"instrument":2,"program":32},{"pitch":41,"velocity":103,"startTime":145.122906,"endTime":145.34458049999998,"instrument":2,"program":32},{"pitch":28,"velocity":103,"startTime":145.34458049999998,"endTime":145.39384149999998,"instrument":2,"program":32},{"pitch":40,"velocity":103,"startTime":145.41847199999998,"endTime":145.763299,"instrument":2,"program":32},{"pitch":47,"velocity":103,"startTime":145.714038,"endTime":146.30517,"instrument":2,"program":32},{"pitch":47,"velocity":103,"startTime":146.009604,"endTime":146.0342345,"instrument":2,"program":32},{"pitch":47,"velocity":103,"startTime":146.30517,"endTime":146.60073599999998,"instrument":2,"program":32},{"pitch":36,"velocity":103,"startTime":146.60073599999998,"endTime":146.8224105,"instrument":2,"program":32},{"pitch":24,"velocity":103,"startTime":146.8224105,"endTime":146.8716715,"instrument":2,"program":32},{"pitch":35,"velocity":103,"startTime":146.896302,"endTime":147.191868,"instrument":2,"program":32},{"pitch":36,"velocity":103,"startTime":147.191868,"endTime":147.41354249999998,"instrument":2,"program":32},{"pitch":24,"velocity":103,"startTime":147.41354249999998,"endTime":147.48743399999998,"instrument":2,"program":32},{"pitch":31,"velocity":103,"startTime":147.48743399999998,"endTime":147.783,"instrument":2,"program":32}],"totalTime":148.3495015},"sequence":{"filename":"Ill_Be_Missing_You__halfn.mid","tempos":[{"qpm":203.00034510058669}],"notes":[{"pitch":43,"velocity":57,"endTime":0.098522},{"pitch":59,"velocity":57,"endTime":0.098522},{"pitch":65,"velocity":57,"startTime":0.0246305,"endTime":0.1231525},{"pitch":69,"velocity":57,"startTime":0.0246305,"endTime":0.1231525},{"pitch":43,"velocity":57,"startTime":0.3201965,"endTime":0.3694575},{"pitch":59,"velocity":57,"startTime":0.3201965,"endTime":0.3694575},{"pitch":65,"velocity":57,"startTime":0.3201965,"endTime":0.3694575},{"pitch":69,"velocity":57,"startTime":0.3201965,"endTime":0.394088},{"pitch":43,"velocity":57,"startTime":0.8128065,"endTime":0.8620675},{"pitch":59,"velocity":57,"startTime":0.8128065,"endTime":0.886698},{"pitch":65,"velocity":57,"startTime":0.8128065,"endTime":0.886698},{"pitch":69,"velocity":57,"startTime":0.8128065,"endTime":0.886698},{"pitch":43,"velocity":57,"startTime":1.1083725,"endTime":1.2561555},{"pitch":59,"velocity":57,"startTime":1.1083725,"endTime":1.2561555},{"pitch":64,"velocity":57,"startTime":1.1083725,"endTime":1.2561555},{"pitch":71,"velocity":57,"startTime":1.1083725,"endTime":1.280786},{"pitch":43,"velocity":57,"startTime":1.7980265,"endTime":1.871918},{"pitch":59,"velocity":57,"startTime":1.7980265,"endTime":1.871918},{"pitch":64,"velocity":57,"startTime":1.7980265,"endTime":1.8965485},{"pitch":71,"velocity":57,"startTime":1.7980265,"endTime":1.871918},{"pitch":40,"velocity":57,"startTime":2.561572,"endTime":2.6847244999999997},{"pitch":59,"velocity":57,"startTime":2.561572,"endTime":2.709355},{"pitch":62,"velocity":57,"startTime":2.561572,"endTime":2.709355},{"pitch":69,"velocity":57,"startTime":2.561572,"endTime":2.709355},{"pitch":40,"velocity":57,"startTime":3.1773344999999997,"endTime":3.2758564999999997},{"pitch":59,"velocity":57,"startTime":3.1773344999999997,"endTime":3.300487},{"pitch":62,"velocity":57,"startTime":3.1773344999999997,"endTime":3.300487},{"pitch":66,"velocity":57,"startTime":3.1773344999999997,"endTime":3.300487},{"pitch":40,"velocity":57,"startTime":3.4729004999999997,"endTime":3.5221614999999997},{"pitch":40,"velocity":57,"startTime":3.546792,"endTime":3.6699444999999997},{"pitch":55,"velocity":57,"startTime":3.546792,"endTime":3.645314},{"pitch":59,"velocity":57,"startTime":3.5714224999999997,"endTime":3.645314},{"pitch":62,"velocity":57,"startTime":3.5714224999999997,"endTime":3.645314},{"pitch":47,"velocity":57,"startTime":4.3842289999999995,"endTime":4.43349},{"pitch":59,"velocity":57,"startTime":4.532012,"endTime":4.5566425},{"pitch":62,"velocity":57,"startTime":4.532012,"endTime":4.5812729999999995},{"pitch":48,"velocity":57,"startTime":4.729056,"endTime":4.802947499999999},{"pitch":55,"velocity":57,"startTime":4.753686499999999,"endTime":4.802947499999999},{"pitch":62,"velocity":57,"startTime":4.753686499999999,"endTime":4.827577999999999},{"pitch":48,"velocity":57,"startTime":5.2462965,"endTime":5.320188},{"pitch":55,"velocity":57,"startTime":5.2462965,"endTime":5.320188},{"pitch":60,"velocity":57,"startTime":5.2462965,"endTime":5.3448185},{"pitch":64,"velocity":57,"startTime":5.2462965,"endTime":5.3448185},{"pitch":57,"velocity":57,"startTime":5.8374285,"endTime":6.970431499999999},{"pitch":64,"velocity":57,"startTime":5.8374285,"endTime":6.970431499999999},{"pitch":67,"velocity":57,"startTime":5.8374285,"endTime":6.970431499999999},{"pitch":72,"velocity":57,"startTime":5.8374285,"endTime":6.970431499999999},{"pitch":43,"velocity":57,"startTime":7.0196925,"endTime":8.177325999999999},{"pitch":57,"velocity":57,"startTime":7.0196925,"endTime":8.177325999999999},{"pitch":62,"velocity":57,"startTime":7.0196925,"endTime":8.177325999999999},{"pitch":65,"velocity":57,"startTime":7.0196925,"endTime":8.177325999999999},{"pitch":43,"velocity":57,"startTime":8.2019565,"endTime":9.359589999999999},{"pitch":59,"velocity":57,"startTime":8.2019565,"endTime":9.359589999999999},{"pitch":69,"velocity":57,"startTime":8.2019565,"endTime":9.359589999999999},{"pitch":71,"velocity":57,"startTime":8.2019565,"endTime":9.359589999999999},{"pitch":40,"velocity":57,"startTime":9.3842205,"endTime":9.458112},{"pitch":59,"velocity":57,"startTime":9.3842205,"endTime":9.458112},{"pitch":63,"velocity":57,"startTime":9.3842205,"endTime":9.458112},{"pitch":69,"velocity":57,"startTime":9.3842205,"endTime":9.458112},{"pitch":35,"velocity":80,"endTime":0.049261,"instrument":1,"isDrum":true},{"pitch":44,"velocity":80,"endTime":0.049261,"instrument":1,"isDrum":true},{"pitch":51,"velocity":80,"endTime":0.049261,"instrument":1,"isDrum":true},{"pitch":53,"velocity":80,"endTime":0.049261,"instrument":1,"isDrum":true},{"pitch":51,"velocity":80,"startTime":0.197044,"endTime":0.2709355,"instrument":1,"isDrum":true},{"pitch":44,"velocity":80,"startTime":0.295566,"endTime":0.344827,"instrument":1,"isDrum":true},{"pitch":51,"velocity":80,"startTime":0.295566,"endTime":0.344827,"instrument":1,"isDrum":true},{"pitch":53,"velocity":80,"startTime":0.295566,"endTime":0.344827,"instrument":1,"isDrum":true},{"pitch":51,"velocity":80,"startTime":0.4926099999999999,"endTime":0.5665014999999999,"instrument":1,"isDrum":true},{"pitch":35,"velocity":80,"startTime":0.591132,"endTime":0.640393,"instrument":1,"isDrum":true},{"pitch":44,"velocity":80,"startTime":0.591132,"endTime":0.640393,"instrument":1,"isDrum":true},{"pitch":51,"velocity":80,"startTime":0.591132,"endTime":0.640393,"instrument":1,"isDrum":true},{"pitch":53,"velocity":80,"startTime":0.591132,"endTime":0.640393,"instrument":1,"isDrum":true},{"pitch":51,"velocity":80,"startTime":0.788176,"endTime":0.8620675,"instrument":1,"isDrum":true},{"pitch":38,"velocity":80,"startTime":0.886698,"endTime":0.935959,"instrument":1,"isDrum":true},{"pitch":44,"velocity":80,"startTime":0.886698,"endTime":0.935959,"instrument":1,"isDrum":true},{"pitch":51,"velocity":80,"startTime":0.886698,"endTime":0.935959,"instrument":1,"isDrum":true},{"pitch":53,"velocity":80,"startTime":0.886698,"endTime":0.935959,"instrument":1,"isDrum":true},{"pitch":51,"velocity":80,"startTime":1.083742,"endTime":1.1576335,"instrument":1,"isDrum":true},{"pitch":44,"velocity":80,"startTime":1.182264,"endTime":1.231525,"instrument":1,"isDrum":true},{"pitch":51,"velocity":80,"startTime":1.182264,"endTime":1.231525,"instrument":1,"isDrum":true},{"pitch":53,"velocity":80,"startTime":1.182264,"endTime":1.231525,"instrument":1,"isDrum":true},{"pitch":51,"velocity":80,"startTime":1.379308,"endTime":1.4531995,"instrument":1,"isDrum":true},{"pitch":44,"velocity":80,"startTime":1.47783,"endTime":1.527091,"instrument":1,"isDrum":true},{"pitch":51,"velocity":80,"startTime":1.47783,"endTime":1.527091,"instrument":1,"isDrum":true},{"pitch":53,"velocity":80,"startTime":1.47783,"endTime":1.527091,"instrument":1,"isDrum":true},{"pitch":51,"velocity":80,"startTime":1.674874,"endTime":1.7487655,"instrument":1,"isDrum":true},{"pitch":35,"velocity":80,"startTime":1.773396,"endTime":1.822657,"instrument":1,"isDrum":true},{"pitch":44,"velocity":80,"startTime":1.773396,"endTime":1.822657,"instrument":1,"isDrum":true},{"pitch":51,"velocity":80,"startTime":1.773396,"endTime":1.822657,"instrument":1,"isDrum":true},{"pitch":53,"velocity":80,"startTime":1.773396,"endTime":1.822657,"instrument":1,"isDrum":true},{"pitch":51,"velocity":80,"startTime":1.97044,"endTime":2.0443314999999997,"instrument":1,"isDrum":true},{"pitch":38,"velocity":80,"startTime":2.068962,"endTime":2.118223,"instrument":1,"isDrum":true},{"pitch":44,"velocity":80,"startTime":2.068962,"endTime":2.118223,"instrument":1,"isDrum":true},{"pitch":51,"velocity":80,"startTime":2.068962,"endTime":2.118223,"instrument":1,"isDrum":true},{"pitch":53,"velocity":80,"startTime":2.068962,"endTime":2.118223,"instrument":1,"isDrum":true},{"pitch":35,"velocity":80,"startTime":2.266006,"endTime":2.3398974999999997,"instrument":1,"isDrum":true},{"pitch":51,"velocity":80,"startTime":2.266006,"endTime":2.3398974999999997,"instrument":1,"isDrum":true},{"pitch":44,"velocity":80,"startTime":2.364528,"endTime":2.4137889999999995,"instrument":1,"isDrum":true},{"pitch":51,"velocity":80,"startTime":2.364528,"endTime":2.4137889999999995,"instrument":1,"isDrum":true},{"pitch":53,"velocity":80,"startTime":2.364528,"endTime":2.4137889999999995,"instrument":1,"isDrum":true},{"pitch":35,"velocity":80,"startTime":2.561572,"endTime":2.6354634999999997,"instrument":1,"isDrum":true},{"pitch":51,"velocity":80,"startTime":2.561572,"endTime":2.6354634999999997,"instrument":1,"isDrum":true},{"pitch":38,"velocity":80,"startTime":2.660094,"endTime":2.6847244999999997,"instrument":1,"isDrum":true},{"pitch":44,"velocity":80,"startTime":2.660094,"endTime":2.6847244999999997,"instrument":1,"isDrum":true},{"pitch":53,"velocity":80,"startTime":2.660094,"endTime":2.6847244999999997,"instrument":1,"isDrum":true},{"pitch":35,"velocity":80,"startTime":2.857138,"endTime":2.9310294999999997,"instrument":1,"isDrum":true},{"pitch":51,"velocity":80,"startTime":2.857138,"endTime":2.9310294999999997,"instrument":1,"isDrum":true},{"pitch":35,"velocity":80,"startTime":2.95566,"endTime":3.004921,"instrument":1,"isDrum":true},{"pitch":44,"velocity":80,"startTime":2.95566,"endTime":3.004921,"instrument":1,"isDrum":true},{"pitch":51,"velocity":80,"startTime":2.95566,"endTime":3.004921,"instrument":1,"isDrum":true},{"pitch":53,"velocity":80,"startTime":2.95566,"endTime":3.004921,"instrument":1,"isDrum":true},{"pitch":51,"velocity":80,"startTime":3.152704,"endTime":3.2265954999999997,"instrument":1,"isDrum":true},{"pitch":38,"velocity":80,"startTime":3.251226,"endTime":3.300487,"instrument":1,"isDrum":true},{"pitch":44,"velocity":80,"startTime":3.251226,"endTime":3.300487,"instrument":1,"isDrum":true},{"pitch":51,"velocity":80,"startTime":3.251226,"endTime":3.300487,"instrument":1,"isDrum":true},{"pitch":53,"velocity":80,"startTime":3.251226,"endTime":3.300487,"instrument":1,"isDrum":true},{"pitch":51,"velocity":80,"startTime":3.44827,"endTime":3.5221614999999997,"instrument":1,"isDrum":true},{"pitch":44,"velocity":80,"startTime":3.546792,"endTime":3.596053,"instrument":1,"isDrum":true},{"pitch":51,"velocity":80,"startTime":3.546792,"endTime":3.596053,"instrument":1,"isDrum":true},{"pitch":53,"velocity":80,"startTime":3.546792,"endTime":3.596053,"instrument":1,"isDrum":true},{"pitch":51,"velocity":80,"startTime":3.743836,"endTime":3.8177274999999997,"instrument":1,"isDrum":true},{"pitch":38,"velocity":80,"startTime":3.842358,"endTime":3.891619,"instrument":1,"isDrum":true},{"pitch":44,"velocity":80,"startTime":3.842358,"endTime":3.891619,"instrument":1,"isDrum":true},{"pitch":51,"velocity":80,"startTime":3.842358,"endTime":3.891619,"instrument":1,"isDrum":true},{"pitch":53,"velocity":80,"startTime":3.842358,"endTime":3.891619,"instrument":1,"isDrum":true},{"pitch":35,"velocity":80,"startTime":4.039402,"endTime":4.1132935,"instrument":1,"isDrum":true},{"pitch":38,"velocity":80,"startTime":4.039402,"endTime":4.1132935,"instrument":1,"isDrum":true},{"pitch":51,"velocity":80,"startTime":4.039402,"endTime":4.1132935,"instrument":1,"isDrum":true},{"pitch":35,"velocity":80,"startTime":4.137924,"endTime":4.1871849999999995,"instrument":1,"isDrum":true},{"pitch":44,"velocity":80,"startTime":4.137924,"endTime":4.1871849999999995,"instrument":1,"isDrum":true},{"pitch":51,"velocity":80,"startTime":4.137924,"endTime":4.1871849999999995,"instrument":1,"isDrum":true},{"pitch":53,"velocity":80,"startTime":4.137924,"endTime":4.1871849999999995,"instrument":1,"isDrum":true},{"pitch":51,"velocity":80,"startTime":4.334968,"endTime":4.408859499999999,"instrument":1,"isDrum":true},{"pitch":38,"velocity":80,"startTime":4.43349,"endTime":4.4827509999999995,"instrument":1,"isDrum":true},{"pitch":44,"velocity":80,"startTime":4.43349,"endTime":4.4827509999999995,"instrument":1,"isDrum":true},{"pitch":51,"velocity":80,"startTime":4.43349,"endTime":4.4827509999999995,"instrument":1,"isDrum":true},{"pitch":53,"velocity":80,"startTime":4.43349,"endTime":4.4827509999999995,"instrument":1,"isDrum":true},{"pitch":51,"velocity":80,"startTime":4.630534,"endTime":4.704425499999999,"instrument":1,"isDrum":true},{"pitch":44,"velocity":80,"startTime":4.729056,"endTime":4.778317,"instrument":1,"isDrum":true},{"pitch":51,"velocity":80,"startTime":4.729056,"endTime":4.778317,"instrument":1,"isDrum":true},{"pitch":53,"velocity":80,"startTime":4.729056,"endTime":4.778317,"instrument":1,"isDrum":true},{"pitch":35,"velocity":80,"startTime":4.9261,"endTime":4.9999915,"instrument":1,"isDrum":true},{"pitch":51,"velocity":80,"startTime":4.9261,"endTime":4.9999915,"instrument":1,"isDrum":true},{"pitch":38,"velocity":80,"startTime":5.024622,"endTime":5.0738829999999995,"instrument":1,"isDrum":true},{"pitch":44,"velocity":80,"startTime":5.024622,"endTime":5.0738829999999995,"instrument":1,"isDrum":true},{"pitch":51,"velocity":80,"startTime":5.024622,"endTime":5.0738829999999995,"instrument":1,"isDrum":true},{"pitch":53,"velocity":80,"startTime":5.024622,"endTime":5.0738829999999995,"instrument":1,"isDrum":true},{"pitch":35,"velocity":80,"startTime":5.221666,"endTime":5.295557499999999,"instrument":1,"isDrum":true},{"pitch":51,"velocity":80,"startTime":5.221666,"endTime":5.295557499999999,"instrument":1,"isDrum":true},{"pitch":35,"velocity":80,"startTime":5.320188,"endTime":5.3694489999999995,"instrument":1,"isDrum":true},{"pitch":44,"velocity":80,"startTime":5.320188,"endTime":5.3694489999999995,"instrument":1,"isDrum":true},{"pitch":51,"velocity":80,"startTime":5.320188,"endTime":5.3694489999999995,"instrument":1,"isDrum":true},{"pitch":53,"velocity":80,"startTime":5.320188,"endTime":5.3694489999999995,"instrument":1,"isDrum":true},{"pitch":51,"velocity":80,"startTime":5.517232,"endTime":5.591123499999999,"instrument":1,"isDrum":true},{"pitch":38,"velocity":80,"startTime":5.615754,"endTime":5.6650149999999995,"instrument":1,"isDrum":true},{"pitch":44,"velocity":80,"startTime":5.615754,"endTime":5.6650149999999995,"instrument":1,"isDrum":true},{"pitch":51,"velocity":80,"startTime":5.615754,"endTime":5.6650149999999995,"instrument":1,"isDrum":true},{"pitch":53,"velocity":80,"startTime":5.615754,"endTime":5.6650149999999995,"instrument":1,"isDrum":true},{"pitch":54,"velocity":80,"startTime":5.615754,"endTime":5.6650149999999995,"instrument":1,"isDrum":true},{"pitch":51,"velocity":80,"startTime":5.812798,"endTime":5.886689499999999,"instrument":1,"isDrum":true},{"pitch":35,"velocity":80,"startTime":5.91132,"endTime":5.9605809999999995,"instrument":1,"isDrum":true},{"pitch":44,"velocity":80,"startTime":5.91132,"endTime":5.9605809999999995,"instrument":1,"isDrum":true},{"pitch":51,"velocity":80,"startTime":5.91132,"endTime":5.9605809999999995,"instrument":1,"isDrum":true},{"pitch":51,"velocity":80,"startTime":6.108364,"endTime":6.182255499999999,"instrument":1,"isDrum":true},{"pitch":38,"velocity":80,"startTime":6.206886,"endTime":6.2561469999999995,"instrument":1,"isDrum":true},{"pitch":44,"velocity":80,"startTime":6.206886,"endTime":6.2561469999999995,"instrument":1,"isDrum":true},{"pitch":51,"velocity":80,"startTime":6.206886,"endTime":6.2561469999999995,"instrument":1,"isDrum":true},{"pitch":53,"velocity":80,"startTime":6.206886,"endTime":6.2561469999999995,"instrument":1,"isDrum":true},{"pitch":54,"velocity":80,"startTime":6.206886,"endTime":6.2561469999999995,"instrument":1,"isDrum":true},{"pitch":51,"velocity":80,"startTime":6.40393,"endTime":6.477821499999999,"instrument":1,"isDrum":true},{"pitch":44,"velocity":80,"startTime":6.502452,"endTime":6.5517129999999995,"instrument":1,"isDrum":true},{"pitch":51,"velocity":80,"startTime":6.502452,"endTime":6.5517129999999995,"instrument":1,"isDrum":true},{"pitch":35,"velocity":80,"startTime":6.798018,"endTime":6.8472789999999994,"instrument":1,"isDrum":true},{"pitch":38,"velocity":80,"startTime":6.798018,"endTime":6.8472789999999994,"instrument":1,"isDrum":true},{"pitch":44,"velocity":80,"startTime":6.798018,"endTime":6.8472789999999994,"instrument":1,"isDrum":true},{"pitch":51,"velocity":80,"startTime":6.798018,"endTime":6.8472789999999994,"instrument":1,"isDrum":true},{"pitch":53,"velocity":80,"startTime":6.798018,"endTime":6.8472789999999994,"instrument":1,"isDrum":true},{"pitch":54,"velocity":80,"startTime":6.798018,"endTime":6.8472789999999994,"instrument":1,"isDrum":true},{"pitch":51,"velocity":80,"startTime":6.995062,"endTime":7.068953499999999,"instrument":1,"isDrum":true},{"pitch":35,"velocity":80,"startTime":7.093584,"endTime":7.1428449999999994,"instrument":1,"isDrum":true},{"pitch":44,"velocity":80,"startTime":7.093584,"endTime":7.1428449999999994,"instrument":1,"isDrum":true},{"pitch":51,"velocity":80,"startTime":7.093584,"endTime":7.1428449999999994,"instrument":1,"isDrum":true},{"pitch":53,"velocity":80,"startTime":7.093584,"endTime":7.1428449999999994,"instrument":1,"isDrum":true},{"pitch":38,"velocity":80,"startTime":7.38915,"endTime":7.438410999999999,"instrument":1,"isDrum":true},{"pitch":44,"velocity":80,"startTime":7.38915,"endTime":7.438410999999999,"instrument":1,"isDrum":true},{"pitch":51,"velocity":80,"startTime":7.38915,"endTime":7.438410999999999,"instrument":1,"isDrum":true},{"pitch":53,"velocity":80,"startTime":7.38915,"endTime":7.438410999999999,"instrument":1,"isDrum":true},{"pitch":54,"velocity":80,"startTime":7.38915,"endTime":7.438410999999999,"instrument":1,"isDrum":true},{"pitch":51,"velocity":80,"startTime":7.586194,"endTime":7.660085499999999,"instrument":1,"isDrum":true},{"pitch":44,"velocity":80,"startTime":7.684716,"endTime":7.733976999999999,"instrument":1,"isDrum":true},{"pitch":53,"velocity":80,"startTime":7.684716,"endTime":7.733976999999999,"instrument":1,"isDrum":true},{"pitch":35,"velocity":80,"startTime":7.88176,"endTime":7.955651499999999,"instrument":1,"isDrum":true},{"pitch":53,"velocity":80,"startTime":7.88176,"endTime":7.955651499999999,"instrument":1,"isDrum":true},{"pitch":51,"velocity":80,"startTime":7.980282,"endTime":8.029543,"instrument":1,"isDrum":true},{"pitch":35,"velocity":80,"startTime":8.177325999999999,"endTime":8.2512175,"instrument":1,"isDrum":true},{"pitch":44,"velocity":80,"startTime":8.177325999999999,"endTime":8.2512175,"instrument":1,"isDrum":true},{"pitch":35,"velocity":80,"startTime":8.275848,"endTime":8.325109,"instrument":1,"isDrum":true},{"pitch":44,"velocity":80,"startTime":8.275848,"endTime":8.325109,"instrument":1,"isDrum":true},{"pitch":51,"velocity":80,"startTime":8.275848,"endTime":8.325109,"instrument":1,"isDrum":true},{"pitch":53,"velocity":80,"startTime":8.275848,"endTime":8.325109,"instrument":1,"isDrum":true},{"pitch":51,"velocity":80,"startTime":8.472892,"endTime":8.5467835,"instrument":1,"isDrum":true},{"pitch":38,"velocity":80,"startTime":8.571413999999999,"endTime":8.620674999999999,"instrument":1,"isDrum":true},{"pitch":44,"velocity":80,"startTime":8.571413999999999,"endTime":8.620674999999999,"instrument":1,"isDrum":true},{"pitch":51,"velocity":80,"startTime":8.571413999999999,"endTime":8.620674999999999,"instrument":1,"isDrum":true},{"pitch":53,"velocity":80,"startTime":8.571413999999999,"endTime":8.620674999999999,"instrument":1,"isDrum":true},{"pitch":54,"velocity":80,"startTime":8.571413999999999,"endTime":8.620674999999999,"instrument":1,"isDrum":true},{"pitch":51,"velocity":80,"startTime":8.768457999999999,"endTime":8.8423495,"instrument":1,"isDrum":true},{"pitch":31,"velocity":103,"endTime":0.295566,"instrument":2,"program":32},{"pitch":33,"velocity":103,"startTime":0.295566,"endTime":0.591132,"instrument":2,"program":32},{"pitch":38,"velocity":103,"startTime":0.591132,"endTime":0.886698,"instrument":2,"program":32},{"pitch":38,"velocity":103,"startTime":0.886698,"endTime":1.1083725,"instrument":2,"program":32},{"pitch":26,"velocity":103,"startTime":1.1083725,"endTime":1.1576335,"instrument":2,"program":32},{"pitch":43,"velocity":103,"startTime":1.182264,"endTime":1.47783,"instrument":2,"program":32},{"pitch":50,"velocity":103,"startTime":1.47783,"endTime":1.773396,"instrument":2,"program":32},{"pitch":43,"velocity":103,"startTime":1.773396,"endTime":2.068962,"instrument":2,"program":32},{"pitch":38,"velocity":103,"startTime":2.068962,"endTime":2.3398974999999997,"instrument":2,"program":32},{"pitch":28,"velocity":103,"startTime":2.364528,"endTime":2.660094,"instrument":2,"program":32},{"pitch":28,"velocity":103,"startTime":2.660094,"endTime":2.95566,"instrument":2,"program":32},{"pitch":35,"velocity":103,"startTime":2.95566,"endTime":3.251226,"instrument":2,"program":32},{"pitch":28,"velocity":103,"startTime":3.251226,"endTime":3.4729004999999997,"instrument":2,"program":32},{"pitch":35,"velocity":103,"startTime":3.4729004999999997,"endTime":3.5221614999999997,"instrument":2,"program":32},{"pitch":28,"velocity":103,"startTime":3.546792,"endTime":3.842358,"instrument":2,"program":32},{"pitch":35,"velocity":103,"startTime":3.842358,"endTime":4.137924,"instrument":2,"program":32},{"pitch":35,"velocity":103,"startTime":4.137924,"endTime":4.43349,"instrument":2,"program":32},{"pitch":35,"velocity":103,"startTime":4.43349,"endTime":4.6551645,"instrument":2,"program":32},{"pitch":28,"velocity":103,"startTime":4.6551645,"endTime":4.704425499999999,"instrument":2,"program":32},{"pitch":36,"velocity":103,"startTime":4.729056,"endTime":5.024622,"instrument":2,"program":32},{"pitch":40,"velocity":103,"startTime":5.024622,"endTime":5.320188,"instrument":2,"program":32},{"pitch":40,"velocity":103,"startTime":5.320188,"endTime":5.615754,"instrument":2,"program":32},{"pitch":43,"velocity":103,"startTime":5.615754,"endTime":5.886689499999999,"instrument":2,"program":32},{"pitch":38,"velocity":103,"startTime":5.91132,"endTime":6.206886,"instrument":2,"program":32},{"pitch":45,"velocity":103,"startTime":6.206886,"endTime":6.502452,"instrument":2,"program":32},{"pitch":45,"velocity":103,"startTime":6.502452,"endTime":6.798018,"instrument":2,"program":32},{"pitch":45,"velocity":103,"startTime":6.798018,"endTime":7.093584,"instrument":2,"program":32},{"pitch":43,"velocity":103,"startTime":7.093584,"endTime":7.3152585,"instrument":2,"program":32},{"pitch":43,"velocity":103,"startTime":7.3152585,"endTime":7.38915,"instrument":2,"program":32},{"pitch":43,"velocity":103,"startTime":7.38915,"endTime":7.684716,"instrument":2,"program":32},{"pitch":38,"velocity":103,"startTime":7.684716,"endTime":7.980282,"instrument":2,"program":32},{"pitch":43,"velocity":103,"startTime":7.980282,"endTime":8.275848,"instrument":2,"program":32},{"pitch":43,"velocity":103,"startTime":8.275848,"endTime":8.620674999999999,"instrument":2,"program":32},{"pitch":38,"velocity":103,"startTime":8.571413999999999,"endTime":8.891610499999999,"instrument":2,"program":32},{"pitch":42,"velocity":103,"startTime":8.86698,"endTime":9.1871765,"instrument":2,"program":32},{"pitch":43,"velocity":103,"startTime":9.162545999999999,"endTime":9.458112,"instrument":2,"program":32},{"pitch":55,"velocity":57,"startTime":9.679786499999999,"endTime":9.753677999999999},{"pitch":62,"velocity":57,"startTime":9.679786499999999,"endTime":9.753677999999999},{"pitch":43,"velocity":57,"startTime":9.7783085,"endTime":9.8275695},{"pitch":62,"velocity":57,"startTime":9.7783085,"endTime":9.8522},{"pitch":55,"velocity":57,"startTime":10.344809999999999,"endTime":10.443332},{"pitch":62,"velocity":57,"startTime":10.344809999999999,"endTime":10.443332},{"pitch":59,"velocity":57,"startTime":10.3694405,"endTime":10.443332},{"pitch":57,"velocity":57,"startTime":10.862050499999999,"endTime":10.9113115},{"pitch":59,"velocity":57,"startTime":10.862050499999999,"endTime":10.886681},{"pitch":62,"velocity":57,"startTime":10.862050499999999,"endTime":10.886681},{"pitch":57,"velocity":57,"startTime":11.453182499999999,"endTime":11.5024435},{"pitch":59,"velocity":57,"startTime":11.5517045,"endTime":11.674857},{"pitch":62,"velocity":57,"startTime":11.5517045,"endTime":11.674857},{"pitch":52,"velocity":57,"startTime":12.044314499999999,"endTime":12.0935755},{"pitch":59,"velocity":57,"startTime":12.044314499999999,"endTime":12.0935755},{"pitch":66,"velocity":57,"startTime":12.044314499999999,"endTime":12.0935755},{"pitch":62,"velocity":57,"startTime":12.068945,"endTime":12.0935755},{"pitch":52,"velocity":57,"startTime":12.413772,"endTime":12.512293999999999},{"pitch":55,"velocity":57,"startTime":12.438402499999999,"endTime":12.512293999999999},{"pitch":59,"velocity":57,"startTime":12.438402499999999,"endTime":12.512293999999999},{"pitch":64,"velocity":57,"startTime":12.438402499999999,"endTime":12.512293999999999},{"pitch":40,"velocity":57,"startTime":13.226578499999999,"endTime":13.300469999999999},{"pitch":59,"velocity":57,"startTime":13.3251005,"endTime":13.398992},{"pitch":64,"velocity":57,"startTime":13.3251005,"endTime":13.423622499999999},{"pitch":59,"velocity":57,"startTime":13.891601999999999,"endTime":13.990124},{"pitch":64,"velocity":57,"startTime":13.891601999999999,"endTime":13.9654935},{"pitch":68,"velocity":57,"startTime":13.891601999999999,"endTime":13.9654935},{"pitch":59,"velocity":57,"startTime":14.482733999999999,"endTime":14.581255999999996},{"pitch":64,"velocity":57,"startTime":14.482733999999999,"endTime":14.6058865},{"pitch":67,"velocity":57,"startTime":14.482733999999999,"endTime":14.581255999999996},{"pitch":57,"velocity":57,"startTime":15.2955405,"endTime":15.443323499999998},{"pitch":64,"velocity":57,"startTime":15.2955405,"endTime":15.443323499999998},{"pitch":67,"velocity":57,"startTime":15.2955405,"endTime":15.443323499999998},{"pitch":72,"velocity":57,"startTime":15.2955405,"endTime":15.443323499999998},{"pitch":57,"velocity":57,"startTime":15.8866725,"endTime":15.911302999999997},{"pitch":64,"velocity":57,"startTime":15.8866725,"endTime":15.9359335},{"pitch":67,"velocity":57,"startTime":15.8866725,"endTime":15.9359335},{"pitch":55,"velocity":57,"startTime":17.9556345,"endTime":18.0048955},{"pitch":59,"velocity":57,"startTime":17.9556345,"endTime":17.980264999999996},{"pitch":62,"velocity":57,"startTime":17.9556345,"endTime":18.0048955},{"pitch":55,"velocity":57,"startTime":18.029525999999997,"endTime":18.1034175},{"pitch":62,"velocity":57,"startTime":18.029525999999997,"endTime":18.1034175},{"pitch":59,"velocity":57,"startTime":18.054156499999998,"endTime":18.1034175},{"pitch":35,"velocity":80,"startTime":9.458112,"endTime":9.4827425,"instrument":1,"isDrum":true},{"pitch":44,"velocity":80,"startTime":9.458112,"endTime":9.4827425,"instrument":1,"isDrum":true},{"pitch":51,"velocity":80,"startTime":9.458112,"endTime":9.4827425,"instrument":1,"isDrum":true},{"pitch":51,"velocity":80,"startTime":9.655155999999998,"endTime":9.704417000000001,"instrument":1,"isDrum":true},{"pitch":37,"velocity":80,"startTime":9.753677999999999,"endTime":9.7783085,"instrument":1,"isDrum":true},{"pitch":39,"velocity":80,"startTime":9.753677999999999,"endTime":9.7783085,"instrument":1,"isDrum":true},{"pitch":44,"velocity":80,"startTime":9.753677999999999,"endTime":9.7783085,"instrument":1,"isDrum":true},{"pitch":51,"velocity":80,"startTime":9.753677999999999,"endTime":9.7783085,"instrument":1,"isDrum":true},{"pitch":35,"velocity":80,"startTime":9.950721999999999,"endTime":9.999983,"instrument":1,"isDrum":true},{"pitch":44,"velocity":80,"startTime":10.049244,"endTime":10.0738745,"instrument":1,"isDrum":true},{"pitch":51,"velocity":80,"startTime":10.049244,"endTime":10.0738745,"instrument":1,"isDrum":true},{"pitch":35,"velocity":80,"startTime":10.246288,"endTime":10.295549,"instrument":1,"isDrum":true},{"pitch":51,"velocity":80,"startTime":10.246288,"endTime":10.295549,"instrument":1,"isDrum":true},{"pitch":35,"velocity":80,"startTime":10.344809999999999,"endTime":10.3694405,"instrument":1,"isDrum":true},{"pitch":44,"velocity":80,"startTime":10.344809999999999,"endTime":10.3694405,"instrument":1,"isDrum":true},{"pitch":51,"velocity":80,"startTime":10.344809999999999,"endTime":10.3694405,"instrument":1,"isDrum":true},{"pitch":35,"velocity":80,"startTime":10.541853999999999,"endTime":10.591114999999999,"instrument":1,"isDrum":true},{"pitch":51,"velocity":80,"startTime":10.541853999999999,"endTime":10.591114999999999,"instrument":1,"isDrum":true},{"pitch":35,"velocity":80,"startTime":10.640376,"endTime":10.665006499999999,"instrument":1,"isDrum":true},{"pitch":44,"velocity":80,"startTime":10.640376,"endTime":10.665006499999999,"instrument":1,"isDrum":true},{"pitch":51,"velocity":80,"startTime":10.640376,"endTime":10.665006499999999,"instrument":1,"isDrum":true},{"pitch":35,"velocity":80,"startTime":10.83742,"endTime":10.886681,"instrument":1,"isDrum":true},{"pitch":51,"velocity":80,"startTime":10.83742,"endTime":10.886681,"instrument":1,"isDrum":true},{"pitch":37,"velocity":80,"startTime":10.935941999999999,"endTime":10.9605725,"instrument":1,"isDrum":true},{"pitch":44,"velocity":80,"startTime":10.935941999999999,"endTime":10.9605725,"instrument":1,"isDrum":true},{"pitch":51,"velocity":80,"startTime":10.935941999999999,"endTime":10.9605725,"instrument":1,"isDrum":true},{"pitch":35,"velocity":80,"startTime":11.132985999999999,"endTime":11.182246999999998,"instrument":1,"isDrum":true},{"pitch":51,"velocity":80,"startTime":11.132985999999999,"endTime":11.182246999999998,"instrument":1,"isDrum":true},{"pitch":35,"velocity":80,"startTime":11.231508,"endTime":11.256138499999999,"instrument":1,"isDrum":true},{"pitch":44,"velocity":80,"startTime":11.231508,"endTime":11.256138499999999,"instrument":1,"isDrum":true},{"pitch":51,"velocity":80,"startTime":11.231508,"endTime":11.256138499999999,"instrument":1,"isDrum":true},{"pitch":53,"velocity":80,"startTime":11.428552,"endTime":11.477813,"instrument":1,"isDrum":true},{"pitch":37,"velocity":80,"startTime":11.527073999999999,"endTime":11.5517045,"instrument":1,"isDrum":true},{"pitch":44,"velocity":80,"startTime":11.527073999999999,"endTime":11.5517045,"instrument":1,"isDrum":true},{"pitch":51,"velocity":80,"startTime":11.527073999999999,"endTime":11.5517045,"instrument":1,"isDrum":true},{"pitch":35,"velocity":80,"startTime":11.724117999999999,"endTime":11.773378999999998,"instrument":1,"isDrum":true},{"pitch":51,"velocity":80,"startTime":11.724117999999999,"endTime":11.773378999999998,"instrument":1,"isDrum":true},{"pitch":35,"velocity":80,"startTime":11.82264,"endTime":11.847270499999999,"instrument":1,"isDrum":true},{"pitch":44,"velocity":80,"startTime":11.82264,"endTime":11.847270499999999,"instrument":1,"isDrum":true},{"pitch":51,"velocity":80,"startTime":11.82264,"endTime":11.847270499999999,"instrument":1,"isDrum":true},{"pitch":51,"velocity":80,"startTime":12.019684,"endTime":12.068945,"instrument":1,"isDrum":true},{"pitch":37,"velocity":80,"startTime":12.118205999999999,"endTime":12.1428365,"instrument":1,"isDrum":true},{"pitch":44,"velocity":80,"startTime":12.118205999999999,"endTime":12.1428365,"instrument":1,"isDrum":true},{"pitch":51,"velocity":80,"startTime":12.118205999999999,"endTime":12.1428365,"instrument":1,"isDrum":true},{"pitch":35,"velocity":80,"startTime":12.315249999999999,"endTime":12.364510999999998,"instrument":1,"isDrum":true},{"pitch":51,"velocity":80,"startTime":12.315249999999999,"endTime":12.364510999999998,"instrument":1,"isDrum":true},{"pitch":35,"velocity":80,"startTime":12.413772,"endTime":12.438402499999999,"instrument":1,"isDrum":true},{"pitch":44,"velocity":80,"startTime":12.413772,"endTime":12.438402499999999,"instrument":1,"isDrum":true},{"pitch":51,"velocity":80,"startTime":12.413772,"endTime":12.438402499999999,"instrument":1,"isDrum":true},{"pitch":53,"velocity":80,"startTime":12.610816,"endTime":12.660077,"instrument":1,"isDrum":true},{"pitch":37,"velocity":80,"startTime":12.709337999999999,"endTime":12.7339685,"instrument":1,"isDrum":true},{"pitch":44,"velocity":80,"startTime":12.709337999999999,"endTime":12.7339685,"instrument":1,"isDrum":true},{"pitch":51,"velocity":80,"startTime":12.709337999999999,"endTime":12.7339685,"instrument":1,"isDrum":true},{"pitch":35,"velocity":80,"startTime":12.906381999999999,"endTime":12.955642999999998,"instrument":1,"isDrum":true},{"pitch":51,"velocity":80,"startTime":12.906381999999999,"endTime":12.955642999999998,"instrument":1,"isDrum":true},{"pitch":35,"velocity":80,"startTime":13.004904,"endTime":13.029534499999999,"instrument":1,"isDrum":true},{"pitch":44,"velocity":80,"startTime":13.004904,"endTime":13.029534499999999,"instrument":1,"isDrum":true},{"pitch":51,"velocity":80,"startTime":13.004904,"endTime":13.029534499999999,"instrument":1,"isDrum":true},{"pitch":51,"velocity":80,"startTime":13.201948,"endTime":13.251209,"instrument":1,"isDrum":true},{"pitch":37,"velocity":80,"startTime":13.300469999999999,"endTime":13.3251005,"instrument":1,"isDrum":true},{"pitch":44,"velocity":80,"startTime":13.300469999999999,"endTime":13.3251005,"instrument":1,"isDrum":true},{"pitch":51,"velocity":80,"startTime":13.300469999999999,"endTime":13.3251005,"instrument":1,"isDrum":true},{"pitch":35,"velocity":80,"startTime":13.497513999999999,"endTime":13.546774999999998,"instrument":1,"isDrum":true},{"pitch":51,"velocity":80,"startTime":13.497513999999999,"endTime":13.546774999999998,"instrument":1,"isDrum":true},{"pitch":35,"velocity":80,"startTime":13.596036,"endTime":13.620666499999999,"instrument":1,"isDrum":true},{"pitch":44,"velocity":80,"startTime":13.596036,"endTime":13.620666499999999,"instrument":1,"isDrum":true},{"pitch":51,"velocity":80,"startTime":13.596036,"endTime":13.620666499999999,"instrument":1,"isDrum":true},{"pitch":51,"velocity":80,"startTime":13.79308,"endTime":13.842341,"instrument":1,"isDrum":true},{"pitch":37,"velocity":80,"startTime":13.891601999999999,"endTime":13.9162325,"instrument":1,"isDrum":true},{"pitch":44,"velocity":80,"startTime":13.891601999999999,"endTime":13.9162325,"instrument":1,"isDrum":true},{"pitch":51,"velocity":80,"startTime":13.891601999999999,"endTime":13.9162325,"instrument":1,"isDrum":true},{"pitch":35,"velocity":80,"startTime":14.088645999999999,"endTime":14.137906999999998,"instrument":1,"isDrum":true},{"pitch":51,"velocity":80,"startTime":14.088645999999999,"endTime":14.137906999999998,"instrument":1,"isDrum":true},{"pitch":35,"velocity":80,"startTime":14.187168,"endTime":14.211798499999997,"instrument":1,"isDrum":true},{"pitch":44,"velocity":80,"startTime":14.187168,"endTime":14.211798499999997,"instrument":1,"isDrum":true},{"pitch":51,"velocity":80,"startTime":14.187168,"endTime":14.211798499999997,"instrument":1,"isDrum":true},{"pitch":51,"velocity":80,"startTime":14.384212000000002,"endTime":14.433472999999998,"instrument":1,"isDrum":true},{"pitch":37,"velocity":80,"startTime":14.482733999999999,"endTime":14.507364499999996,"instrument":1,"isDrum":true},{"pitch":44,"velocity":80,"startTime":14.482733999999999,"endTime":14.507364499999996,"instrument":1,"isDrum":true},{"pitch":51,"velocity":80,"startTime":14.482733999999999,"endTime":14.507364499999996,"instrument":1,"isDrum":true},{"pitch":35,"velocity":80,"startTime":14.679778,"endTime":14.729038999999997,"instrument":1,"isDrum":true},{"pitch":51,"velocity":80,"startTime":14.679778,"endTime":14.729038999999997,"instrument":1,"isDrum":true},{"pitch":35,"velocity":80,"startTime":14.7783,"endTime":14.802930499999997,"instrument":1,"isDrum":true},{"pitch":44,"velocity":80,"startTime":14.7783,"endTime":14.802930499999997,"instrument":1,"isDrum":true},{"pitch":51,"velocity":80,"startTime":14.7783,"endTime":14.802930499999997,"instrument":1,"isDrum":true},{"pitch":35,"velocity":80,"startTime":14.975344000000002,"endTime":15.024604999999998,"instrument":1,"isDrum":true},{"pitch":51,"velocity":80,"startTime":14.975344000000002,"endTime":15.024604999999998,"instrument":1,"isDrum":true},{"pitch":37,"velocity":80,"startTime":15.073865999999999,"endTime":15.098496499999996,"instrument":1,"isDrum":true},{"pitch":44,"velocity":80,"startTime":15.073865999999999,"endTime":15.098496499999996,"instrument":1,"isDrum":true},{"pitch":51,"velocity":80,"startTime":15.073865999999999,"endTime":15.098496499999996,"instrument":1,"isDrum":true},{"pitch":35,"velocity":80,"startTime":15.27091,"endTime":15.320170999999997,"instrument":1,"isDrum":true},{"pitch":51,"velocity":80,"startTime":15.27091,"endTime":15.320170999999997,"instrument":1,"isDrum":true},{"pitch":35,"velocity":80,"startTime":15.369432,"endTime":15.394062499999997,"instrument":1,"isDrum":true},{"pitch":44,"velocity":80,"startTime":15.369432,"endTime":15.394062499999997,"instrument":1,"isDrum":true},{"pitch":51,"velocity":80,"startTime":15.369432,"endTime":15.394062499999997,"instrument":1,"isDrum":true},{"pitch":53,"velocity":80,"startTime":15.566476000000002,"endTime":15.615736999999998,"instrument":1,"isDrum":true},{"pitch":37,"velocity":80,"startTime":15.664997999999999,"endTime":15.689628499999996,"instrument":1,"isDrum":true},{"pitch":44,"velocity":80,"startTime":15.664997999999999,"endTime":15.689628499999996,"instrument":1,"isDrum":true},{"pitch":51,"velocity":80,"startTime":15.664997999999999,"endTime":15.689628499999996,"instrument":1,"isDrum":true},{"pitch":35,"velocity":80,"startTime":15.862042,"endTime":15.911302999999997,"instrument":1,"isDrum":true},{"pitch":51,"velocity":80,"startTime":15.862042,"endTime":15.911302999999997,"instrument":1,"isDrum":true},{"pitch":35,"velocity":80,"startTime":15.960564,"endTime":15.985194499999997,"instrument":1,"isDrum":true},{"pitch":44,"velocity":80,"startTime":15.960564,"endTime":15.985194499999997,"instrument":1,"isDrum":true},{"pitch":51,"velocity":80,"startTime":15.960564,"endTime":15.985194499999997,"instrument":1,"isDrum":true},{"pitch":51,"velocity":80,"startTime":16.157608,"endTime":16.206868999999998,"instrument":1,"isDrum":true},{"pitch":37,"velocity":80,"startTime":16.25613,"endTime":16.280760499999996,"instrument":1,"isDrum":true},{"pitch":44,"velocity":80,"startTime":16.25613,"endTime":16.280760499999996,"instrument":1,"isDrum":true},{"pitch":51,"velocity":80,"startTime":16.25613,"endTime":16.280760499999996,"instrument":1,"isDrum":true},{"pitch":35,"velocity":80,"startTime":16.453174,"endTime":16.502434999999995,"instrument":1,"isDrum":true},{"pitch":51,"velocity":80,"startTime":16.453174,"endTime":16.502434999999995,"instrument":1,"isDrum":true},{"pitch":35,"velocity":80,"startTime":16.551696,"endTime":16.576326499999997,"instrument":1,"isDrum":true},{"pitch":44,"velocity":80,"startTime":16.551696,"endTime":16.576326499999997,"instrument":1,"isDrum":true},{"pitch":51,"velocity":80,"startTime":16.551696,"endTime":16.576326499999997,"instrument":1,"isDrum":true},{"pitch":51,"velocity":80,"startTime":16.74874,"endTime":16.798000999999996,"instrument":1,"isDrum":true},{"pitch":37,"velocity":80,"startTime":16.847261999999997,"endTime":16.871892499999998,"instrument":1,"isDrum":true},{"pitch":44,"velocity":80,"startTime":16.847261999999997,"endTime":16.871892499999998,"instrument":1,"isDrum":true},{"pitch":51,"velocity":80,"startTime":16.847261999999997,"endTime":16.871892499999998,"instrument":1,"isDrum":true},{"pitch":35,"velocity":80,"startTime":17.044306000000002,"endTime":17.093566999999997,"instrument":1,"isDrum":true},{"pitch":51,"velocity":80,"startTime":17.044306000000002,"endTime":17.093566999999997,"instrument":1,"isDrum":true},{"pitch":35,"velocity":80,"startTime":17.142827999999998,"endTime":17.167458499999995,"instrument":1,"isDrum":true},{"pitch":44,"velocity":80,"startTime":17.142827999999998,"endTime":17.167458499999995,"instrument":1,"isDrum":true},{"pitch":51,"velocity":80,"startTime":17.142827999999998,"endTime":17.167458499999995,"instrument":1,"isDrum":true},{"pitch":51,"velocity":80,"startTime":17.339872,"endTime":17.389132999999998,"instrument":1,"isDrum":true},{"pitch":37,"velocity":80,"startTime":17.438394,"endTime":17.463024499999996,"instrument":1,"isDrum":true},{"pitch":44,"velocity":80,"startTime":17.438394,"endTime":17.463024499999996,"instrument":1,"isDrum":true},{"pitch":51,"velocity":80,"startTime":17.438394,"endTime":17.463024499999996,"instrument":1,"isDrum":true},{"pitch":35,"velocity":80,"startTime":17.635438,"endTime":17.684698999999995,"instrument":1,"isDrum":true},{"pitch":51,"velocity":80,"startTime":17.635438,"endTime":17.684698999999995,"instrument":1,"isDrum":true},{"pitch":43,"velocity":103,"startTime":9.458112,"endTime":9.679786499999999,"instrument":2,"program":32},{"pitch":31,"velocity":103,"startTime":9.679786499999999,"endTime":9.753677999999999,"instrument":2,"program":32},{"pitch":38,"velocity":103,"startTime":9.753677999999999,"endTime":10.049244,"instrument":2,"program":32},{"pitch":43,"velocity":103,"startTime":10.049244,"endTime":10.246288,"instrument":2,"program":32},{"pitch":38,"velocity":103,"startTime":10.270918499999999,"endTime":10.344809999999999,"instrument":2,"program":32},{"pitch":43,"velocity":103,"startTime":10.344809999999999,"endTime":10.5664845,"instrument":2,"program":32},{"pitch":43,"velocity":103,"startTime":10.640376,"endTime":10.862050499999999,"instrument":2,"program":32},{"pitch":35,"velocity":103,"startTime":10.862050499999999,"endTime":10.935941999999999,"instrument":2,"program":32},{"pitch":38,"velocity":103,"startTime":10.935941999999999,"endTime":11.1576165,"instrument":2,"program":32},{"pitch":37,"velocity":103,"startTime":11.1576165,"endTime":11.231508,"instrument":2,"program":32},{"pitch":38,"velocity":103,"startTime":11.231508,"endTime":11.527073999999999,"instrument":2,"program":32},{"pitch":39,"velocity":103,"startTime":11.527073999999999,"endTime":11.82264,"instrument":2,"program":32},{"pitch":40,"velocity":103,"startTime":11.82264,"endTime":12.044314499999999,"instrument":2,"program":32},{"pitch":28,"velocity":103,"startTime":12.044314499999999,"endTime":12.118205999999999,"instrument":2,"program":32},{"pitch":40,"velocity":103,"startTime":12.118205999999999,"endTime":12.413772,"instrument":2,"program":32},{"pitch":40,"velocity":103,"startTime":12.413772,"endTime":12.709337999999999,"instrument":2,"program":32},{"pitch":35,"velocity":103,"startTime":12.709337999999999,"endTime":12.9310125,"instrument":2,"program":32},{"pitch":28,"velocity":103,"startTime":12.9310125,"endTime":13.004904,"instrument":2,"program":32},{"pitch":40,"velocity":103,"startTime":13.004904,"endTime":13.226578499999999,"instrument":2,"program":32},{"pitch":35,"velocity":103,"startTime":13.226578499999999,"endTime":13.300469999999999,"instrument":2,"program":32},{"pitch":37,"velocity":103,"startTime":13.300469999999999,"endTime":13.596036,"instrument":2,"program":32},{"pitch":30,"velocity":103,"startTime":13.596036,"endTime":13.79308,"instrument":2,"program":32},{"pitch":30,"velocity":103,"startTime":13.817710499999999,"endTime":13.891601999999999,"instrument":2,"program":32},{"pitch":35,"velocity":103,"startTime":13.891601999999999,"endTime":14.1132765,"instrument":2,"program":32},{"pitch":30,"velocity":103,"startTime":14.1132765,"endTime":14.187168,"instrument":2,"program":32},{"pitch":36,"velocity":103,"startTime":14.187168,"endTime":14.408842499999999,"instrument":2,"program":32},{"pitch":24,"velocity":103,"startTime":14.408842499999999,"endTime":14.482733999999999,"instrument":2,"program":32},{"pitch":40,"velocity":103,"startTime":14.482733999999999,"endTime":14.7783,"instrument":2,"program":32},{"pitch":36,"velocity":103,"startTime":14.7783,"endTime":15.073865999999999,"instrument":2,"program":32},{"pitch":28,"velocity":103,"startTime":15.073865999999999,"endTime":15.369432,"instrument":2,"program":32},{"pitch":38,"velocity":103,"startTime":15.369432,"endTime":15.714259000000002,"instrument":2,"program":32},{"pitch":45,"velocity":103,"startTime":15.664997999999999,"endTime":16.25613,"instrument":2,"program":32},{"pitch":45,"velocity":103,"startTime":15.960564,"endTime":15.985194499999997,"instrument":2,"program":32},{"pitch":38,"velocity":103,"startTime":16.25613,"endTime":16.551696,"instrument":2,"program":32},{"pitch":43,"velocity":103,"startTime":16.551696,"endTime":16.7733705,"instrument":2,"program":32},{"pitch":31,"velocity":103,"startTime":16.7733705,"endTime":16.847261999999997,"instrument":2,"program":32},{"pitch":43,"velocity":103,"startTime":16.847261999999997,"endTime":17.142827999999998,"instrument":2,"program":32},{"pitch":38,"velocity":103,"startTime":17.142827999999998,"endTime":17.438394,"instrument":2,"program":32},{"pitch":31,"velocity":103,"startTime":17.438394,"endTime":17.73396,"instrument":2,"program":32},{"pitch":43,"velocity":103,"startTime":17.73396,"endTime":17.9556345,"instrument":2,"program":32},{"pitch":31,"velocity":103,"startTime":17.9556345,"endTime":18.029525999999997,"instrument":2,"program":32},{"pitch":38,"velocity":103,"startTime":18.029525999999997,"endTime":18.325091999999998,"instrument":2,"program":32},{"pitch":43,"velocity":103,"startTime":18.325091999999998,"endTime":18.620658,"instrument":2,"program":32},{"pitch":43,"velocity":103,"startTime":18.620658,"endTime":18.916224,"instrument":2,"program":32},{"pitch":43,"velocity":57,"startTime":18.940854499999997,"endTime":18.965485},{"pitch":57,"velocity":57,"startTime":18.940854499999997,"endTime":18.965485},{"pitch":59,"velocity":57,"startTime":18.940854499999997,"endTime":18.965485},{"pitch":62,"velocity":57,"startTime":18.940854499999997,"endTime":18.965485},{"pitch":65,"velocity":57,"startTime":18.940854499999997,"endTime":18.990115499999998},{"pitch":43,"velocity":57,"startTime":20.098488,"endTime":20.19701},{"pitch":59,"velocity":57,"startTime":20.098488,"endTime":20.2216405},{"pitch":62,"velocity":57,"startTime":20.098488,"endTime":20.2216405},{"pitch":43,"velocity":57,"startTime":20.6157285,"endTime":20.689619999999998},{"pitch":59,"velocity":57,"startTime":20.6157285,"endTime":20.7142505},{"pitch":59,"velocity":57,"startTime":20.6157285,"endTime":20.689619999999998},{"pitch":62,"velocity":57,"startTime":20.6157285,"endTime":20.689619999999998},{"pitch":69,"velocity":57,"startTime":20.6157285,"endTime":20.7142505},{"pitch":40,"velocity":57,"startTime":21.280752,"endTime":21.354643499999998},{"pitch":52,"velocity":57,"startTime":21.280752,"endTime":21.354643499999998},{"pitch":56,"velocity":57,"startTime":21.280752,"endTime":21.354643499999998},{"pitch":59,"velocity":57,"startTime":21.280752,"endTime":21.379274},{"pitch":62,"velocity":57,"startTime":21.280752,"endTime":21.379274},{"pitch":40,"velocity":57,"startTime":21.871883999999998,"endTime":21.995036499999998},{"pitch":52,"velocity":57,"startTime":22.16745,"endTime":22.241341499999997},{"pitch":57,"velocity":57,"startTime":22.16745,"endTime":22.241341499999997},{"pitch":59,"velocity":57,"startTime":22.16745,"endTime":22.241341499999997},{"pitch":62,"velocity":57,"startTime":22.16745,"endTime":22.241341499999997},{"pitch":52,"velocity":57,"startTime":22.463016,"endTime":22.5861685},{"pitch":57,"velocity":57,"startTime":22.463016,"endTime":22.5861685},{"pitch":59,"velocity":57,"startTime":22.463016,"endTime":22.5861685},{"pitch":62,"velocity":57,"startTime":22.463016,"endTime":22.5861685},{"pitch":52,"velocity":57,"startTime":22.709321,"endTime":22.758581999999997},{"pitch":57,"velocity":57,"startTime":22.709321,"endTime":22.758581999999997},{"pitch":59,"velocity":57,"startTime":22.709321,"endTime":22.758581999999997},{"pitch":62,"velocity":57,"startTime":22.709321,"endTime":22.758581999999997},{"pitch":48,"velocity":57,"startTime":23.64528,"endTime":23.743802},{"pitch":60,"velocity":57,"startTime":23.64528,"endTime":23.743802},{"pitch":55,"velocity":57,"startTime":23.669910499999997,"endTime":23.743802},{"pitch":62,"velocity":57,"startTime":23.669910499999997,"endTime":23.7684325},{"pitch":38,"velocity":57,"startTime":24.827544,"endTime":24.9506965},{"pitch":57,"velocity":57,"startTime":24.827544,"endTime":24.926066},{"pitch":62,"velocity":57,"startTime":24.827544,"endTime":24.9506965},{"pitch":60,"velocity":57,"startTime":24.852174499999997,"endTime":24.9506965},{"pitch":50,"velocity":57,"startTime":25.147740499999998,"endTime":25.221632},{"pitch":57,"velocity":57,"startTime":25.147740499999998,"endTime":25.1970015},{"pitch":60,"velocity":57,"startTime":25.147740499999998,"endTime":25.1970015},{"pitch":64,"velocity":57,"startTime":25.147740499999998,"endTime":25.221632},{"pitch":43,"velocity":57,"startTime":26.2314825,"endTime":26.305373999999997},{"pitch":59,"velocity":57,"startTime":26.2314825,"endTime":26.2807435},{"pitch":62,"velocity":57,"startTime":26.2314825,"endTime":26.305373999999997},{"pitch":43,"velocity":57,"startTime":26.896506,"endTime":26.970397499999997},{"pitch":59,"velocity":57,"startTime":26.896506,"endTime":26.970397499999997},{"pitch":62,"velocity":57,"startTime":26.9211365,"endTime":26.970397499999997},{"pitch":65,"velocity":57,"startTime":26.9211365,"endTime":26.995027999999998},{"pitch":43,"velocity":57,"startTime":27.118180499999998,"endTime":27.192072},{"pitch":59,"velocity":57,"startTime":27.118180499999998,"endTime":27.3152245},{"pitch":62,"velocity":57,"startTime":27.118180499999998,"endTime":27.3152245},{"pitch":65,"velocity":57,"startTime":27.118180499999998,"endTime":27.3152245},{"pitch":67,"velocity":57,"startTime":27.118180499999998,"endTime":27.3152245},{"pitch":43,"velocity":57,"startTime":27.783203999999998,"endTime":27.881725999999997},{"pitch":59,"velocity":57,"startTime":27.783203999999998,"endTime":27.881725999999997},{"pitch":62,"velocity":57,"startTime":27.783203999999998,"endTime":27.906356499999998},{"pitch":55,"velocity":57,"startTime":27.8078345,"endTime":27.881725999999997},{"pitch":35,"velocity":80,"startTime":18.916224,"endTime":18.940854499999997,"instrument":1,"isDrum":true},{"pitch":44,"velocity":80,"startTime":18.916224,"endTime":18.940854499999997,"instrument":1,"isDrum":true},{"pitch":53,"velocity":80,"startTime":18.916224,"endTime":18.940854499999997,"instrument":1,"isDrum":true},{"pitch":51,"velocity":80,"startTime":19.113268,"endTime":19.1378985,"instrument":1,"isDrum":true},{"pitch":35,"velocity":80,"startTime":19.211789999999997,"endTime":19.236420499999998,"instrument":1,"isDrum":true},{"pitch":37,"velocity":80,"startTime":19.211789999999997,"endTime":19.236420499999998,"instrument":1,"isDrum":true},{"pitch":44,"velocity":80,"startTime":19.211789999999997,"endTime":19.236420499999998,"instrument":1,"isDrum":true},{"pitch":53,"velocity":80,"startTime":19.211789999999997,"endTime":19.236420499999998,"instrument":1,"isDrum":true},{"pitch":35,"velocity":80,"startTime":19.507355999999998,"endTime":19.531986499999995,"instrument":1,"isDrum":true},{"pitch":44,"velocity":80,"startTime":19.507355999999998,"endTime":19.531986499999995,"instrument":1,"isDrum":true},{"pitch":51,"velocity":80,"startTime":19.507355999999998,"endTime":19.531986499999995,"instrument":1,"isDrum":true},{"pitch":53,"velocity":80,"startTime":19.7044,"endTime":19.7290305,"instrument":1,"isDrum":true},{"pitch":35,"velocity":80,"startTime":19.802922,"endTime":19.827552499999996,"instrument":1,"isDrum":true},{"pitch":37,"velocity":80,"startTime":19.802922,"endTime":19.827552499999996,"instrument":1,"isDrum":true},{"pitch":44,"velocity":80,"startTime":19.802922,"endTime":19.827552499999996,"instrument":1,"isDrum":true},{"pitch":51,"velocity":80,"startTime":19.802922,"endTime":19.827552499999996,"instrument":1,"isDrum":true},{"pitch":51,"velocity":80,"startTime":19.999966,"endTime":20.024596499999998,"instrument":1,"isDrum":true},{"pitch":35,"velocity":80,"startTime":20.098488,"endTime":20.123118499999997,"instrument":1,"isDrum":true},{"pitch":44,"velocity":80,"startTime":20.098488,"endTime":20.123118499999997,"instrument":1,"isDrum":true},{"pitch":51,"velocity":80,"startTime":20.098488,"endTime":20.123118499999997,"instrument":1,"isDrum":true},{"pitch":35,"velocity":80,"startTime":20.394053999999997,"endTime":20.418684499999998,"instrument":1,"isDrum":true},{"pitch":37,"velocity":80,"startTime":20.394053999999997,"endTime":20.418684499999998,"instrument":1,"isDrum":true},{"pitch":38,"velocity":80,"startTime":20.394053999999997,"endTime":20.418684499999998,"instrument":1,"isDrum":true},{"pitch":44,"velocity":80,"startTime":20.394053999999997,"endTime":20.418684499999998,"instrument":1,"isDrum":true},{"pitch":51,"velocity":80,"startTime":20.394053999999997,"endTime":20.418684499999998,"instrument":1,"isDrum":true},{"pitch":35,"velocity":80,"startTime":20.689619999999998,"endTime":20.7142505,"instrument":1,"isDrum":true},{"pitch":44,"velocity":80,"startTime":20.689619999999998,"endTime":20.7142505,"instrument":1,"isDrum":true},{"pitch":51,"velocity":80,"startTime":20.689619999999998,"endTime":20.7142505,"instrument":1,"isDrum":true},{"pitch":51,"velocity":80,"startTime":20.886664,"endTime":20.911294499999997,"instrument":1,"isDrum":true},{"pitch":35,"velocity":80,"startTime":20.985186,"endTime":21.0098165,"instrument":1,"isDrum":true},{"pitch":37,"velocity":80,"startTime":20.985186,"endTime":21.0098165,"instrument":1,"isDrum":true},{"pitch":44,"velocity":80,"startTime":20.985186,"endTime":21.0098165,"instrument":1,"isDrum":true},{"pitch":51,"velocity":80,"startTime":20.985186,"endTime":21.0098165,"instrument":1,"isDrum":true},{"pitch":53,"velocity":80,"startTime":21.182229999999997,"endTime":21.280752,"instrument":1,"isDrum":true},{"pitch":44,"velocity":80,"startTime":21.280752,"endTime":21.305382499999997,"instrument":1,"isDrum":true},{"pitch":51,"velocity":80,"startTime":21.280752,"endTime":21.305382499999997,"instrument":1,"isDrum":true},{"pitch":35,"velocity":80,"startTime":21.477795999999998,"endTime":21.5024265,"instrument":1,"isDrum":true},{"pitch":51,"velocity":80,"startTime":21.477795999999998,"endTime":21.5024265,"instrument":1,"isDrum":true},{"pitch":35,"velocity":80,"startTime":21.576317999999997,"endTime":21.600948499999998,"instrument":1,"isDrum":true},{"pitch":37,"velocity":80,"startTime":21.576317999999997,"endTime":21.600948499999998,"instrument":1,"isDrum":true},{"pitch":38,"velocity":80,"startTime":21.576317999999997,"endTime":21.600948499999998,"instrument":1,"isDrum":true},{"pitch":44,"velocity":80,"startTime":21.576317999999997,"endTime":21.600948499999998,"instrument":1,"isDrum":true},{"pitch":51,"velocity":80,"startTime":21.576317999999997,"endTime":21.600948499999998,"instrument":1,"isDrum":true},{"pitch":53,"velocity":80,"startTime":21.576317999999997,"endTime":21.600948499999998,"instrument":1,"isDrum":true},{"pitch":51,"velocity":80,"startTime":21.773362,"endTime":21.7979925,"instrument":1,"isDrum":true},{"pitch":35,"velocity":80,"startTime":21.871883999999998,"endTime":21.8965145,"instrument":1,"isDrum":true},{"pitch":44,"velocity":80,"startTime":21.871883999999998,"endTime":21.8965145,"instrument":1,"isDrum":true},{"pitch":51,"velocity":80,"startTime":21.871883999999998,"endTime":21.8965145,"instrument":1,"isDrum":true},{"pitch":53,"velocity":80,"startTime":22.068928,"endTime":22.093558499999997,"instrument":1,"isDrum":true},{"pitch":35,"velocity":80,"startTime":22.16745,"endTime":22.1920805,"instrument":1,"isDrum":true},{"pitch":37,"velocity":80,"startTime":22.16745,"endTime":22.1920805,"instrument":1,"isDrum":true},{"pitch":44,"velocity":80,"startTime":22.16745,"endTime":22.1920805,"instrument":1,"isDrum":true},{"pitch":51,"velocity":80,"startTime":22.16745,"endTime":22.1920805,"instrument":1,"isDrum":true},{"pitch":51,"velocity":80,"startTime":22.364493999999997,"endTime":22.463016,"instrument":1,"isDrum":true},{"pitch":35,"velocity":80,"startTime":22.463016,"endTime":22.487646499999997,"instrument":1,"isDrum":true},{"pitch":44,"velocity":80,"startTime":22.463016,"endTime":22.487646499999997,"instrument":1,"isDrum":true},{"pitch":51,"velocity":80,"startTime":22.463016,"endTime":22.487646499999997,"instrument":1,"isDrum":true},{"pitch":35,"velocity":80,"startTime":22.660059999999998,"endTime":22.6846905,"instrument":1,"isDrum":true},{"pitch":51,"velocity":80,"startTime":22.660059999999998,"endTime":22.6846905,"instrument":1,"isDrum":true},{"pitch":35,"velocity":80,"startTime":22.758581999999997,"endTime":22.783212499999998,"instrument":1,"isDrum":true},{"pitch":37,"velocity":80,"startTime":22.758581999999997,"endTime":22.783212499999998,"instrument":1,"isDrum":true},{"pitch":44,"velocity":80,"startTime":22.758581999999997,"endTime":22.783212499999998,"instrument":1,"isDrum":true},{"pitch":51,"velocity":80,"startTime":22.758581999999997,"endTime":22.783212499999998,"instrument":1,"isDrum":true},{"pitch":51,"velocity":80,"startTime":22.955626,"endTime":23.054147999999998,"instrument":1,"isDrum":true},{"pitch":35,"velocity":80,"startTime":23.054147999999998,"endTime":23.0787785,"instrument":1,"isDrum":true},{"pitch":44,"velocity":80,"startTime":23.054147999999998,"endTime":23.0787785,"instrument":1,"isDrum":true},{"pitch":51,"velocity":80,"startTime":23.054147999999998,"endTime":23.0787785,"instrument":1,"isDrum":true},{"pitch":35,"velocity":80,"startTime":23.251192,"endTime":23.275822499999997,"instrument":1,"isDrum":true},{"pitch":51,"velocity":80,"startTime":23.251192,"endTime":23.275822499999997,"instrument":1,"isDrum":true},{"pitch":35,"velocity":80,"startTime":23.349714,"endTime":23.3743445,"instrument":1,"isDrum":true},{"pitch":37,"velocity":80,"startTime":23.349714,"endTime":23.3743445,"instrument":1,"isDrum":true},{"pitch":38,"velocity":80,"startTime":23.349714,"endTime":23.3743445,"instrument":1,"isDrum":true},{"pitch":44,"velocity":80,"startTime":23.349714,"endTime":23.3743445,"instrument":1,"isDrum":true},{"pitch":51,"velocity":80,"startTime":23.349714,"endTime":23.3743445,"instrument":1,"isDrum":true},{"pitch":53,"velocity":80,"startTime":23.349714,"endTime":23.3743445,"instrument":1,"isDrum":true},{"pitch":51,"velocity":80,"startTime":23.546757999999997,"endTime":23.571388499999998,"instrument":1,"isDrum":true},{"pitch":35,"velocity":80,"startTime":23.64528,"endTime":23.669910499999997,"instrument":1,"isDrum":true},{"pitch":44,"velocity":80,"startTime":23.64528,"endTime":23.669910499999997,"instrument":1,"isDrum":true},{"pitch":51,"velocity":80,"startTime":23.64528,"endTime":23.669910499999997,"instrument":1,"isDrum":true},{"pitch":35,"velocity":80,"startTime":23.842323999999998,"endTime":23.8669545,"instrument":1,"isDrum":true},{"pitch":53,"velocity":80,"startTime":23.842323999999998,"endTime":23.8669545,"instrument":1,"isDrum":true},{"pitch":35,"velocity":80,"startTime":23.940845999999997,"endTime":23.965476499999998,"instrument":1,"isDrum":true},{"pitch":37,"velocity":80,"startTime":23.940845999999997,"endTime":23.965476499999998,"instrument":1,"isDrum":true},{"pitch":38,"velocity":80,"startTime":23.940845999999997,"endTime":23.965476499999998,"instrument":1,"isDrum":true},{"pitch":44,"velocity":80,"startTime":23.940845999999997,"endTime":23.965476499999998,"instrument":1,"isDrum":true},{"pitch":51,"velocity":80,"startTime":23.940845999999997,"endTime":23.965476499999998,"instrument":1,"isDrum":true},{"pitch":51,"velocity":80,"startTime":24.13789,"endTime":24.1625205,"instrument":1,"isDrum":true},{"pitch":35,"velocity":80,"startTime":24.236411999999998,"endTime":24.2610425,"instrument":1,"isDrum":true},{"pitch":44,"velocity":80,"startTime":24.236411999999998,"endTime":24.2610425,"instrument":1,"isDrum":true},{"pitch":51,"velocity":80,"startTime":24.236411999999998,"endTime":24.2610425,"instrument":1,"isDrum":true},{"pitch":35,"velocity":80,"startTime":24.433456,"endTime":24.458086499999997,"instrument":1,"isDrum":true},{"pitch":51,"velocity":80,"startTime":24.433456,"endTime":24.458086499999997,"instrument":1,"isDrum":true},{"pitch":35,"velocity":80,"startTime":24.531978,"endTime":24.5566085,"instrument":1,"isDrum":true},{"pitch":37,"velocity":80,"startTime":24.531978,"endTime":24.5566085,"instrument":1,"isDrum":true},{"pitch":38,"velocity":80,"startTime":24.531978,"endTime":24.5566085,"instrument":1,"isDrum":true},{"pitch":44,"velocity":80,"startTime":24.531978,"endTime":24.5566085,"instrument":1,"isDrum":true},{"pitch":51,"velocity":80,"startTime":24.531978,"endTime":24.5566085,"instrument":1,"isDrum":true},{"pitch":51,"velocity":80,"startTime":24.729021999999997,"endTime":24.827544,"instrument":1,"isDrum":true},{"pitch":35,"velocity":80,"startTime":24.827544,"endTime":24.852174499999997,"instrument":1,"isDrum":true},{"pitch":44,"velocity":80,"startTime":24.827544,"endTime":24.852174499999997,"instrument":1,"isDrum":true},{"pitch":51,"velocity":80,"startTime":24.827544,"endTime":24.852174499999997,"instrument":1,"isDrum":true},{"pitch":35,"velocity":80,"startTime":25.024587999999998,"endTime":25.0492185,"instrument":1,"isDrum":true},{"pitch":51,"velocity":80,"startTime":25.024587999999998,"endTime":25.0492185,"instrument":1,"isDrum":true},{"pitch":35,"velocity":80,"startTime":25.123109999999997,"endTime":25.147740499999998,"instrument":1,"isDrum":true},{"pitch":37,"velocity":80,"startTime":25.123109999999997,"endTime":25.147740499999998,"instrument":1,"isDrum":true},{"pitch":38,"velocity":80,"startTime":25.123109999999997,"endTime":25.147740499999998,"instrument":1,"isDrum":true},{"pitch":44,"velocity":80,"startTime":25.123109999999997,"endTime":25.147740499999998,"instrument":1,"isDrum":true},{"pitch":51,"velocity":80,"startTime":25.123109999999997,"endTime":25.147740499999998,"instrument":1,"isDrum":true},{"pitch":51,"velocity":80,"startTime":25.320154,"endTime":25.418675999999998,"instrument":1,"isDrum":true},{"pitch":35,"velocity":80,"startTime":25.418675999999998,"endTime":25.4433065,"instrument":1,"isDrum":true},{"pitch":51,"velocity":80,"startTime":25.418675999999998,"endTime":25.4433065,"instrument":1,"isDrum":true},{"pitch":51,"velocity":80,"startTime":25.61572,"endTime":25.640350499999997,"instrument":1,"isDrum":true},{"pitch":35,"velocity":80,"startTime":25.714242,"endTime":25.7388725,"instrument":1,"isDrum":true},{"pitch":44,"velocity":80,"startTime":25.714242,"endTime":25.7388725,"instrument":1,"isDrum":true},{"pitch":51,"velocity":80,"startTime":25.714242,"endTime":25.7388725,"instrument":1,"isDrum":true},{"pitch":53,"velocity":80,"startTime":25.714242,"endTime":25.7388725,"instrument":1,"isDrum":true},{"pitch":51,"velocity":80,"startTime":25.911285999999997,"endTime":25.935916499999998,"instrument":1,"isDrum":true},{"pitch":35,"velocity":80,"startTime":26.009808,"endTime":26.034438499999997,"instrument":1,"isDrum":true},{"pitch":44,"velocity":80,"startTime":26.009808,"endTime":26.034438499999997,"instrument":1,"isDrum":true},{"pitch":51,"velocity":80,"startTime":26.009808,"endTime":26.034438499999997,"instrument":1,"isDrum":true},{"pitch":51,"velocity":80,"startTime":26.206851999999998,"endTime":26.2314825,"instrument":1,"isDrum":true},{"pitch":35,"velocity":80,"startTime":26.305373999999997,"endTime":26.330004499999998,"instrument":1,"isDrum":true},{"pitch":44,"velocity":80,"startTime":26.305373999999997,"endTime":26.330004499999998,"instrument":1,"isDrum":true},{"pitch":51,"velocity":80,"startTime":26.305373999999997,"endTime":26.330004499999998,"instrument":1,"isDrum":true},{"pitch":53,"velocity":80,"startTime":26.305373999999997,"endTime":26.330004499999998,"instrument":1,"isDrum":true},{"pitch":51,"velocity":80,"startTime":26.502418,"endTime":26.5270485,"instrument":1,"isDrum":true},{"pitch":35,"velocity":80,"startTime":26.600939999999998,"endTime":26.6255705,"instrument":1,"isDrum":true},{"pitch":44,"velocity":80,"startTime":26.600939999999998,"endTime":26.6255705,"instrument":1,"isDrum":true},{"pitch":51,"velocity":80,"startTime":26.600939999999998,"endTime":26.6255705,"instrument":1,"isDrum":true},{"pitch":35,"velocity":80,"startTime":26.797984,"endTime":26.822614499999997,"instrument":1,"isDrum":true},{"pitch":51,"velocity":80,"startTime":26.797984,"endTime":26.822614499999997,"instrument":1,"isDrum":true},{"pitch":35,"velocity":80,"startTime":26.896506,"endTime":26.9211365,"instrument":1,"isDrum":true},{"pitch":37,"velocity":80,"startTime":26.896506,"endTime":26.9211365,"instrument":1,"isDrum":true},{"pitch":38,"velocity":80,"startTime":26.896506,"endTime":26.9211365,"instrument":1,"isDrum":true},{"pitch":44,"velocity":80,"startTime":26.896506,"endTime":26.9211365,"instrument":1,"isDrum":true},{"pitch":51,"velocity":80,"startTime":26.896506,"endTime":26.9211365,"instrument":1,"isDrum":true},{"pitch":51,"velocity":80,"startTime":27.093549999999997,"endTime":27.118180499999998,"instrument":1,"isDrum":true},{"pitch":35,"velocity":80,"startTime":27.192072,"endTime":27.216702499999997,"instrument":1,"isDrum":true},{"pitch":44,"velocity":80,"startTime":27.192072,"endTime":27.216702499999997,"instrument":1,"isDrum":true},{"pitch":51,"velocity":80,"startTime":27.192072,"endTime":27.216702499999997,"instrument":1,"isDrum":true},{"pitch":35,"velocity":80,"startTime":27.389115999999998,"endTime":27.4137465,"instrument":1,"isDrum":true},{"pitch":51,"velocity":80,"startTime":27.389115999999998,"endTime":27.4137465,"instrument":1,"isDrum":true},{"pitch":35,"velocity":80,"startTime":27.487637999999997,"endTime":27.512268499999998,"instrument":1,"isDrum":true},{"pitch":37,"velocity":80,"startTime":27.487637999999997,"endTime":27.512268499999998,"instrument":1,"isDrum":true},{"pitch":38,"velocity":80,"startTime":27.487637999999997,"endTime":27.512268499999998,"instrument":1,"isDrum":true},{"pitch":44,"velocity":80,"startTime":27.487637999999997,"endTime":27.512268499999998,"instrument":1,"isDrum":true},{"pitch":51,"velocity":80,"startTime":27.487637999999997,"endTime":27.512268499999998,"instrument":1,"isDrum":true},{"pitch":51,"velocity":80,"startTime":27.684682,"endTime":27.783203999999998,"instrument":1,"isDrum":true},{"pitch":31,"velocity":103,"startTime":18.916224,"endTime":19.1378985,"instrument":2,"program":32},{"pitch":31,"velocity":103,"startTime":19.1378985,"endTime":19.211789999999997,"instrument":2,"program":32},{"pitch":35,"velocity":103,"startTime":19.211789999999997,"endTime":19.507355999999998,"instrument":2,"program":32},{"pitch":38,"velocity":103,"startTime":19.507355999999998,"endTime":19.802922,"instrument":2,"program":32},{"pitch":31,"velocity":103,"startTime":19.802922,"endTime":19.999966,"instrument":2,"program":32},{"pitch":31,"velocity":103,"startTime":20.024596499999998,"endTime":20.7142505,"instrument":2,"program":32},{"pitch":31,"velocity":103,"startTime":20.394053999999997,"endTime":20.443315,"instrument":2,"program":32},{"pitch":35,"velocity":103,"startTime":20.689619999999998,"endTime":20.985186,"instrument":2,"program":32},{"pitch":31,"velocity":103,"startTime":20.985186,"endTime":21.280752,"instrument":2,"program":32},{"pitch":28,"velocity":103,"startTime":21.280752,"endTime":21.625579,"instrument":2,"program":32},{"pitch":40,"velocity":103,"startTime":21.576317999999997,"endTime":22.16745,"instrument":2,"program":32},{"pitch":40,"velocity":103,"startTime":21.871883999999998,"endTime":21.8965145,"instrument":2,"program":32},{"pitch":35,"velocity":103,"startTime":22.16745,"endTime":22.463016,"instrument":2,"program":32},{"pitch":40,"velocity":103,"startTime":22.463016,"endTime":22.758581999999997,"instrument":2,"program":32},{"pitch":38,"velocity":103,"startTime":22.758581999999997,"endTime":23.054147999999998,"instrument":2,"program":32},{"pitch":40,"velocity":103,"startTime":23.054147999999998,"endTime":23.349714,"instrument":2,"program":32},{"pitch":35,"velocity":103,"startTime":23.349714,"endTime":23.64528,"instrument":2,"program":32},{"pitch":36,"velocity":103,"startTime":23.64528,"endTime":24.2610425,"instrument":2,"program":32},{"pitch":36,"velocity":103,"startTime":23.940845999999997,"endTime":23.990107,"instrument":2,"program":32},{"pitch":40,"velocity":103,"startTime":24.236411999999998,"endTime":24.581239,"instrument":2,"program":32},{"pitch":43,"velocity":103,"startTime":24.531978,"endTime":24.827544,"instrument":2,"program":32},{"pitch":38,"velocity":103,"startTime":24.827544,"endTime":25.0492185,"instrument":2,"program":32},{"pitch":26,"velocity":103,"startTime":25.0492185,"endTime":25.123109999999997,"instrument":2,"program":32},{"pitch":38,"velocity":103,"startTime":25.123109999999997,"endTime":25.418675999999998,"instrument":2,"program":32},{"pitch":38,"velocity":103,"startTime":25.418675999999998,"endTime":25.714242,"instrument":2,"program":32},{"pitch":31,"velocity":103,"startTime":25.714242,"endTime":26.009808,"instrument":2,"program":32},{"pitch":31,"velocity":103,"startTime":26.009808,"endTime":26.182221499999997,"instrument":2,"program":32},{"pitch":31,"velocity":103,"startTime":26.2314825,"endTime":26.305373999999997,"instrument":2,"program":32},{"pitch":35,"velocity":103,"startTime":26.305373999999997,"endTime":26.600939999999998,"instrument":2,"program":32},{"pitch":35,"velocity":103,"startTime":26.600939999999998,"endTime":26.896506,"instrument":2,"program":32},{"pitch":38,"velocity":103,"startTime":26.896506,"endTime":27.192072,"instrument":2,"program":32},{"pitch":31,"velocity":103,"startTime":27.192072,"endTime":27.536899,"instrument":2,"program":32},{"pitch":38,"velocity":103,"startTime":27.487637999999997,"endTime":27.783203999999998,"instrument":2,"program":32},{"pitch":38,"velocity":103,"startTime":27.783203999999998,"endTime":28.07877,"instrument":2,"program":32},{"pitch":31,"velocity":103,"startTime":28.07877,"endTime":28.374336,"instrument":2,"program":32},{"pitch":43,"velocity":57,"startTime":28.398966499999997,"endTime":28.620641},{"pitch":62,"velocity":57,"startTime":28.398966499999997,"endTime":28.6452715},{"pitch":67,"velocity":57,"startTime":28.398966499999997,"endTime":28.6452715},{"pitch":43,"velocity":57,"startTime":28.669901999999997,"endTime":28.916206999999996},{"pitch":62,"velocity":57,"startTime":28.669901999999997,"endTime":28.940837499999997},{"pitch":67,"velocity":57,"startTime":28.669901999999997,"endTime":28.916206999999996},{"pitch":43,"velocity":57,"startTime":29.187142499999997,"endTime":29.261034},{"pitch":64,"velocity":57,"startTime":29.2856645,"endTime":29.3841865},{"pitch":67,"velocity":57,"startTime":29.2856645,"endTime":29.3841865},{"pitch":43,"velocity":57,"startTime":29.7782745,"endTime":29.901426999999998},{"pitch":50,"velocity":57,"startTime":29.876796499999998,"endTime":29.901426999999998},{"pitch":57,"velocity":57,"startTime":29.876796499999998,"endTime":29.901426999999998},{"pitch":64,"velocity":57,"startTime":29.876796499999998,"endTime":29.9260575},{"pitch":67,"velocity":57,"startTime":29.876796499999998,"endTime":29.9260575},{"pitch":57,"velocity":57,"startTime":30.369406499999997,"endTime":30.418667499999998},{"pitch":64,"velocity":57,"startTime":30.369406499999997,"endTime":30.418667499999998},{"pitch":67,"velocity":57,"startTime":30.369406499999997,"endTime":30.418667499999998},{"pitch":50,"velocity":57,"startTime":30.394036999999997,"endTime":30.418667499999998},{"pitch":40,"velocity":57,"startTime":30.738864,"endTime":30.788124999999997},{"pitch":52,"velocity":57,"startTime":30.763494499999997,"endTime":30.812755499999998},{"pitch":56,"velocity":57,"startTime":30.763494499999997,"endTime":30.812755499999998},{"pitch":62,"velocity":57,"startTime":30.763494499999997,"endTime":30.812755499999998},{"pitch":40,"velocity":57,"startTime":31.2561045,"endTime":31.379257},{"pitch":50,"velocity":57,"startTime":31.3546265,"endTime":31.453148499999998},{"pitch":55,"velocity":57,"startTime":31.3546265,"endTime":31.428517999999997},{"pitch":59,"velocity":57,"startTime":31.3546265,"endTime":31.403887499999996},{"pitch":66,"velocity":57,"startTime":31.3546265,"endTime":31.428517999999997},{"pitch":40,"velocity":57,"startTime":31.921128,"endTime":32.01965},{"pitch":55,"velocity":57,"startTime":31.921128,"endTime":32.01965},{"pitch":59,"velocity":57,"startTime":31.921128,"endTime":31.995019499999998},{"pitch":64,"velocity":57,"startTime":31.921128,"endTime":32.01965},{"pitch":40,"velocity":57,"startTime":32.438368499999996,"endTime":32.561521},{"pitch":54,"velocity":57,"startTime":32.51226,"endTime":32.5861515},{"pitch":59,"velocity":57,"startTime":32.5368905,"endTime":32.5861515},{"pitch":62,"velocity":57,"startTime":33.103392,"endTime":33.152653},{"pitch":48,"velocity":57,"startTime":33.1280225,"endTime":33.177283499999994},{"pitch":55,"velocity":57,"startTime":33.1280225,"endTime":33.177283499999994},{"pitch":43,"velocity":57,"startTime":33.6206325,"endTime":33.6698935},{"pitch":62,"velocity":57,"startTime":33.694523999999994,"endTime":33.719154499999995},{"pitch":55,"velocity":57,"startTime":33.719154499999995,"endTime":33.793046},{"pitch":50,"velocity":57,"startTime":34.507330499999995,"endTime":34.556591499999996},{"pitch":57,"velocity":57,"startTime":34.581222,"endTime":34.630483},{"pitch":50,"velocity":57,"startTime":34.6058525,"endTime":34.630483},{"pitch":62,"velocity":57,"startTime":34.6058525,"endTime":34.6551135},{"pitch":50,"velocity":57,"startTime":35.0984625,"endTime":35.1477235},{"pitch":57,"velocity":57,"startTime":35.0984625,"endTime":35.123093},{"pitch":62,"velocity":57,"startTime":35.0984625,"endTime":35.1477235},{"pitch":43,"velocity":57,"startTime":35.6895945,"endTime":35.763486},{"pitch":57,"velocity":57,"startTime":35.7881165,"endTime":35.8866385},{"pitch":59,"velocity":57,"startTime":35.7881165,"endTime":35.862007999999996},{"pitch":62,"velocity":57,"startTime":35.7881165,"endTime":35.8866385},{"pitch":43,"velocity":57,"startTime":35.9851605,"endTime":36.059051999999994},{"pitch":43,"velocity":57,"startTime":36.108312999999995,"endTime":36.1822045},{"pitch":57,"velocity":57,"startTime":36.2807265,"endTime":36.329987499999994},{"pitch":59,"velocity":57,"startTime":36.2807265,"endTime":36.329987499999994},{"pitch":62,"velocity":57,"startTime":36.2807265,"endTime":36.329987499999994},{"pitch":43,"velocity":57,"startTime":36.5762925,"endTime":36.650183999999996},{"pitch":57,"velocity":57,"startTime":36.6748145,"endTime":36.748706},{"pitch":60,"velocity":57,"startTime":36.6748145,"endTime":36.7240755},{"pitch":64,"velocity":57,"startTime":36.6748145,"endTime":36.748706},{"pitch":67,"velocity":57,"startTime":36.6748145,"endTime":36.748706},{"pitch":43,"velocity":57,"startTime":37.167424499999996,"endTime":37.241316},{"pitch":57,"velocity":57,"startTime":37.167424499999996,"endTime":37.241316},{"pitch":60,"velocity":57,"startTime":37.167424499999996,"endTime":37.241316},{"pitch":67,"velocity":57,"startTime":37.167424499999996,"endTime":37.2659465},{"pitch":35,"velocity":80,"startTime":28.374336,"endTime":28.398966499999997,"instrument":1,"isDrum":true},{"pitch":44,"velocity":80,"startTime":28.374336,"endTime":28.398966499999997,"instrument":1,"isDrum":true},{"pitch":51,"velocity":80,"startTime":28.374336,"endTime":28.398966499999997,"instrument":1,"isDrum":true},{"pitch":53,"velocity":80,"startTime":28.374336,"endTime":28.398966499999997,"instrument":1,"isDrum":true},{"pitch":56,"velocity":80,"startTime":28.374336,"endTime":28.398966499999997,"instrument":1,"isDrum":true},{"pitch":35,"velocity":80,"startTime":28.571379999999998,"endTime":28.6452715,"instrument":1,"isDrum":true},{"pitch":53,"velocity":80,"startTime":28.571379999999998,"endTime":28.6452715,"instrument":1,"isDrum":true},{"pitch":35,"velocity":80,"startTime":28.669901999999997,"endTime":28.694532499999998,"instrument":1,"isDrum":true},{"pitch":44,"velocity":80,"startTime":28.669901999999997,"endTime":28.694532499999998,"instrument":1,"isDrum":true},{"pitch":51,"velocity":80,"startTime":28.669901999999997,"endTime":28.694532499999998,"instrument":1,"isDrum":true},{"pitch":53,"velocity":80,"startTime":28.669901999999997,"endTime":28.694532499999998,"instrument":1,"isDrum":true},{"pitch":56,"velocity":80,"startTime":28.669901999999997,"endTime":28.694532499999998,"instrument":1,"isDrum":true},{"pitch":35,"velocity":80,"startTime":28.866946,"endTime":28.940837499999997,"instrument":1,"isDrum":true},{"pitch":38,"velocity":80,"startTime":28.866946,"endTime":28.940837499999997,"instrument":1,"isDrum":true},{"pitch":51,"velocity":80,"startTime":28.866946,"endTime":28.940837499999997,"instrument":1,"isDrum":true},{"pitch":53,"velocity":80,"startTime":28.866946,"endTime":28.940837499999997,"instrument":1,"isDrum":true},{"pitch":35,"velocity":80,"startTime":28.965467999999998,"endTime":28.9900985,"instrument":1,"isDrum":true},{"pitch":44,"velocity":80,"startTime":28.965467999999998,"endTime":28.9900985,"instrument":1,"isDrum":true},{"pitch":51,"velocity":80,"startTime":28.965467999999998,"endTime":28.9900985,"instrument":1,"isDrum":true},{"pitch":56,"velocity":80,"startTime":28.965467999999998,"endTime":28.9900985,"instrument":1,"isDrum":true},{"pitch":35,"velocity":80,"startTime":29.162512,"endTime":29.236403499999998,"instrument":1,"isDrum":true},{"pitch":38,"velocity":80,"startTime":29.162512,"endTime":29.236403499999998,"instrument":1,"isDrum":true},{"pitch":51,"velocity":80,"startTime":29.162512,"endTime":29.236403499999998,"instrument":1,"isDrum":true},{"pitch":35,"velocity":80,"startTime":29.261034,"endTime":29.2856645,"instrument":1,"isDrum":true},{"pitch":44,"velocity":80,"startTime":29.261034,"endTime":29.2856645,"instrument":1,"isDrum":true},{"pitch":51,"velocity":80,"startTime":29.261034,"endTime":29.2856645,"instrument":1,"isDrum":true},{"pitch":53,"velocity":80,"startTime":29.261034,"endTime":29.2856645,"instrument":1,"isDrum":true},{"pitch":56,"velocity":80,"startTime":29.261034,"endTime":29.2856645,"instrument":1,"isDrum":true},{"pitch":35,"velocity":80,"startTime":29.458077999999997,"endTime":29.5319695,"instrument":1,"isDrum":true},{"pitch":38,"velocity":80,"startTime":29.458077999999997,"endTime":29.5319695,"instrument":1,"isDrum":true},{"pitch":51,"velocity":80,"startTime":29.458077999999997,"endTime":29.5319695,"instrument":1,"isDrum":true},{"pitch":35,"velocity":80,"startTime":29.5566,"endTime":29.605860999999997,"instrument":1,"isDrum":true},{"pitch":44,"velocity":80,"startTime":29.5566,"endTime":29.605860999999997,"instrument":1,"isDrum":true},{"pitch":51,"velocity":80,"startTime":29.5566,"endTime":29.605860999999997,"instrument":1,"isDrum":true},{"pitch":53,"velocity":80,"startTime":29.5566,"endTime":29.605860999999997,"instrument":1,"isDrum":true},{"pitch":56,"velocity":80,"startTime":29.5566,"endTime":29.605860999999997,"instrument":1,"isDrum":true},{"pitch":51,"velocity":80,"startTime":29.753643999999998,"endTime":29.827535499999996,"instrument":1,"isDrum":true},{"pitch":35,"velocity":80,"startTime":29.852165999999997,"endTime":29.901426999999998,"instrument":1,"isDrum":true},{"pitch":44,"velocity":80,"startTime":29.852165999999997,"endTime":29.901426999999998,"instrument":1,"isDrum":true},{"pitch":51,"velocity":80,"startTime":29.852165999999997,"endTime":29.901426999999998,"instrument":1,"isDrum":true},{"pitch":53,"velocity":80,"startTime":29.852165999999997,"endTime":29.901426999999998,"instrument":1,"isDrum":true},{"pitch":56,"velocity":80,"startTime":29.852165999999997,"endTime":29.901426999999998,"instrument":1,"isDrum":true},{"pitch":51,"velocity":80,"startTime":30.04921,"endTime":30.123101499999997,"instrument":1,"isDrum":true},{"pitch":35,"velocity":80,"startTime":30.147731999999998,"endTime":30.196993,"instrument":1,"isDrum":true},{"pitch":44,"velocity":80,"startTime":30.147731999999998,"endTime":30.196993,"instrument":1,"isDrum":true},{"pitch":51,"velocity":80,"startTime":30.147731999999998,"endTime":30.196993,"instrument":1,"isDrum":true},{"pitch":56,"velocity":80,"startTime":30.147731999999998,"endTime":30.196993,"instrument":1,"isDrum":true},{"pitch":51,"velocity":80,"startTime":30.344776,"endTime":30.418667499999998,"instrument":1,"isDrum":true},{"pitch":35,"velocity":80,"startTime":30.443298,"endTime":30.492558999999996,"instrument":1,"isDrum":true},{"pitch":44,"velocity":80,"startTime":30.443298,"endTime":30.492558999999996,"instrument":1,"isDrum":true},{"pitch":51,"velocity":80,"startTime":30.443298,"endTime":30.492558999999996,"instrument":1,"isDrum":true},{"pitch":56,"velocity":80,"startTime":30.443298,"endTime":30.492558999999996,"instrument":1,"isDrum":true},{"pitch":51,"velocity":80,"startTime":30.640341999999997,"endTime":30.7142335,"instrument":1,"isDrum":true},{"pitch":35,"velocity":80,"startTime":30.738864,"endTime":30.788124999999997,"instrument":1,"isDrum":true},{"pitch":44,"velocity":80,"startTime":30.738864,"endTime":30.788124999999997,"instrument":1,"isDrum":true},{"pitch":51,"velocity":80,"startTime":30.738864,"endTime":30.788124999999997,"instrument":1,"isDrum":true},{"pitch":53,"velocity":80,"startTime":30.738864,"endTime":30.788124999999997,"instrument":1,"isDrum":true},{"pitch":51,"velocity":80,"startTime":30.935907999999998,"endTime":31.009799499999996,"instrument":1,"isDrum":true},{"pitch":35,"velocity":80,"startTime":31.034429999999997,"endTime":31.083690999999998,"instrument":1,"isDrum":true},{"pitch":44,"velocity":80,"startTime":31.034429999999997,"endTime":31.083690999999998,"instrument":1,"isDrum":true},{"pitch":51,"velocity":80,"startTime":31.034429999999997,"endTime":31.083690999999998,"instrument":1,"isDrum":true},{"pitch":56,"velocity":80,"startTime":31.034429999999997,"endTime":31.083690999999998,"instrument":1,"isDrum":true},{"pitch":51,"velocity":80,"startTime":31.231474,"endTime":31.305365499999997,"instrument":1,"isDrum":true},{"pitch":35,"velocity":80,"startTime":31.329995999999998,"endTime":31.379257,"instrument":1,"isDrum":true},{"pitch":44,"velocity":80,"startTime":31.329995999999998,"endTime":31.379257,"instrument":1,"isDrum":true},{"pitch":51,"velocity":80,"startTime":31.329995999999998,"endTime":31.379257,"instrument":1,"isDrum":true},{"pitch":53,"velocity":80,"startTime":31.329995999999998,"endTime":31.379257,"instrument":1,"isDrum":true},{"pitch":56,"velocity":80,"startTime":31.329995999999998,"endTime":31.379257,"instrument":1,"isDrum":true},{"pitch":51,"velocity":80,"startTime":31.52704,"endTime":31.600931499999998,"instrument":1,"isDrum":true},{"pitch":35,"velocity":80,"startTime":31.625562,"endTime":31.674822999999996,"instrument":1,"isDrum":true},{"pitch":44,"velocity":80,"startTime":31.625562,"endTime":31.674822999999996,"instrument":1,"isDrum":true},{"pitch":51,"velocity":80,"startTime":31.625562,"endTime":31.674822999999996,"instrument":1,"isDrum":true},{"pitch":53,"velocity":80,"startTime":31.625562,"endTime":31.674822999999996,"instrument":1,"isDrum":true},{"pitch":56,"velocity":80,"startTime":31.625562,"endTime":31.674822999999996,"instrument":1,"isDrum":true},{"pitch":51,"velocity":80,"startTime":31.822605999999997,"endTime":31.8964975,"instrument":1,"isDrum":true},{"pitch":35,"velocity":80,"startTime":31.921128,"endTime":31.970388999999997,"instrument":1,"isDrum":true},{"pitch":44,"velocity":80,"startTime":31.921128,"endTime":31.970388999999997,"instrument":1,"isDrum":true},{"pitch":51,"velocity":80,"startTime":31.921128,"endTime":31.970388999999997,"instrument":1,"isDrum":true},{"pitch":53,"velocity":80,"startTime":31.921128,"endTime":31.970388999999997,"instrument":1,"isDrum":true},{"pitch":51,"velocity":80,"startTime":32.118172,"endTime":32.192063499999996,"instrument":1,"isDrum":true},{"pitch":35,"velocity":80,"startTime":32.216694,"endTime":32.265955,"instrument":1,"isDrum":true},{"pitch":44,"velocity":80,"startTime":32.216694,"endTime":32.265955,"instrument":1,"isDrum":true},{"pitch":51,"velocity":80,"startTime":32.216694,"endTime":32.265955,"instrument":1,"isDrum":true},{"pitch":56,"velocity":80,"startTime":32.216694,"endTime":32.265955,"instrument":1,"isDrum":true},{"pitch":53,"velocity":80,"startTime":32.216694,"endTime":32.265955,"instrument":1,"isDrum":true},{"pitch":51,"velocity":80,"startTime":32.413737999999995,"endTime":32.4876295,"instrument":1,"isDrum":true},{"pitch":35,"velocity":80,"startTime":32.51226,"endTime":32.561521,"instrument":1,"isDrum":true},{"pitch":44,"velocity":80,"startTime":32.51226,"endTime":32.561521,"instrument":1,"isDrum":true},{"pitch":51,"velocity":80,"startTime":32.51226,"endTime":32.561521,"instrument":1,"isDrum":true},{"pitch":53,"velocity":80,"startTime":32.51226,"endTime":32.561521,"instrument":1,"isDrum":true},{"pitch":51,"velocity":80,"startTime":32.709303999999996,"endTime":32.7831955,"instrument":1,"isDrum":true},{"pitch":35,"velocity":80,"startTime":32.807826,"endTime":32.857087,"instrument":1,"isDrum":true},{"pitch":44,"velocity":80,"startTime":32.807826,"endTime":32.857087,"instrument":1,"isDrum":true},{"pitch":51,"velocity":80,"startTime":32.807826,"endTime":32.857087,"instrument":1,"isDrum":true},{"pitch":56,"velocity":80,"startTime":32.807826,"endTime":32.857087,"instrument":1,"isDrum":true},{"pitch":51,"velocity":80,"startTime":33.00487,"endTime":33.0787615,"instrument":1,"isDrum":true},{"pitch":35,"velocity":80,"startTime":33.103392,"endTime":33.152653,"instrument":1,"isDrum":true},{"pitch":44,"velocity":80,"startTime":33.103392,"endTime":33.152653,"instrument":1,"isDrum":true},{"pitch":51,"velocity":80,"startTime":33.103392,"endTime":33.152653,"instrument":1,"isDrum":true},{"pitch":53,"velocity":80,"startTime":33.103392,"endTime":33.152653,"instrument":1,"isDrum":true},{"pitch":51,"velocity":80,"startTime":33.300436,"endTime":33.3743275,"instrument":1,"isDrum":true},{"pitch":35,"velocity":80,"startTime":33.398958,"endTime":33.448218999999995,"instrument":1,"isDrum":true},{"pitch":38,"velocity":80,"startTime":33.398958,"endTime":33.448218999999995,"instrument":1,"isDrum":true},{"pitch":44,"velocity":80,"startTime":33.398958,"endTime":33.448218999999995,"instrument":1,"isDrum":true},{"pitch":51,"velocity":80,"startTime":33.398958,"endTime":33.448218999999995,"instrument":1,"isDrum":true},{"pitch":53,"velocity":80,"startTime":33.398958,"endTime":33.448218999999995,"instrument":1,"isDrum":true},{"pitch":56,"velocity":80,"startTime":33.398958,"endTime":33.448218999999995,"instrument":1,"isDrum":true},{"pitch":35,"velocity":80,"startTime":33.596002,"endTime":33.6698935,"instrument":1,"isDrum":true},{"pitch":51,"velocity":80,"startTime":33.596002,"endTime":33.6698935,"instrument":1,"isDrum":true},{"pitch":35,"velocity":80,"startTime":33.694523999999994,"endTime":33.743784999999995,"instrument":1,"isDrum":true},{"pitch":44,"velocity":80,"startTime":33.694523999999994,"endTime":33.743784999999995,"instrument":1,"isDrum":true},{"pitch":51,"velocity":80,"startTime":33.694523999999994,"endTime":33.743784999999995,"instrument":1,"isDrum":true},{"pitch":53,"velocity":80,"startTime":33.694523999999994,"endTime":33.743784999999995,"instrument":1,"isDrum":true},{"pitch":56,"velocity":80,"startTime":33.694523999999994,"endTime":33.743784999999995,"instrument":1,"isDrum":true},{"pitch":51,"velocity":80,"startTime":33.793046,"endTime":33.8669375,"instrument":1,"isDrum":true},{"pitch":51,"velocity":80,"startTime":33.891568,"endTime":33.965459499999994,"instrument":1,"isDrum":true},{"pitch":35,"velocity":80,"startTime":33.990089999999995,"endTime":34.039350999999996,"instrument":1,"isDrum":true},{"pitch":44,"velocity":80,"startTime":33.990089999999995,"endTime":34.039350999999996,"instrument":1,"isDrum":true},{"pitch":51,"velocity":80,"startTime":33.990089999999995,"endTime":34.039350999999996,"instrument":1,"isDrum":true},{"pitch":53,"velocity":80,"startTime":33.990089999999995,"endTime":34.039350999999996,"instrument":1,"isDrum":true},{"pitch":56,"velocity":80,"startTime":33.990089999999995,"endTime":34.039350999999996,"instrument":1,"isDrum":true},{"pitch":51,"velocity":80,"startTime":34.187134,"endTime":34.261025499999995,"instrument":1,"isDrum":true},{"pitch":35,"velocity":80,"startTime":34.285655999999996,"endTime":34.334917,"instrument":1,"isDrum":true},{"pitch":44,"velocity":80,"startTime":34.285655999999996,"endTime":34.334917,"instrument":1,"isDrum":true},{"pitch":51,"velocity":80,"startTime":34.285655999999996,"endTime":34.334917,"instrument":1,"isDrum":true},{"pitch":53,"velocity":80,"startTime":34.285655999999996,"endTime":34.334917,"instrument":1,"isDrum":true},{"pitch":51,"velocity":80,"startTime":34.482699999999994,"endTime":34.556591499999996,"instrument":1,"isDrum":true},{"pitch":35,"velocity":80,"startTime":34.581222,"endTime":34.630483,"instrument":1,"isDrum":true},{"pitch":44,"velocity":80,"startTime":34.581222,"endTime":34.630483,"instrument":1,"isDrum":true},{"pitch":51,"velocity":80,"startTime":34.581222,"endTime":34.630483,"instrument":1,"isDrum":true},{"pitch":53,"velocity":80,"startTime":34.581222,"endTime":34.630483,"instrument":1,"isDrum":true},{"pitch":56,"velocity":80,"startTime":34.581222,"endTime":34.630483,"instrument":1,"isDrum":true},{"pitch":51,"velocity":80,"startTime":34.778265999999995,"endTime":34.8521575,"instrument":1,"isDrum":true},{"pitch":35,"velocity":80,"startTime":34.876788,"endTime":34.926049,"instrument":1,"isDrum":true},{"pitch":44,"velocity":80,"startTime":34.876788,"endTime":34.926049,"instrument":1,"isDrum":true},{"pitch":51,"velocity":80,"startTime":34.876788,"endTime":34.926049,"instrument":1,"isDrum":true},{"pitch":53,"velocity":80,"startTime":34.876788,"endTime":34.926049,"instrument":1,"isDrum":true},{"pitch":38,"velocity":80,"startTime":35.073831999999996,"endTime":35.1477235,"instrument":1,"isDrum":true},{"pitch":51,"velocity":80,"startTime":35.073831999999996,"endTime":35.1477235,"instrument":1,"isDrum":true},{"pitch":35,"velocity":80,"startTime":35.172354,"endTime":35.221615,"instrument":1,"isDrum":true},{"pitch":44,"velocity":80,"startTime":35.172354,"endTime":35.221615,"instrument":1,"isDrum":true},{"pitch":51,"velocity":80,"startTime":35.172354,"endTime":35.221615,"instrument":1,"isDrum":true},{"pitch":53,"velocity":80,"startTime":35.172354,"endTime":35.221615,"instrument":1,"isDrum":true},{"pitch":56,"velocity":80,"startTime":35.172354,"endTime":35.221615,"instrument":1,"isDrum":true},{"pitch":38,"velocity":80,"startTime":35.369398,"endTime":35.4432895,"instrument":1,"isDrum":true},{"pitch":51,"velocity":80,"startTime":35.369398,"endTime":35.4432895,"instrument":1,"isDrum":true},{"pitch":31,"velocity":103,"startTime":28.374336,"endTime":28.719162999999998,"instrument":2,"program":32},{"pitch":38,"velocity":103,"startTime":28.669901999999997,"endTime":28.9900985,"instrument":2,"program":32},{"pitch":43,"velocity":103,"startTime":28.965467999999998,"endTime":29.2856645,"instrument":2,"program":32},{"pitch":35,"velocity":103,"startTime":29.261034,"endTime":29.5566,"instrument":2,"program":32},{"pitch":31,"velocity":103,"startTime":29.5566,"endTime":29.7782745,"instrument":2,"program":32},{"pitch":31,"velocity":103,"startTime":29.7782745,"endTime":29.852165999999997,"instrument":2,"program":32},{"pitch":38,"velocity":103,"startTime":29.852165999999997,"endTime":30.147731999999998,"instrument":2,"program":32},{"pitch":38,"velocity":103,"startTime":30.147731999999998,"endTime":30.443298,"instrument":2,"program":32},{"pitch":31,"velocity":103,"startTime":30.443298,"endTime":30.664972499999998,"instrument":2,"program":32},{"pitch":31,"velocity":103,"startTime":30.664972499999998,"endTime":30.738864,"instrument":2,"program":32},{"pitch":28,"velocity":103,"startTime":30.738864,"endTime":31.034429999999997,"instrument":2,"program":32},{"pitch":30,"velocity":103,"startTime":31.034429999999997,"endTime":31.329995999999998,"instrument":2,"program":32},{"pitch":28,"velocity":103,"startTime":31.329995999999998,"endTime":31.625562,"instrument":2,"program":32},{"pitch":35,"velocity":103,"startTime":31.625562,"endTime":31.921128,"instrument":2,"program":32},{"pitch":28,"velocity":103,"startTime":31.921128,"endTime":32.265955,"instrument":2,"program":32},{"pitch":35,"velocity":103,"startTime":32.216694,"endTime":33.103392,"instrument":2,"program":32},{"pitch":35,"velocity":103,"startTime":32.51226,"endTime":32.5368905,"instrument":2,"program":32},{"pitch":35,"velocity":103,"startTime":32.807826,"endTime":32.857087,"instrument":2,"program":32},{"pitch":36,"velocity":103,"startTime":33.103392,"endTime":33.3250665,"instrument":2,"program":32},{"pitch":24,"velocity":103,"startTime":33.3250665,"endTime":33.398958,"instrument":2,"program":32},{"pitch":40,"velocity":103,"startTime":33.398958,"endTime":33.694523999999994,"instrument":2,"program":32},{"pitch":40,"velocity":103,"startTime":33.694523999999994,"endTime":33.990089999999995,"instrument":2,"program":32},{"pitch":36,"velocity":103,"startTime":33.990089999999995,"endTime":34.285655999999996,"instrument":2,"program":32},{"pitch":38,"velocity":103,"startTime":34.285655999999996,"endTime":34.556591499999996,"instrument":2,"program":32},{"pitch":33,"velocity":103,"startTime":34.507330499999995,"endTime":34.581222,"instrument":2,"program":32},{"pitch":42,"velocity":103,"startTime":34.581222,"endTime":34.876788,"instrument":2,"program":32},{"pitch":45,"velocity":103,"startTime":34.876788,"endTime":35.172354,"instrument":2,"program":32},{"pitch":40,"velocity":103,"startTime":35.172354,"endTime":35.46792,"instrument":2,"program":32},{"pitch":43,"velocity":103,"startTime":35.46792,"endTime":35.6895945,"instrument":2,"program":32},{"pitch":31,"velocity":103,"startTime":35.6895945,"endTime":35.7388555,"instrument":2,"program":32},{"pitch":45,"velocity":103,"startTime":35.763486,"endTime":36.059051999999994,"instrument":2,"program":32},{"pitch":47,"velocity":103,"startTime":36.059051999999994,"endTime":36.354617999999995,"instrument":2,"program":32},{"pitch":43,"velocity":103,"startTime":36.354617999999995,"endTime":36.5762925,"instrument":2,"program":32},{"pitch":31,"velocity":103,"startTime":36.5762925,"endTime":36.625553499999995,"instrument":2,"program":32},{"pitch":31,"velocity":103,"startTime":36.650183999999996,"endTime":36.871858499999995,"instrument":2,"program":32},{"pitch":31,"velocity":103,"startTime":36.871858499999995,"endTime":36.921119499999996,"instrument":2,"program":32},{"pitch":33,"velocity":103,"startTime":36.94575,"endTime":37.241316,"instrument":2,"program":32},{"pitch":38,"velocity":103,"startTime":37.241316,"endTime":37.536882,"instrument":2,"program":32},{"pitch":35,"velocity":103,"startTime":37.536882,"endTime":37.832448,"instrument":2,"program":32},{"pitch":43,"velocity":57,"startTime":37.832448,"endTime":37.906339499999994},{"pitch":55,"velocity":57,"startTime":37.8570785,"endTime":37.906339499999994},{"pitch":59,"velocity":57,"startTime":37.8570785,"endTime":37.93097},{"pitch":64,"velocity":57,"startTime":37.8570785,"endTime":37.93097},{"pitch":43,"velocity":57,"startTime":38.3496885,"endTime":38.54673249999999},{"pitch":55,"velocity":57,"startTime":38.3496885,"endTime":38.522102000000004},{"pitch":59,"velocity":57,"startTime":38.3496885,"endTime":38.522102000000004},{"pitch":64,"velocity":57,"startTime":38.3496885,"endTime":38.522102000000004},{"pitch":55,"velocity":57,"startTime":39.014711999999996,"endTime":39.113234},{"pitch":59,"velocity":57,"startTime":39.014711999999996,"endTime":39.0886035},{"pitch":43,"velocity":57,"startTime":39.039342500000004,"endTime":39.0886035},{"pitch":64,"velocity":57,"startTime":39.039342500000004,"endTime":39.0886035},{"pitch":43,"velocity":57,"startTime":39.531952499999996,"endTime":39.605844},{"pitch":59,"velocity":57,"startTime":39.531952499999996,"endTime":39.6304745},{"pitch":64,"velocity":57,"startTime":39.531952499999996,"endTime":39.6304745},{"pitch":69,"velocity":57,"startTime":39.531952499999996,"endTime":39.6304745},{"pitch":57,"velocity":57,"startTime":40.1230845,"endTime":40.196976},{"pitch":64,"velocity":57,"startTime":40.1230845,"endTime":40.196976},{"pitch":71,"velocity":57,"startTime":40.1230845,"endTime":40.196976},{"pitch":45,"velocity":57,"startTime":40.147715000000005,"endTime":40.196976},{"pitch":40,"velocity":57,"startTime":40.492542,"endTime":40.566433499999995},{"pitch":56,"velocity":57,"startTime":40.492542,"endTime":40.566433499999995},{"pitch":62,"velocity":57,"startTime":40.492542,"endTime":40.591063999999996},{"pitch":66,"velocity":57,"startTime":40.492542,"endTime":40.566433499999995},{"pitch":40,"velocity":57,"startTime":41.0097825,"endTime":41.108304499999996},{"pitch":55,"velocity":57,"startTime":41.0097825,"endTime":41.1575655},{"pitch":64,"velocity":57,"startTime":41.0097825,"endTime":41.083673999999995},{"pitch":40,"velocity":57,"startTime":41.379239999999996,"endTime":41.4531315},{"pitch":55,"velocity":57,"startTime":41.379239999999996,"endTime":41.4531315},{"pitch":59,"velocity":57,"startTime":41.4038705,"endTime":41.4531315},{"pitch":62,"velocity":57,"startTime":41.4038705,"endTime":41.4531315},{"pitch":55,"velocity":57,"startTime":41.896480499999996,"endTime":41.9950025},{"pitch":59,"velocity":57,"startTime":41.896480499999996,"endTime":41.9950025},{"pitch":64,"velocity":57,"startTime":41.896480499999996,"endTime":41.970372},{"pitch":62,"velocity":57,"startTime":41.921110999999996,"endTime":41.9950025},{"pitch":60,"velocity":57,"startTime":43.0787445,"endTime":43.103375},{"pitch":64,"velocity":57,"startTime":43.0787445,"endTime":43.103375},{"pitch":67,"velocity":57,"startTime":43.0787445,"endTime":43.1280055},{"pitch":60,"velocity":57,"startTime":43.743767999999996,"endTime":43.84229},{"pitch":64,"velocity":57,"startTime":43.743767999999996,"endTime":43.84229},{"pitch":67,"velocity":57,"startTime":43.743767999999996,"endTime":43.84229},{"pitch":69,"velocity":57,"startTime":43.743767999999996,"endTime":43.84229},{"pitch":62,"velocity":57,"startTime":44.8521405,"endTime":44.999923499999994},{"pitch":67,"velocity":57,"startTime":44.8521405,"endTime":44.999923499999994},{"pitch":69,"velocity":57,"startTime":44.8521405,"endTime":44.999923499999994},{"pitch":76,"velocity":57,"startTime":44.8521405,"endTime":44.999923499999994},{"pitch":57,"velocity":57,"startTime":45.4432725,"endTime":45.517163999999994},{"pitch":62,"velocity":57,"startTime":45.4432725,"endTime":45.517163999999994},{"pitch":69,"velocity":57,"startTime":45.4432725,"endTime":45.517163999999994},{"pitch":67,"velocity":57,"startTime":45.467903,"endTime":45.517163999999994},{"pitch":57,"velocity":57,"startTime":46.108295999999996,"endTime":46.206818},{"pitch":62,"velocity":57,"startTime":46.132926499999996,"endTime":46.206818},{"pitch":67,"velocity":57,"startTime":46.132926499999996,"endTime":46.206818},{"pitch":57,"velocity":57,"startTime":46.625536499999995,"endTime":46.699428},{"pitch":62,"velocity":57,"startTime":46.625536499999995,"endTime":46.699428},{"pitch":67,"velocity":57,"startTime":46.625536499999995,"endTime":46.699428},{"pitch":35,"velocity":80,"startTime":37.832448,"endTime":37.8570785,"instrument":1,"isDrum":true},{"pitch":44,"velocity":80,"startTime":37.832448,"endTime":37.8570785,"instrument":1,"isDrum":true},{"pitch":51,"velocity":80,"startTime":37.832448,"endTime":37.8570785,"instrument":1,"isDrum":true},{"pitch":35,"velocity":80,"startTime":38.02949199999999,"endTime":38.0541225,"instrument":1,"isDrum":true},{"pitch":51,"velocity":80,"startTime":38.02949199999999,"endTime":38.0541225,"instrument":1,"isDrum":true},{"pitch":53,"velocity":80,"startTime":38.02949199999999,"endTime":38.0541225,"instrument":1,"isDrum":true},{"pitch":38,"velocity":80,"startTime":38.128014,"endTime":38.177274999999995,"instrument":1,"isDrum":true},{"pitch":44,"velocity":80,"startTime":38.128014,"endTime":38.1526445,"instrument":1,"isDrum":true},{"pitch":51,"velocity":80,"startTime":38.128014,"endTime":38.177274999999995,"instrument":1,"isDrum":true},{"pitch":35,"velocity":80,"startTime":38.423579999999994,"endTime":38.4482105,"instrument":1,"isDrum":true},{"pitch":44,"velocity":80,"startTime":38.423579999999994,"endTime":38.4482105,"instrument":1,"isDrum":true},{"pitch":51,"velocity":80,"startTime":38.423579999999994,"endTime":38.4482105,"instrument":1,"isDrum":true},{"pitch":35,"velocity":80,"startTime":38.62062399999999,"endTime":38.6452545,"instrument":1,"isDrum":true},{"pitch":51,"velocity":80,"startTime":38.62062399999999,"endTime":38.6452545,"instrument":1,"isDrum":true},{"pitch":53,"velocity":80,"startTime":38.62062399999999,"endTime":38.6452545,"instrument":1,"isDrum":true},{"pitch":38,"velocity":80,"startTime":38.719145999999995,"endTime":38.7437765,"instrument":1,"isDrum":true},{"pitch":44,"velocity":80,"startTime":38.719145999999995,"endTime":38.7437765,"instrument":1,"isDrum":true},{"pitch":51,"velocity":80,"startTime":38.719145999999995,"endTime":38.7437765,"instrument":1,"isDrum":true},{"pitch":53,"velocity":80,"startTime":38.719145999999995,"endTime":38.7437765,"instrument":1,"isDrum":true},{"pitch":35,"velocity":80,"startTime":38.91618999999999,"endTime":38.940820499999994,"instrument":1,"isDrum":true},{"pitch":51,"velocity":80,"startTime":38.91618999999999,"endTime":38.940820499999994,"instrument":1,"isDrum":true},{"pitch":35,"velocity":80,"startTime":39.014711999999996,"endTime":39.039342500000004,"instrument":1,"isDrum":true},{"pitch":44,"velocity":80,"startTime":39.014711999999996,"endTime":39.039342500000004,"instrument":1,"isDrum":true},{"pitch":51,"velocity":80,"startTime":39.014711999999996,"endTime":39.039342500000004,"instrument":1,"isDrum":true},{"pitch":35,"velocity":80,"startTime":39.211755999999994,"endTime":39.236386499999995,"instrument":1,"isDrum":true},{"pitch":51,"velocity":80,"startTime":39.211755999999994,"endTime":39.236386499999995,"instrument":1,"isDrum":true},{"pitch":38,"velocity":80,"startTime":39.310278,"endTime":39.334908500000004,"instrument":1,"isDrum":true},{"pitch":44,"velocity":80,"startTime":39.310278,"endTime":39.334908500000004,"instrument":1,"isDrum":true},{"pitch":51,"velocity":80,"startTime":39.310278,"endTime":39.334908500000004,"instrument":1,"isDrum":true},{"pitch":53,"velocity":80,"startTime":39.310278,"endTime":39.334908500000004,"instrument":1,"isDrum":true},{"pitch":35,"velocity":80,"startTime":39.507321999999995,"endTime":39.531952499999996,"instrument":1,"isDrum":true},{"pitch":51,"velocity":80,"startTime":39.507321999999995,"endTime":39.531952499999996,"instrument":1,"isDrum":true},{"pitch":35,"velocity":80,"startTime":39.605844,"endTime":39.6304745,"instrument":1,"isDrum":true},{"pitch":44,"velocity":80,"startTime":39.605844,"endTime":39.6304745,"instrument":1,"isDrum":true},{"pitch":51,"velocity":80,"startTime":39.605844,"endTime":39.6304745,"instrument":1,"isDrum":true},{"pitch":35,"velocity":80,"startTime":39.802887999999996,"endTime":39.8275185,"instrument":1,"isDrum":true},{"pitch":51,"velocity":80,"startTime":39.802887999999996,"endTime":39.8275185,"instrument":1,"isDrum":true},{"pitch":38,"velocity":80,"startTime":39.90141,"endTime":39.9260405,"instrument":1,"isDrum":true},{"pitch":44,"velocity":80,"startTime":39.90141,"endTime":39.9260405,"instrument":1,"isDrum":true},{"pitch":51,"velocity":80,"startTime":39.90141,"endTime":39.9260405,"instrument":1,"isDrum":true},{"pitch":53,"velocity":80,"startTime":39.90141,"endTime":39.9260405,"instrument":1,"isDrum":true},{"pitch":35,"velocity":80,"startTime":40.09845399999999,"endTime":40.1230845,"instrument":1,"isDrum":true},{"pitch":51,"velocity":80,"startTime":40.09845399999999,"endTime":40.1230845,"instrument":1,"isDrum":true},{"pitch":35,"velocity":80,"startTime":40.196976,"endTime":40.2216065,"instrument":1,"isDrum":true},{"pitch":44,"velocity":80,"startTime":40.196976,"endTime":40.2216065,"instrument":1,"isDrum":true},{"pitch":51,"velocity":80,"startTime":40.196976,"endTime":40.2216065,"instrument":1,"isDrum":true},{"pitch":35,"velocity":80,"startTime":40.39402,"endTime":40.4186505,"instrument":1,"isDrum":true},{"pitch":51,"velocity":80,"startTime":40.39402,"endTime":40.4186505,"instrument":1,"isDrum":true},{"pitch":38,"velocity":80,"startTime":40.492542,"endTime":40.517172499999994,"instrument":1,"isDrum":true},{"pitch":44,"velocity":80,"startTime":40.492542,"endTime":40.517172499999994,"instrument":1,"isDrum":true},{"pitch":51,"velocity":80,"startTime":40.492542,"endTime":40.517172499999994,"instrument":1,"isDrum":true},{"pitch":53,"velocity":80,"startTime":40.492542,"endTime":40.517172499999994,"instrument":1,"isDrum":true},{"pitch":35,"velocity":80,"startTime":40.689586,"endTime":40.7142165,"instrument":1,"isDrum":true},{"pitch":51,"velocity":80,"startTime":40.689586,"endTime":40.7142165,"instrument":1,"isDrum":true},{"pitch":35,"velocity":80,"startTime":40.788107999999994,"endTime":40.812738499999995,"instrument":1,"isDrum":true},{"pitch":44,"velocity":80,"startTime":40.788107999999994,"endTime":40.812738499999995,"instrument":1,"isDrum":true},{"pitch":51,"velocity":80,"startTime":40.788107999999994,"endTime":40.812738499999995,"instrument":1,"isDrum":true},{"pitch":35,"velocity":80,"startTime":40.985152,"endTime":41.0097825,"instrument":1,"isDrum":true},{"pitch":51,"velocity":80,"startTime":40.985152,"endTime":41.0097825,"instrument":1,"isDrum":true},{"pitch":38,"velocity":80,"startTime":41.083673999999995,"endTime":41.108304499999996,"instrument":1,"isDrum":true},{"pitch":44,"velocity":80,"startTime":41.083673999999995,"endTime":41.108304499999996,"instrument":1,"isDrum":true},{"pitch":51,"velocity":80,"startTime":41.083673999999995,"endTime":41.108304499999996,"instrument":1,"isDrum":true},{"pitch":53,"velocity":80,"startTime":41.083673999999995,"endTime":41.108304499999996,"instrument":1,"isDrum":true},{"pitch":35,"velocity":80,"startTime":41.280718,"endTime":41.305348499999994,"instrument":1,"isDrum":true},{"pitch":51,"velocity":80,"startTime":41.280718,"endTime":41.305348499999994,"instrument":1,"isDrum":true},{"pitch":35,"velocity":80,"startTime":41.379239999999996,"endTime":41.4038705,"instrument":1,"isDrum":true},{"pitch":44,"velocity":80,"startTime":41.379239999999996,"endTime":41.4038705,"instrument":1,"isDrum":true},{"pitch":51,"velocity":80,"startTime":41.379239999999996,"endTime":41.4038705,"instrument":1,"isDrum":true},{"pitch":35,"velocity":80,"startTime":41.576283999999994,"endTime":41.600914499999995,"instrument":1,"isDrum":true},{"pitch":51,"velocity":80,"startTime":41.576283999999994,"endTime":41.600914499999995,"instrument":1,"isDrum":true},{"pitch":38,"velocity":80,"startTime":41.674806,"endTime":41.6994365,"instrument":1,"isDrum":true},{"pitch":44,"velocity":80,"startTime":41.674806,"endTime":41.6994365,"instrument":1,"isDrum":true},{"pitch":51,"velocity":80,"startTime":41.674806,"endTime":41.6994365,"instrument":1,"isDrum":true},{"pitch":53,"velocity":80,"startTime":41.674806,"endTime":41.6994365,"instrument":1,"isDrum":true},{"pitch":35,"velocity":80,"startTime":41.871849999999995,"endTime":41.896480499999996,"instrument":1,"isDrum":true},{"pitch":51,"velocity":80,"startTime":41.871849999999995,"endTime":41.896480499999996,"instrument":1,"isDrum":true},{"pitch":35,"velocity":80,"startTime":41.970372,"endTime":41.9950025,"instrument":1,"isDrum":true},{"pitch":44,"velocity":80,"startTime":41.970372,"endTime":41.9950025,"instrument":1,"isDrum":true},{"pitch":51,"velocity":80,"startTime":41.970372,"endTime":41.9950025,"instrument":1,"isDrum":true},{"pitch":35,"velocity":80,"startTime":42.167415999999996,"endTime":42.1920465,"instrument":1,"isDrum":true},{"pitch":51,"velocity":80,"startTime":42.167415999999996,"endTime":42.1920465,"instrument":1,"isDrum":true},{"pitch":38,"velocity":80,"startTime":42.265938,"endTime":42.2905685,"instrument":1,"isDrum":true},{"pitch":44,"velocity":80,"startTime":42.265938,"endTime":42.2905685,"instrument":1,"isDrum":true},{"pitch":51,"velocity":80,"startTime":42.265938,"endTime":42.2905685,"instrument":1,"isDrum":true},{"pitch":53,"velocity":80,"startTime":42.265938,"endTime":42.2905685,"instrument":1,"isDrum":true},{"pitch":35,"velocity":80,"startTime":42.462982,"endTime":42.4876125,"instrument":1,"isDrum":true},{"pitch":51,"velocity":80,"startTime":42.462982,"endTime":42.4876125,"instrument":1,"isDrum":true},{"pitch":35,"velocity":80,"startTime":42.561504,"endTime":42.5861345,"instrument":1,"isDrum":true},{"pitch":44,"velocity":80,"startTime":42.561504,"endTime":42.5861345,"instrument":1,"isDrum":true},{"pitch":53,"velocity":80,"startTime":42.561504,"endTime":42.5861345,"instrument":1,"isDrum":true},{"pitch":35,"velocity":80,"startTime":42.758548,"endTime":42.7831785,"instrument":1,"isDrum":true},{"pitch":51,"velocity":80,"startTime":42.758548,"endTime":42.7831785,"instrument":1,"isDrum":true},{"pitch":38,"velocity":80,"startTime":42.85707,"endTime":42.881700499999994,"instrument":1,"isDrum":true},{"pitch":44,"velocity":80,"startTime":42.85707,"endTime":42.881700499999994,"instrument":1,"isDrum":true},{"pitch":51,"velocity":80,"startTime":42.85707,"endTime":42.881700499999994,"instrument":1,"isDrum":true},{"pitch":53,"velocity":80,"startTime":42.85707,"endTime":42.881700499999994,"instrument":1,"isDrum":true},{"pitch":35,"velocity":80,"startTime":43.054114,"endTime":43.0787445,"instrument":1,"isDrum":true},{"pitch":51,"velocity":80,"startTime":43.054114,"endTime":43.0787445,"instrument":1,"isDrum":true},{"pitch":35,"velocity":80,"startTime":43.152635999999994,"endTime":43.177266499999995,"instrument":1,"isDrum":true},{"pitch":44,"velocity":80,"startTime":43.152635999999994,"endTime":43.177266499999995,"instrument":1,"isDrum":true},{"pitch":51,"velocity":80,"startTime":43.152635999999994,"endTime":43.177266499999995,"instrument":1,"isDrum":true},{"pitch":35,"velocity":80,"startTime":43.34968,"endTime":43.3743105,"instrument":1,"isDrum":true},{"pitch":51,"velocity":80,"startTime":43.34968,"endTime":43.3743105,"instrument":1,"isDrum":true},{"pitch":38,"velocity":80,"startTime":43.448201999999995,"endTime":43.472832499999996,"instrument":1,"isDrum":true},{"pitch":44,"velocity":80,"startTime":43.448201999999995,"endTime":43.472832499999996,"instrument":1,"isDrum":true},{"pitch":51,"velocity":80,"startTime":43.448201999999995,"endTime":43.472832499999996,"instrument":1,"isDrum":true},{"pitch":53,"velocity":80,"startTime":43.448201999999995,"endTime":43.472832499999996,"instrument":1,"isDrum":true},{"pitch":35,"velocity":80,"startTime":43.645246,"endTime":43.669876499999994,"instrument":1,"isDrum":true},{"pitch":51,"velocity":80,"startTime":43.645246,"endTime":43.669876499999994,"instrument":1,"isDrum":true},{"pitch":35,"velocity":80,"startTime":43.743767999999996,"endTime":43.768398499999996,"instrument":1,"isDrum":true},{"pitch":44,"velocity":80,"startTime":43.743767999999996,"endTime":43.768398499999996,"instrument":1,"isDrum":true},{"pitch":51,"velocity":80,"startTime":43.743767999999996,"endTime":43.768398499999996,"instrument":1,"isDrum":true},{"pitch":35,"velocity":80,"startTime":43.940811999999994,"endTime":43.965442499999995,"instrument":1,"isDrum":true},{"pitch":51,"velocity":80,"startTime":43.940811999999994,"endTime":43.965442499999995,"instrument":1,"isDrum":true},{"pitch":38,"velocity":80,"startTime":44.039334,"endTime":44.0639645,"instrument":1,"isDrum":true},{"pitch":44,"velocity":80,"startTime":44.039334,"endTime":44.0639645,"instrument":1,"isDrum":true},{"pitch":51,"velocity":80,"startTime":44.039334,"endTime":44.0639645,"instrument":1,"isDrum":true},{"pitch":53,"velocity":80,"startTime":44.039334,"endTime":44.0639645,"instrument":1,"isDrum":true},{"pitch":35,"velocity":80,"startTime":44.236377999999995,"endTime":44.3102695,"instrument":1,"isDrum":true},{"pitch":51,"velocity":80,"startTime":44.236377999999995,"endTime":44.261008499999996,"instrument":1,"isDrum":true},{"pitch":35,"velocity":80,"startTime":44.3349,"endTime":44.3595305,"instrument":1,"isDrum":true},{"pitch":44,"velocity":80,"startTime":44.3349,"endTime":44.3595305,"instrument":1,"isDrum":true},{"pitch":51,"velocity":80,"startTime":44.3349,"endTime":44.3595305,"instrument":1,"isDrum":true},{"pitch":35,"velocity":80,"startTime":44.531943999999996,"endTime":44.556574499999996,"instrument":1,"isDrum":true},{"pitch":51,"velocity":80,"startTime":44.531943999999996,"endTime":44.556574499999996,"instrument":1,"isDrum":true},{"pitch":38,"velocity":80,"startTime":44.630466,"endTime":44.6550965,"instrument":1,"isDrum":true},{"pitch":44,"velocity":80,"startTime":44.630466,"endTime":44.6550965,"instrument":1,"isDrum":true},{"pitch":51,"velocity":80,"startTime":44.630466,"endTime":44.6550965,"instrument":1,"isDrum":true},{"pitch":53,"velocity":80,"startTime":44.630466,"endTime":44.6550965,"instrument":1,"isDrum":true},{"pitch":35,"velocity":80,"startTime":44.82751,"endTime":44.8521405,"instrument":1,"isDrum":true},{"pitch":51,"velocity":80,"startTime":44.82751,"endTime":44.8521405,"instrument":1,"isDrum":true},{"pitch":35,"velocity":80,"startTime":44.926032,"endTime":44.9506625,"instrument":1,"isDrum":true},{"pitch":44,"velocity":80,"startTime":44.926032,"endTime":44.9506625,"instrument":1,"isDrum":true},{"pitch":51,"velocity":80,"startTime":44.926032,"endTime":44.9506625,"instrument":1,"isDrum":true},{"pitch":35,"velocity":80,"startTime":45.123076,"endTime":45.1477065,"instrument":1,"isDrum":true},{"pitch":51,"velocity":80,"startTime":45.123076,"endTime":45.1477065,"instrument":1,"isDrum":true},{"pitch":38,"velocity":80,"startTime":45.221598,"endTime":45.246228499999994,"instrument":1,"isDrum":true},{"pitch":44,"velocity":80,"startTime":45.221598,"endTime":45.246228499999994,"instrument":1,"isDrum":true},{"pitch":51,"velocity":80,"startTime":45.221598,"endTime":45.246228499999994,"instrument":1,"isDrum":true},{"pitch":53,"velocity":80,"startTime":45.221598,"endTime":45.246228499999994,"instrument":1,"isDrum":true},{"pitch":35,"velocity":80,"startTime":45.418642,"endTime":45.4432725,"instrument":1,"isDrum":true},{"pitch":51,"velocity":80,"startTime":45.418642,"endTime":45.4432725,"instrument":1,"isDrum":true},{"pitch":43,"velocity":103,"startTime":37.832448,"endTime":38.0541225,"instrument":2,"program":32},{"pitch":31,"velocity":103,"startTime":38.0541225,"endTime":38.10338349999999,"instrument":2,"program":32},{"pitch":43,"velocity":103,"startTime":38.128014,"endTime":38.423579999999994,"instrument":2,"program":32},{"pitch":47,"velocity":103,"startTime":38.423579999999994,"endTime":38.694515499999994,"instrument":2,"program":32},{"pitch":31,"velocity":103,"startTime":38.62062399999999,"endTime":38.694515499999994,"instrument":2,"program":32},{"pitch":47,"velocity":103,"startTime":38.719145999999995,"endTime":39.014711999999996,"instrument":2,"program":32},{"pitch":43,"velocity":103,"startTime":39.014711999999996,"endTime":39.236386499999995,"instrument":2,"program":32},{"pitch":31,"velocity":103,"startTime":39.236386499999995,"endTime":39.285647499999996,"instrument":2,"program":32},{"pitch":43,"velocity":103,"startTime":39.310278,"endTime":39.605844,"instrument":2,"program":32},{"pitch":43,"velocity":103,"startTime":39.605844,"endTime":39.802887999999996,"instrument":2,"program":32},{"pitch":31,"velocity":103,"startTime":39.8275185,"endTime":39.87677949999999,"instrument":2,"program":32},{"pitch":43,"velocity":103,"startTime":39.90141,"endTime":40.1230845,"instrument":2,"program":32},{"pitch":31,"velocity":103,"startTime":40.1230845,"endTime":40.17234549999999,"instrument":2,"program":32},{"pitch":28,"velocity":103,"startTime":40.196976,"endTime":40.4186505,"instrument":2,"program":32},{"pitch":28,"velocity":103,"startTime":40.4186505,"endTime":40.4679115,"instrument":2,"program":32},{"pitch":40,"velocity":103,"startTime":40.492542,"endTime":40.788107999999994,"instrument":2,"program":32},{"pitch":37,"velocity":103,"startTime":40.788107999999994,"endTime":41.0097825,"instrument":2,"program":32},{"pitch":32,"velocity":103,"startTime":41.0097825,"endTime":41.059043499999994,"instrument":2,"program":32},{"pitch":35,"velocity":103,"startTime":41.083673999999995,"endTime":41.305348499999994,"instrument":2,"program":32},{"pitch":28,"velocity":103,"startTime":41.305348499999994,"endTime":41.354609499999995,"instrument":2,"program":32},{"pitch":40,"velocity":103,"startTime":41.379239999999996,"endTime":41.674806,"instrument":2,"program":32},{"pitch":47,"velocity":103,"startTime":41.674806,"endTime":41.970372,"instrument":2,"program":32},{"pitch":47,"velocity":103,"startTime":41.970372,"endTime":42.265938,"instrument":2,"program":32},{"pitch":47,"velocity":103,"startTime":42.265938,"endTime":42.561504,"instrument":2,"program":32},{"pitch":36,"velocity":103,"startTime":42.561504,"endTime":42.85707,"instrument":2,"program":32},{"pitch":36,"velocity":103,"startTime":42.85707,"endTime":43.152635999999994,"instrument":2,"program":32},{"pitch":40,"velocity":103,"startTime":43.152635999999994,"endTime":43.448201999999995,"instrument":2,"program":32},{"pitch":43,"velocity":103,"startTime":43.448201999999995,"endTime":43.669876499999994,"instrument":2,"program":32},{"pitch":36,"velocity":103,"startTime":43.669876499999994,"endTime":43.719137499999995,"instrument":2,"program":32},{"pitch":38,"velocity":103,"startTime":43.743767999999996,"endTime":44.039334,"instrument":2,"program":32},{"pitch":42,"velocity":103,"startTime":44.039334,"endTime":44.3349,"instrument":2,"program":32},{"pitch":45,"velocity":103,"startTime":44.3349,"endTime":44.630466,"instrument":2,"program":32},{"pitch":42,"velocity":103,"startTime":44.630466,"endTime":44.8521405,"instrument":2,"program":32},{"pitch":45,"velocity":103,"startTime":44.8521405,"endTime":44.9014015,"instrument":2,"program":32},{"pitch":43,"velocity":103,"startTime":44.926032,"endTime":45.1477065,"instrument":2,"program":32},{"pitch":31,"velocity":103,"startTime":45.1477065,"endTime":45.1969675,"instrument":2,"program":32},{"pitch":43,"velocity":103,"startTime":45.221598,"endTime":45.517163999999994,"instrument":2,"program":32},{"pitch":41,"velocity":103,"startTime":45.517163999999994,"endTime":45.812729999999995,"instrument":2,"program":32},{"pitch":43,"velocity":103,"startTime":45.812729999999995,"endTime":46.009774,"instrument":2,"program":32},{"pitch":31,"velocity":103,"startTime":46.034404499999994,"endTime":46.083665499999995,"instrument":2,"program":32},{"pitch":43,"velocity":103,"startTime":46.108295999999996,"endTime":46.329970499999995,"instrument":2,"program":32},{"pitch":31,"velocity":103,"startTime":46.329970499999995,"endTime":46.379231499999996,"instrument":2,"program":32},{"pitch":38,"velocity":103,"startTime":46.403862,"endTime":46.699428,"instrument":2,"program":32},{"pitch":35,"velocity":103,"startTime":46.699428,"endTime":46.896471999999996,"instrument":2,"program":32},{"pitch":31,"velocity":103,"startTime":46.921102499999996,"endTime":46.9703635,"instrument":2,"program":32},{"pitch":38,"velocity":103,"startTime":46.994994,"endTime":47.2166685,"instrument":2,"program":32},{"pitch":31,"velocity":103,"startTime":47.2166685,"endTime":47.2659295,"instrument":2,"program":32},{"pitch":43,"velocity":57,"startTime":47.3151905,"endTime":47.389081999999995},{"pitch":59,"velocity":57,"startTime":47.3151905,"endTime":47.389081999999995},{"pitch":62,"velocity":57,"startTime":47.3151905,"endTime":47.389081999999995},{"pitch":67,"velocity":57,"startTime":47.3151905,"endTime":47.413712499999995},{"pitch":43,"velocity":57,"startTime":47.906322499999995,"endTime":47.980214},{"pitch":59,"velocity":57,"startTime":47.906322499999995,"endTime":47.980214},{"pitch":62,"velocity":57,"startTime":47.906322499999995,"endTime":47.980214},{"pitch":67,"velocity":57,"startTime":47.906322499999995,"endTime":48.0048445},{"pitch":43,"velocity":57,"startTime":48.472823999999996,"endTime":48.571346},{"pitch":59,"velocity":57,"startTime":48.472823999999996,"endTime":48.5959765},{"pitch":62,"velocity":57,"startTime":48.472823999999996,"endTime":48.5959765},{"pitch":66,"velocity":57,"startTime":48.472823999999996,"endTime":48.5959765},{"pitch":40,"velocity":57,"startTime":49.655088,"endTime":49.728979499999994},{"pitch":59,"velocity":57,"startTime":49.655088,"endTime":49.728979499999994},{"pitch":50,"velocity":57,"startTime":49.6797185,"endTime":49.753609999999995},{"pitch":56,"velocity":57,"startTime":49.6797185,"endTime":49.728979499999994},{"pitch":66,"velocity":57,"startTime":49.6797185,"endTime":49.753609999999995},{"pitch":40,"velocity":57,"startTime":50.837351999999996,"endTime":50.935874},{"pitch":59,"velocity":57,"startTime":50.837351999999996,"endTime":50.935874},{"pitch":55,"velocity":57,"startTime":50.861982499999996,"endTime":50.9112435},{"pitch":52,"velocity":57,"startTime":50.886613,"endTime":50.9112435},{"pitch":40,"velocity":57,"startTime":51.034395999999994,"endTime":51.108287499999996},{"pitch":52,"velocity":57,"startTime":51.034395999999994,"endTime":51.132918},{"pitch":55,"velocity":57,"startTime":51.034395999999994,"endTime":51.108287499999996},{"pitch":59,"velocity":57,"startTime":51.034395999999994,"endTime":51.108287499999996},{"pitch":45,"velocity":57,"startTime":51.428484,"endTime":51.52700599999999},{"pitch":55,"velocity":57,"startTime":51.4531145,"endTime":51.52700599999999},{"pitch":59,"velocity":57,"startTime":51.4531145,"endTime":51.5023755},{"pitch":64,"velocity":57,"startTime":51.4531145,"endTime":51.52700599999999},{"pitch":48,"velocity":57,"startTime":52.019616,"endTime":52.093507499999994},{"pitch":59,"velocity":57,"startTime":52.019616,"endTime":52.06887699999999},{"pitch":62,"velocity":57,"startTime":52.019616,"endTime":52.093507499999994},{"pitch":64,"velocity":57,"startTime":52.019616,"endTime":52.093507499999994},{"pitch":48,"velocity":57,"startTime":52.5368565,"endTime":52.610747999999994},{"pitch":57,"velocity":57,"startTime":52.5368565,"endTime":52.610747999999994},{"pitch":59,"velocity":57,"startTime":52.5368565,"endTime":52.610747999999994},{"pitch":62,"velocity":57,"startTime":52.5368565,"endTime":52.610747999999994},{"pitch":64,"velocity":57,"startTime":52.5368565,"endTime":52.610747999999994},{"pitch":50,"velocity":57,"startTime":53.201879999999996,"endTime":53.2757715},{"pitch":60,"velocity":57,"startTime":53.201879999999996,"endTime":53.300402},{"pitch":64,"velocity":57,"startTime":53.201879999999996,"endTime":53.300402},{"pitch":69,"velocity":57,"startTime":53.201879999999996,"endTime":53.300402},{"pitch":50,"velocity":57,"startTime":54.285622,"endTime":54.384144},{"pitch":59,"velocity":57,"startTime":54.285622,"endTime":54.384144},{"pitch":62,"velocity":57,"startTime":54.285622,"endTime":54.384144},{"pitch":69,"velocity":57,"startTime":54.285622,"endTime":54.384144},{"pitch":55,"velocity":57,"startTime":54.67970999999999,"endTime":54.728970999999994},{"pitch":59,"velocity":57,"startTime":54.67970999999999,"endTime":54.728970999999994},{"pitch":64,"velocity":57,"startTime":54.67970999999999,"endTime":54.728970999999994},{"pitch":69,"velocity":57,"startTime":54.67970999999999,"endTime":54.728970999999994},{"pitch":43,"velocity":57,"startTime":54.876754,"endTime":54.95064549999999},{"pitch":55,"velocity":57,"startTime":54.975275999999994,"endTime":55.049167499999996},{"pitch":59,"velocity":57,"startTime":54.975275999999994,"endTime":55.073798},{"pitch":64,"velocity":57,"startTime":54.975275999999994,"endTime":55.073798},{"pitch":69,"velocity":57,"startTime":54.975275999999994,"endTime":55.073798},{"pitch":43,"velocity":57,"startTime":55.492516499999994,"endTime":56.65015},{"pitch":59,"velocity":57,"startTime":55.492516499999994,"endTime":56.65015},{"pitch":62,"velocity":57,"startTime":55.492516499999994,"endTime":56.65015},{"pitch":69,"velocity":57,"startTime":55.492516499999994,"endTime":56.65015},{"pitch":35,"velocity":80,"startTime":47.29056,"endTime":47.3151905,"instrument":1,"isDrum":true},{"pitch":44,"velocity":80,"startTime":47.29056,"endTime":47.3151905,"instrument":1,"isDrum":true},{"pitch":51,"velocity":80,"startTime":47.29056,"endTime":47.3151905,"instrument":1,"isDrum":true},{"pitch":51,"velocity":80,"startTime":47.487604,"endTime":47.5122345,"instrument":1,"isDrum":true},{"pitch":35,"velocity":80,"startTime":47.586126,"endTime":47.610756499999994,"instrument":1,"isDrum":true},{"pitch":37,"velocity":80,"startTime":47.586126,"endTime":47.610756499999994,"instrument":1,"isDrum":true},{"pitch":44,"velocity":80,"startTime":47.586126,"endTime":47.610756499999994,"instrument":1,"isDrum":true},{"pitch":51,"velocity":80,"startTime":47.586126,"endTime":47.610756499999994,"instrument":1,"isDrum":true},{"pitch":53,"velocity":80,"startTime":47.586126,"endTime":47.610756499999994,"instrument":1,"isDrum":true},{"pitch":54,"velocity":80,"startTime":47.586126,"endTime":47.610756499999994,"instrument":1,"isDrum":true},{"pitch":51,"velocity":80,"startTime":47.78317,"endTime":47.85706149999999,"instrument":1,"isDrum":true},{"pitch":35,"velocity":80,"startTime":47.881691999999994,"endTime":47.906322499999995,"instrument":1,"isDrum":true},{"pitch":44,"velocity":80,"startTime":47.881691999999994,"endTime":47.906322499999995,"instrument":1,"isDrum":true},{"pitch":51,"velocity":80,"startTime":47.881691999999994,"endTime":47.906322499999995,"instrument":1,"isDrum":true},{"pitch":51,"velocity":80,"startTime":48.078736,"endTime":48.1033665,"instrument":1,"isDrum":true},{"pitch":35,"velocity":80,"startTime":48.177257999999995,"endTime":48.201888499999995,"instrument":1,"isDrum":true},{"pitch":37,"velocity":80,"startTime":48.177257999999995,"endTime":48.201888499999995,"instrument":1,"isDrum":true},{"pitch":44,"velocity":80,"startTime":48.177257999999995,"endTime":48.201888499999995,"instrument":1,"isDrum":true},{"pitch":51,"velocity":80,"startTime":48.177257999999995,"endTime":48.201888499999995,"instrument":1,"isDrum":true},{"pitch":54,"velocity":80,"startTime":48.177257999999995,"endTime":48.201888499999995,"instrument":1,"isDrum":true},{"pitch":51,"velocity":80,"startTime":48.374302,"endTime":48.448193499999995,"instrument":1,"isDrum":true},{"pitch":35,"velocity":80,"startTime":48.472823999999996,"endTime":48.497454499999996,"instrument":1,"isDrum":true},{"pitch":44,"velocity":80,"startTime":48.472823999999996,"endTime":48.497454499999996,"instrument":1,"isDrum":true},{"pitch":51,"velocity":80,"startTime":48.472823999999996,"endTime":48.497454499999996,"instrument":1,"isDrum":true},{"pitch":51,"velocity":80,"startTime":48.669867999999994,"endTime":48.694498499999995,"instrument":1,"isDrum":true},{"pitch":35,"velocity":80,"startTime":48.76839,"endTime":48.7930205,"instrument":1,"isDrum":true},{"pitch":44,"velocity":80,"startTime":48.76839,"endTime":48.7930205,"instrument":1,"isDrum":true},{"pitch":51,"velocity":80,"startTime":48.76839,"endTime":48.7930205,"instrument":1,"isDrum":true},{"pitch":53,"velocity":80,"startTime":48.76839,"endTime":48.7930205,"instrument":1,"isDrum":true},{"pitch":35,"velocity":80,"startTime":49.063956,"endTime":49.0885865,"instrument":1,"isDrum":true},{"pitch":44,"velocity":80,"startTime":49.063956,"endTime":49.0885865,"instrument":1,"isDrum":true},{"pitch":51,"velocity":80,"startTime":49.063956,"endTime":49.0885865,"instrument":1,"isDrum":true},{"pitch":51,"velocity":80,"startTime":49.260999999999996,"endTime":49.285630499999996,"instrument":1,"isDrum":true},{"pitch":35,"velocity":80,"startTime":49.359522,"endTime":49.3841525,"instrument":1,"isDrum":true},{"pitch":37,"velocity":80,"startTime":49.359522,"endTime":49.3841525,"instrument":1,"isDrum":true},{"pitch":44,"velocity":80,"startTime":49.359522,"endTime":49.3841525,"instrument":1,"isDrum":true},{"pitch":51,"velocity":80,"startTime":49.359522,"endTime":49.3841525,"instrument":1,"isDrum":true},{"pitch":54,"velocity":80,"startTime":49.359522,"endTime":49.3841525,"instrument":1,"isDrum":true},{"pitch":51,"velocity":80,"startTime":49.556566,"endTime":49.655088,"instrument":1,"isDrum":true},{"pitch":35,"velocity":80,"startTime":49.655088,"endTime":49.6797185,"instrument":1,"isDrum":true},{"pitch":44,"velocity":80,"startTime":49.655088,"endTime":49.6797185,"instrument":1,"isDrum":true},{"pitch":51,"velocity":80,"startTime":49.655088,"endTime":49.6797185,"instrument":1,"isDrum":true},{"pitch":51,"velocity":80,"startTime":49.852132,"endTime":49.8767625,"instrument":1,"isDrum":true},{"pitch":35,"velocity":80,"startTime":49.95065399999999,"endTime":49.975284499999994,"instrument":1,"isDrum":true},{"pitch":37,"velocity":80,"startTime":49.95065399999999,"endTime":49.975284499999994,"instrument":1,"isDrum":true},{"pitch":44,"velocity":80,"startTime":49.95065399999999,"endTime":49.975284499999994,"instrument":1,"isDrum":true},{"pitch":51,"velocity":80,"startTime":49.95065399999999,"endTime":49.975284499999994,"instrument":1,"isDrum":true},{"pitch":54,"velocity":80,"startTime":49.95065399999999,"endTime":49.975284499999994,"instrument":1,"isDrum":true},{"pitch":51,"velocity":80,"startTime":50.147698,"endTime":50.246219999999994,"instrument":1,"isDrum":true},{"pitch":35,"velocity":80,"startTime":50.246219999999994,"endTime":50.270850499999995,"instrument":1,"isDrum":true},{"pitch":44,"velocity":80,"startTime":50.246219999999994,"endTime":50.270850499999995,"instrument":1,"isDrum":true},{"pitch":51,"velocity":80,"startTime":50.246219999999994,"endTime":50.270850499999995,"instrument":1,"isDrum":true},{"pitch":51,"velocity":80,"startTime":50.443264,"endTime":50.4678945,"instrument":1,"isDrum":true},{"pitch":35,"velocity":80,"startTime":50.541785999999995,"endTime":50.566416499999995,"instrument":1,"isDrum":true},{"pitch":37,"velocity":80,"startTime":50.541785999999995,"endTime":50.566416499999995,"instrument":1,"isDrum":true},{"pitch":44,"velocity":80,"startTime":50.541785999999995,"endTime":50.566416499999995,"instrument":1,"isDrum":true},{"pitch":51,"velocity":80,"startTime":50.541785999999995,"endTime":50.566416499999995,"instrument":1,"isDrum":true},{"pitch":51,"velocity":80,"startTime":50.73882999999999,"endTime":50.837351999999996,"instrument":1,"isDrum":true},{"pitch":35,"velocity":80,"startTime":50.837351999999996,"endTime":50.861982499999996,"instrument":1,"isDrum":true},{"pitch":44,"velocity":80,"startTime":50.837351999999996,"endTime":50.861982499999996,"instrument":1,"isDrum":true},{"pitch":51,"velocity":80,"startTime":50.837351999999996,"endTime":50.861982499999996,"instrument":1,"isDrum":true},{"pitch":51,"velocity":80,"startTime":51.034395999999994,"endTime":51.059026499999995,"instrument":1,"isDrum":true},{"pitch":35,"velocity":80,"startTime":51.132918,"endTime":51.1575485,"instrument":1,"isDrum":true},{"pitch":37,"velocity":80,"startTime":51.132918,"endTime":51.1575485,"instrument":1,"isDrum":true},{"pitch":44,"velocity":80,"startTime":51.132918,"endTime":51.1575485,"instrument":1,"isDrum":true},{"pitch":51,"velocity":80,"startTime":51.132918,"endTime":51.1575485,"instrument":1,"isDrum":true},{"pitch":54,"velocity":80,"startTime":51.132918,"endTime":51.1575485,"instrument":1,"isDrum":true},{"pitch":51,"velocity":80,"startTime":51.329961999999995,"endTime":51.428484,"instrument":1,"isDrum":true},{"pitch":35,"velocity":80,"startTime":51.428484,"endTime":51.4531145,"instrument":1,"isDrum":true},{"pitch":44,"velocity":80,"startTime":51.428484,"endTime":51.4531145,"instrument":1,"isDrum":true},{"pitch":51,"velocity":80,"startTime":51.428484,"endTime":51.4531145,"instrument":1,"isDrum":true},{"pitch":51,"velocity":80,"startTime":51.625527999999996,"endTime":51.650158499999996,"instrument":1,"isDrum":true},{"pitch":35,"velocity":80,"startTime":51.72405,"endTime":51.7486805,"instrument":1,"isDrum":true},{"pitch":37,"velocity":80,"startTime":51.72405,"endTime":51.7486805,"instrument":1,"isDrum":true},{"pitch":44,"velocity":80,"startTime":51.72405,"endTime":51.7486805,"instrument":1,"isDrum":true},{"pitch":51,"velocity":80,"startTime":51.72405,"endTime":51.7486805,"instrument":1,"isDrum":true},{"pitch":54,"velocity":80,"startTime":51.72405,"endTime":51.7486805,"instrument":1,"isDrum":true},{"pitch":51,"velocity":80,"startTime":51.921094,"endTime":52.019616,"instrument":1,"isDrum":true},{"pitch":35,"velocity":80,"startTime":52.019616,"endTime":52.0442465,"instrument":1,"isDrum":true},{"pitch":44,"velocity":80,"startTime":52.019616,"endTime":52.0442465,"instrument":1,"isDrum":true},{"pitch":51,"velocity":80,"startTime":52.019616,"endTime":52.0442465,"instrument":1,"isDrum":true},{"pitch":51,"velocity":80,"startTime":52.21666,"endTime":52.265921,"instrument":1,"isDrum":true},{"pitch":35,"velocity":80,"startTime":52.31518199999999,"endTime":52.339812499999994,"instrument":1,"isDrum":true},{"pitch":37,"velocity":80,"startTime":52.31518199999999,"endTime":52.339812499999994,"instrument":1,"isDrum":true},{"pitch":44,"velocity":80,"startTime":52.31518199999999,"endTime":52.339812499999994,"instrument":1,"isDrum":true},{"pitch":51,"velocity":80,"startTime":52.31518199999999,"endTime":52.339812499999994,"instrument":1,"isDrum":true},{"pitch":51,"velocity":80,"startTime":52.512226,"endTime":52.561487,"instrument":1,"isDrum":true},{"pitch":35,"velocity":80,"startTime":52.610747999999994,"endTime":52.635378499999995,"instrument":1,"isDrum":true},{"pitch":44,"velocity":80,"startTime":52.610747999999994,"endTime":52.635378499999995,"instrument":1,"isDrum":true},{"pitch":51,"velocity":80,"startTime":52.610747999999994,"endTime":52.635378499999995,"instrument":1,"isDrum":true},{"pitch":53,"velocity":80,"startTime":52.807792,"endTime":52.85705299999999,"instrument":1,"isDrum":true},{"pitch":35,"velocity":80,"startTime":52.906313999999995,"endTime":52.930944499999995,"instrument":1,"isDrum":true},{"pitch":37,"velocity":80,"startTime":52.906313999999995,"endTime":52.930944499999995,"instrument":1,"isDrum":true},{"pitch":44,"velocity":80,"startTime":52.906313999999995,"endTime":52.930944499999995,"instrument":1,"isDrum":true},{"pitch":51,"velocity":80,"startTime":52.906313999999995,"endTime":52.930944499999995,"instrument":1,"isDrum":true},{"pitch":51,"velocity":80,"startTime":53.10335799999999,"endTime":53.152618999999994,"instrument":1,"isDrum":true},{"pitch":35,"velocity":80,"startTime":53.201879999999996,"endTime":53.226510499999996,"instrument":1,"isDrum":true},{"pitch":44,"velocity":80,"startTime":53.201879999999996,"endTime":53.226510499999996,"instrument":1,"isDrum":true},{"pitch":51,"velocity":80,"startTime":53.201879999999996,"endTime":53.226510499999996,"instrument":1,"isDrum":true},{"pitch":53,"velocity":80,"startTime":53.398923999999994,"endTime":53.448184999999995,"instrument":1,"isDrum":true},{"pitch":35,"velocity":80,"startTime":53.497446,"endTime":53.5220765,"instrument":1,"isDrum":true},{"pitch":37,"velocity":80,"startTime":53.497446,"endTime":53.5220765,"instrument":1,"isDrum":true},{"pitch":44,"velocity":80,"startTime":53.497446,"endTime":53.5220765,"instrument":1,"isDrum":true},{"pitch":51,"velocity":80,"startTime":53.497446,"endTime":53.5220765,"instrument":1,"isDrum":true},{"pitch":51,"velocity":80,"startTime":53.694489999999995,"endTime":53.743750999999996,"instrument":1,"isDrum":true},{"pitch":35,"velocity":80,"startTime":53.793012,"endTime":53.8176425,"instrument":1,"isDrum":true},{"pitch":44,"velocity":80,"startTime":53.793012,"endTime":53.8176425,"instrument":1,"isDrum":true},{"pitch":51,"velocity":80,"startTime":53.793012,"endTime":53.8176425,"instrument":1,"isDrum":true},{"pitch":51,"velocity":80,"startTime":53.990055999999996,"endTime":54.014686499999996,"instrument":1,"isDrum":true},{"pitch":35,"velocity":80,"startTime":54.088578,"endTime":54.1132085,"instrument":1,"isDrum":true},{"pitch":37,"velocity":80,"startTime":54.088578,"endTime":54.1132085,"instrument":1,"isDrum":true},{"pitch":44,"velocity":80,"startTime":54.088578,"endTime":54.1132085,"instrument":1,"isDrum":true},{"pitch":51,"velocity":80,"startTime":54.088578,"endTime":54.1132085,"instrument":1,"isDrum":true},{"pitch":51,"velocity":80,"startTime":54.285622,"endTime":54.334883,"instrument":1,"isDrum":true},{"pitch":35,"velocity":80,"startTime":54.384144,"endTime":54.40877449999999,"instrument":1,"isDrum":true},{"pitch":44,"velocity":80,"startTime":54.384144,"endTime":54.40877449999999,"instrument":1,"isDrum":true},{"pitch":51,"velocity":80,"startTime":54.384144,"endTime":54.40877449999999,"instrument":1,"isDrum":true},{"pitch":51,"velocity":80,"startTime":54.581188,"endTime":54.630449,"instrument":1,"isDrum":true},{"pitch":35,"velocity":80,"startTime":54.67970999999999,"endTime":54.704340499999994,"instrument":1,"isDrum":true},{"pitch":37,"velocity":80,"startTime":54.67970999999999,"endTime":54.704340499999994,"instrument":1,"isDrum":true},{"pitch":44,"velocity":80,"startTime":54.67970999999999,"endTime":54.704340499999994,"instrument":1,"isDrum":true},{"pitch":51,"velocity":80,"startTime":54.67970999999999,"endTime":54.704340499999994,"instrument":1,"isDrum":true},{"pitch":51,"velocity":80,"startTime":54.876754,"endTime":54.926015,"instrument":1,"isDrum":true},{"pitch":35,"velocity":80,"startTime":54.975275999999994,"endTime":54.999906499999994,"instrument":1,"isDrum":true},{"pitch":44,"velocity":80,"startTime":54.975275999999994,"endTime":54.999906499999994,"instrument":1,"isDrum":true},{"pitch":51,"velocity":80,"startTime":54.975275999999994,"endTime":54.999906499999994,"instrument":1,"isDrum":true},{"pitch":51,"velocity":80,"startTime":55.17232,"endTime":55.22158099999999,"instrument":1,"isDrum":true},{"pitch":35,"velocity":80,"startTime":55.270841999999995,"endTime":55.295472499999995,"instrument":1,"isDrum":true},{"pitch":37,"velocity":80,"startTime":55.270841999999995,"endTime":55.295472499999995,"instrument":1,"isDrum":true},{"pitch":44,"velocity":80,"startTime":55.270841999999995,"endTime":55.295472499999995,"instrument":1,"isDrum":true},{"pitch":51,"velocity":80,"startTime":55.270841999999995,"endTime":55.295472499999995,"instrument":1,"isDrum":true},{"pitch":51,"velocity":80,"startTime":55.46788599999999,"endTime":55.517146999999994,"instrument":1,"isDrum":true},{"pitch":43,"velocity":103,"startTime":47.29056,"endTime":47.5122345,"instrument":2,"program":32},{"pitch":31,"velocity":103,"startTime":47.487604,"endTime":47.536865,"instrument":2,"program":32},{"pitch":43,"velocity":103,"startTime":47.586126,"endTime":47.881691999999994,"instrument":2,"program":32},{"pitch":47,"velocity":103,"startTime":47.881691999999994,"endTime":48.078736,"instrument":2,"program":32},{"pitch":38,"velocity":103,"startTime":48.078736,"endTime":48.152627499999994,"instrument":2,"program":32},{"pitch":43,"velocity":103,"startTime":48.177257999999995,"endTime":48.398932499999994,"instrument":2,"program":32},{"pitch":38,"velocity":103,"startTime":48.398932499999994,"endTime":48.448193499999995,"instrument":2,"program":32},{"pitch":43,"velocity":103,"startTime":48.472823999999996,"endTime":48.669867999999994,"instrument":2,"program":32},{"pitch":43,"velocity":103,"startTime":48.694498499999995,"endTime":48.76839,"instrument":2,"program":32},{"pitch":47,"velocity":103,"startTime":48.76839,"endTime":49.063956,"instrument":2,"program":32},{"pitch":50,"velocity":103,"startTime":49.063956,"endTime":49.359522,"instrument":2,"program":32},{"pitch":47,"velocity":103,"startTime":49.359522,"endTime":49.5811965,"instrument":2,"program":32},{"pitch":38,"velocity":103,"startTime":49.5811965,"endTime":49.6304575,"instrument":2,"program":32},{"pitch":28,"velocity":103,"startTime":49.655088,"endTime":49.999914999999994,"instrument":2,"program":32},{"pitch":35,"velocity":103,"startTime":49.95065399999999,"endTime":50.566416499999995,"instrument":2,"program":32},{"pitch":35,"velocity":103,"startTime":50.246219999999994,"endTime":50.270850499999995,"instrument":2,"program":32},{"pitch":28,"velocity":103,"startTime":50.541785999999995,"endTime":50.837351999999996,"instrument":2,"program":32},{"pitch":28,"velocity":103,"startTime":50.837351999999996,"endTime":51.059026499999995,"instrument":2,"program":32},{"pitch":28,"velocity":103,"startTime":51.059026499999995,"endTime":51.108287499999996,"instrument":2,"program":32},{"pitch":35,"velocity":103,"startTime":51.132918,"endTime":51.428484,"instrument":2,"program":32},{"pitch":38,"velocity":103,"startTime":51.428484,"endTime":51.625527999999996,"instrument":2,"program":32},{"pitch":35,"velocity":103,"startTime":51.650158499999996,"endTime":51.72405,"instrument":2,"program":32},{"pitch":40,"velocity":103,"startTime":51.72405,"endTime":51.9457245,"instrument":2,"program":32},{"pitch":28,"velocity":103,"startTime":51.9457245,"endTime":51.9949855,"instrument":2,"program":32},{"pitch":36,"velocity":103,"startTime":52.019616,"endTime":52.2412905,"instrument":2,"program":32},{"pitch":24,"velocity":103,"startTime":52.2412905,"endTime":52.2905515,"instrument":2,"program":32},{"pitch":43,"velocity":103,"startTime":52.31518199999999,"endTime":52.610747999999994,"instrument":2,"program":32},{"pitch":40,"velocity":103,"startTime":52.610747999999994,"endTime":52.906313999999995,"instrument":2,"program":32},{"pitch":36,"velocity":103,"startTime":52.906313999999995,"endTime":53.10335799999999,"instrument":2,"program":32},{"pitch":38,"velocity":103,"startTime":53.127988499999994,"endTime":54.236360999999995,"instrument":2,"program":32},{"pitch":43,"velocity":103,"startTime":54.3102525,"endTime":54.975275999999994,"instrument":2,"program":32},{"pitch":38,"velocity":103,"startTime":54.975275999999994,"endTime":55.246211499999994,"instrument":2,"program":32},{"pitch":43,"velocity":103,"startTime":55.270841999999995,"endTime":55.492516499999994,"instrument":2,"program":32},{"pitch":38,"velocity":103,"startTime":55.492516499999994,"endTime":55.541777499999995,"instrument":2,"program":32},{"pitch":43,"velocity":103,"startTime":55.566407999999996,"endTime":55.861974,"instrument":2,"program":32},{"pitch":47,"velocity":103,"startTime":55.861974,"endTime":56.15754,"instrument":2,"program":32},{"pitch":47,"velocity":103,"startTime":56.15754,"endTime":56.453106,"instrument":2,"program":32},{"pitch":50,"velocity":103,"startTime":56.453106,"endTime":56.65015,"instrument":2,"program":32},{"pitch":43,"velocity":103,"startTime":56.6747805,"endTime":56.7240415,"instrument":2,"program":32},{"pitch":43,"velocity":57,"startTime":56.77330249999999,"endTime":56.847193999999995},{"pitch":59,"velocity":57,"startTime":56.77330249999999,"endTime":56.871824499999995},{"pitch":62,"velocity":57,"startTime":56.77330249999999,"endTime":56.871824499999995},{"pitch":69,"velocity":57,"startTime":56.77330249999999,"endTime":56.847193999999995},{"pitch":43,"velocity":57,"startTime":57.04423799999999,"endTime":57.142759999999996},{"pitch":59,"velocity":57,"startTime":57.04423799999999,"endTime":57.167390499999996},{"pitch":62,"velocity":57,"startTime":57.04423799999999,"endTime":57.142759999999996},{"pitch":69,"velocity":57,"startTime":57.04423799999999,"endTime":57.142759999999996},{"pitch":43,"velocity":57,"startTime":57.635369999999995,"endTime":57.733892},{"pitch":59,"velocity":57,"startTime":57.635369999999995,"endTime":57.733892},{"pitch":62,"velocity":57,"startTime":57.635369999999995,"endTime":57.7585225},{"pitch":69,"velocity":57,"startTime":57.635369999999995,"endTime":57.733892},{"pitch":43,"velocity":57,"startTime":58.152610499999994,"endTime":58.177240999999995},{"pitch":59,"velocity":57,"startTime":58.152610499999994,"endTime":58.201871499999996},{"pitch":65,"velocity":57,"startTime":58.152610499999994,"endTime":58.177240999999995},{"pitch":69,"velocity":57,"startTime":58.152610499999994,"endTime":58.201871499999996},{"pitch":52,"velocity":57,"startTime":59.3348745,"endTime":59.43339649999999},{"pitch":64,"velocity":57,"startTime":59.3348745,"endTime":59.40876599999999},{"pitch":71,"velocity":57,"startTime":59.3348745,"endTime":59.40876599999999},{"pitch":59,"velocity":57,"startTime":59.359505,"endTime":59.43339649999999},{"pitch":59,"velocity":57,"startTime":59.92600649999999,"endTime":59.999897999999995},{"pitch":59,"velocity":57,"startTime":60.024528499999995,"endTime":60.1230505},{"pitch":64,"velocity":57,"startTime":60.024528499999995,"endTime":60.09842},{"pitch":71,"velocity":57,"startTime":60.024528499999995,"endTime":60.09842},{"pitch":59,"velocity":57,"startTime":60.591029999999996,"endTime":60.689552},{"pitch":62,"velocity":57,"startTime":60.591029999999996,"endTime":60.689552},{"pitch":66,"velocity":57,"startTime":60.591029999999996,"endTime":60.689552},{"pitch":69,"velocity":57,"startTime":60.591029999999996,"endTime":60.689552},{"pitch":59,"velocity":57,"startTime":61.108270499999996,"endTime":61.1575315},{"pitch":62,"velocity":57,"startTime":61.108270499999996,"endTime":61.182162},{"pitch":66,"velocity":57,"startTime":61.108270499999996,"endTime":61.182162},{"pitch":69,"velocity":57,"startTime":61.108270499999996,"endTime":61.1575315},{"pitch":62,"velocity":57,"startTime":61.9949685,"endTime":62.068859999999994},{"pitch":64,"velocity":57,"startTime":61.9949685,"endTime":62.068859999999994},{"pitch":67,"velocity":57,"startTime":61.9949685,"endTime":62.068859999999994},{"pitch":72,"velocity":57,"startTime":61.9949685,"endTime":62.068859999999994},{"pitch":59,"velocity":57,"startTime":62.58610049999999,"endTime":62.659991999999995},{"pitch":62,"velocity":57,"startTime":62.58610049999999,"endTime":62.659991999999995},{"pitch":64,"velocity":57,"startTime":62.58610049999999,"endTime":62.659991999999995},{"pitch":67,"velocity":57,"startTime":62.58610049999999,"endTime":62.659991999999995},{"pitch":57,"velocity":57,"startTime":63.7683645,"endTime":63.792995},{"pitch":62,"velocity":57,"startTime":63.7683645,"endTime":63.792995},{"pitch":65,"velocity":57,"startTime":63.7683645,"endTime":63.792995},{"pitch":67,"velocity":57,"startTime":63.7683645,"endTime":63.792995},{"pitch":55,"velocity":57,"startTime":64.0639305,"endTime":64.137822},{"pitch":62,"velocity":57,"startTime":64.0639305,"endTime":64.137822},{"pitch":65,"velocity":57,"startTime":64.0639305,"endTime":64.137822},{"pitch":58,"velocity":57,"startTime":64.088561,"endTime":64.137822},{"pitch":52,"velocity":57,"startTime":65.83732649999999,"endTime":65.88658749999999},{"pitch":57,"velocity":57,"startTime":65.83732649999999,"endTime":65.88658749999999},{"pitch":59,"velocity":57,"startTime":65.83732649999999,"endTime":65.88658749999999},{"pitch":62,"velocity":57,"startTime":65.83732649999999,"endTime":65.88658749999999},{"pitch":35,"velocity":80,"startTime":56.748672,"endTime":56.822563499999994,"instrument":1,"isDrum":true},{"pitch":44,"velocity":80,"startTime":56.748672,"endTime":56.822563499999994,"instrument":1,"isDrum":true},{"pitch":51,"velocity":80,"startTime":56.748672,"endTime":56.822563499999994,"instrument":1,"isDrum":true},{"pitch":53,"velocity":80,"startTime":56.748672,"endTime":56.822563499999994,"instrument":1,"isDrum":true},{"pitch":51,"velocity":80,"startTime":56.945716,"endTime":57.0196075,"instrument":1,"isDrum":true},{"pitch":44,"velocity":80,"startTime":57.04423799999999,"endTime":57.118129499999995,"instrument":1,"isDrum":true},{"pitch":51,"velocity":80,"startTime":57.04423799999999,"endTime":57.118129499999995,"instrument":1,"isDrum":true},{"pitch":53,"velocity":80,"startTime":57.04423799999999,"endTime":57.118129499999995,"instrument":1,"isDrum":true},{"pitch":51,"velocity":80,"startTime":57.241282,"endTime":57.31517349999999,"instrument":1,"isDrum":true},{"pitch":35,"velocity":80,"startTime":57.339803999999994,"endTime":57.413695499999996,"instrument":1,"isDrum":true},{"pitch":44,"velocity":80,"startTime":57.339803999999994,"endTime":57.413695499999996,"instrument":1,"isDrum":true},{"pitch":53,"velocity":80,"startTime":57.339803999999994,"endTime":57.413695499999996,"instrument":1,"isDrum":true},{"pitch":35,"velocity":80,"startTime":57.635369999999995,"endTime":57.7092615,"instrument":1,"isDrum":true},{"pitch":44,"velocity":80,"startTime":57.635369999999995,"endTime":57.7092615,"instrument":1,"isDrum":true},{"pitch":51,"velocity":80,"startTime":57.635369999999995,"endTime":57.7092615,"instrument":1,"isDrum":true},{"pitch":53,"velocity":80,"startTime":57.635369999999995,"endTime":57.7092615,"instrument":1,"isDrum":true},{"pitch":51,"velocity":80,"startTime":57.83241399999999,"endTime":57.906305499999995,"instrument":1,"isDrum":true},{"pitch":44,"velocity":80,"startTime":57.930935999999996,"endTime":58.0048275,"instrument":1,"isDrum":true},{"pitch":51,"velocity":80,"startTime":57.930935999999996,"endTime":58.0048275,"instrument":1,"isDrum":true},{"pitch":53,"velocity":80,"startTime":57.930935999999996,"endTime":58.0048275,"instrument":1,"isDrum":true},{"pitch":51,"velocity":80,"startTime":58.127979999999994,"endTime":58.201871499999996,"instrument":1,"isDrum":true},{"pitch":44,"velocity":80,"startTime":58.226501999999996,"endTime":58.3003935,"instrument":1,"isDrum":true},{"pitch":51,"velocity":80,"startTime":58.226501999999996,"endTime":58.3003935,"instrument":1,"isDrum":true},{"pitch":53,"velocity":80,"startTime":58.226501999999996,"endTime":58.3003935,"instrument":1,"isDrum":true},{"pitch":51,"velocity":80,"startTime":58.423545999999995,"endTime":58.4974375,"instrument":1,"isDrum":true},{"pitch":35,"velocity":80,"startTime":58.522068,"endTime":58.5959595,"instrument":1,"isDrum":true},{"pitch":44,"velocity":80,"startTime":58.522068,"endTime":58.5959595,"instrument":1,"isDrum":true},{"pitch":51,"velocity":80,"startTime":58.522068,"endTime":58.5959595,"instrument":1,"isDrum":true},{"pitch":53,"velocity":80,"startTime":58.522068,"endTime":58.5959595,"instrument":1,"isDrum":true},{"pitch":51,"velocity":80,"startTime":58.817634,"endTime":58.89152549999999,"instrument":1,"isDrum":true},{"pitch":44,"velocity":80,"startTime":59.1132,"endTime":59.187091499999994,"instrument":1,"isDrum":true},{"pitch":51,"velocity":80,"startTime":59.1132,"endTime":59.187091499999994,"instrument":1,"isDrum":true},{"pitch":53,"velocity":80,"startTime":59.1132,"endTime":59.187091499999994,"instrument":1,"isDrum":true},{"pitch":51,"velocity":80,"startTime":59.310244,"endTime":59.3841355,"instrument":1,"isDrum":true},{"pitch":35,"velocity":80,"startTime":59.40876599999999,"endTime":59.482657499999995,"instrument":1,"isDrum":true},{"pitch":44,"velocity":80,"startTime":59.40876599999999,"endTime":59.482657499999995,"instrument":1,"isDrum":true},{"pitch":51,"velocity":80,"startTime":59.40876599999999,"endTime":59.482657499999995,"instrument":1,"isDrum":true},{"pitch":53,"velocity":80,"startTime":59.40876599999999,"endTime":59.482657499999995,"instrument":1,"isDrum":true},{"pitch":51,"velocity":80,"startTime":59.60581,"endTime":59.67970149999999,"instrument":1,"isDrum":true},{"pitch":44,"velocity":80,"startTime":59.704331999999994,"endTime":59.778223499999996,"instrument":1,"isDrum":true},{"pitch":51,"velocity":80,"startTime":59.704331999999994,"endTime":59.778223499999996,"instrument":1,"isDrum":true},{"pitch":53,"velocity":80,"startTime":59.704331999999994,"endTime":59.778223499999996,"instrument":1,"isDrum":true},{"pitch":51,"velocity":80,"startTime":59.901376,"endTime":59.975267499999994,"instrument":1,"isDrum":true},{"pitch":35,"velocity":80,"startTime":59.999897999999995,"endTime":60.0737895,"instrument":1,"isDrum":true},{"pitch":44,"velocity":80,"startTime":59.999897999999995,"endTime":60.0737895,"instrument":1,"isDrum":true},{"pitch":51,"velocity":80,"startTime":59.999897999999995,"endTime":60.0737895,"instrument":1,"isDrum":true},{"pitch":53,"velocity":80,"startTime":59.999897999999995,"endTime":60.0737895,"instrument":1,"isDrum":true},{"pitch":51,"velocity":80,"startTime":60.19694199999999,"endTime":60.270833499999995,"instrument":1,"isDrum":true},{"pitch":35,"velocity":80,"startTime":60.295463999999996,"endTime":60.3693555,"instrument":1,"isDrum":true},{"pitch":44,"velocity":80,"startTime":60.295463999999996,"endTime":60.3693555,"instrument":1,"isDrum":true},{"pitch":51,"velocity":80,"startTime":60.295463999999996,"endTime":60.3693555,"instrument":1,"isDrum":true},{"pitch":53,"velocity":80,"startTime":60.295463999999996,"endTime":60.3693555,"instrument":1,"isDrum":true},{"pitch":51,"velocity":80,"startTime":60.492507999999994,"endTime":60.566399499999996,"instrument":1,"isDrum":true},{"pitch":44,"velocity":80,"startTime":60.591029999999996,"endTime":60.6649215,"instrument":1,"isDrum":true},{"pitch":51,"velocity":80,"startTime":60.591029999999996,"endTime":60.6649215,"instrument":1,"isDrum":true},{"pitch":53,"velocity":80,"startTime":60.591029999999996,"endTime":60.6649215,"instrument":1,"isDrum":true},{"pitch":51,"velocity":80,"startTime":60.788073999999995,"endTime":60.8619655,"instrument":1,"isDrum":true},{"pitch":35,"velocity":80,"startTime":60.886596,"endTime":60.9604875,"instrument":1,"isDrum":true},{"pitch":44,"velocity":80,"startTime":60.886596,"endTime":60.9604875,"instrument":1,"isDrum":true},{"pitch":51,"velocity":80,"startTime":60.886596,"endTime":60.9604875,"instrument":1,"isDrum":true},{"pitch":53,"velocity":80,"startTime":60.886596,"endTime":60.9604875,"instrument":1,"isDrum":true},{"pitch":51,"velocity":80,"startTime":61.083639999999995,"endTime":61.1575315,"instrument":1,"isDrum":true},{"pitch":35,"velocity":80,"startTime":61.182162,"endTime":61.25605349999999,"instrument":1,"isDrum":true},{"pitch":44,"velocity":80,"startTime":61.182162,"endTime":61.25605349999999,"instrument":1,"isDrum":true},{"pitch":51,"velocity":80,"startTime":61.182162,"endTime":61.25605349999999,"instrument":1,"isDrum":true},{"pitch":53,"velocity":80,"startTime":61.182162,"endTime":61.25605349999999,"instrument":1,"isDrum":true},{"pitch":51,"velocity":80,"startTime":61.379205999999996,"endTime":61.4530975,"instrument":1,"isDrum":true},{"pitch":44,"velocity":80,"startTime":61.477728,"endTime":61.551619499999994,"instrument":1,"isDrum":true},{"pitch":51,"velocity":80,"startTime":61.477728,"endTime":61.551619499999994,"instrument":1,"isDrum":true},{"pitch":53,"velocity":80,"startTime":61.477728,"endTime":61.551619499999994,"instrument":1,"isDrum":true},{"pitch":51,"velocity":80,"startTime":61.674772,"endTime":61.7486635,"instrument":1,"isDrum":true},{"pitch":35,"velocity":80,"startTime":61.77329399999999,"endTime":61.847185499999995,"instrument":1,"isDrum":true},{"pitch":44,"velocity":80,"startTime":61.77329399999999,"endTime":61.847185499999995,"instrument":1,"isDrum":true},{"pitch":51,"velocity":80,"startTime":61.77329399999999,"endTime":61.847185499999995,"instrument":1,"isDrum":true},{"pitch":53,"velocity":80,"startTime":61.77329399999999,"endTime":61.847185499999995,"instrument":1,"isDrum":true},{"pitch":51,"velocity":80,"startTime":61.970338,"endTime":62.04422949999999,"instrument":1,"isDrum":true},{"pitch":35,"velocity":80,"startTime":62.068859999999994,"endTime":62.142751499999996,"instrument":1,"isDrum":true},{"pitch":44,"velocity":80,"startTime":62.068859999999994,"endTime":62.142751499999996,"instrument":1,"isDrum":true},{"pitch":51,"velocity":80,"startTime":62.068859999999994,"endTime":62.142751499999996,"instrument":1,"isDrum":true},{"pitch":53,"velocity":80,"startTime":62.068859999999994,"endTime":62.142751499999996,"instrument":1,"isDrum":true},{"pitch":51,"velocity":80,"startTime":62.265904,"endTime":62.339795499999994,"instrument":1,"isDrum":true},{"pitch":35,"velocity":80,"startTime":62.364425999999995,"endTime":62.4383175,"instrument":1,"isDrum":true},{"pitch":44,"velocity":80,"startTime":62.364425999999995,"endTime":62.4383175,"instrument":1,"isDrum":true},{"pitch":51,"velocity":80,"startTime":62.364425999999995,"endTime":62.4383175,"instrument":1,"isDrum":true},{"pitch":53,"velocity":80,"startTime":62.364425999999995,"endTime":62.4383175,"instrument":1,"isDrum":true},{"pitch":51,"velocity":80,"startTime":62.56146999999999,"endTime":62.635361499999995,"instrument":1,"isDrum":true},{"pitch":44,"velocity":80,"startTime":62.659991999999995,"endTime":62.7338835,"instrument":1,"isDrum":true},{"pitch":51,"velocity":80,"startTime":62.659991999999995,"endTime":62.7338835,"instrument":1,"isDrum":true},{"pitch":53,"velocity":80,"startTime":62.659991999999995,"endTime":62.7338835,"instrument":1,"isDrum":true},{"pitch":51,"velocity":80,"startTime":62.857035999999994,"endTime":62.930927499999996,"instrument":1,"isDrum":true},{"pitch":35,"velocity":80,"startTime":62.955557999999996,"endTime":63.0294495,"instrument":1,"isDrum":true},{"pitch":44,"velocity":80,"startTime":62.955557999999996,"endTime":63.0294495,"instrument":1,"isDrum":true},{"pitch":53,"velocity":80,"startTime":62.955557999999996,"endTime":63.0294495,"instrument":1,"isDrum":true},{"pitch":57,"velocity":80,"startTime":62.955557999999996,"endTime":63.0294495,"instrument":1,"isDrum":true},{"pitch":44,"velocity":80,"startTime":63.251124,"endTime":63.32501549999999,"instrument":1,"isDrum":true},{"pitch":51,"velocity":80,"startTime":63.251124,"endTime":63.32501549999999,"instrument":1,"isDrum":true},{"pitch":53,"velocity":80,"startTime":63.251124,"endTime":63.32501549999999,"instrument":1,"isDrum":true},{"pitch":51,"velocity":80,"startTime":63.448167999999995,"endTime":63.5220595,"instrument":1,"isDrum":true},{"pitch":35,"velocity":80,"startTime":63.54669,"endTime":63.62058149999999,"instrument":1,"isDrum":true},{"pitch":44,"velocity":80,"startTime":63.54669,"endTime":63.62058149999999,"instrument":1,"isDrum":true},{"pitch":51,"velocity":80,"startTime":63.54669,"endTime":63.62058149999999,"instrument":1,"isDrum":true},{"pitch":53,"velocity":80,"startTime":63.54669,"endTime":63.62058149999999,"instrument":1,"isDrum":true},{"pitch":51,"velocity":80,"startTime":63.743733999999996,"endTime":63.8176255,"instrument":1,"isDrum":true},{"pitch":38,"velocity":80,"startTime":63.842256,"endTime":63.916147499999994,"instrument":1,"isDrum":true},{"pitch":44,"velocity":80,"startTime":63.842256,"endTime":63.916147499999994,"instrument":1,"isDrum":true},{"pitch":51,"velocity":80,"startTime":63.842256,"endTime":63.916147499999994,"instrument":1,"isDrum":true},{"pitch":53,"velocity":80,"startTime":63.842256,"endTime":63.916147499999994,"instrument":1,"isDrum":true},{"pitch":51,"velocity":80,"startTime":64.0393,"endTime":64.1131915,"instrument":1,"isDrum":true},{"pitch":44,"velocity":80,"startTime":64.137822,"endTime":64.2117135,"instrument":1,"isDrum":true},{"pitch":51,"velocity":80,"startTime":64.137822,"endTime":64.2117135,"instrument":1,"isDrum":true},{"pitch":53,"velocity":80,"startTime":64.137822,"endTime":64.2117135,"instrument":1,"isDrum":true},{"pitch":51,"velocity":80,"startTime":64.33486599999999,"endTime":64.4087575,"instrument":1,"isDrum":true},{"pitch":44,"velocity":80,"startTime":64.433388,"endTime":64.5072795,"instrument":1,"isDrum":true},{"pitch":53,"velocity":80,"startTime":64.433388,"endTime":64.5072795,"instrument":1,"isDrum":true},{"pitch":43,"velocity":103,"startTime":56.748672,"endTime":56.9703465,"instrument":2,"program":32},{"pitch":31,"velocity":103,"startTime":56.945716,"endTime":57.0196075,"instrument":2,"program":32},{"pitch":47,"velocity":103,"startTime":57.04423799999999,"endTime":57.31517349999999,"instrument":2,"program":32},{"pitch":35,"velocity":103,"startTime":57.339803999999994,"endTime":57.610739499999994,"instrument":2,"program":32},{"pitch":38,"velocity":103,"startTime":57.635369999999995,"endTime":57.906305499999995,"instrument":2,"program":32},{"pitch":31,"velocity":103,"startTime":57.930935999999996,"endTime":58.152610499999994,"instrument":2,"program":32},{"pitch":31,"velocity":103,"startTime":58.152610499999994,"endTime":58.201871499999996,"instrument":2,"program":32},{"pitch":35,"velocity":103,"startTime":58.226501999999996,"endTime":58.522068,"instrument":2,"program":32},{"pitch":38,"velocity":103,"startTime":58.522068,"endTime":58.719111999999996,"instrument":2,"program":32},{"pitch":26,"velocity":103,"startTime":58.719111999999996,"endTime":58.7930035,"instrument":2,"program":32},{"pitch":38,"velocity":103,"startTime":58.817634,"endTime":59.1132,"instrument":2,"program":32},{"pitch":28,"velocity":103,"startTime":59.1132,"endTime":59.3348745,"instrument":2,"program":32},{"pitch":35,"velocity":103,"startTime":59.310244,"endTime":59.3841355,"instrument":2,"program":32},{"pitch":35,"velocity":103,"startTime":59.40876599999999,"endTime":59.6304405,"instrument":2,"program":32},{"pitch":30,"velocity":103,"startTime":59.6304405,"endTime":59.67970149999999,"instrument":2,"program":32},{"pitch":35,"velocity":103,"startTime":59.704331999999994,"endTime":59.975267499999994,"instrument":2,"program":32},{"pitch":38,"velocity":103,"startTime":59.999897999999995,"endTime":60.19694199999999,"instrument":2,"program":32},{"pitch":31,"velocity":103,"startTime":60.19694199999999,"endTime":60.22157249999999,"instrument":2,"program":32},{"pitch":28,"velocity":103,"startTime":60.295463999999996,"endTime":60.492507999999994,"instrument":2,"program":32},{"pitch":35,"velocity":103,"startTime":60.492507999999994,"endTime":60.566399499999996,"instrument":2,"program":32},{"pitch":35,"velocity":103,"startTime":60.591029999999996,"endTime":60.8619655,"instrument":2,"program":32},{"pitch":35,"velocity":103,"startTime":60.886596,"endTime":61.182162,"instrument":2,"program":32},{"pitch":35,"velocity":103,"startTime":61.182162,"endTime":61.379205999999996,"instrument":2,"program":32},{"pitch":42,"velocity":103,"startTime":61.4038365,"endTime":61.4530975,"instrument":2,"program":32},{"pitch":43,"velocity":103,"startTime":61.477728,"endTime":61.674772,"instrument":2,"program":32},{"pitch":43,"velocity":103,"startTime":61.6994025,"endTime":61.7486635,"instrument":2,"program":32},{"pitch":43,"velocity":103,"startTime":61.77329399999999,"endTime":61.9949685,"instrument":2,"program":32},{"pitch":40,"velocity":103,"startTime":62.068859999999994,"endTime":62.265904,"instrument":2,"program":32},{"pitch":43,"velocity":103,"startTime":62.29053449999999,"endTime":62.339795499999994,"instrument":2,"program":32},{"pitch":48,"velocity":103,"startTime":62.364425999999995,"endTime":62.58610049999999,"instrument":2,"program":32},{"pitch":43,"velocity":103,"startTime":62.58610049999999,"endTime":62.635361499999995,"instrument":2,"program":32},{"pitch":38,"velocity":103,"startTime":62.659991999999995,"endTime":62.930927499999996,"instrument":2,"program":32},{"pitch":40,"velocity":103,"startTime":62.955557999999996,"endTime":63.177232499999995,"instrument":2,"program":32},{"pitch":33,"velocity":103,"startTime":63.177232499999995,"endTime":63.2264935,"instrument":2,"program":32},{"pitch":33,"velocity":103,"startTime":63.251124,"endTime":63.5220595,"instrument":2,"program":32},{"pitch":33,"velocity":103,"startTime":63.54669,"endTime":63.7683645,"instrument":2,"program":32},{"pitch":26,"velocity":103,"startTime":63.7683645,"endTime":63.8176255,"instrument":2,"program":32},{"pitch":43,"velocity":103,"startTime":63.842256,"endTime":64.0639305,"instrument":2,"program":32},{"pitch":43,"velocity":103,"startTime":64.0639305,"endTime":64.1131915,"instrument":2,"program":32},{"pitch":50,"velocity":103,"startTime":64.137822,"endTime":64.35949649999999,"instrument":2,"program":32},{"pitch":38,"velocity":103,"startTime":64.35949649999999,"endTime":64.4087575,"instrument":2,"program":32},{"pitch":50,"velocity":103,"startTime":64.433388,"endTime":64.728954,"instrument":2,"program":32},{"pitch":47,"velocity":103,"startTime":64.728954,"endTime":64.92599799999999,"instrument":2,"program":32},{"pitch":43,"velocity":103,"startTime":64.9506285,"endTime":64.9998895,"instrument":2,"program":32},{"pitch":31,"velocity":103,"startTime":65.02452,"endTime":65.36934699999999,"instrument":2,"program":32},{"pitch":38,"velocity":103,"startTime":65.32008599999999,"endTime":65.6402825,"instrument":2,"program":32},{"pitch":43,"velocity":103,"startTime":65.615652,"endTime":65.91121799999999,"instrument":2,"program":32},{"pitch":38,"velocity":103,"startTime":65.91121799999999,"endTime":66.1328925,"instrument":2,"program":32},{"pitch":31,"velocity":103,"startTime":66.1328925,"endTime":66.1821535,"instrument":2,"program":32},{"pitch":43,"velocity":57,"startTime":66.2314145,"endTime":66.600872},{"pitch":55,"velocity":57,"startTime":66.50234999999999,"endTime":66.5762415},{"pitch":62,"velocity":57,"startTime":66.50234999999999,"endTime":66.5762415},{"pitch":57,"velocity":57,"startTime":66.5269805,"endTime":66.5762415},{"pitch":55,"velocity":57,"startTime":66.99495999999999,"endTime":67.044221},{"pitch":62,"velocity":57,"startTime":66.99495999999999,"endTime":67.044221},{"pitch":57,"velocity":57,"startTime":67.01959049999999,"endTime":67.044221},{"pitch":59,"velocity":57,"startTime":67.01959049999999,"endTime":67.044221},{"pitch":43,"velocity":57,"startTime":67.38904799999999,"endTime":67.46293949999999},{"pitch":57,"velocity":57,"startTime":67.38904799999999,"endTime":67.46293949999999},{"pitch":59,"velocity":57,"startTime":67.41367849999999,"endTime":67.46293949999999},{"pitch":62,"velocity":57,"startTime":67.41367849999999,"endTime":67.46293949999999},{"pitch":43,"velocity":57,"startTime":67.9062885,"endTime":68.54668149999999},{"pitch":57,"velocity":57,"startTime":67.9062885,"endTime":68.54668149999999},{"pitch":59,"velocity":57,"startTime":67.9062885,"endTime":68.54668149999999},{"pitch":62,"velocity":57,"startTime":67.9062885,"endTime":68.54668149999999},{"pitch":50,"velocity":57,"startTime":68.57131199999999,"endTime":69.7289455},{"pitch":57,"velocity":57,"startTime":68.57131199999999,"endTime":69.7289455},{"pitch":59,"velocity":57,"startTime":68.59594249999999,"endTime":69.7289455},{"pitch":62,"velocity":57,"startTime":68.59594249999999,"endTime":69.7289455},{"pitch":52,"velocity":57,"startTime":69.753576,"endTime":70.9112095},{"pitch":55,"velocity":57,"startTime":69.753576,"endTime":70.9112095},{"pitch":59,"velocity":57,"startTime":69.7782065,"endTime":70.9112095},{"pitch":62,"velocity":57,"startTime":69.7782065,"endTime":70.9112095},{"pitch":59,"velocity":57,"startTime":70.93584,"endTime":72.0934735},{"pitch":48,"velocity":57,"startTime":70.9604705,"endTime":72.0934735},{"pitch":55,"velocity":57,"startTime":70.9604705,"endTime":72.0934735},{"pitch":64,"velocity":57,"startTime":70.9604705,"endTime":72.0934735},{"pitch":62,"velocity":57,"startTime":72.11810399999999,"endTime":73.27573749999999},{"pitch":38,"velocity":57,"startTime":72.14273449999999,"endTime":73.27573749999999},{"pitch":50,"velocity":57,"startTime":72.14273449999999,"endTime":73.27573749999999},{"pitch":55,"velocity":57,"startTime":72.14273449999999,"endTime":73.27573749999999},{"pitch":59,"velocity":57,"startTime":73.30036799999999,"endTime":73.4235205},{"pitch":43,"velocity":57,"startTime":73.32499849999999,"endTime":73.39889},{"pitch":53,"velocity":57,"startTime":73.32499849999999,"endTime":73.4235205},{"pitch":62,"velocity":57,"startTime":73.32499849999999,"endTime":73.4235205},{"pitch":43,"velocity":57,"startTime":73.81760849999999,"endTime":74.4580015},{"pitch":53,"velocity":57,"startTime":73.84223899999999,"endTime":74.4580015},{"pitch":59,"velocity":57,"startTime":73.84223899999999,"endTime":74.4580015},{"pitch":43,"velocity":57,"startTime":74.482632,"endTime":74.630415},{"pitch":55,"velocity":57,"startTime":74.5072625,"endTime":74.6057845},{"pitch":57,"velocity":57,"startTime":74.5072625,"endTime":74.630415},{"pitch":55,"velocity":57,"startTime":75.073764,"endTime":75.1969165},{"pitch":59,"velocity":57,"startTime":75.073764,"endTime":75.1969165},{"pitch":50,"velocity":57,"startTime":75.0983945,"endTime":75.172286},{"pitch":62,"velocity":57,"startTime":75.0983945,"endTime":75.1969165},{"pitch":35,"velocity":80,"startTime":66.206784,"endTime":66.2314145,"instrument":1,"isDrum":true},{"pitch":44,"velocity":80,"startTime":66.206784,"endTime":66.256045,"instrument":1,"isDrum":true},{"pitch":51,"velocity":80,"startTime":66.206784,"endTime":66.256045,"instrument":1,"isDrum":true},{"pitch":51,"velocity":80,"startTime":66.40382799999999,"endTime":66.45308899999999,"instrument":1,"isDrum":true},{"pitch":35,"velocity":80,"startTime":66.50234999999999,"endTime":66.5269805,"instrument":1,"isDrum":true},{"pitch":44,"velocity":80,"startTime":66.50234999999999,"endTime":66.5269805,"instrument":1,"isDrum":true},{"pitch":51,"velocity":80,"startTime":66.50234999999999,"endTime":66.5269805,"instrument":1,"isDrum":true},{"pitch":53,"velocity":80,"startTime":66.50234999999999,"endTime":66.5269805,"instrument":1,"isDrum":true},{"pitch":35,"velocity":80,"startTime":66.797916,"endTime":66.8225465,"instrument":1,"isDrum":true},{"pitch":44,"velocity":80,"startTime":66.797916,"endTime":66.8225465,"instrument":1,"isDrum":true},{"pitch":51,"velocity":80,"startTime":66.797916,"endTime":66.8225465,"instrument":1,"isDrum":true},{"pitch":51,"velocity":80,"startTime":66.99495999999999,"endTime":67.01959049999999,"instrument":1,"isDrum":true},{"pitch":35,"velocity":80,"startTime":67.093482,"endTime":67.1181125,"instrument":1,"isDrum":true},{"pitch":44,"velocity":80,"startTime":67.093482,"endTime":67.1181125,"instrument":1,"isDrum":true},{"pitch":51,"velocity":80,"startTime":67.093482,"endTime":67.1181125,"instrument":1,"isDrum":true},{"pitch":53,"velocity":80,"startTime":67.093482,"endTime":67.1181125,"instrument":1,"isDrum":true},{"pitch":35,"velocity":80,"startTime":67.38904799999999,"endTime":67.41367849999999,"instrument":1,"isDrum":true},{"pitch":44,"velocity":80,"startTime":67.38904799999999,"endTime":67.41367849999999,"instrument":1,"isDrum":true},{"pitch":51,"velocity":80,"startTime":67.38904799999999,"endTime":67.41367849999999,"instrument":1,"isDrum":true},{"pitch":53,"velocity":80,"startTime":67.586092,"endTime":67.6107225,"instrument":1,"isDrum":true},{"pitch":35,"velocity":80,"startTime":67.684614,"endTime":67.7092445,"instrument":1,"isDrum":true},{"pitch":44,"velocity":80,"startTime":67.684614,"endTime":67.7092445,"instrument":1,"isDrum":true},{"pitch":51,"velocity":80,"startTime":67.684614,"endTime":67.7092445,"instrument":1,"isDrum":true},{"pitch":53,"velocity":80,"startTime":67.881658,"endTime":67.9062885,"instrument":1,"isDrum":true},{"pitch":35,"velocity":80,"startTime":67.98017999999999,"endTime":68.00481049999999,"instrument":1,"isDrum":true},{"pitch":44,"velocity":80,"startTime":67.98017999999999,"endTime":68.00481049999999,"instrument":1,"isDrum":true},{"pitch":51,"velocity":80,"startTime":67.98017999999999,"endTime":68.00481049999999,"instrument":1,"isDrum":true},{"pitch":46,"velocity":80,"startTime":68.177224,"endTime":68.275746,"instrument":1,"isDrum":true},{"pitch":51,"velocity":80,"startTime":68.177224,"endTime":68.275746,"instrument":1,"isDrum":true},{"pitch":35,"velocity":80,"startTime":68.275746,"endTime":68.3003765,"instrument":1,"isDrum":true},{"pitch":44,"velocity":80,"startTime":68.275746,"endTime":68.3003765,"instrument":1,"isDrum":true},{"pitch":51,"velocity":80,"startTime":68.275746,"endTime":68.3003765,"instrument":1,"isDrum":true},{"pitch":53,"velocity":80,"startTime":68.47278999999999,"endTime":68.49742049999999,"instrument":1,"isDrum":true},{"pitch":35,"velocity":80,"startTime":68.57131199999999,"endTime":68.59594249999999,"instrument":1,"isDrum":true},{"pitch":44,"velocity":80,"startTime":68.57131199999999,"endTime":68.59594249999999,"instrument":1,"isDrum":true},{"pitch":51,"velocity":80,"startTime":68.57131199999999,"endTime":68.59594249999999,"instrument":1,"isDrum":true},{"pitch":53,"velocity":80,"startTime":68.57131199999999,"endTime":68.59594249999999,"instrument":1,"isDrum":true},{"pitch":35,"velocity":80,"startTime":68.866878,"endTime":68.8915085,"instrument":1,"isDrum":true},{"pitch":44,"velocity":80,"startTime":68.866878,"endTime":68.8915085,"instrument":1,"isDrum":true},{"pitch":51,"velocity":80,"startTime":68.866878,"endTime":68.8915085,"instrument":1,"isDrum":true},{"pitch":39,"velocity":80,"startTime":69.06392199999999,"endTime":69.08855249999999,"instrument":1,"isDrum":true},{"pitch":51,"velocity":80,"startTime":69.06392199999999,"endTime":69.08855249999999,"instrument":1,"isDrum":true},{"pitch":35,"velocity":80,"startTime":69.162444,"endTime":69.1870745,"instrument":1,"isDrum":true},{"pitch":44,"velocity":80,"startTime":69.162444,"endTime":69.1870745,"instrument":1,"isDrum":true},{"pitch":51,"velocity":80,"startTime":69.162444,"endTime":69.1870745,"instrument":1,"isDrum":true},{"pitch":46,"velocity":80,"startTime":69.359488,"endTime":69.45801,"instrument":1,"isDrum":true},{"pitch":51,"velocity":80,"startTime":69.359488,"endTime":69.45801,"instrument":1,"isDrum":true},{"pitch":35,"velocity":80,"startTime":69.45801,"endTime":69.4826405,"instrument":1,"isDrum":true},{"pitch":39,"velocity":80,"startTime":69.45801,"endTime":69.4826405,"instrument":1,"isDrum":true},{"pitch":44,"velocity":80,"startTime":69.45801,"endTime":69.4826405,"instrument":1,"isDrum":true},{"pitch":51,"velocity":80,"startTime":69.45801,"endTime":69.4826405,"instrument":1,"isDrum":true},{"pitch":39,"velocity":80,"startTime":69.65505399999999,"endTime":69.6796845,"instrument":1,"isDrum":true},{"pitch":51,"velocity":80,"startTime":69.65505399999999,"endTime":69.6796845,"instrument":1,"isDrum":true},{"pitch":35,"velocity":80,"startTime":69.753576,"endTime":69.7782065,"instrument":1,"isDrum":true},{"pitch":44,"velocity":80,"startTime":69.753576,"endTime":69.7782065,"instrument":1,"isDrum":true},{"pitch":51,"velocity":80,"startTime":69.753576,"endTime":69.7782065,"instrument":1,"isDrum":true},{"pitch":51,"velocity":80,"startTime":69.95062,"endTime":69.9752505,"instrument":1,"isDrum":true},{"pitch":35,"velocity":80,"startTime":70.04914199999999,"endTime":70.07377249999999,"instrument":1,"isDrum":true},{"pitch":39,"velocity":80,"startTime":70.04914199999999,"endTime":70.07377249999999,"instrument":1,"isDrum":true},{"pitch":44,"velocity":80,"startTime":70.04914199999999,"endTime":70.07377249999999,"instrument":1,"isDrum":true},{"pitch":51,"velocity":80,"startTime":70.04914199999999,"endTime":70.07377249999999,"instrument":1,"isDrum":true},{"pitch":39,"velocity":80,"startTime":70.246186,"endTime":70.2708165,"instrument":1,"isDrum":true},{"pitch":51,"velocity":80,"startTime":70.246186,"endTime":70.2708165,"instrument":1,"isDrum":true},{"pitch":35,"velocity":80,"startTime":70.344708,"endTime":70.3693385,"instrument":1,"isDrum":true},{"pitch":44,"velocity":80,"startTime":70.344708,"endTime":70.3693385,"instrument":1,"isDrum":true},{"pitch":51,"velocity":80,"startTime":70.344708,"endTime":70.3693385,"instrument":1,"isDrum":true},{"pitch":51,"velocity":80,"startTime":70.54175199999999,"endTime":70.56638249999999,"instrument":1,"isDrum":true},{"pitch":35,"velocity":80,"startTime":70.64027399999999,"endTime":70.66490449999999,"instrument":1,"isDrum":true},{"pitch":39,"velocity":80,"startTime":70.64027399999999,"endTime":70.66490449999999,"instrument":1,"isDrum":true},{"pitch":44,"velocity":80,"startTime":70.64027399999999,"endTime":70.66490449999999,"instrument":1,"isDrum":true},{"pitch":51,"velocity":80,"startTime":70.64027399999999,"endTime":70.66490449999999,"instrument":1,"isDrum":true},{"pitch":39,"velocity":80,"startTime":70.837318,"endTime":70.8619485,"instrument":1,"isDrum":true},{"pitch":51,"velocity":80,"startTime":70.837318,"endTime":70.8619485,"instrument":1,"isDrum":true},{"pitch":35,"velocity":80,"startTime":70.93584,"endTime":70.9604705,"instrument":1,"isDrum":true},{"pitch":44,"velocity":80,"startTime":70.93584,"endTime":70.9604705,"instrument":1,"isDrum":true},{"pitch":53,"velocity":80,"startTime":70.93584,"endTime":70.9604705,"instrument":1,"isDrum":true},{"pitch":51,"velocity":80,"startTime":71.13288399999999,"endTime":71.15751449999999,"instrument":1,"isDrum":true},{"pitch":35,"velocity":80,"startTime":71.23140599999999,"endTime":71.2560365,"instrument":1,"isDrum":true},{"pitch":44,"velocity":80,"startTime":71.23140599999999,"endTime":71.2560365,"instrument":1,"isDrum":true},{"pitch":51,"velocity":80,"startTime":71.23140599999999,"endTime":71.2560365,"instrument":1,"isDrum":true},{"pitch":53,"velocity":80,"startTime":71.23140599999999,"endTime":71.2560365,"instrument":1,"isDrum":true},{"pitch":44,"velocity":80,"startTime":71.526972,"endTime":71.5516025,"instrument":1,"isDrum":true},{"pitch":51,"velocity":80,"startTime":71.72401599999999,"endTime":71.74864649999999,"instrument":1,"isDrum":true},{"pitch":35,"velocity":80,"startTime":71.822538,"endTime":71.8471685,"instrument":1,"isDrum":true},{"pitch":44,"velocity":80,"startTime":71.822538,"endTime":71.8471685,"instrument":1,"isDrum":true},{"pitch":51,"velocity":80,"startTime":71.822538,"endTime":71.8471685,"instrument":1,"isDrum":true},{"pitch":53,"velocity":80,"startTime":71.822538,"endTime":71.8471685,"instrument":1,"isDrum":true},{"pitch":51,"velocity":80,"startTime":72.019582,"endTime":72.0442125,"instrument":1,"isDrum":true},{"pitch":35,"velocity":80,"startTime":72.11810399999999,"endTime":72.14273449999999,"instrument":1,"isDrum":true},{"pitch":44,"velocity":80,"startTime":72.11810399999999,"endTime":72.14273449999999,"instrument":1,"isDrum":true},{"pitch":51,"velocity":80,"startTime":72.11810399999999,"endTime":72.14273449999999,"instrument":1,"isDrum":true},{"pitch":51,"velocity":80,"startTime":72.315148,"endTime":72.3397785,"instrument":1,"isDrum":true},{"pitch":35,"velocity":80,"startTime":72.41367,"endTime":72.4383005,"instrument":1,"isDrum":true},{"pitch":44,"velocity":80,"startTime":72.41367,"endTime":72.4383005,"instrument":1,"isDrum":true},{"pitch":51,"velocity":80,"startTime":72.41367,"endTime":72.4383005,"instrument":1,"isDrum":true},{"pitch":53,"velocity":80,"startTime":72.41367,"endTime":72.4383005,"instrument":1,"isDrum":true},{"pitch":44,"velocity":80,"startTime":72.70923599999999,"endTime":72.73386649999999,"instrument":1,"isDrum":true},{"pitch":51,"velocity":80,"startTime":72.90628,"endTime":72.9309105,"instrument":1,"isDrum":true},{"pitch":35,"velocity":80,"startTime":73.004802,"endTime":73.0294325,"instrument":1,"isDrum":true},{"pitch":44,"velocity":80,"startTime":73.004802,"endTime":73.0294325,"instrument":1,"isDrum":true},{"pitch":51,"velocity":80,"startTime":73.004802,"endTime":73.0294325,"instrument":1,"isDrum":true},{"pitch":53,"velocity":80,"startTime":73.004802,"endTime":73.0294325,"instrument":1,"isDrum":true},{"pitch":51,"velocity":80,"startTime":73.20184599999999,"endTime":73.22647649999999,"instrument":1,"isDrum":true},{"pitch":35,"velocity":80,"startTime":73.30036799999999,"endTime":73.32499849999999,"instrument":1,"isDrum":true},{"pitch":44,"velocity":80,"startTime":73.30036799999999,"endTime":73.32499849999999,"instrument":1,"isDrum":true},{"pitch":51,"velocity":80,"startTime":73.30036799999999,"endTime":73.32499849999999,"instrument":1,"isDrum":true},{"pitch":51,"velocity":80,"startTime":73.497412,"endTime":73.5220425,"instrument":1,"isDrum":true},{"pitch":35,"velocity":80,"startTime":73.595934,"endTime":73.6205645,"instrument":1,"isDrum":true},{"pitch":44,"velocity":80,"startTime":73.595934,"endTime":73.6205645,"instrument":1,"isDrum":true},{"pitch":51,"velocity":80,"startTime":73.595934,"endTime":73.6205645,"instrument":1,"isDrum":true},{"pitch":53,"velocity":80,"startTime":73.595934,"endTime":73.6205645,"instrument":1,"isDrum":true},{"pitch":51,"velocity":80,"startTime":73.79297799999999,"endTime":73.81760849999999,"instrument":1,"isDrum":true},{"pitch":35,"velocity":80,"startTime":73.8915,"endTime":73.9161305,"instrument":1,"isDrum":true},{"pitch":44,"velocity":80,"startTime":73.8915,"endTime":73.9161305,"instrument":1,"isDrum":true},{"pitch":51,"velocity":80,"startTime":73.8915,"endTime":73.9161305,"instrument":1,"isDrum":true},{"pitch":51,"velocity":80,"startTime":74.088544,"endTime":74.1131745,"instrument":1,"isDrum":true},{"pitch":35,"velocity":80,"startTime":74.187066,"endTime":74.21169649999999,"instrument":1,"isDrum":true},{"pitch":44,"velocity":80,"startTime":74.187066,"endTime":74.21169649999999,"instrument":1,"isDrum":true},{"pitch":51,"velocity":80,"startTime":74.187066,"endTime":74.21169649999999,"instrument":1,"isDrum":true},{"pitch":53,"velocity":80,"startTime":74.187066,"endTime":74.21169649999999,"instrument":1,"isDrum":true},{"pitch":39,"velocity":80,"startTime":74.482632,"endTime":74.5072625,"instrument":1,"isDrum":true},{"pitch":44,"velocity":80,"startTime":74.482632,"endTime":74.5072625,"instrument":1,"isDrum":true},{"pitch":51,"velocity":80,"startTime":74.482632,"endTime":74.5072625,"instrument":1,"isDrum":true},{"pitch":39,"velocity":80,"startTime":74.679676,"endTime":74.7043065,"instrument":1,"isDrum":true},{"pitch":51,"velocity":80,"startTime":74.679676,"endTime":74.7043065,"instrument":1,"isDrum":true},{"pitch":35,"velocity":80,"startTime":74.77819799999999,"endTime":74.80282849999999,"instrument":1,"isDrum":true},{"pitch":44,"velocity":80,"startTime":74.77819799999999,"endTime":74.80282849999999,"instrument":1,"isDrum":true},{"pitch":51,"velocity":80,"startTime":74.77819799999999,"endTime":74.80282849999999,"instrument":1,"isDrum":true},{"pitch":53,"velocity":80,"startTime":74.77819799999999,"endTime":74.80282849999999,"instrument":1,"isDrum":true},{"pitch":46,"velocity":80,"startTime":74.975242,"endTime":75.0491335,"instrument":1,"isDrum":true},{"pitch":51,"velocity":80,"startTime":74.975242,"endTime":74.9998725,"instrument":1,"isDrum":true},{"pitch":39,"velocity":80,"startTime":75.073764,"endTime":75.0983945,"instrument":1,"isDrum":true},{"pitch":44,"velocity":80,"startTime":75.073764,"endTime":75.0983945,"instrument":1,"isDrum":true},{"pitch":51,"velocity":80,"startTime":75.073764,"endTime":75.0983945,"instrument":1,"isDrum":true},{"pitch":31,"velocity":103,"startTime":66.206784,"endTime":66.551611,"instrument":2,"program":32},{"pitch":43,"velocity":103,"startTime":66.50234999999999,"endTime":66.8225465,"instrument":2,"program":32},{"pitch":36,"velocity":103,"startTime":66.797916,"endTime":67.142743,"instrument":2,"program":32},{"pitch":38,"velocity":103,"startTime":67.093482,"endTime":67.38904799999999,"instrument":2,"program":32},{"pitch":31,"velocity":103,"startTime":67.38904799999999,"endTime":67.6599835,"instrument":2,"program":32},{"pitch":31,"velocity":103,"startTime":67.684614,"endTime":67.95554949999999,"instrument":2,"program":32},{"pitch":31,"velocity":103,"startTime":67.98017999999999,"endTime":68.2018545,"instrument":2,"program":32},{"pitch":31,"velocity":103,"startTime":68.275746,"endTime":68.54668149999999,"instrument":2,"program":32},{"pitch":28,"velocity":103,"startTime":68.57131199999999,"endTime":68.817617,"instrument":2,"program":32},{"pitch":30,"velocity":103,"startTime":68.866878,"endTime":69.1378135,"instrument":2,"program":32},{"pitch":35,"velocity":103,"startTime":69.162444,"endTime":69.4333795,"instrument":2,"program":32},{"pitch":35,"velocity":103,"startTime":69.45801,"endTime":69.7289455,"instrument":2,"program":32},{"pitch":28,"velocity":103,"startTime":69.753576,"endTime":69.999881,"instrument":2,"program":32},{"pitch":28,"velocity":103,"startTime":70.04914199999999,"endTime":70.295447,"instrument":2,"program":32},{"pitch":35,"velocity":103,"startTime":70.344708,"endTime":70.61564349999999,"instrument":2,"program":32},{"pitch":28,"velocity":103,"startTime":70.64027399999999,"endTime":70.9112095,"instrument":2,"program":32},{"pitch":36,"velocity":103,"startTime":70.93584,"endTime":71.15751449999999,"instrument":2,"program":32},{"pitch":24,"velocity":103,"startTime":71.15751449999999,"endTime":71.23140599999999,"instrument":2,"program":32},{"pitch":36,"velocity":103,"startTime":71.23140599999999,"endTime":71.477711,"instrument":2,"program":32},{"pitch":36,"velocity":103,"startTime":71.526972,"endTime":71.7979075,"instrument":2,"program":32},{"pitch":38,"velocity":103,"startTime":71.822538,"endTime":72.0934735,"instrument":2,"program":32},{"pitch":38,"velocity":103,"startTime":72.11810399999999,"endTime":72.462931,"instrument":2,"program":32},{"pitch":33,"velocity":103,"startTime":72.41367,"endTime":72.73386649999999,"instrument":2,"program":32},{"pitch":40,"velocity":103,"startTime":72.70923599999999,"endTime":73.0294325,"instrument":2,"program":32},{"pitch":45,"velocity":103,"startTime":73.004802,"endTime":73.30036799999999,"instrument":2,"program":32},{"pitch":43,"velocity":103,"startTime":73.30036799999999,"endTime":73.5220425,"instrument":2,"program":32},{"pitch":31,"velocity":103,"startTime":73.5220425,"endTime":73.595934,"instrument":2,"program":32},{"pitch":38,"velocity":103,"startTime":73.595934,"endTime":73.8915,"instrument":2,"program":32},{"pitch":43,"velocity":103,"startTime":73.8915,"endTime":74.187066,"instrument":2,"program":32},{"pitch":38,"velocity":103,"startTime":74.187066,"endTime":74.482632,"instrument":2,"program":32},{"pitch":43,"velocity":103,"startTime":74.482632,"endTime":74.7043065,"instrument":2,"program":32},{"pitch":38,"velocity":103,"startTime":74.7043065,"endTime":74.77819799999999,"instrument":2,"program":32},{"pitch":43,"velocity":103,"startTime":74.77819799999999,"endTime":75.073764,"instrument":2,"program":32},{"pitch":43,"velocity":103,"startTime":75.073764,"endTime":75.36932999999999,"instrument":2,"program":32},{"pitch":38,"velocity":103,"startTime":75.36932999999999,"endTime":75.664896,"instrument":2,"program":32},{"pitch":43,"velocity":57,"startTime":75.68952649999999,"endTime":75.81267899999999},{"pitch":57,"velocity":57,"startTime":75.88657049999999,"endTime":75.9358315},{"pitch":59,"velocity":57,"startTime":75.88657049999999,"endTime":75.9358315},{"pitch":62,"velocity":57,"startTime":75.88657049999999,"endTime":75.9358315},{"pitch":65,"velocity":57,"startTime":75.88657049999999,"endTime":75.9358315},{"pitch":43,"velocity":57,"startTime":76.1821365,"endTime":76.256028},{"pitch":59,"velocity":57,"startTime":76.28065849999999,"endTime":76.35454999999999},{"pitch":62,"velocity":57,"startTime":76.28065849999999,"endTime":76.35454999999999},{"pitch":65,"velocity":57,"startTime":76.28065849999999,"endTime":76.35454999999999},{"pitch":43,"velocity":57,"startTime":77.0688345,"endTime":77.142726},{"pitch":59,"velocity":57,"startTime":77.16735649999998,"endTime":77.24124799999998},{"pitch":62,"velocity":57,"startTime":77.16735649999998,"endTime":77.24124799999998},{"pitch":65,"velocity":57,"startTime":77.16735649999998,"endTime":77.2658785},{"pitch":57,"velocity":57,"startTime":77.95553249999999,"endTime":78.02942399999999},{"pitch":62,"velocity":57,"startTime":77.95553249999999,"endTime":78.02942399999999},{"pitch":66,"velocity":57,"startTime":77.95553249999999,"endTime":78.02942399999999},{"pitch":71,"velocity":57,"startTime":77.95553249999999,"endTime":78.02942399999999},{"pitch":40,"velocity":57,"startTime":78.54666449999999,"endTime":78.620556},{"pitch":59,"velocity":57,"startTime":78.64518649999998,"endTime":78.71907799999998},{"pitch":62,"velocity":57,"startTime":78.64518649999998,"endTime":78.71907799999998},{"pitch":66,"velocity":57,"startTime":78.64518649999998,"endTime":78.7437085},{"pitch":40,"velocity":57,"startTime":78.94075249999999,"endTime":79.06390499999999},{"pitch":59,"velocity":57,"startTime":79.23631849999998,"endTime":79.31020999999998},{"pitch":64,"velocity":57,"startTime":79.23631849999998,"endTime":79.2855795},{"pitch":66,"velocity":57,"startTime":79.23631849999998,"endTime":79.31020999999998},{"pitch":40,"velocity":57,"startTime":79.7289285,"endTime":79.80282},{"pitch":59,"velocity":57,"startTime":79.82745049999998,"endTime":79.8767115},{"pitch":64,"velocity":57,"startTime":79.82745049999998,"endTime":79.8767115},{"pitch":66,"velocity":57,"startTime":79.82745049999998,"endTime":79.90134199999999},{"pitch":59,"velocity":57,"startTime":80.61562649999999,"endTime":80.6648875},{"pitch":60,"velocity":57,"startTime":80.61562649999999,"endTime":80.68951799999999},{"pitch":64,"velocity":57,"startTime":80.61562649999999,"endTime":80.6648875},{"pitch":55,"velocity":57,"startTime":81.20675849999999,"endTime":81.231389},{"pitch":60,"velocity":57,"startTime":81.20675849999999,"endTime":81.2560195},{"pitch":64,"velocity":57,"startTime":81.20675849999999,"endTime":81.231389},{"pitch":57,"velocity":57,"startTime":81.8964125,"endTime":81.9456735},{"pitch":62,"velocity":57,"startTime":81.8964125,"endTime":81.9456735},{"pitch":64,"velocity":57,"startTime":81.8964125,"endTime":81.9456735},{"pitch":67,"velocity":57,"startTime":81.8964125,"endTime":81.970304},{"pitch":62,"velocity":57,"startTime":82.4875445,"endTime":82.561436},{"pitch":64,"velocity":57,"startTime":82.4875445,"endTime":82.561436},{"pitch":67,"velocity":57,"startTime":82.4875445,"endTime":82.561436},{"pitch":71,"velocity":57,"startTime":82.4875445,"endTime":82.561436},{"pitch":62,"velocity":57,"startTime":82.75847999999999,"endTime":82.857002},{"pitch":43,"velocity":57,"startTime":82.78311049999999,"endTime":82.8816325},{"pitch":55,"velocity":57,"startTime":82.78311049999999,"endTime":82.857002},{"pitch":59,"velocity":57,"startTime":82.78311049999999,"endTime":82.857002},{"pitch":55,"velocity":57,"startTime":83.27572049999999,"endTime":83.32498149999999},{"pitch":59,"velocity":57,"startTime":83.27572049999999,"endTime":83.32498149999999},{"pitch":62,"velocity":57,"startTime":83.27572049999999,"endTime":83.32498149999999},{"pitch":50,"velocity":57,"startTime":83.30035099999999,"endTime":83.32498149999999},{"pitch":55,"velocity":57,"startTime":83.8668525,"endTime":85.0491165},{"pitch":59,"velocity":57,"startTime":83.8668525,"endTime":85.0491165},{"pitch":62,"velocity":57,"startTime":83.8668525,"endTime":85.0491165},{"pitch":67,"velocity":57,"startTime":83.8668525,"endTime":85.0491165},{"pitch":35,"velocity":80,"startTime":75.664896,"endTime":75.714157,"instrument":1,"isDrum":true},{"pitch":44,"velocity":80,"startTime":75.664896,"endTime":75.714157,"instrument":1,"isDrum":true},{"pitch":51,"velocity":80,"startTime":75.664896,"endTime":75.714157,"instrument":1,"isDrum":true},{"pitch":53,"velocity":80,"startTime":75.664896,"endTime":75.714157,"instrument":1,"isDrum":true},{"pitch":56,"velocity":80,"startTime":75.664896,"endTime":75.714157,"instrument":1,"isDrum":true},{"pitch":51,"velocity":80,"startTime":75.86194,"endTime":75.9358315,"instrument":1,"isDrum":true},{"pitch":35,"velocity":80,"startTime":75.96046199999999,"endTime":76.00972300000001,"instrument":1,"isDrum":true},{"pitch":44,"velocity":80,"startTime":75.96046199999999,"endTime":76.00972300000001,"instrument":1,"isDrum":true},{"pitch":51,"velocity":80,"startTime":75.96046199999999,"endTime":76.00972300000001,"instrument":1,"isDrum":true},{"pitch":53,"velocity":80,"startTime":75.96046199999999,"endTime":76.00972300000001,"instrument":1,"isDrum":true},{"pitch":56,"velocity":80,"startTime":75.96046199999999,"endTime":76.00972300000001,"instrument":1,"isDrum":true},{"pitch":51,"velocity":80,"startTime":76.157506,"endTime":76.2313975,"instrument":1,"isDrum":true},{"pitch":35,"velocity":80,"startTime":76.256028,"endTime":76.305289,"instrument":1,"isDrum":true},{"pitch":44,"velocity":80,"startTime":76.256028,"endTime":76.305289,"instrument":1,"isDrum":true},{"pitch":51,"velocity":80,"startTime":76.256028,"endTime":76.305289,"instrument":1,"isDrum":true},{"pitch":53,"velocity":80,"startTime":76.256028,"endTime":76.305289,"instrument":1,"isDrum":true},{"pitch":51,"velocity":80,"startTime":76.453072,"endTime":76.52696350000001,"instrument":1,"isDrum":true},{"pitch":35,"velocity":80,"startTime":76.551594,"endTime":76.60085500000001,"instrument":1,"isDrum":true},{"pitch":44,"velocity":80,"startTime":76.551594,"endTime":76.60085500000001,"instrument":1,"isDrum":true},{"pitch":51,"velocity":80,"startTime":76.551594,"endTime":76.60085500000001,"instrument":1,"isDrum":true},{"pitch":53,"velocity":80,"startTime":76.551594,"endTime":76.60085500000001,"instrument":1,"isDrum":true},{"pitch":56,"velocity":80,"startTime":76.551594,"endTime":76.60085500000001,"instrument":1,"isDrum":true},{"pitch":51,"velocity":80,"startTime":76.748638,"endTime":76.8225295,"instrument":1,"isDrum":true},{"pitch":35,"velocity":80,"startTime":76.84715999999999,"endTime":76.896421,"instrument":1,"isDrum":true},{"pitch":44,"velocity":80,"startTime":76.84715999999999,"endTime":76.896421,"instrument":1,"isDrum":true},{"pitch":51,"velocity":80,"startTime":76.84715999999999,"endTime":76.896421,"instrument":1,"isDrum":true},{"pitch":53,"velocity":80,"startTime":76.84715999999999,"endTime":76.896421,"instrument":1,"isDrum":true},{"pitch":51,"velocity":80,"startTime":77.04420400000001,"endTime":77.11809550000001,"instrument":1,"isDrum":true},{"pitch":35,"velocity":80,"startTime":77.142726,"endTime":77.191987,"instrument":1,"isDrum":true},{"pitch":44,"velocity":80,"startTime":77.142726,"endTime":77.191987,"instrument":1,"isDrum":true},{"pitch":51,"velocity":80,"startTime":77.142726,"endTime":77.191987,"instrument":1,"isDrum":true},{"pitch":56,"velocity":80,"startTime":77.142726,"endTime":77.191987,"instrument":1,"isDrum":true},{"pitch":38,"velocity":80,"startTime":77.43829199999999,"endTime":77.487553,"instrument":1,"isDrum":true},{"pitch":44,"velocity":80,"startTime":77.43829199999999,"endTime":77.487553,"instrument":1,"isDrum":true},{"pitch":51,"velocity":80,"startTime":77.43829199999999,"endTime":77.63533600000001,"instrument":1,"isDrum":true},{"pitch":53,"velocity":80,"startTime":77.43829199999999,"endTime":77.487553,"instrument":1,"isDrum":true},{"pitch":56,"velocity":80,"startTime":77.43829199999999,"endTime":77.487553,"instrument":1,"isDrum":true},{"pitch":35,"velocity":80,"startTime":77.733858,"endTime":77.783119,"instrument":1,"isDrum":true},{"pitch":44,"velocity":80,"startTime":77.733858,"endTime":77.783119,"instrument":1,"isDrum":true},{"pitch":51,"velocity":80,"startTime":77.733858,"endTime":77.783119,"instrument":1,"isDrum":true},{"pitch":53,"velocity":80,"startTime":77.733858,"endTime":77.783119,"instrument":1,"isDrum":true},{"pitch":51,"velocity":80,"startTime":77.930902,"endTime":78.0047935,"instrument":1,"isDrum":true},{"pitch":35,"velocity":80,"startTime":78.02942399999999,"endTime":78.07868500000001,"instrument":1,"isDrum":true},{"pitch":44,"velocity":80,"startTime":78.02942399999999,"endTime":78.07868500000001,"instrument":1,"isDrum":true},{"pitch":51,"velocity":80,"startTime":78.02942399999999,"endTime":78.07868500000001,"instrument":1,"isDrum":true},{"pitch":53,"velocity":80,"startTime":78.02942399999999,"endTime":78.07868500000001,"instrument":1,"isDrum":true},{"pitch":56,"velocity":80,"startTime":78.02942399999999,"endTime":78.07868500000001,"instrument":1,"isDrum":true},{"pitch":51,"velocity":80,"startTime":78.226468,"endTime":78.3003595,"instrument":1,"isDrum":true},{"pitch":35,"velocity":80,"startTime":78.32499,"endTime":78.374251,"instrument":1,"isDrum":true},{"pitch":44,"velocity":80,"startTime":78.32499,"endTime":78.374251,"instrument":1,"isDrum":true},{"pitch":51,"velocity":80,"startTime":78.32499,"endTime":78.374251,"instrument":1,"isDrum":true},{"pitch":53,"velocity":80,"startTime":78.32499,"endTime":78.374251,"instrument":1,"isDrum":true},{"pitch":51,"velocity":80,"startTime":78.522034,"endTime":78.5959255,"instrument":1,"isDrum":true},{"pitch":35,"velocity":80,"startTime":78.620556,"endTime":78.66981700000001,"instrument":1,"isDrum":true},{"pitch":44,"velocity":80,"startTime":78.620556,"endTime":78.66981700000001,"instrument":1,"isDrum":true},{"pitch":51,"velocity":80,"startTime":78.620556,"endTime":78.66981700000001,"instrument":1,"isDrum":true},{"pitch":53,"velocity":80,"startTime":78.620556,"endTime":78.66981700000001,"instrument":1,"isDrum":true},{"pitch":56,"velocity":80,"startTime":78.620556,"endTime":78.66981700000001,"instrument":1,"isDrum":true},{"pitch":51,"velocity":80,"startTime":78.8176,"endTime":78.8914915,"instrument":1,"isDrum":true},{"pitch":35,"velocity":80,"startTime":78.916122,"endTime":78.965383,"instrument":1,"isDrum":true},{"pitch":44,"velocity":80,"startTime":78.916122,"endTime":78.965383,"instrument":1,"isDrum":true},{"pitch":51,"velocity":80,"startTime":78.916122,"endTime":78.965383,"instrument":1,"isDrum":true},{"pitch":53,"velocity":80,"startTime":78.916122,"endTime":78.965383,"instrument":1,"isDrum":true},{"pitch":51,"velocity":80,"startTime":79.113166,"endTime":79.18705750000001,"instrument":1,"isDrum":true},{"pitch":35,"velocity":80,"startTime":79.211688,"endTime":79.260949,"instrument":1,"isDrum":true},{"pitch":44,"velocity":80,"startTime":79.211688,"endTime":79.260949,"instrument":1,"isDrum":true},{"pitch":51,"velocity":80,"startTime":79.211688,"endTime":79.260949,"instrument":1,"isDrum":true},{"pitch":53,"velocity":80,"startTime":79.211688,"endTime":79.260949,"instrument":1,"isDrum":true},{"pitch":56,"velocity":80,"startTime":79.211688,"endTime":79.260949,"instrument":1,"isDrum":true},{"pitch":51,"velocity":80,"startTime":79.408732,"endTime":79.4826235,"instrument":1,"isDrum":true},{"pitch":35,"velocity":80,"startTime":79.50725399999999,"endTime":79.556515,"instrument":1,"isDrum":true},{"pitch":44,"velocity":80,"startTime":79.50725399999999,"endTime":79.556515,"instrument":1,"isDrum":true},{"pitch":51,"velocity":80,"startTime":79.50725399999999,"endTime":79.556515,"instrument":1,"isDrum":true},{"pitch":53,"velocity":80,"startTime":79.50725399999999,"endTime":79.556515,"instrument":1,"isDrum":true},{"pitch":51,"velocity":80,"startTime":79.70429800000001,"endTime":79.77818950000001,"instrument":1,"isDrum":true},{"pitch":35,"velocity":80,"startTime":79.80282,"endTime":79.852081,"instrument":1,"isDrum":true},{"pitch":44,"velocity":80,"startTime":79.80282,"endTime":79.852081,"instrument":1,"isDrum":true},{"pitch":53,"velocity":80,"startTime":79.80282,"endTime":79.852081,"instrument":1,"isDrum":true},{"pitch":56,"velocity":80,"startTime":79.80282,"endTime":79.852081,"instrument":1,"isDrum":true},{"pitch":51,"velocity":80,"startTime":79.999864,"endTime":80.0737555,"instrument":1,"isDrum":true},{"pitch":35,"velocity":80,"startTime":80.09838599999999,"endTime":80.147647,"instrument":1,"isDrum":true},{"pitch":44,"velocity":80,"startTime":80.09838599999999,"endTime":80.147647,"instrument":1,"isDrum":true},{"pitch":51,"velocity":80,"startTime":80.09838599999999,"endTime":80.147647,"instrument":1,"isDrum":true},{"pitch":53,"velocity":80,"startTime":80.09838599999999,"endTime":80.147647,"instrument":1,"isDrum":true},{"pitch":51,"velocity":80,"startTime":80.29543000000001,"endTime":80.3693215,"instrument":1,"isDrum":true},{"pitch":35,"velocity":80,"startTime":80.393952,"endTime":80.443213,"instrument":1,"isDrum":true},{"pitch":44,"velocity":80,"startTime":80.393952,"endTime":80.443213,"instrument":1,"isDrum":true},{"pitch":51,"velocity":80,"startTime":80.393952,"endTime":80.443213,"instrument":1,"isDrum":true},{"pitch":53,"velocity":80,"startTime":80.393952,"endTime":80.443213,"instrument":1,"isDrum":true},{"pitch":56,"velocity":80,"startTime":80.393952,"endTime":80.443213,"instrument":1,"isDrum":true},{"pitch":51,"velocity":80,"startTime":80.590996,"endTime":80.6648875,"instrument":1,"isDrum":true},{"pitch":35,"velocity":80,"startTime":80.68951799999999,"endTime":80.738779,"instrument":1,"isDrum":true},{"pitch":44,"velocity":80,"startTime":80.68951799999999,"endTime":80.738779,"instrument":1,"isDrum":true},{"pitch":51,"velocity":80,"startTime":80.68951799999999,"endTime":80.738779,"instrument":1,"isDrum":true},{"pitch":53,"velocity":80,"startTime":80.68951799999999,"endTime":80.738779,"instrument":1,"isDrum":true},{"pitch":51,"velocity":80,"startTime":80.886562,"endTime":80.9604535,"instrument":1,"isDrum":true},{"pitch":35,"velocity":80,"startTime":80.985084,"endTime":81.03434499999999,"instrument":1,"isDrum":true},{"pitch":44,"velocity":80,"startTime":80.985084,"endTime":81.03434499999999,"instrument":1,"isDrum":true},{"pitch":51,"velocity":80,"startTime":80.985084,"endTime":81.03434499999999,"instrument":1,"isDrum":true},{"pitch":56,"velocity":80,"startTime":80.985084,"endTime":81.03434499999999,"instrument":1,"isDrum":true},{"pitch":51,"velocity":80,"startTime":81.18212799999999,"endTime":81.2560195,"instrument":1,"isDrum":true},{"pitch":35,"velocity":80,"startTime":81.28065,"endTime":81.329911,"instrument":1,"isDrum":true},{"pitch":44,"velocity":80,"startTime":81.28065,"endTime":81.329911,"instrument":1,"isDrum":true},{"pitch":51,"velocity":80,"startTime":81.28065,"endTime":81.329911,"instrument":1,"isDrum":true},{"pitch":53,"velocity":80,"startTime":81.28065,"endTime":81.329911,"instrument":1,"isDrum":true},{"pitch":51,"velocity":80,"startTime":81.477694,"endTime":81.55158549999999,"instrument":1,"isDrum":true},{"pitch":35,"velocity":80,"startTime":81.57621599999999,"endTime":81.62547699999999,"instrument":1,"isDrum":true},{"pitch":44,"velocity":80,"startTime":81.57621599999999,"endTime":81.62547699999999,"instrument":1,"isDrum":true},{"pitch":51,"velocity":80,"startTime":81.57621599999999,"endTime":81.62547699999999,"instrument":1,"isDrum":true},{"pitch":53,"velocity":80,"startTime":81.57621599999999,"endTime":81.62547699999999,"instrument":1,"isDrum":true},{"pitch":56,"velocity":80,"startTime":81.57621599999999,"endTime":81.62547699999999,"instrument":1,"isDrum":true},{"pitch":51,"velocity":80,"startTime":81.77326,"endTime":81.8471515,"instrument":1,"isDrum":true},{"pitch":35,"velocity":80,"startTime":81.871782,"endTime":81.921043,"instrument":1,"isDrum":true},{"pitch":44,"velocity":80,"startTime":81.871782,"endTime":81.921043,"instrument":1,"isDrum":true},{"pitch":51,"velocity":80,"startTime":81.871782,"endTime":81.921043,"instrument":1,"isDrum":true},{"pitch":53,"velocity":80,"startTime":81.871782,"endTime":81.921043,"instrument":1,"isDrum":true},{"pitch":53,"velocity":80,"startTime":81.871782,"endTime":81.921043,"instrument":1,"isDrum":true},{"pitch":51,"velocity":80,"startTime":82.068826,"endTime":82.14271749999999,"instrument":1,"isDrum":true},{"pitch":35,"velocity":80,"startTime":82.16734799999999,"endTime":82.21660899999999,"instrument":1,"isDrum":true},{"pitch":44,"velocity":80,"startTime":82.16734799999999,"endTime":82.21660899999999,"instrument":1,"isDrum":true},{"pitch":51,"velocity":80,"startTime":82.16734799999999,"endTime":82.21660899999999,"instrument":1,"isDrum":true},{"pitch":53,"velocity":80,"startTime":82.16734799999999,"endTime":82.21660899999999,"instrument":1,"isDrum":true},{"pitch":56,"velocity":80,"startTime":82.16734799999999,"endTime":82.21660899999999,"instrument":1,"isDrum":true},{"pitch":51,"velocity":80,"startTime":82.364392,"endTime":82.4382835,"instrument":1,"isDrum":true},{"pitch":35,"velocity":80,"startTime":82.462914,"endTime":82.512175,"instrument":1,"isDrum":true},{"pitch":44,"velocity":80,"startTime":82.462914,"endTime":82.512175,"instrument":1,"isDrum":true},{"pitch":51,"velocity":80,"startTime":82.462914,"endTime":82.512175,"instrument":1,"isDrum":true},{"pitch":53,"velocity":80,"startTime":82.462914,"endTime":82.512175,"instrument":1,"isDrum":true},{"pitch":51,"velocity":80,"startTime":82.65995799999999,"endTime":82.73384949999999,"instrument":1,"isDrum":true},{"pitch":35,"velocity":80,"startTime":82.75847999999999,"endTime":82.807741,"instrument":1,"isDrum":true},{"pitch":44,"velocity":80,"startTime":82.75847999999999,"endTime":82.807741,"instrument":1,"isDrum":true},{"pitch":51,"velocity":80,"startTime":82.75847999999999,"endTime":82.807741,"instrument":1,"isDrum":true},{"pitch":56,"velocity":80,"startTime":82.75847999999999,"endTime":82.807741,"instrument":1,"isDrum":true},{"pitch":51,"velocity":80,"startTime":82.955524,"endTime":83.0294155,"instrument":1,"isDrum":true},{"pitch":35,"velocity":80,"startTime":83.054046,"endTime":83.103307,"instrument":1,"isDrum":true},{"pitch":44,"velocity":80,"startTime":83.054046,"endTime":83.103307,"instrument":1,"isDrum":true},{"pitch":51,"velocity":80,"startTime":83.054046,"endTime":83.103307,"instrument":1,"isDrum":true},{"pitch":53,"velocity":80,"startTime":83.054046,"endTime":83.103307,"instrument":1,"isDrum":true},{"pitch":51,"velocity":80,"startTime":83.25108999999999,"endTime":83.32498149999999,"instrument":1,"isDrum":true},{"pitch":35,"velocity":80,"startTime":83.349612,"endTime":83.398873,"instrument":1,"isDrum":true},{"pitch":44,"velocity":80,"startTime":83.349612,"endTime":83.398873,"instrument":1,"isDrum":true},{"pitch":51,"velocity":80,"startTime":83.349612,"endTime":83.398873,"instrument":1,"isDrum":true},{"pitch":53,"velocity":80,"startTime":83.349612,"endTime":83.398873,"instrument":1,"isDrum":true},{"pitch":56,"velocity":80,"startTime":83.349612,"endTime":83.398873,"instrument":1,"isDrum":true},{"pitch":51,"velocity":80,"startTime":83.546656,"endTime":83.6205475,"instrument":1,"isDrum":true},{"pitch":31,"velocity":103,"startTime":75.664896,"endTime":75.98509249999998,"instrument":2,"program":32},{"pitch":38,"velocity":103,"startTime":75.96046199999999,"endTime":76.28065849999999,"instrument":2,"program":32},{"pitch":31,"velocity":103,"startTime":76.256028,"endTime":76.551594,"instrument":2,"program":32},{"pitch":33,"velocity":103,"startTime":76.551594,"endTime":76.84715999999999,"instrument":2,"program":32},{"pitch":31,"velocity":103,"startTime":76.84715999999999,"endTime":77.191987,"instrument":2,"program":32},{"pitch":35,"velocity":103,"startTime":77.142726,"endTime":77.43829199999999,"instrument":2,"program":32},{"pitch":38,"velocity":103,"startTime":77.43829199999999,"endTime":77.733858,"instrument":2,"program":32},{"pitch":35,"velocity":103,"startTime":77.733858,"endTime":78.02942399999999,"instrument":2,"program":32},{"pitch":28,"velocity":103,"startTime":78.02942399999999,"endTime":78.32499,"instrument":2,"program":32},{"pitch":40,"velocity":103,"startTime":78.32499,"endTime":78.5959255,"instrument":2,"program":32},{"pitch":35,"velocity":103,"startTime":78.620556,"endTime":78.8914915,"instrument":2,"program":32},{"pitch":38,"velocity":103,"startTime":78.916122,"endTime":79.211688,"instrument":2,"program":32},{"pitch":28,"velocity":103,"startTime":79.211688,"endTime":79.556515,"instrument":2,"program":32},{"pitch":35,"velocity":103,"startTime":79.50725399999999,"endTime":80.09838599999999,"instrument":2,"program":32},{"pitch":35,"velocity":103,"startTime":79.80282,"endTime":79.82745049999998,"instrument":2,"program":32},{"pitch":38,"velocity":103,"startTime":80.09838599999999,"endTime":80.393952,"instrument":2,"program":32},{"pitch":36,"velocity":103,"startTime":80.393952,"endTime":80.68951799999999,"instrument":2,"program":32},{"pitch":38,"velocity":103,"startTime":80.68951799999999,"endTime":80.985084,"instrument":2,"program":32},{"pitch":40,"velocity":103,"startTime":80.985084,"endTime":81.28065,"instrument":2,"program":32},{"pitch":43,"velocity":103,"startTime":81.28065,"endTime":81.57621599999999,"instrument":2,"program":32},{"pitch":38,"velocity":103,"startTime":81.57621599999999,"endTime":81.871782,"instrument":2,"program":32},{"pitch":40,"velocity":103,"startTime":81.871782,"endTime":82.16734799999999,"instrument":2,"program":32},{"pitch":38,"velocity":103,"startTime":82.16734799999999,"endTime":82.462914,"instrument":2,"program":32},{"pitch":38,"velocity":103,"startTime":82.462914,"endTime":82.68458849999999,"instrument":2,"program":32},{"pitch":26,"velocity":103,"startTime":82.68458849999999,"endTime":82.73384949999999,"instrument":2,"program":32},{"pitch":31,"velocity":103,"startTime":82.75847999999999,"endTime":83.103307,"instrument":2,"program":32},{"pitch":35,"velocity":103,"startTime":83.054046,"endTime":83.349612,"instrument":2,"program":32},{"pitch":38,"velocity":103,"startTime":83.349612,"endTime":83.64517799999999,"instrument":2,"program":32},{"pitch":35,"velocity":103,"startTime":83.64517799999999,"endTime":83.940744,"instrument":2,"program":32},{"pitch":31,"velocity":103,"startTime":83.940744,"endTime":84.28557099999999,"instrument":2,"program":32},{"pitch":38,"velocity":103,"startTime":84.23630999999999,"endTime":84.531876,"instrument":2,"program":32},{"pitch":38,"velocity":103,"startTime":84.531876,"endTime":84.82744199999999,"instrument":2,"program":32},{"pitch":38,"velocity":103,"startTime":84.82744199999999,"endTime":85.123008,"instrument":2,"program":32},{"pitch":43,"velocity":57,"startTime":85.34468249999999,"endTime":85.41857399999999},{"pitch":59,"velocity":57,"startTime":85.34468249999999,"endTime":85.39394349999999},{"pitch":62,"velocity":57,"startTime":85.34468249999999,"endTime":85.39394349999999},{"pitch":52,"velocity":57,"startTime":85.4432045,"endTime":85.517096},{"pitch":59,"velocity":57,"startTime":85.4432045,"endTime":85.517096},{"pitch":62,"velocity":57,"startTime":85.4432045,"endTime":85.517096},{"pitch":43,"velocity":57,"startTime":85.93581449999999,"endTime":86.009706},{"pitch":59,"velocity":57,"startTime":85.93581449999999,"endTime":86.0343365},{"pitch":62,"velocity":57,"startTime":85.93581449999999,"endTime":86.0343365},{"pitch":69,"velocity":57,"startTime":85.93581449999999,"endTime":86.0343365},{"pitch":59,"velocity":57,"startTime":86.30527199999999,"endTime":86.37916349999999},{"pitch":43,"velocity":57,"startTime":86.32990249999999,"endTime":86.37916349999999},{"pitch":62,"velocity":57,"startTime":86.32990249999999,"endTime":86.37916349999999},{"pitch":67,"velocity":57,"startTime":86.32990249999999,"endTime":86.40379399999999},{"pitch":48,"velocity":57,"startTime":86.82251249999999,"endTime":87.43827499999999},{"pitch":59,"velocity":57,"startTime":86.82251249999999,"endTime":87.38901399999999},{"pitch":67,"velocity":57,"startTime":86.82251249999999,"endTime":87.38901399999999},{"pitch":62,"velocity":57,"startTime":86.87177349999999,"endTime":87.38901399999999},{"pitch":50,"velocity":57,"startTime":87.7092105,"endTime":87.7584715},{"pitch":40,"velocity":57,"startTime":88.00477649999999,"endTime":88.05403749999999},{"pitch":59,"velocity":57,"startTime":88.00477649999999,"endTime":88.05403749999999},{"pitch":52,"velocity":57,"startTime":88.1032985,"endTime":88.17719},{"pitch":55,"velocity":57,"startTime":88.1032985,"endTime":88.1525595},{"pitch":62,"velocity":57,"startTime":88.1032985,"endTime":88.17719},{"pitch":50,"velocity":57,"startTime":88.5959085,"endTime":88.7436915},{"pitch":59,"velocity":57,"startTime":88.5959085,"endTime":88.7436915},{"pitch":62,"velocity":57,"startTime":88.5959085,"endTime":88.768322},{"pitch":67,"velocity":57,"startTime":88.5959085,"endTime":88.7436915},{"pitch":50,"velocity":57,"startTime":89.1870405,"endTime":89.63038949999999},{"pitch":59,"velocity":57,"startTime":89.1870405,"endTime":89.58112849999999},{"pitch":62,"velocity":57,"startTime":89.1870405,"endTime":89.58112849999999},{"pitch":67,"velocity":57,"startTime":89.1870405,"endTime":89.58112849999999},{"pitch":48,"velocity":57,"startTime":90.07373849999999,"endTime":90.12299949999999},{"pitch":59,"velocity":57,"startTime":90.14762999999999,"endTime":90.2215215},{"pitch":64,"velocity":57,"startTime":90.14762999999999,"endTime":90.2215215},{"pitch":67,"velocity":57,"startTime":90.14762999999999,"endTime":90.246152},{"pitch":59,"velocity":57,"startTime":90.46782649999999,"endTime":90.64023999999999},{"pitch":64,"velocity":57,"startTime":90.46782649999999,"endTime":90.61560949999999},{"pitch":67,"velocity":57,"startTime":90.46782649999999,"endTime":90.61560949999999},{"pitch":71,"velocity":57,"startTime":90.46782649999999,"endTime":90.61560949999999},{"pitch":59,"velocity":57,"startTime":90.9604365,"endTime":91.15748049999999},{"pitch":62,"velocity":57,"startTime":90.9604365,"endTime":91.15748049999999},{"pitch":67,"velocity":57,"startTime":90.9604365,"endTime":91.13284999999999},{"pitch":71,"velocity":57,"startTime":90.9604365,"endTime":91.10821949999999},{"pitch":62,"velocity":57,"startTime":91.329894,"endTime":91.4530465},{"pitch":67,"velocity":57,"startTime":91.329894,"endTime":91.4530465},{"pitch":71,"velocity":57,"startTime":91.329894,"endTime":91.4530465},{"pitch":59,"velocity":57,"startTime":91.8471345,"endTime":91.8963955},{"pitch":62,"velocity":57,"startTime":91.8471345,"endTime":91.8963955},{"pitch":67,"velocity":57,"startTime":91.8471345,"endTime":91.8963955},{"pitch":71,"velocity":57,"startTime":91.8471345,"endTime":91.8963955},{"pitch":43,"velocity":57,"startTime":92.14270049999999,"endTime":92.19196149999999},{"pitch":59,"velocity":57,"startTime":92.24122249999999,"endTime":92.315114},{"pitch":62,"velocity":57,"startTime":92.24122249999999,"endTime":92.3397445},{"pitch":69,"velocity":57,"startTime":92.24122249999999,"endTime":92.315114},{"pitch":43,"velocity":57,"startTime":92.73383249999999,"endTime":92.78309349999999},{"pitch":59,"velocity":57,"startTime":92.807724,"endTime":92.8816155},{"pitch":62,"velocity":57,"startTime":92.807724,"endTime":92.906246},{"pitch":69,"velocity":57,"startTime":92.807724,"endTime":92.906246},{"pitch":43,"velocity":57,"startTime":93.0293985,"endTime":93.0786595},{"pitch":59,"velocity":57,"startTime":93.10328999999999,"endTime":93.17718149999999},{"pitch":62,"velocity":57,"startTime":93.10328999999999,"endTime":93.20181199999999},{"pitch":69,"velocity":57,"startTime":93.10328999999999,"endTime":93.17718149999999},{"pitch":43,"velocity":57,"startTime":93.62053049999999,"endTime":93.66979149999999},{"pitch":57,"velocity":57,"startTime":93.71905249999999,"endTime":93.79294399999999},{"pitch":62,"velocity":57,"startTime":93.71905249999999,"endTime":93.81757449999999},{"pitch":69,"velocity":57,"startTime":93.71905249999999,"endTime":93.79294399999999},{"pitch":43,"velocity":57,"startTime":93.9160965,"endTime":93.9653575},{"pitch":57,"velocity":57,"startTime":94.0146185,"endTime":94.08851},{"pitch":62,"velocity":57,"startTime":94.0146185,"endTime":94.08851},{"pitch":69,"velocity":57,"startTime":94.0146185,"endTime":94.1131405},{"pitch":43,"velocity":57,"startTime":94.21166249999999,"endTime":94.26092349999999},{"pitch":57,"velocity":57,"startTime":94.31018449999999,"endTime":94.384076},{"pitch":62,"velocity":57,"startTime":94.31018449999999,"endTime":94.384076},{"pitch":69,"velocity":57,"startTime":94.31018449999999,"endTime":94.4087065},{"pitch":35,"velocity":80,"startTime":85.123008,"endTime":85.172269,"instrument":1,"isDrum":true},{"pitch":44,"velocity":80,"startTime":85.123008,"endTime":85.172269,"instrument":1,"isDrum":true},{"pitch":51,"velocity":80,"startTime":85.123008,"endTime":85.172269,"instrument":1,"isDrum":true},{"pitch":53,"velocity":80,"startTime":85.123008,"endTime":85.172269,"instrument":1,"isDrum":true},{"pitch":56,"velocity":80,"startTime":85.123008,"endTime":85.172269,"instrument":1,"isDrum":true},{"pitch":53,"velocity":80,"startTime":85.32005199999999,"endTime":85.39394349999999,"instrument":1,"isDrum":true},{"pitch":37,"velocity":80,"startTime":85.41857399999999,"endTime":85.467835,"instrument":1,"isDrum":true},{"pitch":44,"velocity":80,"startTime":85.41857399999999,"endTime":85.467835,"instrument":1,"isDrum":true},{"pitch":51,"velocity":80,"startTime":85.41857399999999,"endTime":85.467835,"instrument":1,"isDrum":true},{"pitch":56,"velocity":80,"startTime":85.41857399999999,"endTime":85.467835,"instrument":1,"isDrum":true},{"pitch":53,"velocity":80,"startTime":85.615618,"endTime":85.6895095,"instrument":1,"isDrum":true},{"pitch":35,"velocity":80,"startTime":85.71414,"endTime":85.76340099999999,"instrument":1,"isDrum":true},{"pitch":44,"velocity":80,"startTime":85.71414,"endTime":85.76340099999999,"instrument":1,"isDrum":true},{"pitch":51,"velocity":80,"startTime":85.71414,"endTime":85.76340099999999,"instrument":1,"isDrum":true},{"pitch":53,"velocity":80,"startTime":85.71414,"endTime":85.76340099999999,"instrument":1,"isDrum":true},{"pitch":51,"velocity":80,"startTime":85.91118399999999,"endTime":85.9850755,"instrument":1,"isDrum":true},{"pitch":37,"velocity":80,"startTime":86.009706,"endTime":86.058967,"instrument":1,"isDrum":true},{"pitch":38,"velocity":80,"startTime":86.009706,"endTime":86.058967,"instrument":1,"isDrum":true},{"pitch":44,"velocity":80,"startTime":86.009706,"endTime":86.058967,"instrument":1,"isDrum":true},{"pitch":51,"velocity":80,"startTime":86.009706,"endTime":86.058967,"instrument":1,"isDrum":true},{"pitch":53,"velocity":80,"startTime":86.009706,"endTime":86.058967,"instrument":1,"isDrum":true},{"pitch":56,"velocity":80,"startTime":86.009706,"endTime":86.058967,"instrument":1,"isDrum":true},{"pitch":35,"velocity":80,"startTime":86.20675,"endTime":86.28064149999999,"instrument":1,"isDrum":true},{"pitch":53,"velocity":80,"startTime":86.20675,"endTime":86.30527199999999,"instrument":1,"isDrum":true},{"pitch":35,"velocity":80,"startTime":86.30527199999999,"endTime":86.32990249999999,"instrument":1,"isDrum":true},{"pitch":44,"velocity":80,"startTime":86.30527199999999,"endTime":86.32990249999999,"instrument":1,"isDrum":true},{"pitch":53,"velocity":80,"startTime":86.30527199999999,"endTime":86.32990249999999,"instrument":1,"isDrum":true},{"pitch":35,"velocity":80,"startTime":86.502316,"endTime":86.5762075,"instrument":1,"isDrum":true},{"pitch":51,"velocity":80,"startTime":86.502316,"endTime":86.5762075,"instrument":1,"isDrum":true},{"pitch":53,"velocity":80,"startTime":86.502316,"endTime":88.42349499999999,"instrument":1,"isDrum":true},{"pitch":38,"velocity":80,"startTime":86.600838,"endTime":86.650099,"instrument":1,"isDrum":true},{"pitch":44,"velocity":80,"startTime":86.600838,"endTime":86.650099,"instrument":1,"isDrum":true},{"pitch":53,"velocity":80,"startTime":86.600838,"endTime":86.650099,"instrument":1,"isDrum":true},{"pitch":56,"velocity":80,"startTime":86.600838,"endTime":86.650099,"instrument":1,"isDrum":true},{"pitch":51,"velocity":80,"startTime":86.79788199999999,"endTime":86.87177349999999,"instrument":1,"isDrum":true},{"pitch":35,"velocity":80,"startTime":86.89640399999999,"endTime":86.94566499999999,"instrument":1,"isDrum":true},{"pitch":44,"velocity":80,"startTime":86.89640399999999,"endTime":86.94566499999999,"instrument":1,"isDrum":true},{"pitch":53,"velocity":80,"startTime":86.89640399999999,"endTime":86.94566499999999,"instrument":1,"isDrum":true},{"pitch":35,"velocity":80,"startTime":87.093448,"endTime":87.1673395,"instrument":1,"isDrum":true},{"pitch":51,"velocity":80,"startTime":87.093448,"endTime":87.1673395,"instrument":1,"isDrum":true},{"pitch":37,"velocity":80,"startTime":87.19197,"endTime":87.241231,"instrument":1,"isDrum":true},{"pitch":38,"velocity":80,"startTime":87.19197,"endTime":87.241231,"instrument":1,"isDrum":true},{"pitch":44,"velocity":80,"startTime":87.19197,"endTime":87.241231,"instrument":1,"isDrum":true},{"pitch":53,"velocity":80,"startTime":87.19197,"endTime":87.241231,"instrument":1,"isDrum":true},{"pitch":54,"velocity":80,"startTime":87.19197,"endTime":87.241231,"instrument":1,"isDrum":true},{"pitch":35,"velocity":80,"startTime":87.38901399999999,"endTime":87.46290549999999,"instrument":1,"isDrum":true},{"pitch":51,"velocity":80,"startTime":87.38901399999999,"endTime":87.46290549999999,"instrument":1,"isDrum":true},{"pitch":35,"velocity":80,"startTime":87.48753599999999,"endTime":87.53679699999999,"instrument":1,"isDrum":true},{"pitch":44,"velocity":80,"startTime":87.48753599999999,"endTime":87.53679699999999,"instrument":1,"isDrum":true},{"pitch":51,"velocity":80,"startTime":87.48753599999999,"endTime":87.53679699999999,"instrument":1,"isDrum":true},{"pitch":53,"velocity":80,"startTime":87.48753599999999,"endTime":87.53679699999999,"instrument":1,"isDrum":true},{"pitch":51,"velocity":80,"startTime":87.68458,"endTime":87.7584715,"instrument":1,"isDrum":true},{"pitch":37,"velocity":80,"startTime":87.783102,"endTime":87.832363,"instrument":1,"isDrum":true},{"pitch":38,"velocity":80,"startTime":87.783102,"endTime":87.832363,"instrument":1,"isDrum":true},{"pitch":44,"velocity":80,"startTime":87.783102,"endTime":87.832363,"instrument":1,"isDrum":true},{"pitch":51,"velocity":80,"startTime":87.783102,"endTime":87.832363,"instrument":1,"isDrum":true},{"pitch":53,"velocity":80,"startTime":87.783102,"endTime":87.832363,"instrument":1,"isDrum":true},{"pitch":56,"velocity":80,"startTime":87.783102,"endTime":87.832363,"instrument":1,"isDrum":true},{"pitch":35,"velocity":80,"startTime":87.98014599999999,"endTime":88.05403749999999,"instrument":1,"isDrum":true},{"pitch":38,"velocity":80,"startTime":87.98014599999999,"endTime":88.05403749999999,"instrument":1,"isDrum":true},{"pitch":51,"velocity":80,"startTime":87.98014599999999,"endTime":88.05403749999999,"instrument":1,"isDrum":true},{"pitch":35,"velocity":80,"startTime":88.078668,"endTime":88.127929,"instrument":1,"isDrum":true},{"pitch":44,"velocity":80,"startTime":88.078668,"endTime":88.127929,"instrument":1,"isDrum":true},{"pitch":53,"velocity":80,"startTime":88.078668,"endTime":88.127929,"instrument":1,"isDrum":true},{"pitch":35,"velocity":80,"startTime":88.275712,"endTime":88.3496035,"instrument":1,"isDrum":true},{"pitch":51,"velocity":80,"startTime":88.275712,"endTime":88.3496035,"instrument":1,"isDrum":true},{"pitch":37,"velocity":80,"startTime":88.37423399999999,"endTime":88.42349499999999,"instrument":1,"isDrum":true},{"pitch":38,"velocity":80,"startTime":88.37423399999999,"endTime":88.42349499999999,"instrument":1,"isDrum":true},{"pitch":44,"velocity":80,"startTime":88.37423399999999,"endTime":88.42349499999999,"instrument":1,"isDrum":true},{"pitch":53,"velocity":80,"startTime":88.37423399999999,"endTime":88.42349499999999,"instrument":1,"isDrum":true},{"pitch":56,"velocity":80,"startTime":88.37423399999999,"endTime":88.42349499999999,"instrument":1,"isDrum":true},{"pitch":51,"velocity":80,"startTime":88.57127799999999,"endTime":88.6451695,"instrument":1,"isDrum":true},{"pitch":35,"velocity":80,"startTime":88.6698,"endTime":88.719061,"instrument":1,"isDrum":true},{"pitch":44,"velocity":80,"startTime":88.6698,"endTime":88.719061,"instrument":1,"isDrum":true},{"pitch":53,"velocity":80,"startTime":88.6698,"endTime":88.719061,"instrument":1,"isDrum":true},{"pitch":51,"velocity":80,"startTime":88.866844,"endTime":88.94073549999999,"instrument":1,"isDrum":true},{"pitch":37,"velocity":80,"startTime":88.96536599999999,"endTime":89.01462699999999,"instrument":1,"isDrum":true},{"pitch":38,"velocity":80,"startTime":88.96536599999999,"endTime":89.01462699999999,"instrument":1,"isDrum":true},{"pitch":44,"velocity":80,"startTime":88.96536599999999,"endTime":89.01462699999999,"instrument":1,"isDrum":true},{"pitch":51,"velocity":80,"startTime":88.96536599999999,"endTime":89.01462699999999,"instrument":1,"isDrum":true},{"pitch":53,"velocity":80,"startTime":88.96536599999999,"endTime":89.01462699999999,"instrument":1,"isDrum":true},{"pitch":51,"velocity":80,"startTime":89.16241,"endTime":89.2363015,"instrument":1,"isDrum":true},{"pitch":35,"velocity":80,"startTime":89.260932,"endTime":89.310193,"instrument":1,"isDrum":true},{"pitch":44,"velocity":80,"startTime":89.260932,"endTime":89.310193,"instrument":1,"isDrum":true},{"pitch":51,"velocity":80,"startTime":89.260932,"endTime":89.310193,"instrument":1,"isDrum":true},{"pitch":53,"velocity":80,"startTime":89.260932,"endTime":89.310193,"instrument":1,"isDrum":true},{"pitch":51,"velocity":80,"startTime":89.45797599999999,"endTime":89.53186749999999,"instrument":1,"isDrum":true},{"pitch":37,"velocity":80,"startTime":89.55649799999999,"endTime":89.60575899999999,"instrument":1,"isDrum":true},{"pitch":38,"velocity":80,"startTime":89.55649799999999,"endTime":89.60575899999999,"instrument":1,"isDrum":true},{"pitch":44,"velocity":80,"startTime":89.55649799999999,"endTime":89.60575899999999,"instrument":1,"isDrum":true},{"pitch":51,"velocity":80,"startTime":89.55649799999999,"endTime":89.60575899999999,"instrument":1,"isDrum":true},{"pitch":53,"velocity":80,"startTime":89.55649799999999,"endTime":89.60575899999999,"instrument":1,"isDrum":true},{"pitch":35,"velocity":80,"startTime":89.753542,"endTime":89.8274335,"instrument":1,"isDrum":true},{"pitch":51,"velocity":80,"startTime":89.753542,"endTime":89.8274335,"instrument":1,"isDrum":true},{"pitch":35,"velocity":80,"startTime":89.852064,"endTime":89.901325,"instrument":1,"isDrum":true},{"pitch":44,"velocity":80,"startTime":89.852064,"endTime":89.901325,"instrument":1,"isDrum":true},{"pitch":51,"velocity":80,"startTime":89.852064,"endTime":89.901325,"instrument":1,"isDrum":true},{"pitch":53,"velocity":80,"startTime":89.852064,"endTime":89.901325,"instrument":1,"isDrum":true},{"pitch":51,"velocity":80,"startTime":90.04910799999999,"endTime":90.12299949999999,"instrument":1,"isDrum":true},{"pitch":37,"velocity":80,"startTime":90.14762999999999,"endTime":90.196891,"instrument":1,"isDrum":true},{"pitch":38,"velocity":80,"startTime":90.14762999999999,"endTime":90.196891,"instrument":1,"isDrum":true},{"pitch":44,"velocity":80,"startTime":90.14762999999999,"endTime":90.196891,"instrument":1,"isDrum":true},{"pitch":51,"velocity":80,"startTime":90.14762999999999,"endTime":90.196891,"instrument":1,"isDrum":true},{"pitch":53,"velocity":80,"startTime":90.14762999999999,"endTime":90.196891,"instrument":1,"isDrum":true},{"pitch":51,"velocity":80,"startTime":90.344674,"endTime":90.4185655,"instrument":1,"isDrum":true},{"pitch":35,"velocity":80,"startTime":90.443196,"endTime":90.46782649999999,"instrument":1,"isDrum":true},{"pitch":44,"velocity":80,"startTime":90.443196,"endTime":90.46782649999999,"instrument":1,"isDrum":true},{"pitch":51,"velocity":80,"startTime":90.443196,"endTime":90.46782649999999,"instrument":1,"isDrum":true},{"pitch":53,"velocity":80,"startTime":90.443196,"endTime":90.46782649999999,"instrument":1,"isDrum":true},{"pitch":35,"velocity":80,"startTime":90.64023999999999,"endTime":90.7141315,"instrument":1,"isDrum":true},{"pitch":51,"velocity":80,"startTime":90.64023999999999,"endTime":90.7141315,"instrument":1,"isDrum":true},{"pitch":37,"velocity":80,"startTime":90.738762,"endTime":90.788023,"instrument":1,"isDrum":true},{"pitch":44,"velocity":80,"startTime":90.738762,"endTime":90.788023,"instrument":1,"isDrum":true},{"pitch":53,"velocity":80,"startTime":90.738762,"endTime":90.788023,"instrument":1,"isDrum":true},{"pitch":56,"velocity":80,"startTime":90.738762,"endTime":90.788023,"instrument":1,"isDrum":true},{"pitch":51,"velocity":80,"startTime":90.935806,"endTime":91.00969749999999,"instrument":1,"isDrum":true},{"pitch":35,"velocity":80,"startTime":91.03432799999999,"endTime":91.08358899999999,"instrument":1,"isDrum":true},{"pitch":44,"velocity":80,"startTime":91.03432799999999,"endTime":91.08358899999999,"instrument":1,"isDrum":true},{"pitch":51,"velocity":80,"startTime":91.03432799999999,"endTime":91.08358899999999,"instrument":1,"isDrum":true},{"pitch":53,"velocity":80,"startTime":91.03432799999999,"endTime":91.08358899999999,"instrument":1,"isDrum":true},{"pitch":51,"velocity":80,"startTime":91.231372,"endTime":91.3052635,"instrument":1,"isDrum":true},{"pitch":37,"velocity":80,"startTime":91.329894,"endTime":91.379155,"instrument":1,"isDrum":true},{"pitch":38,"velocity":80,"startTime":91.329894,"endTime":91.379155,"instrument":1,"isDrum":true},{"pitch":44,"velocity":80,"startTime":91.329894,"endTime":91.379155,"instrument":1,"isDrum":true},{"pitch":51,"velocity":80,"startTime":91.329894,"endTime":91.379155,"instrument":1,"isDrum":true},{"pitch":53,"velocity":80,"startTime":91.329894,"endTime":91.379155,"instrument":1,"isDrum":true},{"pitch":51,"velocity":80,"startTime":91.52693799999999,"endTime":91.60082949999999,"instrument":1,"isDrum":true},{"pitch":35,"velocity":80,"startTime":91.62545999999999,"endTime":91.67472099999999,"instrument":1,"isDrum":true},{"pitch":44,"velocity":80,"startTime":91.62545999999999,"endTime":91.67472099999999,"instrument":1,"isDrum":true},{"pitch":51,"velocity":80,"startTime":91.62545999999999,"endTime":91.67472099999999,"instrument":1,"isDrum":true},{"pitch":53,"velocity":80,"startTime":91.62545999999999,"endTime":91.67472099999999,"instrument":1,"isDrum":true},{"pitch":51,"velocity":80,"startTime":91.822504,"endTime":91.8963955,"instrument":1,"isDrum":true},{"pitch":37,"velocity":80,"startTime":91.921026,"endTime":91.970287,"instrument":1,"isDrum":true},{"pitch":38,"velocity":80,"startTime":91.921026,"endTime":91.970287,"instrument":1,"isDrum":true},{"pitch":44,"velocity":80,"startTime":91.921026,"endTime":91.970287,"instrument":1,"isDrum":true},{"pitch":51,"velocity":80,"startTime":91.921026,"endTime":91.970287,"instrument":1,"isDrum":true},{"pitch":53,"velocity":80,"startTime":91.921026,"endTime":91.970287,"instrument":1,"isDrum":true},{"pitch":51,"velocity":80,"startTime":92.11806999999999,"endTime":92.19196149999999,"instrument":1,"isDrum":true},{"pitch":35,"velocity":80,"startTime":92.21659199999999,"endTime":92.26585299999999,"instrument":1,"isDrum":true},{"pitch":44,"velocity":80,"startTime":92.21659199999999,"endTime":92.26585299999999,"instrument":1,"isDrum":true},{"pitch":51,"velocity":80,"startTime":92.21659199999999,"endTime":92.26585299999999,"instrument":1,"isDrum":true},{"pitch":53,"velocity":80,"startTime":92.21659199999999,"endTime":92.26585299999999,"instrument":1,"isDrum":true},{"pitch":51,"velocity":80,"startTime":92.413636,"endTime":92.4875275,"instrument":1,"isDrum":true},{"pitch":37,"velocity":80,"startTime":92.512158,"endTime":92.56141899999999,"instrument":1,"isDrum":true},{"pitch":38,"velocity":80,"startTime":92.512158,"endTime":92.56141899999999,"instrument":1,"isDrum":true},{"pitch":44,"velocity":80,"startTime":92.512158,"endTime":92.56141899999999,"instrument":1,"isDrum":true},{"pitch":51,"velocity":80,"startTime":92.512158,"endTime":92.56141899999999,"instrument":1,"isDrum":true},{"pitch":53,"velocity":80,"startTime":92.512158,"endTime":92.56141899999999,"instrument":1,"isDrum":true},{"pitch":35,"velocity":80,"startTime":92.70920199999999,"endTime":92.78309349999999,"instrument":1,"isDrum":true},{"pitch":51,"velocity":80,"startTime":92.70920199999999,"endTime":92.78309349999999,"instrument":1,"isDrum":true},{"pitch":44,"velocity":80,"startTime":92.807724,"endTime":92.856985,"instrument":1,"isDrum":true},{"pitch":51,"velocity":80,"startTime":92.807724,"endTime":92.856985,"instrument":1,"isDrum":true},{"pitch":53,"velocity":80,"startTime":92.807724,"endTime":92.856985,"instrument":1,"isDrum":true},{"pitch":35,"velocity":80,"startTime":93.004768,"endTime":93.0786595,"instrument":1,"isDrum":true},{"pitch":51,"velocity":80,"startTime":93.004768,"endTime":93.0786595,"instrument":1,"isDrum":true},{"pitch":37,"velocity":80,"startTime":93.10328999999999,"endTime":93.15255099999999,"instrument":1,"isDrum":true},{"pitch":38,"velocity":80,"startTime":93.10328999999999,"endTime":93.15255099999999,"instrument":1,"isDrum":true},{"pitch":44,"velocity":80,"startTime":93.10328999999999,"endTime":93.15255099999999,"instrument":1,"isDrum":true},{"pitch":53,"velocity":80,"startTime":93.10328999999999,"endTime":93.15255099999999,"instrument":1,"isDrum":true},{"pitch":35,"velocity":80,"startTime":93.30033399999999,"endTime":93.3742255,"instrument":1,"isDrum":true},{"pitch":51,"velocity":80,"startTime":93.30033399999999,"endTime":93.3742255,"instrument":1,"isDrum":true},{"pitch":31,"velocity":103,"startTime":85.123008,"endTime":85.467835,"instrument":2,"program":32},{"pitch":38,"velocity":103,"startTime":85.41857399999999,"endTime":85.7387705,"instrument":2,"program":32},{"pitch":35,"velocity":103,"startTime":85.71414,"endTime":86.009706,"instrument":2,"program":32},{"pitch":38,"velocity":103,"startTime":86.009706,"endTime":86.30527199999999,"instrument":2,"program":32},{"pitch":31,"velocity":103,"startTime":86.30527199999999,"endTime":86.650099,"instrument":2,"program":32},{"pitch":38,"velocity":103,"startTime":86.600838,"endTime":86.92103449999999,"instrument":2,"program":32},{"pitch":31,"velocity":103,"startTime":86.89640399999999,"endTime":87.48753599999999,"instrument":2,"program":32},{"pitch":31,"velocity":103,"startTime":87.19197,"endTime":87.2166005,"instrument":2,"program":32},{"pitch":28,"velocity":103,"startTime":87.48753599999999,"endTime":87.733841,"instrument":2,"program":32},{"pitch":28,"velocity":103,"startTime":87.783102,"endTime":88.078668,"instrument":2,"program":32},{"pitch":28,"velocity":103,"startTime":88.078668,"endTime":88.275712,"instrument":2,"program":32},{"pitch":28,"velocity":103,"startTime":88.3003425,"endTime":88.37423399999999,"instrument":2,"program":32},{"pitch":33,"velocity":103,"startTime":88.37423399999999,"endTime":88.6698,"instrument":2,"program":32},{"pitch":28,"velocity":103,"startTime":88.6698,"endTime":88.96536599999999,"instrument":2,"program":32},{"pitch":28,"velocity":103,"startTime":88.96536599999999,"endTime":89.260932,"instrument":2,"program":32},{"pitch":28,"velocity":103,"startTime":89.260932,"endTime":89.45797599999999,"instrument":2,"program":32},{"pitch":28,"velocity":103,"startTime":89.48260649999999,"endTime":89.55649799999999,"instrument":2,"program":32},{"pitch":35,"velocity":103,"startTime":89.55649799999999,"endTime":89.852064,"instrument":2,"program":32},{"pitch":36,"velocity":103,"startTime":89.852064,"endTime":90.196891,"instrument":2,"program":32},{"pitch":31,"velocity":103,"startTime":90.14762999999999,"endTime":90.738762,"instrument":2,"program":32},{"pitch":31,"velocity":103,"startTime":90.443196,"endTime":90.46782649999999,"instrument":2,"program":32},{"pitch":36,"velocity":103,"startTime":90.738762,"endTime":91.03432799999999,"instrument":2,"program":32},{"pitch":38,"velocity":103,"startTime":91.03432799999999,"endTime":91.329894,"instrument":2,"program":32},{"pitch":38,"velocity":103,"startTime":91.329894,"endTime":91.62545999999999,"instrument":2,"program":32},{"pitch":38,"velocity":103,"startTime":91.62545999999999,"endTime":91.921026,"instrument":2,"program":32},{"pitch":38,"velocity":103,"startTime":91.921026,"endTime":92.21659199999999,"instrument":2,"program":32},{"pitch":43,"velocity":103,"startTime":92.21659199999999,"endTime":92.4875275,"instrument":2,"program":32},{"pitch":31,"velocity":103,"startTime":92.4382665,"endTime":92.512158,"instrument":2,"program":32},{"pitch":43,"velocity":103,"startTime":92.512158,"endTime":92.807724,"instrument":2,"program":32},{"pitch":43,"velocity":103,"startTime":92.807724,"endTime":93.10328999999999,"instrument":2,"program":32},{"pitch":38,"velocity":103,"startTime":93.10328999999999,"endTime":93.398856,"instrument":2,"program":32},{"pitch":31,"velocity":103,"startTime":93.398856,"endTime":93.74368299999999,"instrument":2,"program":32},{"pitch":38,"velocity":103,"startTime":93.69442199999999,"endTime":93.989988,"instrument":2,"program":32},{"pitch":31,"velocity":103,"startTime":93.989988,"endTime":94.28555399999999,"instrument":2,"program":32},{"pitch":31,"velocity":103,"startTime":94.28555399999999,"endTime":94.482598,"instrument":2,"program":32},{"pitch":31,"velocity":103,"startTime":94.5072285,"endTime":94.58112,"instrument":2,"program":32},{"pitch":43,"velocity":57,"startTime":94.6057505,"endTime":94.67964199999999},{"pitch":59,"velocity":57,"startTime":94.6057505,"endTime":94.67964199999999},{"pitch":62,"velocity":57,"startTime":94.6057505,"endTime":94.70427249999999},{"pitch":66,"velocity":57,"startTime":94.6057505,"endTime":94.67964199999999},{"pitch":43,"velocity":57,"startTime":95.39392649999999,"endTime":95.467818},{"pitch":55,"velocity":57,"startTime":95.39392649999999,"endTime":95.467818},{"pitch":59,"velocity":57,"startTime":95.39392649999999,"endTime":95.467818},{"pitch":62,"velocity":57,"startTime":95.39392649999999,"endTime":95.4431875},{"pitch":66,"velocity":57,"startTime":95.39392649999999,"endTime":95.467818},{"pitch":43,"velocity":57,"startTime":95.6894925,"endTime":96.92101749999999},{"pitch":59,"velocity":57,"startTime":95.6894925,"endTime":96.92101749999999},{"pitch":62,"velocity":57,"startTime":95.6894925,"endTime":96.92101749999999},{"pitch":65,"velocity":57,"startTime":95.6894925,"endTime":96.92101749999999},{"pitch":40,"velocity":57,"startTime":96.94564799999999,"endTime":97.0195395},{"pitch":56,"velocity":57,"startTime":96.94564799999999,"endTime":97.0195395},{"pitch":59,"velocity":57,"startTime":96.94564799999999,"endTime":97.04417},{"pitch":52,"velocity":57,"startTime":96.97027849999999,"endTime":97.0195395},{"pitch":62,"velocity":57,"startTime":96.97027849999999,"endTime":97.0195395},{"pitch":40,"velocity":57,"startTime":97.7584545,"endTime":97.783085},{"pitch":59,"velocity":57,"startTime":97.83234599999999,"endTime":97.93086799999999},{"pitch":62,"velocity":57,"startTime":97.83234599999999,"endTime":97.93086799999999},{"pitch":40,"velocity":57,"startTime":98.34958649999999,"endTime":98.42347799999999},{"pitch":59,"velocity":57,"startTime":98.34958649999999,"endTime":98.42347799999999},{"pitch":67,"velocity":57,"startTime":98.34958649999999,"endTime":98.42347799999999},{"pitch":52,"velocity":57,"startTime":98.37421699999999,"endTime":98.42347799999999},{"pitch":54,"velocity":57,"startTime":98.94071849999999,"endTime":98.98997949999999},{"pitch":59,"velocity":57,"startTime":98.94071849999999,"endTime":98.98997949999999},{"pitch":64,"velocity":57,"startTime":98.94071849999999,"endTime":98.98997949999999},{"pitch":36,"velocity":57,"startTime":99.2362845,"endTime":99.43332849999999},{"pitch":59,"velocity":57,"startTime":99.2362845,"endTime":99.43332849999999},{"pitch":60,"velocity":57,"startTime":99.2362845,"endTime":99.40869799999999},{"pitch":64,"velocity":57,"startTime":99.2362845,"endTime":99.40869799999999},{"pitch":38,"velocity":57,"startTime":100.4185485,"endTime":100.7633755},{"pitch":57,"velocity":57,"startTime":100.7141145,"endTime":100.788006},{"pitch":60,"velocity":57,"startTime":100.7141145,"endTime":100.7633755},{"pitch":64,"velocity":57,"startTime":100.7141145,"endTime":100.7633755},{"pitch":57,"velocity":57,"startTime":101.60081249999999,"endTime":101.7485955},{"pitch":64,"velocity":57,"startTime":101.60081249999999,"endTime":101.7485955},{"pitch":67,"velocity":57,"startTime":101.60081249999999,"endTime":101.7485955},{"pitch":74,"velocity":57,"startTime":101.60081249999999,"endTime":101.7485955},{"pitch":43,"velocity":57,"startTime":102.19194449999999,"endTime":102.265836},{"pitch":57,"velocity":57,"startTime":102.19194449999999,"endTime":102.265836},{"pitch":59,"velocity":57,"startTime":102.19194449999999,"endTime":102.265836},{"pitch":64,"velocity":57,"startTime":102.19194449999999,"endTime":102.265836},{"pitch":67,"velocity":57,"startTime":102.19194449999999,"endTime":102.265836},{"pitch":43,"velocity":57,"startTime":102.78307649999999,"endTime":102.8815985},{"pitch":64,"velocity":57,"startTime":102.78307649999999,"endTime":102.8815985},{"pitch":65,"velocity":57,"startTime":102.78307649999999,"endTime":102.906229},{"pitch":69,"velocity":57,"startTime":102.78307649999999,"endTime":102.8815985},{"pitch":57,"velocity":57,"startTime":103.3742085,"endTime":103.4481},{"pitch":64,"velocity":57,"startTime":103.3742085,"endTime":103.4481},{"pitch":71,"velocity":57,"startTime":103.3742085,"endTime":103.4481},{"pitch":43,"velocity":57,"startTime":103.398839,"endTime":103.4481},{"pitch":35,"velocity":80,"startTime":94.58112,"endTime":94.630381,"instrument":1,"isDrum":true},{"pitch":51,"velocity":80,"startTime":94.58112,"endTime":94.630381,"instrument":1,"isDrum":true},{"pitch":59,"velocity":80,"startTime":94.77816399999999,"endTime":94.85205549999999,"instrument":1,"isDrum":true},{"pitch":35,"velocity":80,"startTime":94.87668599999999,"endTime":94.925947,"instrument":1,"isDrum":true},{"pitch":44,"velocity":80,"startTime":94.87668599999999,"endTime":94.925947,"instrument":1,"isDrum":true},{"pitch":51,"velocity":80,"startTime":94.87668599999999,"endTime":94.925947,"instrument":1,"isDrum":true},{"pitch":56,"velocity":80,"startTime":94.87668599999999,"endTime":94.925947,"instrument":1,"isDrum":true},{"pitch":59,"velocity":80,"startTime":94.87668599999999,"endTime":94.925947,"instrument":1,"isDrum":true},{"pitch":59,"velocity":80,"startTime":95.07373,"endTime":95.1476215,"instrument":1,"isDrum":true},{"pitch":35,"velocity":80,"startTime":95.172252,"endTime":95.22151299999999,"instrument":1,"isDrum":true},{"pitch":59,"velocity":80,"startTime":95.172252,"endTime":95.22151299999999,"instrument":1,"isDrum":true},{"pitch":35,"velocity":80,"startTime":95.467818,"endTime":95.517079,"instrument":1,"isDrum":true},{"pitch":44,"velocity":80,"startTime":95.467818,"endTime":95.517079,"instrument":1,"isDrum":true},{"pitch":51,"velocity":80,"startTime":95.467818,"endTime":95.517079,"instrument":1,"isDrum":true},{"pitch":53,"velocity":80,"startTime":95.467818,"endTime":95.517079,"instrument":1,"isDrum":true},{"pitch":56,"velocity":80,"startTime":95.467818,"endTime":95.517079,"instrument":1,"isDrum":true},{"pitch":59,"velocity":80,"startTime":95.467818,"endTime":95.517079,"instrument":1,"isDrum":true},{"pitch":51,"velocity":80,"startTime":95.664862,"endTime":95.73875349999999,"instrument":1,"isDrum":true},{"pitch":35,"velocity":80,"startTime":95.76338399999999,"endTime":95.81264499999999,"instrument":1,"isDrum":true},{"pitch":51,"velocity":80,"startTime":95.76338399999999,"endTime":95.81264499999999,"instrument":1,"isDrum":true},{"pitch":35,"velocity":80,"startTime":96.05895,"endTime":96.108211,"instrument":1,"isDrum":true},{"pitch":44,"velocity":80,"startTime":96.05895,"endTime":96.108211,"instrument":1,"isDrum":true},{"pitch":51,"velocity":80,"startTime":96.05895,"endTime":96.108211,"instrument":1,"isDrum":true},{"pitch":53,"velocity":80,"startTime":96.05895,"endTime":96.108211,"instrument":1,"isDrum":true},{"pitch":56,"velocity":80,"startTime":96.05895,"endTime":96.108211,"instrument":1,"isDrum":true},{"pitch":59,"velocity":80,"startTime":96.05895,"endTime":96.108211,"instrument":1,"isDrum":true},{"pitch":51,"velocity":80,"startTime":96.25599399999999,"endTime":96.32988549999999,"instrument":1,"isDrum":true},{"pitch":35,"velocity":80,"startTime":96.35451599999999,"endTime":96.40377699999999,"instrument":1,"isDrum":true},{"pitch":51,"velocity":80,"startTime":96.35451599999999,"endTime":96.40377699999999,"instrument":1,"isDrum":true},{"pitch":35,"velocity":80,"startTime":96.650082,"endTime":96.699343,"instrument":1,"isDrum":true},{"pitch":44,"velocity":80,"startTime":96.650082,"endTime":96.699343,"instrument":1,"isDrum":true},{"pitch":51,"velocity":80,"startTime":96.650082,"endTime":96.699343,"instrument":1,"isDrum":true},{"pitch":56,"velocity":80,"startTime":96.650082,"endTime":96.699343,"instrument":1,"isDrum":true},{"pitch":59,"velocity":80,"startTime":96.650082,"endTime":96.699343,"instrument":1,"isDrum":true},{"pitch":51,"velocity":80,"startTime":96.84712599999999,"endTime":96.92101749999999,"instrument":1,"isDrum":true},{"pitch":35,"velocity":80,"startTime":96.94564799999999,"endTime":96.99490899999999,"instrument":1,"isDrum":true},{"pitch":51,"velocity":80,"startTime":96.94564799999999,"endTime":96.99490899999999,"instrument":1,"isDrum":true},{"pitch":35,"velocity":80,"startTime":97.241214,"endTime":97.29047499999999,"instrument":1,"isDrum":true},{"pitch":44,"velocity":80,"startTime":97.241214,"endTime":97.29047499999999,"instrument":1,"isDrum":true},{"pitch":51,"velocity":80,"startTime":97.241214,"endTime":97.29047499999999,"instrument":1,"isDrum":true},{"pitch":56,"velocity":80,"startTime":97.241214,"endTime":97.29047499999999,"instrument":1,"isDrum":true},{"pitch":59,"velocity":80,"startTime":97.241214,"endTime":97.29047499999999,"instrument":1,"isDrum":true},{"pitch":51,"velocity":80,"startTime":97.43825799999999,"endTime":97.51214949999999,"instrument":1,"isDrum":true},{"pitch":35,"velocity":80,"startTime":97.53678,"endTime":97.586041,"instrument":1,"isDrum":true},{"pitch":51,"velocity":80,"startTime":97.53678,"endTime":97.586041,"instrument":1,"isDrum":true},{"pitch":35,"velocity":80,"startTime":97.83234599999999,"endTime":97.88160699999999,"instrument":1,"isDrum":true},{"pitch":44,"velocity":80,"startTime":97.83234599999999,"endTime":97.88160699999999,"instrument":1,"isDrum":true},{"pitch":51,"velocity":80,"startTime":97.83234599999999,"endTime":97.88160699999999,"instrument":1,"isDrum":true},{"pitch":56,"velocity":80,"startTime":97.83234599999999,"endTime":97.88160699999999,"instrument":1,"isDrum":true},{"pitch":59,"velocity":80,"startTime":97.83234599999999,"endTime":97.88160699999999,"instrument":1,"isDrum":true},{"pitch":51,"velocity":80,"startTime":98.02938999999999,"endTime":98.1032815,"instrument":1,"isDrum":true},{"pitch":35,"velocity":80,"startTime":98.127912,"endTime":98.177173,"instrument":1,"isDrum":true},{"pitch":51,"velocity":80,"startTime":98.127912,"endTime":98.177173,"instrument":1,"isDrum":true},{"pitch":35,"velocity":80,"startTime":98.42347799999999,"endTime":98.47273899999999,"instrument":1,"isDrum":true},{"pitch":44,"velocity":80,"startTime":98.42347799999999,"endTime":98.47273899999999,"instrument":1,"isDrum":true},{"pitch":51,"velocity":80,"startTime":98.42347799999999,"endTime":98.47273899999999,"instrument":1,"isDrum":true},{"pitch":56,"velocity":80,"startTime":98.42347799999999,"endTime":98.47273899999999,"instrument":1,"isDrum":true},{"pitch":59,"velocity":80,"startTime":98.42347799999999,"endTime":98.47273899999999,"instrument":1,"isDrum":true},{"pitch":51,"velocity":80,"startTime":98.620522,"endTime":98.6944135,"instrument":1,"isDrum":true},{"pitch":35,"velocity":80,"startTime":98.719044,"endTime":98.768305,"instrument":1,"isDrum":true},{"pitch":51,"velocity":80,"startTime":98.719044,"endTime":98.768305,"instrument":1,"isDrum":true},{"pitch":59,"velocity":80,"startTime":98.719044,"endTime":98.768305,"instrument":1,"isDrum":true},{"pitch":35,"velocity":80,"startTime":99.01460999999999,"endTime":99.06387099999999,"instrument":1,"isDrum":true},{"pitch":44,"velocity":80,"startTime":99.01460999999999,"endTime":99.06387099999999,"instrument":1,"isDrum":true},{"pitch":51,"velocity":80,"startTime":99.01460999999999,"endTime":99.06387099999999,"instrument":1,"isDrum":true},{"pitch":56,"velocity":80,"startTime":99.01460999999999,"endTime":99.06387099999999,"instrument":1,"isDrum":true},{"pitch":59,"velocity":80,"startTime":99.01460999999999,"endTime":99.06387099999999,"instrument":1,"isDrum":true},{"pitch":51,"velocity":80,"startTime":99.211654,"endTime":99.2855455,"instrument":1,"isDrum":true},{"pitch":35,"velocity":80,"startTime":99.310176,"endTime":99.359437,"instrument":1,"isDrum":true},{"pitch":51,"velocity":80,"startTime":99.310176,"endTime":99.359437,"instrument":1,"isDrum":true},{"pitch":59,"velocity":80,"startTime":99.310176,"endTime":99.359437,"instrument":1,"isDrum":true},{"pitch":35,"velocity":80,"startTime":99.60574199999999,"endTime":99.655003,"instrument":1,"isDrum":true},{"pitch":44,"velocity":80,"startTime":99.60574199999999,"endTime":99.655003,"instrument":1,"isDrum":true},{"pitch":51,"velocity":80,"startTime":99.60574199999999,"endTime":99.655003,"instrument":1,"isDrum":true},{"pitch":56,"velocity":80,"startTime":99.60574199999999,"endTime":99.655003,"instrument":1,"isDrum":true},{"pitch":59,"velocity":80,"startTime":99.60574199999999,"endTime":99.655003,"instrument":1,"isDrum":true},{"pitch":51,"velocity":80,"startTime":99.802786,"endTime":99.8766775,"instrument":1,"isDrum":true},{"pitch":35,"velocity":80,"startTime":100.09835199999999,"endTime":100.1722435,"instrument":1,"isDrum":true},{"pitch":44,"velocity":80,"startTime":100.196874,"endTime":100.246135,"instrument":1,"isDrum":true},{"pitch":51,"velocity":80,"startTime":100.196874,"endTime":100.246135,"instrument":1,"isDrum":true},{"pitch":59,"velocity":80,"startTime":100.196874,"endTime":100.246135,"instrument":1,"isDrum":true},{"pitch":62,"velocity":80,"startTime":100.196874,"endTime":100.246135,"instrument":1,"isDrum":true},{"pitch":59,"velocity":80,"startTime":100.295396,"endTime":100.3200265,"instrument":1,"isDrum":true},{"pitch":35,"velocity":80,"startTime":100.393918,"endTime":100.4185485,"instrument":1,"isDrum":true},{"pitch":39,"velocity":80,"startTime":100.393918,"endTime":100.4185485,"instrument":1,"isDrum":true},{"pitch":51,"velocity":80,"startTime":100.393918,"endTime":100.4185485,"instrument":1,"isDrum":true},{"pitch":59,"velocity":80,"startTime":100.393918,"endTime":100.4185485,"instrument":1,"isDrum":true},{"pitch":35,"velocity":80,"startTime":100.49243999999999,"endTime":100.54170099999999,"instrument":1,"isDrum":true},{"pitch":51,"velocity":80,"startTime":100.49243999999999,"endTime":100.54170099999999,"instrument":1,"isDrum":true},{"pitch":35,"velocity":80,"startTime":100.788006,"endTime":100.837267,"instrument":1,"isDrum":true},{"pitch":44,"velocity":80,"startTime":100.788006,"endTime":100.837267,"instrument":1,"isDrum":true},{"pitch":51,"velocity":80,"startTime":100.788006,"endTime":100.837267,"instrument":1,"isDrum":true},{"pitch":56,"velocity":80,"startTime":100.788006,"endTime":100.837267,"instrument":1,"isDrum":true},{"pitch":59,"velocity":80,"startTime":100.788006,"endTime":100.837267,"instrument":1,"isDrum":true},{"pitch":51,"velocity":80,"startTime":100.98504999999999,"endTime":101.05894149999999,"instrument":1,"isDrum":true},{"pitch":51,"velocity":80,"startTime":101.08357199999999,"endTime":101.13283299999999,"instrument":1,"isDrum":true},{"pitch":59,"velocity":80,"startTime":101.08357199999999,"endTime":101.13283299999999,"instrument":1,"isDrum":true},{"pitch":35,"velocity":80,"startTime":101.379138,"endTime":101.428399,"instrument":1,"isDrum":true},{"pitch":44,"velocity":80,"startTime":101.379138,"endTime":101.428399,"instrument":1,"isDrum":true},{"pitch":51,"velocity":80,"startTime":101.379138,"endTime":101.428399,"instrument":1,"isDrum":true},{"pitch":56,"velocity":80,"startTime":101.379138,"endTime":101.428399,"instrument":1,"isDrum":true},{"pitch":59,"velocity":80,"startTime":101.379138,"endTime":101.428399,"instrument":1,"isDrum":true},{"pitch":51,"velocity":80,"startTime":101.57618199999999,"endTime":101.65007349999999,"instrument":1,"isDrum":true},{"pitch":43,"velocity":103,"startTime":94.58112,"endTime":94.82742499999999,"instrument":2,"program":32},{"pitch":31,"velocity":103,"startTime":94.80279449999999,"endTime":94.85205549999999,"instrument":2,"program":32},{"pitch":43,"velocity":103,"startTime":94.87668599999999,"endTime":95.172252,"instrument":2,"program":32},{"pitch":47,"velocity":103,"startTime":95.172252,"endTime":95.4431875,"instrument":2,"program":32},{"pitch":38,"velocity":103,"startTime":95.39392649999999,"endTime":95.4431875,"instrument":2,"program":32},{"pitch":50,"velocity":103,"startTime":95.467818,"endTime":95.73875349999999,"instrument":2,"program":32},{"pitch":38,"velocity":103,"startTime":95.6894925,"endTime":95.71412299999999,"instrument":2,"program":32},{"pitch":31,"velocity":103,"startTime":95.76338399999999,"endTime":96.108211,"instrument":2,"program":32},{"pitch":38,"velocity":103,"startTime":96.05895,"endTime":96.35451599999999,"instrument":2,"program":32},{"pitch":35,"velocity":103,"startTime":96.35451599999999,"endTime":96.650082,"instrument":2,"program":32},{"pitch":38,"velocity":103,"startTime":96.650082,"endTime":96.94564799999999,"instrument":2,"program":32},{"pitch":28,"velocity":103,"startTime":96.94564799999999,"endTime":97.1673225,"instrument":2,"program":32},{"pitch":28,"velocity":103,"startTime":97.1673225,"endTime":97.2165835,"instrument":2,"program":32},{"pitch":35,"velocity":103,"startTime":97.241214,"endTime":97.53678,"instrument":2,"program":32},{"pitch":28,"velocity":103,"startTime":97.53678,"endTime":97.733824,"instrument":2,"program":32},{"pitch":28,"velocity":103,"startTime":97.7584545,"endTime":97.80771549999999,"instrument":2,"program":32},{"pitch":28,"velocity":103,"startTime":97.83234599999999,"endTime":98.1032815,"instrument":2,"program":32},{"pitch":28,"velocity":103,"startTime":98.0540205,"endTime":98.078651,"instrument":2,"program":32},{"pitch":28,"velocity":103,"startTime":98.127912,"endTime":98.719044,"instrument":2,"program":32},{"pitch":35,"velocity":103,"startTime":98.42347799999999,"endTime":98.47273899999999,"instrument":2,"program":32},{"pitch":40,"velocity":103,"startTime":98.719044,"endTime":99.01460999999999,"instrument":2,"program":32},{"pitch":37,"velocity":103,"startTime":99.01460999999999,"endTime":99.310176,"instrument":2,"program":32},{"pitch":36,"velocity":103,"startTime":99.310176,"endTime":99.60574199999999,"instrument":2,"program":32},{"pitch":43,"velocity":103,"startTime":99.60574199999999,"endTime":99.90130799999999,"instrument":2,"program":32},{"pitch":43,"velocity":103,"startTime":99.90130799999999,"endTime":100.09835199999999,"instrument":2,"program":32},{"pitch":31,"velocity":103,"startTime":100.12298249999999,"endTime":100.1722435,"instrument":2,"program":32},{"pitch":43,"velocity":103,"startTime":100.196874,"endTime":100.4185485,"instrument":2,"program":32},{"pitch":31,"velocity":103,"startTime":100.4185485,"endTime":100.46780949999999,"instrument":2,"program":32},{"pitch":38,"velocity":103,"startTime":100.49243999999999,"endTime":100.837267,"instrument":2,"program":32},{"pitch":33,"velocity":103,"startTime":100.788006,"endTime":101.10820249999999,"instrument":2,"program":32},{"pitch":38,"velocity":103,"startTime":101.08357199999999,"endTime":101.67470399999999,"instrument":2,"program":32},{"pitch":38,"velocity":103,"startTime":101.379138,"endTime":101.428399,"instrument":2,"program":32},{"pitch":43,"velocity":103,"startTime":101.67470399999999,"endTime":101.921009,"instrument":2,"program":32},{"pitch":35,"velocity":103,"startTime":101.8963785,"endTime":101.9456395,"instrument":2,"program":32},{"pitch":43,"velocity":103,"startTime":101.97027,"endTime":102.19194449999999,"instrument":2,"program":32},{"pitch":38,"velocity":103,"startTime":102.19194449999999,"endTime":102.24120549999999,"instrument":2,"program":32},{"pitch":47,"velocity":103,"startTime":102.265836,"endTime":102.56140199999999,"instrument":2,"program":32},{"pitch":43,"velocity":103,"startTime":102.56140199999999,"endTime":102.75844599999999,"instrument":2,"program":32},{"pitch":31,"velocity":103,"startTime":102.78307649999999,"endTime":102.807707,"instrument":2,"program":32},{"pitch":43,"velocity":103,"startTime":102.856968,"endTime":103.12790349999999,"instrument":2,"program":32},{"pitch":31,"velocity":103,"startTime":103.07864249999999,"endTime":103.12790349999999,"instrument":2,"program":32},{"pitch":50,"velocity":103,"startTime":103.15253399999999,"endTime":103.3742085,"instrument":2,"program":32},{"pitch":31,"velocity":103,"startTime":103.3742085,"endTime":103.4234695,"instrument":2,"program":32},{"pitch":38,"velocity":103,"startTime":103.4481,"endTime":103.66977449999999,"instrument":2,"program":32},{"pitch":31,"velocity":103,"startTime":103.66977449999999,"endTime":103.71903549999999,"instrument":2,"program":32},{"pitch":43,"velocity":103,"startTime":103.74366599999999,"endTime":104.039232,"instrument":2,"program":32},{"pitch":43,"velocity":57,"startTime":104.33479799999999,"endTime":104.43332},{"pitch":55,"velocity":57,"startTime":104.33479799999999,"endTime":104.43332},{"pitch":59,"velocity":57,"startTime":104.33479799999999,"endTime":104.43332},{"pitch":62,"velocity":57,"startTime":104.33479799999999,"endTime":104.43332},{"pitch":43,"velocity":57,"startTime":104.85203849999999,"endTime":104.9012995},{"pitch":59,"velocity":57,"startTime":104.85203849999999,"endTime":104.9012995},{"pitch":62,"velocity":57,"startTime":104.85203849999999,"endTime":104.9012995},{"pitch":55,"velocity":57,"startTime":104.87666899999999,"endTime":104.9012995},{"pitch":43,"velocity":57,"startTime":105.22149599999999,"endTime":105.32001799999999},{"pitch":59,"velocity":57,"startTime":105.22149599999999,"endTime":105.34464849999999},{"pitch":62,"velocity":57,"startTime":105.22149599999999,"endTime":105.34464849999999},{"pitch":69,"velocity":57,"startTime":105.22149599999999,"endTime":105.32001799999999},{"pitch":43,"velocity":57,"startTime":105.73873649999999,"endTime":105.81262799999999},{"pitch":59,"velocity":57,"startTime":105.73873649999999,"endTime":105.83725849999999},{"pitch":62,"velocity":57,"startTime":105.73873649999999,"endTime":105.83725849999999},{"pitch":69,"velocity":57,"startTime":105.73873649999999,"endTime":105.83725849999999},{"pitch":43,"velocity":57,"startTime":106.0343025,"endTime":106.108194},{"pitch":59,"velocity":57,"startTime":106.0343025,"endTime":106.108194},{"pitch":62,"velocity":57,"startTime":106.0343025,"endTime":106.1328245},{"pitch":69,"velocity":57,"startTime":106.0343025,"endTime":106.108194},{"pitch":40,"velocity":57,"startTime":106.6254345,"endTime":107.51213249999999},{"pitch":59,"velocity":57,"startTime":106.6254345,"endTime":107.51213249999999},{"pitch":62,"velocity":57,"startTime":106.6254345,"endTime":107.51213249999999},{"pitch":66,"velocity":57,"startTime":106.6254345,"endTime":107.51213249999999},{"pitch":40,"velocity":57,"startTime":107.80769849999999,"endTime":108.719027},{"pitch":59,"velocity":57,"startTime":107.80769849999999,"endTime":108.719027},{"pitch":63,"velocity":57,"startTime":107.80769849999999,"endTime":108.6943965},{"pitch":67,"velocity":57,"startTime":107.80769849999999,"endTime":108.669766},{"pitch":48,"velocity":57,"startTime":108.98996249999999,"endTime":109.03922349999999},{"pitch":59,"velocity":57,"startTime":108.98996249999999,"endTime":109.03922349999999},{"pitch":62,"velocity":57,"startTime":108.98996249999999,"endTime":109.03922349999999},{"pitch":43,"velocity":57,"startTime":111.3544905,"endTime":112.21655799999999},{"pitch":57,"velocity":57,"startTime":111.3544905,"endTime":112.21655799999999},{"pitch":59,"velocity":57,"startTime":111.3544905,"endTime":112.21655799999999},{"pitch":62,"velocity":57,"startTime":111.3544905,"endTime":112.21655799999999},{"pitch":43,"velocity":57,"startTime":112.24118849999999,"endTime":113.398822},{"pitch":59,"velocity":57,"startTime":112.24118849999999,"endTime":113.398822},{"pitch":62,"velocity":57,"startTime":112.24118849999999,"endTime":113.398822},{"pitch":65,"velocity":57,"startTime":112.24118849999999,"endTime":113.398822},{"pitch":50,"velocity":57,"startTime":113.4234525,"endTime":113.497344},{"pitch":59,"velocity":57,"startTime":113.4234525,"endTime":113.497344},{"pitch":62,"velocity":57,"startTime":113.4234525,"endTime":113.497344},{"pitch":66,"velocity":57,"startTime":113.4234525,"endTime":113.497344},{"pitch":35,"velocity":80,"startTime":104.039232,"endTime":104.088493,"instrument":1,"isDrum":true},{"pitch":44,"velocity":80,"startTime":104.039232,"endTime":104.088493,"instrument":1,"isDrum":true},{"pitch":51,"velocity":80,"startTime":104.039232,"endTime":104.088493,"instrument":1,"isDrum":true},{"pitch":53,"velocity":80,"startTime":104.039232,"endTime":104.088493,"instrument":1,"isDrum":true},{"pitch":56,"velocity":80,"startTime":104.039232,"endTime":104.088493,"instrument":1,"isDrum":true},{"pitch":51,"velocity":80,"startTime":104.23627599999999,"endTime":104.31016749999999,"instrument":1,"isDrum":true},{"pitch":35,"velocity":80,"startTime":104.33479799999999,"endTime":104.384059,"instrument":1,"isDrum":true},{"pitch":44,"velocity":80,"startTime":104.33479799999999,"endTime":104.384059,"instrument":1,"isDrum":true},{"pitch":51,"velocity":80,"startTime":104.33479799999999,"endTime":104.384059,"instrument":1,"isDrum":true},{"pitch":56,"velocity":80,"startTime":104.33479799999999,"endTime":104.384059,"instrument":1,"isDrum":true},{"pitch":51,"velocity":80,"startTime":104.531842,"endTime":104.6057335,"instrument":1,"isDrum":true},{"pitch":35,"velocity":80,"startTime":104.63036399999999,"endTime":104.67962499999999,"instrument":1,"isDrum":true},{"pitch":44,"velocity":80,"startTime":104.63036399999999,"endTime":104.67962499999999,"instrument":1,"isDrum":true},{"pitch":51,"velocity":80,"startTime":104.63036399999999,"endTime":104.67962499999999,"instrument":1,"isDrum":true},{"pitch":53,"velocity":80,"startTime":104.63036399999999,"endTime":104.67962499999999,"instrument":1,"isDrum":true},{"pitch":51,"velocity":80,"startTime":104.82740799999999,"endTime":104.9012995,"instrument":1,"isDrum":true},{"pitch":35,"velocity":80,"startTime":104.92593,"endTime":104.975191,"instrument":1,"isDrum":true},{"pitch":44,"velocity":80,"startTime":104.92593,"endTime":104.975191,"instrument":1,"isDrum":true},{"pitch":51,"velocity":80,"startTime":104.92593,"endTime":104.975191,"instrument":1,"isDrum":true},{"pitch":56,"velocity":80,"startTime":104.92593,"endTime":104.975191,"instrument":1,"isDrum":true},{"pitch":51,"velocity":80,"startTime":105.122974,"endTime":105.19686549999999,"instrument":1,"isDrum":true},{"pitch":35,"velocity":80,"startTime":105.22149599999999,"endTime":105.27075699999999,"instrument":1,"isDrum":true},{"pitch":44,"velocity":80,"startTime":105.22149599999999,"endTime":105.27075699999999,"instrument":1,"isDrum":true},{"pitch":51,"velocity":80,"startTime":105.22149599999999,"endTime":105.27075699999999,"instrument":1,"isDrum":true},{"pitch":53,"velocity":80,"startTime":105.22149599999999,"endTime":105.27075699999999,"instrument":1,"isDrum":true},{"pitch":51,"velocity":80,"startTime":105.41854,"endTime":105.4924315,"instrument":1,"isDrum":true},{"pitch":35,"velocity":80,"startTime":105.517062,"endTime":105.566323,"instrument":1,"isDrum":true},{"pitch":38,"velocity":80,"startTime":105.517062,"endTime":105.566323,"instrument":1,"isDrum":true},{"pitch":44,"velocity":80,"startTime":105.517062,"endTime":105.566323,"instrument":1,"isDrum":true},{"pitch":51,"velocity":80,"startTime":105.517062,"endTime":105.566323,"instrument":1,"isDrum":true},{"pitch":53,"velocity":80,"startTime":105.517062,"endTime":105.566323,"instrument":1,"isDrum":true},{"pitch":56,"velocity":80,"startTime":105.517062,"endTime":105.566323,"instrument":1,"isDrum":true},{"pitch":51,"velocity":80,"startTime":105.71410599999999,"endTime":105.78799749999999,"instrument":1,"isDrum":true},{"pitch":35,"velocity":80,"startTime":105.81262799999999,"endTime":105.86188899999999,"instrument":1,"isDrum":true},{"pitch":44,"velocity":80,"startTime":105.81262799999999,"endTime":105.86188899999999,"instrument":1,"isDrum":true},{"pitch":51,"velocity":80,"startTime":105.81262799999999,"endTime":105.86188899999999,"instrument":1,"isDrum":true},{"pitch":53,"velocity":80,"startTime":105.81262799999999,"endTime":105.86188899999999,"instrument":1,"isDrum":true},{"pitch":51,"velocity":80,"startTime":106.009672,"endTime":106.0835635,"instrument":1,"isDrum":true},{"pitch":35,"velocity":80,"startTime":106.108194,"endTime":106.157455,"instrument":1,"isDrum":true},{"pitch":38,"velocity":80,"startTime":106.108194,"endTime":106.157455,"instrument":1,"isDrum":true},{"pitch":44,"velocity":80,"startTime":106.108194,"endTime":106.157455,"instrument":1,"isDrum":true},{"pitch":51,"velocity":80,"startTime":106.108194,"endTime":106.157455,"instrument":1,"isDrum":true},{"pitch":53,"velocity":80,"startTime":106.108194,"endTime":106.157455,"instrument":1,"isDrum":true},{"pitch":53,"velocity":80,"startTime":106.108194,"endTime":106.157455,"instrument":1,"isDrum":true},{"pitch":51,"velocity":80,"startTime":106.30523799999999,"endTime":106.37912949999999,"instrument":1,"isDrum":true},{"pitch":35,"velocity":80,"startTime":106.40375999999999,"endTime":106.45302099999999,"instrument":1,"isDrum":true},{"pitch":44,"velocity":80,"startTime":106.40375999999999,"endTime":106.45302099999999,"instrument":1,"isDrum":true},{"pitch":51,"velocity":80,"startTime":106.40375999999999,"endTime":106.45302099999999,"instrument":1,"isDrum":true},{"pitch":53,"velocity":80,"startTime":106.40375999999999,"endTime":106.45302099999999,"instrument":1,"isDrum":true},{"pitch":51,"velocity":80,"startTime":106.600804,"endTime":106.6746955,"instrument":1,"isDrum":true},{"pitch":35,"velocity":80,"startTime":106.699326,"endTime":106.74858699999999,"instrument":1,"isDrum":true},{"pitch":38,"velocity":80,"startTime":106.699326,"endTime":106.74858699999999,"instrument":1,"isDrum":true},{"pitch":44,"velocity":80,"startTime":106.699326,"endTime":106.74858699999999,"instrument":1,"isDrum":true},{"pitch":51,"velocity":80,"startTime":106.699326,"endTime":106.74858699999999,"instrument":1,"isDrum":true},{"pitch":53,"velocity":80,"startTime":106.699326,"endTime":106.74858699999999,"instrument":1,"isDrum":true},{"pitch":54,"velocity":80,"startTime":106.699326,"endTime":106.74858699999999,"instrument":1,"isDrum":true},{"pitch":51,"velocity":80,"startTime":106.89636999999999,"endTime":106.97026149999999,"instrument":1,"isDrum":true},{"pitch":35,"velocity":80,"startTime":106.994892,"endTime":107.044153,"instrument":1,"isDrum":true},{"pitch":44,"velocity":80,"startTime":106.994892,"endTime":107.044153,"instrument":1,"isDrum":true},{"pitch":53,"velocity":80,"startTime":106.994892,"endTime":107.044153,"instrument":1,"isDrum":true},{"pitch":51,"velocity":80,"startTime":107.191936,"endTime":107.26582749999999,"instrument":1,"isDrum":true},{"pitch":35,"velocity":80,"startTime":107.29045799999999,"endTime":107.33971899999999,"instrument":1,"isDrum":true},{"pitch":38,"velocity":80,"startTime":107.29045799999999,"endTime":107.33971899999999,"instrument":1,"isDrum":true},{"pitch":44,"velocity":80,"startTime":107.29045799999999,"endTime":107.33971899999999,"instrument":1,"isDrum":true},{"pitch":51,"velocity":80,"startTime":107.29045799999999,"endTime":107.33971899999999,"instrument":1,"isDrum":true},{"pitch":53,"velocity":80,"startTime":107.29045799999999,"endTime":107.33971899999999,"instrument":1,"isDrum":true},{"pitch":54,"velocity":80,"startTime":107.29045799999999,"endTime":107.33971899999999,"instrument":1,"isDrum":true},{"pitch":51,"velocity":80,"startTime":107.48750199999999,"endTime":107.5613935,"instrument":1,"isDrum":true},{"pitch":35,"velocity":80,"startTime":107.586024,"endTime":107.635285,"instrument":1,"isDrum":true},{"pitch":44,"velocity":80,"startTime":107.586024,"endTime":107.635285,"instrument":1,"isDrum":true},{"pitch":53,"velocity":80,"startTime":107.586024,"endTime":107.635285,"instrument":1,"isDrum":true},{"pitch":51,"velocity":80,"startTime":107.78306799999999,"endTime":107.85695949999999,"instrument":1,"isDrum":true},{"pitch":35,"velocity":80,"startTime":107.88158999999999,"endTime":107.93085099999999,"instrument":1,"isDrum":true},{"pitch":38,"velocity":80,"startTime":107.88158999999999,"endTime":107.93085099999999,"instrument":1,"isDrum":true},{"pitch":44,"velocity":80,"startTime":107.88158999999999,"endTime":107.93085099999999,"instrument":1,"isDrum":true},{"pitch":53,"velocity":80,"startTime":107.88158999999999,"endTime":107.93085099999999,"instrument":1,"isDrum":true},{"pitch":54,"velocity":80,"startTime":107.88158999999999,"endTime":107.93085099999999,"instrument":1,"isDrum":true},{"pitch":51,"velocity":80,"startTime":108.078634,"endTime":108.1525255,"instrument":1,"isDrum":true},{"pitch":35,"velocity":80,"startTime":108.177156,"endTime":108.226417,"instrument":1,"isDrum":true},{"pitch":44,"velocity":80,"startTime":108.177156,"endTime":108.226417,"instrument":1,"isDrum":true},{"pitch":53,"velocity":80,"startTime":108.177156,"endTime":108.226417,"instrument":1,"isDrum":true},{"pitch":35,"velocity":80,"startTime":108.47272199999999,"endTime":108.52198299999999,"instrument":1,"isDrum":true},{"pitch":38,"velocity":80,"startTime":108.47272199999999,"endTime":108.52198299999999,"instrument":1,"isDrum":true},{"pitch":44,"velocity":80,"startTime":108.47272199999999,"endTime":108.52198299999999,"instrument":1,"isDrum":true},{"pitch":51,"velocity":80,"startTime":108.47272199999999,"endTime":108.52198299999999,"instrument":1,"isDrum":true},{"pitch":53,"velocity":80,"startTime":108.47272199999999,"endTime":108.52198299999999,"instrument":1,"isDrum":true},{"pitch":54,"velocity":80,"startTime":108.47272199999999,"endTime":108.52198299999999,"instrument":1,"isDrum":true},{"pitch":51,"velocity":80,"startTime":108.669766,"endTime":108.7436575,"instrument":1,"isDrum":true},{"pitch":35,"velocity":80,"startTime":108.768288,"endTime":108.81754899999999,"instrument":1,"isDrum":true},{"pitch":44,"velocity":80,"startTime":108.768288,"endTime":108.81754899999999,"instrument":1,"isDrum":true},{"pitch":51,"velocity":80,"startTime":108.768288,"endTime":108.81754899999999,"instrument":1,"isDrum":true},{"pitch":53,"velocity":80,"startTime":108.768288,"endTime":108.81754899999999,"instrument":1,"isDrum":true},{"pitch":51,"velocity":80,"startTime":108.96533199999999,"endTime":109.03922349999999,"instrument":1,"isDrum":true},{"pitch":35,"velocity":80,"startTime":109.06385399999999,"endTime":109.113115,"instrument":1,"isDrum":true},{"pitch":38,"velocity":80,"startTime":109.06385399999999,"endTime":109.113115,"instrument":1,"isDrum":true},{"pitch":44,"velocity":80,"startTime":109.06385399999999,"endTime":109.113115,"instrument":1,"isDrum":true},{"pitch":51,"velocity":80,"startTime":109.06385399999999,"endTime":109.113115,"instrument":1,"isDrum":true},{"pitch":53,"velocity":80,"startTime":109.06385399999999,"endTime":109.113115,"instrument":1,"isDrum":true},{"pitch":51,"velocity":80,"startTime":109.260898,"endTime":109.3347895,"instrument":1,"isDrum":true},{"pitch":35,"velocity":80,"startTime":109.35941999999999,"endTime":109.40868099999999,"instrument":1,"isDrum":true},{"pitch":44,"velocity":80,"startTime":109.35941999999999,"endTime":109.40868099999999,"instrument":1,"isDrum":true},{"pitch":51,"velocity":80,"startTime":109.35941999999999,"endTime":109.40868099999999,"instrument":1,"isDrum":true},{"pitch":53,"velocity":80,"startTime":109.35941999999999,"endTime":109.40868099999999,"instrument":1,"isDrum":true},{"pitch":51,"velocity":80,"startTime":109.55646399999999,"endTime":109.6303555,"instrument":1,"isDrum":true},{"pitch":35,"velocity":80,"startTime":109.654986,"endTime":109.704247,"instrument":1,"isDrum":true},{"pitch":38,"velocity":80,"startTime":109.654986,"endTime":109.704247,"instrument":1,"isDrum":true},{"pitch":44,"velocity":80,"startTime":109.654986,"endTime":109.704247,"instrument":1,"isDrum":true},{"pitch":51,"velocity":80,"startTime":109.654986,"endTime":109.704247,"instrument":1,"isDrum":true},{"pitch":53,"velocity":80,"startTime":109.654986,"endTime":109.704247,"instrument":1,"isDrum":true},{"pitch":54,"velocity":80,"startTime":109.654986,"endTime":109.704247,"instrument":1,"isDrum":true},{"pitch":51,"velocity":80,"startTime":109.85203,"endTime":109.92592149999999,"instrument":1,"isDrum":true},{"pitch":35,"velocity":80,"startTime":109.95055199999999,"endTime":109.99981299999999,"instrument":1,"isDrum":true},{"pitch":44,"velocity":80,"startTime":109.95055199999999,"endTime":109.99981299999999,"instrument":1,"isDrum":true},{"pitch":51,"velocity":80,"startTime":109.95055199999999,"endTime":109.99981299999999,"instrument":1,"isDrum":true},{"pitch":53,"velocity":80,"startTime":109.95055199999999,"endTime":109.99981299999999,"instrument":1,"isDrum":true},{"pitch":51,"velocity":80,"startTime":110.147596,"endTime":110.2214875,"instrument":1,"isDrum":true},{"pitch":35,"velocity":80,"startTime":110.246118,"endTime":110.295379,"instrument":1,"isDrum":true},{"pitch":38,"velocity":80,"startTime":110.246118,"endTime":110.295379,"instrument":1,"isDrum":true},{"pitch":44,"velocity":80,"startTime":110.246118,"endTime":110.295379,"instrument":1,"isDrum":true},{"pitch":51,"velocity":80,"startTime":110.246118,"endTime":110.295379,"instrument":1,"isDrum":true},{"pitch":53,"velocity":80,"startTime":110.246118,"endTime":110.295379,"instrument":1,"isDrum":true},{"pitch":54,"velocity":80,"startTime":110.246118,"endTime":110.295379,"instrument":1,"isDrum":true},{"pitch":51,"velocity":80,"startTime":110.44316199999999,"endTime":110.51705349999999,"instrument":1,"isDrum":true},{"pitch":35,"velocity":80,"startTime":110.54168399999999,"endTime":110.59094499999999,"instrument":1,"isDrum":true},{"pitch":44,"velocity":80,"startTime":110.54168399999999,"endTime":110.59094499999999,"instrument":1,"isDrum":true},{"pitch":51,"velocity":80,"startTime":110.54168399999999,"endTime":110.59094499999999,"instrument":1,"isDrum":true},{"pitch":53,"velocity":80,"startTime":110.54168399999999,"endTime":110.59094499999999,"instrument":1,"isDrum":true},{"pitch":51,"velocity":80,"startTime":110.738728,"endTime":110.8126195,"instrument":1,"isDrum":true},{"pitch":35,"velocity":80,"startTime":110.83725,"endTime":110.886511,"instrument":1,"isDrum":true},{"pitch":38,"velocity":80,"startTime":110.83725,"endTime":110.886511,"instrument":1,"isDrum":true},{"pitch":44,"velocity":80,"startTime":110.83725,"endTime":110.886511,"instrument":1,"isDrum":true},{"pitch":51,"velocity":80,"startTime":110.83725,"endTime":110.886511,"instrument":1,"isDrum":true},{"pitch":53,"velocity":80,"startTime":110.83725,"endTime":110.886511,"instrument":1,"isDrum":true},{"pitch":54,"velocity":80,"startTime":110.83725,"endTime":110.886511,"instrument":1,"isDrum":true},{"pitch":51,"velocity":80,"startTime":111.03429399999999,"endTime":111.10818549999999,"instrument":1,"isDrum":true},{"pitch":35,"velocity":80,"startTime":111.13281599999999,"endTime":111.18207699999999,"instrument":1,"isDrum":true},{"pitch":44,"velocity":80,"startTime":111.13281599999999,"endTime":111.18207699999999,"instrument":1,"isDrum":true},{"pitch":51,"velocity":80,"startTime":111.13281599999999,"endTime":111.18207699999999,"instrument":1,"isDrum":true},{"pitch":53,"velocity":80,"startTime":111.13281599999999,"endTime":111.18207699999999,"instrument":1,"isDrum":true},{"pitch":51,"velocity":80,"startTime":111.32986,"endTime":111.4037515,"instrument":1,"isDrum":true},{"pitch":35,"velocity":80,"startTime":111.428382,"endTime":111.47764299999999,"instrument":1,"isDrum":true},{"pitch":38,"velocity":80,"startTime":111.428382,"endTime":111.47764299999999,"instrument":1,"isDrum":true},{"pitch":44,"velocity":80,"startTime":111.428382,"endTime":111.47764299999999,"instrument":1,"isDrum":true},{"pitch":51,"velocity":80,"startTime":111.428382,"endTime":111.47764299999999,"instrument":1,"isDrum":true},{"pitch":53,"velocity":80,"startTime":111.428382,"endTime":111.47764299999999,"instrument":1,"isDrum":true},{"pitch":54,"velocity":80,"startTime":111.428382,"endTime":111.47764299999999,"instrument":1,"isDrum":true},{"pitch":51,"velocity":80,"startTime":111.62542599999999,"endTime":111.69931749999999,"instrument":1,"isDrum":true},{"pitch":43,"velocity":103,"startTime":104.039232,"endTime":104.26090649999999,"instrument":2,"program":32},{"pitch":43,"velocity":103,"startTime":104.26090649999999,"endTime":104.33479799999999,"instrument":2,"program":32},{"pitch":43,"velocity":103,"startTime":104.33479799999999,"endTime":104.63036399999999,"instrument":2,"program":32},{"pitch":50,"velocity":103,"startTime":104.63036399999999,"endTime":104.975191,"instrument":2,"program":32},{"pitch":38,"velocity":103,"startTime":104.92593,"endTime":105.22149599999999,"instrument":2,"program":32},{"pitch":43,"velocity":103,"startTime":105.22149599999999,"endTime":105.4431705,"instrument":2,"program":32},{"pitch":43,"velocity":103,"startTime":105.4431705,"endTime":105.517062,"instrument":2,"program":32},{"pitch":47,"velocity":103,"startTime":105.517062,"endTime":105.81262799999999,"instrument":2,"program":32},{"pitch":50,"velocity":103,"startTime":105.81262799999999,"endTime":106.157455,"instrument":2,"program":32},{"pitch":43,"velocity":103,"startTime":106.108194,"endTime":106.40375999999999,"instrument":2,"program":32},{"pitch":40,"velocity":103,"startTime":106.40375999999999,"endTime":106.6254345,"instrument":2,"program":32},{"pitch":28,"velocity":103,"startTime":106.6254345,"endTime":106.699326,"instrument":2,"program":32},{"pitch":35,"velocity":103,"startTime":106.699326,"endTime":106.994892,"instrument":2,"program":32},{"pitch":40,"velocity":103,"startTime":106.994892,"endTime":107.29045799999999,"instrument":2,"program":32},{"pitch":35,"velocity":103,"startTime":107.29045799999999,"endTime":107.5613935,"instrument":2,"program":32},{"pitch":28,"velocity":103,"startTime":107.586024,"endTime":107.93085099999999,"instrument":2,"program":32},{"pitch":35,"velocity":103,"startTime":107.88158999999999,"endTime":108.177156,"instrument":2,"program":32},{"pitch":35,"velocity":103,"startTime":108.177156,"endTime":108.47272199999999,"instrument":2,"program":32},{"pitch":38,"velocity":103,"startTime":108.47272199999999,"endTime":108.6943965,"instrument":2,"program":32},{"pitch":35,"velocity":103,"startTime":108.6943965,"endTime":108.768288,"instrument":2,"program":32},{"pitch":36,"velocity":103,"startTime":108.768288,"endTime":108.98996249999999,"instrument":2,"program":32},{"pitch":31,"velocity":103,"startTime":108.98996249999999,"endTime":109.06385399999999,"instrument":2,"program":32},{"pitch":43,"velocity":103,"startTime":109.06385399999999,"endTime":109.35941999999999,"instrument":2,"program":32},{"pitch":40,"velocity":103,"startTime":109.35941999999999,"endTime":109.55646399999999,"instrument":2,"program":32},{"pitch":31,"velocity":103,"startTime":109.58109449999999,"endTime":109.654986,"instrument":2,"program":32},{"pitch":43,"velocity":103,"startTime":109.654986,"endTime":109.87666049999999,"instrument":2,"program":32},{"pitch":36,"velocity":103,"startTime":109.87666049999999,"endTime":109.95055199999999,"instrument":2,"program":32},{"pitch":38,"velocity":103,"startTime":109.95055199999999,"endTime":110.295379,"instrument":2,"program":32},{"pitch":45,"velocity":103,"startTime":110.246118,"endTime":110.56631449999999,"instrument":2,"program":32},{"pitch":40,"velocity":103,"startTime":110.54168399999999,"endTime":111.13281599999999,"instrument":2,"program":32},{"pitch":45,"velocity":103,"startTime":110.83725,"endTime":110.886511,"instrument":2,"program":32},{"pitch":43,"velocity":103,"startTime":111.13281599999999,"endTime":111.3052295,"instrument":2,"program":32},{"pitch":38,"velocity":103,"startTime":111.3544905,"endTime":111.428382,"instrument":2,"program":32},{"pitch":38,"velocity":103,"startTime":111.428382,"endTime":111.723948,"instrument":2,"program":32},{"pitch":43,"velocity":103,"startTime":111.723948,"endTime":112.01951399999999,"instrument":2,"program":32},{"pitch":38,"velocity":103,"startTime":112.01951399999999,"endTime":112.31508,"instrument":2,"program":32},{"pitch":31,"velocity":103,"startTime":112.31508,"endTime":112.53675449999999,"instrument":2,"program":32},{"pitch":31,"velocity":103,"startTime":112.53675449999999,"endTime":112.61064599999999,"instrument":2,"program":32},{"pitch":43,"velocity":103,"startTime":112.61064599999999,"endTime":112.906212,"instrument":2,"program":32},{"pitch":38,"velocity":103,"startTime":112.906212,"endTime":113.12788649999999,"instrument":2,"program":32},{"pitch":26,"velocity":103,"startTime":113.12788649999999,"endTime":113.20177799999999,"instrument":2,"program":32},{"pitch":42,"velocity":103,"startTime":113.20177799999999,"endTime":113.497344,"instrument":2,"program":32},{"pitch":43,"velocity":57,"startTime":113.5219745,"endTime":113.59586599999999},{"pitch":58,"velocity":57,"startTime":113.5219745,"endTime":113.59586599999999},{"pitch":62,"velocity":57,"startTime":113.5219745,"endTime":113.62049649999999},{"pitch":69,"velocity":57,"startTime":113.5219745,"endTime":113.59586599999999},{"pitch":48,"velocity":57,"startTime":114.60571649999999,"endTime":114.87665199999999},{"pitch":59,"velocity":57,"startTime":114.60571649999999,"endTime":114.85202149999999},{"pitch":62,"velocity":57,"startTime":114.60571649999999,"endTime":114.85202149999999},{"pitch":69,"velocity":57,"startTime":114.60571649999999,"endTime":114.85202149999999},{"pitch":59,"velocity":57,"startTime":115.566306,"endTime":115.66482799999999},{"pitch":62,"velocity":57,"startTime":115.566306,"endTime":115.66482799999999},{"pitch":69,"velocity":57,"startTime":115.566306,"endTime":115.66482799999999},{"pitch":40,"velocity":57,"startTime":116.0835465,"endTime":116.25595999999999},{"pitch":56,"velocity":57,"startTime":116.0835465,"endTime":116.25595999999999},{"pitch":62,"velocity":57,"startTime":116.0835465,"endTime":116.25595999999999},{"pitch":66,"velocity":57,"startTime":116.0835465,"endTime":116.25595999999999},{"pitch":40,"velocity":57,"startTime":116.6746785,"endTime":116.84709199999999},{"pitch":59,"velocity":57,"startTime":116.6746785,"endTime":116.84709199999999},{"pitch":62,"velocity":57,"startTime":116.6746785,"endTime":116.84709199999999},{"pitch":66,"velocity":57,"startTime":116.6746785,"endTime":116.87172249999999},{"pitch":40,"velocity":57,"startTime":117.26581049999999,"endTime":117.46285449999999},{"pitch":55,"velocity":57,"startTime":117.26581049999999,"endTime":117.43822399999999},{"pitch":62,"velocity":57,"startTime":117.26581049999999,"endTime":117.43822399999999},{"pitch":66,"velocity":57,"startTime":117.26581049999999,"endTime":117.43822399999999},{"pitch":40,"velocity":57,"startTime":118.1525085,"endTime":118.30029149999999},{"pitch":55,"velocity":57,"startTime":118.1525085,"endTime":118.30029149999999},{"pitch":59,"velocity":57,"startTime":118.1525085,"endTime":118.30029149999999},{"pitch":62,"velocity":57,"startTime":118.1525085,"endTime":118.30029149999999},{"pitch":48,"velocity":57,"startTime":118.7436405,"endTime":118.81753199999999},{"pitch":59,"velocity":57,"startTime":118.7436405,"endTime":118.79290149999999},{"pitch":62,"velocity":57,"startTime":118.7436405,"endTime":118.79290149999999},{"pitch":64,"velocity":57,"startTime":118.7436405,"endTime":118.79290149999999},{"pitch":55,"velocity":57,"startTime":119.33477249999999,"endTime":119.40866399999999},{"pitch":62,"velocity":57,"startTime":119.33477249999999,"endTime":119.40866399999999},{"pitch":64,"velocity":57,"startTime":119.33477249999999,"endTime":119.40866399999999},{"pitch":50,"velocity":57,"startTime":119.43329449999999,"endTime":119.48255549999999},{"pitch":62,"velocity":57,"startTime":119.43329449999999,"endTime":119.50718599999999},{"pitch":65,"velocity":57,"startTime":119.43329449999999,"endTime":119.48255549999999},{"pitch":69,"velocity":57,"startTime":119.43329449999999,"endTime":119.48255549999999},{"pitch":50,"velocity":57,"startTime":119.92590449999999,"endTime":119.99979599999999},{"pitch":59,"velocity":57,"startTime":119.92590449999999,"endTime":120.02442649999999},{"pitch":62,"velocity":57,"startTime":119.92590449999999,"endTime":120.02442649999999},{"pitch":65,"velocity":57,"startTime":119.92590449999999,"endTime":120.02442649999999},{"pitch":50,"velocity":57,"startTime":120.2214705,"endTime":120.295362},{"pitch":57,"velocity":57,"startTime":120.2214705,"endTime":120.3199925},{"pitch":62,"velocity":57,"startTime":120.2214705,"endTime":120.3199925},{"pitch":65,"velocity":57,"startTime":120.2214705,"endTime":120.3199925},{"pitch":43,"velocity":57,"startTime":121.10816849999999,"endTime":121.18205999999999},{"pitch":62,"velocity":57,"startTime":121.10816849999999,"endTime":121.18205999999999},{"pitch":67,"velocity":57,"startTime":121.10816849999999,"endTime":121.18205999999999},{"pitch":71,"velocity":57,"startTime":121.10816849999999,"endTime":121.2066905},{"pitch":43,"velocity":57,"startTime":121.69930049999999,"endTime":122.856934},{"pitch":59,"velocity":57,"startTime":121.69930049999999,"endTime":122.856934},{"pitch":62,"velocity":57,"startTime":121.69930049999999,"endTime":122.856934},{"pitch":69,"velocity":57,"startTime":121.69930049999999,"endTime":122.856934},{"pitch":35,"velocity":80,"startTime":113.497344,"endTime":113.57123549999999,"instrument":1,"isDrum":true},{"pitch":44,"velocity":80,"startTime":113.497344,"endTime":113.57123549999999,"instrument":1,"isDrum":true},{"pitch":51,"velocity":80,"startTime":113.497344,"endTime":113.57123549999999,"instrument":1,"isDrum":true},{"pitch":53,"velocity":80,"startTime":113.497344,"endTime":113.57123549999999,"instrument":1,"isDrum":true},{"pitch":51,"velocity":80,"startTime":113.69438799999999,"endTime":113.76827949999999,"instrument":1,"isDrum":true},{"pitch":44,"velocity":80,"startTime":113.79290999999999,"endTime":113.8668015,"instrument":1,"isDrum":true},{"pitch":51,"velocity":80,"startTime":113.79290999999999,"endTime":113.8668015,"instrument":1,"isDrum":true},{"pitch":53,"velocity":80,"startTime":113.79290999999999,"endTime":113.8668015,"instrument":1,"isDrum":true},{"pitch":51,"velocity":80,"startTime":113.989954,"endTime":114.06384549999999,"instrument":1,"isDrum":true},{"pitch":35,"velocity":80,"startTime":114.08847599999999,"endTime":114.16236749999999,"instrument":1,"isDrum":true},{"pitch":44,"velocity":80,"startTime":114.08847599999999,"endTime":114.16236749999999,"instrument":1,"isDrum":true},{"pitch":51,"velocity":80,"startTime":114.08847599999999,"endTime":114.16236749999999,"instrument":1,"isDrum":true},{"pitch":53,"velocity":80,"startTime":114.08847599999999,"endTime":114.16236749999999,"instrument":1,"isDrum":true},{"pitch":51,"velocity":80,"startTime":114.28551999999999,"endTime":114.3594115,"instrument":1,"isDrum":true},{"pitch":44,"velocity":80,"startTime":114.384042,"endTime":114.4579335,"instrument":1,"isDrum":true},{"pitch":51,"velocity":80,"startTime":114.384042,"endTime":114.4579335,"instrument":1,"isDrum":true},{"pitch":53,"velocity":80,"startTime":114.384042,"endTime":114.4579335,"instrument":1,"isDrum":true},{"pitch":51,"velocity":80,"startTime":114.581086,"endTime":114.65497749999999,"instrument":1,"isDrum":true},{"pitch":35,"velocity":80,"startTime":114.67960799999999,"endTime":114.75349949999999,"instrument":1,"isDrum":true},{"pitch":44,"velocity":80,"startTime":114.67960799999999,"endTime":114.75349949999999,"instrument":1,"isDrum":true},{"pitch":51,"velocity":80,"startTime":114.67960799999999,"endTime":114.75349949999999,"instrument":1,"isDrum":true},{"pitch":53,"velocity":80,"startTime":114.67960799999999,"endTime":114.75349949999999,"instrument":1,"isDrum":true},{"pitch":51,"velocity":80,"startTime":114.87665199999999,"endTime":114.9505435,"instrument":1,"isDrum":true},{"pitch":44,"velocity":80,"startTime":114.975174,"endTime":115.0490655,"instrument":1,"isDrum":true},{"pitch":51,"velocity":80,"startTime":114.975174,"endTime":115.0490655,"instrument":1,"isDrum":true},{"pitch":51,"velocity":80,"startTime":115.17221799999999,"endTime":115.24610949999999,"instrument":1,"isDrum":true},{"pitch":35,"velocity":80,"startTime":115.27073999999999,"endTime":115.34463149999999,"instrument":1,"isDrum":true},{"pitch":44,"velocity":80,"startTime":115.27073999999999,"endTime":115.34463149999999,"instrument":1,"isDrum":true},{"pitch":51,"velocity":80,"startTime":115.27073999999999,"endTime":115.34463149999999,"instrument":1,"isDrum":true},{"pitch":53,"velocity":80,"startTime":115.27073999999999,"endTime":115.34463149999999,"instrument":1,"isDrum":true},{"pitch":51,"velocity":80,"startTime":115.467784,"endTime":115.5416755,"instrument":1,"isDrum":true},{"pitch":44,"velocity":80,"startTime":115.566306,"endTime":115.64019749999999,"instrument":1,"isDrum":true},{"pitch":51,"velocity":80,"startTime":115.566306,"endTime":115.64019749999999,"instrument":1,"isDrum":true},{"pitch":53,"velocity":80,"startTime":115.566306,"endTime":115.64019749999999,"instrument":1,"isDrum":true},{"pitch":51,"velocity":80,"startTime":115.76334999999999,"endTime":115.83724149999999,"instrument":1,"isDrum":true},{"pitch":35,"velocity":80,"startTime":115.86187199999999,"endTime":115.9357635,"instrument":1,"isDrum":true},{"pitch":44,"velocity":80,"startTime":115.86187199999999,"endTime":115.9357635,"instrument":1,"isDrum":true},{"pitch":51,"velocity":80,"startTime":115.86187199999999,"endTime":115.9357635,"instrument":1,"isDrum":true},{"pitch":53,"velocity":80,"startTime":115.86187199999999,"endTime":115.9357635,"instrument":1,"isDrum":true},{"pitch":51,"velocity":80,"startTime":116.058916,"endTime":116.1328075,"instrument":1,"isDrum":true},{"pitch":44,"velocity":80,"startTime":116.157438,"endTime":116.23132949999999,"instrument":1,"isDrum":true},{"pitch":51,"velocity":80,"startTime":116.157438,"endTime":116.23132949999999,"instrument":1,"isDrum":true},{"pitch":53,"velocity":80,"startTime":116.157438,"endTime":116.23132949999999,"instrument":1,"isDrum":true},{"pitch":51,"velocity":80,"startTime":116.35448199999999,"endTime":116.42837349999999,"instrument":1,"isDrum":true},{"pitch":35,"velocity":80,"startTime":116.45300399999999,"endTime":116.5268955,"instrument":1,"isDrum":true},{"pitch":44,"velocity":80,"startTime":116.45300399999999,"endTime":116.5268955,"instrument":1,"isDrum":true},{"pitch":51,"velocity":80,"startTime":116.45300399999999,"endTime":116.5268955,"instrument":1,"isDrum":true},{"pitch":53,"velocity":80,"startTime":116.45300399999999,"endTime":116.5268955,"instrument":1,"isDrum":true},{"pitch":51,"velocity":80,"startTime":116.650048,"endTime":116.72393949999999,"instrument":1,"isDrum":true},{"pitch":44,"velocity":80,"startTime":116.74856999999999,"endTime":116.82246149999999,"instrument":1,"isDrum":true},{"pitch":51,"velocity":80,"startTime":116.74856999999999,"endTime":116.82246149999999,"instrument":1,"isDrum":true},{"pitch":53,"velocity":80,"startTime":116.74856999999999,"endTime":116.82246149999999,"instrument":1,"isDrum":true},{"pitch":51,"velocity":80,"startTime":116.94561399999999,"endTime":117.0195055,"instrument":1,"isDrum":true},{"pitch":35,"velocity":80,"startTime":117.044136,"endTime":117.1180275,"instrument":1,"isDrum":true},{"pitch":44,"velocity":80,"startTime":117.044136,"endTime":117.1180275,"instrument":1,"isDrum":true},{"pitch":51,"velocity":80,"startTime":117.044136,"endTime":117.1180275,"instrument":1,"isDrum":true},{"pitch":53,"velocity":80,"startTime":117.044136,"endTime":117.1180275,"instrument":1,"isDrum":true},{"pitch":51,"velocity":80,"startTime":117.24117999999999,"endTime":117.31507149999999,"instrument":1,"isDrum":true},{"pitch":44,"velocity":80,"startTime":117.33970199999999,"endTime":117.41359349999999,"instrument":1,"isDrum":true},{"pitch":51,"velocity":80,"startTime":117.33970199999999,"endTime":117.41359349999999,"instrument":1,"isDrum":true},{"pitch":53,"velocity":80,"startTime":117.33970199999999,"endTime":117.41359349999999,"instrument":1,"isDrum":true},{"pitch":51,"velocity":80,"startTime":117.536746,"endTime":117.6106375,"instrument":1,"isDrum":true},{"pitch":44,"velocity":80,"startTime":117.635268,"endTime":117.7091595,"instrument":1,"isDrum":true},{"pitch":51,"velocity":80,"startTime":117.635268,"endTime":117.7091595,"instrument":1,"isDrum":true},{"pitch":53,"velocity":80,"startTime":117.635268,"endTime":117.7091595,"instrument":1,"isDrum":true},{"pitch":51,"velocity":80,"startTime":117.83231199999999,"endTime":117.90620349999999,"instrument":1,"isDrum":true},{"pitch":44,"velocity":80,"startTime":117.93083399999999,"endTime":118.00472549999999,"instrument":1,"isDrum":true},{"pitch":51,"velocity":80,"startTime":117.93083399999999,"endTime":118.00472549999999,"instrument":1,"isDrum":true},{"pitch":53,"velocity":80,"startTime":117.93083399999999,"endTime":118.00472549999999,"instrument":1,"isDrum":true},{"pitch":51,"velocity":80,"startTime":118.127878,"endTime":118.2017695,"instrument":1,"isDrum":true},{"pitch":35,"velocity":80,"startTime":118.2264,"endTime":118.30029149999999,"instrument":1,"isDrum":true},{"pitch":44,"velocity":80,"startTime":118.2264,"endTime":118.30029149999999,"instrument":1,"isDrum":true},{"pitch":51,"velocity":80,"startTime":118.2264,"endTime":118.30029149999999,"instrument":1,"isDrum":true},{"pitch":53,"velocity":80,"startTime":118.2264,"endTime":118.30029149999999,"instrument":1,"isDrum":true},{"pitch":51,"velocity":80,"startTime":118.42344399999999,"endTime":118.49733549999999,"instrument":1,"isDrum":true},{"pitch":38,"velocity":80,"startTime":118.52196599999999,"endTime":118.5958575,"instrument":1,"isDrum":true},{"pitch":44,"velocity":80,"startTime":118.52196599999999,"endTime":118.5958575,"instrument":1,"isDrum":true},{"pitch":51,"velocity":80,"startTime":118.52196599999999,"endTime":118.5958575,"instrument":1,"isDrum":true},{"pitch":53,"velocity":80,"startTime":118.52196599999999,"endTime":118.5958575,"instrument":1,"isDrum":true},{"pitch":51,"velocity":80,"startTime":118.71901,"endTime":118.79290149999999,"instrument":1,"isDrum":true},{"pitch":44,"velocity":80,"startTime":118.81753199999999,"endTime":118.89142349999999,"instrument":1,"isDrum":true},{"pitch":51,"velocity":80,"startTime":118.81753199999999,"endTime":118.89142349999999,"instrument":1,"isDrum":true},{"pitch":53,"velocity":80,"startTime":118.81753199999999,"endTime":118.89142349999999,"instrument":1,"isDrum":true},{"pitch":51,"velocity":80,"startTime":119.01457599999999,"endTime":119.0884675,"instrument":1,"isDrum":true},{"pitch":44,"velocity":80,"startTime":119.113098,"endTime":119.1869895,"instrument":1,"isDrum":true},{"pitch":51,"velocity":80,"startTime":119.113098,"endTime":119.1869895,"instrument":1,"isDrum":true},{"pitch":53,"velocity":80,"startTime":119.113098,"endTime":119.1869895,"instrument":1,"isDrum":true},{"pitch":51,"velocity":80,"startTime":119.31014199999998,"endTime":119.38403349999999,"instrument":1,"isDrum":true},{"pitch":35,"velocity":80,"startTime":119.40866399999999,"endTime":119.48255549999999,"instrument":1,"isDrum":true},{"pitch":44,"velocity":80,"startTime":119.40866399999999,"endTime":119.48255549999999,"instrument":1,"isDrum":true},{"pitch":51,"velocity":80,"startTime":119.40866399999999,"endTime":119.48255549999999,"instrument":1,"isDrum":true},{"pitch":53,"velocity":80,"startTime":119.40866399999999,"endTime":119.48255549999999,"instrument":1,"isDrum":true},{"pitch":51,"velocity":80,"startTime":119.60570799999999,"endTime":119.6795995,"instrument":1,"isDrum":true},{"pitch":38,"velocity":80,"startTime":119.70423,"endTime":119.7781215,"instrument":1,"isDrum":true},{"pitch":44,"velocity":80,"startTime":119.70423,"endTime":119.7781215,"instrument":1,"isDrum":true},{"pitch":51,"velocity":80,"startTime":119.70423,"endTime":119.7781215,"instrument":1,"isDrum":true},{"pitch":53,"velocity":80,"startTime":119.70423,"endTime":119.7781215,"instrument":1,"isDrum":true},{"pitch":51,"velocity":80,"startTime":119.90127399999999,"endTime":119.97516549999999,"instrument":1,"isDrum":true},{"pitch":44,"velocity":80,"startTime":119.99979599999999,"endTime":120.07368749999999,"instrument":1,"isDrum":true},{"pitch":53,"velocity":80,"startTime":119.99979599999999,"endTime":120.07368749999999,"instrument":1,"isDrum":true},{"pitch":35,"velocity":80,"startTime":120.295362,"endTime":120.36925349999999,"instrument":1,"isDrum":true},{"pitch":44,"velocity":80,"startTime":120.295362,"endTime":120.36925349999999,"instrument":1,"isDrum":true},{"pitch":51,"velocity":80,"startTime":120.295362,"endTime":120.36925349999999,"instrument":1,"isDrum":true},{"pitch":53,"velocity":80,"startTime":120.295362,"endTime":120.36925349999999,"instrument":1,"isDrum":true},{"pitch":51,"velocity":80,"startTime":120.49240599999999,"endTime":120.56629749999999,"instrument":1,"isDrum":true},{"pitch":44,"velocity":80,"startTime":120.59092799999999,"endTime":120.6648195,"instrument":1,"isDrum":true},{"pitch":51,"velocity":80,"startTime":120.59092799999999,"endTime":120.6648195,"instrument":1,"isDrum":true},{"pitch":53,"velocity":80,"startTime":120.59092799999999,"endTime":120.6648195,"instrument":1,"isDrum":true},{"pitch":51,"velocity":80,"startTime":120.787972,"endTime":120.8618635,"instrument":1,"isDrum":true},{"pitch":44,"velocity":80,"startTime":120.88649399999998,"endTime":120.96038549999999,"instrument":1,"isDrum":true},{"pitch":51,"velocity":80,"startTime":120.88649399999998,"endTime":120.96038549999999,"instrument":1,"isDrum":true},{"pitch":53,"velocity":80,"startTime":120.88649399999998,"endTime":120.96038549999999,"instrument":1,"isDrum":true},{"pitch":51,"velocity":80,"startTime":121.08353799999999,"endTime":121.15742949999999,"instrument":1,"isDrum":true},{"pitch":43,"velocity":103,"startTime":113.497344,"endTime":113.71901849999999,"instrument":2,"program":32},{"pitch":31,"velocity":103,"startTime":113.71901849999999,"endTime":113.76827949999999,"instrument":2,"program":32},{"pitch":43,"velocity":103,"startTime":113.79290999999999,"endTime":114.08847599999999,"instrument":2,"program":32},{"pitch":50,"velocity":103,"startTime":114.08847599999999,"endTime":114.31015049999999,"instrument":2,"program":32},{"pitch":38,"velocity":103,"startTime":114.31015049999999,"endTime":114.3594115,"instrument":2,"program":32},{"pitch":43,"velocity":103,"startTime":114.384042,"endTime":114.60571649999999,"instrument":2,"program":32},{"pitch":38,"velocity":103,"startTime":114.60571649999999,"endTime":114.65497749999999,"instrument":2,"program":32},{"pitch":31,"velocity":103,"startTime":114.67960799999999,"endTime":114.9012825,"instrument":2,"program":32},{"pitch":31,"velocity":103,"startTime":114.9012825,"endTime":114.9505435,"instrument":2,"program":32},{"pitch":35,"velocity":103,"startTime":114.975174,"endTime":115.27073999999999,"instrument":2,"program":32},{"pitch":38,"velocity":103,"startTime":115.27073999999999,"endTime":115.4924145,"instrument":2,"program":32},{"pitch":26,"velocity":103,"startTime":115.4924145,"endTime":115.566306,"instrument":2,"program":32},{"pitch":31,"velocity":103,"startTime":115.566306,"endTime":115.83724149999999,"instrument":2,"program":32},{"pitch":40,"velocity":103,"startTime":115.86187199999999,"endTime":116.157438,"instrument":2,"program":32},{"pitch":35,"velocity":103,"startTime":116.157438,"endTime":116.37911249999999,"instrument":2,"program":32},{"pitch":35,"velocity":103,"startTime":116.37911249999999,"endTime":116.42837349999999,"instrument":2,"program":32},{"pitch":40,"velocity":103,"startTime":116.45300399999999,"endTime":116.74856999999999,"instrument":2,"program":32},{"pitch":47,"velocity":103,"startTime":116.74856999999999,"endTime":116.94561399999999,"instrument":2,"program":32},{"pitch":40,"velocity":103,"startTime":116.97024449999999,"endTime":117.0195055,"instrument":2,"program":32},{"pitch":28,"velocity":103,"startTime":117.044136,"endTime":117.33970199999999,"instrument":2,"program":32},{"pitch":35,"velocity":103,"startTime":117.33970199999999,"endTime":117.635268,"instrument":2,"program":32},{"pitch":40,"velocity":103,"startTime":117.635268,"endTime":117.83231199999999,"instrument":2,"program":32},{"pitch":35,"velocity":103,"startTime":117.85694249999999,"endTime":117.90620349999999,"instrument":2,"program":32},{"pitch":28,"velocity":103,"startTime":117.93083399999999,"endTime":118.2017695,"instrument":2,"program":32},{"pitch":36,"velocity":103,"startTime":118.2264,"endTime":118.52196599999999,"instrument":2,"program":32},{"pitch":40,"velocity":103,"startTime":118.52196599999999,"endTime":118.81753199999999,"instrument":2,"program":32},{"pitch":43,"velocity":103,"startTime":118.81753199999999,"endTime":119.113098,"instrument":2,"program":32},{"pitch":40,"velocity":103,"startTime":119.113098,"endTime":119.33477249999999,"instrument":2,"program":32},{"pitch":43,"velocity":103,"startTime":119.33477249999999,"endTime":119.38403349999999,"instrument":2,"program":32},{"pitch":38,"velocity":103,"startTime":119.40866399999999,"endTime":119.70423,"instrument":2,"program":32},{"pitch":33,"velocity":103,"startTime":119.70423,"endTime":119.99979599999999,"instrument":2,"program":32},{"pitch":38,"velocity":103,"startTime":119.99979599999999,"endTime":120.2214705,"instrument":2,"program":32},{"pitch":26,"velocity":103,"startTime":120.2214705,"endTime":120.2707315,"instrument":2,"program":32},{"pitch":38,"velocity":103,"startTime":120.295362,"endTime":120.59092799999999,"instrument":2,"program":32},{"pitch":31,"velocity":103,"startTime":120.59092799999999,"endTime":120.88649399999998,"instrument":2,"program":32},{"pitch":35,"velocity":103,"startTime":120.88649399999998,"endTime":121.18205999999999,"instrument":2,"program":32},{"pitch":38,"velocity":103,"startTime":121.18205999999999,"endTime":121.47762599999999,"instrument":2,"program":32},{"pitch":38,"velocity":103,"startTime":121.47762599999999,"endTime":121.773192,"instrument":2,"program":32},{"pitch":31,"velocity":103,"startTime":121.773192,"endTime":122.11801899999999,"instrument":2,"program":32},{"pitch":38,"velocity":103,"startTime":122.06875799999999,"endTime":122.364324,"instrument":2,"program":32},{"pitch":43,"velocity":103,"startTime":122.364324,"endTime":122.65988999999999,"instrument":2,"program":32},{"pitch":38,"velocity":103,"startTime":122.65988999999999,"endTime":122.8815645,"instrument":2,"program":32},{"pitch":31,"velocity":103,"startTime":122.8815645,"endTime":122.9308255,"instrument":2,"program":32},{"pitch":55,"velocity":57,"startTime":123.15249999999999,"endTime":123.25102199999999},{"pitch":58,"velocity":57,"startTime":123.15249999999999,"endTime":123.22639149999999},{"pitch":62,"velocity":57,"startTime":123.15249999999999,"endTime":123.22639149999999},{"pitch":53,"velocity":57,"startTime":123.27565249999999,"endTime":123.3741745},{"pitch":59,"velocity":57,"startTime":123.27565249999999,"endTime":123.349544},{"pitch":62,"velocity":57,"startTime":123.27565249999999,"endTime":123.3741745},{"pitch":57,"velocity":57,"startTime":123.76826249999999,"endTime":123.842154},{"pitch":62,"velocity":57,"startTime":123.76826249999999,"endTime":123.842154},{"pitch":69,"velocity":57,"startTime":123.76826249999999,"endTime":123.8175235},{"pitch":43,"velocity":57,"startTime":124.13771999999999,"endTime":125.29535349999999},{"pitch":59,"velocity":57,"startTime":124.13771999999999,"endTime":125.29535349999999},{"pitch":52,"velocity":57,"startTime":124.16235049999999,"endTime":125.29535349999999},{"pitch":57,"velocity":57,"startTime":124.16235049999999,"endTime":125.29535349999999},{"pitch":40,"velocity":57,"startTime":125.31998399999999,"endTime":125.4431365},{"pitch":57,"velocity":57,"startTime":125.31998399999999,"endTime":125.4431365},{"pitch":62,"velocity":57,"startTime":125.31998399999999,"endTime":125.418506},{"pitch":66,"velocity":57,"startTime":125.31998399999999,"endTime":125.418506},{"pitch":40,"velocity":57,"startTime":126.502248,"endTime":127.6598815},{"pitch":55,"velocity":57,"startTime":126.502248,"endTime":127.6598815},{"pitch":59,"velocity":57,"startTime":126.502248,"endTime":127.6598815},{"pitch":52,"velocity":57,"startTime":126.5268785,"endTime":127.6598815},{"pitch":59,"velocity":57,"startTime":127.684512,"endTime":127.80766449999999},{"pitch":60,"velocity":57,"startTime":127.684512,"endTime":127.80766449999999},{"pitch":64,"velocity":57,"startTime":127.684512,"endTime":127.78303399999999},{"pitch":67,"velocity":57,"startTime":127.684512,"endTime":127.78303399999999},{"pitch":59,"velocity":57,"startTime":128.3002745,"endTime":128.374166},{"pitch":60,"velocity":57,"startTime":128.3002745,"endTime":128.374166},{"pitch":64,"velocity":57,"startTime":128.3002745,"endTime":128.374166},{"pitch":67,"velocity":57,"startTime":128.3002745,"endTime":128.374166},{"pitch":57,"velocity":57,"startTime":128.866776,"endTime":130.0244095},{"pitch":64,"velocity":57,"startTime":128.866776,"endTime":130.0244095},{"pitch":50,"velocity":57,"startTime":128.8914065,"endTime":130.0244095},{"pitch":57,"velocity":57,"startTime":128.8914065,"endTime":130.0244095},{"pitch":43,"velocity":57,"startTime":130.04904,"endTime":130.147562},{"pitch":57,"velocity":57,"startTime":130.04904,"endTime":130.147562},{"pitch":59,"velocity":57,"startTime":130.04904,"endTime":130.1721925},{"pitch":62,"velocity":57,"startTime":130.04904,"endTime":130.1721925},{"pitch":57,"velocity":57,"startTime":130.86184649999998,"endTime":130.9603685},{"pitch":59,"velocity":57,"startTime":130.86184649999998,"endTime":130.9603685},{"pitch":62,"velocity":57,"startTime":130.86184649999998,"endTime":130.9603685},{"pitch":69,"velocity":57,"startTime":130.86184649999998,"endTime":130.935738},{"pitch":43,"velocity":57,"startTime":131.231304,"endTime":131.329826},{"pitch":57,"velocity":57,"startTime":131.231304,"endTime":131.3544565},{"pitch":59,"velocity":57,"startTime":131.231304,"endTime":131.329826},{"pitch":62,"velocity":57,"startTime":131.231304,"endTime":131.329826},{"pitch":55,"velocity":57,"startTime":131.82243599999998,"endTime":131.92095799999998},{"pitch":59,"velocity":57,"startTime":131.82243599999998,"endTime":131.92095799999998},{"pitch":62,"velocity":57,"startTime":131.82243599999998,"endTime":131.92095799999998},{"pitch":35,"velocity":80,"startTime":122.955456,"endTime":123.00471699999999,"instrument":1,"isDrum":true},{"pitch":44,"velocity":80,"startTime":122.955456,"endTime":123.00471699999999,"instrument":1,"isDrum":true},{"pitch":51,"velocity":80,"startTime":122.955456,"endTime":123.00471699999999,"instrument":1,"isDrum":true},{"pitch":53,"velocity":80,"startTime":122.955456,"endTime":123.00471699999999,"instrument":1,"isDrum":true},{"pitch":56,"velocity":80,"startTime":122.955456,"endTime":123.00471699999999,"instrument":1,"isDrum":true},{"pitch":53,"velocity":80,"startTime":123.15249999999999,"endTime":123.22639149999999,"instrument":1,"isDrum":true},{"pitch":44,"velocity":80,"startTime":123.25102199999999,"endTime":123.300283,"instrument":1,"isDrum":true},{"pitch":51,"velocity":80,"startTime":123.25102199999999,"endTime":123.300283,"instrument":1,"isDrum":true},{"pitch":54,"velocity":80,"startTime":123.25102199999999,"endTime":123.300283,"instrument":1,"isDrum":true},{"pitch":56,"velocity":80,"startTime":123.25102199999999,"endTime":123.300283,"instrument":1,"isDrum":true},{"pitch":53,"velocity":80,"startTime":123.448066,"endTime":123.52195749999998,"instrument":1,"isDrum":true},{"pitch":35,"velocity":80,"startTime":123.54658799999999,"endTime":123.59584899999999,"instrument":1,"isDrum":true},{"pitch":44,"velocity":80,"startTime":123.54658799999999,"endTime":123.59584899999999,"instrument":1,"isDrum":true},{"pitch":51,"velocity":80,"startTime":123.54658799999999,"endTime":123.59584899999999,"instrument":1,"isDrum":true},{"pitch":53,"velocity":80,"startTime":123.54658799999999,"endTime":123.59584899999999,"instrument":1,"isDrum":true},{"pitch":56,"velocity":80,"startTime":123.54658799999999,"endTime":123.59584899999999,"instrument":1,"isDrum":true},{"pitch":51,"velocity":80,"startTime":123.74363199999999,"endTime":123.8175235,"instrument":1,"isDrum":true},{"pitch":38,"velocity":80,"startTime":123.842154,"endTime":123.891415,"instrument":1,"isDrum":true},{"pitch":44,"velocity":80,"startTime":123.842154,"endTime":123.891415,"instrument":1,"isDrum":true},{"pitch":51,"velocity":80,"startTime":123.842154,"endTime":123.891415,"instrument":1,"isDrum":true},{"pitch":53,"velocity":80,"startTime":123.842154,"endTime":123.891415,"instrument":1,"isDrum":true},{"pitch":56,"velocity":80,"startTime":123.842154,"endTime":123.891415,"instrument":1,"isDrum":true},{"pitch":51,"velocity":80,"startTime":124.03919799999998,"endTime":124.11308949999999,"instrument":1,"isDrum":true},{"pitch":44,"velocity":80,"startTime":124.13771999999999,"endTime":124.18698099999999,"instrument":1,"isDrum":true},{"pitch":51,"velocity":80,"startTime":124.13771999999999,"endTime":124.18698099999999,"instrument":1,"isDrum":true},{"pitch":53,"velocity":80,"startTime":124.13771999999999,"endTime":124.18698099999999,"instrument":1,"isDrum":true},{"pitch":56,"velocity":80,"startTime":124.13771999999999,"endTime":124.18698099999999,"instrument":1,"isDrum":true},{"pitch":35,"velocity":80,"startTime":124.33476399999999,"endTime":124.4086555,"instrument":1,"isDrum":true},{"pitch":51,"velocity":80,"startTime":124.33476399999999,"endTime":124.4086555,"instrument":1,"isDrum":true},{"pitch":35,"velocity":80,"startTime":124.433286,"endTime":124.482547,"instrument":1,"isDrum":true},{"pitch":44,"velocity":80,"startTime":124.433286,"endTime":124.482547,"instrument":1,"isDrum":true},{"pitch":51,"velocity":80,"startTime":124.433286,"endTime":124.482547,"instrument":1,"isDrum":true},{"pitch":53,"velocity":80,"startTime":124.433286,"endTime":124.482547,"instrument":1,"isDrum":true},{"pitch":51,"velocity":80,"startTime":124.63032999999999,"endTime":124.70422149999999,"instrument":1,"isDrum":true},{"pitch":35,"velocity":80,"startTime":124.72885199999999,"endTime":124.77811299999999,"instrument":1,"isDrum":true},{"pitch":44,"velocity":80,"startTime":124.72885199999999,"endTime":124.77811299999999,"instrument":1,"isDrum":true},{"pitch":51,"velocity":80,"startTime":124.72885199999999,"endTime":124.77811299999999,"instrument":1,"isDrum":true},{"pitch":53,"velocity":80,"startTime":124.72885199999999,"endTime":124.77811299999999,"instrument":1,"isDrum":true},{"pitch":56,"velocity":80,"startTime":124.72885199999999,"endTime":124.77811299999999,"instrument":1,"isDrum":true},{"pitch":51,"velocity":80,"startTime":124.925896,"endTime":124.9997875,"instrument":1,"isDrum":true},{"pitch":38,"velocity":80,"startTime":125.024418,"endTime":125.07367899999998,"instrument":1,"isDrum":true},{"pitch":44,"velocity":80,"startTime":125.024418,"endTime":125.07367899999998,"instrument":1,"isDrum":true},{"pitch":51,"velocity":80,"startTime":125.024418,"endTime":125.07367899999998,"instrument":1,"isDrum":true},{"pitch":53,"velocity":80,"startTime":125.024418,"endTime":125.07367899999998,"instrument":1,"isDrum":true},{"pitch":56,"velocity":80,"startTime":125.024418,"endTime":125.07367899999998,"instrument":1,"isDrum":true},{"pitch":51,"velocity":80,"startTime":125.22146199999999,"endTime":125.29535349999999,"instrument":1,"isDrum":true},{"pitch":44,"velocity":80,"startTime":125.31998399999999,"endTime":125.36924499999999,"instrument":1,"isDrum":true},{"pitch":53,"velocity":80,"startTime":125.31998399999999,"endTime":125.36924499999999,"instrument":1,"isDrum":true},{"pitch":54,"velocity":80,"startTime":125.31998399999999,"endTime":125.36924499999999,"instrument":1,"isDrum":true},{"pitch":35,"velocity":80,"startTime":125.517028,"endTime":125.5909195,"instrument":1,"isDrum":true},{"pitch":35,"velocity":80,"startTime":125.61554999999998,"endTime":125.66481099999999,"instrument":1,"isDrum":true},{"pitch":44,"velocity":80,"startTime":125.61554999999998,"endTime":125.66481099999999,"instrument":1,"isDrum":true},{"pitch":53,"velocity":80,"startTime":125.61554999999998,"endTime":125.66481099999999,"instrument":1,"isDrum":true},{"pitch":54,"velocity":80,"startTime":125.61554999999998,"endTime":125.66481099999999,"instrument":1,"isDrum":true},{"pitch":35,"velocity":80,"startTime":125.81259399999999,"endTime":125.88648549999999,"instrument":1,"isDrum":true},{"pitch":51,"velocity":80,"startTime":125.81259399999999,"endTime":125.88648549999999,"instrument":1,"isDrum":true},{"pitch":35,"velocity":80,"startTime":125.91111599999999,"endTime":125.960377,"instrument":1,"isDrum":true},{"pitch":44,"velocity":80,"startTime":125.91111599999999,"endTime":125.960377,"instrument":1,"isDrum":true},{"pitch":51,"velocity":80,"startTime":125.91111599999999,"endTime":125.960377,"instrument":1,"isDrum":true},{"pitch":53,"velocity":80,"startTime":125.91111599999999,"endTime":125.960377,"instrument":1,"isDrum":true},{"pitch":51,"velocity":80,"startTime":126.10816,"endTime":126.18205149999999,"instrument":1,"isDrum":true},{"pitch":38,"velocity":80,"startTime":126.20668199999999,"endTime":126.25594299999999,"instrument":1,"isDrum":true},{"pitch":44,"velocity":80,"startTime":126.20668199999999,"endTime":126.25594299999999,"instrument":1,"isDrum":true},{"pitch":51,"velocity":80,"startTime":126.20668199999999,"endTime":126.25594299999999,"instrument":1,"isDrum":true},{"pitch":53,"velocity":80,"startTime":126.20668199999999,"endTime":126.25594299999999,"instrument":1,"isDrum":true},{"pitch":56,"velocity":80,"startTime":126.20668199999999,"endTime":126.25594299999999,"instrument":1,"isDrum":true},{"pitch":51,"velocity":80,"startTime":126.40372599999999,"endTime":126.4776175,"instrument":1,"isDrum":true},{"pitch":44,"velocity":80,"startTime":126.502248,"endTime":126.551509,"instrument":1,"isDrum":true},{"pitch":53,"velocity":80,"startTime":126.502248,"endTime":126.551509,"instrument":1,"isDrum":true},{"pitch":54,"velocity":80,"startTime":126.502248,"endTime":126.551509,"instrument":1,"isDrum":true},{"pitch":35,"velocity":80,"startTime":126.69929199999999,"endTime":126.77318349999999,"instrument":1,"isDrum":true},{"pitch":44,"velocity":80,"startTime":126.79781399999999,"endTime":126.84707499999999,"instrument":1,"isDrum":true},{"pitch":51,"velocity":80,"startTime":126.79781399999999,"endTime":126.84707499999999,"instrument":1,"isDrum":true},{"pitch":54,"velocity":80,"startTime":126.79781399999999,"endTime":126.84707499999999,"instrument":1,"isDrum":true},{"pitch":56,"velocity":80,"startTime":126.79781399999999,"endTime":126.84707499999999,"instrument":1,"isDrum":true},{"pitch":35,"velocity":80,"startTime":126.994858,"endTime":127.0687495,"instrument":1,"isDrum":true},{"pitch":38,"velocity":80,"startTime":126.994858,"endTime":127.0687495,"instrument":1,"isDrum":true},{"pitch":35,"velocity":80,"startTime":127.09338,"endTime":127.142641,"instrument":1,"isDrum":true},{"pitch":44,"velocity":80,"startTime":127.09338,"endTime":127.142641,"instrument":1,"isDrum":true},{"pitch":51,"velocity":80,"startTime":127.09338,"endTime":127.142641,"instrument":1,"isDrum":true},{"pitch":53,"velocity":80,"startTime":127.09338,"endTime":127.142641,"instrument":1,"isDrum":true},{"pitch":51,"velocity":80,"startTime":127.29042399999999,"endTime":127.36431549999999,"instrument":1,"isDrum":true},{"pitch":38,"velocity":80,"startTime":127.38894599999999,"endTime":127.43820699999999,"instrument":1,"isDrum":true},{"pitch":44,"velocity":80,"startTime":127.38894599999999,"endTime":127.43820699999999,"instrument":1,"isDrum":true},{"pitch":51,"velocity":80,"startTime":127.38894599999999,"endTime":127.43820699999999,"instrument":1,"isDrum":true},{"pitch":53,"velocity":80,"startTime":127.38894599999999,"endTime":127.43820699999999,"instrument":1,"isDrum":true},{"pitch":56,"velocity":80,"startTime":127.38894599999999,"endTime":127.43820699999999,"instrument":1,"isDrum":true},{"pitch":35,"velocity":80,"startTime":127.58599,"endTime":127.6598815,"instrument":1,"isDrum":true},{"pitch":53,"velocity":80,"startTime":127.58599,"endTime":127.6598815,"instrument":1,"isDrum":true},{"pitch":44,"velocity":80,"startTime":127.684512,"endTime":127.73377299999999,"instrument":1,"isDrum":true},{"pitch":51,"velocity":80,"startTime":127.684512,"endTime":127.73377299999999,"instrument":1,"isDrum":true},{"pitch":53,"velocity":80,"startTime":127.684512,"endTime":127.73377299999999,"instrument":1,"isDrum":true},{"pitch":56,"velocity":80,"startTime":127.684512,"endTime":127.73377299999999,"instrument":1,"isDrum":true},{"pitch":35,"velocity":80,"startTime":127.88155599999999,"endTime":127.95544749999999,"instrument":1,"isDrum":true},{"pitch":38,"velocity":80,"startTime":127.88155599999999,"endTime":127.95544749999999,"instrument":1,"isDrum":true},{"pitch":51,"velocity":80,"startTime":127.88155599999999,"endTime":127.95544749999999,"instrument":1,"isDrum":true},{"pitch":35,"velocity":80,"startTime":127.98007799999999,"endTime":128.029339,"instrument":1,"isDrum":true},{"pitch":44,"velocity":80,"startTime":127.98007799999999,"endTime":128.029339,"instrument":1,"isDrum":true},{"pitch":51,"velocity":80,"startTime":127.98007799999999,"endTime":128.029339,"instrument":1,"isDrum":true},{"pitch":53,"velocity":80,"startTime":127.98007799999999,"endTime":128.029339,"instrument":1,"isDrum":true},{"pitch":56,"velocity":80,"startTime":127.98007799999999,"endTime":128.029339,"instrument":1,"isDrum":true},{"pitch":53,"velocity":80,"startTime":128.177122,"endTime":128.2510135,"instrument":1,"isDrum":true},{"pitch":35,"velocity":80,"startTime":128.275644,"endTime":128.324905,"instrument":1,"isDrum":true},{"pitch":44,"velocity":80,"startTime":128.275644,"endTime":128.324905,"instrument":1,"isDrum":true},{"pitch":51,"velocity":80,"startTime":128.275644,"endTime":128.324905,"instrument":1,"isDrum":true},{"pitch":53,"velocity":80,"startTime":128.275644,"endTime":128.324905,"instrument":1,"isDrum":true},{"pitch":51,"velocity":80,"startTime":128.472688,"endTime":128.54657949999998,"instrument":1,"isDrum":true},{"pitch":38,"velocity":80,"startTime":128.57120999999998,"endTime":128.62047099999998,"instrument":1,"isDrum":true},{"pitch":44,"velocity":80,"startTime":128.57120999999998,"endTime":128.62047099999998,"instrument":1,"isDrum":true},{"pitch":51,"velocity":80,"startTime":128.57120999999998,"endTime":128.62047099999998,"instrument":1,"isDrum":true},{"pitch":53,"velocity":80,"startTime":128.57120999999998,"endTime":128.62047099999998,"instrument":1,"isDrum":true},{"pitch":56,"velocity":80,"startTime":128.57120999999998,"endTime":128.62047099999998,"instrument":1,"isDrum":true},{"pitch":53,"velocity":80,"startTime":128.76825399999998,"endTime":128.8421455,"instrument":1,"isDrum":true},{"pitch":44,"velocity":80,"startTime":128.866776,"endTime":128.916037,"instrument":1,"isDrum":true},{"pitch":51,"velocity":80,"startTime":128.866776,"endTime":128.916037,"instrument":1,"isDrum":true},{"pitch":53,"velocity":80,"startTime":128.866776,"endTime":128.916037,"instrument":1,"isDrum":true},{"pitch":56,"velocity":80,"startTime":128.866776,"endTime":128.916037,"instrument":1,"isDrum":true},{"pitch":35,"velocity":80,"startTime":129.06382,"endTime":129.1377115,"instrument":1,"isDrum":true},{"pitch":53,"velocity":80,"startTime":129.06382,"endTime":129.1377115,"instrument":1,"isDrum":true},{"pitch":35,"velocity":80,"startTime":129.162342,"endTime":129.211603,"instrument":1,"isDrum":true},{"pitch":44,"velocity":80,"startTime":129.162342,"endTime":129.211603,"instrument":1,"isDrum":true},{"pitch":51,"velocity":80,"startTime":129.162342,"endTime":129.211603,"instrument":1,"isDrum":true},{"pitch":53,"velocity":80,"startTime":129.162342,"endTime":129.211603,"instrument":1,"isDrum":true},{"pitch":54,"velocity":80,"startTime":129.162342,"endTime":129.211603,"instrument":1,"isDrum":true},{"pitch":35,"velocity":80,"startTime":129.359386,"endTime":129.4332775,"instrument":1,"isDrum":true},{"pitch":53,"velocity":80,"startTime":129.359386,"endTime":129.4332775,"instrument":1,"isDrum":true},{"pitch":35,"velocity":80,"startTime":129.457908,"endTime":129.507169,"instrument":1,"isDrum":true},{"pitch":44,"velocity":80,"startTime":129.457908,"endTime":129.507169,"instrument":1,"isDrum":true},{"pitch":51,"velocity":80,"startTime":129.457908,"endTime":129.507169,"instrument":1,"isDrum":true},{"pitch":53,"velocity":80,"startTime":129.457908,"endTime":129.507169,"instrument":1,"isDrum":true},{"pitch":51,"velocity":80,"startTime":129.65495199999998,"endTime":129.72884349999998,"instrument":1,"isDrum":true},{"pitch":38,"velocity":80,"startTime":129.75347399999998,"endTime":129.80273499999998,"instrument":1,"isDrum":true},{"pitch":44,"velocity":80,"startTime":129.75347399999998,"endTime":129.80273499999998,"instrument":1,"isDrum":true},{"pitch":51,"velocity":80,"startTime":129.75347399999998,"endTime":129.80273499999998,"instrument":1,"isDrum":true},{"pitch":53,"velocity":80,"startTime":129.75347399999998,"endTime":129.80273499999998,"instrument":1,"isDrum":true},{"pitch":56,"velocity":80,"startTime":129.75347399999998,"endTime":129.80273499999998,"instrument":1,"isDrum":true},{"pitch":53,"velocity":80,"startTime":129.950518,"endTime":130.0244095,"instrument":1,"isDrum":true},{"pitch":44,"velocity":80,"startTime":130.04904,"endTime":130.098301,"instrument":1,"isDrum":true},{"pitch":51,"velocity":80,"startTime":130.04904,"endTime":130.098301,"instrument":1,"isDrum":true},{"pitch":53,"velocity":80,"startTime":130.04904,"endTime":130.098301,"instrument":1,"isDrum":true},{"pitch":35,"velocity":80,"startTime":130.246084,"endTime":130.3199755,"instrument":1,"isDrum":true},{"pitch":51,"velocity":80,"startTime":130.246084,"endTime":130.3199755,"instrument":1,"isDrum":true},{"pitch":35,"velocity":80,"startTime":130.344606,"endTime":130.393867,"instrument":1,"isDrum":true},{"pitch":44,"velocity":80,"startTime":130.344606,"endTime":130.393867,"instrument":1,"isDrum":true},{"pitch":53,"velocity":80,"startTime":130.344606,"endTime":130.393867,"instrument":1,"isDrum":true},{"pitch":54,"velocity":80,"startTime":130.344606,"endTime":130.393867,"instrument":1,"isDrum":true},{"pitch":56,"velocity":80,"startTime":130.344606,"endTime":130.393867,"instrument":1,"isDrum":true},{"pitch":51,"velocity":80,"startTime":130.54165,"endTime":130.61554149999998,"instrument":1,"isDrum":true},{"pitch":31,"velocity":103,"startTime":122.955456,"endTime":123.300283,"instrument":2,"program":32},{"pitch":38,"velocity":103,"startTime":123.25102199999999,"endTime":123.842154,"instrument":2,"program":32},{"pitch":38,"velocity":103,"startTime":123.54658799999999,"endTime":123.57121849999999,"instrument":2,"program":32},{"pitch":35,"velocity":103,"startTime":123.842154,"endTime":124.13771999999999,"instrument":2,"program":32},{"pitch":31,"velocity":103,"startTime":124.13771999999999,"endTime":124.482547,"instrument":2,"program":32},{"pitch":35,"velocity":103,"startTime":124.433286,"endTime":125.0490485,"instrument":2,"program":32},{"pitch":35,"velocity":103,"startTime":124.72885199999999,"endTime":124.75348249999999,"instrument":2,"program":32},{"pitch":38,"velocity":103,"startTime":125.024418,"endTime":125.31998399999999,"instrument":2,"program":32},{"pitch":40,"velocity":103,"startTime":125.31998399999999,"endTime":125.5909195,"instrument":2,"program":32},{"pitch":35,"velocity":103,"startTime":125.5416585,"endTime":125.61554999999998,"instrument":2,"program":32},{"pitch":40,"velocity":103,"startTime":125.61554999999998,"endTime":125.91111599999999,"instrument":2,"program":32},{"pitch":35,"velocity":103,"startTime":125.91111599999999,"endTime":126.13279049999998,"instrument":2,"program":32},{"pitch":23,"velocity":103,"startTime":126.13279049999998,"endTime":126.20668199999999,"instrument":2,"program":32},{"pitch":35,"velocity":103,"startTime":126.20668199999999,"endTime":126.502248,"instrument":2,"program":32},{"pitch":28,"velocity":103,"startTime":126.502248,"endTime":126.79781399999999,"instrument":2,"program":32},{"pitch":35,"velocity":103,"startTime":126.79781399999999,"endTime":127.09338,"instrument":2,"program":32},{"pitch":35,"velocity":103,"startTime":127.09338,"endTime":127.38894599999999,"instrument":2,"program":32},{"pitch":35,"velocity":103,"startTime":127.38894599999999,"endTime":127.58599,"instrument":2,"program":32},{"pitch":38,"velocity":103,"startTime":127.6106205,"endTime":127.684512,"instrument":2,"program":32},{"pitch":36,"velocity":103,"startTime":127.684512,"endTime":127.98007799999999,"instrument":2,"program":32},{"pitch":40,"velocity":103,"startTime":127.98007799999999,"endTime":128.275644,"instrument":2,"program":32},{"pitch":43,"velocity":103,"startTime":128.275644,"endTime":128.57120999999998,"instrument":2,"program":32},{"pitch":40,"velocity":103,"startTime":128.57120999999998,"endTime":128.866776,"instrument":2,"program":32},{"pitch":38,"velocity":103,"startTime":128.866776,"endTime":129.162342,"instrument":2,"program":32},{"pitch":40,"velocity":103,"startTime":129.162342,"endTime":129.457908,"instrument":2,"program":32},{"pitch":45,"velocity":103,"startTime":129.457908,"endTime":129.75347399999998,"instrument":2,"program":32},{"pitch":45,"velocity":103,"startTime":129.75347399999998,"endTime":130.04904,"instrument":2,"program":32},{"pitch":43,"velocity":103,"startTime":130.04904,"endTime":130.246084,"instrument":2,"program":32},{"pitch":38,"velocity":103,"startTime":130.2707145,"endTime":130.3199755,"instrument":2,"program":32},{"pitch":43,"velocity":103,"startTime":130.344606,"endTime":130.64017199999998,"instrument":2,"program":32},{"pitch":47,"velocity":103,"startTime":130.64017199999998,"endTime":130.935738,"instrument":2,"program":32},{"pitch":43,"velocity":103,"startTime":130.935738,"endTime":131.231304,"instrument":2,"program":32},{"pitch":43,"velocity":103,"startTime":131.231304,"endTime":131.576131,"instrument":2,"program":32},{"pitch":38,"velocity":103,"startTime":131.52687,"endTime":131.84706649999998,"instrument":2,"program":32},{"pitch":43,"velocity":103,"startTime":131.82243599999998,"endTime":132.413568,"instrument":2,"program":32},{"pitch":43,"velocity":103,"startTime":132.118002,"endTime":132.1426325,"instrument":2,"program":32},{"pitch":43,"velocity":57,"startTime":132.4381985,"endTime":132.5367205},{"pitch":67,"velocity":57,"startTime":132.4381985,"endTime":132.561351},{"pitch":59,"velocity":57,"startTime":132.462829,"endTime":132.5367205},{"pitch":62,"velocity":57,"startTime":132.462829,"endTime":132.5367205},{"pitch":38,"velocity":57,"startTime":132.93080849999998,"endTime":132.98006949999998},{"pitch":43,"velocity":57,"startTime":133.0293305,"endTime":133.103222},{"pitch":55,"velocity":57,"startTime":133.0293305,"endTime":133.0785915},{"pitch":62,"velocity":57,"startTime":133.0293305,"endTime":133.103222},{"pitch":67,"velocity":57,"startTime":133.0293305,"endTime":133.103222},{"pitch":43,"velocity":57,"startTime":133.5219405,"endTime":133.595832},{"pitch":43,"velocity":57,"startTime":133.694354,"endTime":133.7189845},{"pitch":57,"velocity":57,"startTime":133.81750649999998,"endTime":133.91602849999998},{"pitch":43,"velocity":57,"startTime":133.84213699999998,"endTime":133.89139799999998},{"pitch":59,"velocity":57,"startTime":133.84213699999998,"endTime":133.91602849999998},{"pitch":67,"velocity":57,"startTime":133.84213699999998,"endTime":133.91602849999998},{"pitch":43,"velocity":57,"startTime":134.1130725,"endTime":134.2115945},{"pitch":57,"velocity":57,"startTime":134.7042045,"endTime":134.77809599999998},{"pitch":62,"velocity":57,"startTime":134.7042045,"endTime":134.77809599999998},{"pitch":66,"velocity":57,"startTime":134.7042045,"endTime":134.77809599999998},{"pitch":40,"velocity":57,"startTime":134.80272649999998,"endTime":134.85198749999998},{"pitch":52,"velocity":57,"startTime":134.85198749999998,"endTime":134.92587899999998},{"pitch":60,"velocity":57,"startTime":134.87661799999998,"endTime":134.92587899999998},{"pitch":50,"velocity":57,"startTime":135.2953365,"endTime":135.3445975},{"pitch":60,"velocity":57,"startTime":135.5909025,"endTime":135.615533},{"pitch":40,"velocity":57,"startTime":135.664794,"endTime":135.7879465},{"pitch":50,"velocity":57,"startTime":135.6894245,"endTime":135.7879465},{"pitch":55,"velocity":57,"startTime":135.6894245,"endTime":135.7879465},{"pitch":59,"velocity":57,"startTime":135.6894245,"endTime":135.763316},{"pitch":40,"velocity":57,"startTime":136.1820345,"endTime":136.206665},{"pitch":52,"velocity":57,"startTime":136.255926,"endTime":136.3298175},{"pitch":59,"velocity":57,"startTime":136.255926,"endTime":136.354448},{"pitch":66,"velocity":57,"startTime":136.255926,"endTime":136.3790785},{"pitch":52,"velocity":57,"startTime":136.7731665,"endTime":136.797797},{"pitch":59,"velocity":57,"startTime":136.847058,"endTime":136.97021049999998},{"pitch":66,"velocity":57,"startTime":136.847058,"endTime":136.94557999999998},{"pitch":36,"velocity":57,"startTime":137.14262399999998,"endTime":137.21651549999999},{"pitch":59,"velocity":57,"startTime":137.14262399999998,"endTime":137.19188499999998},{"pitch":55,"velocity":57,"startTime":137.16725449999998,"endTime":137.21651549999999},{"pitch":38,"velocity":57,"startTime":138.324888,"endTime":138.42341},{"pitch":60,"velocity":57,"startTime":138.324888,"endTime":138.3987795},{"pitch":64,"velocity":57,"startTime":138.324888,"endTime":138.42341},{"pitch":67,"velocity":57,"startTime":138.324888,"endTime":138.42341},{"pitch":38,"velocity":57,"startTime":138.8421285,"endTime":138.866759},{"pitch":60,"velocity":57,"startTime":138.91602,"endTime":139.08843349999998},{"pitch":64,"velocity":57,"startTime":138.91602,"endTime":139.08843349999998},{"pitch":67,"velocity":57,"startTime":138.91602,"endTime":139.08843349999998},{"pitch":40,"velocity":57,"startTime":139.13769449999998,"endTime":139.18695549999998},{"pitch":57,"velocity":57,"startTime":139.23621649999998,"endTime":139.359369},{"pitch":64,"velocity":57,"startTime":139.23621649999998,"endTime":139.359369},{"pitch":67,"velocity":57,"startTime":139.23621649999998,"endTime":139.359369},{"pitch":43,"velocity":57,"startTime":139.507152,"endTime":139.605674},{"pitch":62,"velocity":57,"startTime":139.507152,"endTime":139.6303045},{"pitch":55,"velocity":57,"startTime":139.5317825,"endTime":139.6303045},{"pitch":59,"velocity":57,"startTime":139.5317825,"endTime":139.6303045},{"pitch":55,"velocity":57,"startTime":140.29532799999998,"endTime":140.34458899999998},{"pitch":59,"velocity":57,"startTime":140.39385,"endTime":140.492372},{"pitch":64,"velocity":57,"startTime":140.39385,"endTime":140.5170025},{"pitch":67,"velocity":57,"startTime":140.39385,"endTime":140.492372},{"pitch":43,"velocity":57,"startTime":140.689416,"endTime":140.7633075},{"pitch":53,"velocity":57,"startTime":140.9110905,"endTime":140.935721},{"pitch":43,"velocity":57,"startTime":140.984982,"endTime":141.08350399999998},{"pitch":59,"velocity":57,"startTime":140.984982,"endTime":141.08350399999998},{"pitch":65,"velocity":57,"startTime":140.984982,"endTime":141.10813449999998},{"pitch":43,"velocity":57,"startTime":141.30517849999998,"endTime":141.37906999999998},{"pitch":59,"velocity":57,"startTime":141.30517849999998,"endTime":141.37906999999998},{"pitch":65,"velocity":57,"startTime":141.30517849999998,"endTime":141.40370049999999},{"pitch":69,"velocity":57,"startTime":141.30517849999998,"endTime":141.40370049999999},{"pitch":35,"velocity":80,"startTime":132.413568,"endTime":132.4381985,"instrument":1,"isDrum":true},{"pitch":44,"velocity":80,"startTime":132.413568,"endTime":132.4381985,"instrument":1,"isDrum":true},{"pitch":51,"velocity":80,"startTime":132.413568,"endTime":132.4381985,"instrument":1,"isDrum":true},{"pitch":53,"velocity":80,"startTime":132.413568,"endTime":132.4381985,"instrument":1,"isDrum":true},{"pitch":35,"velocity":80,"startTime":132.70913399999998,"endTime":132.75839499999998,"instrument":1,"isDrum":true},{"pitch":44,"velocity":80,"startTime":132.70913399999998,"endTime":132.73376449999998,"instrument":1,"isDrum":true},{"pitch":51,"velocity":80,"startTime":132.70913399999998,"endTime":132.90617799999998,"instrument":1,"isDrum":true},{"pitch":53,"velocity":80,"startTime":132.70913399999998,"endTime":132.73376449999998,"instrument":1,"isDrum":true},{"pitch":51,"velocity":80,"startTime":132.90617799999998,"endTime":133.103222,"instrument":1,"isDrum":true},{"pitch":35,"velocity":80,"startTime":133.00469999999999,"endTime":133.053961,"instrument":1,"isDrum":true},{"pitch":44,"velocity":80,"startTime":133.00469999999999,"endTime":133.0293305,"instrument":1,"isDrum":true},{"pitch":51,"velocity":80,"startTime":133.201744,"endTime":133.3248965,"instrument":1,"isDrum":true},{"pitch":35,"velocity":80,"startTime":133.300266,"endTime":133.3248965,"instrument":1,"isDrum":true},{"pitch":44,"velocity":80,"startTime":133.300266,"endTime":133.3248965,"instrument":1,"isDrum":true},{"pitch":35,"velocity":80,"startTime":133.49731,"endTime":133.5219405,"instrument":1,"isDrum":true},{"pitch":44,"velocity":80,"startTime":133.49731,"endTime":133.5219405,"instrument":1,"isDrum":true},{"pitch":51,"velocity":80,"startTime":133.49731,"endTime":133.5219405,"instrument":1,"isDrum":true},{"pitch":35,"velocity":80,"startTime":133.595832,"endTime":133.6204625,"instrument":1,"isDrum":true},{"pitch":44,"velocity":80,"startTime":133.595832,"endTime":133.6204625,"instrument":1,"isDrum":true},{"pitch":51,"velocity":80,"startTime":133.595832,"endTime":133.6204625,"instrument":1,"isDrum":true},{"pitch":51,"velocity":80,"startTime":133.79287599999998,"endTime":133.81750649999998,"instrument":1,"isDrum":true},{"pitch":35,"velocity":80,"startTime":133.89139799999998,"endTime":133.91602849999998,"instrument":1,"isDrum":true},{"pitch":44,"velocity":80,"startTime":133.89139799999998,"endTime":133.91602849999998,"instrument":1,"isDrum":true},{"pitch":51,"velocity":80,"startTime":133.89139799999998,"endTime":133.91602849999998,"instrument":1,"isDrum":true},{"pitch":53,"velocity":80,"startTime":133.89139799999998,"endTime":133.91602849999998,"instrument":1,"isDrum":true},{"pitch":35,"velocity":80,"startTime":134.186964,"endTime":134.2115945,"instrument":1,"isDrum":true},{"pitch":44,"velocity":80,"startTime":134.186964,"endTime":134.2115945,"instrument":1,"isDrum":true},{"pitch":51,"velocity":80,"startTime":134.186964,"endTime":134.2115945,"instrument":1,"isDrum":true},{"pitch":51,"velocity":80,"startTime":134.384008,"endTime":134.4086385,"instrument":1,"isDrum":true},{"pitch":35,"velocity":80,"startTime":134.48253,"endTime":134.5071605,"instrument":1,"isDrum":true},{"pitch":44,"velocity":80,"startTime":134.48253,"endTime":134.5071605,"instrument":1,"isDrum":true},{"pitch":51,"velocity":80,"startTime":134.48253,"endTime":134.5071605,"instrument":1,"isDrum":true},{"pitch":53,"velocity":80,"startTime":134.48253,"endTime":134.5071605,"instrument":1,"isDrum":true},{"pitch":51,"velocity":80,"startTime":134.679574,"endTime":134.7042045,"instrument":1,"isDrum":true},{"pitch":35,"velocity":80,"startTime":134.77809599999998,"endTime":134.80272649999998,"instrument":1,"isDrum":true},{"pitch":44,"velocity":80,"startTime":134.77809599999998,"endTime":134.80272649999998,"instrument":1,"isDrum":true},{"pitch":51,"velocity":80,"startTime":134.77809599999998,"endTime":134.80272649999998,"instrument":1,"isDrum":true},{"pitch":51,"velocity":80,"startTime":134.97513999999998,"endTime":134.99977049999998,"instrument":1,"isDrum":true},{"pitch":35,"velocity":80,"startTime":135.07366199999998,"endTime":135.09829249999999,"instrument":1,"isDrum":true},{"pitch":44,"velocity":80,"startTime":135.07366199999998,"endTime":135.09829249999999,"instrument":1,"isDrum":true},{"pitch":51,"velocity":80,"startTime":135.07366199999998,"endTime":135.09829249999999,"instrument":1,"isDrum":true},{"pitch":53,"velocity":80,"startTime":135.07366199999998,"endTime":135.09829249999999,"instrument":1,"isDrum":true},{"pitch":44,"velocity":80,"startTime":135.369228,"endTime":135.3938585,"instrument":1,"isDrum":true},{"pitch":51,"velocity":80,"startTime":135.566272,"endTime":135.5909025,"instrument":1,"isDrum":true},{"pitch":35,"velocity":80,"startTime":135.664794,"endTime":135.6894245,"instrument":1,"isDrum":true},{"pitch":44,"velocity":80,"startTime":135.664794,"endTime":135.6894245,"instrument":1,"isDrum":true},{"pitch":51,"velocity":80,"startTime":135.664794,"endTime":135.6894245,"instrument":1,"isDrum":true},{"pitch":53,"velocity":80,"startTime":135.664794,"endTime":135.6894245,"instrument":1,"isDrum":true},{"pitch":44,"velocity":80,"startTime":135.96035999999998,"endTime":135.98499049999998,"instrument":1,"isDrum":true},{"pitch":51,"velocity":80,"startTime":136.15740399999999,"endTime":136.1820345,"instrument":1,"isDrum":true},{"pitch":35,"velocity":80,"startTime":136.255926,"endTime":136.2805565,"instrument":1,"isDrum":true},{"pitch":44,"velocity":80,"startTime":136.255926,"endTime":136.2805565,"instrument":1,"isDrum":true},{"pitch":51,"velocity":80,"startTime":136.255926,"endTime":136.2805565,"instrument":1,"isDrum":true},{"pitch":53,"velocity":80,"startTime":136.255926,"endTime":136.2805565,"instrument":1,"isDrum":true},{"pitch":44,"velocity":80,"startTime":136.551492,"endTime":136.5761225,"instrument":1,"isDrum":true},{"pitch":53,"velocity":80,"startTime":136.551492,"endTime":136.5761225,"instrument":1,"isDrum":true},{"pitch":51,"velocity":80,"startTime":136.7731665,"endTime":136.8224275,"instrument":1,"isDrum":true},{"pitch":35,"velocity":80,"startTime":136.847058,"endTime":136.8716885,"instrument":1,"isDrum":true},{"pitch":44,"velocity":80,"startTime":136.847058,"endTime":136.8716885,"instrument":1,"isDrum":true},{"pitch":51,"velocity":80,"startTime":136.847058,"endTime":136.8716885,"instrument":1,"isDrum":true},{"pitch":44,"velocity":80,"startTime":137.14262399999998,"endTime":137.16725449999998,"instrument":1,"isDrum":true},{"pitch":51,"velocity":80,"startTime":137.14262399999998,"endTime":137.16725449999998,"instrument":1,"isDrum":true},{"pitch":51,"velocity":80,"startTime":137.339668,"endTime":137.3642985,"instrument":1,"isDrum":true},{"pitch":35,"velocity":80,"startTime":137.43819,"endTime":137.4628205,"instrument":1,"isDrum":true},{"pitch":44,"velocity":80,"startTime":137.43819,"endTime":137.4628205,"instrument":1,"isDrum":true},{"pitch":51,"velocity":80,"startTime":137.43819,"endTime":137.4628205,"instrument":1,"isDrum":true},{"pitch":51,"velocity":80,"startTime":137.635234,"endTime":137.6598645,"instrument":1,"isDrum":true},{"pitch":35,"velocity":80,"startTime":137.733756,"endTime":137.7583865,"instrument":1,"isDrum":true},{"pitch":44,"velocity":80,"startTime":137.733756,"endTime":137.7583865,"instrument":1,"isDrum":true},{"pitch":51,"velocity":80,"startTime":137.733756,"endTime":137.7583865,"instrument":1,"isDrum":true},{"pitch":53,"velocity":80,"startTime":137.733756,"endTime":137.7583865,"instrument":1,"isDrum":true},{"pitch":44,"velocity":80,"startTime":138.02932199999998,"endTime":138.05395249999998,"instrument":1,"isDrum":true},{"pitch":59,"velocity":80,"startTime":138.02932199999998,"endTime":138.05395249999998,"instrument":1,"isDrum":true},{"pitch":51,"velocity":80,"startTime":138.22636599999998,"endTime":138.25099649999999,"instrument":1,"isDrum":true},{"pitch":35,"velocity":80,"startTime":138.324888,"endTime":138.3495185,"instrument":1,"isDrum":true},{"pitch":44,"velocity":80,"startTime":138.324888,"endTime":138.3495185,"instrument":1,"isDrum":true},{"pitch":51,"velocity":80,"startTime":138.324888,"endTime":138.3495185,"instrument":1,"isDrum":true},{"pitch":53,"velocity":80,"startTime":138.324888,"endTime":138.3495185,"instrument":1,"isDrum":true},{"pitch":35,"velocity":80,"startTime":138.620454,"endTime":138.6450845,"instrument":1,"isDrum":true},{"pitch":38,"velocity":80,"startTime":138.620454,"endTime":138.6450845,"instrument":1,"isDrum":true},{"pitch":44,"velocity":80,"startTime":138.620454,"endTime":138.6450845,"instrument":1,"isDrum":true},{"pitch":51,"velocity":80,"startTime":138.620454,"endTime":138.6450845,"instrument":1,"isDrum":true},{"pitch":51,"velocity":80,"startTime":138.817498,"endTime":138.8421285,"instrument":1,"isDrum":true},{"pitch":35,"velocity":80,"startTime":138.91602,"endTime":138.9406505,"instrument":1,"isDrum":true},{"pitch":44,"velocity":80,"startTime":138.91602,"endTime":138.9406505,"instrument":1,"isDrum":true},{"pitch":51,"velocity":80,"startTime":138.91602,"endTime":138.9406505,"instrument":1,"isDrum":true},{"pitch":53,"velocity":80,"startTime":138.91602,"endTime":138.9406505,"instrument":1,"isDrum":true},{"pitch":44,"velocity":80,"startTime":139.21158599999998,"endTime":139.23621649999998,"instrument":1,"isDrum":true},{"pitch":53,"velocity":80,"startTime":139.21158599999998,"endTime":139.23621649999998,"instrument":1,"isDrum":true},{"pitch":51,"velocity":80,"startTime":139.40863,"endTime":139.4332605,"instrument":1,"isDrum":true},{"pitch":44,"velocity":80,"startTime":139.507152,"endTime":139.5317825,"instrument":1,"isDrum":true},{"pitch":53,"velocity":80,"startTime":139.507152,"endTime":139.5317825,"instrument":1,"isDrum":true},{"pitch":51,"velocity":80,"startTime":139.704196,"endTime":139.7288265,"instrument":1,"isDrum":true},{"pitch":35,"velocity":80,"startTime":139.802718,"endTime":139.8273485,"instrument":1,"isDrum":true},{"pitch":44,"velocity":80,"startTime":139.802718,"endTime":139.8273485,"instrument":1,"isDrum":true},{"pitch":51,"velocity":80,"startTime":139.802718,"endTime":139.8273485,"instrument":1,"isDrum":true},{"pitch":53,"velocity":80,"startTime":139.802718,"endTime":139.8273485,"instrument":1,"isDrum":true},{"pitch":44,"velocity":80,"startTime":140.09828399999998,"endTime":140.12291449999998,"instrument":1,"isDrum":true},{"pitch":53,"velocity":80,"startTime":140.09828399999998,"endTime":140.12291449999998,"instrument":1,"isDrum":true},{"pitch":53,"velocity":80,"startTime":140.29532799999998,"endTime":140.31995849999998,"instrument":1,"isDrum":true},{"pitch":44,"velocity":80,"startTime":140.689416,"endTime":140.7140465,"instrument":1,"isDrum":true},{"pitch":53,"velocity":80,"startTime":140.689416,"endTime":140.7140465,"instrument":1,"isDrum":true},{"pitch":51,"velocity":80,"startTime":140.88646,"endTime":140.9110905,"instrument":1,"isDrum":true},{"pitch":35,"velocity":80,"startTime":140.984982,"endTime":141.0096125,"instrument":1,"isDrum":true},{"pitch":44,"velocity":80,"startTime":140.984982,"endTime":141.0096125,"instrument":1,"isDrum":true},{"pitch":51,"velocity":80,"startTime":140.984982,"endTime":141.0096125,"instrument":1,"isDrum":true},{"pitch":53,"velocity":80,"startTime":140.984982,"endTime":141.0096125,"instrument":1,"isDrum":true},{"pitch":31,"velocity":103,"startTime":132.413568,"endTime":132.6352425,"instrument":2,"program":32},{"pitch":31,"velocity":103,"startTime":132.68450349999998,"endTime":132.70913399999998,"instrument":2,"program":32},{"pitch":35,"velocity":103,"startTime":132.70913399999998,"endTime":133.00469999999999,"instrument":2,"program":32},{"pitch":38,"velocity":103,"startTime":133.00469999999999,"endTime":133.300266,"instrument":2,"program":32},{"pitch":31,"velocity":103,"startTime":133.300266,"endTime":133.595832,"instrument":2,"program":32},{"pitch":31,"velocity":103,"startTime":133.595832,"endTime":133.81750649999998,"instrument":2,"program":32},{"pitch":31,"velocity":103,"startTime":133.81750649999998,"endTime":133.86676749999998,"instrument":2,"program":32},{"pitch":31,"velocity":103,"startTime":133.89139799999998,"endTime":134.186964,"instrument":2,"program":32},{"pitch":35,"velocity":103,"startTime":134.186964,"endTime":134.4086385,"instrument":2,"program":32},{"pitch":31,"velocity":103,"startTime":134.4086385,"endTime":134.48253,"instrument":2,"program":32},{"pitch":35,"velocity":103,"startTime":134.48253,"endTime":134.77809599999998,"instrument":2,"program":32},{"pitch":28,"velocity":103,"startTime":134.77809599999998,"endTime":135.07366199999998,"instrument":2,"program":32},{"pitch":28,"velocity":103,"startTime":135.07366199999998,"endTime":135.369228,"instrument":2,"program":32},{"pitch":28,"velocity":103,"startTime":135.369228,"endTime":135.664794,"instrument":2,"program":32},{"pitch":28,"velocity":103,"startTime":135.664794,"endTime":135.96035999999998,"instrument":2,"program":32},{"pitch":28,"velocity":103,"startTime":135.96035999999998,"endTime":136.255926,"instrument":2,"program":32},{"pitch":35,"velocity":103,"startTime":136.255926,"endTime":136.551492,"instrument":2,"program":32},{"pitch":36,"velocity":103,"startTime":136.551492,"endTime":136.847058,"instrument":2,"program":32},{"pitch":35,"velocity":103,"startTime":136.847058,"endTime":137.06873249999998,"instrument":2,"program":32},{"pitch":30,"velocity":103,"startTime":137.06873249999998,"endTime":137.11799349999998,"instrument":2,"program":32},{"pitch":36,"velocity":103,"startTime":137.14262399999998,"endTime":137.43819,"instrument":2,"program":32},{"pitch":35,"velocity":103,"startTime":137.43819,"endTime":137.733756,"instrument":2,"program":32},{"pitch":36,"velocity":103,"startTime":137.733756,"endTime":138.02932199999998,"instrument":2,"program":32},{"pitch":31,"velocity":103,"startTime":138.02932199999998,"endTime":138.324888,"instrument":2,"program":32},{"pitch":38,"velocity":103,"startTime":138.324888,"endTime":138.5465625,"instrument":2,"program":32},{"pitch":26,"velocity":103,"startTime":138.5465625,"endTime":138.620454,"instrument":2,"program":32},{"pitch":38,"velocity":103,"startTime":138.620454,"endTime":138.91602,"instrument":2,"program":32},{"pitch":38,"velocity":103,"startTime":138.91602,"endTime":139.21158599999998,"instrument":2,"program":32},{"pitch":38,"velocity":103,"startTime":139.21158599999998,"endTime":139.4332605,"instrument":2,"program":32},{"pitch":26,"velocity":103,"startTime":139.4332605,"endTime":139.507152,"instrument":2,"program":32},{"pitch":31,"velocity":103,"startTime":139.507152,"endTime":139.802718,"instrument":2,"program":32},{"pitch":38,"velocity":103,"startTime":139.802718,"endTime":140.09828399999998,"instrument":2,"program":32},{"pitch":43,"velocity":103,"startTime":140.09828399999998,"endTime":140.39385,"instrument":2,"program":32},{"pitch":38,"velocity":103,"startTime":140.39385,"endTime":140.689416,"instrument":2,"program":32},{"pitch":43,"velocity":103,"startTime":140.689416,"endTime":140.9110905,"instrument":2,"program":32},{"pitch":31,"velocity":103,"startTime":140.9110905,"endTime":140.984982,"instrument":2,"program":32},{"pitch":43,"velocity":103,"startTime":140.984982,"endTime":141.25591749999998,"instrument":2,"program":32},{"pitch":38,"velocity":103,"startTime":141.28054799999998,"endTime":141.5022225,"instrument":2,"program":32},{"pitch":31,"velocity":103,"startTime":141.5022225,"endTime":141.576114,"instrument":2,"program":32},{"pitch":38,"velocity":103,"startTime":141.576114,"endTime":141.7977885,"instrument":2,"program":32},{"pitch":31,"velocity":103,"startTime":141.7977885,"endTime":141.87168,"instrument":2,"program":32},{"pitch":64,"velocity":57,"startTime":141.87168,"endTime":141.9948325},{"pitch":67,"velocity":57,"startTime":141.87168,"endTime":141.9948325},{"pitch":74,"velocity":57,"startTime":141.8963105,"endTime":141.9948325},{"pitch":57,"velocity":57,"startTime":142.0933545,"endTime":142.19187649999998},{"pitch":64,"velocity":57,"startTime":142.0933545,"endTime":142.19187649999998},{"pitch":65,"velocity":57,"startTime":142.6844865,"endTime":142.7337475},{"pitch":74,"velocity":57,"startTime":142.6844865,"endTime":142.758378},{"pitch":57,"velocity":57,"startTime":142.709117,"endTime":142.7337475},{"pitch":69,"velocity":57,"startTime":142.709117,"endTime":142.758378},{"pitch":43,"velocity":57,"startTime":143.053944,"endTime":143.103205},{"pitch":59,"velocity":57,"startTime":143.053944,"endTime":143.1278355},{"pitch":62,"velocity":57,"startTime":143.053944,"endTime":143.1278355},{"pitch":69,"velocity":57,"startTime":143.053944,"endTime":143.1278355},{"pitch":40,"velocity":57,"startTime":144.45788249999998,"endTime":144.55640449999999},{"pitch":50,"velocity":57,"startTime":144.53177399999998,"endTime":144.6549265},{"pitch":55,"velocity":57,"startTime":144.55640449999999,"endTime":144.6549265},{"pitch":59,"velocity":57,"startTime":144.55640449999999,"endTime":144.630296},{"pitch":50,"velocity":57,"startTime":145.0490145,"endTime":145.0982755},{"pitch":55,"velocity":57,"startTime":145.0490145,"endTime":145.0982755},{"pitch":59,"velocity":57,"startTime":145.0490145,"endTime":145.122906},{"pitch":64,"velocity":57,"startTime":145.0490145,"endTime":145.0982755},{"pitch":40,"velocity":57,"startTime":145.41847199999998,"endTime":145.51699399999998},{"pitch":55,"velocity":57,"startTime":145.41847199999998,"endTime":145.51699399999998},{"pitch":59,"velocity":57,"startTime":145.44310249999998,"endTime":145.51699399999998},{"pitch":64,"velocity":57,"startTime":145.44310249999998,"endTime":145.51699399999998},{"pitch":40,"velocity":57,"startTime":145.9357125,"endTime":146.009604},{"pitch":57,"velocity":57,"startTime":145.9357125,"endTime":145.9849735},{"pitch":60,"velocity":57,"startTime":145.9357125,"endTime":146.009604},{"pitch":64,"velocity":57,"startTime":145.9357125,"endTime":145.9849735},{"pitch":48,"velocity":57,"startTime":146.896302,"endTime":146.9701935},{"pitch":59,"velocity":57,"startTime":146.896302,"endTime":146.945563},{"pitch":55,"velocity":57,"startTime":146.9209325,"endTime":146.9701935},{"pitch":64,"velocity":57,"startTime":146.9209325,"endTime":146.9701935},{"pitch":48,"velocity":57,"startTime":147.41354249999998,"endTime":147.46280349999998},{"pitch":55,"velocity":57,"startTime":147.41354249999998,"endTime":147.48743399999998},{"pitch":59,"velocity":57,"startTime":147.41354249999998,"endTime":147.46280349999998},{"pitch":64,"velocity":57,"startTime":147.41354249999998,"endTime":147.48743399999998},{"pitch":35,"velocity":80,"startTime":141.87168,"endTime":141.8963105,"instrument":1,"isDrum":true},{"pitch":44,"velocity":80,"startTime":141.87168,"endTime":141.8963105,"instrument":1,"isDrum":true},{"pitch":51,"velocity":80,"startTime":141.87168,"endTime":141.8963105,"instrument":1,"isDrum":true},{"pitch":53,"velocity":80,"startTime":141.87168,"endTime":141.920941,"instrument":1,"isDrum":true},{"pitch":56,"velocity":80,"startTime":141.87168,"endTime":141.8963105,"instrument":1,"isDrum":true},{"pitch":35,"velocity":80,"startTime":142.068724,"endTime":142.14261549999998,"instrument":1,"isDrum":true},{"pitch":51,"velocity":80,"startTime":142.068724,"endTime":142.14261549999998,"instrument":1,"isDrum":true},{"pitch":53,"velocity":80,"startTime":142.068724,"endTime":142.14261549999998,"instrument":1,"isDrum":true},{"pitch":44,"velocity":80,"startTime":142.16724599999998,"endTime":142.19187649999998,"instrument":1,"isDrum":true},{"pitch":51,"velocity":80,"startTime":142.16724599999998,"endTime":142.21650699999998,"instrument":1,"isDrum":true},{"pitch":56,"velocity":80,"startTime":142.16724599999998,"endTime":142.19187649999998,"instrument":1,"isDrum":true},{"pitch":35,"velocity":80,"startTime":142.36428999999998,"endTime":142.43818149999998,"instrument":1,"isDrum":true},{"pitch":51,"velocity":80,"startTime":142.36428999999998,"endTime":142.43818149999998,"instrument":1,"isDrum":true},{"pitch":35,"velocity":80,"startTime":142.46281199999999,"endTime":142.4874425,"instrument":1,"isDrum":true},{"pitch":44,"velocity":80,"startTime":142.46281199999999,"endTime":142.4874425,"instrument":1,"isDrum":true},{"pitch":51,"velocity":80,"startTime":142.46281199999999,"endTime":142.4874425,"instrument":1,"isDrum":true},{"pitch":53,"velocity":80,"startTime":142.46281199999999,"endTime":142.4874425,"instrument":1,"isDrum":true},{"pitch":56,"velocity":80,"startTime":142.46281199999999,"endTime":142.4874425,"instrument":1,"isDrum":true},{"pitch":35,"velocity":80,"startTime":142.659856,"endTime":142.7337475,"instrument":1,"isDrum":true},{"pitch":51,"velocity":80,"startTime":142.659856,"endTime":142.7337475,"instrument":1,"isDrum":true},{"pitch":53,"velocity":80,"startTime":142.659856,"endTime":142.7337475,"instrument":1,"isDrum":true},{"pitch":44,"velocity":80,"startTime":142.758378,"endTime":142.7830085,"instrument":1,"isDrum":true},{"pitch":51,"velocity":80,"startTime":142.758378,"endTime":142.7830085,"instrument":1,"isDrum":true},{"pitch":56,"velocity":80,"startTime":142.758378,"endTime":142.7830085,"instrument":1,"isDrum":true},{"pitch":35,"velocity":80,"startTime":142.955422,"endTime":143.0293135,"instrument":1,"isDrum":true},{"pitch":51,"velocity":80,"startTime":142.955422,"endTime":143.0293135,"instrument":1,"isDrum":true},{"pitch":35,"velocity":80,"startTime":143.053944,"endTime":143.0785745,"instrument":1,"isDrum":true},{"pitch":44,"velocity":80,"startTime":143.053944,"endTime":143.0785745,"instrument":1,"isDrum":true},{"pitch":51,"velocity":80,"startTime":143.053944,"endTime":143.0785745,"instrument":1,"isDrum":true},{"pitch":53,"velocity":80,"startTime":143.053944,"endTime":143.0785745,"instrument":1,"isDrum":true},{"pitch":56,"velocity":80,"startTime":143.053944,"endTime":143.0785745,"instrument":1,"isDrum":true},{"pitch":35,"velocity":80,"startTime":143.25098799999998,"endTime":143.32487949999998,"instrument":1,"isDrum":true},{"pitch":51,"velocity":80,"startTime":143.25098799999998,"endTime":143.32487949999998,"instrument":1,"isDrum":true},{"pitch":37,"velocity":80,"startTime":143.34950999999998,"endTime":143.37414049999998,"instrument":1,"isDrum":true},{"pitch":44,"velocity":80,"startTime":143.34950999999998,"endTime":143.37414049999998,"instrument":1,"isDrum":true},{"pitch":51,"velocity":80,"startTime":143.34950999999998,"endTime":143.37414049999998,"instrument":1,"isDrum":true},{"pitch":56,"velocity":80,"startTime":143.34950999999998,"endTime":143.37414049999998,"instrument":1,"isDrum":true},{"pitch":35,"velocity":80,"startTime":143.546554,"endTime":143.6204455,"instrument":1,"isDrum":true},{"pitch":51,"velocity":80,"startTime":143.546554,"endTime":143.6204455,"instrument":1,"isDrum":true},{"pitch":35,"velocity":80,"startTime":143.645076,"endTime":143.6697065,"instrument":1,"isDrum":true},{"pitch":44,"velocity":80,"startTime":143.645076,"endTime":143.6697065,"instrument":1,"isDrum":true},{"pitch":51,"velocity":80,"startTime":143.645076,"endTime":143.6697065,"instrument":1,"isDrum":true},{"pitch":53,"velocity":80,"startTime":143.645076,"endTime":143.6697065,"instrument":1,"isDrum":true},{"pitch":35,"velocity":80,"startTime":143.84212,"endTime":143.9160115,"instrument":1,"isDrum":true},{"pitch":51,"velocity":80,"startTime":143.84212,"endTime":143.9160115,"instrument":1,"isDrum":true},{"pitch":37,"velocity":80,"startTime":143.940642,"endTime":143.9652725,"instrument":1,"isDrum":true},{"pitch":38,"velocity":80,"startTime":143.940642,"endTime":143.9652725,"instrument":1,"isDrum":true},{"pitch":44,"velocity":80,"startTime":143.940642,"endTime":143.9652725,"instrument":1,"isDrum":true},{"pitch":51,"velocity":80,"startTime":143.940642,"endTime":143.9652725,"instrument":1,"isDrum":true},{"pitch":56,"velocity":80,"startTime":143.940642,"endTime":143.9652725,"instrument":1,"isDrum":true},{"pitch":35,"velocity":80,"startTime":144.137686,"endTime":144.2115775,"instrument":1,"isDrum":true},{"pitch":51,"velocity":80,"startTime":144.137686,"endTime":144.2115775,"instrument":1,"isDrum":true},{"pitch":35,"velocity":80,"startTime":144.23620799999998,"endTime":144.26083849999998,"instrument":1,"isDrum":true},{"pitch":44,"velocity":80,"startTime":144.23620799999998,"endTime":144.26083849999998,"instrument":1,"isDrum":true},{"pitch":51,"velocity":80,"startTime":144.23620799999998,"endTime":144.26083849999998,"instrument":1,"isDrum":true},{"pitch":35,"velocity":80,"startTime":144.43325199999998,"endTime":144.48251299999998,"instrument":1,"isDrum":true},{"pitch":51,"velocity":80,"startTime":144.43325199999998,"endTime":144.48251299999998,"instrument":1,"isDrum":true},{"pitch":56,"velocity":80,"startTime":144.43325199999998,"endTime":144.48251299999998,"instrument":1,"isDrum":true},{"pitch":37,"velocity":80,"startTime":144.53177399999998,"endTime":144.55640449999999,"instrument":1,"isDrum":true},{"pitch":44,"velocity":80,"startTime":144.53177399999998,"endTime":144.55640449999999,"instrument":1,"isDrum":true},{"pitch":51,"velocity":80,"startTime":144.53177399999998,"endTime":144.55640449999999,"instrument":1,"isDrum":true},{"pitch":56,"velocity":80,"startTime":144.53177399999998,"endTime":144.55640449999999,"instrument":1,"isDrum":true},{"pitch":35,"velocity":80,"startTime":144.728818,"endTime":144.8027095,"instrument":1,"isDrum":true},{"pitch":51,"velocity":80,"startTime":144.728818,"endTime":144.8027095,"instrument":1,"isDrum":true},{"pitch":35,"velocity":80,"startTime":144.82734,"endTime":144.8519705,"instrument":1,"isDrum":true},{"pitch":44,"velocity":80,"startTime":144.82734,"endTime":144.8519705,"instrument":1,"isDrum":true},{"pitch":51,"velocity":80,"startTime":144.82734,"endTime":144.8519705,"instrument":1,"isDrum":true},{"pitch":35,"velocity":80,"startTime":145.024384,"endTime":145.073645,"instrument":1,"isDrum":true},{"pitch":51,"velocity":80,"startTime":145.024384,"endTime":145.073645,"instrument":1,"isDrum":true},{"pitch":56,"velocity":80,"startTime":145.024384,"endTime":145.073645,"instrument":1,"isDrum":true},{"pitch":37,"velocity":80,"startTime":145.122906,"endTime":145.1475365,"instrument":1,"isDrum":true},{"pitch":44,"velocity":80,"startTime":145.122906,"endTime":145.1475365,"instrument":1,"isDrum":true},{"pitch":51,"velocity":80,"startTime":145.122906,"endTime":145.1475365,"instrument":1,"isDrum":true},{"pitch":56,"velocity":80,"startTime":145.122906,"endTime":145.1475365,"instrument":1,"isDrum":true},{"pitch":59,"velocity":80,"startTime":145.122906,"endTime":145.1475365,"instrument":1,"isDrum":true},{"pitch":35,"velocity":80,"startTime":145.31994999999998,"endTime":145.39384149999998,"instrument":1,"isDrum":true},{"pitch":51,"velocity":80,"startTime":145.31994999999998,"endTime":145.39384149999998,"instrument":1,"isDrum":true},{"pitch":35,"velocity":80,"startTime":145.41847199999998,"endTime":145.44310249999998,"instrument":1,"isDrum":true},{"pitch":44,"velocity":80,"startTime":145.41847199999998,"endTime":145.44310249999998,"instrument":1,"isDrum":true},{"pitch":51,"velocity":80,"startTime":145.41847199999998,"endTime":145.44310249999998,"instrument":1,"isDrum":true},{"pitch":35,"velocity":80,"startTime":145.61551599999999,"endTime":145.664777,"instrument":1,"isDrum":true},{"pitch":51,"velocity":80,"startTime":145.61551599999999,"endTime":145.664777,"instrument":1,"isDrum":true},{"pitch":56,"velocity":80,"startTime":145.61551599999999,"endTime":145.664777,"instrument":1,"isDrum":true},{"pitch":37,"velocity":80,"startTime":145.714038,"endTime":145.7386685,"instrument":1,"isDrum":true},{"pitch":44,"velocity":80,"startTime":145.714038,"endTime":145.7386685,"instrument":1,"isDrum":true},{"pitch":51,"velocity":80,"startTime":145.714038,"endTime":145.7386685,"instrument":1,"isDrum":true},{"pitch":56,"velocity":80,"startTime":145.714038,"endTime":145.7386685,"instrument":1,"isDrum":true},{"pitch":35,"velocity":80,"startTime":145.911082,"endTime":145.9849735,"instrument":1,"isDrum":true},{"pitch":51,"velocity":80,"startTime":145.911082,"endTime":145.9849735,"instrument":1,"isDrum":true},{"pitch":35,"velocity":80,"startTime":146.009604,"endTime":146.0342345,"instrument":1,"isDrum":true},{"pitch":44,"velocity":80,"startTime":146.009604,"endTime":146.0342345,"instrument":1,"isDrum":true},{"pitch":51,"velocity":80,"startTime":146.009604,"endTime":146.0342345,"instrument":1,"isDrum":true},{"pitch":35,"velocity":80,"startTime":146.206648,"endTime":146.2312785,"instrument":1,"isDrum":true},{"pitch":51,"velocity":80,"startTime":146.206648,"endTime":146.2312785,"instrument":1,"isDrum":true},{"pitch":56,"velocity":80,"startTime":146.206648,"endTime":146.2312785,"instrument":1,"isDrum":true},{"pitch":37,"velocity":80,"startTime":146.30517,"endTime":146.32980049999998,"instrument":1,"isDrum":true},{"pitch":38,"velocity":80,"startTime":146.30517,"endTime":146.32980049999998,"instrument":1,"isDrum":true},{"pitch":39,"velocity":80,"startTime":146.30517,"endTime":146.32980049999998,"instrument":1,"isDrum":true},{"pitch":44,"velocity":80,"startTime":146.30517,"endTime":146.32980049999998,"instrument":1,"isDrum":true},{"pitch":51,"velocity":80,"startTime":146.30517,"endTime":146.32980049999998,"instrument":1,"isDrum":true},{"pitch":54,"velocity":80,"startTime":146.30517,"endTime":146.32980049999998,"instrument":1,"isDrum":true},{"pitch":35,"velocity":80,"startTime":146.50221399999998,"endTime":146.57610549999998,"instrument":1,"isDrum":true},{"pitch":51,"velocity":80,"startTime":146.50221399999998,"endTime":146.57610549999998,"instrument":1,"isDrum":true},{"pitch":35,"velocity":80,"startTime":146.60073599999998,"endTime":146.62536649999998,"instrument":1,"isDrum":true},{"pitch":44,"velocity":80,"startTime":146.60073599999998,"endTime":146.62536649999998,"instrument":1,"isDrum":true},{"pitch":51,"velocity":80,"startTime":146.60073599999998,"endTime":146.62536649999998,"instrument":1,"isDrum":true},{"pitch":35,"velocity":80,"startTime":146.79778,"endTime":146.8224105,"instrument":1,"isDrum":true},{"pitch":51,"velocity":80,"startTime":146.79778,"endTime":146.8224105,"instrument":1,"isDrum":true},{"pitch":37,"velocity":80,"startTime":146.896302,"endTime":146.9209325,"instrument":1,"isDrum":true},{"pitch":38,"velocity":80,"startTime":146.896302,"endTime":146.9209325,"instrument":1,"isDrum":true},{"pitch":39,"velocity":80,"startTime":146.896302,"endTime":146.9209325,"instrument":1,"isDrum":true},{"pitch":44,"velocity":80,"startTime":146.896302,"endTime":146.9209325,"instrument":1,"isDrum":true},{"pitch":51,"velocity":80,"startTime":146.896302,"endTime":146.9209325,"instrument":1,"isDrum":true},{"pitch":54,"velocity":80,"startTime":146.896302,"endTime":146.9209325,"instrument":1,"isDrum":true},{"pitch":35,"velocity":80,"startTime":147.093346,"endTime":147.1672375,"instrument":1,"isDrum":true},{"pitch":51,"velocity":80,"startTime":147.093346,"endTime":147.1672375,"instrument":1,"isDrum":true},{"pitch":35,"velocity":80,"startTime":147.191868,"endTime":147.2164985,"instrument":1,"isDrum":true},{"pitch":44,"velocity":80,"startTime":147.191868,"endTime":147.2164985,"instrument":1,"isDrum":true},{"pitch":51,"velocity":80,"startTime":147.191868,"endTime":147.2164985,"instrument":1,"isDrum":true},{"pitch":35,"velocity":80,"startTime":147.38891199999998,"endTime":147.43817299999998,"instrument":1,"isDrum":true},{"pitch":51,"velocity":80,"startTime":147.38891199999998,"endTime":147.43817299999998,"instrument":1,"isDrum":true},{"pitch":56,"velocity":80,"startTime":147.38891199999998,"endTime":147.43817299999998,"instrument":1,"isDrum":true},{"pitch":37,"velocity":80,"startTime":147.48743399999998,"endTime":147.51206449999998,"instrument":1,"isDrum":true},{"pitch":38,"velocity":80,"startTime":147.48743399999998,"endTime":147.51206449999998,"instrument":1,"isDrum":true},{"pitch":39,"velocity":80,"startTime":147.48743399999998,"endTime":147.51206449999998,"instrument":1,"isDrum":true},{"pitch":44,"velocity":80,"startTime":147.48743399999998,"endTime":147.51206449999998,"instrument":1,"isDrum":true},{"pitch":51,"velocity":80,"startTime":147.48743399999998,"endTime":147.51206449999998,"instrument":1,"isDrum":true},{"pitch":54,"velocity":80,"startTime":147.48743399999998,"endTime":147.51206449999998,"instrument":1,"isDrum":true},{"pitch":35,"velocity":80,"startTime":147.68447799999998,"endTime":147.7583695,"instrument":1,"isDrum":true},{"pitch":51,"velocity":80,"startTime":147.68447799999998,"endTime":147.7583695,"instrument":1,"isDrum":true},{"pitch":44,"velocity":80,"startTime":147.783,"endTime":147.8076305,"instrument":1,"isDrum":true},{"pitch":51,"velocity":80,"startTime":147.783,"endTime":147.8076305,"instrument":1,"isDrum":true},{"pitch":35,"velocity":80,"startTime":147.980044,"endTime":148.0046745,"instrument":1,"isDrum":true},{"pitch":51,"velocity":80,"startTime":147.980044,"endTime":148.0046745,"instrument":1,"isDrum":true},{"pitch":37,"velocity":80,"startTime":148.078566,"endTime":148.1031965,"instrument":1,"isDrum":true},{"pitch":38,"velocity":80,"startTime":148.078566,"endTime":148.1031965,"instrument":1,"isDrum":true},{"pitch":44,"velocity":80,"startTime":148.078566,"endTime":148.1031965,"instrument":1,"isDrum":true},{"pitch":51,"velocity":80,"startTime":148.078566,"endTime":148.1031965,"instrument":1,"isDrum":true},{"pitch":53,"velocity":80,"startTime":148.078566,"endTime":148.1031965,"instrument":1,"isDrum":true},{"pitch":56,"velocity":80,"startTime":148.078566,"endTime":148.1031965,"instrument":1,"isDrum":true},{"pitch":35,"velocity":80,"startTime":148.27561,"endTime":148.3495015,"instrument":1,"isDrum":true},{"pitch":51,"velocity":80,"startTime":148.27561,"endTime":148.3495015,"instrument":1,"isDrum":true},{"pitch":43,"velocity":103,"startTime":141.87168,"endTime":142.16724599999998,"instrument":2,"program":32},{"pitch":50,"velocity":103,"startTime":142.16724599999998,"endTime":142.46281199999999,"instrument":2,"program":32},{"pitch":47,"velocity":103,"startTime":142.46281199999999,"endTime":142.7830085,"instrument":2,"program":32},{"pitch":43,"velocity":103,"startTime":142.758378,"endTime":143.004683,"instrument":2,"program":32},{"pitch":43,"velocity":103,"startTime":143.053944,"endTime":143.27561849999998,"instrument":2,"program":32},{"pitch":31,"velocity":103,"startTime":143.27561849999998,"endTime":143.34950999999998,"instrument":2,"program":32},{"pitch":43,"velocity":103,"startTime":143.34950999999998,"endTime":143.645076,"instrument":2,"program":32},{"pitch":35,"velocity":103,"startTime":143.645076,"endTime":143.989903,"instrument":2,"program":32},{"pitch":43,"velocity":103,"startTime":143.940642,"endTime":144.23620799999998,"instrument":2,"program":32},{"pitch":40,"velocity":103,"startTime":144.23620799999998,"endTime":144.53177399999998,"instrument":2,"program":32},{"pitch":28,"velocity":103,"startTime":144.45788249999998,"endTime":144.50714349999998,"instrument":2,"program":32},{"pitch":52,"velocity":103,"startTime":144.53177399999998,"endTime":144.7534485,"instrument":2,"program":32},{"pitch":32,"velocity":103,"startTime":144.7534485,"endTime":144.8027095,"instrument":2,"program":32},{"pitch":40,"velocity":103,"startTime":144.82734,"endTime":145.122906,"instrument":2,"program":32},{"pitch":28,"velocity":103,"startTime":145.0490145,"endTime":145.0982755,"instrument":2,"program":32},{"pitch":41,"velocity":103,"startTime":145.122906,"endTime":145.34458049999998,"instrument":2,"program":32},{"pitch":28,"velocity":103,"startTime":145.34458049999998,"endTime":145.39384149999998,"instrument":2,"program":32},{"pitch":40,"velocity":103,"startTime":145.41847199999998,"endTime":145.763299,"instrument":2,"program":32},{"pitch":47,"velocity":103,"startTime":145.714038,"endTime":146.30517,"instrument":2,"program":32},{"pitch":47,"velocity":103,"startTime":146.009604,"endTime":146.0342345,"instrument":2,"program":32},{"pitch":47,"velocity":103,"startTime":146.30517,"endTime":146.60073599999998,"instrument":2,"program":32},{"pitch":36,"velocity":103,"startTime":146.60073599999998,"endTime":146.8224105,"instrument":2,"program":32},{"pitch":24,"velocity":103,"startTime":146.8224105,"endTime":146.8716715,"instrument":2,"program":32},{"pitch":35,"velocity":103,"startTime":146.896302,"endTime":147.191868,"instrument":2,"program":32},{"pitch":36,"velocity":103,"startTime":147.191868,"endTime":147.41354249999998,"instrument":2,"program":32},{"pitch":24,"velocity":103,"startTime":147.41354249999998,"endTime":147.48743399999998,"instrument":2,"program":32},{"pitch":31,"velocity":103,"startTime":147.48743399999998,"endTime":147.783,"instrument":2,"program":32}],"totalTime":148.3495015},"tempo":203,"selectedInstruments":[0,1,2]},"remix":{"trimmedSequence":{"filename":"Ill_Be_Missing_You__halfn__remix.mid","ticksPerQuarter":240,"timeSignatures":[{"numerator":4,"denominator":4}],"tempos":[{"qpm":203.00034510058669}],"notes":[{"pitch":43,"velocity":57,"endTime":0.098522},{"pitch":59,"velocity":57,"endTime":0.098522},{"pitch":65,"velocity":57,"startTime":0.0246305,"endTime":0.1231525},{"pitch":69,"velocity":57,"startTime":0.0246305,"endTime":0.1231525},{"pitch":43,"velocity":57,"startTime":0.3201965,"endTime":0.3694575},{"pitch":59,"velocity":57,"startTime":0.3201965,"endTime":0.3694575},{"pitch":65,"velocity":57,"startTime":0.3201965,"endTime":0.3694575},{"pitch":69,"velocity":57,"startTime":0.3201965,"endTime":0.394088},{"pitch":43,"velocity":57,"startTime":0.8128065,"endTime":0.8620675},{"pitch":59,"velocity":57,"startTime":0.8128065,"endTime":0.886698},{"pitch":65,"velocity":57,"startTime":0.8128065,"endTime":0.886698},{"pitch":69,"velocity":57,"startTime":0.8128065,"endTime":0.886698},{"pitch":43,"velocity":57,"startTime":1.1083725,"endTime":1.2561555},{"pitch":59,"velocity":57,"startTime":1.1083725,"endTime":1.2561555},{"pitch":64,"velocity":57,"startTime":1.1083725,"endTime":1.2561555},{"pitch":71,"velocity":57,"startTime":1.1083725,"endTime":1.280786},{"pitch":43,"velocity":57,"startTime":1.7980265,"endTime":1.871918},{"pitch":59,"velocity":57,"startTime":1.7980265,"endTime":1.871918},{"pitch":64,"velocity":57,"startTime":1.7980265,"endTime":1.8965485},{"pitch":71,"velocity":57,"startTime":1.7980265,"endTime":1.871918},{"pitch":40,"velocity":57,"startTime":2.561572,"endTime":2.6847244999999997},{"pitch":59,"velocity":57,"startTime":2.561572,"endTime":2.709355},{"pitch":62,"velocity":57,"startTime":2.561572,"endTime":2.709355},{"pitch":69,"velocity":57,"startTime":2.561572,"endTime":2.709355},{"pitch":40,"velocity":57,"startTime":3.1773344999999997,"endTime":3.2758564999999997},{"pitch":59,"velocity":57,"startTime":3.1773344999999997,"endTime":3.300487},{"pitch":62,"velocity":57,"startTime":3.1773344999999997,"endTime":3.300487},{"pitch":66,"velocity":57,"startTime":3.1773344999999997,"endTime":3.300487},{"pitch":40,"velocity":57,"startTime":3.4729004999999997,"endTime":3.5221614999999997},{"pitch":40,"velocity":57,"startTime":3.546792,"endTime":3.6699444999999997},{"pitch":55,"velocity":57,"startTime":3.546792,"endTime":3.645314},{"pitch":59,"velocity":57,"startTime":3.5714224999999997,"endTime":3.645314},{"pitch":62,"velocity":57,"startTime":3.5714224999999997,"endTime":3.645314},{"pitch":47,"velocity":57,"startTime":4.3842289999999995,"endTime":4.43349},{"pitch":59,"velocity":57,"startTime":4.532012,"endTime":4.5566425},{"pitch":62,"velocity":57,"startTime":4.532012,"endTime":4.5812729999999995},{"pitch":48,"velocity":57,"startTime":4.729056,"endTime":4.802947499999999},{"pitch":55,"velocity":57,"startTime":4.753686499999999,"endTime":4.802947499999999},{"pitch":62,"velocity":57,"startTime":4.753686499999999,"endTime":4.827577999999999},{"pitch":48,"velocity":57,"startTime":5.2462965,"endTime":5.320188},{"pitch":55,"velocity":57,"startTime":5.2462965,"endTime":5.320188},{"pitch":60,"velocity":57,"startTime":5.2462965,"endTime":5.3448185},{"pitch":64,"velocity":57,"startTime":5.2462965,"endTime":5.3448185},{"pitch":57,"velocity":57,"startTime":5.8374285,"endTime":6.970431499999999},{"pitch":64,"velocity":57,"startTime":5.8374285,"endTime":6.970431499999999},{"pitch":67,"velocity":57,"startTime":5.8374285,"endTime":6.970431499999999},{"pitch":72,"velocity":57,"startTime":5.8374285,"endTime":6.970431499999999},{"pitch":43,"velocity":57,"startTime":7.0196925,"endTime":8.177325999999999},{"pitch":57,"velocity":57,"startTime":7.0196925,"endTime":8.177325999999999},{"pitch":62,"velocity":57,"startTime":7.0196925,"endTime":8.177325999999999},{"pitch":65,"velocity":57,"startTime":7.0196925,"endTime":8.177325999999999},{"pitch":43,"velocity":57,"startTime":8.2019565,"endTime":9.359589999999999},{"pitch":59,"velocity":57,"startTime":8.2019565,"endTime":9.359589999999999},{"pitch":69,"velocity":57,"startTime":8.2019565,"endTime":9.359589999999999},{"pitch":71,"velocity":57,"startTime":8.2019565,"endTime":9.359589999999999},{"pitch":40,"velocity":57,"startTime":9.3842205,"endTime":9.458112},{"pitch":59,"velocity":57,"startTime":9.3842205,"endTime":9.458112},{"pitch":63,"velocity":57,"startTime":9.3842205,"endTime":9.458112},{"pitch":69,"velocity":57,"startTime":9.3842205,"endTime":9.458112},{"pitch":35,"velocity":80,"endTime":0.049261,"instrument":1,"isDrum":true},{"pitch":44,"velocity":80,"endTime":0.049261,"instrument":1,"isDrum":true},{"pitch":51,"velocity":80,"endTime":0.049261,"instrument":1,"isDrum":true},{"pitch":53,"velocity":80,"endTime":0.049261,"instrument":1,"isDrum":true},{"pitch":51,"velocity":80,"startTime":0.197044,"endTime":0.2709355,"instrument":1,"isDrum":true},{"pitch":44,"velocity":80,"startTime":0.295566,"endTime":0.344827,"instrument":1,"isDrum":true},{"pitch":51,"velocity":80,"startTime":0.295566,"endTime":0.344827,"instrument":1,"isDrum":true},{"pitch":53,"velocity":80,"startTime":0.295566,"endTime":0.344827,"instrument":1,"isDrum":true},{"pitch":51,"velocity":80,"startTime":0.4926099999999999,"endTime":0.5665014999999999,"instrument":1,"isDrum":true},{"pitch":35,"velocity":80,"startTime":0.591132,"endTime":0.640393,"instrument":1,"isDrum":true},{"pitch":44,"velocity":80,"startTime":0.591132,"endTime":0.640393,"instrument":1,"isDrum":true},{"pitch":51,"velocity":80,"startTime":0.591132,"endTime":0.640393,"instrument":1,"isDrum":true},{"pitch":53,"velocity":80,"startTime":0.591132,"endTime":0.640393,"instrument":1,"isDrum":true},{"pitch":51,"velocity":80,"startTime":0.788176,"endTime":0.8620675,"instrument":1,"isDrum":true},{"pitch":38,"velocity":80,"startTime":0.886698,"endTime":0.935959,"instrument":1,"isDrum":true},{"pitch":44,"velocity":80,"startTime":0.886698,"endTime":0.935959,"instrument":1,"isDrum":true},{"pitch":51,"velocity":80,"startTime":0.886698,"endTime":0.935959,"instrument":1,"isDrum":true},{"pitch":53,"velocity":80,"startTime":0.886698,"endTime":0.935959,"instrument":1,"isDrum":true},{"pitch":51,"velocity":80,"startTime":1.083742,"endTime":1.1576335,"instrument":1,"isDrum":true},{"pitch":44,"velocity":80,"startTime":1.182264,"endTime":1.231525,"instrument":1,"isDrum":true},{"pitch":51,"velocity":80,"startTime":1.182264,"endTime":1.231525,"instrument":1,"isDrum":true},{"pitch":53,"velocity":80,"startTime":1.182264,"endTime":1.231525,"instrument":1,"isDrum":true},{"pitch":51,"velocity":80,"startTime":1.379308,"endTime":1.4531995,"instrument":1,"isDrum":true},{"pitch":44,"velocity":80,"startTime":1.47783,"endTime":1.527091,"instrument":1,"isDrum":true},{"pitch":51,"velocity":80,"startTime":1.47783,"endTime":1.527091,"instrument":1,"isDrum":true},{"pitch":53,"velocity":80,"startTime":1.47783,"endTime":1.527091,"instrument":1,"isDrum":true},{"pitch":51,"velocity":80,"startTime":1.674874,"endTime":1.7487655,"instrument":1,"isDrum":true},{"pitch":35,"velocity":80,"startTime":1.773396,"endTime":1.822657,"instrument":1,"isDrum":true},{"pitch":44,"velocity":80,"startTime":1.773396,"endTime":1.822657,"instrument":1,"isDrum":true},{"pitch":51,"velocity":80,"startTime":1.773396,"endTime":1.822657,"instrument":1,"isDrum":true},{"pitch":53,"velocity":80,"startTime":1.773396,"endTime":1.822657,"instrument":1,"isDrum":true},{"pitch":51,"velocity":80,"startTime":1.97044,"endTime":2.0443314999999997,"instrument":1,"isDrum":true},{"pitch":38,"velocity":80,"startTime":2.068962,"endTime":2.118223,"instrument":1,"isDrum":true},{"pitch":44,"velocity":80,"startTime":2.068962,"endTime":2.118223,"instrument":1,"isDrum":true},{"pitch":51,"velocity":80,"startTime":2.068962,"endTime":2.118223,"instrument":1,"isDrum":true},{"pitch":53,"velocity":80,"startTime":2.068962,"endTime":2.118223,"instrument":1,"isDrum":true},{"pitch":35,"velocity":80,"startTime":2.266006,"endTime":2.3398974999999997,"instrument":1,"isDrum":true},{"pitch":51,"velocity":80,"startTime":2.266006,"endTime":2.3398974999999997,"instrument":1,"isDrum":true},{"pitch":44,"velocity":80,"startTime":2.364528,"endTime":2.4137889999999995,"instrument":1,"isDrum":true},{"pitch":51,"velocity":80,"startTime":2.364528,"endTime":2.4137889999999995,"instrument":1,"isDrum":true},{"pitch":53,"velocity":80,"startTime":2.364528,"endTime":2.4137889999999995,"instrument":1,"isDrum":true},{"pitch":35,"velocity":80,"startTime":2.561572,"endTime":2.6354634999999997,"instrument":1,"isDrum":true},{"pitch":51,"velocity":80,"startTime":2.561572,"endTime":2.6354634999999997,"instrument":1,"isDrum":true},{"pitch":38,"velocity":80,"startTime":2.660094,"endTime":2.6847244999999997,"instrument":1,"isDrum":true},{"pitch":44,"velocity":80,"startTime":2.660094,"endTime":2.6847244999999997,"instrument":1,"isDrum":true},{"pitch":53,"velocity":80,"startTime":2.660094,"endTime":2.6847244999999997,"instrument":1,"isDrum":true},{"pitch":35,"velocity":80,"startTime":2.857138,"endTime":2.9310294999999997,"instrument":1,"isDrum":true},{"pitch":51,"velocity":80,"startTime":2.857138,"endTime":2.9310294999999997,"instrument":1,"isDrum":true},{"pitch":35,"velocity":80,"startTime":2.95566,"endTime":3.004921,"instrument":1,"isDrum":true},{"pitch":44,"velocity":80,"startTime":2.95566,"endTime":3.004921,"instrument":1,"isDrum":true},{"pitch":51,"velocity":80,"startTime":2.95566,"endTime":3.004921,"instrument":1,"isDrum":true},{"pitch":53,"velocity":80,"startTime":2.95566,"endTime":3.004921,"instrument":1,"isDrum":true},{"pitch":51,"velocity":80,"startTime":3.152704,"endTime":3.2265954999999997,"instrument":1,"isDrum":true},{"pitch":38,"velocity":80,"startTime":3.251226,"endTime":3.300487,"instrument":1,"isDrum":true},{"pitch":44,"velocity":80,"startTime":3.251226,"endTime":3.300487,"instrument":1,"isDrum":true},{"pitch":51,"velocity":80,"startTime":3.251226,"endTime":3.300487,"instrument":1,"isDrum":true},{"pitch":53,"velocity":80,"startTime":3.251226,"endTime":3.300487,"instrument":1,"isDrum":true},{"pitch":51,"velocity":80,"startTime":3.44827,"endTime":3.5221614999999997,"instrument":1,"isDrum":true},{"pitch":44,"velocity":80,"startTime":3.546792,"endTime":3.596053,"instrument":1,"isDrum":true},{"pitch":51,"velocity":80,"startTime":3.546792,"endTime":3.596053,"instrument":1,"isDrum":true},{"pitch":53,"velocity":80,"startTime":3.546792,"endTime":3.596053,"instrument":1,"isDrum":true},{"pitch":51,"velocity":80,"startTime":3.743836,"endTime":3.8177274999999997,"instrument":1,"isDrum":true},{"pitch":38,"velocity":80,"startTime":3.842358,"endTime":3.891619,"instrument":1,"isDrum":true},{"pitch":44,"velocity":80,"startTime":3.842358,"endTime":3.891619,"instrument":1,"isDrum":true},{"pitch":51,"velocity":80,"startTime":3.842358,"endTime":3.891619,"instrument":1,"isDrum":true},{"pitch":53,"velocity":80,"startTime":3.842358,"endTime":3.891619,"instrument":1,"isDrum":true},{"pitch":35,"velocity":80,"startTime":4.039402,"endTime":4.1132935,"instrument":1,"isDrum":true},{"pitch":38,"velocity":80,"startTime":4.039402,"endTime":4.1132935,"instrument":1,"isDrum":true},{"pitch":51,"velocity":80,"startTime":4.039402,"endTime":4.1132935,"instrument":1,"isDrum":true},{"pitch":35,"velocity":80,"startTime":4.137924,"endTime":4.1871849999999995,"instrument":1,"isDrum":true},{"pitch":44,"velocity":80,"startTime":4.137924,"endTime":4.1871849999999995,"instrument":1,"isDrum":true},{"pitch":51,"velocity":80,"startTime":4.137924,"endTime":4.1871849999999995,"instrument":1,"isDrum":true},{"pitch":53,"velocity":80,"startTime":4.137924,"endTime":4.1871849999999995,"instrument":1,"isDrum":true},{"pitch":51,"velocity":80,"startTime":4.334968,"endTime":4.408859499999999,"instrument":1,"isDrum":true},{"pitch":38,"velocity":80,"startTime":4.43349,"endTime":4.4827509999999995,"instrument":1,"isDrum":true},{"pitch":44,"velocity":80,"startTime":4.43349,"endTime":4.4827509999999995,"instrument":1,"isDrum":true},{"pitch":51,"velocity":80,"startTime":4.43349,"endTime":4.4827509999999995,"instrument":1,"isDrum":true},{"pitch":53,"velocity":80,"startTime":4.43349,"endTime":4.4827509999999995,"instrument":1,"isDrum":true},{"pitch":51,"velocity":80,"startTime":4.630534,"endTime":4.704425499999999,"instrument":1,"isDrum":true},{"pitch":44,"velocity":80,"startTime":4.729056,"endTime":4.778317,"instrument":1,"isDrum":true},{"pitch":51,"velocity":80,"startTime":4.729056,"endTime":4.778317,"instrument":1,"isDrum":true},{"pitch":53,"velocity":80,"startTime":4.729056,"endTime":4.778317,"instrument":1,"isDrum":true},{"pitch":35,"velocity":80,"startTime":4.9261,"endTime":4.9999915,"instrument":1,"isDrum":true},{"pitch":51,"velocity":80,"startTime":4.9261,"endTime":4.9999915,"instrument":1,"isDrum":true},{"pitch":38,"velocity":80,"startTime":5.024622,"endTime":5.0738829999999995,"instrument":1,"isDrum":true},{"pitch":44,"velocity":80,"startTime":5.024622,"endTime":5.0738829999999995,"instrument":1,"isDrum":true},{"pitch":51,"velocity":80,"startTime":5.024622,"endTime":5.0738829999999995,"instrument":1,"isDrum":true},{"pitch":53,"velocity":80,"startTime":5.024622,"endTime":5.0738829999999995,"instrument":1,"isDrum":true},{"pitch":35,"velocity":80,"startTime":5.221666,"endTime":5.295557499999999,"instrument":1,"isDrum":true},{"pitch":51,"velocity":80,"startTime":5.221666,"endTime":5.295557499999999,"instrument":1,"isDrum":true},{"pitch":35,"velocity":80,"startTime":5.320188,"endTime":5.3694489999999995,"instrument":1,"isDrum":true},{"pitch":44,"velocity":80,"startTime":5.320188,"endTime":5.3694489999999995,"instrument":1,"isDrum":true},{"pitch":51,"velocity":80,"startTime":5.320188,"endTime":5.3694489999999995,"instrument":1,"isDrum":true},{"pitch":53,"velocity":80,"startTime":5.320188,"endTime":5.3694489999999995,"instrument":1,"isDrum":true},{"pitch":51,"velocity":80,"startTime":5.517232,"endTime":5.591123499999999,"instrument":1,"isDrum":true},{"pitch":38,"velocity":80,"startTime":5.615754,"endTime":5.6650149999999995,"instrument":1,"isDrum":true},{"pitch":44,"velocity":80,"startTime":5.615754,"endTime":5.6650149999999995,"instrument":1,"isDrum":true},{"pitch":51,"velocity":80,"startTime":5.615754,"endTime":5.6650149999999995,"instrument":1,"isDrum":true},{"pitch":53,"velocity":80,"startTime":5.615754,"endTime":5.6650149999999995,"instrument":1,"isDrum":true},{"pitch":54,"velocity":80,"startTime":5.615754,"endTime":5.6650149999999995,"instrument":1,"isDrum":true},{"pitch":51,"velocity":80,"startTime":5.812798,"endTime":5.886689499999999,"instrument":1,"isDrum":true},{"pitch":35,"velocity":80,"startTime":5.91132,"endTime":5.9605809999999995,"instrument":1,"isDrum":true},{"pitch":44,"velocity":80,"startTime":5.91132,"endTime":5.9605809999999995,"instrument":1,"isDrum":true},{"pitch":51,"velocity":80,"startTime":5.91132,"endTime":5.9605809999999995,"instrument":1,"isDrum":true},{"pitch":51,"velocity":80,"startTime":6.108364,"endTime":6.182255499999999,"instrument":1,"isDrum":true},{"pitch":38,"velocity":80,"startTime":6.206886,"endTime":6.2561469999999995,"instrument":1,"isDrum":true},{"pitch":44,"velocity":80,"startTime":6.206886,"endTime":6.2561469999999995,"instrument":1,"isDrum":true},{"pitch":51,"velocity":80,"startTime":6.206886,"endTime":6.2561469999999995,"instrument":1,"isDrum":true},{"pitch":53,"velocity":80,"startTime":6.206886,"endTime":6.2561469999999995,"instrument":1,"isDrum":true},{"pitch":54,"velocity":80,"startTime":6.206886,"endTime":6.2561469999999995,"instrument":1,"isDrum":true},{"pitch":51,"velocity":80,"startTime":6.40393,"endTime":6.477821499999999,"instrument":1,"isDrum":true},{"pitch":44,"velocity":80,"startTime":6.502452,"endTime":6.5517129999999995,"instrument":1,"isDrum":true},{"pitch":51,"velocity":80,"startTime":6.502452,"endTime":6.5517129999999995,"instrument":1,"isDrum":true},{"pitch":35,"velocity":80,"startTime":6.798018,"endTime":6.8472789999999994,"instrument":1,"isDrum":true},{"pitch":38,"velocity":80,"startTime":6.798018,"endTime":6.8472789999999994,"instrument":1,"isDrum":true},{"pitch":44,"velocity":80,"startTime":6.798018,"endTime":6.8472789999999994,"instrument":1,"isDrum":true},{"pitch":51,"velocity":80,"startTime":6.798018,"endTime":6.8472789999999994,"instrument":1,"isDrum":true},{"pitch":53,"velocity":80,"startTime":6.798018,"endTime":6.8472789999999994,"instrument":1,"isDrum":true},{"pitch":54,"velocity":80,"startTime":6.798018,"endTime":6.8472789999999994,"instrument":1,"isDrum":true},{"pitch":51,"velocity":80,"startTime":6.995062,"endTime":7.068953499999999,"instrument":1,"isDrum":true},{"pitch":35,"velocity":80,"startTime":7.093584,"endTime":7.1428449999999994,"instrument":1,"isDrum":true},{"pitch":44,"velocity":80,"startTime":7.093584,"endTime":7.1428449999999994,"instrument":1,"isDrum":true},{"pitch":51,"velocity":80,"startTime":7.093584,"endTime":7.1428449999999994,"instrument":1,"isDrum":true},{"pitch":53,"velocity":80,"startTime":7.093584,"endTime":7.1428449999999994,"instrument":1,"isDrum":true},{"pitch":38,"velocity":80,"startTime":7.38915,"endTime":7.438410999999999,"instrument":1,"isDrum":true},{"pitch":44,"velocity":80,"startTime":7.38915,"endTime":7.438410999999999,"instrument":1,"isDrum":true},{"pitch":51,"velocity":80,"startTime":7.38915,"endTime":7.438410999999999,"instrument":1,"isDrum":true},{"pitch":53,"velocity":80,"startTime":7.38915,"endTime":7.438410999999999,"instrument":1,"isDrum":true},{"pitch":54,"velocity":80,"startTime":7.38915,"endTime":7.438410999999999,"instrument":1,"isDrum":true},{"pitch":51,"velocity":80,"startTime":7.586194,"endTime":7.660085499999999,"instrument":1,"isDrum":true},{"pitch":44,"velocity":80,"startTime":7.684716,"endTime":7.733976999999999,"instrument":1,"isDrum":true},{"pitch":53,"velocity":80,"startTime":7.684716,"endTime":7.733976999999999,"instrument":1,"isDrum":true},{"pitch":35,"velocity":80,"startTime":7.88176,"endTime":7.955651499999999,"instrument":1,"isDrum":true},{"pitch":53,"velocity":80,"startTime":7.88176,"endTime":7.955651499999999,"instrument":1,"isDrum":true},{"pitch":51,"velocity":80,"startTime":7.980282,"endTime":8.029543,"instrument":1,"isDrum":true},{"pitch":35,"velocity":80,"startTime":8.177325999999999,"endTime":8.2512175,"instrument":1,"isDrum":true},{"pitch":44,"velocity":80,"startTime":8.177325999999999,"endTime":8.2512175,"instrument":1,"isDrum":true},{"pitch":35,"velocity":80,"startTime":8.275848,"endTime":8.325109,"instrument":1,"isDrum":true},{"pitch":44,"velocity":80,"startTime":8.275848,"endTime":8.325109,"instrument":1,"isDrum":true},{"pitch":51,"velocity":80,"startTime":8.275848,"endTime":8.325109,"instrument":1,"isDrum":true},{"pitch":53,"velocity":80,"startTime":8.275848,"endTime":8.325109,"instrument":1,"isDrum":true},{"pitch":51,"velocity":80,"startTime":8.472892,"endTime":8.5467835,"instrument":1,"isDrum":true},{"pitch":38,"velocity":80,"startTime":8.571413999999999,"endTime":8.620674999999999,"instrument":1,"isDrum":true},{"pitch":44,"velocity":80,"startTime":8.571413999999999,"endTime":8.620674999999999,"instrument":1,"isDrum":true},{"pitch":51,"velocity":80,"startTime":8.571413999999999,"endTime":8.620674999999999,"instrument":1,"isDrum":true},{"pitch":53,"velocity":80,"startTime":8.571413999999999,"endTime":8.620674999999999,"instrument":1,"isDrum":true},{"pitch":54,"velocity":80,"startTime":8.571413999999999,"endTime":8.620674999999999,"instrument":1,"isDrum":true},{"pitch":51,"velocity":80,"startTime":8.768457999999999,"endTime":8.8423495,"instrument":1,"isDrum":true},{"pitch":31,"velocity":103,"endTime":0.295566,"instrument":2,"program":32},{"pitch":33,"velocity":103,"startTime":0.295566,"endTime":0.591132,"instrument":2,"program":32},{"pitch":38,"velocity":103,"startTime":0.591132,"endTime":0.886698,"instrument":2,"program":32},{"pitch":38,"velocity":103,"startTime":0.886698,"endTime":1.1083725,"instrument":2,"program":32},{"pitch":26,"velocity":103,"startTime":1.1083725,"endTime":1.1576335,"instrument":2,"program":32},{"pitch":43,"velocity":103,"startTime":1.182264,"endTime":1.47783,"instrument":2,"program":32},{"pitch":50,"velocity":103,"startTime":1.47783,"endTime":1.773396,"instrument":2,"program":32},{"pitch":43,"velocity":103,"startTime":1.773396,"endTime":2.068962,"instrument":2,"program":32},{"pitch":38,"velocity":103,"startTime":2.068962,"endTime":2.3398974999999997,"instrument":2,"program":32},{"pitch":28,"velocity":103,"startTime":2.364528,"endTime":2.660094,"instrument":2,"program":32},{"pitch":28,"velocity":103,"startTime":2.660094,"endTime":2.95566,"instrument":2,"program":32},{"pitch":35,"velocity":103,"startTime":2.95566,"endTime":3.251226,"instrument":2,"program":32},{"pitch":28,"velocity":103,"startTime":3.251226,"endTime":3.4729004999999997,"instrument":2,"program":32},{"pitch":35,"velocity":103,"startTime":3.4729004999999997,"endTime":3.5221614999999997,"instrument":2,"program":32},{"pitch":28,"velocity":103,"startTime":3.546792,"endTime":3.842358,"instrument":2,"program":32},{"pitch":35,"velocity":103,"startTime":3.842358,"endTime":4.137924,"instrument":2,"program":32},{"pitch":35,"velocity":103,"startTime":4.137924,"endTime":4.43349,"instrument":2,"program":32},{"pitch":35,"velocity":103,"startTime":4.43349,"endTime":4.6551645,"instrument":2,"program":32},{"pitch":28,"velocity":103,"startTime":4.6551645,"endTime":4.704425499999999,"instrument":2,"program":32},{"pitch":36,"velocity":103,"startTime":4.729056,"endTime":5.024622,"instrument":2,"program":32},{"pitch":40,"velocity":103,"startTime":5.024622,"endTime":5.320188,"instrument":2,"program":32},{"pitch":40,"velocity":103,"startTime":5.320188,"endTime":5.615754,"instrument":2,"program":32},{"pitch":43,"velocity":103,"startTime":5.615754,"endTime":5.886689499999999,"instrument":2,"program":32},{"pitch":38,"velocity":103,"startTime":5.91132,"endTime":6.206886,"instrument":2,"program":32},{"pitch":45,"velocity":103,"startTime":6.206886,"endTime":6.502452,"instrument":2,"program":32},{"pitch":45,"velocity":103,"startTime":6.502452,"endTime":6.798018,"instrument":2,"program":32},{"pitch":45,"velocity":103,"startTime":6.798018,"endTime":7.093584,"instrument":2,"program":32},{"pitch":43,"velocity":103,"startTime":7.093584,"endTime":7.3152585,"instrument":2,"program":32},{"pitch":43,"velocity":103,"startTime":7.3152585,"endTime":7.38915,"instrument":2,"program":32},{"pitch":43,"velocity":103,"startTime":7.38915,"endTime":7.684716,"instrument":2,"program":32},{"pitch":38,"velocity":103,"startTime":7.684716,"endTime":7.980282,"instrument":2,"program":32},{"pitch":43,"velocity":103,"startTime":7.980282,"endTime":8.275848,"instrument":2,"program":32},{"pitch":43,"velocity":103,"startTime":8.275848,"endTime":8.620674999999999,"instrument":2,"program":32},{"pitch":38,"velocity":103,"startTime":8.571413999999999,"endTime":8.891610499999999,"instrument":2,"program":32},{"pitch":42,"velocity":103,"startTime":8.86698,"endTime":9.1871765,"instrument":2,"program":32},{"pitch":43,"velocity":103,"startTime":9.162545999999999,"endTime":9.458112,"instrument":2,"program":32},{"pitch":55,"velocity":57,"startTime":9.679786499999999,"endTime":9.753677999999999},{"pitch":62,"velocity":57,"startTime":9.679786499999999,"endTime":9.753677999999999},{"pitch":43,"velocity":57,"startTime":9.7783085,"endTime":9.8275695},{"pitch":62,"velocity":57,"startTime":9.7783085,"endTime":9.8522},{"pitch":55,"velocity":57,"startTime":10.344809999999999,"endTime":10.443332},{"pitch":62,"velocity":57,"startTime":10.344809999999999,"endTime":10.443332},{"pitch":59,"velocity":57,"startTime":10.3694405,"endTime":10.443332},{"pitch":57,"velocity":57,"startTime":10.862050499999999,"endTime":10.9113115},{"pitch":59,"velocity":57,"startTime":10.862050499999999,"endTime":10.886681},{"pitch":62,"velocity":57,"startTime":10.862050499999999,"endTime":10.886681},{"pitch":57,"velocity":57,"startTime":11.453182499999999,"endTime":11.5024435},{"pitch":59,"velocity":57,"startTime":11.5517045,"endTime":11.674857},{"pitch":62,"velocity":57,"startTime":11.5517045,"endTime":11.674857},{"pitch":52,"velocity":57,"startTime":12.044314499999999,"endTime":12.0935755},{"pitch":59,"velocity":57,"startTime":12.044314499999999,"endTime":12.0935755},{"pitch":66,"velocity":57,"startTime":12.044314499999999,"endTime":12.0935755},{"pitch":62,"velocity":57,"startTime":12.068945,"endTime":12.0935755},{"pitch":52,"velocity":57,"startTime":12.413772,"endTime":12.512293999999999},{"pitch":55,"velocity":57,"startTime":12.438402499999999,"endTime":12.512293999999999},{"pitch":59,"velocity":57,"startTime":12.438402499999999,"endTime":12.512293999999999},{"pitch":64,"velocity":57,"startTime":12.438402499999999,"endTime":12.512293999999999},{"pitch":40,"velocity":57,"startTime":13.226578499999999,"endTime":13.300469999999999},{"pitch":59,"velocity":57,"startTime":13.3251005,"endTime":13.398992},{"pitch":64,"velocity":57,"startTime":13.3251005,"endTime":13.423622499999999},{"pitch":59,"velocity":57,"startTime":13.891601999999999,"endTime":13.990124},{"pitch":64,"velocity":57,"startTime":13.891601999999999,"endTime":13.9654935},{"pitch":68,"velocity":57,"startTime":13.891601999999999,"endTime":13.9654935},{"pitch":59,"velocity":57,"startTime":14.482733999999999,"endTime":14.581255999999996},{"pitch":64,"velocity":57,"startTime":14.482733999999999,"endTime":14.6058865},{"pitch":67,"velocity":57,"startTime":14.482733999999999,"endTime":14.581255999999996},{"pitch":57,"velocity":57,"startTime":15.2955405,"endTime":15.443323499999998},{"pitch":64,"velocity":57,"startTime":15.2955405,"endTime":15.443323499999998},{"pitch":67,"velocity":57,"startTime":15.2955405,"endTime":15.443323499999998},{"pitch":72,"velocity":57,"startTime":15.2955405,"endTime":15.443323499999998},{"pitch":57,"velocity":57,"startTime":15.8866725,"endTime":15.911302999999997},{"pitch":64,"velocity":57,"startTime":15.8866725,"endTime":15.9359335},{"pitch":67,"velocity":57,"startTime":15.8866725,"endTime":15.9359335},{"pitch":55,"velocity":57,"startTime":17.9556345,"endTime":18.0048955},{"pitch":59,"velocity":57,"startTime":17.9556345,"endTime":17.980264999999996},{"pitch":62,"velocity":57,"startTime":17.9556345,"endTime":18.0048955},{"pitch":55,"velocity":57,"startTime":18.029525999999997,"endTime":18.1034175},{"pitch":62,"velocity":57,"startTime":18.029525999999997,"endTime":18.1034175},{"pitch":59,"velocity":57,"startTime":18.054156499999998,"endTime":18.1034175},{"pitch":35,"velocity":80,"startTime":9.458112,"endTime":9.4827425,"instrument":1,"isDrum":true},{"pitch":44,"velocity":80,"startTime":9.458112,"endTime":9.4827425,"instrument":1,"isDrum":true},{"pitch":51,"velocity":80,"startTime":9.458112,"endTime":9.4827425,"instrument":1,"isDrum":true},{"pitch":51,"velocity":80,"startTime":9.655155999999998,"endTime":9.704417000000001,"instrument":1,"isDrum":true},{"pitch":37,"velocity":80,"startTime":9.753677999999999,"endTime":9.7783085,"instrument":1,"isDrum":true},{"pitch":39,"velocity":80,"startTime":9.753677999999999,"endTime":9.7783085,"instrument":1,"isDrum":true},{"pitch":44,"velocity":80,"startTime":9.753677999999999,"endTime":9.7783085,"instrument":1,"isDrum":true},{"pitch":51,"velocity":80,"startTime":9.753677999999999,"endTime":9.7783085,"instrument":1,"isDrum":true},{"pitch":35,"velocity":80,"startTime":9.950721999999999,"endTime":9.999983,"instrument":1,"isDrum":true},{"pitch":44,"velocity":80,"startTime":10.049244,"endTime":10.0738745,"instrument":1,"isDrum":true},{"pitch":51,"velocity":80,"startTime":10.049244,"endTime":10.0738745,"instrument":1,"isDrum":true},{"pitch":35,"velocity":80,"startTime":10.246288,"endTime":10.295549,"instrument":1,"isDrum":true},{"pitch":51,"velocity":80,"startTime":10.246288,"endTime":10.295549,"instrument":1,"isDrum":true},{"pitch":35,"velocity":80,"startTime":10.344809999999999,"endTime":10.3694405,"instrument":1,"isDrum":true},{"pitch":44,"velocity":80,"startTime":10.344809999999999,"endTime":10.3694405,"instrument":1,"isDrum":true},{"pitch":51,"velocity":80,"startTime":10.344809999999999,"endTime":10.3694405,"instrument":1,"isDrum":true},{"pitch":35,"velocity":80,"startTime":10.541853999999999,"endTime":10.591114999999999,"instrument":1,"isDrum":true},{"pitch":51,"velocity":80,"startTime":10.541853999999999,"endTime":10.591114999999999,"instrument":1,"isDrum":true},{"pitch":35,"velocity":80,"startTime":10.640376,"endTime":10.665006499999999,"instrument":1,"isDrum":true},{"pitch":44,"velocity":80,"startTime":10.640376,"endTime":10.665006499999999,"instrument":1,"isDrum":true},{"pitch":51,"velocity":80,"startTime":10.640376,"endTime":10.665006499999999,"instrument":1,"isDrum":true},{"pitch":35,"velocity":80,"startTime":10.83742,"endTime":10.886681,"instrument":1,"isDrum":true},{"pitch":51,"velocity":80,"startTime":10.83742,"endTime":10.886681,"instrument":1,"isDrum":true},{"pitch":37,"velocity":80,"startTime":10.935941999999999,"endTime":10.9605725,"instrument":1,"isDrum":true},{"pitch":44,"velocity":80,"startTime":10.935941999999999,"endTime":10.9605725,"instrument":1,"isDrum":true},{"pitch":51,"velocity":80,"startTime":10.935941999999999,"endTime":10.9605725,"instrument":1,"isDrum":true},{"pitch":35,"velocity":80,"startTime":11.132985999999999,"endTime":11.182246999999998,"instrument":1,"isDrum":true},{"pitch":51,"velocity":80,"startTime":11.132985999999999,"endTime":11.182246999999998,"instrument":1,"isDrum":true},{"pitch":35,"velocity":80,"startTime":11.231508,"endTime":11.256138499999999,"instrument":1,"isDrum":true},{"pitch":44,"velocity":80,"startTime":11.231508,"endTime":11.256138499999999,"instrument":1,"isDrum":true},{"pitch":51,"velocity":80,"startTime":11.231508,"endTime":11.256138499999999,"instrument":1,"isDrum":true},{"pitch":53,"velocity":80,"startTime":11.428552,"endTime":11.477813,"instrument":1,"isDrum":true},{"pitch":37,"velocity":80,"startTime":11.527073999999999,"endTime":11.5517045,"instrument":1,"isDrum":true},{"pitch":44,"velocity":80,"startTime":11.527073999999999,"endTime":11.5517045,"instrument":1,"isDrum":true},{"pitch":51,"velocity":80,"startTime":11.527073999999999,"endTime":11.5517045,"instrument":1,"isDrum":true},{"pitch":35,"velocity":80,"startTime":11.724117999999999,"endTime":11.773378999999998,"instrument":1,"isDrum":true},{"pitch":51,"velocity":80,"startTime":11.724117999999999,"endTime":11.773378999999998,"instrument":1,"isDrum":true},{"pitch":35,"velocity":80,"startTime":11.82264,"endTime":11.847270499999999,"instrument":1,"isDrum":true},{"pitch":44,"velocity":80,"startTime":11.82264,"endTime":11.847270499999999,"instrument":1,"isDrum":true},{"pitch":51,"velocity":80,"startTime":11.82264,"endTime":11.847270499999999,"instrument":1,"isDrum":true},{"pitch":51,"velocity":80,"startTime":12.019684,"endTime":12.068945,"instrument":1,"isDrum":true},{"pitch":37,"velocity":80,"startTime":12.118205999999999,"endTime":12.1428365,"instrument":1,"isDrum":true},{"pitch":44,"velocity":80,"startTime":12.118205999999999,"endTime":12.1428365,"instrument":1,"isDrum":true},{"pitch":51,"velocity":80,"startTime":12.118205999999999,"endTime":12.1428365,"instrument":1,"isDrum":true},{"pitch":35,"velocity":80,"startTime":12.315249999999999,"endTime":12.364510999999998,"instrument":1,"isDrum":true},{"pitch":51,"velocity":80,"startTime":12.315249999999999,"endTime":12.364510999999998,"instrument":1,"isDrum":true},{"pitch":35,"velocity":80,"startTime":12.413772,"endTime":12.438402499999999,"instrument":1,"isDrum":true},{"pitch":44,"velocity":80,"startTime":12.413772,"endTime":12.438402499999999,"instrument":1,"isDrum":true},{"pitch":51,"velocity":80,"startTime":12.413772,"endTime":12.438402499999999,"instrument":1,"isDrum":true},{"pitch":53,"velocity":80,"startTime":12.610816,"endTime":12.660077,"instrument":1,"isDrum":true},{"pitch":37,"velocity":80,"startTime":12.709337999999999,"endTime":12.7339685,"instrument":1,"isDrum":true},{"pitch":44,"velocity":80,"startTime":12.709337999999999,"endTime":12.7339685,"instrument":1,"isDrum":true},{"pitch":51,"velocity":80,"startTime":12.709337999999999,"endTime":12.7339685,"instrument":1,"isDrum":true},{"pitch":35,"velocity":80,"startTime":12.906381999999999,"endTime":12.955642999999998,"instrument":1,"isDrum":true},{"pitch":51,"velocity":80,"startTime":12.906381999999999,"endTime":12.955642999999998,"instrument":1,"isDrum":true},{"pitch":35,"velocity":80,"startTime":13.004904,"endTime":13.029534499999999,"instrument":1,"isDrum":true},{"pitch":44,"velocity":80,"startTime":13.004904,"endTime":13.029534499999999,"instrument":1,"isDrum":true},{"pitch":51,"velocity":80,"startTime":13.004904,"endTime":13.029534499999999,"instrument":1,"isDrum":true},{"pitch":51,"velocity":80,"startTime":13.201948,"endTime":13.251209,"instrument":1,"isDrum":true},{"pitch":37,"velocity":80,"startTime":13.300469999999999,"endTime":13.3251005,"instrument":1,"isDrum":true},{"pitch":44,"velocity":80,"startTime":13.300469999999999,"endTime":13.3251005,"instrument":1,"isDrum":true},{"pitch":51,"velocity":80,"startTime":13.300469999999999,"endTime":13.3251005,"instrument":1,"isDrum":true},{"pitch":35,"velocity":80,"startTime":13.497513999999999,"endTime":13.546774999999998,"instrument":1,"isDrum":true},{"pitch":51,"velocity":80,"startTime":13.497513999999999,"endTime":13.546774999999998,"instrument":1,"isDrum":true},{"pitch":35,"velocity":80,"startTime":13.596036,"endTime":13.620666499999999,"instrument":1,"isDrum":true},{"pitch":44,"velocity":80,"startTime":13.596036,"endTime":13.620666499999999,"instrument":1,"isDrum":true},{"pitch":51,"velocity":80,"startTime":13.596036,"endTime":13.620666499999999,"instrument":1,"isDrum":true},{"pitch":51,"velocity":80,"startTime":13.79308,"endTime":13.842341,"instrument":1,"isDrum":true},{"pitch":37,"velocity":80,"startTime":13.891601999999999,"endTime":13.9162325,"instrument":1,"isDrum":true},{"pitch":44,"velocity":80,"startTime":13.891601999999999,"endTime":13.9162325,"instrument":1,"isDrum":true},{"pitch":51,"velocity":80,"startTime":13.891601999999999,"endTime":13.9162325,"instrument":1,"isDrum":true},{"pitch":35,"velocity":80,"startTime":14.088645999999999,"endTime":14.137906999999998,"instrument":1,"isDrum":true},{"pitch":51,"velocity":80,"startTime":14.088645999999999,"endTime":14.137906999999998,"instrument":1,"isDrum":true},{"pitch":35,"velocity":80,"startTime":14.187168,"endTime":14.211798499999997,"instrument":1,"isDrum":true},{"pitch":44,"velocity":80,"startTime":14.187168,"endTime":14.211798499999997,"instrument":1,"isDrum":true},{"pitch":51,"velocity":80,"startTime":14.187168,"endTime":14.211798499999997,"instrument":1,"isDrum":true},{"pitch":51,"velocity":80,"startTime":14.384212000000002,"endTime":14.433472999999998,"instrument":1,"isDrum":true},{"pitch":37,"velocity":80,"startTime":14.482733999999999,"endTime":14.507364499999996,"instrument":1,"isDrum":true},{"pitch":44,"velocity":80,"startTime":14.482733999999999,"endTime":14.507364499999996,"instrument":1,"isDrum":true},{"pitch":51,"velocity":80,"startTime":14.482733999999999,"endTime":14.507364499999996,"instrument":1,"isDrum":true},{"pitch":35,"velocity":80,"startTime":14.679778,"endTime":14.729038999999997,"instrument":1,"isDrum":true},{"pitch":51,"velocity":80,"startTime":14.679778,"endTime":14.729038999999997,"instrument":1,"isDrum":true},{"pitch":35,"velocity":80,"startTime":14.7783,"endTime":14.802930499999997,"instrument":1,"isDrum":true},{"pitch":44,"velocity":80,"startTime":14.7783,"endTime":14.802930499999997,"instrument":1,"isDrum":true},{"pitch":51,"velocity":80,"startTime":14.7783,"endTime":14.802930499999997,"instrument":1,"isDrum":true},{"pitch":35,"velocity":80,"startTime":14.975344000000002,"endTime":15.024604999999998,"instrument":1,"isDrum":true},{"pitch":51,"velocity":80,"startTime":14.975344000000002,"endTime":15.024604999999998,"instrument":1,"isDrum":true},{"pitch":37,"velocity":80,"startTime":15.073865999999999,"endTime":15.098496499999996,"instrument":1,"isDrum":true},{"pitch":44,"velocity":80,"startTime":15.073865999999999,"endTime":15.098496499999996,"instrument":1,"isDrum":true},{"pitch":51,"velocity":80,"startTime":15.073865999999999,"endTime":15.098496499999996,"instrument":1,"isDrum":true},{"pitch":35,"velocity":80,"startTime":15.27091,"endTime":15.320170999999997,"instrument":1,"isDrum":true},{"pitch":51,"velocity":80,"startTime":15.27091,"endTime":15.320170999999997,"instrument":1,"isDrum":true},{"pitch":35,"velocity":80,"startTime":15.369432,"endTime":15.394062499999997,"instrument":1,"isDrum":true},{"pitch":44,"velocity":80,"startTime":15.369432,"endTime":15.394062499999997,"instrument":1,"isDrum":true},{"pitch":51,"velocity":80,"startTime":15.369432,"endTime":15.394062499999997,"instrument":1,"isDrum":true},{"pitch":53,"velocity":80,"startTime":15.566476000000002,"endTime":15.615736999999998,"instrument":1,"isDrum":true},{"pitch":37,"velocity":80,"startTime":15.664997999999999,"endTime":15.689628499999996,"instrument":1,"isDrum":true},{"pitch":44,"velocity":80,"startTime":15.664997999999999,"endTime":15.689628499999996,"instrument":1,"isDrum":true},{"pitch":51,"velocity":80,"startTime":15.664997999999999,"endTime":15.689628499999996,"instrument":1,"isDrum":true},{"pitch":35,"velocity":80,"startTime":15.862042,"endTime":15.911302999999997,"instrument":1,"isDrum":true},{"pitch":51,"velocity":80,"startTime":15.862042,"endTime":15.911302999999997,"instrument":1,"isDrum":true},{"pitch":35,"velocity":80,"startTime":15.960564,"endTime":15.985194499999997,"instrument":1,"isDrum":true},{"pitch":44,"velocity":80,"startTime":15.960564,"endTime":15.985194499999997,"instrument":1,"isDrum":true},{"pitch":51,"velocity":80,"startTime":15.960564,"endTime":15.985194499999997,"instrument":1,"isDrum":true},{"pitch":51,"velocity":80,"startTime":16.157608,"endTime":16.206868999999998,"instrument":1,"isDrum":true},{"pitch":37,"velocity":80,"startTime":16.25613,"endTime":16.280760499999996,"instrument":1,"isDrum":true},{"pitch":44,"velocity":80,"startTime":16.25613,"endTime":16.280760499999996,"instrument":1,"isDrum":true},{"pitch":51,"velocity":80,"startTime":16.25613,"endTime":16.280760499999996,"instrument":1,"isDrum":true},{"pitch":35,"velocity":80,"startTime":16.453174,"endTime":16.502434999999995,"instrument":1,"isDrum":true},{"pitch":51,"velocity":80,"startTime":16.453174,"endTime":16.502434999999995,"instrument":1,"isDrum":true},{"pitch":35,"velocity":80,"startTime":16.551696,"endTime":16.576326499999997,"instrument":1,"isDrum":true},{"pitch":44,"velocity":80,"startTime":16.551696,"endTime":16.576326499999997,"instrument":1,"isDrum":true},{"pitch":51,"velocity":80,"startTime":16.551696,"endTime":16.576326499999997,"instrument":1,"isDrum":true},{"pitch":51,"velocity":80,"startTime":16.74874,"endTime":16.798000999999996,"instrument":1,"isDrum":true},{"pitch":37,"velocity":80,"startTime":16.847261999999997,"endTime":16.871892499999998,"instrument":1,"isDrum":true},{"pitch":44,"velocity":80,"startTime":16.847261999999997,"endTime":16.871892499999998,"instrument":1,"isDrum":true},{"pitch":51,"velocity":80,"startTime":16.847261999999997,"endTime":16.871892499999998,"instrument":1,"isDrum":true},{"pitch":35,"velocity":80,"startTime":17.044306000000002,"endTime":17.093566999999997,"instrument":1,"isDrum":true},{"pitch":51,"velocity":80,"startTime":17.044306000000002,"endTime":17.093566999999997,"instrument":1,"isDrum":true},{"pitch":35,"velocity":80,"startTime":17.142827999999998,"endTime":17.167458499999995,"instrument":1,"isDrum":true},{"pitch":44,"velocity":80,"startTime":17.142827999999998,"endTime":17.167458499999995,"instrument":1,"isDrum":true},{"pitch":51,"velocity":80,"startTime":17.142827999999998,"endTime":17.167458499999995,"instrument":1,"isDrum":true},{"pitch":51,"velocity":80,"startTime":17.339872,"endTime":17.389132999999998,"instrument":1,"isDrum":true},{"pitch":37,"velocity":80,"startTime":17.438394,"endTime":17.463024499999996,"instrument":1,"isDrum":true},{"pitch":44,"velocity":80,"startTime":17.438394,"endTime":17.463024499999996,"instrument":1,"isDrum":true},{"pitch":51,"velocity":80,"startTime":17.438394,"endTime":17.463024499999996,"instrument":1,"isDrum":true},{"pitch":35,"velocity":80,"startTime":17.635438,"endTime":17.684698999999995,"instrument":1,"isDrum":true},{"pitch":51,"velocity":80,"startTime":17.635438,"endTime":17.684698999999995,"instrument":1,"isDrum":true},{"pitch":43,"velocity":103,"startTime":9.458112,"endTime":9.679786499999999,"instrument":2,"program":32},{"pitch":31,"velocity":103,"startTime":9.679786499999999,"endTime":9.753677999999999,"instrument":2,"program":32},{"pitch":38,"velocity":103,"startTime":9.753677999999999,"endTime":10.049244,"instrument":2,"program":32},{"pitch":43,"velocity":103,"startTime":10.049244,"endTime":10.246288,"instrument":2,"program":32},{"pitch":38,"velocity":103,"startTime":10.270918499999999,"endTime":10.344809999999999,"instrument":2,"program":32},{"pitch":43,"velocity":103,"startTime":10.344809999999999,"endTime":10.5664845,"instrument":2,"program":32},{"pitch":43,"velocity":103,"startTime":10.640376,"endTime":10.862050499999999,"instrument":2,"program":32},{"pitch":35,"velocity":103,"startTime":10.862050499999999,"endTime":10.935941999999999,"instrument":2,"program":32},{"pitch":38,"velocity":103,"startTime":10.935941999999999,"endTime":11.1576165,"instrument":2,"program":32},{"pitch":37,"velocity":103,"startTime":11.1576165,"endTime":11.231508,"instrument":2,"program":32},{"pitch":38,"velocity":103,"startTime":11.231508,"endTime":11.527073999999999,"instrument":2,"program":32},{"pitch":39,"velocity":103,"startTime":11.527073999999999,"endTime":11.82264,"instrument":2,"program":32},{"pitch":40,"velocity":103,"startTime":11.82264,"endTime":12.044314499999999,"instrument":2,"program":32},{"pitch":28,"velocity":103,"startTime":12.044314499999999,"endTime":12.118205999999999,"instrument":2,"program":32},{"pitch":40,"velocity":103,"startTime":12.118205999999999,"endTime":12.413772,"instrument":2,"program":32},{"pitch":40,"velocity":103,"startTime":12.413772,"endTime":12.709337999999999,"instrument":2,"program":32},{"pitch":35,"velocity":103,"startTime":12.709337999999999,"endTime":12.9310125,"instrument":2,"program":32},{"pitch":28,"velocity":103,"startTime":12.9310125,"endTime":13.004904,"instrument":2,"program":32},{"pitch":40,"velocity":103,"startTime":13.004904,"endTime":13.226578499999999,"instrument":2,"program":32},{"pitch":35,"velocity":103,"startTime":13.226578499999999,"endTime":13.300469999999999,"instrument":2,"program":32},{"pitch":37,"velocity":103,"startTime":13.300469999999999,"endTime":13.596036,"instrument":2,"program":32},{"pitch":30,"velocity":103,"startTime":13.596036,"endTime":13.79308,"instrument":2,"program":32},{"pitch":30,"velocity":103,"startTime":13.817710499999999,"endTime":13.891601999999999,"instrument":2,"program":32},{"pitch":35,"velocity":103,"startTime":13.891601999999999,"endTime":14.1132765,"instrument":2,"program":32},{"pitch":30,"velocity":103,"startTime":14.1132765,"endTime":14.187168,"instrument":2,"program":32},{"pitch":36,"velocity":103,"startTime":14.187168,"endTime":14.408842499999999,"instrument":2,"program":32},{"pitch":24,"velocity":103,"startTime":14.408842499999999,"endTime":14.482733999999999,"instrument":2,"program":32},{"pitch":40,"velocity":103,"startTime":14.482733999999999,"endTime":14.7783,"instrument":2,"program":32},{"pitch":36,"velocity":103,"startTime":14.7783,"endTime":15.073865999999999,"instrument":2,"program":32},{"pitch":28,"velocity":103,"startTime":15.073865999999999,"endTime":15.369432,"instrument":2,"program":32},{"pitch":38,"velocity":103,"startTime":15.369432,"endTime":15.714259000000002,"instrument":2,"program":32},{"pitch":45,"velocity":103,"startTime":15.664997999999999,"endTime":16.25613,"instrument":2,"program":32},{"pitch":45,"velocity":103,"startTime":15.960564,"endTime":15.985194499999997,"instrument":2,"program":32},{"pitch":38,"velocity":103,"startTime":16.25613,"endTime":16.551696,"instrument":2,"program":32},{"pitch":43,"velocity":103,"startTime":16.551696,"endTime":16.7733705,"instrument":2,"program":32},{"pitch":31,"velocity":103,"startTime":16.7733705,"endTime":16.847261999999997,"instrument":2,"program":32},{"pitch":43,"velocity":103,"startTime":16.847261999999997,"endTime":17.142827999999998,"instrument":2,"program":32},{"pitch":38,"velocity":103,"startTime":17.142827999999998,"endTime":17.438394,"instrument":2,"program":32},{"pitch":31,"velocity":103,"startTime":17.438394,"endTime":17.73396,"instrument":2,"program":32},{"pitch":43,"velocity":103,"startTime":17.73396,"endTime":17.9556345,"instrument":2,"program":32},{"pitch":31,"velocity":103,"startTime":17.9556345,"endTime":18.029525999999997,"instrument":2,"program":32},{"pitch":38,"velocity":103,"startTime":18.029525999999997,"endTime":18.325091999999998,"instrument":2,"program":32},{"pitch":43,"velocity":103,"startTime":18.325091999999998,"endTime":18.620658,"instrument":2,"program":32},{"pitch":43,"velocity":103,"startTime":18.620658,"endTime":18.916224,"instrument":2,"program":32},{"pitch":43,"velocity":57,"startTime":18.940854499999997,"endTime":18.965485},{"pitch":57,"velocity":57,"startTime":18.940854499999997,"endTime":18.965485},{"pitch":59,"velocity":57,"startTime":18.940854499999997,"endTime":18.965485},{"pitch":62,"velocity":57,"startTime":18.940854499999997,"endTime":18.965485},{"pitch":65,"velocity":57,"startTime":18.940854499999997,"endTime":18.990115499999998},{"pitch":43,"velocity":57,"startTime":20.098488,"endTime":20.19701},{"pitch":59,"velocity":57,"startTime":20.098488,"endTime":20.2216405},{"pitch":62,"velocity":57,"startTime":20.098488,"endTime":20.2216405},{"pitch":43,"velocity":57,"startTime":20.6157285,"endTime":20.689619999999998},{"pitch":59,"velocity":57,"startTime":20.6157285,"endTime":20.7142505},{"pitch":59,"velocity":57,"startTime":20.6157285,"endTime":20.689619999999998},{"pitch":62,"velocity":57,"startTime":20.6157285,"endTime":20.689619999999998},{"pitch":69,"velocity":57,"startTime":20.6157285,"endTime":20.7142505},{"pitch":40,"velocity":57,"startTime":21.280752,"endTime":21.354643499999998},{"pitch":52,"velocity":57,"startTime":21.280752,"endTime":21.354643499999998},{"pitch":56,"velocity":57,"startTime":21.280752,"endTime":21.354643499999998},{"pitch":59,"velocity":57,"startTime":21.280752,"endTime":21.379274},{"pitch":62,"velocity":57,"startTime":21.280752,"endTime":21.379274},{"pitch":40,"velocity":57,"startTime":21.871883999999998,"endTime":21.995036499999998},{"pitch":52,"velocity":57,"startTime":22.16745,"endTime":22.241341499999997},{"pitch":57,"velocity":57,"startTime":22.16745,"endTime":22.241341499999997},{"pitch":59,"velocity":57,"startTime":22.16745,"endTime":22.241341499999997},{"pitch":62,"velocity":57,"startTime":22.16745,"endTime":22.241341499999997},{"pitch":52,"velocity":57,"startTime":22.463016,"endTime":22.5861685},{"pitch":57,"velocity":57,"startTime":22.463016,"endTime":22.5861685},{"pitch":59,"velocity":57,"startTime":22.463016,"endTime":22.5861685},{"pitch":62,"velocity":57,"startTime":22.463016,"endTime":22.5861685},{"pitch":52,"velocity":57,"startTime":22.709321,"endTime":22.758581999999997},{"pitch":57,"velocity":57,"startTime":22.709321,"endTime":22.758581999999997},{"pitch":59,"velocity":57,"startTime":22.709321,"endTime":22.758581999999997},{"pitch":62,"velocity":57,"startTime":22.709321,"endTime":22.758581999999997},{"pitch":48,"velocity":57,"startTime":23.64528,"endTime":23.743802},{"pitch":60,"velocity":57,"startTime":23.64528,"endTime":23.743802},{"pitch":55,"velocity":57,"startTime":23.669910499999997,"endTime":23.743802},{"pitch":62,"velocity":57,"startTime":23.669910499999997,"endTime":23.7684325},{"pitch":38,"velocity":57,"startTime":24.827544,"endTime":24.9506965},{"pitch":57,"velocity":57,"startTime":24.827544,"endTime":24.926066},{"pitch":62,"velocity":57,"startTime":24.827544,"endTime":24.9506965},{"pitch":60,"velocity":57,"startTime":24.852174499999997,"endTime":24.9506965},{"pitch":50,"velocity":57,"startTime":25.147740499999998,"endTime":25.221632},{"pitch":57,"velocity":57,"startTime":25.147740499999998,"endTime":25.1970015},{"pitch":60,"velocity":57,"startTime":25.147740499999998,"endTime":25.1970015},{"pitch":64,"velocity":57,"startTime":25.147740499999998,"endTime":25.221632},{"pitch":43,"velocity":57,"startTime":26.2314825,"endTime":26.305373999999997},{"pitch":59,"velocity":57,"startTime":26.2314825,"endTime":26.2807435},{"pitch":62,"velocity":57,"startTime":26.2314825,"endTime":26.305373999999997},{"pitch":43,"velocity":57,"startTime":26.896506,"endTime":26.970397499999997},{"pitch":59,"velocity":57,"startTime":26.896506,"endTime":26.970397499999997},{"pitch":62,"velocity":57,"startTime":26.9211365,"endTime":26.970397499999997},{"pitch":65,"velocity":57,"startTime":26.9211365,"endTime":26.995027999999998},{"pitch":43,"velocity":57,"startTime":27.118180499999998,"endTime":27.192072},{"pitch":59,"velocity":57,"startTime":27.118180499999998,"endTime":27.3152245},{"pitch":62,"velocity":57,"startTime":27.118180499999998,"endTime":27.3152245},{"pitch":65,"velocity":57,"startTime":27.118180499999998,"endTime":27.3152245},{"pitch":67,"velocity":57,"startTime":27.118180499999998,"endTime":27.3152245},{"pitch":43,"velocity":57,"startTime":27.783203999999998,"endTime":27.881725999999997},{"pitch":59,"velocity":57,"startTime":27.783203999999998,"endTime":27.881725999999997},{"pitch":62,"velocity":57,"startTime":27.783203999999998,"endTime":27.906356499999998},{"pitch":55,"velocity":57,"startTime":27.8078345,"endTime":27.881725999999997},{"pitch":35,"velocity":80,"startTime":18.916224,"endTime":18.940854499999997,"instrument":1,"isDrum":true},{"pitch":44,"velocity":80,"startTime":18.916224,"endTime":18.940854499999997,"instrument":1,"isDrum":true},{"pitch":53,"velocity":80,"startTime":18.916224,"endTime":18.940854499999997,"instrument":1,"isDrum":true},{"pitch":51,"velocity":80,"startTime":19.113268,"endTime":19.1378985,"instrument":1,"isDrum":true},{"pitch":35,"velocity":80,"startTime":19.211789999999997,"endTime":19.236420499999998,"instrument":1,"isDrum":true},{"pitch":37,"velocity":80,"startTime":19.211789999999997,"endTime":19.236420499999998,"instrument":1,"isDrum":true},{"pitch":44,"velocity":80,"startTime":19.211789999999997,"endTime":19.236420499999998,"instrument":1,"isDrum":true},{"pitch":53,"velocity":80,"startTime":19.211789999999997,"endTime":19.236420499999998,"instrument":1,"isDrum":true},{"pitch":35,"velocity":80,"startTime":19.507355999999998,"endTime":19.531986499999995,"instrument":1,"isDrum":true},{"pitch":44,"velocity":80,"startTime":19.507355999999998,"endTime":19.531986499999995,"instrument":1,"isDrum":true},{"pitch":51,"velocity":80,"startTime":19.507355999999998,"endTime":19.531986499999995,"instrument":1,"isDrum":true},{"pitch":53,"velocity":80,"startTime":19.7044,"endTime":19.7290305,"instrument":1,"isDrum":true},{"pitch":35,"velocity":80,"startTime":19.802922,"endTime":19.827552499999996,"instrument":1,"isDrum":true},{"pitch":37,"velocity":80,"startTime":19.802922,"endTime":19.827552499999996,"instrument":1,"isDrum":true},{"pitch":44,"velocity":80,"startTime":19.802922,"endTime":19.827552499999996,"instrument":1,"isDrum":true},{"pitch":51,"velocity":80,"startTime":19.802922,"endTime":19.827552499999996,"instrument":1,"isDrum":true},{"pitch":51,"velocity":80,"startTime":19.999966,"endTime":20.024596499999998,"instrument":1,"isDrum":true},{"pitch":35,"velocity":80,"startTime":20.098488,"endTime":20.123118499999997,"instrument":1,"isDrum":true},{"pitch":44,"velocity":80,"startTime":20.098488,"endTime":20.123118499999997,"instrument":1,"isDrum":true},{"pitch":51,"velocity":80,"startTime":20.098488,"endTime":20.123118499999997,"instrument":1,"isDrum":true},{"pitch":35,"velocity":80,"startTime":20.394053999999997,"endTime":20.418684499999998,"instrument":1,"isDrum":true},{"pitch":37,"velocity":80,"startTime":20.394053999999997,"endTime":20.418684499999998,"instrument":1,"isDrum":true},{"pitch":38,"velocity":80,"startTime":20.394053999999997,"endTime":20.418684499999998,"instrument":1,"isDrum":true},{"pitch":44,"velocity":80,"startTime":20.394053999999997,"endTime":20.418684499999998,"instrument":1,"isDrum":true},{"pitch":51,"velocity":80,"startTime":20.394053999999997,"endTime":20.418684499999998,"instrument":1,"isDrum":true},{"pitch":35,"velocity":80,"startTime":20.689619999999998,"endTime":20.7142505,"instrument":1,"isDrum":true},{"pitch":44,"velocity":80,"startTime":20.689619999999998,"endTime":20.7142505,"instrument":1,"isDrum":true},{"pitch":51,"velocity":80,"startTime":20.689619999999998,"endTime":20.7142505,"instrument":1,"isDrum":true},{"pitch":51,"velocity":80,"startTime":20.886664,"endTime":20.911294499999997,"instrument":1,"isDrum":true},{"pitch":35,"velocity":80,"startTime":20.985186,"endTime":21.0098165,"instrument":1,"isDrum":true},{"pitch":37,"velocity":80,"startTime":20.985186,"endTime":21.0098165,"instrument":1,"isDrum":true},{"pitch":44,"velocity":80,"startTime":20.985186,"endTime":21.0098165,"instrument":1,"isDrum":true},{"pitch":51,"velocity":80,"startTime":20.985186,"endTime":21.0098165,"instrument":1,"isDrum":true},{"pitch":53,"velocity":80,"startTime":21.182229999999997,"endTime":21.280752,"instrument":1,"isDrum":true},{"pitch":44,"velocity":80,"startTime":21.280752,"endTime":21.305382499999997,"instrument":1,"isDrum":true},{"pitch":51,"velocity":80,"startTime":21.280752,"endTime":21.305382499999997,"instrument":1,"isDrum":true},{"pitch":35,"velocity":80,"startTime":21.477795999999998,"endTime":21.5024265,"instrument":1,"isDrum":true},{"pitch":51,"velocity":80,"startTime":21.477795999999998,"endTime":21.5024265,"instrument":1,"isDrum":true},{"pitch":35,"velocity":80,"startTime":21.576317999999997,"endTime":21.600948499999998,"instrument":1,"isDrum":true},{"pitch":37,"velocity":80,"startTime":21.576317999999997,"endTime":21.600948499999998,"instrument":1,"isDrum":true},{"pitch":38,"velocity":80,"startTime":21.576317999999997,"endTime":21.600948499999998,"instrument":1,"isDrum":true},{"pitch":44,"velocity":80,"startTime":21.576317999999997,"endTime":21.600948499999998,"instrument":1,"isDrum":true},{"pitch":51,"velocity":80,"startTime":21.576317999999997,"endTime":21.600948499999998,"instrument":1,"isDrum":true},{"pitch":53,"velocity":80,"startTime":21.576317999999997,"endTime":21.600948499999998,"instrument":1,"isDrum":true},{"pitch":51,"velocity":80,"startTime":21.773362,"endTime":21.7979925,"instrument":1,"isDrum":true},{"pitch":35,"velocity":80,"startTime":21.871883999999998,"endTime":21.8965145,"instrument":1,"isDrum":true},{"pitch":44,"velocity":80,"startTime":21.871883999999998,"endTime":21.8965145,"instrument":1,"isDrum":true},{"pitch":51,"velocity":80,"startTime":21.871883999999998,"endTime":21.8965145,"instrument":1,"isDrum":true},{"pitch":53,"velocity":80,"startTime":22.068928,"endTime":22.093558499999997,"instrument":1,"isDrum":true},{"pitch":35,"velocity":80,"startTime":22.16745,"endTime":22.1920805,"instrument":1,"isDrum":true},{"pitch":37,"velocity":80,"startTime":22.16745,"endTime":22.1920805,"instrument":1,"isDrum":true},{"pitch":44,"velocity":80,"startTime":22.16745,"endTime":22.1920805,"instrument":1,"isDrum":true},{"pitch":51,"velocity":80,"startTime":22.16745,"endTime":22.1920805,"instrument":1,"isDrum":true},{"pitch":51,"velocity":80,"startTime":22.364493999999997,"endTime":22.463016,"instrument":1,"isDrum":true},{"pitch":35,"velocity":80,"startTime":22.463016,"endTime":22.487646499999997,"instrument":1,"isDrum":true},{"pitch":44,"velocity":80,"startTime":22.463016,"endTime":22.487646499999997,"instrument":1,"isDrum":true},{"pitch":51,"velocity":80,"startTime":22.463016,"endTime":22.487646499999997,"instrument":1,"isDrum":true},{"pitch":35,"velocity":80,"startTime":22.660059999999998,"endTime":22.6846905,"instrument":1,"isDrum":true},{"pitch":51,"velocity":80,"startTime":22.660059999999998,"endTime":22.6846905,"instrument":1,"isDrum":true},{"pitch":35,"velocity":80,"startTime":22.758581999999997,"endTime":22.783212499999998,"instrument":1,"isDrum":true},{"pitch":37,"velocity":80,"startTime":22.758581999999997,"endTime":22.783212499999998,"instrument":1,"isDrum":true},{"pitch":44,"velocity":80,"startTime":22.758581999999997,"endTime":22.783212499999998,"instrument":1,"isDrum":true},{"pitch":51,"velocity":80,"startTime":22.758581999999997,"endTime":22.783212499999998,"instrument":1,"isDrum":true},{"pitch":51,"velocity":80,"startTime":22.955626,"endTime":23.054147999999998,"instrument":1,"isDrum":true},{"pitch":35,"velocity":80,"startTime":23.054147999999998,"endTime":23.0787785,"instrument":1,"isDrum":true},{"pitch":44,"velocity":80,"startTime":23.054147999999998,"endTime":23.0787785,"instrument":1,"isDrum":true},{"pitch":51,"velocity":80,"startTime":23.054147999999998,"endTime":23.0787785,"instrument":1,"isDrum":true},{"pitch":35,"velocity":80,"startTime":23.251192,"endTime":23.275822499999997,"instrument":1,"isDrum":true},{"pitch":51,"velocity":80,"startTime":23.251192,"endTime":23.275822499999997,"instrument":1,"isDrum":true},{"pitch":35,"velocity":80,"startTime":23.349714,"endTime":23.3743445,"instrument":1,"isDrum":true},{"pitch":37,"velocity":80,"startTime":23.349714,"endTime":23.3743445,"instrument":1,"isDrum":true},{"pitch":38,"velocity":80,"startTime":23.349714,"endTime":23.3743445,"instrument":1,"isDrum":true},{"pitch":44,"velocity":80,"startTime":23.349714,"endTime":23.3743445,"instrument":1,"isDrum":true},{"pitch":51,"velocity":80,"startTime":23.349714,"endTime":23.3743445,"instrument":1,"isDrum":true},{"pitch":53,"velocity":80,"startTime":23.349714,"endTime":23.3743445,"instrument":1,"isDrum":true},{"pitch":51,"velocity":80,"startTime":23.546757999999997,"endTime":23.571388499999998,"instrument":1,"isDrum":true},{"pitch":35,"velocity":80,"startTime":23.64528,"endTime":23.669910499999997,"instrument":1,"isDrum":true},{"pitch":44,"velocity":80,"startTime":23.64528,"endTime":23.669910499999997,"instrument":1,"isDrum":true},{"pitch":51,"velocity":80,"startTime":23.64528,"endTime":23.669910499999997,"instrument":1,"isDrum":true},{"pitch":35,"velocity":80,"startTime":23.842323999999998,"endTime":23.8669545,"instrument":1,"isDrum":true},{"pitch":53,"velocity":80,"startTime":23.842323999999998,"endTime":23.8669545,"instrument":1,"isDrum":true},{"pitch":35,"velocity":80,"startTime":23.940845999999997,"endTime":23.965476499999998,"instrument":1,"isDrum":true},{"pitch":37,"velocity":80,"startTime":23.940845999999997,"endTime":23.965476499999998,"instrument":1,"isDrum":true},{"pitch":38,"velocity":80,"startTime":23.940845999999997,"endTime":23.965476499999998,"instrument":1,"isDrum":true},{"pitch":44,"velocity":80,"startTime":23.940845999999997,"endTime":23.965476499999998,"instrument":1,"isDrum":true},{"pitch":51,"velocity":80,"startTime":23.940845999999997,"endTime":23.965476499999998,"instrument":1,"isDrum":true},{"pitch":51,"velocity":80,"startTime":24.13789,"endTime":24.1625205,"instrument":1,"isDrum":true},{"pitch":35,"velocity":80,"startTime":24.236411999999998,"endTime":24.2610425,"instrument":1,"isDrum":true},{"pitch":44,"velocity":80,"startTime":24.236411999999998,"endTime":24.2610425,"instrument":1,"isDrum":true},{"pitch":51,"velocity":80,"startTime":24.236411999999998,"endTime":24.2610425,"instrument":1,"isDrum":true},{"pitch":35,"velocity":80,"startTime":24.433456,"endTime":24.458086499999997,"instrument":1,"isDrum":true},{"pitch":51,"velocity":80,"startTime":24.433456,"endTime":24.458086499999997,"instrument":1,"isDrum":true},{"pitch":35,"velocity":80,"startTime":24.531978,"endTime":24.5566085,"instrument":1,"isDrum":true},{"pitch":37,"velocity":80,"startTime":24.531978,"endTime":24.5566085,"instrument":1,"isDrum":true},{"pitch":38,"velocity":80,"startTime":24.531978,"endTime":24.5566085,"instrument":1,"isDrum":true},{"pitch":44,"velocity":80,"startTime":24.531978,"endTime":24.5566085,"instrument":1,"isDrum":true},{"pitch":51,"velocity":80,"startTime":24.531978,"endTime":24.5566085,"instrument":1,"isDrum":true},{"pitch":51,"velocity":80,"startTime":24.729021999999997,"endTime":24.827544,"instrument":1,"isDrum":true},{"pitch":35,"velocity":80,"startTime":24.827544,"endTime":24.852174499999997,"instrument":1,"isDrum":true},{"pitch":44,"velocity":80,"startTime":24.827544,"endTime":24.852174499999997,"instrument":1,"isDrum":true},{"pitch":51,"velocity":80,"startTime":24.827544,"endTime":24.852174499999997,"instrument":1,"isDrum":true},{"pitch":35,"velocity":80,"startTime":25.024587999999998,"endTime":25.0492185,"instrument":1,"isDrum":true},{"pitch":51,"velocity":80,"startTime":25.024587999999998,"endTime":25.0492185,"instrument":1,"isDrum":true},{"pitch":35,"velocity":80,"startTime":25.123109999999997,"endTime":25.147740499999998,"instrument":1,"isDrum":true},{"pitch":37,"velocity":80,"startTime":25.123109999999997,"endTime":25.147740499999998,"instrument":1,"isDrum":true},{"pitch":38,"velocity":80,"startTime":25.123109999999997,"endTime":25.147740499999998,"instrument":1,"isDrum":true},{"pitch":44,"velocity":80,"startTime":25.123109999999997,"endTime":25.147740499999998,"instrument":1,"isDrum":true},{"pitch":51,"velocity":80,"startTime":25.123109999999997,"endTime":25.147740499999998,"instrument":1,"isDrum":true},{"pitch":51,"velocity":80,"startTime":25.320154,"endTime":25.418675999999998,"instrument":1,"isDrum":true},{"pitch":35,"velocity":80,"startTime":25.418675999999998,"endTime":25.4433065,"instrument":1,"isDrum":true},{"pitch":51,"velocity":80,"startTime":25.418675999999998,"endTime":25.4433065,"instrument":1,"isDrum":true},{"pitch":51,"velocity":80,"startTime":25.61572,"endTime":25.640350499999997,"instrument":1,"isDrum":true},{"pitch":35,"velocity":80,"startTime":25.714242,"endTime":25.7388725,"instrument":1,"isDrum":true},{"pitch":44,"velocity":80,"startTime":25.714242,"endTime":25.7388725,"instrument":1,"isDrum":true},{"pitch":51,"velocity":80,"startTime":25.714242,"endTime":25.7388725,"instrument":1,"isDrum":true},{"pitch":53,"velocity":80,"startTime":25.714242,"endTime":25.7388725,"instrument":1,"isDrum":true},{"pitch":51,"velocity":80,"startTime":25.911285999999997,"endTime":25.935916499999998,"instrument":1,"isDrum":true},{"pitch":35,"velocity":80,"startTime":26.009808,"endTime":26.034438499999997,"instrument":1,"isDrum":true},{"pitch":44,"velocity":80,"startTime":26.009808,"endTime":26.034438499999997,"instrument":1,"isDrum":true},{"pitch":51,"velocity":80,"startTime":26.009808,"endTime":26.034438499999997,"instrument":1,"isDrum":true},{"pitch":51,"velocity":80,"startTime":26.206851999999998,"endTime":26.2314825,"instrument":1,"isDrum":true},{"pitch":35,"velocity":80,"startTime":26.305373999999997,"endTime":26.330004499999998,"instrument":1,"isDrum":true},{"pitch":44,"velocity":80,"startTime":26.305373999999997,"endTime":26.330004499999998,"instrument":1,"isDrum":true},{"pitch":51,"velocity":80,"startTime":26.305373999999997,"endTime":26.330004499999998,"instrument":1,"isDrum":true},{"pitch":53,"velocity":80,"startTime":26.305373999999997,"endTime":26.330004499999998,"instrument":1,"isDrum":true},{"pitch":51,"velocity":80,"startTime":26.502418,"endTime":26.5270485,"instrument":1,"isDrum":true},{"pitch":35,"velocity":80,"startTime":26.600939999999998,"endTime":26.6255705,"instrument":1,"isDrum":true},{"pitch":44,"velocity":80,"startTime":26.600939999999998,"endTime":26.6255705,"instrument":1,"isDrum":true},{"pitch":51,"velocity":80,"startTime":26.600939999999998,"endTime":26.6255705,"instrument":1,"isDrum":true},{"pitch":35,"velocity":80,"startTime":26.797984,"endTime":26.822614499999997,"instrument":1,"isDrum":true},{"pitch":51,"velocity":80,"startTime":26.797984,"endTime":26.822614499999997,"instrument":1,"isDrum":true},{"pitch":35,"velocity":80,"startTime":26.896506,"endTime":26.9211365,"instrument":1,"isDrum":true},{"pitch":37,"velocity":80,"startTime":26.896506,"endTime":26.9211365,"instrument":1,"isDrum":true},{"pitch":38,"velocity":80,"startTime":26.896506,"endTime":26.9211365,"instrument":1,"isDrum":true},{"pitch":44,"velocity":80,"startTime":26.896506,"endTime":26.9211365,"instrument":1,"isDrum":true},{"pitch":51,"velocity":80,"startTime":26.896506,"endTime":26.9211365,"instrument":1,"isDrum":true},{"pitch":51,"velocity":80,"startTime":27.093549999999997,"endTime":27.118180499999998,"instrument":1,"isDrum":true},{"pitch":35,"velocity":80,"startTime":27.192072,"endTime":27.216702499999997,"instrument":1,"isDrum":true},{"pitch":44,"velocity":80,"startTime":27.192072,"endTime":27.216702499999997,"instrument":1,"isDrum":true},{"pitch":51,"velocity":80,"startTime":27.192072,"endTime":27.216702499999997,"instrument":1,"isDrum":true},{"pitch":35,"velocity":80,"startTime":27.389115999999998,"endTime":27.4137465,"instrument":1,"isDrum":true},{"pitch":51,"velocity":80,"startTime":27.389115999999998,"endTime":27.4137465,"instrument":1,"isDrum":true},{"pitch":35,"velocity":80,"startTime":27.487637999999997,"endTime":27.512268499999998,"instrument":1,"isDrum":true},{"pitch":37,"velocity":80,"startTime":27.487637999999997,"endTime":27.512268499999998,"instrument":1,"isDrum":true},{"pitch":38,"velocity":80,"startTime":27.487637999999997,"endTime":27.512268499999998,"instrument":1,"isDrum":true},{"pitch":44,"velocity":80,"startTime":27.487637999999997,"endTime":27.512268499999998,"instrument":1,"isDrum":true},{"pitch":51,"velocity":80,"startTime":27.487637999999997,"endTime":27.512268499999998,"instrument":1,"isDrum":true},{"pitch":51,"velocity":80,"startTime":27.684682,"endTime":27.783203999999998,"instrument":1,"isDrum":true},{"pitch":31,"velocity":103,"startTime":18.916224,"endTime":19.1378985,"instrument":2,"program":32},{"pitch":31,"velocity":103,"startTime":19.1378985,"endTime":19.211789999999997,"instrument":2,"program":32},{"pitch":35,"velocity":103,"startTime":19.211789999999997,"endTime":19.507355999999998,"instrument":2,"program":32},{"pitch":38,"velocity":103,"startTime":19.507355999999998,"endTime":19.802922,"instrument":2,"program":32},{"pitch":31,"velocity":103,"startTime":19.802922,"endTime":19.999966,"instrument":2,"program":32},{"pitch":31,"velocity":103,"startTime":20.024596499999998,"endTime":20.7142505,"instrument":2,"program":32},{"pitch":31,"velocity":103,"startTime":20.394053999999997,"endTime":20.443315,"instrument":2,"program":32},{"pitch":35,"velocity":103,"startTime":20.689619999999998,"endTime":20.985186,"instrument":2,"program":32},{"pitch":31,"velocity":103,"startTime":20.985186,"endTime":21.280752,"instrument":2,"program":32},{"pitch":28,"velocity":103,"startTime":21.280752,"endTime":21.625579,"instrument":2,"program":32},{"pitch":40,"velocity":103,"startTime":21.576317999999997,"endTime":22.16745,"instrument":2,"program":32},{"pitch":40,"velocity":103,"startTime":21.871883999999998,"endTime":21.8965145,"instrument":2,"program":32},{"pitch":35,"velocity":103,"startTime":22.16745,"endTime":22.463016,"instrument":2,"program":32},{"pitch":40,"velocity":103,"startTime":22.463016,"endTime":22.758581999999997,"instrument":2,"program":32},{"pitch":38,"velocity":103,"startTime":22.758581999999997,"endTime":23.054147999999998,"instrument":2,"program":32},{"pitch":40,"velocity":103,"startTime":23.054147999999998,"endTime":23.349714,"instrument":2,"program":32},{"pitch":35,"velocity":103,"startTime":23.349714,"endTime":23.64528,"instrument":2,"program":32},{"pitch":36,"velocity":103,"startTime":23.64528,"endTime":24.2610425,"instrument":2,"program":32},{"pitch":36,"velocity":103,"startTime":23.940845999999997,"endTime":23.990107,"instrument":2,"program":32},{"pitch":40,"velocity":103,"startTime":24.236411999999998,"endTime":24.581239,"instrument":2,"program":32},{"pitch":43,"velocity":103,"startTime":24.531978,"endTime":24.827544,"instrument":2,"program":32},{"pitch":38,"velocity":103,"startTime":24.827544,"endTime":25.0492185,"instrument":2,"program":32},{"pitch":26,"velocity":103,"startTime":25.0492185,"endTime":25.123109999999997,"instrument":2,"program":32},{"pitch":38,"velocity":103,"startTime":25.123109999999997,"endTime":25.418675999999998,"instrument":2,"program":32},{"pitch":38,"velocity":103,"startTime":25.418675999999998,"endTime":25.714242,"instrument":2,"program":32},{"pitch":31,"velocity":103,"startTime":25.714242,"endTime":26.009808,"instrument":2,"program":32},{"pitch":31,"velocity":103,"startTime":26.009808,"endTime":26.182221499999997,"instrument":2,"program":32},{"pitch":31,"velocity":103,"startTime":26.2314825,"endTime":26.305373999999997,"instrument":2,"program":32},{"pitch":35,"velocity":103,"startTime":26.305373999999997,"endTime":26.600939999999998,"instrument":2,"program":32},{"pitch":35,"velocity":103,"startTime":26.600939999999998,"endTime":26.896506,"instrument":2,"program":32},{"pitch":38,"velocity":103,"startTime":26.896506,"endTime":27.192072,"instrument":2,"program":32},{"pitch":31,"velocity":103,"startTime":27.192072,"endTime":27.536899,"instrument":2,"program":32},{"pitch":38,"velocity":103,"startTime":27.487637999999997,"endTime":27.783203999999998,"instrument":2,"program":32},{"pitch":38,"velocity":103,"startTime":27.783203999999998,"endTime":28.07877,"instrument":2,"program":32},{"pitch":31,"velocity":103,"startTime":28.07877,"endTime":28.374336,"instrument":2,"program":32},{"pitch":43,"velocity":57,"startTime":28.398966499999997,"endTime":28.620641},{"pitch":62,"velocity":57,"startTime":28.398966499999997,"endTime":28.6452715},{"pitch":67,"velocity":57,"startTime":28.398966499999997,"endTime":28.6452715},{"pitch":43,"velocity":57,"startTime":28.669901999999997,"endTime":28.916206999999996},{"pitch":62,"velocity":57,"startTime":28.669901999999997,"endTime":28.940837499999997},{"pitch":67,"velocity":57,"startTime":28.669901999999997,"endTime":28.916206999999996},{"pitch":43,"velocity":57,"startTime":29.187142499999997,"endTime":29.261034},{"pitch":64,"velocity":57,"startTime":29.2856645,"endTime":29.3841865},{"pitch":67,"velocity":57,"startTime":29.2856645,"endTime":29.3841865},{"pitch":43,"velocity":57,"startTime":29.7782745,"endTime":29.901426999999998},{"pitch":50,"velocity":57,"startTime":29.876796499999998,"endTime":29.901426999999998},{"pitch":57,"velocity":57,"startTime":29.876796499999998,"endTime":29.901426999999998},{"pitch":64,"velocity":57,"startTime":29.876796499999998,"endTime":29.9260575},{"pitch":67,"velocity":57,"startTime":29.876796499999998,"endTime":29.9260575},{"pitch":57,"velocity":57,"startTime":30.369406499999997,"endTime":30.418667499999998},{"pitch":64,"velocity":57,"startTime":30.369406499999997,"endTime":30.418667499999998},{"pitch":67,"velocity":57,"startTime":30.369406499999997,"endTime":30.418667499999998},{"pitch":50,"velocity":57,"startTime":30.394036999999997,"endTime":30.418667499999998},{"pitch":40,"velocity":57,"startTime":30.738864,"endTime":30.788124999999997},{"pitch":52,"velocity":57,"startTime":30.763494499999997,"endTime":30.812755499999998},{"pitch":56,"velocity":57,"startTime":30.763494499999997,"endTime":30.812755499999998},{"pitch":62,"velocity":57,"startTime":30.763494499999997,"endTime":30.812755499999998},{"pitch":40,"velocity":57,"startTime":31.2561045,"endTime":31.379257},{"pitch":50,"velocity":57,"startTime":31.3546265,"endTime":31.453148499999998},{"pitch":55,"velocity":57,"startTime":31.3546265,"endTime":31.428517999999997},{"pitch":59,"velocity":57,"startTime":31.3546265,"endTime":31.403887499999996},{"pitch":66,"velocity":57,"startTime":31.3546265,"endTime":31.428517999999997},{"pitch":40,"velocity":57,"startTime":31.921128,"endTime":32.01965},{"pitch":55,"velocity":57,"startTime":31.921128,"endTime":32.01965},{"pitch":59,"velocity":57,"startTime":31.921128,"endTime":31.995019499999998},{"pitch":64,"velocity":57,"startTime":31.921128,"endTime":32.01965},{"pitch":40,"velocity":57,"startTime":32.438368499999996,"endTime":32.561521},{"pitch":54,"velocity":57,"startTime":32.51226,"endTime":32.5861515},{"pitch":59,"velocity":57,"startTime":32.5368905,"endTime":32.5861515},{"pitch":62,"velocity":57,"startTime":33.103392,"endTime":33.152653},{"pitch":48,"velocity":57,"startTime":33.1280225,"endTime":33.177283499999994},{"pitch":55,"velocity":57,"startTime":33.1280225,"endTime":33.177283499999994},{"pitch":43,"velocity":57,"startTime":33.6206325,"endTime":33.6698935},{"pitch":62,"velocity":57,"startTime":33.694523999999994,"endTime":33.719154499999995},{"pitch":55,"velocity":57,"startTime":33.719154499999995,"endTime":33.793046},{"pitch":50,"velocity":57,"startTime":34.507330499999995,"endTime":34.556591499999996},{"pitch":57,"velocity":57,"startTime":34.581222,"endTime":34.630483},{"pitch":50,"velocity":57,"startTime":34.6058525,"endTime":34.630483},{"pitch":62,"velocity":57,"startTime":34.6058525,"endTime":34.6551135},{"pitch":50,"velocity":57,"startTime":35.0984625,"endTime":35.1477235},{"pitch":57,"velocity":57,"startTime":35.0984625,"endTime":35.123093},{"pitch":62,"velocity":57,"startTime":35.0984625,"endTime":35.1477235},{"pitch":43,"velocity":57,"startTime":35.6895945,"endTime":35.763486},{"pitch":57,"velocity":57,"startTime":35.7881165,"endTime":35.8866385},{"pitch":59,"velocity":57,"startTime":35.7881165,"endTime":35.862007999999996},{"pitch":62,"velocity":57,"startTime":35.7881165,"endTime":35.8866385},{"pitch":43,"velocity":57,"startTime":35.9851605,"endTime":36.059051999999994},{"pitch":43,"velocity":57,"startTime":36.108312999999995,"endTime":36.1822045},{"pitch":57,"velocity":57,"startTime":36.2807265,"endTime":36.329987499999994},{"pitch":59,"velocity":57,"startTime":36.2807265,"endTime":36.329987499999994},{"pitch":62,"velocity":57,"startTime":36.2807265,"endTime":36.329987499999994},{"pitch":43,"velocity":57,"startTime":36.5762925,"endTime":36.650183999999996},{"pitch":57,"velocity":57,"startTime":36.6748145,"endTime":36.748706},{"pitch":60,"velocity":57,"startTime":36.6748145,"endTime":36.7240755},{"pitch":64,"velocity":57,"startTime":36.6748145,"endTime":36.748706},{"pitch":67,"velocity":57,"startTime":36.6748145,"endTime":36.748706},{"pitch":43,"velocity":57,"startTime":37.167424499999996,"endTime":37.241316},{"pitch":57,"velocity":57,"startTime":37.167424499999996,"endTime":37.241316},{"pitch":60,"velocity":57,"startTime":37.167424499999996,"endTime":37.241316},{"pitch":67,"velocity":57,"startTime":37.167424499999996,"endTime":37.2659465},{"pitch":35,"velocity":80,"startTime":28.374336,"endTime":28.398966499999997,"instrument":1,"isDrum":true},{"pitch":44,"velocity":80,"startTime":28.374336,"endTime":28.398966499999997,"instrument":1,"isDrum":true},{"pitch":51,"velocity":80,"startTime":28.374336,"endTime":28.398966499999997,"instrument":1,"isDrum":true},{"pitch":53,"velocity":80,"startTime":28.374336,"endTime":28.398966499999997,"instrument":1,"isDrum":true},{"pitch":56,"velocity":80,"startTime":28.374336,"endTime":28.398966499999997,"instrument":1,"isDrum":true},{"pitch":35,"velocity":80,"startTime":28.571379999999998,"endTime":28.6452715,"instrument":1,"isDrum":true},{"pitch":53,"velocity":80,"startTime":28.571379999999998,"endTime":28.6452715,"instrument":1,"isDrum":true},{"pitch":35,"velocity":80,"startTime":28.669901999999997,"endTime":28.694532499999998,"instrument":1,"isDrum":true},{"pitch":44,"velocity":80,"startTime":28.669901999999997,"endTime":28.694532499999998,"instrument":1,"isDrum":true},{"pitch":51,"velocity":80,"startTime":28.669901999999997,"endTime":28.694532499999998,"instrument":1,"isDrum":true},{"pitch":53,"velocity":80,"startTime":28.669901999999997,"endTime":28.694532499999998,"instrument":1,"isDrum":true},{"pitch":56,"velocity":80,"startTime":28.669901999999997,"endTime":28.694532499999998,"instrument":1,"isDrum":true},{"pitch":35,"velocity":80,"startTime":28.866946,"endTime":28.940837499999997,"instrument":1,"isDrum":true},{"pitch":38,"velocity":80,"startTime":28.866946,"endTime":28.940837499999997,"instrument":1,"isDrum":true},{"pitch":51,"velocity":80,"startTime":28.866946,"endTime":28.940837499999997,"instrument":1,"isDrum":true},{"pitch":53,"velocity":80,"startTime":28.866946,"endTime":28.940837499999997,"instrument":1,"isDrum":true},{"pitch":35,"velocity":80,"startTime":28.965467999999998,"endTime":28.9900985,"instrument":1,"isDrum":true},{"pitch":44,"velocity":80,"startTime":28.965467999999998,"endTime":28.9900985,"instrument":1,"isDrum":true},{"pitch":51,"velocity":80,"startTime":28.965467999999998,"endTime":28.9900985,"instrument":1,"isDrum":true},{"pitch":56,"velocity":80,"startTime":28.965467999999998,"endTime":28.9900985,"instrument":1,"isDrum":true},{"pitch":35,"velocity":80,"startTime":29.162512,"endTime":29.236403499999998,"instrument":1,"isDrum":true},{"pitch":38,"velocity":80,"startTime":29.162512,"endTime":29.236403499999998,"instrument":1,"isDrum":true},{"pitch":51,"velocity":80,"startTime":29.162512,"endTime":29.236403499999998,"instrument":1,"isDrum":true},{"pitch":35,"velocity":80,"startTime":29.261034,"endTime":29.2856645,"instrument":1,"isDrum":true},{"pitch":44,"velocity":80,"startTime":29.261034,"endTime":29.2856645,"instrument":1,"isDrum":true},{"pitch":51,"velocity":80,"startTime":29.261034,"endTime":29.2856645,"instrument":1,"isDrum":true},{"pitch":53,"velocity":80,"startTime":29.261034,"endTime":29.2856645,"instrument":1,"isDrum":true},{"pitch":56,"velocity":80,"startTime":29.261034,"endTime":29.2856645,"instrument":1,"isDrum":true},{"pitch":35,"velocity":80,"startTime":29.458077999999997,"endTime":29.5319695,"instrument":1,"isDrum":true},{"pitch":38,"velocity":80,"startTime":29.458077999999997,"endTime":29.5319695,"instrument":1,"isDrum":true},{"pitch":51,"velocity":80,"startTime":29.458077999999997,"endTime":29.5319695,"instrument":1,"isDrum":true},{"pitch":35,"velocity":80,"startTime":29.5566,"endTime":29.605860999999997,"instrument":1,"isDrum":true},{"pitch":44,"velocity":80,"startTime":29.5566,"endTime":29.605860999999997,"instrument":1,"isDrum":true},{"pitch":51,"velocity":80,"startTime":29.5566,"endTime":29.605860999999997,"instrument":1,"isDrum":true},{"pitch":53,"velocity":80,"startTime":29.5566,"endTime":29.605860999999997,"instrument":1,"isDrum":true},{"pitch":56,"velocity":80,"startTime":29.5566,"endTime":29.605860999999997,"instrument":1,"isDrum":true},{"pitch":51,"velocity":80,"startTime":29.753643999999998,"endTime":29.827535499999996,"instrument":1,"isDrum":true},{"pitch":35,"velocity":80,"startTime":29.852165999999997,"endTime":29.901426999999998,"instrument":1,"isDrum":true},{"pitch":44,"velocity":80,"startTime":29.852165999999997,"endTime":29.901426999999998,"instrument":1,"isDrum":true},{"pitch":51,"velocity":80,"startTime":29.852165999999997,"endTime":29.901426999999998,"instrument":1,"isDrum":true},{"pitch":53,"velocity":80,"startTime":29.852165999999997,"endTime":29.901426999999998,"instrument":1,"isDrum":true},{"pitch":56,"velocity":80,"startTime":29.852165999999997,"endTime":29.901426999999998,"instrument":1,"isDrum":true},{"pitch":51,"velocity":80,"startTime":30.04921,"endTime":30.123101499999997,"instrument":1,"isDrum":true},{"pitch":35,"velocity":80,"startTime":30.147731999999998,"endTime":30.196993,"instrument":1,"isDrum":true},{"pitch":44,"velocity":80,"startTime":30.147731999999998,"endTime":30.196993,"instrument":1,"isDrum":true},{"pitch":51,"velocity":80,"startTime":30.147731999999998,"endTime":30.196993,"instrument":1,"isDrum":true},{"pitch":56,"velocity":80,"startTime":30.147731999999998,"endTime":30.196993,"instrument":1,"isDrum":true},{"pitch":51,"velocity":80,"startTime":30.344776,"endTime":30.418667499999998,"instrument":1,"isDrum":true},{"pitch":35,"velocity":80,"startTime":30.443298,"endTime":30.492558999999996,"instrument":1,"isDrum":true},{"pitch":44,"velocity":80,"startTime":30.443298,"endTime":30.492558999999996,"instrument":1,"isDrum":true},{"pitch":51,"velocity":80,"startTime":30.443298,"endTime":30.492558999999996,"instrument":1,"isDrum":true},{"pitch":56,"velocity":80,"startTime":30.443298,"endTime":30.492558999999996,"instrument":1,"isDrum":true},{"pitch":51,"velocity":80,"startTime":30.640341999999997,"endTime":30.7142335,"instrument":1,"isDrum":true},{"pitch":35,"velocity":80,"startTime":30.738864,"endTime":30.788124999999997,"instrument":1,"isDrum":true},{"pitch":44,"velocity":80,"startTime":30.738864,"endTime":30.788124999999997,"instrument":1,"isDrum":true},{"pitch":51,"velocity":80,"startTime":30.738864,"endTime":30.788124999999997,"instrument":1,"isDrum":true},{"pitch":53,"velocity":80,"startTime":30.738864,"endTime":30.788124999999997,"instrument":1,"isDrum":true},{"pitch":51,"velocity":80,"startTime":30.935907999999998,"endTime":31.009799499999996,"instrument":1,"isDrum":true},{"pitch":35,"velocity":80,"startTime":31.034429999999997,"endTime":31.083690999999998,"instrument":1,"isDrum":true},{"pitch":44,"velocity":80,"startTime":31.034429999999997,"endTime":31.083690999999998,"instrument":1,"isDrum":true},{"pitch":51,"velocity":80,"startTime":31.034429999999997,"endTime":31.083690999999998,"instrument":1,"isDrum":true},{"pitch":56,"velocity":80,"startTime":31.034429999999997,"endTime":31.083690999999998,"instrument":1,"isDrum":true},{"pitch":51,"velocity":80,"startTime":31.231474,"endTime":31.305365499999997,"instrument":1,"isDrum":true},{"pitch":35,"velocity":80,"startTime":31.329995999999998,"endTime":31.379257,"instrument":1,"isDrum":true},{"pitch":44,"velocity":80,"startTime":31.329995999999998,"endTime":31.379257,"instrument":1,"isDrum":true},{"pitch":51,"velocity":80,"startTime":31.329995999999998,"endTime":31.379257,"instrument":1,"isDrum":true},{"pitch":53,"velocity":80,"startTime":31.329995999999998,"endTime":31.379257,"instrument":1,"isDrum":true},{"pitch":56,"velocity":80,"startTime":31.329995999999998,"endTime":31.379257,"instrument":1,"isDrum":true},{"pitch":51,"velocity":80,"startTime":31.52704,"endTime":31.600931499999998,"instrument":1,"isDrum":true},{"pitch":35,"velocity":80,"startTime":31.625562,"endTime":31.674822999999996,"instrument":1,"isDrum":true},{"pitch":44,"velocity":80,"startTime":31.625562,"endTime":31.674822999999996,"instrument":1,"isDrum":true},{"pitch":51,"velocity":80,"startTime":31.625562,"endTime":31.674822999999996,"instrument":1,"isDrum":true},{"pitch":53,"velocity":80,"startTime":31.625562,"endTime":31.674822999999996,"instrument":1,"isDrum":true},{"pitch":56,"velocity":80,"startTime":31.625562,"endTime":31.674822999999996,"instrument":1,"isDrum":true},{"pitch":51,"velocity":80,"startTime":31.822605999999997,"endTime":31.8964975,"instrument":1,"isDrum":true},{"pitch":35,"velocity":80,"startTime":31.921128,"endTime":31.970388999999997,"instrument":1,"isDrum":true},{"pitch":44,"velocity":80,"startTime":31.921128,"endTime":31.970388999999997,"instrument":1,"isDrum":true},{"pitch":51,"velocity":80,"startTime":31.921128,"endTime":31.970388999999997,"instrument":1,"isDrum":true},{"pitch":53,"velocity":80,"startTime":31.921128,"endTime":31.970388999999997,"instrument":1,"isDrum":true},{"pitch":51,"velocity":80,"startTime":32.118172,"endTime":32.192063499999996,"instrument":1,"isDrum":true},{"pitch":35,"velocity":80,"startTime":32.216694,"endTime":32.265955,"instrument":1,"isDrum":true},{"pitch":44,"velocity":80,"startTime":32.216694,"endTime":32.265955,"instrument":1,"isDrum":true},{"pitch":51,"velocity":80,"startTime":32.216694,"endTime":32.265955,"instrument":1,"isDrum":true},{"pitch":56,"velocity":80,"startTime":32.216694,"endTime":32.265955,"instrument":1,"isDrum":true},{"pitch":53,"velocity":80,"startTime":32.216694,"endTime":32.265955,"instrument":1,"isDrum":true},{"pitch":51,"velocity":80,"startTime":32.413737999999995,"endTime":32.4876295,"instrument":1,"isDrum":true},{"pitch":35,"velocity":80,"startTime":32.51226,"endTime":32.561521,"instrument":1,"isDrum":true},{"pitch":44,"velocity":80,"startTime":32.51226,"endTime":32.561521,"instrument":1,"isDrum":true},{"pitch":51,"velocity":80,"startTime":32.51226,"endTime":32.561521,"instrument":1,"isDrum":true},{"pitch":53,"velocity":80,"startTime":32.51226,"endTime":32.561521,"instrument":1,"isDrum":true},{"pitch":51,"velocity":80,"startTime":32.709303999999996,"endTime":32.7831955,"instrument":1,"isDrum":true},{"pitch":35,"velocity":80,"startTime":32.807826,"endTime":32.857087,"instrument":1,"isDrum":true},{"pitch":44,"velocity":80,"startTime":32.807826,"endTime":32.857087,"instrument":1,"isDrum":true},{"pitch":51,"velocity":80,"startTime":32.807826,"endTime":32.857087,"instrument":1,"isDrum":true},{"pitch":56,"velocity":80,"startTime":32.807826,"endTime":32.857087,"instrument":1,"isDrum":true},{"pitch":51,"velocity":80,"startTime":33.00487,"endTime":33.0787615,"instrument":1,"isDrum":true},{"pitch":35,"velocity":80,"startTime":33.103392,"endTime":33.152653,"instrument":1,"isDrum":true},{"pitch":44,"velocity":80,"startTime":33.103392,"endTime":33.152653,"instrument":1,"isDrum":true},{"pitch":51,"velocity":80,"startTime":33.103392,"endTime":33.152653,"instrument":1,"isDrum":true},{"pitch":53,"velocity":80,"startTime":33.103392,"endTime":33.152653,"instrument":1,"isDrum":true},{"pitch":51,"velocity":80,"startTime":33.300436,"endTime":33.3743275,"instrument":1,"isDrum":true},{"pitch":35,"velocity":80,"startTime":33.398958,"endTime":33.448218999999995,"instrument":1,"isDrum":true},{"pitch":38,"velocity":80,"startTime":33.398958,"endTime":33.448218999999995,"instrument":1,"isDrum":true},{"pitch":44,"velocity":80,"startTime":33.398958,"endTime":33.448218999999995,"instrument":1,"isDrum":true},{"pitch":51,"velocity":80,"startTime":33.398958,"endTime":33.448218999999995,"instrument":1,"isDrum":true},{"pitch":53,"velocity":80,"startTime":33.398958,"endTime":33.448218999999995,"instrument":1,"isDrum":true},{"pitch":56,"velocity":80,"startTime":33.398958,"endTime":33.448218999999995,"instrument":1,"isDrum":true},{"pitch":35,"velocity":80,"startTime":33.596002,"endTime":33.6698935,"instrument":1,"isDrum":true},{"pitch":51,"velocity":80,"startTime":33.596002,"endTime":33.6698935,"instrument":1,"isDrum":true},{"pitch":35,"velocity":80,"startTime":33.694523999999994,"endTime":33.743784999999995,"instrument":1,"isDrum":true},{"pitch":44,"velocity":80,"startTime":33.694523999999994,"endTime":33.743784999999995,"instrument":1,"isDrum":true},{"pitch":51,"velocity":80,"startTime":33.694523999999994,"endTime":33.743784999999995,"instrument":1,"isDrum":true},{"pitch":53,"velocity":80,"startTime":33.694523999999994,"endTime":33.743784999999995,"instrument":1,"isDrum":true},{"pitch":56,"velocity":80,"startTime":33.694523999999994,"endTime":33.743784999999995,"instrument":1,"isDrum":true},{"pitch":51,"velocity":80,"startTime":33.793046,"endTime":33.8669375,"instrument":1,"isDrum":true},{"pitch":51,"velocity":80,"startTime":33.891568,"endTime":33.965459499999994,"instrument":1,"isDrum":true},{"pitch":35,"velocity":80,"startTime":33.990089999999995,"endTime":34.039350999999996,"instrument":1,"isDrum":true},{"pitch":44,"velocity":80,"startTime":33.990089999999995,"endTime":34.039350999999996,"instrument":1,"isDrum":true},{"pitch":51,"velocity":80,"startTime":33.990089999999995,"endTime":34.039350999999996,"instrument":1,"isDrum":true},{"pitch":53,"velocity":80,"startTime":33.990089999999995,"endTime":34.039350999999996,"instrument":1,"isDrum":true},{"pitch":56,"velocity":80,"startTime":33.990089999999995,"endTime":34.039350999999996,"instrument":1,"isDrum":true},{"pitch":51,"velocity":80,"startTime":34.187134,"endTime":34.261025499999995,"instrument":1,"isDrum":true},{"pitch":35,"velocity":80,"startTime":34.285655999999996,"endTime":34.334917,"instrument":1,"isDrum":true},{"pitch":44,"velocity":80,"startTime":34.285655999999996,"endTime":34.334917,"instrument":1,"isDrum":true},{"pitch":51,"velocity":80,"startTime":34.285655999999996,"endTime":34.334917,"instrument":1,"isDrum":true},{"pitch":53,"velocity":80,"startTime":34.285655999999996,"endTime":34.334917,"instrument":1,"isDrum":true},{"pitch":51,"velocity":80,"startTime":34.482699999999994,"endTime":34.556591499999996,"instrument":1,"isDrum":true},{"pitch":35,"velocity":80,"startTime":34.581222,"endTime":34.630483,"instrument":1,"isDrum":true},{"pitch":44,"velocity":80,"startTime":34.581222,"endTime":34.630483,"instrument":1,"isDrum":true},{"pitch":51,"velocity":80,"startTime":34.581222,"endTime":34.630483,"instrument":1,"isDrum":true},{"pitch":53,"velocity":80,"startTime":34.581222,"endTime":34.630483,"instrument":1,"isDrum":true},{"pitch":56,"velocity":80,"startTime":34.581222,"endTime":34.630483,"instrument":1,"isDrum":true},{"pitch":51,"velocity":80,"startTime":34.778265999999995,"endTime":34.8521575,"instrument":1,"isDrum":true},{"pitch":35,"velocity":80,"startTime":34.876788,"endTime":34.926049,"instrument":1,"isDrum":true},{"pitch":44,"velocity":80,"startTime":34.876788,"endTime":34.926049,"instrument":1,"isDrum":true},{"pitch":51,"velocity":80,"startTime":34.876788,"endTime":34.926049,"instrument":1,"isDrum":true},{"pitch":53,"velocity":80,"startTime":34.876788,"endTime":34.926049,"instrument":1,"isDrum":true},{"pitch":38,"velocity":80,"startTime":35.073831999999996,"endTime":35.1477235,"instrument":1,"isDrum":true},{"pitch":51,"velocity":80,"startTime":35.073831999999996,"endTime":35.1477235,"instrument":1,"isDrum":true},{"pitch":35,"velocity":80,"startTime":35.172354,"endTime":35.221615,"instrument":1,"isDrum":true},{"pitch":44,"velocity":80,"startTime":35.172354,"endTime":35.221615,"instrument":1,"isDrum":true},{"pitch":51,"velocity":80,"startTime":35.172354,"endTime":35.221615,"instrument":1,"isDrum":true},{"pitch":53,"velocity":80,"startTime":35.172354,"endTime":35.221615,"instrument":1,"isDrum":true},{"pitch":56,"velocity":80,"startTime":35.172354,"endTime":35.221615,"instrument":1,"isDrum":true},{"pitch":38,"velocity":80,"startTime":35.369398,"endTime":35.4432895,"instrument":1,"isDrum":true},{"pitch":51,"velocity":80,"startTime":35.369398,"endTime":35.4432895,"instrument":1,"isDrum":true},{"pitch":31,"velocity":103,"startTime":28.374336,"endTime":28.719162999999998,"instrument":2,"program":32},{"pitch":38,"velocity":103,"startTime":28.669901999999997,"endTime":28.9900985,"instrument":2,"program":32},{"pitch":43,"velocity":103,"startTime":28.965467999999998,"endTime":29.2856645,"instrument":2,"program":32},{"pitch":35,"velocity":103,"startTime":29.261034,"endTime":29.5566,"instrument":2,"program":32},{"pitch":31,"velocity":103,"startTime":29.5566,"endTime":29.7782745,"instrument":2,"program":32},{"pitch":31,"velocity":103,"startTime":29.7782745,"endTime":29.852165999999997,"instrument":2,"program":32},{"pitch":38,"velocity":103,"startTime":29.852165999999997,"endTime":30.147731999999998,"instrument":2,"program":32},{"pitch":38,"velocity":103,"startTime":30.147731999999998,"endTime":30.443298,"instrument":2,"program":32},{"pitch":31,"velocity":103,"startTime":30.443298,"endTime":30.664972499999998,"instrument":2,"program":32},{"pitch":31,"velocity":103,"startTime":30.664972499999998,"endTime":30.738864,"instrument":2,"program":32},{"pitch":28,"velocity":103,"startTime":30.738864,"endTime":31.034429999999997,"instrument":2,"program":32},{"pitch":30,"velocity":103,"startTime":31.034429999999997,"endTime":31.329995999999998,"instrument":2,"program":32},{"pitch":28,"velocity":103,"startTime":31.329995999999998,"endTime":31.625562,"instrument":2,"program":32},{"pitch":35,"velocity":103,"startTime":31.625562,"endTime":31.921128,"instrument":2,"program":32},{"pitch":28,"velocity":103,"startTime":31.921128,"endTime":32.265955,"instrument":2,"program":32},{"pitch":35,"velocity":103,"startTime":32.216694,"endTime":33.103392,"instrument":2,"program":32},{"pitch":35,"velocity":103,"startTime":32.51226,"endTime":32.5368905,"instrument":2,"program":32},{"pitch":35,"velocity":103,"startTime":32.807826,"endTime":32.857087,"instrument":2,"program":32},{"pitch":36,"velocity":103,"startTime":33.103392,"endTime":33.3250665,"instrument":2,"program":32},{"pitch":24,"velocity":103,"startTime":33.3250665,"endTime":33.398958,"instrument":2,"program":32},{"pitch":40,"velocity":103,"startTime":33.398958,"endTime":33.694523999999994,"instrument":2,"program":32},{"pitch":40,"velocity":103,"startTime":33.694523999999994,"endTime":33.990089999999995,"instrument":2,"program":32},{"pitch":36,"velocity":103,"startTime":33.990089999999995,"endTime":34.285655999999996,"instrument":2,"program":32},{"pitch":38,"velocity":103,"startTime":34.285655999999996,"endTime":34.556591499999996,"instrument":2,"program":32},{"pitch":33,"velocity":103,"startTime":34.507330499999995,"endTime":34.581222,"instrument":2,"program":32},{"pitch":42,"velocity":103,"startTime":34.581222,"endTime":34.876788,"instrument":2,"program":32},{"pitch":45,"velocity":103,"startTime":34.876788,"endTime":35.172354,"instrument":2,"program":32},{"pitch":40,"velocity":103,"startTime":35.172354,"endTime":35.46792,"instrument":2,"program":32},{"pitch":43,"velocity":103,"startTime":35.46792,"endTime":35.6895945,"instrument":2,"program":32},{"pitch":31,"velocity":103,"startTime":35.6895945,"endTime":35.7388555,"instrument":2,"program":32},{"pitch":45,"velocity":103,"startTime":35.763486,"endTime":36.059051999999994,"instrument":2,"program":32},{"pitch":47,"velocity":103,"startTime":36.059051999999994,"endTime":36.354617999999995,"instrument":2,"program":32},{"pitch":43,"velocity":103,"startTime":36.354617999999995,"endTime":36.5762925,"instrument":2,"program":32},{"pitch":31,"velocity":103,"startTime":36.5762925,"endTime":36.625553499999995,"instrument":2,"program":32},{"pitch":31,"velocity":103,"startTime":36.650183999999996,"endTime":36.871858499999995,"instrument":2,"program":32},{"pitch":31,"velocity":103,"startTime":36.871858499999995,"endTime":36.921119499999996,"instrument":2,"program":32},{"pitch":33,"velocity":103,"startTime":36.94575,"endTime":37.241316,"instrument":2,"program":32},{"pitch":38,"velocity":103,"startTime":37.241316,"endTime":37.536882,"instrument":2,"program":32},{"pitch":35,"velocity":103,"startTime":37.536882,"endTime":37.832448,"instrument":2,"program":32},{"pitch":43,"velocity":57,"startTime":37.832448,"endTime":37.906339499999994},{"pitch":55,"velocity":57,"startTime":37.8570785,"endTime":37.906339499999994},{"pitch":59,"velocity":57,"startTime":37.8570785,"endTime":37.93097},{"pitch":64,"velocity":57,"startTime":37.8570785,"endTime":37.93097},{"pitch":43,"velocity":57,"startTime":38.3496885,"endTime":38.54673249999999},{"pitch":55,"velocity":57,"startTime":38.3496885,"endTime":38.522102000000004},{"pitch":59,"velocity":57,"startTime":38.3496885,"endTime":38.522102000000004},{"pitch":64,"velocity":57,"startTime":38.3496885,"endTime":38.522102000000004},{"pitch":55,"velocity":57,"startTime":39.014711999999996,"endTime":39.113234},{"pitch":59,"velocity":57,"startTime":39.014711999999996,"endTime":39.0886035},{"pitch":43,"velocity":57,"startTime":39.039342500000004,"endTime":39.0886035},{"pitch":64,"velocity":57,"startTime":39.039342500000004,"endTime":39.0886035},{"pitch":43,"velocity":57,"startTime":39.531952499999996,"endTime":39.605844},{"pitch":59,"velocity":57,"startTime":39.531952499999996,"endTime":39.6304745},{"pitch":64,"velocity":57,"startTime":39.531952499999996,"endTime":39.6304745},{"pitch":69,"velocity":57,"startTime":39.531952499999996,"endTime":39.6304745},{"pitch":57,"velocity":57,"startTime":40.1230845,"endTime":40.196976},{"pitch":64,"velocity":57,"startTime":40.1230845,"endTime":40.196976},{"pitch":71,"velocity":57,"startTime":40.1230845,"endTime":40.196976},{"pitch":45,"velocity":57,"startTime":40.147715000000005,"endTime":40.196976},{"pitch":40,"velocity":57,"startTime":40.492542,"endTime":40.566433499999995},{"pitch":56,"velocity":57,"startTime":40.492542,"endTime":40.566433499999995},{"pitch":62,"velocity":57,"startTime":40.492542,"endTime":40.591063999999996},{"pitch":66,"velocity":57,"startTime":40.492542,"endTime":40.566433499999995},{"pitch":40,"velocity":57,"startTime":41.0097825,"endTime":41.108304499999996},{"pitch":55,"velocity":57,"startTime":41.0097825,"endTime":41.1575655},{"pitch":64,"velocity":57,"startTime":41.0097825,"endTime":41.083673999999995},{"pitch":40,"velocity":57,"startTime":41.379239999999996,"endTime":41.4531315},{"pitch":55,"velocity":57,"startTime":41.379239999999996,"endTime":41.4531315},{"pitch":59,"velocity":57,"startTime":41.4038705,"endTime":41.4531315},{"pitch":62,"velocity":57,"startTime":41.4038705,"endTime":41.4531315},{"pitch":55,"velocity":57,"startTime":41.896480499999996,"endTime":41.9950025},{"pitch":59,"velocity":57,"startTime":41.896480499999996,"endTime":41.9950025},{"pitch":64,"velocity":57,"startTime":41.896480499999996,"endTime":41.970372},{"pitch":62,"velocity":57,"startTime":41.921110999999996,"endTime":41.9950025},{"pitch":60,"velocity":57,"startTime":43.0787445,"endTime":43.103375},{"pitch":64,"velocity":57,"startTime":43.0787445,"endTime":43.103375},{"pitch":67,"velocity":57,"startTime":43.0787445,"endTime":43.1280055},{"pitch":60,"velocity":57,"startTime":43.743767999999996,"endTime":43.84229},{"pitch":64,"velocity":57,"startTime":43.743767999999996,"endTime":43.84229},{"pitch":67,"velocity":57,"startTime":43.743767999999996,"endTime":43.84229},{"pitch":69,"velocity":57,"startTime":43.743767999999996,"endTime":43.84229},{"pitch":62,"velocity":57,"startTime":44.8521405,"endTime":44.999923499999994},{"pitch":67,"velocity":57,"startTime":44.8521405,"endTime":44.999923499999994},{"pitch":69,"velocity":57,"startTime":44.8521405,"endTime":44.999923499999994},{"pitch":76,"velocity":57,"startTime":44.8521405,"endTime":44.999923499999994},{"pitch":57,"velocity":57,"startTime":45.4432725,"endTime":45.517163999999994},{"pitch":62,"velocity":57,"startTime":45.4432725,"endTime":45.517163999999994},{"pitch":69,"velocity":57,"startTime":45.4432725,"endTime":45.517163999999994},{"pitch":67,"velocity":57,"startTime":45.467903,"endTime":45.517163999999994},{"pitch":57,"velocity":57,"startTime":46.108295999999996,"endTime":46.206818},{"pitch":62,"velocity":57,"startTime":46.132926499999996,"endTime":46.206818},{"pitch":67,"velocity":57,"startTime":46.132926499999996,"endTime":46.206818},{"pitch":57,"velocity":57,"startTime":46.625536499999995,"endTime":46.699428},{"pitch":62,"velocity":57,"startTime":46.625536499999995,"endTime":46.699428},{"pitch":67,"velocity":57,"startTime":46.625536499999995,"endTime":46.699428},{"pitch":35,"velocity":80,"startTime":37.832448,"endTime":37.8570785,"instrument":1,"isDrum":true},{"pitch":44,"velocity":80,"startTime":37.832448,"endTime":37.8570785,"instrument":1,"isDrum":true},{"pitch":51,"velocity":80,"startTime":37.832448,"endTime":37.8570785,"instrument":1,"isDrum":true},{"pitch":35,"velocity":80,"startTime":38.02949199999999,"endTime":38.0541225,"instrument":1,"isDrum":true},{"pitch":51,"velocity":80,"startTime":38.02949199999999,"endTime":38.0541225,"instrument":1,"isDrum":true},{"pitch":53,"velocity":80,"startTime":38.02949199999999,"endTime":38.0541225,"instrument":1,"isDrum":true},{"pitch":38,"velocity":80,"startTime":38.128014,"endTime":38.177274999999995,"instrument":1,"isDrum":true},{"pitch":44,"velocity":80,"startTime":38.128014,"endTime":38.1526445,"instrument":1,"isDrum":true},{"pitch":51,"velocity":80,"startTime":38.128014,"endTime":38.177274999999995,"instrument":1,"isDrum":true},{"pitch":35,"velocity":80,"startTime":38.423579999999994,"endTime":38.4482105,"instrument":1,"isDrum":true},{"pitch":44,"velocity":80,"startTime":38.423579999999994,"endTime":38.4482105,"instrument":1,"isDrum":true},{"pitch":51,"velocity":80,"startTime":38.423579999999994,"endTime":38.4482105,"instrument":1,"isDrum":true},{"pitch":35,"velocity":80,"startTime":38.62062399999999,"endTime":38.6452545,"instrument":1,"isDrum":true},{"pitch":51,"velocity":80,"startTime":38.62062399999999,"endTime":38.6452545,"instrument":1,"isDrum":true},{"pitch":53,"velocity":80,"startTime":38.62062399999999,"endTime":38.6452545,"instrument":1,"isDrum":true},{"pitch":38,"velocity":80,"startTime":38.719145999999995,"endTime":38.7437765,"instrument":1,"isDrum":true},{"pitch":44,"velocity":80,"startTime":38.719145999999995,"endTime":38.7437765,"instrument":1,"isDrum":true},{"pitch":51,"velocity":80,"startTime":38.719145999999995,"endTime":38.7437765,"instrument":1,"isDrum":true},{"pitch":53,"velocity":80,"startTime":38.719145999999995,"endTime":38.7437765,"instrument":1,"isDrum":true},{"pitch":35,"velocity":80,"startTime":38.91618999999999,"endTime":38.940820499999994,"instrument":1,"isDrum":true},{"pitch":51,"velocity":80,"startTime":38.91618999999999,"endTime":38.940820499999994,"instrument":1,"isDrum":true},{"pitch":35,"velocity":80,"startTime":39.014711999999996,"endTime":39.039342500000004,"instrument":1,"isDrum":true},{"pitch":44,"velocity":80,"startTime":39.014711999999996,"endTime":39.039342500000004,"instrument":1,"isDrum":true},{"pitch":51,"velocity":80,"startTime":39.014711999999996,"endTime":39.039342500000004,"instrument":1,"isDrum":true},{"pitch":35,"velocity":80,"startTime":39.211755999999994,"endTime":39.236386499999995,"instrument":1,"isDrum":true},{"pitch":51,"velocity":80,"startTime":39.211755999999994,"endTime":39.236386499999995,"instrument":1,"isDrum":true},{"pitch":38,"velocity":80,"startTime":39.310278,"endTime":39.334908500000004,"instrument":1,"isDrum":true},{"pitch":44,"velocity":80,"startTime":39.310278,"endTime":39.334908500000004,"instrument":1,"isDrum":true},{"pitch":51,"velocity":80,"startTime":39.310278,"endTime":39.334908500000004,"instrument":1,"isDrum":true},{"pitch":53,"velocity":80,"startTime":39.310278,"endTime":39.334908500000004,"instrument":1,"isDrum":true},{"pitch":35,"velocity":80,"startTime":39.507321999999995,"endTime":39.531952499999996,"instrument":1,"isDrum":true},{"pitch":51,"velocity":80,"startTime":39.507321999999995,"endTime":39.531952499999996,"instrument":1,"isDrum":true},{"pitch":35,"velocity":80,"startTime":39.605844,"endTime":39.6304745,"instrument":1,"isDrum":true},{"pitch":44,"velocity":80,"startTime":39.605844,"endTime":39.6304745,"instrument":1,"isDrum":true},{"pitch":51,"velocity":80,"startTime":39.605844,"endTime":39.6304745,"instrument":1,"isDrum":true},{"pitch":35,"velocity":80,"startTime":39.802887999999996,"endTime":39.8275185,"instrument":1,"isDrum":true},{"pitch":51,"velocity":80,"startTime":39.802887999999996,"endTime":39.8275185,"instrument":1,"isDrum":true},{"pitch":38,"velocity":80,"startTime":39.90141,"endTime":39.9260405,"instrument":1,"isDrum":true},{"pitch":44,"velocity":80,"startTime":39.90141,"endTime":39.9260405,"instrument":1,"isDrum":true},{"pitch":51,"velocity":80,"startTime":39.90141,"endTime":39.9260405,"instrument":1,"isDrum":true},{"pitch":53,"velocity":80,"startTime":39.90141,"endTime":39.9260405,"instrument":1,"isDrum":true},{"pitch":35,"velocity":80,"startTime":40.09845399999999,"endTime":40.1230845,"instrument":1,"isDrum":true},{"pitch":51,"velocity":80,"startTime":40.09845399999999,"endTime":40.1230845,"instrument":1,"isDrum":true},{"pitch":35,"velocity":80,"startTime":40.196976,"endTime":40.2216065,"instrument":1,"isDrum":true},{"pitch":44,"velocity":80,"startTime":40.196976,"endTime":40.2216065,"instrument":1,"isDrum":true},{"pitch":51,"velocity":80,"startTime":40.196976,"endTime":40.2216065,"instrument":1,"isDrum":true},{"pitch":35,"velocity":80,"startTime":40.39402,"endTime":40.4186505,"instrument":1,"isDrum":true},{"pitch":51,"velocity":80,"startTime":40.39402,"endTime":40.4186505,"instrument":1,"isDrum":true},{"pitch":38,"velocity":80,"startTime":40.492542,"endTime":40.517172499999994,"instrument":1,"isDrum":true},{"pitch":44,"velocity":80,"startTime":40.492542,"endTime":40.517172499999994,"instrument":1,"isDrum":true},{"pitch":51,"velocity":80,"startTime":40.492542,"endTime":40.517172499999994,"instrument":1,"isDrum":true},{"pitch":53,"velocity":80,"startTime":40.492542,"endTime":40.517172499999994,"instrument":1,"isDrum":true},{"pitch":35,"velocity":80,"startTime":40.689586,"endTime":40.7142165,"instrument":1,"isDrum":true},{"pitch":51,"velocity":80,"startTime":40.689586,"endTime":40.7142165,"instrument":1,"isDrum":true},{"pitch":35,"velocity":80,"startTime":40.788107999999994,"endTime":40.812738499999995,"instrument":1,"isDrum":true},{"pitch":44,"velocity":80,"startTime":40.788107999999994,"endTime":40.812738499999995,"instrument":1,"isDrum":true},{"pitch":51,"velocity":80,"startTime":40.788107999999994,"endTime":40.812738499999995,"instrument":1,"isDrum":true},{"pitch":35,"velocity":80,"startTime":40.985152,"endTime":41.0097825,"instrument":1,"isDrum":true},{"pitch":51,"velocity":80,"startTime":40.985152,"endTime":41.0097825,"instrument":1,"isDrum":true},{"pitch":38,"velocity":80,"startTime":41.083673999999995,"endTime":41.108304499999996,"instrument":1,"isDrum":true},{"pitch":44,"velocity":80,"startTime":41.083673999999995,"endTime":41.108304499999996,"instrument":1,"isDrum":true},{"pitch":51,"velocity":80,"startTime":41.083673999999995,"endTime":41.108304499999996,"instrument":1,"isDrum":true},{"pitch":53,"velocity":80,"startTime":41.083673999999995,"endTime":41.108304499999996,"instrument":1,"isDrum":true},{"pitch":35,"velocity":80,"startTime":41.280718,"endTime":41.305348499999994,"instrument":1,"isDrum":true},{"pitch":51,"velocity":80,"startTime":41.280718,"endTime":41.305348499999994,"instrument":1,"isDrum":true},{"pitch":35,"velocity":80,"startTime":41.379239999999996,"endTime":41.4038705,"instrument":1,"isDrum":true},{"pitch":44,"velocity":80,"startTime":41.379239999999996,"endTime":41.4038705,"instrument":1,"isDrum":true},{"pitch":51,"velocity":80,"startTime":41.379239999999996,"endTime":41.4038705,"instrument":1,"isDrum":true},{"pitch":35,"velocity":80,"startTime":41.576283999999994,"endTime":41.600914499999995,"instrument":1,"isDrum":true},{"pitch":51,"velocity":80,"startTime":41.576283999999994,"endTime":41.600914499999995,"instrument":1,"isDrum":true},{"pitch":38,"velocity":80,"startTime":41.674806,"endTime":41.6994365,"instrument":1,"isDrum":true},{"pitch":44,"velocity":80,"startTime":41.674806,"endTime":41.6994365,"instrument":1,"isDrum":true},{"pitch":51,"velocity":80,"startTime":41.674806,"endTime":41.6994365,"instrument":1,"isDrum":true},{"pitch":53,"velocity":80,"startTime":41.674806,"endTime":41.6994365,"instrument":1,"isDrum":true},{"pitch":35,"velocity":80,"startTime":41.871849999999995,"endTime":41.896480499999996,"instrument":1,"isDrum":true},{"pitch":51,"velocity":80,"startTime":41.871849999999995,"endTime":41.896480499999996,"instrument":1,"isDrum":true},{"pitch":35,"velocity":80,"startTime":41.970372,"endTime":41.9950025,"instrument":1,"isDrum":true},{"pitch":44,"velocity":80,"startTime":41.970372,"endTime":41.9950025,"instrument":1,"isDrum":true},{"pitch":51,"velocity":80,"startTime":41.970372,"endTime":41.9950025,"instrument":1,"isDrum":true},{"pitch":35,"velocity":80,"startTime":42.167415999999996,"endTime":42.1920465,"instrument":1,"isDrum":true},{"pitch":51,"velocity":80,"startTime":42.167415999999996,"endTime":42.1920465,"instrument":1,"isDrum":true},{"pitch":38,"velocity":80,"startTime":42.265938,"endTime":42.2905685,"instrument":1,"isDrum":true},{"pitch":44,"velocity":80,"startTime":42.265938,"endTime":42.2905685,"instrument":1,"isDrum":true},{"pitch":51,"velocity":80,"startTime":42.265938,"endTime":42.2905685,"instrument":1,"isDrum":true},{"pitch":53,"velocity":80,"startTime":42.265938,"endTime":42.2905685,"instrument":1,"isDrum":true},{"pitch":35,"velocity":80,"startTime":42.462982,"endTime":42.4876125,"instrument":1,"isDrum":true},{"pitch":51,"velocity":80,"startTime":42.462982,"endTime":42.4876125,"instrument":1,"isDrum":true},{"pitch":35,"velocity":80,"startTime":42.561504,"endTime":42.5861345,"instrument":1,"isDrum":true},{"pitch":44,"velocity":80,"startTime":42.561504,"endTime":42.5861345,"instrument":1,"isDrum":true},{"pitch":53,"velocity":80,"startTime":42.561504,"endTime":42.5861345,"instrument":1,"isDrum":true},{"pitch":35,"velocity":80,"startTime":42.758548,"endTime":42.7831785,"instrument":1,"isDrum":true},{"pitch":51,"velocity":80,"startTime":42.758548,"endTime":42.7831785,"instrument":1,"isDrum":true},{"pitch":38,"velocity":80,"startTime":42.85707,"endTime":42.881700499999994,"instrument":1,"isDrum":true},{"pitch":44,"velocity":80,"startTime":42.85707,"endTime":42.881700499999994,"instrument":1,"isDrum":true},{"pitch":51,"velocity":80,"startTime":42.85707,"endTime":42.881700499999994,"instrument":1,"isDrum":true},{"pitch":53,"velocity":80,"startTime":42.85707,"endTime":42.881700499999994,"instrument":1,"isDrum":true},{"pitch":35,"velocity":80,"startTime":43.054114,"endTime":43.0787445,"instrument":1,"isDrum":true},{"pitch":51,"velocity":80,"startTime":43.054114,"endTime":43.0787445,"instrument":1,"isDrum":true},{"pitch":35,"velocity":80,"startTime":43.152635999999994,"endTime":43.177266499999995,"instrument":1,"isDrum":true},{"pitch":44,"velocity":80,"startTime":43.152635999999994,"endTime":43.177266499999995,"instrument":1,"isDrum":true},{"pitch":51,"velocity":80,"startTime":43.152635999999994,"endTime":43.177266499999995,"instrument":1,"isDrum":true},{"pitch":35,"velocity":80,"startTime":43.34968,"endTime":43.3743105,"instrument":1,"isDrum":true},{"pitch":51,"velocity":80,"startTime":43.34968,"endTime":43.3743105,"instrument":1,"isDrum":true},{"pitch":38,"velocity":80,"startTime":43.448201999999995,"endTime":43.472832499999996,"instrument":1,"isDrum":true},{"pitch":44,"velocity":80,"startTime":43.448201999999995,"endTime":43.472832499999996,"instrument":1,"isDrum":true},{"pitch":51,"velocity":80,"startTime":43.448201999999995,"endTime":43.472832499999996,"instrument":1,"isDrum":true},{"pitch":53,"velocity":80,"startTime":43.448201999999995,"endTime":43.472832499999996,"instrument":1,"isDrum":true},{"pitch":35,"velocity":80,"startTime":43.645246,"endTime":43.669876499999994,"instrument":1,"isDrum":true},{"pitch":51,"velocity":80,"startTime":43.645246,"endTime":43.669876499999994,"instrument":1,"isDrum":true},{"pitch":35,"velocity":80,"startTime":43.743767999999996,"endTime":43.768398499999996,"instrument":1,"isDrum":true},{"pitch":44,"velocity":80,"startTime":43.743767999999996,"endTime":43.768398499999996,"instrument":1,"isDrum":true},{"pitch":51,"velocity":80,"startTime":43.743767999999996,"endTime":43.768398499999996,"instrument":1,"isDrum":true},{"pitch":35,"velocity":80,"startTime":43.940811999999994,"endTime":43.965442499999995,"instrument":1,"isDrum":true},{"pitch":51,"velocity":80,"startTime":43.940811999999994,"endTime":43.965442499999995,"instrument":1,"isDrum":true},{"pitch":38,"velocity":80,"startTime":44.039334,"endTime":44.0639645,"instrument":1,"isDrum":true},{"pitch":44,"velocity":80,"startTime":44.039334,"endTime":44.0639645,"instrument":1,"isDrum":true},{"pitch":51,"velocity":80,"startTime":44.039334,"endTime":44.0639645,"instrument":1,"isDrum":true},{"pitch":53,"velocity":80,"startTime":44.039334,"endTime":44.0639645,"instrument":1,"isDrum":true},{"pitch":35,"velocity":80,"startTime":44.236377999999995,"endTime":44.3102695,"instrument":1,"isDrum":true},{"pitch":51,"velocity":80,"startTime":44.236377999999995,"endTime":44.261008499999996,"instrument":1,"isDrum":true},{"pitch":35,"velocity":80,"startTime":44.3349,"endTime":44.3595305,"instrument":1,"isDrum":true},{"pitch":44,"velocity":80,"startTime":44.3349,"endTime":44.3595305,"instrument":1,"isDrum":true},{"pitch":51,"velocity":80,"startTime":44.3349,"endTime":44.3595305,"instrument":1,"isDrum":true},{"pitch":35,"velocity":80,"startTime":44.531943999999996,"endTime":44.556574499999996,"instrument":1,"isDrum":true},{"pitch":51,"velocity":80,"startTime":44.531943999999996,"endTime":44.556574499999996,"instrument":1,"isDrum":true},{"pitch":38,"velocity":80,"startTime":44.630466,"endTime":44.6550965,"instrument":1,"isDrum":true},{"pitch":44,"velocity":80,"startTime":44.630466,"endTime":44.6550965,"instrument":1,"isDrum":true},{"pitch":51,"velocity":80,"startTime":44.630466,"endTime":44.6550965,"instrument":1,"isDrum":true},{"pitch":53,"velocity":80,"startTime":44.630466,"endTime":44.6550965,"instrument":1,"isDrum":true},{"pitch":35,"velocity":80,"startTime":44.82751,"endTime":44.8521405,"instrument":1,"isDrum":true},{"pitch":51,"velocity":80,"startTime":44.82751,"endTime":44.8521405,"instrument":1,"isDrum":true},{"pitch":35,"velocity":80,"startTime":44.926032,"endTime":44.9506625,"instrument":1,"isDrum":true},{"pitch":44,"velocity":80,"startTime":44.926032,"endTime":44.9506625,"instrument":1,"isDrum":true},{"pitch":51,"velocity":80,"startTime":44.926032,"endTime":44.9506625,"instrument":1,"isDrum":true},{"pitch":35,"velocity":80,"startTime":45.123076,"endTime":45.1477065,"instrument":1,"isDrum":true},{"pitch":51,"velocity":80,"startTime":45.123076,"endTime":45.1477065,"instrument":1,"isDrum":true},{"pitch":38,"velocity":80,"startTime":45.221598,"endTime":45.246228499999994,"instrument":1,"isDrum":true},{"pitch":44,"velocity":80,"startTime":45.221598,"endTime":45.246228499999994,"instrument":1,"isDrum":true},{"pitch":51,"velocity":80,"startTime":45.221598,"endTime":45.246228499999994,"instrument":1,"isDrum":true},{"pitch":53,"velocity":80,"startTime":45.221598,"endTime":45.246228499999994,"instrument":1,"isDrum":true},{"pitch":35,"velocity":80,"startTime":45.418642,"endTime":45.4432725,"instrument":1,"isDrum":true},{"pitch":51,"velocity":80,"startTime":45.418642,"endTime":45.4432725,"instrument":1,"isDrum":true},{"pitch":43,"velocity":103,"startTime":37.832448,"endTime":38.0541225,"instrument":2,"program":32},{"pitch":31,"velocity":103,"startTime":38.0541225,"endTime":38.10338349999999,"instrument":2,"program":32},{"pitch":43,"velocity":103,"startTime":38.128014,"endTime":38.423579999999994,"instrument":2,"program":32},{"pitch":47,"velocity":103,"startTime":38.423579999999994,"endTime":38.694515499999994,"instrument":2,"program":32},{"pitch":31,"velocity":103,"startTime":38.62062399999999,"endTime":38.694515499999994,"instrument":2,"program":32},{"pitch":47,"velocity":103,"startTime":38.719145999999995,"endTime":39.014711999999996,"instrument":2,"program":32},{"pitch":43,"velocity":103,"startTime":39.014711999999996,"endTime":39.236386499999995,"instrument":2,"program":32},{"pitch":31,"velocity":103,"startTime":39.236386499999995,"endTime":39.285647499999996,"instrument":2,"program":32},{"pitch":43,"velocity":103,"startTime":39.310278,"endTime":39.605844,"instrument":2,"program":32},{"pitch":43,"velocity":103,"startTime":39.605844,"endTime":39.802887999999996,"instrument":2,"program":32},{"pitch":31,"velocity":103,"startTime":39.8275185,"endTime":39.87677949999999,"instrument":2,"program":32},{"pitch":43,"velocity":103,"startTime":39.90141,"endTime":40.1230845,"instrument":2,"program":32},{"pitch":31,"velocity":103,"startTime":40.1230845,"endTime":40.17234549999999,"instrument":2,"program":32},{"pitch":28,"velocity":103,"startTime":40.196976,"endTime":40.4186505,"instrument":2,"program":32},{"pitch":28,"velocity":103,"startTime":40.4186505,"endTime":40.4679115,"instrument":2,"program":32},{"pitch":40,"velocity":103,"startTime":40.492542,"endTime":40.788107999999994,"instrument":2,"program":32},{"pitch":37,"velocity":103,"startTime":40.788107999999994,"endTime":41.0097825,"instrument":2,"program":32},{"pitch":32,"velocity":103,"startTime":41.0097825,"endTime":41.059043499999994,"instrument":2,"program":32},{"pitch":35,"velocity":103,"startTime":41.083673999999995,"endTime":41.305348499999994,"instrument":2,"program":32},{"pitch":28,"velocity":103,"startTime":41.305348499999994,"endTime":41.354609499999995,"instrument":2,"program":32},{"pitch":40,"velocity":103,"startTime":41.379239999999996,"endTime":41.674806,"instrument":2,"program":32},{"pitch":47,"velocity":103,"startTime":41.674806,"endTime":41.970372,"instrument":2,"program":32},{"pitch":47,"velocity":103,"startTime":41.970372,"endTime":42.265938,"instrument":2,"program":32},{"pitch":47,"velocity":103,"startTime":42.265938,"endTime":42.561504,"instrument":2,"program":32},{"pitch":36,"velocity":103,"startTime":42.561504,"endTime":42.85707,"instrument":2,"program":32},{"pitch":36,"velocity":103,"startTime":42.85707,"endTime":43.152635999999994,"instrument":2,"program":32},{"pitch":40,"velocity":103,"startTime":43.152635999999994,"endTime":43.448201999999995,"instrument":2,"program":32},{"pitch":43,"velocity":103,"startTime":43.448201999999995,"endTime":43.669876499999994,"instrument":2,"program":32},{"pitch":36,"velocity":103,"startTime":43.669876499999994,"endTime":43.719137499999995,"instrument":2,"program":32},{"pitch":38,"velocity":103,"startTime":43.743767999999996,"endTime":44.039334,"instrument":2,"program":32},{"pitch":42,"velocity":103,"startTime":44.039334,"endTime":44.3349,"instrument":2,"program":32},{"pitch":45,"velocity":103,"startTime":44.3349,"endTime":44.630466,"instrument":2,"program":32},{"pitch":42,"velocity":103,"startTime":44.630466,"endTime":44.8521405,"instrument":2,"program":32},{"pitch":45,"velocity":103,"startTime":44.8521405,"endTime":44.9014015,"instrument":2,"program":32},{"pitch":43,"velocity":103,"startTime":44.926032,"endTime":45.1477065,"instrument":2,"program":32},{"pitch":31,"velocity":103,"startTime":45.1477065,"endTime":45.1969675,"instrument":2,"program":32},{"pitch":43,"velocity":103,"startTime":45.221598,"endTime":45.517163999999994,"instrument":2,"program":32},{"pitch":41,"velocity":103,"startTime":45.517163999999994,"endTime":45.812729999999995,"instrument":2,"program":32},{"pitch":43,"velocity":103,"startTime":45.812729999999995,"endTime":46.009774,"instrument":2,"program":32},{"pitch":31,"velocity":103,"startTime":46.034404499999994,"endTime":46.083665499999995,"instrument":2,"program":32},{"pitch":43,"velocity":103,"startTime":46.108295999999996,"endTime":46.329970499999995,"instrument":2,"program":32},{"pitch":31,"velocity":103,"startTime":46.329970499999995,"endTime":46.379231499999996,"instrument":2,"program":32},{"pitch":38,"velocity":103,"startTime":46.403862,"endTime":46.699428,"instrument":2,"program":32},{"pitch":35,"velocity":103,"startTime":46.699428,"endTime":46.896471999999996,"instrument":2,"program":32},{"pitch":31,"velocity":103,"startTime":46.921102499999996,"endTime":46.9703635,"instrument":2,"program":32},{"pitch":38,"velocity":103,"startTime":46.994994,"endTime":47.2166685,"instrument":2,"program":32},{"pitch":31,"velocity":103,"startTime":47.2166685,"endTime":47.2659295,"instrument":2,"program":32},{"pitch":43,"velocity":57,"startTime":47.3151905,"endTime":47.389081999999995},{"pitch":59,"velocity":57,"startTime":47.3151905,"endTime":47.389081999999995},{"pitch":62,"velocity":57,"startTime":47.3151905,"endTime":47.389081999999995},{"pitch":67,"velocity":57,"startTime":47.3151905,"endTime":47.413712499999995},{"pitch":43,"velocity":57,"startTime":47.906322499999995,"endTime":47.980214},{"pitch":59,"velocity":57,"startTime":47.906322499999995,"endTime":47.980214},{"pitch":62,"velocity":57,"startTime":47.906322499999995,"endTime":47.980214},{"pitch":67,"velocity":57,"startTime":47.906322499999995,"endTime":48.0048445},{"pitch":43,"velocity":57,"startTime":48.472823999999996,"endTime":48.571346},{"pitch":59,"velocity":57,"startTime":48.472823999999996,"endTime":48.5959765},{"pitch":62,"velocity":57,"startTime":48.472823999999996,"endTime":48.5959765},{"pitch":66,"velocity":57,"startTime":48.472823999999996,"endTime":48.5959765},{"pitch":40,"velocity":57,"startTime":49.655088,"endTime":49.728979499999994},{"pitch":59,"velocity":57,"startTime":49.655088,"endTime":49.728979499999994},{"pitch":50,"velocity":57,"startTime":49.6797185,"endTime":49.753609999999995},{"pitch":56,"velocity":57,"startTime":49.6797185,"endTime":49.728979499999994},{"pitch":66,"velocity":57,"startTime":49.6797185,"endTime":49.753609999999995},{"pitch":40,"velocity":57,"startTime":50.837351999999996,"endTime":50.935874},{"pitch":59,"velocity":57,"startTime":50.837351999999996,"endTime":50.935874},{"pitch":55,"velocity":57,"startTime":50.861982499999996,"endTime":50.9112435},{"pitch":52,"velocity":57,"startTime":50.886613,"endTime":50.9112435},{"pitch":40,"velocity":57,"startTime":51.034395999999994,"endTime":51.108287499999996},{"pitch":52,"velocity":57,"startTime":51.034395999999994,"endTime":51.132918},{"pitch":55,"velocity":57,"startTime":51.034395999999994,"endTime":51.108287499999996},{"pitch":59,"velocity":57,"startTime":51.034395999999994,"endTime":51.108287499999996},{"pitch":45,"velocity":57,"startTime":51.428484,"endTime":51.52700599999999},{"pitch":55,"velocity":57,"startTime":51.4531145,"endTime":51.52700599999999},{"pitch":59,"velocity":57,"startTime":51.4531145,"endTime":51.5023755},{"pitch":64,"velocity":57,"startTime":51.4531145,"endTime":51.52700599999999},{"pitch":48,"velocity":57,"startTime":52.019616,"endTime":52.093507499999994},{"pitch":59,"velocity":57,"startTime":52.019616,"endTime":52.06887699999999},{"pitch":62,"velocity":57,"startTime":52.019616,"endTime":52.093507499999994},{"pitch":64,"velocity":57,"startTime":52.019616,"endTime":52.093507499999994},{"pitch":48,"velocity":57,"startTime":52.5368565,"endTime":52.610747999999994},{"pitch":57,"velocity":57,"startTime":52.5368565,"endTime":52.610747999999994},{"pitch":59,"velocity":57,"startTime":52.5368565,"endTime":52.610747999999994},{"pitch":62,"velocity":57,"startTime":52.5368565,"endTime":52.610747999999994},{"pitch":64,"velocity":57,"startTime":52.5368565,"endTime":52.610747999999994},{"pitch":50,"velocity":57,"startTime":53.201879999999996,"endTime":53.2757715},{"pitch":60,"velocity":57,"startTime":53.201879999999996,"endTime":53.300402},{"pitch":64,"velocity":57,"startTime":53.201879999999996,"endTime":53.300402},{"pitch":69,"velocity":57,"startTime":53.201879999999996,"endTime":53.300402},{"pitch":50,"velocity":57,"startTime":54.285622,"endTime":54.384144},{"pitch":59,"velocity":57,"startTime":54.285622,"endTime":54.384144},{"pitch":62,"velocity":57,"startTime":54.285622,"endTime":54.384144},{"pitch":69,"velocity":57,"startTime":54.285622,"endTime":54.384144},{"pitch":55,"velocity":57,"startTime":54.67970999999999,"endTime":54.728970999999994},{"pitch":59,"velocity":57,"startTime":54.67970999999999,"endTime":54.728970999999994},{"pitch":64,"velocity":57,"startTime":54.67970999999999,"endTime":54.728970999999994},{"pitch":69,"velocity":57,"startTime":54.67970999999999,"endTime":54.728970999999994},{"pitch":43,"velocity":57,"startTime":54.876754,"endTime":54.95064549999999},{"pitch":55,"velocity":57,"startTime":54.975275999999994,"endTime":55.049167499999996},{"pitch":59,"velocity":57,"startTime":54.975275999999994,"endTime":55.073798},{"pitch":64,"velocity":57,"startTime":54.975275999999994,"endTime":55.073798},{"pitch":69,"velocity":57,"startTime":54.975275999999994,"endTime":55.073798},{"pitch":43,"velocity":57,"startTime":55.492516499999994,"endTime":56.65015},{"pitch":59,"velocity":57,"startTime":55.492516499999994,"endTime":56.65015},{"pitch":62,"velocity":57,"startTime":55.492516499999994,"endTime":56.65015},{"pitch":69,"velocity":57,"startTime":55.492516499999994,"endTime":56.65015},{"pitch":35,"velocity":80,"startTime":47.29056,"endTime":47.3151905,"instrument":1,"isDrum":true},{"pitch":44,"velocity":80,"startTime":47.29056,"endTime":47.3151905,"instrument":1,"isDrum":true},{"pitch":51,"velocity":80,"startTime":47.29056,"endTime":47.3151905,"instrument":1,"isDrum":true},{"pitch":51,"velocity":80,"startTime":47.487604,"endTime":47.5122345,"instrument":1,"isDrum":true},{"pitch":35,"velocity":80,"startTime":47.586126,"endTime":47.610756499999994,"instrument":1,"isDrum":true},{"pitch":37,"velocity":80,"startTime":47.586126,"endTime":47.610756499999994,"instrument":1,"isDrum":true},{"pitch":44,"velocity":80,"startTime":47.586126,"endTime":47.610756499999994,"instrument":1,"isDrum":true},{"pitch":51,"velocity":80,"startTime":47.586126,"endTime":47.610756499999994,"instrument":1,"isDrum":true},{"pitch":53,"velocity":80,"startTime":47.586126,"endTime":47.610756499999994,"instrument":1,"isDrum":true},{"pitch":54,"velocity":80,"startTime":47.586126,"endTime":47.610756499999994,"instrument":1,"isDrum":true},{"pitch":51,"velocity":80,"startTime":47.78317,"endTime":47.85706149999999,"instrument":1,"isDrum":true},{"pitch":35,"velocity":80,"startTime":47.881691999999994,"endTime":47.906322499999995,"instrument":1,"isDrum":true},{"pitch":44,"velocity":80,"startTime":47.881691999999994,"endTime":47.906322499999995,"instrument":1,"isDrum":true},{"pitch":51,"velocity":80,"startTime":47.881691999999994,"endTime":47.906322499999995,"instrument":1,"isDrum":true},{"pitch":51,"velocity":80,"startTime":48.078736,"endTime":48.1033665,"instrument":1,"isDrum":true},{"pitch":35,"velocity":80,"startTime":48.177257999999995,"endTime":48.201888499999995,"instrument":1,"isDrum":true},{"pitch":37,"velocity":80,"startTime":48.177257999999995,"endTime":48.201888499999995,"instrument":1,"isDrum":true},{"pitch":44,"velocity":80,"startTime":48.177257999999995,"endTime":48.201888499999995,"instrument":1,"isDrum":true},{"pitch":51,"velocity":80,"startTime":48.177257999999995,"endTime":48.201888499999995,"instrument":1,"isDrum":true},{"pitch":54,"velocity":80,"startTime":48.177257999999995,"endTime":48.201888499999995,"instrument":1,"isDrum":true},{"pitch":51,"velocity":80,"startTime":48.374302,"endTime":48.448193499999995,"instrument":1,"isDrum":true},{"pitch":35,"velocity":80,"startTime":48.472823999999996,"endTime":48.497454499999996,"instrument":1,"isDrum":true},{"pitch":44,"velocity":80,"startTime":48.472823999999996,"endTime":48.497454499999996,"instrument":1,"isDrum":true},{"pitch":51,"velocity":80,"startTime":48.472823999999996,"endTime":48.497454499999996,"instrument":1,"isDrum":true},{"pitch":51,"velocity":80,"startTime":48.669867999999994,"endTime":48.694498499999995,"instrument":1,"isDrum":true},{"pitch":35,"velocity":80,"startTime":48.76839,"endTime":48.7930205,"instrument":1,"isDrum":true},{"pitch":44,"velocity":80,"startTime":48.76839,"endTime":48.7930205,"instrument":1,"isDrum":true},{"pitch":51,"velocity":80,"startTime":48.76839,"endTime":48.7930205,"instrument":1,"isDrum":true},{"pitch":53,"velocity":80,"startTime":48.76839,"endTime":48.7930205,"instrument":1,"isDrum":true},{"pitch":35,"velocity":80,"startTime":49.063956,"endTime":49.0885865,"instrument":1,"isDrum":true},{"pitch":44,"velocity":80,"startTime":49.063956,"endTime":49.0885865,"instrument":1,"isDrum":true},{"pitch":51,"velocity":80,"startTime":49.063956,"endTime":49.0885865,"instrument":1,"isDrum":true},{"pitch":51,"velocity":80,"startTime":49.260999999999996,"endTime":49.285630499999996,"instrument":1,"isDrum":true},{"pitch":35,"velocity":80,"startTime":49.359522,"endTime":49.3841525,"instrument":1,"isDrum":true},{"pitch":37,"velocity":80,"startTime":49.359522,"endTime":49.3841525,"instrument":1,"isDrum":true},{"pitch":44,"velocity":80,"startTime":49.359522,"endTime":49.3841525,"instrument":1,"isDrum":true},{"pitch":51,"velocity":80,"startTime":49.359522,"endTime":49.3841525,"instrument":1,"isDrum":true},{"pitch":54,"velocity":80,"startTime":49.359522,"endTime":49.3841525,"instrument":1,"isDrum":true},{"pitch":51,"velocity":80,"startTime":49.556566,"endTime":49.655088,"instrument":1,"isDrum":true},{"pitch":35,"velocity":80,"startTime":49.655088,"endTime":49.6797185,"instrument":1,"isDrum":true},{"pitch":44,"velocity":80,"startTime":49.655088,"endTime":49.6797185,"instrument":1,"isDrum":true},{"pitch":51,"velocity":80,"startTime":49.655088,"endTime":49.6797185,"instrument":1,"isDrum":true},{"pitch":51,"velocity":80,"startTime":49.852132,"endTime":49.8767625,"instrument":1,"isDrum":true},{"pitch":35,"velocity":80,"startTime":49.95065399999999,"endTime":49.975284499999994,"instrument":1,"isDrum":true},{"pitch":37,"velocity":80,"startTime":49.95065399999999,"endTime":49.975284499999994,"instrument":1,"isDrum":true},{"pitch":44,"velocity":80,"startTime":49.95065399999999,"endTime":49.975284499999994,"instrument":1,"isDrum":true},{"pitch":51,"velocity":80,"startTime":49.95065399999999,"endTime":49.975284499999994,"instrument":1,"isDrum":true},{"pitch":54,"velocity":80,"startTime":49.95065399999999,"endTime":49.975284499999994,"instrument":1,"isDrum":true},{"pitch":51,"velocity":80,"startTime":50.147698,"endTime":50.246219999999994,"instrument":1,"isDrum":true},{"pitch":35,"velocity":80,"startTime":50.246219999999994,"endTime":50.270850499999995,"instrument":1,"isDrum":true},{"pitch":44,"velocity":80,"startTime":50.246219999999994,"endTime":50.270850499999995,"instrument":1,"isDrum":true},{"pitch":51,"velocity":80,"startTime":50.246219999999994,"endTime":50.270850499999995,"instrument":1,"isDrum":true},{"pitch":51,"velocity":80,"startTime":50.443264,"endTime":50.4678945,"instrument":1,"isDrum":true},{"pitch":35,"velocity":80,"startTime":50.541785999999995,"endTime":50.566416499999995,"instrument":1,"isDrum":true},{"pitch":37,"velocity":80,"startTime":50.541785999999995,"endTime":50.566416499999995,"instrument":1,"isDrum":true},{"pitch":44,"velocity":80,"startTime":50.541785999999995,"endTime":50.566416499999995,"instrument":1,"isDrum":true},{"pitch":51,"velocity":80,"startTime":50.541785999999995,"endTime":50.566416499999995,"instrument":1,"isDrum":true},{"pitch":51,"velocity":80,"startTime":50.73882999999999,"endTime":50.837351999999996,"instrument":1,"isDrum":true},{"pitch":35,"velocity":80,"startTime":50.837351999999996,"endTime":50.861982499999996,"instrument":1,"isDrum":true},{"pitch":44,"velocity":80,"startTime":50.837351999999996,"endTime":50.861982499999996,"instrument":1,"isDrum":true},{"pitch":51,"velocity":80,"startTime":50.837351999999996,"endTime":50.861982499999996,"instrument":1,"isDrum":true},{"pitch":51,"velocity":80,"startTime":51.034395999999994,"endTime":51.059026499999995,"instrument":1,"isDrum":true},{"pitch":35,"velocity":80,"startTime":51.132918,"endTime":51.1575485,"instrument":1,"isDrum":true},{"pitch":37,"velocity":80,"startTime":51.132918,"endTime":51.1575485,"instrument":1,"isDrum":true},{"pitch":44,"velocity":80,"startTime":51.132918,"endTime":51.1575485,"instrument":1,"isDrum":true},{"pitch":51,"velocity":80,"startTime":51.132918,"endTime":51.1575485,"instrument":1,"isDrum":true},{"pitch":54,"velocity":80,"startTime":51.132918,"endTime":51.1575485,"instrument":1,"isDrum":true},{"pitch":51,"velocity":80,"startTime":51.329961999999995,"endTime":51.428484,"instrument":1,"isDrum":true},{"pitch":35,"velocity":80,"startTime":51.428484,"endTime":51.4531145,"instrument":1,"isDrum":true},{"pitch":44,"velocity":80,"startTime":51.428484,"endTime":51.4531145,"instrument":1,"isDrum":true},{"pitch":51,"velocity":80,"startTime":51.428484,"endTime":51.4531145,"instrument":1,"isDrum":true},{"pitch":51,"velocity":80,"startTime":51.625527999999996,"endTime":51.650158499999996,"instrument":1,"isDrum":true},{"pitch":35,"velocity":80,"startTime":51.72405,"endTime":51.7486805,"instrument":1,"isDrum":true},{"pitch":37,"velocity":80,"startTime":51.72405,"endTime":51.7486805,"instrument":1,"isDrum":true},{"pitch":44,"velocity":80,"startTime":51.72405,"endTime":51.7486805,"instrument":1,"isDrum":true},{"pitch":51,"velocity":80,"startTime":51.72405,"endTime":51.7486805,"instrument":1,"isDrum":true},{"pitch":54,"velocity":80,"startTime":51.72405,"endTime":51.7486805,"instrument":1,"isDrum":true},{"pitch":51,"velocity":80,"startTime":51.921094,"endTime":52.019616,"instrument":1,"isDrum":true},{"pitch":35,"velocity":80,"startTime":52.019616,"endTime":52.0442465,"instrument":1,"isDrum":true},{"pitch":44,"velocity":80,"startTime":52.019616,"endTime":52.0442465,"instrument":1,"isDrum":true},{"pitch":51,"velocity":80,"startTime":52.019616,"endTime":52.0442465,"instrument":1,"isDrum":true},{"pitch":51,"velocity":80,"startTime":52.21666,"endTime":52.265921,"instrument":1,"isDrum":true},{"pitch":35,"velocity":80,"startTime":52.31518199999999,"endTime":52.339812499999994,"instrument":1,"isDrum":true},{"pitch":37,"velocity":80,"startTime":52.31518199999999,"endTime":52.339812499999994,"instrument":1,"isDrum":true},{"pitch":44,"velocity":80,"startTime":52.31518199999999,"endTime":52.339812499999994,"instrument":1,"isDrum":true},{"pitch":51,"velocity":80,"startTime":52.31518199999999,"endTime":52.339812499999994,"instrument":1,"isDrum":true},{"pitch":51,"velocity":80,"startTime":52.512226,"endTime":52.561487,"instrument":1,"isDrum":true},{"pitch":35,"velocity":80,"startTime":52.610747999999994,"endTime":52.635378499999995,"instrument":1,"isDrum":true},{"pitch":44,"velocity":80,"startTime":52.610747999999994,"endTime":52.635378499999995,"instrument":1,"isDrum":true},{"pitch":51,"velocity":80,"startTime":52.610747999999994,"endTime":52.635378499999995,"instrument":1,"isDrum":true},{"pitch":53,"velocity":80,"startTime":52.807792,"endTime":52.85705299999999,"instrument":1,"isDrum":true},{"pitch":35,"velocity":80,"startTime":52.906313999999995,"endTime":52.930944499999995,"instrument":1,"isDrum":true},{"pitch":37,"velocity":80,"startTime":52.906313999999995,"endTime":52.930944499999995,"instrument":1,"isDrum":true},{"pitch":44,"velocity":80,"startTime":52.906313999999995,"endTime":52.930944499999995,"instrument":1,"isDrum":true},{"pitch":51,"velocity":80,"startTime":52.906313999999995,"endTime":52.930944499999995,"instrument":1,"isDrum":true},{"pitch":51,"velocity":80,"startTime":53.10335799999999,"endTime":53.152618999999994,"instrument":1,"isDrum":true},{"pitch":35,"velocity":80,"startTime":53.201879999999996,"endTime":53.226510499999996,"instrument":1,"isDrum":true},{"pitch":44,"velocity":80,"startTime":53.201879999999996,"endTime":53.226510499999996,"instrument":1,"isDrum":true},{"pitch":51,"velocity":80,"startTime":53.201879999999996,"endTime":53.226510499999996,"instrument":1,"isDrum":true},{"pitch":53,"velocity":80,"startTime":53.398923999999994,"endTime":53.448184999999995,"instrument":1,"isDrum":true},{"pitch":35,"velocity":80,"startTime":53.497446,"endTime":53.5220765,"instrument":1,"isDrum":true},{"pitch":37,"velocity":80,"startTime":53.497446,"endTime":53.5220765,"instrument":1,"isDrum":true},{"pitch":44,"velocity":80,"startTime":53.497446,"endTime":53.5220765,"instrument":1,"isDrum":true},{"pitch":51,"velocity":80,"startTime":53.497446,"endTime":53.5220765,"instrument":1,"isDrum":true},{"pitch":51,"velocity":80,"startTime":53.694489999999995,"endTime":53.743750999999996,"instrument":1,"isDrum":true},{"pitch":35,"velocity":80,"startTime":53.793012,"endTime":53.8176425,"instrument":1,"isDrum":true},{"pitch":44,"velocity":80,"startTime":53.793012,"endTime":53.8176425,"instrument":1,"isDrum":true},{"pitch":51,"velocity":80,"startTime":53.793012,"endTime":53.8176425,"instrument":1,"isDrum":true},{"pitch":51,"velocity":80,"startTime":53.990055999999996,"endTime":54.014686499999996,"instrument":1,"isDrum":true},{"pitch":35,"velocity":80,"startTime":54.088578,"endTime":54.1132085,"instrument":1,"isDrum":true},{"pitch":37,"velocity":80,"startTime":54.088578,"endTime":54.1132085,"instrument":1,"isDrum":true},{"pitch":44,"velocity":80,"startTime":54.088578,"endTime":54.1132085,"instrument":1,"isDrum":true},{"pitch":51,"velocity":80,"startTime":54.088578,"endTime":54.1132085,"instrument":1,"isDrum":true},{"pitch":51,"velocity":80,"startTime":54.285622,"endTime":54.334883,"instrument":1,"isDrum":true},{"pitch":35,"velocity":80,"startTime":54.384144,"endTime":54.40877449999999,"instrument":1,"isDrum":true},{"pitch":44,"velocity":80,"startTime":54.384144,"endTime":54.40877449999999,"instrument":1,"isDrum":true},{"pitch":51,"velocity":80,"startTime":54.384144,"endTime":54.40877449999999,"instrument":1,"isDrum":true},{"pitch":51,"velocity":80,"startTime":54.581188,"endTime":54.630449,"instrument":1,"isDrum":true},{"pitch":35,"velocity":80,"startTime":54.67970999999999,"endTime":54.704340499999994,"instrument":1,"isDrum":true},{"pitch":37,"velocity":80,"startTime":54.67970999999999,"endTime":54.704340499999994,"instrument":1,"isDrum":true},{"pitch":44,"velocity":80,"startTime":54.67970999999999,"endTime":54.704340499999994,"instrument":1,"isDrum":true},{"pitch":51,"velocity":80,"startTime":54.67970999999999,"endTime":54.704340499999994,"instrument":1,"isDrum":true},{"pitch":51,"velocity":80,"startTime":54.876754,"endTime":54.926015,"instrument":1,"isDrum":true},{"pitch":35,"velocity":80,"startTime":54.975275999999994,"endTime":54.999906499999994,"instrument":1,"isDrum":true},{"pitch":44,"velocity":80,"startTime":54.975275999999994,"endTime":54.999906499999994,"instrument":1,"isDrum":true},{"pitch":51,"velocity":80,"startTime":54.975275999999994,"endTime":54.999906499999994,"instrument":1,"isDrum":true},{"pitch":51,"velocity":80,"startTime":55.17232,"endTime":55.22158099999999,"instrument":1,"isDrum":true},{"pitch":35,"velocity":80,"startTime":55.270841999999995,"endTime":55.295472499999995,"instrument":1,"isDrum":true},{"pitch":37,"velocity":80,"startTime":55.270841999999995,"endTime":55.295472499999995,"instrument":1,"isDrum":true},{"pitch":44,"velocity":80,"startTime":55.270841999999995,"endTime":55.295472499999995,"instrument":1,"isDrum":true},{"pitch":51,"velocity":80,"startTime":55.270841999999995,"endTime":55.295472499999995,"instrument":1,"isDrum":true},{"pitch":51,"velocity":80,"startTime":55.46788599999999,"endTime":55.517146999999994,"instrument":1,"isDrum":true},{"pitch":43,"velocity":103,"startTime":47.29056,"endTime":47.5122345,"instrument":2,"program":32},{"pitch":31,"velocity":103,"startTime":47.487604,"endTime":47.536865,"instrument":2,"program":32},{"pitch":43,"velocity":103,"startTime":47.586126,"endTime":47.881691999999994,"instrument":2,"program":32},{"pitch":47,"velocity":103,"startTime":47.881691999999994,"endTime":48.078736,"instrument":2,"program":32},{"pitch":38,"velocity":103,"startTime":48.078736,"endTime":48.152627499999994,"instrument":2,"program":32},{"pitch":43,"velocity":103,"startTime":48.177257999999995,"endTime":48.398932499999994,"instrument":2,"program":32},{"pitch":38,"velocity":103,"startTime":48.398932499999994,"endTime":48.448193499999995,"instrument":2,"program":32},{"pitch":43,"velocity":103,"startTime":48.472823999999996,"endTime":48.669867999999994,"instrument":2,"program":32},{"pitch":43,"velocity":103,"startTime":48.694498499999995,"endTime":48.76839,"instrument":2,"program":32},{"pitch":47,"velocity":103,"startTime":48.76839,"endTime":49.063956,"instrument":2,"program":32},{"pitch":50,"velocity":103,"startTime":49.063956,"endTime":49.359522,"instrument":2,"program":32},{"pitch":47,"velocity":103,"startTime":49.359522,"endTime":49.5811965,"instrument":2,"program":32},{"pitch":38,"velocity":103,"startTime":49.5811965,"endTime":49.6304575,"instrument":2,"program":32},{"pitch":28,"velocity":103,"startTime":49.655088,"endTime":49.999914999999994,"instrument":2,"program":32},{"pitch":35,"velocity":103,"startTime":49.95065399999999,"endTime":50.566416499999995,"instrument":2,"program":32},{"pitch":35,"velocity":103,"startTime":50.246219999999994,"endTime":50.270850499999995,"instrument":2,"program":32},{"pitch":28,"velocity":103,"startTime":50.541785999999995,"endTime":50.837351999999996,"instrument":2,"program":32},{"pitch":28,"velocity":103,"startTime":50.837351999999996,"endTime":51.059026499999995,"instrument":2,"program":32},{"pitch":28,"velocity":103,"startTime":51.059026499999995,"endTime":51.108287499999996,"instrument":2,"program":32},{"pitch":35,"velocity":103,"startTime":51.132918,"endTime":51.428484,"instrument":2,"program":32},{"pitch":38,"velocity":103,"startTime":51.428484,"endTime":51.625527999999996,"instrument":2,"program":32},{"pitch":35,"velocity":103,"startTime":51.650158499999996,"endTime":51.72405,"instrument":2,"program":32},{"pitch":40,"velocity":103,"startTime":51.72405,"endTime":51.9457245,"instrument":2,"program":32},{"pitch":28,"velocity":103,"startTime":51.9457245,"endTime":51.9949855,"instrument":2,"program":32},{"pitch":36,"velocity":103,"startTime":52.019616,"endTime":52.2412905,"instrument":2,"program":32},{"pitch":24,"velocity":103,"startTime":52.2412905,"endTime":52.2905515,"instrument":2,"program":32},{"pitch":43,"velocity":103,"startTime":52.31518199999999,"endTime":52.610747999999994,"instrument":2,"program":32},{"pitch":40,"velocity":103,"startTime":52.610747999999994,"endTime":52.906313999999995,"instrument":2,"program":32},{"pitch":36,"velocity":103,"startTime":52.906313999999995,"endTime":53.10335799999999,"instrument":2,"program":32},{"pitch":38,"velocity":103,"startTime":53.127988499999994,"endTime":54.236360999999995,"instrument":2,"program":32},{"pitch":43,"velocity":103,"startTime":54.3102525,"endTime":54.975275999999994,"instrument":2,"program":32},{"pitch":38,"velocity":103,"startTime":54.975275999999994,"endTime":55.246211499999994,"instrument":2,"program":32},{"pitch":43,"velocity":103,"startTime":55.270841999999995,"endTime":55.492516499999994,"instrument":2,"program":32},{"pitch":38,"velocity":103,"startTime":55.492516499999994,"endTime":55.541777499999995,"instrument":2,"program":32},{"pitch":43,"velocity":103,"startTime":55.566407999999996,"endTime":55.861974,"instrument":2,"program":32},{"pitch":47,"velocity":103,"startTime":55.861974,"endTime":56.15754,"instrument":2,"program":32},{"pitch":47,"velocity":103,"startTime":56.15754,"endTime":56.453106,"instrument":2,"program":32},{"pitch":50,"velocity":103,"startTime":56.453106,"endTime":56.65015,"instrument":2,"program":32},{"pitch":43,"velocity":103,"startTime":56.6747805,"endTime":56.7240415,"instrument":2,"program":32},{"pitch":43,"velocity":57,"startTime":56.77330249999999,"endTime":56.847193999999995},{"pitch":59,"velocity":57,"startTime":56.77330249999999,"endTime":56.871824499999995},{"pitch":62,"velocity":57,"startTime":56.77330249999999,"endTime":56.871824499999995},{"pitch":69,"velocity":57,"startTime":56.77330249999999,"endTime":56.847193999999995},{"pitch":43,"velocity":57,"startTime":57.04423799999999,"endTime":57.142759999999996},{"pitch":59,"velocity":57,"startTime":57.04423799999999,"endTime":57.167390499999996},{"pitch":62,"velocity":57,"startTime":57.04423799999999,"endTime":57.142759999999996},{"pitch":69,"velocity":57,"startTime":57.04423799999999,"endTime":57.142759999999996},{"pitch":43,"velocity":57,"startTime":57.635369999999995,"endTime":57.733892},{"pitch":59,"velocity":57,"startTime":57.635369999999995,"endTime":57.733892},{"pitch":62,"velocity":57,"startTime":57.635369999999995,"endTime":57.7585225},{"pitch":69,"velocity":57,"startTime":57.635369999999995,"endTime":57.733892},{"pitch":43,"velocity":57,"startTime":58.152610499999994,"endTime":58.177240999999995},{"pitch":59,"velocity":57,"startTime":58.152610499999994,"endTime":58.201871499999996},{"pitch":65,"velocity":57,"startTime":58.152610499999994,"endTime":58.177240999999995},{"pitch":69,"velocity":57,"startTime":58.152610499999994,"endTime":58.201871499999996},{"pitch":52,"velocity":57,"startTime":59.3348745,"endTime":59.43339649999999},{"pitch":64,"velocity":57,"startTime":59.3348745,"endTime":59.40876599999999},{"pitch":71,"velocity":57,"startTime":59.3348745,"endTime":59.40876599999999},{"pitch":59,"velocity":57,"startTime":59.359505,"endTime":59.43339649999999},{"pitch":59,"velocity":57,"startTime":59.92600649999999,"endTime":59.999897999999995},{"pitch":59,"velocity":57,"startTime":60.024528499999995,"endTime":60.1230505},{"pitch":64,"velocity":57,"startTime":60.024528499999995,"endTime":60.09842},{"pitch":71,"velocity":57,"startTime":60.024528499999995,"endTime":60.09842},{"pitch":59,"velocity":57,"startTime":60.591029999999996,"endTime":60.689552},{"pitch":62,"velocity":57,"startTime":60.591029999999996,"endTime":60.689552},{"pitch":66,"velocity":57,"startTime":60.591029999999996,"endTime":60.689552},{"pitch":69,"velocity":57,"startTime":60.591029999999996,"endTime":60.689552},{"pitch":59,"velocity":57,"startTime":61.108270499999996,"endTime":61.1575315},{"pitch":62,"velocity":57,"startTime":61.108270499999996,"endTime":61.182162},{"pitch":66,"velocity":57,"startTime":61.108270499999996,"endTime":61.182162},{"pitch":69,"velocity":57,"startTime":61.108270499999996,"endTime":61.1575315},{"pitch":62,"velocity":57,"startTime":61.9949685,"endTime":62.068859999999994},{"pitch":64,"velocity":57,"startTime":61.9949685,"endTime":62.068859999999994},{"pitch":67,"velocity":57,"startTime":61.9949685,"endTime":62.068859999999994},{"pitch":72,"velocity":57,"startTime":61.9949685,"endTime":62.068859999999994},{"pitch":59,"velocity":57,"startTime":62.58610049999999,"endTime":62.659991999999995},{"pitch":62,"velocity":57,"startTime":62.58610049999999,"endTime":62.659991999999995},{"pitch":64,"velocity":57,"startTime":62.58610049999999,"endTime":62.659991999999995},{"pitch":67,"velocity":57,"startTime":62.58610049999999,"endTime":62.659991999999995},{"pitch":57,"velocity":57,"startTime":63.7683645,"endTime":63.792995},{"pitch":62,"velocity":57,"startTime":63.7683645,"endTime":63.792995},{"pitch":65,"velocity":57,"startTime":63.7683645,"endTime":63.792995},{"pitch":67,"velocity":57,"startTime":63.7683645,"endTime":63.792995},{"pitch":55,"velocity":57,"startTime":64.0639305,"endTime":64.137822},{"pitch":62,"velocity":57,"startTime":64.0639305,"endTime":64.137822},{"pitch":65,"velocity":57,"startTime":64.0639305,"endTime":64.137822},{"pitch":58,"velocity":57,"startTime":64.088561,"endTime":64.137822},{"pitch":52,"velocity":57,"startTime":65.83732649999999,"endTime":65.88658749999999},{"pitch":57,"velocity":57,"startTime":65.83732649999999,"endTime":65.88658749999999},{"pitch":59,"velocity":57,"startTime":65.83732649999999,"endTime":65.88658749999999},{"pitch":62,"velocity":57,"startTime":65.83732649999999,"endTime":65.88658749999999},{"pitch":35,"velocity":80,"startTime":56.748672,"endTime":56.822563499999994,"instrument":1,"isDrum":true},{"pitch":44,"velocity":80,"startTime":56.748672,"endTime":56.822563499999994,"instrument":1,"isDrum":true},{"pitch":51,"velocity":80,"startTime":56.748672,"endTime":56.822563499999994,"instrument":1,"isDrum":true},{"pitch":53,"velocity":80,"startTime":56.748672,"endTime":56.822563499999994,"instrument":1,"isDrum":true},{"pitch":51,"velocity":80,"startTime":56.945716,"endTime":57.0196075,"instrument":1,"isDrum":true},{"pitch":44,"velocity":80,"startTime":57.04423799999999,"endTime":57.118129499999995,"instrument":1,"isDrum":true},{"pitch":51,"velocity":80,"startTime":57.04423799999999,"endTime":57.118129499999995,"instrument":1,"isDrum":true},{"pitch":53,"velocity":80,"startTime":57.04423799999999,"endTime":57.118129499999995,"instrument":1,"isDrum":true},{"pitch":51,"velocity":80,"startTime":57.241282,"endTime":57.31517349999999,"instrument":1,"isDrum":true},{"pitch":35,"velocity":80,"startTime":57.339803999999994,"endTime":57.413695499999996,"instrument":1,"isDrum":true},{"pitch":44,"velocity":80,"startTime":57.339803999999994,"endTime":57.413695499999996,"instrument":1,"isDrum":true},{"pitch":53,"velocity":80,"startTime":57.339803999999994,"endTime":57.413695499999996,"instrument":1,"isDrum":true},{"pitch":35,"velocity":80,"startTime":57.635369999999995,"endTime":57.7092615,"instrument":1,"isDrum":true},{"pitch":44,"velocity":80,"startTime":57.635369999999995,"endTime":57.7092615,"instrument":1,"isDrum":true},{"pitch":51,"velocity":80,"startTime":57.635369999999995,"endTime":57.7092615,"instrument":1,"isDrum":true},{"pitch":53,"velocity":80,"startTime":57.635369999999995,"endTime":57.7092615,"instrument":1,"isDrum":true},{"pitch":51,"velocity":80,"startTime":57.83241399999999,"endTime":57.906305499999995,"instrument":1,"isDrum":true},{"pitch":44,"velocity":80,"startTime":57.930935999999996,"endTime":58.0048275,"instrument":1,"isDrum":true},{"pitch":51,"velocity":80,"startTime":57.930935999999996,"endTime":58.0048275,"instrument":1,"isDrum":true},{"pitch":53,"velocity":80,"startTime":57.930935999999996,"endTime":58.0048275,"instrument":1,"isDrum":true},{"pitch":51,"velocity":80,"startTime":58.127979999999994,"endTime":58.201871499999996,"instrument":1,"isDrum":true},{"pitch":44,"velocity":80,"startTime":58.226501999999996,"endTime":58.3003935,"instrument":1,"isDrum":true},{"pitch":51,"velocity":80,"startTime":58.226501999999996,"endTime":58.3003935,"instrument":1,"isDrum":true},{"pitch":53,"velocity":80,"startTime":58.226501999999996,"endTime":58.3003935,"instrument":1,"isDrum":true},{"pitch":51,"velocity":80,"startTime":58.423545999999995,"endTime":58.4974375,"instrument":1,"isDrum":true},{"pitch":35,"velocity":80,"startTime":58.522068,"endTime":58.5959595,"instrument":1,"isDrum":true},{"pitch":44,"velocity":80,"startTime":58.522068,"endTime":58.5959595,"instrument":1,"isDrum":true},{"pitch":51,"velocity":80,"startTime":58.522068,"endTime":58.5959595,"instrument":1,"isDrum":true},{"pitch":53,"velocity":80,"startTime":58.522068,"endTime":58.5959595,"instrument":1,"isDrum":true},{"pitch":51,"velocity":80,"startTime":58.817634,"endTime":58.89152549999999,"instrument":1,"isDrum":true},{"pitch":44,"velocity":80,"startTime":59.1132,"endTime":59.187091499999994,"instrument":1,"isDrum":true},{"pitch":51,"velocity":80,"startTime":59.1132,"endTime":59.187091499999994,"instrument":1,"isDrum":true},{"pitch":53,"velocity":80,"startTime":59.1132,"endTime":59.187091499999994,"instrument":1,"isDrum":true},{"pitch":51,"velocity":80,"startTime":59.310244,"endTime":59.3841355,"instrument":1,"isDrum":true},{"pitch":35,"velocity":80,"startTime":59.40876599999999,"endTime":59.482657499999995,"instrument":1,"isDrum":true},{"pitch":44,"velocity":80,"startTime":59.40876599999999,"endTime":59.482657499999995,"instrument":1,"isDrum":true},{"pitch":51,"velocity":80,"startTime":59.40876599999999,"endTime":59.482657499999995,"instrument":1,"isDrum":true},{"pitch":53,"velocity":80,"startTime":59.40876599999999,"endTime":59.482657499999995,"instrument":1,"isDrum":true},{"pitch":51,"velocity":80,"startTime":59.60581,"endTime":59.67970149999999,"instrument":1,"isDrum":true},{"pitch":44,"velocity":80,"startTime":59.704331999999994,"endTime":59.778223499999996,"instrument":1,"isDrum":true},{"pitch":51,"velocity":80,"startTime":59.704331999999994,"endTime":59.778223499999996,"instrument":1,"isDrum":true},{"pitch":53,"velocity":80,"startTime":59.704331999999994,"endTime":59.778223499999996,"instrument":1,"isDrum":true},{"pitch":51,"velocity":80,"startTime":59.901376,"endTime":59.975267499999994,"instrument":1,"isDrum":true},{"pitch":35,"velocity":80,"startTime":59.999897999999995,"endTime":60.0737895,"instrument":1,"isDrum":true},{"pitch":44,"velocity":80,"startTime":59.999897999999995,"endTime":60.0737895,"instrument":1,"isDrum":true},{"pitch":51,"velocity":80,"startTime":59.999897999999995,"endTime":60.0737895,"instrument":1,"isDrum":true},{"pitch":53,"velocity":80,"startTime":59.999897999999995,"endTime":60.0737895,"instrument":1,"isDrum":true},{"pitch":51,"velocity":80,"startTime":60.19694199999999,"endTime":60.270833499999995,"instrument":1,"isDrum":true},{"pitch":35,"velocity":80,"startTime":60.295463999999996,"endTime":60.3693555,"instrument":1,"isDrum":true},{"pitch":44,"velocity":80,"startTime":60.295463999999996,"endTime":60.3693555,"instrument":1,"isDrum":true},{"pitch":51,"velocity":80,"startTime":60.295463999999996,"endTime":60.3693555,"instrument":1,"isDrum":true},{"pitch":53,"velocity":80,"startTime":60.295463999999996,"endTime":60.3693555,"instrument":1,"isDrum":true},{"pitch":51,"velocity":80,"startTime":60.492507999999994,"endTime":60.566399499999996,"instrument":1,"isDrum":true},{"pitch":44,"velocity":80,"startTime":60.591029999999996,"endTime":60.6649215,"instrument":1,"isDrum":true},{"pitch":51,"velocity":80,"startTime":60.591029999999996,"endTime":60.6649215,"instrument":1,"isDrum":true},{"pitch":53,"velocity":80,"startTime":60.591029999999996,"endTime":60.6649215,"instrument":1,"isDrum":true},{"pitch":51,"velocity":80,"startTime":60.788073999999995,"endTime":60.8619655,"instrument":1,"isDrum":true},{"pitch":35,"velocity":80,"startTime":60.886596,"endTime":60.9604875,"instrument":1,"isDrum":true},{"pitch":44,"velocity":80,"startTime":60.886596,"endTime":60.9604875,"instrument":1,"isDrum":true},{"pitch":51,"velocity":80,"startTime":60.886596,"endTime":60.9604875,"instrument":1,"isDrum":true},{"pitch":53,"velocity":80,"startTime":60.886596,"endTime":60.9604875,"instrument":1,"isDrum":true},{"pitch":51,"velocity":80,"startTime":61.083639999999995,"endTime":61.1575315,"instrument":1,"isDrum":true},{"pitch":35,"velocity":80,"startTime":61.182162,"endTime":61.25605349999999,"instrument":1,"isDrum":true},{"pitch":44,"velocity":80,"startTime":61.182162,"endTime":61.25605349999999,"instrument":1,"isDrum":true},{"pitch":51,"velocity":80,"startTime":61.182162,"endTime":61.25605349999999,"instrument":1,"isDrum":true},{"pitch":53,"velocity":80,"startTime":61.182162,"endTime":61.25605349999999,"instrument":1,"isDrum":true},{"pitch":51,"velocity":80,"startTime":61.379205999999996,"endTime":61.4530975,"instrument":1,"isDrum":true},{"pitch":44,"velocity":80,"startTime":61.477728,"endTime":61.551619499999994,"instrument":1,"isDrum":true},{"pitch":51,"velocity":80,"startTime":61.477728,"endTime":61.551619499999994,"instrument":1,"isDrum":true},{"pitch":53,"velocity":80,"startTime":61.477728,"endTime":61.551619499999994,"instrument":1,"isDrum":true},{"pitch":51,"velocity":80,"startTime":61.674772,"endTime":61.7486635,"instrument":1,"isDrum":true},{"pitch":35,"velocity":80,"startTime":61.77329399999999,"endTime":61.847185499999995,"instrument":1,"isDrum":true},{"pitch":44,"velocity":80,"startTime":61.77329399999999,"endTime":61.847185499999995,"instrument":1,"isDrum":true},{"pitch":51,"velocity":80,"startTime":61.77329399999999,"endTime":61.847185499999995,"instrument":1,"isDrum":true},{"pitch":53,"velocity":80,"startTime":61.77329399999999,"endTime":61.847185499999995,"instrument":1,"isDrum":true},{"pitch":51,"velocity":80,"startTime":61.970338,"endTime":62.04422949999999,"instrument":1,"isDrum":true},{"pitch":35,"velocity":80,"startTime":62.068859999999994,"endTime":62.142751499999996,"instrument":1,"isDrum":true},{"pitch":44,"velocity":80,"startTime":62.068859999999994,"endTime":62.142751499999996,"instrument":1,"isDrum":true},{"pitch":51,"velocity":80,"startTime":62.068859999999994,"endTime":62.142751499999996,"instrument":1,"isDrum":true},{"pitch":53,"velocity":80,"startTime":62.068859999999994,"endTime":62.142751499999996,"instrument":1,"isDrum":true},{"pitch":51,"velocity":80,"startTime":62.265904,"endTime":62.339795499999994,"instrument":1,"isDrum":true},{"pitch":35,"velocity":80,"startTime":62.364425999999995,"endTime":62.4383175,"instrument":1,"isDrum":true},{"pitch":44,"velocity":80,"startTime":62.364425999999995,"endTime":62.4383175,"instrument":1,"isDrum":true},{"pitch":51,"velocity":80,"startTime":62.364425999999995,"endTime":62.4383175,"instrument":1,"isDrum":true},{"pitch":53,"velocity":80,"startTime":62.364425999999995,"endTime":62.4383175,"instrument":1,"isDrum":true},{"pitch":51,"velocity":80,"startTime":62.56146999999999,"endTime":62.635361499999995,"instrument":1,"isDrum":true},{"pitch":44,"velocity":80,"startTime":62.659991999999995,"endTime":62.7338835,"instrument":1,"isDrum":true},{"pitch":51,"velocity":80,"startTime":62.659991999999995,"endTime":62.7338835,"instrument":1,"isDrum":true},{"pitch":53,"velocity":80,"startTime":62.659991999999995,"endTime":62.7338835,"instrument":1,"isDrum":true},{"pitch":51,"velocity":80,"startTime":62.857035999999994,"endTime":62.930927499999996,"instrument":1,"isDrum":true},{"pitch":35,"velocity":80,"startTime":62.955557999999996,"endTime":63.0294495,"instrument":1,"isDrum":true},{"pitch":44,"velocity":80,"startTime":62.955557999999996,"endTime":63.0294495,"instrument":1,"isDrum":true},{"pitch":53,"velocity":80,"startTime":62.955557999999996,"endTime":63.0294495,"instrument":1,"isDrum":true},{"pitch":57,"velocity":80,"startTime":62.955557999999996,"endTime":63.0294495,"instrument":1,"isDrum":true},{"pitch":44,"velocity":80,"startTime":63.251124,"endTime":63.32501549999999,"instrument":1,"isDrum":true},{"pitch":51,"velocity":80,"startTime":63.251124,"endTime":63.32501549999999,"instrument":1,"isDrum":true},{"pitch":53,"velocity":80,"startTime":63.251124,"endTime":63.32501549999999,"instrument":1,"isDrum":true},{"pitch":51,"velocity":80,"startTime":63.448167999999995,"endTime":63.5220595,"instrument":1,"isDrum":true},{"pitch":35,"velocity":80,"startTime":63.54669,"endTime":63.62058149999999,"instrument":1,"isDrum":true},{"pitch":44,"velocity":80,"startTime":63.54669,"endTime":63.62058149999999,"instrument":1,"isDrum":true},{"pitch":51,"velocity":80,"startTime":63.54669,"endTime":63.62058149999999,"instrument":1,"isDrum":true},{"pitch":53,"velocity":80,"startTime":63.54669,"endTime":63.62058149999999,"instrument":1,"isDrum":true},{"pitch":51,"velocity":80,"startTime":63.743733999999996,"endTime":63.8176255,"instrument":1,"isDrum":true},{"pitch":38,"velocity":80,"startTime":63.842256,"endTime":63.916147499999994,"instrument":1,"isDrum":true},{"pitch":44,"velocity":80,"startTime":63.842256,"endTime":63.916147499999994,"instrument":1,"isDrum":true},{"pitch":51,"velocity":80,"startTime":63.842256,"endTime":63.916147499999994,"instrument":1,"isDrum":true},{"pitch":53,"velocity":80,"startTime":63.842256,"endTime":63.916147499999994,"instrument":1,"isDrum":true},{"pitch":51,"velocity":80,"startTime":64.0393,"endTime":64.1131915,"instrument":1,"isDrum":true},{"pitch":44,"velocity":80,"startTime":64.137822,"endTime":64.2117135,"instrument":1,"isDrum":true},{"pitch":51,"velocity":80,"startTime":64.137822,"endTime":64.2117135,"instrument":1,"isDrum":true},{"pitch":53,"velocity":80,"startTime":64.137822,"endTime":64.2117135,"instrument":1,"isDrum":true},{"pitch":51,"velocity":80,"startTime":64.33486599999999,"endTime":64.4087575,"instrument":1,"isDrum":true},{"pitch":44,"velocity":80,"startTime":64.433388,"endTime":64.5072795,"instrument":1,"isDrum":true},{"pitch":53,"velocity":80,"startTime":64.433388,"endTime":64.5072795,"instrument":1,"isDrum":true},{"pitch":43,"velocity":103,"startTime":56.748672,"endTime":56.9703465,"instrument":2,"program":32},{"pitch":31,"velocity":103,"startTime":56.945716,"endTime":57.0196075,"instrument":2,"program":32},{"pitch":47,"velocity":103,"startTime":57.04423799999999,"endTime":57.31517349999999,"instrument":2,"program":32},{"pitch":35,"velocity":103,"startTime":57.339803999999994,"endTime":57.610739499999994,"instrument":2,"program":32},{"pitch":38,"velocity":103,"startTime":57.635369999999995,"endTime":57.906305499999995,"instrument":2,"program":32},{"pitch":31,"velocity":103,"startTime":57.930935999999996,"endTime":58.152610499999994,"instrument":2,"program":32},{"pitch":31,"velocity":103,"startTime":58.152610499999994,"endTime":58.201871499999996,"instrument":2,"program":32},{"pitch":35,"velocity":103,"startTime":58.226501999999996,"endTime":58.522068,"instrument":2,"program":32},{"pitch":38,"velocity":103,"startTime":58.522068,"endTime":58.719111999999996,"instrument":2,"program":32},{"pitch":26,"velocity":103,"startTime":58.719111999999996,"endTime":58.7930035,"instrument":2,"program":32},{"pitch":38,"velocity":103,"startTime":58.817634,"endTime":59.1132,"instrument":2,"program":32},{"pitch":28,"velocity":103,"startTime":59.1132,"endTime":59.3348745,"instrument":2,"program":32},{"pitch":35,"velocity":103,"startTime":59.310244,"endTime":59.3841355,"instrument":2,"program":32},{"pitch":35,"velocity":103,"startTime":59.40876599999999,"endTime":59.6304405,"instrument":2,"program":32},{"pitch":30,"velocity":103,"startTime":59.6304405,"endTime":59.67970149999999,"instrument":2,"program":32},{"pitch":35,"velocity":103,"startTime":59.704331999999994,"endTime":59.975267499999994,"instrument":2,"program":32},{"pitch":38,"velocity":103,"startTime":59.999897999999995,"endTime":60.19694199999999,"instrument":2,"program":32},{"pitch":31,"velocity":103,"startTime":60.19694199999999,"endTime":60.22157249999999,"instrument":2,"program":32},{"pitch":28,"velocity":103,"startTime":60.295463999999996,"endTime":60.492507999999994,"instrument":2,"program":32},{"pitch":35,"velocity":103,"startTime":60.492507999999994,"endTime":60.566399499999996,"instrument":2,"program":32},{"pitch":35,"velocity":103,"startTime":60.591029999999996,"endTime":60.8619655,"instrument":2,"program":32},{"pitch":35,"velocity":103,"startTime":60.886596,"endTime":61.182162,"instrument":2,"program":32},{"pitch":35,"velocity":103,"startTime":61.182162,"endTime":61.379205999999996,"instrument":2,"program":32},{"pitch":42,"velocity":103,"startTime":61.4038365,"endTime":61.4530975,"instrument":2,"program":32},{"pitch":43,"velocity":103,"startTime":61.477728,"endTime":61.674772,"instrument":2,"program":32},{"pitch":43,"velocity":103,"startTime":61.6994025,"endTime":61.7486635,"instrument":2,"program":32},{"pitch":43,"velocity":103,"startTime":61.77329399999999,"endTime":61.9949685,"instrument":2,"program":32},{"pitch":40,"velocity":103,"startTime":62.068859999999994,"endTime":62.265904,"instrument":2,"program":32},{"pitch":43,"velocity":103,"startTime":62.29053449999999,"endTime":62.339795499999994,"instrument":2,"program":32},{"pitch":48,"velocity":103,"startTime":62.364425999999995,"endTime":62.58610049999999,"instrument":2,"program":32},{"pitch":43,"velocity":103,"startTime":62.58610049999999,"endTime":62.635361499999995,"instrument":2,"program":32},{"pitch":38,"velocity":103,"startTime":62.659991999999995,"endTime":62.930927499999996,"instrument":2,"program":32},{"pitch":40,"velocity":103,"startTime":62.955557999999996,"endTime":63.177232499999995,"instrument":2,"program":32},{"pitch":33,"velocity":103,"startTime":63.177232499999995,"endTime":63.2264935,"instrument":2,"program":32},{"pitch":33,"velocity":103,"startTime":63.251124,"endTime":63.5220595,"instrument":2,"program":32},{"pitch":33,"velocity":103,"startTime":63.54669,"endTime":63.7683645,"instrument":2,"program":32},{"pitch":26,"velocity":103,"startTime":63.7683645,"endTime":63.8176255,"instrument":2,"program":32},{"pitch":43,"velocity":103,"startTime":63.842256,"endTime":64.0639305,"instrument":2,"program":32},{"pitch":43,"velocity":103,"startTime":64.0639305,"endTime":64.1131915,"instrument":2,"program":32},{"pitch":50,"velocity":103,"startTime":64.137822,"endTime":64.35949649999999,"instrument":2,"program":32},{"pitch":38,"velocity":103,"startTime":64.35949649999999,"endTime":64.4087575,"instrument":2,"program":32},{"pitch":50,"velocity":103,"startTime":64.433388,"endTime":64.728954,"instrument":2,"program":32},{"pitch":47,"velocity":103,"startTime":64.728954,"endTime":64.92599799999999,"instrument":2,"program":32},{"pitch":43,"velocity":103,"startTime":64.9506285,"endTime":64.9998895,"instrument":2,"program":32},{"pitch":31,"velocity":103,"startTime":65.02452,"endTime":65.36934699999999,"instrument":2,"program":32},{"pitch":38,"velocity":103,"startTime":65.32008599999999,"endTime":65.6402825,"instrument":2,"program":32},{"pitch":43,"velocity":103,"startTime":65.615652,"endTime":65.91121799999999,"instrument":2,"program":32},{"pitch":38,"velocity":103,"startTime":65.91121799999999,"endTime":66.1328925,"instrument":2,"program":32},{"pitch":31,"velocity":103,"startTime":66.1328925,"endTime":66.1821535,"instrument":2,"program":32},{"pitch":43,"velocity":57,"startTime":66.2314145,"endTime":66.600872},{"pitch":55,"velocity":57,"startTime":66.50234999999999,"endTime":66.5762415},{"pitch":62,"velocity":57,"startTime":66.50234999999999,"endTime":66.5762415},{"pitch":57,"velocity":57,"startTime":66.5269805,"endTime":66.5762415},{"pitch":55,"velocity":57,"startTime":66.99495999999999,"endTime":67.044221},{"pitch":62,"velocity":57,"startTime":66.99495999999999,"endTime":67.044221},{"pitch":57,"velocity":57,"startTime":67.01959049999999,"endTime":67.044221},{"pitch":59,"velocity":57,"startTime":67.01959049999999,"endTime":67.044221},{"pitch":43,"velocity":57,"startTime":67.38904799999999,"endTime":67.46293949999999},{"pitch":57,"velocity":57,"startTime":67.38904799999999,"endTime":67.46293949999999},{"pitch":59,"velocity":57,"startTime":67.41367849999999,"endTime":67.46293949999999},{"pitch":62,"velocity":57,"startTime":67.41367849999999,"endTime":67.46293949999999},{"pitch":43,"velocity":57,"startTime":67.9062885,"endTime":68.54668149999999},{"pitch":57,"velocity":57,"startTime":67.9062885,"endTime":68.54668149999999},{"pitch":59,"velocity":57,"startTime":67.9062885,"endTime":68.54668149999999},{"pitch":62,"velocity":57,"startTime":67.9062885,"endTime":68.54668149999999},{"pitch":50,"velocity":57,"startTime":68.57131199999999,"endTime":69.7289455},{"pitch":57,"velocity":57,"startTime":68.57131199999999,"endTime":69.7289455},{"pitch":59,"velocity":57,"startTime":68.59594249999999,"endTime":69.7289455},{"pitch":62,"velocity":57,"startTime":68.59594249999999,"endTime":69.7289455},{"pitch":52,"velocity":57,"startTime":69.753576,"endTime":70.9112095},{"pitch":55,"velocity":57,"startTime":69.753576,"endTime":70.9112095},{"pitch":59,"velocity":57,"startTime":69.7782065,"endTime":70.9112095},{"pitch":62,"velocity":57,"startTime":69.7782065,"endTime":70.9112095},{"pitch":59,"velocity":57,"startTime":70.93584,"endTime":72.0934735},{"pitch":48,"velocity":57,"startTime":70.9604705,"endTime":72.0934735},{"pitch":55,"velocity":57,"startTime":70.9604705,"endTime":72.0934735},{"pitch":64,"velocity":57,"startTime":70.9604705,"endTime":72.0934735},{"pitch":62,"velocity":57,"startTime":72.11810399999999,"endTime":73.27573749999999},{"pitch":38,"velocity":57,"startTime":72.14273449999999,"endTime":73.27573749999999},{"pitch":50,"velocity":57,"startTime":72.14273449999999,"endTime":73.27573749999999},{"pitch":55,"velocity":57,"startTime":72.14273449999999,"endTime":73.27573749999999},{"pitch":59,"velocity":57,"startTime":73.30036799999999,"endTime":73.4235205},{"pitch":43,"velocity":57,"startTime":73.32499849999999,"endTime":73.39889},{"pitch":53,"velocity":57,"startTime":73.32499849999999,"endTime":73.4235205},{"pitch":62,"velocity":57,"startTime":73.32499849999999,"endTime":73.4235205},{"pitch":43,"velocity":57,"startTime":73.81760849999999,"endTime":74.4580015},{"pitch":53,"velocity":57,"startTime":73.84223899999999,"endTime":74.4580015},{"pitch":59,"velocity":57,"startTime":73.84223899999999,"endTime":74.4580015},{"pitch":43,"velocity":57,"startTime":74.482632,"endTime":74.630415},{"pitch":55,"velocity":57,"startTime":74.5072625,"endTime":74.6057845},{"pitch":57,"velocity":57,"startTime":74.5072625,"endTime":74.630415},{"pitch":55,"velocity":57,"startTime":75.073764,"endTime":75.1969165},{"pitch":59,"velocity":57,"startTime":75.073764,"endTime":75.1969165},{"pitch":50,"velocity":57,"startTime":75.0983945,"endTime":75.172286},{"pitch":62,"velocity":57,"startTime":75.0983945,"endTime":75.1969165},{"pitch":35,"velocity":80,"startTime":66.206784,"endTime":66.2314145,"instrument":1,"isDrum":true},{"pitch":44,"velocity":80,"startTime":66.206784,"endTime":66.256045,"instrument":1,"isDrum":true},{"pitch":51,"velocity":80,"startTime":66.206784,"endTime":66.256045,"instrument":1,"isDrum":true},{"pitch":51,"velocity":80,"startTime":66.40382799999999,"endTime":66.45308899999999,"instrument":1,"isDrum":true},{"pitch":35,"velocity":80,"startTime":66.50234999999999,"endTime":66.5269805,"instrument":1,"isDrum":true},{"pitch":44,"velocity":80,"startTime":66.50234999999999,"endTime":66.5269805,"instrument":1,"isDrum":true},{"pitch":51,"velocity":80,"startTime":66.50234999999999,"endTime":66.5269805,"instrument":1,"isDrum":true},{"pitch":53,"velocity":80,"startTime":66.50234999999999,"endTime":66.5269805,"instrument":1,"isDrum":true},{"pitch":35,"velocity":80,"startTime":66.797916,"endTime":66.8225465,"instrument":1,"isDrum":true},{"pitch":44,"velocity":80,"startTime":66.797916,"endTime":66.8225465,"instrument":1,"isDrum":true},{"pitch":51,"velocity":80,"startTime":66.797916,"endTime":66.8225465,"instrument":1,"isDrum":true},{"pitch":51,"velocity":80,"startTime":66.99495999999999,"endTime":67.01959049999999,"instrument":1,"isDrum":true},{"pitch":35,"velocity":80,"startTime":67.093482,"endTime":67.1181125,"instrument":1,"isDrum":true},{"pitch":44,"velocity":80,"startTime":67.093482,"endTime":67.1181125,"instrument":1,"isDrum":true},{"pitch":51,"velocity":80,"startTime":67.093482,"endTime":67.1181125,"instrument":1,"isDrum":true},{"pitch":53,"velocity":80,"startTime":67.093482,"endTime":67.1181125,"instrument":1,"isDrum":true},{"pitch":35,"velocity":80,"startTime":67.38904799999999,"endTime":67.41367849999999,"instrument":1,"isDrum":true},{"pitch":44,"velocity":80,"startTime":67.38904799999999,"endTime":67.41367849999999,"instrument":1,"isDrum":true},{"pitch":51,"velocity":80,"startTime":67.38904799999999,"endTime":67.41367849999999,"instrument":1,"isDrum":true},{"pitch":53,"velocity":80,"startTime":67.586092,"endTime":67.6107225,"instrument":1,"isDrum":true},{"pitch":35,"velocity":80,"startTime":67.684614,"endTime":67.7092445,"instrument":1,"isDrum":true},{"pitch":44,"velocity":80,"startTime":67.684614,"endTime":67.7092445,"instrument":1,"isDrum":true},{"pitch":51,"velocity":80,"startTime":67.684614,"endTime":67.7092445,"instrument":1,"isDrum":true},{"pitch":53,"velocity":80,"startTime":67.881658,"endTime":67.9062885,"instrument":1,"isDrum":true},{"pitch":35,"velocity":80,"startTime":67.98017999999999,"endTime":68.00481049999999,"instrument":1,"isDrum":true},{"pitch":44,"velocity":80,"startTime":67.98017999999999,"endTime":68.00481049999999,"instrument":1,"isDrum":true},{"pitch":51,"velocity":80,"startTime":67.98017999999999,"endTime":68.00481049999999,"instrument":1,"isDrum":true},{"pitch":46,"velocity":80,"startTime":68.177224,"endTime":68.275746,"instrument":1,"isDrum":true},{"pitch":51,"velocity":80,"startTime":68.177224,"endTime":68.275746,"instrument":1,"isDrum":true},{"pitch":35,"velocity":80,"startTime":68.275746,"endTime":68.3003765,"instrument":1,"isDrum":true},{"pitch":44,"velocity":80,"startTime":68.275746,"endTime":68.3003765,"instrument":1,"isDrum":true},{"pitch":51,"velocity":80,"startTime":68.275746,"endTime":68.3003765,"instrument":1,"isDrum":true},{"pitch":53,"velocity":80,"startTime":68.47278999999999,"endTime":68.49742049999999,"instrument":1,"isDrum":true},{"pitch":35,"velocity":80,"startTime":68.57131199999999,"endTime":68.59594249999999,"instrument":1,"isDrum":true},{"pitch":44,"velocity":80,"startTime":68.57131199999999,"endTime":68.59594249999999,"instrument":1,"isDrum":true},{"pitch":51,"velocity":80,"startTime":68.57131199999999,"endTime":68.59594249999999,"instrument":1,"isDrum":true},{"pitch":53,"velocity":80,"startTime":68.57131199999999,"endTime":68.59594249999999,"instrument":1,"isDrum":true},{"pitch":35,"velocity":80,"startTime":68.866878,"endTime":68.8915085,"instrument":1,"isDrum":true},{"pitch":44,"velocity":80,"startTime":68.866878,"endTime":68.8915085,"instrument":1,"isDrum":true},{"pitch":51,"velocity":80,"startTime":68.866878,"endTime":68.8915085,"instrument":1,"isDrum":true},{"pitch":39,"velocity":80,"startTime":69.06392199999999,"endTime":69.08855249999999,"instrument":1,"isDrum":true},{"pitch":51,"velocity":80,"startTime":69.06392199999999,"endTime":69.08855249999999,"instrument":1,"isDrum":true},{"pitch":35,"velocity":80,"startTime":69.162444,"endTime":69.1870745,"instrument":1,"isDrum":true},{"pitch":44,"velocity":80,"startTime":69.162444,"endTime":69.1870745,"instrument":1,"isDrum":true},{"pitch":51,"velocity":80,"startTime":69.162444,"endTime":69.1870745,"instrument":1,"isDrum":true},{"pitch":46,"velocity":80,"startTime":69.359488,"endTime":69.45801,"instrument":1,"isDrum":true},{"pitch":51,"velocity":80,"startTime":69.359488,"endTime":69.45801,"instrument":1,"isDrum":true},{"pitch":35,"velocity":80,"startTime":69.45801,"endTime":69.4826405,"instrument":1,"isDrum":true},{"pitch":39,"velocity":80,"startTime":69.45801,"endTime":69.4826405,"instrument":1,"isDrum":true},{"pitch":44,"velocity":80,"startTime":69.45801,"endTime":69.4826405,"instrument":1,"isDrum":true},{"pitch":51,"velocity":80,"startTime":69.45801,"endTime":69.4826405,"instrument":1,"isDrum":true},{"pitch":39,"velocity":80,"startTime":69.65505399999999,"endTime":69.6796845,"instrument":1,"isDrum":true},{"pitch":51,"velocity":80,"startTime":69.65505399999999,"endTime":69.6796845,"instrument":1,"isDrum":true},{"pitch":35,"velocity":80,"startTime":69.753576,"endTime":69.7782065,"instrument":1,"isDrum":true},{"pitch":44,"velocity":80,"startTime":69.753576,"endTime":69.7782065,"instrument":1,"isDrum":true},{"pitch":51,"velocity":80,"startTime":69.753576,"endTime":69.7782065,"instrument":1,"isDrum":true},{"pitch":51,"velocity":80,"startTime":69.95062,"endTime":69.9752505,"instrument":1,"isDrum":true},{"pitch":35,"velocity":80,"startTime":70.04914199999999,"endTime":70.07377249999999,"instrument":1,"isDrum":true},{"pitch":39,"velocity":80,"startTime":70.04914199999999,"endTime":70.07377249999999,"instrument":1,"isDrum":true},{"pitch":44,"velocity":80,"startTime":70.04914199999999,"endTime":70.07377249999999,"instrument":1,"isDrum":true},{"pitch":51,"velocity":80,"startTime":70.04914199999999,"endTime":70.07377249999999,"instrument":1,"isDrum":true},{"pitch":39,"velocity":80,"startTime":70.246186,"endTime":70.2708165,"instrument":1,"isDrum":true},{"pitch":51,"velocity":80,"startTime":70.246186,"endTime":70.2708165,"instrument":1,"isDrum":true},{"pitch":35,"velocity":80,"startTime":70.344708,"endTime":70.3693385,"instrument":1,"isDrum":true},{"pitch":44,"velocity":80,"startTime":70.344708,"endTime":70.3693385,"instrument":1,"isDrum":true},{"pitch":51,"velocity":80,"startTime":70.344708,"endTime":70.3693385,"instrument":1,"isDrum":true},{"pitch":51,"velocity":80,"startTime":70.54175199999999,"endTime":70.56638249999999,"instrument":1,"isDrum":true},{"pitch":35,"velocity":80,"startTime":70.64027399999999,"endTime":70.66490449999999,"instrument":1,"isDrum":true},{"pitch":39,"velocity":80,"startTime":70.64027399999999,"endTime":70.66490449999999,"instrument":1,"isDrum":true},{"pitch":44,"velocity":80,"startTime":70.64027399999999,"endTime":70.66490449999999,"instrument":1,"isDrum":true},{"pitch":51,"velocity":80,"startTime":70.64027399999999,"endTime":70.66490449999999,"instrument":1,"isDrum":true},{"pitch":39,"velocity":80,"startTime":70.837318,"endTime":70.8619485,"instrument":1,"isDrum":true},{"pitch":51,"velocity":80,"startTime":70.837318,"endTime":70.8619485,"instrument":1,"isDrum":true},{"pitch":35,"velocity":80,"startTime":70.93584,"endTime":70.9604705,"instrument":1,"isDrum":true},{"pitch":44,"velocity":80,"startTime":70.93584,"endTime":70.9604705,"instrument":1,"isDrum":true},{"pitch":53,"velocity":80,"startTime":70.93584,"endTime":70.9604705,"instrument":1,"isDrum":true},{"pitch":51,"velocity":80,"startTime":71.13288399999999,"endTime":71.15751449999999,"instrument":1,"isDrum":true},{"pitch":35,"velocity":80,"startTime":71.23140599999999,"endTime":71.2560365,"instrument":1,"isDrum":true},{"pitch":44,"velocity":80,"startTime":71.23140599999999,"endTime":71.2560365,"instrument":1,"isDrum":true},{"pitch":51,"velocity":80,"startTime":71.23140599999999,"endTime":71.2560365,"instrument":1,"isDrum":true},{"pitch":53,"velocity":80,"startTime":71.23140599999999,"endTime":71.2560365,"instrument":1,"isDrum":true},{"pitch":44,"velocity":80,"startTime":71.526972,"endTime":71.5516025,"instrument":1,"isDrum":true},{"pitch":51,"velocity":80,"startTime":71.72401599999999,"endTime":71.74864649999999,"instrument":1,"isDrum":true},{"pitch":35,"velocity":80,"startTime":71.822538,"endTime":71.8471685,"instrument":1,"isDrum":true},{"pitch":44,"velocity":80,"startTime":71.822538,"endTime":71.8471685,"instrument":1,"isDrum":true},{"pitch":51,"velocity":80,"startTime":71.822538,"endTime":71.8471685,"instrument":1,"isDrum":true},{"pitch":53,"velocity":80,"startTime":71.822538,"endTime":71.8471685,"instrument":1,"isDrum":true},{"pitch":51,"velocity":80,"startTime":72.019582,"endTime":72.0442125,"instrument":1,"isDrum":true},{"pitch":35,"velocity":80,"startTime":72.11810399999999,"endTime":72.14273449999999,"instrument":1,"isDrum":true},{"pitch":44,"velocity":80,"startTime":72.11810399999999,"endTime":72.14273449999999,"instrument":1,"isDrum":true},{"pitch":51,"velocity":80,"startTime":72.11810399999999,"endTime":72.14273449999999,"instrument":1,"isDrum":true},{"pitch":51,"velocity":80,"startTime":72.315148,"endTime":72.3397785,"instrument":1,"isDrum":true},{"pitch":35,"velocity":80,"startTime":72.41367,"endTime":72.4383005,"instrument":1,"isDrum":true},{"pitch":44,"velocity":80,"startTime":72.41367,"endTime":72.4383005,"instrument":1,"isDrum":true},{"pitch":51,"velocity":80,"startTime":72.41367,"endTime":72.4383005,"instrument":1,"isDrum":true},{"pitch":53,"velocity":80,"startTime":72.41367,"endTime":72.4383005,"instrument":1,"isDrum":true},{"pitch":44,"velocity":80,"startTime":72.70923599999999,"endTime":72.73386649999999,"instrument":1,"isDrum":true},{"pitch":51,"velocity":80,"startTime":72.90628,"endTime":72.9309105,"instrument":1,"isDrum":true},{"pitch":35,"velocity":80,"startTime":73.004802,"endTime":73.0294325,"instrument":1,"isDrum":true},{"pitch":44,"velocity":80,"startTime":73.004802,"endTime":73.0294325,"instrument":1,"isDrum":true},{"pitch":51,"velocity":80,"startTime":73.004802,"endTime":73.0294325,"instrument":1,"isDrum":true},{"pitch":53,"velocity":80,"startTime":73.004802,"endTime":73.0294325,"instrument":1,"isDrum":true},{"pitch":51,"velocity":80,"startTime":73.20184599999999,"endTime":73.22647649999999,"instrument":1,"isDrum":true},{"pitch":35,"velocity":80,"startTime":73.30036799999999,"endTime":73.32499849999999,"instrument":1,"isDrum":true},{"pitch":44,"velocity":80,"startTime":73.30036799999999,"endTime":73.32499849999999,"instrument":1,"isDrum":true},{"pitch":51,"velocity":80,"startTime":73.30036799999999,"endTime":73.32499849999999,"instrument":1,"isDrum":true},{"pitch":51,"velocity":80,"startTime":73.497412,"endTime":73.5220425,"instrument":1,"isDrum":true},{"pitch":35,"velocity":80,"startTime":73.595934,"endTime":73.6205645,"instrument":1,"isDrum":true},{"pitch":44,"velocity":80,"startTime":73.595934,"endTime":73.6205645,"instrument":1,"isDrum":true},{"pitch":51,"velocity":80,"startTime":73.595934,"endTime":73.6205645,"instrument":1,"isDrum":true},{"pitch":53,"velocity":80,"startTime":73.595934,"endTime":73.6205645,"instrument":1,"isDrum":true},{"pitch":51,"velocity":80,"startTime":73.79297799999999,"endTime":73.81760849999999,"instrument":1,"isDrum":true},{"pitch":35,"velocity":80,"startTime":73.8915,"endTime":73.9161305,"instrument":1,"isDrum":true},{"pitch":44,"velocity":80,"startTime":73.8915,"endTime":73.9161305,"instrument":1,"isDrum":true},{"pitch":51,"velocity":80,"startTime":73.8915,"endTime":73.9161305,"instrument":1,"isDrum":true},{"pitch":51,"velocity":80,"startTime":74.088544,"endTime":74.1131745,"instrument":1,"isDrum":true},{"pitch":35,"velocity":80,"startTime":74.187066,"endTime":74.21169649999999,"instrument":1,"isDrum":true},{"pitch":44,"velocity":80,"startTime":74.187066,"endTime":74.21169649999999,"instrument":1,"isDrum":true},{"pitch":51,"velocity":80,"startTime":74.187066,"endTime":74.21169649999999,"instrument":1,"isDrum":true},{"pitch":53,"velocity":80,"startTime":74.187066,"endTime":74.21169649999999,"instrument":1,"isDrum":true},{"pitch":39,"velocity":80,"startTime":74.482632,"endTime":74.5072625,"instrument":1,"isDrum":true},{"pitch":44,"velocity":80,"startTime":74.482632,"endTime":74.5072625,"instrument":1,"isDrum":true},{"pitch":51,"velocity":80,"startTime":74.482632,"endTime":74.5072625,"instrument":1,"isDrum":true},{"pitch":39,"velocity":80,"startTime":74.679676,"endTime":74.7043065,"instrument":1,"isDrum":true},{"pitch":51,"velocity":80,"startTime":74.679676,"endTime":74.7043065,"instrument":1,"isDrum":true},{"pitch":35,"velocity":80,"startTime":74.77819799999999,"endTime":74.80282849999999,"instrument":1,"isDrum":true},{"pitch":44,"velocity":80,"startTime":74.77819799999999,"endTime":74.80282849999999,"instrument":1,"isDrum":true},{"pitch":51,"velocity":80,"startTime":74.77819799999999,"endTime":74.80282849999999,"instrument":1,"isDrum":true},{"pitch":53,"velocity":80,"startTime":74.77819799999999,"endTime":74.80282849999999,"instrument":1,"isDrum":true},{"pitch":46,"velocity":80,"startTime":74.975242,"endTime":75.0491335,"instrument":1,"isDrum":true},{"pitch":51,"velocity":80,"startTime":74.975242,"endTime":74.9998725,"instrument":1,"isDrum":true},{"pitch":39,"velocity":80,"startTime":75.073764,"endTime":75.0983945,"instrument":1,"isDrum":true},{"pitch":44,"velocity":80,"startTime":75.073764,"endTime":75.0983945,"instrument":1,"isDrum":true},{"pitch":51,"velocity":80,"startTime":75.073764,"endTime":75.0983945,"instrument":1,"isDrum":true},{"pitch":31,"velocity":103,"startTime":66.206784,"endTime":66.551611,"instrument":2,"program":32},{"pitch":43,"velocity":103,"startTime":66.50234999999999,"endTime":66.8225465,"instrument":2,"program":32},{"pitch":36,"velocity":103,"startTime":66.797916,"endTime":67.142743,"instrument":2,"program":32},{"pitch":38,"velocity":103,"startTime":67.093482,"endTime":67.38904799999999,"instrument":2,"program":32},{"pitch":31,"velocity":103,"startTime":67.38904799999999,"endTime":67.6599835,"instrument":2,"program":32},{"pitch":31,"velocity":103,"startTime":67.684614,"endTime":67.95554949999999,"instrument":2,"program":32},{"pitch":31,"velocity":103,"startTime":67.98017999999999,"endTime":68.2018545,"instrument":2,"program":32},{"pitch":31,"velocity":103,"startTime":68.275746,"endTime":68.54668149999999,"instrument":2,"program":32},{"pitch":28,"velocity":103,"startTime":68.57131199999999,"endTime":68.817617,"instrument":2,"program":32},{"pitch":30,"velocity":103,"startTime":68.866878,"endTime":69.1378135,"instrument":2,"program":32},{"pitch":35,"velocity":103,"startTime":69.162444,"endTime":69.4333795,"instrument":2,"program":32},{"pitch":35,"velocity":103,"startTime":69.45801,"endTime":69.7289455,"instrument":2,"program":32},{"pitch":28,"velocity":103,"startTime":69.753576,"endTime":69.999881,"instrument":2,"program":32},{"pitch":28,"velocity":103,"startTime":70.04914199999999,"endTime":70.295447,"instrument":2,"program":32},{"pitch":35,"velocity":103,"startTime":70.344708,"endTime":70.61564349999999,"instrument":2,"program":32},{"pitch":28,"velocity":103,"startTime":70.64027399999999,"endTime":70.9112095,"instrument":2,"program":32},{"pitch":36,"velocity":103,"startTime":70.93584,"endTime":71.15751449999999,"instrument":2,"program":32},{"pitch":24,"velocity":103,"startTime":71.15751449999999,"endTime":71.23140599999999,"instrument":2,"program":32},{"pitch":36,"velocity":103,"startTime":71.23140599999999,"endTime":71.477711,"instrument":2,"program":32},{"pitch":36,"velocity":103,"startTime":71.526972,"endTime":71.7979075,"instrument":2,"program":32},{"pitch":38,"velocity":103,"startTime":71.822538,"endTime":72.0934735,"instrument":2,"program":32},{"pitch":38,"velocity":103,"startTime":72.11810399999999,"endTime":72.462931,"instrument":2,"program":32},{"pitch":33,"velocity":103,"startTime":72.41367,"endTime":72.73386649999999,"instrument":2,"program":32},{"pitch":40,"velocity":103,"startTime":72.70923599999999,"endTime":73.0294325,"instrument":2,"program":32},{"pitch":45,"velocity":103,"startTime":73.004802,"endTime":73.30036799999999,"instrument":2,"program":32},{"pitch":43,"velocity":103,"startTime":73.30036799999999,"endTime":73.5220425,"instrument":2,"program":32},{"pitch":31,"velocity":103,"startTime":73.5220425,"endTime":73.595934,"instrument":2,"program":32},{"pitch":38,"velocity":103,"startTime":73.595934,"endTime":73.8915,"instrument":2,"program":32},{"pitch":43,"velocity":103,"startTime":73.8915,"endTime":74.187066,"instrument":2,"program":32},{"pitch":38,"velocity":103,"startTime":74.187066,"endTime":74.482632,"instrument":2,"program":32},{"pitch":43,"velocity":103,"startTime":74.482632,"endTime":74.7043065,"instrument":2,"program":32},{"pitch":38,"velocity":103,"startTime":74.7043065,"endTime":74.77819799999999,"instrument":2,"program":32},{"pitch":43,"velocity":103,"startTime":74.77819799999999,"endTime":75.073764,"instrument":2,"program":32},{"pitch":43,"velocity":103,"startTime":75.073764,"endTime":75.36932999999999,"instrument":2,"program":32},{"pitch":38,"velocity":103,"startTime":75.36932999999999,"endTime":75.664896,"instrument":2,"program":32},{"pitch":43,"velocity":57,"startTime":75.68952649999999,"endTime":75.81267899999999},{"pitch":57,"velocity":57,"startTime":75.88657049999999,"endTime":75.9358315},{"pitch":59,"velocity":57,"startTime":75.88657049999999,"endTime":75.9358315},{"pitch":62,"velocity":57,"startTime":75.88657049999999,"endTime":75.9358315},{"pitch":65,"velocity":57,"startTime":75.88657049999999,"endTime":75.9358315},{"pitch":43,"velocity":57,"startTime":76.1821365,"endTime":76.256028},{"pitch":59,"velocity":57,"startTime":76.28065849999999,"endTime":76.35454999999999},{"pitch":62,"velocity":57,"startTime":76.28065849999999,"endTime":76.35454999999999},{"pitch":65,"velocity":57,"startTime":76.28065849999999,"endTime":76.35454999999999},{"pitch":43,"velocity":57,"startTime":77.0688345,"endTime":77.142726},{"pitch":59,"velocity":57,"startTime":77.16735649999998,"endTime":77.24124799999998},{"pitch":62,"velocity":57,"startTime":77.16735649999998,"endTime":77.24124799999998},{"pitch":65,"velocity":57,"startTime":77.16735649999998,"endTime":77.2658785},{"pitch":57,"velocity":57,"startTime":77.95553249999999,"endTime":78.02942399999999},{"pitch":62,"velocity":57,"startTime":77.95553249999999,"endTime":78.02942399999999},{"pitch":66,"velocity":57,"startTime":77.95553249999999,"endTime":78.02942399999999},{"pitch":71,"velocity":57,"startTime":77.95553249999999,"endTime":78.02942399999999},{"pitch":40,"velocity":57,"startTime":78.54666449999999,"endTime":78.620556},{"pitch":59,"velocity":57,"startTime":78.64518649999998,"endTime":78.71907799999998},{"pitch":62,"velocity":57,"startTime":78.64518649999998,"endTime":78.71907799999998},{"pitch":66,"velocity":57,"startTime":78.64518649999998,"endTime":78.7437085},{"pitch":40,"velocity":57,"startTime":78.94075249999999,"endTime":79.06390499999999},{"pitch":59,"velocity":57,"startTime":79.23631849999998,"endTime":79.31020999999998},{"pitch":64,"velocity":57,"startTime":79.23631849999998,"endTime":79.2855795},{"pitch":66,"velocity":57,"startTime":79.23631849999998,"endTime":79.31020999999998},{"pitch":40,"velocity":57,"startTime":79.7289285,"endTime":79.80282},{"pitch":59,"velocity":57,"startTime":79.82745049999998,"endTime":79.8767115},{"pitch":64,"velocity":57,"startTime":79.82745049999998,"endTime":79.8767115},{"pitch":66,"velocity":57,"startTime":79.82745049999998,"endTime":79.90134199999999},{"pitch":59,"velocity":57,"startTime":80.61562649999999,"endTime":80.6648875},{"pitch":60,"velocity":57,"startTime":80.61562649999999,"endTime":80.68951799999999},{"pitch":64,"velocity":57,"startTime":80.61562649999999,"endTime":80.6648875},{"pitch":55,"velocity":57,"startTime":81.20675849999999,"endTime":81.231389},{"pitch":60,"velocity":57,"startTime":81.20675849999999,"endTime":81.2560195},{"pitch":64,"velocity":57,"startTime":81.20675849999999,"endTime":81.231389},{"pitch":57,"velocity":57,"startTime":81.8964125,"endTime":81.9456735},{"pitch":62,"velocity":57,"startTime":81.8964125,"endTime":81.9456735},{"pitch":64,"velocity":57,"startTime":81.8964125,"endTime":81.9456735},{"pitch":67,"velocity":57,"startTime":81.8964125,"endTime":81.970304},{"pitch":62,"velocity":57,"startTime":82.4875445,"endTime":82.561436},{"pitch":64,"velocity":57,"startTime":82.4875445,"endTime":82.561436},{"pitch":67,"velocity":57,"startTime":82.4875445,"endTime":82.561436},{"pitch":71,"velocity":57,"startTime":82.4875445,"endTime":82.561436},{"pitch":62,"velocity":57,"startTime":82.75847999999999,"endTime":82.857002},{"pitch":43,"velocity":57,"startTime":82.78311049999999,"endTime":82.8816325},{"pitch":55,"velocity":57,"startTime":82.78311049999999,"endTime":82.857002},{"pitch":59,"velocity":57,"startTime":82.78311049999999,"endTime":82.857002},{"pitch":55,"velocity":57,"startTime":83.27572049999999,"endTime":83.32498149999999},{"pitch":59,"velocity":57,"startTime":83.27572049999999,"endTime":83.32498149999999},{"pitch":62,"velocity":57,"startTime":83.27572049999999,"endTime":83.32498149999999},{"pitch":50,"velocity":57,"startTime":83.30035099999999,"endTime":83.32498149999999},{"pitch":55,"velocity":57,"startTime":83.8668525,"endTime":85.0491165},{"pitch":59,"velocity":57,"startTime":83.8668525,"endTime":85.0491165},{"pitch":62,"velocity":57,"startTime":83.8668525,"endTime":85.0491165},{"pitch":67,"velocity":57,"startTime":83.8668525,"endTime":85.0491165},{"pitch":35,"velocity":80,"startTime":75.664896,"endTime":75.714157,"instrument":1,"isDrum":true},{"pitch":44,"velocity":80,"startTime":75.664896,"endTime":75.714157,"instrument":1,"isDrum":true},{"pitch":51,"velocity":80,"startTime":75.664896,"endTime":75.714157,"instrument":1,"isDrum":true},{"pitch":53,"velocity":80,"startTime":75.664896,"endTime":75.714157,"instrument":1,"isDrum":true},{"pitch":56,"velocity":80,"startTime":75.664896,"endTime":75.714157,"instrument":1,"isDrum":true},{"pitch":51,"velocity":80,"startTime":75.86194,"endTime":75.9358315,"instrument":1,"isDrum":true},{"pitch":35,"velocity":80,"startTime":75.96046199999999,"endTime":76.00972300000001,"instrument":1,"isDrum":true},{"pitch":44,"velocity":80,"startTime":75.96046199999999,"endTime":76.00972300000001,"instrument":1,"isDrum":true},{"pitch":51,"velocity":80,"startTime":75.96046199999999,"endTime":76.00972300000001,"instrument":1,"isDrum":true},{"pitch":53,"velocity":80,"startTime":75.96046199999999,"endTime":76.00972300000001,"instrument":1,"isDrum":true},{"pitch":56,"velocity":80,"startTime":75.96046199999999,"endTime":76.00972300000001,"instrument":1,"isDrum":true},{"pitch":51,"velocity":80,"startTime":76.157506,"endTime":76.2313975,"instrument":1,"isDrum":true},{"pitch":35,"velocity":80,"startTime":76.256028,"endTime":76.305289,"instrument":1,"isDrum":true},{"pitch":44,"velocity":80,"startTime":76.256028,"endTime":76.305289,"instrument":1,"isDrum":true},{"pitch":51,"velocity":80,"startTime":76.256028,"endTime":76.305289,"instrument":1,"isDrum":true},{"pitch":53,"velocity":80,"startTime":76.256028,"endTime":76.305289,"instrument":1,"isDrum":true},{"pitch":51,"velocity":80,"startTime":76.453072,"endTime":76.52696350000001,"instrument":1,"isDrum":true},{"pitch":35,"velocity":80,"startTime":76.551594,"endTime":76.60085500000001,"instrument":1,"isDrum":true},{"pitch":44,"velocity":80,"startTime":76.551594,"endTime":76.60085500000001,"instrument":1,"isDrum":true},{"pitch":51,"velocity":80,"startTime":76.551594,"endTime":76.60085500000001,"instrument":1,"isDrum":true},{"pitch":53,"velocity":80,"startTime":76.551594,"endTime":76.60085500000001,"instrument":1,"isDrum":true},{"pitch":56,"velocity":80,"startTime":76.551594,"endTime":76.60085500000001,"instrument":1,"isDrum":true},{"pitch":51,"velocity":80,"startTime":76.748638,"endTime":76.8225295,"instrument":1,"isDrum":true},{"pitch":35,"velocity":80,"startTime":76.84715999999999,"endTime":76.896421,"instrument":1,"isDrum":true},{"pitch":44,"velocity":80,"startTime":76.84715999999999,"endTime":76.896421,"instrument":1,"isDrum":true},{"pitch":51,"velocity":80,"startTime":76.84715999999999,"endTime":76.896421,"instrument":1,"isDrum":true},{"pitch":53,"velocity":80,"startTime":76.84715999999999,"endTime":76.896421,"instrument":1,"isDrum":true},{"pitch":51,"velocity":80,"startTime":77.04420400000001,"endTime":77.11809550000001,"instrument":1,"isDrum":true},{"pitch":35,"velocity":80,"startTime":77.142726,"endTime":77.191987,"instrument":1,"isDrum":true},{"pitch":44,"velocity":80,"startTime":77.142726,"endTime":77.191987,"instrument":1,"isDrum":true},{"pitch":51,"velocity":80,"startTime":77.142726,"endTime":77.191987,"instrument":1,"isDrum":true},{"pitch":56,"velocity":80,"startTime":77.142726,"endTime":77.191987,"instrument":1,"isDrum":true},{"pitch":38,"velocity":80,"startTime":77.43829199999999,"endTime":77.487553,"instrument":1,"isDrum":true},{"pitch":44,"velocity":80,"startTime":77.43829199999999,"endTime":77.487553,"instrument":1,"isDrum":true},{"pitch":51,"velocity":80,"startTime":77.43829199999999,"endTime":77.63533600000001,"instrument":1,"isDrum":true},{"pitch":53,"velocity":80,"startTime":77.43829199999999,"endTime":77.487553,"instrument":1,"isDrum":true},{"pitch":56,"velocity":80,"startTime":77.43829199999999,"endTime":77.487553,"instrument":1,"isDrum":true},{"pitch":35,"velocity":80,"startTime":77.733858,"endTime":77.783119,"instrument":1,"isDrum":true},{"pitch":44,"velocity":80,"startTime":77.733858,"endTime":77.783119,"instrument":1,"isDrum":true},{"pitch":51,"velocity":80,"startTime":77.733858,"endTime":77.783119,"instrument":1,"isDrum":true},{"pitch":53,"velocity":80,"startTime":77.733858,"endTime":77.783119,"instrument":1,"isDrum":true},{"pitch":51,"velocity":80,"startTime":77.930902,"endTime":78.0047935,"instrument":1,"isDrum":true},{"pitch":35,"velocity":80,"startTime":78.02942399999999,"endTime":78.07868500000001,"instrument":1,"isDrum":true},{"pitch":44,"velocity":80,"startTime":78.02942399999999,"endTime":78.07868500000001,"instrument":1,"isDrum":true},{"pitch":51,"velocity":80,"startTime":78.02942399999999,"endTime":78.07868500000001,"instrument":1,"isDrum":true},{"pitch":53,"velocity":80,"startTime":78.02942399999999,"endTime":78.07868500000001,"instrument":1,"isDrum":true},{"pitch":56,"velocity":80,"startTime":78.02942399999999,"endTime":78.07868500000001,"instrument":1,"isDrum":true},{"pitch":51,"velocity":80,"startTime":78.226468,"endTime":78.3003595,"instrument":1,"isDrum":true},{"pitch":35,"velocity":80,"startTime":78.32499,"endTime":78.374251,"instrument":1,"isDrum":true},{"pitch":44,"velocity":80,"startTime":78.32499,"endTime":78.374251,"instrument":1,"isDrum":true},{"pitch":51,"velocity":80,"startTime":78.32499,"endTime":78.374251,"instrument":1,"isDrum":true},{"pitch":53,"velocity":80,"startTime":78.32499,"endTime":78.374251,"instrument":1,"isDrum":true},{"pitch":51,"velocity":80,"startTime":78.522034,"endTime":78.5959255,"instrument":1,"isDrum":true},{"pitch":35,"velocity":80,"startTime":78.620556,"endTime":78.66981700000001,"instrument":1,"isDrum":true},{"pitch":44,"velocity":80,"startTime":78.620556,"endTime":78.66981700000001,"instrument":1,"isDrum":true},{"pitch":51,"velocity":80,"startTime":78.620556,"endTime":78.66981700000001,"instrument":1,"isDrum":true},{"pitch":53,"velocity":80,"startTime":78.620556,"endTime":78.66981700000001,"instrument":1,"isDrum":true},{"pitch":56,"velocity":80,"startTime":78.620556,"endTime":78.66981700000001,"instrument":1,"isDrum":true},{"pitch":51,"velocity":80,"startTime":78.8176,"endTime":78.8914915,"instrument":1,"isDrum":true},{"pitch":35,"velocity":80,"startTime":78.916122,"endTime":78.965383,"instrument":1,"isDrum":true},{"pitch":44,"velocity":80,"startTime":78.916122,"endTime":78.965383,"instrument":1,"isDrum":true},{"pitch":51,"velocity":80,"startTime":78.916122,"endTime":78.965383,"instrument":1,"isDrum":true},{"pitch":53,"velocity":80,"startTime":78.916122,"endTime":78.965383,"instrument":1,"isDrum":true},{"pitch":51,"velocity":80,"startTime":79.113166,"endTime":79.18705750000001,"instrument":1,"isDrum":true},{"pitch":35,"velocity":80,"startTime":79.211688,"endTime":79.260949,"instrument":1,"isDrum":true},{"pitch":44,"velocity":80,"startTime":79.211688,"endTime":79.260949,"instrument":1,"isDrum":true},{"pitch":51,"velocity":80,"startTime":79.211688,"endTime":79.260949,"instrument":1,"isDrum":true},{"pitch":53,"velocity":80,"startTime":79.211688,"endTime":79.260949,"instrument":1,"isDrum":true},{"pitch":56,"velocity":80,"startTime":79.211688,"endTime":79.260949,"instrument":1,"isDrum":true},{"pitch":51,"velocity":80,"startTime":79.408732,"endTime":79.4826235,"instrument":1,"isDrum":true},{"pitch":35,"velocity":80,"startTime":79.50725399999999,"endTime":79.556515,"instrument":1,"isDrum":true},{"pitch":44,"velocity":80,"startTime":79.50725399999999,"endTime":79.556515,"instrument":1,"isDrum":true},{"pitch":51,"velocity":80,"startTime":79.50725399999999,"endTime":79.556515,"instrument":1,"isDrum":true},{"pitch":53,"velocity":80,"startTime":79.50725399999999,"endTime":79.556515,"instrument":1,"isDrum":true},{"pitch":51,"velocity":80,"startTime":79.70429800000001,"endTime":79.77818950000001,"instrument":1,"isDrum":true},{"pitch":35,"velocity":80,"startTime":79.80282,"endTime":79.852081,"instrument":1,"isDrum":true},{"pitch":44,"velocity":80,"startTime":79.80282,"endTime":79.852081,"instrument":1,"isDrum":true},{"pitch":53,"velocity":80,"startTime":79.80282,"endTime":79.852081,"instrument":1,"isDrum":true},{"pitch":56,"velocity":80,"startTime":79.80282,"endTime":79.852081,"instrument":1,"isDrum":true},{"pitch":51,"velocity":80,"startTime":79.999864,"endTime":80.0737555,"instrument":1,"isDrum":true},{"pitch":35,"velocity":80,"startTime":80.09838599999999,"endTime":80.147647,"instrument":1,"isDrum":true},{"pitch":44,"velocity":80,"startTime":80.09838599999999,"endTime":80.147647,"instrument":1,"isDrum":true},{"pitch":51,"velocity":80,"startTime":80.09838599999999,"endTime":80.147647,"instrument":1,"isDrum":true},{"pitch":53,"velocity":80,"startTime":80.09838599999999,"endTime":80.147647,"instrument":1,"isDrum":true},{"pitch":51,"velocity":80,"startTime":80.29543000000001,"endTime":80.3693215,"instrument":1,"isDrum":true},{"pitch":35,"velocity":80,"startTime":80.393952,"endTime":80.443213,"instrument":1,"isDrum":true},{"pitch":44,"velocity":80,"startTime":80.393952,"endTime":80.443213,"instrument":1,"isDrum":true},{"pitch":51,"velocity":80,"startTime":80.393952,"endTime":80.443213,"instrument":1,"isDrum":true},{"pitch":53,"velocity":80,"startTime":80.393952,"endTime":80.443213,"instrument":1,"isDrum":true},{"pitch":56,"velocity":80,"startTime":80.393952,"endTime":80.443213,"instrument":1,"isDrum":true},{"pitch":51,"velocity":80,"startTime":80.590996,"endTime":80.6648875,"instrument":1,"isDrum":true},{"pitch":35,"velocity":80,"startTime":80.68951799999999,"endTime":80.738779,"instrument":1,"isDrum":true},{"pitch":44,"velocity":80,"startTime":80.68951799999999,"endTime":80.738779,"instrument":1,"isDrum":true},{"pitch":51,"velocity":80,"startTime":80.68951799999999,"endTime":80.738779,"instrument":1,"isDrum":true},{"pitch":53,"velocity":80,"startTime":80.68951799999999,"endTime":80.738779,"instrument":1,"isDrum":true},{"pitch":51,"velocity":80,"startTime":80.886562,"endTime":80.9604535,"instrument":1,"isDrum":true},{"pitch":35,"velocity":80,"startTime":80.985084,"endTime":81.03434499999999,"instrument":1,"isDrum":true},{"pitch":44,"velocity":80,"startTime":80.985084,"endTime":81.03434499999999,"instrument":1,"isDrum":true},{"pitch":51,"velocity":80,"startTime":80.985084,"endTime":81.03434499999999,"instrument":1,"isDrum":true},{"pitch":56,"velocity":80,"startTime":80.985084,"endTime":81.03434499999999,"instrument":1,"isDrum":true},{"pitch":51,"velocity":80,"startTime":81.18212799999999,"endTime":81.2560195,"instrument":1,"isDrum":true},{"pitch":35,"velocity":80,"startTime":81.28065,"endTime":81.329911,"instrument":1,"isDrum":true},{"pitch":44,"velocity":80,"startTime":81.28065,"endTime":81.329911,"instrument":1,"isDrum":true},{"pitch":51,"velocity":80,"startTime":81.28065,"endTime":81.329911,"instrument":1,"isDrum":true},{"pitch":53,"velocity":80,"startTime":81.28065,"endTime":81.329911,"instrument":1,"isDrum":true},{"pitch":51,"velocity":80,"startTime":81.477694,"endTime":81.55158549999999,"instrument":1,"isDrum":true},{"pitch":35,"velocity":80,"startTime":81.57621599999999,"endTime":81.62547699999999,"instrument":1,"isDrum":true},{"pitch":44,"velocity":80,"startTime":81.57621599999999,"endTime":81.62547699999999,"instrument":1,"isDrum":true},{"pitch":51,"velocity":80,"startTime":81.57621599999999,"endTime":81.62547699999999,"instrument":1,"isDrum":true},{"pitch":53,"velocity":80,"startTime":81.57621599999999,"endTime":81.62547699999999,"instrument":1,"isDrum":true},{"pitch":56,"velocity":80,"startTime":81.57621599999999,"endTime":81.62547699999999,"instrument":1,"isDrum":true},{"pitch":51,"velocity":80,"startTime":81.77326,"endTime":81.8471515,"instrument":1,"isDrum":true},{"pitch":35,"velocity":80,"startTime":81.871782,"endTime":81.921043,"instrument":1,"isDrum":true},{"pitch":44,"velocity":80,"startTime":81.871782,"endTime":81.921043,"instrument":1,"isDrum":true},{"pitch":51,"velocity":80,"startTime":81.871782,"endTime":81.921043,"instrument":1,"isDrum":true},{"pitch":53,"velocity":80,"startTime":81.871782,"endTime":81.921043,"instrument":1,"isDrum":true},{"pitch":53,"velocity":80,"startTime":81.871782,"endTime":81.921043,"instrument":1,"isDrum":true},{"pitch":51,"velocity":80,"startTime":82.068826,"endTime":82.14271749999999,"instrument":1,"isDrum":true},{"pitch":35,"velocity":80,"startTime":82.16734799999999,"endTime":82.21660899999999,"instrument":1,"isDrum":true},{"pitch":44,"velocity":80,"startTime":82.16734799999999,"endTime":82.21660899999999,"instrument":1,"isDrum":true},{"pitch":51,"velocity":80,"startTime":82.16734799999999,"endTime":82.21660899999999,"instrument":1,"isDrum":true},{"pitch":53,"velocity":80,"startTime":82.16734799999999,"endTime":82.21660899999999,"instrument":1,"isDrum":true},{"pitch":56,"velocity":80,"startTime":82.16734799999999,"endTime":82.21660899999999,"instrument":1,"isDrum":true},{"pitch":51,"velocity":80,"startTime":82.364392,"endTime":82.4382835,"instrument":1,"isDrum":true},{"pitch":35,"velocity":80,"startTime":82.462914,"endTime":82.512175,"instrument":1,"isDrum":true},{"pitch":44,"velocity":80,"startTime":82.462914,"endTime":82.512175,"instrument":1,"isDrum":true},{"pitch":51,"velocity":80,"startTime":82.462914,"endTime":82.512175,"instrument":1,"isDrum":true},{"pitch":53,"velocity":80,"startTime":82.462914,"endTime":82.512175,"instrument":1,"isDrum":true},{"pitch":51,"velocity":80,"startTime":82.65995799999999,"endTime":82.73384949999999,"instrument":1,"isDrum":true},{"pitch":35,"velocity":80,"startTime":82.75847999999999,"endTime":82.807741,"instrument":1,"isDrum":true},{"pitch":44,"velocity":80,"startTime":82.75847999999999,"endTime":82.807741,"instrument":1,"isDrum":true},{"pitch":51,"velocity":80,"startTime":82.75847999999999,"endTime":82.807741,"instrument":1,"isDrum":true},{"pitch":56,"velocity":80,"startTime":82.75847999999999,"endTime":82.807741,"instrument":1,"isDrum":true},{"pitch":51,"velocity":80,"startTime":82.955524,"endTime":83.0294155,"instrument":1,"isDrum":true},{"pitch":35,"velocity":80,"startTime":83.054046,"endTime":83.103307,"instrument":1,"isDrum":true},{"pitch":44,"velocity":80,"startTime":83.054046,"endTime":83.103307,"instrument":1,"isDrum":true},{"pitch":51,"velocity":80,"startTime":83.054046,"endTime":83.103307,"instrument":1,"isDrum":true},{"pitch":53,"velocity":80,"startTime":83.054046,"endTime":83.103307,"instrument":1,"isDrum":true},{"pitch":51,"velocity":80,"startTime":83.25108999999999,"endTime":83.32498149999999,"instrument":1,"isDrum":true},{"pitch":35,"velocity":80,"startTime":83.349612,"endTime":83.398873,"instrument":1,"isDrum":true},{"pitch":44,"velocity":80,"startTime":83.349612,"endTime":83.398873,"instrument":1,"isDrum":true},{"pitch":51,"velocity":80,"startTime":83.349612,"endTime":83.398873,"instrument":1,"isDrum":true},{"pitch":53,"velocity":80,"startTime":83.349612,"endTime":83.398873,"instrument":1,"isDrum":true},{"pitch":56,"velocity":80,"startTime":83.349612,"endTime":83.398873,"instrument":1,"isDrum":true},{"pitch":51,"velocity":80,"startTime":83.546656,"endTime":83.6205475,"instrument":1,"isDrum":true},{"pitch":31,"velocity":103,"startTime":75.664896,"endTime":75.98509249999998,"instrument":2,"program":32},{"pitch":38,"velocity":103,"startTime":75.96046199999999,"endTime":76.28065849999999,"instrument":2,"program":32},{"pitch":31,"velocity":103,"startTime":76.256028,"endTime":76.551594,"instrument":2,"program":32},{"pitch":33,"velocity":103,"startTime":76.551594,"endTime":76.84715999999999,"instrument":2,"program":32},{"pitch":31,"velocity":103,"startTime":76.84715999999999,"endTime":77.191987,"instrument":2,"program":32},{"pitch":35,"velocity":103,"startTime":77.142726,"endTime":77.43829199999999,"instrument":2,"program":32},{"pitch":38,"velocity":103,"startTime":77.43829199999999,"endTime":77.733858,"instrument":2,"program":32},{"pitch":35,"velocity":103,"startTime":77.733858,"endTime":78.02942399999999,"instrument":2,"program":32},{"pitch":28,"velocity":103,"startTime":78.02942399999999,"endTime":78.32499,"instrument":2,"program":32},{"pitch":40,"velocity":103,"startTime":78.32499,"endTime":78.5959255,"instrument":2,"program":32},{"pitch":35,"velocity":103,"startTime":78.620556,"endTime":78.8914915,"instrument":2,"program":32},{"pitch":38,"velocity":103,"startTime":78.916122,"endTime":79.211688,"instrument":2,"program":32},{"pitch":28,"velocity":103,"startTime":79.211688,"endTime":79.556515,"instrument":2,"program":32},{"pitch":35,"velocity":103,"startTime":79.50725399999999,"endTime":80.09838599999999,"instrument":2,"program":32},{"pitch":35,"velocity":103,"startTime":79.80282,"endTime":79.82745049999998,"instrument":2,"program":32},{"pitch":38,"velocity":103,"startTime":80.09838599999999,"endTime":80.393952,"instrument":2,"program":32},{"pitch":36,"velocity":103,"startTime":80.393952,"endTime":80.68951799999999,"instrument":2,"program":32},{"pitch":38,"velocity":103,"startTime":80.68951799999999,"endTime":80.985084,"instrument":2,"program":32},{"pitch":40,"velocity":103,"startTime":80.985084,"endTime":81.28065,"instrument":2,"program":32},{"pitch":43,"velocity":103,"startTime":81.28065,"endTime":81.57621599999999,"instrument":2,"program":32},{"pitch":38,"velocity":103,"startTime":81.57621599999999,"endTime":81.871782,"instrument":2,"program":32},{"pitch":40,"velocity":103,"startTime":81.871782,"endTime":82.16734799999999,"instrument":2,"program":32},{"pitch":38,"velocity":103,"startTime":82.16734799999999,"endTime":82.462914,"instrument":2,"program":32},{"pitch":38,"velocity":103,"startTime":82.462914,"endTime":82.68458849999999,"instrument":2,"program":32},{"pitch":26,"velocity":103,"startTime":82.68458849999999,"endTime":82.73384949999999,"instrument":2,"program":32},{"pitch":31,"velocity":103,"startTime":82.75847999999999,"endTime":83.103307,"instrument":2,"program":32},{"pitch":35,"velocity":103,"startTime":83.054046,"endTime":83.349612,"instrument":2,"program":32},{"pitch":38,"velocity":103,"startTime":83.349612,"endTime":83.64517799999999,"instrument":2,"program":32},{"pitch":35,"velocity":103,"startTime":83.64517799999999,"endTime":83.940744,"instrument":2,"program":32},{"pitch":31,"velocity":103,"startTime":83.940744,"endTime":84.28557099999999,"instrument":2,"program":32},{"pitch":38,"velocity":103,"startTime":84.23630999999999,"endTime":84.531876,"instrument":2,"program":32},{"pitch":38,"velocity":103,"startTime":84.531876,"endTime":84.82744199999999,"instrument":2,"program":32},{"pitch":38,"velocity":103,"startTime":84.82744199999999,"endTime":85.123008,"instrument":2,"program":32},{"pitch":43,"velocity":57,"startTime":85.34468249999999,"endTime":85.41857399999999},{"pitch":59,"velocity":57,"startTime":85.34468249999999,"endTime":85.39394349999999},{"pitch":62,"velocity":57,"startTime":85.34468249999999,"endTime":85.39394349999999},{"pitch":52,"velocity":57,"startTime":85.4432045,"endTime":85.517096},{"pitch":59,"velocity":57,"startTime":85.4432045,"endTime":85.517096},{"pitch":62,"velocity":57,"startTime":85.4432045,"endTime":85.517096},{"pitch":43,"velocity":57,"startTime":85.93581449999999,"endTime":86.009706},{"pitch":59,"velocity":57,"startTime":85.93581449999999,"endTime":86.0343365},{"pitch":62,"velocity":57,"startTime":85.93581449999999,"endTime":86.0343365},{"pitch":69,"velocity":57,"startTime":85.93581449999999,"endTime":86.0343365},{"pitch":59,"velocity":57,"startTime":86.30527199999999,"endTime":86.37916349999999},{"pitch":43,"velocity":57,"startTime":86.32990249999999,"endTime":86.37916349999999},{"pitch":62,"velocity":57,"startTime":86.32990249999999,"endTime":86.37916349999999},{"pitch":67,"velocity":57,"startTime":86.32990249999999,"endTime":86.40379399999999},{"pitch":48,"velocity":57,"startTime":86.82251249999999,"endTime":87.43827499999999},{"pitch":59,"velocity":57,"startTime":86.82251249999999,"endTime":87.38901399999999},{"pitch":67,"velocity":57,"startTime":86.82251249999999,"endTime":87.38901399999999},{"pitch":62,"velocity":57,"startTime":86.87177349999999,"endTime":87.38901399999999},{"pitch":50,"velocity":57,"startTime":87.7092105,"endTime":87.7584715},{"pitch":40,"velocity":57,"startTime":88.00477649999999,"endTime":88.05403749999999},{"pitch":59,"velocity":57,"startTime":88.00477649999999,"endTime":88.05403749999999},{"pitch":52,"velocity":57,"startTime":88.1032985,"endTime":88.17719},{"pitch":55,"velocity":57,"startTime":88.1032985,"endTime":88.1525595},{"pitch":62,"velocity":57,"startTime":88.1032985,"endTime":88.17719},{"pitch":50,"velocity":57,"startTime":88.5959085,"endTime":88.7436915},{"pitch":59,"velocity":57,"startTime":88.5959085,"endTime":88.7436915},{"pitch":62,"velocity":57,"startTime":88.5959085,"endTime":88.768322},{"pitch":67,"velocity":57,"startTime":88.5959085,"endTime":88.7436915},{"pitch":50,"velocity":57,"startTime":89.1870405,"endTime":89.63038949999999},{"pitch":59,"velocity":57,"startTime":89.1870405,"endTime":89.58112849999999},{"pitch":62,"velocity":57,"startTime":89.1870405,"endTime":89.58112849999999},{"pitch":67,"velocity":57,"startTime":89.1870405,"endTime":89.58112849999999},{"pitch":48,"velocity":57,"startTime":90.07373849999999,"endTime":90.12299949999999},{"pitch":59,"velocity":57,"startTime":90.14762999999999,"endTime":90.2215215},{"pitch":64,"velocity":57,"startTime":90.14762999999999,"endTime":90.2215215},{"pitch":67,"velocity":57,"startTime":90.14762999999999,"endTime":90.246152},{"pitch":59,"velocity":57,"startTime":90.46782649999999,"endTime":90.64023999999999},{"pitch":64,"velocity":57,"startTime":90.46782649999999,"endTime":90.61560949999999},{"pitch":67,"velocity":57,"startTime":90.46782649999999,"endTime":90.61560949999999},{"pitch":71,"velocity":57,"startTime":90.46782649999999,"endTime":90.61560949999999},{"pitch":59,"velocity":57,"startTime":90.9604365,"endTime":91.15748049999999},{"pitch":62,"velocity":57,"startTime":90.9604365,"endTime":91.15748049999999},{"pitch":67,"velocity":57,"startTime":90.9604365,"endTime":91.13284999999999},{"pitch":71,"velocity":57,"startTime":90.9604365,"endTime":91.10821949999999},{"pitch":62,"velocity":57,"startTime":91.329894,"endTime":91.4530465},{"pitch":67,"velocity":57,"startTime":91.329894,"endTime":91.4530465},{"pitch":71,"velocity":57,"startTime":91.329894,"endTime":91.4530465},{"pitch":59,"velocity":57,"startTime":91.8471345,"endTime":91.8963955},{"pitch":62,"velocity":57,"startTime":91.8471345,"endTime":91.8963955},{"pitch":67,"velocity":57,"startTime":91.8471345,"endTime":91.8963955},{"pitch":71,"velocity":57,"startTime":91.8471345,"endTime":91.8963955},{"pitch":43,"velocity":57,"startTime":92.14270049999999,"endTime":92.19196149999999},{"pitch":59,"velocity":57,"startTime":92.24122249999999,"endTime":92.315114},{"pitch":62,"velocity":57,"startTime":92.24122249999999,"endTime":92.3397445},{"pitch":69,"velocity":57,"startTime":92.24122249999999,"endTime":92.315114},{"pitch":43,"velocity":57,"startTime":92.73383249999999,"endTime":92.78309349999999},{"pitch":59,"velocity":57,"startTime":92.807724,"endTime":92.8816155},{"pitch":62,"velocity":57,"startTime":92.807724,"endTime":92.906246},{"pitch":69,"velocity":57,"startTime":92.807724,"endTime":92.906246},{"pitch":43,"velocity":57,"startTime":93.0293985,"endTime":93.0786595},{"pitch":59,"velocity":57,"startTime":93.10328999999999,"endTime":93.17718149999999},{"pitch":62,"velocity":57,"startTime":93.10328999999999,"endTime":93.20181199999999},{"pitch":69,"velocity":57,"startTime":93.10328999999999,"endTime":93.17718149999999},{"pitch":43,"velocity":57,"startTime":93.62053049999999,"endTime":93.66979149999999},{"pitch":57,"velocity":57,"startTime":93.71905249999999,"endTime":93.79294399999999},{"pitch":62,"velocity":57,"startTime":93.71905249999999,"endTime":93.81757449999999},{"pitch":69,"velocity":57,"startTime":93.71905249999999,"endTime":93.79294399999999},{"pitch":43,"velocity":57,"startTime":93.9160965,"endTime":93.9653575},{"pitch":57,"velocity":57,"startTime":94.0146185,"endTime":94.08851},{"pitch":62,"velocity":57,"startTime":94.0146185,"endTime":94.08851},{"pitch":69,"velocity":57,"startTime":94.0146185,"endTime":94.1131405},{"pitch":43,"velocity":57,"startTime":94.21166249999999,"endTime":94.26092349999999},{"pitch":57,"velocity":57,"startTime":94.31018449999999,"endTime":94.384076},{"pitch":62,"velocity":57,"startTime":94.31018449999999,"endTime":94.384076},{"pitch":69,"velocity":57,"startTime":94.31018449999999,"endTime":94.4087065},{"pitch":35,"velocity":80,"startTime":85.123008,"endTime":85.172269,"instrument":1,"isDrum":true},{"pitch":44,"velocity":80,"startTime":85.123008,"endTime":85.172269,"instrument":1,"isDrum":true},{"pitch":51,"velocity":80,"startTime":85.123008,"endTime":85.172269,"instrument":1,"isDrum":true},{"pitch":53,"velocity":80,"startTime":85.123008,"endTime":85.172269,"instrument":1,"isDrum":true},{"pitch":56,"velocity":80,"startTime":85.123008,"endTime":85.172269,"instrument":1,"isDrum":true},{"pitch":53,"velocity":80,"startTime":85.32005199999999,"endTime":85.39394349999999,"instrument":1,"isDrum":true},{"pitch":37,"velocity":80,"startTime":85.41857399999999,"endTime":85.467835,"instrument":1,"isDrum":true},{"pitch":44,"velocity":80,"startTime":85.41857399999999,"endTime":85.467835,"instrument":1,"isDrum":true},{"pitch":51,"velocity":80,"startTime":85.41857399999999,"endTime":85.467835,"instrument":1,"isDrum":true},{"pitch":56,"velocity":80,"startTime":85.41857399999999,"endTime":85.467835,"instrument":1,"isDrum":true},{"pitch":53,"velocity":80,"startTime":85.615618,"endTime":85.6895095,"instrument":1,"isDrum":true},{"pitch":35,"velocity":80,"startTime":85.71414,"endTime":85.76340099999999,"instrument":1,"isDrum":true},{"pitch":44,"velocity":80,"startTime":85.71414,"endTime":85.76340099999999,"instrument":1,"isDrum":true},{"pitch":51,"velocity":80,"startTime":85.71414,"endTime":85.76340099999999,"instrument":1,"isDrum":true},{"pitch":53,"velocity":80,"startTime":85.71414,"endTime":85.76340099999999,"instrument":1,"isDrum":true},{"pitch":51,"velocity":80,"startTime":85.91118399999999,"endTime":85.9850755,"instrument":1,"isDrum":true},{"pitch":37,"velocity":80,"startTime":86.009706,"endTime":86.058967,"instrument":1,"isDrum":true},{"pitch":38,"velocity":80,"startTime":86.009706,"endTime":86.058967,"instrument":1,"isDrum":true},{"pitch":44,"velocity":80,"startTime":86.009706,"endTime":86.058967,"instrument":1,"isDrum":true},{"pitch":51,"velocity":80,"startTime":86.009706,"endTime":86.058967,"instrument":1,"isDrum":true},{"pitch":53,"velocity":80,"startTime":86.009706,"endTime":86.058967,"instrument":1,"isDrum":true},{"pitch":56,"velocity":80,"startTime":86.009706,"endTime":86.058967,"instrument":1,"isDrum":true},{"pitch":35,"velocity":80,"startTime":86.20675,"endTime":86.28064149999999,"instrument":1,"isDrum":true},{"pitch":53,"velocity":80,"startTime":86.20675,"endTime":86.30527199999999,"instrument":1,"isDrum":true},{"pitch":35,"velocity":80,"startTime":86.30527199999999,"endTime":86.32990249999999,"instrument":1,"isDrum":true},{"pitch":44,"velocity":80,"startTime":86.30527199999999,"endTime":86.32990249999999,"instrument":1,"isDrum":true},{"pitch":53,"velocity":80,"startTime":86.30527199999999,"endTime":86.32990249999999,"instrument":1,"isDrum":true},{"pitch":35,"velocity":80,"startTime":86.502316,"endTime":86.5762075,"instrument":1,"isDrum":true},{"pitch":51,"velocity":80,"startTime":86.502316,"endTime":86.5762075,"instrument":1,"isDrum":true},{"pitch":53,"velocity":80,"startTime":86.502316,"endTime":88.42349499999999,"instrument":1,"isDrum":true},{"pitch":38,"velocity":80,"startTime":86.600838,"endTime":86.650099,"instrument":1,"isDrum":true},{"pitch":44,"velocity":80,"startTime":86.600838,"endTime":86.650099,"instrument":1,"isDrum":true},{"pitch":53,"velocity":80,"startTime":86.600838,"endTime":86.650099,"instrument":1,"isDrum":true},{"pitch":56,"velocity":80,"startTime":86.600838,"endTime":86.650099,"instrument":1,"isDrum":true},{"pitch":51,"velocity":80,"startTime":86.79788199999999,"endTime":86.87177349999999,"instrument":1,"isDrum":true},{"pitch":35,"velocity":80,"startTime":86.89640399999999,"endTime":86.94566499999999,"instrument":1,"isDrum":true},{"pitch":44,"velocity":80,"startTime":86.89640399999999,"endTime":86.94566499999999,"instrument":1,"isDrum":true},{"pitch":53,"velocity":80,"startTime":86.89640399999999,"endTime":86.94566499999999,"instrument":1,"isDrum":true},{"pitch":35,"velocity":80,"startTime":87.093448,"endTime":87.1673395,"instrument":1,"isDrum":true},{"pitch":51,"velocity":80,"startTime":87.093448,"endTime":87.1673395,"instrument":1,"isDrum":true},{"pitch":37,"velocity":80,"startTime":87.19197,"endTime":87.241231,"instrument":1,"isDrum":true},{"pitch":38,"velocity":80,"startTime":87.19197,"endTime":87.241231,"instrument":1,"isDrum":true},{"pitch":44,"velocity":80,"startTime":87.19197,"endTime":87.241231,"instrument":1,"isDrum":true},{"pitch":53,"velocity":80,"startTime":87.19197,"endTime":87.241231,"instrument":1,"isDrum":true},{"pitch":54,"velocity":80,"startTime":87.19197,"endTime":87.241231,"instrument":1,"isDrum":true},{"pitch":35,"velocity":80,"startTime":87.38901399999999,"endTime":87.46290549999999,"instrument":1,"isDrum":true},{"pitch":51,"velocity":80,"startTime":87.38901399999999,"endTime":87.46290549999999,"instrument":1,"isDrum":true},{"pitch":35,"velocity":80,"startTime":87.48753599999999,"endTime":87.53679699999999,"instrument":1,"isDrum":true},{"pitch":44,"velocity":80,"startTime":87.48753599999999,"endTime":87.53679699999999,"instrument":1,"isDrum":true},{"pitch":51,"velocity":80,"startTime":87.48753599999999,"endTime":87.53679699999999,"instrument":1,"isDrum":true},{"pitch":53,"velocity":80,"startTime":87.48753599999999,"endTime":87.53679699999999,"instrument":1,"isDrum":true},{"pitch":51,"velocity":80,"startTime":87.68458,"endTime":87.7584715,"instrument":1,"isDrum":true},{"pitch":37,"velocity":80,"startTime":87.783102,"endTime":87.832363,"instrument":1,"isDrum":true},{"pitch":38,"velocity":80,"startTime":87.783102,"endTime":87.832363,"instrument":1,"isDrum":true},{"pitch":44,"velocity":80,"startTime":87.783102,"endTime":87.832363,"instrument":1,"isDrum":true},{"pitch":51,"velocity":80,"startTime":87.783102,"endTime":87.832363,"instrument":1,"isDrum":true},{"pitch":53,"velocity":80,"startTime":87.783102,"endTime":87.832363,"instrument":1,"isDrum":true},{"pitch":56,"velocity":80,"startTime":87.783102,"endTime":87.832363,"instrument":1,"isDrum":true},{"pitch":35,"velocity":80,"startTime":87.98014599999999,"endTime":88.05403749999999,"instrument":1,"isDrum":true},{"pitch":38,"velocity":80,"startTime":87.98014599999999,"endTime":88.05403749999999,"instrument":1,"isDrum":true},{"pitch":51,"velocity":80,"startTime":87.98014599999999,"endTime":88.05403749999999,"instrument":1,"isDrum":true},{"pitch":35,"velocity":80,"startTime":88.078668,"endTime":88.127929,"instrument":1,"isDrum":true},{"pitch":44,"velocity":80,"startTime":88.078668,"endTime":88.127929,"instrument":1,"isDrum":true},{"pitch":53,"velocity":80,"startTime":88.078668,"endTime":88.127929,"instrument":1,"isDrum":true},{"pitch":35,"velocity":80,"startTime":88.275712,"endTime":88.3496035,"instrument":1,"isDrum":true},{"pitch":51,"velocity":80,"startTime":88.275712,"endTime":88.3496035,"instrument":1,"isDrum":true},{"pitch":37,"velocity":80,"startTime":88.37423399999999,"endTime":88.42349499999999,"instrument":1,"isDrum":true},{"pitch":38,"velocity":80,"startTime":88.37423399999999,"endTime":88.42349499999999,"instrument":1,"isDrum":true},{"pitch":44,"velocity":80,"startTime":88.37423399999999,"endTime":88.42349499999999,"instrument":1,"isDrum":true},{"pitch":53,"velocity":80,"startTime":88.37423399999999,"endTime":88.42349499999999,"instrument":1,"isDrum":true},{"pitch":56,"velocity":80,"startTime":88.37423399999999,"endTime":88.42349499999999,"instrument":1,"isDrum":true},{"pitch":51,"velocity":80,"startTime":88.57127799999999,"endTime":88.6451695,"instrument":1,"isDrum":true},{"pitch":35,"velocity":80,"startTime":88.6698,"endTime":88.719061,"instrument":1,"isDrum":true},{"pitch":44,"velocity":80,"startTime":88.6698,"endTime":88.719061,"instrument":1,"isDrum":true},{"pitch":53,"velocity":80,"startTime":88.6698,"endTime":88.719061,"instrument":1,"isDrum":true},{"pitch":51,"velocity":80,"startTime":88.866844,"endTime":88.94073549999999,"instrument":1,"isDrum":true},{"pitch":37,"velocity":80,"startTime":88.96536599999999,"endTime":89.01462699999999,"instrument":1,"isDrum":true},{"pitch":38,"velocity":80,"startTime":88.96536599999999,"endTime":89.01462699999999,"instrument":1,"isDrum":true},{"pitch":44,"velocity":80,"startTime":88.96536599999999,"endTime":89.01462699999999,"instrument":1,"isDrum":true},{"pitch":51,"velocity":80,"startTime":88.96536599999999,"endTime":89.01462699999999,"instrument":1,"isDrum":true},{"pitch":53,"velocity":80,"startTime":88.96536599999999,"endTime":89.01462699999999,"instrument":1,"isDrum":true},{"pitch":51,"velocity":80,"startTime":89.16241,"endTime":89.2363015,"instrument":1,"isDrum":true},{"pitch":35,"velocity":80,"startTime":89.260932,"endTime":89.310193,"instrument":1,"isDrum":true},{"pitch":44,"velocity":80,"startTime":89.260932,"endTime":89.310193,"instrument":1,"isDrum":true},{"pitch":51,"velocity":80,"startTime":89.260932,"endTime":89.310193,"instrument":1,"isDrum":true},{"pitch":53,"velocity":80,"startTime":89.260932,"endTime":89.310193,"instrument":1,"isDrum":true},{"pitch":51,"velocity":80,"startTime":89.45797599999999,"endTime":89.53186749999999,"instrument":1,"isDrum":true},{"pitch":37,"velocity":80,"startTime":89.55649799999999,"endTime":89.60575899999999,"instrument":1,"isDrum":true},{"pitch":38,"velocity":80,"startTime":89.55649799999999,"endTime":89.60575899999999,"instrument":1,"isDrum":true},{"pitch":44,"velocity":80,"startTime":89.55649799999999,"endTime":89.60575899999999,"instrument":1,"isDrum":true},{"pitch":51,"velocity":80,"startTime":89.55649799999999,"endTime":89.60575899999999,"instrument":1,"isDrum":true},{"pitch":53,"velocity":80,"startTime":89.55649799999999,"endTime":89.60575899999999,"instrument":1,"isDrum":true},{"pitch":35,"velocity":80,"startTime":89.753542,"endTime":89.8274335,"instrument":1,"isDrum":true},{"pitch":51,"velocity":80,"startTime":89.753542,"endTime":89.8274335,"instrument":1,"isDrum":true},{"pitch":35,"velocity":80,"startTime":89.852064,"endTime":89.901325,"instrument":1,"isDrum":true},{"pitch":44,"velocity":80,"startTime":89.852064,"endTime":89.901325,"instrument":1,"isDrum":true},{"pitch":51,"velocity":80,"startTime":89.852064,"endTime":89.901325,"instrument":1,"isDrum":true},{"pitch":53,"velocity":80,"startTime":89.852064,"endTime":89.901325,"instrument":1,"isDrum":true},{"pitch":51,"velocity":80,"startTime":90.04910799999999,"endTime":90.12299949999999,"instrument":1,"isDrum":true},{"pitch":37,"velocity":80,"startTime":90.14762999999999,"endTime":90.196891,"instrument":1,"isDrum":true},{"pitch":38,"velocity":80,"startTime":90.14762999999999,"endTime":90.196891,"instrument":1,"isDrum":true},{"pitch":44,"velocity":80,"startTime":90.14762999999999,"endTime":90.196891,"instrument":1,"isDrum":true},{"pitch":51,"velocity":80,"startTime":90.14762999999999,"endTime":90.196891,"instrument":1,"isDrum":true},{"pitch":53,"velocity":80,"startTime":90.14762999999999,"endTime":90.196891,"instrument":1,"isDrum":true},{"pitch":51,"velocity":80,"startTime":90.344674,"endTime":90.4185655,"instrument":1,"isDrum":true},{"pitch":35,"velocity":80,"startTime":90.443196,"endTime":90.46782649999999,"instrument":1,"isDrum":true},{"pitch":44,"velocity":80,"startTime":90.443196,"endTime":90.46782649999999,"instrument":1,"isDrum":true},{"pitch":51,"velocity":80,"startTime":90.443196,"endTime":90.46782649999999,"instrument":1,"isDrum":true},{"pitch":53,"velocity":80,"startTime":90.443196,"endTime":90.46782649999999,"instrument":1,"isDrum":true},{"pitch":35,"velocity":80,"startTime":90.64023999999999,"endTime":90.7141315,"instrument":1,"isDrum":true},{"pitch":51,"velocity":80,"startTime":90.64023999999999,"endTime":90.7141315,"instrument":1,"isDrum":true},{"pitch":37,"velocity":80,"startTime":90.738762,"endTime":90.788023,"instrument":1,"isDrum":true},{"pitch":44,"velocity":80,"startTime":90.738762,"endTime":90.788023,"instrument":1,"isDrum":true},{"pitch":53,"velocity":80,"startTime":90.738762,"endTime":90.788023,"instrument":1,"isDrum":true},{"pitch":56,"velocity":80,"startTime":90.738762,"endTime":90.788023,"instrument":1,"isDrum":true},{"pitch":51,"velocity":80,"startTime":90.935806,"endTime":91.00969749999999,"instrument":1,"isDrum":true},{"pitch":35,"velocity":80,"startTime":91.03432799999999,"endTime":91.08358899999999,"instrument":1,"isDrum":true},{"pitch":44,"velocity":80,"startTime":91.03432799999999,"endTime":91.08358899999999,"instrument":1,"isDrum":true},{"pitch":51,"velocity":80,"startTime":91.03432799999999,"endTime":91.08358899999999,"instrument":1,"isDrum":true},{"pitch":53,"velocity":80,"startTime":91.03432799999999,"endTime":91.08358899999999,"instrument":1,"isDrum":true},{"pitch":51,"velocity":80,"startTime":91.231372,"endTime":91.3052635,"instrument":1,"isDrum":true},{"pitch":37,"velocity":80,"startTime":91.329894,"endTime":91.379155,"instrument":1,"isDrum":true},{"pitch":38,"velocity":80,"startTime":91.329894,"endTime":91.379155,"instrument":1,"isDrum":true},{"pitch":44,"velocity":80,"startTime":91.329894,"endTime":91.379155,"instrument":1,"isDrum":true},{"pitch":51,"velocity":80,"startTime":91.329894,"endTime":91.379155,"instrument":1,"isDrum":true},{"pitch":53,"velocity":80,"startTime":91.329894,"endTime":91.379155,"instrument":1,"isDrum":true},{"pitch":51,"velocity":80,"startTime":91.52693799999999,"endTime":91.60082949999999,"instrument":1,"isDrum":true},{"pitch":35,"velocity":80,"startTime":91.62545999999999,"endTime":91.67472099999999,"instrument":1,"isDrum":true},{"pitch":44,"velocity":80,"startTime":91.62545999999999,"endTime":91.67472099999999,"instrument":1,"isDrum":true},{"pitch":51,"velocity":80,"startTime":91.62545999999999,"endTime":91.67472099999999,"instrument":1,"isDrum":true},{"pitch":53,"velocity":80,"startTime":91.62545999999999,"endTime":91.67472099999999,"instrument":1,"isDrum":true},{"pitch":51,"velocity":80,"startTime":91.822504,"endTime":91.8963955,"instrument":1,"isDrum":true},{"pitch":37,"velocity":80,"startTime":91.921026,"endTime":91.970287,"instrument":1,"isDrum":true},{"pitch":38,"velocity":80,"startTime":91.921026,"endTime":91.970287,"instrument":1,"isDrum":true},{"pitch":44,"velocity":80,"startTime":91.921026,"endTime":91.970287,"instrument":1,"isDrum":true},{"pitch":51,"velocity":80,"startTime":91.921026,"endTime":91.970287,"instrument":1,"isDrum":true},{"pitch":53,"velocity":80,"startTime":91.921026,"endTime":91.970287,"instrument":1,"isDrum":true},{"pitch":51,"velocity":80,"startTime":92.11806999999999,"endTime":92.19196149999999,"instrument":1,"isDrum":true},{"pitch":35,"velocity":80,"startTime":92.21659199999999,"endTime":92.26585299999999,"instrument":1,"isDrum":true},{"pitch":44,"velocity":80,"startTime":92.21659199999999,"endTime":92.26585299999999,"instrument":1,"isDrum":true},{"pitch":51,"velocity":80,"startTime":92.21659199999999,"endTime":92.26585299999999,"instrument":1,"isDrum":true},{"pitch":53,"velocity":80,"startTime":92.21659199999999,"endTime":92.26585299999999,"instrument":1,"isDrum":true},{"pitch":51,"velocity":80,"startTime":92.413636,"endTime":92.4875275,"instrument":1,"isDrum":true},{"pitch":37,"velocity":80,"startTime":92.512158,"endTime":92.56141899999999,"instrument":1,"isDrum":true},{"pitch":38,"velocity":80,"startTime":92.512158,"endTime":92.56141899999999,"instrument":1,"isDrum":true},{"pitch":44,"velocity":80,"startTime":92.512158,"endTime":92.56141899999999,"instrument":1,"isDrum":true},{"pitch":51,"velocity":80,"startTime":92.512158,"endTime":92.56141899999999,"instrument":1,"isDrum":true},{"pitch":53,"velocity":80,"startTime":92.512158,"endTime":92.56141899999999,"instrument":1,"isDrum":true},{"pitch":35,"velocity":80,"startTime":92.70920199999999,"endTime":92.78309349999999,"instrument":1,"isDrum":true},{"pitch":51,"velocity":80,"startTime":92.70920199999999,"endTime":92.78309349999999,"instrument":1,"isDrum":true},{"pitch":44,"velocity":80,"startTime":92.807724,"endTime":92.856985,"instrument":1,"isDrum":true},{"pitch":51,"velocity":80,"startTime":92.807724,"endTime":92.856985,"instrument":1,"isDrum":true},{"pitch":53,"velocity":80,"startTime":92.807724,"endTime":92.856985,"instrument":1,"isDrum":true},{"pitch":35,"velocity":80,"startTime":93.004768,"endTime":93.0786595,"instrument":1,"isDrum":true},{"pitch":51,"velocity":80,"startTime":93.004768,"endTime":93.0786595,"instrument":1,"isDrum":true},{"pitch":37,"velocity":80,"startTime":93.10328999999999,"endTime":93.15255099999999,"instrument":1,"isDrum":true},{"pitch":38,"velocity":80,"startTime":93.10328999999999,"endTime":93.15255099999999,"instrument":1,"isDrum":true},{"pitch":44,"velocity":80,"startTime":93.10328999999999,"endTime":93.15255099999999,"instrument":1,"isDrum":true},{"pitch":53,"velocity":80,"startTime":93.10328999999999,"endTime":93.15255099999999,"instrument":1,"isDrum":true},{"pitch":35,"velocity":80,"startTime":93.30033399999999,"endTime":93.3742255,"instrument":1,"isDrum":true},{"pitch":51,"velocity":80,"startTime":93.30033399999999,"endTime":93.3742255,"instrument":1,"isDrum":true},{"pitch":31,"velocity":103,"startTime":85.123008,"endTime":85.467835,"instrument":2,"program":32},{"pitch":38,"velocity":103,"startTime":85.41857399999999,"endTime":85.7387705,"instrument":2,"program":32},{"pitch":35,"velocity":103,"startTime":85.71414,"endTime":86.009706,"instrument":2,"program":32},{"pitch":38,"velocity":103,"startTime":86.009706,"endTime":86.30527199999999,"instrument":2,"program":32},{"pitch":31,"velocity":103,"startTime":86.30527199999999,"endTime":86.650099,"instrument":2,"program":32},{"pitch":38,"velocity":103,"startTime":86.600838,"endTime":86.92103449999999,"instrument":2,"program":32},{"pitch":31,"velocity":103,"startTime":86.89640399999999,"endTime":87.48753599999999,"instrument":2,"program":32},{"pitch":31,"velocity":103,"startTime":87.19197,"endTime":87.2166005,"instrument":2,"program":32},{"pitch":28,"velocity":103,"startTime":87.48753599999999,"endTime":87.733841,"instrument":2,"program":32},{"pitch":28,"velocity":103,"startTime":87.783102,"endTime":88.078668,"instrument":2,"program":32},{"pitch":28,"velocity":103,"startTime":88.078668,"endTime":88.275712,"instrument":2,"program":32},{"pitch":28,"velocity":103,"startTime":88.3003425,"endTime":88.37423399999999,"instrument":2,"program":32},{"pitch":33,"velocity":103,"startTime":88.37423399999999,"endTime":88.6698,"instrument":2,"program":32},{"pitch":28,"velocity":103,"startTime":88.6698,"endTime":88.96536599999999,"instrument":2,"program":32},{"pitch":28,"velocity":103,"startTime":88.96536599999999,"endTime":89.260932,"instrument":2,"program":32},{"pitch":28,"velocity":103,"startTime":89.260932,"endTime":89.45797599999999,"instrument":2,"program":32},{"pitch":28,"velocity":103,"startTime":89.48260649999999,"endTime":89.55649799999999,"instrument":2,"program":32},{"pitch":35,"velocity":103,"startTime":89.55649799999999,"endTime":89.852064,"instrument":2,"program":32},{"pitch":36,"velocity":103,"startTime":89.852064,"endTime":90.196891,"instrument":2,"program":32},{"pitch":31,"velocity":103,"startTime":90.14762999999999,"endTime":90.738762,"instrument":2,"program":32},{"pitch":31,"velocity":103,"startTime":90.443196,"endTime":90.46782649999999,"instrument":2,"program":32},{"pitch":36,"velocity":103,"startTime":90.738762,"endTime":91.03432799999999,"instrument":2,"program":32},{"pitch":38,"velocity":103,"startTime":91.03432799999999,"endTime":91.329894,"instrument":2,"program":32},{"pitch":38,"velocity":103,"startTime":91.329894,"endTime":91.62545999999999,"instrument":2,"program":32},{"pitch":38,"velocity":103,"startTime":91.62545999999999,"endTime":91.921026,"instrument":2,"program":32},{"pitch":38,"velocity":103,"startTime":91.921026,"endTime":92.21659199999999,"instrument":2,"program":32},{"pitch":43,"velocity":103,"startTime":92.21659199999999,"endTime":92.4875275,"instrument":2,"program":32},{"pitch":31,"velocity":103,"startTime":92.4382665,"endTime":92.512158,"instrument":2,"program":32},{"pitch":43,"velocity":103,"startTime":92.512158,"endTime":92.807724,"instrument":2,"program":32},{"pitch":43,"velocity":103,"startTime":92.807724,"endTime":93.10328999999999,"instrument":2,"program":32},{"pitch":38,"velocity":103,"startTime":93.10328999999999,"endTime":93.398856,"instrument":2,"program":32},{"pitch":31,"velocity":103,"startTime":93.398856,"endTime":93.74368299999999,"instrument":2,"program":32},{"pitch":38,"velocity":103,"startTime":93.69442199999999,"endTime":93.989988,"instrument":2,"program":32},{"pitch":31,"velocity":103,"startTime":93.989988,"endTime":94.28555399999999,"instrument":2,"program":32},{"pitch":31,"velocity":103,"startTime":94.28555399999999,"endTime":94.482598,"instrument":2,"program":32},{"pitch":31,"velocity":103,"startTime":94.5072285,"endTime":94.58112,"instrument":2,"program":32},{"pitch":43,"velocity":57,"startTime":94.6057505,"endTime":94.67964199999999},{"pitch":59,"velocity":57,"startTime":94.6057505,"endTime":94.67964199999999},{"pitch":62,"velocity":57,"startTime":94.6057505,"endTime":94.70427249999999},{"pitch":66,"velocity":57,"startTime":94.6057505,"endTime":94.67964199999999},{"pitch":43,"velocity":57,"startTime":95.39392649999999,"endTime":95.467818},{"pitch":55,"velocity":57,"startTime":95.39392649999999,"endTime":95.467818},{"pitch":59,"velocity":57,"startTime":95.39392649999999,"endTime":95.467818},{"pitch":62,"velocity":57,"startTime":95.39392649999999,"endTime":95.4431875},{"pitch":66,"velocity":57,"startTime":95.39392649999999,"endTime":95.467818},{"pitch":43,"velocity":57,"startTime":95.6894925,"endTime":96.92101749999999},{"pitch":59,"velocity":57,"startTime":95.6894925,"endTime":96.92101749999999},{"pitch":62,"velocity":57,"startTime":95.6894925,"endTime":96.92101749999999},{"pitch":65,"velocity":57,"startTime":95.6894925,"endTime":96.92101749999999},{"pitch":40,"velocity":57,"startTime":96.94564799999999,"endTime":97.0195395},{"pitch":56,"velocity":57,"startTime":96.94564799999999,"endTime":97.0195395},{"pitch":59,"velocity":57,"startTime":96.94564799999999,"endTime":97.04417},{"pitch":52,"velocity":57,"startTime":96.97027849999999,"endTime":97.0195395},{"pitch":62,"velocity":57,"startTime":96.97027849999999,"endTime":97.0195395},{"pitch":40,"velocity":57,"startTime":97.7584545,"endTime":97.783085},{"pitch":59,"velocity":57,"startTime":97.83234599999999,"endTime":97.93086799999999},{"pitch":62,"velocity":57,"startTime":97.83234599999999,"endTime":97.93086799999999},{"pitch":40,"velocity":57,"startTime":98.34958649999999,"endTime":98.42347799999999},{"pitch":59,"velocity":57,"startTime":98.34958649999999,"endTime":98.42347799999999},{"pitch":67,"velocity":57,"startTime":98.34958649999999,"endTime":98.42347799999999},{"pitch":52,"velocity":57,"startTime":98.37421699999999,"endTime":98.42347799999999},{"pitch":54,"velocity":57,"startTime":98.94071849999999,"endTime":98.98997949999999},{"pitch":59,"velocity":57,"startTime":98.94071849999999,"endTime":98.98997949999999},{"pitch":64,"velocity":57,"startTime":98.94071849999999,"endTime":98.98997949999999},{"pitch":36,"velocity":57,"startTime":99.2362845,"endTime":99.43332849999999},{"pitch":59,"velocity":57,"startTime":99.2362845,"endTime":99.43332849999999},{"pitch":60,"velocity":57,"startTime":99.2362845,"endTime":99.40869799999999},{"pitch":64,"velocity":57,"startTime":99.2362845,"endTime":99.40869799999999},{"pitch":38,"velocity":57,"startTime":100.4185485,"endTime":100.7633755},{"pitch":57,"velocity":57,"startTime":100.7141145,"endTime":100.788006},{"pitch":60,"velocity":57,"startTime":100.7141145,"endTime":100.7633755},{"pitch":64,"velocity":57,"startTime":100.7141145,"endTime":100.7633755},{"pitch":57,"velocity":57,"startTime":101.60081249999999,"endTime":101.7485955},{"pitch":64,"velocity":57,"startTime":101.60081249999999,"endTime":101.7485955},{"pitch":67,"velocity":57,"startTime":101.60081249999999,"endTime":101.7485955},{"pitch":74,"velocity":57,"startTime":101.60081249999999,"endTime":101.7485955},{"pitch":43,"velocity":57,"startTime":102.19194449999999,"endTime":102.265836},{"pitch":57,"velocity":57,"startTime":102.19194449999999,"endTime":102.265836},{"pitch":59,"velocity":57,"startTime":102.19194449999999,"endTime":102.265836},{"pitch":64,"velocity":57,"startTime":102.19194449999999,"endTime":102.265836},{"pitch":67,"velocity":57,"startTime":102.19194449999999,"endTime":102.265836},{"pitch":43,"velocity":57,"startTime":102.78307649999999,"endTime":102.8815985},{"pitch":64,"velocity":57,"startTime":102.78307649999999,"endTime":102.8815985},{"pitch":65,"velocity":57,"startTime":102.78307649999999,"endTime":102.906229},{"pitch":69,"velocity":57,"startTime":102.78307649999999,"endTime":102.8815985},{"pitch":57,"velocity":57,"startTime":103.3742085,"endTime":103.4481},{"pitch":64,"velocity":57,"startTime":103.3742085,"endTime":103.4481},{"pitch":71,"velocity":57,"startTime":103.3742085,"endTime":103.4481},{"pitch":43,"velocity":57,"startTime":103.398839,"endTime":103.4481},{"pitch":35,"velocity":80,"startTime":94.58112,"endTime":94.630381,"instrument":1,"isDrum":true},{"pitch":51,"velocity":80,"startTime":94.58112,"endTime":94.630381,"instrument":1,"isDrum":true},{"pitch":59,"velocity":80,"startTime":94.77816399999999,"endTime":94.85205549999999,"instrument":1,"isDrum":true},{"pitch":35,"velocity":80,"startTime":94.87668599999999,"endTime":94.925947,"instrument":1,"isDrum":true},{"pitch":44,"velocity":80,"startTime":94.87668599999999,"endTime":94.925947,"instrument":1,"isDrum":true},{"pitch":51,"velocity":80,"startTime":94.87668599999999,"endTime":94.925947,"instrument":1,"isDrum":true},{"pitch":56,"velocity":80,"startTime":94.87668599999999,"endTime":94.925947,"instrument":1,"isDrum":true},{"pitch":59,"velocity":80,"startTime":94.87668599999999,"endTime":94.925947,"instrument":1,"isDrum":true},{"pitch":59,"velocity":80,"startTime":95.07373,"endTime":95.1476215,"instrument":1,"isDrum":true},{"pitch":35,"velocity":80,"startTime":95.172252,"endTime":95.22151299999999,"instrument":1,"isDrum":true},{"pitch":59,"velocity":80,"startTime":95.172252,"endTime":95.22151299999999,"instrument":1,"isDrum":true},{"pitch":35,"velocity":80,"startTime":95.467818,"endTime":95.517079,"instrument":1,"isDrum":true},{"pitch":44,"velocity":80,"startTime":95.467818,"endTime":95.517079,"instrument":1,"isDrum":true},{"pitch":51,"velocity":80,"startTime":95.467818,"endTime":95.517079,"instrument":1,"isDrum":true},{"pitch":53,"velocity":80,"startTime":95.467818,"endTime":95.517079,"instrument":1,"isDrum":true},{"pitch":56,"velocity":80,"startTime":95.467818,"endTime":95.517079,"instrument":1,"isDrum":true},{"pitch":59,"velocity":80,"startTime":95.467818,"endTime":95.517079,"instrument":1,"isDrum":true},{"pitch":51,"velocity":80,"startTime":95.664862,"endTime":95.73875349999999,"instrument":1,"isDrum":true},{"pitch":35,"velocity":80,"startTime":95.76338399999999,"endTime":95.81264499999999,"instrument":1,"isDrum":true},{"pitch":51,"velocity":80,"startTime":95.76338399999999,"endTime":95.81264499999999,"instrument":1,"isDrum":true},{"pitch":35,"velocity":80,"startTime":96.05895,"endTime":96.108211,"instrument":1,"isDrum":true},{"pitch":44,"velocity":80,"startTime":96.05895,"endTime":96.108211,"instrument":1,"isDrum":true},{"pitch":51,"velocity":80,"startTime":96.05895,"endTime":96.108211,"instrument":1,"isDrum":true},{"pitch":53,"velocity":80,"startTime":96.05895,"endTime":96.108211,"instrument":1,"isDrum":true},{"pitch":56,"velocity":80,"startTime":96.05895,"endTime":96.108211,"instrument":1,"isDrum":true},{"pitch":59,"velocity":80,"startTime":96.05895,"endTime":96.108211,"instrument":1,"isDrum":true},{"pitch":51,"velocity":80,"startTime":96.25599399999999,"endTime":96.32988549999999,"instrument":1,"isDrum":true},{"pitch":35,"velocity":80,"startTime":96.35451599999999,"endTime":96.40377699999999,"instrument":1,"isDrum":true},{"pitch":51,"velocity":80,"startTime":96.35451599999999,"endTime":96.40377699999999,"instrument":1,"isDrum":true},{"pitch":35,"velocity":80,"startTime":96.650082,"endTime":96.699343,"instrument":1,"isDrum":true},{"pitch":44,"velocity":80,"startTime":96.650082,"endTime":96.699343,"instrument":1,"isDrum":true},{"pitch":51,"velocity":80,"startTime":96.650082,"endTime":96.699343,"instrument":1,"isDrum":true},{"pitch":56,"velocity":80,"startTime":96.650082,"endTime":96.699343,"instrument":1,"isDrum":true},{"pitch":59,"velocity":80,"startTime":96.650082,"endTime":96.699343,"instrument":1,"isDrum":true},{"pitch":51,"velocity":80,"startTime":96.84712599999999,"endTime":96.92101749999999,"instrument":1,"isDrum":true},{"pitch":35,"velocity":80,"startTime":96.94564799999999,"endTime":96.99490899999999,"instrument":1,"isDrum":true},{"pitch":51,"velocity":80,"startTime":96.94564799999999,"endTime":96.99490899999999,"instrument":1,"isDrum":true},{"pitch":35,"velocity":80,"startTime":97.241214,"endTime":97.29047499999999,"instrument":1,"isDrum":true},{"pitch":44,"velocity":80,"startTime":97.241214,"endTime":97.29047499999999,"instrument":1,"isDrum":true},{"pitch":51,"velocity":80,"startTime":97.241214,"endTime":97.29047499999999,"instrument":1,"isDrum":true},{"pitch":56,"velocity":80,"startTime":97.241214,"endTime":97.29047499999999,"instrument":1,"isDrum":true},{"pitch":59,"velocity":80,"startTime":97.241214,"endTime":97.29047499999999,"instrument":1,"isDrum":true},{"pitch":51,"velocity":80,"startTime":97.43825799999999,"endTime":97.51214949999999,"instrument":1,"isDrum":true},{"pitch":35,"velocity":80,"startTime":97.53678,"endTime":97.586041,"instrument":1,"isDrum":true},{"pitch":51,"velocity":80,"startTime":97.53678,"endTime":97.586041,"instrument":1,"isDrum":true},{"pitch":35,"velocity":80,"startTime":97.83234599999999,"endTime":97.88160699999999,"instrument":1,"isDrum":true},{"pitch":44,"velocity":80,"startTime":97.83234599999999,"endTime":97.88160699999999,"instrument":1,"isDrum":true},{"pitch":51,"velocity":80,"startTime":97.83234599999999,"endTime":97.88160699999999,"instrument":1,"isDrum":true},{"pitch":56,"velocity":80,"startTime":97.83234599999999,"endTime":97.88160699999999,"instrument":1,"isDrum":true},{"pitch":59,"velocity":80,"startTime":97.83234599999999,"endTime":97.88160699999999,"instrument":1,"isDrum":true},{"pitch":51,"velocity":80,"startTime":98.02938999999999,"endTime":98.1032815,"instrument":1,"isDrum":true},{"pitch":35,"velocity":80,"startTime":98.127912,"endTime":98.177173,"instrument":1,"isDrum":true},{"pitch":51,"velocity":80,"startTime":98.127912,"endTime":98.177173,"instrument":1,"isDrum":true},{"pitch":35,"velocity":80,"startTime":98.42347799999999,"endTime":98.47273899999999,"instrument":1,"isDrum":true},{"pitch":44,"velocity":80,"startTime":98.42347799999999,"endTime":98.47273899999999,"instrument":1,"isDrum":true},{"pitch":51,"velocity":80,"startTime":98.42347799999999,"endTime":98.47273899999999,"instrument":1,"isDrum":true},{"pitch":56,"velocity":80,"startTime":98.42347799999999,"endTime":98.47273899999999,"instrument":1,"isDrum":true},{"pitch":59,"velocity":80,"startTime":98.42347799999999,"endTime":98.47273899999999,"instrument":1,"isDrum":true},{"pitch":51,"velocity":80,"startTime":98.620522,"endTime":98.6944135,"instrument":1,"isDrum":true},{"pitch":35,"velocity":80,"startTime":98.719044,"endTime":98.768305,"instrument":1,"isDrum":true},{"pitch":51,"velocity":80,"startTime":98.719044,"endTime":98.768305,"instrument":1,"isDrum":true},{"pitch":59,"velocity":80,"startTime":98.719044,"endTime":98.768305,"instrument":1,"isDrum":true},{"pitch":35,"velocity":80,"startTime":99.01460999999999,"endTime":99.06387099999999,"instrument":1,"isDrum":true},{"pitch":44,"velocity":80,"startTime":99.01460999999999,"endTime":99.06387099999999,"instrument":1,"isDrum":true},{"pitch":51,"velocity":80,"startTime":99.01460999999999,"endTime":99.06387099999999,"instrument":1,"isDrum":true},{"pitch":56,"velocity":80,"startTime":99.01460999999999,"endTime":99.06387099999999,"instrument":1,"isDrum":true},{"pitch":59,"velocity":80,"startTime":99.01460999999999,"endTime":99.06387099999999,"instrument":1,"isDrum":true},{"pitch":51,"velocity":80,"startTime":99.211654,"endTime":99.2855455,"instrument":1,"isDrum":true},{"pitch":35,"velocity":80,"startTime":99.310176,"endTime":99.359437,"instrument":1,"isDrum":true},{"pitch":51,"velocity":80,"startTime":99.310176,"endTime":99.359437,"instrument":1,"isDrum":true},{"pitch":59,"velocity":80,"startTime":99.310176,"endTime":99.359437,"instrument":1,"isDrum":true},{"pitch":35,"velocity":80,"startTime":99.60574199999999,"endTime":99.655003,"instrument":1,"isDrum":true},{"pitch":44,"velocity":80,"startTime":99.60574199999999,"endTime":99.655003,"instrument":1,"isDrum":true},{"pitch":51,"velocity":80,"startTime":99.60574199999999,"endTime":99.655003,"instrument":1,"isDrum":true},{"pitch":56,"velocity":80,"startTime":99.60574199999999,"endTime":99.655003,"instrument":1,"isDrum":true},{"pitch":59,"velocity":80,"startTime":99.60574199999999,"endTime":99.655003,"instrument":1,"isDrum":true},{"pitch":51,"velocity":80,"startTime":99.802786,"endTime":99.8766775,"instrument":1,"isDrum":true},{"pitch":35,"velocity":80,"startTime":100.09835199999999,"endTime":100.1722435,"instrument":1,"isDrum":true},{"pitch":44,"velocity":80,"startTime":100.196874,"endTime":100.246135,"instrument":1,"isDrum":true},{"pitch":51,"velocity":80,"startTime":100.196874,"endTime":100.246135,"instrument":1,"isDrum":true},{"pitch":59,"velocity":80,"startTime":100.196874,"endTime":100.246135,"instrument":1,"isDrum":true},{"pitch":62,"velocity":80,"startTime":100.196874,"endTime":100.246135,"instrument":1,"isDrum":true},{"pitch":59,"velocity":80,"startTime":100.295396,"endTime":100.3200265,"instrument":1,"isDrum":true},{"pitch":35,"velocity":80,"startTime":100.393918,"endTime":100.4185485,"instrument":1,"isDrum":true},{"pitch":39,"velocity":80,"startTime":100.393918,"endTime":100.4185485,"instrument":1,"isDrum":true},{"pitch":51,"velocity":80,"startTime":100.393918,"endTime":100.4185485,"instrument":1,"isDrum":true},{"pitch":59,"velocity":80,"startTime":100.393918,"endTime":100.4185485,"instrument":1,"isDrum":true},{"pitch":35,"velocity":80,"startTime":100.49243999999999,"endTime":100.54170099999999,"instrument":1,"isDrum":true},{"pitch":51,"velocity":80,"startTime":100.49243999999999,"endTime":100.54170099999999,"instrument":1,"isDrum":true},{"pitch":35,"velocity":80,"startTime":100.788006,"endTime":100.837267,"instrument":1,"isDrum":true},{"pitch":44,"velocity":80,"startTime":100.788006,"endTime":100.837267,"instrument":1,"isDrum":true},{"pitch":51,"velocity":80,"startTime":100.788006,"endTime":100.837267,"instrument":1,"isDrum":true},{"pitch":56,"velocity":80,"startTime":100.788006,"endTime":100.837267,"instrument":1,"isDrum":true},{"pitch":59,"velocity":80,"startTime":100.788006,"endTime":100.837267,"instrument":1,"isDrum":true},{"pitch":51,"velocity":80,"startTime":100.98504999999999,"endTime":101.05894149999999,"instrument":1,"isDrum":true},{"pitch":51,"velocity":80,"startTime":101.08357199999999,"endTime":101.13283299999999,"instrument":1,"isDrum":true},{"pitch":59,"velocity":80,"startTime":101.08357199999999,"endTime":101.13283299999999,"instrument":1,"isDrum":true},{"pitch":35,"velocity":80,"startTime":101.379138,"endTime":101.428399,"instrument":1,"isDrum":true},{"pitch":44,"velocity":80,"startTime":101.379138,"endTime":101.428399,"instrument":1,"isDrum":true},{"pitch":51,"velocity":80,"startTime":101.379138,"endTime":101.428399,"instrument":1,"isDrum":true},{"pitch":56,"velocity":80,"startTime":101.379138,"endTime":101.428399,"instrument":1,"isDrum":true},{"pitch":59,"velocity":80,"startTime":101.379138,"endTime":101.428399,"instrument":1,"isDrum":true},{"pitch":51,"velocity":80,"startTime":101.57618199999999,"endTime":101.65007349999999,"instrument":1,"isDrum":true},{"pitch":43,"velocity":103,"startTime":94.58112,"endTime":94.82742499999999,"instrument":2,"program":32},{"pitch":31,"velocity":103,"startTime":94.80279449999999,"endTime":94.85205549999999,"instrument":2,"program":32},{"pitch":43,"velocity":103,"startTime":94.87668599999999,"endTime":95.172252,"instrument":2,"program":32},{"pitch":47,"velocity":103,"startTime":95.172252,"endTime":95.4431875,"instrument":2,"program":32},{"pitch":38,"velocity":103,"startTime":95.39392649999999,"endTime":95.4431875,"instrument":2,"program":32},{"pitch":50,"velocity":103,"startTime":95.467818,"endTime":95.73875349999999,"instrument":2,"program":32},{"pitch":38,"velocity":103,"startTime":95.6894925,"endTime":95.71412299999999,"instrument":2,"program":32},{"pitch":31,"velocity":103,"startTime":95.76338399999999,"endTime":96.108211,"instrument":2,"program":32},{"pitch":38,"velocity":103,"startTime":96.05895,"endTime":96.35451599999999,"instrument":2,"program":32},{"pitch":35,"velocity":103,"startTime":96.35451599999999,"endTime":96.650082,"instrument":2,"program":32},{"pitch":38,"velocity":103,"startTime":96.650082,"endTime":96.94564799999999,"instrument":2,"program":32},{"pitch":28,"velocity":103,"startTime":96.94564799999999,"endTime":97.1673225,"instrument":2,"program":32},{"pitch":28,"velocity":103,"startTime":97.1673225,"endTime":97.2165835,"instrument":2,"program":32},{"pitch":35,"velocity":103,"startTime":97.241214,"endTime":97.53678,"instrument":2,"program":32},{"pitch":28,"velocity":103,"startTime":97.53678,"endTime":97.733824,"instrument":2,"program":32},{"pitch":28,"velocity":103,"startTime":97.7584545,"endTime":97.80771549999999,"instrument":2,"program":32},{"pitch":28,"velocity":103,"startTime":97.83234599999999,"endTime":98.1032815,"instrument":2,"program":32},{"pitch":28,"velocity":103,"startTime":98.0540205,"endTime":98.078651,"instrument":2,"program":32},{"pitch":28,"velocity":103,"startTime":98.127912,"endTime":98.719044,"instrument":2,"program":32},{"pitch":35,"velocity":103,"startTime":98.42347799999999,"endTime":98.47273899999999,"instrument":2,"program":32},{"pitch":40,"velocity":103,"startTime":98.719044,"endTime":99.01460999999999,"instrument":2,"program":32},{"pitch":37,"velocity":103,"startTime":99.01460999999999,"endTime":99.310176,"instrument":2,"program":32},{"pitch":36,"velocity":103,"startTime":99.310176,"endTime":99.60574199999999,"instrument":2,"program":32},{"pitch":43,"velocity":103,"startTime":99.60574199999999,"endTime":99.90130799999999,"instrument":2,"program":32},{"pitch":43,"velocity":103,"startTime":99.90130799999999,"endTime":100.09835199999999,"instrument":2,"program":32},{"pitch":31,"velocity":103,"startTime":100.12298249999999,"endTime":100.1722435,"instrument":2,"program":32},{"pitch":43,"velocity":103,"startTime":100.196874,"endTime":100.4185485,"instrument":2,"program":32},{"pitch":31,"velocity":103,"startTime":100.4185485,"endTime":100.46780949999999,"instrument":2,"program":32},{"pitch":38,"velocity":103,"startTime":100.49243999999999,"endTime":100.837267,"instrument":2,"program":32},{"pitch":33,"velocity":103,"startTime":100.788006,"endTime":101.10820249999999,"instrument":2,"program":32},{"pitch":38,"velocity":103,"startTime":101.08357199999999,"endTime":101.67470399999999,"instrument":2,"program":32},{"pitch":38,"velocity":103,"startTime":101.379138,"endTime":101.428399,"instrument":2,"program":32},{"pitch":43,"velocity":103,"startTime":101.67470399999999,"endTime":101.921009,"instrument":2,"program":32},{"pitch":35,"velocity":103,"startTime":101.8963785,"endTime":101.9456395,"instrument":2,"program":32},{"pitch":43,"velocity":103,"startTime":101.97027,"endTime":102.19194449999999,"instrument":2,"program":32},{"pitch":38,"velocity":103,"startTime":102.19194449999999,"endTime":102.24120549999999,"instrument":2,"program":32},{"pitch":47,"velocity":103,"startTime":102.265836,"endTime":102.56140199999999,"instrument":2,"program":32},{"pitch":43,"velocity":103,"startTime":102.56140199999999,"endTime":102.75844599999999,"instrument":2,"program":32},{"pitch":31,"velocity":103,"startTime":102.78307649999999,"endTime":102.807707,"instrument":2,"program":32},{"pitch":43,"velocity":103,"startTime":102.856968,"endTime":103.12790349999999,"instrument":2,"program":32},{"pitch":31,"velocity":103,"startTime":103.07864249999999,"endTime":103.12790349999999,"instrument":2,"program":32},{"pitch":50,"velocity":103,"startTime":103.15253399999999,"endTime":103.3742085,"instrument":2,"program":32},{"pitch":31,"velocity":103,"startTime":103.3742085,"endTime":103.4234695,"instrument":2,"program":32},{"pitch":38,"velocity":103,"startTime":103.4481,"endTime":103.66977449999999,"instrument":2,"program":32},{"pitch":31,"velocity":103,"startTime":103.66977449999999,"endTime":103.71903549999999,"instrument":2,"program":32},{"pitch":43,"velocity":103,"startTime":103.74366599999999,"endTime":104.039232,"instrument":2,"program":32},{"pitch":43,"velocity":57,"startTime":104.33479799999999,"endTime":104.43332},{"pitch":55,"velocity":57,"startTime":104.33479799999999,"endTime":104.43332},{"pitch":59,"velocity":57,"startTime":104.33479799999999,"endTime":104.43332},{"pitch":62,"velocity":57,"startTime":104.33479799999999,"endTime":104.43332},{"pitch":43,"velocity":57,"startTime":104.85203849999999,"endTime":104.9012995},{"pitch":59,"velocity":57,"startTime":104.85203849999999,"endTime":104.9012995},{"pitch":62,"velocity":57,"startTime":104.85203849999999,"endTime":104.9012995},{"pitch":55,"velocity":57,"startTime":104.87666899999999,"endTime":104.9012995},{"pitch":43,"velocity":57,"startTime":105.22149599999999,"endTime":105.32001799999999},{"pitch":59,"velocity":57,"startTime":105.22149599999999,"endTime":105.34464849999999},{"pitch":62,"velocity":57,"startTime":105.22149599999999,"endTime":105.34464849999999},{"pitch":69,"velocity":57,"startTime":105.22149599999999,"endTime":105.32001799999999},{"pitch":43,"velocity":57,"startTime":105.73873649999999,"endTime":105.81262799999999},{"pitch":59,"velocity":57,"startTime":105.73873649999999,"endTime":105.83725849999999},{"pitch":62,"velocity":57,"startTime":105.73873649999999,"endTime":105.83725849999999},{"pitch":69,"velocity":57,"startTime":105.73873649999999,"endTime":105.83725849999999},{"pitch":43,"velocity":57,"startTime":106.0343025,"endTime":106.108194},{"pitch":59,"velocity":57,"startTime":106.0343025,"endTime":106.108194},{"pitch":62,"velocity":57,"startTime":106.0343025,"endTime":106.1328245},{"pitch":69,"velocity":57,"startTime":106.0343025,"endTime":106.108194},{"pitch":40,"velocity":57,"startTime":106.6254345,"endTime":107.51213249999999},{"pitch":59,"velocity":57,"startTime":106.6254345,"endTime":107.51213249999999},{"pitch":62,"velocity":57,"startTime":106.6254345,"endTime":107.51213249999999},{"pitch":66,"velocity":57,"startTime":106.6254345,"endTime":107.51213249999999},{"pitch":40,"velocity":57,"startTime":107.80769849999999,"endTime":108.719027},{"pitch":59,"velocity":57,"startTime":107.80769849999999,"endTime":108.719027},{"pitch":63,"velocity":57,"startTime":107.80769849999999,"endTime":108.6943965},{"pitch":67,"velocity":57,"startTime":107.80769849999999,"endTime":108.669766},{"pitch":48,"velocity":57,"startTime":108.98996249999999,"endTime":109.03922349999999},{"pitch":59,"velocity":57,"startTime":108.98996249999999,"endTime":109.03922349999999},{"pitch":62,"velocity":57,"startTime":108.98996249999999,"endTime":109.03922349999999},{"pitch":43,"velocity":57,"startTime":111.3544905,"endTime":112.21655799999999},{"pitch":57,"velocity":57,"startTime":111.3544905,"endTime":112.21655799999999},{"pitch":59,"velocity":57,"startTime":111.3544905,"endTime":112.21655799999999},{"pitch":62,"velocity":57,"startTime":111.3544905,"endTime":112.21655799999999},{"pitch":43,"velocity":57,"startTime":112.24118849999999,"endTime":113.398822},{"pitch":59,"velocity":57,"startTime":112.24118849999999,"endTime":113.398822},{"pitch":62,"velocity":57,"startTime":112.24118849999999,"endTime":113.398822},{"pitch":65,"velocity":57,"startTime":112.24118849999999,"endTime":113.398822},{"pitch":50,"velocity":57,"startTime":113.4234525,"endTime":113.497344},{"pitch":59,"velocity":57,"startTime":113.4234525,"endTime":113.497344},{"pitch":62,"velocity":57,"startTime":113.4234525,"endTime":113.497344},{"pitch":66,"velocity":57,"startTime":113.4234525,"endTime":113.497344},{"pitch":35,"velocity":80,"startTime":104.039232,"endTime":104.088493,"instrument":1,"isDrum":true},{"pitch":44,"velocity":80,"startTime":104.039232,"endTime":104.088493,"instrument":1,"isDrum":true},{"pitch":51,"velocity":80,"startTime":104.039232,"endTime":104.088493,"instrument":1,"isDrum":true},{"pitch":53,"velocity":80,"startTime":104.039232,"endTime":104.088493,"instrument":1,"isDrum":true},{"pitch":56,"velocity":80,"startTime":104.039232,"endTime":104.088493,"instrument":1,"isDrum":true},{"pitch":51,"velocity":80,"startTime":104.23627599999999,"endTime":104.31016749999999,"instrument":1,"isDrum":true},{"pitch":35,"velocity":80,"startTime":104.33479799999999,"endTime":104.384059,"instrument":1,"isDrum":true},{"pitch":44,"velocity":80,"startTime":104.33479799999999,"endTime":104.384059,"instrument":1,"isDrum":true},{"pitch":51,"velocity":80,"startTime":104.33479799999999,"endTime":104.384059,"instrument":1,"isDrum":true},{"pitch":56,"velocity":80,"startTime":104.33479799999999,"endTime":104.384059,"instrument":1,"isDrum":true},{"pitch":51,"velocity":80,"startTime":104.531842,"endTime":104.6057335,"instrument":1,"isDrum":true},{"pitch":35,"velocity":80,"startTime":104.63036399999999,"endTime":104.67962499999999,"instrument":1,"isDrum":true},{"pitch":44,"velocity":80,"startTime":104.63036399999999,"endTime":104.67962499999999,"instrument":1,"isDrum":true},{"pitch":51,"velocity":80,"startTime":104.63036399999999,"endTime":104.67962499999999,"instrument":1,"isDrum":true},{"pitch":53,"velocity":80,"startTime":104.63036399999999,"endTime":104.67962499999999,"instrument":1,"isDrum":true},{"pitch":51,"velocity":80,"startTime":104.82740799999999,"endTime":104.9012995,"instrument":1,"isDrum":true},{"pitch":35,"velocity":80,"startTime":104.92593,"endTime":104.975191,"instrument":1,"isDrum":true},{"pitch":44,"velocity":80,"startTime":104.92593,"endTime":104.975191,"instrument":1,"isDrum":true},{"pitch":51,"velocity":80,"startTime":104.92593,"endTime":104.975191,"instrument":1,"isDrum":true},{"pitch":56,"velocity":80,"startTime":104.92593,"endTime":104.975191,"instrument":1,"isDrum":true},{"pitch":51,"velocity":80,"startTime":105.122974,"endTime":105.19686549999999,"instrument":1,"isDrum":true},{"pitch":35,"velocity":80,"startTime":105.22149599999999,"endTime":105.27075699999999,"instrument":1,"isDrum":true},{"pitch":44,"velocity":80,"startTime":105.22149599999999,"endTime":105.27075699999999,"instrument":1,"isDrum":true},{"pitch":51,"velocity":80,"startTime":105.22149599999999,"endTime":105.27075699999999,"instrument":1,"isDrum":true},{"pitch":53,"velocity":80,"startTime":105.22149599999999,"endTime":105.27075699999999,"instrument":1,"isDrum":true},{"pitch":51,"velocity":80,"startTime":105.41854,"endTime":105.4924315,"instrument":1,"isDrum":true},{"pitch":35,"velocity":80,"startTime":105.517062,"endTime":105.566323,"instrument":1,"isDrum":true},{"pitch":38,"velocity":80,"startTime":105.517062,"endTime":105.566323,"instrument":1,"isDrum":true},{"pitch":44,"velocity":80,"startTime":105.517062,"endTime":105.566323,"instrument":1,"isDrum":true},{"pitch":51,"velocity":80,"startTime":105.517062,"endTime":105.566323,"instrument":1,"isDrum":true},{"pitch":53,"velocity":80,"startTime":105.517062,"endTime":105.566323,"instrument":1,"isDrum":true},{"pitch":56,"velocity":80,"startTime":105.517062,"endTime":105.566323,"instrument":1,"isDrum":true},{"pitch":51,"velocity":80,"startTime":105.71410599999999,"endTime":105.78799749999999,"instrument":1,"isDrum":true},{"pitch":35,"velocity":80,"startTime":105.81262799999999,"endTime":105.86188899999999,"instrument":1,"isDrum":true},{"pitch":44,"velocity":80,"startTime":105.81262799999999,"endTime":105.86188899999999,"instrument":1,"isDrum":true},{"pitch":51,"velocity":80,"startTime":105.81262799999999,"endTime":105.86188899999999,"instrument":1,"isDrum":true},{"pitch":53,"velocity":80,"startTime":105.81262799999999,"endTime":105.86188899999999,"instrument":1,"isDrum":true},{"pitch":51,"velocity":80,"startTime":106.009672,"endTime":106.0835635,"instrument":1,"isDrum":true},{"pitch":35,"velocity":80,"startTime":106.108194,"endTime":106.157455,"instrument":1,"isDrum":true},{"pitch":38,"velocity":80,"startTime":106.108194,"endTime":106.157455,"instrument":1,"isDrum":true},{"pitch":44,"velocity":80,"startTime":106.108194,"endTime":106.157455,"instrument":1,"isDrum":true},{"pitch":51,"velocity":80,"startTime":106.108194,"endTime":106.157455,"instrument":1,"isDrum":true},{"pitch":53,"velocity":80,"startTime":106.108194,"endTime":106.157455,"instrument":1,"isDrum":true},{"pitch":53,"velocity":80,"startTime":106.108194,"endTime":106.157455,"instrument":1,"isDrum":true},{"pitch":51,"velocity":80,"startTime":106.30523799999999,"endTime":106.37912949999999,"instrument":1,"isDrum":true},{"pitch":35,"velocity":80,"startTime":106.40375999999999,"endTime":106.45302099999999,"instrument":1,"isDrum":true},{"pitch":44,"velocity":80,"startTime":106.40375999999999,"endTime":106.45302099999999,"instrument":1,"isDrum":true},{"pitch":51,"velocity":80,"startTime":106.40375999999999,"endTime":106.45302099999999,"instrument":1,"isDrum":true},{"pitch":53,"velocity":80,"startTime":106.40375999999999,"endTime":106.45302099999999,"instrument":1,"isDrum":true},{"pitch":51,"velocity":80,"startTime":106.600804,"endTime":106.6746955,"instrument":1,"isDrum":true},{"pitch":35,"velocity":80,"startTime":106.699326,"endTime":106.74858699999999,"instrument":1,"isDrum":true},{"pitch":38,"velocity":80,"startTime":106.699326,"endTime":106.74858699999999,"instrument":1,"isDrum":true},{"pitch":44,"velocity":80,"startTime":106.699326,"endTime":106.74858699999999,"instrument":1,"isDrum":true},{"pitch":51,"velocity":80,"startTime":106.699326,"endTime":106.74858699999999,"instrument":1,"isDrum":true},{"pitch":53,"velocity":80,"startTime":106.699326,"endTime":106.74858699999999,"instrument":1,"isDrum":true},{"pitch":54,"velocity":80,"startTime":106.699326,"endTime":106.74858699999999,"instrument":1,"isDrum":true},{"pitch":51,"velocity":80,"startTime":106.89636999999999,"endTime":106.97026149999999,"instrument":1,"isDrum":true},{"pitch":35,"velocity":80,"startTime":106.994892,"endTime":107.044153,"instrument":1,"isDrum":true},{"pitch":44,"velocity":80,"startTime":106.994892,"endTime":107.044153,"instrument":1,"isDrum":true},{"pitch":53,"velocity":80,"startTime":106.994892,"endTime":107.044153,"instrument":1,"isDrum":true},{"pitch":51,"velocity":80,"startTime":107.191936,"endTime":107.26582749999999,"instrument":1,"isDrum":true},{"pitch":35,"velocity":80,"startTime":107.29045799999999,"endTime":107.33971899999999,"instrument":1,"isDrum":true},{"pitch":38,"velocity":80,"startTime":107.29045799999999,"endTime":107.33971899999999,"instrument":1,"isDrum":true},{"pitch":44,"velocity":80,"startTime":107.29045799999999,"endTime":107.33971899999999,"instrument":1,"isDrum":true},{"pitch":51,"velocity":80,"startTime":107.29045799999999,"endTime":107.33971899999999,"instrument":1,"isDrum":true},{"pitch":53,"velocity":80,"startTime":107.29045799999999,"endTime":107.33971899999999,"instrument":1,"isDrum":true},{"pitch":54,"velocity":80,"startTime":107.29045799999999,"endTime":107.33971899999999,"instrument":1,"isDrum":true},{"pitch":51,"velocity":80,"startTime":107.48750199999999,"endTime":107.5613935,"instrument":1,"isDrum":true},{"pitch":35,"velocity":80,"startTime":107.586024,"endTime":107.635285,"instrument":1,"isDrum":true},{"pitch":44,"velocity":80,"startTime":107.586024,"endTime":107.635285,"instrument":1,"isDrum":true},{"pitch":53,"velocity":80,"startTime":107.586024,"endTime":107.635285,"instrument":1,"isDrum":true},{"pitch":51,"velocity":80,"startTime":107.78306799999999,"endTime":107.85695949999999,"instrument":1,"isDrum":true},{"pitch":35,"velocity":80,"startTime":107.88158999999999,"endTime":107.93085099999999,"instrument":1,"isDrum":true},{"pitch":38,"velocity":80,"startTime":107.88158999999999,"endTime":107.93085099999999,"instrument":1,"isDrum":true},{"pitch":44,"velocity":80,"startTime":107.88158999999999,"endTime":107.93085099999999,"instrument":1,"isDrum":true},{"pitch":53,"velocity":80,"startTime":107.88158999999999,"endTime":107.93085099999999,"instrument":1,"isDrum":true},{"pitch":54,"velocity":80,"startTime":107.88158999999999,"endTime":107.93085099999999,"instrument":1,"isDrum":true},{"pitch":51,"velocity":80,"startTime":108.078634,"endTime":108.1525255,"instrument":1,"isDrum":true},{"pitch":35,"velocity":80,"startTime":108.177156,"endTime":108.226417,"instrument":1,"isDrum":true},{"pitch":44,"velocity":80,"startTime":108.177156,"endTime":108.226417,"instrument":1,"isDrum":true},{"pitch":53,"velocity":80,"startTime":108.177156,"endTime":108.226417,"instrument":1,"isDrum":true},{"pitch":35,"velocity":80,"startTime":108.47272199999999,"endTime":108.52198299999999,"instrument":1,"isDrum":true},{"pitch":38,"velocity":80,"startTime":108.47272199999999,"endTime":108.52198299999999,"instrument":1,"isDrum":true},{"pitch":44,"velocity":80,"startTime":108.47272199999999,"endTime":108.52198299999999,"instrument":1,"isDrum":true},{"pitch":51,"velocity":80,"startTime":108.47272199999999,"endTime":108.52198299999999,"instrument":1,"isDrum":true},{"pitch":53,"velocity":80,"startTime":108.47272199999999,"endTime":108.52198299999999,"instrument":1,"isDrum":true},{"pitch":54,"velocity":80,"startTime":108.47272199999999,"endTime":108.52198299999999,"instrument":1,"isDrum":true},{"pitch":51,"velocity":80,"startTime":108.669766,"endTime":108.7436575,"instrument":1,"isDrum":true},{"pitch":35,"velocity":80,"startTime":108.768288,"endTime":108.81754899999999,"instrument":1,"isDrum":true},{"pitch":44,"velocity":80,"startTime":108.768288,"endTime":108.81754899999999,"instrument":1,"isDrum":true},{"pitch":51,"velocity":80,"startTime":108.768288,"endTime":108.81754899999999,"instrument":1,"isDrum":true},{"pitch":53,"velocity":80,"startTime":108.768288,"endTime":108.81754899999999,"instrument":1,"isDrum":true},{"pitch":51,"velocity":80,"startTime":108.96533199999999,"endTime":109.03922349999999,"instrument":1,"isDrum":true},{"pitch":35,"velocity":80,"startTime":109.06385399999999,"endTime":109.113115,"instrument":1,"isDrum":true},{"pitch":38,"velocity":80,"startTime":109.06385399999999,"endTime":109.113115,"instrument":1,"isDrum":true},{"pitch":44,"velocity":80,"startTime":109.06385399999999,"endTime":109.113115,"instrument":1,"isDrum":true},{"pitch":51,"velocity":80,"startTime":109.06385399999999,"endTime":109.113115,"instrument":1,"isDrum":true},{"pitch":53,"velocity":80,"startTime":109.06385399999999,"endTime":109.113115,"instrument":1,"isDrum":true},{"pitch":51,"velocity":80,"startTime":109.260898,"endTime":109.3347895,"instrument":1,"isDrum":true},{"pitch":35,"velocity":80,"startTime":109.35941999999999,"endTime":109.40868099999999,"instrument":1,"isDrum":true},{"pitch":44,"velocity":80,"startTime":109.35941999999999,"endTime":109.40868099999999,"instrument":1,"isDrum":true},{"pitch":51,"velocity":80,"startTime":109.35941999999999,"endTime":109.40868099999999,"instrument":1,"isDrum":true},{"pitch":53,"velocity":80,"startTime":109.35941999999999,"endTime":109.40868099999999,"instrument":1,"isDrum":true},{"pitch":51,"velocity":80,"startTime":109.55646399999999,"endTime":109.6303555,"instrument":1,"isDrum":true},{"pitch":35,"velocity":80,"startTime":109.654986,"endTime":109.704247,"instrument":1,"isDrum":true},{"pitch":38,"velocity":80,"startTime":109.654986,"endTime":109.704247,"instrument":1,"isDrum":true},{"pitch":44,"velocity":80,"startTime":109.654986,"endTime":109.704247,"instrument":1,"isDrum":true},{"pitch":51,"velocity":80,"startTime":109.654986,"endTime":109.704247,"instrument":1,"isDrum":true},{"pitch":53,"velocity":80,"startTime":109.654986,"endTime":109.704247,"instrument":1,"isDrum":true},{"pitch":54,"velocity":80,"startTime":109.654986,"endTime":109.704247,"instrument":1,"isDrum":true},{"pitch":51,"velocity":80,"startTime":109.85203,"endTime":109.92592149999999,"instrument":1,"isDrum":true},{"pitch":35,"velocity":80,"startTime":109.95055199999999,"endTime":109.99981299999999,"instrument":1,"isDrum":true},{"pitch":44,"velocity":80,"startTime":109.95055199999999,"endTime":109.99981299999999,"instrument":1,"isDrum":true},{"pitch":51,"velocity":80,"startTime":109.95055199999999,"endTime":109.99981299999999,"instrument":1,"isDrum":true},{"pitch":53,"velocity":80,"startTime":109.95055199999999,"endTime":109.99981299999999,"instrument":1,"isDrum":true},{"pitch":51,"velocity":80,"startTime":110.147596,"endTime":110.2214875,"instrument":1,"isDrum":true},{"pitch":35,"velocity":80,"startTime":110.246118,"endTime":110.295379,"instrument":1,"isDrum":true},{"pitch":38,"velocity":80,"startTime":110.246118,"endTime":110.295379,"instrument":1,"isDrum":true},{"pitch":44,"velocity":80,"startTime":110.246118,"endTime":110.295379,"instrument":1,"isDrum":true},{"pitch":51,"velocity":80,"startTime":110.246118,"endTime":110.295379,"instrument":1,"isDrum":true},{"pitch":53,"velocity":80,"startTime":110.246118,"endTime":110.295379,"instrument":1,"isDrum":true},{"pitch":54,"velocity":80,"startTime":110.246118,"endTime":110.295379,"instrument":1,"isDrum":true},{"pitch":51,"velocity":80,"startTime":110.44316199999999,"endTime":110.51705349999999,"instrument":1,"isDrum":true},{"pitch":35,"velocity":80,"startTime":110.54168399999999,"endTime":110.59094499999999,"instrument":1,"isDrum":true},{"pitch":44,"velocity":80,"startTime":110.54168399999999,"endTime":110.59094499999999,"instrument":1,"isDrum":true},{"pitch":51,"velocity":80,"startTime":110.54168399999999,"endTime":110.59094499999999,"instrument":1,"isDrum":true},{"pitch":53,"velocity":80,"startTime":110.54168399999999,"endTime":110.59094499999999,"instrument":1,"isDrum":true},{"pitch":51,"velocity":80,"startTime":110.738728,"endTime":110.8126195,"instrument":1,"isDrum":true},{"pitch":35,"velocity":80,"startTime":110.83725,"endTime":110.886511,"instrument":1,"isDrum":true},{"pitch":38,"velocity":80,"startTime":110.83725,"endTime":110.886511,"instrument":1,"isDrum":true},{"pitch":44,"velocity":80,"startTime":110.83725,"endTime":110.886511,"instrument":1,"isDrum":true},{"pitch":51,"velocity":80,"startTime":110.83725,"endTime":110.886511,"instrument":1,"isDrum":true},{"pitch":53,"velocity":80,"startTime":110.83725,"endTime":110.886511,"instrument":1,"isDrum":true},{"pitch":54,"velocity":80,"startTime":110.83725,"endTime":110.886511,"instrument":1,"isDrum":true},{"pitch":51,"velocity":80,"startTime":111.03429399999999,"endTime":111.10818549999999,"instrument":1,"isDrum":true},{"pitch":35,"velocity":80,"startTime":111.13281599999999,"endTime":111.18207699999999,"instrument":1,"isDrum":true},{"pitch":44,"velocity":80,"startTime":111.13281599999999,"endTime":111.18207699999999,"instrument":1,"isDrum":true},{"pitch":51,"velocity":80,"startTime":111.13281599999999,"endTime":111.18207699999999,"instrument":1,"isDrum":true},{"pitch":53,"velocity":80,"startTime":111.13281599999999,"endTime":111.18207699999999,"instrument":1,"isDrum":true},{"pitch":51,"velocity":80,"startTime":111.32986,"endTime":111.4037515,"instrument":1,"isDrum":true},{"pitch":35,"velocity":80,"startTime":111.428382,"endTime":111.47764299999999,"instrument":1,"isDrum":true},{"pitch":38,"velocity":80,"startTime":111.428382,"endTime":111.47764299999999,"instrument":1,"isDrum":true},{"pitch":44,"velocity":80,"startTime":111.428382,"endTime":111.47764299999999,"instrument":1,"isDrum":true},{"pitch":51,"velocity":80,"startTime":111.428382,"endTime":111.47764299999999,"instrument":1,"isDrum":true},{"pitch":53,"velocity":80,"startTime":111.428382,"endTime":111.47764299999999,"instrument":1,"isDrum":true},{"pitch":54,"velocity":80,"startTime":111.428382,"endTime":111.47764299999999,"instrument":1,"isDrum":true},{"pitch":51,"velocity":80,"startTime":111.62542599999999,"endTime":111.69931749999999,"instrument":1,"isDrum":true},{"pitch":43,"velocity":103,"startTime":104.039232,"endTime":104.26090649999999,"instrument":2,"program":32},{"pitch":43,"velocity":103,"startTime":104.26090649999999,"endTime":104.33479799999999,"instrument":2,"program":32},{"pitch":43,"velocity":103,"startTime":104.33479799999999,"endTime":104.63036399999999,"instrument":2,"program":32},{"pitch":50,"velocity":103,"startTime":104.63036399999999,"endTime":104.975191,"instrument":2,"program":32},{"pitch":38,"velocity":103,"startTime":104.92593,"endTime":105.22149599999999,"instrument":2,"program":32},{"pitch":43,"velocity":103,"startTime":105.22149599999999,"endTime":105.4431705,"instrument":2,"program":32},{"pitch":43,"velocity":103,"startTime":105.4431705,"endTime":105.517062,"instrument":2,"program":32},{"pitch":47,"velocity":103,"startTime":105.517062,"endTime":105.81262799999999,"instrument":2,"program":32},{"pitch":50,"velocity":103,"startTime":105.81262799999999,"endTime":106.157455,"instrument":2,"program":32},{"pitch":43,"velocity":103,"startTime":106.108194,"endTime":106.40375999999999,"instrument":2,"program":32},{"pitch":40,"velocity":103,"startTime":106.40375999999999,"endTime":106.6254345,"instrument":2,"program":32},{"pitch":28,"velocity":103,"startTime":106.6254345,"endTime":106.699326,"instrument":2,"program":32},{"pitch":35,"velocity":103,"startTime":106.699326,"endTime":106.994892,"instrument":2,"program":32},{"pitch":40,"velocity":103,"startTime":106.994892,"endTime":107.29045799999999,"instrument":2,"program":32},{"pitch":35,"velocity":103,"startTime":107.29045799999999,"endTime":107.5613935,"instrument":2,"program":32},{"pitch":28,"velocity":103,"startTime":107.586024,"endTime":107.93085099999999,"instrument":2,"program":32},{"pitch":35,"velocity":103,"startTime":107.88158999999999,"endTime":108.177156,"instrument":2,"program":32},{"pitch":35,"velocity":103,"startTime":108.177156,"endTime":108.47272199999999,"instrument":2,"program":32},{"pitch":38,"velocity":103,"startTime":108.47272199999999,"endTime":108.6943965,"instrument":2,"program":32},{"pitch":35,"velocity":103,"startTime":108.6943965,"endTime":108.768288,"instrument":2,"program":32},{"pitch":36,"velocity":103,"startTime":108.768288,"endTime":108.98996249999999,"instrument":2,"program":32},{"pitch":31,"velocity":103,"startTime":108.98996249999999,"endTime":109.06385399999999,"instrument":2,"program":32},{"pitch":43,"velocity":103,"startTime":109.06385399999999,"endTime":109.35941999999999,"instrument":2,"program":32},{"pitch":40,"velocity":103,"startTime":109.35941999999999,"endTime":109.55646399999999,"instrument":2,"program":32},{"pitch":31,"velocity":103,"startTime":109.58109449999999,"endTime":109.654986,"instrument":2,"program":32},{"pitch":43,"velocity":103,"startTime":109.654986,"endTime":109.87666049999999,"instrument":2,"program":32},{"pitch":36,"velocity":103,"startTime":109.87666049999999,"endTime":109.95055199999999,"instrument":2,"program":32},{"pitch":38,"velocity":103,"startTime":109.95055199999999,"endTime":110.295379,"instrument":2,"program":32},{"pitch":45,"velocity":103,"startTime":110.246118,"endTime":110.56631449999999,"instrument":2,"program":32},{"pitch":40,"velocity":103,"startTime":110.54168399999999,"endTime":111.13281599999999,"instrument":2,"program":32},{"pitch":45,"velocity":103,"startTime":110.83725,"endTime":110.886511,"instrument":2,"program":32},{"pitch":43,"velocity":103,"startTime":111.13281599999999,"endTime":111.3052295,"instrument":2,"program":32},{"pitch":38,"velocity":103,"startTime":111.3544905,"endTime":111.428382,"instrument":2,"program":32},{"pitch":38,"velocity":103,"startTime":111.428382,"endTime":111.723948,"instrument":2,"program":32},{"pitch":43,"velocity":103,"startTime":111.723948,"endTime":112.01951399999999,"instrument":2,"program":32},{"pitch":38,"velocity":103,"startTime":112.01951399999999,"endTime":112.31508,"instrument":2,"program":32},{"pitch":31,"velocity":103,"startTime":112.31508,"endTime":112.53675449999999,"instrument":2,"program":32},{"pitch":31,"velocity":103,"startTime":112.53675449999999,"endTime":112.61064599999999,"instrument":2,"program":32},{"pitch":43,"velocity":103,"startTime":112.61064599999999,"endTime":112.906212,"instrument":2,"program":32},{"pitch":38,"velocity":103,"startTime":112.906212,"endTime":113.12788649999999,"instrument":2,"program":32},{"pitch":26,"velocity":103,"startTime":113.12788649999999,"endTime":113.20177799999999,"instrument":2,"program":32},{"pitch":42,"velocity":103,"startTime":113.20177799999999,"endTime":113.497344,"instrument":2,"program":32},{"pitch":43,"velocity":57,"startTime":113.5219745,"endTime":113.59586599999999},{"pitch":58,"velocity":57,"startTime":113.5219745,"endTime":113.59586599999999},{"pitch":62,"velocity":57,"startTime":113.5219745,"endTime":113.62049649999999},{"pitch":69,"velocity":57,"startTime":113.5219745,"endTime":113.59586599999999},{"pitch":48,"velocity":57,"startTime":114.60571649999999,"endTime":114.87665199999999},{"pitch":59,"velocity":57,"startTime":114.60571649999999,"endTime":114.85202149999999},{"pitch":62,"velocity":57,"startTime":114.60571649999999,"endTime":114.85202149999999},{"pitch":69,"velocity":57,"startTime":114.60571649999999,"endTime":114.85202149999999},{"pitch":59,"velocity":57,"startTime":115.566306,"endTime":115.66482799999999},{"pitch":62,"velocity":57,"startTime":115.566306,"endTime":115.66482799999999},{"pitch":69,"velocity":57,"startTime":115.566306,"endTime":115.66482799999999},{"pitch":40,"velocity":57,"startTime":116.0835465,"endTime":116.25595999999999},{"pitch":56,"velocity":57,"startTime":116.0835465,"endTime":116.25595999999999},{"pitch":62,"velocity":57,"startTime":116.0835465,"endTime":116.25595999999999},{"pitch":66,"velocity":57,"startTime":116.0835465,"endTime":116.25595999999999},{"pitch":40,"velocity":57,"startTime":116.6746785,"endTime":116.84709199999999},{"pitch":59,"velocity":57,"startTime":116.6746785,"endTime":116.84709199999999},{"pitch":62,"velocity":57,"startTime":116.6746785,"endTime":116.84709199999999},{"pitch":66,"velocity":57,"startTime":116.6746785,"endTime":116.87172249999999},{"pitch":40,"velocity":57,"startTime":117.26581049999999,"endTime":117.46285449999999},{"pitch":55,"velocity":57,"startTime":117.26581049999999,"endTime":117.43822399999999},{"pitch":62,"velocity":57,"startTime":117.26581049999999,"endTime":117.43822399999999},{"pitch":66,"velocity":57,"startTime":117.26581049999999,"endTime":117.43822399999999},{"pitch":40,"velocity":57,"startTime":118.1525085,"endTime":118.30029149999999},{"pitch":55,"velocity":57,"startTime":118.1525085,"endTime":118.30029149999999},{"pitch":59,"velocity":57,"startTime":118.1525085,"endTime":118.30029149999999},{"pitch":62,"velocity":57,"startTime":118.1525085,"endTime":118.30029149999999},{"pitch":48,"velocity":57,"startTime":118.7436405,"endTime":118.81753199999999},{"pitch":59,"velocity":57,"startTime":118.7436405,"endTime":118.79290149999999},{"pitch":62,"velocity":57,"startTime":118.7436405,"endTime":118.79290149999999},{"pitch":64,"velocity":57,"startTime":118.7436405,"endTime":118.79290149999999},{"pitch":55,"velocity":57,"startTime":119.33477249999999,"endTime":119.40866399999999},{"pitch":62,"velocity":57,"startTime":119.33477249999999,"endTime":119.40866399999999},{"pitch":64,"velocity":57,"startTime":119.33477249999999,"endTime":119.40866399999999},{"pitch":50,"velocity":57,"startTime":119.43329449999999,"endTime":119.48255549999999},{"pitch":62,"velocity":57,"startTime":119.43329449999999,"endTime":119.50718599999999},{"pitch":65,"velocity":57,"startTime":119.43329449999999,"endTime":119.48255549999999},{"pitch":69,"velocity":57,"startTime":119.43329449999999,"endTime":119.48255549999999},{"pitch":50,"velocity":57,"startTime":119.92590449999999,"endTime":119.99979599999999},{"pitch":59,"velocity":57,"startTime":119.92590449999999,"endTime":120.02442649999999},{"pitch":62,"velocity":57,"startTime":119.92590449999999,"endTime":120.02442649999999},{"pitch":65,"velocity":57,"startTime":119.92590449999999,"endTime":120.02442649999999},{"pitch":50,"velocity":57,"startTime":120.2214705,"endTime":120.295362},{"pitch":57,"velocity":57,"startTime":120.2214705,"endTime":120.3199925},{"pitch":62,"velocity":57,"startTime":120.2214705,"endTime":120.3199925},{"pitch":65,"velocity":57,"startTime":120.2214705,"endTime":120.3199925},{"pitch":43,"velocity":57,"startTime":121.10816849999999,"endTime":121.18205999999999},{"pitch":62,"velocity":57,"startTime":121.10816849999999,"endTime":121.18205999999999},{"pitch":67,"velocity":57,"startTime":121.10816849999999,"endTime":121.18205999999999},{"pitch":71,"velocity":57,"startTime":121.10816849999999,"endTime":121.2066905},{"pitch":43,"velocity":57,"startTime":121.69930049999999,"endTime":122.856934},{"pitch":59,"velocity":57,"startTime":121.69930049999999,"endTime":122.856934},{"pitch":62,"velocity":57,"startTime":121.69930049999999,"endTime":122.856934},{"pitch":69,"velocity":57,"startTime":121.69930049999999,"endTime":122.856934},{"pitch":35,"velocity":80,"startTime":113.497344,"endTime":113.57123549999999,"instrument":1,"isDrum":true},{"pitch":44,"velocity":80,"startTime":113.497344,"endTime":113.57123549999999,"instrument":1,"isDrum":true},{"pitch":51,"velocity":80,"startTime":113.497344,"endTime":113.57123549999999,"instrument":1,"isDrum":true},{"pitch":53,"velocity":80,"startTime":113.497344,"endTime":113.57123549999999,"instrument":1,"isDrum":true},{"pitch":51,"velocity":80,"startTime":113.69438799999999,"endTime":113.76827949999999,"instrument":1,"isDrum":true},{"pitch":44,"velocity":80,"startTime":113.79290999999999,"endTime":113.8668015,"instrument":1,"isDrum":true},{"pitch":51,"velocity":80,"startTime":113.79290999999999,"endTime":113.8668015,"instrument":1,"isDrum":true},{"pitch":53,"velocity":80,"startTime":113.79290999999999,"endTime":113.8668015,"instrument":1,"isDrum":true},{"pitch":51,"velocity":80,"startTime":113.989954,"endTime":114.06384549999999,"instrument":1,"isDrum":true},{"pitch":35,"velocity":80,"startTime":114.08847599999999,"endTime":114.16236749999999,"instrument":1,"isDrum":true},{"pitch":44,"velocity":80,"startTime":114.08847599999999,"endTime":114.16236749999999,"instrument":1,"isDrum":true},{"pitch":51,"velocity":80,"startTime":114.08847599999999,"endTime":114.16236749999999,"instrument":1,"isDrum":true},{"pitch":53,"velocity":80,"startTime":114.08847599999999,"endTime":114.16236749999999,"instrument":1,"isDrum":true},{"pitch":51,"velocity":80,"startTime":114.28551999999999,"endTime":114.3594115,"instrument":1,"isDrum":true},{"pitch":44,"velocity":80,"startTime":114.384042,"endTime":114.4579335,"instrument":1,"isDrum":true},{"pitch":51,"velocity":80,"startTime":114.384042,"endTime":114.4579335,"instrument":1,"isDrum":true},{"pitch":53,"velocity":80,"startTime":114.384042,"endTime":114.4579335,"instrument":1,"isDrum":true},{"pitch":51,"velocity":80,"startTime":114.581086,"endTime":114.65497749999999,"instrument":1,"isDrum":true},{"pitch":35,"velocity":80,"startTime":114.67960799999999,"endTime":114.75349949999999,"instrument":1,"isDrum":true},{"pitch":44,"velocity":80,"startTime":114.67960799999999,"endTime":114.75349949999999,"instrument":1,"isDrum":true},{"pitch":51,"velocity":80,"startTime":114.67960799999999,"endTime":114.75349949999999,"instrument":1,"isDrum":true},{"pitch":53,"velocity":80,"startTime":114.67960799999999,"endTime":114.75349949999999,"instrument":1,"isDrum":true},{"pitch":51,"velocity":80,"startTime":114.87665199999999,"endTime":114.9505435,"instrument":1,"isDrum":true},{"pitch":44,"velocity":80,"startTime":114.975174,"endTime":115.0490655,"instrument":1,"isDrum":true},{"pitch":51,"velocity":80,"startTime":114.975174,"endTime":115.0490655,"instrument":1,"isDrum":true},{"pitch":51,"velocity":80,"startTime":115.17221799999999,"endTime":115.24610949999999,"instrument":1,"isDrum":true},{"pitch":35,"velocity":80,"startTime":115.27073999999999,"endTime":115.34463149999999,"instrument":1,"isDrum":true},{"pitch":44,"velocity":80,"startTime":115.27073999999999,"endTime":115.34463149999999,"instrument":1,"isDrum":true},{"pitch":51,"velocity":80,"startTime":115.27073999999999,"endTime":115.34463149999999,"instrument":1,"isDrum":true},{"pitch":53,"velocity":80,"startTime":115.27073999999999,"endTime":115.34463149999999,"instrument":1,"isDrum":true},{"pitch":51,"velocity":80,"startTime":115.467784,"endTime":115.5416755,"instrument":1,"isDrum":true},{"pitch":44,"velocity":80,"startTime":115.566306,"endTime":115.64019749999999,"instrument":1,"isDrum":true},{"pitch":51,"velocity":80,"startTime":115.566306,"endTime":115.64019749999999,"instrument":1,"isDrum":true},{"pitch":53,"velocity":80,"startTime":115.566306,"endTime":115.64019749999999,"instrument":1,"isDrum":true},{"pitch":51,"velocity":80,"startTime":115.76334999999999,"endTime":115.83724149999999,"instrument":1,"isDrum":true},{"pitch":35,"velocity":80,"startTime":115.86187199999999,"endTime":115.9357635,"instrument":1,"isDrum":true},{"pitch":44,"velocity":80,"startTime":115.86187199999999,"endTime":115.9357635,"instrument":1,"isDrum":true},{"pitch":51,"velocity":80,"startTime":115.86187199999999,"endTime":115.9357635,"instrument":1,"isDrum":true},{"pitch":53,"velocity":80,"startTime":115.86187199999999,"endTime":115.9357635,"instrument":1,"isDrum":true},{"pitch":51,"velocity":80,"startTime":116.058916,"endTime":116.1328075,"instrument":1,"isDrum":true},{"pitch":44,"velocity":80,"startTime":116.157438,"endTime":116.23132949999999,"instrument":1,"isDrum":true},{"pitch":51,"velocity":80,"startTime":116.157438,"endTime":116.23132949999999,"instrument":1,"isDrum":true},{"pitch":53,"velocity":80,"startTime":116.157438,"endTime":116.23132949999999,"instrument":1,"isDrum":true},{"pitch":51,"velocity":80,"startTime":116.35448199999999,"endTime":116.42837349999999,"instrument":1,"isDrum":true},{"pitch":35,"velocity":80,"startTime":116.45300399999999,"endTime":116.5268955,"instrument":1,"isDrum":true},{"pitch":44,"velocity":80,"startTime":116.45300399999999,"endTime":116.5268955,"instrument":1,"isDrum":true},{"pitch":51,"velocity":80,"startTime":116.45300399999999,"endTime":116.5268955,"instrument":1,"isDrum":true},{"pitch":53,"velocity":80,"startTime":116.45300399999999,"endTime":116.5268955,"instrument":1,"isDrum":true},{"pitch":51,"velocity":80,"startTime":116.650048,"endTime":116.72393949999999,"instrument":1,"isDrum":true},{"pitch":44,"velocity":80,"startTime":116.74856999999999,"endTime":116.82246149999999,"instrument":1,"isDrum":true},{"pitch":51,"velocity":80,"startTime":116.74856999999999,"endTime":116.82246149999999,"instrument":1,"isDrum":true},{"pitch":53,"velocity":80,"startTime":116.74856999999999,"endTime":116.82246149999999,"instrument":1,"isDrum":true},{"pitch":51,"velocity":80,"startTime":116.94561399999999,"endTime":117.0195055,"instrument":1,"isDrum":true},{"pitch":35,"velocity":80,"startTime":117.044136,"endTime":117.1180275,"instrument":1,"isDrum":true},{"pitch":44,"velocity":80,"startTime":117.044136,"endTime":117.1180275,"instrument":1,"isDrum":true},{"pitch":51,"velocity":80,"startTime":117.044136,"endTime":117.1180275,"instrument":1,"isDrum":true},{"pitch":53,"velocity":80,"startTime":117.044136,"endTime":117.1180275,"instrument":1,"isDrum":true},{"pitch":51,"velocity":80,"startTime":117.24117999999999,"endTime":117.31507149999999,"instrument":1,"isDrum":true},{"pitch":44,"velocity":80,"startTime":117.33970199999999,"endTime":117.41359349999999,"instrument":1,"isDrum":true},{"pitch":51,"velocity":80,"startTime":117.33970199999999,"endTime":117.41359349999999,"instrument":1,"isDrum":true},{"pitch":53,"velocity":80,"startTime":117.33970199999999,"endTime":117.41359349999999,"instrument":1,"isDrum":true},{"pitch":51,"velocity":80,"startTime":117.536746,"endTime":117.6106375,"instrument":1,"isDrum":true},{"pitch":44,"velocity":80,"startTime":117.635268,"endTime":117.7091595,"instrument":1,"isDrum":true},{"pitch":51,"velocity":80,"startTime":117.635268,"endTime":117.7091595,"instrument":1,"isDrum":true},{"pitch":53,"velocity":80,"startTime":117.635268,"endTime":117.7091595,"instrument":1,"isDrum":true},{"pitch":51,"velocity":80,"startTime":117.83231199999999,"endTime":117.90620349999999,"instrument":1,"isDrum":true},{"pitch":44,"velocity":80,"startTime":117.93083399999999,"endTime":118.00472549999999,"instrument":1,"isDrum":true},{"pitch":51,"velocity":80,"startTime":117.93083399999999,"endTime":118.00472549999999,"instrument":1,"isDrum":true},{"pitch":53,"velocity":80,"startTime":117.93083399999999,"endTime":118.00472549999999,"instrument":1,"isDrum":true},{"pitch":51,"velocity":80,"startTime":118.127878,"endTime":118.2017695,"instrument":1,"isDrum":true},{"pitch":35,"velocity":80,"startTime":118.2264,"endTime":118.30029149999999,"instrument":1,"isDrum":true},{"pitch":44,"velocity":80,"startTime":118.2264,"endTime":118.30029149999999,"instrument":1,"isDrum":true},{"pitch":51,"velocity":80,"startTime":118.2264,"endTime":118.30029149999999,"instrument":1,"isDrum":true},{"pitch":53,"velocity":80,"startTime":118.2264,"endTime":118.30029149999999,"instrument":1,"isDrum":true},{"pitch":51,"velocity":80,"startTime":118.42344399999999,"endTime":118.49733549999999,"instrument":1,"isDrum":true},{"pitch":38,"velocity":80,"startTime":118.52196599999999,"endTime":118.5958575,"instrument":1,"isDrum":true},{"pitch":44,"velocity":80,"startTime":118.52196599999999,"endTime":118.5958575,"instrument":1,"isDrum":true},{"pitch":51,"velocity":80,"startTime":118.52196599999999,"endTime":118.5958575,"instrument":1,"isDrum":true},{"pitch":53,"velocity":80,"startTime":118.52196599999999,"endTime":118.5958575,"instrument":1,"isDrum":true},{"pitch":51,"velocity":80,"startTime":118.71901,"endTime":118.79290149999999,"instrument":1,"isDrum":true},{"pitch":44,"velocity":80,"startTime":118.81753199999999,"endTime":118.89142349999999,"instrument":1,"isDrum":true},{"pitch":51,"velocity":80,"startTime":118.81753199999999,"endTime":118.89142349999999,"instrument":1,"isDrum":true},{"pitch":53,"velocity":80,"startTime":118.81753199999999,"endTime":118.89142349999999,"instrument":1,"isDrum":true},{"pitch":51,"velocity":80,"startTime":119.01457599999999,"endTime":119.0884675,"instrument":1,"isDrum":true},{"pitch":44,"velocity":80,"startTime":119.113098,"endTime":119.1869895,"instrument":1,"isDrum":true},{"pitch":51,"velocity":80,"startTime":119.113098,"endTime":119.1869895,"instrument":1,"isDrum":true},{"pitch":53,"velocity":80,"startTime":119.113098,"endTime":119.1869895,"instrument":1,"isDrum":true},{"pitch":51,"velocity":80,"startTime":119.31014199999998,"endTime":119.38403349999999,"instrument":1,"isDrum":true},{"pitch":35,"velocity":80,"startTime":119.40866399999999,"endTime":119.48255549999999,"instrument":1,"isDrum":true},{"pitch":44,"velocity":80,"startTime":119.40866399999999,"endTime":119.48255549999999,"instrument":1,"isDrum":true},{"pitch":51,"velocity":80,"startTime":119.40866399999999,"endTime":119.48255549999999,"instrument":1,"isDrum":true},{"pitch":53,"velocity":80,"startTime":119.40866399999999,"endTime":119.48255549999999,"instrument":1,"isDrum":true},{"pitch":51,"velocity":80,"startTime":119.60570799999999,"endTime":119.6795995,"instrument":1,"isDrum":true},{"pitch":38,"velocity":80,"startTime":119.70423,"endTime":119.7781215,"instrument":1,"isDrum":true},{"pitch":44,"velocity":80,"startTime":119.70423,"endTime":119.7781215,"instrument":1,"isDrum":true},{"pitch":51,"velocity":80,"startTime":119.70423,"endTime":119.7781215,"instrument":1,"isDrum":true},{"pitch":53,"velocity":80,"startTime":119.70423,"endTime":119.7781215,"instrument":1,"isDrum":true},{"pitch":51,"velocity":80,"startTime":119.90127399999999,"endTime":119.97516549999999,"instrument":1,"isDrum":true},{"pitch":44,"velocity":80,"startTime":119.99979599999999,"endTime":120.07368749999999,"instrument":1,"isDrum":true},{"pitch":53,"velocity":80,"startTime":119.99979599999999,"endTime":120.07368749999999,"instrument":1,"isDrum":true},{"pitch":35,"velocity":80,"startTime":120.295362,"endTime":120.36925349999999,"instrument":1,"isDrum":true},{"pitch":44,"velocity":80,"startTime":120.295362,"endTime":120.36925349999999,"instrument":1,"isDrum":true},{"pitch":51,"velocity":80,"startTime":120.295362,"endTime":120.36925349999999,"instrument":1,"isDrum":true},{"pitch":53,"velocity":80,"startTime":120.295362,"endTime":120.36925349999999,"instrument":1,"isDrum":true},{"pitch":51,"velocity":80,"startTime":120.49240599999999,"endTime":120.56629749999999,"instrument":1,"isDrum":true},{"pitch":44,"velocity":80,"startTime":120.59092799999999,"endTime":120.6648195,"instrument":1,"isDrum":true},{"pitch":51,"velocity":80,"startTime":120.59092799999999,"endTime":120.6648195,"instrument":1,"isDrum":true},{"pitch":53,"velocity":80,"startTime":120.59092799999999,"endTime":120.6648195,"instrument":1,"isDrum":true},{"pitch":51,"velocity":80,"startTime":120.787972,"endTime":120.8618635,"instrument":1,"isDrum":true},{"pitch":44,"velocity":80,"startTime":120.88649399999998,"endTime":120.96038549999999,"instrument":1,"isDrum":true},{"pitch":51,"velocity":80,"startTime":120.88649399999998,"endTime":120.96038549999999,"instrument":1,"isDrum":true},{"pitch":53,"velocity":80,"startTime":120.88649399999998,"endTime":120.96038549999999,"instrument":1,"isDrum":true},{"pitch":51,"velocity":80,"startTime":121.08353799999999,"endTime":121.15742949999999,"instrument":1,"isDrum":true},{"pitch":43,"velocity":103,"startTime":113.497344,"endTime":113.71901849999999,"instrument":2,"program":32},{"pitch":31,"velocity":103,"startTime":113.71901849999999,"endTime":113.76827949999999,"instrument":2,"program":32},{"pitch":43,"velocity":103,"startTime":113.79290999999999,"endTime":114.08847599999999,"instrument":2,"program":32},{"pitch":50,"velocity":103,"startTime":114.08847599999999,"endTime":114.31015049999999,"instrument":2,"program":32},{"pitch":38,"velocity":103,"startTime":114.31015049999999,"endTime":114.3594115,"instrument":2,"program":32},{"pitch":43,"velocity":103,"startTime":114.384042,"endTime":114.60571649999999,"instrument":2,"program":32},{"pitch":38,"velocity":103,"startTime":114.60571649999999,"endTime":114.65497749999999,"instrument":2,"program":32},{"pitch":31,"velocity":103,"startTime":114.67960799999999,"endTime":114.9012825,"instrument":2,"program":32},{"pitch":31,"velocity":103,"startTime":114.9012825,"endTime":114.9505435,"instrument":2,"program":32},{"pitch":35,"velocity":103,"startTime":114.975174,"endTime":115.27073999999999,"instrument":2,"program":32},{"pitch":38,"velocity":103,"startTime":115.27073999999999,"endTime":115.4924145,"instrument":2,"program":32},{"pitch":26,"velocity":103,"startTime":115.4924145,"endTime":115.566306,"instrument":2,"program":32},{"pitch":31,"velocity":103,"startTime":115.566306,"endTime":115.83724149999999,"instrument":2,"program":32},{"pitch":40,"velocity":103,"startTime":115.86187199999999,"endTime":116.157438,"instrument":2,"program":32},{"pitch":35,"velocity":103,"startTime":116.157438,"endTime":116.37911249999999,"instrument":2,"program":32},{"pitch":35,"velocity":103,"startTime":116.37911249999999,"endTime":116.42837349999999,"instrument":2,"program":32},{"pitch":40,"velocity":103,"startTime":116.45300399999999,"endTime":116.74856999999999,"instrument":2,"program":32},{"pitch":47,"velocity":103,"startTime":116.74856999999999,"endTime":116.94561399999999,"instrument":2,"program":32},{"pitch":40,"velocity":103,"startTime":116.97024449999999,"endTime":117.0195055,"instrument":2,"program":32},{"pitch":28,"velocity":103,"startTime":117.044136,"endTime":117.33970199999999,"instrument":2,"program":32},{"pitch":35,"velocity":103,"startTime":117.33970199999999,"endTime":117.635268,"instrument":2,"program":32},{"pitch":40,"velocity":103,"startTime":117.635268,"endTime":117.83231199999999,"instrument":2,"program":32},{"pitch":35,"velocity":103,"startTime":117.85694249999999,"endTime":117.90620349999999,"instrument":2,"program":32},{"pitch":28,"velocity":103,"startTime":117.93083399999999,"endTime":118.2017695,"instrument":2,"program":32},{"pitch":36,"velocity":103,"startTime":118.2264,"endTime":118.52196599999999,"instrument":2,"program":32},{"pitch":40,"velocity":103,"startTime":118.52196599999999,"endTime":118.81753199999999,"instrument":2,"program":32},{"pitch":43,"velocity":103,"startTime":118.81753199999999,"endTime":119.113098,"instrument":2,"program":32},{"pitch":40,"velocity":103,"startTime":119.113098,"endTime":119.33477249999999,"instrument":2,"program":32},{"pitch":43,"velocity":103,"startTime":119.33477249999999,"endTime":119.38403349999999,"instrument":2,"program":32},{"pitch":38,"velocity":103,"startTime":119.40866399999999,"endTime":119.70423,"instrument":2,"program":32},{"pitch":33,"velocity":103,"startTime":119.70423,"endTime":119.99979599999999,"instrument":2,"program":32},{"pitch":38,"velocity":103,"startTime":119.99979599999999,"endTime":120.2214705,"instrument":2,"program":32},{"pitch":26,"velocity":103,"startTime":120.2214705,"endTime":120.2707315,"instrument":2,"program":32},{"pitch":38,"velocity":103,"startTime":120.295362,"endTime":120.59092799999999,"instrument":2,"program":32},{"pitch":31,"velocity":103,"startTime":120.59092799999999,"endTime":120.88649399999998,"instrument":2,"program":32},{"pitch":35,"velocity":103,"startTime":120.88649399999998,"endTime":121.18205999999999,"instrument":2,"program":32},{"pitch":38,"velocity":103,"startTime":121.18205999999999,"endTime":121.47762599999999,"instrument":2,"program":32},{"pitch":38,"velocity":103,"startTime":121.47762599999999,"endTime":121.773192,"instrument":2,"program":32},{"pitch":31,"velocity":103,"startTime":121.773192,"endTime":122.11801899999999,"instrument":2,"program":32},{"pitch":38,"velocity":103,"startTime":122.06875799999999,"endTime":122.364324,"instrument":2,"program":32},{"pitch":43,"velocity":103,"startTime":122.364324,"endTime":122.65988999999999,"instrument":2,"program":32},{"pitch":38,"velocity":103,"startTime":122.65988999999999,"endTime":122.8815645,"instrument":2,"program":32},{"pitch":31,"velocity":103,"startTime":122.8815645,"endTime":122.9308255,"instrument":2,"program":32},{"pitch":55,"velocity":57,"startTime":123.15249999999999,"endTime":123.25102199999999},{"pitch":58,"velocity":57,"startTime":123.15249999999999,"endTime":123.22639149999999},{"pitch":62,"velocity":57,"startTime":123.15249999999999,"endTime":123.22639149999999},{"pitch":53,"velocity":57,"startTime":123.27565249999999,"endTime":123.3741745},{"pitch":59,"velocity":57,"startTime":123.27565249999999,"endTime":123.349544},{"pitch":62,"velocity":57,"startTime":123.27565249999999,"endTime":123.3741745},{"pitch":57,"velocity":57,"startTime":123.76826249999999,"endTime":123.842154},{"pitch":62,"velocity":57,"startTime":123.76826249999999,"endTime":123.842154},{"pitch":69,"velocity":57,"startTime":123.76826249999999,"endTime":123.8175235},{"pitch":43,"velocity":57,"startTime":124.13771999999999,"endTime":125.29535349999999},{"pitch":59,"velocity":57,"startTime":124.13771999999999,"endTime":125.29535349999999},{"pitch":52,"velocity":57,"startTime":124.16235049999999,"endTime":125.29535349999999},{"pitch":57,"velocity":57,"startTime":124.16235049999999,"endTime":125.29535349999999},{"pitch":40,"velocity":57,"startTime":125.31998399999999,"endTime":125.4431365},{"pitch":57,"velocity":57,"startTime":125.31998399999999,"endTime":125.4431365},{"pitch":62,"velocity":57,"startTime":125.31998399999999,"endTime":125.418506},{"pitch":66,"velocity":57,"startTime":125.31998399999999,"endTime":125.418506},{"pitch":40,"velocity":57,"startTime":126.502248,"endTime":127.6598815},{"pitch":55,"velocity":57,"startTime":126.502248,"endTime":127.6598815},{"pitch":59,"velocity":57,"startTime":126.502248,"endTime":127.6598815},{"pitch":52,"velocity":57,"startTime":126.5268785,"endTime":127.6598815},{"pitch":59,"velocity":57,"startTime":127.684512,"endTime":127.80766449999999},{"pitch":60,"velocity":57,"startTime":127.684512,"endTime":127.80766449999999},{"pitch":64,"velocity":57,"startTime":127.684512,"endTime":127.78303399999999},{"pitch":67,"velocity":57,"startTime":127.684512,"endTime":127.78303399999999},{"pitch":59,"velocity":57,"startTime":128.3002745,"endTime":128.374166},{"pitch":60,"velocity":57,"startTime":128.3002745,"endTime":128.374166},{"pitch":64,"velocity":57,"startTime":128.3002745,"endTime":128.374166},{"pitch":67,"velocity":57,"startTime":128.3002745,"endTime":128.374166},{"pitch":57,"velocity":57,"startTime":128.866776,"endTime":130.0244095},{"pitch":64,"velocity":57,"startTime":128.866776,"endTime":130.0244095},{"pitch":50,"velocity":57,"startTime":128.8914065,"endTime":130.0244095},{"pitch":57,"velocity":57,"startTime":128.8914065,"endTime":130.0244095},{"pitch":43,"velocity":57,"startTime":130.04904,"endTime":130.147562},{"pitch":57,"velocity":57,"startTime":130.04904,"endTime":130.147562},{"pitch":59,"velocity":57,"startTime":130.04904,"endTime":130.1721925},{"pitch":62,"velocity":57,"startTime":130.04904,"endTime":130.1721925},{"pitch":57,"velocity":57,"startTime":130.86184649999998,"endTime":130.9603685},{"pitch":59,"velocity":57,"startTime":130.86184649999998,"endTime":130.9603685},{"pitch":62,"velocity":57,"startTime":130.86184649999998,"endTime":130.9603685},{"pitch":69,"velocity":57,"startTime":130.86184649999998,"endTime":130.935738},{"pitch":43,"velocity":57,"startTime":131.231304,"endTime":131.329826},{"pitch":57,"velocity":57,"startTime":131.231304,"endTime":131.3544565},{"pitch":59,"velocity":57,"startTime":131.231304,"endTime":131.329826},{"pitch":62,"velocity":57,"startTime":131.231304,"endTime":131.329826},{"pitch":55,"velocity":57,"startTime":131.82243599999998,"endTime":131.92095799999998},{"pitch":59,"velocity":57,"startTime":131.82243599999998,"endTime":131.92095799999998},{"pitch":62,"velocity":57,"startTime":131.82243599999998,"endTime":131.92095799999998},{"pitch":35,"velocity":80,"startTime":122.955456,"endTime":123.00471699999999,"instrument":1,"isDrum":true},{"pitch":44,"velocity":80,"startTime":122.955456,"endTime":123.00471699999999,"instrument":1,"isDrum":true},{"pitch":51,"velocity":80,"startTime":122.955456,"endTime":123.00471699999999,"instrument":1,"isDrum":true},{"pitch":53,"velocity":80,"startTime":122.955456,"endTime":123.00471699999999,"instrument":1,"isDrum":true},{"pitch":56,"velocity":80,"startTime":122.955456,"endTime":123.00471699999999,"instrument":1,"isDrum":true},{"pitch":53,"velocity":80,"startTime":123.15249999999999,"endTime":123.22639149999999,"instrument":1,"isDrum":true},{"pitch":44,"velocity":80,"startTime":123.25102199999999,"endTime":123.300283,"instrument":1,"isDrum":true},{"pitch":51,"velocity":80,"startTime":123.25102199999999,"endTime":123.300283,"instrument":1,"isDrum":true},{"pitch":54,"velocity":80,"startTime":123.25102199999999,"endTime":123.300283,"instrument":1,"isDrum":true},{"pitch":56,"velocity":80,"startTime":123.25102199999999,"endTime":123.300283,"instrument":1,"isDrum":true},{"pitch":53,"velocity":80,"startTime":123.448066,"endTime":123.52195749999998,"instrument":1,"isDrum":true},{"pitch":35,"velocity":80,"startTime":123.54658799999999,"endTime":123.59584899999999,"instrument":1,"isDrum":true},{"pitch":44,"velocity":80,"startTime":123.54658799999999,"endTime":123.59584899999999,"instrument":1,"isDrum":true},{"pitch":51,"velocity":80,"startTime":123.54658799999999,"endTime":123.59584899999999,"instrument":1,"isDrum":true},{"pitch":53,"velocity":80,"startTime":123.54658799999999,"endTime":123.59584899999999,"instrument":1,"isDrum":true},{"pitch":56,"velocity":80,"startTime":123.54658799999999,"endTime":123.59584899999999,"instrument":1,"isDrum":true},{"pitch":51,"velocity":80,"startTime":123.74363199999999,"endTime":123.8175235,"instrument":1,"isDrum":true},{"pitch":38,"velocity":80,"startTime":123.842154,"endTime":123.891415,"instrument":1,"isDrum":true},{"pitch":44,"velocity":80,"startTime":123.842154,"endTime":123.891415,"instrument":1,"isDrum":true},{"pitch":51,"velocity":80,"startTime":123.842154,"endTime":123.891415,"instrument":1,"isDrum":true},{"pitch":53,"velocity":80,"startTime":123.842154,"endTime":123.891415,"instrument":1,"isDrum":true},{"pitch":56,"velocity":80,"startTime":123.842154,"endTime":123.891415,"instrument":1,"isDrum":true},{"pitch":51,"velocity":80,"startTime":124.03919799999998,"endTime":124.11308949999999,"instrument":1,"isDrum":true},{"pitch":44,"velocity":80,"startTime":124.13771999999999,"endTime":124.18698099999999,"instrument":1,"isDrum":true},{"pitch":51,"velocity":80,"startTime":124.13771999999999,"endTime":124.18698099999999,"instrument":1,"isDrum":true},{"pitch":53,"velocity":80,"startTime":124.13771999999999,"endTime":124.18698099999999,"instrument":1,"isDrum":true},{"pitch":56,"velocity":80,"startTime":124.13771999999999,"endTime":124.18698099999999,"instrument":1,"isDrum":true},{"pitch":35,"velocity":80,"startTime":124.33476399999999,"endTime":124.4086555,"instrument":1,"isDrum":true},{"pitch":51,"velocity":80,"startTime":124.33476399999999,"endTime":124.4086555,"instrument":1,"isDrum":true},{"pitch":35,"velocity":80,"startTime":124.433286,"endTime":124.482547,"instrument":1,"isDrum":true},{"pitch":44,"velocity":80,"startTime":124.433286,"endTime":124.482547,"instrument":1,"isDrum":true},{"pitch":51,"velocity":80,"startTime":124.433286,"endTime":124.482547,"instrument":1,"isDrum":true},{"pitch":53,"velocity":80,"startTime":124.433286,"endTime":124.482547,"instrument":1,"isDrum":true},{"pitch":51,"velocity":80,"startTime":124.63032999999999,"endTime":124.70422149999999,"instrument":1,"isDrum":true},{"pitch":35,"velocity":80,"startTime":124.72885199999999,"endTime":124.77811299999999,"instrument":1,"isDrum":true},{"pitch":44,"velocity":80,"startTime":124.72885199999999,"endTime":124.77811299999999,"instrument":1,"isDrum":true},{"pitch":51,"velocity":80,"startTime":124.72885199999999,"endTime":124.77811299999999,"instrument":1,"isDrum":true},{"pitch":53,"velocity":80,"startTime":124.72885199999999,"endTime":124.77811299999999,"instrument":1,"isDrum":true},{"pitch":56,"velocity":80,"startTime":124.72885199999999,"endTime":124.77811299999999,"instrument":1,"isDrum":true},{"pitch":51,"velocity":80,"startTime":124.925896,"endTime":124.9997875,"instrument":1,"isDrum":true},{"pitch":38,"velocity":80,"startTime":125.024418,"endTime":125.07367899999998,"instrument":1,"isDrum":true},{"pitch":44,"velocity":80,"startTime":125.024418,"endTime":125.07367899999998,"instrument":1,"isDrum":true},{"pitch":51,"velocity":80,"startTime":125.024418,"endTime":125.07367899999998,"instrument":1,"isDrum":true},{"pitch":53,"velocity":80,"startTime":125.024418,"endTime":125.07367899999998,"instrument":1,"isDrum":true},{"pitch":56,"velocity":80,"startTime":125.024418,"endTime":125.07367899999998,"instrument":1,"isDrum":true},{"pitch":51,"velocity":80,"startTime":125.22146199999999,"endTime":125.29535349999999,"instrument":1,"isDrum":true},{"pitch":44,"velocity":80,"startTime":125.31998399999999,"endTime":125.36924499999999,"instrument":1,"isDrum":true},{"pitch":53,"velocity":80,"startTime":125.31998399999999,"endTime":125.36924499999999,"instrument":1,"isDrum":true},{"pitch":54,"velocity":80,"startTime":125.31998399999999,"endTime":125.36924499999999,"instrument":1,"isDrum":true},{"pitch":35,"velocity":80,"startTime":125.517028,"endTime":125.5909195,"instrument":1,"isDrum":true},{"pitch":35,"velocity":80,"startTime":125.61554999999998,"endTime":125.66481099999999,"instrument":1,"isDrum":true},{"pitch":44,"velocity":80,"startTime":125.61554999999998,"endTime":125.66481099999999,"instrument":1,"isDrum":true},{"pitch":53,"velocity":80,"startTime":125.61554999999998,"endTime":125.66481099999999,"instrument":1,"isDrum":true},{"pitch":54,"velocity":80,"startTime":125.61554999999998,"endTime":125.66481099999999,"instrument":1,"isDrum":true},{"pitch":35,"velocity":80,"startTime":125.81259399999999,"endTime":125.88648549999999,"instrument":1,"isDrum":true},{"pitch":51,"velocity":80,"startTime":125.81259399999999,"endTime":125.88648549999999,"instrument":1,"isDrum":true},{"pitch":35,"velocity":80,"startTime":125.91111599999999,"endTime":125.960377,"instrument":1,"isDrum":true},{"pitch":44,"velocity":80,"startTime":125.91111599999999,"endTime":125.960377,"instrument":1,"isDrum":true},{"pitch":51,"velocity":80,"startTime":125.91111599999999,"endTime":125.960377,"instrument":1,"isDrum":true},{"pitch":53,"velocity":80,"startTime":125.91111599999999,"endTime":125.960377,"instrument":1,"isDrum":true},{"pitch":51,"velocity":80,"startTime":126.10816,"endTime":126.18205149999999,"instrument":1,"isDrum":true},{"pitch":38,"velocity":80,"startTime":126.20668199999999,"endTime":126.25594299999999,"instrument":1,"isDrum":true},{"pitch":44,"velocity":80,"startTime":126.20668199999999,"endTime":126.25594299999999,"instrument":1,"isDrum":true},{"pitch":51,"velocity":80,"startTime":126.20668199999999,"endTime":126.25594299999999,"instrument":1,"isDrum":true},{"pitch":53,"velocity":80,"startTime":126.20668199999999,"endTime":126.25594299999999,"instrument":1,"isDrum":true},{"pitch":56,"velocity":80,"startTime":126.20668199999999,"endTime":126.25594299999999,"instrument":1,"isDrum":true},{"pitch":51,"velocity":80,"startTime":126.40372599999999,"endTime":126.4776175,"instrument":1,"isDrum":true},{"pitch":44,"velocity":80,"startTime":126.502248,"endTime":126.551509,"instrument":1,"isDrum":true},{"pitch":53,"velocity":80,"startTime":126.502248,"endTime":126.551509,"instrument":1,"isDrum":true},{"pitch":54,"velocity":80,"startTime":126.502248,"endTime":126.551509,"instrument":1,"isDrum":true},{"pitch":35,"velocity":80,"startTime":126.69929199999999,"endTime":126.77318349999999,"instrument":1,"isDrum":true},{"pitch":44,"velocity":80,"startTime":126.79781399999999,"endTime":126.84707499999999,"instrument":1,"isDrum":true},{"pitch":51,"velocity":80,"startTime":126.79781399999999,"endTime":126.84707499999999,"instrument":1,"isDrum":true},{"pitch":54,"velocity":80,"startTime":126.79781399999999,"endTime":126.84707499999999,"instrument":1,"isDrum":true},{"pitch":56,"velocity":80,"startTime":126.79781399999999,"endTime":126.84707499999999,"instrument":1,"isDrum":true},{"pitch":35,"velocity":80,"startTime":126.994858,"endTime":127.0687495,"instrument":1,"isDrum":true},{"pitch":38,"velocity":80,"startTime":126.994858,"endTime":127.0687495,"instrument":1,"isDrum":true},{"pitch":35,"velocity":80,"startTime":127.09338,"endTime":127.142641,"instrument":1,"isDrum":true},{"pitch":44,"velocity":80,"startTime":127.09338,"endTime":127.142641,"instrument":1,"isDrum":true},{"pitch":51,"velocity":80,"startTime":127.09338,"endTime":127.142641,"instrument":1,"isDrum":true},{"pitch":53,"velocity":80,"startTime":127.09338,"endTime":127.142641,"instrument":1,"isDrum":true},{"pitch":51,"velocity":80,"startTime":127.29042399999999,"endTime":127.36431549999999,"instrument":1,"isDrum":true},{"pitch":38,"velocity":80,"startTime":127.38894599999999,"endTime":127.43820699999999,"instrument":1,"isDrum":true},{"pitch":44,"velocity":80,"startTime":127.38894599999999,"endTime":127.43820699999999,"instrument":1,"isDrum":true},{"pitch":51,"velocity":80,"startTime":127.38894599999999,"endTime":127.43820699999999,"instrument":1,"isDrum":true},{"pitch":53,"velocity":80,"startTime":127.38894599999999,"endTime":127.43820699999999,"instrument":1,"isDrum":true},{"pitch":56,"velocity":80,"startTime":127.38894599999999,"endTime":127.43820699999999,"instrument":1,"isDrum":true},{"pitch":35,"velocity":80,"startTime":127.58599,"endTime":127.6598815,"instrument":1,"isDrum":true},{"pitch":53,"velocity":80,"startTime":127.58599,"endTime":127.6598815,"instrument":1,"isDrum":true},{"pitch":44,"velocity":80,"startTime":127.684512,"endTime":127.73377299999999,"instrument":1,"isDrum":true},{"pitch":51,"velocity":80,"startTime":127.684512,"endTime":127.73377299999999,"instrument":1,"isDrum":true},{"pitch":53,"velocity":80,"startTime":127.684512,"endTime":127.73377299999999,"instrument":1,"isDrum":true},{"pitch":56,"velocity":80,"startTime":127.684512,"endTime":127.73377299999999,"instrument":1,"isDrum":true},{"pitch":35,"velocity":80,"startTime":127.88155599999999,"endTime":127.95544749999999,"instrument":1,"isDrum":true},{"pitch":38,"velocity":80,"startTime":127.88155599999999,"endTime":127.95544749999999,"instrument":1,"isDrum":true},{"pitch":51,"velocity":80,"startTime":127.88155599999999,"endTime":127.95544749999999,"instrument":1,"isDrum":true},{"pitch":35,"velocity":80,"startTime":127.98007799999999,"endTime":128.029339,"instrument":1,"isDrum":true},{"pitch":44,"velocity":80,"startTime":127.98007799999999,"endTime":128.029339,"instrument":1,"isDrum":true},{"pitch":51,"velocity":80,"startTime":127.98007799999999,"endTime":128.029339,"instrument":1,"isDrum":true},{"pitch":53,"velocity":80,"startTime":127.98007799999999,"endTime":128.029339,"instrument":1,"isDrum":true},{"pitch":56,"velocity":80,"startTime":127.98007799999999,"endTime":128.029339,"instrument":1,"isDrum":true},{"pitch":53,"velocity":80,"startTime":128.177122,"endTime":128.2510135,"instrument":1,"isDrum":true},{"pitch":35,"velocity":80,"startTime":128.275644,"endTime":128.324905,"instrument":1,"isDrum":true},{"pitch":44,"velocity":80,"startTime":128.275644,"endTime":128.324905,"instrument":1,"isDrum":true},{"pitch":51,"velocity":80,"startTime":128.275644,"endTime":128.324905,"instrument":1,"isDrum":true},{"pitch":53,"velocity":80,"startTime":128.275644,"endTime":128.324905,"instrument":1,"isDrum":true},{"pitch":51,"velocity":80,"startTime":128.472688,"endTime":128.54657949999998,"instrument":1,"isDrum":true},{"pitch":38,"velocity":80,"startTime":128.57120999999998,"endTime":128.62047099999998,"instrument":1,"isDrum":true},{"pitch":44,"velocity":80,"startTime":128.57120999999998,"endTime":128.62047099999998,"instrument":1,"isDrum":true},{"pitch":51,"velocity":80,"startTime":128.57120999999998,"endTime":128.62047099999998,"instrument":1,"isDrum":true},{"pitch":53,"velocity":80,"startTime":128.57120999999998,"endTime":128.62047099999998,"instrument":1,"isDrum":true},{"pitch":56,"velocity":80,"startTime":128.57120999999998,"endTime":128.62047099999998,"instrument":1,"isDrum":true},{"pitch":53,"velocity":80,"startTime":128.76825399999998,"endTime":128.8421455,"instrument":1,"isDrum":true},{"pitch":44,"velocity":80,"startTime":128.866776,"endTime":128.916037,"instrument":1,"isDrum":true},{"pitch":51,"velocity":80,"startTime":128.866776,"endTime":128.916037,"instrument":1,"isDrum":true},{"pitch":53,"velocity":80,"startTime":128.866776,"endTime":128.916037,"instrument":1,"isDrum":true},{"pitch":56,"velocity":80,"startTime":128.866776,"endTime":128.916037,"instrument":1,"isDrum":true},{"pitch":35,"velocity":80,"startTime":129.06382,"endTime":129.1377115,"instrument":1,"isDrum":true},{"pitch":53,"velocity":80,"startTime":129.06382,"endTime":129.1377115,"instrument":1,"isDrum":true},{"pitch":35,"velocity":80,"startTime":129.162342,"endTime":129.211603,"instrument":1,"isDrum":true},{"pitch":44,"velocity":80,"startTime":129.162342,"endTime":129.211603,"instrument":1,"isDrum":true},{"pitch":51,"velocity":80,"startTime":129.162342,"endTime":129.211603,"instrument":1,"isDrum":true},{"pitch":53,"velocity":80,"startTime":129.162342,"endTime":129.211603,"instrument":1,"isDrum":true},{"pitch":54,"velocity":80,"startTime":129.162342,"endTime":129.211603,"instrument":1,"isDrum":true},{"pitch":35,"velocity":80,"startTime":129.359386,"endTime":129.4332775,"instrument":1,"isDrum":true},{"pitch":53,"velocity":80,"startTime":129.359386,"endTime":129.4332775,"instrument":1,"isDrum":true},{"pitch":35,"velocity":80,"startTime":129.457908,"endTime":129.507169,"instrument":1,"isDrum":true},{"pitch":44,"velocity":80,"startTime":129.457908,"endTime":129.507169,"instrument":1,"isDrum":true},{"pitch":51,"velocity":80,"startTime":129.457908,"endTime":129.507169,"instrument":1,"isDrum":true},{"pitch":53,"velocity":80,"startTime":129.457908,"endTime":129.507169,"instrument":1,"isDrum":true},{"pitch":51,"velocity":80,"startTime":129.65495199999998,"endTime":129.72884349999998,"instrument":1,"isDrum":true},{"pitch":38,"velocity":80,"startTime":129.75347399999998,"endTime":129.80273499999998,"instrument":1,"isDrum":true},{"pitch":44,"velocity":80,"startTime":129.75347399999998,"endTime":129.80273499999998,"instrument":1,"isDrum":true},{"pitch":51,"velocity":80,"startTime":129.75347399999998,"endTime":129.80273499999998,"instrument":1,"isDrum":true},{"pitch":53,"velocity":80,"startTime":129.75347399999998,"endTime":129.80273499999998,"instrument":1,"isDrum":true},{"pitch":56,"velocity":80,"startTime":129.75347399999998,"endTime":129.80273499999998,"instrument":1,"isDrum":true},{"pitch":53,"velocity":80,"startTime":129.950518,"endTime":130.0244095,"instrument":1,"isDrum":true},{"pitch":44,"velocity":80,"startTime":130.04904,"endTime":130.098301,"instrument":1,"isDrum":true},{"pitch":51,"velocity":80,"startTime":130.04904,"endTime":130.098301,"instrument":1,"isDrum":true},{"pitch":53,"velocity":80,"startTime":130.04904,"endTime":130.098301,"instrument":1,"isDrum":true},{"pitch":35,"velocity":80,"startTime":130.246084,"endTime":130.3199755,"instrument":1,"isDrum":true},{"pitch":51,"velocity":80,"startTime":130.246084,"endTime":130.3199755,"instrument":1,"isDrum":true},{"pitch":35,"velocity":80,"startTime":130.344606,"endTime":130.393867,"instrument":1,"isDrum":true},{"pitch":44,"velocity":80,"startTime":130.344606,"endTime":130.393867,"instrument":1,"isDrum":true},{"pitch":53,"velocity":80,"startTime":130.344606,"endTime":130.393867,"instrument":1,"isDrum":true},{"pitch":54,"velocity":80,"startTime":130.344606,"endTime":130.393867,"instrument":1,"isDrum":true},{"pitch":56,"velocity":80,"startTime":130.344606,"endTime":130.393867,"instrument":1,"isDrum":true},{"pitch":51,"velocity":80,"startTime":130.54165,"endTime":130.61554149999998,"instrument":1,"isDrum":true},{"pitch":31,"velocity":103,"startTime":122.955456,"endTime":123.300283,"instrument":2,"program":32},{"pitch":38,"velocity":103,"startTime":123.25102199999999,"endTime":123.842154,"instrument":2,"program":32},{"pitch":38,"velocity":103,"startTime":123.54658799999999,"endTime":123.57121849999999,"instrument":2,"program":32},{"pitch":35,"velocity":103,"startTime":123.842154,"endTime":124.13771999999999,"instrument":2,"program":32},{"pitch":31,"velocity":103,"startTime":124.13771999999999,"endTime":124.482547,"instrument":2,"program":32},{"pitch":35,"velocity":103,"startTime":124.433286,"endTime":125.0490485,"instrument":2,"program":32},{"pitch":35,"velocity":103,"startTime":124.72885199999999,"endTime":124.75348249999999,"instrument":2,"program":32},{"pitch":38,"velocity":103,"startTime":125.024418,"endTime":125.31998399999999,"instrument":2,"program":32},{"pitch":40,"velocity":103,"startTime":125.31998399999999,"endTime":125.5909195,"instrument":2,"program":32},{"pitch":35,"velocity":103,"startTime":125.5416585,"endTime":125.61554999999998,"instrument":2,"program":32},{"pitch":40,"velocity":103,"startTime":125.61554999999998,"endTime":125.91111599999999,"instrument":2,"program":32},{"pitch":35,"velocity":103,"startTime":125.91111599999999,"endTime":126.13279049999998,"instrument":2,"program":32},{"pitch":23,"velocity":103,"startTime":126.13279049999998,"endTime":126.20668199999999,"instrument":2,"program":32},{"pitch":35,"velocity":103,"startTime":126.20668199999999,"endTime":126.502248,"instrument":2,"program":32},{"pitch":28,"velocity":103,"startTime":126.502248,"endTime":126.79781399999999,"instrument":2,"program":32},{"pitch":35,"velocity":103,"startTime":126.79781399999999,"endTime":127.09338,"instrument":2,"program":32},{"pitch":35,"velocity":103,"startTime":127.09338,"endTime":127.38894599999999,"instrument":2,"program":32},{"pitch":35,"velocity":103,"startTime":127.38894599999999,"endTime":127.58599,"instrument":2,"program":32},{"pitch":38,"velocity":103,"startTime":127.6106205,"endTime":127.684512,"instrument":2,"program":32},{"pitch":36,"velocity":103,"startTime":127.684512,"endTime":127.98007799999999,"instrument":2,"program":32},{"pitch":40,"velocity":103,"startTime":127.98007799999999,"endTime":128.275644,"instrument":2,"program":32},{"pitch":43,"velocity":103,"startTime":128.275644,"endTime":128.57120999999998,"instrument":2,"program":32},{"pitch":40,"velocity":103,"startTime":128.57120999999998,"endTime":128.866776,"instrument":2,"program":32},{"pitch":38,"velocity":103,"startTime":128.866776,"endTime":129.162342,"instrument":2,"program":32},{"pitch":40,"velocity":103,"startTime":129.162342,"endTime":129.457908,"instrument":2,"program":32},{"pitch":45,"velocity":103,"startTime":129.457908,"endTime":129.75347399999998,"instrument":2,"program":32},{"pitch":45,"velocity":103,"startTime":129.75347399999998,"endTime":130.04904,"instrument":2,"program":32},{"pitch":43,"velocity":103,"startTime":130.04904,"endTime":130.246084,"instrument":2,"program":32},{"pitch":38,"velocity":103,"startTime":130.2707145,"endTime":130.3199755,"instrument":2,"program":32},{"pitch":43,"velocity":103,"startTime":130.344606,"endTime":130.64017199999998,"instrument":2,"program":32},{"pitch":47,"velocity":103,"startTime":130.64017199999998,"endTime":130.935738,"instrument":2,"program":32},{"pitch":43,"velocity":103,"startTime":130.935738,"endTime":131.231304,"instrument":2,"program":32},{"pitch":43,"velocity":103,"startTime":131.231304,"endTime":131.576131,"instrument":2,"program":32},{"pitch":38,"velocity":103,"startTime":131.52687,"endTime":131.84706649999998,"instrument":2,"program":32},{"pitch":43,"velocity":103,"startTime":131.82243599999998,"endTime":132.413568,"instrument":2,"program":32},{"pitch":43,"velocity":103,"startTime":132.118002,"endTime":132.1426325,"instrument":2,"program":32},{"pitch":43,"velocity":57,"startTime":132.4381985,"endTime":132.5367205},{"pitch":67,"velocity":57,"startTime":132.4381985,"endTime":132.561351},{"pitch":59,"velocity":57,"startTime":132.462829,"endTime":132.5367205},{"pitch":62,"velocity":57,"startTime":132.462829,"endTime":132.5367205},{"pitch":38,"velocity":57,"startTime":132.93080849999998,"endTime":132.98006949999998},{"pitch":43,"velocity":57,"startTime":133.0293305,"endTime":133.103222},{"pitch":55,"velocity":57,"startTime":133.0293305,"endTime":133.0785915},{"pitch":62,"velocity":57,"startTime":133.0293305,"endTime":133.103222},{"pitch":67,"velocity":57,"startTime":133.0293305,"endTime":133.103222},{"pitch":43,"velocity":57,"startTime":133.5219405,"endTime":133.595832},{"pitch":43,"velocity":57,"startTime":133.694354,"endTime":133.7189845},{"pitch":57,"velocity":57,"startTime":133.81750649999998,"endTime":133.91602849999998},{"pitch":43,"velocity":57,"startTime":133.84213699999998,"endTime":133.89139799999998},{"pitch":59,"velocity":57,"startTime":133.84213699999998,"endTime":133.91602849999998},{"pitch":67,"velocity":57,"startTime":133.84213699999998,"endTime":133.91602849999998},{"pitch":43,"velocity":57,"startTime":134.1130725,"endTime":134.2115945},{"pitch":57,"velocity":57,"startTime":134.7042045,"endTime":134.77809599999998},{"pitch":62,"velocity":57,"startTime":134.7042045,"endTime":134.77809599999998},{"pitch":66,"velocity":57,"startTime":134.7042045,"endTime":134.77809599999998},{"pitch":40,"velocity":57,"startTime":134.80272649999998,"endTime":134.85198749999998},{"pitch":52,"velocity":57,"startTime":134.85198749999998,"endTime":134.92587899999998},{"pitch":60,"velocity":57,"startTime":134.87661799999998,"endTime":134.92587899999998},{"pitch":50,"velocity":57,"startTime":135.2953365,"endTime":135.3445975},{"pitch":60,"velocity":57,"startTime":135.5909025,"endTime":135.615533},{"pitch":40,"velocity":57,"startTime":135.664794,"endTime":135.7879465},{"pitch":50,"velocity":57,"startTime":135.6894245,"endTime":135.7879465},{"pitch":55,"velocity":57,"startTime":135.6894245,"endTime":135.7879465},{"pitch":59,"velocity":57,"startTime":135.6894245,"endTime":135.763316},{"pitch":40,"velocity":57,"startTime":136.1820345,"endTime":136.206665},{"pitch":52,"velocity":57,"startTime":136.255926,"endTime":136.3298175},{"pitch":59,"velocity":57,"startTime":136.255926,"endTime":136.354448},{"pitch":66,"velocity":57,"startTime":136.255926,"endTime":136.3790785},{"pitch":52,"velocity":57,"startTime":136.7731665,"endTime":136.797797},{"pitch":59,"velocity":57,"startTime":136.847058,"endTime":136.97021049999998},{"pitch":66,"velocity":57,"startTime":136.847058,"endTime":136.94557999999998},{"pitch":36,"velocity":57,"startTime":137.14262399999998,"endTime":137.21651549999999},{"pitch":59,"velocity":57,"startTime":137.14262399999998,"endTime":137.19188499999998},{"pitch":55,"velocity":57,"startTime":137.16725449999998,"endTime":137.21651549999999},{"pitch":38,"velocity":57,"startTime":138.324888,"endTime":138.42341},{"pitch":60,"velocity":57,"startTime":138.324888,"endTime":138.3987795},{"pitch":64,"velocity":57,"startTime":138.324888,"endTime":138.42341},{"pitch":67,"velocity":57,"startTime":138.324888,"endTime":138.42341},{"pitch":38,"velocity":57,"startTime":138.8421285,"endTime":138.866759},{"pitch":60,"velocity":57,"startTime":138.91602,"endTime":139.08843349999998},{"pitch":64,"velocity":57,"startTime":138.91602,"endTime":139.08843349999998},{"pitch":67,"velocity":57,"startTime":138.91602,"endTime":139.08843349999998},{"pitch":40,"velocity":57,"startTime":139.13769449999998,"endTime":139.18695549999998},{"pitch":57,"velocity":57,"startTime":139.23621649999998,"endTime":139.359369},{"pitch":64,"velocity":57,"startTime":139.23621649999998,"endTime":139.359369},{"pitch":67,"velocity":57,"startTime":139.23621649999998,"endTime":139.359369},{"pitch":43,"velocity":57,"startTime":139.507152,"endTime":139.605674},{"pitch":62,"velocity":57,"startTime":139.507152,"endTime":139.6303045},{"pitch":55,"velocity":57,"startTime":139.5317825,"endTime":139.6303045},{"pitch":59,"velocity":57,"startTime":139.5317825,"endTime":139.6303045},{"pitch":55,"velocity":57,"startTime":140.29532799999998,"endTime":140.34458899999998},{"pitch":59,"velocity":57,"startTime":140.39385,"endTime":140.492372},{"pitch":64,"velocity":57,"startTime":140.39385,"endTime":140.5170025},{"pitch":67,"velocity":57,"startTime":140.39385,"endTime":140.492372},{"pitch":43,"velocity":57,"startTime":140.689416,"endTime":140.7633075},{"pitch":53,"velocity":57,"startTime":140.9110905,"endTime":140.935721},{"pitch":43,"velocity":57,"startTime":140.984982,"endTime":141.08350399999998},{"pitch":59,"velocity":57,"startTime":140.984982,"endTime":141.08350399999998},{"pitch":65,"velocity":57,"startTime":140.984982,"endTime":141.10813449999998},{"pitch":43,"velocity":57,"startTime":141.30517849999998,"endTime":141.37906999999998},{"pitch":59,"velocity":57,"startTime":141.30517849999998,"endTime":141.37906999999998},{"pitch":65,"velocity":57,"startTime":141.30517849999998,"endTime":141.40370049999999},{"pitch":69,"velocity":57,"startTime":141.30517849999998,"endTime":141.40370049999999},{"pitch":35,"velocity":80,"startTime":132.413568,"endTime":132.4381985,"instrument":1,"isDrum":true},{"pitch":44,"velocity":80,"startTime":132.413568,"endTime":132.4381985,"instrument":1,"isDrum":true},{"pitch":51,"velocity":80,"startTime":132.413568,"endTime":132.4381985,"instrument":1,"isDrum":true},{"pitch":53,"velocity":80,"startTime":132.413568,"endTime":132.4381985,"instrument":1,"isDrum":true},{"pitch":35,"velocity":80,"startTime":132.70913399999998,"endTime":132.75839499999998,"instrument":1,"isDrum":true},{"pitch":44,"velocity":80,"startTime":132.70913399999998,"endTime":132.73376449999998,"instrument":1,"isDrum":true},{"pitch":51,"velocity":80,"startTime":132.70913399999998,"endTime":132.90617799999998,"instrument":1,"isDrum":true},{"pitch":53,"velocity":80,"startTime":132.70913399999998,"endTime":132.73376449999998,"instrument":1,"isDrum":true},{"pitch":51,"velocity":80,"startTime":132.90617799999998,"endTime":133.103222,"instrument":1,"isDrum":true},{"pitch":35,"velocity":80,"startTime":133.00469999999999,"endTime":133.053961,"instrument":1,"isDrum":true},{"pitch":44,"velocity":80,"startTime":133.00469999999999,"endTime":133.0293305,"instrument":1,"isDrum":true},{"pitch":51,"velocity":80,"startTime":133.201744,"endTime":133.3248965,"instrument":1,"isDrum":true},{"pitch":35,"velocity":80,"startTime":133.300266,"endTime":133.3248965,"instrument":1,"isDrum":true},{"pitch":44,"velocity":80,"startTime":133.300266,"endTime":133.3248965,"instrument":1,"isDrum":true},{"pitch":35,"velocity":80,"startTime":133.49731,"endTime":133.5219405,"instrument":1,"isDrum":true},{"pitch":44,"velocity":80,"startTime":133.49731,"endTime":133.5219405,"instrument":1,"isDrum":true},{"pitch":51,"velocity":80,"startTime":133.49731,"endTime":133.5219405,"instrument":1,"isDrum":true},{"pitch":35,"velocity":80,"startTime":133.595832,"endTime":133.6204625,"instrument":1,"isDrum":true},{"pitch":44,"velocity":80,"startTime":133.595832,"endTime":133.6204625,"instrument":1,"isDrum":true},{"pitch":51,"velocity":80,"startTime":133.595832,"endTime":133.6204625,"instrument":1,"isDrum":true},{"pitch":51,"velocity":80,"startTime":133.79287599999998,"endTime":133.81750649999998,"instrument":1,"isDrum":true},{"pitch":35,"velocity":80,"startTime":133.89139799999998,"endTime":133.91602849999998,"instrument":1,"isDrum":true},{"pitch":44,"velocity":80,"startTime":133.89139799999998,"endTime":133.91602849999998,"instrument":1,"isDrum":true},{"pitch":51,"velocity":80,"startTime":133.89139799999998,"endTime":133.91602849999998,"instrument":1,"isDrum":true},{"pitch":53,"velocity":80,"startTime":133.89139799999998,"endTime":133.91602849999998,"instrument":1,"isDrum":true},{"pitch":35,"velocity":80,"startTime":134.186964,"endTime":134.2115945,"instrument":1,"isDrum":true},{"pitch":44,"velocity":80,"startTime":134.186964,"endTime":134.2115945,"instrument":1,"isDrum":true},{"pitch":51,"velocity":80,"startTime":134.186964,"endTime":134.2115945,"instrument":1,"isDrum":true},{"pitch":51,"velocity":80,"startTime":134.384008,"endTime":134.4086385,"instrument":1,"isDrum":true},{"pitch":35,"velocity":80,"startTime":134.48253,"endTime":134.5071605,"instrument":1,"isDrum":true},{"pitch":44,"velocity":80,"startTime":134.48253,"endTime":134.5071605,"instrument":1,"isDrum":true},{"pitch":51,"velocity":80,"startTime":134.48253,"endTime":134.5071605,"instrument":1,"isDrum":true},{"pitch":53,"velocity":80,"startTime":134.48253,"endTime":134.5071605,"instrument":1,"isDrum":true},{"pitch":51,"velocity":80,"startTime":134.679574,"endTime":134.7042045,"instrument":1,"isDrum":true},{"pitch":35,"velocity":80,"startTime":134.77809599999998,"endTime":134.80272649999998,"instrument":1,"isDrum":true},{"pitch":44,"velocity":80,"startTime":134.77809599999998,"endTime":134.80272649999998,"instrument":1,"isDrum":true},{"pitch":51,"velocity":80,"startTime":134.77809599999998,"endTime":134.80272649999998,"instrument":1,"isDrum":true},{"pitch":51,"velocity":80,"startTime":134.97513999999998,"endTime":134.99977049999998,"instrument":1,"isDrum":true},{"pitch":35,"velocity":80,"startTime":135.07366199999998,"endTime":135.09829249999999,"instrument":1,"isDrum":true},{"pitch":44,"velocity":80,"startTime":135.07366199999998,"endTime":135.09829249999999,"instrument":1,"isDrum":true},{"pitch":51,"velocity":80,"startTime":135.07366199999998,"endTime":135.09829249999999,"instrument":1,"isDrum":true},{"pitch":53,"velocity":80,"startTime":135.07366199999998,"endTime":135.09829249999999,"instrument":1,"isDrum":true},{"pitch":44,"velocity":80,"startTime":135.369228,"endTime":135.3938585,"instrument":1,"isDrum":true},{"pitch":51,"velocity":80,"startTime":135.566272,"endTime":135.5909025,"instrument":1,"isDrum":true},{"pitch":35,"velocity":80,"startTime":135.664794,"endTime":135.6894245,"instrument":1,"isDrum":true},{"pitch":44,"velocity":80,"startTime":135.664794,"endTime":135.6894245,"instrument":1,"isDrum":true},{"pitch":51,"velocity":80,"startTime":135.664794,"endTime":135.6894245,"instrument":1,"isDrum":true},{"pitch":53,"velocity":80,"startTime":135.664794,"endTime":135.6894245,"instrument":1,"isDrum":true},{"pitch":44,"velocity":80,"startTime":135.96035999999998,"endTime":135.98499049999998,"instrument":1,"isDrum":true},{"pitch":51,"velocity":80,"startTime":136.15740399999999,"endTime":136.1820345,"instrument":1,"isDrum":true},{"pitch":35,"velocity":80,"startTime":136.255926,"endTime":136.2805565,"instrument":1,"isDrum":true},{"pitch":44,"velocity":80,"startTime":136.255926,"endTime":136.2805565,"instrument":1,"isDrum":true},{"pitch":51,"velocity":80,"startTime":136.255926,"endTime":136.2805565,"instrument":1,"isDrum":true},{"pitch":53,"velocity":80,"startTime":136.255926,"endTime":136.2805565,"instrument":1,"isDrum":true},{"pitch":44,"velocity":80,"startTime":136.551492,"endTime":136.5761225,"instrument":1,"isDrum":true},{"pitch":53,"velocity":80,"startTime":136.551492,"endTime":136.5761225,"instrument":1,"isDrum":true},{"pitch":51,"velocity":80,"startTime":136.7731665,"endTime":136.8224275,"instrument":1,"isDrum":true},{"pitch":35,"velocity":80,"startTime":136.847058,"endTime":136.8716885,"instrument":1,"isDrum":true},{"pitch":44,"velocity":80,"startTime":136.847058,"endTime":136.8716885,"instrument":1,"isDrum":true},{"pitch":51,"velocity":80,"startTime":136.847058,"endTime":136.8716885,"instrument":1,"isDrum":true},{"pitch":44,"velocity":80,"startTime":137.14262399999998,"endTime":137.16725449999998,"instrument":1,"isDrum":true},{"pitch":51,"velocity":80,"startTime":137.14262399999998,"endTime":137.16725449999998,"instrument":1,"isDrum":true},{"pitch":51,"velocity":80,"startTime":137.339668,"endTime":137.3642985,"instrument":1,"isDrum":true},{"pitch":35,"velocity":80,"startTime":137.43819,"endTime":137.4628205,"instrument":1,"isDrum":true},{"pitch":44,"velocity":80,"startTime":137.43819,"endTime":137.4628205,"instrument":1,"isDrum":true},{"pitch":51,"velocity":80,"startTime":137.43819,"endTime":137.4628205,"instrument":1,"isDrum":true},{"pitch":51,"velocity":80,"startTime":137.635234,"endTime":137.6598645,"instrument":1,"isDrum":true},{"pitch":35,"velocity":80,"startTime":137.733756,"endTime":137.7583865,"instrument":1,"isDrum":true},{"pitch":44,"velocity":80,"startTime":137.733756,"endTime":137.7583865,"instrument":1,"isDrum":true},{"pitch":51,"velocity":80,"startTime":137.733756,"endTime":137.7583865,"instrument":1,"isDrum":true},{"pitch":53,"velocity":80,"startTime":137.733756,"endTime":137.7583865,"instrument":1,"isDrum":true},{"pitch":44,"velocity":80,"startTime":138.02932199999998,"endTime":138.05395249999998,"instrument":1,"isDrum":true},{"pitch":59,"velocity":80,"startTime":138.02932199999998,"endTime":138.05395249999998,"instrument":1,"isDrum":true},{"pitch":51,"velocity":80,"startTime":138.22636599999998,"endTime":138.25099649999999,"instrument":1,"isDrum":true},{"pitch":35,"velocity":80,"startTime":138.324888,"endTime":138.3495185,"instrument":1,"isDrum":true},{"pitch":44,"velocity":80,"startTime":138.324888,"endTime":138.3495185,"instrument":1,"isDrum":true},{"pitch":51,"velocity":80,"startTime":138.324888,"endTime":138.3495185,"instrument":1,"isDrum":true},{"pitch":53,"velocity":80,"startTime":138.324888,"endTime":138.3495185,"instrument":1,"isDrum":true},{"pitch":35,"velocity":80,"startTime":138.620454,"endTime":138.6450845,"instrument":1,"isDrum":true},{"pitch":38,"velocity":80,"startTime":138.620454,"endTime":138.6450845,"instrument":1,"isDrum":true},{"pitch":44,"velocity":80,"startTime":138.620454,"endTime":138.6450845,"instrument":1,"isDrum":true},{"pitch":51,"velocity":80,"startTime":138.620454,"endTime":138.6450845,"instrument":1,"isDrum":true},{"pitch":51,"velocity":80,"startTime":138.817498,"endTime":138.8421285,"instrument":1,"isDrum":true},{"pitch":35,"velocity":80,"startTime":138.91602,"endTime":138.9406505,"instrument":1,"isDrum":true},{"pitch":44,"velocity":80,"startTime":138.91602,"endTime":138.9406505,"instrument":1,"isDrum":true},{"pitch":51,"velocity":80,"startTime":138.91602,"endTime":138.9406505,"instrument":1,"isDrum":true},{"pitch":53,"velocity":80,"startTime":138.91602,"endTime":138.9406505,"instrument":1,"isDrum":true},{"pitch":44,"velocity":80,"startTime":139.21158599999998,"endTime":139.23621649999998,"instrument":1,"isDrum":true},{"pitch":53,"velocity":80,"startTime":139.21158599999998,"endTime":139.23621649999998,"instrument":1,"isDrum":true},{"pitch":51,"velocity":80,"startTime":139.40863,"endTime":139.4332605,"instrument":1,"isDrum":true},{"pitch":44,"velocity":80,"startTime":139.507152,"endTime":139.5317825,"instrument":1,"isDrum":true},{"pitch":53,"velocity":80,"startTime":139.507152,"endTime":139.5317825,"instrument":1,"isDrum":true},{"pitch":51,"velocity":80,"startTime":139.704196,"endTime":139.7288265,"instrument":1,"isDrum":true},{"pitch":35,"velocity":80,"startTime":139.802718,"endTime":139.8273485,"instrument":1,"isDrum":true},{"pitch":44,"velocity":80,"startTime":139.802718,"endTime":139.8273485,"instrument":1,"isDrum":true},{"pitch":51,"velocity":80,"startTime":139.802718,"endTime":139.8273485,"instrument":1,"isDrum":true},{"pitch":53,"velocity":80,"startTime":139.802718,"endTime":139.8273485,"instrument":1,"isDrum":true},{"pitch":44,"velocity":80,"startTime":140.09828399999998,"endTime":140.12291449999998,"instrument":1,"isDrum":true},{"pitch":53,"velocity":80,"startTime":140.09828399999998,"endTime":140.12291449999998,"instrument":1,"isDrum":true},{"pitch":53,"velocity":80,"startTime":140.29532799999998,"endTime":140.31995849999998,"instrument":1,"isDrum":true},{"pitch":44,"velocity":80,"startTime":140.689416,"endTime":140.7140465,"instrument":1,"isDrum":true},{"pitch":53,"velocity":80,"startTime":140.689416,"endTime":140.7140465,"instrument":1,"isDrum":true},{"pitch":51,"velocity":80,"startTime":140.88646,"endTime":140.9110905,"instrument":1,"isDrum":true},{"pitch":35,"velocity":80,"startTime":140.984982,"endTime":141.0096125,"instrument":1,"isDrum":true},{"pitch":44,"velocity":80,"startTime":140.984982,"endTime":141.0096125,"instrument":1,"isDrum":true},{"pitch":51,"velocity":80,"startTime":140.984982,"endTime":141.0096125,"instrument":1,"isDrum":true},{"pitch":53,"velocity":80,"startTime":140.984982,"endTime":141.0096125,"instrument":1,"isDrum":true},{"pitch":31,"velocity":103,"startTime":132.413568,"endTime":132.6352425,"instrument":2,"program":32},{"pitch":31,"velocity":103,"startTime":132.68450349999998,"endTime":132.70913399999998,"instrument":2,"program":32},{"pitch":35,"velocity":103,"startTime":132.70913399999998,"endTime":133.00469999999999,"instrument":2,"program":32},{"pitch":38,"velocity":103,"startTime":133.00469999999999,"endTime":133.300266,"instrument":2,"program":32},{"pitch":31,"velocity":103,"startTime":133.300266,"endTime":133.595832,"instrument":2,"program":32},{"pitch":31,"velocity":103,"startTime":133.595832,"endTime":133.81750649999998,"instrument":2,"program":32},{"pitch":31,"velocity":103,"startTime":133.81750649999998,"endTime":133.86676749999998,"instrument":2,"program":32},{"pitch":31,"velocity":103,"startTime":133.89139799999998,"endTime":134.186964,"instrument":2,"program":32},{"pitch":35,"velocity":103,"startTime":134.186964,"endTime":134.4086385,"instrument":2,"program":32},{"pitch":31,"velocity":103,"startTime":134.4086385,"endTime":134.48253,"instrument":2,"program":32},{"pitch":35,"velocity":103,"startTime":134.48253,"endTime":134.77809599999998,"instrument":2,"program":32},{"pitch":28,"velocity":103,"startTime":134.77809599999998,"endTime":135.07366199999998,"instrument":2,"program":32},{"pitch":28,"velocity":103,"startTime":135.07366199999998,"endTime":135.369228,"instrument":2,"program":32},{"pitch":28,"velocity":103,"startTime":135.369228,"endTime":135.664794,"instrument":2,"program":32},{"pitch":28,"velocity":103,"startTime":135.664794,"endTime":135.96035999999998,"instrument":2,"program":32},{"pitch":28,"velocity":103,"startTime":135.96035999999998,"endTime":136.255926,"instrument":2,"program":32},{"pitch":35,"velocity":103,"startTime":136.255926,"endTime":136.551492,"instrument":2,"program":32},{"pitch":36,"velocity":103,"startTime":136.551492,"endTime":136.847058,"instrument":2,"program":32},{"pitch":35,"velocity":103,"startTime":136.847058,"endTime":137.06873249999998,"instrument":2,"program":32},{"pitch":30,"velocity":103,"startTime":137.06873249999998,"endTime":137.11799349999998,"instrument":2,"program":32},{"pitch":36,"velocity":103,"startTime":137.14262399999998,"endTime":137.43819,"instrument":2,"program":32},{"pitch":35,"velocity":103,"startTime":137.43819,"endTime":137.733756,"instrument":2,"program":32},{"pitch":36,"velocity":103,"startTime":137.733756,"endTime":138.02932199999998,"instrument":2,"program":32},{"pitch":31,"velocity":103,"startTime":138.02932199999998,"endTime":138.324888,"instrument":2,"program":32},{"pitch":38,"velocity":103,"startTime":138.324888,"endTime":138.5465625,"instrument":2,"program":32},{"pitch":26,"velocity":103,"startTime":138.5465625,"endTime":138.620454,"instrument":2,"program":32},{"pitch":38,"velocity":103,"startTime":138.620454,"endTime":138.91602,"instrument":2,"program":32},{"pitch":38,"velocity":103,"startTime":138.91602,"endTime":139.21158599999998,"instrument":2,"program":32},{"pitch":38,"velocity":103,"startTime":139.21158599999998,"endTime":139.4332605,"instrument":2,"program":32},{"pitch":26,"velocity":103,"startTime":139.4332605,"endTime":139.507152,"instrument":2,"program":32},{"pitch":31,"velocity":103,"startTime":139.507152,"endTime":139.802718,"instrument":2,"program":32},{"pitch":38,"velocity":103,"startTime":139.802718,"endTime":140.09828399999998,"instrument":2,"program":32},{"pitch":43,"velocity":103,"startTime":140.09828399999998,"endTime":140.39385,"instrument":2,"program":32},{"pitch":38,"velocity":103,"startTime":140.39385,"endTime":140.689416,"instrument":2,"program":32},{"pitch":43,"velocity":103,"startTime":140.689416,"endTime":140.9110905,"instrument":2,"program":32},{"pitch":31,"velocity":103,"startTime":140.9110905,"endTime":140.984982,"instrument":2,"program":32},{"pitch":43,"velocity":103,"startTime":140.984982,"endTime":141.25591749999998,"instrument":2,"program":32},{"pitch":38,"velocity":103,"startTime":141.28054799999998,"endTime":141.5022225,"instrument":2,"program":32},{"pitch":31,"velocity":103,"startTime":141.5022225,"endTime":141.576114,"instrument":2,"program":32},{"pitch":38,"velocity":103,"startTime":141.576114,"endTime":141.7977885,"instrument":2,"program":32},{"pitch":31,"velocity":103,"startTime":141.7977885,"endTime":141.87168,"instrument":2,"program":32},{"pitch":64,"velocity":57,"startTime":141.87168,"endTime":141.9948325},{"pitch":67,"velocity":57,"startTime":141.87168,"endTime":141.9948325},{"pitch":74,"velocity":57,"startTime":141.8963105,"endTime":141.9948325},{"pitch":57,"velocity":57,"startTime":142.0933545,"endTime":142.19187649999998},{"pitch":64,"velocity":57,"startTime":142.0933545,"endTime":142.19187649999998},{"pitch":65,"velocity":57,"startTime":142.6844865,"endTime":142.7337475},{"pitch":74,"velocity":57,"startTime":142.6844865,"endTime":142.758378},{"pitch":57,"velocity":57,"startTime":142.709117,"endTime":142.7337475},{"pitch":69,"velocity":57,"startTime":142.709117,"endTime":142.758378},{"pitch":43,"velocity":57,"startTime":143.053944,"endTime":143.103205},{"pitch":59,"velocity":57,"startTime":143.053944,"endTime":143.1278355},{"pitch":62,"velocity":57,"startTime":143.053944,"endTime":143.1278355},{"pitch":69,"velocity":57,"startTime":143.053944,"endTime":143.1278355},{"pitch":40,"velocity":57,"startTime":144.45788249999998,"endTime":144.55640449999999},{"pitch":50,"velocity":57,"startTime":144.53177399999998,"endTime":144.6549265},{"pitch":55,"velocity":57,"startTime":144.55640449999999,"endTime":144.6549265},{"pitch":59,"velocity":57,"startTime":144.55640449999999,"endTime":144.630296},{"pitch":50,"velocity":57,"startTime":145.0490145,"endTime":145.0982755},{"pitch":55,"velocity":57,"startTime":145.0490145,"endTime":145.0982755},{"pitch":59,"velocity":57,"startTime":145.0490145,"endTime":145.122906},{"pitch":64,"velocity":57,"startTime":145.0490145,"endTime":145.0982755},{"pitch":40,"velocity":57,"startTime":145.41847199999998,"endTime":145.51699399999998},{"pitch":55,"velocity":57,"startTime":145.41847199999998,"endTime":145.51699399999998},{"pitch":59,"velocity":57,"startTime":145.44310249999998,"endTime":145.51699399999998},{"pitch":64,"velocity":57,"startTime":145.44310249999998,"endTime":145.51699399999998},{"pitch":40,"velocity":57,"startTime":145.9357125,"endTime":146.009604},{"pitch":57,"velocity":57,"startTime":145.9357125,"endTime":145.9849735},{"pitch":60,"velocity":57,"startTime":145.9357125,"endTime":146.009604},{"pitch":64,"velocity":57,"startTime":145.9357125,"endTime":145.9849735},{"pitch":48,"velocity":57,"startTime":146.896302,"endTime":146.9701935},{"pitch":59,"velocity":57,"startTime":146.896302,"endTime":146.945563},{"pitch":55,"velocity":57,"startTime":146.9209325,"endTime":146.9701935},{"pitch":64,"velocity":57,"startTime":146.9209325,"endTime":146.9701935},{"pitch":48,"velocity":57,"startTime":147.41354249999998,"endTime":147.46280349999998},{"pitch":55,"velocity":57,"startTime":147.41354249999998,"endTime":147.48743399999998},{"pitch":59,"velocity":57,"startTime":147.41354249999998,"endTime":147.46280349999998},{"pitch":64,"velocity":57,"startTime":147.41354249999998,"endTime":147.48743399999998},{"pitch":35,"velocity":80,"startTime":141.87168,"endTime":141.8963105,"instrument":1,"isDrum":true},{"pitch":44,"velocity":80,"startTime":141.87168,"endTime":141.8963105,"instrument":1,"isDrum":true},{"pitch":51,"velocity":80,"startTime":141.87168,"endTime":141.8963105,"instrument":1,"isDrum":true},{"pitch":53,"velocity":80,"startTime":141.87168,"endTime":141.920941,"instrument":1,"isDrum":true},{"pitch":56,"velocity":80,"startTime":141.87168,"endTime":141.8963105,"instrument":1,"isDrum":true},{"pitch":35,"velocity":80,"startTime":142.068724,"endTime":142.14261549999998,"instrument":1,"isDrum":true},{"pitch":51,"velocity":80,"startTime":142.068724,"endTime":142.14261549999998,"instrument":1,"isDrum":true},{"pitch":53,"velocity":80,"startTime":142.068724,"endTime":142.14261549999998,"instrument":1,"isDrum":true},{"pitch":44,"velocity":80,"startTime":142.16724599999998,"endTime":142.19187649999998,"instrument":1,"isDrum":true},{"pitch":51,"velocity":80,"startTime":142.16724599999998,"endTime":142.21650699999998,"instrument":1,"isDrum":true},{"pitch":56,"velocity":80,"startTime":142.16724599999998,"endTime":142.19187649999998,"instrument":1,"isDrum":true},{"pitch":35,"velocity":80,"startTime":142.36428999999998,"endTime":142.43818149999998,"instrument":1,"isDrum":true},{"pitch":51,"velocity":80,"startTime":142.36428999999998,"endTime":142.43818149999998,"instrument":1,"isDrum":true},{"pitch":35,"velocity":80,"startTime":142.46281199999999,"endTime":142.4874425,"instrument":1,"isDrum":true},{"pitch":44,"velocity":80,"startTime":142.46281199999999,"endTime":142.4874425,"instrument":1,"isDrum":true},{"pitch":51,"velocity":80,"startTime":142.46281199999999,"endTime":142.4874425,"instrument":1,"isDrum":true},{"pitch":53,"velocity":80,"startTime":142.46281199999999,"endTime":142.4874425,"instrument":1,"isDrum":true},{"pitch":56,"velocity":80,"startTime":142.46281199999999,"endTime":142.4874425,"instrument":1,"isDrum":true},{"pitch":35,"velocity":80,"startTime":142.659856,"endTime":142.7337475,"instrument":1,"isDrum":true},{"pitch":51,"velocity":80,"startTime":142.659856,"endTime":142.7337475,"instrument":1,"isDrum":true},{"pitch":53,"velocity":80,"startTime":142.659856,"endTime":142.7337475,"instrument":1,"isDrum":true},{"pitch":44,"velocity":80,"startTime":142.758378,"endTime":142.7830085,"instrument":1,"isDrum":true},{"pitch":51,"velocity":80,"startTime":142.758378,"endTime":142.7830085,"instrument":1,"isDrum":true},{"pitch":56,"velocity":80,"startTime":142.758378,"endTime":142.7830085,"instrument":1,"isDrum":true},{"pitch":35,"velocity":80,"startTime":142.955422,"endTime":143.0293135,"instrument":1,"isDrum":true},{"pitch":51,"velocity":80,"startTime":142.955422,"endTime":143.0293135,"instrument":1,"isDrum":true},{"pitch":35,"velocity":80,"startTime":143.053944,"endTime":143.0785745,"instrument":1,"isDrum":true},{"pitch":44,"velocity":80,"startTime":143.053944,"endTime":143.0785745,"instrument":1,"isDrum":true},{"pitch":51,"velocity":80,"startTime":143.053944,"endTime":143.0785745,"instrument":1,"isDrum":true},{"pitch":53,"velocity":80,"startTime":143.053944,"endTime":143.0785745,"instrument":1,"isDrum":true},{"pitch":56,"velocity":80,"startTime":143.053944,"endTime":143.0785745,"instrument":1,"isDrum":true},{"pitch":35,"velocity":80,"startTime":143.25098799999998,"endTime":143.32487949999998,"instrument":1,"isDrum":true},{"pitch":51,"velocity":80,"startTime":143.25098799999998,"endTime":143.32487949999998,"instrument":1,"isDrum":true},{"pitch":37,"velocity":80,"startTime":143.34950999999998,"endTime":143.37414049999998,"instrument":1,"isDrum":true},{"pitch":44,"velocity":80,"startTime":143.34950999999998,"endTime":143.37414049999998,"instrument":1,"isDrum":true},{"pitch":51,"velocity":80,"startTime":143.34950999999998,"endTime":143.37414049999998,"instrument":1,"isDrum":true},{"pitch":56,"velocity":80,"startTime":143.34950999999998,"endTime":143.37414049999998,"instrument":1,"isDrum":true},{"pitch":35,"velocity":80,"startTime":143.546554,"endTime":143.6204455,"instrument":1,"isDrum":true},{"pitch":51,"velocity":80,"startTime":143.546554,"endTime":143.6204455,"instrument":1,"isDrum":true},{"pitch":35,"velocity":80,"startTime":143.645076,"endTime":143.6697065,"instrument":1,"isDrum":true},{"pitch":44,"velocity":80,"startTime":143.645076,"endTime":143.6697065,"instrument":1,"isDrum":true},{"pitch":51,"velocity":80,"startTime":143.645076,"endTime":143.6697065,"instrument":1,"isDrum":true},{"pitch":53,"velocity":80,"startTime":143.645076,"endTime":143.6697065,"instrument":1,"isDrum":true},{"pitch":35,"velocity":80,"startTime":143.84212,"endTime":143.9160115,"instrument":1,"isDrum":true},{"pitch":51,"velocity":80,"startTime":143.84212,"endTime":143.9160115,"instrument":1,"isDrum":true},{"pitch":37,"velocity":80,"startTime":143.940642,"endTime":143.9652725,"instrument":1,"isDrum":true},{"pitch":38,"velocity":80,"startTime":143.940642,"endTime":143.9652725,"instrument":1,"isDrum":true},{"pitch":44,"velocity":80,"startTime":143.940642,"endTime":143.9652725,"instrument":1,"isDrum":true},{"pitch":51,"velocity":80,"startTime":143.940642,"endTime":143.9652725,"instrument":1,"isDrum":true},{"pitch":56,"velocity":80,"startTime":143.940642,"endTime":143.9652725,"instrument":1,"isDrum":true},{"pitch":35,"velocity":80,"startTime":144.137686,"endTime":144.2115775,"instrument":1,"isDrum":true},{"pitch":51,"velocity":80,"startTime":144.137686,"endTime":144.2115775,"instrument":1,"isDrum":true},{"pitch":35,"velocity":80,"startTime":144.23620799999998,"endTime":144.26083849999998,"instrument":1,"isDrum":true},{"pitch":44,"velocity":80,"startTime":144.23620799999998,"endTime":144.26083849999998,"instrument":1,"isDrum":true},{"pitch":51,"velocity":80,"startTime":144.23620799999998,"endTime":144.26083849999998,"instrument":1,"isDrum":true},{"pitch":35,"velocity":80,"startTime":144.43325199999998,"endTime":144.48251299999998,"instrument":1,"isDrum":true},{"pitch":51,"velocity":80,"startTime":144.43325199999998,"endTime":144.48251299999998,"instrument":1,"isDrum":true},{"pitch":56,"velocity":80,"startTime":144.43325199999998,"endTime":144.48251299999998,"instrument":1,"isDrum":true},{"pitch":37,"velocity":80,"startTime":144.53177399999998,"endTime":144.55640449999999,"instrument":1,"isDrum":true},{"pitch":44,"velocity":80,"startTime":144.53177399999998,"endTime":144.55640449999999,"instrument":1,"isDrum":true},{"pitch":51,"velocity":80,"startTime":144.53177399999998,"endTime":144.55640449999999,"instrument":1,"isDrum":true},{"pitch":56,"velocity":80,"startTime":144.53177399999998,"endTime":144.55640449999999,"instrument":1,"isDrum":true},{"pitch":35,"velocity":80,"startTime":144.728818,"endTime":144.8027095,"instrument":1,"isDrum":true},{"pitch":51,"velocity":80,"startTime":144.728818,"endTime":144.8027095,"instrument":1,"isDrum":true},{"pitch":35,"velocity":80,"startTime":144.82734,"endTime":144.8519705,"instrument":1,"isDrum":true},{"pitch":44,"velocity":80,"startTime":144.82734,"endTime":144.8519705,"instrument":1,"isDrum":true},{"pitch":51,"velocity":80,"startTime":144.82734,"endTime":144.8519705,"instrument":1,"isDrum":true},{"pitch":35,"velocity":80,"startTime":145.024384,"endTime":145.073645,"instrument":1,"isDrum":true},{"pitch":51,"velocity":80,"startTime":145.024384,"endTime":145.073645,"instrument":1,"isDrum":true},{"pitch":56,"velocity":80,"startTime":145.024384,"endTime":145.073645,"instrument":1,"isDrum":true},{"pitch":37,"velocity":80,"startTime":145.122906,"endTime":145.1475365,"instrument":1,"isDrum":true},{"pitch":44,"velocity":80,"startTime":145.122906,"endTime":145.1475365,"instrument":1,"isDrum":true},{"pitch":51,"velocity":80,"startTime":145.122906,"endTime":145.1475365,"instrument":1,"isDrum":true},{"pitch":56,"velocity":80,"startTime":145.122906,"endTime":145.1475365,"instrument":1,"isDrum":true},{"pitch":59,"velocity":80,"startTime":145.122906,"endTime":145.1475365,"instrument":1,"isDrum":true},{"pitch":35,"velocity":80,"startTime":145.31994999999998,"endTime":145.39384149999998,"instrument":1,"isDrum":true},{"pitch":51,"velocity":80,"startTime":145.31994999999998,"endTime":145.39384149999998,"instrument":1,"isDrum":true},{"pitch":35,"velocity":80,"startTime":145.41847199999998,"endTime":145.44310249999998,"instrument":1,"isDrum":true},{"pitch":44,"velocity":80,"startTime":145.41847199999998,"endTime":145.44310249999998,"instrument":1,"isDrum":true},{"pitch":51,"velocity":80,"startTime":145.41847199999998,"endTime":145.44310249999998,"instrument":1,"isDrum":true},{"pitch":35,"velocity":80,"startTime":145.61551599999999,"endTime":145.664777,"instrument":1,"isDrum":true},{"pitch":51,"velocity":80,"startTime":145.61551599999999,"endTime":145.664777,"instrument":1,"isDrum":true},{"pitch":56,"velocity":80,"startTime":145.61551599999999,"endTime":145.664777,"instrument":1,"isDrum":true},{"pitch":37,"velocity":80,"startTime":145.714038,"endTime":145.7386685,"instrument":1,"isDrum":true},{"pitch":44,"velocity":80,"startTime":145.714038,"endTime":145.7386685,"instrument":1,"isDrum":true},{"pitch":51,"velocity":80,"startTime":145.714038,"endTime":145.7386685,"instrument":1,"isDrum":true},{"pitch":56,"velocity":80,"startTime":145.714038,"endTime":145.7386685,"instrument":1,"isDrum":true},{"pitch":35,"velocity":80,"startTime":145.911082,"endTime":145.9849735,"instrument":1,"isDrum":true},{"pitch":51,"velocity":80,"startTime":145.911082,"endTime":145.9849735,"instrument":1,"isDrum":true},{"pitch":35,"velocity":80,"startTime":146.009604,"endTime":146.0342345,"instrument":1,"isDrum":true},{"pitch":44,"velocity":80,"startTime":146.009604,"endTime":146.0342345,"instrument":1,"isDrum":true},{"pitch":51,"velocity":80,"startTime":146.009604,"endTime":146.0342345,"instrument":1,"isDrum":true},{"pitch":35,"velocity":80,"startTime":146.206648,"endTime":146.2312785,"instrument":1,"isDrum":true},{"pitch":51,"velocity":80,"startTime":146.206648,"endTime":146.2312785,"instrument":1,"isDrum":true},{"pitch":56,"velocity":80,"startTime":146.206648,"endTime":146.2312785,"instrument":1,"isDrum":true},{"pitch":37,"velocity":80,"startTime":146.30517,"endTime":146.32980049999998,"instrument":1,"isDrum":true},{"pitch":38,"velocity":80,"startTime":146.30517,"endTime":146.32980049999998,"instrument":1,"isDrum":true},{"pitch":39,"velocity":80,"startTime":146.30517,"endTime":146.32980049999998,"instrument":1,"isDrum":true},{"pitch":44,"velocity":80,"startTime":146.30517,"endTime":146.32980049999998,"instrument":1,"isDrum":true},{"pitch":51,"velocity":80,"startTime":146.30517,"endTime":146.32980049999998,"instrument":1,"isDrum":true},{"pitch":54,"velocity":80,"startTime":146.30517,"endTime":146.32980049999998,"instrument":1,"isDrum":true},{"pitch":35,"velocity":80,"startTime":146.50221399999998,"endTime":146.57610549999998,"instrument":1,"isDrum":true},{"pitch":51,"velocity":80,"startTime":146.50221399999998,"endTime":146.57610549999998,"instrument":1,"isDrum":true},{"pitch":35,"velocity":80,"startTime":146.60073599999998,"endTime":146.62536649999998,"instrument":1,"isDrum":true},{"pitch":44,"velocity":80,"startTime":146.60073599999998,"endTime":146.62536649999998,"instrument":1,"isDrum":true},{"pitch":51,"velocity":80,"startTime":146.60073599999998,"endTime":146.62536649999998,"instrument":1,"isDrum":true},{"pitch":35,"velocity":80,"startTime":146.79778,"endTime":146.8224105,"instrument":1,"isDrum":true},{"pitch":51,"velocity":80,"startTime":146.79778,"endTime":146.8224105,"instrument":1,"isDrum":true},{"pitch":37,"velocity":80,"startTime":146.896302,"endTime":146.9209325,"instrument":1,"isDrum":true},{"pitch":38,"velocity":80,"startTime":146.896302,"endTime":146.9209325,"instrument":1,"isDrum":true},{"pitch":39,"velocity":80,"startTime":146.896302,"endTime":146.9209325,"instrument":1,"isDrum":true},{"pitch":44,"velocity":80,"startTime":146.896302,"endTime":146.9209325,"instrument":1,"isDrum":true},{"pitch":51,"velocity":80,"startTime":146.896302,"endTime":146.9209325,"instrument":1,"isDrum":true},{"pitch":54,"velocity":80,"startTime":146.896302,"endTime":146.9209325,"instrument":1,"isDrum":true},{"pitch":35,"velocity":80,"startTime":147.093346,"endTime":147.1672375,"instrument":1,"isDrum":true},{"pitch":51,"velocity":80,"startTime":147.093346,"endTime":147.1672375,"instrument":1,"isDrum":true},{"pitch":35,"velocity":80,"startTime":147.191868,"endTime":147.2164985,"instrument":1,"isDrum":true},{"pitch":44,"velocity":80,"startTime":147.191868,"endTime":147.2164985,"instrument":1,"isDrum":true},{"pitch":51,"velocity":80,"startTime":147.191868,"endTime":147.2164985,"instrument":1,"isDrum":true},{"pitch":35,"velocity":80,"startTime":147.38891199999998,"endTime":147.43817299999998,"instrument":1,"isDrum":true},{"pitch":51,"velocity":80,"startTime":147.38891199999998,"endTime":147.43817299999998,"instrument":1,"isDrum":true},{"pitch":56,"velocity":80,"startTime":147.38891199999998,"endTime":147.43817299999998,"instrument":1,"isDrum":true},{"pitch":37,"velocity":80,"startTime":147.48743399999998,"endTime":147.51206449999998,"instrument":1,"isDrum":true},{"pitch":38,"velocity":80,"startTime":147.48743399999998,"endTime":147.51206449999998,"instrument":1,"isDrum":true},{"pitch":39,"velocity":80,"startTime":147.48743399999998,"endTime":147.51206449999998,"instrument":1,"isDrum":true},{"pitch":44,"velocity":80,"startTime":147.48743399999998,"endTime":147.51206449999998,"instrument":1,"isDrum":true},{"pitch":51,"velocity":80,"startTime":147.48743399999998,"endTime":147.51206449999998,"instrument":1,"isDrum":true},{"pitch":54,"velocity":80,"startTime":147.48743399999998,"endTime":147.51206449999998,"instrument":1,"isDrum":true},{"pitch":35,"velocity":80,"startTime":147.68447799999998,"endTime":147.7583695,"instrument":1,"isDrum":true},{"pitch":51,"velocity":80,"startTime":147.68447799999998,"endTime":147.7583695,"instrument":1,"isDrum":true},{"pitch":44,"velocity":80,"startTime":147.783,"endTime":147.8076305,"instrument":1,"isDrum":true},{"pitch":51,"velocity":80,"startTime":147.783,"endTime":147.8076305,"instrument":1,"isDrum":true},{"pitch":35,"velocity":80,"startTime":147.980044,"endTime":148.0046745,"instrument":1,"isDrum":true},{"pitch":51,"velocity":80,"startTime":147.980044,"endTime":148.0046745,"instrument":1,"isDrum":true},{"pitch":37,"velocity":80,"startTime":148.078566,"endTime":148.1031965,"instrument":1,"isDrum":true},{"pitch":38,"velocity":80,"startTime":148.078566,"endTime":148.1031965,"instrument":1,"isDrum":true},{"pitch":44,"velocity":80,"startTime":148.078566,"endTime":148.1031965,"instrument":1,"isDrum":true},{"pitch":51,"velocity":80,"startTime":148.078566,"endTime":148.1031965,"instrument":1,"isDrum":true},{"pitch":53,"velocity":80,"startTime":148.078566,"endTime":148.1031965,"instrument":1,"isDrum":true},{"pitch":56,"velocity":80,"startTime":148.078566,"endTime":148.1031965,"instrument":1,"isDrum":true},{"pitch":35,"velocity":80,"startTime":148.27561,"endTime":148.3495015,"instrument":1,"isDrum":true},{"pitch":51,"velocity":80,"startTime":148.27561,"endTime":148.3495015,"instrument":1,"isDrum":true},{"pitch":43,"velocity":103,"startTime":141.87168,"endTime":142.16724599999998,"instrument":2,"program":32},{"pitch":50,"velocity":103,"startTime":142.16724599999998,"endTime":142.46281199999999,"instrument":2,"program":32},{"pitch":47,"velocity":103,"startTime":142.46281199999999,"endTime":142.7830085,"instrument":2,"program":32},{"pitch":43,"velocity":103,"startTime":142.758378,"endTime":143.004683,"instrument":2,"program":32},{"pitch":43,"velocity":103,"startTime":143.053944,"endTime":143.27561849999998,"instrument":2,"program":32},{"pitch":31,"velocity":103,"startTime":143.27561849999998,"endTime":143.34950999999998,"instrument":2,"program":32},{"pitch":43,"velocity":103,"startTime":143.34950999999998,"endTime":143.645076,"instrument":2,"program":32},{"pitch":35,"velocity":103,"startTime":143.645076,"endTime":143.989903,"instrument":2,"program":32},{"pitch":43,"velocity":103,"startTime":143.940642,"endTime":144.23620799999998,"instrument":2,"program":32},{"pitch":40,"velocity":103,"startTime":144.23620799999998,"endTime":144.53177399999998,"instrument":2,"program":32},{"pitch":28,"velocity":103,"startTime":144.45788249999998,"endTime":144.50714349999998,"instrument":2,"program":32},{"pitch":52,"velocity":103,"startTime":144.53177399999998,"endTime":144.7534485,"instrument":2,"program":32},{"pitch":32,"velocity":103,"startTime":144.7534485,"endTime":144.8027095,"instrument":2,"program":32},{"pitch":40,"velocity":103,"startTime":144.82734,"endTime":145.122906,"instrument":2,"program":32},{"pitch":28,"velocity":103,"startTime":145.0490145,"endTime":145.0982755,"instrument":2,"program":32},{"pitch":41,"velocity":103,"startTime":145.122906,"endTime":145.34458049999998,"instrument":2,"program":32},{"pitch":28,"velocity":103,"startTime":145.34458049999998,"endTime":145.39384149999998,"instrument":2,"program":32},{"pitch":40,"velocity":103,"startTime":145.41847199999998,"endTime":145.763299,"instrument":2,"program":32},{"pitch":47,"velocity":103,"startTime":145.714038,"endTime":146.30517,"instrument":2,"program":32},{"pitch":47,"velocity":103,"startTime":146.009604,"endTime":146.0342345,"instrument":2,"program":32},{"pitch":47,"velocity":103,"startTime":146.30517,"endTime":146.60073599999998,"instrument":2,"program":32},{"pitch":36,"velocity":103,"startTime":146.60073599999998,"endTime":146.8224105,"instrument":2,"program":32},{"pitch":24,"velocity":103,"startTime":146.8224105,"endTime":146.8716715,"instrument":2,"program":32},{"pitch":35,"velocity":103,"startTime":146.896302,"endTime":147.191868,"instrument":2,"program":32},{"pitch":36,"velocity":103,"startTime":147.191868,"endTime":147.41354249999998,"instrument":2,"program":32},{"pitch":24,"velocity":103,"startTime":147.41354249999998,"endTime":147.48743399999998,"instrument":2,"program":32},{"pitch":31,"velocity":103,"startTime":147.48743399999998,"endTime":147.783,"instrument":2,"program":32},{"pitch":31,"velocity":99,"endTime":0.2463049999999989,"instrument":3,"program":35},{"pitch":31,"velocity":99,"startTime":1.034481,"endTime":1.1256138500000028,"instrument":3,"program":35},{"pitch":31,"velocity":99,"startTime":1.1822640000000018,"endTime":1.4285689999999969,"instrument":3,"program":35},{"pitch":35,"velocity":99,"startTime":1.7733960000000006,"endTime":2.1440850250000008,"instrument":3,"program":35},{"pitch":26,"velocity":99,"startTime":2.073888099999999,"endTime":2.358370375000003,"instrument":3,"program":35},{"pitch":28,"velocity":99,"startTime":2.3645279999999995,"endTime":2.6108329999999986,"instrument":3,"program":35},{"pitch":28,"velocity":99,"startTime":3.3990089999999995,"endTime":3.4827527000000003,"instrument":3,"program":35},{"pitch":28,"velocity":99,"startTime":3.5467920000000013,"endTime":3.793097,"instrument":3,"program":35},{"pitch":36,"velocity":99,"startTime":4.729055999999999,"endTime":4.975360999999998,"instrument":3,"program":35},{"pitch":40,"velocity":99,"startTime":5.7635369999999995,"endTime":5.9162460999999995,"instrument":3,"program":35},{"pitch":38,"velocity":99,"startTime":5.911320000000001,"endTime":6.1576249999999995,"instrument":3,"program":35},{"pitch":31,"velocity":99,"startTime":7.093583999999999,"endTime":7.302943249999998,"instrument":3,"program":35},{"pitch":31,"velocity":99,"startTime":8.128065,"endTime":8.20441955,"instrument":3,"program":35},{"pitch":31,"velocity":99,"startTime":8.275848,"endTime":8.522153,"instrument":3,"program":35},{"pitch":26,"velocity":99,"startTime":9.162545999999999,"endTime":9.444565225,"instrument":3,"program":35},{"pitch":31,"velocity":99,"startTime":9.458112000000002,"endTime":9.704416999999998,"instrument":3,"program":35},{"pitch":31,"velocity":99,"startTime":10.492592999999998,"endTime":10.58372585,"instrument":3,"program":35},{"pitch":31,"velocity":99,"startTime":10.640376,"endTime":10.886681,"instrument":3,"program":35},{"pitch":35,"velocity":99,"startTime":11.231507999999998,"endTime":11.602197024999999,"instrument":3,"program":35},{"pitch":26,"velocity":99,"startTime":11.532000100000001,"endTime":11.816482375000001,"instrument":3,"program":35},{"pitch":28,"velocity":99,"startTime":11.822640000000002,"endTime":12.068945000000001,"instrument":3,"program":35},{"pitch":28,"velocity":99,"startTime":12.857121000000001,"endTime":12.940864699999999,"instrument":3,"program":35},{"pitch":28,"velocity":99,"startTime":13.004904,"endTime":13.251208999999998,"instrument":3,"program":35},{"pitch":36,"velocity":99,"startTime":14.187168000000002,"endTime":14.433473,"instrument":3,"program":35},{"pitch":40,"velocity":99,"startTime":15.221649000000001,"endTime":15.374358100000002,"instrument":3,"program":35},{"pitch":38,"velocity":99,"startTime":15.369432,"endTime":15.615736999999998,"instrument":3,"program":35},{"pitch":31,"velocity":99,"startTime":16.551695999999996,"endTime":16.76105525,"instrument":3,"program":35},{"pitch":31,"velocity":99,"startTime":17.586176999999996,"endTime":17.66253155,"instrument":3,"program":35},{"pitch":31,"velocity":99,"startTime":17.733960000000003,"endTime":17.980265000000003,"instrument":3,"program":35},{"pitch":26,"velocity":99,"startTime":18.620657999999995,"endTime":18.902677225,"instrument":3,"program":35},{"pitch":31,"velocity":99,"startTime":18.916224,"endTime":19.162529000000006,"instrument":3,"program":35},{"pitch":31,"velocity":99,"startTime":19.950705,"endTime":20.04183785,"instrument":3,"program":35},{"pitch":31,"velocity":99,"startTime":20.098488,"endTime":20.344793000000003,"instrument":3,"program":35},{"pitch":35,"velocity":99,"startTime":20.689619999999998,"endTime":21.060309024999995,"instrument":3,"program":35},{"pitch":26,"velocity":99,"startTime":20.990112100000008,"endTime":21.274594375,"instrument":3,"program":35},{"pitch":28,"velocity":99,"startTime":21.280752000000003,"endTime":21.527057000000003,"instrument":3,"program":35},{"pitch":28,"velocity":99,"startTime":22.315233000000003,"endTime":22.3989767,"instrument":3,"program":35},{"pitch":28,"velocity":99,"startTime":22.463016,"endTime":22.709321,"instrument":3,"program":35},{"pitch":36,"velocity":99,"startTime":23.64528,"endTime":23.891585000000006,"instrument":3,"program":35},{"pitch":40,"velocity":99,"startTime":24.679761,"endTime":24.832470100000002,"instrument":3,"program":35},{"pitch":38,"velocity":99,"startTime":24.827543999999996,"endTime":25.073849000000003,"instrument":3,"program":35},{"pitch":31,"velocity":99,"startTime":26.009808000000003,"endTime":26.219167250000005,"instrument":3,"program":35},{"pitch":31,"velocity":99,"startTime":27.044289000000003,"endTime":27.120643549999997,"instrument":3,"program":35},{"pitch":31,"velocity":99,"startTime":27.192072,"endTime":27.438377,"instrument":3,"program":35},{"pitch":26,"velocity":99,"startTime":28.078770000000002,"endTime":28.36078922500001,"instrument":3,"program":35},{"pitch":31,"velocity":99,"startTime":28.374336,"endTime":28.620641000000006,"instrument":3,"program":35},{"pitch":31,"velocity":99,"startTime":29.408817,"endTime":29.499949850000004,"instrument":3,"program":35},{"pitch":31,"velocity":99,"startTime":29.556600000000003,"endTime":29.802905000000003,"instrument":3,"program":35},{"pitch":35,"velocity":99,"startTime":30.147732,"endTime":30.518421025000002,"instrument":3,"program":35},{"pitch":26,"velocity":99,"startTime":30.448224100000004,"endTime":30.732706374999996,"instrument":3,"program":35},{"pitch":28,"velocity":99,"startTime":30.738864000000003,"endTime":30.985169,"instrument":3,"program":35},{"pitch":28,"velocity":99,"startTime":31.773345000000003,"endTime":31.8570887,"instrument":3,"program":35},{"pitch":28,"velocity":99,"startTime":31.921128,"endTime":32.167433,"instrument":3,"program":35},{"pitch":36,"velocity":99,"startTime":33.103392,"endTime":33.349697000000006,"instrument":3,"program":35},{"pitch":40,"velocity":99,"startTime":34.137873,"endTime":34.2905821,"instrument":3,"program":35},{"pitch":38,"velocity":99,"startTime":34.285656,"endTime":34.531961,"instrument":3,"program":35},{"pitch":31,"velocity":99,"startTime":35.46792,"endTime":35.677279250000005,"instrument":3,"program":35},{"pitch":31,"velocity":99,"startTime":36.502401,"endTime":36.57875555,"instrument":3,"program":35},{"pitch":31,"velocity":99,"startTime":36.650183999999996,"endTime":36.896489,"instrument":3,"program":35},{"pitch":26,"velocity":99,"startTime":37.536882,"endTime":37.81890122500001,"instrument":3,"program":35},{"pitch":31,"velocity":99,"startTime":37.83244800000001,"endTime":38.078753,"instrument":3,"program":35},{"pitch":31,"velocity":99,"startTime":38.86692899999999,"endTime":38.95806185,"instrument":3,"program":35},{"pitch":31,"velocity":99,"startTime":39.014712,"endTime":39.261016999999995,"instrument":3,"program":35},{"pitch":35,"velocity":99,"startTime":39.605844,"endTime":39.976533025,"instrument":3,"program":35},{"pitch":26,"velocity":99,"startTime":39.9063361,"endTime":40.19081837499999,"instrument":3,"program":35},{"pitch":28,"velocity":99,"startTime":40.19697600000001,"endTime":40.44328100000001,"instrument":3,"program":35},{"pitch":28,"velocity":99,"startTime":41.231457000000006,"endTime":41.31520069999999,"instrument":3,"program":35},{"pitch":28,"velocity":99,"startTime":41.37924,"endTime":41.62554500000001,"instrument":3,"program":35},{"pitch":36,"velocity":99,"startTime":42.561504,"endTime":42.807809000000006,"instrument":3,"program":35},{"pitch":40,"velocity":99,"startTime":43.595985,"endTime":43.7486941,"instrument":3,"program":35},{"pitch":38,"velocity":99,"startTime":43.743767999999996,"endTime":43.990073,"instrument":3,"program":35},{"pitch":31,"velocity":99,"startTime":44.92603199999999,"endTime":45.135391250000005,"instrument":3,"program":35},{"pitch":31,"velocity":99,"startTime":45.96051299999999,"endTime":46.03686755,"instrument":3,"program":35},{"pitch":31,"velocity":99,"startTime":46.108295999999996,"endTime":46.354601,"instrument":3,"program":35},{"pitch":26,"velocity":99,"startTime":46.994994,"endTime":47.277013225000005,"instrument":3,"program":35},{"pitch":31,"velocity":99,"startTime":47.290560000000006,"endTime":47.536865,"instrument":3,"program":35},{"pitch":31,"velocity":99,"startTime":48.325041000000006,"endTime":48.41617385,"instrument":3,"program":35},{"pitch":31,"velocity":99,"startTime":48.472824,"endTime":48.71912900000001,"instrument":3,"program":35},{"pitch":35,"velocity":99,"startTime":49.063956,"endTime":49.434645025,"instrument":3,"program":35},{"pitch":26,"velocity":99,"startTime":49.3644481,"endTime":49.648930375000006,"instrument":3,"program":35},{"pitch":28,"velocity":99,"startTime":49.655088,"endTime":49.901393000000006,"instrument":3,"program":35},{"pitch":28,"velocity":99,"startTime":50.689569,"endTime":50.773312700000005,"instrument":3,"program":35},{"pitch":28,"velocity":99,"startTime":50.837352,"endTime":51.08365700000001,"instrument":3,"program":35},{"pitch":36,"velocity":99,"startTime":52.019616,"endTime":52.265921000000006,"instrument":3,"program":35},{"pitch":40,"velocity":99,"startTime":53.054097,"endTime":53.2068061,"instrument":3,"program":35},{"pitch":38,"velocity":99,"startTime":53.20188000000001,"endTime":53.448185,"instrument":3,"program":35},{"pitch":31,"velocity":99,"startTime":54.384144000000006,"endTime":54.593503250000005,"instrument":3,"program":35},{"pitch":31,"velocity":99,"startTime":55.418625000000006,"endTime":55.49497955,"instrument":3,"program":35},{"pitch":31,"velocity":99,"startTime":55.566408,"endTime":55.81271300000001,"instrument":3,"program":35},{"pitch":26,"velocity":99,"startTime":56.453106000000005,"endTime":56.735125225000004,"instrument":3,"program":35},{"pitch":31,"velocity":99,"startTime":56.748672000000006,"endTime":56.994977,"instrument":3,"program":35},{"pitch":31,"velocity":99,"startTime":57.783153000000006,"endTime":57.874285850000014,"instrument":3,"program":35},{"pitch":31,"velocity":99,"startTime":57.930936,"endTime":58.177240999999995,"instrument":3,"program":35},{"pitch":35,"velocity":99,"startTime":58.52206800000001,"endTime":58.892757025,"instrument":3,"program":35},{"pitch":26,"velocity":99,"startTime":58.8225601,"endTime":59.107042375000006,"instrument":3,"program":35},{"pitch":28,"velocity":99,"startTime":59.1132,"endTime":59.35950499999999,"instrument":3,"program":35},{"pitch":28,"velocity":99,"startTime":60.147681,"endTime":60.23142470000002,"instrument":3,"program":35},{"pitch":28,"velocity":99,"startTime":60.295463999999996,"endTime":60.541769,"instrument":3,"program":35},{"pitch":36,"velocity":99,"startTime":61.47772800000001,"endTime":61.724033,"instrument":3,"program":35},{"pitch":40,"velocity":99,"startTime":62.51220900000001,"endTime":62.6649181,"instrument":3,"program":35},{"pitch":38,"velocity":99,"startTime":62.65999200000001,"endTime":62.906297,"instrument":3,"program":35},{"pitch":31,"velocity":99,"startTime":63.842256000000006,"endTime":64.05161525,"instrument":3,"program":35},{"pitch":31,"velocity":99,"startTime":64.876737,"endTime":64.95309155000001,"instrument":3,"program":35},{"pitch":31,"velocity":99,"startTime":65.02452000000001,"endTime":65.270825,"instrument":3,"program":35},{"pitch":26,"velocity":99,"startTime":65.911218,"endTime":66.193237225,"instrument":3,"program":35},{"pitch":31,"velocity":99,"startTime":66.206784,"endTime":66.45308899999999,"instrument":3,"program":35},{"pitch":31,"velocity":99,"startTime":67.241265,"endTime":67.33239785,"instrument":3,"program":35},{"pitch":31,"velocity":99,"startTime":67.389048,"endTime":67.635353,"instrument":3,"program":35},{"pitch":35,"velocity":99,"startTime":67.98018,"endTime":68.350869025,"instrument":3,"program":35},{"pitch":26,"velocity":99,"startTime":68.28067209999999,"endTime":68.56515437500002,"instrument":3,"program":35},{"pitch":28,"velocity":99,"startTime":68.57131199999999,"endTime":68.817617,"instrument":3,"program":35},{"pitch":28,"velocity":99,"startTime":69.60579299999999,"endTime":69.68953670000002,"instrument":3,"program":35},{"pitch":28,"velocity":99,"startTime":69.75357600000001,"endTime":69.999881,"instrument":3,"program":35},{"pitch":36,"velocity":99,"startTime":70.93584000000001,"endTime":71.182145,"instrument":3,"program":35},{"pitch":40,"velocity":99,"startTime":71.97032100000001,"endTime":72.1230301,"instrument":3,"program":35},{"pitch":38,"velocity":99,"startTime":72.118104,"endTime":72.364409,"instrument":3,"program":35},{"pitch":31,"velocity":99,"startTime":73.300368,"endTime":73.50972725,"instrument":3,"program":35},{"pitch":31,"velocity":99,"startTime":74.334849,"endTime":74.41120355000001,"instrument":3,"program":35},{"pitch":31,"velocity":99,"startTime":74.48263200000001,"endTime":74.72893699999999,"instrument":3,"program":35},{"pitch":26,"velocity":99,"startTime":75.36933,"endTime":75.651349225,"instrument":3,"program":35},{"pitch":31,"velocity":99,"startTime":75.664896,"endTime":75.91120099999999,"instrument":3,"program":35},{"pitch":31,"velocity":99,"startTime":76.699377,"endTime":76.79050985,"instrument":3,"program":35},{"pitch":31,"velocity":99,"startTime":76.84716,"endTime":77.09346500000001,"instrument":3,"program":35},{"pitch":35,"velocity":99,"startTime":77.438292,"endTime":77.808981025,"instrument":3,"program":35},{"pitch":26,"velocity":99,"startTime":77.7387841,"endTime":78.02326637500002,"instrument":3,"program":35},{"pitch":28,"velocity":99,"startTime":78.029424,"endTime":78.275729,"instrument":3,"program":35},{"pitch":28,"velocity":99,"startTime":79.063905,"endTime":79.14764870000002,"instrument":3,"program":35},{"pitch":28,"velocity":118,"startTime":79.21168800000001,"endTime":79.457993,"instrument":3,"program":35},{"pitch":36,"velocity":118,"startTime":80.39395200000001,"endTime":80.640257,"instrument":3,"program":35},{"pitch":40,"velocity":118,"startTime":81.42843300000001,"endTime":81.5811421,"instrument":3,"program":35},{"pitch":38,"velocity":118,"startTime":81.576216,"endTime":81.822521,"instrument":3,"program":35},{"pitch":31,"velocity":118,"startTime":82.75848,"endTime":82.96783925,"instrument":3,"program":35},{"pitch":31,"velocity":118,"startTime":83.792961,"endTime":83.86931555000001,"instrument":3,"program":35},{"pitch":31,"velocity":118,"startTime":83.940744,"endTime":84.18704899999999,"instrument":3,"program":35},{"pitch":26,"velocity":118,"startTime":84.827442,"endTime":85.109461225,"instrument":3,"program":35},{"pitch":31,"velocity":118,"startTime":85.123008,"endTime":85.369313,"instrument":3,"program":35},{"pitch":31,"velocity":118,"startTime":86.157489,"endTime":86.24862185,"instrument":3,"program":35},{"pitch":31,"velocity":118,"startTime":86.30527200000002,"endTime":86.55157700000001,"instrument":3,"program":35},{"pitch":35,"velocity":118,"startTime":86.896404,"endTime":87.26709302500001,"instrument":3,"program":35},{"pitch":26,"velocity":118,"startTime":87.1968961,"endTime":87.48137837500002,"instrument":3,"program":35},{"pitch":28,"velocity":118,"startTime":87.487536,"endTime":87.733841,"instrument":3,"program":35},{"pitch":28,"velocity":118,"startTime":88.522017,"endTime":88.60576070000002,"instrument":3,"program":35},{"pitch":28,"velocity":118,"startTime":88.66980000000001,"endTime":88.916105,"instrument":3,"program":35},{"pitch":36,"velocity":118,"startTime":89.852064,"endTime":90.09836899999999,"instrument":3,"program":35},{"pitch":40,"velocity":118,"startTime":90.886545,"endTime":91.0392541,"instrument":3,"program":35},{"pitch":38,"velocity":118,"startTime":91.034328,"endTime":91.280633,"instrument":3,"program":35},{"pitch":31,"velocity":118,"startTime":92.216592,"endTime":92.42595125,"instrument":3,"program":35},{"pitch":31,"velocity":118,"startTime":93.251073,"endTime":93.32742755000001,"instrument":3,"program":35},{"pitch":31,"velocity":118,"startTime":93.398856,"endTime":93.645161,"instrument":3,"program":35},{"pitch":26,"velocity":118,"startTime":94.285554,"endTime":94.567573225,"instrument":3,"program":35},{"pitch":31,"velocity":118,"startTime":94.58112000000001,"endTime":94.827425,"instrument":3,"program":35},{"pitch":31,"velocity":118,"startTime":95.615601,"endTime":95.70673385,"instrument":3,"program":35},{"pitch":31,"velocity":118,"startTime":95.76338400000002,"endTime":96.009689,"instrument":3,"program":35},{"pitch":35,"velocity":118,"startTime":96.354516,"endTime":96.72520502500001,"instrument":3,"program":35},{"pitch":26,"velocity":118,"startTime":96.6550081,"endTime":96.939490375,"instrument":3,"program":35},{"pitch":28,"velocity":118,"startTime":96.945648,"endTime":97.191953,"instrument":3,"program":35},{"pitch":28,"velocity":118,"startTime":97.980129,"endTime":98.06387270000002,"instrument":3,"program":35},{"pitch":28,"velocity":118,"startTime":98.12791200000001,"endTime":98.374217,"instrument":3,"program":35},{"pitch":36,"velocity":118,"startTime":99.310176,"endTime":99.55648099999999,"instrument":3,"program":35},{"pitch":40,"velocity":118,"startTime":100.344657,"endTime":100.4973661,"instrument":3,"program":35},{"pitch":38,"velocity":118,"startTime":100.49244,"endTime":100.738745,"instrument":3,"program":35},{"pitch":31,"velocity":118,"startTime":101.674704,"endTime":101.88406325,"instrument":3,"program":35},{"pitch":31,"velocity":118,"startTime":102.709185,"endTime":102.78553955,"instrument":3,"program":35},{"pitch":31,"velocity":118,"startTime":102.856968,"endTime":103.103273,"instrument":3,"program":35},{"pitch":26,"velocity":118,"startTime":103.743666,"endTime":104.02568522499999,"instrument":3,"program":35},{"pitch":31,"velocity":118,"startTime":104.03923200000001,"endTime":104.285537,"instrument":3,"program":35},{"pitch":31,"velocity":118,"startTime":105.07371300000001,"endTime":105.16484585,"instrument":3,"program":35},{"pitch":31,"velocity":118,"startTime":105.221496,"endTime":105.467801,"instrument":3,"program":35},{"pitch":35,"velocity":118,"startTime":105.812628,"endTime":106.18331702500001,"instrument":3,"program":35},{"pitch":26,"velocity":118,"startTime":106.1131201,"endTime":106.397602375,"instrument":3,"program":35},{"pitch":28,"velocity":118,"startTime":106.40376,"endTime":106.650065,"instrument":3,"program":35},{"pitch":28,"velocity":118,"startTime":107.438241,"endTime":107.5219847,"instrument":3,"program":35},{"pitch":28,"velocity":118,"startTime":107.58602400000001,"endTime":107.832329,"instrument":3,"program":35},{"pitch":36,"velocity":118,"startTime":108.768288,"endTime":109.01459299999999,"instrument":3,"program":35},{"pitch":40,"velocity":118,"startTime":109.802769,"endTime":109.95547810000001,"instrument":3,"program":35},{"pitch":38,"velocity":118,"startTime":109.950552,"endTime":110.19685700000001,"instrument":3,"program":35},{"pitch":31,"velocity":118,"startTime":111.13281599999999,"endTime":111.34217525,"instrument":3,"program":35},{"pitch":31,"velocity":118,"startTime":112.16729699999999,"endTime":112.24365155,"instrument":3,"program":35},{"pitch":31,"velocity":118,"startTime":112.31508000000001,"endTime":112.561385,"instrument":3,"program":35},{"pitch":26,"velocity":118,"startTime":113.20177799999999,"endTime":113.48379722499999,"instrument":3,"program":35},{"pitch":31,"velocity":118,"startTime":113.49734400000001,"endTime":113.743649,"instrument":3,"program":35},{"pitch":31,"velocity":118,"startTime":114.53182500000001,"endTime":114.62295785,"instrument":3,"program":35},{"pitch":31,"velocity":118,"startTime":114.679608,"endTime":114.925913,"instrument":3,"program":35},{"pitch":35,"velocity":118,"startTime":115.27074,"endTime":115.64142902500001,"instrument":3,"program":35},{"pitch":26,"velocity":118,"startTime":115.5712321,"endTime":115.855714375,"instrument":3,"program":35},{"pitch":28,"velocity":118,"startTime":115.861872,"endTime":116.108177,"instrument":3,"program":35},{"pitch":28,"velocity":118,"startTime":116.896353,"endTime":116.9800967,"instrument":3,"program":35},{"pitch":28,"velocity":118,"startTime":117.04413600000001,"endTime":117.29044099999999,"instrument":3,"program":35},{"pitch":36,"velocity":118,"startTime":118.2264,"endTime":118.472705,"instrument":3,"program":35},{"pitch":40,"velocity":118,"startTime":119.260881,"endTime":119.41359010000001,"instrument":3,"program":35},{"pitch":38,"velocity":118,"startTime":119.40866400000002,"endTime":119.65496900000001,"instrument":3,"program":35},{"pitch":31,"velocity":118,"startTime":120.59092799999999,"endTime":120.80028725000001,"instrument":3,"program":35},{"pitch":31,"velocity":118,"startTime":121.62540899999999,"endTime":121.70176355,"instrument":3,"program":35},{"pitch":31,"velocity":118,"startTime":121.77319200000001,"endTime":122.019497,"instrument":3,"program":35},{"pitch":26,"velocity":118,"startTime":122.65988999999999,"endTime":122.94190922499999,"instrument":3,"program":35},{"pitch":31,"velocity":118,"startTime":122.955456,"endTime":123.20176100000002,"instrument":3,"program":35},{"pitch":31,"velocity":118,"startTime":123.989937,"endTime":124.08106984999999,"instrument":3,"program":35},{"pitch":31,"velocity":118,"startTime":124.13772,"endTime":124.384025,"instrument":3,"program":35},{"pitch":35,"velocity":118,"startTime":124.72885199999999,"endTime":125.09954102500002,"instrument":3,"program":35},{"pitch":26,"velocity":118,"startTime":125.02934410000002,"endTime":125.31382637500002,"instrument":3,"program":35},{"pitch":28,"velocity":118,"startTime":125.31998400000002,"endTime":125.56628900000001,"instrument":3,"program":35},{"pitch":28,"velocity":118,"startTime":126.35446500000002,"endTime":126.43820870000002,"instrument":3,"program":35},{"pitch":28,"velocity":99,"startTime":126.502248,"endTime":126.74855299999999,"instrument":3,"program":35},{"pitch":36,"velocity":99,"startTime":127.68451200000001,"endTime":127.930817,"instrument":3,"program":35},{"pitch":40,"velocity":99,"startTime":128.718993,"endTime":128.8717021,"instrument":3,"program":35},{"pitch":38,"velocity":99,"startTime":128.866776,"endTime":129.113081,"instrument":3,"program":35},{"pitch":31,"velocity":99,"startTime":130.04904000000002,"endTime":130.25839925,"instrument":3,"program":35},{"pitch":31,"velocity":99,"startTime":131.08352100000002,"endTime":131.15987555,"instrument":3,"program":35},{"pitch":31,"velocity":99,"startTime":131.231304,"endTime":131.477609,"instrument":3,"program":35},{"pitch":26,"velocity":99,"startTime":132.11800200000002,"endTime":132.40002122500002,"instrument":3,"program":35},{"pitch":31,"velocity":99,"startTime":132.413568,"endTime":132.65987300000003,"instrument":3,"program":35},{"pitch":31,"velocity":99,"startTime":133.448049,"endTime":133.53918184999998,"instrument":3,"program":35},{"pitch":31,"velocity":99,"startTime":133.59583200000003,"endTime":133.842137,"instrument":3,"program":35},{"pitch":35,"velocity":99,"startTime":134.18696400000002,"endTime":134.55765302500004,"instrument":3,"program":35},{"pitch":26,"velocity":99,"startTime":134.4874561,"endTime":134.771938375,"instrument":3,"program":35},{"pitch":28,"velocity":99,"startTime":134.778096,"endTime":135.024401,"instrument":3,"program":35},{"pitch":28,"velocity":99,"startTime":135.812577,"endTime":135.89632070000002,"instrument":3,"program":35},{"pitch":28,"velocity":99,"startTime":135.96036,"endTime":136.20666500000002,"instrument":3,"program":35},{"pitch":36,"velocity":99,"startTime":137.14262399999998,"endTime":137.38892900000002,"instrument":3,"program":35},{"pitch":40,"velocity":99,"startTime":138.17710499999998,"endTime":138.3298141,"instrument":3,"program":35},{"pitch":38,"velocity":99,"startTime":138.32488800000002,"endTime":138.57119300000002,"instrument":3,"program":35},{"pitch":31,"velocity":99,"startTime":139.507152,"endTime":139.71651125,"instrument":3,"program":35},{"pitch":31,"velocity":99,"startTime":140.541633,"endTime":140.61798754999998,"instrument":3,"program":35},{"pitch":31,"velocity":79,"startTime":140.689416,"endTime":140.93572100000003,"instrument":3,"program":35},{"pitch":26,"velocity":79,"startTime":141.576114,"endTime":141.858133225,"instrument":3,"program":35},{"pitch":31,"velocity":64,"startTime":141.87168000000003,"endTime":142.117985,"instrument":3,"program":35},{"pitch":31,"velocity":64,"startTime":142.90616100000003,"endTime":142.99729385,"instrument":3,"program":35},{"pitch":31,"velocity":45,"startTime":143.053944,"endTime":143.30024900000004,"instrument":3,"program":35},{"pitch":35,"velocity":45,"startTime":143.645076,"endTime":144.015765025,"instrument":3,"program":35},{"pitch":26,"velocity":45,"startTime":143.9455681,"endTime":144.230050375,"instrument":3,"program":35},{"pitch":28,"velocity":20,"startTime":144.236208,"endTime":144.482513,"instrument":3,"program":35},{"pitch":28,"velocity":20,"startTime":145.270689,"endTime":145.3544327,"instrument":3,"program":35},{"pitch":28,"velocity":10,"startTime":145.418472,"endTime":145.66477700000002,"instrument":3,"program":35},{"pitch":36,"velocity":1,"startTime":146.600736,"endTime":146.847041,"instrument":3,"program":35},{"pitch":40,"velocity":1,"startTime":147.635217,"endTime":147.78792610000002,"instrument":3,"program":35},{"pitch":71,"velocity":95,"startTime":8.567719424999998,"endTime":8.850970175,"instrument":4,"program":66},{"pitch":71,"velocity":90,"startTime":8.86698,"endTime":9.146536175,"instrument":4,"program":66},{"pitch":69,"velocity":92,"startTime":9.165009050000002,"endTime":9.371905249999998,"instrument":4,"program":66},{"pitch":67,"velocity":86,"startTime":9.458112000000002,"endTime":10.332494749999999,"instrument":4,"program":66},{"pitch":71,"velocity":91,"startTime":10.935941999999999,"endTime":11.5172218,"instrument":4,"program":66},{"pitch":69,"velocity":87,"startTime":11.523379425000002,"endTime":11.7388963,"instrument":4,"program":66},{"pitch":71,"velocity":84,"startTime":11.822640000000002,"endTime":12.693328175000001,"instrument":4,"program":66},{"pitch":67,"velocity":90,"startTime":13.152687,"endTime":13.214263249999998,"instrument":4,"program":66},{"pitch":67,"velocity":84,"startTime":13.296775424999998,"endTime":13.355888625,"instrument":4,"program":66},{"pitch":71,"velocity":108,"startTime":13.448253000000001,"endTime":13.733966800000003,"instrument":4,"program":66},{"pitch":72,"velocity":87,"startTime":13.737661375000004,"endTime":14.0147545,"instrument":4,"program":66},{"pitch":67,"velocity":99,"startTime":14.033227375000003,"endTime":14.150222250000002,"instrument":4,"program":66},{"pitch":67,"velocity":83,"startTime":14.331256424999998,"endTime":14.411305550000002,"instrument":4,"program":66},{"pitch":67,"velocity":76,"startTime":14.479039425,"endTime":14.538152625000002,"instrument":4,"program":66},{"pitch":72,"velocity":108,"startTime":14.624359375000001,"endTime":14.9162308,"instrument":4,"program":66},{"pitch":71,"velocity":89,"startTime":14.919925375000002,"endTime":15.203176124999999,"instrument":4,"program":66},{"pitch":69,"velocity":83,"startTime":15.217954425,"endTime":15.365737424999997,"instrument":4,"program":66},{"pitch":69,"velocity":86,"startTime":15.51967805,"endTime":15.578791250000002,"instrument":4,"program":66},{"pitch":67,"velocity":81,"startTime":15.667461050000005,"endTime":15.741352550000004,"instrument":4,"program":66},{"pitch":71,"velocity":105,"startTime":15.812781,"endTime":16.098494799999997,"instrument":4,"program":66},{"pitch":67,"velocity":72,"startTime":16.104652425,"endTime":16.215489674999997,"instrument":4,"program":66},{"pitch":67,"velocity":86,"startTime":16.397755375000003,"endTime":17.321399125,"instrument":4,"program":66},{"pitch":71,"velocity":95,"startTime":18.025831424999996,"endTime":18.309082175,"instrument":4,"program":66},{"pitch":71,"velocity":90,"startTime":18.325092,"endTime":18.604648175,"instrument":4,"program":66},{"pitch":69,"velocity":92,"startTime":18.62312105,"endTime":18.83001725,"instrument":4,"program":66},{"pitch":67,"velocity":86,"startTime":18.916224,"endTime":19.790606750000002,"instrument":4,"program":66},{"pitch":71,"velocity":91,"startTime":20.394054,"endTime":20.9753338,"instrument":4,"program":66},{"pitch":69,"velocity":87,"startTime":20.981491425000005,"endTime":21.1970083,"instrument":4,"program":66},{"pitch":71,"velocity":84,"startTime":21.280752000000003,"endTime":22.151440174999994,"instrument":4,"program":66},{"pitch":67,"velocity":90,"startTime":22.610799,"endTime":22.672375250000005,"instrument":4,"program":66},{"pitch":67,"velocity":84,"startTime":22.754887425000003,"endTime":22.814000625,"instrument":4,"program":66},{"pitch":71,"velocity":108,"startTime":22.906365,"endTime":23.1920788,"instrument":4,"program":66},{"pitch":72,"velocity":87,"startTime":23.195773374999995,"endTime":23.4728665,"instrument":4,"program":66},{"pitch":67,"velocity":99,"startTime":23.491339374999995,"endTime":23.608334250000002,"instrument":4,"program":66},{"pitch":67,"velocity":83,"startTime":23.789368425000003,"endTime":23.869417549999998,"instrument":4,"program":66},{"pitch":67,"velocity":76,"startTime":23.937151425,"endTime":23.996264625000002,"instrument":4,"program":66},{"pitch":72,"velocity":108,"startTime":24.082471374999997,"endTime":24.374342799999997,"instrument":4,"program":66},{"pitch":71,"velocity":89,"startTime":24.378037374999998,"endTime":24.661288125000002,"instrument":4,"program":66},{"pitch":69,"velocity":83,"startTime":24.676066425000005,"endTime":24.823849425000002,"instrument":4,"program":66},{"pitch":69,"velocity":86,"startTime":24.97779005,"endTime":25.03690325,"instrument":4,"program":66},{"pitch":67,"velocity":81,"startTime":25.125573049999996,"endTime":25.199464549999995,"instrument":4,"program":66},{"pitch":71,"velocity":105,"startTime":25.270892999999997,"endTime":25.556606800000004,"instrument":4,"program":66},{"pitch":67,"velocity":72,"startTime":25.562764425,"endTime":25.673601675000004,"instrument":4,"program":66},{"pitch":67,"velocity":86,"startTime":25.855867375,"endTime":26.779511125,"instrument":4,"program":66},{"pitch":71,"velocity":95,"startTime":46.400167425,"endTime":46.68341817500001,"instrument":4,"program":66},{"pitch":71,"velocity":90,"startTime":46.699428,"endTime":46.978984175,"instrument":4,"program":66},{"pitch":69,"velocity":92,"startTime":46.997457049999994,"endTime":47.204353250000004,"instrument":4,"program":66},{"pitch":67,"velocity":86,"startTime":47.290560000000006,"endTime":48.16494275,"instrument":4,"program":66},{"pitch":71,"velocity":91,"startTime":48.76839,"endTime":49.34966980000001,"instrument":4,"program":66},{"pitch":69,"velocity":87,"startTime":49.35582742500001,"endTime":49.5713443,"instrument":4,"program":66},{"pitch":71,"velocity":84,"startTime":49.655088,"endTime":50.52577617500001,"instrument":4,"program":66},{"pitch":67,"velocity":90,"startTime":50.985135,"endTime":51.04671125000001,"instrument":4,"program":66},{"pitch":67,"velocity":84,"startTime":51.129223425000006,"endTime":51.18833662500001,"instrument":4,"program":66},{"pitch":71,"velocity":108,"startTime":51.28070100000001,"endTime":51.566414800000004,"instrument":4,"program":66},{"pitch":72,"velocity":87,"startTime":51.57010937500001,"endTime":51.847202499999995,"instrument":4,"program":66},{"pitch":67,"velocity":99,"startTime":51.865675375,"endTime":51.98267025,"instrument":4,"program":66},{"pitch":67,"velocity":83,"startTime":52.163704425000006,"endTime":52.243753549999994,"instrument":4,"program":66},{"pitch":67,"velocity":76,"startTime":52.31148742500001,"endTime":52.37060062500001,"instrument":4,"program":66},{"pitch":72,"velocity":108,"startTime":52.456807375,"endTime":52.7486788,"instrument":4,"program":66},{"pitch":71,"velocity":89,"startTime":52.752373375000005,"endTime":53.035624125000005,"instrument":4,"program":66},{"pitch":69,"velocity":83,"startTime":53.05040242500001,"endTime":53.19818542500001,"instrument":4,"program":66},{"pitch":69,"velocity":86,"startTime":53.35212605,"endTime":53.41123925000001,"instrument":4,"program":66},{"pitch":67,"velocity":81,"startTime":53.49990905,"endTime":53.57380055000001,"instrument":4,"program":66},{"pitch":71,"velocity":105,"startTime":53.645229,"endTime":53.930942800000004,"instrument":4,"program":66},{"pitch":67,"velocity":72,"startTime":53.93710042500001,"endTime":54.047937675,"instrument":4,"program":66},{"pitch":67,"velocity":86,"startTime":54.230203374999995,"endTime":55.153847125,"instrument":4,"program":66},{"pitch":71,"velocity":95,"startTime":55.858279425,"endTime":56.141530175,"instrument":4,"program":66},{"pitch":71,"velocity":90,"startTime":56.15754,"endTime":56.437096175,"instrument":4,"program":66},{"pitch":69,"velocity":92,"startTime":56.45556905,"endTime":56.662465250000004,"instrument":4,"program":66},{"pitch":67,"velocity":86,"startTime":56.748672000000006,"endTime":57.623054749999994,"instrument":4,"program":66},{"pitch":71,"velocity":91,"startTime":58.226501999999996,"endTime":58.807781799999994,"instrument":4,"program":66},{"pitch":69,"velocity":87,"startTime":58.813939425,"endTime":59.02945629999999,"instrument":4,"program":66},{"pitch":71,"velocity":84,"startTime":59.1132,"endTime":59.983888175000004,"instrument":4,"program":66},{"pitch":67,"velocity":90,"startTime":60.443247000000014,"endTime":60.504823249999994,"instrument":4,"program":66},{"pitch":67,"velocity":84,"startTime":60.587335425000006,"endTime":60.64644862500001,"instrument":4,"program":66},{"pitch":71,"velocity":108,"startTime":60.73881300000001,"endTime":61.02452679999999,"instrument":4,"program":66},{"pitch":72,"velocity":87,"startTime":61.02822137500001,"endTime":61.30531450000001,"instrument":4,"program":66},{"pitch":67,"velocity":99,"startTime":61.323787375000016,"endTime":61.44078225,"instrument":4,"program":66},{"pitch":67,"velocity":83,"startTime":61.621816425000006,"endTime":61.701865549999994,"instrument":4,"program":66},{"pitch":67,"velocity":76,"startTime":61.769599425,"endTime":61.82871262500001,"instrument":4,"program":66},{"pitch":72,"velocity":108,"startTime":61.91491937500001,"endTime":62.2067908,"instrument":4,"program":66},{"pitch":71,"velocity":89,"startTime":62.210485375000005,"endTime":62.493736125000005,"instrument":4,"program":66},{"pitch":69,"velocity":83,"startTime":62.50851442500001,"endTime":62.656297425000005,"instrument":4,"program":66},{"pitch":69,"velocity":86,"startTime":62.81023805,"endTime":62.86935125,"instrument":4,"program":66},{"pitch":67,"velocity":81,"startTime":62.95802105,"endTime":63.03191255000001,"instrument":4,"program":66},{"pitch":71,"velocity":105,"startTime":63.103341,"endTime":63.3890548,"instrument":4,"program":66},{"pitch":67,"velocity":72,"startTime":63.39521242500001,"endTime":63.506049675000014,"instrument":4,"program":66},{"pitch":67,"velocity":86,"startTime":63.68831537500001,"endTime":64.61195912500001,"instrument":4,"program":66},{"pitch":71,"velocity":95,"startTime":93.690727425,"endTime":93.973978175,"instrument":4,"program":66},{"pitch":71,"velocity":90,"startTime":93.98998800000001,"endTime":94.26954417500001,"instrument":4,"program":66},{"pitch":69,"velocity":92,"startTime":94.28801705,"endTime":94.49491325,"instrument":4,"program":66},{"pitch":67,"velocity":86,"startTime":94.58112000000001,"endTime":95.45550275000001,"instrument":4,"program":66},{"pitch":71,"velocity":91,"startTime":96.05895000000001,"endTime":96.6402298,"instrument":4,"program":66},{"pitch":69,"velocity":87,"startTime":96.64638742500001,"endTime":96.8619043,"instrument":4,"program":66},{"pitch":71,"velocity":84,"startTime":96.945648,"endTime":97.816336175,"instrument":4,"program":66},{"pitch":67,"velocity":90,"startTime":98.275695,"endTime":98.33727125,"instrument":4,"program":66},{"pitch":67,"velocity":84,"startTime":98.419783425,"endTime":98.478896625,"instrument":4,"program":66},{"pitch":71,"velocity":108,"startTime":98.57126099999999,"endTime":98.8569748,"instrument":4,"program":66},{"pitch":72,"velocity":87,"startTime":98.86066937500001,"endTime":99.13776250000001,"instrument":4,"program":66},{"pitch":67,"velocity":99,"startTime":99.15623537500001,"endTime":99.27323025000001,"instrument":4,"program":66},{"pitch":67,"velocity":83,"startTime":99.454264425,"endTime":99.53431355000001,"instrument":4,"program":66},{"pitch":67,"velocity":76,"startTime":99.60204742500001,"endTime":99.661160625,"instrument":4,"program":66},{"pitch":72,"velocity":108,"startTime":99.74736737500001,"endTime":100.03923879999999,"instrument":4,"program":66},{"pitch":71,"velocity":89,"startTime":100.042933375,"endTime":100.326184125,"instrument":4,"program":66},{"pitch":69,"velocity":83,"startTime":100.340962425,"endTime":100.488745425,"instrument":4,"program":66},{"pitch":69,"velocity":86,"startTime":100.64268605,"endTime":100.70179925,"instrument":4,"program":66},{"pitch":67,"velocity":81,"startTime":100.79046905000001,"endTime":100.86436055,"instrument":4,"program":66},{"pitch":71,"velocity":105,"startTime":100.93578900000001,"endTime":101.2215028,"instrument":4,"program":66},{"pitch":67,"velocity":72,"startTime":101.22766042500001,"endTime":101.33849767500001,"instrument":4,"program":66},{"pitch":67,"velocity":86,"startTime":101.520763375,"endTime":102.444407125,"instrument":4,"program":66},{"pitch":71,"velocity":95,"startTime":103.148839425,"endTime":103.43209017500001,"instrument":4,"program":66},{"pitch":71,"velocity":90,"startTime":103.4481,"endTime":103.727656175,"instrument":4,"program":66},{"pitch":69,"velocity":92,"startTime":103.74612905,"endTime":103.95302525,"instrument":4,"program":66},{"pitch":67,"velocity":86,"startTime":104.03923200000001,"endTime":104.91361475000001,"instrument":4,"program":66},{"pitch":71,"velocity":91,"startTime":105.51706200000001,"endTime":106.0983418,"instrument":4,"program":66},{"pitch":69,"velocity":87,"startTime":106.10449942500001,"endTime":106.3200163,"instrument":4,"program":66},{"pitch":71,"velocity":84,"startTime":106.40376,"endTime":107.274448175,"instrument":4,"program":66},{"pitch":67,"velocity":90,"startTime":107.733807,"endTime":107.79538325,"instrument":4,"program":66},{"pitch":67,"velocity":84,"startTime":107.87789542500002,"endTime":107.937008625,"instrument":4,"program":66},{"pitch":71,"velocity":108,"startTime":108.02937299999999,"endTime":108.31508679999999,"instrument":4,"program":66},{"pitch":72,"velocity":87,"startTime":108.31878137500001,"endTime":108.59587450000002,"instrument":4,"program":66},{"pitch":67,"velocity":99,"startTime":108.61434737500001,"endTime":108.73134225000001,"instrument":4,"program":66},{"pitch":67,"velocity":83,"startTime":108.91237642500002,"endTime":108.99242555000001,"instrument":4,"program":66},{"pitch":67,"velocity":76,"startTime":109.06015942500001,"endTime":109.119272625,"instrument":4,"program":66},{"pitch":72,"velocity":108,"startTime":109.20547937500001,"endTime":109.49735079999999,"instrument":4,"program":66},{"pitch":71,"velocity":89,"startTime":109.501045375,"endTime":109.78429612500001,"instrument":4,"program":66},{"pitch":69,"velocity":83,"startTime":109.799074425,"endTime":109.94685742500002,"instrument":4,"program":66},{"pitch":69,"velocity":86,"startTime":110.10079805000001,"endTime":110.15991125,"instrument":4,"program":66},{"pitch":67,"velocity":81,"startTime":110.24858105000001,"endTime":110.32247255,"instrument":4,"program":66},{"pitch":71,"velocity":105,"startTime":110.39390100000001,"endTime":110.6796148,"instrument":4,"program":66},{"pitch":67,"velocity":72,"startTime":110.685772425,"endTime":110.796609675,"instrument":4,"program":66},{"pitch":67,"velocity":86,"startTime":110.978875375,"endTime":111.90251912500001,"instrument":4,"program":66},{"pitch":71,"velocity":95,"startTime":112.606951425,"endTime":112.89020217500001,"instrument":4,"program":66},{"pitch":71,"velocity":90,"startTime":112.906212,"endTime":113.185768175,"instrument":4,"program":66},{"pitch":69,"velocity":92,"startTime":113.20424105000001,"endTime":113.41113725,"instrument":4,"program":66},{"pitch":67,"velocity":86,"startTime":113.49734400000001,"endTime":114.37172675000001,"instrument":4,"program":66},{"pitch":71,"velocity":91,"startTime":114.975174,"endTime":115.5564538,"instrument":4,"program":66},{"pitch":69,"velocity":87,"startTime":115.562611425,"endTime":115.7781283,"instrument":4,"program":66},{"pitch":71,"velocity":84,"startTime":115.861872,"endTime":116.732560175,"instrument":4,"program":66},{"pitch":67,"velocity":90,"startTime":117.191919,"endTime":117.25349525,"instrument":4,"program":66},{"pitch":67,"velocity":84,"startTime":117.336007425,"endTime":117.395120625,"instrument":4,"program":66},{"pitch":71,"velocity":108,"startTime":117.487485,"endTime":117.77319879999999,"instrument":4,"program":66},{"pitch":72,"velocity":87,"startTime":117.77689337500001,"endTime":118.05398650000002,"instrument":4,"program":66},{"pitch":67,"velocity":99,"startTime":118.07245937500001,"endTime":118.18945425,"instrument":4,"program":66},{"pitch":67,"velocity":83,"startTime":118.370488425,"endTime":118.45053754999999,"instrument":4,"program":66},{"pitch":67,"velocity":76,"startTime":118.51827142500001,"endTime":118.577384625,"instrument":4,"program":66},{"pitch":72,"velocity":108,"startTime":118.66359137500001,"endTime":118.95546279999999,"instrument":4,"program":66},{"pitch":71,"velocity":89,"startTime":118.959157375,"endTime":119.24240812500001,"instrument":4,"program":66},{"pitch":69,"velocity":83,"startTime":119.25718642500001,"endTime":119.40496942499999,"instrument":4,"program":66},{"pitch":69,"velocity":86,"startTime":119.55891005000001,"endTime":119.61802325,"instrument":4,"program":66},{"pitch":67,"velocity":81,"startTime":119.70669304999998,"endTime":119.78058455000001,"instrument":4,"program":66},{"pitch":71,"velocity":105,"startTime":119.85201299999999,"endTime":120.13772680000001,"instrument":4,"program":66},{"pitch":67,"velocity":72,"startTime":120.143884425,"endTime":120.254721675,"instrument":4,"program":66},{"pitch":67,"velocity":86,"startTime":120.43698737500002,"endTime":121.36063112500001,"instrument":4,"program":66},{"pitch":71,"velocity":95,"startTime":122.06506342500002,"endTime":122.34831417499998,"instrument":4,"program":66},{"pitch":71,"velocity":90,"startTime":122.364324,"endTime":122.64388017500002,"instrument":4,"program":66},{"pitch":69,"velocity":92,"startTime":122.66235305000001,"endTime":122.86924925000001,"instrument":4,"program":66},{"pitch":67,"velocity":86,"startTime":122.955456,"endTime":123.82983874999998,"instrument":4,"program":66},{"pitch":71,"velocity":91,"startTime":124.433286,"endTime":125.01456580000001,"instrument":4,"program":66},{"pitch":69,"velocity":87,"startTime":125.020723425,"endTime":125.23624029999998,"instrument":4,"program":66},{"pitch":71,"velocity":84,"startTime":125.31998400000002,"endTime":126.19067217499999,"instrument":4,"program":66},{"pitch":67,"velocity":90,"startTime":126.65003100000001,"endTime":126.71160725000001,"instrument":4,"program":66},{"pitch":67,"velocity":84,"startTime":126.794119425,"endTime":126.85323262499999,"instrument":4,"program":66},{"pitch":71,"velocity":108,"startTime":126.945597,"endTime":127.23131079999999,"instrument":4,"program":66},{"pitch":72,"velocity":87,"startTime":127.23500537500001,"endTime":127.51209850000001,"instrument":4,"program":66},{"pitch":67,"velocity":99,"startTime":127.53057137500001,"endTime":127.64756625,"instrument":4,"program":66},{"pitch":67,"velocity":83,"startTime":127.828600425,"endTime":127.90864954999999,"instrument":4,"program":66},{"pitch":67,"velocity":76,"startTime":127.97638342500002,"endTime":128.035496625,"instrument":4,"program":66},{"pitch":72,"velocity":108,"startTime":128.12170337500004,"endTime":128.4135748,"instrument":4,"program":66},{"pitch":71,"velocity":89,"startTime":128.41726937500002,"endTime":128.700520125,"instrument":4,"program":66},{"pitch":69,"velocity":83,"startTime":128.715298425,"endTime":128.86308142500002,"instrument":4,"program":66},{"pitch":69,"velocity":86,"startTime":129.01702204999998,"endTime":129.07613525,"instrument":4,"program":66},{"pitch":67,"velocity":81,"startTime":129.16480505,"endTime":129.23869655,"instrument":4,"program":66},{"pitch":71,"velocity":105,"startTime":129.310125,"endTime":129.5958388,"instrument":4,"program":66},{"pitch":67,"velocity":72,"startTime":129.601996425,"endTime":129.712833675,"instrument":4,"program":66},{"pitch":67,"velocity":86,"startTime":129.895099375,"endTime":130.818743125,"instrument":4,"program":66},{"pitch":71,"velocity":95,"startTime":131.523175425,"endTime":131.806426175,"instrument":4,"program":66},{"pitch":71,"velocity":90,"startTime":131.822436,"endTime":132.101992175,"instrument":4,"program":66},{"pitch":69,"velocity":92,"startTime":132.12046504999998,"endTime":132.32736125,"instrument":4,"program":66},{"pitch":67,"velocity":86,"startTime":132.413568,"endTime":133.28795075000002,"instrument":4,"program":66},{"pitch":71,"velocity":91,"startTime":133.891398,"endTime":134.4726778,"instrument":4,"program":66},{"pitch":69,"velocity":87,"startTime":134.478835425,"endTime":134.69435230000002,"instrument":4,"program":66},{"pitch":71,"velocity":84,"startTime":134.778096,"endTime":135.648784175,"instrument":4,"program":66},{"pitch":67,"velocity":90,"startTime":136.10814299999998,"endTime":136.16971925,"instrument":4,"program":66},{"pitch":67,"velocity":84,"startTime":136.252231425,"endTime":136.311344625,"instrument":4,"program":66},{"pitch":71,"velocity":108,"startTime":136.403709,"endTime":136.68942280000002,"instrument":4,"program":66},{"pitch":72,"velocity":87,"startTime":136.69311737499999,"endTime":136.9702105,"instrument":4,"program":66},{"pitch":67,"velocity":99,"startTime":136.988683375,"endTime":137.10567825,"instrument":4,"program":66},{"pitch":67,"velocity":83,"startTime":137.286712425,"endTime":137.36676155,"instrument":4,"program":66},{"pitch":67,"velocity":76,"startTime":137.434495425,"endTime":137.49360862499998,"instrument":4,"program":66},{"pitch":72,"velocity":108,"startTime":137.579815375,"endTime":137.87168680000002,"instrument":4,"program":66},{"pitch":71,"velocity":89,"startTime":137.87538137500002,"endTime":138.158632125,"instrument":4,"program":66},{"pitch":69,"velocity":83,"startTime":138.173410425,"endTime":138.321193425,"instrument":4,"program":66},{"pitch":69,"velocity":86,"startTime":138.47513405,"endTime":138.53424725000002,"instrument":4,"program":66},{"pitch":67,"velocity":81,"startTime":138.62291705,"endTime":138.69680855000001,"instrument":4,"program":66},{"pitch":71,"velocity":105,"startTime":138.76823700000003,"endTime":139.0539508,"instrument":4,"program":66},{"pitch":67,"velocity":72,"startTime":139.060108425,"endTime":139.170945675,"instrument":4,"program":66},{"pitch":67,"velocity":86,"startTime":139.35321137499997,"endTime":140.27685512499997,"instrument":4,"program":66},{"pitch":71,"velocity":76,"startTime":140.98128742499998,"endTime":141.264538175,"instrument":4,"program":66},{"pitch":71,"velocity":72,"startTime":141.28054799999998,"endTime":141.56010417500002,"instrument":4,"program":66},{"pitch":69,"velocity":74,"startTime":141.57857705,"endTime":141.78547325,"instrument":4,"program":66},{"pitch":67,"velocity":56,"startTime":141.87168000000003,"endTime":142.74606275000002,"instrument":4,"program":66},{"pitch":71,"velocity":41,"startTime":143.34951,"endTime":143.9307898,"instrument":4,"program":66},{"pitch":69,"velocity":39,"startTime":143.936947425,"endTime":144.15246430000002,"instrument":4,"program":66},{"pitch":71,"velocity":17,"startTime":144.236208,"endTime":145.106896175,"instrument":4,"program":66},{"pitch":67,"velocity":9,"startTime":145.566255,"endTime":145.62783125,"instrument":4,"program":66},{"pitch":67,"velocity":8,"startTime":145.71034342500002,"endTime":145.769456625,"instrument":4,"program":66},{"pitch":71,"velocity":11,"startTime":145.861821,"endTime":146.14753480000002,"instrument":4,"program":66},{"pitch":72,"velocity":9,"startTime":146.151229375,"endTime":146.42832249999998,"instrument":4,"program":66},{"pitch":67,"velocity":10,"startTime":146.446795375,"endTime":146.56379025,"instrument":4,"program":66},{"pitch":67,"velocity":1,"startTime":146.74482442500002,"endTime":146.82487355,"instrument":4,"program":66},{"pitch":67,"velocity":1,"startTime":146.892607425,"endTime":146.951720625,"instrument":4,"program":66},{"pitch":72,"velocity":1,"startTime":147.03792737499998,"endTime":147.3297988,"instrument":4,"program":66},{"pitch":71,"velocity":1,"startTime":147.333493375,"endTime":147.61674412500003,"instrument":4,"program":66},{"pitch":69,"velocity":1,"startTime":147.63152242499999,"endTime":147.77930542500002,"instrument":4,"program":66},{"pitch":43,"velocity":103,"startTime":0.0024630500000032704,"endTime":0.29556599999999944,"instrument":5,"program":28},{"pitch":50,"velocity":95,"startTime":0.14778300000000164,"endTime":0.40270867500000057,"instrument":5,"program":28},{"pitch":57,"velocity":108,"startTime":0.29187142499999835,"endTime":0.7019692500000011,"instrument":5,"program":28},{"pitch":43,"velocity":79,"startTime":0.29556599999999944,"endTime":0.5480286250000027,"instrument":5,"program":28},{"pitch":50,"velocity":78,"startTime":0.4433490000000011,"endTime":0.8460576749999978,"instrument":5,"program":28},{"pitch":43,"velocity":79,"startTime":0.5849743750000022,"endTime":1.1662541750000033,"instrument":5,"program":28},{"pitch":59,"velocity":97,"startTime":0.5911319999999989,"endTime":1.2278304250000012,"instrument":5,"program":28},{"pitch":57,"velocity":84,"startTime":0.7352204249999995,"endTime":0.9975352500000005,"instrument":5,"program":28},{"pitch":50,"velocity":76,"startTime":0.8866979999999984,"endTime":1.305416500000001,"instrument":5,"program":28},{"pitch":57,"velocity":72,"startTime":1.030786424999999,"endTime":1.4408842500000016,"instrument":5,"program":28},{"pitch":43,"velocity":75,"startTime":1.1785694250000005,"endTime":1.3263524249999985,"instrument":5,"program":28},{"pitch":50,"velocity":94,"startTime":1.3300469999999995,"endTime":1.5825096250000028,"instrument":5,"program":28},{"pitch":43,"velocity":76,"startTime":1.3325100500000027,"endTime":1.4495049250000016,"instrument":5,"program":28},{"pitch":57,"velocity":93,"startTime":1.474135425,"endTime":1.8780756250000021,"instrument":5,"program":28},{"pitch":43,"velocity":82,"startTime":1.4802930500000007,"endTime":1.7302926250000006,"instrument":5,"program":28},{"pitch":50,"velocity":74,"startTime":1.6280760500000022,"endTime":2.0283216749999995,"instrument":5,"program":28},{"pitch":43,"velocity":79,"startTime":1.7697014249999996,"endTime":2.311572425000002,"instrument":5,"program":28},{"pitch":59,"velocity":84,"startTime":1.7733960000000006,"endTime":2.403936800000002,"instrument":5,"program":28},{"pitch":57,"velocity":72,"startTime":1.9174844249999974,"endTime":2.185956874999999,"instrument":5,"program":28},{"pitch":50,"velocity":83,"startTime":2.068962,"endTime":2.397779174999998,"instrument":5,"program":28},{"pitch":57,"velocity":80,"startTime":2.219208050000001,"endTime":2.453197799999999,"instrument":5,"program":28},{"pitch":40,"velocity":81,"startTime":2.358370375000003,"endTime":2.5147740500000006,"instrument":5,"program":28},{"pitch":47,"velocity":96,"startTime":2.5123110000000013,"endTime":2.767236675,"instrument":5,"program":28},{"pitch":40,"velocity":87,"startTime":2.5147740500000006,"endTime":2.6317689249999994,"instrument":5,"program":28},{"pitch":54,"velocity":92,"startTime":2.656399424999998,"endTime":2.927334924999999,"instrument":5,"program":28},{"pitch":40,"velocity":76,"startTime":2.660093999999999,"endTime":2.8965468000000003,"instrument":5,"program":28},{"pitch":47,"velocity":83,"startTime":2.8017193750000002,"endTime":2.961817624999999,"instrument":5,"program":28},{"pitch":55,"velocity":94,"startTime":2.9556599999999986,"endTime":4.115756549999998,"instrument":5,"program":28},{"pitch":40,"velocity":81,"startTime":2.9556599999999986,"endTime":3.5246245499999986,"instrument":5,"program":28},{"pitch":54,"velocity":84,"startTime":3.103443,"endTime":3.2475314250000005,"instrument":5,"program":28},{"pitch":47,"velocity":84,"startTime":3.2475314250000005,"endTime":3.6699445000000006,"instrument":5,"program":28},{"pitch":54,"velocity":85,"startTime":3.3953144249999987,"endTime":3.629304175,"instrument":5,"program":28},{"pitch":40,"velocity":82,"startTime":3.5467920000000013,"endTime":3.8263481750000023,"instrument":5,"program":28},{"pitch":47,"velocity":93,"startTime":3.6970380500000024,"endTime":3.9655105,"instrument":5,"program":28},{"pitch":54,"velocity":100,"startTime":3.842358000000001,"endTime":4.2573819250000025,"instrument":5,"program":28},{"pitch":40,"velocity":83,"startTime":3.84482105,"endTime":3.9655105,"instrument":5,"program":28},{"pitch":47,"velocity":97,"startTime":3.9901409999999986,"endTime":4.390386625,"instrument":5,"program":28},{"pitch":40,"velocity":81,"startTime":4.137924,"endTime":4.328810374999998,"instrument":5,"program":28},{"pitch":55,"velocity":102,"startTime":4.140387050000004,"endTime":4.8115681750000014,"instrument":5,"program":28},{"pitch":54,"velocity":71,"startTime":4.285707000000002,"endTime":4.507381499999998,"instrument":5,"program":28},{"pitch":47,"velocity":81,"startTime":4.43349,"endTime":4.716740749999998,"instrument":5,"program":28},{"pitch":54,"velocity":82,"startTime":4.581273000000001,"endTime":4.725361424999998,"instrument":5,"program":28},{"pitch":48,"velocity":79,"startTime":4.731519050000002,"endTime":4.830041049999999,"instrument":5,"program":28},{"pitch":55,"velocity":104,"startTime":4.873144425,"endTime":5.1379223000000005,"instrument":5,"program":28},{"pitch":48,"velocity":91,"startTime":4.876839,"endTime":4.9655088,"instrument":5,"program":28},{"pitch":62,"velocity":103,"startTime":5.0184643750000015,"endTime":5.581271300000001,"instrument":5,"program":28},{"pitch":48,"velocity":89,"startTime":5.024621999999998,"endTime":5.279547674999997,"instrument":5,"program":28},{"pitch":55,"velocity":93,"startTime":5.174868050000003,"endTime":5.439645925,"instrument":5,"program":28},{"pitch":48,"velocity":92,"startTime":5.316493425000001,"endTime":5.612059425,"instrument":5,"program":28},{"pitch":60,"velocity":100,"startTime":5.320188000000002,"endTime":5.8374285000000015,"instrument":5,"program":28},{"pitch":55,"velocity":85,"startTime":5.464276424999999,"endTime":5.74136955,"instrument":5,"program":28},{"pitch":48,"velocity":94,"startTime":5.615754000000002,"endTime":5.846049175000002,"instrument":5,"program":28},{"pitch":55,"velocity":72,"startTime":5.759842424999998,"endTime":6.018462674999998,"instrument":5,"program":28},{"pitch":50,"velocity":100,"startTime":5.91378305,"endTime":6.055408424999998,"instrument":5,"program":28},{"pitch":50,"velocity":108,"startTime":6.059102999999999,"endTime":6.1329945000000015,"instrument":5,"program":28},{"pitch":57,"velocity":89,"startTime":6.059102999999999,"endTime":6.231516499999999,"instrument":5,"program":28},{"pitch":64,"velocity":103,"startTime":6.1970338000000025,"endTime":6.745062425000001,"instrument":5,"program":28},{"pitch":50,"velocity":88,"startTime":6.200728375,"endTime":6.305407999999997,"instrument":5,"program":28},{"pitch":57,"velocity":85,"startTime":6.350974425,"endTime":6.631762125,"instrument":5,"program":28},{"pitch":62,"velocity":101,"startTime":6.496294375000003,"endTime":7.038165375000001,"instrument":5,"program":28},{"pitch":50,"velocity":91,"startTime":6.498757424999998,"endTime":6.769692924999999,"instrument":5,"program":28},{"pitch":57,"velocity":100,"startTime":6.644077375000001,"endTime":6.902697625000001,"instrument":5,"program":28},{"pitch":50,"velocity":94,"startTime":6.794323424999998,"endTime":7.0775741750000005,"instrument":5,"program":28},{"pitch":57,"velocity":81,"startTime":6.939643375,"endTime":7.099741624999999,"instrument":5,"program":28},{"pitch":50,"velocity":72,"startTime":7.083731800000001,"endTime":7.210578874999998,"instrument":5,"program":28},{"pitch":43,"velocity":72,"startTime":7.093583999999999,"endTime":7.200726674999999,"instrument":5,"program":28},{"pitch":50,"velocity":101,"startTime":7.2376724249999995,"endTime":7.496292674999999,"instrument":5,"program":28},{"pitch":43,"velocity":86,"startTime":7.243830050000003,"endTime":7.358361874999999,"instrument":5,"program":28},{"pitch":57,"velocity":100,"startTime":7.385455425000001,"endTime":7.7918586749999985,"instrument":5,"program":28},{"pitch":43,"velocity":86,"startTime":7.391613050000001,"endTime":7.629297375,"instrument":5,"program":28},{"pitch":50,"velocity":88,"startTime":7.533238424999999,"endTime":7.9211687999999985,"instrument":5,"program":28},{"pitch":43,"velocity":82,"startTime":7.678558375000001,"endTime":8.259838175000002,"instrument":5,"program":28},{"pitch":59,"velocity":103,"startTime":7.681021425,"endTime":8.302941550000002,"instrument":5,"program":28},{"pitch":57,"velocity":89,"startTime":7.822646800000001,"endTime":8.078803999999998,"instrument":5,"program":28},{"pitch":50,"velocity":99,"startTime":7.980282000000001,"endTime":8.382990674999997,"instrument":5,"program":28},{"pitch":57,"velocity":72,"startTime":8.124370424999997,"endTime":8.540625874999996,"instrument":5,"program":28},{"pitch":43,"velocity":83,"startTime":8.272153424999999,"endTime":8.355897125,"instrument":5,"program":28},{"pitch":43,"velocity":90,"startTime":8.419936425000001,"endTime":8.506143175,"instrument":5,"program":28},{"pitch":50,"velocity":97,"startTime":8.423631000000002,"endTime":8.641610924999998,"instrument":5,"program":28},{"pitch":57,"velocity":103,"startTime":8.567719424999998,"endTime":8.96796505,"instrument":5,"program":28},{"pitch":43,"velocity":86,"startTime":8.573877050000004,"endTime":8.817718999999999,"instrument":5,"program":28},{"pitch":50,"velocity":89,"startTime":8.719197000000001,"endTime":9.121905674999999,"instrument":5,"program":28},{"pitch":59,"velocity":103,"startTime":8.860822375000003,"endTime":9.4728903,"instrument":5,"program":28},{"pitch":43,"velocity":75,"startTime":8.86698,"endTime":9.374368300000002,"instrument":5,"program":28},{"pitch":57,"velocity":89,"startTime":9.011068425,"endTime":9.269688675,"instrument":5,"program":28},{"pitch":50,"velocity":100,"startTime":9.165009050000002,"endTime":9.544318750000002,"instrument":5,"program":28},{"pitch":57,"velocity":72,"startTime":9.312792050000004,"endTime":9.729047500000004,"instrument":5,"program":28},{"pitch":43,"velocity":103,"startTime":9.460575050000001,"endTime":9.753678,"instrument":5,"program":28},{"pitch":50,"velocity":95,"startTime":9.605895,"endTime":9.860820675,"instrument":5,"program":28},{"pitch":57,"velocity":108,"startTime":9.749983425,"endTime":10.16008125,"instrument":5,"program":28},{"pitch":43,"velocity":79,"startTime":9.753678,"endTime":10.006140625,"instrument":5,"program":28},{"pitch":50,"velocity":78,"startTime":9.901461,"endTime":10.304169674999999,"instrument":5,"program":28},{"pitch":43,"velocity":79,"startTime":10.043086375,"endTime":10.624366175000002,"instrument":5,"program":28},{"pitch":59,"velocity":97,"startTime":10.049244000000002,"endTime":10.685942424999999,"instrument":5,"program":28},{"pitch":57,"velocity":84,"startTime":10.193332424999998,"endTime":10.455647249999998,"instrument":5,"program":28},{"pitch":50,"velocity":76,"startTime":10.34481,"endTime":10.763528500000003,"instrument":5,"program":28},{"pitch":57,"velocity":72,"startTime":10.488898425,"endTime":10.89899625,"instrument":5,"program":28},{"pitch":43,"velocity":75,"startTime":10.636681424999999,"endTime":10.784464425000001,"instrument":5,"program":28},{"pitch":50,"velocity":94,"startTime":10.788159000000002,"endTime":11.040621625000002,"instrument":5,"program":28},{"pitch":43,"velocity":76,"startTime":10.790622050000001,"endTime":10.907616925,"instrument":5,"program":28},{"pitch":57,"velocity":93,"startTime":10.932247424999998,"endTime":11.336187625,"instrument":5,"program":28},{"pitch":43,"velocity":82,"startTime":10.938405050000002,"endTime":11.188404625000002,"instrument":5,"program":28},{"pitch":50,"velocity":74,"startTime":11.08618805,"endTime":11.486433674999997,"instrument":5,"program":28},{"pitch":43,"velocity":79,"startTime":11.227813424999997,"endTime":11.769684425000003,"instrument":5,"program":28},{"pitch":59,"velocity":84,"startTime":11.231507999999998,"endTime":11.8620488,"instrument":5,"program":28},{"pitch":57,"velocity":72,"startTime":11.375596425,"endTime":11.644068874999997,"instrument":5,"program":28},{"pitch":50,"velocity":83,"startTime":11.527073999999999,"endTime":11.855891175,"instrument":5,"program":28},{"pitch":57,"velocity":80,"startTime":11.677320050000002,"endTime":11.911309800000002,"instrument":5,"program":28},{"pitch":40,"velocity":81,"startTime":11.816482375000001,"endTime":11.972886050000003,"instrument":5,"program":28},{"pitch":47,"velocity":96,"startTime":11.970422999999998,"endTime":12.225348674999998,"instrument":5,"program":28},{"pitch":40,"velocity":87,"startTime":11.972886050000003,"endTime":12.089880925000001,"instrument":5,"program":28},{"pitch":54,"velocity":92,"startTime":12.114511425,"endTime":12.385446925,"instrument":5,"program":28},{"pitch":40,"velocity":76,"startTime":12.118206,"endTime":12.354658799999997,"instrument":5,"program":28},{"pitch":47,"velocity":83,"startTime":12.259831375000003,"endTime":12.419929624999996,"instrument":5,"program":28},{"pitch":55,"velocity":94,"startTime":12.413772,"endTime":13.573868549999998,"instrument":5,"program":28},{"pitch":40,"velocity":81,"startTime":12.413772,"endTime":12.98273655,"instrument":5,"program":28},{"pitch":54,"velocity":84,"startTime":12.561554999999998,"endTime":12.705643424999998,"instrument":5,"program":28},{"pitch":47,"velocity":84,"startTime":12.705643424999998,"endTime":13.128056500000003,"instrument":5,"program":28},{"pitch":54,"velocity":85,"startTime":12.853426425,"endTime":13.087416175000001,"instrument":5,"program":28},{"pitch":40,"velocity":82,"startTime":13.004904,"endTime":13.284460175000001,"instrument":5,"program":28},{"pitch":47,"velocity":93,"startTime":13.15515005,"endTime":13.423622500000002,"instrument":5,"program":28},{"pitch":54,"velocity":100,"startTime":13.300469999999999,"endTime":13.715493925,"instrument":5,"program":28},{"pitch":40,"velocity":83,"startTime":13.302933050000002,"endTime":13.423622500000002,"instrument":5,"program":28},{"pitch":47,"velocity":97,"startTime":13.448253000000001,"endTime":13.848498625000001,"instrument":5,"program":28},{"pitch":40,"velocity":81,"startTime":13.596035999999998,"endTime":13.786922375,"instrument":5,"program":28},{"pitch":55,"velocity":102,"startTime":13.598499050000001,"endTime":14.269680175,"instrument":5,"program":28},{"pitch":54,"velocity":71,"startTime":13.743819,"endTime":13.965493500000001,"instrument":5,"program":28},{"pitch":47,"velocity":81,"startTime":13.891602,"endTime":14.17485275,"instrument":5,"program":28},{"pitch":54,"velocity":82,"startTime":14.039385,"endTime":14.183473425,"instrument":5,"program":28},{"pitch":48,"velocity":79,"startTime":14.189631050000001,"endTime":14.288153050000002,"instrument":5,"program":28},{"pitch":55,"velocity":104,"startTime":14.331256424999998,"endTime":14.596034300000001,"instrument":5,"program":28},{"pitch":48,"velocity":91,"startTime":14.334950999999998,"endTime":14.423620799999998,"instrument":5,"program":28},{"pitch":62,"velocity":103,"startTime":14.476576375,"endTime":15.039383300000003,"instrument":5,"program":28},{"pitch":48,"velocity":89,"startTime":14.482734,"endTime":14.737659675,"instrument":5,"program":28},{"pitch":55,"velocity":93,"startTime":14.632980050000002,"endTime":14.897757925000002,"instrument":5,"program":28},{"pitch":48,"velocity":92,"startTime":14.774605424999999,"endTime":15.070171424999998,"instrument":5,"program":28},{"pitch":60,"velocity":100,"startTime":14.7783,"endTime":15.2955405,"instrument":5,"program":28},{"pitch":55,"velocity":85,"startTime":14.922388425000001,"endTime":15.199481549999998,"instrument":5,"program":28},{"pitch":48,"velocity":94,"startTime":15.073865999999999,"endTime":15.304161175,"instrument":5,"program":28},{"pitch":55,"velocity":72,"startTime":15.217954425,"endTime":15.476574675,"instrument":5,"program":28},{"pitch":50,"velocity":100,"startTime":15.371895050000003,"endTime":15.513520424999996,"instrument":5,"program":28},{"pitch":50,"velocity":108,"startTime":15.517214999999997,"endTime":15.591106500000004,"instrument":5,"program":28},{"pitch":57,"velocity":89,"startTime":15.517214999999997,"endTime":15.689628499999996,"instrument":5,"program":28},{"pitch":64,"velocity":103,"startTime":15.655145800000005,"endTime":16.203174425000004,"instrument":5,"program":28},{"pitch":50,"velocity":88,"startTime":15.658840374999997,"endTime":15.763519999999996,"instrument":5,"program":28},{"pitch":57,"velocity":85,"startTime":15.809086424999998,"endTime":16.089874124999998,"instrument":5,"program":28},{"pitch":62,"velocity":101,"startTime":15.954406375000001,"endTime":16.496277375000002,"instrument":5,"program":28},{"pitch":50,"velocity":91,"startTime":15.956869424999997,"endTime":16.227804924999997,"instrument":5,"program":28},{"pitch":57,"velocity":100,"startTime":16.102189375,"endTime":16.360809624999998,"instrument":5,"program":28},{"pitch":50,"velocity":94,"startTime":16.252435425,"endTime":16.535686175000002,"instrument":5,"program":28},{"pitch":57,"velocity":81,"startTime":16.397755375000003,"endTime":16.557853625,"instrument":5,"program":28},{"pitch":50,"velocity":72,"startTime":16.5418438,"endTime":16.668690874999996,"instrument":5,"program":28},{"pitch":43,"velocity":72,"startTime":16.551695999999996,"endTime":16.658838675,"instrument":5,"program":28},{"pitch":50,"velocity":101,"startTime":16.695784425,"endTime":16.954404675000003,"instrument":5,"program":28},{"pitch":43,"velocity":86,"startTime":16.701942050000007,"endTime":16.816473875,"instrument":5,"program":28},{"pitch":57,"velocity":100,"startTime":16.843567425,"endTime":17.249970674999997,"instrument":5,"program":28},{"pitch":43,"velocity":86,"startTime":16.849725050000004,"endTime":17.087409375000004,"instrument":5,"program":28},{"pitch":50,"velocity":88,"startTime":16.991350424999997,"endTime":17.379280799999997,"instrument":5,"program":28},{"pitch":43,"velocity":82,"startTime":17.136670374999998,"endTime":17.717950175,"instrument":5,"program":28},{"pitch":59,"velocity":103,"startTime":17.139133425,"endTime":17.76105355,"instrument":5,"program":28},{"pitch":57,"velocity":89,"startTime":17.280758800000005,"endTime":17.536916,"instrument":5,"program":28},{"pitch":50,"velocity":99,"startTime":17.438394,"endTime":17.841102674999995,"instrument":5,"program":28},{"pitch":57,"velocity":72,"startTime":17.582482424999995,"endTime":17.998737875,"instrument":5,"program":28},{"pitch":43,"velocity":83,"startTime":17.730265425000002,"endTime":17.814009125,"instrument":5,"program":28},{"pitch":43,"velocity":90,"startTime":17.878048425,"endTime":17.964255174999998,"instrument":5,"program":28},{"pitch":50,"velocity":97,"startTime":17.881743,"endTime":18.099722924999995,"instrument":5,"program":28},{"pitch":57,"velocity":103,"startTime":18.025831424999996,"endTime":18.426077049999996,"instrument":5,"program":28},{"pitch":43,"velocity":86,"startTime":18.03198905,"endTime":18.275830999999997,"instrument":5,"program":28},{"pitch":50,"velocity":89,"startTime":18.177309000000005,"endTime":18.580017675,"instrument":5,"program":28},{"pitch":59,"velocity":103,"startTime":18.318934375000005,"endTime":18.931002300000003,"instrument":5,"program":28},{"pitch":43,"velocity":75,"startTime":18.325092,"endTime":18.832480300000004,"instrument":5,"program":28},{"pitch":57,"velocity":89,"startTime":18.469180424999998,"endTime":18.727800674999997,"instrument":5,"program":28},{"pitch":50,"velocity":100,"startTime":18.62312105,"endTime":19.00243075,"instrument":5,"program":28},{"pitch":57,"velocity":72,"startTime":18.770904050000006,"endTime":19.187159499999993,"instrument":5,"program":28},{"pitch":43,"velocity":81,"startTime":18.918687049999996,"endTime":18.934696874999997,"instrument":5,"program":28},{"pitch":50,"velocity":96,"startTime":19.064006999999997,"endTime":19.325090300000003,"instrument":5,"program":28},{"pitch":43,"velocity":80,"startTime":19.064006999999997,"endTime":19.156371375000003,"instrument":5,"program":28},{"pitch":57,"velocity":92,"startTime":19.211790000000004,"endTime":19.612035624999997,"instrument":5,"program":28},{"pitch":43,"velocity":82,"startTime":19.21425305,"endTime":19.451937374999996,"instrument":5,"program":28},{"pitch":50,"velocity":77,"startTime":19.362036049999997,"endTime":19.741345749999997,"instrument":5,"program":28},{"pitch":59,"velocity":99,"startTime":19.507355999999998,"endTime":20.051690049999998,"instrument":5,"program":28},{"pitch":43,"velocity":76,"startTime":19.509819049999994,"endTime":20.073857499999995,"instrument":5,"program":28},{"pitch":57,"velocity":86,"startTime":19.651444425000005,"endTime":19.895286374999998,"instrument":5,"program":28},{"pitch":50,"velocity":91,"startTime":19.802922000000002,"endTime":20.205630675000005,"instrument":5,"program":28},{"pitch":57,"velocity":86,"startTime":19.953168049999995,"endTime":20.359571300000002,"instrument":5,"program":28},{"pitch":43,"velocity":88,"startTime":20.094793425000006,"endTime":20.1871578,"instrument":5,"program":28},{"pitch":50,"velocity":98,"startTime":20.246271000000004,"endTime":20.5073543,"instrument":5,"program":28},{"pitch":43,"velocity":89,"startTime":20.24873405,"endTime":20.371886550000003,"instrument":5,"program":28},{"pitch":57,"velocity":105,"startTime":20.394054,"endTime":20.796762675000007,"instrument":5,"program":28},{"pitch":43,"velocity":79,"startTime":20.394054,"endTime":20.630506800000003,"instrument":5,"program":28},{"pitch":50,"velocity":94,"startTime":20.541836999999997,"endTime":20.932230424999993,"instrument":5,"program":28},{"pitch":43,"velocity":78,"startTime":20.69208305,"endTime":21.289372675000003,"instrument":5,"program":28},{"pitch":59,"velocity":79,"startTime":20.69208305,"endTime":21.200702875,"instrument":5,"program":28},{"pitch":57,"velocity":88,"startTime":20.833708425,"endTime":21.086171049999997,"instrument":5,"program":28},{"pitch":50,"velocity":105,"startTime":20.985186,"endTime":21.336170624999998,"instrument":5,"program":28},{"pitch":57,"velocity":92,"startTime":21.132969,"endTime":21.379274000000006,"instrument":5,"program":28},{"pitch":40,"velocity":96,"startTime":21.277057425000002,"endTime":21.387894675000005,"instrument":5,"program":28},{"pitch":40,"velocity":93,"startTime":21.422377374999996,"endTime":21.545529875,"instrument":5,"program":28},{"pitch":47,"velocity":77,"startTime":21.428535,"endTime":21.680997624999996,"instrument":5,"program":28},{"pitch":54,"velocity":104,"startTime":21.572623425000007,"endTime":21.982721249999997,"instrument":5,"program":28},{"pitch":40,"velocity":83,"startTime":21.572623425000007,"endTime":21.843558925,"instrument":5,"program":28},{"pitch":47,"velocity":91,"startTime":21.717943375,"endTime":22.120652049999997,"instrument":5,"program":28},{"pitch":55,"velocity":105,"startTime":21.871884,"endTime":22.422375675000005,"instrument":5,"program":28},{"pitch":40,"velocity":84,"startTime":21.871884,"endTime":22.453163800000002,"instrument":5,"program":28},{"pitch":54,"velocity":88,"startTime":22.019667000000002,"endTime":22.27828725,"instrument":5,"program":28},{"pitch":47,"velocity":94,"startTime":22.16991305,"endTime":22.551685800000005,"instrument":5,"program":28},{"pitch":54,"velocity":82,"startTime":22.311538425000002,"endTime":22.715478624999996,"instrument":5,"program":28},{"pitch":40,"velocity":86,"startTime":22.465479049999995,"endTime":22.561538000000002,"instrument":5,"program":28},{"pitch":40,"velocity":88,"startTime":22.607104425000006,"endTime":22.727793875000007,"instrument":5,"program":28},{"pitch":47,"velocity":96,"startTime":22.607104425000006,"endTime":22.853409424999995,"instrument":5,"program":28},{"pitch":54,"velocity":101,"startTime":22.746266750000004,"endTime":23.155133049999996,"instrument":5,"program":28},{"pitch":40,"velocity":84,"startTime":22.754887425000003,"endTime":23.017202249999997,"instrument":5,"program":28},{"pitch":47,"velocity":98,"startTime":22.906365,"endTime":23.302916050000004,"instrument":5,"program":28},{"pitch":55,"velocity":106,"startTime":23.054148,"endTime":23.73148675,"instrument":5,"program":28},{"pitch":40,"velocity":80,"startTime":23.054148,"endTime":23.580009175,"instrument":5,"program":28},{"pitch":54,"velocity":101,"startTime":23.198236425000005,"endTime":23.435920749999998,"instrument":5,"program":28},{"pitch":47,"velocity":96,"startTime":23.343556375,"endTime":23.577546125000005,"instrument":5,"program":28},{"pitch":54,"velocity":90,"startTime":23.493802425000002,"endTime":23.629270175,"instrument":5,"program":28},{"pitch":48,"velocity":105,"startTime":23.641585425000006,"endTime":23.7339498,"instrument":5,"program":28},{"pitch":48,"velocity":84,"startTime":23.789368425000003,"endTime":23.900205675000006,"instrument":5,"program":28},{"pitch":55,"velocity":104,"startTime":23.793062999999997,"endTime":24.045525625,"instrument":5,"program":28},{"pitch":48,"velocity":96,"startTime":23.930993799999996,"endTime":24.180993374999996,"instrument":5,"program":28},{"pitch":62,"velocity":104,"startTime":23.937151425,"endTime":24.245032674999997,"instrument":5,"program":28},{"pitch":55,"velocity":90,"startTime":24.084934425000007,"endTime":24.380500425,"instrument":5,"program":28},{"pitch":60,"velocity":102,"startTime":24.2265598,"endTime":24.765967749999998,"instrument":5,"program":28},{"pitch":48,"velocity":86,"startTime":24.232717425000004,"endTime":24.528283425,"instrument":5,"program":28},{"pitch":55,"velocity":100,"startTime":24.384195000000002,"endTime":24.50981055,"instrument":5,"program":28},{"pitch":48,"velocity":84,"startTime":24.531978000000002,"endTime":24.784440625,"instrument":5,"program":28},{"pitch":55,"velocity":92,"startTime":24.673603374999995,"endTime":24.919908375000002,"instrument":5,"program":28},{"pitch":50,"velocity":108,"startTime":24.823849425000002,"endTime":24.922371424999998,"instrument":5,"program":28},{"pitch":50,"velocity":96,"startTime":24.975327000000004,"endTime":25.402666175,"instrument":5,"program":28},{"pitch":57,"velocity":89,"startTime":24.975327000000004,"endTime":25.215474374999996,"instrument":5,"program":28},{"pitch":64,"velocity":106,"startTime":25.119415425000007,"endTime":25.821384675,"instrument":5,"program":28},{"pitch":57,"velocity":88,"startTime":25.267198425000004,"endTime":25.562764425,"instrument":5,"program":28},{"pitch":62,"velocity":104,"startTime":25.42113905,"endTime":25.695769125,"instrument":5,"program":28},{"pitch":50,"velocity":86,"startTime":25.424833625,"endTime":25.710547425000005,"instrument":5,"program":28},{"pitch":57,"velocity":88,"startTime":25.568922049999998,"endTime":25.833699925,"instrument":5,"program":28},{"pitch":50,"velocity":100,"startTime":25.714242,"endTime":25.966704624999995,"instrument":5,"program":28},{"pitch":57,"velocity":81,"startTime":25.864488050000002,"endTime":26.040596124999993,"instrument":5,"program":28},{"pitch":43,"velocity":87,"startTime":26.006113425000002,"endTime":26.114487625,"instrument":5,"program":28},{"pitch":50,"velocity":99,"startTime":26.157591,"endTime":26.412516675000006,"instrument":5,"program":28},{"pitch":43,"velocity":86,"startTime":26.160054049999996,"endTime":26.277048925000003,"instrument":5,"program":28},{"pitch":57,"velocity":104,"startTime":26.301679425000003,"endTime":26.7142403,"instrument":5,"program":28},{"pitch":43,"velocity":83,"startTime":26.305373999999997,"endTime":26.5763095,"instrument":5,"program":28},{"pitch":50,"velocity":109,"startTime":26.449462425000004,"endTime":26.853402624999998,"instrument":5,"program":28},{"pitch":59,"velocity":104,"startTime":26.597245425,"endTime":27.151431675000005,"instrument":5,"program":28},{"pitch":43,"velocity":68,"startTime":26.60094,"endTime":27.17975675,"instrument":5,"program":28},{"pitch":57,"velocity":91,"startTime":26.748723,"endTime":27.001185624999994,"instrument":5,"program":28},{"pitch":50,"velocity":108,"startTime":26.892811425000005,"endTime":27.302909250000003,"instrument":5,"program":28},{"pitch":57,"velocity":84,"startTime":27.044289000000003,"endTime":27.204387249999993,"instrument":5,"program":28},{"pitch":43,"velocity":78,"startTime":27.194535049999995,"endTime":27.3053723,"instrument":5,"program":28},{"pitch":50,"velocity":107,"startTime":27.339854999999996,"endTime":27.592317624999993,"instrument":5,"program":28},{"pitch":43,"velocity":90,"startTime":27.339854999999996,"endTime":27.45069225,"instrument":5,"program":28},{"pitch":57,"velocity":92,"startTime":27.483943425000003,"endTime":27.890346675,"instrument":5,"program":28},{"pitch":43,"velocity":84,"startTime":27.487638000000004,"endTime":27.754878925000003,"instrument":5,"program":28},{"pitch":50,"velocity":103,"startTime":27.635421,"endTime":28.038129675000008,"instrument":5,"program":28},{"pitch":43,"velocity":84,"startTime":27.783203999999998,"endTime":28.315222800000004,"instrument":5,"program":28},{"pitch":59,"velocity":108,"startTime":27.783203999999998,"endTime":27.927292425000005,"instrument":5,"program":28},{"pitch":57,"velocity":101,"startTime":27.930987,"endTime":28.2167008,"instrument":5,"program":28},{"pitch":50,"velocity":94,"startTime":28.078770000000002,"endTime":28.349705499999995,"instrument":5,"program":28},{"pitch":57,"velocity":85,"startTime":28.222858425000005,"endTime":28.370641425000006,"instrument":5,"program":28},{"pitch":43,"velocity":103,"startTime":28.376799050000002,"endTime":28.669902,"instrument":5,"program":28},{"pitch":50,"velocity":95,"startTime":28.522119000000004,"endTime":28.777044675000003,"instrument":5,"program":28},{"pitch":57,"velocity":108,"startTime":28.666207425,"endTime":29.07630525,"instrument":5,"program":28},{"pitch":43,"velocity":79,"startTime":28.669902,"endTime":28.922364624999997,"instrument":5,"program":28},{"pitch":50,"velocity":78,"startTime":28.817685,"endTime":29.220393675000004,"instrument":5,"program":28},{"pitch":43,"velocity":79,"startTime":28.959310375,"endTime":29.540590175000002,"instrument":5,"program":28},{"pitch":59,"velocity":97,"startTime":28.965467999999998,"endTime":29.602166425,"instrument":5,"program":28},{"pitch":57,"velocity":84,"startTime":29.109556425,"endTime":29.37187125,"instrument":5,"program":28},{"pitch":50,"velocity":76,"startTime":29.261034000000002,"endTime":29.6797525,"instrument":5,"program":28},{"pitch":57,"velocity":72,"startTime":29.405122425000005,"endTime":29.815220250000003,"instrument":5,"program":28},{"pitch":43,"velocity":75,"startTime":29.552905425000002,"endTime":29.700688425,"instrument":5,"program":28},{"pitch":50,"velocity":94,"startTime":29.704383,"endTime":29.956845624999996,"instrument":5,"program":28},{"pitch":43,"velocity":76,"startTime":29.706846049999996,"endTime":29.823840925000002,"instrument":5,"program":28},{"pitch":57,"velocity":93,"startTime":29.848471425000007,"endTime":30.252411625,"instrument":5,"program":28},{"pitch":43,"velocity":82,"startTime":29.854629049999996,"endTime":30.104628624999997,"instrument":5,"program":28},{"pitch":50,"velocity":74,"startTime":30.00241205,"endTime":30.402657675,"instrument":5,"program":28},{"pitch":43,"velocity":79,"startTime":30.144037425,"endTime":30.685908424999997,"instrument":5,"program":28},{"pitch":59,"velocity":84,"startTime":30.147732,"endTime":30.7782728,"instrument":5,"program":28},{"pitch":57,"velocity":72,"startTime":30.291820425000008,"endTime":30.560292875000005,"instrument":5,"program":28},{"pitch":50,"velocity":83,"startTime":30.443298,"endTime":30.772115175000003,"instrument":5,"program":28},{"pitch":57,"velocity":80,"startTime":30.59354405,"endTime":30.827533800000005,"instrument":5,"program":28},{"pitch":40,"velocity":81,"startTime":30.732706374999996,"endTime":30.889110049999996,"instrument":5,"program":28},{"pitch":47,"velocity":96,"startTime":30.886647,"endTime":31.141572675000006,"instrument":5,"program":28},{"pitch":40,"velocity":87,"startTime":30.889110049999996,"endTime":31.006104925000002,"instrument":5,"program":28},{"pitch":54,"velocity":92,"startTime":31.030735425000003,"endTime":31.301670924999996,"instrument":5,"program":28},{"pitch":40,"velocity":76,"startTime":31.034429999999997,"endTime":31.270882800000006,"instrument":5,"program":28},{"pitch":47,"velocity":83,"startTime":31.176055374999997,"endTime":31.336153625000005,"instrument":5,"program":28},{"pitch":55,"velocity":94,"startTime":31.329996,"endTime":32.49009255000001,"instrument":5,"program":28},{"pitch":40,"velocity":81,"startTime":31.329996,"endTime":31.89896055,"instrument":5,"program":28},{"pitch":54,"velocity":84,"startTime":31.477778999999998,"endTime":31.621867425,"instrument":5,"program":28},{"pitch":47,"velocity":84,"startTime":31.621867425,"endTime":32.04428049999999,"instrument":5,"program":28},{"pitch":54,"velocity":85,"startTime":31.769650425000002,"endTime":32.003640175,"instrument":5,"program":28},{"pitch":40,"velocity":82,"startTime":31.921128,"endTime":32.200684175,"instrument":5,"program":28},{"pitch":47,"velocity":93,"startTime":32.07137405,"endTime":32.3398465,"instrument":5,"program":28},{"pitch":54,"velocity":100,"startTime":32.216694000000004,"endTime":32.631717925000004,"instrument":5,"program":28},{"pitch":40,"velocity":83,"startTime":32.21915705,"endTime":32.3398465,"instrument":5,"program":28},{"pitch":47,"velocity":97,"startTime":32.364477,"endTime":32.764722625,"instrument":5,"program":28},{"pitch":40,"velocity":81,"startTime":32.51226,"endTime":32.703146375,"instrument":5,"program":28},{"pitch":55,"velocity":102,"startTime":32.51472305,"endTime":33.185904175000005,"instrument":5,"program":28},{"pitch":54,"velocity":71,"startTime":32.660043,"endTime":32.8817175,"instrument":5,"program":28},{"pitch":47,"velocity":81,"startTime":32.807826,"endTime":33.091076750000006,"instrument":5,"program":28},{"pitch":54,"velocity":82,"startTime":32.955609,"endTime":33.099697425,"instrument":5,"program":28},{"pitch":48,"velocity":79,"startTime":33.10585505,"endTime":33.204377050000005,"instrument":5,"program":28},{"pitch":55,"velocity":104,"startTime":33.247480425,"endTime":33.5122583,"instrument":5,"program":28},{"pitch":48,"velocity":91,"startTime":33.251175,"endTime":33.33984480000001,"instrument":5,"program":28},{"pitch":62,"velocity":103,"startTime":33.39280037499999,"endTime":33.9556073,"instrument":5,"program":28},{"pitch":48,"velocity":89,"startTime":33.398958,"endTime":33.65388367500001,"instrument":5,"program":28},{"pitch":55,"velocity":93,"startTime":33.54920405,"endTime":33.813981925,"instrument":5,"program":28},{"pitch":48,"velocity":92,"startTime":33.690829425000004,"endTime":33.986395425000005,"instrument":5,"program":28},{"pitch":60,"velocity":100,"startTime":33.694524,"endTime":34.2117645,"instrument":5,"program":28},{"pitch":55,"velocity":85,"startTime":33.838612425,"endTime":34.11570555000001,"instrument":5,"program":28},{"pitch":48,"velocity":94,"startTime":33.99009,"endTime":34.220385175000004,"instrument":5,"program":28},{"pitch":55,"velocity":72,"startTime":34.134178425,"endTime":34.392798675,"instrument":5,"program":28},{"pitch":50,"velocity":100,"startTime":34.28811905,"endTime":34.42974442500001,"instrument":5,"program":28},{"pitch":50,"velocity":108,"startTime":34.433439,"endTime":34.5073305,"instrument":5,"program":28},{"pitch":57,"velocity":89,"startTime":34.433439,"endTime":34.6058525,"instrument":5,"program":28},{"pitch":64,"velocity":103,"startTime":34.5713698,"endTime":35.11939842499999,"instrument":5,"program":28},{"pitch":50,"velocity":88,"startTime":34.575064375,"endTime":34.67974400000001,"instrument":5,"program":28},{"pitch":57,"velocity":85,"startTime":34.725310425,"endTime":35.006098125,"instrument":5,"program":28},{"pitch":62,"velocity":101,"startTime":34.87063037499999,"endTime":35.412501375,"instrument":5,"program":28},{"pitch":50,"velocity":91,"startTime":34.87309342500001,"endTime":35.144028925,"instrument":5,"program":28},{"pitch":57,"velocity":100,"startTime":35.018413374999994,"endTime":35.277033624999994,"instrument":5,"program":28},{"pitch":50,"velocity":94,"startTime":35.168659425,"endTime":35.451910175,"instrument":5,"program":28},{"pitch":57,"velocity":81,"startTime":35.313979375,"endTime":35.47407762500001,"instrument":5,"program":28},{"pitch":50,"velocity":72,"startTime":35.4580678,"endTime":35.584914874999996,"instrument":5,"program":28},{"pitch":43,"velocity":72,"startTime":35.46792,"endTime":35.575062675,"instrument":5,"program":28},{"pitch":50,"velocity":101,"startTime":35.612008425000006,"endTime":35.870628675000006,"instrument":5,"program":28},{"pitch":43,"velocity":86,"startTime":35.618166050000006,"endTime":35.73269787500001,"instrument":5,"program":28},{"pitch":57,"velocity":100,"startTime":35.75979142500001,"endTime":36.16619467500001,"instrument":5,"program":28},{"pitch":43,"velocity":86,"startTime":35.76594905,"endTime":36.003633375,"instrument":5,"program":28},{"pitch":50,"velocity":88,"startTime":35.90757442500001,"endTime":36.295504799999996,"instrument":5,"program":28},{"pitch":43,"velocity":82,"startTime":36.052894374999994,"endTime":36.634174175,"instrument":5,"program":28},{"pitch":59,"velocity":103,"startTime":36.055357425000004,"endTime":36.67727755000001,"instrument":5,"program":28},{"pitch":57,"velocity":89,"startTime":36.1969828,"endTime":36.453140000000005,"instrument":5,"program":28},{"pitch":50,"velocity":99,"startTime":36.354618,"endTime":36.75732667500001,"instrument":5,"program":28},{"pitch":57,"velocity":72,"startTime":36.49870642500001,"endTime":36.91496187500001,"instrument":5,"program":28},{"pitch":43,"velocity":83,"startTime":36.646489425000006,"endTime":36.730233125,"instrument":5,"program":28},{"pitch":43,"velocity":103,"startTime":36.65264704999999,"endTime":36.945750000000004,"instrument":5,"program":28},{"pitch":50,"velocity":95,"startTime":36.79796700000001,"endTime":37.05289267500001,"instrument":5,"program":28},{"pitch":57,"velocity":108,"startTime":36.94205542500001,"endTime":37.35215325,"instrument":5,"program":28},{"pitch":43,"velocity":79,"startTime":36.945750000000004,"endTime":37.198212625,"instrument":5,"program":28},{"pitch":50,"velocity":78,"startTime":37.093533,"endTime":37.496241675,"instrument":5,"program":28},{"pitch":43,"velocity":79,"startTime":37.235158375000005,"endTime":37.816438174999995,"instrument":5,"program":28},{"pitch":59,"velocity":97,"startTime":37.241316000000005,"endTime":37.878014424999996,"instrument":5,"program":28},{"pitch":57,"velocity":84,"startTime":37.385404425,"endTime":37.64771925,"instrument":5,"program":28},{"pitch":50,"velocity":76,"startTime":37.536882,"endTime":37.9556005,"instrument":5,"program":28},{"pitch":57,"velocity":72,"startTime":37.68097042500001,"endTime":38.09106824999999,"instrument":5,"program":28},{"pitch":43,"velocity":75,"startTime":37.82875342500001,"endTime":37.976536425000006,"instrument":5,"program":28},{"pitch":43,"velocity":103,"startTime":37.83491105,"endTime":38.128014,"instrument":5,"program":28},{"pitch":50,"velocity":95,"startTime":37.980231,"endTime":38.235156675000006,"instrument":5,"program":28},{"pitch":57,"velocity":108,"startTime":38.124319425,"endTime":38.534417250000004,"instrument":5,"program":28},{"pitch":43,"velocity":79,"startTime":38.128014,"endTime":38.38047662499999,"instrument":5,"program":28},{"pitch":50,"velocity":78,"startTime":38.275797000000004,"endTime":38.678505675,"instrument":5,"program":28},{"pitch":43,"velocity":79,"startTime":38.417422375,"endTime":38.998702175,"instrument":5,"program":28},{"pitch":59,"velocity":97,"startTime":38.42358,"endTime":39.06027842499999,"instrument":5,"program":28},{"pitch":57,"velocity":84,"startTime":38.56766842500001,"endTime":38.82998325,"instrument":5,"program":28},{"pitch":50,"velocity":76,"startTime":38.719145999999995,"endTime":39.1378645,"instrument":5,"program":28},{"pitch":57,"velocity":72,"startTime":38.86323442500001,"endTime":39.27333225,"instrument":5,"program":28},{"pitch":43,"velocity":75,"startTime":39.011017425000006,"endTime":39.158800425,"instrument":5,"program":28},{"pitch":50,"velocity":94,"startTime":39.16249500000001,"endTime":39.41495762499999,"instrument":5,"program":28},{"pitch":43,"velocity":76,"startTime":39.164958049999996,"endTime":39.281952925,"instrument":5,"program":28},{"pitch":57,"velocity":93,"startTime":39.306583425,"endTime":39.710523625,"instrument":5,"program":28},{"pitch":43,"velocity":82,"startTime":39.31274105,"endTime":39.562740625,"instrument":5,"program":28},{"pitch":50,"velocity":74,"startTime":39.46052405,"endTime":39.860769675000014,"instrument":5,"program":28},{"pitch":43,"velocity":79,"startTime":39.602149425000015,"endTime":40.144020425,"instrument":5,"program":28},{"pitch":59,"velocity":84,"startTime":39.605844,"endTime":40.236384799999996,"instrument":5,"program":28},{"pitch":57,"velocity":72,"startTime":39.74993242500001,"endTime":40.01840487500001,"instrument":5,"program":28},{"pitch":50,"velocity":83,"startTime":39.90140999999999,"endTime":40.230227174999996,"instrument":5,"program":28},{"pitch":57,"velocity":80,"startTime":40.05165605,"endTime":40.2856458,"instrument":5,"program":28},{"pitch":40,"velocity":81,"startTime":40.19081837499999,"endTime":40.34722205,"instrument":5,"program":28},{"pitch":47,"velocity":96,"startTime":40.344759,"endTime":40.599684675,"instrument":5,"program":28},{"pitch":40,"velocity":87,"startTime":40.34722205,"endTime":40.464216924999995,"instrument":5,"program":28},{"pitch":54,"velocity":92,"startTime":40.488847424999996,"endTime":40.75978292500001,"instrument":5,"program":28},{"pitch":40,"velocity":76,"startTime":40.492542,"endTime":40.72899480000001,"instrument":5,"program":28},{"pitch":47,"velocity":83,"startTime":40.634167375,"endTime":40.79426562500001,"instrument":5,"program":28},{"pitch":55,"velocity":94,"startTime":40.788107999999994,"endTime":41.94820455,"instrument":5,"program":28},{"pitch":40,"velocity":81,"startTime":40.788107999999994,"endTime":41.35707255000001,"instrument":5,"program":28},{"pitch":54,"velocity":84,"startTime":40.93589099999999,"endTime":41.079979425000005,"instrument":5,"program":28},{"pitch":47,"velocity":84,"startTime":41.079979425000005,"endTime":41.5023925,"instrument":5,"program":28},{"pitch":54,"velocity":85,"startTime":41.227762425,"endTime":41.461752175,"instrument":5,"program":28},{"pitch":40,"velocity":82,"startTime":41.37924,"endTime":41.658796175,"instrument":5,"program":28},{"pitch":47,"velocity":93,"startTime":41.529486049999996,"endTime":41.79795849999999,"instrument":5,"program":28},{"pitch":54,"velocity":100,"startTime":41.674806,"endTime":42.089829925000004,"instrument":5,"program":28},{"pitch":40,"velocity":83,"startTime":41.67726904999999,"endTime":41.79795849999999,"instrument":5,"program":28},{"pitch":47,"velocity":97,"startTime":41.822588999999994,"endTime":42.222834625,"instrument":5,"program":28},{"pitch":40,"velocity":81,"startTime":41.97037199999999,"endTime":42.161258374999996,"instrument":5,"program":28},{"pitch":55,"velocity":102,"startTime":41.97283505,"endTime":42.644016175,"instrument":5,"program":28},{"pitch":54,"velocity":71,"startTime":42.11815500000001,"endTime":42.33982949999999,"instrument":5,"program":28},{"pitch":47,"velocity":81,"startTime":42.265938000000006,"endTime":42.549188750000006,"instrument":5,"program":28},{"pitch":54,"velocity":82,"startTime":42.413721,"endTime":42.557809424999995,"instrument":5,"program":28},{"pitch":48,"velocity":79,"startTime":42.563967049999995,"endTime":42.662489050000005,"instrument":5,"program":28},{"pitch":55,"velocity":104,"startTime":42.705592425,"endTime":42.97037029999999,"instrument":5,"program":28},{"pitch":48,"velocity":91,"startTime":42.709286999999996,"endTime":42.79795680000001,"instrument":5,"program":28},{"pitch":62,"velocity":103,"startTime":42.850912375,"endTime":43.413719300000004,"instrument":5,"program":28},{"pitch":48,"velocity":89,"startTime":42.85706999999999,"endTime":43.11199567500001,"instrument":5,"program":28},{"pitch":55,"velocity":93,"startTime":43.00731605000001,"endTime":43.272093925,"instrument":5,"program":28},{"pitch":48,"velocity":92,"startTime":43.148941425000004,"endTime":43.444507425,"instrument":5,"program":28},{"pitch":60,"velocity":100,"startTime":43.15263600000001,"endTime":43.66987650000001,"instrument":5,"program":28},{"pitch":55,"velocity":85,"startTime":43.296724425,"endTime":43.57381755000001,"instrument":5,"program":28},{"pitch":48,"velocity":94,"startTime":43.448202,"endTime":43.678497175,"instrument":5,"program":28},{"pitch":55,"velocity":72,"startTime":43.592290425,"endTime":43.850910675,"instrument":5,"program":28},{"pitch":50,"velocity":100,"startTime":43.74623104999999,"endTime":43.88785642500001,"instrument":5,"program":28},{"pitch":50,"velocity":108,"startTime":43.89155099999999,"endTime":43.9654425,"instrument":5,"program":28},{"pitch":57,"velocity":89,"startTime":43.89155099999999,"endTime":44.06396450000001,"instrument":5,"program":28},{"pitch":64,"velocity":103,"startTime":44.02948179999999,"endTime":44.57751042499999,"instrument":5,"program":28},{"pitch":50,"velocity":88,"startTime":44.033176375,"endTime":44.137856,"instrument":5,"program":28},{"pitch":57,"velocity":85,"startTime":44.183422425,"endTime":44.464210124999994,"instrument":5,"program":28},{"pitch":62,"velocity":101,"startTime":44.32874237499999,"endTime":44.87061337499999,"instrument":5,"program":28},{"pitch":50,"velocity":91,"startTime":44.331205425,"endTime":44.60214092499999,"instrument":5,"program":28},{"pitch":57,"velocity":100,"startTime":44.476525375,"endTime":44.735145625,"instrument":5,"program":28},{"pitch":50,"velocity":94,"startTime":44.626771425,"endTime":44.910022175,"instrument":5,"program":28},{"pitch":57,"velocity":81,"startTime":44.772091375,"endTime":44.93218962500001,"instrument":5,"program":28},{"pitch":50,"velocity":72,"startTime":44.916179799999995,"endTime":45.04302687500001,"instrument":5,"program":28},{"pitch":43,"velocity":72,"startTime":44.92603199999999,"endTime":45.033174675,"instrument":5,"program":28},{"pitch":50,"velocity":101,"startTime":45.070120425000006,"endTime":45.328740675000006,"instrument":5,"program":28},{"pitch":43,"velocity":86,"startTime":45.076278050000006,"endTime":45.19080987500001,"instrument":5,"program":28},{"pitch":57,"velocity":100,"startTime":45.217903425,"endTime":45.624306675,"instrument":5,"program":28},{"pitch":43,"velocity":86,"startTime":45.22406105,"endTime":45.461745375,"instrument":5,"program":28},{"pitch":50,"velocity":88,"startTime":45.365686425,"endTime":45.75361680000001,"instrument":5,"program":28},{"pitch":43,"velocity":82,"startTime":45.51100637500001,"endTime":46.092286175,"instrument":5,"program":28},{"pitch":59,"velocity":103,"startTime":45.513469425000004,"endTime":46.135389550000006,"instrument":5,"program":28},{"pitch":57,"velocity":89,"startTime":45.6550948,"endTime":45.911252000000005,"instrument":5,"program":28},{"pitch":50,"velocity":99,"startTime":45.812729999999995,"endTime":46.21543867500001,"instrument":5,"program":28},{"pitch":57,"velocity":72,"startTime":45.95681842500001,"endTime":46.373073875,"instrument":5,"program":28},{"pitch":43,"velocity":83,"startTime":46.104601425000006,"endTime":46.188345125,"instrument":5,"program":28},{"pitch":43,"velocity":103,"startTime":46.110759050000006,"endTime":46.403862000000004,"instrument":5,"program":28},{"pitch":50,"velocity":95,"startTime":46.25607900000001,"endTime":46.511004675,"instrument":5,"program":28},{"pitch":57,"velocity":108,"startTime":46.400167425,"endTime":46.81026525,"instrument":5,"program":28},{"pitch":43,"velocity":79,"startTime":46.403862000000004,"endTime":46.65632462499999,"instrument":5,"program":28},{"pitch":50,"velocity":78,"startTime":46.551645,"endTime":46.954353675,"instrument":5,"program":28},{"pitch":43,"velocity":79,"startTime":46.693270375000004,"endTime":47.274550174999995,"instrument":5,"program":28},{"pitch":59,"velocity":97,"startTime":46.699428,"endTime":47.336126424999996,"instrument":5,"program":28},{"pitch":57,"velocity":84,"startTime":46.843516425,"endTime":47.105831249999994,"instrument":5,"program":28},{"pitch":50,"velocity":76,"startTime":46.994994,"endTime":47.4137125,"instrument":5,"program":28},{"pitch":57,"velocity":72,"startTime":47.139082425000005,"endTime":47.549180250000006,"instrument":5,"program":28},{"pitch":43,"velocity":75,"startTime":47.286865425,"endTime":47.434648425000006,"instrument":5,"program":28},{"pitch":43,"velocity":103,"startTime":47.29302305,"endTime":47.586126,"instrument":5,"program":28},{"pitch":50,"velocity":95,"startTime":47.438343,"endTime":47.693268675000006,"instrument":5,"program":28},{"pitch":57,"velocity":108,"startTime":47.582431425,"endTime":47.99252925,"instrument":5,"program":28},{"pitch":43,"velocity":79,"startTime":47.586126,"endTime":47.83858862500001,"instrument":5,"program":28},{"pitch":50,"velocity":78,"startTime":47.733909,"endTime":48.136617675,"instrument":5,"program":28},{"pitch":43,"velocity":79,"startTime":47.875534375,"endTime":48.45681417499999,"instrument":5,"program":28},{"pitch":59,"velocity":97,"startTime":47.881691999999994,"endTime":48.51839042500001,"instrument":5,"program":28},{"pitch":57,"velocity":84,"startTime":48.02578042500001,"endTime":48.28809525,"instrument":5,"program":28},{"pitch":50,"velocity":76,"startTime":48.177257999999995,"endTime":48.5959765,"instrument":5,"program":28},{"pitch":57,"velocity":72,"startTime":48.321346425,"endTime":48.73144425,"instrument":5,"program":28},{"pitch":43,"velocity":75,"startTime":48.469129425000006,"endTime":48.616912425,"instrument":5,"program":28},{"pitch":50,"velocity":94,"startTime":48.620607,"endTime":48.87306962500001,"instrument":5,"program":28},{"pitch":43,"velocity":76,"startTime":48.623070049999995,"endTime":48.740064925,"instrument":5,"program":28},{"pitch":57,"velocity":93,"startTime":48.764695425,"endTime":49.168635625,"instrument":5,"program":28},{"pitch":43,"velocity":82,"startTime":48.77085304999999,"endTime":49.020852625,"instrument":5,"program":28},{"pitch":50,"velocity":74,"startTime":48.918636049999996,"endTime":49.31888167500001,"instrument":5,"program":28},{"pitch":43,"velocity":79,"startTime":49.06026142500001,"endTime":49.60213242499999,"instrument":5,"program":28},{"pitch":59,"velocity":84,"startTime":49.063956,"endTime":49.694496799999996,"instrument":5,"program":28},{"pitch":57,"velocity":72,"startTime":49.208044425000004,"endTime":49.476516875,"instrument":5,"program":28},{"pitch":50,"velocity":83,"startTime":49.359522000000005,"endTime":49.688339174999996,"instrument":5,"program":28},{"pitch":57,"velocity":80,"startTime":49.50976805,"endTime":49.7437578,"instrument":5,"program":28},{"pitch":40,"velocity":81,"startTime":49.648930375000006,"endTime":49.80533404999999,"instrument":5,"program":28},{"pitch":47,"velocity":96,"startTime":49.802870999999996,"endTime":50.05779667500001,"instrument":5,"program":28},{"pitch":40,"velocity":87,"startTime":49.80533404999999,"endTime":49.92232892500001,"instrument":5,"program":28},{"pitch":54,"velocity":92,"startTime":49.94695942500001,"endTime":50.217894925,"instrument":5,"program":28},{"pitch":40,"velocity":76,"startTime":49.950654,"endTime":50.18710680000001,"instrument":5,"program":28},{"pitch":47,"velocity":83,"startTime":50.092279375,"endTime":50.25237762500001,"instrument":5,"program":28},{"pitch":55,"velocity":94,"startTime":50.24622000000001,"endTime":51.406316550000014,"instrument":5,"program":28},{"pitch":40,"velocity":81,"startTime":50.24622000000001,"endTime":50.815184550000005,"instrument":5,"program":28},{"pitch":54,"velocity":84,"startTime":50.394003000000005,"endTime":50.538091425000005,"instrument":5,"program":28},{"pitch":47,"velocity":84,"startTime":50.538091425000005,"endTime":50.96050449999999,"instrument":5,"program":28},{"pitch":54,"velocity":85,"startTime":50.685874425,"endTime":50.919864175,"instrument":5,"program":28},{"pitch":40,"velocity":82,"startTime":50.837352,"endTime":51.116908175,"instrument":5,"program":28},{"pitch":47,"velocity":93,"startTime":50.98759805000001,"endTime":51.25607050000001,"instrument":5,"program":28},{"pitch":54,"velocity":100,"startTime":51.13291800000001,"endTime":51.547941925,"instrument":5,"program":28},{"pitch":40,"velocity":83,"startTime":51.13538105000001,"endTime":51.25607050000001,"instrument":5,"program":28},{"pitch":47,"velocity":97,"startTime":51.28070100000001,"endTime":51.680946625,"instrument":5,"program":28},{"pitch":40,"velocity":81,"startTime":51.428484000000005,"endTime":51.61937037500001,"instrument":5,"program":28},{"pitch":55,"velocity":102,"startTime":51.43094705,"endTime":52.10212817500001,"instrument":5,"program":28},{"pitch":54,"velocity":71,"startTime":51.576267,"endTime":51.79794150000001,"instrument":5,"program":28},{"pitch":47,"velocity":81,"startTime":51.72405,"endTime":52.007300750000006,"instrument":5,"program":28},{"pitch":54,"velocity":82,"startTime":51.871833,"endTime":52.01592142500001,"instrument":5,"program":28},{"pitch":48,"velocity":79,"startTime":52.02207905000001,"endTime":52.120601050000005,"instrument":5,"program":28},{"pitch":55,"velocity":104,"startTime":52.163704425000006,"endTime":52.428482300000006,"instrument":5,"program":28},{"pitch":48,"velocity":91,"startTime":52.16739900000001,"endTime":52.25606880000001,"instrument":5,"program":28},{"pitch":62,"velocity":103,"startTime":52.30902437499999,"endTime":52.8718313,"instrument":5,"program":28},{"pitch":48,"velocity":89,"startTime":52.31518200000001,"endTime":52.57010767500001,"instrument":5,"program":28},{"pitch":55,"velocity":93,"startTime":52.46542805,"endTime":52.730205925,"instrument":5,"program":28},{"pitch":48,"velocity":92,"startTime":52.607053425000004,"endTime":52.90261942500001,"instrument":5,"program":28},{"pitch":60,"velocity":100,"startTime":52.610748,"endTime":53.1279885,"instrument":5,"program":28},{"pitch":55,"velocity":85,"startTime":52.754836425,"endTime":53.03192955000001,"instrument":5,"program":28},{"pitch":48,"velocity":94,"startTime":52.906314,"endTime":53.13660917500001,"instrument":5,"program":28},{"pitch":55,"velocity":72,"startTime":53.05040242500001,"endTime":53.30902267500001,"instrument":5,"program":28},{"pitch":50,"velocity":100,"startTime":53.204343050000006,"endTime":53.34596842500001,"instrument":5,"program":28},{"pitch":50,"velocity":108,"startTime":53.34966300000001,"endTime":53.4235545,"instrument":5,"program":28},{"pitch":57,"velocity":89,"startTime":53.34966300000001,"endTime":53.52207650000001,"instrument":5,"program":28},{"pitch":64,"velocity":103,"startTime":53.487593800000006,"endTime":54.03562242500001,"instrument":5,"program":28},{"pitch":50,"velocity":88,"startTime":53.491288374999996,"endTime":53.595968,"instrument":5,"program":28},{"pitch":57,"velocity":85,"startTime":53.641534425,"endTime":53.92232212500001,"instrument":5,"program":28},{"pitch":62,"velocity":101,"startTime":53.786854375000004,"endTime":54.328725375000005,"instrument":5,"program":28},{"pitch":50,"velocity":91,"startTime":53.789317425,"endTime":54.06025292500001,"instrument":5,"program":28},{"pitch":57,"velocity":100,"startTime":53.934637375,"endTime":54.193257625,"instrument":5,"program":28},{"pitch":50,"velocity":94,"startTime":54.08488342500001,"endTime":54.368134175,"instrument":5,"program":28},{"pitch":57,"velocity":81,"startTime":54.230203374999995,"endTime":54.390301625000006,"instrument":5,"program":28},{"pitch":50,"velocity":72,"startTime":54.37429180000001,"endTime":54.50113887500001,"instrument":5,"program":28},{"pitch":43,"velocity":72,"startTime":54.384144000000006,"endTime":54.49128667500001,"instrument":5,"program":28},{"pitch":50,"velocity":101,"startTime":54.528232425000006,"endTime":54.786852675000006,"instrument":5,"program":28},{"pitch":43,"velocity":86,"startTime":54.53439005,"endTime":54.648921875000006,"instrument":5,"program":28},{"pitch":57,"velocity":100,"startTime":54.676015425,"endTime":55.082418675,"instrument":5,"program":28},{"pitch":43,"velocity":86,"startTime":54.68217305,"endTime":54.919857375,"instrument":5,"program":28},{"pitch":50,"velocity":88,"startTime":54.823798425,"endTime":55.21172880000001,"instrument":5,"program":28},{"pitch":43,"velocity":82,"startTime":54.969118375,"endTime":55.550398175,"instrument":5,"program":28},{"pitch":59,"velocity":103,"startTime":54.97158142500001,"endTime":55.593501550000006,"instrument":5,"program":28},{"pitch":57,"velocity":89,"startTime":55.1132068,"endTime":55.369364000000004,"instrument":5,"program":28},{"pitch":50,"velocity":99,"startTime":55.27084200000001,"endTime":55.67355067500001,"instrument":5,"program":28},{"pitch":57,"velocity":72,"startTime":55.41493042500001,"endTime":55.831185875,"instrument":5,"program":28},{"pitch":43,"velocity":83,"startTime":55.562713425000005,"endTime":55.64645712500001,"instrument":5,"program":28},{"pitch":43,"velocity":90,"startTime":55.710496425,"endTime":55.796703175000005,"instrument":5,"program":28},{"pitch":50,"velocity":97,"startTime":55.71419100000001,"endTime":55.93217092500001,"instrument":5,"program":28},{"pitch":57,"velocity":103,"startTime":55.858279425,"endTime":56.25852505,"instrument":5,"program":28},{"pitch":43,"velocity":86,"startTime":55.86443705,"endTime":56.10827900000001,"instrument":5,"program":28},{"pitch":50,"velocity":89,"startTime":56.009757,"endTime":56.412465675000014,"instrument":5,"program":28},{"pitch":59,"velocity":103,"startTime":56.151382375000004,"endTime":56.76345030000001,"instrument":5,"program":28},{"pitch":43,"velocity":75,"startTime":56.15754,"endTime":56.6649283,"instrument":5,"program":28},{"pitch":57,"velocity":89,"startTime":56.30162842500001,"endTime":56.56024867500001,"instrument":5,"program":28},{"pitch":50,"velocity":100,"startTime":56.45556905,"endTime":56.83487875,"instrument":5,"program":28},{"pitch":57,"velocity":72,"startTime":56.603352050000005,"endTime":57.01960750000001,"instrument":5,"program":28},{"pitch":43,"velocity":81,"startTime":56.75113505,"endTime":56.76714487500001,"instrument":5,"program":28},{"pitch":50,"velocity":96,"startTime":56.896455,"endTime":57.1575383,"instrument":5,"program":28},{"pitch":43,"velocity":80,"startTime":56.896455,"endTime":56.988819375,"instrument":5,"program":28},{"pitch":57,"velocity":92,"startTime":57.044238,"endTime":57.44448362500002,"instrument":5,"program":28},{"pitch":43,"velocity":82,"startTime":57.046701049999996,"endTime":57.28438537500001,"instrument":5,"program":28},{"pitch":50,"velocity":77,"startTime":57.19448405000001,"endTime":57.57379375000001,"instrument":5,"program":28},{"pitch":59,"velocity":99,"startTime":57.33980400000001,"endTime":57.88413804999999,"instrument":5,"program":28},{"pitch":43,"velocity":76,"startTime":57.342267050000004,"endTime":57.906305500000016,"instrument":5,"program":28},{"pitch":57,"velocity":86,"startTime":57.48389242500001,"endTime":57.727734375000004,"instrument":5,"program":28},{"pitch":50,"velocity":91,"startTime":57.63537000000001,"endTime":58.038078675,"instrument":5,"program":28},{"pitch":57,"velocity":86,"startTime":57.78561605,"endTime":58.1920193,"instrument":5,"program":28},{"pitch":43,"velocity":88,"startTime":57.927241425,"endTime":58.019605800000015,"instrument":5,"program":28},{"pitch":50,"velocity":98,"startTime":58.078719,"endTime":58.339802299999995,"instrument":5,"program":28},{"pitch":43,"velocity":89,"startTime":58.081182049999995,"endTime":58.204334550000006,"instrument":5,"program":28},{"pitch":57,"velocity":105,"startTime":58.226501999999996,"endTime":58.62921067500001,"instrument":5,"program":28},{"pitch":43,"velocity":79,"startTime":58.226501999999996,"endTime":58.462954800000006,"instrument":5,"program":28},{"pitch":50,"velocity":94,"startTime":58.37428500000001,"endTime":58.764678425,"instrument":5,"program":28},{"pitch":43,"velocity":78,"startTime":58.52453105000001,"endTime":59.121820674999995,"instrument":5,"program":28},{"pitch":59,"velocity":79,"startTime":58.52453105000001,"endTime":59.03315087500001,"instrument":5,"program":28},{"pitch":57,"velocity":88,"startTime":58.666156425000004,"endTime":58.91861905,"instrument":5,"program":28},{"pitch":50,"velocity":105,"startTime":58.817634000000005,"endTime":59.168618625,"instrument":5,"program":28},{"pitch":57,"velocity":92,"startTime":58.965417,"endTime":59.211721999999995,"instrument":5,"program":28},{"pitch":40,"velocity":96,"startTime":59.109505425000016,"endTime":59.220342675,"instrument":5,"program":28},{"pitch":40,"velocity":93,"startTime":59.25482537500002,"endTime":59.377977875,"instrument":5,"program":28},{"pitch":47,"velocity":77,"startTime":59.260982999999996,"endTime":59.51344562500002,"instrument":5,"program":28},{"pitch":54,"velocity":104,"startTime":59.40507142500001,"endTime":59.81516925000001,"instrument":5,"program":28},{"pitch":40,"velocity":83,"startTime":59.40507142500001,"endTime":59.676006925,"instrument":5,"program":28},{"pitch":47,"velocity":91,"startTime":59.55039137500001,"endTime":59.953100049999996,"instrument":5,"program":28},{"pitch":55,"velocity":105,"startTime":59.70433200000001,"endTime":60.254823675000004,"instrument":5,"program":28},{"pitch":40,"velocity":84,"startTime":59.70433200000001,"endTime":60.2856118,"instrument":5,"program":28},{"pitch":54,"velocity":88,"startTime":59.852115000000005,"endTime":60.110735250000005,"instrument":5,"program":28},{"pitch":47,"velocity":94,"startTime":60.00236105,"endTime":60.38413380000001,"instrument":5,"program":28},{"pitch":54,"velocity":82,"startTime":60.143986425000016,"endTime":60.54792662500002,"instrument":5,"program":28},{"pitch":40,"velocity":86,"startTime":60.297927050000006,"endTime":60.39398599999999,"instrument":5,"program":28},{"pitch":40,"velocity":88,"startTime":60.43955242500001,"endTime":60.560241874999996,"instrument":5,"program":28},{"pitch":47,"velocity":96,"startTime":60.43955242500001,"endTime":60.685857425,"instrument":5,"program":28},{"pitch":54,"velocity":101,"startTime":60.57871475,"endTime":60.987581049999996,"instrument":5,"program":28},{"pitch":40,"velocity":84,"startTime":60.587335425000006,"endTime":60.84965025000001,"instrument":5,"program":28},{"pitch":47,"velocity":98,"startTime":60.73881300000001,"endTime":61.13536404999999,"instrument":5,"program":28},{"pitch":55,"velocity":106,"startTime":60.886596000000004,"endTime":61.56393475000001,"instrument":5,"program":28},{"pitch":40,"velocity":80,"startTime":60.886596000000004,"endTime":61.412457175,"instrument":5,"program":28},{"pitch":54,"velocity":101,"startTime":61.030684425000004,"endTime":61.268368750000015,"instrument":5,"program":28},{"pitch":47,"velocity":96,"startTime":61.176004375000005,"endTime":61.409994125000004,"instrument":5,"program":28},{"pitch":54,"velocity":90,"startTime":61.32625042500001,"endTime":61.461718175,"instrument":5,"program":28},{"pitch":48,"velocity":105,"startTime":61.47403342500001,"endTime":61.566397800000004,"instrument":5,"program":28},{"pitch":48,"velocity":84,"startTime":61.621816425000006,"endTime":61.73265367500001,"instrument":5,"program":28},{"pitch":55,"velocity":104,"startTime":61.62551100000001,"endTime":61.87797362500001,"instrument":5,"program":28},{"pitch":48,"velocity":96,"startTime":61.763441799999995,"endTime":62.013441375,"instrument":5,"program":28},{"pitch":62,"velocity":104,"startTime":61.769599425,"endTime":62.077480675,"instrument":5,"program":28},{"pitch":55,"velocity":90,"startTime":61.91738242500001,"endTime":62.212948425000015,"instrument":5,"program":28},{"pitch":60,"velocity":102,"startTime":62.05900779999999,"endTime":62.59841575000001,"instrument":5,"program":28},{"pitch":48,"velocity":86,"startTime":62.065165425,"endTime":62.36073142500001,"instrument":5,"program":28},{"pitch":55,"velocity":100,"startTime":62.216643,"endTime":62.342258550000004,"instrument":5,"program":28},{"pitch":48,"velocity":84,"startTime":62.364425999999995,"endTime":62.616888625000016,"instrument":5,"program":28},{"pitch":55,"velocity":92,"startTime":62.50605137500001,"endTime":62.752356375000005,"instrument":5,"program":28},{"pitch":50,"velocity":108,"startTime":62.656297425000005,"endTime":62.754819425,"instrument":5,"program":28},{"pitch":50,"velocity":96,"startTime":62.80777500000001,"endTime":63.23511417500001,"instrument":5,"program":28},{"pitch":57,"velocity":89,"startTime":62.80777500000001,"endTime":63.047922375,"instrument":5,"program":28},{"pitch":64,"velocity":106,"startTime":62.951863425000006,"endTime":63.65383267500001,"instrument":5,"program":28},{"pitch":57,"velocity":88,"startTime":63.099646425,"endTime":63.39521242500001,"instrument":5,"program":28},{"pitch":62,"velocity":104,"startTime":63.25358704999999,"endTime":63.528217125000005,"instrument":5,"program":28},{"pitch":50,"velocity":86,"startTime":63.257281625,"endTime":63.54299542500001,"instrument":5,"program":28},{"pitch":57,"velocity":88,"startTime":63.40137005000001,"endTime":63.66614792499999,"instrument":5,"program":28},{"pitch":50,"velocity":100,"startTime":63.54669000000001,"endTime":63.79915262500001,"instrument":5,"program":28},{"pitch":57,"velocity":81,"startTime":63.696936050000005,"endTime":63.87304412500001,"instrument":5,"program":28},{"pitch":43,"velocity":87,"startTime":63.83856142500001,"endTime":63.94693562500001,"instrument":5,"program":28},{"pitch":50,"velocity":99,"startTime":63.990039,"endTime":64.244964675,"instrument":5,"program":28},{"pitch":43,"velocity":86,"startTime":63.99250205,"endTime":64.109496925,"instrument":5,"program":28},{"pitch":57,"velocity":104,"startTime":64.134127425,"endTime":64.5466883,"instrument":5,"program":28},{"pitch":43,"velocity":83,"startTime":64.137822,"endTime":64.40875750000001,"instrument":5,"program":28},{"pitch":50,"velocity":109,"startTime":64.28191042500002,"endTime":64.68585062500001,"instrument":5,"program":28},{"pitch":59,"velocity":104,"startTime":64.42969342500001,"endTime":64.98387967500001,"instrument":5,"program":28},{"pitch":43,"velocity":68,"startTime":64.433388,"endTime":65.01220475,"instrument":5,"program":28},{"pitch":57,"velocity":91,"startTime":64.58117100000001,"endTime":64.83363362500002,"instrument":5,"program":28},{"pitch":50,"velocity":108,"startTime":64.725259425,"endTime":65.13535725000001,"instrument":5,"program":28},{"pitch":57,"velocity":84,"startTime":64.876737,"endTime":65.03683525000001,"instrument":5,"program":28},{"pitch":43,"velocity":78,"startTime":65.02698305,"endTime":65.1378203,"instrument":5,"program":28},{"pitch":50,"velocity":107,"startTime":65.172303,"endTime":65.424765625,"instrument":5,"program":28},{"pitch":43,"velocity":90,"startTime":65.172303,"endTime":65.28314025,"instrument":5,"program":28},{"pitch":57,"velocity":92,"startTime":65.31639142500002,"endTime":65.72279467500002,"instrument":5,"program":28},{"pitch":43,"velocity":84,"startTime":65.320086,"endTime":65.587326925,"instrument":5,"program":28},{"pitch":50,"velocity":103,"startTime":65.467869,"endTime":65.870577675,"instrument":5,"program":28},{"pitch":43,"velocity":84,"startTime":65.61565200000001,"endTime":66.1476708,"instrument":5,"program":28},{"pitch":59,"velocity":108,"startTime":65.61565200000001,"endTime":65.759740425,"instrument":5,"program":28},{"pitch":57,"velocity":101,"startTime":65.76343500000002,"endTime":66.0491488,"instrument":5,"program":28},{"pitch":50,"velocity":94,"startTime":65.911218,"endTime":66.18215350000001,"instrument":5,"program":28},{"pitch":57,"velocity":85,"startTime":66.055306425,"endTime":66.203089425,"instrument":5,"program":28},{"pitch":43,"velocity":103,"startTime":66.20924705,"endTime":66.50234999999999,"instrument":5,"program":28},{"pitch":50,"velocity":95,"startTime":66.354567,"endTime":66.60949267500001,"instrument":5,"program":28},{"pitch":57,"velocity":108,"startTime":66.49865542500001,"endTime":66.90875325000002,"instrument":5,"program":28},{"pitch":43,"velocity":79,"startTime":66.50234999999999,"endTime":66.75481262500001,"instrument":5,"program":28},{"pitch":50,"velocity":78,"startTime":66.65013300000001,"endTime":67.05284167500001,"instrument":5,"program":28},{"pitch":43,"velocity":79,"startTime":66.79175837500001,"endTime":67.373038175,"instrument":5,"program":28},{"pitch":59,"velocity":97,"startTime":66.79791600000001,"endTime":67.434614425,"instrument":5,"program":28},{"pitch":57,"velocity":84,"startTime":66.94200442500001,"endTime":67.20431925000001,"instrument":5,"program":28},{"pitch":50,"velocity":76,"startTime":67.09348200000001,"endTime":67.5122005,"instrument":5,"program":28},{"pitch":57,"velocity":72,"startTime":67.237570425,"endTime":67.64766825,"instrument":5,"program":28},{"pitch":43,"velocity":75,"startTime":67.38535342500002,"endTime":67.53313642500001,"instrument":5,"program":28},{"pitch":50,"velocity":94,"startTime":67.53683099999999,"endTime":67.78929362500001,"instrument":5,"program":28},{"pitch":43,"velocity":76,"startTime":67.53929405000001,"endTime":67.656288925,"instrument":5,"program":28},{"pitch":57,"velocity":93,"startTime":67.68091942500001,"endTime":68.084859625,"instrument":5,"program":28},{"pitch":43,"velocity":82,"startTime":67.68707705000001,"endTime":67.93707662500002,"instrument":5,"program":28},{"pitch":50,"velocity":74,"startTime":67.83486005,"endTime":68.235105675,"instrument":5,"program":28},{"pitch":43,"velocity":79,"startTime":67.976485425,"endTime":68.51835642500001,"instrument":5,"program":28},{"pitch":59,"velocity":84,"startTime":67.98018,"endTime":68.61072080000001,"instrument":5,"program":28},{"pitch":57,"velocity":72,"startTime":68.124268425,"endTime":68.392740875,"instrument":5,"program":28},{"pitch":50,"velocity":83,"startTime":68.275746,"endTime":68.60456317500001,"instrument":5,"program":28},{"pitch":57,"velocity":80,"startTime":68.42599204999999,"endTime":68.65998180000001,"instrument":5,"program":28},{"pitch":40,"velocity":81,"startTime":68.56515437500002,"endTime":68.72155805000001,"instrument":5,"program":28},{"pitch":47,"velocity":96,"startTime":68.71909500000001,"endTime":68.974020675,"instrument":5,"program":28},{"pitch":40,"velocity":87,"startTime":68.72155805000001,"endTime":68.83855292499999,"instrument":5,"program":28},{"pitch":54,"velocity":92,"startTime":68.863183425,"endTime":69.134118925,"instrument":5,"program":28},{"pitch":40,"velocity":76,"startTime":68.86687800000001,"endTime":69.10333080000001,"instrument":5,"program":28},{"pitch":47,"velocity":83,"startTime":69.008503375,"endTime":69.16860162500001,"instrument":5,"program":28},{"pitch":55,"velocity":94,"startTime":69.16244400000001,"endTime":70.32254055000001,"instrument":5,"program":28},{"pitch":40,"velocity":81,"startTime":69.16244400000001,"endTime":69.73140855,"instrument":5,"program":28},{"pitch":54,"velocity":84,"startTime":69.310227,"endTime":69.45431542500002,"instrument":5,"program":28},{"pitch":47,"velocity":84,"startTime":69.45431542500002,"endTime":69.87672850000001,"instrument":5,"program":28},{"pitch":54,"velocity":85,"startTime":69.60209842500001,"endTime":69.836088175,"instrument":5,"program":28},{"pitch":40,"velocity":82,"startTime":69.75357600000001,"endTime":70.03313217499999,"instrument":5,"program":28},{"pitch":47,"velocity":93,"startTime":69.90382205,"endTime":70.1722945,"instrument":5,"program":28},{"pitch":54,"velocity":100,"startTime":70.049142,"endTime":70.464165925,"instrument":5,"program":28},{"pitch":40,"velocity":83,"startTime":70.05160505,"endTime":70.1722945,"instrument":5,"program":28},{"pitch":47,"velocity":97,"startTime":70.19692500000001,"endTime":70.597170625,"instrument":5,"program":28},{"pitch":40,"velocity":81,"startTime":70.344708,"endTime":70.53559437499999,"instrument":5,"program":28},{"pitch":55,"velocity":102,"startTime":70.34717105,"endTime":71.01835217499999,"instrument":5,"program":28},{"pitch":54,"velocity":71,"startTime":70.492491,"endTime":70.71416550000001,"instrument":5,"program":28},{"pitch":47,"velocity":81,"startTime":70.64027399999999,"endTime":70.92352475,"instrument":5,"program":28},{"pitch":54,"velocity":82,"startTime":70.78805700000001,"endTime":70.932145425,"instrument":5,"program":28},{"pitch":48,"velocity":79,"startTime":70.93830305,"endTime":71.03682505,"instrument":5,"program":28},{"pitch":55,"velocity":104,"startTime":71.079928425,"endTime":71.3447063,"instrument":5,"program":28},{"pitch":48,"velocity":91,"startTime":71.083623,"endTime":71.17229280000001,"instrument":5,"program":28},{"pitch":62,"velocity":103,"startTime":71.225248375,"endTime":71.7880553,"instrument":5,"program":28},{"pitch":48,"velocity":89,"startTime":71.231406,"endTime":71.486331675,"instrument":5,"program":28},{"pitch":55,"velocity":93,"startTime":71.38165205,"endTime":71.64642992499999,"instrument":5,"program":28},{"pitch":48,"velocity":92,"startTime":71.52327742500002,"endTime":71.81884342500001,"instrument":5,"program":28},{"pitch":60,"velocity":100,"startTime":71.526972,"endTime":72.0442125,"instrument":5,"program":28},{"pitch":55,"velocity":85,"startTime":71.67106042500001,"endTime":71.94815355,"instrument":5,"program":28},{"pitch":48,"velocity":94,"startTime":71.82253800000001,"endTime":72.05283317499999,"instrument":5,"program":28},{"pitch":55,"velocity":72,"startTime":71.966626425,"endTime":72.22524667500001,"instrument":5,"program":28},{"pitch":50,"velocity":100,"startTime":72.12056705,"endTime":72.26219242500001,"instrument":5,"program":28},{"pitch":50,"velocity":108,"startTime":72.265887,"endTime":72.33977850000001,"instrument":5,"program":28},{"pitch":57,"velocity":89,"startTime":72.265887,"endTime":72.43830050000001,"instrument":5,"program":28},{"pitch":64,"velocity":103,"startTime":72.40381779999998,"endTime":72.951846425,"instrument":5,"program":28},{"pitch":50,"velocity":88,"startTime":72.40751237500001,"endTime":72.512192,"instrument":5,"program":28},{"pitch":57,"velocity":85,"startTime":72.55775842500002,"endTime":72.83854612500001,"instrument":5,"program":28},{"pitch":62,"velocity":101,"startTime":72.70307837500002,"endTime":73.244949375,"instrument":5,"program":28},{"pitch":50,"velocity":91,"startTime":72.705541425,"endTime":72.97647692499999,"instrument":5,"program":28},{"pitch":57,"velocity":100,"startTime":72.85086137500001,"endTime":73.10948162500002,"instrument":5,"program":28},{"pitch":50,"velocity":94,"startTime":73.00110742500001,"endTime":73.284358175,"instrument":5,"program":28},{"pitch":57,"velocity":81,"startTime":73.14642737500002,"endTime":73.306525625,"instrument":5,"program":28},{"pitch":50,"velocity":72,"startTime":73.2905158,"endTime":73.41736287500001,"instrument":5,"program":28},{"pitch":43,"velocity":72,"startTime":73.300368,"endTime":73.40751067500001,"instrument":5,"program":28},{"pitch":50,"velocity":101,"startTime":73.444456425,"endTime":73.703076675,"instrument":5,"program":28},{"pitch":43,"velocity":86,"startTime":73.45061405,"endTime":73.565145875,"instrument":5,"program":28},{"pitch":57,"velocity":100,"startTime":73.59223942500002,"endTime":73.99864267500001,"instrument":5,"program":28},{"pitch":43,"velocity":86,"startTime":73.59839705,"endTime":73.836081375,"instrument":5,"program":28},{"pitch":50,"velocity":88,"startTime":73.740022425,"endTime":74.1279528,"instrument":5,"program":28},{"pitch":43,"velocity":82,"startTime":73.88534237500001,"endTime":74.46662217500001,"instrument":5,"program":28},{"pitch":59,"velocity":103,"startTime":73.88780542500001,"endTime":74.50972555,"instrument":5,"program":28},{"pitch":57,"velocity":89,"startTime":74.0294308,"endTime":74.285588,"instrument":5,"program":28},{"pitch":50,"velocity":99,"startTime":74.187066,"endTime":74.589774675,"instrument":5,"program":28},{"pitch":57,"velocity":72,"startTime":74.33115442500001,"endTime":74.747409875,"instrument":5,"program":28},{"pitch":43,"velocity":83,"startTime":74.478937425,"endTime":74.56268112500001,"instrument":5,"program":28},{"pitch":43,"velocity":103,"startTime":74.48509505,"endTime":74.778198,"instrument":5,"program":28},{"pitch":50,"velocity":95,"startTime":74.630415,"endTime":74.88534067500001,"instrument":5,"program":28},{"pitch":57,"velocity":108,"startTime":74.774503425,"endTime":75.18460125000001,"instrument":5,"program":28},{"pitch":43,"velocity":79,"startTime":74.778198,"endTime":75.03066062500001,"instrument":5,"program":28},{"pitch":50,"velocity":78,"startTime":74.92598100000001,"endTime":75.328689675,"instrument":5,"program":28},{"pitch":43,"velocity":79,"startTime":75.06760637500001,"endTime":75.648886175,"instrument":5,"program":28},{"pitch":59,"velocity":97,"startTime":75.07376400000001,"endTime":75.710462425,"instrument":5,"program":28},{"pitch":57,"velocity":84,"startTime":75.217852425,"endTime":75.48016725000001,"instrument":5,"program":28},{"pitch":50,"velocity":76,"startTime":75.36933,"endTime":75.78804850000002,"instrument":5,"program":28},{"pitch":57,"velocity":72,"startTime":75.513418425,"endTime":75.92351625,"instrument":5,"program":28},{"pitch":43,"velocity":75,"startTime":75.66120142500002,"endTime":75.808984425,"instrument":5,"program":28},{"pitch":43,"velocity":103,"startTime":75.66735905,"endTime":75.960462,"instrument":5,"program":28},{"pitch":50,"velocity":95,"startTime":75.812679,"endTime":76.06760467500001,"instrument":5,"program":28},{"pitch":57,"velocity":108,"startTime":75.95676742500001,"endTime":76.36686525,"instrument":5,"program":28},{"pitch":43,"velocity":79,"startTime":75.960462,"endTime":76.21292462500001,"instrument":5,"program":28},{"pitch":50,"velocity":78,"startTime":76.10824500000001,"endTime":76.51095367500001,"instrument":5,"program":28},{"pitch":43,"velocity":79,"startTime":76.24987037500001,"endTime":76.831150175,"instrument":5,"program":28},{"pitch":59,"velocity":97,"startTime":76.256028,"endTime":76.892726425,"instrument":5,"program":28},{"pitch":57,"velocity":84,"startTime":76.40011642500001,"endTime":76.66243125000001,"instrument":5,"program":28},{"pitch":50,"velocity":76,"startTime":76.55159400000001,"endTime":76.9703125,"instrument":5,"program":28},{"pitch":57,"velocity":72,"startTime":76.69568242500002,"endTime":77.10578025,"instrument":5,"program":28},{"pitch":43,"velocity":75,"startTime":76.84346542500002,"endTime":76.99124842500001,"instrument":5,"program":28},{"pitch":50,"velocity":94,"startTime":76.994943,"endTime":77.24740562500001,"instrument":5,"program":28},{"pitch":43,"velocity":76,"startTime":76.99740605000001,"endTime":77.11440092499998,"instrument":5,"program":28},{"pitch":57,"velocity":93,"startTime":77.13903142500001,"endTime":77.542971625,"instrument":5,"program":28},{"pitch":43,"velocity":82,"startTime":77.14518905,"endTime":77.39518862500002,"instrument":5,"program":28},{"pitch":50,"velocity":74,"startTime":77.29297205,"endTime":77.693217675,"instrument":5,"program":28},{"pitch":43,"velocity":79,"startTime":77.434597425,"endTime":77.97646842500001,"instrument":5,"program":28},{"pitch":59,"velocity":84,"startTime":77.438292,"endTime":78.0688328,"instrument":5,"program":28},{"pitch":57,"velocity":72,"startTime":77.582380425,"endTime":77.850852875,"instrument":5,"program":28},{"pitch":50,"velocity":83,"startTime":77.733858,"endTime":78.06267517500001,"instrument":5,"program":28},{"pitch":57,"velocity":80,"startTime":77.88410405,"endTime":78.11809380000001,"instrument":5,"program":28},{"pitch":40,"velocity":81,"startTime":78.02326637500002,"endTime":78.17967005,"instrument":5,"program":28},{"pitch":47,"velocity":96,"startTime":78.17720700000001,"endTime":78.432132675,"instrument":5,"program":28},{"pitch":40,"velocity":87,"startTime":78.17967005,"endTime":78.296664925,"instrument":5,"program":28},{"pitch":54,"velocity":92,"startTime":78.321295425,"endTime":78.592230925,"instrument":5,"program":28},{"pitch":40,"velocity":76,"startTime":78.32499000000001,"endTime":78.5614428,"instrument":5,"program":28},{"pitch":47,"velocity":83,"startTime":78.466615375,"endTime":78.626713625,"instrument":5,"program":28},{"pitch":55,"velocity":94,"startTime":78.62055600000001,"endTime":79.78065255000001,"instrument":5,"program":28},{"pitch":40,"velocity":81,"startTime":78.62055600000001,"endTime":79.18952055,"instrument":5,"program":28},{"pitch":54,"velocity":84,"startTime":78.768339,"endTime":78.91242742500002,"instrument":5,"program":28},{"pitch":47,"velocity":84,"startTime":78.91242742500002,"endTime":79.3348405,"instrument":5,"program":28},{"pitch":54,"velocity":85,"startTime":79.06021042500001,"endTime":79.29420017499999,"instrument":5,"program":28},{"pitch":40,"velocity":82,"startTime":79.21168800000001,"endTime":79.49124417499999,"instrument":5,"program":28},{"pitch":47,"velocity":93,"startTime":79.36193405,"endTime":79.63040650000002,"instrument":5,"program":28},{"pitch":54,"velocity":100,"startTime":79.507254,"endTime":79.92227792499999,"instrument":5,"program":28},{"pitch":40,"velocity":83,"startTime":79.50971705,"endTime":79.63040650000002,"instrument":5,"program":28},{"pitch":47,"velocity":97,"startTime":79.65503700000001,"endTime":80.055282625,"instrument":5,"program":28},{"pitch":40,"velocity":81,"startTime":79.80282,"endTime":79.993706375,"instrument":5,"program":28},{"pitch":55,"velocity":102,"startTime":79.80528305,"endTime":80.47646417499999,"instrument":5,"program":28},{"pitch":54,"velocity":71,"startTime":79.950603,"endTime":80.1722775,"instrument":5,"program":28},{"pitch":47,"velocity":81,"startTime":80.098386,"endTime":80.38163675,"instrument":5,"program":28},{"pitch":54,"velocity":82,"startTime":80.24616900000001,"endTime":80.390257425,"instrument":5,"program":28},{"pitch":48,"velocity":79,"startTime":80.39641505,"endTime":80.49493704999999,"instrument":5,"program":28},{"pitch":55,"velocity":104,"startTime":80.538040425,"endTime":80.8028183,"instrument":5,"program":28},{"pitch":48,"velocity":91,"startTime":80.541735,"endTime":80.6304048,"instrument":5,"program":28},{"pitch":62,"velocity":103,"startTime":80.683360375,"endTime":81.24616730000001,"instrument":5,"program":28},{"pitch":48,"velocity":89,"startTime":80.689518,"endTime":80.944443675,"instrument":5,"program":28},{"pitch":55,"velocity":93,"startTime":80.83976405,"endTime":81.10454192499999,"instrument":5,"program":28},{"pitch":48,"velocity":92,"startTime":80.98138942500002,"endTime":81.27695542500001,"instrument":5,"program":28},{"pitch":60,"velocity":100,"startTime":80.985084,"endTime":81.5023245,"instrument":5,"program":28},{"pitch":55,"velocity":85,"startTime":81.12917242500001,"endTime":81.40626555,"instrument":5,"program":28},{"pitch":48,"velocity":94,"startTime":81.28065000000001,"endTime":81.51094517499999,"instrument":5,"program":28},{"pitch":55,"velocity":72,"startTime":81.424738425,"endTime":81.68335867500001,"instrument":5,"program":28},{"pitch":50,"velocity":100,"startTime":81.57867905,"endTime":81.720304425,"instrument":5,"program":28},{"pitch":50,"velocity":108,"startTime":81.723999,"endTime":81.79789050000001,"instrument":5,"program":28},{"pitch":57,"velocity":89,"startTime":81.723999,"endTime":81.8964125,"instrument":5,"program":28},{"pitch":64,"velocity":103,"startTime":81.8619298,"endTime":82.409958425,"instrument":5,"program":28},{"pitch":50,"velocity":88,"startTime":81.86562437500001,"endTime":81.970304,"instrument":5,"program":28},{"pitch":57,"velocity":85,"startTime":82.01587042500002,"endTime":82.29665812500001,"instrument":5,"program":28},{"pitch":62,"velocity":101,"startTime":82.16119037500002,"endTime":82.703061375,"instrument":5,"program":28},{"pitch":50,"velocity":91,"startTime":82.163653425,"endTime":82.434588925,"instrument":5,"program":28},{"pitch":57,"velocity":100,"startTime":82.30897337500001,"endTime":82.56759362500001,"instrument":5,"program":28},{"pitch":50,"velocity":94,"startTime":82.459219425,"endTime":82.74247017500001,"instrument":5,"program":28},{"pitch":57,"velocity":81,"startTime":82.604539375,"endTime":82.764637625,"instrument":5,"program":28},{"pitch":50,"velocity":72,"startTime":82.7486278,"endTime":82.875474875,"instrument":5,"program":28},{"pitch":43,"velocity":72,"startTime":82.75848,"endTime":82.865622675,"instrument":5,"program":28},{"pitch":50,"velocity":101,"startTime":82.90256842500001,"endTime":83.16118867500002,"instrument":5,"program":28},{"pitch":43,"velocity":86,"startTime":82.90872605,"endTime":83.023257875,"instrument":5,"program":28},{"pitch":57,"velocity":100,"startTime":83.05035142500002,"endTime":83.45675467500001,"instrument":5,"program":28},{"pitch":43,"velocity":86,"startTime":83.05650905,"endTime":83.294193375,"instrument":5,"program":28},{"pitch":50,"velocity":88,"startTime":83.198134425,"endTime":83.5860648,"instrument":5,"program":28},{"pitch":43,"velocity":82,"startTime":83.34345437500001,"endTime":83.92473417500001,"instrument":5,"program":28},{"pitch":59,"velocity":103,"startTime":83.34591742500001,"endTime":83.96783755,"instrument":5,"program":28},{"pitch":57,"velocity":89,"startTime":83.4875428,"endTime":83.7437,"instrument":5,"program":28},{"pitch":50,"velocity":99,"startTime":83.645178,"endTime":84.047886675,"instrument":5,"program":28},{"pitch":57,"velocity":72,"startTime":83.78926642500001,"endTime":84.205521875,"instrument":5,"program":28},{"pitch":43,"velocity":83,"startTime":83.93704942500001,"endTime":84.020793125,"instrument":5,"program":28},{"pitch":43,"velocity":103,"startTime":83.94320705,"endTime":84.23631000000002,"instrument":5,"program":28},{"pitch":50,"velocity":95,"startTime":84.088527,"endTime":84.34345267500001,"instrument":5,"program":28},{"pitch":57,"velocity":108,"startTime":84.232615425,"endTime":84.64271325000001,"instrument":5,"program":28},{"pitch":43,"velocity":79,"startTime":84.23631000000002,"endTime":84.48877262500001,"instrument":5,"program":28},{"pitch":50,"velocity":78,"startTime":84.38409300000001,"endTime":84.786801675,"instrument":5,"program":28},{"pitch":43,"velocity":79,"startTime":84.52571837500001,"endTime":85.106998175,"instrument":5,"program":28},{"pitch":59,"velocity":97,"startTime":84.53187600000001,"endTime":85.168574425,"instrument":5,"program":28},{"pitch":57,"velocity":84,"startTime":84.675964425,"endTime":84.93827925000001,"instrument":5,"program":28},{"pitch":50,"velocity":76,"startTime":84.827442,"endTime":85.24616050000002,"instrument":5,"program":28},{"pitch":57,"velocity":72,"startTime":84.97153042500001,"endTime":85.38162824999999,"instrument":5,"program":28},{"pitch":43,"velocity":75,"startTime":85.11931342500002,"endTime":85.267096425,"instrument":5,"program":28},{"pitch":43,"velocity":103,"startTime":85.12547105000002,"endTime":85.418574,"instrument":5,"program":28},{"pitch":50,"velocity":95,"startTime":85.27079100000002,"endTime":85.52571667500001,"instrument":5,"program":28},{"pitch":57,"velocity":108,"startTime":85.41487942500001,"endTime":85.82497725,"instrument":5,"program":28},{"pitch":43,"velocity":79,"startTime":85.418574,"endTime":85.67103662500001,"instrument":5,"program":28},{"pitch":50,"velocity":78,"startTime":85.56635700000001,"endTime":85.96906567500001,"instrument":5,"program":28},{"pitch":43,"velocity":79,"startTime":85.70798237500001,"endTime":86.289262175,"instrument":5,"program":28},{"pitch":59,"velocity":97,"startTime":85.71414,"endTime":86.350838425,"instrument":5,"program":28},{"pitch":57,"velocity":84,"startTime":85.85822842500001,"endTime":86.12054325,"instrument":5,"program":28},{"pitch":50,"velocity":76,"startTime":86.009706,"endTime":86.4284245,"instrument":5,"program":28},{"pitch":57,"velocity":72,"startTime":86.15379442500002,"endTime":86.56389225000001,"instrument":5,"program":28},{"pitch":43,"velocity":75,"startTime":86.301577425,"endTime":86.44936042500001,"instrument":5,"program":28},{"pitch":50,"velocity":94,"startTime":86.453055,"endTime":86.70551762500001,"instrument":5,"program":28},{"pitch":43,"velocity":76,"startTime":86.45551805000001,"endTime":86.572512925,"instrument":5,"program":28},{"pitch":57,"velocity":93,"startTime":86.59714342500001,"endTime":87.001083625,"instrument":5,"program":28},{"pitch":43,"velocity":82,"startTime":86.60330105,"endTime":86.85330062500002,"instrument":5,"program":28},{"pitch":50,"velocity":74,"startTime":86.75108405,"endTime":87.151329675,"instrument":5,"program":28},{"pitch":43,"velocity":79,"startTime":86.892709425,"endTime":87.43458042500001,"instrument":5,"program":28},{"pitch":59,"velocity":84,"startTime":86.896404,"endTime":87.5269448,"instrument":5,"program":28},{"pitch":57,"velocity":72,"startTime":87.04049242500001,"endTime":87.308964875,"instrument":5,"program":28},{"pitch":50,"velocity":83,"startTime":87.19197,"endTime":87.52078717500001,"instrument":5,"program":28},{"pitch":57,"velocity":80,"startTime":87.34221605,"endTime":87.57620580000001,"instrument":5,"program":28},{"pitch":40,"velocity":81,"startTime":87.48137837500002,"endTime":87.63778205,"instrument":5,"program":28},{"pitch":47,"velocity":96,"startTime":87.63531900000001,"endTime":87.890244675,"instrument":5,"program":28},{"pitch":40,"velocity":87,"startTime":87.63778205,"endTime":87.754776925,"instrument":5,"program":28},{"pitch":54,"velocity":92,"startTime":87.779407425,"endTime":88.050342925,"instrument":5,"program":28},{"pitch":40,"velocity":76,"startTime":87.783102,"endTime":88.01955480000001,"instrument":5,"program":28},{"pitch":47,"velocity":83,"startTime":87.924727375,"endTime":88.084825625,"instrument":5,"program":28},{"pitch":55,"velocity":94,"startTime":88.07866800000001,"endTime":89.23876455000001,"instrument":5,"program":28},{"pitch":40,"velocity":81,"startTime":88.07866800000001,"endTime":88.64763255,"instrument":5,"program":28},{"pitch":54,"velocity":84,"startTime":88.226451,"endTime":88.370539425,"instrument":5,"program":28},{"pitch":47,"velocity":84,"startTime":88.370539425,"endTime":88.7929525,"instrument":5,"program":28},{"pitch":54,"velocity":85,"startTime":88.51832242500001,"endTime":88.75231217499999,"instrument":5,"program":28},{"pitch":40,"velocity":82,"startTime":88.66980000000001,"endTime":88.949356175,"instrument":5,"program":28},{"pitch":47,"velocity":93,"startTime":88.82004605,"endTime":89.08851850000002,"instrument":5,"program":28},{"pitch":54,"velocity":100,"startTime":88.965366,"endTime":89.38038992499999,"instrument":5,"program":28},{"pitch":40,"velocity":83,"startTime":88.96782904999999,"endTime":89.08851850000002,"instrument":5,"program":28},{"pitch":47,"velocity":97,"startTime":89.113149,"endTime":89.51339462500002,"instrument":5,"program":28},{"pitch":40,"velocity":81,"startTime":89.260932,"endTime":89.451818375,"instrument":5,"program":28},{"pitch":55,"velocity":102,"startTime":89.26339505000001,"endTime":89.93457617499999,"instrument":5,"program":28},{"pitch":54,"velocity":71,"startTime":89.40871500000002,"endTime":89.6303895,"instrument":5,"program":28},{"pitch":47,"velocity":81,"startTime":89.556498,"endTime":89.83974875,"instrument":5,"program":28},{"pitch":54,"velocity":82,"startTime":89.70428100000001,"endTime":89.848369425,"instrument":5,"program":28},{"pitch":48,"velocity":79,"startTime":89.85452705,"endTime":89.95304904999999,"instrument":5,"program":28},{"pitch":55,"velocity":104,"startTime":89.996152425,"endTime":90.2609303,"instrument":5,"program":28},{"pitch":48,"velocity":91,"startTime":89.999847,"endTime":90.08851680000001,"instrument":5,"program":28},{"pitch":62,"velocity":103,"startTime":90.141472375,"endTime":90.70427930000001,"instrument":5,"program":28},{"pitch":48,"velocity":89,"startTime":90.14763,"endTime":90.40255567500002,"instrument":5,"program":28},{"pitch":55,"velocity":93,"startTime":90.29787605000001,"endTime":90.56265392499999,"instrument":5,"program":28},{"pitch":48,"velocity":92,"startTime":90.43950142500002,"endTime":90.73506742500001,"instrument":5,"program":28},{"pitch":60,"velocity":100,"startTime":90.44319600000001,"endTime":90.96043650000001,"instrument":5,"program":28},{"pitch":55,"velocity":85,"startTime":90.587284425,"endTime":90.86437755000001,"instrument":5,"program":28},{"pitch":48,"velocity":94,"startTime":90.73876200000001,"endTime":90.96905717499999,"instrument":5,"program":28},{"pitch":55,"velocity":72,"startTime":90.882850425,"endTime":91.14147067500001,"instrument":5,"program":28},{"pitch":50,"velocity":100,"startTime":91.03679105,"endTime":91.17841642500001,"instrument":5,"program":28},{"pitch":50,"velocity":108,"startTime":91.182111,"endTime":91.25600250000001,"instrument":5,"program":28},{"pitch":57,"velocity":89,"startTime":91.182111,"endTime":91.3545245,"instrument":5,"program":28},{"pitch":64,"velocity":103,"startTime":91.3200418,"endTime":91.868070425,"instrument":5,"program":28},{"pitch":50,"velocity":88,"startTime":91.32373637500002,"endTime":91.428416,"instrument":5,"program":28},{"pitch":57,"velocity":85,"startTime":91.47398242500002,"endTime":91.75477012500001,"instrument":5,"program":28},{"pitch":62,"velocity":101,"startTime":91.61930237500002,"endTime":92.161173375,"instrument":5,"program":28},{"pitch":50,"velocity":91,"startTime":91.621765425,"endTime":91.892700925,"instrument":5,"program":28},{"pitch":57,"velocity":100,"startTime":91.76708537500001,"endTime":92.02570562500001,"instrument":5,"program":28},{"pitch":50,"velocity":94,"startTime":91.917331425,"endTime":92.20058217500001,"instrument":5,"program":28},{"pitch":57,"velocity":81,"startTime":92.062651375,"endTime":92.22274962499999,"instrument":5,"program":28},{"pitch":50,"velocity":72,"startTime":92.20673980000001,"endTime":92.333586875,"instrument":5,"program":28},{"pitch":43,"velocity":72,"startTime":92.216592,"endTime":92.323734675,"instrument":5,"program":28},{"pitch":50,"velocity":101,"startTime":92.36068042500001,"endTime":92.61930067500002,"instrument":5,"program":28},{"pitch":43,"velocity":86,"startTime":92.36683805000001,"endTime":92.481369875,"instrument":5,"program":28},{"pitch":57,"velocity":100,"startTime":92.50846342500002,"endTime":92.91486667500001,"instrument":5,"program":28},{"pitch":43,"velocity":86,"startTime":92.51462105,"endTime":92.752305375,"instrument":5,"program":28},{"pitch":50,"velocity":88,"startTime":92.656246425,"endTime":93.0441768,"instrument":5,"program":28},{"pitch":43,"velocity":82,"startTime":92.80156637500001,"endTime":93.382846175,"instrument":5,"program":28},{"pitch":59,"velocity":103,"startTime":92.80402942500001,"endTime":93.42594955,"instrument":5,"program":28},{"pitch":57,"velocity":89,"startTime":92.94565479999999,"endTime":93.20181199999999,"instrument":5,"program":28},{"pitch":50,"velocity":99,"startTime":93.10329,"endTime":93.50599867500001,"instrument":5,"program":28},{"pitch":57,"velocity":72,"startTime":93.24737842500002,"endTime":93.663633875,"instrument":5,"program":28},{"pitch":43,"velocity":83,"startTime":93.39516142500001,"endTime":93.478905125,"instrument":5,"program":28},{"pitch":43,"velocity":103,"startTime":93.40131905,"endTime":93.694422,"instrument":5,"program":28},{"pitch":50,"velocity":95,"startTime":93.54663900000001,"endTime":93.80156467500001,"instrument":5,"program":28},{"pitch":57,"velocity":108,"startTime":93.690727425,"endTime":94.10082525000001,"instrument":5,"program":28},{"pitch":43,"velocity":79,"startTime":93.694422,"endTime":93.94688462500001,"instrument":5,"program":28},{"pitch":50,"velocity":78,"startTime":93.842205,"endTime":94.244913675,"instrument":5,"program":28},{"pitch":43,"velocity":79,"startTime":93.98383037500001,"endTime":94.565110175,"instrument":5,"program":28},{"pitch":59,"velocity":97,"startTime":93.98998800000001,"endTime":94.626686425,"instrument":5,"program":28},{"pitch":57,"velocity":84,"startTime":94.134076425,"endTime":94.39639125000001,"instrument":5,"program":28},{"pitch":50,"velocity":76,"startTime":94.285554,"endTime":94.7042725,"instrument":5,"program":28},{"pitch":57,"velocity":72,"startTime":94.42964242500001,"endTime":94.83974024999999,"instrument":5,"program":28},{"pitch":43,"velocity":75,"startTime":94.57742542500002,"endTime":94.725208425,"instrument":5,"program":28},{"pitch":43,"velocity":103,"startTime":94.58358305,"endTime":94.876686,"instrument":5,"program":28},{"pitch":50,"velocity":95,"startTime":94.72890300000002,"endTime":94.98382867500001,"instrument":5,"program":28},{"pitch":57,"velocity":108,"startTime":94.87299142500001,"endTime":95.28308925,"instrument":5,"program":28},{"pitch":43,"velocity":79,"startTime":94.876686,"endTime":95.12914862500001,"instrument":5,"program":28},{"pitch":50,"velocity":78,"startTime":95.02446900000001,"endTime":95.427177675,"instrument":5,"program":28},{"pitch":43,"velocity":79,"startTime":95.166094375,"endTime":95.747374175,"instrument":5,"program":28},{"pitch":59,"velocity":97,"startTime":95.172252,"endTime":95.80895042499999,"instrument":5,"program":28},{"pitch":57,"velocity":84,"startTime":95.31634042500002,"endTime":95.57865525,"instrument":5,"program":28},{"pitch":50,"velocity":76,"startTime":95.467818,"endTime":95.8865365,"instrument":5,"program":28},{"pitch":57,"velocity":72,"startTime":95.61190642500002,"endTime":96.02200425000001,"instrument":5,"program":28},{"pitch":43,"velocity":75,"startTime":95.759689425,"endTime":95.90747242500001,"instrument":5,"program":28},{"pitch":50,"velocity":94,"startTime":95.911167,"endTime":96.16362962500001,"instrument":5,"program":28},{"pitch":43,"velocity":76,"startTime":95.91363005000001,"endTime":96.030624925,"instrument":5,"program":28},{"pitch":57,"velocity":93,"startTime":96.055255425,"endTime":96.459195625,"instrument":5,"program":28},{"pitch":43,"velocity":82,"startTime":96.06141305,"endTime":96.311412625,"instrument":5,"program":28},{"pitch":50,"velocity":74,"startTime":96.20919605,"endTime":96.60944167500001,"instrument":5,"program":28},{"pitch":43,"velocity":79,"startTime":96.35082142500002,"endTime":96.892692425,"instrument":5,"program":28},{"pitch":59,"velocity":84,"startTime":96.354516,"endTime":96.9850568,"instrument":5,"program":28},{"pitch":57,"velocity":72,"startTime":96.49860442500001,"endTime":96.767076875,"instrument":5,"program":28},{"pitch":50,"velocity":83,"startTime":96.650082,"endTime":96.978899175,"instrument":5,"program":28},{"pitch":57,"velocity":80,"startTime":96.80032805,"endTime":97.0343178,"instrument":5,"program":28},{"pitch":40,"velocity":81,"startTime":96.939490375,"endTime":97.09589405,"instrument":5,"program":28},{"pitch":47,"velocity":96,"startTime":97.09343100000001,"endTime":97.348356675,"instrument":5,"program":28},{"pitch":40,"velocity":87,"startTime":97.09589405,"endTime":97.212888925,"instrument":5,"program":28},{"pitch":54,"velocity":92,"startTime":97.237519425,"endTime":97.508454925,"instrument":5,"program":28},{"pitch":40,"velocity":76,"startTime":97.241214,"endTime":97.47766680000001,"instrument":5,"program":28},{"pitch":47,"velocity":83,"startTime":97.382839375,"endTime":97.542937625,"instrument":5,"program":28},{"pitch":55,"velocity":94,"startTime":97.53678,"endTime":98.69687655,"instrument":5,"program":28},{"pitch":40,"velocity":81,"startTime":97.53678,"endTime":98.10574455000001,"instrument":5,"program":28},{"pitch":54,"velocity":84,"startTime":97.684563,"endTime":97.828651425,"instrument":5,"program":28},{"pitch":47,"velocity":84,"startTime":97.828651425,"endTime":98.25106450000001,"instrument":5,"program":28},{"pitch":54,"velocity":85,"startTime":97.97643442500001,"endTime":98.21042417499999,"instrument":5,"program":28},{"pitch":40,"velocity":82,"startTime":98.12791200000001,"endTime":98.407468175,"instrument":5,"program":28},{"pitch":47,"velocity":93,"startTime":98.27815805,"endTime":98.5466305,"instrument":5,"program":28},{"pitch":54,"velocity":100,"startTime":98.423478,"endTime":98.83850192499999,"instrument":5,"program":28},{"pitch":40,"velocity":83,"startTime":98.42594104999999,"endTime":98.5466305,"instrument":5,"program":28},{"pitch":47,"velocity":97,"startTime":98.57126099999999,"endTime":98.97150662500002,"instrument":5,"program":28},{"pitch":40,"velocity":81,"startTime":98.719044,"endTime":98.909930375,"instrument":5,"program":28},{"pitch":55,"velocity":102,"startTime":98.72150705000001,"endTime":99.392688175,"instrument":5,"program":28},{"pitch":54,"velocity":71,"startTime":98.86682700000001,"endTime":99.08850149999999,"instrument":5,"program":28},{"pitch":47,"velocity":81,"startTime":99.01461,"endTime":99.29786075,"instrument":5,"program":28},{"pitch":54,"velocity":82,"startTime":99.16239300000001,"endTime":99.306481425,"instrument":5,"program":28},{"pitch":48,"velocity":79,"startTime":99.31263905,"endTime":99.41116104999999,"instrument":5,"program":28},{"pitch":55,"velocity":104,"startTime":99.454264425,"endTime":99.7190423,"instrument":5,"program":28},{"pitch":48,"velocity":91,"startTime":99.457959,"endTime":99.54662880000001,"instrument":5,"program":28},{"pitch":62,"velocity":103,"startTime":99.59958437500002,"endTime":100.16239130000001,"instrument":5,"program":28},{"pitch":48,"velocity":89,"startTime":99.60574199999999,"endTime":99.86066767500002,"instrument":5,"program":28},{"pitch":55,"velocity":93,"startTime":99.75598805000001,"endTime":100.02076592499999,"instrument":5,"program":28},{"pitch":48,"velocity":92,"startTime":99.897613425,"endTime":100.19317942500001,"instrument":5,"program":28},{"pitch":60,"velocity":100,"startTime":99.90130800000001,"endTime":100.41854850000001,"instrument":5,"program":28},{"pitch":55,"velocity":85,"startTime":100.045396425,"endTime":100.32248955000001,"instrument":5,"program":28},{"pitch":48,"velocity":94,"startTime":100.19687400000001,"endTime":100.427169175,"instrument":5,"program":28},{"pitch":55,"velocity":72,"startTime":100.340962425,"endTime":100.59958267500001,"instrument":5,"program":28},{"pitch":50,"velocity":100,"startTime":100.49490304999999,"endTime":100.63652842500001,"instrument":5,"program":28},{"pitch":50,"velocity":108,"startTime":100.640223,"endTime":100.71411450000001,"instrument":5,"program":28},{"pitch":57,"velocity":89,"startTime":100.640223,"endTime":100.8126365,"instrument":5,"program":28},{"pitch":64,"velocity":103,"startTime":100.7781538,"endTime":101.326182425,"instrument":5,"program":28},{"pitch":50,"velocity":88,"startTime":100.78184837500001,"endTime":100.88652800000001,"instrument":5,"program":28},{"pitch":57,"velocity":85,"startTime":100.932094425,"endTime":101.212882125,"instrument":5,"program":28},{"pitch":62,"velocity":101,"startTime":101.07741437500002,"endTime":101.619285375,"instrument":5,"program":28},{"pitch":50,"velocity":91,"startTime":101.079877425,"endTime":101.350812925,"instrument":5,"program":28},{"pitch":57,"velocity":100,"startTime":101.22519737500001,"endTime":101.48381762500001,"instrument":5,"program":28},{"pitch":50,"velocity":94,"startTime":101.375443425,"endTime":101.65869417500001,"instrument":5,"program":28},{"pitch":57,"velocity":81,"startTime":101.520763375,"endTime":101.68086162499999,"instrument":5,"program":28},{"pitch":50,"velocity":72,"startTime":101.66485180000001,"endTime":101.791698875,"instrument":5,"program":28},{"pitch":43,"velocity":72,"startTime":101.674704,"endTime":101.781846675,"instrument":5,"program":28},{"pitch":50,"velocity":101,"startTime":101.81879242500001,"endTime":102.077412675,"instrument":5,"program":28},{"pitch":43,"velocity":86,"startTime":101.82495005000001,"endTime":101.939481875,"instrument":5,"program":28},{"pitch":57,"velocity":100,"startTime":101.966575425,"endTime":102.37297867500001,"instrument":5,"program":28},{"pitch":43,"velocity":86,"startTime":101.97273305,"endTime":102.210417375,"instrument":5,"program":28},{"pitch":50,"velocity":88,"startTime":102.114358425,"endTime":102.50228880000002,"instrument":5,"program":28},{"pitch":43,"velocity":82,"startTime":102.25967837500001,"endTime":102.840958175,"instrument":5,"program":28},{"pitch":59,"velocity":103,"startTime":102.26214142500001,"endTime":102.88406155,"instrument":5,"program":28},{"pitch":57,"velocity":89,"startTime":102.40376679999999,"endTime":102.65992399999999,"instrument":5,"program":28},{"pitch":50,"velocity":99,"startTime":102.561402,"endTime":102.96411067500001,"instrument":5,"program":28},{"pitch":57,"velocity":72,"startTime":102.70549042500001,"endTime":103.12174587499999,"instrument":5,"program":28},{"pitch":43,"velocity":83,"startTime":102.85327342500001,"endTime":102.937017125,"instrument":5,"program":28},{"pitch":43,"velocity":103,"startTime":102.85943105000001,"endTime":103.152534,"instrument":5,"program":28},{"pitch":50,"velocity":95,"startTime":103.00475100000001,"endTime":103.25967667500001,"instrument":5,"program":28},{"pitch":57,"velocity":108,"startTime":103.148839425,"endTime":103.55893725,"instrument":5,"program":28},{"pitch":43,"velocity":79,"startTime":103.152534,"endTime":103.40499662500001,"instrument":5,"program":28},{"pitch":50,"velocity":78,"startTime":103.300317,"endTime":103.703025675,"instrument":5,"program":28},{"pitch":43,"velocity":79,"startTime":103.44194237500001,"endTime":104.023222175,"instrument":5,"program":28},{"pitch":59,"velocity":97,"startTime":103.4481,"endTime":104.084798425,"instrument":5,"program":28},{"pitch":57,"velocity":84,"startTime":103.592188425,"endTime":103.85450325000001,"instrument":5,"program":28},{"pitch":50,"velocity":76,"startTime":103.743666,"endTime":104.1623845,"instrument":5,"program":28},{"pitch":57,"velocity":72,"startTime":103.88775442500001,"endTime":104.29785225,"instrument":5,"program":28},{"pitch":43,"velocity":75,"startTime":104.03553742500002,"endTime":104.183320425,"instrument":5,"program":28},{"pitch":43,"velocity":103,"startTime":104.04169505,"endTime":104.334798,"instrument":5,"program":28},{"pitch":50,"velocity":95,"startTime":104.187015,"endTime":104.44194067500001,"instrument":5,"program":28},{"pitch":57,"velocity":108,"startTime":104.33110342500001,"endTime":104.74120125,"instrument":5,"program":28},{"pitch":43,"velocity":79,"startTime":104.334798,"endTime":104.58726062500001,"instrument":5,"program":28},{"pitch":50,"velocity":78,"startTime":104.48258100000001,"endTime":104.885289675,"instrument":5,"program":28},{"pitch":43,"velocity":79,"startTime":104.624206375,"endTime":105.205486175,"instrument":5,"program":28},{"pitch":59,"velocity":97,"startTime":104.630364,"endTime":105.26706242499999,"instrument":5,"program":28},{"pitch":57,"velocity":84,"startTime":104.774452425,"endTime":105.03676725,"instrument":5,"program":28},{"pitch":50,"velocity":76,"startTime":104.92593,"endTime":105.3446485,"instrument":5,"program":28},{"pitch":57,"velocity":72,"startTime":105.07001842500001,"endTime":105.48011625000001,"instrument":5,"program":28},{"pitch":43,"velocity":75,"startTime":105.217801425,"endTime":105.36558442500001,"instrument":5,"program":28},{"pitch":50,"velocity":94,"startTime":105.369279,"endTime":105.62174162500001,"instrument":5,"program":28},{"pitch":43,"velocity":76,"startTime":105.37174205,"endTime":105.488736925,"instrument":5,"program":28},{"pitch":57,"velocity":93,"startTime":105.513367425,"endTime":105.917307625,"instrument":5,"program":28},{"pitch":43,"velocity":82,"startTime":105.51952505,"endTime":105.769524625,"instrument":5,"program":28},{"pitch":50,"velocity":74,"startTime":105.66730805,"endTime":106.06755367500001,"instrument":5,"program":28},{"pitch":43,"velocity":79,"startTime":105.808933425,"endTime":106.350804425,"instrument":5,"program":28},{"pitch":59,"velocity":84,"startTime":105.812628,"endTime":106.4431688,"instrument":5,"program":28},{"pitch":57,"velocity":72,"startTime":105.95671642500001,"endTime":106.225188875,"instrument":5,"program":28},{"pitch":50,"velocity":83,"startTime":106.10819400000001,"endTime":106.437011175,"instrument":5,"program":28},{"pitch":57,"velocity":80,"startTime":106.25844005,"endTime":106.4924298,"instrument":5,"program":28},{"pitch":40,"velocity":81,"startTime":106.397602375,"endTime":106.55400605,"instrument":5,"program":28},{"pitch":47,"velocity":96,"startTime":106.55154300000001,"endTime":106.806468675,"instrument":5,"program":28},{"pitch":40,"velocity":87,"startTime":106.55400605,"endTime":106.671000925,"instrument":5,"program":28},{"pitch":54,"velocity":92,"startTime":106.695631425,"endTime":106.966566925,"instrument":5,"program":28},{"pitch":40,"velocity":76,"startTime":106.699326,"endTime":106.93577880000001,"instrument":5,"program":28},{"pitch":47,"velocity":83,"startTime":106.840951375,"endTime":107.001049625,"instrument":5,"program":28},{"pitch":55,"velocity":94,"startTime":106.994892,"endTime":108.15498855,"instrument":5,"program":28},{"pitch":40,"velocity":81,"startTime":106.994892,"endTime":107.56385655000001,"instrument":5,"program":28},{"pitch":54,"velocity":84,"startTime":107.14267500000001,"endTime":107.286763425,"instrument":5,"program":28},{"pitch":47,"velocity":84,"startTime":107.286763425,"endTime":107.70917650000001,"instrument":5,"program":28},{"pitch":54,"velocity":85,"startTime":107.43454642500001,"endTime":107.668536175,"instrument":5,"program":28},{"pitch":40,"velocity":82,"startTime":107.58602400000001,"endTime":107.865580175,"instrument":5,"program":28},{"pitch":47,"velocity":93,"startTime":107.73627005,"endTime":108.0047425,"instrument":5,"program":28},{"pitch":54,"velocity":100,"startTime":107.88159,"endTime":108.29661392499999,"instrument":5,"program":28},{"pitch":40,"velocity":83,"startTime":107.88405304999999,"endTime":108.0047425,"instrument":5,"program":28},{"pitch":47,"velocity":97,"startTime":108.02937299999999,"endTime":108.42961862500002,"instrument":5,"program":28},{"pitch":40,"velocity":81,"startTime":108.17715600000001,"endTime":108.368042375,"instrument":5,"program":28},{"pitch":55,"velocity":102,"startTime":108.17961905,"endTime":108.850800175,"instrument":5,"program":28},{"pitch":54,"velocity":71,"startTime":108.32493900000001,"endTime":108.54661349999999,"instrument":5,"program":28},{"pitch":47,"velocity":81,"startTime":108.472722,"endTime":108.75597275,"instrument":5,"program":28},{"pitch":54,"velocity":82,"startTime":108.62050500000001,"endTime":108.764593425,"instrument":5,"program":28},{"pitch":48,"velocity":79,"startTime":108.77075105,"endTime":108.86927304999999,"instrument":5,"program":28},{"pitch":55,"velocity":104,"startTime":108.91237642500002,"endTime":109.1771543,"instrument":5,"program":28},{"pitch":48,"velocity":91,"startTime":108.916071,"endTime":109.00474080000001,"instrument":5,"program":28},{"pitch":62,"velocity":103,"startTime":109.05769637500002,"endTime":109.62050330000001,"instrument":5,"program":28},{"pitch":48,"velocity":89,"startTime":109.06385399999999,"endTime":109.31877967500002,"instrument":5,"program":28},{"pitch":55,"velocity":93,"startTime":109.21410005,"endTime":109.478877925,"instrument":5,"program":28},{"pitch":48,"velocity":92,"startTime":109.355725425,"endTime":109.651291425,"instrument":5,"program":28},{"pitch":60,"velocity":100,"startTime":109.35942000000001,"endTime":109.87666050000001,"instrument":5,"program":28},{"pitch":55,"velocity":85,"startTime":109.503508425,"endTime":109.78060155000001,"instrument":5,"program":28},{"pitch":48,"velocity":94,"startTime":109.65498600000001,"endTime":109.885281175,"instrument":5,"program":28},{"pitch":55,"velocity":72,"startTime":109.799074425,"endTime":110.057694675,"instrument":5,"program":28},{"pitch":50,"velocity":100,"startTime":109.95301504999999,"endTime":110.09464042500001,"instrument":5,"program":28},{"pitch":50,"velocity":108,"startTime":110.09833499999999,"endTime":110.17222650000001,"instrument":5,"program":28},{"pitch":57,"velocity":89,"startTime":110.09833499999999,"endTime":110.2707485,"instrument":5,"program":28},{"pitch":64,"velocity":103,"startTime":110.2362658,"endTime":110.784294425,"instrument":5,"program":28},{"pitch":50,"velocity":88,"startTime":110.23996037500001,"endTime":110.34464,"instrument":5,"program":28},{"pitch":57,"velocity":85,"startTime":110.390206425,"endTime":110.67099412499999,"instrument":5,"program":28},{"pitch":62,"velocity":101,"startTime":110.535526375,"endTime":111.07739737500002,"instrument":5,"program":28},{"pitch":50,"velocity":91,"startTime":110.537989425,"endTime":110.808924925,"instrument":5,"program":28},{"pitch":57,"velocity":100,"startTime":110.68330937500001,"endTime":110.941929625,"instrument":5,"program":28},{"pitch":50,"velocity":94,"startTime":110.833555425,"endTime":111.11680617500001,"instrument":5,"program":28},{"pitch":57,"velocity":81,"startTime":110.978875375,"endTime":111.13897362499999,"instrument":5,"program":28},{"pitch":50,"velocity":72,"startTime":111.1229638,"endTime":111.249810875,"instrument":5,"program":28},{"pitch":43,"velocity":72,"startTime":111.13281599999999,"endTime":111.23995867500001,"instrument":5,"program":28},{"pitch":50,"velocity":101,"startTime":111.27690442500001,"endTime":111.535524675,"instrument":5,"program":28},{"pitch":43,"velocity":86,"startTime":111.28306205000001,"endTime":111.397593875,"instrument":5,"program":28},{"pitch":57,"velocity":100,"startTime":111.424687425,"endTime":111.831090675,"instrument":5,"program":28},{"pitch":43,"velocity":86,"startTime":111.43084505,"endTime":111.668529375,"instrument":5,"program":28},{"pitch":50,"velocity":88,"startTime":111.572470425,"endTime":111.96040080000002,"instrument":5,"program":28},{"pitch":43,"velocity":82,"startTime":111.717790375,"endTime":112.299070175,"instrument":5,"program":28},{"pitch":59,"velocity":103,"startTime":111.720253425,"endTime":112.34217355,"instrument":5,"program":28},{"pitch":57,"velocity":89,"startTime":111.8618788,"endTime":112.11803599999999,"instrument":5,"program":28},{"pitch":50,"velocity":99,"startTime":112.019514,"endTime":112.42222267500001,"instrument":5,"program":28},{"pitch":57,"velocity":72,"startTime":112.16360242500001,"endTime":112.57985787499999,"instrument":5,"program":28},{"pitch":43,"velocity":83,"startTime":112.31138542500001,"endTime":112.395129125,"instrument":5,"program":28},{"pitch":43,"velocity":103,"startTime":112.31754305000001,"endTime":112.610646,"instrument":5,"program":28},{"pitch":50,"velocity":95,"startTime":112.46286300000001,"endTime":112.71778867500001,"instrument":5,"program":28},{"pitch":57,"velocity":108,"startTime":112.606951425,"endTime":113.01704925,"instrument":5,"program":28},{"pitch":43,"velocity":79,"startTime":112.610646,"endTime":112.86310862500001,"instrument":5,"program":28},{"pitch":50,"velocity":78,"startTime":112.758429,"endTime":113.161137675,"instrument":5,"program":28},{"pitch":43,"velocity":79,"startTime":112.90005437500001,"endTime":113.481334175,"instrument":5,"program":28},{"pitch":59,"velocity":97,"startTime":112.906212,"endTime":113.542910425,"instrument":5,"program":28},{"pitch":57,"velocity":84,"startTime":113.05030042500002,"endTime":113.31261525,"instrument":5,"program":28},{"pitch":50,"velocity":76,"startTime":113.20177799999999,"endTime":113.6204965,"instrument":5,"program":28},{"pitch":57,"velocity":72,"startTime":113.34586642500001,"endTime":113.75596425,"instrument":5,"program":28},{"pitch":43,"velocity":75,"startTime":113.493649425,"endTime":113.641432425,"instrument":5,"program":28},{"pitch":43,"velocity":103,"startTime":113.49980705,"endTime":113.79291,"instrument":5,"program":28},{"pitch":50,"velocity":95,"startTime":113.645127,"endTime":113.90005267500001,"instrument":5,"program":28},{"pitch":57,"velocity":108,"startTime":113.78921542500001,"endTime":114.19931325,"instrument":5,"program":28},{"pitch":43,"velocity":79,"startTime":113.79291,"endTime":114.04537262500001,"instrument":5,"program":28},{"pitch":50,"velocity":78,"startTime":113.940693,"endTime":114.34340167500001,"instrument":5,"program":28},{"pitch":43,"velocity":79,"startTime":114.082318375,"endTime":114.66359817499999,"instrument":5,"program":28},{"pitch":59,"velocity":97,"startTime":114.088476,"endTime":114.72517442499999,"instrument":5,"program":28},{"pitch":57,"velocity":84,"startTime":114.232564425,"endTime":114.49487925,"instrument":5,"program":28},{"pitch":50,"velocity":76,"startTime":114.38404200000001,"endTime":114.80276050000002,"instrument":5,"program":28},{"pitch":57,"velocity":72,"startTime":114.528130425,"endTime":114.93822825000001,"instrument":5,"program":28},{"pitch":43,"velocity":75,"startTime":114.675913425,"endTime":114.82369642500001,"instrument":5,"program":28},{"pitch":50,"velocity":94,"startTime":114.827391,"endTime":115.07985362500001,"instrument":5,"program":28},{"pitch":43,"velocity":76,"startTime":114.82985405,"endTime":114.946848925,"instrument":5,"program":28},{"pitch":57,"velocity":93,"startTime":114.971479425,"endTime":115.375419625,"instrument":5,"program":28},{"pitch":43,"velocity":82,"startTime":114.97763705,"endTime":115.227636625,"instrument":5,"program":28},{"pitch":50,"velocity":74,"startTime":115.12542004999999,"endTime":115.52566567500001,"instrument":5,"program":28},{"pitch":43,"velocity":79,"startTime":115.267045425,"endTime":115.80891642499999,"instrument":5,"program":28},{"pitch":59,"velocity":84,"startTime":115.27074,"endTime":115.9012808,"instrument":5,"program":28},{"pitch":57,"velocity":72,"startTime":115.41482842500001,"endTime":115.68330087499999,"instrument":5,"program":28},{"pitch":50,"velocity":83,"startTime":115.56630600000001,"endTime":115.89512317500001,"instrument":5,"program":28},{"pitch":57,"velocity":80,"startTime":115.71655205,"endTime":115.95054180000001,"instrument":5,"program":28},{"pitch":40,"velocity":81,"startTime":115.855714375,"endTime":116.01211805,"instrument":5,"program":28},{"pitch":47,"velocity":96,"startTime":116.009655,"endTime":116.264580675,"instrument":5,"program":28},{"pitch":40,"velocity":87,"startTime":116.01211805,"endTime":116.129112925,"instrument":5,"program":28},{"pitch":54,"velocity":92,"startTime":116.15374342500002,"endTime":116.424678925,"instrument":5,"program":28},{"pitch":40,"velocity":76,"startTime":116.157438,"endTime":116.39389080000001,"instrument":5,"program":28},{"pitch":47,"velocity":83,"startTime":116.29906337500002,"endTime":116.459161625,"instrument":5,"program":28},{"pitch":55,"velocity":94,"startTime":116.453004,"endTime":117.61310055,"instrument":5,"program":28},{"pitch":40,"velocity":81,"startTime":116.453004,"endTime":117.02196855000001,"instrument":5,"program":28},{"pitch":54,"velocity":84,"startTime":116.60078700000001,"endTime":116.744875425,"instrument":5,"program":28},{"pitch":47,"velocity":84,"startTime":116.744875425,"endTime":117.16728850000001,"instrument":5,"program":28},{"pitch":54,"velocity":85,"startTime":116.89265842500001,"endTime":117.126648175,"instrument":5,"program":28},{"pitch":40,"velocity":82,"startTime":117.04413600000001,"endTime":117.323692175,"instrument":5,"program":28},{"pitch":47,"velocity":93,"startTime":117.19438205,"endTime":117.4628545,"instrument":5,"program":28},{"pitch":54,"velocity":100,"startTime":117.339702,"endTime":117.754725925,"instrument":5,"program":28},{"pitch":40,"velocity":83,"startTime":117.34216505,"endTime":117.4628545,"instrument":5,"program":28},{"pitch":47,"velocity":97,"startTime":117.487485,"endTime":117.88773062500002,"instrument":5,"program":28},{"pitch":40,"velocity":81,"startTime":117.63526800000001,"endTime":117.826154375,"instrument":5,"program":28},{"pitch":55,"velocity":102,"startTime":117.63773105,"endTime":118.308912175,"instrument":5,"program":28},{"pitch":54,"velocity":71,"startTime":117.783051,"endTime":118.0047255,"instrument":5,"program":28},{"pitch":47,"velocity":81,"startTime":117.930834,"endTime":118.21408475000001,"instrument":5,"program":28},{"pitch":54,"velocity":82,"startTime":118.07861700000001,"endTime":118.22270542500002,"instrument":5,"program":28},{"pitch":48,"velocity":79,"startTime":118.22886305,"endTime":118.32738505,"instrument":5,"program":28},{"pitch":55,"velocity":104,"startTime":118.370488425,"endTime":118.63526630000001,"instrument":5,"program":28},{"pitch":48,"velocity":91,"startTime":118.374183,"endTime":118.46285280000001,"instrument":5,"program":28},{"pitch":62,"velocity":103,"startTime":118.51580837500002,"endTime":119.07861530000002,"instrument":5,"program":28},{"pitch":48,"velocity":89,"startTime":118.521966,"endTime":118.77689167499999,"instrument":5,"program":28},{"pitch":55,"velocity":93,"startTime":118.67221204999998,"endTime":118.936989925,"instrument":5,"program":28},{"pitch":48,"velocity":92,"startTime":118.813837425,"endTime":119.109403425,"instrument":5,"program":28},{"pitch":60,"velocity":100,"startTime":118.81753199999999,"endTime":119.33477249999999,"instrument":5,"program":28},{"pitch":55,"velocity":85,"startTime":118.96162042500002,"endTime":119.23871355,"instrument":5,"program":28},{"pitch":48,"velocity":94,"startTime":119.11309800000002,"endTime":119.343393175,"instrument":5,"program":28},{"pitch":55,"velocity":72,"startTime":119.25718642500001,"endTime":119.515806675,"instrument":5,"program":28},{"pitch":50,"velocity":100,"startTime":119.41112704999999,"endTime":119.55275242500001,"instrument":5,"program":28},{"pitch":50,"velocity":108,"startTime":119.55644699999999,"endTime":119.63033850000002,"instrument":5,"program":28},{"pitch":57,"velocity":89,"startTime":119.55644699999999,"endTime":119.7288605,"instrument":5,"program":28},{"pitch":64,"velocity":103,"startTime":119.6943778,"endTime":120.24240642500001,"instrument":5,"program":28},{"pitch":50,"velocity":88,"startTime":119.69807237500001,"endTime":119.80275199999998,"instrument":5,"program":28},{"pitch":57,"velocity":85,"startTime":119.848318425,"endTime":120.12910612499999,"instrument":5,"program":28},{"pitch":62,"velocity":101,"startTime":119.993638375,"endTime":120.53550937499999,"instrument":5,"program":28},{"pitch":50,"velocity":91,"startTime":119.99610142500002,"endTime":120.267036925,"instrument":5,"program":28},{"pitch":57,"velocity":100,"startTime":120.14142137500002,"endTime":120.400041625,"instrument":5,"program":28},{"pitch":50,"velocity":94,"startTime":120.29166742500001,"endTime":120.57491817500002,"instrument":5,"program":28},{"pitch":57,"velocity":81,"startTime":120.43698737500002,"endTime":120.59708562499999,"instrument":5,"program":28},{"pitch":50,"velocity":72,"startTime":120.58107579999998,"endTime":120.707922875,"instrument":5,"program":28},{"pitch":43,"velocity":72,"startTime":120.59092799999999,"endTime":120.69807067500001,"instrument":5,"program":28},{"pitch":50,"velocity":101,"startTime":120.73501642500003,"endTime":120.993636675,"instrument":5,"program":28},{"pitch":43,"velocity":86,"startTime":120.74117404999998,"endTime":120.85570587500001,"instrument":5,"program":28},{"pitch":57,"velocity":100,"startTime":120.882799425,"endTime":121.289202675,"instrument":5,"program":28},{"pitch":43,"velocity":86,"startTime":120.88895705,"endTime":121.12664137500002,"instrument":5,"program":28},{"pitch":50,"velocity":88,"startTime":121.03058242500002,"endTime":121.4185128,"instrument":5,"program":28},{"pitch":43,"velocity":82,"startTime":121.17590237500002,"endTime":121.757182175,"instrument":5,"program":28},{"pitch":59,"velocity":103,"startTime":121.178365425,"endTime":121.80028555000001,"instrument":5,"program":28},{"pitch":57,"velocity":89,"startTime":121.31999079999999,"endTime":121.57614799999999,"instrument":5,"program":28},{"pitch":50,"velocity":99,"startTime":121.47762600000001,"endTime":121.880334675,"instrument":5,"program":28},{"pitch":57,"velocity":72,"startTime":121.62171442500001,"endTime":122.03796987499999,"instrument":5,"program":28},{"pitch":43,"velocity":83,"startTime":121.76949742500003,"endTime":121.853241125,"instrument":5,"program":28},{"pitch":43,"velocity":103,"startTime":121.77565504999998,"endTime":122.068758,"instrument":5,"program":28},{"pitch":50,"velocity":95,"startTime":121.92097499999998,"endTime":122.17590067500002,"instrument":5,"program":28},{"pitch":57,"velocity":108,"startTime":122.06506342500002,"endTime":122.47516125,"instrument":5,"program":28},{"pitch":43,"velocity":79,"startTime":122.068758,"endTime":122.32122062500002,"instrument":5,"program":28},{"pitch":50,"velocity":78,"startTime":122.21654100000002,"endTime":122.61924967499999,"instrument":5,"program":28},{"pitch":43,"velocity":79,"startTime":122.358166375,"endTime":122.93944617500001,"instrument":5,"program":28},{"pitch":59,"velocity":97,"startTime":122.364324,"endTime":123.00102242500002,"instrument":5,"program":28},{"pitch":57,"velocity":84,"startTime":122.508412425,"endTime":122.77072725,"instrument":5,"program":28},{"pitch":50,"velocity":76,"startTime":122.65988999999999,"endTime":123.07860850000002,"instrument":5,"program":28},{"pitch":57,"velocity":72,"startTime":122.80397842500003,"endTime":123.21407625,"instrument":5,"program":28},{"pitch":43,"velocity":75,"startTime":122.951761425,"endTime":123.09954442500002,"instrument":5,"program":28},{"pitch":43,"velocity":103,"startTime":122.95791905,"endTime":123.25102200000002,"instrument":5,"program":28},{"pitch":50,"velocity":95,"startTime":123.103239,"endTime":123.358164675,"instrument":5,"program":28},{"pitch":57,"velocity":108,"startTime":123.247327425,"endTime":123.65742525000002,"instrument":5,"program":28},{"pitch":43,"velocity":79,"startTime":123.25102200000002,"endTime":123.503484625,"instrument":5,"program":28},{"pitch":50,"velocity":78,"startTime":123.398805,"endTime":123.80151367500001,"instrument":5,"program":28},{"pitch":43,"velocity":79,"startTime":123.54043037500001,"endTime":124.12171017499999,"instrument":5,"program":28},{"pitch":59,"velocity":97,"startTime":123.54658800000001,"endTime":124.18328642499999,"instrument":5,"program":28},{"pitch":57,"velocity":84,"startTime":123.690676425,"endTime":123.95299125000001,"instrument":5,"program":28},{"pitch":50,"velocity":76,"startTime":123.84215400000001,"endTime":124.2608725,"instrument":5,"program":28},{"pitch":57,"velocity":72,"startTime":123.986242425,"endTime":124.39634025000002,"instrument":5,"program":28},{"pitch":43,"velocity":75,"startTime":124.13402542500002,"endTime":124.281808425,"instrument":5,"program":28},{"pitch":50,"velocity":94,"startTime":124.28550300000002,"endTime":124.537965625,"instrument":5,"program":28},{"pitch":43,"velocity":76,"startTime":124.28796605,"endTime":124.404960925,"instrument":5,"program":28},{"pitch":57,"velocity":93,"startTime":124.42959142500001,"endTime":124.833531625,"instrument":5,"program":28},{"pitch":43,"velocity":82,"startTime":124.43574905000001,"endTime":124.68574862500002,"instrument":5,"program":28},{"pitch":50,"velocity":74,"startTime":124.58353204999999,"endTime":124.983777675,"instrument":5,"program":28},{"pitch":43,"velocity":79,"startTime":124.725157425,"endTime":125.26702842499999,"instrument":5,"program":28},{"pitch":59,"velocity":84,"startTime":124.72885199999999,"endTime":125.35939280000001,"instrument":5,"program":28},{"pitch":57,"velocity":72,"startTime":124.87294042500002,"endTime":125.14141287499999,"instrument":5,"program":28},{"pitch":50,"velocity":83,"startTime":125.024418,"endTime":125.35323517500001,"instrument":5,"program":28},{"pitch":57,"velocity":80,"startTime":125.17466405000002,"endTime":125.40865380000001,"instrument":5,"program":28},{"pitch":40,"velocity":81,"startTime":125.31382637500002,"endTime":125.47023005000001,"instrument":5,"program":28},{"pitch":47,"velocity":96,"startTime":125.467767,"endTime":125.722692675,"instrument":5,"program":28},{"pitch":40,"velocity":87,"startTime":125.47023005000001,"endTime":125.58722492500002,"instrument":5,"program":28},{"pitch":54,"velocity":92,"startTime":125.611855425,"endTime":125.88279092500001,"instrument":5,"program":28},{"pitch":40,"velocity":76,"startTime":125.61555000000001,"endTime":125.85200280000002,"instrument":5,"program":28},{"pitch":47,"velocity":83,"startTime":125.757175375,"endTime":125.917273625,"instrument":5,"program":28},{"pitch":55,"velocity":94,"startTime":125.911116,"endTime":127.07121255000001,"instrument":5,"program":28},{"pitch":40,"velocity":81,"startTime":125.911116,"endTime":126.48008055,"instrument":5,"program":28},{"pitch":54,"velocity":84,"startTime":126.058899,"endTime":126.20298742500002,"instrument":5,"program":28},{"pitch":47,"velocity":84,"startTime":126.20298742500002,"endTime":126.6254005,"instrument":5,"program":28},{"pitch":54,"velocity":85,"startTime":126.35077042500001,"endTime":126.584760175,"instrument":5,"program":28},{"pitch":40,"velocity":82,"startTime":126.502248,"endTime":126.78180417500002,"instrument":5,"program":28},{"pitch":47,"velocity":93,"startTime":126.65249404999999,"endTime":126.92096650000002,"instrument":5,"program":28},{"pitch":54,"velocity":100,"startTime":126.797814,"endTime":127.212837925,"instrument":5,"program":28},{"pitch":40,"velocity":83,"startTime":126.80027705,"endTime":126.92096650000002,"instrument":5,"program":28},{"pitch":47,"velocity":97,"startTime":126.945597,"endTime":127.345842625,"instrument":5,"program":28},{"pitch":40,"velocity":81,"startTime":127.09338,"endTime":127.28426637500002,"instrument":5,"program":28},{"pitch":55,"velocity":102,"startTime":127.09584305,"endTime":127.76702417499997,"instrument":5,"program":28},{"pitch":54,"velocity":71,"startTime":127.241163,"endTime":127.4628375,"instrument":5,"program":28},{"pitch":47,"velocity":81,"startTime":127.38894600000002,"endTime":127.67219674999998,"instrument":5,"program":28},{"pitch":54,"velocity":82,"startTime":127.536729,"endTime":127.680817425,"instrument":5,"program":28},{"pitch":48,"velocity":79,"startTime":127.68697504999999,"endTime":127.78549705,"instrument":5,"program":28},{"pitch":55,"velocity":104,"startTime":127.828600425,"endTime":128.09337829999998,"instrument":5,"program":28},{"pitch":48,"velocity":91,"startTime":127.832295,"endTime":127.92096480000002,"instrument":5,"program":28},{"pitch":62,"velocity":103,"startTime":127.973920375,"endTime":128.5367273,"instrument":5,"program":28},{"pitch":48,"velocity":89,"startTime":127.980078,"endTime":128.235003675,"instrument":5,"program":28},{"pitch":55,"velocity":93,"startTime":128.13032405,"endTime":128.39510192499998,"instrument":5,"program":28},{"pitch":48,"velocity":92,"startTime":128.27194942500003,"endTime":128.567515425,"instrument":5,"program":28},{"pitch":60,"velocity":100,"startTime":128.275644,"endTime":128.7928845,"instrument":5,"program":28},{"pitch":55,"velocity":85,"startTime":128.419732425,"endTime":128.69682555,"instrument":5,"program":28},{"pitch":48,"velocity":94,"startTime":128.57121,"endTime":128.801505175,"instrument":5,"program":28},{"pitch":55,"velocity":72,"startTime":128.715298425,"endTime":128.97391867500002,"instrument":5,"program":28},{"pitch":50,"velocity":100,"startTime":128.86923905,"endTime":129.01086442500002,"instrument":5,"program":28},{"pitch":50,"velocity":108,"startTime":129.01455900000002,"endTime":129.0884505,"instrument":5,"program":28},{"pitch":57,"velocity":89,"startTime":129.01455900000002,"endTime":129.1869725,"instrument":5,"program":28},{"pitch":64,"velocity":103,"startTime":129.1524898,"endTime":129.70051842499998,"instrument":5,"program":28},{"pitch":50,"velocity":88,"startTime":129.15618437500004,"endTime":129.260864,"instrument":5,"program":28},{"pitch":57,"velocity":85,"startTime":129.30643042500003,"endTime":129.58721812500002,"instrument":5,"program":28},{"pitch":62,"velocity":101,"startTime":129.45175037500002,"endTime":129.993621375,"instrument":5,"program":28},{"pitch":50,"velocity":91,"startTime":129.454213425,"endTime":129.725148925,"instrument":5,"program":28},{"pitch":57,"velocity":100,"startTime":129.599533375,"endTime":129.85815362500003,"instrument":5,"program":28},{"pitch":50,"velocity":94,"startTime":129.74977942499999,"endTime":130.033030175,"instrument":5,"program":28},{"pitch":57,"velocity":81,"startTime":129.895099375,"endTime":130.055197625,"instrument":5,"program":28},{"pitch":50,"velocity":72,"startTime":130.0391878,"endTime":130.166034875,"instrument":5,"program":28},{"pitch":43,"velocity":72,"startTime":130.04904000000002,"endTime":130.156182675,"instrument":5,"program":28},{"pitch":50,"velocity":101,"startTime":130.193128425,"endTime":130.45174867500003,"instrument":5,"program":28},{"pitch":43,"velocity":86,"startTime":130.19928605,"endTime":130.31381787499998,"instrument":5,"program":28},{"pitch":57,"velocity":100,"startTime":130.34091142500003,"endTime":130.747314675,"instrument":5,"program":28},{"pitch":43,"velocity":86,"startTime":130.34706905000002,"endTime":130.584753375,"instrument":5,"program":28},{"pitch":50,"velocity":88,"startTime":130.488694425,"endTime":130.8766248,"instrument":5,"program":28},{"pitch":43,"velocity":82,"startTime":130.634014375,"endTime":131.21529417500003,"instrument":5,"program":28},{"pitch":59,"velocity":103,"startTime":130.636477425,"endTime":131.25839754999998,"instrument":5,"program":28},{"pitch":57,"velocity":89,"startTime":130.7781028,"endTime":131.03426000000002,"instrument":5,"program":28},{"pitch":50,"velocity":99,"startTime":130.935738,"endTime":131.338446675,"instrument":5,"program":28},{"pitch":57,"velocity":72,"startTime":131.07982642500002,"endTime":131.49608187500002,"instrument":5,"program":28},{"pitch":43,"velocity":83,"startTime":131.227609425,"endTime":131.311353125,"instrument":5,"program":28},{"pitch":43,"velocity":103,"startTime":131.23376705,"endTime":131.52687000000003,"instrument":5,"program":28},{"pitch":50,"velocity":95,"startTime":131.379087,"endTime":131.634012675,"instrument":5,"program":28},{"pitch":57,"velocity":108,"startTime":131.523175425,"endTime":131.93327325,"instrument":5,"program":28},{"pitch":43,"velocity":79,"startTime":131.52687000000003,"endTime":131.779332625,"instrument":5,"program":28},{"pitch":50,"velocity":78,"startTime":131.674653,"endTime":132.07736167500002,"instrument":5,"program":28},{"pitch":43,"velocity":79,"startTime":131.81627837500002,"endTime":132.397558175,"instrument":5,"program":28},{"pitch":59,"velocity":97,"startTime":131.822436,"endTime":132.45913442500003,"instrument":5,"program":28},{"pitch":57,"velocity":84,"startTime":131.96652442500002,"endTime":132.22883925000002,"instrument":5,"program":28},{"pitch":50,"velocity":76,"startTime":132.11800200000002,"endTime":132.5367205,"instrument":5,"program":28},{"pitch":57,"velocity":72,"startTime":132.262090425,"endTime":132.67218824999998,"instrument":5,"program":28},{"pitch":43,"velocity":75,"startTime":132.40987342500003,"endTime":132.557656425,"instrument":5,"program":28},{"pitch":43,"velocity":103,"startTime":132.41603105000002,"endTime":132.709134,"instrument":5,"program":28},{"pitch":50,"velocity":95,"startTime":132.56135100000003,"endTime":132.81627667499998,"instrument":5,"program":28},{"pitch":57,"velocity":108,"startTime":132.70543942499998,"endTime":133.11553725,"instrument":5,"program":28},{"pitch":43,"velocity":79,"startTime":132.709134,"endTime":132.961596625,"instrument":5,"program":28},{"pitch":50,"velocity":78,"startTime":132.856917,"endTime":133.259625675,"instrument":5,"program":28},{"pitch":43,"velocity":79,"startTime":132.998542375,"endTime":133.579822175,"instrument":5,"program":28},{"pitch":59,"velocity":97,"startTime":133.00469999999999,"endTime":133.641398425,"instrument":5,"program":28},{"pitch":57,"velocity":84,"startTime":133.148788425,"endTime":133.41110325,"instrument":5,"program":28},{"pitch":50,"velocity":76,"startTime":133.300266,"endTime":133.71898449999998,"instrument":5,"program":28},{"pitch":57,"velocity":72,"startTime":133.444354425,"endTime":133.85445225,"instrument":5,"program":28},{"pitch":43,"velocity":75,"startTime":133.592137425,"endTime":133.73992042499998,"instrument":5,"program":28},{"pitch":50,"velocity":94,"startTime":133.743615,"endTime":133.996077625,"instrument":5,"program":28},{"pitch":43,"velocity":76,"startTime":133.74607805000002,"endTime":133.863072925,"instrument":5,"program":28},{"pitch":57,"velocity":93,"startTime":133.88770342499998,"endTime":134.29164362499998,"instrument":5,"program":28},{"pitch":43,"velocity":82,"startTime":133.89386105,"endTime":134.143860625,"instrument":5,"program":28},{"pitch":50,"velocity":74,"startTime":134.04164405,"endTime":134.44188967499997,"instrument":5,"program":28},{"pitch":43,"velocity":79,"startTime":134.183269425,"endTime":134.725140425,"instrument":5,"program":28},{"pitch":59,"velocity":84,"startTime":134.18696400000002,"endTime":134.8175048,"instrument":5,"program":28},{"pitch":57,"velocity":72,"startTime":134.331052425,"endTime":134.59952487500001,"instrument":5,"program":28},{"pitch":50,"velocity":83,"startTime":134.48253,"endTime":134.811347175,"instrument":5,"program":28},{"pitch":57,"velocity":80,"startTime":134.63277605,"endTime":134.8667658,"instrument":5,"program":28},{"pitch":40,"velocity":81,"startTime":134.771938375,"endTime":134.92834205,"instrument":5,"program":28},{"pitch":47,"velocity":96,"startTime":134.925879,"endTime":135.180804675,"instrument":5,"program":28},{"pitch":40,"velocity":87,"startTime":134.92834205,"endTime":135.04533692500002,"instrument":5,"program":28},{"pitch":54,"velocity":92,"startTime":135.069967425,"endTime":135.34090292500002,"instrument":5,"program":28},{"pitch":40,"velocity":76,"startTime":135.07366199999998,"endTime":135.3101148,"instrument":5,"program":28},{"pitch":47,"velocity":83,"startTime":135.21528737499997,"endTime":135.375385625,"instrument":5,"program":28},{"pitch":55,"velocity":94,"startTime":135.369228,"endTime":136.52932454999998,"instrument":5,"program":28},{"pitch":40,"velocity":81,"startTime":135.369228,"endTime":135.93819254999997,"instrument":5,"program":28},{"pitch":54,"velocity":84,"startTime":135.517011,"endTime":135.661099425,"instrument":5,"program":28},{"pitch":47,"velocity":84,"startTime":135.661099425,"endTime":136.08351249999998,"instrument":5,"program":28},{"pitch":54,"velocity":85,"startTime":135.80888242499998,"endTime":136.042872175,"instrument":5,"program":28},{"pitch":40,"velocity":82,"startTime":135.96036,"endTime":136.239916175,"instrument":5,"program":28},{"pitch":47,"velocity":93,"startTime":136.11060605,"endTime":136.3790785,"instrument":5,"program":28},{"pitch":54,"velocity":100,"startTime":136.25592600000002,"endTime":136.670949925,"instrument":5,"program":28},{"pitch":40,"velocity":83,"startTime":136.25838904999998,"endTime":136.3790785,"instrument":5,"program":28},{"pitch":47,"velocity":97,"startTime":136.403709,"endTime":136.803954625,"instrument":5,"program":28},{"pitch":40,"velocity":81,"startTime":136.551492,"endTime":136.74237837500002,"instrument":5,"program":28},{"pitch":55,"velocity":102,"startTime":136.55395505,"endTime":137.22513617500002,"instrument":5,"program":28},{"pitch":54,"velocity":71,"startTime":136.69927500000003,"endTime":136.92094949999998,"instrument":5,"program":28},{"pitch":47,"velocity":81,"startTime":136.847058,"endTime":137.13030875,"instrument":5,"program":28},{"pitch":54,"velocity":82,"startTime":136.994841,"endTime":137.138929425,"instrument":5,"program":28},{"pitch":48,"velocity":79,"startTime":137.14508705,"endTime":137.24360905,"instrument":5,"program":28},{"pitch":55,"velocity":104,"startTime":137.286712425,"endTime":137.5514903,"instrument":5,"program":28},{"pitch":48,"velocity":91,"startTime":137.29040700000002,"endTime":137.3790768,"instrument":5,"program":28},{"pitch":62,"velocity":103,"startTime":137.432032375,"endTime":137.99483930000002,"instrument":5,"program":28},{"pitch":48,"velocity":89,"startTime":137.43819,"endTime":137.693115675,"instrument":5,"program":28},{"pitch":55,"velocity":93,"startTime":137.58843605,"endTime":137.85321392500003,"instrument":5,"program":28},{"pitch":48,"velocity":92,"startTime":137.730061425,"endTime":138.025627425,"instrument":5,"program":28},{"pitch":60,"velocity":100,"startTime":137.73375600000003,"endTime":138.2509965,"instrument":5,"program":28},{"pitch":55,"velocity":85,"startTime":137.87784442499998,"endTime":138.15493755,"instrument":5,"program":28},{"pitch":48,"velocity":94,"startTime":138.029322,"endTime":138.25961717500002,"instrument":5,"program":28},{"pitch":55,"velocity":72,"startTime":138.173410425,"endTime":138.432030675,"instrument":5,"program":28},{"pitch":50,"velocity":100,"startTime":138.32735104999998,"endTime":138.468976425,"instrument":5,"program":28},{"pitch":50,"velocity":108,"startTime":138.472671,"endTime":138.54656250000002,"instrument":5,"program":28},{"pitch":57,"velocity":89,"startTime":138.472671,"endTime":138.64508450000002,"instrument":5,"program":28},{"pitch":64,"velocity":103,"startTime":138.6106018,"endTime":139.158630425,"instrument":5,"program":28},{"pitch":50,"velocity":88,"startTime":138.614296375,"endTime":138.71897600000003,"instrument":5,"program":28},{"pitch":57,"velocity":85,"startTime":138.764542425,"endTime":139.045330125,"instrument":5,"program":28},{"pitch":62,"velocity":101,"startTime":138.90986237500002,"endTime":139.451733375,"instrument":5,"program":28},{"pitch":50,"velocity":91,"startTime":138.91232542499998,"endTime":139.183260925,"instrument":5,"program":28},{"pitch":57,"velocity":100,"startTime":139.057645375,"endTime":139.316265625,"instrument":5,"program":28},{"pitch":50,"velocity":94,"startTime":139.20789142499999,"endTime":139.49114217500002,"instrument":5,"program":28},{"pitch":57,"velocity":81,"startTime":139.35321137499997,"endTime":139.513309625,"instrument":5,"program":28},{"pitch":50,"velocity":72,"startTime":139.4972998,"endTime":139.624146875,"instrument":5,"program":28},{"pitch":43,"velocity":72,"startTime":139.507152,"endTime":139.61429467499997,"instrument":5,"program":28},{"pitch":50,"velocity":101,"startTime":139.651240425,"endTime":139.909860675,"instrument":5,"program":28},{"pitch":43,"velocity":86,"startTime":139.65739805,"endTime":139.771929875,"instrument":5,"program":28},{"pitch":57,"velocity":100,"startTime":139.799023425,"endTime":140.205426675,"instrument":5,"program":28},{"pitch":43,"velocity":86,"startTime":139.80518105,"endTime":140.04286537500002,"instrument":5,"program":28},{"pitch":50,"velocity":88,"startTime":139.94680642499998,"endTime":140.3347368,"instrument":5,"program":28},{"pitch":43,"velocity":82,"startTime":140.092126375,"endTime":140.673406175,"instrument":5,"program":28},{"pitch":59,"velocity":103,"startTime":140.094589425,"endTime":140.71650955,"instrument":5,"program":28},{"pitch":57,"velocity":89,"startTime":140.23621480000003,"endTime":140.49237200000002,"instrument":5,"program":28},{"pitch":50,"velocity":99,"startTime":140.39385000000001,"endTime":140.796558675,"instrument":5,"program":28},{"pitch":57,"velocity":72,"startTime":140.537938425,"endTime":140.95419387500002,"instrument":5,"program":28},{"pitch":43,"velocity":83,"startTime":140.685721425,"endTime":140.769465125,"instrument":5,"program":28},{"pitch":43,"velocity":82,"startTime":140.69187905,"endTime":140.984982,"instrument":5,"program":28},{"pitch":50,"velocity":76,"startTime":140.83719900000003,"endTime":141.09212467499998,"instrument":5,"program":28},{"pitch":57,"velocity":86,"startTime":140.98128742499998,"endTime":141.39138524999998,"instrument":5,"program":28},{"pitch":43,"velocity":63,"startTime":140.984982,"endTime":141.237444625,"instrument":5,"program":28},{"pitch":50,"velocity":62,"startTime":141.132765,"endTime":141.535473675,"instrument":5,"program":28},{"pitch":43,"velocity":63,"startTime":141.274390375,"endTime":141.855670175,"instrument":5,"program":28},{"pitch":59,"velocity":78,"startTime":141.28054799999998,"endTime":141.917246425,"instrument":5,"program":28},{"pitch":57,"velocity":67,"startTime":141.424636425,"endTime":141.68695125,"instrument":5,"program":28},{"pitch":50,"velocity":61,"startTime":141.576114,"endTime":141.99483249999997,"instrument":5,"program":28},{"pitch":57,"velocity":58,"startTime":141.720202425,"endTime":142.13030025,"instrument":5,"program":28},{"pitch":43,"velocity":60,"startTime":141.867985425,"endTime":142.01576842499998,"instrument":5,"program":28},{"pitch":43,"velocity":67,"startTime":141.87414305,"endTime":142.167246,"instrument":5,"program":28},{"pitch":50,"velocity":62,"startTime":142.019463,"endTime":142.274388675,"instrument":5,"program":28},{"pitch":57,"velocity":70,"startTime":142.163551425,"endTime":142.57364925000002,"instrument":5,"program":28},{"pitch":43,"velocity":51,"startTime":142.167246,"endTime":142.419708625,"instrument":5,"program":28},{"pitch":50,"velocity":51,"startTime":142.315029,"endTime":142.71773767499997,"instrument":5,"program":28},{"pitch":43,"velocity":51,"startTime":142.45665437499997,"endTime":143.037934175,"instrument":5,"program":28},{"pitch":59,"velocity":63,"startTime":142.462812,"endTime":143.099510425,"instrument":5,"program":28},{"pitch":57,"velocity":55,"startTime":142.606900425,"endTime":142.86921525,"instrument":5,"program":28},{"pitch":50,"velocity":49,"startTime":142.758378,"endTime":143.1770965,"instrument":5,"program":28},{"pitch":57,"velocity":47,"startTime":142.902466425,"endTime":143.31256425,"instrument":5,"program":28},{"pitch":43,"velocity":49,"startTime":143.05024942499998,"endTime":143.198032425,"instrument":5,"program":28},{"pitch":50,"velocity":42,"startTime":143.201727,"endTime":143.454189625,"instrument":5,"program":28},{"pitch":43,"velocity":34,"startTime":143.20419005,"endTime":143.321184925,"instrument":5,"program":28},{"pitch":57,"velocity":42,"startTime":143.34581542499998,"endTime":143.749755625,"instrument":5,"program":28},{"pitch":43,"velocity":37,"startTime":143.35197305,"endTime":143.60197262499997,"instrument":5,"program":28},{"pitch":50,"velocity":33,"startTime":143.49975605,"endTime":143.900001675,"instrument":5,"program":28},{"pitch":43,"velocity":36,"startTime":143.64138142500002,"endTime":144.183252425,"instrument":5,"program":28},{"pitch":59,"velocity":38,"startTime":143.645076,"endTime":144.2756168,"instrument":5,"program":28},{"pitch":57,"velocity":32,"startTime":143.789164425,"endTime":144.05763687500001,"instrument":5,"program":28},{"pitch":50,"velocity":37,"startTime":143.94064200000003,"endTime":144.26945917499998,"instrument":5,"program":28},{"pitch":57,"velocity":36,"startTime":144.09088805000002,"endTime":144.32487779999997,"instrument":5,"program":28},{"pitch":40,"velocity":36,"startTime":144.230050375,"endTime":144.38645405,"instrument":5,"program":28},{"pitch":47,"velocity":19,"startTime":144.383991,"endTime":144.638916675,"instrument":5,"program":28},{"pitch":40,"velocity":17,"startTime":144.38645405,"endTime":144.50344892500001,"instrument":5,"program":28},{"pitch":54,"velocity":18,"startTime":144.528079425,"endTime":144.799014925,"instrument":5,"program":28},{"pitch":40,"velocity":15,"startTime":144.531774,"endTime":144.76822679999998,"instrument":5,"program":28},{"pitch":47,"velocity":17,"startTime":144.673399375,"endTime":144.833497625,"instrument":5,"program":28},{"pitch":55,"velocity":19,"startTime":144.82734,"endTime":145.98743654999998,"instrument":5,"program":28},{"pitch":40,"velocity":16,"startTime":144.82734,"endTime":145.39630455,"instrument":5,"program":28},{"pitch":54,"velocity":17,"startTime":144.97512300000002,"endTime":145.11921142499997,"instrument":5,"program":28},{"pitch":47,"velocity":17,"startTime":145.11921142499997,"endTime":145.54162449999998,"instrument":5,"program":28},{"pitch":54,"velocity":17,"startTime":145.266994425,"endTime":145.500984175,"instrument":5,"program":28},{"pitch":40,"velocity":8,"startTime":145.418472,"endTime":145.69802817500002,"instrument":5,"program":28},{"pitch":47,"velocity":9,"startTime":145.56871805,"endTime":145.8371905,"instrument":5,"program":28},{"pitch":54,"velocity":10,"startTime":145.714038,"endTime":146.12906192500003,"instrument":5,"program":28},{"pitch":40,"velocity":8,"startTime":145.71650105,"endTime":145.8371905,"instrument":5,"program":28},{"pitch":47,"velocity":10,"startTime":145.861821,"endTime":146.26206662500002,"instrument":5,"program":28},{"pitch":40,"velocity":8,"startTime":146.00960400000002,"endTime":146.20049037500002,"instrument":5,"program":28},{"pitch":55,"velocity":10,"startTime":146.01206704999998,"endTime":146.68324817500002,"instrument":5,"program":28},{"pitch":54,"velocity":7,"startTime":146.157387,"endTime":146.3790615,"instrument":5,"program":28},{"pitch":47,"velocity":8,"startTime":146.30517,"endTime":146.58842075,"instrument":5,"program":28},{"pitch":54,"velocity":8,"startTime":146.452953,"endTime":146.597041425,"instrument":5,"program":28},{"pitch":48,"velocity":1,"startTime":146.60319905,"endTime":146.70172105,"instrument":5,"program":28},{"pitch":55,"velocity":1,"startTime":146.74482442500002,"endTime":147.00960229999998,"instrument":5,"program":28},{"pitch":48,"velocity":1,"startTime":146.748519,"endTime":146.83718879999998,"instrument":5,"program":28},{"pitch":62,"velocity":1,"startTime":146.890144375,"endTime":147.4529513,"instrument":5,"program":28},{"pitch":48,"velocity":1,"startTime":146.896302,"endTime":147.151227675,"instrument":5,"program":28},{"pitch":55,"velocity":1,"startTime":147.04654804999998,"endTime":147.311325925,"instrument":5,"program":28},{"pitch":48,"velocity":1,"startTime":147.18817342499997,"endTime":147.48373942499998,"instrument":5,"program":28},{"pitch":60,"velocity":1,"startTime":147.191868,"endTime":147.7091085,"instrument":5,"program":28},{"pitch":55,"velocity":1,"startTime":147.335956425,"endTime":147.61304955,"instrument":5,"program":28},{"pitch":48,"velocity":1,"startTime":147.487434,"endTime":147.71772917500002,"instrument":5,"program":28},{"pitch":55,"velocity":1,"startTime":147.63152242499999,"endTime":147.89014267499996,"instrument":5,"program":28},{"pitch":67,"velocity":97,"startTime":65.02452000000001,"endTime":65.33240125,"instrument":6,"program":50},{"pitch":69,"velocity":102,"startTime":65.320086,"endTime":65.62796725,"instrument":6,"program":50},{"pitch":71,"velocity":91,"startTime":65.61565200000001,"endTime":65.92353325000002,"instrument":6,"program":50},{"pitch":76,"velocity":95,"startTime":65.911218,"endTime":66.21909925000001,"instrument":6,"program":50},{"pitch":74,"velocity":95,"startTime":66.206784,"endTime":68.25973617500001,"instrument":6,"program":50},{"pitch":79,"velocity":91,"startTime":68.275746,"endTime":68.46540085000001,"instrument":6,"program":50},{"pitch":78,"velocity":91,"startTime":68.423529,"endTime":69.23633550000001,"instrument":6,"program":50},{"pitch":74,"velocity":89,"startTime":69.16244400000001,"endTime":69.75357600000001,"instrument":6,"program":50},{"pitch":67,"velocity":86,"startTime":69.75357600000001,"endTime":70.969091175,"instrument":6,"program":50},{"pitch":71,"velocity":94,"startTime":70.93584000000001,"endTime":72.981403025,"instrument":6,"program":50},{"pitch":76,"velocity":86,"startTime":73.00480200000001,"endTime":73.20677210000001,"instrument":6,"program":50},{"pitch":74,"velocity":89,"startTime":73.152585,"endTime":74.47647437500001,"instrument":6,"program":50},{"pitch":67,"velocity":97,"startTime":74.48263200000001,"endTime":74.79051325,"instrument":6,"program":50},{"pitch":69,"velocity":102,"startTime":74.778198,"endTime":75.08607925,"instrument":6,"program":50},{"pitch":71,"velocity":91,"startTime":75.07376400000001,"endTime":75.38164525000002,"instrument":6,"program":50},{"pitch":76,"velocity":95,"startTime":75.36933,"endTime":75.67721125000001,"instrument":6,"program":50},{"pitch":74,"velocity":95,"startTime":75.664896,"endTime":77.717848175,"instrument":6,"program":50},{"pitch":79,"velocity":91,"startTime":77.733858,"endTime":77.92351285,"instrument":6,"program":50},{"pitch":78,"velocity":91,"startTime":77.881641,"endTime":78.69444750000001,"instrument":6,"program":50},{"pitch":74,"velocity":89,"startTime":78.62055600000001,"endTime":79.21168800000001,"instrument":6,"program":50},{"pitch":67,"velocity":86,"startTime":79.21168800000001,"endTime":80.427203175,"instrument":6,"program":50},{"pitch":71,"velocity":94,"startTime":80.39395200000001,"endTime":82.439515025,"instrument":6,"program":50},{"pitch":76,"velocity":86,"startTime":82.46291400000001,"endTime":82.6648841,"instrument":6,"program":50},{"pitch":74,"velocity":89,"startTime":82.610697,"endTime":83.93458637500001,"instrument":6,"program":50},{"pitch":67,"velocity":97,"startTime":83.940744,"endTime":84.24862525,"instrument":6,"program":50},{"pitch":69,"velocity":102,"startTime":84.23631000000002,"endTime":84.54419125000001,"instrument":6,"program":50},{"pitch":71,"velocity":91,"startTime":84.53187600000001,"endTime":84.83975725,"instrument":6,"program":50},{"pitch":76,"velocity":95,"startTime":84.827442,"endTime":85.13532325000001,"instrument":6,"program":50},{"pitch":74,"velocity":95,"startTime":85.123008,"endTime":87.175960175,"instrument":6,"program":50},{"pitch":79,"velocity":91,"startTime":87.19197,"endTime":87.38162485,"instrument":6,"program":50},{"pitch":78,"velocity":91,"startTime":87.33975300000002,"endTime":88.15255950000001,"instrument":6,"program":50},{"pitch":74,"velocity":89,"startTime":88.07866800000001,"endTime":88.66980000000001,"instrument":6,"program":50},{"pitch":67,"velocity":86,"startTime":88.66980000000001,"endTime":89.88531517500002,"instrument":6,"program":50},{"pitch":71,"velocity":94,"startTime":89.852064,"endTime":91.897627025,"instrument":6,"program":50},{"pitch":76,"velocity":86,"startTime":91.92102600000001,"endTime":92.1229961,"instrument":6,"program":50},{"pitch":74,"velocity":89,"startTime":92.068809,"endTime":93.39269837500002,"instrument":6,"program":50},{"pitch":67,"velocity":97,"startTime":93.398856,"endTime":93.70673725,"instrument":6,"program":50},{"pitch":69,"velocity":102,"startTime":93.694422,"endTime":94.00230325000001,"instrument":6,"program":50},{"pitch":71,"velocity":91,"startTime":93.98998800000001,"endTime":94.29786925,"instrument":6,"program":50},{"pitch":76,"velocity":95,"startTime":94.285554,"endTime":94.59343525,"instrument":6,"program":50},{"pitch":74,"velocity":95,"startTime":94.58112000000001,"endTime":96.634072175,"instrument":6,"program":50},{"pitch":79,"velocity":91,"startTime":96.650082,"endTime":96.83973685,"instrument":6,"program":50},{"pitch":78,"velocity":91,"startTime":96.79786500000002,"endTime":97.61067150000001,"instrument":6,"program":50},{"pitch":74,"velocity":89,"startTime":97.53678,"endTime":98.12791200000001,"instrument":6,"program":50},{"pitch":67,"velocity":86,"startTime":98.12791200000001,"endTime":99.34342717500002,"instrument":6,"program":50},{"pitch":71,"velocity":94,"startTime":99.310176,"endTime":101.355739025,"instrument":6,"program":50},{"pitch":76,"velocity":86,"startTime":101.379138,"endTime":101.58110810000001,"instrument":6,"program":50},{"pitch":74,"velocity":89,"startTime":101.526921,"endTime":102.85081037500001,"instrument":6,"program":50},{"pitch":67,"velocity":97,"startTime":102.856968,"endTime":103.16484925000002,"instrument":6,"program":50},{"pitch":69,"velocity":102,"startTime":103.152534,"endTime":103.46041525000001,"instrument":6,"program":50},{"pitch":71,"velocity":91,"startTime":103.4481,"endTime":103.75598125,"instrument":6,"program":50},{"pitch":76,"velocity":95,"startTime":103.743666,"endTime":104.05154725,"instrument":6,"program":50},{"pitch":74,"velocity":95,"startTime":104.03923200000001,"endTime":106.092184175,"instrument":6,"program":50},{"pitch":79,"velocity":91,"startTime":106.10819400000001,"endTime":106.29784885,"instrument":6,"program":50},{"pitch":78,"velocity":91,"startTime":106.255977,"endTime":107.06878350000001,"instrument":6,"program":50},{"pitch":74,"velocity":89,"startTime":106.994892,"endTime":107.58602400000001,"instrument":6,"program":50},{"pitch":67,"velocity":86,"startTime":107.58602400000001,"endTime":108.80153917500002,"instrument":6,"program":50},{"pitch":71,"velocity":94,"startTime":108.768288,"endTime":110.813851025,"instrument":6,"program":50},{"pitch":76,"velocity":86,"startTime":110.83725,"endTime":111.03922010000001,"instrument":6,"program":50},{"pitch":74,"velocity":89,"startTime":110.985033,"endTime":112.30892237500001,"instrument":6,"program":50},{"pitch":67,"velocity":97,"startTime":112.31508000000001,"endTime":112.62296125000002,"instrument":6,"program":50},{"pitch":69,"velocity":102,"startTime":112.610646,"endTime":112.91852725000001,"instrument":6,"program":50},{"pitch":71,"velocity":91,"startTime":112.906212,"endTime":113.21409325,"instrument":6,"program":50},{"pitch":76,"velocity":95,"startTime":113.20177799999999,"endTime":113.50965925000001,"instrument":6,"program":50},{"pitch":74,"velocity":95,"startTime":113.49734400000001,"endTime":115.550296175,"instrument":6,"program":50},{"pitch":79,"velocity":91,"startTime":115.56630600000001,"endTime":115.75596085,"instrument":6,"program":50},{"pitch":78,"velocity":91,"startTime":115.714089,"endTime":116.5268955,"instrument":6,"program":50},{"pitch":74,"velocity":89,"startTime":116.453004,"endTime":117.04413600000001,"instrument":6,"program":50},{"pitch":67,"velocity":86,"startTime":117.04413600000001,"endTime":118.25965117500002,"instrument":6,"program":50},{"pitch":71,"velocity":94,"startTime":118.2264,"endTime":120.27196302500002,"instrument":6,"program":50},{"pitch":76,"velocity":86,"startTime":120.295362,"endTime":120.49733210000001,"instrument":6,"program":50},{"pitch":74,"velocity":89,"startTime":120.44314500000002,"endTime":121.76703437500001,"instrument":6,"program":50},{"pitch":67,"velocity":97,"startTime":121.77319200000001,"endTime":122.08107325,"instrument":6,"program":50},{"pitch":69,"velocity":102,"startTime":122.068758,"endTime":122.37663925000003,"instrument":6,"program":50},{"pitch":71,"velocity":91,"startTime":122.364324,"endTime":122.67220525000002,"instrument":6,"program":50},{"pitch":76,"velocity":95,"startTime":122.65988999999999,"endTime":122.96777125000001,"instrument":6,"program":50},{"pitch":74,"velocity":95,"startTime":122.955456,"endTime":125.00840817500001,"instrument":6,"program":50},{"pitch":79,"velocity":91,"startTime":125.024418,"endTime":125.21407285000001,"instrument":6,"program":50},{"pitch":78,"velocity":91,"startTime":125.172201,"endTime":125.9850075,"instrument":6,"program":50},{"pitch":74,"velocity":89,"startTime":125.911116,"endTime":126.502248,"instrument":6,"program":50},{"pitch":67,"velocity":86,"startTime":126.502248,"endTime":127.717763175,"instrument":6,"program":50},{"pitch":71,"velocity":94,"startTime":127.68451200000001,"endTime":129.730075025,"instrument":6,"program":50},{"pitch":76,"velocity":86,"startTime":129.753474,"endTime":129.9554441,"instrument":6,"program":50},{"pitch":74,"velocity":89,"startTime":129.901257,"endTime":131.22514637500004,"instrument":6,"program":50},{"pitch":67,"velocity":97,"startTime":131.231304,"endTime":131.53918525,"instrument":6,"program":50},{"pitch":69,"velocity":102,"startTime":131.52687000000003,"endTime":131.83475125,"instrument":6,"program":50},{"pitch":71,"velocity":91,"startTime":131.822436,"endTime":132.13031725,"instrument":6,"program":50},{"pitch":76,"velocity":95,"startTime":132.11800200000002,"endTime":132.42588325,"instrument":6,"program":50},{"pitch":74,"velocity":95,"startTime":132.413568,"endTime":134.466520175,"instrument":6,"program":50},{"pitch":79,"velocity":91,"startTime":134.48253,"endTime":134.67218484999998,"instrument":6,"program":50},{"pitch":78,"velocity":91,"startTime":134.63031300000003,"endTime":135.44311950000002,"instrument":6,"program":50},{"pitch":74,"velocity":89,"startTime":135.369228,"endTime":135.96036,"instrument":6,"program":50},{"pitch":67,"velocity":86,"startTime":135.96036,"endTime":137.175875175,"instrument":6,"program":50},{"pitch":71,"velocity":94,"startTime":137.14262399999998,"endTime":139.18818702500002,"instrument":6,"program":50},{"pitch":76,"velocity":86,"startTime":139.21158599999998,"endTime":139.41355609999997,"instrument":6,"program":50},{"pitch":74,"velocity":89,"startTime":139.35936900000002,"endTime":140.683258375,"instrument":6,"program":50},{"pitch":67,"velocity":78,"startTime":140.689416,"endTime":140.99729725,"instrument":6,"program":50},{"pitch":69,"velocity":82,"startTime":140.984982,"endTime":141.29286324999998,"instrument":6,"program":50},{"pitch":71,"velocity":73,"startTime":141.28054799999998,"endTime":141.58842925,"instrument":6,"program":50},{"pitch":76,"velocity":76,"startTime":141.576114,"endTime":141.88399524999997,"instrument":6,"program":50},{"pitch":74,"velocity":62,"startTime":141.87168000000003,"endTime":143.924632175,"instrument":6,"program":50},{"pitch":79,"velocity":41,"startTime":143.94064200000003,"endTime":144.13029685,"instrument":6,"program":50},{"pitch":78,"velocity":41,"startTime":144.088425,"endTime":144.9012315,"instrument":6,"program":50},{"pitch":74,"velocity":18,"startTime":144.82734,"endTime":145.418472,"instrument":6,"program":50},{"pitch":67,"velocity":9,"startTime":145.418472,"endTime":146.63398717500002,"instrument":6,"program":50},{"pitch":71,"velocity":1,"startTime":146.600736,"endTime":148.646299025,"instrument":6,"program":50},{"pitch":62,"velocity":94,"startTime":79.65503700000001,"endTime":80.0737555,"instrument":7,"program":52},{"pitch":62,"velocity":98,"startTime":80.837301,"endTime":81.26833475,"instrument":7,"program":52},{"pitch":62,"velocity":100,"startTime":82.019565,"endTime":82.446904175,"instrument":7,"program":52},{"pitch":62,"velocity":102,"startTime":83.20182900000002,"endTime":83.645178,"instrument":7,"program":52},{"pitch":62,"velocity":101,"startTime":84.38409300000001,"endTime":84.82374742500001,"instrument":7,"program":52},{"pitch":62,"velocity":94,"startTime":85.56635700000001,"endTime":85.99369617500001,"instrument":7,"program":52},{"pitch":62,"velocity":100,"startTime":86.748621,"endTime":87.1821178,"instrument":7,"program":52},{"pitch":62,"velocity":94,"startTime":87.930885,"endTime":88.34960350000001,"instrument":7,"program":52},{"pitch":62,"velocity":98,"startTime":89.113149,"endTime":89.54418275,"instrument":7,"program":52},{"pitch":62,"velocity":100,"startTime":90.295413,"endTime":90.722752175,"instrument":7,"program":52},{"pitch":62,"velocity":102,"startTime":91.47767700000001,"endTime":91.92102600000001,"instrument":7,"program":52},{"pitch":62,"velocity":101,"startTime":92.659941,"endTime":93.099595425,"instrument":7,"program":52},{"pitch":62,"velocity":94,"startTime":93.842205,"endTime":94.26954417500001,"instrument":7,"program":52},{"pitch":62,"velocity":100,"startTime":95.02446900000001,"endTime":95.4579658,"instrument":7,"program":52},{"pitch":62,"velocity":94,"startTime":96.206733,"endTime":96.62545150000001,"instrument":7,"program":52},{"pitch":62,"velocity":98,"startTime":97.388997,"endTime":97.82003075,"instrument":7,"program":52},{"pitch":62,"velocity":100,"startTime":98.57126099999999,"endTime":98.99860017499999,"instrument":7,"program":52},{"pitch":62,"velocity":102,"startTime":99.753525,"endTime":100.19687400000001,"instrument":7,"program":52},{"pitch":62,"velocity":101,"startTime":100.93578900000001,"endTime":101.375443425,"instrument":7,"program":52},{"pitch":62,"velocity":94,"startTime":102.118053,"endTime":102.545392175,"instrument":7,"program":52},{"pitch":62,"velocity":100,"startTime":103.300317,"endTime":103.73381380000001,"instrument":7,"program":52},{"pitch":62,"velocity":94,"startTime":104.48258100000001,"endTime":104.90129950000001,"instrument":7,"program":52},{"pitch":62,"velocity":98,"startTime":105.664845,"endTime":106.09587875,"instrument":7,"program":52},{"pitch":62,"velocity":100,"startTime":106.847109,"endTime":107.274448175,"instrument":7,"program":52},{"pitch":62,"velocity":102,"startTime":108.02937299999999,"endTime":108.472722,"instrument":7,"program":52},{"pitch":62,"velocity":101,"startTime":109.21163700000001,"endTime":109.651291425,"instrument":7,"program":52},{"pitch":62,"velocity":94,"startTime":110.39390100000001,"endTime":110.82124017500001,"instrument":7,"program":52},{"pitch":62,"velocity":100,"startTime":111.576165,"endTime":112.0096618,"instrument":7,"program":52},{"pitch":62,"velocity":94,"startTime":112.758429,"endTime":113.1771475,"instrument":7,"program":52},{"pitch":62,"velocity":98,"startTime":113.940693,"endTime":114.37172675000001,"instrument":7,"program":52},{"pitch":62,"velocity":100,"startTime":115.122957,"endTime":115.550296175,"instrument":7,"program":52},{"pitch":62,"velocity":102,"startTime":116.305221,"endTime":116.74857,"instrument":7,"program":52},{"pitch":62,"velocity":101,"startTime":117.487485,"endTime":117.92713942500001,"instrument":7,"program":52},{"pitch":62,"velocity":94,"startTime":118.66974900000001,"endTime":119.09708817500001,"instrument":7,"program":52},{"pitch":62,"velocity":100,"startTime":119.85201299999999,"endTime":120.28550979999999,"instrument":7,"program":52},{"pitch":62,"velocity":94,"startTime":121.034277,"endTime":121.4529955,"instrument":7,"program":52},{"pitch":62,"velocity":98,"startTime":122.21654100000002,"endTime":122.64757475,"instrument":7,"program":52},{"pitch":62,"velocity":100,"startTime":123.398805,"endTime":123.826144175,"instrument":7,"program":52},{"pitch":62,"velocity":102,"startTime":124.58106900000001,"endTime":125.024418,"instrument":7,"program":52},{"pitch":62,"velocity":101,"startTime":125.76333299999999,"endTime":126.20298742500002,"instrument":7,"program":52},{"pitch":62,"velocity":94,"startTime":126.945597,"endTime":127.372936175,"instrument":7,"program":52},{"pitch":62,"velocity":100,"startTime":128.127861,"endTime":128.5613578,"instrument":7,"program":52},{"pitch":62,"velocity":94,"startTime":129.310125,"endTime":129.72884349999998,"instrument":7,"program":52},{"pitch":62,"velocity":98,"startTime":130.49238900000003,"endTime":130.92342275000001,"instrument":7,"program":52},{"pitch":62,"velocity":100,"startTime":131.674653,"endTime":132.101992175,"instrument":7,"program":52},{"pitch":62,"velocity":102,"startTime":132.856917,"endTime":133.300266,"instrument":7,"program":52},{"pitch":62,"velocity":101,"startTime":134.03918099999999,"endTime":134.478835425,"instrument":7,"program":52},{"pitch":62,"velocity":94,"startTime":135.22144500000002,"endTime":135.648784175,"instrument":7,"program":52},{"pitch":62,"velocity":100,"startTime":136.403709,"endTime":136.83720580000002,"instrument":7,"program":52},{"pitch":62,"velocity":94,"startTime":137.585973,"endTime":138.0046915,"instrument":7,"program":52},{"pitch":62,"velocity":98,"startTime":138.76823700000003,"endTime":139.19927075,"instrument":7,"program":52},{"pitch":62,"velocity":100,"startTime":139.950501,"endTime":140.377840175,"instrument":7,"program":52},{"pitch":62,"velocity":82,"startTime":141.132765,"endTime":141.576114,"instrument":7,"program":52},{"pitch":62,"velocity":66,"startTime":142.315029,"endTime":142.754683425,"instrument":7,"program":52},{"pitch":62,"velocity":42,"startTime":143.497293,"endTime":143.924632175,"instrument":7,"program":52},{"pitch":62,"velocity":20,"startTime":144.679557,"endTime":145.11305380000002,"instrument":7,"program":52},{"pitch":62,"velocity":9,"startTime":145.861821,"endTime":146.2805395,"instrument":7,"program":52},{"pitch":62,"velocity":1,"startTime":147.04408500000002,"endTime":147.47511875,"instrument":7,"program":52},{"pitch":67,"velocity":82,"startTime":74.630415,"endTime":74.759725125,"instrument":8,"program":75},{"pitch":71,"velocity":81,"startTime":74.630415,"endTime":74.759725125,"instrument":8,"program":75},{"pitch":67,"velocity":74,"startTime":74.778198,"endTime":74.91366575,"instrument":8,"program":75},{"pitch":71,"velocity":78,"startTime":74.778198,"endTime":74.91366575,"instrument":8,"program":75},{"pitch":67,"velocity":81,"startTime":74.92598100000001,"endTime":75.1969165,"instrument":8,"program":75},{"pitch":71,"velocity":74,"startTime":74.92598100000001,"endTime":75.1969165,"instrument":8,"program":75},{"pitch":67,"velocity":61,"startTime":75.221547,"endTime":75.41243337499999,"instrument":8,"program":75},{"pitch":71,"velocity":69,"startTime":75.221547,"endTime":75.41243337499999,"instrument":8,"program":75},{"pitch":67,"velocity":66,"startTime":75.51711300000001,"endTime":75.66120142500002,"instrument":8,"program":75},{"pitch":71,"velocity":77,"startTime":75.51711300000001,"endTime":75.66120142500002,"instrument":8,"program":75},{"pitch":67,"velocity":82,"startTime":75.812679,"endTime":75.941989125,"instrument":8,"program":75},{"pitch":71,"velocity":81,"startTime":75.812679,"endTime":75.941989125,"instrument":8,"program":75},{"pitch":67,"velocity":74,"startTime":75.960462,"endTime":76.09592975,"instrument":8,"program":75},{"pitch":71,"velocity":78,"startTime":75.960462,"endTime":76.09592975,"instrument":8,"program":75},{"pitch":67,"velocity":81,"startTime":76.10824500000001,"endTime":76.3791805,"instrument":8,"program":75},{"pitch":71,"velocity":74,"startTime":76.10824500000001,"endTime":76.3791805,"instrument":8,"program":75},{"pitch":67,"velocity":61,"startTime":76.403811,"endTime":76.594697375,"instrument":8,"program":75},{"pitch":71,"velocity":69,"startTime":76.403811,"endTime":76.594697375,"instrument":8,"program":75},{"pitch":67,"velocity":66,"startTime":76.699377,"endTime":76.84346542500002,"instrument":8,"program":75},{"pitch":71,"velocity":77,"startTime":76.699377,"endTime":76.84346542500002,"instrument":8,"program":75},{"pitch":67,"velocity":82,"startTime":76.994943,"endTime":77.12425312500001,"instrument":8,"program":75},{"pitch":71,"velocity":81,"startTime":76.994943,"endTime":77.12425312500001,"instrument":8,"program":75},{"pitch":67,"velocity":74,"startTime":77.14272600000001,"endTime":77.27819375,"instrument":8,"program":75},{"pitch":71,"velocity":78,"startTime":77.14272600000001,"endTime":77.27819375,"instrument":8,"program":75},{"pitch":67,"velocity":81,"startTime":77.290509,"endTime":77.56144450000002,"instrument":8,"program":75},{"pitch":71,"velocity":74,"startTime":77.290509,"endTime":77.56144450000002,"instrument":8,"program":75},{"pitch":67,"velocity":61,"startTime":77.58607500000001,"endTime":77.776961375,"instrument":8,"program":75},{"pitch":71,"velocity":69,"startTime":77.58607500000001,"endTime":77.776961375,"instrument":8,"program":75},{"pitch":67,"velocity":66,"startTime":77.881641,"endTime":78.02572942500001,"instrument":8,"program":75},{"pitch":71,"velocity":77,"startTime":77.881641,"endTime":78.02572942500001,"instrument":8,"program":75},{"pitch":67,"velocity":82,"startTime":78.17720700000001,"endTime":78.306517125,"instrument":8,"program":75},{"pitch":71,"velocity":81,"startTime":78.17720700000001,"endTime":78.306517125,"instrument":8,"program":75},{"pitch":67,"velocity":74,"startTime":78.32499000000001,"endTime":78.46045774999999,"instrument":8,"program":75},{"pitch":71,"velocity":78,"startTime":78.32499000000001,"endTime":78.46045774999999,"instrument":8,"program":75},{"pitch":67,"velocity":81,"startTime":78.472773,"endTime":78.74370850000001,"instrument":8,"program":75},{"pitch":71,"velocity":74,"startTime":78.472773,"endTime":78.74370850000001,"instrument":8,"program":75},{"pitch":67,"velocity":61,"startTime":78.768339,"endTime":78.959225375,"instrument":8,"program":75},{"pitch":71,"velocity":69,"startTime":78.768339,"endTime":78.959225375,"instrument":8,"program":75},{"pitch":67,"velocity":66,"startTime":79.063905,"endTime":79.20799342500001,"instrument":8,"program":75},{"pitch":71,"velocity":77,"startTime":79.063905,"endTime":79.20799342500001,"instrument":8,"program":75},{"pitch":67,"velocity":82,"startTime":79.35947100000001,"endTime":79.488781125,"instrument":8,"program":75},{"pitch":71,"velocity":81,"startTime":79.35947100000001,"endTime":79.488781125,"instrument":8,"program":75},{"pitch":67,"velocity":74,"startTime":79.507254,"endTime":79.64272174999999,"instrument":8,"program":75},{"pitch":71,"velocity":78,"startTime":79.507254,"endTime":79.64272174999999,"instrument":8,"program":75},{"pitch":67,"velocity":81,"startTime":79.65503700000001,"endTime":79.92597250000001,"instrument":8,"program":75},{"pitch":71,"velocity":74,"startTime":79.65503700000001,"endTime":79.92597250000001,"instrument":8,"program":75},{"pitch":67,"velocity":61,"startTime":79.950603,"endTime":80.141489375,"instrument":8,"program":75},{"pitch":71,"velocity":69,"startTime":79.950603,"endTime":80.141489375,"instrument":8,"program":75},{"pitch":67,"velocity":66,"startTime":80.24616900000001,"endTime":80.390257425,"instrument":8,"program":75},{"pitch":71,"velocity":77,"startTime":80.24616900000001,"endTime":80.390257425,"instrument":8,"program":75},{"pitch":67,"velocity":82,"startTime":80.541735,"endTime":80.67104512499999,"instrument":8,"program":75},{"pitch":71,"velocity":81,"startTime":80.541735,"endTime":80.67104512499999,"instrument":8,"program":75},{"pitch":67,"velocity":74,"startTime":80.689518,"endTime":80.82498575,"instrument":8,"program":75},{"pitch":71,"velocity":78,"startTime":80.689518,"endTime":80.82498575,"instrument":8,"program":75},{"pitch":67,"velocity":81,"startTime":80.837301,"endTime":81.1082365,"instrument":8,"program":75},{"pitch":71,"velocity":74,"startTime":80.837301,"endTime":81.1082365,"instrument":8,"program":75},{"pitch":67,"velocity":61,"startTime":81.132867,"endTime":81.323753375,"instrument":8,"program":75},{"pitch":71,"velocity":69,"startTime":81.132867,"endTime":81.323753375,"instrument":8,"program":75},{"pitch":67,"velocity":66,"startTime":81.42843300000001,"endTime":81.572521425,"instrument":8,"program":75},{"pitch":71,"velocity":77,"startTime":81.42843300000001,"endTime":81.572521425,"instrument":8,"program":75},{"pitch":67,"velocity":82,"startTime":81.723999,"endTime":81.85330912500001,"instrument":8,"program":75},{"pitch":71,"velocity":81,"startTime":81.723999,"endTime":81.85330912500001,"instrument":8,"program":75},{"pitch":67,"velocity":74,"startTime":81.871782,"endTime":82.00724975,"instrument":8,"program":75},{"pitch":71,"velocity":78,"startTime":81.871782,"endTime":82.00724975,"instrument":8,"program":75},{"pitch":67,"velocity":81,"startTime":82.019565,"endTime":82.29050050000001,"instrument":8,"program":75},{"pitch":71,"velocity":74,"startTime":82.019565,"endTime":82.29050050000001,"instrument":8,"program":75},{"pitch":67,"velocity":61,"startTime":82.31513100000001,"endTime":82.506017375,"instrument":8,"program":75},{"pitch":71,"velocity":69,"startTime":82.31513100000001,"endTime":82.506017375,"instrument":8,"program":75},{"pitch":67,"velocity":66,"startTime":82.610697,"endTime":82.75478542500001,"instrument":8,"program":75},{"pitch":71,"velocity":77,"startTime":82.610697,"endTime":82.75478542500001,"instrument":8,"program":75},{"pitch":67,"velocity":82,"startTime":82.906263,"endTime":83.03557312500001,"instrument":8,"program":75},{"pitch":71,"velocity":81,"startTime":82.906263,"endTime":83.03557312500001,"instrument":8,"program":75},{"pitch":67,"velocity":74,"startTime":83.054046,"endTime":83.18951375,"instrument":8,"program":75},{"pitch":71,"velocity":78,"startTime":83.054046,"endTime":83.18951375,"instrument":8,"program":75},{"pitch":67,"velocity":81,"startTime":83.20182900000002,"endTime":83.47276450000001,"instrument":8,"program":75},{"pitch":71,"velocity":74,"startTime":83.20182900000002,"endTime":83.47276450000001,"instrument":8,"program":75},{"pitch":67,"velocity":61,"startTime":83.49739500000001,"endTime":83.688281375,"instrument":8,"program":75},{"pitch":71,"velocity":69,"startTime":83.49739500000001,"endTime":83.688281375,"instrument":8,"program":75},{"pitch":67,"velocity":66,"startTime":83.792961,"endTime":83.93704942500001,"instrument":8,"program":75},{"pitch":71,"velocity":77,"startTime":83.792961,"endTime":83.93704942500001,"instrument":8,"program":75},{"pitch":67,"velocity":82,"startTime":84.088527,"endTime":84.217837125,"instrument":8,"program":75},{"pitch":71,"velocity":81,"startTime":84.088527,"endTime":84.217837125,"instrument":8,"program":75},{"pitch":67,"velocity":74,"startTime":84.23631000000002,"endTime":84.37177775,"instrument":8,"program":75},{"pitch":71,"velocity":78,"startTime":84.23631000000002,"endTime":84.37177775,"instrument":8,"program":75},{"pitch":67,"velocity":81,"startTime":84.38409300000001,"endTime":84.6550285,"instrument":8,"program":75},{"pitch":71,"velocity":74,"startTime":84.38409300000001,"endTime":84.6550285,"instrument":8,"program":75},{"pitch":67,"velocity":61,"startTime":84.679659,"endTime":84.87054537499999,"instrument":8,"program":75},{"pitch":71,"velocity":69,"startTime":84.679659,"endTime":84.87054537499999,"instrument":8,"program":75},{"pitch":67,"velocity":66,"startTime":84.975225,"endTime":85.11931342500002,"instrument":8,"program":75},{"pitch":71,"velocity":77,"startTime":84.975225,"endTime":85.11931342500002,"instrument":8,"program":75},{"pitch":67,"velocity":82,"startTime":85.27079100000002,"endTime":85.400101125,"instrument":8,"program":75},{"pitch":71,"velocity":81,"startTime":85.27079100000002,"endTime":85.400101125,"instrument":8,"program":75},{"pitch":67,"velocity":74,"startTime":85.418574,"endTime":85.55404175,"instrument":8,"program":75},{"pitch":71,"velocity":78,"startTime":85.418574,"endTime":85.55404175,"instrument":8,"program":75},{"pitch":67,"velocity":81,"startTime":85.56635700000001,"endTime":85.83729250000002,"instrument":8,"program":75},{"pitch":71,"velocity":74,"startTime":85.56635700000001,"endTime":85.83729250000002,"instrument":8,"program":75},{"pitch":67,"velocity":61,"startTime":85.861923,"endTime":86.052809375,"instrument":8,"program":75},{"pitch":71,"velocity":69,"startTime":85.861923,"endTime":86.052809375,"instrument":8,"program":75},{"pitch":67,"velocity":66,"startTime":86.157489,"endTime":86.301577425,"instrument":8,"program":75},{"pitch":71,"velocity":77,"startTime":86.157489,"endTime":86.301577425,"instrument":8,"program":75},{"pitch":67,"velocity":82,"startTime":86.453055,"endTime":86.582365125,"instrument":8,"program":75},{"pitch":71,"velocity":81,"startTime":86.453055,"endTime":86.582365125,"instrument":8,"program":75},{"pitch":67,"velocity":74,"startTime":86.60083800000001,"endTime":86.73630575,"instrument":8,"program":75},{"pitch":71,"velocity":78,"startTime":86.60083800000001,"endTime":86.73630575,"instrument":8,"program":75},{"pitch":67,"velocity":81,"startTime":86.748621,"endTime":87.01955650000001,"instrument":8,"program":75},{"pitch":71,"velocity":74,"startTime":86.748621,"endTime":87.01955650000001,"instrument":8,"program":75},{"pitch":67,"velocity":61,"startTime":87.044187,"endTime":87.23507337500001,"instrument":8,"program":75},{"pitch":71,"velocity":69,"startTime":87.044187,"endTime":87.23507337500001,"instrument":8,"program":75},{"pitch":67,"velocity":66,"startTime":87.33975300000002,"endTime":87.48384142500001,"instrument":8,"program":75},{"pitch":71,"velocity":77,"startTime":87.33975300000002,"endTime":87.48384142500001,"instrument":8,"program":75},{"pitch":67,"velocity":82,"startTime":87.63531900000001,"endTime":87.764629125,"instrument":8,"program":75},{"pitch":71,"velocity":81,"startTime":87.63531900000001,"endTime":87.764629125,"instrument":8,"program":75},{"pitch":67,"velocity":74,"startTime":87.783102,"endTime":87.91856974999999,"instrument":8,"program":75},{"pitch":71,"velocity":78,"startTime":87.783102,"endTime":87.91856974999999,"instrument":8,"program":75},{"pitch":67,"velocity":81,"startTime":87.930885,"endTime":88.20182050000001,"instrument":8,"program":75},{"pitch":71,"velocity":74,"startTime":87.930885,"endTime":88.20182050000001,"instrument":8,"program":75},{"pitch":67,"velocity":61,"startTime":88.226451,"endTime":88.417337375,"instrument":8,"program":75},{"pitch":71,"velocity":69,"startTime":88.226451,"endTime":88.417337375,"instrument":8,"program":75},{"pitch":67,"velocity":66,"startTime":88.522017,"endTime":88.66610542500001,"instrument":8,"program":75},{"pitch":71,"velocity":77,"startTime":88.522017,"endTime":88.66610542500001,"instrument":8,"program":75},{"pitch":67,"velocity":82,"startTime":88.817583,"endTime":88.946893125,"instrument":8,"program":75},{"pitch":71,"velocity":81,"startTime":88.817583,"endTime":88.946893125,"instrument":8,"program":75},{"pitch":67,"velocity":74,"startTime":88.965366,"endTime":89.10083374999999,"instrument":8,"program":75},{"pitch":71,"velocity":78,"startTime":88.965366,"endTime":89.10083374999999,"instrument":8,"program":75},{"pitch":67,"velocity":81,"startTime":89.113149,"endTime":89.38408450000001,"instrument":8,"program":75},{"pitch":71,"velocity":74,"startTime":89.113149,"endTime":89.38408450000001,"instrument":8,"program":75},{"pitch":67,"velocity":61,"startTime":89.40871500000002,"endTime":89.599601375,"instrument":8,"program":75},{"pitch":71,"velocity":69,"startTime":89.40871500000002,"endTime":89.599601375,"instrument":8,"program":75},{"pitch":67,"velocity":66,"startTime":89.70428100000001,"endTime":89.848369425,"instrument":8,"program":75},{"pitch":71,"velocity":77,"startTime":89.70428100000001,"endTime":89.848369425,"instrument":8,"program":75},{"pitch":67,"velocity":82,"startTime":89.999847,"endTime":90.129157125,"instrument":8,"program":75},{"pitch":71,"velocity":81,"startTime":89.999847,"endTime":90.129157125,"instrument":8,"program":75},{"pitch":67,"velocity":74,"startTime":90.14763,"endTime":90.28309775000001,"instrument":8,"program":75},{"pitch":71,"velocity":78,"startTime":90.14763,"endTime":90.28309775000001,"instrument":8,"program":75},{"pitch":67,"velocity":81,"startTime":90.295413,"endTime":90.5663485,"instrument":8,"program":75},{"pitch":71,"velocity":74,"startTime":90.295413,"endTime":90.5663485,"instrument":8,"program":75},{"pitch":67,"velocity":61,"startTime":90.590979,"endTime":90.781865375,"instrument":8,"program":75},{"pitch":71,"velocity":69,"startTime":90.590979,"endTime":90.781865375,"instrument":8,"program":75},{"pitch":67,"velocity":66,"startTime":90.886545,"endTime":91.030633425,"instrument":8,"program":75},{"pitch":71,"velocity":77,"startTime":90.886545,"endTime":91.030633425,"instrument":8,"program":75},{"pitch":67,"velocity":66,"startTime":91.182111,"endTime":91.31142112500001,"instrument":8,"program":75},{"pitch":71,"velocity":65,"startTime":91.182111,"endTime":91.31142112500001,"instrument":8,"program":75},{"pitch":67,"velocity":59,"startTime":91.329894,"endTime":91.46536175,"instrument":8,"program":75},{"pitch":71,"velocity":62,"startTime":91.329894,"endTime":91.46536175,"instrument":8,"program":75},{"pitch":67,"velocity":65,"startTime":91.47767700000001,"endTime":91.74861250000001,"instrument":8,"program":75},{"pitch":71,"velocity":59,"startTime":91.47767700000001,"endTime":91.74861250000001,"instrument":8,"program":75},{"pitch":67,"velocity":49,"startTime":91.77324300000001,"endTime":91.964129375,"instrument":8,"program":75},{"pitch":71,"velocity":55,"startTime":91.77324300000001,"endTime":91.964129375,"instrument":8,"program":75},{"pitch":67,"velocity":53,"startTime":92.068809,"endTime":92.21289742500001,"instrument":8,"program":75},{"pitch":71,"velocity":62,"startTime":92.068809,"endTime":92.21289742500001,"instrument":8,"program":75},{"pitch":67,"velocity":49,"startTime":92.364375,"endTime":92.49368512500001,"instrument":8,"program":75},{"pitch":71,"velocity":49,"startTime":92.364375,"endTime":92.49368512500001,"instrument":8,"program":75},{"pitch":67,"velocity":44,"startTime":92.51215800000001,"endTime":92.64762575,"instrument":8,"program":75},{"pitch":71,"velocity":47,"startTime":92.51215800000001,"endTime":92.64762575,"instrument":8,"program":75},{"pitch":67,"velocity":49,"startTime":92.659941,"endTime":92.9308765,"instrument":8,"program":75},{"pitch":71,"velocity":44,"startTime":92.659941,"endTime":92.9308765,"instrument":8,"program":75},{"pitch":67,"velocity":37,"startTime":92.95550700000001,"endTime":93.146393375,"instrument":8,"program":75},{"pitch":71,"velocity":41,"startTime":92.95550700000001,"endTime":93.146393375,"instrument":8,"program":75},{"pitch":67,"velocity":40,"startTime":93.251073,"endTime":93.39516142500001,"instrument":8,"program":75},{"pitch":71,"velocity":46,"startTime":93.251073,"endTime":93.39516142500001,"instrument":8,"program":75},{"pitch":67,"velocity":33,"startTime":93.54663900000001,"endTime":93.675949125,"instrument":8,"program":75},{"pitch":71,"velocity":32,"startTime":93.54663900000001,"endTime":93.675949125,"instrument":8,"program":75},{"pitch":67,"velocity":30,"startTime":93.694422,"endTime":93.82988974999999,"instrument":8,"program":75},{"pitch":71,"velocity":31,"startTime":93.694422,"endTime":93.82988974999999,"instrument":8,"program":75},{"pitch":67,"velocity":32,"startTime":93.842205,"endTime":94.11314050000001,"instrument":8,"program":75},{"pitch":71,"velocity":30,"startTime":93.842205,"endTime":94.11314050000001,"instrument":8,"program":75},{"pitch":67,"velocity":24,"startTime":94.137771,"endTime":94.32865737499999,"instrument":8,"program":75},{"pitch":71,"velocity":28,"startTime":94.137771,"endTime":94.32865737499999,"instrument":8,"program":75},{"pitch":67,"velocity":26,"startTime":94.433337,"endTime":94.57742542500002,"instrument":8,"program":75},{"pitch":71,"velocity":31,"startTime":94.433337,"endTime":94.57742542500002,"instrument":8,"program":75},{"pitch":46,"velocity":80,"endTime":0.05541862500000109,"instrument":9,"isDrum":true},{"pitch":36,"velocity":120,"endTime":0.03694574999999946,"instrument":9,"isDrum":true},{"pitch":44,"velocity":124,"startTime":0.29556599999999944,"endTime":0.4125608749999984,"instrument":9,"isDrum":true},{"pitch":38,"velocity":128,"startTime":0.29556599999999944,"endTime":0.3571422499999973,"instrument":9,"isDrum":true},{"pitch":44,"velocity":128,"startTime":0.4433490000000011,"endTime":0.4987676249999984,"instrument":9,"isDrum":true},{"pitch":40,"velocity":100,"startTime":0.5110828750000033,"endTime":0.5480286250000027,"instrument":9,"isDrum":true},{"pitch":44,"velocity":124,"startTime":0.5911319999999989,"endTime":0.6280777499999984,"instrument":9,"isDrum":true},{"pitch":44,"velocity":125,"startTime":0.7389150000000005,"endTime":0.772166174999999,"instrument":9,"isDrum":true},{"pitch":44,"velocity":126,"startTime":0.8866979999999984,"endTime":0.9236437500000017,"instrument":9,"isDrum":true},{"pitch":38,"velocity":128,"startTime":0.8866979999999984,"endTime":0.9605895000000011,"instrument":9,"isDrum":true},{"pitch":46,"velocity":80,"startTime":1.034481,"endTime":1.089899625000001,"instrument":9,"isDrum":true},{"pitch":36,"velocity":120,"startTime":1.034481,"endTime":1.089899625000001,"instrument":9,"isDrum":true},{"pitch":46,"velocity":80,"startTime":1.1822640000000018,"endTime":1.237682624999999,"instrument":9,"isDrum":true},{"pitch":36,"velocity":120,"startTime":1.1822640000000018,"endTime":1.249997875,"instrument":9,"isDrum":true},{"pitch":38,"velocity":128,"startTime":1.477830000000001,"endTime":1.5270910000000018,"instrument":9,"isDrum":true},{"pitch":44,"velocity":121,"startTime":1.6256129999999989,"endTime":1.6564011250000017,"instrument":9,"isDrum":true},{"pitch":44,"velocity":124,"startTime":1.7733960000000006,"endTime":1.8164993749999967,"instrument":9,"isDrum":true},{"pitch":38,"velocity":128,"startTime":2.068962,"endTime":2.1366958750000022,"instrument":9,"isDrum":true},{"pitch":46,"velocity":80,"startTime":2.3645279999999995,"endTime":2.4199466250000006,"instrument":9,"isDrum":true},{"pitch":36,"velocity":120,"startTime":2.3645279999999995,"endTime":2.401473749999999,"instrument":9,"isDrum":true},{"pitch":44,"velocity":124,"startTime":2.660093999999999,"endTime":2.777088874999998,"instrument":9,"isDrum":true},{"pitch":38,"velocity":128,"startTime":2.660093999999999,"endTime":2.7216702499999967,"instrument":9,"isDrum":true},{"pitch":44,"velocity":128,"startTime":2.807877000000001,"endTime":2.863295625000002,"instrument":9,"isDrum":true},{"pitch":40,"velocity":100,"startTime":2.8756108750000027,"endTime":2.9125566250000023,"instrument":9,"isDrum":true},{"pitch":44,"velocity":124,"startTime":2.9556599999999986,"endTime":2.992605750000002,"instrument":9,"isDrum":true},{"pitch":44,"velocity":125,"startTime":3.103443,"endTime":3.1366941749999984,"instrument":9,"isDrum":true},{"pitch":44,"velocity":126,"startTime":3.2512260000000017,"endTime":3.2881717500000014,"instrument":9,"isDrum":true},{"pitch":38,"velocity":128,"startTime":3.2512260000000017,"endTime":3.3251175000000006,"instrument":9,"isDrum":true},{"pitch":36,"velocity":120,"startTime":3.3990089999999995,"endTime":3.4544276250000006,"instrument":9,"isDrum":true},{"pitch":46,"velocity":80,"startTime":3.3990089999999995,"endTime":3.4544276250000006,"instrument":9,"isDrum":true},{"pitch":46,"velocity":80,"startTime":3.5467920000000013,"endTime":3.6022106249999983,"instrument":9,"isDrum":true},{"pitch":36,"velocity":120,"startTime":3.5467920000000013,"endTime":3.6145258749999996,"instrument":9,"isDrum":true},{"pitch":38,"velocity":128,"startTime":3.842358000000001,"endTime":3.8916190000000013,"instrument":9,"isDrum":true},{"pitch":44,"velocity":121,"startTime":3.9901409999999986,"endTime":4.020929125000001,"instrument":9,"isDrum":true},{"pitch":44,"velocity":124,"startTime":4.137924,"endTime":4.181027375,"instrument":9,"isDrum":true},{"pitch":44,"velocity":128,"startTime":4.285707000000002,"endTime":4.403933400000002,"instrument":9,"isDrum":true},{"pitch":44,"velocity":128,"startTime":4.43349,"endTime":4.6699428,"instrument":9,"isDrum":true},{"pitch":38,"velocity":128,"startTime":4.43349,"endTime":4.501223875000002,"instrument":9,"isDrum":true},{"pitch":46,"velocity":80,"startTime":4.729055999999999,"endTime":4.7844746250000005,"instrument":9,"isDrum":true},{"pitch":36,"velocity":120,"startTime":4.729055999999999,"endTime":4.766001749999998,"instrument":9,"isDrum":true},{"pitch":44,"velocity":124,"startTime":5.024621999999998,"endTime":5.141616874999998,"instrument":9,"isDrum":true},{"pitch":38,"velocity":128,"startTime":5.024621999999998,"endTime":5.08619825,"instrument":9,"isDrum":true},{"pitch":44,"velocity":128,"startTime":5.172405,"endTime":5.227823625000001,"instrument":9,"isDrum":true},{"pitch":40,"velocity":100,"startTime":5.240138875000002,"endTime":5.277084625000001,"instrument":9,"isDrum":true},{"pitch":44,"velocity":124,"startTime":5.320188000000002,"endTime":5.357133750000001,"instrument":9,"isDrum":true},{"pitch":44,"velocity":125,"startTime":5.4679709999999995,"endTime":5.501222174999998,"instrument":9,"isDrum":true},{"pitch":44,"velocity":126,"startTime":5.615754000000002,"endTime":5.652699750000001,"instrument":9,"isDrum":true},{"pitch":38,"velocity":128,"startTime":5.615754000000002,"endTime":5.6896455,"instrument":9,"isDrum":true},{"pitch":36,"velocity":120,"startTime":5.7635369999999995,"endTime":5.818955625,"instrument":9,"isDrum":true},{"pitch":46,"velocity":80,"startTime":5.7635369999999995,"endTime":5.818955625,"instrument":9,"isDrum":true},{"pitch":46,"velocity":80,"startTime":5.911320000000001,"endTime":5.966738625000001,"instrument":9,"isDrum":true},{"pitch":36,"velocity":120,"startTime":5.911320000000001,"endTime":5.979053875000003,"instrument":9,"isDrum":true},{"pitch":38,"velocity":128,"startTime":6.206886,"endTime":6.256147,"instrument":9,"isDrum":true},{"pitch":44,"velocity":121,"startTime":6.354669000000002,"endTime":6.385457125000001,"instrument":9,"isDrum":true},{"pitch":44,"velocity":124,"startTime":6.502452,"endTime":6.545555374999999,"instrument":9,"isDrum":true},{"pitch":38,"velocity":128,"startTime":6.798017999999999,"endTime":6.865751875000002,"instrument":9,"isDrum":true},{"pitch":36,"velocity":120,"startTime":6.945801,"endTime":7.001219625000002,"instrument":9,"isDrum":true},{"pitch":46,"velocity":80,"startTime":6.945801,"endTime":7.001219625000002,"instrument":9,"isDrum":true},{"pitch":46,"velocity":80,"startTime":7.093583999999999,"endTime":7.149002625,"instrument":9,"isDrum":true},{"pitch":36,"velocity":120,"startTime":7.093583999999999,"endTime":7.130529750000002,"instrument":9,"isDrum":true},{"pitch":44,"velocity":124,"startTime":7.389150000000002,"endTime":7.506144874999997,"instrument":9,"isDrum":true},{"pitch":38,"velocity":128,"startTime":7.389150000000002,"endTime":7.45072625,"instrument":9,"isDrum":true},{"pitch":44,"velocity":128,"startTime":7.536932999999999,"endTime":7.592351625000001,"instrument":9,"isDrum":true},{"pitch":40,"velocity":100,"startTime":7.604666875000002,"endTime":7.641612625000001,"instrument":9,"isDrum":true},{"pitch":44,"velocity":124,"startTime":7.684716000000002,"endTime":7.721661750000001,"instrument":9,"isDrum":true},{"pitch":44,"velocity":125,"startTime":7.832498999999999,"endTime":7.865750174999998,"instrument":9,"isDrum":true},{"pitch":44,"velocity":126,"startTime":7.980282000000001,"endTime":8.01722775,"instrument":9,"isDrum":true},{"pitch":38,"velocity":128,"startTime":7.980282000000001,"endTime":8.0541735,"instrument":9,"isDrum":true},{"pitch":36,"velocity":120,"startTime":8.128065,"endTime":8.183483625,"instrument":9,"isDrum":true},{"pitch":46,"velocity":80,"startTime":8.128065,"endTime":8.183483625,"instrument":9,"isDrum":true},{"pitch":46,"velocity":80,"startTime":8.275848,"endTime":8.331266625000001,"instrument":9,"isDrum":true},{"pitch":36,"velocity":120,"startTime":8.275848,"endTime":8.343581875000002,"instrument":9,"isDrum":true},{"pitch":38,"velocity":128,"startTime":8.571413999999999,"endTime":8.620675,"instrument":9,"isDrum":true},{"pitch":44,"velocity":121,"startTime":8.719197000000001,"endTime":8.749985125,"instrument":9,"isDrum":true},{"pitch":44,"velocity":124,"startTime":8.86698,"endTime":8.910083375,"instrument":9,"isDrum":true},{"pitch":38,"velocity":128,"startTime":9.162545999999999,"endTime":9.230279875,"instrument":9,"isDrum":true},{"pitch":46,"velocity":80,"startTime":9.458112000000002,"endTime":9.513530625,"instrument":9,"isDrum":true},{"pitch":36,"velocity":120,"startTime":9.458112000000002,"endTime":9.49505775,"instrument":9,"isDrum":true},{"pitch":44,"velocity":124,"startTime":9.753678,"endTime":9.870672875,"instrument":9,"isDrum":true},{"pitch":38,"velocity":128,"startTime":9.753678,"endTime":9.815254249999999,"instrument":9,"isDrum":true},{"pitch":44,"velocity":128,"startTime":9.901461,"endTime":9.956879625000001,"instrument":9,"isDrum":true},{"pitch":40,"velocity":100,"startTime":9.969194875000001,"endTime":10.006140625,"instrument":9,"isDrum":true},{"pitch":44,"velocity":124,"startTime":10.049244000000002,"endTime":10.08618975,"instrument":9,"isDrum":true},{"pitch":44,"velocity":125,"startTime":10.197026999999999,"endTime":10.230278175,"instrument":9,"isDrum":true},{"pitch":44,"velocity":126,"startTime":10.34481,"endTime":10.38175575,"instrument":9,"isDrum":true},{"pitch":38,"velocity":128,"startTime":10.34481,"endTime":10.4187015,"instrument":9,"isDrum":true},{"pitch":46,"velocity":80,"startTime":10.492592999999998,"endTime":10.548011625,"instrument":9,"isDrum":true},{"pitch":36,"velocity":120,"startTime":10.492592999999998,"endTime":10.548011625,"instrument":9,"isDrum":true},{"pitch":46,"velocity":80,"startTime":10.640376,"endTime":10.695794625000001,"instrument":9,"isDrum":true},{"pitch":36,"velocity":120,"startTime":10.640376,"endTime":10.708109875000002,"instrument":9,"isDrum":true},{"pitch":38,"velocity":128,"startTime":10.935941999999999,"endTime":10.985203,"instrument":9,"isDrum":true},{"pitch":44,"velocity":121,"startTime":11.083725000000001,"endTime":11.114513125,"instrument":9,"isDrum":true},{"pitch":44,"velocity":124,"startTime":11.231507999999998,"endTime":11.274611375,"instrument":9,"isDrum":true},{"pitch":38,"velocity":128,"startTime":11.527073999999999,"endTime":11.594807875,"instrument":9,"isDrum":true},{"pitch":46,"velocity":80,"startTime":11.822640000000002,"endTime":11.878058625,"instrument":9,"isDrum":true},{"pitch":36,"velocity":120,"startTime":11.822640000000002,"endTime":11.85958575,"instrument":9,"isDrum":true},{"pitch":44,"velocity":124,"startTime":12.118206,"endTime":12.235200875,"instrument":9,"isDrum":true},{"pitch":38,"velocity":128,"startTime":12.118206,"endTime":12.179782249999999,"instrument":9,"isDrum":true},{"pitch":44,"velocity":128,"startTime":12.265989,"endTime":12.321407624999999,"instrument":9,"isDrum":true},{"pitch":40,"velocity":100,"startTime":12.333722875000001,"endTime":12.370668625,"instrument":9,"isDrum":true},{"pitch":44,"velocity":124,"startTime":12.413772,"endTime":12.450717749999999,"instrument":9,"isDrum":true},{"pitch":44,"velocity":125,"startTime":12.561554999999998,"endTime":12.594806175,"instrument":9,"isDrum":true},{"pitch":44,"velocity":126,"startTime":12.709338,"endTime":12.74628375,"instrument":9,"isDrum":true},{"pitch":38,"velocity":128,"startTime":12.709338,"endTime":12.7832295,"instrument":9,"isDrum":true},{"pitch":36,"velocity":120,"startTime":12.857121000000001,"endTime":12.912539624999999,"instrument":9,"isDrum":true},{"pitch":46,"velocity":80,"startTime":12.857121000000001,"endTime":12.912539624999999,"instrument":9,"isDrum":true},{"pitch":46,"velocity":80,"startTime":13.004904,"endTime":13.060322625000001,"instrument":9,"isDrum":true},{"pitch":36,"velocity":120,"startTime":13.004904,"endTime":13.072637875000002,"instrument":9,"isDrum":true},{"pitch":38,"velocity":128,"startTime":13.300469999999999,"endTime":13.349731000000004,"instrument":9,"isDrum":true},{"pitch":44,"velocity":121,"startTime":13.448253000000001,"endTime":13.479041125000004,"instrument":9,"isDrum":true},{"pitch":44,"velocity":124,"startTime":13.596035999999998,"endTime":13.639139374999997,"instrument":9,"isDrum":true},{"pitch":44,"velocity":128,"startTime":13.743819,"endTime":13.862045400000001,"instrument":9,"isDrum":true},{"pitch":44,"velocity":128,"startTime":13.891602,"endTime":14.1280548,"instrument":9,"isDrum":true},{"pitch":38,"velocity":128,"startTime":13.891602,"endTime":13.959335875,"instrument":9,"isDrum":true},{"pitch":46,"velocity":80,"startTime":14.187168000000002,"endTime":14.242586624999998,"instrument":9,"isDrum":true},{"pitch":36,"velocity":120,"startTime":14.187168000000002,"endTime":14.22411375,"instrument":9,"isDrum":true},{"pitch":44,"velocity":124,"startTime":14.482734,"endTime":14.599728875,"instrument":9,"isDrum":true},{"pitch":38,"velocity":128,"startTime":14.482734,"endTime":14.544310249999999,"instrument":9,"isDrum":true},{"pitch":44,"velocity":128,"startTime":14.630516999999998,"endTime":14.685935624999999,"instrument":9,"isDrum":true},{"pitch":40,"velocity":100,"startTime":14.698250875000001,"endTime":14.735196625,"instrument":9,"isDrum":true},{"pitch":44,"velocity":124,"startTime":14.7783,"endTime":14.815245749999999,"instrument":9,"isDrum":true},{"pitch":44,"velocity":125,"startTime":14.926083000000002,"endTime":14.959334175,"instrument":9,"isDrum":true},{"pitch":44,"velocity":126,"startTime":15.073865999999999,"endTime":15.110811749999998,"instrument":9,"isDrum":true},{"pitch":38,"velocity":128,"startTime":15.073865999999999,"endTime":15.147757499999999,"instrument":9,"isDrum":true},{"pitch":36,"velocity":120,"startTime":15.221649000000001,"endTime":15.277067624999999,"instrument":9,"isDrum":true},{"pitch":46,"velocity":80,"startTime":15.221649000000001,"endTime":15.277067624999999,"instrument":9,"isDrum":true},{"pitch":46,"velocity":80,"startTime":15.369432,"endTime":15.424850625,"instrument":9,"isDrum":true},{"pitch":36,"velocity":120,"startTime":15.369432,"endTime":15.437165875000002,"instrument":9,"isDrum":true},{"pitch":38,"velocity":128,"startTime":15.664998000000002,"endTime":15.714258999999998,"instrument":9,"isDrum":true},{"pitch":44,"velocity":121,"startTime":15.812781,"endTime":15.843569124999998,"instrument":9,"isDrum":true},{"pitch":44,"velocity":124,"startTime":15.960563999999998,"endTime":16.003667375,"instrument":9,"isDrum":true},{"pitch":38,"velocity":128,"startTime":16.256130000000002,"endTime":16.323863875000004,"instrument":9,"isDrum":true},{"pitch":36,"velocity":120,"startTime":16.403913,"endTime":16.459331625,"instrument":9,"isDrum":true},{"pitch":46,"velocity":80,"startTime":16.403913,"endTime":16.459331625,"instrument":9,"isDrum":true},{"pitch":46,"velocity":80,"startTime":16.551695999999996,"endTime":16.607114624999998,"instrument":9,"isDrum":true},{"pitch":36,"velocity":120,"startTime":16.551695999999996,"endTime":16.58864175,"instrument":9,"isDrum":true},{"pitch":44,"velocity":124,"startTime":16.847262,"endTime":16.964256875,"instrument":9,"isDrum":true},{"pitch":38,"velocity":128,"startTime":16.847262,"endTime":16.90883825,"instrument":9,"isDrum":true},{"pitch":44,"velocity":128,"startTime":16.995044999999998,"endTime":17.050463625,"instrument":9,"isDrum":true},{"pitch":40,"velocity":100,"startTime":17.062778875,"endTime":17.099724625000004,"instrument":9,"isDrum":true},{"pitch":44,"velocity":124,"startTime":17.142828000000005,"endTime":17.17977375,"instrument":9,"isDrum":true},{"pitch":44,"velocity":125,"startTime":17.290611000000002,"endTime":17.323862174999995,"instrument":9,"isDrum":true},{"pitch":44,"velocity":126,"startTime":17.438394,"endTime":17.475339750000003,"instrument":9,"isDrum":true},{"pitch":38,"velocity":128,"startTime":17.438394,"endTime":17.512285499999997,"instrument":9,"isDrum":true},{"pitch":36,"velocity":120,"startTime":17.586176999999996,"endTime":17.641595624999997,"instrument":9,"isDrum":true},{"pitch":46,"velocity":80,"startTime":17.586176999999996,"endTime":17.641595624999997,"instrument":9,"isDrum":true},{"pitch":46,"velocity":80,"startTime":17.733960000000003,"endTime":17.789378625000005,"instrument":9,"isDrum":true},{"pitch":36,"velocity":120,"startTime":17.733960000000003,"endTime":17.801693875000005,"instrument":9,"isDrum":true},{"pitch":38,"velocity":128,"startTime":18.029525999999997,"endTime":18.078787000000002,"instrument":9,"isDrum":true},{"pitch":44,"velocity":121,"startTime":18.177309000000005,"endTime":18.208097125000002,"instrument":9,"isDrum":true},{"pitch":44,"velocity":124,"startTime":18.325092,"endTime":18.368195375000003,"instrument":9,"isDrum":true},{"pitch":38,"velocity":128,"startTime":18.620657999999995,"endTime":18.688391875,"instrument":9,"isDrum":true},{"pitch":46,"velocity":80,"startTime":18.916224,"endTime":18.971642625,"instrument":9,"isDrum":true},{"pitch":36,"velocity":120,"startTime":18.916224,"endTime":18.953169750000004,"instrument":9,"isDrum":true},{"pitch":44,"velocity":124,"startTime":19.211790000000004,"endTime":19.328784875000004,"instrument":9,"isDrum":true},{"pitch":38,"velocity":128,"startTime":19.211790000000004,"endTime":19.273366250000002,"instrument":9,"isDrum":true},{"pitch":44,"velocity":128,"startTime":19.359573,"endTime":19.414991625000003,"instrument":9,"isDrum":true},{"pitch":40,"velocity":100,"startTime":19.427306874999996,"endTime":19.464252625,"instrument":9,"isDrum":true},{"pitch":44,"velocity":124,"startTime":19.507355999999998,"endTime":19.544301750000002,"instrument":9,"isDrum":true},{"pitch":44,"velocity":125,"startTime":19.655139,"endTime":19.688390175000006,"instrument":9,"isDrum":true},{"pitch":44,"velocity":126,"startTime":19.802922000000002,"endTime":19.839867749999996,"instrument":9,"isDrum":true},{"pitch":38,"velocity":128,"startTime":19.802922000000002,"endTime":19.8768135,"instrument":9,"isDrum":true},{"pitch":46,"velocity":80,"startTime":19.950705,"endTime":20.006123625,"instrument":9,"isDrum":true},{"pitch":36,"velocity":120,"startTime":19.950705,"endTime":20.006123625,"instrument":9,"isDrum":true},{"pitch":46,"velocity":80,"startTime":20.098488,"endTime":20.153906624999998,"instrument":9,"isDrum":true},{"pitch":36,"velocity":120,"startTime":20.098488,"endTime":20.166221875,"instrument":9,"isDrum":true},{"pitch":38,"velocity":128,"startTime":20.394054,"endTime":20.443315,"instrument":9,"isDrum":true},{"pitch":44,"velocity":121,"startTime":20.541836999999997,"endTime":20.572625125,"instrument":9,"isDrum":true},{"pitch":44,"velocity":124,"startTime":20.689619999999998,"endTime":20.732723375000006,"instrument":9,"isDrum":true},{"pitch":38,"velocity":128,"startTime":20.985186,"endTime":21.052919874999994,"instrument":9,"isDrum":true},{"pitch":46,"velocity":80,"startTime":21.280752000000003,"endTime":21.336170624999998,"instrument":9,"isDrum":true},{"pitch":36,"velocity":120,"startTime":21.280752000000003,"endTime":21.31769775,"instrument":9,"isDrum":true},{"pitch":44,"velocity":124,"startTime":21.576318,"endTime":21.693312875000007,"instrument":9,"isDrum":true},{"pitch":38,"velocity":128,"startTime":21.576318,"endTime":21.637894250000006,"instrument":9,"isDrum":true},{"pitch":44,"velocity":128,"startTime":21.724100999999997,"endTime":21.779519625,"instrument":9,"isDrum":true},{"pitch":40,"velocity":100,"startTime":21.791834875,"endTime":21.828780624999993,"instrument":9,"isDrum":true},{"pitch":44,"velocity":124,"startTime":21.871884,"endTime":21.90882975,"instrument":9,"isDrum":true},{"pitch":44,"velocity":125,"startTime":22.019667000000002,"endTime":22.052918175000002,"instrument":9,"isDrum":true},{"pitch":44,"velocity":126,"startTime":22.16745,"endTime":22.20439575,"instrument":9,"isDrum":true},{"pitch":38,"velocity":128,"startTime":22.16745,"endTime":22.241341499999997,"instrument":9,"isDrum":true},{"pitch":36,"velocity":120,"startTime":22.315233000000003,"endTime":22.370651624999997,"instrument":9,"isDrum":true},{"pitch":46,"velocity":80,"startTime":22.315233000000003,"endTime":22.370651624999997,"instrument":9,"isDrum":true},{"pitch":46,"velocity":80,"startTime":22.463016,"endTime":22.518434625,"instrument":9,"isDrum":true},{"pitch":36,"velocity":120,"startTime":22.463016,"endTime":22.530749874999994,"instrument":9,"isDrum":true},{"pitch":38,"velocity":128,"startTime":22.758581999999997,"endTime":22.807842999999995,"instrument":9,"isDrum":true},{"pitch":44,"velocity":121,"startTime":22.906365,"endTime":22.937153124999995,"instrument":9,"isDrum":true},{"pitch":44,"velocity":124,"startTime":23.054148,"endTime":23.097251375,"instrument":9,"isDrum":true},{"pitch":44,"velocity":128,"startTime":23.201931,"endTime":23.320157400000003,"instrument":9,"isDrum":true},{"pitch":44,"velocity":128,"startTime":23.349714000000002,"endTime":23.586166800000004,"instrument":9,"isDrum":true},{"pitch":38,"velocity":128,"startTime":23.349714000000002,"endTime":23.417447874999997,"instrument":9,"isDrum":true},{"pitch":46,"velocity":80,"startTime":23.64528,"endTime":23.700698625,"instrument":9,"isDrum":true},{"pitch":36,"velocity":120,"startTime":23.64528,"endTime":23.682225750000004,"instrument":9,"isDrum":true},{"pitch":44,"velocity":124,"startTime":23.940846000000004,"endTime":24.057840875,"instrument":9,"isDrum":true},{"pitch":38,"velocity":128,"startTime":23.940846000000004,"endTime":24.00242225,"instrument":9,"isDrum":true},{"pitch":44,"velocity":128,"startTime":24.088629,"endTime":24.144047625000002,"instrument":9,"isDrum":true},{"pitch":40,"velocity":100,"startTime":24.156362874999996,"endTime":24.193308624999997,"instrument":9,"isDrum":true},{"pitch":44,"velocity":124,"startTime":24.236411999999998,"endTime":24.273357750000002,"instrument":9,"isDrum":true},{"pitch":44,"velocity":125,"startTime":24.384195000000002,"endTime":24.417446175000006,"instrument":9,"isDrum":true},{"pitch":44,"velocity":126,"startTime":24.531978000000002,"endTime":24.568923749999996,"instrument":9,"isDrum":true},{"pitch":38,"velocity":128,"startTime":24.531978000000002,"endTime":24.6058695,"instrument":9,"isDrum":true},{"pitch":36,"velocity":120,"startTime":24.679761,"endTime":24.735179625,"instrument":9,"isDrum":true},{"pitch":46,"velocity":80,"startTime":24.679761,"endTime":24.735179625,"instrument":9,"isDrum":true},{"pitch":46,"velocity":80,"startTime":24.827543999999996,"endTime":24.882962624999998,"instrument":9,"isDrum":true},{"pitch":36,"velocity":120,"startTime":24.827543999999996,"endTime":24.895277874999998,"instrument":9,"isDrum":true},{"pitch":38,"velocity":128,"startTime":25.12311,"endTime":25.172371,"instrument":9,"isDrum":true},{"pitch":44,"velocity":121,"startTime":25.270892999999997,"endTime":25.301681124999998,"instrument":9,"isDrum":true},{"pitch":44,"velocity":124,"startTime":25.418676000000005,"endTime":25.461779375000003,"instrument":9,"isDrum":true},{"pitch":38,"velocity":128,"startTime":25.714242,"endTime":25.781975874999993,"instrument":9,"isDrum":true},{"pitch":36,"velocity":120,"startTime":25.862024999999996,"endTime":25.917443624999997,"instrument":9,"isDrum":true},{"pitch":46,"velocity":80,"startTime":25.862024999999996,"endTime":25.917443624999997,"instrument":9,"isDrum":true},{"pitch":46,"velocity":80,"startTime":26.009808000000003,"endTime":26.065226625000005,"instrument":9,"isDrum":true},{"pitch":36,"velocity":120,"startTime":26.009808000000003,"endTime":26.046753749999997,"instrument":9,"isDrum":true},{"pitch":44,"velocity":124,"startTime":26.305373999999997,"endTime":26.422368875000004,"instrument":9,"isDrum":true},{"pitch":38,"velocity":128,"startTime":26.305373999999997,"endTime":26.366950250000002,"instrument":9,"isDrum":true},{"pitch":44,"velocity":128,"startTime":26.453157000000004,"endTime":26.508575624999995,"instrument":9,"isDrum":true},{"pitch":40,"velocity":100,"startTime":26.520890875,"endTime":26.557836624999993,"instrument":9,"isDrum":true},{"pitch":44,"velocity":124,"startTime":26.60094,"endTime":26.63788575,"instrument":9,"isDrum":true},{"pitch":44,"velocity":125,"startTime":26.748723,"endTime":26.781974175000002,"instrument":9,"isDrum":true},{"pitch":44,"velocity":126,"startTime":26.896506,"endTime":26.93345175,"instrument":9,"isDrum":true},{"pitch":38,"velocity":128,"startTime":26.896506,"endTime":26.970397500000004,"instrument":9,"isDrum":true},{"pitch":36,"velocity":120,"startTime":27.044289000000003,"endTime":27.099707625000004,"instrument":9,"isDrum":true},{"pitch":46,"velocity":80,"startTime":27.044289000000003,"endTime":27.099707625000004,"instrument":9,"isDrum":true},{"pitch":46,"velocity":80,"startTime":27.192072,"endTime":27.247490625,"instrument":9,"isDrum":true},{"pitch":36,"velocity":120,"startTime":27.192072,"endTime":27.259805874999994,"instrument":9,"isDrum":true},{"pitch":38,"velocity":128,"startTime":27.487638000000004,"endTime":27.536899000000002,"instrument":9,"isDrum":true},{"pitch":44,"velocity":121,"startTime":27.635421,"endTime":27.666209125,"instrument":9,"isDrum":true},{"pitch":44,"velocity":124,"startTime":27.783203999999998,"endTime":27.826307375,"instrument":9,"isDrum":true},{"pitch":38,"velocity":128,"startTime":28.078770000000002,"endTime":28.146503874999997,"instrument":9,"isDrum":true},{"pitch":46,"velocity":80,"startTime":28.374336,"endTime":28.429754625,"instrument":9,"isDrum":true},{"pitch":36,"velocity":120,"startTime":28.374336,"endTime":28.41128175,"instrument":9,"isDrum":true},{"pitch":44,"velocity":124,"startTime":28.669902,"endTime":28.786896875,"instrument":9,"isDrum":true},{"pitch":38,"velocity":128,"startTime":28.669902,"endTime":28.73147825,"instrument":9,"isDrum":true},{"pitch":44,"velocity":128,"startTime":28.817685,"endTime":28.873103625,"instrument":9,"isDrum":true},{"pitch":40,"velocity":100,"startTime":28.885418874999996,"endTime":28.922364624999997,"instrument":9,"isDrum":true},{"pitch":44,"velocity":124,"startTime":28.965467999999998,"endTime":29.00241375,"instrument":9,"isDrum":true},{"pitch":44,"velocity":125,"startTime":29.113251,"endTime":29.146502175000006,"instrument":9,"isDrum":true},{"pitch":44,"velocity":126,"startTime":29.261034000000002,"endTime":29.297979750000003,"instrument":9,"isDrum":true},{"pitch":38,"velocity":128,"startTime":29.261034000000002,"endTime":29.3349255,"instrument":9,"isDrum":true},{"pitch":46,"velocity":80,"startTime":29.408817,"endTime":29.464235625,"instrument":9,"isDrum":true},{"pitch":36,"velocity":120,"startTime":29.408817,"endTime":29.464235625,"instrument":9,"isDrum":true},{"pitch":46,"velocity":80,"startTime":29.556600000000003,"endTime":29.612018624999997,"instrument":9,"isDrum":true},{"pitch":36,"velocity":120,"startTime":29.556600000000003,"endTime":29.624333874999998,"instrument":9,"isDrum":true},{"pitch":38,"velocity":128,"startTime":29.852166,"endTime":29.901426999999995,"instrument":9,"isDrum":true},{"pitch":44,"velocity":121,"startTime":29.999948999999997,"endTime":30.030737124999995,"instrument":9,"isDrum":true},{"pitch":44,"velocity":124,"startTime":30.147732,"endTime":30.190835375000002,"instrument":9,"isDrum":true},{"pitch":38,"velocity":128,"startTime":30.443298,"endTime":30.511031875,"instrument":9,"isDrum":true},{"pitch":46,"velocity":80,"startTime":30.738864000000003,"endTime":30.794282625,"instrument":9,"isDrum":true},{"pitch":36,"velocity":120,"startTime":30.738864000000003,"endTime":30.775809749999997,"instrument":9,"isDrum":true},{"pitch":44,"velocity":124,"startTime":31.034429999999997,"endTime":31.151424875000004,"instrument":9,"isDrum":true},{"pitch":38,"velocity":128,"startTime":31.034429999999997,"endTime":31.096006250000002,"instrument":9,"isDrum":true},{"pitch":44,"velocity":128,"startTime":31.182213000000004,"endTime":31.237631625000002,"instrument":9,"isDrum":true},{"pitch":40,"velocity":100,"startTime":31.249946874999996,"endTime":31.286892625,"instrument":9,"isDrum":true},{"pitch":44,"velocity":124,"startTime":31.329996,"endTime":31.366941750000002,"instrument":9,"isDrum":true},{"pitch":44,"velocity":125,"startTime":31.477778999999998,"endTime":31.511030175000002,"instrument":9,"isDrum":true},{"pitch":44,"velocity":126,"startTime":31.625562000000002,"endTime":31.66250775,"instrument":9,"isDrum":true},{"pitch":38,"velocity":128,"startTime":31.625562000000002,"endTime":31.699453500000004,"instrument":9,"isDrum":true},{"pitch":36,"velocity":120,"startTime":31.773345000000003,"endTime":31.828763625000004,"instrument":9,"isDrum":true},{"pitch":46,"velocity":80,"startTime":31.773345000000003,"endTime":31.828763625000004,"instrument":9,"isDrum":true},{"pitch":46,"velocity":80,"startTime":31.921128,"endTime":31.976546625,"instrument":9,"isDrum":true},{"pitch":36,"velocity":120,"startTime":31.921128,"endTime":31.988861874999994,"instrument":9,"isDrum":true},{"pitch":38,"velocity":128,"startTime":32.216694000000004,"endTime":32.265955,"instrument":9,"isDrum":true},{"pitch":44,"velocity":121,"startTime":32.364477,"endTime":32.395265125,"instrument":9,"isDrum":true},{"pitch":44,"velocity":124,"startTime":32.51226,"endTime":32.555363375000006,"instrument":9,"isDrum":true},{"pitch":44,"velocity":128,"startTime":32.660043,"endTime":32.7782694,"instrument":9,"isDrum":true},{"pitch":44,"velocity":128,"startTime":32.807826,"endTime":33.0442788,"instrument":9,"isDrum":true},{"pitch":38,"velocity":128,"startTime":32.807826,"endTime":32.87555987499999,"instrument":9,"isDrum":true},{"pitch":46,"velocity":80,"startTime":33.103392,"endTime":33.158810625,"instrument":9,"isDrum":true},{"pitch":36,"velocity":120,"startTime":33.103392,"endTime":33.14033775,"instrument":9,"isDrum":true},{"pitch":44,"velocity":124,"startTime":33.398958,"endTime":33.515952874999996,"instrument":9,"isDrum":true},{"pitch":38,"velocity":128,"startTime":33.398958,"endTime":33.46053425000001,"instrument":9,"isDrum":true},{"pitch":44,"velocity":128,"startTime":33.546741,"endTime":33.602159625,"instrument":9,"isDrum":true},{"pitch":40,"velocity":100,"startTime":33.614474875,"endTime":33.65142062499999,"instrument":9,"isDrum":true},{"pitch":44,"velocity":124,"startTime":33.694524,"endTime":33.73146975,"instrument":9,"isDrum":true},{"pitch":44,"velocity":125,"startTime":33.842307,"endTime":33.875558175,"instrument":9,"isDrum":true},{"pitch":44,"velocity":126,"startTime":33.99009,"endTime":34.02703575,"instrument":9,"isDrum":true},{"pitch":38,"velocity":128,"startTime":33.99009,"endTime":34.0639815,"instrument":9,"isDrum":true},{"pitch":36,"velocity":120,"startTime":34.137873,"endTime":34.193291625,"instrument":9,"isDrum":true},{"pitch":46,"velocity":80,"startTime":34.137873,"endTime":34.193291625,"instrument":9,"isDrum":true},{"pitch":46,"velocity":80,"startTime":34.285656,"endTime":34.341074625000005,"instrument":9,"isDrum":true},{"pitch":36,"velocity":120,"startTime":34.285656,"endTime":34.353389875,"instrument":9,"isDrum":true},{"pitch":38,"velocity":128,"startTime":34.581222,"endTime":34.630483,"instrument":9,"isDrum":true},{"pitch":44,"velocity":121,"startTime":34.72900500000001,"endTime":34.759793124999995,"instrument":9,"isDrum":true},{"pitch":44,"velocity":124,"startTime":34.876788000000005,"endTime":34.919891375,"instrument":9,"isDrum":true},{"pitch":38,"velocity":128,"startTime":35.172354,"endTime":35.24008787499999,"instrument":9,"isDrum":true},{"pitch":36,"velocity":120,"startTime":35.320136999999995,"endTime":35.375555625,"instrument":9,"isDrum":true},{"pitch":46,"velocity":80,"startTime":35.320136999999995,"endTime":35.375555625,"instrument":9,"isDrum":true},{"pitch":46,"velocity":80,"startTime":35.46792,"endTime":35.523338625,"instrument":9,"isDrum":true},{"pitch":36,"velocity":120,"startTime":35.46792,"endTime":35.50486575000001,"instrument":9,"isDrum":true},{"pitch":44,"velocity":124,"startTime":35.76348600000001,"endTime":35.880480875,"instrument":9,"isDrum":true},{"pitch":38,"velocity":128,"startTime":35.76348600000001,"endTime":35.82506225000001,"instrument":9,"isDrum":true},{"pitch":44,"velocity":128,"startTime":35.911269000000004,"endTime":35.966687625000006,"instrument":9,"isDrum":true},{"pitch":40,"velocity":100,"startTime":35.979002875,"endTime":36.01594862499999,"instrument":9,"isDrum":true},{"pitch":44,"velocity":124,"startTime":36.059052,"endTime":36.09599775,"instrument":9,"isDrum":true},{"pitch":44,"velocity":125,"startTime":36.206835,"endTime":36.24008617500001,"instrument":9,"isDrum":true},{"pitch":44,"velocity":126,"startTime":36.354618,"endTime":36.391563749999996,"instrument":9,"isDrum":true},{"pitch":38,"velocity":128,"startTime":36.354618,"endTime":36.428509500000004,"instrument":9,"isDrum":true},{"pitch":36,"velocity":120,"startTime":36.502401,"endTime":36.557819625,"instrument":9,"isDrum":true},{"pitch":46,"velocity":80,"startTime":36.502401,"endTime":36.557819625,"instrument":9,"isDrum":true},{"pitch":46,"velocity":80,"startTime":36.650183999999996,"endTime":36.705602625,"instrument":9,"isDrum":true},{"pitch":36,"velocity":120,"startTime":36.650183999999996,"endTime":36.717917875000005,"instrument":9,"isDrum":true},{"pitch":38,"velocity":128,"startTime":36.945750000000004,"endTime":36.995011,"instrument":9,"isDrum":true},{"pitch":44,"velocity":121,"startTime":37.093533,"endTime":37.124321125,"instrument":9,"isDrum":true},{"pitch":44,"velocity":124,"startTime":37.241316000000005,"endTime":37.284419375000006,"instrument":9,"isDrum":true},{"pitch":38,"velocity":128,"startTime":37.536882,"endTime":37.60461587499999,"instrument":9,"isDrum":true},{"pitch":46,"velocity":80,"startTime":37.83244800000001,"endTime":37.887866624999994,"instrument":9,"isDrum":true},{"pitch":36,"velocity":120,"startTime":37.83244800000001,"endTime":37.86939375,"instrument":9,"isDrum":true},{"pitch":44,"velocity":124,"startTime":38.128014,"endTime":38.245008875,"instrument":9,"isDrum":true},{"pitch":38,"velocity":128,"startTime":38.128014,"endTime":38.18959025,"instrument":9,"isDrum":true},{"pitch":44,"velocity":128,"startTime":38.275797000000004,"endTime":38.331215625000006,"instrument":9,"isDrum":true},{"pitch":40,"velocity":100,"startTime":38.343530875,"endTime":38.38047662499999,"instrument":9,"isDrum":true},{"pitch":44,"velocity":124,"startTime":38.42358,"endTime":38.460525749999995,"instrument":9,"isDrum":true},{"pitch":44,"velocity":125,"startTime":38.571363,"endTime":38.60461417500001,"instrument":9,"isDrum":true},{"pitch":44,"velocity":126,"startTime":38.719145999999995,"endTime":38.75609175,"instrument":9,"isDrum":true},{"pitch":38,"velocity":128,"startTime":38.719145999999995,"endTime":38.793037500000004,"instrument":9,"isDrum":true},{"pitch":46,"velocity":80,"startTime":38.86692899999999,"endTime":38.92234762499999,"instrument":9,"isDrum":true},{"pitch":36,"velocity":120,"startTime":38.86692899999999,"endTime":38.92234762499999,"instrument":9,"isDrum":true},{"pitch":46,"velocity":80,"startTime":39.014712,"endTime":39.070130625000004,"instrument":9,"isDrum":true},{"pitch":36,"velocity":120,"startTime":39.014712,"endTime":39.082445875,"instrument":9,"isDrum":true},{"pitch":38,"velocity":128,"startTime":39.310278000000004,"endTime":39.35953899999999,"instrument":9,"isDrum":true},{"pitch":44,"velocity":121,"startTime":39.458061,"endTime":39.488849125,"instrument":9,"isDrum":true},{"pitch":44,"velocity":124,"startTime":39.605844,"endTime":39.648947375000006,"instrument":9,"isDrum":true},{"pitch":38,"velocity":128,"startTime":39.90140999999999,"endTime":39.969143875,"instrument":9,"isDrum":true},{"pitch":46,"velocity":80,"startTime":40.19697600000001,"endTime":40.25239462500001,"instrument":9,"isDrum":true},{"pitch":36,"velocity":120,"startTime":40.19697600000001,"endTime":40.23392175,"instrument":9,"isDrum":true},{"pitch":44,"velocity":124,"startTime":40.492542,"endTime":40.609536874999996,"instrument":9,"isDrum":true},{"pitch":38,"velocity":128,"startTime":40.492542,"endTime":40.554118249999995,"instrument":9,"isDrum":true},{"pitch":44,"velocity":128,"startTime":40.640325,"endTime":40.695743625,"instrument":9,"isDrum":true},{"pitch":40,"velocity":100,"startTime":40.70805887499999,"endTime":40.745004625,"instrument":9,"isDrum":true},{"pitch":44,"velocity":124,"startTime":40.788107999999994,"endTime":40.82505375000001,"instrument":9,"isDrum":true},{"pitch":44,"velocity":125,"startTime":40.93589099999999,"endTime":40.969142175,"instrument":9,"isDrum":true},{"pitch":44,"velocity":126,"startTime":41.08367400000001,"endTime":41.12061975,"instrument":9,"isDrum":true},{"pitch":38,"velocity":128,"startTime":41.08367400000001,"endTime":41.1575655,"instrument":9,"isDrum":true},{"pitch":36,"velocity":120,"startTime":41.231457000000006,"endTime":41.28687562500001,"instrument":9,"isDrum":true},{"pitch":46,"velocity":80,"startTime":41.231457000000006,"endTime":41.28687562500001,"instrument":9,"isDrum":true},{"pitch":46,"velocity":80,"startTime":41.37924,"endTime":41.434658625000004,"instrument":9,"isDrum":true},{"pitch":36,"velocity":120,"startTime":41.37924,"endTime":41.446973875,"instrument":9,"isDrum":true},{"pitch":38,"velocity":128,"startTime":41.674806,"endTime":41.724067,"instrument":9,"isDrum":true},{"pitch":44,"velocity":121,"startTime":41.822588999999994,"endTime":41.853377124999994,"instrument":9,"isDrum":true},{"pitch":44,"velocity":124,"startTime":41.97037199999999,"endTime":42.013475375,"instrument":9,"isDrum":true},{"pitch":44,"velocity":128,"startTime":42.11815500000001,"endTime":42.23638139999999,"instrument":9,"isDrum":true},{"pitch":44,"velocity":128,"startTime":42.265938000000006,"endTime":42.5023908,"instrument":9,"isDrum":true},{"pitch":38,"velocity":128,"startTime":42.265938000000006,"endTime":42.333671875,"instrument":9,"isDrum":true},{"pitch":46,"velocity":80,"startTime":42.561504,"endTime":42.616922625,"instrument":9,"isDrum":true},{"pitch":36,"velocity":120,"startTime":42.561504,"endTime":42.59844974999999,"instrument":9,"isDrum":true},{"pitch":44,"velocity":124,"startTime":42.85706999999999,"endTime":42.97406487500001,"instrument":9,"isDrum":true},{"pitch":38,"velocity":128,"startTime":42.85706999999999,"endTime":42.91864625000001,"instrument":9,"isDrum":true},{"pitch":44,"velocity":128,"startTime":43.00485299999999,"endTime":43.06027162499999,"instrument":9,"isDrum":true},{"pitch":40,"velocity":100,"startTime":43.072586875000006,"endTime":43.109532625,"instrument":9,"isDrum":true},{"pitch":44,"velocity":124,"startTime":43.15263600000001,"endTime":43.18958175,"instrument":9,"isDrum":true},{"pitch":44,"velocity":125,"startTime":43.300419000000005,"endTime":43.333670174999995,"instrument":9,"isDrum":true},{"pitch":44,"velocity":126,"startTime":43.448202,"endTime":43.485147749999996,"instrument":9,"isDrum":true},{"pitch":38,"velocity":128,"startTime":43.448202,"endTime":43.52209349999999,"instrument":9,"isDrum":true},{"pitch":36,"velocity":120,"startTime":43.595985,"endTime":43.651403625,"instrument":9,"isDrum":true},{"pitch":46,"velocity":80,"startTime":43.595985,"endTime":43.651403625,"instrument":9,"isDrum":true},{"pitch":46,"velocity":80,"startTime":43.743767999999996,"endTime":43.799186625,"instrument":9,"isDrum":true},{"pitch":36,"velocity":120,"startTime":43.743767999999996,"endTime":43.81150187499999,"instrument":9,"isDrum":true},{"pitch":38,"velocity":128,"startTime":44.03933399999999,"endTime":44.088595,"instrument":9,"isDrum":true},{"pitch":44,"velocity":121,"startTime":44.18711700000001,"endTime":44.217905125,"instrument":9,"isDrum":true},{"pitch":44,"velocity":124,"startTime":44.334900000000005,"endTime":44.378003375,"instrument":9,"isDrum":true},{"pitch":38,"velocity":128,"startTime":44.630466,"endTime":44.69819987499999,"instrument":9,"isDrum":true},{"pitch":36,"velocity":120,"startTime":44.778248999999995,"endTime":44.833667625,"instrument":9,"isDrum":true},{"pitch":46,"velocity":80,"startTime":44.778248999999995,"endTime":44.833667625,"instrument":9,"isDrum":true},{"pitch":46,"velocity":80,"startTime":44.92603199999999,"endTime":44.981450624999994,"instrument":9,"isDrum":true},{"pitch":36,"velocity":120,"startTime":44.92603199999999,"endTime":44.96297775000001,"instrument":9,"isDrum":true},{"pitch":44,"velocity":124,"startTime":45.22159800000001,"endTime":45.338592875,"instrument":9,"isDrum":true},{"pitch":38,"velocity":128,"startTime":45.22159800000001,"endTime":45.28317425,"instrument":9,"isDrum":true},{"pitch":44,"velocity":128,"startTime":45.369381000000004,"endTime":45.424799625000006,"instrument":9,"isDrum":true},{"pitch":40,"velocity":100,"startTime":45.437114875,"endTime":45.47406062499999,"instrument":9,"isDrum":true},{"pitch":44,"velocity":124,"startTime":45.517164,"endTime":45.554109749999995,"instrument":9,"isDrum":true},{"pitch":44,"velocity":125,"startTime":45.664947,"endTime":45.69819817500001,"instrument":9,"isDrum":true},{"pitch":44,"velocity":126,"startTime":45.812729999999995,"endTime":45.849675749999996,"instrument":9,"isDrum":true},{"pitch":38,"velocity":128,"startTime":45.812729999999995,"endTime":45.886621500000004,"instrument":9,"isDrum":true},{"pitch":36,"velocity":120,"startTime":45.96051299999999,"endTime":46.01593162499999,"instrument":9,"isDrum":true},{"pitch":46,"velocity":80,"startTime":45.96051299999999,"endTime":46.01593162499999,"instrument":9,"isDrum":true},{"pitch":46,"velocity":80,"startTime":46.108295999999996,"endTime":46.163714625,"instrument":9,"isDrum":true},{"pitch":36,"velocity":120,"startTime":46.108295999999996,"endTime":46.176029875000005,"instrument":9,"isDrum":true},{"pitch":38,"velocity":128,"startTime":46.403862000000004,"endTime":46.45312299999999,"instrument":9,"isDrum":true},{"pitch":44,"velocity":121,"startTime":46.551645,"endTime":46.582433125,"instrument":9,"isDrum":true},{"pitch":44,"velocity":124,"startTime":46.699428,"endTime":46.742531375000006,"instrument":9,"isDrum":true},{"pitch":38,"velocity":128,"startTime":46.994994,"endTime":47.06272787500001,"instrument":9,"isDrum":true},{"pitch":46,"velocity":80,"startTime":47.290560000000006,"endTime":47.34597862500001,"instrument":9,"isDrum":true},{"pitch":36,"velocity":120,"startTime":47.290560000000006,"endTime":47.32750575,"instrument":9,"isDrum":true},{"pitch":44,"velocity":124,"startTime":47.586126,"endTime":47.703120875,"instrument":9,"isDrum":true},{"pitch":38,"velocity":128,"startTime":47.586126,"endTime":47.64770225,"instrument":9,"isDrum":true},{"pitch":44,"velocity":128,"startTime":47.733909,"endTime":47.789327625,"instrument":9,"isDrum":true},{"pitch":40,"velocity":100,"startTime":47.80164287499999,"endTime":47.83858862500001,"instrument":9,"isDrum":true},{"pitch":44,"velocity":124,"startTime":47.881691999999994,"endTime":47.918637749999995,"instrument":9,"isDrum":true},{"pitch":44,"velocity":125,"startTime":48.029475,"endTime":48.062726175,"instrument":9,"isDrum":true},{"pitch":44,"velocity":126,"startTime":48.177257999999995,"endTime":48.21420375,"instrument":9,"isDrum":true},{"pitch":38,"velocity":128,"startTime":48.177257999999995,"endTime":48.2511495,"instrument":9,"isDrum":true},{"pitch":46,"velocity":80,"startTime":48.325041000000006,"endTime":48.38045962500001,"instrument":9,"isDrum":true},{"pitch":36,"velocity":120,"startTime":48.325041000000006,"endTime":48.38045962500001,"instrument":9,"isDrum":true},{"pitch":46,"velocity":80,"startTime":48.472824,"endTime":48.528242625000004,"instrument":9,"isDrum":true},{"pitch":36,"velocity":120,"startTime":48.472824,"endTime":48.540557875,"instrument":9,"isDrum":true},{"pitch":38,"velocity":128,"startTime":48.76839,"endTime":48.817651000000005,"instrument":9,"isDrum":true},{"pitch":44,"velocity":121,"startTime":48.916173,"endTime":48.946961124999994,"instrument":9,"isDrum":true},{"pitch":44,"velocity":124,"startTime":49.063956,"endTime":49.107059375000006,"instrument":9,"isDrum":true},{"pitch":38,"velocity":128,"startTime":49.359522000000005,"endTime":49.427255875,"instrument":9,"isDrum":true},{"pitch":46,"velocity":80,"startTime":49.655088,"endTime":49.710506625,"instrument":9,"isDrum":true},{"pitch":36,"velocity":120,"startTime":49.655088,"endTime":49.69203375,"instrument":9,"isDrum":true},{"pitch":44,"velocity":124,"startTime":49.950654,"endTime":50.06764887500001,"instrument":9,"isDrum":true},{"pitch":38,"velocity":128,"startTime":49.950654,"endTime":50.01223025000001,"instrument":9,"isDrum":true},{"pitch":44,"velocity":128,"startTime":50.09843700000001,"endTime":50.15385562500001,"instrument":9,"isDrum":true},{"pitch":40,"velocity":100,"startTime":50.166170875000006,"endTime":50.203116625,"instrument":9,"isDrum":true},{"pitch":44,"velocity":124,"startTime":50.24622000000001,"endTime":50.28316575,"instrument":9,"isDrum":true},{"pitch":44,"velocity":125,"startTime":50.394003000000005,"endTime":50.427254175,"instrument":9,"isDrum":true},{"pitch":44,"velocity":126,"startTime":50.541786,"endTime":50.57873175,"instrument":9,"isDrum":true},{"pitch":38,"velocity":128,"startTime":50.541786,"endTime":50.61567750000001,"instrument":9,"isDrum":true},{"pitch":36,"velocity":120,"startTime":50.689569,"endTime":50.744987625,"instrument":9,"isDrum":true},{"pitch":46,"velocity":80,"startTime":50.689569,"endTime":50.744987625,"instrument":9,"isDrum":true},{"pitch":46,"velocity":80,"startTime":50.837352,"endTime":50.892770625,"instrument":9,"isDrum":true},{"pitch":36,"velocity":120,"startTime":50.837352,"endTime":50.905085875,"instrument":9,"isDrum":true},{"pitch":38,"velocity":128,"startTime":51.13291800000001,"endTime":51.182179,"instrument":9,"isDrum":true},{"pitch":44,"velocity":121,"startTime":51.28070100000001,"endTime":51.31148912500001,"instrument":9,"isDrum":true},{"pitch":44,"velocity":124,"startTime":51.428484000000005,"endTime":51.47158737500001,"instrument":9,"isDrum":true},{"pitch":44,"velocity":128,"startTime":51.576267,"endTime":51.694493400000006,"instrument":9,"isDrum":true},{"pitch":44,"velocity":128,"startTime":51.72405,"endTime":51.96050280000001,"instrument":9,"isDrum":true},{"pitch":38,"velocity":128,"startTime":51.72405,"endTime":51.79178387499999,"instrument":9,"isDrum":true},{"pitch":46,"velocity":80,"startTime":52.019616,"endTime":52.075034625,"instrument":9,"isDrum":true},{"pitch":36,"velocity":120,"startTime":52.019616,"endTime":52.05656175000001,"instrument":9,"isDrum":true},{"pitch":44,"velocity":124,"startTime":52.31518200000001,"endTime":52.43217687500001,"instrument":9,"isDrum":true},{"pitch":38,"velocity":128,"startTime":52.31518200000001,"endTime":52.37675825000001,"instrument":9,"isDrum":true},{"pitch":44,"velocity":128,"startTime":52.462965000000004,"endTime":52.518383625000006,"instrument":9,"isDrum":true},{"pitch":40,"velocity":100,"startTime":52.530698875,"endTime":52.567644625,"instrument":9,"isDrum":true},{"pitch":44,"velocity":124,"startTime":52.610748,"endTime":52.64769375,"instrument":9,"isDrum":true},{"pitch":44,"velocity":125,"startTime":52.758531000000005,"endTime":52.79178217500001,"instrument":9,"isDrum":true},{"pitch":44,"velocity":126,"startTime":52.906314,"endTime":52.94325975000001,"instrument":9,"isDrum":true},{"pitch":38,"velocity":128,"startTime":52.906314,"endTime":52.980205500000004,"instrument":9,"isDrum":true},{"pitch":36,"velocity":120,"startTime":53.054097,"endTime":53.109515625,"instrument":9,"isDrum":true},{"pitch":46,"velocity":80,"startTime":53.054097,"endTime":53.109515625,"instrument":9,"isDrum":true},{"pitch":46,"velocity":80,"startTime":53.20188000000001,"endTime":53.25729862500001,"instrument":9,"isDrum":true},{"pitch":36,"velocity":120,"startTime":53.20188000000001,"endTime":53.269613875000005,"instrument":9,"isDrum":true},{"pitch":38,"velocity":128,"startTime":53.497446000000004,"endTime":53.546707,"instrument":9,"isDrum":true},{"pitch":44,"velocity":121,"startTime":53.645229,"endTime":53.676017125,"instrument":9,"isDrum":true},{"pitch":44,"velocity":124,"startTime":53.793012000000004,"endTime":53.83611537500001,"instrument":9,"isDrum":true},{"pitch":38,"velocity":128,"startTime":54.088578,"endTime":54.15631187500001,"instrument":9,"isDrum":true},{"pitch":36,"velocity":120,"startTime":54.23636100000001,"endTime":54.29177962500001,"instrument":9,"isDrum":true},{"pitch":46,"velocity":80,"startTime":54.23636100000001,"endTime":54.29177962500001,"instrument":9,"isDrum":true},{"pitch":46,"velocity":80,"startTime":54.384144000000006,"endTime":54.43956262500001,"instrument":9,"isDrum":true},{"pitch":36,"velocity":120,"startTime":54.384144000000006,"endTime":54.42108975000001,"instrument":9,"isDrum":true},{"pitch":44,"velocity":124,"startTime":54.67971000000001,"endTime":54.796704875,"instrument":9,"isDrum":true},{"pitch":38,"velocity":128,"startTime":54.67971000000001,"endTime":54.74128625,"instrument":9,"isDrum":true},{"pitch":44,"velocity":128,"startTime":54.827493000000004,"endTime":54.882911625000006,"instrument":9,"isDrum":true},{"pitch":40,"velocity":100,"startTime":54.895226875,"endTime":54.93217262500001,"instrument":9,"isDrum":true},{"pitch":44,"velocity":124,"startTime":54.975276,"endTime":55.01222175000001,"instrument":9,"isDrum":true},{"pitch":44,"velocity":125,"startTime":55.123059,"endTime":55.15631017500001,"instrument":9,"isDrum":true},{"pitch":44,"velocity":126,"startTime":55.27084200000001,"endTime":55.30778775,"instrument":9,"isDrum":true},{"pitch":38,"velocity":128,"startTime":55.27084200000001,"endTime":55.344733500000004,"instrument":9,"isDrum":true},{"pitch":36,"velocity":120,"startTime":55.418625000000006,"endTime":55.47404362500001,"instrument":9,"isDrum":true},{"pitch":46,"velocity":80,"startTime":55.418625000000006,"endTime":55.47404362500001,"instrument":9,"isDrum":true},{"pitch":46,"velocity":80,"startTime":55.566408,"endTime":55.621826625000004,"instrument":9,"isDrum":true},{"pitch":36,"velocity":120,"startTime":55.566408,"endTime":55.634141875,"instrument":9,"isDrum":true},{"pitch":38,"velocity":128,"startTime":55.861974000000004,"endTime":55.911235000000005,"instrument":9,"isDrum":true},{"pitch":44,"velocity":121,"startTime":56.009757,"endTime":56.040545125,"instrument":9,"isDrum":true},{"pitch":44,"velocity":124,"startTime":56.15754,"endTime":56.200643375000006,"instrument":9,"isDrum":true},{"pitch":38,"velocity":128,"startTime":56.453106000000005,"endTime":56.520839875,"instrument":9,"isDrum":true},{"pitch":46,"velocity":80,"startTime":56.748672000000006,"endTime":56.80409062500001,"instrument":9,"isDrum":true},{"pitch":36,"velocity":120,"startTime":56.748672000000006,"endTime":56.78561775,"instrument":9,"isDrum":true},{"pitch":44,"velocity":124,"startTime":57.044238,"endTime":57.161232874999996,"instrument":9,"isDrum":true},{"pitch":38,"velocity":128,"startTime":57.044238,"endTime":57.105814249999995,"instrument":9,"isDrum":true},{"pitch":44,"velocity":128,"startTime":57.192021,"endTime":57.247439625,"instrument":9,"isDrum":true},{"pitch":40,"velocity":100,"startTime":57.259754875000006,"endTime":57.296700625,"instrument":9,"isDrum":true},{"pitch":44,"velocity":124,"startTime":57.33980400000001,"endTime":57.37674975000001,"instrument":9,"isDrum":true},{"pitch":44,"velocity":125,"startTime":57.48758700000001,"endTime":57.520838175,"instrument":9,"isDrum":true},{"pitch":44,"velocity":126,"startTime":57.63537000000001,"endTime":57.67231575,"instrument":9,"isDrum":true},{"pitch":38,"velocity":128,"startTime":57.63537000000001,"endTime":57.7092615,"instrument":9,"isDrum":true},{"pitch":46,"velocity":80,"startTime":57.783153000000006,"endTime":57.83857162500001,"instrument":9,"isDrum":true},{"pitch":36,"velocity":120,"startTime":57.783153000000006,"endTime":57.83857162500001,"instrument":9,"isDrum":true},{"pitch":46,"velocity":80,"startTime":57.930936,"endTime":57.986354625000004,"instrument":9,"isDrum":true},{"pitch":36,"velocity":120,"startTime":57.930936,"endTime":57.99866987500001,"instrument":9,"isDrum":true},{"pitch":38,"velocity":128,"startTime":58.226501999999996,"endTime":58.27576300000002,"instrument":9,"isDrum":true},{"pitch":44,"velocity":121,"startTime":58.37428500000001,"endTime":58.40507312500001,"instrument":9,"isDrum":true},{"pitch":44,"velocity":124,"startTime":58.52206800000001,"endTime":58.565171375,"instrument":9,"isDrum":true},{"pitch":38,"velocity":128,"startTime":58.817634000000005,"endTime":58.885367875000014,"instrument":9,"isDrum":true},{"pitch":46,"velocity":80,"startTime":59.1132,"endTime":59.168618625,"instrument":9,"isDrum":true},{"pitch":36,"velocity":120,"startTime":59.1132,"endTime":59.15014575000001,"instrument":9,"isDrum":true},{"pitch":44,"velocity":124,"startTime":59.408766000000014,"endTime":59.525760874999996,"instrument":9,"isDrum":true},{"pitch":38,"velocity":128,"startTime":59.408766000000014,"endTime":59.470342249999995,"instrument":9,"isDrum":true},{"pitch":44,"velocity":128,"startTime":59.55654900000001,"endTime":59.61196762500001,"instrument":9,"isDrum":true},{"pitch":40,"velocity":100,"startTime":59.624282875000006,"endTime":59.661228625000014,"instrument":9,"isDrum":true},{"pitch":44,"velocity":124,"startTime":59.70433200000001,"endTime":59.74127775,"instrument":9,"isDrum":true},{"pitch":44,"velocity":125,"startTime":59.852115000000005,"endTime":59.885366175000016,"instrument":9,"isDrum":true},{"pitch":44,"velocity":126,"startTime":59.999898,"endTime":60.036843749999996,"instrument":9,"isDrum":true},{"pitch":38,"velocity":128,"startTime":59.999898,"endTime":60.07378950000001,"instrument":9,"isDrum":true},{"pitch":36,"velocity":120,"startTime":60.147681,"endTime":60.203099625,"instrument":9,"isDrum":true},{"pitch":46,"velocity":80,"startTime":60.147681,"endTime":60.203099625,"instrument":9,"isDrum":true},{"pitch":46,"velocity":80,"startTime":60.295463999999996,"endTime":60.350882625,"instrument":9,"isDrum":true},{"pitch":36,"velocity":120,"startTime":60.295463999999996,"endTime":60.363197875000004,"instrument":9,"isDrum":true},{"pitch":38,"velocity":128,"startTime":60.59103000000001,"endTime":60.64029100000001,"instrument":9,"isDrum":true},{"pitch":44,"velocity":121,"startTime":60.73881300000001,"endTime":60.76960112500001,"instrument":9,"isDrum":true},{"pitch":44,"velocity":124,"startTime":60.886596000000004,"endTime":60.929699375,"instrument":9,"isDrum":true},{"pitch":44,"velocity":128,"startTime":61.034379,"endTime":61.15260539999999,"instrument":9,"isDrum":true},{"pitch":44,"velocity":128,"startTime":61.182162,"endTime":61.41861480000001,"instrument":9,"isDrum":true},{"pitch":38,"velocity":128,"startTime":61.182162,"endTime":61.24989587500001,"instrument":9,"isDrum":true},{"pitch":46,"velocity":80,"startTime":61.47772800000001,"endTime":61.53314662499999,"instrument":9,"isDrum":true},{"pitch":36,"velocity":120,"startTime":61.47772800000001,"endTime":61.51467375000001,"instrument":9,"isDrum":true},{"pitch":44,"velocity":124,"startTime":61.77329400000001,"endTime":61.890288875,"instrument":9,"isDrum":true},{"pitch":38,"velocity":128,"startTime":61.77329400000001,"endTime":61.83487025,"instrument":9,"isDrum":true},{"pitch":44,"velocity":128,"startTime":61.921077000000004,"endTime":61.976495625000005,"instrument":9,"isDrum":true},{"pitch":40,"velocity":100,"startTime":61.98881087500001,"endTime":62.02575662500001,"instrument":9,"isDrum":true},{"pitch":44,"velocity":124,"startTime":62.06886,"endTime":62.105805749999995,"instrument":9,"isDrum":true},{"pitch":44,"velocity":125,"startTime":62.216643,"endTime":62.24989417500001,"instrument":9,"isDrum":true},{"pitch":44,"velocity":126,"startTime":62.364425999999995,"endTime":62.40137175000001,"instrument":9,"isDrum":true},{"pitch":38,"velocity":128,"startTime":62.364425999999995,"endTime":62.438317500000004,"instrument":9,"isDrum":true},{"pitch":36,"velocity":120,"startTime":62.51220900000001,"endTime":62.567627625,"instrument":9,"isDrum":true},{"pitch":46,"velocity":80,"startTime":62.51220900000001,"endTime":62.567627625,"instrument":9,"isDrum":true},{"pitch":46,"velocity":80,"startTime":62.65999200000001,"endTime":62.71541062500001,"instrument":9,"isDrum":true},{"pitch":36,"velocity":120,"startTime":62.65999200000001,"endTime":62.727725875000004,"instrument":9,"isDrum":true},{"pitch":38,"velocity":128,"startTime":62.955558,"endTime":63.00481900000001,"instrument":9,"isDrum":true},{"pitch":44,"velocity":121,"startTime":63.103341,"endTime":63.134129125000015,"instrument":9,"isDrum":true},{"pitch":44,"velocity":124,"startTime":63.251124,"endTime":63.29422737499999,"instrument":9,"isDrum":true},{"pitch":38,"velocity":128,"startTime":63.54669000000001,"endTime":63.61442387500001,"instrument":9,"isDrum":true},{"pitch":36,"velocity":120,"startTime":63.69447300000001,"endTime":63.74989162500001,"instrument":9,"isDrum":true},{"pitch":46,"velocity":80,"startTime":63.69447300000001,"endTime":63.74989162500001,"instrument":9,"isDrum":true},{"pitch":46,"velocity":80,"startTime":63.842256000000006,"endTime":63.89767462500001,"instrument":9,"isDrum":true},{"pitch":36,"velocity":120,"startTime":63.842256000000006,"endTime":63.87920175,"instrument":9,"isDrum":true},{"pitch":44,"velocity":124,"startTime":64.137822,"endTime":64.254816875,"instrument":9,"isDrum":true},{"pitch":38,"velocity":128,"startTime":64.137822,"endTime":64.19939825,"instrument":9,"isDrum":true},{"pitch":44,"velocity":128,"startTime":64.285605,"endTime":64.341023625,"instrument":9,"isDrum":true},{"pitch":40,"velocity":100,"startTime":64.353338875,"endTime":64.390284625,"instrument":9,"isDrum":true},{"pitch":44,"velocity":124,"startTime":64.433388,"endTime":64.47033375000001,"instrument":9,"isDrum":true},{"pitch":44,"velocity":125,"startTime":64.58117100000001,"endTime":64.614422175,"instrument":9,"isDrum":true},{"pitch":44,"velocity":126,"startTime":64.728954,"endTime":64.76589975,"instrument":9,"isDrum":true},{"pitch":38,"velocity":128,"startTime":64.728954,"endTime":64.8028455,"instrument":9,"isDrum":true},{"pitch":36,"velocity":120,"startTime":64.876737,"endTime":64.93215562500001,"instrument":9,"isDrum":true},{"pitch":46,"velocity":80,"startTime":64.876737,"endTime":64.93215562500001,"instrument":9,"isDrum":true},{"pitch":46,"velocity":80,"startTime":65.02452000000001,"endTime":65.07993862500001,"instrument":9,"isDrum":true},{"pitch":36,"velocity":120,"startTime":65.02452000000001,"endTime":65.09225387500001,"instrument":9,"isDrum":true},{"pitch":38,"velocity":128,"startTime":65.320086,"endTime":65.369347,"instrument":9,"isDrum":true},{"pitch":44,"velocity":121,"startTime":65.467869,"endTime":65.49865712500001,"instrument":9,"isDrum":true},{"pitch":44,"velocity":124,"startTime":65.61565200000001,"endTime":65.658755375,"instrument":9,"isDrum":true},{"pitch":38,"velocity":128,"startTime":65.911218,"endTime":65.97895187500002,"instrument":9,"isDrum":true},{"pitch":46,"velocity":80,"startTime":66.206784,"endTime":66.262202625,"instrument":9,"isDrum":true},{"pitch":36,"velocity":120,"startTime":66.206784,"endTime":66.24372975,"instrument":9,"isDrum":true},{"pitch":44,"velocity":124,"startTime":66.50234999999999,"endTime":66.619344875,"instrument":9,"isDrum":true},{"pitch":38,"velocity":128,"startTime":66.50234999999999,"endTime":66.56392625,"instrument":9,"isDrum":true},{"pitch":44,"velocity":128,"startTime":66.65013300000001,"endTime":66.705551625,"instrument":9,"isDrum":true},{"pitch":40,"velocity":100,"startTime":66.717866875,"endTime":66.75481262500001,"instrument":9,"isDrum":true},{"pitch":44,"velocity":124,"startTime":66.79791600000001,"endTime":66.83486175,"instrument":9,"isDrum":true},{"pitch":44,"velocity":125,"startTime":66.945699,"endTime":66.978950175,"instrument":9,"isDrum":true},{"pitch":44,"velocity":126,"startTime":67.09348200000001,"endTime":67.13042775,"instrument":9,"isDrum":true},{"pitch":38,"velocity":128,"startTime":67.09348200000001,"endTime":67.16737350000001,"instrument":9,"isDrum":true},{"pitch":46,"velocity":80,"startTime":67.241265,"endTime":67.296683625,"instrument":9,"isDrum":true},{"pitch":36,"velocity":120,"startTime":67.241265,"endTime":67.296683625,"instrument":9,"isDrum":true},{"pitch":46,"velocity":80,"startTime":67.389048,"endTime":67.444466625,"instrument":9,"isDrum":true},{"pitch":36,"velocity":120,"startTime":67.389048,"endTime":67.456781875,"instrument":9,"isDrum":true},{"pitch":38,"velocity":128,"startTime":67.68461400000001,"endTime":67.73387500000001,"instrument":9,"isDrum":true},{"pitch":44,"velocity":121,"startTime":67.83239700000001,"endTime":67.863185125,"instrument":9,"isDrum":true},{"pitch":44,"velocity":124,"startTime":67.98018,"endTime":68.023283375,"instrument":9,"isDrum":true},{"pitch":38,"velocity":128,"startTime":68.275746,"endTime":68.34347987500001,"instrument":9,"isDrum":true},{"pitch":46,"velocity":80,"startTime":68.57131199999999,"endTime":68.626730625,"instrument":9,"isDrum":true},{"pitch":36,"velocity":120,"startTime":68.57131199999999,"endTime":68.60825775,"instrument":9,"isDrum":true},{"pitch":44,"velocity":124,"startTime":68.86687800000001,"endTime":68.98387287499999,"instrument":9,"isDrum":true},{"pitch":38,"velocity":128,"startTime":68.86687800000001,"endTime":68.92845424999999,"instrument":9,"isDrum":true},{"pitch":44,"velocity":128,"startTime":69.014661,"endTime":69.070079625,"instrument":9,"isDrum":true},{"pitch":40,"velocity":100,"startTime":69.08239487500002,"endTime":69.119340625,"instrument":9,"isDrum":true},{"pitch":44,"velocity":124,"startTime":69.16244400000001,"endTime":69.19938975,"instrument":9,"isDrum":true},{"pitch":44,"velocity":125,"startTime":69.310227,"endTime":69.34347817500002,"instrument":9,"isDrum":true},{"pitch":44,"velocity":126,"startTime":69.45801,"endTime":69.49495575000002,"instrument":9,"isDrum":true},{"pitch":38,"velocity":128,"startTime":69.45801,"endTime":69.5319015,"instrument":9,"isDrum":true},{"pitch":36,"velocity":120,"startTime":69.60579299999999,"endTime":69.66121162499999,"instrument":9,"isDrum":true},{"pitch":46,"velocity":80,"startTime":69.60579299999999,"endTime":69.66121162499999,"instrument":9,"isDrum":true},{"pitch":46,"velocity":80,"startTime":69.75357600000001,"endTime":69.808994625,"instrument":9,"isDrum":true},{"pitch":36,"velocity":120,"startTime":69.75357600000001,"endTime":69.82130987500001,"instrument":9,"isDrum":true},{"pitch":38,"velocity":128,"startTime":70.049142,"endTime":70.098403,"instrument":9,"isDrum":true},{"pitch":44,"velocity":121,"startTime":70.19692500000001,"endTime":70.22771312500001,"instrument":9,"isDrum":true},{"pitch":44,"velocity":124,"startTime":70.344708,"endTime":70.387811375,"instrument":9,"isDrum":true},{"pitch":44,"velocity":128,"startTime":70.492491,"endTime":70.6107174,"instrument":9,"isDrum":true},{"pitch":44,"velocity":128,"startTime":70.64027399999999,"endTime":70.8767268,"instrument":9,"isDrum":true},{"pitch":38,"velocity":128,"startTime":70.64027399999999,"endTime":70.708007875,"instrument":9,"isDrum":true},{"pitch":46,"velocity":80,"startTime":70.93584000000001,"endTime":70.99125862500001,"instrument":9,"isDrum":true},{"pitch":36,"velocity":120,"startTime":70.93584000000001,"endTime":70.97278575,"instrument":9,"isDrum":true},{"pitch":44,"velocity":124,"startTime":71.231406,"endTime":71.34840087500001,"instrument":9,"isDrum":true},{"pitch":38,"velocity":128,"startTime":71.231406,"endTime":71.29298225000001,"instrument":9,"isDrum":true},{"pitch":44,"velocity":128,"startTime":71.379189,"endTime":71.434607625,"instrument":9,"isDrum":true},{"pitch":40,"velocity":100,"startTime":71.44692287500001,"endTime":71.48386862500001,"instrument":9,"isDrum":true},{"pitch":44,"velocity":124,"startTime":71.526972,"endTime":71.56391775000002,"instrument":9,"isDrum":true},{"pitch":44,"velocity":125,"startTime":71.674755,"endTime":71.70800617500001,"instrument":9,"isDrum":true},{"pitch":44,"velocity":126,"startTime":71.82253800000001,"endTime":71.85948375000001,"instrument":9,"isDrum":true},{"pitch":38,"velocity":128,"startTime":71.82253800000001,"endTime":71.8964295,"instrument":9,"isDrum":true},{"pitch":36,"velocity":120,"startTime":71.97032100000001,"endTime":72.02573962500001,"instrument":9,"isDrum":true},{"pitch":46,"velocity":80,"startTime":71.97032100000001,"endTime":72.02573962500001,"instrument":9,"isDrum":true},{"pitch":46,"velocity":80,"startTime":72.118104,"endTime":72.173522625,"instrument":9,"isDrum":true},{"pitch":36,"velocity":120,"startTime":72.118104,"endTime":72.18583787500002,"instrument":9,"isDrum":true},{"pitch":38,"velocity":128,"startTime":72.41367,"endTime":72.46293100000001,"instrument":9,"isDrum":true},{"pitch":44,"velocity":121,"startTime":72.561453,"endTime":72.59224112500002,"instrument":9,"isDrum":true},{"pitch":44,"velocity":124,"startTime":72.709236,"endTime":72.752339375,"instrument":9,"isDrum":true},{"pitch":38,"velocity":128,"startTime":73.00480200000001,"endTime":73.072535875,"instrument":9,"isDrum":true},{"pitch":36,"velocity":120,"startTime":73.152585,"endTime":73.208003625,"instrument":9,"isDrum":true},{"pitch":46,"velocity":80,"startTime":73.152585,"endTime":73.208003625,"instrument":9,"isDrum":true},{"pitch":46,"velocity":80,"startTime":73.300368,"endTime":73.35578662500001,"instrument":9,"isDrum":true},{"pitch":36,"velocity":120,"startTime":73.300368,"endTime":73.33731375,"instrument":9,"isDrum":true},{"pitch":44,"velocity":124,"startTime":73.595934,"endTime":73.712928875,"instrument":9,"isDrum":true},{"pitch":38,"velocity":128,"startTime":73.595934,"endTime":73.65751025,"instrument":9,"isDrum":true},{"pitch":44,"velocity":128,"startTime":73.743717,"endTime":73.799135625,"instrument":9,"isDrum":true},{"pitch":40,"velocity":100,"startTime":73.811450875,"endTime":73.848396625,"instrument":9,"isDrum":true},{"pitch":44,"velocity":124,"startTime":73.89150000000001,"endTime":73.92844575000001,"instrument":9,"isDrum":true},{"pitch":44,"velocity":125,"startTime":74.03928300000001,"endTime":74.072534175,"instrument":9,"isDrum":true},{"pitch":44,"velocity":126,"startTime":74.187066,"endTime":74.22401175,"instrument":9,"isDrum":true},{"pitch":38,"velocity":128,"startTime":74.187066,"endTime":74.2609575,"instrument":9,"isDrum":true},{"pitch":36,"velocity":120,"startTime":74.334849,"endTime":74.390267625,"instrument":9,"isDrum":true},{"pitch":46,"velocity":80,"startTime":74.334849,"endTime":74.390267625,"instrument":9,"isDrum":true},{"pitch":46,"velocity":80,"startTime":74.48263200000001,"endTime":74.538050625,"instrument":9,"isDrum":true},{"pitch":36,"velocity":120,"startTime":74.48263200000001,"endTime":74.55036587500001,"instrument":9,"isDrum":true},{"pitch":38,"velocity":128,"startTime":74.778198,"endTime":74.827459,"instrument":9,"isDrum":true},{"pitch":44,"velocity":121,"startTime":74.92598100000001,"endTime":74.95676912500001,"instrument":9,"isDrum":true},{"pitch":44,"velocity":124,"startTime":75.07376400000001,"endTime":75.116867375,"instrument":9,"isDrum":true},{"pitch":38,"velocity":128,"startTime":75.36933,"endTime":75.43706387500002,"instrument":9,"isDrum":true},{"pitch":46,"velocity":80,"startTime":75.664896,"endTime":75.720314625,"instrument":9,"isDrum":true},{"pitch":36,"velocity":120,"startTime":75.664896,"endTime":75.70184175000001,"instrument":9,"isDrum":true},{"pitch":44,"velocity":124,"startTime":75.960462,"endTime":76.077456875,"instrument":9,"isDrum":true},{"pitch":38,"velocity":128,"startTime":75.960462,"endTime":76.02203825,"instrument":9,"isDrum":true},{"pitch":44,"velocity":128,"startTime":76.10824500000001,"endTime":76.16366362500001,"instrument":9,"isDrum":true},{"pitch":40,"velocity":100,"startTime":76.175978875,"endTime":76.21292462500001,"instrument":9,"isDrum":true},{"pitch":44,"velocity":124,"startTime":76.256028,"endTime":76.29297375,"instrument":9,"isDrum":true},{"pitch":44,"velocity":125,"startTime":76.403811,"endTime":76.43706217500001,"instrument":9,"isDrum":true},{"pitch":44,"velocity":126,"startTime":76.55159400000001,"endTime":76.58853975,"instrument":9,"isDrum":true},{"pitch":38,"velocity":128,"startTime":76.55159400000001,"endTime":76.62548550000001,"instrument":9,"isDrum":true},{"pitch":46,"velocity":80,"startTime":76.699377,"endTime":76.754795625,"instrument":9,"isDrum":true},{"pitch":36,"velocity":120,"startTime":76.699377,"endTime":76.754795625,"instrument":9,"isDrum":true},{"pitch":46,"velocity":80,"startTime":76.84716,"endTime":76.902578625,"instrument":9,"isDrum":true},{"pitch":36,"velocity":120,"startTime":76.84716,"endTime":76.914893875,"instrument":9,"isDrum":true},{"pitch":38,"velocity":128,"startTime":77.14272600000001,"endTime":77.19198700000001,"instrument":9,"isDrum":true},{"pitch":44,"velocity":121,"startTime":77.290509,"endTime":77.321297125,"instrument":9,"isDrum":true},{"pitch":44,"velocity":124,"startTime":77.438292,"endTime":77.48139537499999,"instrument":9,"isDrum":true},{"pitch":38,"velocity":128,"startTime":77.733858,"endTime":77.80159187500001,"instrument":9,"isDrum":true},{"pitch":46,"velocity":80,"startTime":78.029424,"endTime":78.084842625,"instrument":9,"isDrum":true},{"pitch":36,"velocity":120,"startTime":78.029424,"endTime":78.06636975,"instrument":9,"isDrum":true},{"pitch":44,"velocity":124,"startTime":78.32499000000001,"endTime":78.441984875,"instrument":9,"isDrum":true},{"pitch":38,"velocity":128,"startTime":78.32499000000001,"endTime":78.38656625,"instrument":9,"isDrum":true},{"pitch":44,"velocity":128,"startTime":78.472773,"endTime":78.528191625,"instrument":9,"isDrum":true},{"pitch":40,"velocity":100,"startTime":78.54050687500002,"endTime":78.577452625,"instrument":9,"isDrum":true},{"pitch":44,"velocity":124,"startTime":78.62055600000001,"endTime":78.65750175,"instrument":9,"isDrum":true},{"pitch":44,"velocity":125,"startTime":78.768339,"endTime":78.80159017500002,"instrument":9,"isDrum":true},{"pitch":44,"velocity":126,"startTime":78.916122,"endTime":78.95306775,"instrument":9,"isDrum":true},{"pitch":38,"velocity":128,"startTime":78.916122,"endTime":78.9900135,"instrument":9,"isDrum":true},{"pitch":36,"velocity":120,"startTime":79.063905,"endTime":79.11932362499999,"instrument":9,"isDrum":true},{"pitch":46,"velocity":80,"startTime":79.063905,"endTime":79.11932362499999,"instrument":9,"isDrum":true},{"pitch":46,"velocity":80,"startTime":79.21168800000001,"endTime":79.26710662500001,"instrument":9,"isDrum":true},{"pitch":36,"velocity":120,"startTime":79.21168800000001,"endTime":79.279421875,"instrument":9,"isDrum":true},{"pitch":38,"velocity":128,"startTime":79.507254,"endTime":79.556515,"instrument":9,"isDrum":true},{"pitch":44,"velocity":121,"startTime":79.65503700000001,"endTime":79.68582512500002,"instrument":9,"isDrum":true},{"pitch":44,"velocity":124,"startTime":79.80282,"endTime":79.845923375,"instrument":9,"isDrum":true},{"pitch":44,"velocity":128,"startTime":79.950603,"endTime":80.0688294,"instrument":9,"isDrum":true},{"pitch":44,"velocity":128,"startTime":80.098386,"endTime":80.3348388,"instrument":9,"isDrum":true},{"pitch":38,"velocity":128,"startTime":80.098386,"endTime":80.166119875,"instrument":9,"isDrum":true},{"pitch":46,"velocity":80,"startTime":80.39395200000001,"endTime":80.44937062500001,"instrument":9,"isDrum":true},{"pitch":36,"velocity":120,"startTime":80.39395200000001,"endTime":80.43089775,"instrument":9,"isDrum":true},{"pitch":44,"velocity":124,"startTime":80.689518,"endTime":80.806512875,"instrument":9,"isDrum":true},{"pitch":38,"velocity":128,"startTime":80.689518,"endTime":80.75109425,"instrument":9,"isDrum":true},{"pitch":44,"velocity":128,"startTime":80.837301,"endTime":80.892719625,"instrument":9,"isDrum":true},{"pitch":40,"velocity":100,"startTime":80.90503487500001,"endTime":80.941980625,"instrument":9,"isDrum":true},{"pitch":44,"velocity":124,"startTime":80.985084,"endTime":81.02202975000002,"instrument":9,"isDrum":true},{"pitch":44,"velocity":125,"startTime":81.132867,"endTime":81.16611817500001,"instrument":9,"isDrum":true},{"pitch":44,"velocity":126,"startTime":81.28065000000001,"endTime":81.31759575000001,"instrument":9,"isDrum":true},{"pitch":38,"velocity":128,"startTime":81.28065000000001,"endTime":81.3545415,"instrument":9,"isDrum":true},{"pitch":36,"velocity":120,"startTime":81.42843300000001,"endTime":81.48385162500001,"instrument":9,"isDrum":true},{"pitch":46,"velocity":80,"startTime":81.42843300000001,"endTime":81.48385162500001,"instrument":9,"isDrum":true},{"pitch":46,"velocity":80,"startTime":81.576216,"endTime":81.631634625,"instrument":9,"isDrum":true},{"pitch":36,"velocity":120,"startTime":81.576216,"endTime":81.64394987500002,"instrument":9,"isDrum":true},{"pitch":38,"velocity":128,"startTime":81.871782,"endTime":81.92104300000001,"instrument":9,"isDrum":true},{"pitch":44,"velocity":121,"startTime":82.019565,"endTime":82.05035312500002,"instrument":9,"isDrum":true},{"pitch":44,"velocity":124,"startTime":82.16734800000002,"endTime":82.210451375,"instrument":9,"isDrum":true},{"pitch":38,"velocity":128,"startTime":82.46291400000001,"endTime":82.53064787500001,"instrument":9,"isDrum":true},{"pitch":36,"velocity":120,"startTime":82.610697,"endTime":82.666115625,"instrument":9,"isDrum":true},{"pitch":46,"velocity":80,"startTime":82.610697,"endTime":82.666115625,"instrument":9,"isDrum":true},{"pitch":46,"velocity":80,"startTime":82.75848,"endTime":82.81389862500001,"instrument":9,"isDrum":true},{"pitch":36,"velocity":120,"startTime":82.75848,"endTime":82.79542574999999,"instrument":9,"isDrum":true},{"pitch":44,"velocity":124,"startTime":83.054046,"endTime":83.171040875,"instrument":9,"isDrum":true},{"pitch":38,"velocity":128,"startTime":83.054046,"endTime":83.11562225,"instrument":9,"isDrum":true},{"pitch":44,"velocity":128,"startTime":83.20182900000002,"endTime":83.25724762499999,"instrument":9,"isDrum":true},{"pitch":40,"velocity":100,"startTime":83.269562875,"endTime":83.30650862500002,"instrument":9,"isDrum":true},{"pitch":44,"velocity":124,"startTime":83.34961200000001,"endTime":83.38655775000001,"instrument":9,"isDrum":true},{"pitch":44,"velocity":125,"startTime":83.49739500000001,"endTime":83.530646175,"instrument":9,"isDrum":true},{"pitch":44,"velocity":126,"startTime":83.645178,"endTime":83.68212375,"instrument":9,"isDrum":true},{"pitch":38,"velocity":128,"startTime":83.645178,"endTime":83.71906950000002,"instrument":9,"isDrum":true},{"pitch":36,"velocity":120,"startTime":83.792961,"endTime":83.848379625,"instrument":9,"isDrum":true},{"pitch":46,"velocity":80,"startTime":83.792961,"endTime":83.848379625,"instrument":9,"isDrum":true},{"pitch":46,"velocity":80,"startTime":83.940744,"endTime":83.996162625,"instrument":9,"isDrum":true},{"pitch":36,"velocity":120,"startTime":83.940744,"endTime":84.00847787500001,"instrument":9,"isDrum":true},{"pitch":38,"velocity":128,"startTime":84.23631000000002,"endTime":84.28557100000002,"instrument":9,"isDrum":true},{"pitch":44,"velocity":121,"startTime":84.38409300000001,"endTime":84.41488112500001,"instrument":9,"isDrum":true},{"pitch":44,"velocity":124,"startTime":84.53187600000001,"endTime":84.574979375,"instrument":9,"isDrum":true},{"pitch":38,"velocity":128,"startTime":84.827442,"endTime":84.895175875,"instrument":9,"isDrum":true},{"pitch":46,"velocity":80,"startTime":85.123008,"endTime":85.178426625,"instrument":9,"isDrum":true},{"pitch":36,"velocity":120,"startTime":85.123008,"endTime":85.15995375000001,"instrument":9,"isDrum":true},{"pitch":44,"velocity":124,"startTime":85.418574,"endTime":85.535568875,"instrument":9,"isDrum":true},{"pitch":38,"velocity":128,"startTime":85.418574,"endTime":85.48015025,"instrument":9,"isDrum":true},{"pitch":44,"velocity":128,"startTime":85.56635700000001,"endTime":85.62177562500001,"instrument":9,"isDrum":true},{"pitch":40,"velocity":100,"startTime":85.63409087500001,"endTime":85.67103662500001,"instrument":9,"isDrum":true},{"pitch":44,"velocity":124,"startTime":85.71414,"endTime":85.75108575,"instrument":9,"isDrum":true},{"pitch":44,"velocity":125,"startTime":85.861923,"endTime":85.89517417500001,"instrument":9,"isDrum":true},{"pitch":44,"velocity":126,"startTime":86.009706,"endTime":86.04665175000001,"instrument":9,"isDrum":true},{"pitch":38,"velocity":128,"startTime":86.009706,"endTime":86.08359750000001,"instrument":9,"isDrum":true},{"pitch":46,"velocity":80,"startTime":86.157489,"endTime":86.212907625,"instrument":9,"isDrum":true},{"pitch":36,"velocity":120,"startTime":86.157489,"endTime":86.212907625,"instrument":9,"isDrum":true},{"pitch":46,"velocity":80,"startTime":86.30527200000002,"endTime":86.360690625,"instrument":9,"isDrum":true},{"pitch":36,"velocity":120,"startTime":86.30527200000002,"endTime":86.373005875,"instrument":9,"isDrum":true},{"pitch":38,"velocity":128,"startTime":86.60083800000001,"endTime":86.65009900000001,"instrument":9,"isDrum":true},{"pitch":44,"velocity":121,"startTime":86.748621,"endTime":86.779409125,"instrument":9,"isDrum":true},{"pitch":44,"velocity":124,"startTime":86.896404,"endTime":86.93950737499999,"instrument":9,"isDrum":true},{"pitch":38,"velocity":128,"startTime":87.19197,"endTime":87.25970387500001,"instrument":9,"isDrum":true},{"pitch":46,"velocity":80,"startTime":87.487536,"endTime":87.54295462500001,"instrument":9,"isDrum":true},{"pitch":36,"velocity":120,"startTime":87.487536,"endTime":87.52448175,"instrument":9,"isDrum":true},{"pitch":44,"velocity":124,"startTime":87.783102,"endTime":87.900096875,"instrument":9,"isDrum":true},{"pitch":38,"velocity":128,"startTime":87.783102,"endTime":87.84467825,"instrument":9,"isDrum":true},{"pitch":44,"velocity":128,"startTime":87.930885,"endTime":87.986303625,"instrument":9,"isDrum":true},{"pitch":40,"velocity":100,"startTime":87.99861887500002,"endTime":88.035564625,"instrument":9,"isDrum":true},{"pitch":44,"velocity":124,"startTime":88.07866800000001,"endTime":88.11561375000001,"instrument":9,"isDrum":true},{"pitch":44,"velocity":125,"startTime":88.226451,"endTime":88.25970217500002,"instrument":9,"isDrum":true},{"pitch":44,"velocity":126,"startTime":88.37423400000002,"endTime":88.41117975,"instrument":9,"isDrum":true},{"pitch":38,"velocity":128,"startTime":88.37423400000002,"endTime":88.4481255,"instrument":9,"isDrum":true},{"pitch":36,"velocity":120,"startTime":88.522017,"endTime":88.577435625,"instrument":9,"isDrum":true},{"pitch":46,"velocity":80,"startTime":88.522017,"endTime":88.577435625,"instrument":9,"isDrum":true},{"pitch":46,"velocity":80,"startTime":88.66980000000001,"endTime":88.72521862500001,"instrument":9,"isDrum":true},{"pitch":36,"velocity":120,"startTime":88.66980000000001,"endTime":88.73753387500001,"instrument":9,"isDrum":true},{"pitch":38,"velocity":128,"startTime":88.965366,"endTime":89.014627,"instrument":9,"isDrum":true},{"pitch":44,"velocity":121,"startTime":89.113149,"endTime":89.14393712500001,"instrument":9,"isDrum":true},{"pitch":44,"velocity":124,"startTime":89.260932,"endTime":89.30403537500001,"instrument":9,"isDrum":true},{"pitch":44,"velocity":128,"startTime":89.40871500000002,"endTime":89.5269414,"instrument":9,"isDrum":true},{"pitch":44,"velocity":128,"startTime":89.556498,"endTime":89.7929508,"instrument":9,"isDrum":true},{"pitch":38,"velocity":128,"startTime":89.556498,"endTime":89.624231875,"instrument":9,"isDrum":true},{"pitch":46,"velocity":80,"startTime":89.852064,"endTime":89.907482625,"instrument":9,"isDrum":true},{"pitch":36,"velocity":120,"startTime":89.852064,"endTime":89.88900975,"instrument":9,"isDrum":true},{"pitch":44,"velocity":124,"startTime":90.14763,"endTime":90.264624875,"instrument":9,"isDrum":true},{"pitch":38,"velocity":128,"startTime":90.14763,"endTime":90.20920625,"instrument":9,"isDrum":true},{"pitch":44,"velocity":128,"startTime":90.295413,"endTime":90.350831625,"instrument":9,"isDrum":true},{"pitch":40,"velocity":100,"startTime":90.36314687500001,"endTime":90.400092625,"instrument":9,"isDrum":true},{"pitch":44,"velocity":124,"startTime":90.44319600000001,"endTime":90.48014175,"instrument":9,"isDrum":true},{"pitch":44,"velocity":125,"startTime":90.590979,"endTime":90.62423017500001,"instrument":9,"isDrum":true},{"pitch":44,"velocity":126,"startTime":90.73876200000001,"endTime":90.77570775000001,"instrument":9,"isDrum":true},{"pitch":38,"velocity":128,"startTime":90.73876200000001,"endTime":90.8126535,"instrument":9,"isDrum":true},{"pitch":36,"velocity":120,"startTime":90.886545,"endTime":90.941963625,"instrument":9,"isDrum":true},{"pitch":46,"velocity":80,"startTime":90.886545,"endTime":90.941963625,"instrument":9,"isDrum":true},{"pitch":46,"velocity":80,"startTime":91.034328,"endTime":91.089746625,"instrument":9,"isDrum":true},{"pitch":36,"velocity":120,"startTime":91.034328,"endTime":91.10206187500002,"instrument":9,"isDrum":true},{"pitch":38,"velocity":128,"startTime":91.329894,"endTime":91.379155,"instrument":9,"isDrum":true},{"pitch":44,"velocity":121,"startTime":91.47767700000001,"endTime":91.50846512500001,"instrument":9,"isDrum":true},{"pitch":44,"velocity":124,"startTime":91.62546,"endTime":91.668563375,"instrument":9,"isDrum":true},{"pitch":38,"velocity":128,"startTime":91.92102600000001,"endTime":91.98875987500001,"instrument":9,"isDrum":true},{"pitch":36,"velocity":120,"startTime":92.068809,"endTime":92.124227625,"instrument":9,"isDrum":true},{"pitch":46,"velocity":80,"startTime":92.068809,"endTime":92.124227625,"instrument":9,"isDrum":true},{"pitch":46,"velocity":80,"startTime":92.216592,"endTime":92.27201062500001,"instrument":9,"isDrum":true},{"pitch":36,"velocity":120,"startTime":92.216592,"endTime":92.25353775,"instrument":9,"isDrum":true},{"pitch":44,"velocity":124,"startTime":92.51215800000001,"endTime":92.62915287499999,"instrument":9,"isDrum":true},{"pitch":38,"velocity":128,"startTime":92.51215800000001,"endTime":92.57373425,"instrument":9,"isDrum":true},{"pitch":44,"velocity":128,"startTime":92.659941,"endTime":92.715359625,"instrument":9,"isDrum":true},{"pitch":40,"velocity":100,"startTime":92.727674875,"endTime":92.76462062500002,"instrument":9,"isDrum":true},{"pitch":44,"velocity":124,"startTime":92.80772400000001,"endTime":92.84466975000001,"instrument":9,"isDrum":true},{"pitch":44,"velocity":125,"startTime":92.95550700000001,"endTime":92.98875817500002,"instrument":9,"isDrum":true},{"pitch":44,"velocity":126,"startTime":93.10329,"endTime":93.14023575,"instrument":9,"isDrum":true},{"pitch":38,"velocity":128,"startTime":93.10329,"endTime":93.1771815,"instrument":9,"isDrum":true},{"pitch":36,"velocity":120,"startTime":93.251073,"endTime":93.306491625,"instrument":9,"isDrum":true},{"pitch":46,"velocity":80,"startTime":93.251073,"endTime":93.306491625,"instrument":9,"isDrum":true},{"pitch":46,"velocity":80,"startTime":93.398856,"endTime":93.454274625,"instrument":9,"isDrum":true},{"pitch":36,"velocity":120,"startTime":93.398856,"endTime":93.46658987500001,"instrument":9,"isDrum":true},{"pitch":38,"velocity":128,"startTime":93.694422,"endTime":93.74368300000002,"instrument":9,"isDrum":true},{"pitch":44,"velocity":121,"startTime":93.842205,"endTime":93.87299312500001,"instrument":9,"isDrum":true},{"pitch":44,"velocity":124,"startTime":93.98998800000001,"endTime":94.033091375,"instrument":9,"isDrum":true},{"pitch":38,"velocity":128,"startTime":94.285554,"endTime":94.353287875,"instrument":9,"isDrum":true},{"pitch":46,"velocity":80,"startTime":94.58112000000001,"endTime":94.636538625,"instrument":9,"isDrum":true},{"pitch":36,"velocity":120,"startTime":94.58112000000001,"endTime":94.61806575000001,"instrument":9,"isDrum":true},{"pitch":44,"velocity":124,"startTime":94.876686,"endTime":94.993680875,"instrument":9,"isDrum":true},{"pitch":38,"velocity":128,"startTime":94.876686,"endTime":94.93826225000001,"instrument":9,"isDrum":true},{"pitch":44,"velocity":128,"startTime":95.02446900000001,"endTime":95.07988762500001,"instrument":9,"isDrum":true},{"pitch":40,"velocity":100,"startTime":95.09220287500001,"endTime":95.12914862500001,"instrument":9,"isDrum":true},{"pitch":44,"velocity":124,"startTime":95.172252,"endTime":95.20919775,"instrument":9,"isDrum":true},{"pitch":44,"velocity":125,"startTime":95.320035,"endTime":95.35328617500001,"instrument":9,"isDrum":true},{"pitch":44,"velocity":126,"startTime":95.467818,"endTime":95.50476375000001,"instrument":9,"isDrum":true},{"pitch":38,"velocity":128,"startTime":95.467818,"endTime":95.54170950000001,"instrument":9,"isDrum":true},{"pitch":46,"velocity":80,"startTime":95.615601,"endTime":95.671019625,"instrument":9,"isDrum":true},{"pitch":36,"velocity":120,"startTime":95.615601,"endTime":95.671019625,"instrument":9,"isDrum":true},{"pitch":46,"velocity":80,"startTime":95.76338400000002,"endTime":95.81880262500002,"instrument":9,"isDrum":true},{"pitch":36,"velocity":120,"startTime":95.76338400000002,"endTime":95.831117875,"instrument":9,"isDrum":true},{"pitch":38,"velocity":128,"startTime":96.05895000000001,"endTime":96.10821100000001,"instrument":9,"isDrum":true},{"pitch":44,"velocity":121,"startTime":96.206733,"endTime":96.23752112500001,"instrument":9,"isDrum":true},{"pitch":44,"velocity":124,"startTime":96.354516,"endTime":96.39761937499999,"instrument":9,"isDrum":true},{"pitch":38,"velocity":128,"startTime":96.650082,"endTime":96.717815875,"instrument":9,"isDrum":true},{"pitch":46,"velocity":80,"startTime":96.945648,"endTime":97.001066625,"instrument":9,"isDrum":true},{"pitch":36,"velocity":120,"startTime":96.945648,"endTime":96.98259375,"instrument":9,"isDrum":true},{"pitch":44,"velocity":124,"startTime":97.241214,"endTime":97.358208875,"instrument":9,"isDrum":true},{"pitch":38,"velocity":128,"startTime":97.241214,"endTime":97.30279025,"instrument":9,"isDrum":true},{"pitch":44,"velocity":128,"startTime":97.388997,"endTime":97.444415625,"instrument":9,"isDrum":true},{"pitch":40,"velocity":100,"startTime":97.456730875,"endTime":97.493676625,"instrument":9,"isDrum":true},{"pitch":44,"velocity":124,"startTime":97.53678,"endTime":97.57372575000001,"instrument":9,"isDrum":true},{"pitch":44,"velocity":125,"startTime":97.684563,"endTime":97.717814175,"instrument":9,"isDrum":true},{"pitch":44,"velocity":126,"startTime":97.83234600000002,"endTime":97.86929175,"instrument":9,"isDrum":true},{"pitch":38,"velocity":128,"startTime":97.83234600000002,"endTime":97.9062375,"instrument":9,"isDrum":true},{"pitch":36,"velocity":120,"startTime":97.980129,"endTime":98.035547625,"instrument":9,"isDrum":true},{"pitch":46,"velocity":80,"startTime":97.980129,"endTime":98.035547625,"instrument":9,"isDrum":true},{"pitch":46,"velocity":80,"startTime":98.12791200000001,"endTime":98.18333062500001,"instrument":9,"isDrum":true},{"pitch":36,"velocity":120,"startTime":98.12791200000001,"endTime":98.19564587500001,"instrument":9,"isDrum":true},{"pitch":38,"velocity":128,"startTime":98.423478,"endTime":98.472739,"instrument":9,"isDrum":true},{"pitch":44,"velocity":121,"startTime":98.57126099999999,"endTime":98.60204912500001,"instrument":9,"isDrum":true},{"pitch":44,"velocity":124,"startTime":98.719044,"endTime":98.762147375,"instrument":9,"isDrum":true},{"pitch":44,"velocity":128,"startTime":98.86682700000001,"endTime":98.9850534,"instrument":9,"isDrum":true},{"pitch":44,"velocity":128,"startTime":99.01461,"endTime":99.2510628,"instrument":9,"isDrum":true},{"pitch":38,"velocity":128,"startTime":99.01461,"endTime":99.08234387500002,"instrument":9,"isDrum":true},{"pitch":46,"velocity":80,"startTime":99.310176,"endTime":99.365594625,"instrument":9,"isDrum":true},{"pitch":36,"velocity":120,"startTime":99.310176,"endTime":99.34712175,"instrument":9,"isDrum":true},{"pitch":44,"velocity":124,"startTime":99.60574199999999,"endTime":99.722736875,"instrument":9,"isDrum":true},{"pitch":38,"velocity":128,"startTime":99.60574199999999,"endTime":99.66731825,"instrument":9,"isDrum":true},{"pitch":44,"velocity":128,"startTime":99.753525,"endTime":99.808943625,"instrument":9,"isDrum":true},{"pitch":40,"velocity":100,"startTime":99.82125887500001,"endTime":99.858204625,"instrument":9,"isDrum":true},{"pitch":44,"velocity":124,"startTime":99.90130800000001,"endTime":99.93825375,"instrument":9,"isDrum":true},{"pitch":44,"velocity":125,"startTime":100.049091,"endTime":100.08234217500001,"instrument":9,"isDrum":true},{"pitch":44,"velocity":126,"startTime":100.19687400000001,"endTime":100.23381975,"instrument":9,"isDrum":true},{"pitch":38,"velocity":128,"startTime":100.19687400000001,"endTime":100.2707655,"instrument":9,"isDrum":true},{"pitch":36,"velocity":120,"startTime":100.344657,"endTime":100.400075625,"instrument":9,"isDrum":true},{"pitch":46,"velocity":80,"startTime":100.344657,"endTime":100.400075625,"instrument":9,"isDrum":true},{"pitch":46,"velocity":80,"startTime":100.49244,"endTime":100.547858625,"instrument":9,"isDrum":true},{"pitch":36,"velocity":120,"startTime":100.49244,"endTime":100.56017387500002,"instrument":9,"isDrum":true},{"pitch":38,"velocity":128,"startTime":100.788006,"endTime":100.83726700000001,"instrument":9,"isDrum":true},{"pitch":44,"velocity":121,"startTime":100.93578900000001,"endTime":100.96657712500001,"instrument":9,"isDrum":true},{"pitch":44,"velocity":124,"startTime":101.083572,"endTime":101.126675375,"instrument":9,"isDrum":true},{"pitch":38,"velocity":128,"startTime":101.379138,"endTime":101.44687187500001,"instrument":9,"isDrum":true},{"pitch":36,"velocity":120,"startTime":101.526921,"endTime":101.582339625,"instrument":9,"isDrum":true},{"pitch":46,"velocity":80,"startTime":101.526921,"endTime":101.582339625,"instrument":9,"isDrum":true},{"pitch":46,"velocity":80,"startTime":101.674704,"endTime":101.730122625,"instrument":9,"isDrum":true},{"pitch":36,"velocity":120,"startTime":101.674704,"endTime":101.71164975,"instrument":9,"isDrum":true},{"pitch":44,"velocity":124,"startTime":101.97027000000001,"endTime":102.08726487499999,"instrument":9,"isDrum":true},{"pitch":38,"velocity":128,"startTime":101.97027000000001,"endTime":102.03184624999999,"instrument":9,"isDrum":true},{"pitch":44,"velocity":128,"startTime":102.118053,"endTime":102.173471625,"instrument":9,"isDrum":true},{"pitch":40,"velocity":100,"startTime":102.185786875,"endTime":102.222732625,"instrument":9,"isDrum":true},{"pitch":44,"velocity":124,"startTime":102.26583600000001,"endTime":102.30278175000001,"instrument":9,"isDrum":true},{"pitch":44,"velocity":125,"startTime":102.413619,"endTime":102.44687017500002,"instrument":9,"isDrum":true},{"pitch":44,"velocity":126,"startTime":102.561402,"endTime":102.59834775,"instrument":9,"isDrum":true},{"pitch":38,"velocity":128,"startTime":102.561402,"endTime":102.6352935,"instrument":9,"isDrum":true},{"pitch":36,"velocity":120,"startTime":102.709185,"endTime":102.764603625,"instrument":9,"isDrum":true},{"pitch":46,"velocity":80,"startTime":102.709185,"endTime":102.764603625,"instrument":9,"isDrum":true},{"pitch":46,"velocity":80,"startTime":102.856968,"endTime":102.912386625,"instrument":9,"isDrum":true},{"pitch":36,"velocity":120,"startTime":102.856968,"endTime":102.92470187500001,"instrument":9,"isDrum":true},{"pitch":38,"velocity":128,"startTime":103.152534,"endTime":103.20179500000002,"instrument":9,"isDrum":true},{"pitch":44,"velocity":121,"startTime":103.300317,"endTime":103.33110512500001,"instrument":9,"isDrum":true},{"pitch":44,"velocity":124,"startTime":103.4481,"endTime":103.491203375,"instrument":9,"isDrum":true},{"pitch":38,"velocity":128,"startTime":103.743666,"endTime":103.811399875,"instrument":9,"isDrum":true},{"pitch":46,"velocity":80,"startTime":104.03923200000001,"endTime":104.09465062500001,"instrument":9,"isDrum":true},{"pitch":36,"velocity":120,"startTime":104.03923200000001,"endTime":104.07617775,"instrument":9,"isDrum":true},{"pitch":44,"velocity":124,"startTime":104.334798,"endTime":104.45179287500001,"instrument":9,"isDrum":true},{"pitch":38,"velocity":128,"startTime":104.334798,"endTime":104.39637425000001,"instrument":9,"isDrum":true},{"pitch":44,"velocity":128,"startTime":104.48258100000001,"endTime":104.537999625,"instrument":9,"isDrum":true},{"pitch":40,"velocity":100,"startTime":104.55031487500001,"endTime":104.58726062500001,"instrument":9,"isDrum":true},{"pitch":44,"velocity":124,"startTime":104.630364,"endTime":104.66730975,"instrument":9,"isDrum":true},{"pitch":44,"velocity":125,"startTime":104.778147,"endTime":104.81139817500001,"instrument":9,"isDrum":true},{"pitch":44,"velocity":126,"startTime":104.92593,"endTime":104.96287575000001,"instrument":9,"isDrum":true},{"pitch":38,"velocity":128,"startTime":104.92593,"endTime":104.99982150000001,"instrument":9,"isDrum":true},{"pitch":46,"velocity":80,"startTime":105.07371300000001,"endTime":105.12913162500001,"instrument":9,"isDrum":true},{"pitch":36,"velocity":120,"startTime":105.07371300000001,"endTime":105.12913162500001,"instrument":9,"isDrum":true},{"pitch":46,"velocity":80,"startTime":105.221496,"endTime":105.276914625,"instrument":9,"isDrum":true},{"pitch":36,"velocity":120,"startTime":105.221496,"endTime":105.289229875,"instrument":9,"isDrum":true},{"pitch":38,"velocity":128,"startTime":105.51706200000001,"endTime":105.56632300000001,"instrument":9,"isDrum":true},{"pitch":44,"velocity":121,"startTime":105.664845,"endTime":105.69563312500001,"instrument":9,"isDrum":true},{"pitch":44,"velocity":124,"startTime":105.812628,"endTime":105.85573137499999,"instrument":9,"isDrum":true},{"pitch":38,"velocity":128,"startTime":106.10819400000001,"endTime":106.175927875,"instrument":9,"isDrum":true},{"pitch":46,"velocity":80,"startTime":106.40376,"endTime":106.459178625,"instrument":9,"isDrum":true},{"pitch":36,"velocity":120,"startTime":106.40376,"endTime":106.44070575,"instrument":9,"isDrum":true},{"pitch":44,"velocity":124,"startTime":106.699326,"endTime":106.816320875,"instrument":9,"isDrum":true},{"pitch":38,"velocity":128,"startTime":106.699326,"endTime":106.76090225,"instrument":9,"isDrum":true},{"pitch":44,"velocity":128,"startTime":106.847109,"endTime":106.902527625,"instrument":9,"isDrum":true},{"pitch":40,"velocity":100,"startTime":106.914842875,"endTime":106.951788625,"instrument":9,"isDrum":true},{"pitch":44,"velocity":124,"startTime":106.994892,"endTime":107.03183775000001,"instrument":9,"isDrum":true},{"pitch":44,"velocity":125,"startTime":107.14267500000001,"endTime":107.175926175,"instrument":9,"isDrum":true},{"pitch":44,"velocity":126,"startTime":107.290458,"endTime":107.32740375,"instrument":9,"isDrum":true},{"pitch":38,"velocity":128,"startTime":107.290458,"endTime":107.3643495,"instrument":9,"isDrum":true},{"pitch":36,"velocity":120,"startTime":107.438241,"endTime":107.493659625,"instrument":9,"isDrum":true},{"pitch":46,"velocity":80,"startTime":107.438241,"endTime":107.493659625,"instrument":9,"isDrum":true},{"pitch":46,"velocity":80,"startTime":107.58602400000001,"endTime":107.64144262500001,"instrument":9,"isDrum":true},{"pitch":36,"velocity":120,"startTime":107.58602400000001,"endTime":107.65375787500001,"instrument":9,"isDrum":true},{"pitch":38,"velocity":128,"startTime":107.88159,"endTime":107.930851,"instrument":9,"isDrum":true},{"pitch":44,"velocity":121,"startTime":108.02937299999999,"endTime":108.06016112500001,"instrument":9,"isDrum":true},{"pitch":44,"velocity":124,"startTime":108.17715600000001,"endTime":108.220259375,"instrument":9,"isDrum":true},{"pitch":44,"velocity":128,"startTime":108.32493900000001,"endTime":108.4431654,"instrument":9,"isDrum":true},{"pitch":44,"velocity":128,"startTime":108.472722,"endTime":108.70917480000001,"instrument":9,"isDrum":true},{"pitch":38,"velocity":128,"startTime":108.472722,"endTime":108.54045587500002,"instrument":9,"isDrum":true},{"pitch":46,"velocity":80,"startTime":108.768288,"endTime":108.823706625,"instrument":9,"isDrum":true},{"pitch":36,"velocity":120,"startTime":108.768288,"endTime":108.80523375,"instrument":9,"isDrum":true},{"pitch":44,"velocity":124,"startTime":109.06385399999999,"endTime":109.180848875,"instrument":9,"isDrum":true},{"pitch":38,"velocity":128,"startTime":109.06385399999999,"endTime":109.12543025,"instrument":9,"isDrum":true},{"pitch":44,"velocity":128,"startTime":109.21163700000001,"endTime":109.26705562500001,"instrument":9,"isDrum":true},{"pitch":40,"velocity":100,"startTime":109.279370875,"endTime":109.31631662500001,"instrument":9,"isDrum":true},{"pitch":44,"velocity":124,"startTime":109.35942000000001,"endTime":109.39636575,"instrument":9,"isDrum":true},{"pitch":44,"velocity":125,"startTime":109.507203,"endTime":109.540454175,"instrument":9,"isDrum":true},{"pitch":44,"velocity":126,"startTime":109.65498600000001,"endTime":109.69193175,"instrument":9,"isDrum":true},{"pitch":38,"velocity":128,"startTime":109.65498600000001,"endTime":109.72887750000001,"instrument":9,"isDrum":true},{"pitch":36,"velocity":120,"startTime":109.802769,"endTime":109.858187625,"instrument":9,"isDrum":true},{"pitch":46,"velocity":80,"startTime":109.802769,"endTime":109.858187625,"instrument":9,"isDrum":true},{"pitch":46,"velocity":80,"startTime":109.950552,"endTime":110.005970625,"instrument":9,"isDrum":true},{"pitch":36,"velocity":120,"startTime":109.950552,"endTime":110.018285875,"instrument":9,"isDrum":true},{"pitch":38,"velocity":128,"startTime":110.24611800000001,"endTime":110.29537900000001,"instrument":9,"isDrum":true},{"pitch":44,"velocity":121,"startTime":110.39390100000001,"endTime":110.424689125,"instrument":9,"isDrum":true},{"pitch":44,"velocity":124,"startTime":110.541684,"endTime":110.584787375,"instrument":9,"isDrum":true},{"pitch":38,"velocity":128,"startTime":110.83725,"endTime":110.90498387500001,"instrument":9,"isDrum":true},{"pitch":36,"velocity":120,"startTime":110.985033,"endTime":111.040451625,"instrument":9,"isDrum":true},{"pitch":46,"velocity":80,"startTime":110.985033,"endTime":111.040451625,"instrument":9,"isDrum":true},{"pitch":46,"velocity":80,"startTime":111.13281599999999,"endTime":111.18823462499999,"instrument":9,"isDrum":true},{"pitch":36,"velocity":120,"startTime":111.13281599999999,"endTime":111.16976175,"instrument":9,"isDrum":true},{"pitch":44,"velocity":124,"startTime":111.42838200000001,"endTime":111.54537687499999,"instrument":9,"isDrum":true},{"pitch":38,"velocity":128,"startTime":111.42838200000001,"endTime":111.48995825,"instrument":9,"isDrum":true},{"pitch":44,"velocity":128,"startTime":111.576165,"endTime":111.631583625,"instrument":9,"isDrum":true},{"pitch":40,"velocity":100,"startTime":111.64389887500002,"endTime":111.680844625,"instrument":9,"isDrum":true},{"pitch":44,"velocity":124,"startTime":111.72394800000001,"endTime":111.76089375,"instrument":9,"isDrum":true},{"pitch":44,"velocity":125,"startTime":111.871731,"endTime":111.90498217500001,"instrument":9,"isDrum":true},{"pitch":44,"velocity":126,"startTime":112.019514,"endTime":112.05645975000002,"instrument":9,"isDrum":true},{"pitch":38,"velocity":128,"startTime":112.019514,"endTime":112.0934055,"instrument":9,"isDrum":true},{"pitch":36,"velocity":120,"startTime":112.16729699999999,"endTime":112.22271562499999,"instrument":9,"isDrum":true},{"pitch":46,"velocity":80,"startTime":112.16729699999999,"endTime":112.22271562499999,"instrument":9,"isDrum":true},{"pitch":46,"velocity":80,"startTime":112.31508000000001,"endTime":112.37049862500001,"instrument":9,"isDrum":true},{"pitch":36,"velocity":120,"startTime":112.31508000000001,"endTime":112.38281387500001,"instrument":9,"isDrum":true},{"pitch":38,"velocity":128,"startTime":112.610646,"endTime":112.659907,"instrument":9,"isDrum":true},{"pitch":44,"velocity":121,"startTime":112.758429,"endTime":112.78921712500001,"instrument":9,"isDrum":true},{"pitch":44,"velocity":124,"startTime":112.906212,"endTime":112.949315375,"instrument":9,"isDrum":true},{"pitch":38,"velocity":128,"startTime":113.20177799999999,"endTime":113.269511875,"instrument":9,"isDrum":true},{"pitch":46,"velocity":80,"startTime":113.49734400000001,"endTime":113.55276262500001,"instrument":9,"isDrum":true},{"pitch":36,"velocity":120,"startTime":113.49734400000001,"endTime":113.53428975,"instrument":9,"isDrum":true},{"pitch":44,"velocity":124,"startTime":113.79291,"endTime":113.90990487500001,"instrument":9,"isDrum":true},{"pitch":38,"velocity":128,"startTime":113.79291,"endTime":113.85448625000001,"instrument":9,"isDrum":true},{"pitch":44,"velocity":128,"startTime":113.940693,"endTime":113.996111625,"instrument":9,"isDrum":true},{"pitch":40,"velocity":100,"startTime":114.00842687500001,"endTime":114.04537262500001,"instrument":9,"isDrum":true},{"pitch":44,"velocity":124,"startTime":114.088476,"endTime":114.12542175000002,"instrument":9,"isDrum":true},{"pitch":44,"velocity":125,"startTime":114.236259,"endTime":114.26951017500001,"instrument":9,"isDrum":true},{"pitch":44,"velocity":126,"startTime":114.38404200000001,"endTime":114.42098775000001,"instrument":9,"isDrum":true},{"pitch":38,"velocity":128,"startTime":114.38404200000001,"endTime":114.4579335,"instrument":9,"isDrum":true},{"pitch":46,"velocity":80,"startTime":114.53182500000001,"endTime":114.58724362500001,"instrument":9,"isDrum":true},{"pitch":36,"velocity":120,"startTime":114.53182500000001,"endTime":114.58724362500001,"instrument":9,"isDrum":true},{"pitch":46,"velocity":80,"startTime":114.679608,"endTime":114.735026625,"instrument":9,"isDrum":true},{"pitch":36,"velocity":120,"startTime":114.679608,"endTime":114.74734187500002,"instrument":9,"isDrum":true},{"pitch":38,"velocity":128,"startTime":114.975174,"endTime":115.02443500000001,"instrument":9,"isDrum":true},{"pitch":44,"velocity":121,"startTime":115.122957,"endTime":115.15374512500001,"instrument":9,"isDrum":true},{"pitch":44,"velocity":124,"startTime":115.27074,"endTime":115.313843375,"instrument":9,"isDrum":true},{"pitch":38,"velocity":128,"startTime":115.56630600000001,"endTime":115.634039875,"instrument":9,"isDrum":true},{"pitch":46,"velocity":80,"startTime":115.861872,"endTime":115.917290625,"instrument":9,"isDrum":true},{"pitch":36,"velocity":120,"startTime":115.861872,"endTime":115.89881775,"instrument":9,"isDrum":true},{"pitch":44,"velocity":124,"startTime":116.157438,"endTime":116.274432875,"instrument":9,"isDrum":true},{"pitch":38,"velocity":128,"startTime":116.157438,"endTime":116.21901425,"instrument":9,"isDrum":true},{"pitch":44,"velocity":128,"startTime":116.305221,"endTime":116.360639625,"instrument":9,"isDrum":true},{"pitch":40,"velocity":100,"startTime":116.372954875,"endTime":116.409900625,"instrument":9,"isDrum":true},{"pitch":44,"velocity":124,"startTime":116.453004,"endTime":116.48994975000001,"instrument":9,"isDrum":true},{"pitch":44,"velocity":125,"startTime":116.60078700000001,"endTime":116.634038175,"instrument":9,"isDrum":true},{"pitch":44,"velocity":126,"startTime":116.74857,"endTime":116.78551575,"instrument":9,"isDrum":true},{"pitch":38,"velocity":128,"startTime":116.74857,"endTime":116.8224615,"instrument":9,"isDrum":true},{"pitch":36,"velocity":120,"startTime":116.896353,"endTime":116.951771625,"instrument":9,"isDrum":true},{"pitch":46,"velocity":80,"startTime":116.896353,"endTime":116.951771625,"instrument":9,"isDrum":true},{"pitch":46,"velocity":80,"startTime":117.04413600000001,"endTime":117.099554625,"instrument":9,"isDrum":true},{"pitch":36,"velocity":120,"startTime":117.04413600000001,"endTime":117.11186987500001,"instrument":9,"isDrum":true},{"pitch":38,"velocity":128,"startTime":117.339702,"endTime":117.38896300000002,"instrument":9,"isDrum":true},{"pitch":44,"velocity":121,"startTime":117.487485,"endTime":117.51827312500001,"instrument":9,"isDrum":true},{"pitch":44,"velocity":124,"startTime":117.63526800000001,"endTime":117.678371375,"instrument":9,"isDrum":true},{"pitch":44,"velocity":128,"startTime":117.783051,"endTime":117.9012774,"instrument":9,"isDrum":true},{"pitch":44,"velocity":128,"startTime":117.930834,"endTime":118.16728680000001,"instrument":9,"isDrum":true},{"pitch":38,"velocity":128,"startTime":117.930834,"endTime":117.99856787500002,"instrument":9,"isDrum":true},{"pitch":46,"velocity":80,"startTime":118.2264,"endTime":118.281818625,"instrument":9,"isDrum":true},{"pitch":36,"velocity":120,"startTime":118.2264,"endTime":118.26334575000001,"instrument":9,"isDrum":true},{"pitch":44,"velocity":124,"startTime":118.521966,"endTime":118.638960875,"instrument":9,"isDrum":true},{"pitch":38,"velocity":128,"startTime":118.521966,"endTime":118.58354225,"instrument":9,"isDrum":true},{"pitch":44,"velocity":128,"startTime":118.66974900000001,"endTime":118.72516762500001,"instrument":9,"isDrum":true},{"pitch":40,"velocity":100,"startTime":118.737482875,"endTime":118.77442862500001,"instrument":9,"isDrum":true},{"pitch":44,"velocity":124,"startTime":118.81753199999999,"endTime":118.85447775,"instrument":9,"isDrum":true},{"pitch":44,"velocity":125,"startTime":118.965315,"endTime":118.998566175,"instrument":9,"isDrum":true},{"pitch":44,"velocity":126,"startTime":119.11309800000002,"endTime":119.15004375,"instrument":9,"isDrum":true},{"pitch":38,"velocity":128,"startTime":119.11309800000002,"endTime":119.18698950000001,"instrument":9,"isDrum":true},{"pitch":36,"velocity":120,"startTime":119.260881,"endTime":119.316299625,"instrument":9,"isDrum":true},{"pitch":46,"velocity":80,"startTime":119.260881,"endTime":119.316299625,"instrument":9,"isDrum":true},{"pitch":46,"velocity":80,"startTime":119.40866400000002,"endTime":119.46408262500002,"instrument":9,"isDrum":true},{"pitch":36,"velocity":120,"startTime":119.40866400000002,"endTime":119.476397875,"instrument":9,"isDrum":true},{"pitch":38,"velocity":128,"startTime":119.70423000000001,"endTime":119.75349100000001,"instrument":9,"isDrum":true},{"pitch":44,"velocity":121,"startTime":119.85201299999999,"endTime":119.882801125,"instrument":9,"isDrum":true},{"pitch":44,"velocity":124,"startTime":119.999796,"endTime":120.042899375,"instrument":9,"isDrum":true},{"pitch":38,"velocity":128,"startTime":120.295362,"endTime":120.36309587500003,"instrument":9,"isDrum":true},{"pitch":36,"velocity":120,"startTime":120.44314500000002,"endTime":120.49856362500002,"instrument":9,"isDrum":true},{"pitch":46,"velocity":80,"startTime":120.44314500000002,"endTime":120.49856362500002,"instrument":9,"isDrum":true},{"pitch":46,"velocity":80,"startTime":120.59092799999999,"endTime":120.64634662499999,"instrument":9,"isDrum":true},{"pitch":36,"velocity":120,"startTime":120.59092799999999,"endTime":120.62787375,"instrument":9,"isDrum":true},{"pitch":44,"velocity":124,"startTime":120.88649399999998,"endTime":121.00348887499999,"instrument":9,"isDrum":true},{"pitch":38,"velocity":128,"startTime":120.88649399999998,"endTime":120.94807024999999,"instrument":9,"isDrum":true},{"pitch":44,"velocity":128,"startTime":121.034277,"endTime":121.089695625,"instrument":9,"isDrum":true},{"pitch":40,"velocity":100,"startTime":121.102010875,"endTime":121.138956625,"instrument":9,"isDrum":true},{"pitch":44,"velocity":124,"startTime":121.18206000000002,"endTime":121.21900575,"instrument":9,"isDrum":true},{"pitch":44,"velocity":125,"startTime":121.329843,"endTime":121.363094175,"instrument":9,"isDrum":true},{"pitch":44,"velocity":126,"startTime":121.47762600000001,"endTime":121.51457174999999,"instrument":9,"isDrum":true},{"pitch":38,"velocity":128,"startTime":121.47762600000001,"endTime":121.5515175,"instrument":9,"isDrum":true},{"pitch":36,"velocity":120,"startTime":121.62540899999999,"endTime":121.68082762499999,"instrument":9,"isDrum":true},{"pitch":46,"velocity":80,"startTime":121.62540899999999,"endTime":121.68082762499999,"instrument":9,"isDrum":true},{"pitch":46,"velocity":80,"startTime":121.77319200000001,"endTime":121.82861062500001,"instrument":9,"isDrum":true},{"pitch":36,"velocity":120,"startTime":121.77319200000001,"endTime":121.840925875,"instrument":9,"isDrum":true},{"pitch":38,"velocity":128,"startTime":122.068758,"endTime":122.118019,"instrument":9,"isDrum":true},{"pitch":44,"velocity":121,"startTime":122.21654100000002,"endTime":122.24732912500001,"instrument":9,"isDrum":true},{"pitch":44,"velocity":124,"startTime":122.364324,"endTime":122.40742737500001,"instrument":9,"isDrum":true},{"pitch":38,"velocity":128,"startTime":122.65988999999999,"endTime":122.72762387500002,"instrument":9,"isDrum":true},{"pitch":46,"velocity":80,"startTime":122.955456,"endTime":123.01087462499999,"instrument":9,"isDrum":true},{"pitch":36,"velocity":120,"startTime":122.955456,"endTime":122.99240175,"instrument":9,"isDrum":true},{"pitch":44,"velocity":124,"startTime":123.25102200000002,"endTime":123.36801687499998,"instrument":9,"isDrum":true},{"pitch":38,"velocity":128,"startTime":123.25102200000002,"endTime":123.31259824999998,"instrument":9,"isDrum":true},{"pitch":44,"velocity":128,"startTime":123.398805,"endTime":123.454223625,"instrument":9,"isDrum":true},{"pitch":40,"velocity":100,"startTime":123.46653887500003,"endTime":123.503484625,"instrument":9,"isDrum":true},{"pitch":44,"velocity":124,"startTime":123.54658800000001,"endTime":123.58353374999999,"instrument":9,"isDrum":true},{"pitch":44,"velocity":125,"startTime":123.69437099999999,"endTime":123.72762217500002,"instrument":9,"isDrum":true},{"pitch":44,"velocity":126,"startTime":123.84215400000001,"endTime":123.87909975000002,"instrument":9,"isDrum":true},{"pitch":38,"velocity":128,"startTime":123.84215400000001,"endTime":123.9160455,"instrument":9,"isDrum":true},{"pitch":46,"velocity":80,"startTime":123.989937,"endTime":124.045355625,"instrument":9,"isDrum":true},{"pitch":36,"velocity":120,"startTime":123.989937,"endTime":124.045355625,"instrument":9,"isDrum":true},{"pitch":46,"velocity":80,"startTime":124.13772,"endTime":124.193138625,"instrument":9,"isDrum":true},{"pitch":36,"velocity":120,"startTime":124.13772,"endTime":124.205453875,"instrument":9,"isDrum":true},{"pitch":38,"velocity":128,"startTime":124.433286,"endTime":124.48254700000001,"instrument":9,"isDrum":true},{"pitch":44,"velocity":121,"startTime":124.58106900000001,"endTime":124.611857125,"instrument":9,"isDrum":true},{"pitch":44,"velocity":124,"startTime":124.72885199999999,"endTime":124.771955375,"instrument":9,"isDrum":true},{"pitch":38,"velocity":128,"startTime":125.024418,"endTime":125.09215187500001,"instrument":9,"isDrum":true},{"pitch":46,"velocity":80,"startTime":125.31998400000002,"endTime":125.37540262500002,"instrument":9,"isDrum":true},{"pitch":36,"velocity":120,"startTime":125.31998400000002,"endTime":125.35692974999999,"instrument":9,"isDrum":true},{"pitch":44,"velocity":124,"startTime":125.61555000000001,"endTime":125.73254487500002,"instrument":9,"isDrum":true},{"pitch":38,"velocity":128,"startTime":125.61555000000001,"endTime":125.67712625000001,"instrument":9,"isDrum":true},{"pitch":44,"velocity":128,"startTime":125.76333299999999,"endTime":125.81875162499999,"instrument":9,"isDrum":true},{"pitch":40,"velocity":100,"startTime":125.83106687500002,"endTime":125.868012625,"instrument":9,"isDrum":true},{"pitch":44,"velocity":124,"startTime":125.911116,"endTime":125.94806175000002,"instrument":9,"isDrum":true},{"pitch":44,"velocity":125,"startTime":126.058899,"endTime":126.09215017500001,"instrument":9,"isDrum":true},{"pitch":44,"velocity":126,"startTime":126.206682,"endTime":126.24362775000002,"instrument":9,"isDrum":true},{"pitch":38,"velocity":128,"startTime":126.206682,"endTime":126.28057349999999,"instrument":9,"isDrum":true},{"pitch":36,"velocity":120,"startTime":126.35446500000002,"endTime":126.40988362500002,"instrument":9,"isDrum":true},{"pitch":46,"velocity":80,"startTime":126.35446500000002,"endTime":126.40988362500002,"instrument":9,"isDrum":true},{"pitch":46,"velocity":80,"startTime":126.502248,"endTime":126.557666625,"instrument":9,"isDrum":true},{"pitch":36,"velocity":120,"startTime":126.502248,"endTime":126.56998187500002,"instrument":9,"isDrum":true},{"pitch":38,"velocity":128,"startTime":126.797814,"endTime":126.847075,"instrument":9,"isDrum":true},{"pitch":44,"velocity":121,"startTime":126.945597,"endTime":126.97638512500002,"instrument":9,"isDrum":true},{"pitch":44,"velocity":124,"startTime":127.09338,"endTime":127.136483375,"instrument":9,"isDrum":true},{"pitch":44,"velocity":128,"startTime":127.241163,"endTime":127.35938940000001,"instrument":9,"isDrum":true},{"pitch":44,"velocity":128,"startTime":127.38894600000002,"endTime":127.6253988,"instrument":9,"isDrum":true},{"pitch":38,"velocity":128,"startTime":127.38894600000002,"endTime":127.456679875,"instrument":9,"isDrum":true},{"pitch":46,"velocity":80,"startTime":127.68451200000001,"endTime":127.73993062500001,"instrument":9,"isDrum":true},{"pitch":36,"velocity":120,"startTime":127.68451200000001,"endTime":127.72145775,"instrument":9,"isDrum":true},{"pitch":44,"velocity":124,"startTime":127.980078,"endTime":128.097072875,"instrument":9,"isDrum":true},{"pitch":38,"velocity":128,"startTime":127.980078,"endTime":128.04165425,"instrument":9,"isDrum":true},{"pitch":44,"velocity":128,"startTime":128.127861,"endTime":128.18327962499998,"instrument":9,"isDrum":true},{"pitch":40,"velocity":100,"startTime":128.195594875,"endTime":128.23254062499998,"instrument":9,"isDrum":true},{"pitch":44,"velocity":124,"startTime":128.275644,"endTime":128.31258975000003,"instrument":9,"isDrum":true},{"pitch":44,"velocity":125,"startTime":128.423427,"endTime":128.456678175,"instrument":9,"isDrum":true},{"pitch":44,"velocity":126,"startTime":128.57121,"endTime":128.60815575,"instrument":9,"isDrum":true},{"pitch":38,"velocity":128,"startTime":128.57121,"endTime":128.64510149999998,"instrument":9,"isDrum":true},{"pitch":36,"velocity":120,"startTime":128.718993,"endTime":128.77441162500003,"instrument":9,"isDrum":true},{"pitch":46,"velocity":80,"startTime":128.718993,"endTime":128.77441162500003,"instrument":9,"isDrum":true},{"pitch":46,"velocity":80,"startTime":128.866776,"endTime":128.922194625,"instrument":9,"isDrum":true},{"pitch":36,"velocity":120,"startTime":128.866776,"endTime":128.93450987500003,"instrument":9,"isDrum":true},{"pitch":38,"velocity":128,"startTime":129.162342,"endTime":129.211603,"instrument":9,"isDrum":true},{"pitch":44,"velocity":121,"startTime":129.310125,"endTime":129.34091312500001,"instrument":9,"isDrum":true},{"pitch":44,"velocity":124,"startTime":129.457908,"endTime":129.501011375,"instrument":9,"isDrum":true},{"pitch":38,"velocity":128,"startTime":129.753474,"endTime":129.821207875,"instrument":9,"isDrum":true},{"pitch":36,"velocity":120,"startTime":129.901257,"endTime":129.956675625,"instrument":9,"isDrum":true},{"pitch":46,"velocity":80,"startTime":129.901257,"endTime":129.956675625,"instrument":9,"isDrum":true},{"pitch":46,"velocity":80,"startTime":130.04904000000002,"endTime":130.104458625,"instrument":9,"isDrum":true},{"pitch":36,"velocity":120,"startTime":130.04904000000002,"endTime":130.08598575000002,"instrument":9,"isDrum":true},{"pitch":44,"velocity":124,"startTime":130.344606,"endTime":130.46160087500002,"instrument":9,"isDrum":true},{"pitch":38,"velocity":128,"startTime":130.344606,"endTime":130.40618225,"instrument":9,"isDrum":true},{"pitch":44,"velocity":128,"startTime":130.49238900000003,"endTime":130.54780762500002,"instrument":9,"isDrum":true},{"pitch":40,"velocity":100,"startTime":130.56012287500002,"endTime":130.59706862500002,"instrument":9,"isDrum":true},{"pitch":44,"velocity":124,"startTime":130.640172,"endTime":130.67711775,"instrument":9,"isDrum":true},{"pitch":44,"velocity":125,"startTime":130.787955,"endTime":130.82120617500001,"instrument":9,"isDrum":true},{"pitch":44,"velocity":126,"startTime":130.935738,"endTime":130.97268375000002,"instrument":9,"isDrum":true},{"pitch":38,"velocity":128,"startTime":130.935738,"endTime":131.00962950000002,"instrument":9,"isDrum":true},{"pitch":36,"velocity":120,"startTime":131.08352100000002,"endTime":131.138939625,"instrument":9,"isDrum":true},{"pitch":46,"velocity":80,"startTime":131.08352100000002,"endTime":131.138939625,"instrument":9,"isDrum":true},{"pitch":46,"velocity":80,"startTime":131.231304,"endTime":131.28672262499998,"instrument":9,"isDrum":true},{"pitch":36,"velocity":120,"startTime":131.231304,"endTime":131.299037875,"instrument":9,"isDrum":true},{"pitch":38,"velocity":128,"startTime":131.52687000000003,"endTime":131.57613100000003,"instrument":9,"isDrum":true},{"pitch":44,"velocity":121,"startTime":131.674653,"endTime":131.70544112500002,"instrument":9,"isDrum":true},{"pitch":44,"velocity":124,"startTime":131.822436,"endTime":131.865539375,"instrument":9,"isDrum":true},{"pitch":38,"velocity":128,"startTime":132.11800200000002,"endTime":132.185735875,"instrument":9,"isDrum":true},{"pitch":46,"velocity":80,"startTime":132.413568,"endTime":132.468986625,"instrument":9,"isDrum":true},{"pitch":36,"velocity":120,"startTime":132.413568,"endTime":132.45051375000003,"instrument":9,"isDrum":true},{"pitch":44,"velocity":124,"startTime":132.709134,"endTime":132.82612887500002,"instrument":9,"isDrum":true},{"pitch":38,"velocity":128,"startTime":132.709134,"endTime":132.77071025000004,"instrument":9,"isDrum":true},{"pitch":44,"velocity":128,"startTime":132.856917,"endTime":132.91233562500003,"instrument":9,"isDrum":true},{"pitch":40,"velocity":100,"startTime":132.924650875,"endTime":132.961596625,"instrument":9,"isDrum":true},{"pitch":44,"velocity":124,"startTime":133.00469999999999,"endTime":133.04164575000001,"instrument":9,"isDrum":true},{"pitch":44,"velocity":125,"startTime":133.15248300000002,"endTime":133.185734175,"instrument":9,"isDrum":true},{"pitch":44,"velocity":126,"startTime":133.300266,"endTime":133.33721175,"instrument":9,"isDrum":true},{"pitch":38,"velocity":128,"startTime":133.300266,"endTime":133.37415750000002,"instrument":9,"isDrum":true},{"pitch":46,"velocity":80,"startTime":133.448049,"endTime":133.503467625,"instrument":9,"isDrum":true},{"pitch":36,"velocity":120,"startTime":133.448049,"endTime":133.503467625,"instrument":9,"isDrum":true},{"pitch":46,"velocity":80,"startTime":133.59583200000003,"endTime":133.65125062500002,"instrument":9,"isDrum":true},{"pitch":36,"velocity":120,"startTime":133.59583200000003,"endTime":133.663565875,"instrument":9,"isDrum":true},{"pitch":38,"velocity":128,"startTime":133.891398,"endTime":133.94065899999998,"instrument":9,"isDrum":true},{"pitch":44,"velocity":121,"startTime":134.03918099999999,"endTime":134.06996912499997,"instrument":9,"isDrum":true},{"pitch":44,"velocity":124,"startTime":134.18696400000002,"endTime":134.230067375,"instrument":9,"isDrum":true},{"pitch":38,"velocity":128,"startTime":134.48253,"endTime":134.550263875,"instrument":9,"isDrum":true},{"pitch":46,"velocity":80,"startTime":134.778096,"endTime":134.833514625,"instrument":9,"isDrum":true},{"pitch":36,"velocity":120,"startTime":134.778096,"endTime":134.81504175,"instrument":9,"isDrum":true},{"pitch":44,"velocity":124,"startTime":135.07366199999998,"endTime":135.19065687500003,"instrument":9,"isDrum":true},{"pitch":38,"velocity":128,"startTime":135.07366199999998,"endTime":135.13523825000001,"instrument":9,"isDrum":true},{"pitch":44,"velocity":128,"startTime":135.22144500000002,"endTime":135.276863625,"instrument":9,"isDrum":true},{"pitch":40,"velocity":100,"startTime":135.289178875,"endTime":135.32612462499998,"instrument":9,"isDrum":true},{"pitch":44,"velocity":124,"startTime":135.369228,"endTime":135.40617375,"instrument":9,"isDrum":true},{"pitch":44,"velocity":125,"startTime":135.517011,"endTime":135.550262175,"instrument":9,"isDrum":true},{"pitch":44,"velocity":126,"startTime":135.66479400000003,"endTime":135.70173975,"instrument":9,"isDrum":true},{"pitch":38,"velocity":128,"startTime":135.66479400000003,"endTime":135.7386855,"instrument":9,"isDrum":true},{"pitch":36,"velocity":120,"startTime":135.812577,"endTime":135.867995625,"instrument":9,"isDrum":true},{"pitch":46,"velocity":80,"startTime":135.812577,"endTime":135.867995625,"instrument":9,"isDrum":true},{"pitch":46,"velocity":80,"startTime":135.96036,"endTime":136.01577862500002,"instrument":9,"isDrum":true},{"pitch":36,"velocity":120,"startTime":135.96036,"endTime":136.028093875,"instrument":9,"isDrum":true},{"pitch":38,"velocity":128,"startTime":136.25592600000002,"endTime":136.305187,"instrument":9,"isDrum":true},{"pitch":44,"velocity":121,"startTime":136.403709,"endTime":136.434497125,"instrument":9,"isDrum":true},{"pitch":44,"velocity":124,"startTime":136.551492,"endTime":136.594595375,"instrument":9,"isDrum":true},{"pitch":44,"velocity":128,"startTime":136.69927500000003,"endTime":136.8175014,"instrument":9,"isDrum":true},{"pitch":44,"velocity":128,"startTime":136.847058,"endTime":137.08351079999997,"instrument":9,"isDrum":true},{"pitch":38,"velocity":128,"startTime":136.847058,"endTime":136.914791875,"instrument":9,"isDrum":true},{"pitch":46,"velocity":80,"startTime":137.14262399999998,"endTime":137.198042625,"instrument":9,"isDrum":true},{"pitch":36,"velocity":120,"startTime":137.14262399999998,"endTime":137.17956975,"instrument":9,"isDrum":true},{"pitch":44,"velocity":124,"startTime":137.43819,"endTime":137.555184875,"instrument":9,"isDrum":true},{"pitch":38,"velocity":128,"startTime":137.43819,"endTime":137.49976625000002,"instrument":9,"isDrum":true},{"pitch":44,"velocity":128,"startTime":137.585973,"endTime":137.641391625,"instrument":9,"isDrum":true},{"pitch":40,"velocity":100,"startTime":137.653706875,"endTime":137.69065262499998,"instrument":9,"isDrum":true},{"pitch":44,"velocity":124,"startTime":137.73375600000003,"endTime":137.77070175,"instrument":9,"isDrum":true},{"pitch":44,"velocity":125,"startTime":137.881539,"endTime":137.914790175,"instrument":9,"isDrum":true},{"pitch":44,"velocity":126,"startTime":138.029322,"endTime":138.06626774999998,"instrument":9,"isDrum":true},{"pitch":38,"velocity":128,"startTime":138.029322,"endTime":138.1032135,"instrument":9,"isDrum":true},{"pitch":36,"velocity":120,"startTime":138.17710499999998,"endTime":138.232523625,"instrument":9,"isDrum":true},{"pitch":46,"velocity":80,"startTime":138.17710499999998,"endTime":138.232523625,"instrument":9,"isDrum":true},{"pitch":46,"velocity":80,"startTime":138.32488800000002,"endTime":138.380306625,"instrument":9,"isDrum":true},{"pitch":36,"velocity":120,"startTime":138.32488800000002,"endTime":138.392621875,"instrument":9,"isDrum":true},{"pitch":38,"velocity":128,"startTime":138.620454,"endTime":138.66971499999997,"instrument":9,"isDrum":true},{"pitch":44,"velocity":121,"startTime":138.76823700000003,"endTime":138.79902512500001,"instrument":9,"isDrum":true},{"pitch":44,"velocity":124,"startTime":138.91602,"endTime":138.95912337500002,"instrument":9,"isDrum":true},{"pitch":38,"velocity":128,"startTime":139.21158599999998,"endTime":139.279319875,"instrument":9,"isDrum":true},{"pitch":36,"velocity":120,"startTime":139.35936900000002,"endTime":139.414787625,"instrument":9,"isDrum":true},{"pitch":46,"velocity":80,"startTime":139.35936900000002,"endTime":139.414787625,"instrument":9,"isDrum":true},{"pitch":46,"velocity":80,"startTime":139.507152,"endTime":139.562570625,"instrument":9,"isDrum":true},{"pitch":36,"velocity":120,"startTime":139.507152,"endTime":139.54409775,"instrument":9,"isDrum":true},{"pitch":44,"velocity":124,"startTime":139.80271800000003,"endTime":139.91971287500002,"instrument":9,"isDrum":true},{"pitch":38,"velocity":128,"startTime":139.80271800000003,"endTime":139.86429425000003,"instrument":9,"isDrum":true},{"pitch":44,"velocity":128,"startTime":139.950501,"endTime":140.005919625,"instrument":9,"isDrum":true},{"pitch":40,"velocity":100,"startTime":140.018234875,"endTime":140.05518062500002,"instrument":9,"isDrum":true},{"pitch":44,"velocity":124,"startTime":140.098284,"endTime":140.13522975,"instrument":9,"isDrum":true},{"pitch":44,"velocity":125,"startTime":140.24606699999998,"endTime":140.279318175,"instrument":9,"isDrum":true},{"pitch":44,"velocity":126,"startTime":140.39385000000001,"endTime":140.43079575,"instrument":9,"isDrum":true},{"pitch":38,"velocity":128,"startTime":140.39385000000001,"endTime":140.4677415,"instrument":9,"isDrum":true},{"pitch":36,"velocity":120,"startTime":140.541633,"endTime":140.597051625,"instrument":9,"isDrum":true},{"pitch":46,"velocity":80,"startTime":140.541633,"endTime":140.597051625,"instrument":9,"isDrum":true},{"pitch":46,"velocity":64,"startTime":140.689416,"endTime":140.744834625,"instrument":9,"isDrum":true},{"pitch":36,"velocity":96,"startTime":140.689416,"endTime":140.757149875,"instrument":9,"isDrum":true},{"pitch":38,"velocity":102,"startTime":140.984982,"endTime":141.034243,"instrument":9,"isDrum":true},{"pitch":44,"velocity":97,"startTime":141.132765,"endTime":141.163553125,"instrument":9,"isDrum":true},{"pitch":44,"velocity":99,"startTime":141.28054799999998,"endTime":141.323651375,"instrument":9,"isDrum":true},{"pitch":38,"velocity":102,"startTime":141.576114,"endTime":141.64384787499998,"instrument":9,"isDrum":true},{"pitch":46,"velocity":52,"startTime":141.87168000000003,"endTime":141.927098625,"instrument":9,"isDrum":true},{"pitch":36,"velocity":78,"startTime":141.87168000000003,"endTime":141.90862575,"instrument":9,"isDrum":true},{"pitch":44,"velocity":81,"startTime":142.167246,"endTime":142.28424087500002,"instrument":9,"isDrum":true},{"pitch":38,"velocity":83,"startTime":142.167246,"endTime":142.22882225,"instrument":9,"isDrum":true},{"pitch":44,"velocity":83,"startTime":142.315029,"endTime":142.370447625,"instrument":9,"isDrum":true},{"pitch":40,"velocity":65,"startTime":142.382762875,"endTime":142.419708625,"instrument":9,"isDrum":true},{"pitch":44,"velocity":81,"startTime":142.462812,"endTime":142.49975775,"instrument":9,"isDrum":true},{"pitch":44,"velocity":81,"startTime":142.610595,"endTime":142.643846175,"instrument":9,"isDrum":true},{"pitch":44,"velocity":82,"startTime":142.758378,"endTime":142.79532375000002,"instrument":9,"isDrum":true},{"pitch":38,"velocity":83,"startTime":142.758378,"endTime":142.8322695,"instrument":9,"isDrum":true},{"pitch":46,"velocity":52,"startTime":142.90616100000003,"endTime":142.961579625,"instrument":9,"isDrum":true},{"pitch":36,"velocity":78,"startTime":142.90616100000003,"endTime":142.961579625,"instrument":9,"isDrum":true},{"pitch":46,"velocity":36,"startTime":143.053944,"endTime":143.109362625,"instrument":9,"isDrum":true},{"pitch":36,"velocity":54,"startTime":143.053944,"endTime":143.121677875,"instrument":9,"isDrum":true},{"pitch":38,"velocity":57,"startTime":143.34951,"endTime":143.398771,"instrument":9,"isDrum":true},{"pitch":44,"velocity":54,"startTime":143.497293,"endTime":143.528081125,"instrument":9,"isDrum":true},{"pitch":44,"velocity":56,"startTime":143.645076,"endTime":143.68817937500003,"instrument":9,"isDrum":true},{"pitch":38,"velocity":57,"startTime":143.94064200000003,"endTime":144.00837587499998,"instrument":9,"isDrum":true},{"pitch":46,"velocity":16,"startTime":144.236208,"endTime":144.29162662500002,"instrument":9,"isDrum":true},{"pitch":36,"velocity":24,"startTime":144.236208,"endTime":144.27315375,"instrument":9,"isDrum":true},{"pitch":44,"velocity":25,"startTime":144.531774,"endTime":144.648768875,"instrument":9,"isDrum":true},{"pitch":38,"velocity":25,"startTime":144.531774,"endTime":144.59335025000001,"instrument":9,"isDrum":true},{"pitch":44,"velocity":25,"startTime":144.679557,"endTime":144.734975625,"instrument":9,"isDrum":true},{"pitch":40,"velocity":20,"startTime":144.74729087499998,"endTime":144.784236625,"instrument":9,"isDrum":true},{"pitch":44,"velocity":25,"startTime":144.82734,"endTime":144.86428575000002,"instrument":9,"isDrum":true},{"pitch":44,"velocity":25,"startTime":144.97512300000002,"endTime":145.00837417499997,"instrument":9,"isDrum":true},{"pitch":44,"velocity":25,"startTime":145.122906,"endTime":145.15985175,"instrument":9,"isDrum":true},{"pitch":38,"velocity":25,"startTime":145.122906,"endTime":145.1967975,"instrument":9,"isDrum":true},{"pitch":36,"velocity":24,"startTime":145.270689,"endTime":145.32610762500002,"instrument":9,"isDrum":true},{"pitch":46,"velocity":16,"startTime":145.270689,"endTime":145.32610762500002,"instrument":9,"isDrum":true},{"pitch":46,"velocity":8,"startTime":145.418472,"endTime":145.473890625,"instrument":9,"isDrum":true},{"pitch":36,"velocity":12,"startTime":145.418472,"endTime":145.486205875,"instrument":9,"isDrum":true},{"pitch":38,"velocity":13,"startTime":145.714038,"endTime":145.763299,"instrument":9,"isDrum":true},{"pitch":44,"velocity":12,"startTime":145.861821,"endTime":145.89260912499998,"instrument":9,"isDrum":true},{"pitch":44,"velocity":12,"startTime":146.00960400000002,"endTime":146.05270737500004,"instrument":9,"isDrum":true},{"pitch":44,"velocity":13,"startTime":146.157387,"endTime":146.2756134,"instrument":9,"isDrum":true},{"pitch":44,"velocity":13,"startTime":146.30517,"endTime":146.5416228,"instrument":9,"isDrum":true},{"pitch":38,"velocity":13,"startTime":146.30517,"endTime":146.37290387500002,"instrument":9,"isDrum":true},{"pitch":46,"velocity":1,"startTime":146.600736,"endTime":146.656154625,"instrument":9,"isDrum":true},{"pitch":36,"velocity":1,"startTime":146.600736,"endTime":146.63768174999998,"instrument":9,"isDrum":true},{"pitch":44,"velocity":1,"startTime":146.896302,"endTime":147.013296875,"instrument":9,"isDrum":true},{"pitch":38,"velocity":1,"startTime":146.896302,"endTime":146.95787825,"instrument":9,"isDrum":true},{"pitch":44,"velocity":1,"startTime":147.04408500000002,"endTime":147.099503625,"instrument":9,"isDrum":true},{"pitch":40,"velocity":1,"startTime":147.11181887499998,"endTime":147.14876462499998,"instrument":9,"isDrum":true},{"pitch":44,"velocity":1,"startTime":147.191868,"endTime":147.22881375,"instrument":9,"isDrum":true},{"pitch":44,"velocity":1,"startTime":147.339651,"endTime":147.37290217499998,"instrument":9,"isDrum":true},{"pitch":44,"velocity":1,"startTime":147.487434,"endTime":147.52437975,"instrument":9,"isDrum":true},{"pitch":38,"velocity":1,"startTime":147.487434,"endTime":147.5613255,"instrument":9,"isDrum":true},{"pitch":36,"velocity":1,"startTime":147.635217,"endTime":147.690635625,"instrument":9,"isDrum":true},{"pitch":46,"velocity":1,"startTime":147.635217,"endTime":147.690635625,"instrument":9,"isDrum":true},{"pitch":71,"velocity":74,"startTime":66.206784,"endTime":66.79791600000001,"instrument":10,"program":68},{"pitch":67,"velocity":74,"startTime":66.79791600000001,"endTime":67.389048,"instrument":10,"program":68},{"pitch":62,"velocity":74,"startTime":67.389048,"endTime":67.98018,"instrument":10,"program":68},{"pitch":67,"velocity":74,"startTime":67.98018,"endTime":68.57131199999999,"instrument":10,"program":68},{"pitch":71,"velocity":74,"startTime":68.57131199999999,"endTime":68.86687800000001,"instrument":10,"program":68},{"pitch":69,"velocity":74,"startTime":68.86687800000001,"endTime":69.16244400000001,"instrument":10,"program":68},{"pitch":71,"velocity":74,"startTime":69.16244400000001,"endTime":69.45801,"instrument":10,"program":68},{"pitch":72,"velocity":74,"startTime":69.45801,"endTime":69.75357600000001,"instrument":10,"program":68},{"pitch":71,"velocity":74,"startTime":69.75357600000001,"endTime":70.344708,"instrument":10,"program":68},{"pitch":67,"velocity":74,"startTime":70.344708,"endTime":70.93584000000001,"instrument":10,"program":68},{"pitch":62,"velocity":74,"startTime":71.380420525,"endTime":71.72278447500001,"instrument":10,"program":68},{"pitch":67,"velocity":74,"startTime":71.67106042500001,"endTime":72.20677380000001,"instrument":10,"program":68},{"pitch":67,"velocity":74,"startTime":72.567610625,"endTime":72.8520929,"instrument":10,"program":68},{"pitch":69,"velocity":74,"startTime":72.85332442500001,"endTime":73.1575111,"instrument":10,"program":68},{"pitch":71,"velocity":74,"startTime":73.152585,"endTime":73.44691947500002,"instrument":10,"program":68},{"pitch":69,"velocity":74,"startTime":73.46046625000001,"endTime":73.74248547500001,"instrument":10,"program":68},{"pitch":67,"velocity":74,"startTime":73.743717,"endTime":74.40011982500002,"instrument":10,"program":68},{"pitch":71,"velocity":74,"startTime":132.413568,"endTime":133.00469999999999,"instrument":10,"program":68},{"pitch":67,"velocity":74,"startTime":133.00469999999999,"endTime":133.59583200000003,"instrument":10,"program":68},{"pitch":62,"velocity":74,"startTime":133.59583200000003,"endTime":134.18696400000002,"instrument":10,"program":68},{"pitch":67,"velocity":74,"startTime":134.18696400000002,"endTime":134.778096,"instrument":10,"program":68},{"pitch":71,"velocity":74,"startTime":134.778096,"endTime":135.07366199999998,"instrument":10,"program":68},{"pitch":69,"velocity":74,"startTime":135.07366199999998,"endTime":135.369228,"instrument":10,"program":68},{"pitch":71,"velocity":74,"startTime":135.369228,"endTime":135.66479400000003,"instrument":10,"program":68},{"pitch":72,"velocity":74,"startTime":135.66479400000003,"endTime":135.96036,"instrument":10,"program":68},{"pitch":71,"velocity":74,"startTime":135.96036,"endTime":136.551492,"instrument":10,"program":68},{"pitch":67,"velocity":74,"startTime":136.551492,"endTime":137.14262399999998,"instrument":10,"program":68},{"pitch":62,"velocity":74,"startTime":137.587204525,"endTime":137.929568475,"instrument":10,"program":68},{"pitch":67,"velocity":74,"startTime":137.87784442499998,"endTime":138.4135578,"instrument":10,"program":68},{"pitch":67,"velocity":74,"startTime":138.774394625,"endTime":139.05887690000003,"instrument":10,"program":68},{"pitch":69,"velocity":74,"startTime":139.060108425,"endTime":139.3642951,"instrument":10,"program":68},{"pitch":71,"velocity":74,"startTime":139.35936900000002,"endTime":139.653703475,"instrument":10,"program":68},{"pitch":69,"velocity":74,"startTime":139.66725025,"endTime":139.949269475,"instrument":10,"program":68},{"pitch":67,"velocity":74,"startTime":139.950501,"endTime":140.60690382500002,"instrument":10,"program":68},{"pitch":71,"velocity":48,"startTime":141.87168000000003,"endTime":142.462812,"instrument":10,"program":68},{"pitch":67,"velocity":48,"startTime":142.462812,"endTime":143.053944,"instrument":10,"program":68},{"pitch":62,"velocity":33,"startTime":143.053944,"endTime":143.645076,"instrument":10,"program":68},{"pitch":67,"velocity":33,"startTime":143.645076,"endTime":144.236208,"instrument":10,"program":68},{"pitch":71,"velocity":15,"startTime":144.236208,"endTime":144.531774,"instrument":10,"program":68},{"pitch":69,"velocity":15,"startTime":144.531774,"endTime":144.82734,"instrument":10,"program":68},{"pitch":71,"velocity":15,"startTime":144.82734,"endTime":145.122906,"instrument":10,"program":68},{"pitch":72,"velocity":15,"startTime":145.122906,"endTime":145.418472,"instrument":10,"program":68},{"pitch":71,"velocity":7,"startTime":145.418472,"endTime":146.00960400000002,"instrument":10,"program":68},{"pitch":67,"velocity":7,"startTime":146.00960400000002,"endTime":146.600736,"instrument":10,"program":68},{"pitch":62,"velocity":1,"startTime":147.04531652500003,"endTime":147.38768047500002,"instrument":10,"program":68},{"pitch":67,"velocity":1,"startTime":147.335956425,"endTime":147.87166979999998,"instrument":10,"program":68}],"totalTime":148.646299025,"sourceInfo":{"encodingType":"MIDI","parser":"TONEJS_MIDI_CONVERT"}},"sequence":{"filename":"Ill_Be_Missing_You__halfn__remix.mid","ticksPerQuarter":240,"timeSignatures":[{"numerator":4,"denominator":4}],"tempos":[{"qpm":203.00034510058669}],"notes":[{"pitch":43,"velocity":57,"endTime":0.098522},{"pitch":59,"velocity":57,"endTime":0.098522},{"pitch":65,"velocity":57,"startTime":0.0246305,"endTime":0.1231525},{"pitch":69,"velocity":57,"startTime":0.0246305,"endTime":0.1231525},{"pitch":43,"velocity":57,"startTime":0.3201965,"endTime":0.3694575},{"pitch":59,"velocity":57,"startTime":0.3201965,"endTime":0.3694575},{"pitch":65,"velocity":57,"startTime":0.3201965,"endTime":0.3694575},{"pitch":69,"velocity":57,"startTime":0.3201965,"endTime":0.394088},{"pitch":43,"velocity":57,"startTime":0.8128065,"endTime":0.8620675},{"pitch":59,"velocity":57,"startTime":0.8128065,"endTime":0.886698},{"pitch":65,"velocity":57,"startTime":0.8128065,"endTime":0.886698},{"pitch":69,"velocity":57,"startTime":0.8128065,"endTime":0.886698},{"pitch":43,"velocity":57,"startTime":1.1083725,"endTime":1.2561555},{"pitch":59,"velocity":57,"startTime":1.1083725,"endTime":1.2561555},{"pitch":64,"velocity":57,"startTime":1.1083725,"endTime":1.2561555},{"pitch":71,"velocity":57,"startTime":1.1083725,"endTime":1.280786},{"pitch":43,"velocity":57,"startTime":1.7980265,"endTime":1.871918},{"pitch":59,"velocity":57,"startTime":1.7980265,"endTime":1.871918},{"pitch":64,"velocity":57,"startTime":1.7980265,"endTime":1.8965485},{"pitch":71,"velocity":57,"startTime":1.7980265,"endTime":1.871918},{"pitch":40,"velocity":57,"startTime":2.561572,"endTime":2.6847244999999997},{"pitch":59,"velocity":57,"startTime":2.561572,"endTime":2.709355},{"pitch":62,"velocity":57,"startTime":2.561572,"endTime":2.709355},{"pitch":69,"velocity":57,"startTime":2.561572,"endTime":2.709355},{"pitch":40,"velocity":57,"startTime":3.1773344999999997,"endTime":3.2758564999999997},{"pitch":59,"velocity":57,"startTime":3.1773344999999997,"endTime":3.300487},{"pitch":62,"velocity":57,"startTime":3.1773344999999997,"endTime":3.300487},{"pitch":66,"velocity":57,"startTime":3.1773344999999997,"endTime":3.300487},{"pitch":40,"velocity":57,"startTime":3.4729004999999997,"endTime":3.5221614999999997},{"pitch":40,"velocity":57,"startTime":3.546792,"endTime":3.6699444999999997},{"pitch":55,"velocity":57,"startTime":3.546792,"endTime":3.645314},{"pitch":59,"velocity":57,"startTime":3.5714224999999997,"endTime":3.645314},{"pitch":62,"velocity":57,"startTime":3.5714224999999997,"endTime":3.645314},{"pitch":47,"velocity":57,"startTime":4.3842289999999995,"endTime":4.43349},{"pitch":59,"velocity":57,"startTime":4.532012,"endTime":4.5566425},{"pitch":62,"velocity":57,"startTime":4.532012,"endTime":4.5812729999999995},{"pitch":48,"velocity":57,"startTime":4.729056,"endTime":4.802947499999999},{"pitch":55,"velocity":57,"startTime":4.753686499999999,"endTime":4.802947499999999},{"pitch":62,"velocity":57,"startTime":4.753686499999999,"endTime":4.827577999999999},{"pitch":48,"velocity":57,"startTime":5.2462965,"endTime":5.320188},{"pitch":55,"velocity":57,"startTime":5.2462965,"endTime":5.320188},{"pitch":60,"velocity":57,"startTime":5.2462965,"endTime":5.3448185},{"pitch":64,"velocity":57,"startTime":5.2462965,"endTime":5.3448185},{"pitch":57,"velocity":57,"startTime":5.8374285,"endTime":6.970431499999999},{"pitch":64,"velocity":57,"startTime":5.8374285,"endTime":6.970431499999999},{"pitch":67,"velocity":57,"startTime":5.8374285,"endTime":6.970431499999999},{"pitch":72,"velocity":57,"startTime":5.8374285,"endTime":6.970431499999999},{"pitch":43,"velocity":57,"startTime":7.0196925,"endTime":8.177325999999999},{"pitch":57,"velocity":57,"startTime":7.0196925,"endTime":8.177325999999999},{"pitch":62,"velocity":57,"startTime":7.0196925,"endTime":8.177325999999999},{"pitch":65,"velocity":57,"startTime":7.0196925,"endTime":8.177325999999999},{"pitch":43,"velocity":57,"startTime":8.2019565,"endTime":9.359589999999999},{"pitch":59,"velocity":57,"startTime":8.2019565,"endTime":9.359589999999999},{"pitch":69,"velocity":57,"startTime":8.2019565,"endTime":9.359589999999999},{"pitch":71,"velocity":57,"startTime":8.2019565,"endTime":9.359589999999999},{"pitch":40,"velocity":57,"startTime":9.3842205,"endTime":9.458112},{"pitch":59,"velocity":57,"startTime":9.3842205,"endTime":9.458112},{"pitch":63,"velocity":57,"startTime":9.3842205,"endTime":9.458112},{"pitch":69,"velocity":57,"startTime":9.3842205,"endTime":9.458112},{"pitch":35,"velocity":80,"endTime":0.049261,"instrument":1,"isDrum":true},{"pitch":44,"velocity":80,"endTime":0.049261,"instrument":1,"isDrum":true},{"pitch":51,"velocity":80,"endTime":0.049261,"instrument":1,"isDrum":true},{"pitch":53,"velocity":80,"endTime":0.049261,"instrument":1,"isDrum":true},{"pitch":51,"velocity":80,"startTime":0.197044,"endTime":0.2709355,"instrument":1,"isDrum":true},{"pitch":44,"velocity":80,"startTime":0.295566,"endTime":0.344827,"instrument":1,"isDrum":true},{"pitch":51,"velocity":80,"startTime":0.295566,"endTime":0.344827,"instrument":1,"isDrum":true},{"pitch":53,"velocity":80,"startTime":0.295566,"endTime":0.344827,"instrument":1,"isDrum":true},{"pitch":51,"velocity":80,"startTime":0.4926099999999999,"endTime":0.5665014999999999,"instrument":1,"isDrum":true},{"pitch":35,"velocity":80,"startTime":0.591132,"endTime":0.640393,"instrument":1,"isDrum":true},{"pitch":44,"velocity":80,"startTime":0.591132,"endTime":0.640393,"instrument":1,"isDrum":true},{"pitch":51,"velocity":80,"startTime":0.591132,"endTime":0.640393,"instrument":1,"isDrum":true},{"pitch":53,"velocity":80,"startTime":0.591132,"endTime":0.640393,"instrument":1,"isDrum":true},{"pitch":51,"velocity":80,"startTime":0.788176,"endTime":0.8620675,"instrument":1,"isDrum":true},{"pitch":38,"velocity":80,"startTime":0.886698,"endTime":0.935959,"instrument":1,"isDrum":true},{"pitch":44,"velocity":80,"startTime":0.886698,"endTime":0.935959,"instrument":1,"isDrum":true},{"pitch":51,"velocity":80,"startTime":0.886698,"endTime":0.935959,"instrument":1,"isDrum":true},{"pitch":53,"velocity":80,"startTime":0.886698,"endTime":0.935959,"instrument":1,"isDrum":true},{"pitch":51,"velocity":80,"startTime":1.083742,"endTime":1.1576335,"instrument":1,"isDrum":true},{"pitch":44,"velocity":80,"startTime":1.182264,"endTime":1.231525,"instrument":1,"isDrum":true},{"pitch":51,"velocity":80,"startTime":1.182264,"endTime":1.231525,"instrument":1,"isDrum":true},{"pitch":53,"velocity":80,"startTime":1.182264,"endTime":1.231525,"instrument":1,"isDrum":true},{"pitch":51,"velocity":80,"startTime":1.379308,"endTime":1.4531995,"instrument":1,"isDrum":true},{"pitch":44,"velocity":80,"startTime":1.47783,"endTime":1.527091,"instrument":1,"isDrum":true},{"pitch":51,"velocity":80,"startTime":1.47783,"endTime":1.527091,"instrument":1,"isDrum":true},{"pitch":53,"velocity":80,"startTime":1.47783,"endTime":1.527091,"instrument":1,"isDrum":true},{"pitch":51,"velocity":80,"startTime":1.674874,"endTime":1.7487655,"instrument":1,"isDrum":true},{"pitch":35,"velocity":80,"startTime":1.773396,"endTime":1.822657,"instrument":1,"isDrum":true},{"pitch":44,"velocity":80,"startTime":1.773396,"endTime":1.822657,"instrument":1,"isDrum":true},{"pitch":51,"velocity":80,"startTime":1.773396,"endTime":1.822657,"instrument":1,"isDrum":true},{"pitch":53,"velocity":80,"startTime":1.773396,"endTime":1.822657,"instrument":1,"isDrum":true},{"pitch":51,"velocity":80,"startTime":1.97044,"endTime":2.0443314999999997,"instrument":1,"isDrum":true},{"pitch":38,"velocity":80,"startTime":2.068962,"endTime":2.118223,"instrument":1,"isDrum":true},{"pitch":44,"velocity":80,"startTime":2.068962,"endTime":2.118223,"instrument":1,"isDrum":true},{"pitch":51,"velocity":80,"startTime":2.068962,"endTime":2.118223,"instrument":1,"isDrum":true},{"pitch":53,"velocity":80,"startTime":2.068962,"endTime":2.118223,"instrument":1,"isDrum":true},{"pitch":35,"velocity":80,"startTime":2.266006,"endTime":2.3398974999999997,"instrument":1,"isDrum":true},{"pitch":51,"velocity":80,"startTime":2.266006,"endTime":2.3398974999999997,"instrument":1,"isDrum":true},{"pitch":44,"velocity":80,"startTime":2.364528,"endTime":2.4137889999999995,"instrument":1,"isDrum":true},{"pitch":51,"velocity":80,"startTime":2.364528,"endTime":2.4137889999999995,"instrument":1,"isDrum":true},{"pitch":53,"velocity":80,"startTime":2.364528,"endTime":2.4137889999999995,"instrument":1,"isDrum":true},{"pitch":35,"velocity":80,"startTime":2.561572,"endTime":2.6354634999999997,"instrument":1,"isDrum":true},{"pitch":51,"velocity":80,"startTime":2.561572,"endTime":2.6354634999999997,"instrument":1,"isDrum":true},{"pitch":38,"velocity":80,"startTime":2.660094,"endTime":2.6847244999999997,"instrument":1,"isDrum":true},{"pitch":44,"velocity":80,"startTime":2.660094,"endTime":2.6847244999999997,"instrument":1,"isDrum":true},{"pitch":53,"velocity":80,"startTime":2.660094,"endTime":2.6847244999999997,"instrument":1,"isDrum":true},{"pitch":35,"velocity":80,"startTime":2.857138,"endTime":2.9310294999999997,"instrument":1,"isDrum":true},{"pitch":51,"velocity":80,"startTime":2.857138,"endTime":2.9310294999999997,"instrument":1,"isDrum":true},{"pitch":35,"velocity":80,"startTime":2.95566,"endTime":3.004921,"instrument":1,"isDrum":true},{"pitch":44,"velocity":80,"startTime":2.95566,"endTime":3.004921,"instrument":1,"isDrum":true},{"pitch":51,"velocity":80,"startTime":2.95566,"endTime":3.004921,"instrument":1,"isDrum":true},{"pitch":53,"velocity":80,"startTime":2.95566,"endTime":3.004921,"instrument":1,"isDrum":true},{"pitch":51,"velocity":80,"startTime":3.152704,"endTime":3.2265954999999997,"instrument":1,"isDrum":true},{"pitch":38,"velocity":80,"startTime":3.251226,"endTime":3.300487,"instrument":1,"isDrum":true},{"pitch":44,"velocity":80,"startTime":3.251226,"endTime":3.300487,"instrument":1,"isDrum":true},{"pitch":51,"velocity":80,"startTime":3.251226,"endTime":3.300487,"instrument":1,"isDrum":true},{"pitch":53,"velocity":80,"startTime":3.251226,"endTime":3.300487,"instrument":1,"isDrum":true},{"pitch":51,"velocity":80,"startTime":3.44827,"endTime":3.5221614999999997,"instrument":1,"isDrum":true},{"pitch":44,"velocity":80,"startTime":3.546792,"endTime":3.596053,"instrument":1,"isDrum":true},{"pitch":51,"velocity":80,"startTime":3.546792,"endTime":3.596053,"instrument":1,"isDrum":true},{"pitch":53,"velocity":80,"startTime":3.546792,"endTime":3.596053,"instrument":1,"isDrum":true},{"pitch":51,"velocity":80,"startTime":3.743836,"endTime":3.8177274999999997,"instrument":1,"isDrum":true},{"pitch":38,"velocity":80,"startTime":3.842358,"endTime":3.891619,"instrument":1,"isDrum":true},{"pitch":44,"velocity":80,"startTime":3.842358,"endTime":3.891619,"instrument":1,"isDrum":true},{"pitch":51,"velocity":80,"startTime":3.842358,"endTime":3.891619,"instrument":1,"isDrum":true},{"pitch":53,"velocity":80,"startTime":3.842358,"endTime":3.891619,"instrument":1,"isDrum":true},{"pitch":35,"velocity":80,"startTime":4.039402,"endTime":4.1132935,"instrument":1,"isDrum":true},{"pitch":38,"velocity":80,"startTime":4.039402,"endTime":4.1132935,"instrument":1,"isDrum":true},{"pitch":51,"velocity":80,"startTime":4.039402,"endTime":4.1132935,"instrument":1,"isDrum":true},{"pitch":35,"velocity":80,"startTime":4.137924,"endTime":4.1871849999999995,"instrument":1,"isDrum":true},{"pitch":44,"velocity":80,"startTime":4.137924,"endTime":4.1871849999999995,"instrument":1,"isDrum":true},{"pitch":51,"velocity":80,"startTime":4.137924,"endTime":4.1871849999999995,"instrument":1,"isDrum":true},{"pitch":53,"velocity":80,"startTime":4.137924,"endTime":4.1871849999999995,"instrument":1,"isDrum":true},{"pitch":51,"velocity":80,"startTime":4.334968,"endTime":4.408859499999999,"instrument":1,"isDrum":true},{"pitch":38,"velocity":80,"startTime":4.43349,"endTime":4.4827509999999995,"instrument":1,"isDrum":true},{"pitch":44,"velocity":80,"startTime":4.43349,"endTime":4.4827509999999995,"instrument":1,"isDrum":true},{"pitch":51,"velocity":80,"startTime":4.43349,"endTime":4.4827509999999995,"instrument":1,"isDrum":true},{"pitch":53,"velocity":80,"startTime":4.43349,"endTime":4.4827509999999995,"instrument":1,"isDrum":true},{"pitch":51,"velocity":80,"startTime":4.630534,"endTime":4.704425499999999,"instrument":1,"isDrum":true},{"pitch":44,"velocity":80,"startTime":4.729056,"endTime":4.778317,"instrument":1,"isDrum":true},{"pitch":51,"velocity":80,"startTime":4.729056,"endTime":4.778317,"instrument":1,"isDrum":true},{"pitch":53,"velocity":80,"startTime":4.729056,"endTime":4.778317,"instrument":1,"isDrum":true},{"pitch":35,"velocity":80,"startTime":4.9261,"endTime":4.9999915,"instrument":1,"isDrum":true},{"pitch":51,"velocity":80,"startTime":4.9261,"endTime":4.9999915,"instrument":1,"isDrum":true},{"pitch":38,"velocity":80,"startTime":5.024622,"endTime":5.0738829999999995,"instrument":1,"isDrum":true},{"pitch":44,"velocity":80,"startTime":5.024622,"endTime":5.0738829999999995,"instrument":1,"isDrum":true},{"pitch":51,"velocity":80,"startTime":5.024622,"endTime":5.0738829999999995,"instrument":1,"isDrum":true},{"pitch":53,"velocity":80,"startTime":5.024622,"endTime":5.0738829999999995,"instrument":1,"isDrum":true},{"pitch":35,"velocity":80,"startTime":5.221666,"endTime":5.295557499999999,"instrument":1,"isDrum":true},{"pitch":51,"velocity":80,"startTime":5.221666,"endTime":5.295557499999999,"instrument":1,"isDrum":true},{"pitch":35,"velocity":80,"startTime":5.320188,"endTime":5.3694489999999995,"instrument":1,"isDrum":true},{"pitch":44,"velocity":80,"startTime":5.320188,"endTime":5.3694489999999995,"instrument":1,"isDrum":true},{"pitch":51,"velocity":80,"startTime":5.320188,"endTime":5.3694489999999995,"instrument":1,"isDrum":true},{"pitch":53,"velocity":80,"startTime":5.320188,"endTime":5.3694489999999995,"instrument":1,"isDrum":true},{"pitch":51,"velocity":80,"startTime":5.517232,"endTime":5.591123499999999,"instrument":1,"isDrum":true},{"pitch":38,"velocity":80,"startTime":5.615754,"endTime":5.6650149999999995,"instrument":1,"isDrum":true},{"pitch":44,"velocity":80,"startTime":5.615754,"endTime":5.6650149999999995,"instrument":1,"isDrum":true},{"pitch":51,"velocity":80,"startTime":5.615754,"endTime":5.6650149999999995,"instrument":1,"isDrum":true},{"pitch":53,"velocity":80,"startTime":5.615754,"endTime":5.6650149999999995,"instrument":1,"isDrum":true},{"pitch":54,"velocity":80,"startTime":5.615754,"endTime":5.6650149999999995,"instrument":1,"isDrum":true},{"pitch":51,"velocity":80,"startTime":5.812798,"endTime":5.886689499999999,"instrument":1,"isDrum":true},{"pitch":35,"velocity":80,"startTime":5.91132,"endTime":5.9605809999999995,"instrument":1,"isDrum":true},{"pitch":44,"velocity":80,"startTime":5.91132,"endTime":5.9605809999999995,"instrument":1,"isDrum":true},{"pitch":51,"velocity":80,"startTime":5.91132,"endTime":5.9605809999999995,"instrument":1,"isDrum":true},{"pitch":51,"velocity":80,"startTime":6.108364,"endTime":6.182255499999999,"instrument":1,"isDrum":true},{"pitch":38,"velocity":80,"startTime":6.206886,"endTime":6.2561469999999995,"instrument":1,"isDrum":true},{"pitch":44,"velocity":80,"startTime":6.206886,"endTime":6.2561469999999995,"instrument":1,"isDrum":true},{"pitch":51,"velocity":80,"startTime":6.206886,"endTime":6.2561469999999995,"instrument":1,"isDrum":true},{"pitch":53,"velocity":80,"startTime":6.206886,"endTime":6.2561469999999995,"instrument":1,"isDrum":true},{"pitch":54,"velocity":80,"startTime":6.206886,"endTime":6.2561469999999995,"instrument":1,"isDrum":true},{"pitch":51,"velocity":80,"startTime":6.40393,"endTime":6.477821499999999,"instrument":1,"isDrum":true},{"pitch":44,"velocity":80,"startTime":6.502452,"endTime":6.5517129999999995,"instrument":1,"isDrum":true},{"pitch":51,"velocity":80,"startTime":6.502452,"endTime":6.5517129999999995,"instrument":1,"isDrum":true},{"pitch":35,"velocity":80,"startTime":6.798018,"endTime":6.8472789999999994,"instrument":1,"isDrum":true},{"pitch":38,"velocity":80,"startTime":6.798018,"endTime":6.8472789999999994,"instrument":1,"isDrum":true},{"pitch":44,"velocity":80,"startTime":6.798018,"endTime":6.8472789999999994,"instrument":1,"isDrum":true},{"pitch":51,"velocity":80,"startTime":6.798018,"endTime":6.8472789999999994,"instrument":1,"isDrum":true},{"pitch":53,"velocity":80,"startTime":6.798018,"endTime":6.8472789999999994,"instrument":1,"isDrum":true},{"pitch":54,"velocity":80,"startTime":6.798018,"endTime":6.8472789999999994,"instrument":1,"isDrum":true},{"pitch":51,"velocity":80,"startTime":6.995062,"endTime":7.068953499999999,"instrument":1,"isDrum":true},{"pitch":35,"velocity":80,"startTime":7.093584,"endTime":7.1428449999999994,"instrument":1,"isDrum":true},{"pitch":44,"velocity":80,"startTime":7.093584,"endTime":7.1428449999999994,"instrument":1,"isDrum":true},{"pitch":51,"velocity":80,"startTime":7.093584,"endTime":7.1428449999999994,"instrument":1,"isDrum":true},{"pitch":53,"velocity":80,"startTime":7.093584,"endTime":7.1428449999999994,"instrument":1,"isDrum":true},{"pitch":38,"velocity":80,"startTime":7.38915,"endTime":7.438410999999999,"instrument":1,"isDrum":true},{"pitch":44,"velocity":80,"startTime":7.38915,"endTime":7.438410999999999,"instrument":1,"isDrum":true},{"pitch":51,"velocity":80,"startTime":7.38915,"endTime":7.438410999999999,"instrument":1,"isDrum":true},{"pitch":53,"velocity":80,"startTime":7.38915,"endTime":7.438410999999999,"instrument":1,"isDrum":true},{"pitch":54,"velocity":80,"startTime":7.38915,"endTime":7.438410999999999,"instrument":1,"isDrum":true},{"pitch":51,"velocity":80,"startTime":7.586194,"endTime":7.660085499999999,"instrument":1,"isDrum":true},{"pitch":44,"velocity":80,"startTime":7.684716,"endTime":7.733976999999999,"instrument":1,"isDrum":true},{"pitch":53,"velocity":80,"startTime":7.684716,"endTime":7.733976999999999,"instrument":1,"isDrum":true},{"pitch":35,"velocity":80,"startTime":7.88176,"endTime":7.955651499999999,"instrument":1,"isDrum":true},{"pitch":53,"velocity":80,"startTime":7.88176,"endTime":7.955651499999999,"instrument":1,"isDrum":true},{"pitch":51,"velocity":80,"startTime":7.980282,"endTime":8.029543,"instrument":1,"isDrum":true},{"pitch":35,"velocity":80,"startTime":8.177325999999999,"endTime":8.2512175,"instrument":1,"isDrum":true},{"pitch":44,"velocity":80,"startTime":8.177325999999999,"endTime":8.2512175,"instrument":1,"isDrum":true},{"pitch":35,"velocity":80,"startTime":8.275848,"endTime":8.325109,"instrument":1,"isDrum":true},{"pitch":44,"velocity":80,"startTime":8.275848,"endTime":8.325109,"instrument":1,"isDrum":true},{"pitch":51,"velocity":80,"startTime":8.275848,"endTime":8.325109,"instrument":1,"isDrum":true},{"pitch":53,"velocity":80,"startTime":8.275848,"endTime":8.325109,"instrument":1,"isDrum":true},{"pitch":51,"velocity":80,"startTime":8.472892,"endTime":8.5467835,"instrument":1,"isDrum":true},{"pitch":38,"velocity":80,"startTime":8.571413999999999,"endTime":8.620674999999999,"instrument":1,"isDrum":true},{"pitch":44,"velocity":80,"startTime":8.571413999999999,"endTime":8.620674999999999,"instrument":1,"isDrum":true},{"pitch":51,"velocity":80,"startTime":8.571413999999999,"endTime":8.620674999999999,"instrument":1,"isDrum":true},{"pitch":53,"velocity":80,"startTime":8.571413999999999,"endTime":8.620674999999999,"instrument":1,"isDrum":true},{"pitch":54,"velocity":80,"startTime":8.571413999999999,"endTime":8.620674999999999,"instrument":1,"isDrum":true},{"pitch":51,"velocity":80,"startTime":8.768457999999999,"endTime":8.8423495,"instrument":1,"isDrum":true},{"pitch":31,"velocity":103,"endTime":0.295566,"instrument":2,"program":32},{"pitch":33,"velocity":103,"startTime":0.295566,"endTime":0.591132,"instrument":2,"program":32},{"pitch":38,"velocity":103,"startTime":0.591132,"endTime":0.886698,"instrument":2,"program":32},{"pitch":38,"velocity":103,"startTime":0.886698,"endTime":1.1083725,"instrument":2,"program":32},{"pitch":26,"velocity":103,"startTime":1.1083725,"endTime":1.1576335,"instrument":2,"program":32},{"pitch":43,"velocity":103,"startTime":1.182264,"endTime":1.47783,"instrument":2,"program":32},{"pitch":50,"velocity":103,"startTime":1.47783,"endTime":1.773396,"instrument":2,"program":32},{"pitch":43,"velocity":103,"startTime":1.773396,"endTime":2.068962,"instrument":2,"program":32},{"pitch":38,"velocity":103,"startTime":2.068962,"endTime":2.3398974999999997,"instrument":2,"program":32},{"pitch":28,"velocity":103,"startTime":2.364528,"endTime":2.660094,"instrument":2,"program":32},{"pitch":28,"velocity":103,"startTime":2.660094,"endTime":2.95566,"instrument":2,"program":32},{"pitch":35,"velocity":103,"startTime":2.95566,"endTime":3.251226,"instrument":2,"program":32},{"pitch":28,"velocity":103,"startTime":3.251226,"endTime":3.4729004999999997,"instrument":2,"program":32},{"pitch":35,"velocity":103,"startTime":3.4729004999999997,"endTime":3.5221614999999997,"instrument":2,"program":32},{"pitch":28,"velocity":103,"startTime":3.546792,"endTime":3.842358,"instrument":2,"program":32},{"pitch":35,"velocity":103,"startTime":3.842358,"endTime":4.137924,"instrument":2,"program":32},{"pitch":35,"velocity":103,"startTime":4.137924,"endTime":4.43349,"instrument":2,"program":32},{"pitch":35,"velocity":103,"startTime":4.43349,"endTime":4.6551645,"instrument":2,"program":32},{"pitch":28,"velocity":103,"startTime":4.6551645,"endTime":4.704425499999999,"instrument":2,"program":32},{"pitch":36,"velocity":103,"startTime":4.729056,"endTime":5.024622,"instrument":2,"program":32},{"pitch":40,"velocity":103,"startTime":5.024622,"endTime":5.320188,"instrument":2,"program":32},{"pitch":40,"velocity":103,"startTime":5.320188,"endTime":5.615754,"instrument":2,"program":32},{"pitch":43,"velocity":103,"startTime":5.615754,"endTime":5.886689499999999,"instrument":2,"program":32},{"pitch":38,"velocity":103,"startTime":5.91132,"endTime":6.206886,"instrument":2,"program":32},{"pitch":45,"velocity":103,"startTime":6.206886,"endTime":6.502452,"instrument":2,"program":32},{"pitch":45,"velocity":103,"startTime":6.502452,"endTime":6.798018,"instrument":2,"program":32},{"pitch":45,"velocity":103,"startTime":6.798018,"endTime":7.093584,"instrument":2,"program":32},{"pitch":43,"velocity":103,"startTime":7.093584,"endTime":7.3152585,"instrument":2,"program":32},{"pitch":43,"velocity":103,"startTime":7.3152585,"endTime":7.38915,"instrument":2,"program":32},{"pitch":43,"velocity":103,"startTime":7.38915,"endTime":7.684716,"instrument":2,"program":32},{"pitch":38,"velocity":103,"startTime":7.684716,"endTime":7.980282,"instrument":2,"program":32},{"pitch":43,"velocity":103,"startTime":7.980282,"endTime":8.275848,"instrument":2,"program":32},{"pitch":43,"velocity":103,"startTime":8.275848,"endTime":8.620674999999999,"instrument":2,"program":32},{"pitch":38,"velocity":103,"startTime":8.571413999999999,"endTime":8.891610499999999,"instrument":2,"program":32},{"pitch":42,"velocity":103,"startTime":8.86698,"endTime":9.1871765,"instrument":2,"program":32},{"pitch":43,"velocity":103,"startTime":9.162545999999999,"endTime":9.458112,"instrument":2,"program":32},{"pitch":55,"velocity":57,"startTime":9.679786499999999,"endTime":9.753677999999999},{"pitch":62,"velocity":57,"startTime":9.679786499999999,"endTime":9.753677999999999},{"pitch":43,"velocity":57,"startTime":9.7783085,"endTime":9.8275695},{"pitch":62,"velocity":57,"startTime":9.7783085,"endTime":9.8522},{"pitch":55,"velocity":57,"startTime":10.344809999999999,"endTime":10.443332},{"pitch":62,"velocity":57,"startTime":10.344809999999999,"endTime":10.443332},{"pitch":59,"velocity":57,"startTime":10.3694405,"endTime":10.443332},{"pitch":57,"velocity":57,"startTime":10.862050499999999,"endTime":10.9113115},{"pitch":59,"velocity":57,"startTime":10.862050499999999,"endTime":10.886681},{"pitch":62,"velocity":57,"startTime":10.862050499999999,"endTime":10.886681},{"pitch":57,"velocity":57,"startTime":11.453182499999999,"endTime":11.5024435},{"pitch":59,"velocity":57,"startTime":11.5517045,"endTime":11.674857},{"pitch":62,"velocity":57,"startTime":11.5517045,"endTime":11.674857},{"pitch":52,"velocity":57,"startTime":12.044314499999999,"endTime":12.0935755},{"pitch":59,"velocity":57,"startTime":12.044314499999999,"endTime":12.0935755},{"pitch":66,"velocity":57,"startTime":12.044314499999999,"endTime":12.0935755},{"pitch":62,"velocity":57,"startTime":12.068945,"endTime":12.0935755},{"pitch":52,"velocity":57,"startTime":12.413772,"endTime":12.512293999999999},{"pitch":55,"velocity":57,"startTime":12.438402499999999,"endTime":12.512293999999999},{"pitch":59,"velocity":57,"startTime":12.438402499999999,"endTime":12.512293999999999},{"pitch":64,"velocity":57,"startTime":12.438402499999999,"endTime":12.512293999999999},{"pitch":40,"velocity":57,"startTime":13.226578499999999,"endTime":13.300469999999999},{"pitch":59,"velocity":57,"startTime":13.3251005,"endTime":13.398992},{"pitch":64,"velocity":57,"startTime":13.3251005,"endTime":13.423622499999999},{"pitch":59,"velocity":57,"startTime":13.891601999999999,"endTime":13.990124},{"pitch":64,"velocity":57,"startTime":13.891601999999999,"endTime":13.9654935},{"pitch":68,"velocity":57,"startTime":13.891601999999999,"endTime":13.9654935},{"pitch":59,"velocity":57,"startTime":14.482733999999999,"endTime":14.581255999999996},{"pitch":64,"velocity":57,"startTime":14.482733999999999,"endTime":14.6058865},{"pitch":67,"velocity":57,"startTime":14.482733999999999,"endTime":14.581255999999996},{"pitch":57,"velocity":57,"startTime":15.2955405,"endTime":15.443323499999998},{"pitch":64,"velocity":57,"startTime":15.2955405,"endTime":15.443323499999998},{"pitch":67,"velocity":57,"startTime":15.2955405,"endTime":15.443323499999998},{"pitch":72,"velocity":57,"startTime":15.2955405,"endTime":15.443323499999998},{"pitch":57,"velocity":57,"startTime":15.8866725,"endTime":15.911302999999997},{"pitch":64,"velocity":57,"startTime":15.8866725,"endTime":15.9359335},{"pitch":67,"velocity":57,"startTime":15.8866725,"endTime":15.9359335},{"pitch":55,"velocity":57,"startTime":17.9556345,"endTime":18.0048955},{"pitch":59,"velocity":57,"startTime":17.9556345,"endTime":17.980264999999996},{"pitch":62,"velocity":57,"startTime":17.9556345,"endTime":18.0048955},{"pitch":55,"velocity":57,"startTime":18.029525999999997,"endTime":18.1034175},{"pitch":62,"velocity":57,"startTime":18.029525999999997,"endTime":18.1034175},{"pitch":59,"velocity":57,"startTime":18.054156499999998,"endTime":18.1034175},{"pitch":35,"velocity":80,"startTime":9.458112,"endTime":9.4827425,"instrument":1,"isDrum":true},{"pitch":44,"velocity":80,"startTime":9.458112,"endTime":9.4827425,"instrument":1,"isDrum":true},{"pitch":51,"velocity":80,"startTime":9.458112,"endTime":9.4827425,"instrument":1,"isDrum":true},{"pitch":51,"velocity":80,"startTime":9.655155999999998,"endTime":9.704417000000001,"instrument":1,"isDrum":true},{"pitch":37,"velocity":80,"startTime":9.753677999999999,"endTime":9.7783085,"instrument":1,"isDrum":true},{"pitch":39,"velocity":80,"startTime":9.753677999999999,"endTime":9.7783085,"instrument":1,"isDrum":true},{"pitch":44,"velocity":80,"startTime":9.753677999999999,"endTime":9.7783085,"instrument":1,"isDrum":true},{"pitch":51,"velocity":80,"startTime":9.753677999999999,"endTime":9.7783085,"instrument":1,"isDrum":true},{"pitch":35,"velocity":80,"startTime":9.950721999999999,"endTime":9.999983,"instrument":1,"isDrum":true},{"pitch":44,"velocity":80,"startTime":10.049244,"endTime":10.0738745,"instrument":1,"isDrum":true},{"pitch":51,"velocity":80,"startTime":10.049244,"endTime":10.0738745,"instrument":1,"isDrum":true},{"pitch":35,"velocity":80,"startTime":10.246288,"endTime":10.295549,"instrument":1,"isDrum":true},{"pitch":51,"velocity":80,"startTime":10.246288,"endTime":10.295549,"instrument":1,"isDrum":true},{"pitch":35,"velocity":80,"startTime":10.344809999999999,"endTime":10.3694405,"instrument":1,"isDrum":true},{"pitch":44,"velocity":80,"startTime":10.344809999999999,"endTime":10.3694405,"instrument":1,"isDrum":true},{"pitch":51,"velocity":80,"startTime":10.344809999999999,"endTime":10.3694405,"instrument":1,"isDrum":true},{"pitch":35,"velocity":80,"startTime":10.541853999999999,"endTime":10.591114999999999,"instrument":1,"isDrum":true},{"pitch":51,"velocity":80,"startTime":10.541853999999999,"endTime":10.591114999999999,"instrument":1,"isDrum":true},{"pitch":35,"velocity":80,"startTime":10.640376,"endTime":10.665006499999999,"instrument":1,"isDrum":true},{"pitch":44,"velocity":80,"startTime":10.640376,"endTime":10.665006499999999,"instrument":1,"isDrum":true},{"pitch":51,"velocity":80,"startTime":10.640376,"endTime":10.665006499999999,"instrument":1,"isDrum":true},{"pitch":35,"velocity":80,"startTime":10.83742,"endTime":10.886681,"instrument":1,"isDrum":true},{"pitch":51,"velocity":80,"startTime":10.83742,"endTime":10.886681,"instrument":1,"isDrum":true},{"pitch":37,"velocity":80,"startTime":10.935941999999999,"endTime":10.9605725,"instrument":1,"isDrum":true},{"pitch":44,"velocity":80,"startTime":10.935941999999999,"endTime":10.9605725,"instrument":1,"isDrum":true},{"pitch":51,"velocity":80,"startTime":10.935941999999999,"endTime":10.9605725,"instrument":1,"isDrum":true},{"pitch":35,"velocity":80,"startTime":11.132985999999999,"endTime":11.182246999999998,"instrument":1,"isDrum":true},{"pitch":51,"velocity":80,"startTime":11.132985999999999,"endTime":11.182246999999998,"instrument":1,"isDrum":true},{"pitch":35,"velocity":80,"startTime":11.231508,"endTime":11.256138499999999,"instrument":1,"isDrum":true},{"pitch":44,"velocity":80,"startTime":11.231508,"endTime":11.256138499999999,"instrument":1,"isDrum":true},{"pitch":51,"velocity":80,"startTime":11.231508,"endTime":11.256138499999999,"instrument":1,"isDrum":true},{"pitch":53,"velocity":80,"startTime":11.428552,"endTime":11.477813,"instrument":1,"isDrum":true},{"pitch":37,"velocity":80,"startTime":11.527073999999999,"endTime":11.5517045,"instrument":1,"isDrum":true},{"pitch":44,"velocity":80,"startTime":11.527073999999999,"endTime":11.5517045,"instrument":1,"isDrum":true},{"pitch":51,"velocity":80,"startTime":11.527073999999999,"endTime":11.5517045,"instrument":1,"isDrum":true},{"pitch":35,"velocity":80,"startTime":11.724117999999999,"endTime":11.773378999999998,"instrument":1,"isDrum":true},{"pitch":51,"velocity":80,"startTime":11.724117999999999,"endTime":11.773378999999998,"instrument":1,"isDrum":true},{"pitch":35,"velocity":80,"startTime":11.82264,"endTime":11.847270499999999,"instrument":1,"isDrum":true},{"pitch":44,"velocity":80,"startTime":11.82264,"endTime":11.847270499999999,"instrument":1,"isDrum":true},{"pitch":51,"velocity":80,"startTime":11.82264,"endTime":11.847270499999999,"instrument":1,"isDrum":true},{"pitch":51,"velocity":80,"startTime":12.019684,"endTime":12.068945,"instrument":1,"isDrum":true},{"pitch":37,"velocity":80,"startTime":12.118205999999999,"endTime":12.1428365,"instrument":1,"isDrum":true},{"pitch":44,"velocity":80,"startTime":12.118205999999999,"endTime":12.1428365,"instrument":1,"isDrum":true},{"pitch":51,"velocity":80,"startTime":12.118205999999999,"endTime":12.1428365,"instrument":1,"isDrum":true},{"pitch":35,"velocity":80,"startTime":12.315249999999999,"endTime":12.364510999999998,"instrument":1,"isDrum":true},{"pitch":51,"velocity":80,"startTime":12.315249999999999,"endTime":12.364510999999998,"instrument":1,"isDrum":true},{"pitch":35,"velocity":80,"startTime":12.413772,"endTime":12.438402499999999,"instrument":1,"isDrum":true},{"pitch":44,"velocity":80,"startTime":12.413772,"endTime":12.438402499999999,"instrument":1,"isDrum":true},{"pitch":51,"velocity":80,"startTime":12.413772,"endTime":12.438402499999999,"instrument":1,"isDrum":true},{"pitch":53,"velocity":80,"startTime":12.610816,"endTime":12.660077,"instrument":1,"isDrum":true},{"pitch":37,"velocity":80,"startTime":12.709337999999999,"endTime":12.7339685,"instrument":1,"isDrum":true},{"pitch":44,"velocity":80,"startTime":12.709337999999999,"endTime":12.7339685,"instrument":1,"isDrum":true},{"pitch":51,"velocity":80,"startTime":12.709337999999999,"endTime":12.7339685,"instrument":1,"isDrum":true},{"pitch":35,"velocity":80,"startTime":12.906381999999999,"endTime":12.955642999999998,"instrument":1,"isDrum":true},{"pitch":51,"velocity":80,"startTime":12.906381999999999,"endTime":12.955642999999998,"instrument":1,"isDrum":true},{"pitch":35,"velocity":80,"startTime":13.004904,"endTime":13.029534499999999,"instrument":1,"isDrum":true},{"pitch":44,"velocity":80,"startTime":13.004904,"endTime":13.029534499999999,"instrument":1,"isDrum":true},{"pitch":51,"velocity":80,"startTime":13.004904,"endTime":13.029534499999999,"instrument":1,"isDrum":true},{"pitch":51,"velocity":80,"startTime":13.201948,"endTime":13.251209,"instrument":1,"isDrum":true},{"pitch":37,"velocity":80,"startTime":13.300469999999999,"endTime":13.3251005,"instrument":1,"isDrum":true},{"pitch":44,"velocity":80,"startTime":13.300469999999999,"endTime":13.3251005,"instrument":1,"isDrum":true},{"pitch":51,"velocity":80,"startTime":13.300469999999999,"endTime":13.3251005,"instrument":1,"isDrum":true},{"pitch":35,"velocity":80,"startTime":13.497513999999999,"endTime":13.546774999999998,"instrument":1,"isDrum":true},{"pitch":51,"velocity":80,"startTime":13.497513999999999,"endTime":13.546774999999998,"instrument":1,"isDrum":true},{"pitch":35,"velocity":80,"startTime":13.596036,"endTime":13.620666499999999,"instrument":1,"isDrum":true},{"pitch":44,"velocity":80,"startTime":13.596036,"endTime":13.620666499999999,"instrument":1,"isDrum":true},{"pitch":51,"velocity":80,"startTime":13.596036,"endTime":13.620666499999999,"instrument":1,"isDrum":true},{"pitch":51,"velocity":80,"startTime":13.79308,"endTime":13.842341,"instrument":1,"isDrum":true},{"pitch":37,"velocity":80,"startTime":13.891601999999999,"endTime":13.9162325,"instrument":1,"isDrum":true},{"pitch":44,"velocity":80,"startTime":13.891601999999999,"endTime":13.9162325,"instrument":1,"isDrum":true},{"pitch":51,"velocity":80,"startTime":13.891601999999999,"endTime":13.9162325,"instrument":1,"isDrum":true},{"pitch":35,"velocity":80,"startTime":14.088645999999999,"endTime":14.137906999999998,"instrument":1,"isDrum":true},{"pitch":51,"velocity":80,"startTime":14.088645999999999,"endTime":14.137906999999998,"instrument":1,"isDrum":true},{"pitch":35,"velocity":80,"startTime":14.187168,"endTime":14.211798499999997,"instrument":1,"isDrum":true},{"pitch":44,"velocity":80,"startTime":14.187168,"endTime":14.211798499999997,"instrument":1,"isDrum":true},{"pitch":51,"velocity":80,"startTime":14.187168,"endTime":14.211798499999997,"instrument":1,"isDrum":true},{"pitch":51,"velocity":80,"startTime":14.384212000000002,"endTime":14.433472999999998,"instrument":1,"isDrum":true},{"pitch":37,"velocity":80,"startTime":14.482733999999999,"endTime":14.507364499999996,"instrument":1,"isDrum":true},{"pitch":44,"velocity":80,"startTime":14.482733999999999,"endTime":14.507364499999996,"instrument":1,"isDrum":true},{"pitch":51,"velocity":80,"startTime":14.482733999999999,"endTime":14.507364499999996,"instrument":1,"isDrum":true},{"pitch":35,"velocity":80,"startTime":14.679778,"endTime":14.729038999999997,"instrument":1,"isDrum":true},{"pitch":51,"velocity":80,"startTime":14.679778,"endTime":14.729038999999997,"instrument":1,"isDrum":true},{"pitch":35,"velocity":80,"startTime":14.7783,"endTime":14.802930499999997,"instrument":1,"isDrum":true},{"pitch":44,"velocity":80,"startTime":14.7783,"endTime":14.802930499999997,"instrument":1,"isDrum":true},{"pitch":51,"velocity":80,"startTime":14.7783,"endTime":14.802930499999997,"instrument":1,"isDrum":true},{"pitch":35,"velocity":80,"startTime":14.975344000000002,"endTime":15.024604999999998,"instrument":1,"isDrum":true},{"pitch":51,"velocity":80,"startTime":14.975344000000002,"endTime":15.024604999999998,"instrument":1,"isDrum":true},{"pitch":37,"velocity":80,"startTime":15.073865999999999,"endTime":15.098496499999996,"instrument":1,"isDrum":true},{"pitch":44,"velocity":80,"startTime":15.073865999999999,"endTime":15.098496499999996,"instrument":1,"isDrum":true},{"pitch":51,"velocity":80,"startTime":15.073865999999999,"endTime":15.098496499999996,"instrument":1,"isDrum":true},{"pitch":35,"velocity":80,"startTime":15.27091,"endTime":15.320170999999997,"instrument":1,"isDrum":true},{"pitch":51,"velocity":80,"startTime":15.27091,"endTime":15.320170999999997,"instrument":1,"isDrum":true},{"pitch":35,"velocity":80,"startTime":15.369432,"endTime":15.394062499999997,"instrument":1,"isDrum":true},{"pitch":44,"velocity":80,"startTime":15.369432,"endTime":15.394062499999997,"instrument":1,"isDrum":true},{"pitch":51,"velocity":80,"startTime":15.369432,"endTime":15.394062499999997,"instrument":1,"isDrum":true},{"pitch":53,"velocity":80,"startTime":15.566476000000002,"endTime":15.615736999999998,"instrument":1,"isDrum":true},{"pitch":37,"velocity":80,"startTime":15.664997999999999,"endTime":15.689628499999996,"instrument":1,"isDrum":true},{"pitch":44,"velocity":80,"startTime":15.664997999999999,"endTime":15.689628499999996,"instrument":1,"isDrum":true},{"pitch":51,"velocity":80,"startTime":15.664997999999999,"endTime":15.689628499999996,"instrument":1,"isDrum":true},{"pitch":35,"velocity":80,"startTime":15.862042,"endTime":15.911302999999997,"instrument":1,"isDrum":true},{"pitch":51,"velocity":80,"startTime":15.862042,"endTime":15.911302999999997,"instrument":1,"isDrum":true},{"pitch":35,"velocity":80,"startTime":15.960564,"endTime":15.985194499999997,"instrument":1,"isDrum":true},{"pitch":44,"velocity":80,"startTime":15.960564,"endTime":15.985194499999997,"instrument":1,"isDrum":true},{"pitch":51,"velocity":80,"startTime":15.960564,"endTime":15.985194499999997,"instrument":1,"isDrum":true},{"pitch":51,"velocity":80,"startTime":16.157608,"endTime":16.206868999999998,"instrument":1,"isDrum":true},{"pitch":37,"velocity":80,"startTime":16.25613,"endTime":16.280760499999996,"instrument":1,"isDrum":true},{"pitch":44,"velocity":80,"startTime":16.25613,"endTime":16.280760499999996,"instrument":1,"isDrum":true},{"pitch":51,"velocity":80,"startTime":16.25613,"endTime":16.280760499999996,"instrument":1,"isDrum":true},{"pitch":35,"velocity":80,"startTime":16.453174,"endTime":16.502434999999995,"instrument":1,"isDrum":true},{"pitch":51,"velocity":80,"startTime":16.453174,"endTime":16.502434999999995,"instrument":1,"isDrum":true},{"pitch":35,"velocity":80,"startTime":16.551696,"endTime":16.576326499999997,"instrument":1,"isDrum":true},{"pitch":44,"velocity":80,"startTime":16.551696,"endTime":16.576326499999997,"instrument":1,"isDrum":true},{"pitch":51,"velocity":80,"startTime":16.551696,"endTime":16.576326499999997,"instrument":1,"isDrum":true},{"pitch":51,"velocity":80,"startTime":16.74874,"endTime":16.798000999999996,"instrument":1,"isDrum":true},{"pitch":37,"velocity":80,"startTime":16.847261999999997,"endTime":16.871892499999998,"instrument":1,"isDrum":true},{"pitch":44,"velocity":80,"startTime":16.847261999999997,"endTime":16.871892499999998,"instrument":1,"isDrum":true},{"pitch":51,"velocity":80,"startTime":16.847261999999997,"endTime":16.871892499999998,"instrument":1,"isDrum":true},{"pitch":35,"velocity":80,"startTime":17.044306000000002,"endTime":17.093566999999997,"instrument":1,"isDrum":true},{"pitch":51,"velocity":80,"startTime":17.044306000000002,"endTime":17.093566999999997,"instrument":1,"isDrum":true},{"pitch":35,"velocity":80,"startTime":17.142827999999998,"endTime":17.167458499999995,"instrument":1,"isDrum":true},{"pitch":44,"velocity":80,"startTime":17.142827999999998,"endTime":17.167458499999995,"instrument":1,"isDrum":true},{"pitch":51,"velocity":80,"startTime":17.142827999999998,"endTime":17.167458499999995,"instrument":1,"isDrum":true},{"pitch":51,"velocity":80,"startTime":17.339872,"endTime":17.389132999999998,"instrument":1,"isDrum":true},{"pitch":37,"velocity":80,"startTime":17.438394,"endTime":17.463024499999996,"instrument":1,"isDrum":true},{"pitch":44,"velocity":80,"startTime":17.438394,"endTime":17.463024499999996,"instrument":1,"isDrum":true},{"pitch":51,"velocity":80,"startTime":17.438394,"endTime":17.463024499999996,"instrument":1,"isDrum":true},{"pitch":35,"velocity":80,"startTime":17.635438,"endTime":17.684698999999995,"instrument":1,"isDrum":true},{"pitch":51,"velocity":80,"startTime":17.635438,"endTime":17.684698999999995,"instrument":1,"isDrum":true},{"pitch":43,"velocity":103,"startTime":9.458112,"endTime":9.679786499999999,"instrument":2,"program":32},{"pitch":31,"velocity":103,"startTime":9.679786499999999,"endTime":9.753677999999999,"instrument":2,"program":32},{"pitch":38,"velocity":103,"startTime":9.753677999999999,"endTime":10.049244,"instrument":2,"program":32},{"pitch":43,"velocity":103,"startTime":10.049244,"endTime":10.246288,"instrument":2,"program":32},{"pitch":38,"velocity":103,"startTime":10.270918499999999,"endTime":10.344809999999999,"instrument":2,"program":32},{"pitch":43,"velocity":103,"startTime":10.344809999999999,"endTime":10.5664845,"instrument":2,"program":32},{"pitch":43,"velocity":103,"startTime":10.640376,"endTime":10.862050499999999,"instrument":2,"program":32},{"pitch":35,"velocity":103,"startTime":10.862050499999999,"endTime":10.935941999999999,"instrument":2,"program":32},{"pitch":38,"velocity":103,"startTime":10.935941999999999,"endTime":11.1576165,"instrument":2,"program":32},{"pitch":37,"velocity":103,"startTime":11.1576165,"endTime":11.231508,"instrument":2,"program":32},{"pitch":38,"velocity":103,"startTime":11.231508,"endTime":11.527073999999999,"instrument":2,"program":32},{"pitch":39,"velocity":103,"startTime":11.527073999999999,"endTime":11.82264,"instrument":2,"program":32},{"pitch":40,"velocity":103,"startTime":11.82264,"endTime":12.044314499999999,"instrument":2,"program":32},{"pitch":28,"velocity":103,"startTime":12.044314499999999,"endTime":12.118205999999999,"instrument":2,"program":32},{"pitch":40,"velocity":103,"startTime":12.118205999999999,"endTime":12.413772,"instrument":2,"program":32},{"pitch":40,"velocity":103,"startTime":12.413772,"endTime":12.709337999999999,"instrument":2,"program":32},{"pitch":35,"velocity":103,"startTime":12.709337999999999,"endTime":12.9310125,"instrument":2,"program":32},{"pitch":28,"velocity":103,"startTime":12.9310125,"endTime":13.004904,"instrument":2,"program":32},{"pitch":40,"velocity":103,"startTime":13.004904,"endTime":13.226578499999999,"instrument":2,"program":32},{"pitch":35,"velocity":103,"startTime":13.226578499999999,"endTime":13.300469999999999,"instrument":2,"program":32},{"pitch":37,"velocity":103,"startTime":13.300469999999999,"endTime":13.596036,"instrument":2,"program":32},{"pitch":30,"velocity":103,"startTime":13.596036,"endTime":13.79308,"instrument":2,"program":32},{"pitch":30,"velocity":103,"startTime":13.817710499999999,"endTime":13.891601999999999,"instrument":2,"program":32},{"pitch":35,"velocity":103,"startTime":13.891601999999999,"endTime":14.1132765,"instrument":2,"program":32},{"pitch":30,"velocity":103,"startTime":14.1132765,"endTime":14.187168,"instrument":2,"program":32},{"pitch":36,"velocity":103,"startTime":14.187168,"endTime":14.408842499999999,"instrument":2,"program":32},{"pitch":24,"velocity":103,"startTime":14.408842499999999,"endTime":14.482733999999999,"instrument":2,"program":32},{"pitch":40,"velocity":103,"startTime":14.482733999999999,"endTime":14.7783,"instrument":2,"program":32},{"pitch":36,"velocity":103,"startTime":14.7783,"endTime":15.073865999999999,"instrument":2,"program":32},{"pitch":28,"velocity":103,"startTime":15.073865999999999,"endTime":15.369432,"instrument":2,"program":32},{"pitch":38,"velocity":103,"startTime":15.369432,"endTime":15.714259000000002,"instrument":2,"program":32},{"pitch":45,"velocity":103,"startTime":15.664997999999999,"endTime":16.25613,"instrument":2,"program":32},{"pitch":45,"velocity":103,"startTime":15.960564,"endTime":15.985194499999997,"instrument":2,"program":32},{"pitch":38,"velocity":103,"startTime":16.25613,"endTime":16.551696,"instrument":2,"program":32},{"pitch":43,"velocity":103,"startTime":16.551696,"endTime":16.7733705,"instrument":2,"program":32},{"pitch":31,"velocity":103,"startTime":16.7733705,"endTime":16.847261999999997,"instrument":2,"program":32},{"pitch":43,"velocity":103,"startTime":16.847261999999997,"endTime":17.142827999999998,"instrument":2,"program":32},{"pitch":38,"velocity":103,"startTime":17.142827999999998,"endTime":17.438394,"instrument":2,"program":32},{"pitch":31,"velocity":103,"startTime":17.438394,"endTime":17.73396,"instrument":2,"program":32},{"pitch":43,"velocity":103,"startTime":17.73396,"endTime":17.9556345,"instrument":2,"program":32},{"pitch":31,"velocity":103,"startTime":17.9556345,"endTime":18.029525999999997,"instrument":2,"program":32},{"pitch":38,"velocity":103,"startTime":18.029525999999997,"endTime":18.325091999999998,"instrument":2,"program":32},{"pitch":43,"velocity":103,"startTime":18.325091999999998,"endTime":18.620658,"instrument":2,"program":32},{"pitch":43,"velocity":103,"startTime":18.620658,"endTime":18.916224,"instrument":2,"program":32},{"pitch":43,"velocity":57,"startTime":18.940854499999997,"endTime":18.965485},{"pitch":57,"velocity":57,"startTime":18.940854499999997,"endTime":18.965485},{"pitch":59,"velocity":57,"startTime":18.940854499999997,"endTime":18.965485},{"pitch":62,"velocity":57,"startTime":18.940854499999997,"endTime":18.965485},{"pitch":65,"velocity":57,"startTime":18.940854499999997,"endTime":18.990115499999998},{"pitch":43,"velocity":57,"startTime":20.098488,"endTime":20.19701},{"pitch":59,"velocity":57,"startTime":20.098488,"endTime":20.2216405},{"pitch":62,"velocity":57,"startTime":20.098488,"endTime":20.2216405},{"pitch":43,"velocity":57,"startTime":20.6157285,"endTime":20.689619999999998},{"pitch":59,"velocity":57,"startTime":20.6157285,"endTime":20.7142505},{"pitch":59,"velocity":57,"startTime":20.6157285,"endTime":20.689619999999998},{"pitch":62,"velocity":57,"startTime":20.6157285,"endTime":20.689619999999998},{"pitch":69,"velocity":57,"startTime":20.6157285,"endTime":20.7142505},{"pitch":40,"velocity":57,"startTime":21.280752,"endTime":21.354643499999998},{"pitch":52,"velocity":57,"startTime":21.280752,"endTime":21.354643499999998},{"pitch":56,"velocity":57,"startTime":21.280752,"endTime":21.354643499999998},{"pitch":59,"velocity":57,"startTime":21.280752,"endTime":21.379274},{"pitch":62,"velocity":57,"startTime":21.280752,"endTime":21.379274},{"pitch":40,"velocity":57,"startTime":21.871883999999998,"endTime":21.995036499999998},{"pitch":52,"velocity":57,"startTime":22.16745,"endTime":22.241341499999997},{"pitch":57,"velocity":57,"startTime":22.16745,"endTime":22.241341499999997},{"pitch":59,"velocity":57,"startTime":22.16745,"endTime":22.241341499999997},{"pitch":62,"velocity":57,"startTime":22.16745,"endTime":22.241341499999997},{"pitch":52,"velocity":57,"startTime":22.463016,"endTime":22.5861685},{"pitch":57,"velocity":57,"startTime":22.463016,"endTime":22.5861685},{"pitch":59,"velocity":57,"startTime":22.463016,"endTime":22.5861685},{"pitch":62,"velocity":57,"startTime":22.463016,"endTime":22.5861685},{"pitch":52,"velocity":57,"startTime":22.709321,"endTime":22.758581999999997},{"pitch":57,"velocity":57,"startTime":22.709321,"endTime":22.758581999999997},{"pitch":59,"velocity":57,"startTime":22.709321,"endTime":22.758581999999997},{"pitch":62,"velocity":57,"startTime":22.709321,"endTime":22.758581999999997},{"pitch":48,"velocity":57,"startTime":23.64528,"endTime":23.743802},{"pitch":60,"velocity":57,"startTime":23.64528,"endTime":23.743802},{"pitch":55,"velocity":57,"startTime":23.669910499999997,"endTime":23.743802},{"pitch":62,"velocity":57,"startTime":23.669910499999997,"endTime":23.7684325},{"pitch":38,"velocity":57,"startTime":24.827544,"endTime":24.9506965},{"pitch":57,"velocity":57,"startTime":24.827544,"endTime":24.926066},{"pitch":62,"velocity":57,"startTime":24.827544,"endTime":24.9506965},{"pitch":60,"velocity":57,"startTime":24.852174499999997,"endTime":24.9506965},{"pitch":50,"velocity":57,"startTime":25.147740499999998,"endTime":25.221632},{"pitch":57,"velocity":57,"startTime":25.147740499999998,"endTime":25.1970015},{"pitch":60,"velocity":57,"startTime":25.147740499999998,"endTime":25.1970015},{"pitch":64,"velocity":57,"startTime":25.147740499999998,"endTime":25.221632},{"pitch":43,"velocity":57,"startTime":26.2314825,"endTime":26.305373999999997},{"pitch":59,"velocity":57,"startTime":26.2314825,"endTime":26.2807435},{"pitch":62,"velocity":57,"startTime":26.2314825,"endTime":26.305373999999997},{"pitch":43,"velocity":57,"startTime":26.896506,"endTime":26.970397499999997},{"pitch":59,"velocity":57,"startTime":26.896506,"endTime":26.970397499999997},{"pitch":62,"velocity":57,"startTime":26.9211365,"endTime":26.970397499999997},{"pitch":65,"velocity":57,"startTime":26.9211365,"endTime":26.995027999999998},{"pitch":43,"velocity":57,"startTime":27.118180499999998,"endTime":27.192072},{"pitch":59,"velocity":57,"startTime":27.118180499999998,"endTime":27.3152245},{"pitch":62,"velocity":57,"startTime":27.118180499999998,"endTime":27.3152245},{"pitch":65,"velocity":57,"startTime":27.118180499999998,"endTime":27.3152245},{"pitch":67,"velocity":57,"startTime":27.118180499999998,"endTime":27.3152245},{"pitch":43,"velocity":57,"startTime":27.783203999999998,"endTime":27.881725999999997},{"pitch":59,"velocity":57,"startTime":27.783203999999998,"endTime":27.881725999999997},{"pitch":62,"velocity":57,"startTime":27.783203999999998,"endTime":27.906356499999998},{"pitch":55,"velocity":57,"startTime":27.8078345,"endTime":27.881725999999997},{"pitch":35,"velocity":80,"startTime":18.916224,"endTime":18.940854499999997,"instrument":1,"isDrum":true},{"pitch":44,"velocity":80,"startTime":18.916224,"endTime":18.940854499999997,"instrument":1,"isDrum":true},{"pitch":53,"velocity":80,"startTime":18.916224,"endTime":18.940854499999997,"instrument":1,"isDrum":true},{"pitch":51,"velocity":80,"startTime":19.113268,"endTime":19.1378985,"instrument":1,"isDrum":true},{"pitch":35,"velocity":80,"startTime":19.211789999999997,"endTime":19.236420499999998,"instrument":1,"isDrum":true},{"pitch":37,"velocity":80,"startTime":19.211789999999997,"endTime":19.236420499999998,"instrument":1,"isDrum":true},{"pitch":44,"velocity":80,"startTime":19.211789999999997,"endTime":19.236420499999998,"instrument":1,"isDrum":true},{"pitch":53,"velocity":80,"startTime":19.211789999999997,"endTime":19.236420499999998,"instrument":1,"isDrum":true},{"pitch":35,"velocity":80,"startTime":19.507355999999998,"endTime":19.531986499999995,"instrument":1,"isDrum":true},{"pitch":44,"velocity":80,"startTime":19.507355999999998,"endTime":19.531986499999995,"instrument":1,"isDrum":true},{"pitch":51,"velocity":80,"startTime":19.507355999999998,"endTime":19.531986499999995,"instrument":1,"isDrum":true},{"pitch":53,"velocity":80,"startTime":19.7044,"endTime":19.7290305,"instrument":1,"isDrum":true},{"pitch":35,"velocity":80,"startTime":19.802922,"endTime":19.827552499999996,"instrument":1,"isDrum":true},{"pitch":37,"velocity":80,"startTime":19.802922,"endTime":19.827552499999996,"instrument":1,"isDrum":true},{"pitch":44,"velocity":80,"startTime":19.802922,"endTime":19.827552499999996,"instrument":1,"isDrum":true},{"pitch":51,"velocity":80,"startTime":19.802922,"endTime":19.827552499999996,"instrument":1,"isDrum":true},{"pitch":51,"velocity":80,"startTime":19.999966,"endTime":20.024596499999998,"instrument":1,"isDrum":true},{"pitch":35,"velocity":80,"startTime":20.098488,"endTime":20.123118499999997,"instrument":1,"isDrum":true},{"pitch":44,"velocity":80,"startTime":20.098488,"endTime":20.123118499999997,"instrument":1,"isDrum":true},{"pitch":51,"velocity":80,"startTime":20.098488,"endTime":20.123118499999997,"instrument":1,"isDrum":true},{"pitch":35,"velocity":80,"startTime":20.394053999999997,"endTime":20.418684499999998,"instrument":1,"isDrum":true},{"pitch":37,"velocity":80,"startTime":20.394053999999997,"endTime":20.418684499999998,"instrument":1,"isDrum":true},{"pitch":38,"velocity":80,"startTime":20.394053999999997,"endTime":20.418684499999998,"instrument":1,"isDrum":true},{"pitch":44,"velocity":80,"startTime":20.394053999999997,"endTime":20.418684499999998,"instrument":1,"isDrum":true},{"pitch":51,"velocity":80,"startTime":20.394053999999997,"endTime":20.418684499999998,"instrument":1,"isDrum":true},{"pitch":35,"velocity":80,"startTime":20.689619999999998,"endTime":20.7142505,"instrument":1,"isDrum":true},{"pitch":44,"velocity":80,"startTime":20.689619999999998,"endTime":20.7142505,"instrument":1,"isDrum":true},{"pitch":51,"velocity":80,"startTime":20.689619999999998,"endTime":20.7142505,"instrument":1,"isDrum":true},{"pitch":51,"velocity":80,"startTime":20.886664,"endTime":20.911294499999997,"instrument":1,"isDrum":true},{"pitch":35,"velocity":80,"startTime":20.985186,"endTime":21.0098165,"instrument":1,"isDrum":true},{"pitch":37,"velocity":80,"startTime":20.985186,"endTime":21.0098165,"instrument":1,"isDrum":true},{"pitch":44,"velocity":80,"startTime":20.985186,"endTime":21.0098165,"instrument":1,"isDrum":true},{"pitch":51,"velocity":80,"startTime":20.985186,"endTime":21.0098165,"instrument":1,"isDrum":true},{"pitch":53,"velocity":80,"startTime":21.182229999999997,"endTime":21.280752,"instrument":1,"isDrum":true},{"pitch":44,"velocity":80,"startTime":21.280752,"endTime":21.305382499999997,"instrument":1,"isDrum":true},{"pitch":51,"velocity":80,"startTime":21.280752,"endTime":21.305382499999997,"instrument":1,"isDrum":true},{"pitch":35,"velocity":80,"startTime":21.477795999999998,"endTime":21.5024265,"instrument":1,"isDrum":true},{"pitch":51,"velocity":80,"startTime":21.477795999999998,"endTime":21.5024265,"instrument":1,"isDrum":true},{"pitch":35,"velocity":80,"startTime":21.576317999999997,"endTime":21.600948499999998,"instrument":1,"isDrum":true},{"pitch":37,"velocity":80,"startTime":21.576317999999997,"endTime":21.600948499999998,"instrument":1,"isDrum":true},{"pitch":38,"velocity":80,"startTime":21.576317999999997,"endTime":21.600948499999998,"instrument":1,"isDrum":true},{"pitch":44,"velocity":80,"startTime":21.576317999999997,"endTime":21.600948499999998,"instrument":1,"isDrum":true},{"pitch":51,"velocity":80,"startTime":21.576317999999997,"endTime":21.600948499999998,"instrument":1,"isDrum":true},{"pitch":53,"velocity":80,"startTime":21.576317999999997,"endTime":21.600948499999998,"instrument":1,"isDrum":true},{"pitch":51,"velocity":80,"startTime":21.773362,"endTime":21.7979925,"instrument":1,"isDrum":true},{"pitch":35,"velocity":80,"startTime":21.871883999999998,"endTime":21.8965145,"instrument":1,"isDrum":true},{"pitch":44,"velocity":80,"startTime":21.871883999999998,"endTime":21.8965145,"instrument":1,"isDrum":true},{"pitch":51,"velocity":80,"startTime":21.871883999999998,"endTime":21.8965145,"instrument":1,"isDrum":true},{"pitch":53,"velocity":80,"startTime":22.068928,"endTime":22.093558499999997,"instrument":1,"isDrum":true},{"pitch":35,"velocity":80,"startTime":22.16745,"endTime":22.1920805,"instrument":1,"isDrum":true},{"pitch":37,"velocity":80,"startTime":22.16745,"endTime":22.1920805,"instrument":1,"isDrum":true},{"pitch":44,"velocity":80,"startTime":22.16745,"endTime":22.1920805,"instrument":1,"isDrum":true},{"pitch":51,"velocity":80,"startTime":22.16745,"endTime":22.1920805,"instrument":1,"isDrum":true},{"pitch":51,"velocity":80,"startTime":22.364493999999997,"endTime":22.463016,"instrument":1,"isDrum":true},{"pitch":35,"velocity":80,"startTime":22.463016,"endTime":22.487646499999997,"instrument":1,"isDrum":true},{"pitch":44,"velocity":80,"startTime":22.463016,"endTime":22.487646499999997,"instrument":1,"isDrum":true},{"pitch":51,"velocity":80,"startTime":22.463016,"endTime":22.487646499999997,"instrument":1,"isDrum":true},{"pitch":35,"velocity":80,"startTime":22.660059999999998,"endTime":22.6846905,"instrument":1,"isDrum":true},{"pitch":51,"velocity":80,"startTime":22.660059999999998,"endTime":22.6846905,"instrument":1,"isDrum":true},{"pitch":35,"velocity":80,"startTime":22.758581999999997,"endTime":22.783212499999998,"instrument":1,"isDrum":true},{"pitch":37,"velocity":80,"startTime":22.758581999999997,"endTime":22.783212499999998,"instrument":1,"isDrum":true},{"pitch":44,"velocity":80,"startTime":22.758581999999997,"endTime":22.783212499999998,"instrument":1,"isDrum":true},{"pitch":51,"velocity":80,"startTime":22.758581999999997,"endTime":22.783212499999998,"instrument":1,"isDrum":true},{"pitch":51,"velocity":80,"startTime":22.955626,"endTime":23.054147999999998,"instrument":1,"isDrum":true},{"pitch":35,"velocity":80,"startTime":23.054147999999998,"endTime":23.0787785,"instrument":1,"isDrum":true},{"pitch":44,"velocity":80,"startTime":23.054147999999998,"endTime":23.0787785,"instrument":1,"isDrum":true},{"pitch":51,"velocity":80,"startTime":23.054147999999998,"endTime":23.0787785,"instrument":1,"isDrum":true},{"pitch":35,"velocity":80,"startTime":23.251192,"endTime":23.275822499999997,"instrument":1,"isDrum":true},{"pitch":51,"velocity":80,"startTime":23.251192,"endTime":23.275822499999997,"instrument":1,"isDrum":true},{"pitch":35,"velocity":80,"startTime":23.349714,"endTime":23.3743445,"instrument":1,"isDrum":true},{"pitch":37,"velocity":80,"startTime":23.349714,"endTime":23.3743445,"instrument":1,"isDrum":true},{"pitch":38,"velocity":80,"startTime":23.349714,"endTime":23.3743445,"instrument":1,"isDrum":true},{"pitch":44,"velocity":80,"startTime":23.349714,"endTime":23.3743445,"instrument":1,"isDrum":true},{"pitch":51,"velocity":80,"startTime":23.349714,"endTime":23.3743445,"instrument":1,"isDrum":true},{"pitch":53,"velocity":80,"startTime":23.349714,"endTime":23.3743445,"instrument":1,"isDrum":true},{"pitch":51,"velocity":80,"startTime":23.546757999999997,"endTime":23.571388499999998,"instrument":1,"isDrum":true},{"pitch":35,"velocity":80,"startTime":23.64528,"endTime":23.669910499999997,"instrument":1,"isDrum":true},{"pitch":44,"velocity":80,"startTime":23.64528,"endTime":23.669910499999997,"instrument":1,"isDrum":true},{"pitch":51,"velocity":80,"startTime":23.64528,"endTime":23.669910499999997,"instrument":1,"isDrum":true},{"pitch":35,"velocity":80,"startTime":23.842323999999998,"endTime":23.8669545,"instrument":1,"isDrum":true},{"pitch":53,"velocity":80,"startTime":23.842323999999998,"endTime":23.8669545,"instrument":1,"isDrum":true},{"pitch":35,"velocity":80,"startTime":23.940845999999997,"endTime":23.965476499999998,"instrument":1,"isDrum":true},{"pitch":37,"velocity":80,"startTime":23.940845999999997,"endTime":23.965476499999998,"instrument":1,"isDrum":true},{"pitch":38,"velocity":80,"startTime":23.940845999999997,"endTime":23.965476499999998,"instrument":1,"isDrum":true},{"pitch":44,"velocity":80,"startTime":23.940845999999997,"endTime":23.965476499999998,"instrument":1,"isDrum":true},{"pitch":51,"velocity":80,"startTime":23.940845999999997,"endTime":23.965476499999998,"instrument":1,"isDrum":true},{"pitch":51,"velocity":80,"startTime":24.13789,"endTime":24.1625205,"instrument":1,"isDrum":true},{"pitch":35,"velocity":80,"startTime":24.236411999999998,"endTime":24.2610425,"instrument":1,"isDrum":true},{"pitch":44,"velocity":80,"startTime":24.236411999999998,"endTime":24.2610425,"instrument":1,"isDrum":true},{"pitch":51,"velocity":80,"startTime":24.236411999999998,"endTime":24.2610425,"instrument":1,"isDrum":true},{"pitch":35,"velocity":80,"startTime":24.433456,"endTime":24.458086499999997,"instrument":1,"isDrum":true},{"pitch":51,"velocity":80,"startTime":24.433456,"endTime":24.458086499999997,"instrument":1,"isDrum":true},{"pitch":35,"velocity":80,"startTime":24.531978,"endTime":24.5566085,"instrument":1,"isDrum":true},{"pitch":37,"velocity":80,"startTime":24.531978,"endTime":24.5566085,"instrument":1,"isDrum":true},{"pitch":38,"velocity":80,"startTime":24.531978,"endTime":24.5566085,"instrument":1,"isDrum":true},{"pitch":44,"velocity":80,"startTime":24.531978,"endTime":24.5566085,"instrument":1,"isDrum":true},{"pitch":51,"velocity":80,"startTime":24.531978,"endTime":24.5566085,"instrument":1,"isDrum":true},{"pitch":51,"velocity":80,"startTime":24.729021999999997,"endTime":24.827544,"instrument":1,"isDrum":true},{"pitch":35,"velocity":80,"startTime":24.827544,"endTime":24.852174499999997,"instrument":1,"isDrum":true},{"pitch":44,"velocity":80,"startTime":24.827544,"endTime":24.852174499999997,"instrument":1,"isDrum":true},{"pitch":51,"velocity":80,"startTime":24.827544,"endTime":24.852174499999997,"instrument":1,"isDrum":true},{"pitch":35,"velocity":80,"startTime":25.024587999999998,"endTime":25.0492185,"instrument":1,"isDrum":true},{"pitch":51,"velocity":80,"startTime":25.024587999999998,"endTime":25.0492185,"instrument":1,"isDrum":true},{"pitch":35,"velocity":80,"startTime":25.123109999999997,"endTime":25.147740499999998,"instrument":1,"isDrum":true},{"pitch":37,"velocity":80,"startTime":25.123109999999997,"endTime":25.147740499999998,"instrument":1,"isDrum":true},{"pitch":38,"velocity":80,"startTime":25.123109999999997,"endTime":25.147740499999998,"instrument":1,"isDrum":true},{"pitch":44,"velocity":80,"startTime":25.123109999999997,"endTime":25.147740499999998,"instrument":1,"isDrum":true},{"pitch":51,"velocity":80,"startTime":25.123109999999997,"endTime":25.147740499999998,"instrument":1,"isDrum":true},{"pitch":51,"velocity":80,"startTime":25.320154,"endTime":25.418675999999998,"instrument":1,"isDrum":true},{"pitch":35,"velocity":80,"startTime":25.418675999999998,"endTime":25.4433065,"instrument":1,"isDrum":true},{"pitch":51,"velocity":80,"startTime":25.418675999999998,"endTime":25.4433065,"instrument":1,"isDrum":true},{"pitch":51,"velocity":80,"startTime":25.61572,"endTime":25.640350499999997,"instrument":1,"isDrum":true},{"pitch":35,"velocity":80,"startTime":25.714242,"endTime":25.7388725,"instrument":1,"isDrum":true},{"pitch":44,"velocity":80,"startTime":25.714242,"endTime":25.7388725,"instrument":1,"isDrum":true},{"pitch":51,"velocity":80,"startTime":25.714242,"endTime":25.7388725,"instrument":1,"isDrum":true},{"pitch":53,"velocity":80,"startTime":25.714242,"endTime":25.7388725,"instrument":1,"isDrum":true},{"pitch":51,"velocity":80,"startTime":25.911285999999997,"endTime":25.935916499999998,"instrument":1,"isDrum":true},{"pitch":35,"velocity":80,"startTime":26.009808,"endTime":26.034438499999997,"instrument":1,"isDrum":true},{"pitch":44,"velocity":80,"startTime":26.009808,"endTime":26.034438499999997,"instrument":1,"isDrum":true},{"pitch":51,"velocity":80,"startTime":26.009808,"endTime":26.034438499999997,"instrument":1,"isDrum":true},{"pitch":51,"velocity":80,"startTime":26.206851999999998,"endTime":26.2314825,"instrument":1,"isDrum":true},{"pitch":35,"velocity":80,"startTime":26.305373999999997,"endTime":26.330004499999998,"instrument":1,"isDrum":true},{"pitch":44,"velocity":80,"startTime":26.305373999999997,"endTime":26.330004499999998,"instrument":1,"isDrum":true},{"pitch":51,"velocity":80,"startTime":26.305373999999997,"endTime":26.330004499999998,"instrument":1,"isDrum":true},{"pitch":53,"velocity":80,"startTime":26.305373999999997,"endTime":26.330004499999998,"instrument":1,"isDrum":true},{"pitch":51,"velocity":80,"startTime":26.502418,"endTime":26.5270485,"instrument":1,"isDrum":true},{"pitch":35,"velocity":80,"startTime":26.600939999999998,"endTime":26.6255705,"instrument":1,"isDrum":true},{"pitch":44,"velocity":80,"startTime":26.600939999999998,"endTime":26.6255705,"instrument":1,"isDrum":true},{"pitch":51,"velocity":80,"startTime":26.600939999999998,"endTime":26.6255705,"instrument":1,"isDrum":true},{"pitch":35,"velocity":80,"startTime":26.797984,"endTime":26.822614499999997,"instrument":1,"isDrum":true},{"pitch":51,"velocity":80,"startTime":26.797984,"endTime":26.822614499999997,"instrument":1,"isDrum":true},{"pitch":35,"velocity":80,"startTime":26.896506,"endTime":26.9211365,"instrument":1,"isDrum":true},{"pitch":37,"velocity":80,"startTime":26.896506,"endTime":26.9211365,"instrument":1,"isDrum":true},{"pitch":38,"velocity":80,"startTime":26.896506,"endTime":26.9211365,"instrument":1,"isDrum":true},{"pitch":44,"velocity":80,"startTime":26.896506,"endTime":26.9211365,"instrument":1,"isDrum":true},{"pitch":51,"velocity":80,"startTime":26.896506,"endTime":26.9211365,"instrument":1,"isDrum":true},{"pitch":51,"velocity":80,"startTime":27.093549999999997,"endTime":27.118180499999998,"instrument":1,"isDrum":true},{"pitch":35,"velocity":80,"startTime":27.192072,"endTime":27.216702499999997,"instrument":1,"isDrum":true},{"pitch":44,"velocity":80,"startTime":27.192072,"endTime":27.216702499999997,"instrument":1,"isDrum":true},{"pitch":51,"velocity":80,"startTime":27.192072,"endTime":27.216702499999997,"instrument":1,"isDrum":true},{"pitch":35,"velocity":80,"startTime":27.389115999999998,"endTime":27.4137465,"instrument":1,"isDrum":true},{"pitch":51,"velocity":80,"startTime":27.389115999999998,"endTime":27.4137465,"instrument":1,"isDrum":true},{"pitch":35,"velocity":80,"startTime":27.487637999999997,"endTime":27.512268499999998,"instrument":1,"isDrum":true},{"pitch":37,"velocity":80,"startTime":27.487637999999997,"endTime":27.512268499999998,"instrument":1,"isDrum":true},{"pitch":38,"velocity":80,"startTime":27.487637999999997,"endTime":27.512268499999998,"instrument":1,"isDrum":true},{"pitch":44,"velocity":80,"startTime":27.487637999999997,"endTime":27.512268499999998,"instrument":1,"isDrum":true},{"pitch":51,"velocity":80,"startTime":27.487637999999997,"endTime":27.512268499999998,"instrument":1,"isDrum":true},{"pitch":51,"velocity":80,"startTime":27.684682,"endTime":27.783203999999998,"instrument":1,"isDrum":true},{"pitch":31,"velocity":103,"startTime":18.916224,"endTime":19.1378985,"instrument":2,"program":32},{"pitch":31,"velocity":103,"startTime":19.1378985,"endTime":19.211789999999997,"instrument":2,"program":32},{"pitch":35,"velocity":103,"startTime":19.211789999999997,"endTime":19.507355999999998,"instrument":2,"program":32},{"pitch":38,"velocity":103,"startTime":19.507355999999998,"endTime":19.802922,"instrument":2,"program":32},{"pitch":31,"velocity":103,"startTime":19.802922,"endTime":19.999966,"instrument":2,"program":32},{"pitch":31,"velocity":103,"startTime":20.024596499999998,"endTime":20.7142505,"instrument":2,"program":32},{"pitch":31,"velocity":103,"startTime":20.394053999999997,"endTime":20.443315,"instrument":2,"program":32},{"pitch":35,"velocity":103,"startTime":20.689619999999998,"endTime":20.985186,"instrument":2,"program":32},{"pitch":31,"velocity":103,"startTime":20.985186,"endTime":21.280752,"instrument":2,"program":32},{"pitch":28,"velocity":103,"startTime":21.280752,"endTime":21.625579,"instrument":2,"program":32},{"pitch":40,"velocity":103,"startTime":21.576317999999997,"endTime":22.16745,"instrument":2,"program":32},{"pitch":40,"velocity":103,"startTime":21.871883999999998,"endTime":21.8965145,"instrument":2,"program":32},{"pitch":35,"velocity":103,"startTime":22.16745,"endTime":22.463016,"instrument":2,"program":32},{"pitch":40,"velocity":103,"startTime":22.463016,"endTime":22.758581999999997,"instrument":2,"program":32},{"pitch":38,"velocity":103,"startTime":22.758581999999997,"endTime":23.054147999999998,"instrument":2,"program":32},{"pitch":40,"velocity":103,"startTime":23.054147999999998,"endTime":23.349714,"instrument":2,"program":32},{"pitch":35,"velocity":103,"startTime":23.349714,"endTime":23.64528,"instrument":2,"program":32},{"pitch":36,"velocity":103,"startTime":23.64528,"endTime":24.2610425,"instrument":2,"program":32},{"pitch":36,"velocity":103,"startTime":23.940845999999997,"endTime":23.990107,"instrument":2,"program":32},{"pitch":40,"velocity":103,"startTime":24.236411999999998,"endTime":24.581239,"instrument":2,"program":32},{"pitch":43,"velocity":103,"startTime":24.531978,"endTime":24.827544,"instrument":2,"program":32},{"pitch":38,"velocity":103,"startTime":24.827544,"endTime":25.0492185,"instrument":2,"program":32},{"pitch":26,"velocity":103,"startTime":25.0492185,"endTime":25.123109999999997,"instrument":2,"program":32},{"pitch":38,"velocity":103,"startTime":25.123109999999997,"endTime":25.418675999999998,"instrument":2,"program":32},{"pitch":38,"velocity":103,"startTime":25.418675999999998,"endTime":25.714242,"instrument":2,"program":32},{"pitch":31,"velocity":103,"startTime":25.714242,"endTime":26.009808,"instrument":2,"program":32},{"pitch":31,"velocity":103,"startTime":26.009808,"endTime":26.182221499999997,"instrument":2,"program":32},{"pitch":31,"velocity":103,"startTime":26.2314825,"endTime":26.305373999999997,"instrument":2,"program":32},{"pitch":35,"velocity":103,"startTime":26.305373999999997,"endTime":26.600939999999998,"instrument":2,"program":32},{"pitch":35,"velocity":103,"startTime":26.600939999999998,"endTime":26.896506,"instrument":2,"program":32},{"pitch":38,"velocity":103,"startTime":26.896506,"endTime":27.192072,"instrument":2,"program":32},{"pitch":31,"velocity":103,"startTime":27.192072,"endTime":27.536899,"instrument":2,"program":32},{"pitch":38,"velocity":103,"startTime":27.487637999999997,"endTime":27.783203999999998,"instrument":2,"program":32},{"pitch":38,"velocity":103,"startTime":27.783203999999998,"endTime":28.07877,"instrument":2,"program":32},{"pitch":31,"velocity":103,"startTime":28.07877,"endTime":28.374336,"instrument":2,"program":32},{"pitch":43,"velocity":57,"startTime":28.398966499999997,"endTime":28.620641},{"pitch":62,"velocity":57,"startTime":28.398966499999997,"endTime":28.6452715},{"pitch":67,"velocity":57,"startTime":28.398966499999997,"endTime":28.6452715},{"pitch":43,"velocity":57,"startTime":28.669901999999997,"endTime":28.916206999999996},{"pitch":62,"velocity":57,"startTime":28.669901999999997,"endTime":28.940837499999997},{"pitch":67,"velocity":57,"startTime":28.669901999999997,"endTime":28.916206999999996},{"pitch":43,"velocity":57,"startTime":29.187142499999997,"endTime":29.261034},{"pitch":64,"velocity":57,"startTime":29.2856645,"endTime":29.3841865},{"pitch":67,"velocity":57,"startTime":29.2856645,"endTime":29.3841865},{"pitch":43,"velocity":57,"startTime":29.7782745,"endTime":29.901426999999998},{"pitch":50,"velocity":57,"startTime":29.876796499999998,"endTime":29.901426999999998},{"pitch":57,"velocity":57,"startTime":29.876796499999998,"endTime":29.901426999999998},{"pitch":64,"velocity":57,"startTime":29.876796499999998,"endTime":29.9260575},{"pitch":67,"velocity":57,"startTime":29.876796499999998,"endTime":29.9260575},{"pitch":57,"velocity":57,"startTime":30.369406499999997,"endTime":30.418667499999998},{"pitch":64,"velocity":57,"startTime":30.369406499999997,"endTime":30.418667499999998},{"pitch":67,"velocity":57,"startTime":30.369406499999997,"endTime":30.418667499999998},{"pitch":50,"velocity":57,"startTime":30.394036999999997,"endTime":30.418667499999998},{"pitch":40,"velocity":57,"startTime":30.738864,"endTime":30.788124999999997},{"pitch":52,"velocity":57,"startTime":30.763494499999997,"endTime":30.812755499999998},{"pitch":56,"velocity":57,"startTime":30.763494499999997,"endTime":30.812755499999998},{"pitch":62,"velocity":57,"startTime":30.763494499999997,"endTime":30.812755499999998},{"pitch":40,"velocity":57,"startTime":31.2561045,"endTime":31.379257},{"pitch":50,"velocity":57,"startTime":31.3546265,"endTime":31.453148499999998},{"pitch":55,"velocity":57,"startTime":31.3546265,"endTime":31.428517999999997},{"pitch":59,"velocity":57,"startTime":31.3546265,"endTime":31.403887499999996},{"pitch":66,"velocity":57,"startTime":31.3546265,"endTime":31.428517999999997},{"pitch":40,"velocity":57,"startTime":31.921128,"endTime":32.01965},{"pitch":55,"velocity":57,"startTime":31.921128,"endTime":32.01965},{"pitch":59,"velocity":57,"startTime":31.921128,"endTime":31.995019499999998},{"pitch":64,"velocity":57,"startTime":31.921128,"endTime":32.01965},{"pitch":40,"velocity":57,"startTime":32.438368499999996,"endTime":32.561521},{"pitch":54,"velocity":57,"startTime":32.51226,"endTime":32.5861515},{"pitch":59,"velocity":57,"startTime":32.5368905,"endTime":32.5861515},{"pitch":62,"velocity":57,"startTime":33.103392,"endTime":33.152653},{"pitch":48,"velocity":57,"startTime":33.1280225,"endTime":33.177283499999994},{"pitch":55,"velocity":57,"startTime":33.1280225,"endTime":33.177283499999994},{"pitch":43,"velocity":57,"startTime":33.6206325,"endTime":33.6698935},{"pitch":62,"velocity":57,"startTime":33.694523999999994,"endTime":33.719154499999995},{"pitch":55,"velocity":57,"startTime":33.719154499999995,"endTime":33.793046},{"pitch":50,"velocity":57,"startTime":34.507330499999995,"endTime":34.556591499999996},{"pitch":57,"velocity":57,"startTime":34.581222,"endTime":34.630483},{"pitch":50,"velocity":57,"startTime":34.6058525,"endTime":34.630483},{"pitch":62,"velocity":57,"startTime":34.6058525,"endTime":34.6551135},{"pitch":50,"velocity":57,"startTime":35.0984625,"endTime":35.1477235},{"pitch":57,"velocity":57,"startTime":35.0984625,"endTime":35.123093},{"pitch":62,"velocity":57,"startTime":35.0984625,"endTime":35.1477235},{"pitch":43,"velocity":57,"startTime":35.6895945,"endTime":35.763486},{"pitch":57,"velocity":57,"startTime":35.7881165,"endTime":35.8866385},{"pitch":59,"velocity":57,"startTime":35.7881165,"endTime":35.862007999999996},{"pitch":62,"velocity":57,"startTime":35.7881165,"endTime":35.8866385},{"pitch":43,"velocity":57,"startTime":35.9851605,"endTime":36.059051999999994},{"pitch":43,"velocity":57,"startTime":36.108312999999995,"endTime":36.1822045},{"pitch":57,"velocity":57,"startTime":36.2807265,"endTime":36.329987499999994},{"pitch":59,"velocity":57,"startTime":36.2807265,"endTime":36.329987499999994},{"pitch":62,"velocity":57,"startTime":36.2807265,"endTime":36.329987499999994},{"pitch":43,"velocity":57,"startTime":36.5762925,"endTime":36.650183999999996},{"pitch":57,"velocity":57,"startTime":36.6748145,"endTime":36.748706},{"pitch":60,"velocity":57,"startTime":36.6748145,"endTime":36.7240755},{"pitch":64,"velocity":57,"startTime":36.6748145,"endTime":36.748706},{"pitch":67,"velocity":57,"startTime":36.6748145,"endTime":36.748706},{"pitch":43,"velocity":57,"startTime":37.167424499999996,"endTime":37.241316},{"pitch":57,"velocity":57,"startTime":37.167424499999996,"endTime":37.241316},{"pitch":60,"velocity":57,"startTime":37.167424499999996,"endTime":37.241316},{"pitch":67,"velocity":57,"startTime":37.167424499999996,"endTime":37.2659465},{"pitch":35,"velocity":80,"startTime":28.374336,"endTime":28.398966499999997,"instrument":1,"isDrum":true},{"pitch":44,"velocity":80,"startTime":28.374336,"endTime":28.398966499999997,"instrument":1,"isDrum":true},{"pitch":51,"velocity":80,"startTime":28.374336,"endTime":28.398966499999997,"instrument":1,"isDrum":true},{"pitch":53,"velocity":80,"startTime":28.374336,"endTime":28.398966499999997,"instrument":1,"isDrum":true},{"pitch":56,"velocity":80,"startTime":28.374336,"endTime":28.398966499999997,"instrument":1,"isDrum":true},{"pitch":35,"velocity":80,"startTime":28.571379999999998,"endTime":28.6452715,"instrument":1,"isDrum":true},{"pitch":53,"velocity":80,"startTime":28.571379999999998,"endTime":28.6452715,"instrument":1,"isDrum":true},{"pitch":35,"velocity":80,"startTime":28.669901999999997,"endTime":28.694532499999998,"instrument":1,"isDrum":true},{"pitch":44,"velocity":80,"startTime":28.669901999999997,"endTime":28.694532499999998,"instrument":1,"isDrum":true},{"pitch":51,"velocity":80,"startTime":28.669901999999997,"endTime":28.694532499999998,"instrument":1,"isDrum":true},{"pitch":53,"velocity":80,"startTime":28.669901999999997,"endTime":28.694532499999998,"instrument":1,"isDrum":true},{"pitch":56,"velocity":80,"startTime":28.669901999999997,"endTime":28.694532499999998,"instrument":1,"isDrum":true},{"pitch":35,"velocity":80,"startTime":28.866946,"endTime":28.940837499999997,"instrument":1,"isDrum":true},{"pitch":38,"velocity":80,"startTime":28.866946,"endTime":28.940837499999997,"instrument":1,"isDrum":true},{"pitch":51,"velocity":80,"startTime":28.866946,"endTime":28.940837499999997,"instrument":1,"isDrum":true},{"pitch":53,"velocity":80,"startTime":28.866946,"endTime":28.940837499999997,"instrument":1,"isDrum":true},{"pitch":35,"velocity":80,"startTime":28.965467999999998,"endTime":28.9900985,"instrument":1,"isDrum":true},{"pitch":44,"velocity":80,"startTime":28.965467999999998,"endTime":28.9900985,"instrument":1,"isDrum":true},{"pitch":51,"velocity":80,"startTime":28.965467999999998,"endTime":28.9900985,"instrument":1,"isDrum":true},{"pitch":56,"velocity":80,"startTime":28.965467999999998,"endTime":28.9900985,"instrument":1,"isDrum":true},{"pitch":35,"velocity":80,"startTime":29.162512,"endTime":29.236403499999998,"instrument":1,"isDrum":true},{"pitch":38,"velocity":80,"startTime":29.162512,"endTime":29.236403499999998,"instrument":1,"isDrum":true},{"pitch":51,"velocity":80,"startTime":29.162512,"endTime":29.236403499999998,"instrument":1,"isDrum":true},{"pitch":35,"velocity":80,"startTime":29.261034,"endTime":29.2856645,"instrument":1,"isDrum":true},{"pitch":44,"velocity":80,"startTime":29.261034,"endTime":29.2856645,"instrument":1,"isDrum":true},{"pitch":51,"velocity":80,"startTime":29.261034,"endTime":29.2856645,"instrument":1,"isDrum":true},{"pitch":53,"velocity":80,"startTime":29.261034,"endTime":29.2856645,"instrument":1,"isDrum":true},{"pitch":56,"velocity":80,"startTime":29.261034,"endTime":29.2856645,"instrument":1,"isDrum":true},{"pitch":35,"velocity":80,"startTime":29.458077999999997,"endTime":29.5319695,"instrument":1,"isDrum":true},{"pitch":38,"velocity":80,"startTime":29.458077999999997,"endTime":29.5319695,"instrument":1,"isDrum":true},{"pitch":51,"velocity":80,"startTime":29.458077999999997,"endTime":29.5319695,"instrument":1,"isDrum":true},{"pitch":35,"velocity":80,"startTime":29.5566,"endTime":29.605860999999997,"instrument":1,"isDrum":true},{"pitch":44,"velocity":80,"startTime":29.5566,"endTime":29.605860999999997,"instrument":1,"isDrum":true},{"pitch":51,"velocity":80,"startTime":29.5566,"endTime":29.605860999999997,"instrument":1,"isDrum":true},{"pitch":53,"velocity":80,"startTime":29.5566,"endTime":29.605860999999997,"instrument":1,"isDrum":true},{"pitch":56,"velocity":80,"startTime":29.5566,"endTime":29.605860999999997,"instrument":1,"isDrum":true},{"pitch":51,"velocity":80,"startTime":29.753643999999998,"endTime":29.827535499999996,"instrument":1,"isDrum":true},{"pitch":35,"velocity":80,"startTime":29.852165999999997,"endTime":29.901426999999998,"instrument":1,"isDrum":true},{"pitch":44,"velocity":80,"startTime":29.852165999999997,"endTime":29.901426999999998,"instrument":1,"isDrum":true},{"pitch":51,"velocity":80,"startTime":29.852165999999997,"endTime":29.901426999999998,"instrument":1,"isDrum":true},{"pitch":53,"velocity":80,"startTime":29.852165999999997,"endTime":29.901426999999998,"instrument":1,"isDrum":true},{"pitch":56,"velocity":80,"startTime":29.852165999999997,"endTime":29.901426999999998,"instrument":1,"isDrum":true},{"pitch":51,"velocity":80,"startTime":30.04921,"endTime":30.123101499999997,"instrument":1,"isDrum":true},{"pitch":35,"velocity":80,"startTime":30.147731999999998,"endTime":30.196993,"instrument":1,"isDrum":true},{"pitch":44,"velocity":80,"startTime":30.147731999999998,"endTime":30.196993,"instrument":1,"isDrum":true},{"pitch":51,"velocity":80,"startTime":30.147731999999998,"endTime":30.196993,"instrument":1,"isDrum":true},{"pitch":56,"velocity":80,"startTime":30.147731999999998,"endTime":30.196993,"instrument":1,"isDrum":true},{"pitch":51,"velocity":80,"startTime":30.344776,"endTime":30.418667499999998,"instrument":1,"isDrum":true},{"pitch":35,"velocity":80,"startTime":30.443298,"endTime":30.492558999999996,"instrument":1,"isDrum":true},{"pitch":44,"velocity":80,"startTime":30.443298,"endTime":30.492558999999996,"instrument":1,"isDrum":true},{"pitch":51,"velocity":80,"startTime":30.443298,"endTime":30.492558999999996,"instrument":1,"isDrum":true},{"pitch":56,"velocity":80,"startTime":30.443298,"endTime":30.492558999999996,"instrument":1,"isDrum":true},{"pitch":51,"velocity":80,"startTime":30.640341999999997,"endTime":30.7142335,"instrument":1,"isDrum":true},{"pitch":35,"velocity":80,"startTime":30.738864,"endTime":30.788124999999997,"instrument":1,"isDrum":true},{"pitch":44,"velocity":80,"startTime":30.738864,"endTime":30.788124999999997,"instrument":1,"isDrum":true},{"pitch":51,"velocity":80,"startTime":30.738864,"endTime":30.788124999999997,"instrument":1,"isDrum":true},{"pitch":53,"velocity":80,"startTime":30.738864,"endTime":30.788124999999997,"instrument":1,"isDrum":true},{"pitch":51,"velocity":80,"startTime":30.935907999999998,"endTime":31.009799499999996,"instrument":1,"isDrum":true},{"pitch":35,"velocity":80,"startTime":31.034429999999997,"endTime":31.083690999999998,"instrument":1,"isDrum":true},{"pitch":44,"velocity":80,"startTime":31.034429999999997,"endTime":31.083690999999998,"instrument":1,"isDrum":true},{"pitch":51,"velocity":80,"startTime":31.034429999999997,"endTime":31.083690999999998,"instrument":1,"isDrum":true},{"pitch":56,"velocity":80,"startTime":31.034429999999997,"endTime":31.083690999999998,"instrument":1,"isDrum":true},{"pitch":51,"velocity":80,"startTime":31.231474,"endTime":31.305365499999997,"instrument":1,"isDrum":true},{"pitch":35,"velocity":80,"startTime":31.329995999999998,"endTime":31.379257,"instrument":1,"isDrum":true},{"pitch":44,"velocity":80,"startTime":31.329995999999998,"endTime":31.379257,"instrument":1,"isDrum":true},{"pitch":51,"velocity":80,"startTime":31.329995999999998,"endTime":31.379257,"instrument":1,"isDrum":true},{"pitch":53,"velocity":80,"startTime":31.329995999999998,"endTime":31.379257,"instrument":1,"isDrum":true},{"pitch":56,"velocity":80,"startTime":31.329995999999998,"endTime":31.379257,"instrument":1,"isDrum":true},{"pitch":51,"velocity":80,"startTime":31.52704,"endTime":31.600931499999998,"instrument":1,"isDrum":true},{"pitch":35,"velocity":80,"startTime":31.625562,"endTime":31.674822999999996,"instrument":1,"isDrum":true},{"pitch":44,"velocity":80,"startTime":31.625562,"endTime":31.674822999999996,"instrument":1,"isDrum":true},{"pitch":51,"velocity":80,"startTime":31.625562,"endTime":31.674822999999996,"instrument":1,"isDrum":true},{"pitch":53,"velocity":80,"startTime":31.625562,"endTime":31.674822999999996,"instrument":1,"isDrum":true},{"pitch":56,"velocity":80,"startTime":31.625562,"endTime":31.674822999999996,"instrument":1,"isDrum":true},{"pitch":51,"velocity":80,"startTime":31.822605999999997,"endTime":31.8964975,"instrument":1,"isDrum":true},{"pitch":35,"velocity":80,"startTime":31.921128,"endTime":31.970388999999997,"instrument":1,"isDrum":true},{"pitch":44,"velocity":80,"startTime":31.921128,"endTime":31.970388999999997,"instrument":1,"isDrum":true},{"pitch":51,"velocity":80,"startTime":31.921128,"endTime":31.970388999999997,"instrument":1,"isDrum":true},{"pitch":53,"velocity":80,"startTime":31.921128,"endTime":31.970388999999997,"instrument":1,"isDrum":true},{"pitch":51,"velocity":80,"startTime":32.118172,"endTime":32.192063499999996,"instrument":1,"isDrum":true},{"pitch":35,"velocity":80,"startTime":32.216694,"endTime":32.265955,"instrument":1,"isDrum":true},{"pitch":44,"velocity":80,"startTime":32.216694,"endTime":32.265955,"instrument":1,"isDrum":true},{"pitch":51,"velocity":80,"startTime":32.216694,"endTime":32.265955,"instrument":1,"isDrum":true},{"pitch":56,"velocity":80,"startTime":32.216694,"endTime":32.265955,"instrument":1,"isDrum":true},{"pitch":53,"velocity":80,"startTime":32.216694,"endTime":32.265955,"instrument":1,"isDrum":true},{"pitch":51,"velocity":80,"startTime":32.413737999999995,"endTime":32.4876295,"instrument":1,"isDrum":true},{"pitch":35,"velocity":80,"startTime":32.51226,"endTime":32.561521,"instrument":1,"isDrum":true},{"pitch":44,"velocity":80,"startTime":32.51226,"endTime":32.561521,"instrument":1,"isDrum":true},{"pitch":51,"velocity":80,"startTime":32.51226,"endTime":32.561521,"instrument":1,"isDrum":true},{"pitch":53,"velocity":80,"startTime":32.51226,"endTime":32.561521,"instrument":1,"isDrum":true},{"pitch":51,"velocity":80,"startTime":32.709303999999996,"endTime":32.7831955,"instrument":1,"isDrum":true},{"pitch":35,"velocity":80,"startTime":32.807826,"endTime":32.857087,"instrument":1,"isDrum":true},{"pitch":44,"velocity":80,"startTime":32.807826,"endTime":32.857087,"instrument":1,"isDrum":true},{"pitch":51,"velocity":80,"startTime":32.807826,"endTime":32.857087,"instrument":1,"isDrum":true},{"pitch":56,"velocity":80,"startTime":32.807826,"endTime":32.857087,"instrument":1,"isDrum":true},{"pitch":51,"velocity":80,"startTime":33.00487,"endTime":33.0787615,"instrument":1,"isDrum":true},{"pitch":35,"velocity":80,"startTime":33.103392,"endTime":33.152653,"instrument":1,"isDrum":true},{"pitch":44,"velocity":80,"startTime":33.103392,"endTime":33.152653,"instrument":1,"isDrum":true},{"pitch":51,"velocity":80,"startTime":33.103392,"endTime":33.152653,"instrument":1,"isDrum":true},{"pitch":53,"velocity":80,"startTime":33.103392,"endTime":33.152653,"instrument":1,"isDrum":true},{"pitch":51,"velocity":80,"startTime":33.300436,"endTime":33.3743275,"instrument":1,"isDrum":true},{"pitch":35,"velocity":80,"startTime":33.398958,"endTime":33.448218999999995,"instrument":1,"isDrum":true},{"pitch":38,"velocity":80,"startTime":33.398958,"endTime":33.448218999999995,"instrument":1,"isDrum":true},{"pitch":44,"velocity":80,"startTime":33.398958,"endTime":33.448218999999995,"instrument":1,"isDrum":true},{"pitch":51,"velocity":80,"startTime":33.398958,"endTime":33.448218999999995,"instrument":1,"isDrum":true},{"pitch":53,"velocity":80,"startTime":33.398958,"endTime":33.448218999999995,"instrument":1,"isDrum":true},{"pitch":56,"velocity":80,"startTime":33.398958,"endTime":33.448218999999995,"instrument":1,"isDrum":true},{"pitch":35,"velocity":80,"startTime":33.596002,"endTime":33.6698935,"instrument":1,"isDrum":true},{"pitch":51,"velocity":80,"startTime":33.596002,"endTime":33.6698935,"instrument":1,"isDrum":true},{"pitch":35,"velocity":80,"startTime":33.694523999999994,"endTime":33.743784999999995,"instrument":1,"isDrum":true},{"pitch":44,"velocity":80,"startTime":33.694523999999994,"endTime":33.743784999999995,"instrument":1,"isDrum":true},{"pitch":51,"velocity":80,"startTime":33.694523999999994,"endTime":33.743784999999995,"instrument":1,"isDrum":true},{"pitch":53,"velocity":80,"startTime":33.694523999999994,"endTime":33.743784999999995,"instrument":1,"isDrum":true},{"pitch":56,"velocity":80,"startTime":33.694523999999994,"endTime":33.743784999999995,"instrument":1,"isDrum":true},{"pitch":51,"velocity":80,"startTime":33.793046,"endTime":33.8669375,"instrument":1,"isDrum":true},{"pitch":51,"velocity":80,"startTime":33.891568,"endTime":33.965459499999994,"instrument":1,"isDrum":true},{"pitch":35,"velocity":80,"startTime":33.990089999999995,"endTime":34.039350999999996,"instrument":1,"isDrum":true},{"pitch":44,"velocity":80,"startTime":33.990089999999995,"endTime":34.039350999999996,"instrument":1,"isDrum":true},{"pitch":51,"velocity":80,"startTime":33.990089999999995,"endTime":34.039350999999996,"instrument":1,"isDrum":true},{"pitch":53,"velocity":80,"startTime":33.990089999999995,"endTime":34.039350999999996,"instrument":1,"isDrum":true},{"pitch":56,"velocity":80,"startTime":33.990089999999995,"endTime":34.039350999999996,"instrument":1,"isDrum":true},{"pitch":51,"velocity":80,"startTime":34.187134,"endTime":34.261025499999995,"instrument":1,"isDrum":true},{"pitch":35,"velocity":80,"startTime":34.285655999999996,"endTime":34.334917,"instrument":1,"isDrum":true},{"pitch":44,"velocity":80,"startTime":34.285655999999996,"endTime":34.334917,"instrument":1,"isDrum":true},{"pitch":51,"velocity":80,"startTime":34.285655999999996,"endTime":34.334917,"instrument":1,"isDrum":true},{"pitch":53,"velocity":80,"startTime":34.285655999999996,"endTime":34.334917,"instrument":1,"isDrum":true},{"pitch":51,"velocity":80,"startTime":34.482699999999994,"endTime":34.556591499999996,"instrument":1,"isDrum":true},{"pitch":35,"velocity":80,"startTime":34.581222,"endTime":34.630483,"instrument":1,"isDrum":true},{"pitch":44,"velocity":80,"startTime":34.581222,"endTime":34.630483,"instrument":1,"isDrum":true},{"pitch":51,"velocity":80,"startTime":34.581222,"endTime":34.630483,"instrument":1,"isDrum":true},{"pitch":53,"velocity":80,"startTime":34.581222,"endTime":34.630483,"instrument":1,"isDrum":true},{"pitch":56,"velocity":80,"startTime":34.581222,"endTime":34.630483,"instrument":1,"isDrum":true},{"pitch":51,"velocity":80,"startTime":34.778265999999995,"endTime":34.8521575,"instrument":1,"isDrum":true},{"pitch":35,"velocity":80,"startTime":34.876788,"endTime":34.926049,"instrument":1,"isDrum":true},{"pitch":44,"velocity":80,"startTime":34.876788,"endTime":34.926049,"instrument":1,"isDrum":true},{"pitch":51,"velocity":80,"startTime":34.876788,"endTime":34.926049,"instrument":1,"isDrum":true},{"pitch":53,"velocity":80,"startTime":34.876788,"endTime":34.926049,"instrument":1,"isDrum":true},{"pitch":38,"velocity":80,"startTime":35.073831999999996,"endTime":35.1477235,"instrument":1,"isDrum":true},{"pitch":51,"velocity":80,"startTime":35.073831999999996,"endTime":35.1477235,"instrument":1,"isDrum":true},{"pitch":35,"velocity":80,"startTime":35.172354,"endTime":35.221615,"instrument":1,"isDrum":true},{"pitch":44,"velocity":80,"startTime":35.172354,"endTime":35.221615,"instrument":1,"isDrum":true},{"pitch":51,"velocity":80,"startTime":35.172354,"endTime":35.221615,"instrument":1,"isDrum":true},{"pitch":53,"velocity":80,"startTime":35.172354,"endTime":35.221615,"instrument":1,"isDrum":true},{"pitch":56,"velocity":80,"startTime":35.172354,"endTime":35.221615,"instrument":1,"isDrum":true},{"pitch":38,"velocity":80,"startTime":35.369398,"endTime":35.4432895,"instrument":1,"isDrum":true},{"pitch":51,"velocity":80,"startTime":35.369398,"endTime":35.4432895,"instrument":1,"isDrum":true},{"pitch":31,"velocity":103,"startTime":28.374336,"endTime":28.719162999999998,"instrument":2,"program":32},{"pitch":38,"velocity":103,"startTime":28.669901999999997,"endTime":28.9900985,"instrument":2,"program":32},{"pitch":43,"velocity":103,"startTime":28.965467999999998,"endTime":29.2856645,"instrument":2,"program":32},{"pitch":35,"velocity":103,"startTime":29.261034,"endTime":29.5566,"instrument":2,"program":32},{"pitch":31,"velocity":103,"startTime":29.5566,"endTime":29.7782745,"instrument":2,"program":32},{"pitch":31,"velocity":103,"startTime":29.7782745,"endTime":29.852165999999997,"instrument":2,"program":32},{"pitch":38,"velocity":103,"startTime":29.852165999999997,"endTime":30.147731999999998,"instrument":2,"program":32},{"pitch":38,"velocity":103,"startTime":30.147731999999998,"endTime":30.443298,"instrument":2,"program":32},{"pitch":31,"velocity":103,"startTime":30.443298,"endTime":30.664972499999998,"instrument":2,"program":32},{"pitch":31,"velocity":103,"startTime":30.664972499999998,"endTime":30.738864,"instrument":2,"program":32},{"pitch":28,"velocity":103,"startTime":30.738864,"endTime":31.034429999999997,"instrument":2,"program":32},{"pitch":30,"velocity":103,"startTime":31.034429999999997,"endTime":31.329995999999998,"instrument":2,"program":32},{"pitch":28,"velocity":103,"startTime":31.329995999999998,"endTime":31.625562,"instrument":2,"program":32},{"pitch":35,"velocity":103,"startTime":31.625562,"endTime":31.921128,"instrument":2,"program":32},{"pitch":28,"velocity":103,"startTime":31.921128,"endTime":32.265955,"instrument":2,"program":32},{"pitch":35,"velocity":103,"startTime":32.216694,"endTime":33.103392,"instrument":2,"program":32},{"pitch":35,"velocity":103,"startTime":32.51226,"endTime":32.5368905,"instrument":2,"program":32},{"pitch":35,"velocity":103,"startTime":32.807826,"endTime":32.857087,"instrument":2,"program":32},{"pitch":36,"velocity":103,"startTime":33.103392,"endTime":33.3250665,"instrument":2,"program":32},{"pitch":24,"velocity":103,"startTime":33.3250665,"endTime":33.398958,"instrument":2,"program":32},{"pitch":40,"velocity":103,"startTime":33.398958,"endTime":33.694523999999994,"instrument":2,"program":32},{"pitch":40,"velocity":103,"startTime":33.694523999999994,"endTime":33.990089999999995,"instrument":2,"program":32},{"pitch":36,"velocity":103,"startTime":33.990089999999995,"endTime":34.285655999999996,"instrument":2,"program":32},{"pitch":38,"velocity":103,"startTime":34.285655999999996,"endTime":34.556591499999996,"instrument":2,"program":32},{"pitch":33,"velocity":103,"startTime":34.507330499999995,"endTime":34.581222,"instrument":2,"program":32},{"pitch":42,"velocity":103,"startTime":34.581222,"endTime":34.876788,"instrument":2,"program":32},{"pitch":45,"velocity":103,"startTime":34.876788,"endTime":35.172354,"instrument":2,"program":32},{"pitch":40,"velocity":103,"startTime":35.172354,"endTime":35.46792,"instrument":2,"program":32},{"pitch":43,"velocity":103,"startTime":35.46792,"endTime":35.6895945,"instrument":2,"program":32},{"pitch":31,"velocity":103,"startTime":35.6895945,"endTime":35.7388555,"instrument":2,"program":32},{"pitch":45,"velocity":103,"startTime":35.763486,"endTime":36.059051999999994,"instrument":2,"program":32},{"pitch":47,"velocity":103,"startTime":36.059051999999994,"endTime":36.354617999999995,"instrument":2,"program":32},{"pitch":43,"velocity":103,"startTime":36.354617999999995,"endTime":36.5762925,"instrument":2,"program":32},{"pitch":31,"velocity":103,"startTime":36.5762925,"endTime":36.625553499999995,"instrument":2,"program":32},{"pitch":31,"velocity":103,"startTime":36.650183999999996,"endTime":36.871858499999995,"instrument":2,"program":32},{"pitch":31,"velocity":103,"startTime":36.871858499999995,"endTime":36.921119499999996,"instrument":2,"program":32},{"pitch":33,"velocity":103,"startTime":36.94575,"endTime":37.241316,"instrument":2,"program":32},{"pitch":38,"velocity":103,"startTime":37.241316,"endTime":37.536882,"instrument":2,"program":32},{"pitch":35,"velocity":103,"startTime":37.536882,"endTime":37.832448,"instrument":2,"program":32},{"pitch":43,"velocity":57,"startTime":37.832448,"endTime":37.906339499999994},{"pitch":55,"velocity":57,"startTime":37.8570785,"endTime":37.906339499999994},{"pitch":59,"velocity":57,"startTime":37.8570785,"endTime":37.93097},{"pitch":64,"velocity":57,"startTime":37.8570785,"endTime":37.93097},{"pitch":43,"velocity":57,"startTime":38.3496885,"endTime":38.54673249999999},{"pitch":55,"velocity":57,"startTime":38.3496885,"endTime":38.522102000000004},{"pitch":59,"velocity":57,"startTime":38.3496885,"endTime":38.522102000000004},{"pitch":64,"velocity":57,"startTime":38.3496885,"endTime":38.522102000000004},{"pitch":55,"velocity":57,"startTime":39.014711999999996,"endTime":39.113234},{"pitch":59,"velocity":57,"startTime":39.014711999999996,"endTime":39.0886035},{"pitch":43,"velocity":57,"startTime":39.039342500000004,"endTime":39.0886035},{"pitch":64,"velocity":57,"startTime":39.039342500000004,"endTime":39.0886035},{"pitch":43,"velocity":57,"startTime":39.531952499999996,"endTime":39.605844},{"pitch":59,"velocity":57,"startTime":39.531952499999996,"endTime":39.6304745},{"pitch":64,"velocity":57,"startTime":39.531952499999996,"endTime":39.6304745},{"pitch":69,"velocity":57,"startTime":39.531952499999996,"endTime":39.6304745},{"pitch":57,"velocity":57,"startTime":40.1230845,"endTime":40.196976},{"pitch":64,"velocity":57,"startTime":40.1230845,"endTime":40.196976},{"pitch":71,"velocity":57,"startTime":40.1230845,"endTime":40.196976},{"pitch":45,"velocity":57,"startTime":40.147715000000005,"endTime":40.196976},{"pitch":40,"velocity":57,"startTime":40.492542,"endTime":40.566433499999995},{"pitch":56,"velocity":57,"startTime":40.492542,"endTime":40.566433499999995},{"pitch":62,"velocity":57,"startTime":40.492542,"endTime":40.591063999999996},{"pitch":66,"velocity":57,"startTime":40.492542,"endTime":40.566433499999995},{"pitch":40,"velocity":57,"startTime":41.0097825,"endTime":41.108304499999996},{"pitch":55,"velocity":57,"startTime":41.0097825,"endTime":41.1575655},{"pitch":64,"velocity":57,"startTime":41.0097825,"endTime":41.083673999999995},{"pitch":40,"velocity":57,"startTime":41.379239999999996,"endTime":41.4531315},{"pitch":55,"velocity":57,"startTime":41.379239999999996,"endTime":41.4531315},{"pitch":59,"velocity":57,"startTime":41.4038705,"endTime":41.4531315},{"pitch":62,"velocity":57,"startTime":41.4038705,"endTime":41.4531315},{"pitch":55,"velocity":57,"startTime":41.896480499999996,"endTime":41.9950025},{"pitch":59,"velocity":57,"startTime":41.896480499999996,"endTime":41.9950025},{"pitch":64,"velocity":57,"startTime":41.896480499999996,"endTime":41.970372},{"pitch":62,"velocity":57,"startTime":41.921110999999996,"endTime":41.9950025},{"pitch":60,"velocity":57,"startTime":43.0787445,"endTime":43.103375},{"pitch":64,"velocity":57,"startTime":43.0787445,"endTime":43.103375},{"pitch":67,"velocity":57,"startTime":43.0787445,"endTime":43.1280055},{"pitch":60,"velocity":57,"startTime":43.743767999999996,"endTime":43.84229},{"pitch":64,"velocity":57,"startTime":43.743767999999996,"endTime":43.84229},{"pitch":67,"velocity":57,"startTime":43.743767999999996,"endTime":43.84229},{"pitch":69,"velocity":57,"startTime":43.743767999999996,"endTime":43.84229},{"pitch":62,"velocity":57,"startTime":44.8521405,"endTime":44.999923499999994},{"pitch":67,"velocity":57,"startTime":44.8521405,"endTime":44.999923499999994},{"pitch":69,"velocity":57,"startTime":44.8521405,"endTime":44.999923499999994},{"pitch":76,"velocity":57,"startTime":44.8521405,"endTime":44.999923499999994},{"pitch":57,"velocity":57,"startTime":45.4432725,"endTime":45.517163999999994},{"pitch":62,"velocity":57,"startTime":45.4432725,"endTime":45.517163999999994},{"pitch":69,"velocity":57,"startTime":45.4432725,"endTime":45.517163999999994},{"pitch":67,"velocity":57,"startTime":45.467903,"endTime":45.517163999999994},{"pitch":57,"velocity":57,"startTime":46.108295999999996,"endTime":46.206818},{"pitch":62,"velocity":57,"startTime":46.132926499999996,"endTime":46.206818},{"pitch":67,"velocity":57,"startTime":46.132926499999996,"endTime":46.206818},{"pitch":57,"velocity":57,"startTime":46.625536499999995,"endTime":46.699428},{"pitch":62,"velocity":57,"startTime":46.625536499999995,"endTime":46.699428},{"pitch":67,"velocity":57,"startTime":46.625536499999995,"endTime":46.699428},{"pitch":35,"velocity":80,"startTime":37.832448,"endTime":37.8570785,"instrument":1,"isDrum":true},{"pitch":44,"velocity":80,"startTime":37.832448,"endTime":37.8570785,"instrument":1,"isDrum":true},{"pitch":51,"velocity":80,"startTime":37.832448,"endTime":37.8570785,"instrument":1,"isDrum":true},{"pitch":35,"velocity":80,"startTime":38.02949199999999,"endTime":38.0541225,"instrument":1,"isDrum":true},{"pitch":51,"velocity":80,"startTime":38.02949199999999,"endTime":38.0541225,"instrument":1,"isDrum":true},{"pitch":53,"velocity":80,"startTime":38.02949199999999,"endTime":38.0541225,"instrument":1,"isDrum":true},{"pitch":38,"velocity":80,"startTime":38.128014,"endTime":38.177274999999995,"instrument":1,"isDrum":true},{"pitch":44,"velocity":80,"startTime":38.128014,"endTime":38.1526445,"instrument":1,"isDrum":true},{"pitch":51,"velocity":80,"startTime":38.128014,"endTime":38.177274999999995,"instrument":1,"isDrum":true},{"pitch":35,"velocity":80,"startTime":38.423579999999994,"endTime":38.4482105,"instrument":1,"isDrum":true},{"pitch":44,"velocity":80,"startTime":38.423579999999994,"endTime":38.4482105,"instrument":1,"isDrum":true},{"pitch":51,"velocity":80,"startTime":38.423579999999994,"endTime":38.4482105,"instrument":1,"isDrum":true},{"pitch":35,"velocity":80,"startTime":38.62062399999999,"endTime":38.6452545,"instrument":1,"isDrum":true},{"pitch":51,"velocity":80,"startTime":38.62062399999999,"endTime":38.6452545,"instrument":1,"isDrum":true},{"pitch":53,"velocity":80,"startTime":38.62062399999999,"endTime":38.6452545,"instrument":1,"isDrum":true},{"pitch":38,"velocity":80,"startTime":38.719145999999995,"endTime":38.7437765,"instrument":1,"isDrum":true},{"pitch":44,"velocity":80,"startTime":38.719145999999995,"endTime":38.7437765,"instrument":1,"isDrum":true},{"pitch":51,"velocity":80,"startTime":38.719145999999995,"endTime":38.7437765,"instrument":1,"isDrum":true},{"pitch":53,"velocity":80,"startTime":38.719145999999995,"endTime":38.7437765,"instrument":1,"isDrum":true},{"pitch":35,"velocity":80,"startTime":38.91618999999999,"endTime":38.940820499999994,"instrument":1,"isDrum":true},{"pitch":51,"velocity":80,"startTime":38.91618999999999,"endTime":38.940820499999994,"instrument":1,"isDrum":true},{"pitch":35,"velocity":80,"startTime":39.014711999999996,"endTime":39.039342500000004,"instrument":1,"isDrum":true},{"pitch":44,"velocity":80,"startTime":39.014711999999996,"endTime":39.039342500000004,"instrument":1,"isDrum":true},{"pitch":51,"velocity":80,"startTime":39.014711999999996,"endTime":39.039342500000004,"instrument":1,"isDrum":true},{"pitch":35,"velocity":80,"startTime":39.211755999999994,"endTime":39.236386499999995,"instrument":1,"isDrum":true},{"pitch":51,"velocity":80,"startTime":39.211755999999994,"endTime":39.236386499999995,"instrument":1,"isDrum":true},{"pitch":38,"velocity":80,"startTime":39.310278,"endTime":39.334908500000004,"instrument":1,"isDrum":true},{"pitch":44,"velocity":80,"startTime":39.310278,"endTime":39.334908500000004,"instrument":1,"isDrum":true},{"pitch":51,"velocity":80,"startTime":39.310278,"endTime":39.334908500000004,"instrument":1,"isDrum":true},{"pitch":53,"velocity":80,"startTime":39.310278,"endTime":39.334908500000004,"instrument":1,"isDrum":true},{"pitch":35,"velocity":80,"startTime":39.507321999999995,"endTime":39.531952499999996,"instrument":1,"isDrum":true},{"pitch":51,"velocity":80,"startTime":39.507321999999995,"endTime":39.531952499999996,"instrument":1,"isDrum":true},{"pitch":35,"velocity":80,"startTime":39.605844,"endTime":39.6304745,"instrument":1,"isDrum":true},{"pitch":44,"velocity":80,"startTime":39.605844,"endTime":39.6304745,"instrument":1,"isDrum":true},{"pitch":51,"velocity":80,"startTime":39.605844,"endTime":39.6304745,"instrument":1,"isDrum":true},{"pitch":35,"velocity":80,"startTime":39.802887999999996,"endTime":39.8275185,"instrument":1,"isDrum":true},{"pitch":51,"velocity":80,"startTime":39.802887999999996,"endTime":39.8275185,"instrument":1,"isDrum":true},{"pitch":38,"velocity":80,"startTime":39.90141,"endTime":39.9260405,"instrument":1,"isDrum":true},{"pitch":44,"velocity":80,"startTime":39.90141,"endTime":39.9260405,"instrument":1,"isDrum":true},{"pitch":51,"velocity":80,"startTime":39.90141,"endTime":39.9260405,"instrument":1,"isDrum":true},{"pitch":53,"velocity":80,"startTime":39.90141,"endTime":39.9260405,"instrument":1,"isDrum":true},{"pitch":35,"velocity":80,"startTime":40.09845399999999,"endTime":40.1230845,"instrument":1,"isDrum":true},{"pitch":51,"velocity":80,"startTime":40.09845399999999,"endTime":40.1230845,"instrument":1,"isDrum":true},{"pitch":35,"velocity":80,"startTime":40.196976,"endTime":40.2216065,"instrument":1,"isDrum":true},{"pitch":44,"velocity":80,"startTime":40.196976,"endTime":40.2216065,"instrument":1,"isDrum":true},{"pitch":51,"velocity":80,"startTime":40.196976,"endTime":40.2216065,"instrument":1,"isDrum":true},{"pitch":35,"velocity":80,"startTime":40.39402,"endTime":40.4186505,"instrument":1,"isDrum":true},{"pitch":51,"velocity":80,"startTime":40.39402,"endTime":40.4186505,"instrument":1,"isDrum":true},{"pitch":38,"velocity":80,"startTime":40.492542,"endTime":40.517172499999994,"instrument":1,"isDrum":true},{"pitch":44,"velocity":80,"startTime":40.492542,"endTime":40.517172499999994,"instrument":1,"isDrum":true},{"pitch":51,"velocity":80,"startTime":40.492542,"endTime":40.517172499999994,"instrument":1,"isDrum":true},{"pitch":53,"velocity":80,"startTime":40.492542,"endTime":40.517172499999994,"instrument":1,"isDrum":true},{"pitch":35,"velocity":80,"startTime":40.689586,"endTime":40.7142165,"instrument":1,"isDrum":true},{"pitch":51,"velocity":80,"startTime":40.689586,"endTime":40.7142165,"instrument":1,"isDrum":true},{"pitch":35,"velocity":80,"startTime":40.788107999999994,"endTime":40.812738499999995,"instrument":1,"isDrum":true},{"pitch":44,"velocity":80,"startTime":40.788107999999994,"endTime":40.812738499999995,"instrument":1,"isDrum":true},{"pitch":51,"velocity":80,"startTime":40.788107999999994,"endTime":40.812738499999995,"instrument":1,"isDrum":true},{"pitch":35,"velocity":80,"startTime":40.985152,"endTime":41.0097825,"instrument":1,"isDrum":true},{"pitch":51,"velocity":80,"startTime":40.985152,"endTime":41.0097825,"instrument":1,"isDrum":true},{"pitch":38,"velocity":80,"startTime":41.083673999999995,"endTime":41.108304499999996,"instrument":1,"isDrum":true},{"pitch":44,"velocity":80,"startTime":41.083673999999995,"endTime":41.108304499999996,"instrument":1,"isDrum":true},{"pitch":51,"velocity":80,"startTime":41.083673999999995,"endTime":41.108304499999996,"instrument":1,"isDrum":true},{"pitch":53,"velocity":80,"startTime":41.083673999999995,"endTime":41.108304499999996,"instrument":1,"isDrum":true},{"pitch":35,"velocity":80,"startTime":41.280718,"endTime":41.305348499999994,"instrument":1,"isDrum":true},{"pitch":51,"velocity":80,"startTime":41.280718,"endTime":41.305348499999994,"instrument":1,"isDrum":true},{"pitch":35,"velocity":80,"startTime":41.379239999999996,"endTime":41.4038705,"instrument":1,"isDrum":true},{"pitch":44,"velocity":80,"startTime":41.379239999999996,"endTime":41.4038705,"instrument":1,"isDrum":true},{"pitch":51,"velocity":80,"startTime":41.379239999999996,"endTime":41.4038705,"instrument":1,"isDrum":true},{"pitch":35,"velocity":80,"startTime":41.576283999999994,"endTime":41.600914499999995,"instrument":1,"isDrum":true},{"pitch":51,"velocity":80,"startTime":41.576283999999994,"endTime":41.600914499999995,"instrument":1,"isDrum":true},{"pitch":38,"velocity":80,"startTime":41.674806,"endTime":41.6994365,"instrument":1,"isDrum":true},{"pitch":44,"velocity":80,"startTime":41.674806,"endTime":41.6994365,"instrument":1,"isDrum":true},{"pitch":51,"velocity":80,"startTime":41.674806,"endTime":41.6994365,"instrument":1,"isDrum":true},{"pitch":53,"velocity":80,"startTime":41.674806,"endTime":41.6994365,"instrument":1,"isDrum":true},{"pitch":35,"velocity":80,"startTime":41.871849999999995,"endTime":41.896480499999996,"instrument":1,"isDrum":true},{"pitch":51,"velocity":80,"startTime":41.871849999999995,"endTime":41.896480499999996,"instrument":1,"isDrum":true},{"pitch":35,"velocity":80,"startTime":41.970372,"endTime":41.9950025,"instrument":1,"isDrum":true},{"pitch":44,"velocity":80,"startTime":41.970372,"endTime":41.9950025,"instrument":1,"isDrum":true},{"pitch":51,"velocity":80,"startTime":41.970372,"endTime":41.9950025,"instrument":1,"isDrum":true},{"pitch":35,"velocity":80,"startTime":42.167415999999996,"endTime":42.1920465,"instrument":1,"isDrum":true},{"pitch":51,"velocity":80,"startTime":42.167415999999996,"endTime":42.1920465,"instrument":1,"isDrum":true},{"pitch":38,"velocity":80,"startTime":42.265938,"endTime":42.2905685,"instrument":1,"isDrum":true},{"pitch":44,"velocity":80,"startTime":42.265938,"endTime":42.2905685,"instrument":1,"isDrum":true},{"pitch":51,"velocity":80,"startTime":42.265938,"endTime":42.2905685,"instrument":1,"isDrum":true},{"pitch":53,"velocity":80,"startTime":42.265938,"endTime":42.2905685,"instrument":1,"isDrum":true},{"pitch":35,"velocity":80,"startTime":42.462982,"endTime":42.4876125,"instrument":1,"isDrum":true},{"pitch":51,"velocity":80,"startTime":42.462982,"endTime":42.4876125,"instrument":1,"isDrum":true},{"pitch":35,"velocity":80,"startTime":42.561504,"endTime":42.5861345,"instrument":1,"isDrum":true},{"pitch":44,"velocity":80,"startTime":42.561504,"endTime":42.5861345,"instrument":1,"isDrum":true},{"pitch":53,"velocity":80,"startTime":42.561504,"endTime":42.5861345,"instrument":1,"isDrum":true},{"pitch":35,"velocity":80,"startTime":42.758548,"endTime":42.7831785,"instrument":1,"isDrum":true},{"pitch":51,"velocity":80,"startTime":42.758548,"endTime":42.7831785,"instrument":1,"isDrum":true},{"pitch":38,"velocity":80,"startTime":42.85707,"endTime":42.881700499999994,"instrument":1,"isDrum":true},{"pitch":44,"velocity":80,"startTime":42.85707,"endTime":42.881700499999994,"instrument":1,"isDrum":true},{"pitch":51,"velocity":80,"startTime":42.85707,"endTime":42.881700499999994,"instrument":1,"isDrum":true},{"pitch":53,"velocity":80,"startTime":42.85707,"endTime":42.881700499999994,"instrument":1,"isDrum":true},{"pitch":35,"velocity":80,"startTime":43.054114,"endTime":43.0787445,"instrument":1,"isDrum":true},{"pitch":51,"velocity":80,"startTime":43.054114,"endTime":43.0787445,"instrument":1,"isDrum":true},{"pitch":35,"velocity":80,"startTime":43.152635999999994,"endTime":43.177266499999995,"instrument":1,"isDrum":true},{"pitch":44,"velocity":80,"startTime":43.152635999999994,"endTime":43.177266499999995,"instrument":1,"isDrum":true},{"pitch":51,"velocity":80,"startTime":43.152635999999994,"endTime":43.177266499999995,"instrument":1,"isDrum":true},{"pitch":35,"velocity":80,"startTime":43.34968,"endTime":43.3743105,"instrument":1,"isDrum":true},{"pitch":51,"velocity":80,"startTime":43.34968,"endTime":43.3743105,"instrument":1,"isDrum":true},{"pitch":38,"velocity":80,"startTime":43.448201999999995,"endTime":43.472832499999996,"instrument":1,"isDrum":true},{"pitch":44,"velocity":80,"startTime":43.448201999999995,"endTime":43.472832499999996,"instrument":1,"isDrum":true},{"pitch":51,"velocity":80,"startTime":43.448201999999995,"endTime":43.472832499999996,"instrument":1,"isDrum":true},{"pitch":53,"velocity":80,"startTime":43.448201999999995,"endTime":43.472832499999996,"instrument":1,"isDrum":true},{"pitch":35,"velocity":80,"startTime":43.645246,"endTime":43.669876499999994,"instrument":1,"isDrum":true},{"pitch":51,"velocity":80,"startTime":43.645246,"endTime":43.669876499999994,"instrument":1,"isDrum":true},{"pitch":35,"velocity":80,"startTime":43.743767999999996,"endTime":43.768398499999996,"instrument":1,"isDrum":true},{"pitch":44,"velocity":80,"startTime":43.743767999999996,"endTime":43.768398499999996,"instrument":1,"isDrum":true},{"pitch":51,"velocity":80,"startTime":43.743767999999996,"endTime":43.768398499999996,"instrument":1,"isDrum":true},{"pitch":35,"velocity":80,"startTime":43.940811999999994,"endTime":43.965442499999995,"instrument":1,"isDrum":true},{"pitch":51,"velocity":80,"startTime":43.940811999999994,"endTime":43.965442499999995,"instrument":1,"isDrum":true},{"pitch":38,"velocity":80,"startTime":44.039334,"endTime":44.0639645,"instrument":1,"isDrum":true},{"pitch":44,"velocity":80,"startTime":44.039334,"endTime":44.0639645,"instrument":1,"isDrum":true},{"pitch":51,"velocity":80,"startTime":44.039334,"endTime":44.0639645,"instrument":1,"isDrum":true},{"pitch":53,"velocity":80,"startTime":44.039334,"endTime":44.0639645,"instrument":1,"isDrum":true},{"pitch":35,"velocity":80,"startTime":44.236377999999995,"endTime":44.3102695,"instrument":1,"isDrum":true},{"pitch":51,"velocity":80,"startTime":44.236377999999995,"endTime":44.261008499999996,"instrument":1,"isDrum":true},{"pitch":35,"velocity":80,"startTime":44.3349,"endTime":44.3595305,"instrument":1,"isDrum":true},{"pitch":44,"velocity":80,"startTime":44.3349,"endTime":44.3595305,"instrument":1,"isDrum":true},{"pitch":51,"velocity":80,"startTime":44.3349,"endTime":44.3595305,"instrument":1,"isDrum":true},{"pitch":35,"velocity":80,"startTime":44.531943999999996,"endTime":44.556574499999996,"instrument":1,"isDrum":true},{"pitch":51,"velocity":80,"startTime":44.531943999999996,"endTime":44.556574499999996,"instrument":1,"isDrum":true},{"pitch":38,"velocity":80,"startTime":44.630466,"endTime":44.6550965,"instrument":1,"isDrum":true},{"pitch":44,"velocity":80,"startTime":44.630466,"endTime":44.6550965,"instrument":1,"isDrum":true},{"pitch":51,"velocity":80,"startTime":44.630466,"endTime":44.6550965,"instrument":1,"isDrum":true},{"pitch":53,"velocity":80,"startTime":44.630466,"endTime":44.6550965,"instrument":1,"isDrum":true},{"pitch":35,"velocity":80,"startTime":44.82751,"endTime":44.8521405,"instrument":1,"isDrum":true},{"pitch":51,"velocity":80,"startTime":44.82751,"endTime":44.8521405,"instrument":1,"isDrum":true},{"pitch":35,"velocity":80,"startTime":44.926032,"endTime":44.9506625,"instrument":1,"isDrum":true},{"pitch":44,"velocity":80,"startTime":44.926032,"endTime":44.9506625,"instrument":1,"isDrum":true},{"pitch":51,"velocity":80,"startTime":44.926032,"endTime":44.9506625,"instrument":1,"isDrum":true},{"pitch":35,"velocity":80,"startTime":45.123076,"endTime":45.1477065,"instrument":1,"isDrum":true},{"pitch":51,"velocity":80,"startTime":45.123076,"endTime":45.1477065,"instrument":1,"isDrum":true},{"pitch":38,"velocity":80,"startTime":45.221598,"endTime":45.246228499999994,"instrument":1,"isDrum":true},{"pitch":44,"velocity":80,"startTime":45.221598,"endTime":45.246228499999994,"instrument":1,"isDrum":true},{"pitch":51,"velocity":80,"startTime":45.221598,"endTime":45.246228499999994,"instrument":1,"isDrum":true},{"pitch":53,"velocity":80,"startTime":45.221598,"endTime":45.246228499999994,"instrument":1,"isDrum":true},{"pitch":35,"velocity":80,"startTime":45.418642,"endTime":45.4432725,"instrument":1,"isDrum":true},{"pitch":51,"velocity":80,"startTime":45.418642,"endTime":45.4432725,"instrument":1,"isDrum":true},{"pitch":43,"velocity":103,"startTime":37.832448,"endTime":38.0541225,"instrument":2,"program":32},{"pitch":31,"velocity":103,"startTime":38.0541225,"endTime":38.10338349999999,"instrument":2,"program":32},{"pitch":43,"velocity":103,"startTime":38.128014,"endTime":38.423579999999994,"instrument":2,"program":32},{"pitch":47,"velocity":103,"startTime":38.423579999999994,"endTime":38.694515499999994,"instrument":2,"program":32},{"pitch":31,"velocity":103,"startTime":38.62062399999999,"endTime":38.694515499999994,"instrument":2,"program":32},{"pitch":47,"velocity":103,"startTime":38.719145999999995,"endTime":39.014711999999996,"instrument":2,"program":32},{"pitch":43,"velocity":103,"startTime":39.014711999999996,"endTime":39.236386499999995,"instrument":2,"program":32},{"pitch":31,"velocity":103,"startTime":39.236386499999995,"endTime":39.285647499999996,"instrument":2,"program":32},{"pitch":43,"velocity":103,"startTime":39.310278,"endTime":39.605844,"instrument":2,"program":32},{"pitch":43,"velocity":103,"startTime":39.605844,"endTime":39.802887999999996,"instrument":2,"program":32},{"pitch":31,"velocity":103,"startTime":39.8275185,"endTime":39.87677949999999,"instrument":2,"program":32},{"pitch":43,"velocity":103,"startTime":39.90141,"endTime":40.1230845,"instrument":2,"program":32},{"pitch":31,"velocity":103,"startTime":40.1230845,"endTime":40.17234549999999,"instrument":2,"program":32},{"pitch":28,"velocity":103,"startTime":40.196976,"endTime":40.4186505,"instrument":2,"program":32},{"pitch":28,"velocity":103,"startTime":40.4186505,"endTime":40.4679115,"instrument":2,"program":32},{"pitch":40,"velocity":103,"startTime":40.492542,"endTime":40.788107999999994,"instrument":2,"program":32},{"pitch":37,"velocity":103,"startTime":40.788107999999994,"endTime":41.0097825,"instrument":2,"program":32},{"pitch":32,"velocity":103,"startTime":41.0097825,"endTime":41.059043499999994,"instrument":2,"program":32},{"pitch":35,"velocity":103,"startTime":41.083673999999995,"endTime":41.305348499999994,"instrument":2,"program":32},{"pitch":28,"velocity":103,"startTime":41.305348499999994,"endTime":41.354609499999995,"instrument":2,"program":32},{"pitch":40,"velocity":103,"startTime":41.379239999999996,"endTime":41.674806,"instrument":2,"program":32},{"pitch":47,"velocity":103,"startTime":41.674806,"endTime":41.970372,"instrument":2,"program":32},{"pitch":47,"velocity":103,"startTime":41.970372,"endTime":42.265938,"instrument":2,"program":32},{"pitch":47,"velocity":103,"startTime":42.265938,"endTime":42.561504,"instrument":2,"program":32},{"pitch":36,"velocity":103,"startTime":42.561504,"endTime":42.85707,"instrument":2,"program":32},{"pitch":36,"velocity":103,"startTime":42.85707,"endTime":43.152635999999994,"instrument":2,"program":32},{"pitch":40,"velocity":103,"startTime":43.152635999999994,"endTime":43.448201999999995,"instrument":2,"program":32},{"pitch":43,"velocity":103,"startTime":43.448201999999995,"endTime":43.669876499999994,"instrument":2,"program":32},{"pitch":36,"velocity":103,"startTime":43.669876499999994,"endTime":43.719137499999995,"instrument":2,"program":32},{"pitch":38,"velocity":103,"startTime":43.743767999999996,"endTime":44.039334,"instrument":2,"program":32},{"pitch":42,"velocity":103,"startTime":44.039334,"endTime":44.3349,"instrument":2,"program":32},{"pitch":45,"velocity":103,"startTime":44.3349,"endTime":44.630466,"instrument":2,"program":32},{"pitch":42,"velocity":103,"startTime":44.630466,"endTime":44.8521405,"instrument":2,"program":32},{"pitch":45,"velocity":103,"startTime":44.8521405,"endTime":44.9014015,"instrument":2,"program":32},{"pitch":43,"velocity":103,"startTime":44.926032,"endTime":45.1477065,"instrument":2,"program":32},{"pitch":31,"velocity":103,"startTime":45.1477065,"endTime":45.1969675,"instrument":2,"program":32},{"pitch":43,"velocity":103,"startTime":45.221598,"endTime":45.517163999999994,"instrument":2,"program":32},{"pitch":41,"velocity":103,"startTime":45.517163999999994,"endTime":45.812729999999995,"instrument":2,"program":32},{"pitch":43,"velocity":103,"startTime":45.812729999999995,"endTime":46.009774,"instrument":2,"program":32},{"pitch":31,"velocity":103,"startTime":46.034404499999994,"endTime":46.083665499999995,"instrument":2,"program":32},{"pitch":43,"velocity":103,"startTime":46.108295999999996,"endTime":46.329970499999995,"instrument":2,"program":32},{"pitch":31,"velocity":103,"startTime":46.329970499999995,"endTime":46.379231499999996,"instrument":2,"program":32},{"pitch":38,"velocity":103,"startTime":46.403862,"endTime":46.699428,"instrument":2,"program":32},{"pitch":35,"velocity":103,"startTime":46.699428,"endTime":46.896471999999996,"instrument":2,"program":32},{"pitch":31,"velocity":103,"startTime":46.921102499999996,"endTime":46.9703635,"instrument":2,"program":32},{"pitch":38,"velocity":103,"startTime":46.994994,"endTime":47.2166685,"instrument":2,"program":32},{"pitch":31,"velocity":103,"startTime":47.2166685,"endTime":47.2659295,"instrument":2,"program":32},{"pitch":43,"velocity":57,"startTime":47.3151905,"endTime":47.389081999999995},{"pitch":59,"velocity":57,"startTime":47.3151905,"endTime":47.389081999999995},{"pitch":62,"velocity":57,"startTime":47.3151905,"endTime":47.389081999999995},{"pitch":67,"velocity":57,"startTime":47.3151905,"endTime":47.413712499999995},{"pitch":43,"velocity":57,"startTime":47.906322499999995,"endTime":47.980214},{"pitch":59,"velocity":57,"startTime":47.906322499999995,"endTime":47.980214},{"pitch":62,"velocity":57,"startTime":47.906322499999995,"endTime":47.980214},{"pitch":67,"velocity":57,"startTime":47.906322499999995,"endTime":48.0048445},{"pitch":43,"velocity":57,"startTime":48.472823999999996,"endTime":48.571346},{"pitch":59,"velocity":57,"startTime":48.472823999999996,"endTime":48.5959765},{"pitch":62,"velocity":57,"startTime":48.472823999999996,"endTime":48.5959765},{"pitch":66,"velocity":57,"startTime":48.472823999999996,"endTime":48.5959765},{"pitch":40,"velocity":57,"startTime":49.655088,"endTime":49.728979499999994},{"pitch":59,"velocity":57,"startTime":49.655088,"endTime":49.728979499999994},{"pitch":50,"velocity":57,"startTime":49.6797185,"endTime":49.753609999999995},{"pitch":56,"velocity":57,"startTime":49.6797185,"endTime":49.728979499999994},{"pitch":66,"velocity":57,"startTime":49.6797185,"endTime":49.753609999999995},{"pitch":40,"velocity":57,"startTime":50.837351999999996,"endTime":50.935874},{"pitch":59,"velocity":57,"startTime":50.837351999999996,"endTime":50.935874},{"pitch":55,"velocity":57,"startTime":50.861982499999996,"endTime":50.9112435},{"pitch":52,"velocity":57,"startTime":50.886613,"endTime":50.9112435},{"pitch":40,"velocity":57,"startTime":51.034395999999994,"endTime":51.108287499999996},{"pitch":52,"velocity":57,"startTime":51.034395999999994,"endTime":51.132918},{"pitch":55,"velocity":57,"startTime":51.034395999999994,"endTime":51.108287499999996},{"pitch":59,"velocity":57,"startTime":51.034395999999994,"endTime":51.108287499999996},{"pitch":45,"velocity":57,"startTime":51.428484,"endTime":51.52700599999999},{"pitch":55,"velocity":57,"startTime":51.4531145,"endTime":51.52700599999999},{"pitch":59,"velocity":57,"startTime":51.4531145,"endTime":51.5023755},{"pitch":64,"velocity":57,"startTime":51.4531145,"endTime":51.52700599999999},{"pitch":48,"velocity":57,"startTime":52.019616,"endTime":52.093507499999994},{"pitch":59,"velocity":57,"startTime":52.019616,"endTime":52.06887699999999},{"pitch":62,"velocity":57,"startTime":52.019616,"endTime":52.093507499999994},{"pitch":64,"velocity":57,"startTime":52.019616,"endTime":52.093507499999994},{"pitch":48,"velocity":57,"startTime":52.5368565,"endTime":52.610747999999994},{"pitch":57,"velocity":57,"startTime":52.5368565,"endTime":52.610747999999994},{"pitch":59,"velocity":57,"startTime":52.5368565,"endTime":52.610747999999994},{"pitch":62,"velocity":57,"startTime":52.5368565,"endTime":52.610747999999994},{"pitch":64,"velocity":57,"startTime":52.5368565,"endTime":52.610747999999994},{"pitch":50,"velocity":57,"startTime":53.201879999999996,"endTime":53.2757715},{"pitch":60,"velocity":57,"startTime":53.201879999999996,"endTime":53.300402},{"pitch":64,"velocity":57,"startTime":53.201879999999996,"endTime":53.300402},{"pitch":69,"velocity":57,"startTime":53.201879999999996,"endTime":53.300402},{"pitch":50,"velocity":57,"startTime":54.285622,"endTime":54.384144},{"pitch":59,"velocity":57,"startTime":54.285622,"endTime":54.384144},{"pitch":62,"velocity":57,"startTime":54.285622,"endTime":54.384144},{"pitch":69,"velocity":57,"startTime":54.285622,"endTime":54.384144},{"pitch":55,"velocity":57,"startTime":54.67970999999999,"endTime":54.728970999999994},{"pitch":59,"velocity":57,"startTime":54.67970999999999,"endTime":54.728970999999994},{"pitch":64,"velocity":57,"startTime":54.67970999999999,"endTime":54.728970999999994},{"pitch":69,"velocity":57,"startTime":54.67970999999999,"endTime":54.728970999999994},{"pitch":43,"velocity":57,"startTime":54.876754,"endTime":54.95064549999999},{"pitch":55,"velocity":57,"startTime":54.975275999999994,"endTime":55.049167499999996},{"pitch":59,"velocity":57,"startTime":54.975275999999994,"endTime":55.073798},{"pitch":64,"velocity":57,"startTime":54.975275999999994,"endTime":55.073798},{"pitch":69,"velocity":57,"startTime":54.975275999999994,"endTime":55.073798},{"pitch":43,"velocity":57,"startTime":55.492516499999994,"endTime":56.65015},{"pitch":59,"velocity":57,"startTime":55.492516499999994,"endTime":56.65015},{"pitch":62,"velocity":57,"startTime":55.492516499999994,"endTime":56.65015},{"pitch":69,"velocity":57,"startTime":55.492516499999994,"endTime":56.65015},{"pitch":35,"velocity":80,"startTime":47.29056,"endTime":47.3151905,"instrument":1,"isDrum":true},{"pitch":44,"velocity":80,"startTime":47.29056,"endTime":47.3151905,"instrument":1,"isDrum":true},{"pitch":51,"velocity":80,"startTime":47.29056,"endTime":47.3151905,"instrument":1,"isDrum":true},{"pitch":51,"velocity":80,"startTime":47.487604,"endTime":47.5122345,"instrument":1,"isDrum":true},{"pitch":35,"velocity":80,"startTime":47.586126,"endTime":47.610756499999994,"instrument":1,"isDrum":true},{"pitch":37,"velocity":80,"startTime":47.586126,"endTime":47.610756499999994,"instrument":1,"isDrum":true},{"pitch":44,"velocity":80,"startTime":47.586126,"endTime":47.610756499999994,"instrument":1,"isDrum":true},{"pitch":51,"velocity":80,"startTime":47.586126,"endTime":47.610756499999994,"instrument":1,"isDrum":true},{"pitch":53,"velocity":80,"startTime":47.586126,"endTime":47.610756499999994,"instrument":1,"isDrum":true},{"pitch":54,"velocity":80,"startTime":47.586126,"endTime":47.610756499999994,"instrument":1,"isDrum":true},{"pitch":51,"velocity":80,"startTime":47.78317,"endTime":47.85706149999999,"instrument":1,"isDrum":true},{"pitch":35,"velocity":80,"startTime":47.881691999999994,"endTime":47.906322499999995,"instrument":1,"isDrum":true},{"pitch":44,"velocity":80,"startTime":47.881691999999994,"endTime":47.906322499999995,"instrument":1,"isDrum":true},{"pitch":51,"velocity":80,"startTime":47.881691999999994,"endTime":47.906322499999995,"instrument":1,"isDrum":true},{"pitch":51,"velocity":80,"startTime":48.078736,"endTime":48.1033665,"instrument":1,"isDrum":true},{"pitch":35,"velocity":80,"startTime":48.177257999999995,"endTime":48.201888499999995,"instrument":1,"isDrum":true},{"pitch":37,"velocity":80,"startTime":48.177257999999995,"endTime":48.201888499999995,"instrument":1,"isDrum":true},{"pitch":44,"velocity":80,"startTime":48.177257999999995,"endTime":48.201888499999995,"instrument":1,"isDrum":true},{"pitch":51,"velocity":80,"startTime":48.177257999999995,"endTime":48.201888499999995,"instrument":1,"isDrum":true},{"pitch":54,"velocity":80,"startTime":48.177257999999995,"endTime":48.201888499999995,"instrument":1,"isDrum":true},{"pitch":51,"velocity":80,"startTime":48.374302,"endTime":48.448193499999995,"instrument":1,"isDrum":true},{"pitch":35,"velocity":80,"startTime":48.472823999999996,"endTime":48.497454499999996,"instrument":1,"isDrum":true},{"pitch":44,"velocity":80,"startTime":48.472823999999996,"endTime":48.497454499999996,"instrument":1,"isDrum":true},{"pitch":51,"velocity":80,"startTime":48.472823999999996,"endTime":48.497454499999996,"instrument":1,"isDrum":true},{"pitch":51,"velocity":80,"startTime":48.669867999999994,"endTime":48.694498499999995,"instrument":1,"isDrum":true},{"pitch":35,"velocity":80,"startTime":48.76839,"endTime":48.7930205,"instrument":1,"isDrum":true},{"pitch":44,"velocity":80,"startTime":48.76839,"endTime":48.7930205,"instrument":1,"isDrum":true},{"pitch":51,"velocity":80,"startTime":48.76839,"endTime":48.7930205,"instrument":1,"isDrum":true},{"pitch":53,"velocity":80,"startTime":48.76839,"endTime":48.7930205,"instrument":1,"isDrum":true},{"pitch":35,"velocity":80,"startTime":49.063956,"endTime":49.0885865,"instrument":1,"isDrum":true},{"pitch":44,"velocity":80,"startTime":49.063956,"endTime":49.0885865,"instrument":1,"isDrum":true},{"pitch":51,"velocity":80,"startTime":49.063956,"endTime":49.0885865,"instrument":1,"isDrum":true},{"pitch":51,"velocity":80,"startTime":49.260999999999996,"endTime":49.285630499999996,"instrument":1,"isDrum":true},{"pitch":35,"velocity":80,"startTime":49.359522,"endTime":49.3841525,"instrument":1,"isDrum":true},{"pitch":37,"velocity":80,"startTime":49.359522,"endTime":49.3841525,"instrument":1,"isDrum":true},{"pitch":44,"velocity":80,"startTime":49.359522,"endTime":49.3841525,"instrument":1,"isDrum":true},{"pitch":51,"velocity":80,"startTime":49.359522,"endTime":49.3841525,"instrument":1,"isDrum":true},{"pitch":54,"velocity":80,"startTime":49.359522,"endTime":49.3841525,"instrument":1,"isDrum":true},{"pitch":51,"velocity":80,"startTime":49.556566,"endTime":49.655088,"instrument":1,"isDrum":true},{"pitch":35,"velocity":80,"startTime":49.655088,"endTime":49.6797185,"instrument":1,"isDrum":true},{"pitch":44,"velocity":80,"startTime":49.655088,"endTime":49.6797185,"instrument":1,"isDrum":true},{"pitch":51,"velocity":80,"startTime":49.655088,"endTime":49.6797185,"instrument":1,"isDrum":true},{"pitch":51,"velocity":80,"startTime":49.852132,"endTime":49.8767625,"instrument":1,"isDrum":true},{"pitch":35,"velocity":80,"startTime":49.95065399999999,"endTime":49.975284499999994,"instrument":1,"isDrum":true},{"pitch":37,"velocity":80,"startTime":49.95065399999999,"endTime":49.975284499999994,"instrument":1,"isDrum":true},{"pitch":44,"velocity":80,"startTime":49.95065399999999,"endTime":49.975284499999994,"instrument":1,"isDrum":true},{"pitch":51,"velocity":80,"startTime":49.95065399999999,"endTime":49.975284499999994,"instrument":1,"isDrum":true},{"pitch":54,"velocity":80,"startTime":49.95065399999999,"endTime":49.975284499999994,"instrument":1,"isDrum":true},{"pitch":51,"velocity":80,"startTime":50.147698,"endTime":50.246219999999994,"instrument":1,"isDrum":true},{"pitch":35,"velocity":80,"startTime":50.246219999999994,"endTime":50.270850499999995,"instrument":1,"isDrum":true},{"pitch":44,"velocity":80,"startTime":50.246219999999994,"endTime":50.270850499999995,"instrument":1,"isDrum":true},{"pitch":51,"velocity":80,"startTime":50.246219999999994,"endTime":50.270850499999995,"instrument":1,"isDrum":true},{"pitch":51,"velocity":80,"startTime":50.443264,"endTime":50.4678945,"instrument":1,"isDrum":true},{"pitch":35,"velocity":80,"startTime":50.541785999999995,"endTime":50.566416499999995,"instrument":1,"isDrum":true},{"pitch":37,"velocity":80,"startTime":50.541785999999995,"endTime":50.566416499999995,"instrument":1,"isDrum":true},{"pitch":44,"velocity":80,"startTime":50.541785999999995,"endTime":50.566416499999995,"instrument":1,"isDrum":true},{"pitch":51,"velocity":80,"startTime":50.541785999999995,"endTime":50.566416499999995,"instrument":1,"isDrum":true},{"pitch":51,"velocity":80,"startTime":50.73882999999999,"endTime":50.837351999999996,"instrument":1,"isDrum":true},{"pitch":35,"velocity":80,"startTime":50.837351999999996,"endTime":50.861982499999996,"instrument":1,"isDrum":true},{"pitch":44,"velocity":80,"startTime":50.837351999999996,"endTime":50.861982499999996,"instrument":1,"isDrum":true},{"pitch":51,"velocity":80,"startTime":50.837351999999996,"endTime":50.861982499999996,"instrument":1,"isDrum":true},{"pitch":51,"velocity":80,"startTime":51.034395999999994,"endTime":51.059026499999995,"instrument":1,"isDrum":true},{"pitch":35,"velocity":80,"startTime":51.132918,"endTime":51.1575485,"instrument":1,"isDrum":true},{"pitch":37,"velocity":80,"startTime":51.132918,"endTime":51.1575485,"instrument":1,"isDrum":true},{"pitch":44,"velocity":80,"startTime":51.132918,"endTime":51.1575485,"instrument":1,"isDrum":true},{"pitch":51,"velocity":80,"startTime":51.132918,"endTime":51.1575485,"instrument":1,"isDrum":true},{"pitch":54,"velocity":80,"startTime":51.132918,"endTime":51.1575485,"instrument":1,"isDrum":true},{"pitch":51,"velocity":80,"startTime":51.329961999999995,"endTime":51.428484,"instrument":1,"isDrum":true},{"pitch":35,"velocity":80,"startTime":51.428484,"endTime":51.4531145,"instrument":1,"isDrum":true},{"pitch":44,"velocity":80,"startTime":51.428484,"endTime":51.4531145,"instrument":1,"isDrum":true},{"pitch":51,"velocity":80,"startTime":51.428484,"endTime":51.4531145,"instrument":1,"isDrum":true},{"pitch":51,"velocity":80,"startTime":51.625527999999996,"endTime":51.650158499999996,"instrument":1,"isDrum":true},{"pitch":35,"velocity":80,"startTime":51.72405,"endTime":51.7486805,"instrument":1,"isDrum":true},{"pitch":37,"velocity":80,"startTime":51.72405,"endTime":51.7486805,"instrument":1,"isDrum":true},{"pitch":44,"velocity":80,"startTime":51.72405,"endTime":51.7486805,"instrument":1,"isDrum":true},{"pitch":51,"velocity":80,"startTime":51.72405,"endTime":51.7486805,"instrument":1,"isDrum":true},{"pitch":54,"velocity":80,"startTime":51.72405,"endTime":51.7486805,"instrument":1,"isDrum":true},{"pitch":51,"velocity":80,"startTime":51.921094,"endTime":52.019616,"instrument":1,"isDrum":true},{"pitch":35,"velocity":80,"startTime":52.019616,"endTime":52.0442465,"instrument":1,"isDrum":true},{"pitch":44,"velocity":80,"startTime":52.019616,"endTime":52.0442465,"instrument":1,"isDrum":true},{"pitch":51,"velocity":80,"startTime":52.019616,"endTime":52.0442465,"instrument":1,"isDrum":true},{"pitch":51,"velocity":80,"startTime":52.21666,"endTime":52.265921,"instrument":1,"isDrum":true},{"pitch":35,"velocity":80,"startTime":52.31518199999999,"endTime":52.339812499999994,"instrument":1,"isDrum":true},{"pitch":37,"velocity":80,"startTime":52.31518199999999,"endTime":52.339812499999994,"instrument":1,"isDrum":true},{"pitch":44,"velocity":80,"startTime":52.31518199999999,"endTime":52.339812499999994,"instrument":1,"isDrum":true},{"pitch":51,"velocity":80,"startTime":52.31518199999999,"endTime":52.339812499999994,"instrument":1,"isDrum":true},{"pitch":51,"velocity":80,"startTime":52.512226,"endTime":52.561487,"instrument":1,"isDrum":true},{"pitch":35,"velocity":80,"startTime":52.610747999999994,"endTime":52.635378499999995,"instrument":1,"isDrum":true},{"pitch":44,"velocity":80,"startTime":52.610747999999994,"endTime":52.635378499999995,"instrument":1,"isDrum":true},{"pitch":51,"velocity":80,"startTime":52.610747999999994,"endTime":52.635378499999995,"instrument":1,"isDrum":true},{"pitch":53,"velocity":80,"startTime":52.807792,"endTime":52.85705299999999,"instrument":1,"isDrum":true},{"pitch":35,"velocity":80,"startTime":52.906313999999995,"endTime":52.930944499999995,"instrument":1,"isDrum":true},{"pitch":37,"velocity":80,"startTime":52.906313999999995,"endTime":52.930944499999995,"instrument":1,"isDrum":true},{"pitch":44,"velocity":80,"startTime":52.906313999999995,"endTime":52.930944499999995,"instrument":1,"isDrum":true},{"pitch":51,"velocity":80,"startTime":52.906313999999995,"endTime":52.930944499999995,"instrument":1,"isDrum":true},{"pitch":51,"velocity":80,"startTime":53.10335799999999,"endTime":53.152618999999994,"instrument":1,"isDrum":true},{"pitch":35,"velocity":80,"startTime":53.201879999999996,"endTime":53.226510499999996,"instrument":1,"isDrum":true},{"pitch":44,"velocity":80,"startTime":53.201879999999996,"endTime":53.226510499999996,"instrument":1,"isDrum":true},{"pitch":51,"velocity":80,"startTime":53.201879999999996,"endTime":53.226510499999996,"instrument":1,"isDrum":true},{"pitch":53,"velocity":80,"startTime":53.398923999999994,"endTime":53.448184999999995,"instrument":1,"isDrum":true},{"pitch":35,"velocity":80,"startTime":53.497446,"endTime":53.5220765,"instrument":1,"isDrum":true},{"pitch":37,"velocity":80,"startTime":53.497446,"endTime":53.5220765,"instrument":1,"isDrum":true},{"pitch":44,"velocity":80,"startTime":53.497446,"endTime":53.5220765,"instrument":1,"isDrum":true},{"pitch":51,"velocity":80,"startTime":53.497446,"endTime":53.5220765,"instrument":1,"isDrum":true},{"pitch":51,"velocity":80,"startTime":53.694489999999995,"endTime":53.743750999999996,"instrument":1,"isDrum":true},{"pitch":35,"velocity":80,"startTime":53.793012,"endTime":53.8176425,"instrument":1,"isDrum":true},{"pitch":44,"velocity":80,"startTime":53.793012,"endTime":53.8176425,"instrument":1,"isDrum":true},{"pitch":51,"velocity":80,"startTime":53.793012,"endTime":53.8176425,"instrument":1,"isDrum":true},{"pitch":51,"velocity":80,"startTime":53.990055999999996,"endTime":54.014686499999996,"instrument":1,"isDrum":true},{"pitch":35,"velocity":80,"startTime":54.088578,"endTime":54.1132085,"instrument":1,"isDrum":true},{"pitch":37,"velocity":80,"startTime":54.088578,"endTime":54.1132085,"instrument":1,"isDrum":true},{"pitch":44,"velocity":80,"startTime":54.088578,"endTime":54.1132085,"instrument":1,"isDrum":true},{"pitch":51,"velocity":80,"startTime":54.088578,"endTime":54.1132085,"instrument":1,"isDrum":true},{"pitch":51,"velocity":80,"startTime":54.285622,"endTime":54.334883,"instrument":1,"isDrum":true},{"pitch":35,"velocity":80,"startTime":54.384144,"endTime":54.40877449999999,"instrument":1,"isDrum":true},{"pitch":44,"velocity":80,"startTime":54.384144,"endTime":54.40877449999999,"instrument":1,"isDrum":true},{"pitch":51,"velocity":80,"startTime":54.384144,"endTime":54.40877449999999,"instrument":1,"isDrum":true},{"pitch":51,"velocity":80,"startTime":54.581188,"endTime":54.630449,"instrument":1,"isDrum":true},{"pitch":35,"velocity":80,"startTime":54.67970999999999,"endTime":54.704340499999994,"instrument":1,"isDrum":true},{"pitch":37,"velocity":80,"startTime":54.67970999999999,"endTime":54.704340499999994,"instrument":1,"isDrum":true},{"pitch":44,"velocity":80,"startTime":54.67970999999999,"endTime":54.704340499999994,"instrument":1,"isDrum":true},{"pitch":51,"velocity":80,"startTime":54.67970999999999,"endTime":54.704340499999994,"instrument":1,"isDrum":true},{"pitch":51,"velocity":80,"startTime":54.876754,"endTime":54.926015,"instrument":1,"isDrum":true},{"pitch":35,"velocity":80,"startTime":54.975275999999994,"endTime":54.999906499999994,"instrument":1,"isDrum":true},{"pitch":44,"velocity":80,"startTime":54.975275999999994,"endTime":54.999906499999994,"instrument":1,"isDrum":true},{"pitch":51,"velocity":80,"startTime":54.975275999999994,"endTime":54.999906499999994,"instrument":1,"isDrum":true},{"pitch":51,"velocity":80,"startTime":55.17232,"endTime":55.22158099999999,"instrument":1,"isDrum":true},{"pitch":35,"velocity":80,"startTime":55.270841999999995,"endTime":55.295472499999995,"instrument":1,"isDrum":true},{"pitch":37,"velocity":80,"startTime":55.270841999999995,"endTime":55.295472499999995,"instrument":1,"isDrum":true},{"pitch":44,"velocity":80,"startTime":55.270841999999995,"endTime":55.295472499999995,"instrument":1,"isDrum":true},{"pitch":51,"velocity":80,"startTime":55.270841999999995,"endTime":55.295472499999995,"instrument":1,"isDrum":true},{"pitch":51,"velocity":80,"startTime":55.46788599999999,"endTime":55.517146999999994,"instrument":1,"isDrum":true},{"pitch":43,"velocity":103,"startTime":47.29056,"endTime":47.5122345,"instrument":2,"program":32},{"pitch":31,"velocity":103,"startTime":47.487604,"endTime":47.536865,"instrument":2,"program":32},{"pitch":43,"velocity":103,"startTime":47.586126,"endTime":47.881691999999994,"instrument":2,"program":32},{"pitch":47,"velocity":103,"startTime":47.881691999999994,"endTime":48.078736,"instrument":2,"program":32},{"pitch":38,"velocity":103,"startTime":48.078736,"endTime":48.152627499999994,"instrument":2,"program":32},{"pitch":43,"velocity":103,"startTime":48.177257999999995,"endTime":48.398932499999994,"instrument":2,"program":32},{"pitch":38,"velocity":103,"startTime":48.398932499999994,"endTime":48.448193499999995,"instrument":2,"program":32},{"pitch":43,"velocity":103,"startTime":48.472823999999996,"endTime":48.669867999999994,"instrument":2,"program":32},{"pitch":43,"velocity":103,"startTime":48.694498499999995,"endTime":48.76839,"instrument":2,"program":32},{"pitch":47,"velocity":103,"startTime":48.76839,"endTime":49.063956,"instrument":2,"program":32},{"pitch":50,"velocity":103,"startTime":49.063956,"endTime":49.359522,"instrument":2,"program":32},{"pitch":47,"velocity":103,"startTime":49.359522,"endTime":49.5811965,"instrument":2,"program":32},{"pitch":38,"velocity":103,"startTime":49.5811965,"endTime":49.6304575,"instrument":2,"program":32},{"pitch":28,"velocity":103,"startTime":49.655088,"endTime":49.999914999999994,"instrument":2,"program":32},{"pitch":35,"velocity":103,"startTime":49.95065399999999,"endTime":50.566416499999995,"instrument":2,"program":32},{"pitch":35,"velocity":103,"startTime":50.246219999999994,"endTime":50.270850499999995,"instrument":2,"program":32},{"pitch":28,"velocity":103,"startTime":50.541785999999995,"endTime":50.837351999999996,"instrument":2,"program":32},{"pitch":28,"velocity":103,"startTime":50.837351999999996,"endTime":51.059026499999995,"instrument":2,"program":32},{"pitch":28,"velocity":103,"startTime":51.059026499999995,"endTime":51.108287499999996,"instrument":2,"program":32},{"pitch":35,"velocity":103,"startTime":51.132918,"endTime":51.428484,"instrument":2,"program":32},{"pitch":38,"velocity":103,"startTime":51.428484,"endTime":51.625527999999996,"instrument":2,"program":32},{"pitch":35,"velocity":103,"startTime":51.650158499999996,"endTime":51.72405,"instrument":2,"program":32},{"pitch":40,"velocity":103,"startTime":51.72405,"endTime":51.9457245,"instrument":2,"program":32},{"pitch":28,"velocity":103,"startTime":51.9457245,"endTime":51.9949855,"instrument":2,"program":32},{"pitch":36,"velocity":103,"startTime":52.019616,"endTime":52.2412905,"instrument":2,"program":32},{"pitch":24,"velocity":103,"startTime":52.2412905,"endTime":52.2905515,"instrument":2,"program":32},{"pitch":43,"velocity":103,"startTime":52.31518199999999,"endTime":52.610747999999994,"instrument":2,"program":32},{"pitch":40,"velocity":103,"startTime":52.610747999999994,"endTime":52.906313999999995,"instrument":2,"program":32},{"pitch":36,"velocity":103,"startTime":52.906313999999995,"endTime":53.10335799999999,"instrument":2,"program":32},{"pitch":38,"velocity":103,"startTime":53.127988499999994,"endTime":54.236360999999995,"instrument":2,"program":32},{"pitch":43,"velocity":103,"startTime":54.3102525,"endTime":54.975275999999994,"instrument":2,"program":32},{"pitch":38,"velocity":103,"startTime":54.975275999999994,"endTime":55.246211499999994,"instrument":2,"program":32},{"pitch":43,"velocity":103,"startTime":55.270841999999995,"endTime":55.492516499999994,"instrument":2,"program":32},{"pitch":38,"velocity":103,"startTime":55.492516499999994,"endTime":55.541777499999995,"instrument":2,"program":32},{"pitch":43,"velocity":103,"startTime":55.566407999999996,"endTime":55.861974,"instrument":2,"program":32},{"pitch":47,"velocity":103,"startTime":55.861974,"endTime":56.15754,"instrument":2,"program":32},{"pitch":47,"velocity":103,"startTime":56.15754,"endTime":56.453106,"instrument":2,"program":32},{"pitch":50,"velocity":103,"startTime":56.453106,"endTime":56.65015,"instrument":2,"program":32},{"pitch":43,"velocity":103,"startTime":56.6747805,"endTime":56.7240415,"instrument":2,"program":32},{"pitch":43,"velocity":57,"startTime":56.77330249999999,"endTime":56.847193999999995},{"pitch":59,"velocity":57,"startTime":56.77330249999999,"endTime":56.871824499999995},{"pitch":62,"velocity":57,"startTime":56.77330249999999,"endTime":56.871824499999995},{"pitch":69,"velocity":57,"startTime":56.77330249999999,"endTime":56.847193999999995},{"pitch":43,"velocity":57,"startTime":57.04423799999999,"endTime":57.142759999999996},{"pitch":59,"velocity":57,"startTime":57.04423799999999,"endTime":57.167390499999996},{"pitch":62,"velocity":57,"startTime":57.04423799999999,"endTime":57.142759999999996},{"pitch":69,"velocity":57,"startTime":57.04423799999999,"endTime":57.142759999999996},{"pitch":43,"velocity":57,"startTime":57.635369999999995,"endTime":57.733892},{"pitch":59,"velocity":57,"startTime":57.635369999999995,"endTime":57.733892},{"pitch":62,"velocity":57,"startTime":57.635369999999995,"endTime":57.7585225},{"pitch":69,"velocity":57,"startTime":57.635369999999995,"endTime":57.733892},{"pitch":43,"velocity":57,"startTime":58.152610499999994,"endTime":58.177240999999995},{"pitch":59,"velocity":57,"startTime":58.152610499999994,"endTime":58.201871499999996},{"pitch":65,"velocity":57,"startTime":58.152610499999994,"endTime":58.177240999999995},{"pitch":69,"velocity":57,"startTime":58.152610499999994,"endTime":58.201871499999996},{"pitch":52,"velocity":57,"startTime":59.3348745,"endTime":59.43339649999999},{"pitch":64,"velocity":57,"startTime":59.3348745,"endTime":59.40876599999999},{"pitch":71,"velocity":57,"startTime":59.3348745,"endTime":59.40876599999999},{"pitch":59,"velocity":57,"startTime":59.359505,"endTime":59.43339649999999},{"pitch":59,"velocity":57,"startTime":59.92600649999999,"endTime":59.999897999999995},{"pitch":59,"velocity":57,"startTime":60.024528499999995,"endTime":60.1230505},{"pitch":64,"velocity":57,"startTime":60.024528499999995,"endTime":60.09842},{"pitch":71,"velocity":57,"startTime":60.024528499999995,"endTime":60.09842},{"pitch":59,"velocity":57,"startTime":60.591029999999996,"endTime":60.689552},{"pitch":62,"velocity":57,"startTime":60.591029999999996,"endTime":60.689552},{"pitch":66,"velocity":57,"startTime":60.591029999999996,"endTime":60.689552},{"pitch":69,"velocity":57,"startTime":60.591029999999996,"endTime":60.689552},{"pitch":59,"velocity":57,"startTime":61.108270499999996,"endTime":61.1575315},{"pitch":62,"velocity":57,"startTime":61.108270499999996,"endTime":61.182162},{"pitch":66,"velocity":57,"startTime":61.108270499999996,"endTime":61.182162},{"pitch":69,"velocity":57,"startTime":61.108270499999996,"endTime":61.1575315},{"pitch":62,"velocity":57,"startTime":61.9949685,"endTime":62.068859999999994},{"pitch":64,"velocity":57,"startTime":61.9949685,"endTime":62.068859999999994},{"pitch":67,"velocity":57,"startTime":61.9949685,"endTime":62.068859999999994},{"pitch":72,"velocity":57,"startTime":61.9949685,"endTime":62.068859999999994},{"pitch":59,"velocity":57,"startTime":62.58610049999999,"endTime":62.659991999999995},{"pitch":62,"velocity":57,"startTime":62.58610049999999,"endTime":62.659991999999995},{"pitch":64,"velocity":57,"startTime":62.58610049999999,"endTime":62.659991999999995},{"pitch":67,"velocity":57,"startTime":62.58610049999999,"endTime":62.659991999999995},{"pitch":57,"velocity":57,"startTime":63.7683645,"endTime":63.792995},{"pitch":62,"velocity":57,"startTime":63.7683645,"endTime":63.792995},{"pitch":65,"velocity":57,"startTime":63.7683645,"endTime":63.792995},{"pitch":67,"velocity":57,"startTime":63.7683645,"endTime":63.792995},{"pitch":55,"velocity":57,"startTime":64.0639305,"endTime":64.137822},{"pitch":62,"velocity":57,"startTime":64.0639305,"endTime":64.137822},{"pitch":65,"velocity":57,"startTime":64.0639305,"endTime":64.137822},{"pitch":58,"velocity":57,"startTime":64.088561,"endTime":64.137822},{"pitch":52,"velocity":57,"startTime":65.83732649999999,"endTime":65.88658749999999},{"pitch":57,"velocity":57,"startTime":65.83732649999999,"endTime":65.88658749999999},{"pitch":59,"velocity":57,"startTime":65.83732649999999,"endTime":65.88658749999999},{"pitch":62,"velocity":57,"startTime":65.83732649999999,"endTime":65.88658749999999},{"pitch":35,"velocity":80,"startTime":56.748672,"endTime":56.822563499999994,"instrument":1,"isDrum":true},{"pitch":44,"velocity":80,"startTime":56.748672,"endTime":56.822563499999994,"instrument":1,"isDrum":true},{"pitch":51,"velocity":80,"startTime":56.748672,"endTime":56.822563499999994,"instrument":1,"isDrum":true},{"pitch":53,"velocity":80,"startTime":56.748672,"endTime":56.822563499999994,"instrument":1,"isDrum":true},{"pitch":51,"velocity":80,"startTime":56.945716,"endTime":57.0196075,"instrument":1,"isDrum":true},{"pitch":44,"velocity":80,"startTime":57.04423799999999,"endTime":57.118129499999995,"instrument":1,"isDrum":true},{"pitch":51,"velocity":80,"startTime":57.04423799999999,"endTime":57.118129499999995,"instrument":1,"isDrum":true},{"pitch":53,"velocity":80,"startTime":57.04423799999999,"endTime":57.118129499999995,"instrument":1,"isDrum":true},{"pitch":51,"velocity":80,"startTime":57.241282,"endTime":57.31517349999999,"instrument":1,"isDrum":true},{"pitch":35,"velocity":80,"startTime":57.339803999999994,"endTime":57.413695499999996,"instrument":1,"isDrum":true},{"pitch":44,"velocity":80,"startTime":57.339803999999994,"endTime":57.413695499999996,"instrument":1,"isDrum":true},{"pitch":53,"velocity":80,"startTime":57.339803999999994,"endTime":57.413695499999996,"instrument":1,"isDrum":true},{"pitch":35,"velocity":80,"startTime":57.635369999999995,"endTime":57.7092615,"instrument":1,"isDrum":true},{"pitch":44,"velocity":80,"startTime":57.635369999999995,"endTime":57.7092615,"instrument":1,"isDrum":true},{"pitch":51,"velocity":80,"startTime":57.635369999999995,"endTime":57.7092615,"instrument":1,"isDrum":true},{"pitch":53,"velocity":80,"startTime":57.635369999999995,"endTime":57.7092615,"instrument":1,"isDrum":true},{"pitch":51,"velocity":80,"startTime":57.83241399999999,"endTime":57.906305499999995,"instrument":1,"isDrum":true},{"pitch":44,"velocity":80,"startTime":57.930935999999996,"endTime":58.0048275,"instrument":1,"isDrum":true},{"pitch":51,"velocity":80,"startTime":57.930935999999996,"endTime":58.0048275,"instrument":1,"isDrum":true},{"pitch":53,"velocity":80,"startTime":57.930935999999996,"endTime":58.0048275,"instrument":1,"isDrum":true},{"pitch":51,"velocity":80,"startTime":58.127979999999994,"endTime":58.201871499999996,"instrument":1,"isDrum":true},{"pitch":44,"velocity":80,"startTime":58.226501999999996,"endTime":58.3003935,"instrument":1,"isDrum":true},{"pitch":51,"velocity":80,"startTime":58.226501999999996,"endTime":58.3003935,"instrument":1,"isDrum":true},{"pitch":53,"velocity":80,"startTime":58.226501999999996,"endTime":58.3003935,"instrument":1,"isDrum":true},{"pitch":51,"velocity":80,"startTime":58.423545999999995,"endTime":58.4974375,"instrument":1,"isDrum":true},{"pitch":35,"velocity":80,"startTime":58.522068,"endTime":58.5959595,"instrument":1,"isDrum":true},{"pitch":44,"velocity":80,"startTime":58.522068,"endTime":58.5959595,"instrument":1,"isDrum":true},{"pitch":51,"velocity":80,"startTime":58.522068,"endTime":58.5959595,"instrument":1,"isDrum":true},{"pitch":53,"velocity":80,"startTime":58.522068,"endTime":58.5959595,"instrument":1,"isDrum":true},{"pitch":51,"velocity":80,"startTime":58.817634,"endTime":58.89152549999999,"instrument":1,"isDrum":true},{"pitch":44,"velocity":80,"startTime":59.1132,"endTime":59.187091499999994,"instrument":1,"isDrum":true},{"pitch":51,"velocity":80,"startTime":59.1132,"endTime":59.187091499999994,"instrument":1,"isDrum":true},{"pitch":53,"velocity":80,"startTime":59.1132,"endTime":59.187091499999994,"instrument":1,"isDrum":true},{"pitch":51,"velocity":80,"startTime":59.310244,"endTime":59.3841355,"instrument":1,"isDrum":true},{"pitch":35,"velocity":80,"startTime":59.40876599999999,"endTime":59.482657499999995,"instrument":1,"isDrum":true},{"pitch":44,"velocity":80,"startTime":59.40876599999999,"endTime":59.482657499999995,"instrument":1,"isDrum":true},{"pitch":51,"velocity":80,"startTime":59.40876599999999,"endTime":59.482657499999995,"instrument":1,"isDrum":true},{"pitch":53,"velocity":80,"startTime":59.40876599999999,"endTime":59.482657499999995,"instrument":1,"isDrum":true},{"pitch":51,"velocity":80,"startTime":59.60581,"endTime":59.67970149999999,"instrument":1,"isDrum":true},{"pitch":44,"velocity":80,"startTime":59.704331999999994,"endTime":59.778223499999996,"instrument":1,"isDrum":true},{"pitch":51,"velocity":80,"startTime":59.704331999999994,"endTime":59.778223499999996,"instrument":1,"isDrum":true},{"pitch":53,"velocity":80,"startTime":59.704331999999994,"endTime":59.778223499999996,"instrument":1,"isDrum":true},{"pitch":51,"velocity":80,"startTime":59.901376,"endTime":59.975267499999994,"instrument":1,"isDrum":true},{"pitch":35,"velocity":80,"startTime":59.999897999999995,"endTime":60.0737895,"instrument":1,"isDrum":true},{"pitch":44,"velocity":80,"startTime":59.999897999999995,"endTime":60.0737895,"instrument":1,"isDrum":true},{"pitch":51,"velocity":80,"startTime":59.999897999999995,"endTime":60.0737895,"instrument":1,"isDrum":true},{"pitch":53,"velocity":80,"startTime":59.999897999999995,"endTime":60.0737895,"instrument":1,"isDrum":true},{"pitch":51,"velocity":80,"startTime":60.19694199999999,"endTime":60.270833499999995,"instrument":1,"isDrum":true},{"pitch":35,"velocity":80,"startTime":60.295463999999996,"endTime":60.3693555,"instrument":1,"isDrum":true},{"pitch":44,"velocity":80,"startTime":60.295463999999996,"endTime":60.3693555,"instrument":1,"isDrum":true},{"pitch":51,"velocity":80,"startTime":60.295463999999996,"endTime":60.3693555,"instrument":1,"isDrum":true},{"pitch":53,"velocity":80,"startTime":60.295463999999996,"endTime":60.3693555,"instrument":1,"isDrum":true},{"pitch":51,"velocity":80,"startTime":60.492507999999994,"endTime":60.566399499999996,"instrument":1,"isDrum":true},{"pitch":44,"velocity":80,"startTime":60.591029999999996,"endTime":60.6649215,"instrument":1,"isDrum":true},{"pitch":51,"velocity":80,"startTime":60.591029999999996,"endTime":60.6649215,"instrument":1,"isDrum":true},{"pitch":53,"velocity":80,"startTime":60.591029999999996,"endTime":60.6649215,"instrument":1,"isDrum":true},{"pitch":51,"velocity":80,"startTime":60.788073999999995,"endTime":60.8619655,"instrument":1,"isDrum":true},{"pitch":35,"velocity":80,"startTime":60.886596,"endTime":60.9604875,"instrument":1,"isDrum":true},{"pitch":44,"velocity":80,"startTime":60.886596,"endTime":60.9604875,"instrument":1,"isDrum":true},{"pitch":51,"velocity":80,"startTime":60.886596,"endTime":60.9604875,"instrument":1,"isDrum":true},{"pitch":53,"velocity":80,"startTime":60.886596,"endTime":60.9604875,"instrument":1,"isDrum":true},{"pitch":51,"velocity":80,"startTime":61.083639999999995,"endTime":61.1575315,"instrument":1,"isDrum":true},{"pitch":35,"velocity":80,"startTime":61.182162,"endTime":61.25605349999999,"instrument":1,"isDrum":true},{"pitch":44,"velocity":80,"startTime":61.182162,"endTime":61.25605349999999,"instrument":1,"isDrum":true},{"pitch":51,"velocity":80,"startTime":61.182162,"endTime":61.25605349999999,"instrument":1,"isDrum":true},{"pitch":53,"velocity":80,"startTime":61.182162,"endTime":61.25605349999999,"instrument":1,"isDrum":true},{"pitch":51,"velocity":80,"startTime":61.379205999999996,"endTime":61.4530975,"instrument":1,"isDrum":true},{"pitch":44,"velocity":80,"startTime":61.477728,"endTime":61.551619499999994,"instrument":1,"isDrum":true},{"pitch":51,"velocity":80,"startTime":61.477728,"endTime":61.551619499999994,"instrument":1,"isDrum":true},{"pitch":53,"velocity":80,"startTime":61.477728,"endTime":61.551619499999994,"instrument":1,"isDrum":true},{"pitch":51,"velocity":80,"startTime":61.674772,"endTime":61.7486635,"instrument":1,"isDrum":true},{"pitch":35,"velocity":80,"startTime":61.77329399999999,"endTime":61.847185499999995,"instrument":1,"isDrum":true},{"pitch":44,"velocity":80,"startTime":61.77329399999999,"endTime":61.847185499999995,"instrument":1,"isDrum":true},{"pitch":51,"velocity":80,"startTime":61.77329399999999,"endTime":61.847185499999995,"instrument":1,"isDrum":true},{"pitch":53,"velocity":80,"startTime":61.77329399999999,"endTime":61.847185499999995,"instrument":1,"isDrum":true},{"pitch":51,"velocity":80,"startTime":61.970338,"endTime":62.04422949999999,"instrument":1,"isDrum":true},{"pitch":35,"velocity":80,"startTime":62.068859999999994,"endTime":62.142751499999996,"instrument":1,"isDrum":true},{"pitch":44,"velocity":80,"startTime":62.068859999999994,"endTime":62.142751499999996,"instrument":1,"isDrum":true},{"pitch":51,"velocity":80,"startTime":62.068859999999994,"endTime":62.142751499999996,"instrument":1,"isDrum":true},{"pitch":53,"velocity":80,"startTime":62.068859999999994,"endTime":62.142751499999996,"instrument":1,"isDrum":true},{"pitch":51,"velocity":80,"startTime":62.265904,"endTime":62.339795499999994,"instrument":1,"isDrum":true},{"pitch":35,"velocity":80,"startTime":62.364425999999995,"endTime":62.4383175,"instrument":1,"isDrum":true},{"pitch":44,"velocity":80,"startTime":62.364425999999995,"endTime":62.4383175,"instrument":1,"isDrum":true},{"pitch":51,"velocity":80,"startTime":62.364425999999995,"endTime":62.4383175,"instrument":1,"isDrum":true},{"pitch":53,"velocity":80,"startTime":62.364425999999995,"endTime":62.4383175,"instrument":1,"isDrum":true},{"pitch":51,"velocity":80,"startTime":62.56146999999999,"endTime":62.635361499999995,"instrument":1,"isDrum":true},{"pitch":44,"velocity":80,"startTime":62.659991999999995,"endTime":62.7338835,"instrument":1,"isDrum":true},{"pitch":51,"velocity":80,"startTime":62.659991999999995,"endTime":62.7338835,"instrument":1,"isDrum":true},{"pitch":53,"velocity":80,"startTime":62.659991999999995,"endTime":62.7338835,"instrument":1,"isDrum":true},{"pitch":51,"velocity":80,"startTime":62.857035999999994,"endTime":62.930927499999996,"instrument":1,"isDrum":true},{"pitch":35,"velocity":80,"startTime":62.955557999999996,"endTime":63.0294495,"instrument":1,"isDrum":true},{"pitch":44,"velocity":80,"startTime":62.955557999999996,"endTime":63.0294495,"instrument":1,"isDrum":true},{"pitch":53,"velocity":80,"startTime":62.955557999999996,"endTime":63.0294495,"instrument":1,"isDrum":true},{"pitch":57,"velocity":80,"startTime":62.955557999999996,"endTime":63.0294495,"instrument":1,"isDrum":true},{"pitch":44,"velocity":80,"startTime":63.251124,"endTime":63.32501549999999,"instrument":1,"isDrum":true},{"pitch":51,"velocity":80,"startTime":63.251124,"endTime":63.32501549999999,"instrument":1,"isDrum":true},{"pitch":53,"velocity":80,"startTime":63.251124,"endTime":63.32501549999999,"instrument":1,"isDrum":true},{"pitch":51,"velocity":80,"startTime":63.448167999999995,"endTime":63.5220595,"instrument":1,"isDrum":true},{"pitch":35,"velocity":80,"startTime":63.54669,"endTime":63.62058149999999,"instrument":1,"isDrum":true},{"pitch":44,"velocity":80,"startTime":63.54669,"endTime":63.62058149999999,"instrument":1,"isDrum":true},{"pitch":51,"velocity":80,"startTime":63.54669,"endTime":63.62058149999999,"instrument":1,"isDrum":true},{"pitch":53,"velocity":80,"startTime":63.54669,"endTime":63.62058149999999,"instrument":1,"isDrum":true},{"pitch":51,"velocity":80,"startTime":63.743733999999996,"endTime":63.8176255,"instrument":1,"isDrum":true},{"pitch":38,"velocity":80,"startTime":63.842256,"endTime":63.916147499999994,"instrument":1,"isDrum":true},{"pitch":44,"velocity":80,"startTime":63.842256,"endTime":63.916147499999994,"instrument":1,"isDrum":true},{"pitch":51,"velocity":80,"startTime":63.842256,"endTime":63.916147499999994,"instrument":1,"isDrum":true},{"pitch":53,"velocity":80,"startTime":63.842256,"endTime":63.916147499999994,"instrument":1,"isDrum":true},{"pitch":51,"velocity":80,"startTime":64.0393,"endTime":64.1131915,"instrument":1,"isDrum":true},{"pitch":44,"velocity":80,"startTime":64.137822,"endTime":64.2117135,"instrument":1,"isDrum":true},{"pitch":51,"velocity":80,"startTime":64.137822,"endTime":64.2117135,"instrument":1,"isDrum":true},{"pitch":53,"velocity":80,"startTime":64.137822,"endTime":64.2117135,"instrument":1,"isDrum":true},{"pitch":51,"velocity":80,"startTime":64.33486599999999,"endTime":64.4087575,"instrument":1,"isDrum":true},{"pitch":44,"velocity":80,"startTime":64.433388,"endTime":64.5072795,"instrument":1,"isDrum":true},{"pitch":53,"velocity":80,"startTime":64.433388,"endTime":64.5072795,"instrument":1,"isDrum":true},{"pitch":43,"velocity":103,"startTime":56.748672,"endTime":56.9703465,"instrument":2,"program":32},{"pitch":31,"velocity":103,"startTime":56.945716,"endTime":57.0196075,"instrument":2,"program":32},{"pitch":47,"velocity":103,"startTime":57.04423799999999,"endTime":57.31517349999999,"instrument":2,"program":32},{"pitch":35,"velocity":103,"startTime":57.339803999999994,"endTime":57.610739499999994,"instrument":2,"program":32},{"pitch":38,"velocity":103,"startTime":57.635369999999995,"endTime":57.906305499999995,"instrument":2,"program":32},{"pitch":31,"velocity":103,"startTime":57.930935999999996,"endTime":58.152610499999994,"instrument":2,"program":32},{"pitch":31,"velocity":103,"startTime":58.152610499999994,"endTime":58.201871499999996,"instrument":2,"program":32},{"pitch":35,"velocity":103,"startTime":58.226501999999996,"endTime":58.522068,"instrument":2,"program":32},{"pitch":38,"velocity":103,"startTime":58.522068,"endTime":58.719111999999996,"instrument":2,"program":32},{"pitch":26,"velocity":103,"startTime":58.719111999999996,"endTime":58.7930035,"instrument":2,"program":32},{"pitch":38,"velocity":103,"startTime":58.817634,"endTime":59.1132,"instrument":2,"program":32},{"pitch":28,"velocity":103,"startTime":59.1132,"endTime":59.3348745,"instrument":2,"program":32},{"pitch":35,"velocity":103,"startTime":59.310244,"endTime":59.3841355,"instrument":2,"program":32},{"pitch":35,"velocity":103,"startTime":59.40876599999999,"endTime":59.6304405,"instrument":2,"program":32},{"pitch":30,"velocity":103,"startTime":59.6304405,"endTime":59.67970149999999,"instrument":2,"program":32},{"pitch":35,"velocity":103,"startTime":59.704331999999994,"endTime":59.975267499999994,"instrument":2,"program":32},{"pitch":38,"velocity":103,"startTime":59.999897999999995,"endTime":60.19694199999999,"instrument":2,"program":32},{"pitch":31,"velocity":103,"startTime":60.19694199999999,"endTime":60.22157249999999,"instrument":2,"program":32},{"pitch":28,"velocity":103,"startTime":60.295463999999996,"endTime":60.492507999999994,"instrument":2,"program":32},{"pitch":35,"velocity":103,"startTime":60.492507999999994,"endTime":60.566399499999996,"instrument":2,"program":32},{"pitch":35,"velocity":103,"startTime":60.591029999999996,"endTime":60.8619655,"instrument":2,"program":32},{"pitch":35,"velocity":103,"startTime":60.886596,"endTime":61.182162,"instrument":2,"program":32},{"pitch":35,"velocity":103,"startTime":61.182162,"endTime":61.379205999999996,"instrument":2,"program":32},{"pitch":42,"velocity":103,"startTime":61.4038365,"endTime":61.4530975,"instrument":2,"program":32},{"pitch":43,"velocity":103,"startTime":61.477728,"endTime":61.674772,"instrument":2,"program":32},{"pitch":43,"velocity":103,"startTime":61.6994025,"endTime":61.7486635,"instrument":2,"program":32},{"pitch":43,"velocity":103,"startTime":61.77329399999999,"endTime":61.9949685,"instrument":2,"program":32},{"pitch":40,"velocity":103,"startTime":62.068859999999994,"endTime":62.265904,"instrument":2,"program":32},{"pitch":43,"velocity":103,"startTime":62.29053449999999,"endTime":62.339795499999994,"instrument":2,"program":32},{"pitch":48,"velocity":103,"startTime":62.364425999999995,"endTime":62.58610049999999,"instrument":2,"program":32},{"pitch":43,"velocity":103,"startTime":62.58610049999999,"endTime":62.635361499999995,"instrument":2,"program":32},{"pitch":38,"velocity":103,"startTime":62.659991999999995,"endTime":62.930927499999996,"instrument":2,"program":32},{"pitch":40,"velocity":103,"startTime":62.955557999999996,"endTime":63.177232499999995,"instrument":2,"program":32},{"pitch":33,"velocity":103,"startTime":63.177232499999995,"endTime":63.2264935,"instrument":2,"program":32},{"pitch":33,"velocity":103,"startTime":63.251124,"endTime":63.5220595,"instrument":2,"program":32},{"pitch":33,"velocity":103,"startTime":63.54669,"endTime":63.7683645,"instrument":2,"program":32},{"pitch":26,"velocity":103,"startTime":63.7683645,"endTime":63.8176255,"instrument":2,"program":32},{"pitch":43,"velocity":103,"startTime":63.842256,"endTime":64.0639305,"instrument":2,"program":32},{"pitch":43,"velocity":103,"startTime":64.0639305,"endTime":64.1131915,"instrument":2,"program":32},{"pitch":50,"velocity":103,"startTime":64.137822,"endTime":64.35949649999999,"instrument":2,"program":32},{"pitch":38,"velocity":103,"startTime":64.35949649999999,"endTime":64.4087575,"instrument":2,"program":32},{"pitch":50,"velocity":103,"startTime":64.433388,"endTime":64.728954,"instrument":2,"program":32},{"pitch":47,"velocity":103,"startTime":64.728954,"endTime":64.92599799999999,"instrument":2,"program":32},{"pitch":43,"velocity":103,"startTime":64.9506285,"endTime":64.9998895,"instrument":2,"program":32},{"pitch":31,"velocity":103,"startTime":65.02452,"endTime":65.36934699999999,"instrument":2,"program":32},{"pitch":38,"velocity":103,"startTime":65.32008599999999,"endTime":65.6402825,"instrument":2,"program":32},{"pitch":43,"velocity":103,"startTime":65.615652,"endTime":65.91121799999999,"instrument":2,"program":32},{"pitch":38,"velocity":103,"startTime":65.91121799999999,"endTime":66.1328925,"instrument":2,"program":32},{"pitch":31,"velocity":103,"startTime":66.1328925,"endTime":66.1821535,"instrument":2,"program":32},{"pitch":43,"velocity":57,"startTime":66.2314145,"endTime":66.600872},{"pitch":55,"velocity":57,"startTime":66.50234999999999,"endTime":66.5762415},{"pitch":62,"velocity":57,"startTime":66.50234999999999,"endTime":66.5762415},{"pitch":57,"velocity":57,"startTime":66.5269805,"endTime":66.5762415},{"pitch":55,"velocity":57,"startTime":66.99495999999999,"endTime":67.044221},{"pitch":62,"velocity":57,"startTime":66.99495999999999,"endTime":67.044221},{"pitch":57,"velocity":57,"startTime":67.01959049999999,"endTime":67.044221},{"pitch":59,"velocity":57,"startTime":67.01959049999999,"endTime":67.044221},{"pitch":43,"velocity":57,"startTime":67.38904799999999,"endTime":67.46293949999999},{"pitch":57,"velocity":57,"startTime":67.38904799999999,"endTime":67.46293949999999},{"pitch":59,"velocity":57,"startTime":67.41367849999999,"endTime":67.46293949999999},{"pitch":62,"velocity":57,"startTime":67.41367849999999,"endTime":67.46293949999999},{"pitch":43,"velocity":57,"startTime":67.9062885,"endTime":68.54668149999999},{"pitch":57,"velocity":57,"startTime":67.9062885,"endTime":68.54668149999999},{"pitch":59,"velocity":57,"startTime":67.9062885,"endTime":68.54668149999999},{"pitch":62,"velocity":57,"startTime":67.9062885,"endTime":68.54668149999999},{"pitch":50,"velocity":57,"startTime":68.57131199999999,"endTime":69.7289455},{"pitch":57,"velocity":57,"startTime":68.57131199999999,"endTime":69.7289455},{"pitch":59,"velocity":57,"startTime":68.59594249999999,"endTime":69.7289455},{"pitch":62,"velocity":57,"startTime":68.59594249999999,"endTime":69.7289455},{"pitch":52,"velocity":57,"startTime":69.753576,"endTime":70.9112095},{"pitch":55,"velocity":57,"startTime":69.753576,"endTime":70.9112095},{"pitch":59,"velocity":57,"startTime":69.7782065,"endTime":70.9112095},{"pitch":62,"velocity":57,"startTime":69.7782065,"endTime":70.9112095},{"pitch":59,"velocity":57,"startTime":70.93584,"endTime":72.0934735},{"pitch":48,"velocity":57,"startTime":70.9604705,"endTime":72.0934735},{"pitch":55,"velocity":57,"startTime":70.9604705,"endTime":72.0934735},{"pitch":64,"velocity":57,"startTime":70.9604705,"endTime":72.0934735},{"pitch":62,"velocity":57,"startTime":72.11810399999999,"endTime":73.27573749999999},{"pitch":38,"velocity":57,"startTime":72.14273449999999,"endTime":73.27573749999999},{"pitch":50,"velocity":57,"startTime":72.14273449999999,"endTime":73.27573749999999},{"pitch":55,"velocity":57,"startTime":72.14273449999999,"endTime":73.27573749999999},{"pitch":59,"velocity":57,"startTime":73.30036799999999,"endTime":73.4235205},{"pitch":43,"velocity":57,"startTime":73.32499849999999,"endTime":73.39889},{"pitch":53,"velocity":57,"startTime":73.32499849999999,"endTime":73.4235205},{"pitch":62,"velocity":57,"startTime":73.32499849999999,"endTime":73.4235205},{"pitch":43,"velocity":57,"startTime":73.81760849999999,"endTime":74.4580015},{"pitch":53,"velocity":57,"startTime":73.84223899999999,"endTime":74.4580015},{"pitch":59,"velocity":57,"startTime":73.84223899999999,"endTime":74.4580015},{"pitch":43,"velocity":57,"startTime":74.482632,"endTime":74.630415},{"pitch":55,"velocity":57,"startTime":74.5072625,"endTime":74.6057845},{"pitch":57,"velocity":57,"startTime":74.5072625,"endTime":74.630415},{"pitch":55,"velocity":57,"startTime":75.073764,"endTime":75.1969165},{"pitch":59,"velocity":57,"startTime":75.073764,"endTime":75.1969165},{"pitch":50,"velocity":57,"startTime":75.0983945,"endTime":75.172286},{"pitch":62,"velocity":57,"startTime":75.0983945,"endTime":75.1969165},{"pitch":35,"velocity":80,"startTime":66.206784,"endTime":66.2314145,"instrument":1,"isDrum":true},{"pitch":44,"velocity":80,"startTime":66.206784,"endTime":66.256045,"instrument":1,"isDrum":true},{"pitch":51,"velocity":80,"startTime":66.206784,"endTime":66.256045,"instrument":1,"isDrum":true},{"pitch":51,"velocity":80,"startTime":66.40382799999999,"endTime":66.45308899999999,"instrument":1,"isDrum":true},{"pitch":35,"velocity":80,"startTime":66.50234999999999,"endTime":66.5269805,"instrument":1,"isDrum":true},{"pitch":44,"velocity":80,"startTime":66.50234999999999,"endTime":66.5269805,"instrument":1,"isDrum":true},{"pitch":51,"velocity":80,"startTime":66.50234999999999,"endTime":66.5269805,"instrument":1,"isDrum":true},{"pitch":53,"velocity":80,"startTime":66.50234999999999,"endTime":66.5269805,"instrument":1,"isDrum":true},{"pitch":35,"velocity":80,"startTime":66.797916,"endTime":66.8225465,"instrument":1,"isDrum":true},{"pitch":44,"velocity":80,"startTime":66.797916,"endTime":66.8225465,"instrument":1,"isDrum":true},{"pitch":51,"velocity":80,"startTime":66.797916,"endTime":66.8225465,"instrument":1,"isDrum":true},{"pitch":51,"velocity":80,"startTime":66.99495999999999,"endTime":67.01959049999999,"instrument":1,"isDrum":true},{"pitch":35,"velocity":80,"startTime":67.093482,"endTime":67.1181125,"instrument":1,"isDrum":true},{"pitch":44,"velocity":80,"startTime":67.093482,"endTime":67.1181125,"instrument":1,"isDrum":true},{"pitch":51,"velocity":80,"startTime":67.093482,"endTime":67.1181125,"instrument":1,"isDrum":true},{"pitch":53,"velocity":80,"startTime":67.093482,"endTime":67.1181125,"instrument":1,"isDrum":true},{"pitch":35,"velocity":80,"startTime":67.38904799999999,"endTime":67.41367849999999,"instrument":1,"isDrum":true},{"pitch":44,"velocity":80,"startTime":67.38904799999999,"endTime":67.41367849999999,"instrument":1,"isDrum":true},{"pitch":51,"velocity":80,"startTime":67.38904799999999,"endTime":67.41367849999999,"instrument":1,"isDrum":true},{"pitch":53,"velocity":80,"startTime":67.586092,"endTime":67.6107225,"instrument":1,"isDrum":true},{"pitch":35,"velocity":80,"startTime":67.684614,"endTime":67.7092445,"instrument":1,"isDrum":true},{"pitch":44,"velocity":80,"startTime":67.684614,"endTime":67.7092445,"instrument":1,"isDrum":true},{"pitch":51,"velocity":80,"startTime":67.684614,"endTime":67.7092445,"instrument":1,"isDrum":true},{"pitch":53,"velocity":80,"startTime":67.881658,"endTime":67.9062885,"instrument":1,"isDrum":true},{"pitch":35,"velocity":80,"startTime":67.98017999999999,"endTime":68.00481049999999,"instrument":1,"isDrum":true},{"pitch":44,"velocity":80,"startTime":67.98017999999999,"endTime":68.00481049999999,"instrument":1,"isDrum":true},{"pitch":51,"velocity":80,"startTime":67.98017999999999,"endTime":68.00481049999999,"instrument":1,"isDrum":true},{"pitch":46,"velocity":80,"startTime":68.177224,"endTime":68.275746,"instrument":1,"isDrum":true},{"pitch":51,"velocity":80,"startTime":68.177224,"endTime":68.275746,"instrument":1,"isDrum":true},{"pitch":35,"velocity":80,"startTime":68.275746,"endTime":68.3003765,"instrument":1,"isDrum":true},{"pitch":44,"velocity":80,"startTime":68.275746,"endTime":68.3003765,"instrument":1,"isDrum":true},{"pitch":51,"velocity":80,"startTime":68.275746,"endTime":68.3003765,"instrument":1,"isDrum":true},{"pitch":53,"velocity":80,"startTime":68.47278999999999,"endTime":68.49742049999999,"instrument":1,"isDrum":true},{"pitch":35,"velocity":80,"startTime":68.57131199999999,"endTime":68.59594249999999,"instrument":1,"isDrum":true},{"pitch":44,"velocity":80,"startTime":68.57131199999999,"endTime":68.59594249999999,"instrument":1,"isDrum":true},{"pitch":51,"velocity":80,"startTime":68.57131199999999,"endTime":68.59594249999999,"instrument":1,"isDrum":true},{"pitch":53,"velocity":80,"startTime":68.57131199999999,"endTime":68.59594249999999,"instrument":1,"isDrum":true},{"pitch":35,"velocity":80,"startTime":68.866878,"endTime":68.8915085,"instrument":1,"isDrum":true},{"pitch":44,"velocity":80,"startTime":68.866878,"endTime":68.8915085,"instrument":1,"isDrum":true},{"pitch":51,"velocity":80,"startTime":68.866878,"endTime":68.8915085,"instrument":1,"isDrum":true},{"pitch":39,"velocity":80,"startTime":69.06392199999999,"endTime":69.08855249999999,"instrument":1,"isDrum":true},{"pitch":51,"velocity":80,"startTime":69.06392199999999,"endTime":69.08855249999999,"instrument":1,"isDrum":true},{"pitch":35,"velocity":80,"startTime":69.162444,"endTime":69.1870745,"instrument":1,"isDrum":true},{"pitch":44,"velocity":80,"startTime":69.162444,"endTime":69.1870745,"instrument":1,"isDrum":true},{"pitch":51,"velocity":80,"startTime":69.162444,"endTime":69.1870745,"instrument":1,"isDrum":true},{"pitch":46,"velocity":80,"startTime":69.359488,"endTime":69.45801,"instrument":1,"isDrum":true},{"pitch":51,"velocity":80,"startTime":69.359488,"endTime":69.45801,"instrument":1,"isDrum":true},{"pitch":35,"velocity":80,"startTime":69.45801,"endTime":69.4826405,"instrument":1,"isDrum":true},{"pitch":39,"velocity":80,"startTime":69.45801,"endTime":69.4826405,"instrument":1,"isDrum":true},{"pitch":44,"velocity":80,"startTime":69.45801,"endTime":69.4826405,"instrument":1,"isDrum":true},{"pitch":51,"velocity":80,"startTime":69.45801,"endTime":69.4826405,"instrument":1,"isDrum":true},{"pitch":39,"velocity":80,"startTime":69.65505399999999,"endTime":69.6796845,"instrument":1,"isDrum":true},{"pitch":51,"velocity":80,"startTime":69.65505399999999,"endTime":69.6796845,"instrument":1,"isDrum":true},{"pitch":35,"velocity":80,"startTime":69.753576,"endTime":69.7782065,"instrument":1,"isDrum":true},{"pitch":44,"velocity":80,"startTime":69.753576,"endTime":69.7782065,"instrument":1,"isDrum":true},{"pitch":51,"velocity":80,"startTime":69.753576,"endTime":69.7782065,"instrument":1,"isDrum":true},{"pitch":51,"velocity":80,"startTime":69.95062,"endTime":69.9752505,"instrument":1,"isDrum":true},{"pitch":35,"velocity":80,"startTime":70.04914199999999,"endTime":70.07377249999999,"instrument":1,"isDrum":true},{"pitch":39,"velocity":80,"startTime":70.04914199999999,"endTime":70.07377249999999,"instrument":1,"isDrum":true},{"pitch":44,"velocity":80,"startTime":70.04914199999999,"endTime":70.07377249999999,"instrument":1,"isDrum":true},{"pitch":51,"velocity":80,"startTime":70.04914199999999,"endTime":70.07377249999999,"instrument":1,"isDrum":true},{"pitch":39,"velocity":80,"startTime":70.246186,"endTime":70.2708165,"instrument":1,"isDrum":true},{"pitch":51,"velocity":80,"startTime":70.246186,"endTime":70.2708165,"instrument":1,"isDrum":true},{"pitch":35,"velocity":80,"startTime":70.344708,"endTime":70.3693385,"instrument":1,"isDrum":true},{"pitch":44,"velocity":80,"startTime":70.344708,"endTime":70.3693385,"instrument":1,"isDrum":true},{"pitch":51,"velocity":80,"startTime":70.344708,"endTime":70.3693385,"instrument":1,"isDrum":true},{"pitch":51,"velocity":80,"startTime":70.54175199999999,"endTime":70.56638249999999,"instrument":1,"isDrum":true},{"pitch":35,"velocity":80,"startTime":70.64027399999999,"endTime":70.66490449999999,"instrument":1,"isDrum":true},{"pitch":39,"velocity":80,"startTime":70.64027399999999,"endTime":70.66490449999999,"instrument":1,"isDrum":true},{"pitch":44,"velocity":80,"startTime":70.64027399999999,"endTime":70.66490449999999,"instrument":1,"isDrum":true},{"pitch":51,"velocity":80,"startTime":70.64027399999999,"endTime":70.66490449999999,"instrument":1,"isDrum":true},{"pitch":39,"velocity":80,"startTime":70.837318,"endTime":70.8619485,"instrument":1,"isDrum":true},{"pitch":51,"velocity":80,"startTime":70.837318,"endTime":70.8619485,"instrument":1,"isDrum":true},{"pitch":35,"velocity":80,"startTime":70.93584,"endTime":70.9604705,"instrument":1,"isDrum":true},{"pitch":44,"velocity":80,"startTime":70.93584,"endTime":70.9604705,"instrument":1,"isDrum":true},{"pitch":53,"velocity":80,"startTime":70.93584,"endTime":70.9604705,"instrument":1,"isDrum":true},{"pitch":51,"velocity":80,"startTime":71.13288399999999,"endTime":71.15751449999999,"instrument":1,"isDrum":true},{"pitch":35,"velocity":80,"startTime":71.23140599999999,"endTime":71.2560365,"instrument":1,"isDrum":true},{"pitch":44,"velocity":80,"startTime":71.23140599999999,"endTime":71.2560365,"instrument":1,"isDrum":true},{"pitch":51,"velocity":80,"startTime":71.23140599999999,"endTime":71.2560365,"instrument":1,"isDrum":true},{"pitch":53,"velocity":80,"startTime":71.23140599999999,"endTime":71.2560365,"instrument":1,"isDrum":true},{"pitch":44,"velocity":80,"startTime":71.526972,"endTime":71.5516025,"instrument":1,"isDrum":true},{"pitch":51,"velocity":80,"startTime":71.72401599999999,"endTime":71.74864649999999,"instrument":1,"isDrum":true},{"pitch":35,"velocity":80,"startTime":71.822538,"endTime":71.8471685,"instrument":1,"isDrum":true},{"pitch":44,"velocity":80,"startTime":71.822538,"endTime":71.8471685,"instrument":1,"isDrum":true},{"pitch":51,"velocity":80,"startTime":71.822538,"endTime":71.8471685,"instrument":1,"isDrum":true},{"pitch":53,"velocity":80,"startTime":71.822538,"endTime":71.8471685,"instrument":1,"isDrum":true},{"pitch":51,"velocity":80,"startTime":72.019582,"endTime":72.0442125,"instrument":1,"isDrum":true},{"pitch":35,"velocity":80,"startTime":72.11810399999999,"endTime":72.14273449999999,"instrument":1,"isDrum":true},{"pitch":44,"velocity":80,"startTime":72.11810399999999,"endTime":72.14273449999999,"instrument":1,"isDrum":true},{"pitch":51,"velocity":80,"startTime":72.11810399999999,"endTime":72.14273449999999,"instrument":1,"isDrum":true},{"pitch":51,"velocity":80,"startTime":72.315148,"endTime":72.3397785,"instrument":1,"isDrum":true},{"pitch":35,"velocity":80,"startTime":72.41367,"endTime":72.4383005,"instrument":1,"isDrum":true},{"pitch":44,"velocity":80,"startTime":72.41367,"endTime":72.4383005,"instrument":1,"isDrum":true},{"pitch":51,"velocity":80,"startTime":72.41367,"endTime":72.4383005,"instrument":1,"isDrum":true},{"pitch":53,"velocity":80,"startTime":72.41367,"endTime":72.4383005,"instrument":1,"isDrum":true},{"pitch":44,"velocity":80,"startTime":72.70923599999999,"endTime":72.73386649999999,"instrument":1,"isDrum":true},{"pitch":51,"velocity":80,"startTime":72.90628,"endTime":72.9309105,"instrument":1,"isDrum":true},{"pitch":35,"velocity":80,"startTime":73.004802,"endTime":73.0294325,"instrument":1,"isDrum":true},{"pitch":44,"velocity":80,"startTime":73.004802,"endTime":73.0294325,"instrument":1,"isDrum":true},{"pitch":51,"velocity":80,"startTime":73.004802,"endTime":73.0294325,"instrument":1,"isDrum":true},{"pitch":53,"velocity":80,"startTime":73.004802,"endTime":73.0294325,"instrument":1,"isDrum":true},{"pitch":51,"velocity":80,"startTime":73.20184599999999,"endTime":73.22647649999999,"instrument":1,"isDrum":true},{"pitch":35,"velocity":80,"startTime":73.30036799999999,"endTime":73.32499849999999,"instrument":1,"isDrum":true},{"pitch":44,"velocity":80,"startTime":73.30036799999999,"endTime":73.32499849999999,"instrument":1,"isDrum":true},{"pitch":51,"velocity":80,"startTime":73.30036799999999,"endTime":73.32499849999999,"instrument":1,"isDrum":true},{"pitch":51,"velocity":80,"startTime":73.497412,"endTime":73.5220425,"instrument":1,"isDrum":true},{"pitch":35,"velocity":80,"startTime":73.595934,"endTime":73.6205645,"instrument":1,"isDrum":true},{"pitch":44,"velocity":80,"startTime":73.595934,"endTime":73.6205645,"instrument":1,"isDrum":true},{"pitch":51,"velocity":80,"startTime":73.595934,"endTime":73.6205645,"instrument":1,"isDrum":true},{"pitch":53,"velocity":80,"startTime":73.595934,"endTime":73.6205645,"instrument":1,"isDrum":true},{"pitch":51,"velocity":80,"startTime":73.79297799999999,"endTime":73.81760849999999,"instrument":1,"isDrum":true},{"pitch":35,"velocity":80,"startTime":73.8915,"endTime":73.9161305,"instrument":1,"isDrum":true},{"pitch":44,"velocity":80,"startTime":73.8915,"endTime":73.9161305,"instrument":1,"isDrum":true},{"pitch":51,"velocity":80,"startTime":73.8915,"endTime":73.9161305,"instrument":1,"isDrum":true},{"pitch":51,"velocity":80,"startTime":74.088544,"endTime":74.1131745,"instrument":1,"isDrum":true},{"pitch":35,"velocity":80,"startTime":74.187066,"endTime":74.21169649999999,"instrument":1,"isDrum":true},{"pitch":44,"velocity":80,"startTime":74.187066,"endTime":74.21169649999999,"instrument":1,"isDrum":true},{"pitch":51,"velocity":80,"startTime":74.187066,"endTime":74.21169649999999,"instrument":1,"isDrum":true},{"pitch":53,"velocity":80,"startTime":74.187066,"endTime":74.21169649999999,"instrument":1,"isDrum":true},{"pitch":39,"velocity":80,"startTime":74.482632,"endTime":74.5072625,"instrument":1,"isDrum":true},{"pitch":44,"velocity":80,"startTime":74.482632,"endTime":74.5072625,"instrument":1,"isDrum":true},{"pitch":51,"velocity":80,"startTime":74.482632,"endTime":74.5072625,"instrument":1,"isDrum":true},{"pitch":39,"velocity":80,"startTime":74.679676,"endTime":74.7043065,"instrument":1,"isDrum":true},{"pitch":51,"velocity":80,"startTime":74.679676,"endTime":74.7043065,"instrument":1,"isDrum":true},{"pitch":35,"velocity":80,"startTime":74.77819799999999,"endTime":74.80282849999999,"instrument":1,"isDrum":true},{"pitch":44,"velocity":80,"startTime":74.77819799999999,"endTime":74.80282849999999,"instrument":1,"isDrum":true},{"pitch":51,"velocity":80,"startTime":74.77819799999999,"endTime":74.80282849999999,"instrument":1,"isDrum":true},{"pitch":53,"velocity":80,"startTime":74.77819799999999,"endTime":74.80282849999999,"instrument":1,"isDrum":true},{"pitch":46,"velocity":80,"startTime":74.975242,"endTime":75.0491335,"instrument":1,"isDrum":true},{"pitch":51,"velocity":80,"startTime":74.975242,"endTime":74.9998725,"instrument":1,"isDrum":true},{"pitch":39,"velocity":80,"startTime":75.073764,"endTime":75.0983945,"instrument":1,"isDrum":true},{"pitch":44,"velocity":80,"startTime":75.073764,"endTime":75.0983945,"instrument":1,"isDrum":true},{"pitch":51,"velocity":80,"startTime":75.073764,"endTime":75.0983945,"instrument":1,"isDrum":true},{"pitch":31,"velocity":103,"startTime":66.206784,"endTime":66.551611,"instrument":2,"program":32},{"pitch":43,"velocity":103,"startTime":66.50234999999999,"endTime":66.8225465,"instrument":2,"program":32},{"pitch":36,"velocity":103,"startTime":66.797916,"endTime":67.142743,"instrument":2,"program":32},{"pitch":38,"velocity":103,"startTime":67.093482,"endTime":67.38904799999999,"instrument":2,"program":32},{"pitch":31,"velocity":103,"startTime":67.38904799999999,"endTime":67.6599835,"instrument":2,"program":32},{"pitch":31,"velocity":103,"startTime":67.684614,"endTime":67.95554949999999,"instrument":2,"program":32},{"pitch":31,"velocity":103,"startTime":67.98017999999999,"endTime":68.2018545,"instrument":2,"program":32},{"pitch":31,"velocity":103,"startTime":68.275746,"endTime":68.54668149999999,"instrument":2,"program":32},{"pitch":28,"velocity":103,"startTime":68.57131199999999,"endTime":68.817617,"instrument":2,"program":32},{"pitch":30,"velocity":103,"startTime":68.866878,"endTime":69.1378135,"instrument":2,"program":32},{"pitch":35,"velocity":103,"startTime":69.162444,"endTime":69.4333795,"instrument":2,"program":32},{"pitch":35,"velocity":103,"startTime":69.45801,"endTime":69.7289455,"instrument":2,"program":32},{"pitch":28,"velocity":103,"startTime":69.753576,"endTime":69.999881,"instrument":2,"program":32},{"pitch":28,"velocity":103,"startTime":70.04914199999999,"endTime":70.295447,"instrument":2,"program":32},{"pitch":35,"velocity":103,"startTime":70.344708,"endTime":70.61564349999999,"instrument":2,"program":32},{"pitch":28,"velocity":103,"startTime":70.64027399999999,"endTime":70.9112095,"instrument":2,"program":32},{"pitch":36,"velocity":103,"startTime":70.93584,"endTime":71.15751449999999,"instrument":2,"program":32},{"pitch":24,"velocity":103,"startTime":71.15751449999999,"endTime":71.23140599999999,"instrument":2,"program":32},{"pitch":36,"velocity":103,"startTime":71.23140599999999,"endTime":71.477711,"instrument":2,"program":32},{"pitch":36,"velocity":103,"startTime":71.526972,"endTime":71.7979075,"instrument":2,"program":32},{"pitch":38,"velocity":103,"startTime":71.822538,"endTime":72.0934735,"instrument":2,"program":32},{"pitch":38,"velocity":103,"startTime":72.11810399999999,"endTime":72.462931,"instrument":2,"program":32},{"pitch":33,"velocity":103,"startTime":72.41367,"endTime":72.73386649999999,"instrument":2,"program":32},{"pitch":40,"velocity":103,"startTime":72.70923599999999,"endTime":73.0294325,"instrument":2,"program":32},{"pitch":45,"velocity":103,"startTime":73.004802,"endTime":73.30036799999999,"instrument":2,"program":32},{"pitch":43,"velocity":103,"startTime":73.30036799999999,"endTime":73.5220425,"instrument":2,"program":32},{"pitch":31,"velocity":103,"startTime":73.5220425,"endTime":73.595934,"instrument":2,"program":32},{"pitch":38,"velocity":103,"startTime":73.595934,"endTime":73.8915,"instrument":2,"program":32},{"pitch":43,"velocity":103,"startTime":73.8915,"endTime":74.187066,"instrument":2,"program":32},{"pitch":38,"velocity":103,"startTime":74.187066,"endTime":74.482632,"instrument":2,"program":32},{"pitch":43,"velocity":103,"startTime":74.482632,"endTime":74.7043065,"instrument":2,"program":32},{"pitch":38,"velocity":103,"startTime":74.7043065,"endTime":74.77819799999999,"instrument":2,"program":32},{"pitch":43,"velocity":103,"startTime":74.77819799999999,"endTime":75.073764,"instrument":2,"program":32},{"pitch":43,"velocity":103,"startTime":75.073764,"endTime":75.36932999999999,"instrument":2,"program":32},{"pitch":38,"velocity":103,"startTime":75.36932999999999,"endTime":75.664896,"instrument":2,"program":32},{"pitch":43,"velocity":57,"startTime":75.68952649999999,"endTime":75.81267899999999},{"pitch":57,"velocity":57,"startTime":75.88657049999999,"endTime":75.9358315},{"pitch":59,"velocity":57,"startTime":75.88657049999999,"endTime":75.9358315},{"pitch":62,"velocity":57,"startTime":75.88657049999999,"endTime":75.9358315},{"pitch":65,"velocity":57,"startTime":75.88657049999999,"endTime":75.9358315},{"pitch":43,"velocity":57,"startTime":76.1821365,"endTime":76.256028},{"pitch":59,"velocity":57,"startTime":76.28065849999999,"endTime":76.35454999999999},{"pitch":62,"velocity":57,"startTime":76.28065849999999,"endTime":76.35454999999999},{"pitch":65,"velocity":57,"startTime":76.28065849999999,"endTime":76.35454999999999},{"pitch":43,"velocity":57,"startTime":77.0688345,"endTime":77.142726},{"pitch":59,"velocity":57,"startTime":77.16735649999998,"endTime":77.24124799999998},{"pitch":62,"velocity":57,"startTime":77.16735649999998,"endTime":77.24124799999998},{"pitch":65,"velocity":57,"startTime":77.16735649999998,"endTime":77.2658785},{"pitch":57,"velocity":57,"startTime":77.95553249999999,"endTime":78.02942399999999},{"pitch":62,"velocity":57,"startTime":77.95553249999999,"endTime":78.02942399999999},{"pitch":66,"velocity":57,"startTime":77.95553249999999,"endTime":78.02942399999999},{"pitch":71,"velocity":57,"startTime":77.95553249999999,"endTime":78.02942399999999},{"pitch":40,"velocity":57,"startTime":78.54666449999999,"endTime":78.620556},{"pitch":59,"velocity":57,"startTime":78.64518649999998,"endTime":78.71907799999998},{"pitch":62,"velocity":57,"startTime":78.64518649999998,"endTime":78.71907799999998},{"pitch":66,"velocity":57,"startTime":78.64518649999998,"endTime":78.7437085},{"pitch":40,"velocity":57,"startTime":78.94075249999999,"endTime":79.06390499999999},{"pitch":59,"velocity":57,"startTime":79.23631849999998,"endTime":79.31020999999998},{"pitch":64,"velocity":57,"startTime":79.23631849999998,"endTime":79.2855795},{"pitch":66,"velocity":57,"startTime":79.23631849999998,"endTime":79.31020999999998},{"pitch":40,"velocity":57,"startTime":79.7289285,"endTime":79.80282},{"pitch":59,"velocity":57,"startTime":79.82745049999998,"endTime":79.8767115},{"pitch":64,"velocity":57,"startTime":79.82745049999998,"endTime":79.8767115},{"pitch":66,"velocity":57,"startTime":79.82745049999998,"endTime":79.90134199999999},{"pitch":59,"velocity":57,"startTime":80.61562649999999,"endTime":80.6648875},{"pitch":60,"velocity":57,"startTime":80.61562649999999,"endTime":80.68951799999999},{"pitch":64,"velocity":57,"startTime":80.61562649999999,"endTime":80.6648875},{"pitch":55,"velocity":57,"startTime":81.20675849999999,"endTime":81.231389},{"pitch":60,"velocity":57,"startTime":81.20675849999999,"endTime":81.2560195},{"pitch":64,"velocity":57,"startTime":81.20675849999999,"endTime":81.231389},{"pitch":57,"velocity":57,"startTime":81.8964125,"endTime":81.9456735},{"pitch":62,"velocity":57,"startTime":81.8964125,"endTime":81.9456735},{"pitch":64,"velocity":57,"startTime":81.8964125,"endTime":81.9456735},{"pitch":67,"velocity":57,"startTime":81.8964125,"endTime":81.970304},{"pitch":62,"velocity":57,"startTime":82.4875445,"endTime":82.561436},{"pitch":64,"velocity":57,"startTime":82.4875445,"endTime":82.561436},{"pitch":67,"velocity":57,"startTime":82.4875445,"endTime":82.561436},{"pitch":71,"velocity":57,"startTime":82.4875445,"endTime":82.561436},{"pitch":62,"velocity":57,"startTime":82.75847999999999,"endTime":82.857002},{"pitch":43,"velocity":57,"startTime":82.78311049999999,"endTime":82.8816325},{"pitch":55,"velocity":57,"startTime":82.78311049999999,"endTime":82.857002},{"pitch":59,"velocity":57,"startTime":82.78311049999999,"endTime":82.857002},{"pitch":55,"velocity":57,"startTime":83.27572049999999,"endTime":83.32498149999999},{"pitch":59,"velocity":57,"startTime":83.27572049999999,"endTime":83.32498149999999},{"pitch":62,"velocity":57,"startTime":83.27572049999999,"endTime":83.32498149999999},{"pitch":50,"velocity":57,"startTime":83.30035099999999,"endTime":83.32498149999999},{"pitch":55,"velocity":57,"startTime":83.8668525,"endTime":85.0491165},{"pitch":59,"velocity":57,"startTime":83.8668525,"endTime":85.0491165},{"pitch":62,"velocity":57,"startTime":83.8668525,"endTime":85.0491165},{"pitch":67,"velocity":57,"startTime":83.8668525,"endTime":85.0491165},{"pitch":35,"velocity":80,"startTime":75.664896,"endTime":75.714157,"instrument":1,"isDrum":true},{"pitch":44,"velocity":80,"startTime":75.664896,"endTime":75.714157,"instrument":1,"isDrum":true},{"pitch":51,"velocity":80,"startTime":75.664896,"endTime":75.714157,"instrument":1,"isDrum":true},{"pitch":53,"velocity":80,"startTime":75.664896,"endTime":75.714157,"instrument":1,"isDrum":true},{"pitch":56,"velocity":80,"startTime":75.664896,"endTime":75.714157,"instrument":1,"isDrum":true},{"pitch":51,"velocity":80,"startTime":75.86194,"endTime":75.9358315,"instrument":1,"isDrum":true},{"pitch":35,"velocity":80,"startTime":75.96046199999999,"endTime":76.00972300000001,"instrument":1,"isDrum":true},{"pitch":44,"velocity":80,"startTime":75.96046199999999,"endTime":76.00972300000001,"instrument":1,"isDrum":true},{"pitch":51,"velocity":80,"startTime":75.96046199999999,"endTime":76.00972300000001,"instrument":1,"isDrum":true},{"pitch":53,"velocity":80,"startTime":75.96046199999999,"endTime":76.00972300000001,"instrument":1,"isDrum":true},{"pitch":56,"velocity":80,"startTime":75.96046199999999,"endTime":76.00972300000001,"instrument":1,"isDrum":true},{"pitch":51,"velocity":80,"startTime":76.157506,"endTime":76.2313975,"instrument":1,"isDrum":true},{"pitch":35,"velocity":80,"startTime":76.256028,"endTime":76.305289,"instrument":1,"isDrum":true},{"pitch":44,"velocity":80,"startTime":76.256028,"endTime":76.305289,"instrument":1,"isDrum":true},{"pitch":51,"velocity":80,"startTime":76.256028,"endTime":76.305289,"instrument":1,"isDrum":true},{"pitch":53,"velocity":80,"startTime":76.256028,"endTime":76.305289,"instrument":1,"isDrum":true},{"pitch":51,"velocity":80,"startTime":76.453072,"endTime":76.52696350000001,"instrument":1,"isDrum":true},{"pitch":35,"velocity":80,"startTime":76.551594,"endTime":76.60085500000001,"instrument":1,"isDrum":true},{"pitch":44,"velocity":80,"startTime":76.551594,"endTime":76.60085500000001,"instrument":1,"isDrum":true},{"pitch":51,"velocity":80,"startTime":76.551594,"endTime":76.60085500000001,"instrument":1,"isDrum":true},{"pitch":53,"velocity":80,"startTime":76.551594,"endTime":76.60085500000001,"instrument":1,"isDrum":true},{"pitch":56,"velocity":80,"startTime":76.551594,"endTime":76.60085500000001,"instrument":1,"isDrum":true},{"pitch":51,"velocity":80,"startTime":76.748638,"endTime":76.8225295,"instrument":1,"isDrum":true},{"pitch":35,"velocity":80,"startTime":76.84715999999999,"endTime":76.896421,"instrument":1,"isDrum":true},{"pitch":44,"velocity":80,"startTime":76.84715999999999,"endTime":76.896421,"instrument":1,"isDrum":true},{"pitch":51,"velocity":80,"startTime":76.84715999999999,"endTime":76.896421,"instrument":1,"isDrum":true},{"pitch":53,"velocity":80,"startTime":76.84715999999999,"endTime":76.896421,"instrument":1,"isDrum":true},{"pitch":51,"velocity":80,"startTime":77.04420400000001,"endTime":77.11809550000001,"instrument":1,"isDrum":true},{"pitch":35,"velocity":80,"startTime":77.142726,"endTime":77.191987,"instrument":1,"isDrum":true},{"pitch":44,"velocity":80,"startTime":77.142726,"endTime":77.191987,"instrument":1,"isDrum":true},{"pitch":51,"velocity":80,"startTime":77.142726,"endTime":77.191987,"instrument":1,"isDrum":true},{"pitch":56,"velocity":80,"startTime":77.142726,"endTime":77.191987,"instrument":1,"isDrum":true},{"pitch":38,"velocity":80,"startTime":77.43829199999999,"endTime":77.487553,"instrument":1,"isDrum":true},{"pitch":44,"velocity":80,"startTime":77.43829199999999,"endTime":77.487553,"instrument":1,"isDrum":true},{"pitch":51,"velocity":80,"startTime":77.43829199999999,"endTime":77.63533600000001,"instrument":1,"isDrum":true},{"pitch":53,"velocity":80,"startTime":77.43829199999999,"endTime":77.487553,"instrument":1,"isDrum":true},{"pitch":56,"velocity":80,"startTime":77.43829199999999,"endTime":77.487553,"instrument":1,"isDrum":true},{"pitch":35,"velocity":80,"startTime":77.733858,"endTime":77.783119,"instrument":1,"isDrum":true},{"pitch":44,"velocity":80,"startTime":77.733858,"endTime":77.783119,"instrument":1,"isDrum":true},{"pitch":51,"velocity":80,"startTime":77.733858,"endTime":77.783119,"instrument":1,"isDrum":true},{"pitch":53,"velocity":80,"startTime":77.733858,"endTime":77.783119,"instrument":1,"isDrum":true},{"pitch":51,"velocity":80,"startTime":77.930902,"endTime":78.0047935,"instrument":1,"isDrum":true},{"pitch":35,"velocity":80,"startTime":78.02942399999999,"endTime":78.07868500000001,"instrument":1,"isDrum":true},{"pitch":44,"velocity":80,"startTime":78.02942399999999,"endTime":78.07868500000001,"instrument":1,"isDrum":true},{"pitch":51,"velocity":80,"startTime":78.02942399999999,"endTime":78.07868500000001,"instrument":1,"isDrum":true},{"pitch":53,"velocity":80,"startTime":78.02942399999999,"endTime":78.07868500000001,"instrument":1,"isDrum":true},{"pitch":56,"velocity":80,"startTime":78.02942399999999,"endTime":78.07868500000001,"instrument":1,"isDrum":true},{"pitch":51,"velocity":80,"startTime":78.226468,"endTime":78.3003595,"instrument":1,"isDrum":true},{"pitch":35,"velocity":80,"startTime":78.32499,"endTime":78.374251,"instrument":1,"isDrum":true},{"pitch":44,"velocity":80,"startTime":78.32499,"endTime":78.374251,"instrument":1,"isDrum":true},{"pitch":51,"velocity":80,"startTime":78.32499,"endTime":78.374251,"instrument":1,"isDrum":true},{"pitch":53,"velocity":80,"startTime":78.32499,"endTime":78.374251,"instrument":1,"isDrum":true},{"pitch":51,"velocity":80,"startTime":78.522034,"endTime":78.5959255,"instrument":1,"isDrum":true},{"pitch":35,"velocity":80,"startTime":78.620556,"endTime":78.66981700000001,"instrument":1,"isDrum":true},{"pitch":44,"velocity":80,"startTime":78.620556,"endTime":78.66981700000001,"instrument":1,"isDrum":true},{"pitch":51,"velocity":80,"startTime":78.620556,"endTime":78.66981700000001,"instrument":1,"isDrum":true},{"pitch":53,"velocity":80,"startTime":78.620556,"endTime":78.66981700000001,"instrument":1,"isDrum":true},{"pitch":56,"velocity":80,"startTime":78.620556,"endTime":78.66981700000001,"instrument":1,"isDrum":true},{"pitch":51,"velocity":80,"startTime":78.8176,"endTime":78.8914915,"instrument":1,"isDrum":true},{"pitch":35,"velocity":80,"startTime":78.916122,"endTime":78.965383,"instrument":1,"isDrum":true},{"pitch":44,"velocity":80,"startTime":78.916122,"endTime":78.965383,"instrument":1,"isDrum":true},{"pitch":51,"velocity":80,"startTime":78.916122,"endTime":78.965383,"instrument":1,"isDrum":true},{"pitch":53,"velocity":80,"startTime":78.916122,"endTime":78.965383,"instrument":1,"isDrum":true},{"pitch":51,"velocity":80,"startTime":79.113166,"endTime":79.18705750000001,"instrument":1,"isDrum":true},{"pitch":35,"velocity":80,"startTime":79.211688,"endTime":79.260949,"instrument":1,"isDrum":true},{"pitch":44,"velocity":80,"startTime":79.211688,"endTime":79.260949,"instrument":1,"isDrum":true},{"pitch":51,"velocity":80,"startTime":79.211688,"endTime":79.260949,"instrument":1,"isDrum":true},{"pitch":53,"velocity":80,"startTime":79.211688,"endTime":79.260949,"instrument":1,"isDrum":true},{"pitch":56,"velocity":80,"startTime":79.211688,"endTime":79.260949,"instrument":1,"isDrum":true},{"pitch":51,"velocity":80,"startTime":79.408732,"endTime":79.4826235,"instrument":1,"isDrum":true},{"pitch":35,"velocity":80,"startTime":79.50725399999999,"endTime":79.556515,"instrument":1,"isDrum":true},{"pitch":44,"velocity":80,"startTime":79.50725399999999,"endTime":79.556515,"instrument":1,"isDrum":true},{"pitch":51,"velocity":80,"startTime":79.50725399999999,"endTime":79.556515,"instrument":1,"isDrum":true},{"pitch":53,"velocity":80,"startTime":79.50725399999999,"endTime":79.556515,"instrument":1,"isDrum":true},{"pitch":51,"velocity":80,"startTime":79.70429800000001,"endTime":79.77818950000001,"instrument":1,"isDrum":true},{"pitch":35,"velocity":80,"startTime":79.80282,"endTime":79.852081,"instrument":1,"isDrum":true},{"pitch":44,"velocity":80,"startTime":79.80282,"endTime":79.852081,"instrument":1,"isDrum":true},{"pitch":53,"velocity":80,"startTime":79.80282,"endTime":79.852081,"instrument":1,"isDrum":true},{"pitch":56,"velocity":80,"startTime":79.80282,"endTime":79.852081,"instrument":1,"isDrum":true},{"pitch":51,"velocity":80,"startTime":79.999864,"endTime":80.0737555,"instrument":1,"isDrum":true},{"pitch":35,"velocity":80,"startTime":80.09838599999999,"endTime":80.147647,"instrument":1,"isDrum":true},{"pitch":44,"velocity":80,"startTime":80.09838599999999,"endTime":80.147647,"instrument":1,"isDrum":true},{"pitch":51,"velocity":80,"startTime":80.09838599999999,"endTime":80.147647,"instrument":1,"isDrum":true},{"pitch":53,"velocity":80,"startTime":80.09838599999999,"endTime":80.147647,"instrument":1,"isDrum":true},{"pitch":51,"velocity":80,"startTime":80.29543000000001,"endTime":80.3693215,"instrument":1,"isDrum":true},{"pitch":35,"velocity":80,"startTime":80.393952,"endTime":80.443213,"instrument":1,"isDrum":true},{"pitch":44,"velocity":80,"startTime":80.393952,"endTime":80.443213,"instrument":1,"isDrum":true},{"pitch":51,"velocity":80,"startTime":80.393952,"endTime":80.443213,"instrument":1,"isDrum":true},{"pitch":53,"velocity":80,"startTime":80.393952,"endTime":80.443213,"instrument":1,"isDrum":true},{"pitch":56,"velocity":80,"startTime":80.393952,"endTime":80.443213,"instrument":1,"isDrum":true},{"pitch":51,"velocity":80,"startTime":80.590996,"endTime":80.6648875,"instrument":1,"isDrum":true},{"pitch":35,"velocity":80,"startTime":80.68951799999999,"endTime":80.738779,"instrument":1,"isDrum":true},{"pitch":44,"velocity":80,"startTime":80.68951799999999,"endTime":80.738779,"instrument":1,"isDrum":true},{"pitch":51,"velocity":80,"startTime":80.68951799999999,"endTime":80.738779,"instrument":1,"isDrum":true},{"pitch":53,"velocity":80,"startTime":80.68951799999999,"endTime":80.738779,"instrument":1,"isDrum":true},{"pitch":51,"velocity":80,"startTime":80.886562,"endTime":80.9604535,"instrument":1,"isDrum":true},{"pitch":35,"velocity":80,"startTime":80.985084,"endTime":81.03434499999999,"instrument":1,"isDrum":true},{"pitch":44,"velocity":80,"startTime":80.985084,"endTime":81.03434499999999,"instrument":1,"isDrum":true},{"pitch":51,"velocity":80,"startTime":80.985084,"endTime":81.03434499999999,"instrument":1,"isDrum":true},{"pitch":56,"velocity":80,"startTime":80.985084,"endTime":81.03434499999999,"instrument":1,"isDrum":true},{"pitch":51,"velocity":80,"startTime":81.18212799999999,"endTime":81.2560195,"instrument":1,"isDrum":true},{"pitch":35,"velocity":80,"startTime":81.28065,"endTime":81.329911,"instrument":1,"isDrum":true},{"pitch":44,"velocity":80,"startTime":81.28065,"endTime":81.329911,"instrument":1,"isDrum":true},{"pitch":51,"velocity":80,"startTime":81.28065,"endTime":81.329911,"instrument":1,"isDrum":true},{"pitch":53,"velocity":80,"startTime":81.28065,"endTime":81.329911,"instrument":1,"isDrum":true},{"pitch":51,"velocity":80,"startTime":81.477694,"endTime":81.55158549999999,"instrument":1,"isDrum":true},{"pitch":35,"velocity":80,"startTime":81.57621599999999,"endTime":81.62547699999999,"instrument":1,"isDrum":true},{"pitch":44,"velocity":80,"startTime":81.57621599999999,"endTime":81.62547699999999,"instrument":1,"isDrum":true},{"pitch":51,"velocity":80,"startTime":81.57621599999999,"endTime":81.62547699999999,"instrument":1,"isDrum":true},{"pitch":53,"velocity":80,"startTime":81.57621599999999,"endTime":81.62547699999999,"instrument":1,"isDrum":true},{"pitch":56,"velocity":80,"startTime":81.57621599999999,"endTime":81.62547699999999,"instrument":1,"isDrum":true},{"pitch":51,"velocity":80,"startTime":81.77326,"endTime":81.8471515,"instrument":1,"isDrum":true},{"pitch":35,"velocity":80,"startTime":81.871782,"endTime":81.921043,"instrument":1,"isDrum":true},{"pitch":44,"velocity":80,"startTime":81.871782,"endTime":81.921043,"instrument":1,"isDrum":true},{"pitch":51,"velocity":80,"startTime":81.871782,"endTime":81.921043,"instrument":1,"isDrum":true},{"pitch":53,"velocity":80,"startTime":81.871782,"endTime":81.921043,"instrument":1,"isDrum":true},{"pitch":53,"velocity":80,"startTime":81.871782,"endTime":81.921043,"instrument":1,"isDrum":true},{"pitch":51,"velocity":80,"startTime":82.068826,"endTime":82.14271749999999,"instrument":1,"isDrum":true},{"pitch":35,"velocity":80,"startTime":82.16734799999999,"endTime":82.21660899999999,"instrument":1,"isDrum":true},{"pitch":44,"velocity":80,"startTime":82.16734799999999,"endTime":82.21660899999999,"instrument":1,"isDrum":true},{"pitch":51,"velocity":80,"startTime":82.16734799999999,"endTime":82.21660899999999,"instrument":1,"isDrum":true},{"pitch":53,"velocity":80,"startTime":82.16734799999999,"endTime":82.21660899999999,"instrument":1,"isDrum":true},{"pitch":56,"velocity":80,"startTime":82.16734799999999,"endTime":82.21660899999999,"instrument":1,"isDrum":true},{"pitch":51,"velocity":80,"startTime":82.364392,"endTime":82.4382835,"instrument":1,"isDrum":true},{"pitch":35,"velocity":80,"startTime":82.462914,"endTime":82.512175,"instrument":1,"isDrum":true},{"pitch":44,"velocity":80,"startTime":82.462914,"endTime":82.512175,"instrument":1,"isDrum":true},{"pitch":51,"velocity":80,"startTime":82.462914,"endTime":82.512175,"instrument":1,"isDrum":true},{"pitch":53,"velocity":80,"startTime":82.462914,"endTime":82.512175,"instrument":1,"isDrum":true},{"pitch":51,"velocity":80,"startTime":82.65995799999999,"endTime":82.73384949999999,"instrument":1,"isDrum":true},{"pitch":35,"velocity":80,"startTime":82.75847999999999,"endTime":82.807741,"instrument":1,"isDrum":true},{"pitch":44,"velocity":80,"startTime":82.75847999999999,"endTime":82.807741,"instrument":1,"isDrum":true},{"pitch":51,"velocity":80,"startTime":82.75847999999999,"endTime":82.807741,"instrument":1,"isDrum":true},{"pitch":56,"velocity":80,"startTime":82.75847999999999,"endTime":82.807741,"instrument":1,"isDrum":true},{"pitch":51,"velocity":80,"startTime":82.955524,"endTime":83.0294155,"instrument":1,"isDrum":true},{"pitch":35,"velocity":80,"startTime":83.054046,"endTime":83.103307,"instrument":1,"isDrum":true},{"pitch":44,"velocity":80,"startTime":83.054046,"endTime":83.103307,"instrument":1,"isDrum":true},{"pitch":51,"velocity":80,"startTime":83.054046,"endTime":83.103307,"instrument":1,"isDrum":true},{"pitch":53,"velocity":80,"startTime":83.054046,"endTime":83.103307,"instrument":1,"isDrum":true},{"pitch":51,"velocity":80,"startTime":83.25108999999999,"endTime":83.32498149999999,"instrument":1,"isDrum":true},{"pitch":35,"velocity":80,"startTime":83.349612,"endTime":83.398873,"instrument":1,"isDrum":true},{"pitch":44,"velocity":80,"startTime":83.349612,"endTime":83.398873,"instrument":1,"isDrum":true},{"pitch":51,"velocity":80,"startTime":83.349612,"endTime":83.398873,"instrument":1,"isDrum":true},{"pitch":53,"velocity":80,"startTime":83.349612,"endTime":83.398873,"instrument":1,"isDrum":true},{"pitch":56,"velocity":80,"startTime":83.349612,"endTime":83.398873,"instrument":1,"isDrum":true},{"pitch":51,"velocity":80,"startTime":83.546656,"endTime":83.6205475,"instrument":1,"isDrum":true},{"pitch":31,"velocity":103,"startTime":75.664896,"endTime":75.98509249999998,"instrument":2,"program":32},{"pitch":38,"velocity":103,"startTime":75.96046199999999,"endTime":76.28065849999999,"instrument":2,"program":32},{"pitch":31,"velocity":103,"startTime":76.256028,"endTime":76.551594,"instrument":2,"program":32},{"pitch":33,"velocity":103,"startTime":76.551594,"endTime":76.84715999999999,"instrument":2,"program":32},{"pitch":31,"velocity":103,"startTime":76.84715999999999,"endTime":77.191987,"instrument":2,"program":32},{"pitch":35,"velocity":103,"startTime":77.142726,"endTime":77.43829199999999,"instrument":2,"program":32},{"pitch":38,"velocity":103,"startTime":77.43829199999999,"endTime":77.733858,"instrument":2,"program":32},{"pitch":35,"velocity":103,"startTime":77.733858,"endTime":78.02942399999999,"instrument":2,"program":32},{"pitch":28,"velocity":103,"startTime":78.02942399999999,"endTime":78.32499,"instrument":2,"program":32},{"pitch":40,"velocity":103,"startTime":78.32499,"endTime":78.5959255,"instrument":2,"program":32},{"pitch":35,"velocity":103,"startTime":78.620556,"endTime":78.8914915,"instrument":2,"program":32},{"pitch":38,"velocity":103,"startTime":78.916122,"endTime":79.211688,"instrument":2,"program":32},{"pitch":28,"velocity":103,"startTime":79.211688,"endTime":79.556515,"instrument":2,"program":32},{"pitch":35,"velocity":103,"startTime":79.50725399999999,"endTime":80.09838599999999,"instrument":2,"program":32},{"pitch":35,"velocity":103,"startTime":79.80282,"endTime":79.82745049999998,"instrument":2,"program":32},{"pitch":38,"velocity":103,"startTime":80.09838599999999,"endTime":80.393952,"instrument":2,"program":32},{"pitch":36,"velocity":103,"startTime":80.393952,"endTime":80.68951799999999,"instrument":2,"program":32},{"pitch":38,"velocity":103,"startTime":80.68951799999999,"endTime":80.985084,"instrument":2,"program":32},{"pitch":40,"velocity":103,"startTime":80.985084,"endTime":81.28065,"instrument":2,"program":32},{"pitch":43,"velocity":103,"startTime":81.28065,"endTime":81.57621599999999,"instrument":2,"program":32},{"pitch":38,"velocity":103,"startTime":81.57621599999999,"endTime":81.871782,"instrument":2,"program":32},{"pitch":40,"velocity":103,"startTime":81.871782,"endTime":82.16734799999999,"instrument":2,"program":32},{"pitch":38,"velocity":103,"startTime":82.16734799999999,"endTime":82.462914,"instrument":2,"program":32},{"pitch":38,"velocity":103,"startTime":82.462914,"endTime":82.68458849999999,"instrument":2,"program":32},{"pitch":26,"velocity":103,"startTime":82.68458849999999,"endTime":82.73384949999999,"instrument":2,"program":32},{"pitch":31,"velocity":103,"startTime":82.75847999999999,"endTime":83.103307,"instrument":2,"program":32},{"pitch":35,"velocity":103,"startTime":83.054046,"endTime":83.349612,"instrument":2,"program":32},{"pitch":38,"velocity":103,"startTime":83.349612,"endTime":83.64517799999999,"instrument":2,"program":32},{"pitch":35,"velocity":103,"startTime":83.64517799999999,"endTime":83.940744,"instrument":2,"program":32},{"pitch":31,"velocity":103,"startTime":83.940744,"endTime":84.28557099999999,"instrument":2,"program":32},{"pitch":38,"velocity":103,"startTime":84.23630999999999,"endTime":84.531876,"instrument":2,"program":32},{"pitch":38,"velocity":103,"startTime":84.531876,"endTime":84.82744199999999,"instrument":2,"program":32},{"pitch":38,"velocity":103,"startTime":84.82744199999999,"endTime":85.123008,"instrument":2,"program":32},{"pitch":43,"velocity":57,"startTime":85.34468249999999,"endTime":85.41857399999999},{"pitch":59,"velocity":57,"startTime":85.34468249999999,"endTime":85.39394349999999},{"pitch":62,"velocity":57,"startTime":85.34468249999999,"endTime":85.39394349999999},{"pitch":52,"velocity":57,"startTime":85.4432045,"endTime":85.517096},{"pitch":59,"velocity":57,"startTime":85.4432045,"endTime":85.517096},{"pitch":62,"velocity":57,"startTime":85.4432045,"endTime":85.517096},{"pitch":43,"velocity":57,"startTime":85.93581449999999,"endTime":86.009706},{"pitch":59,"velocity":57,"startTime":85.93581449999999,"endTime":86.0343365},{"pitch":62,"velocity":57,"startTime":85.93581449999999,"endTime":86.0343365},{"pitch":69,"velocity":57,"startTime":85.93581449999999,"endTime":86.0343365},{"pitch":59,"velocity":57,"startTime":86.30527199999999,"endTime":86.37916349999999},{"pitch":43,"velocity":57,"startTime":86.32990249999999,"endTime":86.37916349999999},{"pitch":62,"velocity":57,"startTime":86.32990249999999,"endTime":86.37916349999999},{"pitch":67,"velocity":57,"startTime":86.32990249999999,"endTime":86.40379399999999},{"pitch":48,"velocity":57,"startTime":86.82251249999999,"endTime":87.43827499999999},{"pitch":59,"velocity":57,"startTime":86.82251249999999,"endTime":87.38901399999999},{"pitch":67,"velocity":57,"startTime":86.82251249999999,"endTime":87.38901399999999},{"pitch":62,"velocity":57,"startTime":86.87177349999999,"endTime":87.38901399999999},{"pitch":50,"velocity":57,"startTime":87.7092105,"endTime":87.7584715},{"pitch":40,"velocity":57,"startTime":88.00477649999999,"endTime":88.05403749999999},{"pitch":59,"velocity":57,"startTime":88.00477649999999,"endTime":88.05403749999999},{"pitch":52,"velocity":57,"startTime":88.1032985,"endTime":88.17719},{"pitch":55,"velocity":57,"startTime":88.1032985,"endTime":88.1525595},{"pitch":62,"velocity":57,"startTime":88.1032985,"endTime":88.17719},{"pitch":50,"velocity":57,"startTime":88.5959085,"endTime":88.7436915},{"pitch":59,"velocity":57,"startTime":88.5959085,"endTime":88.7436915},{"pitch":62,"velocity":57,"startTime":88.5959085,"endTime":88.768322},{"pitch":67,"velocity":57,"startTime":88.5959085,"endTime":88.7436915},{"pitch":50,"velocity":57,"startTime":89.1870405,"endTime":89.63038949999999},{"pitch":59,"velocity":57,"startTime":89.1870405,"endTime":89.58112849999999},{"pitch":62,"velocity":57,"startTime":89.1870405,"endTime":89.58112849999999},{"pitch":67,"velocity":57,"startTime":89.1870405,"endTime":89.58112849999999},{"pitch":48,"velocity":57,"startTime":90.07373849999999,"endTime":90.12299949999999},{"pitch":59,"velocity":57,"startTime":90.14762999999999,"endTime":90.2215215},{"pitch":64,"velocity":57,"startTime":90.14762999999999,"endTime":90.2215215},{"pitch":67,"velocity":57,"startTime":90.14762999999999,"endTime":90.246152},{"pitch":59,"velocity":57,"startTime":90.46782649999999,"endTime":90.64023999999999},{"pitch":64,"velocity":57,"startTime":90.46782649999999,"endTime":90.61560949999999},{"pitch":67,"velocity":57,"startTime":90.46782649999999,"endTime":90.61560949999999},{"pitch":71,"velocity":57,"startTime":90.46782649999999,"endTime":90.61560949999999},{"pitch":59,"velocity":57,"startTime":90.9604365,"endTime":91.15748049999999},{"pitch":62,"velocity":57,"startTime":90.9604365,"endTime":91.15748049999999},{"pitch":67,"velocity":57,"startTime":90.9604365,"endTime":91.13284999999999},{"pitch":71,"velocity":57,"startTime":90.9604365,"endTime":91.10821949999999},{"pitch":62,"velocity":57,"startTime":91.329894,"endTime":91.4530465},{"pitch":67,"velocity":57,"startTime":91.329894,"endTime":91.4530465},{"pitch":71,"velocity":57,"startTime":91.329894,"endTime":91.4530465},{"pitch":59,"velocity":57,"startTime":91.8471345,"endTime":91.8963955},{"pitch":62,"velocity":57,"startTime":91.8471345,"endTime":91.8963955},{"pitch":67,"velocity":57,"startTime":91.8471345,"endTime":91.8963955},{"pitch":71,"velocity":57,"startTime":91.8471345,"endTime":91.8963955},{"pitch":43,"velocity":57,"startTime":92.14270049999999,"endTime":92.19196149999999},{"pitch":59,"velocity":57,"startTime":92.24122249999999,"endTime":92.315114},{"pitch":62,"velocity":57,"startTime":92.24122249999999,"endTime":92.3397445},{"pitch":69,"velocity":57,"startTime":92.24122249999999,"endTime":92.315114},{"pitch":43,"velocity":57,"startTime":92.73383249999999,"endTime":92.78309349999999},{"pitch":59,"velocity":57,"startTime":92.807724,"endTime":92.8816155},{"pitch":62,"velocity":57,"startTime":92.807724,"endTime":92.906246},{"pitch":69,"velocity":57,"startTime":92.807724,"endTime":92.906246},{"pitch":43,"velocity":57,"startTime":93.0293985,"endTime":93.0786595},{"pitch":59,"velocity":57,"startTime":93.10328999999999,"endTime":93.17718149999999},{"pitch":62,"velocity":57,"startTime":93.10328999999999,"endTime":93.20181199999999},{"pitch":69,"velocity":57,"startTime":93.10328999999999,"endTime":93.17718149999999},{"pitch":43,"velocity":57,"startTime":93.62053049999999,"endTime":93.66979149999999},{"pitch":57,"velocity":57,"startTime":93.71905249999999,"endTime":93.79294399999999},{"pitch":62,"velocity":57,"startTime":93.71905249999999,"endTime":93.81757449999999},{"pitch":69,"velocity":57,"startTime":93.71905249999999,"endTime":93.79294399999999},{"pitch":43,"velocity":57,"startTime":93.9160965,"endTime":93.9653575},{"pitch":57,"velocity":57,"startTime":94.0146185,"endTime":94.08851},{"pitch":62,"velocity":57,"startTime":94.0146185,"endTime":94.08851},{"pitch":69,"velocity":57,"startTime":94.0146185,"endTime":94.1131405},{"pitch":43,"velocity":57,"startTime":94.21166249999999,"endTime":94.26092349999999},{"pitch":57,"velocity":57,"startTime":94.31018449999999,"endTime":94.384076},{"pitch":62,"velocity":57,"startTime":94.31018449999999,"endTime":94.384076},{"pitch":69,"velocity":57,"startTime":94.31018449999999,"endTime":94.4087065},{"pitch":35,"velocity":80,"startTime":85.123008,"endTime":85.172269,"instrument":1,"isDrum":true},{"pitch":44,"velocity":80,"startTime":85.123008,"endTime":85.172269,"instrument":1,"isDrum":true},{"pitch":51,"velocity":80,"startTime":85.123008,"endTime":85.172269,"instrument":1,"isDrum":true},{"pitch":53,"velocity":80,"startTime":85.123008,"endTime":85.172269,"instrument":1,"isDrum":true},{"pitch":56,"velocity":80,"startTime":85.123008,"endTime":85.172269,"instrument":1,"isDrum":true},{"pitch":53,"velocity":80,"startTime":85.32005199999999,"endTime":85.39394349999999,"instrument":1,"isDrum":true},{"pitch":37,"velocity":80,"startTime":85.41857399999999,"endTime":85.467835,"instrument":1,"isDrum":true},{"pitch":44,"velocity":80,"startTime":85.41857399999999,"endTime":85.467835,"instrument":1,"isDrum":true},{"pitch":51,"velocity":80,"startTime":85.41857399999999,"endTime":85.467835,"instrument":1,"isDrum":true},{"pitch":56,"velocity":80,"startTime":85.41857399999999,"endTime":85.467835,"instrument":1,"isDrum":true},{"pitch":53,"velocity":80,"startTime":85.615618,"endTime":85.6895095,"instrument":1,"isDrum":true},{"pitch":35,"velocity":80,"startTime":85.71414,"endTime":85.76340099999999,"instrument":1,"isDrum":true},{"pitch":44,"velocity":80,"startTime":85.71414,"endTime":85.76340099999999,"instrument":1,"isDrum":true},{"pitch":51,"velocity":80,"startTime":85.71414,"endTime":85.76340099999999,"instrument":1,"isDrum":true},{"pitch":53,"velocity":80,"startTime":85.71414,"endTime":85.76340099999999,"instrument":1,"isDrum":true},{"pitch":51,"velocity":80,"startTime":85.91118399999999,"endTime":85.9850755,"instrument":1,"isDrum":true},{"pitch":37,"velocity":80,"startTime":86.009706,"endTime":86.058967,"instrument":1,"isDrum":true},{"pitch":38,"velocity":80,"startTime":86.009706,"endTime":86.058967,"instrument":1,"isDrum":true},{"pitch":44,"velocity":80,"startTime":86.009706,"endTime":86.058967,"instrument":1,"isDrum":true},{"pitch":51,"velocity":80,"startTime":86.009706,"endTime":86.058967,"instrument":1,"isDrum":true},{"pitch":53,"velocity":80,"startTime":86.009706,"endTime":86.058967,"instrument":1,"isDrum":true},{"pitch":56,"velocity":80,"startTime":86.009706,"endTime":86.058967,"instrument":1,"isDrum":true},{"pitch":35,"velocity":80,"startTime":86.20675,"endTime":86.28064149999999,"instrument":1,"isDrum":true},{"pitch":53,"velocity":80,"startTime":86.20675,"endTime":86.30527199999999,"instrument":1,"isDrum":true},{"pitch":35,"velocity":80,"startTime":86.30527199999999,"endTime":86.32990249999999,"instrument":1,"isDrum":true},{"pitch":44,"velocity":80,"startTime":86.30527199999999,"endTime":86.32990249999999,"instrument":1,"isDrum":true},{"pitch":53,"velocity":80,"startTime":86.30527199999999,"endTime":86.32990249999999,"instrument":1,"isDrum":true},{"pitch":35,"velocity":80,"startTime":86.502316,"endTime":86.5762075,"instrument":1,"isDrum":true},{"pitch":51,"velocity":80,"startTime":86.502316,"endTime":86.5762075,"instrument":1,"isDrum":true},{"pitch":53,"velocity":80,"startTime":86.502316,"endTime":88.42349499999999,"instrument":1,"isDrum":true},{"pitch":38,"velocity":80,"startTime":86.600838,"endTime":86.650099,"instrument":1,"isDrum":true},{"pitch":44,"velocity":80,"startTime":86.600838,"endTime":86.650099,"instrument":1,"isDrum":true},{"pitch":53,"velocity":80,"startTime":86.600838,"endTime":86.650099,"instrument":1,"isDrum":true},{"pitch":56,"velocity":80,"startTime":86.600838,"endTime":86.650099,"instrument":1,"isDrum":true},{"pitch":51,"velocity":80,"startTime":86.79788199999999,"endTime":86.87177349999999,"instrument":1,"isDrum":true},{"pitch":35,"velocity":80,"startTime":86.89640399999999,"endTime":86.94566499999999,"instrument":1,"isDrum":true},{"pitch":44,"velocity":80,"startTime":86.89640399999999,"endTime":86.94566499999999,"instrument":1,"isDrum":true},{"pitch":53,"velocity":80,"startTime":86.89640399999999,"endTime":86.94566499999999,"instrument":1,"isDrum":true},{"pitch":35,"velocity":80,"startTime":87.093448,"endTime":87.1673395,"instrument":1,"isDrum":true},{"pitch":51,"velocity":80,"startTime":87.093448,"endTime":87.1673395,"instrument":1,"isDrum":true},{"pitch":37,"velocity":80,"startTime":87.19197,"endTime":87.241231,"instrument":1,"isDrum":true},{"pitch":38,"velocity":80,"startTime":87.19197,"endTime":87.241231,"instrument":1,"isDrum":true},{"pitch":44,"velocity":80,"startTime":87.19197,"endTime":87.241231,"instrument":1,"isDrum":true},{"pitch":53,"velocity":80,"startTime":87.19197,"endTime":87.241231,"instrument":1,"isDrum":true},{"pitch":54,"velocity":80,"startTime":87.19197,"endTime":87.241231,"instrument":1,"isDrum":true},{"pitch":35,"velocity":80,"startTime":87.38901399999999,"endTime":87.46290549999999,"instrument":1,"isDrum":true},{"pitch":51,"velocity":80,"startTime":87.38901399999999,"endTime":87.46290549999999,"instrument":1,"isDrum":true},{"pitch":35,"velocity":80,"startTime":87.48753599999999,"endTime":87.53679699999999,"instrument":1,"isDrum":true},{"pitch":44,"velocity":80,"startTime":87.48753599999999,"endTime":87.53679699999999,"instrument":1,"isDrum":true},{"pitch":51,"velocity":80,"startTime":87.48753599999999,"endTime":87.53679699999999,"instrument":1,"isDrum":true},{"pitch":53,"velocity":80,"startTime":87.48753599999999,"endTime":87.53679699999999,"instrument":1,"isDrum":true},{"pitch":51,"velocity":80,"startTime":87.68458,"endTime":87.7584715,"instrument":1,"isDrum":true},{"pitch":37,"velocity":80,"startTime":87.783102,"endTime":87.832363,"instrument":1,"isDrum":true},{"pitch":38,"velocity":80,"startTime":87.783102,"endTime":87.832363,"instrument":1,"isDrum":true},{"pitch":44,"velocity":80,"startTime":87.783102,"endTime":87.832363,"instrument":1,"isDrum":true},{"pitch":51,"velocity":80,"startTime":87.783102,"endTime":87.832363,"instrument":1,"isDrum":true},{"pitch":53,"velocity":80,"startTime":87.783102,"endTime":87.832363,"instrument":1,"isDrum":true},{"pitch":56,"velocity":80,"startTime":87.783102,"endTime":87.832363,"instrument":1,"isDrum":true},{"pitch":35,"velocity":80,"startTime":87.98014599999999,"endTime":88.05403749999999,"instrument":1,"isDrum":true},{"pitch":38,"velocity":80,"startTime":87.98014599999999,"endTime":88.05403749999999,"instrument":1,"isDrum":true},{"pitch":51,"velocity":80,"startTime":87.98014599999999,"endTime":88.05403749999999,"instrument":1,"isDrum":true},{"pitch":35,"velocity":80,"startTime":88.078668,"endTime":88.127929,"instrument":1,"isDrum":true},{"pitch":44,"velocity":80,"startTime":88.078668,"endTime":88.127929,"instrument":1,"isDrum":true},{"pitch":53,"velocity":80,"startTime":88.078668,"endTime":88.127929,"instrument":1,"isDrum":true},{"pitch":35,"velocity":80,"startTime":88.275712,"endTime":88.3496035,"instrument":1,"isDrum":true},{"pitch":51,"velocity":80,"startTime":88.275712,"endTime":88.3496035,"instrument":1,"isDrum":true},{"pitch":37,"velocity":80,"startTime":88.37423399999999,"endTime":88.42349499999999,"instrument":1,"isDrum":true},{"pitch":38,"velocity":80,"startTime":88.37423399999999,"endTime":88.42349499999999,"instrument":1,"isDrum":true},{"pitch":44,"velocity":80,"startTime":88.37423399999999,"endTime":88.42349499999999,"instrument":1,"isDrum":true},{"pitch":53,"velocity":80,"startTime":88.37423399999999,"endTime":88.42349499999999,"instrument":1,"isDrum":true},{"pitch":56,"velocity":80,"startTime":88.37423399999999,"endTime":88.42349499999999,"instrument":1,"isDrum":true},{"pitch":51,"velocity":80,"startTime":88.57127799999999,"endTime":88.6451695,"instrument":1,"isDrum":true},{"pitch":35,"velocity":80,"startTime":88.6698,"endTime":88.719061,"instrument":1,"isDrum":true},{"pitch":44,"velocity":80,"startTime":88.6698,"endTime":88.719061,"instrument":1,"isDrum":true},{"pitch":53,"velocity":80,"startTime":88.6698,"endTime":88.719061,"instrument":1,"isDrum":true},{"pitch":51,"velocity":80,"startTime":88.866844,"endTime":88.94073549999999,"instrument":1,"isDrum":true},{"pitch":37,"velocity":80,"startTime":88.96536599999999,"endTime":89.01462699999999,"instrument":1,"isDrum":true},{"pitch":38,"velocity":80,"startTime":88.96536599999999,"endTime":89.01462699999999,"instrument":1,"isDrum":true},{"pitch":44,"velocity":80,"startTime":88.96536599999999,"endTime":89.01462699999999,"instrument":1,"isDrum":true},{"pitch":51,"velocity":80,"startTime":88.96536599999999,"endTime":89.01462699999999,"instrument":1,"isDrum":true},{"pitch":53,"velocity":80,"startTime":88.96536599999999,"endTime":89.01462699999999,"instrument":1,"isDrum":true},{"pitch":51,"velocity":80,"startTime":89.16241,"endTime":89.2363015,"instrument":1,"isDrum":true},{"pitch":35,"velocity":80,"startTime":89.260932,"endTime":89.310193,"instrument":1,"isDrum":true},{"pitch":44,"velocity":80,"startTime":89.260932,"endTime":89.310193,"instrument":1,"isDrum":true},{"pitch":51,"velocity":80,"startTime":89.260932,"endTime":89.310193,"instrument":1,"isDrum":true},{"pitch":53,"velocity":80,"startTime":89.260932,"endTime":89.310193,"instrument":1,"isDrum":true},{"pitch":51,"velocity":80,"startTime":89.45797599999999,"endTime":89.53186749999999,"instrument":1,"isDrum":true},{"pitch":37,"velocity":80,"startTime":89.55649799999999,"endTime":89.60575899999999,"instrument":1,"isDrum":true},{"pitch":38,"velocity":80,"startTime":89.55649799999999,"endTime":89.60575899999999,"instrument":1,"isDrum":true},{"pitch":44,"velocity":80,"startTime":89.55649799999999,"endTime":89.60575899999999,"instrument":1,"isDrum":true},{"pitch":51,"velocity":80,"startTime":89.55649799999999,"endTime":89.60575899999999,"instrument":1,"isDrum":true},{"pitch":53,"velocity":80,"startTime":89.55649799999999,"endTime":89.60575899999999,"instrument":1,"isDrum":true},{"pitch":35,"velocity":80,"startTime":89.753542,"endTime":89.8274335,"instrument":1,"isDrum":true},{"pitch":51,"velocity":80,"startTime":89.753542,"endTime":89.8274335,"instrument":1,"isDrum":true},{"pitch":35,"velocity":80,"startTime":89.852064,"endTime":89.901325,"instrument":1,"isDrum":true},{"pitch":44,"velocity":80,"startTime":89.852064,"endTime":89.901325,"instrument":1,"isDrum":true},{"pitch":51,"velocity":80,"startTime":89.852064,"endTime":89.901325,"instrument":1,"isDrum":true},{"pitch":53,"velocity":80,"startTime":89.852064,"endTime":89.901325,"instrument":1,"isDrum":true},{"pitch":51,"velocity":80,"startTime":90.04910799999999,"endTime":90.12299949999999,"instrument":1,"isDrum":true},{"pitch":37,"velocity":80,"startTime":90.14762999999999,"endTime":90.196891,"instrument":1,"isDrum":true},{"pitch":38,"velocity":80,"startTime":90.14762999999999,"endTime":90.196891,"instrument":1,"isDrum":true},{"pitch":44,"velocity":80,"startTime":90.14762999999999,"endTime":90.196891,"instrument":1,"isDrum":true},{"pitch":51,"velocity":80,"startTime":90.14762999999999,"endTime":90.196891,"instrument":1,"isDrum":true},{"pitch":53,"velocity":80,"startTime":90.14762999999999,"endTime":90.196891,"instrument":1,"isDrum":true},{"pitch":51,"velocity":80,"startTime":90.344674,"endTime":90.4185655,"instrument":1,"isDrum":true},{"pitch":35,"velocity":80,"startTime":90.443196,"endTime":90.46782649999999,"instrument":1,"isDrum":true},{"pitch":44,"velocity":80,"startTime":90.443196,"endTime":90.46782649999999,"instrument":1,"isDrum":true},{"pitch":51,"velocity":80,"startTime":90.443196,"endTime":90.46782649999999,"instrument":1,"isDrum":true},{"pitch":53,"velocity":80,"startTime":90.443196,"endTime":90.46782649999999,"instrument":1,"isDrum":true},{"pitch":35,"velocity":80,"startTime":90.64023999999999,"endTime":90.7141315,"instrument":1,"isDrum":true},{"pitch":51,"velocity":80,"startTime":90.64023999999999,"endTime":90.7141315,"instrument":1,"isDrum":true},{"pitch":37,"velocity":80,"startTime":90.738762,"endTime":90.788023,"instrument":1,"isDrum":true},{"pitch":44,"velocity":80,"startTime":90.738762,"endTime":90.788023,"instrument":1,"isDrum":true},{"pitch":53,"velocity":80,"startTime":90.738762,"endTime":90.788023,"instrument":1,"isDrum":true},{"pitch":56,"velocity":80,"startTime":90.738762,"endTime":90.788023,"instrument":1,"isDrum":true},{"pitch":51,"velocity":80,"startTime":90.935806,"endTime":91.00969749999999,"instrument":1,"isDrum":true},{"pitch":35,"velocity":80,"startTime":91.03432799999999,"endTime":91.08358899999999,"instrument":1,"isDrum":true},{"pitch":44,"velocity":80,"startTime":91.03432799999999,"endTime":91.08358899999999,"instrument":1,"isDrum":true},{"pitch":51,"velocity":80,"startTime":91.03432799999999,"endTime":91.08358899999999,"instrument":1,"isDrum":true},{"pitch":53,"velocity":80,"startTime":91.03432799999999,"endTime":91.08358899999999,"instrument":1,"isDrum":true},{"pitch":51,"velocity":80,"startTime":91.231372,"endTime":91.3052635,"instrument":1,"isDrum":true},{"pitch":37,"velocity":80,"startTime":91.329894,"endTime":91.379155,"instrument":1,"isDrum":true},{"pitch":38,"velocity":80,"startTime":91.329894,"endTime":91.379155,"instrument":1,"isDrum":true},{"pitch":44,"velocity":80,"startTime":91.329894,"endTime":91.379155,"instrument":1,"isDrum":true},{"pitch":51,"velocity":80,"startTime":91.329894,"endTime":91.379155,"instrument":1,"isDrum":true},{"pitch":53,"velocity":80,"startTime":91.329894,"endTime":91.379155,"instrument":1,"isDrum":true},{"pitch":51,"velocity":80,"startTime":91.52693799999999,"endTime":91.60082949999999,"instrument":1,"isDrum":true},{"pitch":35,"velocity":80,"startTime":91.62545999999999,"endTime":91.67472099999999,"instrument":1,"isDrum":true},{"pitch":44,"velocity":80,"startTime":91.62545999999999,"endTime":91.67472099999999,"instrument":1,"isDrum":true},{"pitch":51,"velocity":80,"startTime":91.62545999999999,"endTime":91.67472099999999,"instrument":1,"isDrum":true},{"pitch":53,"velocity":80,"startTime":91.62545999999999,"endTime":91.67472099999999,"instrument":1,"isDrum":true},{"pitch":51,"velocity":80,"startTime":91.822504,"endTime":91.8963955,"instrument":1,"isDrum":true},{"pitch":37,"velocity":80,"startTime":91.921026,"endTime":91.970287,"instrument":1,"isDrum":true},{"pitch":38,"velocity":80,"startTime":91.921026,"endTime":91.970287,"instrument":1,"isDrum":true},{"pitch":44,"velocity":80,"startTime":91.921026,"endTime":91.970287,"instrument":1,"isDrum":true},{"pitch":51,"velocity":80,"startTime":91.921026,"endTime":91.970287,"instrument":1,"isDrum":true},{"pitch":53,"velocity":80,"startTime":91.921026,"endTime":91.970287,"instrument":1,"isDrum":true},{"pitch":51,"velocity":80,"startTime":92.11806999999999,"endTime":92.19196149999999,"instrument":1,"isDrum":true},{"pitch":35,"velocity":80,"startTime":92.21659199999999,"endTime":92.26585299999999,"instrument":1,"isDrum":true},{"pitch":44,"velocity":80,"startTime":92.21659199999999,"endTime":92.26585299999999,"instrument":1,"isDrum":true},{"pitch":51,"velocity":80,"startTime":92.21659199999999,"endTime":92.26585299999999,"instrument":1,"isDrum":true},{"pitch":53,"velocity":80,"startTime":92.21659199999999,"endTime":92.26585299999999,"instrument":1,"isDrum":true},{"pitch":51,"velocity":80,"startTime":92.413636,"endTime":92.4875275,"instrument":1,"isDrum":true},{"pitch":37,"velocity":80,"startTime":92.512158,"endTime":92.56141899999999,"instrument":1,"isDrum":true},{"pitch":38,"velocity":80,"startTime":92.512158,"endTime":92.56141899999999,"instrument":1,"isDrum":true},{"pitch":44,"velocity":80,"startTime":92.512158,"endTime":92.56141899999999,"instrument":1,"isDrum":true},{"pitch":51,"velocity":80,"startTime":92.512158,"endTime":92.56141899999999,"instrument":1,"isDrum":true},{"pitch":53,"velocity":80,"startTime":92.512158,"endTime":92.56141899999999,"instrument":1,"isDrum":true},{"pitch":35,"velocity":80,"startTime":92.70920199999999,"endTime":92.78309349999999,"instrument":1,"isDrum":true},{"pitch":51,"velocity":80,"startTime":92.70920199999999,"endTime":92.78309349999999,"instrument":1,"isDrum":true},{"pitch":44,"velocity":80,"startTime":92.807724,"endTime":92.856985,"instrument":1,"isDrum":true},{"pitch":51,"velocity":80,"startTime":92.807724,"endTime":92.856985,"instrument":1,"isDrum":true},{"pitch":53,"velocity":80,"startTime":92.807724,"endTime":92.856985,"instrument":1,"isDrum":true},{"pitch":35,"velocity":80,"startTime":93.004768,"endTime":93.0786595,"instrument":1,"isDrum":true},{"pitch":51,"velocity":80,"startTime":93.004768,"endTime":93.0786595,"instrument":1,"isDrum":true},{"pitch":37,"velocity":80,"startTime":93.10328999999999,"endTime":93.15255099999999,"instrument":1,"isDrum":true},{"pitch":38,"velocity":80,"startTime":93.10328999999999,"endTime":93.15255099999999,"instrument":1,"isDrum":true},{"pitch":44,"velocity":80,"startTime":93.10328999999999,"endTime":93.15255099999999,"instrument":1,"isDrum":true},{"pitch":53,"velocity":80,"startTime":93.10328999999999,"endTime":93.15255099999999,"instrument":1,"isDrum":true},{"pitch":35,"velocity":80,"startTime":93.30033399999999,"endTime":93.3742255,"instrument":1,"isDrum":true},{"pitch":51,"velocity":80,"startTime":93.30033399999999,"endTime":93.3742255,"instrument":1,"isDrum":true},{"pitch":31,"velocity":103,"startTime":85.123008,"endTime":85.467835,"instrument":2,"program":32},{"pitch":38,"velocity":103,"startTime":85.41857399999999,"endTime":85.7387705,"instrument":2,"program":32},{"pitch":35,"velocity":103,"startTime":85.71414,"endTime":86.009706,"instrument":2,"program":32},{"pitch":38,"velocity":103,"startTime":86.009706,"endTime":86.30527199999999,"instrument":2,"program":32},{"pitch":31,"velocity":103,"startTime":86.30527199999999,"endTime":86.650099,"instrument":2,"program":32},{"pitch":38,"velocity":103,"startTime":86.600838,"endTime":86.92103449999999,"instrument":2,"program":32},{"pitch":31,"velocity":103,"startTime":86.89640399999999,"endTime":87.48753599999999,"instrument":2,"program":32},{"pitch":31,"velocity":103,"startTime":87.19197,"endTime":87.2166005,"instrument":2,"program":32},{"pitch":28,"velocity":103,"startTime":87.48753599999999,"endTime":87.733841,"instrument":2,"program":32},{"pitch":28,"velocity":103,"startTime":87.783102,"endTime":88.078668,"instrument":2,"program":32},{"pitch":28,"velocity":103,"startTime":88.078668,"endTime":88.275712,"instrument":2,"program":32},{"pitch":28,"velocity":103,"startTime":88.3003425,"endTime":88.37423399999999,"instrument":2,"program":32},{"pitch":33,"velocity":103,"startTime":88.37423399999999,"endTime":88.6698,"instrument":2,"program":32},{"pitch":28,"velocity":103,"startTime":88.6698,"endTime":88.96536599999999,"instrument":2,"program":32},{"pitch":28,"velocity":103,"startTime":88.96536599999999,"endTime":89.260932,"instrument":2,"program":32},{"pitch":28,"velocity":103,"startTime":89.260932,"endTime":89.45797599999999,"instrument":2,"program":32},{"pitch":28,"velocity":103,"startTime":89.48260649999999,"endTime":89.55649799999999,"instrument":2,"program":32},{"pitch":35,"velocity":103,"startTime":89.55649799999999,"endTime":89.852064,"instrument":2,"program":32},{"pitch":36,"velocity":103,"startTime":89.852064,"endTime":90.196891,"instrument":2,"program":32},{"pitch":31,"velocity":103,"startTime":90.14762999999999,"endTime":90.738762,"instrument":2,"program":32},{"pitch":31,"velocity":103,"startTime":90.443196,"endTime":90.46782649999999,"instrument":2,"program":32},{"pitch":36,"velocity":103,"startTime":90.738762,"endTime":91.03432799999999,"instrument":2,"program":32},{"pitch":38,"velocity":103,"startTime":91.03432799999999,"endTime":91.329894,"instrument":2,"program":32},{"pitch":38,"velocity":103,"startTime":91.329894,"endTime":91.62545999999999,"instrument":2,"program":32},{"pitch":38,"velocity":103,"startTime":91.62545999999999,"endTime":91.921026,"instrument":2,"program":32},{"pitch":38,"velocity":103,"startTime":91.921026,"endTime":92.21659199999999,"instrument":2,"program":32},{"pitch":43,"velocity":103,"startTime":92.21659199999999,"endTime":92.4875275,"instrument":2,"program":32},{"pitch":31,"velocity":103,"startTime":92.4382665,"endTime":92.512158,"instrument":2,"program":32},{"pitch":43,"velocity":103,"startTime":92.512158,"endTime":92.807724,"instrument":2,"program":32},{"pitch":43,"velocity":103,"startTime":92.807724,"endTime":93.10328999999999,"instrument":2,"program":32},{"pitch":38,"velocity":103,"startTime":93.10328999999999,"endTime":93.398856,"instrument":2,"program":32},{"pitch":31,"velocity":103,"startTime":93.398856,"endTime":93.74368299999999,"instrument":2,"program":32},{"pitch":38,"velocity":103,"startTime":93.69442199999999,"endTime":93.989988,"instrument":2,"program":32},{"pitch":31,"velocity":103,"startTime":93.989988,"endTime":94.28555399999999,"instrument":2,"program":32},{"pitch":31,"velocity":103,"startTime":94.28555399999999,"endTime":94.482598,"instrument":2,"program":32},{"pitch":31,"velocity":103,"startTime":94.5072285,"endTime":94.58112,"instrument":2,"program":32},{"pitch":43,"velocity":57,"startTime":94.6057505,"endTime":94.67964199999999},{"pitch":59,"velocity":57,"startTime":94.6057505,"endTime":94.67964199999999},{"pitch":62,"velocity":57,"startTime":94.6057505,"endTime":94.70427249999999},{"pitch":66,"velocity":57,"startTime":94.6057505,"endTime":94.67964199999999},{"pitch":43,"velocity":57,"startTime":95.39392649999999,"endTime":95.467818},{"pitch":55,"velocity":57,"startTime":95.39392649999999,"endTime":95.467818},{"pitch":59,"velocity":57,"startTime":95.39392649999999,"endTime":95.467818},{"pitch":62,"velocity":57,"startTime":95.39392649999999,"endTime":95.4431875},{"pitch":66,"velocity":57,"startTime":95.39392649999999,"endTime":95.467818},{"pitch":43,"velocity":57,"startTime":95.6894925,"endTime":96.92101749999999},{"pitch":59,"velocity":57,"startTime":95.6894925,"endTime":96.92101749999999},{"pitch":62,"velocity":57,"startTime":95.6894925,"endTime":96.92101749999999},{"pitch":65,"velocity":57,"startTime":95.6894925,"endTime":96.92101749999999},{"pitch":40,"velocity":57,"startTime":96.94564799999999,"endTime":97.0195395},{"pitch":56,"velocity":57,"startTime":96.94564799999999,"endTime":97.0195395},{"pitch":59,"velocity":57,"startTime":96.94564799999999,"endTime":97.04417},{"pitch":52,"velocity":57,"startTime":96.97027849999999,"endTime":97.0195395},{"pitch":62,"velocity":57,"startTime":96.97027849999999,"endTime":97.0195395},{"pitch":40,"velocity":57,"startTime":97.7584545,"endTime":97.783085},{"pitch":59,"velocity":57,"startTime":97.83234599999999,"endTime":97.93086799999999},{"pitch":62,"velocity":57,"startTime":97.83234599999999,"endTime":97.93086799999999},{"pitch":40,"velocity":57,"startTime":98.34958649999999,"endTime":98.42347799999999},{"pitch":59,"velocity":57,"startTime":98.34958649999999,"endTime":98.42347799999999},{"pitch":67,"velocity":57,"startTime":98.34958649999999,"endTime":98.42347799999999},{"pitch":52,"velocity":57,"startTime":98.37421699999999,"endTime":98.42347799999999},{"pitch":54,"velocity":57,"startTime":98.94071849999999,"endTime":98.98997949999999},{"pitch":59,"velocity":57,"startTime":98.94071849999999,"endTime":98.98997949999999},{"pitch":64,"velocity":57,"startTime":98.94071849999999,"endTime":98.98997949999999},{"pitch":36,"velocity":57,"startTime":99.2362845,"endTime":99.43332849999999},{"pitch":59,"velocity":57,"startTime":99.2362845,"endTime":99.43332849999999},{"pitch":60,"velocity":57,"startTime":99.2362845,"endTime":99.40869799999999},{"pitch":64,"velocity":57,"startTime":99.2362845,"endTime":99.40869799999999},{"pitch":38,"velocity":57,"startTime":100.4185485,"endTime":100.7633755},{"pitch":57,"velocity":57,"startTime":100.7141145,"endTime":100.788006},{"pitch":60,"velocity":57,"startTime":100.7141145,"endTime":100.7633755},{"pitch":64,"velocity":57,"startTime":100.7141145,"endTime":100.7633755},{"pitch":57,"velocity":57,"startTime":101.60081249999999,"endTime":101.7485955},{"pitch":64,"velocity":57,"startTime":101.60081249999999,"endTime":101.7485955},{"pitch":67,"velocity":57,"startTime":101.60081249999999,"endTime":101.7485955},{"pitch":74,"velocity":57,"startTime":101.60081249999999,"endTime":101.7485955},{"pitch":43,"velocity":57,"startTime":102.19194449999999,"endTime":102.265836},{"pitch":57,"velocity":57,"startTime":102.19194449999999,"endTime":102.265836},{"pitch":59,"velocity":57,"startTime":102.19194449999999,"endTime":102.265836},{"pitch":64,"velocity":57,"startTime":102.19194449999999,"endTime":102.265836},{"pitch":67,"velocity":57,"startTime":102.19194449999999,"endTime":102.265836},{"pitch":43,"velocity":57,"startTime":102.78307649999999,"endTime":102.8815985},{"pitch":64,"velocity":57,"startTime":102.78307649999999,"endTime":102.8815985},{"pitch":65,"velocity":57,"startTime":102.78307649999999,"endTime":102.906229},{"pitch":69,"velocity":57,"startTime":102.78307649999999,"endTime":102.8815985},{"pitch":57,"velocity":57,"startTime":103.3742085,"endTime":103.4481},{"pitch":64,"velocity":57,"startTime":103.3742085,"endTime":103.4481},{"pitch":71,"velocity":57,"startTime":103.3742085,"endTime":103.4481},{"pitch":43,"velocity":57,"startTime":103.398839,"endTime":103.4481},{"pitch":35,"velocity":80,"startTime":94.58112,"endTime":94.630381,"instrument":1,"isDrum":true},{"pitch":51,"velocity":80,"startTime":94.58112,"endTime":94.630381,"instrument":1,"isDrum":true},{"pitch":59,"velocity":80,"startTime":94.77816399999999,"endTime":94.85205549999999,"instrument":1,"isDrum":true},{"pitch":35,"velocity":80,"startTime":94.87668599999999,"endTime":94.925947,"instrument":1,"isDrum":true},{"pitch":44,"velocity":80,"startTime":94.87668599999999,"endTime":94.925947,"instrument":1,"isDrum":true},{"pitch":51,"velocity":80,"startTime":94.87668599999999,"endTime":94.925947,"instrument":1,"isDrum":true},{"pitch":56,"velocity":80,"startTime":94.87668599999999,"endTime":94.925947,"instrument":1,"isDrum":true},{"pitch":59,"velocity":80,"startTime":94.87668599999999,"endTime":94.925947,"instrument":1,"isDrum":true},{"pitch":59,"velocity":80,"startTime":95.07373,"endTime":95.1476215,"instrument":1,"isDrum":true},{"pitch":35,"velocity":80,"startTime":95.172252,"endTime":95.22151299999999,"instrument":1,"isDrum":true},{"pitch":59,"velocity":80,"startTime":95.172252,"endTime":95.22151299999999,"instrument":1,"isDrum":true},{"pitch":35,"velocity":80,"startTime":95.467818,"endTime":95.517079,"instrument":1,"isDrum":true},{"pitch":44,"velocity":80,"startTime":95.467818,"endTime":95.517079,"instrument":1,"isDrum":true},{"pitch":51,"velocity":80,"startTime":95.467818,"endTime":95.517079,"instrument":1,"isDrum":true},{"pitch":53,"velocity":80,"startTime":95.467818,"endTime":95.517079,"instrument":1,"isDrum":true},{"pitch":56,"velocity":80,"startTime":95.467818,"endTime":95.517079,"instrument":1,"isDrum":true},{"pitch":59,"velocity":80,"startTime":95.467818,"endTime":95.517079,"instrument":1,"isDrum":true},{"pitch":51,"velocity":80,"startTime":95.664862,"endTime":95.73875349999999,"instrument":1,"isDrum":true},{"pitch":35,"velocity":80,"startTime":95.76338399999999,"endTime":95.81264499999999,"instrument":1,"isDrum":true},{"pitch":51,"velocity":80,"startTime":95.76338399999999,"endTime":95.81264499999999,"instrument":1,"isDrum":true},{"pitch":35,"velocity":80,"startTime":96.05895,"endTime":96.108211,"instrument":1,"isDrum":true},{"pitch":44,"velocity":80,"startTime":96.05895,"endTime":96.108211,"instrument":1,"isDrum":true},{"pitch":51,"velocity":80,"startTime":96.05895,"endTime":96.108211,"instrument":1,"isDrum":true},{"pitch":53,"velocity":80,"startTime":96.05895,"endTime":96.108211,"instrument":1,"isDrum":true},{"pitch":56,"velocity":80,"startTime":96.05895,"endTime":96.108211,"instrument":1,"isDrum":true},{"pitch":59,"velocity":80,"startTime":96.05895,"endTime":96.108211,"instrument":1,"isDrum":true},{"pitch":51,"velocity":80,"startTime":96.25599399999999,"endTime":96.32988549999999,"instrument":1,"isDrum":true},{"pitch":35,"velocity":80,"startTime":96.35451599999999,"endTime":96.40377699999999,"instrument":1,"isDrum":true},{"pitch":51,"velocity":80,"startTime":96.35451599999999,"endTime":96.40377699999999,"instrument":1,"isDrum":true},{"pitch":35,"velocity":80,"startTime":96.650082,"endTime":96.699343,"instrument":1,"isDrum":true},{"pitch":44,"velocity":80,"startTime":96.650082,"endTime":96.699343,"instrument":1,"isDrum":true},{"pitch":51,"velocity":80,"startTime":96.650082,"endTime":96.699343,"instrument":1,"isDrum":true},{"pitch":56,"velocity":80,"startTime":96.650082,"endTime":96.699343,"instrument":1,"isDrum":true},{"pitch":59,"velocity":80,"startTime":96.650082,"endTime":96.699343,"instrument":1,"isDrum":true},{"pitch":51,"velocity":80,"startTime":96.84712599999999,"endTime":96.92101749999999,"instrument":1,"isDrum":true},{"pitch":35,"velocity":80,"startTime":96.94564799999999,"endTime":96.99490899999999,"instrument":1,"isDrum":true},{"pitch":51,"velocity":80,"startTime":96.94564799999999,"endTime":96.99490899999999,"instrument":1,"isDrum":true},{"pitch":35,"velocity":80,"startTime":97.241214,"endTime":97.29047499999999,"instrument":1,"isDrum":true},{"pitch":44,"velocity":80,"startTime":97.241214,"endTime":97.29047499999999,"instrument":1,"isDrum":true},{"pitch":51,"velocity":80,"startTime":97.241214,"endTime":97.29047499999999,"instrument":1,"isDrum":true},{"pitch":56,"velocity":80,"startTime":97.241214,"endTime":97.29047499999999,"instrument":1,"isDrum":true},{"pitch":59,"velocity":80,"startTime":97.241214,"endTime":97.29047499999999,"instrument":1,"isDrum":true},{"pitch":51,"velocity":80,"startTime":97.43825799999999,"endTime":97.51214949999999,"instrument":1,"isDrum":true},{"pitch":35,"velocity":80,"startTime":97.53678,"endTime":97.586041,"instrument":1,"isDrum":true},{"pitch":51,"velocity":80,"startTime":97.53678,"endTime":97.586041,"instrument":1,"isDrum":true},{"pitch":35,"velocity":80,"startTime":97.83234599999999,"endTime":97.88160699999999,"instrument":1,"isDrum":true},{"pitch":44,"velocity":80,"startTime":97.83234599999999,"endTime":97.88160699999999,"instrument":1,"isDrum":true},{"pitch":51,"velocity":80,"startTime":97.83234599999999,"endTime":97.88160699999999,"instrument":1,"isDrum":true},{"pitch":56,"velocity":80,"startTime":97.83234599999999,"endTime":97.88160699999999,"instrument":1,"isDrum":true},{"pitch":59,"velocity":80,"startTime":97.83234599999999,"endTime":97.88160699999999,"instrument":1,"isDrum":true},{"pitch":51,"velocity":80,"startTime":98.02938999999999,"endTime":98.1032815,"instrument":1,"isDrum":true},{"pitch":35,"velocity":80,"startTime":98.127912,"endTime":98.177173,"instrument":1,"isDrum":true},{"pitch":51,"velocity":80,"startTime":98.127912,"endTime":98.177173,"instrument":1,"isDrum":true},{"pitch":35,"velocity":80,"startTime":98.42347799999999,"endTime":98.47273899999999,"instrument":1,"isDrum":true},{"pitch":44,"velocity":80,"startTime":98.42347799999999,"endTime":98.47273899999999,"instrument":1,"isDrum":true},{"pitch":51,"velocity":80,"startTime":98.42347799999999,"endTime":98.47273899999999,"instrument":1,"isDrum":true},{"pitch":56,"velocity":80,"startTime":98.42347799999999,"endTime":98.47273899999999,"instrument":1,"isDrum":true},{"pitch":59,"velocity":80,"startTime":98.42347799999999,"endTime":98.47273899999999,"instrument":1,"isDrum":true},{"pitch":51,"velocity":80,"startTime":98.620522,"endTime":98.6944135,"instrument":1,"isDrum":true},{"pitch":35,"velocity":80,"startTime":98.719044,"endTime":98.768305,"instrument":1,"isDrum":true},{"pitch":51,"velocity":80,"startTime":98.719044,"endTime":98.768305,"instrument":1,"isDrum":true},{"pitch":59,"velocity":80,"startTime":98.719044,"endTime":98.768305,"instrument":1,"isDrum":true},{"pitch":35,"velocity":80,"startTime":99.01460999999999,"endTime":99.06387099999999,"instrument":1,"isDrum":true},{"pitch":44,"velocity":80,"startTime":99.01460999999999,"endTime":99.06387099999999,"instrument":1,"isDrum":true},{"pitch":51,"velocity":80,"startTime":99.01460999999999,"endTime":99.06387099999999,"instrument":1,"isDrum":true},{"pitch":56,"velocity":80,"startTime":99.01460999999999,"endTime":99.06387099999999,"instrument":1,"isDrum":true},{"pitch":59,"velocity":80,"startTime":99.01460999999999,"endTime":99.06387099999999,"instrument":1,"isDrum":true},{"pitch":51,"velocity":80,"startTime":99.211654,"endTime":99.2855455,"instrument":1,"isDrum":true},{"pitch":35,"velocity":80,"startTime":99.310176,"endTime":99.359437,"instrument":1,"isDrum":true},{"pitch":51,"velocity":80,"startTime":99.310176,"endTime":99.359437,"instrument":1,"isDrum":true},{"pitch":59,"velocity":80,"startTime":99.310176,"endTime":99.359437,"instrument":1,"isDrum":true},{"pitch":35,"velocity":80,"startTime":99.60574199999999,"endTime":99.655003,"instrument":1,"isDrum":true},{"pitch":44,"velocity":80,"startTime":99.60574199999999,"endTime":99.655003,"instrument":1,"isDrum":true},{"pitch":51,"velocity":80,"startTime":99.60574199999999,"endTime":99.655003,"instrument":1,"isDrum":true},{"pitch":56,"velocity":80,"startTime":99.60574199999999,"endTime":99.655003,"instrument":1,"isDrum":true},{"pitch":59,"velocity":80,"startTime":99.60574199999999,"endTime":99.655003,"instrument":1,"isDrum":true},{"pitch":51,"velocity":80,"startTime":99.802786,"endTime":99.8766775,"instrument":1,"isDrum":true},{"pitch":35,"velocity":80,"startTime":100.09835199999999,"endTime":100.1722435,"instrument":1,"isDrum":true},{"pitch":44,"velocity":80,"startTime":100.196874,"endTime":100.246135,"instrument":1,"isDrum":true},{"pitch":51,"velocity":80,"startTime":100.196874,"endTime":100.246135,"instrument":1,"isDrum":true},{"pitch":59,"velocity":80,"startTime":100.196874,"endTime":100.246135,"instrument":1,"isDrum":true},{"pitch":62,"velocity":80,"startTime":100.196874,"endTime":100.246135,"instrument":1,"isDrum":true},{"pitch":59,"velocity":80,"startTime":100.295396,"endTime":100.3200265,"instrument":1,"isDrum":true},{"pitch":35,"velocity":80,"startTime":100.393918,"endTime":100.4185485,"instrument":1,"isDrum":true},{"pitch":39,"velocity":80,"startTime":100.393918,"endTime":100.4185485,"instrument":1,"isDrum":true},{"pitch":51,"velocity":80,"startTime":100.393918,"endTime":100.4185485,"instrument":1,"isDrum":true},{"pitch":59,"velocity":80,"startTime":100.393918,"endTime":100.4185485,"instrument":1,"isDrum":true},{"pitch":35,"velocity":80,"startTime":100.49243999999999,"endTime":100.54170099999999,"instrument":1,"isDrum":true},{"pitch":51,"velocity":80,"startTime":100.49243999999999,"endTime":100.54170099999999,"instrument":1,"isDrum":true},{"pitch":35,"velocity":80,"startTime":100.788006,"endTime":100.837267,"instrument":1,"isDrum":true},{"pitch":44,"velocity":80,"startTime":100.788006,"endTime":100.837267,"instrument":1,"isDrum":true},{"pitch":51,"velocity":80,"startTime":100.788006,"endTime":100.837267,"instrument":1,"isDrum":true},{"pitch":56,"velocity":80,"startTime":100.788006,"endTime":100.837267,"instrument":1,"isDrum":true},{"pitch":59,"velocity":80,"startTime":100.788006,"endTime":100.837267,"instrument":1,"isDrum":true},{"pitch":51,"velocity":80,"startTime":100.98504999999999,"endTime":101.05894149999999,"instrument":1,"isDrum":true},{"pitch":51,"velocity":80,"startTime":101.08357199999999,"endTime":101.13283299999999,"instrument":1,"isDrum":true},{"pitch":59,"velocity":80,"startTime":101.08357199999999,"endTime":101.13283299999999,"instrument":1,"isDrum":true},{"pitch":35,"velocity":80,"startTime":101.379138,"endTime":101.428399,"instrument":1,"isDrum":true},{"pitch":44,"velocity":80,"startTime":101.379138,"endTime":101.428399,"instrument":1,"isDrum":true},{"pitch":51,"velocity":80,"startTime":101.379138,"endTime":101.428399,"instrument":1,"isDrum":true},{"pitch":56,"velocity":80,"startTime":101.379138,"endTime":101.428399,"instrument":1,"isDrum":true},{"pitch":59,"velocity":80,"startTime":101.379138,"endTime":101.428399,"instrument":1,"isDrum":true},{"pitch":51,"velocity":80,"startTime":101.57618199999999,"endTime":101.65007349999999,"instrument":1,"isDrum":true},{"pitch":43,"velocity":103,"startTime":94.58112,"endTime":94.82742499999999,"instrument":2,"program":32},{"pitch":31,"velocity":103,"startTime":94.80279449999999,"endTime":94.85205549999999,"instrument":2,"program":32},{"pitch":43,"velocity":103,"startTime":94.87668599999999,"endTime":95.172252,"instrument":2,"program":32},{"pitch":47,"velocity":103,"startTime":95.172252,"endTime":95.4431875,"instrument":2,"program":32},{"pitch":38,"velocity":103,"startTime":95.39392649999999,"endTime":95.4431875,"instrument":2,"program":32},{"pitch":50,"velocity":103,"startTime":95.467818,"endTime":95.73875349999999,"instrument":2,"program":32},{"pitch":38,"velocity":103,"startTime":95.6894925,"endTime":95.71412299999999,"instrument":2,"program":32},{"pitch":31,"velocity":103,"startTime":95.76338399999999,"endTime":96.108211,"instrument":2,"program":32},{"pitch":38,"velocity":103,"startTime":96.05895,"endTime":96.35451599999999,"instrument":2,"program":32},{"pitch":35,"velocity":103,"startTime":96.35451599999999,"endTime":96.650082,"instrument":2,"program":32},{"pitch":38,"velocity":103,"startTime":96.650082,"endTime":96.94564799999999,"instrument":2,"program":32},{"pitch":28,"velocity":103,"startTime":96.94564799999999,"endTime":97.1673225,"instrument":2,"program":32},{"pitch":28,"velocity":103,"startTime":97.1673225,"endTime":97.2165835,"instrument":2,"program":32},{"pitch":35,"velocity":103,"startTime":97.241214,"endTime":97.53678,"instrument":2,"program":32},{"pitch":28,"velocity":103,"startTime":97.53678,"endTime":97.733824,"instrument":2,"program":32},{"pitch":28,"velocity":103,"startTime":97.7584545,"endTime":97.80771549999999,"instrument":2,"program":32},{"pitch":28,"velocity":103,"startTime":97.83234599999999,"endTime":98.1032815,"instrument":2,"program":32},{"pitch":28,"velocity":103,"startTime":98.0540205,"endTime":98.078651,"instrument":2,"program":32},{"pitch":28,"velocity":103,"startTime":98.127912,"endTime":98.719044,"instrument":2,"program":32},{"pitch":35,"velocity":103,"startTime":98.42347799999999,"endTime":98.47273899999999,"instrument":2,"program":32},{"pitch":40,"velocity":103,"startTime":98.719044,"endTime":99.01460999999999,"instrument":2,"program":32},{"pitch":37,"velocity":103,"startTime":99.01460999999999,"endTime":99.310176,"instrument":2,"program":32},{"pitch":36,"velocity":103,"startTime":99.310176,"endTime":99.60574199999999,"instrument":2,"program":32},{"pitch":43,"velocity":103,"startTime":99.60574199999999,"endTime":99.90130799999999,"instrument":2,"program":32},{"pitch":43,"velocity":103,"startTime":99.90130799999999,"endTime":100.09835199999999,"instrument":2,"program":32},{"pitch":31,"velocity":103,"startTime":100.12298249999999,"endTime":100.1722435,"instrument":2,"program":32},{"pitch":43,"velocity":103,"startTime":100.196874,"endTime":100.4185485,"instrument":2,"program":32},{"pitch":31,"velocity":103,"startTime":100.4185485,"endTime":100.46780949999999,"instrument":2,"program":32},{"pitch":38,"velocity":103,"startTime":100.49243999999999,"endTime":100.837267,"instrument":2,"program":32},{"pitch":33,"velocity":103,"startTime":100.788006,"endTime":101.10820249999999,"instrument":2,"program":32},{"pitch":38,"velocity":103,"startTime":101.08357199999999,"endTime":101.67470399999999,"instrument":2,"program":32},{"pitch":38,"velocity":103,"startTime":101.379138,"endTime":101.428399,"instrument":2,"program":32},{"pitch":43,"velocity":103,"startTime":101.67470399999999,"endTime":101.921009,"instrument":2,"program":32},{"pitch":35,"velocity":103,"startTime":101.8963785,"endTime":101.9456395,"instrument":2,"program":32},{"pitch":43,"velocity":103,"startTime":101.97027,"endTime":102.19194449999999,"instrument":2,"program":32},{"pitch":38,"velocity":103,"startTime":102.19194449999999,"endTime":102.24120549999999,"instrument":2,"program":32},{"pitch":47,"velocity":103,"startTime":102.265836,"endTime":102.56140199999999,"instrument":2,"program":32},{"pitch":43,"velocity":103,"startTime":102.56140199999999,"endTime":102.75844599999999,"instrument":2,"program":32},{"pitch":31,"velocity":103,"startTime":102.78307649999999,"endTime":102.807707,"instrument":2,"program":32},{"pitch":43,"velocity":103,"startTime":102.856968,"endTime":103.12790349999999,"instrument":2,"program":32},{"pitch":31,"velocity":103,"startTime":103.07864249999999,"endTime":103.12790349999999,"instrument":2,"program":32},{"pitch":50,"velocity":103,"startTime":103.15253399999999,"endTime":103.3742085,"instrument":2,"program":32},{"pitch":31,"velocity":103,"startTime":103.3742085,"endTime":103.4234695,"instrument":2,"program":32},{"pitch":38,"velocity":103,"startTime":103.4481,"endTime":103.66977449999999,"instrument":2,"program":32},{"pitch":31,"velocity":103,"startTime":103.66977449999999,"endTime":103.71903549999999,"instrument":2,"program":32},{"pitch":43,"velocity":103,"startTime":103.74366599999999,"endTime":104.039232,"instrument":2,"program":32},{"pitch":43,"velocity":57,"startTime":104.33479799999999,"endTime":104.43332},{"pitch":55,"velocity":57,"startTime":104.33479799999999,"endTime":104.43332},{"pitch":59,"velocity":57,"startTime":104.33479799999999,"endTime":104.43332},{"pitch":62,"velocity":57,"startTime":104.33479799999999,"endTime":104.43332},{"pitch":43,"velocity":57,"startTime":104.85203849999999,"endTime":104.9012995},{"pitch":59,"velocity":57,"startTime":104.85203849999999,"endTime":104.9012995},{"pitch":62,"velocity":57,"startTime":104.85203849999999,"endTime":104.9012995},{"pitch":55,"velocity":57,"startTime":104.87666899999999,"endTime":104.9012995},{"pitch":43,"velocity":57,"startTime":105.22149599999999,"endTime":105.32001799999999},{"pitch":59,"velocity":57,"startTime":105.22149599999999,"endTime":105.34464849999999},{"pitch":62,"velocity":57,"startTime":105.22149599999999,"endTime":105.34464849999999},{"pitch":69,"velocity":57,"startTime":105.22149599999999,"endTime":105.32001799999999},{"pitch":43,"velocity":57,"startTime":105.73873649999999,"endTime":105.81262799999999},{"pitch":59,"velocity":57,"startTime":105.73873649999999,"endTime":105.83725849999999},{"pitch":62,"velocity":57,"startTime":105.73873649999999,"endTime":105.83725849999999},{"pitch":69,"velocity":57,"startTime":105.73873649999999,"endTime":105.83725849999999},{"pitch":43,"velocity":57,"startTime":106.0343025,"endTime":106.108194},{"pitch":59,"velocity":57,"startTime":106.0343025,"endTime":106.108194},{"pitch":62,"velocity":57,"startTime":106.0343025,"endTime":106.1328245},{"pitch":69,"velocity":57,"startTime":106.0343025,"endTime":106.108194},{"pitch":40,"velocity":57,"startTime":106.6254345,"endTime":107.51213249999999},{"pitch":59,"velocity":57,"startTime":106.6254345,"endTime":107.51213249999999},{"pitch":62,"velocity":57,"startTime":106.6254345,"endTime":107.51213249999999},{"pitch":66,"velocity":57,"startTime":106.6254345,"endTime":107.51213249999999},{"pitch":40,"velocity":57,"startTime":107.80769849999999,"endTime":108.719027},{"pitch":59,"velocity":57,"startTime":107.80769849999999,"endTime":108.719027},{"pitch":63,"velocity":57,"startTime":107.80769849999999,"endTime":108.6943965},{"pitch":67,"velocity":57,"startTime":107.80769849999999,"endTime":108.669766},{"pitch":48,"velocity":57,"startTime":108.98996249999999,"endTime":109.03922349999999},{"pitch":59,"velocity":57,"startTime":108.98996249999999,"endTime":109.03922349999999},{"pitch":62,"velocity":57,"startTime":108.98996249999999,"endTime":109.03922349999999},{"pitch":43,"velocity":57,"startTime":111.3544905,"endTime":112.21655799999999},{"pitch":57,"velocity":57,"startTime":111.3544905,"endTime":112.21655799999999},{"pitch":59,"velocity":57,"startTime":111.3544905,"endTime":112.21655799999999},{"pitch":62,"velocity":57,"startTime":111.3544905,"endTime":112.21655799999999},{"pitch":43,"velocity":57,"startTime":112.24118849999999,"endTime":113.398822},{"pitch":59,"velocity":57,"startTime":112.24118849999999,"endTime":113.398822},{"pitch":62,"velocity":57,"startTime":112.24118849999999,"endTime":113.398822},{"pitch":65,"velocity":57,"startTime":112.24118849999999,"endTime":113.398822},{"pitch":50,"velocity":57,"startTime":113.4234525,"endTime":113.497344},{"pitch":59,"velocity":57,"startTime":113.4234525,"endTime":113.497344},{"pitch":62,"velocity":57,"startTime":113.4234525,"endTime":113.497344},{"pitch":66,"velocity":57,"startTime":113.4234525,"endTime":113.497344},{"pitch":35,"velocity":80,"startTime":104.039232,"endTime":104.088493,"instrument":1,"isDrum":true},{"pitch":44,"velocity":80,"startTime":104.039232,"endTime":104.088493,"instrument":1,"isDrum":true},{"pitch":51,"velocity":80,"startTime":104.039232,"endTime":104.088493,"instrument":1,"isDrum":true},{"pitch":53,"velocity":80,"startTime":104.039232,"endTime":104.088493,"instrument":1,"isDrum":true},{"pitch":56,"velocity":80,"startTime":104.039232,"endTime":104.088493,"instrument":1,"isDrum":true},{"pitch":51,"velocity":80,"startTime":104.23627599999999,"endTime":104.31016749999999,"instrument":1,"isDrum":true},{"pitch":35,"velocity":80,"startTime":104.33479799999999,"endTime":104.384059,"instrument":1,"isDrum":true},{"pitch":44,"velocity":80,"startTime":104.33479799999999,"endTime":104.384059,"instrument":1,"isDrum":true},{"pitch":51,"velocity":80,"startTime":104.33479799999999,"endTime":104.384059,"instrument":1,"isDrum":true},{"pitch":56,"velocity":80,"startTime":104.33479799999999,"endTime":104.384059,"instrument":1,"isDrum":true},{"pitch":51,"velocity":80,"startTime":104.531842,"endTime":104.6057335,"instrument":1,"isDrum":true},{"pitch":35,"velocity":80,"startTime":104.63036399999999,"endTime":104.67962499999999,"instrument":1,"isDrum":true},{"pitch":44,"velocity":80,"startTime":104.63036399999999,"endTime":104.67962499999999,"instrument":1,"isDrum":true},{"pitch":51,"velocity":80,"startTime":104.63036399999999,"endTime":104.67962499999999,"instrument":1,"isDrum":true},{"pitch":53,"velocity":80,"startTime":104.63036399999999,"endTime":104.67962499999999,"instrument":1,"isDrum":true},{"pitch":51,"velocity":80,"startTime":104.82740799999999,"endTime":104.9012995,"instrument":1,"isDrum":true},{"pitch":35,"velocity":80,"startTime":104.92593,"endTime":104.975191,"instrument":1,"isDrum":true},{"pitch":44,"velocity":80,"startTime":104.92593,"endTime":104.975191,"instrument":1,"isDrum":true},{"pitch":51,"velocity":80,"startTime":104.92593,"endTime":104.975191,"instrument":1,"isDrum":true},{"pitch":56,"velocity":80,"startTime":104.92593,"endTime":104.975191,"instrument":1,"isDrum":true},{"pitch":51,"velocity":80,"startTime":105.122974,"endTime":105.19686549999999,"instrument":1,"isDrum":true},{"pitch":35,"velocity":80,"startTime":105.22149599999999,"endTime":105.27075699999999,"instrument":1,"isDrum":true},{"pitch":44,"velocity":80,"startTime":105.22149599999999,"endTime":105.27075699999999,"instrument":1,"isDrum":true},{"pitch":51,"velocity":80,"startTime":105.22149599999999,"endTime":105.27075699999999,"instrument":1,"isDrum":true},{"pitch":53,"velocity":80,"startTime":105.22149599999999,"endTime":105.27075699999999,"instrument":1,"isDrum":true},{"pitch":51,"velocity":80,"startTime":105.41854,"endTime":105.4924315,"instrument":1,"isDrum":true},{"pitch":35,"velocity":80,"startTime":105.517062,"endTime":105.566323,"instrument":1,"isDrum":true},{"pitch":38,"velocity":80,"startTime":105.517062,"endTime":105.566323,"instrument":1,"isDrum":true},{"pitch":44,"velocity":80,"startTime":105.517062,"endTime":105.566323,"instrument":1,"isDrum":true},{"pitch":51,"velocity":80,"startTime":105.517062,"endTime":105.566323,"instrument":1,"isDrum":true},{"pitch":53,"velocity":80,"startTime":105.517062,"endTime":105.566323,"instrument":1,"isDrum":true},{"pitch":56,"velocity":80,"startTime":105.517062,"endTime":105.566323,"instrument":1,"isDrum":true},{"pitch":51,"velocity":80,"startTime":105.71410599999999,"endTime":105.78799749999999,"instrument":1,"isDrum":true},{"pitch":35,"velocity":80,"startTime":105.81262799999999,"endTime":105.86188899999999,"instrument":1,"isDrum":true},{"pitch":44,"velocity":80,"startTime":105.81262799999999,"endTime":105.86188899999999,"instrument":1,"isDrum":true},{"pitch":51,"velocity":80,"startTime":105.81262799999999,"endTime":105.86188899999999,"instrument":1,"isDrum":true},{"pitch":53,"velocity":80,"startTime":105.81262799999999,"endTime":105.86188899999999,"instrument":1,"isDrum":true},{"pitch":51,"velocity":80,"startTime":106.009672,"endTime":106.0835635,"instrument":1,"isDrum":true},{"pitch":35,"velocity":80,"startTime":106.108194,"endTime":106.157455,"instrument":1,"isDrum":true},{"pitch":38,"velocity":80,"startTime":106.108194,"endTime":106.157455,"instrument":1,"isDrum":true},{"pitch":44,"velocity":80,"startTime":106.108194,"endTime":106.157455,"instrument":1,"isDrum":true},{"pitch":51,"velocity":80,"startTime":106.108194,"endTime":106.157455,"instrument":1,"isDrum":true},{"pitch":53,"velocity":80,"startTime":106.108194,"endTime":106.157455,"instrument":1,"isDrum":true},{"pitch":53,"velocity":80,"startTime":106.108194,"endTime":106.157455,"instrument":1,"isDrum":true},{"pitch":51,"velocity":80,"startTime":106.30523799999999,"endTime":106.37912949999999,"instrument":1,"isDrum":true},{"pitch":35,"velocity":80,"startTime":106.40375999999999,"endTime":106.45302099999999,"instrument":1,"isDrum":true},{"pitch":44,"velocity":80,"startTime":106.40375999999999,"endTime":106.45302099999999,"instrument":1,"isDrum":true},{"pitch":51,"velocity":80,"startTime":106.40375999999999,"endTime":106.45302099999999,"instrument":1,"isDrum":true},{"pitch":53,"velocity":80,"startTime":106.40375999999999,"endTime":106.45302099999999,"instrument":1,"isDrum":true},{"pitch":51,"velocity":80,"startTime":106.600804,"endTime":106.6746955,"instrument":1,"isDrum":true},{"pitch":35,"velocity":80,"startTime":106.699326,"endTime":106.74858699999999,"instrument":1,"isDrum":true},{"pitch":38,"velocity":80,"startTime":106.699326,"endTime":106.74858699999999,"instrument":1,"isDrum":true},{"pitch":44,"velocity":80,"startTime":106.699326,"endTime":106.74858699999999,"instrument":1,"isDrum":true},{"pitch":51,"velocity":80,"startTime":106.699326,"endTime":106.74858699999999,"instrument":1,"isDrum":true},{"pitch":53,"velocity":80,"startTime":106.699326,"endTime":106.74858699999999,"instrument":1,"isDrum":true},{"pitch":54,"velocity":80,"startTime":106.699326,"endTime":106.74858699999999,"instrument":1,"isDrum":true},{"pitch":51,"velocity":80,"startTime":106.89636999999999,"endTime":106.97026149999999,"instrument":1,"isDrum":true},{"pitch":35,"velocity":80,"startTime":106.994892,"endTime":107.044153,"instrument":1,"isDrum":true},{"pitch":44,"velocity":80,"startTime":106.994892,"endTime":107.044153,"instrument":1,"isDrum":true},{"pitch":53,"velocity":80,"startTime":106.994892,"endTime":107.044153,"instrument":1,"isDrum":true},{"pitch":51,"velocity":80,"startTime":107.191936,"endTime":107.26582749999999,"instrument":1,"isDrum":true},{"pitch":35,"velocity":80,"startTime":107.29045799999999,"endTime":107.33971899999999,"instrument":1,"isDrum":true},{"pitch":38,"velocity":80,"startTime":107.29045799999999,"endTime":107.33971899999999,"instrument":1,"isDrum":true},{"pitch":44,"velocity":80,"startTime":107.29045799999999,"endTime":107.33971899999999,"instrument":1,"isDrum":true},{"pitch":51,"velocity":80,"startTime":107.29045799999999,"endTime":107.33971899999999,"instrument":1,"isDrum":true},{"pitch":53,"velocity":80,"startTime":107.29045799999999,"endTime":107.33971899999999,"instrument":1,"isDrum":true},{"pitch":54,"velocity":80,"startTime":107.29045799999999,"endTime":107.33971899999999,"instrument":1,"isDrum":true},{"pitch":51,"velocity":80,"startTime":107.48750199999999,"endTime":107.5613935,"instrument":1,"isDrum":true},{"pitch":35,"velocity":80,"startTime":107.586024,"endTime":107.635285,"instrument":1,"isDrum":true},{"pitch":44,"velocity":80,"startTime":107.586024,"endTime":107.635285,"instrument":1,"isDrum":true},{"pitch":53,"velocity":80,"startTime":107.586024,"endTime":107.635285,"instrument":1,"isDrum":true},{"pitch":51,"velocity":80,"startTime":107.78306799999999,"endTime":107.85695949999999,"instrument":1,"isDrum":true},{"pitch":35,"velocity":80,"startTime":107.88158999999999,"endTime":107.93085099999999,"instrument":1,"isDrum":true},{"pitch":38,"velocity":80,"startTime":107.88158999999999,"endTime":107.93085099999999,"instrument":1,"isDrum":true},{"pitch":44,"velocity":80,"startTime":107.88158999999999,"endTime":107.93085099999999,"instrument":1,"isDrum":true},{"pitch":53,"velocity":80,"startTime":107.88158999999999,"endTime":107.93085099999999,"instrument":1,"isDrum":true},{"pitch":54,"velocity":80,"startTime":107.88158999999999,"endTime":107.93085099999999,"instrument":1,"isDrum":true},{"pitch":51,"velocity":80,"startTime":108.078634,"endTime":108.1525255,"instrument":1,"isDrum":true},{"pitch":35,"velocity":80,"startTime":108.177156,"endTime":108.226417,"instrument":1,"isDrum":true},{"pitch":44,"velocity":80,"startTime":108.177156,"endTime":108.226417,"instrument":1,"isDrum":true},{"pitch":53,"velocity":80,"startTime":108.177156,"endTime":108.226417,"instrument":1,"isDrum":true},{"pitch":35,"velocity":80,"startTime":108.47272199999999,"endTime":108.52198299999999,"instrument":1,"isDrum":true},{"pitch":38,"velocity":80,"startTime":108.47272199999999,"endTime":108.52198299999999,"instrument":1,"isDrum":true},{"pitch":44,"velocity":80,"startTime":108.47272199999999,"endTime":108.52198299999999,"instrument":1,"isDrum":true},{"pitch":51,"velocity":80,"startTime":108.47272199999999,"endTime":108.52198299999999,"instrument":1,"isDrum":true},{"pitch":53,"velocity":80,"startTime":108.47272199999999,"endTime":108.52198299999999,"instrument":1,"isDrum":true},{"pitch":54,"velocity":80,"startTime":108.47272199999999,"endTime":108.52198299999999,"instrument":1,"isDrum":true},{"pitch":51,"velocity":80,"startTime":108.669766,"endTime":108.7436575,"instrument":1,"isDrum":true},{"pitch":35,"velocity":80,"startTime":108.768288,"endTime":108.81754899999999,"instrument":1,"isDrum":true},{"pitch":44,"velocity":80,"startTime":108.768288,"endTime":108.81754899999999,"instrument":1,"isDrum":true},{"pitch":51,"velocity":80,"startTime":108.768288,"endTime":108.81754899999999,"instrument":1,"isDrum":true},{"pitch":53,"velocity":80,"startTime":108.768288,"endTime":108.81754899999999,"instrument":1,"isDrum":true},{"pitch":51,"velocity":80,"startTime":108.96533199999999,"endTime":109.03922349999999,"instrument":1,"isDrum":true},{"pitch":35,"velocity":80,"startTime":109.06385399999999,"endTime":109.113115,"instrument":1,"isDrum":true},{"pitch":38,"velocity":80,"startTime":109.06385399999999,"endTime":109.113115,"instrument":1,"isDrum":true},{"pitch":44,"velocity":80,"startTime":109.06385399999999,"endTime":109.113115,"instrument":1,"isDrum":true},{"pitch":51,"velocity":80,"startTime":109.06385399999999,"endTime":109.113115,"instrument":1,"isDrum":true},{"pitch":53,"velocity":80,"startTime":109.06385399999999,"endTime":109.113115,"instrument":1,"isDrum":true},{"pitch":51,"velocity":80,"startTime":109.260898,"endTime":109.3347895,"instrument":1,"isDrum":true},{"pitch":35,"velocity":80,"startTime":109.35941999999999,"endTime":109.40868099999999,"instrument":1,"isDrum":true},{"pitch":44,"velocity":80,"startTime":109.35941999999999,"endTime":109.40868099999999,"instrument":1,"isDrum":true},{"pitch":51,"velocity":80,"startTime":109.35941999999999,"endTime":109.40868099999999,"instrument":1,"isDrum":true},{"pitch":53,"velocity":80,"startTime":109.35941999999999,"endTime":109.40868099999999,"instrument":1,"isDrum":true},{"pitch":51,"velocity":80,"startTime":109.55646399999999,"endTime":109.6303555,"instrument":1,"isDrum":true},{"pitch":35,"velocity":80,"startTime":109.654986,"endTime":109.704247,"instrument":1,"isDrum":true},{"pitch":38,"velocity":80,"startTime":109.654986,"endTime":109.704247,"instrument":1,"isDrum":true},{"pitch":44,"velocity":80,"startTime":109.654986,"endTime":109.704247,"instrument":1,"isDrum":true},{"pitch":51,"velocity":80,"startTime":109.654986,"endTime":109.704247,"instrument":1,"isDrum":true},{"pitch":53,"velocity":80,"startTime":109.654986,"endTime":109.704247,"instrument":1,"isDrum":true},{"pitch":54,"velocity":80,"startTime":109.654986,"endTime":109.704247,"instrument":1,"isDrum":true},{"pitch":51,"velocity":80,"startTime":109.85203,"endTime":109.92592149999999,"instrument":1,"isDrum":true},{"pitch":35,"velocity":80,"startTime":109.95055199999999,"endTime":109.99981299999999,"instrument":1,"isDrum":true},{"pitch":44,"velocity":80,"startTime":109.95055199999999,"endTime":109.99981299999999,"instrument":1,"isDrum":true},{"pitch":51,"velocity":80,"startTime":109.95055199999999,"endTime":109.99981299999999,"instrument":1,"isDrum":true},{"pitch":53,"velocity":80,"startTime":109.95055199999999,"endTime":109.99981299999999,"instrument":1,"isDrum":true},{"pitch":51,"velocity":80,"startTime":110.147596,"endTime":110.2214875,"instrument":1,"isDrum":true},{"pitch":35,"velocity":80,"startTime":110.246118,"endTime":110.295379,"instrument":1,"isDrum":true},{"pitch":38,"velocity":80,"startTime":110.246118,"endTime":110.295379,"instrument":1,"isDrum":true},{"pitch":44,"velocity":80,"startTime":110.246118,"endTime":110.295379,"instrument":1,"isDrum":true},{"pitch":51,"velocity":80,"startTime":110.246118,"endTime":110.295379,"instrument":1,"isDrum":true},{"pitch":53,"velocity":80,"startTime":110.246118,"endTime":110.295379,"instrument":1,"isDrum":true},{"pitch":54,"velocity":80,"startTime":110.246118,"endTime":110.295379,"instrument":1,"isDrum":true},{"pitch":51,"velocity":80,"startTime":110.44316199999999,"endTime":110.51705349999999,"instrument":1,"isDrum":true},{"pitch":35,"velocity":80,"startTime":110.54168399999999,"endTime":110.59094499999999,"instrument":1,"isDrum":true},{"pitch":44,"velocity":80,"startTime":110.54168399999999,"endTime":110.59094499999999,"instrument":1,"isDrum":true},{"pitch":51,"velocity":80,"startTime":110.54168399999999,"endTime":110.59094499999999,"instrument":1,"isDrum":true},{"pitch":53,"velocity":80,"startTime":110.54168399999999,"endTime":110.59094499999999,"instrument":1,"isDrum":true},{"pitch":51,"velocity":80,"startTime":110.738728,"endTime":110.8126195,"instrument":1,"isDrum":true},{"pitch":35,"velocity":80,"startTime":110.83725,"endTime":110.886511,"instrument":1,"isDrum":true},{"pitch":38,"velocity":80,"startTime":110.83725,"endTime":110.886511,"instrument":1,"isDrum":true},{"pitch":44,"velocity":80,"startTime":110.83725,"endTime":110.886511,"instrument":1,"isDrum":true},{"pitch":51,"velocity":80,"startTime":110.83725,"endTime":110.886511,"instrument":1,"isDrum":true},{"pitch":53,"velocity":80,"startTime":110.83725,"endTime":110.886511,"instrument":1,"isDrum":true},{"pitch":54,"velocity":80,"startTime":110.83725,"endTime":110.886511,"instrument":1,"isDrum":true},{"pitch":51,"velocity":80,"startTime":111.03429399999999,"endTime":111.10818549999999,"instrument":1,"isDrum":true},{"pitch":35,"velocity":80,"startTime":111.13281599999999,"endTime":111.18207699999999,"instrument":1,"isDrum":true},{"pitch":44,"velocity":80,"startTime":111.13281599999999,"endTime":111.18207699999999,"instrument":1,"isDrum":true},{"pitch":51,"velocity":80,"startTime":111.13281599999999,"endTime":111.18207699999999,"instrument":1,"isDrum":true},{"pitch":53,"velocity":80,"startTime":111.13281599999999,"endTime":111.18207699999999,"instrument":1,"isDrum":true},{"pitch":51,"velocity":80,"startTime":111.32986,"endTime":111.4037515,"instrument":1,"isDrum":true},{"pitch":35,"velocity":80,"startTime":111.428382,"endTime":111.47764299999999,"instrument":1,"isDrum":true},{"pitch":38,"velocity":80,"startTime":111.428382,"endTime":111.47764299999999,"instrument":1,"isDrum":true},{"pitch":44,"velocity":80,"startTime":111.428382,"endTime":111.47764299999999,"instrument":1,"isDrum":true},{"pitch":51,"velocity":80,"startTime":111.428382,"endTime":111.47764299999999,"instrument":1,"isDrum":true},{"pitch":53,"velocity":80,"startTime":111.428382,"endTime":111.47764299999999,"instrument":1,"isDrum":true},{"pitch":54,"velocity":80,"startTime":111.428382,"endTime":111.47764299999999,"instrument":1,"isDrum":true},{"pitch":51,"velocity":80,"startTime":111.62542599999999,"endTime":111.69931749999999,"instrument":1,"isDrum":true},{"pitch":43,"velocity":103,"startTime":104.039232,"endTime":104.26090649999999,"instrument":2,"program":32},{"pitch":43,"velocity":103,"startTime":104.26090649999999,"endTime":104.33479799999999,"instrument":2,"program":32},{"pitch":43,"velocity":103,"startTime":104.33479799999999,"endTime":104.63036399999999,"instrument":2,"program":32},{"pitch":50,"velocity":103,"startTime":104.63036399999999,"endTime":104.975191,"instrument":2,"program":32},{"pitch":38,"velocity":103,"startTime":104.92593,"endTime":105.22149599999999,"instrument":2,"program":32},{"pitch":43,"velocity":103,"startTime":105.22149599999999,"endTime":105.4431705,"instrument":2,"program":32},{"pitch":43,"velocity":103,"startTime":105.4431705,"endTime":105.517062,"instrument":2,"program":32},{"pitch":47,"velocity":103,"startTime":105.517062,"endTime":105.81262799999999,"instrument":2,"program":32},{"pitch":50,"velocity":103,"startTime":105.81262799999999,"endTime":106.157455,"instrument":2,"program":32},{"pitch":43,"velocity":103,"startTime":106.108194,"endTime":106.40375999999999,"instrument":2,"program":32},{"pitch":40,"velocity":103,"startTime":106.40375999999999,"endTime":106.6254345,"instrument":2,"program":32},{"pitch":28,"velocity":103,"startTime":106.6254345,"endTime":106.699326,"instrument":2,"program":32},{"pitch":35,"velocity":103,"startTime":106.699326,"endTime":106.994892,"instrument":2,"program":32},{"pitch":40,"velocity":103,"startTime":106.994892,"endTime":107.29045799999999,"instrument":2,"program":32},{"pitch":35,"velocity":103,"startTime":107.29045799999999,"endTime":107.5613935,"instrument":2,"program":32},{"pitch":28,"velocity":103,"startTime":107.586024,"endTime":107.93085099999999,"instrument":2,"program":32},{"pitch":35,"velocity":103,"startTime":107.88158999999999,"endTime":108.177156,"instrument":2,"program":32},{"pitch":35,"velocity":103,"startTime":108.177156,"endTime":108.47272199999999,"instrument":2,"program":32},{"pitch":38,"velocity":103,"startTime":108.47272199999999,"endTime":108.6943965,"instrument":2,"program":32},{"pitch":35,"velocity":103,"startTime":108.6943965,"endTime":108.768288,"instrument":2,"program":32},{"pitch":36,"velocity":103,"startTime":108.768288,"endTime":108.98996249999999,"instrument":2,"program":32},{"pitch":31,"velocity":103,"startTime":108.98996249999999,"endTime":109.06385399999999,"instrument":2,"program":32},{"pitch":43,"velocity":103,"startTime":109.06385399999999,"endTime":109.35941999999999,"instrument":2,"program":32},{"pitch":40,"velocity":103,"startTime":109.35941999999999,"endTime":109.55646399999999,"instrument":2,"program":32},{"pitch":31,"velocity":103,"startTime":109.58109449999999,"endTime":109.654986,"instrument":2,"program":32},{"pitch":43,"velocity":103,"startTime":109.654986,"endTime":109.87666049999999,"instrument":2,"program":32},{"pitch":36,"velocity":103,"startTime":109.87666049999999,"endTime":109.95055199999999,"instrument":2,"program":32},{"pitch":38,"velocity":103,"startTime":109.95055199999999,"endTime":110.295379,"instrument":2,"program":32},{"pitch":45,"velocity":103,"startTime":110.246118,"endTime":110.56631449999999,"instrument":2,"program":32},{"pitch":40,"velocity":103,"startTime":110.54168399999999,"endTime":111.13281599999999,"instrument":2,"program":32},{"pitch":45,"velocity":103,"startTime":110.83725,"endTime":110.886511,"instrument":2,"program":32},{"pitch":43,"velocity":103,"startTime":111.13281599999999,"endTime":111.3052295,"instrument":2,"program":32},{"pitch":38,"velocity":103,"startTime":111.3544905,"endTime":111.428382,"instrument":2,"program":32},{"pitch":38,"velocity":103,"startTime":111.428382,"endTime":111.723948,"instrument":2,"program":32},{"pitch":43,"velocity":103,"startTime":111.723948,"endTime":112.01951399999999,"instrument":2,"program":32},{"pitch":38,"velocity":103,"startTime":112.01951399999999,"endTime":112.31508,"instrument":2,"program":32},{"pitch":31,"velocity":103,"startTime":112.31508,"endTime":112.53675449999999,"instrument":2,"program":32},{"pitch":31,"velocity":103,"startTime":112.53675449999999,"endTime":112.61064599999999,"instrument":2,"program":32},{"pitch":43,"velocity":103,"startTime":112.61064599999999,"endTime":112.906212,"instrument":2,"program":32},{"pitch":38,"velocity":103,"startTime":112.906212,"endTime":113.12788649999999,"instrument":2,"program":32},{"pitch":26,"velocity":103,"startTime":113.12788649999999,"endTime":113.20177799999999,"instrument":2,"program":32},{"pitch":42,"velocity":103,"startTime":113.20177799999999,"endTime":113.497344,"instrument":2,"program":32},{"pitch":43,"velocity":57,"startTime":113.5219745,"endTime":113.59586599999999},{"pitch":58,"velocity":57,"startTime":113.5219745,"endTime":113.59586599999999},{"pitch":62,"velocity":57,"startTime":113.5219745,"endTime":113.62049649999999},{"pitch":69,"velocity":57,"startTime":113.5219745,"endTime":113.59586599999999},{"pitch":48,"velocity":57,"startTime":114.60571649999999,"endTime":114.87665199999999},{"pitch":59,"velocity":57,"startTime":114.60571649999999,"endTime":114.85202149999999},{"pitch":62,"velocity":57,"startTime":114.60571649999999,"endTime":114.85202149999999},{"pitch":69,"velocity":57,"startTime":114.60571649999999,"endTime":114.85202149999999},{"pitch":59,"velocity":57,"startTime":115.566306,"endTime":115.66482799999999},{"pitch":62,"velocity":57,"startTime":115.566306,"endTime":115.66482799999999},{"pitch":69,"velocity":57,"startTime":115.566306,"endTime":115.66482799999999},{"pitch":40,"velocity":57,"startTime":116.0835465,"endTime":116.25595999999999},{"pitch":56,"velocity":57,"startTime":116.0835465,"endTime":116.25595999999999},{"pitch":62,"velocity":57,"startTime":116.0835465,"endTime":116.25595999999999},{"pitch":66,"velocity":57,"startTime":116.0835465,"endTime":116.25595999999999},{"pitch":40,"velocity":57,"startTime":116.6746785,"endTime":116.84709199999999},{"pitch":59,"velocity":57,"startTime":116.6746785,"endTime":116.84709199999999},{"pitch":62,"velocity":57,"startTime":116.6746785,"endTime":116.84709199999999},{"pitch":66,"velocity":57,"startTime":116.6746785,"endTime":116.87172249999999},{"pitch":40,"velocity":57,"startTime":117.26581049999999,"endTime":117.46285449999999},{"pitch":55,"velocity":57,"startTime":117.26581049999999,"endTime":117.43822399999999},{"pitch":62,"velocity":57,"startTime":117.26581049999999,"endTime":117.43822399999999},{"pitch":66,"velocity":57,"startTime":117.26581049999999,"endTime":117.43822399999999},{"pitch":40,"velocity":57,"startTime":118.1525085,"endTime":118.30029149999999},{"pitch":55,"velocity":57,"startTime":118.1525085,"endTime":118.30029149999999},{"pitch":59,"velocity":57,"startTime":118.1525085,"endTime":118.30029149999999},{"pitch":62,"velocity":57,"startTime":118.1525085,"endTime":118.30029149999999},{"pitch":48,"velocity":57,"startTime":118.7436405,"endTime":118.81753199999999},{"pitch":59,"velocity":57,"startTime":118.7436405,"endTime":118.79290149999999},{"pitch":62,"velocity":57,"startTime":118.7436405,"endTime":118.79290149999999},{"pitch":64,"velocity":57,"startTime":118.7436405,"endTime":118.79290149999999},{"pitch":55,"velocity":57,"startTime":119.33477249999999,"endTime":119.40866399999999},{"pitch":62,"velocity":57,"startTime":119.33477249999999,"endTime":119.40866399999999},{"pitch":64,"velocity":57,"startTime":119.33477249999999,"endTime":119.40866399999999},{"pitch":50,"velocity":57,"startTime":119.43329449999999,"endTime":119.48255549999999},{"pitch":62,"velocity":57,"startTime":119.43329449999999,"endTime":119.50718599999999},{"pitch":65,"velocity":57,"startTime":119.43329449999999,"endTime":119.48255549999999},{"pitch":69,"velocity":57,"startTime":119.43329449999999,"endTime":119.48255549999999},{"pitch":50,"velocity":57,"startTime":119.92590449999999,"endTime":119.99979599999999},{"pitch":59,"velocity":57,"startTime":119.92590449999999,"endTime":120.02442649999999},{"pitch":62,"velocity":57,"startTime":119.92590449999999,"endTime":120.02442649999999},{"pitch":65,"velocity":57,"startTime":119.92590449999999,"endTime":120.02442649999999},{"pitch":50,"velocity":57,"startTime":120.2214705,"endTime":120.295362},{"pitch":57,"velocity":57,"startTime":120.2214705,"endTime":120.3199925},{"pitch":62,"velocity":57,"startTime":120.2214705,"endTime":120.3199925},{"pitch":65,"velocity":57,"startTime":120.2214705,"endTime":120.3199925},{"pitch":43,"velocity":57,"startTime":121.10816849999999,"endTime":121.18205999999999},{"pitch":62,"velocity":57,"startTime":121.10816849999999,"endTime":121.18205999999999},{"pitch":67,"velocity":57,"startTime":121.10816849999999,"endTime":121.18205999999999},{"pitch":71,"velocity":57,"startTime":121.10816849999999,"endTime":121.2066905},{"pitch":43,"velocity":57,"startTime":121.69930049999999,"endTime":122.856934},{"pitch":59,"velocity":57,"startTime":121.69930049999999,"endTime":122.856934},{"pitch":62,"velocity":57,"startTime":121.69930049999999,"endTime":122.856934},{"pitch":69,"velocity":57,"startTime":121.69930049999999,"endTime":122.856934},{"pitch":35,"velocity":80,"startTime":113.497344,"endTime":113.57123549999999,"instrument":1,"isDrum":true},{"pitch":44,"velocity":80,"startTime":113.497344,"endTime":113.57123549999999,"instrument":1,"isDrum":true},{"pitch":51,"velocity":80,"startTime":113.497344,"endTime":113.57123549999999,"instrument":1,"isDrum":true},{"pitch":53,"velocity":80,"startTime":113.497344,"endTime":113.57123549999999,"instrument":1,"isDrum":true},{"pitch":51,"velocity":80,"startTime":113.69438799999999,"endTime":113.76827949999999,"instrument":1,"isDrum":true},{"pitch":44,"velocity":80,"startTime":113.79290999999999,"endTime":113.8668015,"instrument":1,"isDrum":true},{"pitch":51,"velocity":80,"startTime":113.79290999999999,"endTime":113.8668015,"instrument":1,"isDrum":true},{"pitch":53,"velocity":80,"startTime":113.79290999999999,"endTime":113.8668015,"instrument":1,"isDrum":true},{"pitch":51,"velocity":80,"startTime":113.989954,"endTime":114.06384549999999,"instrument":1,"isDrum":true},{"pitch":35,"velocity":80,"startTime":114.08847599999999,"endTime":114.16236749999999,"instrument":1,"isDrum":true},{"pitch":44,"velocity":80,"startTime":114.08847599999999,"endTime":114.16236749999999,"instrument":1,"isDrum":true},{"pitch":51,"velocity":80,"startTime":114.08847599999999,"endTime":114.16236749999999,"instrument":1,"isDrum":true},{"pitch":53,"velocity":80,"startTime":114.08847599999999,"endTime":114.16236749999999,"instrument":1,"isDrum":true},{"pitch":51,"velocity":80,"startTime":114.28551999999999,"endTime":114.3594115,"instrument":1,"isDrum":true},{"pitch":44,"velocity":80,"startTime":114.384042,"endTime":114.4579335,"instrument":1,"isDrum":true},{"pitch":51,"velocity":80,"startTime":114.384042,"endTime":114.4579335,"instrument":1,"isDrum":true},{"pitch":53,"velocity":80,"startTime":114.384042,"endTime":114.4579335,"instrument":1,"isDrum":true},{"pitch":51,"velocity":80,"startTime":114.581086,"endTime":114.65497749999999,"instrument":1,"isDrum":true},{"pitch":35,"velocity":80,"startTime":114.67960799999999,"endTime":114.75349949999999,"instrument":1,"isDrum":true},{"pitch":44,"velocity":80,"startTime":114.67960799999999,"endTime":114.75349949999999,"instrument":1,"isDrum":true},{"pitch":51,"velocity":80,"startTime":114.67960799999999,"endTime":114.75349949999999,"instrument":1,"isDrum":true},{"pitch":53,"velocity":80,"startTime":114.67960799999999,"endTime":114.75349949999999,"instrument":1,"isDrum":true},{"pitch":51,"velocity":80,"startTime":114.87665199999999,"endTime":114.9505435,"instrument":1,"isDrum":true},{"pitch":44,"velocity":80,"startTime":114.975174,"endTime":115.0490655,"instrument":1,"isDrum":true},{"pitch":51,"velocity":80,"startTime":114.975174,"endTime":115.0490655,"instrument":1,"isDrum":true},{"pitch":51,"velocity":80,"startTime":115.17221799999999,"endTime":115.24610949999999,"instrument":1,"isDrum":true},{"pitch":35,"velocity":80,"startTime":115.27073999999999,"endTime":115.34463149999999,"instrument":1,"isDrum":true},{"pitch":44,"velocity":80,"startTime":115.27073999999999,"endTime":115.34463149999999,"instrument":1,"isDrum":true},{"pitch":51,"velocity":80,"startTime":115.27073999999999,"endTime":115.34463149999999,"instrument":1,"isDrum":true},{"pitch":53,"velocity":80,"startTime":115.27073999999999,"endTime":115.34463149999999,"instrument":1,"isDrum":true},{"pitch":51,"velocity":80,"startTime":115.467784,"endTime":115.5416755,"instrument":1,"isDrum":true},{"pitch":44,"velocity":80,"startTime":115.566306,"endTime":115.64019749999999,"instrument":1,"isDrum":true},{"pitch":51,"velocity":80,"startTime":115.566306,"endTime":115.64019749999999,"instrument":1,"isDrum":true},{"pitch":53,"velocity":80,"startTime":115.566306,"endTime":115.64019749999999,"instrument":1,"isDrum":true},{"pitch":51,"velocity":80,"startTime":115.76334999999999,"endTime":115.83724149999999,"instrument":1,"isDrum":true},{"pitch":35,"velocity":80,"startTime":115.86187199999999,"endTime":115.9357635,"instrument":1,"isDrum":true},{"pitch":44,"velocity":80,"startTime":115.86187199999999,"endTime":115.9357635,"instrument":1,"isDrum":true},{"pitch":51,"velocity":80,"startTime":115.86187199999999,"endTime":115.9357635,"instrument":1,"isDrum":true},{"pitch":53,"velocity":80,"startTime":115.86187199999999,"endTime":115.9357635,"instrument":1,"isDrum":true},{"pitch":51,"velocity":80,"startTime":116.058916,"endTime":116.1328075,"instrument":1,"isDrum":true},{"pitch":44,"velocity":80,"startTime":116.157438,"endTime":116.23132949999999,"instrument":1,"isDrum":true},{"pitch":51,"velocity":80,"startTime":116.157438,"endTime":116.23132949999999,"instrument":1,"isDrum":true},{"pitch":53,"velocity":80,"startTime":116.157438,"endTime":116.23132949999999,"instrument":1,"isDrum":true},{"pitch":51,"velocity":80,"startTime":116.35448199999999,"endTime":116.42837349999999,"instrument":1,"isDrum":true},{"pitch":35,"velocity":80,"startTime":116.45300399999999,"endTime":116.5268955,"instrument":1,"isDrum":true},{"pitch":44,"velocity":80,"startTime":116.45300399999999,"endTime":116.5268955,"instrument":1,"isDrum":true},{"pitch":51,"velocity":80,"startTime":116.45300399999999,"endTime":116.5268955,"instrument":1,"isDrum":true},{"pitch":53,"velocity":80,"startTime":116.45300399999999,"endTime":116.5268955,"instrument":1,"isDrum":true},{"pitch":51,"velocity":80,"startTime":116.650048,"endTime":116.72393949999999,"instrument":1,"isDrum":true},{"pitch":44,"velocity":80,"startTime":116.74856999999999,"endTime":116.82246149999999,"instrument":1,"isDrum":true},{"pitch":51,"velocity":80,"startTime":116.74856999999999,"endTime":116.82246149999999,"instrument":1,"isDrum":true},{"pitch":53,"velocity":80,"startTime":116.74856999999999,"endTime":116.82246149999999,"instrument":1,"isDrum":true},{"pitch":51,"velocity":80,"startTime":116.94561399999999,"endTime":117.0195055,"instrument":1,"isDrum":true},{"pitch":35,"velocity":80,"startTime":117.044136,"endTime":117.1180275,"instrument":1,"isDrum":true},{"pitch":44,"velocity":80,"startTime":117.044136,"endTime":117.1180275,"instrument":1,"isDrum":true},{"pitch":51,"velocity":80,"startTime":117.044136,"endTime":117.1180275,"instrument":1,"isDrum":true},{"pitch":53,"velocity":80,"startTime":117.044136,"endTime":117.1180275,"instrument":1,"isDrum":true},{"pitch":51,"velocity":80,"startTime":117.24117999999999,"endTime":117.31507149999999,"instrument":1,"isDrum":true},{"pitch":44,"velocity":80,"startTime":117.33970199999999,"endTime":117.41359349999999,"instrument":1,"isDrum":true},{"pitch":51,"velocity":80,"startTime":117.33970199999999,"endTime":117.41359349999999,"instrument":1,"isDrum":true},{"pitch":53,"velocity":80,"startTime":117.33970199999999,"endTime":117.41359349999999,"instrument":1,"isDrum":true},{"pitch":51,"velocity":80,"startTime":117.536746,"endTime":117.6106375,"instrument":1,"isDrum":true},{"pitch":44,"velocity":80,"startTime":117.635268,"endTime":117.7091595,"instrument":1,"isDrum":true},{"pitch":51,"velocity":80,"startTime":117.635268,"endTime":117.7091595,"instrument":1,"isDrum":true},{"pitch":53,"velocity":80,"startTime":117.635268,"endTime":117.7091595,"instrument":1,"isDrum":true},{"pitch":51,"velocity":80,"startTime":117.83231199999999,"endTime":117.90620349999999,"instrument":1,"isDrum":true},{"pitch":44,"velocity":80,"startTime":117.93083399999999,"endTime":118.00472549999999,"instrument":1,"isDrum":true},{"pitch":51,"velocity":80,"startTime":117.93083399999999,"endTime":118.00472549999999,"instrument":1,"isDrum":true},{"pitch":53,"velocity":80,"startTime":117.93083399999999,"endTime":118.00472549999999,"instrument":1,"isDrum":true},{"pitch":51,"velocity":80,"startTime":118.127878,"endTime":118.2017695,"instrument":1,"isDrum":true},{"pitch":35,"velocity":80,"startTime":118.2264,"endTime":118.30029149999999,"instrument":1,"isDrum":true},{"pitch":44,"velocity":80,"startTime":118.2264,"endTime":118.30029149999999,"instrument":1,"isDrum":true},{"pitch":51,"velocity":80,"startTime":118.2264,"endTime":118.30029149999999,"instrument":1,"isDrum":true},{"pitch":53,"velocity":80,"startTime":118.2264,"endTime":118.30029149999999,"instrument":1,"isDrum":true},{"pitch":51,"velocity":80,"startTime":118.42344399999999,"endTime":118.49733549999999,"instrument":1,"isDrum":true},{"pitch":38,"velocity":80,"startTime":118.52196599999999,"endTime":118.5958575,"instrument":1,"isDrum":true},{"pitch":44,"velocity":80,"startTime":118.52196599999999,"endTime":118.5958575,"instrument":1,"isDrum":true},{"pitch":51,"velocity":80,"startTime":118.52196599999999,"endTime":118.5958575,"instrument":1,"isDrum":true},{"pitch":53,"velocity":80,"startTime":118.52196599999999,"endTime":118.5958575,"instrument":1,"isDrum":true},{"pitch":51,"velocity":80,"startTime":118.71901,"endTime":118.79290149999999,"instrument":1,"isDrum":true},{"pitch":44,"velocity":80,"startTime":118.81753199999999,"endTime":118.89142349999999,"instrument":1,"isDrum":true},{"pitch":51,"velocity":80,"startTime":118.81753199999999,"endTime":118.89142349999999,"instrument":1,"isDrum":true},{"pitch":53,"velocity":80,"startTime":118.81753199999999,"endTime":118.89142349999999,"instrument":1,"isDrum":true},{"pitch":51,"velocity":80,"startTime":119.01457599999999,"endTime":119.0884675,"instrument":1,"isDrum":true},{"pitch":44,"velocity":80,"startTime":119.113098,"endTime":119.1869895,"instrument":1,"isDrum":true},{"pitch":51,"velocity":80,"startTime":119.113098,"endTime":119.1869895,"instrument":1,"isDrum":true},{"pitch":53,"velocity":80,"startTime":119.113098,"endTime":119.1869895,"instrument":1,"isDrum":true},{"pitch":51,"velocity":80,"startTime":119.31014199999998,"endTime":119.38403349999999,"instrument":1,"isDrum":true},{"pitch":35,"velocity":80,"startTime":119.40866399999999,"endTime":119.48255549999999,"instrument":1,"isDrum":true},{"pitch":44,"velocity":80,"startTime":119.40866399999999,"endTime":119.48255549999999,"instrument":1,"isDrum":true},{"pitch":51,"velocity":80,"startTime":119.40866399999999,"endTime":119.48255549999999,"instrument":1,"isDrum":true},{"pitch":53,"velocity":80,"startTime":119.40866399999999,"endTime":119.48255549999999,"instrument":1,"isDrum":true},{"pitch":51,"velocity":80,"startTime":119.60570799999999,"endTime":119.6795995,"instrument":1,"isDrum":true},{"pitch":38,"velocity":80,"startTime":119.70423,"endTime":119.7781215,"instrument":1,"isDrum":true},{"pitch":44,"velocity":80,"startTime":119.70423,"endTime":119.7781215,"instrument":1,"isDrum":true},{"pitch":51,"velocity":80,"startTime":119.70423,"endTime":119.7781215,"instrument":1,"isDrum":true},{"pitch":53,"velocity":80,"startTime":119.70423,"endTime":119.7781215,"instrument":1,"isDrum":true},{"pitch":51,"velocity":80,"startTime":119.90127399999999,"endTime":119.97516549999999,"instrument":1,"isDrum":true},{"pitch":44,"velocity":80,"startTime":119.99979599999999,"endTime":120.07368749999999,"instrument":1,"isDrum":true},{"pitch":53,"velocity":80,"startTime":119.99979599999999,"endTime":120.07368749999999,"instrument":1,"isDrum":true},{"pitch":35,"velocity":80,"startTime":120.295362,"endTime":120.36925349999999,"instrument":1,"isDrum":true},{"pitch":44,"velocity":80,"startTime":120.295362,"endTime":120.36925349999999,"instrument":1,"isDrum":true},{"pitch":51,"velocity":80,"startTime":120.295362,"endTime":120.36925349999999,"instrument":1,"isDrum":true},{"pitch":53,"velocity":80,"startTime":120.295362,"endTime":120.36925349999999,"instrument":1,"isDrum":true},{"pitch":51,"velocity":80,"startTime":120.49240599999999,"endTime":120.56629749999999,"instrument":1,"isDrum":true},{"pitch":44,"velocity":80,"startTime":120.59092799999999,"endTime":120.6648195,"instrument":1,"isDrum":true},{"pitch":51,"velocity":80,"startTime":120.59092799999999,"endTime":120.6648195,"instrument":1,"isDrum":true},{"pitch":53,"velocity":80,"startTime":120.59092799999999,"endTime":120.6648195,"instrument":1,"isDrum":true},{"pitch":51,"velocity":80,"startTime":120.787972,"endTime":120.8618635,"instrument":1,"isDrum":true},{"pitch":44,"velocity":80,"startTime":120.88649399999998,"endTime":120.96038549999999,"instrument":1,"isDrum":true},{"pitch":51,"velocity":80,"startTime":120.88649399999998,"endTime":120.96038549999999,"instrument":1,"isDrum":true},{"pitch":53,"velocity":80,"startTime":120.88649399999998,"endTime":120.96038549999999,"instrument":1,"isDrum":true},{"pitch":51,"velocity":80,"startTime":121.08353799999999,"endTime":121.15742949999999,"instrument":1,"isDrum":true},{"pitch":43,"velocity":103,"startTime":113.497344,"endTime":113.71901849999999,"instrument":2,"program":32},{"pitch":31,"velocity":103,"startTime":113.71901849999999,"endTime":113.76827949999999,"instrument":2,"program":32},{"pitch":43,"velocity":103,"startTime":113.79290999999999,"endTime":114.08847599999999,"instrument":2,"program":32},{"pitch":50,"velocity":103,"startTime":114.08847599999999,"endTime":114.31015049999999,"instrument":2,"program":32},{"pitch":38,"velocity":103,"startTime":114.31015049999999,"endTime":114.3594115,"instrument":2,"program":32},{"pitch":43,"velocity":103,"startTime":114.384042,"endTime":114.60571649999999,"instrument":2,"program":32},{"pitch":38,"velocity":103,"startTime":114.60571649999999,"endTime":114.65497749999999,"instrument":2,"program":32},{"pitch":31,"velocity":103,"startTime":114.67960799999999,"endTime":114.9012825,"instrument":2,"program":32},{"pitch":31,"velocity":103,"startTime":114.9012825,"endTime":114.9505435,"instrument":2,"program":32},{"pitch":35,"velocity":103,"startTime":114.975174,"endTime":115.27073999999999,"instrument":2,"program":32},{"pitch":38,"velocity":103,"startTime":115.27073999999999,"endTime":115.4924145,"instrument":2,"program":32},{"pitch":26,"velocity":103,"startTime":115.4924145,"endTime":115.566306,"instrument":2,"program":32},{"pitch":31,"velocity":103,"startTime":115.566306,"endTime":115.83724149999999,"instrument":2,"program":32},{"pitch":40,"velocity":103,"startTime":115.86187199999999,"endTime":116.157438,"instrument":2,"program":32},{"pitch":35,"velocity":103,"startTime":116.157438,"endTime":116.37911249999999,"instrument":2,"program":32},{"pitch":35,"velocity":103,"startTime":116.37911249999999,"endTime":116.42837349999999,"instrument":2,"program":32},{"pitch":40,"velocity":103,"startTime":116.45300399999999,"endTime":116.74856999999999,"instrument":2,"program":32},{"pitch":47,"velocity":103,"startTime":116.74856999999999,"endTime":116.94561399999999,"instrument":2,"program":32},{"pitch":40,"velocity":103,"startTime":116.97024449999999,"endTime":117.0195055,"instrument":2,"program":32},{"pitch":28,"velocity":103,"startTime":117.044136,"endTime":117.33970199999999,"instrument":2,"program":32},{"pitch":35,"velocity":103,"startTime":117.33970199999999,"endTime":117.635268,"instrument":2,"program":32},{"pitch":40,"velocity":103,"startTime":117.635268,"endTime":117.83231199999999,"instrument":2,"program":32},{"pitch":35,"velocity":103,"startTime":117.85694249999999,"endTime":117.90620349999999,"instrument":2,"program":32},{"pitch":28,"velocity":103,"startTime":117.93083399999999,"endTime":118.2017695,"instrument":2,"program":32},{"pitch":36,"velocity":103,"startTime":118.2264,"endTime":118.52196599999999,"instrument":2,"program":32},{"pitch":40,"velocity":103,"startTime":118.52196599999999,"endTime":118.81753199999999,"instrument":2,"program":32},{"pitch":43,"velocity":103,"startTime":118.81753199999999,"endTime":119.113098,"instrument":2,"program":32},{"pitch":40,"velocity":103,"startTime":119.113098,"endTime":119.33477249999999,"instrument":2,"program":32},{"pitch":43,"velocity":103,"startTime":119.33477249999999,"endTime":119.38403349999999,"instrument":2,"program":32},{"pitch":38,"velocity":103,"startTime":119.40866399999999,"endTime":119.70423,"instrument":2,"program":32},{"pitch":33,"velocity":103,"startTime":119.70423,"endTime":119.99979599999999,"instrument":2,"program":32},{"pitch":38,"velocity":103,"startTime":119.99979599999999,"endTime":120.2214705,"instrument":2,"program":32},{"pitch":26,"velocity":103,"startTime":120.2214705,"endTime":120.2707315,"instrument":2,"program":32},{"pitch":38,"velocity":103,"startTime":120.295362,"endTime":120.59092799999999,"instrument":2,"program":32},{"pitch":31,"velocity":103,"startTime":120.59092799999999,"endTime":120.88649399999998,"instrument":2,"program":32},{"pitch":35,"velocity":103,"startTime":120.88649399999998,"endTime":121.18205999999999,"instrument":2,"program":32},{"pitch":38,"velocity":103,"startTime":121.18205999999999,"endTime":121.47762599999999,"instrument":2,"program":32},{"pitch":38,"velocity":103,"startTime":121.47762599999999,"endTime":121.773192,"instrument":2,"program":32},{"pitch":31,"velocity":103,"startTime":121.773192,"endTime":122.11801899999999,"instrument":2,"program":32},{"pitch":38,"velocity":103,"startTime":122.06875799999999,"endTime":122.364324,"instrument":2,"program":32},{"pitch":43,"velocity":103,"startTime":122.364324,"endTime":122.65988999999999,"instrument":2,"program":32},{"pitch":38,"velocity":103,"startTime":122.65988999999999,"endTime":122.8815645,"instrument":2,"program":32},{"pitch":31,"velocity":103,"startTime":122.8815645,"endTime":122.9308255,"instrument":2,"program":32},{"pitch":55,"velocity":57,"startTime":123.15249999999999,"endTime":123.25102199999999},{"pitch":58,"velocity":57,"startTime":123.15249999999999,"endTime":123.22639149999999},{"pitch":62,"velocity":57,"startTime":123.15249999999999,"endTime":123.22639149999999},{"pitch":53,"velocity":57,"startTime":123.27565249999999,"endTime":123.3741745},{"pitch":59,"velocity":57,"startTime":123.27565249999999,"endTime":123.349544},{"pitch":62,"velocity":57,"startTime":123.27565249999999,"endTime":123.3741745},{"pitch":57,"velocity":57,"startTime":123.76826249999999,"endTime":123.842154},{"pitch":62,"velocity":57,"startTime":123.76826249999999,"endTime":123.842154},{"pitch":69,"velocity":57,"startTime":123.76826249999999,"endTime":123.8175235},{"pitch":43,"velocity":57,"startTime":124.13771999999999,"endTime":125.29535349999999},{"pitch":59,"velocity":57,"startTime":124.13771999999999,"endTime":125.29535349999999},{"pitch":52,"velocity":57,"startTime":124.16235049999999,"endTime":125.29535349999999},{"pitch":57,"velocity":57,"startTime":124.16235049999999,"endTime":125.29535349999999},{"pitch":40,"velocity":57,"startTime":125.31998399999999,"endTime":125.4431365},{"pitch":57,"velocity":57,"startTime":125.31998399999999,"endTime":125.4431365},{"pitch":62,"velocity":57,"startTime":125.31998399999999,"endTime":125.418506},{"pitch":66,"velocity":57,"startTime":125.31998399999999,"endTime":125.418506},{"pitch":40,"velocity":57,"startTime":126.502248,"endTime":127.6598815},{"pitch":55,"velocity":57,"startTime":126.502248,"endTime":127.6598815},{"pitch":59,"velocity":57,"startTime":126.502248,"endTime":127.6598815},{"pitch":52,"velocity":57,"startTime":126.5268785,"endTime":127.6598815},{"pitch":59,"velocity":57,"startTime":127.684512,"endTime":127.80766449999999},{"pitch":60,"velocity":57,"startTime":127.684512,"endTime":127.80766449999999},{"pitch":64,"velocity":57,"startTime":127.684512,"endTime":127.78303399999999},{"pitch":67,"velocity":57,"startTime":127.684512,"endTime":127.78303399999999},{"pitch":59,"velocity":57,"startTime":128.3002745,"endTime":128.374166},{"pitch":60,"velocity":57,"startTime":128.3002745,"endTime":128.374166},{"pitch":64,"velocity":57,"startTime":128.3002745,"endTime":128.374166},{"pitch":67,"velocity":57,"startTime":128.3002745,"endTime":128.374166},{"pitch":57,"velocity":57,"startTime":128.866776,"endTime":130.0244095},{"pitch":64,"velocity":57,"startTime":128.866776,"endTime":130.0244095},{"pitch":50,"velocity":57,"startTime":128.8914065,"endTime":130.0244095},{"pitch":57,"velocity":57,"startTime":128.8914065,"endTime":130.0244095},{"pitch":43,"velocity":57,"startTime":130.04904,"endTime":130.147562},{"pitch":57,"velocity":57,"startTime":130.04904,"endTime":130.147562},{"pitch":59,"velocity":57,"startTime":130.04904,"endTime":130.1721925},{"pitch":62,"velocity":57,"startTime":130.04904,"endTime":130.1721925},{"pitch":57,"velocity":57,"startTime":130.86184649999998,"endTime":130.9603685},{"pitch":59,"velocity":57,"startTime":130.86184649999998,"endTime":130.9603685},{"pitch":62,"velocity":57,"startTime":130.86184649999998,"endTime":130.9603685},{"pitch":69,"velocity":57,"startTime":130.86184649999998,"endTime":130.935738},{"pitch":43,"velocity":57,"startTime":131.231304,"endTime":131.329826},{"pitch":57,"velocity":57,"startTime":131.231304,"endTime":131.3544565},{"pitch":59,"velocity":57,"startTime":131.231304,"endTime":131.329826},{"pitch":62,"velocity":57,"startTime":131.231304,"endTime":131.329826},{"pitch":55,"velocity":57,"startTime":131.82243599999998,"endTime":131.92095799999998},{"pitch":59,"velocity":57,"startTime":131.82243599999998,"endTime":131.92095799999998},{"pitch":62,"velocity":57,"startTime":131.82243599999998,"endTime":131.92095799999998},{"pitch":35,"velocity":80,"startTime":122.955456,"endTime":123.00471699999999,"instrument":1,"isDrum":true},{"pitch":44,"velocity":80,"startTime":122.955456,"endTime":123.00471699999999,"instrument":1,"isDrum":true},{"pitch":51,"velocity":80,"startTime":122.955456,"endTime":123.00471699999999,"instrument":1,"isDrum":true},{"pitch":53,"velocity":80,"startTime":122.955456,"endTime":123.00471699999999,"instrument":1,"isDrum":true},{"pitch":56,"velocity":80,"startTime":122.955456,"endTime":123.00471699999999,"instrument":1,"isDrum":true},{"pitch":53,"velocity":80,"startTime":123.15249999999999,"endTime":123.22639149999999,"instrument":1,"isDrum":true},{"pitch":44,"velocity":80,"startTime":123.25102199999999,"endTime":123.300283,"instrument":1,"isDrum":true},{"pitch":51,"velocity":80,"startTime":123.25102199999999,"endTime":123.300283,"instrument":1,"isDrum":true},{"pitch":54,"velocity":80,"startTime":123.25102199999999,"endTime":123.300283,"instrument":1,"isDrum":true},{"pitch":56,"velocity":80,"startTime":123.25102199999999,"endTime":123.300283,"instrument":1,"isDrum":true},{"pitch":53,"velocity":80,"startTime":123.448066,"endTime":123.52195749999998,"instrument":1,"isDrum":true},{"pitch":35,"velocity":80,"startTime":123.54658799999999,"endTime":123.59584899999999,"instrument":1,"isDrum":true},{"pitch":44,"velocity":80,"startTime":123.54658799999999,"endTime":123.59584899999999,"instrument":1,"isDrum":true},{"pitch":51,"velocity":80,"startTime":123.54658799999999,"endTime":123.59584899999999,"instrument":1,"isDrum":true},{"pitch":53,"velocity":80,"startTime":123.54658799999999,"endTime":123.59584899999999,"instrument":1,"isDrum":true},{"pitch":56,"velocity":80,"startTime":123.54658799999999,"endTime":123.59584899999999,"instrument":1,"isDrum":true},{"pitch":51,"velocity":80,"startTime":123.74363199999999,"endTime":123.8175235,"instrument":1,"isDrum":true},{"pitch":38,"velocity":80,"startTime":123.842154,"endTime":123.891415,"instrument":1,"isDrum":true},{"pitch":44,"velocity":80,"startTime":123.842154,"endTime":123.891415,"instrument":1,"isDrum":true},{"pitch":51,"velocity":80,"startTime":123.842154,"endTime":123.891415,"instrument":1,"isDrum":true},{"pitch":53,"velocity":80,"startTime":123.842154,"endTime":123.891415,"instrument":1,"isDrum":true},{"pitch":56,"velocity":80,"startTime":123.842154,"endTime":123.891415,"instrument":1,"isDrum":true},{"pitch":51,"velocity":80,"startTime":124.03919799999998,"endTime":124.11308949999999,"instrument":1,"isDrum":true},{"pitch":44,"velocity":80,"startTime":124.13771999999999,"endTime":124.18698099999999,"instrument":1,"isDrum":true},{"pitch":51,"velocity":80,"startTime":124.13771999999999,"endTime":124.18698099999999,"instrument":1,"isDrum":true},{"pitch":53,"velocity":80,"startTime":124.13771999999999,"endTime":124.18698099999999,"instrument":1,"isDrum":true},{"pitch":56,"velocity":80,"startTime":124.13771999999999,"endTime":124.18698099999999,"instrument":1,"isDrum":true},{"pitch":35,"velocity":80,"startTime":124.33476399999999,"endTime":124.4086555,"instrument":1,"isDrum":true},{"pitch":51,"velocity":80,"startTime":124.33476399999999,"endTime":124.4086555,"instrument":1,"isDrum":true},{"pitch":35,"velocity":80,"startTime":124.433286,"endTime":124.482547,"instrument":1,"isDrum":true},{"pitch":44,"velocity":80,"startTime":124.433286,"endTime":124.482547,"instrument":1,"isDrum":true},{"pitch":51,"velocity":80,"startTime":124.433286,"endTime":124.482547,"instrument":1,"isDrum":true},{"pitch":53,"velocity":80,"startTime":124.433286,"endTime":124.482547,"instrument":1,"isDrum":true},{"pitch":51,"velocity":80,"startTime":124.63032999999999,"endTime":124.70422149999999,"instrument":1,"isDrum":true},{"pitch":35,"velocity":80,"startTime":124.72885199999999,"endTime":124.77811299999999,"instrument":1,"isDrum":true},{"pitch":44,"velocity":80,"startTime":124.72885199999999,"endTime":124.77811299999999,"instrument":1,"isDrum":true},{"pitch":51,"velocity":80,"startTime":124.72885199999999,"endTime":124.77811299999999,"instrument":1,"isDrum":true},{"pitch":53,"velocity":80,"startTime":124.72885199999999,"endTime":124.77811299999999,"instrument":1,"isDrum":true},{"pitch":56,"velocity":80,"startTime":124.72885199999999,"endTime":124.77811299999999,"instrument":1,"isDrum":true},{"pitch":51,"velocity":80,"startTime":124.925896,"endTime":124.9997875,"instrument":1,"isDrum":true},{"pitch":38,"velocity":80,"startTime":125.024418,"endTime":125.07367899999998,"instrument":1,"isDrum":true},{"pitch":44,"velocity":80,"startTime":125.024418,"endTime":125.07367899999998,"instrument":1,"isDrum":true},{"pitch":51,"velocity":80,"startTime":125.024418,"endTime":125.07367899999998,"instrument":1,"isDrum":true},{"pitch":53,"velocity":80,"startTime":125.024418,"endTime":125.07367899999998,"instrument":1,"isDrum":true},{"pitch":56,"velocity":80,"startTime":125.024418,"endTime":125.07367899999998,"instrument":1,"isDrum":true},{"pitch":51,"velocity":80,"startTime":125.22146199999999,"endTime":125.29535349999999,"instrument":1,"isDrum":true},{"pitch":44,"velocity":80,"startTime":125.31998399999999,"endTime":125.36924499999999,"instrument":1,"isDrum":true},{"pitch":53,"velocity":80,"startTime":125.31998399999999,"endTime":125.36924499999999,"instrument":1,"isDrum":true},{"pitch":54,"velocity":80,"startTime":125.31998399999999,"endTime":125.36924499999999,"instrument":1,"isDrum":true},{"pitch":35,"velocity":80,"startTime":125.517028,"endTime":125.5909195,"instrument":1,"isDrum":true},{"pitch":35,"velocity":80,"startTime":125.61554999999998,"endTime":125.66481099999999,"instrument":1,"isDrum":true},{"pitch":44,"velocity":80,"startTime":125.61554999999998,"endTime":125.66481099999999,"instrument":1,"isDrum":true},{"pitch":53,"velocity":80,"startTime":125.61554999999998,"endTime":125.66481099999999,"instrument":1,"isDrum":true},{"pitch":54,"velocity":80,"startTime":125.61554999999998,"endTime":125.66481099999999,"instrument":1,"isDrum":true},{"pitch":35,"velocity":80,"startTime":125.81259399999999,"endTime":125.88648549999999,"instrument":1,"isDrum":true},{"pitch":51,"velocity":80,"startTime":125.81259399999999,"endTime":125.88648549999999,"instrument":1,"isDrum":true},{"pitch":35,"velocity":80,"startTime":125.91111599999999,"endTime":125.960377,"instrument":1,"isDrum":true},{"pitch":44,"velocity":80,"startTime":125.91111599999999,"endTime":125.960377,"instrument":1,"isDrum":true},{"pitch":51,"velocity":80,"startTime":125.91111599999999,"endTime":125.960377,"instrument":1,"isDrum":true},{"pitch":53,"velocity":80,"startTime":125.91111599999999,"endTime":125.960377,"instrument":1,"isDrum":true},{"pitch":51,"velocity":80,"startTime":126.10816,"endTime":126.18205149999999,"instrument":1,"isDrum":true},{"pitch":38,"velocity":80,"startTime":126.20668199999999,"endTime":126.25594299999999,"instrument":1,"isDrum":true},{"pitch":44,"velocity":80,"startTime":126.20668199999999,"endTime":126.25594299999999,"instrument":1,"isDrum":true},{"pitch":51,"velocity":80,"startTime":126.20668199999999,"endTime":126.25594299999999,"instrument":1,"isDrum":true},{"pitch":53,"velocity":80,"startTime":126.20668199999999,"endTime":126.25594299999999,"instrument":1,"isDrum":true},{"pitch":56,"velocity":80,"startTime":126.20668199999999,"endTime":126.25594299999999,"instrument":1,"isDrum":true},{"pitch":51,"velocity":80,"startTime":126.40372599999999,"endTime":126.4776175,"instrument":1,"isDrum":true},{"pitch":44,"velocity":80,"startTime":126.502248,"endTime":126.551509,"instrument":1,"isDrum":true},{"pitch":53,"velocity":80,"startTime":126.502248,"endTime":126.551509,"instrument":1,"isDrum":true},{"pitch":54,"velocity":80,"startTime":126.502248,"endTime":126.551509,"instrument":1,"isDrum":true},{"pitch":35,"velocity":80,"startTime":126.69929199999999,"endTime":126.77318349999999,"instrument":1,"isDrum":true},{"pitch":44,"velocity":80,"startTime":126.79781399999999,"endTime":126.84707499999999,"instrument":1,"isDrum":true},{"pitch":51,"velocity":80,"startTime":126.79781399999999,"endTime":126.84707499999999,"instrument":1,"isDrum":true},{"pitch":54,"velocity":80,"startTime":126.79781399999999,"endTime":126.84707499999999,"instrument":1,"isDrum":true},{"pitch":56,"velocity":80,"startTime":126.79781399999999,"endTime":126.84707499999999,"instrument":1,"isDrum":true},{"pitch":35,"velocity":80,"startTime":126.994858,"endTime":127.0687495,"instrument":1,"isDrum":true},{"pitch":38,"velocity":80,"startTime":126.994858,"endTime":127.0687495,"instrument":1,"isDrum":true},{"pitch":35,"velocity":80,"startTime":127.09338,"endTime":127.142641,"instrument":1,"isDrum":true},{"pitch":44,"velocity":80,"startTime":127.09338,"endTime":127.142641,"instrument":1,"isDrum":true},{"pitch":51,"velocity":80,"startTime":127.09338,"endTime":127.142641,"instrument":1,"isDrum":true},{"pitch":53,"velocity":80,"startTime":127.09338,"endTime":127.142641,"instrument":1,"isDrum":true},{"pitch":51,"velocity":80,"startTime":127.29042399999999,"endTime":127.36431549999999,"instrument":1,"isDrum":true},{"pitch":38,"velocity":80,"startTime":127.38894599999999,"endTime":127.43820699999999,"instrument":1,"isDrum":true},{"pitch":44,"velocity":80,"startTime":127.38894599999999,"endTime":127.43820699999999,"instrument":1,"isDrum":true},{"pitch":51,"velocity":80,"startTime":127.38894599999999,"endTime":127.43820699999999,"instrument":1,"isDrum":true},{"pitch":53,"velocity":80,"startTime":127.38894599999999,"endTime":127.43820699999999,"instrument":1,"isDrum":true},{"pitch":56,"velocity":80,"startTime":127.38894599999999,"endTime":127.43820699999999,"instrument":1,"isDrum":true},{"pitch":35,"velocity":80,"startTime":127.58599,"endTime":127.6598815,"instrument":1,"isDrum":true},{"pitch":53,"velocity":80,"startTime":127.58599,"endTime":127.6598815,"instrument":1,"isDrum":true},{"pitch":44,"velocity":80,"startTime":127.684512,"endTime":127.73377299999999,"instrument":1,"isDrum":true},{"pitch":51,"velocity":80,"startTime":127.684512,"endTime":127.73377299999999,"instrument":1,"isDrum":true},{"pitch":53,"velocity":80,"startTime":127.684512,"endTime":127.73377299999999,"instrument":1,"isDrum":true},{"pitch":56,"velocity":80,"startTime":127.684512,"endTime":127.73377299999999,"instrument":1,"isDrum":true},{"pitch":35,"velocity":80,"startTime":127.88155599999999,"endTime":127.95544749999999,"instrument":1,"isDrum":true},{"pitch":38,"velocity":80,"startTime":127.88155599999999,"endTime":127.95544749999999,"instrument":1,"isDrum":true},{"pitch":51,"velocity":80,"startTime":127.88155599999999,"endTime":127.95544749999999,"instrument":1,"isDrum":true},{"pitch":35,"velocity":80,"startTime":127.98007799999999,"endTime":128.029339,"instrument":1,"isDrum":true},{"pitch":44,"velocity":80,"startTime":127.98007799999999,"endTime":128.029339,"instrument":1,"isDrum":true},{"pitch":51,"velocity":80,"startTime":127.98007799999999,"endTime":128.029339,"instrument":1,"isDrum":true},{"pitch":53,"velocity":80,"startTime":127.98007799999999,"endTime":128.029339,"instrument":1,"isDrum":true},{"pitch":56,"velocity":80,"startTime":127.98007799999999,"endTime":128.029339,"instrument":1,"isDrum":true},{"pitch":53,"velocity":80,"startTime":128.177122,"endTime":128.2510135,"instrument":1,"isDrum":true},{"pitch":35,"velocity":80,"startTime":128.275644,"endTime":128.324905,"instrument":1,"isDrum":true},{"pitch":44,"velocity":80,"startTime":128.275644,"endTime":128.324905,"instrument":1,"isDrum":true},{"pitch":51,"velocity":80,"startTime":128.275644,"endTime":128.324905,"instrument":1,"isDrum":true},{"pitch":53,"velocity":80,"startTime":128.275644,"endTime":128.324905,"instrument":1,"isDrum":true},{"pitch":51,"velocity":80,"startTime":128.472688,"endTime":128.54657949999998,"instrument":1,"isDrum":true},{"pitch":38,"velocity":80,"startTime":128.57120999999998,"endTime":128.62047099999998,"instrument":1,"isDrum":true},{"pitch":44,"velocity":80,"startTime":128.57120999999998,"endTime":128.62047099999998,"instrument":1,"isDrum":true},{"pitch":51,"velocity":80,"startTime":128.57120999999998,"endTime":128.62047099999998,"instrument":1,"isDrum":true},{"pitch":53,"velocity":80,"startTime":128.57120999999998,"endTime":128.62047099999998,"instrument":1,"isDrum":true},{"pitch":56,"velocity":80,"startTime":128.57120999999998,"endTime":128.62047099999998,"instrument":1,"isDrum":true},{"pitch":53,"velocity":80,"startTime":128.76825399999998,"endTime":128.8421455,"instrument":1,"isDrum":true},{"pitch":44,"velocity":80,"startTime":128.866776,"endTime":128.916037,"instrument":1,"isDrum":true},{"pitch":51,"velocity":80,"startTime":128.866776,"endTime":128.916037,"instrument":1,"isDrum":true},{"pitch":53,"velocity":80,"startTime":128.866776,"endTime":128.916037,"instrument":1,"isDrum":true},{"pitch":56,"velocity":80,"startTime":128.866776,"endTime":128.916037,"instrument":1,"isDrum":true},{"pitch":35,"velocity":80,"startTime":129.06382,"endTime":129.1377115,"instrument":1,"isDrum":true},{"pitch":53,"velocity":80,"startTime":129.06382,"endTime":129.1377115,"instrument":1,"isDrum":true},{"pitch":35,"velocity":80,"startTime":129.162342,"endTime":129.211603,"instrument":1,"isDrum":true},{"pitch":44,"velocity":80,"startTime":129.162342,"endTime":129.211603,"instrument":1,"isDrum":true},{"pitch":51,"velocity":80,"startTime":129.162342,"endTime":129.211603,"instrument":1,"isDrum":true},{"pitch":53,"velocity":80,"startTime":129.162342,"endTime":129.211603,"instrument":1,"isDrum":true},{"pitch":54,"velocity":80,"startTime":129.162342,"endTime":129.211603,"instrument":1,"isDrum":true},{"pitch":35,"velocity":80,"startTime":129.359386,"endTime":129.4332775,"instrument":1,"isDrum":true},{"pitch":53,"velocity":80,"startTime":129.359386,"endTime":129.4332775,"instrument":1,"isDrum":true},{"pitch":35,"velocity":80,"startTime":129.457908,"endTime":129.507169,"instrument":1,"isDrum":true},{"pitch":44,"velocity":80,"startTime":129.457908,"endTime":129.507169,"instrument":1,"isDrum":true},{"pitch":51,"velocity":80,"startTime":129.457908,"endTime":129.507169,"instrument":1,"isDrum":true},{"pitch":53,"velocity":80,"startTime":129.457908,"endTime":129.507169,"instrument":1,"isDrum":true},{"pitch":51,"velocity":80,"startTime":129.65495199999998,"endTime":129.72884349999998,"instrument":1,"isDrum":true},{"pitch":38,"velocity":80,"startTime":129.75347399999998,"endTime":129.80273499999998,"instrument":1,"isDrum":true},{"pitch":44,"velocity":80,"startTime":129.75347399999998,"endTime":129.80273499999998,"instrument":1,"isDrum":true},{"pitch":51,"velocity":80,"startTime":129.75347399999998,"endTime":129.80273499999998,"instrument":1,"isDrum":true},{"pitch":53,"velocity":80,"startTime":129.75347399999998,"endTime":129.80273499999998,"instrument":1,"isDrum":true},{"pitch":56,"velocity":80,"startTime":129.75347399999998,"endTime":129.80273499999998,"instrument":1,"isDrum":true},{"pitch":53,"velocity":80,"startTime":129.950518,"endTime":130.0244095,"instrument":1,"isDrum":true},{"pitch":44,"velocity":80,"startTime":130.04904,"endTime":130.098301,"instrument":1,"isDrum":true},{"pitch":51,"velocity":80,"startTime":130.04904,"endTime":130.098301,"instrument":1,"isDrum":true},{"pitch":53,"velocity":80,"startTime":130.04904,"endTime":130.098301,"instrument":1,"isDrum":true},{"pitch":35,"velocity":80,"startTime":130.246084,"endTime":130.3199755,"instrument":1,"isDrum":true},{"pitch":51,"velocity":80,"startTime":130.246084,"endTime":130.3199755,"instrument":1,"isDrum":true},{"pitch":35,"velocity":80,"startTime":130.344606,"endTime":130.393867,"instrument":1,"isDrum":true},{"pitch":44,"velocity":80,"startTime":130.344606,"endTime":130.393867,"instrument":1,"isDrum":true},{"pitch":53,"velocity":80,"startTime":130.344606,"endTime":130.393867,"instrument":1,"isDrum":true},{"pitch":54,"velocity":80,"startTime":130.344606,"endTime":130.393867,"instrument":1,"isDrum":true},{"pitch":56,"velocity":80,"startTime":130.344606,"endTime":130.393867,"instrument":1,"isDrum":true},{"pitch":51,"velocity":80,"startTime":130.54165,"endTime":130.61554149999998,"instrument":1,"isDrum":true},{"pitch":31,"velocity":103,"startTime":122.955456,"endTime":123.300283,"instrument":2,"program":32},{"pitch":38,"velocity":103,"startTime":123.25102199999999,"endTime":123.842154,"instrument":2,"program":32},{"pitch":38,"velocity":103,"startTime":123.54658799999999,"endTime":123.57121849999999,"instrument":2,"program":32},{"pitch":35,"velocity":103,"startTime":123.842154,"endTime":124.13771999999999,"instrument":2,"program":32},{"pitch":31,"velocity":103,"startTime":124.13771999999999,"endTime":124.482547,"instrument":2,"program":32},{"pitch":35,"velocity":103,"startTime":124.433286,"endTime":125.0490485,"instrument":2,"program":32},{"pitch":35,"velocity":103,"startTime":124.72885199999999,"endTime":124.75348249999999,"instrument":2,"program":32},{"pitch":38,"velocity":103,"startTime":125.024418,"endTime":125.31998399999999,"instrument":2,"program":32},{"pitch":40,"velocity":103,"startTime":125.31998399999999,"endTime":125.5909195,"instrument":2,"program":32},{"pitch":35,"velocity":103,"startTime":125.5416585,"endTime":125.61554999999998,"instrument":2,"program":32},{"pitch":40,"velocity":103,"startTime":125.61554999999998,"endTime":125.91111599999999,"instrument":2,"program":32},{"pitch":35,"velocity":103,"startTime":125.91111599999999,"endTime":126.13279049999998,"instrument":2,"program":32},{"pitch":23,"velocity":103,"startTime":126.13279049999998,"endTime":126.20668199999999,"instrument":2,"program":32},{"pitch":35,"velocity":103,"startTime":126.20668199999999,"endTime":126.502248,"instrument":2,"program":32},{"pitch":28,"velocity":103,"startTime":126.502248,"endTime":126.79781399999999,"instrument":2,"program":32},{"pitch":35,"velocity":103,"startTime":126.79781399999999,"endTime":127.09338,"instrument":2,"program":32},{"pitch":35,"velocity":103,"startTime":127.09338,"endTime":127.38894599999999,"instrument":2,"program":32},{"pitch":35,"velocity":103,"startTime":127.38894599999999,"endTime":127.58599,"instrument":2,"program":32},{"pitch":38,"velocity":103,"startTime":127.6106205,"endTime":127.684512,"instrument":2,"program":32},{"pitch":36,"velocity":103,"startTime":127.684512,"endTime":127.98007799999999,"instrument":2,"program":32},{"pitch":40,"velocity":103,"startTime":127.98007799999999,"endTime":128.275644,"instrument":2,"program":32},{"pitch":43,"velocity":103,"startTime":128.275644,"endTime":128.57120999999998,"instrument":2,"program":32},{"pitch":40,"velocity":103,"startTime":128.57120999999998,"endTime":128.866776,"instrument":2,"program":32},{"pitch":38,"velocity":103,"startTime":128.866776,"endTime":129.162342,"instrument":2,"program":32},{"pitch":40,"velocity":103,"startTime":129.162342,"endTime":129.457908,"instrument":2,"program":32},{"pitch":45,"velocity":103,"startTime":129.457908,"endTime":129.75347399999998,"instrument":2,"program":32},{"pitch":45,"velocity":103,"startTime":129.75347399999998,"endTime":130.04904,"instrument":2,"program":32},{"pitch":43,"velocity":103,"startTime":130.04904,"endTime":130.246084,"instrument":2,"program":32},{"pitch":38,"velocity":103,"startTime":130.2707145,"endTime":130.3199755,"instrument":2,"program":32},{"pitch":43,"velocity":103,"startTime":130.344606,"endTime":130.64017199999998,"instrument":2,"program":32},{"pitch":47,"velocity":103,"startTime":130.64017199999998,"endTime":130.935738,"instrument":2,"program":32},{"pitch":43,"velocity":103,"startTime":130.935738,"endTime":131.231304,"instrument":2,"program":32},{"pitch":43,"velocity":103,"startTime":131.231304,"endTime":131.576131,"instrument":2,"program":32},{"pitch":38,"velocity":103,"startTime":131.52687,"endTime":131.84706649999998,"instrument":2,"program":32},{"pitch":43,"velocity":103,"startTime":131.82243599999998,"endTime":132.413568,"instrument":2,"program":32},{"pitch":43,"velocity":103,"startTime":132.118002,"endTime":132.1426325,"instrument":2,"program":32},{"pitch":43,"velocity":57,"startTime":132.4381985,"endTime":132.5367205},{"pitch":67,"velocity":57,"startTime":132.4381985,"endTime":132.561351},{"pitch":59,"velocity":57,"startTime":132.462829,"endTime":132.5367205},{"pitch":62,"velocity":57,"startTime":132.462829,"endTime":132.5367205},{"pitch":38,"velocity":57,"startTime":132.93080849999998,"endTime":132.98006949999998},{"pitch":43,"velocity":57,"startTime":133.0293305,"endTime":133.103222},{"pitch":55,"velocity":57,"startTime":133.0293305,"endTime":133.0785915},{"pitch":62,"velocity":57,"startTime":133.0293305,"endTime":133.103222},{"pitch":67,"velocity":57,"startTime":133.0293305,"endTime":133.103222},{"pitch":43,"velocity":57,"startTime":133.5219405,"endTime":133.595832},{"pitch":43,"velocity":57,"startTime":133.694354,"endTime":133.7189845},{"pitch":57,"velocity":57,"startTime":133.81750649999998,"endTime":133.91602849999998},{"pitch":43,"velocity":57,"startTime":133.84213699999998,"endTime":133.89139799999998},{"pitch":59,"velocity":57,"startTime":133.84213699999998,"endTime":133.91602849999998},{"pitch":67,"velocity":57,"startTime":133.84213699999998,"endTime":133.91602849999998},{"pitch":43,"velocity":57,"startTime":134.1130725,"endTime":134.2115945},{"pitch":57,"velocity":57,"startTime":134.7042045,"endTime":134.77809599999998},{"pitch":62,"velocity":57,"startTime":134.7042045,"endTime":134.77809599999998},{"pitch":66,"velocity":57,"startTime":134.7042045,"endTime":134.77809599999998},{"pitch":40,"velocity":57,"startTime":134.80272649999998,"endTime":134.85198749999998},{"pitch":52,"velocity":57,"startTime":134.85198749999998,"endTime":134.92587899999998},{"pitch":60,"velocity":57,"startTime":134.87661799999998,"endTime":134.92587899999998},{"pitch":50,"velocity":57,"startTime":135.2953365,"endTime":135.3445975},{"pitch":60,"velocity":57,"startTime":135.5909025,"endTime":135.615533},{"pitch":40,"velocity":57,"startTime":135.664794,"endTime":135.7879465},{"pitch":50,"velocity":57,"startTime":135.6894245,"endTime":135.7879465},{"pitch":55,"velocity":57,"startTime":135.6894245,"endTime":135.7879465},{"pitch":59,"velocity":57,"startTime":135.6894245,"endTime":135.763316},{"pitch":40,"velocity":57,"startTime":136.1820345,"endTime":136.206665},{"pitch":52,"velocity":57,"startTime":136.255926,"endTime":136.3298175},{"pitch":59,"velocity":57,"startTime":136.255926,"endTime":136.354448},{"pitch":66,"velocity":57,"startTime":136.255926,"endTime":136.3790785},{"pitch":52,"velocity":57,"startTime":136.7731665,"endTime":136.797797},{"pitch":59,"velocity":57,"startTime":136.847058,"endTime":136.97021049999998},{"pitch":66,"velocity":57,"startTime":136.847058,"endTime":136.94557999999998},{"pitch":36,"velocity":57,"startTime":137.14262399999998,"endTime":137.21651549999999},{"pitch":59,"velocity":57,"startTime":137.14262399999998,"endTime":137.19188499999998},{"pitch":55,"velocity":57,"startTime":137.16725449999998,"endTime":137.21651549999999},{"pitch":38,"velocity":57,"startTime":138.324888,"endTime":138.42341},{"pitch":60,"velocity":57,"startTime":138.324888,"endTime":138.3987795},{"pitch":64,"velocity":57,"startTime":138.324888,"endTime":138.42341},{"pitch":67,"velocity":57,"startTime":138.324888,"endTime":138.42341},{"pitch":38,"velocity":57,"startTime":138.8421285,"endTime":138.866759},{"pitch":60,"velocity":57,"startTime":138.91602,"endTime":139.08843349999998},{"pitch":64,"velocity":57,"startTime":138.91602,"endTime":139.08843349999998},{"pitch":67,"velocity":57,"startTime":138.91602,"endTime":139.08843349999998},{"pitch":40,"velocity":57,"startTime":139.13769449999998,"endTime":139.18695549999998},{"pitch":57,"velocity":57,"startTime":139.23621649999998,"endTime":139.359369},{"pitch":64,"velocity":57,"startTime":139.23621649999998,"endTime":139.359369},{"pitch":67,"velocity":57,"startTime":139.23621649999998,"endTime":139.359369},{"pitch":43,"velocity":57,"startTime":139.507152,"endTime":139.605674},{"pitch":62,"velocity":57,"startTime":139.507152,"endTime":139.6303045},{"pitch":55,"velocity":57,"startTime":139.5317825,"endTime":139.6303045},{"pitch":59,"velocity":57,"startTime":139.5317825,"endTime":139.6303045},{"pitch":55,"velocity":57,"startTime":140.29532799999998,"endTime":140.34458899999998},{"pitch":59,"velocity":57,"startTime":140.39385,"endTime":140.492372},{"pitch":64,"velocity":57,"startTime":140.39385,"endTime":140.5170025},{"pitch":67,"velocity":57,"startTime":140.39385,"endTime":140.492372},{"pitch":43,"velocity":57,"startTime":140.689416,"endTime":140.7633075},{"pitch":53,"velocity":57,"startTime":140.9110905,"endTime":140.935721},{"pitch":43,"velocity":57,"startTime":140.984982,"endTime":141.08350399999998},{"pitch":59,"velocity":57,"startTime":140.984982,"endTime":141.08350399999998},{"pitch":65,"velocity":57,"startTime":140.984982,"endTime":141.10813449999998},{"pitch":43,"velocity":57,"startTime":141.30517849999998,"endTime":141.37906999999998},{"pitch":59,"velocity":57,"startTime":141.30517849999998,"endTime":141.37906999999998},{"pitch":65,"velocity":57,"startTime":141.30517849999998,"endTime":141.40370049999999},{"pitch":69,"velocity":57,"startTime":141.30517849999998,"endTime":141.40370049999999},{"pitch":35,"velocity":80,"startTime":132.413568,"endTime":132.4381985,"instrument":1,"isDrum":true},{"pitch":44,"velocity":80,"startTime":132.413568,"endTime":132.4381985,"instrument":1,"isDrum":true},{"pitch":51,"velocity":80,"startTime":132.413568,"endTime":132.4381985,"instrument":1,"isDrum":true},{"pitch":53,"velocity":80,"startTime":132.413568,"endTime":132.4381985,"instrument":1,"isDrum":true},{"pitch":35,"velocity":80,"startTime":132.70913399999998,"endTime":132.75839499999998,"instrument":1,"isDrum":true},{"pitch":44,"velocity":80,"startTime":132.70913399999998,"endTime":132.73376449999998,"instrument":1,"isDrum":true},{"pitch":51,"velocity":80,"startTime":132.70913399999998,"endTime":132.90617799999998,"instrument":1,"isDrum":true},{"pitch":53,"velocity":80,"startTime":132.70913399999998,"endTime":132.73376449999998,"instrument":1,"isDrum":true},{"pitch":51,"velocity":80,"startTime":132.90617799999998,"endTime":133.103222,"instrument":1,"isDrum":true},{"pitch":35,"velocity":80,"startTime":133.00469999999999,"endTime":133.053961,"instrument":1,"isDrum":true},{"pitch":44,"velocity":80,"startTime":133.00469999999999,"endTime":133.0293305,"instrument":1,"isDrum":true},{"pitch":51,"velocity":80,"startTime":133.201744,"endTime":133.3248965,"instrument":1,"isDrum":true},{"pitch":35,"velocity":80,"startTime":133.300266,"endTime":133.3248965,"instrument":1,"isDrum":true},{"pitch":44,"velocity":80,"startTime":133.300266,"endTime":133.3248965,"instrument":1,"isDrum":true},{"pitch":35,"velocity":80,"startTime":133.49731,"endTime":133.5219405,"instrument":1,"isDrum":true},{"pitch":44,"velocity":80,"startTime":133.49731,"endTime":133.5219405,"instrument":1,"isDrum":true},{"pitch":51,"velocity":80,"startTime":133.49731,"endTime":133.5219405,"instrument":1,"isDrum":true},{"pitch":35,"velocity":80,"startTime":133.595832,"endTime":133.6204625,"instrument":1,"isDrum":true},{"pitch":44,"velocity":80,"startTime":133.595832,"endTime":133.6204625,"instrument":1,"isDrum":true},{"pitch":51,"velocity":80,"startTime":133.595832,"endTime":133.6204625,"instrument":1,"isDrum":true},{"pitch":51,"velocity":80,"startTime":133.79287599999998,"endTime":133.81750649999998,"instrument":1,"isDrum":true},{"pitch":35,"velocity":80,"startTime":133.89139799999998,"endTime":133.91602849999998,"instrument":1,"isDrum":true},{"pitch":44,"velocity":80,"startTime":133.89139799999998,"endTime":133.91602849999998,"instrument":1,"isDrum":true},{"pitch":51,"velocity":80,"startTime":133.89139799999998,"endTime":133.91602849999998,"instrument":1,"isDrum":true},{"pitch":53,"velocity":80,"startTime":133.89139799999998,"endTime":133.91602849999998,"instrument":1,"isDrum":true},{"pitch":35,"velocity":80,"startTime":134.186964,"endTime":134.2115945,"instrument":1,"isDrum":true},{"pitch":44,"velocity":80,"startTime":134.186964,"endTime":134.2115945,"instrument":1,"isDrum":true},{"pitch":51,"velocity":80,"startTime":134.186964,"endTime":134.2115945,"instrument":1,"isDrum":true},{"pitch":51,"velocity":80,"startTime":134.384008,"endTime":134.4086385,"instrument":1,"isDrum":true},{"pitch":35,"velocity":80,"startTime":134.48253,"endTime":134.5071605,"instrument":1,"isDrum":true},{"pitch":44,"velocity":80,"startTime":134.48253,"endTime":134.5071605,"instrument":1,"isDrum":true},{"pitch":51,"velocity":80,"startTime":134.48253,"endTime":134.5071605,"instrument":1,"isDrum":true},{"pitch":53,"velocity":80,"startTime":134.48253,"endTime":134.5071605,"instrument":1,"isDrum":true},{"pitch":51,"velocity":80,"startTime":134.679574,"endTime":134.7042045,"instrument":1,"isDrum":true},{"pitch":35,"velocity":80,"startTime":134.77809599999998,"endTime":134.80272649999998,"instrument":1,"isDrum":true},{"pitch":44,"velocity":80,"startTime":134.77809599999998,"endTime":134.80272649999998,"instrument":1,"isDrum":true},{"pitch":51,"velocity":80,"startTime":134.77809599999998,"endTime":134.80272649999998,"instrument":1,"isDrum":true},{"pitch":51,"velocity":80,"startTime":134.97513999999998,"endTime":134.99977049999998,"instrument":1,"isDrum":true},{"pitch":35,"velocity":80,"startTime":135.07366199999998,"endTime":135.09829249999999,"instrument":1,"isDrum":true},{"pitch":44,"velocity":80,"startTime":135.07366199999998,"endTime":135.09829249999999,"instrument":1,"isDrum":true},{"pitch":51,"velocity":80,"startTime":135.07366199999998,"endTime":135.09829249999999,"instrument":1,"isDrum":true},{"pitch":53,"velocity":80,"startTime":135.07366199999998,"endTime":135.09829249999999,"instrument":1,"isDrum":true},{"pitch":44,"velocity":80,"startTime":135.369228,"endTime":135.3938585,"instrument":1,"isDrum":true},{"pitch":51,"velocity":80,"startTime":135.566272,"endTime":135.5909025,"instrument":1,"isDrum":true},{"pitch":35,"velocity":80,"startTime":135.664794,"endTime":135.6894245,"instrument":1,"isDrum":true},{"pitch":44,"velocity":80,"startTime":135.664794,"endTime":135.6894245,"instrument":1,"isDrum":true},{"pitch":51,"velocity":80,"startTime":135.664794,"endTime":135.6894245,"instrument":1,"isDrum":true},{"pitch":53,"velocity":80,"startTime":135.664794,"endTime":135.6894245,"instrument":1,"isDrum":true},{"pitch":44,"velocity":80,"startTime":135.96035999999998,"endTime":135.98499049999998,"instrument":1,"isDrum":true},{"pitch":51,"velocity":80,"startTime":136.15740399999999,"endTime":136.1820345,"instrument":1,"isDrum":true},{"pitch":35,"velocity":80,"startTime":136.255926,"endTime":136.2805565,"instrument":1,"isDrum":true},{"pitch":44,"velocity":80,"startTime":136.255926,"endTime":136.2805565,"instrument":1,"isDrum":true},{"pitch":51,"velocity":80,"startTime":136.255926,"endTime":136.2805565,"instrument":1,"isDrum":true},{"pitch":53,"velocity":80,"startTime":136.255926,"endTime":136.2805565,"instrument":1,"isDrum":true},{"pitch":44,"velocity":80,"startTime":136.551492,"endTime":136.5761225,"instrument":1,"isDrum":true},{"pitch":53,"velocity":80,"startTime":136.551492,"endTime":136.5761225,"instrument":1,"isDrum":true},{"pitch":51,"velocity":80,"startTime":136.7731665,"endTime":136.8224275,"instrument":1,"isDrum":true},{"pitch":35,"velocity":80,"startTime":136.847058,"endTime":136.8716885,"instrument":1,"isDrum":true},{"pitch":44,"velocity":80,"startTime":136.847058,"endTime":136.8716885,"instrument":1,"isDrum":true},{"pitch":51,"velocity":80,"startTime":136.847058,"endTime":136.8716885,"instrument":1,"isDrum":true},{"pitch":44,"velocity":80,"startTime":137.14262399999998,"endTime":137.16725449999998,"instrument":1,"isDrum":true},{"pitch":51,"velocity":80,"startTime":137.14262399999998,"endTime":137.16725449999998,"instrument":1,"isDrum":true},{"pitch":51,"velocity":80,"startTime":137.339668,"endTime":137.3642985,"instrument":1,"isDrum":true},{"pitch":35,"velocity":80,"startTime":137.43819,"endTime":137.4628205,"instrument":1,"isDrum":true},{"pitch":44,"velocity":80,"startTime":137.43819,"endTime":137.4628205,"instrument":1,"isDrum":true},{"pitch":51,"velocity":80,"startTime":137.43819,"endTime":137.4628205,"instrument":1,"isDrum":true},{"pitch":51,"velocity":80,"startTime":137.635234,"endTime":137.6598645,"instrument":1,"isDrum":true},{"pitch":35,"velocity":80,"startTime":137.733756,"endTime":137.7583865,"instrument":1,"isDrum":true},{"pitch":44,"velocity":80,"startTime":137.733756,"endTime":137.7583865,"instrument":1,"isDrum":true},{"pitch":51,"velocity":80,"startTime":137.733756,"endTime":137.7583865,"instrument":1,"isDrum":true},{"pitch":53,"velocity":80,"startTime":137.733756,"endTime":137.7583865,"instrument":1,"isDrum":true},{"pitch":44,"velocity":80,"startTime":138.02932199999998,"endTime":138.05395249999998,"instrument":1,"isDrum":true},{"pitch":59,"velocity":80,"startTime":138.02932199999998,"endTime":138.05395249999998,"instrument":1,"isDrum":true},{"pitch":51,"velocity":80,"startTime":138.22636599999998,"endTime":138.25099649999999,"instrument":1,"isDrum":true},{"pitch":35,"velocity":80,"startTime":138.324888,"endTime":138.3495185,"instrument":1,"isDrum":true},{"pitch":44,"velocity":80,"startTime":138.324888,"endTime":138.3495185,"instrument":1,"isDrum":true},{"pitch":51,"velocity":80,"startTime":138.324888,"endTime":138.3495185,"instrument":1,"isDrum":true},{"pitch":53,"velocity":80,"startTime":138.324888,"endTime":138.3495185,"instrument":1,"isDrum":true},{"pitch":35,"velocity":80,"startTime":138.620454,"endTime":138.6450845,"instrument":1,"isDrum":true},{"pitch":38,"velocity":80,"startTime":138.620454,"endTime":138.6450845,"instrument":1,"isDrum":true},{"pitch":44,"velocity":80,"startTime":138.620454,"endTime":138.6450845,"instrument":1,"isDrum":true},{"pitch":51,"velocity":80,"startTime":138.620454,"endTime":138.6450845,"instrument":1,"isDrum":true},{"pitch":51,"velocity":80,"startTime":138.817498,"endTime":138.8421285,"instrument":1,"isDrum":true},{"pitch":35,"velocity":80,"startTime":138.91602,"endTime":138.9406505,"instrument":1,"isDrum":true},{"pitch":44,"velocity":80,"startTime":138.91602,"endTime":138.9406505,"instrument":1,"isDrum":true},{"pitch":51,"velocity":80,"startTime":138.91602,"endTime":138.9406505,"instrument":1,"isDrum":true},{"pitch":53,"velocity":80,"startTime":138.91602,"endTime":138.9406505,"instrument":1,"isDrum":true},{"pitch":44,"velocity":80,"startTime":139.21158599999998,"endTime":139.23621649999998,"instrument":1,"isDrum":true},{"pitch":53,"velocity":80,"startTime":139.21158599999998,"endTime":139.23621649999998,"instrument":1,"isDrum":true},{"pitch":51,"velocity":80,"startTime":139.40863,"endTime":139.4332605,"instrument":1,"isDrum":true},{"pitch":44,"velocity":80,"startTime":139.507152,"endTime":139.5317825,"instrument":1,"isDrum":true},{"pitch":53,"velocity":80,"startTime":139.507152,"endTime":139.5317825,"instrument":1,"isDrum":true},{"pitch":51,"velocity":80,"startTime":139.704196,"endTime":139.7288265,"instrument":1,"isDrum":true},{"pitch":35,"velocity":80,"startTime":139.802718,"endTime":139.8273485,"instrument":1,"isDrum":true},{"pitch":44,"velocity":80,"startTime":139.802718,"endTime":139.8273485,"instrument":1,"isDrum":true},{"pitch":51,"velocity":80,"startTime":139.802718,"endTime":139.8273485,"instrument":1,"isDrum":true},{"pitch":53,"velocity":80,"startTime":139.802718,"endTime":139.8273485,"instrument":1,"isDrum":true},{"pitch":44,"velocity":80,"startTime":140.09828399999998,"endTime":140.12291449999998,"instrument":1,"isDrum":true},{"pitch":53,"velocity":80,"startTime":140.09828399999998,"endTime":140.12291449999998,"instrument":1,"isDrum":true},{"pitch":53,"velocity":80,"startTime":140.29532799999998,"endTime":140.31995849999998,"instrument":1,"isDrum":true},{"pitch":44,"velocity":80,"startTime":140.689416,"endTime":140.7140465,"instrument":1,"isDrum":true},{"pitch":53,"velocity":80,"startTime":140.689416,"endTime":140.7140465,"instrument":1,"isDrum":true},{"pitch":51,"velocity":80,"startTime":140.88646,"endTime":140.9110905,"instrument":1,"isDrum":true},{"pitch":35,"velocity":80,"startTime":140.984982,"endTime":141.0096125,"instrument":1,"isDrum":true},{"pitch":44,"velocity":80,"startTime":140.984982,"endTime":141.0096125,"instrument":1,"isDrum":true},{"pitch":51,"velocity":80,"startTime":140.984982,"endTime":141.0096125,"instrument":1,"isDrum":true},{"pitch":53,"velocity":80,"startTime":140.984982,"endTime":141.0096125,"instrument":1,"isDrum":true},{"pitch":31,"velocity":103,"startTime":132.413568,"endTime":132.6352425,"instrument":2,"program":32},{"pitch":31,"velocity":103,"startTime":132.68450349999998,"endTime":132.70913399999998,"instrument":2,"program":32},{"pitch":35,"velocity":103,"startTime":132.70913399999998,"endTime":133.00469999999999,"instrument":2,"program":32},{"pitch":38,"velocity":103,"startTime":133.00469999999999,"endTime":133.300266,"instrument":2,"program":32},{"pitch":31,"velocity":103,"startTime":133.300266,"endTime":133.595832,"instrument":2,"program":32},{"pitch":31,"velocity":103,"startTime":133.595832,"endTime":133.81750649999998,"instrument":2,"program":32},{"pitch":31,"velocity":103,"startTime":133.81750649999998,"endTime":133.86676749999998,"instrument":2,"program":32},{"pitch":31,"velocity":103,"startTime":133.89139799999998,"endTime":134.186964,"instrument":2,"program":32},{"pitch":35,"velocity":103,"startTime":134.186964,"endTime":134.4086385,"instrument":2,"program":32},{"pitch":31,"velocity":103,"startTime":134.4086385,"endTime":134.48253,"instrument":2,"program":32},{"pitch":35,"velocity":103,"startTime":134.48253,"endTime":134.77809599999998,"instrument":2,"program":32},{"pitch":28,"velocity":103,"startTime":134.77809599999998,"endTime":135.07366199999998,"instrument":2,"program":32},{"pitch":28,"velocity":103,"startTime":135.07366199999998,"endTime":135.369228,"instrument":2,"program":32},{"pitch":28,"velocity":103,"startTime":135.369228,"endTime":135.664794,"instrument":2,"program":32},{"pitch":28,"velocity":103,"startTime":135.664794,"endTime":135.96035999999998,"instrument":2,"program":32},{"pitch":28,"velocity":103,"startTime":135.96035999999998,"endTime":136.255926,"instrument":2,"program":32},{"pitch":35,"velocity":103,"startTime":136.255926,"endTime":136.551492,"instrument":2,"program":32},{"pitch":36,"velocity":103,"startTime":136.551492,"endTime":136.847058,"instrument":2,"program":32},{"pitch":35,"velocity":103,"startTime":136.847058,"endTime":137.06873249999998,"instrument":2,"program":32},{"pitch":30,"velocity":103,"startTime":137.06873249999998,"endTime":137.11799349999998,"instrument":2,"program":32},{"pitch":36,"velocity":103,"startTime":137.14262399999998,"endTime":137.43819,"instrument":2,"program":32},{"pitch":35,"velocity":103,"startTime":137.43819,"endTime":137.733756,"instrument":2,"program":32},{"pitch":36,"velocity":103,"startTime":137.733756,"endTime":138.02932199999998,"instrument":2,"program":32},{"pitch":31,"velocity":103,"startTime":138.02932199999998,"endTime":138.324888,"instrument":2,"program":32},{"pitch":38,"velocity":103,"startTime":138.324888,"endTime":138.5465625,"instrument":2,"program":32},{"pitch":26,"velocity":103,"startTime":138.5465625,"endTime":138.620454,"instrument":2,"program":32},{"pitch":38,"velocity":103,"startTime":138.620454,"endTime":138.91602,"instrument":2,"program":32},{"pitch":38,"velocity":103,"startTime":138.91602,"endTime":139.21158599999998,"instrument":2,"program":32},{"pitch":38,"velocity":103,"startTime":139.21158599999998,"endTime":139.4332605,"instrument":2,"program":32},{"pitch":26,"velocity":103,"startTime":139.4332605,"endTime":139.507152,"instrument":2,"program":32},{"pitch":31,"velocity":103,"startTime":139.507152,"endTime":139.802718,"instrument":2,"program":32},{"pitch":38,"velocity":103,"startTime":139.802718,"endTime":140.09828399999998,"instrument":2,"program":32},{"pitch":43,"velocity":103,"startTime":140.09828399999998,"endTime":140.39385,"instrument":2,"program":32},{"pitch":38,"velocity":103,"startTime":140.39385,"endTime":140.689416,"instrument":2,"program":32},{"pitch":43,"velocity":103,"startTime":140.689416,"endTime":140.9110905,"instrument":2,"program":32},{"pitch":31,"velocity":103,"startTime":140.9110905,"endTime":140.984982,"instrument":2,"program":32},{"pitch":43,"velocity":103,"startTime":140.984982,"endTime":141.25591749999998,"instrument":2,"program":32},{"pitch":38,"velocity":103,"startTime":141.28054799999998,"endTime":141.5022225,"instrument":2,"program":32},{"pitch":31,"velocity":103,"startTime":141.5022225,"endTime":141.576114,"instrument":2,"program":32},{"pitch":38,"velocity":103,"startTime":141.576114,"endTime":141.7977885,"instrument":2,"program":32},{"pitch":31,"velocity":103,"startTime":141.7977885,"endTime":141.87168,"instrument":2,"program":32},{"pitch":64,"velocity":57,"startTime":141.87168,"endTime":141.9948325},{"pitch":67,"velocity":57,"startTime":141.87168,"endTime":141.9948325},{"pitch":74,"velocity":57,"startTime":141.8963105,"endTime":141.9948325},{"pitch":57,"velocity":57,"startTime":142.0933545,"endTime":142.19187649999998},{"pitch":64,"velocity":57,"startTime":142.0933545,"endTime":142.19187649999998},{"pitch":65,"velocity":57,"startTime":142.6844865,"endTime":142.7337475},{"pitch":74,"velocity":57,"startTime":142.6844865,"endTime":142.758378},{"pitch":57,"velocity":57,"startTime":142.709117,"endTime":142.7337475},{"pitch":69,"velocity":57,"startTime":142.709117,"endTime":142.758378},{"pitch":43,"velocity":57,"startTime":143.053944,"endTime":143.103205},{"pitch":59,"velocity":57,"startTime":143.053944,"endTime":143.1278355},{"pitch":62,"velocity":57,"startTime":143.053944,"endTime":143.1278355},{"pitch":69,"velocity":57,"startTime":143.053944,"endTime":143.1278355},{"pitch":40,"velocity":57,"startTime":144.45788249999998,"endTime":144.55640449999999},{"pitch":50,"velocity":57,"startTime":144.53177399999998,"endTime":144.6549265},{"pitch":55,"velocity":57,"startTime":144.55640449999999,"endTime":144.6549265},{"pitch":59,"velocity":57,"startTime":144.55640449999999,"endTime":144.630296},{"pitch":50,"velocity":57,"startTime":145.0490145,"endTime":145.0982755},{"pitch":55,"velocity":57,"startTime":145.0490145,"endTime":145.0982755},{"pitch":59,"velocity":57,"startTime":145.0490145,"endTime":145.122906},{"pitch":64,"velocity":57,"startTime":145.0490145,"endTime":145.0982755},{"pitch":40,"velocity":57,"startTime":145.41847199999998,"endTime":145.51699399999998},{"pitch":55,"velocity":57,"startTime":145.41847199999998,"endTime":145.51699399999998},{"pitch":59,"velocity":57,"startTime":145.44310249999998,"endTime":145.51699399999998},{"pitch":64,"velocity":57,"startTime":145.44310249999998,"endTime":145.51699399999998},{"pitch":40,"velocity":57,"startTime":145.9357125,"endTime":146.009604},{"pitch":57,"velocity":57,"startTime":145.9357125,"endTime":145.9849735},{"pitch":60,"velocity":57,"startTime":145.9357125,"endTime":146.009604},{"pitch":64,"velocity":57,"startTime":145.9357125,"endTime":145.9849735},{"pitch":48,"velocity":57,"startTime":146.896302,"endTime":146.9701935},{"pitch":59,"velocity":57,"startTime":146.896302,"endTime":146.945563},{"pitch":55,"velocity":57,"startTime":146.9209325,"endTime":146.9701935},{"pitch":64,"velocity":57,"startTime":146.9209325,"endTime":146.9701935},{"pitch":48,"velocity":57,"startTime":147.41354249999998,"endTime":147.46280349999998},{"pitch":55,"velocity":57,"startTime":147.41354249999998,"endTime":147.48743399999998},{"pitch":59,"velocity":57,"startTime":147.41354249999998,"endTime":147.46280349999998},{"pitch":64,"velocity":57,"startTime":147.41354249999998,"endTime":147.48743399999998},{"pitch":35,"velocity":80,"startTime":141.87168,"endTime":141.8963105,"instrument":1,"isDrum":true},{"pitch":44,"velocity":80,"startTime":141.87168,"endTime":141.8963105,"instrument":1,"isDrum":true},{"pitch":51,"velocity":80,"startTime":141.87168,"endTime":141.8963105,"instrument":1,"isDrum":true},{"pitch":53,"velocity":80,"startTime":141.87168,"endTime":141.920941,"instrument":1,"isDrum":true},{"pitch":56,"velocity":80,"startTime":141.87168,"endTime":141.8963105,"instrument":1,"isDrum":true},{"pitch":35,"velocity":80,"startTime":142.068724,"endTime":142.14261549999998,"instrument":1,"isDrum":true},{"pitch":51,"velocity":80,"startTime":142.068724,"endTime":142.14261549999998,"instrument":1,"isDrum":true},{"pitch":53,"velocity":80,"startTime":142.068724,"endTime":142.14261549999998,"instrument":1,"isDrum":true},{"pitch":44,"velocity":80,"startTime":142.16724599999998,"endTime":142.19187649999998,"instrument":1,"isDrum":true},{"pitch":51,"velocity":80,"startTime":142.16724599999998,"endTime":142.21650699999998,"instrument":1,"isDrum":true},{"pitch":56,"velocity":80,"startTime":142.16724599999998,"endTime":142.19187649999998,"instrument":1,"isDrum":true},{"pitch":35,"velocity":80,"startTime":142.36428999999998,"endTime":142.43818149999998,"instrument":1,"isDrum":true},{"pitch":51,"velocity":80,"startTime":142.36428999999998,"endTime":142.43818149999998,"instrument":1,"isDrum":true},{"pitch":35,"velocity":80,"startTime":142.46281199999999,"endTime":142.4874425,"instrument":1,"isDrum":true},{"pitch":44,"velocity":80,"startTime":142.46281199999999,"endTime":142.4874425,"instrument":1,"isDrum":true},{"pitch":51,"velocity":80,"startTime":142.46281199999999,"endTime":142.4874425,"instrument":1,"isDrum":true},{"pitch":53,"velocity":80,"startTime":142.46281199999999,"endTime":142.4874425,"instrument":1,"isDrum":true},{"pitch":56,"velocity":80,"startTime":142.46281199999999,"endTime":142.4874425,"instrument":1,"isDrum":true},{"pitch":35,"velocity":80,"startTime":142.659856,"endTime":142.7337475,"instrument":1,"isDrum":true},{"pitch":51,"velocity":80,"startTime":142.659856,"endTime":142.7337475,"instrument":1,"isDrum":true},{"pitch":53,"velocity":80,"startTime":142.659856,"endTime":142.7337475,"instrument":1,"isDrum":true},{"pitch":44,"velocity":80,"startTime":142.758378,"endTime":142.7830085,"instrument":1,"isDrum":true},{"pitch":51,"velocity":80,"startTime":142.758378,"endTime":142.7830085,"instrument":1,"isDrum":true},{"pitch":56,"velocity":80,"startTime":142.758378,"endTime":142.7830085,"instrument":1,"isDrum":true},{"pitch":35,"velocity":80,"startTime":142.955422,"endTime":143.0293135,"instrument":1,"isDrum":true},{"pitch":51,"velocity":80,"startTime":142.955422,"endTime":143.0293135,"instrument":1,"isDrum":true},{"pitch":35,"velocity":80,"startTime":143.053944,"endTime":143.0785745,"instrument":1,"isDrum":true},{"pitch":44,"velocity":80,"startTime":143.053944,"endTime":143.0785745,"instrument":1,"isDrum":true},{"pitch":51,"velocity":80,"startTime":143.053944,"endTime":143.0785745,"instrument":1,"isDrum":true},{"pitch":53,"velocity":80,"startTime":143.053944,"endTime":143.0785745,"instrument":1,"isDrum":true},{"pitch":56,"velocity":80,"startTime":143.053944,"endTime":143.0785745,"instrument":1,"isDrum":true},{"pitch":35,"velocity":80,"startTime":143.25098799999998,"endTime":143.32487949999998,"instrument":1,"isDrum":true},{"pitch":51,"velocity":80,"startTime":143.25098799999998,"endTime":143.32487949999998,"instrument":1,"isDrum":true},{"pitch":37,"velocity":80,"startTime":143.34950999999998,"endTime":143.37414049999998,"instrument":1,"isDrum":true},{"pitch":44,"velocity":80,"startTime":143.34950999999998,"endTime":143.37414049999998,"instrument":1,"isDrum":true},{"pitch":51,"velocity":80,"startTime":143.34950999999998,"endTime":143.37414049999998,"instrument":1,"isDrum":true},{"pitch":56,"velocity":80,"startTime":143.34950999999998,"endTime":143.37414049999998,"instrument":1,"isDrum":true},{"pitch":35,"velocity":80,"startTime":143.546554,"endTime":143.6204455,"instrument":1,"isDrum":true},{"pitch":51,"velocity":80,"startTime":143.546554,"endTime":143.6204455,"instrument":1,"isDrum":true},{"pitch":35,"velocity":80,"startTime":143.645076,"endTime":143.6697065,"instrument":1,"isDrum":true},{"pitch":44,"velocity":80,"startTime":143.645076,"endTime":143.6697065,"instrument":1,"isDrum":true},{"pitch":51,"velocity":80,"startTime":143.645076,"endTime":143.6697065,"instrument":1,"isDrum":true},{"pitch":53,"velocity":80,"startTime":143.645076,"endTime":143.6697065,"instrument":1,"isDrum":true},{"pitch":35,"velocity":80,"startTime":143.84212,"endTime":143.9160115,"instrument":1,"isDrum":true},{"pitch":51,"velocity":80,"startTime":143.84212,"endTime":143.9160115,"instrument":1,"isDrum":true},{"pitch":37,"velocity":80,"startTime":143.940642,"endTime":143.9652725,"instrument":1,"isDrum":true},{"pitch":38,"velocity":80,"startTime":143.940642,"endTime":143.9652725,"instrument":1,"isDrum":true},{"pitch":44,"velocity":80,"startTime":143.940642,"endTime":143.9652725,"instrument":1,"isDrum":true},{"pitch":51,"velocity":80,"startTime":143.940642,"endTime":143.9652725,"instrument":1,"isDrum":true},{"pitch":56,"velocity":80,"startTime":143.940642,"endTime":143.9652725,"instrument":1,"isDrum":true},{"pitch":35,"velocity":80,"startTime":144.137686,"endTime":144.2115775,"instrument":1,"isDrum":true},{"pitch":51,"velocity":80,"startTime":144.137686,"endTime":144.2115775,"instrument":1,"isDrum":true},{"pitch":35,"velocity":80,"startTime":144.23620799999998,"endTime":144.26083849999998,"instrument":1,"isDrum":true},{"pitch":44,"velocity":80,"startTime":144.23620799999998,"endTime":144.26083849999998,"instrument":1,"isDrum":true},{"pitch":51,"velocity":80,"startTime":144.23620799999998,"endTime":144.26083849999998,"instrument":1,"isDrum":true},{"pitch":35,"velocity":80,"startTime":144.43325199999998,"endTime":144.48251299999998,"instrument":1,"isDrum":true},{"pitch":51,"velocity":80,"startTime":144.43325199999998,"endTime":144.48251299999998,"instrument":1,"isDrum":true},{"pitch":56,"velocity":80,"startTime":144.43325199999998,"endTime":144.48251299999998,"instrument":1,"isDrum":true},{"pitch":37,"velocity":80,"startTime":144.53177399999998,"endTime":144.55640449999999,"instrument":1,"isDrum":true},{"pitch":44,"velocity":80,"startTime":144.53177399999998,"endTime":144.55640449999999,"instrument":1,"isDrum":true},{"pitch":51,"velocity":80,"startTime":144.53177399999998,"endTime":144.55640449999999,"instrument":1,"isDrum":true},{"pitch":56,"velocity":80,"startTime":144.53177399999998,"endTime":144.55640449999999,"instrument":1,"isDrum":true},{"pitch":35,"velocity":80,"startTime":144.728818,"endTime":144.8027095,"instrument":1,"isDrum":true},{"pitch":51,"velocity":80,"startTime":144.728818,"endTime":144.8027095,"instrument":1,"isDrum":true},{"pitch":35,"velocity":80,"startTime":144.82734,"endTime":144.8519705,"instrument":1,"isDrum":true},{"pitch":44,"velocity":80,"startTime":144.82734,"endTime":144.8519705,"instrument":1,"isDrum":true},{"pitch":51,"velocity":80,"startTime":144.82734,"endTime":144.8519705,"instrument":1,"isDrum":true},{"pitch":35,"velocity":80,"startTime":145.024384,"endTime":145.073645,"instrument":1,"isDrum":true},{"pitch":51,"velocity":80,"startTime":145.024384,"endTime":145.073645,"instrument":1,"isDrum":true},{"pitch":56,"velocity":80,"startTime":145.024384,"endTime":145.073645,"instrument":1,"isDrum":true},{"pitch":37,"velocity":80,"startTime":145.122906,"endTime":145.1475365,"instrument":1,"isDrum":true},{"pitch":44,"velocity":80,"startTime":145.122906,"endTime":145.1475365,"instrument":1,"isDrum":true},{"pitch":51,"velocity":80,"startTime":145.122906,"endTime":145.1475365,"instrument":1,"isDrum":true},{"pitch":56,"velocity":80,"startTime":145.122906,"endTime":145.1475365,"instrument":1,"isDrum":true},{"pitch":59,"velocity":80,"startTime":145.122906,"endTime":145.1475365,"instrument":1,"isDrum":true},{"pitch":35,"velocity":80,"startTime":145.31994999999998,"endTime":145.39384149999998,"instrument":1,"isDrum":true},{"pitch":51,"velocity":80,"startTime":145.31994999999998,"endTime":145.39384149999998,"instrument":1,"isDrum":true},{"pitch":35,"velocity":80,"startTime":145.41847199999998,"endTime":145.44310249999998,"instrument":1,"isDrum":true},{"pitch":44,"velocity":80,"startTime":145.41847199999998,"endTime":145.44310249999998,"instrument":1,"isDrum":true},{"pitch":51,"velocity":80,"startTime":145.41847199999998,"endTime":145.44310249999998,"instrument":1,"isDrum":true},{"pitch":35,"velocity":80,"startTime":145.61551599999999,"endTime":145.664777,"instrument":1,"isDrum":true},{"pitch":51,"velocity":80,"startTime":145.61551599999999,"endTime":145.664777,"instrument":1,"isDrum":true},{"pitch":56,"velocity":80,"startTime":145.61551599999999,"endTime":145.664777,"instrument":1,"isDrum":true},{"pitch":37,"velocity":80,"startTime":145.714038,"endTime":145.7386685,"instrument":1,"isDrum":true},{"pitch":44,"velocity":80,"startTime":145.714038,"endTime":145.7386685,"instrument":1,"isDrum":true},{"pitch":51,"velocity":80,"startTime":145.714038,"endTime":145.7386685,"instrument":1,"isDrum":true},{"pitch":56,"velocity":80,"startTime":145.714038,"endTime":145.7386685,"instrument":1,"isDrum":true},{"pitch":35,"velocity":80,"startTime":145.911082,"endTime":145.9849735,"instrument":1,"isDrum":true},{"pitch":51,"velocity":80,"startTime":145.911082,"endTime":145.9849735,"instrument":1,"isDrum":true},{"pitch":35,"velocity":80,"startTime":146.009604,"endTime":146.0342345,"instrument":1,"isDrum":true},{"pitch":44,"velocity":80,"startTime":146.009604,"endTime":146.0342345,"instrument":1,"isDrum":true},{"pitch":51,"velocity":80,"startTime":146.009604,"endTime":146.0342345,"instrument":1,"isDrum":true},{"pitch":35,"velocity":80,"startTime":146.206648,"endTime":146.2312785,"instrument":1,"isDrum":true},{"pitch":51,"velocity":80,"startTime":146.206648,"endTime":146.2312785,"instrument":1,"isDrum":true},{"pitch":56,"velocity":80,"startTime":146.206648,"endTime":146.2312785,"instrument":1,"isDrum":true},{"pitch":37,"velocity":80,"startTime":146.30517,"endTime":146.32980049999998,"instrument":1,"isDrum":true},{"pitch":38,"velocity":80,"startTime":146.30517,"endTime":146.32980049999998,"instrument":1,"isDrum":true},{"pitch":39,"velocity":80,"startTime":146.30517,"endTime":146.32980049999998,"instrument":1,"isDrum":true},{"pitch":44,"velocity":80,"startTime":146.30517,"endTime":146.32980049999998,"instrument":1,"isDrum":true},{"pitch":51,"velocity":80,"startTime":146.30517,"endTime":146.32980049999998,"instrument":1,"isDrum":true},{"pitch":54,"velocity":80,"startTime":146.30517,"endTime":146.32980049999998,"instrument":1,"isDrum":true},{"pitch":35,"velocity":80,"startTime":146.50221399999998,"endTime":146.57610549999998,"instrument":1,"isDrum":true},{"pitch":51,"velocity":80,"startTime":146.50221399999998,"endTime":146.57610549999998,"instrument":1,"isDrum":true},{"pitch":35,"velocity":80,"startTime":146.60073599999998,"endTime":146.62536649999998,"instrument":1,"isDrum":true},{"pitch":44,"velocity":80,"startTime":146.60073599999998,"endTime":146.62536649999998,"instrument":1,"isDrum":true},{"pitch":51,"velocity":80,"startTime":146.60073599999998,"endTime":146.62536649999998,"instrument":1,"isDrum":true},{"pitch":35,"velocity":80,"startTime":146.79778,"endTime":146.8224105,"instrument":1,"isDrum":true},{"pitch":51,"velocity":80,"startTime":146.79778,"endTime":146.8224105,"instrument":1,"isDrum":true},{"pitch":37,"velocity":80,"startTime":146.896302,"endTime":146.9209325,"instrument":1,"isDrum":true},{"pitch":38,"velocity":80,"startTime":146.896302,"endTime":146.9209325,"instrument":1,"isDrum":true},{"pitch":39,"velocity":80,"startTime":146.896302,"endTime":146.9209325,"instrument":1,"isDrum":true},{"pitch":44,"velocity":80,"startTime":146.896302,"endTime":146.9209325,"instrument":1,"isDrum":true},{"pitch":51,"velocity":80,"startTime":146.896302,"endTime":146.9209325,"instrument":1,"isDrum":true},{"pitch":54,"velocity":80,"startTime":146.896302,"endTime":146.9209325,"instrument":1,"isDrum":true},{"pitch":35,"velocity":80,"startTime":147.093346,"endTime":147.1672375,"instrument":1,"isDrum":true},{"pitch":51,"velocity":80,"startTime":147.093346,"endTime":147.1672375,"instrument":1,"isDrum":true},{"pitch":35,"velocity":80,"startTime":147.191868,"endTime":147.2164985,"instrument":1,"isDrum":true},{"pitch":44,"velocity":80,"startTime":147.191868,"endTime":147.2164985,"instrument":1,"isDrum":true},{"pitch":51,"velocity":80,"startTime":147.191868,"endTime":147.2164985,"instrument":1,"isDrum":true},{"pitch":35,"velocity":80,"startTime":147.38891199999998,"endTime":147.43817299999998,"instrument":1,"isDrum":true},{"pitch":51,"velocity":80,"startTime":147.38891199999998,"endTime":147.43817299999998,"instrument":1,"isDrum":true},{"pitch":56,"velocity":80,"startTime":147.38891199999998,"endTime":147.43817299999998,"instrument":1,"isDrum":true},{"pitch":37,"velocity":80,"startTime":147.48743399999998,"endTime":147.51206449999998,"instrument":1,"isDrum":true},{"pitch":38,"velocity":80,"startTime":147.48743399999998,"endTime":147.51206449999998,"instrument":1,"isDrum":true},{"pitch":39,"velocity":80,"startTime":147.48743399999998,"endTime":147.51206449999998,"instrument":1,"isDrum":true},{"pitch":44,"velocity":80,"startTime":147.48743399999998,"endTime":147.51206449999998,"instrument":1,"isDrum":true},{"pitch":51,"velocity":80,"startTime":147.48743399999998,"endTime":147.51206449999998,"instrument":1,"isDrum":true},{"pitch":54,"velocity":80,"startTime":147.48743399999998,"endTime":147.51206449999998,"instrument":1,"isDrum":true},{"pitch":35,"velocity":80,"startTime":147.68447799999998,"endTime":147.7583695,"instrument":1,"isDrum":true},{"pitch":51,"velocity":80,"startTime":147.68447799999998,"endTime":147.7583695,"instrument":1,"isDrum":true},{"pitch":44,"velocity":80,"startTime":147.783,"endTime":147.8076305,"instrument":1,"isDrum":true},{"pitch":51,"velocity":80,"startTime":147.783,"endTime":147.8076305,"instrument":1,"isDrum":true},{"pitch":35,"velocity":80,"startTime":147.980044,"endTime":148.0046745,"instrument":1,"isDrum":true},{"pitch":51,"velocity":80,"startTime":147.980044,"endTime":148.0046745,"instrument":1,"isDrum":true},{"pitch":37,"velocity":80,"startTime":148.078566,"endTime":148.1031965,"instrument":1,"isDrum":true},{"pitch":38,"velocity":80,"startTime":148.078566,"endTime":148.1031965,"instrument":1,"isDrum":true},{"pitch":44,"velocity":80,"startTime":148.078566,"endTime":148.1031965,"instrument":1,"isDrum":true},{"pitch":51,"velocity":80,"startTime":148.078566,"endTime":148.1031965,"instrument":1,"isDrum":true},{"pitch":53,"velocity":80,"startTime":148.078566,"endTime":148.1031965,"instrument":1,"isDrum":true},{"pitch":56,"velocity":80,"startTime":148.078566,"endTime":148.1031965,"instrument":1,"isDrum":true},{"pitch":35,"velocity":80,"startTime":148.27561,"endTime":148.3495015,"instrument":1,"isDrum":true},{"pitch":51,"velocity":80,"startTime":148.27561,"endTime":148.3495015,"instrument":1,"isDrum":true},{"pitch":43,"velocity":103,"startTime":141.87168,"endTime":142.16724599999998,"instrument":2,"program":32},{"pitch":50,"velocity":103,"startTime":142.16724599999998,"endTime":142.46281199999999,"instrument":2,"program":32},{"pitch":47,"velocity":103,"startTime":142.46281199999999,"endTime":142.7830085,"instrument":2,"program":32},{"pitch":43,"velocity":103,"startTime":142.758378,"endTime":143.004683,"instrument":2,"program":32},{"pitch":43,"velocity":103,"startTime":143.053944,"endTime":143.27561849999998,"instrument":2,"program":32},{"pitch":31,"velocity":103,"startTime":143.27561849999998,"endTime":143.34950999999998,"instrument":2,"program":32},{"pitch":43,"velocity":103,"startTime":143.34950999999998,"endTime":143.645076,"instrument":2,"program":32},{"pitch":35,"velocity":103,"startTime":143.645076,"endTime":143.989903,"instrument":2,"program":32},{"pitch":43,"velocity":103,"startTime":143.940642,"endTime":144.23620799999998,"instrument":2,"program":32},{"pitch":40,"velocity":103,"startTime":144.23620799999998,"endTime":144.53177399999998,"instrument":2,"program":32},{"pitch":28,"velocity":103,"startTime":144.45788249999998,"endTime":144.50714349999998,"instrument":2,"program":32},{"pitch":52,"velocity":103,"startTime":144.53177399999998,"endTime":144.7534485,"instrument":2,"program":32},{"pitch":32,"velocity":103,"startTime":144.7534485,"endTime":144.8027095,"instrument":2,"program":32},{"pitch":40,"velocity":103,"startTime":144.82734,"endTime":145.122906,"instrument":2,"program":32},{"pitch":28,"velocity":103,"startTime":145.0490145,"endTime":145.0982755,"instrument":2,"program":32},{"pitch":41,"velocity":103,"startTime":145.122906,"endTime":145.34458049999998,"instrument":2,"program":32},{"pitch":28,"velocity":103,"startTime":145.34458049999998,"endTime":145.39384149999998,"instrument":2,"program":32},{"pitch":40,"velocity":103,"startTime":145.41847199999998,"endTime":145.763299,"instrument":2,"program":32},{"pitch":47,"velocity":103,"startTime":145.714038,"endTime":146.30517,"instrument":2,"program":32},{"pitch":47,"velocity":103,"startTime":146.009604,"endTime":146.0342345,"instrument":2,"program":32},{"pitch":47,"velocity":103,"startTime":146.30517,"endTime":146.60073599999998,"instrument":2,"program":32},{"pitch":36,"velocity":103,"startTime":146.60073599999998,"endTime":146.8224105,"instrument":2,"program":32},{"pitch":24,"velocity":103,"startTime":146.8224105,"endTime":146.8716715,"instrument":2,"program":32},{"pitch":35,"velocity":103,"startTime":146.896302,"endTime":147.191868,"instrument":2,"program":32},{"pitch":36,"velocity":103,"startTime":147.191868,"endTime":147.41354249999998,"instrument":2,"program":32},{"pitch":24,"velocity":103,"startTime":147.41354249999998,"endTime":147.48743399999998,"instrument":2,"program":32},{"pitch":31,"velocity":103,"startTime":147.48743399999998,"endTime":147.783,"instrument":2,"program":32},{"pitch":71,"velocity":95,"startTime":8.567719424999998,"endTime":8.850970175,"instrument":4,"program":66},{"pitch":71,"velocity":90,"startTime":8.86698,"endTime":9.146536175,"instrument":4,"program":66},{"pitch":69,"velocity":92,"startTime":9.165009050000002,"endTime":9.371905249999998,"instrument":4,"program":66},{"pitch":67,"velocity":86,"startTime":9.458112000000002,"endTime":10.332494749999999,"instrument":4,"program":66},{"pitch":71,"velocity":91,"startTime":10.935941999999999,"endTime":11.5172218,"instrument":4,"program":66},{"pitch":69,"velocity":87,"startTime":11.523379425000002,"endTime":11.7388963,"instrument":4,"program":66},{"pitch":71,"velocity":84,"startTime":11.822640000000002,"endTime":12.693328175000001,"instrument":4,"program":66},{"pitch":67,"velocity":90,"startTime":13.152687,"endTime":13.214263249999998,"instrument":4,"program":66},{"pitch":67,"velocity":84,"startTime":13.296775424999998,"endTime":13.355888625,"instrument":4,"program":66},{"pitch":71,"velocity":108,"startTime":13.448253000000001,"endTime":13.733966800000003,"instrument":4,"program":66},{"pitch":72,"velocity":87,"startTime":13.737661375000004,"endTime":14.0147545,"instrument":4,"program":66},{"pitch":67,"velocity":99,"startTime":14.033227375000003,"endTime":14.150222250000002,"instrument":4,"program":66},{"pitch":67,"velocity":83,"startTime":14.331256424999998,"endTime":14.411305550000002,"instrument":4,"program":66},{"pitch":67,"velocity":76,"startTime":14.479039425,"endTime":14.538152625000002,"instrument":4,"program":66},{"pitch":72,"velocity":108,"startTime":14.624359375000001,"endTime":14.9162308,"instrument":4,"program":66},{"pitch":71,"velocity":89,"startTime":14.919925375000002,"endTime":15.203176124999999,"instrument":4,"program":66},{"pitch":69,"velocity":83,"startTime":15.217954425,"endTime":15.365737424999997,"instrument":4,"program":66},{"pitch":69,"velocity":86,"startTime":15.51967805,"endTime":15.578791250000002,"instrument":4,"program":66},{"pitch":67,"velocity":81,"startTime":15.667461050000005,"endTime":15.741352550000004,"instrument":4,"program":66},{"pitch":71,"velocity":105,"startTime":15.812781,"endTime":16.098494799999997,"instrument":4,"program":66},{"pitch":67,"velocity":72,"startTime":16.104652425,"endTime":16.215489674999997,"instrument":4,"program":66},{"pitch":67,"velocity":86,"startTime":16.397755375000003,"endTime":17.321399125,"instrument":4,"program":66},{"pitch":71,"velocity":95,"startTime":18.025831424999996,"endTime":18.309082175,"instrument":4,"program":66},{"pitch":71,"velocity":90,"startTime":18.325092,"endTime":18.604648175,"instrument":4,"program":66},{"pitch":69,"velocity":92,"startTime":18.62312105,"endTime":18.83001725,"instrument":4,"program":66},{"pitch":67,"velocity":86,"startTime":18.916224,"endTime":19.790606750000002,"instrument":4,"program":66},{"pitch":71,"velocity":91,"startTime":20.394054,"endTime":20.9753338,"instrument":4,"program":66},{"pitch":69,"velocity":87,"startTime":20.981491425000005,"endTime":21.1970083,"instrument":4,"program":66},{"pitch":71,"velocity":84,"startTime":21.280752000000003,"endTime":22.151440174999994,"instrument":4,"program":66},{"pitch":67,"velocity":90,"startTime":22.610799,"endTime":22.672375250000005,"instrument":4,"program":66},{"pitch":67,"velocity":84,"startTime":22.754887425000003,"endTime":22.814000625,"instrument":4,"program":66},{"pitch":71,"velocity":108,"startTime":22.906365,"endTime":23.1920788,"instrument":4,"program":66},{"pitch":72,"velocity":87,"startTime":23.195773374999995,"endTime":23.4728665,"instrument":4,"program":66},{"pitch":67,"velocity":99,"startTime":23.491339374999995,"endTime":23.608334250000002,"instrument":4,"program":66},{"pitch":67,"velocity":83,"startTime":23.789368425000003,"endTime":23.869417549999998,"instrument":4,"program":66},{"pitch":67,"velocity":76,"startTime":23.937151425,"endTime":23.996264625000002,"instrument":4,"program":66},{"pitch":72,"velocity":108,"startTime":24.082471374999997,"endTime":24.374342799999997,"instrument":4,"program":66},{"pitch":71,"velocity":89,"startTime":24.378037374999998,"endTime":24.661288125000002,"instrument":4,"program":66},{"pitch":69,"velocity":83,"startTime":24.676066425000005,"endTime":24.823849425000002,"instrument":4,"program":66},{"pitch":69,"velocity":86,"startTime":24.97779005,"endTime":25.03690325,"instrument":4,"program":66},{"pitch":67,"velocity":81,"startTime":25.125573049999996,"endTime":25.199464549999995,"instrument":4,"program":66},{"pitch":71,"velocity":105,"startTime":25.270892999999997,"endTime":25.556606800000004,"instrument":4,"program":66},{"pitch":67,"velocity":72,"startTime":25.562764425,"endTime":25.673601675000004,"instrument":4,"program":66},{"pitch":67,"velocity":86,"startTime":25.855867375,"endTime":26.779511125,"instrument":4,"program":66},{"pitch":71,"velocity":95,"startTime":46.400167425,"endTime":46.68341817500001,"instrument":4,"program":66},{"pitch":71,"velocity":90,"startTime":46.699428,"endTime":46.978984175,"instrument":4,"program":66},{"pitch":69,"velocity":92,"startTime":46.997457049999994,"endTime":47.204353250000004,"instrument":4,"program":66},{"pitch":67,"velocity":86,"startTime":47.290560000000006,"endTime":48.16494275,"instrument":4,"program":66},{"pitch":71,"velocity":91,"startTime":48.76839,"endTime":49.34966980000001,"instrument":4,"program":66},{"pitch":69,"velocity":87,"startTime":49.35582742500001,"endTime":49.5713443,"instrument":4,"program":66},{"pitch":71,"velocity":84,"startTime":49.655088,"endTime":50.52577617500001,"instrument":4,"program":66},{"pitch":67,"velocity":90,"startTime":50.985135,"endTime":51.04671125000001,"instrument":4,"program":66},{"pitch":67,"velocity":84,"startTime":51.129223425000006,"endTime":51.18833662500001,"instrument":4,"program":66},{"pitch":71,"velocity":108,"startTime":51.28070100000001,"endTime":51.566414800000004,"instrument":4,"program":66},{"pitch":72,"velocity":87,"startTime":51.57010937500001,"endTime":51.847202499999995,"instrument":4,"program":66},{"pitch":67,"velocity":99,"startTime":51.865675375,"endTime":51.98267025,"instrument":4,"program":66},{"pitch":67,"velocity":83,"startTime":52.163704425000006,"endTime":52.243753549999994,"instrument":4,"program":66},{"pitch":67,"velocity":76,"startTime":52.31148742500001,"endTime":52.37060062500001,"instrument":4,"program":66},{"pitch":72,"velocity":108,"startTime":52.456807375,"endTime":52.7486788,"instrument":4,"program":66},{"pitch":71,"velocity":89,"startTime":52.752373375000005,"endTime":53.035624125000005,"instrument":4,"program":66},{"pitch":69,"velocity":83,"startTime":53.05040242500001,"endTime":53.19818542500001,"instrument":4,"program":66},{"pitch":69,"velocity":86,"startTime":53.35212605,"endTime":53.41123925000001,"instrument":4,"program":66},{"pitch":67,"velocity":81,"startTime":53.49990905,"endTime":53.57380055000001,"instrument":4,"program":66},{"pitch":71,"velocity":105,"startTime":53.645229,"endTime":53.930942800000004,"instrument":4,"program":66},{"pitch":67,"velocity":72,"startTime":53.93710042500001,"endTime":54.047937675,"instrument":4,"program":66},{"pitch":67,"velocity":86,"startTime":54.230203374999995,"endTime":55.153847125,"instrument":4,"program":66},{"pitch":71,"velocity":95,"startTime":55.858279425,"endTime":56.141530175,"instrument":4,"program":66},{"pitch":71,"velocity":90,"startTime":56.15754,"endTime":56.437096175,"instrument":4,"program":66},{"pitch":69,"velocity":92,"startTime":56.45556905,"endTime":56.662465250000004,"instrument":4,"program":66},{"pitch":67,"velocity":86,"startTime":56.748672000000006,"endTime":57.623054749999994,"instrument":4,"program":66},{"pitch":71,"velocity":91,"startTime":58.226501999999996,"endTime":58.807781799999994,"instrument":4,"program":66},{"pitch":69,"velocity":87,"startTime":58.813939425,"endTime":59.02945629999999,"instrument":4,"program":66},{"pitch":71,"velocity":84,"startTime":59.1132,"endTime":59.983888175000004,"instrument":4,"program":66},{"pitch":67,"velocity":90,"startTime":60.443247000000014,"endTime":60.504823249999994,"instrument":4,"program":66},{"pitch":67,"velocity":84,"startTime":60.587335425000006,"endTime":60.64644862500001,"instrument":4,"program":66},{"pitch":71,"velocity":108,"startTime":60.73881300000001,"endTime":61.02452679999999,"instrument":4,"program":66},{"pitch":72,"velocity":87,"startTime":61.02822137500001,"endTime":61.30531450000001,"instrument":4,"program":66},{"pitch":67,"velocity":99,"startTime":61.323787375000016,"endTime":61.44078225,"instrument":4,"program":66},{"pitch":67,"velocity":83,"startTime":61.621816425000006,"endTime":61.701865549999994,"instrument":4,"program":66},{"pitch":67,"velocity":76,"startTime":61.769599425,"endTime":61.82871262500001,"instrument":4,"program":66},{"pitch":72,"velocity":108,"startTime":61.91491937500001,"endTime":62.2067908,"instrument":4,"program":66},{"pitch":71,"velocity":89,"startTime":62.210485375000005,"endTime":62.493736125000005,"instrument":4,"program":66},{"pitch":69,"velocity":83,"startTime":62.50851442500001,"endTime":62.656297425000005,"instrument":4,"program":66},{"pitch":69,"velocity":86,"startTime":62.81023805,"endTime":62.86935125,"instrument":4,"program":66},{"pitch":67,"velocity":81,"startTime":62.95802105,"endTime":63.03191255000001,"instrument":4,"program":66},{"pitch":71,"velocity":105,"startTime":63.103341,"endTime":63.3890548,"instrument":4,"program":66},{"pitch":67,"velocity":72,"startTime":63.39521242500001,"endTime":63.506049675000014,"instrument":4,"program":66},{"pitch":67,"velocity":86,"startTime":63.68831537500001,"endTime":64.61195912500001,"instrument":4,"program":66},{"pitch":71,"velocity":95,"startTime":93.690727425,"endTime":93.973978175,"instrument":4,"program":66},{"pitch":71,"velocity":90,"startTime":93.98998800000001,"endTime":94.26954417500001,"instrument":4,"program":66},{"pitch":69,"velocity":92,"startTime":94.28801705,"endTime":94.49491325,"instrument":4,"program":66},{"pitch":67,"velocity":86,"startTime":94.58112000000001,"endTime":95.45550275000001,"instrument":4,"program":66},{"pitch":71,"velocity":91,"startTime":96.05895000000001,"endTime":96.6402298,"instrument":4,"program":66},{"pitch":69,"velocity":87,"startTime":96.64638742500001,"endTime":96.8619043,"instrument":4,"program":66},{"pitch":71,"velocity":84,"startTime":96.945648,"endTime":97.816336175,"instrument":4,"program":66},{"pitch":67,"velocity":90,"startTime":98.275695,"endTime":98.33727125,"instrument":4,"program":66},{"pitch":67,"velocity":84,"startTime":98.419783425,"endTime":98.478896625,"instrument":4,"program":66},{"pitch":71,"velocity":108,"startTime":98.57126099999999,"endTime":98.8569748,"instrument":4,"program":66},{"pitch":72,"velocity":87,"startTime":98.86066937500001,"endTime":99.13776250000001,"instrument":4,"program":66},{"pitch":67,"velocity":99,"startTime":99.15623537500001,"endTime":99.27323025000001,"instrument":4,"program":66},{"pitch":67,"velocity":83,"startTime":99.454264425,"endTime":99.53431355000001,"instrument":4,"program":66},{"pitch":67,"velocity":76,"startTime":99.60204742500001,"endTime":99.661160625,"instrument":4,"program":66},{"pitch":72,"velocity":108,"startTime":99.74736737500001,"endTime":100.03923879999999,"instrument":4,"program":66},{"pitch":71,"velocity":89,"startTime":100.042933375,"endTime":100.326184125,"instrument":4,"program":66},{"pitch":69,"velocity":83,"startTime":100.340962425,"endTime":100.488745425,"instrument":4,"program":66},{"pitch":69,"velocity":86,"startTime":100.64268605,"endTime":100.70179925,"instrument":4,"program":66},{"pitch":67,"velocity":81,"startTime":100.79046905000001,"endTime":100.86436055,"instrument":4,"program":66},{"pitch":71,"velocity":105,"startTime":100.93578900000001,"endTime":101.2215028,"instrument":4,"program":66},{"pitch":67,"velocity":72,"startTime":101.22766042500001,"endTime":101.33849767500001,"instrument":4,"program":66},{"pitch":67,"velocity":86,"startTime":101.520763375,"endTime":102.444407125,"instrument":4,"program":66},{"pitch":71,"velocity":95,"startTime":103.148839425,"endTime":103.43209017500001,"instrument":4,"program":66},{"pitch":71,"velocity":90,"startTime":103.4481,"endTime":103.727656175,"instrument":4,"program":66},{"pitch":69,"velocity":92,"startTime":103.74612905,"endTime":103.95302525,"instrument":4,"program":66},{"pitch":67,"velocity":86,"startTime":104.03923200000001,"endTime":104.91361475000001,"instrument":4,"program":66},{"pitch":71,"velocity":91,"startTime":105.51706200000001,"endTime":106.0983418,"instrument":4,"program":66},{"pitch":69,"velocity":87,"startTime":106.10449942500001,"endTime":106.3200163,"instrument":4,"program":66},{"pitch":71,"velocity":84,"startTime":106.40376,"endTime":107.274448175,"instrument":4,"program":66},{"pitch":67,"velocity":90,"startTime":107.733807,"endTime":107.79538325,"instrument":4,"program":66},{"pitch":67,"velocity":84,"startTime":107.87789542500002,"endTime":107.937008625,"instrument":4,"program":66},{"pitch":71,"velocity":108,"startTime":108.02937299999999,"endTime":108.31508679999999,"instrument":4,"program":66},{"pitch":72,"velocity":87,"startTime":108.31878137500001,"endTime":108.59587450000002,"instrument":4,"program":66},{"pitch":67,"velocity":99,"startTime":108.61434737500001,"endTime":108.73134225000001,"instrument":4,"program":66},{"pitch":67,"velocity":83,"startTime":108.91237642500002,"endTime":108.99242555000001,"instrument":4,"program":66},{"pitch":67,"velocity":76,"startTime":109.06015942500001,"endTime":109.119272625,"instrument":4,"program":66},{"pitch":72,"velocity":108,"startTime":109.20547937500001,"endTime":109.49735079999999,"instrument":4,"program":66},{"pitch":71,"velocity":89,"startTime":109.501045375,"endTime":109.78429612500001,"instrument":4,"program":66},{"pitch":69,"velocity":83,"startTime":109.799074425,"endTime":109.94685742500002,"instrument":4,"program":66},{"pitch":69,"velocity":86,"startTime":110.10079805000001,"endTime":110.15991125,"instrument":4,"program":66},{"pitch":67,"velocity":81,"startTime":110.24858105000001,"endTime":110.32247255,"instrument":4,"program":66},{"pitch":71,"velocity":105,"startTime":110.39390100000001,"endTime":110.6796148,"instrument":4,"program":66},{"pitch":67,"velocity":72,"startTime":110.685772425,"endTime":110.796609675,"instrument":4,"program":66},{"pitch":67,"velocity":86,"startTime":110.978875375,"endTime":111.90251912500001,"instrument":4,"program":66},{"pitch":71,"velocity":95,"startTime":112.606951425,"endTime":112.89020217500001,"instrument":4,"program":66},{"pitch":71,"velocity":90,"startTime":112.906212,"endTime":113.185768175,"instrument":4,"program":66},{"pitch":69,"velocity":92,"startTime":113.20424105000001,"endTime":113.41113725,"instrument":4,"program":66},{"pitch":67,"velocity":86,"startTime":113.49734400000001,"endTime":114.37172675000001,"instrument":4,"program":66},{"pitch":71,"velocity":91,"startTime":114.975174,"endTime":115.5564538,"instrument":4,"program":66},{"pitch":69,"velocity":87,"startTime":115.562611425,"endTime":115.7781283,"instrument":4,"program":66},{"pitch":71,"velocity":84,"startTime":115.861872,"endTime":116.732560175,"instrument":4,"program":66},{"pitch":67,"velocity":90,"startTime":117.191919,"endTime":117.25349525,"instrument":4,"program":66},{"pitch":67,"velocity":84,"startTime":117.336007425,"endTime":117.395120625,"instrument":4,"program":66},{"pitch":71,"velocity":108,"startTime":117.487485,"endTime":117.77319879999999,"instrument":4,"program":66},{"pitch":72,"velocity":87,"startTime":117.77689337500001,"endTime":118.05398650000002,"instrument":4,"program":66},{"pitch":67,"velocity":99,"startTime":118.07245937500001,"endTime":118.18945425,"instrument":4,"program":66},{"pitch":67,"velocity":83,"startTime":118.370488425,"endTime":118.45053754999999,"instrument":4,"program":66},{"pitch":67,"velocity":76,"startTime":118.51827142500001,"endTime":118.577384625,"instrument":4,"program":66},{"pitch":72,"velocity":108,"startTime":118.66359137500001,"endTime":118.95546279999999,"instrument":4,"program":66},{"pitch":71,"velocity":89,"startTime":118.959157375,"endTime":119.24240812500001,"instrument":4,"program":66},{"pitch":69,"velocity":83,"startTime":119.25718642500001,"endTime":119.40496942499999,"instrument":4,"program":66},{"pitch":69,"velocity":86,"startTime":119.55891005000001,"endTime":119.61802325,"instrument":4,"program":66},{"pitch":67,"velocity":81,"startTime":119.70669304999998,"endTime":119.78058455000001,"instrument":4,"program":66},{"pitch":71,"velocity":105,"startTime":119.85201299999999,"endTime":120.13772680000001,"instrument":4,"program":66},{"pitch":67,"velocity":72,"startTime":120.143884425,"endTime":120.254721675,"instrument":4,"program":66},{"pitch":67,"velocity":86,"startTime":120.43698737500002,"endTime":121.36063112500001,"instrument":4,"program":66},{"pitch":71,"velocity":95,"startTime":122.06506342500002,"endTime":122.34831417499998,"instrument":4,"program":66},{"pitch":71,"velocity":90,"startTime":122.364324,"endTime":122.64388017500002,"instrument":4,"program":66},{"pitch":69,"velocity":92,"startTime":122.66235305000001,"endTime":122.86924925000001,"instrument":4,"program":66},{"pitch":67,"velocity":86,"startTime":122.955456,"endTime":123.82983874999998,"instrument":4,"program":66},{"pitch":71,"velocity":91,"startTime":124.433286,"endTime":125.01456580000001,"instrument":4,"program":66},{"pitch":69,"velocity":87,"startTime":125.020723425,"endTime":125.23624029999998,"instrument":4,"program":66},{"pitch":71,"velocity":84,"startTime":125.31998400000002,"endTime":126.19067217499999,"instrument":4,"program":66},{"pitch":67,"velocity":90,"startTime":126.65003100000001,"endTime":126.71160725000001,"instrument":4,"program":66},{"pitch":67,"velocity":84,"startTime":126.794119425,"endTime":126.85323262499999,"instrument":4,"program":66},{"pitch":71,"velocity":108,"startTime":126.945597,"endTime":127.23131079999999,"instrument":4,"program":66},{"pitch":72,"velocity":87,"startTime":127.23500537500001,"endTime":127.51209850000001,"instrument":4,"program":66},{"pitch":67,"velocity":99,"startTime":127.53057137500001,"endTime":127.64756625,"instrument":4,"program":66},{"pitch":67,"velocity":83,"startTime":127.828600425,"endTime":127.90864954999999,"instrument":4,"program":66},{"pitch":67,"velocity":76,"startTime":127.97638342500002,"endTime":128.035496625,"instrument":4,"program":66},{"pitch":72,"velocity":108,"startTime":128.12170337500004,"endTime":128.4135748,"instrument":4,"program":66},{"pitch":71,"velocity":89,"startTime":128.41726937500002,"endTime":128.700520125,"instrument":4,"program":66},{"pitch":69,"velocity":83,"startTime":128.715298425,"endTime":128.86308142500002,"instrument":4,"program":66},{"pitch":69,"velocity":86,"startTime":129.01702204999998,"endTime":129.07613525,"instrument":4,"program":66},{"pitch":67,"velocity":81,"startTime":129.16480505,"endTime":129.23869655,"instrument":4,"program":66},{"pitch":71,"velocity":105,"startTime":129.310125,"endTime":129.5958388,"instrument":4,"program":66},{"pitch":67,"velocity":72,"startTime":129.601996425,"endTime":129.712833675,"instrument":4,"program":66},{"pitch":67,"velocity":86,"startTime":129.895099375,"endTime":130.818743125,"instrument":4,"program":66},{"pitch":71,"velocity":95,"startTime":131.523175425,"endTime":131.806426175,"instrument":4,"program":66},{"pitch":71,"velocity":90,"startTime":131.822436,"endTime":132.101992175,"instrument":4,"program":66},{"pitch":69,"velocity":92,"startTime":132.12046504999998,"endTime":132.32736125,"instrument":4,"program":66},{"pitch":67,"velocity":86,"startTime":132.413568,"endTime":133.28795075000002,"instrument":4,"program":66},{"pitch":71,"velocity":91,"startTime":133.891398,"endTime":134.4726778,"instrument":4,"program":66},{"pitch":69,"velocity":87,"startTime":134.478835425,"endTime":134.69435230000002,"instrument":4,"program":66},{"pitch":71,"velocity":84,"startTime":134.778096,"endTime":135.648784175,"instrument":4,"program":66},{"pitch":67,"velocity":90,"startTime":136.10814299999998,"endTime":136.16971925,"instrument":4,"program":66},{"pitch":67,"velocity":84,"startTime":136.252231425,"endTime":136.311344625,"instrument":4,"program":66},{"pitch":71,"velocity":108,"startTime":136.403709,"endTime":136.68942280000002,"instrument":4,"program":66},{"pitch":72,"velocity":87,"startTime":136.69311737499999,"endTime":136.9702105,"instrument":4,"program":66},{"pitch":67,"velocity":99,"startTime":136.988683375,"endTime":137.10567825,"instrument":4,"program":66},{"pitch":67,"velocity":83,"startTime":137.286712425,"endTime":137.36676155,"instrument":4,"program":66},{"pitch":67,"velocity":76,"startTime":137.434495425,"endTime":137.49360862499998,"instrument":4,"program":66},{"pitch":72,"velocity":108,"startTime":137.579815375,"endTime":137.87168680000002,"instrument":4,"program":66},{"pitch":71,"velocity":89,"startTime":137.87538137500002,"endTime":138.158632125,"instrument":4,"program":66},{"pitch":69,"velocity":83,"startTime":138.173410425,"endTime":138.321193425,"instrument":4,"program":66},{"pitch":69,"velocity":86,"startTime":138.47513405,"endTime":138.53424725000002,"instrument":4,"program":66},{"pitch":67,"velocity":81,"startTime":138.62291705,"endTime":138.69680855000001,"instrument":4,"program":66},{"pitch":71,"velocity":105,"startTime":138.76823700000003,"endTime":139.0539508,"instrument":4,"program":66},{"pitch":67,"velocity":72,"startTime":139.060108425,"endTime":139.170945675,"instrument":4,"program":66},{"pitch":67,"velocity":86,"startTime":139.35321137499997,"endTime":140.27685512499997,"instrument":4,"program":66},{"pitch":71,"velocity":76,"startTime":140.98128742499998,"endTime":141.264538175,"instrument":4,"program":66},{"pitch":71,"velocity":72,"startTime":141.28054799999998,"endTime":141.56010417500002,"instrument":4,"program":66},{"pitch":69,"velocity":74,"startTime":141.57857705,"endTime":141.78547325,"instrument":4,"program":66},{"pitch":67,"velocity":56,"startTime":141.87168000000003,"endTime":142.74606275000002,"instrument":4,"program":66},{"pitch":71,"velocity":41,"startTime":143.34951,"endTime":143.9307898,"instrument":4,"program":66},{"pitch":69,"velocity":39,"startTime":143.936947425,"endTime":144.15246430000002,"instrument":4,"program":66},{"pitch":71,"velocity":17,"startTime":144.236208,"endTime":145.106896175,"instrument":4,"program":66},{"pitch":67,"velocity":9,"startTime":145.566255,"endTime":145.62783125,"instrument":4,"program":66},{"pitch":67,"velocity":8,"startTime":145.71034342500002,"endTime":145.769456625,"instrument":4,"program":66},{"pitch":71,"velocity":11,"startTime":145.861821,"endTime":146.14753480000002,"instrument":4,"program":66},{"pitch":72,"velocity":9,"startTime":146.151229375,"endTime":146.42832249999998,"instrument":4,"program":66},{"pitch":67,"velocity":10,"startTime":146.446795375,"endTime":146.56379025,"instrument":4,"program":66},{"pitch":67,"velocity":1,"startTime":146.74482442500002,"endTime":146.82487355,"instrument":4,"program":66},{"pitch":67,"velocity":1,"startTime":146.892607425,"endTime":146.951720625,"instrument":4,"program":66},{"pitch":72,"velocity":1,"startTime":147.03792737499998,"endTime":147.3297988,"instrument":4,"program":66},{"pitch":71,"velocity":1,"startTime":147.333493375,"endTime":147.61674412500003,"instrument":4,"program":66},{"pitch":69,"velocity":1,"startTime":147.63152242499999,"endTime":147.77930542500002,"instrument":4,"program":66}],"totalTime":148.3495015,"sourceInfo":{"encodingType":"MIDI","parser":"TONEJS_MIDI_CONVERT"}},"tempo":203,"selectedInstruments":[0,1,2,4]}},"controls":[{"name":"contentStartTime","value":"64"},{"name":"contentEndTime","value":"567"},{"name":"contentInstrument0","value":"0"},{"name":"contentInstrument1","value":"1"},{"name":"contentInstrument2","value":"2"},{"name":"contentInstrument3","value":"3"},{"name":"contentInstrument4","value":"4"},{"name":"contentInstrument5","value":"5"},{"name":"contentInstrument6","value":"6"},{"name":"contentInstrument7","value":"7"},{"name":"contentTempo","value":"109"},{"name":"styleStartTime","value":"0"},{"name":"styleEndTime","value":"32"},{"name":"styleInstrument0","value":"0"},{"name":"styleInstrument1","value":"1"},{"name":"styleInstrument2","value":"2"},{"name":"styleInstrument6","value":"6"},{"name":"styleInstrument7","value":"7"},{"name":"styleTempo","value":"203"},{"name":"modelName","value":"v01_drums"},{"name":"samplingCheckbox","value":"on"},{"name":"samplingTemperature","value":"0.6"},{"name":"outputInstrument0","value":"0"},{"name":"outputInstrument1","value":"1"},{"name":"outputInstrument2","value":"2"},{"name":"outputTempo","value":"203"},{"name":"remixInstrument0","value":"0"},{"name":"remixInstrument1","value":"1"},{"name":"remixInstrument2","value":"2"},{"name":"remixInstrument4","value":"4"},{"name":"remixTempo","value":"203"}]}