{"data":{"content":{"trimmedSequence":{"filename":"lithium.mid","ticksPerQuarter":192,"timeSignatures":[{"time":0,"numerator":4,"denominator":4}],"tempos":[{"time":0,"qpm":130.00013000013}],"notes":[{"pitch":40,"velocity":128,"startTime":0,"endTime":0.46153799999999995,"instrument":0,"program":28,"isDrum":false},{"pitch":52,"velocity":128,"startTime":0.46153799999999995,"endTime":0.6923069999999998,"instrument":0,"program":28,"isDrum":false},{"pitch":40,"velocity":128,"startTime":0.6923069999999998,"endTime":0.9230759999999998,"instrument":0,"program":28,"isDrum":false},{"pitch":44,"velocity":128,"startTime":0.9230759999999998,"endTime":1.3846139999999998,"instrument":0,"program":28,"isDrum":false},{"pitch":56,"velocity":128,"startTime":1.3846139999999998,"endTime":1.6153829999999996,"instrument":0,"program":28,"isDrum":false},{"pitch":44,"velocity":128,"startTime":1.6153829999999996,"endTime":1.8461519999999996,"instrument":0,"program":28,"isDrum":false},{"pitch":49,"velocity":128,"startTime":1.8461519999999996,"endTime":2.3076899999999996,"instrument":0,"program":28,"isDrum":false},{"pitch":61,"velocity":128,"startTime":2.3076899999999996,"endTime":2.5384589999999996,"instrument":0,"program":28,"isDrum":false},{"pitch":49,"velocity":128,"startTime":2.5384589999999996,"endTime":2.7692279999999996,"instrument":0,"program":28,"isDrum":false},{"pitch":45,"velocity":128,"startTime":2.7692279999999996,"endTime":3.2307659999999996,"instrument":0,"program":28,"isDrum":false},{"pitch":57,"velocity":128,"startTime":3.2307659999999996,"endTime":3.4615349999999996,"instrument":0,"program":28,"isDrum":false},{"pitch":45,"velocity":128,"startTime":3.4615349999999996,"endTime":3.692303999999999,"instrument":0,"program":28,"isDrum":false},{"pitch":48,"velocity":128,"startTime":3.692303999999999,"endTime":4.153841999999999,"instrument":0,"program":28,"isDrum":false},{"pitch":48,"velocity":128,"startTime":4.153841999999999,"endTime":4.615379999999997,"instrument":0,"program":28,"isDrum":false},{"pitch":48,"velocity":128,"startTime":4.384610999999999,"endTime":4.846148999999996,"instrument":0,"program":28,"isDrum":false},{"pitch":48,"velocity":128,"startTime":4.615379999999997,"endTime":4.846148999999996,"instrument":0,"program":28,"isDrum":false},{"pitch":50,"velocity":128,"startTime":4.846148999999996,"endTime":5.076917999999996,"instrument":0,"program":28,"isDrum":false},{"pitch":50,"velocity":128,"startTime":5.076917999999996,"endTime":5.538455999999996,"instrument":0,"program":28,"isDrum":false},{"pitch":47,"velocity":128,"startTime":5.538455999999996,"endTime":5.999993999999996,"instrument":0,"program":28,"isDrum":false},{"pitch":47,"velocity":128,"startTime":5.999993999999996,"endTime":6.461531999999994,"instrument":0,"program":28,"isDrum":false},{"pitch":47,"velocity":128,"startTime":6.230762999999995,"endTime":6.6923009999999925,"instrument":0,"program":28,"isDrum":false},{"pitch":47,"velocity":128,"startTime":6.461531999999994,"endTime":6.6923009999999925,"instrument":0,"program":28,"isDrum":false},{"pitch":50,"velocity":128,"startTime":6.6923009999999925,"endTime":6.923069999999992,"instrument":0,"program":28,"isDrum":false},{"pitch":50,"velocity":128,"startTime":6.923069999999992,"endTime":7.384607999999992,"instrument":0,"program":28,"isDrum":false},{"pitch":40,"velocity":128,"startTime":7.384607999999992,"endTime":7.846145999999991,"instrument":0,"program":28,"isDrum":false},{"pitch":52,"velocity":128,"startTime":7.846145999999991,"endTime":8.076914999999993,"instrument":0,"program":28,"isDrum":false},{"pitch":47,"velocity":128,"startTime":7.846145999999991,"endTime":8.076914999999993,"instrument":0,"program":28,"isDrum":false},{"pitch":40,"velocity":128,"startTime":8.076914999999993,"endTime":8.307683999999993,"instrument":0,"program":28,"isDrum":false},{"pitch":44,"velocity":128,"startTime":8.307683999999993,"endTime":8.769221999999992,"instrument":0,"program":28,"isDrum":false},{"pitch":56,"velocity":128,"startTime":8.769221999999992,"endTime":8.999990999999993,"instrument":0,"program":28,"isDrum":false},{"pitch":51,"velocity":128,"startTime":8.769221999999992,"endTime":8.999990999999993,"instrument":0,"program":28,"isDrum":false},{"pitch":44,"velocity":128,"startTime":8.999990999999993,"endTime":9.230759999999993,"instrument":0,"program":28,"isDrum":false},{"pitch":49,"velocity":128,"startTime":9.230759999999993,"endTime":9.692297999999992,"instrument":0,"program":28,"isDrum":false},{"pitch":61,"velocity":128,"startTime":9.692297999999992,"endTime":9.923066999999993,"instrument":0,"program":28,"isDrum":false},{"pitch":54,"velocity":128,"startTime":9.692297999999992,"endTime":9.923066999999993,"instrument":0,"program":28,"isDrum":false},{"pitch":49,"velocity":128,"startTime":9.923066999999993,"endTime":10.153835999999993,"instrument":0,"program":28,"isDrum":false},{"pitch":45,"velocity":128,"startTime":10.153835999999993,"endTime":10.615373999999992,"instrument":0,"program":28,"isDrum":false},{"pitch":57,"velocity":128,"startTime":10.615373999999992,"endTime":10.846142999999993,"instrument":0,"program":28,"isDrum":false},{"pitch":52,"velocity":128,"startTime":10.615373999999992,"endTime":10.769219999999992,"instrument":0,"program":28,"isDrum":false},{"pitch":45,"velocity":128,"startTime":10.846142999999993,"endTime":11.076911999999993,"instrument":0,"program":28,"isDrum":false},{"pitch":48,"velocity":128,"startTime":11.076911999999993,"endTime":11.538449999999992,"instrument":0,"program":28,"isDrum":false},{"pitch":48,"velocity":128,"startTime":11.538449999999992,"endTime":11.999987999999991,"instrument":0,"program":28,"isDrum":false},{"pitch":60,"velocity":128,"startTime":11.538449999999992,"endTime":11.769218999999993,"instrument":0,"program":28,"isDrum":false},{"pitch":55,"velocity":128,"startTime":11.538449999999992,"endTime":11.999987999999991,"instrument":0,"program":28,"isDrum":false},{"pitch":48,"velocity":128,"startTime":11.769218999999993,"endTime":12.23075699999999,"instrument":0,"program":28,"isDrum":false},{"pitch":48,"velocity":128,"startTime":11.999987999999991,"endTime":12.23075699999999,"instrument":0,"program":28,"isDrum":false},{"pitch":50,"velocity":128,"startTime":12.23075699999999,"endTime":12.46152599999999,"instrument":0,"program":28,"isDrum":false},{"pitch":50,"velocity":128,"startTime":12.46152599999999,"endTime":12.92306399999999,"instrument":0,"program":28,"isDrum":false},{"pitch":62,"velocity":128,"startTime":12.46152599999999,"endTime":12.92306399999999,"instrument":0,"program":28,"isDrum":false},{"pitch":57,"velocity":128,"startTime":12.46152599999999,"endTime":12.92306399999999,"instrument":0,"program":28,"isDrum":false},{"pitch":47,"velocity":128,"startTime":12.92306399999999,"endTime":13.384601999999989,"instrument":0,"program":28,"isDrum":false},{"pitch":47,"velocity":128,"startTime":13.384601999999989,"endTime":13.846139999999988,"instrument":0,"program":28,"isDrum":false},{"pitch":54,"velocity":128,"startTime":13.384601999999989,"endTime":13.615370999999989,"instrument":0,"program":28,"isDrum":false},{"pitch":59,"velocity":128,"startTime":13.384601999999989,"endTime":13.615370999999989,"instrument":0,"program":28,"isDrum":false},{"pitch":47,"velocity":128,"startTime":13.615370999999989,"endTime":14.076908999999986,"instrument":0,"program":28,"isDrum":false},{"pitch":47,"velocity":128,"startTime":13.846139999999988,"endTime":14.076908999999986,"instrument":0,"program":28,"isDrum":false},{"pitch":50,"velocity":128,"startTime":14.076908999999986,"endTime":14.307677999999987,"instrument":0,"program":28,"isDrum":false},{"pitch":50,"velocity":128,"startTime":14.307677999999987,"endTime":14.769215999999986,"instrument":0,"program":28,"isDrum":false},{"pitch":57,"velocity":128,"startTime":14.307677999999987,"endTime":14.769215999999986,"instrument":0,"program":28,"isDrum":false},{"pitch":62,"velocity":128,"startTime":14.307677999999987,"endTime":14.769215999999986,"instrument":0,"program":28,"isDrum":false},{"pitch":40,"velocity":128,"startTime":14.769215999999986,"endTime":15.230753999999985,"instrument":0,"program":28,"isDrum":false},{"pitch":52,"velocity":128,"startTime":15.230753999999985,"endTime":15.461522999999985,"instrument":0,"program":28,"isDrum":false},{"pitch":47,"velocity":128,"startTime":15.230753999999985,"endTime":15.461522999999985,"instrument":0,"program":28,"isDrum":false},{"pitch":40,"velocity":128,"startTime":15.461522999999985,"endTime":15.692291999999986,"instrument":0,"program":28,"isDrum":false},{"pitch":44,"velocity":128,"startTime":15.692291999999986,"endTime":16.153829999999985,"instrument":0,"program":28,"isDrum":false},{"pitch":56,"velocity":128,"startTime":16.153829999999985,"endTime":16.384598999999984,"instrument":0,"program":28,"isDrum":false},{"pitch":51,"velocity":128,"startTime":16.153829999999985,"endTime":16.384598999999984,"instrument":0,"program":28,"isDrum":false},{"pitch":44,"velocity":128,"startTime":16.384598999999984,"endTime":16.615367999999982,"instrument":0,"program":28,"isDrum":false},{"pitch":49,"velocity":128,"startTime":16.615367999999982,"endTime":17.076905999999983,"instrument":0,"program":28,"isDrum":false},{"pitch":61,"velocity":128,"startTime":17.076905999999983,"endTime":17.307674999999982,"instrument":0,"program":28,"isDrum":false},{"pitch":54,"velocity":128,"startTime":17.076905999999983,"endTime":17.307674999999982,"instrument":0,"program":28,"isDrum":false},{"pitch":49,"velocity":128,"startTime":17.307674999999982,"endTime":17.53844399999998,"instrument":0,"program":28,"isDrum":false},{"pitch":45,"velocity":128,"startTime":17.53844399999998,"endTime":17.99998199999998,"instrument":0,"program":28,"isDrum":false},{"pitch":57,"velocity":128,"startTime":17.99998199999998,"endTime":18.230750999999984,"instrument":0,"program":28,"isDrum":false},{"pitch":52,"velocity":128,"startTime":17.99998199999998,"endTime":18.153827999999983,"instrument":0,"program":28,"isDrum":false},{"pitch":45,"velocity":128,"startTime":18.230750999999984,"endTime":18.461519999999982,"instrument":0,"program":28,"isDrum":false},{"pitch":48,"velocity":128,"startTime":18.461519999999982,"endTime":18.923057999999983,"instrument":0,"program":28,"isDrum":false},{"pitch":48,"velocity":128,"startTime":18.923057999999983,"endTime":19.38459599999998,"instrument":0,"program":28,"isDrum":false},{"pitch":60,"velocity":128,"startTime":18.923057999999983,"endTime":19.153826999999982,"instrument":0,"program":28,"isDrum":false},{"pitch":55,"velocity":128,"startTime":18.923057999999983,"endTime":19.38459599999998,"instrument":0,"program":28,"isDrum":false},{"pitch":48,"velocity":128,"startTime":19.153826999999982,"endTime":19.615364999999983,"instrument":0,"program":28,"isDrum":false},{"pitch":48,"velocity":128,"startTime":19.38459599999998,"endTime":19.615364999999983,"instrument":0,"program":28,"isDrum":false},{"pitch":50,"velocity":128,"startTime":19.615364999999983,"endTime":19.84613399999998,"instrument":0,"program":28,"isDrum":false},{"pitch":50,"velocity":128,"startTime":19.84613399999998,"endTime":20.307671999999982,"instrument":0,"program":28,"isDrum":false},{"pitch":62,"velocity":128,"startTime":19.84613399999998,"endTime":20.307671999999982,"instrument":0,"program":28,"isDrum":false},{"pitch":57,"velocity":128,"startTime":19.84613399999998,"endTime":20.307671999999982,"instrument":0,"program":28,"isDrum":false},{"pitch":47,"velocity":128,"startTime":20.307671999999982,"endTime":20.769209999999983,"instrument":0,"program":28,"isDrum":false},{"pitch":47,"velocity":128,"startTime":20.769209999999983,"endTime":21.23074799999998,"instrument":0,"program":28,"isDrum":false},{"pitch":54,"velocity":128,"startTime":20.769209999999983,"endTime":20.999978999999982,"instrument":0,"program":28,"isDrum":false},{"pitch":59,"velocity":128,"startTime":20.769209999999983,"endTime":20.999978999999982,"instrument":0,"program":28,"isDrum":false},{"pitch":47,"velocity":128,"startTime":20.999978999999982,"endTime":21.461516999999983,"instrument":0,"program":28,"isDrum":false},{"pitch":47,"velocity":128,"startTime":21.23074799999998,"endTime":21.461516999999983,"instrument":0,"program":28,"isDrum":false},{"pitch":50,"velocity":128,"startTime":21.461516999999983,"endTime":21.69228599999998,"instrument":0,"program":28,"isDrum":false},{"pitch":50,"velocity":128,"startTime":21.69228599999998,"endTime":22.153823999999982,"instrument":0,"program":28,"isDrum":false},{"pitch":57,"velocity":128,"startTime":21.69228599999998,"endTime":22.153823999999982,"instrument":0,"program":28,"isDrum":false},{"pitch":62,"velocity":128,"startTime":21.69228599999998,"endTime":22.153823999999982,"instrument":0,"program":28,"isDrum":false},{"pitch":40,"velocity":128,"startTime":22.153823999999982,"endTime":22.615361999999983,"instrument":0,"program":28,"isDrum":false},{"pitch":52,"velocity":128,"startTime":22.615361999999983,"endTime":22.846130999999982,"instrument":0,"program":28,"isDrum":false},{"pitch":47,"velocity":128,"startTime":22.615361999999983,"endTime":22.846130999999982,"instrument":0,"program":28,"isDrum":false},{"pitch":40,"velocity":128,"startTime":22.846130999999982,"endTime":23.07689999999998,"instrument":0,"program":28,"isDrum":false},{"pitch":44,"velocity":128,"startTime":23.07689999999998,"endTime":23.53843799999998,"instrument":0,"program":28,"isDrum":false},{"pitch":56,"velocity":128,"startTime":23.53843799999998,"endTime":23.76920699999998,"instrument":0,"program":28,"isDrum":false},{"pitch":51,"velocity":128,"startTime":23.53843799999998,"endTime":23.76920699999998,"instrument":0,"program":28,"isDrum":false},{"pitch":44,"velocity":128,"startTime":23.76920699999998,"endTime":23.99997599999998,"instrument":0,"program":28,"isDrum":false},{"pitch":49,"velocity":128,"startTime":23.99997599999998,"endTime":24.46151399999998,"instrument":0,"program":28,"isDrum":false},{"pitch":61,"velocity":128,"startTime":24.46151399999998,"endTime":24.69228299999998,"instrument":0,"program":28,"isDrum":false},{"pitch":54,"velocity":128,"startTime":24.46151399999998,"endTime":24.69228299999998,"instrument":0,"program":28,"isDrum":false},{"pitch":49,"velocity":128,"startTime":24.69228299999998,"endTime":24.923051999999977,"instrument":0,"program":28,"isDrum":false},{"pitch":45,"velocity":128,"startTime":24.923051999999977,"endTime":25.384589999999978,"instrument":0,"program":28,"isDrum":false},{"pitch":57,"velocity":128,"startTime":25.384589999999978,"endTime":25.61535899999998,"instrument":0,"program":28,"isDrum":false},{"pitch":52,"velocity":128,"startTime":25.384589999999978,"endTime":25.53843599999998,"instrument":0,"program":28,"isDrum":false},{"pitch":45,"velocity":128,"startTime":25.61535899999998,"endTime":25.84612799999998,"instrument":0,"program":28,"isDrum":false},{"pitch":48,"velocity":128,"startTime":25.84612799999998,"endTime":26.30766599999998,"instrument":0,"program":28,"isDrum":false},{"pitch":48,"velocity":128,"startTime":26.30766599999998,"endTime":26.769203999999977,"instrument":0,"program":28,"isDrum":false},{"pitch":60,"velocity":128,"startTime":26.30766599999998,"endTime":26.53843499999998,"instrument":0,"program":28,"isDrum":false},{"pitch":55,"velocity":128,"startTime":26.30766599999998,"endTime":26.769203999999977,"instrument":0,"program":28,"isDrum":false},{"pitch":48,"velocity":128,"startTime":26.53843499999998,"endTime":26.99997299999998,"instrument":0,"program":28,"isDrum":false},{"pitch":48,"velocity":128,"startTime":26.769203999999977,"endTime":26.99997299999998,"instrument":0,"program":28,"isDrum":false},{"pitch":50,"velocity":128,"startTime":26.99997299999998,"endTime":27.230741999999978,"instrument":0,"program":28,"isDrum":false},{"pitch":50,"velocity":128,"startTime":27.230741999999978,"endTime":27.69227999999998,"instrument":0,"program":28,"isDrum":false},{"pitch":62,"velocity":128,"startTime":27.230741999999978,"endTime":27.69227999999998,"instrument":0,"program":28,"isDrum":false},{"pitch":57,"velocity":128,"startTime":27.230741999999978,"endTime":27.69227999999998,"instrument":0,"program":28,"isDrum":false},{"pitch":47,"velocity":128,"startTime":27.69227999999998,"endTime":28.15381799999998,"instrument":0,"program":28,"isDrum":false},{"pitch":47,"velocity":128,"startTime":28.15381799999998,"endTime":28.615355999999977,"instrument":0,"program":28,"isDrum":false},{"pitch":54,"velocity":128,"startTime":28.15381799999998,"endTime":28.38458699999998,"instrument":0,"program":28,"isDrum":false},{"pitch":59,"velocity":128,"startTime":28.15381799999998,"endTime":28.38458699999998,"instrument":0,"program":28,"isDrum":false},{"pitch":47,"velocity":128,"startTime":28.38458699999998,"endTime":28.84612499999998,"instrument":0,"program":28,"isDrum":false},{"pitch":47,"velocity":128,"startTime":28.615355999999977,"endTime":28.84612499999998,"instrument":0,"program":28,"isDrum":false},{"pitch":50,"velocity":128,"startTime":28.84612499999998,"endTime":29.076893999999978,"instrument":0,"program":28,"isDrum":false},{"pitch":50,"velocity":128,"startTime":29.076893999999978,"endTime":29.53843199999998,"instrument":0,"program":28,"isDrum":false},{"pitch":57,"velocity":128,"startTime":29.076893999999978,"endTime":29.53843199999998,"instrument":0,"program":28,"isDrum":false},{"pitch":62,"velocity":128,"startTime":29.076893999999978,"endTime":29.53843199999998,"instrument":0,"program":28,"isDrum":false},{"pitch":40,"velocity":128,"startTime":29.53843199999998,"endTime":29.99996999999998,"instrument":0,"program":28,"isDrum":false},{"pitch":52,"velocity":128,"startTime":29.99996999999998,"endTime":30.23073899999998,"instrument":0,"program":28,"isDrum":false},{"pitch":47,"velocity":128,"startTime":29.99996999999998,"endTime":30.23073899999998,"instrument":0,"program":28,"isDrum":false},{"pitch":40,"velocity":128,"startTime":30.23073899999998,"endTime":30.461507999999977,"instrument":0,"program":28,"isDrum":false},{"pitch":44,"velocity":128,"startTime":30.461507999999977,"endTime":30.923045999999978,"instrument":0,"program":28,"isDrum":false},{"pitch":56,"velocity":128,"startTime":30.923045999999978,"endTime":31.153814999999977,"instrument":0,"program":28,"isDrum":false},{"pitch":51,"velocity":128,"startTime":30.923045999999978,"endTime":31.153814999999977,"instrument":0,"program":28,"isDrum":false},{"pitch":44,"velocity":128,"startTime":31.153814999999977,"endTime":31.384583999999975,"instrument":0,"program":28,"isDrum":false},{"pitch":49,"velocity":128,"startTime":31.384583999999975,"endTime":31.846121999999976,"instrument":0,"program":28,"isDrum":false},{"pitch":61,"velocity":128,"startTime":31.846121999999976,"endTime":32.07689099999998,"instrument":0,"program":28,"isDrum":false},{"pitch":54,"velocity":128,"startTime":31.846121999999976,"endTime":32.07689099999998,"instrument":0,"program":28,"isDrum":false},{"pitch":49,"velocity":128,"startTime":32.07689099999998,"endTime":32.307659999999984,"instrument":0,"program":28,"isDrum":false},{"pitch":45,"velocity":128,"startTime":32.307659999999984,"endTime":32.76919799999998,"instrument":0,"program":28,"isDrum":false},{"pitch":57,"velocity":128,"startTime":32.76919799999998,"endTime":32.999966999999984,"instrument":0,"program":28,"isDrum":false},{"pitch":52,"velocity":128,"startTime":32.76919799999998,"endTime":32.92304399999998,"instrument":0,"program":28,"isDrum":false},{"pitch":45,"velocity":128,"startTime":32.999966999999984,"endTime":33.230735999999986,"instrument":0,"program":28,"isDrum":false},{"pitch":48,"velocity":128,"startTime":33.230735999999986,"endTime":33.46150499999999,"instrument":0,"program":28,"isDrum":false},{"pitch":55,"velocity":128,"startTime":33.230735999999986,"endTime":33.46150499999999,"instrument":0,"program":28,"isDrum":false},{"pitch":60,"velocity":128,"startTime":33.230735999999986,"endTime":33.46150499999999,"instrument":0,"program":28,"isDrum":false},{"pitch":60,"velocity":128,"startTime":33.46150499999999,"endTime":33.69227399999999,"instrument":0,"program":28,"isDrum":false},{"pitch":55,"velocity":128,"startTime":33.46150499999999,"endTime":33.69227399999999,"instrument":0,"program":28,"isDrum":false},{"pitch":48,"velocity":128,"startTime":33.46150499999999,"endTime":33.69227399999999,"instrument":0,"program":28,"isDrum":false},{"pitch":48,"velocity":128,"startTime":33.69227399999999,"endTime":33.92304299999999,"instrument":0,"program":28,"isDrum":false},{"pitch":55,"velocity":128,"startTime":33.69227399999999,"endTime":33.92304299999999,"instrument":0,"program":28,"isDrum":false},{"pitch":60,"velocity":128,"startTime":33.69227399999999,"endTime":33.92304299999999,"instrument":0,"program":28,"isDrum":false},{"pitch":60,"velocity":128,"startTime":33.92304299999999,"endTime":34.03842749999999,"instrument":0,"program":28,"isDrum":false},{"pitch":55,"velocity":128,"startTime":33.92304299999999,"endTime":34.03842749999999,"instrument":0,"program":28,"isDrum":false},{"pitch":48,"velocity":128,"startTime":33.92304299999999,"endTime":34.03842749999999,"instrument":0,"program":28,"isDrum":false},{"pitch":48,"velocity":128,"startTime":34.03842749999999,"endTime":34.15381199999999,"instrument":0,"program":28,"isDrum":false},{"pitch":55,"velocity":128,"startTime":34.03842749999999,"endTime":34.15381199999999,"instrument":0,"program":28,"isDrum":false},{"pitch":60,"velocity":128,"startTime":34.03842749999999,"endTime":34.15381199999999,"instrument":0,"program":28,"isDrum":false},{"pitch":60,"velocity":128,"startTime":34.15381199999999,"endTime":34.38458099999999,"instrument":0,"program":28,"isDrum":false},{"pitch":55,"velocity":128,"startTime":34.15381199999999,"endTime":34.38458099999999,"instrument":0,"program":28,"isDrum":false},{"pitch":48,"velocity":128,"startTime":34.15381199999999,"endTime":34.38458099999999,"instrument":0,"program":28,"isDrum":false},{"pitch":62,"velocity":128,"startTime":34.38458099999999,"endTime":34.61534999999999,"instrument":0,"program":28,"isDrum":false},{"pitch":57,"velocity":128,"startTime":34.38458099999999,"endTime":34.61534999999999,"instrument":0,"program":28,"isDrum":false},{"pitch":50,"velocity":128,"startTime":34.38458099999999,"endTime":34.61534999999999,"instrument":0,"program":28,"isDrum":false},{"pitch":50,"velocity":128,"startTime":34.61534999999999,"endTime":35.07688799999999,"instrument":0,"program":28,"isDrum":false},{"pitch":62,"velocity":128,"startTime":34.61534999999999,"endTime":35.07688799999999,"instrument":0,"program":28,"isDrum":false},{"pitch":57,"velocity":128,"startTime":34.61534999999999,"endTime":35.07688799999999,"instrument":0,"program":28,"isDrum":false},{"pitch":40,"velocity":128,"startTime":51.692255999999986,"endTime":52.153793999999984,"instrument":0,"program":28,"isDrum":false},{"pitch":52,"velocity":128,"startTime":52.153793999999984,"endTime":52.384562999999986,"instrument":0,"program":28,"isDrum":false},{"pitch":47,"velocity":128,"startTime":52.153793999999984,"endTime":52.384562999999986,"instrument":0,"program":28,"isDrum":false},{"pitch":40,"velocity":128,"startTime":52.384562999999986,"endTime":52.61533199999999,"instrument":0,"program":28,"isDrum":false},{"pitch":44,"velocity":128,"startTime":52.61533199999999,"endTime":53.076869999999985,"instrument":0,"program":28,"isDrum":false},{"pitch":56,"velocity":128,"startTime":53.076869999999985,"endTime":53.30763899999999,"instrument":0,"program":28,"isDrum":false},{"pitch":51,"velocity":128,"startTime":53.076869999999985,"endTime":53.30763899999999,"instrument":0,"program":28,"isDrum":false},{"pitch":44,"velocity":128,"startTime":53.30763899999999,"endTime":53.53840799999999,"instrument":0,"program":28,"isDrum":false},{"pitch":49,"velocity":128,"startTime":53.53840799999999,"endTime":53.99994599999999,"instrument":0,"program":28,"isDrum":false},{"pitch":61,"velocity":128,"startTime":53.99994599999999,"endTime":54.23071499999999,"instrument":0,"program":28,"isDrum":false},{"pitch":54,"velocity":128,"startTime":53.99994599999999,"endTime":54.23071499999999,"instrument":0,"program":28,"isDrum":false},{"pitch":49,"velocity":128,"startTime":54.23071499999999,"endTime":54.46148399999999,"instrument":0,"program":28,"isDrum":false},{"pitch":45,"velocity":128,"startTime":54.46148399999999,"endTime":54.92302199999999,"instrument":0,"program":28,"isDrum":false},{"pitch":57,"velocity":128,"startTime":54.92302199999999,"endTime":55.15379099999999,"instrument":0,"program":28,"isDrum":false},{"pitch":52,"velocity":128,"startTime":54.92302199999999,"endTime":55.07686799999999,"instrument":0,"program":28,"isDrum":false},{"pitch":45,"velocity":128,"startTime":55.15379099999999,"endTime":55.38455999999999,"instrument":0,"program":28,"isDrum":false},{"pitch":48,"velocity":128,"startTime":55.38455999999999,"endTime":55.84609799999999,"instrument":0,"program":28,"isDrum":false},{"pitch":48,"velocity":128,"startTime":55.84609799999999,"endTime":56.307635999999995,"instrument":0,"program":28,"isDrum":false},{"pitch":60,"velocity":128,"startTime":55.84609799999999,"endTime":56.07686699999999,"instrument":0,"program":28,"isDrum":false},{"pitch":55,"velocity":128,"startTime":55.84609799999999,"endTime":56.307635999999995,"instrument":0,"program":28,"isDrum":false},{"pitch":48,"velocity":128,"startTime":56.07686699999999,"endTime":56.538405,"instrument":0,"program":28,"isDrum":false},{"pitch":48,"velocity":128,"startTime":56.307635999999995,"endTime":56.538405,"instrument":0,"program":28,"isDrum":false},{"pitch":50,"velocity":128,"startTime":56.538405,"endTime":56.769174,"instrument":0,"program":28,"isDrum":false},{"pitch":50,"velocity":128,"startTime":56.769174,"endTime":57.230712,"instrument":0,"program":28,"isDrum":false},{"pitch":62,"velocity":128,"startTime":56.769174,"endTime":57.230712,"instrument":0,"program":28,"isDrum":false},{"pitch":57,"velocity":128,"startTime":56.769174,"endTime":57.230712,"instrument":0,"program":28,"isDrum":false},{"pitch":47,"velocity":128,"startTime":57.230712,"endTime":57.692249999999994,"instrument":0,"program":28,"isDrum":false},{"pitch":47,"velocity":128,"startTime":57.692249999999994,"endTime":58.153788,"instrument":0,"program":28,"isDrum":false},{"pitch":54,"velocity":128,"startTime":57.692249999999994,"endTime":57.923019,"instrument":0,"program":28,"isDrum":false},{"pitch":59,"velocity":128,"startTime":57.692249999999994,"endTime":57.923019,"instrument":0,"program":28,"isDrum":false},{"pitch":47,"velocity":128,"startTime":57.923019,"endTime":58.384557,"instrument":0,"program":28,"isDrum":false},{"pitch":47,"velocity":128,"startTime":58.153788,"endTime":58.384557,"instrument":0,"program":28,"isDrum":false},{"pitch":50,"velocity":128,"startTime":58.384557,"endTime":58.615326,"instrument":0,"program":28,"isDrum":false},{"pitch":50,"velocity":128,"startTime":58.615326,"endTime":59.076864,"instrument":0,"program":28,"isDrum":false},{"pitch":57,"velocity":128,"startTime":58.615326,"endTime":59.076864,"instrument":0,"program":28,"isDrum":false},{"pitch":62,"velocity":128,"startTime":58.615326,"endTime":59.076864,"instrument":0,"program":28,"isDrum":false},{"pitch":40,"velocity":128,"startTime":59.076864,"endTime":59.538402,"instrument":0,"program":28,"isDrum":false},{"pitch":52,"velocity":128,"startTime":59.538402,"endTime":59.769171,"instrument":0,"program":28,"isDrum":false},{"pitch":47,"velocity":128,"startTime":59.538402,"endTime":59.769171,"instrument":0,"program":28,"isDrum":false},{"pitch":40,"velocity":128,"startTime":59.769171,"endTime":59.99994,"instrument":0,"program":28,"isDrum":false},{"pitch":44,"velocity":128,"startTime":59.99994,"endTime":60.461478,"instrument":0,"program":28,"isDrum":false},{"pitch":56,"velocity":128,"startTime":60.461478,"endTime":60.692247,"instrument":0,"program":28,"isDrum":false},{"pitch":51,"velocity":128,"startTime":60.461478,"endTime":60.692247,"instrument":0,"program":28,"isDrum":false},{"pitch":44,"velocity":128,"startTime":60.692247,"endTime":60.923016000000004,"instrument":0,"program":28,"isDrum":false},{"pitch":49,"velocity":128,"startTime":60.923016000000004,"endTime":61.384554,"instrument":0,"program":28,"isDrum":false},{"pitch":61,"velocity":128,"startTime":61.384554,"endTime":61.615323000000004,"instrument":0,"program":28,"isDrum":false},{"pitch":54,"velocity":128,"startTime":61.384554,"endTime":61.615323000000004,"instrument":0,"program":28,"isDrum":false},{"pitch":49,"velocity":128,"startTime":61.615323000000004,"endTime":61.846092000000006,"instrument":0,"program":28,"isDrum":false},{"pitch":45,"velocity":128,"startTime":61.846092000000006,"endTime":62.30763,"instrument":0,"program":28,"isDrum":false},{"pitch":57,"velocity":128,"startTime":62.30763,"endTime":62.538399000000005,"instrument":0,"program":28,"isDrum":false},{"pitch":52,"velocity":128,"startTime":62.30763,"endTime":62.461476000000005,"instrument":0,"program":28,"isDrum":false},{"pitch":45,"velocity":128,"startTime":62.538399000000005,"endTime":62.76916800000001,"instrument":0,"program":28,"isDrum":false},{"pitch":48,"velocity":128,"startTime":62.76916800000001,"endTime":63.230706000000005,"instrument":0,"program":28,"isDrum":false},{"pitch":48,"velocity":128,"startTime":63.230706000000005,"endTime":63.692244000000024,"instrument":0,"program":28,"isDrum":false},{"pitch":60,"velocity":128,"startTime":63.230706000000005,"endTime":63.46147500000001,"instrument":0,"program":28,"isDrum":false},{"pitch":55,"velocity":128,"startTime":63.230706000000005,"endTime":63.692244000000024,"instrument":0,"program":28,"isDrum":false},{"pitch":48,"velocity":128,"startTime":63.46147500000001,"endTime":63.92301300000005,"instrument":0,"program":28,"isDrum":false},{"pitch":48,"velocity":128,"startTime":63.692244000000024,"endTime":63.92301300000005,"instrument":0,"program":28,"isDrum":false},{"pitch":50,"velocity":128,"startTime":63.92301300000005,"endTime":64.15378200000004,"instrument":0,"program":28,"isDrum":false},{"pitch":50,"velocity":128,"startTime":64.15378200000004,"endTime":64.61532000000004,"instrument":0,"program":28,"isDrum":false},{"pitch":62,"velocity":128,"startTime":64.15378200000004,"endTime":64.61532000000004,"instrument":0,"program":28,"isDrum":false},{"pitch":57,"velocity":128,"startTime":64.15378200000004,"endTime":64.61532000000004,"instrument":0,"program":28,"isDrum":false},{"pitch":47,"velocity":128,"startTime":64.61532000000004,"endTime":65.07685800000004,"instrument":0,"program":28,"isDrum":false},{"pitch":47,"velocity":128,"startTime":65.07685800000004,"endTime":65.53839600000006,"instrument":0,"program":28,"isDrum":false},{"pitch":54,"velocity":128,"startTime":65.07685800000004,"endTime":65.30762700000004,"instrument":0,"program":28,"isDrum":false},{"pitch":59,"velocity":128,"startTime":65.07685800000004,"endTime":65.30762700000004,"instrument":0,"program":28,"isDrum":false},{"pitch":47,"velocity":128,"startTime":65.30762700000004,"endTime":65.76916500000009,"instrument":0,"program":28,"isDrum":false},{"pitch":47,"velocity":128,"startTime":65.53839600000006,"endTime":65.76916500000009,"instrument":0,"program":28,"isDrum":false},{"pitch":50,"velocity":128,"startTime":65.76916500000009,"endTime":65.99993400000008,"instrument":0,"program":28,"isDrum":false},{"pitch":50,"velocity":128,"startTime":65.99993400000008,"endTime":66.46147200000009,"instrument":0,"program":28,"isDrum":false},{"pitch":57,"velocity":128,"startTime":65.99993400000008,"endTime":66.46147200000009,"instrument":0,"program":28,"isDrum":false},{"pitch":62,"velocity":128,"startTime":65.99993400000008,"endTime":66.46147200000009,"instrument":0,"program":28,"isDrum":false},{"pitch":40,"velocity":128,"startTime":66.46147200000009,"endTime":66.92301000000009,"instrument":0,"program":28,"isDrum":false},{"pitch":52,"velocity":128,"startTime":66.92301000000009,"endTime":67.15377900000009,"instrument":0,"program":28,"isDrum":false},{"pitch":47,"velocity":128,"startTime":66.92301000000009,"endTime":67.15377900000009,"instrument":0,"program":28,"isDrum":false},{"pitch":40,"velocity":128,"startTime":67.15377900000009,"endTime":67.38454800000008,"instrument":0,"program":28,"isDrum":false},{"pitch":44,"velocity":128,"startTime":67.38454800000008,"endTime":67.84608600000008,"instrument":0,"program":28,"isDrum":false},{"pitch":56,"velocity":128,"startTime":67.84608600000008,"endTime":68.07685500000008,"instrument":0,"program":28,"isDrum":false},{"pitch":51,"velocity":128,"startTime":67.84608600000008,"endTime":68.07685500000008,"instrument":0,"program":28,"isDrum":false},{"pitch":44,"velocity":128,"startTime":68.07685500000008,"endTime":68.30762400000008,"instrument":0,"program":28,"isDrum":false},{"pitch":49,"velocity":128,"startTime":68.30762400000008,"endTime":68.76916200000008,"instrument":0,"program":28,"isDrum":false},{"pitch":61,"velocity":128,"startTime":68.76916200000008,"endTime":68.99993100000007,"instrument":0,"program":28,"isDrum":false},{"pitch":54,"velocity":128,"startTime":68.76916200000008,"endTime":68.99993100000007,"instrument":0,"program":28,"isDrum":false},{"pitch":49,"velocity":128,"startTime":68.99993100000007,"endTime":69.23070000000007,"instrument":0,"program":28,"isDrum":false},{"pitch":45,"velocity":128,"startTime":69.23070000000007,"endTime":69.69223800000007,"instrument":0,"program":28,"isDrum":false},{"pitch":57,"velocity":128,"startTime":69.69223800000007,"endTime":69.92300700000007,"instrument":0,"program":28,"isDrum":false},{"pitch":52,"velocity":128,"startTime":69.69223800000007,"endTime":69.84608400000008,"instrument":0,"program":28,"isDrum":false},{"pitch":45,"velocity":128,"startTime":69.92300700000007,"endTime":70.15377600000006,"instrument":0,"program":28,"isDrum":false},{"pitch":48,"velocity":128,"startTime":70.15377600000006,"endTime":70.61531400000007,"instrument":0,"program":28,"isDrum":false},{"pitch":48,"velocity":128,"startTime":70.61531400000007,"endTime":71.07685200000009,"instrument":0,"program":28,"isDrum":false},{"pitch":60,"velocity":128,"startTime":70.61531400000007,"endTime":70.84608300000006,"instrument":0,"program":28,"isDrum":false},{"pitch":55,"velocity":128,"startTime":70.61531400000007,"endTime":71.07685200000009,"instrument":0,"program":28,"isDrum":false},{"pitch":48,"velocity":128,"startTime":70.84608300000006,"endTime":71.30762100000011,"instrument":0,"program":28,"isDrum":false},{"pitch":48,"velocity":128,"startTime":71.07685200000009,"endTime":71.30762100000011,"instrument":0,"program":28,"isDrum":false},{"pitch":50,"velocity":128,"startTime":71.30762100000011,"endTime":71.5383900000001,"instrument":0,"program":28,"isDrum":false},{"pitch":50,"velocity":128,"startTime":71.5383900000001,"endTime":71.99992800000011,"instrument":0,"program":28,"isDrum":false},{"pitch":62,"velocity":128,"startTime":71.5383900000001,"endTime":71.99992800000011,"instrument":0,"program":28,"isDrum":false},{"pitch":57,"velocity":128,"startTime":71.5383900000001,"endTime":71.99992800000011,"instrument":0,"program":28,"isDrum":false},{"pitch":47,"velocity":128,"startTime":71.99992800000011,"endTime":72.46146600000012,"instrument":0,"program":28,"isDrum":false},{"pitch":47,"velocity":128,"startTime":72.46146600000012,"endTime":72.92300400000013,"instrument":0,"program":28,"isDrum":false},{"pitch":54,"velocity":128,"startTime":72.46146600000012,"endTime":72.69223500000011,"instrument":0,"program":28,"isDrum":false},{"pitch":59,"velocity":128,"startTime":72.46146600000012,"endTime":72.69223500000011,"instrument":0,"program":28,"isDrum":false},{"pitch":47,"velocity":128,"startTime":72.69223500000011,"endTime":73.15377300000016,"instrument":0,"program":28,"isDrum":false},{"pitch":47,"velocity":128,"startTime":72.92300400000013,"endTime":73.15377300000016,"instrument":0,"program":28,"isDrum":false},{"pitch":50,"velocity":128,"startTime":73.15377300000016,"endTime":73.38454200000015,"instrument":0,"program":28,"isDrum":false},{"pitch":50,"velocity":128,"startTime":73.38454200000015,"endTime":73.84608000000016,"instrument":0,"program":28,"isDrum":false},{"pitch":57,"velocity":128,"startTime":73.38454200000015,"endTime":73.84608000000016,"instrument":0,"program":28,"isDrum":false},{"pitch":62,"velocity":128,"startTime":73.38454200000015,"endTime":73.84608000000016,"instrument":0,"program":28,"isDrum":false},{"pitch":40,"velocity":128,"startTime":73.84608000000016,"endTime":74.30761800000016,"instrument":0,"program":28,"isDrum":false},{"pitch":52,"velocity":128,"startTime":74.30761800000016,"endTime":74.53838700000016,"instrument":0,"program":28,"isDrum":false},{"pitch":47,"velocity":128,"startTime":74.30761800000016,"endTime":74.53838700000016,"instrument":0,"program":28,"isDrum":false},{"pitch":40,"velocity":128,"startTime":74.53838700000016,"endTime":74.76915600000015,"instrument":0,"program":28,"isDrum":false},{"pitch":44,"velocity":128,"startTime":74.76915600000015,"endTime":75.23069400000016,"instrument":0,"program":28,"isDrum":false},{"pitch":56,"velocity":128,"startTime":75.23069400000016,"endTime":75.46146300000015,"instrument":0,"program":28,"isDrum":false},{"pitch":51,"velocity":128,"startTime":75.23069400000016,"endTime":75.46146300000015,"instrument":0,"program":28,"isDrum":false},{"pitch":44,"velocity":128,"startTime":75.46146300000015,"endTime":75.69223200000015,"instrument":0,"program":28,"isDrum":false},{"pitch":49,"velocity":128,"startTime":75.69223200000015,"endTime":76.15377000000015,"instrument":0,"program":28,"isDrum":false},{"pitch":61,"velocity":128,"startTime":76.15377000000015,"endTime":76.38453900000015,"instrument":0,"program":28,"isDrum":false},{"pitch":54,"velocity":128,"startTime":76.15377000000015,"endTime":76.38453900000015,"instrument":0,"program":28,"isDrum":false},{"pitch":49,"velocity":128,"startTime":76.38453900000015,"endTime":76.61530800000014,"instrument":0,"program":28,"isDrum":false},{"pitch":45,"velocity":128,"startTime":76.61530800000014,"endTime":77.07684600000015,"instrument":0,"program":28,"isDrum":false},{"pitch":57,"velocity":128,"startTime":77.07684600000015,"endTime":77.30761500000014,"instrument":0,"program":28,"isDrum":false},{"pitch":52,"velocity":128,"startTime":77.07684600000015,"endTime":77.23069200000015,"instrument":0,"program":28,"isDrum":false},{"pitch":45,"velocity":128,"startTime":77.30761500000014,"endTime":77.53838400000014,"instrument":0,"program":28,"isDrum":false},{"pitch":48,"velocity":128,"startTime":77.53838400000014,"endTime":77.99992200000014,"instrument":0,"program":28,"isDrum":false},{"pitch":48,"velocity":128,"startTime":77.99992200000014,"endTime":78.46146000000016,"instrument":0,"program":28,"isDrum":false},{"pitch":60,"velocity":128,"startTime":77.99992200000014,"endTime":78.23069100000014,"instrument":0,"program":28,"isDrum":false},{"pitch":55,"velocity":128,"startTime":77.99992200000014,"endTime":78.46146000000016,"instrument":0,"program":28,"isDrum":false},{"pitch":48,"velocity":128,"startTime":78.23069100000014,"endTime":78.69222900000018,"instrument":0,"program":28,"isDrum":false},{"pitch":48,"velocity":128,"startTime":78.46146000000016,"endTime":78.69222900000018,"instrument":0,"program":28,"isDrum":false},{"pitch":50,"velocity":128,"startTime":78.69222900000018,"endTime":78.92299800000018,"instrument":0,"program":28,"isDrum":false},{"pitch":50,"velocity":128,"startTime":78.92299800000018,"endTime":79.38453600000018,"instrument":0,"program":28,"isDrum":false},{"pitch":62,"velocity":128,"startTime":78.92299800000018,"endTime":79.38453600000018,"instrument":0,"program":28,"isDrum":false},{"pitch":57,"velocity":128,"startTime":78.92299800000018,"endTime":79.38453600000018,"instrument":0,"program":28,"isDrum":false},{"pitch":47,"velocity":128,"startTime":79.38453600000018,"endTime":79.84607400000019,"instrument":0,"program":28,"isDrum":false},{"pitch":47,"velocity":128,"startTime":79.84607400000019,"endTime":80.3076120000002,"instrument":0,"program":28,"isDrum":false},{"pitch":54,"velocity":128,"startTime":79.84607400000019,"endTime":80.07684300000018,"instrument":0,"program":28,"isDrum":false},{"pitch":59,"velocity":128,"startTime":79.84607400000019,"endTime":80.07684300000018,"instrument":0,"program":28,"isDrum":false},{"pitch":47,"velocity":128,"startTime":80.07684300000018,"endTime":80.53838100000023,"instrument":0,"program":28,"isDrum":false},{"pitch":47,"velocity":128,"startTime":80.3076120000002,"endTime":80.53838100000023,"instrument":0,"program":28,"isDrum":false},{"pitch":50,"velocity":128,"startTime":80.53838100000023,"endTime":80.76915000000022,"instrument":0,"program":28,"isDrum":false},{"pitch":50,"velocity":128,"startTime":80.76915000000022,"endTime":81.23068800000023,"instrument":0,"program":28,"isDrum":false},{"pitch":57,"velocity":128,"startTime":80.76915000000022,"endTime":81.23068800000023,"instrument":0,"program":28,"isDrum":false},{"pitch":62,"velocity":128,"startTime":80.76915000000022,"endTime":81.23068800000023,"instrument":0,"program":28,"isDrum":false},{"pitch":40,"velocity":128,"startTime":81.23068800000023,"endTime":81.69222600000023,"instrument":0,"program":28,"isDrum":false},{"pitch":52,"velocity":128,"startTime":81.69222600000023,"endTime":81.92299500000023,"instrument":0,"program":28,"isDrum":false},{"pitch":47,"velocity":128,"startTime":81.69222600000023,"endTime":81.92299500000023,"instrument":0,"program":28,"isDrum":false},{"pitch":40,"velocity":128,"startTime":81.92299500000023,"endTime":82.15376400000022,"instrument":0,"program":28,"isDrum":false},{"pitch":44,"velocity":128,"startTime":82.15376400000022,"endTime":82.61530200000023,"instrument":0,"program":28,"isDrum":false},{"pitch":56,"velocity":128,"startTime":82.61530200000023,"endTime":82.84607100000022,"instrument":0,"program":28,"isDrum":false},{"pitch":51,"velocity":128,"startTime":82.61530200000023,"endTime":82.84607100000022,"instrument":0,"program":28,"isDrum":false},{"pitch":44,"velocity":128,"startTime":82.84607100000022,"endTime":83.07684000000022,"instrument":0,"program":28,"isDrum":false},{"pitch":49,"velocity":128,"startTime":83.07684000000022,"endTime":83.53837800000022,"instrument":0,"program":28,"isDrum":false},{"pitch":61,"velocity":128,"startTime":83.53837800000022,"endTime":83.76914700000022,"instrument":0,"program":28,"isDrum":false},{"pitch":54,"velocity":128,"startTime":83.53837800000022,"endTime":83.76914700000022,"instrument":0,"program":28,"isDrum":false},{"pitch":49,"velocity":128,"startTime":83.76914700000022,"endTime":83.99991600000021,"instrument":0,"program":28,"isDrum":false},{"pitch":45,"velocity":128,"startTime":83.99991600000021,"endTime":84.46145400000022,"instrument":0,"program":28,"isDrum":false},{"pitch":57,"velocity":128,"startTime":84.46145400000022,"endTime":84.69222300000021,"instrument":0,"program":28,"isDrum":false},{"pitch":52,"velocity":128,"startTime":84.46145400000022,"endTime":84.61530000000022,"instrument":0,"program":28,"isDrum":false},{"pitch":45,"velocity":128,"startTime":84.69222300000021,"endTime":84.9229920000002,"instrument":0,"program":28,"isDrum":false},{"pitch":48,"velocity":128,"startTime":84.9229920000002,"endTime":85.1537610000002,"instrument":0,"program":28,"isDrum":false},{"pitch":55,"velocity":128,"startTime":84.9229920000002,"endTime":85.1537610000002,"instrument":0,"program":28,"isDrum":false},{"pitch":60,"velocity":128,"startTime":84.9229920000002,"endTime":85.1537610000002,"instrument":0,"program":28,"isDrum":false},{"pitch":60,"velocity":128,"startTime":85.1537610000002,"endTime":85.3845300000002,"instrument":0,"program":28,"isDrum":false},{"pitch":55,"velocity":128,"startTime":85.1537610000002,"endTime":85.3845300000002,"instrument":0,"program":28,"isDrum":false},{"pitch":48,"velocity":128,"startTime":85.1537610000002,"endTime":85.3845300000002,"instrument":0,"program":28,"isDrum":false},{"pitch":48,"velocity":128,"startTime":85.3845300000002,"endTime":85.61529900000019,"instrument":0,"program":28,"isDrum":false},{"pitch":55,"velocity":128,"startTime":85.3845300000002,"endTime":85.61529900000019,"instrument":0,"program":28,"isDrum":false},{"pitch":60,"velocity":128,"startTime":85.3845300000002,"endTime":85.61529900000019,"instrument":0,"program":28,"isDrum":false},{"pitch":60,"velocity":128,"startTime":85.61529900000019,"endTime":85.7306835000002,"instrument":0,"program":28,"isDrum":false},{"pitch":55,"velocity":128,"startTime":85.61529900000019,"endTime":85.7306835000002,"instrument":0,"program":28,"isDrum":false},{"pitch":48,"velocity":128,"startTime":85.61529900000019,"endTime":85.7306835000002,"instrument":0,"program":28,"isDrum":false},{"pitch":48,"velocity":128,"startTime":85.7306835000002,"endTime":85.8460680000002,"instrument":0,"program":28,"isDrum":false},{"pitch":55,"velocity":128,"startTime":85.7306835000002,"endTime":85.8460680000002,"instrument":0,"program":28,"isDrum":false},{"pitch":60,"velocity":128,"startTime":85.7306835000002,"endTime":85.8460680000002,"instrument":0,"program":28,"isDrum":false},{"pitch":60,"velocity":128,"startTime":85.8460680000002,"endTime":86.0768370000002,"instrument":0,"program":28,"isDrum":false},{"pitch":55,"velocity":128,"startTime":85.8460680000002,"endTime":86.0768370000002,"instrument":0,"program":28,"isDrum":false},{"pitch":48,"velocity":128,"startTime":85.8460680000002,"endTime":86.0768370000002,"instrument":0,"program":28,"isDrum":false},{"pitch":62,"velocity":128,"startTime":86.0768370000002,"endTime":86.30760600000019,"instrument":0,"program":28,"isDrum":false},{"pitch":57,"velocity":128,"startTime":86.0768370000002,"endTime":86.30760600000019,"instrument":0,"program":28,"isDrum":false},{"pitch":50,"velocity":128,"startTime":86.0768370000002,"endTime":86.30760600000019,"instrument":0,"program":28,"isDrum":false},{"pitch":50,"velocity":128,"startTime":86.30760600000019,"endTime":86.7691440000002,"instrument":0,"program":28,"isDrum":false},{"pitch":62,"velocity":128,"startTime":86.30760600000019,"endTime":86.7691440000002,"instrument":0,"program":28,"isDrum":false},{"pitch":57,"velocity":128,"startTime":86.30760600000019,"endTime":86.7691440000002,"instrument":0,"program":28,"isDrum":false},{"pitch":41,"velocity":128,"startTime":7.384607999999999,"endTime":7.538453999999999,"instrument":1,"program":118,"isDrum":true},{"pitch":43,"velocity":103,"startTime":7.384607999999999,"endTime":7.538453999999999,"instrument":1,"program":118,"isDrum":true},{"pitch":45,"velocity":103,"startTime":7.384607999999999,"endTime":7.538453999999999,"instrument":1,"program":118,"isDrum":true},{"pitch":54,"velocity":128,"startTime":7.384607999999999,"endTime":7.538453999999999,"instrument":1,"program":118,"isDrum":true},{"pitch":54,"velocity":128,"startTime":7.615377,"endTime":7.769222999999999,"instrument":1,"program":118,"isDrum":true},{"pitch":54,"velocity":128,"startTime":7.846146,"endTime":7.999992,"instrument":1,"program":118,"isDrum":true},{"pitch":40,"velocity":109,"startTime":7.846146,"endTime":7.999992,"instrument":1,"program":118,"isDrum":true},{"pitch":54,"velocity":128,"startTime":8.076915000000001,"endTime":8.230761000000001,"instrument":1,"program":118,"isDrum":true},{"pitch":54,"velocity":128,"startTime":8.307684000000002,"endTime":8.461530000000002,"instrument":1,"program":118,"isDrum":true},{"pitch":54,"velocity":128,"startTime":8.538453000000002,"endTime":8.692299000000002,"instrument":1,"program":118,"isDrum":true},{"pitch":54,"velocity":128,"startTime":8.769222000000003,"endTime":8.923068000000002,"instrument":1,"program":118,"isDrum":true},{"pitch":40,"velocity":109,"startTime":8.769222000000003,"endTime":8.923068000000002,"instrument":1,"program":118,"isDrum":true},{"pitch":54,"velocity":128,"startTime":8.999991000000003,"endTime":9.153837000000003,"instrument":1,"program":118,"isDrum":true},{"pitch":54,"velocity":128,"startTime":9.230760000000004,"endTime":9.384606000000003,"instrument":1,"program":118,"isDrum":true},{"pitch":41,"velocity":128,"startTime":9.230760000000004,"endTime":9.384606000000003,"instrument":1,"program":118,"isDrum":true},{"pitch":43,"velocity":103,"startTime":9.230760000000004,"endTime":9.384606000000003,"instrument":1,"program":118,"isDrum":true},{"pitch":45,"velocity":103,"startTime":9.230760000000004,"endTime":9.384606000000003,"instrument":1,"program":118,"isDrum":true},{"pitch":54,"velocity":128,"startTime":9.461529000000004,"endTime":9.615375000000004,"instrument":1,"program":118,"isDrum":true},{"pitch":54,"velocity":128,"startTime":9.692298000000005,"endTime":9.846144000000004,"instrument":1,"program":118,"isDrum":true},{"pitch":40,"velocity":109,"startTime":9.692298000000005,"endTime":9.846144000000004,"instrument":1,"program":118,"isDrum":true},{"pitch":54,"velocity":128,"startTime":9.923067000000005,"endTime":10.076913000000005,"instrument":1,"program":118,"isDrum":true},{"pitch":54,"velocity":128,"startTime":10.153836000000005,"endTime":10.307682000000005,"instrument":1,"program":118,"isDrum":true},{"pitch":54,"velocity":128,"startTime":10.384605000000006,"endTime":10.538451000000006,"instrument":1,"program":118,"isDrum":true},{"pitch":54,"velocity":128,"startTime":10.615374000000006,"endTime":10.769220000000006,"instrument":1,"program":118,"isDrum":true},{"pitch":40,"velocity":109,"startTime":10.615374000000006,"endTime":10.769220000000006,"instrument":1,"program":118,"isDrum":true},{"pitch":54,"velocity":128,"startTime":10.846143000000007,"endTime":10.999989000000006,"instrument":1,"program":118,"isDrum":true},{"pitch":54,"velocity":128,"startTime":11.076912000000007,"endTime":11.230758000000007,"instrument":1,"program":118,"isDrum":true},{"pitch":41,"velocity":128,"startTime":11.076912000000007,"endTime":11.230758000000007,"instrument":1,"program":118,"isDrum":true},{"pitch":43,"velocity":103,"startTime":11.076912000000007,"endTime":11.230758000000007,"instrument":1,"program":118,"isDrum":true},{"pitch":45,"velocity":103,"startTime":11.076912000000007,"endTime":11.230758000000007,"instrument":1,"program":118,"isDrum":true},{"pitch":54,"velocity":128,"startTime":11.307681000000008,"endTime":11.461527000000007,"instrument":1,"program":118,"isDrum":true},{"pitch":54,"velocity":128,"startTime":11.538450000000008,"endTime":11.692296000000008,"instrument":1,"program":118,"isDrum":true},{"pitch":40,"velocity":109,"startTime":11.538450000000008,"endTime":11.692296000000008,"instrument":1,"program":118,"isDrum":true},{"pitch":54,"velocity":128,"startTime":11.769219000000009,"endTime":11.923065000000008,"instrument":1,"program":118,"isDrum":true},{"pitch":54,"velocity":128,"startTime":11.999988000000009,"endTime":12.153834000000009,"instrument":1,"program":118,"isDrum":true},{"pitch":54,"velocity":128,"startTime":12.23075700000001,"endTime":12.38460300000001,"instrument":1,"program":118,"isDrum":true},{"pitch":54,"velocity":128,"startTime":12.46152600000001,"endTime":12.61537200000001,"instrument":1,"program":118,"isDrum":true},{"pitch":40,"velocity":109,"startTime":12.46152600000001,"endTime":12.61537200000001,"instrument":1,"program":118,"isDrum":true},{"pitch":54,"velocity":128,"startTime":12.69229500000001,"endTime":12.84614100000001,"instrument":1,"program":118,"isDrum":true},{"pitch":54,"velocity":128,"startTime":12.92306400000001,"endTime":13.07691000000001,"instrument":1,"program":118,"isDrum":true},{"pitch":41,"velocity":128,"startTime":12.92306400000001,"endTime":13.07691000000001,"instrument":1,"program":118,"isDrum":true},{"pitch":43,"velocity":103,"startTime":12.92306400000001,"endTime":13.07691000000001,"instrument":1,"program":118,"isDrum":true},{"pitch":45,"velocity":103,"startTime":12.92306400000001,"endTime":13.07691000000001,"instrument":1,"program":118,"isDrum":true},{"pitch":54,"velocity":128,"startTime":13.153833000000011,"endTime":13.307679000000011,"instrument":1,"program":118,"isDrum":true},{"pitch":54,"velocity":128,"startTime":13.384602000000012,"endTime":13.538448000000011,"instrument":1,"program":118,"isDrum":true},{"pitch":40,"velocity":109,"startTime":13.384602000000012,"endTime":13.538448000000011,"instrument":1,"program":118,"isDrum":true},{"pitch":54,"velocity":128,"startTime":13.615371000000012,"endTime":13.769217000000012,"instrument":1,"program":118,"isDrum":true},{"pitch":54,"velocity":128,"startTime":13.846140000000013,"endTime":13.999986000000012,"instrument":1,"program":118,"isDrum":true},{"pitch":54,"velocity":128,"startTime":14.076909000000013,"endTime":14.230755000000013,"instrument":1,"program":118,"isDrum":true},{"pitch":54,"velocity":128,"startTime":14.307678000000013,"endTime":14.461524000000013,"instrument":1,"program":118,"isDrum":true},{"pitch":40,"velocity":109,"startTime":14.307678000000013,"endTime":14.461524000000013,"instrument":1,"program":118,"isDrum":true},{"pitch":54,"velocity":128,"startTime":14.538447000000014,"endTime":14.692293000000014,"instrument":1,"program":118,"isDrum":true},{"pitch":54,"velocity":128,"startTime":14.769216000000014,"endTime":14.923062000000014,"instrument":1,"program":118,"isDrum":true},{"pitch":41,"velocity":128,"startTime":14.769216000000014,"endTime":14.923062000000014,"instrument":1,"program":118,"isDrum":true},{"pitch":43,"velocity":103,"startTime":14.769216000000014,"endTime":14.923062000000014,"instrument":1,"program":118,"isDrum":true},{"pitch":45,"velocity":103,"startTime":14.769216000000014,"endTime":14.923062000000014,"instrument":1,"program":118,"isDrum":true},{"pitch":54,"velocity":128,"startTime":14.999985000000015,"endTime":15.153831000000014,"instrument":1,"program":118,"isDrum":true},{"pitch":54,"velocity":128,"startTime":15.230754000000015,"endTime":15.384600000000015,"instrument":1,"program":118,"isDrum":true},{"pitch":40,"velocity":109,"startTime":15.230754000000015,"endTime":15.384600000000015,"instrument":1,"program":118,"isDrum":true},{"pitch":54,"velocity":128,"startTime":15.461523000000016,"endTime":15.615369000000017,"instrument":1,"program":118,"isDrum":true},{"pitch":54,"velocity":128,"startTime":15.692292000000018,"endTime":15.84613800000002,"instrument":1,"program":118,"isDrum":true},{"pitch":54,"velocity":128,"startTime":15.92306100000002,"endTime":16.07690700000002,"instrument":1,"program":118,"isDrum":true},{"pitch":54,"velocity":128,"startTime":16.15383000000002,"endTime":16.307676000000022,"instrument":1,"program":118,"isDrum":true},{"pitch":40,"velocity":109,"startTime":16.15383000000002,"endTime":16.307676000000022,"instrument":1,"program":118,"isDrum":true},{"pitch":54,"velocity":128,"startTime":16.384599000000023,"endTime":16.538445000000024,"instrument":1,"program":118,"isDrum":true},{"pitch":54,"velocity":128,"startTime":16.615368000000025,"endTime":16.769214000000026,"instrument":1,"program":118,"isDrum":true},{"pitch":41,"velocity":128,"startTime":16.615368000000025,"endTime":16.769214000000026,"instrument":1,"program":118,"isDrum":true},{"pitch":43,"velocity":103,"startTime":16.615368000000025,"endTime":16.769214000000026,"instrument":1,"program":118,"isDrum":true},{"pitch":45,"velocity":103,"startTime":16.615368000000025,"endTime":16.769214000000026,"instrument":1,"program":118,"isDrum":true},{"pitch":54,"velocity":128,"startTime":16.846137000000027,"endTime":16.99998300000003,"instrument":1,"program":118,"isDrum":true},{"pitch":54,"velocity":128,"startTime":17.07690600000003,"endTime":17.23075200000003,"instrument":1,"program":118,"isDrum":true},{"pitch":40,"velocity":109,"startTime":17.07690600000003,"endTime":17.23075200000003,"instrument":1,"program":118,"isDrum":true},{"pitch":54,"velocity":128,"startTime":17.30767500000003,"endTime":17.461521000000033,"instrument":1,"program":118,"isDrum":true},{"pitch":54,"velocity":128,"startTime":17.538444000000034,"endTime":17.692290000000035,"instrument":1,"program":118,"isDrum":true},{"pitch":54,"velocity":128,"startTime":17.769213000000036,"endTime":17.923059000000038,"instrument":1,"program":118,"isDrum":true},{"pitch":54,"velocity":128,"startTime":17.99998200000004,"endTime":18.15382800000004,"instrument":1,"program":118,"isDrum":true},{"pitch":40,"velocity":109,"startTime":17.99998200000004,"endTime":18.15382800000004,"instrument":1,"program":118,"isDrum":true},{"pitch":54,"velocity":128,"startTime":18.23075100000004,"endTime":18.384597000000042,"instrument":1,"program":118,"isDrum":true},{"pitch":54,"velocity":128,"startTime":18.461520000000043,"endTime":18.615366000000044,"instrument":1,"program":118,"isDrum":true},{"pitch":41,"velocity":128,"startTime":18.461520000000043,"endTime":18.615366000000044,"instrument":1,"program":118,"isDrum":true},{"pitch":43,"velocity":103,"startTime":18.461520000000043,"endTime":18.615366000000044,"instrument":1,"program":118,"isDrum":true},{"pitch":45,"velocity":103,"startTime":18.461520000000043,"endTime":18.615366000000044,"instrument":1,"program":118,"isDrum":true},{"pitch":54,"velocity":128,"startTime":18.692289000000045,"endTime":18.846135000000046,"instrument":1,"program":118,"isDrum":true},{"pitch":54,"velocity":128,"startTime":18.923058000000047,"endTime":19.07690400000005,"instrument":1,"program":118,"isDrum":true},{"pitch":40,"velocity":109,"startTime":18.923058000000047,"endTime":19.07690400000005,"instrument":1,"program":118,"isDrum":true},{"pitch":54,"velocity":128,"startTime":19.15382700000005,"endTime":19.30767300000005,"instrument":1,"program":118,"isDrum":true},{"pitch":54,"velocity":128,"startTime":19.38459600000005,"endTime":19.538442000000053,"instrument":1,"program":118,"isDrum":true},{"pitch":54,"velocity":128,"startTime":19.615365000000054,"endTime":19.769211000000055,"instrument":1,"program":118,"isDrum":true},{"pitch":54,"velocity":128,"startTime":19.846134000000056,"endTime":19.999980000000058,"instrument":1,"program":118,"isDrum":true},{"pitch":40,"velocity":109,"startTime":19.846134000000056,"endTime":19.999980000000058,"instrument":1,"program":118,"isDrum":true},{"pitch":54,"velocity":128,"startTime":20.07690300000006,"endTime":20.23074900000006,"instrument":1,"program":118,"isDrum":true},{"pitch":54,"velocity":128,"startTime":20.30767200000006,"endTime":20.461518000000062,"instrument":1,"program":118,"isDrum":true},{"pitch":41,"velocity":128,"startTime":20.30767200000006,"endTime":20.461518000000062,"instrument":1,"program":118,"isDrum":true},{"pitch":43,"velocity":103,"startTime":20.30767200000006,"endTime":20.461518000000062,"instrument":1,"program":118,"isDrum":true},{"pitch":45,"velocity":103,"startTime":20.30767200000006,"endTime":20.461518000000062,"instrument":1,"program":118,"isDrum":true},{"pitch":54,"velocity":128,"startTime":20.538441000000063,"endTime":20.692287000000064,"instrument":1,"program":118,"isDrum":true},{"pitch":54,"velocity":128,"startTime":20.769210000000065,"endTime":20.923056000000066,"instrument":1,"program":118,"isDrum":true},{"pitch":40,"velocity":109,"startTime":20.769210000000065,"endTime":20.923056000000066,"instrument":1,"program":118,"isDrum":true},{"pitch":54,"velocity":128,"startTime":20.999979000000067,"endTime":21.15382500000007,"instrument":1,"program":118,"isDrum":true},{"pitch":54,"velocity":128,"startTime":21.23074800000007,"endTime":21.38459400000007,"instrument":1,"program":118,"isDrum":true},{"pitch":54,"velocity":128,"startTime":21.46151700000007,"endTime":21.615363000000073,"instrument":1,"program":118,"isDrum":true},{"pitch":54,"velocity":128,"startTime":21.692286000000074,"endTime":21.846132000000075,"instrument":1,"program":118,"isDrum":true},{"pitch":40,"velocity":109,"startTime":21.692286000000074,"endTime":21.846132000000075,"instrument":1,"program":118,"isDrum":true},{"pitch":54,"velocity":128,"startTime":21.923055000000076,"endTime":22.076901000000078,"instrument":1,"program":118,"isDrum":true},{"pitch":41,"velocity":128,"startTime":22.15382400000008,"endTime":22.30767000000008,"instrument":1,"program":118,"isDrum":true},{"pitch":43,"velocity":103,"startTime":22.15382400000008,"endTime":22.30767000000008,"instrument":1,"program":118,"isDrum":true},{"pitch":45,"velocity":103,"startTime":22.15382400000008,"endTime":22.30767000000008,"instrument":1,"program":118,"isDrum":true},{"pitch":54,"velocity":128,"startTime":22.15382400000008,"endTime":22.30767000000008,"instrument":1,"program":118,"isDrum":true},{"pitch":54,"velocity":128,"startTime":22.38459300000008,"endTime":22.538439000000082,"instrument":1,"program":118,"isDrum":true},{"pitch":54,"velocity":128,"startTime":22.615362000000083,"endTime":22.769208000000084,"instrument":1,"program":118,"isDrum":true},{"pitch":40,"velocity":109,"startTime":22.615362000000083,"endTime":22.769208000000084,"instrument":1,"program":118,"isDrum":true},{"pitch":54,"velocity":128,"startTime":22.846131000000085,"endTime":22.999977000000086,"instrument":1,"program":118,"isDrum":true},{"pitch":54,"velocity":128,"startTime":23.076900000000087,"endTime":23.23074600000009,"instrument":1,"program":118,"isDrum":true},{"pitch":54,"velocity":128,"startTime":23.30766900000009,"endTime":23.46151500000009,"instrument":1,"program":118,"isDrum":true},{"pitch":54,"velocity":128,"startTime":23.53843800000009,"endTime":23.692284000000093,"instrument":1,"program":118,"isDrum":true},{"pitch":40,"velocity":109,"startTime":23.53843800000009,"endTime":23.692284000000093,"instrument":1,"program":118,"isDrum":true},{"pitch":54,"velocity":128,"startTime":23.769207000000094,"endTime":23.923053000000095,"instrument":1,"program":118,"isDrum":true},{"pitch":54,"velocity":128,"startTime":23.999976000000096,"endTime":24.153822000000098,"instrument":1,"program":118,"isDrum":true},{"pitch":41,"velocity":128,"startTime":23.999976000000096,"endTime":24.153822000000098,"instrument":1,"program":118,"isDrum":true},{"pitch":43,"velocity":103,"startTime":23.999976000000096,"endTime":24.153822000000098,"instrument":1,"program":118,"isDrum":true},{"pitch":45,"velocity":103,"startTime":23.999976000000096,"endTime":24.153822000000098,"instrument":1,"program":118,"isDrum":true},{"pitch":54,"velocity":128,"startTime":24.2307450000001,"endTime":24.3845910000001,"instrument":1,"program":118,"isDrum":true},{"pitch":54,"velocity":128,"startTime":24.4615140000001,"endTime":24.615360000000102,"instrument":1,"program":118,"isDrum":true},{"pitch":40,"velocity":109,"startTime":24.4615140000001,"endTime":24.615360000000102,"instrument":1,"program":118,"isDrum":true},{"pitch":54,"velocity":128,"startTime":24.692283000000103,"endTime":24.846129000000104,"instrument":1,"program":118,"isDrum":true},{"pitch":54,"velocity":128,"startTime":24.923052000000105,"endTime":25.076898000000106,"instrument":1,"program":118,"isDrum":true},{"pitch":54,"velocity":128,"startTime":25.153821000000107,"endTime":25.30766700000011,"instrument":1,"program":118,"isDrum":true},{"pitch":54,"velocity":128,"startTime":25.38459000000011,"endTime":25.53843600000011,"instrument":1,"program":118,"isDrum":true},{"pitch":40,"velocity":109,"startTime":25.38459000000011,"endTime":25.53843600000011,"instrument":1,"program":118,"isDrum":true},{"pitch":54,"velocity":128,"startTime":25.61535900000011,"endTime":25.769205000000113,"instrument":1,"program":118,"isDrum":true},{"pitch":54,"velocity":128,"startTime":25.846128000000114,"endTime":25.999974000000115,"instrument":1,"program":118,"isDrum":true},{"pitch":41,"velocity":128,"startTime":25.846128000000114,"endTime":25.999974000000115,"instrument":1,"program":118,"isDrum":true},{"pitch":43,"velocity":103,"startTime":25.846128000000114,"endTime":25.999974000000115,"instrument":1,"program":118,"isDrum":true},{"pitch":45,"velocity":103,"startTime":25.846128000000114,"endTime":25.999974000000115,"instrument":1,"program":118,"isDrum":true},{"pitch":54,"velocity":128,"startTime":26.076897000000116,"endTime":26.230743000000118,"instrument":1,"program":118,"isDrum":true},{"pitch":54,"velocity":128,"startTime":26.30766600000012,"endTime":26.46151200000012,"instrument":1,"program":118,"isDrum":true},{"pitch":40,"velocity":109,"startTime":26.30766600000012,"endTime":26.46151200000012,"instrument":1,"program":118,"isDrum":true},{"pitch":54,"velocity":128,"startTime":26.53843500000012,"endTime":26.692281000000122,"instrument":1,"program":118,"isDrum":true},{"pitch":54,"velocity":128,"startTime":26.769204000000123,"endTime":26.923050000000124,"instrument":1,"program":118,"isDrum":true},{"pitch":54,"velocity":128,"startTime":26.999973000000125,"endTime":27.153819000000126,"instrument":1,"program":118,"isDrum":true},{"pitch":54,"velocity":128,"startTime":27.230742000000127,"endTime":27.38458800000013,"instrument":1,"program":118,"isDrum":true},{"pitch":40,"velocity":109,"startTime":27.230742000000127,"endTime":27.38458800000013,"instrument":1,"program":118,"isDrum":true},{"pitch":54,"velocity":128,"startTime":27.46151100000013,"endTime":27.61535700000013,"instrument":1,"program":118,"isDrum":true},{"pitch":54,"velocity":128,"startTime":27.69228000000013,"endTime":27.846126000000133,"instrument":1,"program":118,"isDrum":true},{"pitch":41,"velocity":128,"startTime":27.69228000000013,"endTime":27.846126000000133,"instrument":1,"program":118,"isDrum":true},{"pitch":43,"velocity":103,"startTime":27.69228000000013,"endTime":27.846126000000133,"instrument":1,"program":118,"isDrum":true},{"pitch":45,"velocity":103,"startTime":27.69228000000013,"endTime":27.846126000000133,"instrument":1,"program":118,"isDrum":true},{"pitch":54,"velocity":128,"startTime":27.923049000000134,"endTime":28.076895000000135,"instrument":1,"program":118,"isDrum":true},{"pitch":54,"velocity":128,"startTime":28.153818000000136,"endTime":28.307664000000138,"instrument":1,"program":118,"isDrum":true},{"pitch":40,"velocity":109,"startTime":28.153818000000136,"endTime":28.307664000000138,"instrument":1,"program":118,"isDrum":true},{"pitch":54,"velocity":128,"startTime":28.38458700000014,"endTime":28.53843300000014,"instrument":1,"program":118,"isDrum":true},{"pitch":54,"velocity":128,"startTime":28.61535600000014,"endTime":28.769202000000142,"instrument":1,"program":118,"isDrum":true},{"pitch":54,"velocity":128,"startTime":28.846125000000143,"endTime":28.999971000000144,"instrument":1,"program":118,"isDrum":true},{"pitch":54,"velocity":128,"startTime":29.076894000000145,"endTime":29.230740000000146,"instrument":1,"program":118,"isDrum":true},{"pitch":40,"velocity":109,"startTime":29.076894000000145,"endTime":29.230740000000146,"instrument":1,"program":118,"isDrum":true},{"pitch":54,"velocity":128,"startTime":29.307663000000147,"endTime":29.46150900000015,"instrument":1,"program":118,"isDrum":true},{"pitch":41,"velocity":128,"startTime":29.53843200000015,"endTime":29.69227800000015,"instrument":1,"program":118,"isDrum":true},{"pitch":43,"velocity":103,"startTime":29.53843200000015,"endTime":29.69227800000015,"instrument":1,"program":118,"isDrum":true},{"pitch":45,"velocity":103,"startTime":29.53843200000015,"endTime":29.69227800000015,"instrument":1,"program":118,"isDrum":true},{"pitch":54,"velocity":128,"startTime":29.53843200000015,"endTime":29.69227800000015,"instrument":1,"program":118,"isDrum":true},{"pitch":54,"velocity":128,"startTime":29.76920100000015,"endTime":29.923047000000153,"instrument":1,"program":118,"isDrum":true},{"pitch":54,"velocity":128,"startTime":29.999970000000154,"endTime":30.153816000000155,"instrument":1,"program":118,"isDrum":true},{"pitch":40,"velocity":109,"startTime":29.999970000000154,"endTime":30.153816000000155,"instrument":1,"program":118,"isDrum":true},{"pitch":54,"velocity":128,"startTime":30.230739000000156,"endTime":30.384585000000158,"instrument":1,"program":118,"isDrum":true},{"pitch":54,"velocity":128,"startTime":30.46150800000016,"endTime":30.61535400000016,"instrument":1,"program":118,"isDrum":true},{"pitch":54,"velocity":128,"startTime":30.69227700000016,"endTime":30.846123000000162,"instrument":1,"program":118,"isDrum":true},{"pitch":54,"velocity":128,"startTime":30.923046000000163,"endTime":31.076892000000164,"instrument":1,"program":118,"isDrum":true},{"pitch":40,"velocity":109,"startTime":30.923046000000163,"endTime":31.076892000000164,"instrument":1,"program":118,"isDrum":true},{"pitch":54,"velocity":128,"startTime":31.153815000000165,"endTime":31.307661000000166,"instrument":1,"program":118,"isDrum":true},{"pitch":54,"velocity":128,"startTime":31.384584000000167,"endTime":31.53843000000017,"instrument":1,"program":118,"isDrum":true},{"pitch":41,"velocity":128,"startTime":31.384584000000167,"endTime":31.53843000000017,"instrument":1,"program":118,"isDrum":true},{"pitch":43,"velocity":103,"startTime":31.384584000000167,"endTime":31.53843000000017,"instrument":1,"program":118,"isDrum":true},{"pitch":45,"velocity":103,"startTime":31.384584000000167,"endTime":31.53843000000017,"instrument":1,"program":118,"isDrum":true},{"pitch":54,"velocity":128,"startTime":31.615353000000166,"endTime":31.769199000000167,"instrument":1,"program":118,"isDrum":true},{"pitch":54,"velocity":128,"startTime":31.846122000000168,"endTime":31.99996800000017,"instrument":1,"program":118,"isDrum":true},{"pitch":40,"velocity":109,"startTime":31.846122000000168,"endTime":31.99996800000017,"instrument":1,"program":118,"isDrum":true},{"pitch":54,"velocity":128,"startTime":32.076891000000174,"endTime":32.230737000000175,"instrument":1,"program":118,"isDrum":true},{"pitch":54,"velocity":128,"startTime":32.307660000000176,"endTime":32.46150600000018,"instrument":1,"program":118,"isDrum":true},{"pitch":54,"velocity":128,"startTime":32.53842900000018,"endTime":32.69227500000018,"instrument":1,"program":118,"isDrum":true},{"pitch":54,"velocity":128,"startTime":32.76919800000018,"endTime":32.92304400000018,"instrument":1,"program":118,"isDrum":true},{"pitch":40,"velocity":109,"startTime":32.76919800000018,"endTime":32.92304400000018,"instrument":1,"program":118,"isDrum":true},{"pitch":54,"velocity":128,"startTime":32.99996700000018,"endTime":33.153813000000184,"instrument":1,"program":118,"isDrum":true},{"pitch":54,"velocity":128,"startTime":33.230736000000185,"endTime":33.38458200000019,"instrument":1,"program":118,"isDrum":true},{"pitch":41,"velocity":128,"startTime":33.230736000000185,"endTime":33.38458200000019,"instrument":1,"program":118,"isDrum":true},{"pitch":43,"velocity":103,"startTime":33.230736000000185,"endTime":33.38458200000019,"instrument":1,"program":118,"isDrum":true},{"pitch":45,"velocity":103,"startTime":33.230736000000185,"endTime":33.38458200000019,"instrument":1,"program":118,"isDrum":true},{"pitch":54,"velocity":128,"startTime":33.46150500000019,"endTime":33.61535100000019,"instrument":1,"program":118,"isDrum":true},{"pitch":54,"velocity":128,"startTime":33.69227400000019,"endTime":33.84612000000019,"instrument":1,"program":118,"isDrum":true},{"pitch":40,"velocity":109,"startTime":33.69227400000019,"endTime":33.84612000000019,"instrument":1,"program":118,"isDrum":true},{"pitch":54,"velocity":128,"startTime":33.92304300000019,"endTime":34.07688900000019,"instrument":1,"program":118,"isDrum":true},{"pitch":54,"velocity":128,"startTime":34.153812000000194,"endTime":34.307658000000195,"instrument":1,"program":118,"isDrum":true},{"pitch":54,"velocity":128,"startTime":34.384581000000196,"endTime":34.5384270000002,"instrument":1,"program":118,"isDrum":true},{"pitch":54,"velocity":128,"startTime":34.6153500000002,"endTime":34.7691960000002,"instrument":1,"program":118,"isDrum":true},{"pitch":40,"velocity":109,"startTime":34.6153500000002,"endTime":34.7691960000002,"instrument":1,"program":118,"isDrum":true},{"pitch":54,"velocity":128,"startTime":34.8461190000002,"endTime":34.9999650000002,"instrument":1,"program":118,"isDrum":true},{"pitch":38,"velocity":128,"startTime":35.0768880000002,"endTime":35.1538110000002,"instrument":1,"program":118,"isDrum":true},{"pitch":36,"velocity":128,"startTime":35.0768880000002,"endTime":35.1538110000002,"instrument":1,"program":118,"isDrum":true},{"pitch":57,"velocity":128,"startTime":35.0768880000002,"endTime":35.1538110000002,"instrument":1,"program":118,"isDrum":true},{"pitch":36,"velocity":128,"startTime":35.5384260000002,"endTime":35.6153490000002,"instrument":1,"program":118,"isDrum":true},{"pitch":38,"velocity":128,"startTime":35.5384260000002,"endTime":35.6153490000002,"instrument":1,"program":118,"isDrum":true},{"pitch":57,"velocity":128,"startTime":35.5384260000002,"endTime":35.6153490000002,"instrument":1,"program":118,"isDrum":true},{"pitch":36,"velocity":128,"startTime":35.6538105000002,"endTime":35.7307335000002,"instrument":1,"program":118,"isDrum":true},{"pitch":36,"velocity":128,"startTime":35.769195000000195,"endTime":35.846118000000196,"instrument":1,"program":118,"isDrum":true},{"pitch":38,"velocity":128,"startTime":35.9999640000002,"endTime":36.0768870000002,"instrument":1,"program":118,"isDrum":true},{"pitch":36,"velocity":128,"startTime":35.9999640000002,"endTime":36.0768870000002,"instrument":1,"program":118,"isDrum":true},{"pitch":57,"velocity":128,"startTime":35.9999640000002,"endTime":36.0768870000002,"instrument":1,"program":118,"isDrum":true},{"pitch":36,"velocity":128,"startTime":36.115348500000195,"endTime":36.192271500000196,"instrument":1,"program":118,"isDrum":true},{"pitch":36,"velocity":128,"startTime":36.23073300000019,"endTime":36.30765600000019,"instrument":1,"program":118,"isDrum":true},{"pitch":36,"velocity":128,"startTime":36.461502000000195,"endTime":36.538425000000196,"instrument":1,"program":118,"isDrum":true},{"pitch":38,"velocity":128,"startTime":36.461502000000195,"endTime":36.538425000000196,"instrument":1,"program":118,"isDrum":true},{"pitch":57,"velocity":128,"startTime":36.461502000000195,"endTime":36.538425000000196,"instrument":1,"program":118,"isDrum":true},{"pitch":36,"velocity":128,"startTime":36.57688650000019,"endTime":36.65380950000019,"instrument":1,"program":118,"isDrum":true},{"pitch":36,"velocity":128,"startTime":36.69227100000019,"endTime":36.76919400000019,"instrument":1,"program":118,"isDrum":true},{"pitch":36,"velocity":128,"startTime":36.92304000000019,"endTime":37.076886000000194,"instrument":1,"program":118,"isDrum":true},{"pitch":38,"velocity":128,"startTime":36.92304000000019,"endTime":37.076886000000194,"instrument":1,"program":118,"isDrum":true},{"pitch":57,"velocity":128,"startTime":36.92304000000019,"endTime":37.076886000000194,"instrument":1,"program":118,"isDrum":true},{"pitch":38,"velocity":128,"startTime":37.3845780000002,"endTime":37.5384240000002,"instrument":1,"program":118,"isDrum":true},{"pitch":36,"velocity":128,"startTime":37.6153470000002,"endTime":37.7691930000002,"instrument":1,"program":118,"isDrum":true},{"pitch":38,"velocity":128,"startTime":37.6153470000002,"endTime":37.7691930000002,"instrument":1,"program":118,"isDrum":true},{"pitch":38,"velocity":128,"startTime":37.8461160000002,"endTime":37.9999620000002,"instrument":1,"program":118,"isDrum":true},{"pitch":36,"velocity":128,"startTime":37.8461160000002,"endTime":37.9999620000002,"instrument":1,"program":118,"isDrum":true},{"pitch":57,"velocity":128,"startTime":37.8461160000002,"endTime":37.9999620000002,"instrument":1,"program":118,"isDrum":true},{"pitch":38,"velocity":128,"startTime":38.307654000000205,"endTime":38.46150000000021,"instrument":1,"program":118,"isDrum":true},{"pitch":38,"velocity":128,"startTime":38.53842300000021,"endTime":38.69226900000021,"instrument":1,"program":118,"isDrum":true},{"pitch":36,"velocity":128,"startTime":38.53842300000021,"endTime":38.69226900000021,"instrument":1,"program":118,"isDrum":true},{"pitch":36,"velocity":128,"startTime":38.76919200000021,"endTime":38.92303800000021,"instrument":1,"program":118,"isDrum":true},{"pitch":38,"velocity":128,"startTime":38.76919200000021,"endTime":38.92303800000021,"instrument":1,"program":118,"isDrum":true},{"pitch":57,"velocity":128,"startTime":38.76919200000021,"endTime":38.92303800000021,"instrument":1,"program":118,"isDrum":true},{"pitch":38,"velocity":128,"startTime":39.230730000000214,"endTime":39.384576000000216,"instrument":1,"program":118,"isDrum":true},{"pitch":36,"velocity":128,"startTime":39.46149900000022,"endTime":39.61534500000022,"instrument":1,"program":118,"isDrum":true},{"pitch":38,"velocity":128,"startTime":39.46149900000022,"endTime":39.61534500000022,"instrument":1,"program":118,"isDrum":true},{"pitch":38,"velocity":128,"startTime":39.69226800000022,"endTime":39.84611400000022,"instrument":1,"program":118,"isDrum":true},{"pitch":36,"velocity":128,"startTime":39.69226800000022,"endTime":39.84611400000022,"instrument":1,"program":118,"isDrum":true},{"pitch":57,"velocity":128,"startTime":39.69226800000022,"endTime":39.84611400000022,"instrument":1,"program":118,"isDrum":true},{"pitch":38,"velocity":128,"startTime":40.15380600000022,"endTime":40.307652000000225,"instrument":1,"program":118,"isDrum":true},{"pitch":38,"velocity":128,"startTime":40.384575000000225,"endTime":40.53842100000023,"instrument":1,"program":118,"isDrum":true},{"pitch":36,"velocity":128,"startTime":40.384575000000225,"endTime":40.53842100000023,"instrument":1,"program":118,"isDrum":true},{"pitch":36,"velocity":128,"startTime":40.61534400000023,"endTime":40.76919000000023,"instrument":1,"program":118,"isDrum":true},{"pitch":38,"velocity":128,"startTime":40.61534400000023,"endTime":40.76919000000023,"instrument":1,"program":118,"isDrum":true},{"pitch":57,"velocity":128,"startTime":40.61534400000023,"endTime":40.76919000000023,"instrument":1,"program":118,"isDrum":true},{"pitch":57,"velocity":128,"startTime":41.07688200000023,"endTime":41.15380500000023,"instrument":1,"program":118,"isDrum":true},{"pitch":38,"velocity":128,"startTime":41.07688200000023,"endTime":41.15380500000023,"instrument":1,"program":118,"isDrum":true},{"pitch":36,"velocity":128,"startTime":41.07688200000023,"endTime":41.15380500000023,"instrument":1,"program":118,"isDrum":true},{"pitch":36,"velocity":128,"startTime":41.19226650000023,"endTime":41.26918950000023,"instrument":1,"program":118,"isDrum":true},{"pitch":36,"velocity":128,"startTime":41.30765100000023,"endTime":41.38457400000023,"instrument":1,"program":118,"isDrum":true},{"pitch":36,"velocity":128,"startTime":41.53842000000023,"endTime":41.61534300000023,"instrument":1,"program":118,"isDrum":true},{"pitch":38,"velocity":128,"startTime":41.53842000000023,"endTime":41.61534300000023,"instrument":1,"program":118,"isDrum":true},{"pitch":57,"velocity":128,"startTime":41.53842000000023,"endTime":41.61534300000023,"instrument":1,"program":118,"isDrum":true},{"pitch":36,"velocity":128,"startTime":41.65380450000023,"endTime":41.73072750000023,"instrument":1,"program":118,"isDrum":true},{"pitch":36,"velocity":128,"startTime":41.769189000000225,"endTime":41.846112000000225,"instrument":1,"program":118,"isDrum":true},{"pitch":57,"velocity":128,"startTime":41.99995800000023,"endTime":42.15380400000023,"instrument":1,"program":118,"isDrum":true},{"pitch":38,"velocity":128,"startTime":41.99995800000023,"endTime":42.15380400000023,"instrument":1,"program":118,"isDrum":true},{"pitch":36,"velocity":128,"startTime":41.99995800000023,"endTime":42.15380400000023,"instrument":1,"program":118,"isDrum":true},{"pitch":38,"velocity":128,"startTime":42.46149600000023,"endTime":42.53841900000023,"instrument":1,"program":118,"isDrum":true},{"pitch":36,"velocity":128,"startTime":42.46149600000023,"endTime":42.53841900000023,"instrument":1,"program":118,"isDrum":true},{"pitch":57,"velocity":128,"startTime":42.46149600000023,"endTime":42.53841900000023,"instrument":1,"program":118,"isDrum":true},{"pitch":36,"velocity":128,"startTime":42.92303400000023,"endTime":42.99995700000023,"instrument":1,"program":118,"isDrum":true},{"pitch":38,"velocity":128,"startTime":42.92303400000023,"endTime":42.99995700000023,"instrument":1,"program":118,"isDrum":true},{"pitch":57,"velocity":128,"startTime":42.92303400000023,"endTime":42.99995700000023,"instrument":1,"program":118,"isDrum":true},{"pitch":36,"velocity":128,"startTime":43.038418500000226,"endTime":43.11534150000023,"instrument":1,"program":118,"isDrum":true},{"pitch":36,"velocity":128,"startTime":43.153803000000224,"endTime":43.230726000000224,"instrument":1,"program":118,"isDrum":true},{"pitch":38,"velocity":128,"startTime":43.384572000000226,"endTime":43.46149500000023,"instrument":1,"program":118,"isDrum":true},{"pitch":36,"velocity":128,"startTime":43.384572000000226,"endTime":43.46149500000023,"instrument":1,"program":118,"isDrum":true},{"pitch":57,"velocity":128,"startTime":43.384572000000226,"endTime":43.46149500000023,"instrument":1,"program":118,"isDrum":true},{"pitch":36,"velocity":128,"startTime":43.49995650000022,"endTime":43.576879500000224,"instrument":1,"program":118,"isDrum":true},{"pitch":36,"velocity":128,"startTime":43.61534100000022,"endTime":43.69226400000022,"instrument":1,"program":118,"isDrum":true},{"pitch":36,"velocity":128,"startTime":43.84611000000022,"endTime":43.923033000000224,"instrument":1,"program":118,"isDrum":true},{"pitch":38,"velocity":128,"startTime":43.84611000000022,"endTime":43.923033000000224,"instrument":1,"program":118,"isDrum":true},{"pitch":57,"velocity":128,"startTime":43.84611000000022,"endTime":43.923033000000224,"instrument":1,"program":118,"isDrum":true},{"pitch":36,"velocity":128,"startTime":43.96149450000022,"endTime":44.03841750000022,"instrument":1,"program":118,"isDrum":true},{"pitch":36,"velocity":128,"startTime":44.07687900000022,"endTime":44.15380200000022,"instrument":1,"program":118,"isDrum":true},{"pitch":36,"velocity":128,"startTime":44.30764800000022,"endTime":44.46149400000022,"instrument":1,"program":118,"isDrum":true},{"pitch":38,"velocity":128,"startTime":44.30764800000022,"endTime":44.46149400000022,"instrument":1,"program":118,"isDrum":true},{"pitch":57,"velocity":128,"startTime":44.30764800000022,"endTime":44.46149400000022,"instrument":1,"program":118,"isDrum":true},{"pitch":38,"velocity":128,"startTime":44.769186000000225,"endTime":44.92303200000023,"instrument":1,"program":118,"isDrum":true},{"pitch":36,"velocity":128,"startTime":44.99995500000023,"endTime":45.15380100000023,"instrument":1,"program":118,"isDrum":true},{"pitch":38,"velocity":128,"startTime":44.99995500000023,"endTime":45.15380100000023,"instrument":1,"program":118,"isDrum":true},{"pitch":38,"velocity":128,"startTime":45.23072400000023,"endTime":45.38457000000023,"instrument":1,"program":118,"isDrum":true},{"pitch":36,"velocity":128,"startTime":45.23072400000023,"endTime":45.38457000000023,"instrument":1,"program":118,"isDrum":true},{"pitch":57,"velocity":128,"startTime":45.23072400000023,"endTime":45.38457000000023,"instrument":1,"program":118,"isDrum":true},{"pitch":38,"velocity":128,"startTime":45.692262000000234,"endTime":45.846108000000235,"instrument":1,"program":118,"isDrum":true},{"pitch":38,"velocity":128,"startTime":45.923031000000236,"endTime":46.07687700000024,"instrument":1,"program":118,"isDrum":true},{"pitch":36,"velocity":128,"startTime":45.923031000000236,"endTime":46.07687700000024,"instrument":1,"program":118,"isDrum":true},{"pitch":36,"velocity":128,"startTime":46.15380000000024,"endTime":46.30764600000024,"instrument":1,"program":118,"isDrum":true},{"pitch":38,"velocity":128,"startTime":46.15380000000024,"endTime":46.30764600000024,"instrument":1,"program":118,"isDrum":true},{"pitch":57,"velocity":128,"startTime":46.15380000000024,"endTime":46.30764600000024,"instrument":1,"program":118,"isDrum":true},{"pitch":38,"velocity":128,"startTime":46.61533800000024,"endTime":46.769184000000244,"instrument":1,"program":118,"isDrum":true},{"pitch":36,"velocity":128,"startTime":46.846107000000245,"endTime":46.99995300000025,"instrument":1,"program":118,"isDrum":true},{"pitch":38,"velocity":128,"startTime":46.846107000000245,"endTime":46.99995300000025,"instrument":1,"program":118,"isDrum":true},{"pitch":38,"velocity":128,"startTime":47.07687600000025,"endTime":47.23072200000025,"instrument":1,"program":118,"isDrum":true},{"pitch":36,"velocity":128,"startTime":47.07687600000025,"endTime":47.23072200000025,"instrument":1,"program":118,"isDrum":true},{"pitch":57,"velocity":128,"startTime":47.07687600000025,"endTime":47.23072200000025,"instrument":1,"program":118,"isDrum":true},{"pitch":38,"velocity":128,"startTime":47.53841400000025,"endTime":47.69226000000025,"instrument":1,"program":118,"isDrum":true},{"pitch":38,"velocity":128,"startTime":47.769183000000254,"endTime":47.923029000000255,"instrument":1,"program":118,"isDrum":true},{"pitch":36,"velocity":128,"startTime":47.769183000000254,"endTime":47.923029000000255,"instrument":1,"program":118,"isDrum":true},{"pitch":36,"velocity":128,"startTime":47.999952000000256,"endTime":48.15379800000026,"instrument":1,"program":118,"isDrum":true},{"pitch":38,"velocity":128,"startTime":47.999952000000256,"endTime":48.15379800000026,"instrument":1,"program":118,"isDrum":true},{"pitch":57,"velocity":128,"startTime":47.999952000000256,"endTime":48.15379800000026,"instrument":1,"program":118,"isDrum":true},{"pitch":57,"velocity":128,"startTime":48.46149000000026,"endTime":48.53841300000026,"instrument":1,"program":118,"isDrum":true},{"pitch":38,"velocity":128,"startTime":48.46149000000026,"endTime":48.53841300000026,"instrument":1,"program":118,"isDrum":true},{"pitch":36,"velocity":128,"startTime":48.46149000000026,"endTime":48.53841300000026,"instrument":1,"program":118,"isDrum":true},{"pitch":36,"velocity":128,"startTime":48.57687450000026,"endTime":48.65379750000026,"instrument":1,"program":118,"isDrum":true},{"pitch":36,"velocity":128,"startTime":48.692259000000256,"endTime":48.76918200000026,"instrument":1,"program":118,"isDrum":true},{"pitch":36,"velocity":128,"startTime":48.92302800000026,"endTime":48.99995100000026,"instrument":1,"program":118,"isDrum":true},{"pitch":38,"velocity":128,"startTime":48.92302800000026,"endTime":48.99995100000026,"instrument":1,"program":118,"isDrum":true},{"pitch":57,"velocity":128,"startTime":48.92302800000026,"endTime":48.99995100000026,"instrument":1,"program":118,"isDrum":true},{"pitch":36,"velocity":128,"startTime":49.038412500000256,"endTime":49.115335500000256,"instrument":1,"program":118,"isDrum":true},{"pitch":36,"velocity":128,"startTime":49.15379700000025,"endTime":49.230720000000254,"instrument":1,"program":118,"isDrum":true},{"pitch":57,"velocity":128,"startTime":49.384566000000255,"endTime":49.53841200000026,"instrument":1,"program":118,"isDrum":true},{"pitch":38,"velocity":128,"startTime":49.384566000000255,"endTime":49.53841200000026,"instrument":1,"program":118,"isDrum":true},{"pitch":36,"velocity":128,"startTime":49.384566000000255,"endTime":49.53841200000026,"instrument":1,"program":118,"isDrum":true},{"pitch":38,"velocity":128,"startTime":49.84610400000026,"endTime":49.92302700000026,"instrument":1,"program":118,"isDrum":true},{"pitch":36,"velocity":128,"startTime":49.84610400000026,"endTime":49.92302700000026,"instrument":1,"program":118,"isDrum":true},{"pitch":57,"velocity":128,"startTime":49.84610400000026,"endTime":49.92302700000026,"instrument":1,"program":118,"isDrum":true},{"pitch":36,"velocity":128,"startTime":50.30764200000026,"endTime":50.38456500000026,"instrument":1,"program":118,"isDrum":true},{"pitch":38,"velocity":128,"startTime":50.30764200000026,"endTime":50.38456500000026,"instrument":1,"program":118,"isDrum":true},{"pitch":57,"velocity":128,"startTime":50.30764200000026,"endTime":50.38456500000026,"instrument":1,"program":118,"isDrum":true},{"pitch":36,"velocity":128,"startTime":50.423026500000255,"endTime":50.499949500000255,"instrument":1,"program":118,"isDrum":true},{"pitch":36,"velocity":128,"startTime":50.53841100000025,"endTime":50.61533400000025,"instrument":1,"program":118,"isDrum":true},{"pitch":38,"velocity":128,"startTime":50.769180000000254,"endTime":50.846103000000255,"instrument":1,"program":118,"isDrum":true},{"pitch":36,"velocity":128,"startTime":50.769180000000254,"endTime":50.846103000000255,"instrument":1,"program":118,"isDrum":true},{"pitch":57,"velocity":128,"startTime":50.769180000000254,"endTime":50.846103000000255,"instrument":1,"program":118,"isDrum":true},{"pitch":36,"velocity":128,"startTime":50.88456450000025,"endTime":50.96148750000025,"instrument":1,"program":118,"isDrum":true},{"pitch":36,"velocity":128,"startTime":50.99994900000025,"endTime":51.07687200000025,"instrument":1,"program":118,"isDrum":true},{"pitch":36,"velocity":128,"startTime":51.23071800000025,"endTime":51.30764100000025,"instrument":1,"program":118,"isDrum":true},{"pitch":38,"velocity":128,"startTime":51.23071800000025,"endTime":51.30764100000025,"instrument":1,"program":118,"isDrum":true},{"pitch":57,"velocity":128,"startTime":51.23071800000025,"endTime":51.30764100000025,"instrument":1,"program":118,"isDrum":true},{"pitch":36,"velocity":128,"startTime":51.34610250000025,"endTime":51.42302550000025,"instrument":1,"program":118,"isDrum":true},{"pitch":36,"velocity":128,"startTime":51.46148700000025,"endTime":51.53841000000025,"instrument":1,"program":118,"isDrum":true},{"pitch":41,"velocity":128,"startTime":51.69225600000025,"endTime":51.84610200000025,"instrument":1,"program":118,"isDrum":true},{"pitch":43,"velocity":103,"startTime":51.69225600000025,"endTime":51.84610200000025,"instrument":1,"program":118,"isDrum":true},{"pitch":45,"velocity":103,"startTime":51.69225600000025,"endTime":51.84610200000025,"instrument":1,"program":118,"isDrum":true},{"pitch":54,"velocity":128,"startTime":51.69225600000025,"endTime":51.84610200000025,"instrument":1,"program":118,"isDrum":true},{"pitch":54,"velocity":128,"startTime":51.92302500000025,"endTime":52.07687100000025,"instrument":1,"program":118,"isDrum":true},{"pitch":54,"velocity":128,"startTime":52.153794000000254,"endTime":52.307640000000255,"instrument":1,"program":118,"isDrum":true},{"pitch":40,"velocity":109,"startTime":52.153794000000254,"endTime":52.307640000000255,"instrument":1,"program":118,"isDrum":true},{"pitch":54,"velocity":128,"startTime":52.384563000000256,"endTime":52.53840900000026,"instrument":1,"program":118,"isDrum":true},{"pitch":54,"velocity":128,"startTime":52.61533200000026,"endTime":52.76917800000026,"instrument":1,"program":118,"isDrum":true},{"pitch":54,"velocity":128,"startTime":52.84610100000026,"endTime":52.99994700000026,"instrument":1,"program":118,"isDrum":true},{"pitch":54,"velocity":128,"startTime":53.07687000000026,"endTime":53.230716000000264,"instrument":1,"program":118,"isDrum":true},{"pitch":40,"velocity":109,"startTime":53.07687000000026,"endTime":53.230716000000264,"instrument":1,"program":118,"isDrum":true},{"pitch":54,"velocity":128,"startTime":53.307639000000265,"endTime":53.461485000000266,"instrument":1,"program":118,"isDrum":true},{"pitch":54,"velocity":128,"startTime":53.53840800000027,"endTime":53.69225400000027,"instrument":1,"program":118,"isDrum":true},{"pitch":41,"velocity":128,"startTime":53.53840800000027,"endTime":53.69225400000027,"instrument":1,"program":118,"isDrum":true},{"pitch":43,"velocity":103,"startTime":53.53840800000027,"endTime":53.69225400000027,"instrument":1,"program":118,"isDrum":true},{"pitch":45,"velocity":103,"startTime":53.53840800000027,"endTime":53.69225400000027,"instrument":1,"program":118,"isDrum":true},{"pitch":54,"velocity":128,"startTime":53.76917700000027,"endTime":53.92302300000027,"instrument":1,"program":118,"isDrum":true},{"pitch":54,"velocity":128,"startTime":53.99994600000027,"endTime":54.15379200000027,"instrument":1,"program":118,"isDrum":true},{"pitch":40,"velocity":109,"startTime":53.99994600000027,"endTime":54.15379200000027,"instrument":1,"program":118,"isDrum":true},{"pitch":54,"velocity":128,"startTime":54.230715000000274,"endTime":54.384561000000275,"instrument":1,"program":118,"isDrum":true},{"pitch":54,"velocity":128,"startTime":54.461484000000276,"endTime":54.61533000000028,"instrument":1,"program":118,"isDrum":true},{"pitch":54,"velocity":128,"startTime":54.69225300000028,"endTime":54.84609900000028,"instrument":1,"program":118,"isDrum":true},{"pitch":54,"velocity":128,"startTime":54.92302200000028,"endTime":55.07686800000028,"instrument":1,"program":118,"isDrum":true},{"pitch":40,"velocity":109,"startTime":54.92302200000028,"endTime":55.07686800000028,"instrument":1,"program":118,"isDrum":true},{"pitch":54,"velocity":128,"startTime":55.15379100000028,"endTime":55.307637000000284,"instrument":1,"program":118,"isDrum":true},{"pitch":54,"velocity":128,"startTime":55.384560000000285,"endTime":55.538406000000286,"instrument":1,"program":118,"isDrum":true},{"pitch":41,"velocity":128,"startTime":55.384560000000285,"endTime":55.538406000000286,"instrument":1,"program":118,"isDrum":true},{"pitch":43,"velocity":103,"startTime":55.384560000000285,"endTime":55.538406000000286,"instrument":1,"program":118,"isDrum":true},{"pitch":45,"velocity":103,"startTime":55.384560000000285,"endTime":55.538406000000286,"instrument":1,"program":118,"isDrum":true},{"pitch":54,"velocity":128,"startTime":55.61532900000029,"endTime":55.76917500000029,"instrument":1,"program":118,"isDrum":true},{"pitch":54,"velocity":128,"startTime":55.84609800000029,"endTime":55.99994400000029,"instrument":1,"program":118,"isDrum":true},{"pitch":40,"velocity":109,"startTime":55.84609800000029,"endTime":55.99994400000029,"instrument":1,"program":118,"isDrum":true},{"pitch":54,"velocity":128,"startTime":56.07686700000029,"endTime":56.23071300000029,"instrument":1,"program":118,"isDrum":true},{"pitch":54,"velocity":128,"startTime":56.307636000000294,"endTime":56.461482000000295,"instrument":1,"program":118,"isDrum":true},{"pitch":54,"velocity":128,"startTime":56.538405000000296,"endTime":56.6922510000003,"instrument":1,"program":118,"isDrum":true},{"pitch":54,"velocity":128,"startTime":56.7691740000003,"endTime":56.9230200000003,"instrument":1,"program":118,"isDrum":true},{"pitch":40,"velocity":109,"startTime":56.7691740000003,"endTime":56.9230200000003,"instrument":1,"program":118,"isDrum":true},{"pitch":54,"velocity":128,"startTime":56.9999430000003,"endTime":57.1537890000003,"instrument":1,"program":118,"isDrum":true},{"pitch":54,"velocity":128,"startTime":57.2307120000003,"endTime":57.384558000000304,"instrument":1,"program":118,"isDrum":true},{"pitch":41,"velocity":128,"startTime":57.2307120000003,"endTime":57.384558000000304,"instrument":1,"program":118,"isDrum":true},{"pitch":43,"velocity":103,"startTime":57.2307120000003,"endTime":57.384558000000304,"instrument":1,"program":118,"isDrum":true},{"pitch":45,"velocity":103,"startTime":57.2307120000003,"endTime":57.384558000000304,"instrument":1,"program":118,"isDrum":true},{"pitch":54,"velocity":128,"startTime":57.461481000000305,"endTime":57.615327000000306,"instrument":1,"program":118,"isDrum":true},{"pitch":54,"velocity":128,"startTime":57.69225000000031,"endTime":57.84609600000031,"instrument":1,"program":118,"isDrum":true},{"pitch":40,"velocity":109,"startTime":57.69225000000031,"endTime":57.84609600000031,"instrument":1,"program":118,"isDrum":true},{"pitch":54,"velocity":128,"startTime":57.92301900000031,"endTime":58.07686500000031,"instrument":1,"program":118,"isDrum":true},{"pitch":54,"velocity":128,"startTime":58.15378800000031,"endTime":58.30763400000031,"instrument":1,"program":118,"isDrum":true},{"pitch":54,"velocity":128,"startTime":58.384557000000314,"endTime":58.538403000000315,"instrument":1,"program":118,"isDrum":true},{"pitch":54,"velocity":128,"startTime":58.615326000000316,"endTime":58.76917200000032,"instrument":1,"program":118,"isDrum":true},{"pitch":40,"velocity":109,"startTime":58.615326000000316,"endTime":58.76917200000032,"instrument":1,"program":118,"isDrum":true},{"pitch":54,"velocity":128,"startTime":58.84609500000032,"endTime":58.99994100000032,"instrument":1,"program":118,"isDrum":true},{"pitch":41,"velocity":128,"startTime":59.07686400000032,"endTime":59.23071000000032,"instrument":1,"program":118,"isDrum":true},{"pitch":43,"velocity":103,"startTime":59.07686400000032,"endTime":59.23071000000032,"instrument":1,"program":118,"isDrum":true},{"pitch":45,"velocity":103,"startTime":59.07686400000032,"endTime":59.23071000000032,"instrument":1,"program":118,"isDrum":true},{"pitch":54,"velocity":128,"startTime":59.07686400000032,"endTime":59.23071000000032,"instrument":1,"program":118,"isDrum":true},{"pitch":54,"velocity":128,"startTime":59.30763300000032,"endTime":59.461479000000324,"instrument":1,"program":118,"isDrum":true},{"pitch":54,"velocity":128,"startTime":59.538402000000325,"endTime":59.692248000000326,"instrument":1,"program":118,"isDrum":true},{"pitch":40,"velocity":109,"startTime":59.538402000000325,"endTime":59.692248000000326,"instrument":1,"program":118,"isDrum":true},{"pitch":54,"velocity":128,"startTime":59.76917100000033,"endTime":59.92301700000033,"instrument":1,"program":118,"isDrum":true},{"pitch":54,"velocity":128,"startTime":59.99994000000033,"endTime":60.15378600000033,"instrument":1,"program":118,"isDrum":true},{"pitch":54,"velocity":128,"startTime":60.23070900000033,"endTime":60.38455500000033,"instrument":1,"program":118,"isDrum":true},{"pitch":54,"velocity":128,"startTime":60.461478000000334,"endTime":60.615324000000335,"instrument":1,"program":118,"isDrum":true},{"pitch":40,"velocity":109,"startTime":60.461478000000334,"endTime":60.615324000000335,"instrument":1,"program":118,"isDrum":true},{"pitch":54,"velocity":128,"startTime":60.692247000000336,"endTime":60.84609300000034,"instrument":1,"program":118,"isDrum":true},{"pitch":54,"velocity":128,"startTime":60.92301600000034,"endTime":61.07686200000034,"instrument":1,"program":118,"isDrum":true},{"pitch":41,"velocity":128,"startTime":60.92301600000034,"endTime":61.07686200000034,"instrument":1,"program":118,"isDrum":true},{"pitch":43,"velocity":103,"startTime":60.92301600000034,"endTime":61.07686200000034,"instrument":1,"program":118,"isDrum":true},{"pitch":45,"velocity":103,"startTime":60.92301600000034,"endTime":61.07686200000034,"instrument":1,"program":118,"isDrum":true},{"pitch":54,"velocity":128,"startTime":61.15378500000034,"endTime":61.30763100000034,"instrument":1,"program":118,"isDrum":true},{"pitch":54,"velocity":128,"startTime":61.38455400000034,"endTime":61.538400000000344,"instrument":1,"program":118,"isDrum":true},{"pitch":40,"velocity":109,"startTime":61.38455400000034,"endTime":61.538400000000344,"instrument":1,"program":118,"isDrum":true},{"pitch":54,"velocity":128,"startTime":61.615323000000345,"endTime":61.769169000000346,"instrument":1,"program":118,"isDrum":true},{"pitch":54,"velocity":128,"startTime":61.84609200000035,"endTime":61.99993800000035,"instrument":1,"program":118,"isDrum":true},{"pitch":54,"velocity":128,"startTime":62.07686100000035,"endTime":62.23070700000035,"instrument":1,"program":118,"isDrum":true},{"pitch":54,"velocity":128,"startTime":62.30763000000035,"endTime":62.46147600000035,"instrument":1,"program":118,"isDrum":true},{"pitch":40,"velocity":109,"startTime":62.30763000000035,"endTime":62.46147600000035,"instrument":1,"program":118,"isDrum":true},{"pitch":54,"velocity":128,"startTime":62.538399000000354,"endTime":62.692245000000355,"instrument":1,"program":118,"isDrum":true},{"pitch":54,"velocity":128,"startTime":62.769168000000356,"endTime":62.92301400000036,"instrument":1,"program":118,"isDrum":true},{"pitch":41,"velocity":128,"startTime":62.769168000000356,"endTime":62.92301400000036,"instrument":1,"program":118,"isDrum":true},{"pitch":43,"velocity":103,"startTime":62.769168000000356,"endTime":62.92301400000036,"instrument":1,"program":118,"isDrum":true},{"pitch":45,"velocity":103,"startTime":62.769168000000356,"endTime":62.92301400000036,"instrument":1,"program":118,"isDrum":true},{"pitch":54,"velocity":128,"startTime":62.99993700000036,"endTime":63.15378300000036,"instrument":1,"program":118,"isDrum":true},{"pitch":54,"velocity":128,"startTime":63.23070600000036,"endTime":63.38455200000036,"instrument":1,"program":118,"isDrum":true},{"pitch":40,"velocity":109,"startTime":63.23070600000036,"endTime":63.38455200000036,"instrument":1,"program":118,"isDrum":true},{"pitch":54,"velocity":128,"startTime":63.46147500000036,"endTime":63.61532100000036,"instrument":1,"program":118,"isDrum":true},{"pitch":54,"velocity":128,"startTime":63.69224400000035,"endTime":63.84609000000035,"instrument":1,"program":118,"isDrum":true},{"pitch":54,"velocity":128,"startTime":63.923013000000346,"endTime":64.07685900000034,"instrument":1,"program":118,"isDrum":true},{"pitch":54,"velocity":128,"startTime":64.15378200000033,"endTime":64.30762800000034,"instrument":1,"program":118,"isDrum":true},{"pitch":40,"velocity":109,"startTime":64.15378200000033,"endTime":64.30762800000034,"instrument":1,"program":118,"isDrum":true},{"pitch":54,"velocity":128,"startTime":64.38455100000033,"endTime":64.53839700000033,"instrument":1,"program":118,"isDrum":true},{"pitch":54,"velocity":128,"startTime":64.61532000000032,"endTime":64.76916600000033,"instrument":1,"program":118,"isDrum":true},{"pitch":41,"velocity":128,"startTime":64.61532000000032,"endTime":64.76916600000033,"instrument":1,"program":118,"isDrum":true},{"pitch":43,"velocity":103,"startTime":64.61532000000032,"endTime":64.76916600000033,"instrument":1,"program":118,"isDrum":true},{"pitch":45,"velocity":103,"startTime":64.61532000000032,"endTime":64.76916600000033,"instrument":1,"program":118,"isDrum":true},{"pitch":54,"velocity":128,"startTime":64.84608900000032,"endTime":64.99993500000032,"instrument":1,"program":118,"isDrum":true},{"pitch":54,"velocity":128,"startTime":65.07685800000031,"endTime":65.23070400000032,"instrument":1,"program":118,"isDrum":true},{"pitch":40,"velocity":109,"startTime":65.07685800000031,"endTime":65.23070400000032,"instrument":1,"program":118,"isDrum":true},{"pitch":54,"velocity":128,"startTime":65.30762700000031,"endTime":65.46147300000031,"instrument":1,"program":118,"isDrum":true},{"pitch":54,"velocity":128,"startTime":65.5383960000003,"endTime":65.6922420000003,"instrument":1,"program":118,"isDrum":true},{"pitch":54,"velocity":128,"startTime":65.7691650000003,"endTime":65.9230110000003,"instrument":1,"program":118,"isDrum":true},{"pitch":54,"velocity":128,"startTime":65.9999340000003,"endTime":66.1537800000003,"instrument":1,"program":118,"isDrum":true},{"pitch":40,"velocity":109,"startTime":65.9999340000003,"endTime":66.1537800000003,"instrument":1,"program":118,"isDrum":true},{"pitch":54,"velocity":128,"startTime":66.23070300000029,"endTime":66.38454900000029,"instrument":1,"program":118,"isDrum":true},{"pitch":54,"velocity":128,"startTime":66.46147200000028,"endTime":66.61531800000029,"instrument":1,"program":118,"isDrum":true},{"pitch":41,"velocity":128,"startTime":66.46147200000028,"endTime":66.61531800000029,"instrument":1,"program":118,"isDrum":true},{"pitch":43,"velocity":103,"startTime":66.46147200000028,"endTime":66.61531800000029,"instrument":1,"program":118,"isDrum":true},{"pitch":45,"velocity":103,"startTime":66.46147200000028,"endTime":66.61531800000029,"instrument":1,"program":118,"isDrum":true},{"pitch":54,"velocity":128,"startTime":66.69224100000028,"endTime":66.84608700000028,"instrument":1,"program":118,"isDrum":true},{"pitch":54,"velocity":128,"startTime":66.92301000000027,"endTime":67.07685600000028,"instrument":1,"program":118,"isDrum":true},{"pitch":40,"velocity":109,"startTime":66.92301000000027,"endTime":67.07685600000028,"instrument":1,"program":118,"isDrum":true},{"pitch":54,"velocity":128,"startTime":67.15377900000027,"endTime":67.30762500000027,"instrument":1,"program":118,"isDrum":true},{"pitch":54,"velocity":128,"startTime":67.38454800000027,"endTime":67.53839400000027,"instrument":1,"program":118,"isDrum":true},{"pitch":54,"velocity":128,"startTime":67.61531700000026,"endTime":67.76916300000026,"instrument":1,"program":118,"isDrum":true},{"pitch":54,"velocity":128,"startTime":67.84608600000026,"endTime":67.99993200000026,"instrument":1,"program":118,"isDrum":true},{"pitch":40,"velocity":109,"startTime":67.84608600000026,"endTime":67.99993200000026,"instrument":1,"program":118,"isDrum":true},{"pitch":54,"velocity":128,"startTime":68.07685500000025,"endTime":68.23070100000025,"instrument":1,"program":118,"isDrum":true},{"pitch":54,"velocity":128,"startTime":68.30762400000025,"endTime":68.46147000000025,"instrument":1,"program":118,"isDrum":true},{"pitch":41,"velocity":128,"startTime":68.30762400000025,"endTime":68.46147000000025,"instrument":1,"program":118,"isDrum":true},{"pitch":43,"velocity":103,"startTime":68.30762400000025,"endTime":68.46147000000025,"instrument":1,"program":118,"isDrum":true},{"pitch":45,"velocity":103,"startTime":68.30762400000025,"endTime":68.46147000000025,"instrument":1,"program":118,"isDrum":true},{"pitch":54,"velocity":128,"startTime":68.53839300000024,"endTime":68.69223900000024,"instrument":1,"program":118,"isDrum":true},{"pitch":54,"velocity":128,"startTime":68.76916200000024,"endTime":68.92300800000024,"instrument":1,"program":118,"isDrum":true},{"pitch":40,"velocity":109,"startTime":68.76916200000024,"endTime":68.92300800000024,"instrument":1,"program":118,"isDrum":true},{"pitch":54,"velocity":128,"startTime":68.99993100000023,"endTime":69.15377700000023,"instrument":1,"program":118,"isDrum":true},{"pitch":54,"velocity":128,"startTime":69.23070000000023,"endTime":69.38454600000023,"instrument":1,"program":118,"isDrum":true},{"pitch":54,"velocity":128,"startTime":69.46146900000022,"endTime":69.61531500000022,"instrument":1,"program":118,"isDrum":true},{"pitch":54,"velocity":128,"startTime":69.69223800000022,"endTime":69.84608400000022,"instrument":1,"program":118,"isDrum":true},{"pitch":40,"velocity":109,"startTime":69.69223800000022,"endTime":69.84608400000022,"instrument":1,"program":118,"isDrum":true},{"pitch":54,"velocity":128,"startTime":69.92300700000021,"endTime":70.07685300000021,"instrument":1,"program":118,"isDrum":true},{"pitch":54,"velocity":128,"startTime":70.1537760000002,"endTime":70.30762200000021,"instrument":1,"program":118,"isDrum":true},{"pitch":41,"velocity":128,"startTime":70.1537760000002,"endTime":70.30762200000021,"instrument":1,"program":118,"isDrum":true},{"pitch":43,"velocity":103,"startTime":70.1537760000002,"endTime":70.30762200000021,"instrument":1,"program":118,"isDrum":true},{"pitch":45,"velocity":103,"startTime":70.1537760000002,"endTime":70.30762200000021,"instrument":1,"program":118,"isDrum":true},{"pitch":54,"velocity":128,"startTime":70.3845450000002,"endTime":70.5383910000002,"instrument":1,"program":118,"isDrum":true},{"pitch":54,"velocity":128,"startTime":70.6153140000002,"endTime":70.7691600000002,"instrument":1,"program":118,"isDrum":true},{"pitch":40,"velocity":109,"startTime":70.6153140000002,"endTime":70.7691600000002,"instrument":1,"program":118,"isDrum":true},{"pitch":54,"velocity":128,"startTime":70.84608300000019,"endTime":70.9999290000002,"instrument":1,"program":118,"isDrum":true},{"pitch":54,"velocity":128,"startTime":71.07685200000019,"endTime":71.23069800000019,"instrument":1,"program":118,"isDrum":true},{"pitch":54,"velocity":128,"startTime":71.30762100000018,"endTime":71.46146700000018,"instrument":1,"program":118,"isDrum":true},{"pitch":54,"velocity":128,"startTime":71.53839000000018,"endTime":71.69223600000018,"instrument":1,"program":118,"isDrum":true},{"pitch":40,"velocity":109,"startTime":71.53839000000018,"endTime":71.69223600000018,"instrument":1,"program":118,"isDrum":true},{"pitch":54,"velocity":128,"startTime":71.76915900000017,"endTime":71.92300500000017,"instrument":1,"program":118,"isDrum":true},{"pitch":54,"velocity":128,"startTime":71.99992800000017,"endTime":72.15377400000017,"instrument":1,"program":118,"isDrum":true},{"pitch":41,"velocity":128,"startTime":71.99992800000017,"endTime":72.15377400000017,"instrument":1,"program":118,"isDrum":true},{"pitch":43,"velocity":103,"startTime":71.99992800000017,"endTime":72.15377400000017,"instrument":1,"program":118,"isDrum":true},{"pitch":45,"velocity":103,"startTime":71.99992800000017,"endTime":72.15377400000017,"instrument":1,"program":118,"isDrum":true},{"pitch":54,"velocity":128,"startTime":72.23069700000016,"endTime":72.38454300000016,"instrument":1,"program":118,"isDrum":true},{"pitch":54,"velocity":128,"startTime":72.46146600000016,"endTime":72.61531200000016,"instrument":1,"program":118,"isDrum":true},{"pitch":40,"velocity":109,"startTime":72.46146600000016,"endTime":72.61531200000016,"instrument":1,"program":118,"isDrum":true},{"pitch":54,"velocity":128,"startTime":72.69223500000015,"endTime":72.84608100000015,"instrument":1,"program":118,"isDrum":true},{"pitch":54,"velocity":128,"startTime":72.92300400000015,"endTime":73.07685000000015,"instrument":1,"program":118,"isDrum":true},{"pitch":54,"velocity":128,"startTime":73.15377300000014,"endTime":73.30761900000014,"instrument":1,"program":118,"isDrum":true},{"pitch":54,"velocity":128,"startTime":73.38454200000014,"endTime":73.53838800000014,"instrument":1,"program":118,"isDrum":true},{"pitch":40,"velocity":109,"startTime":73.38454200000014,"endTime":73.53838800000014,"instrument":1,"program":118,"isDrum":true},{"pitch":54,"velocity":128,"startTime":73.61531100000013,"endTime":73.76915700000013,"instrument":1,"program":118,"isDrum":true},{"pitch":41,"velocity":128,"startTime":73.84608000000013,"endTime":73.99992600000013,"instrument":1,"program":118,"isDrum":true},{"pitch":43,"velocity":103,"startTime":73.84608000000013,"endTime":73.99992600000013,"instrument":1,"program":118,"isDrum":true},{"pitch":45,"velocity":103,"startTime":73.84608000000013,"endTime":73.99992600000013,"instrument":1,"program":118,"isDrum":true},{"pitch":54,"velocity":128,"startTime":73.84608000000013,"endTime":73.99992600000013,"instrument":1,"program":118,"isDrum":true},{"pitch":54,"velocity":128,"startTime":74.07684900000012,"endTime":74.23069500000013,"instrument":1,"program":118,"isDrum":true},{"pitch":54,"velocity":128,"startTime":74.30761800000012,"endTime":74.46146400000012,"instrument":1,"program":118,"isDrum":true},{"pitch":40,"velocity":109,"startTime":74.30761800000012,"endTime":74.46146400000012,"instrument":1,"program":118,"isDrum":true},{"pitch":54,"velocity":128,"startTime":74.53838700000011,"endTime":74.69223300000012,"instrument":1,"program":118,"isDrum":true},{"pitch":54,"velocity":128,"startTime":74.76915600000011,"endTime":74.92300200000011,"instrument":1,"program":118,"isDrum":true},{"pitch":54,"velocity":128,"startTime":74.9999250000001,"endTime":75.1537710000001,"instrument":1,"program":118,"isDrum":true},{"pitch":54,"velocity":128,"startTime":75.2306940000001,"endTime":75.3845400000001,"instrument":1,"program":118,"isDrum":true},{"pitch":40,"velocity":109,"startTime":75.2306940000001,"endTime":75.3845400000001,"instrument":1,"program":118,"isDrum":true},{"pitch":54,"velocity":128,"startTime":75.4614630000001,"endTime":75.6153090000001,"instrument":1,"program":118,"isDrum":true},{"pitch":54,"velocity":128,"startTime":75.69223200000009,"endTime":75.84607800000009,"instrument":1,"program":118,"isDrum":true},{"pitch":41,"velocity":128,"startTime":75.69223200000009,"endTime":75.84607800000009,"instrument":1,"program":118,"isDrum":true},{"pitch":43,"velocity":103,"startTime":75.69223200000009,"endTime":75.84607800000009,"instrument":1,"program":118,"isDrum":true},{"pitch":45,"velocity":103,"startTime":75.69223200000009,"endTime":75.84607800000009,"instrument":1,"program":118,"isDrum":true},{"pitch":54,"velocity":128,"startTime":75.92300100000008,"endTime":76.07684700000009,"instrument":1,"program":118,"isDrum":true},{"pitch":54,"velocity":128,"startTime":76.15377000000008,"endTime":76.30761600000008,"instrument":1,"program":118,"isDrum":true},{"pitch":40,"velocity":109,"startTime":76.15377000000008,"endTime":76.30761600000008,"instrument":1,"program":118,"isDrum":true},{"pitch":54,"velocity":128,"startTime":76.38453900000007,"endTime":76.53838500000008,"instrument":1,"program":118,"isDrum":true},{"pitch":54,"velocity":128,"startTime":76.61530800000007,"endTime":76.76915400000007,"instrument":1,"program":118,"isDrum":true},{"pitch":54,"velocity":128,"startTime":76.84607700000007,"endTime":76.99992300000007,"instrument":1,"program":118,"isDrum":true},{"pitch":54,"velocity":128,"startTime":77.07684600000006,"endTime":77.23069200000006,"instrument":1,"program":118,"isDrum":true},{"pitch":40,"velocity":109,"startTime":77.07684600000006,"endTime":77.23069200000006,"instrument":1,"program":118,"isDrum":true},{"pitch":54,"velocity":128,"startTime":77.30761500000006,"endTime":77.46146100000006,"instrument":1,"program":118,"isDrum":true},{"pitch":54,"velocity":128,"startTime":77.53838400000005,"endTime":77.69223000000005,"instrument":1,"program":118,"isDrum":true},{"pitch":41,"velocity":128,"startTime":77.53838400000005,"endTime":77.69223000000005,"instrument":1,"program":118,"isDrum":true},{"pitch":43,"velocity":103,"startTime":77.53838400000005,"endTime":77.69223000000005,"instrument":1,"program":118,"isDrum":true},{"pitch":45,"velocity":103,"startTime":77.53838400000005,"endTime":77.69223000000005,"instrument":1,"program":118,"isDrum":true},{"pitch":54,"velocity":128,"startTime":77.76915300000005,"endTime":77.92299900000005,"instrument":1,"program":118,"isDrum":true},{"pitch":54,"velocity":128,"startTime":77.99992200000004,"endTime":78.15376800000004,"instrument":1,"program":118,"isDrum":true},{"pitch":40,"velocity":109,"startTime":77.99992200000004,"endTime":78.15376800000004,"instrument":1,"program":118,"isDrum":true},{"pitch":54,"velocity":128,"startTime":78.23069100000004,"endTime":78.38453700000004,"instrument":1,"program":118,"isDrum":true},{"pitch":54,"velocity":128,"startTime":78.46146000000003,"endTime":78.61530600000003,"instrument":1,"program":118,"isDrum":true},{"pitch":54,"velocity":128,"startTime":78.69222900000003,"endTime":78.84607500000003,"instrument":1,"program":118,"isDrum":true},{"pitch":54,"velocity":128,"startTime":78.92299800000002,"endTime":79.07684400000002,"instrument":1,"program":118,"isDrum":true},{"pitch":40,"velocity":109,"startTime":78.92299800000002,"endTime":79.07684400000002,"instrument":1,"program":118,"isDrum":true},{"pitch":54,"velocity":128,"startTime":79.15376700000002,"endTime":79.30761300000002,"instrument":1,"program":118,"isDrum":true},{"pitch":54,"velocity":128,"startTime":79.38453600000001,"endTime":79.53838200000001,"instrument":1,"program":118,"isDrum":true},{"pitch":41,"velocity":128,"startTime":79.38453600000001,"endTime":79.53838200000001,"instrument":1,"program":118,"isDrum":true},{"pitch":43,"velocity":103,"startTime":79.38453600000001,"endTime":79.53838200000001,"instrument":1,"program":118,"isDrum":true},{"pitch":45,"velocity":103,"startTime":79.38453600000001,"endTime":79.53838200000001,"instrument":1,"program":118,"isDrum":true},{"pitch":54,"velocity":128,"startTime":79.615305,"endTime":79.76915100000001,"instrument":1,"program":118,"isDrum":true},{"pitch":54,"velocity":128,"startTime":79.846074,"endTime":79.99992,"instrument":1,"program":118,"isDrum":true},{"pitch":40,"velocity":109,"startTime":79.846074,"endTime":79.99992,"instrument":1,"program":118,"isDrum":true},{"pitch":54,"velocity":128,"startTime":80.076843,"endTime":80.230689,"instrument":1,"program":118,"isDrum":true},{"pitch":54,"velocity":128,"startTime":80.30761199999999,"endTime":80.461458,"instrument":1,"program":118,"isDrum":true},{"pitch":54,"velocity":128,"startTime":80.53838099999999,"endTime":80.69222699999999,"instrument":1,"program":118,"isDrum":true},{"pitch":54,"velocity":128,"startTime":80.76914999999998,"endTime":80.92299599999998,"instrument":1,"program":118,"isDrum":true},{"pitch":40,"velocity":109,"startTime":80.76914999999998,"endTime":80.92299599999998,"instrument":1,"program":118,"isDrum":true},{"pitch":54,"velocity":128,"startTime":80.99991899999998,"endTime":81.15376499999998,"instrument":1,"program":118,"isDrum":true},{"pitch":41,"velocity":128,"startTime":81.23068799999997,"endTime":81.38453399999997,"instrument":1,"program":118,"isDrum":true},{"pitch":43,"velocity":103,"startTime":81.23068799999997,"endTime":81.38453399999997,"instrument":1,"program":118,"isDrum":true},{"pitch":45,"velocity":103,"startTime":81.23068799999997,"endTime":81.38453399999997,"instrument":1,"program":118,"isDrum":true},{"pitch":54,"velocity":128,"startTime":81.23068799999997,"endTime":81.38453399999997,"instrument":1,"program":118,"isDrum":true},{"pitch":54,"velocity":128,"startTime":81.46145699999997,"endTime":81.61530299999997,"instrument":1,"program":118,"isDrum":true},{"pitch":54,"velocity":128,"startTime":81.69222599999996,"endTime":81.84607199999996,"instrument":1,"program":118,"isDrum":true},{"pitch":40,"velocity":109,"startTime":81.69222599999996,"endTime":81.84607199999996,"instrument":1,"program":118,"isDrum":true},{"pitch":54,"velocity":128,"startTime":81.92299499999996,"endTime":82.07684099999996,"instrument":1,"program":118,"isDrum":true},{"pitch":54,"velocity":128,"startTime":82.15376399999995,"endTime":82.30760999999995,"instrument":1,"program":118,"isDrum":true},{"pitch":54,"velocity":128,"startTime":82.38453299999995,"endTime":82.53837899999995,"instrument":1,"program":118,"isDrum":true},{"pitch":54,"velocity":128,"startTime":82.61530199999994,"endTime":82.76914799999994,"instrument":1,"program":118,"isDrum":true},{"pitch":40,"velocity":109,"startTime":82.61530199999994,"endTime":82.76914799999994,"instrument":1,"program":118,"isDrum":true},{"pitch":54,"velocity":128,"startTime":82.84607099999994,"endTime":82.99991699999994,"instrument":1,"program":118,"isDrum":true},{"pitch":54,"velocity":128,"startTime":83.07683999999993,"endTime":83.23068599999993,"instrument":1,"program":118,"isDrum":true},{"pitch":41,"velocity":128,"startTime":83.07683999999993,"endTime":83.23068599999993,"instrument":1,"program":118,"isDrum":true},{"pitch":43,"velocity":103,"startTime":83.07683999999993,"endTime":83.23068599999993,"instrument":1,"program":118,"isDrum":true},{"pitch":45,"velocity":103,"startTime":83.07683999999993,"endTime":83.23068599999993,"instrument":1,"program":118,"isDrum":true},{"pitch":54,"velocity":128,"startTime":83.30760899999993,"endTime":83.46145499999993,"instrument":1,"program":118,"isDrum":true},{"pitch":54,"velocity":128,"startTime":83.53837799999992,"endTime":83.69222399999992,"instrument":1,"program":118,"isDrum":true},{"pitch":40,"velocity":109,"startTime":83.53837799999992,"endTime":83.69222399999992,"instrument":1,"program":118,"isDrum":true},{"pitch":54,"velocity":128,"startTime":83.76914699999992,"endTime":83.92299299999992,"instrument":1,"program":118,"isDrum":true},{"pitch":54,"velocity":128,"startTime":83.99991599999991,"endTime":84.15376199999992,"instrument":1,"program":118,"isDrum":true},{"pitch":54,"velocity":128,"startTime":84.23068499999991,"endTime":84.38453099999991,"instrument":1,"program":118,"isDrum":true},{"pitch":54,"velocity":128,"startTime":84.4614539999999,"endTime":84.6152999999999,"instrument":1,"program":118,"isDrum":true},{"pitch":40,"velocity":109,"startTime":84.4614539999999,"endTime":84.6152999999999,"instrument":1,"program":118,"isDrum":true},{"pitch":54,"velocity":128,"startTime":84.6922229999999,"endTime":84.8460689999999,"instrument":1,"program":118,"isDrum":true},{"pitch":54,"velocity":128,"startTime":84.9229919999999,"endTime":85.0768379999999,"instrument":1,"program":118,"isDrum":true},{"pitch":41,"velocity":128,"startTime":84.9229919999999,"endTime":85.0768379999999,"instrument":1,"program":118,"isDrum":true},{"pitch":43,"velocity":103,"startTime":84.9229919999999,"endTime":85.0768379999999,"instrument":1,"program":118,"isDrum":true},{"pitch":45,"velocity":103,"startTime":84.9229919999999,"endTime":85.0768379999999,"instrument":1,"program":118,"isDrum":true},{"pitch":54,"velocity":128,"startTime":85.15376099999989,"endTime":85.30760699999989,"instrument":1,"program":118,"isDrum":true},{"pitch":54,"velocity":128,"startTime":85.38452999999988,"endTime":85.53837599999989,"instrument":1,"program":118,"isDrum":true},{"pitch":40,"velocity":109,"startTime":85.38452999999988,"endTime":85.53837599999989,"instrument":1,"program":118,"isDrum":true},{"pitch":54,"velocity":128,"startTime":85.61529899999988,"endTime":85.76914499999988,"instrument":1,"program":118,"isDrum":true},{"pitch":54,"velocity":128,"startTime":85.84606799999987,"endTime":85.99991399999988,"instrument":1,"program":118,"isDrum":true},{"pitch":54,"velocity":128,"startTime":86.07683699999987,"endTime":86.23068299999987,"instrument":1,"program":118,"isDrum":true},{"pitch":54,"velocity":128,"startTime":86.30760599999986,"endTime":86.46145199999987,"instrument":1,"program":118,"isDrum":true},{"pitch":40,"velocity":109,"startTime":86.30760599999986,"endTime":86.46145199999987,"instrument":1,"program":118,"isDrum":true},{"pitch":54,"velocity":128,"startTime":86.53837499999986,"endTime":86.69222099999986,"instrument":1,"program":118,"isDrum":true},{"pitch":38,"velocity":128,"startTime":86.76914399999986,"endTime":86.84606699999985,"instrument":1,"program":118,"isDrum":true},{"pitch":36,"velocity":128,"startTime":86.76914399999986,"endTime":86.84606699999985,"instrument":1,"program":118,"isDrum":true},{"pitch":57,"velocity":128,"startTime":86.76914399999986,"endTime":86.84606699999985,"instrument":1,"program":118,"isDrum":true},{"pitch":36,"velocity":128,"startTime":87.23068199999985,"endTime":87.30760499999984,"instrument":1,"program":118,"isDrum":true},{"pitch":38,"velocity":128,"startTime":87.23068199999985,"endTime":87.30760499999984,"instrument":1,"program":118,"isDrum":true},{"pitch":57,"velocity":128,"startTime":87.23068199999985,"endTime":87.30760499999984,"instrument":1,"program":118,"isDrum":true},{"pitch":36,"velocity":128,"startTime":87.34606649999984,"endTime":87.42298949999983,"instrument":1,"program":118,"isDrum":true},{"pitch":36,"velocity":128,"startTime":87.46145099999983,"endTime":87.53837399999982,"instrument":1,"program":118,"isDrum":true},{"pitch":38,"velocity":128,"startTime":87.69221999999982,"endTime":87.76914299999981,"instrument":1,"program":118,"isDrum":true},{"pitch":36,"velocity":128,"startTime":87.69221999999982,"endTime":87.76914299999981,"instrument":1,"program":118,"isDrum":true},{"pitch":57,"velocity":128,"startTime":87.69221999999982,"endTime":87.76914299999981,"instrument":1,"program":118,"isDrum":true},{"pitch":36,"velocity":128,"startTime":87.80760449999981,"endTime":87.8845274999998,"instrument":1,"program":118,"isDrum":true},{"pitch":36,"velocity":128,"startTime":87.9229889999998,"endTime":87.9999119999998,"instrument":1,"program":118,"isDrum":true},{"pitch":36,"velocity":128,"startTime":88.1537579999998,"endTime":88.23068099999979,"instrument":1,"program":118,"isDrum":true},{"pitch":38,"velocity":128,"startTime":88.1537579999998,"endTime":88.23068099999979,"instrument":1,"program":118,"isDrum":true},{"pitch":57,"velocity":128,"startTime":88.1537579999998,"endTime":88.23068099999979,"instrument":1,"program":118,"isDrum":true},{"pitch":36,"velocity":128,"startTime":88.26914249999979,"endTime":88.34606549999978,"instrument":1,"program":118,"isDrum":true},{"pitch":36,"velocity":128,"startTime":88.38452699999978,"endTime":88.46144999999977,"instrument":1,"program":118,"isDrum":true},{"pitch":36,"velocity":128,"startTime":88.61529599999977,"endTime":88.76914199999977,"instrument":1,"program":118,"isDrum":true},{"pitch":38,"velocity":128,"startTime":88.61529599999977,"endTime":88.76914199999977,"instrument":1,"program":118,"isDrum":true},{"pitch":57,"velocity":128,"startTime":88.61529599999977,"endTime":88.76914199999977,"instrument":1,"program":118,"isDrum":true},{"pitch":38,"velocity":128,"startTime":89.07683399999978,"endTime":89.23067999999978,"instrument":1,"program":118,"isDrum":true},{"pitch":36,"velocity":128,"startTime":89.30760299999977,"endTime":89.46144899999977,"instrument":1,"program":118,"isDrum":true},{"pitch":38,"velocity":128,"startTime":89.30760299999977,"endTime":89.46144899999977,"instrument":1,"program":118,"isDrum":true},{"pitch":38,"velocity":128,"startTime":89.53837199999977,"endTime":89.69221799999977,"instrument":1,"program":118,"isDrum":true},{"pitch":36,"velocity":128,"startTime":89.53837199999977,"endTime":89.69221799999977,"instrument":1,"program":118,"isDrum":true},{"pitch":57,"velocity":128,"startTime":89.53837199999977,"endTime":89.69221799999977,"instrument":1,"program":118,"isDrum":true},{"pitch":38,"velocity":128,"startTime":89.99990999999977,"endTime":90.15375599999977,"instrument":1,"program":118,"isDrum":true},{"pitch":38,"velocity":128,"startTime":90.23067899999977,"endTime":90.38452499999977,"instrument":1,"program":118,"isDrum":true},{"pitch":36,"velocity":128,"startTime":90.23067899999977,"endTime":90.38452499999977,"instrument":1,"program":118,"isDrum":true},{"pitch":36,"velocity":128,"startTime":90.46144799999976,"endTime":90.61529399999976,"instrument":1,"program":118,"isDrum":true},{"pitch":38,"velocity":128,"startTime":90.46144799999976,"endTime":90.61529399999976,"instrument":1,"program":118,"isDrum":true},{"pitch":57,"velocity":128,"startTime":90.46144799999976,"endTime":90.61529399999976,"instrument":1,"program":118,"isDrum":true},{"pitch":38,"velocity":128,"startTime":90.92298599999977,"endTime":91.07683199999977,"instrument":1,"program":118,"isDrum":true},{"pitch":36,"velocity":128,"startTime":91.15375499999976,"endTime":91.30760099999976,"instrument":1,"program":118,"isDrum":true},{"pitch":38,"velocity":128,"startTime":91.15375499999976,"endTime":91.30760099999976,"instrument":1,"program":118,"isDrum":true},{"pitch":38,"velocity":128,"startTime":91.38452399999976,"endTime":91.53836999999976,"instrument":1,"program":118,"isDrum":true},{"pitch":36,"velocity":128,"startTime":91.38452399999976,"endTime":91.53836999999976,"instrument":1,"program":118,"isDrum":true},{"pitch":57,"velocity":128,"startTime":91.38452399999976,"endTime":91.53836999999976,"instrument":1,"program":118,"isDrum":true},{"pitch":38,"velocity":128,"startTime":91.84606199999976,"endTime":91.99990799999976,"instrument":1,"program":118,"isDrum":true},{"pitch":38,"velocity":128,"startTime":92.07683099999976,"endTime":92.23067699999976,"instrument":1,"program":118,"isDrum":true},{"pitch":36,"velocity":128,"startTime":92.07683099999976,"endTime":92.23067699999976,"instrument":1,"program":118,"isDrum":true},{"pitch":36,"velocity":128,"startTime":92.30759999999975,"endTime":92.46144599999975,"instrument":1,"program":118,"isDrum":true},{"pitch":38,"velocity":128,"startTime":92.30759999999975,"endTime":92.46144599999975,"instrument":1,"program":118,"isDrum":true},{"pitch":57,"velocity":128,"startTime":92.30759999999975,"endTime":92.46144599999975,"instrument":1,"program":118,"isDrum":true},{"pitch":57,"velocity":128,"startTime":92.76913799999976,"endTime":92.84606099999975,"instrument":1,"program":118,"isDrum":true},{"pitch":38,"velocity":128,"startTime":92.76913799999976,"endTime":92.84606099999975,"instrument":1,"program":118,"isDrum":true},{"pitch":36,"velocity":128,"startTime":92.76913799999976,"endTime":92.84606099999975,"instrument":1,"program":118,"isDrum":true},{"pitch":36,"velocity":128,"startTime":92.88452249999975,"endTime":92.96144549999974,"instrument":1,"program":118,"isDrum":true},{"pitch":36,"velocity":128,"startTime":92.99990699999974,"endTime":93.07682999999973,"instrument":1,"program":118,"isDrum":true},{"pitch":36,"velocity":128,"startTime":93.23067599999973,"endTime":93.30759899999973,"instrument":1,"program":118,"isDrum":true},{"pitch":38,"velocity":128,"startTime":93.23067599999973,"endTime":93.30759899999973,"instrument":1,"program":118,"isDrum":true},{"pitch":57,"velocity":128,"startTime":93.23067599999973,"endTime":93.30759899999973,"instrument":1,"program":118,"isDrum":true},{"pitch":36,"velocity":128,"startTime":93.34606049999972,"endTime":93.42298349999972,"instrument":1,"program":118,"isDrum":true},{"pitch":36,"velocity":128,"startTime":93.46144499999971,"endTime":93.5383679999997,"instrument":1,"program":118,"isDrum":true},{"pitch":57,"velocity":128,"startTime":93.69221399999971,"endTime":93.84605999999971,"instrument":1,"program":118,"isDrum":true},{"pitch":38,"velocity":128,"startTime":93.69221399999971,"endTime":93.84605999999971,"instrument":1,"program":118,"isDrum":true},{"pitch":36,"velocity":128,"startTime":93.69221399999971,"endTime":93.84605999999971,"instrument":1,"program":118,"isDrum":true},{"pitch":38,"velocity":128,"startTime":94.15375199999971,"endTime":94.2306749999997,"instrument":1,"program":118,"isDrum":true},{"pitch":36,"velocity":128,"startTime":94.15375199999971,"endTime":94.2306749999997,"instrument":1,"program":118,"isDrum":true},{"pitch":57,"velocity":128,"startTime":94.15375199999971,"endTime":94.2306749999997,"instrument":1,"program":118,"isDrum":true},{"pitch":36,"velocity":128,"startTime":94.6152899999997,"endTime":94.6922129999997,"instrument":1,"program":118,"isDrum":true},{"pitch":38,"velocity":128,"startTime":94.6152899999997,"endTime":94.6922129999997,"instrument":1,"program":118,"isDrum":true},{"pitch":57,"velocity":128,"startTime":94.6152899999997,"endTime":94.6922129999997,"instrument":1,"program":118,"isDrum":true},{"pitch":36,"velocity":128,"startTime":94.7306744999997,"endTime":94.80759749999969,"instrument":1,"program":118,"isDrum":true},{"pitch":36,"velocity":128,"startTime":94.84605899999968,"endTime":94.92298199999968,"instrument":1,"program":118,"isDrum":true},{"pitch":38,"velocity":128,"startTime":95.07682799999968,"endTime":95.15375099999967,"instrument":1,"program":118,"isDrum":true},{"pitch":36,"velocity":128,"startTime":95.07682799999968,"endTime":95.15375099999967,"instrument":1,"program":118,"isDrum":true},{"pitch":57,"velocity":128,"startTime":95.07682799999968,"endTime":95.15375099999967,"instrument":1,"program":118,"isDrum":true},{"pitch":36,"velocity":128,"startTime":95.19221249999967,"endTime":95.26913549999966,"instrument":1,"program":118,"isDrum":true},{"pitch":36,"velocity":128,"startTime":95.30759699999966,"endTime":95.38451999999965,"instrument":1,"program":118,"isDrum":true},{"pitch":36,"velocity":128,"startTime":95.53836599999966,"endTime":95.61528899999965,"instrument":1,"program":118,"isDrum":true},{"pitch":38,"velocity":128,"startTime":95.53836599999966,"endTime":95.61528899999965,"instrument":1,"program":118,"isDrum":true},{"pitch":57,"velocity":128,"startTime":95.53836599999966,"endTime":95.61528899999965,"instrument":1,"program":118,"isDrum":true},{"pitch":36,"velocity":128,"startTime":95.65375049999965,"endTime":95.73067349999964,"instrument":1,"program":118,"isDrum":true},{"pitch":36,"velocity":128,"startTime":95.76913499999964,"endTime":95.84605799999963,"instrument":1,"program":118,"isDrum":true},{"pitch":36,"velocity":128,"startTime":95.99990399999963,"endTime":96.15374999999963,"instrument":1,"program":118,"isDrum":true},{"pitch":38,"velocity":128,"startTime":95.99990399999963,"endTime":96.15374999999963,"instrument":1,"program":118,"isDrum":true},{"pitch":57,"velocity":128,"startTime":95.99990399999963,"endTime":96.15374999999963,"instrument":1,"program":118,"isDrum":true},{"pitch":38,"velocity":128,"startTime":96.46144199999964,"endTime":96.61528799999964,"instrument":1,"program":118,"isDrum":true},{"pitch":36,"velocity":128,"startTime":96.69221099999963,"endTime":96.84605699999963,"instrument":1,"program":118,"isDrum":true},{"pitch":38,"velocity":128,"startTime":96.69221099999963,"endTime":96.84605699999963,"instrument":1,"program":118,"isDrum":true},{"pitch":38,"velocity":128,"startTime":96.92297999999963,"endTime":97.07682599999963,"instrument":1,"program":118,"isDrum":true},{"pitch":36,"velocity":128,"startTime":96.92297999999963,"endTime":97.07682599999963,"instrument":1,"program":118,"isDrum":true},{"pitch":57,"velocity":128,"startTime":96.92297999999963,"endTime":97.07682599999963,"instrument":1,"program":118,"isDrum":true},{"pitch":38,"velocity":128,"startTime":97.38451799999963,"endTime":97.53836399999963,"instrument":1,"program":118,"isDrum":true},{"pitch":38,"velocity":128,"startTime":97.61528699999963,"endTime":97.76913299999963,"instrument":1,"program":118,"isDrum":true},{"pitch":36,"velocity":128,"startTime":97.61528699999963,"endTime":97.76913299999963,"instrument":1,"program":118,"isDrum":true},{"pitch":36,"velocity":128,"startTime":97.84605599999962,"endTime":97.99990199999962,"instrument":1,"program":118,"isDrum":true},{"pitch":38,"velocity":128,"startTime":97.84605599999962,"endTime":97.99990199999962,"instrument":1,"program":118,"isDrum":true},{"pitch":57,"velocity":128,"startTime":97.84605599999962,"endTime":97.99990199999962,"instrument":1,"program":118,"isDrum":true},{"pitch":38,"velocity":128,"startTime":98.30759399999963,"endTime":98.46143999999963,"instrument":1,"program":118,"isDrum":true},{"pitch":36,"velocity":128,"startTime":98.53836299999962,"endTime":98.69220899999962,"instrument":1,"program":118,"isDrum":true},{"pitch":38,"velocity":128,"startTime":98.53836299999962,"endTime":98.69220899999962,"instrument":1,"program":118,"isDrum":true},{"pitch":38,"velocity":128,"startTime":98.76913199999962,"endTime":98.92297799999962,"instrument":1,"program":118,"isDrum":true},{"pitch":36,"velocity":128,"startTime":98.76913199999962,"endTime":98.92297799999962,"instrument":1,"program":118,"isDrum":true},{"pitch":57,"velocity":128,"startTime":98.76913199999962,"endTime":98.92297799999962,"instrument":1,"program":118,"isDrum":true},{"pitch":38,"velocity":128,"startTime":99.23066999999962,"endTime":99.38451599999962,"instrument":1,"program":118,"isDrum":true},{"pitch":38,"velocity":128,"startTime":99.46143899999961,"endTime":99.61528499999962,"instrument":1,"program":118,"isDrum":true},{"pitch":36,"velocity":128,"startTime":99.46143899999961,"endTime":99.61528499999962,"instrument":1,"program":118,"isDrum":true},{"pitch":36,"velocity":128,"startTime":99.69220799999961,"endTime":99.84605399999961,"instrument":1,"program":118,"isDrum":true},{"pitch":38,"velocity":128,"startTime":99.69220799999961,"endTime":99.84605399999961,"instrument":1,"program":118,"isDrum":true},{"pitch":57,"velocity":128,"startTime":99.69220799999961,"endTime":99.84605399999961,"instrument":1,"program":118,"isDrum":true},{"pitch":57,"velocity":128,"startTime":100.15374599999961,"endTime":100.23066899999961,"instrument":1,"program":118,"isDrum":true},{"pitch":38,"velocity":128,"startTime":100.15374599999961,"endTime":100.23066899999961,"instrument":1,"program":118,"isDrum":true},{"pitch":36,"velocity":128,"startTime":100.15374599999961,"endTime":100.23066899999961,"instrument":1,"program":118,"isDrum":true},{"pitch":36,"velocity":128,"startTime":100.2691304999996,"endTime":100.3460534999996,"instrument":1,"program":118,"isDrum":true},{"pitch":36,"velocity":128,"startTime":100.3845149999996,"endTime":100.46143799999959,"instrument":1,"program":118,"isDrum":true},{"pitch":36,"velocity":128,"startTime":100.61528399999959,"endTime":100.69220699999958,"instrument":1,"program":118,"isDrum":true},{"pitch":38,"velocity":128,"startTime":100.61528399999959,"endTime":100.69220699999958,"instrument":1,"program":118,"isDrum":true},{"pitch":57,"velocity":128,"startTime":100.61528399999959,"endTime":100.69220699999958,"instrument":1,"program":118,"isDrum":true},{"pitch":36,"velocity":128,"startTime":100.73066849999958,"endTime":100.80759149999957,"instrument":1,"program":118,"isDrum":true},{"pitch":36,"velocity":128,"startTime":100.84605299999957,"endTime":100.92297599999957,"instrument":1,"program":118,"isDrum":true},{"pitch":57,"velocity":128,"startTime":101.07682199999957,"endTime":101.23066799999957,"instrument":1,"program":118,"isDrum":true},{"pitch":38,"velocity":128,"startTime":101.07682199999957,"endTime":101.23066799999957,"instrument":1,"program":118,"isDrum":true},{"pitch":36,"velocity":128,"startTime":101.07682199999957,"endTime":101.23066799999957,"instrument":1,"program":118,"isDrum":true},{"pitch":38,"velocity":128,"startTime":101.53835999999957,"endTime":101.61528299999956,"instrument":1,"program":118,"isDrum":true},{"pitch":36,"velocity":128,"startTime":101.53835999999957,"endTime":101.61528299999956,"instrument":1,"program":118,"isDrum":true},{"pitch":57,"velocity":128,"startTime":101.53835999999957,"endTime":101.61528299999956,"instrument":1,"program":118,"isDrum":true},{"pitch":36,"velocity":128,"startTime":101.99989799999956,"endTime":102.07682099999955,"instrument":1,"program":118,"isDrum":true},{"pitch":38,"velocity":128,"startTime":101.99989799999956,"endTime":102.07682099999955,"instrument":1,"program":118,"isDrum":true},{"pitch":57,"velocity":128,"startTime":101.99989799999956,"endTime":102.07682099999955,"instrument":1,"program":118,"isDrum":true},{"pitch":36,"velocity":128,"startTime":102.11528249999955,"endTime":102.19220549999955,"instrument":1,"program":118,"isDrum":true},{"pitch":36,"velocity":128,"startTime":102.23066699999954,"endTime":102.30758999999954,"instrument":1,"program":118,"isDrum":true},{"pitch":38,"velocity":128,"startTime":102.46143599999954,"endTime":102.53835899999953,"instrument":1,"program":118,"isDrum":true},{"pitch":36,"velocity":128,"startTime":102.46143599999954,"endTime":102.53835899999953,"instrument":1,"program":118,"isDrum":true},{"pitch":57,"velocity":128,"startTime":102.46143599999954,"endTime":102.53835899999953,"instrument":1,"program":118,"isDrum":true},{"pitch":36,"velocity":128,"startTime":102.57682049999953,"endTime":102.65374349999952,"instrument":1,"program":118,"isDrum":true},{"pitch":36,"velocity":128,"startTime":102.69220499999952,"endTime":102.76912799999951,"instrument":1,"program":118,"isDrum":true},{"pitch":36,"velocity":128,"startTime":102.92297399999951,"endTime":102.9998969999995,"instrument":1,"program":118,"isDrum":true},{"pitch":38,"velocity":128,"startTime":102.92297399999951,"endTime":102.9998969999995,"instrument":1,"program":118,"isDrum":true},{"pitch":57,"velocity":128,"startTime":102.92297399999951,"endTime":102.9998969999995,"instrument":1,"program":118,"isDrum":true},{"pitch":36,"velocity":128,"startTime":103.0383584999995,"endTime":103.1152814999995,"instrument":1,"program":118,"isDrum":true},{"pitch":36,"velocity":128,"startTime":103.1537429999995,"endTime":103.23066599999949,"instrument":1,"program":118,"isDrum":true},{"pitch":36,"velocity":128,"startTime":103.38451199999949,"endTime":103.53835799999949,"instrument":1,"program":118,"isDrum":true},{"pitch":57,"velocity":128,"startTime":103.38451199999949,"endTime":103.53835799999949,"instrument":1,"program":118,"isDrum":true},{"pitch":38,"velocity":128,"startTime":103.8460499999995,"endTime":103.9998959999995,"instrument":1,"program":118,"isDrum":true},{"pitch":57,"velocity":128,"startTime":103.8460499999995,"endTime":103.9998959999995,"instrument":1,"program":118,"isDrum":true},{"pitch":57,"velocity":128,"startTime":104.07681899999949,"endTime":104.23066499999948,"instrument":1,"program":118,"isDrum":true},{"pitch":38,"velocity":128,"startTime":104.07681899999949,"endTime":104.15374199999948,"instrument":1,"program":118,"isDrum":true},{"pitch":38,"velocity":128,"startTime":104.19220349999948,"endTime":104.26912649999947,"instrument":1,"program":118,"isDrum":true},{"pitch":36,"velocity":128,"startTime":104.30758799999947,"endTime":104.46143399999947,"instrument":1,"program":118,"isDrum":true},{"pitch":57,"velocity":128,"startTime":104.30758799999947,"endTime":104.46143399999947,"instrument":1,"program":118,"isDrum":true},{"pitch":38,"velocity":128,"startTime":104.76912599999947,"endTime":104.92297199999948,"instrument":1,"program":118,"isDrum":true},{"pitch":57,"velocity":128,"startTime":104.76912599999947,"endTime":104.92297199999948,"instrument":1,"program":118,"isDrum":true},{"pitch":36,"velocity":128,"startTime":105.23066399999948,"endTime":105.38450999999948,"instrument":1,"program":118,"isDrum":true},{"pitch":38,"velocity":128,"startTime":105.69220199999948,"endTime":105.84604799999948,"instrument":1,"program":118,"isDrum":true},{"pitch":57,"velocity":128,"startTime":105.69220199999948,"endTime":105.84604799999948,"instrument":1,"program":118,"isDrum":true},{"pitch":38,"velocity":128,"startTime":105.92297099999948,"endTime":106.07681699999948,"instrument":1,"program":118,"isDrum":true},{"pitch":36,"velocity":128,"startTime":106.15373999999947,"endTime":106.30758599999946,"instrument":1,"program":118,"isDrum":true},{"pitch":38,"velocity":128,"startTime":106.15373999999947,"endTime":106.23066299999947,"instrument":1,"program":118,"isDrum":true},{"pitch":38,"velocity":128,"startTime":106.38450899999945,"endTime":106.46143199999945,"instrument":1,"program":118,"isDrum":true},{"pitch":40,"velocity":128,"startTime":106.49989349999944,"endTime":106.57681649999944,"instrument":1,"program":118,"isDrum":true},{"pitch":38,"velocity":128,"startTime":106.61527799999944,"endTime":106.76912399999944,"instrument":1,"program":118,"isDrum":true},{"pitch":57,"velocity":128,"startTime":106.61527799999944,"endTime":106.76912399999944,"instrument":1,"program":118,"isDrum":true},{"pitch":38,"velocity":128,"startTime":106.84604699999943,"endTime":106.92296999999942,"instrument":1,"program":118,"isDrum":true},{"pitch":38,"velocity":128,"startTime":106.96143149999942,"endTime":107.03835449999941,"instrument":1,"program":118,"isDrum":true},{"pitch":36,"velocity":128,"startTime":107.07681599999941,"endTime":107.23066199999941,"instrument":1,"program":118,"isDrum":true},{"pitch":57,"velocity":128,"startTime":107.07681599999941,"endTime":107.23066199999941,"instrument":1,"program":118,"isDrum":true},{"pitch":38,"velocity":128,"startTime":107.53835399999942,"endTime":107.69219999999942,"instrument":1,"program":118,"isDrum":true},{"pitch":57,"velocity":128,"startTime":107.53835399999942,"endTime":107.69219999999942,"instrument":1,"program":118,"isDrum":true},{"pitch":57,"velocity":128,"startTime":107.76912299999941,"endTime":107.9229689999994,"instrument":1,"program":118,"isDrum":true},{"pitch":38,"velocity":128,"startTime":107.76912299999941,"endTime":107.8460459999994,"instrument":1,"program":118,"isDrum":true},{"pitch":38,"velocity":128,"startTime":107.8845074999994,"endTime":107.9614304999994,"instrument":1,"program":118,"isDrum":true},{"pitch":36,"velocity":128,"startTime":107.99989199999939,"endTime":108.1537379999994,"instrument":1,"program":118,"isDrum":true},{"pitch":57,"velocity":128,"startTime":107.99989199999939,"endTime":108.1537379999994,"instrument":1,"program":118,"isDrum":true},{"pitch":57,"velocity":128,"startTime":108.23066099999939,"endTime":108.38450699999939,"instrument":1,"program":118,"isDrum":true},{"pitch":38,"velocity":128,"startTime":108.46142999999938,"endTime":108.61527599999938,"instrument":1,"program":118,"isDrum":true},{"pitch":57,"velocity":128,"startTime":108.46142999999938,"endTime":108.61527599999938,"instrument":1,"program":118,"isDrum":true},{"pitch":57,"velocity":128,"startTime":108.69219899999938,"endTime":108.84604499999938,"instrument":1,"program":118,"isDrum":true},{"pitch":36,"velocity":128,"startTime":108.92296799999937,"endTime":109.07681399999937,"instrument":1,"program":118,"isDrum":true},{"pitch":57,"velocity":128,"startTime":108.92296799999937,"endTime":109.07681399999937,"instrument":1,"program":118,"isDrum":true},{"pitch":38,"velocity":128,"startTime":109.38450599999938,"endTime":109.53835199999938,"instrument":1,"program":118,"isDrum":true},{"pitch":57,"velocity":128,"startTime":109.38450599999938,"endTime":109.53835199999938,"instrument":1,"program":118,"isDrum":true},{"pitch":38,"velocity":128,"startTime":109.61527499999937,"endTime":109.76912099999937,"instrument":1,"program":118,"isDrum":true},{"pitch":57,"velocity":128,"startTime":109.61527499999937,"endTime":109.76912099999937,"instrument":1,"program":118,"isDrum":true},{"pitch":36,"velocity":128,"startTime":109.84604399999937,"endTime":109.99988999999935,"instrument":1,"program":118,"isDrum":true},{"pitch":38,"velocity":128,"startTime":109.84604399999937,"endTime":109.92296699999936,"instrument":1,"program":118,"isDrum":true},{"pitch":57,"velocity":128,"startTime":109.84604399999937,"endTime":109.99988999999935,"instrument":1,"program":118,"isDrum":true},{"pitch":38,"velocity":128,"startTime":110.07681299999935,"endTime":110.15373599999934,"instrument":1,"program":118,"isDrum":true},{"pitch":57,"velocity":128,"startTime":110.07681299999935,"endTime":110.23065899999933,"instrument":1,"program":118,"isDrum":true},{"pitch":40,"velocity":128,"startTime":110.19219749999934,"endTime":110.26912049999933,"instrument":1,"program":118,"isDrum":true},{"pitch":38,"velocity":128,"startTime":110.30758199999933,"endTime":110.46142799999933,"instrument":1,"program":118,"isDrum":true},{"pitch":57,"velocity":128,"startTime":110.30758199999933,"endTime":110.46142799999933,"instrument":1,"program":118,"isDrum":true},{"pitch":38,"velocity":128,"startTime":110.53835099999932,"endTime":110.61527399999932,"instrument":1,"program":118,"isDrum":true},{"pitch":57,"velocity":128,"startTime":110.53835099999932,"endTime":110.69219699999931,"instrument":1,"program":118,"isDrum":true},{"pitch":38,"velocity":128,"startTime":110.65373549999931,"endTime":110.73065849999931,"instrument":1,"program":118,"isDrum":true},{"pitch":36,"velocity":128,"startTime":110.7691199999993,"endTime":110.9229659999993,"instrument":1,"program":118,"isDrum":true},{"pitch":57,"velocity":128,"startTime":110.7691199999993,"endTime":110.9229659999993,"instrument":1,"program":118,"isDrum":true},{"pitch":38,"velocity":128,"startTime":111.23065799999931,"endTime":111.38450399999931,"instrument":1,"program":118,"isDrum":true},{"pitch":57,"velocity":128,"startTime":111.23065799999931,"endTime":111.38450399999931,"instrument":1,"program":118,"isDrum":true},{"pitch":57,"velocity":128,"startTime":111.4614269999993,"endTime":111.61527299999929,"instrument":1,"program":118,"isDrum":true},{"pitch":38,"velocity":128,"startTime":111.4614269999993,"endTime":111.5383499999993,"instrument":1,"program":118,"isDrum":true},{"pitch":38,"velocity":128,"startTime":111.5768114999993,"endTime":111.65373449999929,"instrument":1,"program":118,"isDrum":true},{"pitch":36,"velocity":128,"startTime":111.69219599999929,"endTime":111.84604199999929,"instrument":1,"program":118,"isDrum":true},{"pitch":57,"velocity":128,"startTime":111.69219599999929,"endTime":111.84604199999929,"instrument":1,"program":118,"isDrum":true},{"pitch":38,"velocity":128,"startTime":112.15373399999929,"endTime":112.30757999999929,"instrument":1,"program":118,"isDrum":true},{"pitch":57,"velocity":128,"startTime":112.15373399999929,"endTime":112.30757999999929,"instrument":1,"program":118,"isDrum":true},{"pitch":36,"velocity":128,"startTime":112.6152719999993,"endTime":112.7691179999993,"instrument":1,"program":118,"isDrum":true},{"pitch":57,"velocity":128,"startTime":112.6152719999993,"endTime":112.7691179999993,"instrument":1,"program":118,"isDrum":true},{"pitch":38,"velocity":128,"startTime":113.0768099999993,"endTime":113.2306559999993,"instrument":1,"program":118,"isDrum":true},{"pitch":57,"velocity":128,"startTime":113.0768099999993,"endTime":113.2306559999993,"instrument":1,"program":118,"isDrum":true},{"pitch":38,"velocity":128,"startTime":113.3075789999993,"endTime":113.4614249999993,"instrument":1,"program":118,"isDrum":true},{"pitch":57,"velocity":128,"startTime":113.3075789999993,"endTime":113.4614249999993,"instrument":1,"program":118,"isDrum":true},{"pitch":36,"velocity":128,"startTime":113.53834799999929,"endTime":113.69219399999928,"instrument":1,"program":118,"isDrum":true},{"pitch":38,"velocity":128,"startTime":113.53834799999929,"endTime":113.61527099999928,"instrument":1,"program":118,"isDrum":true},{"pitch":57,"velocity":128,"startTime":113.53834799999929,"endTime":113.69219399999928,"instrument":1,"program":118,"isDrum":true},{"pitch":38,"velocity":128,"startTime":113.76911699999927,"endTime":113.84603999999926,"instrument":1,"program":118,"isDrum":true},{"pitch":57,"velocity":128,"startTime":113.76911699999927,"endTime":113.92296299999926,"instrument":1,"program":118,"isDrum":true},{"pitch":40,"velocity":128,"startTime":113.88450149999926,"endTime":113.96142449999925,"instrument":1,"program":118,"isDrum":true},{"pitch":38,"velocity":128,"startTime":113.99988599999925,"endTime":114.15373199999925,"instrument":1,"program":118,"isDrum":true},{"pitch":57,"velocity":128,"startTime":113.99988599999925,"endTime":114.15373199999925,"instrument":1,"program":118,"isDrum":true},{"pitch":38,"velocity":128,"startTime":114.23065499999925,"endTime":114.30757799999924,"instrument":1,"program":118,"isDrum":true},{"pitch":57,"velocity":128,"startTime":114.23065499999925,"endTime":114.38450099999923,"instrument":1,"program":118,"isDrum":true},{"pitch":38,"velocity":128,"startTime":114.34603949999924,"endTime":114.42296249999923,"instrument":1,"program":118,"isDrum":true},{"pitch":36,"velocity":128,"startTime":114.46142399999923,"endTime":114.61526999999923,"instrument":1,"program":118,"isDrum":true},{"pitch":57,"velocity":128,"startTime":114.46142399999923,"endTime":114.61526999999923,"instrument":1,"program":118,"isDrum":true},{"pitch":38,"velocity":128,"startTime":114.92296199999923,"endTime":115.07680799999923,"instrument":1,"program":118,"isDrum":true},{"pitch":57,"velocity":128,"startTime":114.92296199999923,"endTime":115.07680799999923,"instrument":1,"program":118,"isDrum":true},{"pitch":57,"velocity":128,"startTime":115.15373099999923,"endTime":115.30757699999921,"instrument":1,"program":118,"isDrum":true},{"pitch":38,"velocity":128,"startTime":115.15373099999923,"endTime":115.23065399999922,"instrument":1,"program":118,"isDrum":true},{"pitch":38,"velocity":128,"startTime":115.26911549999922,"endTime":115.34603849999921,"instrument":1,"program":118,"isDrum":true},{"pitch":36,"velocity":128,"startTime":115.3844999999992,"endTime":115.53834599999921,"instrument":1,"program":118,"isDrum":true},{"pitch":57,"velocity":128,"startTime":115.3844999999992,"endTime":115.53834599999921,"instrument":1,"program":118,"isDrum":true},{"pitch":38,"velocity":128,"startTime":115.84603799999921,"endTime":115.99988399999921,"instrument":1,"program":118,"isDrum":true},{"pitch":57,"velocity":128,"startTime":115.84603799999921,"endTime":115.99988399999921,"instrument":1,"program":118,"isDrum":true},{"pitch":36,"velocity":128,"startTime":116.30757599999922,"endTime":116.46142199999922,"instrument":1,"program":118,"isDrum":true},{"pitch":38,"velocity":128,"startTime":116.76911399999922,"endTime":116.92295999999922,"instrument":1,"program":118,"isDrum":true},{"pitch":57,"velocity":128,"startTime":116.76911399999922,"endTime":116.92295999999922,"instrument":1,"program":118,"isDrum":true},{"pitch":38,"velocity":128,"startTime":116.99988299999922,"endTime":117.15372899999922,"instrument":1,"program":118,"isDrum":true},{"pitch":36,"velocity":128,"startTime":117.23065199999921,"endTime":117.3844979999992,"instrument":1,"program":118,"isDrum":true},{"pitch":38,"velocity":128,"startTime":117.23065199999921,"endTime":117.3075749999992,"instrument":1,"program":118,"isDrum":true},{"pitch":38,"velocity":128,"startTime":117.46142099999919,"endTime":117.53834399999919,"instrument":1,"program":118,"isDrum":true},{"pitch":40,"velocity":128,"startTime":117.57680549999918,"endTime":117.65372849999918,"instrument":1,"program":118,"isDrum":true},{"pitch":38,"velocity":128,"startTime":117.69218999999917,"endTime":117.84603599999917,"instrument":1,"program":118,"isDrum":true},{"pitch":57,"velocity":128,"startTime":117.69218999999917,"endTime":117.84603599999917,"instrument":1,"program":118,"isDrum":true},{"pitch":38,"velocity":128,"startTime":117.92295899999917,"endTime":117.99988199999916,"instrument":1,"program":118,"isDrum":true},{"pitch":38,"velocity":128,"startTime":118.03834349999916,"endTime":118.11526649999915,"instrument":1,"program":118,"isDrum":true},{"pitch":57,"velocity":128,"startTime":118.15372799999915,"endTime":118.30757399999915,"instrument":1,"program":118,"isDrum":true},{"pitch":35,"velocity":128,"startTime":118.15372799999915,"endTime":118.30757399999915,"instrument":1,"program":118,"isDrum":true},{"pitch":57,"velocity":128,"startTime":118.38449699999914,"endTime":118.53834299999914,"instrument":1,"program":118,"isDrum":true},{"pitch":35,"velocity":128,"startTime":118.38449699999914,"endTime":118.53834299999914,"instrument":1,"program":118,"isDrum":true},{"pitch":57,"velocity":128,"startTime":118.61526599999914,"endTime":118.76911199999913,"instrument":1,"program":118,"isDrum":true},{"pitch":35,"velocity":128,"startTime":118.61526599999914,"endTime":118.76911199999913,"instrument":1,"program":118,"isDrum":true},{"pitch":38,"velocity":128,"startTime":118.61526599999914,"endTime":118.69218899999913,"instrument":1,"program":118,"isDrum":true},{"pitch":57,"velocity":128,"startTime":118.84603499999912,"endTime":118.92295799999911,"instrument":1,"program":118,"isDrum":true},{"pitch":35,"velocity":128,"startTime":118.84603499999912,"endTime":118.92295799999911,"instrument":1,"program":118,"isDrum":true},{"pitch":38,"velocity":128,"startTime":118.84603499999912,"endTime":118.92295799999911,"instrument":1,"program":118,"isDrum":true},{"pitch":57,"velocity":128,"startTime":118.96141949999911,"endTime":119.0383424999991,"instrument":1,"program":118,"isDrum":true},{"pitch":35,"velocity":128,"startTime":118.96141949999911,"endTime":119.0383424999991,"instrument":1,"program":118,"isDrum":true},{"pitch":38,"velocity":128,"startTime":118.96141949999911,"endTime":119.0383424999991,"instrument":1,"program":118,"isDrum":true},{"pitch":57,"velocity":128,"startTime":119.0768039999991,"endTime":119.23064999999909,"instrument":1,"program":118,"isDrum":true},{"pitch":35,"velocity":128,"startTime":119.0768039999991,"endTime":119.23064999999909,"instrument":1,"program":118,"isDrum":true},{"pitch":38,"velocity":128,"startTime":119.0768039999991,"endTime":119.1537269999991,"instrument":1,"program":118,"isDrum":true},{"pitch":57,"velocity":128,"startTime":119.30757299999908,"endTime":119.38449599999907,"instrument":1,"program":118,"isDrum":true},{"pitch":35,"velocity":128,"startTime":119.30757299999908,"endTime":119.38449599999907,"instrument":1,"program":118,"isDrum":true},{"pitch":38,"velocity":128,"startTime":119.30757299999908,"endTime":119.38449599999907,"instrument":1,"program":118,"isDrum":true},{"pitch":57,"velocity":128,"startTime":119.42295749999907,"endTime":119.49988049999907,"instrument":1,"program":118,"isDrum":true},{"pitch":57,"velocity":128,"startTime":119.42295749999907,"endTime":119.57680349999906,"instrument":1,"program":118,"isDrum":true},{"pitch":35,"velocity":128,"startTime":119.42295749999907,"endTime":119.49988049999907,"instrument":1,"program":118,"isDrum":true},{"pitch":38,"velocity":128,"startTime":119.42295749999907,"endTime":119.49988049999907,"instrument":1,"program":118,"isDrum":true},{"pitch":57,"velocity":128,"startTime":119.53834199999906,"endTime":119.69218799999905,"instrument":1,"program":118,"isDrum":true},{"pitch":35,"velocity":128,"startTime":119.53834199999906,"endTime":119.69218799999905,"instrument":1,"program":118,"isDrum":true},{"pitch":38,"velocity":128,"startTime":119.53834199999906,"endTime":119.61526499999906,"instrument":1,"program":118,"isDrum":true},{"pitch":57,"velocity":128,"startTime":119.99987999999905,"endTime":120.15372599999905,"instrument":1,"program":118,"isDrum":true},{"pitch":35,"velocity":128,"startTime":119.99987999999905,"endTime":120.15372599999905,"instrument":1,"program":118,"isDrum":true},{"pitch":57,"velocity":128,"startTime":120.23064899999905,"endTime":120.38449499999905,"instrument":1,"program":118,"isDrum":true},{"pitch":35,"velocity":128,"startTime":120.23064899999905,"endTime":120.38449499999905,"instrument":1,"program":118,"isDrum":true},{"pitch":57,"velocity":128,"startTime":120.46141799999904,"endTime":120.61526399999903,"instrument":1,"program":118,"isDrum":true},{"pitch":35,"velocity":128,"startTime":120.46141799999904,"endTime":120.61526399999903,"instrument":1,"program":118,"isDrum":true},{"pitch":38,"velocity":128,"startTime":120.46141799999904,"endTime":120.53834099999904,"instrument":1,"program":118,"isDrum":true},{"pitch":57,"velocity":128,"startTime":120.69218699999902,"endTime":120.76910999999902,"instrument":1,"program":118,"isDrum":true},{"pitch":35,"velocity":128,"startTime":120.69218699999902,"endTime":120.76910999999902,"instrument":1,"program":118,"isDrum":true},{"pitch":38,"velocity":128,"startTime":120.69218699999902,"endTime":120.76910999999902,"instrument":1,"program":118,"isDrum":true},{"pitch":57,"velocity":128,"startTime":120.80757149999901,"endTime":120.88449449999901,"instrument":1,"program":118,"isDrum":true},{"pitch":35,"velocity":128,"startTime":120.80757149999901,"endTime":120.88449449999901,"instrument":1,"program":118,"isDrum":true},{"pitch":38,"velocity":128,"startTime":120.80757149999901,"endTime":120.88449449999901,"instrument":1,"program":118,"isDrum":true},{"pitch":57,"velocity":128,"startTime":120.922955999999,"endTime":121.07680199999899,"instrument":1,"program":118,"isDrum":true},{"pitch":35,"velocity":128,"startTime":120.922955999999,"endTime":121.07680199999899,"instrument":1,"program":118,"isDrum":true},{"pitch":38,"velocity":128,"startTime":120.922955999999,"endTime":120.999878999999,"instrument":1,"program":118,"isDrum":true},{"pitch":57,"velocity":128,"startTime":121.15372499999899,"endTime":121.23064799999898,"instrument":1,"program":118,"isDrum":true},{"pitch":35,"velocity":128,"startTime":121.15372499999899,"endTime":121.23064799999898,"instrument":1,"program":118,"isDrum":true},{"pitch":38,"velocity":128,"startTime":121.15372499999899,"endTime":121.23064799999898,"instrument":1,"program":118,"isDrum":true},{"pitch":57,"velocity":128,"startTime":121.26910949999898,"endTime":121.34603249999897,"instrument":1,"program":118,"isDrum":true},{"pitch":57,"velocity":128,"startTime":121.26910949999898,"endTime":121.42295549999896,"instrument":1,"program":118,"isDrum":true},{"pitch":35,"velocity":128,"startTime":121.26910949999898,"endTime":121.34603249999897,"instrument":1,"program":118,"isDrum":true},{"pitch":38,"velocity":128,"startTime":121.26910949999898,"endTime":121.34603249999897,"instrument":1,"program":118,"isDrum":true},{"pitch":57,"velocity":128,"startTime":121.38449399999897,"endTime":121.53833999999895,"instrument":1,"program":118,"isDrum":true},{"pitch":35,"velocity":128,"startTime":121.38449399999897,"endTime":121.53833999999895,"instrument":1,"program":118,"isDrum":true},{"pitch":38,"velocity":128,"startTime":121.38449399999897,"endTime":121.46141699999896,"instrument":1,"program":118,"isDrum":true},{"pitch":57,"velocity":128,"startTime":121.61526299999895,"endTime":121.76910899999895,"instrument":1,"program":118,"isDrum":true},{"pitch":38,"velocity":128,"startTime":121.61526299999895,"endTime":121.76910899999895,"instrument":1,"program":118,"isDrum":true},{"pitch":35,"velocity":128,"startTime":121.61526299999895,"endTime":121.76910899999895,"instrument":1,"program":118,"isDrum":true},{"pitch":57,"velocity":128,"startTime":121.84603199999894,"endTime":121.99987799999894,"instrument":1,"program":118,"isDrum":true},{"pitch":38,"velocity":128,"startTime":121.84603199999894,"endTime":121.99987799999894,"instrument":1,"program":118,"isDrum":true},{"pitch":35,"velocity":128,"startTime":121.84603199999894,"endTime":121.99987799999894,"instrument":1,"program":118,"isDrum":true},{"pitch":35,"velocity":128,"startTime":123.34603049999895,"endTime":123.42295349999894,"instrument":1,"program":118,"isDrum":true},{"pitch":40,"velocity":128,"startTime":123.34603049999895,"endTime":123.42295349999894,"instrument":1,"program":118,"isDrum":true},{"pitch":38,"velocity":128,"startTime":123.34603049999895,"endTime":123.42295349999894,"instrument":1,"program":118,"isDrum":true},{"pitch":35,"velocity":128,"startTime":123.46141499999894,"endTime":123.53833799999893,"instrument":1,"program":118,"isDrum":true},{"pitch":38,"velocity":128,"startTime":123.46141499999894,"endTime":123.53833799999893,"instrument":1,"program":118,"isDrum":true},{"pitch":38,"velocity":128,"startTime":123.57679949999893,"endTime":123.65372249999892,"instrument":1,"program":118,"isDrum":true},{"pitch":57,"velocity":128,"startTime":123.57679949999893,"endTime":123.65372249999892,"instrument":1,"program":118,"isDrum":true},{"pitch":68,"velocity":128,"startTime":8.307684,"endTime":8.769222,"instrument":2,"program":53,"isDrum":false},{"pitch":68,"velocity":128,"startTime":8.769222,"endTime":9.230759999999998,"instrument":2,"program":53,"isDrum":false},{"pitch":66,"velocity":128,"startTime":9.230759999999998,"endTime":9.461528999999999,"instrument":2,"program":53,"isDrum":false},{"pitch":68,"velocity":128,"startTime":9.461528999999999,"endTime":9.923066999999998,"instrument":2,"program":53,"isDrum":false},{"pitch":73,"velocity":128,"startTime":10.153835999999998,"endTime":10.384604999999999,"instrument":2,"program":53,"isDrum":false},{"pitch":75,"velocity":128,"startTime":10.384604999999999,"endTime":10.846142999999998,"instrument":2,"program":53,"isDrum":false},{"pitch":76,"velocity":128,"startTime":10.846142999999998,"endTime":11.307680999999997,"instrument":2,"program":53,"isDrum":false},{"pitch":72,"velocity":128,"startTime":11.538449999999997,"endTime":11.692295999999997,"instrument":2,"program":53,"isDrum":false},{"pitch":72,"velocity":128,"startTime":11.769218999999998,"endTime":12.230756999999997,"instrument":2,"program":53,"isDrum":false},{"pitch":74,"velocity":128,"startTime":12.230756999999997,"endTime":12.692294999999996,"instrument":2,"program":53,"isDrum":false},{"pitch":71,"velocity":128,"startTime":12.692294999999996,"endTime":13.153832999999995,"instrument":2,"program":53,"isDrum":false},{"pitch":69,"velocity":128,"startTime":13.615370999999994,"endTime":14.076908999999993,"instrument":2,"program":53,"isDrum":false},{"pitch":71,"velocity":128,"startTime":14.076908999999993,"endTime":14.538446999999993,"instrument":2,"program":53,"isDrum":false},{"pitch":68,"velocity":128,"startTime":14.538446999999993,"endTime":14.999984999999992,"instrument":2,"program":53,"isDrum":false},{"pitch":68,"velocity":128,"startTime":15.692291999999993,"endTime":16.153829999999992,"instrument":2,"program":53,"isDrum":false},{"pitch":68,"velocity":128,"startTime":16.153829999999992,"endTime":16.615367999999993,"instrument":2,"program":53,"isDrum":false},{"pitch":66,"velocity":128,"startTime":16.615367999999993,"endTime":16.84613699999999,"instrument":2,"program":53,"isDrum":false},{"pitch":68,"velocity":128,"startTime":16.84613699999999,"endTime":17.307674999999993,"instrument":2,"program":53,"isDrum":false},{"pitch":73,"velocity":128,"startTime":17.53844399999999,"endTime":17.76921299999999,"instrument":2,"program":53,"isDrum":false},{"pitch":75,"velocity":128,"startTime":17.76921299999999,"endTime":18.23075099999999,"instrument":2,"program":53,"isDrum":false},{"pitch":76,"velocity":128,"startTime":18.23075099999999,"endTime":18.69228899999999,"instrument":2,"program":53,"isDrum":false},{"pitch":72,"velocity":128,"startTime":18.92305799999999,"endTime":19.076903999999992,"instrument":2,"program":53,"isDrum":false},{"pitch":72,"velocity":128,"startTime":19.153826999999993,"endTime":19.615364999999994,"instrument":2,"program":53,"isDrum":false},{"pitch":74,"velocity":128,"startTime":19.615364999999994,"endTime":20.076902999999994,"instrument":2,"program":53,"isDrum":false},{"pitch":71,"velocity":128,"startTime":20.076902999999994,"endTime":20.538440999999995,"instrument":2,"program":53,"isDrum":false},{"pitch":69,"velocity":128,"startTime":21.230747999999995,"endTime":21.461516999999994,"instrument":2,"program":53,"isDrum":false},{"pitch":71,"velocity":128,"startTime":21.461516999999994,"endTime":21.692285999999992,"instrument":2,"program":53,"isDrum":false},{"pitch":68,"velocity":128,"startTime":21.92305499999999,"endTime":22.38459299999999,"instrument":2,"program":53,"isDrum":false},{"pitch":68,"velocity":128,"startTime":23.07689999999999,"endTime":23.538437999999992,"instrument":2,"program":53,"isDrum":false},{"pitch":68,"velocity":128,"startTime":23.538437999999992,"endTime":23.999975999999993,"instrument":2,"program":53,"isDrum":false},{"pitch":66,"velocity":128,"startTime":23.999975999999993,"endTime":24.23074499999999,"instrument":2,"program":53,"isDrum":false},{"pitch":68,"velocity":128,"startTime":24.23074499999999,"endTime":24.692282999999993,"instrument":2,"program":53,"isDrum":false},{"pitch":73,"velocity":128,"startTime":24.92305199999999,"endTime":25.15382099999999,"instrument":2,"program":53,"isDrum":false},{"pitch":75,"velocity":128,"startTime":25.15382099999999,"endTime":25.61535899999999,"instrument":2,"program":53,"isDrum":false},{"pitch":76,"velocity":128,"startTime":25.61535899999999,"endTime":25.84612799999999,"instrument":2,"program":53,"isDrum":false},{"pitch":72,"velocity":128,"startTime":26.30766599999999,"endTime":26.461511999999992,"instrument":2,"program":53,"isDrum":false},{"pitch":72,"velocity":128,"startTime":26.538434999999993,"endTime":26.999972999999994,"instrument":2,"program":53,"isDrum":false},{"pitch":74,"velocity":128,"startTime":26.999972999999994,"endTime":27.461510999999994,"instrument":2,"program":53,"isDrum":false},{"pitch":71,"velocity":128,"startTime":27.461510999999994,"endTime":27.923048999999995,"instrument":2,"program":53,"isDrum":false},{"pitch":69,"velocity":128,"startTime":28.615355999999995,"endTime":28.846124999999994,"instrument":2,"program":53,"isDrum":false},{"pitch":71,"velocity":128,"startTime":28.846124999999994,"endTime":29.076893999999992,"instrument":2,"program":53,"isDrum":false},{"pitch":68,"velocity":128,"startTime":29.30766299999999,"endTime":29.53843199999999,"instrument":2,"program":53,"isDrum":false},{"pitch":68,"velocity":128,"startTime":30.461507999999988,"endTime":30.92304599999999,"instrument":2,"program":53,"isDrum":false},{"pitch":68,"velocity":128,"startTime":30.92304599999999,"endTime":31.38458399999999,"instrument":2,"program":53,"isDrum":false},{"pitch":66,"velocity":128,"startTime":31.38458399999999,"endTime":31.61535299999999,"instrument":2,"program":53,"isDrum":false},{"pitch":68,"velocity":128,"startTime":31.61535299999999,"endTime":32.07689099999999,"instrument":2,"program":53,"isDrum":false},{"pitch":73,"velocity":128,"startTime":32.30765999999999,"endTime":32.538428999999994,"instrument":2,"program":53,"isDrum":false},{"pitch":75,"velocity":128,"startTime":32.538428999999994,"endTime":32.99996699999999,"instrument":2,"program":53,"isDrum":false},{"pitch":76,"velocity":128,"startTime":32.99996699999999,"endTime":33.23073599999999,"instrument":2,"program":53,"isDrum":false},{"pitch":72,"velocity":128,"startTime":33.69227399999999,"endTime":33.92304299999999,"instrument":2,"program":53,"isDrum":false},{"pitch":72,"velocity":128,"startTime":33.92304299999999,"endTime":34.38458099999999,"instrument":2,"program":53,"isDrum":false},{"pitch":74,"velocity":128,"startTime":34.38458099999999,"endTime":34.84611899999999,"instrument":2,"program":53,"isDrum":false},{"pitch":71,"velocity":128,"startTime":34.84611899999999,"endTime":35.76919499999999,"instrument":2,"program":53,"isDrum":false},{"pitch":79,"velocity":128,"startTime":35.53842599999999,"endTime":35.76919499999999,"instrument":2,"program":53,"isDrum":false},{"pitch":78,"velocity":128,"startTime":35.76919499999999,"endTime":36.23073299999999,"instrument":2,"program":53,"isDrum":false},{"pitch":76,"velocity":128,"startTime":36.23073299999999,"endTime":36.46150199999999,"instrument":2,"program":53,"isDrum":false},{"pitch":74,"velocity":128,"startTime":36.46150199999999,"endTime":36.69227099999999,"instrument":2,"program":53,"isDrum":false},{"pitch":76,"velocity":128,"startTime":36.69227099999999,"endTime":37.61534699999999,"instrument":2,"program":53,"isDrum":false},{"pitch":79,"velocity":128,"startTime":39.230729999999994,"endTime":39.461498999999996,"instrument":2,"program":53,"isDrum":false},{"pitch":78,"velocity":128,"startTime":39.461498999999996,"endTime":39.923036999999994,"instrument":2,"program":53,"isDrum":false},{"pitch":76,"velocity":128,"startTime":39.923036999999994,"endTime":40.153805999999996,"instrument":2,"program":53,"isDrum":false},{"pitch":74,"velocity":128,"startTime":40.153805999999996,"endTime":40.384575,"instrument":2,"program":53,"isDrum":false},{"pitch":79,"velocity":128,"startTime":40.384575,"endTime":42.23553468749999,"instrument":2,"program":53,"isDrum":false},{"pitch":78,"velocity":128,"startTime":42.230726999999995,"endTime":42.69226499999999,"instrument":2,"program":53,"isDrum":false},{"pitch":79,"velocity":128,"startTime":42.923033999999994,"endTime":43.153802999999996,"instrument":2,"program":53,"isDrum":false},{"pitch":78,"velocity":128,"startTime":43.153802999999996,"endTime":43.615340999999994,"instrument":2,"program":53,"isDrum":false},{"pitch":76,"velocity":128,"startTime":43.615340999999994,"endTime":43.846109999999996,"instrument":2,"program":53,"isDrum":false},{"pitch":74,"velocity":128,"startTime":43.846109999999996,"endTime":44.076879,"instrument":2,"program":53,"isDrum":false},{"pitch":76,"velocity":128,"startTime":44.076879,"endTime":44.999955,"instrument":2,"program":53,"isDrum":false},{"pitch":75,"velocity":128,"startTime":45.230724,"endTime":46.153800000000004,"instrument":2,"program":53,"isDrum":false},{"pitch":73,"velocity":128,"startTime":45.923031,"endTime":46.846107,"instrument":2,"program":53,"isDrum":false},{"pitch":79,"velocity":128,"startTime":46.615338,"endTime":46.846107,"instrument":2,"program":53,"isDrum":false},{"pitch":78,"velocity":128,"startTime":46.846107,"endTime":47.307645,"instrument":2,"program":53,"isDrum":false},{"pitch":76,"velocity":128,"startTime":47.307645,"endTime":47.538414,"instrument":2,"program":53,"isDrum":false},{"pitch":74,"velocity":128,"startTime":47.538414,"endTime":47.769183000000005,"instrument":2,"program":53,"isDrum":false},{"pitch":79,"velocity":128,"startTime":47.769183000000005,"endTime":49.6201426875,"instrument":2,"program":53,"isDrum":false},{"pitch":78,"velocity":128,"startTime":49.615335,"endTime":50.076873,"instrument":2,"program":53,"isDrum":false},{"pitch":79,"velocity":128,"startTime":50.538410999999996,"endTime":50.999948999999994,"instrument":2,"program":53,"isDrum":false},{"pitch":68,"velocity":128,"startTime":59.999939999999995,"endTime":60.46147799999999,"instrument":2,"program":53,"isDrum":false},{"pitch":68,"velocity":128,"startTime":60.46147799999999,"endTime":60.92301599999999,"instrument":2,"program":53,"isDrum":false},{"pitch":66,"velocity":128,"startTime":60.92301599999999,"endTime":61.15378499999999,"instrument":2,"program":53,"isDrum":false},{"pitch":68,"velocity":128,"startTime":61.15378499999999,"endTime":61.61532299999999,"instrument":2,"program":53,"isDrum":false},{"pitch":73,"velocity":128,"startTime":61.84609199999999,"endTime":62.076860999999994,"instrument":2,"program":53,"isDrum":false},{"pitch":75,"velocity":128,"startTime":62.076860999999994,"endTime":62.53839899999999,"instrument":2,"program":53,"isDrum":false},{"pitch":76,"velocity":128,"startTime":62.53839899999999,"endTime":62.99993699999999,"instrument":2,"program":53,"isDrum":false},{"pitch":72,"velocity":128,"startTime":63.23070599999999,"endTime":63.38455199999999,"instrument":2,"program":53,"isDrum":false},{"pitch":72,"velocity":128,"startTime":63.46147499999999,"endTime":63.92301299999999,"instrument":2,"program":53,"isDrum":false},{"pitch":74,"velocity":128,"startTime":63.92301299999999,"endTime":64.38455099999999,"instrument":2,"program":53,"isDrum":false},{"pitch":71,"velocity":128,"startTime":64.38455099999999,"endTime":64.84608899999999,"instrument":2,"program":53,"isDrum":false},{"pitch":69,"velocity":128,"startTime":65.307627,"endTime":65.769165,"instrument":2,"program":53,"isDrum":false},{"pitch":71,"velocity":128,"startTime":65.769165,"endTime":66.230703,"instrument":2,"program":53,"isDrum":false},{"pitch":68,"velocity":128,"startTime":66.230703,"endTime":66.69224100000001,"instrument":2,"program":53,"isDrum":false},{"pitch":68,"velocity":128,"startTime":67.38454800000001,"endTime":67.84608600000001,"instrument":2,"program":53,"isDrum":false},{"pitch":68,"velocity":128,"startTime":67.84608600000001,"endTime":68.30762400000002,"instrument":2,"program":53,"isDrum":false},{"pitch":66,"velocity":128,"startTime":68.30762400000002,"endTime":68.53839300000001,"instrument":2,"program":53,"isDrum":false},{"pitch":68,"velocity":128,"startTime":68.53839300000001,"endTime":68.99993100000002,"instrument":2,"program":53,"isDrum":false},{"pitch":73,"velocity":128,"startTime":69.23070000000001,"endTime":69.46146900000001,"instrument":2,"program":53,"isDrum":false},{"pitch":75,"velocity":128,"startTime":69.46146900000001,"endTime":69.92300700000001,"instrument":2,"program":53,"isDrum":false},{"pitch":76,"velocity":128,"startTime":69.92300700000001,"endTime":70.38454500000002,"instrument":2,"program":53,"isDrum":false},{"pitch":72,"velocity":128,"startTime":70.61531400000001,"endTime":70.76916000000001,"instrument":2,"program":53,"isDrum":false},{"pitch":72,"velocity":128,"startTime":70.84608300000001,"endTime":71.30762100000001,"instrument":2,"program":53,"isDrum":false},{"pitch":74,"velocity":128,"startTime":71.30762100000001,"endTime":71.76915900000002,"instrument":2,"program":53,"isDrum":false},{"pitch":71,"velocity":128,"startTime":71.76915900000002,"endTime":72.23069700000002,"instrument":2,"program":53,"isDrum":false},{"pitch":69,"velocity":128,"startTime":72.92300400000002,"endTime":73.15377300000002,"instrument":2,"program":53,"isDrum":false},{"pitch":71,"velocity":128,"startTime":73.15377300000002,"endTime":73.38454200000001,"instrument":2,"program":53,"isDrum":false},{"pitch":68,"velocity":128,"startTime":73.615311,"endTime":74.07684900000001,"instrument":2,"program":53,"isDrum":false},{"pitch":68,"velocity":128,"startTime":74.76915600000001,"endTime":75.23069400000001,"instrument":2,"program":53,"isDrum":false},{"pitch":68,"velocity":128,"startTime":75.23069400000001,"endTime":75.69223200000002,"instrument":2,"program":53,"isDrum":false},{"pitch":66,"velocity":128,"startTime":75.69223200000002,"endTime":75.92300100000001,"instrument":2,"program":53,"isDrum":false},{"pitch":68,"velocity":128,"startTime":75.92300100000001,"endTime":76.38453900000002,"instrument":2,"program":53,"isDrum":false},{"pitch":73,"velocity":128,"startTime":76.61530800000001,"endTime":76.84607700000001,"instrument":2,"program":53,"isDrum":false},{"pitch":75,"velocity":128,"startTime":76.84607700000001,"endTime":77.30761500000001,"instrument":2,"program":53,"isDrum":false},{"pitch":76,"velocity":128,"startTime":77.30761500000001,"endTime":77.53838400000001,"instrument":2,"program":53,"isDrum":false},{"pitch":72,"velocity":128,"startTime":77.99992200000001,"endTime":78.15376800000001,"instrument":2,"program":53,"isDrum":false},{"pitch":72,"velocity":128,"startTime":78.23069100000001,"endTime":78.69222900000001,"instrument":2,"program":53,"isDrum":false},{"pitch":74,"velocity":128,"startTime":78.69222900000001,"endTime":79.15376700000002,"instrument":2,"program":53,"isDrum":false},{"pitch":71,"velocity":128,"startTime":79.15376700000002,"endTime":79.61530500000002,"instrument":2,"program":53,"isDrum":false},{"pitch":69,"velocity":128,"startTime":80.30761200000002,"endTime":80.53838100000002,"instrument":2,"program":53,"isDrum":false},{"pitch":71,"velocity":128,"startTime":80.53838100000002,"endTime":80.76915000000001,"instrument":2,"program":53,"isDrum":false},{"pitch":68,"velocity":128,"startTime":80.999919,"endTime":81.230688,"instrument":2,"program":53,"isDrum":false},{"pitch":68,"velocity":128,"startTime":82.153764,"endTime":82.615302,"instrument":2,"program":53,"isDrum":false},{"pitch":68,"velocity":128,"startTime":82.615302,"endTime":83.07684,"instrument":2,"program":53,"isDrum":false},{"pitch":66,"velocity":128,"startTime":83.07684,"endTime":83.307609,"instrument":2,"program":53,"isDrum":false},{"pitch":68,"velocity":128,"startTime":83.307609,"endTime":83.769147,"instrument":2,"program":53,"isDrum":false},{"pitch":73,"velocity":128,"startTime":83.999916,"endTime":84.230685,"instrument":2,"program":53,"isDrum":false},{"pitch":75,"velocity":128,"startTime":84.230685,"endTime":84.692223,"instrument":2,"program":53,"isDrum":false},{"pitch":76,"velocity":128,"startTime":84.692223,"endTime":84.922992,"instrument":2,"program":53,"isDrum":false},{"pitch":72,"velocity":128,"startTime":85.38453,"endTime":85.615299,"instrument":2,"program":53,"isDrum":false},{"pitch":72,"velocity":128,"startTime":85.615299,"endTime":86.076837,"instrument":2,"program":53,"isDrum":false},{"pitch":74,"velocity":128,"startTime":86.076837,"endTime":86.538375,"instrument":2,"program":53,"isDrum":false},{"pitch":71,"velocity":128,"startTime":86.538375,"endTime":87.461451,"instrument":2,"program":53,"isDrum":false},{"pitch":79,"velocity":128,"startTime":87.230682,"endTime":87.461451,"instrument":2,"program":53,"isDrum":false},{"pitch":78,"velocity":128,"startTime":87.461451,"endTime":87.922989,"instrument":2,"program":53,"isDrum":false},{"pitch":76,"velocity":128,"startTime":87.922989,"endTime":88.153758,"instrument":2,"program":53,"isDrum":false},{"pitch":74,"velocity":128,"startTime":88.153758,"endTime":88.38452699999999,"instrument":2,"program":53,"isDrum":false},{"pitch":76,"velocity":128,"startTime":88.38452699999999,"endTime":89.30760299999999,"instrument":2,"program":53,"isDrum":false},{"pitch":79,"velocity":128,"startTime":90.92298599999998,"endTime":91.15375499999998,"instrument":2,"program":53,"isDrum":false},{"pitch":78,"velocity":128,"startTime":91.15375499999998,"endTime":91.61529299999998,"instrument":2,"program":53,"isDrum":false},{"pitch":76,"velocity":128,"startTime":91.61529299999998,"endTime":91.84606199999998,"instrument":2,"program":53,"isDrum":false},{"pitch":74,"velocity":128,"startTime":91.84606199999998,"endTime":92.07683099999997,"instrument":2,"program":53,"isDrum":false},{"pitch":79,"velocity":128,"startTime":92.07683099999997,"endTime":93.92779068749998,"instrument":2,"program":53,"isDrum":false},{"pitch":78,"velocity":128,"startTime":93.92298299999997,"endTime":94.38452099999998,"instrument":2,"program":53,"isDrum":false},{"pitch":79,"velocity":128,"startTime":94.61528999999997,"endTime":94.84605899999997,"instrument":2,"program":53,"isDrum":false},{"pitch":78,"velocity":128,"startTime":94.84605899999997,"endTime":95.30759699999997,"instrument":2,"program":53,"isDrum":false},{"pitch":76,"velocity":128,"startTime":95.30759699999997,"endTime":95.53836599999997,"instrument":2,"program":53,"isDrum":false},{"pitch":74,"velocity":128,"startTime":95.53836599999997,"endTime":95.76913499999996,"instrument":2,"program":53,"isDrum":false},{"pitch":76,"velocity":128,"startTime":95.76913499999996,"endTime":96.69221099999996,"instrument":2,"program":53,"isDrum":false},{"pitch":75,"velocity":128,"startTime":96.92297999999995,"endTime":97.84605599999995,"instrument":2,"program":53,"isDrum":false},{"pitch":73,"velocity":128,"startTime":97.61528699999995,"endTime":98.53836299999995,"instrument":2,"program":53,"isDrum":false},{"pitch":79,"velocity":128,"startTime":98.30759399999995,"endTime":98.53836299999995,"instrument":2,"program":53,"isDrum":false},{"pitch":78,"velocity":128,"startTime":98.53836299999995,"endTime":98.99990099999995,"instrument":2,"program":53,"isDrum":false},{"pitch":76,"velocity":128,"startTime":98.99990099999995,"endTime":99.23066999999995,"instrument":2,"program":53,"isDrum":false},{"pitch":74,"velocity":128,"startTime":99.23066999999995,"endTime":99.46143899999994,"instrument":2,"program":53,"isDrum":false},{"pitch":79,"velocity":128,"startTime":99.46143899999994,"endTime":101.31239868749995,"instrument":2,"program":53,"isDrum":false},{"pitch":78,"velocity":128,"startTime":101.30759099999995,"endTime":101.76912899999995,"instrument":2,"program":53,"isDrum":false},{"pitch":79,"velocity":128,"startTime":102.23066699999995,"endTime":102.69220499999996,"instrument":2,"program":53,"isDrum":false},{"pitch":76,"velocity":128,"startTime":103.84604999999996,"endTime":104.30758799999997,"instrument":2,"program":53,"isDrum":false},{"pitch":79,"velocity":128,"startTime":104.30758799999997,"endTime":104.76912599999997,"instrument":2,"program":53,"isDrum":false},{"pitch":74,"velocity":128,"startTime":104.76912599999997,"endTime":105.23066399999998,"instrument":2,"program":53,"isDrum":false},{"pitch":76,"velocity":128,"startTime":105.23066399999998,"endTime":105.69220199999998,"instrument":2,"program":53,"isDrum":false},{"pitch":76,"velocity":128,"startTime":105.69220199999998,"endTime":106.15373999999998,"instrument":2,"program":53,"isDrum":false},{"pitch":74,"velocity":128,"startTime":106.15373999999998,"endTime":106.61527799999998,"instrument":2,"program":53,"isDrum":false},{"pitch":76,"velocity":128,"startTime":106.38450899999998,"endTime":106.84604699999997,"instrument":2,"program":53,"isDrum":false},{"pitch":74,"velocity":128,"startTime":106.84604699999997,"endTime":107.07681599999997,"instrument":2,"program":53,"isDrum":false},{"pitch":76,"velocity":128,"startTime":107.53835399999997,"endTime":107.99989199999997,"instrument":2,"program":53,"isDrum":false},{"pitch":79,"velocity":128,"startTime":107.99989199999997,"endTime":108.46142999999998,"instrument":2,"program":53,"isDrum":false},{"pitch":74,"velocity":128,"startTime":108.46142999999998,"endTime":108.92296799999998,"instrument":2,"program":53,"isDrum":false},{"pitch":76,"velocity":128,"startTime":108.92296799999998,"endTime":109.38450599999999,"instrument":2,"program":53,"isDrum":false},{"pitch":76,"velocity":128,"startTime":109.38450599999999,"endTime":109.84604399999999,"instrument":2,"program":53,"isDrum":false},{"pitch":74,"velocity":128,"startTime":109.84604399999999,"endTime":110.30758199999998,"instrument":2,"program":53,"isDrum":false},{"pitch":76,"velocity":128,"startTime":110.07681299999999,"endTime":110.53835099999998,"instrument":2,"program":53,"isDrum":false},{"pitch":74,"velocity":128,"startTime":110.53835099999998,"endTime":110.76911999999997,"instrument":2,"program":53,"isDrum":false},{"pitch":76,"velocity":128,"startTime":111.23065799999998,"endTime":111.69219599999998,"instrument":2,"program":53,"isDrum":false},{"pitch":79,"velocity":128,"startTime":111.69219599999998,"endTime":112.15373399999999,"instrument":2,"program":53,"isDrum":false},{"pitch":74,"velocity":128,"startTime":112.15373399999999,"endTime":112.61527199999999,"instrument":2,"program":53,"isDrum":false},{"pitch":76,"velocity":128,"startTime":112.61527199999999,"endTime":113.07681,"instrument":2,"program":53,"isDrum":false},{"pitch":76,"velocity":128,"startTime":113.07681,"endTime":113.538348,"instrument":2,"program":53,"isDrum":false},{"pitch":74,"velocity":128,"startTime":113.538348,"endTime":113.99988599999999,"instrument":2,"program":53,"isDrum":false},{"pitch":76,"velocity":128,"startTime":113.769117,"endTime":114.23065499999998,"instrument":2,"program":53,"isDrum":false},{"pitch":74,"velocity":128,"startTime":114.23065499999998,"endTime":114.46142399999998,"instrument":2,"program":53,"isDrum":false},{"pitch":76,"velocity":128,"startTime":114.92296199999998,"endTime":115.38449999999999,"instrument":2,"program":53,"isDrum":false},{"pitch":79,"velocity":128,"startTime":115.38449999999999,"endTime":115.846038,"instrument":2,"program":53,"isDrum":false},{"pitch":74,"velocity":128,"startTime":115.846038,"endTime":116.307576,"instrument":2,"program":53,"isDrum":false},{"pitch":76,"velocity":128,"startTime":116.307576,"endTime":116.769114,"instrument":2,"program":53,"isDrum":false},{"pitch":76,"velocity":128,"startTime":116.769114,"endTime":117.230652,"instrument":2,"program":53,"isDrum":false},{"pitch":74,"velocity":128,"startTime":117.230652,"endTime":117.69219,"instrument":2,"program":53,"isDrum":false},{"pitch":76,"velocity":128,"startTime":117.461421,"endTime":117.92295899999999,"instrument":2,"program":53,"isDrum":false},{"pitch":74,"velocity":128,"startTime":117.92295899999999,"endTime":119.77391868749999,"instrument":2,"program":53,"isDrum":false},{"pitch":59,"velocity":128,"startTime":35.076888,"endTime":35.307657,"instrument":3,"program":30,"isDrum":false},{"pitch":54,"velocity":128,"startTime":35.076888,"endTime":35.307657,"instrument":3,"program":30,"isDrum":false},{"pitch":47,"velocity":128,"startTime":35.076888,"endTime":35.307657,"instrument":3,"program":30,"isDrum":false},{"pitch":59,"velocity":128,"startTime":35.307657,"endTime":35.538426,"instrument":3,"program":30,"isDrum":false},{"pitch":54,"velocity":128,"startTime":35.307657,"endTime":35.538426,"instrument":3,"program":30,"isDrum":false},{"pitch":47,"velocity":128,"startTime":35.307657,"endTime":35.538426,"instrument":3,"program":30,"isDrum":false},{"pitch":47,"velocity":128,"startTime":35.538426,"endTime":35.769195,"instrument":3,"program":30,"isDrum":false},{"pitch":54,"velocity":128,"startTime":35.538426,"endTime":35.769195,"instrument":3,"program":30,"isDrum":false},{"pitch":59,"velocity":128,"startTime":35.538426,"endTime":35.769195,"instrument":3,"program":30,"isDrum":false},{"pitch":59,"velocity":128,"startTime":35.769195,"endTime":35.8845795,"instrument":3,"program":30,"isDrum":false},{"pitch":54,"velocity":128,"startTime":35.769195,"endTime":35.8845795,"instrument":3,"program":30,"isDrum":false},{"pitch":47,"velocity":128,"startTime":35.769195,"endTime":35.8845795,"instrument":3,"program":30,"isDrum":false},{"pitch":59,"velocity":128,"startTime":35.8845795,"endTime":35.999964,"instrument":3,"program":30,"isDrum":false},{"pitch":54,"velocity":128,"startTime":35.8845795,"endTime":35.999964,"instrument":3,"program":30,"isDrum":false},{"pitch":47,"velocity":128,"startTime":35.8845795,"endTime":35.999964,"instrument":3,"program":30,"isDrum":false},{"pitch":59,"velocity":128,"startTime":35.999964,"endTime":36.230733,"instrument":3,"program":30,"isDrum":false},{"pitch":54,"velocity":128,"startTime":35.999964,"endTime":36.230733,"instrument":3,"program":30,"isDrum":false},{"pitch":47,"velocity":128,"startTime":35.999964,"endTime":36.230733,"instrument":3,"program":30,"isDrum":false},{"pitch":62,"velocity":128,"startTime":36.230733,"endTime":36.461502,"instrument":3,"program":30,"isDrum":false},{"pitch":57,"velocity":128,"startTime":36.230733,"endTime":36.461502,"instrument":3,"program":30,"isDrum":false},{"pitch":50,"velocity":128,"startTime":36.230733,"endTime":36.461502,"instrument":3,"program":30,"isDrum":false},{"pitch":62,"velocity":128,"startTime":36.461502,"endTime":36.92304,"instrument":3,"program":30,"isDrum":false},{"pitch":57,"velocity":128,"startTime":36.461502,"endTime":36.92304,"instrument":3,"program":30,"isDrum":false},{"pitch":50,"velocity":128,"startTime":36.461502,"endTime":36.92304,"instrument":3,"program":30,"isDrum":false},{"pitch":40,"velocity":128,"startTime":36.92304,"endTime":37.384578,"instrument":3,"program":30,"isDrum":false},{"pitch":47,"velocity":128,"startTime":36.92304,"endTime":37.384578,"instrument":3,"program":30,"isDrum":false},{"pitch":52,"velocity":128,"startTime":36.92304,"endTime":37.384578,"instrument":3,"program":30,"isDrum":false},{"pitch":40,"velocity":128,"startTime":37.384578,"endTime":37.846115999999995,"instrument":3,"program":30,"isDrum":false},{"pitch":47,"velocity":128,"startTime":37.384578,"endTime":37.846115999999995,"instrument":3,"program":30,"isDrum":false},{"pitch":52,"velocity":128,"startTime":37.384578,"endTime":37.846115999999995,"instrument":3,"program":30,"isDrum":false},{"pitch":44,"velocity":128,"startTime":37.846115999999995,"endTime":38.30765399999999,"instrument":3,"program":30,"isDrum":false},{"pitch":51,"velocity":128,"startTime":37.846115999999995,"endTime":38.30765399999999,"instrument":3,"program":30,"isDrum":false},{"pitch":56,"velocity":128,"startTime":37.846115999999995,"endTime":38.30765399999999,"instrument":3,"program":30,"isDrum":false},{"pitch":44,"velocity":128,"startTime":38.30765399999999,"endTime":38.76919199999999,"instrument":3,"program":30,"isDrum":false},{"pitch":51,"velocity":128,"startTime":38.30765399999999,"endTime":38.76919199999999,"instrument":3,"program":30,"isDrum":false},{"pitch":56,"velocity":128,"startTime":38.30765399999999,"endTime":38.76919199999999,"instrument":3,"program":30,"isDrum":false},{"pitch":49,"velocity":128,"startTime":38.76919199999999,"endTime":39.23072999999999,"instrument":3,"program":30,"isDrum":false},{"pitch":56,"velocity":128,"startTime":38.76919199999999,"endTime":39.23072999999999,"instrument":3,"program":30,"isDrum":false},{"pitch":61,"velocity":128,"startTime":38.76919199999999,"endTime":39.23072999999999,"instrument":3,"program":30,"isDrum":false},{"pitch":49,"velocity":128,"startTime":39.23072999999999,"endTime":39.692267999999984,"instrument":3,"program":30,"isDrum":false},{"pitch":56,"velocity":128,"startTime":39.23072999999999,"endTime":39.692267999999984,"instrument":3,"program":30,"isDrum":false},{"pitch":61,"velocity":128,"startTime":39.23072999999999,"endTime":39.692267999999984,"instrument":3,"program":30,"isDrum":false},{"pitch":45,"velocity":128,"startTime":39.692267999999984,"endTime":40.15380599999998,"instrument":3,"program":30,"isDrum":false},{"pitch":52,"velocity":128,"startTime":39.692267999999984,"endTime":40.15380599999998,"instrument":3,"program":30,"isDrum":false},{"pitch":57,"velocity":128,"startTime":39.692267999999984,"endTime":40.15380599999998,"instrument":3,"program":30,"isDrum":false},{"pitch":45,"velocity":128,"startTime":40.15380599999998,"endTime":40.61534399999998,"instrument":3,"program":30,"isDrum":false},{"pitch":52,"velocity":128,"startTime":40.15380599999998,"endTime":40.61534399999998,"instrument":3,"program":30,"isDrum":false},{"pitch":57,"velocity":128,"startTime":40.15380599999998,"endTime":40.61534399999998,"instrument":3,"program":30,"isDrum":false},{"pitch":48,"velocity":128,"startTime":40.61534399999998,"endTime":40.84611299999998,"instrument":3,"program":30,"isDrum":false},{"pitch":55,"velocity":128,"startTime":40.61534399999998,"endTime":40.84611299999998,"instrument":3,"program":30,"isDrum":false},{"pitch":60,"velocity":128,"startTime":40.61534399999998,"endTime":40.84611299999998,"instrument":3,"program":30,"isDrum":false},{"pitch":48,"velocity":128,"startTime":40.84611299999998,"endTime":41.07688199999998,"instrument":3,"program":30,"isDrum":false},{"pitch":55,"velocity":128,"startTime":40.84611299999998,"endTime":41.07688199999998,"instrument":3,"program":30,"isDrum":false},{"pitch":60,"velocity":128,"startTime":40.84611299999998,"endTime":41.07688199999998,"instrument":3,"program":30,"isDrum":false},{"pitch":48,"velocity":128,"startTime":41.07688199999998,"endTime":41.307650999999986,"instrument":3,"program":30,"isDrum":false},{"pitch":55,"velocity":128,"startTime":41.07688199999998,"endTime":41.307650999999986,"instrument":3,"program":30,"isDrum":false},{"pitch":60,"velocity":128,"startTime":41.07688199999998,"endTime":41.307650999999986,"instrument":3,"program":30,"isDrum":false},{"pitch":48,"velocity":128,"startTime":41.307650999999986,"endTime":41.42303549999998,"instrument":3,"program":30,"isDrum":false},{"pitch":55,"velocity":128,"startTime":41.307650999999986,"endTime":41.42303549999998,"instrument":3,"program":30,"isDrum":false},{"pitch":60,"velocity":128,"startTime":41.307650999999986,"endTime":41.42303549999998,"instrument":3,"program":30,"isDrum":false},{"pitch":48,"velocity":128,"startTime":41.42303549999998,"endTime":41.53841999999998,"instrument":3,"program":30,"isDrum":false},{"pitch":55,"velocity":128,"startTime":41.42303549999998,"endTime":41.53841999999998,"instrument":3,"program":30,"isDrum":false},{"pitch":60,"velocity":128,"startTime":41.42303549999998,"endTime":41.53841999999998,"instrument":3,"program":30,"isDrum":false},{"pitch":48,"velocity":128,"startTime":41.53841999999998,"endTime":41.76918899999998,"instrument":3,"program":30,"isDrum":false},{"pitch":55,"velocity":128,"startTime":41.53841999999998,"endTime":41.76918899999998,"instrument":3,"program":30,"isDrum":false},{"pitch":60,"velocity":128,"startTime":41.53841999999998,"endTime":41.76918899999998,"instrument":3,"program":30,"isDrum":false},{"pitch":50,"velocity":128,"startTime":41.76918899999998,"endTime":41.999957999999985,"instrument":3,"program":30,"isDrum":false},{"pitch":57,"velocity":128,"startTime":41.76918899999998,"endTime":41.999957999999985,"instrument":3,"program":30,"isDrum":false},{"pitch":62,"velocity":128,"startTime":41.76918899999998,"endTime":41.999957999999985,"instrument":3,"program":30,"isDrum":false},{"pitch":50,"velocity":128,"startTime":41.999957999999985,"endTime":42.46149599999998,"instrument":3,"program":30,"isDrum":false},{"pitch":57,"velocity":128,"startTime":41.999957999999985,"endTime":42.46149599999998,"instrument":3,"program":30,"isDrum":false},{"pitch":62,"velocity":128,"startTime":41.999957999999985,"endTime":42.46149599999998,"instrument":3,"program":30,"isDrum":false},{"pitch":47,"velocity":128,"startTime":42.46149599999998,"endTime":42.692264999999985,"instrument":3,"program":30,"isDrum":false},{"pitch":54,"velocity":128,"startTime":42.46149599999998,"endTime":42.692264999999985,"instrument":3,"program":30,"isDrum":false},{"pitch":59,"velocity":128,"startTime":42.46149599999998,"endTime":42.692264999999985,"instrument":3,"program":30,"isDrum":false},{"pitch":47,"velocity":128,"startTime":42.692264999999985,"endTime":42.92303399999999,"instrument":3,"program":30,"isDrum":false},{"pitch":59,"velocity":128,"startTime":42.692264999999985,"endTime":42.92303399999999,"instrument":3,"program":30,"isDrum":false},{"pitch":54,"velocity":128,"startTime":42.692264999999985,"endTime":42.92303399999999,"instrument":3,"program":30,"isDrum":false},{"pitch":47,"velocity":128,"startTime":42.92303399999999,"endTime":43.15380299999999,"instrument":3,"program":30,"isDrum":false},{"pitch":59,"velocity":128,"startTime":42.92303399999999,"endTime":43.15380299999999,"instrument":3,"program":30,"isDrum":false},{"pitch":54,"velocity":128,"startTime":42.92303399999999,"endTime":43.15380299999999,"instrument":3,"program":30,"isDrum":false},{"pitch":47,"velocity":128,"startTime":43.15380299999999,"endTime":43.26918749999999,"instrument":3,"program":30,"isDrum":false},{"pitch":54,"velocity":128,"startTime":43.15380299999999,"endTime":43.26918749999999,"instrument":3,"program":30,"isDrum":false},{"pitch":59,"velocity":128,"startTime":43.15380299999999,"endTime":43.26918749999999,"instrument":3,"program":30,"isDrum":false},{"pitch":47,"velocity":128,"startTime":43.26918749999999,"endTime":43.384571999999984,"instrument":3,"program":30,"isDrum":false},{"pitch":59,"velocity":128,"startTime":43.26918749999999,"endTime":43.384571999999984,"instrument":3,"program":30,"isDrum":false},{"pitch":54,"velocity":128,"startTime":43.26918749999999,"endTime":43.384571999999984,"instrument":3,"program":30,"isDrum":false},{"pitch":47,"velocity":128,"startTime":43.384571999999984,"endTime":43.61534099999999,"instrument":3,"program":30,"isDrum":false},{"pitch":59,"velocity":128,"startTime":43.384571999999984,"endTime":43.61534099999999,"instrument":3,"program":30,"isDrum":false},{"pitch":54,"velocity":128,"startTime":43.384571999999984,"endTime":43.61534099999999,"instrument":3,"program":30,"isDrum":false},{"pitch":50,"velocity":128,"startTime":43.61534099999999,"endTime":43.84610999999999,"instrument":3,"program":30,"isDrum":false},{"pitch":57,"velocity":128,"startTime":43.61534099999999,"endTime":43.84610999999999,"instrument":3,"program":30,"isDrum":false},{"pitch":62,"velocity":128,"startTime":43.61534099999999,"endTime":43.84610999999999,"instrument":3,"program":30,"isDrum":false},{"pitch":50,"velocity":128,"startTime":43.84610999999999,"endTime":44.307647999999986,"instrument":3,"program":30,"isDrum":false},{"pitch":57,"velocity":128,"startTime":43.84610999999999,"endTime":44.307647999999986,"instrument":3,"program":30,"isDrum":false},{"pitch":62,"velocity":128,"startTime":43.84610999999999,"endTime":44.307647999999986,"instrument":3,"program":30,"isDrum":false},{"pitch":40,"velocity":128,"startTime":44.307647999999986,"endTime":44.76918599999998,"instrument":3,"program":30,"isDrum":false},{"pitch":47,"velocity":128,"startTime":44.307647999999986,"endTime":44.76918599999998,"instrument":3,"program":30,"isDrum":false},{"pitch":52,"velocity":128,"startTime":44.307647999999986,"endTime":44.76918599999998,"instrument":3,"program":30,"isDrum":false},{"pitch":40,"velocity":128,"startTime":44.76918599999998,"endTime":45.23072399999998,"instrument":3,"program":30,"isDrum":false},{"pitch":47,"velocity":128,"startTime":44.76918599999998,"endTime":45.23072399999998,"instrument":3,"program":30,"isDrum":false},{"pitch":52,"velocity":128,"startTime":44.76918599999998,"endTime":45.23072399999998,"instrument":3,"program":30,"isDrum":false},{"pitch":44,"velocity":128,"startTime":45.23072399999998,"endTime":45.69226199999998,"instrument":3,"program":30,"isDrum":false},{"pitch":51,"velocity":128,"startTime":45.23072399999998,"endTime":45.69226199999998,"instrument":3,"program":30,"isDrum":false},{"pitch":56,"velocity":128,"startTime":45.23072399999998,"endTime":45.69226199999998,"instrument":3,"program":30,"isDrum":false},{"pitch":44,"velocity":128,"startTime":45.69226199999998,"endTime":46.153799999999976,"instrument":3,"program":30,"isDrum":false},{"pitch":51,"velocity":128,"startTime":45.69226199999998,"endTime":46.153799999999976,"instrument":3,"program":30,"isDrum":false},{"pitch":56,"velocity":128,"startTime":45.69226199999998,"endTime":46.153799999999976,"instrument":3,"program":30,"isDrum":false},{"pitch":49,"velocity":128,"startTime":46.153799999999976,"endTime":46.61533799999997,"instrument":3,"program":30,"isDrum":false},{"pitch":56,"velocity":128,"startTime":46.153799999999976,"endTime":46.61533799999997,"instrument":3,"program":30,"isDrum":false},{"pitch":61,"velocity":128,"startTime":46.153799999999976,"endTime":46.61533799999997,"instrument":3,"program":30,"isDrum":false},{"pitch":49,"velocity":128,"startTime":46.61533799999997,"endTime":47.07687599999997,"instrument":3,"program":30,"isDrum":false},{"pitch":56,"velocity":128,"startTime":46.61533799999997,"endTime":47.07687599999997,"instrument":3,"program":30,"isDrum":false},{"pitch":61,"velocity":128,"startTime":46.61533799999997,"endTime":47.07687599999997,"instrument":3,"program":30,"isDrum":false},{"pitch":45,"velocity":128,"startTime":47.07687599999997,"endTime":47.53841399999997,"instrument":3,"program":30,"isDrum":false},{"pitch":52,"velocity":128,"startTime":47.07687599999997,"endTime":47.53841399999997,"instrument":3,"program":30,"isDrum":false},{"pitch":57,"velocity":128,"startTime":47.07687599999997,"endTime":47.53841399999997,"instrument":3,"program":30,"isDrum":false},{"pitch":45,"velocity":128,"startTime":47.53841399999997,"endTime":47.999951999999965,"instrument":3,"program":30,"isDrum":false},{"pitch":52,"velocity":128,"startTime":47.53841399999997,"endTime":47.999951999999965,"instrument":3,"program":30,"isDrum":false},{"pitch":57,"velocity":128,"startTime":47.53841399999997,"endTime":47.999951999999965,"instrument":3,"program":30,"isDrum":false},{"pitch":48,"velocity":128,"startTime":47.999951999999965,"endTime":48.23072099999997,"instrument":3,"program":30,"isDrum":false},{"pitch":55,"velocity":128,"startTime":47.999951999999965,"endTime":48.23072099999997,"instrument":3,"program":30,"isDrum":false},{"pitch":60,"velocity":128,"startTime":47.999951999999965,"endTime":48.23072099999997,"instrument":3,"program":30,"isDrum":false},{"pitch":48,"velocity":128,"startTime":48.23072099999997,"endTime":48.46148999999997,"instrument":3,"program":30,"isDrum":false},{"pitch":55,"velocity":128,"startTime":48.23072099999997,"endTime":48.46148999999997,"instrument":3,"program":30,"isDrum":false},{"pitch":60,"velocity":128,"startTime":48.23072099999997,"endTime":48.46148999999997,"instrument":3,"program":30,"isDrum":false},{"pitch":48,"velocity":128,"startTime":48.46148999999997,"endTime":48.69225899999997,"instrument":3,"program":30,"isDrum":false},{"pitch":55,"velocity":128,"startTime":48.46148999999997,"endTime":48.69225899999997,"instrument":3,"program":30,"isDrum":false},{"pitch":60,"velocity":128,"startTime":48.46148999999997,"endTime":48.69225899999997,"instrument":3,"program":30,"isDrum":false},{"pitch":48,"velocity":128,"startTime":48.69225899999997,"endTime":48.80764349999997,"instrument":3,"program":30,"isDrum":false},{"pitch":55,"velocity":128,"startTime":48.69225899999997,"endTime":48.80764349999997,"instrument":3,"program":30,"isDrum":false},{"pitch":60,"velocity":128,"startTime":48.69225899999997,"endTime":48.80764349999997,"instrument":3,"program":30,"isDrum":false},{"pitch":48,"velocity":128,"startTime":48.80764349999997,"endTime":48.92302799999997,"instrument":3,"program":30,"isDrum":false},{"pitch":55,"velocity":128,"startTime":48.80764349999997,"endTime":48.92302799999997,"instrument":3,"program":30,"isDrum":false},{"pitch":60,"velocity":128,"startTime":48.80764349999997,"endTime":48.92302799999997,"instrument":3,"program":30,"isDrum":false},{"pitch":48,"velocity":128,"startTime":48.92302799999997,"endTime":49.15379699999997,"instrument":3,"program":30,"isDrum":false},{"pitch":55,"velocity":128,"startTime":48.92302799999997,"endTime":49.15379699999997,"instrument":3,"program":30,"isDrum":false},{"pitch":60,"velocity":128,"startTime":48.92302799999997,"endTime":49.15379699999997,"instrument":3,"program":30,"isDrum":false},{"pitch":50,"velocity":128,"startTime":49.15379699999997,"endTime":49.38456599999997,"instrument":3,"program":30,"isDrum":false},{"pitch":57,"velocity":128,"startTime":49.15379699999997,"endTime":49.38456599999997,"instrument":3,"program":30,"isDrum":false},{"pitch":62,"velocity":128,"startTime":49.15379699999997,"endTime":49.38456599999997,"instrument":3,"program":30,"isDrum":false},{"pitch":50,"velocity":128,"startTime":49.38456599999997,"endTime":49.84610399999997,"instrument":3,"program":30,"isDrum":false},{"pitch":57,"velocity":128,"startTime":49.38456599999997,"endTime":49.84610399999997,"instrument":3,"program":30,"isDrum":false},{"pitch":62,"velocity":128,"startTime":49.38456599999997,"endTime":49.84610399999997,"instrument":3,"program":30,"isDrum":false},{"pitch":47,"velocity":128,"startTime":49.84610399999997,"endTime":50.07687299999997,"instrument":3,"program":30,"isDrum":false},{"pitch":54,"velocity":128,"startTime":49.84610399999997,"endTime":50.07687299999997,"instrument":3,"program":30,"isDrum":false},{"pitch":59,"velocity":128,"startTime":49.84610399999997,"endTime":50.07687299999997,"instrument":3,"program":30,"isDrum":false},{"pitch":47,"velocity":128,"startTime":50.07687299999997,"endTime":50.30764199999997,"instrument":3,"program":30,"isDrum":false},{"pitch":59,"velocity":128,"startTime":50.07687299999997,"endTime":50.30764199999997,"instrument":3,"program":30,"isDrum":false},{"pitch":54,"velocity":128,"startTime":50.07687299999997,"endTime":50.30764199999997,"instrument":3,"program":30,"isDrum":false},{"pitch":47,"velocity":128,"startTime":50.30764199999997,"endTime":50.538410999999975,"instrument":3,"program":30,"isDrum":false},{"pitch":59,"velocity":128,"startTime":50.30764199999997,"endTime":50.538410999999975,"instrument":3,"program":30,"isDrum":false},{"pitch":54,"velocity":128,"startTime":50.30764199999997,"endTime":50.538410999999975,"instrument":3,"program":30,"isDrum":false},{"pitch":47,"velocity":128,"startTime":50.538410999999975,"endTime":50.65379549999997,"instrument":3,"program":30,"isDrum":false},{"pitch":54,"velocity":128,"startTime":50.538410999999975,"endTime":50.65379549999997,"instrument":3,"program":30,"isDrum":false},{"pitch":59,"velocity":128,"startTime":50.538410999999975,"endTime":50.65379549999997,"instrument":3,"program":30,"isDrum":false},{"pitch":47,"velocity":128,"startTime":50.65379549999997,"endTime":50.76917999999997,"instrument":3,"program":30,"isDrum":false},{"pitch":59,"velocity":128,"startTime":50.65379549999997,"endTime":50.76917999999997,"instrument":3,"program":30,"isDrum":false},{"pitch":54,"velocity":128,"startTime":50.65379549999997,"endTime":50.76917999999997,"instrument":3,"program":30,"isDrum":false},{"pitch":47,"velocity":128,"startTime":50.76917999999997,"endTime":50.99994899999997,"instrument":3,"program":30,"isDrum":false},{"pitch":59,"velocity":128,"startTime":50.76917999999997,"endTime":50.99994899999997,"instrument":3,"program":30,"isDrum":false},{"pitch":54,"velocity":128,"startTime":50.76917999999997,"endTime":50.99994899999997,"instrument":3,"program":30,"isDrum":false},{"pitch":50,"velocity":128,"startTime":50.99994899999997,"endTime":51.230717999999975,"instrument":3,"program":30,"isDrum":false},{"pitch":57,"velocity":128,"startTime":50.99994899999997,"endTime":51.230717999999975,"instrument":3,"program":30,"isDrum":false},{"pitch":62,"velocity":128,"startTime":50.99994899999997,"endTime":51.230717999999975,"instrument":3,"program":30,"isDrum":false},{"pitch":50,"velocity":128,"startTime":51.230717999999975,"endTime":51.69225599999997,"instrument":3,"program":30,"isDrum":false},{"pitch":57,"velocity":128,"startTime":51.230717999999975,"endTime":51.69225599999997,"instrument":3,"program":30,"isDrum":false},{"pitch":62,"velocity":128,"startTime":51.230717999999975,"endTime":51.69225599999997,"instrument":3,"program":30,"isDrum":false},{"pitch":59,"velocity":128,"startTime":86.76914399999997,"endTime":86.99991299999996,"instrument":3,"program":30,"isDrum":false},{"pitch":54,"velocity":128,"startTime":86.76914399999997,"endTime":86.99991299999996,"instrument":3,"program":30,"isDrum":false},{"pitch":47,"velocity":128,"startTime":86.76914399999997,"endTime":86.99991299999996,"instrument":3,"program":30,"isDrum":false},{"pitch":59,"velocity":128,"startTime":86.99991299999996,"endTime":87.23068199999996,"instrument":3,"program":30,"isDrum":false},{"pitch":54,"velocity":128,"startTime":86.99991299999996,"endTime":87.23068199999996,"instrument":3,"program":30,"isDrum":false},{"pitch":47,"velocity":128,"startTime":86.99991299999996,"endTime":87.23068199999996,"instrument":3,"program":30,"isDrum":false},{"pitch":47,"velocity":128,"startTime":87.23068199999996,"endTime":87.46145099999995,"instrument":3,"program":30,"isDrum":false},{"pitch":54,"velocity":128,"startTime":87.23068199999996,"endTime":87.46145099999995,"instrument":3,"program":30,"isDrum":false},{"pitch":59,"velocity":128,"startTime":87.23068199999996,"endTime":87.46145099999995,"instrument":3,"program":30,"isDrum":false},{"pitch":59,"velocity":128,"startTime":87.46145099999995,"endTime":87.57683549999996,"instrument":3,"program":30,"isDrum":false},{"pitch":54,"velocity":128,"startTime":87.46145099999995,"endTime":87.57683549999996,"instrument":3,"program":30,"isDrum":false},{"pitch":47,"velocity":128,"startTime":87.46145099999995,"endTime":87.57683549999996,"instrument":3,"program":30,"isDrum":false},{"pitch":59,"velocity":128,"startTime":87.57683549999996,"endTime":87.69221999999996,"instrument":3,"program":30,"isDrum":false},{"pitch":54,"velocity":128,"startTime":87.57683549999996,"endTime":87.69221999999996,"instrument":3,"program":30,"isDrum":false},{"pitch":47,"velocity":128,"startTime":87.57683549999996,"endTime":87.69221999999996,"instrument":3,"program":30,"isDrum":false},{"pitch":59,"velocity":128,"startTime":87.69221999999996,"endTime":87.92298899999996,"instrument":3,"program":30,"isDrum":false},{"pitch":54,"velocity":128,"startTime":87.69221999999996,"endTime":87.92298899999996,"instrument":3,"program":30,"isDrum":false},{"pitch":47,"velocity":128,"startTime":87.69221999999996,"endTime":87.92298899999996,"instrument":3,"program":30,"isDrum":false},{"pitch":62,"velocity":128,"startTime":87.92298899999996,"endTime":88.15375799999995,"instrument":3,"program":30,"isDrum":false},{"pitch":57,"velocity":128,"startTime":87.92298899999996,"endTime":88.15375799999995,"instrument":3,"program":30,"isDrum":false},{"pitch":50,"velocity":128,"startTime":87.92298899999996,"endTime":88.15375799999995,"instrument":3,"program":30,"isDrum":false},{"pitch":62,"velocity":128,"startTime":88.15375799999995,"endTime":88.61529599999996,"instrument":3,"program":30,"isDrum":false},{"pitch":57,"velocity":128,"startTime":88.15375799999995,"endTime":88.61529599999996,"instrument":3,"program":30,"isDrum":false},{"pitch":50,"velocity":128,"startTime":88.15375799999995,"endTime":88.61529599999996,"instrument":3,"program":30,"isDrum":false},{"pitch":40,"velocity":128,"startTime":88.61529599999996,"endTime":89.07683399999996,"instrument":3,"program":30,"isDrum":false},{"pitch":47,"velocity":128,"startTime":88.61529599999996,"endTime":89.07683399999996,"instrument":3,"program":30,"isDrum":false},{"pitch":52,"velocity":128,"startTime":88.61529599999996,"endTime":89.07683399999996,"instrument":3,"program":30,"isDrum":false},{"pitch":40,"velocity":128,"startTime":89.07683399999996,"endTime":89.53837199999997,"instrument":3,"program":30,"isDrum":false},{"pitch":47,"velocity":128,"startTime":89.07683399999996,"endTime":89.53837199999997,"instrument":3,"program":30,"isDrum":false},{"pitch":52,"velocity":128,"startTime":89.07683399999996,"endTime":89.53837199999997,"instrument":3,"program":30,"isDrum":false},{"pitch":44,"velocity":128,"startTime":89.53837199999997,"endTime":89.99990999999997,"instrument":3,"program":30,"isDrum":false},{"pitch":51,"velocity":128,"startTime":89.53837199999997,"endTime":89.99990999999997,"instrument":3,"program":30,"isDrum":false},{"pitch":56,"velocity":128,"startTime":89.53837199999997,"endTime":89.99990999999997,"instrument":3,"program":30,"isDrum":false},{"pitch":44,"velocity":128,"startTime":89.99990999999997,"endTime":90.46144799999998,"instrument":3,"program":30,"isDrum":false},{"pitch":51,"velocity":128,"startTime":89.99990999999997,"endTime":90.46144799999998,"instrument":3,"program":30,"isDrum":false},{"pitch":56,"velocity":128,"startTime":89.99990999999997,"endTime":90.46144799999998,"instrument":3,"program":30,"isDrum":false},{"pitch":49,"velocity":128,"startTime":90.46144799999998,"endTime":90.92298599999998,"instrument":3,"program":30,"isDrum":false},{"pitch":56,"velocity":128,"startTime":90.46144799999998,"endTime":90.92298599999998,"instrument":3,"program":30,"isDrum":false},{"pitch":61,"velocity":128,"startTime":90.46144799999998,"endTime":90.92298599999998,"instrument":3,"program":30,"isDrum":false},{"pitch":49,"velocity":128,"startTime":90.92298599999998,"endTime":91.38452399999998,"instrument":3,"program":30,"isDrum":false},{"pitch":56,"velocity":128,"startTime":90.92298599999998,"endTime":91.38452399999998,"instrument":3,"program":30,"isDrum":false},{"pitch":61,"velocity":128,"startTime":90.92298599999998,"endTime":91.38452399999998,"instrument":3,"program":30,"isDrum":false},{"pitch":45,"velocity":128,"startTime":91.38452399999998,"endTime":91.84606199999999,"instrument":3,"program":30,"isDrum":false},{"pitch":52,"velocity":128,"startTime":91.38452399999998,"endTime":91.84606199999999,"instrument":3,"program":30,"isDrum":false},{"pitch":57,"velocity":128,"startTime":91.38452399999998,"endTime":91.84606199999999,"instrument":3,"program":30,"isDrum":false},{"pitch":45,"velocity":128,"startTime":91.84606199999999,"endTime":92.3076,"instrument":3,"program":30,"isDrum":false},{"pitch":52,"velocity":128,"startTime":91.84606199999999,"endTime":92.3076,"instrument":3,"program":30,"isDrum":false},{"pitch":57,"velocity":128,"startTime":91.84606199999999,"endTime":92.3076,"instrument":3,"program":30,"isDrum":false},{"pitch":48,"velocity":128,"startTime":92.3076,"endTime":92.53836899999999,"instrument":3,"program":30,"isDrum":false},{"pitch":55,"velocity":128,"startTime":92.3076,"endTime":92.53836899999999,"instrument":3,"program":30,"isDrum":false},{"pitch":60,"velocity":128,"startTime":92.3076,"endTime":92.53836899999999,"instrument":3,"program":30,"isDrum":false},{"pitch":48,"velocity":128,"startTime":92.53836899999999,"endTime":92.76913799999998,"instrument":3,"program":30,"isDrum":false},{"pitch":55,"velocity":128,"startTime":92.53836899999999,"endTime":92.76913799999998,"instrument":3,"program":30,"isDrum":false},{"pitch":60,"velocity":128,"startTime":92.53836899999999,"endTime":92.76913799999998,"instrument":3,"program":30,"isDrum":false},{"pitch":48,"velocity":128,"startTime":92.76913799999998,"endTime":92.99990699999998,"instrument":3,"program":30,"isDrum":false},{"pitch":55,"velocity":128,"startTime":92.76913799999998,"endTime":92.99990699999998,"instrument":3,"program":30,"isDrum":false},{"pitch":60,"velocity":128,"startTime":92.76913799999998,"endTime":92.99990699999998,"instrument":3,"program":30,"isDrum":false},{"pitch":48,"velocity":128,"startTime":92.99990699999998,"endTime":93.11529149999998,"instrument":3,"program":30,"isDrum":false},{"pitch":55,"velocity":128,"startTime":92.99990699999998,"endTime":93.11529149999998,"instrument":3,"program":30,"isDrum":false},{"pitch":60,"velocity":128,"startTime":92.99990699999998,"endTime":93.11529149999998,"instrument":3,"program":30,"isDrum":false},{"pitch":48,"velocity":128,"startTime":93.11529149999998,"endTime":93.23067599999999,"instrument":3,"program":30,"isDrum":false},{"pitch":55,"velocity":128,"startTime":93.11529149999998,"endTime":93.23067599999999,"instrument":3,"program":30,"isDrum":false},{"pitch":60,"velocity":128,"startTime":93.11529149999998,"endTime":93.23067599999999,"instrument":3,"program":30,"isDrum":false},{"pitch":48,"velocity":128,"startTime":93.23067599999999,"endTime":93.46144499999998,"instrument":3,"program":30,"isDrum":false},{"pitch":55,"velocity":128,"startTime":93.23067599999999,"endTime":93.46144499999998,"instrument":3,"program":30,"isDrum":false},{"pitch":60,"velocity":128,"startTime":93.23067599999999,"endTime":93.46144499999998,"instrument":3,"program":30,"isDrum":false},{"pitch":50,"velocity":128,"startTime":93.46144499999998,"endTime":93.69221399999998,"instrument":3,"program":30,"isDrum":false},{"pitch":57,"velocity":128,"startTime":93.46144499999998,"endTime":93.69221399999998,"instrument":3,"program":30,"isDrum":false},{"pitch":62,"velocity":128,"startTime":93.46144499999998,"endTime":93.69221399999998,"instrument":3,"program":30,"isDrum":false},{"pitch":50,"velocity":128,"startTime":93.69221399999998,"endTime":94.15375199999998,"instrument":3,"program":30,"isDrum":false},{"pitch":57,"velocity":128,"startTime":93.69221399999998,"endTime":94.15375199999998,"instrument":3,"program":30,"isDrum":false},{"pitch":62,"velocity":128,"startTime":93.69221399999998,"endTime":94.15375199999998,"instrument":3,"program":30,"isDrum":false},{"pitch":47,"velocity":128,"startTime":94.15375199999998,"endTime":94.38452099999998,"instrument":3,"program":30,"isDrum":false},{"pitch":54,"velocity":128,"startTime":94.15375199999998,"endTime":94.38452099999998,"instrument":3,"program":30,"isDrum":false},{"pitch":59,"velocity":128,"startTime":94.15375199999998,"endTime":94.38452099999998,"instrument":3,"program":30,"isDrum":false},{"pitch":47,"velocity":128,"startTime":94.38452099999998,"endTime":94.61528999999997,"instrument":3,"program":30,"isDrum":false},{"pitch":59,"velocity":128,"startTime":94.38452099999998,"endTime":94.61528999999997,"instrument":3,"program":30,"isDrum":false},{"pitch":54,"velocity":128,"startTime":94.38452099999998,"endTime":94.61528999999997,"instrument":3,"program":30,"isDrum":false},{"pitch":47,"velocity":128,"startTime":94.61528999999997,"endTime":94.84605899999997,"instrument":3,"program":30,"isDrum":false},{"pitch":59,"velocity":128,"startTime":94.61528999999997,"endTime":94.84605899999997,"instrument":3,"program":30,"isDrum":false},{"pitch":54,"velocity":128,"startTime":94.61528999999997,"endTime":94.84605899999997,"instrument":3,"program":30,"isDrum":false},{"pitch":47,"velocity":128,"startTime":94.84605899999997,"endTime":94.96144349999997,"instrument":3,"program":30,"isDrum":false},{"pitch":54,"velocity":128,"startTime":94.84605899999997,"endTime":94.96144349999997,"instrument":3,"program":30,"isDrum":false},{"pitch":59,"velocity":128,"startTime":94.84605899999997,"endTime":94.96144349999997,"instrument":3,"program":30,"isDrum":false},{"pitch":47,"velocity":128,"startTime":94.96144349999997,"endTime":95.07682799999998,"instrument":3,"program":30,"isDrum":false},{"pitch":59,"velocity":128,"startTime":94.96144349999997,"endTime":95.07682799999998,"instrument":3,"program":30,"isDrum":false},{"pitch":54,"velocity":128,"startTime":94.96144349999997,"endTime":95.07682799999998,"instrument":3,"program":30,"isDrum":false},{"pitch":47,"velocity":128,"startTime":95.07682799999998,"endTime":95.30759699999997,"instrument":3,"program":30,"isDrum":false},{"pitch":59,"velocity":128,"startTime":95.07682799999998,"endTime":95.30759699999997,"instrument":3,"program":30,"isDrum":false},{"pitch":54,"velocity":128,"startTime":95.07682799999998,"endTime":95.30759699999997,"instrument":3,"program":30,"isDrum":false},{"pitch":50,"velocity":128,"startTime":95.30759699999997,"endTime":95.53836599999997,"instrument":3,"program":30,"isDrum":false},{"pitch":57,"velocity":128,"startTime":95.30759699999997,"endTime":95.53836599999997,"instrument":3,"program":30,"isDrum":false},{"pitch":62,"velocity":128,"startTime":95.30759699999997,"endTime":95.53836599999997,"instrument":3,"program":30,"isDrum":false},{"pitch":50,"velocity":128,"startTime":95.53836599999997,"endTime":95.99990399999997,"instrument":3,"program":30,"isDrum":false},{"pitch":57,"velocity":128,"startTime":95.53836599999997,"endTime":95.99990399999997,"instrument":3,"program":30,"isDrum":false},{"pitch":62,"velocity":128,"startTime":95.53836599999997,"endTime":95.99990399999997,"instrument":3,"program":30,"isDrum":false},{"pitch":40,"velocity":128,"startTime":95.99990399999997,"endTime":96.46144199999998,"instrument":3,"program":30,"isDrum":false},{"pitch":47,"velocity":128,"startTime":95.99990399999997,"endTime":96.46144199999998,"instrument":3,"program":30,"isDrum":false},{"pitch":52,"velocity":128,"startTime":95.99990399999997,"endTime":96.46144199999998,"instrument":3,"program":30,"isDrum":false},{"pitch":40,"velocity":128,"startTime":96.46144199999998,"endTime":96.92297999999998,"instrument":3,"program":30,"isDrum":false},{"pitch":47,"velocity":128,"startTime":96.46144199999998,"endTime":96.92297999999998,"instrument":3,"program":30,"isDrum":false},{"pitch":52,"velocity":128,"startTime":96.46144199999998,"endTime":96.92297999999998,"instrument":3,"program":30,"isDrum":false},{"pitch":44,"velocity":128,"startTime":96.92297999999998,"endTime":97.38451799999999,"instrument":3,"program":30,"isDrum":false},{"pitch":51,"velocity":128,"startTime":96.92297999999998,"endTime":97.38451799999999,"instrument":3,"program":30,"isDrum":false},{"pitch":56,"velocity":128,"startTime":96.92297999999998,"endTime":97.38451799999999,"instrument":3,"program":30,"isDrum":false},{"pitch":44,"velocity":128,"startTime":97.38451799999999,"endTime":97.84605599999999,"instrument":3,"program":30,"isDrum":false},{"pitch":51,"velocity":128,"startTime":97.38451799999999,"endTime":97.84605599999999,"instrument":3,"program":30,"isDrum":false},{"pitch":56,"velocity":128,"startTime":97.38451799999999,"endTime":97.84605599999999,"instrument":3,"program":30,"isDrum":false},{"pitch":49,"velocity":128,"startTime":97.84605599999999,"endTime":98.307594,"instrument":3,"program":30,"isDrum":false},{"pitch":56,"velocity":128,"startTime":97.84605599999999,"endTime":98.307594,"instrument":3,"program":30,"isDrum":false},{"pitch":61,"velocity":128,"startTime":97.84605599999999,"endTime":98.307594,"instrument":3,"program":30,"isDrum":false},{"pitch":49,"velocity":128,"startTime":98.307594,"endTime":98.769132,"instrument":3,"program":30,"isDrum":false},{"pitch":56,"velocity":128,"startTime":98.307594,"endTime":98.769132,"instrument":3,"program":30,"isDrum":false},{"pitch":61,"velocity":128,"startTime":98.307594,"endTime":98.769132,"instrument":3,"program":30,"isDrum":false},{"pitch":45,"velocity":128,"startTime":98.769132,"endTime":99.23067,"instrument":3,"program":30,"isDrum":false},{"pitch":52,"velocity":128,"startTime":98.769132,"endTime":99.23067,"instrument":3,"program":30,"isDrum":false},{"pitch":57,"velocity":128,"startTime":98.769132,"endTime":99.23067,"instrument":3,"program":30,"isDrum":false},{"pitch":45,"velocity":128,"startTime":99.23067,"endTime":99.69220800000001,"instrument":3,"program":30,"isDrum":false},{"pitch":52,"velocity":128,"startTime":99.23067,"endTime":99.69220800000001,"instrument":3,"program":30,"isDrum":false},{"pitch":57,"velocity":128,"startTime":99.23067,"endTime":99.69220800000001,"instrument":3,"program":30,"isDrum":false},{"pitch":48,"velocity":128,"startTime":99.69220800000001,"endTime":99.922977,"instrument":3,"program":30,"isDrum":false},{"pitch":55,"velocity":128,"startTime":99.69220800000001,"endTime":99.922977,"instrument":3,"program":30,"isDrum":false},{"pitch":60,"velocity":128,"startTime":99.69220800000001,"endTime":99.922977,"instrument":3,"program":30,"isDrum":false},{"pitch":48,"velocity":128,"startTime":99.922977,"endTime":100.153746,"instrument":3,"program":30,"isDrum":false},{"pitch":55,"velocity":128,"startTime":99.922977,"endTime":100.153746,"instrument":3,"program":30,"isDrum":false},{"pitch":60,"velocity":128,"startTime":99.922977,"endTime":100.153746,"instrument":3,"program":30,"isDrum":false},{"pitch":48,"velocity":128,"startTime":100.153746,"endTime":100.384515,"instrument":3,"program":30,"isDrum":false},{"pitch":55,"velocity":128,"startTime":100.153746,"endTime":100.384515,"instrument":3,"program":30,"isDrum":false},{"pitch":60,"velocity":128,"startTime":100.153746,"endTime":100.384515,"instrument":3,"program":30,"isDrum":false},{"pitch":48,"velocity":128,"startTime":100.384515,"endTime":100.4998995,"instrument":3,"program":30,"isDrum":false},{"pitch":55,"velocity":128,"startTime":100.384515,"endTime":100.4998995,"instrument":3,"program":30,"isDrum":false},{"pitch":60,"velocity":128,"startTime":100.384515,"endTime":100.4998995,"instrument":3,"program":30,"isDrum":false},{"pitch":48,"velocity":128,"startTime":100.4998995,"endTime":100.615284,"instrument":3,"program":30,"isDrum":false},{"pitch":55,"velocity":128,"startTime":100.4998995,"endTime":100.615284,"instrument":3,"program":30,"isDrum":false},{"pitch":60,"velocity":128,"startTime":100.4998995,"endTime":100.615284,"instrument":3,"program":30,"isDrum":false},{"pitch":48,"velocity":128,"startTime":100.615284,"endTime":100.846053,"instrument":3,"program":30,"isDrum":false},{"pitch":55,"velocity":128,"startTime":100.615284,"endTime":100.846053,"instrument":3,"program":30,"isDrum":false},{"pitch":60,"velocity":128,"startTime":100.615284,"endTime":100.846053,"instrument":3,"program":30,"isDrum":false},{"pitch":50,"velocity":128,"startTime":100.846053,"endTime":101.07682199999999,"instrument":3,"program":30,"isDrum":false},{"pitch":57,"velocity":128,"startTime":100.846053,"endTime":101.07682199999999,"instrument":3,"program":30,"isDrum":false},{"pitch":62,"velocity":128,"startTime":100.846053,"endTime":101.07682199999999,"instrument":3,"program":30,"isDrum":false},{"pitch":50,"velocity":128,"startTime":101.07682199999999,"endTime":101.53836,"instrument":3,"program":30,"isDrum":false},{"pitch":57,"velocity":128,"startTime":101.07682199999999,"endTime":101.53836,"instrument":3,"program":30,"isDrum":false},{"pitch":62,"velocity":128,"startTime":101.07682199999999,"endTime":101.53836,"instrument":3,"program":30,"isDrum":false},{"pitch":47,"velocity":128,"startTime":101.53836,"endTime":101.76912899999999,"instrument":3,"program":30,"isDrum":false},{"pitch":54,"velocity":128,"startTime":101.53836,"endTime":101.76912899999999,"instrument":3,"program":30,"isDrum":false},{"pitch":59,"velocity":128,"startTime":101.53836,"endTime":101.76912899999999,"instrument":3,"program":30,"isDrum":false},{"pitch":47,"velocity":128,"startTime":101.76912899999999,"endTime":101.99989799999999,"instrument":3,"program":30,"isDrum":false},{"pitch":59,"velocity":128,"startTime":101.76912899999999,"endTime":101.99989799999999,"instrument":3,"program":30,"isDrum":false},{"pitch":54,"velocity":128,"startTime":101.76912899999999,"endTime":101.99989799999999,"instrument":3,"program":30,"isDrum":false},{"pitch":47,"velocity":128,"startTime":101.99989799999999,"endTime":102.23066699999998,"instrument":3,"program":30,"isDrum":false},{"pitch":59,"velocity":128,"startTime":101.99989799999999,"endTime":102.23066699999998,"instrument":3,"program":30,"isDrum":false},{"pitch":54,"velocity":128,"startTime":101.99989799999999,"endTime":102.23066699999998,"instrument":3,"program":30,"isDrum":false},{"pitch":47,"velocity":128,"startTime":102.23066699999998,"endTime":102.34605149999999,"instrument":3,"program":30,"isDrum":false},{"pitch":54,"velocity":128,"startTime":102.23066699999998,"endTime":102.34605149999999,"instrument":3,"program":30,"isDrum":false},{"pitch":59,"velocity":128,"startTime":102.23066699999998,"endTime":102.34605149999999,"instrument":3,"program":30,"isDrum":false},{"pitch":47,"velocity":128,"startTime":102.34605149999999,"endTime":102.46143599999999,"instrument":3,"program":30,"isDrum":false},{"pitch":59,"velocity":128,"startTime":102.34605149999999,"endTime":102.46143599999999,"instrument":3,"program":30,"isDrum":false},{"pitch":54,"velocity":128,"startTime":102.34605149999999,"endTime":102.46143599999999,"instrument":3,"program":30,"isDrum":false},{"pitch":47,"velocity":128,"startTime":102.46143599999999,"endTime":102.69220499999999,"instrument":3,"program":30,"isDrum":false},{"pitch":59,"velocity":128,"startTime":102.46143599999999,"endTime":102.69220499999999,"instrument":3,"program":30,"isDrum":false},{"pitch":54,"velocity":128,"startTime":102.46143599999999,"endTime":102.69220499999999,"instrument":3,"program":30,"isDrum":false},{"pitch":50,"velocity":128,"startTime":102.69220499999999,"endTime":102.92297399999998,"instrument":3,"program":30,"isDrum":false},{"pitch":57,"velocity":128,"startTime":102.69220499999999,"endTime":102.92297399999998,"instrument":3,"program":30,"isDrum":false},{"pitch":62,"velocity":128,"startTime":102.69220499999999,"endTime":102.92297399999998,"instrument":3,"program":30,"isDrum":false},{"pitch":50,"velocity":128,"startTime":102.92297399999998,"endTime":103.38451199999999,"instrument":3,"program":30,"isDrum":false},{"pitch":57,"velocity":128,"startTime":102.92297399999998,"endTime":103.38451199999999,"instrument":3,"program":30,"isDrum":false},{"pitch":62,"velocity":128,"startTime":102.92297399999998,"endTime":103.38451199999999,"instrument":3,"program":30,"isDrum":false},{"pitch":45,"velocity":128,"startTime":103.38451199999999,"endTime":103.84604999999999,"instrument":3,"program":30,"isDrum":false},{"pitch":57,"velocity":128,"startTime":103.38451199999999,"endTime":103.84604999999999,"instrument":3,"program":30,"isDrum":false},{"pitch":52,"velocity":128,"startTime":103.38451199999999,"endTime":103.84604999999999,"instrument":3,"program":30,"isDrum":false},{"pitch":57,"velocity":128,"startTime":103.84604999999999,"endTime":104.23066499999999,"instrument":3,"program":30,"isDrum":false},{"pitch":52,"velocity":128,"startTime":103.84604999999999,"endTime":104.30758799999998,"instrument":3,"program":30,"isDrum":false},{"pitch":45,"velocity":128,"startTime":103.84604999999999,"endTime":104.30758799999998,"instrument":3,"program":30,"isDrum":false},{"pitch":50,"velocity":128,"startTime":104.07681899999999,"endTime":104.23066499999999,"instrument":3,"program":30,"isDrum":false},{"pitch":62,"velocity":128,"startTime":104.07681899999999,"endTime":104.23066499999999,"instrument":3,"program":30,"isDrum":false},{"pitch":57,"velocity":128,"startTime":104.07681899999999,"endTime":104.30758799999998,"instrument":3,"program":30,"isDrum":false},{"pitch":48,"velocity":128,"startTime":104.30758799999998,"endTime":104.76912599999999,"instrument":3,"program":30,"isDrum":false},{"pitch":55,"velocity":128,"startTime":104.30758799999998,"endTime":104.76912599999999,"instrument":3,"program":30,"isDrum":false},{"pitch":60,"velocity":128,"startTime":104.30758799999998,"endTime":104.76912599999999,"instrument":3,"program":30,"isDrum":false},{"pitch":60,"velocity":128,"startTime":104.76912599999999,"endTime":105.23066399999999,"instrument":3,"program":30,"isDrum":false},{"pitch":55,"velocity":128,"startTime":104.76912599999999,"endTime":105.23066399999999,"instrument":3,"program":30,"isDrum":false},{"pitch":48,"velocity":128,"startTime":104.76912599999999,"endTime":105.23066399999999,"instrument":3,"program":30,"isDrum":false},{"pitch":45,"velocity":128,"startTime":105.23066399999999,"endTime":105.692202,"instrument":3,"program":30,"isDrum":false},{"pitch":52,"velocity":128,"startTime":105.23066399999999,"endTime":105.692202,"instrument":3,"program":30,"isDrum":false},{"pitch":57,"velocity":128,"startTime":105.23066399999999,"endTime":105.692202,"instrument":3,"program":30,"isDrum":false},{"pitch":52,"velocity":128,"startTime":105.692202,"endTime":106.15374,"instrument":3,"program":30,"isDrum":false},{"pitch":45,"velocity":128,"startTime":105.692202,"endTime":106.15374,"instrument":3,"program":30,"isDrum":false},{"pitch":57,"velocity":128,"startTime":105.692202,"endTime":106.15374,"instrument":3,"program":30,"isDrum":false},{"pitch":55,"velocity":128,"startTime":106.15374,"endTime":106.384509,"instrument":3,"program":30,"isDrum":false},{"pitch":50,"velocity":128,"startTime":106.15374,"endTime":106.384509,"instrument":3,"program":30,"isDrum":false},{"pitch":43,"velocity":128,"startTime":106.15374,"endTime":106.384509,"instrument":3,"program":30,"isDrum":false},{"pitch":57,"velocity":128,"startTime":106.384509,"endTime":106.846047,"instrument":3,"program":30,"isDrum":false},{"pitch":52,"velocity":128,"startTime":106.384509,"endTime":106.846047,"instrument":3,"program":30,"isDrum":false},{"pitch":45,"velocity":128,"startTime":106.384509,"endTime":106.846047,"instrument":3,"program":30,"isDrum":false},{"pitch":55,"velocity":128,"startTime":106.846047,"endTime":107.076816,"instrument":3,"program":30,"isDrum":false},{"pitch":50,"velocity":128,"startTime":106.846047,"endTime":107.076816,"instrument":3,"program":30,"isDrum":false},{"pitch":43,"velocity":128,"startTime":106.846047,"endTime":107.076816,"instrument":3,"program":30,"isDrum":false},{"pitch":45,"velocity":128,"startTime":107.076816,"endTime":107.538354,"instrument":3,"program":30,"isDrum":false},{"pitch":57,"velocity":128,"startTime":107.076816,"endTime":107.538354,"instrument":3,"program":30,"isDrum":false},{"pitch":52,"velocity":128,"startTime":107.076816,"endTime":107.538354,"instrument":3,"program":30,"isDrum":false},{"pitch":57,"velocity":128,"startTime":107.538354,"endTime":107.922969,"instrument":3,"program":30,"isDrum":false},{"pitch":52,"velocity":128,"startTime":107.538354,"endTime":107.99989199999999,"instrument":3,"program":30,"isDrum":false},{"pitch":45,"velocity":128,"startTime":107.538354,"endTime":107.99989199999999,"instrument":3,"program":30,"isDrum":false},{"pitch":50,"velocity":128,"startTime":107.769123,"endTime":107.922969,"instrument":3,"program":30,"isDrum":false},{"pitch":62,"velocity":128,"startTime":107.769123,"endTime":107.922969,"instrument":3,"program":30,"isDrum":false},{"pitch":57,"velocity":128,"startTime":107.769123,"endTime":107.99989199999999,"instrument":3,"program":30,"isDrum":false},{"pitch":48,"velocity":128,"startTime":107.99989199999999,"endTime":108.46143,"instrument":3,"program":30,"isDrum":false},{"pitch":55,"velocity":128,"startTime":107.99989199999999,"endTime":108.46143,"instrument":3,"program":30,"isDrum":false},{"pitch":60,"velocity":128,"startTime":107.99989199999999,"endTime":108.46143,"instrument":3,"program":30,"isDrum":false},{"pitch":60,"velocity":128,"startTime":108.46143,"endTime":108.922968,"instrument":3,"program":30,"isDrum":false},{"pitch":55,"velocity":128,"startTime":108.46143,"endTime":108.922968,"instrument":3,"program":30,"isDrum":false},{"pitch":48,"velocity":128,"startTime":108.46143,"endTime":108.922968,"instrument":3,"program":30,"isDrum":false},{"pitch":45,"velocity":128,"startTime":108.922968,"endTime":109.384506,"instrument":3,"program":30,"isDrum":false},{"pitch":52,"velocity":128,"startTime":108.922968,"endTime":109.384506,"instrument":3,"program":30,"isDrum":false},{"pitch":57,"velocity":128,"startTime":108.922968,"endTime":109.384506,"instrument":3,"program":30,"isDrum":false},{"pitch":52,"velocity":128,"startTime":109.384506,"endTime":109.846044,"instrument":3,"program":30,"isDrum":false},{"pitch":45,"velocity":128,"startTime":109.384506,"endTime":109.846044,"instrument":3,"program":30,"isDrum":false},{"pitch":57,"velocity":128,"startTime":109.384506,"endTime":109.846044,"instrument":3,"program":30,"isDrum":false},{"pitch":55,"velocity":128,"startTime":109.846044,"endTime":110.076813,"instrument":3,"program":30,"isDrum":false},{"pitch":50,"velocity":128,"startTime":109.846044,"endTime":110.076813,"instrument":3,"program":30,"isDrum":false},{"pitch":43,"velocity":128,"startTime":109.846044,"endTime":110.076813,"instrument":3,"program":30,"isDrum":false},{"pitch":57,"velocity":128,"startTime":110.076813,"endTime":110.538351,"instrument":3,"program":30,"isDrum":false},{"pitch":52,"velocity":128,"startTime":110.076813,"endTime":110.538351,"instrument":3,"program":30,"isDrum":false},{"pitch":45,"velocity":128,"startTime":110.076813,"endTime":110.538351,"instrument":3,"program":30,"isDrum":false},{"pitch":55,"velocity":128,"startTime":110.538351,"endTime":110.76912,"instrument":3,"program":30,"isDrum":false},{"pitch":50,"velocity":128,"startTime":110.538351,"endTime":110.76912,"instrument":3,"program":30,"isDrum":false},{"pitch":43,"velocity":128,"startTime":110.538351,"endTime":110.76912,"instrument":3,"program":30,"isDrum":false},{"pitch":45,"velocity":128,"startTime":110.76912,"endTime":111.230658,"instrument":3,"program":30,"isDrum":false},{"pitch":57,"velocity":128,"startTime":110.76912,"endTime":111.230658,"instrument":3,"program":30,"isDrum":false},{"pitch":52,"velocity":128,"startTime":110.76912,"endTime":111.230658,"instrument":3,"program":30,"isDrum":false},{"pitch":57,"velocity":128,"startTime":111.230658,"endTime":111.615273,"instrument":3,"program":30,"isDrum":false},{"pitch":52,"velocity":128,"startTime":111.230658,"endTime":111.692196,"instrument":3,"program":30,"isDrum":false},{"pitch":45,"velocity":128,"startTime":111.230658,"endTime":111.692196,"instrument":3,"program":30,"isDrum":false},{"pitch":50,"velocity":128,"startTime":111.461427,"endTime":111.615273,"instrument":3,"program":30,"isDrum":false},{"pitch":62,"velocity":128,"startTime":111.461427,"endTime":111.615273,"instrument":3,"program":30,"isDrum":false},{"pitch":57,"velocity":128,"startTime":111.461427,"endTime":111.692196,"instrument":3,"program":30,"isDrum":false},{"pitch":48,"velocity":128,"startTime":111.692196,"endTime":112.153734,"instrument":3,"program":30,"isDrum":false},{"pitch":55,"velocity":128,"startTime":111.692196,"endTime":112.153734,"instrument":3,"program":30,"isDrum":false},{"pitch":60,"velocity":128,"startTime":111.692196,"endTime":112.153734,"instrument":3,"program":30,"isDrum":false},{"pitch":60,"velocity":128,"startTime":112.153734,"endTime":112.615272,"instrument":3,"program":30,"isDrum":false},{"pitch":55,"velocity":128,"startTime":112.153734,"endTime":112.615272,"instrument":3,"program":30,"isDrum":false},{"pitch":48,"velocity":128,"startTime":112.153734,"endTime":112.615272,"instrument":3,"program":30,"isDrum":false},{"pitch":45,"velocity":128,"startTime":112.615272,"endTime":113.07681000000001,"instrument":3,"program":30,"isDrum":false},{"pitch":52,"velocity":128,"startTime":112.615272,"endTime":113.07681000000001,"instrument":3,"program":30,"isDrum":false},{"pitch":57,"velocity":128,"startTime":112.615272,"endTime":113.07681000000001,"instrument":3,"program":30,"isDrum":false},{"pitch":52,"velocity":128,"startTime":113.07681000000001,"endTime":113.53834800000001,"instrument":3,"program":30,"isDrum":false},{"pitch":45,"velocity":128,"startTime":113.07681000000001,"endTime":113.53834800000001,"instrument":3,"program":30,"isDrum":false},{"pitch":57,"velocity":128,"startTime":113.07681000000001,"endTime":113.53834800000001,"instrument":3,"program":30,"isDrum":false},{"pitch":55,"velocity":128,"startTime":113.53834800000001,"endTime":113.76911700000001,"instrument":3,"program":30,"isDrum":false},{"pitch":50,"velocity":128,"startTime":113.53834800000001,"endTime":113.76911700000001,"instrument":3,"program":30,"isDrum":false},{"pitch":43,"velocity":128,"startTime":113.53834800000001,"endTime":113.76911700000001,"instrument":3,"program":30,"isDrum":false},{"pitch":57,"velocity":128,"startTime":113.76911700000001,"endTime":114.23065500000001,"instrument":3,"program":30,"isDrum":false},{"pitch":52,"velocity":128,"startTime":113.76911700000001,"endTime":114.23065500000001,"instrument":3,"program":30,"isDrum":false},{"pitch":45,"velocity":128,"startTime":113.76911700000001,"endTime":114.23065500000001,"instrument":3,"program":30,"isDrum":false},{"pitch":55,"velocity":128,"startTime":114.23065500000001,"endTime":114.46142400000001,"instrument":3,"program":30,"isDrum":false},{"pitch":50,"velocity":128,"startTime":114.23065500000001,"endTime":114.46142400000001,"instrument":3,"program":30,"isDrum":false},{"pitch":43,"velocity":128,"startTime":114.23065500000001,"endTime":114.46142400000001,"instrument":3,"program":30,"isDrum":false},{"pitch":45,"velocity":128,"startTime":114.46142400000001,"endTime":114.92296200000001,"instrument":3,"program":30,"isDrum":false},{"pitch":57,"velocity":128,"startTime":114.46142400000001,"endTime":114.92296200000001,"instrument":3,"program":30,"isDrum":false},{"pitch":52,"velocity":128,"startTime":114.46142400000001,"endTime":114.92296200000001,"instrument":3,"program":30,"isDrum":false},{"pitch":57,"velocity":128,"startTime":114.92296200000001,"endTime":115.30757700000001,"instrument":3,"program":30,"isDrum":false},{"pitch":52,"velocity":128,"startTime":114.92296200000001,"endTime":115.3845,"instrument":3,"program":30,"isDrum":false},{"pitch":45,"velocity":128,"startTime":114.92296200000001,"endTime":115.3845,"instrument":3,"program":30,"isDrum":false},{"pitch":50,"velocity":128,"startTime":115.15373100000001,"endTime":115.30757700000001,"instrument":3,"program":30,"isDrum":false},{"pitch":62,"velocity":128,"startTime":115.15373100000001,"endTime":115.30757700000001,"instrument":3,"program":30,"isDrum":false},{"pitch":57,"velocity":128,"startTime":115.15373100000001,"endTime":115.3845,"instrument":3,"program":30,"isDrum":false},{"pitch":48,"velocity":128,"startTime":115.3845,"endTime":115.84603800000001,"instrument":3,"program":30,"isDrum":false},{"pitch":55,"velocity":128,"startTime":115.3845,"endTime":115.84603800000001,"instrument":3,"program":30,"isDrum":false},{"pitch":60,"velocity":128,"startTime":115.3845,"endTime":115.84603800000001,"instrument":3,"program":30,"isDrum":false},{"pitch":60,"velocity":128,"startTime":115.84603800000001,"endTime":116.30757600000001,"instrument":3,"program":30,"isDrum":false},{"pitch":55,"velocity":128,"startTime":115.84603800000001,"endTime":116.30757600000001,"instrument":3,"program":30,"isDrum":false},{"pitch":48,"velocity":128,"startTime":115.84603800000001,"endTime":116.30757600000001,"instrument":3,"program":30,"isDrum":false},{"pitch":45,"velocity":128,"startTime":116.30757600000001,"endTime":116.76911400000002,"instrument":3,"program":30,"isDrum":false},{"pitch":52,"velocity":128,"startTime":116.30757600000001,"endTime":116.76911400000002,"instrument":3,"program":30,"isDrum":false},{"pitch":57,"velocity":128,"startTime":116.30757600000001,"endTime":116.76911400000002,"instrument":3,"program":30,"isDrum":false},{"pitch":52,"velocity":128,"startTime":116.76911400000002,"endTime":117.23065200000002,"instrument":3,"program":30,"isDrum":false},{"pitch":45,"velocity":128,"startTime":116.76911400000002,"endTime":117.23065200000002,"instrument":3,"program":30,"isDrum":false},{"pitch":57,"velocity":128,"startTime":116.76911400000002,"endTime":117.23065200000002,"instrument":3,"program":30,"isDrum":false},{"pitch":55,"velocity":128,"startTime":117.23065200000002,"endTime":117.46142100000002,"instrument":3,"program":30,"isDrum":false},{"pitch":50,"velocity":128,"startTime":117.23065200000002,"endTime":117.46142100000002,"instrument":3,"program":30,"isDrum":false},{"pitch":43,"velocity":128,"startTime":117.23065200000002,"endTime":117.46142100000002,"instrument":3,"program":30,"isDrum":false},{"pitch":57,"velocity":128,"startTime":117.46142100000002,"endTime":117.92295900000002,"instrument":3,"program":30,"isDrum":false},{"pitch":52,"velocity":128,"startTime":117.46142100000002,"endTime":117.92295900000002,"instrument":3,"program":30,"isDrum":false},{"pitch":45,"velocity":128,"startTime":117.46142100000002,"endTime":117.92295900000002,"instrument":3,"program":30,"isDrum":false},{"pitch":55,"velocity":128,"startTime":117.92295900000002,"endTime":118.15372800000002,"instrument":3,"program":30,"isDrum":false},{"pitch":50,"velocity":128,"startTime":117.92295900000002,"endTime":118.15372800000002,"instrument":3,"program":30,"isDrum":false},{"pitch":43,"velocity":128,"startTime":117.92295900000002,"endTime":118.15372800000002,"instrument":3,"program":30,"isDrum":false},{"pitch":50,"velocity":128,"startTime":118.15372800000002,"endTime":118.38449700000001,"instrument":3,"program":30,"isDrum":false},{"pitch":57,"velocity":128,"startTime":118.15372800000002,"endTime":118.38449700000001,"instrument":3,"program":30,"isDrum":false},{"pitch":62,"velocity":128,"startTime":118.15372800000002,"endTime":118.38449700000001,"instrument":3,"program":30,"isDrum":false},{"pitch":50,"velocity":128,"startTime":118.38449700000001,"endTime":118.615266,"instrument":3,"program":30,"isDrum":false},{"pitch":57,"velocity":128,"startTime":118.38449700000001,"endTime":118.615266,"instrument":3,"program":30,"isDrum":false},{"pitch":62,"velocity":128,"startTime":118.38449700000001,"endTime":118.615266,"instrument":3,"program":30,"isDrum":false},{"pitch":50,"velocity":128,"startTime":118.615266,"endTime":118.846035,"instrument":3,"program":30,"isDrum":false},{"pitch":57,"velocity":128,"startTime":118.615266,"endTime":118.846035,"instrument":3,"program":30,"isDrum":false},{"pitch":62,"velocity":128,"startTime":118.615266,"endTime":118.846035,"instrument":3,"program":30,"isDrum":false},{"pitch":50,"velocity":128,"startTime":118.846035,"endTime":119.076804,"instrument":3,"program":30,"isDrum":false},{"pitch":57,"velocity":128,"startTime":118.846035,"endTime":119.076804,"instrument":3,"program":30,"isDrum":false},{"pitch":62,"velocity":128,"startTime":118.846035,"endTime":119.076804,"instrument":3,"program":30,"isDrum":false},{"pitch":50,"velocity":128,"startTime":119.076804,"endTime":119.30757299999999,"instrument":3,"program":30,"isDrum":false},{"pitch":57,"velocity":128,"startTime":119.076804,"endTime":119.30757299999999,"instrument":3,"program":30,"isDrum":false},{"pitch":62,"velocity":128,"startTime":119.076804,"endTime":119.30757299999999,"instrument":3,"program":30,"isDrum":false},{"pitch":50,"velocity":128,"startTime":119.30757299999999,"endTime":119.53834199999999,"instrument":3,"program":30,"isDrum":false},{"pitch":62,"velocity":128,"startTime":119.30757299999999,"endTime":119.53834199999999,"instrument":3,"program":30,"isDrum":false},{"pitch":50,"velocity":128,"startTime":119.53834199999999,"endTime":119.76911099999998,"instrument":3,"program":30,"isDrum":false},{"pitch":57,"velocity":128,"startTime":119.53834199999999,"endTime":119.76911099999998,"instrument":3,"program":30,"isDrum":false},{"pitch":62,"velocity":128,"startTime":119.53834199999999,"endTime":119.76911099999998,"instrument":3,"program":30,"isDrum":false},{"pitch":50,"velocity":128,"startTime":119.76911099999998,"endTime":119.99987999999998,"instrument":3,"program":30,"isDrum":false},{"pitch":57,"velocity":128,"startTime":119.76911099999998,"endTime":119.99987999999998,"instrument":3,"program":30,"isDrum":false},{"pitch":62,"velocity":128,"startTime":119.76911099999998,"endTime":119.99987999999998,"instrument":3,"program":30,"isDrum":false},{"pitch":47,"velocity":128,"startTime":119.99987999999998,"endTime":120.23064899999997,"instrument":3,"program":30,"isDrum":false},{"pitch":54,"velocity":128,"startTime":119.99987999999998,"endTime":120.23064899999997,"instrument":3,"program":30,"isDrum":false},{"pitch":59,"velocity":128,"startTime":119.99987999999998,"endTime":120.23064899999997,"instrument":3,"program":30,"isDrum":false},{"pitch":47,"velocity":128,"startTime":120.23064899999997,"endTime":120.46141799999997,"instrument":3,"program":30,"isDrum":false},{"pitch":54,"velocity":128,"startTime":120.23064899999997,"endTime":120.46141799999997,"instrument":3,"program":30,"isDrum":false},{"pitch":59,"velocity":128,"startTime":120.23064899999997,"endTime":120.46141799999997,"instrument":3,"program":30,"isDrum":false},{"pitch":47,"velocity":128,"startTime":120.46141799999997,"endTime":120.69218699999996,"instrument":3,"program":30,"isDrum":false},{"pitch":54,"velocity":128,"startTime":120.46141799999997,"endTime":120.69218699999996,"instrument":3,"program":30,"isDrum":false},{"pitch":59,"velocity":128,"startTime":120.46141799999997,"endTime":120.69218699999996,"instrument":3,"program":30,"isDrum":false},{"pitch":47,"velocity":128,"startTime":120.69218699999996,"endTime":120.92295599999996,"instrument":3,"program":30,"isDrum":false},{"pitch":54,"velocity":128,"startTime":120.69218699999996,"endTime":120.92295599999996,"instrument":3,"program":30,"isDrum":false},{"pitch":59,"velocity":128,"startTime":120.69218699999996,"endTime":120.92295599999996,"instrument":3,"program":30,"isDrum":false},{"pitch":47,"velocity":128,"startTime":120.92295599999996,"endTime":121.15372499999995,"instrument":3,"program":30,"isDrum":false},{"pitch":54,"velocity":128,"startTime":120.92295599999996,"endTime":121.15372499999995,"instrument":3,"program":30,"isDrum":false},{"pitch":59,"velocity":128,"startTime":120.92295599999996,"endTime":121.15372499999995,"instrument":3,"program":30,"isDrum":false},{"pitch":40,"velocity":128,"startTime":121.15372499999995,"endTime":121.46141699999994,"instrument":3,"program":30,"isDrum":false},{"pitch":47,"velocity":128,"startTime":121.15372499999995,"endTime":121.38449399999995,"instrument":3,"program":30,"isDrum":false},{"pitch":52,"velocity":128,"startTime":121.15372499999995,"endTime":121.38449399999995,"instrument":3,"program":30,"isDrum":false},{"pitch":43,"velocity":128,"startTime":121.38449399999995,"endTime":121.69218599999994,"instrument":3,"program":30,"isDrum":false},{"pitch":50,"velocity":128,"startTime":121.38449399999995,"endTime":121.84603199999994,"instrument":3,"program":30,"isDrum":false},{"pitch":55,"velocity":128,"startTime":121.38449399999995,"endTime":121.84603199999994,"instrument":3,"program":30,"isDrum":false},{"pitch":52,"velocity":128,"startTime":121.84603199999994,"endTime":123.08160768749994,"instrument":3,"program":30,"isDrum":false},{"pitch":47,"velocity":128,"startTime":121.84603199999994,"endTime":123.08160768749994,"instrument":3,"program":30,"isDrum":false},{"pitch":40,"velocity":128,"startTime":121.84603199999994,"endTime":123.08160768749994,"instrument":3,"program":30,"isDrum":false},{"pitch":35,"velocity":128,"startTime":35.076888,"endTime":35.307657,"instrument":4,"program":42,"isDrum":false},{"pitch":35,"velocity":128,"startTime":35.307657,"endTime":35.538426,"instrument":4,"program":42,"isDrum":false},{"pitch":35,"velocity":128,"startTime":35.538426,"endTime":35.769195,"instrument":4,"program":42,"isDrum":false},{"pitch":35,"velocity":128,"startTime":35.769195,"endTime":35.8845795,"instrument":4,"program":42,"isDrum":false},{"pitch":35,"velocity":128,"startTime":35.8845795,"endTime":35.999964,"instrument":4,"program":42,"isDrum":false},{"pitch":35,"velocity":128,"startTime":35.999964,"endTime":36.230733,"instrument":4,"program":42,"isDrum":false},{"pitch":38,"velocity":128,"startTime":36.230733,"endTime":36.461502,"instrument":4,"program":42,"isDrum":false},{"pitch":38,"velocity":128,"startTime":36.461502,"endTime":36.92304,"instrument":4,"program":42,"isDrum":false},{"pitch":28,"velocity":128,"startTime":36.92304,"endTime":37.384578,"instrument":4,"program":42,"isDrum":false},{"pitch":28,"velocity":128,"startTime":37.384578,"endTime":37.846115999999995,"instrument":4,"program":42,"isDrum":false},{"pitch":32,"velocity":128,"startTime":37.846115999999995,"endTime":38.30765399999999,"instrument":4,"program":42,"isDrum":false},{"pitch":32,"velocity":128,"startTime":38.30765399999999,"endTime":38.76919199999999,"instrument":4,"program":42,"isDrum":false},{"pitch":37,"velocity":128,"startTime":38.76919199999999,"endTime":39.23072999999999,"instrument":4,"program":42,"isDrum":false},{"pitch":37,"velocity":128,"startTime":39.23072999999999,"endTime":39.692267999999984,"instrument":4,"program":42,"isDrum":false},{"pitch":33,"velocity":128,"startTime":39.692267999999984,"endTime":40.15380599999998,"instrument":4,"program":42,"isDrum":false},{"pitch":33,"velocity":128,"startTime":40.15380599999998,"endTime":40.61534399999998,"instrument":4,"program":42,"isDrum":false},{"pitch":36,"velocity":128,"startTime":40.61534399999998,"endTime":40.84611299999998,"instrument":4,"program":42,"isDrum":false},{"pitch":36,"velocity":128,"startTime":40.84611299999998,"endTime":41.07688199999998,"instrument":4,"program":42,"isDrum":false},{"pitch":36,"velocity":128,"startTime":41.07688199999998,"endTime":41.307650999999986,"instrument":4,"program":42,"isDrum":false},{"pitch":36,"velocity":128,"startTime":41.307650999999986,"endTime":41.384573999999986,"instrument":4,"program":42,"isDrum":false},{"pitch":36,"velocity":128,"startTime":41.42303549999998,"endTime":41.499958499999984,"instrument":4,"program":42,"isDrum":false},{"pitch":36,"velocity":128,"startTime":41.53841999999998,"endTime":41.76918899999998,"instrument":4,"program":42,"isDrum":false},{"pitch":38,"velocity":128,"startTime":41.76918899999998,"endTime":41.999957999999985,"instrument":4,"program":42,"isDrum":false},{"pitch":38,"velocity":128,"startTime":41.999957999999985,"endTime":42.30764999999999,"instrument":4,"program":42,"isDrum":false},{"pitch":36,"velocity":128,"startTime":42.23072699999999,"endTime":42.38457299999999,"instrument":4,"program":42,"isDrum":false},{"pitch":35,"velocity":128,"startTime":42.46149599999999,"endTime":42.69226499999999,"instrument":4,"program":42,"isDrum":false},{"pitch":35,"velocity":128,"startTime":42.69226499999999,"endTime":42.923033999999994,"instrument":4,"program":42,"isDrum":false},{"pitch":35,"velocity":128,"startTime":42.923033999999994,"endTime":43.153802999999996,"instrument":4,"program":42,"isDrum":false},{"pitch":35,"velocity":128,"startTime":43.153802999999996,"endTime":43.230726,"instrument":4,"program":42,"isDrum":false},{"pitch":35,"velocity":128,"startTime":43.269187499999994,"endTime":43.346110499999995,"instrument":4,"program":42,"isDrum":false},{"pitch":35,"velocity":128,"startTime":43.38457199999999,"endTime":43.615340999999994,"instrument":4,"program":42,"isDrum":false},{"pitch":38,"velocity":128,"startTime":43.615340999999994,"endTime":43.846109999999996,"instrument":4,"program":42,"isDrum":false},{"pitch":38,"velocity":128,"startTime":43.846109999999996,"endTime":44.153802,"instrument":4,"program":42,"isDrum":false},{"pitch":36,"velocity":128,"startTime":44.076879,"endTime":44.230725,"instrument":4,"program":42,"isDrum":false},{"pitch":28,"velocity":128,"startTime":44.307648,"endTime":44.769186,"instrument":4,"program":42,"isDrum":false},{"pitch":28,"velocity":128,"startTime":44.769186,"endTime":45.230723999999995,"instrument":4,"program":42,"isDrum":false},{"pitch":32,"velocity":128,"startTime":45.230723999999995,"endTime":45.69226199999999,"instrument":4,"program":42,"isDrum":false},{"pitch":32,"velocity":128,"startTime":45.69226199999999,"endTime":46.15379999999999,"instrument":4,"program":42,"isDrum":false},{"pitch":37,"velocity":128,"startTime":46.15379999999999,"endTime":46.61533799999999,"instrument":4,"program":42,"isDrum":false},{"pitch":37,"velocity":128,"startTime":46.61533799999999,"endTime":47.076875999999984,"instrument":4,"program":42,"isDrum":false},{"pitch":33,"velocity":128,"startTime":47.076875999999984,"endTime":47.53841399999998,"instrument":4,"program":42,"isDrum":false},{"pitch":33,"velocity":128,"startTime":47.53841399999998,"endTime":47.99995199999998,"instrument":4,"program":42,"isDrum":false},{"pitch":36,"velocity":128,"startTime":47.99995199999998,"endTime":48.23072099999998,"instrument":4,"program":42,"isDrum":false},{"pitch":36,"velocity":128,"startTime":48.23072099999998,"endTime":48.46148999999998,"instrument":4,"program":42,"isDrum":false},{"pitch":36,"velocity":128,"startTime":48.46148999999998,"endTime":48.692258999999986,"instrument":4,"program":42,"isDrum":false},{"pitch":36,"velocity":128,"startTime":48.692258999999986,"endTime":48.76918199999999,"instrument":4,"program":42,"isDrum":false},{"pitch":36,"velocity":128,"startTime":48.80764349999998,"endTime":48.884566499999984,"instrument":4,"program":42,"isDrum":false},{"pitch":36,"velocity":128,"startTime":48.92302799999998,"endTime":49.15379699999998,"instrument":4,"program":42,"isDrum":false},{"pitch":38,"velocity":128,"startTime":49.15379699999998,"endTime":49.384565999999985,"instrument":4,"program":42,"isDrum":false},{"pitch":38,"velocity":128,"startTime":49.384565999999985,"endTime":49.69225799999999,"instrument":4,"program":42,"isDrum":false},{"pitch":36,"velocity":128,"startTime":49.61533499999999,"endTime":49.76918099999999,"instrument":4,"program":42,"isDrum":false},{"pitch":35,"velocity":128,"startTime":49.84610399999999,"endTime":50.07687299999999,"instrument":4,"program":42,"isDrum":false},{"pitch":35,"velocity":128,"startTime":50.07687299999999,"endTime":50.307641999999994,"instrument":4,"program":42,"isDrum":false},{"pitch":35,"velocity":128,"startTime":50.307641999999994,"endTime":50.538410999999996,"instrument":4,"program":42,"isDrum":false},{"pitch":35,"velocity":128,"startTime":50.538410999999996,"endTime":50.615334,"instrument":4,"program":42,"isDrum":false},{"pitch":35,"velocity":128,"startTime":50.653795499999994,"endTime":50.730718499999995,"instrument":4,"program":42,"isDrum":false},{"pitch":35,"velocity":128,"startTime":50.76917999999999,"endTime":50.999948999999994,"instrument":4,"program":42,"isDrum":false},{"pitch":38,"velocity":128,"startTime":50.999948999999994,"endTime":51.230717999999996,"instrument":4,"program":42,"isDrum":false},{"pitch":38,"velocity":128,"startTime":51.230717999999996,"endTime":51.53841,"instrument":4,"program":42,"isDrum":false},{"pitch":36,"velocity":128,"startTime":51.461487,"endTime":51.615333,"instrument":4,"program":42,"isDrum":false},{"pitch":28,"velocity":128,"startTime":51.692256,"endTime":51.999948,"instrument":4,"program":42,"isDrum":false},{"pitch":28,"velocity":128,"startTime":52.384563,"endTime":52.692255,"instrument":4,"program":42,"isDrum":false},{"pitch":32,"velocity":128,"startTime":52.615332,"endTime":52.923024000000005,"instrument":4,"program":42,"isDrum":false},{"pitch":32,"velocity":128,"startTime":53.307639,"endTime":53.461485,"instrument":4,"program":42,"isDrum":false},{"pitch":37,"velocity":128,"startTime":53.538408000000004,"endTime":53.84610000000001,"instrument":4,"program":42,"isDrum":false},{"pitch":37,"velocity":128,"startTime":54.230715000000004,"endTime":54.53840700000001,"instrument":4,"program":42,"isDrum":false},{"pitch":33,"velocity":128,"startTime":54.461484000000006,"endTime":54.76917600000001,"instrument":4,"program":42,"isDrum":false},{"pitch":33,"velocity":128,"startTime":55.153791000000005,"endTime":55.30763700000001,"instrument":4,"program":42,"isDrum":false},{"pitch":36,"velocity":128,"startTime":55.38456000000001,"endTime":55.53840600000001,"instrument":4,"program":42,"isDrum":false},{"pitch":36,"velocity":128,"startTime":55.61532900000001,"endTime":55.76917500000001,"instrument":4,"program":42,"isDrum":false},{"pitch":36,"velocity":128,"startTime":55.84609800000001,"endTime":55.99994400000001,"instrument":4,"program":42,"isDrum":false},{"pitch":36,"velocity":128,"startTime":56.076867000000014,"endTime":56.153790000000015,"instrument":4,"program":42,"isDrum":false},{"pitch":36,"velocity":128,"startTime":56.19225150000001,"endTime":56.26917450000001,"instrument":4,"program":42,"isDrum":false},{"pitch":36,"velocity":128,"startTime":56.30763600000001,"endTime":56.46148200000001,"instrument":4,"program":42,"isDrum":false},{"pitch":38,"velocity":128,"startTime":56.53840500000001,"endTime":56.69225100000001,"instrument":4,"program":42,"isDrum":false},{"pitch":38,"velocity":128,"startTime":56.769174000000014,"endTime":56.923020000000015,"instrument":4,"program":42,"isDrum":false},{"pitch":35,"velocity":128,"startTime":57.23071200000002,"endTime":57.38455800000002,"instrument":4,"program":42,"isDrum":false},{"pitch":35,"velocity":128,"startTime":57.46148100000002,"endTime":57.61532700000002,"instrument":4,"program":42,"isDrum":false},{"pitch":35,"velocity":128,"startTime":57.69225000000002,"endTime":57.846096000000024,"instrument":4,"program":42,"isDrum":false},{"pitch":35,"velocity":128,"startTime":57.923019000000025,"endTime":57.999942000000026,"instrument":4,"program":42,"isDrum":false},{"pitch":35,"velocity":128,"startTime":58.03840350000002,"endTime":58.11532650000002,"instrument":4,"program":42,"isDrum":false},{"pitch":35,"velocity":128,"startTime":58.15378800000002,"endTime":58.30763400000002,"instrument":4,"program":42,"isDrum":false},{"pitch":38,"velocity":128,"startTime":58.38455700000002,"endTime":58.538403000000024,"instrument":4,"program":42,"isDrum":false},{"pitch":38,"velocity":128,"startTime":58.615326000000024,"endTime":58.769172000000026,"instrument":4,"program":42,"isDrum":false},{"pitch":28,"velocity":128,"startTime":59.07686400000003,"endTime":59.38455600000003,"instrument":4,"program":42,"isDrum":false},{"pitch":28,"velocity":128,"startTime":59.76917100000003,"endTime":60.07686300000003,"instrument":4,"program":42,"isDrum":false},{"pitch":32,"velocity":128,"startTime":59.99994000000003,"endTime":60.307632000000034,"instrument":4,"program":42,"isDrum":false},{"pitch":32,"velocity":128,"startTime":60.69224700000003,"endTime":60.84609300000003,"instrument":4,"program":42,"isDrum":false},{"pitch":37,"velocity":128,"startTime":60.92301600000003,"endTime":61.230708000000035,"instrument":4,"program":42,"isDrum":false},{"pitch":37,"velocity":128,"startTime":61.61532300000003,"endTime":61.923015000000035,"instrument":4,"program":42,"isDrum":false},{"pitch":33,"velocity":128,"startTime":61.846092000000034,"endTime":62.15378400000004,"instrument":4,"program":42,"isDrum":false},{"pitch":33,"velocity":128,"startTime":62.538399000000034,"endTime":62.692245000000035,"instrument":4,"program":42,"isDrum":false},{"pitch":36,"velocity":128,"startTime":62.769168000000036,"endTime":62.92301400000004,"instrument":4,"program":42,"isDrum":false},{"pitch":36,"velocity":128,"startTime":62.99993700000004,"endTime":63.15378300000004,"instrument":4,"program":42,"isDrum":false},{"pitch":36,"velocity":128,"startTime":63.23070600000004,"endTime":63.38455200000004,"instrument":4,"program":42,"isDrum":false},{"pitch":36,"velocity":128,"startTime":63.46147500000004,"endTime":63.53839800000004,"instrument":4,"program":42,"isDrum":false},{"pitch":36,"velocity":128,"startTime":63.57685950000005,"endTime":63.65378250000004,"instrument":4,"program":42,"isDrum":false},{"pitch":36,"velocity":128,"startTime":63.69224400000004,"endTime":63.84609000000004,"instrument":4,"program":42,"isDrum":false},{"pitch":38,"velocity":128,"startTime":63.92301300000003,"endTime":64.07685900000003,"instrument":4,"program":42,"isDrum":false},{"pitch":38,"velocity":128,"startTime":64.15378200000002,"endTime":64.30762800000002,"instrument":4,"program":42,"isDrum":false},{"pitch":35,"velocity":128,"startTime":64.61532000000003,"endTime":64.76916600000003,"instrument":4,"program":42,"isDrum":false},{"pitch":35,"velocity":128,"startTime":64.84608900000002,"endTime":64.99993500000002,"instrument":4,"program":42,"isDrum":false},{"pitch":35,"velocity":128,"startTime":65.07685800000002,"endTime":65.23070400000002,"instrument":4,"program":42,"isDrum":false},{"pitch":35,"velocity":128,"startTime":65.30762700000001,"endTime":65.38455,"instrument":4,"program":42,"isDrum":false},{"pitch":35,"velocity":128,"startTime":65.4230115,"endTime":65.4999345,"instrument":4,"program":42,"isDrum":false},{"pitch":35,"velocity":128,"startTime":65.53839599999999,"endTime":65.692242,"instrument":4,"program":42,"isDrum":false},{"pitch":38,"velocity":128,"startTime":65.76916499999999,"endTime":65.92301099999999,"instrument":4,"program":42,"isDrum":false},{"pitch":38,"velocity":128,"startTime":65.99993399999998,"endTime":66.15377999999998,"instrument":4,"program":42,"isDrum":false},{"pitch":28,"velocity":128,"startTime":66.46147199999999,"endTime":66.76916399999999,"instrument":4,"program":42,"isDrum":false},{"pitch":28,"velocity":128,"startTime":67.15377899999999,"endTime":67.46147099999997,"instrument":4,"program":42,"isDrum":false},{"pitch":32,"velocity":128,"startTime":67.38454799999998,"endTime":67.69223999999997,"instrument":4,"program":42,"isDrum":false},{"pitch":32,"velocity":128,"startTime":68.07685499999997,"endTime":68.23070099999997,"instrument":4,"program":42,"isDrum":false},{"pitch":37,"velocity":128,"startTime":68.30762399999996,"endTime":68.61531599999996,"instrument":4,"program":42,"isDrum":false},{"pitch":37,"velocity":128,"startTime":68.99993099999996,"endTime":69.30762299999995,"instrument":4,"program":42,"isDrum":false},{"pitch":33,"velocity":128,"startTime":69.23069999999996,"endTime":69.53839199999994,"instrument":4,"program":42,"isDrum":false},{"pitch":33,"velocity":128,"startTime":69.92300699999994,"endTime":70.07685299999994,"instrument":4,"program":42,"isDrum":false},{"pitch":36,"velocity":128,"startTime":70.15377599999994,"endTime":70.30762199999994,"instrument":4,"program":42,"isDrum":false},{"pitch":36,"velocity":128,"startTime":70.38454499999993,"endTime":70.53839099999993,"instrument":4,"program":42,"isDrum":false},{"pitch":36,"velocity":128,"startTime":70.61531399999993,"endTime":70.76915999999993,"instrument":4,"program":42,"isDrum":false},{"pitch":36,"velocity":128,"startTime":70.84608299999992,"endTime":70.92300599999992,"instrument":4,"program":42,"isDrum":false},{"pitch":36,"velocity":128,"startTime":70.96146749999991,"endTime":71.0383904999999,"instrument":4,"program":42,"isDrum":false},{"pitch":36,"velocity":128,"startTime":71.0768519999999,"endTime":71.2306979999999,"instrument":4,"program":42,"isDrum":false},{"pitch":38,"velocity":128,"startTime":71.3076209999999,"endTime":71.4614669999999,"instrument":4,"program":42,"isDrum":false},{"pitch":38,"velocity":128,"startTime":71.5383899999999,"endTime":71.6922359999999,"instrument":4,"program":42,"isDrum":false},{"pitch":35,"velocity":128,"startTime":71.9999279999999,"endTime":72.1537739999999,"instrument":4,"program":42,"isDrum":false},{"pitch":35,"velocity":128,"startTime":72.23069699999989,"endTime":72.3845429999999,"instrument":4,"program":42,"isDrum":false},{"pitch":35,"velocity":128,"startTime":72.46146599999989,"endTime":72.61531199999989,"instrument":4,"program":42,"isDrum":false},{"pitch":35,"velocity":128,"startTime":72.69223499999988,"endTime":72.76915799999988,"instrument":4,"program":42,"isDrum":false},{"pitch":35,"velocity":128,"startTime":72.80761949999987,"endTime":72.88454249999987,"instrument":4,"program":42,"isDrum":false},{"pitch":35,"velocity":128,"startTime":72.92300399999986,"endTime":73.07684999999987,"instrument":4,"program":42,"isDrum":false},{"pitch":38,"velocity":128,"startTime":73.15377299999986,"endTime":73.30761899999986,"instrument":4,"program":42,"isDrum":false},{"pitch":38,"velocity":128,"startTime":73.38454199999985,"endTime":73.53838799999986,"instrument":4,"program":42,"isDrum":false},{"pitch":28,"velocity":128,"startTime":73.84607999999986,"endTime":74.15377199999986,"instrument":4,"program":42,"isDrum":false},{"pitch":28,"velocity":128,"startTime":74.53838699999986,"endTime":74.84607899999985,"instrument":4,"program":42,"isDrum":false},{"pitch":32,"velocity":128,"startTime":74.76915599999985,"endTime":75.07684799999984,"instrument":4,"program":42,"isDrum":false},{"pitch":32,"velocity":128,"startTime":75.46146299999984,"endTime":75.61530899999984,"instrument":4,"program":42,"isDrum":false},{"pitch":37,"velocity":128,"startTime":75.69223199999983,"endTime":75.99992399999984,"instrument":4,"program":42,"isDrum":false},{"pitch":37,"velocity":128,"startTime":76.38453899999983,"endTime":76.69223099999982,"instrument":4,"program":42,"isDrum":false},{"pitch":33,"velocity":128,"startTime":76.61530799999983,"endTime":76.92299999999982,"instrument":4,"program":42,"isDrum":false},{"pitch":33,"velocity":128,"startTime":77.30761499999981,"endTime":77.46146099999982,"instrument":4,"program":42,"isDrum":false},{"pitch":36,"velocity":128,"startTime":77.53838399999981,"endTime":77.69222999999981,"instrument":4,"program":42,"isDrum":false},{"pitch":36,"velocity":128,"startTime":77.7691529999998,"endTime":77.9229989999998,"instrument":4,"program":42,"isDrum":false},{"pitch":36,"velocity":128,"startTime":77.9999219999998,"endTime":78.1537679999998,"instrument":4,"program":42,"isDrum":false},{"pitch":36,"velocity":128,"startTime":78.2306909999998,"endTime":78.30761399999979,"instrument":4,"program":42,"isDrum":false},{"pitch":36,"velocity":128,"startTime":78.34607549999978,"endTime":78.42299849999978,"instrument":4,"program":42,"isDrum":false},{"pitch":36,"velocity":128,"startTime":78.46145999999978,"endTime":78.61530599999978,"instrument":4,"program":42,"isDrum":false},{"pitch":38,"velocity":128,"startTime":78.69222899999977,"endTime":78.84607499999977,"instrument":4,"program":42,"isDrum":false},{"pitch":38,"velocity":128,"startTime":78.92299799999977,"endTime":79.07684399999977,"instrument":4,"program":42,"isDrum":false},{"pitch":35,"velocity":128,"startTime":79.38453599999977,"endTime":79.53838199999977,"instrument":4,"program":42,"isDrum":false},{"pitch":35,"velocity":128,"startTime":79.61530499999976,"endTime":79.76915099999977,"instrument":4,"program":42,"isDrum":false},{"pitch":35,"velocity":128,"startTime":79.84607399999976,"endTime":79.99991999999976,"instrument":4,"program":42,"isDrum":false},{"pitch":35,"velocity":128,"startTime":80.07684299999976,"endTime":80.15376599999975,"instrument":4,"program":42,"isDrum":false},{"pitch":35,"velocity":128,"startTime":80.19222749999975,"endTime":80.26915049999974,"instrument":4,"program":42,"isDrum":false},{"pitch":35,"velocity":128,"startTime":80.30761199999974,"endTime":80.46145799999974,"instrument":4,"program":42,"isDrum":false},{"pitch":38,"velocity":128,"startTime":80.53838099999973,"endTime":80.69222699999973,"instrument":4,"program":42,"isDrum":false},{"pitch":38,"velocity":128,"startTime":80.76914999999973,"endTime":80.92299599999973,"instrument":4,"program":42,"isDrum":false},{"pitch":28,"velocity":128,"startTime":81.23068799999973,"endTime":81.53837999999973,"instrument":4,"program":42,"isDrum":false},{"pitch":28,"velocity":128,"startTime":81.92299499999973,"endTime":82.23068699999972,"instrument":4,"program":42,"isDrum":false},{"pitch":32,"velocity":128,"startTime":82.15376399999973,"endTime":82.46145599999971,"instrument":4,"program":42,"isDrum":false},{"pitch":32,"velocity":128,"startTime":82.84607099999971,"endTime":82.99991699999971,"instrument":4,"program":42,"isDrum":false},{"pitch":37,"velocity":128,"startTime":83.0768399999997,"endTime":83.38453199999971,"instrument":4,"program":42,"isDrum":false},{"pitch":37,"velocity":128,"startTime":83.7691469999997,"endTime":84.0768389999997,"instrument":4,"program":42,"isDrum":false},{"pitch":33,"velocity":128,"startTime":83.9999159999997,"endTime":84.30760799999969,"instrument":4,"program":42,"isDrum":false},{"pitch":33,"velocity":128,"startTime":84.69222299999969,"endTime":84.84606899999969,"instrument":4,"program":42,"isDrum":false},{"pitch":36,"velocity":128,"startTime":84.92299199999968,"endTime":85.07683799999968,"instrument":4,"program":42,"isDrum":false},{"pitch":36,"velocity":128,"startTime":85.15376099999968,"endTime":85.30760699999968,"instrument":4,"program":42,"isDrum":false},{"pitch":36,"velocity":128,"startTime":85.38452999999967,"endTime":85.53837599999967,"instrument":4,"program":42,"isDrum":false},{"pitch":36,"velocity":128,"startTime":85.61529899999967,"endTime":85.69222199999966,"instrument":4,"program":42,"isDrum":false},{"pitch":36,"velocity":128,"startTime":85.73068349999966,"endTime":85.80760649999965,"instrument":4,"program":42,"isDrum":false},{"pitch":36,"velocity":128,"startTime":85.84606799999965,"endTime":85.99991399999965,"instrument":4,"program":42,"isDrum":false},{"pitch":38,"velocity":128,"startTime":86.07683699999964,"endTime":86.23068299999964,"instrument":4,"program":42,"isDrum":false},{"pitch":38,"velocity":128,"startTime":86.30760599999964,"endTime":86.46145199999964,"instrument":4,"program":42,"isDrum":false},{"pitch":35,"velocity":128,"startTime":86.76914399999964,"endTime":86.92298999999964,"instrument":4,"program":42,"isDrum":false},{"pitch":35,"velocity":128,"startTime":86.76914399999964,"endTime":86.99991299999964,"instrument":4,"program":42,"isDrum":false},{"pitch":35,"velocity":128,"startTime":86.99991299999964,"endTime":87.15375899999964,"instrument":4,"program":42,"isDrum":false},{"pitch":35,"velocity":128,"startTime":86.99991299999964,"endTime":87.23068199999963,"instrument":4,"program":42,"isDrum":false},{"pitch":35,"velocity":128,"startTime":87.23068199999963,"endTime":87.38452799999963,"instrument":4,"program":42,"isDrum":false},{"pitch":35,"velocity":128,"startTime":87.23068199999963,"endTime":87.46145099999963,"instrument":4,"program":42,"isDrum":false},{"pitch":35,"velocity":128,"startTime":87.46145099999963,"endTime":87.53837399999962,"instrument":4,"program":42,"isDrum":false},{"pitch":35,"velocity":128,"startTime":87.46145099999963,"endTime":87.57683549999962,"instrument":4,"program":42,"isDrum":false},{"pitch":35,"velocity":128,"startTime":87.57683549999962,"endTime":87.65375849999961,"instrument":4,"program":42,"isDrum":false},{"pitch":35,"velocity":128,"startTime":87.57683549999962,"endTime":87.69221999999961,"instrument":4,"program":42,"isDrum":false},{"pitch":35,"velocity":128,"startTime":87.69221999999961,"endTime":87.84606599999961,"instrument":4,"program":42,"isDrum":false},{"pitch":35,"velocity":128,"startTime":87.69221999999961,"endTime":87.9229889999996,"instrument":4,"program":42,"isDrum":false},{"pitch":38,"velocity":128,"startTime":87.9229889999996,"endTime":88.0768349999996,"instrument":4,"program":42,"isDrum":false},{"pitch":38,"velocity":128,"startTime":87.9229889999996,"endTime":88.1537579999996,"instrument":4,"program":42,"isDrum":false},{"pitch":38,"velocity":128,"startTime":88.1537579999996,"endTime":88.3076039999996,"instrument":4,"program":42,"isDrum":false},{"pitch":38,"velocity":128,"startTime":88.1537579999996,"endTime":88.6152959999996,"instrument":4,"program":42,"isDrum":false},{"pitch":28,"velocity":128,"startTime":88.6152959999996,"endTime":89.07683399999961,"instrument":4,"program":42,"isDrum":false},{"pitch":28,"velocity":128,"startTime":89.07683399999961,"endTime":89.53837199999961,"instrument":4,"program":42,"isDrum":false},{"pitch":32,"velocity":128,"startTime":89.53837199999961,"endTime":89.99990999999962,"instrument":4,"program":42,"isDrum":false},{"pitch":32,"velocity":128,"startTime":89.99990999999962,"endTime":90.46144799999962,"instrument":4,"program":42,"isDrum":false},{"pitch":37,"velocity":128,"startTime":90.46144799999962,"endTime":90.92298599999963,"instrument":4,"program":42,"isDrum":false},{"pitch":37,"velocity":128,"startTime":90.92298599999963,"endTime":91.38452399999963,"instrument":4,"program":42,"isDrum":false},{"pitch":33,"velocity":128,"startTime":91.38452399999963,"endTime":91.84606199999963,"instrument":4,"program":42,"isDrum":false},{"pitch":33,"velocity":128,"startTime":91.84606199999963,"endTime":92.30759999999964,"instrument":4,"program":42,"isDrum":false},{"pitch":36,"velocity":128,"startTime":92.30759999999964,"endTime":92.53836899999963,"instrument":4,"program":42,"isDrum":false},{"pitch":36,"velocity":128,"startTime":92.53836899999963,"endTime":92.76913799999963,"instrument":4,"program":42,"isDrum":false},{"pitch":36,"velocity":128,"startTime":92.76913799999963,"endTime":92.99990699999962,"instrument":4,"program":42,"isDrum":false},{"pitch":36,"velocity":128,"startTime":92.99990699999962,"endTime":93.07682999999962,"instrument":4,"program":42,"isDrum":false},{"pitch":36,"velocity":128,"startTime":93.11529149999961,"endTime":93.19221449999961,"instrument":4,"program":42,"isDrum":false},{"pitch":36,"velocity":128,"startTime":93.2306759999996,"endTime":93.4614449999996,"instrument":4,"program":42,"isDrum":false},{"pitch":38,"velocity":128,"startTime":93.4614449999996,"endTime":93.6922139999996,"instrument":4,"program":42,"isDrum":false},{"pitch":38,"velocity":128,"startTime":93.6922139999996,"endTime":93.99990599999958,"instrument":4,"program":42,"isDrum":false},{"pitch":36,"velocity":128,"startTime":93.92298299999959,"endTime":94.07682899999958,"instrument":4,"program":42,"isDrum":false},{"pitch":35,"velocity":128,"startTime":94.15375199999957,"endTime":94.38452099999957,"instrument":4,"program":42,"isDrum":false},{"pitch":35,"velocity":128,"startTime":94.38452099999957,"endTime":94.61528999999956,"instrument":4,"program":42,"isDrum":false},{"pitch":35,"velocity":128,"startTime":94.61528999999956,"endTime":94.84605899999956,"instrument":4,"program":42,"isDrum":false},{"pitch":35,"velocity":128,"startTime":94.84605899999956,"endTime":94.92298199999955,"instrument":4,"program":42,"isDrum":false},{"pitch":35,"velocity":128,"startTime":94.96144349999955,"endTime":95.03836649999954,"instrument":4,"program":42,"isDrum":false},{"pitch":35,"velocity":128,"startTime":95.07682799999954,"endTime":95.30759699999953,"instrument":4,"program":42,"isDrum":false},{"pitch":38,"velocity":128,"startTime":95.30759699999953,"endTime":95.53836599999953,"instrument":4,"program":42,"isDrum":false},{"pitch":38,"velocity":128,"startTime":95.53836599999953,"endTime":95.84605799999952,"instrument":4,"program":42,"isDrum":false},{"pitch":36,"velocity":128,"startTime":95.76913499999952,"endTime":95.92298099999951,"instrument":4,"program":42,"isDrum":false},{"pitch":28,"velocity":128,"startTime":95.9999039999995,"endTime":96.46144199999951,"instrument":4,"program":42,"isDrum":false},{"pitch":28,"velocity":128,"startTime":96.46144199999951,"endTime":96.92297999999951,"instrument":4,"program":42,"isDrum":false},{"pitch":32,"velocity":128,"startTime":96.92297999999951,"endTime":97.38451799999952,"instrument":4,"program":42,"isDrum":false},{"pitch":32,"velocity":128,"startTime":97.38451799999952,"endTime":97.84605599999952,"instrument":4,"program":42,"isDrum":false},{"pitch":37,"velocity":128,"startTime":97.84605599999952,"endTime":98.30759399999953,"instrument":4,"program":42,"isDrum":false},{"pitch":37,"velocity":128,"startTime":98.30759399999953,"endTime":98.76913199999953,"instrument":4,"program":42,"isDrum":false},{"pitch":33,"velocity":128,"startTime":98.76913199999953,"endTime":99.23066999999953,"instrument":4,"program":42,"isDrum":false},{"pitch":33,"velocity":128,"startTime":99.23066999999953,"endTime":99.69220799999954,"instrument":4,"program":42,"isDrum":false},{"pitch":36,"velocity":128,"startTime":99.69220799999954,"endTime":99.92297699999953,"instrument":4,"program":42,"isDrum":false},{"pitch":36,"velocity":128,"startTime":99.92297699999953,"endTime":100.15374599999953,"instrument":4,"program":42,"isDrum":false},{"pitch":36,"velocity":128,"startTime":100.15374599999953,"endTime":100.38451499999952,"instrument":4,"program":42,"isDrum":false},{"pitch":36,"velocity":128,"startTime":100.38451499999952,"endTime":100.46143799999952,"instrument":4,"program":42,"isDrum":false},{"pitch":36,"velocity":128,"startTime":100.49989949999951,"endTime":100.57682249999951,"instrument":4,"program":42,"isDrum":false},{"pitch":36,"velocity":128,"startTime":100.6152839999995,"endTime":100.8460529999995,"instrument":4,"program":42,"isDrum":false},{"pitch":38,"velocity":128,"startTime":100.8460529999995,"endTime":101.0768219999995,"instrument":4,"program":42,"isDrum":false},{"pitch":38,"velocity":128,"startTime":101.0768219999995,"endTime":101.38451399999948,"instrument":4,"program":42,"isDrum":false},{"pitch":36,"velocity":128,"startTime":101.30759099999949,"endTime":101.46143699999948,"instrument":4,"program":42,"isDrum":false},{"pitch":35,"velocity":128,"startTime":101.53835999999947,"endTime":101.76912899999947,"instrument":4,"program":42,"isDrum":false},{"pitch":35,"velocity":128,"startTime":101.76912899999947,"endTime":101.99989799999946,"instrument":4,"program":42,"isDrum":false},{"pitch":35,"velocity":128,"startTime":101.99989799999946,"endTime":102.23066699999946,"instrument":4,"program":42,"isDrum":false},{"pitch":35,"velocity":128,"startTime":102.23066699999946,"endTime":102.30758999999945,"instrument":4,"program":42,"isDrum":false},{"pitch":35,"velocity":128,"startTime":102.34605149999945,"endTime":102.42297449999944,"instrument":4,"program":42,"isDrum":false},{"pitch":35,"velocity":128,"startTime":102.46143599999944,"endTime":102.69220499999943,"instrument":4,"program":42,"isDrum":false},{"pitch":38,"velocity":128,"startTime":102.69220499999943,"endTime":102.92297399999943,"instrument":4,"program":42,"isDrum":false},{"pitch":38,"velocity":128,"startTime":102.92297399999943,"endTime":103.23066599999942,"instrument":4,"program":42,"isDrum":false},{"pitch":36,"velocity":128,"startTime":103.15374299999942,"endTime":103.30758899999941,"instrument":4,"program":42,"isDrum":false},{"pitch":33,"velocity":128,"startTime":103.3845119999994,"endTime":103.5383579999994,"instrument":4,"program":42,"isDrum":false},{"pitch":33,"velocity":128,"startTime":103.84604999999941,"endTime":103.99989599999941,"instrument":4,"program":42,"isDrum":false},{"pitch":38,"velocity":128,"startTime":104.0768189999994,"endTime":104.2306649999994,"instrument":4,"program":42,"isDrum":false},{"pitch":36,"velocity":128,"startTime":104.3075879999994,"endTime":104.6152799999994,"instrument":4,"program":42,"isDrum":false},{"pitch":36,"velocity":128,"startTime":104.7691259999994,"endTime":105.0768179999994,"instrument":4,"program":42,"isDrum":false},{"pitch":33,"velocity":128,"startTime":105.23066399999941,"endTime":105.4614329999994,"instrument":4,"program":42,"isDrum":false},{"pitch":33,"velocity":128,"startTime":105.6922019999994,"endTime":105.9229709999994,"instrument":4,"program":42,"isDrum":false},{"pitch":31,"velocity":128,"startTime":106.15373999999939,"endTime":106.38450899999938,"instrument":4,"program":42,"isDrum":false},{"pitch":33,"velocity":128,"startTime":106.38450899999938,"endTime":106.61527799999938,"instrument":4,"program":42,"isDrum":false},{"pitch":31,"velocity":128,"startTime":106.84604699999937,"endTime":107.07681599999937,"instrument":4,"program":42,"isDrum":false},{"pitch":33,"velocity":128,"startTime":107.07681599999937,"endTime":107.23066199999937,"instrument":4,"program":42,"isDrum":false},{"pitch":33,"velocity":128,"startTime":107.53835399999937,"endTime":107.69219999999937,"instrument":4,"program":42,"isDrum":false},{"pitch":38,"velocity":128,"startTime":107.76912299999937,"endTime":107.92296899999937,"instrument":4,"program":42,"isDrum":false},{"pitch":36,"velocity":128,"startTime":107.99989199999936,"endTime":108.30758399999937,"instrument":4,"program":42,"isDrum":false},{"pitch":36,"velocity":128,"startTime":108.46142999999937,"endTime":108.76912199999937,"instrument":4,"program":42,"isDrum":false},{"pitch":33,"velocity":128,"startTime":108.92296799999937,"endTime":109.15373699999937,"instrument":4,"program":42,"isDrum":false},{"pitch":33,"velocity":128,"startTime":109.38450599999936,"endTime":109.61527499999936,"instrument":4,"program":42,"isDrum":false},{"pitch":31,"velocity":128,"startTime":109.84604399999935,"endTime":110.07681299999935,"instrument":4,"program":42,"isDrum":false},{"pitch":33,"velocity":128,"startTime":110.07681299999935,"endTime":110.30758199999934,"instrument":4,"program":42,"isDrum":false},{"pitch":31,"velocity":128,"startTime":110.53835099999934,"endTime":110.76911999999933,"instrument":4,"program":42,"isDrum":false},{"pitch":33,"velocity":128,"startTime":110.76911999999933,"endTime":110.92296599999933,"instrument":4,"program":42,"isDrum":false},{"pitch":33,"velocity":128,"startTime":111.23065799999934,"endTime":111.38450399999934,"instrument":4,"program":42,"isDrum":false},{"pitch":38,"velocity":128,"startTime":111.46142699999933,"endTime":111.61527299999933,"instrument":4,"program":42,"isDrum":false},{"pitch":36,"velocity":128,"startTime":111.69219599999933,"endTime":111.99988799999933,"instrument":4,"program":42,"isDrum":false},{"pitch":36,"velocity":128,"startTime":112.15373399999933,"endTime":112.46142599999934,"instrument":4,"program":42,"isDrum":false},{"pitch":33,"velocity":128,"startTime":112.61527199999934,"endTime":112.84604099999933,"instrument":4,"program":42,"isDrum":false},{"pitch":33,"velocity":128,"startTime":113.07680999999933,"endTime":113.30757899999932,"instrument":4,"program":42,"isDrum":false},{"pitch":31,"velocity":128,"startTime":113.53834799999932,"endTime":113.76911699999931,"instrument":4,"program":42,"isDrum":false},{"pitch":33,"velocity":128,"startTime":113.76911699999931,"endTime":113.99988599999931,"instrument":4,"program":42,"isDrum":false},{"pitch":31,"velocity":128,"startTime":114.2306549999993,"endTime":114.4614239999993,"instrument":4,"program":42,"isDrum":false},{"pitch":33,"velocity":128,"startTime":114.4614239999993,"endTime":114.6152699999993,"instrument":4,"program":42,"isDrum":false},{"pitch":33,"velocity":128,"startTime":114.9229619999993,"endTime":115.0768079999993,"instrument":4,"program":42,"isDrum":false},{"pitch":38,"velocity":128,"startTime":115.1537309999993,"endTime":115.3075769999993,"instrument":4,"program":42,"isDrum":false},{"pitch":36,"velocity":128,"startTime":115.38449999999929,"endTime":115.6921919999993,"instrument":4,"program":42,"isDrum":false},{"pitch":36,"velocity":128,"startTime":115.8460379999993,"endTime":116.1537299999993,"instrument":4,"program":42,"isDrum":false},{"pitch":33,"velocity":128,"startTime":116.3075759999993,"endTime":116.5383449999993,"instrument":4,"program":42,"isDrum":false},{"pitch":33,"velocity":128,"startTime":116.76911399999929,"endTime":116.99988299999929,"instrument":4,"program":42,"isDrum":false},{"pitch":31,"velocity":128,"startTime":117.23065199999928,"endTime":117.46142099999928,"instrument":4,"program":42,"isDrum":false},{"pitch":33,"velocity":128,"startTime":117.46142099999928,"endTime":117.69218999999927,"instrument":4,"program":42,"isDrum":false},{"pitch":31,"velocity":128,"startTime":117.92295899999927,"endTime":118.15372799999926,"instrument":4,"program":42,"isDrum":false},{"pitch":38,"velocity":128,"startTime":118.15372799999926,"endTime":118.38449699999926,"instrument":4,"program":42,"isDrum":false},{"pitch":38,"velocity":128,"startTime":118.38449699999926,"endTime":118.61526599999925,"instrument":4,"program":42,"isDrum":false},{"pitch":38,"velocity":128,"startTime":118.61526599999925,"endTime":118.84603499999925,"instrument":4,"program":42,"isDrum":false},{"pitch":38,"velocity":128,"startTime":118.84603499999925,"endTime":119.07680399999924,"instrument":4,"program":42,"isDrum":false},{"pitch":38,"velocity":128,"startTime":119.07680399999924,"endTime":119.30757299999924,"instrument":4,"program":42,"isDrum":false},{"pitch":38,"velocity":128,"startTime":119.30757299999924,"endTime":119.53834199999923,"instrument":4,"program":42,"isDrum":false},{"pitch":38,"velocity":128,"startTime":119.53834199999923,"endTime":119.76911099999923,"instrument":4,"program":42,"isDrum":false},{"pitch":38,"velocity":128,"startTime":119.76911099999923,"endTime":119.99987999999922,"instrument":4,"program":42,"isDrum":false},{"pitch":35,"velocity":128,"startTime":119.99987999999922,"endTime":120.23064899999922,"instrument":4,"program":42,"isDrum":false},{"pitch":35,"velocity":128,"startTime":120.23064899999922,"endTime":120.46141799999921,"instrument":4,"program":42,"isDrum":false},{"pitch":35,"velocity":128,"startTime":120.46141799999921,"endTime":120.69218699999921,"instrument":4,"program":42,"isDrum":false},{"pitch":35,"velocity":128,"startTime":120.69218699999921,"endTime":120.9229559999992,"instrument":4,"program":42,"isDrum":false},{"pitch":35,"velocity":128,"startTime":120.9229559999992,"endTime":121.1537249999992,"instrument":4,"program":42,"isDrum":false},{"pitch":28,"velocity":128,"startTime":121.1537249999992,"endTime":121.3844939999992,"instrument":4,"program":42,"isDrum":false},{"pitch":31,"velocity":128,"startTime":121.3844939999992,"endTime":121.8460319999992,"instrument":4,"program":42,"isDrum":false},{"pitch":28,"velocity":128,"startTime":121.8460319999992,"endTime":123.0816076874992,"instrument":4,"program":42,"isDrum":false}],"totalTime":123.65372249999892,"sourceInfo":{"encodingType":"MIDI","parser":"TONEJS_MIDI_CONVERT"}},"sequence":{"filename":"lithium.mid","ticksPerQuarter":192,"timeSignatures":[{"time":0,"numerator":4,"denominator":4}],"tempos":[{"time":0,"qpm":130.00013000013}],"notes":[{"pitch":40,"velocity":128,"startTime":0,"endTime":0.46153799999999995,"instrument":0,"program":28,"isDrum":false},{"pitch":52,"velocity":128,"startTime":0.46153799999999995,"endTime":0.6923069999999998,"instrument":0,"program":28,"isDrum":false},{"pitch":40,"velocity":128,"startTime":0.6923069999999998,"endTime":0.9230759999999998,"instrument":0,"program":28,"isDrum":false},{"pitch":44,"velocity":128,"startTime":0.9230759999999998,"endTime":1.3846139999999998,"instrument":0,"program":28,"isDrum":false},{"pitch":56,"velocity":128,"startTime":1.3846139999999998,"endTime":1.6153829999999996,"instrument":0,"program":28,"isDrum":false},{"pitch":44,"velocity":128,"startTime":1.6153829999999996,"endTime":1.8461519999999996,"instrument":0,"program":28,"isDrum":false},{"pitch":49,"velocity":128,"startTime":1.8461519999999996,"endTime":2.3076899999999996,"instrument":0,"program":28,"isDrum":false},{"pitch":61,"velocity":128,"startTime":2.3076899999999996,"endTime":2.5384589999999996,"instrument":0,"program":28,"isDrum":false},{"pitch":49,"velocity":128,"startTime":2.5384589999999996,"endTime":2.7692279999999996,"instrument":0,"program":28,"isDrum":false},{"pitch":45,"velocity":128,"startTime":2.7692279999999996,"endTime":3.2307659999999996,"instrument":0,"program":28,"isDrum":false},{"pitch":57,"velocity":128,"startTime":3.2307659999999996,"endTime":3.4615349999999996,"instrument":0,"program":28,"isDrum":false},{"pitch":45,"velocity":128,"startTime":3.4615349999999996,"endTime":3.692303999999999,"instrument":0,"program":28,"isDrum":false},{"pitch":48,"velocity":128,"startTime":3.692303999999999,"endTime":4.153841999999999,"instrument":0,"program":28,"isDrum":false},{"pitch":48,"velocity":128,"startTime":4.153841999999999,"endTime":4.615379999999997,"instrument":0,"program":28,"isDrum":false},{"pitch":48,"velocity":128,"startTime":4.384610999999999,"endTime":4.846148999999996,"instrument":0,"program":28,"isDrum":false},{"pitch":48,"velocity":128,"startTime":4.615379999999997,"endTime":4.846148999999996,"instrument":0,"program":28,"isDrum":false},{"pitch":50,"velocity":128,"startTime":4.846148999999996,"endTime":5.076917999999996,"instrument":0,"program":28,"isDrum":false},{"pitch":50,"velocity":128,"startTime":5.076917999999996,"endTime":5.538455999999996,"instrument":0,"program":28,"isDrum":false},{"pitch":47,"velocity":128,"startTime":5.538455999999996,"endTime":5.999993999999996,"instrument":0,"program":28,"isDrum":false},{"pitch":47,"velocity":128,"startTime":5.999993999999996,"endTime":6.461531999999994,"instrument":0,"program":28,"isDrum":false},{"pitch":47,"velocity":128,"startTime":6.230762999999995,"endTime":6.6923009999999925,"instrument":0,"program":28,"isDrum":false},{"pitch":47,"velocity":128,"startTime":6.461531999999994,"endTime":6.6923009999999925,"instrument":0,"program":28,"isDrum":false},{"pitch":50,"velocity":128,"startTime":6.6923009999999925,"endTime":6.923069999999992,"instrument":0,"program":28,"isDrum":false},{"pitch":50,"velocity":128,"startTime":6.923069999999992,"endTime":7.384607999999992,"instrument":0,"program":28,"isDrum":false},{"pitch":40,"velocity":128,"startTime":7.384607999999992,"endTime":7.846145999999991,"instrument":0,"program":28,"isDrum":false},{"pitch":52,"velocity":128,"startTime":7.846145999999991,"endTime":8.076914999999993,"instrument":0,"program":28,"isDrum":false},{"pitch":47,"velocity":128,"startTime":7.846145999999991,"endTime":8.076914999999993,"instrument":0,"program":28,"isDrum":false},{"pitch":40,"velocity":128,"startTime":8.076914999999993,"endTime":8.307683999999993,"instrument":0,"program":28,"isDrum":false},{"pitch":44,"velocity":128,"startTime":8.307683999999993,"endTime":8.769221999999992,"instrument":0,"program":28,"isDrum":false},{"pitch":56,"velocity":128,"startTime":8.769221999999992,"endTime":8.999990999999993,"instrument":0,"program":28,"isDrum":false},{"pitch":51,"velocity":128,"startTime":8.769221999999992,"endTime":8.999990999999993,"instrument":0,"program":28,"isDrum":false},{"pitch":44,"velocity":128,"startTime":8.999990999999993,"endTime":9.230759999999993,"instrument":0,"program":28,"isDrum":false},{"pitch":49,"velocity":128,"startTime":9.230759999999993,"endTime":9.692297999999992,"instrument":0,"program":28,"isDrum":false},{"pitch":61,"velocity":128,"startTime":9.692297999999992,"endTime":9.923066999999993,"instrument":0,"program":28,"isDrum":false},{"pitch":54,"velocity":128,"startTime":9.692297999999992,"endTime":9.923066999999993,"instrument":0,"program":28,"isDrum":false},{"pitch":49,"velocity":128,"startTime":9.923066999999993,"endTime":10.153835999999993,"instrument":0,"program":28,"isDrum":false},{"pitch":45,"velocity":128,"startTime":10.153835999999993,"endTime":10.615373999999992,"instrument":0,"program":28,"isDrum":false},{"pitch":57,"velocity":128,"startTime":10.615373999999992,"endTime":10.846142999999993,"instrument":0,"program":28,"isDrum":false},{"pitch":52,"velocity":128,"startTime":10.615373999999992,"endTime":10.769219999999992,"instrument":0,"program":28,"isDrum":false},{"pitch":45,"velocity":128,"startTime":10.846142999999993,"endTime":11.076911999999993,"instrument":0,"program":28,"isDrum":false},{"pitch":48,"velocity":128,"startTime":11.076911999999993,"endTime":11.538449999999992,"instrument":0,"program":28,"isDrum":false},{"pitch":48,"velocity":128,"startTime":11.538449999999992,"endTime":11.999987999999991,"instrument":0,"program":28,"isDrum":false},{"pitch":60,"velocity":128,"startTime":11.538449999999992,"endTime":11.769218999999993,"instrument":0,"program":28,"isDrum":false},{"pitch":55,"velocity":128,"startTime":11.538449999999992,"endTime":11.999987999999991,"instrument":0,"program":28,"isDrum":false},{"pitch":48,"velocity":128,"startTime":11.769218999999993,"endTime":12.23075699999999,"instrument":0,"program":28,"isDrum":false},{"pitch":48,"velocity":128,"startTime":11.999987999999991,"endTime":12.23075699999999,"instrument":0,"program":28,"isDrum":false},{"pitch":50,"velocity":128,"startTime":12.23075699999999,"endTime":12.46152599999999,"instrument":0,"program":28,"isDrum":false},{"pitch":50,"velocity":128,"startTime":12.46152599999999,"endTime":12.92306399999999,"instrument":0,"program":28,"isDrum":false},{"pitch":62,"velocity":128,"startTime":12.46152599999999,"endTime":12.92306399999999,"instrument":0,"program":28,"isDrum":false},{"pitch":57,"velocity":128,"startTime":12.46152599999999,"endTime":12.92306399999999,"instrument":0,"program":28,"isDrum":false},{"pitch":47,"velocity":128,"startTime":12.92306399999999,"endTime":13.384601999999989,"instrument":0,"program":28,"isDrum":false},{"pitch":47,"velocity":128,"startTime":13.384601999999989,"endTime":13.846139999999988,"instrument":0,"program":28,"isDrum":false},{"pitch":54,"velocity":128,"startTime":13.384601999999989,"endTime":13.615370999999989,"instrument":0,"program":28,"isDrum":false},{"pitch":59,"velocity":128,"startTime":13.384601999999989,"endTime":13.615370999999989,"instrument":0,"program":28,"isDrum":false},{"pitch":47,"velocity":128,"startTime":13.615370999999989,"endTime":14.076908999999986,"instrument":0,"program":28,"isDrum":false},{"pitch":47,"velocity":128,"startTime":13.846139999999988,"endTime":14.076908999999986,"instrument":0,"program":28,"isDrum":false},{"pitch":50,"velocity":128,"startTime":14.076908999999986,"endTime":14.307677999999987,"instrument":0,"program":28,"isDrum":false},{"pitch":50,"velocity":128,"startTime":14.307677999999987,"endTime":14.769215999999986,"instrument":0,"program":28,"isDrum":false},{"pitch":57,"velocity":128,"startTime":14.307677999999987,"endTime":14.769215999999986,"instrument":0,"program":28,"isDrum":false},{"pitch":62,"velocity":128,"startTime":14.307677999999987,"endTime":14.769215999999986,"instrument":0,"program":28,"isDrum":false},{"pitch":40,"velocity":128,"startTime":14.769215999999986,"endTime":15.230753999999985,"instrument":0,"program":28,"isDrum":false},{"pitch":52,"velocity":128,"startTime":15.230753999999985,"endTime":15.461522999999985,"instrument":0,"program":28,"isDrum":false},{"pitch":47,"velocity":128,"startTime":15.230753999999985,"endTime":15.461522999999985,"instrument":0,"program":28,"isDrum":false},{"pitch":40,"velocity":128,"startTime":15.461522999999985,"endTime":15.692291999999986,"instrument":0,"program":28,"isDrum":false},{"pitch":44,"velocity":128,"startTime":15.692291999999986,"endTime":16.153829999999985,"instrument":0,"program":28,"isDrum":false},{"pitch":56,"velocity":128,"startTime":16.153829999999985,"endTime":16.384598999999984,"instrument":0,"program":28,"isDrum":false},{"pitch":51,"velocity":128,"startTime":16.153829999999985,"endTime":16.384598999999984,"instrument":0,"program":28,"isDrum":false},{"pitch":44,"velocity":128,"startTime":16.384598999999984,"endTime":16.615367999999982,"instrument":0,"program":28,"isDrum":false},{"pitch":49,"velocity":128,"startTime":16.615367999999982,"endTime":17.076905999999983,"instrument":0,"program":28,"isDrum":false},{"pitch":61,"velocity":128,"startTime":17.076905999999983,"endTime":17.307674999999982,"instrument":0,"program":28,"isDrum":false},{"pitch":54,"velocity":128,"startTime":17.076905999999983,"endTime":17.307674999999982,"instrument":0,"program":28,"isDrum":false},{"pitch":49,"velocity":128,"startTime":17.307674999999982,"endTime":17.53844399999998,"instrument":0,"program":28,"isDrum":false},{"pitch":45,"velocity":128,"startTime":17.53844399999998,"endTime":17.99998199999998,"instrument":0,"program":28,"isDrum":false},{"pitch":57,"velocity":128,"startTime":17.99998199999998,"endTime":18.230750999999984,"instrument":0,"program":28,"isDrum":false},{"pitch":52,"velocity":128,"startTime":17.99998199999998,"endTime":18.153827999999983,"instrument":0,"program":28,"isDrum":false},{"pitch":45,"velocity":128,"startTime":18.230750999999984,"endTime":18.461519999999982,"instrument":0,"program":28,"isDrum":false},{"pitch":48,"velocity":128,"startTime":18.461519999999982,"endTime":18.923057999999983,"instrument":0,"program":28,"isDrum":false},{"pitch":48,"velocity":128,"startTime":18.923057999999983,"endTime":19.38459599999998,"instrument":0,"program":28,"isDrum":false},{"pitch":60,"velocity":128,"startTime":18.923057999999983,"endTime":19.153826999999982,"instrument":0,"program":28,"isDrum":false},{"pitch":55,"velocity":128,"startTime":18.923057999999983,"endTime":19.38459599999998,"instrument":0,"program":28,"isDrum":false},{"pitch":48,"velocity":128,"startTime":19.153826999999982,"endTime":19.615364999999983,"instrument":0,"program":28,"isDrum":false},{"pitch":48,"velocity":128,"startTime":19.38459599999998,"endTime":19.615364999999983,"instrument":0,"program":28,"isDrum":false},{"pitch":50,"velocity":128,"startTime":19.615364999999983,"endTime":19.84613399999998,"instrument":0,"program":28,"isDrum":false},{"pitch":50,"velocity":128,"startTime":19.84613399999998,"endTime":20.307671999999982,"instrument":0,"program":28,"isDrum":false},{"pitch":62,"velocity":128,"startTime":19.84613399999998,"endTime":20.307671999999982,"instrument":0,"program":28,"isDrum":false},{"pitch":57,"velocity":128,"startTime":19.84613399999998,"endTime":20.307671999999982,"instrument":0,"program":28,"isDrum":false},{"pitch":47,"velocity":128,"startTime":20.307671999999982,"endTime":20.769209999999983,"instrument":0,"program":28,"isDrum":false},{"pitch":47,"velocity":128,"startTime":20.769209999999983,"endTime":21.23074799999998,"instrument":0,"program":28,"isDrum":false},{"pitch":54,"velocity":128,"startTime":20.769209999999983,"endTime":20.999978999999982,"instrument":0,"program":28,"isDrum":false},{"pitch":59,"velocity":128,"startTime":20.769209999999983,"endTime":20.999978999999982,"instrument":0,"program":28,"isDrum":false},{"pitch":47,"velocity":128,"startTime":20.999978999999982,"endTime":21.461516999999983,"instrument":0,"program":28,"isDrum":false},{"pitch":47,"velocity":128,"startTime":21.23074799999998,"endTime":21.461516999999983,"instrument":0,"program":28,"isDrum":false},{"pitch":50,"velocity":128,"startTime":21.461516999999983,"endTime":21.69228599999998,"instrument":0,"program":28,"isDrum":false},{"pitch":50,"velocity":128,"startTime":21.69228599999998,"endTime":22.153823999999982,"instrument":0,"program":28,"isDrum":false},{"pitch":57,"velocity":128,"startTime":21.69228599999998,"endTime":22.153823999999982,"instrument":0,"program":28,"isDrum":false},{"pitch":62,"velocity":128,"startTime":21.69228599999998,"endTime":22.153823999999982,"instrument":0,"program":28,"isDrum":false},{"pitch":40,"velocity":128,"startTime":22.153823999999982,"endTime":22.615361999999983,"instrument":0,"program":28,"isDrum":false},{"pitch":52,"velocity":128,"startTime":22.615361999999983,"endTime":22.846130999999982,"instrument":0,"program":28,"isDrum":false},{"pitch":47,"velocity":128,"startTime":22.615361999999983,"endTime":22.846130999999982,"instrument":0,"program":28,"isDrum":false},{"pitch":40,"velocity":128,"startTime":22.846130999999982,"endTime":23.07689999999998,"instrument":0,"program":28,"isDrum":false},{"pitch":44,"velocity":128,"startTime":23.07689999999998,"endTime":23.53843799999998,"instrument":0,"program":28,"isDrum":false},{"pitch":56,"velocity":128,"startTime":23.53843799999998,"endTime":23.76920699999998,"instrument":0,"program":28,"isDrum":false},{"pitch":51,"velocity":128,"startTime":23.53843799999998,"endTime":23.76920699999998,"instrument":0,"program":28,"isDrum":false},{"pitch":44,"velocity":128,"startTime":23.76920699999998,"endTime":23.99997599999998,"instrument":0,"program":28,"isDrum":false},{"pitch":49,"velocity":128,"startTime":23.99997599999998,"endTime":24.46151399999998,"instrument":0,"program":28,"isDrum":false},{"pitch":61,"velocity":128,"startTime":24.46151399999998,"endTime":24.69228299999998,"instrument":0,"program":28,"isDrum":false},{"pitch":54,"velocity":128,"startTime":24.46151399999998,"endTime":24.69228299999998,"instrument":0,"program":28,"isDrum":false},{"pitch":49,"velocity":128,"startTime":24.69228299999998,"endTime":24.923051999999977,"instrument":0,"program":28,"isDrum":false},{"pitch":45,"velocity":128,"startTime":24.923051999999977,"endTime":25.384589999999978,"instrument":0,"program":28,"isDrum":false},{"pitch":57,"velocity":128,"startTime":25.384589999999978,"endTime":25.61535899999998,"instrument":0,"program":28,"isDrum":false},{"pitch":52,"velocity":128,"startTime":25.384589999999978,"endTime":25.53843599999998,"instrument":0,"program":28,"isDrum":false},{"pitch":45,"velocity":128,"startTime":25.61535899999998,"endTime":25.84612799999998,"instrument":0,"program":28,"isDrum":false},{"pitch":48,"velocity":128,"startTime":25.84612799999998,"endTime":26.30766599999998,"instrument":0,"program":28,"isDrum":false},{"pitch":48,"velocity":128,"startTime":26.30766599999998,"endTime":26.769203999999977,"instrument":0,"program":28,"isDrum":false},{"pitch":60,"velocity":128,"startTime":26.30766599999998,"endTime":26.53843499999998,"instrument":0,"program":28,"isDrum":false},{"pitch":55,"velocity":128,"startTime":26.30766599999998,"endTime":26.769203999999977,"instrument":0,"program":28,"isDrum":false},{"pitch":48,"velocity":128,"startTime":26.53843499999998,"endTime":26.99997299999998,"instrument":0,"program":28,"isDrum":false},{"pitch":48,"velocity":128,"startTime":26.769203999999977,"endTime":26.99997299999998,"instrument":0,"program":28,"isDrum":false},{"pitch":50,"velocity":128,"startTime":26.99997299999998,"endTime":27.230741999999978,"instrument":0,"program":28,"isDrum":false},{"pitch":50,"velocity":128,"startTime":27.230741999999978,"endTime":27.69227999999998,"instrument":0,"program":28,"isDrum":false},{"pitch":62,"velocity":128,"startTime":27.230741999999978,"endTime":27.69227999999998,"instrument":0,"program":28,"isDrum":false},{"pitch":57,"velocity":128,"startTime":27.230741999999978,"endTime":27.69227999999998,"instrument":0,"program":28,"isDrum":false},{"pitch":47,"velocity":128,"startTime":27.69227999999998,"endTime":28.15381799999998,"instrument":0,"program":28,"isDrum":false},{"pitch":47,"velocity":128,"startTime":28.15381799999998,"endTime":28.615355999999977,"instrument":0,"program":28,"isDrum":false},{"pitch":54,"velocity":128,"startTime":28.15381799999998,"endTime":28.38458699999998,"instrument":0,"program":28,"isDrum":false},{"pitch":59,"velocity":128,"startTime":28.15381799999998,"endTime":28.38458699999998,"instrument":0,"program":28,"isDrum":false},{"pitch":47,"velocity":128,"startTime":28.38458699999998,"endTime":28.84612499999998,"instrument":0,"program":28,"isDrum":false},{"pitch":47,"velocity":128,"startTime":28.615355999999977,"endTime":28.84612499999998,"instrument":0,"program":28,"isDrum":false},{"pitch":50,"velocity":128,"startTime":28.84612499999998,"endTime":29.076893999999978,"instrument":0,"program":28,"isDrum":false},{"pitch":50,"velocity":128,"startTime":29.076893999999978,"endTime":29.53843199999998,"instrument":0,"program":28,"isDrum":false},{"pitch":57,"velocity":128,"startTime":29.076893999999978,"endTime":29.53843199999998,"instrument":0,"program":28,"isDrum":false},{"pitch":62,"velocity":128,"startTime":29.076893999999978,"endTime":29.53843199999998,"instrument":0,"program":28,"isDrum":false},{"pitch":40,"velocity":128,"startTime":29.53843199999998,"endTime":29.99996999999998,"instrument":0,"program":28,"isDrum":false},{"pitch":52,"velocity":128,"startTime":29.99996999999998,"endTime":30.23073899999998,"instrument":0,"program":28,"isDrum":false},{"pitch":47,"velocity":128,"startTime":29.99996999999998,"endTime":30.23073899999998,"instrument":0,"program":28,"isDrum":false},{"pitch":40,"velocity":128,"startTime":30.23073899999998,"endTime":30.461507999999977,"instrument":0,"program":28,"isDrum":false},{"pitch":44,"velocity":128,"startTime":30.461507999999977,"endTime":30.923045999999978,"instrument":0,"program":28,"isDrum":false},{"pitch":56,"velocity":128,"startTime":30.923045999999978,"endTime":31.153814999999977,"instrument":0,"program":28,"isDrum":false},{"pitch":51,"velocity":128,"startTime":30.923045999999978,"endTime":31.153814999999977,"instrument":0,"program":28,"isDrum":false},{"pitch":44,"velocity":128,"startTime":31.153814999999977,"endTime":31.384583999999975,"instrument":0,"program":28,"isDrum":false},{"pitch":49,"velocity":128,"startTime":31.384583999999975,"endTime":31.846121999999976,"instrument":0,"program":28,"isDrum":false},{"pitch":61,"velocity":128,"startTime":31.846121999999976,"endTime":32.07689099999998,"instrument":0,"program":28,"isDrum":false},{"pitch":54,"velocity":128,"startTime":31.846121999999976,"endTime":32.07689099999998,"instrument":0,"program":28,"isDrum":false},{"pitch":49,"velocity":128,"startTime":32.07689099999998,"endTime":32.307659999999984,"instrument":0,"program":28,"isDrum":false},{"pitch":45,"velocity":128,"startTime":32.307659999999984,"endTime":32.76919799999998,"instrument":0,"program":28,"isDrum":false},{"pitch":57,"velocity":128,"startTime":32.76919799999998,"endTime":32.999966999999984,"instrument":0,"program":28,"isDrum":false},{"pitch":52,"velocity":128,"startTime":32.76919799999998,"endTime":32.92304399999998,"instrument":0,"program":28,"isDrum":false},{"pitch":45,"velocity":128,"startTime":32.999966999999984,"endTime":33.230735999999986,"instrument":0,"program":28,"isDrum":false},{"pitch":48,"velocity":128,"startTime":33.230735999999986,"endTime":33.46150499999999,"instrument":0,"program":28,"isDrum":false},{"pitch":55,"velocity":128,"startTime":33.230735999999986,"endTime":33.46150499999999,"instrument":0,"program":28,"isDrum":false},{"pitch":60,"velocity":128,"startTime":33.230735999999986,"endTime":33.46150499999999,"instrument":0,"program":28,"isDrum":false},{"pitch":60,"velocity":128,"startTime":33.46150499999999,"endTime":33.69227399999999,"instrument":0,"program":28,"isDrum":false},{"pitch":55,"velocity":128,"startTime":33.46150499999999,"endTime":33.69227399999999,"instrument":0,"program":28,"isDrum":false},{"pitch":48,"velocity":128,"startTime":33.46150499999999,"endTime":33.69227399999999,"instrument":0,"program":28,"isDrum":false},{"pitch":48,"velocity":128,"startTime":33.69227399999999,"endTime":33.92304299999999,"instrument":0,"program":28,"isDrum":false},{"pitch":55,"velocity":128,"startTime":33.69227399999999,"endTime":33.92304299999999,"instrument":0,"program":28,"isDrum":false},{"pitch":60,"velocity":128,"startTime":33.69227399999999,"endTime":33.92304299999999,"instrument":0,"program":28,"isDrum":false},{"pitch":60,"velocity":128,"startTime":33.92304299999999,"endTime":34.03842749999999,"instrument":0,"program":28,"isDrum":false},{"pitch":55,"velocity":128,"startTime":33.92304299999999,"endTime":34.03842749999999,"instrument":0,"program":28,"isDrum":false},{"pitch":48,"velocity":128,"startTime":33.92304299999999,"endTime":34.03842749999999,"instrument":0,"program":28,"isDrum":false},{"pitch":48,"velocity":128,"startTime":34.03842749999999,"endTime":34.15381199999999,"instrument":0,"program":28,"isDrum":false},{"pitch":55,"velocity":128,"startTime":34.03842749999999,"endTime":34.15381199999999,"instrument":0,"program":28,"isDrum":false},{"pitch":60,"velocity":128,"startTime":34.03842749999999,"endTime":34.15381199999999,"instrument":0,"program":28,"isDrum":false},{"pitch":60,"velocity":128,"startTime":34.15381199999999,"endTime":34.38458099999999,"instrument":0,"program":28,"isDrum":false},{"pitch":55,"velocity":128,"startTime":34.15381199999999,"endTime":34.38458099999999,"instrument":0,"program":28,"isDrum":false},{"pitch":48,"velocity":128,"startTime":34.15381199999999,"endTime":34.38458099999999,"instrument":0,"program":28,"isDrum":false},{"pitch":62,"velocity":128,"startTime":34.38458099999999,"endTime":34.61534999999999,"instrument":0,"program":28,"isDrum":false},{"pitch":57,"velocity":128,"startTime":34.38458099999999,"endTime":34.61534999999999,"instrument":0,"program":28,"isDrum":false},{"pitch":50,"velocity":128,"startTime":34.38458099999999,"endTime":34.61534999999999,"instrument":0,"program":28,"isDrum":false},{"pitch":50,"velocity":128,"startTime":34.61534999999999,"endTime":35.07688799999999,"instrument":0,"program":28,"isDrum":false},{"pitch":62,"velocity":128,"startTime":34.61534999999999,"endTime":35.07688799999999,"instrument":0,"program":28,"isDrum":false},{"pitch":57,"velocity":128,"startTime":34.61534999999999,"endTime":35.07688799999999,"instrument":0,"program":28,"isDrum":false},{"pitch":40,"velocity":128,"startTime":51.692255999999986,"endTime":52.153793999999984,"instrument":0,"program":28,"isDrum":false},{"pitch":52,"velocity":128,"startTime":52.153793999999984,"endTime":52.384562999999986,"instrument":0,"program":28,"isDrum":false},{"pitch":47,"velocity":128,"startTime":52.153793999999984,"endTime":52.384562999999986,"instrument":0,"program":28,"isDrum":false},{"pitch":40,"velocity":128,"startTime":52.384562999999986,"endTime":52.61533199999999,"instrument":0,"program":28,"isDrum":false},{"pitch":44,"velocity":128,"startTime":52.61533199999999,"endTime":53.076869999999985,"instrument":0,"program":28,"isDrum":false},{"pitch":56,"velocity":128,"startTime":53.076869999999985,"endTime":53.30763899999999,"instrument":0,"program":28,"isDrum":false},{"pitch":51,"velocity":128,"startTime":53.076869999999985,"endTime":53.30763899999999,"instrument":0,"program":28,"isDrum":false},{"pitch":44,"velocity":128,"startTime":53.30763899999999,"endTime":53.53840799999999,"instrument":0,"program":28,"isDrum":false},{"pitch":49,"velocity":128,"startTime":53.53840799999999,"endTime":53.99994599999999,"instrument":0,"program":28,"isDrum":false},{"pitch":61,"velocity":128,"startTime":53.99994599999999,"endTime":54.23071499999999,"instrument":0,"program":28,"isDrum":false},{"pitch":54,"velocity":128,"startTime":53.99994599999999,"endTime":54.23071499999999,"instrument":0,"program":28,"isDrum":false},{"pitch":49,"velocity":128,"startTime":54.23071499999999,"endTime":54.46148399999999,"instrument":0,"program":28,"isDrum":false},{"pitch":45,"velocity":128,"startTime":54.46148399999999,"endTime":54.92302199999999,"instrument":0,"program":28,"isDrum":false},{"pitch":57,"velocity":128,"startTime":54.92302199999999,"endTime":55.15379099999999,"instrument":0,"program":28,"isDrum":false},{"pitch":52,"velocity":128,"startTime":54.92302199999999,"endTime":55.07686799999999,"instrument":0,"program":28,"isDrum":false},{"pitch":45,"velocity":128,"startTime":55.15379099999999,"endTime":55.38455999999999,"instrument":0,"program":28,"isDrum":false},{"pitch":48,"velocity":128,"startTime":55.38455999999999,"endTime":55.84609799999999,"instrument":0,"program":28,"isDrum":false},{"pitch":48,"velocity":128,"startTime":55.84609799999999,"endTime":56.307635999999995,"instrument":0,"program":28,"isDrum":false},{"pitch":60,"velocity":128,"startTime":55.84609799999999,"endTime":56.07686699999999,"instrument":0,"program":28,"isDrum":false},{"pitch":55,"velocity":128,"startTime":55.84609799999999,"endTime":56.307635999999995,"instrument":0,"program":28,"isDrum":false},{"pitch":48,"velocity":128,"startTime":56.07686699999999,"endTime":56.538405,"instrument":0,"program":28,"isDrum":false},{"pitch":48,"velocity":128,"startTime":56.307635999999995,"endTime":56.538405,"instrument":0,"program":28,"isDrum":false},{"pitch":50,"velocity":128,"startTime":56.538405,"endTime":56.769174,"instrument":0,"program":28,"isDrum":false},{"pitch":50,"velocity":128,"startTime":56.769174,"endTime":57.230712,"instrument":0,"program":28,"isDrum":false},{"pitch":62,"velocity":128,"startTime":56.769174,"endTime":57.230712,"instrument":0,"program":28,"isDrum":false},{"pitch":57,"velocity":128,"startTime":56.769174,"endTime":57.230712,"instrument":0,"program":28,"isDrum":false},{"pitch":47,"velocity":128,"startTime":57.230712,"endTime":57.692249999999994,"instrument":0,"program":28,"isDrum":false},{"pitch":47,"velocity":128,"startTime":57.692249999999994,"endTime":58.153788,"instrument":0,"program":28,"isDrum":false},{"pitch":54,"velocity":128,"startTime":57.692249999999994,"endTime":57.923019,"instrument":0,"program":28,"isDrum":false},{"pitch":59,"velocity":128,"startTime":57.692249999999994,"endTime":57.923019,"instrument":0,"program":28,"isDrum":false},{"pitch":47,"velocity":128,"startTime":57.923019,"endTime":58.384557,"instrument":0,"program":28,"isDrum":false},{"pitch":47,"velocity":128,"startTime":58.153788,"endTime":58.384557,"instrument":0,"program":28,"isDrum":false},{"pitch":50,"velocity":128,"startTime":58.384557,"endTime":58.615326,"instrument":0,"program":28,"isDrum":false},{"pitch":50,"velocity":128,"startTime":58.615326,"endTime":59.076864,"instrument":0,"program":28,"isDrum":false},{"pitch":57,"velocity":128,"startTime":58.615326,"endTime":59.076864,"instrument":0,"program":28,"isDrum":false},{"pitch":62,"velocity":128,"startTime":58.615326,"endTime":59.076864,"instrument":0,"program":28,"isDrum":false},{"pitch":40,"velocity":128,"startTime":59.076864,"endTime":59.538402,"instrument":0,"program":28,"isDrum":false},{"pitch":52,"velocity":128,"startTime":59.538402,"endTime":59.769171,"instrument":0,"program":28,"isDrum":false},{"pitch":47,"velocity":128,"startTime":59.538402,"endTime":59.769171,"instrument":0,"program":28,"isDrum":false},{"pitch":40,"velocity":128,"startTime":59.769171,"endTime":59.99994,"instrument":0,"program":28,"isDrum":false},{"pitch":44,"velocity":128,"startTime":59.99994,"endTime":60.461478,"instrument":0,"program":28,"isDrum":false},{"pitch":56,"velocity":128,"startTime":60.461478,"endTime":60.692247,"instrument":0,"program":28,"isDrum":false},{"pitch":51,"velocity":128,"startTime":60.461478,"endTime":60.692247,"instrument":0,"program":28,"isDrum":false},{"pitch":44,"velocity":128,"startTime":60.692247,"endTime":60.923016000000004,"instrument":0,"program":28,"isDrum":false},{"pitch":49,"velocity":128,"startTime":60.923016000000004,"endTime":61.384554,"instrument":0,"program":28,"isDrum":false},{"pitch":61,"velocity":128,"startTime":61.384554,"endTime":61.615323000000004,"instrument":0,"program":28,"isDrum":false},{"pitch":54,"velocity":128,"startTime":61.384554,"endTime":61.615323000000004,"instrument":0,"program":28,"isDrum":false},{"pitch":49,"velocity":128,"startTime":61.615323000000004,"endTime":61.846092000000006,"instrument":0,"program":28,"isDrum":false},{"pitch":45,"velocity":128,"startTime":61.846092000000006,"endTime":62.30763,"instrument":0,"program":28,"isDrum":false},{"pitch":57,"velocity":128,"startTime":62.30763,"endTime":62.538399000000005,"instrument":0,"program":28,"isDrum":false},{"pitch":52,"velocity":128,"startTime":62.30763,"endTime":62.461476000000005,"instrument":0,"program":28,"isDrum":false},{"pitch":45,"velocity":128,"startTime":62.538399000000005,"endTime":62.76916800000001,"instrument":0,"program":28,"isDrum":false},{"pitch":48,"velocity":128,"startTime":62.76916800000001,"endTime":63.230706000000005,"instrument":0,"program":28,"isDrum":false},{"pitch":48,"velocity":128,"startTime":63.230706000000005,"endTime":63.692244000000024,"instrument":0,"program":28,"isDrum":false},{"pitch":60,"velocity":128,"startTime":63.230706000000005,"endTime":63.46147500000001,"instrument":0,"program":28,"isDrum":false},{"pitch":55,"velocity":128,"startTime":63.230706000000005,"endTime":63.692244000000024,"instrument":0,"program":28,"isDrum":false},{"pitch":48,"velocity":128,"startTime":63.46147500000001,"endTime":63.92301300000005,"instrument":0,"program":28,"isDrum":false},{"pitch":48,"velocity":128,"startTime":63.692244000000024,"endTime":63.92301300000005,"instrument":0,"program":28,"isDrum":false},{"pitch":50,"velocity":128,"startTime":63.92301300000005,"endTime":64.15378200000004,"instrument":0,"program":28,"isDrum":false},{"pitch":50,"velocity":128,"startTime":64.15378200000004,"endTime":64.61532000000004,"instrument":0,"program":28,"isDrum":false},{"pitch":62,"velocity":128,"startTime":64.15378200000004,"endTime":64.61532000000004,"instrument":0,"program":28,"isDrum":false},{"pitch":57,"velocity":128,"startTime":64.15378200000004,"endTime":64.61532000000004,"instrument":0,"program":28,"isDrum":false},{"pitch":47,"velocity":128,"startTime":64.61532000000004,"endTime":65.07685800000004,"instrument":0,"program":28,"isDrum":false},{"pitch":47,"velocity":128,"startTime":65.07685800000004,"endTime":65.53839600000006,"instrument":0,"program":28,"isDrum":false},{"pitch":54,"velocity":128,"startTime":65.07685800000004,"endTime":65.30762700000004,"instrument":0,"program":28,"isDrum":false},{"pitch":59,"velocity":128,"startTime":65.07685800000004,"endTime":65.30762700000004,"instrument":0,"program":28,"isDrum":false},{"pitch":47,"velocity":128,"startTime":65.30762700000004,"endTime":65.76916500000009,"instrument":0,"program":28,"isDrum":false},{"pitch":47,"velocity":128,"startTime":65.53839600000006,"endTime":65.76916500000009,"instrument":0,"program":28,"isDrum":false},{"pitch":50,"velocity":128,"startTime":65.76916500000009,"endTime":65.99993400000008,"instrument":0,"program":28,"isDrum":false},{"pitch":50,"velocity":128,"startTime":65.99993400000008,"endTime":66.46147200000009,"instrument":0,"program":28,"isDrum":false},{"pitch":57,"velocity":128,"startTime":65.99993400000008,"endTime":66.46147200000009,"instrument":0,"program":28,"isDrum":false},{"pitch":62,"velocity":128,"startTime":65.99993400000008,"endTime":66.46147200000009,"instrument":0,"program":28,"isDrum":false},{"pitch":40,"velocity":128,"startTime":66.46147200000009,"endTime":66.92301000000009,"instrument":0,"program":28,"isDrum":false},{"pitch":52,"velocity":128,"startTime":66.92301000000009,"endTime":67.15377900000009,"instrument":0,"program":28,"isDrum":false},{"pitch":47,"velocity":128,"startTime":66.92301000000009,"endTime":67.15377900000009,"instrument":0,"program":28,"isDrum":false},{"pitch":40,"velocity":128,"startTime":67.15377900000009,"endTime":67.38454800000008,"instrument":0,"program":28,"isDrum":false},{"pitch":44,"velocity":128,"startTime":67.38454800000008,"endTime":67.84608600000008,"instrument":0,"program":28,"isDrum":false},{"pitch":56,"velocity":128,"startTime":67.84608600000008,"endTime":68.07685500000008,"instrument":0,"program":28,"isDrum":false},{"pitch":51,"velocity":128,"startTime":67.84608600000008,"endTime":68.07685500000008,"instrument":0,"program":28,"isDrum":false},{"pitch":44,"velocity":128,"startTime":68.07685500000008,"endTime":68.30762400000008,"instrument":0,"program":28,"isDrum":false},{"pitch":49,"velocity":128,"startTime":68.30762400000008,"endTime":68.76916200000008,"instrument":0,"program":28,"isDrum":false},{"pitch":61,"velocity":128,"startTime":68.76916200000008,"endTime":68.99993100000007,"instrument":0,"program":28,"isDrum":false},{"pitch":54,"velocity":128,"startTime":68.76916200000008,"endTime":68.99993100000007,"instrument":0,"program":28,"isDrum":false},{"pitch":49,"velocity":128,"startTime":68.99993100000007,"endTime":69.23070000000007,"instrument":0,"program":28,"isDrum":false},{"pitch":45,"velocity":128,"startTime":69.23070000000007,"endTime":69.69223800000007,"instrument":0,"program":28,"isDrum":false},{"pitch":57,"velocity":128,"startTime":69.69223800000007,"endTime":69.92300700000007,"instrument":0,"program":28,"isDrum":false},{"pitch":52,"velocity":128,"startTime":69.69223800000007,"endTime":69.84608400000008,"instrument":0,"program":28,"isDrum":false},{"pitch":45,"velocity":128,"startTime":69.92300700000007,"endTime":70.15377600000006,"instrument":0,"program":28,"isDrum":false},{"pitch":48,"velocity":128,"startTime":70.15377600000006,"endTime":70.61531400000007,"instrument":0,"program":28,"isDrum":false},{"pitch":48,"velocity":128,"startTime":70.61531400000007,"endTime":71.07685200000009,"instrument":0,"program":28,"isDrum":false},{"pitch":60,"velocity":128,"startTime":70.61531400000007,"endTime":70.84608300000006,"instrument":0,"program":28,"isDrum":false},{"pitch":55,"velocity":128,"startTime":70.61531400000007,"endTime":71.07685200000009,"instrument":0,"program":28,"isDrum":false},{"pitch":48,"velocity":128,"startTime":70.84608300000006,"endTime":71.30762100000011,"instrument":0,"program":28,"isDrum":false},{"pitch":48,"velocity":128,"startTime":71.07685200000009,"endTime":71.30762100000011,"instrument":0,"program":28,"isDrum":false},{"pitch":50,"velocity":128,"startTime":71.30762100000011,"endTime":71.5383900000001,"instrument":0,"program":28,"isDrum":false},{"pitch":50,"velocity":128,"startTime":71.5383900000001,"endTime":71.99992800000011,"instrument":0,"program":28,"isDrum":false},{"pitch":62,"velocity":128,"startTime":71.5383900000001,"endTime":71.99992800000011,"instrument":0,"program":28,"isDrum":false},{"pitch":57,"velocity":128,"startTime":71.5383900000001,"endTime":71.99992800000011,"instrument":0,"program":28,"isDrum":false},{"pitch":47,"velocity":128,"startTime":71.99992800000011,"endTime":72.46146600000012,"instrument":0,"program":28,"isDrum":false},{"pitch":47,"velocity":128,"startTime":72.46146600000012,"endTime":72.92300400000013,"instrument":0,"program":28,"isDrum":false},{"pitch":54,"velocity":128,"startTime":72.46146600000012,"endTime":72.69223500000011,"instrument":0,"program":28,"isDrum":false},{"pitch":59,"velocity":128,"startTime":72.46146600000012,"endTime":72.69223500000011,"instrument":0,"program":28,"isDrum":false},{"pitch":47,"velocity":128,"startTime":72.69223500000011,"endTime":73.15377300000016,"instrument":0,"program":28,"isDrum":false},{"pitch":47,"velocity":128,"startTime":72.92300400000013,"endTime":73.15377300000016,"instrument":0,"program":28,"isDrum":false},{"pitch":50,"velocity":128,"startTime":73.15377300000016,"endTime":73.38454200000015,"instrument":0,"program":28,"isDrum":false},{"pitch":50,"velocity":128,"startTime":73.38454200000015,"endTime":73.84608000000016,"instrument":0,"program":28,"isDrum":false},{"pitch":57,"velocity":128,"startTime":73.38454200000015,"endTime":73.84608000000016,"instrument":0,"program":28,"isDrum":false},{"pitch":62,"velocity":128,"startTime":73.38454200000015,"endTime":73.84608000000016,"instrument":0,"program":28,"isDrum":false},{"pitch":40,"velocity":128,"startTime":73.84608000000016,"endTime":74.30761800000016,"instrument":0,"program":28,"isDrum":false},{"pitch":52,"velocity":128,"startTime":74.30761800000016,"endTime":74.53838700000016,"instrument":0,"program":28,"isDrum":false},{"pitch":47,"velocity":128,"startTime":74.30761800000016,"endTime":74.53838700000016,"instrument":0,"program":28,"isDrum":false},{"pitch":40,"velocity":128,"startTime":74.53838700000016,"endTime":74.76915600000015,"instrument":0,"program":28,"isDrum":false},{"pitch":44,"velocity":128,"startTime":74.76915600000015,"endTime":75.23069400000016,"instrument":0,"program":28,"isDrum":false},{"pitch":56,"velocity":128,"startTime":75.23069400000016,"endTime":75.46146300000015,"instrument":0,"program":28,"isDrum":false},{"pitch":51,"velocity":128,"startTime":75.23069400000016,"endTime":75.46146300000015,"instrument":0,"program":28,"isDrum":false},{"pitch":44,"velocity":128,"startTime":75.46146300000015,"endTime":75.69223200000015,"instrument":0,"program":28,"isDrum":false},{"pitch":49,"velocity":128,"startTime":75.69223200000015,"endTime":76.15377000000015,"instrument":0,"program":28,"isDrum":false},{"pitch":61,"velocity":128,"startTime":76.15377000000015,"endTime":76.38453900000015,"instrument":0,"program":28,"isDrum":false},{"pitch":54,"velocity":128,"startTime":76.15377000000015,"endTime":76.38453900000015,"instrument":0,"program":28,"isDrum":false},{"pitch":49,"velocity":128,"startTime":76.38453900000015,"endTime":76.61530800000014,"instrument":0,"program":28,"isDrum":false},{"pitch":45,"velocity":128,"startTime":76.61530800000014,"endTime":77.07684600000015,"instrument":0,"program":28,"isDrum":false},{"pitch":57,"velocity":128,"startTime":77.07684600000015,"endTime":77.30761500000014,"instrument":0,"program":28,"isDrum":false},{"pitch":52,"velocity":128,"startTime":77.07684600000015,"endTime":77.23069200000015,"instrument":0,"program":28,"isDrum":false},{"pitch":45,"velocity":128,"startTime":77.30761500000014,"endTime":77.53838400000014,"instrument":0,"program":28,"isDrum":false},{"pitch":48,"velocity":128,"startTime":77.53838400000014,"endTime":77.99992200000014,"instrument":0,"program":28,"isDrum":false},{"pitch":48,"velocity":128,"startTime":77.99992200000014,"endTime":78.46146000000016,"instrument":0,"program":28,"isDrum":false},{"pitch":60,"velocity":128,"startTime":77.99992200000014,"endTime":78.23069100000014,"instrument":0,"program":28,"isDrum":false},{"pitch":55,"velocity":128,"startTime":77.99992200000014,"endTime":78.46146000000016,"instrument":0,"program":28,"isDrum":false},{"pitch":48,"velocity":128,"startTime":78.23069100000014,"endTime":78.69222900000018,"instrument":0,"program":28,"isDrum":false},{"pitch":48,"velocity":128,"startTime":78.46146000000016,"endTime":78.69222900000018,"instrument":0,"program":28,"isDrum":false},{"pitch":50,"velocity":128,"startTime":78.69222900000018,"endTime":78.92299800000018,"instrument":0,"program":28,"isDrum":false},{"pitch":50,"velocity":128,"startTime":78.92299800000018,"endTime":79.38453600000018,"instrument":0,"program":28,"isDrum":false},{"pitch":62,"velocity":128,"startTime":78.92299800000018,"endTime":79.38453600000018,"instrument":0,"program":28,"isDrum":false},{"pitch":57,"velocity":128,"startTime":78.92299800000018,"endTime":79.38453600000018,"instrument":0,"program":28,"isDrum":false},{"pitch":47,"velocity":128,"startTime":79.38453600000018,"endTime":79.84607400000019,"instrument":0,"program":28,"isDrum":false},{"pitch":47,"velocity":128,"startTime":79.84607400000019,"endTime":80.3076120000002,"instrument":0,"program":28,"isDrum":false},{"pitch":54,"velocity":128,"startTime":79.84607400000019,"endTime":80.07684300000018,"instrument":0,"program":28,"isDrum":false},{"pitch":59,"velocity":128,"startTime":79.84607400000019,"endTime":80.07684300000018,"instrument":0,"program":28,"isDrum":false},{"pitch":47,"velocity":128,"startTime":80.07684300000018,"endTime":80.53838100000023,"instrument":0,"program":28,"isDrum":false},{"pitch":47,"velocity":128,"startTime":80.3076120000002,"endTime":80.53838100000023,"instrument":0,"program":28,"isDrum":false},{"pitch":50,"velocity":128,"startTime":80.53838100000023,"endTime":80.76915000000022,"instrument":0,"program":28,"isDrum":false},{"pitch":50,"velocity":128,"startTime":80.76915000000022,"endTime":81.23068800000023,"instrument":0,"program":28,"isDrum":false},{"pitch":57,"velocity":128,"startTime":80.76915000000022,"endTime":81.23068800000023,"instrument":0,"program":28,"isDrum":false},{"pitch":62,"velocity":128,"startTime":80.76915000000022,"endTime":81.23068800000023,"instrument":0,"program":28,"isDrum":false},{"pitch":40,"velocity":128,"startTime":81.23068800000023,"endTime":81.69222600000023,"instrument":0,"program":28,"isDrum":false},{"pitch":52,"velocity":128,"startTime":81.69222600000023,"endTime":81.92299500000023,"instrument":0,"program":28,"isDrum":false},{"pitch":47,"velocity":128,"startTime":81.69222600000023,"endTime":81.92299500000023,"instrument":0,"program":28,"isDrum":false},{"pitch":40,"velocity":128,"startTime":81.92299500000023,"endTime":82.15376400000022,"instrument":0,"program":28,"isDrum":false},{"pitch":44,"velocity":128,"startTime":82.15376400000022,"endTime":82.61530200000023,"instrument":0,"program":28,"isDrum":false},{"pitch":56,"velocity":128,"startTime":82.61530200000023,"endTime":82.84607100000022,"instrument":0,"program":28,"isDrum":false},{"pitch":51,"velocity":128,"startTime":82.61530200000023,"endTime":82.84607100000022,"instrument":0,"program":28,"isDrum":false},{"pitch":44,"velocity":128,"startTime":82.84607100000022,"endTime":83.07684000000022,"instrument":0,"program":28,"isDrum":false},{"pitch":49,"velocity":128,"startTime":83.07684000000022,"endTime":83.53837800000022,"instrument":0,"program":28,"isDrum":false},{"pitch":61,"velocity":128,"startTime":83.53837800000022,"endTime":83.76914700000022,"instrument":0,"program":28,"isDrum":false},{"pitch":54,"velocity":128,"startTime":83.53837800000022,"endTime":83.76914700000022,"instrument":0,"program":28,"isDrum":false},{"pitch":49,"velocity":128,"startTime":83.76914700000022,"endTime":83.99991600000021,"instrument":0,"program":28,"isDrum":false},{"pitch":45,"velocity":128,"startTime":83.99991600000021,"endTime":84.46145400000022,"instrument":0,"program":28,"isDrum":false},{"pitch":57,"velocity":128,"startTime":84.46145400000022,"endTime":84.69222300000021,"instrument":0,"program":28,"isDrum":false},{"pitch":52,"velocity":128,"startTime":84.46145400000022,"endTime":84.61530000000022,"instrument":0,"program":28,"isDrum":false},{"pitch":45,"velocity":128,"startTime":84.69222300000021,"endTime":84.9229920000002,"instrument":0,"program":28,"isDrum":false},{"pitch":48,"velocity":128,"startTime":84.9229920000002,"endTime":85.1537610000002,"instrument":0,"program":28,"isDrum":false},{"pitch":55,"velocity":128,"startTime":84.9229920000002,"endTime":85.1537610000002,"instrument":0,"program":28,"isDrum":false},{"pitch":60,"velocity":128,"startTime":84.9229920000002,"endTime":85.1537610000002,"instrument":0,"program":28,"isDrum":false},{"pitch":60,"velocity":128,"startTime":85.1537610000002,"endTime":85.3845300000002,"instrument":0,"program":28,"isDrum":false},{"pitch":55,"velocity":128,"startTime":85.1537610000002,"endTime":85.3845300000002,"instrument":0,"program":28,"isDrum":false},{"pitch":48,"velocity":128,"startTime":85.1537610000002,"endTime":85.3845300000002,"instrument":0,"program":28,"isDrum":false},{"pitch":48,"velocity":128,"startTime":85.3845300000002,"endTime":85.61529900000019,"instrument":0,"program":28,"isDrum":false},{"pitch":55,"velocity":128,"startTime":85.3845300000002,"endTime":85.61529900000019,"instrument":0,"program":28,"isDrum":false},{"pitch":60,"velocity":128,"startTime":85.3845300000002,"endTime":85.61529900000019,"instrument":0,"program":28,"isDrum":false},{"pitch":60,"velocity":128,"startTime":85.61529900000019,"endTime":85.7306835000002,"instrument":0,"program":28,"isDrum":false},{"pitch":55,"velocity":128,"startTime":85.61529900000019,"endTime":85.7306835000002,"instrument":0,"program":28,"isDrum":false},{"pitch":48,"velocity":128,"startTime":85.61529900000019,"endTime":85.7306835000002,"instrument":0,"program":28,"isDrum":false},{"pitch":48,"velocity":128,"startTime":85.7306835000002,"endTime":85.8460680000002,"instrument":0,"program":28,"isDrum":false},{"pitch":55,"velocity":128,"startTime":85.7306835000002,"endTime":85.8460680000002,"instrument":0,"program":28,"isDrum":false},{"pitch":60,"velocity":128,"startTime":85.7306835000002,"endTime":85.8460680000002,"instrument":0,"program":28,"isDrum":false},{"pitch":60,"velocity":128,"startTime":85.8460680000002,"endTime":86.0768370000002,"instrument":0,"program":28,"isDrum":false},{"pitch":55,"velocity":128,"startTime":85.8460680000002,"endTime":86.0768370000002,"instrument":0,"program":28,"isDrum":false},{"pitch":48,"velocity":128,"startTime":85.8460680000002,"endTime":86.0768370000002,"instrument":0,"program":28,"isDrum":false},{"pitch":62,"velocity":128,"startTime":86.0768370000002,"endTime":86.30760600000019,"instrument":0,"program":28,"isDrum":false},{"pitch":57,"velocity":128,"startTime":86.0768370000002,"endTime":86.30760600000019,"instrument":0,"program":28,"isDrum":false},{"pitch":50,"velocity":128,"startTime":86.0768370000002,"endTime":86.30760600000019,"instrument":0,"program":28,"isDrum":false},{"pitch":50,"velocity":128,"startTime":86.30760600000019,"endTime":86.7691440000002,"instrument":0,"program":28,"isDrum":false},{"pitch":62,"velocity":128,"startTime":86.30760600000019,"endTime":86.7691440000002,"instrument":0,"program":28,"isDrum":false},{"pitch":57,"velocity":128,"startTime":86.30760600000019,"endTime":86.7691440000002,"instrument":0,"program":28,"isDrum":false},{"pitch":41,"velocity":128,"startTime":7.384607999999999,"endTime":7.538453999999999,"instrument":1,"program":118,"isDrum":true},{"pitch":43,"velocity":103,"startTime":7.384607999999999,"endTime":7.538453999999999,"instrument":1,"program":118,"isDrum":true},{"pitch":45,"velocity":103,"startTime":7.384607999999999,"endTime":7.538453999999999,"instrument":1,"program":118,"isDrum":true},{"pitch":54,"velocity":128,"startTime":7.384607999999999,"endTime":7.538453999999999,"instrument":1,"program":118,"isDrum":true},{"pitch":54,"velocity":128,"startTime":7.615377,"endTime":7.769222999999999,"instrument":1,"program":118,"isDrum":true},{"pitch":54,"velocity":128,"startTime":7.846146,"endTime":7.999992,"instrument":1,"program":118,"isDrum":true},{"pitch":40,"velocity":109,"startTime":7.846146,"endTime":7.999992,"instrument":1,"program":118,"isDrum":true},{"pitch":54,"velocity":128,"startTime":8.076915000000001,"endTime":8.230761000000001,"instrument":1,"program":118,"isDrum":true},{"pitch":54,"velocity":128,"startTime":8.307684000000002,"endTime":8.461530000000002,"instrument":1,"program":118,"isDrum":true},{"pitch":54,"velocity":128,"startTime":8.538453000000002,"endTime":8.692299000000002,"instrument":1,"program":118,"isDrum":true},{"pitch":54,"velocity":128,"startTime":8.769222000000003,"endTime":8.923068000000002,"instrument":1,"program":118,"isDrum":true},{"pitch":40,"velocity":109,"startTime":8.769222000000003,"endTime":8.923068000000002,"instrument":1,"program":118,"isDrum":true},{"pitch":54,"velocity":128,"startTime":8.999991000000003,"endTime":9.153837000000003,"instrument":1,"program":118,"isDrum":true},{"pitch":54,"velocity":128,"startTime":9.230760000000004,"endTime":9.384606000000003,"instrument":1,"program":118,"isDrum":true},{"pitch":41,"velocity":128,"startTime":9.230760000000004,"endTime":9.384606000000003,"instrument":1,"program":118,"isDrum":true},{"pitch":43,"velocity":103,"startTime":9.230760000000004,"endTime":9.384606000000003,"instrument":1,"program":118,"isDrum":true},{"pitch":45,"velocity":103,"startTime":9.230760000000004,"endTime":9.384606000000003,"instrument":1,"program":118,"isDrum":true},{"pitch":54,"velocity":128,"startTime":9.461529000000004,"endTime":9.615375000000004,"instrument":1,"program":118,"isDrum":true},{"pitch":54,"velocity":128,"startTime":9.692298000000005,"endTime":9.846144000000004,"instrument":1,"program":118,"isDrum":true},{"pitch":40,"velocity":109,"startTime":9.692298000000005,"endTime":9.846144000000004,"instrument":1,"program":118,"isDrum":true},{"pitch":54,"velocity":128,"startTime":9.923067000000005,"endTime":10.076913000000005,"instrument":1,"program":118,"isDrum":true},{"pitch":54,"velocity":128,"startTime":10.153836000000005,"endTime":10.307682000000005,"instrument":1,"program":118,"isDrum":true},{"pitch":54,"velocity":128,"startTime":10.384605000000006,"endTime":10.538451000000006,"instrument":1,"program":118,"isDrum":true},{"pitch":54,"velocity":128,"startTime":10.615374000000006,"endTime":10.769220000000006,"instrument":1,"program":118,"isDrum":true},{"pitch":40,"velocity":109,"startTime":10.615374000000006,"endTime":10.769220000000006,"instrument":1,"program":118,"isDrum":true},{"pitch":54,"velocity":128,"startTime":10.846143000000007,"endTime":10.999989000000006,"instrument":1,"program":118,"isDrum":true},{"pitch":54,"velocity":128,"startTime":11.076912000000007,"endTime":11.230758000000007,"instrument":1,"program":118,"isDrum":true},{"pitch":41,"velocity":128,"startTime":11.076912000000007,"endTime":11.230758000000007,"instrument":1,"program":118,"isDrum":true},{"pitch":43,"velocity":103,"startTime":11.076912000000007,"endTime":11.230758000000007,"instrument":1,"program":118,"isDrum":true},{"pitch":45,"velocity":103,"startTime":11.076912000000007,"endTime":11.230758000000007,"instrument":1,"program":118,"isDrum":true},{"pitch":54,"velocity":128,"startTime":11.307681000000008,"endTime":11.461527000000007,"instrument":1,"program":118,"isDrum":true},{"pitch":54,"velocity":128,"startTime":11.538450000000008,"endTime":11.692296000000008,"instrument":1,"program":118,"isDrum":true},{"pitch":40,"velocity":109,"startTime":11.538450000000008,"endTime":11.692296000000008,"instrument":1,"program":118,"isDrum":true},{"pitch":54,"velocity":128,"startTime":11.769219000000009,"endTime":11.923065000000008,"instrument":1,"program":118,"isDrum":true},{"pitch":54,"velocity":128,"startTime":11.999988000000009,"endTime":12.153834000000009,"instrument":1,"program":118,"isDrum":true},{"pitch":54,"velocity":128,"startTime":12.23075700000001,"endTime":12.38460300000001,"instrument":1,"program":118,"isDrum":true},{"pitch":54,"velocity":128,"startTime":12.46152600000001,"endTime":12.61537200000001,"instrument":1,"program":118,"isDrum":true},{"pitch":40,"velocity":109,"startTime":12.46152600000001,"endTime":12.61537200000001,"instrument":1,"program":118,"isDrum":true},{"pitch":54,"velocity":128,"startTime":12.69229500000001,"endTime":12.84614100000001,"instrument":1,"program":118,"isDrum":true},{"pitch":54,"velocity":128,"startTime":12.92306400000001,"endTime":13.07691000000001,"instrument":1,"program":118,"isDrum":true},{"pitch":41,"velocity":128,"startTime":12.92306400000001,"endTime":13.07691000000001,"instrument":1,"program":118,"isDrum":true},{"pitch":43,"velocity":103,"startTime":12.92306400000001,"endTime":13.07691000000001,"instrument":1,"program":118,"isDrum":true},{"pitch":45,"velocity":103,"startTime":12.92306400000001,"endTime":13.07691000000001,"instrument":1,"program":118,"isDrum":true},{"pitch":54,"velocity":128,"startTime":13.153833000000011,"endTime":13.307679000000011,"instrument":1,"program":118,"isDrum":true},{"pitch":54,"velocity":128,"startTime":13.384602000000012,"endTime":13.538448000000011,"instrument":1,"program":118,"isDrum":true},{"pitch":40,"velocity":109,"startTime":13.384602000000012,"endTime":13.538448000000011,"instrument":1,"program":118,"isDrum":true},{"pitch":54,"velocity":128,"startTime":13.615371000000012,"endTime":13.769217000000012,"instrument":1,"program":118,"isDrum":true},{"pitch":54,"velocity":128,"startTime":13.846140000000013,"endTime":13.999986000000012,"instrument":1,"program":118,"isDrum":true},{"pitch":54,"velocity":128,"startTime":14.076909000000013,"endTime":14.230755000000013,"instrument":1,"program":118,"isDrum":true},{"pitch":54,"velocity":128,"startTime":14.307678000000013,"endTime":14.461524000000013,"instrument":1,"program":118,"isDrum":true},{"pitch":40,"velocity":109,"startTime":14.307678000000013,"endTime":14.461524000000013,"instrument":1,"program":118,"isDrum":true},{"pitch":54,"velocity":128,"startTime":14.538447000000014,"endTime":14.692293000000014,"instrument":1,"program":118,"isDrum":true},{"pitch":54,"velocity":128,"startTime":14.769216000000014,"endTime":14.923062000000014,"instrument":1,"program":118,"isDrum":true},{"pitch":41,"velocity":128,"startTime":14.769216000000014,"endTime":14.923062000000014,"instrument":1,"program":118,"isDrum":true},{"pitch":43,"velocity":103,"startTime":14.769216000000014,"endTime":14.923062000000014,"instrument":1,"program":118,"isDrum":true},{"pitch":45,"velocity":103,"startTime":14.769216000000014,"endTime":14.923062000000014,"instrument":1,"program":118,"isDrum":true},{"pitch":54,"velocity":128,"startTime":14.999985000000015,"endTime":15.153831000000014,"instrument":1,"program":118,"isDrum":true},{"pitch":54,"velocity":128,"startTime":15.230754000000015,"endTime":15.384600000000015,"instrument":1,"program":118,"isDrum":true},{"pitch":40,"velocity":109,"startTime":15.230754000000015,"endTime":15.384600000000015,"instrument":1,"program":118,"isDrum":true},{"pitch":54,"velocity":128,"startTime":15.461523000000016,"endTime":15.615369000000017,"instrument":1,"program":118,"isDrum":true},{"pitch":54,"velocity":128,"startTime":15.692292000000018,"endTime":15.84613800000002,"instrument":1,"program":118,"isDrum":true},{"pitch":54,"velocity":128,"startTime":15.92306100000002,"endTime":16.07690700000002,"instrument":1,"program":118,"isDrum":true},{"pitch":54,"velocity":128,"startTime":16.15383000000002,"endTime":16.307676000000022,"instrument":1,"program":118,"isDrum":true},{"pitch":40,"velocity":109,"startTime":16.15383000000002,"endTime":16.307676000000022,"instrument":1,"program":118,"isDrum":true},{"pitch":54,"velocity":128,"startTime":16.384599000000023,"endTime":16.538445000000024,"instrument":1,"program":118,"isDrum":true},{"pitch":54,"velocity":128,"startTime":16.615368000000025,"endTime":16.769214000000026,"instrument":1,"program":118,"isDrum":true},{"pitch":41,"velocity":128,"startTime":16.615368000000025,"endTime":16.769214000000026,"instrument":1,"program":118,"isDrum":true},{"pitch":43,"velocity":103,"startTime":16.615368000000025,"endTime":16.769214000000026,"instrument":1,"program":118,"isDrum":true},{"pitch":45,"velocity":103,"startTime":16.615368000000025,"endTime":16.769214000000026,"instrument":1,"program":118,"isDrum":true},{"pitch":54,"velocity":128,"startTime":16.846137000000027,"endTime":16.99998300000003,"instrument":1,"program":118,"isDrum":true},{"pitch":54,"velocity":128,"startTime":17.07690600000003,"endTime":17.23075200000003,"instrument":1,"program":118,"isDrum":true},{"pitch":40,"velocity":109,"startTime":17.07690600000003,"endTime":17.23075200000003,"instrument":1,"program":118,"isDrum":true},{"pitch":54,"velocity":128,"startTime":17.30767500000003,"endTime":17.461521000000033,"instrument":1,"program":118,"isDrum":true},{"pitch":54,"velocity":128,"startTime":17.538444000000034,"endTime":17.692290000000035,"instrument":1,"program":118,"isDrum":true},{"pitch":54,"velocity":128,"startTime":17.769213000000036,"endTime":17.923059000000038,"instrument":1,"program":118,"isDrum":true},{"pitch":54,"velocity":128,"startTime":17.99998200000004,"endTime":18.15382800000004,"instrument":1,"program":118,"isDrum":true},{"pitch":40,"velocity":109,"startTime":17.99998200000004,"endTime":18.15382800000004,"instrument":1,"program":118,"isDrum":true},{"pitch":54,"velocity":128,"startTime":18.23075100000004,"endTime":18.384597000000042,"instrument":1,"program":118,"isDrum":true},{"pitch":54,"velocity":128,"startTime":18.461520000000043,"endTime":18.615366000000044,"instrument":1,"program":118,"isDrum":true},{"pitch":41,"velocity":128,"startTime":18.461520000000043,"endTime":18.615366000000044,"instrument":1,"program":118,"isDrum":true},{"pitch":43,"velocity":103,"startTime":18.461520000000043,"endTime":18.615366000000044,"instrument":1,"program":118,"isDrum":true},{"pitch":45,"velocity":103,"startTime":18.461520000000043,"endTime":18.615366000000044,"instrument":1,"program":118,"isDrum":true},{"pitch":54,"velocity":128,"startTime":18.692289000000045,"endTime":18.846135000000046,"instrument":1,"program":118,"isDrum":true},{"pitch":54,"velocity":128,"startTime":18.923058000000047,"endTime":19.07690400000005,"instrument":1,"program":118,"isDrum":true},{"pitch":40,"velocity":109,"startTime":18.923058000000047,"endTime":19.07690400000005,"instrument":1,"program":118,"isDrum":true},{"pitch":54,"velocity":128,"startTime":19.15382700000005,"endTime":19.30767300000005,"instrument":1,"program":118,"isDrum":true},{"pitch":54,"velocity":128,"startTime":19.38459600000005,"endTime":19.538442000000053,"instrument":1,"program":118,"isDrum":true},{"pitch":54,"velocity":128,"startTime":19.615365000000054,"endTime":19.769211000000055,"instrument":1,"program":118,"isDrum":true},{"pitch":54,"velocity":128,"startTime":19.846134000000056,"endTime":19.999980000000058,"instrument":1,"program":118,"isDrum":true},{"pitch":40,"velocity":109,"startTime":19.846134000000056,"endTime":19.999980000000058,"instrument":1,"program":118,"isDrum":true},{"pitch":54,"velocity":128,"startTime":20.07690300000006,"endTime":20.23074900000006,"instrument":1,"program":118,"isDrum":true},{"pitch":54,"velocity":128,"startTime":20.30767200000006,"endTime":20.461518000000062,"instrument":1,"program":118,"isDrum":true},{"pitch":41,"velocity":128,"startTime":20.30767200000006,"endTime":20.461518000000062,"instrument":1,"program":118,"isDrum":true},{"pitch":43,"velocity":103,"startTime":20.30767200000006,"endTime":20.461518000000062,"instrument":1,"program":118,"isDrum":true},{"pitch":45,"velocity":103,"startTime":20.30767200000006,"endTime":20.461518000000062,"instrument":1,"program":118,"isDrum":true},{"pitch":54,"velocity":128,"startTime":20.538441000000063,"endTime":20.692287000000064,"instrument":1,"program":118,"isDrum":true},{"pitch":54,"velocity":128,"startTime":20.769210000000065,"endTime":20.923056000000066,"instrument":1,"program":118,"isDrum":true},{"pitch":40,"velocity":109,"startTime":20.769210000000065,"endTime":20.923056000000066,"instrument":1,"program":118,"isDrum":true},{"pitch":54,"velocity":128,"startTime":20.999979000000067,"endTime":21.15382500000007,"instrument":1,"program":118,"isDrum":true},{"pitch":54,"velocity":128,"startTime":21.23074800000007,"endTime":21.38459400000007,"instrument":1,"program":118,"isDrum":true},{"pitch":54,"velocity":128,"startTime":21.46151700000007,"endTime":21.615363000000073,"instrument":1,"program":118,"isDrum":true},{"pitch":54,"velocity":128,"startTime":21.692286000000074,"endTime":21.846132000000075,"instrument":1,"program":118,"isDrum":true},{"pitch":40,"velocity":109,"startTime":21.692286000000074,"endTime":21.846132000000075,"instrument":1,"program":118,"isDrum":true},{"pitch":54,"velocity":128,"startTime":21.923055000000076,"endTime":22.076901000000078,"instrument":1,"program":118,"isDrum":true},{"pitch":41,"velocity":128,"startTime":22.15382400000008,"endTime":22.30767000000008,"instrument":1,"program":118,"isDrum":true},{"pitch":43,"velocity":103,"startTime":22.15382400000008,"endTime":22.30767000000008,"instrument":1,"program":118,"isDrum":true},{"pitch":45,"velocity":103,"startTime":22.15382400000008,"endTime":22.30767000000008,"instrument":1,"program":118,"isDrum":true},{"pitch":54,"velocity":128,"startTime":22.15382400000008,"endTime":22.30767000000008,"instrument":1,"program":118,"isDrum":true},{"pitch":54,"velocity":128,"startTime":22.38459300000008,"endTime":22.538439000000082,"instrument":1,"program":118,"isDrum":true},{"pitch":54,"velocity":128,"startTime":22.615362000000083,"endTime":22.769208000000084,"instrument":1,"program":118,"isDrum":true},{"pitch":40,"velocity":109,"startTime":22.615362000000083,"endTime":22.769208000000084,"instrument":1,"program":118,"isDrum":true},{"pitch":54,"velocity":128,"startTime":22.846131000000085,"endTime":22.999977000000086,"instrument":1,"program":118,"isDrum":true},{"pitch":54,"velocity":128,"startTime":23.076900000000087,"endTime":23.23074600000009,"instrument":1,"program":118,"isDrum":true},{"pitch":54,"velocity":128,"startTime":23.30766900000009,"endTime":23.46151500000009,"instrument":1,"program":118,"isDrum":true},{"pitch":54,"velocity":128,"startTime":23.53843800000009,"endTime":23.692284000000093,"instrument":1,"program":118,"isDrum":true},{"pitch":40,"velocity":109,"startTime":23.53843800000009,"endTime":23.692284000000093,"instrument":1,"program":118,"isDrum":true},{"pitch":54,"velocity":128,"startTime":23.769207000000094,"endTime":23.923053000000095,"instrument":1,"program":118,"isDrum":true},{"pitch":54,"velocity":128,"startTime":23.999976000000096,"endTime":24.153822000000098,"instrument":1,"program":118,"isDrum":true},{"pitch":41,"velocity":128,"startTime":23.999976000000096,"endTime":24.153822000000098,"instrument":1,"program":118,"isDrum":true},{"pitch":43,"velocity":103,"startTime":23.999976000000096,"endTime":24.153822000000098,"instrument":1,"program":118,"isDrum":true},{"pitch":45,"velocity":103,"startTime":23.999976000000096,"endTime":24.153822000000098,"instrument":1,"program":118,"isDrum":true},{"pitch":54,"velocity":128,"startTime":24.2307450000001,"endTime":24.3845910000001,"instrument":1,"program":118,"isDrum":true},{"pitch":54,"velocity":128,"startTime":24.4615140000001,"endTime":24.615360000000102,"instrument":1,"program":118,"isDrum":true},{"pitch":40,"velocity":109,"startTime":24.4615140000001,"endTime":24.615360000000102,"instrument":1,"program":118,"isDrum":true},{"pitch":54,"velocity":128,"startTime":24.692283000000103,"endTime":24.846129000000104,"instrument":1,"program":118,"isDrum":true},{"pitch":54,"velocity":128,"startTime":24.923052000000105,"endTime":25.076898000000106,"instrument":1,"program":118,"isDrum":true},{"pitch":54,"velocity":128,"startTime":25.153821000000107,"endTime":25.30766700000011,"instrument":1,"program":118,"isDrum":true},{"pitch":54,"velocity":128,"startTime":25.38459000000011,"endTime":25.53843600000011,"instrument":1,"program":118,"isDrum":true},{"pitch":40,"velocity":109,"startTime":25.38459000000011,"endTime":25.53843600000011,"instrument":1,"program":118,"isDrum":true},{"pitch":54,"velocity":128,"startTime":25.61535900000011,"endTime":25.769205000000113,"instrument":1,"program":118,"isDrum":true},{"pitch":54,"velocity":128,"startTime":25.846128000000114,"endTime":25.999974000000115,"instrument":1,"program":118,"isDrum":true},{"pitch":41,"velocity":128,"startTime":25.846128000000114,"endTime":25.999974000000115,"instrument":1,"program":118,"isDrum":true},{"pitch":43,"velocity":103,"startTime":25.846128000000114,"endTime":25.999974000000115,"instrument":1,"program":118,"isDrum":true},{"pitch":45,"velocity":103,"startTime":25.846128000000114,"endTime":25.999974000000115,"instrument":1,"program":118,"isDrum":true},{"pitch":54,"velocity":128,"startTime":26.076897000000116,"endTime":26.230743000000118,"instrument":1,"program":118,"isDrum":true},{"pitch":54,"velocity":128,"startTime":26.30766600000012,"endTime":26.46151200000012,"instrument":1,"program":118,"isDrum":true},{"pitch":40,"velocity":109,"startTime":26.30766600000012,"endTime":26.46151200000012,"instrument":1,"program":118,"isDrum":true},{"pitch":54,"velocity":128,"startTime":26.53843500000012,"endTime":26.692281000000122,"instrument":1,"program":118,"isDrum":true},{"pitch":54,"velocity":128,"startTime":26.769204000000123,"endTime":26.923050000000124,"instrument":1,"program":118,"isDrum":true},{"pitch":54,"velocity":128,"startTime":26.999973000000125,"endTime":27.153819000000126,"instrument":1,"program":118,"isDrum":true},{"pitch":54,"velocity":128,"startTime":27.230742000000127,"endTime":27.38458800000013,"instrument":1,"program":118,"isDrum":true},{"pitch":40,"velocity":109,"startTime":27.230742000000127,"endTime":27.38458800000013,"instrument":1,"program":118,"isDrum":true},{"pitch":54,"velocity":128,"startTime":27.46151100000013,"endTime":27.61535700000013,"instrument":1,"program":118,"isDrum":true},{"pitch":54,"velocity":128,"startTime":27.69228000000013,"endTime":27.846126000000133,"instrument":1,"program":118,"isDrum":true},{"pitch":41,"velocity":128,"startTime":27.69228000000013,"endTime":27.846126000000133,"instrument":1,"program":118,"isDrum":true},{"pitch":43,"velocity":103,"startTime":27.69228000000013,"endTime":27.846126000000133,"instrument":1,"program":118,"isDrum":true},{"pitch":45,"velocity":103,"startTime":27.69228000000013,"endTime":27.846126000000133,"instrument":1,"program":118,"isDrum":true},{"pitch":54,"velocity":128,"startTime":27.923049000000134,"endTime":28.076895000000135,"instrument":1,"program":118,"isDrum":true},{"pitch":54,"velocity":128,"startTime":28.153818000000136,"endTime":28.307664000000138,"instrument":1,"program":118,"isDrum":true},{"pitch":40,"velocity":109,"startTime":28.153818000000136,"endTime":28.307664000000138,"instrument":1,"program":118,"isDrum":true},{"pitch":54,"velocity":128,"startTime":28.38458700000014,"endTime":28.53843300000014,"instrument":1,"program":118,"isDrum":true},{"pitch":54,"velocity":128,"startTime":28.61535600000014,"endTime":28.769202000000142,"instrument":1,"program":118,"isDrum":true},{"pitch":54,"velocity":128,"startTime":28.846125000000143,"endTime":28.999971000000144,"instrument":1,"program":118,"isDrum":true},{"pitch":54,"velocity":128,"startTime":29.076894000000145,"endTime":29.230740000000146,"instrument":1,"program":118,"isDrum":true},{"pitch":40,"velocity":109,"startTime":29.076894000000145,"endTime":29.230740000000146,"instrument":1,"program":118,"isDrum":true},{"pitch":54,"velocity":128,"startTime":29.307663000000147,"endTime":29.46150900000015,"instrument":1,"program":118,"isDrum":true},{"pitch":41,"velocity":128,"startTime":29.53843200000015,"endTime":29.69227800000015,"instrument":1,"program":118,"isDrum":true},{"pitch":43,"velocity":103,"startTime":29.53843200000015,"endTime":29.69227800000015,"instrument":1,"program":118,"isDrum":true},{"pitch":45,"velocity":103,"startTime":29.53843200000015,"endTime":29.69227800000015,"instrument":1,"program":118,"isDrum":true},{"pitch":54,"velocity":128,"startTime":29.53843200000015,"endTime":29.69227800000015,"instrument":1,"program":118,"isDrum":true},{"pitch":54,"velocity":128,"startTime":29.76920100000015,"endTime":29.923047000000153,"instrument":1,"program":118,"isDrum":true},{"pitch":54,"velocity":128,"startTime":29.999970000000154,"endTime":30.153816000000155,"instrument":1,"program":118,"isDrum":true},{"pitch":40,"velocity":109,"startTime":29.999970000000154,"endTime":30.153816000000155,"instrument":1,"program":118,"isDrum":true},{"pitch":54,"velocity":128,"startTime":30.230739000000156,"endTime":30.384585000000158,"instrument":1,"program":118,"isDrum":true},{"pitch":54,"velocity":128,"startTime":30.46150800000016,"endTime":30.61535400000016,"instrument":1,"program":118,"isDrum":true},{"pitch":54,"velocity":128,"startTime":30.69227700000016,"endTime":30.846123000000162,"instrument":1,"program":118,"isDrum":true},{"pitch":54,"velocity":128,"startTime":30.923046000000163,"endTime":31.076892000000164,"instrument":1,"program":118,"isDrum":true},{"pitch":40,"velocity":109,"startTime":30.923046000000163,"endTime":31.076892000000164,"instrument":1,"program":118,"isDrum":true},{"pitch":54,"velocity":128,"startTime":31.153815000000165,"endTime":31.307661000000166,"instrument":1,"program":118,"isDrum":true},{"pitch":54,"velocity":128,"startTime":31.384584000000167,"endTime":31.53843000000017,"instrument":1,"program":118,"isDrum":true},{"pitch":41,"velocity":128,"startTime":31.384584000000167,"endTime":31.53843000000017,"instrument":1,"program":118,"isDrum":true},{"pitch":43,"velocity":103,"startTime":31.384584000000167,"endTime":31.53843000000017,"instrument":1,"program":118,"isDrum":true},{"pitch":45,"velocity":103,"startTime":31.384584000000167,"endTime":31.53843000000017,"instrument":1,"program":118,"isDrum":true},{"pitch":54,"velocity":128,"startTime":31.615353000000166,"endTime":31.769199000000167,"instrument":1,"program":118,"isDrum":true},{"pitch":54,"velocity":128,"startTime":31.846122000000168,"endTime":31.99996800000017,"instrument":1,"program":118,"isDrum":true},{"pitch":40,"velocity":109,"startTime":31.846122000000168,"endTime":31.99996800000017,"instrument":1,"program":118,"isDrum":true},{"pitch":54,"velocity":128,"startTime":32.076891000000174,"endTime":32.230737000000175,"instrument":1,"program":118,"isDrum":true},{"pitch":54,"velocity":128,"startTime":32.307660000000176,"endTime":32.46150600000018,"instrument":1,"program":118,"isDrum":true},{"pitch":54,"velocity":128,"startTime":32.53842900000018,"endTime":32.69227500000018,"instrument":1,"program":118,"isDrum":true},{"pitch":54,"velocity":128,"startTime":32.76919800000018,"endTime":32.92304400000018,"instrument":1,"program":118,"isDrum":true},{"pitch":40,"velocity":109,"startTime":32.76919800000018,"endTime":32.92304400000018,"instrument":1,"program":118,"isDrum":true},{"pitch":54,"velocity":128,"startTime":32.99996700000018,"endTime":33.153813000000184,"instrument":1,"program":118,"isDrum":true},{"pitch":54,"velocity":128,"startTime":33.230736000000185,"endTime":33.38458200000019,"instrument":1,"program":118,"isDrum":true},{"pitch":41,"velocity":128,"startTime":33.230736000000185,"endTime":33.38458200000019,"instrument":1,"program":118,"isDrum":true},{"pitch":43,"velocity":103,"startTime":33.230736000000185,"endTime":33.38458200000019,"instrument":1,"program":118,"isDrum":true},{"pitch":45,"velocity":103,"startTime":33.230736000000185,"endTime":33.38458200000019,"instrument":1,"program":118,"isDrum":true},{"pitch":54,"velocity":128,"startTime":33.46150500000019,"endTime":33.61535100000019,"instrument":1,"program":118,"isDrum":true},{"pitch":54,"velocity":128,"startTime":33.69227400000019,"endTime":33.84612000000019,"instrument":1,"program":118,"isDrum":true},{"pitch":40,"velocity":109,"startTime":33.69227400000019,"endTime":33.84612000000019,"instrument":1,"program":118,"isDrum":true},{"pitch":54,"velocity":128,"startTime":33.92304300000019,"endTime":34.07688900000019,"instrument":1,"program":118,"isDrum":true},{"pitch":54,"velocity":128,"startTime":34.153812000000194,"endTime":34.307658000000195,"instrument":1,"program":118,"isDrum":true},{"pitch":54,"velocity":128,"startTime":34.384581000000196,"endTime":34.5384270000002,"instrument":1,"program":118,"isDrum":true},{"pitch":54,"velocity":128,"startTime":34.6153500000002,"endTime":34.7691960000002,"instrument":1,"program":118,"isDrum":true},{"pitch":40,"velocity":109,"startTime":34.6153500000002,"endTime":34.7691960000002,"instrument":1,"program":118,"isDrum":true},{"pitch":54,"velocity":128,"startTime":34.8461190000002,"endTime":34.9999650000002,"instrument":1,"program":118,"isDrum":true},{"pitch":38,"velocity":128,"startTime":35.0768880000002,"endTime":35.1538110000002,"instrument":1,"program":118,"isDrum":true},{"pitch":36,"velocity":128,"startTime":35.0768880000002,"endTime":35.1538110000002,"instrument":1,"program":118,"isDrum":true},{"pitch":57,"velocity":128,"startTime":35.0768880000002,"endTime":35.1538110000002,"instrument":1,"program":118,"isDrum":true},{"pitch":36,"velocity":128,"startTime":35.5384260000002,"endTime":35.6153490000002,"instrument":1,"program":118,"isDrum":true},{"pitch":38,"velocity":128,"startTime":35.5384260000002,"endTime":35.6153490000002,"instrument":1,"program":118,"isDrum":true},{"pitch":57,"velocity":128,"startTime":35.5384260000002,"endTime":35.6153490000002,"instrument":1,"program":118,"isDrum":true},{"pitch":36,"velocity":128,"startTime":35.6538105000002,"endTime":35.7307335000002,"instrument":1,"program":118,"isDrum":true},{"pitch":36,"velocity":128,"startTime":35.769195000000195,"endTime":35.846118000000196,"instrument":1,"program":118,"isDrum":true},{"pitch":38,"velocity":128,"startTime":35.9999640000002,"endTime":36.0768870000002,"instrument":1,"program":118,"isDrum":true},{"pitch":36,"velocity":128,"startTime":35.9999640000002,"endTime":36.0768870000002,"instrument":1,"program":118,"isDrum":true},{"pitch":57,"velocity":128,"startTime":35.9999640000002,"endTime":36.0768870000002,"instrument":1,"program":118,"isDrum":true},{"pitch":36,"velocity":128,"startTime":36.115348500000195,"endTime":36.192271500000196,"instrument":1,"program":118,"isDrum":true},{"pitch":36,"velocity":128,"startTime":36.23073300000019,"endTime":36.30765600000019,"instrument":1,"program":118,"isDrum":true},{"pitch":36,"velocity":128,"startTime":36.461502000000195,"endTime":36.538425000000196,"instrument":1,"program":118,"isDrum":true},{"pitch":38,"velocity":128,"startTime":36.461502000000195,"endTime":36.538425000000196,"instrument":1,"program":118,"isDrum":true},{"pitch":57,"velocity":128,"startTime":36.461502000000195,"endTime":36.538425000000196,"instrument":1,"program":118,"isDrum":true},{"pitch":36,"velocity":128,"startTime":36.57688650000019,"endTime":36.65380950000019,"instrument":1,"program":118,"isDrum":true},{"pitch":36,"velocity":128,"startTime":36.69227100000019,"endTime":36.76919400000019,"instrument":1,"program":118,"isDrum":true},{"pitch":36,"velocity":128,"startTime":36.92304000000019,"endTime":37.076886000000194,"instrument":1,"program":118,"isDrum":true},{"pitch":38,"velocity":128,"startTime":36.92304000000019,"endTime":37.076886000000194,"instrument":1,"program":118,"isDrum":true},{"pitch":57,"velocity":128,"startTime":36.92304000000019,"endTime":37.076886000000194,"instrument":1,"program":118,"isDrum":true},{"pitch":38,"velocity":128,"startTime":37.3845780000002,"endTime":37.5384240000002,"instrument":1,"program":118,"isDrum":true},{"pitch":36,"velocity":128,"startTime":37.6153470000002,"endTime":37.7691930000002,"instrument":1,"program":118,"isDrum":true},{"pitch":38,"velocity":128,"startTime":37.6153470000002,"endTime":37.7691930000002,"instrument":1,"program":118,"isDrum":true},{"pitch":38,"velocity":128,"startTime":37.8461160000002,"endTime":37.9999620000002,"instrument":1,"program":118,"isDrum":true},{"pitch":36,"velocity":128,"startTime":37.8461160000002,"endTime":37.9999620000002,"instrument":1,"program":118,"isDrum":true},{"pitch":57,"velocity":128,"startTime":37.8461160000002,"endTime":37.9999620000002,"instrument":1,"program":118,"isDrum":true},{"pitch":38,"velocity":128,"startTime":38.307654000000205,"endTime":38.46150000000021,"instrument":1,"program":118,"isDrum":true},{"pitch":38,"velocity":128,"startTime":38.53842300000021,"endTime":38.69226900000021,"instrument":1,"program":118,"isDrum":true},{"pitch":36,"velocity":128,"startTime":38.53842300000021,"endTime":38.69226900000021,"instrument":1,"program":118,"isDrum":true},{"pitch":36,"velocity":128,"startTime":38.76919200000021,"endTime":38.92303800000021,"instrument":1,"program":118,"isDrum":true},{"pitch":38,"velocity":128,"startTime":38.76919200000021,"endTime":38.92303800000021,"instrument":1,"program":118,"isDrum":true},{"pitch":57,"velocity":128,"startTime":38.76919200000021,"endTime":38.92303800000021,"instrument":1,"program":118,"isDrum":true},{"pitch":38,"velocity":128,"startTime":39.230730000000214,"endTime":39.384576000000216,"instrument":1,"program":118,"isDrum":true},{"pitch":36,"velocity":128,"startTime":39.46149900000022,"endTime":39.61534500000022,"instrument":1,"program":118,"isDrum":true},{"pitch":38,"velocity":128,"startTime":39.46149900000022,"endTime":39.61534500000022,"instrument":1,"program":118,"isDrum":true},{"pitch":38,"velocity":128,"startTime":39.69226800000022,"endTime":39.84611400000022,"instrument":1,"program":118,"isDrum":true},{"pitch":36,"velocity":128,"startTime":39.69226800000022,"endTime":39.84611400000022,"instrument":1,"program":118,"isDrum":true},{"pitch":57,"velocity":128,"startTime":39.69226800000022,"endTime":39.84611400000022,"instrument":1,"program":118,"isDrum":true},{"pitch":38,"velocity":128,"startTime":40.15380600000022,"endTime":40.307652000000225,"instrument":1,"program":118,"isDrum":true},{"pitch":38,"velocity":128,"startTime":40.384575000000225,"endTime":40.53842100000023,"instrument":1,"program":118,"isDrum":true},{"pitch":36,"velocity":128,"startTime":40.384575000000225,"endTime":40.53842100000023,"instrument":1,"program":118,"isDrum":true},{"pitch":36,"velocity":128,"startTime":40.61534400000023,"endTime":40.76919000000023,"instrument":1,"program":118,"isDrum":true},{"pitch":38,"velocity":128,"startTime":40.61534400000023,"endTime":40.76919000000023,"instrument":1,"program":118,"isDrum":true},{"pitch":57,"velocity":128,"startTime":40.61534400000023,"endTime":40.76919000000023,"instrument":1,"program":118,"isDrum":true},{"pitch":57,"velocity":128,"startTime":41.07688200000023,"endTime":41.15380500000023,"instrument":1,"program":118,"isDrum":true},{"pitch":38,"velocity":128,"startTime":41.07688200000023,"endTime":41.15380500000023,"instrument":1,"program":118,"isDrum":true},{"pitch":36,"velocity":128,"startTime":41.07688200000023,"endTime":41.15380500000023,"instrument":1,"program":118,"isDrum":true},{"pitch":36,"velocity":128,"startTime":41.19226650000023,"endTime":41.26918950000023,"instrument":1,"program":118,"isDrum":true},{"pitch":36,"velocity":128,"startTime":41.30765100000023,"endTime":41.38457400000023,"instrument":1,"program":118,"isDrum":true},{"pitch":36,"velocity":128,"startTime":41.53842000000023,"endTime":41.61534300000023,"instrument":1,"program":118,"isDrum":true},{"pitch":38,"velocity":128,"startTime":41.53842000000023,"endTime":41.61534300000023,"instrument":1,"program":118,"isDrum":true},{"pitch":57,"velocity":128,"startTime":41.53842000000023,"endTime":41.61534300000023,"instrument":1,"program":118,"isDrum":true},{"pitch":36,"velocity":128,"startTime":41.65380450000023,"endTime":41.73072750000023,"instrument":1,"program":118,"isDrum":true},{"pitch":36,"velocity":128,"startTime":41.769189000000225,"endTime":41.846112000000225,"instrument":1,"program":118,"isDrum":true},{"pitch":57,"velocity":128,"startTime":41.99995800000023,"endTime":42.15380400000023,"instrument":1,"program":118,"isDrum":true},{"pitch":38,"velocity":128,"startTime":41.99995800000023,"endTime":42.15380400000023,"instrument":1,"program":118,"isDrum":true},{"pitch":36,"velocity":128,"startTime":41.99995800000023,"endTime":42.15380400000023,"instrument":1,"program":118,"isDrum":true},{"pitch":38,"velocity":128,"startTime":42.46149600000023,"endTime":42.53841900000023,"instrument":1,"program":118,"isDrum":true},{"pitch":36,"velocity":128,"startTime":42.46149600000023,"endTime":42.53841900000023,"instrument":1,"program":118,"isDrum":true},{"pitch":57,"velocity":128,"startTime":42.46149600000023,"endTime":42.53841900000023,"instrument":1,"program":118,"isDrum":true},{"pitch":36,"velocity":128,"startTime":42.92303400000023,"endTime":42.99995700000023,"instrument":1,"program":118,"isDrum":true},{"pitch":38,"velocity":128,"startTime":42.92303400000023,"endTime":42.99995700000023,"instrument":1,"program":118,"isDrum":true},{"pitch":57,"velocity":128,"startTime":42.92303400000023,"endTime":42.99995700000023,"instrument":1,"program":118,"isDrum":true},{"pitch":36,"velocity":128,"startTime":43.038418500000226,"endTime":43.11534150000023,"instrument":1,"program":118,"isDrum":true},{"pitch":36,"velocity":128,"startTime":43.153803000000224,"endTime":43.230726000000224,"instrument":1,"program":118,"isDrum":true},{"pitch":38,"velocity":128,"startTime":43.384572000000226,"endTime":43.46149500000023,"instrument":1,"program":118,"isDrum":true},{"pitch":36,"velocity":128,"startTime":43.384572000000226,"endTime":43.46149500000023,"instrument":1,"program":118,"isDrum":true},{"pitch":57,"velocity":128,"startTime":43.384572000000226,"endTime":43.46149500000023,"instrument":1,"program":118,"isDrum":true},{"pitch":36,"velocity":128,"startTime":43.49995650000022,"endTime":43.576879500000224,"instrument":1,"program":118,"isDrum":true},{"pitch":36,"velocity":128,"startTime":43.61534100000022,"endTime":43.69226400000022,"instrument":1,"program":118,"isDrum":true},{"pitch":36,"velocity":128,"startTime":43.84611000000022,"endTime":43.923033000000224,"instrument":1,"program":118,"isDrum":true},{"pitch":38,"velocity":128,"startTime":43.84611000000022,"endTime":43.923033000000224,"instrument":1,"program":118,"isDrum":true},{"pitch":57,"velocity":128,"startTime":43.84611000000022,"endTime":43.923033000000224,"instrument":1,"program":118,"isDrum":true},{"pitch":36,"velocity":128,"startTime":43.96149450000022,"endTime":44.03841750000022,"instrument":1,"program":118,"isDrum":true},{"pitch":36,"velocity":128,"startTime":44.07687900000022,"endTime":44.15380200000022,"instrument":1,"program":118,"isDrum":true},{"pitch":36,"velocity":128,"startTime":44.30764800000022,"endTime":44.46149400000022,"instrument":1,"program":118,"isDrum":true},{"pitch":38,"velocity":128,"startTime":44.30764800000022,"endTime":44.46149400000022,"instrument":1,"program":118,"isDrum":true},{"pitch":57,"velocity":128,"startTime":44.30764800000022,"endTime":44.46149400000022,"instrument":1,"program":118,"isDrum":true},{"pitch":38,"velocity":128,"startTime":44.769186000000225,"endTime":44.92303200000023,"instrument":1,"program":118,"isDrum":true},{"pitch":36,"velocity":128,"startTime":44.99995500000023,"endTime":45.15380100000023,"instrument":1,"program":118,"isDrum":true},{"pitch":38,"velocity":128,"startTime":44.99995500000023,"endTime":45.15380100000023,"instrument":1,"program":118,"isDrum":true},{"pitch":38,"velocity":128,"startTime":45.23072400000023,"endTime":45.38457000000023,"instrument":1,"program":118,"isDrum":true},{"pitch":36,"velocity":128,"startTime":45.23072400000023,"endTime":45.38457000000023,"instrument":1,"program":118,"isDrum":true},{"pitch":57,"velocity":128,"startTime":45.23072400000023,"endTime":45.38457000000023,"instrument":1,"program":118,"isDrum":true},{"pitch":38,"velocity":128,"startTime":45.692262000000234,"endTime":45.846108000000235,"instrument":1,"program":118,"isDrum":true},{"pitch":38,"velocity":128,"startTime":45.923031000000236,"endTime":46.07687700000024,"instrument":1,"program":118,"isDrum":true},{"pitch":36,"velocity":128,"startTime":45.923031000000236,"endTime":46.07687700000024,"instrument":1,"program":118,"isDrum":true},{"pitch":36,"velocity":128,"startTime":46.15380000000024,"endTime":46.30764600000024,"instrument":1,"program":118,"isDrum":true},{"pitch":38,"velocity":128,"startTime":46.15380000000024,"endTime":46.30764600000024,"instrument":1,"program":118,"isDrum":true},{"pitch":57,"velocity":128,"startTime":46.15380000000024,"endTime":46.30764600000024,"instrument":1,"program":118,"isDrum":true},{"pitch":38,"velocity":128,"startTime":46.61533800000024,"endTime":46.769184000000244,"instrument":1,"program":118,"isDrum":true},{"pitch":36,"velocity":128,"startTime":46.846107000000245,"endTime":46.99995300000025,"instrument":1,"program":118,"isDrum":true},{"pitch":38,"velocity":128,"startTime":46.846107000000245,"endTime":46.99995300000025,"instrument":1,"program":118,"isDrum":true},{"pitch":38,"velocity":128,"startTime":47.07687600000025,"endTime":47.23072200000025,"instrument":1,"program":118,"isDrum":true},{"pitch":36,"velocity":128,"startTime":47.07687600000025,"endTime":47.23072200000025,"instrument":1,"program":118,"isDrum":true},{"pitch":57,"velocity":128,"startTime":47.07687600000025,"endTime":47.23072200000025,"instrument":1,"program":118,"isDrum":true},{"pitch":38,"velocity":128,"startTime":47.53841400000025,"endTime":47.69226000000025,"instrument":1,"program":118,"isDrum":true},{"pitch":38,"velocity":128,"startTime":47.769183000000254,"endTime":47.923029000000255,"instrument":1,"program":118,"isDrum":true},{"pitch":36,"velocity":128,"startTime":47.769183000000254,"endTime":47.923029000000255,"instrument":1,"program":118,"isDrum":true},{"pitch":36,"velocity":128,"startTime":47.999952000000256,"endTime":48.15379800000026,"instrument":1,"program":118,"isDrum":true},{"pitch":38,"velocity":128,"startTime":47.999952000000256,"endTime":48.15379800000026,"instrument":1,"program":118,"isDrum":true},{"pitch":57,"velocity":128,"startTime":47.999952000000256,"endTime":48.15379800000026,"instrument":1,"program":118,"isDrum":true},{"pitch":57,"velocity":128,"startTime":48.46149000000026,"endTime":48.53841300000026,"instrument":1,"program":118,"isDrum":true},{"pitch":38,"velocity":128,"startTime":48.46149000000026,"endTime":48.53841300000026,"instrument":1,"program":118,"isDrum":true},{"pitch":36,"velocity":128,"startTime":48.46149000000026,"endTime":48.53841300000026,"instrument":1,"program":118,"isDrum":true},{"pitch":36,"velocity":128,"startTime":48.57687450000026,"endTime":48.65379750000026,"instrument":1,"program":118,"isDrum":true},{"pitch":36,"velocity":128,"startTime":48.692259000000256,"endTime":48.76918200000026,"instrument":1,"program":118,"isDrum":true},{"pitch":36,"velocity":128,"startTime":48.92302800000026,"endTime":48.99995100000026,"instrument":1,"program":118,"isDrum":true},{"pitch":38,"velocity":128,"startTime":48.92302800000026,"endTime":48.99995100000026,"instrument":1,"program":118,"isDrum":true},{"pitch":57,"velocity":128,"startTime":48.92302800000026,"endTime":48.99995100000026,"instrument":1,"program":118,"isDrum":true},{"pitch":36,"velocity":128,"startTime":49.038412500000256,"endTime":49.115335500000256,"instrument":1,"program":118,"isDrum":true},{"pitch":36,"velocity":128,"startTime":49.15379700000025,"endTime":49.230720000000254,"instrument":1,"program":118,"isDrum":true},{"pitch":57,"velocity":128,"startTime":49.384566000000255,"endTime":49.53841200000026,"instrument":1,"program":118,"isDrum":true},{"pitch":38,"velocity":128,"startTime":49.384566000000255,"endTime":49.53841200000026,"instrument":1,"program":118,"isDrum":true},{"pitch":36,"velocity":128,"startTime":49.384566000000255,"endTime":49.53841200000026,"instrument":1,"program":118,"isDrum":true},{"pitch":38,"velocity":128,"startTime":49.84610400000026,"endTime":49.92302700000026,"instrument":1,"program":118,"isDrum":true},{"pitch":36,"velocity":128,"startTime":49.84610400000026,"endTime":49.92302700000026,"instrument":1,"program":118,"isDrum":true},{"pitch":57,"velocity":128,"startTime":49.84610400000026,"endTime":49.92302700000026,"instrument":1,"program":118,"isDrum":true},{"pitch":36,"velocity":128,"startTime":50.30764200000026,"endTime":50.38456500000026,"instrument":1,"program":118,"isDrum":true},{"pitch":38,"velocity":128,"startTime":50.30764200000026,"endTime":50.38456500000026,"instrument":1,"program":118,"isDrum":true},{"pitch":57,"velocity":128,"startTime":50.30764200000026,"endTime":50.38456500000026,"instrument":1,"program":118,"isDrum":true},{"pitch":36,"velocity":128,"startTime":50.423026500000255,"endTime":50.499949500000255,"instrument":1,"program":118,"isDrum":true},{"pitch":36,"velocity":128,"startTime":50.53841100000025,"endTime":50.61533400000025,"instrument":1,"program":118,"isDrum":true},{"pitch":38,"velocity":128,"startTime":50.769180000000254,"endTime":50.846103000000255,"instrument":1,"program":118,"isDrum":true},{"pitch":36,"velocity":128,"startTime":50.769180000000254,"endTime":50.846103000000255,"instrument":1,"program":118,"isDrum":true},{"pitch":57,"velocity":128,"startTime":50.769180000000254,"endTime":50.846103000000255,"instrument":1,"program":118,"isDrum":true},{"pitch":36,"velocity":128,"startTime":50.88456450000025,"endTime":50.96148750000025,"instrument":1,"program":118,"isDrum":true},{"pitch":36,"velocity":128,"startTime":50.99994900000025,"endTime":51.07687200000025,"instrument":1,"program":118,"isDrum":true},{"pitch":36,"velocity":128,"startTime":51.23071800000025,"endTime":51.30764100000025,"instrument":1,"program":118,"isDrum":true},{"pitch":38,"velocity":128,"startTime":51.23071800000025,"endTime":51.30764100000025,"instrument":1,"program":118,"isDrum":true},{"pitch":57,"velocity":128,"startTime":51.23071800000025,"endTime":51.30764100000025,"instrument":1,"program":118,"isDrum":true},{"pitch":36,"velocity":128,"startTime":51.34610250000025,"endTime":51.42302550000025,"instrument":1,"program":118,"isDrum":true},{"pitch":36,"velocity":128,"startTime":51.46148700000025,"endTime":51.53841000000025,"instrument":1,"program":118,"isDrum":true},{"pitch":41,"velocity":128,"startTime":51.69225600000025,"endTime":51.84610200000025,"instrument":1,"program":118,"isDrum":true},{"pitch":43,"velocity":103,"startTime":51.69225600000025,"endTime":51.84610200000025,"instrument":1,"program":118,"isDrum":true},{"pitch":45,"velocity":103,"startTime":51.69225600000025,"endTime":51.84610200000025,"instrument":1,"program":118,"isDrum":true},{"pitch":54,"velocity":128,"startTime":51.69225600000025,"endTime":51.84610200000025,"instrument":1,"program":118,"isDrum":true},{"pitch":54,"velocity":128,"startTime":51.92302500000025,"endTime":52.07687100000025,"instrument":1,"program":118,"isDrum":true},{"pitch":54,"velocity":128,"startTime":52.153794000000254,"endTime":52.307640000000255,"instrument":1,"program":118,"isDrum":true},{"pitch":40,"velocity":109,"startTime":52.153794000000254,"endTime":52.307640000000255,"instrument":1,"program":118,"isDrum":true},{"pitch":54,"velocity":128,"startTime":52.384563000000256,"endTime":52.53840900000026,"instrument":1,"program":118,"isDrum":true},{"pitch":54,"velocity":128,"startTime":52.61533200000026,"endTime":52.76917800000026,"instrument":1,"program":118,"isDrum":true},{"pitch":54,"velocity":128,"startTime":52.84610100000026,"endTime":52.99994700000026,"instrument":1,"program":118,"isDrum":true},{"pitch":54,"velocity":128,"startTime":53.07687000000026,"endTime":53.230716000000264,"instrument":1,"program":118,"isDrum":true},{"pitch":40,"velocity":109,"startTime":53.07687000000026,"endTime":53.230716000000264,"instrument":1,"program":118,"isDrum":true},{"pitch":54,"velocity":128,"startTime":53.307639000000265,"endTime":53.461485000000266,"instrument":1,"program":118,"isDrum":true},{"pitch":54,"velocity":128,"startTime":53.53840800000027,"endTime":53.69225400000027,"instrument":1,"program":118,"isDrum":true},{"pitch":41,"velocity":128,"startTime":53.53840800000027,"endTime":53.69225400000027,"instrument":1,"program":118,"isDrum":true},{"pitch":43,"velocity":103,"startTime":53.53840800000027,"endTime":53.69225400000027,"instrument":1,"program":118,"isDrum":true},{"pitch":45,"velocity":103,"startTime":53.53840800000027,"endTime":53.69225400000027,"instrument":1,"program":118,"isDrum":true},{"pitch":54,"velocity":128,"startTime":53.76917700000027,"endTime":53.92302300000027,"instrument":1,"program":118,"isDrum":true},{"pitch":54,"velocity":128,"startTime":53.99994600000027,"endTime":54.15379200000027,"instrument":1,"program":118,"isDrum":true},{"pitch":40,"velocity":109,"startTime":53.99994600000027,"endTime":54.15379200000027,"instrument":1,"program":118,"isDrum":true},{"pitch":54,"velocity":128,"startTime":54.230715000000274,"endTime":54.384561000000275,"instrument":1,"program":118,"isDrum":true},{"pitch":54,"velocity":128,"startTime":54.461484000000276,"endTime":54.61533000000028,"instrument":1,"program":118,"isDrum":true},{"pitch":54,"velocity":128,"startTime":54.69225300000028,"endTime":54.84609900000028,"instrument":1,"program":118,"isDrum":true},{"pitch":54,"velocity":128,"startTime":54.92302200000028,"endTime":55.07686800000028,"instrument":1,"program":118,"isDrum":true},{"pitch":40,"velocity":109,"startTime":54.92302200000028,"endTime":55.07686800000028,"instrument":1,"program":118,"isDrum":true},{"pitch":54,"velocity":128,"startTime":55.15379100000028,"endTime":55.307637000000284,"instrument":1,"program":118,"isDrum":true},{"pitch":54,"velocity":128,"startTime":55.384560000000285,"endTime":55.538406000000286,"instrument":1,"program":118,"isDrum":true},{"pitch":41,"velocity":128,"startTime":55.384560000000285,"endTime":55.538406000000286,"instrument":1,"program":118,"isDrum":true},{"pitch":43,"velocity":103,"startTime":55.384560000000285,"endTime":55.538406000000286,"instrument":1,"program":118,"isDrum":true},{"pitch":45,"velocity":103,"startTime":55.384560000000285,"endTime":55.538406000000286,"instrument":1,"program":118,"isDrum":true},{"pitch":54,"velocity":128,"startTime":55.61532900000029,"endTime":55.76917500000029,"instrument":1,"program":118,"isDrum":true},{"pitch":54,"velocity":128,"startTime":55.84609800000029,"endTime":55.99994400000029,"instrument":1,"program":118,"isDrum":true},{"pitch":40,"velocity":109,"startTime":55.84609800000029,"endTime":55.99994400000029,"instrument":1,"program":118,"isDrum":true},{"pitch":54,"velocity":128,"startTime":56.07686700000029,"endTime":56.23071300000029,"instrument":1,"program":118,"isDrum":true},{"pitch":54,"velocity":128,"startTime":56.307636000000294,"endTime":56.461482000000295,"instrument":1,"program":118,"isDrum":true},{"pitch":54,"velocity":128,"startTime":56.538405000000296,"endTime":56.6922510000003,"instrument":1,"program":118,"isDrum":true},{"pitch":54,"velocity":128,"startTime":56.7691740000003,"endTime":56.9230200000003,"instrument":1,"program":118,"isDrum":true},{"pitch":40,"velocity":109,"startTime":56.7691740000003,"endTime":56.9230200000003,"instrument":1,"program":118,"isDrum":true},{"pitch":54,"velocity":128,"startTime":56.9999430000003,"endTime":57.1537890000003,"instrument":1,"program":118,"isDrum":true},{"pitch":54,"velocity":128,"startTime":57.2307120000003,"endTime":57.384558000000304,"instrument":1,"program":118,"isDrum":true},{"pitch":41,"velocity":128,"startTime":57.2307120000003,"endTime":57.384558000000304,"instrument":1,"program":118,"isDrum":true},{"pitch":43,"velocity":103,"startTime":57.2307120000003,"endTime":57.384558000000304,"instrument":1,"program":118,"isDrum":true},{"pitch":45,"velocity":103,"startTime":57.2307120000003,"endTime":57.384558000000304,"instrument":1,"program":118,"isDrum":true},{"pitch":54,"velocity":128,"startTime":57.461481000000305,"endTime":57.615327000000306,"instrument":1,"program":118,"isDrum":true},{"pitch":54,"velocity":128,"startTime":57.69225000000031,"endTime":57.84609600000031,"instrument":1,"program":118,"isDrum":true},{"pitch":40,"velocity":109,"startTime":57.69225000000031,"endTime":57.84609600000031,"instrument":1,"program":118,"isDrum":true},{"pitch":54,"velocity":128,"startTime":57.92301900000031,"endTime":58.07686500000031,"instrument":1,"program":118,"isDrum":true},{"pitch":54,"velocity":128,"startTime":58.15378800000031,"endTime":58.30763400000031,"instrument":1,"program":118,"isDrum":true},{"pitch":54,"velocity":128,"startTime":58.384557000000314,"endTime":58.538403000000315,"instrument":1,"program":118,"isDrum":true},{"pitch":54,"velocity":128,"startTime":58.615326000000316,"endTime":58.76917200000032,"instrument":1,"program":118,"isDrum":true},{"pitch":40,"velocity":109,"startTime":58.615326000000316,"endTime":58.76917200000032,"instrument":1,"program":118,"isDrum":true},{"pitch":54,"velocity":128,"startTime":58.84609500000032,"endTime":58.99994100000032,"instrument":1,"program":118,"isDrum":true},{"pitch":41,"velocity":128,"startTime":59.07686400000032,"endTime":59.23071000000032,"instrument":1,"program":118,"isDrum":true},{"pitch":43,"velocity":103,"startTime":59.07686400000032,"endTime":59.23071000000032,"instrument":1,"program":118,"isDrum":true},{"pitch":45,"velocity":103,"startTime":59.07686400000032,"endTime":59.23071000000032,"instrument":1,"program":118,"isDrum":true},{"pitch":54,"velocity":128,"startTime":59.07686400000032,"endTime":59.23071000000032,"instrument":1,"program":118,"isDrum":true},{"pitch":54,"velocity":128,"startTime":59.30763300000032,"endTime":59.461479000000324,"instrument":1,"program":118,"isDrum":true},{"pitch":54,"velocity":128,"startTime":59.538402000000325,"endTime":59.692248000000326,"instrument":1,"program":118,"isDrum":true},{"pitch":40,"velocity":109,"startTime":59.538402000000325,"endTime":59.692248000000326,"instrument":1,"program":118,"isDrum":true},{"pitch":54,"velocity":128,"startTime":59.76917100000033,"endTime":59.92301700000033,"instrument":1,"program":118,"isDrum":true},{"pitch":54,"velocity":128,"startTime":59.99994000000033,"endTime":60.15378600000033,"instrument":1,"program":118,"isDrum":true},{"pitch":54,"velocity":128,"startTime":60.23070900000033,"endTime":60.38455500000033,"instrument":1,"program":118,"isDrum":true},{"pitch":54,"velocity":128,"startTime":60.461478000000334,"endTime":60.615324000000335,"instrument":1,"program":118,"isDrum":true},{"pitch":40,"velocity":109,"startTime":60.461478000000334,"endTime":60.615324000000335,"instrument":1,"program":118,"isDrum":true},{"pitch":54,"velocity":128,"startTime":60.692247000000336,"endTime":60.84609300000034,"instrument":1,"program":118,"isDrum":true},{"pitch":54,"velocity":128,"startTime":60.92301600000034,"endTime":61.07686200000034,"instrument":1,"program":118,"isDrum":true},{"pitch":41,"velocity":128,"startTime":60.92301600000034,"endTime":61.07686200000034,"instrument":1,"program":118,"isDrum":true},{"pitch":43,"velocity":103,"startTime":60.92301600000034,"endTime":61.07686200000034,"instrument":1,"program":118,"isDrum":true},{"pitch":45,"velocity":103,"startTime":60.92301600000034,"endTime":61.07686200000034,"instrument":1,"program":118,"isDrum":true},{"pitch":54,"velocity":128,"startTime":61.15378500000034,"endTime":61.30763100000034,"instrument":1,"program":118,"isDrum":true},{"pitch":54,"velocity":128,"startTime":61.38455400000034,"endTime":61.538400000000344,"instrument":1,"program":118,"isDrum":true},{"pitch":40,"velocity":109,"startTime":61.38455400000034,"endTime":61.538400000000344,"instrument":1,"program":118,"isDrum":true},{"pitch":54,"velocity":128,"startTime":61.615323000000345,"endTime":61.769169000000346,"instrument":1,"program":118,"isDrum":true},{"pitch":54,"velocity":128,"startTime":61.84609200000035,"endTime":61.99993800000035,"instrument":1,"program":118,"isDrum":true},{"pitch":54,"velocity":128,"startTime":62.07686100000035,"endTime":62.23070700000035,"instrument":1,"program":118,"isDrum":true},{"pitch":54,"velocity":128,"startTime":62.30763000000035,"endTime":62.46147600000035,"instrument":1,"program":118,"isDrum":true},{"pitch":40,"velocity":109,"startTime":62.30763000000035,"endTime":62.46147600000035,"instrument":1,"program":118,"isDrum":true},{"pitch":54,"velocity":128,"startTime":62.538399000000354,"endTime":62.692245000000355,"instrument":1,"program":118,"isDrum":true},{"pitch":54,"velocity":128,"startTime":62.769168000000356,"endTime":62.92301400000036,"instrument":1,"program":118,"isDrum":true},{"pitch":41,"velocity":128,"startTime":62.769168000000356,"endTime":62.92301400000036,"instrument":1,"program":118,"isDrum":true},{"pitch":43,"velocity":103,"startTime":62.769168000000356,"endTime":62.92301400000036,"instrument":1,"program":118,"isDrum":true},{"pitch":45,"velocity":103,"startTime":62.769168000000356,"endTime":62.92301400000036,"instrument":1,"program":118,"isDrum":true},{"pitch":54,"velocity":128,"startTime":62.99993700000036,"endTime":63.15378300000036,"instrument":1,"program":118,"isDrum":true},{"pitch":54,"velocity":128,"startTime":63.23070600000036,"endTime":63.38455200000036,"instrument":1,"program":118,"isDrum":true},{"pitch":40,"velocity":109,"startTime":63.23070600000036,"endTime":63.38455200000036,"instrument":1,"program":118,"isDrum":true},{"pitch":54,"velocity":128,"startTime":63.46147500000036,"endTime":63.61532100000036,"instrument":1,"program":118,"isDrum":true},{"pitch":54,"velocity":128,"startTime":63.69224400000035,"endTime":63.84609000000035,"instrument":1,"program":118,"isDrum":true},{"pitch":54,"velocity":128,"startTime":63.923013000000346,"endTime":64.07685900000034,"instrument":1,"program":118,"isDrum":true},{"pitch":54,"velocity":128,"startTime":64.15378200000033,"endTime":64.30762800000034,"instrument":1,"program":118,"isDrum":true},{"pitch":40,"velocity":109,"startTime":64.15378200000033,"endTime":64.30762800000034,"instrument":1,"program":118,"isDrum":true},{"pitch":54,"velocity":128,"startTime":64.38455100000033,"endTime":64.53839700000033,"instrument":1,"program":118,"isDrum":true},{"pitch":54,"velocity":128,"startTime":64.61532000000032,"endTime":64.76916600000033,"instrument":1,"program":118,"isDrum":true},{"pitch":41,"velocity":128,"startTime":64.61532000000032,"endTime":64.76916600000033,"instrument":1,"program":118,"isDrum":true},{"pitch":43,"velocity":103,"startTime":64.61532000000032,"endTime":64.76916600000033,"instrument":1,"program":118,"isDrum":true},{"pitch":45,"velocity":103,"startTime":64.61532000000032,"endTime":64.76916600000033,"instrument":1,"program":118,"isDrum":true},{"pitch":54,"velocity":128,"startTime":64.84608900000032,"endTime":64.99993500000032,"instrument":1,"program":118,"isDrum":true},{"pitch":54,"velocity":128,"startTime":65.07685800000031,"endTime":65.23070400000032,"instrument":1,"program":118,"isDrum":true},{"pitch":40,"velocity":109,"startTime":65.07685800000031,"endTime":65.23070400000032,"instrument":1,"program":118,"isDrum":true},{"pitch":54,"velocity":128,"startTime":65.30762700000031,"endTime":65.46147300000031,"instrument":1,"program":118,"isDrum":true},{"pitch":54,"velocity":128,"startTime":65.5383960000003,"endTime":65.6922420000003,"instrument":1,"program":118,"isDrum":true},{"pitch":54,"velocity":128,"startTime":65.7691650000003,"endTime":65.9230110000003,"instrument":1,"program":118,"isDrum":true},{"pitch":54,"velocity":128,"startTime":65.9999340000003,"endTime":66.1537800000003,"instrument":1,"program":118,"isDrum":true},{"pitch":40,"velocity":109,"startTime":65.9999340000003,"endTime":66.1537800000003,"instrument":1,"program":118,"isDrum":true},{"pitch":54,"velocity":128,"startTime":66.23070300000029,"endTime":66.38454900000029,"instrument":1,"program":118,"isDrum":true},{"pitch":54,"velocity":128,"startTime":66.46147200000028,"endTime":66.61531800000029,"instrument":1,"program":118,"isDrum":true},{"pitch":41,"velocity":128,"startTime":66.46147200000028,"endTime":66.61531800000029,"instrument":1,"program":118,"isDrum":true},{"pitch":43,"velocity":103,"startTime":66.46147200000028,"endTime":66.61531800000029,"instrument":1,"program":118,"isDrum":true},{"pitch":45,"velocity":103,"startTime":66.46147200000028,"endTime":66.61531800000029,"instrument":1,"program":118,"isDrum":true},{"pitch":54,"velocity":128,"startTime":66.69224100000028,"endTime":66.84608700000028,"instrument":1,"program":118,"isDrum":true},{"pitch":54,"velocity":128,"startTime":66.92301000000027,"endTime":67.07685600000028,"instrument":1,"program":118,"isDrum":true},{"pitch":40,"velocity":109,"startTime":66.92301000000027,"endTime":67.07685600000028,"instrument":1,"program":118,"isDrum":true},{"pitch":54,"velocity":128,"startTime":67.15377900000027,"endTime":67.30762500000027,"instrument":1,"program":118,"isDrum":true},{"pitch":54,"velocity":128,"startTime":67.38454800000027,"endTime":67.53839400000027,"instrument":1,"program":118,"isDrum":true},{"pitch":54,"velocity":128,"startTime":67.61531700000026,"endTime":67.76916300000026,"instrument":1,"program":118,"isDrum":true},{"pitch":54,"velocity":128,"startTime":67.84608600000026,"endTime":67.99993200000026,"instrument":1,"program":118,"isDrum":true},{"pitch":40,"velocity":109,"startTime":67.84608600000026,"endTime":67.99993200000026,"instrument":1,"program":118,"isDrum":true},{"pitch":54,"velocity":128,"startTime":68.07685500000025,"endTime":68.23070100000025,"instrument":1,"program":118,"isDrum":true},{"pitch":54,"velocity":128,"startTime":68.30762400000025,"endTime":68.46147000000025,"instrument":1,"program":118,"isDrum":true},{"pitch":41,"velocity":128,"startTime":68.30762400000025,"endTime":68.46147000000025,"instrument":1,"program":118,"isDrum":true},{"pitch":43,"velocity":103,"startTime":68.30762400000025,"endTime":68.46147000000025,"instrument":1,"program":118,"isDrum":true},{"pitch":45,"velocity":103,"startTime":68.30762400000025,"endTime":68.46147000000025,"instrument":1,"program":118,"isDrum":true},{"pitch":54,"velocity":128,"startTime":68.53839300000024,"endTime":68.69223900000024,"instrument":1,"program":118,"isDrum":true},{"pitch":54,"velocity":128,"startTime":68.76916200000024,"endTime":68.92300800000024,"instrument":1,"program":118,"isDrum":true},{"pitch":40,"velocity":109,"startTime":68.76916200000024,"endTime":68.92300800000024,"instrument":1,"program":118,"isDrum":true},{"pitch":54,"velocity":128,"startTime":68.99993100000023,"endTime":69.15377700000023,"instrument":1,"program":118,"isDrum":true},{"pitch":54,"velocity":128,"startTime":69.23070000000023,"endTime":69.38454600000023,"instrument":1,"program":118,"isDrum":true},{"pitch":54,"velocity":128,"startTime":69.46146900000022,"endTime":69.61531500000022,"instrument":1,"program":118,"isDrum":true},{"pitch":54,"velocity":128,"startTime":69.69223800000022,"endTime":69.84608400000022,"instrument":1,"program":118,"isDrum":true},{"pitch":40,"velocity":109,"startTime":69.69223800000022,"endTime":69.84608400000022,"instrument":1,"program":118,"isDrum":true},{"pitch":54,"velocity":128,"startTime":69.92300700000021,"endTime":70.07685300000021,"instrument":1,"program":118,"isDrum":true},{"pitch":54,"velocity":128,"startTime":70.1537760000002,"endTime":70.30762200000021,"instrument":1,"program":118,"isDrum":true},{"pitch":41,"velocity":128,"startTime":70.1537760000002,"endTime":70.30762200000021,"instrument":1,"program":118,"isDrum":true},{"pitch":43,"velocity":103,"startTime":70.1537760000002,"endTime":70.30762200000021,"instrument":1,"program":118,"isDrum":true},{"pitch":45,"velocity":103,"startTime":70.1537760000002,"endTime":70.30762200000021,"instrument":1,"program":118,"isDrum":true},{"pitch":54,"velocity":128,"startTime":70.3845450000002,"endTime":70.5383910000002,"instrument":1,"program":118,"isDrum":true},{"pitch":54,"velocity":128,"startTime":70.6153140000002,"endTime":70.7691600000002,"instrument":1,"program":118,"isDrum":true},{"pitch":40,"velocity":109,"startTime":70.6153140000002,"endTime":70.7691600000002,"instrument":1,"program":118,"isDrum":true},{"pitch":54,"velocity":128,"startTime":70.84608300000019,"endTime":70.9999290000002,"instrument":1,"program":118,"isDrum":true},{"pitch":54,"velocity":128,"startTime":71.07685200000019,"endTime":71.23069800000019,"instrument":1,"program":118,"isDrum":true},{"pitch":54,"velocity":128,"startTime":71.30762100000018,"endTime":71.46146700000018,"instrument":1,"program":118,"isDrum":true},{"pitch":54,"velocity":128,"startTime":71.53839000000018,"endTime":71.69223600000018,"instrument":1,"program":118,"isDrum":true},{"pitch":40,"velocity":109,"startTime":71.53839000000018,"endTime":71.69223600000018,"instrument":1,"program":118,"isDrum":true},{"pitch":54,"velocity":128,"startTime":71.76915900000017,"endTime":71.92300500000017,"instrument":1,"program":118,"isDrum":true},{"pitch":54,"velocity":128,"startTime":71.99992800000017,"endTime":72.15377400000017,"instrument":1,"program":118,"isDrum":true},{"pitch":41,"velocity":128,"startTime":71.99992800000017,"endTime":72.15377400000017,"instrument":1,"program":118,"isDrum":true},{"pitch":43,"velocity":103,"startTime":71.99992800000017,"endTime":72.15377400000017,"instrument":1,"program":118,"isDrum":true},{"pitch":45,"velocity":103,"startTime":71.99992800000017,"endTime":72.15377400000017,"instrument":1,"program":118,"isDrum":true},{"pitch":54,"velocity":128,"startTime":72.23069700000016,"endTime":72.38454300000016,"instrument":1,"program":118,"isDrum":true},{"pitch":54,"velocity":128,"startTime":72.46146600000016,"endTime":72.61531200000016,"instrument":1,"program":118,"isDrum":true},{"pitch":40,"velocity":109,"startTime":72.46146600000016,"endTime":72.61531200000016,"instrument":1,"program":118,"isDrum":true},{"pitch":54,"velocity":128,"startTime":72.69223500000015,"endTime":72.84608100000015,"instrument":1,"program":118,"isDrum":true},{"pitch":54,"velocity":128,"startTime":72.92300400000015,"endTime":73.07685000000015,"instrument":1,"program":118,"isDrum":true},{"pitch":54,"velocity":128,"startTime":73.15377300000014,"endTime":73.30761900000014,"instrument":1,"program":118,"isDrum":true},{"pitch":54,"velocity":128,"startTime":73.38454200000014,"endTime":73.53838800000014,"instrument":1,"program":118,"isDrum":true},{"pitch":40,"velocity":109,"startTime":73.38454200000014,"endTime":73.53838800000014,"instrument":1,"program":118,"isDrum":true},{"pitch":54,"velocity":128,"startTime":73.61531100000013,"endTime":73.76915700000013,"instrument":1,"program":118,"isDrum":true},{"pitch":41,"velocity":128,"startTime":73.84608000000013,"endTime":73.99992600000013,"instrument":1,"program":118,"isDrum":true},{"pitch":43,"velocity":103,"startTime":73.84608000000013,"endTime":73.99992600000013,"instrument":1,"program":118,"isDrum":true},{"pitch":45,"velocity":103,"startTime":73.84608000000013,"endTime":73.99992600000013,"instrument":1,"program":118,"isDrum":true},{"pitch":54,"velocity":128,"startTime":73.84608000000013,"endTime":73.99992600000013,"instrument":1,"program":118,"isDrum":true},{"pitch":54,"velocity":128,"startTime":74.07684900000012,"endTime":74.23069500000013,"instrument":1,"program":118,"isDrum":true},{"pitch":54,"velocity":128,"startTime":74.30761800000012,"endTime":74.46146400000012,"instrument":1,"program":118,"isDrum":true},{"pitch":40,"velocity":109,"startTime":74.30761800000012,"endTime":74.46146400000012,"instrument":1,"program":118,"isDrum":true},{"pitch":54,"velocity":128,"startTime":74.53838700000011,"endTime":74.69223300000012,"instrument":1,"program":118,"isDrum":true},{"pitch":54,"velocity":128,"startTime":74.76915600000011,"endTime":74.92300200000011,"instrument":1,"program":118,"isDrum":true},{"pitch":54,"velocity":128,"startTime":74.9999250000001,"endTime":75.1537710000001,"instrument":1,"program":118,"isDrum":true},{"pitch":54,"velocity":128,"startTime":75.2306940000001,"endTime":75.3845400000001,"instrument":1,"program":118,"isDrum":true},{"pitch":40,"velocity":109,"startTime":75.2306940000001,"endTime":75.3845400000001,"instrument":1,"program":118,"isDrum":true},{"pitch":54,"velocity":128,"startTime":75.4614630000001,"endTime":75.6153090000001,"instrument":1,"program":118,"isDrum":true},{"pitch":54,"velocity":128,"startTime":75.69223200000009,"endTime":75.84607800000009,"instrument":1,"program":118,"isDrum":true},{"pitch":41,"velocity":128,"startTime":75.69223200000009,"endTime":75.84607800000009,"instrument":1,"program":118,"isDrum":true},{"pitch":43,"velocity":103,"startTime":75.69223200000009,"endTime":75.84607800000009,"instrument":1,"program":118,"isDrum":true},{"pitch":45,"velocity":103,"startTime":75.69223200000009,"endTime":75.84607800000009,"instrument":1,"program":118,"isDrum":true},{"pitch":54,"velocity":128,"startTime":75.92300100000008,"endTime":76.07684700000009,"instrument":1,"program":118,"isDrum":true},{"pitch":54,"velocity":128,"startTime":76.15377000000008,"endTime":76.30761600000008,"instrument":1,"program":118,"isDrum":true},{"pitch":40,"velocity":109,"startTime":76.15377000000008,"endTime":76.30761600000008,"instrument":1,"program":118,"isDrum":true},{"pitch":54,"velocity":128,"startTime":76.38453900000007,"endTime":76.53838500000008,"instrument":1,"program":118,"isDrum":true},{"pitch":54,"velocity":128,"startTime":76.61530800000007,"endTime":76.76915400000007,"instrument":1,"program":118,"isDrum":true},{"pitch":54,"velocity":128,"startTime":76.84607700000007,"endTime":76.99992300000007,"instrument":1,"program":118,"isDrum":true},{"pitch":54,"velocity":128,"startTime":77.07684600000006,"endTime":77.23069200000006,"instrument":1,"program":118,"isDrum":true},{"pitch":40,"velocity":109,"startTime":77.07684600000006,"endTime":77.23069200000006,"instrument":1,"program":118,"isDrum":true},{"pitch":54,"velocity":128,"startTime":77.30761500000006,"endTime":77.46146100000006,"instrument":1,"program":118,"isDrum":true},{"pitch":54,"velocity":128,"startTime":77.53838400000005,"endTime":77.69223000000005,"instrument":1,"program":118,"isDrum":true},{"pitch":41,"velocity":128,"startTime":77.53838400000005,"endTime":77.69223000000005,"instrument":1,"program":118,"isDrum":true},{"pitch":43,"velocity":103,"startTime":77.53838400000005,"endTime":77.69223000000005,"instrument":1,"program":118,"isDrum":true},{"pitch":45,"velocity":103,"startTime":77.53838400000005,"endTime":77.69223000000005,"instrument":1,"program":118,"isDrum":true},{"pitch":54,"velocity":128,"startTime":77.76915300000005,"endTime":77.92299900000005,"instrument":1,"program":118,"isDrum":true},{"pitch":54,"velocity":128,"startTime":77.99992200000004,"endTime":78.15376800000004,"instrument":1,"program":118,"isDrum":true},{"pitch":40,"velocity":109,"startTime":77.99992200000004,"endTime":78.15376800000004,"instrument":1,"program":118,"isDrum":true},{"pitch":54,"velocity":128,"startTime":78.23069100000004,"endTime":78.38453700000004,"instrument":1,"program":118,"isDrum":true},{"pitch":54,"velocity":128,"startTime":78.46146000000003,"endTime":78.61530600000003,"instrument":1,"program":118,"isDrum":true},{"pitch":54,"velocity":128,"startTime":78.69222900000003,"endTime":78.84607500000003,"instrument":1,"program":118,"isDrum":true},{"pitch":54,"velocity":128,"startTime":78.92299800000002,"endTime":79.07684400000002,"instrument":1,"program":118,"isDrum":true},{"pitch":40,"velocity":109,"startTime":78.92299800000002,"endTime":79.07684400000002,"instrument":1,"program":118,"isDrum":true},{"pitch":54,"velocity":128,"startTime":79.15376700000002,"endTime":79.30761300000002,"instrument":1,"program":118,"isDrum":true},{"pitch":54,"velocity":128,"startTime":79.38453600000001,"endTime":79.53838200000001,"instrument":1,"program":118,"isDrum":true},{"pitch":41,"velocity":128,"startTime":79.38453600000001,"endTime":79.53838200000001,"instrument":1,"program":118,"isDrum":true},{"pitch":43,"velocity":103,"startTime":79.38453600000001,"endTime":79.53838200000001,"instrument":1,"program":118,"isDrum":true},{"pitch":45,"velocity":103,"startTime":79.38453600000001,"endTime":79.53838200000001,"instrument":1,"program":118,"isDrum":true},{"pitch":54,"velocity":128,"startTime":79.615305,"endTime":79.76915100000001,"instrument":1,"program":118,"isDrum":true},{"pitch":54,"velocity":128,"startTime":79.846074,"endTime":79.99992,"instrument":1,"program":118,"isDrum":true},{"pitch":40,"velocity":109,"startTime":79.846074,"endTime":79.99992,"instrument":1,"program":118,"isDrum":true},{"pitch":54,"velocity":128,"startTime":80.076843,"endTime":80.230689,"instrument":1,"program":118,"isDrum":true},{"pitch":54,"velocity":128,"startTime":80.30761199999999,"endTime":80.461458,"instrument":1,"program":118,"isDrum":true},{"pitch":54,"velocity":128,"startTime":80.53838099999999,"endTime":80.69222699999999,"instrument":1,"program":118,"isDrum":true},{"pitch":54,"velocity":128,"startTime":80.76914999999998,"endTime":80.92299599999998,"instrument":1,"program":118,"isDrum":true},{"pitch":40,"velocity":109,"startTime":80.76914999999998,"endTime":80.92299599999998,"instrument":1,"program":118,"isDrum":true},{"pitch":54,"velocity":128,"startTime":80.99991899999998,"endTime":81.15376499999998,"instrument":1,"program":118,"isDrum":true},{"pitch":41,"velocity":128,"startTime":81.23068799999997,"endTime":81.38453399999997,"instrument":1,"program":118,"isDrum":true},{"pitch":43,"velocity":103,"startTime":81.23068799999997,"endTime":81.38453399999997,"instrument":1,"program":118,"isDrum":true},{"pitch":45,"velocity":103,"startTime":81.23068799999997,"endTime":81.38453399999997,"instrument":1,"program":118,"isDrum":true},{"pitch":54,"velocity":128,"startTime":81.23068799999997,"endTime":81.38453399999997,"instrument":1,"program":118,"isDrum":true},{"pitch":54,"velocity":128,"startTime":81.46145699999997,"endTime":81.61530299999997,"instrument":1,"program":118,"isDrum":true},{"pitch":54,"velocity":128,"startTime":81.69222599999996,"endTime":81.84607199999996,"instrument":1,"program":118,"isDrum":true},{"pitch":40,"velocity":109,"startTime":81.69222599999996,"endTime":81.84607199999996,"instrument":1,"program":118,"isDrum":true},{"pitch":54,"velocity":128,"startTime":81.92299499999996,"endTime":82.07684099999996,"instrument":1,"program":118,"isDrum":true},{"pitch":54,"velocity":128,"startTime":82.15376399999995,"endTime":82.30760999999995,"instrument":1,"program":118,"isDrum":true},{"pitch":54,"velocity":128,"startTime":82.38453299999995,"endTime":82.53837899999995,"instrument":1,"program":118,"isDrum":true},{"pitch":54,"velocity":128,"startTime":82.61530199999994,"endTime":82.76914799999994,"instrument":1,"program":118,"isDrum":true},{"pitch":40,"velocity":109,"startTime":82.61530199999994,"endTime":82.76914799999994,"instrument":1,"program":118,"isDrum":true},{"pitch":54,"velocity":128,"startTime":82.84607099999994,"endTime":82.99991699999994,"instrument":1,"program":118,"isDrum":true},{"pitch":54,"velocity":128,"startTime":83.07683999999993,"endTime":83.23068599999993,"instrument":1,"program":118,"isDrum":true},{"pitch":41,"velocity":128,"startTime":83.07683999999993,"endTime":83.23068599999993,"instrument":1,"program":118,"isDrum":true},{"pitch":43,"velocity":103,"startTime":83.07683999999993,"endTime":83.23068599999993,"instrument":1,"program":118,"isDrum":true},{"pitch":45,"velocity":103,"startTime":83.07683999999993,"endTime":83.23068599999993,"instrument":1,"program":118,"isDrum":true},{"pitch":54,"velocity":128,"startTime":83.30760899999993,"endTime":83.46145499999993,"instrument":1,"program":118,"isDrum":true},{"pitch":54,"velocity":128,"startTime":83.53837799999992,"endTime":83.69222399999992,"instrument":1,"program":118,"isDrum":true},{"pitch":40,"velocity":109,"startTime":83.53837799999992,"endTime":83.69222399999992,"instrument":1,"program":118,"isDrum":true},{"pitch":54,"velocity":128,"startTime":83.76914699999992,"endTime":83.92299299999992,"instrument":1,"program":118,"isDrum":true},{"pitch":54,"velocity":128,"startTime":83.99991599999991,"endTime":84.15376199999992,"instrument":1,"program":118,"isDrum":true},{"pitch":54,"velocity":128,"startTime":84.23068499999991,"endTime":84.38453099999991,"instrument":1,"program":118,"isDrum":true},{"pitch":54,"velocity":128,"startTime":84.4614539999999,"endTime":84.6152999999999,"instrument":1,"program":118,"isDrum":true},{"pitch":40,"velocity":109,"startTime":84.4614539999999,"endTime":84.6152999999999,"instrument":1,"program":118,"isDrum":true},{"pitch":54,"velocity":128,"startTime":84.6922229999999,"endTime":84.8460689999999,"instrument":1,"program":118,"isDrum":true},{"pitch":54,"velocity":128,"startTime":84.9229919999999,"endTime":85.0768379999999,"instrument":1,"program":118,"isDrum":true},{"pitch":41,"velocity":128,"startTime":84.9229919999999,"endTime":85.0768379999999,"instrument":1,"program":118,"isDrum":true},{"pitch":43,"velocity":103,"startTime":84.9229919999999,"endTime":85.0768379999999,"instrument":1,"program":118,"isDrum":true},{"pitch":45,"velocity":103,"startTime":84.9229919999999,"endTime":85.0768379999999,"instrument":1,"program":118,"isDrum":true},{"pitch":54,"velocity":128,"startTime":85.15376099999989,"endTime":85.30760699999989,"instrument":1,"program":118,"isDrum":true},{"pitch":54,"velocity":128,"startTime":85.38452999999988,"endTime":85.53837599999989,"instrument":1,"program":118,"isDrum":true},{"pitch":40,"velocity":109,"startTime":85.38452999999988,"endTime":85.53837599999989,"instrument":1,"program":118,"isDrum":true},{"pitch":54,"velocity":128,"startTime":85.61529899999988,"endTime":85.76914499999988,"instrument":1,"program":118,"isDrum":true},{"pitch":54,"velocity":128,"startTime":85.84606799999987,"endTime":85.99991399999988,"instrument":1,"program":118,"isDrum":true},{"pitch":54,"velocity":128,"startTime":86.07683699999987,"endTime":86.23068299999987,"instrument":1,"program":118,"isDrum":true},{"pitch":54,"velocity":128,"startTime":86.30760599999986,"endTime":86.46145199999987,"instrument":1,"program":118,"isDrum":true},{"pitch":40,"velocity":109,"startTime":86.30760599999986,"endTime":86.46145199999987,"instrument":1,"program":118,"isDrum":true},{"pitch":54,"velocity":128,"startTime":86.53837499999986,"endTime":86.69222099999986,"instrument":1,"program":118,"isDrum":true},{"pitch":38,"velocity":128,"startTime":86.76914399999986,"endTime":86.84606699999985,"instrument":1,"program":118,"isDrum":true},{"pitch":36,"velocity":128,"startTime":86.76914399999986,"endTime":86.84606699999985,"instrument":1,"program":118,"isDrum":true},{"pitch":57,"velocity":128,"startTime":86.76914399999986,"endTime":86.84606699999985,"instrument":1,"program":118,"isDrum":true},{"pitch":36,"velocity":128,"startTime":87.23068199999985,"endTime":87.30760499999984,"instrument":1,"program":118,"isDrum":true},{"pitch":38,"velocity":128,"startTime":87.23068199999985,"endTime":87.30760499999984,"instrument":1,"program":118,"isDrum":true},{"pitch":57,"velocity":128,"startTime":87.23068199999985,"endTime":87.30760499999984,"instrument":1,"program":118,"isDrum":true},{"pitch":36,"velocity":128,"startTime":87.34606649999984,"endTime":87.42298949999983,"instrument":1,"program":118,"isDrum":true},{"pitch":36,"velocity":128,"startTime":87.46145099999983,"endTime":87.53837399999982,"instrument":1,"program":118,"isDrum":true},{"pitch":38,"velocity":128,"startTime":87.69221999999982,"endTime":87.76914299999981,"instrument":1,"program":118,"isDrum":true},{"pitch":36,"velocity":128,"startTime":87.69221999999982,"endTime":87.76914299999981,"instrument":1,"program":118,"isDrum":true},{"pitch":57,"velocity":128,"startTime":87.69221999999982,"endTime":87.76914299999981,"instrument":1,"program":118,"isDrum":true},{"pitch":36,"velocity":128,"startTime":87.80760449999981,"endTime":87.8845274999998,"instrument":1,"program":118,"isDrum":true},{"pitch":36,"velocity":128,"startTime":87.9229889999998,"endTime":87.9999119999998,"instrument":1,"program":118,"isDrum":true},{"pitch":36,"velocity":128,"startTime":88.1537579999998,"endTime":88.23068099999979,"instrument":1,"program":118,"isDrum":true},{"pitch":38,"velocity":128,"startTime":88.1537579999998,"endTime":88.23068099999979,"instrument":1,"program":118,"isDrum":true},{"pitch":57,"velocity":128,"startTime":88.1537579999998,"endTime":88.23068099999979,"instrument":1,"program":118,"isDrum":true},{"pitch":36,"velocity":128,"startTime":88.26914249999979,"endTime":88.34606549999978,"instrument":1,"program":118,"isDrum":true},{"pitch":36,"velocity":128,"startTime":88.38452699999978,"endTime":88.46144999999977,"instrument":1,"program":118,"isDrum":true},{"pitch":36,"velocity":128,"startTime":88.61529599999977,"endTime":88.76914199999977,"instrument":1,"program":118,"isDrum":true},{"pitch":38,"velocity":128,"startTime":88.61529599999977,"endTime":88.76914199999977,"instrument":1,"program":118,"isDrum":true},{"pitch":57,"velocity":128,"startTime":88.61529599999977,"endTime":88.76914199999977,"instrument":1,"program":118,"isDrum":true},{"pitch":38,"velocity":128,"startTime":89.07683399999978,"endTime":89.23067999999978,"instrument":1,"program":118,"isDrum":true},{"pitch":36,"velocity":128,"startTime":89.30760299999977,"endTime":89.46144899999977,"instrument":1,"program":118,"isDrum":true},{"pitch":38,"velocity":128,"startTime":89.30760299999977,"endTime":89.46144899999977,"instrument":1,"program":118,"isDrum":true},{"pitch":38,"velocity":128,"startTime":89.53837199999977,"endTime":89.69221799999977,"instrument":1,"program":118,"isDrum":true},{"pitch":36,"velocity":128,"startTime":89.53837199999977,"endTime":89.69221799999977,"instrument":1,"program":118,"isDrum":true},{"pitch":57,"velocity":128,"startTime":89.53837199999977,"endTime":89.69221799999977,"instrument":1,"program":118,"isDrum":true},{"pitch":38,"velocity":128,"startTime":89.99990999999977,"endTime":90.15375599999977,"instrument":1,"program":118,"isDrum":true},{"pitch":38,"velocity":128,"startTime":90.23067899999977,"endTime":90.38452499999977,"instrument":1,"program":118,"isDrum":true},{"pitch":36,"velocity":128,"startTime":90.23067899999977,"endTime":90.38452499999977,"instrument":1,"program":118,"isDrum":true},{"pitch":36,"velocity":128,"startTime":90.46144799999976,"endTime":90.61529399999976,"instrument":1,"program":118,"isDrum":true},{"pitch":38,"velocity":128,"startTime":90.46144799999976,"endTime":90.61529399999976,"instrument":1,"program":118,"isDrum":true},{"pitch":57,"velocity":128,"startTime":90.46144799999976,"endTime":90.61529399999976,"instrument":1,"program":118,"isDrum":true},{"pitch":38,"velocity":128,"startTime":90.92298599999977,"endTime":91.07683199999977,"instrument":1,"program":118,"isDrum":true},{"pitch":36,"velocity":128,"startTime":91.15375499999976,"endTime":91.30760099999976,"instrument":1,"program":118,"isDrum":true},{"pitch":38,"velocity":128,"startTime":91.15375499999976,"endTime":91.30760099999976,"instrument":1,"program":118,"isDrum":true},{"pitch":38,"velocity":128,"startTime":91.38452399999976,"endTime":91.53836999999976,"instrument":1,"program":118,"isDrum":true},{"pitch":36,"velocity":128,"startTime":91.38452399999976,"endTime":91.53836999999976,"instrument":1,"program":118,"isDrum":true},{"pitch":57,"velocity":128,"startTime":91.38452399999976,"endTime":91.53836999999976,"instrument":1,"program":118,"isDrum":true},{"pitch":38,"velocity":128,"startTime":91.84606199999976,"endTime":91.99990799999976,"instrument":1,"program":118,"isDrum":true},{"pitch":38,"velocity":128,"startTime":92.07683099999976,"endTime":92.23067699999976,"instrument":1,"program":118,"isDrum":true},{"pitch":36,"velocity":128,"startTime":92.07683099999976,"endTime":92.23067699999976,"instrument":1,"program":118,"isDrum":true},{"pitch":36,"velocity":128,"startTime":92.30759999999975,"endTime":92.46144599999975,"instrument":1,"program":118,"isDrum":true},{"pitch":38,"velocity":128,"startTime":92.30759999999975,"endTime":92.46144599999975,"instrument":1,"program":118,"isDrum":true},{"pitch":57,"velocity":128,"startTime":92.30759999999975,"endTime":92.46144599999975,"instrument":1,"program":118,"isDrum":true},{"pitch":57,"velocity":128,"startTime":92.76913799999976,"endTime":92.84606099999975,"instrument":1,"program":118,"isDrum":true},{"pitch":38,"velocity":128,"startTime":92.76913799999976,"endTime":92.84606099999975,"instrument":1,"program":118,"isDrum":true},{"pitch":36,"velocity":128,"startTime":92.76913799999976,"endTime":92.84606099999975,"instrument":1,"program":118,"isDrum":true},{"pitch":36,"velocity":128,"startTime":92.88452249999975,"endTime":92.96144549999974,"instrument":1,"program":118,"isDrum":true},{"pitch":36,"velocity":128,"startTime":92.99990699999974,"endTime":93.07682999999973,"instrument":1,"program":118,"isDrum":true},{"pitch":36,"velocity":128,"startTime":93.23067599999973,"endTime":93.30759899999973,"instrument":1,"program":118,"isDrum":true},{"pitch":38,"velocity":128,"startTime":93.23067599999973,"endTime":93.30759899999973,"instrument":1,"program":118,"isDrum":true},{"pitch":57,"velocity":128,"startTime":93.23067599999973,"endTime":93.30759899999973,"instrument":1,"program":118,"isDrum":true},{"pitch":36,"velocity":128,"startTime":93.34606049999972,"endTime":93.42298349999972,"instrument":1,"program":118,"isDrum":true},{"pitch":36,"velocity":128,"startTime":93.46144499999971,"endTime":93.5383679999997,"instrument":1,"program":118,"isDrum":true},{"pitch":57,"velocity":128,"startTime":93.69221399999971,"endTime":93.84605999999971,"instrument":1,"program":118,"isDrum":true},{"pitch":38,"velocity":128,"startTime":93.69221399999971,"endTime":93.84605999999971,"instrument":1,"program":118,"isDrum":true},{"pitch":36,"velocity":128,"startTime":93.69221399999971,"endTime":93.84605999999971,"instrument":1,"program":118,"isDrum":true},{"pitch":38,"velocity":128,"startTime":94.15375199999971,"endTime":94.2306749999997,"instrument":1,"program":118,"isDrum":true},{"pitch":36,"velocity":128,"startTime":94.15375199999971,"endTime":94.2306749999997,"instrument":1,"program":118,"isDrum":true},{"pitch":57,"velocity":128,"startTime":94.15375199999971,"endTime":94.2306749999997,"instrument":1,"program":118,"isDrum":true},{"pitch":36,"velocity":128,"startTime":94.6152899999997,"endTime":94.6922129999997,"instrument":1,"program":118,"isDrum":true},{"pitch":38,"velocity":128,"startTime":94.6152899999997,"endTime":94.6922129999997,"instrument":1,"program":118,"isDrum":true},{"pitch":57,"velocity":128,"startTime":94.6152899999997,"endTime":94.6922129999997,"instrument":1,"program":118,"isDrum":true},{"pitch":36,"velocity":128,"startTime":94.7306744999997,"endTime":94.80759749999969,"instrument":1,"program":118,"isDrum":true},{"pitch":36,"velocity":128,"startTime":94.84605899999968,"endTime":94.92298199999968,"instrument":1,"program":118,"isDrum":true},{"pitch":38,"velocity":128,"startTime":95.07682799999968,"endTime":95.15375099999967,"instrument":1,"program":118,"isDrum":true},{"pitch":36,"velocity":128,"startTime":95.07682799999968,"endTime":95.15375099999967,"instrument":1,"program":118,"isDrum":true},{"pitch":57,"velocity":128,"startTime":95.07682799999968,"endTime":95.15375099999967,"instrument":1,"program":118,"isDrum":true},{"pitch":36,"velocity":128,"startTime":95.19221249999967,"endTime":95.26913549999966,"instrument":1,"program":118,"isDrum":true},{"pitch":36,"velocity":128,"startTime":95.30759699999966,"endTime":95.38451999999965,"instrument":1,"program":118,"isDrum":true},{"pitch":36,"velocity":128,"startTime":95.53836599999966,"endTime":95.61528899999965,"instrument":1,"program":118,"isDrum":true},{"pitch":38,"velocity":128,"startTime":95.53836599999966,"endTime":95.61528899999965,"instrument":1,"program":118,"isDrum":true},{"pitch":57,"velocity":128,"startTime":95.53836599999966,"endTime":95.61528899999965,"instrument":1,"program":118,"isDrum":true},{"pitch":36,"velocity":128,"startTime":95.65375049999965,"endTime":95.73067349999964,"instrument":1,"program":118,"isDrum":true},{"pitch":36,"velocity":128,"startTime":95.76913499999964,"endTime":95.84605799999963,"instrument":1,"program":118,"isDrum":true},{"pitch":36,"velocity":128,"startTime":95.99990399999963,"endTime":96.15374999999963,"instrument":1,"program":118,"isDrum":true},{"pitch":38,"velocity":128,"startTime":95.99990399999963,"endTime":96.15374999999963,"instrument":1,"program":118,"isDrum":true},{"pitch":57,"velocity":128,"startTime":95.99990399999963,"endTime":96.15374999999963,"instrument":1,"program":118,"isDrum":true},{"pitch":38,"velocity":128,"startTime":96.46144199999964,"endTime":96.61528799999964,"instrument":1,"program":118,"isDrum":true},{"pitch":36,"velocity":128,"startTime":96.69221099999963,"endTime":96.84605699999963,"instrument":1,"program":118,"isDrum":true},{"pitch":38,"velocity":128,"startTime":96.69221099999963,"endTime":96.84605699999963,"instrument":1,"program":118,"isDrum":true},{"pitch":38,"velocity":128,"startTime":96.92297999999963,"endTime":97.07682599999963,"instrument":1,"program":118,"isDrum":true},{"pitch":36,"velocity":128,"startTime":96.92297999999963,"endTime":97.07682599999963,"instrument":1,"program":118,"isDrum":true},{"pitch":57,"velocity":128,"startTime":96.92297999999963,"endTime":97.07682599999963,"instrument":1,"program":118,"isDrum":true},{"pitch":38,"velocity":128,"startTime":97.38451799999963,"endTime":97.53836399999963,"instrument":1,"program":118,"isDrum":true},{"pitch":38,"velocity":128,"startTime":97.61528699999963,"endTime":97.76913299999963,"instrument":1,"program":118,"isDrum":true},{"pitch":36,"velocity":128,"startTime":97.61528699999963,"endTime":97.76913299999963,"instrument":1,"program":118,"isDrum":true},{"pitch":36,"velocity":128,"startTime":97.84605599999962,"endTime":97.99990199999962,"instrument":1,"program":118,"isDrum":true},{"pitch":38,"velocity":128,"startTime":97.84605599999962,"endTime":97.99990199999962,"instrument":1,"program":118,"isDrum":true},{"pitch":57,"velocity":128,"startTime":97.84605599999962,"endTime":97.99990199999962,"instrument":1,"program":118,"isDrum":true},{"pitch":38,"velocity":128,"startTime":98.30759399999963,"endTime":98.46143999999963,"instrument":1,"program":118,"isDrum":true},{"pitch":36,"velocity":128,"startTime":98.53836299999962,"endTime":98.69220899999962,"instrument":1,"program":118,"isDrum":true},{"pitch":38,"velocity":128,"startTime":98.53836299999962,"endTime":98.69220899999962,"instrument":1,"program":118,"isDrum":true},{"pitch":38,"velocity":128,"startTime":98.76913199999962,"endTime":98.92297799999962,"instrument":1,"program":118,"isDrum":true},{"pitch":36,"velocity":128,"startTime":98.76913199999962,"endTime":98.92297799999962,"instrument":1,"program":118,"isDrum":true},{"pitch":57,"velocity":128,"startTime":98.76913199999962,"endTime":98.92297799999962,"instrument":1,"program":118,"isDrum":true},{"pitch":38,"velocity":128,"startTime":99.23066999999962,"endTime":99.38451599999962,"instrument":1,"program":118,"isDrum":true},{"pitch":38,"velocity":128,"startTime":99.46143899999961,"endTime":99.61528499999962,"instrument":1,"program":118,"isDrum":true},{"pitch":36,"velocity":128,"startTime":99.46143899999961,"endTime":99.61528499999962,"instrument":1,"program":118,"isDrum":true},{"pitch":36,"velocity":128,"startTime":99.69220799999961,"endTime":99.84605399999961,"instrument":1,"program":118,"isDrum":true},{"pitch":38,"velocity":128,"startTime":99.69220799999961,"endTime":99.84605399999961,"instrument":1,"program":118,"isDrum":true},{"pitch":57,"velocity":128,"startTime":99.69220799999961,"endTime":99.84605399999961,"instrument":1,"program":118,"isDrum":true},{"pitch":57,"velocity":128,"startTime":100.15374599999961,"endTime":100.23066899999961,"instrument":1,"program":118,"isDrum":true},{"pitch":38,"velocity":128,"startTime":100.15374599999961,"endTime":100.23066899999961,"instrument":1,"program":118,"isDrum":true},{"pitch":36,"velocity":128,"startTime":100.15374599999961,"endTime":100.23066899999961,"instrument":1,"program":118,"isDrum":true},{"pitch":36,"velocity":128,"startTime":100.2691304999996,"endTime":100.3460534999996,"instrument":1,"program":118,"isDrum":true},{"pitch":36,"velocity":128,"startTime":100.3845149999996,"endTime":100.46143799999959,"instrument":1,"program":118,"isDrum":true},{"pitch":36,"velocity":128,"startTime":100.61528399999959,"endTime":100.69220699999958,"instrument":1,"program":118,"isDrum":true},{"pitch":38,"velocity":128,"startTime":100.61528399999959,"endTime":100.69220699999958,"instrument":1,"program":118,"isDrum":true},{"pitch":57,"velocity":128,"startTime":100.61528399999959,"endTime":100.69220699999958,"instrument":1,"program":118,"isDrum":true},{"pitch":36,"velocity":128,"startTime":100.73066849999958,"endTime":100.80759149999957,"instrument":1,"program":118,"isDrum":true},{"pitch":36,"velocity":128,"startTime":100.84605299999957,"endTime":100.92297599999957,"instrument":1,"program":118,"isDrum":true},{"pitch":57,"velocity":128,"startTime":101.07682199999957,"endTime":101.23066799999957,"instrument":1,"program":118,"isDrum":true},{"pitch":38,"velocity":128,"startTime":101.07682199999957,"endTime":101.23066799999957,"instrument":1,"program":118,"isDrum":true},{"pitch":36,"velocity":128,"startTime":101.07682199999957,"endTime":101.23066799999957,"instrument":1,"program":118,"isDrum":true},{"pitch":38,"velocity":128,"startTime":101.53835999999957,"endTime":101.61528299999956,"instrument":1,"program":118,"isDrum":true},{"pitch":36,"velocity":128,"startTime":101.53835999999957,"endTime":101.61528299999956,"instrument":1,"program":118,"isDrum":true},{"pitch":57,"velocity":128,"startTime":101.53835999999957,"endTime":101.61528299999956,"instrument":1,"program":118,"isDrum":true},{"pitch":36,"velocity":128,"startTime":101.99989799999956,"endTime":102.07682099999955,"instrument":1,"program":118,"isDrum":true},{"pitch":38,"velocity":128,"startTime":101.99989799999956,"endTime":102.07682099999955,"instrument":1,"program":118,"isDrum":true},{"pitch":57,"velocity":128,"startTime":101.99989799999956,"endTime":102.07682099999955,"instrument":1,"program":118,"isDrum":true},{"pitch":36,"velocity":128,"startTime":102.11528249999955,"endTime":102.19220549999955,"instrument":1,"program":118,"isDrum":true},{"pitch":36,"velocity":128,"startTime":102.23066699999954,"endTime":102.30758999999954,"instrument":1,"program":118,"isDrum":true},{"pitch":38,"velocity":128,"startTime":102.46143599999954,"endTime":102.53835899999953,"instrument":1,"program":118,"isDrum":true},{"pitch":36,"velocity":128,"startTime":102.46143599999954,"endTime":102.53835899999953,"instrument":1,"program":118,"isDrum":true},{"pitch":57,"velocity":128,"startTime":102.46143599999954,"endTime":102.53835899999953,"instrument":1,"program":118,"isDrum":true},{"pitch":36,"velocity":128,"startTime":102.57682049999953,"endTime":102.65374349999952,"instrument":1,"program":118,"isDrum":true},{"pitch":36,"velocity":128,"startTime":102.69220499999952,"endTime":102.76912799999951,"instrument":1,"program":118,"isDrum":true},{"pitch":36,"velocity":128,"startTime":102.92297399999951,"endTime":102.9998969999995,"instrument":1,"program":118,"isDrum":true},{"pitch":38,"velocity":128,"startTime":102.92297399999951,"endTime":102.9998969999995,"instrument":1,"program":118,"isDrum":true},{"pitch":57,"velocity":128,"startTime":102.92297399999951,"endTime":102.9998969999995,"instrument":1,"program":118,"isDrum":true},{"pitch":36,"velocity":128,"startTime":103.0383584999995,"endTime":103.1152814999995,"instrument":1,"program":118,"isDrum":true},{"pitch":36,"velocity":128,"startTime":103.1537429999995,"endTime":103.23066599999949,"instrument":1,"program":118,"isDrum":true},{"pitch":36,"velocity":128,"startTime":103.38451199999949,"endTime":103.53835799999949,"instrument":1,"program":118,"isDrum":true},{"pitch":57,"velocity":128,"startTime":103.38451199999949,"endTime":103.53835799999949,"instrument":1,"program":118,"isDrum":true},{"pitch":38,"velocity":128,"startTime":103.8460499999995,"endTime":103.9998959999995,"instrument":1,"program":118,"isDrum":true},{"pitch":57,"velocity":128,"startTime":103.8460499999995,"endTime":103.9998959999995,"instrument":1,"program":118,"isDrum":true},{"pitch":57,"velocity":128,"startTime":104.07681899999949,"endTime":104.23066499999948,"instrument":1,"program":118,"isDrum":true},{"pitch":38,"velocity":128,"startTime":104.07681899999949,"endTime":104.15374199999948,"instrument":1,"program":118,"isDrum":true},{"pitch":38,"velocity":128,"startTime":104.19220349999948,"endTime":104.26912649999947,"instrument":1,"program":118,"isDrum":true},{"pitch":36,"velocity":128,"startTime":104.30758799999947,"endTime":104.46143399999947,"instrument":1,"program":118,"isDrum":true},{"pitch":57,"velocity":128,"startTime":104.30758799999947,"endTime":104.46143399999947,"instrument":1,"program":118,"isDrum":true},{"pitch":38,"velocity":128,"startTime":104.76912599999947,"endTime":104.92297199999948,"instrument":1,"program":118,"isDrum":true},{"pitch":57,"velocity":128,"startTime":104.76912599999947,"endTime":104.92297199999948,"instrument":1,"program":118,"isDrum":true},{"pitch":36,"velocity":128,"startTime":105.23066399999948,"endTime":105.38450999999948,"instrument":1,"program":118,"isDrum":true},{"pitch":38,"velocity":128,"startTime":105.69220199999948,"endTime":105.84604799999948,"instrument":1,"program":118,"isDrum":true},{"pitch":57,"velocity":128,"startTime":105.69220199999948,"endTime":105.84604799999948,"instrument":1,"program":118,"isDrum":true},{"pitch":38,"velocity":128,"startTime":105.92297099999948,"endTime":106.07681699999948,"instrument":1,"program":118,"isDrum":true},{"pitch":36,"velocity":128,"startTime":106.15373999999947,"endTime":106.30758599999946,"instrument":1,"program":118,"isDrum":true},{"pitch":38,"velocity":128,"startTime":106.15373999999947,"endTime":106.23066299999947,"instrument":1,"program":118,"isDrum":true},{"pitch":38,"velocity":128,"startTime":106.38450899999945,"endTime":106.46143199999945,"instrument":1,"program":118,"isDrum":true},{"pitch":40,"velocity":128,"startTime":106.49989349999944,"endTime":106.57681649999944,"instrument":1,"program":118,"isDrum":true},{"pitch":38,"velocity":128,"startTime":106.61527799999944,"endTime":106.76912399999944,"instrument":1,"program":118,"isDrum":true},{"pitch":57,"velocity":128,"startTime":106.61527799999944,"endTime":106.76912399999944,"instrument":1,"program":118,"isDrum":true},{"pitch":38,"velocity":128,"startTime":106.84604699999943,"endTime":106.92296999999942,"instrument":1,"program":118,"isDrum":true},{"pitch":38,"velocity":128,"startTime":106.96143149999942,"endTime":107.03835449999941,"instrument":1,"program":118,"isDrum":true},{"pitch":36,"velocity":128,"startTime":107.07681599999941,"endTime":107.23066199999941,"instrument":1,"program":118,"isDrum":true},{"pitch":57,"velocity":128,"startTime":107.07681599999941,"endTime":107.23066199999941,"instrument":1,"program":118,"isDrum":true},{"pitch":38,"velocity":128,"startTime":107.53835399999942,"endTime":107.69219999999942,"instrument":1,"program":118,"isDrum":true},{"pitch":57,"velocity":128,"startTime":107.53835399999942,"endTime":107.69219999999942,"instrument":1,"program":118,"isDrum":true},{"pitch":57,"velocity":128,"startTime":107.76912299999941,"endTime":107.9229689999994,"instrument":1,"program":118,"isDrum":true},{"pitch":38,"velocity":128,"startTime":107.76912299999941,"endTime":107.8460459999994,"instrument":1,"program":118,"isDrum":true},{"pitch":38,"velocity":128,"startTime":107.8845074999994,"endTime":107.9614304999994,"instrument":1,"program":118,"isDrum":true},{"pitch":36,"velocity":128,"startTime":107.99989199999939,"endTime":108.1537379999994,"instrument":1,"program":118,"isDrum":true},{"pitch":57,"velocity":128,"startTime":107.99989199999939,"endTime":108.1537379999994,"instrument":1,"program":118,"isDrum":true},{"pitch":57,"velocity":128,"startTime":108.23066099999939,"endTime":108.38450699999939,"instrument":1,"program":118,"isDrum":true},{"pitch":38,"velocity":128,"startTime":108.46142999999938,"endTime":108.61527599999938,"instrument":1,"program":118,"isDrum":true},{"pitch":57,"velocity":128,"startTime":108.46142999999938,"endTime":108.61527599999938,"instrument":1,"program":118,"isDrum":true},{"pitch":57,"velocity":128,"startTime":108.69219899999938,"endTime":108.84604499999938,"instrument":1,"program":118,"isDrum":true},{"pitch":36,"velocity":128,"startTime":108.92296799999937,"endTime":109.07681399999937,"instrument":1,"program":118,"isDrum":true},{"pitch":57,"velocity":128,"startTime":108.92296799999937,"endTime":109.07681399999937,"instrument":1,"program":118,"isDrum":true},{"pitch":38,"velocity":128,"startTime":109.38450599999938,"endTime":109.53835199999938,"instrument":1,"program":118,"isDrum":true},{"pitch":57,"velocity":128,"startTime":109.38450599999938,"endTime":109.53835199999938,"instrument":1,"program":118,"isDrum":true},{"pitch":38,"velocity":128,"startTime":109.61527499999937,"endTime":109.76912099999937,"instrument":1,"program":118,"isDrum":true},{"pitch":57,"velocity":128,"startTime":109.61527499999937,"endTime":109.76912099999937,"instrument":1,"program":118,"isDrum":true},{"pitch":36,"velocity":128,"startTime":109.84604399999937,"endTime":109.99988999999935,"instrument":1,"program":118,"isDrum":true},{"pitch":38,"velocity":128,"startTime":109.84604399999937,"endTime":109.92296699999936,"instrument":1,"program":118,"isDrum":true},{"pitch":57,"velocity":128,"startTime":109.84604399999937,"endTime":109.99988999999935,"instrument":1,"program":118,"isDrum":true},{"pitch":38,"velocity":128,"startTime":110.07681299999935,"endTime":110.15373599999934,"instrument":1,"program":118,"isDrum":true},{"pitch":57,"velocity":128,"startTime":110.07681299999935,"endTime":110.23065899999933,"instrument":1,"program":118,"isDrum":true},{"pitch":40,"velocity":128,"startTime":110.19219749999934,"endTime":110.26912049999933,"instrument":1,"program":118,"isDrum":true},{"pitch":38,"velocity":128,"startTime":110.30758199999933,"endTime":110.46142799999933,"instrument":1,"program":118,"isDrum":true},{"pitch":57,"velocity":128,"startTime":110.30758199999933,"endTime":110.46142799999933,"instrument":1,"program":118,"isDrum":true},{"pitch":38,"velocity":128,"startTime":110.53835099999932,"endTime":110.61527399999932,"instrument":1,"program":118,"isDrum":true},{"pitch":57,"velocity":128,"startTime":110.53835099999932,"endTime":110.69219699999931,"instrument":1,"program":118,"isDrum":true},{"pitch":38,"velocity":128,"startTime":110.65373549999931,"endTime":110.73065849999931,"instrument":1,"program":118,"isDrum":true},{"pitch":36,"velocity":128,"startTime":110.7691199999993,"endTime":110.9229659999993,"instrument":1,"program":118,"isDrum":true},{"pitch":57,"velocity":128,"startTime":110.7691199999993,"endTime":110.9229659999993,"instrument":1,"program":118,"isDrum":true},{"pitch":38,"velocity":128,"startTime":111.23065799999931,"endTime":111.38450399999931,"instrument":1,"program":118,"isDrum":true},{"pitch":57,"velocity":128,"startTime":111.23065799999931,"endTime":111.38450399999931,"instrument":1,"program":118,"isDrum":true},{"pitch":57,"velocity":128,"startTime":111.4614269999993,"endTime":111.61527299999929,"instrument":1,"program":118,"isDrum":true},{"pitch":38,"velocity":128,"startTime":111.4614269999993,"endTime":111.5383499999993,"instrument":1,"program":118,"isDrum":true},{"pitch":38,"velocity":128,"startTime":111.5768114999993,"endTime":111.65373449999929,"instrument":1,"program":118,"isDrum":true},{"pitch":36,"velocity":128,"startTime":111.69219599999929,"endTime":111.84604199999929,"instrument":1,"program":118,"isDrum":true},{"pitch":57,"velocity":128,"startTime":111.69219599999929,"endTime":111.84604199999929,"instrument":1,"program":118,"isDrum":true},{"pitch":38,"velocity":128,"startTime":112.15373399999929,"endTime":112.30757999999929,"instrument":1,"program":118,"isDrum":true},{"pitch":57,"velocity":128,"startTime":112.15373399999929,"endTime":112.30757999999929,"instrument":1,"program":118,"isDrum":true},{"pitch":36,"velocity":128,"startTime":112.6152719999993,"endTime":112.7691179999993,"instrument":1,"program":118,"isDrum":true},{"pitch":57,"velocity":128,"startTime":112.6152719999993,"endTime":112.7691179999993,"instrument":1,"program":118,"isDrum":true},{"pitch":38,"velocity":128,"startTime":113.0768099999993,"endTime":113.2306559999993,"instrument":1,"program":118,"isDrum":true},{"pitch":57,"velocity":128,"startTime":113.0768099999993,"endTime":113.2306559999993,"instrument":1,"program":118,"isDrum":true},{"pitch":38,"velocity":128,"startTime":113.3075789999993,"endTime":113.4614249999993,"instrument":1,"program":118,"isDrum":true},{"pitch":57,"velocity":128,"startTime":113.3075789999993,"endTime":113.4614249999993,"instrument":1,"program":118,"isDrum":true},{"pitch":36,"velocity":128,"startTime":113.53834799999929,"endTime":113.69219399999928,"instrument":1,"program":118,"isDrum":true},{"pitch":38,"velocity":128,"startTime":113.53834799999929,"endTime":113.61527099999928,"instrument":1,"program":118,"isDrum":true},{"pitch":57,"velocity":128,"startTime":113.53834799999929,"endTime":113.69219399999928,"instrument":1,"program":118,"isDrum":true},{"pitch":38,"velocity":128,"startTime":113.76911699999927,"endTime":113.84603999999926,"instrument":1,"program":118,"isDrum":true},{"pitch":57,"velocity":128,"startTime":113.76911699999927,"endTime":113.92296299999926,"instrument":1,"program":118,"isDrum":true},{"pitch":40,"velocity":128,"startTime":113.88450149999926,"endTime":113.96142449999925,"instrument":1,"program":118,"isDrum":true},{"pitch":38,"velocity":128,"startTime":113.99988599999925,"endTime":114.15373199999925,"instrument":1,"program":118,"isDrum":true},{"pitch":57,"velocity":128,"startTime":113.99988599999925,"endTime":114.15373199999925,"instrument":1,"program":118,"isDrum":true},{"pitch":38,"velocity":128,"startTime":114.23065499999925,"endTime":114.30757799999924,"instrument":1,"program":118,"isDrum":true},{"pitch":57,"velocity":128,"startTime":114.23065499999925,"endTime":114.38450099999923,"instrument":1,"program":118,"isDrum":true},{"pitch":38,"velocity":128,"startTime":114.34603949999924,"endTime":114.42296249999923,"instrument":1,"program":118,"isDrum":true},{"pitch":36,"velocity":128,"startTime":114.46142399999923,"endTime":114.61526999999923,"instrument":1,"program":118,"isDrum":true},{"pitch":57,"velocity":128,"startTime":114.46142399999923,"endTime":114.61526999999923,"instrument":1,"program":118,"isDrum":true},{"pitch":38,"velocity":128,"startTime":114.92296199999923,"endTime":115.07680799999923,"instrument":1,"program":118,"isDrum":true},{"pitch":57,"velocity":128,"startTime":114.92296199999923,"endTime":115.07680799999923,"instrument":1,"program":118,"isDrum":true},{"pitch":57,"velocity":128,"startTime":115.15373099999923,"endTime":115.30757699999921,"instrument":1,"program":118,"isDrum":true},{"pitch":38,"velocity":128,"startTime":115.15373099999923,"endTime":115.23065399999922,"instrument":1,"program":118,"isDrum":true},{"pitch":38,"velocity":128,"startTime":115.26911549999922,"endTime":115.34603849999921,"instrument":1,"program":118,"isDrum":true},{"pitch":36,"velocity":128,"startTime":115.3844999999992,"endTime":115.53834599999921,"instrument":1,"program":118,"isDrum":true},{"pitch":57,"velocity":128,"startTime":115.3844999999992,"endTime":115.53834599999921,"instrument":1,"program":118,"isDrum":true},{"pitch":38,"velocity":128,"startTime":115.84603799999921,"endTime":115.99988399999921,"instrument":1,"program":118,"isDrum":true},{"pitch":57,"velocity":128,"startTime":115.84603799999921,"endTime":115.99988399999921,"instrument":1,"program":118,"isDrum":true},{"pitch":36,"velocity":128,"startTime":116.30757599999922,"endTime":116.46142199999922,"instrument":1,"program":118,"isDrum":true},{"pitch":38,"velocity":128,"startTime":116.76911399999922,"endTime":116.92295999999922,"instrument":1,"program":118,"isDrum":true},{"pitch":57,"velocity":128,"startTime":116.76911399999922,"endTime":116.92295999999922,"instrument":1,"program":118,"isDrum":true},{"pitch":38,"velocity":128,"startTime":116.99988299999922,"endTime":117.15372899999922,"instrument":1,"program":118,"isDrum":true},{"pitch":36,"velocity":128,"startTime":117.23065199999921,"endTime":117.3844979999992,"instrument":1,"program":118,"isDrum":true},{"pitch":38,"velocity":128,"startTime":117.23065199999921,"endTime":117.3075749999992,"instrument":1,"program":118,"isDrum":true},{"pitch":38,"velocity":128,"startTime":117.46142099999919,"endTime":117.53834399999919,"instrument":1,"program":118,"isDrum":true},{"pitch":40,"velocity":128,"startTime":117.57680549999918,"endTime":117.65372849999918,"instrument":1,"program":118,"isDrum":true},{"pitch":38,"velocity":128,"startTime":117.69218999999917,"endTime":117.84603599999917,"instrument":1,"program":118,"isDrum":true},{"pitch":57,"velocity":128,"startTime":117.69218999999917,"endTime":117.84603599999917,"instrument":1,"program":118,"isDrum":true},{"pitch":38,"velocity":128,"startTime":117.92295899999917,"endTime":117.99988199999916,"instrument":1,"program":118,"isDrum":true},{"pitch":38,"velocity":128,"startTime":118.03834349999916,"endTime":118.11526649999915,"instrument":1,"program":118,"isDrum":true},{"pitch":57,"velocity":128,"startTime":118.15372799999915,"endTime":118.30757399999915,"instrument":1,"program":118,"isDrum":true},{"pitch":35,"velocity":128,"startTime":118.15372799999915,"endTime":118.30757399999915,"instrument":1,"program":118,"isDrum":true},{"pitch":57,"velocity":128,"startTime":118.38449699999914,"endTime":118.53834299999914,"instrument":1,"program":118,"isDrum":true},{"pitch":35,"velocity":128,"startTime":118.38449699999914,"endTime":118.53834299999914,"instrument":1,"program":118,"isDrum":true},{"pitch":57,"velocity":128,"startTime":118.61526599999914,"endTime":118.76911199999913,"instrument":1,"program":118,"isDrum":true},{"pitch":35,"velocity":128,"startTime":118.61526599999914,"endTime":118.76911199999913,"instrument":1,"program":118,"isDrum":true},{"pitch":38,"velocity":128,"startTime":118.61526599999914,"endTime":118.69218899999913,"instrument":1,"program":118,"isDrum":true},{"pitch":57,"velocity":128,"startTime":118.84603499999912,"endTime":118.92295799999911,"instrument":1,"program":118,"isDrum":true},{"pitch":35,"velocity":128,"startTime":118.84603499999912,"endTime":118.92295799999911,"instrument":1,"program":118,"isDrum":true},{"pitch":38,"velocity":128,"startTime":118.84603499999912,"endTime":118.92295799999911,"instrument":1,"program":118,"isDrum":true},{"pitch":57,"velocity":128,"startTime":118.96141949999911,"endTime":119.0383424999991,"instrument":1,"program":118,"isDrum":true},{"pitch":35,"velocity":128,"startTime":118.96141949999911,"endTime":119.0383424999991,"instrument":1,"program":118,"isDrum":true},{"pitch":38,"velocity":128,"startTime":118.96141949999911,"endTime":119.0383424999991,"instrument":1,"program":118,"isDrum":true},{"pitch":57,"velocity":128,"startTime":119.0768039999991,"endTime":119.23064999999909,"instrument":1,"program":118,"isDrum":true},{"pitch":35,"velocity":128,"startTime":119.0768039999991,"endTime":119.23064999999909,"instrument":1,"program":118,"isDrum":true},{"pitch":38,"velocity":128,"startTime":119.0768039999991,"endTime":119.1537269999991,"instrument":1,"program":118,"isDrum":true},{"pitch":57,"velocity":128,"startTime":119.30757299999908,"endTime":119.38449599999907,"instrument":1,"program":118,"isDrum":true},{"pitch":35,"velocity":128,"startTime":119.30757299999908,"endTime":119.38449599999907,"instrument":1,"program":118,"isDrum":true},{"pitch":38,"velocity":128,"startTime":119.30757299999908,"endTime":119.38449599999907,"instrument":1,"program":118,"isDrum":true},{"pitch":57,"velocity":128,"startTime":119.42295749999907,"endTime":119.49988049999907,"instrument":1,"program":118,"isDrum":true},{"pitch":57,"velocity":128,"startTime":119.42295749999907,"endTime":119.57680349999906,"instrument":1,"program":118,"isDrum":true},{"pitch":35,"velocity":128,"startTime":119.42295749999907,"endTime":119.49988049999907,"instrument":1,"program":118,"isDrum":true},{"pitch":38,"velocity":128,"startTime":119.42295749999907,"endTime":119.49988049999907,"instrument":1,"program":118,"isDrum":true},{"pitch":57,"velocity":128,"startTime":119.53834199999906,"endTime":119.69218799999905,"instrument":1,"program":118,"isDrum":true},{"pitch":35,"velocity":128,"startTime":119.53834199999906,"endTime":119.69218799999905,"instrument":1,"program":118,"isDrum":true},{"pitch":38,"velocity":128,"startTime":119.53834199999906,"endTime":119.61526499999906,"instrument":1,"program":118,"isDrum":true},{"pitch":57,"velocity":128,"startTime":119.99987999999905,"endTime":120.15372599999905,"instrument":1,"program":118,"isDrum":true},{"pitch":35,"velocity":128,"startTime":119.99987999999905,"endTime":120.15372599999905,"instrument":1,"program":118,"isDrum":true},{"pitch":57,"velocity":128,"startTime":120.23064899999905,"endTime":120.38449499999905,"instrument":1,"program":118,"isDrum":true},{"pitch":35,"velocity":128,"startTime":120.23064899999905,"endTime":120.38449499999905,"instrument":1,"program":118,"isDrum":true},{"pitch":57,"velocity":128,"startTime":120.46141799999904,"endTime":120.61526399999903,"instrument":1,"program":118,"isDrum":true},{"pitch":35,"velocity":128,"startTime":120.46141799999904,"endTime":120.61526399999903,"instrument":1,"program":118,"isDrum":true},{"pitch":38,"velocity":128,"startTime":120.46141799999904,"endTime":120.53834099999904,"instrument":1,"program":118,"isDrum":true},{"pitch":57,"velocity":128,"startTime":120.69218699999902,"endTime":120.76910999999902,"instrument":1,"program":118,"isDrum":true},{"pitch":35,"velocity":128,"startTime":120.69218699999902,"endTime":120.76910999999902,"instrument":1,"program":118,"isDrum":true},{"pitch":38,"velocity":128,"startTime":120.69218699999902,"endTime":120.76910999999902,"instrument":1,"program":118,"isDrum":true},{"pitch":57,"velocity":128,"startTime":120.80757149999901,"endTime":120.88449449999901,"instrument":1,"program":118,"isDrum":true},{"pitch":35,"velocity":128,"startTime":120.80757149999901,"endTime":120.88449449999901,"instrument":1,"program":118,"isDrum":true},{"pitch":38,"velocity":128,"startTime":120.80757149999901,"endTime":120.88449449999901,"instrument":1,"program":118,"isDrum":true},{"pitch":57,"velocity":128,"startTime":120.922955999999,"endTime":121.07680199999899,"instrument":1,"program":118,"isDrum":true},{"pitch":35,"velocity":128,"startTime":120.922955999999,"endTime":121.07680199999899,"instrument":1,"program":118,"isDrum":true},{"pitch":38,"velocity":128,"startTime":120.922955999999,"endTime":120.999878999999,"instrument":1,"program":118,"isDrum":true},{"pitch":57,"velocity":128,"startTime":121.15372499999899,"endTime":121.23064799999898,"instrument":1,"program":118,"isDrum":true},{"pitch":35,"velocity":128,"startTime":121.15372499999899,"endTime":121.23064799999898,"instrument":1,"program":118,"isDrum":true},{"pitch":38,"velocity":128,"startTime":121.15372499999899,"endTime":121.23064799999898,"instrument":1,"program":118,"isDrum":true},{"pitch":57,"velocity":128,"startTime":121.26910949999898,"endTime":121.34603249999897,"instrument":1,"program":118,"isDrum":true},{"pitch":57,"velocity":128,"startTime":121.26910949999898,"endTime":121.42295549999896,"instrument":1,"program":118,"isDrum":true},{"pitch":35,"velocity":128,"startTime":121.26910949999898,"endTime":121.34603249999897,"instrument":1,"program":118,"isDrum":true},{"pitch":38,"velocity":128,"startTime":121.26910949999898,"endTime":121.34603249999897,"instrument":1,"program":118,"isDrum":true},{"pitch":57,"velocity":128,"startTime":121.38449399999897,"endTime":121.53833999999895,"instrument":1,"program":118,"isDrum":true},{"pitch":35,"velocity":128,"startTime":121.38449399999897,"endTime":121.53833999999895,"instrument":1,"program":118,"isDrum":true},{"pitch":38,"velocity":128,"startTime":121.38449399999897,"endTime":121.46141699999896,"instrument":1,"program":118,"isDrum":true},{"pitch":57,"velocity":128,"startTime":121.61526299999895,"endTime":121.76910899999895,"instrument":1,"program":118,"isDrum":true},{"pitch":38,"velocity":128,"startTime":121.61526299999895,"endTime":121.76910899999895,"instrument":1,"program":118,"isDrum":true},{"pitch":35,"velocity":128,"startTime":121.61526299999895,"endTime":121.76910899999895,"instrument":1,"program":118,"isDrum":true},{"pitch":57,"velocity":128,"startTime":121.84603199999894,"endTime":121.99987799999894,"instrument":1,"program":118,"isDrum":true},{"pitch":38,"velocity":128,"startTime":121.84603199999894,"endTime":121.99987799999894,"instrument":1,"program":118,"isDrum":true},{"pitch":35,"velocity":128,"startTime":121.84603199999894,"endTime":121.99987799999894,"instrument":1,"program":118,"isDrum":true},{"pitch":35,"velocity":128,"startTime":123.34603049999895,"endTime":123.42295349999894,"instrument":1,"program":118,"isDrum":true},{"pitch":40,"velocity":128,"startTime":123.34603049999895,"endTime":123.42295349999894,"instrument":1,"program":118,"isDrum":true},{"pitch":38,"velocity":128,"startTime":123.34603049999895,"endTime":123.42295349999894,"instrument":1,"program":118,"isDrum":true},{"pitch":35,"velocity":128,"startTime":123.46141499999894,"endTime":123.53833799999893,"instrument":1,"program":118,"isDrum":true},{"pitch":38,"velocity":128,"startTime":123.46141499999894,"endTime":123.53833799999893,"instrument":1,"program":118,"isDrum":true},{"pitch":38,"velocity":128,"startTime":123.57679949999893,"endTime":123.65372249999892,"instrument":1,"program":118,"isDrum":true},{"pitch":57,"velocity":128,"startTime":123.57679949999893,"endTime":123.65372249999892,"instrument":1,"program":118,"isDrum":true},{"pitch":68,"velocity":128,"startTime":8.307684,"endTime":8.769222,"instrument":2,"program":53,"isDrum":false},{"pitch":68,"velocity":128,"startTime":8.769222,"endTime":9.230759999999998,"instrument":2,"program":53,"isDrum":false},{"pitch":66,"velocity":128,"startTime":9.230759999999998,"endTime":9.461528999999999,"instrument":2,"program":53,"isDrum":false},{"pitch":68,"velocity":128,"startTime":9.461528999999999,"endTime":9.923066999999998,"instrument":2,"program":53,"isDrum":false},{"pitch":73,"velocity":128,"startTime":10.153835999999998,"endTime":10.384604999999999,"instrument":2,"program":53,"isDrum":false},{"pitch":75,"velocity":128,"startTime":10.384604999999999,"endTime":10.846142999999998,"instrument":2,"program":53,"isDrum":false},{"pitch":76,"velocity":128,"startTime":10.846142999999998,"endTime":11.307680999999997,"instrument":2,"program":53,"isDrum":false},{"pitch":72,"velocity":128,"startTime":11.538449999999997,"endTime":11.692295999999997,"instrument":2,"program":53,"isDrum":false},{"pitch":72,"velocity":128,"startTime":11.769218999999998,"endTime":12.230756999999997,"instrument":2,"program":53,"isDrum":false},{"pitch":74,"velocity":128,"startTime":12.230756999999997,"endTime":12.692294999999996,"instrument":2,"program":53,"isDrum":false},{"pitch":71,"velocity":128,"startTime":12.692294999999996,"endTime":13.153832999999995,"instrument":2,"program":53,"isDrum":false},{"pitch":69,"velocity":128,"startTime":13.615370999999994,"endTime":14.076908999999993,"instrument":2,"program":53,"isDrum":false},{"pitch":71,"velocity":128,"startTime":14.076908999999993,"endTime":14.538446999999993,"instrument":2,"program":53,"isDrum":false},{"pitch":68,"velocity":128,"startTime":14.538446999999993,"endTime":14.999984999999992,"instrument":2,"program":53,"isDrum":false},{"pitch":68,"velocity":128,"startTime":15.692291999999993,"endTime":16.153829999999992,"instrument":2,"program":53,"isDrum":false},{"pitch":68,"velocity":128,"startTime":16.153829999999992,"endTime":16.615367999999993,"instrument":2,"program":53,"isDrum":false},{"pitch":66,"velocity":128,"startTime":16.615367999999993,"endTime":16.84613699999999,"instrument":2,"program":53,"isDrum":false},{"pitch":68,"velocity":128,"startTime":16.84613699999999,"endTime":17.307674999999993,"instrument":2,"program":53,"isDrum":false},{"pitch":73,"velocity":128,"startTime":17.53844399999999,"endTime":17.76921299999999,"instrument":2,"program":53,"isDrum":false},{"pitch":75,"velocity":128,"startTime":17.76921299999999,"endTime":18.23075099999999,"instrument":2,"program":53,"isDrum":false},{"pitch":76,"velocity":128,"startTime":18.23075099999999,"endTime":18.69228899999999,"instrument":2,"program":53,"isDrum":false},{"pitch":72,"velocity":128,"startTime":18.92305799999999,"endTime":19.076903999999992,"instrument":2,"program":53,"isDrum":false},{"pitch":72,"velocity":128,"startTime":19.153826999999993,"endTime":19.615364999999994,"instrument":2,"program":53,"isDrum":false},{"pitch":74,"velocity":128,"startTime":19.615364999999994,"endTime":20.076902999999994,"instrument":2,"program":53,"isDrum":false},{"pitch":71,"velocity":128,"startTime":20.076902999999994,"endTime":20.538440999999995,"instrument":2,"program":53,"isDrum":false},{"pitch":69,"velocity":128,"startTime":21.230747999999995,"endTime":21.461516999999994,"instrument":2,"program":53,"isDrum":false},{"pitch":71,"velocity":128,"startTime":21.461516999999994,"endTime":21.692285999999992,"instrument":2,"program":53,"isDrum":false},{"pitch":68,"velocity":128,"startTime":21.92305499999999,"endTime":22.38459299999999,"instrument":2,"program":53,"isDrum":false},{"pitch":68,"velocity":128,"startTime":23.07689999999999,"endTime":23.538437999999992,"instrument":2,"program":53,"isDrum":false},{"pitch":68,"velocity":128,"startTime":23.538437999999992,"endTime":23.999975999999993,"instrument":2,"program":53,"isDrum":false},{"pitch":66,"velocity":128,"startTime":23.999975999999993,"endTime":24.23074499999999,"instrument":2,"program":53,"isDrum":false},{"pitch":68,"velocity":128,"startTime":24.23074499999999,"endTime":24.692282999999993,"instrument":2,"program":53,"isDrum":false},{"pitch":73,"velocity":128,"startTime":24.92305199999999,"endTime":25.15382099999999,"instrument":2,"program":53,"isDrum":false},{"pitch":75,"velocity":128,"startTime":25.15382099999999,"endTime":25.61535899999999,"instrument":2,"program":53,"isDrum":false},{"pitch":76,"velocity":128,"startTime":25.61535899999999,"endTime":25.84612799999999,"instrument":2,"program":53,"isDrum":false},{"pitch":72,"velocity":128,"startTime":26.30766599999999,"endTime":26.461511999999992,"instrument":2,"program":53,"isDrum":false},{"pitch":72,"velocity":128,"startTime":26.538434999999993,"endTime":26.999972999999994,"instrument":2,"program":53,"isDrum":false},{"pitch":74,"velocity":128,"startTime":26.999972999999994,"endTime":27.461510999999994,"instrument":2,"program":53,"isDrum":false},{"pitch":71,"velocity":128,"startTime":27.461510999999994,"endTime":27.923048999999995,"instrument":2,"program":53,"isDrum":false},{"pitch":69,"velocity":128,"startTime":28.615355999999995,"endTime":28.846124999999994,"instrument":2,"program":53,"isDrum":false},{"pitch":71,"velocity":128,"startTime":28.846124999999994,"endTime":29.076893999999992,"instrument":2,"program":53,"isDrum":false},{"pitch":68,"velocity":128,"startTime":29.30766299999999,"endTime":29.53843199999999,"instrument":2,"program":53,"isDrum":false},{"pitch":68,"velocity":128,"startTime":30.461507999999988,"endTime":30.92304599999999,"instrument":2,"program":53,"isDrum":false},{"pitch":68,"velocity":128,"startTime":30.92304599999999,"endTime":31.38458399999999,"instrument":2,"program":53,"isDrum":false},{"pitch":66,"velocity":128,"startTime":31.38458399999999,"endTime":31.61535299999999,"instrument":2,"program":53,"isDrum":false},{"pitch":68,"velocity":128,"startTime":31.61535299999999,"endTime":32.07689099999999,"instrument":2,"program":53,"isDrum":false},{"pitch":73,"velocity":128,"startTime":32.30765999999999,"endTime":32.538428999999994,"instrument":2,"program":53,"isDrum":false},{"pitch":75,"velocity":128,"startTime":32.538428999999994,"endTime":32.99996699999999,"instrument":2,"program":53,"isDrum":false},{"pitch":76,"velocity":128,"startTime":32.99996699999999,"endTime":33.23073599999999,"instrument":2,"program":53,"isDrum":false},{"pitch":72,"velocity":128,"startTime":33.69227399999999,"endTime":33.92304299999999,"instrument":2,"program":53,"isDrum":false},{"pitch":72,"velocity":128,"startTime":33.92304299999999,"endTime":34.38458099999999,"instrument":2,"program":53,"isDrum":false},{"pitch":74,"velocity":128,"startTime":34.38458099999999,"endTime":34.84611899999999,"instrument":2,"program":53,"isDrum":false},{"pitch":71,"velocity":128,"startTime":34.84611899999999,"endTime":35.76919499999999,"instrument":2,"program":53,"isDrum":false},{"pitch":79,"velocity":128,"startTime":35.53842599999999,"endTime":35.76919499999999,"instrument":2,"program":53,"isDrum":false},{"pitch":78,"velocity":128,"startTime":35.76919499999999,"endTime":36.23073299999999,"instrument":2,"program":53,"isDrum":false},{"pitch":76,"velocity":128,"startTime":36.23073299999999,"endTime":36.46150199999999,"instrument":2,"program":53,"isDrum":false},{"pitch":74,"velocity":128,"startTime":36.46150199999999,"endTime":36.69227099999999,"instrument":2,"program":53,"isDrum":false},{"pitch":76,"velocity":128,"startTime":36.69227099999999,"endTime":37.61534699999999,"instrument":2,"program":53,"isDrum":false},{"pitch":79,"velocity":128,"startTime":39.230729999999994,"endTime":39.461498999999996,"instrument":2,"program":53,"isDrum":false},{"pitch":78,"velocity":128,"startTime":39.461498999999996,"endTime":39.923036999999994,"instrument":2,"program":53,"isDrum":false},{"pitch":76,"velocity":128,"startTime":39.923036999999994,"endTime":40.153805999999996,"instrument":2,"program":53,"isDrum":false},{"pitch":74,"velocity":128,"startTime":40.153805999999996,"endTime":40.384575,"instrument":2,"program":53,"isDrum":false},{"pitch":79,"velocity":128,"startTime":40.384575,"endTime":42.23553468749999,"instrument":2,"program":53,"isDrum":false},{"pitch":78,"velocity":128,"startTime":42.230726999999995,"endTime":42.69226499999999,"instrument":2,"program":53,"isDrum":false},{"pitch":79,"velocity":128,"startTime":42.923033999999994,"endTime":43.153802999999996,"instrument":2,"program":53,"isDrum":false},{"pitch":78,"velocity":128,"startTime":43.153802999999996,"endTime":43.615340999999994,"instrument":2,"program":53,"isDrum":false},{"pitch":76,"velocity":128,"startTime":43.615340999999994,"endTime":43.846109999999996,"instrument":2,"program":53,"isDrum":false},{"pitch":74,"velocity":128,"startTime":43.846109999999996,"endTime":44.076879,"instrument":2,"program":53,"isDrum":false},{"pitch":76,"velocity":128,"startTime":44.076879,"endTime":44.999955,"instrument":2,"program":53,"isDrum":false},{"pitch":75,"velocity":128,"startTime":45.230724,"endTime":46.153800000000004,"instrument":2,"program":53,"isDrum":false},{"pitch":73,"velocity":128,"startTime":45.923031,"endTime":46.846107,"instrument":2,"program":53,"isDrum":false},{"pitch":79,"velocity":128,"startTime":46.615338,"endTime":46.846107,"instrument":2,"program":53,"isDrum":false},{"pitch":78,"velocity":128,"startTime":46.846107,"endTime":47.307645,"instrument":2,"program":53,"isDrum":false},{"pitch":76,"velocity":128,"startTime":47.307645,"endTime":47.538414,"instrument":2,"program":53,"isDrum":false},{"pitch":74,"velocity":128,"startTime":47.538414,"endTime":47.769183000000005,"instrument":2,"program":53,"isDrum":false},{"pitch":79,"velocity":128,"startTime":47.769183000000005,"endTime":49.6201426875,"instrument":2,"program":53,"isDrum":false},{"pitch":78,"velocity":128,"startTime":49.615335,"endTime":50.076873,"instrument":2,"program":53,"isDrum":false},{"pitch":79,"velocity":128,"startTime":50.538410999999996,"endTime":50.999948999999994,"instrument":2,"program":53,"isDrum":false},{"pitch":68,"velocity":128,"startTime":59.999939999999995,"endTime":60.46147799999999,"instrument":2,"program":53,"isDrum":false},{"pitch":68,"velocity":128,"startTime":60.46147799999999,"endTime":60.92301599999999,"instrument":2,"program":53,"isDrum":false},{"pitch":66,"velocity":128,"startTime":60.92301599999999,"endTime":61.15378499999999,"instrument":2,"program":53,"isDrum":false},{"pitch":68,"velocity":128,"startTime":61.15378499999999,"endTime":61.61532299999999,"instrument":2,"program":53,"isDrum":false},{"pitch":73,"velocity":128,"startTime":61.84609199999999,"endTime":62.076860999999994,"instrument":2,"program":53,"isDrum":false},{"pitch":75,"velocity":128,"startTime":62.076860999999994,"endTime":62.53839899999999,"instrument":2,"program":53,"isDrum":false},{"pitch":76,"velocity":128,"startTime":62.53839899999999,"endTime":62.99993699999999,"instrument":2,"program":53,"isDrum":false},{"pitch":72,"velocity":128,"startTime":63.23070599999999,"endTime":63.38455199999999,"instrument":2,"program":53,"isDrum":false},{"pitch":72,"velocity":128,"startTime":63.46147499999999,"endTime":63.92301299999999,"instrument":2,"program":53,"isDrum":false},{"pitch":74,"velocity":128,"startTime":63.92301299999999,"endTime":64.38455099999999,"instrument":2,"program":53,"isDrum":false},{"pitch":71,"velocity":128,"startTime":64.38455099999999,"endTime":64.84608899999999,"instrument":2,"program":53,"isDrum":false},{"pitch":69,"velocity":128,"startTime":65.307627,"endTime":65.769165,"instrument":2,"program":53,"isDrum":false},{"pitch":71,"velocity":128,"startTime":65.769165,"endTime":66.230703,"instrument":2,"program":53,"isDrum":false},{"pitch":68,"velocity":128,"startTime":66.230703,"endTime":66.69224100000001,"instrument":2,"program":53,"isDrum":false},{"pitch":68,"velocity":128,"startTime":67.38454800000001,"endTime":67.84608600000001,"instrument":2,"program":53,"isDrum":false},{"pitch":68,"velocity":128,"startTime":67.84608600000001,"endTime":68.30762400000002,"instrument":2,"program":53,"isDrum":false},{"pitch":66,"velocity":128,"startTime":68.30762400000002,"endTime":68.53839300000001,"instrument":2,"program":53,"isDrum":false},{"pitch":68,"velocity":128,"startTime":68.53839300000001,"endTime":68.99993100000002,"instrument":2,"program":53,"isDrum":false},{"pitch":73,"velocity":128,"startTime":69.23070000000001,"endTime":69.46146900000001,"instrument":2,"program":53,"isDrum":false},{"pitch":75,"velocity":128,"startTime":69.46146900000001,"endTime":69.92300700000001,"instrument":2,"program":53,"isDrum":false},{"pitch":76,"velocity":128,"startTime":69.92300700000001,"endTime":70.38454500000002,"instrument":2,"program":53,"isDrum":false},{"pitch":72,"velocity":128,"startTime":70.61531400000001,"endTime":70.76916000000001,"instrument":2,"program":53,"isDrum":false},{"pitch":72,"velocity":128,"startTime":70.84608300000001,"endTime":71.30762100000001,"instrument":2,"program":53,"isDrum":false},{"pitch":74,"velocity":128,"startTime":71.30762100000001,"endTime":71.76915900000002,"instrument":2,"program":53,"isDrum":false},{"pitch":71,"velocity":128,"startTime":71.76915900000002,"endTime":72.23069700000002,"instrument":2,"program":53,"isDrum":false},{"pitch":69,"velocity":128,"startTime":72.92300400000002,"endTime":73.15377300000002,"instrument":2,"program":53,"isDrum":false},{"pitch":71,"velocity":128,"startTime":73.15377300000002,"endTime":73.38454200000001,"instrument":2,"program":53,"isDrum":false},{"pitch":68,"velocity":128,"startTime":73.615311,"endTime":74.07684900000001,"instrument":2,"program":53,"isDrum":false},{"pitch":68,"velocity":128,"startTime":74.76915600000001,"endTime":75.23069400000001,"instrument":2,"program":53,"isDrum":false},{"pitch":68,"velocity":128,"startTime":75.23069400000001,"endTime":75.69223200000002,"instrument":2,"program":53,"isDrum":false},{"pitch":66,"velocity":128,"startTime":75.69223200000002,"endTime":75.92300100000001,"instrument":2,"program":53,"isDrum":false},{"pitch":68,"velocity":128,"startTime":75.92300100000001,"endTime":76.38453900000002,"instrument":2,"program":53,"isDrum":false},{"pitch":73,"velocity":128,"startTime":76.61530800000001,"endTime":76.84607700000001,"instrument":2,"program":53,"isDrum":false},{"pitch":75,"velocity":128,"startTime":76.84607700000001,"endTime":77.30761500000001,"instrument":2,"program":53,"isDrum":false},{"pitch":76,"velocity":128,"startTime":77.30761500000001,"endTime":77.53838400000001,"instrument":2,"program":53,"isDrum":false},{"pitch":72,"velocity":128,"startTime":77.99992200000001,"endTime":78.15376800000001,"instrument":2,"program":53,"isDrum":false},{"pitch":72,"velocity":128,"startTime":78.23069100000001,"endTime":78.69222900000001,"instrument":2,"program":53,"isDrum":false},{"pitch":74,"velocity":128,"startTime":78.69222900000001,"endTime":79.15376700000002,"instrument":2,"program":53,"isDrum":false},{"pitch":71,"velocity":128,"startTime":79.15376700000002,"endTime":79.61530500000002,"instrument":2,"program":53,"isDrum":false},{"pitch":69,"velocity":128,"startTime":80.30761200000002,"endTime":80.53838100000002,"instrument":2,"program":53,"isDrum":false},{"pitch":71,"velocity":128,"startTime":80.53838100000002,"endTime":80.76915000000001,"instrument":2,"program":53,"isDrum":false},{"pitch":68,"velocity":128,"startTime":80.999919,"endTime":81.230688,"instrument":2,"program":53,"isDrum":false},{"pitch":68,"velocity":128,"startTime":82.153764,"endTime":82.615302,"instrument":2,"program":53,"isDrum":false},{"pitch":68,"velocity":128,"startTime":82.615302,"endTime":83.07684,"instrument":2,"program":53,"isDrum":false},{"pitch":66,"velocity":128,"startTime":83.07684,"endTime":83.307609,"instrument":2,"program":53,"isDrum":false},{"pitch":68,"velocity":128,"startTime":83.307609,"endTime":83.769147,"instrument":2,"program":53,"isDrum":false},{"pitch":73,"velocity":128,"startTime":83.999916,"endTime":84.230685,"instrument":2,"program":53,"isDrum":false},{"pitch":75,"velocity":128,"startTime":84.230685,"endTime":84.692223,"instrument":2,"program":53,"isDrum":false},{"pitch":76,"velocity":128,"startTime":84.692223,"endTime":84.922992,"instrument":2,"program":53,"isDrum":false},{"pitch":72,"velocity":128,"startTime":85.38453,"endTime":85.615299,"instrument":2,"program":53,"isDrum":false},{"pitch":72,"velocity":128,"startTime":85.615299,"endTime":86.076837,"instrument":2,"program":53,"isDrum":false},{"pitch":74,"velocity":128,"startTime":86.076837,"endTime":86.538375,"instrument":2,"program":53,"isDrum":false},{"pitch":71,"velocity":128,"startTime":86.538375,"endTime":87.461451,"instrument":2,"program":53,"isDrum":false},{"pitch":79,"velocity":128,"startTime":87.230682,"endTime":87.461451,"instrument":2,"program":53,"isDrum":false},{"pitch":78,"velocity":128,"startTime":87.461451,"endTime":87.922989,"instrument":2,"program":53,"isDrum":false},{"pitch":76,"velocity":128,"startTime":87.922989,"endTime":88.153758,"instrument":2,"program":53,"isDrum":false},{"pitch":74,"velocity":128,"startTime":88.153758,"endTime":88.38452699999999,"instrument":2,"program":53,"isDrum":false},{"pitch":76,"velocity":128,"startTime":88.38452699999999,"endTime":89.30760299999999,"instrument":2,"program":53,"isDrum":false},{"pitch":79,"velocity":128,"startTime":90.92298599999998,"endTime":91.15375499999998,"instrument":2,"program":53,"isDrum":false},{"pitch":78,"velocity":128,"startTime":91.15375499999998,"endTime":91.61529299999998,"instrument":2,"program":53,"isDrum":false},{"pitch":76,"velocity":128,"startTime":91.61529299999998,"endTime":91.84606199999998,"instrument":2,"program":53,"isDrum":false},{"pitch":74,"velocity":128,"startTime":91.84606199999998,"endTime":92.07683099999997,"instrument":2,"program":53,"isDrum":false},{"pitch":79,"velocity":128,"startTime":92.07683099999997,"endTime":93.92779068749998,"instrument":2,"program":53,"isDrum":false},{"pitch":78,"velocity":128,"startTime":93.92298299999997,"endTime":94.38452099999998,"instrument":2,"program":53,"isDrum":false},{"pitch":79,"velocity":128,"startTime":94.61528999999997,"endTime":94.84605899999997,"instrument":2,"program":53,"isDrum":false},{"pitch":78,"velocity":128,"startTime":94.84605899999997,"endTime":95.30759699999997,"instrument":2,"program":53,"isDrum":false},{"pitch":76,"velocity":128,"startTime":95.30759699999997,"endTime":95.53836599999997,"instrument":2,"program":53,"isDrum":false},{"pitch":74,"velocity":128,"startTime":95.53836599999997,"endTime":95.76913499999996,"instrument":2,"program":53,"isDrum":false},{"pitch":76,"velocity":128,"startTime":95.76913499999996,"endTime":96.69221099999996,"instrument":2,"program":53,"isDrum":false},{"pitch":75,"velocity":128,"startTime":96.92297999999995,"endTime":97.84605599999995,"instrument":2,"program":53,"isDrum":false},{"pitch":73,"velocity":128,"startTime":97.61528699999995,"endTime":98.53836299999995,"instrument":2,"program":53,"isDrum":false},{"pitch":79,"velocity":128,"startTime":98.30759399999995,"endTime":98.53836299999995,"instrument":2,"program":53,"isDrum":false},{"pitch":78,"velocity":128,"startTime":98.53836299999995,"endTime":98.99990099999995,"instrument":2,"program":53,"isDrum":false},{"pitch":76,"velocity":128,"startTime":98.99990099999995,"endTime":99.23066999999995,"instrument":2,"program":53,"isDrum":false},{"pitch":74,"velocity":128,"startTime":99.23066999999995,"endTime":99.46143899999994,"instrument":2,"program":53,"isDrum":false},{"pitch":79,"velocity":128,"startTime":99.46143899999994,"endTime":101.31239868749995,"instrument":2,"program":53,"isDrum":false},{"pitch":78,"velocity":128,"startTime":101.30759099999995,"endTime":101.76912899999995,"instrument":2,"program":53,"isDrum":false},{"pitch":79,"velocity":128,"startTime":102.23066699999995,"endTime":102.69220499999996,"instrument":2,"program":53,"isDrum":false},{"pitch":76,"velocity":128,"startTime":103.84604999999996,"endTime":104.30758799999997,"instrument":2,"program":53,"isDrum":false},{"pitch":79,"velocity":128,"startTime":104.30758799999997,"endTime":104.76912599999997,"instrument":2,"program":53,"isDrum":false},{"pitch":74,"velocity":128,"startTime":104.76912599999997,"endTime":105.23066399999998,"instrument":2,"program":53,"isDrum":false},{"pitch":76,"velocity":128,"startTime":105.23066399999998,"endTime":105.69220199999998,"instrument":2,"program":53,"isDrum":false},{"pitch":76,"velocity":128,"startTime":105.69220199999998,"endTime":106.15373999999998,"instrument":2,"program":53,"isDrum":false},{"pitch":74,"velocity":128,"startTime":106.15373999999998,"endTime":106.61527799999998,"instrument":2,"program":53,"isDrum":false},{"pitch":76,"velocity":128,"startTime":106.38450899999998,"endTime":106.84604699999997,"instrument":2,"program":53,"isDrum":false},{"pitch":74,"velocity":128,"startTime":106.84604699999997,"endTime":107.07681599999997,"instrument":2,"program":53,"isDrum":false},{"pitch":76,"velocity":128,"startTime":107.53835399999997,"endTime":107.99989199999997,"instrument":2,"program":53,"isDrum":false},{"pitch":79,"velocity":128,"startTime":107.99989199999997,"endTime":108.46142999999998,"instrument":2,"program":53,"isDrum":false},{"pitch":74,"velocity":128,"startTime":108.46142999999998,"endTime":108.92296799999998,"instrument":2,"program":53,"isDrum":false},{"pitch":76,"velocity":128,"startTime":108.92296799999998,"endTime":109.38450599999999,"instrument":2,"program":53,"isDrum":false},{"pitch":76,"velocity":128,"startTime":109.38450599999999,"endTime":109.84604399999999,"instrument":2,"program":53,"isDrum":false},{"pitch":74,"velocity":128,"startTime":109.84604399999999,"endTime":110.30758199999998,"instrument":2,"program":53,"isDrum":false},{"pitch":76,"velocity":128,"startTime":110.07681299999999,"endTime":110.53835099999998,"instrument":2,"program":53,"isDrum":false},{"pitch":74,"velocity":128,"startTime":110.53835099999998,"endTime":110.76911999999997,"instrument":2,"program":53,"isDrum":false},{"pitch":76,"velocity":128,"startTime":111.23065799999998,"endTime":111.69219599999998,"instrument":2,"program":53,"isDrum":false},{"pitch":79,"velocity":128,"startTime":111.69219599999998,"endTime":112.15373399999999,"instrument":2,"program":53,"isDrum":false},{"pitch":74,"velocity":128,"startTime":112.15373399999999,"endTime":112.61527199999999,"instrument":2,"program":53,"isDrum":false},{"pitch":76,"velocity":128,"startTime":112.61527199999999,"endTime":113.07681,"instrument":2,"program":53,"isDrum":false},{"pitch":76,"velocity":128,"startTime":113.07681,"endTime":113.538348,"instrument":2,"program":53,"isDrum":false},{"pitch":74,"velocity":128,"startTime":113.538348,"endTime":113.99988599999999,"instrument":2,"program":53,"isDrum":false},{"pitch":76,"velocity":128,"startTime":113.769117,"endTime":114.23065499999998,"instrument":2,"program":53,"isDrum":false},{"pitch":74,"velocity":128,"startTime":114.23065499999998,"endTime":114.46142399999998,"instrument":2,"program":53,"isDrum":false},{"pitch":76,"velocity":128,"startTime":114.92296199999998,"endTime":115.38449999999999,"instrument":2,"program":53,"isDrum":false},{"pitch":79,"velocity":128,"startTime":115.38449999999999,"endTime":115.846038,"instrument":2,"program":53,"isDrum":false},{"pitch":74,"velocity":128,"startTime":115.846038,"endTime":116.307576,"instrument":2,"program":53,"isDrum":false},{"pitch":76,"velocity":128,"startTime":116.307576,"endTime":116.769114,"instrument":2,"program":53,"isDrum":false},{"pitch":76,"velocity":128,"startTime":116.769114,"endTime":117.230652,"instrument":2,"program":53,"isDrum":false},{"pitch":74,"velocity":128,"startTime":117.230652,"endTime":117.69219,"instrument":2,"program":53,"isDrum":false},{"pitch":76,"velocity":128,"startTime":117.461421,"endTime":117.92295899999999,"instrument":2,"program":53,"isDrum":false},{"pitch":74,"velocity":128,"startTime":117.92295899999999,"endTime":119.77391868749999,"instrument":2,"program":53,"isDrum":false},{"pitch":59,"velocity":128,"startTime":35.076888,"endTime":35.307657,"instrument":3,"program":30,"isDrum":false},{"pitch":54,"velocity":128,"startTime":35.076888,"endTime":35.307657,"instrument":3,"program":30,"isDrum":false},{"pitch":47,"velocity":128,"startTime":35.076888,"endTime":35.307657,"instrument":3,"program":30,"isDrum":false},{"pitch":59,"velocity":128,"startTime":35.307657,"endTime":35.538426,"instrument":3,"program":30,"isDrum":false},{"pitch":54,"velocity":128,"startTime":35.307657,"endTime":35.538426,"instrument":3,"program":30,"isDrum":false},{"pitch":47,"velocity":128,"startTime":35.307657,"endTime":35.538426,"instrument":3,"program":30,"isDrum":false},{"pitch":47,"velocity":128,"startTime":35.538426,"endTime":35.769195,"instrument":3,"program":30,"isDrum":false},{"pitch":54,"velocity":128,"startTime":35.538426,"endTime":35.769195,"instrument":3,"program":30,"isDrum":false},{"pitch":59,"velocity":128,"startTime":35.538426,"endTime":35.769195,"instrument":3,"program":30,"isDrum":false},{"pitch":59,"velocity":128,"startTime":35.769195,"endTime":35.8845795,"instrument":3,"program":30,"isDrum":false},{"pitch":54,"velocity":128,"startTime":35.769195,"endTime":35.8845795,"instrument":3,"program":30,"isDrum":false},{"pitch":47,"velocity":128,"startTime":35.769195,"endTime":35.8845795,"instrument":3,"program":30,"isDrum":false},{"pitch":59,"velocity":128,"startTime":35.8845795,"endTime":35.999964,"instrument":3,"program":30,"isDrum":false},{"pitch":54,"velocity":128,"startTime":35.8845795,"endTime":35.999964,"instrument":3,"program":30,"isDrum":false},{"pitch":47,"velocity":128,"startTime":35.8845795,"endTime":35.999964,"instrument":3,"program":30,"isDrum":false},{"pitch":59,"velocity":128,"startTime":35.999964,"endTime":36.230733,"instrument":3,"program":30,"isDrum":false},{"pitch":54,"velocity":128,"startTime":35.999964,"endTime":36.230733,"instrument":3,"program":30,"isDrum":false},{"pitch":47,"velocity":128,"startTime":35.999964,"endTime":36.230733,"instrument":3,"program":30,"isDrum":false},{"pitch":62,"velocity":128,"startTime":36.230733,"endTime":36.461502,"instrument":3,"program":30,"isDrum":false},{"pitch":57,"velocity":128,"startTime":36.230733,"endTime":36.461502,"instrument":3,"program":30,"isDrum":false},{"pitch":50,"velocity":128,"startTime":36.230733,"endTime":36.461502,"instrument":3,"program":30,"isDrum":false},{"pitch":62,"velocity":128,"startTime":36.461502,"endTime":36.92304,"instrument":3,"program":30,"isDrum":false},{"pitch":57,"velocity":128,"startTime":36.461502,"endTime":36.92304,"instrument":3,"program":30,"isDrum":false},{"pitch":50,"velocity":128,"startTime":36.461502,"endTime":36.92304,"instrument":3,"program":30,"isDrum":false},{"pitch":40,"velocity":128,"startTime":36.92304,"endTime":37.384578,"instrument":3,"program":30,"isDrum":false},{"pitch":47,"velocity":128,"startTime":36.92304,"endTime":37.384578,"instrument":3,"program":30,"isDrum":false},{"pitch":52,"velocity":128,"startTime":36.92304,"endTime":37.384578,"instrument":3,"program":30,"isDrum":false},{"pitch":40,"velocity":128,"startTime":37.384578,"endTime":37.846115999999995,"instrument":3,"program":30,"isDrum":false},{"pitch":47,"velocity":128,"startTime":37.384578,"endTime":37.846115999999995,"instrument":3,"program":30,"isDrum":false},{"pitch":52,"velocity":128,"startTime":37.384578,"endTime":37.846115999999995,"instrument":3,"program":30,"isDrum":false},{"pitch":44,"velocity":128,"startTime":37.846115999999995,"endTime":38.30765399999999,"instrument":3,"program":30,"isDrum":false},{"pitch":51,"velocity":128,"startTime":37.846115999999995,"endTime":38.30765399999999,"instrument":3,"program":30,"isDrum":false},{"pitch":56,"velocity":128,"startTime":37.846115999999995,"endTime":38.30765399999999,"instrument":3,"program":30,"isDrum":false},{"pitch":44,"velocity":128,"startTime":38.30765399999999,"endTime":38.76919199999999,"instrument":3,"program":30,"isDrum":false},{"pitch":51,"velocity":128,"startTime":38.30765399999999,"endTime":38.76919199999999,"instrument":3,"program":30,"isDrum":false},{"pitch":56,"velocity":128,"startTime":38.30765399999999,"endTime":38.76919199999999,"instrument":3,"program":30,"isDrum":false},{"pitch":49,"velocity":128,"startTime":38.76919199999999,"endTime":39.23072999999999,"instrument":3,"program":30,"isDrum":false},{"pitch":56,"velocity":128,"startTime":38.76919199999999,"endTime":39.23072999999999,"instrument":3,"program":30,"isDrum":false},{"pitch":61,"velocity":128,"startTime":38.76919199999999,"endTime":39.23072999999999,"instrument":3,"program":30,"isDrum":false},{"pitch":49,"velocity":128,"startTime":39.23072999999999,"endTime":39.692267999999984,"instrument":3,"program":30,"isDrum":false},{"pitch":56,"velocity":128,"startTime":39.23072999999999,"endTime":39.692267999999984,"instrument":3,"program":30,"isDrum":false},{"pitch":61,"velocity":128,"startTime":39.23072999999999,"endTime":39.692267999999984,"instrument":3,"program":30,"isDrum":false},{"pitch":45,"velocity":128,"startTime":39.692267999999984,"endTime":40.15380599999998,"instrument":3,"program":30,"isDrum":false},{"pitch":52,"velocity":128,"startTime":39.692267999999984,"endTime":40.15380599999998,"instrument":3,"program":30,"isDrum":false},{"pitch":57,"velocity":128,"startTime":39.692267999999984,"endTime":40.15380599999998,"instrument":3,"program":30,"isDrum":false},{"pitch":45,"velocity":128,"startTime":40.15380599999998,"endTime":40.61534399999998,"instrument":3,"program":30,"isDrum":false},{"pitch":52,"velocity":128,"startTime":40.15380599999998,"endTime":40.61534399999998,"instrument":3,"program":30,"isDrum":false},{"pitch":57,"velocity":128,"startTime":40.15380599999998,"endTime":40.61534399999998,"instrument":3,"program":30,"isDrum":false},{"pitch":48,"velocity":128,"startTime":40.61534399999998,"endTime":40.84611299999998,"instrument":3,"program":30,"isDrum":false},{"pitch":55,"velocity":128,"startTime":40.61534399999998,"endTime":40.84611299999998,"instrument":3,"program":30,"isDrum":false},{"pitch":60,"velocity":128,"startTime":40.61534399999998,"endTime":40.84611299999998,"instrument":3,"program":30,"isDrum":false},{"pitch":48,"velocity":128,"startTime":40.84611299999998,"endTime":41.07688199999998,"instrument":3,"program":30,"isDrum":false},{"pitch":55,"velocity":128,"startTime":40.84611299999998,"endTime":41.07688199999998,"instrument":3,"program":30,"isDrum":false},{"pitch":60,"velocity":128,"startTime":40.84611299999998,"endTime":41.07688199999998,"instrument":3,"program":30,"isDrum":false},{"pitch":48,"velocity":128,"startTime":41.07688199999998,"endTime":41.307650999999986,"instrument":3,"program":30,"isDrum":false},{"pitch":55,"velocity":128,"startTime":41.07688199999998,"endTime":41.307650999999986,"instrument":3,"program":30,"isDrum":false},{"pitch":60,"velocity":128,"startTime":41.07688199999998,"endTime":41.307650999999986,"instrument":3,"program":30,"isDrum":false},{"pitch":48,"velocity":128,"startTime":41.307650999999986,"endTime":41.42303549999998,"instrument":3,"program":30,"isDrum":false},{"pitch":55,"velocity":128,"startTime":41.307650999999986,"endTime":41.42303549999998,"instrument":3,"program":30,"isDrum":false},{"pitch":60,"velocity":128,"startTime":41.307650999999986,"endTime":41.42303549999998,"instrument":3,"program":30,"isDrum":false},{"pitch":48,"velocity":128,"startTime":41.42303549999998,"endTime":41.53841999999998,"instrument":3,"program":30,"isDrum":false},{"pitch":55,"velocity":128,"startTime":41.42303549999998,"endTime":41.53841999999998,"instrument":3,"program":30,"isDrum":false},{"pitch":60,"velocity":128,"startTime":41.42303549999998,"endTime":41.53841999999998,"instrument":3,"program":30,"isDrum":false},{"pitch":48,"velocity":128,"startTime":41.53841999999998,"endTime":41.76918899999998,"instrument":3,"program":30,"isDrum":false},{"pitch":55,"velocity":128,"startTime":41.53841999999998,"endTime":41.76918899999998,"instrument":3,"program":30,"isDrum":false},{"pitch":60,"velocity":128,"startTime":41.53841999999998,"endTime":41.76918899999998,"instrument":3,"program":30,"isDrum":false},{"pitch":50,"velocity":128,"startTime":41.76918899999998,"endTime":41.999957999999985,"instrument":3,"program":30,"isDrum":false},{"pitch":57,"velocity":128,"startTime":41.76918899999998,"endTime":41.999957999999985,"instrument":3,"program":30,"isDrum":false},{"pitch":62,"velocity":128,"startTime":41.76918899999998,"endTime":41.999957999999985,"instrument":3,"program":30,"isDrum":false},{"pitch":50,"velocity":128,"startTime":41.999957999999985,"endTime":42.46149599999998,"instrument":3,"program":30,"isDrum":false},{"pitch":57,"velocity":128,"startTime":41.999957999999985,"endTime":42.46149599999998,"instrument":3,"program":30,"isDrum":false},{"pitch":62,"velocity":128,"startTime":41.999957999999985,"endTime":42.46149599999998,"instrument":3,"program":30,"isDrum":false},{"pitch":47,"velocity":128,"startTime":42.46149599999998,"endTime":42.692264999999985,"instrument":3,"program":30,"isDrum":false},{"pitch":54,"velocity":128,"startTime":42.46149599999998,"endTime":42.692264999999985,"instrument":3,"program":30,"isDrum":false},{"pitch":59,"velocity":128,"startTime":42.46149599999998,"endTime":42.692264999999985,"instrument":3,"program":30,"isDrum":false},{"pitch":47,"velocity":128,"startTime":42.692264999999985,"endTime":42.92303399999999,"instrument":3,"program":30,"isDrum":false},{"pitch":59,"velocity":128,"startTime":42.692264999999985,"endTime":42.92303399999999,"instrument":3,"program":30,"isDrum":false},{"pitch":54,"velocity":128,"startTime":42.692264999999985,"endTime":42.92303399999999,"instrument":3,"program":30,"isDrum":false},{"pitch":47,"velocity":128,"startTime":42.92303399999999,"endTime":43.15380299999999,"instrument":3,"program":30,"isDrum":false},{"pitch":59,"velocity":128,"startTime":42.92303399999999,"endTime":43.15380299999999,"instrument":3,"program":30,"isDrum":false},{"pitch":54,"velocity":128,"startTime":42.92303399999999,"endTime":43.15380299999999,"instrument":3,"program":30,"isDrum":false},{"pitch":47,"velocity":128,"startTime":43.15380299999999,"endTime":43.26918749999999,"instrument":3,"program":30,"isDrum":false},{"pitch":54,"velocity":128,"startTime":43.15380299999999,"endTime":43.26918749999999,"instrument":3,"program":30,"isDrum":false},{"pitch":59,"velocity":128,"startTime":43.15380299999999,"endTime":43.26918749999999,"instrument":3,"program":30,"isDrum":false},{"pitch":47,"velocity":128,"startTime":43.26918749999999,"endTime":43.384571999999984,"instrument":3,"program":30,"isDrum":false},{"pitch":59,"velocity":128,"startTime":43.26918749999999,"endTime":43.384571999999984,"instrument":3,"program":30,"isDrum":false},{"pitch":54,"velocity":128,"startTime":43.26918749999999,"endTime":43.384571999999984,"instrument":3,"program":30,"isDrum":false},{"pitch":47,"velocity":128,"startTime":43.384571999999984,"endTime":43.61534099999999,"instrument":3,"program":30,"isDrum":false},{"pitch":59,"velocity":128,"startTime":43.384571999999984,"endTime":43.61534099999999,"instrument":3,"program":30,"isDrum":false},{"pitch":54,"velocity":128,"startTime":43.384571999999984,"endTime":43.61534099999999,"instrument":3,"program":30,"isDrum":false},{"pitch":50,"velocity":128,"startTime":43.61534099999999,"endTime":43.84610999999999,"instrument":3,"program":30,"isDrum":false},{"pitch":57,"velocity":128,"startTime":43.61534099999999,"endTime":43.84610999999999,"instrument":3,"program":30,"isDrum":false},{"pitch":62,"velocity":128,"startTime":43.61534099999999,"endTime":43.84610999999999,"instrument":3,"program":30,"isDrum":false},{"pitch":50,"velocity":128,"startTime":43.84610999999999,"endTime":44.307647999999986,"instrument":3,"program":30,"isDrum":false},{"pitch":57,"velocity":128,"startTime":43.84610999999999,"endTime":44.307647999999986,"instrument":3,"program":30,"isDrum":false},{"pitch":62,"velocity":128,"startTime":43.84610999999999,"endTime":44.307647999999986,"instrument":3,"program":30,"isDrum":false},{"pitch":40,"velocity":128,"startTime":44.307647999999986,"endTime":44.76918599999998,"instrument":3,"program":30,"isDrum":false},{"pitch":47,"velocity":128,"startTime":44.307647999999986,"endTime":44.76918599999998,"instrument":3,"program":30,"isDrum":false},{"pitch":52,"velocity":128,"startTime":44.307647999999986,"endTime":44.76918599999998,"instrument":3,"program":30,"isDrum":false},{"pitch":40,"velocity":128,"startTime":44.76918599999998,"endTime":45.23072399999998,"instrument":3,"program":30,"isDrum":false},{"pitch":47,"velocity":128,"startTime":44.76918599999998,"endTime":45.23072399999998,"instrument":3,"program":30,"isDrum":false},{"pitch":52,"velocity":128,"startTime":44.76918599999998,"endTime":45.23072399999998,"instrument":3,"program":30,"isDrum":false},{"pitch":44,"velocity":128,"startTime":45.23072399999998,"endTime":45.69226199999998,"instrument":3,"program":30,"isDrum":false},{"pitch":51,"velocity":128,"startTime":45.23072399999998,"endTime":45.69226199999998,"instrument":3,"program":30,"isDrum":false},{"pitch":56,"velocity":128,"startTime":45.23072399999998,"endTime":45.69226199999998,"instrument":3,"program":30,"isDrum":false},{"pitch":44,"velocity":128,"startTime":45.69226199999998,"endTime":46.153799999999976,"instrument":3,"program":30,"isDrum":false},{"pitch":51,"velocity":128,"startTime":45.69226199999998,"endTime":46.153799999999976,"instrument":3,"program":30,"isDrum":false},{"pitch":56,"velocity":128,"startTime":45.69226199999998,"endTime":46.153799999999976,"instrument":3,"program":30,"isDrum":false},{"pitch":49,"velocity":128,"startTime":46.153799999999976,"endTime":46.61533799999997,"instrument":3,"program":30,"isDrum":false},{"pitch":56,"velocity":128,"startTime":46.153799999999976,"endTime":46.61533799999997,"instrument":3,"program":30,"isDrum":false},{"pitch":61,"velocity":128,"startTime":46.153799999999976,"endTime":46.61533799999997,"instrument":3,"program":30,"isDrum":false},{"pitch":49,"velocity":128,"startTime":46.61533799999997,"endTime":47.07687599999997,"instrument":3,"program":30,"isDrum":false},{"pitch":56,"velocity":128,"startTime":46.61533799999997,"endTime":47.07687599999997,"instrument":3,"program":30,"isDrum":false},{"pitch":61,"velocity":128,"startTime":46.61533799999997,"endTime":47.07687599999997,"instrument":3,"program":30,"isDrum":false},{"pitch":45,"velocity":128,"startTime":47.07687599999997,"endTime":47.53841399999997,"instrument":3,"program":30,"isDrum":false},{"pitch":52,"velocity":128,"startTime":47.07687599999997,"endTime":47.53841399999997,"instrument":3,"program":30,"isDrum":false},{"pitch":57,"velocity":128,"startTime":47.07687599999997,"endTime":47.53841399999997,"instrument":3,"program":30,"isDrum":false},{"pitch":45,"velocity":128,"startTime":47.53841399999997,"endTime":47.999951999999965,"instrument":3,"program":30,"isDrum":false},{"pitch":52,"velocity":128,"startTime":47.53841399999997,"endTime":47.999951999999965,"instrument":3,"program":30,"isDrum":false},{"pitch":57,"velocity":128,"startTime":47.53841399999997,"endTime":47.999951999999965,"instrument":3,"program":30,"isDrum":false},{"pitch":48,"velocity":128,"startTime":47.999951999999965,"endTime":48.23072099999997,"instrument":3,"program":30,"isDrum":false},{"pitch":55,"velocity":128,"startTime":47.999951999999965,"endTime":48.23072099999997,"instrument":3,"program":30,"isDrum":false},{"pitch":60,"velocity":128,"startTime":47.999951999999965,"endTime":48.23072099999997,"instrument":3,"program":30,"isDrum":false},{"pitch":48,"velocity":128,"startTime":48.23072099999997,"endTime":48.46148999999997,"instrument":3,"program":30,"isDrum":false},{"pitch":55,"velocity":128,"startTime":48.23072099999997,"endTime":48.46148999999997,"instrument":3,"program":30,"isDrum":false},{"pitch":60,"velocity":128,"startTime":48.23072099999997,"endTime":48.46148999999997,"instrument":3,"program":30,"isDrum":false},{"pitch":48,"velocity":128,"startTime":48.46148999999997,"endTime":48.69225899999997,"instrument":3,"program":30,"isDrum":false},{"pitch":55,"velocity":128,"startTime":48.46148999999997,"endTime":48.69225899999997,"instrument":3,"program":30,"isDrum":false},{"pitch":60,"velocity":128,"startTime":48.46148999999997,"endTime":48.69225899999997,"instrument":3,"program":30,"isDrum":false},{"pitch":48,"velocity":128,"startTime":48.69225899999997,"endTime":48.80764349999997,"instrument":3,"program":30,"isDrum":false},{"pitch":55,"velocity":128,"startTime":48.69225899999997,"endTime":48.80764349999997,"instrument":3,"program":30,"isDrum":false},{"pitch":60,"velocity":128,"startTime":48.69225899999997,"endTime":48.80764349999997,"instrument":3,"program":30,"isDrum":false},{"pitch":48,"velocity":128,"startTime":48.80764349999997,"endTime":48.92302799999997,"instrument":3,"program":30,"isDrum":false},{"pitch":55,"velocity":128,"startTime":48.80764349999997,"endTime":48.92302799999997,"instrument":3,"program":30,"isDrum":false},{"pitch":60,"velocity":128,"startTime":48.80764349999997,"endTime":48.92302799999997,"instrument":3,"program":30,"isDrum":false},{"pitch":48,"velocity":128,"startTime":48.92302799999997,"endTime":49.15379699999997,"instrument":3,"program":30,"isDrum":false},{"pitch":55,"velocity":128,"startTime":48.92302799999997,"endTime":49.15379699999997,"instrument":3,"program":30,"isDrum":false},{"pitch":60,"velocity":128,"startTime":48.92302799999997,"endTime":49.15379699999997,"instrument":3,"program":30,"isDrum":false},{"pitch":50,"velocity":128,"startTime":49.15379699999997,"endTime":49.38456599999997,"instrument":3,"program":30,"isDrum":false},{"pitch":57,"velocity":128,"startTime":49.15379699999997,"endTime":49.38456599999997,"instrument":3,"program":30,"isDrum":false},{"pitch":62,"velocity":128,"startTime":49.15379699999997,"endTime":49.38456599999997,"instrument":3,"program":30,"isDrum":false},{"pitch":50,"velocity":128,"startTime":49.38456599999997,"endTime":49.84610399999997,"instrument":3,"program":30,"isDrum":false},{"pitch":57,"velocity":128,"startTime":49.38456599999997,"endTime":49.84610399999997,"instrument":3,"program":30,"isDrum":false},{"pitch":62,"velocity":128,"startTime":49.38456599999997,"endTime":49.84610399999997,"instrument":3,"program":30,"isDrum":false},{"pitch":47,"velocity":128,"startTime":49.84610399999997,"endTime":50.07687299999997,"instrument":3,"program":30,"isDrum":false},{"pitch":54,"velocity":128,"startTime":49.84610399999997,"endTime":50.07687299999997,"instrument":3,"program":30,"isDrum":false},{"pitch":59,"velocity":128,"startTime":49.84610399999997,"endTime":50.07687299999997,"instrument":3,"program":30,"isDrum":false},{"pitch":47,"velocity":128,"startTime":50.07687299999997,"endTime":50.30764199999997,"instrument":3,"program":30,"isDrum":false},{"pitch":59,"velocity":128,"startTime":50.07687299999997,"endTime":50.30764199999997,"instrument":3,"program":30,"isDrum":false},{"pitch":54,"velocity":128,"startTime":50.07687299999997,"endTime":50.30764199999997,"instrument":3,"program":30,"isDrum":false},{"pitch":47,"velocity":128,"startTime":50.30764199999997,"endTime":50.538410999999975,"instrument":3,"program":30,"isDrum":false},{"pitch":59,"velocity":128,"startTime":50.30764199999997,"endTime":50.538410999999975,"instrument":3,"program":30,"isDrum":false},{"pitch":54,"velocity":128,"startTime":50.30764199999997,"endTime":50.538410999999975,"instrument":3,"program":30,"isDrum":false},{"pitch":47,"velocity":128,"startTime":50.538410999999975,"endTime":50.65379549999997,"instrument":3,"program":30,"isDrum":false},{"pitch":54,"velocity":128,"startTime":50.538410999999975,"endTime":50.65379549999997,"instrument":3,"program":30,"isDrum":false},{"pitch":59,"velocity":128,"startTime":50.538410999999975,"endTime":50.65379549999997,"instrument":3,"program":30,"isDrum":false},{"pitch":47,"velocity":128,"startTime":50.65379549999997,"endTime":50.76917999999997,"instrument":3,"program":30,"isDrum":false},{"pitch":59,"velocity":128,"startTime":50.65379549999997,"endTime":50.76917999999997,"instrument":3,"program":30,"isDrum":false},{"pitch":54,"velocity":128,"startTime":50.65379549999997,"endTime":50.76917999999997,"instrument":3,"program":30,"isDrum":false},{"pitch":47,"velocity":128,"startTime":50.76917999999997,"endTime":50.99994899999997,"instrument":3,"program":30,"isDrum":false},{"pitch":59,"velocity":128,"startTime":50.76917999999997,"endTime":50.99994899999997,"instrument":3,"program":30,"isDrum":false},{"pitch":54,"velocity":128,"startTime":50.76917999999997,"endTime":50.99994899999997,"instrument":3,"program":30,"isDrum":false},{"pitch":50,"velocity":128,"startTime":50.99994899999997,"endTime":51.230717999999975,"instrument":3,"program":30,"isDrum":false},{"pitch":57,"velocity":128,"startTime":50.99994899999997,"endTime":51.230717999999975,"instrument":3,"program":30,"isDrum":false},{"pitch":62,"velocity":128,"startTime":50.99994899999997,"endTime":51.230717999999975,"instrument":3,"program":30,"isDrum":false},{"pitch":50,"velocity":128,"startTime":51.230717999999975,"endTime":51.69225599999997,"instrument":3,"program":30,"isDrum":false},{"pitch":57,"velocity":128,"startTime":51.230717999999975,"endTime":51.69225599999997,"instrument":3,"program":30,"isDrum":false},{"pitch":62,"velocity":128,"startTime":51.230717999999975,"endTime":51.69225599999997,"instrument":3,"program":30,"isDrum":false},{"pitch":59,"velocity":128,"startTime":86.76914399999997,"endTime":86.99991299999996,"instrument":3,"program":30,"isDrum":false},{"pitch":54,"velocity":128,"startTime":86.76914399999997,"endTime":86.99991299999996,"instrument":3,"program":30,"isDrum":false},{"pitch":47,"velocity":128,"startTime":86.76914399999997,"endTime":86.99991299999996,"instrument":3,"program":30,"isDrum":false},{"pitch":59,"velocity":128,"startTime":86.99991299999996,"endTime":87.23068199999996,"instrument":3,"program":30,"isDrum":false},{"pitch":54,"velocity":128,"startTime":86.99991299999996,"endTime":87.23068199999996,"instrument":3,"program":30,"isDrum":false},{"pitch":47,"velocity":128,"startTime":86.99991299999996,"endTime":87.23068199999996,"instrument":3,"program":30,"isDrum":false},{"pitch":47,"velocity":128,"startTime":87.23068199999996,"endTime":87.46145099999995,"instrument":3,"program":30,"isDrum":false},{"pitch":54,"velocity":128,"startTime":87.23068199999996,"endTime":87.46145099999995,"instrument":3,"program":30,"isDrum":false},{"pitch":59,"velocity":128,"startTime":87.23068199999996,"endTime":87.46145099999995,"instrument":3,"program":30,"isDrum":false},{"pitch":59,"velocity":128,"startTime":87.46145099999995,"endTime":87.57683549999996,"instrument":3,"program":30,"isDrum":false},{"pitch":54,"velocity":128,"startTime":87.46145099999995,"endTime":87.57683549999996,"instrument":3,"program":30,"isDrum":false},{"pitch":47,"velocity":128,"startTime":87.46145099999995,"endTime":87.57683549999996,"instrument":3,"program":30,"isDrum":false},{"pitch":59,"velocity":128,"startTime":87.57683549999996,"endTime":87.69221999999996,"instrument":3,"program":30,"isDrum":false},{"pitch":54,"velocity":128,"startTime":87.57683549999996,"endTime":87.69221999999996,"instrument":3,"program":30,"isDrum":false},{"pitch":47,"velocity":128,"startTime":87.57683549999996,"endTime":87.69221999999996,"instrument":3,"program":30,"isDrum":false},{"pitch":59,"velocity":128,"startTime":87.69221999999996,"endTime":87.92298899999996,"instrument":3,"program":30,"isDrum":false},{"pitch":54,"velocity":128,"startTime":87.69221999999996,"endTime":87.92298899999996,"instrument":3,"program":30,"isDrum":false},{"pitch":47,"velocity":128,"startTime":87.69221999999996,"endTime":87.92298899999996,"instrument":3,"program":30,"isDrum":false},{"pitch":62,"velocity":128,"startTime":87.92298899999996,"endTime":88.15375799999995,"instrument":3,"program":30,"isDrum":false},{"pitch":57,"velocity":128,"startTime":87.92298899999996,"endTime":88.15375799999995,"instrument":3,"program":30,"isDrum":false},{"pitch":50,"velocity":128,"startTime":87.92298899999996,"endTime":88.15375799999995,"instrument":3,"program":30,"isDrum":false},{"pitch":62,"velocity":128,"startTime":88.15375799999995,"endTime":88.61529599999996,"instrument":3,"program":30,"isDrum":false},{"pitch":57,"velocity":128,"startTime":88.15375799999995,"endTime":88.61529599999996,"instrument":3,"program":30,"isDrum":false},{"pitch":50,"velocity":128,"startTime":88.15375799999995,"endTime":88.61529599999996,"instrument":3,"program":30,"isDrum":false},{"pitch":40,"velocity":128,"startTime":88.61529599999996,"endTime":89.07683399999996,"instrument":3,"program":30,"isDrum":false},{"pitch":47,"velocity":128,"startTime":88.61529599999996,"endTime":89.07683399999996,"instrument":3,"program":30,"isDrum":false},{"pitch":52,"velocity":128,"startTime":88.61529599999996,"endTime":89.07683399999996,"instrument":3,"program":30,"isDrum":false},{"pitch":40,"velocity":128,"startTime":89.07683399999996,"endTime":89.53837199999997,"instrument":3,"program":30,"isDrum":false},{"pitch":47,"velocity":128,"startTime":89.07683399999996,"endTime":89.53837199999997,"instrument":3,"program":30,"isDrum":false},{"pitch":52,"velocity":128,"startTime":89.07683399999996,"endTime":89.53837199999997,"instrument":3,"program":30,"isDrum":false},{"pitch":44,"velocity":128,"startTime":89.53837199999997,"endTime":89.99990999999997,"instrument":3,"program":30,"isDrum":false},{"pitch":51,"velocity":128,"startTime":89.53837199999997,"endTime":89.99990999999997,"instrument":3,"program":30,"isDrum":false},{"pitch":56,"velocity":128,"startTime":89.53837199999997,"endTime":89.99990999999997,"instrument":3,"program":30,"isDrum":false},{"pitch":44,"velocity":128,"startTime":89.99990999999997,"endTime":90.46144799999998,"instrument":3,"program":30,"isDrum":false},{"pitch":51,"velocity":128,"startTime":89.99990999999997,"endTime":90.46144799999998,"instrument":3,"program":30,"isDrum":false},{"pitch":56,"velocity":128,"startTime":89.99990999999997,"endTime":90.46144799999998,"instrument":3,"program":30,"isDrum":false},{"pitch":49,"velocity":128,"startTime":90.46144799999998,"endTime":90.92298599999998,"instrument":3,"program":30,"isDrum":false},{"pitch":56,"velocity":128,"startTime":90.46144799999998,"endTime":90.92298599999998,"instrument":3,"program":30,"isDrum":false},{"pitch":61,"velocity":128,"startTime":90.46144799999998,"endTime":90.92298599999998,"instrument":3,"program":30,"isDrum":false},{"pitch":49,"velocity":128,"startTime":90.92298599999998,"endTime":91.38452399999998,"instrument":3,"program":30,"isDrum":false},{"pitch":56,"velocity":128,"startTime":90.92298599999998,"endTime":91.38452399999998,"instrument":3,"program":30,"isDrum":false},{"pitch":61,"velocity":128,"startTime":90.92298599999998,"endTime":91.38452399999998,"instrument":3,"program":30,"isDrum":false},{"pitch":45,"velocity":128,"startTime":91.38452399999998,"endTime":91.84606199999999,"instrument":3,"program":30,"isDrum":false},{"pitch":52,"velocity":128,"startTime":91.38452399999998,"endTime":91.84606199999999,"instrument":3,"program":30,"isDrum":false},{"pitch":57,"velocity":128,"startTime":91.38452399999998,"endTime":91.84606199999999,"instrument":3,"program":30,"isDrum":false},{"pitch":45,"velocity":128,"startTime":91.84606199999999,"endTime":92.3076,"instrument":3,"program":30,"isDrum":false},{"pitch":52,"velocity":128,"startTime":91.84606199999999,"endTime":92.3076,"instrument":3,"program":30,"isDrum":false},{"pitch":57,"velocity":128,"startTime":91.84606199999999,"endTime":92.3076,"instrument":3,"program":30,"isDrum":false},{"pitch":48,"velocity":128,"startTime":92.3076,"endTime":92.53836899999999,"instrument":3,"program":30,"isDrum":false},{"pitch":55,"velocity":128,"startTime":92.3076,"endTime":92.53836899999999,"instrument":3,"program":30,"isDrum":false},{"pitch":60,"velocity":128,"startTime":92.3076,"endTime":92.53836899999999,"instrument":3,"program":30,"isDrum":false},{"pitch":48,"velocity":128,"startTime":92.53836899999999,"endTime":92.76913799999998,"instrument":3,"program":30,"isDrum":false},{"pitch":55,"velocity":128,"startTime":92.53836899999999,"endTime":92.76913799999998,"instrument":3,"program":30,"isDrum":false},{"pitch":60,"velocity":128,"startTime":92.53836899999999,"endTime":92.76913799999998,"instrument":3,"program":30,"isDrum":false},{"pitch":48,"velocity":128,"startTime":92.76913799999998,"endTime":92.99990699999998,"instrument":3,"program":30,"isDrum":false},{"pitch":55,"velocity":128,"startTime":92.76913799999998,"endTime":92.99990699999998,"instrument":3,"program":30,"isDrum":false},{"pitch":60,"velocity":128,"startTime":92.76913799999998,"endTime":92.99990699999998,"instrument":3,"program":30,"isDrum":false},{"pitch":48,"velocity":128,"startTime":92.99990699999998,"endTime":93.11529149999998,"instrument":3,"program":30,"isDrum":false},{"pitch":55,"velocity":128,"startTime":92.99990699999998,"endTime":93.11529149999998,"instrument":3,"program":30,"isDrum":false},{"pitch":60,"velocity":128,"startTime":92.99990699999998,"endTime":93.11529149999998,"instrument":3,"program":30,"isDrum":false},{"pitch":48,"velocity":128,"startTime":93.11529149999998,"endTime":93.23067599999999,"instrument":3,"program":30,"isDrum":false},{"pitch":55,"velocity":128,"startTime":93.11529149999998,"endTime":93.23067599999999,"instrument":3,"program":30,"isDrum":false},{"pitch":60,"velocity":128,"startTime":93.11529149999998,"endTime":93.23067599999999,"instrument":3,"program":30,"isDrum":false},{"pitch":48,"velocity":128,"startTime":93.23067599999999,"endTime":93.46144499999998,"instrument":3,"program":30,"isDrum":false},{"pitch":55,"velocity":128,"startTime":93.23067599999999,"endTime":93.46144499999998,"instrument":3,"program":30,"isDrum":false},{"pitch":60,"velocity":128,"startTime":93.23067599999999,"endTime":93.46144499999998,"instrument":3,"program":30,"isDrum":false},{"pitch":50,"velocity":128,"startTime":93.46144499999998,"endTime":93.69221399999998,"instrument":3,"program":30,"isDrum":false},{"pitch":57,"velocity":128,"startTime":93.46144499999998,"endTime":93.69221399999998,"instrument":3,"program":30,"isDrum":false},{"pitch":62,"velocity":128,"startTime":93.46144499999998,"endTime":93.69221399999998,"instrument":3,"program":30,"isDrum":false},{"pitch":50,"velocity":128,"startTime":93.69221399999998,"endTime":94.15375199999998,"instrument":3,"program":30,"isDrum":false},{"pitch":57,"velocity":128,"startTime":93.69221399999998,"endTime":94.15375199999998,"instrument":3,"program":30,"isDrum":false},{"pitch":62,"velocity":128,"startTime":93.69221399999998,"endTime":94.15375199999998,"instrument":3,"program":30,"isDrum":false},{"pitch":47,"velocity":128,"startTime":94.15375199999998,"endTime":94.38452099999998,"instrument":3,"program":30,"isDrum":false},{"pitch":54,"velocity":128,"startTime":94.15375199999998,"endTime":94.38452099999998,"instrument":3,"program":30,"isDrum":false},{"pitch":59,"velocity":128,"startTime":94.15375199999998,"endTime":94.38452099999998,"instrument":3,"program":30,"isDrum":false},{"pitch":47,"velocity":128,"startTime":94.38452099999998,"endTime":94.61528999999997,"instrument":3,"program":30,"isDrum":false},{"pitch":59,"velocity":128,"startTime":94.38452099999998,"endTime":94.61528999999997,"instrument":3,"program":30,"isDrum":false},{"pitch":54,"velocity":128,"startTime":94.38452099999998,"endTime":94.61528999999997,"instrument":3,"program":30,"isDrum":false},{"pitch":47,"velocity":128,"startTime":94.61528999999997,"endTime":94.84605899999997,"instrument":3,"program":30,"isDrum":false},{"pitch":59,"velocity":128,"startTime":94.61528999999997,"endTime":94.84605899999997,"instrument":3,"program":30,"isDrum":false},{"pitch":54,"velocity":128,"startTime":94.61528999999997,"endTime":94.84605899999997,"instrument":3,"program":30,"isDrum":false},{"pitch":47,"velocity":128,"startTime":94.84605899999997,"endTime":94.96144349999997,"instrument":3,"program":30,"isDrum":false},{"pitch":54,"velocity":128,"startTime":94.84605899999997,"endTime":94.96144349999997,"instrument":3,"program":30,"isDrum":false},{"pitch":59,"velocity":128,"startTime":94.84605899999997,"endTime":94.96144349999997,"instrument":3,"program":30,"isDrum":false},{"pitch":47,"velocity":128,"startTime":94.96144349999997,"endTime":95.07682799999998,"instrument":3,"program":30,"isDrum":false},{"pitch":59,"velocity":128,"startTime":94.96144349999997,"endTime":95.07682799999998,"instrument":3,"program":30,"isDrum":false},{"pitch":54,"velocity":128,"startTime":94.96144349999997,"endTime":95.07682799999998,"instrument":3,"program":30,"isDrum":false},{"pitch":47,"velocity":128,"startTime":95.07682799999998,"endTime":95.30759699999997,"instrument":3,"program":30,"isDrum":false},{"pitch":59,"velocity":128,"startTime":95.07682799999998,"endTime":95.30759699999997,"instrument":3,"program":30,"isDrum":false},{"pitch":54,"velocity":128,"startTime":95.07682799999998,"endTime":95.30759699999997,"instrument":3,"program":30,"isDrum":false},{"pitch":50,"velocity":128,"startTime":95.30759699999997,"endTime":95.53836599999997,"instrument":3,"program":30,"isDrum":false},{"pitch":57,"velocity":128,"startTime":95.30759699999997,"endTime":95.53836599999997,"instrument":3,"program":30,"isDrum":false},{"pitch":62,"velocity":128,"startTime":95.30759699999997,"endTime":95.53836599999997,"instrument":3,"program":30,"isDrum":false},{"pitch":50,"velocity":128,"startTime":95.53836599999997,"endTime":95.99990399999997,"instrument":3,"program":30,"isDrum":false},{"pitch":57,"velocity":128,"startTime":95.53836599999997,"endTime":95.99990399999997,"instrument":3,"program":30,"isDrum":false},{"pitch":62,"velocity":128,"startTime":95.53836599999997,"endTime":95.99990399999997,"instrument":3,"program":30,"isDrum":false},{"pitch":40,"velocity":128,"startTime":95.99990399999997,"endTime":96.46144199999998,"instrument":3,"program":30,"isDrum":false},{"pitch":47,"velocity":128,"startTime":95.99990399999997,"endTime":96.46144199999998,"instrument":3,"program":30,"isDrum":false},{"pitch":52,"velocity":128,"startTime":95.99990399999997,"endTime":96.46144199999998,"instrument":3,"program":30,"isDrum":false},{"pitch":40,"velocity":128,"startTime":96.46144199999998,"endTime":96.92297999999998,"instrument":3,"program":30,"isDrum":false},{"pitch":47,"velocity":128,"startTime":96.46144199999998,"endTime":96.92297999999998,"instrument":3,"program":30,"isDrum":false},{"pitch":52,"velocity":128,"startTime":96.46144199999998,"endTime":96.92297999999998,"instrument":3,"program":30,"isDrum":false},{"pitch":44,"velocity":128,"startTime":96.92297999999998,"endTime":97.38451799999999,"instrument":3,"program":30,"isDrum":false},{"pitch":51,"velocity":128,"startTime":96.92297999999998,"endTime":97.38451799999999,"instrument":3,"program":30,"isDrum":false},{"pitch":56,"velocity":128,"startTime":96.92297999999998,"endTime":97.38451799999999,"instrument":3,"program":30,"isDrum":false},{"pitch":44,"velocity":128,"startTime":97.38451799999999,"endTime":97.84605599999999,"instrument":3,"program":30,"isDrum":false},{"pitch":51,"velocity":128,"startTime":97.38451799999999,"endTime":97.84605599999999,"instrument":3,"program":30,"isDrum":false},{"pitch":56,"velocity":128,"startTime":97.38451799999999,"endTime":97.84605599999999,"instrument":3,"program":30,"isDrum":false},{"pitch":49,"velocity":128,"startTime":97.84605599999999,"endTime":98.307594,"instrument":3,"program":30,"isDrum":false},{"pitch":56,"velocity":128,"startTime":97.84605599999999,"endTime":98.307594,"instrument":3,"program":30,"isDrum":false},{"pitch":61,"velocity":128,"startTime":97.84605599999999,"endTime":98.307594,"instrument":3,"program":30,"isDrum":false},{"pitch":49,"velocity":128,"startTime":98.307594,"endTime":98.769132,"instrument":3,"program":30,"isDrum":false},{"pitch":56,"velocity":128,"startTime":98.307594,"endTime":98.769132,"instrument":3,"program":30,"isDrum":false},{"pitch":61,"velocity":128,"startTime":98.307594,"endTime":98.769132,"instrument":3,"program":30,"isDrum":false},{"pitch":45,"velocity":128,"startTime":98.769132,"endTime":99.23067,"instrument":3,"program":30,"isDrum":false},{"pitch":52,"velocity":128,"startTime":98.769132,"endTime":99.23067,"instrument":3,"program":30,"isDrum":false},{"pitch":57,"velocity":128,"startTime":98.769132,"endTime":99.23067,"instrument":3,"program":30,"isDrum":false},{"pitch":45,"velocity":128,"startTime":99.23067,"endTime":99.69220800000001,"instrument":3,"program":30,"isDrum":false},{"pitch":52,"velocity":128,"startTime":99.23067,"endTime":99.69220800000001,"instrument":3,"program":30,"isDrum":false},{"pitch":57,"velocity":128,"startTime":99.23067,"endTime":99.69220800000001,"instrument":3,"program":30,"isDrum":false},{"pitch":48,"velocity":128,"startTime":99.69220800000001,"endTime":99.922977,"instrument":3,"program":30,"isDrum":false},{"pitch":55,"velocity":128,"startTime":99.69220800000001,"endTime":99.922977,"instrument":3,"program":30,"isDrum":false},{"pitch":60,"velocity":128,"startTime":99.69220800000001,"endTime":99.922977,"instrument":3,"program":30,"isDrum":false},{"pitch":48,"velocity":128,"startTime":99.922977,"endTime":100.153746,"instrument":3,"program":30,"isDrum":false},{"pitch":55,"velocity":128,"startTime":99.922977,"endTime":100.153746,"instrument":3,"program":30,"isDrum":false},{"pitch":60,"velocity":128,"startTime":99.922977,"endTime":100.153746,"instrument":3,"program":30,"isDrum":false},{"pitch":48,"velocity":128,"startTime":100.153746,"endTime":100.384515,"instrument":3,"program":30,"isDrum":false},{"pitch":55,"velocity":128,"startTime":100.153746,"endTime":100.384515,"instrument":3,"program":30,"isDrum":false},{"pitch":60,"velocity":128,"startTime":100.153746,"endTime":100.384515,"instrument":3,"program":30,"isDrum":false},{"pitch":48,"velocity":128,"startTime":100.384515,"endTime":100.4998995,"instrument":3,"program":30,"isDrum":false},{"pitch":55,"velocity":128,"startTime":100.384515,"endTime":100.4998995,"instrument":3,"program":30,"isDrum":false},{"pitch":60,"velocity":128,"startTime":100.384515,"endTime":100.4998995,"instrument":3,"program":30,"isDrum":false},{"pitch":48,"velocity":128,"startTime":100.4998995,"endTime":100.615284,"instrument":3,"program":30,"isDrum":false},{"pitch":55,"velocity":128,"startTime":100.4998995,"endTime":100.615284,"instrument":3,"program":30,"isDrum":false},{"pitch":60,"velocity":128,"startTime":100.4998995,"endTime":100.615284,"instrument":3,"program":30,"isDrum":false},{"pitch":48,"velocity":128,"startTime":100.615284,"endTime":100.846053,"instrument":3,"program":30,"isDrum":false},{"pitch":55,"velocity":128,"startTime":100.615284,"endTime":100.846053,"instrument":3,"program":30,"isDrum":false},{"pitch":60,"velocity":128,"startTime":100.615284,"endTime":100.846053,"instrument":3,"program":30,"isDrum":false},{"pitch":50,"velocity":128,"startTime":100.846053,"endTime":101.07682199999999,"instrument":3,"program":30,"isDrum":false},{"pitch":57,"velocity":128,"startTime":100.846053,"endTime":101.07682199999999,"instrument":3,"program":30,"isDrum":false},{"pitch":62,"velocity":128,"startTime":100.846053,"endTime":101.07682199999999,"instrument":3,"program":30,"isDrum":false},{"pitch":50,"velocity":128,"startTime":101.07682199999999,"endTime":101.53836,"instrument":3,"program":30,"isDrum":false},{"pitch":57,"velocity":128,"startTime":101.07682199999999,"endTime":101.53836,"instrument":3,"program":30,"isDrum":false},{"pitch":62,"velocity":128,"startTime":101.07682199999999,"endTime":101.53836,"instrument":3,"program":30,"isDrum":false},{"pitch":47,"velocity":128,"startTime":101.53836,"endTime":101.76912899999999,"instrument":3,"program":30,"isDrum":false},{"pitch":54,"velocity":128,"startTime":101.53836,"endTime":101.76912899999999,"instrument":3,"program":30,"isDrum":false},{"pitch":59,"velocity":128,"startTime":101.53836,"endTime":101.76912899999999,"instrument":3,"program":30,"isDrum":false},{"pitch":47,"velocity":128,"startTime":101.76912899999999,"endTime":101.99989799999999,"instrument":3,"program":30,"isDrum":false},{"pitch":59,"velocity":128,"startTime":101.76912899999999,"endTime":101.99989799999999,"instrument":3,"program":30,"isDrum":false},{"pitch":54,"velocity":128,"startTime":101.76912899999999,"endTime":101.99989799999999,"instrument":3,"program":30,"isDrum":false},{"pitch":47,"velocity":128,"startTime":101.99989799999999,"endTime":102.23066699999998,"instrument":3,"program":30,"isDrum":false},{"pitch":59,"velocity":128,"startTime":101.99989799999999,"endTime":102.23066699999998,"instrument":3,"program":30,"isDrum":false},{"pitch":54,"velocity":128,"startTime":101.99989799999999,"endTime":102.23066699999998,"instrument":3,"program":30,"isDrum":false},{"pitch":47,"velocity":128,"startTime":102.23066699999998,"endTime":102.34605149999999,"instrument":3,"program":30,"isDrum":false},{"pitch":54,"velocity":128,"startTime":102.23066699999998,"endTime":102.34605149999999,"instrument":3,"program":30,"isDrum":false},{"pitch":59,"velocity":128,"startTime":102.23066699999998,"endTime":102.34605149999999,"instrument":3,"program":30,"isDrum":false},{"pitch":47,"velocity":128,"startTime":102.34605149999999,"endTime":102.46143599999999,"instrument":3,"program":30,"isDrum":false},{"pitch":59,"velocity":128,"startTime":102.34605149999999,"endTime":102.46143599999999,"instrument":3,"program":30,"isDrum":false},{"pitch":54,"velocity":128,"startTime":102.34605149999999,"endTime":102.46143599999999,"instrument":3,"program":30,"isDrum":false},{"pitch":47,"velocity":128,"startTime":102.46143599999999,"endTime":102.69220499999999,"instrument":3,"program":30,"isDrum":false},{"pitch":59,"velocity":128,"startTime":102.46143599999999,"endTime":102.69220499999999,"instrument":3,"program":30,"isDrum":false},{"pitch":54,"velocity":128,"startTime":102.46143599999999,"endTime":102.69220499999999,"instrument":3,"program":30,"isDrum":false},{"pitch":50,"velocity":128,"startTime":102.69220499999999,"endTime":102.92297399999998,"instrument":3,"program":30,"isDrum":false},{"pitch":57,"velocity":128,"startTime":102.69220499999999,"endTime":102.92297399999998,"instrument":3,"program":30,"isDrum":false},{"pitch":62,"velocity":128,"startTime":102.69220499999999,"endTime":102.92297399999998,"instrument":3,"program":30,"isDrum":false},{"pitch":50,"velocity":128,"startTime":102.92297399999998,"endTime":103.38451199999999,"instrument":3,"program":30,"isDrum":false},{"pitch":57,"velocity":128,"startTime":102.92297399999998,"endTime":103.38451199999999,"instrument":3,"program":30,"isDrum":false},{"pitch":62,"velocity":128,"startTime":102.92297399999998,"endTime":103.38451199999999,"instrument":3,"program":30,"isDrum":false},{"pitch":45,"velocity":128,"startTime":103.38451199999999,"endTime":103.84604999999999,"instrument":3,"program":30,"isDrum":false},{"pitch":57,"velocity":128,"startTime":103.38451199999999,"endTime":103.84604999999999,"instrument":3,"program":30,"isDrum":false},{"pitch":52,"velocity":128,"startTime":103.38451199999999,"endTime":103.84604999999999,"instrument":3,"program":30,"isDrum":false},{"pitch":57,"velocity":128,"startTime":103.84604999999999,"endTime":104.23066499999999,"instrument":3,"program":30,"isDrum":false},{"pitch":52,"velocity":128,"startTime":103.84604999999999,"endTime":104.30758799999998,"instrument":3,"program":30,"isDrum":false},{"pitch":45,"velocity":128,"startTime":103.84604999999999,"endTime":104.30758799999998,"instrument":3,"program":30,"isDrum":false},{"pitch":50,"velocity":128,"startTime":104.07681899999999,"endTime":104.23066499999999,"instrument":3,"program":30,"isDrum":false},{"pitch":62,"velocity":128,"startTime":104.07681899999999,"endTime":104.23066499999999,"instrument":3,"program":30,"isDrum":false},{"pitch":57,"velocity":128,"startTime":104.07681899999999,"endTime":104.30758799999998,"instrument":3,"program":30,"isDrum":false},{"pitch":48,"velocity":128,"startTime":104.30758799999998,"endTime":104.76912599999999,"instrument":3,"program":30,"isDrum":false},{"pitch":55,"velocity":128,"startTime":104.30758799999998,"endTime":104.76912599999999,"instrument":3,"program":30,"isDrum":false},{"pitch":60,"velocity":128,"startTime":104.30758799999998,"endTime":104.76912599999999,"instrument":3,"program":30,"isDrum":false},{"pitch":60,"velocity":128,"startTime":104.76912599999999,"endTime":105.23066399999999,"instrument":3,"program":30,"isDrum":false},{"pitch":55,"velocity":128,"startTime":104.76912599999999,"endTime":105.23066399999999,"instrument":3,"program":30,"isDrum":false},{"pitch":48,"velocity":128,"startTime":104.76912599999999,"endTime":105.23066399999999,"instrument":3,"program":30,"isDrum":false},{"pitch":45,"velocity":128,"startTime":105.23066399999999,"endTime":105.692202,"instrument":3,"program":30,"isDrum":false},{"pitch":52,"velocity":128,"startTime":105.23066399999999,"endTime":105.692202,"instrument":3,"program":30,"isDrum":false},{"pitch":57,"velocity":128,"startTime":105.23066399999999,"endTime":105.692202,"instrument":3,"program":30,"isDrum":false},{"pitch":52,"velocity":128,"startTime":105.692202,"endTime":106.15374,"instrument":3,"program":30,"isDrum":false},{"pitch":45,"velocity":128,"startTime":105.692202,"endTime":106.15374,"instrument":3,"program":30,"isDrum":false},{"pitch":57,"velocity":128,"startTime":105.692202,"endTime":106.15374,"instrument":3,"program":30,"isDrum":false},{"pitch":55,"velocity":128,"startTime":106.15374,"endTime":106.384509,"instrument":3,"program":30,"isDrum":false},{"pitch":50,"velocity":128,"startTime":106.15374,"endTime":106.384509,"instrument":3,"program":30,"isDrum":false},{"pitch":43,"velocity":128,"startTime":106.15374,"endTime":106.384509,"instrument":3,"program":30,"isDrum":false},{"pitch":57,"velocity":128,"startTime":106.384509,"endTime":106.846047,"instrument":3,"program":30,"isDrum":false},{"pitch":52,"velocity":128,"startTime":106.384509,"endTime":106.846047,"instrument":3,"program":30,"isDrum":false},{"pitch":45,"velocity":128,"startTime":106.384509,"endTime":106.846047,"instrument":3,"program":30,"isDrum":false},{"pitch":55,"velocity":128,"startTime":106.846047,"endTime":107.076816,"instrument":3,"program":30,"isDrum":false},{"pitch":50,"velocity":128,"startTime":106.846047,"endTime":107.076816,"instrument":3,"program":30,"isDrum":false},{"pitch":43,"velocity":128,"startTime":106.846047,"endTime":107.076816,"instrument":3,"program":30,"isDrum":false},{"pitch":45,"velocity":128,"startTime":107.076816,"endTime":107.538354,"instrument":3,"program":30,"isDrum":false},{"pitch":57,"velocity":128,"startTime":107.076816,"endTime":107.538354,"instrument":3,"program":30,"isDrum":false},{"pitch":52,"velocity":128,"startTime":107.076816,"endTime":107.538354,"instrument":3,"program":30,"isDrum":false},{"pitch":57,"velocity":128,"startTime":107.538354,"endTime":107.922969,"instrument":3,"program":30,"isDrum":false},{"pitch":52,"velocity":128,"startTime":107.538354,"endTime":107.99989199999999,"instrument":3,"program":30,"isDrum":false},{"pitch":45,"velocity":128,"startTime":107.538354,"endTime":107.99989199999999,"instrument":3,"program":30,"isDrum":false},{"pitch":50,"velocity":128,"startTime":107.769123,"endTime":107.922969,"instrument":3,"program":30,"isDrum":false},{"pitch":62,"velocity":128,"startTime":107.769123,"endTime":107.922969,"instrument":3,"program":30,"isDrum":false},{"pitch":57,"velocity":128,"startTime":107.769123,"endTime":107.99989199999999,"instrument":3,"program":30,"isDrum":false},{"pitch":48,"velocity":128,"startTime":107.99989199999999,"endTime":108.46143,"instrument":3,"program":30,"isDrum":false},{"pitch":55,"velocity":128,"startTime":107.99989199999999,"endTime":108.46143,"instrument":3,"program":30,"isDrum":false},{"pitch":60,"velocity":128,"startTime":107.99989199999999,"endTime":108.46143,"instrument":3,"program":30,"isDrum":false},{"pitch":60,"velocity":128,"startTime":108.46143,"endTime":108.922968,"instrument":3,"program":30,"isDrum":false},{"pitch":55,"velocity":128,"startTime":108.46143,"endTime":108.922968,"instrument":3,"program":30,"isDrum":false},{"pitch":48,"velocity":128,"startTime":108.46143,"endTime":108.922968,"instrument":3,"program":30,"isDrum":false},{"pitch":45,"velocity":128,"startTime":108.922968,"endTime":109.384506,"instrument":3,"program":30,"isDrum":false},{"pitch":52,"velocity":128,"startTime":108.922968,"endTime":109.384506,"instrument":3,"program":30,"isDrum":false},{"pitch":57,"velocity":128,"startTime":108.922968,"endTime":109.384506,"instrument":3,"program":30,"isDrum":false},{"pitch":52,"velocity":128,"startTime":109.384506,"endTime":109.846044,"instrument":3,"program":30,"isDrum":false},{"pitch":45,"velocity":128,"startTime":109.384506,"endTime":109.846044,"instrument":3,"program":30,"isDrum":false},{"pitch":57,"velocity":128,"startTime":109.384506,"endTime":109.846044,"instrument":3,"program":30,"isDrum":false},{"pitch":55,"velocity":128,"startTime":109.846044,"endTime":110.076813,"instrument":3,"program":30,"isDrum":false},{"pitch":50,"velocity":128,"startTime":109.846044,"endTime":110.076813,"instrument":3,"program":30,"isDrum":false},{"pitch":43,"velocity":128,"startTime":109.846044,"endTime":110.076813,"instrument":3,"program":30,"isDrum":false},{"pitch":57,"velocity":128,"startTime":110.076813,"endTime":110.538351,"instrument":3,"program":30,"isDrum":false},{"pitch":52,"velocity":128,"startTime":110.076813,"endTime":110.538351,"instrument":3,"program":30,"isDrum":false},{"pitch":45,"velocity":128,"startTime":110.076813,"endTime":110.538351,"instrument":3,"program":30,"isDrum":false},{"pitch":55,"velocity":128,"startTime":110.538351,"endTime":110.76912,"instrument":3,"program":30,"isDrum":false},{"pitch":50,"velocity":128,"startTime":110.538351,"endTime":110.76912,"instrument":3,"program":30,"isDrum":false},{"pitch":43,"velocity":128,"startTime":110.538351,"endTime":110.76912,"instrument":3,"program":30,"isDrum":false},{"pitch":45,"velocity":128,"startTime":110.76912,"endTime":111.230658,"instrument":3,"program":30,"isDrum":false},{"pitch":57,"velocity":128,"startTime":110.76912,"endTime":111.230658,"instrument":3,"program":30,"isDrum":false},{"pitch":52,"velocity":128,"startTime":110.76912,"endTime":111.230658,"instrument":3,"program":30,"isDrum":false},{"pitch":57,"velocity":128,"startTime":111.230658,"endTime":111.615273,"instrument":3,"program":30,"isDrum":false},{"pitch":52,"velocity":128,"startTime":111.230658,"endTime":111.692196,"instrument":3,"program":30,"isDrum":false},{"pitch":45,"velocity":128,"startTime":111.230658,"endTime":111.692196,"instrument":3,"program":30,"isDrum":false},{"pitch":50,"velocity":128,"startTime":111.461427,"endTime":111.615273,"instrument":3,"program":30,"isDrum":false},{"pitch":62,"velocity":128,"startTime":111.461427,"endTime":111.615273,"instrument":3,"program":30,"isDrum":false},{"pitch":57,"velocity":128,"startTime":111.461427,"endTime":111.692196,"instrument":3,"program":30,"isDrum":false},{"pitch":48,"velocity":128,"startTime":111.692196,"endTime":112.153734,"instrument":3,"program":30,"isDrum":false},{"pitch":55,"velocity":128,"startTime":111.692196,"endTime":112.153734,"instrument":3,"program":30,"isDrum":false},{"pitch":60,"velocity":128,"startTime":111.692196,"endTime":112.153734,"instrument":3,"program":30,"isDrum":false},{"pitch":60,"velocity":128,"startTime":112.153734,"endTime":112.615272,"instrument":3,"program":30,"isDrum":false},{"pitch":55,"velocity":128,"startTime":112.153734,"endTime":112.615272,"instrument":3,"program":30,"isDrum":false},{"pitch":48,"velocity":128,"startTime":112.153734,"endTime":112.615272,"instrument":3,"program":30,"isDrum":false},{"pitch":45,"velocity":128,"startTime":112.615272,"endTime":113.07681000000001,"instrument":3,"program":30,"isDrum":false},{"pitch":52,"velocity":128,"startTime":112.615272,"endTime":113.07681000000001,"instrument":3,"program":30,"isDrum":false},{"pitch":57,"velocity":128,"startTime":112.615272,"endTime":113.07681000000001,"instrument":3,"program":30,"isDrum":false},{"pitch":52,"velocity":128,"startTime":113.07681000000001,"endTime":113.53834800000001,"instrument":3,"program":30,"isDrum":false},{"pitch":45,"velocity":128,"startTime":113.07681000000001,"endTime":113.53834800000001,"instrument":3,"program":30,"isDrum":false},{"pitch":57,"velocity":128,"startTime":113.07681000000001,"endTime":113.53834800000001,"instrument":3,"program":30,"isDrum":false},{"pitch":55,"velocity":128,"startTime":113.53834800000001,"endTime":113.76911700000001,"instrument":3,"program":30,"isDrum":false},{"pitch":50,"velocity":128,"startTime":113.53834800000001,"endTime":113.76911700000001,"instrument":3,"program":30,"isDrum":false},{"pitch":43,"velocity":128,"startTime":113.53834800000001,"endTime":113.76911700000001,"instrument":3,"program":30,"isDrum":false},{"pitch":57,"velocity":128,"startTime":113.76911700000001,"endTime":114.23065500000001,"instrument":3,"program":30,"isDrum":false},{"pitch":52,"velocity":128,"startTime":113.76911700000001,"endTime":114.23065500000001,"instrument":3,"program":30,"isDrum":false},{"pitch":45,"velocity":128,"startTime":113.76911700000001,"endTime":114.23065500000001,"instrument":3,"program":30,"isDrum":false},{"pitch":55,"velocity":128,"startTime":114.23065500000001,"endTime":114.46142400000001,"instrument":3,"program":30,"isDrum":false},{"pitch":50,"velocity":128,"startTime":114.23065500000001,"endTime":114.46142400000001,"instrument":3,"program":30,"isDrum":false},{"pitch":43,"velocity":128,"startTime":114.23065500000001,"endTime":114.46142400000001,"instrument":3,"program":30,"isDrum":false},{"pitch":45,"velocity":128,"startTime":114.46142400000001,"endTime":114.92296200000001,"instrument":3,"program":30,"isDrum":false},{"pitch":57,"velocity":128,"startTime":114.46142400000001,"endTime":114.92296200000001,"instrument":3,"program":30,"isDrum":false},{"pitch":52,"velocity":128,"startTime":114.46142400000001,"endTime":114.92296200000001,"instrument":3,"program":30,"isDrum":false},{"pitch":57,"velocity":128,"startTime":114.92296200000001,"endTime":115.30757700000001,"instrument":3,"program":30,"isDrum":false},{"pitch":52,"velocity":128,"startTime":114.92296200000001,"endTime":115.3845,"instrument":3,"program":30,"isDrum":false},{"pitch":45,"velocity":128,"startTime":114.92296200000001,"endTime":115.3845,"instrument":3,"program":30,"isDrum":false},{"pitch":50,"velocity":128,"startTime":115.15373100000001,"endTime":115.30757700000001,"instrument":3,"program":30,"isDrum":false},{"pitch":62,"velocity":128,"startTime":115.15373100000001,"endTime":115.30757700000001,"instrument":3,"program":30,"isDrum":false},{"pitch":57,"velocity":128,"startTime":115.15373100000001,"endTime":115.3845,"instrument":3,"program":30,"isDrum":false},{"pitch":48,"velocity":128,"startTime":115.3845,"endTime":115.84603800000001,"instrument":3,"program":30,"isDrum":false},{"pitch":55,"velocity":128,"startTime":115.3845,"endTime":115.84603800000001,"instrument":3,"program":30,"isDrum":false},{"pitch":60,"velocity":128,"startTime":115.3845,"endTime":115.84603800000001,"instrument":3,"program":30,"isDrum":false},{"pitch":60,"velocity":128,"startTime":115.84603800000001,"endTime":116.30757600000001,"instrument":3,"program":30,"isDrum":false},{"pitch":55,"velocity":128,"startTime":115.84603800000001,"endTime":116.30757600000001,"instrument":3,"program":30,"isDrum":false},{"pitch":48,"velocity":128,"startTime":115.84603800000001,"endTime":116.30757600000001,"instrument":3,"program":30,"isDrum":false},{"pitch":45,"velocity":128,"startTime":116.30757600000001,"endTime":116.76911400000002,"instrument":3,"program":30,"isDrum":false},{"pitch":52,"velocity":128,"startTime":116.30757600000001,"endTime":116.76911400000002,"instrument":3,"program":30,"isDrum":false},{"pitch":57,"velocity":128,"startTime":116.30757600000001,"endTime":116.76911400000002,"instrument":3,"program":30,"isDrum":false},{"pitch":52,"velocity":128,"startTime":116.76911400000002,"endTime":117.23065200000002,"instrument":3,"program":30,"isDrum":false},{"pitch":45,"velocity":128,"startTime":116.76911400000002,"endTime":117.23065200000002,"instrument":3,"program":30,"isDrum":false},{"pitch":57,"velocity":128,"startTime":116.76911400000002,"endTime":117.23065200000002,"instrument":3,"program":30,"isDrum":false},{"pitch":55,"velocity":128,"startTime":117.23065200000002,"endTime":117.46142100000002,"instrument":3,"program":30,"isDrum":false},{"pitch":50,"velocity":128,"startTime":117.23065200000002,"endTime":117.46142100000002,"instrument":3,"program":30,"isDrum":false},{"pitch":43,"velocity":128,"startTime":117.23065200000002,"endTime":117.46142100000002,"instrument":3,"program":30,"isDrum":false},{"pitch":57,"velocity":128,"startTime":117.46142100000002,"endTime":117.92295900000002,"instrument":3,"program":30,"isDrum":false},{"pitch":52,"velocity":128,"startTime":117.46142100000002,"endTime":117.92295900000002,"instrument":3,"program":30,"isDrum":false},{"pitch":45,"velocity":128,"startTime":117.46142100000002,"endTime":117.92295900000002,"instrument":3,"program":30,"isDrum":false},{"pitch":55,"velocity":128,"startTime":117.92295900000002,"endTime":118.15372800000002,"instrument":3,"program":30,"isDrum":false},{"pitch":50,"velocity":128,"startTime":117.92295900000002,"endTime":118.15372800000002,"instrument":3,"program":30,"isDrum":false},{"pitch":43,"velocity":128,"startTime":117.92295900000002,"endTime":118.15372800000002,"instrument":3,"program":30,"isDrum":false},{"pitch":50,"velocity":128,"startTime":118.15372800000002,"endTime":118.38449700000001,"instrument":3,"program":30,"isDrum":false},{"pitch":57,"velocity":128,"startTime":118.15372800000002,"endTime":118.38449700000001,"instrument":3,"program":30,"isDrum":false},{"pitch":62,"velocity":128,"startTime":118.15372800000002,"endTime":118.38449700000001,"instrument":3,"program":30,"isDrum":false},{"pitch":50,"velocity":128,"startTime":118.38449700000001,"endTime":118.615266,"instrument":3,"program":30,"isDrum":false},{"pitch":57,"velocity":128,"startTime":118.38449700000001,"endTime":118.615266,"instrument":3,"program":30,"isDrum":false},{"pitch":62,"velocity":128,"startTime":118.38449700000001,"endTime":118.615266,"instrument":3,"program":30,"isDrum":false},{"pitch":50,"velocity":128,"startTime":118.615266,"endTime":118.846035,"instrument":3,"program":30,"isDrum":false},{"pitch":57,"velocity":128,"startTime":118.615266,"endTime":118.846035,"instrument":3,"program":30,"isDrum":false},{"pitch":62,"velocity":128,"startTime":118.615266,"endTime":118.846035,"instrument":3,"program":30,"isDrum":false},{"pitch":50,"velocity":128,"startTime":118.846035,"endTime":119.076804,"instrument":3,"program":30,"isDrum":false},{"pitch":57,"velocity":128,"startTime":118.846035,"endTime":119.076804,"instrument":3,"program":30,"isDrum":false},{"pitch":62,"velocity":128,"startTime":118.846035,"endTime":119.076804,"instrument":3,"program":30,"isDrum":false},{"pitch":50,"velocity":128,"startTime":119.076804,"endTime":119.30757299999999,"instrument":3,"program":30,"isDrum":false},{"pitch":57,"velocity":128,"startTime":119.076804,"endTime":119.30757299999999,"instrument":3,"program":30,"isDrum":false},{"pitch":62,"velocity":128,"startTime":119.076804,"endTime":119.30757299999999,"instrument":3,"program":30,"isDrum":false},{"pitch":50,"velocity":128,"startTime":119.30757299999999,"endTime":119.53834199999999,"instrument":3,"program":30,"isDrum":false},{"pitch":62,"velocity":128,"startTime":119.30757299999999,"endTime":119.53834199999999,"instrument":3,"program":30,"isDrum":false},{"pitch":50,"velocity":128,"startTime":119.53834199999999,"endTime":119.76911099999998,"instrument":3,"program":30,"isDrum":false},{"pitch":57,"velocity":128,"startTime":119.53834199999999,"endTime":119.76911099999998,"instrument":3,"program":30,"isDrum":false},{"pitch":62,"velocity":128,"startTime":119.53834199999999,"endTime":119.76911099999998,"instrument":3,"program":30,"isDrum":false},{"pitch":50,"velocity":128,"startTime":119.76911099999998,"endTime":119.99987999999998,"instrument":3,"program":30,"isDrum":false},{"pitch":57,"velocity":128,"startTime":119.76911099999998,"endTime":119.99987999999998,"instrument":3,"program":30,"isDrum":false},{"pitch":62,"velocity":128,"startTime":119.76911099999998,"endTime":119.99987999999998,"instrument":3,"program":30,"isDrum":false},{"pitch":47,"velocity":128,"startTime":119.99987999999998,"endTime":120.23064899999997,"instrument":3,"program":30,"isDrum":false},{"pitch":54,"velocity":128,"startTime":119.99987999999998,"endTime":120.23064899999997,"instrument":3,"program":30,"isDrum":false},{"pitch":59,"velocity":128,"startTime":119.99987999999998,"endTime":120.23064899999997,"instrument":3,"program":30,"isDrum":false},{"pitch":47,"velocity":128,"startTime":120.23064899999997,"endTime":120.46141799999997,"instrument":3,"program":30,"isDrum":false},{"pitch":54,"velocity":128,"startTime":120.23064899999997,"endTime":120.46141799999997,"instrument":3,"program":30,"isDrum":false},{"pitch":59,"velocity":128,"startTime":120.23064899999997,"endTime":120.46141799999997,"instrument":3,"program":30,"isDrum":false},{"pitch":47,"velocity":128,"startTime":120.46141799999997,"endTime":120.69218699999996,"instrument":3,"program":30,"isDrum":false},{"pitch":54,"velocity":128,"startTime":120.46141799999997,"endTime":120.69218699999996,"instrument":3,"program":30,"isDrum":false},{"pitch":59,"velocity":128,"startTime":120.46141799999997,"endTime":120.69218699999996,"instrument":3,"program":30,"isDrum":false},{"pitch":47,"velocity":128,"startTime":120.69218699999996,"endTime":120.92295599999996,"instrument":3,"program":30,"isDrum":false},{"pitch":54,"velocity":128,"startTime":120.69218699999996,"endTime":120.92295599999996,"instrument":3,"program":30,"isDrum":false},{"pitch":59,"velocity":128,"startTime":120.69218699999996,"endTime":120.92295599999996,"instrument":3,"program":30,"isDrum":false},{"pitch":47,"velocity":128,"startTime":120.92295599999996,"endTime":121.15372499999995,"instrument":3,"program":30,"isDrum":false},{"pitch":54,"velocity":128,"startTime":120.92295599999996,"endTime":121.15372499999995,"instrument":3,"program":30,"isDrum":false},{"pitch":59,"velocity":128,"startTime":120.92295599999996,"endTime":121.15372499999995,"instrument":3,"program":30,"isDrum":false},{"pitch":40,"velocity":128,"startTime":121.15372499999995,"endTime":121.46141699999994,"instrument":3,"program":30,"isDrum":false},{"pitch":47,"velocity":128,"startTime":121.15372499999995,"endTime":121.38449399999995,"instrument":3,"program":30,"isDrum":false},{"pitch":52,"velocity":128,"startTime":121.15372499999995,"endTime":121.38449399999995,"instrument":3,"program":30,"isDrum":false},{"pitch":43,"velocity":128,"startTime":121.38449399999995,"endTime":121.69218599999994,"instrument":3,"program":30,"isDrum":false},{"pitch":50,"velocity":128,"startTime":121.38449399999995,"endTime":121.84603199999994,"instrument":3,"program":30,"isDrum":false},{"pitch":55,"velocity":128,"startTime":121.38449399999995,"endTime":121.84603199999994,"instrument":3,"program":30,"isDrum":false},{"pitch":52,"velocity":128,"startTime":121.84603199999994,"endTime":123.08160768749994,"instrument":3,"program":30,"isDrum":false},{"pitch":47,"velocity":128,"startTime":121.84603199999994,"endTime":123.08160768749994,"instrument":3,"program":30,"isDrum":false},{"pitch":40,"velocity":128,"startTime":121.84603199999994,"endTime":123.08160768749994,"instrument":3,"program":30,"isDrum":false},{"pitch":35,"velocity":128,"startTime":35.076888,"endTime":35.307657,"instrument":4,"program":42,"isDrum":false},{"pitch":35,"velocity":128,"startTime":35.307657,"endTime":35.538426,"instrument":4,"program":42,"isDrum":false},{"pitch":35,"velocity":128,"startTime":35.538426,"endTime":35.769195,"instrument":4,"program":42,"isDrum":false},{"pitch":35,"velocity":128,"startTime":35.769195,"endTime":35.8845795,"instrument":4,"program":42,"isDrum":false},{"pitch":35,"velocity":128,"startTime":35.8845795,"endTime":35.999964,"instrument":4,"program":42,"isDrum":false},{"pitch":35,"velocity":128,"startTime":35.999964,"endTime":36.230733,"instrument":4,"program":42,"isDrum":false},{"pitch":38,"velocity":128,"startTime":36.230733,"endTime":36.461502,"instrument":4,"program":42,"isDrum":false},{"pitch":38,"velocity":128,"startTime":36.461502,"endTime":36.92304,"instrument":4,"program":42,"isDrum":false},{"pitch":28,"velocity":128,"startTime":36.92304,"endTime":37.384578,"instrument":4,"program":42,"isDrum":false},{"pitch":28,"velocity":128,"startTime":37.384578,"endTime":37.846115999999995,"instrument":4,"program":42,"isDrum":false},{"pitch":32,"velocity":128,"startTime":37.846115999999995,"endTime":38.30765399999999,"instrument":4,"program":42,"isDrum":false},{"pitch":32,"velocity":128,"startTime":38.30765399999999,"endTime":38.76919199999999,"instrument":4,"program":42,"isDrum":false},{"pitch":37,"velocity":128,"startTime":38.76919199999999,"endTime":39.23072999999999,"instrument":4,"program":42,"isDrum":false},{"pitch":37,"velocity":128,"startTime":39.23072999999999,"endTime":39.692267999999984,"instrument":4,"program":42,"isDrum":false},{"pitch":33,"velocity":128,"startTime":39.692267999999984,"endTime":40.15380599999998,"instrument":4,"program":42,"isDrum":false},{"pitch":33,"velocity":128,"startTime":40.15380599999998,"endTime":40.61534399999998,"instrument":4,"program":42,"isDrum":false},{"pitch":36,"velocity":128,"startTime":40.61534399999998,"endTime":40.84611299999998,"instrument":4,"program":42,"isDrum":false},{"pitch":36,"velocity":128,"startTime":40.84611299999998,"endTime":41.07688199999998,"instrument":4,"program":42,"isDrum":false},{"pitch":36,"velocity":128,"startTime":41.07688199999998,"endTime":41.307650999999986,"instrument":4,"program":42,"isDrum":false},{"pitch":36,"velocity":128,"startTime":41.307650999999986,"endTime":41.384573999999986,"instrument":4,"program":42,"isDrum":false},{"pitch":36,"velocity":128,"startTime":41.42303549999998,"endTime":41.499958499999984,"instrument":4,"program":42,"isDrum":false},{"pitch":36,"velocity":128,"startTime":41.53841999999998,"endTime":41.76918899999998,"instrument":4,"program":42,"isDrum":false},{"pitch":38,"velocity":128,"startTime":41.76918899999998,"endTime":41.999957999999985,"instrument":4,"program":42,"isDrum":false},{"pitch":38,"velocity":128,"startTime":41.999957999999985,"endTime":42.30764999999999,"instrument":4,"program":42,"isDrum":false},{"pitch":36,"velocity":128,"startTime":42.23072699999999,"endTime":42.38457299999999,"instrument":4,"program":42,"isDrum":false},{"pitch":35,"velocity":128,"startTime":42.46149599999999,"endTime":42.69226499999999,"instrument":4,"program":42,"isDrum":false},{"pitch":35,"velocity":128,"startTime":42.69226499999999,"endTime":42.923033999999994,"instrument":4,"program":42,"isDrum":false},{"pitch":35,"velocity":128,"startTime":42.923033999999994,"endTime":43.153802999999996,"instrument":4,"program":42,"isDrum":false},{"pitch":35,"velocity":128,"startTime":43.153802999999996,"endTime":43.230726,"instrument":4,"program":42,"isDrum":false},{"pitch":35,"velocity":128,"startTime":43.269187499999994,"endTime":43.346110499999995,"instrument":4,"program":42,"isDrum":false},{"pitch":35,"velocity":128,"startTime":43.38457199999999,"endTime":43.615340999999994,"instrument":4,"program":42,"isDrum":false},{"pitch":38,"velocity":128,"startTime":43.615340999999994,"endTime":43.846109999999996,"instrument":4,"program":42,"isDrum":false},{"pitch":38,"velocity":128,"startTime":43.846109999999996,"endTime":44.153802,"instrument":4,"program":42,"isDrum":false},{"pitch":36,"velocity":128,"startTime":44.076879,"endTime":44.230725,"instrument":4,"program":42,"isDrum":false},{"pitch":28,"velocity":128,"startTime":44.307648,"endTime":44.769186,"instrument":4,"program":42,"isDrum":false},{"pitch":28,"velocity":128,"startTime":44.769186,"endTime":45.230723999999995,"instrument":4,"program":42,"isDrum":false},{"pitch":32,"velocity":128,"startTime":45.230723999999995,"endTime":45.69226199999999,"instrument":4,"program":42,"isDrum":false},{"pitch":32,"velocity":128,"startTime":45.69226199999999,"endTime":46.15379999999999,"instrument":4,"program":42,"isDrum":false},{"pitch":37,"velocity":128,"startTime":46.15379999999999,"endTime":46.61533799999999,"instrument":4,"program":42,"isDrum":false},{"pitch":37,"velocity":128,"startTime":46.61533799999999,"endTime":47.076875999999984,"instrument":4,"program":42,"isDrum":false},{"pitch":33,"velocity":128,"startTime":47.076875999999984,"endTime":47.53841399999998,"instrument":4,"program":42,"isDrum":false},{"pitch":33,"velocity":128,"startTime":47.53841399999998,"endTime":47.99995199999998,"instrument":4,"program":42,"isDrum":false},{"pitch":36,"velocity":128,"startTime":47.99995199999998,"endTime":48.23072099999998,"instrument":4,"program":42,"isDrum":false},{"pitch":36,"velocity":128,"startTime":48.23072099999998,"endTime":48.46148999999998,"instrument":4,"program":42,"isDrum":false},{"pitch":36,"velocity":128,"startTime":48.46148999999998,"endTime":48.692258999999986,"instrument":4,"program":42,"isDrum":false},{"pitch":36,"velocity":128,"startTime":48.692258999999986,"endTime":48.76918199999999,"instrument":4,"program":42,"isDrum":false},{"pitch":36,"velocity":128,"startTime":48.80764349999998,"endTime":48.884566499999984,"instrument":4,"program":42,"isDrum":false},{"pitch":36,"velocity":128,"startTime":48.92302799999998,"endTime":49.15379699999998,"instrument":4,"program":42,"isDrum":false},{"pitch":38,"velocity":128,"startTime":49.15379699999998,"endTime":49.384565999999985,"instrument":4,"program":42,"isDrum":false},{"pitch":38,"velocity":128,"startTime":49.384565999999985,"endTime":49.69225799999999,"instrument":4,"program":42,"isDrum":false},{"pitch":36,"velocity":128,"startTime":49.61533499999999,"endTime":49.76918099999999,"instrument":4,"program":42,"isDrum":false},{"pitch":35,"velocity":128,"startTime":49.84610399999999,"endTime":50.07687299999999,"instrument":4,"program":42,"isDrum":false},{"pitch":35,"velocity":128,"startTime":50.07687299999999,"endTime":50.307641999999994,"instrument":4,"program":42,"isDrum":false},{"pitch":35,"velocity":128,"startTime":50.307641999999994,"endTime":50.538410999999996,"instrument":4,"program":42,"isDrum":false},{"pitch":35,"velocity":128,"startTime":50.538410999999996,"endTime":50.615334,"instrument":4,"program":42,"isDrum":false},{"pitch":35,"velocity":128,"startTime":50.653795499999994,"endTime":50.730718499999995,"instrument":4,"program":42,"isDrum":false},{"pitch":35,"velocity":128,"startTime":50.76917999999999,"endTime":50.999948999999994,"instrument":4,"program":42,"isDrum":false},{"pitch":38,"velocity":128,"startTime":50.999948999999994,"endTime":51.230717999999996,"instrument":4,"program":42,"isDrum":false},{"pitch":38,"velocity":128,"startTime":51.230717999999996,"endTime":51.53841,"instrument":4,"program":42,"isDrum":false},{"pitch":36,"velocity":128,"startTime":51.461487,"endTime":51.615333,"instrument":4,"program":42,"isDrum":false},{"pitch":28,"velocity":128,"startTime":51.692256,"endTime":51.999948,"instrument":4,"program":42,"isDrum":false},{"pitch":28,"velocity":128,"startTime":52.384563,"endTime":52.692255,"instrument":4,"program":42,"isDrum":false},{"pitch":32,"velocity":128,"startTime":52.615332,"endTime":52.923024000000005,"instrument":4,"program":42,"isDrum":false},{"pitch":32,"velocity":128,"startTime":53.307639,"endTime":53.461485,"instrument":4,"program":42,"isDrum":false},{"pitch":37,"velocity":128,"startTime":53.538408000000004,"endTime":53.84610000000001,"instrument":4,"program":42,"isDrum":false},{"pitch":37,"velocity":128,"startTime":54.230715000000004,"endTime":54.53840700000001,"instrument":4,"program":42,"isDrum":false},{"pitch":33,"velocity":128,"startTime":54.461484000000006,"endTime":54.76917600000001,"instrument":4,"program":42,"isDrum":false},{"pitch":33,"velocity":128,"startTime":55.153791000000005,"endTime":55.30763700000001,"instrument":4,"program":42,"isDrum":false},{"pitch":36,"velocity":128,"startTime":55.38456000000001,"endTime":55.53840600000001,"instrument":4,"program":42,"isDrum":false},{"pitch":36,"velocity":128,"startTime":55.61532900000001,"endTime":55.76917500000001,"instrument":4,"program":42,"isDrum":false},{"pitch":36,"velocity":128,"startTime":55.84609800000001,"endTime":55.99994400000001,"instrument":4,"program":42,"isDrum":false},{"pitch":36,"velocity":128,"startTime":56.076867000000014,"endTime":56.153790000000015,"instrument":4,"program":42,"isDrum":false},{"pitch":36,"velocity":128,"startTime":56.19225150000001,"endTime":56.26917450000001,"instrument":4,"program":42,"isDrum":false},{"pitch":36,"velocity":128,"startTime":56.30763600000001,"endTime":56.46148200000001,"instrument":4,"program":42,"isDrum":false},{"pitch":38,"velocity":128,"startTime":56.53840500000001,"endTime":56.69225100000001,"instrument":4,"program":42,"isDrum":false},{"pitch":38,"velocity":128,"startTime":56.769174000000014,"endTime":56.923020000000015,"instrument":4,"program":42,"isDrum":false},{"pitch":35,"velocity":128,"startTime":57.23071200000002,"endTime":57.38455800000002,"instrument":4,"program":42,"isDrum":false},{"pitch":35,"velocity":128,"startTime":57.46148100000002,"endTime":57.61532700000002,"instrument":4,"program":42,"isDrum":false},{"pitch":35,"velocity":128,"startTime":57.69225000000002,"endTime":57.846096000000024,"instrument":4,"program":42,"isDrum":false},{"pitch":35,"velocity":128,"startTime":57.923019000000025,"endTime":57.999942000000026,"instrument":4,"program":42,"isDrum":false},{"pitch":35,"velocity":128,"startTime":58.03840350000002,"endTime":58.11532650000002,"instrument":4,"program":42,"isDrum":false},{"pitch":35,"velocity":128,"startTime":58.15378800000002,"endTime":58.30763400000002,"instrument":4,"program":42,"isDrum":false},{"pitch":38,"velocity":128,"startTime":58.38455700000002,"endTime":58.538403000000024,"instrument":4,"program":42,"isDrum":false},{"pitch":38,"velocity":128,"startTime":58.615326000000024,"endTime":58.769172000000026,"instrument":4,"program":42,"isDrum":false},{"pitch":28,"velocity":128,"startTime":59.07686400000003,"endTime":59.38455600000003,"instrument":4,"program":42,"isDrum":false},{"pitch":28,"velocity":128,"startTime":59.76917100000003,"endTime":60.07686300000003,"instrument":4,"program":42,"isDrum":false},{"pitch":32,"velocity":128,"startTime":59.99994000000003,"endTime":60.307632000000034,"instrument":4,"program":42,"isDrum":false},{"pitch":32,"velocity":128,"startTime":60.69224700000003,"endTime":60.84609300000003,"instrument":4,"program":42,"isDrum":false},{"pitch":37,"velocity":128,"startTime":60.92301600000003,"endTime":61.230708000000035,"instrument":4,"program":42,"isDrum":false},{"pitch":37,"velocity":128,"startTime":61.61532300000003,"endTime":61.923015000000035,"instrument":4,"program":42,"isDrum":false},{"pitch":33,"velocity":128,"startTime":61.846092000000034,"endTime":62.15378400000004,"instrument":4,"program":42,"isDrum":false},{"pitch":33,"velocity":128,"startTime":62.538399000000034,"endTime":62.692245000000035,"instrument":4,"program":42,"isDrum":false},{"pitch":36,"velocity":128,"startTime":62.769168000000036,"endTime":62.92301400000004,"instrument":4,"program":42,"isDrum":false},{"pitch":36,"velocity":128,"startTime":62.99993700000004,"endTime":63.15378300000004,"instrument":4,"program":42,"isDrum":false},{"pitch":36,"velocity":128,"startTime":63.23070600000004,"endTime":63.38455200000004,"instrument":4,"program":42,"isDrum":false},{"pitch":36,"velocity":128,"startTime":63.46147500000004,"endTime":63.53839800000004,"instrument":4,"program":42,"isDrum":false},{"pitch":36,"velocity":128,"startTime":63.57685950000005,"endTime":63.65378250000004,"instrument":4,"program":42,"isDrum":false},{"pitch":36,"velocity":128,"startTime":63.69224400000004,"endTime":63.84609000000004,"instrument":4,"program":42,"isDrum":false},{"pitch":38,"velocity":128,"startTime":63.92301300000003,"endTime":64.07685900000003,"instrument":4,"program":42,"isDrum":false},{"pitch":38,"velocity":128,"startTime":64.15378200000002,"endTime":64.30762800000002,"instrument":4,"program":42,"isDrum":false},{"pitch":35,"velocity":128,"startTime":64.61532000000003,"endTime":64.76916600000003,"instrument":4,"program":42,"isDrum":false},{"pitch":35,"velocity":128,"startTime":64.84608900000002,"endTime":64.99993500000002,"instrument":4,"program":42,"isDrum":false},{"pitch":35,"velocity":128,"startTime":65.07685800000002,"endTime":65.23070400000002,"instrument":4,"program":42,"isDrum":false},{"pitch":35,"velocity":128,"startTime":65.30762700000001,"endTime":65.38455,"instrument":4,"program":42,"isDrum":false},{"pitch":35,"velocity":128,"startTime":65.4230115,"endTime":65.4999345,"instrument":4,"program":42,"isDrum":false},{"pitch":35,"velocity":128,"startTime":65.53839599999999,"endTime":65.692242,"instrument":4,"program":42,"isDrum":false},{"pitch":38,"velocity":128,"startTime":65.76916499999999,"endTime":65.92301099999999,"instrument":4,"program":42,"isDrum":false},{"pitch":38,"velocity":128,"startTime":65.99993399999998,"endTime":66.15377999999998,"instrument":4,"program":42,"isDrum":false},{"pitch":28,"velocity":128,"startTime":66.46147199999999,"endTime":66.76916399999999,"instrument":4,"program":42,"isDrum":false},{"pitch":28,"velocity":128,"startTime":67.15377899999999,"endTime":67.46147099999997,"instrument":4,"program":42,"isDrum":false},{"pitch":32,"velocity":128,"startTime":67.38454799999998,"endTime":67.69223999999997,"instrument":4,"program":42,"isDrum":false},{"pitch":32,"velocity":128,"startTime":68.07685499999997,"endTime":68.23070099999997,"instrument":4,"program":42,"isDrum":false},{"pitch":37,"velocity":128,"startTime":68.30762399999996,"endTime":68.61531599999996,"instrument":4,"program":42,"isDrum":false},{"pitch":37,"velocity":128,"startTime":68.99993099999996,"endTime":69.30762299999995,"instrument":4,"program":42,"isDrum":false},{"pitch":33,"velocity":128,"startTime":69.23069999999996,"endTime":69.53839199999994,"instrument":4,"program":42,"isDrum":false},{"pitch":33,"velocity":128,"startTime":69.92300699999994,"endTime":70.07685299999994,"instrument":4,"program":42,"isDrum":false},{"pitch":36,"velocity":128,"startTime":70.15377599999994,"endTime":70.30762199999994,"instrument":4,"program":42,"isDrum":false},{"pitch":36,"velocity":128,"startTime":70.38454499999993,"endTime":70.53839099999993,"instrument":4,"program":42,"isDrum":false},{"pitch":36,"velocity":128,"startTime":70.61531399999993,"endTime":70.76915999999993,"instrument":4,"program":42,"isDrum":false},{"pitch":36,"velocity":128,"startTime":70.84608299999992,"endTime":70.92300599999992,"instrument":4,"program":42,"isDrum":false},{"pitch":36,"velocity":128,"startTime":70.96146749999991,"endTime":71.0383904999999,"instrument":4,"program":42,"isDrum":false},{"pitch":36,"velocity":128,"startTime":71.0768519999999,"endTime":71.2306979999999,"instrument":4,"program":42,"isDrum":false},{"pitch":38,"velocity":128,"startTime":71.3076209999999,"endTime":71.4614669999999,"instrument":4,"program":42,"isDrum":false},{"pitch":38,"velocity":128,"startTime":71.5383899999999,"endTime":71.6922359999999,"instrument":4,"program":42,"isDrum":false},{"pitch":35,"velocity":128,"startTime":71.9999279999999,"endTime":72.1537739999999,"instrument":4,"program":42,"isDrum":false},{"pitch":35,"velocity":128,"startTime":72.23069699999989,"endTime":72.3845429999999,"instrument":4,"program":42,"isDrum":false},{"pitch":35,"velocity":128,"startTime":72.46146599999989,"endTime":72.61531199999989,"instrument":4,"program":42,"isDrum":false},{"pitch":35,"velocity":128,"startTime":72.69223499999988,"endTime":72.76915799999988,"instrument":4,"program":42,"isDrum":false},{"pitch":35,"velocity":128,"startTime":72.80761949999987,"endTime":72.88454249999987,"instrument":4,"program":42,"isDrum":false},{"pitch":35,"velocity":128,"startTime":72.92300399999986,"endTime":73.07684999999987,"instrument":4,"program":42,"isDrum":false},{"pitch":38,"velocity":128,"startTime":73.15377299999986,"endTime":73.30761899999986,"instrument":4,"program":42,"isDrum":false},{"pitch":38,"velocity":128,"startTime":73.38454199999985,"endTime":73.53838799999986,"instrument":4,"program":42,"isDrum":false},{"pitch":28,"velocity":128,"startTime":73.84607999999986,"endTime":74.15377199999986,"instrument":4,"program":42,"isDrum":false},{"pitch":28,"velocity":128,"startTime":74.53838699999986,"endTime":74.84607899999985,"instrument":4,"program":42,"isDrum":false},{"pitch":32,"velocity":128,"startTime":74.76915599999985,"endTime":75.07684799999984,"instrument":4,"program":42,"isDrum":false},{"pitch":32,"velocity":128,"startTime":75.46146299999984,"endTime":75.61530899999984,"instrument":4,"program":42,"isDrum":false},{"pitch":37,"velocity":128,"startTime":75.69223199999983,"endTime":75.99992399999984,"instrument":4,"program":42,"isDrum":false},{"pitch":37,"velocity":128,"startTime":76.38453899999983,"endTime":76.69223099999982,"instrument":4,"program":42,"isDrum":false},{"pitch":33,"velocity":128,"startTime":76.61530799999983,"endTime":76.92299999999982,"instrument":4,"program":42,"isDrum":false},{"pitch":33,"velocity":128,"startTime":77.30761499999981,"endTime":77.46146099999982,"instrument":4,"program":42,"isDrum":false},{"pitch":36,"velocity":128,"startTime":77.53838399999981,"endTime":77.69222999999981,"instrument":4,"program":42,"isDrum":false},{"pitch":36,"velocity":128,"startTime":77.7691529999998,"endTime":77.9229989999998,"instrument":4,"program":42,"isDrum":false},{"pitch":36,"velocity":128,"startTime":77.9999219999998,"endTime":78.1537679999998,"instrument":4,"program":42,"isDrum":false},{"pitch":36,"velocity":128,"startTime":78.2306909999998,"endTime":78.30761399999979,"instrument":4,"program":42,"isDrum":false},{"pitch":36,"velocity":128,"startTime":78.34607549999978,"endTime":78.42299849999978,"instrument":4,"program":42,"isDrum":false},{"pitch":36,"velocity":128,"startTime":78.46145999999978,"endTime":78.61530599999978,"instrument":4,"program":42,"isDrum":false},{"pitch":38,"velocity":128,"startTime":78.69222899999977,"endTime":78.84607499999977,"instrument":4,"program":42,"isDrum":false},{"pitch":38,"velocity":128,"startTime":78.92299799999977,"endTime":79.07684399999977,"instrument":4,"program":42,"isDrum":false},{"pitch":35,"velocity":128,"startTime":79.38453599999977,"endTime":79.53838199999977,"instrument":4,"program":42,"isDrum":false},{"pitch":35,"velocity":128,"startTime":79.61530499999976,"endTime":79.76915099999977,"instrument":4,"program":42,"isDrum":false},{"pitch":35,"velocity":128,"startTime":79.84607399999976,"endTime":79.99991999999976,"instrument":4,"program":42,"isDrum":false},{"pitch":35,"velocity":128,"startTime":80.07684299999976,"endTime":80.15376599999975,"instrument":4,"program":42,"isDrum":false},{"pitch":35,"velocity":128,"startTime":80.19222749999975,"endTime":80.26915049999974,"instrument":4,"program":42,"isDrum":false},{"pitch":35,"velocity":128,"startTime":80.30761199999974,"endTime":80.46145799999974,"instrument":4,"program":42,"isDrum":false},{"pitch":38,"velocity":128,"startTime":80.53838099999973,"endTime":80.69222699999973,"instrument":4,"program":42,"isDrum":false},{"pitch":38,"velocity":128,"startTime":80.76914999999973,"endTime":80.92299599999973,"instrument":4,"program":42,"isDrum":false},{"pitch":28,"velocity":128,"startTime":81.23068799999973,"endTime":81.53837999999973,"instrument":4,"program":42,"isDrum":false},{"pitch":28,"velocity":128,"startTime":81.92299499999973,"endTime":82.23068699999972,"instrument":4,"program":42,"isDrum":false},{"pitch":32,"velocity":128,"startTime":82.15376399999973,"endTime":82.46145599999971,"instrument":4,"program":42,"isDrum":false},{"pitch":32,"velocity":128,"startTime":82.84607099999971,"endTime":82.99991699999971,"instrument":4,"program":42,"isDrum":false},{"pitch":37,"velocity":128,"startTime":83.0768399999997,"endTime":83.38453199999971,"instrument":4,"program":42,"isDrum":false},{"pitch":37,"velocity":128,"startTime":83.7691469999997,"endTime":84.0768389999997,"instrument":4,"program":42,"isDrum":false},{"pitch":33,"velocity":128,"startTime":83.9999159999997,"endTime":84.30760799999969,"instrument":4,"program":42,"isDrum":false},{"pitch":33,"velocity":128,"startTime":84.69222299999969,"endTime":84.84606899999969,"instrument":4,"program":42,"isDrum":false},{"pitch":36,"velocity":128,"startTime":84.92299199999968,"endTime":85.07683799999968,"instrument":4,"program":42,"isDrum":false},{"pitch":36,"velocity":128,"startTime":85.15376099999968,"endTime":85.30760699999968,"instrument":4,"program":42,"isDrum":false},{"pitch":36,"velocity":128,"startTime":85.38452999999967,"endTime":85.53837599999967,"instrument":4,"program":42,"isDrum":false},{"pitch":36,"velocity":128,"startTime":85.61529899999967,"endTime":85.69222199999966,"instrument":4,"program":42,"isDrum":false},{"pitch":36,"velocity":128,"startTime":85.73068349999966,"endTime":85.80760649999965,"instrument":4,"program":42,"isDrum":false},{"pitch":36,"velocity":128,"startTime":85.84606799999965,"endTime":85.99991399999965,"instrument":4,"program":42,"isDrum":false},{"pitch":38,"velocity":128,"startTime":86.07683699999964,"endTime":86.23068299999964,"instrument":4,"program":42,"isDrum":false},{"pitch":38,"velocity":128,"startTime":86.30760599999964,"endTime":86.46145199999964,"instrument":4,"program":42,"isDrum":false},{"pitch":35,"velocity":128,"startTime":86.76914399999964,"endTime":86.92298999999964,"instrument":4,"program":42,"isDrum":false},{"pitch":35,"velocity":128,"startTime":86.76914399999964,"endTime":86.99991299999964,"instrument":4,"program":42,"isDrum":false},{"pitch":35,"velocity":128,"startTime":86.99991299999964,"endTime":87.15375899999964,"instrument":4,"program":42,"isDrum":false},{"pitch":35,"velocity":128,"startTime":86.99991299999964,"endTime":87.23068199999963,"instrument":4,"program":42,"isDrum":false},{"pitch":35,"velocity":128,"startTime":87.23068199999963,"endTime":87.38452799999963,"instrument":4,"program":42,"isDrum":false},{"pitch":35,"velocity":128,"startTime":87.23068199999963,"endTime":87.46145099999963,"instrument":4,"program":42,"isDrum":false},{"pitch":35,"velocity":128,"startTime":87.46145099999963,"endTime":87.53837399999962,"instrument":4,"program":42,"isDrum":false},{"pitch":35,"velocity":128,"startTime":87.46145099999963,"endTime":87.57683549999962,"instrument":4,"program":42,"isDrum":false},{"pitch":35,"velocity":128,"startTime":87.57683549999962,"endTime":87.65375849999961,"instrument":4,"program":42,"isDrum":false},{"pitch":35,"velocity":128,"startTime":87.57683549999962,"endTime":87.69221999999961,"instrument":4,"program":42,"isDrum":false},{"pitch":35,"velocity":128,"startTime":87.69221999999961,"endTime":87.84606599999961,"instrument":4,"program":42,"isDrum":false},{"pitch":35,"velocity":128,"startTime":87.69221999999961,"endTime":87.9229889999996,"instrument":4,"program":42,"isDrum":false},{"pitch":38,"velocity":128,"startTime":87.9229889999996,"endTime":88.0768349999996,"instrument":4,"program":42,"isDrum":false},{"pitch":38,"velocity":128,"startTime":87.9229889999996,"endTime":88.1537579999996,"instrument":4,"program":42,"isDrum":false},{"pitch":38,"velocity":128,"startTime":88.1537579999996,"endTime":88.3076039999996,"instrument":4,"program":42,"isDrum":false},{"pitch":38,"velocity":128,"startTime":88.1537579999996,"endTime":88.6152959999996,"instrument":4,"program":42,"isDrum":false},{"pitch":28,"velocity":128,"startTime":88.6152959999996,"endTime":89.07683399999961,"instrument":4,"program":42,"isDrum":false},{"pitch":28,"velocity":128,"startTime":89.07683399999961,"endTime":89.53837199999961,"instrument":4,"program":42,"isDrum":false},{"pitch":32,"velocity":128,"startTime":89.53837199999961,"endTime":89.99990999999962,"instrument":4,"program":42,"isDrum":false},{"pitch":32,"velocity":128,"startTime":89.99990999999962,"endTime":90.46144799999962,"instrument":4,"program":42,"isDrum":false},{"pitch":37,"velocity":128,"startTime":90.46144799999962,"endTime":90.92298599999963,"instrument":4,"program":42,"isDrum":false},{"pitch":37,"velocity":128,"startTime":90.92298599999963,"endTime":91.38452399999963,"instrument":4,"program":42,"isDrum":false},{"pitch":33,"velocity":128,"startTime":91.38452399999963,"endTime":91.84606199999963,"instrument":4,"program":42,"isDrum":false},{"pitch":33,"velocity":128,"startTime":91.84606199999963,"endTime":92.30759999999964,"instrument":4,"program":42,"isDrum":false},{"pitch":36,"velocity":128,"startTime":92.30759999999964,"endTime":92.53836899999963,"instrument":4,"program":42,"isDrum":false},{"pitch":36,"velocity":128,"startTime":92.53836899999963,"endTime":92.76913799999963,"instrument":4,"program":42,"isDrum":false},{"pitch":36,"velocity":128,"startTime":92.76913799999963,"endTime":92.99990699999962,"instrument":4,"program":42,"isDrum":false},{"pitch":36,"velocity":128,"startTime":92.99990699999962,"endTime":93.07682999999962,"instrument":4,"program":42,"isDrum":false},{"pitch":36,"velocity":128,"startTime":93.11529149999961,"endTime":93.19221449999961,"instrument":4,"program":42,"isDrum":false},{"pitch":36,"velocity":128,"startTime":93.2306759999996,"endTime":93.4614449999996,"instrument":4,"program":42,"isDrum":false},{"pitch":38,"velocity":128,"startTime":93.4614449999996,"endTime":93.6922139999996,"instrument":4,"program":42,"isDrum":false},{"pitch":38,"velocity":128,"startTime":93.6922139999996,"endTime":93.99990599999958,"instrument":4,"program":42,"isDrum":false},{"pitch":36,"velocity":128,"startTime":93.92298299999959,"endTime":94.07682899999958,"instrument":4,"program":42,"isDrum":false},{"pitch":35,"velocity":128,"startTime":94.15375199999957,"endTime":94.38452099999957,"instrument":4,"program":42,"isDrum":false},{"pitch":35,"velocity":128,"startTime":94.38452099999957,"endTime":94.61528999999956,"instrument":4,"program":42,"isDrum":false},{"pitch":35,"velocity":128,"startTime":94.61528999999956,"endTime":94.84605899999956,"instrument":4,"program":42,"isDrum":false},{"pitch":35,"velocity":128,"startTime":94.84605899999956,"endTime":94.92298199999955,"instrument":4,"program":42,"isDrum":false},{"pitch":35,"velocity":128,"startTime":94.96144349999955,"endTime":95.03836649999954,"instrument":4,"program":42,"isDrum":false},{"pitch":35,"velocity":128,"startTime":95.07682799999954,"endTime":95.30759699999953,"instrument":4,"program":42,"isDrum":false},{"pitch":38,"velocity":128,"startTime":95.30759699999953,"endTime":95.53836599999953,"instrument":4,"program":42,"isDrum":false},{"pitch":38,"velocity":128,"startTime":95.53836599999953,"endTime":95.84605799999952,"instrument":4,"program":42,"isDrum":false},{"pitch":36,"velocity":128,"startTime":95.76913499999952,"endTime":95.92298099999951,"instrument":4,"program":42,"isDrum":false},{"pitch":28,"velocity":128,"startTime":95.9999039999995,"endTime":96.46144199999951,"instrument":4,"program":42,"isDrum":false},{"pitch":28,"velocity":128,"startTime":96.46144199999951,"endTime":96.92297999999951,"instrument":4,"program":42,"isDrum":false},{"pitch":32,"velocity":128,"startTime":96.92297999999951,"endTime":97.38451799999952,"instrument":4,"program":42,"isDrum":false},{"pitch":32,"velocity":128,"startTime":97.38451799999952,"endTime":97.84605599999952,"instrument":4,"program":42,"isDrum":false},{"pitch":37,"velocity":128,"startTime":97.84605599999952,"endTime":98.30759399999953,"instrument":4,"program":42,"isDrum":false},{"pitch":37,"velocity":128,"startTime":98.30759399999953,"endTime":98.76913199999953,"instrument":4,"program":42,"isDrum":false},{"pitch":33,"velocity":128,"startTime":98.76913199999953,"endTime":99.23066999999953,"instrument":4,"program":42,"isDrum":false},{"pitch":33,"velocity":128,"startTime":99.23066999999953,"endTime":99.69220799999954,"instrument":4,"program":42,"isDrum":false},{"pitch":36,"velocity":128,"startTime":99.69220799999954,"endTime":99.92297699999953,"instrument":4,"program":42,"isDrum":false},{"pitch":36,"velocity":128,"startTime":99.92297699999953,"endTime":100.15374599999953,"instrument":4,"program":42,"isDrum":false},{"pitch":36,"velocity":128,"startTime":100.15374599999953,"endTime":100.38451499999952,"instrument":4,"program":42,"isDrum":false},{"pitch":36,"velocity":128,"startTime":100.38451499999952,"endTime":100.46143799999952,"instrument":4,"program":42,"isDrum":false},{"pitch":36,"velocity":128,"startTime":100.49989949999951,"endTime":100.57682249999951,"instrument":4,"program":42,"isDrum":false},{"pitch":36,"velocity":128,"startTime":100.6152839999995,"endTime":100.8460529999995,"instrument":4,"program":42,"isDrum":false},{"pitch":38,"velocity":128,"startTime":100.8460529999995,"endTime":101.0768219999995,"instrument":4,"program":42,"isDrum":false},{"pitch":38,"velocity":128,"startTime":101.0768219999995,"endTime":101.38451399999948,"instrument":4,"program":42,"isDrum":false},{"pitch":36,"velocity":128,"startTime":101.30759099999949,"endTime":101.46143699999948,"instrument":4,"program":42,"isDrum":false},{"pitch":35,"velocity":128,"startTime":101.53835999999947,"endTime":101.76912899999947,"instrument":4,"program":42,"isDrum":false},{"pitch":35,"velocity":128,"startTime":101.76912899999947,"endTime":101.99989799999946,"instrument":4,"program":42,"isDrum":false},{"pitch":35,"velocity":128,"startTime":101.99989799999946,"endTime":102.23066699999946,"instrument":4,"program":42,"isDrum":false},{"pitch":35,"velocity":128,"startTime":102.23066699999946,"endTime":102.30758999999945,"instrument":4,"program":42,"isDrum":false},{"pitch":35,"velocity":128,"startTime":102.34605149999945,"endTime":102.42297449999944,"instrument":4,"program":42,"isDrum":false},{"pitch":35,"velocity":128,"startTime":102.46143599999944,"endTime":102.69220499999943,"instrument":4,"program":42,"isDrum":false},{"pitch":38,"velocity":128,"startTime":102.69220499999943,"endTime":102.92297399999943,"instrument":4,"program":42,"isDrum":false},{"pitch":38,"velocity":128,"startTime":102.92297399999943,"endTime":103.23066599999942,"instrument":4,"program":42,"isDrum":false},{"pitch":36,"velocity":128,"startTime":103.15374299999942,"endTime":103.30758899999941,"instrument":4,"program":42,"isDrum":false},{"pitch":33,"velocity":128,"startTime":103.3845119999994,"endTime":103.5383579999994,"instrument":4,"program":42,"isDrum":false},{"pitch":33,"velocity":128,"startTime":103.84604999999941,"endTime":103.99989599999941,"instrument":4,"program":42,"isDrum":false},{"pitch":38,"velocity":128,"startTime":104.0768189999994,"endTime":104.2306649999994,"instrument":4,"program":42,"isDrum":false},{"pitch":36,"velocity":128,"startTime":104.3075879999994,"endTime":104.6152799999994,"instrument":4,"program":42,"isDrum":false},{"pitch":36,"velocity":128,"startTime":104.7691259999994,"endTime":105.0768179999994,"instrument":4,"program":42,"isDrum":false},{"pitch":33,"velocity":128,"startTime":105.23066399999941,"endTime":105.4614329999994,"instrument":4,"program":42,"isDrum":false},{"pitch":33,"velocity":128,"startTime":105.6922019999994,"endTime":105.9229709999994,"instrument":4,"program":42,"isDrum":false},{"pitch":31,"velocity":128,"startTime":106.15373999999939,"endTime":106.38450899999938,"instrument":4,"program":42,"isDrum":false},{"pitch":33,"velocity":128,"startTime":106.38450899999938,"endTime":106.61527799999938,"instrument":4,"program":42,"isDrum":false},{"pitch":31,"velocity":128,"startTime":106.84604699999937,"endTime":107.07681599999937,"instrument":4,"program":42,"isDrum":false},{"pitch":33,"velocity":128,"startTime":107.07681599999937,"endTime":107.23066199999937,"instrument":4,"program":42,"isDrum":false},{"pitch":33,"velocity":128,"startTime":107.53835399999937,"endTime":107.69219999999937,"instrument":4,"program":42,"isDrum":false},{"pitch":38,"velocity":128,"startTime":107.76912299999937,"endTime":107.92296899999937,"instrument":4,"program":42,"isDrum":false},{"pitch":36,"velocity":128,"startTime":107.99989199999936,"endTime":108.30758399999937,"instrument":4,"program":42,"isDrum":false},{"pitch":36,"velocity":128,"startTime":108.46142999999937,"endTime":108.76912199999937,"instrument":4,"program":42,"isDrum":false},{"pitch":33,"velocity":128,"startTime":108.92296799999937,"endTime":109.15373699999937,"instrument":4,"program":42,"isDrum":false},{"pitch":33,"velocity":128,"startTime":109.38450599999936,"endTime":109.61527499999936,"instrument":4,"program":42,"isDrum":false},{"pitch":31,"velocity":128,"startTime":109.84604399999935,"endTime":110.07681299999935,"instrument":4,"program":42,"isDrum":false},{"pitch":33,"velocity":128,"startTime":110.07681299999935,"endTime":110.30758199999934,"instrument":4,"program":42,"isDrum":false},{"pitch":31,"velocity":128,"startTime":110.53835099999934,"endTime":110.76911999999933,"instrument":4,"program":42,"isDrum":false},{"pitch":33,"velocity":128,"startTime":110.76911999999933,"endTime":110.92296599999933,"instrument":4,"program":42,"isDrum":false},{"pitch":33,"velocity":128,"startTime":111.23065799999934,"endTime":111.38450399999934,"instrument":4,"program":42,"isDrum":false},{"pitch":38,"velocity":128,"startTime":111.46142699999933,"endTime":111.61527299999933,"instrument":4,"program":42,"isDrum":false},{"pitch":36,"velocity":128,"startTime":111.69219599999933,"endTime":111.99988799999933,"instrument":4,"program":42,"isDrum":false},{"pitch":36,"velocity":128,"startTime":112.15373399999933,"endTime":112.46142599999934,"instrument":4,"program":42,"isDrum":false},{"pitch":33,"velocity":128,"startTime":112.61527199999934,"endTime":112.84604099999933,"instrument":4,"program":42,"isDrum":false},{"pitch":33,"velocity":128,"startTime":113.07680999999933,"endTime":113.30757899999932,"instrument":4,"program":42,"isDrum":false},{"pitch":31,"velocity":128,"startTime":113.53834799999932,"endTime":113.76911699999931,"instrument":4,"program":42,"isDrum":false},{"pitch":33,"velocity":128,"startTime":113.76911699999931,"endTime":113.99988599999931,"instrument":4,"program":42,"isDrum":false},{"pitch":31,"velocity":128,"startTime":114.2306549999993,"endTime":114.4614239999993,"instrument":4,"program":42,"isDrum":false},{"pitch":33,"velocity":128,"startTime":114.4614239999993,"endTime":114.6152699999993,"instrument":4,"program":42,"isDrum":false},{"pitch":33,"velocity":128,"startTime":114.9229619999993,"endTime":115.0768079999993,"instrument":4,"program":42,"isDrum":false},{"pitch":38,"velocity":128,"startTime":115.1537309999993,"endTime":115.3075769999993,"instrument":4,"program":42,"isDrum":false},{"pitch":36,"velocity":128,"startTime":115.38449999999929,"endTime":115.6921919999993,"instrument":4,"program":42,"isDrum":false},{"pitch":36,"velocity":128,"startTime":115.8460379999993,"endTime":116.1537299999993,"instrument":4,"program":42,"isDrum":false},{"pitch":33,"velocity":128,"startTime":116.3075759999993,"endTime":116.5383449999993,"instrument":4,"program":42,"isDrum":false},{"pitch":33,"velocity":128,"startTime":116.76911399999929,"endTime":116.99988299999929,"instrument":4,"program":42,"isDrum":false},{"pitch":31,"velocity":128,"startTime":117.23065199999928,"endTime":117.46142099999928,"instrument":4,"program":42,"isDrum":false},{"pitch":33,"velocity":128,"startTime":117.46142099999928,"endTime":117.69218999999927,"instrument":4,"program":42,"isDrum":false},{"pitch":31,"velocity":128,"startTime":117.92295899999927,"endTime":118.15372799999926,"instrument":4,"program":42,"isDrum":false},{"pitch":38,"velocity":128,"startTime":118.15372799999926,"endTime":118.38449699999926,"instrument":4,"program":42,"isDrum":false},{"pitch":38,"velocity":128,"startTime":118.38449699999926,"endTime":118.61526599999925,"instrument":4,"program":42,"isDrum":false},{"pitch":38,"velocity":128,"startTime":118.61526599999925,"endTime":118.84603499999925,"instrument":4,"program":42,"isDrum":false},{"pitch":38,"velocity":128,"startTime":118.84603499999925,"endTime":119.07680399999924,"instrument":4,"program":42,"isDrum":false},{"pitch":38,"velocity":128,"startTime":119.07680399999924,"endTime":119.30757299999924,"instrument":4,"program":42,"isDrum":false},{"pitch":38,"velocity":128,"startTime":119.30757299999924,"endTime":119.53834199999923,"instrument":4,"program":42,"isDrum":false},{"pitch":38,"velocity":128,"startTime":119.53834199999923,"endTime":119.76911099999923,"instrument":4,"program":42,"isDrum":false},{"pitch":38,"velocity":128,"startTime":119.76911099999923,"endTime":119.99987999999922,"instrument":4,"program":42,"isDrum":false},{"pitch":35,"velocity":128,"startTime":119.99987999999922,"endTime":120.23064899999922,"instrument":4,"program":42,"isDrum":false},{"pitch":35,"velocity":128,"startTime":120.23064899999922,"endTime":120.46141799999921,"instrument":4,"program":42,"isDrum":false},{"pitch":35,"velocity":128,"startTime":120.46141799999921,"endTime":120.69218699999921,"instrument":4,"program":42,"isDrum":false},{"pitch":35,"velocity":128,"startTime":120.69218699999921,"endTime":120.9229559999992,"instrument":4,"program":42,"isDrum":false},{"pitch":35,"velocity":128,"startTime":120.9229559999992,"endTime":121.1537249999992,"instrument":4,"program":42,"isDrum":false},{"pitch":28,"velocity":128,"startTime":121.1537249999992,"endTime":121.3844939999992,"instrument":4,"program":42,"isDrum":false},{"pitch":31,"velocity":128,"startTime":121.3844939999992,"endTime":121.8460319999992,"instrument":4,"program":42,"isDrum":false},{"pitch":28,"velocity":128,"startTime":121.8460319999992,"endTime":123.0816076874992,"instrument":4,"program":42,"isDrum":false}],"totalTime":123.65372249999892,"sourceInfo":{"encodingType":"MIDI","parser":"TONEJS_MIDI_CONVERT"}},"tempo":130,"selectedInstruments":[0,1,2,3,4]},"style":{"trimmedSequence":{"filename":"fanvoy.mid","ticksPerQuarter":120,"timeSignatures":[{"time":0,"numerator":4,"denominator":4}],"tempos":[{"time":0,"qpm":116.00008506672904}],"notes":[{"pitch":64,"velocity":123,"startTime":2.842170943040401e-14,"endTime":0.2543101583333609,"instrument":0,"program":4,"isDrum":false},{"pitch":67,"velocity":123,"startTime":2.842170943040401e-14,"endTime":0.2543101583333609,"instrument":0,"program":4,"isDrum":false},{"pitch":71,"velocity":123,"startTime":2.842170943040401e-14,"endTime":0.2543101583333609,"instrument":0,"program":4,"isDrum":false},{"pitch":59,"velocity":123,"startTime":0.7758615000000262,"endTime":2.8405151583333605,"instrument":0,"program":4,"isDrum":false},{"pitch":62,"velocity":123,"startTime":0.7758615000000262,"endTime":2.8405151583333605,"instrument":0,"program":4,"isDrum":false},{"pitch":66,"velocity":123,"startTime":0.7758615000000262,"endTime":2.8405151583333605,"instrument":0,"program":4,"isDrum":false},{"pitch":59,"velocity":123,"startTime":3.1034460000000266,"endTime":3.4870664083333622,"instrument":0,"program":4,"isDrum":false},{"pitch":64,"velocity":123,"startTime":3.1034460000000266,"endTime":3.4870664083333622,"instrument":0,"program":4,"isDrum":false},{"pitch":67,"velocity":123,"startTime":3.1034460000000266,"endTime":3.4870664083333622,"instrument":0,"program":4,"isDrum":false},{"pitch":62,"velocity":123,"startTime":3.620687000000032,"endTime":4.004307408333368,"instrument":0,"program":4,"isDrum":false},{"pitch":66,"velocity":123,"startTime":3.620687000000032,"endTime":4.004307408333368,"instrument":0,"program":4,"isDrum":false},{"pitch":59,"velocity":123,"startTime":3.620687000000032,"endTime":4.004307408333368,"instrument":0,"program":4,"isDrum":false},{"pitch":64,"velocity":123,"startTime":4.137928000000038,"endTime":4.39223815833337,"instrument":0,"program":4,"isDrum":false},{"pitch":57,"velocity":123,"startTime":4.137928000000038,"endTime":4.39223815833337,"instrument":0,"program":4,"isDrum":false},{"pitch":60,"velocity":123,"startTime":4.137928000000038,"endTime":4.39223815833337,"instrument":0,"program":4,"isDrum":false},{"pitch":57,"velocity":123,"startTime":4.396548500000037,"endTime":4.5215484083333735,"instrument":0,"program":4,"isDrum":false},{"pitch":64,"velocity":123,"startTime":4.396548500000037,"endTime":4.5215484083333735,"instrument":0,"program":4,"isDrum":false},{"pitch":60,"velocity":123,"startTime":4.396548500000037,"endTime":4.5215484083333735,"instrument":0,"program":4,"isDrum":false},{"pitch":64,"velocity":123,"startTime":4.913789500000043,"endTime":5.943961158333373,"instrument":0,"program":4,"isDrum":false},{"pitch":67,"velocity":123,"startTime":4.913789500000043,"endTime":5.943961158333373,"instrument":0,"program":4,"isDrum":false},{"pitch":71,"velocity":123,"startTime":4.913789500000043,"endTime":5.943961158333373,"instrument":0,"program":4,"isDrum":false},{"pitch":64,"velocity":123,"startTime":6.206892000000039,"endTime":6.590512408333375,"instrument":0,"program":4,"isDrum":false},{"pitch":67,"velocity":123,"startTime":6.206892000000039,"endTime":6.461202158333371,"instrument":0,"program":4,"isDrum":false},{"pitch":71,"velocity":123,"startTime":6.206892000000039,"endTime":6.461202158333371,"instrument":0,"program":4,"isDrum":false},{"pitch":66,"velocity":123,"startTime":6.594822750000041,"endTime":6.719822658333378,"instrument":0,"program":4,"isDrum":false},{"pitch":69,"velocity":123,"startTime":6.594822750000041,"endTime":6.719822658333378,"instrument":0,"program":4,"isDrum":false},{"pitch":67,"velocity":123,"startTime":7.241374000000043,"endTime":7.3663739083333795,"instrument":0,"program":4,"isDrum":false},{"pitch":74,"velocity":123,"startTime":7.241374000000043,"endTime":7.3663739083333795,"instrument":0,"program":4,"isDrum":false},{"pitch":64,"velocity":123,"startTime":7.241374000000043,"endTime":7.3663739083333795,"instrument":0,"program":4,"isDrum":false},{"pitch":71,"velocity":123,"startTime":7.241374000000043,"endTime":7.3663739083333795,"instrument":0,"program":4,"isDrum":false},{"pitch":67,"velocity":123,"startTime":7.499994500000049,"endTime":7.624994408333386,"instrument":0,"program":4,"isDrum":false},{"pitch":71,"velocity":123,"startTime":7.499994500000049,"endTime":7.624994408333386,"instrument":0,"program":4,"isDrum":false},{"pitch":74,"velocity":123,"startTime":7.499994500000049,"endTime":7.624994408333386,"instrument":0,"program":4,"isDrum":false},{"pitch":64,"velocity":123,"startTime":7.499994500000049,"endTime":7.754304658333389,"instrument":0,"program":4,"isDrum":false},{"pitch":64,"velocity":123,"startTime":7.758615000000056,"endTime":8.012925158333388,"instrument":0,"program":4,"isDrum":false},{"pitch":67,"velocity":123,"startTime":7.758615000000056,"endTime":8.012925158333388,"instrument":0,"program":4,"isDrum":false},{"pitch":71,"velocity":123,"startTime":7.758615000000056,"endTime":8.012925158333388,"instrument":0,"program":4,"isDrum":false},{"pitch":64,"velocity":123,"startTime":8.275856000000054,"endTime":8.530166158333387,"instrument":0,"program":4,"isDrum":false},{"pitch":67,"velocity":123,"startTime":8.275856000000054,"endTime":8.530166158333387,"instrument":0,"program":4,"isDrum":false},{"pitch":71,"velocity":123,"startTime":8.275856000000054,"endTime":8.530166158333387,"instrument":0,"program":4,"isDrum":false},{"pitch":59,"velocity":123,"startTime":9.051717500000052,"endTime":11.116371158333386,"instrument":0,"program":4,"isDrum":false},{"pitch":62,"velocity":123,"startTime":9.051717500000052,"endTime":11.116371158333386,"instrument":0,"program":4,"isDrum":false},{"pitch":66,"velocity":123,"startTime":9.051717500000052,"endTime":11.116371158333386,"instrument":0,"program":4,"isDrum":false},{"pitch":59,"velocity":123,"startTime":11.379302000000052,"endTime":11.762922408333388,"instrument":0,"program":4,"isDrum":false},{"pitch":64,"velocity":123,"startTime":11.379302000000052,"endTime":11.762922408333388,"instrument":0,"program":4,"isDrum":false},{"pitch":67,"velocity":123,"startTime":11.379302000000052,"endTime":11.762922408333388,"instrument":0,"program":4,"isDrum":false},{"pitch":62,"velocity":123,"startTime":11.896543000000058,"endTime":12.280163408333387,"instrument":0,"program":4,"isDrum":false},{"pitch":66,"velocity":123,"startTime":11.896543000000058,"endTime":12.280163408333387,"instrument":0,"program":4,"isDrum":false},{"pitch":59,"velocity":123,"startTime":11.896543000000058,"endTime":12.280163408333387,"instrument":0,"program":4,"isDrum":false},{"pitch":64,"velocity":123,"startTime":12.413784000000057,"endTime":12.668094158333396,"instrument":0,"program":4,"isDrum":false},{"pitch":57,"velocity":123,"startTime":12.413784000000057,"endTime":12.668094158333396,"instrument":0,"program":4,"isDrum":false},{"pitch":60,"velocity":123,"startTime":12.413784000000057,"endTime":12.668094158333396,"instrument":0,"program":4,"isDrum":false},{"pitch":57,"velocity":123,"startTime":12.672404500000063,"endTime":12.7974044083334,"instrument":0,"program":4,"isDrum":false},{"pitch":64,"velocity":123,"startTime":12.672404500000063,"endTime":12.7974044083334,"instrument":0,"program":4,"isDrum":false},{"pitch":60,"velocity":123,"startTime":12.672404500000063,"endTime":12.7974044083334,"instrument":0,"program":4,"isDrum":false},{"pitch":64,"velocity":123,"startTime":13.189645500000061,"endTime":14.219817158333392,"instrument":0,"program":4,"isDrum":false},{"pitch":67,"velocity":123,"startTime":13.189645500000061,"endTime":14.219817158333392,"instrument":0,"program":4,"isDrum":false},{"pitch":71,"velocity":123,"startTime":13.189645500000061,"endTime":14.219817158333392,"instrument":0,"program":4,"isDrum":false},{"pitch":64,"velocity":123,"startTime":14.482748000000065,"endTime":14.866368408333408,"instrument":0,"program":4,"isDrum":false},{"pitch":67,"velocity":123,"startTime":14.482748000000065,"endTime":14.737058158333404,"instrument":0,"program":4,"isDrum":false},{"pitch":71,"velocity":123,"startTime":14.482748000000065,"endTime":14.737058158333404,"instrument":0,"program":4,"isDrum":false},{"pitch":66,"velocity":123,"startTime":14.870678750000074,"endTime":14.99567865833341,"instrument":0,"program":4,"isDrum":false},{"pitch":69,"velocity":123,"startTime":14.870678750000074,"endTime":14.99567865833341,"instrument":0,"program":4,"isDrum":false},{"pitch":71,"velocity":123,"startTime":1.2079226507921703e-13,"endTime":0.2543101583334533,"instrument":2,"program":27,"isDrum":false},{"pitch":67,"velocity":123,"startTime":1.2079226507921703e-13,"endTime":0.2543101583334533,"instrument":2,"program":27,"isDrum":false},{"pitch":64,"velocity":123,"startTime":1.2079226507921703e-13,"endTime":0.2543101583334533,"instrument":2,"program":27,"isDrum":false},{"pitch":62,"velocity":123,"startTime":0.7758615000001186,"endTime":1.030171658333451,"instrument":2,"program":27,"isDrum":false},{"pitch":66,"velocity":123,"startTime":0.7758615000001186,"endTime":1.030171658333451,"instrument":2,"program":27,"isDrum":false},{"pitch":71,"velocity":123,"startTime":0.7758615000001186,"endTime":1.030171658333451,"instrument":2,"program":27,"isDrum":false},{"pitch":52,"velocity":123,"startTime":1.0344820000001178,"endTime":1.1594819083334542,"instrument":2,"program":27,"isDrum":false},{"pitch":52,"velocity":123,"startTime":1.2931025000001242,"endTime":1.4181024083334606,"instrument":2,"program":27,"isDrum":false},{"pitch":50,"velocity":123,"startTime":1.8103435000001298,"endTime":1.9353434083334662,"instrument":2,"program":27,"isDrum":false},{"pitch":52,"velocity":123,"startTime":1.939653750000133,"endTime":2.0646536583334694,"instrument":2,"program":27,"isDrum":false},{"pitch":55,"velocity":123,"startTime":2.068964000000136,"endTime":2.1939639083334725,"instrument":2,"program":27,"isDrum":false},{"pitch":52,"velocity":123,"startTime":2.1982742500001393,"endTime":2.3232741583334757,"instrument":2,"program":27,"isDrum":false},{"pitch":55,"velocity":123,"startTime":2.3275845000001425,"endTime":2.581894658333475,"instrument":2,"program":27,"isDrum":false},{"pitch":52,"velocity":123,"startTime":2.5862050000001418,"endTime":2.711204908333478,"instrument":2,"program":27,"isDrum":false},{"pitch":64,"velocity":123,"startTime":3.1034460000001474,"endTime":3.35775615833348,"instrument":2,"program":27,"isDrum":false},{"pitch":59,"velocity":123,"startTime":3.1034460000001474,"endTime":3.35775615833348,"instrument":2,"program":27,"isDrum":false},{"pitch":62,"velocity":123,"startTime":3.3620665000001466,"endTime":3.487066408333483,"instrument":2,"program":27,"isDrum":false},{"pitch":59,"velocity":123,"startTime":3.620687000000153,"endTime":3.7456869083334894,"instrument":2,"program":27,"isDrum":false},{"pitch":52,"velocity":123,"startTime":3.620687000000153,"endTime":3.7456869083334894,"instrument":2,"program":27,"isDrum":false},{"pitch":59,"velocity":123,"startTime":3.8793075000001593,"endTime":4.004307408333496,"instrument":2,"program":27,"isDrum":false},{"pitch":57,"velocity":123,"startTime":4.137928000000166,"endTime":4.262927908333502,"instrument":2,"program":27,"isDrum":false},{"pitch":55,"velocity":123,"startTime":4.396548500000172,"endTime":4.456893283333507,"instrument":2,"program":27,"isDrum":false},{"pitch":57,"velocity":123,"startTime":4.655169000000171,"endTime":4.780168908333508,"instrument":2,"program":27,"isDrum":false},{"pitch":57,"velocity":123,"startTime":5.172410000000177,"endTime":5.232754783333512,"instrument":2,"program":27,"isDrum":false},{"pitch":57,"velocity":123,"startTime":5.560340750000179,"endTime":5.620685533333514,"instrument":2,"program":27,"isDrum":false},{"pitch":57,"velocity":123,"startTime":5.6896510000001825,"endTime":5.749995783333517,"instrument":2,"program":27,"isDrum":false},{"pitch":52,"velocity":123,"startTime":5.948271500000182,"endTime":6.008616283333517,"instrument":2,"program":27,"isDrum":false},{"pitch":55,"velocity":123,"startTime":6.077581750000185,"endTime":6.13792653333352,"instrument":2,"program":27,"isDrum":false},{"pitch":57,"velocity":123,"startTime":6.206892000000188,"endTime":6.267236783333523,"instrument":2,"program":27,"isDrum":false},{"pitch":57,"velocity":123,"startTime":6.336202250000191,"endTime":6.396547033333526,"instrument":2,"program":27,"isDrum":false},{"pitch":57,"velocity":123,"startTime":6.4655125000001945,"endTime":6.525857283333529,"instrument":2,"program":27,"isDrum":false},{"pitch":55,"velocity":123,"startTime":6.594822750000198,"endTime":6.6551675333335325,"instrument":2,"program":27,"isDrum":false},{"pitch":52,"velocity":123,"startTime":6.9827535000002,"endTime":7.1077534083335365,"instrument":2,"program":27,"isDrum":false},{"pitch":55,"velocity":123,"startTime":7.2413740000002065,"endTime":7.301718783333541,"instrument":2,"program":27,"isDrum":false},{"pitch":55,"velocity":123,"startTime":7.37068425000021,"endTime":7.4310290333335445,"instrument":2,"program":27,"isDrum":false},{"pitch":57,"velocity":123,"startTime":7.499994500000213,"endTime":7.754304658333545,"instrument":2,"program":27,"isDrum":false},{"pitch":59,"velocity":123,"startTime":7.758615000000212,"endTime":8.012925158333545,"instrument":2,"program":27,"isDrum":false},{"pitch":62,"velocity":123,"startTime":8.017235500000211,"endTime":8.271545658333544,"instrument":2,"program":27,"isDrum":false},{"pitch":64,"velocity":123,"startTime":8.27585600000021,"endTime":8.659476408333546,"instrument":2,"program":27,"isDrum":false},{"pitch":67,"velocity":123,"startTime":8.27585600000021,"endTime":8.659476408333546,"instrument":2,"program":27,"isDrum":false},{"pitch":71,"velocity":123,"startTime":8.27585600000021,"endTime":8.659476408333546,"instrument":2,"program":27,"isDrum":false},{"pitch":71,"velocity":123,"startTime":8.663786750000213,"endTime":8.78878665833355,"instrument":2,"program":27,"isDrum":false},{"pitch":64,"velocity":123,"startTime":8.663786750000213,"endTime":8.78878665833355,"instrument":2,"program":27,"isDrum":false},{"pitch":67,"velocity":123,"startTime":8.663786750000213,"endTime":8.78878665833355,"instrument":2,"program":27,"isDrum":false},{"pitch":67,"velocity":123,"startTime":8.793097000000216,"endTime":8.797407341666883,"instrument":2,"program":27,"isDrum":false},{"pitch":64,"velocity":123,"startTime":8.793097000000216,"endTime":8.797407341666883,"instrument":2,"program":27,"isDrum":false},{"pitch":71,"velocity":123,"startTime":8.831890075000217,"endTime":8.836200416666884,"instrument":2,"program":27,"isDrum":false},{"pitch":62,"velocity":123,"startTime":9.051717500000215,"endTime":9.306027658333548,"instrument":2,"program":27,"isDrum":false},{"pitch":66,"velocity":123,"startTime":9.051717500000215,"endTime":9.306027658333548,"instrument":2,"program":27,"isDrum":false},{"pitch":71,"velocity":123,"startTime":9.051717500000215,"endTime":9.306027658333548,"instrument":2,"program":27,"isDrum":false},{"pitch":52,"velocity":123,"startTime":9.310338000000215,"endTime":9.435337908333551,"instrument":2,"program":27,"isDrum":false},{"pitch":52,"velocity":123,"startTime":9.568958500000221,"endTime":9.693958408333557,"instrument":2,"program":27,"isDrum":false},{"pitch":50,"velocity":123,"startTime":10.086199500000227,"endTime":10.211199408333563,"instrument":2,"program":27,"isDrum":false},{"pitch":52,"velocity":123,"startTime":10.21550975000023,"endTime":10.340509658333566,"instrument":2,"program":27,"isDrum":false},{"pitch":55,"velocity":123,"startTime":10.344820000000233,"endTime":10.46981990833357,"instrument":2,"program":27,"isDrum":false},{"pitch":52,"velocity":123,"startTime":10.474130250000236,"endTime":10.599130158333573,"instrument":2,"program":27,"isDrum":false},{"pitch":55,"velocity":123,"startTime":10.60344050000024,"endTime":10.857750658333572,"instrument":2,"program":27,"isDrum":false},{"pitch":52,"velocity":123,"startTime":10.862061000000239,"endTime":10.987060908333575,"instrument":2,"program":27,"isDrum":false},{"pitch":64,"velocity":123,"startTime":11.379302000000244,"endTime":11.633612158333577,"instrument":2,"program":27,"isDrum":false},{"pitch":59,"velocity":123,"startTime":11.379302000000244,"endTime":11.633612158333577,"instrument":2,"program":27,"isDrum":false},{"pitch":62,"velocity":123,"startTime":11.637922500000244,"endTime":11.698267283333578,"instrument":2,"program":27,"isDrum":false},{"pitch":64,"velocity":123,"startTime":11.896543000000243,"endTime":12.150853158333575,"instrument":2,"program":27,"isDrum":false},{"pitch":59,"velocity":123,"startTime":11.896543000000243,"endTime":12.150853158333575,"instrument":2,"program":27,"isDrum":false},{"pitch":62,"velocity":123,"startTime":12.155163500000242,"endTime":12.215508283333577,"instrument":2,"program":27,"isDrum":false},{"pitch":57,"velocity":123,"startTime":12.413784000000241,"endTime":12.538783908333578,"instrument":2,"program":27,"isDrum":false},{"pitch":55,"velocity":123,"startTime":12.672404500000248,"endTime":12.732749283333582,"instrument":2,"program":27,"isDrum":false},{"pitch":57,"velocity":123,"startTime":12.931025000000254,"endTime":13.05602490833359,"instrument":2,"program":27,"isDrum":false},{"pitch":57,"velocity":123,"startTime":13.448266000000253,"endTime":13.508610783333587,"instrument":2,"program":27,"isDrum":false},{"pitch":57,"velocity":123,"startTime":13.836196750000248,"endTime":13.896541533333583,"instrument":2,"program":27,"isDrum":false},{"pitch":57,"velocity":123,"startTime":13.965507000000251,"endTime":14.025851783333586,"instrument":2,"program":27,"isDrum":false},{"pitch":52,"velocity":123,"startTime":14.224127500000257,"endTime":14.284472283333592,"instrument":2,"program":27,"isDrum":false},{"pitch":55,"velocity":123,"startTime":14.35343775000026,"endTime":14.413782533333595,"instrument":2,"program":27,"isDrum":false},{"pitch":57,"velocity":123,"startTime":14.482748000000264,"endTime":14.543092783333599,"instrument":2,"program":27,"isDrum":false},{"pitch":57,"velocity":123,"startTime":14.612058250000267,"endTime":14.672403033333602,"instrument":2,"program":27,"isDrum":false},{"pitch":57,"velocity":123,"startTime":14.74136850000027,"endTime":14.801713283333605,"instrument":2,"program":27,"isDrum":false},{"pitch":55,"velocity":123,"startTime":14.870678750000273,"endTime":14.931023533333608,"instrument":2,"program":27,"isDrum":false},{"pitch":52,"velocity":123,"startTime":15.258609500000269,"endTime":15.383609408333605,"instrument":2,"program":27,"isDrum":false},{"pitch":55,"velocity":123,"startTime":15.517230000000275,"endTime":15.57757478333361,"instrument":2,"program":27,"isDrum":false},{"pitch":55,"velocity":123,"startTime":15.646540250000278,"endTime":15.706885033333613,"instrument":2,"program":27,"isDrum":false},{"pitch":57,"velocity":123,"startTime":15.775850500000281,"endTime":16.03016065833362,"instrument":2,"program":27,"isDrum":false},{"pitch":59,"velocity":123,"startTime":16.034471000000288,"endTime":16.288781158333627,"instrument":2,"program":27,"isDrum":false},{"pitch":62,"velocity":123,"startTime":16.293091500000294,"endTime":16.547401658333634,"instrument":2,"program":27,"isDrum":false},{"pitch":45,"velocity":123,"startTime":13.448266000000011,"endTime":13.508610783333346,"instrument":5,"program":34,"isDrum":false},{"pitch":45,"velocity":123,"startTime":13.836196750000006,"endTime":13.896541533333341,"instrument":5,"program":34,"isDrum":false},{"pitch":31,"velocity":117,"startTime":4.263256414560601e-14,"endTime":0.2543101583333751,"instrument":6,"program":35,"isDrum":false},{"pitch":28,"velocity":117,"startTime":0.7758615000000404,"endTime":0.9655165333333713,"instrument":6,"program":35,"isDrum":false},{"pitch":38,"velocity":117,"startTime":1.8103435000000374,"endTime":1.9353434083333738,"instrument":6,"program":35,"isDrum":false},{"pitch":40,"velocity":117,"startTime":1.9396537500000406,"endTime":2.064653658333377,"instrument":6,"program":35,"isDrum":false},{"pitch":43,"velocity":117,"startTime":2.0689640000000438,"endTime":2.19396390833338,"instrument":6,"program":35,"isDrum":false},{"pitch":43,"velocity":117,"startTime":2.32758450000005,"endTime":2.5818946583333826,"instrument":6,"program":35,"isDrum":false},{"pitch":40,"velocity":117,"startTime":2.5862050000000494,"endTime":2.7758600333333803,"instrument":6,"program":35,"isDrum":false},{"pitch":38,"velocity":117,"startTime":3.6206870000000464,"endTime":3.745686908333383,"instrument":6,"program":35,"isDrum":false},{"pitch":40,"velocity":117,"startTime":3.7499972500000496,"endTime":3.874997158333386,"instrument":6,"program":35,"isDrum":false},{"pitch":43,"velocity":117,"startTime":3.8793075000000528,"endTime":4.004307408333389,"instrument":6,"program":35,"isDrum":false},{"pitch":45,"velocity":117,"startTime":4.008617750000056,"endTime":4.133617658333392,"instrument":6,"program":35,"isDrum":false},{"pitch":33,"velocity":117,"startTime":4.396548500000058,"endTime":4.650858658333391,"instrument":6,"program":35,"isDrum":false},{"pitch":31,"velocity":117,"startTime":5.948271500000061,"endTime":6.073271408333397,"instrument":6,"program":35,"isDrum":false},{"pitch":33,"velocity":117,"startTime":6.077581750000064,"endTime":6.137926533333399,"instrument":6,"program":35,"isDrum":false},{"pitch":36,"velocity":117,"startTime":6.206892000000067,"endTime":6.331891908333404,"instrument":6,"program":35,"isDrum":false},{"pitch":33,"velocity":117,"startTime":6.3362022500000705,"endTime":6.461202158333407,"instrument":6,"program":35,"isDrum":false},{"pitch":36,"velocity":117,"startTime":6.465512500000074,"endTime":6.719822658333406,"instrument":6,"program":35,"isDrum":false},{"pitch":33,"velocity":117,"startTime":6.724133000000073,"endTime":6.849132908333409,"instrument":6,"program":35,"isDrum":false},{"pitch":31,"velocity":117,"startTime":8.275856000000076,"endTime":8.530166158333408,"instrument":6,"program":35,"isDrum":false},{"pitch":28,"velocity":117,"startTime":9.051717500000073,"endTime":9.306027658333406,"instrument":6,"program":35,"isDrum":false},{"pitch":38,"velocity":117,"startTime":10.08619950000007,"endTime":10.211199408333407,"instrument":6,"program":35,"isDrum":false},{"pitch":40,"velocity":117,"startTime":10.215509750000074,"endTime":10.34050965833341,"instrument":6,"program":35,"isDrum":false},{"pitch":43,"velocity":117,"startTime":10.344820000000077,"endTime":10.469819908333413,"instrument":6,"program":35,"isDrum":false},{"pitch":40,"velocity":117,"startTime":10.47413025000008,"endTime":10.599130158333416,"instrument":6,"program":35,"isDrum":false},{"pitch":43,"velocity":117,"startTime":10.603440500000083,"endTime":10.857750658333416,"instrument":6,"program":35,"isDrum":false},{"pitch":40,"velocity":117,"startTime":10.862061000000082,"endTime":10.987060908333419,"instrument":6,"program":35,"isDrum":false},{"pitch":33,"velocity":117,"startTime":11.896543000000086,"endTime":12.021542908333423,"instrument":6,"program":35,"isDrum":false},{"pitch":35,"velocity":117,"startTime":12.02585325000009,"endTime":12.150853158333426,"instrument":6,"program":35,"isDrum":false},{"pitch":38,"velocity":117,"startTime":12.155163500000093,"endTime":12.28016340833343,"instrument":6,"program":35,"isDrum":false},{"pitch":40,"velocity":117,"startTime":12.284473750000096,"endTime":12.409473658333432,"instrument":6,"program":35,"isDrum":false},{"pitch":33,"velocity":117,"startTime":12.672404500000106,"endTime":12.926714658333445,"instrument":6,"program":35,"isDrum":false},{"pitch":31,"velocity":117,"startTime":14.224127500000115,"endTime":14.349127408333452,"instrument":6,"program":35,"isDrum":false},{"pitch":33,"velocity":117,"startTime":14.353437750000118,"endTime":14.478437658333455,"instrument":6,"program":35,"isDrum":false},{"pitch":36,"velocity":117,"startTime":14.482748000000122,"endTime":14.607747908333458,"instrument":6,"program":35,"isDrum":false},{"pitch":33,"velocity":117,"startTime":14.612058250000125,"endTime":14.737058158333461,"instrument":6,"program":35,"isDrum":false},{"pitch":36,"velocity":117,"startTime":14.741368500000128,"endTime":14.995678658333468,"instrument":6,"program":35,"isDrum":false},{"pitch":33,"velocity":117,"startTime":14.999989000000134,"endTime":15.12498890833347,"instrument":6,"program":35,"isDrum":false},{"pitch":40,"velocity":117,"startTime":16.03447100000013,"endTime":16.547401658333477,"instrument":6,"program":35,"isDrum":false},{"pitch":31,"velocity":118,"startTime":4.263256414560601e-14,"endTime":0.2543101583333751,"instrument":7,"program":87,"isDrum":false},{"pitch":28,"velocity":118,"startTime":0.7758615000000404,"endTime":1.0301716583333729,"instrument":7,"program":87,"isDrum":false},{"pitch":31,"velocity":118,"startTime":8.27585600000004,"endTime":8.530166158333373,"instrument":7,"program":87,"isDrum":false},{"pitch":28,"velocity":118,"startTime":9.051717500000038,"endTime":9.30602765833337,"instrument":7,"program":87,"isDrum":false},{"pitch":36,"velocity":128,"startTime":4.050093593832571e-13,"endTime":0.2543101583337375,"instrument":8,"program":0,"isDrum":true},{"pitch":57,"velocity":121,"startTime":4.050093593832571e-13,"endTime":0.5129306583337438,"instrument":8,"program":0,"isDrum":true},{"pitch":42,"velocity":103,"startTime":0.25862050000040426,"endTime":0.38362040833374067,"instrument":8,"program":0,"isDrum":true},{"pitch":38,"velocity":128,"startTime":0.5172410000004106,"endTime":0.642240908333747,"instrument":8,"program":0,"isDrum":true},{"pitch":42,"velocity":103,"startTime":0.5172410000004106,"endTime":0.642240908333747,"instrument":8,"program":0,"isDrum":true},{"pitch":36,"velocity":128,"startTime":0.775861500000417,"endTime":0.9008614083337534,"instrument":8,"program":0,"isDrum":true},{"pitch":46,"velocity":115,"startTime":0.775861500000417,"endTime":0.9008614083337534,"instrument":8,"program":0,"isDrum":true},{"pitch":42,"velocity":103,"startTime":1.0344820000004233,"endTime":1.1594819083337597,"instrument":8,"program":0,"isDrum":true},{"pitch":42,"velocity":103,"startTime":1.2931025000004297,"endTime":1.418102408333766,"instrument":8,"program":0,"isDrum":true},{"pitch":38,"velocity":128,"startTime":1.551723000000436,"endTime":1.6767229083337725,"instrument":8,"program":0,"isDrum":true},{"pitch":42,"velocity":103,"startTime":1.8103435000004424,"endTime":1.9353434083337788,"instrument":8,"program":0,"isDrum":true},{"pitch":36,"velocity":128,"startTime":2.0689640000004488,"endTime":2.193963908333785,"instrument":8,"program":0,"isDrum":true},{"pitch":42,"velocity":103,"startTime":2.0689640000004488,"endTime":2.193963908333785,"instrument":8,"program":0,"isDrum":true},{"pitch":42,"velocity":103,"startTime":2.327584500000455,"endTime":2.4525844083337915,"instrument":8,"program":0,"isDrum":true},{"pitch":42,"velocity":103,"startTime":2.5862050000004615,"endTime":2.711204908333798,"instrument":8,"program":0,"isDrum":true},{"pitch":38,"velocity":128,"startTime":2.5862050000004615,"endTime":2.711204908333798,"instrument":8,"program":0,"isDrum":true},{"pitch":42,"velocity":103,"startTime":2.844825500000468,"endTime":2.9698254083338043,"instrument":8,"program":0,"isDrum":true},{"pitch":42,"velocity":103,"startTime":3.103446000000474,"endTime":3.2284459083338106,"instrument":8,"program":0,"isDrum":true},{"pitch":36,"velocity":128,"startTime":3.103446000000474,"endTime":3.2284459083338106,"instrument":8,"program":0,"isDrum":true},{"pitch":42,"velocity":103,"startTime":3.3620665000004806,"endTime":3.487066408333817,"instrument":8,"program":0,"isDrum":true},{"pitch":38,"velocity":128,"startTime":3.620687000000487,"endTime":3.7456869083338233,"instrument":8,"program":0,"isDrum":true},{"pitch":42,"velocity":103,"startTime":3.620687000000487,"endTime":3.7456869083338233,"instrument":8,"program":0,"isDrum":true},{"pitch":42,"velocity":103,"startTime":3.8793075000004933,"endTime":4.00430740833383,"instrument":8,"program":0,"isDrum":true},{"pitch":36,"velocity":128,"startTime":4.1379280000005,"endTime":4.262927908333836,"instrument":8,"program":0,"isDrum":true},{"pitch":42,"velocity":103,"startTime":4.1379280000005,"endTime":4.262927908333836,"instrument":8,"program":0,"isDrum":true},{"pitch":36,"velocity":128,"startTime":4.396548500000506,"endTime":4.521548408333842,"instrument":8,"program":0,"isDrum":true},{"pitch":46,"velocity":115,"startTime":4.396548500000506,"endTime":4.521548408333842,"instrument":8,"program":0,"isDrum":true},{"pitch":38,"velocity":128,"startTime":4.655169000000512,"endTime":4.780168908333849,"instrument":8,"program":0,"isDrum":true},{"pitch":42,"velocity":103,"startTime":4.655169000000512,"endTime":4.780168908333849,"instrument":8,"program":0,"isDrum":true},{"pitch":42,"velocity":103,"startTime":4.913789500000519,"endTime":5.038789408333855,"instrument":8,"program":0,"isDrum":true},{"pitch":36,"velocity":128,"startTime":5.172410000000525,"endTime":5.2974099083338615,"instrument":8,"program":0,"isDrum":true},{"pitch":42,"velocity":103,"startTime":5.172410000000525,"endTime":5.2974099083338615,"instrument":8,"program":0,"isDrum":true},{"pitch":42,"velocity":103,"startTime":5.4310305000005314,"endTime":5.556030408333868,"instrument":8,"program":0,"isDrum":true},{"pitch":42,"velocity":103,"startTime":5.689651000000538,"endTime":5.814650908333874,"instrument":8,"program":0,"isDrum":true},{"pitch":38,"velocity":128,"startTime":5.689651000000538,"endTime":5.814650908333874,"instrument":8,"program":0,"isDrum":true},{"pitch":42,"velocity":103,"startTime":5.948271500000544,"endTime":6.073271408333881,"instrument":8,"program":0,"isDrum":true},{"pitch":36,"velocity":128,"startTime":6.2068920000005505,"endTime":6.331891908333887,"instrument":8,"program":0,"isDrum":true},{"pitch":42,"velocity":103,"startTime":6.2068920000005505,"endTime":6.331891908333887,"instrument":8,"program":0,"isDrum":true},{"pitch":42,"velocity":103,"startTime":6.465512500000557,"endTime":6.590512408333893,"instrument":8,"program":0,"isDrum":true},{"pitch":38,"velocity":128,"startTime":6.724133000000563,"endTime":6.8491329083339,"instrument":8,"program":0,"isDrum":true},{"pitch":42,"velocity":103,"startTime":6.724133000000563,"endTime":6.8491329083339,"instrument":8,"program":0,"isDrum":true},{"pitch":42,"velocity":103,"startTime":6.98275350000057,"endTime":7.107753408333906,"instrument":8,"program":0,"isDrum":true},{"pitch":36,"velocity":128,"startTime":7.241374000000576,"endTime":7.366373908333912,"instrument":8,"program":0,"isDrum":true},{"pitch":42,"velocity":103,"startTime":7.241374000000576,"endTime":7.366373908333912,"instrument":8,"program":0,"isDrum":true},{"pitch":42,"velocity":103,"startTime":7.499994500000582,"endTime":7.624994408333919,"instrument":8,"program":0,"isDrum":true},{"pitch":38,"velocity":128,"startTime":7.758615000000589,"endTime":7.883614908333925,"instrument":8,"program":0,"isDrum":true},{"pitch":42,"velocity":103,"startTime":7.758615000000589,"endTime":7.883614908333925,"instrument":8,"program":0,"isDrum":true},{"pitch":42,"velocity":103,"startTime":8.017235500000595,"endTime":8.142235408333931,"instrument":8,"program":0,"isDrum":true},{"pitch":36,"velocity":128,"startTime":8.275856000000601,"endTime":8.530166158333934,"instrument":8,"program":0,"isDrum":true},{"pitch":57,"velocity":121,"startTime":8.275856000000601,"endTime":8.78878665833394,"instrument":8,"program":0,"isDrum":true},{"pitch":42,"velocity":103,"startTime":8.5344765000006,"endTime":8.659476408333937,"instrument":8,"program":0,"isDrum":true},{"pitch":38,"velocity":128,"startTime":8.793097000000607,"endTime":8.918096908333943,"instrument":8,"program":0,"isDrum":true},{"pitch":42,"velocity":103,"startTime":8.793097000000607,"endTime":8.918096908333943,"instrument":8,"program":0,"isDrum":true},{"pitch":36,"velocity":128,"startTime":9.051717500000613,"endTime":9.17671740833395,"instrument":8,"program":0,"isDrum":true},{"pitch":46,"velocity":115,"startTime":9.051717500000613,"endTime":9.17671740833395,"instrument":8,"program":0,"isDrum":true},{"pitch":42,"velocity":103,"startTime":9.31033800000062,"endTime":9.435337908333956,"instrument":8,"program":0,"isDrum":true},{"pitch":42,"velocity":103,"startTime":9.568958500000626,"endTime":9.693958408333962,"instrument":8,"program":0,"isDrum":true},{"pitch":38,"velocity":128,"startTime":9.827579000000632,"endTime":9.952578908333969,"instrument":8,"program":0,"isDrum":true},{"pitch":42,"velocity":103,"startTime":10.086199500000639,"endTime":10.211199408333975,"instrument":8,"program":0,"isDrum":true},{"pitch":36,"velocity":128,"startTime":10.344820000000645,"endTime":10.469819908333982,"instrument":8,"program":0,"isDrum":true},{"pitch":42,"velocity":103,"startTime":10.344820000000645,"endTime":10.469819908333982,"instrument":8,"program":0,"isDrum":true},{"pitch":42,"velocity":103,"startTime":10.603440500000652,"endTime":10.728440408333988,"instrument":8,"program":0,"isDrum":true},{"pitch":42,"velocity":103,"startTime":10.862061000000658,"endTime":10.987060908333994,"instrument":8,"program":0,"isDrum":true},{"pitch":38,"velocity":128,"startTime":10.862061000000658,"endTime":10.987060908333994,"instrument":8,"program":0,"isDrum":true},{"pitch":42,"velocity":103,"startTime":11.120681500000664,"endTime":11.245681408334,"instrument":8,"program":0,"isDrum":true},{"pitch":42,"velocity":103,"startTime":11.37930200000067,"endTime":11.504301908334007,"instrument":8,"program":0,"isDrum":true},{"pitch":36,"velocity":128,"startTime":11.37930200000067,"endTime":11.504301908334007,"instrument":8,"program":0,"isDrum":true},{"pitch":42,"velocity":103,"startTime":11.637922500000677,"endTime":11.762922408334013,"instrument":8,"program":0,"isDrum":true},{"pitch":38,"velocity":128,"startTime":11.896543000000683,"endTime":12.02154290833402,"instrument":8,"program":0,"isDrum":true},{"pitch":42,"velocity":103,"startTime":11.896543000000683,"endTime":12.02154290833402,"instrument":8,"program":0,"isDrum":true},{"pitch":42,"velocity":103,"startTime":12.15516350000069,"endTime":12.280163408334026,"instrument":8,"program":0,"isDrum":true},{"pitch":36,"velocity":128,"startTime":12.413784000000696,"endTime":12.538783908334032,"instrument":8,"program":0,"isDrum":true},{"pitch":42,"velocity":103,"startTime":12.413784000000696,"endTime":12.538783908334032,"instrument":8,"program":0,"isDrum":true},{"pitch":36,"velocity":128,"startTime":12.672404500000702,"endTime":12.797404408334039,"instrument":8,"program":0,"isDrum":true},{"pitch":46,"velocity":115,"startTime":12.672404500000702,"endTime":12.797404408334039,"instrument":8,"program":0,"isDrum":true},{"pitch":38,"velocity":128,"startTime":12.931025000000709,"endTime":13.056024908334045,"instrument":8,"program":0,"isDrum":true},{"pitch":42,"velocity":103,"startTime":12.931025000000709,"endTime":13.056024908334045,"instrument":8,"program":0,"isDrum":true},{"pitch":42,"velocity":103,"startTime":13.189645500000715,"endTime":13.314645408334052,"instrument":8,"program":0,"isDrum":true},{"pitch":36,"velocity":128,"startTime":13.448266000000721,"endTime":13.573265908334058,"instrument":8,"program":0,"isDrum":true},{"pitch":42,"velocity":103,"startTime":13.448266000000721,"endTime":13.573265908334058,"instrument":8,"program":0,"isDrum":true},{"pitch":42,"velocity":103,"startTime":13.706886500000728,"endTime":13.831886408334064,"instrument":8,"program":0,"isDrum":true},{"pitch":42,"velocity":103,"startTime":13.965507000000734,"endTime":14.09050690833407,"instrument":8,"program":0,"isDrum":true},{"pitch":38,"velocity":128,"startTime":13.965507000000734,"endTime":14.09050690833407,"instrument":8,"program":0,"isDrum":true},{"pitch":42,"velocity":103,"startTime":14.22412750000074,"endTime":14.349127408334077,"instrument":8,"program":0,"isDrum":true},{"pitch":36,"velocity":128,"startTime":14.482748000000747,"endTime":14.607747908334083,"instrument":8,"program":0,"isDrum":true},{"pitch":42,"velocity":103,"startTime":14.482748000000747,"endTime":14.607747908334083,"instrument":8,"program":0,"isDrum":true},{"pitch":42,"velocity":103,"startTime":14.741368500000753,"endTime":14.86636840833409,"instrument":8,"program":0,"isDrum":true},{"pitch":38,"velocity":128,"startTime":14.99998900000076,"endTime":15.124988908334096,"instrument":8,"program":0,"isDrum":true},{"pitch":42,"velocity":103,"startTime":14.99998900000076,"endTime":15.124988908334096,"instrument":8,"program":0,"isDrum":true},{"pitch":42,"velocity":103,"startTime":15.258609500000766,"endTime":15.383609408334102,"instrument":8,"program":0,"isDrum":true},{"pitch":36,"velocity":128,"startTime":15.517230000000772,"endTime":15.642229908334109,"instrument":8,"program":0,"isDrum":true},{"pitch":42,"velocity":103,"startTime":15.517230000000772,"endTime":15.642229908334109,"instrument":8,"program":0,"isDrum":true},{"pitch":42,"velocity":103,"startTime":15.775850500000779,"endTime":15.900850408334115,"instrument":8,"program":0,"isDrum":true},{"pitch":38,"velocity":128,"startTime":16.034471000000785,"endTime":16.15947090833412,"instrument":8,"program":0,"isDrum":true},{"pitch":42,"velocity":103,"startTime":16.034471000000785,"endTime":16.15947090833412,"instrument":8,"program":0,"isDrum":true},{"pitch":42,"velocity":103,"startTime":16.29309150000079,"endTime":16.418091408334128,"instrument":8,"program":0,"isDrum":true},{"pitch":69,"velocity":98,"startTime":0.5172410000001619,"endTime":0.6422409083334983,"instrument":9,"program":0,"isDrum":true},{"pitch":39,"velocity":86,"startTime":0.5172410000001619,"endTime":0.6422409083334983,"instrument":9,"program":0,"isDrum":true},{"pitch":39,"velocity":86,"startTime":0.5387927083334958,"endTime":0.6637926166668322,"instrument":9,"program":0,"isDrum":true},{"pitch":69,"velocity":98,"startTime":0.7758615000001683,"endTime":0.9008614083335047,"instrument":9,"program":0,"isDrum":true},{"pitch":39,"velocity":86,"startTime":1.5517230000001732,"endTime":1.6767229083335096,"instrument":9,"program":0,"isDrum":true},{"pitch":39,"velocity":86,"startTime":1.573274708333507,"endTime":1.6982746166668434,"instrument":9,"program":0,"isDrum":true},{"pitch":39,"velocity":86,"startTime":2.5862050000001773,"endTime":2.7112049083335137,"instrument":9,"program":0,"isDrum":true},{"pitch":69,"velocity":98,"startTime":2.5862050000001773,"endTime":2.7112049083335137,"instrument":9,"program":0,"isDrum":true},{"pitch":39,"velocity":86,"startTime":2.607756708333511,"endTime":2.7327566166668475,"instrument":9,"program":0,"isDrum":true},{"pitch":69,"velocity":98,"startTime":2.8448255000001836,"endTime":2.96982540833352,"instrument":9,"program":0,"isDrum":true},{"pitch":39,"velocity":86,"startTime":3.6206870000001885,"endTime":3.745686908333525,"instrument":9,"program":0,"isDrum":true},{"pitch":39,"velocity":86,"startTime":3.6422387083335224,"endTime":3.7672386166668588,"instrument":9,"program":0,"isDrum":true},{"pitch":69,"velocity":98,"startTime":4.655169000000193,"endTime":4.780168908333529,"instrument":9,"program":0,"isDrum":true},{"pitch":39,"velocity":86,"startTime":4.655169000000193,"endTime":4.780168908333529,"instrument":9,"program":0,"isDrum":true},{"pitch":39,"velocity":86,"startTime":4.6767207083335265,"endTime":4.801720616666863,"instrument":9,"program":0,"isDrum":true},{"pitch":69,"velocity":98,"startTime":4.913789500000199,"endTime":5.038789408333535,"instrument":9,"program":0,"isDrum":true},{"pitch":39,"velocity":86,"startTime":5.689651000000204,"endTime":5.81465090833354,"instrument":9,"program":0,"isDrum":true},{"pitch":39,"velocity":86,"startTime":5.711202708333538,"endTime":5.836202616666874,"instrument":9,"program":0,"isDrum":true},{"pitch":39,"velocity":86,"startTime":6.724133000000208,"endTime":6.849132908333544,"instrument":9,"program":0,"isDrum":true},{"pitch":69,"velocity":98,"startTime":6.724133000000208,"endTime":6.849132908333544,"instrument":9,"program":0,"isDrum":true},{"pitch":39,"velocity":86,"startTime":6.745684708333542,"endTime":6.870684616666878,"instrument":9,"program":0,"isDrum":true},{"pitch":69,"velocity":98,"startTime":6.982753500000214,"endTime":7.107753408333551,"instrument":9,"program":0,"isDrum":true},{"pitch":39,"velocity":86,"startTime":7.758615000000219,"endTime":7.883614908333556,"instrument":9,"program":0,"isDrum":true},{"pitch":39,"velocity":86,"startTime":7.780166708333553,"endTime":7.9051666166668895,"instrument":9,"program":0,"isDrum":true},{"pitch":69,"velocity":98,"startTime":8.793097000000223,"endTime":8.91809690833356,"instrument":9,"program":0,"isDrum":true},{"pitch":39,"velocity":86,"startTime":8.793097000000223,"endTime":8.91809690833356,"instrument":9,"program":0,"isDrum":true},{"pitch":39,"velocity":86,"startTime":8.814648708333557,"endTime":8.939648616666894,"instrument":9,"program":0,"isDrum":true},{"pitch":69,"velocity":98,"startTime":9.05171750000023,"endTime":9.176717408333566,"instrument":9,"program":0,"isDrum":true},{"pitch":39,"velocity":86,"startTime":9.827579000000235,"endTime":9.952578908333571,"instrument":9,"program":0,"isDrum":true},{"pitch":39,"velocity":86,"startTime":9.849130708333568,"endTime":9.974130616666905,"instrument":9,"program":0,"isDrum":true},{"pitch":39,"velocity":86,"startTime":10.862061000000239,"endTime":10.987060908333575,"instrument":9,"program":0,"isDrum":true},{"pitch":69,"velocity":98,"startTime":10.862061000000239,"endTime":10.987060908333575,"instrument":9,"program":0,"isDrum":true},{"pitch":39,"velocity":86,"startTime":10.883612708333573,"endTime":11.008612616666909,"instrument":9,"program":0,"isDrum":true},{"pitch":69,"velocity":98,"startTime":11.120681500000245,"endTime":11.245681408333581,"instrument":9,"program":0,"isDrum":true},{"pitch":39,"velocity":86,"startTime":11.89654300000025,"endTime":12.021542908333586,"instrument":9,"program":0,"isDrum":true},{"pitch":39,"velocity":86,"startTime":11.918094708333584,"endTime":12.04309461666692,"instrument":9,"program":0,"isDrum":true},{"pitch":69,"velocity":98,"startTime":12.931025000000254,"endTime":13.05602490833359,"instrument":9,"program":0,"isDrum":true},{"pitch":39,"velocity":86,"startTime":12.931025000000254,"endTime":13.05602490833359,"instrument":9,"program":0,"isDrum":true},{"pitch":39,"velocity":86,"startTime":12.952576708333588,"endTime":13.077576616666924,"instrument":9,"program":0,"isDrum":true},{"pitch":69,"velocity":98,"startTime":13.18964550000026,"endTime":13.314645408333597,"instrument":9,"program":0,"isDrum":true},{"pitch":39,"velocity":86,"startTime":13.965507000000265,"endTime":14.090506908333602,"instrument":9,"program":0,"isDrum":true},{"pitch":39,"velocity":86,"startTime":13.987058708333599,"endTime":14.112058616666936,"instrument":9,"program":0,"isDrum":true},{"pitch":39,"velocity":86,"startTime":14.999989000000262,"endTime":15.124988908333599,"instrument":9,"program":0,"isDrum":true},{"pitch":69,"velocity":98,"startTime":14.999989000000262,"endTime":15.124988908333599,"instrument":9,"program":0,"isDrum":true},{"pitch":39,"velocity":86,"startTime":15.021540708333596,"endTime":15.146540616666933,"instrument":9,"program":0,"isDrum":true},{"pitch":69,"velocity":98,"startTime":15.258609500000269,"endTime":15.383609408333605,"instrument":9,"program":0,"isDrum":true},{"pitch":39,"velocity":86,"startTime":16.034471000000273,"endTime":16.15947090833361,"instrument":9,"program":0,"isDrum":true},{"pitch":39,"velocity":86,"startTime":16.056022708333607,"endTime":16.181022616666944,"instrument":9,"program":0,"isDrum":true}],"totalTime":68.275812,"sourceInfo":{"encodingType":"MIDI","parser":"TONEJS_MIDI_CONVERT"}},"sequence":{"filename":"fanvoy.mid","ticksPerQuarter":120,"timeSignatures":[{"time":0,"numerator":4,"denominator":4}],"tempos":[{"time":0,"qpm":116.00008506672904}],"notes":[{"pitch":64,"velocity":123,"startTime":2.842170943040401e-14,"endTime":0.2543101583333609,"instrument":0,"program":4,"isDrum":false},{"pitch":67,"velocity":123,"startTime":2.842170943040401e-14,"endTime":0.2543101583333609,"instrument":0,"program":4,"isDrum":false},{"pitch":71,"velocity":123,"startTime":2.842170943040401e-14,"endTime":0.2543101583333609,"instrument":0,"program":4,"isDrum":false},{"pitch":59,"velocity":123,"startTime":0.7758615000000262,"endTime":2.8405151583333605,"instrument":0,"program":4,"isDrum":false},{"pitch":62,"velocity":123,"startTime":0.7758615000000262,"endTime":2.8405151583333605,"instrument":0,"program":4,"isDrum":false},{"pitch":66,"velocity":123,"startTime":0.7758615000000262,"endTime":2.8405151583333605,"instrument":0,"program":4,"isDrum":false},{"pitch":59,"velocity":123,"startTime":3.1034460000000266,"endTime":3.4870664083333622,"instrument":0,"program":4,"isDrum":false},{"pitch":64,"velocity":123,"startTime":3.1034460000000266,"endTime":3.4870664083333622,"instrument":0,"program":4,"isDrum":false},{"pitch":67,"velocity":123,"startTime":3.1034460000000266,"endTime":3.4870664083333622,"instrument":0,"program":4,"isDrum":false},{"pitch":62,"velocity":123,"startTime":3.620687000000032,"endTime":4.004307408333368,"instrument":0,"program":4,"isDrum":false},{"pitch":66,"velocity":123,"startTime":3.620687000000032,"endTime":4.004307408333368,"instrument":0,"program":4,"isDrum":false},{"pitch":59,"velocity":123,"startTime":3.620687000000032,"endTime":4.004307408333368,"instrument":0,"program":4,"isDrum":false},{"pitch":64,"velocity":123,"startTime":4.137928000000038,"endTime":4.39223815833337,"instrument":0,"program":4,"isDrum":false},{"pitch":57,"velocity":123,"startTime":4.137928000000038,"endTime":4.39223815833337,"instrument":0,"program":4,"isDrum":false},{"pitch":60,"velocity":123,"startTime":4.137928000000038,"endTime":4.39223815833337,"instrument":0,"program":4,"isDrum":false},{"pitch":57,"velocity":123,"startTime":4.396548500000037,"endTime":4.5215484083333735,"instrument":0,"program":4,"isDrum":false},{"pitch":64,"velocity":123,"startTime":4.396548500000037,"endTime":4.5215484083333735,"instrument":0,"program":4,"isDrum":false},{"pitch":60,"velocity":123,"startTime":4.396548500000037,"endTime":4.5215484083333735,"instrument":0,"program":4,"isDrum":false},{"pitch":64,"velocity":123,"startTime":4.913789500000043,"endTime":5.943961158333373,"instrument":0,"program":4,"isDrum":false},{"pitch":67,"velocity":123,"startTime":4.913789500000043,"endTime":5.943961158333373,"instrument":0,"program":4,"isDrum":false},{"pitch":71,"velocity":123,"startTime":4.913789500000043,"endTime":5.943961158333373,"instrument":0,"program":4,"isDrum":false},{"pitch":64,"velocity":123,"startTime":6.206892000000039,"endTime":6.590512408333375,"instrument":0,"program":4,"isDrum":false},{"pitch":67,"velocity":123,"startTime":6.206892000000039,"endTime":6.461202158333371,"instrument":0,"program":4,"isDrum":false},{"pitch":71,"velocity":123,"startTime":6.206892000000039,"endTime":6.461202158333371,"instrument":0,"program":4,"isDrum":false},{"pitch":66,"velocity":123,"startTime":6.594822750000041,"endTime":6.719822658333378,"instrument":0,"program":4,"isDrum":false},{"pitch":69,"velocity":123,"startTime":6.594822750000041,"endTime":6.719822658333378,"instrument":0,"program":4,"isDrum":false},{"pitch":67,"velocity":123,"startTime":7.241374000000043,"endTime":7.3663739083333795,"instrument":0,"program":4,"isDrum":false},{"pitch":74,"velocity":123,"startTime":7.241374000000043,"endTime":7.3663739083333795,"instrument":0,"program":4,"isDrum":false},{"pitch":64,"velocity":123,"startTime":7.241374000000043,"endTime":7.3663739083333795,"instrument":0,"program":4,"isDrum":false},{"pitch":71,"velocity":123,"startTime":7.241374000000043,"endTime":7.3663739083333795,"instrument":0,"program":4,"isDrum":false},{"pitch":67,"velocity":123,"startTime":7.499994500000049,"endTime":7.624994408333386,"instrument":0,"program":4,"isDrum":false},{"pitch":71,"velocity":123,"startTime":7.499994500000049,"endTime":7.624994408333386,"instrument":0,"program":4,"isDrum":false},{"pitch":74,"velocity":123,"startTime":7.499994500000049,"endTime":7.624994408333386,"instrument":0,"program":4,"isDrum":false},{"pitch":64,"velocity":123,"startTime":7.499994500000049,"endTime":7.754304658333389,"instrument":0,"program":4,"isDrum":false},{"pitch":64,"velocity":123,"startTime":7.758615000000056,"endTime":8.012925158333388,"instrument":0,"program":4,"isDrum":false},{"pitch":67,"velocity":123,"startTime":7.758615000000056,"endTime":8.012925158333388,"instrument":0,"program":4,"isDrum":false},{"pitch":71,"velocity":123,"startTime":7.758615000000056,"endTime":8.012925158333388,"instrument":0,"program":4,"isDrum":false},{"pitch":64,"velocity":123,"startTime":8.275856000000054,"endTime":8.530166158333387,"instrument":0,"program":4,"isDrum":false},{"pitch":67,"velocity":123,"startTime":8.275856000000054,"endTime":8.530166158333387,"instrument":0,"program":4,"isDrum":false},{"pitch":71,"velocity":123,"startTime":8.275856000000054,"endTime":8.530166158333387,"instrument":0,"program":4,"isDrum":false},{"pitch":59,"velocity":123,"startTime":9.051717500000052,"endTime":11.116371158333386,"instrument":0,"program":4,"isDrum":false},{"pitch":62,"velocity":123,"startTime":9.051717500000052,"endTime":11.116371158333386,"instrument":0,"program":4,"isDrum":false},{"pitch":66,"velocity":123,"startTime":9.051717500000052,"endTime":11.116371158333386,"instrument":0,"program":4,"isDrum":false},{"pitch":59,"velocity":123,"startTime":11.379302000000052,"endTime":11.762922408333388,"instrument":0,"program":4,"isDrum":false},{"pitch":64,"velocity":123,"startTime":11.379302000000052,"endTime":11.762922408333388,"instrument":0,"program":4,"isDrum":false},{"pitch":67,"velocity":123,"startTime":11.379302000000052,"endTime":11.762922408333388,"instrument":0,"program":4,"isDrum":false},{"pitch":62,"velocity":123,"startTime":11.896543000000058,"endTime":12.280163408333387,"instrument":0,"program":4,"isDrum":false},{"pitch":66,"velocity":123,"startTime":11.896543000000058,"endTime":12.280163408333387,"instrument":0,"program":4,"isDrum":false},{"pitch":59,"velocity":123,"startTime":11.896543000000058,"endTime":12.280163408333387,"instrument":0,"program":4,"isDrum":false},{"pitch":64,"velocity":123,"startTime":12.413784000000057,"endTime":12.668094158333396,"instrument":0,"program":4,"isDrum":false},{"pitch":57,"velocity":123,"startTime":12.413784000000057,"endTime":12.668094158333396,"instrument":0,"program":4,"isDrum":false},{"pitch":60,"velocity":123,"startTime":12.413784000000057,"endTime":12.668094158333396,"instrument":0,"program":4,"isDrum":false},{"pitch":57,"velocity":123,"startTime":12.672404500000063,"endTime":12.7974044083334,"instrument":0,"program":4,"isDrum":false},{"pitch":64,"velocity":123,"startTime":12.672404500000063,"endTime":12.7974044083334,"instrument":0,"program":4,"isDrum":false},{"pitch":60,"velocity":123,"startTime":12.672404500000063,"endTime":12.7974044083334,"instrument":0,"program":4,"isDrum":false},{"pitch":64,"velocity":123,"startTime":13.189645500000061,"endTime":14.219817158333392,"instrument":0,"program":4,"isDrum":false},{"pitch":67,"velocity":123,"startTime":13.189645500000061,"endTime":14.219817158333392,"instrument":0,"program":4,"isDrum":false},{"pitch":71,"velocity":123,"startTime":13.189645500000061,"endTime":14.219817158333392,"instrument":0,"program":4,"isDrum":false},{"pitch":64,"velocity":123,"startTime":14.482748000000065,"endTime":14.866368408333408,"instrument":0,"program":4,"isDrum":false},{"pitch":67,"velocity":123,"startTime":14.482748000000065,"endTime":14.737058158333404,"instrument":0,"program":4,"isDrum":false},{"pitch":71,"velocity":123,"startTime":14.482748000000065,"endTime":14.737058158333404,"instrument":0,"program":4,"isDrum":false},{"pitch":66,"velocity":123,"startTime":14.870678750000074,"endTime":14.99567865833341,"instrument":0,"program":4,"isDrum":false},{"pitch":69,"velocity":123,"startTime":14.870678750000074,"endTime":14.99567865833341,"instrument":0,"program":4,"isDrum":false},{"pitch":71,"velocity":123,"startTime":1.2079226507921703e-13,"endTime":0.2543101583334533,"instrument":2,"program":27,"isDrum":false},{"pitch":67,"velocity":123,"startTime":1.2079226507921703e-13,"endTime":0.2543101583334533,"instrument":2,"program":27,"isDrum":false},{"pitch":64,"velocity":123,"startTime":1.2079226507921703e-13,"endTime":0.2543101583334533,"instrument":2,"program":27,"isDrum":false},{"pitch":62,"velocity":123,"startTime":0.7758615000001186,"endTime":1.030171658333451,"instrument":2,"program":27,"isDrum":false},{"pitch":66,"velocity":123,"startTime":0.7758615000001186,"endTime":1.030171658333451,"instrument":2,"program":27,"isDrum":false},{"pitch":71,"velocity":123,"startTime":0.7758615000001186,"endTime":1.030171658333451,"instrument":2,"program":27,"isDrum":false},{"pitch":52,"velocity":123,"startTime":1.0344820000001178,"endTime":1.1594819083334542,"instrument":2,"program":27,"isDrum":false},{"pitch":52,"velocity":123,"startTime":1.2931025000001242,"endTime":1.4181024083334606,"instrument":2,"program":27,"isDrum":false},{"pitch":50,"velocity":123,"startTime":1.8103435000001298,"endTime":1.9353434083334662,"instrument":2,"program":27,"isDrum":false},{"pitch":52,"velocity":123,"startTime":1.939653750000133,"endTime":2.0646536583334694,"instrument":2,"program":27,"isDrum":false},{"pitch":55,"velocity":123,"startTime":2.068964000000136,"endTime":2.1939639083334725,"instrument":2,"program":27,"isDrum":false},{"pitch":52,"velocity":123,"startTime":2.1982742500001393,"endTime":2.3232741583334757,"instrument":2,"program":27,"isDrum":false},{"pitch":55,"velocity":123,"startTime":2.3275845000001425,"endTime":2.581894658333475,"instrument":2,"program":27,"isDrum":false},{"pitch":52,"velocity":123,"startTime":2.5862050000001418,"endTime":2.711204908333478,"instrument":2,"program":27,"isDrum":false},{"pitch":64,"velocity":123,"startTime":3.1034460000001474,"endTime":3.35775615833348,"instrument":2,"program":27,"isDrum":false},{"pitch":59,"velocity":123,"startTime":3.1034460000001474,"endTime":3.35775615833348,"instrument":2,"program":27,"isDrum":false},{"pitch":62,"velocity":123,"startTime":3.3620665000001466,"endTime":3.487066408333483,"instrument":2,"program":27,"isDrum":false},{"pitch":59,"velocity":123,"startTime":3.620687000000153,"endTime":3.7456869083334894,"instrument":2,"program":27,"isDrum":false},{"pitch":52,"velocity":123,"startTime":3.620687000000153,"endTime":3.7456869083334894,"instrument":2,"program":27,"isDrum":false},{"pitch":59,"velocity":123,"startTime":3.8793075000001593,"endTime":4.004307408333496,"instrument":2,"program":27,"isDrum":false},{"pitch":57,"velocity":123,"startTime":4.137928000000166,"endTime":4.262927908333502,"instrument":2,"program":27,"isDrum":false},{"pitch":55,"velocity":123,"startTime":4.396548500000172,"endTime":4.456893283333507,"instrument":2,"program":27,"isDrum":false},{"pitch":57,"velocity":123,"startTime":4.655169000000171,"endTime":4.780168908333508,"instrument":2,"program":27,"isDrum":false},{"pitch":57,"velocity":123,"startTime":5.172410000000177,"endTime":5.232754783333512,"instrument":2,"program":27,"isDrum":false},{"pitch":57,"velocity":123,"startTime":5.560340750000179,"endTime":5.620685533333514,"instrument":2,"program":27,"isDrum":false},{"pitch":57,"velocity":123,"startTime":5.6896510000001825,"endTime":5.749995783333517,"instrument":2,"program":27,"isDrum":false},{"pitch":52,"velocity":123,"startTime":5.948271500000182,"endTime":6.008616283333517,"instrument":2,"program":27,"isDrum":false},{"pitch":55,"velocity":123,"startTime":6.077581750000185,"endTime":6.13792653333352,"instrument":2,"program":27,"isDrum":false},{"pitch":57,"velocity":123,"startTime":6.206892000000188,"endTime":6.267236783333523,"instrument":2,"program":27,"isDrum":false},{"pitch":57,"velocity":123,"startTime":6.336202250000191,"endTime":6.396547033333526,"instrument":2,"program":27,"isDrum":false},{"pitch":57,"velocity":123,"startTime":6.4655125000001945,"endTime":6.525857283333529,"instrument":2,"program":27,"isDrum":false},{"pitch":55,"velocity":123,"startTime":6.594822750000198,"endTime":6.6551675333335325,"instrument":2,"program":27,"isDrum":false},{"pitch":52,"velocity":123,"startTime":6.9827535000002,"endTime":7.1077534083335365,"instrument":2,"program":27,"isDrum":false},{"pitch":55,"velocity":123,"startTime":7.2413740000002065,"endTime":7.301718783333541,"instrument":2,"program":27,"isDrum":false},{"pitch":55,"velocity":123,"startTime":7.37068425000021,"endTime":7.4310290333335445,"instrument":2,"program":27,"isDrum":false},{"pitch":57,"velocity":123,"startTime":7.499994500000213,"endTime":7.754304658333545,"instrument":2,"program":27,"isDrum":false},{"pitch":59,"velocity":123,"startTime":7.758615000000212,"endTime":8.012925158333545,"instrument":2,"program":27,"isDrum":false},{"pitch":62,"velocity":123,"startTime":8.017235500000211,"endTime":8.271545658333544,"instrument":2,"program":27,"isDrum":false},{"pitch":64,"velocity":123,"startTime":8.27585600000021,"endTime":8.659476408333546,"instrument":2,"program":27,"isDrum":false},{"pitch":67,"velocity":123,"startTime":8.27585600000021,"endTime":8.659476408333546,"instrument":2,"program":27,"isDrum":false},{"pitch":71,"velocity":123,"startTime":8.27585600000021,"endTime":8.659476408333546,"instrument":2,"program":27,"isDrum":false},{"pitch":71,"velocity":123,"startTime":8.663786750000213,"endTime":8.78878665833355,"instrument":2,"program":27,"isDrum":false},{"pitch":64,"velocity":123,"startTime":8.663786750000213,"endTime":8.78878665833355,"instrument":2,"program":27,"isDrum":false},{"pitch":67,"velocity":123,"startTime":8.663786750000213,"endTime":8.78878665833355,"instrument":2,"program":27,"isDrum":false},{"pitch":67,"velocity":123,"startTime":8.793097000000216,"endTime":8.797407341666883,"instrument":2,"program":27,"isDrum":false},{"pitch":64,"velocity":123,"startTime":8.793097000000216,"endTime":8.797407341666883,"instrument":2,"program":27,"isDrum":false},{"pitch":71,"velocity":123,"startTime":8.831890075000217,"endTime":8.836200416666884,"instrument":2,"program":27,"isDrum":false},{"pitch":62,"velocity":123,"startTime":9.051717500000215,"endTime":9.306027658333548,"instrument":2,"program":27,"isDrum":false},{"pitch":66,"velocity":123,"startTime":9.051717500000215,"endTime":9.306027658333548,"instrument":2,"program":27,"isDrum":false},{"pitch":71,"velocity":123,"startTime":9.051717500000215,"endTime":9.306027658333548,"instrument":2,"program":27,"isDrum":false},{"pitch":52,"velocity":123,"startTime":9.310338000000215,"endTime":9.435337908333551,"instrument":2,"program":27,"isDrum":false},{"pitch":52,"velocity":123,"startTime":9.568958500000221,"endTime":9.693958408333557,"instrument":2,"program":27,"isDrum":false},{"pitch":50,"velocity":123,"startTime":10.086199500000227,"endTime":10.211199408333563,"instrument":2,"program":27,"isDrum":false},{"pitch":52,"velocity":123,"startTime":10.21550975000023,"endTime":10.340509658333566,"instrument":2,"program":27,"isDrum":false},{"pitch":55,"velocity":123,"startTime":10.344820000000233,"endTime":10.46981990833357,"instrument":2,"program":27,"isDrum":false},{"pitch":52,"velocity":123,"startTime":10.474130250000236,"endTime":10.599130158333573,"instrument":2,"program":27,"isDrum":false},{"pitch":55,"velocity":123,"startTime":10.60344050000024,"endTime":10.857750658333572,"instrument":2,"program":27,"isDrum":false},{"pitch":52,"velocity":123,"startTime":10.862061000000239,"endTime":10.987060908333575,"instrument":2,"program":27,"isDrum":false},{"pitch":64,"velocity":123,"startTime":11.379302000000244,"endTime":11.633612158333577,"instrument":2,"program":27,"isDrum":false},{"pitch":59,"velocity":123,"startTime":11.379302000000244,"endTime":11.633612158333577,"instrument":2,"program":27,"isDrum":false},{"pitch":62,"velocity":123,"startTime":11.637922500000244,"endTime":11.698267283333578,"instrument":2,"program":27,"isDrum":false},{"pitch":64,"velocity":123,"startTime":11.896543000000243,"endTime":12.150853158333575,"instrument":2,"program":27,"isDrum":false},{"pitch":59,"velocity":123,"startTime":11.896543000000243,"endTime":12.150853158333575,"instrument":2,"program":27,"isDrum":false},{"pitch":62,"velocity":123,"startTime":12.155163500000242,"endTime":12.215508283333577,"instrument":2,"program":27,"isDrum":false},{"pitch":57,"velocity":123,"startTime":12.413784000000241,"endTime":12.538783908333578,"instrument":2,"program":27,"isDrum":false},{"pitch":55,"velocity":123,"startTime":12.672404500000248,"endTime":12.732749283333582,"instrument":2,"program":27,"isDrum":false},{"pitch":57,"velocity":123,"startTime":12.931025000000254,"endTime":13.05602490833359,"instrument":2,"program":27,"isDrum":false},{"pitch":57,"velocity":123,"startTime":13.448266000000253,"endTime":13.508610783333587,"instrument":2,"program":27,"isDrum":false},{"pitch":57,"velocity":123,"startTime":13.836196750000248,"endTime":13.896541533333583,"instrument":2,"program":27,"isDrum":false},{"pitch":57,"velocity":123,"startTime":13.965507000000251,"endTime":14.025851783333586,"instrument":2,"program":27,"isDrum":false},{"pitch":52,"velocity":123,"startTime":14.224127500000257,"endTime":14.284472283333592,"instrument":2,"program":27,"isDrum":false},{"pitch":55,"velocity":123,"startTime":14.35343775000026,"endTime":14.413782533333595,"instrument":2,"program":27,"isDrum":false},{"pitch":57,"velocity":123,"startTime":14.482748000000264,"endTime":14.543092783333599,"instrument":2,"program":27,"isDrum":false},{"pitch":57,"velocity":123,"startTime":14.612058250000267,"endTime":14.672403033333602,"instrument":2,"program":27,"isDrum":false},{"pitch":57,"velocity":123,"startTime":14.74136850000027,"endTime":14.801713283333605,"instrument":2,"program":27,"isDrum":false},{"pitch":55,"velocity":123,"startTime":14.870678750000273,"endTime":14.931023533333608,"instrument":2,"program":27,"isDrum":false},{"pitch":52,"velocity":123,"startTime":15.258609500000269,"endTime":15.383609408333605,"instrument":2,"program":27,"isDrum":false},{"pitch":55,"velocity":123,"startTime":15.517230000000275,"endTime":15.57757478333361,"instrument":2,"program":27,"isDrum":false},{"pitch":55,"velocity":123,"startTime":15.646540250000278,"endTime":15.706885033333613,"instrument":2,"program":27,"isDrum":false},{"pitch":57,"velocity":123,"startTime":15.775850500000281,"endTime":16.03016065833362,"instrument":2,"program":27,"isDrum":false},{"pitch":59,"velocity":123,"startTime":16.034471000000288,"endTime":16.288781158333627,"instrument":2,"program":27,"isDrum":false},{"pitch":62,"velocity":123,"startTime":16.293091500000294,"endTime":16.547401658333634,"instrument":2,"program":27,"isDrum":false},{"pitch":45,"velocity":123,"startTime":13.448266000000011,"endTime":13.508610783333346,"instrument":5,"program":34,"isDrum":false},{"pitch":45,"velocity":123,"startTime":13.836196750000006,"endTime":13.896541533333341,"instrument":5,"program":34,"isDrum":false},{"pitch":31,"velocity":117,"startTime":4.263256414560601e-14,"endTime":0.2543101583333751,"instrument":6,"program":35,"isDrum":false},{"pitch":28,"velocity":117,"startTime":0.7758615000000404,"endTime":0.9655165333333713,"instrument":6,"program":35,"isDrum":false},{"pitch":38,"velocity":117,"startTime":1.8103435000000374,"endTime":1.9353434083333738,"instrument":6,"program":35,"isDrum":false},{"pitch":40,"velocity":117,"startTime":1.9396537500000406,"endTime":2.064653658333377,"instrument":6,"program":35,"isDrum":false},{"pitch":43,"velocity":117,"startTime":2.0689640000000438,"endTime":2.19396390833338,"instrument":6,"program":35,"isDrum":false},{"pitch":43,"velocity":117,"startTime":2.32758450000005,"endTime":2.5818946583333826,"instrument":6,"program":35,"isDrum":false},{"pitch":40,"velocity":117,"startTime":2.5862050000000494,"endTime":2.7758600333333803,"instrument":6,"program":35,"isDrum":false},{"pitch":38,"velocity":117,"startTime":3.6206870000000464,"endTime":3.745686908333383,"instrument":6,"program":35,"isDrum":false},{"pitch":40,"velocity":117,"startTime":3.7499972500000496,"endTime":3.874997158333386,"instrument":6,"program":35,"isDrum":false},{"pitch":43,"velocity":117,"startTime":3.8793075000000528,"endTime":4.004307408333389,"instrument":6,"program":35,"isDrum":false},{"pitch":45,"velocity":117,"startTime":4.008617750000056,"endTime":4.133617658333392,"instrument":6,"program":35,"isDrum":false},{"pitch":33,"velocity":117,"startTime":4.396548500000058,"endTime":4.650858658333391,"instrument":6,"program":35,"isDrum":false},{"pitch":31,"velocity":117,"startTime":5.948271500000061,"endTime":6.073271408333397,"instrument":6,"program":35,"isDrum":false},{"pitch":33,"velocity":117,"startTime":6.077581750000064,"endTime":6.137926533333399,"instrument":6,"program":35,"isDrum":false},{"pitch":36,"velocity":117,"startTime":6.206892000000067,"endTime":6.331891908333404,"instrument":6,"program":35,"isDrum":false},{"pitch":33,"velocity":117,"startTime":6.3362022500000705,"endTime":6.461202158333407,"instrument":6,"program":35,"isDrum":false},{"pitch":36,"velocity":117,"startTime":6.465512500000074,"endTime":6.719822658333406,"instrument":6,"program":35,"isDrum":false},{"pitch":33,"velocity":117,"startTime":6.724133000000073,"endTime":6.849132908333409,"instrument":6,"program":35,"isDrum":false},{"pitch":31,"velocity":117,"startTime":8.275856000000076,"endTime":8.530166158333408,"instrument":6,"program":35,"isDrum":false},{"pitch":28,"velocity":117,"startTime":9.051717500000073,"endTime":9.306027658333406,"instrument":6,"program":35,"isDrum":false},{"pitch":38,"velocity":117,"startTime":10.08619950000007,"endTime":10.211199408333407,"instrument":6,"program":35,"isDrum":false},{"pitch":40,"velocity":117,"startTime":10.215509750000074,"endTime":10.34050965833341,"instrument":6,"program":35,"isDrum":false},{"pitch":43,"velocity":117,"startTime":10.344820000000077,"endTime":10.469819908333413,"instrument":6,"program":35,"isDrum":false},{"pitch":40,"velocity":117,"startTime":10.47413025000008,"endTime":10.599130158333416,"instrument":6,"program":35,"isDrum":false},{"pitch":43,"velocity":117,"startTime":10.603440500000083,"endTime":10.857750658333416,"instrument":6,"program":35,"isDrum":false},{"pitch":40,"velocity":117,"startTime":10.862061000000082,"endTime":10.987060908333419,"instrument":6,"program":35,"isDrum":false},{"pitch":33,"velocity":117,"startTime":11.896543000000086,"endTime":12.021542908333423,"instrument":6,"program":35,"isDrum":false},{"pitch":35,"velocity":117,"startTime":12.02585325000009,"endTime":12.150853158333426,"instrument":6,"program":35,"isDrum":false},{"pitch":38,"velocity":117,"startTime":12.155163500000093,"endTime":12.28016340833343,"instrument":6,"program":35,"isDrum":false},{"pitch":40,"velocity":117,"startTime":12.284473750000096,"endTime":12.409473658333432,"instrument":6,"program":35,"isDrum":false},{"pitch":33,"velocity":117,"startTime":12.672404500000106,"endTime":12.926714658333445,"instrument":6,"program":35,"isDrum":false},{"pitch":31,"velocity":117,"startTime":14.224127500000115,"endTime":14.349127408333452,"instrument":6,"program":35,"isDrum":false},{"pitch":33,"velocity":117,"startTime":14.353437750000118,"endTime":14.478437658333455,"instrument":6,"program":35,"isDrum":false},{"pitch":36,"velocity":117,"startTime":14.482748000000122,"endTime":14.607747908333458,"instrument":6,"program":35,"isDrum":false},{"pitch":33,"velocity":117,"startTime":14.612058250000125,"endTime":14.737058158333461,"instrument":6,"program":35,"isDrum":false},{"pitch":36,"velocity":117,"startTime":14.741368500000128,"endTime":14.995678658333468,"instrument":6,"program":35,"isDrum":false},{"pitch":33,"velocity":117,"startTime":14.999989000000134,"endTime":15.12498890833347,"instrument":6,"program":35,"isDrum":false},{"pitch":40,"velocity":117,"startTime":16.03447100000013,"endTime":16.547401658333477,"instrument":6,"program":35,"isDrum":false},{"pitch":31,"velocity":118,"startTime":4.263256414560601e-14,"endTime":0.2543101583333751,"instrument":7,"program":87,"isDrum":false},{"pitch":28,"velocity":118,"startTime":0.7758615000000404,"endTime":1.0301716583333729,"instrument":7,"program":87,"isDrum":false},{"pitch":31,"velocity":118,"startTime":8.27585600000004,"endTime":8.530166158333373,"instrument":7,"program":87,"isDrum":false},{"pitch":28,"velocity":118,"startTime":9.051717500000038,"endTime":9.30602765833337,"instrument":7,"program":87,"isDrum":false},{"pitch":36,"velocity":128,"startTime":4.050093593832571e-13,"endTime":0.2543101583337375,"instrument":8,"program":0,"isDrum":true},{"pitch":57,"velocity":121,"startTime":4.050093593832571e-13,"endTime":0.5129306583337438,"instrument":8,"program":0,"isDrum":true},{"pitch":42,"velocity":103,"startTime":0.25862050000040426,"endTime":0.38362040833374067,"instrument":8,"program":0,"isDrum":true},{"pitch":38,"velocity":128,"startTime":0.5172410000004106,"endTime":0.642240908333747,"instrument":8,"program":0,"isDrum":true},{"pitch":42,"velocity":103,"startTime":0.5172410000004106,"endTime":0.642240908333747,"instrument":8,"program":0,"isDrum":true},{"pitch":36,"velocity":128,"startTime":0.775861500000417,"endTime":0.9008614083337534,"instrument":8,"program":0,"isDrum":true},{"pitch":46,"velocity":115,"startTime":0.775861500000417,"endTime":0.9008614083337534,"instrument":8,"program":0,"isDrum":true},{"pitch":42,"velocity":103,"startTime":1.0344820000004233,"endTime":1.1594819083337597,"instrument":8,"program":0,"isDrum":true},{"pitch":42,"velocity":103,"startTime":1.2931025000004297,"endTime":1.418102408333766,"instrument":8,"program":0,"isDrum":true},{"pitch":38,"velocity":128,"startTime":1.551723000000436,"endTime":1.6767229083337725,"instrument":8,"program":0,"isDrum":true},{"pitch":42,"velocity":103,"startTime":1.8103435000004424,"endTime":1.9353434083337788,"instrument":8,"program":0,"isDrum":true},{"pitch":36,"velocity":128,"startTime":2.0689640000004488,"endTime":2.193963908333785,"instrument":8,"program":0,"isDrum":true},{"pitch":42,"velocity":103,"startTime":2.0689640000004488,"endTime":2.193963908333785,"instrument":8,"program":0,"isDrum":true},{"pitch":42,"velocity":103,"startTime":2.327584500000455,"endTime":2.4525844083337915,"instrument":8,"program":0,"isDrum":true},{"pitch":42,"velocity":103,"startTime":2.5862050000004615,"endTime":2.711204908333798,"instrument":8,"program":0,"isDrum":true},{"pitch":38,"velocity":128,"startTime":2.5862050000004615,"endTime":2.711204908333798,"instrument":8,"program":0,"isDrum":true},{"pitch":42,"velocity":103,"startTime":2.844825500000468,"endTime":2.9698254083338043,"instrument":8,"program":0,"isDrum":true},{"pitch":42,"velocity":103,"startTime":3.103446000000474,"endTime":3.2284459083338106,"instrument":8,"program":0,"isDrum":true},{"pitch":36,"velocity":128,"startTime":3.103446000000474,"endTime":3.2284459083338106,"instrument":8,"program":0,"isDrum":true},{"pitch":42,"velocity":103,"startTime":3.3620665000004806,"endTime":3.487066408333817,"instrument":8,"program":0,"isDrum":true},{"pitch":38,"velocity":128,"startTime":3.620687000000487,"endTime":3.7456869083338233,"instrument":8,"program":0,"isDrum":true},{"pitch":42,"velocity":103,"startTime":3.620687000000487,"endTime":3.7456869083338233,"instrument":8,"program":0,"isDrum":true},{"pitch":42,"velocity":103,"startTime":3.8793075000004933,"endTime":4.00430740833383,"instrument":8,"program":0,"isDrum":true},{"pitch":36,"velocity":128,"startTime":4.1379280000005,"endTime":4.262927908333836,"instrument":8,"program":0,"isDrum":true},{"pitch":42,"velocity":103,"startTime":4.1379280000005,"endTime":4.262927908333836,"instrument":8,"program":0,"isDrum":true},{"pitch":36,"velocity":128,"startTime":4.396548500000506,"endTime":4.521548408333842,"instrument":8,"program":0,"isDrum":true},{"pitch":46,"velocity":115,"startTime":4.396548500000506,"endTime":4.521548408333842,"instrument":8,"program":0,"isDrum":true},{"pitch":38,"velocity":128,"startTime":4.655169000000512,"endTime":4.780168908333849,"instrument":8,"program":0,"isDrum":true},{"pitch":42,"velocity":103,"startTime":4.655169000000512,"endTime":4.780168908333849,"instrument":8,"program":0,"isDrum":true},{"pitch":42,"velocity":103,"startTime":4.913789500000519,"endTime":5.038789408333855,"instrument":8,"program":0,"isDrum":true},{"pitch":36,"velocity":128,"startTime":5.172410000000525,"endTime":5.2974099083338615,"instrument":8,"program":0,"isDrum":true},{"pitch":42,"velocity":103,"startTime":5.172410000000525,"endTime":5.2974099083338615,"instrument":8,"program":0,"isDrum":true},{"pitch":42,"velocity":103,"startTime":5.4310305000005314,"endTime":5.556030408333868,"instrument":8,"program":0,"isDrum":true},{"pitch":42,"velocity":103,"startTime":5.689651000000538,"endTime":5.814650908333874,"instrument":8,"program":0,"isDrum":true},{"pitch":38,"velocity":128,"startTime":5.689651000000538,"endTime":5.814650908333874,"instrument":8,"program":0,"isDrum":true},{"pitch":42,"velocity":103,"startTime":5.948271500000544,"endTime":6.073271408333881,"instrument":8,"program":0,"isDrum":true},{"pitch":36,"velocity":128,"startTime":6.2068920000005505,"endTime":6.331891908333887,"instrument":8,"program":0,"isDrum":true},{"pitch":42,"velocity":103,"startTime":6.2068920000005505,"endTime":6.331891908333887,"instrument":8,"program":0,"isDrum":true},{"pitch":42,"velocity":103,"startTime":6.465512500000557,"endTime":6.590512408333893,"instrument":8,"program":0,"isDrum":true},{"pitch":38,"velocity":128,"startTime":6.724133000000563,"endTime":6.8491329083339,"instrument":8,"program":0,"isDrum":true},{"pitch":42,"velocity":103,"startTime":6.724133000000563,"endTime":6.8491329083339,"instrument":8,"program":0,"isDrum":true},{"pitch":42,"velocity":103,"startTime":6.98275350000057,"endTime":7.107753408333906,"instrument":8,"program":0,"isDrum":true},{"pitch":36,"velocity":128,"startTime":7.241374000000576,"endTime":7.366373908333912,"instrument":8,"program":0,"isDrum":true},{"pitch":42,"velocity":103,"startTime":7.241374000000576,"endTime":7.366373908333912,"instrument":8,"program":0,"isDrum":true},{"pitch":42,"velocity":103,"startTime":7.499994500000582,"endTime":7.624994408333919,"instrument":8,"program":0,"isDrum":true},{"pitch":38,"velocity":128,"startTime":7.758615000000589,"endTime":7.883614908333925,"instrument":8,"program":0,"isDrum":true},{"pitch":42,"velocity":103,"startTime":7.758615000000589,"endTime":7.883614908333925,"instrument":8,"program":0,"isDrum":true},{"pitch":42,"velocity":103,"startTime":8.017235500000595,"endTime":8.142235408333931,"instrument":8,"program":0,"isDrum":true},{"pitch":36,"velocity":128,"startTime":8.275856000000601,"endTime":8.530166158333934,"instrument":8,"program":0,"isDrum":true},{"pitch":57,"velocity":121,"startTime":8.275856000000601,"endTime":8.78878665833394,"instrument":8,"program":0,"isDrum":true},{"pitch":42,"velocity":103,"startTime":8.5344765000006,"endTime":8.659476408333937,"instrument":8,"program":0,"isDrum":true},{"pitch":38,"velocity":128,"startTime":8.793097000000607,"endTime":8.918096908333943,"instrument":8,"program":0,"isDrum":true},{"pitch":42,"velocity":103,"startTime":8.793097000000607,"endTime":8.918096908333943,"instrument":8,"program":0,"isDrum":true},{"pitch":36,"velocity":128,"startTime":9.051717500000613,"endTime":9.17671740833395,"instrument":8,"program":0,"isDrum":true},{"pitch":46,"velocity":115,"startTime":9.051717500000613,"endTime":9.17671740833395,"instrument":8,"program":0,"isDrum":true},{"pitch":42,"velocity":103,"startTime":9.31033800000062,"endTime":9.435337908333956,"instrument":8,"program":0,"isDrum":true},{"pitch":42,"velocity":103,"startTime":9.568958500000626,"endTime":9.693958408333962,"instrument":8,"program":0,"isDrum":true},{"pitch":38,"velocity":128,"startTime":9.827579000000632,"endTime":9.952578908333969,"instrument":8,"program":0,"isDrum":true},{"pitch":42,"velocity":103,"startTime":10.086199500000639,"endTime":10.211199408333975,"instrument":8,"program":0,"isDrum":true},{"pitch":36,"velocity":128,"startTime":10.344820000000645,"endTime":10.469819908333982,"instrument":8,"program":0,"isDrum":true},{"pitch":42,"velocity":103,"startTime":10.344820000000645,"endTime":10.469819908333982,"instrument":8,"program":0,"isDrum":true},{"pitch":42,"velocity":103,"startTime":10.603440500000652,"endTime":10.728440408333988,"instrument":8,"program":0,"isDrum":true},{"pitch":42,"velocity":103,"startTime":10.862061000000658,"endTime":10.987060908333994,"instrument":8,"program":0,"isDrum":true},{"pitch":38,"velocity":128,"startTime":10.862061000000658,"endTime":10.987060908333994,"instrument":8,"program":0,"isDrum":true},{"pitch":42,"velocity":103,"startTime":11.120681500000664,"endTime":11.245681408334,"instrument":8,"program":0,"isDrum":true},{"pitch":42,"velocity":103,"startTime":11.37930200000067,"endTime":11.504301908334007,"instrument":8,"program":0,"isDrum":true},{"pitch":36,"velocity":128,"startTime":11.37930200000067,"endTime":11.504301908334007,"instrument":8,"program":0,"isDrum":true},{"pitch":42,"velocity":103,"startTime":11.637922500000677,"endTime":11.762922408334013,"instrument":8,"program":0,"isDrum":true},{"pitch":38,"velocity":128,"startTime":11.896543000000683,"endTime":12.02154290833402,"instrument":8,"program":0,"isDrum":true},{"pitch":42,"velocity":103,"startTime":11.896543000000683,"endTime":12.02154290833402,"instrument":8,"program":0,"isDrum":true},{"pitch":42,"velocity":103,"startTime":12.15516350000069,"endTime":12.280163408334026,"instrument":8,"program":0,"isDrum":true},{"pitch":36,"velocity":128,"startTime":12.413784000000696,"endTime":12.538783908334032,"instrument":8,"program":0,"isDrum":true},{"pitch":42,"velocity":103,"startTime":12.413784000000696,"endTime":12.538783908334032,"instrument":8,"program":0,"isDrum":true},{"pitch":36,"velocity":128,"startTime":12.672404500000702,"endTime":12.797404408334039,"instrument":8,"program":0,"isDrum":true},{"pitch":46,"velocity":115,"startTime":12.672404500000702,"endTime":12.797404408334039,"instrument":8,"program":0,"isDrum":true},{"pitch":38,"velocity":128,"startTime":12.931025000000709,"endTime":13.056024908334045,"instrument":8,"program":0,"isDrum":true},{"pitch":42,"velocity":103,"startTime":12.931025000000709,"endTime":13.056024908334045,"instrument":8,"program":0,"isDrum":true},{"pitch":42,"velocity":103,"startTime":13.189645500000715,"endTime":13.314645408334052,"instrument":8,"program":0,"isDrum":true},{"pitch":36,"velocity":128,"startTime":13.448266000000721,"endTime":13.573265908334058,"instrument":8,"program":0,"isDrum":true},{"pitch":42,"velocity":103,"startTime":13.448266000000721,"endTime":13.573265908334058,"instrument":8,"program":0,"isDrum":true},{"pitch":42,"velocity":103,"startTime":13.706886500000728,"endTime":13.831886408334064,"instrument":8,"program":0,"isDrum":true},{"pitch":42,"velocity":103,"startTime":13.965507000000734,"endTime":14.09050690833407,"instrument":8,"program":0,"isDrum":true},{"pitch":38,"velocity":128,"startTime":13.965507000000734,"endTime":14.09050690833407,"instrument":8,"program":0,"isDrum":true},{"pitch":42,"velocity":103,"startTime":14.22412750000074,"endTime":14.349127408334077,"instrument":8,"program":0,"isDrum":true},{"pitch":36,"velocity":128,"startTime":14.482748000000747,"endTime":14.607747908334083,"instrument":8,"program":0,"isDrum":true},{"pitch":42,"velocity":103,"startTime":14.482748000000747,"endTime":14.607747908334083,"instrument":8,"program":0,"isDrum":true},{"pitch":42,"velocity":103,"startTime":14.741368500000753,"endTime":14.86636840833409,"instrument":8,"program":0,"isDrum":true},{"pitch":38,"velocity":128,"startTime":14.99998900000076,"endTime":15.124988908334096,"instrument":8,"program":0,"isDrum":true},{"pitch":42,"velocity":103,"startTime":14.99998900000076,"endTime":15.124988908334096,"instrument":8,"program":0,"isDrum":true},{"pitch":42,"velocity":103,"startTime":15.258609500000766,"endTime":15.383609408334102,"instrument":8,"program":0,"isDrum":true},{"pitch":36,"velocity":128,"startTime":15.517230000000772,"endTime":15.642229908334109,"instrument":8,"program":0,"isDrum":true},{"pitch":42,"velocity":103,"startTime":15.517230000000772,"endTime":15.642229908334109,"instrument":8,"program":0,"isDrum":true},{"pitch":42,"velocity":103,"startTime":15.775850500000779,"endTime":15.900850408334115,"instrument":8,"program":0,"isDrum":true},{"pitch":38,"velocity":128,"startTime":16.034471000000785,"endTime":16.15947090833412,"instrument":8,"program":0,"isDrum":true},{"pitch":42,"velocity":103,"startTime":16.034471000000785,"endTime":16.15947090833412,"instrument":8,"program":0,"isDrum":true},{"pitch":42,"velocity":103,"startTime":16.29309150000079,"endTime":16.418091408334128,"instrument":8,"program":0,"isDrum":true},{"pitch":69,"velocity":98,"startTime":0.5172410000001619,"endTime":0.6422409083334983,"instrument":9,"program":0,"isDrum":true},{"pitch":39,"velocity":86,"startTime":0.5172410000001619,"endTime":0.6422409083334983,"instrument":9,"program":0,"isDrum":true},{"pitch":39,"velocity":86,"startTime":0.5387927083334958,"endTime":0.6637926166668322,"instrument":9,"program":0,"isDrum":true},{"pitch":69,"velocity":98,"startTime":0.7758615000001683,"endTime":0.9008614083335047,"instrument":9,"program":0,"isDrum":true},{"pitch":39,"velocity":86,"startTime":1.5517230000001732,"endTime":1.6767229083335096,"instrument":9,"program":0,"isDrum":true},{"pitch":39,"velocity":86,"startTime":1.573274708333507,"endTime":1.6982746166668434,"instrument":9,"program":0,"isDrum":true},{"pitch":39,"velocity":86,"startTime":2.5862050000001773,"endTime":2.7112049083335137,"instrument":9,"program":0,"isDrum":true},{"pitch":69,"velocity":98,"startTime":2.5862050000001773,"endTime":2.7112049083335137,"instrument":9,"program":0,"isDrum":true},{"pitch":39,"velocity":86,"startTime":2.607756708333511,"endTime":2.7327566166668475,"instrument":9,"program":0,"isDrum":true},{"pitch":69,"velocity":98,"startTime":2.8448255000001836,"endTime":2.96982540833352,"instrument":9,"program":0,"isDrum":true},{"pitch":39,"velocity":86,"startTime":3.6206870000001885,"endTime":3.745686908333525,"instrument":9,"program":0,"isDrum":true},{"pitch":39,"velocity":86,"startTime":3.6422387083335224,"endTime":3.7672386166668588,"instrument":9,"program":0,"isDrum":true},{"pitch":69,"velocity":98,"startTime":4.655169000000193,"endTime":4.780168908333529,"instrument":9,"program":0,"isDrum":true},{"pitch":39,"velocity":86,"startTime":4.655169000000193,"endTime":4.780168908333529,"instrument":9,"program":0,"isDrum":true},{"pitch":39,"velocity":86,"startTime":4.6767207083335265,"endTime":4.801720616666863,"instrument":9,"program":0,"isDrum":true},{"pitch":69,"velocity":98,"startTime":4.913789500000199,"endTime":5.038789408333535,"instrument":9,"program":0,"isDrum":true},{"pitch":39,"velocity":86,"startTime":5.689651000000204,"endTime":5.81465090833354,"instrument":9,"program":0,"isDrum":true},{"pitch":39,"velocity":86,"startTime":5.711202708333538,"endTime":5.836202616666874,"instrument":9,"program":0,"isDrum":true},{"pitch":39,"velocity":86,"startTime":6.724133000000208,"endTime":6.849132908333544,"instrument":9,"program":0,"isDrum":true},{"pitch":69,"velocity":98,"startTime":6.724133000000208,"endTime":6.849132908333544,"instrument":9,"program":0,"isDrum":true},{"pitch":39,"velocity":86,"startTime":6.745684708333542,"endTime":6.870684616666878,"instrument":9,"program":0,"isDrum":true},{"pitch":69,"velocity":98,"startTime":6.982753500000214,"endTime":7.107753408333551,"instrument":9,"program":0,"isDrum":true},{"pitch":39,"velocity":86,"startTime":7.758615000000219,"endTime":7.883614908333556,"instrument":9,"program":0,"isDrum":true},{"pitch":39,"velocity":86,"startTime":7.780166708333553,"endTime":7.9051666166668895,"instrument":9,"program":0,"isDrum":true},{"pitch":69,"velocity":98,"startTime":8.793097000000223,"endTime":8.91809690833356,"instrument":9,"program":0,"isDrum":true},{"pitch":39,"velocity":86,"startTime":8.793097000000223,"endTime":8.91809690833356,"instrument":9,"program":0,"isDrum":true},{"pitch":39,"velocity":86,"startTime":8.814648708333557,"endTime":8.939648616666894,"instrument":9,"program":0,"isDrum":true},{"pitch":69,"velocity":98,"startTime":9.05171750000023,"endTime":9.176717408333566,"instrument":9,"program":0,"isDrum":true},{"pitch":39,"velocity":86,"startTime":9.827579000000235,"endTime":9.952578908333571,"instrument":9,"program":0,"isDrum":true},{"pitch":39,"velocity":86,"startTime":9.849130708333568,"endTime":9.974130616666905,"instrument":9,"program":0,"isDrum":true},{"pitch":39,"velocity":86,"startTime":10.862061000000239,"endTime":10.987060908333575,"instrument":9,"program":0,"isDrum":true},{"pitch":69,"velocity":98,"startTime":10.862061000000239,"endTime":10.987060908333575,"instrument":9,"program":0,"isDrum":true},{"pitch":39,"velocity":86,"startTime":10.883612708333573,"endTime":11.008612616666909,"instrument":9,"program":0,"isDrum":true},{"pitch":69,"velocity":98,"startTime":11.120681500000245,"endTime":11.245681408333581,"instrument":9,"program":0,"isDrum":true},{"pitch":39,"velocity":86,"startTime":11.89654300000025,"endTime":12.021542908333586,"instrument":9,"program":0,"isDrum":true},{"pitch":39,"velocity":86,"startTime":11.918094708333584,"endTime":12.04309461666692,"instrument":9,"program":0,"isDrum":true},{"pitch":69,"velocity":98,"startTime":12.931025000000254,"endTime":13.05602490833359,"instrument":9,"program":0,"isDrum":true},{"pitch":39,"velocity":86,"startTime":12.931025000000254,"endTime":13.05602490833359,"instrument":9,"program":0,"isDrum":true},{"pitch":39,"velocity":86,"startTime":12.952576708333588,"endTime":13.077576616666924,"instrument":9,"program":0,"isDrum":true},{"pitch":69,"velocity":98,"startTime":13.18964550000026,"endTime":13.314645408333597,"instrument":9,"program":0,"isDrum":true},{"pitch":39,"velocity":86,"startTime":13.965507000000265,"endTime":14.090506908333602,"instrument":9,"program":0,"isDrum":true},{"pitch":39,"velocity":86,"startTime":13.987058708333599,"endTime":14.112058616666936,"instrument":9,"program":0,"isDrum":true},{"pitch":39,"velocity":86,"startTime":14.999989000000262,"endTime":15.124988908333599,"instrument":9,"program":0,"isDrum":true},{"pitch":69,"velocity":98,"startTime":14.999989000000262,"endTime":15.124988908333599,"instrument":9,"program":0,"isDrum":true},{"pitch":39,"velocity":86,"startTime":15.021540708333596,"endTime":15.146540616666933,"instrument":9,"program":0,"isDrum":true},{"pitch":69,"velocity":98,"startTime":15.258609500000269,"endTime":15.383609408333605,"instrument":9,"program":0,"isDrum":true},{"pitch":39,"velocity":86,"startTime":16.034471000000273,"endTime":16.15947090833361,"instrument":9,"program":0,"isDrum":true},{"pitch":39,"velocity":86,"startTime":16.056022708333607,"endTime":16.181022616666944,"instrument":9,"program":0,"isDrum":true}],"totalTime":68.275812,"sourceInfo":{"encodingType":"MIDI","parser":"TONEJS_MIDI_CONVERT"}},"tempo":116,"selectedInstruments":[0,1,2,3,4,5,6,7,8,9]},"output":{"trimmedSequence":{"filename":"lithium__fanvoy.mid","tempos":[{"qpm":116.00008506672904}],"notes":[{"pitch":36,"velocity":105,"endTime":0.12931025000000002,"isDrum":true},{"pitch":42,"velocity":105,"endTime":0.12931025000000002,"isDrum":true},{"pitch":42,"velocity":105,"startTime":0.25862050000000003,"endTime":0.38793075000000005,"isDrum":true},{"pitch":38,"velocity":105,"startTime":0.5172410000000001,"endTime":0.64655125,"isDrum":true},{"pitch":39,"velocity":105,"startTime":0.5172410000000001,"endTime":0.64655125,"isDrum":true},{"pitch":42,"velocity":105,"startTime":0.5172410000000001,"endTime":0.64655125,"isDrum":true},{"pitch":69,"velocity":105,"startTime":0.5172410000000001,"endTime":0.64655125,"isDrum":true},{"pitch":36,"velocity":105,"startTime":0.7758615000000001,"endTime":0.90517175,"isDrum":true},{"pitch":42,"velocity":105,"startTime":0.7758615000000001,"endTime":0.90517175,"isDrum":true},{"pitch":36,"velocity":105,"startTime":1.0344820000000001,"endTime":1.16379225,"isDrum":true},{"pitch":42,"velocity":105,"startTime":1.0344820000000001,"endTime":1.16379225,"isDrum":true},{"pitch":42,"velocity":105,"startTime":1.2931025,"endTime":1.4224127500000001,"isDrum":true},{"pitch":38,"velocity":105,"startTime":1.5517230000000002,"endTime":1.68103325,"isDrum":true},{"pitch":39,"velocity":105,"startTime":1.5517230000000002,"endTime":1.68103325,"isDrum":true},{"pitch":42,"velocity":105,"startTime":1.5517230000000002,"endTime":1.68103325,"isDrum":true},{"pitch":69,"velocity":105,"startTime":1.5517230000000002,"endTime":1.68103325,"isDrum":true},{"pitch":36,"velocity":105,"startTime":1.8103435,"endTime":1.9396537500000002,"isDrum":true},{"pitch":42,"velocity":105,"startTime":1.8103435,"endTime":1.9396537500000002,"isDrum":true},{"pitch":36,"velocity":105,"startTime":2.0689640000000002,"endTime":2.1982742500000003,"isDrum":true},{"pitch":42,"velocity":105,"startTime":2.0689640000000002,"endTime":2.1982742500000003,"isDrum":true},{"pitch":42,"velocity":105,"startTime":2.3275845,"endTime":2.45689475,"isDrum":true},{"pitch":38,"velocity":105,"startTime":2.586205,"endTime":2.71551525,"isDrum":true},{"pitch":39,"velocity":105,"startTime":2.586205,"endTime":2.71551525,"isDrum":true},{"pitch":42,"velocity":105,"startTime":2.586205,"endTime":2.71551525,"isDrum":true},{"pitch":69,"velocity":105,"startTime":2.586205,"endTime":2.71551525,"isDrum":true},{"pitch":36,"velocity":105,"startTime":2.8448255000000002,"endTime":2.9741357500000003,"isDrum":true},{"pitch":42,"velocity":105,"startTime":2.8448255000000002,"endTime":2.9741357500000003,"isDrum":true},{"pitch":36,"velocity":105,"startTime":3.1034460000000004,"endTime":3.23275625,"isDrum":true},{"pitch":42,"velocity":105,"startTime":3.1034460000000004,"endTime":3.23275625,"isDrum":true},{"pitch":42,"velocity":105,"startTime":3.3620665,"endTime":3.49137675,"isDrum":true},{"pitch":38,"velocity":105,"startTime":3.620687,"endTime":3.7499972500000003,"isDrum":true},{"pitch":39,"velocity":105,"startTime":3.620687,"endTime":3.7499972500000003,"isDrum":true},{"pitch":42,"velocity":105,"startTime":3.620687,"endTime":3.7499972500000003,"isDrum":true},{"pitch":69,"velocity":105,"startTime":3.620687,"endTime":3.7499972500000003,"isDrum":true},{"pitch":36,"velocity":105,"startTime":3.8793075000000004,"endTime":4.00861775,"isDrum":true},{"pitch":42,"velocity":105,"startTime":3.8793075000000004,"endTime":4.00861775,"isDrum":true},{"pitch":36,"velocity":105,"startTime":4.1379280000000005,"endTime":4.26723825,"isDrum":true},{"pitch":42,"velocity":105,"startTime":4.1379280000000005,"endTime":4.26723825,"isDrum":true},{"pitch":42,"velocity":105,"startTime":4.396548500000001,"endTime":4.52585875,"isDrum":true},{"pitch":38,"velocity":105,"startTime":4.655169,"endTime":4.78447925,"isDrum":true},{"pitch":39,"velocity":105,"startTime":4.655169,"endTime":4.78447925,"isDrum":true},{"pitch":42,"velocity":105,"startTime":4.655169,"endTime":4.78447925,"isDrum":true},{"pitch":69,"velocity":105,"startTime":4.655169,"endTime":4.78447925,"isDrum":true},{"pitch":36,"velocity":105,"startTime":4.9137895,"endTime":5.0430997500000005,"isDrum":true},{"pitch":42,"velocity":105,"startTime":4.9137895,"endTime":5.0430997500000005,"isDrum":true},{"pitch":36,"velocity":105,"startTime":5.17241,"endTime":5.301720250000001,"isDrum":true},{"pitch":42,"velocity":105,"startTime":5.17241,"endTime":5.301720250000001,"isDrum":true},{"pitch":42,"velocity":105,"startTime":5.4310305,"endTime":5.56034075,"isDrum":true},{"pitch":38,"velocity":105,"startTime":5.6896510000000005,"endTime":5.81896125,"isDrum":true},{"pitch":39,"velocity":105,"startTime":5.6896510000000005,"endTime":5.81896125,"isDrum":true},{"pitch":42,"velocity":105,"startTime":5.6896510000000005,"endTime":5.81896125,"isDrum":true},{"pitch":69,"velocity":105,"startTime":5.6896510000000005,"endTime":5.81896125,"isDrum":true},{"pitch":36,"velocity":105,"startTime":5.948271500000001,"endTime":6.07758175,"isDrum":true},{"pitch":42,"velocity":105,"startTime":5.948271500000001,"endTime":6.07758175,"isDrum":true},{"pitch":36,"velocity":105,"startTime":6.206892000000001,"endTime":6.33620225,"isDrum":true},{"pitch":42,"velocity":105,"startTime":6.206892000000001,"endTime":6.33620225,"isDrum":true},{"pitch":42,"velocity":105,"startTime":6.4655125,"endTime":6.5948227500000005,"isDrum":true},{"pitch":38,"velocity":105,"startTime":6.724133,"endTime":6.853443250000001,"isDrum":true},{"pitch":39,"velocity":105,"startTime":6.724133,"endTime":6.853443250000001,"isDrum":true},{"pitch":42,"velocity":105,"startTime":6.724133,"endTime":6.853443250000001,"isDrum":true},{"pitch":69,"velocity":105,"startTime":6.724133,"endTime":6.853443250000001,"isDrum":true},{"pitch":36,"velocity":105,"startTime":6.9827535,"endTime":7.112063750000001,"isDrum":true},{"pitch":42,"velocity":105,"startTime":6.9827535,"endTime":7.112063750000001,"isDrum":true},{"pitch":36,"velocity":105,"startTime":7.241374,"endTime":7.37068425,"isDrum":true},{"pitch":42,"velocity":105,"startTime":7.241374,"endTime":7.37068425,"isDrum":true},{"pitch":42,"velocity":105,"startTime":7.499994500000001,"endTime":7.62930475,"isDrum":true},{"pitch":38,"velocity":105,"startTime":7.758615000000001,"endTime":7.88792525,"isDrum":true},{"pitch":39,"velocity":105,"startTime":7.758615000000001,"endTime":7.88792525,"isDrum":true},{"pitch":42,"velocity":105,"startTime":7.758615000000001,"endTime":7.88792525,"isDrum":true},{"pitch":69,"velocity":105,"startTime":7.758615000000001,"endTime":7.88792525,"isDrum":true},{"pitch":36,"velocity":105,"startTime":8.0172355,"endTime":8.14654575,"isDrum":true},{"pitch":42,"velocity":105,"startTime":8.0172355,"endTime":8.14654575,"isDrum":true},{"pitch":36,"velocity":105,"startTime":8.275856000000001,"endTime":8.40516625,"isDrum":true},{"pitch":42,"velocity":105,"startTime":8.275856000000001,"endTime":8.40516625,"isDrum":true},{"pitch":42,"velocity":105,"startTime":8.5344765,"endTime":8.66378675,"isDrum":true},{"pitch":38,"velocity":105,"startTime":8.793097000000001,"endTime":8.922407250000001,"isDrum":true},{"pitch":39,"velocity":105,"startTime":8.793097000000001,"endTime":8.922407250000001,"isDrum":true},{"pitch":42,"velocity":105,"startTime":8.793097000000001,"endTime":8.922407250000001,"isDrum":true},{"pitch":69,"velocity":105,"startTime":8.793097000000001,"endTime":8.922407250000001,"isDrum":true},{"pitch":36,"velocity":105,"startTime":9.0517175,"endTime":9.18102775,"isDrum":true},{"pitch":42,"velocity":105,"startTime":9.0517175,"endTime":9.18102775,"isDrum":true},{"pitch":36,"velocity":105,"startTime":9.310338,"endTime":9.439648250000001,"isDrum":true},{"pitch":42,"velocity":105,"startTime":9.310338,"endTime":9.439648250000001,"isDrum":true},{"pitch":42,"velocity":105,"startTime":9.5689585,"endTime":9.69826875,"isDrum":true},{"pitch":38,"velocity":105,"startTime":9.827579,"endTime":9.95688925,"isDrum":true},{"pitch":39,"velocity":105,"startTime":9.827579,"endTime":9.95688925,"isDrum":true},{"pitch":42,"velocity":105,"startTime":9.827579,"endTime":9.95688925,"isDrum":true},{"pitch":69,"velocity":105,"startTime":9.827579,"endTime":9.95688925,"isDrum":true},{"pitch":36,"velocity":105,"startTime":10.086199500000001,"endTime":10.21550975,"isDrum":true},{"pitch":42,"velocity":105,"startTime":10.086199500000001,"endTime":10.21550975,"isDrum":true},{"pitch":36,"velocity":105,"startTime":10.34482,"endTime":10.47413025,"isDrum":true},{"pitch":42,"velocity":105,"startTime":10.34482,"endTime":10.47413025,"isDrum":true},{"pitch":42,"velocity":105,"startTime":10.603440500000001,"endTime":10.732750750000001,"isDrum":true},{"pitch":38,"velocity":105,"startTime":10.862061,"endTime":10.99137125,"isDrum":true},{"pitch":39,"velocity":105,"startTime":10.862061,"endTime":10.99137125,"isDrum":true},{"pitch":42,"velocity":105,"startTime":10.862061,"endTime":10.99137125,"isDrum":true},{"pitch":69,"velocity":105,"startTime":10.862061,"endTime":10.99137125,"isDrum":true},{"pitch":36,"velocity":105,"startTime":11.1206815,"endTime":11.249991750000001,"isDrum":true},{"pitch":42,"velocity":105,"startTime":11.1206815,"endTime":11.249991750000001,"isDrum":true},{"pitch":36,"velocity":105,"startTime":11.379302000000001,"endTime":11.50861225,"isDrum":true},{"pitch":42,"velocity":105,"startTime":11.379302000000001,"endTime":11.50861225,"isDrum":true},{"pitch":42,"velocity":105,"startTime":11.6379225,"endTime":11.76723275,"isDrum":true},{"pitch":38,"velocity":105,"startTime":11.896543000000001,"endTime":12.02585325,"isDrum":true},{"pitch":39,"velocity":105,"startTime":11.896543000000001,"endTime":12.02585325,"isDrum":true},{"pitch":42,"velocity":105,"startTime":11.896543000000001,"endTime":12.02585325,"isDrum":true},{"pitch":69,"velocity":105,"startTime":11.896543000000001,"endTime":12.02585325,"isDrum":true},{"pitch":36,"velocity":105,"startTime":12.1551635,"endTime":12.28447375,"isDrum":true},{"pitch":42,"velocity":105,"startTime":12.1551635,"endTime":12.28447375,"isDrum":true},{"pitch":36,"velocity":105,"startTime":12.413784000000001,"endTime":12.543094250000001,"isDrum":true},{"pitch":42,"velocity":105,"startTime":12.413784000000001,"endTime":12.543094250000001,"isDrum":true},{"pitch":42,"velocity":105,"startTime":12.6724045,"endTime":12.80171475,"isDrum":true},{"pitch":38,"velocity":105,"startTime":12.931025,"endTime":13.060335250000001,"isDrum":true},{"pitch":39,"velocity":105,"startTime":12.931025,"endTime":13.060335250000001,"isDrum":true},{"pitch":42,"velocity":105,"startTime":12.931025,"endTime":13.060335250000001,"isDrum":true},{"pitch":69,"velocity":105,"startTime":12.931025,"endTime":13.060335250000001,"isDrum":true},{"pitch":36,"velocity":105,"startTime":13.189645500000001,"endTime":13.31895575,"isDrum":true},{"pitch":42,"velocity":105,"startTime":13.189645500000001,"endTime":13.31895575,"isDrum":true},{"pitch":36,"velocity":105,"startTime":13.448266,"endTime":13.57757625,"isDrum":true},{"pitch":42,"velocity":105,"startTime":13.448266,"endTime":13.57757625,"isDrum":true},{"pitch":42,"velocity":105,"startTime":13.706886500000001,"endTime":13.836196750000001,"isDrum":true},{"pitch":38,"velocity":105,"startTime":13.965507,"endTime":14.09481725,"isDrum":true},{"pitch":39,"velocity":105,"startTime":13.965507,"endTime":14.09481725,"isDrum":true},{"pitch":42,"velocity":105,"startTime":13.965507,"endTime":14.09481725,"isDrum":true},{"pitch":69,"velocity":105,"startTime":13.965507,"endTime":14.09481725,"isDrum":true},{"pitch":36,"velocity":105,"startTime":14.224127500000002,"endTime":14.353437750000001,"isDrum":true},{"pitch":42,"velocity":105,"startTime":14.224127500000002,"endTime":14.353437750000001,"isDrum":true},{"pitch":36,"velocity":105,"startTime":14.482748,"endTime":14.61205825,"isDrum":true},{"pitch":42,"velocity":105,"startTime":14.482748,"endTime":14.61205825,"isDrum":true},{"pitch":42,"velocity":105,"startTime":14.7413685,"endTime":14.870678750000002,"isDrum":true},{"pitch":38,"velocity":105,"startTime":14.999989000000001,"endTime":15.12929925,"isDrum":true},{"pitch":39,"velocity":105,"startTime":14.999989000000001,"endTime":15.12929925,"isDrum":true},{"pitch":42,"velocity":105,"startTime":14.999989000000001,"endTime":15.12929925,"isDrum":true},{"pitch":69,"velocity":105,"startTime":14.999989000000001,"endTime":15.12929925,"isDrum":true},{"pitch":36,"velocity":105,"startTime":15.2586095,"endTime":15.38791975,"isDrum":true},{"pitch":42,"velocity":105,"startTime":15.2586095,"endTime":15.38791975,"isDrum":true},{"pitch":36,"velocity":105,"startTime":15.517230000000001,"endTime":15.646540250000001,"isDrum":true},{"pitch":42,"velocity":105,"startTime":15.517230000000001,"endTime":15.646540250000001,"isDrum":true},{"pitch":42,"velocity":105,"startTime":15.7758505,"endTime":15.90516075,"isDrum":true},{"pitch":38,"velocity":105,"startTime":16.034471,"endTime":16.16378125,"isDrum":true},{"pitch":39,"velocity":105,"startTime":16.034471,"endTime":16.16378125,"isDrum":true},{"pitch":42,"velocity":105,"startTime":16.034471,"endTime":16.16378125,"isDrum":true},{"pitch":69,"velocity":105,"startTime":16.034471,"endTime":16.16378125,"isDrum":true},{"pitch":36,"velocity":105,"startTime":16.2930915,"endTime":16.422401750000002,"isDrum":true},{"pitch":42,"velocity":105,"startTime":16.2930915,"endTime":16.422401750000002,"isDrum":true},{"pitch":56,"velocity":123,"startTime":9.5689585,"endTime":9.69826875,"instrument":1,"program":4},{"pitch":60,"velocity":123,"startTime":9.5689585,"endTime":9.69826875,"instrument":1,"program":4},{"pitch":66,"velocity":123,"startTime":9.5689585,"endTime":9.69826875,"instrument":1,"program":4},{"pitch":56,"velocity":123,"startTime":9.827579,"endTime":9.95688925,"instrument":1,"program":4},{"pitch":60,"velocity":123,"startTime":9.827579,"endTime":9.95688925,"instrument":1,"program":4},{"pitch":66,"velocity":123,"startTime":9.827579,"endTime":9.95688925,"instrument":1,"program":4},{"pitch":56,"velocity":123,"startTime":10.086199500000001,"endTime":10.21550975,"instrument":1,"program":4},{"pitch":60,"velocity":123,"startTime":10.086199500000001,"endTime":10.21550975,"instrument":1,"program":4},{"pitch":66,"velocity":123,"startTime":10.086199500000001,"endTime":10.21550975,"instrument":1,"program":4},{"pitch":60,"velocity":123,"startTime":12.6724045,"endTime":12.80171475,"instrument":1,"program":4},{"pitch":64,"velocity":123,"startTime":12.6724045,"endTime":12.80171475,"instrument":1,"program":4},{"pitch":67,"velocity":123,"startTime":12.6724045,"endTime":12.80171475,"instrument":1,"program":4},{"pitch":60,"velocity":123,"startTime":12.931025,"endTime":13.060335250000001,"instrument":1,"program":4},{"pitch":64,"velocity":123,"startTime":12.931025,"endTime":13.060335250000001,"instrument":1,"program":4},{"pitch":67,"velocity":123,"startTime":12.931025,"endTime":13.060335250000001,"instrument":1,"program":4},{"pitch":62,"velocity":123,"startTime":13.189645500000001,"endTime":13.31895575,"instrument":1,"program":4},{"pitch":64,"velocity":123,"startTime":13.189645500000001,"endTime":13.31895575,"instrument":1,"program":4},{"pitch":67,"velocity":123,"startTime":13.189645500000001,"endTime":13.31895575,"instrument":1,"program":4},{"pitch":62,"velocity":123,"startTime":13.448266,"endTime":13.57757625,"instrument":1,"program":4},{"pitch":66,"velocity":123,"startTime":13.448266,"endTime":13.57757625,"instrument":1,"program":4},{"pitch":69,"velocity":123,"startTime":13.448266,"endTime":13.57757625,"instrument":1,"program":4},{"pitch":62,"velocity":123,"startTime":13.706886500000001,"endTime":13.836196750000001,"instrument":1,"program":4},{"pitch":66,"velocity":123,"startTime":13.706886500000001,"endTime":13.836196750000001,"instrument":1,"program":4},{"pitch":69,"velocity":123,"startTime":13.706886500000001,"endTime":13.836196750000001,"instrument":1,"program":4},{"pitch":62,"velocity":123,"startTime":14.224127500000002,"endTime":14.61205825,"instrument":1,"program":4},{"pitch":66,"velocity":123,"startTime":14.224127500000002,"endTime":14.61205825,"instrument":1,"program":4},{"pitch":69,"velocity":123,"startTime":14.224127500000002,"endTime":14.61205825,"instrument":1,"program":4},{"pitch":62,"velocity":123,"startTime":14.7413685,"endTime":14.870678750000002,"instrument":1,"program":4},{"pitch":66,"velocity":123,"startTime":14.7413685,"endTime":14.870678750000002,"instrument":1,"program":4},{"pitch":69,"velocity":123,"startTime":14.7413685,"endTime":14.870678750000002,"instrument":1,"program":4},{"pitch":62,"velocity":123,"startTime":15.517230000000001,"endTime":15.646540250000001,"instrument":1,"program":4},{"pitch":66,"velocity":123,"startTime":15.517230000000001,"endTime":15.646540250000001,"instrument":1,"program":4},{"pitch":69,"velocity":123,"startTime":15.517230000000001,"endTime":15.646540250000001,"instrument":1,"program":4},{"pitch":62,"velocity":123,"startTime":15.7758505,"endTime":15.90516075,"instrument":1,"program":4},{"pitch":66,"velocity":123,"startTime":15.7758505,"endTime":15.90516075,"instrument":1,"program":4},{"pitch":69,"velocity":123,"startTime":15.7758505,"endTime":15.90516075,"instrument":1,"program":4},{"pitch":60,"velocity":123,"startTime":4.1379280000000005,"endTime":4.181031416666667,"instrument":2,"program":27},{"pitch":60,"velocity":123,"startTime":4.396548500000001,"endTime":4.52585875,"instrument":2,"program":27},{"pitch":62,"velocity":123,"startTime":4.655169,"endTime":4.78447925,"instrument":2,"program":27},{"pitch":60,"velocity":123,"startTime":4.78447925,"endTime":4.9137895,"instrument":2,"program":27},{"pitch":62,"velocity":123,"startTime":5.17241,"endTime":5.215513416666667,"instrument":2,"program":27},{"pitch":62,"velocity":123,"startTime":5.4310305,"endTime":5.56034075,"instrument":2,"program":27},{"pitch":62,"velocity":123,"startTime":5.56034075,"endTime":5.646547583333334,"instrument":2,"program":27},{"pitch":62,"velocity":123,"startTime":5.6896510000000005,"endTime":5.732754416666667,"instrument":2,"program":27},{"pitch":62,"velocity":123,"startTime":5.948271500000001,"endTime":6.07758175,"instrument":2,"program":27},{"pitch":62,"velocity":123,"startTime":6.206892000000001,"endTime":6.249995416666667,"instrument":2,"program":27},{"pitch":62,"velocity":123,"startTime":6.33620225,"endTime":6.422409083333334,"instrument":2,"program":27},{"pitch":62,"velocity":123,"startTime":6.4655125,"endTime":6.5948227500000005,"instrument":2,"program":27},{"pitch":62,"velocity":123,"startTime":6.724133,"endTime":6.853443250000001,"instrument":2,"program":27},{"pitch":62,"velocity":123,"startTime":6.9827535,"endTime":7.112063750000001,"instrument":2,"program":27},{"pitch":62,"velocity":123,"startTime":7.241374,"endTime":7.284477416666667,"instrument":2,"program":27},{"pitch":62,"velocity":123,"startTime":7.499994500000001,"endTime":7.62930475,"instrument":2,"program":27},{"pitch":62,"velocity":123,"startTime":7.758615000000001,"endTime":7.88792525,"instrument":2,"program":27},{"pitch":62,"velocity":123,"startTime":8.0172355,"endTime":8.14654575,"instrument":2,"program":27},{"pitch":61,"velocity":123,"startTime":8.275856000000001,"endTime":8.318959416666667,"instrument":2,"program":27},{"pitch":61,"velocity":123,"startTime":8.40516625,"endTime":8.491373083333334,"instrument":2,"program":27},{"pitch":61,"velocity":123,"startTime":8.5344765,"endTime":8.66378675,"instrument":2,"program":27},{"pitch":61,"velocity":123,"startTime":8.793097000000001,"endTime":8.922407250000001,"instrument":2,"program":27},{"pitch":61,"velocity":123,"startTime":8.922407250000001,"endTime":9.0517175,"instrument":2,"program":27},{"pitch":61,"velocity":123,"startTime":9.310338,"endTime":9.439648250000001,"instrument":2,"program":27},{"pitch":61,"velocity":123,"startTime":9.439648250000001,"endTime":9.5689585,"instrument":2,"program":27},{"pitch":61,"velocity":123,"startTime":9.827579,"endTime":9.870682416666668,"instrument":2,"program":27},{"pitch":61,"velocity":123,"startTime":9.95688925,"endTime":10.043096083333333,"instrument":2,"program":27},{"pitch":61,"velocity":123,"startTime":10.086199500000001,"endTime":10.21550975,"instrument":2,"program":27},{"pitch":61,"velocity":123,"startTime":10.34482,"endTime":10.387923416666668,"instrument":2,"program":27},{"pitch":61,"velocity":123,"startTime":10.47413025,"endTime":10.560337083333334,"instrument":2,"program":27},{"pitch":61,"velocity":123,"startTime":10.603440500000001,"endTime":10.732750750000001,"instrument":2,"program":27},{"pitch":61,"velocity":123,"startTime":10.862061,"endTime":10.99137125,"instrument":2,"program":27},{"pitch":61,"velocity":123,"startTime":10.99137125,"endTime":11.1206815,"instrument":2,"program":27},{"pitch":61,"velocity":123,"startTime":11.379302000000001,"endTime":11.50861225,"instrument":2,"program":27},{"pitch":61,"velocity":123,"startTime":11.50861225,"endTime":11.594819083333334,"instrument":2,"program":27},{"pitch":61,"velocity":123,"startTime":11.6379225,"endTime":11.76723275,"instrument":2,"program":27},{"pitch":61,"velocity":123,"startTime":11.896543000000001,"endTime":12.02585325,"instrument":2,"program":27},{"pitch":61,"velocity":123,"startTime":12.02585325,"endTime":12.112060083333335,"instrument":2,"program":27},{"pitch":60,"velocity":123,"startTime":12.413784000000001,"endTime":12.543094250000001,"instrument":2,"program":27},{"pitch":64,"velocity":123,"startTime":12.413784000000001,"endTime":12.543094250000001,"instrument":2,"program":27},{"pitch":60,"velocity":123,"startTime":12.543094250000001,"endTime":12.629301083333335,"instrument":2,"program":27},{"pitch":64,"velocity":123,"startTime":12.543094250000001,"endTime":12.629301083333335,"instrument":2,"program":27},{"pitch":60,"velocity":123,"startTime":12.931025,"endTime":13.060335250000001,"instrument":2,"program":27},{"pitch":64,"velocity":123,"startTime":12.931025,"endTime":13.060335250000001,"instrument":2,"program":27},{"pitch":60,"velocity":123,"startTime":13.060335250000001,"endTime":13.146542083333333,"instrument":2,"program":27},{"pitch":64,"velocity":123,"startTime":13.060335250000001,"endTime":13.146542083333333,"instrument":2,"program":27},{"pitch":62,"velocity":123,"startTime":13.448266,"endTime":13.491369416666668,"instrument":2,"program":27},{"pitch":62,"velocity":123,"startTime":13.57757625,"endTime":13.663783083333334,"instrument":2,"program":27},{"pitch":62,"velocity":123,"startTime":13.706886500000001,"endTime":13.836196750000001,"instrument":2,"program":27},{"pitch":62,"velocity":123,"startTime":13.965507,"endTime":14.09481725,"instrument":2,"program":27},{"pitch":62,"velocity":123,"startTime":14.09481725,"endTime":14.181024083333334,"instrument":2,"program":27},{"pitch":59,"velocity":123,"startTime":14.482748,"endTime":14.525851416666667,"instrument":2,"program":27},{"pitch":59,"velocity":123,"startTime":14.61205825,"endTime":14.698265083333334,"instrument":2,"program":27},{"pitch":59,"velocity":123,"startTime":14.7413685,"endTime":14.870678750000002,"instrument":2,"program":27},{"pitch":59,"velocity":123,"startTime":14.999989000000001,"endTime":15.12929925,"instrument":2,"program":27},{"pitch":59,"velocity":123,"startTime":15.12929925,"endTime":15.215506083333334,"instrument":2,"program":27},{"pitch":59,"velocity":123,"startTime":15.517230000000001,"endTime":15.560333416666667,"instrument":2,"program":27},{"pitch":59,"velocity":123,"startTime":15.7758505,"endTime":15.90516075,"instrument":2,"program":27},{"pitch":59,"velocity":123,"startTime":16.034471,"endTime":16.16378125,"instrument":2,"program":27},{"pitch":59,"velocity":123,"startTime":16.16378125,"endTime":16.249988083333335,"instrument":2,"program":27},{"pitch":59,"velocity":123,"startTime":16.2930915,"endTime":16.422401750000002,"instrument":2,"program":27},{"pitch":28,"velocity":117,"endTime":0.21551708333333336,"instrument":4,"program":35},{"pitch":35,"velocity":117,"startTime":0.25862050000000003,"endTime":0.38793075000000005,"instrument":4,"program":35},{"pitch":32,"velocity":117,"startTime":0.90517175,"endTime":1.0344820000000001,"instrument":4,"program":35},{"pitch":44,"velocity":117,"startTime":1.0344820000000001,"endTime":1.2499990833333334,"instrument":4,"program":35},{"pitch":40,"velocity":117,"startTime":10.603440500000001,"endTime":10.689647333333333,"instrument":4,"program":35},{"pitch":40,"velocity":117,"startTime":10.732750750000001,"endTime":10.818957583333335,"instrument":4,"program":35},{"pitch":40,"velocity":117,"startTime":10.862061,"endTime":11.077578083333334,"instrument":4,"program":35},{"pitch":40,"velocity":117,"startTime":11.1206815,"endTime":11.336198583333333,"instrument":4,"program":35},{"pitch":36,"velocity":117,"startTime":12.413784000000001,"endTime":12.80171475,"instrument":4,"program":35},{"pitch":43,"velocity":117,"startTime":12.80171475,"endTime":12.887921583333334,"instrument":4,"program":35},{"pitch":40,"velocity":117,"startTime":12.931025,"endTime":13.060335250000001,"instrument":4,"program":35},{"pitch":38,"velocity":117,"startTime":16.034471,"endTime":16.422401750000002,"instrument":4,"program":35},{"pitch":40,"velocity":118,"endTime":0.25862050000000003,"instrument":5,"program":87},{"pitch":44,"velocity":118,"startTime":1.8103435,"endTime":2.0689640000000002,"instrument":5,"program":87},{"pitch":37,"velocity":118,"startTime":2.0689640000000002,"endTime":2.3275845,"instrument":5,"program":87},{"pitch":33,"velocity":118,"startTime":3.8793075000000004,"endTime":4.1379280000000005,"instrument":5,"program":87},{"pitch":36,"velocity":118,"startTime":4.1379280000000005,"endTime":4.396548500000001,"instrument":5,"program":87},{"pitch":38,"velocity":118,"startTime":8.0172355,"endTime":8.275856000000001,"instrument":5,"program":87},{"pitch":28,"velocity":118,"startTime":8.275856000000001,"endTime":8.5344765,"instrument":5,"program":87},{"pitch":35,"velocity":105,"startTime":16.551712000000002,"endTime":16.68102225,"isDrum":true},{"pitch":42,"velocity":105,"startTime":16.551712000000002,"endTime":16.68102225,"isDrum":true},{"pitch":42,"velocity":105,"startTime":16.8103325,"endTime":16.93964275,"isDrum":true},{"pitch":38,"velocity":105,"startTime":17.068953,"endTime":17.19826325,"isDrum":true},{"pitch":39,"velocity":105,"startTime":17.068953,"endTime":17.19826325,"isDrum":true},{"pitch":40,"velocity":105,"startTime":17.068953,"endTime":17.19826325,"isDrum":true},{"pitch":42,"velocity":105,"startTime":17.068953,"endTime":17.19826325,"isDrum":true},{"pitch":42,"velocity":105,"startTime":17.3275735,"endTime":17.45688375,"isDrum":true},{"pitch":35,"velocity":105,"startTime":17.586194000000003,"endTime":17.715504250000002,"isDrum":true},{"pitch":42,"velocity":105,"startTime":17.586194000000003,"endTime":17.715504250000002,"isDrum":true},{"pitch":42,"velocity":105,"startTime":17.844814500000002,"endTime":17.97412475,"isDrum":true},{"pitch":38,"velocity":105,"startTime":18.103435,"endTime":18.23274525,"isDrum":true},{"pitch":39,"velocity":105,"startTime":18.103435,"endTime":18.23274525,"isDrum":true},{"pitch":40,"velocity":105,"startTime":18.103435,"endTime":18.23274525,"isDrum":true},{"pitch":42,"velocity":105,"startTime":18.103435,"endTime":18.23274525,"isDrum":true},{"pitch":42,"velocity":105,"startTime":18.3620555,"endTime":18.49136575,"isDrum":true},{"pitch":35,"velocity":105,"startTime":18.620676,"endTime":18.749986250000003,"isDrum":true},{"pitch":42,"velocity":105,"startTime":18.620676,"endTime":18.749986250000003,"isDrum":true},{"pitch":42,"velocity":105,"startTime":18.879296500000002,"endTime":19.008606750000002,"isDrum":true},{"pitch":38,"velocity":105,"startTime":19.137917,"endTime":19.26722725,"isDrum":true},{"pitch":39,"velocity":105,"startTime":19.137917,"endTime":19.26722725,"isDrum":true},{"pitch":40,"velocity":105,"startTime":19.137917,"endTime":19.26722725,"isDrum":true},{"pitch":42,"velocity":105,"startTime":19.137917,"endTime":19.26722725,"isDrum":true},{"pitch":42,"velocity":105,"startTime":19.3965375,"endTime":19.52584775,"isDrum":true},{"pitch":35,"velocity":105,"startTime":19.655158,"endTime":19.78446825,"isDrum":true},{"pitch":42,"velocity":105,"startTime":19.655158,"endTime":19.78446825,"isDrum":true},{"pitch":42,"velocity":105,"startTime":19.9137785,"endTime":20.043088750000003,"isDrum":true},{"pitch":38,"velocity":105,"startTime":20.172399000000002,"endTime":20.301709250000002,"isDrum":true},{"pitch":39,"velocity":105,"startTime":20.172399000000002,"endTime":20.301709250000002,"isDrum":true},{"pitch":40,"velocity":105,"startTime":20.172399000000002,"endTime":20.301709250000002,"isDrum":true},{"pitch":42,"velocity":105,"startTime":20.172399000000002,"endTime":20.301709250000002,"isDrum":true},{"pitch":42,"velocity":105,"startTime":20.4310195,"endTime":20.56032975,"isDrum":true},{"pitch":35,"velocity":105,"startTime":20.68964,"endTime":20.81895025,"isDrum":true},{"pitch":42,"velocity":105,"startTime":20.68964,"endTime":20.81895025,"isDrum":true},{"pitch":42,"velocity":105,"startTime":20.9482605,"endTime":21.07757075,"isDrum":true},{"pitch":38,"velocity":105,"startTime":21.206881000000003,"endTime":21.336191250000002,"isDrum":true},{"pitch":39,"velocity":105,"startTime":21.206881000000003,"endTime":21.336191250000002,"isDrum":true},{"pitch":40,"velocity":105,"startTime":21.206881000000003,"endTime":21.336191250000002,"isDrum":true},{"pitch":42,"velocity":105,"startTime":21.206881000000003,"endTime":21.336191250000002,"isDrum":true},{"pitch":42,"velocity":105,"startTime":21.465501500000002,"endTime":21.59481175,"isDrum":true},{"pitch":35,"velocity":105,"startTime":21.724122,"endTime":21.85343225,"isDrum":true},{"pitch":42,"velocity":105,"startTime":21.724122,"endTime":21.85343225,"isDrum":true},{"pitch":42,"velocity":105,"startTime":21.9827425,"endTime":22.11205275,"isDrum":true},{"pitch":38,"velocity":105,"startTime":22.241363,"endTime":22.370673250000003,"isDrum":true},{"pitch":39,"velocity":105,"startTime":22.241363,"endTime":22.370673250000003,"isDrum":true},{"pitch":40,"velocity":105,"startTime":22.241363,"endTime":22.370673250000003,"isDrum":true},{"pitch":42,"velocity":105,"startTime":22.241363,"endTime":22.370673250000003,"isDrum":true},{"pitch":42,"velocity":105,"startTime":22.499983500000003,"endTime":22.629293750000002,"isDrum":true},{"pitch":35,"velocity":105,"startTime":22.758604000000002,"endTime":22.88791425,"isDrum":true},{"pitch":42,"velocity":105,"startTime":22.758604000000002,"endTime":22.88791425,"isDrum":true},{"pitch":42,"velocity":105,"startTime":23.0172245,"endTime":23.14653475,"isDrum":true},{"pitch":38,"velocity":105,"startTime":23.275845,"endTime":23.40515525,"isDrum":true},{"pitch":39,"velocity":105,"startTime":23.275845,"endTime":23.40515525,"isDrum":true},{"pitch":40,"velocity":105,"startTime":23.275845,"endTime":23.40515525,"isDrum":true},{"pitch":42,"velocity":105,"startTime":23.275845,"endTime":23.40515525,"isDrum":true},{"pitch":42,"velocity":105,"startTime":23.5344655,"endTime":23.663775750000003,"isDrum":true},{"pitch":35,"velocity":105,"startTime":23.793086000000002,"endTime":23.922396250000002,"isDrum":true},{"pitch":42,"velocity":105,"startTime":23.793086000000002,"endTime":23.922396250000002,"isDrum":true},{"pitch":42,"velocity":105,"startTime":24.0517065,"endTime":24.18101675,"isDrum":true},{"pitch":38,"velocity":105,"startTime":24.310327,"endTime":24.43963725,"isDrum":true},{"pitch":39,"velocity":105,"startTime":24.310327,"endTime":24.43963725,"isDrum":true},{"pitch":40,"velocity":105,"startTime":24.310327,"endTime":24.43963725,"isDrum":true},{"pitch":42,"velocity":105,"startTime":24.310327,"endTime":24.43963725,"isDrum":true},{"pitch":42,"velocity":105,"startTime":24.5689475,"endTime":24.69825775,"isDrum":true},{"pitch":35,"velocity":105,"startTime":24.827568000000003,"endTime":24.956878250000003,"isDrum":true},{"pitch":42,"velocity":105,"startTime":24.827568000000003,"endTime":24.956878250000003,"isDrum":true},{"pitch":42,"velocity":105,"startTime":25.086188500000002,"endTime":25.215498750000002,"isDrum":true},{"pitch":38,"velocity":105,"startTime":25.344809,"endTime":25.47411925,"isDrum":true},{"pitch":39,"velocity":105,"startTime":25.344809,"endTime":25.47411925,"isDrum":true},{"pitch":40,"velocity":105,"startTime":25.344809,"endTime":25.47411925,"isDrum":true},{"pitch":42,"velocity":105,"startTime":25.344809,"endTime":25.47411925,"isDrum":true},{"pitch":42,"velocity":105,"startTime":25.6034295,"endTime":25.73273975,"isDrum":true},{"pitch":35,"velocity":105,"startTime":25.86205,"endTime":25.991360250000003,"isDrum":true},{"pitch":42,"velocity":105,"startTime":25.86205,"endTime":25.991360250000003,"isDrum":true},{"pitch":42,"velocity":105,"startTime":26.120670500000003,"endTime":26.249980750000002,"isDrum":true},{"pitch":38,"velocity":105,"startTime":26.379291000000002,"endTime":26.50860125,"isDrum":true},{"pitch":39,"velocity":105,"startTime":26.379291000000002,"endTime":26.50860125,"isDrum":true},{"pitch":40,"velocity":105,"startTime":26.379291000000002,"endTime":26.50860125,"isDrum":true},{"pitch":42,"velocity":105,"startTime":26.379291000000002,"endTime":26.50860125,"isDrum":true},{"pitch":42,"velocity":105,"startTime":26.6379115,"endTime":26.76722175,"isDrum":true},{"pitch":35,"velocity":105,"startTime":26.896532,"endTime":27.02584225,"isDrum":true},{"pitch":42,"velocity":105,"startTime":26.896532,"endTime":27.02584225,"isDrum":true},{"pitch":42,"velocity":105,"startTime":27.1551525,"endTime":27.284462750000003,"isDrum":true},{"pitch":38,"velocity":105,"startTime":27.413773000000003,"endTime":27.543083250000002,"isDrum":true},{"pitch":39,"velocity":105,"startTime":27.413773000000003,"endTime":27.543083250000002,"isDrum":true},{"pitch":40,"velocity":105,"startTime":27.413773000000003,"endTime":27.543083250000002,"isDrum":true},{"pitch":42,"velocity":105,"startTime":27.413773000000003,"endTime":27.543083250000002,"isDrum":true},{"pitch":42,"velocity":105,"startTime":27.672393500000002,"endTime":27.80170375,"isDrum":true},{"pitch":35,"velocity":105,"startTime":27.931014,"endTime":28.06032425,"isDrum":true},{"pitch":42,"velocity":105,"startTime":27.931014,"endTime":28.06032425,"isDrum":true},{"pitch":42,"velocity":105,"startTime":28.1896345,"endTime":28.31894475,"isDrum":true},{"pitch":38,"velocity":105,"startTime":28.448255000000003,"endTime":28.577565250000003,"isDrum":true},{"pitch":39,"velocity":105,"startTime":28.448255000000003,"endTime":28.577565250000003,"isDrum":true},{"pitch":40,"velocity":105,"startTime":28.448255000000003,"endTime":28.577565250000003,"isDrum":true},{"pitch":42,"velocity":105,"startTime":28.448255000000003,"endTime":28.577565250000003,"isDrum":true},{"pitch":42,"velocity":105,"startTime":28.706875500000002,"endTime":28.836185750000002,"isDrum":true},{"pitch":35,"velocity":105,"startTime":28.965496,"endTime":29.09480625,"isDrum":true},{"pitch":42,"velocity":105,"startTime":28.965496,"endTime":29.09480625,"isDrum":true},{"pitch":42,"velocity":105,"startTime":29.2241165,"endTime":29.35342675,"isDrum":true},{"pitch":38,"velocity":105,"startTime":29.482737,"endTime":29.612047250000003,"isDrum":true},{"pitch":39,"velocity":105,"startTime":29.482737,"endTime":29.612047250000003,"isDrum":true},{"pitch":40,"velocity":105,"startTime":29.482737,"endTime":29.612047250000003,"isDrum":true},{"pitch":42,"velocity":105,"startTime":29.482737,"endTime":29.612047250000003,"isDrum":true},{"pitch":42,"velocity":105,"startTime":29.741357500000003,"endTime":29.870667750000003,"isDrum":true},{"pitch":35,"velocity":105,"startTime":29.999978000000002,"endTime":30.129288250000002,"isDrum":true},{"pitch":42,"velocity":105,"startTime":29.999978000000002,"endTime":30.129288250000002,"isDrum":true},{"pitch":42,"velocity":105,"startTime":30.2585985,"endTime":30.38790875,"isDrum":true},{"pitch":38,"velocity":105,"startTime":30.517219,"endTime":30.64652925,"isDrum":true},{"pitch":39,"velocity":105,"startTime":30.517219,"endTime":30.64652925,"isDrum":true},{"pitch":40,"velocity":105,"startTime":30.517219,"endTime":30.64652925,"isDrum":true},{"pitch":42,"velocity":105,"startTime":30.517219,"endTime":30.64652925,"isDrum":true},{"pitch":42,"velocity":105,"startTime":30.7758395,"endTime":30.905149750000003,"isDrum":true},{"pitch":60,"velocity":123,"startTime":16.8103325,"endTime":17.068953,"instrument":1,"program":4},{"pitch":64,"velocity":123,"startTime":16.8103325,"endTime":17.068953,"instrument":1,"program":4},{"pitch":66,"velocity":123,"startTime":16.8103325,"endTime":17.068953,"instrument":1,"program":4},{"pitch":69,"velocity":123,"startTime":16.8103325,"endTime":17.068953,"instrument":1,"program":4},{"pitch":60,"velocity":123,"startTime":17.3275735,"endTime":17.844814500000002,"instrument":1,"program":4},{"pitch":64,"velocity":123,"startTime":17.3275735,"endTime":17.844814500000002,"instrument":1,"program":4},{"pitch":66,"velocity":123,"startTime":17.3275735,"endTime":17.844814500000002,"instrument":1,"program":4},{"pitch":69,"velocity":123,"startTime":17.3275735,"endTime":17.844814500000002,"instrument":1,"program":4},{"pitch":61,"velocity":123,"startTime":19.3965375,"endTime":20.68964,"instrument":1,"program":4},{"pitch":64,"velocity":123,"startTime":19.3965375,"endTime":20.68964,"instrument":1,"program":4},{"pitch":68,"velocity":123,"startTime":19.3965375,"endTime":20.68964,"instrument":1,"program":4},{"pitch":69,"velocity":123,"startTime":19.3965375,"endTime":20.68964,"instrument":1,"program":4},{"pitch":60,"velocity":123,"startTime":20.9482605,"endTime":21.206881000000003,"instrument":1,"program":4},{"pitch":64,"velocity":123,"startTime":20.9482605,"endTime":21.206881000000003,"instrument":1,"program":4},{"pitch":66,"velocity":123,"startTime":20.9482605,"endTime":21.206881000000003,"instrument":1,"program":4},{"pitch":69,"velocity":123,"startTime":20.9482605,"endTime":21.206881000000003,"instrument":1,"program":4},{"pitch":60,"velocity":123,"startTime":21.465501500000002,"endTime":22.241363,"instrument":1,"program":4},{"pitch":62,"velocity":123,"startTime":21.465501500000002,"endTime":22.241363,"instrument":1,"program":4},{"pitch":66,"velocity":123,"startTime":21.465501500000002,"endTime":22.241363,"instrument":1,"program":4},{"pitch":69,"velocity":123,"startTime":21.465501500000002,"endTime":22.241363,"instrument":1,"program":4},{"pitch":62,"velocity":123,"startTime":22.499983500000003,"endTime":22.758604000000002,"instrument":1,"program":4},{"pitch":66,"velocity":123,"startTime":22.499983500000003,"endTime":22.758604000000002,"instrument":1,"program":4},{"pitch":69,"velocity":123,"startTime":22.499983500000003,"endTime":22.758604000000002,"instrument":1,"program":4},{"pitch":71,"velocity":123,"startTime":22.499983500000003,"endTime":22.758604000000002,"instrument":1,"program":4},{"pitch":62,"velocity":123,"startTime":23.0172245,"endTime":23.5344655,"instrument":1,"program":4},{"pitch":66,"velocity":123,"startTime":23.0172245,"endTime":23.5344655,"instrument":1,"program":4},{"pitch":69,"velocity":123,"startTime":23.0172245,"endTime":23.5344655,"instrument":1,"program":4},{"pitch":71,"velocity":123,"startTime":23.0172245,"endTime":23.5344655,"instrument":1,"program":4},{"pitch":62,"velocity":123,"startTime":23.793086000000002,"endTime":24.0517065,"instrument":1,"program":4},{"pitch":66,"velocity":123,"startTime":23.793086000000002,"endTime":24.0517065,"instrument":1,"program":4},{"pitch":69,"velocity":123,"startTime":23.793086000000002,"endTime":24.0517065,"instrument":1,"program":4},{"pitch":72,"velocity":123,"startTime":23.793086000000002,"endTime":24.0517065,"instrument":1,"program":4},{"pitch":62,"velocity":123,"startTime":24.310327,"endTime":24.5689475,"instrument":1,"program":4},{"pitch":66,"velocity":123,"startTime":24.310327,"endTime":24.5689475,"instrument":1,"program":4},{"pitch":69,"velocity":123,"startTime":24.310327,"endTime":24.5689475,"instrument":1,"program":4},{"pitch":72,"velocity":123,"startTime":24.310327,"endTime":24.5689475,"instrument":1,"program":4},{"pitch":62,"velocity":123,"startTime":24.827568000000003,"endTime":25.086188500000002,"instrument":1,"program":4},{"pitch":64,"velocity":123,"startTime":24.827568000000003,"endTime":25.086188500000002,"instrument":1,"program":4},{"pitch":68,"velocity":123,"startTime":24.827568000000003,"endTime":25.086188500000002,"instrument":1,"program":4},{"pitch":71,"velocity":123,"startTime":24.827568000000003,"endTime":25.086188500000002,"instrument":1,"program":4},{"pitch":62,"velocity":123,"startTime":25.344809,"endTime":25.6034295,"instrument":1,"program":4},{"pitch":64,"velocity":123,"startTime":25.344809,"endTime":25.6034295,"instrument":1,"program":4},{"pitch":68,"velocity":123,"startTime":25.344809,"endTime":25.6034295,"instrument":1,"program":4},{"pitch":71,"velocity":123,"startTime":25.344809,"endTime":25.6034295,"instrument":1,"program":4},{"pitch":61,"velocity":123,"startTime":26.120670500000003,"endTime":26.810325166666665,"instrument":1,"program":4},{"pitch":64,"velocity":123,"startTime":26.120670500000003,"endTime":26.810325166666665,"instrument":1,"program":4},{"pitch":68,"velocity":123,"startTime":26.120670500000003,"endTime":26.810325166666665,"instrument":1,"program":4},{"pitch":71,"velocity":123,"startTime":26.120670500000003,"endTime":26.810325166666665,"instrument":1,"program":4},{"pitch":61,"velocity":123,"startTime":26.896532,"endTime":27.1551525,"instrument":1,"program":4},{"pitch":64,"velocity":123,"startTime":26.896532,"endTime":27.1551525,"instrument":1,"program":4},{"pitch":68,"velocity":123,"startTime":26.896532,"endTime":27.1551525,"instrument":1,"program":4},{"pitch":71,"velocity":123,"startTime":26.896532,"endTime":27.1551525,"instrument":1,"program":4},{"pitch":61,"velocity":123,"startTime":27.413773000000003,"endTime":27.672393500000002,"instrument":1,"program":4},{"pitch":64,"velocity":123,"startTime":27.413773000000003,"endTime":27.672393500000002,"instrument":1,"program":4},{"pitch":68,"velocity":123,"startTime":27.413773000000003,"endTime":27.672393500000002,"instrument":1,"program":4},{"pitch":71,"velocity":123,"startTime":27.413773000000003,"endTime":27.672393500000002,"instrument":1,"program":4},{"pitch":61,"velocity":123,"startTime":27.931014,"endTime":28.1896345,"instrument":1,"program":4},{"pitch":64,"velocity":123,"startTime":27.931014,"endTime":28.1896345,"instrument":1,"program":4},{"pitch":68,"velocity":123,"startTime":27.931014,"endTime":28.1896345,"instrument":1,"program":4},{"pitch":71,"velocity":123,"startTime":27.931014,"endTime":28.1896345,"instrument":1,"program":4},{"pitch":61,"velocity":123,"startTime":28.448255000000003,"endTime":28.706875500000002,"instrument":1,"program":4},{"pitch":64,"velocity":123,"startTime":28.448255000000003,"endTime":28.706875500000002,"instrument":1,"program":4},{"pitch":68,"velocity":123,"startTime":28.448255000000003,"endTime":28.706875500000002,"instrument":1,"program":4},{"pitch":71,"velocity":123,"startTime":28.448255000000003,"endTime":28.706875500000002,"instrument":1,"program":4},{"pitch":60,"velocity":123,"startTime":28.965496,"endTime":29.2241165,"instrument":1,"program":4},{"pitch":64,"velocity":123,"startTime":28.965496,"endTime":29.2241165,"instrument":1,"program":4},{"pitch":67,"velocity":123,"startTime":28.965496,"endTime":29.2241165,"instrument":1,"program":4},{"pitch":69,"velocity":123,"startTime":28.965496,"endTime":29.2241165,"instrument":1,"program":4},{"pitch":60,"velocity":123,"startTime":29.482737,"endTime":29.741357500000003,"instrument":1,"program":4},{"pitch":62,"velocity":123,"startTime":29.482737,"endTime":29.741357500000003,"instrument":1,"program":4},{"pitch":66,"velocity":123,"startTime":29.482737,"endTime":29.741357500000003,"instrument":1,"program":4},{"pitch":69,"velocity":123,"startTime":29.482737,"endTime":29.741357500000003,"instrument":1,"program":4},{"pitch":62,"velocity":123,"startTime":30.2585985,"endTime":30.517219,"instrument":1,"program":4},{"pitch":66,"velocity":123,"startTime":30.2585985,"endTime":30.517219,"instrument":1,"program":4},{"pitch":69,"velocity":123,"startTime":30.2585985,"endTime":30.517219,"instrument":1,"program":4},{"pitch":71,"velocity":123,"startTime":30.2585985,"endTime":30.517219,"instrument":1,"program":4},{"pitch":62,"velocity":123,"startTime":30.517219,"endTime":30.7758395,"instrument":1,"program":4},{"pitch":66,"velocity":123,"startTime":30.517219,"endTime":30.7758395,"instrument":1,"program":4},{"pitch":69,"velocity":123,"startTime":30.517219,"endTime":30.7758395,"instrument":1,"program":4},{"pitch":71,"velocity":123,"startTime":30.517219,"endTime":30.7758395,"instrument":1,"program":4},{"pitch":59,"velocity":123,"startTime":31.034460000000003,"endTime":31.293080500000002,"instrument":1,"program":4},{"pitch":62,"velocity":123,"startTime":31.034460000000003,"endTime":31.293080500000002,"instrument":1,"program":4},{"pitch":66,"velocity":123,"startTime":31.034460000000003,"endTime":31.293080500000002,"instrument":1,"program":4},{"pitch":69,"velocity":123,"startTime":31.034460000000003,"endTime":31.293080500000002,"instrument":1,"program":4},{"pitch":59,"velocity":123,"startTime":31.551701,"endTime":31.8103215,"instrument":1,"program":4},{"pitch":62,"velocity":123,"startTime":31.551701,"endTime":31.8103215,"instrument":1,"program":4},{"pitch":66,"velocity":123,"startTime":31.551701,"endTime":31.8103215,"instrument":1,"program":4},{"pitch":69,"velocity":123,"startTime":31.551701,"endTime":31.8103215,"instrument":1,"program":4},{"pitch":59,"velocity":123,"startTime":32.068942,"endTime":32.3275625,"instrument":1,"program":4},{"pitch":62,"velocity":123,"startTime":32.068942,"endTime":32.3275625,"instrument":1,"program":4},{"pitch":66,"velocity":123,"startTime":32.068942,"endTime":32.3275625,"instrument":1,"program":4},{"pitch":69,"velocity":123,"startTime":32.068942,"endTime":32.3275625,"instrument":1,"program":4},{"pitch":59,"velocity":123,"startTime":32.586183,"endTime":32.844803500000005,"instrument":1,"program":4},{"pitch":62,"velocity":123,"startTime":32.586183,"endTime":32.844803500000005,"instrument":1,"program":4},{"pitch":66,"velocity":123,"startTime":32.586183,"endTime":32.844803500000005,"instrument":1,"program":4},{"pitch":69,"velocity":123,"startTime":32.586183,"endTime":32.844803500000005,"instrument":1,"program":4},{"pitch":52,"velocity":123,"startTime":16.8103325,"endTime":16.85343591666667,"instrument":2,"program":27},{"pitch":56,"velocity":123,"startTime":17.068953,"endTime":17.112056416666668,"instrument":2,"program":27},{"pitch":56,"velocity":123,"startTime":17.19826325,"endTime":17.284470083333332,"instrument":2,"program":27},{"pitch":56,"velocity":123,"startTime":17.3275735,"endTime":17.37067691666667,"instrument":2,"program":27},{"pitch":56,"velocity":123,"startTime":17.586194000000003,"endTime":17.62929741666667,"instrument":2,"program":27},{"pitch":56,"velocity":123,"startTime":17.715504250000002,"endTime":17.801711083333334,"instrument":2,"program":27},{"pitch":56,"velocity":123,"startTime":17.844814500000002,"endTime":17.97412475,"instrument":2,"program":27},{"pitch":56,"velocity":123,"startTime":18.103435,"endTime":18.23274525,"instrument":2,"program":27},{"pitch":56,"velocity":123,"startTime":18.3620555,"endTime":18.448262333333336,"instrument":2,"program":27},{"pitch":56,"velocity":123,"startTime":18.620676,"endTime":18.663779416666667,"instrument":2,"program":27},{"pitch":56,"velocity":123,"startTime":18.749986250000003,"endTime":18.836193083333335,"instrument":2,"program":27},{"pitch":56,"velocity":123,"startTime":18.879296500000002,"endTime":18.922399916666667,"instrument":2,"program":27},{"pitch":56,"velocity":123,"startTime":19.137917,"endTime":19.26722725,"instrument":2,"program":27},{"pitch":56,"velocity":123,"startTime":19.3965375,"endTime":19.482744333333333,"instrument":2,"program":27},{"pitch":59,"velocity":123,"startTime":19.655158,"endTime":19.698261416666668,"instrument":2,"program":27},{"pitch":59,"velocity":123,"startTime":19.78446825,"endTime":19.870675083333335,"instrument":2,"program":27},{"pitch":59,"velocity":123,"startTime":19.9137785,"endTime":20.043088750000003,"instrument":2,"program":27},{"pitch":59,"velocity":123,"startTime":20.172399000000002,"endTime":20.301709250000002,"instrument":2,"program":27},{"pitch":52,"velocity":123,"startTime":20.4310195,"endTime":20.56032975,"instrument":2,"program":27},{"pitch":60,"velocity":123,"startTime":20.68964,"endTime":20.73274341666667,"instrument":2,"program":27},{"pitch":60,"velocity":123,"startTime":20.81895025,"endTime":20.905157083333336,"instrument":2,"program":27},{"pitch":60,"velocity":123,"startTime":20.9482605,"endTime":21.07757075,"instrument":2,"program":27},{"pitch":60,"velocity":123,"startTime":21.206881000000003,"endTime":21.336191250000002,"instrument":2,"program":27},{"pitch":60,"velocity":123,"startTime":21.465501500000002,"endTime":21.59481175,"instrument":2,"program":27},{"pitch":62,"velocity":123,"startTime":21.9827425,"endTime":22.02584591666667,"instrument":2,"program":27},{"pitch":62,"velocity":123,"startTime":22.241363,"endTime":22.284466416666667,"instrument":2,"program":27},{"pitch":62,"velocity":123,"startTime":22.499983500000003,"endTime":22.543086916666667,"instrument":2,"program":27},{"pitch":59,"velocity":123,"startTime":22.758604000000002,"endTime":22.80170741666667,"instrument":2,"program":27},{"pitch":59,"velocity":123,"startTime":22.88791425,"endTime":22.974121083333333,"instrument":2,"program":27},{"pitch":59,"velocity":123,"startTime":23.0172245,"endTime":23.14653475,"instrument":2,"program":27},{"pitch":59,"velocity":123,"startTime":23.275845,"endTime":23.40515525,"instrument":2,"program":27},{"pitch":59,"velocity":123,"startTime":23.40515525,"endTime":23.491362083333335,"instrument":2,"program":27},{"pitch":62,"velocity":123,"startTime":23.5344655,"endTime":23.663775750000003,"instrument":2,"program":27},{"pitch":59,"velocity":123,"startTime":23.663775750000003,"endTime":23.749982583333335,"instrument":2,"program":27},{"pitch":62,"velocity":123,"startTime":23.793086000000002,"endTime":23.836189416666667,"instrument":2,"program":27},{"pitch":62,"velocity":123,"startTime":23.922396250000002,"endTime":24.008603083333334,"instrument":2,"program":27},{"pitch":62,"velocity":123,"startTime":24.0517065,"endTime":24.18101675,"instrument":2,"program":27},{"pitch":62,"velocity":123,"startTime":24.310327,"endTime":24.43963725,"instrument":2,"program":27},{"pitch":64,"velocity":123,"startTime":24.43963725,"endTime":24.525844083333336,"instrument":2,"program":27},{"pitch":59,"velocity":123,"startTime":24.827568000000003,"endTime":24.956878250000003,"instrument":2,"program":27},{"pitch":59,"velocity":123,"startTime":24.956878250000003,"endTime":25.043085083333338,"instrument":2,"program":27},{"pitch":59,"velocity":123,"startTime":25.086188500000002,"endTime":25.215498750000002,"instrument":2,"program":27},{"pitch":59,"velocity":123,"startTime":25.215498750000002,"endTime":25.301705583333337,"instrument":2,"program":27},{"pitch":59,"velocity":123,"startTime":25.344809,"endTime":25.47411925,"instrument":2,"program":27},{"pitch":59,"velocity":123,"startTime":25.47411925,"endTime":25.56032608333334,"instrument":2,"program":27},{"pitch":56,"velocity":123,"startTime":26.379291000000002,"endTime":26.422394416666663,"instrument":2,"program":27},{"pitch":56,"velocity":123,"startTime":26.50860125,"endTime":26.594808083333337,"instrument":2,"program":27},{"pitch":56,"velocity":123,"startTime":26.6379115,"endTime":26.76722175,"instrument":2,"program":27},{"pitch":63,"velocity":123,"startTime":26.896532,"endTime":26.939635416666665,"instrument":2,"program":27},{"pitch":63,"velocity":123,"startTime":27.02584225,"endTime":27.11204908333334,"instrument":2,"program":27},{"pitch":63,"velocity":123,"startTime":27.1551525,"endTime":27.198255916666664,"instrument":2,"program":27},{"pitch":63,"velocity":123,"startTime":27.413773000000003,"endTime":27.543083250000002,"instrument":2,"program":27},{"pitch":63,"velocity":123,"startTime":27.672393500000002,"endTime":27.80170375,"instrument":2,"program":27},{"pitch":54,"velocity":123,"startTime":28.1896345,"endTime":28.232737916666665,"instrument":2,"program":27},{"pitch":54,"velocity":123,"startTime":28.31894475,"endTime":28.448255000000003,"instrument":2,"program":27},{"pitch":57,"velocity":123,"startTime":28.448255000000003,"endTime":28.577565250000003,"instrument":2,"program":27},{"pitch":57,"velocity":123,"startTime":28.706875500000002,"endTime":28.836185750000002,"instrument":2,"program":27},{"pitch":60,"velocity":123,"startTime":29.2241165,"endTime":29.267219916666665,"instrument":2,"program":27},{"pitch":60,"velocity":123,"startTime":29.35342675,"endTime":29.43963358333334,"instrument":2,"program":27},{"pitch":60,"velocity":123,"startTime":29.482737,"endTime":29.525840416666664,"instrument":2,"program":27},{"pitch":60,"velocity":123,"startTime":29.741357500000003,"endTime":29.870667750000003,"instrument":2,"program":27},{"pitch":62,"velocity":123,"startTime":29.999978000000002,"endTime":30.043081416666663,"instrument":2,"program":27},{"pitch":62,"velocity":123,"startTime":30.129288250000002,"endTime":30.215495083333337,"instrument":2,"program":27},{"pitch":62,"velocity":123,"startTime":30.2585985,"endTime":30.38790875,"instrument":2,"program":27},{"pitch":62,"velocity":123,"startTime":30.517219,"endTime":30.64652925,"instrument":2,"program":27},{"pitch":62,"velocity":123,"startTime":30.64652925,"endTime":30.73273608333334,"instrument":2,"program":27},{"pitch":62,"velocity":123,"startTime":30.7758395,"endTime":30.905149750000003,"instrument":2,"program":27},{"pitch":59,"velocity":123,"startTime":31.293080500000002,"endTime":31.336183916666666,"instrument":2,"program":27},{"pitch":59,"velocity":123,"startTime":31.42239075,"endTime":31.50859758333334,"instrument":2,"program":27},{"pitch":59,"velocity":123,"startTime":31.551701,"endTime":31.594804416666666,"instrument":2,"program":27},{"pitch":59,"velocity":123,"startTime":31.68101125,"endTime":31.76721808333334,"instrument":2,"program":27},{"pitch":59,"velocity":123,"startTime":31.8103215,"endTime":31.89652833333334,"instrument":2,"program":27},{"pitch":59,"velocity":123,"startTime":32.068942,"endTime":32.11204541666667,"instrument":2,"program":27},{"pitch":59,"velocity":123,"startTime":32.19825225,"endTime":32.28445908333334,"instrument":2,"program":27},{"pitch":59,"velocity":123,"startTime":32.3275625,"endTime":32.45687275,"instrument":2,"program":27},{"pitch":59,"velocity":123,"startTime":32.586183,"endTime":32.71549325,"instrument":2,"program":27},{"pitch":59,"velocity":123,"startTime":32.71549325,"endTime":32.80170008333334,"instrument":2,"program":27},{"pitch":38,"velocity":117,"startTime":16.93964275,"endTime":17.025849583333333,"instrument":4,"program":35},{"pitch":40,"velocity":117,"startTime":17.068953,"endTime":17.19826325,"instrument":4,"program":35},{"pitch":38,"velocity":117,"startTime":17.19826325,"endTime":17.284470083333332,"instrument":4,"program":35},{"pitch":32,"velocity":117,"startTime":17.3275735,"endTime":17.586194000000003,"instrument":4,"program":35},{"pitch":32,"velocity":117,"startTime":17.586194000000003,"endTime":18.01722816666667,"instrument":4,"program":35},{"pitch":32,"velocity":117,"startTime":18.103435,"endTime":18.534469166666668,"instrument":4,"program":35},{"pitch":33,"velocity":117,"startTime":19.655158,"endTime":19.78446825,"instrument":4,"program":35},{"pitch":33,"velocity":117,"startTime":19.9137785,"endTime":20.172399000000002,"instrument":4,"program":35},{"pitch":33,"velocity":117,"startTime":20.172399000000002,"endTime":20.4310195,"instrument":4,"program":35},{"pitch":28,"velocity":117,"startTime":20.4310195,"endTime":20.68964,"instrument":4,"program":35},{"pitch":36,"velocity":117,"startTime":21.07757075,"endTime":21.163777583333335,"instrument":4,"program":35},{"pitch":40,"velocity":117,"startTime":21.206881000000003,"endTime":21.336191250000002,"instrument":4,"program":35},{"pitch":36,"velocity":117,"startTime":21.336191250000002,"endTime":21.465501500000002,"instrument":4,"program":35},{"pitch":38,"velocity":117,"startTime":21.465501500000002,"endTime":21.59481175,"instrument":4,"program":35},{"pitch":28,"velocity":117,"startTime":24.827568000000003,"endTime":25.344809,"instrument":4,"program":35},{"pitch":33,"velocity":117,"startTime":28.448255000000003,"endTime":28.965496,"instrument":4,"program":35},{"pitch":38,"velocity":117,"startTime":32.068942,"endTime":32.49997616666666,"instrument":4,"program":35},{"pitch":36,"velocity":105,"startTime":33.103424000000004,"endTime":33.18963083333334,"isDrum":true},{"pitch":42,"velocity":105,"startTime":33.103424000000004,"endTime":33.18963083333334,"isDrum":true},{"pitch":42,"velocity":105,"startTime":33.3620445,"endTime":33.44825133333334,"isDrum":true},{"pitch":36,"velocity":105,"startTime":33.620665,"endTime":33.70687183333334,"isDrum":true},{"pitch":38,"velocity":105,"startTime":33.620665,"endTime":33.70687183333334,"isDrum":true},{"pitch":39,"velocity":105,"startTime":33.620665,"endTime":33.70687183333334,"isDrum":true},{"pitch":42,"velocity":105,"startTime":33.620665,"endTime":33.70687183333334,"isDrum":true},{"pitch":69,"velocity":105,"startTime":33.620665,"endTime":33.70687183333334,"isDrum":true},{"pitch":42,"velocity":105,"startTime":33.8792855,"endTime":33.96549233333334,"isDrum":true},{"pitch":36,"velocity":105,"startTime":34.137906,"endTime":34.224112833333336,"isDrum":true},{"pitch":42,"velocity":105,"startTime":34.137906,"endTime":34.224112833333336,"isDrum":true},{"pitch":42,"velocity":105,"startTime":34.3965265,"endTime":34.48273333333334,"isDrum":true},{"pitch":36,"velocity":105,"startTime":34.655147,"endTime":34.74135383333334,"isDrum":true},{"pitch":38,"velocity":105,"startTime":34.655147,"endTime":34.74135383333334,"isDrum":true},{"pitch":39,"velocity":105,"startTime":34.655147,"endTime":34.74135383333334,"isDrum":true},{"pitch":42,"velocity":105,"startTime":34.655147,"endTime":34.74135383333334,"isDrum":true},{"pitch":69,"velocity":105,"startTime":34.655147,"endTime":34.74135383333334,"isDrum":true},{"pitch":42,"velocity":105,"startTime":34.9137675,"endTime":34.99997433333334,"isDrum":true},{"pitch":36,"velocity":105,"startTime":35.172388000000005,"endTime":35.25859483333334,"isDrum":true},{"pitch":42,"velocity":105,"startTime":35.172388000000005,"endTime":35.25859483333334,"isDrum":true},{"pitch":42,"velocity":105,"startTime":35.431008500000004,"endTime":35.51721533333333,"isDrum":true},{"pitch":36,"velocity":105,"startTime":35.689629000000004,"endTime":35.77583583333333,"isDrum":true},{"pitch":38,"velocity":105,"startTime":35.689629000000004,"endTime":35.77583583333333,"isDrum":true},{"pitch":39,"velocity":105,"startTime":35.689629000000004,"endTime":35.77583583333333,"isDrum":true},{"pitch":42,"velocity":105,"startTime":35.689629000000004,"endTime":35.77583583333333,"isDrum":true},{"pitch":69,"velocity":105,"startTime":35.689629000000004,"endTime":35.77583583333333,"isDrum":true},{"pitch":42,"velocity":105,"startTime":35.9482495,"endTime":36.03445633333334,"isDrum":true},{"pitch":36,"velocity":105,"startTime":36.20687,"endTime":36.29307683333334,"isDrum":true},{"pitch":42,"velocity":105,"startTime":36.20687,"endTime":36.29307683333334,"isDrum":true},{"pitch":42,"velocity":105,"startTime":36.4654905,"endTime":36.55169733333334,"isDrum":true},{"pitch":36,"velocity":105,"startTime":36.724111,"endTime":36.810317833333336,"isDrum":true},{"pitch":38,"velocity":105,"startTime":36.724111,"endTime":36.810317833333336,"isDrum":true},{"pitch":39,"velocity":105,"startTime":36.724111,"endTime":36.810317833333336,"isDrum":true},{"pitch":42,"velocity":105,"startTime":36.724111,"endTime":36.810317833333336,"isDrum":true},{"pitch":69,"velocity":105,"startTime":36.724111,"endTime":36.810317833333336,"isDrum":true},{"pitch":42,"velocity":105,"startTime":36.9827315,"endTime":37.068938333333335,"isDrum":true},{"pitch":36,"velocity":105,"startTime":37.241352,"endTime":37.327558833333335,"isDrum":true},{"pitch":42,"velocity":105,"startTime":37.241352,"endTime":37.327558833333335,"isDrum":true},{"pitch":42,"velocity":105,"startTime":37.499972500000005,"endTime":37.586179333333334,"isDrum":true},{"pitch":36,"velocity":105,"startTime":37.758593000000005,"endTime":37.84479983333333,"isDrum":true},{"pitch":38,"velocity":105,"startTime":37.758593000000005,"endTime":37.84479983333333,"isDrum":true},{"pitch":39,"velocity":105,"startTime":37.758593000000005,"endTime":37.84479983333333,"isDrum":true},{"pitch":42,"velocity":105,"startTime":37.758593000000005,"endTime":37.84479983333333,"isDrum":true},{"pitch":69,"velocity":105,"startTime":37.758593000000005,"endTime":37.84479983333333,"isDrum":true},{"pitch":42,"velocity":105,"startTime":38.017213500000004,"endTime":38.10342033333333,"isDrum":true},{"pitch":36,"velocity":105,"startTime":38.275834,"endTime":38.36204083333334,"isDrum":true},{"pitch":42,"velocity":105,"startTime":38.275834,"endTime":38.36204083333334,"isDrum":true},{"pitch":42,"velocity":105,"startTime":38.5344545,"endTime":38.62066133333334,"isDrum":true},{"pitch":36,"velocity":105,"startTime":38.793075,"endTime":38.87928183333334,"isDrum":true},{"pitch":38,"velocity":105,"startTime":38.793075,"endTime":38.87928183333334,"isDrum":true},{"pitch":39,"velocity":105,"startTime":38.793075,"endTime":38.87928183333334,"isDrum":true},{"pitch":42,"velocity":105,"startTime":38.793075,"endTime":38.87928183333334,"isDrum":true},{"pitch":69,"velocity":105,"startTime":38.793075,"endTime":38.87928183333334,"isDrum":true},{"pitch":42,"velocity":105,"startTime":39.0516955,"endTime":39.13790233333334,"isDrum":true},{"pitch":36,"velocity":105,"startTime":39.310316,"endTime":39.396522833333336,"isDrum":true},{"pitch":42,"velocity":105,"startTime":39.310316,"endTime":39.396522833333336,"isDrum":true},{"pitch":42,"velocity":105,"startTime":39.5689365,"endTime":39.655143333333335,"isDrum":true},{"pitch":36,"velocity":105,"startTime":39.827557,"endTime":39.913763833333334,"isDrum":true},{"pitch":38,"velocity":105,"startTime":39.827557,"endTime":39.913763833333334,"isDrum":true},{"pitch":39,"velocity":105,"startTime":39.827557,"endTime":39.913763833333334,"isDrum":true},{"pitch":42,"velocity":105,"startTime":39.827557,"endTime":39.913763833333334,"isDrum":true},{"pitch":69,"velocity":105,"startTime":39.827557,"endTime":39.913763833333334,"isDrum":true},{"pitch":42,"velocity":105,"startTime":40.086177500000005,"endTime":40.17238433333333,"isDrum":true},{"pitch":36,"velocity":105,"startTime":40.344798000000004,"endTime":40.43100483333333,"isDrum":true},{"pitch":42,"velocity":105,"startTime":40.344798000000004,"endTime":40.43100483333333,"isDrum":true},{"pitch":42,"velocity":105,"startTime":40.603418500000004,"endTime":40.68962533333334,"isDrum":true},{"pitch":36,"velocity":105,"startTime":40.862039,"endTime":40.94824583333334,"isDrum":true},{"pitch":38,"velocity":105,"startTime":40.862039,"endTime":40.94824583333334,"isDrum":true},{"pitch":39,"velocity":105,"startTime":40.862039,"endTime":40.94824583333334,"isDrum":true},{"pitch":42,"velocity":105,"startTime":40.862039,"endTime":40.94824583333334,"isDrum":true},{"pitch":69,"velocity":105,"startTime":40.862039,"endTime":40.94824583333334,"isDrum":true},{"pitch":42,"velocity":105,"startTime":41.1206595,"endTime":41.20686633333334,"isDrum":true},{"pitch":36,"velocity":105,"startTime":41.37928,"endTime":41.46548683333334,"isDrum":true},{"pitch":42,"velocity":105,"startTime":41.37928,"endTime":41.46548683333334,"isDrum":true},{"pitch":42,"velocity":105,"startTime":41.6379005,"endTime":41.724107333333336,"isDrum":true},{"pitch":36,"velocity":105,"startTime":41.896521,"endTime":41.982727833333335,"isDrum":true},{"pitch":38,"velocity":105,"startTime":41.896521,"endTime":41.982727833333335,"isDrum":true},{"pitch":39,"velocity":105,"startTime":41.896521,"endTime":41.982727833333335,"isDrum":true},{"pitch":42,"velocity":105,"startTime":41.896521,"endTime":41.982727833333335,"isDrum":true},{"pitch":69,"velocity":105,"startTime":41.896521,"endTime":41.982727833333335,"isDrum":true},{"pitch":42,"velocity":105,"startTime":42.1551415,"endTime":42.241348333333335,"isDrum":true},{"pitch":36,"velocity":105,"startTime":42.413762000000006,"endTime":42.499968833333334,"isDrum":true},{"pitch":42,"velocity":105,"startTime":42.413762000000006,"endTime":42.499968833333334,"isDrum":true},{"pitch":42,"velocity":105,"startTime":42.672382500000005,"endTime":42.75858933333333,"isDrum":true},{"pitch":36,"velocity":105,"startTime":42.931003000000004,"endTime":43.01720983333333,"isDrum":true},{"pitch":38,"velocity":105,"startTime":42.931003000000004,"endTime":43.01720983333333,"isDrum":true},{"pitch":39,"velocity":105,"startTime":42.931003000000004,"endTime":43.01720983333333,"isDrum":true},{"pitch":42,"velocity":105,"startTime":42.931003000000004,"endTime":43.01720983333333,"isDrum":true},{"pitch":69,"velocity":105,"startTime":42.931003000000004,"endTime":43.01720983333333,"isDrum":true},{"pitch":42,"velocity":105,"startTime":43.1896235,"endTime":43.27583033333334,"isDrum":true},{"pitch":36,"velocity":105,"startTime":43.448244,"endTime":43.53445083333334,"isDrum":true},{"pitch":42,"velocity":105,"startTime":43.448244,"endTime":43.53445083333334,"isDrum":true},{"pitch":42,"velocity":105,"startTime":43.7068645,"endTime":43.79307133333334,"isDrum":true},{"pitch":36,"velocity":105,"startTime":43.965485,"endTime":44.05169183333334,"isDrum":true},{"pitch":38,"velocity":105,"startTime":43.965485,"endTime":44.05169183333334,"isDrum":true},{"pitch":39,"velocity":105,"startTime":43.965485,"endTime":44.05169183333334,"isDrum":true},{"pitch":42,"velocity":105,"startTime":43.965485,"endTime":44.05169183333334,"isDrum":true},{"pitch":69,"velocity":105,"startTime":43.965485,"endTime":44.05169183333334,"isDrum":true},{"pitch":42,"velocity":105,"startTime":44.2241055,"endTime":44.310312333333336,"isDrum":true},{"pitch":36,"velocity":105,"startTime":44.482726,"endTime":44.568932833333335,"isDrum":true},{"pitch":42,"velocity":105,"startTime":44.482726,"endTime":44.568932833333335,"isDrum":true},{"pitch":42,"velocity":105,"startTime":44.741346500000006,"endTime":44.827553333333334,"isDrum":true},{"pitch":36,"velocity":105,"startTime":44.999967000000005,"endTime":45.08617383333333,"isDrum":true},{"pitch":38,"velocity":105,"startTime":44.999967000000005,"endTime":45.08617383333333,"isDrum":true},{"pitch":39,"velocity":105,"startTime":44.999967000000005,"endTime":45.08617383333333,"isDrum":true},{"pitch":42,"velocity":105,"startTime":44.999967000000005,"endTime":45.08617383333333,"isDrum":true},{"pitch":69,"velocity":105,"startTime":44.999967000000005,"endTime":45.08617383333333,"isDrum":true},{"pitch":42,"velocity":105,"startTime":45.258587500000004,"endTime":45.34479433333333,"isDrum":true},{"pitch":36,"velocity":105,"startTime":45.517208000000004,"endTime":45.60341483333334,"isDrum":true},{"pitch":42,"velocity":105,"startTime":45.517208000000004,"endTime":45.60341483333334,"isDrum":true},{"pitch":42,"velocity":105,"startTime":45.7758285,"endTime":45.86203533333334,"isDrum":true},{"pitch":36,"velocity":105,"startTime":46.034449,"endTime":46.12065583333334,"isDrum":true},{"pitch":38,"velocity":105,"startTime":46.034449,"endTime":46.12065583333334,"isDrum":true},{"pitch":39,"velocity":105,"startTime":46.034449,"endTime":46.12065583333334,"isDrum":true},{"pitch":42,"velocity":105,"startTime":46.034449,"endTime":46.12065583333334,"isDrum":true},{"pitch":69,"velocity":105,"startTime":46.034449,"endTime":46.12065583333334,"isDrum":true},{"pitch":42,"velocity":105,"startTime":46.2930695,"endTime":46.37927633333334,"isDrum":true},{"pitch":60,"velocity":123,"startTime":33.103424000000004,"endTime":33.3620445,"instrument":1,"program":4},{"pitch":64,"velocity":123,"startTime":33.103424000000004,"endTime":33.3620445,"instrument":1,"program":4},{"pitch":66,"velocity":123,"startTime":33.103424000000004,"endTime":33.3620445,"instrument":1,"program":4},{"pitch":69,"velocity":123,"startTime":33.103424000000004,"endTime":33.3620445,"instrument":1,"program":4},{"pitch":60,"velocity":123,"startTime":33.620665,"endTime":33.8792855,"instrument":1,"program":4},{"pitch":64,"velocity":123,"startTime":33.620665,"endTime":33.8792855,"instrument":1,"program":4},{"pitch":66,"velocity":123,"startTime":33.620665,"endTime":33.8792855,"instrument":1,"program":4},{"pitch":69,"velocity":123,"startTime":33.620665,"endTime":33.8792855,"instrument":1,"program":4},{"pitch":60,"velocity":123,"startTime":34.137906,"endTime":34.3965265,"instrument":1,"program":4},{"pitch":63,"velocity":123,"startTime":34.137906,"endTime":34.3965265,"instrument":1,"program":4},{"pitch":66,"velocity":123,"startTime":34.137906,"endTime":34.3965265,"instrument":1,"program":4},{"pitch":68,"velocity":123,"startTime":34.137906,"endTime":34.3965265,"instrument":1,"program":4},{"pitch":60,"velocity":123,"startTime":34.655147,"endTime":34.9137675,"instrument":1,"program":4},{"pitch":63,"velocity":123,"startTime":34.655147,"endTime":34.9137675,"instrument":1,"program":4},{"pitch":66,"velocity":123,"startTime":34.655147,"endTime":34.9137675,"instrument":1,"program":4},{"pitch":68,"velocity":123,"startTime":34.655147,"endTime":34.9137675,"instrument":1,"program":4},{"pitch":61,"velocity":123,"startTime":35.431008500000004,"endTime":35.56031875,"instrument":1,"program":4},{"pitch":66,"velocity":123,"startTime":35.431008500000004,"endTime":35.56031875,"instrument":1,"program":4},{"pitch":68,"velocity":123,"startTime":35.431008500000004,"endTime":35.56031875,"instrument":1,"program":4},{"pitch":70,"velocity":123,"startTime":35.431008500000004,"endTime":35.56031875,"instrument":1,"program":4},{"pitch":61,"velocity":123,"startTime":35.689629000000004,"endTime":35.9482495,"instrument":1,"program":4},{"pitch":66,"velocity":123,"startTime":35.689629000000004,"endTime":35.9482495,"instrument":1,"program":4},{"pitch":68,"velocity":123,"startTime":35.689629000000004,"endTime":35.9482495,"instrument":1,"program":4},{"pitch":70,"velocity":123,"startTime":35.689629000000004,"endTime":35.9482495,"instrument":1,"program":4},{"pitch":61,"velocity":123,"startTime":36.20687,"endTime":36.50859391666667,"instrument":1,"program":4},{"pitch":64,"velocity":123,"startTime":36.20687,"endTime":36.50859391666667,"instrument":1,"program":4},{"pitch":66,"velocity":123,"startTime":36.20687,"endTime":36.50859391666667,"instrument":1,"program":4},{"pitch":69,"velocity":123,"startTime":36.20687,"endTime":36.50859391666667,"instrument":1,"program":4},{"pitch":61,"velocity":123,"startTime":36.724111,"endTime":36.9827315,"instrument":1,"program":4},{"pitch":64,"velocity":123,"startTime":36.724111,"endTime":36.9827315,"instrument":1,"program":4},{"pitch":66,"velocity":123,"startTime":36.724111,"endTime":36.9827315,"instrument":1,"program":4},{"pitch":69,"velocity":123,"startTime":36.724111,"endTime":36.9827315,"instrument":1,"program":4},{"pitch":60,"velocity":123,"startTime":37.241352,"endTime":37.499972500000005,"instrument":1,"program":4},{"pitch":64,"velocity":123,"startTime":37.241352,"endTime":37.499972500000005,"instrument":1,"program":4},{"pitch":67,"velocity":123,"startTime":37.241352,"endTime":37.499972500000005,"instrument":1,"program":4},{"pitch":69,"velocity":123,"startTime":37.241352,"endTime":37.499972500000005,"instrument":1,"program":4},{"pitch":60,"velocity":123,"startTime":37.758593000000005,"endTime":38.017213500000004,"instrument":1,"program":4},{"pitch":64,"velocity":123,"startTime":37.758593000000005,"endTime":38.017213500000004,"instrument":1,"program":4},{"pitch":67,"velocity":123,"startTime":37.758593000000005,"endTime":38.017213500000004,"instrument":1,"program":4},{"pitch":69,"velocity":123,"startTime":37.758593000000005,"endTime":38.017213500000004,"instrument":1,"program":4},{"pitch":62,"velocity":123,"startTime":38.275834,"endTime":38.5344545,"instrument":1,"program":4},{"pitch":64,"velocity":123,"startTime":38.275834,"endTime":38.5344545,"instrument":1,"program":4},{"pitch":69,"velocity":123,"startTime":38.275834,"endTime":38.5344545,"instrument":1,"program":4},{"pitch":62,"velocity":123,"startTime":39.0516955,"endTime":39.5689365,"instrument":1,"program":4},{"pitch":66,"velocity":123,"startTime":39.0516955,"endTime":39.5689365,"instrument":1,"program":4},{"pitch":69,"velocity":123,"startTime":39.0516955,"endTime":39.5689365,"instrument":1,"program":4},{"pitch":62,"velocity":123,"startTime":39.827557,"endTime":40.086177500000005,"instrument":1,"program":4},{"pitch":66,"velocity":123,"startTime":39.827557,"endTime":40.086177500000005,"instrument":1,"program":4},{"pitch":69,"velocity":123,"startTime":39.827557,"endTime":40.086177500000005,"instrument":1,"program":4},{"pitch":62,"velocity":123,"startTime":40.344798000000004,"endTime":40.603418500000004,"instrument":1,"program":4},{"pitch":66,"velocity":123,"startTime":40.344798000000004,"endTime":40.603418500000004,"instrument":1,"program":4},{"pitch":69,"velocity":123,"startTime":40.344798000000004,"endTime":40.603418500000004,"instrument":1,"program":4},{"pitch":62,"velocity":123,"startTime":40.862039,"endTime":41.1206595,"instrument":1,"program":4},{"pitch":66,"velocity":123,"startTime":40.862039,"endTime":41.1206595,"instrument":1,"program":4},{"pitch":69,"velocity":123,"startTime":40.862039,"endTime":41.1206595,"instrument":1,"program":4},{"pitch":62,"velocity":123,"startTime":41.37928,"endTime":41.6379005,"instrument":1,"program":4},{"pitch":64,"velocity":123,"startTime":41.37928,"endTime":41.6379005,"instrument":1,"program":4},{"pitch":67,"velocity":123,"startTime":41.37928,"endTime":41.6379005,"instrument":1,"program":4},{"pitch":62,"velocity":123,"startTime":41.896521,"endTime":42.11203808333334,"instrument":1,"program":4},{"pitch":64,"velocity":123,"startTime":41.896521,"endTime":42.11203808333334,"instrument":1,"program":4},{"pitch":67,"velocity":123,"startTime":41.896521,"endTime":42.11203808333334,"instrument":1,"program":4},{"pitch":63,"velocity":123,"startTime":42.1551415,"endTime":42.672382500000005,"instrument":1,"program":4},{"pitch":66,"velocity":123,"startTime":42.1551415,"endTime":42.672382500000005,"instrument":1,"program":4},{"pitch":68,"velocity":123,"startTime":42.1551415,"endTime":42.672382500000005,"instrument":1,"program":4},{"pitch":72,"velocity":123,"startTime":42.1551415,"endTime":42.672382500000005,"instrument":1,"program":4},{"pitch":66,"velocity":123,"startTime":42.931003000000004,"endTime":43.1896235,"instrument":1,"program":4},{"pitch":68,"velocity":123,"startTime":42.931003000000004,"endTime":43.1896235,"instrument":1,"program":4},{"pitch":72,"velocity":123,"startTime":42.931003000000004,"endTime":43.1896235,"instrument":1,"program":4},{"pitch":59,"velocity":123,"startTime":43.448244,"endTime":43.7068645,"instrument":1,"program":4},{"pitch":64,"velocity":123,"startTime":43.448244,"endTime":43.7068645,"instrument":1,"program":4},{"pitch":68,"velocity":123,"startTime":43.448244,"endTime":43.7068645,"instrument":1,"program":4},{"pitch":59,"velocity":123,"startTime":43.965485,"endTime":44.2241055,"instrument":1,"program":4},{"pitch":64,"velocity":123,"startTime":43.965485,"endTime":44.2241055,"instrument":1,"program":4},{"pitch":68,"velocity":123,"startTime":43.965485,"endTime":44.2241055,"instrument":1,"program":4},{"pitch":60,"velocity":123,"startTime":44.482726,"endTime":44.741346500000006,"instrument":1,"program":4},{"pitch":64,"velocity":123,"startTime":44.482726,"endTime":44.741346500000006,"instrument":1,"program":4},{"pitch":69,"velocity":123,"startTime":44.482726,"endTime":44.741346500000006,"instrument":1,"program":4},{"pitch":60,"velocity":123,"startTime":44.999967000000005,"endTime":45.21548408333334,"instrument":1,"program":4},{"pitch":64,"velocity":123,"startTime":44.999967000000005,"endTime":45.21548408333334,"instrument":1,"program":4},{"pitch":69,"velocity":123,"startTime":44.999967000000005,"endTime":45.21548408333334,"instrument":1,"program":4},{"pitch":60,"velocity":123,"startTime":45.258587500000004,"endTime":45.7758285,"instrument":1,"program":4},{"pitch":64,"velocity":123,"startTime":45.258587500000004,"endTime":45.7758285,"instrument":1,"program":4},{"pitch":67,"velocity":123,"startTime":45.258587500000004,"endTime":45.7758285,"instrument":1,"program":4},{"pitch":60,"velocity":123,"startTime":46.034449,"endTime":46.2930695,"instrument":1,"program":4},{"pitch":64,"velocity":123,"startTime":46.034449,"endTime":46.2930695,"instrument":1,"program":4},{"pitch":67,"velocity":123,"startTime":46.034449,"endTime":46.2930695,"instrument":1,"program":4},{"pitch":60,"velocity":123,"startTime":46.55169,"endTime":46.8103105,"instrument":1,"program":4},{"pitch":64,"velocity":123,"startTime":46.55169,"endTime":46.8103105,"instrument":1,"program":4},{"pitch":67,"velocity":123,"startTime":46.55169,"endTime":46.8103105,"instrument":1,"program":4},{"pitch":60,"velocity":123,"startTime":47.068931,"endTime":47.327551500000006,"instrument":1,"program":4},{"pitch":64,"velocity":123,"startTime":47.068931,"endTime":47.327551500000006,"instrument":1,"program":4},{"pitch":67,"velocity":123,"startTime":47.068931,"endTime":47.327551500000006,"instrument":1,"program":4},{"pitch":62,"velocity":123,"startTime":47.586172000000005,"endTime":47.844792500000004,"instrument":1,"program":4},{"pitch":66,"velocity":123,"startTime":47.586172000000005,"endTime":47.844792500000004,"instrument":1,"program":4},{"pitch":69,"velocity":123,"startTime":47.586172000000005,"endTime":47.844792500000004,"instrument":1,"program":4},{"pitch":62,"velocity":123,"startTime":48.103413,"endTime":48.318930083333335,"instrument":1,"program":4},{"pitch":66,"velocity":123,"startTime":48.103413,"endTime":48.318930083333335,"instrument":1,"program":4},{"pitch":69,"velocity":123,"startTime":48.103413,"endTime":48.318930083333335,"instrument":1,"program":4},{"pitch":62,"velocity":123,"startTime":48.8792745,"endTime":49.008584750000004,"instrument":1,"program":4},{"pitch":64,"velocity":123,"startTime":48.8792745,"endTime":49.008584750000004,"instrument":1,"program":4},{"pitch":69,"velocity":123,"startTime":48.8792745,"endTime":49.008584750000004,"instrument":1,"program":4},{"pitch":62,"velocity":123,"startTime":49.137895,"endTime":49.3965155,"instrument":1,"program":4},{"pitch":64,"velocity":123,"startTime":49.137895,"endTime":49.3965155,"instrument":1,"program":4},{"pitch":69,"velocity":123,"startTime":49.137895,"endTime":49.3965155,"instrument":1,"program":4},{"pitch":56,"velocity":123,"startTime":33.3620445,"endTime":33.405147916666664,"instrument":2,"program":27},{"pitch":56,"velocity":123,"startTime":33.49135475,"endTime":33.57756158333334,"instrument":2,"program":27},{"pitch":61,"velocity":123,"startTime":33.620665,"endTime":33.74997525,"instrument":2,"program":27},{"pitch":56,"velocity":123,"startTime":33.8792855,"endTime":34.008595750000005,"instrument":2,"program":27},{"pitch":56,"velocity":123,"startTime":34.137906,"endTime":34.18100941666666,"instrument":2,"program":27},{"pitch":56,"velocity":123,"startTime":34.3965265,"endTime":34.52583675,"instrument":2,"program":27},{"pitch":56,"velocity":123,"startTime":34.52583675,"endTime":34.61204358333334,"instrument":2,"program":27},{"pitch":56,"velocity":123,"startTime":34.655147,"endTime":34.78445725,"instrument":2,"program":27},{"pitch":56,"velocity":123,"startTime":34.9137675,"endTime":34.99997433333334,"instrument":2,"program":27},{"pitch":55,"velocity":123,"startTime":35.172388000000005,"endTime":35.215491416666666,"instrument":2,"program":27},{"pitch":55,"velocity":123,"startTime":35.30169825,"endTime":35.431008500000004,"instrument":2,"program":27},{"pitch":54,"velocity":123,"startTime":35.431008500000004,"endTime":35.56031875,"instrument":2,"program":27},{"pitch":54,"velocity":123,"startTime":35.689629000000004,"endTime":35.81893925,"instrument":2,"program":27},{"pitch":54,"velocity":123,"startTime":35.9482495,"endTime":36.03445633333334,"instrument":2,"program":27},{"pitch":54,"velocity":123,"startTime":36.20687,"endTime":36.24997341666667,"instrument":2,"program":27},{"pitch":54,"velocity":123,"startTime":36.336180250000005,"endTime":36.422387083333334,"instrument":2,"program":27},{"pitch":54,"velocity":123,"startTime":36.4654905,"endTime":36.594800750000005,"instrument":2,"program":27},{"pitch":54,"velocity":123,"startTime":36.724111,"endTime":36.853421250000004,"instrument":2,"program":27},{"pitch":54,"velocity":123,"startTime":36.9827315,"endTime":37.11204175,"instrument":2,"program":27},{"pitch":57,"velocity":123,"startTime":37.241352,"endTime":37.28445541666667,"instrument":2,"program":27},{"pitch":57,"velocity":123,"startTime":37.37066225,"endTime":37.45686908333334,"instrument":2,"program":27},{"pitch":54,"velocity":123,"startTime":37.499972500000005,"endTime":37.62928275,"instrument":2,"program":27},{"pitch":55,"velocity":123,"startTime":37.758593000000005,"endTime":37.88790325,"instrument":2,"program":27},{"pitch":54,"velocity":123,"startTime":38.017213500000004,"endTime":38.06031691666667,"instrument":2,"program":27},{"pitch":54,"velocity":123,"startTime":38.14652375,"endTime":38.18962716666667,"instrument":2,"program":27},{"pitch":62,"velocity":123,"startTime":38.275834,"endTime":38.31893741666667,"instrument":2,"program":27},{"pitch":62,"velocity":123,"startTime":38.5344545,"endTime":38.57755791666667,"instrument":2,"program":27},{"pitch":62,"velocity":123,"startTime":38.793075,"endTime":38.922385250000005,"instrument":2,"program":27},{"pitch":62,"velocity":123,"startTime":39.0516955,"endTime":39.181005750000004,"instrument":2,"program":27},{"pitch":54,"velocity":123,"startTime":39.5689365,"endTime":39.61203991666667,"instrument":2,"program":27},{"pitch":54,"velocity":123,"startTime":39.69824675,"endTime":39.78445358333334,"instrument":2,"program":27},{"pitch":54,"velocity":123,"startTime":39.827557,"endTime":39.87066041666667,"instrument":2,"program":27},{"pitch":54,"velocity":123,"startTime":39.95686725,"endTime":40.04307408333334,"instrument":2,"program":27},{"pitch":54,"velocity":123,"startTime":40.086177500000005,"endTime":40.21548775,"instrument":2,"program":27},{"pitch":54,"velocity":123,"startTime":40.603418500000004,"endTime":40.64652191666667,"instrument":2,"program":27},{"pitch":54,"velocity":123,"startTime":40.73272875,"endTime":40.818935583333335,"instrument":2,"program":27},{"pitch":54,"velocity":123,"startTime":40.862039,"endTime":40.90514241666667,"instrument":2,"program":27},{"pitch":54,"velocity":123,"startTime":40.99134925,"endTime":41.03445266666667,"instrument":2,"program":27},{"pitch":54,"velocity":123,"startTime":41.1206595,"endTime":41.20686633333334,"instrument":2,"program":27},{"pitch":59,"velocity":123,"startTime":41.37928,"endTime":41.42238341666667,"instrument":2,"program":27},{"pitch":59,"velocity":123,"startTime":41.6379005,"endTime":41.767210750000004,"instrument":2,"program":27},{"pitch":59,"velocity":123,"startTime":41.767210750000004,"endTime":41.85341758333334,"instrument":2,"program":27},{"pitch":59,"velocity":123,"startTime":41.896521,"endTime":42.02583125,"instrument":2,"program":27},{"pitch":59,"velocity":123,"startTime":42.1551415,"endTime":42.28445175,"instrument":2,"program":27},{"pitch":60,"velocity":123,"startTime":42.672382500000005,"endTime":42.71548591666667,"instrument":2,"program":27},{"pitch":60,"velocity":123,"startTime":42.80169275,"endTime":42.887899583333336,"instrument":2,"program":27},{"pitch":60,"velocity":123,"startTime":42.931003000000004,"endTime":42.97410641666667,"instrument":2,"program":27},{"pitch":60,"velocity":123,"startTime":43.06031325,"endTime":43.10341666666667,"instrument":2,"program":27},{"pitch":60,"velocity":123,"startTime":43.1896235,"endTime":43.31893375,"instrument":2,"program":27},{"pitch":61,"velocity":123,"startTime":43.448244,"endTime":43.49134741666667,"instrument":2,"program":27},{"pitch":61,"velocity":123,"startTime":43.7068645,"endTime":43.836174750000005,"instrument":2,"program":27},{"pitch":61,"velocity":123,"startTime":43.965485,"endTime":44.094795250000004,"instrument":2,"program":27},{"pitch":61,"velocity":123,"startTime":44.094795250000004,"endTime":44.18100208333333,"instrument":2,"program":27},{"pitch":61,"velocity":123,"startTime":44.2241055,"endTime":44.310312333333336,"instrument":2,"program":27},{"pitch":57,"velocity":123,"startTime":44.482726,"endTime":44.52582941666667,"instrument":2,"program":27},{"pitch":57,"velocity":123,"startTime":44.741346500000006,"endTime":44.87065675,"instrument":2,"program":27},{"pitch":57,"velocity":123,"startTime":44.87065675,"endTime":44.95686358333334,"instrument":2,"program":27},{"pitch":60,"velocity":123,"startTime":44.999967000000005,"endTime":45.12927725,"instrument":2,"program":27},{"pitch":57,"velocity":123,"startTime":45.12927725,"endTime":45.258587500000004,"instrument":2,"program":27},{"pitch":60,"velocity":123,"startTime":45.7758285,"endTime":45.81893191666667,"instrument":2,"program":27},{"pitch":60,"velocity":123,"startTime":45.905138750000006,"endTime":45.991345583333334,"instrument":2,"program":27},{"pitch":60,"velocity":123,"startTime":46.034449,"endTime":46.163759250000005,"instrument":2,"program":27},{"pitch":60,"velocity":123,"startTime":46.163759250000005,"endTime":46.2930695,"instrument":2,"program":27},{"pitch":60,"velocity":123,"startTime":46.55169,"endTime":46.8103105,"instrument":2,"program":27},{"pitch":60,"velocity":123,"startTime":46.8103105,"endTime":46.93962075,"instrument":2,"program":27},{"pitch":60,"velocity":123,"startTime":47.068931,"endTime":47.19824125,"instrument":2,"program":27},{"pitch":57,"velocity":123,"startTime":47.19824125,"endTime":47.28444808333334,"instrument":2,"program":27},{"pitch":55,"velocity":123,"startTime":47.327551500000006,"endTime":47.413758333333334,"instrument":2,"program":27},{"pitch":57,"velocity":123,"startTime":47.586172000000005,"endTime":47.62927541666667,"instrument":2,"program":27},{"pitch":57,"velocity":123,"startTime":47.71548225,"endTime":47.801689083333336,"instrument":2,"program":27},{"pitch":54,"velocity":123,"startTime":47.844792500000004,"endTime":47.97410275,"instrument":2,"program":27},{"pitch":54,"velocity":123,"startTime":47.97410275,"endTime":48.060309583333336,"instrument":2,"program":27},{"pitch":59,"velocity":123,"startTime":48.103413,"endTime":48.23272325,"instrument":2,"program":27},{"pitch":57,"velocity":123,"startTime":48.23272325,"endTime":48.318930083333335,"instrument":2,"program":27},{"pitch":57,"velocity":123,"startTime":48.3620335,"endTime":48.44824033333334,"instrument":2,"program":27},{"pitch":59,"velocity":123,"startTime":48.8792745,"endTime":48.92237791666667,"instrument":2,"program":27},{"pitch":59,"velocity":123,"startTime":49.008584750000004,"endTime":49.09479158333334,"instrument":2,"program":27},{"pitch":59,"velocity":123,"startTime":49.137895,"endTime":49.18099841666667,"instrument":2,"program":27},{"pitch":59,"velocity":123,"startTime":49.26720525,"endTime":49.35341208333334,"instrument":2,"program":27},{"pitch":59,"velocity":123,"startTime":49.3965155,"endTime":49.52582575,"instrument":2,"program":27},{"pitch":50,"velocity":123,"startTime":48.620654,"endTime":49.655136000000006,"instrument":3,"program":34},{"pitch":44,"velocity":117,"startTime":33.8792855,"endTime":34.008595750000005,"instrument":4,"program":35},{"pitch":44,"velocity":117,"startTime":34.137906,"endTime":34.310319666666665,"instrument":4,"program":35},{"pitch":30,"velocity":117,"startTime":35.172388000000005,"endTime":35.34480166666667,"instrument":4,"program":35},{"pitch":33,"velocity":117,"startTime":36.20687,"endTime":36.336180250000005,"instrument":4,"program":35},{"pitch":33,"velocity":117,"startTime":36.4654905,"endTime":36.594800750000005,"instrument":4,"program":35},{"pitch":35,"velocity":117,"startTime":37.499972500000005,"endTime":37.62928275,"instrument":4,"program":35},{"pitch":36,"velocity":117,"startTime":38.017213500000004,"endTime":38.14652375,"instrument":4,"program":35},{"pitch":28,"velocity":117,"startTime":38.275834,"endTime":38.44824766666667,"instrument":4,"program":35},{"pitch":35,"velocity":117,"startTime":39.310316,"endTime":39.48272966666667,"instrument":4,"program":35},{"pitch":35,"velocity":117,"startTime":40.086177500000005,"endTime":40.21548775,"instrument":4,"program":35},{"pitch":35,"velocity":117,"startTime":41.1206595,"endTime":41.249969750000005,"instrument":4,"program":35},{"pitch":35,"velocity":117,"startTime":41.249969750000005,"endTime":41.336176583333334,"instrument":4,"program":35},{"pitch":28,"velocity":117,"startTime":41.37928,"endTime":41.55169366666667,"instrument":4,"program":35},{"pitch":28,"velocity":117,"startTime":42.1551415,"endTime":42.28445175,"instrument":4,"program":35},{"pitch":32,"velocity":117,"startTime":42.413762000000006,"endTime":42.58617566666667,"instrument":4,"program":35},{"pitch":37,"velocity":117,"startTime":43.448244,"endTime":43.53445083333334,"instrument":4,"program":35},{"pitch":25,"velocity":117,"startTime":43.577554250000006,"endTime":43.663761083333334,"instrument":4,"program":35},{"pitch":37,"velocity":117,"startTime":43.7068645,"endTime":43.836174750000005,"instrument":4,"program":35},{"pitch":38,"velocity":117,"startTime":44.741346500000006,"endTime":44.87065675,"instrument":4,"program":35},{"pitch":38,"velocity":117,"startTime":44.999967000000005,"endTime":45.08617383333333,"instrument":4,"program":35},{"pitch":40,"velocity":117,"startTime":45.12927725,"endTime":45.21548408333334,"instrument":4,"program":35},{"pitch":38,"velocity":117,"startTime":45.258587500000004,"endTime":45.474104583333336,"instrument":4,"program":35},{"pitch":36,"velocity":117,"startTime":45.517208000000004,"endTime":45.68962166666667,"instrument":4,"program":35},{"pitch":38,"velocity":117,"startTime":46.2930695,"endTime":46.422379750000005,"instrument":4,"program":35},{"pitch":38,"velocity":117,"startTime":46.55169,"endTime":46.72410366666667,"instrument":4,"program":35},{"pitch":38,"velocity":117,"startTime":46.8103105,"endTime":46.93962075,"instrument":4,"program":35},{"pitch":38,"velocity":117,"startTime":47.068931,"endTime":47.24134466666667,"instrument":4,"program":35},{"pitch":35,"velocity":117,"startTime":48.8792745,"endTime":49.008584750000004,"instrument":4,"program":35},{"pitch":35,"velocity":117,"startTime":49.008584750000004,"endTime":49.137895,"instrument":4,"program":35},{"pitch":38,"velocity":117,"startTime":49.137895,"endTime":49.26720525,"instrument":4,"program":35},{"pitch":35,"velocity":117,"startTime":49.26720525,"endTime":49.35341208333334,"instrument":4,"program":35},{"pitch":33,"velocity":117,"startTime":49.3965155,"endTime":49.52582575,"instrument":4,"program":35},{"pitch":35,"velocity":118,"startTime":47.586172000000005,"endTime":47.844792500000004,"instrument":5,"program":87},{"pitch":38,"velocity":118,"startTime":49.3965155,"endTime":49.655136000000006,"instrument":5,"program":87},{"pitch":35,"velocity":105,"startTime":49.655136000000006,"endTime":49.78444625,"isDrum":true},{"pitch":42,"velocity":105,"startTime":49.655136000000006,"endTime":49.78444625,"isDrum":true},{"pitch":42,"velocity":105,"startTime":49.913756500000005,"endTime":50.04306675,"isDrum":true},{"pitch":38,"velocity":105,"startTime":50.172377000000004,"endTime":50.30168725,"isDrum":true},{"pitch":39,"velocity":105,"startTime":50.172377000000004,"endTime":50.30168725,"isDrum":true},{"pitch":42,"velocity":105,"startTime":50.172377000000004,"endTime":50.30168725,"isDrum":true},{"pitch":69,"velocity":105,"startTime":50.172377000000004,"endTime":50.30168725,"isDrum":true},{"pitch":35,"velocity":105,"startTime":50.430997500000004,"endTime":50.56030775,"isDrum":true},{"pitch":42,"velocity":105,"startTime":50.430997500000004,"endTime":50.56030775,"isDrum":true},{"pitch":42,"velocity":105,"startTime":50.689618,"endTime":50.818928250000006,"isDrum":true},{"pitch":35,"velocity":105,"startTime":50.9482385,"endTime":51.077548750000005,"isDrum":true},{"pitch":46,"velocity":105,"startTime":50.9482385,"endTime":51.077548750000005,"isDrum":true},{"pitch":38,"velocity":105,"startTime":51.206859,"endTime":51.336169250000005,"isDrum":true},{"pitch":39,"velocity":105,"startTime":51.206859,"endTime":51.336169250000005,"isDrum":true},{"pitch":42,"velocity":105,"startTime":51.206859,"endTime":51.336169250000005,"isDrum":true},{"pitch":69,"velocity":105,"startTime":51.206859,"endTime":51.336169250000005,"isDrum":true},{"pitch":35,"velocity":105,"startTime":51.4654795,"endTime":51.594789750000004,"isDrum":true},{"pitch":42,"velocity":105,"startTime":51.4654795,"endTime":51.594789750000004,"isDrum":true},{"pitch":35,"velocity":105,"startTime":51.7241,"endTime":51.85341025,"isDrum":true},{"pitch":42,"velocity":105,"startTime":51.7241,"endTime":51.85341025,"isDrum":true},{"pitch":42,"velocity":105,"startTime":51.85341025,"endTime":51.982720500000006,"isDrum":true},{"pitch":42,"velocity":105,"startTime":51.982720500000006,"endTime":52.11203075,"isDrum":true},{"pitch":38,"velocity":105,"startTime":52.241341000000006,"endTime":52.37065125,"isDrum":true},{"pitch":39,"velocity":105,"startTime":52.241341000000006,"endTime":52.37065125,"isDrum":true},{"pitch":42,"velocity":105,"startTime":52.241341000000006,"endTime":52.37065125,"isDrum":true},{"pitch":69,"velocity":105,"startTime":52.241341000000006,"endTime":52.37065125,"isDrum":true},{"pitch":35,"velocity":105,"startTime":52.499961500000005,"endTime":52.62927175,"isDrum":true},{"pitch":42,"velocity":105,"startTime":52.499961500000005,"endTime":52.62927175,"isDrum":true},{"pitch":42,"velocity":105,"startTime":52.758582000000004,"endTime":52.88789225,"isDrum":true},{"pitch":35,"velocity":105,"startTime":53.0172025,"endTime":53.14651275000001,"isDrum":true},{"pitch":46,"velocity":105,"startTime":53.0172025,"endTime":53.14651275000001,"isDrum":true},{"pitch":38,"velocity":105,"startTime":53.275823,"endTime":53.405133250000006,"isDrum":true},{"pitch":39,"velocity":105,"startTime":53.275823,"endTime":53.405133250000006,"isDrum":true},{"pitch":42,"velocity":105,"startTime":53.275823,"endTime":53.405133250000006,"isDrum":true},{"pitch":69,"velocity":105,"startTime":53.275823,"endTime":53.405133250000006,"isDrum":true},{"pitch":35,"velocity":105,"startTime":53.5344435,"endTime":53.663753750000005,"isDrum":true},{"pitch":42,"velocity":105,"startTime":53.5344435,"endTime":53.663753750000005,"isDrum":true},{"pitch":35,"velocity":105,"startTime":53.793064,"endTime":53.922374250000004,"isDrum":true},{"pitch":42,"velocity":105,"startTime":53.793064,"endTime":53.922374250000004,"isDrum":true},{"pitch":42,"velocity":105,"startTime":54.0516845,"endTime":54.18099475,"isDrum":true},{"pitch":38,"velocity":105,"startTime":54.310305,"endTime":54.43961525,"isDrum":true},{"pitch":39,"velocity":105,"startTime":54.310305,"endTime":54.43961525,"isDrum":true},{"pitch":42,"velocity":105,"startTime":54.310305,"endTime":54.43961525,"isDrum":true},{"pitch":69,"velocity":105,"startTime":54.310305,"endTime":54.43961525,"isDrum":true},{"pitch":35,"velocity":105,"startTime":54.568925500000006,"endTime":54.69823575,"isDrum":true},{"pitch":42,"velocity":105,"startTime":54.568925500000006,"endTime":54.69823575,"isDrum":true},{"pitch":42,"velocity":105,"startTime":54.827546000000005,"endTime":54.95685625,"isDrum":true},{"pitch":35,"velocity":105,"startTime":55.086166500000004,"endTime":55.21547675,"isDrum":true},{"pitch":46,"velocity":105,"startTime":55.086166500000004,"endTime":55.21547675,"isDrum":true},{"pitch":38,"velocity":105,"startTime":55.344787000000004,"endTime":55.47409725,"isDrum":true},{"pitch":39,"velocity":105,"startTime":55.344787000000004,"endTime":55.47409725,"isDrum":true},{"pitch":42,"velocity":105,"startTime":55.344787000000004,"endTime":55.47409725,"isDrum":true},{"pitch":69,"velocity":105,"startTime":55.344787000000004,"endTime":55.47409725,"isDrum":true},{"pitch":35,"velocity":105,"startTime":55.6034075,"endTime":55.732717750000006,"isDrum":true},{"pitch":42,"velocity":105,"startTime":55.6034075,"endTime":55.732717750000006,"isDrum":true},{"pitch":35,"velocity":105,"startTime":55.862028,"endTime":55.991338250000005,"isDrum":true},{"pitch":42,"velocity":105,"startTime":55.862028,"endTime":55.991338250000005,"isDrum":true},{"pitch":42,"velocity":105,"startTime":56.1206485,"endTime":56.249958750000005,"isDrum":true},{"pitch":38,"velocity":105,"startTime":56.379269,"endTime":56.508579250000004,"isDrum":true},{"pitch":39,"velocity":105,"startTime":56.379269,"endTime":56.508579250000004,"isDrum":true},{"pitch":42,"velocity":105,"startTime":56.379269,"endTime":56.508579250000004,"isDrum":true},{"pitch":69,"velocity":105,"startTime":56.379269,"endTime":56.508579250000004,"isDrum":true},{"pitch":35,"velocity":105,"startTime":56.6378895,"endTime":56.76719975,"isDrum":true},{"pitch":42,"velocity":105,"startTime":56.6378895,"endTime":56.76719975,"isDrum":true},{"pitch":42,"velocity":105,"startTime":56.896510000000006,"endTime":57.02582025,"isDrum":true},{"pitch":69,"velocity":105,"startTime":56.896510000000006,"endTime":57.02582025,"isDrum":true},{"pitch":35,"velocity":105,"startTime":57.155130500000006,"endTime":57.28444075,"isDrum":true},{"pitch":42,"velocity":105,"startTime":57.155130500000006,"endTime":57.28444075,"isDrum":true},{"pitch":38,"velocity":105,"startTime":57.413751000000005,"endTime":57.54306125,"isDrum":true},{"pitch":39,"velocity":105,"startTime":57.413751000000005,"endTime":57.54306125,"isDrum":true},{"pitch":42,"velocity":105,"startTime":57.413751000000005,"endTime":57.54306125,"isDrum":true},{"pitch":69,"velocity":105,"startTime":57.413751000000005,"endTime":57.54306125,"isDrum":true},{"pitch":35,"velocity":105,"startTime":57.672371500000004,"endTime":57.80168175,"isDrum":true},{"pitch":42,"velocity":105,"startTime":57.672371500000004,"endTime":57.80168175,"isDrum":true},{"pitch":35,"velocity":105,"startTime":57.930992,"endTime":58.06030225000001,"isDrum":true},{"pitch":42,"velocity":105,"startTime":57.930992,"endTime":58.06030225000001,"isDrum":true},{"pitch":38,"velocity":105,"startTime":58.448233,"endTime":58.577543250000005,"isDrum":true},{"pitch":39,"velocity":105,"startTime":58.448233,"endTime":58.577543250000005,"isDrum":true},{"pitch":42,"velocity":105,"startTime":58.448233,"endTime":58.577543250000005,"isDrum":true},{"pitch":69,"velocity":105,"startTime":58.448233,"endTime":58.577543250000005,"isDrum":true},{"pitch":35,"velocity":105,"startTime":58.7068535,"endTime":58.836163750000004,"isDrum":true},{"pitch":42,"velocity":105,"startTime":58.7068535,"endTime":58.836163750000004,"isDrum":true},{"pitch":42,"velocity":105,"startTime":58.965474,"endTime":59.094784250000004,"isDrum":true},{"pitch":35,"velocity":105,"startTime":59.22409450000001,"endTime":59.35340475,"isDrum":true},{"pitch":42,"velocity":105,"startTime":59.22409450000001,"endTime":59.35340475,"isDrum":true},{"pitch":38,"velocity":105,"startTime":59.482715000000006,"endTime":59.61202525,"isDrum":true},{"pitch":39,"velocity":105,"startTime":59.482715000000006,"endTime":59.61202525,"isDrum":true},{"pitch":42,"velocity":105,"startTime":59.482715000000006,"endTime":59.61202525,"isDrum":true},{"pitch":69,"velocity":105,"startTime":59.482715000000006,"endTime":59.61202525,"isDrum":true},{"pitch":35,"velocity":105,"startTime":59.741335500000005,"endTime":59.87064575,"isDrum":true},{"pitch":42,"velocity":105,"startTime":59.741335500000005,"endTime":59.87064575,"isDrum":true},{"pitch":35,"velocity":105,"startTime":59.999956000000005,"endTime":60.12926625,"isDrum":true},{"pitch":42,"velocity":105,"startTime":59.999956000000005,"endTime":60.12926625,"isDrum":true},{"pitch":38,"velocity":105,"startTime":60.517197,"endTime":60.646507250000006,"isDrum":true},{"pitch":39,"velocity":105,"startTime":60.517197,"endTime":60.646507250000006,"isDrum":true},{"pitch":42,"velocity":105,"startTime":60.517197,"endTime":60.646507250000006,"isDrum":true},{"pitch":69,"velocity":105,"startTime":60.517197,"endTime":60.646507250000006,"isDrum":true},{"pitch":35,"velocity":105,"startTime":60.7758175,"endTime":60.905127750000005,"isDrum":true},{"pitch":42,"velocity":105,"startTime":60.7758175,"endTime":60.905127750000005,"isDrum":true},{"pitch":42,"velocity":105,"startTime":61.034438,"endTime":61.163748250000005,"isDrum":true},{"pitch":35,"velocity":105,"startTime":61.2930585,"endTime":61.422368750000004,"isDrum":true},{"pitch":46,"velocity":105,"startTime":61.2930585,"endTime":61.422368750000004,"isDrum":true},{"pitch":38,"velocity":105,"startTime":61.551679,"endTime":61.68098925,"isDrum":true},{"pitch":39,"velocity":105,"startTime":61.551679,"endTime":61.68098925,"isDrum":true},{"pitch":42,"velocity":105,"startTime":61.551679,"endTime":61.68098925,"isDrum":true},{"pitch":69,"velocity":105,"startTime":61.551679,"endTime":61.68098925,"isDrum":true},{"pitch":35,"velocity":105,"startTime":61.810299500000006,"endTime":61.93960975,"isDrum":true},{"pitch":42,"velocity":105,"startTime":61.810299500000006,"endTime":61.93960975,"isDrum":true},{"pitch":35,"velocity":105,"startTime":62.068920000000006,"endTime":62.19823025,"isDrum":true},{"pitch":42,"velocity":105,"startTime":62.068920000000006,"endTime":62.19823025,"isDrum":true},{"pitch":38,"velocity":105,"startTime":62.586161000000004,"endTime":62.71547125,"isDrum":true},{"pitch":39,"velocity":105,"startTime":62.586161000000004,"endTime":62.71547125,"isDrum":true},{"pitch":42,"velocity":105,"startTime":62.586161000000004,"endTime":62.71547125,"isDrum":true},{"pitch":69,"velocity":105,"startTime":62.586161000000004,"endTime":62.71547125,"isDrum":true},{"pitch":35,"velocity":105,"startTime":62.8447815,"endTime":62.97409175000001,"isDrum":true},{"pitch":42,"velocity":105,"startTime":62.8447815,"endTime":62.97409175000001,"isDrum":true},{"pitch":42,"velocity":105,"startTime":63.103402,"endTime":63.232712250000006,"isDrum":true},{"pitch":35,"velocity":105,"startTime":63.3620225,"endTime":63.491332750000005,"isDrum":true},{"pitch":46,"velocity":105,"startTime":63.3620225,"endTime":63.491332750000005,"isDrum":true},{"pitch":38,"velocity":105,"startTime":63.620643,"endTime":63.749953250000004,"isDrum":true},{"pitch":39,"velocity":105,"startTime":63.620643,"endTime":63.749953250000004,"isDrum":true},{"pitch":42,"velocity":105,"startTime":63.620643,"endTime":63.749953250000004,"isDrum":true},{"pitch":69,"velocity":105,"startTime":63.620643,"endTime":63.749953250000004,"isDrum":true},{"pitch":35,"velocity":105,"startTime":63.8792635,"endTime":64.00857375000001,"isDrum":true},{"pitch":42,"velocity":105,"startTime":63.8792635,"endTime":64.00857375000001,"isDrum":true},{"pitch":42,"velocity":105,"startTime":64.137884,"endTime":64.26719425,"isDrum":true},{"pitch":69,"velocity":105,"startTime":64.137884,"endTime":64.26719425,"isDrum":true},{"pitch":35,"velocity":105,"startTime":64.3965045,"endTime":64.52581475000001,"isDrum":true},{"pitch":42,"velocity":105,"startTime":64.3965045,"endTime":64.52581475000001,"isDrum":true},{"pitch":38,"velocity":105,"startTime":64.655125,"endTime":64.78443525,"isDrum":true},{"pitch":39,"velocity":105,"startTime":64.655125,"endTime":64.78443525,"isDrum":true},{"pitch":42,"velocity":105,"startTime":64.655125,"endTime":64.78443525,"isDrum":true},{"pitch":69,"velocity":105,"startTime":64.655125,"endTime":64.78443525,"isDrum":true},{"pitch":35,"velocity":105,"startTime":64.9137455,"endTime":65.04305575000001,"isDrum":true},{"pitch":42,"velocity":105,"startTime":64.9137455,"endTime":65.04305575000001,"isDrum":true},{"pitch":62,"velocity":123,"startTime":56.896510000000006,"endTime":57.11202708333334,"instrument":1,"program":4},{"pitch":65,"velocity":123,"startTime":56.896510000000006,"endTime":57.11202708333334,"instrument":1,"program":4},{"pitch":69,"velocity":123,"startTime":56.896510000000006,"endTime":57.11202708333334,"instrument":1,"program":4},{"pitch":62,"velocity":123,"startTime":57.155130500000006,"endTime":57.28444075,"instrument":1,"program":4},{"pitch":65,"velocity":123,"startTime":57.155130500000006,"endTime":57.28444075,"instrument":1,"program":4},{"pitch":69,"velocity":123,"startTime":57.155130500000006,"endTime":57.28444075,"instrument":1,"program":4},{"pitch":62,"velocity":123,"startTime":57.672371500000004,"endTime":58.1896125,"instrument":1,"program":4},{"pitch":66,"velocity":123,"startTime":57.672371500000004,"endTime":58.1896125,"instrument":1,"program":4},{"pitch":69,"velocity":123,"startTime":57.672371500000004,"endTime":58.1896125,"instrument":1,"program":4},{"pitch":62,"velocity":123,"startTime":58.1896125,"endTime":58.318922750000006,"instrument":1,"program":4},{"pitch":66,"velocity":123,"startTime":58.1896125,"endTime":58.318922750000006,"instrument":1,"program":4},{"pitch":68,"velocity":123,"startTime":58.1896125,"endTime":58.318922750000006,"instrument":1,"program":4},{"pitch":60,"velocity":123,"startTime":59.999956000000005,"endTime":60.12926625,"instrument":1,"program":4},{"pitch":64,"velocity":123,"startTime":59.999956000000005,"endTime":60.12926625,"instrument":1,"program":4},{"pitch":69,"velocity":123,"startTime":59.999956000000005,"endTime":60.12926625,"instrument":1,"program":4},{"pitch":60,"velocity":123,"startTime":60.517197,"endTime":60.646507250000006,"instrument":1,"program":4},{"pitch":64,"velocity":123,"startTime":60.517197,"endTime":60.646507250000006,"instrument":1,"program":4},{"pitch":69,"velocity":123,"startTime":60.517197,"endTime":60.646507250000006,"instrument":1,"program":4},{"pitch":64,"velocity":123,"startTime":60.7758175,"endTime":60.905127750000005,"instrument":1,"program":4},{"pitch":69,"velocity":123,"startTime":60.7758175,"endTime":60.905127750000005,"instrument":1,"program":4},{"pitch":64,"velocity":123,"startTime":61.034438,"endTime":61.163748250000005,"instrument":1,"program":4},{"pitch":69,"velocity":123,"startTime":61.034438,"endTime":61.163748250000005,"instrument":1,"program":4},{"pitch":64,"velocity":123,"startTime":61.2930585,"endTime":61.422368750000004,"instrument":1,"program":4},{"pitch":69,"velocity":123,"startTime":61.2930585,"endTime":61.422368750000004,"instrument":1,"program":4},{"pitch":64,"velocity":123,"startTime":62.327540500000005,"endTime":62.45685075,"instrument":1,"program":4},{"pitch":67,"velocity":123,"startTime":62.327540500000005,"endTime":62.45685075,"instrument":1,"program":4},{"pitch":72,"velocity":123,"startTime":62.327540500000005,"endTime":62.45685075,"instrument":1,"program":4},{"pitch":64,"velocity":123,"startTime":62.586161000000004,"endTime":62.71547125,"instrument":1,"program":4},{"pitch":67,"velocity":123,"startTime":62.586161000000004,"endTime":62.71547125,"instrument":1,"program":4},{"pitch":72,"velocity":123,"startTime":62.586161000000004,"endTime":62.71547125,"instrument":1,"program":4},{"pitch":64,"velocity":123,"startTime":62.8447815,"endTime":62.97409175000001,"instrument":1,"program":4},{"pitch":67,"velocity":123,"startTime":62.8447815,"endTime":62.97409175000001,"instrument":1,"program":4},{"pitch":72,"velocity":123,"startTime":62.8447815,"endTime":62.97409175000001,"instrument":1,"program":4},{"pitch":57,"velocity":123,"startTime":63.8792635,"endTime":64.3965045,"instrument":1,"program":4},{"pitch":62,"velocity":123,"startTime":63.8792635,"endTime":64.3965045,"instrument":1,"program":4},{"pitch":66,"velocity":123,"startTime":63.8792635,"endTime":64.3965045,"instrument":1,"program":4},{"pitch":59,"velocity":123,"startTime":64.655125,"endTime":64.78443525,"instrument":1,"program":4},{"pitch":62,"velocity":123,"startTime":64.655125,"endTime":64.78443525,"instrument":1,"program":4},{"pitch":66,"velocity":123,"startTime":64.655125,"endTime":64.78443525,"instrument":1,"program":4},{"pitch":59,"velocity":123,"startTime":64.9137455,"endTime":65.04305575000001,"instrument":1,"program":4},{"pitch":62,"velocity":123,"startTime":64.9137455,"endTime":65.04305575000001,"instrument":1,"program":4},{"pitch":66,"velocity":123,"startTime":64.9137455,"endTime":65.04305575000001,"instrument":1,"program":4},{"pitch":59,"velocity":123,"startTime":65.172366,"endTime":65.4309865,"instrument":1,"program":4},{"pitch":62,"velocity":123,"startTime":65.172366,"endTime":65.4309865,"instrument":1,"program":4},{"pitch":66,"velocity":123,"startTime":65.172366,"endTime":65.4309865,"instrument":1,"program":4},{"pitch":55,"velocity":123,"startTime":49.655136000000006,"endTime":49.69823941666667,"instrument":2,"program":27},{"pitch":55,"velocity":123,"startTime":49.913756500000005,"endTime":49.95685991666667,"instrument":2,"program":27},{"pitch":55,"velocity":123,"startTime":50.172377000000004,"endTime":50.30168725,"instrument":2,"program":27},{"pitch":55,"velocity":123,"startTime":50.430997500000004,"endTime":50.51720433333334,"instrument":2,"program":27},{"pitch":55,"velocity":123,"startTime":50.56030775,"endTime":50.689618,"instrument":2,"program":27},{"pitch":60,"velocity":123,"startTime":50.818928250000006,"endTime":50.9482385,"instrument":2,"program":27},{"pitch":56,"velocity":123,"startTime":50.9482385,"endTime":51.077548750000005,"instrument":2,"program":27},{"pitch":60,"velocity":123,"startTime":51.206859,"endTime":51.336169250000005,"instrument":2,"program":27},{"pitch":56,"velocity":123,"startTime":51.336169250000005,"endTime":51.4654795,"instrument":2,"program":27},{"pitch":60,"velocity":123,"startTime":51.4654795,"endTime":51.594789750000004,"instrument":2,"program":27},{"pitch":61,"velocity":123,"startTime":51.7241,"endTime":51.76720341666667,"instrument":2,"program":27},{"pitch":61,"velocity":123,"startTime":51.982720500000006,"endTime":52.02582391666667,"instrument":2,"program":27},{"pitch":61,"velocity":123,"startTime":52.241341000000006,"endTime":52.37065125,"instrument":2,"program":27},{"pitch":61,"velocity":123,"startTime":52.37065125,"endTime":52.499961500000005,"instrument":2,"program":27},{"pitch":60,"velocity":123,"startTime":52.758582000000004,"endTime":52.80168541666667,"instrument":2,"program":27},{"pitch":60,"velocity":123,"startTime":53.0172025,"endTime":53.06030591666667,"instrument":2,"program":27},{"pitch":60,"velocity":123,"startTime":53.275823,"endTime":53.405133250000006,"instrument":2,"program":27},{"pitch":60,"velocity":123,"startTime":53.405133250000006,"endTime":53.5344435,"instrument":2,"program":27},{"pitch":60,"velocity":123,"startTime":53.922374250000004,"endTime":54.0516845,"instrument":2,"program":27},{"pitch":60,"velocity":123,"startTime":54.0516845,"endTime":54.18099475,"instrument":2,"program":27},{"pitch":60,"velocity":123,"startTime":54.310305,"endTime":54.43961525,"instrument":2,"program":27},{"pitch":60,"velocity":123,"startTime":54.43961525,"endTime":54.568925500000006,"instrument":2,"program":27},{"pitch":60,"velocity":123,"startTime":54.568925500000006,"endTime":54.69823575,"instrument":2,"program":27},{"pitch":60,"velocity":123,"startTime":54.95685625,"endTime":55.086166500000004,"instrument":2,"program":27},{"pitch":60,"velocity":123,"startTime":55.086166500000004,"endTime":55.17237333333334,"instrument":2,"program":27},{"pitch":60,"velocity":123,"startTime":55.344787000000004,"endTime":55.47409725,"instrument":2,"program":27},{"pitch":60,"velocity":123,"startTime":55.47409725,"endTime":55.6034075,"instrument":2,"program":27},{"pitch":54,"velocity":123,"startTime":55.862028,"endTime":55.90513141666667,"instrument":2,"program":27},{"pitch":54,"velocity":123,"startTime":55.991338250000005,"endTime":56.077545083333334,"instrument":2,"program":27},{"pitch":54,"velocity":123,"startTime":56.1206485,"endTime":56.249958750000005,"instrument":2,"program":27},{"pitch":54,"velocity":123,"startTime":56.249958750000005,"endTime":56.33616558333334,"instrument":2,"program":27},{"pitch":59,"velocity":123,"startTime":56.379269,"endTime":56.508579250000004,"instrument":2,"program":27},{"pitch":59,"velocity":123,"startTime":56.6378895,"endTime":56.76719975,"instrument":2,"program":27},{"pitch":59,"velocity":123,"startTime":57.155130500000006,"endTime":57.19823391666667,"instrument":2,"program":27},{"pitch":59,"velocity":123,"startTime":57.28444075,"endTime":57.413751000000005,"instrument":2,"program":27},{"pitch":59,"velocity":123,"startTime":57.413751000000005,"endTime":57.54306125,"instrument":2,"program":27},{"pitch":59,"velocity":123,"startTime":57.672371500000004,"endTime":57.80168175,"instrument":2,"program":27},{"pitch":59,"velocity":123,"startTime":57.930992,"endTime":57.97409541666667,"instrument":2,"program":27},{"pitch":59,"velocity":123,"startTime":58.06030225000001,"endTime":58.1896125,"instrument":2,"program":27},{"pitch":59,"velocity":123,"startTime":58.1896125,"endTime":58.318922750000006,"instrument":2,"program":27},{"pitch":52,"velocity":123,"startTime":58.448233,"endTime":58.53443983333334,"instrument":2,"program":27},{"pitch":59,"velocity":123,"startTime":58.7068535,"endTime":58.836163750000004,"instrument":2,"program":27},{"pitch":59,"velocity":123,"startTime":58.836163750000004,"endTime":58.92237058333334,"instrument":2,"program":27},{"pitch":59,"velocity":123,"startTime":58.965474,"endTime":59.00857741666667,"instrument":2,"program":27},{"pitch":59,"velocity":123,"startTime":59.094784250000004,"endTime":59.18099108333334,"instrument":2,"program":27},{"pitch":59,"velocity":123,"startTime":59.22409450000001,"endTime":59.35340475,"instrument":2,"program":27},{"pitch":59,"velocity":123,"startTime":59.482715000000006,"endTime":59.61202525,"instrument":2,"program":27},{"pitch":59,"velocity":123,"startTime":59.741335500000005,"endTime":59.87064575,"instrument":2,"program":27},{"pitch":61,"velocity":123,"startTime":59.999956000000005,"endTime":60.12926625,"instrument":2,"program":27},{"pitch":61,"velocity":123,"startTime":60.12926625,"endTime":60.215473083333336,"instrument":2,"program":27},{"pitch":61,"velocity":123,"startTime":60.258576500000004,"endTime":60.38788675000001,"instrument":2,"program":27},{"pitch":61,"velocity":123,"startTime":60.517197,"endTime":60.646507250000006,"instrument":2,"program":27},{"pitch":61,"velocity":123,"startTime":60.646507250000006,"endTime":60.732714083333335,"instrument":2,"program":27},{"pitch":61,"velocity":123,"startTime":61.034438,"endTime":61.07754141666667,"instrument":2,"program":27},{"pitch":61,"velocity":123,"startTime":61.163748250000005,"endTime":61.24995508333334,"instrument":2,"program":27},{"pitch":61,"velocity":123,"startTime":61.2930585,"endTime":61.422368750000004,"instrument":2,"program":27},{"pitch":61,"velocity":123,"startTime":61.551679,"endTime":61.68098925,"instrument":2,"program":27},{"pitch":64,"velocity":123,"startTime":61.68098925,"endTime":61.810299500000006,"instrument":2,"program":27},{"pitch":60,"velocity":123,"startTime":62.327540500000005,"endTime":62.37064391666667,"instrument":2,"program":27},{"pitch":60,"velocity":123,"startTime":62.45685075,"endTime":62.586161000000004,"instrument":2,"program":27},{"pitch":60,"velocity":123,"startTime":62.586161000000004,"endTime":62.71547125,"instrument":2,"program":27},{"pitch":60,"velocity":123,"startTime":62.8447815,"endTime":62.97409175000001,"instrument":2,"program":27},{"pitch":60,"velocity":123,"startTime":63.3620225,"endTime":63.40512591666667,"instrument":2,"program":27},{"pitch":60,"velocity":123,"startTime":63.491332750000005,"endTime":63.53443616666667,"instrument":2,"program":27},{"pitch":60,"velocity":123,"startTime":63.620643,"endTime":63.70684983333334,"instrument":2,"program":27},{"pitch":60,"velocity":123,"startTime":63.749953250000004,"endTime":63.83616008333334,"instrument":2,"program":27},{"pitch":62,"velocity":123,"startTime":63.8792635,"endTime":64.00857375000001,"instrument":2,"program":27},{"pitch":62,"velocity":123,"startTime":64.137884,"endTime":64.18098741666667,"instrument":2,"program":27},{"pitch":62,"velocity":123,"startTime":64.26719425,"endTime":64.35340108333334,"instrument":2,"program":27},{"pitch":62,"velocity":123,"startTime":64.3965045,"endTime":64.52581475000001,"instrument":2,"program":27},{"pitch":62,"velocity":123,"startTime":64.655125,"endTime":64.78443525,"instrument":2,"program":27},{"pitch":62,"velocity":123,"startTime":64.78443525,"endTime":64.87064208333334,"instrument":2,"program":27},{"pitch":62,"velocity":123,"startTime":65.172366,"endTime":65.21546941666666,"instrument":2,"program":27},{"pitch":62,"velocity":123,"startTime":65.30167625,"endTime":65.38788308333334,"instrument":2,"program":27},{"pitch":62,"velocity":123,"startTime":65.4309865,"endTime":65.56029675,"instrument":2,"program":27},{"pitch":62,"velocity":123,"startTime":65.68960700000001,"endTime":65.81891725,"instrument":2,"program":27},{"pitch":62,"velocity":123,"startTime":65.81891725,"endTime":65.9482275,"instrument":2,"program":27},{"pitch":38,"velocity":117,"startTime":49.655136000000006,"endTime":50.04306675,"instrument":4,"program":35},{"pitch":37,"velocity":117,"startTime":51.7241,"endTime":52.11203075,"instrument":4,"program":35},{"pitch":37,"velocity":117,"startTime":52.11203075,"endTime":52.241341000000006,"instrument":4,"program":35},{"pitch":36,"velocity":117,"startTime":52.758582000000004,"endTime":52.88789225,"instrument":4,"program":35},{"pitch":35,"velocity":117,"startTime":52.88789225,"endTime":53.0172025,"instrument":4,"program":35},{"pitch":33,"velocity":117,"startTime":53.0172025,"endTime":53.14651275000001,"instrument":4,"program":35},{"pitch":36,"velocity":117,"startTime":53.793064,"endTime":53.922374250000004,"instrument":4,"program":35},{"pitch":36,"velocity":117,"startTime":53.922374250000004,"endTime":54.0516845,"instrument":4,"program":35},{"pitch":36,"velocity":117,"startTime":54.0516845,"endTime":54.18099475,"instrument":4,"program":35},{"pitch":38,"velocity":117,"startTime":55.086166500000004,"endTime":55.344787000000004,"instrument":4,"program":35},{"pitch":40,"velocity":117,"startTime":55.344787000000004,"endTime":55.6034075,"instrument":4,"program":35},{"pitch":45,"velocity":117,"startTime":55.6034075,"endTime":55.732717750000006,"instrument":4,"program":35},{"pitch":35,"velocity":117,"startTime":55.862028,"endTime":55.991338250000005,"instrument":4,"program":35},{"pitch":36,"velocity":117,"startTime":55.991338250000005,"endTime":56.1206485,"instrument":4,"program":35},{"pitch":35,"velocity":117,"startTime":56.1206485,"endTime":56.249958750000005,"instrument":4,"program":35},{"pitch":33,"velocity":117,"startTime":57.672371500000004,"endTime":57.80168175,"instrument":4,"program":35},{"pitch":33,"velocity":117,"startTime":57.80168175,"endTime":57.930992,"instrument":4,"program":35},{"pitch":28,"velocity":117,"startTime":57.930992,"endTime":58.06030225000001,"instrument":4,"program":35},{"pitch":28,"velocity":117,"startTime":58.06030225000001,"endTime":58.1896125,"instrument":4,"program":35},{"pitch":28,"velocity":117,"startTime":58.1896125,"endTime":58.318922750000006,"instrument":4,"program":35},{"pitch":37,"velocity":117,"startTime":59.999956000000005,"endTime":60.12926625,"instrument":4,"program":35},{"pitch":37,"velocity":117,"startTime":60.12926625,"endTime":60.258576500000004,"instrument":4,"program":35},{"pitch":37,"velocity":117,"startTime":60.258576500000004,"endTime":60.38788675000001,"instrument":4,"program":35},{"pitch":38,"velocity":117,"startTime":61.810299500000006,"endTime":61.93960975,"instrument":4,"program":35},{"pitch":36,"velocity":117,"startTime":62.068920000000006,"endTime":62.19823025,"instrument":4,"program":35},{"pitch":36,"velocity":117,"startTime":62.19823025,"endTime":62.327540500000005,"instrument":4,"program":35},{"pitch":36,"velocity":117,"startTime":62.327540500000005,"endTime":62.45685075,"instrument":4,"program":35},{"pitch":35,"velocity":117,"startTime":64.137884,"endTime":64.26719425,"instrument":4,"program":35},{"pitch":35,"velocity":117,"startTime":64.26719425,"endTime":64.3965045,"instrument":4,"program":35},{"pitch":35,"velocity":117,"startTime":64.3965045,"endTime":64.52581475000001,"instrument":4,"program":35},{"pitch":35,"velocity":118,"startTime":55.862028,"endTime":56.1206485,"instrument":5,"program":87},{"pitch":40,"velocity":118,"startTime":57.930992,"endTime":58.1896125,"instrument":5,"program":87},{"pitch":37,"velocity":118,"startTime":59.999956000000005,"endTime":60.258576500000004,"instrument":5,"program":87},{"pitch":36,"velocity":118,"startTime":62.068920000000006,"endTime":62.327540500000005,"instrument":5,"program":87},{"pitch":35,"velocity":118,"startTime":64.137884,"endTime":64.3965045,"instrument":5,"program":87},{"pitch":35,"velocity":105,"startTime":66.20684800000001,"endTime":66.33615825,"isDrum":true},{"pitch":42,"velocity":105,"startTime":66.20684800000001,"endTime":66.33615825,"isDrum":true},{"pitch":42,"velocity":105,"startTime":66.4654685,"endTime":66.59477875,"isDrum":true},{"pitch":38,"velocity":105,"startTime":66.724089,"endTime":66.85339925000001,"isDrum":true},{"pitch":39,"velocity":105,"startTime":66.724089,"endTime":66.85339925000001,"isDrum":true},{"pitch":40,"velocity":105,"startTime":66.724089,"endTime":66.85339925000001,"isDrum":true},{"pitch":42,"velocity":105,"startTime":66.724089,"endTime":66.85339925000001,"isDrum":true},{"pitch":42,"velocity":105,"startTime":66.9827095,"endTime":67.11201975,"isDrum":true},{"pitch":35,"velocity":105,"startTime":67.24133,"endTime":67.37064025000001,"isDrum":true},{"pitch":42,"velocity":105,"startTime":67.24133,"endTime":67.37064025000001,"isDrum":true},{"pitch":42,"velocity":105,"startTime":67.4999505,"endTime":67.62926075,"isDrum":true},{"pitch":38,"velocity":105,"startTime":67.758571,"endTime":67.88788125,"isDrum":true},{"pitch":39,"velocity":105,"startTime":67.758571,"endTime":67.88788125,"isDrum":true},{"pitch":40,"velocity":105,"startTime":67.758571,"endTime":67.88788125,"isDrum":true},{"pitch":42,"velocity":105,"startTime":67.758571,"endTime":67.88788125,"isDrum":true},{"pitch":42,"velocity":105,"startTime":68.01719150000001,"endTime":68.14650175,"isDrum":true},{"pitch":35,"velocity":105,"startTime":68.275812,"endTime":68.40512225,"isDrum":true},{"pitch":42,"velocity":105,"startTime":68.275812,"endTime":68.40512225,"isDrum":true},{"pitch":42,"velocity":105,"startTime":68.53443250000001,"endTime":68.66374275,"isDrum":true},{"pitch":38,"velocity":105,"startTime":68.793053,"endTime":68.92236325,"isDrum":true},{"pitch":39,"velocity":105,"startTime":68.793053,"endTime":68.92236325,"isDrum":true},{"pitch":40,"velocity":105,"startTime":68.793053,"endTime":68.92236325,"isDrum":true},{"pitch":42,"velocity":105,"startTime":68.793053,"endTime":68.92236325,"isDrum":true},{"pitch":35,"velocity":105,"startTime":69.0516735,"endTime":69.18098375000001,"isDrum":true},{"pitch":42,"velocity":105,"startTime":69.0516735,"endTime":69.18098375000001,"isDrum":true},{"pitch":35,"velocity":105,"startTime":69.310294,"endTime":69.43960425,"isDrum":true},{"pitch":42,"velocity":105,"startTime":69.310294,"endTime":69.43960425,"isDrum":true},{"pitch":42,"velocity":105,"startTime":69.5689145,"endTime":69.69822475000001,"isDrum":true},{"pitch":38,"velocity":105,"startTime":69.827535,"endTime":69.95684525,"isDrum":true},{"pitch":39,"velocity":105,"startTime":69.827535,"endTime":69.95684525,"isDrum":true},{"pitch":40,"velocity":105,"startTime":69.827535,"endTime":69.95684525,"isDrum":true},{"pitch":42,"velocity":105,"startTime":69.827535,"endTime":69.95684525,"isDrum":true},{"pitch":42,"velocity":105,"startTime":70.0861555,"endTime":70.21546575,"isDrum":true},{"pitch":35,"velocity":105,"startTime":70.34477600000001,"endTime":70.47408625,"isDrum":true},{"pitch":42,"velocity":105,"startTime":70.34477600000001,"endTime":70.47408625,"isDrum":true},{"pitch":42,"velocity":105,"startTime":70.6033965,"endTime":70.73270675,"isDrum":true},{"pitch":38,"velocity":105,"startTime":70.86201700000001,"endTime":70.99132725,"isDrum":true},{"pitch":39,"velocity":105,"startTime":70.86201700000001,"endTime":70.99132725,"isDrum":true},{"pitch":40,"velocity":105,"startTime":70.86201700000001,"endTime":70.99132725,"isDrum":true},{"pitch":42,"velocity":105,"startTime":70.86201700000001,"endTime":70.99132725,"isDrum":true},{"pitch":35,"velocity":105,"startTime":71.1206375,"endTime":71.24994775,"isDrum":true},{"pitch":42,"velocity":105,"startTime":71.1206375,"endTime":71.24994775,"isDrum":true},{"pitch":35,"velocity":105,"startTime":71.37925800000001,"endTime":71.50856825000001,"isDrum":true},{"pitch":42,"velocity":105,"startTime":71.37925800000001,"endTime":71.50856825000001,"isDrum":true},{"pitch":42,"velocity":105,"startTime":71.6378785,"endTime":71.76718875,"isDrum":true},{"pitch":38,"velocity":105,"startTime":71.896499,"endTime":72.02580925000001,"isDrum":true},{"pitch":39,"velocity":105,"startTime":71.896499,"endTime":72.02580925000001,"isDrum":true},{"pitch":40,"velocity":105,"startTime":71.896499,"endTime":72.02580925000001,"isDrum":true},{"pitch":42,"velocity":105,"startTime":71.896499,"endTime":72.02580925000001,"isDrum":true},{"pitch":42,"velocity":105,"startTime":72.1551195,"endTime":72.28442975,"isDrum":true},{"pitch":35,"velocity":105,"startTime":72.41374,"endTime":72.54305025000001,"isDrum":true},{"pitch":42,"velocity":105,"startTime":72.41374,"endTime":72.54305025000001,"isDrum":true},{"pitch":42,"velocity":105,"startTime":72.67236050000001,"endTime":72.80167075,"isDrum":true},{"pitch":38,"velocity":105,"startTime":72.930981,"endTime":73.06029125,"isDrum":true},{"pitch":39,"velocity":105,"startTime":72.930981,"endTime":73.06029125,"isDrum":true},{"pitch":40,"velocity":105,"startTime":72.930981,"endTime":73.06029125,"isDrum":true},{"pitch":42,"velocity":105,"startTime":72.930981,"endTime":73.06029125,"isDrum":true},{"pitch":35,"velocity":105,"startTime":73.18960150000001,"endTime":73.31891175,"isDrum":true},{"pitch":42,"velocity":105,"startTime":73.18960150000001,"endTime":73.31891175,"isDrum":true},{"pitch":35,"velocity":105,"startTime":73.448222,"endTime":73.57753225,"isDrum":true},{"pitch":42,"velocity":105,"startTime":73.448222,"endTime":73.57753225,"isDrum":true},{"pitch":42,"velocity":105,"startTime":73.70684250000001,"endTime":73.83615275000001,"isDrum":true},{"pitch":38,"velocity":105,"startTime":73.965463,"endTime":74.09477325,"isDrum":true},{"pitch":39,"velocity":105,"startTime":73.965463,"endTime":74.09477325,"isDrum":true},{"pitch":42,"velocity":105,"startTime":73.965463,"endTime":74.09477325,"isDrum":true},{"pitch":42,"velocity":105,"startTime":74.2240835,"endTime":74.35339375000001,"isDrum":true},{"pitch":35,"velocity":105,"startTime":74.482704,"endTime":74.61201425,"isDrum":true},{"pitch":42,"velocity":105,"startTime":74.482704,"endTime":74.61201425,"isDrum":true},{"pitch":42,"velocity":105,"startTime":74.7413245,"endTime":74.87063475000001,"isDrum":true},{"pitch":38,"velocity":105,"startTime":74.99994500000001,"endTime":75.12925525,"isDrum":true},{"pitch":39,"velocity":105,"startTime":74.99994500000001,"endTime":75.12925525,"isDrum":true},{"pitch":40,"velocity":105,"startTime":74.99994500000001,"endTime":75.12925525,"isDrum":true},{"pitch":42,"velocity":105,"startTime":74.99994500000001,"endTime":75.12925525,"isDrum":true},{"pitch":35,"velocity":105,"startTime":75.2585655,"endTime":75.38787575,"isDrum":true},{"pitch":42,"velocity":105,"startTime":75.2585655,"endTime":75.38787575,"isDrum":true},{"pitch":35,"velocity":105,"startTime":75.51718600000001,"endTime":75.64649625,"isDrum":true},{"pitch":42,"velocity":105,"startTime":75.51718600000001,"endTime":75.64649625,"isDrum":true},{"pitch":42,"velocity":105,"startTime":75.7758065,"endTime":75.90511675,"isDrum":true},{"pitch":38,"velocity":105,"startTime":76.03442700000001,"endTime":76.16373725000001,"isDrum":true},{"pitch":39,"velocity":105,"startTime":76.03442700000001,"endTime":76.16373725000001,"isDrum":true},{"pitch":42,"velocity":105,"startTime":76.03442700000001,"endTime":76.16373725000001,"isDrum":true},{"pitch":42,"velocity":105,"startTime":76.2930475,"endTime":76.42235775,"isDrum":true},{"pitch":35,"velocity":105,"startTime":76.551668,"endTime":76.68097825000001,"isDrum":true},{"pitch":42,"velocity":105,"startTime":76.551668,"endTime":76.68097825000001,"isDrum":true},{"pitch":42,"velocity":105,"startTime":76.8102885,"endTime":76.93959875,"isDrum":true},{"pitch":38,"velocity":105,"startTime":77.068909,"endTime":77.19821925000001,"isDrum":true},{"pitch":39,"velocity":105,"startTime":77.068909,"endTime":77.19821925000001,"isDrum":true},{"pitch":40,"velocity":105,"startTime":77.068909,"endTime":77.19821925000001,"isDrum":true},{"pitch":42,"velocity":105,"startTime":77.068909,"endTime":77.19821925000001,"isDrum":true},{"pitch":35,"velocity":105,"startTime":77.32752950000001,"endTime":77.45683975,"isDrum":true},{"pitch":42,"velocity":105,"startTime":77.32752950000001,"endTime":77.45683975,"isDrum":true},{"pitch":35,"velocity":105,"startTime":77.58615,"endTime":77.71546025,"isDrum":true},{"pitch":42,"velocity":105,"startTime":77.58615,"endTime":77.71546025,"isDrum":true},{"pitch":42,"velocity":105,"startTime":77.84477050000001,"endTime":77.97408075,"isDrum":true},{"pitch":38,"velocity":105,"startTime":78.103391,"endTime":78.23270125,"isDrum":true},{"pitch":39,"velocity":105,"startTime":78.103391,"endTime":78.23270125,"isDrum":true},{"pitch":40,"velocity":105,"startTime":78.103391,"endTime":78.23270125,"isDrum":true},{"pitch":42,"velocity":105,"startTime":78.103391,"endTime":78.23270125,"isDrum":true},{"pitch":42,"velocity":105,"startTime":78.36201150000001,"endTime":78.49132175000001,"isDrum":true},{"pitch":35,"velocity":105,"startTime":78.620632,"endTime":78.74994225,"isDrum":true},{"pitch":42,"velocity":105,"startTime":78.620632,"endTime":78.74994225,"isDrum":true},{"pitch":42,"velocity":105,"startTime":78.8792525,"endTime":79.00856275000001,"isDrum":true},{"pitch":38,"velocity":105,"startTime":79.137873,"endTime":79.26718325,"isDrum":true},{"pitch":39,"velocity":105,"startTime":79.137873,"endTime":79.26718325,"isDrum":true},{"pitch":40,"velocity":105,"startTime":79.137873,"endTime":79.26718325,"isDrum":true},{"pitch":42,"velocity":105,"startTime":79.137873,"endTime":79.26718325,"isDrum":true},{"pitch":35,"velocity":105,"startTime":79.3964935,"endTime":79.52580375000001,"isDrum":true},{"pitch":42,"velocity":105,"startTime":79.3964935,"endTime":79.52580375000001,"isDrum":true},{"pitch":35,"velocity":105,"startTime":79.655114,"endTime":79.78442425,"isDrum":true},{"pitch":42,"velocity":105,"startTime":79.655114,"endTime":79.78442425,"isDrum":true},{"pitch":42,"velocity":105,"startTime":79.9137345,"endTime":80.04304475,"isDrum":true},{"pitch":38,"velocity":105,"startTime":80.17235500000001,"endTime":80.30166525,"isDrum":true},{"pitch":39,"velocity":105,"startTime":80.17235500000001,"endTime":80.30166525,"isDrum":true},{"pitch":40,"velocity":105,"startTime":80.17235500000001,"endTime":80.30166525,"isDrum":true},{"pitch":42,"velocity":105,"startTime":80.17235500000001,"endTime":80.30166525,"isDrum":true},{"pitch":42,"velocity":105,"startTime":80.4309755,"endTime":80.56028575,"isDrum":true},{"pitch":35,"velocity":105,"startTime":80.68959600000001,"endTime":80.81890625,"isDrum":true},{"pitch":42,"velocity":105,"startTime":80.68959600000001,"endTime":80.81890625,"isDrum":true},{"pitch":42,"velocity":105,"startTime":80.9482165,"endTime":81.07752675,"isDrum":true},{"pitch":38,"velocity":105,"startTime":81.20683700000001,"endTime":81.33614725000001,"isDrum":true},{"pitch":39,"velocity":105,"startTime":81.20683700000001,"endTime":81.33614725000001,"isDrum":true},{"pitch":40,"velocity":105,"startTime":81.20683700000001,"endTime":81.33614725000001,"isDrum":true},{"pitch":42,"velocity":105,"startTime":81.20683700000001,"endTime":81.33614725000001,"isDrum":true},{"pitch":35,"velocity":105,"startTime":81.4654575,"endTime":81.59476775,"isDrum":true},{"pitch":42,"velocity":105,"startTime":81.4654575,"endTime":81.59476775,"isDrum":true},{"pitch":59,"velocity":123,"startTime":66.724089,"endTime":66.9827095,"instrument":1,"program":4},{"pitch":62,"velocity":123,"startTime":66.724089,"endTime":66.9827095,"instrument":1,"program":4},{"pitch":66,"velocity":123,"startTime":66.724089,"endTime":66.9827095,"instrument":1,"program":4},{"pitch":68,"velocity":123,"startTime":66.724089,"endTime":66.9827095,"instrument":1,"program":4},{"pitch":59,"velocity":123,"startTime":66.9827095,"endTime":67.24133,"instrument":1,"program":4},{"pitch":62,"velocity":123,"startTime":66.9827095,"endTime":67.24133,"instrument":1,"program":4},{"pitch":66,"velocity":123,"startTime":66.9827095,"endTime":67.24133,"instrument":1,"program":4},{"pitch":68,"velocity":123,"startTime":66.9827095,"endTime":67.24133,"instrument":1,"program":4},{"pitch":59,"velocity":123,"startTime":67.24133,"endTime":67.62926075,"instrument":1,"program":4},{"pitch":63,"velocity":123,"startTime":67.24133,"endTime":67.62926075,"instrument":1,"program":4},{"pitch":66,"velocity":123,"startTime":67.24133,"endTime":67.62926075,"instrument":1,"program":4},{"pitch":68,"velocity":123,"startTime":67.24133,"endTime":67.62926075,"instrument":1,"program":4},{"pitch":59,"velocity":123,"startTime":67.62926075,"endTime":67.758571,"instrument":1,"program":4},{"pitch":63,"velocity":123,"startTime":67.62926075,"endTime":67.758571,"instrument":1,"program":4},{"pitch":66,"velocity":123,"startTime":67.62926075,"endTime":67.758571,"instrument":1,"program":4},{"pitch":68,"velocity":123,"startTime":67.62926075,"endTime":67.758571,"instrument":1,"program":4},{"pitch":59,"velocity":123,"startTime":68.01719150000001,"endTime":68.14650175,"instrument":1,"program":4},{"pitch":63,"velocity":123,"startTime":68.01719150000001,"endTime":68.14650175,"instrument":1,"program":4},{"pitch":66,"velocity":123,"startTime":68.01719150000001,"endTime":68.14650175,"instrument":1,"program":4},{"pitch":68,"velocity":123,"startTime":68.01719150000001,"endTime":68.14650175,"instrument":1,"program":4},{"pitch":61,"velocity":123,"startTime":68.793053,"endTime":69.310294,"instrument":1,"program":4},{"pitch":64,"velocity":123,"startTime":68.793053,"endTime":69.310294,"instrument":1,"program":4},{"pitch":68,"velocity":123,"startTime":68.793053,"endTime":69.310294,"instrument":1,"program":4},{"pitch":71,"velocity":123,"startTime":68.793053,"endTime":69.310294,"instrument":1,"program":4},{"pitch":61,"velocity":123,"startTime":69.5689145,"endTime":69.69822475000001,"instrument":1,"program":4},{"pitch":64,"velocity":123,"startTime":69.5689145,"endTime":69.69822475000001,"instrument":1,"program":4},{"pitch":66,"velocity":123,"startTime":69.5689145,"endTime":69.69822475000001,"instrument":1,"program":4},{"pitch":71,"velocity":123,"startTime":69.5689145,"endTime":69.69822475000001,"instrument":1,"program":4},{"pitch":61,"velocity":123,"startTime":70.0861555,"endTime":70.34477600000001,"instrument":1,"program":4},{"pitch":64,"velocity":123,"startTime":70.0861555,"endTime":70.34477600000001,"instrument":1,"program":4},{"pitch":66,"velocity":123,"startTime":70.0861555,"endTime":70.34477600000001,"instrument":1,"program":4},{"pitch":71,"velocity":123,"startTime":70.0861555,"endTime":70.34477600000001,"instrument":1,"program":4},{"pitch":60,"velocity":123,"startTime":70.34477600000001,"endTime":70.73270675,"instrument":1,"program":4},{"pitch":64,"velocity":123,"startTime":70.34477600000001,"endTime":70.73270675,"instrument":1,"program":4},{"pitch":67,"velocity":123,"startTime":70.34477600000001,"endTime":70.73270675,"instrument":1,"program":4},{"pitch":69,"velocity":123,"startTime":70.34477600000001,"endTime":70.73270675,"instrument":1,"program":4},{"pitch":60,"velocity":123,"startTime":70.73270675,"endTime":70.86201700000001,"instrument":1,"program":4},{"pitch":64,"velocity":123,"startTime":70.73270675,"endTime":70.86201700000001,"instrument":1,"program":4},{"pitch":67,"velocity":123,"startTime":70.73270675,"endTime":70.86201700000001,"instrument":1,"program":4},{"pitch":69,"velocity":123,"startTime":70.73270675,"endTime":70.86201700000001,"instrument":1,"program":4},{"pitch":60,"velocity":123,"startTime":71.1206375,"endTime":71.37925800000001,"instrument":1,"program":4},{"pitch":64,"velocity":123,"startTime":71.1206375,"endTime":71.37925800000001,"instrument":1,"program":4},{"pitch":67,"velocity":123,"startTime":71.1206375,"endTime":71.37925800000001,"instrument":1,"program":4},{"pitch":69,"velocity":123,"startTime":71.1206375,"endTime":71.37925800000001,"instrument":1,"program":4},{"pitch":60,"velocity":123,"startTime":71.37925800000001,"endTime":71.896499,"instrument":1,"program":4},{"pitch":64,"velocity":123,"startTime":71.37925800000001,"endTime":71.896499,"instrument":1,"program":4},{"pitch":66,"velocity":123,"startTime":71.37925800000001,"endTime":71.896499,"instrument":1,"program":4},{"pitch":69,"velocity":123,"startTime":71.37925800000001,"endTime":71.896499,"instrument":1,"program":4},{"pitch":60,"velocity":123,"startTime":71.896499,"endTime":72.1551195,"instrument":1,"program":4},{"pitch":64,"velocity":123,"startTime":71.896499,"endTime":72.1551195,"instrument":1,"program":4},{"pitch":66,"velocity":123,"startTime":71.896499,"endTime":72.1551195,"instrument":1,"program":4},{"pitch":69,"velocity":123,"startTime":71.896499,"endTime":72.1551195,"instrument":1,"program":4},{"pitch":60,"velocity":123,"startTime":72.1551195,"endTime":72.41374,"instrument":1,"program":4},{"pitch":64,"velocity":123,"startTime":72.1551195,"endTime":72.41374,"instrument":1,"program":4},{"pitch":66,"velocity":123,"startTime":72.1551195,"endTime":72.41374,"instrument":1,"program":4},{"pitch":69,"velocity":123,"startTime":72.1551195,"endTime":72.41374,"instrument":1,"program":4},{"pitch":62,"velocity":123,"startTime":72.67236050000001,"endTime":72.80167075,"instrument":1,"program":4},{"pitch":66,"velocity":123,"startTime":72.67236050000001,"endTime":72.80167075,"instrument":1,"program":4},{"pitch":69,"velocity":123,"startTime":72.67236050000001,"endTime":72.80167075,"instrument":1,"program":4},{"pitch":71,"velocity":123,"startTime":72.67236050000001,"endTime":72.80167075,"instrument":1,"program":4},{"pitch":62,"velocity":123,"startTime":73.18960150000001,"endTime":73.31891175,"instrument":1,"program":4},{"pitch":66,"velocity":123,"startTime":73.18960150000001,"endTime":73.31891175,"instrument":1,"program":4},{"pitch":69,"velocity":123,"startTime":73.18960150000001,"endTime":73.31891175,"instrument":1,"program":4},{"pitch":71,"velocity":123,"startTime":73.18960150000001,"endTime":73.31891175,"instrument":1,"program":4},{"pitch":66,"velocity":123,"startTime":74.7413245,"endTime":74.87063475000001,"instrument":1,"program":4},{"pitch":68,"velocity":123,"startTime":74.7413245,"endTime":74.87063475000001,"instrument":1,"program":4},{"pitch":71,"velocity":123,"startTime":74.7413245,"endTime":74.87063475000001,"instrument":1,"program":4},{"pitch":76,"velocity":123,"startTime":74.7413245,"endTime":74.87063475000001,"instrument":1,"program":4},{"pitch":66,"velocity":123,"startTime":75.2585655,"endTime":75.38787575,"instrument":1,"program":4},{"pitch":68,"velocity":123,"startTime":75.2585655,"endTime":75.38787575,"instrument":1,"program":4},{"pitch":71,"velocity":123,"startTime":75.2585655,"endTime":75.38787575,"instrument":1,"program":4},{"pitch":76,"velocity":123,"startTime":75.2585655,"endTime":75.38787575,"instrument":1,"program":4},{"pitch":66,"velocity":123,"startTime":75.7758065,"endTime":75.90511675,"instrument":1,"program":4},{"pitch":68,"velocity":123,"startTime":75.7758065,"endTime":75.90511675,"instrument":1,"program":4},{"pitch":71,"velocity":123,"startTime":75.7758065,"endTime":75.90511675,"instrument":1,"program":4},{"pitch":76,"velocity":123,"startTime":75.7758065,"endTime":75.90511675,"instrument":1,"program":4},{"pitch":66,"velocity":123,"startTime":76.2930475,"endTime":76.42235775,"instrument":1,"program":4},{"pitch":68,"velocity":123,"startTime":76.2930475,"endTime":76.42235775,"instrument":1,"program":4},{"pitch":71,"velocity":123,"startTime":76.2930475,"endTime":76.42235775,"instrument":1,"program":4},{"pitch":76,"velocity":123,"startTime":76.2930475,"endTime":76.42235775,"instrument":1,"program":4},{"pitch":59,"velocity":123,"startTime":77.068909,"endTime":77.45683975,"instrument":1,"program":4},{"pitch":61,"velocity":123,"startTime":77.068909,"endTime":77.45683975,"instrument":1,"program":4},{"pitch":66,"velocity":123,"startTime":77.068909,"endTime":77.45683975,"instrument":1,"program":4},{"pitch":68,"velocity":123,"startTime":77.068909,"endTime":77.45683975,"instrument":1,"program":4},{"pitch":59,"velocity":123,"startTime":77.45683975,"endTime":77.58615,"instrument":1,"program":4},{"pitch":61,"velocity":123,"startTime":77.45683975,"endTime":77.58615,"instrument":1,"program":4},{"pitch":66,"velocity":123,"startTime":77.45683975,"endTime":77.58615,"instrument":1,"program":4},{"pitch":68,"velocity":123,"startTime":77.45683975,"endTime":77.58615,"instrument":1,"program":4},{"pitch":59,"velocity":123,"startTime":77.84477050000001,"endTime":77.97408075,"instrument":1,"program":4},{"pitch":61,"velocity":123,"startTime":77.84477050000001,"endTime":77.97408075,"instrument":1,"program":4},{"pitch":66,"velocity":123,"startTime":77.84477050000001,"endTime":77.97408075,"instrument":1,"program":4},{"pitch":68,"velocity":123,"startTime":77.84477050000001,"endTime":77.97408075,"instrument":1,"program":4},{"pitch":59,"velocity":123,"startTime":78.36201150000001,"endTime":78.49132175000001,"instrument":1,"program":4},{"pitch":61,"velocity":123,"startTime":78.36201150000001,"endTime":78.49132175000001,"instrument":1,"program":4},{"pitch":66,"velocity":123,"startTime":78.36201150000001,"endTime":78.49132175000001,"instrument":1,"program":4},{"pitch":68,"velocity":123,"startTime":78.36201150000001,"endTime":78.49132175000001,"instrument":1,"program":4},{"pitch":60,"velocity":123,"startTime":78.620632,"endTime":79.00856275000001,"instrument":1,"program":4},{"pitch":64,"velocity":123,"startTime":78.620632,"endTime":79.00856275000001,"instrument":1,"program":4},{"pitch":67,"velocity":123,"startTime":78.620632,"endTime":79.00856275000001,"instrument":1,"program":4},{"pitch":69,"velocity":123,"startTime":78.620632,"endTime":79.00856275000001,"instrument":1,"program":4},{"pitch":60,"velocity":123,"startTime":79.00856275000001,"endTime":79.137873,"instrument":1,"program":4},{"pitch":64,"velocity":123,"startTime":79.00856275000001,"endTime":79.137873,"instrument":1,"program":4},{"pitch":67,"velocity":123,"startTime":79.00856275000001,"endTime":79.137873,"instrument":1,"program":4},{"pitch":69,"velocity":123,"startTime":79.00856275000001,"endTime":79.137873,"instrument":1,"program":4},{"pitch":60,"velocity":123,"startTime":79.3964935,"endTime":79.655114,"instrument":1,"program":4},{"pitch":64,"velocity":123,"startTime":79.3964935,"endTime":79.655114,"instrument":1,"program":4},{"pitch":67,"velocity":123,"startTime":79.3964935,"endTime":79.655114,"instrument":1,"program":4},{"pitch":69,"velocity":123,"startTime":79.3964935,"endTime":79.655114,"instrument":1,"program":4},{"pitch":60,"velocity":123,"startTime":79.9137345,"endTime":80.04304475,"instrument":1,"program":4},{"pitch":64,"velocity":123,"startTime":79.9137345,"endTime":80.04304475,"instrument":1,"program":4},{"pitch":66,"velocity":123,"startTime":79.9137345,"endTime":80.04304475,"instrument":1,"program":4},{"pitch":69,"velocity":123,"startTime":79.9137345,"endTime":80.04304475,"instrument":1,"program":4},{"pitch":60,"velocity":123,"startTime":80.4309755,"endTime":80.56028575,"instrument":1,"program":4},{"pitch":64,"velocity":123,"startTime":80.4309755,"endTime":80.56028575,"instrument":1,"program":4},{"pitch":66,"velocity":123,"startTime":80.4309755,"endTime":80.56028575,"instrument":1,"program":4},{"pitch":69,"velocity":123,"startTime":80.4309755,"endTime":80.56028575,"instrument":1,"program":4},{"pitch":62,"velocity":123,"startTime":81.20683700000001,"endTime":81.4654575,"instrument":1,"program":4},{"pitch":66,"velocity":123,"startTime":81.20683700000001,"endTime":81.4654575,"instrument":1,"program":4},{"pitch":71,"velocity":123,"startTime":81.20683700000001,"endTime":81.4654575,"instrument":1,"program":4},{"pitch":62,"velocity":123,"startTime":81.4654575,"endTime":81.59476775,"instrument":1,"program":4},{"pitch":66,"velocity":123,"startTime":81.4654575,"endTime":81.59476775,"instrument":1,"program":4},{"pitch":71,"velocity":123,"startTime":81.4654575,"endTime":81.59476775,"instrument":1,"program":4},{"pitch":66,"velocity":123,"startTime":81.9826985,"endTime":82.49993950000001,"instrument":1,"program":4},{"pitch":71,"velocity":123,"startTime":81.9826985,"endTime":82.49993950000001,"instrument":1,"program":4},{"pitch":74,"velocity":123,"startTime":81.9826985,"endTime":82.49993950000001,"instrument":1,"program":4},{"pitch":62,"velocity":123,"startTime":82.49993950000001,"endTime":82.62924975,"instrument":1,"program":4},{"pitch":66,"velocity":123,"startTime":82.49993950000001,"endTime":82.62924975,"instrument":1,"program":4},{"pitch":71,"velocity":123,"startTime":82.49993950000001,"endTime":82.62924975,"instrument":1,"program":4},{"pitch":74,"velocity":123,"startTime":82.49993950000001,"endTime":82.62924975,"instrument":1,"program":4},{"pitch":60,"velocity":123,"startTime":66.20684800000001,"endTime":66.24995141666668,"instrument":2,"program":27},{"pitch":60,"velocity":123,"startTime":66.33615825,"endTime":66.37926166666668,"instrument":2,"program":27},{"pitch":60,"velocity":123,"startTime":66.59477875,"endTime":66.63788216666669,"instrument":2,"program":27},{"pitch":52,"velocity":123,"startTime":66.724089,"endTime":66.76719241666667,"instrument":2,"program":27},{"pitch":52,"velocity":123,"startTime":66.9827095,"endTime":67.06891633333333,"instrument":2,"program":27},{"pitch":56,"velocity":123,"startTime":67.11201975,"endTime":67.15512316666668,"instrument":2,"program":27},{"pitch":59,"velocity":123,"startTime":67.24133,"endTime":67.28443341666667,"instrument":2,"program":27},{"pitch":59,"velocity":123,"startTime":67.62926075,"endTime":67.67236416666668,"instrument":2,"program":27},{"pitch":59,"velocity":123,"startTime":67.758571,"endTime":67.80167441666669,"instrument":2,"program":27},{"pitch":59,"velocity":123,"startTime":67.88788125,"endTime":67.97408808333333,"instrument":2,"program":27},{"pitch":56,"velocity":123,"startTime":68.01719150000001,"endTime":68.14650175,"instrument":2,"program":27},{"pitch":59,"velocity":123,"startTime":68.275812,"endTime":68.31891541666668,"instrument":2,"program":27},{"pitch":59,"velocity":123,"startTime":68.66374275,"endTime":68.70684616666668,"instrument":2,"program":27},{"pitch":59,"velocity":123,"startTime":68.793053,"endTime":68.83615641666668,"instrument":2,"program":27},{"pitch":59,"velocity":123,"startTime":69.0516735,"endTime":69.13788033333333,"instrument":2,"program":27},{"pitch":59,"velocity":123,"startTime":69.310294,"endTime":69.35339741666668,"instrument":2,"program":27},{"pitch":59,"velocity":123,"startTime":69.69822475000001,"endTime":69.74132816666668,"instrument":2,"program":27},{"pitch":59,"velocity":123,"startTime":69.827535,"endTime":69.87063841666668,"instrument":2,"program":27},{"pitch":59,"velocity":123,"startTime":69.95684525,"endTime":70.04305208333334,"instrument":2,"program":27},{"pitch":59,"velocity":123,"startTime":70.0861555,"endTime":70.17236233333333,"instrument":2,"program":27},{"pitch":64,"velocity":123,"startTime":70.34477600000001,"endTime":70.38787941666668,"instrument":2,"program":27},{"pitch":64,"velocity":123,"startTime":70.47408625,"endTime":70.56029308333333,"instrument":2,"program":27},{"pitch":64,"velocity":123,"startTime":70.6033965,"endTime":70.73270675,"instrument":2,"program":27},{"pitch":60,"velocity":123,"startTime":70.86201700000001,"endTime":70.94822383333334,"instrument":2,"program":27},{"pitch":60,"velocity":123,"startTime":70.99132725,"endTime":71.07753408333333,"instrument":2,"program":27},{"pitch":60,"velocity":123,"startTime":71.1206375,"endTime":71.20684433333334,"instrument":2,"program":27},{"pitch":57,"velocity":123,"startTime":71.6378785,"endTime":71.68098191666667,"instrument":2,"program":27},{"pitch":57,"velocity":123,"startTime":71.76718875,"endTime":71.85339558333334,"instrument":2,"program":27},{"pitch":57,"velocity":123,"startTime":71.896499,"endTime":71.93960241666667,"instrument":2,"program":27},{"pitch":57,"velocity":123,"startTime":72.1551195,"endTime":72.32753316666667,"instrument":2,"program":27},{"pitch":59,"velocity":123,"startTime":72.41374,"endTime":72.45684341666667,"instrument":2,"program":27},{"pitch":59,"velocity":123,"startTime":72.54305025000001,"endTime":72.62925708333334,"instrument":2,"program":27},{"pitch":59,"velocity":123,"startTime":72.67236050000001,"endTime":72.80167075,"instrument":2,"program":27},{"pitch":59,"velocity":123,"startTime":72.80167075,"endTime":72.84477416666667,"instrument":2,"program":27},{"pitch":59,"velocity":123,"startTime":72.930981,"endTime":73.01718783333334,"instrument":2,"program":27},{"pitch":59,"velocity":123,"startTime":73.18960150000001,"endTime":73.31891175,"instrument":2,"program":27},{"pitch":59,"velocity":123,"startTime":73.83615275000001,"endTime":73.965463,"instrument":2,"program":27},{"pitch":57,"velocity":123,"startTime":73.965463,"endTime":74.05166983333334,"instrument":2,"program":27},{"pitch":57,"velocity":123,"startTime":74.09477325,"endTime":74.18098008333334,"instrument":2,"program":27},{"pitch":57,"velocity":123,"startTime":74.2240835,"endTime":74.35339375000001,"instrument":2,"program":27},{"pitch":60,"velocity":123,"startTime":74.482704,"endTime":74.56891083333333,"instrument":2,"program":27},{"pitch":60,"velocity":123,"startTime":74.7413245,"endTime":74.87063475000001,"instrument":2,"program":27},{"pitch":60,"velocity":123,"startTime":74.87063475000001,"endTime":74.95684158333334,"instrument":2,"program":27},{"pitch":59,"velocity":123,"startTime":74.99994500000001,"endTime":75.04304841666666,"instrument":2,"program":27},{"pitch":59,"velocity":123,"startTime":75.2585655,"endTime":75.38787575,"instrument":2,"program":27},{"pitch":54,"velocity":123,"startTime":75.90511675,"endTime":76.03442700000001,"instrument":2,"program":27},{"pitch":54,"velocity":123,"startTime":76.03442700000001,"endTime":76.12063383333334,"instrument":2,"program":27},{"pitch":54,"velocity":123,"startTime":76.2930475,"endTime":76.37925433333334,"instrument":2,"program":27},{"pitch":54,"velocity":123,"startTime":76.42235775,"endTime":76.551668,"instrument":2,"program":27},{"pitch":61,"velocity":123,"startTime":76.8102885,"endTime":76.85339191666667,"instrument":2,"program":27},{"pitch":61,"velocity":123,"startTime":76.93959875,"endTime":77.02580558333334,"instrument":2,"program":27},{"pitch":64,"velocity":123,"startTime":77.068909,"endTime":77.11201241666667,"instrument":2,"program":27},{"pitch":61,"velocity":123,"startTime":77.19821925000001,"endTime":77.28442608333334,"instrument":2,"program":27},{"pitch":61,"velocity":123,"startTime":77.32752950000001,"endTime":77.45683975,"instrument":2,"program":27},{"pitch":61,"velocity":123,"startTime":77.84477050000001,"endTime":77.88787391666668,"instrument":2,"program":27},{"pitch":61,"velocity":123,"startTime":77.97408075,"endTime":78.01718416666667,"instrument":2,"program":27},{"pitch":61,"velocity":123,"startTime":78.103391,"endTime":78.14649441666667,"instrument":2,"program":27},{"pitch":61,"velocity":123,"startTime":78.36201150000001,"endTime":78.44821833333334,"instrument":2,"program":27},{"pitch":60,"velocity":123,"startTime":78.620632,"endTime":78.66373541666667,"instrument":2,"program":27},{"pitch":60,"velocity":123,"startTime":78.8792525,"endTime":79.00856275000001,"instrument":2,"program":27},{"pitch":60,"velocity":123,"startTime":79.137873,"endTime":79.22407983333333,"instrument":2,"program":27},{"pitch":60,"velocity":123,"startTime":79.3964935,"endTime":79.52580375000001,"instrument":2,"program":27},{"pitch":60,"velocity":123,"startTime":79.9137345,"endTime":79.95683791666667,"instrument":2,"program":27},{"pitch":60,"velocity":123,"startTime":80.04304475,"endTime":80.12925158333334,"instrument":2,"program":27},{"pitch":60,"velocity":123,"startTime":80.17235500000001,"endTime":80.21545841666668,"instrument":2,"program":27},{"pitch":60,"velocity":123,"startTime":80.4309755,"endTime":80.51718233333334,"instrument":2,"program":27},{"pitch":59,"velocity":123,"startTime":80.68959600000001,"endTime":80.77580283333334,"instrument":2,"program":27},{"pitch":59,"velocity":123,"startTime":80.9482165,"endTime":81.07752675,"instrument":2,"program":27},{"pitch":59,"velocity":123,"startTime":81.07752675,"endTime":81.16373358333334,"instrument":2,"program":27},{"pitch":59,"velocity":123,"startTime":81.20683700000001,"endTime":81.24994041666667,"instrument":2,"program":27},{"pitch":59,"velocity":123,"startTime":81.4654575,"endTime":81.55166433333333,"instrument":2,"program":27},{"pitch":59,"velocity":123,"startTime":81.724078,"endTime":81.76718141666667,"instrument":2,"program":27},{"pitch":59,"velocity":123,"startTime":81.9826985,"endTime":82.11200875,"instrument":2,"program":27},{"pitch":57,"velocity":123,"startTime":82.11200875,"endTime":82.19821558333334,"instrument":2,"program":27},{"pitch":59,"velocity":123,"startTime":82.241319,"endTime":82.37062925000001,"instrument":2,"program":27},{"pitch":59,"velocity":123,"startTime":82.49993950000001,"endTime":82.62924975,"instrument":2,"program":27},{"pitch":56,"velocity":123,"startTime":82.62924975,"endTime":82.71545658333334,"instrument":2,"program":27},{"pitch":28,"velocity":117,"startTime":66.20684800000001,"endTime":66.33615825,"instrument":4,"program":35},{"pitch":28,"velocity":117,"startTime":66.37926166666668,"endTime":66.4654685,"instrument":4,"program":35},{"pitch":28,"velocity":117,"startTime":66.4654685,"endTime":66.59477875,"instrument":4,"program":35},{"pitch":32,"velocity":117,"startTime":68.53443250000001,"endTime":68.793053,"instrument":4,"program":35},{"pitch":37,"velocity":117,"startTime":68.793053,"endTime":68.92236325,"instrument":4,"program":35},{"pitch":33,"velocity":117,"startTime":68.96546666666669,"endTime":69.0516735,"instrument":4,"program":35},{"pitch":33,"velocity":117,"startTime":69.0516735,"endTime":69.18098375000001,"instrument":4,"program":35},{"pitch":36,"velocity":117,"startTime":71.1206375,"endTime":71.24994775,"instrument":4,"program":35},{"pitch":38,"velocity":117,"startTime":71.37925800000001,"endTime":71.50856825000001,"instrument":4,"program":35},{"pitch":38,"velocity":117,"startTime":71.55167166666666,"endTime":71.6378785,"instrument":4,"program":35},{"pitch":42,"velocity":117,"startTime":71.6378785,"endTime":71.76718875,"instrument":4,"program":35},{"pitch":35,"velocity":117,"startTime":72.41374,"endTime":72.67236050000001,"instrument":4,"program":35},{"pitch":35,"velocity":117,"startTime":72.67236050000001,"endTime":72.80167075,"instrument":4,"program":35},{"pitch":28,"velocity":117,"startTime":74.482704,"endTime":74.61201425,"instrument":4,"program":35},{"pitch":28,"velocity":117,"startTime":74.65511766666667,"endTime":74.7413245,"instrument":4,"program":35},{"pitch":28,"velocity":117,"startTime":74.7413245,"endTime":74.87063475000001,"instrument":4,"program":35},{"pitch":37,"velocity":117,"startTime":76.551668,"endTime":76.68097825000001,"instrument":4,"program":35},{"pitch":37,"velocity":117,"startTime":76.72408166666668,"endTime":76.8102885,"instrument":4,"program":35},{"pitch":37,"velocity":117,"startTime":76.8102885,"endTime":76.93959875,"instrument":4,"program":35},{"pitch":33,"velocity":117,"startTime":78.53442516666667,"endTime":78.620632,"instrument":4,"program":35},{"pitch":36,"velocity":117,"startTime":78.620632,"endTime":78.74994225,"instrument":4,"program":35},{"pitch":36,"velocity":117,"startTime":78.74994225,"endTime":78.8792525,"instrument":4,"program":35},{"pitch":35,"velocity":117,"startTime":78.8792525,"endTime":79.00856275000001,"instrument":4,"program":35},{"pitch":35,"velocity":117,"startTime":80.68959600000001,"endTime":80.81890625,"instrument":4,"program":35},{"pitch":35,"velocity":117,"startTime":80.86200966666667,"endTime":80.9482165,"instrument":4,"program":35},{"pitch":35,"velocity":117,"startTime":80.9482165,"endTime":81.07752675,"instrument":4,"program":35},{"pitch":38,"velocity":117,"startTime":82.241319,"endTime":82.37062925000001,"instrument":4,"program":35},{"pitch":38,"velocity":117,"startTime":82.41373266666668,"endTime":82.49993950000001,"instrument":4,"program":35},{"pitch":36,"velocity":105,"startTime":82.75856,"endTime":82.84476683333334,"isDrum":true},{"pitch":42,"velocity":105,"startTime":82.75856,"endTime":82.84476683333334,"isDrum":true},{"pitch":49,"velocity":105,"startTime":82.75856,"endTime":82.84476683333334,"isDrum":true},{"pitch":42,"velocity":105,"startTime":83.01718050000001,"endTime":83.10338733333334,"isDrum":true},{"pitch":38,"velocity":105,"startTime":83.275801,"endTime":83.36200783333334,"isDrum":true},{"pitch":39,"velocity":105,"startTime":83.275801,"endTime":83.36200783333334,"isDrum":true},{"pitch":42,"velocity":105,"startTime":83.275801,"endTime":83.36200783333334,"isDrum":true},{"pitch":69,"velocity":105,"startTime":83.275801,"endTime":83.36200783333334,"isDrum":true},{"pitch":42,"velocity":105,"startTime":83.53442150000001,"endTime":83.62062833333334,"isDrum":true},{"pitch":36,"velocity":105,"startTime":83.793042,"endTime":83.87924883333334,"isDrum":true},{"pitch":42,"velocity":105,"startTime":83.793042,"endTime":83.87924883333334,"isDrum":true},{"pitch":69,"velocity":105,"startTime":83.793042,"endTime":83.87924883333334,"isDrum":true},{"pitch":42,"velocity":105,"startTime":84.0516625,"endTime":84.13786933333334,"isDrum":true},{"pitch":38,"velocity":105,"startTime":84.310283,"endTime":84.39648983333333,"isDrum":true},{"pitch":39,"velocity":105,"startTime":84.310283,"endTime":84.39648983333333,"isDrum":true},{"pitch":42,"velocity":105,"startTime":84.310283,"endTime":84.39648983333333,"isDrum":true},{"pitch":69,"velocity":105,"startTime":84.310283,"endTime":84.39648983333333,"isDrum":true},{"pitch":42,"velocity":105,"startTime":84.5689035,"endTime":84.65511033333334,"isDrum":true},{"pitch":36,"velocity":105,"startTime":84.82752400000001,"endTime":84.91373083333333,"isDrum":true},{"pitch":42,"velocity":105,"startTime":84.82752400000001,"endTime":84.91373083333333,"isDrum":true},{"pitch":42,"velocity":105,"startTime":85.0861445,"endTime":85.17235133333334,"isDrum":true},{"pitch":38,"velocity":105,"startTime":85.34476500000001,"endTime":85.43097183333334,"isDrum":true},{"pitch":39,"velocity":105,"startTime":85.34476500000001,"endTime":85.43097183333334,"isDrum":true},{"pitch":42,"velocity":105,"startTime":85.34476500000001,"endTime":85.43097183333334,"isDrum":true},{"pitch":69,"velocity":105,"startTime":85.34476500000001,"endTime":85.43097183333334,"isDrum":true},{"pitch":36,"velocity":105,"startTime":85.6033855,"endTime":85.68959233333334,"isDrum":true},{"pitch":42,"velocity":105,"startTime":85.6033855,"endTime":85.68959233333334,"isDrum":true},{"pitch":36,"velocity":105,"startTime":85.86200600000001,"endTime":85.94821283333334,"isDrum":true},{"pitch":42,"velocity":105,"startTime":85.86200600000001,"endTime":85.94821283333334,"isDrum":true},{"pitch":42,"velocity":105,"startTime":86.1206265,"endTime":86.20683333333334,"isDrum":true},{"pitch":38,"velocity":105,"startTime":86.379247,"endTime":86.46545383333334,"isDrum":true},{"pitch":39,"velocity":105,"startTime":86.379247,"endTime":86.46545383333334,"isDrum":true},{"pitch":42,"velocity":105,"startTime":86.379247,"endTime":86.46545383333334,"isDrum":true},{"pitch":69,"velocity":105,"startTime":86.379247,"endTime":86.46545383333334,"isDrum":true},{"pitch":36,"velocity":105,"startTime":86.6378675,"endTime":86.72407433333333,"isDrum":true},{"pitch":42,"velocity":105,"startTime":86.6378675,"endTime":86.72407433333333,"isDrum":true},{"pitch":36,"velocity":105,"startTime":86.896488,"endTime":86.98269483333334,"isDrum":true},{"pitch":42,"velocity":105,"startTime":86.896488,"endTime":86.98269483333334,"isDrum":true},{"pitch":42,"velocity":105,"startTime":87.15510850000001,"endTime":87.24131533333333,"isDrum":true},{"pitch":38,"velocity":105,"startTime":87.413729,"endTime":87.49993583333334,"isDrum":true},{"pitch":39,"velocity":105,"startTime":87.413729,"endTime":87.49993583333334,"isDrum":true},{"pitch":42,"velocity":105,"startTime":87.413729,"endTime":87.49993583333334,"isDrum":true},{"pitch":69,"velocity":105,"startTime":87.413729,"endTime":87.49993583333334,"isDrum":true},{"pitch":36,"velocity":105,"startTime":87.67234950000001,"endTime":87.75855633333335,"isDrum":true},{"pitch":42,"velocity":105,"startTime":87.67234950000001,"endTime":87.75855633333335,"isDrum":true},{"pitch":36,"velocity":105,"startTime":87.93097,"endTime":88.01717683333334,"isDrum":true},{"pitch":42,"velocity":105,"startTime":87.93097,"endTime":88.01717683333334,"isDrum":true},{"pitch":42,"velocity":105,"startTime":88.18959050000001,"endTime":88.27579733333334,"isDrum":true},{"pitch":38,"velocity":105,"startTime":88.448211,"endTime":88.53441783333334,"isDrum":true},{"pitch":39,"velocity":105,"startTime":88.448211,"endTime":88.53441783333334,"isDrum":true},{"pitch":42,"velocity":105,"startTime":88.448211,"endTime":88.53441783333334,"isDrum":true},{"pitch":69,"velocity":105,"startTime":88.448211,"endTime":88.53441783333334,"isDrum":true},{"pitch":36,"velocity":105,"startTime":88.7068315,"endTime":88.79303833333334,"isDrum":true},{"pitch":42,"velocity":105,"startTime":88.7068315,"endTime":88.79303833333334,"isDrum":true},{"pitch":36,"velocity":105,"startTime":88.965452,"endTime":89.05165883333333,"isDrum":true},{"pitch":42,"velocity":105,"startTime":88.965452,"endTime":89.05165883333333,"isDrum":true},{"pitch":42,"velocity":105,"startTime":89.2240725,"endTime":89.31027933333334,"isDrum":true},{"pitch":38,"velocity":105,"startTime":89.48269300000001,"endTime":89.56889983333333,"isDrum":true},{"pitch":39,"velocity":105,"startTime":89.48269300000001,"endTime":89.56889983333333,"isDrum":true},{"pitch":42,"velocity":105,"startTime":89.48269300000001,"endTime":89.56889983333333,"isDrum":true},{"pitch":69,"velocity":105,"startTime":89.48269300000001,"endTime":89.56889983333333,"isDrum":true},{"pitch":36,"velocity":105,"startTime":89.7413135,"endTime":89.82752033333334,"isDrum":true},{"pitch":42,"velocity":105,"startTime":89.7413135,"endTime":89.82752033333334,"isDrum":true},{"pitch":36,"velocity":105,"startTime":89.99993400000001,"endTime":90.08614083333333,"isDrum":true},{"pitch":42,"velocity":105,"startTime":89.99993400000001,"endTime":90.08614083333333,"isDrum":true},{"pitch":42,"velocity":105,"startTime":90.2585545,"endTime":90.34476133333334,"isDrum":true},{"pitch":38,"velocity":105,"startTime":90.51717500000001,"endTime":90.60338183333334,"isDrum":true},{"pitch":39,"velocity":105,"startTime":90.51717500000001,"endTime":90.60338183333334,"isDrum":true},{"pitch":42,"velocity":105,"startTime":90.51717500000001,"endTime":90.60338183333334,"isDrum":true},{"pitch":69,"velocity":105,"startTime":90.51717500000001,"endTime":90.60338183333334,"isDrum":true},{"pitch":36,"velocity":105,"startTime":90.7757955,"endTime":90.86200233333334,"isDrum":true},{"pitch":42,"velocity":105,"startTime":90.7757955,"endTime":90.86200233333334,"isDrum":true},{"pitch":36,"velocity":105,"startTime":91.03441600000001,"endTime":91.12062283333334,"isDrum":true},{"pitch":42,"velocity":105,"startTime":91.03441600000001,"endTime":91.12062283333334,"isDrum":true},{"pitch":42,"velocity":105,"startTime":91.2930365,"endTime":91.37924333333333,"isDrum":true},{"pitch":38,"velocity":105,"startTime":91.551657,"endTime":91.63786383333334,"isDrum":true},{"pitch":39,"velocity":105,"startTime":91.551657,"endTime":91.63786383333334,"isDrum":true},{"pitch":42,"velocity":105,"startTime":91.551657,"endTime":91.63786383333334,"isDrum":true},{"pitch":69,"velocity":105,"startTime":91.551657,"endTime":91.63786383333334,"isDrum":true},{"pitch":36,"velocity":105,"startTime":91.81027750000001,"endTime":91.89648433333333,"isDrum":true},{"pitch":42,"velocity":105,"startTime":91.81027750000001,"endTime":91.89648433333333,"isDrum":true},{"pitch":36,"velocity":105,"startTime":92.068898,"endTime":92.15510483333334,"isDrum":true},{"pitch":42,"velocity":105,"startTime":92.068898,"endTime":92.15510483333334,"isDrum":true},{"pitch":42,"velocity":105,"startTime":92.32751850000001,"endTime":92.41372533333333,"isDrum":true},{"pitch":38,"velocity":105,"startTime":92.586139,"endTime":92.67234583333334,"isDrum":true},{"pitch":39,"velocity":105,"startTime":92.586139,"endTime":92.67234583333334,"isDrum":true},{"pitch":42,"velocity":105,"startTime":92.586139,"endTime":92.67234583333334,"isDrum":true},{"pitch":69,"velocity":105,"startTime":92.586139,"endTime":92.67234583333334,"isDrum":true},{"pitch":36,"velocity":105,"startTime":92.84475950000001,"endTime":92.93096633333334,"isDrum":true},{"pitch":42,"velocity":105,"startTime":92.84475950000001,"endTime":92.93096633333334,"isDrum":true},{"pitch":36,"velocity":105,"startTime":93.10338,"endTime":93.18958683333334,"isDrum":true},{"pitch":42,"velocity":105,"startTime":93.10338,"endTime":93.18958683333334,"isDrum":true},{"pitch":42,"velocity":105,"startTime":93.36200050000001,"endTime":93.44820733333334,"isDrum":true},{"pitch":38,"velocity":105,"startTime":93.620621,"endTime":93.70682783333334,"isDrum":true},{"pitch":39,"velocity":105,"startTime":93.620621,"endTime":93.70682783333334,"isDrum":true},{"pitch":42,"velocity":105,"startTime":93.620621,"endTime":93.70682783333334,"isDrum":true},{"pitch":69,"velocity":105,"startTime":93.620621,"endTime":93.70682783333334,"isDrum":true},{"pitch":36,"velocity":105,"startTime":93.8792415,"endTime":93.96544833333334,"isDrum":true},{"pitch":42,"velocity":105,"startTime":93.8792415,"endTime":93.96544833333334,"isDrum":true},{"pitch":36,"velocity":105,"startTime":94.137862,"endTime":94.22406883333333,"isDrum":true},{"pitch":42,"velocity":105,"startTime":94.137862,"endTime":94.22406883333333,"isDrum":true},{"pitch":42,"velocity":105,"startTime":94.3964825,"endTime":94.48268933333334,"isDrum":true},{"pitch":38,"velocity":105,"startTime":94.65510300000001,"endTime":94.74130983333333,"isDrum":true},{"pitch":39,"velocity":105,"startTime":94.65510300000001,"endTime":94.74130983333333,"isDrum":true},{"pitch":42,"velocity":105,"startTime":94.65510300000001,"endTime":94.74130983333333,"isDrum":true},{"pitch":69,"velocity":105,"startTime":94.65510300000001,"endTime":94.74130983333333,"isDrum":true},{"pitch":36,"velocity":105,"startTime":94.9137235,"endTime":94.99993033333334,"isDrum":true},{"pitch":42,"velocity":105,"startTime":94.9137235,"endTime":94.99993033333334,"isDrum":true},{"pitch":36,"velocity":105,"startTime":95.17234400000001,"endTime":95.25855083333335,"isDrum":true},{"pitch":42,"velocity":105,"startTime":95.17234400000001,"endTime":95.25855083333335,"isDrum":true},{"pitch":42,"velocity":105,"startTime":95.4309645,"endTime":95.51717133333334,"isDrum":true},{"pitch":38,"velocity":105,"startTime":95.68958500000001,"endTime":95.77579183333334,"isDrum":true},{"pitch":39,"velocity":105,"startTime":95.68958500000001,"endTime":95.77579183333334,"isDrum":true},{"pitch":42,"velocity":105,"startTime":95.68958500000001,"endTime":95.77579183333334,"isDrum":true},{"pitch":69,"velocity":105,"startTime":95.68958500000001,"endTime":95.77579183333334,"isDrum":true},{"pitch":36,"velocity":105,"startTime":95.9482055,"endTime":96.03441233333334,"isDrum":true},{"pitch":42,"velocity":105,"startTime":95.9482055,"endTime":96.03441233333334,"isDrum":true},{"pitch":36,"velocity":105,"startTime":96.206826,"endTime":96.29303283333334,"isDrum":true},{"pitch":42,"velocity":105,"startTime":96.206826,"endTime":96.29303283333334,"isDrum":true},{"pitch":42,"velocity":105,"startTime":96.4654465,"endTime":96.55165333333333,"isDrum":true},{"pitch":38,"velocity":105,"startTime":96.724067,"endTime":96.81027383333334,"isDrum":true},{"pitch":39,"velocity":105,"startTime":96.724067,"endTime":96.81027383333334,"isDrum":true},{"pitch":42,"velocity":105,"startTime":96.724067,"endTime":96.81027383333334,"isDrum":true},{"pitch":69,"velocity":105,"startTime":96.724067,"endTime":96.81027383333334,"isDrum":true},{"pitch":36,"velocity":105,"startTime":96.98268750000001,"endTime":97.06889433333333,"isDrum":true},{"pitch":42,"velocity":105,"startTime":96.98268750000001,"endTime":97.06889433333333,"isDrum":true},{"pitch":36,"velocity":105,"startTime":97.241308,"endTime":97.32751483333334,"isDrum":true},{"pitch":42,"velocity":105,"startTime":97.241308,"endTime":97.32751483333334,"isDrum":true},{"pitch":42,"velocity":105,"startTime":97.49992850000001,"endTime":97.58613533333335,"isDrum":true},{"pitch":38,"velocity":105,"startTime":97.758549,"endTime":97.84475583333334,"isDrum":true},{"pitch":39,"velocity":105,"startTime":97.758549,"endTime":97.84475583333334,"isDrum":true},{"pitch":42,"velocity":105,"startTime":97.758549,"endTime":97.84475583333334,"isDrum":true},{"pitch":69,"velocity":105,"startTime":97.758549,"endTime":97.84475583333334,"isDrum":true},{"pitch":36,"velocity":105,"startTime":98.01716950000001,"endTime":98.10337633333334,"isDrum":true},{"pitch":42,"velocity":105,"startTime":98.01716950000001,"endTime":98.10337633333334,"isDrum":true},{"pitch":63,"velocity":123,"startTime":84.0516625,"endTime":84.18097275000001,"instrument":1,"program":4},{"pitch":66,"velocity":123,"startTime":84.0516625,"endTime":84.18097275000001,"instrument":1,"program":4},{"pitch":68,"velocity":123,"startTime":84.0516625,"endTime":84.18097275000001,"instrument":1,"program":4},{"pitch":71,"velocity":123,"startTime":84.0516625,"endTime":84.18097275000001,"instrument":1,"program":4},{"pitch":56,"velocity":123,"startTime":85.0861445,"endTime":85.21545475,"instrument":1,"program":4},{"pitch":61,"velocity":123,"startTime":85.0861445,"endTime":85.21545475,"instrument":1,"program":4},{"pitch":64,"velocity":123,"startTime":85.0861445,"endTime":85.21545475,"instrument":1,"program":4},{"pitch":56,"velocity":123,"startTime":85.34476500000001,"endTime":85.6033855,"instrument":1,"program":4},{"pitch":61,"velocity":123,"startTime":85.34476500000001,"endTime":85.6033855,"instrument":1,"program":4},{"pitch":64,"velocity":123,"startTime":85.34476500000001,"endTime":85.6033855,"instrument":1,"program":4},{"pitch":56,"velocity":123,"startTime":86.1206265,"endTime":86.24993675,"instrument":1,"program":4},{"pitch":61,"velocity":123,"startTime":86.1206265,"endTime":86.24993675,"instrument":1,"program":4},{"pitch":64,"velocity":123,"startTime":86.1206265,"endTime":86.24993675,"instrument":1,"program":4},{"pitch":57,"velocity":123,"startTime":87.15510850000001,"endTime":87.28441875,"instrument":1,"program":4},{"pitch":60,"velocity":123,"startTime":87.15510850000001,"endTime":87.28441875,"instrument":1,"program":4},{"pitch":64,"velocity":123,"startTime":87.15510850000001,"endTime":87.28441875,"instrument":1,"program":4},{"pitch":57,"velocity":123,"startTime":88.18959050000001,"endTime":88.31890075000001,"instrument":1,"program":4},{"pitch":60,"velocity":123,"startTime":88.18959050000001,"endTime":88.31890075000001,"instrument":1,"program":4},{"pitch":64,"velocity":123,"startTime":88.18959050000001,"endTime":88.31890075000001,"instrument":1,"program":4},{"pitch":57,"velocity":123,"startTime":89.2240725,"endTime":89.35338275000001,"instrument":1,"program":4},{"pitch":59,"velocity":123,"startTime":89.2240725,"endTime":89.35338275000001,"instrument":1,"program":4},{"pitch":62,"velocity":123,"startTime":89.2240725,"endTime":89.35338275000001,"instrument":1,"program":4},{"pitch":66,"velocity":123,"startTime":89.2240725,"endTime":89.35338275000001,"instrument":1,"program":4},{"pitch":57,"velocity":123,"startTime":89.7413135,"endTime":89.87062375000001,"instrument":1,"program":4},{"pitch":59,"velocity":123,"startTime":89.7413135,"endTime":89.87062375000001,"instrument":1,"program":4},{"pitch":62,"velocity":123,"startTime":89.7413135,"endTime":89.87062375000001,"instrument":1,"program":4},{"pitch":66,"velocity":123,"startTime":89.7413135,"endTime":89.87062375000001,"instrument":1,"program":4},{"pitch":57,"velocity":123,"startTime":90.7757955,"endTime":90.90510575,"instrument":1,"program":4},{"pitch":59,"velocity":123,"startTime":90.7757955,"endTime":90.90510575,"instrument":1,"program":4},{"pitch":62,"velocity":123,"startTime":90.7757955,"endTime":90.90510575,"instrument":1,"program":4},{"pitch":66,"velocity":123,"startTime":90.7757955,"endTime":90.90510575,"instrument":1,"program":4},{"pitch":59,"velocity":123,"startTime":91.03441600000001,"endTime":91.2930365,"instrument":1,"program":4},{"pitch":62,"velocity":123,"startTime":91.03441600000001,"endTime":91.2930365,"instrument":1,"program":4},{"pitch":66,"velocity":123,"startTime":91.03441600000001,"endTime":91.2930365,"instrument":1,"program":4},{"pitch":59,"velocity":123,"startTime":92.32751850000001,"endTime":92.45682875,"instrument":1,"program":4},{"pitch":62,"velocity":123,"startTime":92.32751850000001,"endTime":92.45682875,"instrument":1,"program":4},{"pitch":66,"velocity":123,"startTime":92.32751850000001,"endTime":92.45682875,"instrument":1,"program":4},{"pitch":60,"velocity":123,"startTime":93.36200050000001,"endTime":93.49131075000001,"instrument":1,"program":4},{"pitch":64,"velocity":123,"startTime":93.36200050000001,"endTime":93.49131075000001,"instrument":1,"program":4},{"pitch":66,"velocity":123,"startTime":93.36200050000001,"endTime":93.49131075000001,"instrument":1,"program":4},{"pitch":59,"velocity":123,"startTime":94.137862,"endTime":94.3964825,"instrument":1,"program":4},{"pitch":61,"velocity":123,"startTime":94.137862,"endTime":94.3964825,"instrument":1,"program":4},{"pitch":64,"velocity":123,"startTime":94.137862,"endTime":94.3964825,"instrument":1,"program":4},{"pitch":60,"velocity":123,"startTime":95.4309645,"endTime":95.56027475,"instrument":1,"program":4},{"pitch":64,"velocity":123,"startTime":95.4309645,"endTime":95.56027475,"instrument":1,"program":4},{"pitch":66,"velocity":123,"startTime":95.4309645,"endTime":95.56027475,"instrument":1,"program":4},{"pitch":60,"velocity":123,"startTime":95.9482055,"endTime":96.07751575,"instrument":1,"program":4},{"pitch":64,"velocity":123,"startTime":95.9482055,"endTime":96.07751575,"instrument":1,"program":4},{"pitch":66,"velocity":123,"startTime":95.9482055,"endTime":96.07751575,"instrument":1,"program":4},{"pitch":60,"velocity":123,"startTime":96.206826,"endTime":96.59475675,"instrument":1,"program":4},{"pitch":64,"velocity":123,"startTime":96.206826,"endTime":96.59475675,"instrument":1,"program":4},{"pitch":66,"velocity":123,"startTime":96.206826,"endTime":96.59475675,"instrument":1,"program":4},{"pitch":60,"velocity":123,"startTime":96.724067,"endTime":97.11199775,"instrument":1,"program":4},{"pitch":64,"velocity":123,"startTime":96.724067,"endTime":97.11199775,"instrument":1,"program":4},{"pitch":66,"velocity":123,"startTime":96.724067,"endTime":97.11199775,"instrument":1,"program":4},{"pitch":57,"velocity":123,"startTime":97.49992850000001,"endTime":97.62923875,"instrument":1,"program":4},{"pitch":62,"velocity":123,"startTime":97.49992850000001,"endTime":97.62923875,"instrument":1,"program":4},{"pitch":66,"velocity":123,"startTime":97.49992850000001,"endTime":97.62923875,"instrument":1,"program":4},{"pitch":57,"velocity":123,"startTime":98.5344105,"endTime":98.66372075000001,"instrument":1,"program":4},{"pitch":62,"velocity":123,"startTime":98.5344105,"endTime":98.66372075000001,"instrument":1,"program":4},{"pitch":66,"velocity":123,"startTime":98.5344105,"endTime":98.66372075000001,"instrument":1,"program":4},{"pitch":59,"velocity":123,"startTime":83.01718050000001,"endTime":83.06028391666668,"instrument":2,"program":27},{"pitch":59,"velocity":123,"startTime":83.275801,"endTime":83.40511125,"instrument":2,"program":27},{"pitch":59,"velocity":123,"startTime":83.53442150000001,"endTime":83.66373175000001,"instrument":2,"program":27},{"pitch":59,"velocity":123,"startTime":83.793042,"endTime":83.83614541666667,"instrument":2,"program":27},{"pitch":59,"velocity":123,"startTime":84.0516625,"endTime":84.09476591666667,"instrument":2,"program":27},{"pitch":59,"velocity":123,"startTime":84.310283,"endTime":84.43959325,"instrument":2,"program":27},{"pitch":64,"velocity":123,"startTime":84.43959325,"endTime":84.52580008333334,"instrument":2,"program":27},{"pitch":59,"velocity":123,"startTime":84.5689035,"endTime":84.65511033333334,"instrument":2,"program":27},{"pitch":61,"velocity":123,"startTime":85.0861445,"endTime":85.12924791666667,"instrument":2,"program":27},{"pitch":61,"velocity":123,"startTime":85.21545475,"endTime":85.30166158333334,"instrument":2,"program":27},{"pitch":61,"velocity":123,"startTime":85.34476500000001,"endTime":85.47407525,"instrument":2,"program":27},{"pitch":61,"velocity":123,"startTime":85.6033855,"endTime":85.73269575,"instrument":2,"program":27},{"pitch":61,"velocity":123,"startTime":85.86200600000001,"endTime":85.99131625000001,"instrument":2,"program":27},{"pitch":61,"velocity":123,"startTime":86.1206265,"endTime":86.24993675,"instrument":2,"program":27},{"pitch":61,"velocity":123,"startTime":86.379247,"endTime":86.50855725000001,"instrument":2,"program":27},{"pitch":64,"velocity":123,"startTime":86.50855725000001,"endTime":86.6378675,"instrument":2,"program":27},{"pitch":60,"velocity":123,"startTime":86.896488,"endTime":87.02579825000001,"instrument":2,"program":27},{"pitch":60,"velocity":123,"startTime":87.02579825000001,"endTime":87.15510850000001,"instrument":2,"program":27},{"pitch":60,"velocity":123,"startTime":87.15510850000001,"endTime":87.28441875,"instrument":2,"program":27},{"pitch":60,"velocity":123,"startTime":87.413729,"endTime":87.54303925,"instrument":2,"program":27},{"pitch":60,"velocity":123,"startTime":87.54303925,"endTime":87.67234950000001,"instrument":2,"program":27},{"pitch":60,"velocity":123,"startTime":88.18959050000001,"endTime":88.23269391666668,"instrument":2,"program":27},{"pitch":60,"velocity":123,"startTime":88.31890075000001,"endTime":88.40510758333333,"instrument":2,"program":27},{"pitch":62,"velocity":123,"startTime":88.448211,"endTime":88.57752125,"instrument":2,"program":27},{"pitch":60,"velocity":123,"startTime":88.57752125,"endTime":88.7068315,"instrument":2,"program":27},{"pitch":59,"velocity":123,"startTime":89.2240725,"endTime":89.26717591666667,"instrument":2,"program":27},{"pitch":59,"velocity":123,"startTime":89.35338275000001,"endTime":89.43958958333334,"instrument":2,"program":27},{"pitch":59,"velocity":123,"startTime":89.48269300000001,"endTime":89.61200325,"instrument":2,"program":27},{"pitch":59,"velocity":123,"startTime":89.61200325,"endTime":89.7413135,"instrument":2,"program":27},{"pitch":62,"velocity":123,"startTime":89.99993400000001,"endTime":90.04303741666668,"instrument":2,"program":27},{"pitch":62,"velocity":123,"startTime":90.2585545,"endTime":90.30165791666667,"instrument":2,"program":27},{"pitch":62,"velocity":123,"startTime":90.51717500000001,"endTime":90.64648525000001,"instrument":2,"program":27},{"pitch":62,"velocity":123,"startTime":90.64648525000001,"endTime":90.7757955,"instrument":2,"program":27},{"pitch":56,"velocity":123,"startTime":91.2930365,"endTime":91.33613991666667,"instrument":2,"program":27},{"pitch":56,"velocity":123,"startTime":91.42234675,"endTime":91.551657,"instrument":2,"program":27},{"pitch":59,"velocity":123,"startTime":91.551657,"endTime":91.68096725000001,"instrument":2,"program":27},{"pitch":59,"velocity":123,"startTime":91.81027750000001,"endTime":91.93958775,"instrument":2,"program":27},{"pitch":59,"velocity":123,"startTime":91.93958775,"endTime":92.02579458333334,"instrument":2,"program":27},{"pitch":59,"velocity":123,"startTime":92.068898,"endTime":92.15510483333334,"instrument":2,"program":27},{"pitch":59,"velocity":123,"startTime":92.19820825000001,"endTime":92.32751850000001,"instrument":2,"program":27},{"pitch":59,"velocity":123,"startTime":92.32751850000001,"endTime":92.45682875,"instrument":2,"program":27},{"pitch":59,"velocity":123,"startTime":92.586139,"endTime":92.71544925,"instrument":2,"program":27},{"pitch":59,"velocity":123,"startTime":92.71544925,"endTime":92.84475950000001,"instrument":2,"program":27},{"pitch":61,"velocity":123,"startTime":93.36200050000001,"endTime":93.40510391666668,"instrument":2,"program":27},{"pitch":61,"velocity":123,"startTime":93.49131075000001,"endTime":93.57751758333333,"instrument":2,"program":27},{"pitch":61,"velocity":123,"startTime":93.620621,"endTime":93.74993125,"instrument":2,"program":27},{"pitch":61,"velocity":123,"startTime":93.74993125,"endTime":93.8792415,"instrument":2,"program":27},{"pitch":61,"velocity":123,"startTime":94.3964825,"endTime":94.43958591666667,"instrument":2,"program":27},{"pitch":61,"velocity":123,"startTime":94.52579275000001,"endTime":94.65510300000001,"instrument":2,"program":27},{"pitch":61,"velocity":123,"startTime":94.65510300000001,"endTime":94.78441325,"instrument":2,"program":27},{"pitch":61,"velocity":123,"startTime":94.9137235,"endTime":95.04303375,"instrument":2,"program":27},{"pitch":60,"velocity":123,"startTime":95.4309645,"endTime":95.47406791666667,"instrument":2,"program":27},{"pitch":60,"velocity":123,"startTime":95.56027475,"endTime":95.64648158333334,"instrument":2,"program":27},{"pitch":60,"velocity":123,"startTime":95.68958500000001,"endTime":95.81889525000001,"instrument":2,"program":27},{"pitch":60,"velocity":123,"startTime":95.9482055,"endTime":96.07751575,"instrument":2,"program":27},{"pitch":60,"velocity":123,"startTime":96.206826,"endTime":96.33613625000001,"instrument":2,"program":27},{"pitch":62,"velocity":123,"startTime":96.33613625000001,"endTime":96.4654465,"instrument":2,"program":27},{"pitch":60,"velocity":123,"startTime":96.724067,"endTime":96.85337725000001,"instrument":2,"program":27},{"pitch":60,"velocity":123,"startTime":96.85337725000001,"endTime":96.98268750000001,"instrument":2,"program":27},{"pitch":59,"velocity":123,"startTime":97.49992850000001,"endTime":97.54303191666668,"instrument":2,"program":27},{"pitch":59,"velocity":123,"startTime":97.62923875,"endTime":97.71544558333333,"instrument":2,"program":27},{"pitch":59,"velocity":123,"startTime":97.758549,"endTime":97.88785925,"instrument":2,"program":27},{"pitch":59,"velocity":123,"startTime":97.88785925,"endTime":98.01716950000001,"instrument":2,"program":27},{"pitch":59,"velocity":123,"startTime":98.5344105,"endTime":98.57751391666667,"instrument":2,"program":27},{"pitch":59,"velocity":123,"startTime":98.66372075000001,"endTime":98.74992758333335,"instrument":2,"program":27},{"pitch":57,"velocity":123,"startTime":98.793031,"endTime":98.83613441666667,"instrument":2,"program":27},{"pitch":57,"velocity":123,"startTime":98.92234125,"endTime":98.96544466666667,"instrument":2,"program":27},{"pitch":59,"velocity":123,"startTime":99.0516515,"endTime":99.13785833333334,"instrument":2,"program":27},{"pitch":40,"velocity":117,"startTime":82.75856,"endTime":82.88787025,"instrument":4,"program":35},{"pitch":40,"velocity":117,"startTime":83.01718050000001,"endTime":83.275801,"instrument":4,"program":35},{"pitch":28,"velocity":117,"startTime":83.66373175000001,"endTime":83.74993858333333,"instrument":4,"program":35},{"pitch":32,"velocity":117,"startTime":83.793042,"endTime":83.92235225,"instrument":4,"program":35},{"pitch":32,"velocity":117,"startTime":84.0516625,"endTime":84.310283,"instrument":4,"program":35},{"pitch":32,"velocity":117,"startTime":84.310283,"endTime":84.5689035,"instrument":4,"program":35},{"pitch":32,"velocity":117,"startTime":84.5689035,"endTime":84.82752400000001,"instrument":4,"program":35},{"pitch":36,"velocity":117,"startTime":86.896488,"endTime":87.15510850000001,"instrument":4,"program":35},{"pitch":36,"velocity":117,"startTime":87.15510850000001,"endTime":87.413729,"instrument":4,"program":35},{"pitch":38,"velocity":117,"startTime":87.93097,"endTime":88.06028025,"instrument":4,"program":35},{"pitch":38,"velocity":117,"startTime":88.06028025,"endTime":88.18959050000001,"instrument":4,"program":35},{"pitch":45,"velocity":117,"startTime":88.18959050000001,"endTime":88.448211,"instrument":4,"program":35},{"pitch":38,"velocity":117,"startTime":88.448211,"endTime":88.57752125,"instrument":4,"program":35},{"pitch":38,"velocity":117,"startTime":88.57752125,"endTime":88.7068315,"instrument":4,"program":35},{"pitch":38,"velocity":117,"startTime":88.83614175000001,"endTime":88.965452,"instrument":4,"program":35},{"pitch":35,"velocity":117,"startTime":88.965452,"endTime":89.09476225,"instrument":4,"program":35},{"pitch":35,"velocity":117,"startTime":89.09476225,"endTime":89.2240725,"instrument":4,"program":35},{"pitch":30,"velocity":117,"startTime":89.2240725,"endTime":89.39648616666668,"instrument":4,"program":35},{"pitch":35,"velocity":117,"startTime":90.2585545,"endTime":90.51717500000001,"instrument":4,"program":35},{"pitch":40,"velocity":117,"startTime":90.51717500000001,"endTime":90.7757955,"instrument":4,"program":35},{"pitch":35,"velocity":117,"startTime":90.7757955,"endTime":91.03441600000001,"instrument":4,"program":35},{"pitch":40,"velocity":117,"startTime":91.03441600000001,"endTime":91.16372625000001,"instrument":4,"program":35},{"pitch":35,"velocity":117,"startTime":91.16372625000001,"endTime":91.2930365,"instrument":4,"program":35},{"pitch":40,"velocity":117,"startTime":91.2930365,"endTime":91.42234675,"instrument":4,"program":35},{"pitch":32,"velocity":117,"startTime":92.84475950000001,"endTime":93.10338,"instrument":4,"program":35},{"pitch":37,"velocity":117,"startTime":93.10338,"endTime":93.23269025,"instrument":4,"program":35},{"pitch":37,"velocity":117,"startTime":93.23269025,"endTime":93.36200050000001,"instrument":4,"program":35},{"pitch":32,"velocity":117,"startTime":93.36200050000001,"endTime":93.53441416666668,"instrument":4,"program":35},{"pitch":33,"velocity":117,"startTime":94.9137235,"endTime":95.17234400000001,"instrument":4,"program":35},{"pitch":36,"velocity":117,"startTime":95.17234400000001,"endTime":95.30165425,"instrument":4,"program":35},{"pitch":36,"velocity":117,"startTime":95.30165425,"endTime":95.4309645,"instrument":4,"program":35},{"pitch":36,"velocity":117,"startTime":95.4309645,"endTime":95.60337816666667,"instrument":4,"program":35},{"pitch":38,"velocity":117,"startTime":96.07751575,"endTime":96.206826,"instrument":4,"program":35},{"pitch":42,"velocity":117,"startTime":96.206826,"endTime":96.33613625000001,"instrument":4,"program":35},{"pitch":42,"velocity":117,"startTime":96.33613625000001,"endTime":96.4654465,"instrument":4,"program":35},{"pitch":36,"velocity":117,"startTime":96.4654465,"endTime":96.724067,"instrument":4,"program":35},{"pitch":38,"velocity":117,"startTime":96.724067,"endTime":96.85337725000001,"instrument":4,"program":35},{"pitch":38,"velocity":117,"startTime":96.98268750000001,"endTime":97.241308,"instrument":4,"program":35},{"pitch":35,"velocity":117,"startTime":97.241308,"endTime":97.758549,"instrument":4,"program":35},{"pitch":35,"velocity":117,"startTime":97.88785925,"endTime":98.27579,"instrument":4,"program":35},{"pitch":38,"velocity":117,"startTime":98.27579,"endTime":98.40510025,"instrument":4,"program":35},{"pitch":36,"velocity":117,"startTime":98.40510025,"endTime":98.5344105,"instrument":4,"program":35},{"pitch":38,"velocity":117,"startTime":98.5344105,"endTime":98.66372075000001,"instrument":4,"program":35},{"pitch":40,"velocity":118,"startTime":83.01718050000001,"endTime":83.23269758333333,"instrument":5,"program":87},{"pitch":52,"velocity":118,"startTime":83.275801,"endTime":83.40511125,"instrument":5,"program":87},{"pitch":52,"velocity":118,"startTime":83.53442150000001,"endTime":83.74993858333333,"instrument":5,"program":87},{"pitch":54,"velocity":118,"startTime":83.793042,"endTime":84.0516625,"instrument":5,"program":87},{"pitch":49,"velocity":118,"startTime":86.1206265,"endTime":86.33614358333334,"instrument":5,"program":87},{"pitch":49,"velocity":118,"startTime":86.379247,"endTime":86.50855725000001,"instrument":5,"program":87},{"pitch":51,"velocity":118,"startTime":86.6378675,"endTime":86.896488,"instrument":5,"program":87},{"pitch":48,"velocity":118,"startTime":87.15510850000001,"endTime":87.413729,"instrument":5,"program":87},{"pitch":48,"velocity":118,"startTime":87.54303925,"endTime":87.62924608333334,"instrument":5,"program":87},{"pitch":48,"velocity":118,"startTime":87.67234950000001,"endTime":87.93097,"instrument":5,"program":87},{"pitch":50,"velocity":118,"startTime":88.18959050000001,"endTime":88.448211,"instrument":5,"program":87},{"pitch":45,"velocity":118,"startTime":88.448211,"endTime":88.7068315,"instrument":5,"program":87},{"pitch":38,"velocity":118,"startTime":88.7068315,"endTime":88.965452,"instrument":5,"program":87},{"pitch":47,"velocity":118,"startTime":89.2240725,"endTime":89.43958958333334,"instrument":5,"program":87},{"pitch":47,"velocity":118,"startTime":89.48269300000001,"endTime":89.61200325,"instrument":5,"program":87},{"pitch":47,"velocity":118,"startTime":89.7413135,"endTime":89.95683058333334,"instrument":5,"program":87},{"pitch":40,"velocity":118,"startTime":91.03441600000001,"endTime":92.068898,"instrument":5,"program":87},{"pitch":52,"velocity":118,"startTime":92.32751850000001,"endTime":92.586139,"instrument":5,"program":87},{"pitch":52,"velocity":118,"startTime":92.71544925,"endTime":92.80165608333334,"instrument":5,"program":87},{"pitch":42,"velocity":118,"startTime":92.84475950000001,"endTime":93.10338,"instrument":5,"program":87},{"pitch":49,"velocity":118,"startTime":93.36200050000001,"endTime":93.620621,"instrument":5,"program":87},{"pitch":37,"velocity":118,"startTime":93.620621,"endTime":93.8792415,"instrument":5,"program":87},{"pitch":45,"velocity":118,"startTime":94.3964825,"endTime":94.65510300000001,"instrument":5,"program":87},{"pitch":45,"velocity":118,"startTime":94.65510300000001,"endTime":94.78441325,"instrument":5,"program":87},{"pitch":48,"velocity":118,"startTime":94.9137235,"endTime":95.68958500000001,"instrument":5,"program":87},{"pitch":48,"velocity":118,"startTime":95.9482055,"endTime":96.206826,"instrument":5,"program":87},{"pitch":48,"velocity":118,"startTime":96.4654465,"endTime":96.724067,"instrument":5,"program":87},{"pitch":36,"velocity":118,"startTime":96.724067,"endTime":96.85337725000001,"instrument":5,"program":87},{"pitch":47,"velocity":118,"startTime":96.98268750000001,"endTime":97.241308,"instrument":5,"program":87},{"pitch":47,"velocity":118,"startTime":97.49992850000001,"endTime":97.758549,"instrument":5,"program":87},{"pitch":36,"velocity":118,"startTime":97.88785925,"endTime":98.01716950000001,"instrument":5,"program":87},{"pitch":47,"velocity":118,"startTime":98.01716950000001,"endTime":98.27579,"instrument":5,"program":87},{"pitch":50,"velocity":118,"startTime":98.5344105,"endTime":98.793031,"instrument":5,"program":87},{"pitch":45,"velocity":118,"startTime":98.793031,"endTime":99.0516515,"instrument":5,"program":87},{"pitch":35,"velocity":105,"startTime":99.31027200000001,"endTime":99.43958225,"isDrum":true},{"pitch":42,"velocity":105,"startTime":99.31027200000001,"endTime":99.43958225,"isDrum":true},{"pitch":42,"velocity":105,"startTime":99.5688925,"endTime":99.69820275000001,"isDrum":true},{"pitch":38,"velocity":105,"startTime":99.82751300000001,"endTime":99.95682325,"isDrum":true},{"pitch":39,"velocity":105,"startTime":99.82751300000001,"endTime":99.95682325,"isDrum":true},{"pitch":40,"velocity":105,"startTime":99.82751300000001,"endTime":99.95682325,"isDrum":true},{"pitch":42,"velocity":105,"startTime":99.82751300000001,"endTime":99.95682325,"isDrum":true},{"pitch":42,"velocity":105,"startTime":100.0861335,"endTime":100.21544375,"isDrum":true},{"pitch":35,"velocity":105,"startTime":100.34475400000001,"endTime":100.47406425000001,"isDrum":true},{"pitch":42,"velocity":105,"startTime":100.34475400000001,"endTime":100.47406425000001,"isDrum":true},{"pitch":35,"velocity":105,"startTime":101.379236,"endTime":101.50854625000001,"isDrum":true},{"pitch":42,"velocity":105,"startTime":101.379236,"endTime":101.50854625000001,"isDrum":true},{"pitch":35,"velocity":105,"startTime":102.413718,"endTime":102.54302825,"isDrum":true},{"pitch":42,"velocity":105,"startTime":102.413718,"endTime":102.54302825,"isDrum":true},{"pitch":42,"velocity":105,"startTime":103.18957950000001,"endTime":103.31888975000001,"isDrum":true},{"pitch":35,"velocity":105,"startTime":103.4482,"endTime":103.57751025,"isDrum":true},{"pitch":39,"velocity":105,"startTime":103.4482,"endTime":103.57751025,"isDrum":true},{"pitch":40,"velocity":105,"startTime":103.4482,"endTime":103.57751025,"isDrum":true},{"pitch":42,"velocity":105,"startTime":103.4482,"endTime":103.57751025,"isDrum":true},{"pitch":42,"velocity":105,"startTime":103.7068205,"endTime":103.83613075000001,"isDrum":true},{"pitch":38,"velocity":105,"startTime":103.96544100000001,"endTime":104.09475125,"isDrum":true},{"pitch":39,"velocity":105,"startTime":103.96544100000001,"endTime":104.09475125,"isDrum":true},{"pitch":42,"velocity":105,"startTime":103.96544100000001,"endTime":104.09475125,"isDrum":true},{"pitch":42,"velocity":105,"startTime":104.2240615,"endTime":104.35337175000001,"isDrum":true},{"pitch":35,"velocity":105,"startTime":104.48268200000001,"endTime":104.61199225,"isDrum":true},{"pitch":42,"velocity":105,"startTime":104.48268200000001,"endTime":104.61199225,"isDrum":true},{"pitch":42,"velocity":105,"startTime":104.7413025,"endTime":104.87061275,"isDrum":true},{"pitch":38,"velocity":105,"startTime":104.99992300000001,"endTime":105.12923325000001,"isDrum":true},{"pitch":39,"velocity":105,"startTime":104.99992300000001,"endTime":105.12923325000001,"isDrum":true},{"pitch":40,"velocity":105,"startTime":104.99992300000001,"endTime":105.12923325000001,"isDrum":true},{"pitch":42,"velocity":105,"startTime":104.99992300000001,"endTime":105.12923325000001,"isDrum":true},{"pitch":42,"velocity":105,"startTime":105.2585435,"endTime":105.38785375,"isDrum":true},{"pitch":35,"velocity":105,"startTime":105.51716400000001,"endTime":105.64647425000001,"isDrum":true},{"pitch":42,"velocity":105,"startTime":105.51716400000001,"endTime":105.64647425000001,"isDrum":true},{"pitch":42,"velocity":105,"startTime":105.7757845,"endTime":105.90509475,"isDrum":true},{"pitch":38,"velocity":105,"startTime":106.034405,"endTime":106.16371525000001,"isDrum":true},{"pitch":39,"velocity":105,"startTime":106.034405,"endTime":106.16371525000001,"isDrum":true},{"pitch":40,"velocity":105,"startTime":106.034405,"endTime":106.16371525000001,"isDrum":true},{"pitch":42,"velocity":105,"startTime":106.034405,"endTime":106.16371525000001,"isDrum":true},{"pitch":42,"velocity":105,"startTime":106.29302550000001,"endTime":106.42233575,"isDrum":true},{"pitch":35,"velocity":105,"startTime":106.551646,"endTime":106.68095625000001,"isDrum":true},{"pitch":42,"velocity":105,"startTime":106.551646,"endTime":106.68095625000001,"isDrum":true},{"pitch":42,"velocity":105,"startTime":106.81026650000001,"endTime":106.93957675,"isDrum":true},{"pitch":38,"velocity":105,"startTime":107.068887,"endTime":107.19819725,"isDrum":true},{"pitch":39,"velocity":105,"startTime":107.068887,"endTime":107.19819725,"isDrum":true},{"pitch":40,"velocity":105,"startTime":107.068887,"endTime":107.19819725,"isDrum":true},{"pitch":42,"velocity":105,"startTime":107.068887,"endTime":107.19819725,"isDrum":true},{"pitch":42,"velocity":105,"startTime":107.32750750000001,"endTime":107.45681775000001,"isDrum":true},{"pitch":35,"velocity":105,"startTime":107.586128,"endTime":107.71543825,"isDrum":true},{"pitch":42,"velocity":105,"startTime":107.586128,"endTime":107.71543825,"isDrum":true},{"pitch":42,"velocity":105,"startTime":107.84474850000001,"endTime":107.97405875000001,"isDrum":true},{"pitch":38,"velocity":105,"startTime":108.103369,"endTime":108.23267925,"isDrum":true},{"pitch":39,"velocity":105,"startTime":108.103369,"endTime":108.23267925,"isDrum":true},{"pitch":40,"velocity":105,"startTime":108.103369,"endTime":108.23267925,"isDrum":true},{"pitch":42,"velocity":105,"startTime":108.103369,"endTime":108.23267925,"isDrum":true},{"pitch":42,"velocity":105,"startTime":108.3619895,"endTime":108.49129975000001,"isDrum":true},{"pitch":35,"velocity":105,"startTime":108.62061,"endTime":108.74992025,"isDrum":true},{"pitch":42,"velocity":105,"startTime":108.62061,"endTime":108.74992025,"isDrum":true},{"pitch":42,"velocity":105,"startTime":108.8792305,"endTime":109.00854075000001,"isDrum":true},{"pitch":38,"velocity":105,"startTime":109.13785100000001,"endTime":109.26716125,"isDrum":true},{"pitch":39,"velocity":105,"startTime":109.13785100000001,"endTime":109.26716125,"isDrum":true},{"pitch":40,"velocity":105,"startTime":109.13785100000001,"endTime":109.26716125,"isDrum":true},{"pitch":42,"velocity":105,"startTime":109.13785100000001,"endTime":109.26716125,"isDrum":true},{"pitch":42,"velocity":105,"startTime":109.3964715,"endTime":109.52578175000001,"isDrum":true},{"pitch":35,"velocity":105,"startTime":109.65509200000001,"endTime":109.78440225,"isDrum":true},{"pitch":42,"velocity":105,"startTime":109.65509200000001,"endTime":109.78440225,"isDrum":true},{"pitch":42,"velocity":105,"startTime":109.9137125,"endTime":110.04302275,"isDrum":true},{"pitch":38,"velocity":105,"startTime":110.17233300000001,"endTime":110.30164325000001,"isDrum":true},{"pitch":39,"velocity":105,"startTime":110.17233300000001,"endTime":110.30164325000001,"isDrum":true},{"pitch":40,"velocity":105,"startTime":110.17233300000001,"endTime":110.30164325000001,"isDrum":true},{"pitch":42,"velocity":105,"startTime":110.17233300000001,"endTime":110.30164325000001,"isDrum":true},{"pitch":42,"velocity":105,"startTime":110.4309535,"endTime":110.56026375,"isDrum":true},{"pitch":35,"velocity":105,"startTime":110.68957400000001,"endTime":110.81888425000001,"isDrum":true},{"pitch":42,"velocity":105,"startTime":110.68957400000001,"endTime":110.81888425000001,"isDrum":true},{"pitch":42,"velocity":105,"startTime":110.9481945,"endTime":111.07750475,"isDrum":true},{"pitch":38,"velocity":105,"startTime":111.206815,"endTime":111.33612525000001,"isDrum":true},{"pitch":39,"velocity":105,"startTime":111.206815,"endTime":111.33612525000001,"isDrum":true},{"pitch":40,"velocity":105,"startTime":111.206815,"endTime":111.33612525000001,"isDrum":true},{"pitch":42,"velocity":105,"startTime":111.206815,"endTime":111.33612525000001,"isDrum":true},{"pitch":42,"velocity":105,"startTime":111.46543550000001,"endTime":111.59474575,"isDrum":true},{"pitch":35,"velocity":105,"startTime":111.724056,"endTime":111.85336625000001,"isDrum":true},{"pitch":42,"velocity":105,"startTime":111.724056,"endTime":111.85336625000001,"isDrum":true},{"pitch":42,"velocity":105,"startTime":111.98267650000001,"endTime":112.11198675,"isDrum":true},{"pitch":38,"velocity":105,"startTime":112.241297,"endTime":112.37060725,"isDrum":true},{"pitch":39,"velocity":105,"startTime":112.241297,"endTime":112.37060725,"isDrum":true},{"pitch":40,"velocity":105,"startTime":112.241297,"endTime":112.37060725,"isDrum":true},{"pitch":42,"velocity":105,"startTime":112.241297,"endTime":112.37060725,"isDrum":true},{"pitch":42,"velocity":105,"startTime":112.49991750000001,"endTime":112.62922775000001,"isDrum":true},{"pitch":35,"velocity":105,"startTime":112.758538,"endTime":112.88784825,"isDrum":true},{"pitch":42,"velocity":105,"startTime":112.758538,"endTime":112.88784825,"isDrum":true},{"pitch":42,"velocity":105,"startTime":113.01715850000001,"endTime":113.14646875000001,"isDrum":true},{"pitch":38,"velocity":105,"startTime":113.275779,"endTime":113.40508925,"isDrum":true},{"pitch":39,"velocity":105,"startTime":113.275779,"endTime":113.40508925,"isDrum":true},{"pitch":40,"velocity":105,"startTime":113.275779,"endTime":113.40508925,"isDrum":true},{"pitch":42,"velocity":105,"startTime":113.275779,"endTime":113.40508925,"isDrum":true},{"pitch":42,"velocity":105,"startTime":113.5343995,"endTime":113.66370975000001,"isDrum":true},{"pitch":35,"velocity":105,"startTime":113.79302000000001,"endTime":113.92233025,"isDrum":true},{"pitch":42,"velocity":105,"startTime":113.79302000000001,"endTime":113.92233025,"isDrum":true},{"pitch":42,"velocity":105,"startTime":114.0516405,"endTime":114.18095075000001,"isDrum":true},{"pitch":38,"velocity":105,"startTime":114.31026100000001,"endTime":114.43957125,"isDrum":true},{"pitch":39,"velocity":105,"startTime":114.31026100000001,"endTime":114.43957125,"isDrum":true},{"pitch":40,"velocity":105,"startTime":114.31026100000001,"endTime":114.43957125,"isDrum":true},{"pitch":42,"velocity":105,"startTime":114.31026100000001,"endTime":114.43957125,"isDrum":true},{"pitch":42,"velocity":105,"startTime":114.5688815,"endTime":114.69819175,"isDrum":true},{"pitch":35,"velocity":105,"startTime":114.82750200000001,"endTime":114.95681225000001,"isDrum":true},{"pitch":42,"velocity":105,"startTime":114.82750200000001,"endTime":114.95681225000001,"isDrum":true},{"pitch":42,"velocity":105,"startTime":115.0861225,"endTime":115.21543275,"isDrum":true},{"pitch":38,"velocity":105,"startTime":115.34474300000001,"endTime":115.47405325000001,"isDrum":true},{"pitch":39,"velocity":105,"startTime":115.34474300000001,"endTime":115.47405325000001,"isDrum":true},{"pitch":40,"velocity":105,"startTime":115.34474300000001,"endTime":115.47405325000001,"isDrum":true},{"pitch":42,"velocity":105,"startTime":115.34474300000001,"endTime":115.47405325000001,"isDrum":true},{"pitch":42,"velocity":105,"startTime":115.6033635,"endTime":115.73267375,"isDrum":true},{"pitch":60,"velocity":123,"startTime":99.5688925,"endTime":99.82751300000001,"instrument":1,"program":4},{"pitch":62,"velocity":123,"startTime":99.5688925,"endTime":99.82751300000001,"instrument":1,"program":4},{"pitch":66,"velocity":123,"startTime":99.5688925,"endTime":99.82751300000001,"instrument":1,"program":4},{"pitch":60,"velocity":123,"startTime":99.82751300000001,"endTime":100.0861335,"instrument":1,"program":4},{"pitch":62,"velocity":123,"startTime":99.82751300000001,"endTime":100.0861335,"instrument":1,"program":4},{"pitch":66,"velocity":123,"startTime":99.82751300000001,"endTime":100.0861335,"instrument":1,"program":4},{"pitch":60,"velocity":123,"startTime":100.6033745,"endTime":100.99130525000001,"instrument":1,"program":4},{"pitch":63,"velocity":123,"startTime":100.6033745,"endTime":100.99130525000001,"instrument":1,"program":4},{"pitch":66,"velocity":123,"startTime":100.6033745,"endTime":100.99130525000001,"instrument":1,"program":4},{"pitch":60,"velocity":123,"startTime":101.1206155,"endTime":101.379236,"instrument":1,"program":4},{"pitch":63,"velocity":123,"startTime":101.1206155,"endTime":101.379236,"instrument":1,"program":4},{"pitch":66,"velocity":123,"startTime":101.1206155,"endTime":101.379236,"instrument":1,"program":4},{"pitch":61,"velocity":123,"startTime":101.63785650000001,"endTime":101.896477,"instrument":1,"program":4},{"pitch":64,"velocity":123,"startTime":101.63785650000001,"endTime":101.896477,"instrument":1,"program":4},{"pitch":68,"velocity":123,"startTime":101.63785650000001,"endTime":101.896477,"instrument":1,"program":4},{"pitch":61,"velocity":123,"startTime":101.896477,"endTime":102.15509750000001,"instrument":1,"program":4},{"pitch":64,"velocity":123,"startTime":101.896477,"endTime":102.15509750000001,"instrument":1,"program":4},{"pitch":68,"velocity":123,"startTime":101.896477,"endTime":102.15509750000001,"instrument":1,"program":4},{"pitch":64,"velocity":123,"startTime":102.67233850000001,"endTime":102.80164875000001,"instrument":1,"program":4},{"pitch":67,"velocity":123,"startTime":102.67233850000001,"endTime":102.80164875000001,"instrument":1,"program":4},{"pitch":69,"velocity":123,"startTime":102.67233850000001,"endTime":102.80164875000001,"instrument":1,"program":4},{"pitch":60,"velocity":123,"startTime":103.7068205,"endTime":104.2240615,"instrument":1,"program":4},{"pitch":64,"velocity":123,"startTime":103.7068205,"endTime":104.2240615,"instrument":1,"program":4},{"pitch":67,"velocity":123,"startTime":103.7068205,"endTime":104.2240615,"instrument":1,"program":4},{"pitch":62,"velocity":123,"startTime":104.48268200000001,"endTime":104.7413025,"instrument":1,"program":4},{"pitch":67,"velocity":123,"startTime":104.48268200000001,"endTime":104.7413025,"instrument":1,"program":4},{"pitch":69,"velocity":123,"startTime":104.48268200000001,"endTime":104.7413025,"instrument":1,"program":4},{"pitch":62,"velocity":123,"startTime":105.7757845,"endTime":106.034405,"instrument":1,"program":4},{"pitch":66,"velocity":123,"startTime":105.7757845,"endTime":106.034405,"instrument":1,"program":4},{"pitch":69,"velocity":123,"startTime":105.7757845,"endTime":106.034405,"instrument":1,"program":4},{"pitch":62,"velocity":123,"startTime":106.29302550000001,"endTime":106.42233575,"instrument":1,"program":4},{"pitch":66,"velocity":123,"startTime":106.29302550000001,"endTime":106.42233575,"instrument":1,"program":4},{"pitch":69,"velocity":123,"startTime":106.29302550000001,"endTime":106.42233575,"instrument":1,"program":4},{"pitch":62,"velocity":123,"startTime":106.81026650000001,"endTime":106.93957675,"instrument":1,"program":4},{"pitch":66,"velocity":123,"startTime":106.81026650000001,"endTime":106.93957675,"instrument":1,"program":4},{"pitch":69,"velocity":123,"startTime":106.81026650000001,"endTime":106.93957675,"instrument":1,"program":4},{"pitch":62,"velocity":123,"startTime":107.32750750000001,"endTime":107.586128,"instrument":1,"program":4},{"pitch":66,"velocity":123,"startTime":107.32750750000001,"endTime":107.586128,"instrument":1,"program":4},{"pitch":69,"velocity":123,"startTime":107.32750750000001,"endTime":107.586128,"instrument":1,"program":4},{"pitch":62,"velocity":123,"startTime":107.84474850000001,"endTime":108.103369,"instrument":1,"program":4},{"pitch":64,"velocity":123,"startTime":107.84474850000001,"endTime":108.103369,"instrument":1,"program":4},{"pitch":67,"velocity":123,"startTime":107.84474850000001,"endTime":108.103369,"instrument":1,"program":4},{"pitch":71,"velocity":123,"startTime":107.84474850000001,"endTime":108.103369,"instrument":1,"program":4},{"pitch":59,"velocity":123,"startTime":108.3619895,"endTime":108.49129975000001,"instrument":1,"program":4},{"pitch":63,"velocity":123,"startTime":108.3619895,"endTime":108.49129975000001,"instrument":1,"program":4},{"pitch":67,"velocity":123,"startTime":108.3619895,"endTime":108.49129975000001,"instrument":1,"program":4},{"pitch":60,"velocity":123,"startTime":109.3964715,"endTime":109.65509200000001,"instrument":1,"program":4},{"pitch":63,"velocity":123,"startTime":109.3964715,"endTime":109.65509200000001,"instrument":1,"program":4},{"pitch":66,"velocity":123,"startTime":109.3964715,"endTime":109.65509200000001,"instrument":1,"program":4},{"pitch":68,"velocity":123,"startTime":109.3964715,"endTime":109.65509200000001,"instrument":1,"program":4},{"pitch":61,"velocity":123,"startTime":109.9137125,"endTime":110.17233300000001,"instrument":1,"program":4},{"pitch":64,"velocity":123,"startTime":109.9137125,"endTime":110.17233300000001,"instrument":1,"program":4},{"pitch":68,"velocity":123,"startTime":109.9137125,"endTime":110.17233300000001,"instrument":1,"program":4},{"pitch":71,"velocity":123,"startTime":109.9137125,"endTime":110.17233300000001,"instrument":1,"program":4},{"pitch":59,"velocity":123,"startTime":111.46543550000001,"endTime":111.724056,"instrument":1,"program":4},{"pitch":62,"velocity":123,"startTime":111.46543550000001,"endTime":111.724056,"instrument":1,"program":4},{"pitch":64,"velocity":123,"startTime":111.46543550000001,"endTime":111.724056,"instrument":1,"program":4},{"pitch":67,"velocity":123,"startTime":111.46543550000001,"endTime":111.724056,"instrument":1,"program":4},{"pitch":60,"velocity":123,"startTime":111.98267650000001,"endTime":112.241297,"instrument":1,"program":4},{"pitch":64,"velocity":123,"startTime":111.98267650000001,"endTime":112.241297,"instrument":1,"program":4},{"pitch":67,"velocity":123,"startTime":111.98267650000001,"endTime":112.241297,"instrument":1,"program":4},{"pitch":69,"velocity":123,"startTime":111.98267650000001,"endTime":112.241297,"instrument":1,"program":4},{"pitch":60,"velocity":123,"startTime":112.49991750000001,"endTime":112.758538,"instrument":1,"program":4},{"pitch":64,"velocity":123,"startTime":112.49991750000001,"endTime":112.758538,"instrument":1,"program":4},{"pitch":67,"velocity":123,"startTime":112.49991750000001,"endTime":112.758538,"instrument":1,"program":4},{"pitch":69,"velocity":123,"startTime":112.49991750000001,"endTime":112.758538,"instrument":1,"program":4},{"pitch":60,"velocity":123,"startTime":113.01715850000001,"endTime":113.275779,"instrument":1,"program":4},{"pitch":64,"velocity":123,"startTime":113.01715850000001,"endTime":113.275779,"instrument":1,"program":4},{"pitch":67,"velocity":123,"startTime":113.01715850000001,"endTime":113.275779,"instrument":1,"program":4},{"pitch":69,"velocity":123,"startTime":113.01715850000001,"endTime":113.275779,"instrument":1,"program":4},{"pitch":60,"velocity":123,"startTime":113.5343995,"endTime":113.79302000000001,"instrument":1,"program":4},{"pitch":64,"velocity":123,"startTime":113.5343995,"endTime":113.79302000000001,"instrument":1,"program":4},{"pitch":67,"velocity":123,"startTime":113.5343995,"endTime":113.79302000000001,"instrument":1,"program":4},{"pitch":69,"velocity":123,"startTime":113.5343995,"endTime":113.79302000000001,"instrument":1,"program":4},{"pitch":59,"velocity":123,"startTime":114.0516405,"endTime":114.39646783333335,"instrument":1,"program":4},{"pitch":62,"velocity":123,"startTime":114.0516405,"endTime":114.39646783333335,"instrument":1,"program":4},{"pitch":66,"velocity":123,"startTime":114.0516405,"endTime":114.39646783333335,"instrument":1,"program":4},{"pitch":69,"velocity":123,"startTime":114.0516405,"endTime":114.39646783333335,"instrument":1,"program":4},{"pitch":59,"velocity":123,"startTime":114.5688815,"endTime":114.82750200000001,"instrument":1,"program":4},{"pitch":62,"velocity":123,"startTime":114.5688815,"endTime":114.82750200000001,"instrument":1,"program":4},{"pitch":66,"velocity":123,"startTime":114.5688815,"endTime":114.82750200000001,"instrument":1,"program":4},{"pitch":69,"velocity":123,"startTime":114.5688815,"endTime":114.82750200000001,"instrument":1,"program":4},{"pitch":59,"velocity":123,"startTime":115.0861225,"endTime":115.6033635,"instrument":1,"program":4},{"pitch":62,"velocity":123,"startTime":115.0861225,"endTime":115.6033635,"instrument":1,"program":4},{"pitch":66,"velocity":123,"startTime":115.0861225,"endTime":115.6033635,"instrument":1,"program":4},{"pitch":69,"velocity":123,"startTime":115.0861225,"endTime":115.6033635,"instrument":1,"program":4},{"pitch":55,"velocity":123,"startTime":99.5688925,"endTime":99.61199591666667,"instrument":2,"program":27},{"pitch":55,"velocity":123,"startTime":99.82751300000001,"endTime":99.95682325,"instrument":2,"program":27},{"pitch":55,"velocity":123,"startTime":100.0861335,"endTime":100.17234033333334,"instrument":2,"program":27},{"pitch":54,"velocity":123,"startTime":100.99130525000001,"endTime":101.1206155,"instrument":2,"program":27},{"pitch":56,"velocity":123,"startTime":101.1206155,"endTime":101.24992575,"instrument":2,"program":27},{"pitch":60,"velocity":123,"startTime":101.379236,"endTime":101.50854625000001,"instrument":2,"program":27},{"pitch":64,"velocity":123,"startTime":101.379236,"endTime":101.50854625000001,"instrument":2,"program":27},{"pitch":68,"velocity":123,"startTime":101.379236,"endTime":101.50854625000001,"instrument":2,"program":27},{"pitch":60,"velocity":123,"startTime":101.76716675,"endTime":101.85337358333334,"instrument":2,"program":27},{"pitch":64,"velocity":123,"startTime":101.76716675,"endTime":101.85337358333334,"instrument":2,"program":27},{"pitch":68,"velocity":123,"startTime":101.76716675,"endTime":101.85337358333334,"instrument":2,"program":27},{"pitch":57,"velocity":123,"startTime":102.54302825,"endTime":102.67233850000001,"instrument":2,"program":27},{"pitch":57,"velocity":123,"startTime":102.67233850000001,"endTime":102.75854533333334,"instrument":2,"program":27},{"pitch":57,"velocity":123,"startTime":102.930959,"endTime":103.06026925,"instrument":2,"program":27},{"pitch":57,"velocity":123,"startTime":103.18957950000001,"endTime":103.4482,"instrument":2,"program":27},{"pitch":60,"velocity":123,"startTime":103.4482,"endTime":103.83613075000001,"instrument":2,"program":27},{"pitch":64,"velocity":123,"startTime":103.4482,"endTime":103.83613075000001,"instrument":2,"program":27},{"pitch":69,"velocity":123,"startTime":103.4482,"endTime":103.83613075000001,"instrument":2,"program":27},{"pitch":60,"velocity":123,"startTime":103.96544100000001,"endTime":104.09475125,"instrument":2,"program":27},{"pitch":60,"velocity":123,"startTime":104.2240615,"endTime":104.35337175000001,"instrument":2,"program":27},{"pitch":60,"velocity":123,"startTime":104.7413025,"endTime":104.78440591666667,"instrument":2,"program":27},{"pitch":60,"velocity":123,"startTime":104.87061275,"endTime":104.99992300000001,"instrument":2,"program":27},{"pitch":69,"velocity":123,"startTime":104.99992300000001,"endTime":105.12923325000001,"instrument":2,"program":27},{"pitch":69,"velocity":123,"startTime":105.2585435,"endTime":105.38785375,"instrument":2,"program":27},{"pitch":62,"velocity":123,"startTime":105.51716400000001,"endTime":105.64647425000001,"instrument":2,"program":27},{"pitch":62,"velocity":123,"startTime":105.90509475,"endTime":105.99130158333334,"instrument":2,"program":27},{"pitch":62,"velocity":123,"startTime":106.034405,"endTime":106.16371525000001,"instrument":2,"program":27},{"pitch":62,"velocity":123,"startTime":106.29302550000001,"endTime":106.42233575,"instrument":2,"program":27},{"pitch":62,"velocity":123,"startTime":106.81026650000001,"endTime":106.93957675,"instrument":2,"program":27},{"pitch":59,"velocity":123,"startTime":107.068887,"endTime":107.19819725,"instrument":2,"program":27},{"pitch":59,"velocity":123,"startTime":107.32750750000001,"endTime":107.45681775000001,"instrument":2,"program":27},{"pitch":62,"velocity":123,"startTime":107.586128,"endTime":107.71543825,"instrument":2,"program":27},{"pitch":67,"velocity":123,"startTime":107.586128,"endTime":107.71543825,"instrument":2,"program":27},{"pitch":62,"velocity":123,"startTime":107.84474850000001,"endTime":107.97405875000001,"instrument":2,"program":27},{"pitch":67,"velocity":123,"startTime":107.84474850000001,"endTime":107.97405875000001,"instrument":2,"program":27},{"pitch":62,"velocity":123,"startTime":108.103369,"endTime":108.23267925,"instrument":2,"program":27},{"pitch":67,"velocity":123,"startTime":108.103369,"endTime":108.23267925,"instrument":2,"program":27},{"pitch":60,"velocity":123,"startTime":109.13785100000001,"endTime":109.43957491666667,"instrument":2,"program":27},{"pitch":63,"velocity":123,"startTime":109.13785100000001,"endTime":109.43957491666667,"instrument":2,"program":27},{"pitch":60,"velocity":123,"startTime":109.52578175000001,"endTime":109.56888516666667,"instrument":2,"program":27},{"pitch":63,"velocity":123,"startTime":109.52578175000001,"endTime":109.56888516666667,"instrument":2,"program":27},{"pitch":61,"velocity":123,"startTime":109.65509200000001,"endTime":110.04302275,"instrument":2,"program":27},{"pitch":64,"velocity":123,"startTime":109.65509200000001,"endTime":110.04302275,"instrument":2,"program":27},{"pitch":61,"velocity":123,"startTime":110.17233300000001,"endTime":110.51716033333334,"instrument":2,"program":27},{"pitch":64,"velocity":123,"startTime":110.17233300000001,"endTime":110.51716033333334,"instrument":2,"program":27},{"pitch":61,"velocity":123,"startTime":110.56026375,"endTime":110.68957400000001,"instrument":2,"program":27},{"pitch":64,"velocity":123,"startTime":110.56026375,"endTime":110.68957400000001,"instrument":2,"program":27},{"pitch":57,"velocity":123,"startTime":110.68957400000001,"endTime":111.07750475,"instrument":2,"program":27},{"pitch":64,"velocity":123,"startTime":110.68957400000001,"endTime":111.07750475,"instrument":2,"program":27},{"pitch":57,"velocity":123,"startTime":111.206815,"endTime":111.59474575,"instrument":2,"program":27},{"pitch":64,"velocity":123,"startTime":111.206815,"endTime":111.59474575,"instrument":2,"program":27},{"pitch":48,"velocity":123,"startTime":111.724056,"endTime":111.85336625000001,"instrument":2,"program":27},{"pitch":48,"velocity":123,"startTime":111.98267650000001,"endTime":112.11198675,"instrument":2,"program":27},{"pitch":52,"velocity":123,"startTime":112.241297,"endTime":112.32750383333334,"instrument":2,"program":27},{"pitch":55,"velocity":123,"startTime":112.49991750000001,"endTime":112.54302091666668,"instrument":2,"program":27},{"pitch":55,"velocity":123,"startTime":113.01715850000001,"endTime":113.10336533333334,"instrument":2,"program":27},{"pitch":55,"velocity":123,"startTime":113.275779,"endTime":113.40508925,"instrument":2,"program":27},{"pitch":55,"velocity":123,"startTime":113.5343995,"endTime":113.62060633333334,"instrument":2,"program":27},{"pitch":57,"velocity":123,"startTime":114.0516405,"endTime":114.13784733333334,"instrument":2,"program":27},{"pitch":59,"velocity":123,"startTime":114.31026100000001,"endTime":114.43957125,"instrument":2,"program":27},{"pitch":57,"velocity":123,"startTime":114.5688815,"endTime":114.69819175,"instrument":2,"program":27},{"pitch":57,"velocity":123,"startTime":115.0861225,"endTime":115.17232933333334,"instrument":2,"program":27},{"pitch":59,"velocity":123,"startTime":115.34474300000001,"endTime":115.47405325000001,"instrument":2,"program":27},{"pitch":60,"velocity":123,"startTime":115.47405325000001,"endTime":115.6033635,"instrument":2,"program":27},{"pitch":57,"velocity":123,"startTime":115.64646691666667,"endTime":115.861984,"instrument":2,"program":27},{"pitch":33,"velocity":117,"startTime":99.31027200000001,"endTime":99.5688925,"instrument":4,"program":35},{"pitch":35,"velocity":117,"startTime":99.5688925,"endTime":99.69820275000001,"instrument":4,"program":35},{"pitch":37,"velocity":117,"startTime":101.379236,"endTime":101.63785650000001,"instrument":4,"program":35},{"pitch":37,"velocity":117,"startTime":101.63785650000001,"endTime":101.76716675,"instrument":4,"program":35},{"pitch":37,"velocity":117,"startTime":102.28440775,"endTime":102.413718,"instrument":4,"program":35},{"pitch":33,"velocity":117,"startTime":102.413718,"endTime":102.54302825,"instrument":4,"program":35},{"pitch":33,"velocity":117,"startTime":102.54302825,"endTime":102.67233850000001,"instrument":4,"program":35},{"pitch":33,"velocity":117,"startTime":102.67233850000001,"endTime":102.84475216666667,"instrument":4,"program":35},{"pitch":36,"velocity":117,"startTime":103.4482,"endTime":103.7068205,"instrument":4,"program":35},{"pitch":36,"velocity":117,"startTime":103.7068205,"endTime":103.87923416666668,"instrument":4,"program":35},{"pitch":35,"velocity":117,"startTime":105.51716400000001,"endTime":105.64647425000001,"instrument":4,"program":35},{"pitch":47,"velocity":117,"startTime":105.64647425000001,"endTime":105.7757845,"instrument":4,"program":35},{"pitch":35,"velocity":117,"startTime":105.7757845,"endTime":105.90509475,"instrument":4,"program":35},{"pitch":28,"velocity":117,"startTime":107.586128,"endTime":107.71543825,"instrument":4,"program":35},{"pitch":33,"velocity":117,"startTime":107.84474850000001,"endTime":108.01716216666668,"instrument":4,"program":35},{"pitch":28,"velocity":117,"startTime":107.97405875000001,"endTime":108.103369,"instrument":4,"program":35},{"pitch":40,"velocity":117,"startTime":108.103369,"endTime":108.23267925,"instrument":4,"program":35},{"pitch":37,"velocity":117,"startTime":109.65509200000001,"endTime":109.78440225,"instrument":4,"program":35},{"pitch":37,"velocity":117,"startTime":109.78440225,"endTime":109.9137125,"instrument":4,"program":35},{"pitch":37,"velocity":117,"startTime":109.9137125,"endTime":110.04302275,"instrument":4,"program":35},{"pitch":36,"velocity":117,"startTime":111.724056,"endTime":111.98267650000001,"instrument":4,"program":35},{"pitch":36,"velocity":117,"startTime":111.98267650000001,"endTime":112.11198675,"instrument":4,"program":35},{"pitch":35,"velocity":117,"startTime":113.79302000000001,"endTime":114.0516405,"instrument":4,"program":35},{"pitch":36,"velocity":117,"startTime":114.0516405,"endTime":114.18095075000001,"instrument":4,"program":35},{"pitch":38,"velocity":118,"startTime":100.0861335,"endTime":100.34475400000001,"instrument":5,"program":87},{"pitch":32,"velocity":118,"startTime":100.34475400000001,"endTime":100.6033745,"instrument":5,"program":87},{"pitch":37,"velocity":118,"startTime":101.379236,"endTime":101.63785650000001,"instrument":5,"program":87},{"pitch":36,"velocity":118,"startTime":103.4482,"endTime":103.7068205,"instrument":5,"program":87},{"pitch":35,"velocity":118,"startTime":105.7757845,"endTime":106.034405,"instrument":5,"program":87},{"pitch":36,"velocity":118,"startTime":106.034405,"endTime":106.29302550000001,"instrument":5,"program":87},{"pitch":36,"velocity":118,"startTime":106.29302550000001,"endTime":106.551646,"instrument":5,"program":87},{"pitch":36,"velocity":118,"startTime":112.49991750000001,"endTime":112.758538,"instrument":5,"program":87},{"pitch":38,"velocity":118,"startTime":112.758538,"endTime":113.01715850000001,"instrument":5,"program":87},{"pitch":35,"velocity":118,"startTime":113.79302000000001,"endTime":114.0516405,"instrument":5,"program":87},{"pitch":36,"velocity":105,"startTime":115.861984,"endTime":115.94819083333334,"isDrum":true},{"pitch":42,"velocity":105,"startTime":115.861984,"endTime":115.94819083333334,"isDrum":true},{"pitch":42,"velocity":105,"startTime":116.12060450000001,"endTime":116.20681133333333,"isDrum":true},{"pitch":36,"velocity":105,"startTime":116.379225,"endTime":116.46543183333334,"isDrum":true},{"pitch":39,"velocity":105,"startTime":116.379225,"endTime":116.46543183333334,"isDrum":true},{"pitch":40,"velocity":105,"startTime":116.379225,"endTime":116.46543183333334,"isDrum":true},{"pitch":42,"velocity":105,"startTime":116.379225,"endTime":116.46543183333334,"isDrum":true},{"pitch":42,"velocity":105,"startTime":116.63784550000001,"endTime":116.72405233333335,"isDrum":true},{"pitch":36,"velocity":105,"startTime":116.896466,"endTime":116.98267283333334,"isDrum":true},{"pitch":42,"velocity":105,"startTime":116.896466,"endTime":116.98267283333334,"isDrum":true},{"pitch":42,"velocity":105,"startTime":117.15508650000001,"endTime":117.24129333333335,"isDrum":true},{"pitch":36,"velocity":105,"startTime":117.413707,"endTime":117.49991383333334,"isDrum":true},{"pitch":39,"velocity":105,"startTime":117.413707,"endTime":117.49991383333334,"isDrum":true},{"pitch":40,"velocity":105,"startTime":117.413707,"endTime":117.49991383333334,"isDrum":true},{"pitch":42,"velocity":105,"startTime":117.413707,"endTime":117.49991383333334,"isDrum":true},{"pitch":42,"velocity":105,"startTime":117.67232750000001,"endTime":117.75853433333334,"isDrum":true},{"pitch":36,"velocity":105,"startTime":117.930948,"endTime":118.01715483333334,"isDrum":true},{"pitch":42,"velocity":105,"startTime":117.930948,"endTime":118.01715483333334,"isDrum":true},{"pitch":42,"velocity":105,"startTime":118.18956850000001,"endTime":118.27577533333334,"isDrum":true},{"pitch":36,"velocity":105,"startTime":118.44818900000001,"endTime":118.53439583333333,"isDrum":true},{"pitch":39,"velocity":105,"startTime":118.44818900000001,"endTime":118.53439583333333,"isDrum":true},{"pitch":40,"velocity":105,"startTime":118.44818900000001,"endTime":118.53439583333333,"isDrum":true},{"pitch":42,"velocity":105,"startTime":118.44818900000001,"endTime":118.53439583333333,"isDrum":true},{"pitch":42,"velocity":105,"startTime":118.7068095,"endTime":118.79301633333334,"isDrum":true},{"pitch":36,"velocity":105,"startTime":118.96543000000001,"endTime":119.05163683333333,"isDrum":true},{"pitch":42,"velocity":105,"startTime":118.96543000000001,"endTime":119.05163683333333,"isDrum":true},{"pitch":42,"velocity":105,"startTime":119.2240505,"endTime":119.31025733333334,"isDrum":true},{"pitch":36,"velocity":105,"startTime":119.48267100000001,"endTime":119.56887783333335,"isDrum":true},{"pitch":39,"velocity":105,"startTime":119.48267100000001,"endTime":119.56887783333335,"isDrum":true},{"pitch":40,"velocity":105,"startTime":119.48267100000001,"endTime":119.56887783333335,"isDrum":true},{"pitch":42,"velocity":105,"startTime":119.48267100000001,"endTime":119.56887783333335,"isDrum":true},{"pitch":42,"velocity":105,"startTime":119.7412915,"endTime":119.82749833333334,"isDrum":true},{"pitch":36,"velocity":105,"startTime":119.99991200000001,"endTime":120.08611883333334,"isDrum":true},{"pitch":42,"velocity":105,"startTime":119.99991200000001,"endTime":120.08611883333334,"isDrum":true},{"pitch":42,"velocity":105,"startTime":120.2585325,"endTime":120.34473933333334,"isDrum":true},{"pitch":36,"velocity":105,"startTime":120.51715300000001,"endTime":120.60335983333334,"isDrum":true},{"pitch":39,"velocity":105,"startTime":120.51715300000001,"endTime":120.60335983333334,"isDrum":true},{"pitch":40,"velocity":105,"startTime":120.51715300000001,"endTime":120.60335983333334,"isDrum":true},{"pitch":42,"velocity":105,"startTime":120.51715300000001,"endTime":120.60335983333334,"isDrum":true},{"pitch":42,"velocity":105,"startTime":120.77577350000001,"endTime":120.86198033333334,"isDrum":true},{"pitch":36,"velocity":105,"startTime":121.034394,"endTime":121.12060083333334,"isDrum":true},{"pitch":42,"velocity":105,"startTime":121.034394,"endTime":121.12060083333334,"isDrum":true},{"pitch":42,"velocity":105,"startTime":121.29301450000001,"endTime":121.37922133333333,"isDrum":true},{"pitch":36,"velocity":105,"startTime":121.551635,"endTime":121.63784183333334,"isDrum":true},{"pitch":39,"velocity":105,"startTime":121.551635,"endTime":121.63784183333334,"isDrum":true},{"pitch":40,"velocity":105,"startTime":121.551635,"endTime":121.63784183333334,"isDrum":true},{"pitch":42,"velocity":105,"startTime":121.551635,"endTime":121.63784183333334,"isDrum":true},{"pitch":42,"velocity":105,"startTime":121.81025550000001,"endTime":121.89646233333335,"isDrum":true},{"pitch":36,"velocity":105,"startTime":122.068876,"endTime":122.15508283333334,"isDrum":true},{"pitch":42,"velocity":105,"startTime":122.068876,"endTime":122.15508283333334,"isDrum":true},{"pitch":42,"velocity":105,"startTime":122.32749650000001,"endTime":122.41370333333334,"isDrum":true},{"pitch":36,"velocity":105,"startTime":122.586117,"endTime":122.67232383333334,"isDrum":true},{"pitch":39,"velocity":105,"startTime":122.586117,"endTime":122.67232383333334,"isDrum":true},{"pitch":40,"velocity":105,"startTime":122.586117,"endTime":122.67232383333334,"isDrum":true},{"pitch":42,"velocity":105,"startTime":122.586117,"endTime":122.67232383333334,"isDrum":true},{"pitch":42,"velocity":105,"startTime":122.84473750000001,"endTime":122.93094433333334,"isDrum":true},{"pitch":36,"velocity":105,"startTime":123.103358,"endTime":123.18956483333334,"isDrum":true},{"pitch":42,"velocity":105,"startTime":123.103358,"endTime":123.18956483333334,"isDrum":true},{"pitch":42,"velocity":105,"startTime":123.3619785,"endTime":123.44818533333334,"isDrum":true},{"pitch":36,"velocity":105,"startTime":123.62059900000001,"endTime":123.70680583333333,"isDrum":true},{"pitch":39,"velocity":105,"startTime":123.62059900000001,"endTime":123.70680583333333,"isDrum":true},{"pitch":40,"velocity":105,"startTime":123.62059900000001,"endTime":123.70680583333333,"isDrum":true},{"pitch":42,"velocity":105,"startTime":123.62059900000001,"endTime":123.70680583333333,"isDrum":true},{"pitch":42,"velocity":105,"startTime":123.8792195,"endTime":123.96542633333334,"isDrum":true},{"pitch":36,"velocity":105,"startTime":124.13784000000001,"endTime":124.22404683333335,"isDrum":true},{"pitch":42,"velocity":105,"startTime":124.13784000000001,"endTime":124.22404683333335,"isDrum":true},{"pitch":42,"velocity":105,"startTime":124.3964605,"endTime":124.48266733333334,"isDrum":true},{"pitch":36,"velocity":105,"startTime":124.65508100000001,"endTime":124.74128783333335,"isDrum":true},{"pitch":39,"velocity":105,"startTime":124.65508100000001,"endTime":124.74128783333335,"isDrum":true},{"pitch":40,"velocity":105,"startTime":124.65508100000001,"endTime":124.74128783333335,"isDrum":true},{"pitch":42,"velocity":105,"startTime":124.65508100000001,"endTime":124.74128783333335,"isDrum":true},{"pitch":42,"velocity":105,"startTime":124.9137015,"endTime":124.99990833333334,"isDrum":true},{"pitch":36,"velocity":105,"startTime":125.17232200000001,"endTime":125.25852883333334,"isDrum":true},{"pitch":42,"velocity":105,"startTime":125.17232200000001,"endTime":125.25852883333334,"isDrum":true},{"pitch":42,"velocity":105,"startTime":125.4309425,"endTime":125.51714933333334,"isDrum":true},{"pitch":36,"velocity":105,"startTime":125.689563,"endTime":125.77576983333334,"isDrum":true},{"pitch":39,"velocity":105,"startTime":125.689563,"endTime":125.77576983333334,"isDrum":true},{"pitch":40,"velocity":105,"startTime":125.689563,"endTime":125.77576983333334,"isDrum":true},{"pitch":42,"velocity":105,"startTime":125.689563,"endTime":125.77576983333334,"isDrum":true},{"pitch":42,"velocity":105,"startTime":125.94818350000001,"endTime":126.03439033333333,"isDrum":true},{"pitch":36,"velocity":105,"startTime":126.206804,"endTime":126.29301083333334,"isDrum":true},{"pitch":42,"velocity":105,"startTime":126.206804,"endTime":126.29301083333334,"isDrum":true},{"pitch":42,"velocity":105,"startTime":126.46542450000001,"endTime":126.55163133333335,"isDrum":true},{"pitch":36,"velocity":105,"startTime":126.724045,"endTime":126.81025183333334,"isDrum":true},{"pitch":39,"velocity":105,"startTime":126.724045,"endTime":126.81025183333334,"isDrum":true},{"pitch":40,"velocity":105,"startTime":126.724045,"endTime":126.81025183333334,"isDrum":true},{"pitch":42,"velocity":105,"startTime":126.724045,"endTime":126.81025183333334,"isDrum":true},{"pitch":42,"velocity":105,"startTime":126.98266550000001,"endTime":127.06887233333335,"isDrum":true},{"pitch":36,"velocity":105,"startTime":127.241286,"endTime":127.32749283333334,"isDrum":true},{"pitch":42,"velocity":105,"startTime":127.241286,"endTime":127.32749283333334,"isDrum":true},{"pitch":42,"velocity":105,"startTime":127.49990650000001,"endTime":127.58611333333334,"isDrum":true},{"pitch":36,"velocity":105,"startTime":127.758527,"endTime":127.84473383333334,"isDrum":true},{"pitch":39,"velocity":105,"startTime":127.758527,"endTime":127.84473383333334,"isDrum":true},{"pitch":40,"velocity":105,"startTime":127.758527,"endTime":127.84473383333334,"isDrum":true},{"pitch":42,"velocity":105,"startTime":127.758527,"endTime":127.84473383333334,"isDrum":true},{"pitch":42,"velocity":105,"startTime":128.01714750000002,"endTime":128.10335433333333,"isDrum":true},{"pitch":36,"velocity":105,"startTime":128.275768,"endTime":128.36197483333333,"isDrum":true},{"pitch":42,"velocity":105,"startTime":128.275768,"endTime":128.36197483333333,"isDrum":true},{"pitch":42,"velocity":105,"startTime":128.5343885,"endTime":128.62059533333334,"isDrum":true},{"pitch":36,"velocity":105,"startTime":128.793009,"endTime":128.87921583333335,"isDrum":true},{"pitch":39,"velocity":105,"startTime":128.793009,"endTime":128.87921583333335,"isDrum":true},{"pitch":40,"velocity":105,"startTime":128.793009,"endTime":128.87921583333335,"isDrum":true},{"pitch":42,"velocity":105,"startTime":128.793009,"endTime":128.87921583333335,"isDrum":true},{"pitch":42,"velocity":105,"startTime":129.05162950000002,"endTime":129.13783633333335,"isDrum":true},{"pitch":36,"velocity":105,"startTime":129.31025,"endTime":129.39645683333333,"isDrum":true},{"pitch":42,"velocity":105,"startTime":129.31025,"endTime":129.39645683333333,"isDrum":true},{"pitch":42,"velocity":105,"startTime":129.5688705,"endTime":129.65507733333334,"isDrum":true},{"pitch":36,"velocity":105,"startTime":129.827491,"endTime":129.91369783333334,"isDrum":true},{"pitch":39,"velocity":105,"startTime":129.827491,"endTime":129.91369783333334,"isDrum":true},{"pitch":40,"velocity":105,"startTime":129.827491,"endTime":129.91369783333334,"isDrum":true},{"pitch":42,"velocity":105,"startTime":129.827491,"endTime":129.91369783333334,"isDrum":true},{"pitch":42,"velocity":105,"startTime":130.08611150000002,"endTime":130.17231833333335,"isDrum":true},{"pitch":36,"velocity":105,"startTime":130.344732,"endTime":130.43093883333333,"isDrum":true},{"pitch":42,"velocity":105,"startTime":130.344732,"endTime":130.43093883333333,"isDrum":true},{"pitch":42,"velocity":105,"startTime":130.6033525,"endTime":130.68955933333334,"isDrum":true},{"pitch":36,"velocity":105,"startTime":130.861973,"endTime":130.94817983333334,"isDrum":true},{"pitch":39,"velocity":105,"startTime":130.861973,"endTime":130.94817983333334,"isDrum":true},{"pitch":40,"velocity":105,"startTime":130.861973,"endTime":130.94817983333334,"isDrum":true},{"pitch":42,"velocity":105,"startTime":130.861973,"endTime":130.94817983333334,"isDrum":true},{"pitch":42,"velocity":105,"startTime":131.1205935,"endTime":131.20680033333335,"isDrum":true},{"pitch":36,"velocity":105,"startTime":131.37921400000002,"endTime":131.46542083333335,"isDrum":true},{"pitch":42,"velocity":105,"startTime":131.37921400000002,"endTime":131.46542083333335,"isDrum":true},{"pitch":46,"velocity":105,"startTime":131.6378345,"endTime":131.72404133333333,"isDrum":true},{"pitch":39,"velocity":105,"startTime":131.896455,"endTime":131.98266183333334,"isDrum":true},{"pitch":40,"velocity":105,"startTime":131.896455,"endTime":131.98266183333334,"isDrum":true},{"pitch":42,"velocity":105,"startTime":131.896455,"endTime":131.98266183333334,"isDrum":true},{"pitch":42,"velocity":105,"startTime":132.1550755,"endTime":132.24128233333334,"isDrum":true},{"pitch":62,"velocity":123,"startTime":116.12060450000001,"endTime":116.379225,"instrument":1,"program":4},{"pitch":66,"velocity":123,"startTime":116.12060450000001,"endTime":116.379225,"instrument":1,"program":4},{"pitch":69,"velocity":123,"startTime":116.12060450000001,"endTime":116.379225,"instrument":1,"program":4},{"pitch":62,"velocity":123,"startTime":116.379225,"endTime":116.63784550000001,"instrument":1,"program":4},{"pitch":64,"velocity":123,"startTime":116.379225,"endTime":116.63784550000001,"instrument":1,"program":4},{"pitch":66,"velocity":123,"startTime":116.379225,"endTime":116.63784550000001,"instrument":1,"program":4},{"pitch":62,"velocity":123,"startTime":116.63784550000001,"endTime":116.896466,"instrument":1,"program":4},{"pitch":64,"velocity":123,"startTime":116.63784550000001,"endTime":116.896466,"instrument":1,"program":4},{"pitch":66,"velocity":123,"startTime":116.63784550000001,"endTime":116.896466,"instrument":1,"program":4},{"pitch":60,"velocity":123,"startTime":117.15508650000001,"endTime":117.413707,"instrument":1,"program":4},{"pitch":64,"velocity":123,"startTime":117.15508650000001,"endTime":117.413707,"instrument":1,"program":4},{"pitch":67,"velocity":123,"startTime":117.15508650000001,"endTime":117.413707,"instrument":1,"program":4},{"pitch":60,"velocity":123,"startTime":117.413707,"endTime":117.67232750000001,"instrument":1,"program":4},{"pitch":64,"velocity":123,"startTime":117.413707,"endTime":117.67232750000001,"instrument":1,"program":4},{"pitch":67,"velocity":123,"startTime":117.413707,"endTime":117.67232750000001,"instrument":1,"program":4},{"pitch":60,"velocity":123,"startTime":117.67232750000001,"endTime":117.80163775000001,"instrument":1,"program":4},{"pitch":64,"velocity":123,"startTime":117.67232750000001,"endTime":117.80163775000001,"instrument":1,"program":4},{"pitch":67,"velocity":123,"startTime":117.67232750000001,"endTime":117.80163775000001,"instrument":1,"program":4},{"pitch":60,"velocity":123,"startTime":118.18956850000001,"endTime":118.44818900000001,"instrument":1,"program":4},{"pitch":64,"velocity":123,"startTime":118.18956850000001,"endTime":118.44818900000001,"instrument":1,"program":4},{"pitch":67,"velocity":123,"startTime":118.18956850000001,"endTime":118.44818900000001,"instrument":1,"program":4},{"pitch":60,"velocity":123,"startTime":118.44818900000001,"endTime":118.57749925,"instrument":1,"program":4},{"pitch":64,"velocity":123,"startTime":118.44818900000001,"endTime":118.57749925,"instrument":1,"program":4},{"pitch":67,"velocity":123,"startTime":118.44818900000001,"endTime":118.57749925,"instrument":1,"program":4},{"pitch":60,"velocity":123,"startTime":118.7068095,"endTime":118.83611975000001,"instrument":1,"program":4},{"pitch":64,"velocity":123,"startTime":118.7068095,"endTime":118.83611975000001,"instrument":1,"program":4},{"pitch":67,"velocity":123,"startTime":118.7068095,"endTime":118.83611975000001,"instrument":1,"program":4},{"pitch":60,"velocity":123,"startTime":119.2240505,"endTime":119.35336075000001,"instrument":1,"program":4},{"pitch":64,"velocity":123,"startTime":119.2240505,"endTime":119.35336075000001,"instrument":1,"program":4},{"pitch":67,"velocity":123,"startTime":119.2240505,"endTime":119.35336075000001,"instrument":1,"program":4},{"pitch":60,"velocity":123,"startTime":119.99991200000001,"endTime":120.2585325,"instrument":1,"program":4},{"pitch":64,"velocity":123,"startTime":119.99991200000001,"endTime":120.2585325,"instrument":1,"program":4},{"pitch":67,"velocity":123,"startTime":119.99991200000001,"endTime":120.2585325,"instrument":1,"program":4},{"pitch":60,"velocity":123,"startTime":120.2585325,"endTime":120.38784275,"instrument":1,"program":4},{"pitch":64,"velocity":123,"startTime":120.2585325,"endTime":120.38784275,"instrument":1,"program":4},{"pitch":67,"velocity":123,"startTime":120.2585325,"endTime":120.38784275,"instrument":1,"program":4},{"pitch":60,"velocity":123,"startTime":120.77577350000001,"endTime":120.90508375,"instrument":1,"program":4},{"pitch":64,"velocity":123,"startTime":120.77577350000001,"endTime":120.90508375,"instrument":1,"program":4},{"pitch":67,"velocity":123,"startTime":120.77577350000001,"endTime":120.90508375,"instrument":1,"program":4},{"pitch":60,"velocity":123,"startTime":121.551635,"endTime":121.68094525000001,"instrument":1,"program":4},{"pitch":62,"velocity":123,"startTime":121.551635,"endTime":121.68094525000001,"instrument":1,"program":4},{"pitch":67,"velocity":123,"startTime":121.551635,"endTime":121.68094525000001,"instrument":1,"program":4},{"pitch":60,"velocity":123,"startTime":122.068876,"endTime":122.32749650000001,"instrument":1,"program":4},{"pitch":64,"velocity":123,"startTime":122.068876,"endTime":122.32749650000001,"instrument":1,"program":4},{"pitch":67,"velocity":123,"startTime":122.068876,"endTime":122.32749650000001,"instrument":1,"program":4},{"pitch":60,"velocity":123,"startTime":122.32749650000001,"endTime":122.45680675000001,"instrument":1,"program":4},{"pitch":64,"velocity":123,"startTime":122.32749650000001,"endTime":122.45680675000001,"instrument":1,"program":4},{"pitch":67,"velocity":123,"startTime":122.32749650000001,"endTime":122.45680675000001,"instrument":1,"program":4},{"pitch":60,"velocity":123,"startTime":122.84473750000001,"endTime":122.97404775000001,"instrument":1,"program":4},{"pitch":64,"velocity":123,"startTime":122.84473750000001,"endTime":122.97404775000001,"instrument":1,"program":4},{"pitch":67,"velocity":123,"startTime":122.84473750000001,"endTime":122.97404775000001,"instrument":1,"program":4},{"pitch":60,"velocity":123,"startTime":123.62059900000001,"endTime":123.74990925,"instrument":1,"program":4},{"pitch":64,"velocity":123,"startTime":123.62059900000001,"endTime":123.74990925,"instrument":1,"program":4},{"pitch":67,"velocity":123,"startTime":123.62059900000001,"endTime":123.74990925,"instrument":1,"program":4},{"pitch":60,"velocity":123,"startTime":123.8792195,"endTime":124.00852975000001,"instrument":1,"program":4},{"pitch":64,"velocity":123,"startTime":123.8792195,"endTime":124.00852975000001,"instrument":1,"program":4},{"pitch":67,"velocity":123,"startTime":123.8792195,"endTime":124.00852975000001,"instrument":1,"program":4},{"pitch":57,"velocity":123,"startTime":124.65508100000001,"endTime":124.78439125000001,"instrument":1,"program":4},{"pitch":60,"velocity":123,"startTime":124.65508100000001,"endTime":124.78439125000001,"instrument":1,"program":4},{"pitch":64,"velocity":123,"startTime":124.65508100000001,"endTime":124.78439125000001,"instrument":1,"program":4},{"pitch":57,"velocity":123,"startTime":125.17232200000001,"endTime":125.4309425,"instrument":1,"program":4},{"pitch":60,"velocity":123,"startTime":125.17232200000001,"endTime":125.4309425,"instrument":1,"program":4},{"pitch":64,"velocity":123,"startTime":125.17232200000001,"endTime":125.4309425,"instrument":1,"program":4},{"pitch":57,"velocity":123,"startTime":125.4309425,"endTime":125.56025275,"instrument":1,"program":4},{"pitch":60,"velocity":123,"startTime":125.4309425,"endTime":125.56025275,"instrument":1,"program":4},{"pitch":64,"velocity":123,"startTime":125.4309425,"endTime":125.56025275,"instrument":1,"program":4},{"pitch":57,"velocity":123,"startTime":125.94818350000001,"endTime":126.07749375,"instrument":1,"program":4},{"pitch":60,"velocity":123,"startTime":125.94818350000001,"endTime":126.07749375,"instrument":1,"program":4},{"pitch":64,"velocity":123,"startTime":125.94818350000001,"endTime":126.07749375,"instrument":1,"program":4},{"pitch":60,"velocity":123,"startTime":126.724045,"endTime":126.85335525,"instrument":1,"program":4},{"pitch":64,"velocity":123,"startTime":126.724045,"endTime":126.85335525,"instrument":1,"program":4},{"pitch":67,"velocity":123,"startTime":126.724045,"endTime":126.85335525,"instrument":1,"program":4},{"pitch":60,"velocity":123,"startTime":126.98266550000001,"endTime":127.11197575000001,"instrument":1,"program":4},{"pitch":64,"velocity":123,"startTime":126.98266550000001,"endTime":127.11197575000001,"instrument":1,"program":4},{"pitch":67,"velocity":123,"startTime":126.98266550000001,"endTime":127.11197575000001,"instrument":1,"program":4},{"pitch":60,"velocity":123,"startTime":127.758527,"endTime":127.88783725,"instrument":1,"program":4},{"pitch":64,"velocity":123,"startTime":127.758527,"endTime":127.88783725,"instrument":1,"program":4},{"pitch":67,"velocity":123,"startTime":127.758527,"endTime":127.88783725,"instrument":1,"program":4},{"pitch":60,"velocity":123,"startTime":128.275768,"endTime":128.5343885,"instrument":1,"program":4},{"pitch":64,"velocity":123,"startTime":128.275768,"endTime":128.5343885,"instrument":1,"program":4},{"pitch":67,"velocity":123,"startTime":128.275768,"endTime":128.5343885,"instrument":1,"program":4},{"pitch":60,"velocity":123,"startTime":128.5343885,"endTime":128.66369875,"instrument":1,"program":4},{"pitch":64,"velocity":123,"startTime":128.5343885,"endTime":128.66369875,"instrument":1,"program":4},{"pitch":67,"velocity":123,"startTime":128.5343885,"endTime":128.66369875,"instrument":1,"program":4},{"pitch":60,"velocity":123,"startTime":129.05162950000002,"endTime":129.18093975000002,"instrument":1,"program":4},{"pitch":64,"velocity":123,"startTime":129.05162950000002,"endTime":129.18093975000002,"instrument":1,"program":4},{"pitch":67,"velocity":123,"startTime":129.05162950000002,"endTime":129.18093975000002,"instrument":1,"program":4},{"pitch":59,"velocity":123,"startTime":129.827491,"endTime":129.95680125,"instrument":1,"program":4},{"pitch":62,"velocity":123,"startTime":129.827491,"endTime":129.95680125,"instrument":1,"program":4},{"pitch":67,"velocity":123,"startTime":129.827491,"endTime":129.95680125,"instrument":1,"program":4},{"pitch":60,"velocity":123,"startTime":130.861973,"endTime":130.99128325,"instrument":1,"program":4},{"pitch":64,"velocity":123,"startTime":130.861973,"endTime":130.99128325,"instrument":1,"program":4},{"pitch":67,"velocity":123,"startTime":130.861973,"endTime":130.99128325,"instrument":1,"program":4},{"pitch":60,"velocity":123,"startTime":131.1205935,"endTime":131.24990375000002,"instrument":1,"program":4},{"pitch":64,"velocity":123,"startTime":131.1205935,"endTime":131.24990375000002,"instrument":1,"program":4},{"pitch":67,"velocity":123,"startTime":131.1205935,"endTime":131.24990375000002,"instrument":1,"program":4},{"pitch":60,"velocity":123,"startTime":131.6378345,"endTime":131.76714475,"instrument":1,"program":4},{"pitch":64,"velocity":123,"startTime":131.6378345,"endTime":131.76714475,"instrument":1,"program":4},{"pitch":67,"velocity":123,"startTime":131.6378345,"endTime":131.76714475,"instrument":1,"program":4},{"pitch":62,"velocity":123,"startTime":115.861984,"endTime":115.90508741666667,"instrument":2,"program":27},{"pitch":52,"velocity":123,"startTime":116.12060450000001,"endTime":116.24991475,"instrument":2,"program":27},{"pitch":52,"velocity":123,"startTime":116.379225,"endTime":116.50853525000001,"instrument":2,"program":27},{"pitch":55,"velocity":123,"startTime":116.63784550000001,"endTime":116.76715575,"instrument":2,"program":27},{"pitch":55,"velocity":123,"startTime":116.76715575,"endTime":116.85336258333334,"instrument":2,"program":27},{"pitch":60,"velocity":123,"startTime":116.896466,"endTime":116.93956941666667,"instrument":2,"program":27},{"pitch":60,"velocity":123,"startTime":117.28439675000001,"endTime":117.32750016666667,"instrument":2,"program":27},{"pitch":60,"velocity":123,"startTime":117.67232750000001,"endTime":117.71543091666668,"instrument":2,"program":27},{"pitch":60,"velocity":123,"startTime":117.930948,"endTime":117.97405141666667,"instrument":2,"program":27},{"pitch":60,"velocity":123,"startTime":118.18956850000001,"endTime":118.31887875000001,"instrument":2,"program":27},{"pitch":60,"velocity":123,"startTime":118.44818900000001,"endTime":118.57749925,"instrument":2,"program":27},{"pitch":60,"velocity":123,"startTime":118.7068095,"endTime":118.83611975000001,"instrument":2,"program":27},{"pitch":60,"velocity":123,"startTime":118.96543000000001,"endTime":119.09474025,"instrument":2,"program":27},{"pitch":60,"velocity":123,"startTime":119.2240505,"endTime":119.35336075000001,"instrument":2,"program":27},{"pitch":60,"velocity":123,"startTime":119.48267100000001,"endTime":119.61198125000001,"instrument":2,"program":27},{"pitch":62,"velocity":123,"startTime":119.61198125000001,"endTime":119.7412915,"instrument":2,"program":27},{"pitch":60,"velocity":123,"startTime":119.7412915,"endTime":119.87060175,"instrument":2,"program":27},{"pitch":60,"velocity":123,"startTime":119.99991200000001,"endTime":120.04301541666668,"instrument":2,"program":27},{"pitch":60,"velocity":123,"startTime":120.12922225000001,"endTime":120.2585325,"instrument":2,"program":27},{"pitch":64,"velocity":123,"startTime":120.2585325,"endTime":120.38784275,"instrument":2,"program":27},{"pitch":60,"velocity":123,"startTime":121.034394,"endTime":121.07749741666667,"instrument":2,"program":27},{"pitch":60,"velocity":123,"startTime":121.29301450000001,"endTime":121.42232475,"instrument":2,"program":27},{"pitch":60,"velocity":123,"startTime":121.551635,"endTime":121.68094525000001,"instrument":2,"program":27},{"pitch":64,"velocity":123,"startTime":121.68094525000001,"endTime":121.76715208333334,"instrument":2,"program":27},{"pitch":55,"velocity":123,"startTime":122.068876,"endTime":122.11197941666667,"instrument":2,"program":27},{"pitch":55,"velocity":123,"startTime":122.32749650000001,"endTime":122.45680675000001,"instrument":2,"program":27},{"pitch":57,"velocity":123,"startTime":122.45680675000001,"endTime":122.54301358333333,"instrument":2,"program":27},{"pitch":55,"velocity":123,"startTime":122.586117,"endTime":122.71542725,"instrument":2,"program":27},{"pitch":55,"velocity":123,"startTime":122.71542725,"endTime":122.84473750000001,"instrument":2,"program":27},{"pitch":55,"velocity":123,"startTime":122.97404775000001,"endTime":123.103358,"instrument":2,"program":27},{"pitch":57,"velocity":123,"startTime":123.103358,"endTime":123.23266825,"instrument":2,"program":27},{"pitch":55,"velocity":123,"startTime":123.23266825,"endTime":123.3619785,"instrument":2,"program":27},{"pitch":62,"velocity":123,"startTime":123.62059900000001,"endTime":123.74990925,"instrument":2,"program":27},{"pitch":55,"velocity":123,"startTime":123.74990925,"endTime":123.8792195,"instrument":2,"program":27},{"pitch":55,"velocity":123,"startTime":123.8792195,"endTime":124.00852975000001,"instrument":2,"program":27},{"pitch":57,"velocity":123,"startTime":124.13784000000001,"endTime":124.18094341666668,"instrument":2,"program":27},{"pitch":57,"velocity":123,"startTime":124.26715025,"endTime":124.35335708333334,"instrument":2,"program":27},{"pitch":57,"velocity":123,"startTime":124.3964605,"endTime":124.52577075,"instrument":2,"program":27},{"pitch":57,"velocity":123,"startTime":124.52577075,"endTime":124.61197758333334,"instrument":2,"program":27},{"pitch":57,"velocity":123,"startTime":124.65508100000001,"endTime":124.78439125000001,"instrument":2,"program":27},{"pitch":57,"velocity":123,"startTime":124.78439125000001,"endTime":124.87059808333333,"instrument":2,"program":27},{"pitch":57,"velocity":123,"startTime":124.9137015,"endTime":125.04301175,"instrument":2,"program":27},{"pitch":60,"velocity":123,"startTime":125.4309425,"endTime":125.47404591666667,"instrument":2,"program":27},{"pitch":60,"velocity":123,"startTime":125.56025275,"endTime":125.64645958333334,"instrument":2,"program":27},{"pitch":60,"velocity":123,"startTime":125.689563,"endTime":125.81887325000001,"instrument":2,"program":27},{"pitch":60,"velocity":123,"startTime":125.81887325000001,"endTime":125.90508008333335,"instrument":2,"program":27},{"pitch":60,"velocity":123,"startTime":126.206804,"endTime":126.24990741666667,"instrument":2,"program":27},{"pitch":60,"velocity":123,"startTime":126.46542450000001,"endTime":126.59473475,"instrument":2,"program":27},{"pitch":60,"velocity":123,"startTime":126.59473475,"endTime":126.68094158333334,"instrument":2,"program":27},{"pitch":60,"velocity":123,"startTime":126.724045,"endTime":126.85335525,"instrument":2,"program":27},{"pitch":60,"velocity":123,"startTime":126.85335525,"endTime":126.98266550000001,"instrument":2,"program":27},{"pitch":60,"velocity":123,"startTime":127.241286,"endTime":127.28438941666667,"instrument":2,"program":27},{"pitch":60,"velocity":123,"startTime":127.49990650000001,"endTime":127.62921675000001,"instrument":2,"program":27},{"pitch":60,"velocity":123,"startTime":127.62921675000001,"endTime":127.71542358333335,"instrument":2,"program":27},{"pitch":60,"velocity":123,"startTime":127.758527,"endTime":127.80163041666667,"instrument":2,"program":27},{"pitch":60,"velocity":123,"startTime":127.88783725,"endTime":127.97404408333334,"instrument":2,"program":27},{"pitch":60,"velocity":123,"startTime":128.01714750000002,"endTime":128.14645775,"instrument":2,"program":27},{"pitch":60,"velocity":123,"startTime":128.5343885,"endTime":128.57749191666667,"instrument":2,"program":27},{"pitch":60,"velocity":123,"startTime":128.66369875,"endTime":128.74990558333334,"instrument":2,"program":27},{"pitch":60,"velocity":123,"startTime":128.793009,"endTime":128.83611241666668,"instrument":2,"program":27},{"pitch":60,"velocity":123,"startTime":128.92231925000002,"endTime":129.00852608333335,"instrument":2,"program":27},{"pitch":60,"velocity":123,"startTime":129.05162950000002,"endTime":129.18093975000002,"instrument":2,"program":27},{"pitch":60,"velocity":123,"startTime":129.31025,"endTime":129.35335341666666,"instrument":2,"program":27},{"pitch":60,"velocity":123,"startTime":129.43956025,"endTime":129.52576708333333,"instrument":2,"program":27},{"pitch":60,"velocity":123,"startTime":129.5688705,"endTime":129.69818075,"instrument":2,"program":27},{"pitch":60,"velocity":123,"startTime":129.827491,"endTime":129.95680125,"instrument":2,"program":27},{"pitch":60,"velocity":123,"startTime":129.95680125,"endTime":130.08611150000002,"instrument":2,"program":27},{"pitch":60,"velocity":123,"startTime":130.6033525,"endTime":130.64645591666667,"instrument":2,"program":27},{"pitch":60,"velocity":123,"startTime":130.73266275,"endTime":130.81886958333334,"instrument":2,"program":27},{"pitch":60,"velocity":123,"startTime":130.861973,"endTime":130.90507641666667,"instrument":2,"program":27},{"pitch":60,"velocity":123,"startTime":130.99128325,"endTime":131.07749008333334,"instrument":2,"program":27},{"pitch":60,"velocity":123,"startTime":131.1205935,"endTime":131.24990375000002,"instrument":2,"program":27},{"pitch":60,"velocity":123,"startTime":131.37921400000002,"endTime":131.50852425,"instrument":2,"program":27},{"pitch":60,"velocity":123,"startTime":131.50852425,"endTime":131.6378345,"instrument":2,"program":27},{"pitch":60,"velocity":123,"startTime":131.6378345,"endTime":131.76714475,"instrument":2,"program":27},{"pitch":60,"velocity":123,"startTime":131.896455,"endTime":132.02576525,"instrument":2,"program":27},{"pitch":60,"velocity":123,"startTime":132.02576525,"endTime":132.1550755,"instrument":2,"program":27},{"pitch":33,"velocity":117,"startTime":115.861984,"endTime":116.24991475,"instrument":4,"program":35},{"pitch":45,"velocity":117,"startTime":116.24991475,"endTime":116.379225,"instrument":4,"program":35},{"pitch":33,"velocity":117,"startTime":117.930948,"endTime":118.31887875000001,"instrument":4,"program":35},{"pitch":45,"velocity":117,"startTime":118.31887875000001,"endTime":118.44818900000001,"instrument":4,"program":35},{"pitch":38,"velocity":117,"startTime":119.48267100000001,"endTime":119.87060175,"instrument":4,"program":35},{"pitch":40,"velocity":117,"startTime":119.87060175,"endTime":119.99991200000001,"instrument":4,"program":35},{"pitch":33,"velocity":117,"startTime":119.99991200000001,"endTime":120.38784275,"instrument":4,"program":35},{"pitch":21,"velocity":117,"startTime":120.38784275,"endTime":120.43094616666667,"instrument":4,"program":35},{"pitch":33,"velocity":117,"startTime":122.068876,"endTime":122.45680675000001,"instrument":4,"program":35},{"pitch":21,"velocity":117,"startTime":122.45680675000001,"endTime":122.586117,"instrument":4,"program":35},{"pitch":36,"velocity":117,"startTime":122.586117,"endTime":122.84473750000001,"instrument":4,"program":35},{"pitch":33,"velocity":117,"startTime":124.13784000000001,"endTime":124.52577075,"instrument":4,"program":35},{"pitch":33,"velocity":117,"startTime":124.52577075,"endTime":124.65508100000001,"instrument":4,"program":35},{"pitch":33,"velocity":117,"startTime":126.206804,"endTime":126.59473475,"instrument":4,"program":35},{"pitch":33,"velocity":117,"startTime":126.59473475,"endTime":126.724045,"instrument":4,"program":35},{"pitch":38,"velocity":117,"startTime":126.724045,"endTime":126.98266550000001,"instrument":4,"program":35},{"pitch":33,"velocity":117,"startTime":129.31025,"endTime":129.43956025,"instrument":4,"program":35},{"pitch":33,"velocity":117,"startTime":129.5688705,"endTime":129.827491,"instrument":4,"program":35},{"pitch":33,"velocity":118,"startTime":117.930948,"endTime":118.18956850000001,"instrument":5,"program":87},{"pitch":33,"velocity":118,"startTime":128.275768,"endTime":128.5343885,"instrument":5,"program":87},{"pitch":33,"velocity":118,"startTime":130.344732,"endTime":130.6033525,"instrument":5,"program":87},{"pitch":35,"velocity":105,"startTime":132.41369600000002,"endTime":132.54300625000002,"isDrum":true},{"pitch":42,"velocity":105,"startTime":132.41369600000002,"endTime":132.54300625000002,"isDrum":true},{"pitch":35,"velocity":105,"startTime":134.48266,"endTime":134.61197025,"isDrum":true},{"pitch":42,"velocity":105,"startTime":134.48266,"endTime":134.61197025,"isDrum":true},{"pitch":35,"velocity":105,"startTime":135.517142,"endTime":135.64645225,"isDrum":true},{"pitch":42,"velocity":105,"startTime":135.517142,"endTime":135.64645225,"isDrum":true},{"pitch":35,"velocity":105,"startTime":136.551624,"endTime":136.68093425,"isDrum":true},{"pitch":42,"velocity":105,"startTime":136.551624,"endTime":136.68093425,"isDrum":true},{"pitch":35,"velocity":105,"startTime":137.586106,"endTime":137.71541625,"isDrum":true},{"pitch":42,"velocity":105,"startTime":137.586106,"endTime":137.71541625,"isDrum":true},{"pitch":62,"velocity":123,"startTime":132.6723165,"endTime":132.930937,"instrument":1,"program":4},{"pitch":66,"velocity":123,"startTime":132.6723165,"endTime":132.930937,"instrument":1,"program":4},{"pitch":69,"velocity":123,"startTime":132.6723165,"endTime":132.930937,"instrument":1,"program":4},{"pitch":62,"velocity":123,"startTime":133.1895575,"endTime":133.27576433333337,"instrument":1,"program":4},{"pitch":66,"velocity":123,"startTime":133.1895575,"endTime":133.27576433333337,"instrument":1,"program":4},{"pitch":69,"velocity":123,"startTime":133.1895575,"endTime":133.27576433333337,"instrument":1,"program":4},{"pitch":62,"velocity":123,"startTime":134.2240395,"endTime":134.35334975,"instrument":1,"program":4},{"pitch":66,"velocity":123,"startTime":134.2240395,"endTime":134.35334975,"instrument":1,"program":4},{"pitch":69,"velocity":123,"startTime":134.2240395,"endTime":134.35334975,"instrument":1,"program":4},{"pitch":59,"velocity":123,"startTime":134.74128050000002,"endTime":134.87059075000002,"instrument":1,"program":4},{"pitch":62,"velocity":123,"startTime":134.74128050000002,"endTime":134.87059075000002,"instrument":1,"program":4},{"pitch":66,"velocity":123,"startTime":134.74128050000002,"endTime":134.87059075000002,"instrument":1,"program":4},{"pitch":59,"velocity":123,"startTime":134.999901,"endTime":135.12921125,"instrument":1,"program":4},{"pitch":62,"velocity":123,"startTime":134.999901,"endTime":135.12921125,"instrument":1,"program":4},{"pitch":66,"velocity":123,"startTime":134.999901,"endTime":135.12921125,"instrument":1,"program":4},{"pitch":59,"velocity":123,"startTime":135.2585215,"endTime":135.38783175,"instrument":1,"program":4},{"pitch":62,"velocity":123,"startTime":135.2585215,"endTime":135.38783175,"instrument":1,"program":4},{"pitch":66,"velocity":123,"startTime":135.2585215,"endTime":135.38783175,"instrument":1,"program":4},{"pitch":62,"velocity":123,"startTime":135.517142,"endTime":135.64645225,"instrument":1,"program":4},{"pitch":66,"velocity":123,"startTime":135.517142,"endTime":135.64645225,"instrument":1,"program":4},{"pitch":69,"velocity":123,"startTime":135.517142,"endTime":135.64645225,"instrument":1,"program":4},{"pitch":62,"velocity":123,"startTime":135.7757625,"endTime":135.90507275000002,"instrument":1,"program":4},{"pitch":66,"velocity":123,"startTime":135.7757625,"endTime":135.90507275000002,"instrument":1,"program":4},{"pitch":69,"velocity":123,"startTime":135.7757625,"endTime":135.90507275000002,"instrument":1,"program":4},{"pitch":62,"velocity":123,"startTime":136.03438300000002,"endTime":136.16369325,"instrument":1,"program":4},{"pitch":66,"velocity":123,"startTime":136.03438300000002,"endTime":136.16369325,"instrument":1,"program":4},{"pitch":69,"velocity":123,"startTime":136.03438300000002,"endTime":136.16369325,"instrument":1,"program":4},{"pitch":62,"velocity":123,"startTime":136.2930035,"endTime":136.42231375,"instrument":1,"program":4},{"pitch":66,"velocity":123,"startTime":136.2930035,"endTime":136.42231375,"instrument":1,"program":4},{"pitch":69,"velocity":123,"startTime":136.2930035,"endTime":136.42231375,"instrument":1,"program":4},{"pitch":64,"velocity":123,"startTime":136.8102445,"endTime":136.93955475,"instrument":1,"program":4},{"pitch":67,"velocity":123,"startTime":136.8102445,"endTime":136.93955475,"instrument":1,"program":4},{"pitch":71,"velocity":123,"startTime":136.8102445,"endTime":136.93955475,"instrument":1,"program":4},{"pitch":64,"velocity":123,"startTime":137.06886500000002,"endTime":137.19817525000002,"instrument":1,"program":4},{"pitch":67,"velocity":123,"startTime":137.06886500000002,"endTime":137.19817525000002,"instrument":1,"program":4},{"pitch":71,"velocity":123,"startTime":137.06886500000002,"endTime":137.19817525000002,"instrument":1,"program":4},{"pitch":64,"velocity":123,"startTime":137.3274855,"endTime":137.41369233333336,"instrument":1,"program":4},{"pitch":67,"velocity":123,"startTime":137.3274855,"endTime":137.41369233333336,"instrument":1,"program":4},{"pitch":71,"velocity":123,"startTime":137.3274855,"endTime":137.41369233333336,"instrument":1,"program":4},{"pitch":64,"velocity":123,"startTime":137.8447265,"endTime":137.97403675,"instrument":1,"program":4},{"pitch":67,"velocity":123,"startTime":137.8447265,"endTime":137.97403675,"instrument":1,"program":4},{"pitch":71,"velocity":123,"startTime":137.8447265,"endTime":137.97403675,"instrument":1,"program":4},{"pitch":64,"velocity":123,"startTime":138.103347,"endTime":138.27576066666666,"instrument":1,"program":4},{"pitch":67,"velocity":123,"startTime":138.103347,"endTime":138.27576066666666,"instrument":1,"program":4},{"pitch":71,"velocity":123,"startTime":138.103347,"endTime":138.23265725000002,"instrument":1,"program":4},{"pitch":64,"velocity":123,"startTime":138.36196750000002,"endTime":138.44817433333336,"instrument":1,"program":4},{"pitch":67,"velocity":123,"startTime":138.36196750000002,"endTime":138.49127775,"instrument":1,"program":4},{"pitch":71,"velocity":123,"startTime":138.36196750000002,"endTime":138.49127775,"instrument":1,"program":4},{"pitch":60,"velocity":123,"startTime":132.41369600000002,"endTime":132.45679941666666,"instrument":2,"program":27},{"pitch":57,"velocity":123,"startTime":132.54300625000002,"endTime":132.62921308333335,"instrument":2,"program":27},{"pitch":60,"velocity":123,"startTime":132.6723165,"endTime":132.75852333333336,"instrument":2,"program":27},{"pitch":57,"velocity":123,"startTime":132.80162675,"endTime":132.88783358333336,"instrument":2,"program":27},{"pitch":60,"velocity":123,"startTime":132.930937,"endTime":132.97404041666667,"instrument":2,"program":27},{"pitch":57,"velocity":123,"startTime":133.1895575,"endTime":133.23266091666665,"instrument":2,"program":27},{"pitch":60,"velocity":123,"startTime":133.31886775,"endTime":133.40507458333335,"instrument":2,"program":27},{"pitch":57,"velocity":123,"startTime":133.448178,"endTime":133.53438483333335,"instrument":2,"program":27},{"pitch":57,"velocity":123,"startTime":133.70679850000002,"endTime":133.83610875,"instrument":2,"program":27},{"pitch":60,"velocity":123,"startTime":133.83610875,"endTime":133.92231558333336,"instrument":2,"program":27},{"pitch":57,"velocity":123,"startTime":133.965419,"endTime":134.09472925,"instrument":2,"program":27},{"pitch":57,"velocity":123,"startTime":134.48266,"endTime":134.52576341666665,"instrument":2,"program":27},{"pitch":57,"velocity":123,"startTime":134.61197025,"endTime":134.69817708333335,"instrument":2,"program":27},{"pitch":57,"velocity":123,"startTime":134.74128050000002,"endTime":134.78438391666666,"instrument":2,"program":27},{"pitch":57,"velocity":123,"startTime":134.87059075000002,"endTime":134.95679758333335,"instrument":2,"program":27},{"pitch":62,"velocity":123,"startTime":134.999901,"endTime":135.04300441666666,"instrument":2,"program":27},{"pitch":62,"velocity":123,"startTime":135.2585215,"endTime":135.30162491666667,"instrument":2,"program":27},{"pitch":62,"velocity":123,"startTime":135.517142,"endTime":135.56024541666665,"instrument":2,"program":27},{"pitch":62,"velocity":123,"startTime":135.64645225,"endTime":135.73265908333335,"instrument":2,"program":27},{"pitch":62,"velocity":123,"startTime":135.7757625,"endTime":135.90507275000002,"instrument":2,"program":27},{"pitch":62,"velocity":123,"startTime":136.03438300000002,"endTime":136.16369325,"instrument":2,"program":27},{"pitch":62,"velocity":123,"startTime":136.16369325,"endTime":136.24990008333336,"instrument":2,"program":27},{"pitch":62,"velocity":123,"startTime":136.551624,"endTime":136.59472741666667,"instrument":2,"program":27},{"pitch":62,"velocity":123,"startTime":136.68093425,"endTime":136.76714108333337,"instrument":2,"program":27},{"pitch":62,"velocity":123,"startTime":136.8102445,"endTime":136.89645133333335,"instrument":2,"program":27},{"pitch":62,"velocity":123,"startTime":136.93955475,"endTime":137.02576158333335,"instrument":2,"program":27},{"pitch":62,"velocity":123,"startTime":137.06886500000002,"endTime":137.19817525000002,"instrument":2,"program":27},{"pitch":62,"velocity":123,"startTime":137.19817525000002,"endTime":137.3274855,"instrument":2,"program":27},{"pitch":62,"velocity":123,"startTime":137.586106,"endTime":137.67231283333336,"instrument":2,"program":27},{"pitch":62,"velocity":123,"startTime":137.71541625,"endTime":137.80162308333337,"instrument":2,"program":27},{"pitch":62,"velocity":123,"startTime":137.8447265,"endTime":137.97403675,"instrument":2,"program":27},{"pitch":62,"velocity":123,"startTime":138.103347,"endTime":138.23265725000002,"instrument":2,"program":27},{"pitch":62,"velocity":123,"startTime":138.23265725000002,"endTime":138.31886408333335,"instrument":2,"program":27},{"pitch":62,"velocity":123,"startTime":138.36196750000002,"endTime":138.44817433333336,"instrument":2,"program":27},{"pitch":62,"velocity":123,"startTime":138.49127775,"endTime":138.57748458333214,"instrument":2,"program":27},{"pitch":35,"velocity":117,"startTime":135.2585215,"endTime":135.517142,"instrument":4,"program":35},{"pitch":40,"velocity":117,"startTime":135.517142,"endTime":135.7757625,"instrument":4,"program":35},{"pitch":35,"velocity":117,"startTime":135.7757625,"endTime":135.90507275000002,"instrument":4,"program":35},{"pitch":40,"velocity":117,"startTime":136.551624,"endTime":136.68093425,"instrument":4,"program":35},{"pitch":35,"velocity":117,"startTime":136.68093425,"endTime":136.8102445,"instrument":4,"program":35},{"pitch":40,"velocity":117,"startTime":136.8102445,"endTime":136.93955475,"instrument":4,"program":35},{"pitch":40,"velocity":117,"startTime":137.8447265,"endTime":138.103347,"instrument":4,"program":35},{"pitch":45,"velocity":117,"startTime":138.103347,"endTime":138.36196750000002,"instrument":4,"program":35},{"pitch":40,"velocity":117,"startTime":138.36196750000002,"endTime":138.49127775,"instrument":4,"program":35}],"totalTime":138.57748458333214},"sequence":{"filename":"lithium__fanvoy.mid","tempos":[{"qpm":116.00008506672904}],"notes":[{"pitch":36,"velocity":105,"endTime":0.12931025000000002,"isDrum":true},{"pitch":42,"velocity":105,"endTime":0.12931025000000002,"isDrum":true},{"pitch":42,"velocity":105,"startTime":0.25862050000000003,"endTime":0.38793075000000005,"isDrum":true},{"pitch":38,"velocity":105,"startTime":0.5172410000000001,"endTime":0.64655125,"isDrum":true},{"pitch":39,"velocity":105,"startTime":0.5172410000000001,"endTime":0.64655125,"isDrum":true},{"pitch":42,"velocity":105,"startTime":0.5172410000000001,"endTime":0.64655125,"isDrum":true},{"pitch":69,"velocity":105,"startTime":0.5172410000000001,"endTime":0.64655125,"isDrum":true},{"pitch":36,"velocity":105,"startTime":0.7758615000000001,"endTime":0.90517175,"isDrum":true},{"pitch":42,"velocity":105,"startTime":0.7758615000000001,"endTime":0.90517175,"isDrum":true},{"pitch":36,"velocity":105,"startTime":1.0344820000000001,"endTime":1.16379225,"isDrum":true},{"pitch":42,"velocity":105,"startTime":1.0344820000000001,"endTime":1.16379225,"isDrum":true},{"pitch":42,"velocity":105,"startTime":1.2931025,"endTime":1.4224127500000001,"isDrum":true},{"pitch":38,"velocity":105,"startTime":1.5517230000000002,"endTime":1.68103325,"isDrum":true},{"pitch":39,"velocity":105,"startTime":1.5517230000000002,"endTime":1.68103325,"isDrum":true},{"pitch":42,"velocity":105,"startTime":1.5517230000000002,"endTime":1.68103325,"isDrum":true},{"pitch":69,"velocity":105,"startTime":1.5517230000000002,"endTime":1.68103325,"isDrum":true},{"pitch":36,"velocity":105,"startTime":1.8103435,"endTime":1.9396537500000002,"isDrum":true},{"pitch":42,"velocity":105,"startTime":1.8103435,"endTime":1.9396537500000002,"isDrum":true},{"pitch":36,"velocity":105,"startTime":2.0689640000000002,"endTime":2.1982742500000003,"isDrum":true},{"pitch":42,"velocity":105,"startTime":2.0689640000000002,"endTime":2.1982742500000003,"isDrum":true},{"pitch":42,"velocity":105,"startTime":2.3275845,"endTime":2.45689475,"isDrum":true},{"pitch":38,"velocity":105,"startTime":2.586205,"endTime":2.71551525,"isDrum":true},{"pitch":39,"velocity":105,"startTime":2.586205,"endTime":2.71551525,"isDrum":true},{"pitch":42,"velocity":105,"startTime":2.586205,"endTime":2.71551525,"isDrum":true},{"pitch":69,"velocity":105,"startTime":2.586205,"endTime":2.71551525,"isDrum":true},{"pitch":36,"velocity":105,"startTime":2.8448255000000002,"endTime":2.9741357500000003,"isDrum":true},{"pitch":42,"velocity":105,"startTime":2.8448255000000002,"endTime":2.9741357500000003,"isDrum":true},{"pitch":36,"velocity":105,"startTime":3.1034460000000004,"endTime":3.23275625,"isDrum":true},{"pitch":42,"velocity":105,"startTime":3.1034460000000004,"endTime":3.23275625,"isDrum":true},{"pitch":42,"velocity":105,"startTime":3.3620665,"endTime":3.49137675,"isDrum":true},{"pitch":38,"velocity":105,"startTime":3.620687,"endTime":3.7499972500000003,"isDrum":true},{"pitch":39,"velocity":105,"startTime":3.620687,"endTime":3.7499972500000003,"isDrum":true},{"pitch":42,"velocity":105,"startTime":3.620687,"endTime":3.7499972500000003,"isDrum":true},{"pitch":69,"velocity":105,"startTime":3.620687,"endTime":3.7499972500000003,"isDrum":true},{"pitch":36,"velocity":105,"startTime":3.8793075000000004,"endTime":4.00861775,"isDrum":true},{"pitch":42,"velocity":105,"startTime":3.8793075000000004,"endTime":4.00861775,"isDrum":true},{"pitch":36,"velocity":105,"startTime":4.1379280000000005,"endTime":4.26723825,"isDrum":true},{"pitch":42,"velocity":105,"startTime":4.1379280000000005,"endTime":4.26723825,"isDrum":true},{"pitch":42,"velocity":105,"startTime":4.396548500000001,"endTime":4.52585875,"isDrum":true},{"pitch":38,"velocity":105,"startTime":4.655169,"endTime":4.78447925,"isDrum":true},{"pitch":39,"velocity":105,"startTime":4.655169,"endTime":4.78447925,"isDrum":true},{"pitch":42,"velocity":105,"startTime":4.655169,"endTime":4.78447925,"isDrum":true},{"pitch":69,"velocity":105,"startTime":4.655169,"endTime":4.78447925,"isDrum":true},{"pitch":36,"velocity":105,"startTime":4.9137895,"endTime":5.0430997500000005,"isDrum":true},{"pitch":42,"velocity":105,"startTime":4.9137895,"endTime":5.0430997500000005,"isDrum":true},{"pitch":36,"velocity":105,"startTime":5.17241,"endTime":5.301720250000001,"isDrum":true},{"pitch":42,"velocity":105,"startTime":5.17241,"endTime":5.301720250000001,"isDrum":true},{"pitch":42,"velocity":105,"startTime":5.4310305,"endTime":5.56034075,"isDrum":true},{"pitch":38,"velocity":105,"startTime":5.6896510000000005,"endTime":5.81896125,"isDrum":true},{"pitch":39,"velocity":105,"startTime":5.6896510000000005,"endTime":5.81896125,"isDrum":true},{"pitch":42,"velocity":105,"startTime":5.6896510000000005,"endTime":5.81896125,"isDrum":true},{"pitch":69,"velocity":105,"startTime":5.6896510000000005,"endTime":5.81896125,"isDrum":true},{"pitch":36,"velocity":105,"startTime":5.948271500000001,"endTime":6.07758175,"isDrum":true},{"pitch":42,"velocity":105,"startTime":5.948271500000001,"endTime":6.07758175,"isDrum":true},{"pitch":36,"velocity":105,"startTime":6.206892000000001,"endTime":6.33620225,"isDrum":true},{"pitch":42,"velocity":105,"startTime":6.206892000000001,"endTime":6.33620225,"isDrum":true},{"pitch":42,"velocity":105,"startTime":6.4655125,"endTime":6.5948227500000005,"isDrum":true},{"pitch":38,"velocity":105,"startTime":6.724133,"endTime":6.853443250000001,"isDrum":true},{"pitch":39,"velocity":105,"startTime":6.724133,"endTime":6.853443250000001,"isDrum":true},{"pitch":42,"velocity":105,"startTime":6.724133,"endTime":6.853443250000001,"isDrum":true},{"pitch":69,"velocity":105,"startTime":6.724133,"endTime":6.853443250000001,"isDrum":true},{"pitch":36,"velocity":105,"startTime":6.9827535,"endTime":7.112063750000001,"isDrum":true},{"pitch":42,"velocity":105,"startTime":6.9827535,"endTime":7.112063750000001,"isDrum":true},{"pitch":36,"velocity":105,"startTime":7.241374,"endTime":7.37068425,"isDrum":true},{"pitch":42,"velocity":105,"startTime":7.241374,"endTime":7.37068425,"isDrum":true},{"pitch":42,"velocity":105,"startTime":7.499994500000001,"endTime":7.62930475,"isDrum":true},{"pitch":38,"velocity":105,"startTime":7.758615000000001,"endTime":7.88792525,"isDrum":true},{"pitch":39,"velocity":105,"startTime":7.758615000000001,"endTime":7.88792525,"isDrum":true},{"pitch":42,"velocity":105,"startTime":7.758615000000001,"endTime":7.88792525,"isDrum":true},{"pitch":69,"velocity":105,"startTime":7.758615000000001,"endTime":7.88792525,"isDrum":true},{"pitch":36,"velocity":105,"startTime":8.0172355,"endTime":8.14654575,"isDrum":true},{"pitch":42,"velocity":105,"startTime":8.0172355,"endTime":8.14654575,"isDrum":true},{"pitch":36,"velocity":105,"startTime":8.275856000000001,"endTime":8.40516625,"isDrum":true},{"pitch":42,"velocity":105,"startTime":8.275856000000001,"endTime":8.40516625,"isDrum":true},{"pitch":42,"velocity":105,"startTime":8.5344765,"endTime":8.66378675,"isDrum":true},{"pitch":38,"velocity":105,"startTime":8.793097000000001,"endTime":8.922407250000001,"isDrum":true},{"pitch":39,"velocity":105,"startTime":8.793097000000001,"endTime":8.922407250000001,"isDrum":true},{"pitch":42,"velocity":105,"startTime":8.793097000000001,"endTime":8.922407250000001,"isDrum":true},{"pitch":69,"velocity":105,"startTime":8.793097000000001,"endTime":8.922407250000001,"isDrum":true},{"pitch":36,"velocity":105,"startTime":9.0517175,"endTime":9.18102775,"isDrum":true},{"pitch":42,"velocity":105,"startTime":9.0517175,"endTime":9.18102775,"isDrum":true},{"pitch":36,"velocity":105,"startTime":9.310338,"endTime":9.439648250000001,"isDrum":true},{"pitch":42,"velocity":105,"startTime":9.310338,"endTime":9.439648250000001,"isDrum":true},{"pitch":42,"velocity":105,"startTime":9.5689585,"endTime":9.69826875,"isDrum":true},{"pitch":38,"velocity":105,"startTime":9.827579,"endTime":9.95688925,"isDrum":true},{"pitch":39,"velocity":105,"startTime":9.827579,"endTime":9.95688925,"isDrum":true},{"pitch":42,"velocity":105,"startTime":9.827579,"endTime":9.95688925,"isDrum":true},{"pitch":69,"velocity":105,"startTime":9.827579,"endTime":9.95688925,"isDrum":true},{"pitch":36,"velocity":105,"startTime":10.086199500000001,"endTime":10.21550975,"isDrum":true},{"pitch":42,"velocity":105,"startTime":10.086199500000001,"endTime":10.21550975,"isDrum":true},{"pitch":36,"velocity":105,"startTime":10.34482,"endTime":10.47413025,"isDrum":true},{"pitch":42,"velocity":105,"startTime":10.34482,"endTime":10.47413025,"isDrum":true},{"pitch":42,"velocity":105,"startTime":10.603440500000001,"endTime":10.732750750000001,"isDrum":true},{"pitch":38,"velocity":105,"startTime":10.862061,"endTime":10.99137125,"isDrum":true},{"pitch":39,"velocity":105,"startTime":10.862061,"endTime":10.99137125,"isDrum":true},{"pitch":42,"velocity":105,"startTime":10.862061,"endTime":10.99137125,"isDrum":true},{"pitch":69,"velocity":105,"startTime":10.862061,"endTime":10.99137125,"isDrum":true},{"pitch":36,"velocity":105,"startTime":11.1206815,"endTime":11.249991750000001,"isDrum":true},{"pitch":42,"velocity":105,"startTime":11.1206815,"endTime":11.249991750000001,"isDrum":true},{"pitch":36,"velocity":105,"startTime":11.379302000000001,"endTime":11.50861225,"isDrum":true},{"pitch":42,"velocity":105,"startTime":11.379302000000001,"endTime":11.50861225,"isDrum":true},{"pitch":42,"velocity":105,"startTime":11.6379225,"endTime":11.76723275,"isDrum":true},{"pitch":38,"velocity":105,"startTime":11.896543000000001,"endTime":12.02585325,"isDrum":true},{"pitch":39,"velocity":105,"startTime":11.896543000000001,"endTime":12.02585325,"isDrum":true},{"pitch":42,"velocity":105,"startTime":11.896543000000001,"endTime":12.02585325,"isDrum":true},{"pitch":69,"velocity":105,"startTime":11.896543000000001,"endTime":12.02585325,"isDrum":true},{"pitch":36,"velocity":105,"startTime":12.1551635,"endTime":12.28447375,"isDrum":true},{"pitch":42,"velocity":105,"startTime":12.1551635,"endTime":12.28447375,"isDrum":true},{"pitch":36,"velocity":105,"startTime":12.413784000000001,"endTime":12.543094250000001,"isDrum":true},{"pitch":42,"velocity":105,"startTime":12.413784000000001,"endTime":12.543094250000001,"isDrum":true},{"pitch":42,"velocity":105,"startTime":12.6724045,"endTime":12.80171475,"isDrum":true},{"pitch":38,"velocity":105,"startTime":12.931025,"endTime":13.060335250000001,"isDrum":true},{"pitch":39,"velocity":105,"startTime":12.931025,"endTime":13.060335250000001,"isDrum":true},{"pitch":42,"velocity":105,"startTime":12.931025,"endTime":13.060335250000001,"isDrum":true},{"pitch":69,"velocity":105,"startTime":12.931025,"endTime":13.060335250000001,"isDrum":true},{"pitch":36,"velocity":105,"startTime":13.189645500000001,"endTime":13.31895575,"isDrum":true},{"pitch":42,"velocity":105,"startTime":13.189645500000001,"endTime":13.31895575,"isDrum":true},{"pitch":36,"velocity":105,"startTime":13.448266,"endTime":13.57757625,"isDrum":true},{"pitch":42,"velocity":105,"startTime":13.448266,"endTime":13.57757625,"isDrum":true},{"pitch":42,"velocity":105,"startTime":13.706886500000001,"endTime":13.836196750000001,"isDrum":true},{"pitch":38,"velocity":105,"startTime":13.965507,"endTime":14.09481725,"isDrum":true},{"pitch":39,"velocity":105,"startTime":13.965507,"endTime":14.09481725,"isDrum":true},{"pitch":42,"velocity":105,"startTime":13.965507,"endTime":14.09481725,"isDrum":true},{"pitch":69,"velocity":105,"startTime":13.965507,"endTime":14.09481725,"isDrum":true},{"pitch":36,"velocity":105,"startTime":14.224127500000002,"endTime":14.353437750000001,"isDrum":true},{"pitch":42,"velocity":105,"startTime":14.224127500000002,"endTime":14.353437750000001,"isDrum":true},{"pitch":36,"velocity":105,"startTime":14.482748,"endTime":14.61205825,"isDrum":true},{"pitch":42,"velocity":105,"startTime":14.482748,"endTime":14.61205825,"isDrum":true},{"pitch":42,"velocity":105,"startTime":14.7413685,"endTime":14.870678750000002,"isDrum":true},{"pitch":38,"velocity":105,"startTime":14.999989000000001,"endTime":15.12929925,"isDrum":true},{"pitch":39,"velocity":105,"startTime":14.999989000000001,"endTime":15.12929925,"isDrum":true},{"pitch":42,"velocity":105,"startTime":14.999989000000001,"endTime":15.12929925,"isDrum":true},{"pitch":69,"velocity":105,"startTime":14.999989000000001,"endTime":15.12929925,"isDrum":true},{"pitch":36,"velocity":105,"startTime":15.2586095,"endTime":15.38791975,"isDrum":true},{"pitch":42,"velocity":105,"startTime":15.2586095,"endTime":15.38791975,"isDrum":true},{"pitch":36,"velocity":105,"startTime":15.517230000000001,"endTime":15.646540250000001,"isDrum":true},{"pitch":42,"velocity":105,"startTime":15.517230000000001,"endTime":15.646540250000001,"isDrum":true},{"pitch":42,"velocity":105,"startTime":15.7758505,"endTime":15.90516075,"isDrum":true},{"pitch":38,"velocity":105,"startTime":16.034471,"endTime":16.16378125,"isDrum":true},{"pitch":39,"velocity":105,"startTime":16.034471,"endTime":16.16378125,"isDrum":true},{"pitch":42,"velocity":105,"startTime":16.034471,"endTime":16.16378125,"isDrum":true},{"pitch":69,"velocity":105,"startTime":16.034471,"endTime":16.16378125,"isDrum":true},{"pitch":36,"velocity":105,"startTime":16.2930915,"endTime":16.422401750000002,"isDrum":true},{"pitch":42,"velocity":105,"startTime":16.2930915,"endTime":16.422401750000002,"isDrum":true},{"pitch":56,"velocity":123,"startTime":9.5689585,"endTime":9.69826875,"instrument":1,"program":4},{"pitch":60,"velocity":123,"startTime":9.5689585,"endTime":9.69826875,"instrument":1,"program":4},{"pitch":66,"velocity":123,"startTime":9.5689585,"endTime":9.69826875,"instrument":1,"program":4},{"pitch":56,"velocity":123,"startTime":9.827579,"endTime":9.95688925,"instrument":1,"program":4},{"pitch":60,"velocity":123,"startTime":9.827579,"endTime":9.95688925,"instrument":1,"program":4},{"pitch":66,"velocity":123,"startTime":9.827579,"endTime":9.95688925,"instrument":1,"program":4},{"pitch":56,"velocity":123,"startTime":10.086199500000001,"endTime":10.21550975,"instrument":1,"program":4},{"pitch":60,"velocity":123,"startTime":10.086199500000001,"endTime":10.21550975,"instrument":1,"program":4},{"pitch":66,"velocity":123,"startTime":10.086199500000001,"endTime":10.21550975,"instrument":1,"program":4},{"pitch":60,"velocity":123,"startTime":12.6724045,"endTime":12.80171475,"instrument":1,"program":4},{"pitch":64,"velocity":123,"startTime":12.6724045,"endTime":12.80171475,"instrument":1,"program":4},{"pitch":67,"velocity":123,"startTime":12.6724045,"endTime":12.80171475,"instrument":1,"program":4},{"pitch":60,"velocity":123,"startTime":12.931025,"endTime":13.060335250000001,"instrument":1,"program":4},{"pitch":64,"velocity":123,"startTime":12.931025,"endTime":13.060335250000001,"instrument":1,"program":4},{"pitch":67,"velocity":123,"startTime":12.931025,"endTime":13.060335250000001,"instrument":1,"program":4},{"pitch":62,"velocity":123,"startTime":13.189645500000001,"endTime":13.31895575,"instrument":1,"program":4},{"pitch":64,"velocity":123,"startTime":13.189645500000001,"endTime":13.31895575,"instrument":1,"program":4},{"pitch":67,"velocity":123,"startTime":13.189645500000001,"endTime":13.31895575,"instrument":1,"program":4},{"pitch":62,"velocity":123,"startTime":13.448266,"endTime":13.57757625,"instrument":1,"program":4},{"pitch":66,"velocity":123,"startTime":13.448266,"endTime":13.57757625,"instrument":1,"program":4},{"pitch":69,"velocity":123,"startTime":13.448266,"endTime":13.57757625,"instrument":1,"program":4},{"pitch":62,"velocity":123,"startTime":13.706886500000001,"endTime":13.836196750000001,"instrument":1,"program":4},{"pitch":66,"velocity":123,"startTime":13.706886500000001,"endTime":13.836196750000001,"instrument":1,"program":4},{"pitch":69,"velocity":123,"startTime":13.706886500000001,"endTime":13.836196750000001,"instrument":1,"program":4},{"pitch":62,"velocity":123,"startTime":14.224127500000002,"endTime":14.61205825,"instrument":1,"program":4},{"pitch":66,"velocity":123,"startTime":14.224127500000002,"endTime":14.61205825,"instrument":1,"program":4},{"pitch":69,"velocity":123,"startTime":14.224127500000002,"endTime":14.61205825,"instrument":1,"program":4},{"pitch":62,"velocity":123,"startTime":14.7413685,"endTime":14.870678750000002,"instrument":1,"program":4},{"pitch":66,"velocity":123,"startTime":14.7413685,"endTime":14.870678750000002,"instrument":1,"program":4},{"pitch":69,"velocity":123,"startTime":14.7413685,"endTime":14.870678750000002,"instrument":1,"program":4},{"pitch":62,"velocity":123,"startTime":15.517230000000001,"endTime":15.646540250000001,"instrument":1,"program":4},{"pitch":66,"velocity":123,"startTime":15.517230000000001,"endTime":15.646540250000001,"instrument":1,"program":4},{"pitch":69,"velocity":123,"startTime":15.517230000000001,"endTime":15.646540250000001,"instrument":1,"program":4},{"pitch":62,"velocity":123,"startTime":15.7758505,"endTime":15.90516075,"instrument":1,"program":4},{"pitch":66,"velocity":123,"startTime":15.7758505,"endTime":15.90516075,"instrument":1,"program":4},{"pitch":69,"velocity":123,"startTime":15.7758505,"endTime":15.90516075,"instrument":1,"program":4},{"pitch":60,"velocity":123,"startTime":4.1379280000000005,"endTime":4.181031416666667,"instrument":2,"program":27},{"pitch":60,"velocity":123,"startTime":4.396548500000001,"endTime":4.52585875,"instrument":2,"program":27},{"pitch":62,"velocity":123,"startTime":4.655169,"endTime":4.78447925,"instrument":2,"program":27},{"pitch":60,"velocity":123,"startTime":4.78447925,"endTime":4.9137895,"instrument":2,"program":27},{"pitch":62,"velocity":123,"startTime":5.17241,"endTime":5.215513416666667,"instrument":2,"program":27},{"pitch":62,"velocity":123,"startTime":5.4310305,"endTime":5.56034075,"instrument":2,"program":27},{"pitch":62,"velocity":123,"startTime":5.56034075,"endTime":5.646547583333334,"instrument":2,"program":27},{"pitch":62,"velocity":123,"startTime":5.6896510000000005,"endTime":5.732754416666667,"instrument":2,"program":27},{"pitch":62,"velocity":123,"startTime":5.948271500000001,"endTime":6.07758175,"instrument":2,"program":27},{"pitch":62,"velocity":123,"startTime":6.206892000000001,"endTime":6.249995416666667,"instrument":2,"program":27},{"pitch":62,"velocity":123,"startTime":6.33620225,"endTime":6.422409083333334,"instrument":2,"program":27},{"pitch":62,"velocity":123,"startTime":6.4655125,"endTime":6.5948227500000005,"instrument":2,"program":27},{"pitch":62,"velocity":123,"startTime":6.724133,"endTime":6.853443250000001,"instrument":2,"program":27},{"pitch":62,"velocity":123,"startTime":6.9827535,"endTime":7.112063750000001,"instrument":2,"program":27},{"pitch":62,"velocity":123,"startTime":7.241374,"endTime":7.284477416666667,"instrument":2,"program":27},{"pitch":62,"velocity":123,"startTime":7.499994500000001,"endTime":7.62930475,"instrument":2,"program":27},{"pitch":62,"velocity":123,"startTime":7.758615000000001,"endTime":7.88792525,"instrument":2,"program":27},{"pitch":62,"velocity":123,"startTime":8.0172355,"endTime":8.14654575,"instrument":2,"program":27},{"pitch":61,"velocity":123,"startTime":8.275856000000001,"endTime":8.318959416666667,"instrument":2,"program":27},{"pitch":61,"velocity":123,"startTime":8.40516625,"endTime":8.491373083333334,"instrument":2,"program":27},{"pitch":61,"velocity":123,"startTime":8.5344765,"endTime":8.66378675,"instrument":2,"program":27},{"pitch":61,"velocity":123,"startTime":8.793097000000001,"endTime":8.922407250000001,"instrument":2,"program":27},{"pitch":61,"velocity":123,"startTime":8.922407250000001,"endTime":9.0517175,"instrument":2,"program":27},{"pitch":61,"velocity":123,"startTime":9.310338,"endTime":9.439648250000001,"instrument":2,"program":27},{"pitch":61,"velocity":123,"startTime":9.439648250000001,"endTime":9.5689585,"instrument":2,"program":27},{"pitch":61,"velocity":123,"startTime":9.827579,"endTime":9.870682416666668,"instrument":2,"program":27},{"pitch":61,"velocity":123,"startTime":9.95688925,"endTime":10.043096083333333,"instrument":2,"program":27},{"pitch":61,"velocity":123,"startTime":10.086199500000001,"endTime":10.21550975,"instrument":2,"program":27},{"pitch":61,"velocity":123,"startTime":10.34482,"endTime":10.387923416666668,"instrument":2,"program":27},{"pitch":61,"velocity":123,"startTime":10.47413025,"endTime":10.560337083333334,"instrument":2,"program":27},{"pitch":61,"velocity":123,"startTime":10.603440500000001,"endTime":10.732750750000001,"instrument":2,"program":27},{"pitch":61,"velocity":123,"startTime":10.862061,"endTime":10.99137125,"instrument":2,"program":27},{"pitch":61,"velocity":123,"startTime":10.99137125,"endTime":11.1206815,"instrument":2,"program":27},{"pitch":61,"velocity":123,"startTime":11.379302000000001,"endTime":11.50861225,"instrument":2,"program":27},{"pitch":61,"velocity":123,"startTime":11.50861225,"endTime":11.594819083333334,"instrument":2,"program":27},{"pitch":61,"velocity":123,"startTime":11.6379225,"endTime":11.76723275,"instrument":2,"program":27},{"pitch":61,"velocity":123,"startTime":11.896543000000001,"endTime":12.02585325,"instrument":2,"program":27},{"pitch":61,"velocity":123,"startTime":12.02585325,"endTime":12.112060083333335,"instrument":2,"program":27},{"pitch":60,"velocity":123,"startTime":12.413784000000001,"endTime":12.543094250000001,"instrument":2,"program":27},{"pitch":64,"velocity":123,"startTime":12.413784000000001,"endTime":12.543094250000001,"instrument":2,"program":27},{"pitch":60,"velocity":123,"startTime":12.543094250000001,"endTime":12.629301083333335,"instrument":2,"program":27},{"pitch":64,"velocity":123,"startTime":12.543094250000001,"endTime":12.629301083333335,"instrument":2,"program":27},{"pitch":60,"velocity":123,"startTime":12.931025,"endTime":13.060335250000001,"instrument":2,"program":27},{"pitch":64,"velocity":123,"startTime":12.931025,"endTime":13.060335250000001,"instrument":2,"program":27},{"pitch":60,"velocity":123,"startTime":13.060335250000001,"endTime":13.146542083333333,"instrument":2,"program":27},{"pitch":64,"velocity":123,"startTime":13.060335250000001,"endTime":13.146542083333333,"instrument":2,"program":27},{"pitch":62,"velocity":123,"startTime":13.448266,"endTime":13.491369416666668,"instrument":2,"program":27},{"pitch":62,"velocity":123,"startTime":13.57757625,"endTime":13.663783083333334,"instrument":2,"program":27},{"pitch":62,"velocity":123,"startTime":13.706886500000001,"endTime":13.836196750000001,"instrument":2,"program":27},{"pitch":62,"velocity":123,"startTime":13.965507,"endTime":14.09481725,"instrument":2,"program":27},{"pitch":62,"velocity":123,"startTime":14.09481725,"endTime":14.181024083333334,"instrument":2,"program":27},{"pitch":59,"velocity":123,"startTime":14.482748,"endTime":14.525851416666667,"instrument":2,"program":27},{"pitch":59,"velocity":123,"startTime":14.61205825,"endTime":14.698265083333334,"instrument":2,"program":27},{"pitch":59,"velocity":123,"startTime":14.7413685,"endTime":14.870678750000002,"instrument":2,"program":27},{"pitch":59,"velocity":123,"startTime":14.999989000000001,"endTime":15.12929925,"instrument":2,"program":27},{"pitch":59,"velocity":123,"startTime":15.12929925,"endTime":15.215506083333334,"instrument":2,"program":27},{"pitch":59,"velocity":123,"startTime":15.517230000000001,"endTime":15.560333416666667,"instrument":2,"program":27},{"pitch":59,"velocity":123,"startTime":15.7758505,"endTime":15.90516075,"instrument":2,"program":27},{"pitch":59,"velocity":123,"startTime":16.034471,"endTime":16.16378125,"instrument":2,"program":27},{"pitch":59,"velocity":123,"startTime":16.16378125,"endTime":16.249988083333335,"instrument":2,"program":27},{"pitch":59,"velocity":123,"startTime":16.2930915,"endTime":16.422401750000002,"instrument":2,"program":27},{"pitch":28,"velocity":117,"endTime":0.21551708333333336,"instrument":4,"program":35},{"pitch":35,"velocity":117,"startTime":0.25862050000000003,"endTime":0.38793075000000005,"instrument":4,"program":35},{"pitch":32,"velocity":117,"startTime":0.90517175,"endTime":1.0344820000000001,"instrument":4,"program":35},{"pitch":44,"velocity":117,"startTime":1.0344820000000001,"endTime":1.2499990833333334,"instrument":4,"program":35},{"pitch":40,"velocity":117,"startTime":10.603440500000001,"endTime":10.689647333333333,"instrument":4,"program":35},{"pitch":40,"velocity":117,"startTime":10.732750750000001,"endTime":10.818957583333335,"instrument":4,"program":35},{"pitch":40,"velocity":117,"startTime":10.862061,"endTime":11.077578083333334,"instrument":4,"program":35},{"pitch":40,"velocity":117,"startTime":11.1206815,"endTime":11.336198583333333,"instrument":4,"program":35},{"pitch":36,"velocity":117,"startTime":12.413784000000001,"endTime":12.80171475,"instrument":4,"program":35},{"pitch":43,"velocity":117,"startTime":12.80171475,"endTime":12.887921583333334,"instrument":4,"program":35},{"pitch":40,"velocity":117,"startTime":12.931025,"endTime":13.060335250000001,"instrument":4,"program":35},{"pitch":38,"velocity":117,"startTime":16.034471,"endTime":16.422401750000002,"instrument":4,"program":35},{"pitch":40,"velocity":118,"endTime":0.25862050000000003,"instrument":5,"program":87},{"pitch":44,"velocity":118,"startTime":1.8103435,"endTime":2.0689640000000002,"instrument":5,"program":87},{"pitch":37,"velocity":118,"startTime":2.0689640000000002,"endTime":2.3275845,"instrument":5,"program":87},{"pitch":33,"velocity":118,"startTime":3.8793075000000004,"endTime":4.1379280000000005,"instrument":5,"program":87},{"pitch":36,"velocity":118,"startTime":4.1379280000000005,"endTime":4.396548500000001,"instrument":5,"program":87},{"pitch":38,"velocity":118,"startTime":8.0172355,"endTime":8.275856000000001,"instrument":5,"program":87},{"pitch":28,"velocity":118,"startTime":8.275856000000001,"endTime":8.5344765,"instrument":5,"program":87},{"pitch":35,"velocity":105,"startTime":16.551712000000002,"endTime":16.68102225,"isDrum":true},{"pitch":42,"velocity":105,"startTime":16.551712000000002,"endTime":16.68102225,"isDrum":true},{"pitch":42,"velocity":105,"startTime":16.8103325,"endTime":16.93964275,"isDrum":true},{"pitch":38,"velocity":105,"startTime":17.068953,"endTime":17.19826325,"isDrum":true},{"pitch":39,"velocity":105,"startTime":17.068953,"endTime":17.19826325,"isDrum":true},{"pitch":40,"velocity":105,"startTime":17.068953,"endTime":17.19826325,"isDrum":true},{"pitch":42,"velocity":105,"startTime":17.068953,"endTime":17.19826325,"isDrum":true},{"pitch":42,"velocity":105,"startTime":17.3275735,"endTime":17.45688375,"isDrum":true},{"pitch":35,"velocity":105,"startTime":17.586194000000003,"endTime":17.715504250000002,"isDrum":true},{"pitch":42,"velocity":105,"startTime":17.586194000000003,"endTime":17.715504250000002,"isDrum":true},{"pitch":42,"velocity":105,"startTime":17.844814500000002,"endTime":17.97412475,"isDrum":true},{"pitch":38,"velocity":105,"startTime":18.103435,"endTime":18.23274525,"isDrum":true},{"pitch":39,"velocity":105,"startTime":18.103435,"endTime":18.23274525,"isDrum":true},{"pitch":40,"velocity":105,"startTime":18.103435,"endTime":18.23274525,"isDrum":true},{"pitch":42,"velocity":105,"startTime":18.103435,"endTime":18.23274525,"isDrum":true},{"pitch":42,"velocity":105,"startTime":18.3620555,"endTime":18.49136575,"isDrum":true},{"pitch":35,"velocity":105,"startTime":18.620676,"endTime":18.749986250000003,"isDrum":true},{"pitch":42,"velocity":105,"startTime":18.620676,"endTime":18.749986250000003,"isDrum":true},{"pitch":42,"velocity":105,"startTime":18.879296500000002,"endTime":19.008606750000002,"isDrum":true},{"pitch":38,"velocity":105,"startTime":19.137917,"endTime":19.26722725,"isDrum":true},{"pitch":39,"velocity":105,"startTime":19.137917,"endTime":19.26722725,"isDrum":true},{"pitch":40,"velocity":105,"startTime":19.137917,"endTime":19.26722725,"isDrum":true},{"pitch":42,"velocity":105,"startTime":19.137917,"endTime":19.26722725,"isDrum":true},{"pitch":42,"velocity":105,"startTime":19.3965375,"endTime":19.52584775,"isDrum":true},{"pitch":35,"velocity":105,"startTime":19.655158,"endTime":19.78446825,"isDrum":true},{"pitch":42,"velocity":105,"startTime":19.655158,"endTime":19.78446825,"isDrum":true},{"pitch":42,"velocity":105,"startTime":19.9137785,"endTime":20.043088750000003,"isDrum":true},{"pitch":38,"velocity":105,"startTime":20.172399000000002,"endTime":20.301709250000002,"isDrum":true},{"pitch":39,"velocity":105,"startTime":20.172399000000002,"endTime":20.301709250000002,"isDrum":true},{"pitch":40,"velocity":105,"startTime":20.172399000000002,"endTime":20.301709250000002,"isDrum":true},{"pitch":42,"velocity":105,"startTime":20.172399000000002,"endTime":20.301709250000002,"isDrum":true},{"pitch":42,"velocity":105,"startTime":20.4310195,"endTime":20.56032975,"isDrum":true},{"pitch":35,"velocity":105,"startTime":20.68964,"endTime":20.81895025,"isDrum":true},{"pitch":42,"velocity":105,"startTime":20.68964,"endTime":20.81895025,"isDrum":true},{"pitch":42,"velocity":105,"startTime":20.9482605,"endTime":21.07757075,"isDrum":true},{"pitch":38,"velocity":105,"startTime":21.206881000000003,"endTime":21.336191250000002,"isDrum":true},{"pitch":39,"velocity":105,"startTime":21.206881000000003,"endTime":21.336191250000002,"isDrum":true},{"pitch":40,"velocity":105,"startTime":21.206881000000003,"endTime":21.336191250000002,"isDrum":true},{"pitch":42,"velocity":105,"startTime":21.206881000000003,"endTime":21.336191250000002,"isDrum":true},{"pitch":42,"velocity":105,"startTime":21.465501500000002,"endTime":21.59481175,"isDrum":true},{"pitch":35,"velocity":105,"startTime":21.724122,"endTime":21.85343225,"isDrum":true},{"pitch":42,"velocity":105,"startTime":21.724122,"endTime":21.85343225,"isDrum":true},{"pitch":42,"velocity":105,"startTime":21.9827425,"endTime":22.11205275,"isDrum":true},{"pitch":38,"velocity":105,"startTime":22.241363,"endTime":22.370673250000003,"isDrum":true},{"pitch":39,"velocity":105,"startTime":22.241363,"endTime":22.370673250000003,"isDrum":true},{"pitch":40,"velocity":105,"startTime":22.241363,"endTime":22.370673250000003,"isDrum":true},{"pitch":42,"velocity":105,"startTime":22.241363,"endTime":22.370673250000003,"isDrum":true},{"pitch":42,"velocity":105,"startTime":22.499983500000003,"endTime":22.629293750000002,"isDrum":true},{"pitch":35,"velocity":105,"startTime":22.758604000000002,"endTime":22.88791425,"isDrum":true},{"pitch":42,"velocity":105,"startTime":22.758604000000002,"endTime":22.88791425,"isDrum":true},{"pitch":42,"velocity":105,"startTime":23.0172245,"endTime":23.14653475,"isDrum":true},{"pitch":38,"velocity":105,"startTime":23.275845,"endTime":23.40515525,"isDrum":true},{"pitch":39,"velocity":105,"startTime":23.275845,"endTime":23.40515525,"isDrum":true},{"pitch":40,"velocity":105,"startTime":23.275845,"endTime":23.40515525,"isDrum":true},{"pitch":42,"velocity":105,"startTime":23.275845,"endTime":23.40515525,"isDrum":true},{"pitch":42,"velocity":105,"startTime":23.5344655,"endTime":23.663775750000003,"isDrum":true},{"pitch":35,"velocity":105,"startTime":23.793086000000002,"endTime":23.922396250000002,"isDrum":true},{"pitch":42,"velocity":105,"startTime":23.793086000000002,"endTime":23.922396250000002,"isDrum":true},{"pitch":42,"velocity":105,"startTime":24.0517065,"endTime":24.18101675,"isDrum":true},{"pitch":38,"velocity":105,"startTime":24.310327,"endTime":24.43963725,"isDrum":true},{"pitch":39,"velocity":105,"startTime":24.310327,"endTime":24.43963725,"isDrum":true},{"pitch":40,"velocity":105,"startTime":24.310327,"endTime":24.43963725,"isDrum":true},{"pitch":42,"velocity":105,"startTime":24.310327,"endTime":24.43963725,"isDrum":true},{"pitch":42,"velocity":105,"startTime":24.5689475,"endTime":24.69825775,"isDrum":true},{"pitch":35,"velocity":105,"startTime":24.827568000000003,"endTime":24.956878250000003,"isDrum":true},{"pitch":42,"velocity":105,"startTime":24.827568000000003,"endTime":24.956878250000003,"isDrum":true},{"pitch":42,"velocity":105,"startTime":25.086188500000002,"endTime":25.215498750000002,"isDrum":true},{"pitch":38,"velocity":105,"startTime":25.344809,"endTime":25.47411925,"isDrum":true},{"pitch":39,"velocity":105,"startTime":25.344809,"endTime":25.47411925,"isDrum":true},{"pitch":40,"velocity":105,"startTime":25.344809,"endTime":25.47411925,"isDrum":true},{"pitch":42,"velocity":105,"startTime":25.344809,"endTime":25.47411925,"isDrum":true},{"pitch":42,"velocity":105,"startTime":25.6034295,"endTime":25.73273975,"isDrum":true},{"pitch":35,"velocity":105,"startTime":25.86205,"endTime":25.991360250000003,"isDrum":true},{"pitch":42,"velocity":105,"startTime":25.86205,"endTime":25.991360250000003,"isDrum":true},{"pitch":42,"velocity":105,"startTime":26.120670500000003,"endTime":26.249980750000002,"isDrum":true},{"pitch":38,"velocity":105,"startTime":26.379291000000002,"endTime":26.50860125,"isDrum":true},{"pitch":39,"velocity":105,"startTime":26.379291000000002,"endTime":26.50860125,"isDrum":true},{"pitch":40,"velocity":105,"startTime":26.379291000000002,"endTime":26.50860125,"isDrum":true},{"pitch":42,"velocity":105,"startTime":26.379291000000002,"endTime":26.50860125,"isDrum":true},{"pitch":42,"velocity":105,"startTime":26.6379115,"endTime":26.76722175,"isDrum":true},{"pitch":35,"velocity":105,"startTime":26.896532,"endTime":27.02584225,"isDrum":true},{"pitch":42,"velocity":105,"startTime":26.896532,"endTime":27.02584225,"isDrum":true},{"pitch":42,"velocity":105,"startTime":27.1551525,"endTime":27.284462750000003,"isDrum":true},{"pitch":38,"velocity":105,"startTime":27.413773000000003,"endTime":27.543083250000002,"isDrum":true},{"pitch":39,"velocity":105,"startTime":27.413773000000003,"endTime":27.543083250000002,"isDrum":true},{"pitch":40,"velocity":105,"startTime":27.413773000000003,"endTime":27.543083250000002,"isDrum":true},{"pitch":42,"velocity":105,"startTime":27.413773000000003,"endTime":27.543083250000002,"isDrum":true},{"pitch":42,"velocity":105,"startTime":27.672393500000002,"endTime":27.80170375,"isDrum":true},{"pitch":35,"velocity":105,"startTime":27.931014,"endTime":28.06032425,"isDrum":true},{"pitch":42,"velocity":105,"startTime":27.931014,"endTime":28.06032425,"isDrum":true},{"pitch":42,"velocity":105,"startTime":28.1896345,"endTime":28.31894475,"isDrum":true},{"pitch":38,"velocity":105,"startTime":28.448255000000003,"endTime":28.577565250000003,"isDrum":true},{"pitch":39,"velocity":105,"startTime":28.448255000000003,"endTime":28.577565250000003,"isDrum":true},{"pitch":40,"velocity":105,"startTime":28.448255000000003,"endTime":28.577565250000003,"isDrum":true},{"pitch":42,"velocity":105,"startTime":28.448255000000003,"endTime":28.577565250000003,"isDrum":true},{"pitch":42,"velocity":105,"startTime":28.706875500000002,"endTime":28.836185750000002,"isDrum":true},{"pitch":35,"velocity":105,"startTime":28.965496,"endTime":29.09480625,"isDrum":true},{"pitch":42,"velocity":105,"startTime":28.965496,"endTime":29.09480625,"isDrum":true},{"pitch":42,"velocity":105,"startTime":29.2241165,"endTime":29.35342675,"isDrum":true},{"pitch":38,"velocity":105,"startTime":29.482737,"endTime":29.612047250000003,"isDrum":true},{"pitch":39,"velocity":105,"startTime":29.482737,"endTime":29.612047250000003,"isDrum":true},{"pitch":40,"velocity":105,"startTime":29.482737,"endTime":29.612047250000003,"isDrum":true},{"pitch":42,"velocity":105,"startTime":29.482737,"endTime":29.612047250000003,"isDrum":true},{"pitch":42,"velocity":105,"startTime":29.741357500000003,"endTime":29.870667750000003,"isDrum":true},{"pitch":35,"velocity":105,"startTime":29.999978000000002,"endTime":30.129288250000002,"isDrum":true},{"pitch":42,"velocity":105,"startTime":29.999978000000002,"endTime":30.129288250000002,"isDrum":true},{"pitch":42,"velocity":105,"startTime":30.2585985,"endTime":30.38790875,"isDrum":true},{"pitch":38,"velocity":105,"startTime":30.517219,"endTime":30.64652925,"isDrum":true},{"pitch":39,"velocity":105,"startTime":30.517219,"endTime":30.64652925,"isDrum":true},{"pitch":40,"velocity":105,"startTime":30.517219,"endTime":30.64652925,"isDrum":true},{"pitch":42,"velocity":105,"startTime":30.517219,"endTime":30.64652925,"isDrum":true},{"pitch":42,"velocity":105,"startTime":30.7758395,"endTime":30.905149750000003,"isDrum":true},{"pitch":60,"velocity":123,"startTime":16.8103325,"endTime":17.068953,"instrument":1,"program":4},{"pitch":64,"velocity":123,"startTime":16.8103325,"endTime":17.068953,"instrument":1,"program":4},{"pitch":66,"velocity":123,"startTime":16.8103325,"endTime":17.068953,"instrument":1,"program":4},{"pitch":69,"velocity":123,"startTime":16.8103325,"endTime":17.068953,"instrument":1,"program":4},{"pitch":60,"velocity":123,"startTime":17.3275735,"endTime":17.844814500000002,"instrument":1,"program":4},{"pitch":64,"velocity":123,"startTime":17.3275735,"endTime":17.844814500000002,"instrument":1,"program":4},{"pitch":66,"velocity":123,"startTime":17.3275735,"endTime":17.844814500000002,"instrument":1,"program":4},{"pitch":69,"velocity":123,"startTime":17.3275735,"endTime":17.844814500000002,"instrument":1,"program":4},{"pitch":61,"velocity":123,"startTime":19.3965375,"endTime":20.68964,"instrument":1,"program":4},{"pitch":64,"velocity":123,"startTime":19.3965375,"endTime":20.68964,"instrument":1,"program":4},{"pitch":68,"velocity":123,"startTime":19.3965375,"endTime":20.68964,"instrument":1,"program":4},{"pitch":69,"velocity":123,"startTime":19.3965375,"endTime":20.68964,"instrument":1,"program":4},{"pitch":60,"velocity":123,"startTime":20.9482605,"endTime":21.206881000000003,"instrument":1,"program":4},{"pitch":64,"velocity":123,"startTime":20.9482605,"endTime":21.206881000000003,"instrument":1,"program":4},{"pitch":66,"velocity":123,"startTime":20.9482605,"endTime":21.206881000000003,"instrument":1,"program":4},{"pitch":69,"velocity":123,"startTime":20.9482605,"endTime":21.206881000000003,"instrument":1,"program":4},{"pitch":60,"velocity":123,"startTime":21.465501500000002,"endTime":22.241363,"instrument":1,"program":4},{"pitch":62,"velocity":123,"startTime":21.465501500000002,"endTime":22.241363,"instrument":1,"program":4},{"pitch":66,"velocity":123,"startTime":21.465501500000002,"endTime":22.241363,"instrument":1,"program":4},{"pitch":69,"velocity":123,"startTime":21.465501500000002,"endTime":22.241363,"instrument":1,"program":4},{"pitch":62,"velocity":123,"startTime":22.499983500000003,"endTime":22.758604000000002,"instrument":1,"program":4},{"pitch":66,"velocity":123,"startTime":22.499983500000003,"endTime":22.758604000000002,"instrument":1,"program":4},{"pitch":69,"velocity":123,"startTime":22.499983500000003,"endTime":22.758604000000002,"instrument":1,"program":4},{"pitch":71,"velocity":123,"startTime":22.499983500000003,"endTime":22.758604000000002,"instrument":1,"program":4},{"pitch":62,"velocity":123,"startTime":23.0172245,"endTime":23.5344655,"instrument":1,"program":4},{"pitch":66,"velocity":123,"startTime":23.0172245,"endTime":23.5344655,"instrument":1,"program":4},{"pitch":69,"velocity":123,"startTime":23.0172245,"endTime":23.5344655,"instrument":1,"program":4},{"pitch":71,"velocity":123,"startTime":23.0172245,"endTime":23.5344655,"instrument":1,"program":4},{"pitch":62,"velocity":123,"startTime":23.793086000000002,"endTime":24.0517065,"instrument":1,"program":4},{"pitch":66,"velocity":123,"startTime":23.793086000000002,"endTime":24.0517065,"instrument":1,"program":4},{"pitch":69,"velocity":123,"startTime":23.793086000000002,"endTime":24.0517065,"instrument":1,"program":4},{"pitch":72,"velocity":123,"startTime":23.793086000000002,"endTime":24.0517065,"instrument":1,"program":4},{"pitch":62,"velocity":123,"startTime":24.310327,"endTime":24.5689475,"instrument":1,"program":4},{"pitch":66,"velocity":123,"startTime":24.310327,"endTime":24.5689475,"instrument":1,"program":4},{"pitch":69,"velocity":123,"startTime":24.310327,"endTime":24.5689475,"instrument":1,"program":4},{"pitch":72,"velocity":123,"startTime":24.310327,"endTime":24.5689475,"instrument":1,"program":4},{"pitch":62,"velocity":123,"startTime":24.827568000000003,"endTime":25.086188500000002,"instrument":1,"program":4},{"pitch":64,"velocity":123,"startTime":24.827568000000003,"endTime":25.086188500000002,"instrument":1,"program":4},{"pitch":68,"velocity":123,"startTime":24.827568000000003,"endTime":25.086188500000002,"instrument":1,"program":4},{"pitch":71,"velocity":123,"startTime":24.827568000000003,"endTime":25.086188500000002,"instrument":1,"program":4},{"pitch":62,"velocity":123,"startTime":25.344809,"endTime":25.6034295,"instrument":1,"program":4},{"pitch":64,"velocity":123,"startTime":25.344809,"endTime":25.6034295,"instrument":1,"program":4},{"pitch":68,"velocity":123,"startTime":25.344809,"endTime":25.6034295,"instrument":1,"program":4},{"pitch":71,"velocity":123,"startTime":25.344809,"endTime":25.6034295,"instrument":1,"program":4},{"pitch":61,"velocity":123,"startTime":26.120670500000003,"endTime":26.810325166666665,"instrument":1,"program":4},{"pitch":64,"velocity":123,"startTime":26.120670500000003,"endTime":26.810325166666665,"instrument":1,"program":4},{"pitch":68,"velocity":123,"startTime":26.120670500000003,"endTime":26.810325166666665,"instrument":1,"program":4},{"pitch":71,"velocity":123,"startTime":26.120670500000003,"endTime":26.810325166666665,"instrument":1,"program":4},{"pitch":61,"velocity":123,"startTime":26.896532,"endTime":27.1551525,"instrument":1,"program":4},{"pitch":64,"velocity":123,"startTime":26.896532,"endTime":27.1551525,"instrument":1,"program":4},{"pitch":68,"velocity":123,"startTime":26.896532,"endTime":27.1551525,"instrument":1,"program":4},{"pitch":71,"velocity":123,"startTime":26.896532,"endTime":27.1551525,"instrument":1,"program":4},{"pitch":61,"velocity":123,"startTime":27.413773000000003,"endTime":27.672393500000002,"instrument":1,"program":4},{"pitch":64,"velocity":123,"startTime":27.413773000000003,"endTime":27.672393500000002,"instrument":1,"program":4},{"pitch":68,"velocity":123,"startTime":27.413773000000003,"endTime":27.672393500000002,"instrument":1,"program":4},{"pitch":71,"velocity":123,"startTime":27.413773000000003,"endTime":27.672393500000002,"instrument":1,"program":4},{"pitch":61,"velocity":123,"startTime":27.931014,"endTime":28.1896345,"instrument":1,"program":4},{"pitch":64,"velocity":123,"startTime":27.931014,"endTime":28.1896345,"instrument":1,"program":4},{"pitch":68,"velocity":123,"startTime":27.931014,"endTime":28.1896345,"instrument":1,"program":4},{"pitch":71,"velocity":123,"startTime":27.931014,"endTime":28.1896345,"instrument":1,"program":4},{"pitch":61,"velocity":123,"startTime":28.448255000000003,"endTime":28.706875500000002,"instrument":1,"program":4},{"pitch":64,"velocity":123,"startTime":28.448255000000003,"endTime":28.706875500000002,"instrument":1,"program":4},{"pitch":68,"velocity":123,"startTime":28.448255000000003,"endTime":28.706875500000002,"instrument":1,"program":4},{"pitch":71,"velocity":123,"startTime":28.448255000000003,"endTime":28.706875500000002,"instrument":1,"program":4},{"pitch":60,"velocity":123,"startTime":28.965496,"endTime":29.2241165,"instrument":1,"program":4},{"pitch":64,"velocity":123,"startTime":28.965496,"endTime":29.2241165,"instrument":1,"program":4},{"pitch":67,"velocity":123,"startTime":28.965496,"endTime":29.2241165,"instrument":1,"program":4},{"pitch":69,"velocity":123,"startTime":28.965496,"endTime":29.2241165,"instrument":1,"program":4},{"pitch":60,"velocity":123,"startTime":29.482737,"endTime":29.741357500000003,"instrument":1,"program":4},{"pitch":62,"velocity":123,"startTime":29.482737,"endTime":29.741357500000003,"instrument":1,"program":4},{"pitch":66,"velocity":123,"startTime":29.482737,"endTime":29.741357500000003,"instrument":1,"program":4},{"pitch":69,"velocity":123,"startTime":29.482737,"endTime":29.741357500000003,"instrument":1,"program":4},{"pitch":62,"velocity":123,"startTime":30.2585985,"endTime":30.517219,"instrument":1,"program":4},{"pitch":66,"velocity":123,"startTime":30.2585985,"endTime":30.517219,"instrument":1,"program":4},{"pitch":69,"velocity":123,"startTime":30.2585985,"endTime":30.517219,"instrument":1,"program":4},{"pitch":71,"velocity":123,"startTime":30.2585985,"endTime":30.517219,"instrument":1,"program":4},{"pitch":62,"velocity":123,"startTime":30.517219,"endTime":30.7758395,"instrument":1,"program":4},{"pitch":66,"velocity":123,"startTime":30.517219,"endTime":30.7758395,"instrument":1,"program":4},{"pitch":69,"velocity":123,"startTime":30.517219,"endTime":30.7758395,"instrument":1,"program":4},{"pitch":71,"velocity":123,"startTime":30.517219,"endTime":30.7758395,"instrument":1,"program":4},{"pitch":59,"velocity":123,"startTime":31.034460000000003,"endTime":31.293080500000002,"instrument":1,"program":4},{"pitch":62,"velocity":123,"startTime":31.034460000000003,"endTime":31.293080500000002,"instrument":1,"program":4},{"pitch":66,"velocity":123,"startTime":31.034460000000003,"endTime":31.293080500000002,"instrument":1,"program":4},{"pitch":69,"velocity":123,"startTime":31.034460000000003,"endTime":31.293080500000002,"instrument":1,"program":4},{"pitch":59,"velocity":123,"startTime":31.551701,"endTime":31.8103215,"instrument":1,"program":4},{"pitch":62,"velocity":123,"startTime":31.551701,"endTime":31.8103215,"instrument":1,"program":4},{"pitch":66,"velocity":123,"startTime":31.551701,"endTime":31.8103215,"instrument":1,"program":4},{"pitch":69,"velocity":123,"startTime":31.551701,"endTime":31.8103215,"instrument":1,"program":4},{"pitch":59,"velocity":123,"startTime":32.068942,"endTime":32.3275625,"instrument":1,"program":4},{"pitch":62,"velocity":123,"startTime":32.068942,"endTime":32.3275625,"instrument":1,"program":4},{"pitch":66,"velocity":123,"startTime":32.068942,"endTime":32.3275625,"instrument":1,"program":4},{"pitch":69,"velocity":123,"startTime":32.068942,"endTime":32.3275625,"instrument":1,"program":4},{"pitch":59,"velocity":123,"startTime":32.586183,"endTime":32.844803500000005,"instrument":1,"program":4},{"pitch":62,"velocity":123,"startTime":32.586183,"endTime":32.844803500000005,"instrument":1,"program":4},{"pitch":66,"velocity":123,"startTime":32.586183,"endTime":32.844803500000005,"instrument":1,"program":4},{"pitch":69,"velocity":123,"startTime":32.586183,"endTime":32.844803500000005,"instrument":1,"program":4},{"pitch":52,"velocity":123,"startTime":16.8103325,"endTime":16.85343591666667,"instrument":2,"program":27},{"pitch":56,"velocity":123,"startTime":17.068953,"endTime":17.112056416666668,"instrument":2,"program":27},{"pitch":56,"velocity":123,"startTime":17.19826325,"endTime":17.284470083333332,"instrument":2,"program":27},{"pitch":56,"velocity":123,"startTime":17.3275735,"endTime":17.37067691666667,"instrument":2,"program":27},{"pitch":56,"velocity":123,"startTime":17.586194000000003,"endTime":17.62929741666667,"instrument":2,"program":27},{"pitch":56,"velocity":123,"startTime":17.715504250000002,"endTime":17.801711083333334,"instrument":2,"program":27},{"pitch":56,"velocity":123,"startTime":17.844814500000002,"endTime":17.97412475,"instrument":2,"program":27},{"pitch":56,"velocity":123,"startTime":18.103435,"endTime":18.23274525,"instrument":2,"program":27},{"pitch":56,"velocity":123,"startTime":18.3620555,"endTime":18.448262333333336,"instrument":2,"program":27},{"pitch":56,"velocity":123,"startTime":18.620676,"endTime":18.663779416666667,"instrument":2,"program":27},{"pitch":56,"velocity":123,"startTime":18.749986250000003,"endTime":18.836193083333335,"instrument":2,"program":27},{"pitch":56,"velocity":123,"startTime":18.879296500000002,"endTime":18.922399916666667,"instrument":2,"program":27},{"pitch":56,"velocity":123,"startTime":19.137917,"endTime":19.26722725,"instrument":2,"program":27},{"pitch":56,"velocity":123,"startTime":19.3965375,"endTime":19.482744333333333,"instrument":2,"program":27},{"pitch":59,"velocity":123,"startTime":19.655158,"endTime":19.698261416666668,"instrument":2,"program":27},{"pitch":59,"velocity":123,"startTime":19.78446825,"endTime":19.870675083333335,"instrument":2,"program":27},{"pitch":59,"velocity":123,"startTime":19.9137785,"endTime":20.043088750000003,"instrument":2,"program":27},{"pitch":59,"velocity":123,"startTime":20.172399000000002,"endTime":20.301709250000002,"instrument":2,"program":27},{"pitch":52,"velocity":123,"startTime":20.4310195,"endTime":20.56032975,"instrument":2,"program":27},{"pitch":60,"velocity":123,"startTime":20.68964,"endTime":20.73274341666667,"instrument":2,"program":27},{"pitch":60,"velocity":123,"startTime":20.81895025,"endTime":20.905157083333336,"instrument":2,"program":27},{"pitch":60,"velocity":123,"startTime":20.9482605,"endTime":21.07757075,"instrument":2,"program":27},{"pitch":60,"velocity":123,"startTime":21.206881000000003,"endTime":21.336191250000002,"instrument":2,"program":27},{"pitch":60,"velocity":123,"startTime":21.465501500000002,"endTime":21.59481175,"instrument":2,"program":27},{"pitch":62,"velocity":123,"startTime":21.9827425,"endTime":22.02584591666667,"instrument":2,"program":27},{"pitch":62,"velocity":123,"startTime":22.241363,"endTime":22.284466416666667,"instrument":2,"program":27},{"pitch":62,"velocity":123,"startTime":22.499983500000003,"endTime":22.543086916666667,"instrument":2,"program":27},{"pitch":59,"velocity":123,"startTime":22.758604000000002,"endTime":22.80170741666667,"instrument":2,"program":27},{"pitch":59,"velocity":123,"startTime":22.88791425,"endTime":22.974121083333333,"instrument":2,"program":27},{"pitch":59,"velocity":123,"startTime":23.0172245,"endTime":23.14653475,"instrument":2,"program":27},{"pitch":59,"velocity":123,"startTime":23.275845,"endTime":23.40515525,"instrument":2,"program":27},{"pitch":59,"velocity":123,"startTime":23.40515525,"endTime":23.491362083333335,"instrument":2,"program":27},{"pitch":62,"velocity":123,"startTime":23.5344655,"endTime":23.663775750000003,"instrument":2,"program":27},{"pitch":59,"velocity":123,"startTime":23.663775750000003,"endTime":23.749982583333335,"instrument":2,"program":27},{"pitch":62,"velocity":123,"startTime":23.793086000000002,"endTime":23.836189416666667,"instrument":2,"program":27},{"pitch":62,"velocity":123,"startTime":23.922396250000002,"endTime":24.008603083333334,"instrument":2,"program":27},{"pitch":62,"velocity":123,"startTime":24.0517065,"endTime":24.18101675,"instrument":2,"program":27},{"pitch":62,"velocity":123,"startTime":24.310327,"endTime":24.43963725,"instrument":2,"program":27},{"pitch":64,"velocity":123,"startTime":24.43963725,"endTime":24.525844083333336,"instrument":2,"program":27},{"pitch":59,"velocity":123,"startTime":24.827568000000003,"endTime":24.956878250000003,"instrument":2,"program":27},{"pitch":59,"velocity":123,"startTime":24.956878250000003,"endTime":25.043085083333338,"instrument":2,"program":27},{"pitch":59,"velocity":123,"startTime":25.086188500000002,"endTime":25.215498750000002,"instrument":2,"program":27},{"pitch":59,"velocity":123,"startTime":25.215498750000002,"endTime":25.301705583333337,"instrument":2,"program":27},{"pitch":59,"velocity":123,"startTime":25.344809,"endTime":25.47411925,"instrument":2,"program":27},{"pitch":59,"velocity":123,"startTime":25.47411925,"endTime":25.56032608333334,"instrument":2,"program":27},{"pitch":56,"velocity":123,"startTime":26.379291000000002,"endTime":26.422394416666663,"instrument":2,"program":27},{"pitch":56,"velocity":123,"startTime":26.50860125,"endTime":26.594808083333337,"instrument":2,"program":27},{"pitch":56,"velocity":123,"startTime":26.6379115,"endTime":26.76722175,"instrument":2,"program":27},{"pitch":63,"velocity":123,"startTime":26.896532,"endTime":26.939635416666665,"instrument":2,"program":27},{"pitch":63,"velocity":123,"startTime":27.02584225,"endTime":27.11204908333334,"instrument":2,"program":27},{"pitch":63,"velocity":123,"startTime":27.1551525,"endTime":27.198255916666664,"instrument":2,"program":27},{"pitch":63,"velocity":123,"startTime":27.413773000000003,"endTime":27.543083250000002,"instrument":2,"program":27},{"pitch":63,"velocity":123,"startTime":27.672393500000002,"endTime":27.80170375,"instrument":2,"program":27},{"pitch":54,"velocity":123,"startTime":28.1896345,"endTime":28.232737916666665,"instrument":2,"program":27},{"pitch":54,"velocity":123,"startTime":28.31894475,"endTime":28.448255000000003,"instrument":2,"program":27},{"pitch":57,"velocity":123,"startTime":28.448255000000003,"endTime":28.577565250000003,"instrument":2,"program":27},{"pitch":57,"velocity":123,"startTime":28.706875500000002,"endTime":28.836185750000002,"instrument":2,"program":27},{"pitch":60,"velocity":123,"startTime":29.2241165,"endTime":29.267219916666665,"instrument":2,"program":27},{"pitch":60,"velocity":123,"startTime":29.35342675,"endTime":29.43963358333334,"instrument":2,"program":27},{"pitch":60,"velocity":123,"startTime":29.482737,"endTime":29.525840416666664,"instrument":2,"program":27},{"pitch":60,"velocity":123,"startTime":29.741357500000003,"endTime":29.870667750000003,"instrument":2,"program":27},{"pitch":62,"velocity":123,"startTime":29.999978000000002,"endTime":30.043081416666663,"instrument":2,"program":27},{"pitch":62,"velocity":123,"startTime":30.129288250000002,"endTime":30.215495083333337,"instrument":2,"program":27},{"pitch":62,"velocity":123,"startTime":30.2585985,"endTime":30.38790875,"instrument":2,"program":27},{"pitch":62,"velocity":123,"startTime":30.517219,"endTime":30.64652925,"instrument":2,"program":27},{"pitch":62,"velocity":123,"startTime":30.64652925,"endTime":30.73273608333334,"instrument":2,"program":27},{"pitch":62,"velocity":123,"startTime":30.7758395,"endTime":30.905149750000003,"instrument":2,"program":27},{"pitch":59,"velocity":123,"startTime":31.293080500000002,"endTime":31.336183916666666,"instrument":2,"program":27},{"pitch":59,"velocity":123,"startTime":31.42239075,"endTime":31.50859758333334,"instrument":2,"program":27},{"pitch":59,"velocity":123,"startTime":31.551701,"endTime":31.594804416666666,"instrument":2,"program":27},{"pitch":59,"velocity":123,"startTime":31.68101125,"endTime":31.76721808333334,"instrument":2,"program":27},{"pitch":59,"velocity":123,"startTime":31.8103215,"endTime":31.89652833333334,"instrument":2,"program":27},{"pitch":59,"velocity":123,"startTime":32.068942,"endTime":32.11204541666667,"instrument":2,"program":27},{"pitch":59,"velocity":123,"startTime":32.19825225,"endTime":32.28445908333334,"instrument":2,"program":27},{"pitch":59,"velocity":123,"startTime":32.3275625,"endTime":32.45687275,"instrument":2,"program":27},{"pitch":59,"velocity":123,"startTime":32.586183,"endTime":32.71549325,"instrument":2,"program":27},{"pitch":59,"velocity":123,"startTime":32.71549325,"endTime":32.80170008333334,"instrument":2,"program":27},{"pitch":38,"velocity":117,"startTime":16.93964275,"endTime":17.025849583333333,"instrument":4,"program":35},{"pitch":40,"velocity":117,"startTime":17.068953,"endTime":17.19826325,"instrument":4,"program":35},{"pitch":38,"velocity":117,"startTime":17.19826325,"endTime":17.284470083333332,"instrument":4,"program":35},{"pitch":32,"velocity":117,"startTime":17.3275735,"endTime":17.586194000000003,"instrument":4,"program":35},{"pitch":32,"velocity":117,"startTime":17.586194000000003,"endTime":18.01722816666667,"instrument":4,"program":35},{"pitch":32,"velocity":117,"startTime":18.103435,"endTime":18.534469166666668,"instrument":4,"program":35},{"pitch":33,"velocity":117,"startTime":19.655158,"endTime":19.78446825,"instrument":4,"program":35},{"pitch":33,"velocity":117,"startTime":19.9137785,"endTime":20.172399000000002,"instrument":4,"program":35},{"pitch":33,"velocity":117,"startTime":20.172399000000002,"endTime":20.4310195,"instrument":4,"program":35},{"pitch":28,"velocity":117,"startTime":20.4310195,"endTime":20.68964,"instrument":4,"program":35},{"pitch":36,"velocity":117,"startTime":21.07757075,"endTime":21.163777583333335,"instrument":4,"program":35},{"pitch":40,"velocity":117,"startTime":21.206881000000003,"endTime":21.336191250000002,"instrument":4,"program":35},{"pitch":36,"velocity":117,"startTime":21.336191250000002,"endTime":21.465501500000002,"instrument":4,"program":35},{"pitch":38,"velocity":117,"startTime":21.465501500000002,"endTime":21.59481175,"instrument":4,"program":35},{"pitch":28,"velocity":117,"startTime":24.827568000000003,"endTime":25.344809,"instrument":4,"program":35},{"pitch":33,"velocity":117,"startTime":28.448255000000003,"endTime":28.965496,"instrument":4,"program":35},{"pitch":38,"velocity":117,"startTime":32.068942,"endTime":32.49997616666666,"instrument":4,"program":35},{"pitch":36,"velocity":105,"startTime":33.103424000000004,"endTime":33.18963083333334,"isDrum":true},{"pitch":42,"velocity":105,"startTime":33.103424000000004,"endTime":33.18963083333334,"isDrum":true},{"pitch":42,"velocity":105,"startTime":33.3620445,"endTime":33.44825133333334,"isDrum":true},{"pitch":36,"velocity":105,"startTime":33.620665,"endTime":33.70687183333334,"isDrum":true},{"pitch":38,"velocity":105,"startTime":33.620665,"endTime":33.70687183333334,"isDrum":true},{"pitch":39,"velocity":105,"startTime":33.620665,"endTime":33.70687183333334,"isDrum":true},{"pitch":42,"velocity":105,"startTime":33.620665,"endTime":33.70687183333334,"isDrum":true},{"pitch":69,"velocity":105,"startTime":33.620665,"endTime":33.70687183333334,"isDrum":true},{"pitch":42,"velocity":105,"startTime":33.8792855,"endTime":33.96549233333334,"isDrum":true},{"pitch":36,"velocity":105,"startTime":34.137906,"endTime":34.224112833333336,"isDrum":true},{"pitch":42,"velocity":105,"startTime":34.137906,"endTime":34.224112833333336,"isDrum":true},{"pitch":42,"velocity":105,"startTime":34.3965265,"endTime":34.48273333333334,"isDrum":true},{"pitch":36,"velocity":105,"startTime":34.655147,"endTime":34.74135383333334,"isDrum":true},{"pitch":38,"velocity":105,"startTime":34.655147,"endTime":34.74135383333334,"isDrum":true},{"pitch":39,"velocity":105,"startTime":34.655147,"endTime":34.74135383333334,"isDrum":true},{"pitch":42,"velocity":105,"startTime":34.655147,"endTime":34.74135383333334,"isDrum":true},{"pitch":69,"velocity":105,"startTime":34.655147,"endTime":34.74135383333334,"isDrum":true},{"pitch":42,"velocity":105,"startTime":34.9137675,"endTime":34.99997433333334,"isDrum":true},{"pitch":36,"velocity":105,"startTime":35.172388000000005,"endTime":35.25859483333334,"isDrum":true},{"pitch":42,"velocity":105,"startTime":35.172388000000005,"endTime":35.25859483333334,"isDrum":true},{"pitch":42,"velocity":105,"startTime":35.431008500000004,"endTime":35.51721533333333,"isDrum":true},{"pitch":36,"velocity":105,"startTime":35.689629000000004,"endTime":35.77583583333333,"isDrum":true},{"pitch":38,"velocity":105,"startTime":35.689629000000004,"endTime":35.77583583333333,"isDrum":true},{"pitch":39,"velocity":105,"startTime":35.689629000000004,"endTime":35.77583583333333,"isDrum":true},{"pitch":42,"velocity":105,"startTime":35.689629000000004,"endTime":35.77583583333333,"isDrum":true},{"pitch":69,"velocity":105,"startTime":35.689629000000004,"endTime":35.77583583333333,"isDrum":true},{"pitch":42,"velocity":105,"startTime":35.9482495,"endTime":36.03445633333334,"isDrum":true},{"pitch":36,"velocity":105,"startTime":36.20687,"endTime":36.29307683333334,"isDrum":true},{"pitch":42,"velocity":105,"startTime":36.20687,"endTime":36.29307683333334,"isDrum":true},{"pitch":42,"velocity":105,"startTime":36.4654905,"endTime":36.55169733333334,"isDrum":true},{"pitch":36,"velocity":105,"startTime":36.724111,"endTime":36.810317833333336,"isDrum":true},{"pitch":38,"velocity":105,"startTime":36.724111,"endTime":36.810317833333336,"isDrum":true},{"pitch":39,"velocity":105,"startTime":36.724111,"endTime":36.810317833333336,"isDrum":true},{"pitch":42,"velocity":105,"startTime":36.724111,"endTime":36.810317833333336,"isDrum":true},{"pitch":69,"velocity":105,"startTime":36.724111,"endTime":36.810317833333336,"isDrum":true},{"pitch":42,"velocity":105,"startTime":36.9827315,"endTime":37.068938333333335,"isDrum":true},{"pitch":36,"velocity":105,"startTime":37.241352,"endTime":37.327558833333335,"isDrum":true},{"pitch":42,"velocity":105,"startTime":37.241352,"endTime":37.327558833333335,"isDrum":true},{"pitch":42,"velocity":105,"startTime":37.499972500000005,"endTime":37.586179333333334,"isDrum":true},{"pitch":36,"velocity":105,"startTime":37.758593000000005,"endTime":37.84479983333333,"isDrum":true},{"pitch":38,"velocity":105,"startTime":37.758593000000005,"endTime":37.84479983333333,"isDrum":true},{"pitch":39,"velocity":105,"startTime":37.758593000000005,"endTime":37.84479983333333,"isDrum":true},{"pitch":42,"velocity":105,"startTime":37.758593000000005,"endTime":37.84479983333333,"isDrum":true},{"pitch":69,"velocity":105,"startTime":37.758593000000005,"endTime":37.84479983333333,"isDrum":true},{"pitch":42,"velocity":105,"startTime":38.017213500000004,"endTime":38.10342033333333,"isDrum":true},{"pitch":36,"velocity":105,"startTime":38.275834,"endTime":38.36204083333334,"isDrum":true},{"pitch":42,"velocity":105,"startTime":38.275834,"endTime":38.36204083333334,"isDrum":true},{"pitch":42,"velocity":105,"startTime":38.5344545,"endTime":38.62066133333334,"isDrum":true},{"pitch":36,"velocity":105,"startTime":38.793075,"endTime":38.87928183333334,"isDrum":true},{"pitch":38,"velocity":105,"startTime":38.793075,"endTime":38.87928183333334,"isDrum":true},{"pitch":39,"velocity":105,"startTime":38.793075,"endTime":38.87928183333334,"isDrum":true},{"pitch":42,"velocity":105,"startTime":38.793075,"endTime":38.87928183333334,"isDrum":true},{"pitch":69,"velocity":105,"startTime":38.793075,"endTime":38.87928183333334,"isDrum":true},{"pitch":42,"velocity":105,"startTime":39.0516955,"endTime":39.13790233333334,"isDrum":true},{"pitch":36,"velocity":105,"startTime":39.310316,"endTime":39.396522833333336,"isDrum":true},{"pitch":42,"velocity":105,"startTime":39.310316,"endTime":39.396522833333336,"isDrum":true},{"pitch":42,"velocity":105,"startTime":39.5689365,"endTime":39.655143333333335,"isDrum":true},{"pitch":36,"velocity":105,"startTime":39.827557,"endTime":39.913763833333334,"isDrum":true},{"pitch":38,"velocity":105,"startTime":39.827557,"endTime":39.913763833333334,"isDrum":true},{"pitch":39,"velocity":105,"startTime":39.827557,"endTime":39.913763833333334,"isDrum":true},{"pitch":42,"velocity":105,"startTime":39.827557,"endTime":39.913763833333334,"isDrum":true},{"pitch":69,"velocity":105,"startTime":39.827557,"endTime":39.913763833333334,"isDrum":true},{"pitch":42,"velocity":105,"startTime":40.086177500000005,"endTime":40.17238433333333,"isDrum":true},{"pitch":36,"velocity":105,"startTime":40.344798000000004,"endTime":40.43100483333333,"isDrum":true},{"pitch":42,"velocity":105,"startTime":40.344798000000004,"endTime":40.43100483333333,"isDrum":true},{"pitch":42,"velocity":105,"startTime":40.603418500000004,"endTime":40.68962533333334,"isDrum":true},{"pitch":36,"velocity":105,"startTime":40.862039,"endTime":40.94824583333334,"isDrum":true},{"pitch":38,"velocity":105,"startTime":40.862039,"endTime":40.94824583333334,"isDrum":true},{"pitch":39,"velocity":105,"startTime":40.862039,"endTime":40.94824583333334,"isDrum":true},{"pitch":42,"velocity":105,"startTime":40.862039,"endTime":40.94824583333334,"isDrum":true},{"pitch":69,"velocity":105,"startTime":40.862039,"endTime":40.94824583333334,"isDrum":true},{"pitch":42,"velocity":105,"startTime":41.1206595,"endTime":41.20686633333334,"isDrum":true},{"pitch":36,"velocity":105,"startTime":41.37928,"endTime":41.46548683333334,"isDrum":true},{"pitch":42,"velocity":105,"startTime":41.37928,"endTime":41.46548683333334,"isDrum":true},{"pitch":42,"velocity":105,"startTime":41.6379005,"endTime":41.724107333333336,"isDrum":true},{"pitch":36,"velocity":105,"startTime":41.896521,"endTime":41.982727833333335,"isDrum":true},{"pitch":38,"velocity":105,"startTime":41.896521,"endTime":41.982727833333335,"isDrum":true},{"pitch":39,"velocity":105,"startTime":41.896521,"endTime":41.982727833333335,"isDrum":true},{"pitch":42,"velocity":105,"startTime":41.896521,"endTime":41.982727833333335,"isDrum":true},{"pitch":69,"velocity":105,"startTime":41.896521,"endTime":41.982727833333335,"isDrum":true},{"pitch":42,"velocity":105,"startTime":42.1551415,"endTime":42.241348333333335,"isDrum":true},{"pitch":36,"velocity":105,"startTime":42.413762000000006,"endTime":42.499968833333334,"isDrum":true},{"pitch":42,"velocity":105,"startTime":42.413762000000006,"endTime":42.499968833333334,"isDrum":true},{"pitch":42,"velocity":105,"startTime":42.672382500000005,"endTime":42.75858933333333,"isDrum":true},{"pitch":36,"velocity":105,"startTime":42.931003000000004,"endTime":43.01720983333333,"isDrum":true},{"pitch":38,"velocity":105,"startTime":42.931003000000004,"endTime":43.01720983333333,"isDrum":true},{"pitch":39,"velocity":105,"startTime":42.931003000000004,"endTime":43.01720983333333,"isDrum":true},{"pitch":42,"velocity":105,"startTime":42.931003000000004,"endTime":43.01720983333333,"isDrum":true},{"pitch":69,"velocity":105,"startTime":42.931003000000004,"endTime":43.01720983333333,"isDrum":true},{"pitch":42,"velocity":105,"startTime":43.1896235,"endTime":43.27583033333334,"isDrum":true},{"pitch":36,"velocity":105,"startTime":43.448244,"endTime":43.53445083333334,"isDrum":true},{"pitch":42,"velocity":105,"startTime":43.448244,"endTime":43.53445083333334,"isDrum":true},{"pitch":42,"velocity":105,"startTime":43.7068645,"endTime":43.79307133333334,"isDrum":true},{"pitch":36,"velocity":105,"startTime":43.965485,"endTime":44.05169183333334,"isDrum":true},{"pitch":38,"velocity":105,"startTime":43.965485,"endTime":44.05169183333334,"isDrum":true},{"pitch":39,"velocity":105,"startTime":43.965485,"endTime":44.05169183333334,"isDrum":true},{"pitch":42,"velocity":105,"startTime":43.965485,"endTime":44.05169183333334,"isDrum":true},{"pitch":69,"velocity":105,"startTime":43.965485,"endTime":44.05169183333334,"isDrum":true},{"pitch":42,"velocity":105,"startTime":44.2241055,"endTime":44.310312333333336,"isDrum":true},{"pitch":36,"velocity":105,"startTime":44.482726,"endTime":44.568932833333335,"isDrum":true},{"pitch":42,"velocity":105,"startTime":44.482726,"endTime":44.568932833333335,"isDrum":true},{"pitch":42,"velocity":105,"startTime":44.741346500000006,"endTime":44.827553333333334,"isDrum":true},{"pitch":36,"velocity":105,"startTime":44.999967000000005,"endTime":45.08617383333333,"isDrum":true},{"pitch":38,"velocity":105,"startTime":44.999967000000005,"endTime":45.08617383333333,"isDrum":true},{"pitch":39,"velocity":105,"startTime":44.999967000000005,"endTime":45.08617383333333,"isDrum":true},{"pitch":42,"velocity":105,"startTime":44.999967000000005,"endTime":45.08617383333333,"isDrum":true},{"pitch":69,"velocity":105,"startTime":44.999967000000005,"endTime":45.08617383333333,"isDrum":true},{"pitch":42,"velocity":105,"startTime":45.258587500000004,"endTime":45.34479433333333,"isDrum":true},{"pitch":36,"velocity":105,"startTime":45.517208000000004,"endTime":45.60341483333334,"isDrum":true},{"pitch":42,"velocity":105,"startTime":45.517208000000004,"endTime":45.60341483333334,"isDrum":true},{"pitch":42,"velocity":105,"startTime":45.7758285,"endTime":45.86203533333334,"isDrum":true},{"pitch":36,"velocity":105,"startTime":46.034449,"endTime":46.12065583333334,"isDrum":true},{"pitch":38,"velocity":105,"startTime":46.034449,"endTime":46.12065583333334,"isDrum":true},{"pitch":39,"velocity":105,"startTime":46.034449,"endTime":46.12065583333334,"isDrum":true},{"pitch":42,"velocity":105,"startTime":46.034449,"endTime":46.12065583333334,"isDrum":true},{"pitch":69,"velocity":105,"startTime":46.034449,"endTime":46.12065583333334,"isDrum":true},{"pitch":42,"velocity":105,"startTime":46.2930695,"endTime":46.37927633333334,"isDrum":true},{"pitch":60,"velocity":123,"startTime":33.103424000000004,"endTime":33.3620445,"instrument":1,"program":4},{"pitch":64,"velocity":123,"startTime":33.103424000000004,"endTime":33.3620445,"instrument":1,"program":4},{"pitch":66,"velocity":123,"startTime":33.103424000000004,"endTime":33.3620445,"instrument":1,"program":4},{"pitch":69,"velocity":123,"startTime":33.103424000000004,"endTime":33.3620445,"instrument":1,"program":4},{"pitch":60,"velocity":123,"startTime":33.620665,"endTime":33.8792855,"instrument":1,"program":4},{"pitch":64,"velocity":123,"startTime":33.620665,"endTime":33.8792855,"instrument":1,"program":4},{"pitch":66,"velocity":123,"startTime":33.620665,"endTime":33.8792855,"instrument":1,"program":4},{"pitch":69,"velocity":123,"startTime":33.620665,"endTime":33.8792855,"instrument":1,"program":4},{"pitch":60,"velocity":123,"startTime":34.137906,"endTime":34.3965265,"instrument":1,"program":4},{"pitch":63,"velocity":123,"startTime":34.137906,"endTime":34.3965265,"instrument":1,"program":4},{"pitch":66,"velocity":123,"startTime":34.137906,"endTime":34.3965265,"instrument":1,"program":4},{"pitch":68,"velocity":123,"startTime":34.137906,"endTime":34.3965265,"instrument":1,"program":4},{"pitch":60,"velocity":123,"startTime":34.655147,"endTime":34.9137675,"instrument":1,"program":4},{"pitch":63,"velocity":123,"startTime":34.655147,"endTime":34.9137675,"instrument":1,"program":4},{"pitch":66,"velocity":123,"startTime":34.655147,"endTime":34.9137675,"instrument":1,"program":4},{"pitch":68,"velocity":123,"startTime":34.655147,"endTime":34.9137675,"instrument":1,"program":4},{"pitch":61,"velocity":123,"startTime":35.431008500000004,"endTime":35.56031875,"instrument":1,"program":4},{"pitch":66,"velocity":123,"startTime":35.431008500000004,"endTime":35.56031875,"instrument":1,"program":4},{"pitch":68,"velocity":123,"startTime":35.431008500000004,"endTime":35.56031875,"instrument":1,"program":4},{"pitch":70,"velocity":123,"startTime":35.431008500000004,"endTime":35.56031875,"instrument":1,"program":4},{"pitch":61,"velocity":123,"startTime":35.689629000000004,"endTime":35.9482495,"instrument":1,"program":4},{"pitch":66,"velocity":123,"startTime":35.689629000000004,"endTime":35.9482495,"instrument":1,"program":4},{"pitch":68,"velocity":123,"startTime":35.689629000000004,"endTime":35.9482495,"instrument":1,"program":4},{"pitch":70,"velocity":123,"startTime":35.689629000000004,"endTime":35.9482495,"instrument":1,"program":4},{"pitch":61,"velocity":123,"startTime":36.20687,"endTime":36.50859391666667,"instrument":1,"program":4},{"pitch":64,"velocity":123,"startTime":36.20687,"endTime":36.50859391666667,"instrument":1,"program":4},{"pitch":66,"velocity":123,"startTime":36.20687,"endTime":36.50859391666667,"instrument":1,"program":4},{"pitch":69,"velocity":123,"startTime":36.20687,"endTime":36.50859391666667,"instrument":1,"program":4},{"pitch":61,"velocity":123,"startTime":36.724111,"endTime":36.9827315,"instrument":1,"program":4},{"pitch":64,"velocity":123,"startTime":36.724111,"endTime":36.9827315,"instrument":1,"program":4},{"pitch":66,"velocity":123,"startTime":36.724111,"endTime":36.9827315,"instrument":1,"program":4},{"pitch":69,"velocity":123,"startTime":36.724111,"endTime":36.9827315,"instrument":1,"program":4},{"pitch":60,"velocity":123,"startTime":37.241352,"endTime":37.499972500000005,"instrument":1,"program":4},{"pitch":64,"velocity":123,"startTime":37.241352,"endTime":37.499972500000005,"instrument":1,"program":4},{"pitch":67,"velocity":123,"startTime":37.241352,"endTime":37.499972500000005,"instrument":1,"program":4},{"pitch":69,"velocity":123,"startTime":37.241352,"endTime":37.499972500000005,"instrument":1,"program":4},{"pitch":60,"velocity":123,"startTime":37.758593000000005,"endTime":38.017213500000004,"instrument":1,"program":4},{"pitch":64,"velocity":123,"startTime":37.758593000000005,"endTime":38.017213500000004,"instrument":1,"program":4},{"pitch":67,"velocity":123,"startTime":37.758593000000005,"endTime":38.017213500000004,"instrument":1,"program":4},{"pitch":69,"velocity":123,"startTime":37.758593000000005,"endTime":38.017213500000004,"instrument":1,"program":4},{"pitch":62,"velocity":123,"startTime":38.275834,"endTime":38.5344545,"instrument":1,"program":4},{"pitch":64,"velocity":123,"startTime":38.275834,"endTime":38.5344545,"instrument":1,"program":4},{"pitch":69,"velocity":123,"startTime":38.275834,"endTime":38.5344545,"instrument":1,"program":4},{"pitch":62,"velocity":123,"startTime":39.0516955,"endTime":39.5689365,"instrument":1,"program":4},{"pitch":66,"velocity":123,"startTime":39.0516955,"endTime":39.5689365,"instrument":1,"program":4},{"pitch":69,"velocity":123,"startTime":39.0516955,"endTime":39.5689365,"instrument":1,"program":4},{"pitch":62,"velocity":123,"startTime":39.827557,"endTime":40.086177500000005,"instrument":1,"program":4},{"pitch":66,"velocity":123,"startTime":39.827557,"endTime":40.086177500000005,"instrument":1,"program":4},{"pitch":69,"velocity":123,"startTime":39.827557,"endTime":40.086177500000005,"instrument":1,"program":4},{"pitch":62,"velocity":123,"startTime":40.344798000000004,"endTime":40.603418500000004,"instrument":1,"program":4},{"pitch":66,"velocity":123,"startTime":40.344798000000004,"endTime":40.603418500000004,"instrument":1,"program":4},{"pitch":69,"velocity":123,"startTime":40.344798000000004,"endTime":40.603418500000004,"instrument":1,"program":4},{"pitch":62,"velocity":123,"startTime":40.862039,"endTime":41.1206595,"instrument":1,"program":4},{"pitch":66,"velocity":123,"startTime":40.862039,"endTime":41.1206595,"instrument":1,"program":4},{"pitch":69,"velocity":123,"startTime":40.862039,"endTime":41.1206595,"instrument":1,"program":4},{"pitch":62,"velocity":123,"startTime":41.37928,"endTime":41.6379005,"instrument":1,"program":4},{"pitch":64,"velocity":123,"startTime":41.37928,"endTime":41.6379005,"instrument":1,"program":4},{"pitch":67,"velocity":123,"startTime":41.37928,"endTime":41.6379005,"instrument":1,"program":4},{"pitch":62,"velocity":123,"startTime":41.896521,"endTime":42.11203808333334,"instrument":1,"program":4},{"pitch":64,"velocity":123,"startTime":41.896521,"endTime":42.11203808333334,"instrument":1,"program":4},{"pitch":67,"velocity":123,"startTime":41.896521,"endTime":42.11203808333334,"instrument":1,"program":4},{"pitch":63,"velocity":123,"startTime":42.1551415,"endTime":42.672382500000005,"instrument":1,"program":4},{"pitch":66,"velocity":123,"startTime":42.1551415,"endTime":42.672382500000005,"instrument":1,"program":4},{"pitch":68,"velocity":123,"startTime":42.1551415,"endTime":42.672382500000005,"instrument":1,"program":4},{"pitch":72,"velocity":123,"startTime":42.1551415,"endTime":42.672382500000005,"instrument":1,"program":4},{"pitch":66,"velocity":123,"startTime":42.931003000000004,"endTime":43.1896235,"instrument":1,"program":4},{"pitch":68,"velocity":123,"startTime":42.931003000000004,"endTime":43.1896235,"instrument":1,"program":4},{"pitch":72,"velocity":123,"startTime":42.931003000000004,"endTime":43.1896235,"instrument":1,"program":4},{"pitch":59,"velocity":123,"startTime":43.448244,"endTime":43.7068645,"instrument":1,"program":4},{"pitch":64,"velocity":123,"startTime":43.448244,"endTime":43.7068645,"instrument":1,"program":4},{"pitch":68,"velocity":123,"startTime":43.448244,"endTime":43.7068645,"instrument":1,"program":4},{"pitch":59,"velocity":123,"startTime":43.965485,"endTime":44.2241055,"instrument":1,"program":4},{"pitch":64,"velocity":123,"startTime":43.965485,"endTime":44.2241055,"instrument":1,"program":4},{"pitch":68,"velocity":123,"startTime":43.965485,"endTime":44.2241055,"instrument":1,"program":4},{"pitch":60,"velocity":123,"startTime":44.482726,"endTime":44.741346500000006,"instrument":1,"program":4},{"pitch":64,"velocity":123,"startTime":44.482726,"endTime":44.741346500000006,"instrument":1,"program":4},{"pitch":69,"velocity":123,"startTime":44.482726,"endTime":44.741346500000006,"instrument":1,"program":4},{"pitch":60,"velocity":123,"startTime":44.999967000000005,"endTime":45.21548408333334,"instrument":1,"program":4},{"pitch":64,"velocity":123,"startTime":44.999967000000005,"endTime":45.21548408333334,"instrument":1,"program":4},{"pitch":69,"velocity":123,"startTime":44.999967000000005,"endTime":45.21548408333334,"instrument":1,"program":4},{"pitch":60,"velocity":123,"startTime":45.258587500000004,"endTime":45.7758285,"instrument":1,"program":4},{"pitch":64,"velocity":123,"startTime":45.258587500000004,"endTime":45.7758285,"instrument":1,"program":4},{"pitch":67,"velocity":123,"startTime":45.258587500000004,"endTime":45.7758285,"instrument":1,"program":4},{"pitch":60,"velocity":123,"startTime":46.034449,"endTime":46.2930695,"instrument":1,"program":4},{"pitch":64,"velocity":123,"startTime":46.034449,"endTime":46.2930695,"instrument":1,"program":4},{"pitch":67,"velocity":123,"startTime":46.034449,"endTime":46.2930695,"instrument":1,"program":4},{"pitch":60,"velocity":123,"startTime":46.55169,"endTime":46.8103105,"instrument":1,"program":4},{"pitch":64,"velocity":123,"startTime":46.55169,"endTime":46.8103105,"instrument":1,"program":4},{"pitch":67,"velocity":123,"startTime":46.55169,"endTime":46.8103105,"instrument":1,"program":4},{"pitch":60,"velocity":123,"startTime":47.068931,"endTime":47.327551500000006,"instrument":1,"program":4},{"pitch":64,"velocity":123,"startTime":47.068931,"endTime":47.327551500000006,"instrument":1,"program":4},{"pitch":67,"velocity":123,"startTime":47.068931,"endTime":47.327551500000006,"instrument":1,"program":4},{"pitch":62,"velocity":123,"startTime":47.586172000000005,"endTime":47.844792500000004,"instrument":1,"program":4},{"pitch":66,"velocity":123,"startTime":47.586172000000005,"endTime":47.844792500000004,"instrument":1,"program":4},{"pitch":69,"velocity":123,"startTime":47.586172000000005,"endTime":47.844792500000004,"instrument":1,"program":4},{"pitch":62,"velocity":123,"startTime":48.103413,"endTime":48.318930083333335,"instrument":1,"program":4},{"pitch":66,"velocity":123,"startTime":48.103413,"endTime":48.318930083333335,"instrument":1,"program":4},{"pitch":69,"velocity":123,"startTime":48.103413,"endTime":48.318930083333335,"instrument":1,"program":4},{"pitch":62,"velocity":123,"startTime":48.8792745,"endTime":49.008584750000004,"instrument":1,"program":4},{"pitch":64,"velocity":123,"startTime":48.8792745,"endTime":49.008584750000004,"instrument":1,"program":4},{"pitch":69,"velocity":123,"startTime":48.8792745,"endTime":49.008584750000004,"instrument":1,"program":4},{"pitch":62,"velocity":123,"startTime":49.137895,"endTime":49.3965155,"instrument":1,"program":4},{"pitch":64,"velocity":123,"startTime":49.137895,"endTime":49.3965155,"instrument":1,"program":4},{"pitch":69,"velocity":123,"startTime":49.137895,"endTime":49.3965155,"instrument":1,"program":4},{"pitch":56,"velocity":123,"startTime":33.3620445,"endTime":33.405147916666664,"instrument":2,"program":27},{"pitch":56,"velocity":123,"startTime":33.49135475,"endTime":33.57756158333334,"instrument":2,"program":27},{"pitch":61,"velocity":123,"startTime":33.620665,"endTime":33.74997525,"instrument":2,"program":27},{"pitch":56,"velocity":123,"startTime":33.8792855,"endTime":34.008595750000005,"instrument":2,"program":27},{"pitch":56,"velocity":123,"startTime":34.137906,"endTime":34.18100941666666,"instrument":2,"program":27},{"pitch":56,"velocity":123,"startTime":34.3965265,"endTime":34.52583675,"instrument":2,"program":27},{"pitch":56,"velocity":123,"startTime":34.52583675,"endTime":34.61204358333334,"instrument":2,"program":27},{"pitch":56,"velocity":123,"startTime":34.655147,"endTime":34.78445725,"instrument":2,"program":27},{"pitch":56,"velocity":123,"startTime":34.9137675,"endTime":34.99997433333334,"instrument":2,"program":27},{"pitch":55,"velocity":123,"startTime":35.172388000000005,"endTime":35.215491416666666,"instrument":2,"program":27},{"pitch":55,"velocity":123,"startTime":35.30169825,"endTime":35.431008500000004,"instrument":2,"program":27},{"pitch":54,"velocity":123,"startTime":35.431008500000004,"endTime":35.56031875,"instrument":2,"program":27},{"pitch":54,"velocity":123,"startTime":35.689629000000004,"endTime":35.81893925,"instrument":2,"program":27},{"pitch":54,"velocity":123,"startTime":35.9482495,"endTime":36.03445633333334,"instrument":2,"program":27},{"pitch":54,"velocity":123,"startTime":36.20687,"endTime":36.24997341666667,"instrument":2,"program":27},{"pitch":54,"velocity":123,"startTime":36.336180250000005,"endTime":36.422387083333334,"instrument":2,"program":27},{"pitch":54,"velocity":123,"startTime":36.4654905,"endTime":36.594800750000005,"instrument":2,"program":27},{"pitch":54,"velocity":123,"startTime":36.724111,"endTime":36.853421250000004,"instrument":2,"program":27},{"pitch":54,"velocity":123,"startTime":36.9827315,"endTime":37.11204175,"instrument":2,"program":27},{"pitch":57,"velocity":123,"startTime":37.241352,"endTime":37.28445541666667,"instrument":2,"program":27},{"pitch":57,"velocity":123,"startTime":37.37066225,"endTime":37.45686908333334,"instrument":2,"program":27},{"pitch":54,"velocity":123,"startTime":37.499972500000005,"endTime":37.62928275,"instrument":2,"program":27},{"pitch":55,"velocity":123,"startTime":37.758593000000005,"endTime":37.88790325,"instrument":2,"program":27},{"pitch":54,"velocity":123,"startTime":38.017213500000004,"endTime":38.06031691666667,"instrument":2,"program":27},{"pitch":54,"velocity":123,"startTime":38.14652375,"endTime":38.18962716666667,"instrument":2,"program":27},{"pitch":62,"velocity":123,"startTime":38.275834,"endTime":38.31893741666667,"instrument":2,"program":27},{"pitch":62,"velocity":123,"startTime":38.5344545,"endTime":38.57755791666667,"instrument":2,"program":27},{"pitch":62,"velocity":123,"startTime":38.793075,"endTime":38.922385250000005,"instrument":2,"program":27},{"pitch":62,"velocity":123,"startTime":39.0516955,"endTime":39.181005750000004,"instrument":2,"program":27},{"pitch":54,"velocity":123,"startTime":39.5689365,"endTime":39.61203991666667,"instrument":2,"program":27},{"pitch":54,"velocity":123,"startTime":39.69824675,"endTime":39.78445358333334,"instrument":2,"program":27},{"pitch":54,"velocity":123,"startTime":39.827557,"endTime":39.87066041666667,"instrument":2,"program":27},{"pitch":54,"velocity":123,"startTime":39.95686725,"endTime":40.04307408333334,"instrument":2,"program":27},{"pitch":54,"velocity":123,"startTime":40.086177500000005,"endTime":40.21548775,"instrument":2,"program":27},{"pitch":54,"velocity":123,"startTime":40.603418500000004,"endTime":40.64652191666667,"instrument":2,"program":27},{"pitch":54,"velocity":123,"startTime":40.73272875,"endTime":40.818935583333335,"instrument":2,"program":27},{"pitch":54,"velocity":123,"startTime":40.862039,"endTime":40.90514241666667,"instrument":2,"program":27},{"pitch":54,"velocity":123,"startTime":40.99134925,"endTime":41.03445266666667,"instrument":2,"program":27},{"pitch":54,"velocity":123,"startTime":41.1206595,"endTime":41.20686633333334,"instrument":2,"program":27},{"pitch":59,"velocity":123,"startTime":41.37928,"endTime":41.42238341666667,"instrument":2,"program":27},{"pitch":59,"velocity":123,"startTime":41.6379005,"endTime":41.767210750000004,"instrument":2,"program":27},{"pitch":59,"velocity":123,"startTime":41.767210750000004,"endTime":41.85341758333334,"instrument":2,"program":27},{"pitch":59,"velocity":123,"startTime":41.896521,"endTime":42.02583125,"instrument":2,"program":27},{"pitch":59,"velocity":123,"startTime":42.1551415,"endTime":42.28445175,"instrument":2,"program":27},{"pitch":60,"velocity":123,"startTime":42.672382500000005,"endTime":42.71548591666667,"instrument":2,"program":27},{"pitch":60,"velocity":123,"startTime":42.80169275,"endTime":42.887899583333336,"instrument":2,"program":27},{"pitch":60,"velocity":123,"startTime":42.931003000000004,"endTime":42.97410641666667,"instrument":2,"program":27},{"pitch":60,"velocity":123,"startTime":43.06031325,"endTime":43.10341666666667,"instrument":2,"program":27},{"pitch":60,"velocity":123,"startTime":43.1896235,"endTime":43.31893375,"instrument":2,"program":27},{"pitch":61,"velocity":123,"startTime":43.448244,"endTime":43.49134741666667,"instrument":2,"program":27},{"pitch":61,"velocity":123,"startTime":43.7068645,"endTime":43.836174750000005,"instrument":2,"program":27},{"pitch":61,"velocity":123,"startTime":43.965485,"endTime":44.094795250000004,"instrument":2,"program":27},{"pitch":61,"velocity":123,"startTime":44.094795250000004,"endTime":44.18100208333333,"instrument":2,"program":27},{"pitch":61,"velocity":123,"startTime":44.2241055,"endTime":44.310312333333336,"instrument":2,"program":27},{"pitch":57,"velocity":123,"startTime":44.482726,"endTime":44.52582941666667,"instrument":2,"program":27},{"pitch":57,"velocity":123,"startTime":44.741346500000006,"endTime":44.87065675,"instrument":2,"program":27},{"pitch":57,"velocity":123,"startTime":44.87065675,"endTime":44.95686358333334,"instrument":2,"program":27},{"pitch":60,"velocity":123,"startTime":44.999967000000005,"endTime":45.12927725,"instrument":2,"program":27},{"pitch":57,"velocity":123,"startTime":45.12927725,"endTime":45.258587500000004,"instrument":2,"program":27},{"pitch":60,"velocity":123,"startTime":45.7758285,"endTime":45.81893191666667,"instrument":2,"program":27},{"pitch":60,"velocity":123,"startTime":45.905138750000006,"endTime":45.991345583333334,"instrument":2,"program":27},{"pitch":60,"velocity":123,"startTime":46.034449,"endTime":46.163759250000005,"instrument":2,"program":27},{"pitch":60,"velocity":123,"startTime":46.163759250000005,"endTime":46.2930695,"instrument":2,"program":27},{"pitch":60,"velocity":123,"startTime":46.55169,"endTime":46.8103105,"instrument":2,"program":27},{"pitch":60,"velocity":123,"startTime":46.8103105,"endTime":46.93962075,"instrument":2,"program":27},{"pitch":60,"velocity":123,"startTime":47.068931,"endTime":47.19824125,"instrument":2,"program":27},{"pitch":57,"velocity":123,"startTime":47.19824125,"endTime":47.28444808333334,"instrument":2,"program":27},{"pitch":55,"velocity":123,"startTime":47.327551500000006,"endTime":47.413758333333334,"instrument":2,"program":27},{"pitch":57,"velocity":123,"startTime":47.586172000000005,"endTime":47.62927541666667,"instrument":2,"program":27},{"pitch":57,"velocity":123,"startTime":47.71548225,"endTime":47.801689083333336,"instrument":2,"program":27},{"pitch":54,"velocity":123,"startTime":47.844792500000004,"endTime":47.97410275,"instrument":2,"program":27},{"pitch":54,"velocity":123,"startTime":47.97410275,"endTime":48.060309583333336,"instrument":2,"program":27},{"pitch":59,"velocity":123,"startTime":48.103413,"endTime":48.23272325,"instrument":2,"program":27},{"pitch":57,"velocity":123,"startTime":48.23272325,"endTime":48.318930083333335,"instrument":2,"program":27},{"pitch":57,"velocity":123,"startTime":48.3620335,"endTime":48.44824033333334,"instrument":2,"program":27},{"pitch":59,"velocity":123,"startTime":48.8792745,"endTime":48.92237791666667,"instrument":2,"program":27},{"pitch":59,"velocity":123,"startTime":49.008584750000004,"endTime":49.09479158333334,"instrument":2,"program":27},{"pitch":59,"velocity":123,"startTime":49.137895,"endTime":49.18099841666667,"instrument":2,"program":27},{"pitch":59,"velocity":123,"startTime":49.26720525,"endTime":49.35341208333334,"instrument":2,"program":27},{"pitch":59,"velocity":123,"startTime":49.3965155,"endTime":49.52582575,"instrument":2,"program":27},{"pitch":50,"velocity":123,"startTime":48.620654,"endTime":49.655136000000006,"instrument":3,"program":34},{"pitch":44,"velocity":117,"startTime":33.8792855,"endTime":34.008595750000005,"instrument":4,"program":35},{"pitch":44,"velocity":117,"startTime":34.137906,"endTime":34.310319666666665,"instrument":4,"program":35},{"pitch":30,"velocity":117,"startTime":35.172388000000005,"endTime":35.34480166666667,"instrument":4,"program":35},{"pitch":33,"velocity":117,"startTime":36.20687,"endTime":36.336180250000005,"instrument":4,"program":35},{"pitch":33,"velocity":117,"startTime":36.4654905,"endTime":36.594800750000005,"instrument":4,"program":35},{"pitch":35,"velocity":117,"startTime":37.499972500000005,"endTime":37.62928275,"instrument":4,"program":35},{"pitch":36,"velocity":117,"startTime":38.017213500000004,"endTime":38.14652375,"instrument":4,"program":35},{"pitch":28,"velocity":117,"startTime":38.275834,"endTime":38.44824766666667,"instrument":4,"program":35},{"pitch":35,"velocity":117,"startTime":39.310316,"endTime":39.48272966666667,"instrument":4,"program":35},{"pitch":35,"velocity":117,"startTime":40.086177500000005,"endTime":40.21548775,"instrument":4,"program":35},{"pitch":35,"velocity":117,"startTime":41.1206595,"endTime":41.249969750000005,"instrument":4,"program":35},{"pitch":35,"velocity":117,"startTime":41.249969750000005,"endTime":41.336176583333334,"instrument":4,"program":35},{"pitch":28,"velocity":117,"startTime":41.37928,"endTime":41.55169366666667,"instrument":4,"program":35},{"pitch":28,"velocity":117,"startTime":42.1551415,"endTime":42.28445175,"instrument":4,"program":35},{"pitch":32,"velocity":117,"startTime":42.413762000000006,"endTime":42.58617566666667,"instrument":4,"program":35},{"pitch":37,"velocity":117,"startTime":43.448244,"endTime":43.53445083333334,"instrument":4,"program":35},{"pitch":25,"velocity":117,"startTime":43.577554250000006,"endTime":43.663761083333334,"instrument":4,"program":35},{"pitch":37,"velocity":117,"startTime":43.7068645,"endTime":43.836174750000005,"instrument":4,"program":35},{"pitch":38,"velocity":117,"startTime":44.741346500000006,"endTime":44.87065675,"instrument":4,"program":35},{"pitch":38,"velocity":117,"startTime":44.999967000000005,"endTime":45.08617383333333,"instrument":4,"program":35},{"pitch":40,"velocity":117,"startTime":45.12927725,"endTime":45.21548408333334,"instrument":4,"program":35},{"pitch":38,"velocity":117,"startTime":45.258587500000004,"endTime":45.474104583333336,"instrument":4,"program":35},{"pitch":36,"velocity":117,"startTime":45.517208000000004,"endTime":45.68962166666667,"instrument":4,"program":35},{"pitch":38,"velocity":117,"startTime":46.2930695,"endTime":46.422379750000005,"instrument":4,"program":35},{"pitch":38,"velocity":117,"startTime":46.55169,"endTime":46.72410366666667,"instrument":4,"program":35},{"pitch":38,"velocity":117,"startTime":46.8103105,"endTime":46.93962075,"instrument":4,"program":35},{"pitch":38,"velocity":117,"startTime":47.068931,"endTime":47.24134466666667,"instrument":4,"program":35},{"pitch":35,"velocity":117,"startTime":48.8792745,"endTime":49.008584750000004,"instrument":4,"program":35},{"pitch":35,"velocity":117,"startTime":49.008584750000004,"endTime":49.137895,"instrument":4,"program":35},{"pitch":38,"velocity":117,"startTime":49.137895,"endTime":49.26720525,"instrument":4,"program":35},{"pitch":35,"velocity":117,"startTime":49.26720525,"endTime":49.35341208333334,"instrument":4,"program":35},{"pitch":33,"velocity":117,"startTime":49.3965155,"endTime":49.52582575,"instrument":4,"program":35},{"pitch":35,"velocity":118,"startTime":47.586172000000005,"endTime":47.844792500000004,"instrument":5,"program":87},{"pitch":38,"velocity":118,"startTime":49.3965155,"endTime":49.655136000000006,"instrument":5,"program":87},{"pitch":35,"velocity":105,"startTime":49.655136000000006,"endTime":49.78444625,"isDrum":true},{"pitch":42,"velocity":105,"startTime":49.655136000000006,"endTime":49.78444625,"isDrum":true},{"pitch":42,"velocity":105,"startTime":49.913756500000005,"endTime":50.04306675,"isDrum":true},{"pitch":38,"velocity":105,"startTime":50.172377000000004,"endTime":50.30168725,"isDrum":true},{"pitch":39,"velocity":105,"startTime":50.172377000000004,"endTime":50.30168725,"isDrum":true},{"pitch":42,"velocity":105,"startTime":50.172377000000004,"endTime":50.30168725,"isDrum":true},{"pitch":69,"velocity":105,"startTime":50.172377000000004,"endTime":50.30168725,"isDrum":true},{"pitch":35,"velocity":105,"startTime":50.430997500000004,"endTime":50.56030775,"isDrum":true},{"pitch":42,"velocity":105,"startTime":50.430997500000004,"endTime":50.56030775,"isDrum":true},{"pitch":42,"velocity":105,"startTime":50.689618,"endTime":50.818928250000006,"isDrum":true},{"pitch":35,"velocity":105,"startTime":50.9482385,"endTime":51.077548750000005,"isDrum":true},{"pitch":46,"velocity":105,"startTime":50.9482385,"endTime":51.077548750000005,"isDrum":true},{"pitch":38,"velocity":105,"startTime":51.206859,"endTime":51.336169250000005,"isDrum":true},{"pitch":39,"velocity":105,"startTime":51.206859,"endTime":51.336169250000005,"isDrum":true},{"pitch":42,"velocity":105,"startTime":51.206859,"endTime":51.336169250000005,"isDrum":true},{"pitch":69,"velocity":105,"startTime":51.206859,"endTime":51.336169250000005,"isDrum":true},{"pitch":35,"velocity":105,"startTime":51.4654795,"endTime":51.594789750000004,"isDrum":true},{"pitch":42,"velocity":105,"startTime":51.4654795,"endTime":51.594789750000004,"isDrum":true},{"pitch":35,"velocity":105,"startTime":51.7241,"endTime":51.85341025,"isDrum":true},{"pitch":42,"velocity":105,"startTime":51.7241,"endTime":51.85341025,"isDrum":true},{"pitch":42,"velocity":105,"startTime":51.85341025,"endTime":51.982720500000006,"isDrum":true},{"pitch":42,"velocity":105,"startTime":51.982720500000006,"endTime":52.11203075,"isDrum":true},{"pitch":38,"velocity":105,"startTime":52.241341000000006,"endTime":52.37065125,"isDrum":true},{"pitch":39,"velocity":105,"startTime":52.241341000000006,"endTime":52.37065125,"isDrum":true},{"pitch":42,"velocity":105,"startTime":52.241341000000006,"endTime":52.37065125,"isDrum":true},{"pitch":69,"velocity":105,"startTime":52.241341000000006,"endTime":52.37065125,"isDrum":true},{"pitch":35,"velocity":105,"startTime":52.499961500000005,"endTime":52.62927175,"isDrum":true},{"pitch":42,"velocity":105,"startTime":52.499961500000005,"endTime":52.62927175,"isDrum":true},{"pitch":42,"velocity":105,"startTime":52.758582000000004,"endTime":52.88789225,"isDrum":true},{"pitch":35,"velocity":105,"startTime":53.0172025,"endTime":53.14651275000001,"isDrum":true},{"pitch":46,"velocity":105,"startTime":53.0172025,"endTime":53.14651275000001,"isDrum":true},{"pitch":38,"velocity":105,"startTime":53.275823,"endTime":53.405133250000006,"isDrum":true},{"pitch":39,"velocity":105,"startTime":53.275823,"endTime":53.405133250000006,"isDrum":true},{"pitch":42,"velocity":105,"startTime":53.275823,"endTime":53.405133250000006,"isDrum":true},{"pitch":69,"velocity":105,"startTime":53.275823,"endTime":53.405133250000006,"isDrum":true},{"pitch":35,"velocity":105,"startTime":53.5344435,"endTime":53.663753750000005,"isDrum":true},{"pitch":42,"velocity":105,"startTime":53.5344435,"endTime":53.663753750000005,"isDrum":true},{"pitch":35,"velocity":105,"startTime":53.793064,"endTime":53.922374250000004,"isDrum":true},{"pitch":42,"velocity":105,"startTime":53.793064,"endTime":53.922374250000004,"isDrum":true},{"pitch":42,"velocity":105,"startTime":54.0516845,"endTime":54.18099475,"isDrum":true},{"pitch":38,"velocity":105,"startTime":54.310305,"endTime":54.43961525,"isDrum":true},{"pitch":39,"velocity":105,"startTime":54.310305,"endTime":54.43961525,"isDrum":true},{"pitch":42,"velocity":105,"startTime":54.310305,"endTime":54.43961525,"isDrum":true},{"pitch":69,"velocity":105,"startTime":54.310305,"endTime":54.43961525,"isDrum":true},{"pitch":35,"velocity":105,"startTime":54.568925500000006,"endTime":54.69823575,"isDrum":true},{"pitch":42,"velocity":105,"startTime":54.568925500000006,"endTime":54.69823575,"isDrum":true},{"pitch":42,"velocity":105,"startTime":54.827546000000005,"endTime":54.95685625,"isDrum":true},{"pitch":35,"velocity":105,"startTime":55.086166500000004,"endTime":55.21547675,"isDrum":true},{"pitch":46,"velocity":105,"startTime":55.086166500000004,"endTime":55.21547675,"isDrum":true},{"pitch":38,"velocity":105,"startTime":55.344787000000004,"endTime":55.47409725,"isDrum":true},{"pitch":39,"velocity":105,"startTime":55.344787000000004,"endTime":55.47409725,"isDrum":true},{"pitch":42,"velocity":105,"startTime":55.344787000000004,"endTime":55.47409725,"isDrum":true},{"pitch":69,"velocity":105,"startTime":55.344787000000004,"endTime":55.47409725,"isDrum":true},{"pitch":35,"velocity":105,"startTime":55.6034075,"endTime":55.732717750000006,"isDrum":true},{"pitch":42,"velocity":105,"startTime":55.6034075,"endTime":55.732717750000006,"isDrum":true},{"pitch":35,"velocity":105,"startTime":55.862028,"endTime":55.991338250000005,"isDrum":true},{"pitch":42,"velocity":105,"startTime":55.862028,"endTime":55.991338250000005,"isDrum":true},{"pitch":42,"velocity":105,"startTime":56.1206485,"endTime":56.249958750000005,"isDrum":true},{"pitch":38,"velocity":105,"startTime":56.379269,"endTime":56.508579250000004,"isDrum":true},{"pitch":39,"velocity":105,"startTime":56.379269,"endTime":56.508579250000004,"isDrum":true},{"pitch":42,"velocity":105,"startTime":56.379269,"endTime":56.508579250000004,"isDrum":true},{"pitch":69,"velocity":105,"startTime":56.379269,"endTime":56.508579250000004,"isDrum":true},{"pitch":35,"velocity":105,"startTime":56.6378895,"endTime":56.76719975,"isDrum":true},{"pitch":42,"velocity":105,"startTime":56.6378895,"endTime":56.76719975,"isDrum":true},{"pitch":42,"velocity":105,"startTime":56.896510000000006,"endTime":57.02582025,"isDrum":true},{"pitch":69,"velocity":105,"startTime":56.896510000000006,"endTime":57.02582025,"isDrum":true},{"pitch":35,"velocity":105,"startTime":57.155130500000006,"endTime":57.28444075,"isDrum":true},{"pitch":42,"velocity":105,"startTime":57.155130500000006,"endTime":57.28444075,"isDrum":true},{"pitch":38,"velocity":105,"startTime":57.413751000000005,"endTime":57.54306125,"isDrum":true},{"pitch":39,"velocity":105,"startTime":57.413751000000005,"endTime":57.54306125,"isDrum":true},{"pitch":42,"velocity":105,"startTime":57.413751000000005,"endTime":57.54306125,"isDrum":true},{"pitch":69,"velocity":105,"startTime":57.413751000000005,"endTime":57.54306125,"isDrum":true},{"pitch":35,"velocity":105,"startTime":57.672371500000004,"endTime":57.80168175,"isDrum":true},{"pitch":42,"velocity":105,"startTime":57.672371500000004,"endTime":57.80168175,"isDrum":true},{"pitch":35,"velocity":105,"startTime":57.930992,"endTime":58.06030225000001,"isDrum":true},{"pitch":42,"velocity":105,"startTime":57.930992,"endTime":58.06030225000001,"isDrum":true},{"pitch":38,"velocity":105,"startTime":58.448233,"endTime":58.577543250000005,"isDrum":true},{"pitch":39,"velocity":105,"startTime":58.448233,"endTime":58.577543250000005,"isDrum":true},{"pitch":42,"velocity":105,"startTime":58.448233,"endTime":58.577543250000005,"isDrum":true},{"pitch":69,"velocity":105,"startTime":58.448233,"endTime":58.577543250000005,"isDrum":true},{"pitch":35,"velocity":105,"startTime":58.7068535,"endTime":58.836163750000004,"isDrum":true},{"pitch":42,"velocity":105,"startTime":58.7068535,"endTime":58.836163750000004,"isDrum":true},{"pitch":42,"velocity":105,"startTime":58.965474,"endTime":59.094784250000004,"isDrum":true},{"pitch":35,"velocity":105,"startTime":59.22409450000001,"endTime":59.35340475,"isDrum":true},{"pitch":42,"velocity":105,"startTime":59.22409450000001,"endTime":59.35340475,"isDrum":true},{"pitch":38,"velocity":105,"startTime":59.482715000000006,"endTime":59.61202525,"isDrum":true},{"pitch":39,"velocity":105,"startTime":59.482715000000006,"endTime":59.61202525,"isDrum":true},{"pitch":42,"velocity":105,"startTime":59.482715000000006,"endTime":59.61202525,"isDrum":true},{"pitch":69,"velocity":105,"startTime":59.482715000000006,"endTime":59.61202525,"isDrum":true},{"pitch":35,"velocity":105,"startTime":59.741335500000005,"endTime":59.87064575,"isDrum":true},{"pitch":42,"velocity":105,"startTime":59.741335500000005,"endTime":59.87064575,"isDrum":true},{"pitch":35,"velocity":105,"startTime":59.999956000000005,"endTime":60.12926625,"isDrum":true},{"pitch":42,"velocity":105,"startTime":59.999956000000005,"endTime":60.12926625,"isDrum":true},{"pitch":38,"velocity":105,"startTime":60.517197,"endTime":60.646507250000006,"isDrum":true},{"pitch":39,"velocity":105,"startTime":60.517197,"endTime":60.646507250000006,"isDrum":true},{"pitch":42,"velocity":105,"startTime":60.517197,"endTime":60.646507250000006,"isDrum":true},{"pitch":69,"velocity":105,"startTime":60.517197,"endTime":60.646507250000006,"isDrum":true},{"pitch":35,"velocity":105,"startTime":60.7758175,"endTime":60.905127750000005,"isDrum":true},{"pitch":42,"velocity":105,"startTime":60.7758175,"endTime":60.905127750000005,"isDrum":true},{"pitch":42,"velocity":105,"startTime":61.034438,"endTime":61.163748250000005,"isDrum":true},{"pitch":35,"velocity":105,"startTime":61.2930585,"endTime":61.422368750000004,"isDrum":true},{"pitch":46,"velocity":105,"startTime":61.2930585,"endTime":61.422368750000004,"isDrum":true},{"pitch":38,"velocity":105,"startTime":61.551679,"endTime":61.68098925,"isDrum":true},{"pitch":39,"velocity":105,"startTime":61.551679,"endTime":61.68098925,"isDrum":true},{"pitch":42,"velocity":105,"startTime":61.551679,"endTime":61.68098925,"isDrum":true},{"pitch":69,"velocity":105,"startTime":61.551679,"endTime":61.68098925,"isDrum":true},{"pitch":35,"velocity":105,"startTime":61.810299500000006,"endTime":61.93960975,"isDrum":true},{"pitch":42,"velocity":105,"startTime":61.810299500000006,"endTime":61.93960975,"isDrum":true},{"pitch":35,"velocity":105,"startTime":62.068920000000006,"endTime":62.19823025,"isDrum":true},{"pitch":42,"velocity":105,"startTime":62.068920000000006,"endTime":62.19823025,"isDrum":true},{"pitch":38,"velocity":105,"startTime":62.586161000000004,"endTime":62.71547125,"isDrum":true},{"pitch":39,"velocity":105,"startTime":62.586161000000004,"endTime":62.71547125,"isDrum":true},{"pitch":42,"velocity":105,"startTime":62.586161000000004,"endTime":62.71547125,"isDrum":true},{"pitch":69,"velocity":105,"startTime":62.586161000000004,"endTime":62.71547125,"isDrum":true},{"pitch":35,"velocity":105,"startTime":62.8447815,"endTime":62.97409175000001,"isDrum":true},{"pitch":42,"velocity":105,"startTime":62.8447815,"endTime":62.97409175000001,"isDrum":true},{"pitch":42,"velocity":105,"startTime":63.103402,"endTime":63.232712250000006,"isDrum":true},{"pitch":35,"velocity":105,"startTime":63.3620225,"endTime":63.491332750000005,"isDrum":true},{"pitch":46,"velocity":105,"startTime":63.3620225,"endTime":63.491332750000005,"isDrum":true},{"pitch":38,"velocity":105,"startTime":63.620643,"endTime":63.749953250000004,"isDrum":true},{"pitch":39,"velocity":105,"startTime":63.620643,"endTime":63.749953250000004,"isDrum":true},{"pitch":42,"velocity":105,"startTime":63.620643,"endTime":63.749953250000004,"isDrum":true},{"pitch":69,"velocity":105,"startTime":63.620643,"endTime":63.749953250000004,"isDrum":true},{"pitch":35,"velocity":105,"startTime":63.8792635,"endTime":64.00857375000001,"isDrum":true},{"pitch":42,"velocity":105,"startTime":63.8792635,"endTime":64.00857375000001,"isDrum":true},{"pitch":42,"velocity":105,"startTime":64.137884,"endTime":64.26719425,"isDrum":true},{"pitch":69,"velocity":105,"startTime":64.137884,"endTime":64.26719425,"isDrum":true},{"pitch":35,"velocity":105,"startTime":64.3965045,"endTime":64.52581475000001,"isDrum":true},{"pitch":42,"velocity":105,"startTime":64.3965045,"endTime":64.52581475000001,"isDrum":true},{"pitch":38,"velocity":105,"startTime":64.655125,"endTime":64.78443525,"isDrum":true},{"pitch":39,"velocity":105,"startTime":64.655125,"endTime":64.78443525,"isDrum":true},{"pitch":42,"velocity":105,"startTime":64.655125,"endTime":64.78443525,"isDrum":true},{"pitch":69,"velocity":105,"startTime":64.655125,"endTime":64.78443525,"isDrum":true},{"pitch":35,"velocity":105,"startTime":64.9137455,"endTime":65.04305575000001,"isDrum":true},{"pitch":42,"velocity":105,"startTime":64.9137455,"endTime":65.04305575000001,"isDrum":true},{"pitch":62,"velocity":123,"startTime":56.896510000000006,"endTime":57.11202708333334,"instrument":1,"program":4},{"pitch":65,"velocity":123,"startTime":56.896510000000006,"endTime":57.11202708333334,"instrument":1,"program":4},{"pitch":69,"velocity":123,"startTime":56.896510000000006,"endTime":57.11202708333334,"instrument":1,"program":4},{"pitch":62,"velocity":123,"startTime":57.155130500000006,"endTime":57.28444075,"instrument":1,"program":4},{"pitch":65,"velocity":123,"startTime":57.155130500000006,"endTime":57.28444075,"instrument":1,"program":4},{"pitch":69,"velocity":123,"startTime":57.155130500000006,"endTime":57.28444075,"instrument":1,"program":4},{"pitch":62,"velocity":123,"startTime":57.672371500000004,"endTime":58.1896125,"instrument":1,"program":4},{"pitch":66,"velocity":123,"startTime":57.672371500000004,"endTime":58.1896125,"instrument":1,"program":4},{"pitch":69,"velocity":123,"startTime":57.672371500000004,"endTime":58.1896125,"instrument":1,"program":4},{"pitch":62,"velocity":123,"startTime":58.1896125,"endTime":58.318922750000006,"instrument":1,"program":4},{"pitch":66,"velocity":123,"startTime":58.1896125,"endTime":58.318922750000006,"instrument":1,"program":4},{"pitch":68,"velocity":123,"startTime":58.1896125,"endTime":58.318922750000006,"instrument":1,"program":4},{"pitch":60,"velocity":123,"startTime":59.999956000000005,"endTime":60.12926625,"instrument":1,"program":4},{"pitch":64,"velocity":123,"startTime":59.999956000000005,"endTime":60.12926625,"instrument":1,"program":4},{"pitch":69,"velocity":123,"startTime":59.999956000000005,"endTime":60.12926625,"instrument":1,"program":4},{"pitch":60,"velocity":123,"startTime":60.517197,"endTime":60.646507250000006,"instrument":1,"program":4},{"pitch":64,"velocity":123,"startTime":60.517197,"endTime":60.646507250000006,"instrument":1,"program":4},{"pitch":69,"velocity":123,"startTime":60.517197,"endTime":60.646507250000006,"instrument":1,"program":4},{"pitch":64,"velocity":123,"startTime":60.7758175,"endTime":60.905127750000005,"instrument":1,"program":4},{"pitch":69,"velocity":123,"startTime":60.7758175,"endTime":60.905127750000005,"instrument":1,"program":4},{"pitch":64,"velocity":123,"startTime":61.034438,"endTime":61.163748250000005,"instrument":1,"program":4},{"pitch":69,"velocity":123,"startTime":61.034438,"endTime":61.163748250000005,"instrument":1,"program":4},{"pitch":64,"velocity":123,"startTime":61.2930585,"endTime":61.422368750000004,"instrument":1,"program":4},{"pitch":69,"velocity":123,"startTime":61.2930585,"endTime":61.422368750000004,"instrument":1,"program":4},{"pitch":64,"velocity":123,"startTime":62.327540500000005,"endTime":62.45685075,"instrument":1,"program":4},{"pitch":67,"velocity":123,"startTime":62.327540500000005,"endTime":62.45685075,"instrument":1,"program":4},{"pitch":72,"velocity":123,"startTime":62.327540500000005,"endTime":62.45685075,"instrument":1,"program":4},{"pitch":64,"velocity":123,"startTime":62.586161000000004,"endTime":62.71547125,"instrument":1,"program":4},{"pitch":67,"velocity":123,"startTime":62.586161000000004,"endTime":62.71547125,"instrument":1,"program":4},{"pitch":72,"velocity":123,"startTime":62.586161000000004,"endTime":62.71547125,"instrument":1,"program":4},{"pitch":64,"velocity":123,"startTime":62.8447815,"endTime":62.97409175000001,"instrument":1,"program":4},{"pitch":67,"velocity":123,"startTime":62.8447815,"endTime":62.97409175000001,"instrument":1,"program":4},{"pitch":72,"velocity":123,"startTime":62.8447815,"endTime":62.97409175000001,"instrument":1,"program":4},{"pitch":57,"velocity":123,"startTime":63.8792635,"endTime":64.3965045,"instrument":1,"program":4},{"pitch":62,"velocity":123,"startTime":63.8792635,"endTime":64.3965045,"instrument":1,"program":4},{"pitch":66,"velocity":123,"startTime":63.8792635,"endTime":64.3965045,"instrument":1,"program":4},{"pitch":59,"velocity":123,"startTime":64.655125,"endTime":64.78443525,"instrument":1,"program":4},{"pitch":62,"velocity":123,"startTime":64.655125,"endTime":64.78443525,"instrument":1,"program":4},{"pitch":66,"velocity":123,"startTime":64.655125,"endTime":64.78443525,"instrument":1,"program":4},{"pitch":59,"velocity":123,"startTime":64.9137455,"endTime":65.04305575000001,"instrument":1,"program":4},{"pitch":62,"velocity":123,"startTime":64.9137455,"endTime":65.04305575000001,"instrument":1,"program":4},{"pitch":66,"velocity":123,"startTime":64.9137455,"endTime":65.04305575000001,"instrument":1,"program":4},{"pitch":59,"velocity":123,"startTime":65.172366,"endTime":65.4309865,"instrument":1,"program":4},{"pitch":62,"velocity":123,"startTime":65.172366,"endTime":65.4309865,"instrument":1,"program":4},{"pitch":66,"velocity":123,"startTime":65.172366,"endTime":65.4309865,"instrument":1,"program":4},{"pitch":55,"velocity":123,"startTime":49.655136000000006,"endTime":49.69823941666667,"instrument":2,"program":27},{"pitch":55,"velocity":123,"startTime":49.913756500000005,"endTime":49.95685991666667,"instrument":2,"program":27},{"pitch":55,"velocity":123,"startTime":50.172377000000004,"endTime":50.30168725,"instrument":2,"program":27},{"pitch":55,"velocity":123,"startTime":50.430997500000004,"endTime":50.51720433333334,"instrument":2,"program":27},{"pitch":55,"velocity":123,"startTime":50.56030775,"endTime":50.689618,"instrument":2,"program":27},{"pitch":60,"velocity":123,"startTime":50.818928250000006,"endTime":50.9482385,"instrument":2,"program":27},{"pitch":56,"velocity":123,"startTime":50.9482385,"endTime":51.077548750000005,"instrument":2,"program":27},{"pitch":60,"velocity":123,"startTime":51.206859,"endTime":51.336169250000005,"instrument":2,"program":27},{"pitch":56,"velocity":123,"startTime":51.336169250000005,"endTime":51.4654795,"instrument":2,"program":27},{"pitch":60,"velocity":123,"startTime":51.4654795,"endTime":51.594789750000004,"instrument":2,"program":27},{"pitch":61,"velocity":123,"startTime":51.7241,"endTime":51.76720341666667,"instrument":2,"program":27},{"pitch":61,"velocity":123,"startTime":51.982720500000006,"endTime":52.02582391666667,"instrument":2,"program":27},{"pitch":61,"velocity":123,"startTime":52.241341000000006,"endTime":52.37065125,"instrument":2,"program":27},{"pitch":61,"velocity":123,"startTime":52.37065125,"endTime":52.499961500000005,"instrument":2,"program":27},{"pitch":60,"velocity":123,"startTime":52.758582000000004,"endTime":52.80168541666667,"instrument":2,"program":27},{"pitch":60,"velocity":123,"startTime":53.0172025,"endTime":53.06030591666667,"instrument":2,"program":27},{"pitch":60,"velocity":123,"startTime":53.275823,"endTime":53.405133250000006,"instrument":2,"program":27},{"pitch":60,"velocity":123,"startTime":53.405133250000006,"endTime":53.5344435,"instrument":2,"program":27},{"pitch":60,"velocity":123,"startTime":53.922374250000004,"endTime":54.0516845,"instrument":2,"program":27},{"pitch":60,"velocity":123,"startTime":54.0516845,"endTime":54.18099475,"instrument":2,"program":27},{"pitch":60,"velocity":123,"startTime":54.310305,"endTime":54.43961525,"instrument":2,"program":27},{"pitch":60,"velocity":123,"startTime":54.43961525,"endTime":54.568925500000006,"instrument":2,"program":27},{"pitch":60,"velocity":123,"startTime":54.568925500000006,"endTime":54.69823575,"instrument":2,"program":27},{"pitch":60,"velocity":123,"startTime":54.95685625,"endTime":55.086166500000004,"instrument":2,"program":27},{"pitch":60,"velocity":123,"startTime":55.086166500000004,"endTime":55.17237333333334,"instrument":2,"program":27},{"pitch":60,"velocity":123,"startTime":55.344787000000004,"endTime":55.47409725,"instrument":2,"program":27},{"pitch":60,"velocity":123,"startTime":55.47409725,"endTime":55.6034075,"instrument":2,"program":27},{"pitch":54,"velocity":123,"startTime":55.862028,"endTime":55.90513141666667,"instrument":2,"program":27},{"pitch":54,"velocity":123,"startTime":55.991338250000005,"endTime":56.077545083333334,"instrument":2,"program":27},{"pitch":54,"velocity":123,"startTime":56.1206485,"endTime":56.249958750000005,"instrument":2,"program":27},{"pitch":54,"velocity":123,"startTime":56.249958750000005,"endTime":56.33616558333334,"instrument":2,"program":27},{"pitch":59,"velocity":123,"startTime":56.379269,"endTime":56.508579250000004,"instrument":2,"program":27},{"pitch":59,"velocity":123,"startTime":56.6378895,"endTime":56.76719975,"instrument":2,"program":27},{"pitch":59,"velocity":123,"startTime":57.155130500000006,"endTime":57.19823391666667,"instrument":2,"program":27},{"pitch":59,"velocity":123,"startTime":57.28444075,"endTime":57.413751000000005,"instrument":2,"program":27},{"pitch":59,"velocity":123,"startTime":57.413751000000005,"endTime":57.54306125,"instrument":2,"program":27},{"pitch":59,"velocity":123,"startTime":57.672371500000004,"endTime":57.80168175,"instrument":2,"program":27},{"pitch":59,"velocity":123,"startTime":57.930992,"endTime":57.97409541666667,"instrument":2,"program":27},{"pitch":59,"velocity":123,"startTime":58.06030225000001,"endTime":58.1896125,"instrument":2,"program":27},{"pitch":59,"velocity":123,"startTime":58.1896125,"endTime":58.318922750000006,"instrument":2,"program":27},{"pitch":52,"velocity":123,"startTime":58.448233,"endTime":58.53443983333334,"instrument":2,"program":27},{"pitch":59,"velocity":123,"startTime":58.7068535,"endTime":58.836163750000004,"instrument":2,"program":27},{"pitch":59,"velocity":123,"startTime":58.836163750000004,"endTime":58.92237058333334,"instrument":2,"program":27},{"pitch":59,"velocity":123,"startTime":58.965474,"endTime":59.00857741666667,"instrument":2,"program":27},{"pitch":59,"velocity":123,"startTime":59.094784250000004,"endTime":59.18099108333334,"instrument":2,"program":27},{"pitch":59,"velocity":123,"startTime":59.22409450000001,"endTime":59.35340475,"instrument":2,"program":27},{"pitch":59,"velocity":123,"startTime":59.482715000000006,"endTime":59.61202525,"instrument":2,"program":27},{"pitch":59,"velocity":123,"startTime":59.741335500000005,"endTime":59.87064575,"instrument":2,"program":27},{"pitch":61,"velocity":123,"startTime":59.999956000000005,"endTime":60.12926625,"instrument":2,"program":27},{"pitch":61,"velocity":123,"startTime":60.12926625,"endTime":60.215473083333336,"instrument":2,"program":27},{"pitch":61,"velocity":123,"startTime":60.258576500000004,"endTime":60.38788675000001,"instrument":2,"program":27},{"pitch":61,"velocity":123,"startTime":60.517197,"endTime":60.646507250000006,"instrument":2,"program":27},{"pitch":61,"velocity":123,"startTime":60.646507250000006,"endTime":60.732714083333335,"instrument":2,"program":27},{"pitch":61,"velocity":123,"startTime":61.034438,"endTime":61.07754141666667,"instrument":2,"program":27},{"pitch":61,"velocity":123,"startTime":61.163748250000005,"endTime":61.24995508333334,"instrument":2,"program":27},{"pitch":61,"velocity":123,"startTime":61.2930585,"endTime":61.422368750000004,"instrument":2,"program":27},{"pitch":61,"velocity":123,"startTime":61.551679,"endTime":61.68098925,"instrument":2,"program":27},{"pitch":64,"velocity":123,"startTime":61.68098925,"endTime":61.810299500000006,"instrument":2,"program":27},{"pitch":60,"velocity":123,"startTime":62.327540500000005,"endTime":62.37064391666667,"instrument":2,"program":27},{"pitch":60,"velocity":123,"startTime":62.45685075,"endTime":62.586161000000004,"instrument":2,"program":27},{"pitch":60,"velocity":123,"startTime":62.586161000000004,"endTime":62.71547125,"instrument":2,"program":27},{"pitch":60,"velocity":123,"startTime":62.8447815,"endTime":62.97409175000001,"instrument":2,"program":27},{"pitch":60,"velocity":123,"startTime":63.3620225,"endTime":63.40512591666667,"instrument":2,"program":27},{"pitch":60,"velocity":123,"startTime":63.491332750000005,"endTime":63.53443616666667,"instrument":2,"program":27},{"pitch":60,"velocity":123,"startTime":63.620643,"endTime":63.70684983333334,"instrument":2,"program":27},{"pitch":60,"velocity":123,"startTime":63.749953250000004,"endTime":63.83616008333334,"instrument":2,"program":27},{"pitch":62,"velocity":123,"startTime":63.8792635,"endTime":64.00857375000001,"instrument":2,"program":27},{"pitch":62,"velocity":123,"startTime":64.137884,"endTime":64.18098741666667,"instrument":2,"program":27},{"pitch":62,"velocity":123,"startTime":64.26719425,"endTime":64.35340108333334,"instrument":2,"program":27},{"pitch":62,"velocity":123,"startTime":64.3965045,"endTime":64.52581475000001,"instrument":2,"program":27},{"pitch":62,"velocity":123,"startTime":64.655125,"endTime":64.78443525,"instrument":2,"program":27},{"pitch":62,"velocity":123,"startTime":64.78443525,"endTime":64.87064208333334,"instrument":2,"program":27},{"pitch":62,"velocity":123,"startTime":65.172366,"endTime":65.21546941666666,"instrument":2,"program":27},{"pitch":62,"velocity":123,"startTime":65.30167625,"endTime":65.38788308333334,"instrument":2,"program":27},{"pitch":62,"velocity":123,"startTime":65.4309865,"endTime":65.56029675,"instrument":2,"program":27},{"pitch":62,"velocity":123,"startTime":65.68960700000001,"endTime":65.81891725,"instrument":2,"program":27},{"pitch":62,"velocity":123,"startTime":65.81891725,"endTime":65.9482275,"instrument":2,"program":27},{"pitch":38,"velocity":117,"startTime":49.655136000000006,"endTime":50.04306675,"instrument":4,"program":35},{"pitch":37,"velocity":117,"startTime":51.7241,"endTime":52.11203075,"instrument":4,"program":35},{"pitch":37,"velocity":117,"startTime":52.11203075,"endTime":52.241341000000006,"instrument":4,"program":35},{"pitch":36,"velocity":117,"startTime":52.758582000000004,"endTime":52.88789225,"instrument":4,"program":35},{"pitch":35,"velocity":117,"startTime":52.88789225,"endTime":53.0172025,"instrument":4,"program":35},{"pitch":33,"velocity":117,"startTime":53.0172025,"endTime":53.14651275000001,"instrument":4,"program":35},{"pitch":36,"velocity":117,"startTime":53.793064,"endTime":53.922374250000004,"instrument":4,"program":35},{"pitch":36,"velocity":117,"startTime":53.922374250000004,"endTime":54.0516845,"instrument":4,"program":35},{"pitch":36,"velocity":117,"startTime":54.0516845,"endTime":54.18099475,"instrument":4,"program":35},{"pitch":38,"velocity":117,"startTime":55.086166500000004,"endTime":55.344787000000004,"instrument":4,"program":35},{"pitch":40,"velocity":117,"startTime":55.344787000000004,"endTime":55.6034075,"instrument":4,"program":35},{"pitch":45,"velocity":117,"startTime":55.6034075,"endTime":55.732717750000006,"instrument":4,"program":35},{"pitch":35,"velocity":117,"startTime":55.862028,"endTime":55.991338250000005,"instrument":4,"program":35},{"pitch":36,"velocity":117,"startTime":55.991338250000005,"endTime":56.1206485,"instrument":4,"program":35},{"pitch":35,"velocity":117,"startTime":56.1206485,"endTime":56.249958750000005,"instrument":4,"program":35},{"pitch":33,"velocity":117,"startTime":57.672371500000004,"endTime":57.80168175,"instrument":4,"program":35},{"pitch":33,"velocity":117,"startTime":57.80168175,"endTime":57.930992,"instrument":4,"program":35},{"pitch":28,"velocity":117,"startTime":57.930992,"endTime":58.06030225000001,"instrument":4,"program":35},{"pitch":28,"velocity":117,"startTime":58.06030225000001,"endTime":58.1896125,"instrument":4,"program":35},{"pitch":28,"velocity":117,"startTime":58.1896125,"endTime":58.318922750000006,"instrument":4,"program":35},{"pitch":37,"velocity":117,"startTime":59.999956000000005,"endTime":60.12926625,"instrument":4,"program":35},{"pitch":37,"velocity":117,"startTime":60.12926625,"endTime":60.258576500000004,"instrument":4,"program":35},{"pitch":37,"velocity":117,"startTime":60.258576500000004,"endTime":60.38788675000001,"instrument":4,"program":35},{"pitch":38,"velocity":117,"startTime":61.810299500000006,"endTime":61.93960975,"instrument":4,"program":35},{"pitch":36,"velocity":117,"startTime":62.068920000000006,"endTime":62.19823025,"instrument":4,"program":35},{"pitch":36,"velocity":117,"startTime":62.19823025,"endTime":62.327540500000005,"instrument":4,"program":35},{"pitch":36,"velocity":117,"startTime":62.327540500000005,"endTime":62.45685075,"instrument":4,"program":35},{"pitch":35,"velocity":117,"startTime":64.137884,"endTime":64.26719425,"instrument":4,"program":35},{"pitch":35,"velocity":117,"startTime":64.26719425,"endTime":64.3965045,"instrument":4,"program":35},{"pitch":35,"velocity":117,"startTime":64.3965045,"endTime":64.52581475000001,"instrument":4,"program":35},{"pitch":35,"velocity":118,"startTime":55.862028,"endTime":56.1206485,"instrument":5,"program":87},{"pitch":40,"velocity":118,"startTime":57.930992,"endTime":58.1896125,"instrument":5,"program":87},{"pitch":37,"velocity":118,"startTime":59.999956000000005,"endTime":60.258576500000004,"instrument":5,"program":87},{"pitch":36,"velocity":118,"startTime":62.068920000000006,"endTime":62.327540500000005,"instrument":5,"program":87},{"pitch":35,"velocity":118,"startTime":64.137884,"endTime":64.3965045,"instrument":5,"program":87},{"pitch":35,"velocity":105,"startTime":66.20684800000001,"endTime":66.33615825,"isDrum":true},{"pitch":42,"velocity":105,"startTime":66.20684800000001,"endTime":66.33615825,"isDrum":true},{"pitch":42,"velocity":105,"startTime":66.4654685,"endTime":66.59477875,"isDrum":true},{"pitch":38,"velocity":105,"startTime":66.724089,"endTime":66.85339925000001,"isDrum":true},{"pitch":39,"velocity":105,"startTime":66.724089,"endTime":66.85339925000001,"isDrum":true},{"pitch":40,"velocity":105,"startTime":66.724089,"endTime":66.85339925000001,"isDrum":true},{"pitch":42,"velocity":105,"startTime":66.724089,"endTime":66.85339925000001,"isDrum":true},{"pitch":42,"velocity":105,"startTime":66.9827095,"endTime":67.11201975,"isDrum":true},{"pitch":35,"velocity":105,"startTime":67.24133,"endTime":67.37064025000001,"isDrum":true},{"pitch":42,"velocity":105,"startTime":67.24133,"endTime":67.37064025000001,"isDrum":true},{"pitch":42,"velocity":105,"startTime":67.4999505,"endTime":67.62926075,"isDrum":true},{"pitch":38,"velocity":105,"startTime":67.758571,"endTime":67.88788125,"isDrum":true},{"pitch":39,"velocity":105,"startTime":67.758571,"endTime":67.88788125,"isDrum":true},{"pitch":40,"velocity":105,"startTime":67.758571,"endTime":67.88788125,"isDrum":true},{"pitch":42,"velocity":105,"startTime":67.758571,"endTime":67.88788125,"isDrum":true},{"pitch":42,"velocity":105,"startTime":68.01719150000001,"endTime":68.14650175,"isDrum":true},{"pitch":35,"velocity":105,"startTime":68.275812,"endTime":68.40512225,"isDrum":true},{"pitch":42,"velocity":105,"startTime":68.275812,"endTime":68.40512225,"isDrum":true},{"pitch":42,"velocity":105,"startTime":68.53443250000001,"endTime":68.66374275,"isDrum":true},{"pitch":38,"velocity":105,"startTime":68.793053,"endTime":68.92236325,"isDrum":true},{"pitch":39,"velocity":105,"startTime":68.793053,"endTime":68.92236325,"isDrum":true},{"pitch":40,"velocity":105,"startTime":68.793053,"endTime":68.92236325,"isDrum":true},{"pitch":42,"velocity":105,"startTime":68.793053,"endTime":68.92236325,"isDrum":true},{"pitch":35,"velocity":105,"startTime":69.0516735,"endTime":69.18098375000001,"isDrum":true},{"pitch":42,"velocity":105,"startTime":69.0516735,"endTime":69.18098375000001,"isDrum":true},{"pitch":35,"velocity":105,"startTime":69.310294,"endTime":69.43960425,"isDrum":true},{"pitch":42,"velocity":105,"startTime":69.310294,"endTime":69.43960425,"isDrum":true},{"pitch":42,"velocity":105,"startTime":69.5689145,"endTime":69.69822475000001,"isDrum":true},{"pitch":38,"velocity":105,"startTime":69.827535,"endTime":69.95684525,"isDrum":true},{"pitch":39,"velocity":105,"startTime":69.827535,"endTime":69.95684525,"isDrum":true},{"pitch":40,"velocity":105,"startTime":69.827535,"endTime":69.95684525,"isDrum":true},{"pitch":42,"velocity":105,"startTime":69.827535,"endTime":69.95684525,"isDrum":true},{"pitch":42,"velocity":105,"startTime":70.0861555,"endTime":70.21546575,"isDrum":true},{"pitch":35,"velocity":105,"startTime":70.34477600000001,"endTime":70.47408625,"isDrum":true},{"pitch":42,"velocity":105,"startTime":70.34477600000001,"endTime":70.47408625,"isDrum":true},{"pitch":42,"velocity":105,"startTime":70.6033965,"endTime":70.73270675,"isDrum":true},{"pitch":38,"velocity":105,"startTime":70.86201700000001,"endTime":70.99132725,"isDrum":true},{"pitch":39,"velocity":105,"startTime":70.86201700000001,"endTime":70.99132725,"isDrum":true},{"pitch":40,"velocity":105,"startTime":70.86201700000001,"endTime":70.99132725,"isDrum":true},{"pitch":42,"velocity":105,"startTime":70.86201700000001,"endTime":70.99132725,"isDrum":true},{"pitch":35,"velocity":105,"startTime":71.1206375,"endTime":71.24994775,"isDrum":true},{"pitch":42,"velocity":105,"startTime":71.1206375,"endTime":71.24994775,"isDrum":true},{"pitch":35,"velocity":105,"startTime":71.37925800000001,"endTime":71.50856825000001,"isDrum":true},{"pitch":42,"velocity":105,"startTime":71.37925800000001,"endTime":71.50856825000001,"isDrum":true},{"pitch":42,"velocity":105,"startTime":71.6378785,"endTime":71.76718875,"isDrum":true},{"pitch":38,"velocity":105,"startTime":71.896499,"endTime":72.02580925000001,"isDrum":true},{"pitch":39,"velocity":105,"startTime":71.896499,"endTime":72.02580925000001,"isDrum":true},{"pitch":40,"velocity":105,"startTime":71.896499,"endTime":72.02580925000001,"isDrum":true},{"pitch":42,"velocity":105,"startTime":71.896499,"endTime":72.02580925000001,"isDrum":true},{"pitch":42,"velocity":105,"startTime":72.1551195,"endTime":72.28442975,"isDrum":true},{"pitch":35,"velocity":105,"startTime":72.41374,"endTime":72.54305025000001,"isDrum":true},{"pitch":42,"velocity":105,"startTime":72.41374,"endTime":72.54305025000001,"isDrum":true},{"pitch":42,"velocity":105,"startTime":72.67236050000001,"endTime":72.80167075,"isDrum":true},{"pitch":38,"velocity":105,"startTime":72.930981,"endTime":73.06029125,"isDrum":true},{"pitch":39,"velocity":105,"startTime":72.930981,"endTime":73.06029125,"isDrum":true},{"pitch":40,"velocity":105,"startTime":72.930981,"endTime":73.06029125,"isDrum":true},{"pitch":42,"velocity":105,"startTime":72.930981,"endTime":73.06029125,"isDrum":true},{"pitch":35,"velocity":105,"startTime":73.18960150000001,"endTime":73.31891175,"isDrum":true},{"pitch":42,"velocity":105,"startTime":73.18960150000001,"endTime":73.31891175,"isDrum":true},{"pitch":35,"velocity":105,"startTime":73.448222,"endTime":73.57753225,"isDrum":true},{"pitch":42,"velocity":105,"startTime":73.448222,"endTime":73.57753225,"isDrum":true},{"pitch":42,"velocity":105,"startTime":73.70684250000001,"endTime":73.83615275000001,"isDrum":true},{"pitch":38,"velocity":105,"startTime":73.965463,"endTime":74.09477325,"isDrum":true},{"pitch":39,"velocity":105,"startTime":73.965463,"endTime":74.09477325,"isDrum":true},{"pitch":42,"velocity":105,"startTime":73.965463,"endTime":74.09477325,"isDrum":true},{"pitch":42,"velocity":105,"startTime":74.2240835,"endTime":74.35339375000001,"isDrum":true},{"pitch":35,"velocity":105,"startTime":74.482704,"endTime":74.61201425,"isDrum":true},{"pitch":42,"velocity":105,"startTime":74.482704,"endTime":74.61201425,"isDrum":true},{"pitch":42,"velocity":105,"startTime":74.7413245,"endTime":74.87063475000001,"isDrum":true},{"pitch":38,"velocity":105,"startTime":74.99994500000001,"endTime":75.12925525,"isDrum":true},{"pitch":39,"velocity":105,"startTime":74.99994500000001,"endTime":75.12925525,"isDrum":true},{"pitch":40,"velocity":105,"startTime":74.99994500000001,"endTime":75.12925525,"isDrum":true},{"pitch":42,"velocity":105,"startTime":74.99994500000001,"endTime":75.12925525,"isDrum":true},{"pitch":35,"velocity":105,"startTime":75.2585655,"endTime":75.38787575,"isDrum":true},{"pitch":42,"velocity":105,"startTime":75.2585655,"endTime":75.38787575,"isDrum":true},{"pitch":35,"velocity":105,"startTime":75.51718600000001,"endTime":75.64649625,"isDrum":true},{"pitch":42,"velocity":105,"startTime":75.51718600000001,"endTime":75.64649625,"isDrum":true},{"pitch":42,"velocity":105,"startTime":75.7758065,"endTime":75.90511675,"isDrum":true},{"pitch":38,"velocity":105,"startTime":76.03442700000001,"endTime":76.16373725000001,"isDrum":true},{"pitch":39,"velocity":105,"startTime":76.03442700000001,"endTime":76.16373725000001,"isDrum":true},{"pitch":42,"velocity":105,"startTime":76.03442700000001,"endTime":76.16373725000001,"isDrum":true},{"pitch":42,"velocity":105,"startTime":76.2930475,"endTime":76.42235775,"isDrum":true},{"pitch":35,"velocity":105,"startTime":76.551668,"endTime":76.68097825000001,"isDrum":true},{"pitch":42,"velocity":105,"startTime":76.551668,"endTime":76.68097825000001,"isDrum":true},{"pitch":42,"velocity":105,"startTime":76.8102885,"endTime":76.93959875,"isDrum":true},{"pitch":38,"velocity":105,"startTime":77.068909,"endTime":77.19821925000001,"isDrum":true},{"pitch":39,"velocity":105,"startTime":77.068909,"endTime":77.19821925000001,"isDrum":true},{"pitch":40,"velocity":105,"startTime":77.068909,"endTime":77.19821925000001,"isDrum":true},{"pitch":42,"velocity":105,"startTime":77.068909,"endTime":77.19821925000001,"isDrum":true},{"pitch":35,"velocity":105,"startTime":77.32752950000001,"endTime":77.45683975,"isDrum":true},{"pitch":42,"velocity":105,"startTime":77.32752950000001,"endTime":77.45683975,"isDrum":true},{"pitch":35,"velocity":105,"startTime":77.58615,"endTime":77.71546025,"isDrum":true},{"pitch":42,"velocity":105,"startTime":77.58615,"endTime":77.71546025,"isDrum":true},{"pitch":42,"velocity":105,"startTime":77.84477050000001,"endTime":77.97408075,"isDrum":true},{"pitch":38,"velocity":105,"startTime":78.103391,"endTime":78.23270125,"isDrum":true},{"pitch":39,"velocity":105,"startTime":78.103391,"endTime":78.23270125,"isDrum":true},{"pitch":40,"velocity":105,"startTime":78.103391,"endTime":78.23270125,"isDrum":true},{"pitch":42,"velocity":105,"startTime":78.103391,"endTime":78.23270125,"isDrum":true},{"pitch":42,"velocity":105,"startTime":78.36201150000001,"endTime":78.49132175000001,"isDrum":true},{"pitch":35,"velocity":105,"startTime":78.620632,"endTime":78.74994225,"isDrum":true},{"pitch":42,"velocity":105,"startTime":78.620632,"endTime":78.74994225,"isDrum":true},{"pitch":42,"velocity":105,"startTime":78.8792525,"endTime":79.00856275000001,"isDrum":true},{"pitch":38,"velocity":105,"startTime":79.137873,"endTime":79.26718325,"isDrum":true},{"pitch":39,"velocity":105,"startTime":79.137873,"endTime":79.26718325,"isDrum":true},{"pitch":40,"velocity":105,"startTime":79.137873,"endTime":79.26718325,"isDrum":true},{"pitch":42,"velocity":105,"startTime":79.137873,"endTime":79.26718325,"isDrum":true},{"pitch":35,"velocity":105,"startTime":79.3964935,"endTime":79.52580375000001,"isDrum":true},{"pitch":42,"velocity":105,"startTime":79.3964935,"endTime":79.52580375000001,"isDrum":true},{"pitch":35,"velocity":105,"startTime":79.655114,"endTime":79.78442425,"isDrum":true},{"pitch":42,"velocity":105,"startTime":79.655114,"endTime":79.78442425,"isDrum":true},{"pitch":42,"velocity":105,"startTime":79.9137345,"endTime":80.04304475,"isDrum":true},{"pitch":38,"velocity":105,"startTime":80.17235500000001,"endTime":80.30166525,"isDrum":true},{"pitch":39,"velocity":105,"startTime":80.17235500000001,"endTime":80.30166525,"isDrum":true},{"pitch":40,"velocity":105,"startTime":80.17235500000001,"endTime":80.30166525,"isDrum":true},{"pitch":42,"velocity":105,"startTime":80.17235500000001,"endTime":80.30166525,"isDrum":true},{"pitch":42,"velocity":105,"startTime":80.4309755,"endTime":80.56028575,"isDrum":true},{"pitch":35,"velocity":105,"startTime":80.68959600000001,"endTime":80.81890625,"isDrum":true},{"pitch":42,"velocity":105,"startTime":80.68959600000001,"endTime":80.81890625,"isDrum":true},{"pitch":42,"velocity":105,"startTime":80.9482165,"endTime":81.07752675,"isDrum":true},{"pitch":38,"velocity":105,"startTime":81.20683700000001,"endTime":81.33614725000001,"isDrum":true},{"pitch":39,"velocity":105,"startTime":81.20683700000001,"endTime":81.33614725000001,"isDrum":true},{"pitch":40,"velocity":105,"startTime":81.20683700000001,"endTime":81.33614725000001,"isDrum":true},{"pitch":42,"velocity":105,"startTime":81.20683700000001,"endTime":81.33614725000001,"isDrum":true},{"pitch":35,"velocity":105,"startTime":81.4654575,"endTime":81.59476775,"isDrum":true},{"pitch":42,"velocity":105,"startTime":81.4654575,"endTime":81.59476775,"isDrum":true},{"pitch":59,"velocity":123,"startTime":66.724089,"endTime":66.9827095,"instrument":1,"program":4},{"pitch":62,"velocity":123,"startTime":66.724089,"endTime":66.9827095,"instrument":1,"program":4},{"pitch":66,"velocity":123,"startTime":66.724089,"endTime":66.9827095,"instrument":1,"program":4},{"pitch":68,"velocity":123,"startTime":66.724089,"endTime":66.9827095,"instrument":1,"program":4},{"pitch":59,"velocity":123,"startTime":66.9827095,"endTime":67.24133,"instrument":1,"program":4},{"pitch":62,"velocity":123,"startTime":66.9827095,"endTime":67.24133,"instrument":1,"program":4},{"pitch":66,"velocity":123,"startTime":66.9827095,"endTime":67.24133,"instrument":1,"program":4},{"pitch":68,"velocity":123,"startTime":66.9827095,"endTime":67.24133,"instrument":1,"program":4},{"pitch":59,"velocity":123,"startTime":67.24133,"endTime":67.62926075,"instrument":1,"program":4},{"pitch":63,"velocity":123,"startTime":67.24133,"endTime":67.62926075,"instrument":1,"program":4},{"pitch":66,"velocity":123,"startTime":67.24133,"endTime":67.62926075,"instrument":1,"program":4},{"pitch":68,"velocity":123,"startTime":67.24133,"endTime":67.62926075,"instrument":1,"program":4},{"pitch":59,"velocity":123,"startTime":67.62926075,"endTime":67.758571,"instrument":1,"program":4},{"pitch":63,"velocity":123,"startTime":67.62926075,"endTime":67.758571,"instrument":1,"program":4},{"pitch":66,"velocity":123,"startTime":67.62926075,"endTime":67.758571,"instrument":1,"program":4},{"pitch":68,"velocity":123,"startTime":67.62926075,"endTime":67.758571,"instrument":1,"program":4},{"pitch":59,"velocity":123,"startTime":68.01719150000001,"endTime":68.14650175,"instrument":1,"program":4},{"pitch":63,"velocity":123,"startTime":68.01719150000001,"endTime":68.14650175,"instrument":1,"program":4},{"pitch":66,"velocity":123,"startTime":68.01719150000001,"endTime":68.14650175,"instrument":1,"program":4},{"pitch":68,"velocity":123,"startTime":68.01719150000001,"endTime":68.14650175,"instrument":1,"program":4},{"pitch":61,"velocity":123,"startTime":68.793053,"endTime":69.310294,"instrument":1,"program":4},{"pitch":64,"velocity":123,"startTime":68.793053,"endTime":69.310294,"instrument":1,"program":4},{"pitch":68,"velocity":123,"startTime":68.793053,"endTime":69.310294,"instrument":1,"program":4},{"pitch":71,"velocity":123,"startTime":68.793053,"endTime":69.310294,"instrument":1,"program":4},{"pitch":61,"velocity":123,"startTime":69.5689145,"endTime":69.69822475000001,"instrument":1,"program":4},{"pitch":64,"velocity":123,"startTime":69.5689145,"endTime":69.69822475000001,"instrument":1,"program":4},{"pitch":66,"velocity":123,"startTime":69.5689145,"endTime":69.69822475000001,"instrument":1,"program":4},{"pitch":71,"velocity":123,"startTime":69.5689145,"endTime":69.69822475000001,"instrument":1,"program":4},{"pitch":61,"velocity":123,"startTime":70.0861555,"endTime":70.34477600000001,"instrument":1,"program":4},{"pitch":64,"velocity":123,"startTime":70.0861555,"endTime":70.34477600000001,"instrument":1,"program":4},{"pitch":66,"velocity":123,"startTime":70.0861555,"endTime":70.34477600000001,"instrument":1,"program":4},{"pitch":71,"velocity":123,"startTime":70.0861555,"endTime":70.34477600000001,"instrument":1,"program":4},{"pitch":60,"velocity":123,"startTime":70.34477600000001,"endTime":70.73270675,"instrument":1,"program":4},{"pitch":64,"velocity":123,"startTime":70.34477600000001,"endTime":70.73270675,"instrument":1,"program":4},{"pitch":67,"velocity":123,"startTime":70.34477600000001,"endTime":70.73270675,"instrument":1,"program":4},{"pitch":69,"velocity":123,"startTime":70.34477600000001,"endTime":70.73270675,"instrument":1,"program":4},{"pitch":60,"velocity":123,"startTime":70.73270675,"endTime":70.86201700000001,"instrument":1,"program":4},{"pitch":64,"velocity":123,"startTime":70.73270675,"endTime":70.86201700000001,"instrument":1,"program":4},{"pitch":67,"velocity":123,"startTime":70.73270675,"endTime":70.86201700000001,"instrument":1,"program":4},{"pitch":69,"velocity":123,"startTime":70.73270675,"endTime":70.86201700000001,"instrument":1,"program":4},{"pitch":60,"velocity":123,"startTime":71.1206375,"endTime":71.37925800000001,"instrument":1,"program":4},{"pitch":64,"velocity":123,"startTime":71.1206375,"endTime":71.37925800000001,"instrument":1,"program":4},{"pitch":67,"velocity":123,"startTime":71.1206375,"endTime":71.37925800000001,"instrument":1,"program":4},{"pitch":69,"velocity":123,"startTime":71.1206375,"endTime":71.37925800000001,"instrument":1,"program":4},{"pitch":60,"velocity":123,"startTime":71.37925800000001,"endTime":71.896499,"instrument":1,"program":4},{"pitch":64,"velocity":123,"startTime":71.37925800000001,"endTime":71.896499,"instrument":1,"program":4},{"pitch":66,"velocity":123,"startTime":71.37925800000001,"endTime":71.896499,"instrument":1,"program":4},{"pitch":69,"velocity":123,"startTime":71.37925800000001,"endTime":71.896499,"instrument":1,"program":4},{"pitch":60,"velocity":123,"startTime":71.896499,"endTime":72.1551195,"instrument":1,"program":4},{"pitch":64,"velocity":123,"startTime":71.896499,"endTime":72.1551195,"instrument":1,"program":4},{"pitch":66,"velocity":123,"startTime":71.896499,"endTime":72.1551195,"instrument":1,"program":4},{"pitch":69,"velocity":123,"startTime":71.896499,"endTime":72.1551195,"instrument":1,"program":4},{"pitch":60,"velocity":123,"startTime":72.1551195,"endTime":72.41374,"instrument":1,"program":4},{"pitch":64,"velocity":123,"startTime":72.1551195,"endTime":72.41374,"instrument":1,"program":4},{"pitch":66,"velocity":123,"startTime":72.1551195,"endTime":72.41374,"instrument":1,"program":4},{"pitch":69,"velocity":123,"startTime":72.1551195,"endTime":72.41374,"instrument":1,"program":4},{"pitch":62,"velocity":123,"startTime":72.67236050000001,"endTime":72.80167075,"instrument":1,"program":4},{"pitch":66,"velocity":123,"startTime":72.67236050000001,"endTime":72.80167075,"instrument":1,"program":4},{"pitch":69,"velocity":123,"startTime":72.67236050000001,"endTime":72.80167075,"instrument":1,"program":4},{"pitch":71,"velocity":123,"startTime":72.67236050000001,"endTime":72.80167075,"instrument":1,"program":4},{"pitch":62,"velocity":123,"startTime":73.18960150000001,"endTime":73.31891175,"instrument":1,"program":4},{"pitch":66,"velocity":123,"startTime":73.18960150000001,"endTime":73.31891175,"instrument":1,"program":4},{"pitch":69,"velocity":123,"startTime":73.18960150000001,"endTime":73.31891175,"instrument":1,"program":4},{"pitch":71,"velocity":123,"startTime":73.18960150000001,"endTime":73.31891175,"instrument":1,"program":4},{"pitch":66,"velocity":123,"startTime":74.7413245,"endTime":74.87063475000001,"instrument":1,"program":4},{"pitch":68,"velocity":123,"startTime":74.7413245,"endTime":74.87063475000001,"instrument":1,"program":4},{"pitch":71,"velocity":123,"startTime":74.7413245,"endTime":74.87063475000001,"instrument":1,"program":4},{"pitch":76,"velocity":123,"startTime":74.7413245,"endTime":74.87063475000001,"instrument":1,"program":4},{"pitch":66,"velocity":123,"startTime":75.2585655,"endTime":75.38787575,"instrument":1,"program":4},{"pitch":68,"velocity":123,"startTime":75.2585655,"endTime":75.38787575,"instrument":1,"program":4},{"pitch":71,"velocity":123,"startTime":75.2585655,"endTime":75.38787575,"instrument":1,"program":4},{"pitch":76,"velocity":123,"startTime":75.2585655,"endTime":75.38787575,"instrument":1,"program":4},{"pitch":66,"velocity":123,"startTime":75.7758065,"endTime":75.90511675,"instrument":1,"program":4},{"pitch":68,"velocity":123,"startTime":75.7758065,"endTime":75.90511675,"instrument":1,"program":4},{"pitch":71,"velocity":123,"startTime":75.7758065,"endTime":75.90511675,"instrument":1,"program":4},{"pitch":76,"velocity":123,"startTime":75.7758065,"endTime":75.90511675,"instrument":1,"program":4},{"pitch":66,"velocity":123,"startTime":76.2930475,"endTime":76.42235775,"instrument":1,"program":4},{"pitch":68,"velocity":123,"startTime":76.2930475,"endTime":76.42235775,"instrument":1,"program":4},{"pitch":71,"velocity":123,"startTime":76.2930475,"endTime":76.42235775,"instrument":1,"program":4},{"pitch":76,"velocity":123,"startTime":76.2930475,"endTime":76.42235775,"instrument":1,"program":4},{"pitch":59,"velocity":123,"startTime":77.068909,"endTime":77.45683975,"instrument":1,"program":4},{"pitch":61,"velocity":123,"startTime":77.068909,"endTime":77.45683975,"instrument":1,"program":4},{"pitch":66,"velocity":123,"startTime":77.068909,"endTime":77.45683975,"instrument":1,"program":4},{"pitch":68,"velocity":123,"startTime":77.068909,"endTime":77.45683975,"instrument":1,"program":4},{"pitch":59,"velocity":123,"startTime":77.45683975,"endTime":77.58615,"instrument":1,"program":4},{"pitch":61,"velocity":123,"startTime":77.45683975,"endTime":77.58615,"instrument":1,"program":4},{"pitch":66,"velocity":123,"startTime":77.45683975,"endTime":77.58615,"instrument":1,"program":4},{"pitch":68,"velocity":123,"startTime":77.45683975,"endTime":77.58615,"instrument":1,"program":4},{"pitch":59,"velocity":123,"startTime":77.84477050000001,"endTime":77.97408075,"instrument":1,"program":4},{"pitch":61,"velocity":123,"startTime":77.84477050000001,"endTime":77.97408075,"instrument":1,"program":4},{"pitch":66,"velocity":123,"startTime":77.84477050000001,"endTime":77.97408075,"instrument":1,"program":4},{"pitch":68,"velocity":123,"startTime":77.84477050000001,"endTime":77.97408075,"instrument":1,"program":4},{"pitch":59,"velocity":123,"startTime":78.36201150000001,"endTime":78.49132175000001,"instrument":1,"program":4},{"pitch":61,"velocity":123,"startTime":78.36201150000001,"endTime":78.49132175000001,"instrument":1,"program":4},{"pitch":66,"velocity":123,"startTime":78.36201150000001,"endTime":78.49132175000001,"instrument":1,"program":4},{"pitch":68,"velocity":123,"startTime":78.36201150000001,"endTime":78.49132175000001,"instrument":1,"program":4},{"pitch":60,"velocity":123,"startTime":78.620632,"endTime":79.00856275000001,"instrument":1,"program":4},{"pitch":64,"velocity":123,"startTime":78.620632,"endTime":79.00856275000001,"instrument":1,"program":4},{"pitch":67,"velocity":123,"startTime":78.620632,"endTime":79.00856275000001,"instrument":1,"program":4},{"pitch":69,"velocity":123,"startTime":78.620632,"endTime":79.00856275000001,"instrument":1,"program":4},{"pitch":60,"velocity":123,"startTime":79.00856275000001,"endTime":79.137873,"instrument":1,"program":4},{"pitch":64,"velocity":123,"startTime":79.00856275000001,"endTime":79.137873,"instrument":1,"program":4},{"pitch":67,"velocity":123,"startTime":79.00856275000001,"endTime":79.137873,"instrument":1,"program":4},{"pitch":69,"velocity":123,"startTime":79.00856275000001,"endTime":79.137873,"instrument":1,"program":4},{"pitch":60,"velocity":123,"startTime":79.3964935,"endTime":79.655114,"instrument":1,"program":4},{"pitch":64,"velocity":123,"startTime":79.3964935,"endTime":79.655114,"instrument":1,"program":4},{"pitch":67,"velocity":123,"startTime":79.3964935,"endTime":79.655114,"instrument":1,"program":4},{"pitch":69,"velocity":123,"startTime":79.3964935,"endTime":79.655114,"instrument":1,"program":4},{"pitch":60,"velocity":123,"startTime":79.9137345,"endTime":80.04304475,"instrument":1,"program":4},{"pitch":64,"velocity":123,"startTime":79.9137345,"endTime":80.04304475,"instrument":1,"program":4},{"pitch":66,"velocity":123,"startTime":79.9137345,"endTime":80.04304475,"instrument":1,"program":4},{"pitch":69,"velocity":123,"startTime":79.9137345,"endTime":80.04304475,"instrument":1,"program":4},{"pitch":60,"velocity":123,"startTime":80.4309755,"endTime":80.56028575,"instrument":1,"program":4},{"pitch":64,"velocity":123,"startTime":80.4309755,"endTime":80.56028575,"instrument":1,"program":4},{"pitch":66,"velocity":123,"startTime":80.4309755,"endTime":80.56028575,"instrument":1,"program":4},{"pitch":69,"velocity":123,"startTime":80.4309755,"endTime":80.56028575,"instrument":1,"program":4},{"pitch":62,"velocity":123,"startTime":81.20683700000001,"endTime":81.4654575,"instrument":1,"program":4},{"pitch":66,"velocity":123,"startTime":81.20683700000001,"endTime":81.4654575,"instrument":1,"program":4},{"pitch":71,"velocity":123,"startTime":81.20683700000001,"endTime":81.4654575,"instrument":1,"program":4},{"pitch":62,"velocity":123,"startTime":81.4654575,"endTime":81.59476775,"instrument":1,"program":4},{"pitch":66,"velocity":123,"startTime":81.4654575,"endTime":81.59476775,"instrument":1,"program":4},{"pitch":71,"velocity":123,"startTime":81.4654575,"endTime":81.59476775,"instrument":1,"program":4},{"pitch":66,"velocity":123,"startTime":81.9826985,"endTime":82.49993950000001,"instrument":1,"program":4},{"pitch":71,"velocity":123,"startTime":81.9826985,"endTime":82.49993950000001,"instrument":1,"program":4},{"pitch":74,"velocity":123,"startTime":81.9826985,"endTime":82.49993950000001,"instrument":1,"program":4},{"pitch":62,"velocity":123,"startTime":82.49993950000001,"endTime":82.62924975,"instrument":1,"program":4},{"pitch":66,"velocity":123,"startTime":82.49993950000001,"endTime":82.62924975,"instrument":1,"program":4},{"pitch":71,"velocity":123,"startTime":82.49993950000001,"endTime":82.62924975,"instrument":1,"program":4},{"pitch":74,"velocity":123,"startTime":82.49993950000001,"endTime":82.62924975,"instrument":1,"program":4},{"pitch":60,"velocity":123,"startTime":66.20684800000001,"endTime":66.24995141666668,"instrument":2,"program":27},{"pitch":60,"velocity":123,"startTime":66.33615825,"endTime":66.37926166666668,"instrument":2,"program":27},{"pitch":60,"velocity":123,"startTime":66.59477875,"endTime":66.63788216666669,"instrument":2,"program":27},{"pitch":52,"velocity":123,"startTime":66.724089,"endTime":66.76719241666667,"instrument":2,"program":27},{"pitch":52,"velocity":123,"startTime":66.9827095,"endTime":67.06891633333333,"instrument":2,"program":27},{"pitch":56,"velocity":123,"startTime":67.11201975,"endTime":67.15512316666668,"instrument":2,"program":27},{"pitch":59,"velocity":123,"startTime":67.24133,"endTime":67.28443341666667,"instrument":2,"program":27},{"pitch":59,"velocity":123,"startTime":67.62926075,"endTime":67.67236416666668,"instrument":2,"program":27},{"pitch":59,"velocity":123,"startTime":67.758571,"endTime":67.80167441666669,"instrument":2,"program":27},{"pitch":59,"velocity":123,"startTime":67.88788125,"endTime":67.97408808333333,"instrument":2,"program":27},{"pitch":56,"velocity":123,"startTime":68.01719150000001,"endTime":68.14650175,"instrument":2,"program":27},{"pitch":59,"velocity":123,"startTime":68.275812,"endTime":68.31891541666668,"instrument":2,"program":27},{"pitch":59,"velocity":123,"startTime":68.66374275,"endTime":68.70684616666668,"instrument":2,"program":27},{"pitch":59,"velocity":123,"startTime":68.793053,"endTime":68.83615641666668,"instrument":2,"program":27},{"pitch":59,"velocity":123,"startTime":69.0516735,"endTime":69.13788033333333,"instrument":2,"program":27},{"pitch":59,"velocity":123,"startTime":69.310294,"endTime":69.35339741666668,"instrument":2,"program":27},{"pitch":59,"velocity":123,"startTime":69.69822475000001,"endTime":69.74132816666668,"instrument":2,"program":27},{"pitch":59,"velocity":123,"startTime":69.827535,"endTime":69.87063841666668,"instrument":2,"program":27},{"pitch":59,"velocity":123,"startTime":69.95684525,"endTime":70.04305208333334,"instrument":2,"program":27},{"pitch":59,"velocity":123,"startTime":70.0861555,"endTime":70.17236233333333,"instrument":2,"program":27},{"pitch":64,"velocity":123,"startTime":70.34477600000001,"endTime":70.38787941666668,"instrument":2,"program":27},{"pitch":64,"velocity":123,"startTime":70.47408625,"endTime":70.56029308333333,"instrument":2,"program":27},{"pitch":64,"velocity":123,"startTime":70.6033965,"endTime":70.73270675,"instrument":2,"program":27},{"pitch":60,"velocity":123,"startTime":70.86201700000001,"endTime":70.94822383333334,"instrument":2,"program":27},{"pitch":60,"velocity":123,"startTime":70.99132725,"endTime":71.07753408333333,"instrument":2,"program":27},{"pitch":60,"velocity":123,"startTime":71.1206375,"endTime":71.20684433333334,"instrument":2,"program":27},{"pitch":57,"velocity":123,"startTime":71.6378785,"endTime":71.68098191666667,"instrument":2,"program":27},{"pitch":57,"velocity":123,"startTime":71.76718875,"endTime":71.85339558333334,"instrument":2,"program":27},{"pitch":57,"velocity":123,"startTime":71.896499,"endTime":71.93960241666667,"instrument":2,"program":27},{"pitch":57,"velocity":123,"startTime":72.1551195,"endTime":72.32753316666667,"instrument":2,"program":27},{"pitch":59,"velocity":123,"startTime":72.41374,"endTime":72.45684341666667,"instrument":2,"program":27},{"pitch":59,"velocity":123,"startTime":72.54305025000001,"endTime":72.62925708333334,"instrument":2,"program":27},{"pitch":59,"velocity":123,"startTime":72.67236050000001,"endTime":72.80167075,"instrument":2,"program":27},{"pitch":59,"velocity":123,"startTime":72.80167075,"endTime":72.84477416666667,"instrument":2,"program":27},{"pitch":59,"velocity":123,"startTime":72.930981,"endTime":73.01718783333334,"instrument":2,"program":27},{"pitch":59,"velocity":123,"startTime":73.18960150000001,"endTime":73.31891175,"instrument":2,"program":27},{"pitch":59,"velocity":123,"startTime":73.83615275000001,"endTime":73.965463,"instrument":2,"program":27},{"pitch":57,"velocity":123,"startTime":73.965463,"endTime":74.05166983333334,"instrument":2,"program":27},{"pitch":57,"velocity":123,"startTime":74.09477325,"endTime":74.18098008333334,"instrument":2,"program":27},{"pitch":57,"velocity":123,"startTime":74.2240835,"endTime":74.35339375000001,"instrument":2,"program":27},{"pitch":60,"velocity":123,"startTime":74.482704,"endTime":74.56891083333333,"instrument":2,"program":27},{"pitch":60,"velocity":123,"startTime":74.7413245,"endTime":74.87063475000001,"instrument":2,"program":27},{"pitch":60,"velocity":123,"startTime":74.87063475000001,"endTime":74.95684158333334,"instrument":2,"program":27},{"pitch":59,"velocity":123,"startTime":74.99994500000001,"endTime":75.04304841666666,"instrument":2,"program":27},{"pitch":59,"velocity":123,"startTime":75.2585655,"endTime":75.38787575,"instrument":2,"program":27},{"pitch":54,"velocity":123,"startTime":75.90511675,"endTime":76.03442700000001,"instrument":2,"program":27},{"pitch":54,"velocity":123,"startTime":76.03442700000001,"endTime":76.12063383333334,"instrument":2,"program":27},{"pitch":54,"velocity":123,"startTime":76.2930475,"endTime":76.37925433333334,"instrument":2,"program":27},{"pitch":54,"velocity":123,"startTime":76.42235775,"endTime":76.551668,"instrument":2,"program":27},{"pitch":61,"velocity":123,"startTime":76.8102885,"endTime":76.85339191666667,"instrument":2,"program":27},{"pitch":61,"velocity":123,"startTime":76.93959875,"endTime":77.02580558333334,"instrument":2,"program":27},{"pitch":64,"velocity":123,"startTime":77.068909,"endTime":77.11201241666667,"instrument":2,"program":27},{"pitch":61,"velocity":123,"startTime":77.19821925000001,"endTime":77.28442608333334,"instrument":2,"program":27},{"pitch":61,"velocity":123,"startTime":77.32752950000001,"endTime":77.45683975,"instrument":2,"program":27},{"pitch":61,"velocity":123,"startTime":77.84477050000001,"endTime":77.88787391666668,"instrument":2,"program":27},{"pitch":61,"velocity":123,"startTime":77.97408075,"endTime":78.01718416666667,"instrument":2,"program":27},{"pitch":61,"velocity":123,"startTime":78.103391,"endTime":78.14649441666667,"instrument":2,"program":27},{"pitch":61,"velocity":123,"startTime":78.36201150000001,"endTime":78.44821833333334,"instrument":2,"program":27},{"pitch":60,"velocity":123,"startTime":78.620632,"endTime":78.66373541666667,"instrument":2,"program":27},{"pitch":60,"velocity":123,"startTime":78.8792525,"endTime":79.00856275000001,"instrument":2,"program":27},{"pitch":60,"velocity":123,"startTime":79.137873,"endTime":79.22407983333333,"instrument":2,"program":27},{"pitch":60,"velocity":123,"startTime":79.3964935,"endTime":79.52580375000001,"instrument":2,"program":27},{"pitch":60,"velocity":123,"startTime":79.9137345,"endTime":79.95683791666667,"instrument":2,"program":27},{"pitch":60,"velocity":123,"startTime":80.04304475,"endTime":80.12925158333334,"instrument":2,"program":27},{"pitch":60,"velocity":123,"startTime":80.17235500000001,"endTime":80.21545841666668,"instrument":2,"program":27},{"pitch":60,"velocity":123,"startTime":80.4309755,"endTime":80.51718233333334,"instrument":2,"program":27},{"pitch":59,"velocity":123,"startTime":80.68959600000001,"endTime":80.77580283333334,"instrument":2,"program":27},{"pitch":59,"velocity":123,"startTime":80.9482165,"endTime":81.07752675,"instrument":2,"program":27},{"pitch":59,"velocity":123,"startTime":81.07752675,"endTime":81.16373358333334,"instrument":2,"program":27},{"pitch":59,"velocity":123,"startTime":81.20683700000001,"endTime":81.24994041666667,"instrument":2,"program":27},{"pitch":59,"velocity":123,"startTime":81.4654575,"endTime":81.55166433333333,"instrument":2,"program":27},{"pitch":59,"velocity":123,"startTime":81.724078,"endTime":81.76718141666667,"instrument":2,"program":27},{"pitch":59,"velocity":123,"startTime":81.9826985,"endTime":82.11200875,"instrument":2,"program":27},{"pitch":57,"velocity":123,"startTime":82.11200875,"endTime":82.19821558333334,"instrument":2,"program":27},{"pitch":59,"velocity":123,"startTime":82.241319,"endTime":82.37062925000001,"instrument":2,"program":27},{"pitch":59,"velocity":123,"startTime":82.49993950000001,"endTime":82.62924975,"instrument":2,"program":27},{"pitch":56,"velocity":123,"startTime":82.62924975,"endTime":82.71545658333334,"instrument":2,"program":27},{"pitch":28,"velocity":117,"startTime":66.20684800000001,"endTime":66.33615825,"instrument":4,"program":35},{"pitch":28,"velocity":117,"startTime":66.37926166666668,"endTime":66.4654685,"instrument":4,"program":35},{"pitch":28,"velocity":117,"startTime":66.4654685,"endTime":66.59477875,"instrument":4,"program":35},{"pitch":32,"velocity":117,"startTime":68.53443250000001,"endTime":68.793053,"instrument":4,"program":35},{"pitch":37,"velocity":117,"startTime":68.793053,"endTime":68.92236325,"instrument":4,"program":35},{"pitch":33,"velocity":117,"startTime":68.96546666666669,"endTime":69.0516735,"instrument":4,"program":35},{"pitch":33,"velocity":117,"startTime":69.0516735,"endTime":69.18098375000001,"instrument":4,"program":35},{"pitch":36,"velocity":117,"startTime":71.1206375,"endTime":71.24994775,"instrument":4,"program":35},{"pitch":38,"velocity":117,"startTime":71.37925800000001,"endTime":71.50856825000001,"instrument":4,"program":35},{"pitch":38,"velocity":117,"startTime":71.55167166666666,"endTime":71.6378785,"instrument":4,"program":35},{"pitch":42,"velocity":117,"startTime":71.6378785,"endTime":71.76718875,"instrument":4,"program":35},{"pitch":35,"velocity":117,"startTime":72.41374,"endTime":72.67236050000001,"instrument":4,"program":35},{"pitch":35,"velocity":117,"startTime":72.67236050000001,"endTime":72.80167075,"instrument":4,"program":35},{"pitch":28,"velocity":117,"startTime":74.482704,"endTime":74.61201425,"instrument":4,"program":35},{"pitch":28,"velocity":117,"startTime":74.65511766666667,"endTime":74.7413245,"instrument":4,"program":35},{"pitch":28,"velocity":117,"startTime":74.7413245,"endTime":74.87063475000001,"instrument":4,"program":35},{"pitch":37,"velocity":117,"startTime":76.551668,"endTime":76.68097825000001,"instrument":4,"program":35},{"pitch":37,"velocity":117,"startTime":76.72408166666668,"endTime":76.8102885,"instrument":4,"program":35},{"pitch":37,"velocity":117,"startTime":76.8102885,"endTime":76.93959875,"instrument":4,"program":35},{"pitch":33,"velocity":117,"startTime":78.53442516666667,"endTime":78.620632,"instrument":4,"program":35},{"pitch":36,"velocity":117,"startTime":78.620632,"endTime":78.74994225,"instrument":4,"program":35},{"pitch":36,"velocity":117,"startTime":78.74994225,"endTime":78.8792525,"instrument":4,"program":35},{"pitch":35,"velocity":117,"startTime":78.8792525,"endTime":79.00856275000001,"instrument":4,"program":35},{"pitch":35,"velocity":117,"startTime":80.68959600000001,"endTime":80.81890625,"instrument":4,"program":35},{"pitch":35,"velocity":117,"startTime":80.86200966666667,"endTime":80.9482165,"instrument":4,"program":35},{"pitch":35,"velocity":117,"startTime":80.9482165,"endTime":81.07752675,"instrument":4,"program":35},{"pitch":38,"velocity":117,"startTime":82.241319,"endTime":82.37062925000001,"instrument":4,"program":35},{"pitch":38,"velocity":117,"startTime":82.41373266666668,"endTime":82.49993950000001,"instrument":4,"program":35},{"pitch":36,"velocity":105,"startTime":82.75856,"endTime":82.84476683333334,"isDrum":true},{"pitch":42,"velocity":105,"startTime":82.75856,"endTime":82.84476683333334,"isDrum":true},{"pitch":49,"velocity":105,"startTime":82.75856,"endTime":82.84476683333334,"isDrum":true},{"pitch":42,"velocity":105,"startTime":83.01718050000001,"endTime":83.10338733333334,"isDrum":true},{"pitch":38,"velocity":105,"startTime":83.275801,"endTime":83.36200783333334,"isDrum":true},{"pitch":39,"velocity":105,"startTime":83.275801,"endTime":83.36200783333334,"isDrum":true},{"pitch":42,"velocity":105,"startTime":83.275801,"endTime":83.36200783333334,"isDrum":true},{"pitch":69,"velocity":105,"startTime":83.275801,"endTime":83.36200783333334,"isDrum":true},{"pitch":42,"velocity":105,"startTime":83.53442150000001,"endTime":83.62062833333334,"isDrum":true},{"pitch":36,"velocity":105,"startTime":83.793042,"endTime":83.87924883333334,"isDrum":true},{"pitch":42,"velocity":105,"startTime":83.793042,"endTime":83.87924883333334,"isDrum":true},{"pitch":69,"velocity":105,"startTime":83.793042,"endTime":83.87924883333334,"isDrum":true},{"pitch":42,"velocity":105,"startTime":84.0516625,"endTime":84.13786933333334,"isDrum":true},{"pitch":38,"velocity":105,"startTime":84.310283,"endTime":84.39648983333333,"isDrum":true},{"pitch":39,"velocity":105,"startTime":84.310283,"endTime":84.39648983333333,"isDrum":true},{"pitch":42,"velocity":105,"startTime":84.310283,"endTime":84.39648983333333,"isDrum":true},{"pitch":69,"velocity":105,"startTime":84.310283,"endTime":84.39648983333333,"isDrum":true},{"pitch":42,"velocity":105,"startTime":84.5689035,"endTime":84.65511033333334,"isDrum":true},{"pitch":36,"velocity":105,"startTime":84.82752400000001,"endTime":84.91373083333333,"isDrum":true},{"pitch":42,"velocity":105,"startTime":84.82752400000001,"endTime":84.91373083333333,"isDrum":true},{"pitch":42,"velocity":105,"startTime":85.0861445,"endTime":85.17235133333334,"isDrum":true},{"pitch":38,"velocity":105,"startTime":85.34476500000001,"endTime":85.43097183333334,"isDrum":true},{"pitch":39,"velocity":105,"startTime":85.34476500000001,"endTime":85.43097183333334,"isDrum":true},{"pitch":42,"velocity":105,"startTime":85.34476500000001,"endTime":85.43097183333334,"isDrum":true},{"pitch":69,"velocity":105,"startTime":85.34476500000001,"endTime":85.43097183333334,"isDrum":true},{"pitch":36,"velocity":105,"startTime":85.6033855,"endTime":85.68959233333334,"isDrum":true},{"pitch":42,"velocity":105,"startTime":85.6033855,"endTime":85.68959233333334,"isDrum":true},{"pitch":36,"velocity":105,"startTime":85.86200600000001,"endTime":85.94821283333334,"isDrum":true},{"pitch":42,"velocity":105,"startTime":85.86200600000001,"endTime":85.94821283333334,"isDrum":true},{"pitch":42,"velocity":105,"startTime":86.1206265,"endTime":86.20683333333334,"isDrum":true},{"pitch":38,"velocity":105,"startTime":86.379247,"endTime":86.46545383333334,"isDrum":true},{"pitch":39,"velocity":105,"startTime":86.379247,"endTime":86.46545383333334,"isDrum":true},{"pitch":42,"velocity":105,"startTime":86.379247,"endTime":86.46545383333334,"isDrum":true},{"pitch":69,"velocity":105,"startTime":86.379247,"endTime":86.46545383333334,"isDrum":true},{"pitch":36,"velocity":105,"startTime":86.6378675,"endTime":86.72407433333333,"isDrum":true},{"pitch":42,"velocity":105,"startTime":86.6378675,"endTime":86.72407433333333,"isDrum":true},{"pitch":36,"velocity":105,"startTime":86.896488,"endTime":86.98269483333334,"isDrum":true},{"pitch":42,"velocity":105,"startTime":86.896488,"endTime":86.98269483333334,"isDrum":true},{"pitch":42,"velocity":105,"startTime":87.15510850000001,"endTime":87.24131533333333,"isDrum":true},{"pitch":38,"velocity":105,"startTime":87.413729,"endTime":87.49993583333334,"isDrum":true},{"pitch":39,"velocity":105,"startTime":87.413729,"endTime":87.49993583333334,"isDrum":true},{"pitch":42,"velocity":105,"startTime":87.413729,"endTime":87.49993583333334,"isDrum":true},{"pitch":69,"velocity":105,"startTime":87.413729,"endTime":87.49993583333334,"isDrum":true},{"pitch":36,"velocity":105,"startTime":87.67234950000001,"endTime":87.75855633333335,"isDrum":true},{"pitch":42,"velocity":105,"startTime":87.67234950000001,"endTime":87.75855633333335,"isDrum":true},{"pitch":36,"velocity":105,"startTime":87.93097,"endTime":88.01717683333334,"isDrum":true},{"pitch":42,"velocity":105,"startTime":87.93097,"endTime":88.01717683333334,"isDrum":true},{"pitch":42,"velocity":105,"startTime":88.18959050000001,"endTime":88.27579733333334,"isDrum":true},{"pitch":38,"velocity":105,"startTime":88.448211,"endTime":88.53441783333334,"isDrum":true},{"pitch":39,"velocity":105,"startTime":88.448211,"endTime":88.53441783333334,"isDrum":true},{"pitch":42,"velocity":105,"startTime":88.448211,"endTime":88.53441783333334,"isDrum":true},{"pitch":69,"velocity":105,"startTime":88.448211,"endTime":88.53441783333334,"isDrum":true},{"pitch":36,"velocity":105,"startTime":88.7068315,"endTime":88.79303833333334,"isDrum":true},{"pitch":42,"velocity":105,"startTime":88.7068315,"endTime":88.79303833333334,"isDrum":true},{"pitch":36,"velocity":105,"startTime":88.965452,"endTime":89.05165883333333,"isDrum":true},{"pitch":42,"velocity":105,"startTime":88.965452,"endTime":89.05165883333333,"isDrum":true},{"pitch":42,"velocity":105,"startTime":89.2240725,"endTime":89.31027933333334,"isDrum":true},{"pitch":38,"velocity":105,"startTime":89.48269300000001,"endTime":89.56889983333333,"isDrum":true},{"pitch":39,"velocity":105,"startTime":89.48269300000001,"endTime":89.56889983333333,"isDrum":true},{"pitch":42,"velocity":105,"startTime":89.48269300000001,"endTime":89.56889983333333,"isDrum":true},{"pitch":69,"velocity":105,"startTime":89.48269300000001,"endTime":89.56889983333333,"isDrum":true},{"pitch":36,"velocity":105,"startTime":89.7413135,"endTime":89.82752033333334,"isDrum":true},{"pitch":42,"velocity":105,"startTime":89.7413135,"endTime":89.82752033333334,"isDrum":true},{"pitch":36,"velocity":105,"startTime":89.99993400000001,"endTime":90.08614083333333,"isDrum":true},{"pitch":42,"velocity":105,"startTime":89.99993400000001,"endTime":90.08614083333333,"isDrum":true},{"pitch":42,"velocity":105,"startTime":90.2585545,"endTime":90.34476133333334,"isDrum":true},{"pitch":38,"velocity":105,"startTime":90.51717500000001,"endTime":90.60338183333334,"isDrum":true},{"pitch":39,"velocity":105,"startTime":90.51717500000001,"endTime":90.60338183333334,"isDrum":true},{"pitch":42,"velocity":105,"startTime":90.51717500000001,"endTime":90.60338183333334,"isDrum":true},{"pitch":69,"velocity":105,"startTime":90.51717500000001,"endTime":90.60338183333334,"isDrum":true},{"pitch":36,"velocity":105,"startTime":90.7757955,"endTime":90.86200233333334,"isDrum":true},{"pitch":42,"velocity":105,"startTime":90.7757955,"endTime":90.86200233333334,"isDrum":true},{"pitch":36,"velocity":105,"startTime":91.03441600000001,"endTime":91.12062283333334,"isDrum":true},{"pitch":42,"velocity":105,"startTime":91.03441600000001,"endTime":91.12062283333334,"isDrum":true},{"pitch":42,"velocity":105,"startTime":91.2930365,"endTime":91.37924333333333,"isDrum":true},{"pitch":38,"velocity":105,"startTime":91.551657,"endTime":91.63786383333334,"isDrum":true},{"pitch":39,"velocity":105,"startTime":91.551657,"endTime":91.63786383333334,"isDrum":true},{"pitch":42,"velocity":105,"startTime":91.551657,"endTime":91.63786383333334,"isDrum":true},{"pitch":69,"velocity":105,"startTime":91.551657,"endTime":91.63786383333334,"isDrum":true},{"pitch":36,"velocity":105,"startTime":91.81027750000001,"endTime":91.89648433333333,"isDrum":true},{"pitch":42,"velocity":105,"startTime":91.81027750000001,"endTime":91.89648433333333,"isDrum":true},{"pitch":36,"velocity":105,"startTime":92.068898,"endTime":92.15510483333334,"isDrum":true},{"pitch":42,"velocity":105,"startTime":92.068898,"endTime":92.15510483333334,"isDrum":true},{"pitch":42,"velocity":105,"startTime":92.32751850000001,"endTime":92.41372533333333,"isDrum":true},{"pitch":38,"velocity":105,"startTime":92.586139,"endTime":92.67234583333334,"isDrum":true},{"pitch":39,"velocity":105,"startTime":92.586139,"endTime":92.67234583333334,"isDrum":true},{"pitch":42,"velocity":105,"startTime":92.586139,"endTime":92.67234583333334,"isDrum":true},{"pitch":69,"velocity":105,"startTime":92.586139,"endTime":92.67234583333334,"isDrum":true},{"pitch":36,"velocity":105,"startTime":92.84475950000001,"endTime":92.93096633333334,"isDrum":true},{"pitch":42,"velocity":105,"startTime":92.84475950000001,"endTime":92.93096633333334,"isDrum":true},{"pitch":36,"velocity":105,"startTime":93.10338,"endTime":93.18958683333334,"isDrum":true},{"pitch":42,"velocity":105,"startTime":93.10338,"endTime":93.18958683333334,"isDrum":true},{"pitch":42,"velocity":105,"startTime":93.36200050000001,"endTime":93.44820733333334,"isDrum":true},{"pitch":38,"velocity":105,"startTime":93.620621,"endTime":93.70682783333334,"isDrum":true},{"pitch":39,"velocity":105,"startTime":93.620621,"endTime":93.70682783333334,"isDrum":true},{"pitch":42,"velocity":105,"startTime":93.620621,"endTime":93.70682783333334,"isDrum":true},{"pitch":69,"velocity":105,"startTime":93.620621,"endTime":93.70682783333334,"isDrum":true},{"pitch":36,"velocity":105,"startTime":93.8792415,"endTime":93.96544833333334,"isDrum":true},{"pitch":42,"velocity":105,"startTime":93.8792415,"endTime":93.96544833333334,"isDrum":true},{"pitch":36,"velocity":105,"startTime":94.137862,"endTime":94.22406883333333,"isDrum":true},{"pitch":42,"velocity":105,"startTime":94.137862,"endTime":94.22406883333333,"isDrum":true},{"pitch":42,"velocity":105,"startTime":94.3964825,"endTime":94.48268933333334,"isDrum":true},{"pitch":38,"velocity":105,"startTime":94.65510300000001,"endTime":94.74130983333333,"isDrum":true},{"pitch":39,"velocity":105,"startTime":94.65510300000001,"endTime":94.74130983333333,"isDrum":true},{"pitch":42,"velocity":105,"startTime":94.65510300000001,"endTime":94.74130983333333,"isDrum":true},{"pitch":69,"velocity":105,"startTime":94.65510300000001,"endTime":94.74130983333333,"isDrum":true},{"pitch":36,"velocity":105,"startTime":94.9137235,"endTime":94.99993033333334,"isDrum":true},{"pitch":42,"velocity":105,"startTime":94.9137235,"endTime":94.99993033333334,"isDrum":true},{"pitch":36,"velocity":105,"startTime":95.17234400000001,"endTime":95.25855083333335,"isDrum":true},{"pitch":42,"velocity":105,"startTime":95.17234400000001,"endTime":95.25855083333335,"isDrum":true},{"pitch":42,"velocity":105,"startTime":95.4309645,"endTime":95.51717133333334,"isDrum":true},{"pitch":38,"velocity":105,"startTime":95.68958500000001,"endTime":95.77579183333334,"isDrum":true},{"pitch":39,"velocity":105,"startTime":95.68958500000001,"endTime":95.77579183333334,"isDrum":true},{"pitch":42,"velocity":105,"startTime":95.68958500000001,"endTime":95.77579183333334,"isDrum":true},{"pitch":69,"velocity":105,"startTime":95.68958500000001,"endTime":95.77579183333334,"isDrum":true},{"pitch":36,"velocity":105,"startTime":95.9482055,"endTime":96.03441233333334,"isDrum":true},{"pitch":42,"velocity":105,"startTime":95.9482055,"endTime":96.03441233333334,"isDrum":true},{"pitch":36,"velocity":105,"startTime":96.206826,"endTime":96.29303283333334,"isDrum":true},{"pitch":42,"velocity":105,"startTime":96.206826,"endTime":96.29303283333334,"isDrum":true},{"pitch":42,"velocity":105,"startTime":96.4654465,"endTime":96.55165333333333,"isDrum":true},{"pitch":38,"velocity":105,"startTime":96.724067,"endTime":96.81027383333334,"isDrum":true},{"pitch":39,"velocity":105,"startTime":96.724067,"endTime":96.81027383333334,"isDrum":true},{"pitch":42,"velocity":105,"startTime":96.724067,"endTime":96.81027383333334,"isDrum":true},{"pitch":69,"velocity":105,"startTime":96.724067,"endTime":96.81027383333334,"isDrum":true},{"pitch":36,"velocity":105,"startTime":96.98268750000001,"endTime":97.06889433333333,"isDrum":true},{"pitch":42,"velocity":105,"startTime":96.98268750000001,"endTime":97.06889433333333,"isDrum":true},{"pitch":36,"velocity":105,"startTime":97.241308,"endTime":97.32751483333334,"isDrum":true},{"pitch":42,"velocity":105,"startTime":97.241308,"endTime":97.32751483333334,"isDrum":true},{"pitch":42,"velocity":105,"startTime":97.49992850000001,"endTime":97.58613533333335,"isDrum":true},{"pitch":38,"velocity":105,"startTime":97.758549,"endTime":97.84475583333334,"isDrum":true},{"pitch":39,"velocity":105,"startTime":97.758549,"endTime":97.84475583333334,"isDrum":true},{"pitch":42,"velocity":105,"startTime":97.758549,"endTime":97.84475583333334,"isDrum":true},{"pitch":69,"velocity":105,"startTime":97.758549,"endTime":97.84475583333334,"isDrum":true},{"pitch":36,"velocity":105,"startTime":98.01716950000001,"endTime":98.10337633333334,"isDrum":true},{"pitch":42,"velocity":105,"startTime":98.01716950000001,"endTime":98.10337633333334,"isDrum":true},{"pitch":63,"velocity":123,"startTime":84.0516625,"endTime":84.18097275000001,"instrument":1,"program":4},{"pitch":66,"velocity":123,"startTime":84.0516625,"endTime":84.18097275000001,"instrument":1,"program":4},{"pitch":68,"velocity":123,"startTime":84.0516625,"endTime":84.18097275000001,"instrument":1,"program":4},{"pitch":71,"velocity":123,"startTime":84.0516625,"endTime":84.18097275000001,"instrument":1,"program":4},{"pitch":56,"velocity":123,"startTime":85.0861445,"endTime":85.21545475,"instrument":1,"program":4},{"pitch":61,"velocity":123,"startTime":85.0861445,"endTime":85.21545475,"instrument":1,"program":4},{"pitch":64,"velocity":123,"startTime":85.0861445,"endTime":85.21545475,"instrument":1,"program":4},{"pitch":56,"velocity":123,"startTime":85.34476500000001,"endTime":85.6033855,"instrument":1,"program":4},{"pitch":61,"velocity":123,"startTime":85.34476500000001,"endTime":85.6033855,"instrument":1,"program":4},{"pitch":64,"velocity":123,"startTime":85.34476500000001,"endTime":85.6033855,"instrument":1,"program":4},{"pitch":56,"velocity":123,"startTime":86.1206265,"endTime":86.24993675,"instrument":1,"program":4},{"pitch":61,"velocity":123,"startTime":86.1206265,"endTime":86.24993675,"instrument":1,"program":4},{"pitch":64,"velocity":123,"startTime":86.1206265,"endTime":86.24993675,"instrument":1,"program":4},{"pitch":57,"velocity":123,"startTime":87.15510850000001,"endTime":87.28441875,"instrument":1,"program":4},{"pitch":60,"velocity":123,"startTime":87.15510850000001,"endTime":87.28441875,"instrument":1,"program":4},{"pitch":64,"velocity":123,"startTime":87.15510850000001,"endTime":87.28441875,"instrument":1,"program":4},{"pitch":57,"velocity":123,"startTime":88.18959050000001,"endTime":88.31890075000001,"instrument":1,"program":4},{"pitch":60,"velocity":123,"startTime":88.18959050000001,"endTime":88.31890075000001,"instrument":1,"program":4},{"pitch":64,"velocity":123,"startTime":88.18959050000001,"endTime":88.31890075000001,"instrument":1,"program":4},{"pitch":57,"velocity":123,"startTime":89.2240725,"endTime":89.35338275000001,"instrument":1,"program":4},{"pitch":59,"velocity":123,"startTime":89.2240725,"endTime":89.35338275000001,"instrument":1,"program":4},{"pitch":62,"velocity":123,"startTime":89.2240725,"endTime":89.35338275000001,"instrument":1,"program":4},{"pitch":66,"velocity":123,"startTime":89.2240725,"endTime":89.35338275000001,"instrument":1,"program":4},{"pitch":57,"velocity":123,"startTime":89.7413135,"endTime":89.87062375000001,"instrument":1,"program":4},{"pitch":59,"velocity":123,"startTime":89.7413135,"endTime":89.87062375000001,"instrument":1,"program":4},{"pitch":62,"velocity":123,"startTime":89.7413135,"endTime":89.87062375000001,"instrument":1,"program":4},{"pitch":66,"velocity":123,"startTime":89.7413135,"endTime":89.87062375000001,"instrument":1,"program":4},{"pitch":57,"velocity":123,"startTime":90.7757955,"endTime":90.90510575,"instrument":1,"program":4},{"pitch":59,"velocity":123,"startTime":90.7757955,"endTime":90.90510575,"instrument":1,"program":4},{"pitch":62,"velocity":123,"startTime":90.7757955,"endTime":90.90510575,"instrument":1,"program":4},{"pitch":66,"velocity":123,"startTime":90.7757955,"endTime":90.90510575,"instrument":1,"program":4},{"pitch":59,"velocity":123,"startTime":91.03441600000001,"endTime":91.2930365,"instrument":1,"program":4},{"pitch":62,"velocity":123,"startTime":91.03441600000001,"endTime":91.2930365,"instrument":1,"program":4},{"pitch":66,"velocity":123,"startTime":91.03441600000001,"endTime":91.2930365,"instrument":1,"program":4},{"pitch":59,"velocity":123,"startTime":92.32751850000001,"endTime":92.45682875,"instrument":1,"program":4},{"pitch":62,"velocity":123,"startTime":92.32751850000001,"endTime":92.45682875,"instrument":1,"program":4},{"pitch":66,"velocity":123,"startTime":92.32751850000001,"endTime":92.45682875,"instrument":1,"program":4},{"pitch":60,"velocity":123,"startTime":93.36200050000001,"endTime":93.49131075000001,"instrument":1,"program":4},{"pitch":64,"velocity":123,"startTime":93.36200050000001,"endTime":93.49131075000001,"instrument":1,"program":4},{"pitch":66,"velocity":123,"startTime":93.36200050000001,"endTime":93.49131075000001,"instrument":1,"program":4},{"pitch":59,"velocity":123,"startTime":94.137862,"endTime":94.3964825,"instrument":1,"program":4},{"pitch":61,"velocity":123,"startTime":94.137862,"endTime":94.3964825,"instrument":1,"program":4},{"pitch":64,"velocity":123,"startTime":94.137862,"endTime":94.3964825,"instrument":1,"program":4},{"pitch":60,"velocity":123,"startTime":95.4309645,"endTime":95.56027475,"instrument":1,"program":4},{"pitch":64,"velocity":123,"startTime":95.4309645,"endTime":95.56027475,"instrument":1,"program":4},{"pitch":66,"velocity":123,"startTime":95.4309645,"endTime":95.56027475,"instrument":1,"program":4},{"pitch":60,"velocity":123,"startTime":95.9482055,"endTime":96.07751575,"instrument":1,"program":4},{"pitch":64,"velocity":123,"startTime":95.9482055,"endTime":96.07751575,"instrument":1,"program":4},{"pitch":66,"velocity":123,"startTime":95.9482055,"endTime":96.07751575,"instrument":1,"program":4},{"pitch":60,"velocity":123,"startTime":96.206826,"endTime":96.59475675,"instrument":1,"program":4},{"pitch":64,"velocity":123,"startTime":96.206826,"endTime":96.59475675,"instrument":1,"program":4},{"pitch":66,"velocity":123,"startTime":96.206826,"endTime":96.59475675,"instrument":1,"program":4},{"pitch":60,"velocity":123,"startTime":96.724067,"endTime":97.11199775,"instrument":1,"program":4},{"pitch":64,"velocity":123,"startTime":96.724067,"endTime":97.11199775,"instrument":1,"program":4},{"pitch":66,"velocity":123,"startTime":96.724067,"endTime":97.11199775,"instrument":1,"program":4},{"pitch":57,"velocity":123,"startTime":97.49992850000001,"endTime":97.62923875,"instrument":1,"program":4},{"pitch":62,"velocity":123,"startTime":97.49992850000001,"endTime":97.62923875,"instrument":1,"program":4},{"pitch":66,"velocity":123,"startTime":97.49992850000001,"endTime":97.62923875,"instrument":1,"program":4},{"pitch":57,"velocity":123,"startTime":98.5344105,"endTime":98.66372075000001,"instrument":1,"program":4},{"pitch":62,"velocity":123,"startTime":98.5344105,"endTime":98.66372075000001,"instrument":1,"program":4},{"pitch":66,"velocity":123,"startTime":98.5344105,"endTime":98.66372075000001,"instrument":1,"program":4},{"pitch":59,"velocity":123,"startTime":83.01718050000001,"endTime":83.06028391666668,"instrument":2,"program":27},{"pitch":59,"velocity":123,"startTime":83.275801,"endTime":83.40511125,"instrument":2,"program":27},{"pitch":59,"velocity":123,"startTime":83.53442150000001,"endTime":83.66373175000001,"instrument":2,"program":27},{"pitch":59,"velocity":123,"startTime":83.793042,"endTime":83.83614541666667,"instrument":2,"program":27},{"pitch":59,"velocity":123,"startTime":84.0516625,"endTime":84.09476591666667,"instrument":2,"program":27},{"pitch":59,"velocity":123,"startTime":84.310283,"endTime":84.43959325,"instrument":2,"program":27},{"pitch":64,"velocity":123,"startTime":84.43959325,"endTime":84.52580008333334,"instrument":2,"program":27},{"pitch":59,"velocity":123,"startTime":84.5689035,"endTime":84.65511033333334,"instrument":2,"program":27},{"pitch":61,"velocity":123,"startTime":85.0861445,"endTime":85.12924791666667,"instrument":2,"program":27},{"pitch":61,"velocity":123,"startTime":85.21545475,"endTime":85.30166158333334,"instrument":2,"program":27},{"pitch":61,"velocity":123,"startTime":85.34476500000001,"endTime":85.47407525,"instrument":2,"program":27},{"pitch":61,"velocity":123,"startTime":85.6033855,"endTime":85.73269575,"instrument":2,"program":27},{"pitch":61,"velocity":123,"startTime":85.86200600000001,"endTime":85.99131625000001,"instrument":2,"program":27},{"pitch":61,"velocity":123,"startTime":86.1206265,"endTime":86.24993675,"instrument":2,"program":27},{"pitch":61,"velocity":123,"startTime":86.379247,"endTime":86.50855725000001,"instrument":2,"program":27},{"pitch":64,"velocity":123,"startTime":86.50855725000001,"endTime":86.6378675,"instrument":2,"program":27},{"pitch":60,"velocity":123,"startTime":86.896488,"endTime":87.02579825000001,"instrument":2,"program":27},{"pitch":60,"velocity":123,"startTime":87.02579825000001,"endTime":87.15510850000001,"instrument":2,"program":27},{"pitch":60,"velocity":123,"startTime":87.15510850000001,"endTime":87.28441875,"instrument":2,"program":27},{"pitch":60,"velocity":123,"startTime":87.413729,"endTime":87.54303925,"instrument":2,"program":27},{"pitch":60,"velocity":123,"startTime":87.54303925,"endTime":87.67234950000001,"instrument":2,"program":27},{"pitch":60,"velocity":123,"startTime":88.18959050000001,"endTime":88.23269391666668,"instrument":2,"program":27},{"pitch":60,"velocity":123,"startTime":88.31890075000001,"endTime":88.40510758333333,"instrument":2,"program":27},{"pitch":62,"velocity":123,"startTime":88.448211,"endTime":88.57752125,"instrument":2,"program":27},{"pitch":60,"velocity":123,"startTime":88.57752125,"endTime":88.7068315,"instrument":2,"program":27},{"pitch":59,"velocity":123,"startTime":89.2240725,"endTime":89.26717591666667,"instrument":2,"program":27},{"pitch":59,"velocity":123,"startTime":89.35338275000001,"endTime":89.43958958333334,"instrument":2,"program":27},{"pitch":59,"velocity":123,"startTime":89.48269300000001,"endTime":89.61200325,"instrument":2,"program":27},{"pitch":59,"velocity":123,"startTime":89.61200325,"endTime":89.7413135,"instrument":2,"program":27},{"pitch":62,"velocity":123,"startTime":89.99993400000001,"endTime":90.04303741666668,"instrument":2,"program":27},{"pitch":62,"velocity":123,"startTime":90.2585545,"endTime":90.30165791666667,"instrument":2,"program":27},{"pitch":62,"velocity":123,"startTime":90.51717500000001,"endTime":90.64648525000001,"instrument":2,"program":27},{"pitch":62,"velocity":123,"startTime":90.64648525000001,"endTime":90.7757955,"instrument":2,"program":27},{"pitch":56,"velocity":123,"startTime":91.2930365,"endTime":91.33613991666667,"instrument":2,"program":27},{"pitch":56,"velocity":123,"startTime":91.42234675,"endTime":91.551657,"instrument":2,"program":27},{"pitch":59,"velocity":123,"startTime":91.551657,"endTime":91.68096725000001,"instrument":2,"program":27},{"pitch":59,"velocity":123,"startTime":91.81027750000001,"endTime":91.93958775,"instrument":2,"program":27},{"pitch":59,"velocity":123,"startTime":91.93958775,"endTime":92.02579458333334,"instrument":2,"program":27},{"pitch":59,"velocity":123,"startTime":92.068898,"endTime":92.15510483333334,"instrument":2,"program":27},{"pitch":59,"velocity":123,"startTime":92.19820825000001,"endTime":92.32751850000001,"instrument":2,"program":27},{"pitch":59,"velocity":123,"startTime":92.32751850000001,"endTime":92.45682875,"instrument":2,"program":27},{"pitch":59,"velocity":123,"startTime":92.586139,"endTime":92.71544925,"instrument":2,"program":27},{"pitch":59,"velocity":123,"startTime":92.71544925,"endTime":92.84475950000001,"instrument":2,"program":27},{"pitch":61,"velocity":123,"startTime":93.36200050000001,"endTime":93.40510391666668,"instrument":2,"program":27},{"pitch":61,"velocity":123,"startTime":93.49131075000001,"endTime":93.57751758333333,"instrument":2,"program":27},{"pitch":61,"velocity":123,"startTime":93.620621,"endTime":93.74993125,"instrument":2,"program":27},{"pitch":61,"velocity":123,"startTime":93.74993125,"endTime":93.8792415,"instrument":2,"program":27},{"pitch":61,"velocity":123,"startTime":94.3964825,"endTime":94.43958591666667,"instrument":2,"program":27},{"pitch":61,"velocity":123,"startTime":94.52579275000001,"endTime":94.65510300000001,"instrument":2,"program":27},{"pitch":61,"velocity":123,"startTime":94.65510300000001,"endTime":94.78441325,"instrument":2,"program":27},{"pitch":61,"velocity":123,"startTime":94.9137235,"endTime":95.04303375,"instrument":2,"program":27},{"pitch":60,"velocity":123,"startTime":95.4309645,"endTime":95.47406791666667,"instrument":2,"program":27},{"pitch":60,"velocity":123,"startTime":95.56027475,"endTime":95.64648158333334,"instrument":2,"program":27},{"pitch":60,"velocity":123,"startTime":95.68958500000001,"endTime":95.81889525000001,"instrument":2,"program":27},{"pitch":60,"velocity":123,"startTime":95.9482055,"endTime":96.07751575,"instrument":2,"program":27},{"pitch":60,"velocity":123,"startTime":96.206826,"endTime":96.33613625000001,"instrument":2,"program":27},{"pitch":62,"velocity":123,"startTime":96.33613625000001,"endTime":96.4654465,"instrument":2,"program":27},{"pitch":60,"velocity":123,"startTime":96.724067,"endTime":96.85337725000001,"instrument":2,"program":27},{"pitch":60,"velocity":123,"startTime":96.85337725000001,"endTime":96.98268750000001,"instrument":2,"program":27},{"pitch":59,"velocity":123,"startTime":97.49992850000001,"endTime":97.54303191666668,"instrument":2,"program":27},{"pitch":59,"velocity":123,"startTime":97.62923875,"endTime":97.71544558333333,"instrument":2,"program":27},{"pitch":59,"velocity":123,"startTime":97.758549,"endTime":97.88785925,"instrument":2,"program":27},{"pitch":59,"velocity":123,"startTime":97.88785925,"endTime":98.01716950000001,"instrument":2,"program":27},{"pitch":59,"velocity":123,"startTime":98.5344105,"endTime":98.57751391666667,"instrument":2,"program":27},{"pitch":59,"velocity":123,"startTime":98.66372075000001,"endTime":98.74992758333335,"instrument":2,"program":27},{"pitch":57,"velocity":123,"startTime":98.793031,"endTime":98.83613441666667,"instrument":2,"program":27},{"pitch":57,"velocity":123,"startTime":98.92234125,"endTime":98.96544466666667,"instrument":2,"program":27},{"pitch":59,"velocity":123,"startTime":99.0516515,"endTime":99.13785833333334,"instrument":2,"program":27},{"pitch":40,"velocity":117,"startTime":82.75856,"endTime":82.88787025,"instrument":4,"program":35},{"pitch":40,"velocity":117,"startTime":83.01718050000001,"endTime":83.275801,"instrument":4,"program":35},{"pitch":28,"velocity":117,"startTime":83.66373175000001,"endTime":83.74993858333333,"instrument":4,"program":35},{"pitch":32,"velocity":117,"startTime":83.793042,"endTime":83.92235225,"instrument":4,"program":35},{"pitch":32,"velocity":117,"startTime":84.0516625,"endTime":84.310283,"instrument":4,"program":35},{"pitch":32,"velocity":117,"startTime":84.310283,"endTime":84.5689035,"instrument":4,"program":35},{"pitch":32,"velocity":117,"startTime":84.5689035,"endTime":84.82752400000001,"instrument":4,"program":35},{"pitch":36,"velocity":117,"startTime":86.896488,"endTime":87.15510850000001,"instrument":4,"program":35},{"pitch":36,"velocity":117,"startTime":87.15510850000001,"endTime":87.413729,"instrument":4,"program":35},{"pitch":38,"velocity":117,"startTime":87.93097,"endTime":88.06028025,"instrument":4,"program":35},{"pitch":38,"velocity":117,"startTime":88.06028025,"endTime":88.18959050000001,"instrument":4,"program":35},{"pitch":45,"velocity":117,"startTime":88.18959050000001,"endTime":88.448211,"instrument":4,"program":35},{"pitch":38,"velocity":117,"startTime":88.448211,"endTime":88.57752125,"instrument":4,"program":35},{"pitch":38,"velocity":117,"startTime":88.57752125,"endTime":88.7068315,"instrument":4,"program":35},{"pitch":38,"velocity":117,"startTime":88.83614175000001,"endTime":88.965452,"instrument":4,"program":35},{"pitch":35,"velocity":117,"startTime":88.965452,"endTime":89.09476225,"instrument":4,"program":35},{"pitch":35,"velocity":117,"startTime":89.09476225,"endTime":89.2240725,"instrument":4,"program":35},{"pitch":30,"velocity":117,"startTime":89.2240725,"endTime":89.39648616666668,"instrument":4,"program":35},{"pitch":35,"velocity":117,"startTime":90.2585545,"endTime":90.51717500000001,"instrument":4,"program":35},{"pitch":40,"velocity":117,"startTime":90.51717500000001,"endTime":90.7757955,"instrument":4,"program":35},{"pitch":35,"velocity":117,"startTime":90.7757955,"endTime":91.03441600000001,"instrument":4,"program":35},{"pitch":40,"velocity":117,"startTime":91.03441600000001,"endTime":91.16372625000001,"instrument":4,"program":35},{"pitch":35,"velocity":117,"startTime":91.16372625000001,"endTime":91.2930365,"instrument":4,"program":35},{"pitch":40,"velocity":117,"startTime":91.2930365,"endTime":91.42234675,"instrument":4,"program":35},{"pitch":32,"velocity":117,"startTime":92.84475950000001,"endTime":93.10338,"instrument":4,"program":35},{"pitch":37,"velocity":117,"startTime":93.10338,"endTime":93.23269025,"instrument":4,"program":35},{"pitch":37,"velocity":117,"startTime":93.23269025,"endTime":93.36200050000001,"instrument":4,"program":35},{"pitch":32,"velocity":117,"startTime":93.36200050000001,"endTime":93.53441416666668,"instrument":4,"program":35},{"pitch":33,"velocity":117,"startTime":94.9137235,"endTime":95.17234400000001,"instrument":4,"program":35},{"pitch":36,"velocity":117,"startTime":95.17234400000001,"endTime":95.30165425,"instrument":4,"program":35},{"pitch":36,"velocity":117,"startTime":95.30165425,"endTime":95.4309645,"instrument":4,"program":35},{"pitch":36,"velocity":117,"startTime":95.4309645,"endTime":95.60337816666667,"instrument":4,"program":35},{"pitch":38,"velocity":117,"startTime":96.07751575,"endTime":96.206826,"instrument":4,"program":35},{"pitch":42,"velocity":117,"startTime":96.206826,"endTime":96.33613625000001,"instrument":4,"program":35},{"pitch":42,"velocity":117,"startTime":96.33613625000001,"endTime":96.4654465,"instrument":4,"program":35},{"pitch":36,"velocity":117,"startTime":96.4654465,"endTime":96.724067,"instrument":4,"program":35},{"pitch":38,"velocity":117,"startTime":96.724067,"endTime":96.85337725000001,"instrument":4,"program":35},{"pitch":38,"velocity":117,"startTime":96.98268750000001,"endTime":97.241308,"instrument":4,"program":35},{"pitch":35,"velocity":117,"startTime":97.241308,"endTime":97.758549,"instrument":4,"program":35},{"pitch":35,"velocity":117,"startTime":97.88785925,"endTime":98.27579,"instrument":4,"program":35},{"pitch":38,"velocity":117,"startTime":98.27579,"endTime":98.40510025,"instrument":4,"program":35},{"pitch":36,"velocity":117,"startTime":98.40510025,"endTime":98.5344105,"instrument":4,"program":35},{"pitch":38,"velocity":117,"startTime":98.5344105,"endTime":98.66372075000001,"instrument":4,"program":35},{"pitch":40,"velocity":118,"startTime":83.01718050000001,"endTime":83.23269758333333,"instrument":5,"program":87},{"pitch":52,"velocity":118,"startTime":83.275801,"endTime":83.40511125,"instrument":5,"program":87},{"pitch":52,"velocity":118,"startTime":83.53442150000001,"endTime":83.74993858333333,"instrument":5,"program":87},{"pitch":54,"velocity":118,"startTime":83.793042,"endTime":84.0516625,"instrument":5,"program":87},{"pitch":49,"velocity":118,"startTime":86.1206265,"endTime":86.33614358333334,"instrument":5,"program":87},{"pitch":49,"velocity":118,"startTime":86.379247,"endTime":86.50855725000001,"instrument":5,"program":87},{"pitch":51,"velocity":118,"startTime":86.6378675,"endTime":86.896488,"instrument":5,"program":87},{"pitch":48,"velocity":118,"startTime":87.15510850000001,"endTime":87.413729,"instrument":5,"program":87},{"pitch":48,"velocity":118,"startTime":87.54303925,"endTime":87.62924608333334,"instrument":5,"program":87},{"pitch":48,"velocity":118,"startTime":87.67234950000001,"endTime":87.93097,"instrument":5,"program":87},{"pitch":50,"velocity":118,"startTime":88.18959050000001,"endTime":88.448211,"instrument":5,"program":87},{"pitch":45,"velocity":118,"startTime":88.448211,"endTime":88.7068315,"instrument":5,"program":87},{"pitch":38,"velocity":118,"startTime":88.7068315,"endTime":88.965452,"instrument":5,"program":87},{"pitch":47,"velocity":118,"startTime":89.2240725,"endTime":89.43958958333334,"instrument":5,"program":87},{"pitch":47,"velocity":118,"startTime":89.48269300000001,"endTime":89.61200325,"instrument":5,"program":87},{"pitch":47,"velocity":118,"startTime":89.7413135,"endTime":89.95683058333334,"instrument":5,"program":87},{"pitch":40,"velocity":118,"startTime":91.03441600000001,"endTime":92.068898,"instrument":5,"program":87},{"pitch":52,"velocity":118,"startTime":92.32751850000001,"endTime":92.586139,"instrument":5,"program":87},{"pitch":52,"velocity":118,"startTime":92.71544925,"endTime":92.80165608333334,"instrument":5,"program":87},{"pitch":42,"velocity":118,"startTime":92.84475950000001,"endTime":93.10338,"instrument":5,"program":87},{"pitch":49,"velocity":118,"startTime":93.36200050000001,"endTime":93.620621,"instrument":5,"program":87},{"pitch":37,"velocity":118,"startTime":93.620621,"endTime":93.8792415,"instrument":5,"program":87},{"pitch":45,"velocity":118,"startTime":94.3964825,"endTime":94.65510300000001,"instrument":5,"program":87},{"pitch":45,"velocity":118,"startTime":94.65510300000001,"endTime":94.78441325,"instrument":5,"program":87},{"pitch":48,"velocity":118,"startTime":94.9137235,"endTime":95.68958500000001,"instrument":5,"program":87},{"pitch":48,"velocity":118,"startTime":95.9482055,"endTime":96.206826,"instrument":5,"program":87},{"pitch":48,"velocity":118,"startTime":96.4654465,"endTime":96.724067,"instrument":5,"program":87},{"pitch":36,"velocity":118,"startTime":96.724067,"endTime":96.85337725000001,"instrument":5,"program":87},{"pitch":47,"velocity":118,"startTime":96.98268750000001,"endTime":97.241308,"instrument":5,"program":87},{"pitch":47,"velocity":118,"startTime":97.49992850000001,"endTime":97.758549,"instrument":5,"program":87},{"pitch":36,"velocity":118,"startTime":97.88785925,"endTime":98.01716950000001,"instrument":5,"program":87},{"pitch":47,"velocity":118,"startTime":98.01716950000001,"endTime":98.27579,"instrument":5,"program":87},{"pitch":50,"velocity":118,"startTime":98.5344105,"endTime":98.793031,"instrument":5,"program":87},{"pitch":45,"velocity":118,"startTime":98.793031,"endTime":99.0516515,"instrument":5,"program":87},{"pitch":35,"velocity":105,"startTime":99.31027200000001,"endTime":99.43958225,"isDrum":true},{"pitch":42,"velocity":105,"startTime":99.31027200000001,"endTime":99.43958225,"isDrum":true},{"pitch":42,"velocity":105,"startTime":99.5688925,"endTime":99.69820275000001,"isDrum":true},{"pitch":38,"velocity":105,"startTime":99.82751300000001,"endTime":99.95682325,"isDrum":true},{"pitch":39,"velocity":105,"startTime":99.82751300000001,"endTime":99.95682325,"isDrum":true},{"pitch":40,"velocity":105,"startTime":99.82751300000001,"endTime":99.95682325,"isDrum":true},{"pitch":42,"velocity":105,"startTime":99.82751300000001,"endTime":99.95682325,"isDrum":true},{"pitch":42,"velocity":105,"startTime":100.0861335,"endTime":100.21544375,"isDrum":true},{"pitch":35,"velocity":105,"startTime":100.34475400000001,"endTime":100.47406425000001,"isDrum":true},{"pitch":42,"velocity":105,"startTime":100.34475400000001,"endTime":100.47406425000001,"isDrum":true},{"pitch":35,"velocity":105,"startTime":101.379236,"endTime":101.50854625000001,"isDrum":true},{"pitch":42,"velocity":105,"startTime":101.379236,"endTime":101.50854625000001,"isDrum":true},{"pitch":35,"velocity":105,"startTime":102.413718,"endTime":102.54302825,"isDrum":true},{"pitch":42,"velocity":105,"startTime":102.413718,"endTime":102.54302825,"isDrum":true},{"pitch":42,"velocity":105,"startTime":103.18957950000001,"endTime":103.31888975000001,"isDrum":true},{"pitch":35,"velocity":105,"startTime":103.4482,"endTime":103.57751025,"isDrum":true},{"pitch":39,"velocity":105,"startTime":103.4482,"endTime":103.57751025,"isDrum":true},{"pitch":40,"velocity":105,"startTime":103.4482,"endTime":103.57751025,"isDrum":true},{"pitch":42,"velocity":105,"startTime":103.4482,"endTime":103.57751025,"isDrum":true},{"pitch":42,"velocity":105,"startTime":103.7068205,"endTime":103.83613075000001,"isDrum":true},{"pitch":38,"velocity":105,"startTime":103.96544100000001,"endTime":104.09475125,"isDrum":true},{"pitch":39,"velocity":105,"startTime":103.96544100000001,"endTime":104.09475125,"isDrum":true},{"pitch":42,"velocity":105,"startTime":103.96544100000001,"endTime":104.09475125,"isDrum":true},{"pitch":42,"velocity":105,"startTime":104.2240615,"endTime":104.35337175000001,"isDrum":true},{"pitch":35,"velocity":105,"startTime":104.48268200000001,"endTime":104.61199225,"isDrum":true},{"pitch":42,"velocity":105,"startTime":104.48268200000001,"endTime":104.61199225,"isDrum":true},{"pitch":42,"velocity":105,"startTime":104.7413025,"endTime":104.87061275,"isDrum":true},{"pitch":38,"velocity":105,"startTime":104.99992300000001,"endTime":105.12923325000001,"isDrum":true},{"pitch":39,"velocity":105,"startTime":104.99992300000001,"endTime":105.12923325000001,"isDrum":true},{"pitch":40,"velocity":105,"startTime":104.99992300000001,"endTime":105.12923325000001,"isDrum":true},{"pitch":42,"velocity":105,"startTime":104.99992300000001,"endTime":105.12923325000001,"isDrum":true},{"pitch":42,"velocity":105,"startTime":105.2585435,"endTime":105.38785375,"isDrum":true},{"pitch":35,"velocity":105,"startTime":105.51716400000001,"endTime":105.64647425000001,"isDrum":true},{"pitch":42,"velocity":105,"startTime":105.51716400000001,"endTime":105.64647425000001,"isDrum":true},{"pitch":42,"velocity":105,"startTime":105.7757845,"endTime":105.90509475,"isDrum":true},{"pitch":38,"velocity":105,"startTime":106.034405,"endTime":106.16371525000001,"isDrum":true},{"pitch":39,"velocity":105,"startTime":106.034405,"endTime":106.16371525000001,"isDrum":true},{"pitch":40,"velocity":105,"startTime":106.034405,"endTime":106.16371525000001,"isDrum":true},{"pitch":42,"velocity":105,"startTime":106.034405,"endTime":106.16371525000001,"isDrum":true},{"pitch":42,"velocity":105,"startTime":106.29302550000001,"endTime":106.42233575,"isDrum":true},{"pitch":35,"velocity":105,"startTime":106.551646,"endTime":106.68095625000001,"isDrum":true},{"pitch":42,"velocity":105,"startTime":106.551646,"endTime":106.68095625000001,"isDrum":true},{"pitch":42,"velocity":105,"startTime":106.81026650000001,"endTime":106.93957675,"isDrum":true},{"pitch":38,"velocity":105,"startTime":107.068887,"endTime":107.19819725,"isDrum":true},{"pitch":39,"velocity":105,"startTime":107.068887,"endTime":107.19819725,"isDrum":true},{"pitch":40,"velocity":105,"startTime":107.068887,"endTime":107.19819725,"isDrum":true},{"pitch":42,"velocity":105,"startTime":107.068887,"endTime":107.19819725,"isDrum":true},{"pitch":42,"velocity":105,"startTime":107.32750750000001,"endTime":107.45681775000001,"isDrum":true},{"pitch":35,"velocity":105,"startTime":107.586128,"endTime":107.71543825,"isDrum":true},{"pitch":42,"velocity":105,"startTime":107.586128,"endTime":107.71543825,"isDrum":true},{"pitch":42,"velocity":105,"startTime":107.84474850000001,"endTime":107.97405875000001,"isDrum":true},{"pitch":38,"velocity":105,"startTime":108.103369,"endTime":108.23267925,"isDrum":true},{"pitch":39,"velocity":105,"startTime":108.103369,"endTime":108.23267925,"isDrum":true},{"pitch":40,"velocity":105,"startTime":108.103369,"endTime":108.23267925,"isDrum":true},{"pitch":42,"velocity":105,"startTime":108.103369,"endTime":108.23267925,"isDrum":true},{"pitch":42,"velocity":105,"startTime":108.3619895,"endTime":108.49129975000001,"isDrum":true},{"pitch":35,"velocity":105,"startTime":108.62061,"endTime":108.74992025,"isDrum":true},{"pitch":42,"velocity":105,"startTime":108.62061,"endTime":108.74992025,"isDrum":true},{"pitch":42,"velocity":105,"startTime":108.8792305,"endTime":109.00854075000001,"isDrum":true},{"pitch":38,"velocity":105,"startTime":109.13785100000001,"endTime":109.26716125,"isDrum":true},{"pitch":39,"velocity":105,"startTime":109.13785100000001,"endTime":109.26716125,"isDrum":true},{"pitch":40,"velocity":105,"startTime":109.13785100000001,"endTime":109.26716125,"isDrum":true},{"pitch":42,"velocity":105,"startTime":109.13785100000001,"endTime":109.26716125,"isDrum":true},{"pitch":42,"velocity":105,"startTime":109.3964715,"endTime":109.52578175000001,"isDrum":true},{"pitch":35,"velocity":105,"startTime":109.65509200000001,"endTime":109.78440225,"isDrum":true},{"pitch":42,"velocity":105,"startTime":109.65509200000001,"endTime":109.78440225,"isDrum":true},{"pitch":42,"velocity":105,"startTime":109.9137125,"endTime":110.04302275,"isDrum":true},{"pitch":38,"velocity":105,"startTime":110.17233300000001,"endTime":110.30164325000001,"isDrum":true},{"pitch":39,"velocity":105,"startTime":110.17233300000001,"endTime":110.30164325000001,"isDrum":true},{"pitch":40,"velocity":105,"startTime":110.17233300000001,"endTime":110.30164325000001,"isDrum":true},{"pitch":42,"velocity":105,"startTime":110.17233300000001,"endTime":110.30164325000001,"isDrum":true},{"pitch":42,"velocity":105,"startTime":110.4309535,"endTime":110.56026375,"isDrum":true},{"pitch":35,"velocity":105,"startTime":110.68957400000001,"endTime":110.81888425000001,"isDrum":true},{"pitch":42,"velocity":105,"startTime":110.68957400000001,"endTime":110.81888425000001,"isDrum":true},{"pitch":42,"velocity":105,"startTime":110.9481945,"endTime":111.07750475,"isDrum":true},{"pitch":38,"velocity":105,"startTime":111.206815,"endTime":111.33612525000001,"isDrum":true},{"pitch":39,"velocity":105,"startTime":111.206815,"endTime":111.33612525000001,"isDrum":true},{"pitch":40,"velocity":105,"startTime":111.206815,"endTime":111.33612525000001,"isDrum":true},{"pitch":42,"velocity":105,"startTime":111.206815,"endTime":111.33612525000001,"isDrum":true},{"pitch":42,"velocity":105,"startTime":111.46543550000001,"endTime":111.59474575,"isDrum":true},{"pitch":35,"velocity":105,"startTime":111.724056,"endTime":111.85336625000001,"isDrum":true},{"pitch":42,"velocity":105,"startTime":111.724056,"endTime":111.85336625000001,"isDrum":true},{"pitch":42,"velocity":105,"startTime":111.98267650000001,"endTime":112.11198675,"isDrum":true},{"pitch":38,"velocity":105,"startTime":112.241297,"endTime":112.37060725,"isDrum":true},{"pitch":39,"velocity":105,"startTime":112.241297,"endTime":112.37060725,"isDrum":true},{"pitch":40,"velocity":105,"startTime":112.241297,"endTime":112.37060725,"isDrum":true},{"pitch":42,"velocity":105,"startTime":112.241297,"endTime":112.37060725,"isDrum":true},{"pitch":42,"velocity":105,"startTime":112.49991750000001,"endTime":112.62922775000001,"isDrum":true},{"pitch":35,"velocity":105,"startTime":112.758538,"endTime":112.88784825,"isDrum":true},{"pitch":42,"velocity":105,"startTime":112.758538,"endTime":112.88784825,"isDrum":true},{"pitch":42,"velocity":105,"startTime":113.01715850000001,"endTime":113.14646875000001,"isDrum":true},{"pitch":38,"velocity":105,"startTime":113.275779,"endTime":113.40508925,"isDrum":true},{"pitch":39,"velocity":105,"startTime":113.275779,"endTime":113.40508925,"isDrum":true},{"pitch":40,"velocity":105,"startTime":113.275779,"endTime":113.40508925,"isDrum":true},{"pitch":42,"velocity":105,"startTime":113.275779,"endTime":113.40508925,"isDrum":true},{"pitch":42,"velocity":105,"startTime":113.5343995,"endTime":113.66370975000001,"isDrum":true},{"pitch":35,"velocity":105,"startTime":113.79302000000001,"endTime":113.92233025,"isDrum":true},{"pitch":42,"velocity":105,"startTime":113.79302000000001,"endTime":113.92233025,"isDrum":true},{"pitch":42,"velocity":105,"startTime":114.0516405,"endTime":114.18095075000001,"isDrum":true},{"pitch":38,"velocity":105,"startTime":114.31026100000001,"endTime":114.43957125,"isDrum":true},{"pitch":39,"velocity":105,"startTime":114.31026100000001,"endTime":114.43957125,"isDrum":true},{"pitch":40,"velocity":105,"startTime":114.31026100000001,"endTime":114.43957125,"isDrum":true},{"pitch":42,"velocity":105,"startTime":114.31026100000001,"endTime":114.43957125,"isDrum":true},{"pitch":42,"velocity":105,"startTime":114.5688815,"endTime":114.69819175,"isDrum":true},{"pitch":35,"velocity":105,"startTime":114.82750200000001,"endTime":114.95681225000001,"isDrum":true},{"pitch":42,"velocity":105,"startTime":114.82750200000001,"endTime":114.95681225000001,"isDrum":true},{"pitch":42,"velocity":105,"startTime":115.0861225,"endTime":115.21543275,"isDrum":true},{"pitch":38,"velocity":105,"startTime":115.34474300000001,"endTime":115.47405325000001,"isDrum":true},{"pitch":39,"velocity":105,"startTime":115.34474300000001,"endTime":115.47405325000001,"isDrum":true},{"pitch":40,"velocity":105,"startTime":115.34474300000001,"endTime":115.47405325000001,"isDrum":true},{"pitch":42,"velocity":105,"startTime":115.34474300000001,"endTime":115.47405325000001,"isDrum":true},{"pitch":42,"velocity":105,"startTime":115.6033635,"endTime":115.73267375,"isDrum":true},{"pitch":60,"velocity":123,"startTime":99.5688925,"endTime":99.82751300000001,"instrument":1,"program":4},{"pitch":62,"velocity":123,"startTime":99.5688925,"endTime":99.82751300000001,"instrument":1,"program":4},{"pitch":66,"velocity":123,"startTime":99.5688925,"endTime":99.82751300000001,"instrument":1,"program":4},{"pitch":60,"velocity":123,"startTime":99.82751300000001,"endTime":100.0861335,"instrument":1,"program":4},{"pitch":62,"velocity":123,"startTime":99.82751300000001,"endTime":100.0861335,"instrument":1,"program":4},{"pitch":66,"velocity":123,"startTime":99.82751300000001,"endTime":100.0861335,"instrument":1,"program":4},{"pitch":60,"velocity":123,"startTime":100.6033745,"endTime":100.99130525000001,"instrument":1,"program":4},{"pitch":63,"velocity":123,"startTime":100.6033745,"endTime":100.99130525000001,"instrument":1,"program":4},{"pitch":66,"velocity":123,"startTime":100.6033745,"endTime":100.99130525000001,"instrument":1,"program":4},{"pitch":60,"velocity":123,"startTime":101.1206155,"endTime":101.379236,"instrument":1,"program":4},{"pitch":63,"velocity":123,"startTime":101.1206155,"endTime":101.379236,"instrument":1,"program":4},{"pitch":66,"velocity":123,"startTime":101.1206155,"endTime":101.379236,"instrument":1,"program":4},{"pitch":61,"velocity":123,"startTime":101.63785650000001,"endTime":101.896477,"instrument":1,"program":4},{"pitch":64,"velocity":123,"startTime":101.63785650000001,"endTime":101.896477,"instrument":1,"program":4},{"pitch":68,"velocity":123,"startTime":101.63785650000001,"endTime":101.896477,"instrument":1,"program":4},{"pitch":61,"velocity":123,"startTime":101.896477,"endTime":102.15509750000001,"instrument":1,"program":4},{"pitch":64,"velocity":123,"startTime":101.896477,"endTime":102.15509750000001,"instrument":1,"program":4},{"pitch":68,"velocity":123,"startTime":101.896477,"endTime":102.15509750000001,"instrument":1,"program":4},{"pitch":64,"velocity":123,"startTime":102.67233850000001,"endTime":102.80164875000001,"instrument":1,"program":4},{"pitch":67,"velocity":123,"startTime":102.67233850000001,"endTime":102.80164875000001,"instrument":1,"program":4},{"pitch":69,"velocity":123,"startTime":102.67233850000001,"endTime":102.80164875000001,"instrument":1,"program":4},{"pitch":60,"velocity":123,"startTime":103.7068205,"endTime":104.2240615,"instrument":1,"program":4},{"pitch":64,"velocity":123,"startTime":103.7068205,"endTime":104.2240615,"instrument":1,"program":4},{"pitch":67,"velocity":123,"startTime":103.7068205,"endTime":104.2240615,"instrument":1,"program":4},{"pitch":62,"velocity":123,"startTime":104.48268200000001,"endTime":104.7413025,"instrument":1,"program":4},{"pitch":67,"velocity":123,"startTime":104.48268200000001,"endTime":104.7413025,"instrument":1,"program":4},{"pitch":69,"velocity":123,"startTime":104.48268200000001,"endTime":104.7413025,"instrument":1,"program":4},{"pitch":62,"velocity":123,"startTime":105.7757845,"endTime":106.034405,"instrument":1,"program":4},{"pitch":66,"velocity":123,"startTime":105.7757845,"endTime":106.034405,"instrument":1,"program":4},{"pitch":69,"velocity":123,"startTime":105.7757845,"endTime":106.034405,"instrument":1,"program":4},{"pitch":62,"velocity":123,"startTime":106.29302550000001,"endTime":106.42233575,"instrument":1,"program":4},{"pitch":66,"velocity":123,"startTime":106.29302550000001,"endTime":106.42233575,"instrument":1,"program":4},{"pitch":69,"velocity":123,"startTime":106.29302550000001,"endTime":106.42233575,"instrument":1,"program":4},{"pitch":62,"velocity":123,"startTime":106.81026650000001,"endTime":106.93957675,"instrument":1,"program":4},{"pitch":66,"velocity":123,"startTime":106.81026650000001,"endTime":106.93957675,"instrument":1,"program":4},{"pitch":69,"velocity":123,"startTime":106.81026650000001,"endTime":106.93957675,"instrument":1,"program":4},{"pitch":62,"velocity":123,"startTime":107.32750750000001,"endTime":107.586128,"instrument":1,"program":4},{"pitch":66,"velocity":123,"startTime":107.32750750000001,"endTime":107.586128,"instrument":1,"program":4},{"pitch":69,"velocity":123,"startTime":107.32750750000001,"endTime":107.586128,"instrument":1,"program":4},{"pitch":62,"velocity":123,"startTime":107.84474850000001,"endTime":108.103369,"instrument":1,"program":4},{"pitch":64,"velocity":123,"startTime":107.84474850000001,"endTime":108.103369,"instrument":1,"program":4},{"pitch":67,"velocity":123,"startTime":107.84474850000001,"endTime":108.103369,"instrument":1,"program":4},{"pitch":71,"velocity":123,"startTime":107.84474850000001,"endTime":108.103369,"instrument":1,"program":4},{"pitch":59,"velocity":123,"startTime":108.3619895,"endTime":108.49129975000001,"instrument":1,"program":4},{"pitch":63,"velocity":123,"startTime":108.3619895,"endTime":108.49129975000001,"instrument":1,"program":4},{"pitch":67,"velocity":123,"startTime":108.3619895,"endTime":108.49129975000001,"instrument":1,"program":4},{"pitch":60,"velocity":123,"startTime":109.3964715,"endTime":109.65509200000001,"instrument":1,"program":4},{"pitch":63,"velocity":123,"startTime":109.3964715,"endTime":109.65509200000001,"instrument":1,"program":4},{"pitch":66,"velocity":123,"startTime":109.3964715,"endTime":109.65509200000001,"instrument":1,"program":4},{"pitch":68,"velocity":123,"startTime":109.3964715,"endTime":109.65509200000001,"instrument":1,"program":4},{"pitch":61,"velocity":123,"startTime":109.9137125,"endTime":110.17233300000001,"instrument":1,"program":4},{"pitch":64,"velocity":123,"startTime":109.9137125,"endTime":110.17233300000001,"instrument":1,"program":4},{"pitch":68,"velocity":123,"startTime":109.9137125,"endTime":110.17233300000001,"instrument":1,"program":4},{"pitch":71,"velocity":123,"startTime":109.9137125,"endTime":110.17233300000001,"instrument":1,"program":4},{"pitch":59,"velocity":123,"startTime":111.46543550000001,"endTime":111.724056,"instrument":1,"program":4},{"pitch":62,"velocity":123,"startTime":111.46543550000001,"endTime":111.724056,"instrument":1,"program":4},{"pitch":64,"velocity":123,"startTime":111.46543550000001,"endTime":111.724056,"instrument":1,"program":4},{"pitch":67,"velocity":123,"startTime":111.46543550000001,"endTime":111.724056,"instrument":1,"program":4},{"pitch":60,"velocity":123,"startTime":111.98267650000001,"endTime":112.241297,"instrument":1,"program":4},{"pitch":64,"velocity":123,"startTime":111.98267650000001,"endTime":112.241297,"instrument":1,"program":4},{"pitch":67,"velocity":123,"startTime":111.98267650000001,"endTime":112.241297,"instrument":1,"program":4},{"pitch":69,"velocity":123,"startTime":111.98267650000001,"endTime":112.241297,"instrument":1,"program":4},{"pitch":60,"velocity":123,"startTime":112.49991750000001,"endTime":112.758538,"instrument":1,"program":4},{"pitch":64,"velocity":123,"startTime":112.49991750000001,"endTime":112.758538,"instrument":1,"program":4},{"pitch":67,"velocity":123,"startTime":112.49991750000001,"endTime":112.758538,"instrument":1,"program":4},{"pitch":69,"velocity":123,"startTime":112.49991750000001,"endTime":112.758538,"instrument":1,"program":4},{"pitch":60,"velocity":123,"startTime":113.01715850000001,"endTime":113.275779,"instrument":1,"program":4},{"pitch":64,"velocity":123,"startTime":113.01715850000001,"endTime":113.275779,"instrument":1,"program":4},{"pitch":67,"velocity":123,"startTime":113.01715850000001,"endTime":113.275779,"instrument":1,"program":4},{"pitch":69,"velocity":123,"startTime":113.01715850000001,"endTime":113.275779,"instrument":1,"program":4},{"pitch":60,"velocity":123,"startTime":113.5343995,"endTime":113.79302000000001,"instrument":1,"program":4},{"pitch":64,"velocity":123,"startTime":113.5343995,"endTime":113.79302000000001,"instrument":1,"program":4},{"pitch":67,"velocity":123,"startTime":113.5343995,"endTime":113.79302000000001,"instrument":1,"program":4},{"pitch":69,"velocity":123,"startTime":113.5343995,"endTime":113.79302000000001,"instrument":1,"program":4},{"pitch":59,"velocity":123,"startTime":114.0516405,"endTime":114.39646783333335,"instrument":1,"program":4},{"pitch":62,"velocity":123,"startTime":114.0516405,"endTime":114.39646783333335,"instrument":1,"program":4},{"pitch":66,"velocity":123,"startTime":114.0516405,"endTime":114.39646783333335,"instrument":1,"program":4},{"pitch":69,"velocity":123,"startTime":114.0516405,"endTime":114.39646783333335,"instrument":1,"program":4},{"pitch":59,"velocity":123,"startTime":114.5688815,"endTime":114.82750200000001,"instrument":1,"program":4},{"pitch":62,"velocity":123,"startTime":114.5688815,"endTime":114.82750200000001,"instrument":1,"program":4},{"pitch":66,"velocity":123,"startTime":114.5688815,"endTime":114.82750200000001,"instrument":1,"program":4},{"pitch":69,"velocity":123,"startTime":114.5688815,"endTime":114.82750200000001,"instrument":1,"program":4},{"pitch":59,"velocity":123,"startTime":115.0861225,"endTime":115.6033635,"instrument":1,"program":4},{"pitch":62,"velocity":123,"startTime":115.0861225,"endTime":115.6033635,"instrument":1,"program":4},{"pitch":66,"velocity":123,"startTime":115.0861225,"endTime":115.6033635,"instrument":1,"program":4},{"pitch":69,"velocity":123,"startTime":115.0861225,"endTime":115.6033635,"instrument":1,"program":4},{"pitch":55,"velocity":123,"startTime":99.5688925,"endTime":99.61199591666667,"instrument":2,"program":27},{"pitch":55,"velocity":123,"startTime":99.82751300000001,"endTime":99.95682325,"instrument":2,"program":27},{"pitch":55,"velocity":123,"startTime":100.0861335,"endTime":100.17234033333334,"instrument":2,"program":27},{"pitch":54,"velocity":123,"startTime":100.99130525000001,"endTime":101.1206155,"instrument":2,"program":27},{"pitch":56,"velocity":123,"startTime":101.1206155,"endTime":101.24992575,"instrument":2,"program":27},{"pitch":60,"velocity":123,"startTime":101.379236,"endTime":101.50854625000001,"instrument":2,"program":27},{"pitch":64,"velocity":123,"startTime":101.379236,"endTime":101.50854625000001,"instrument":2,"program":27},{"pitch":68,"velocity":123,"startTime":101.379236,"endTime":101.50854625000001,"instrument":2,"program":27},{"pitch":60,"velocity":123,"startTime":101.76716675,"endTime":101.85337358333334,"instrument":2,"program":27},{"pitch":64,"velocity":123,"startTime":101.76716675,"endTime":101.85337358333334,"instrument":2,"program":27},{"pitch":68,"velocity":123,"startTime":101.76716675,"endTime":101.85337358333334,"instrument":2,"program":27},{"pitch":57,"velocity":123,"startTime":102.54302825,"endTime":102.67233850000001,"instrument":2,"program":27},{"pitch":57,"velocity":123,"startTime":102.67233850000001,"endTime":102.75854533333334,"instrument":2,"program":27},{"pitch":57,"velocity":123,"startTime":102.930959,"endTime":103.06026925,"instrument":2,"program":27},{"pitch":57,"velocity":123,"startTime":103.18957950000001,"endTime":103.4482,"instrument":2,"program":27},{"pitch":60,"velocity":123,"startTime":103.4482,"endTime":103.83613075000001,"instrument":2,"program":27},{"pitch":64,"velocity":123,"startTime":103.4482,"endTime":103.83613075000001,"instrument":2,"program":27},{"pitch":69,"velocity":123,"startTime":103.4482,"endTime":103.83613075000001,"instrument":2,"program":27},{"pitch":60,"velocity":123,"startTime":103.96544100000001,"endTime":104.09475125,"instrument":2,"program":27},{"pitch":60,"velocity":123,"startTime":104.2240615,"endTime":104.35337175000001,"instrument":2,"program":27},{"pitch":60,"velocity":123,"startTime":104.7413025,"endTime":104.78440591666667,"instrument":2,"program":27},{"pitch":60,"velocity":123,"startTime":104.87061275,"endTime":104.99992300000001,"instrument":2,"program":27},{"pitch":69,"velocity":123,"startTime":104.99992300000001,"endTime":105.12923325000001,"instrument":2,"program":27},{"pitch":69,"velocity":123,"startTime":105.2585435,"endTime":105.38785375,"instrument":2,"program":27},{"pitch":62,"velocity":123,"startTime":105.51716400000001,"endTime":105.64647425000001,"instrument":2,"program":27},{"pitch":62,"velocity":123,"startTime":105.90509475,"endTime":105.99130158333334,"instrument":2,"program":27},{"pitch":62,"velocity":123,"startTime":106.034405,"endTime":106.16371525000001,"instrument":2,"program":27},{"pitch":62,"velocity":123,"startTime":106.29302550000001,"endTime":106.42233575,"instrument":2,"program":27},{"pitch":62,"velocity":123,"startTime":106.81026650000001,"endTime":106.93957675,"instrument":2,"program":27},{"pitch":59,"velocity":123,"startTime":107.068887,"endTime":107.19819725,"instrument":2,"program":27},{"pitch":59,"velocity":123,"startTime":107.32750750000001,"endTime":107.45681775000001,"instrument":2,"program":27},{"pitch":62,"velocity":123,"startTime":107.586128,"endTime":107.71543825,"instrument":2,"program":27},{"pitch":67,"velocity":123,"startTime":107.586128,"endTime":107.71543825,"instrument":2,"program":27},{"pitch":62,"velocity":123,"startTime":107.84474850000001,"endTime":107.97405875000001,"instrument":2,"program":27},{"pitch":67,"velocity":123,"startTime":107.84474850000001,"endTime":107.97405875000001,"instrument":2,"program":27},{"pitch":62,"velocity":123,"startTime":108.103369,"endTime":108.23267925,"instrument":2,"program":27},{"pitch":67,"velocity":123,"startTime":108.103369,"endTime":108.23267925,"instrument":2,"program":27},{"pitch":60,"velocity":123,"startTime":109.13785100000001,"endTime":109.43957491666667,"instrument":2,"program":27},{"pitch":63,"velocity":123,"startTime":109.13785100000001,"endTime":109.43957491666667,"instrument":2,"program":27},{"pitch":60,"velocity":123,"startTime":109.52578175000001,"endTime":109.56888516666667,"instrument":2,"program":27},{"pitch":63,"velocity":123,"startTime":109.52578175000001,"endTime":109.56888516666667,"instrument":2,"program":27},{"pitch":61,"velocity":123,"startTime":109.65509200000001,"endTime":110.04302275,"instrument":2,"program":27},{"pitch":64,"velocity":123,"startTime":109.65509200000001,"endTime":110.04302275,"instrument":2,"program":27},{"pitch":61,"velocity":123,"startTime":110.17233300000001,"endTime":110.51716033333334,"instrument":2,"program":27},{"pitch":64,"velocity":123,"startTime":110.17233300000001,"endTime":110.51716033333334,"instrument":2,"program":27},{"pitch":61,"velocity":123,"startTime":110.56026375,"endTime":110.68957400000001,"instrument":2,"program":27},{"pitch":64,"velocity":123,"startTime":110.56026375,"endTime":110.68957400000001,"instrument":2,"program":27},{"pitch":57,"velocity":123,"startTime":110.68957400000001,"endTime":111.07750475,"instrument":2,"program":27},{"pitch":64,"velocity":123,"startTime":110.68957400000001,"endTime":111.07750475,"instrument":2,"program":27},{"pitch":57,"velocity":123,"startTime":111.206815,"endTime":111.59474575,"instrument":2,"program":27},{"pitch":64,"velocity":123,"startTime":111.206815,"endTime":111.59474575,"instrument":2,"program":27},{"pitch":48,"velocity":123,"startTime":111.724056,"endTime":111.85336625000001,"instrument":2,"program":27},{"pitch":48,"velocity":123,"startTime":111.98267650000001,"endTime":112.11198675,"instrument":2,"program":27},{"pitch":52,"velocity":123,"startTime":112.241297,"endTime":112.32750383333334,"instrument":2,"program":27},{"pitch":55,"velocity":123,"startTime":112.49991750000001,"endTime":112.54302091666668,"instrument":2,"program":27},{"pitch":55,"velocity":123,"startTime":113.01715850000001,"endTime":113.10336533333334,"instrument":2,"program":27},{"pitch":55,"velocity":123,"startTime":113.275779,"endTime":113.40508925,"instrument":2,"program":27},{"pitch":55,"velocity":123,"startTime":113.5343995,"endTime":113.62060633333334,"instrument":2,"program":27},{"pitch":57,"velocity":123,"startTime":114.0516405,"endTime":114.13784733333334,"instrument":2,"program":27},{"pitch":59,"velocity":123,"startTime":114.31026100000001,"endTime":114.43957125,"instrument":2,"program":27},{"pitch":57,"velocity":123,"startTime":114.5688815,"endTime":114.69819175,"instrument":2,"program":27},{"pitch":57,"velocity":123,"startTime":115.0861225,"endTime":115.17232933333334,"instrument":2,"program":27},{"pitch":59,"velocity":123,"startTime":115.34474300000001,"endTime":115.47405325000001,"instrument":2,"program":27},{"pitch":60,"velocity":123,"startTime":115.47405325000001,"endTime":115.6033635,"instrument":2,"program":27},{"pitch":57,"velocity":123,"startTime":115.64646691666667,"endTime":115.861984,"instrument":2,"program":27},{"pitch":33,"velocity":117,"startTime":99.31027200000001,"endTime":99.5688925,"instrument":4,"program":35},{"pitch":35,"velocity":117,"startTime":99.5688925,"endTime":99.69820275000001,"instrument":4,"program":35},{"pitch":37,"velocity":117,"startTime":101.379236,"endTime":101.63785650000001,"instrument":4,"program":35},{"pitch":37,"velocity":117,"startTime":101.63785650000001,"endTime":101.76716675,"instrument":4,"program":35},{"pitch":37,"velocity":117,"startTime":102.28440775,"endTime":102.413718,"instrument":4,"program":35},{"pitch":33,"velocity":117,"startTime":102.413718,"endTime":102.54302825,"instrument":4,"program":35},{"pitch":33,"velocity":117,"startTime":102.54302825,"endTime":102.67233850000001,"instrument":4,"program":35},{"pitch":33,"velocity":117,"startTime":102.67233850000001,"endTime":102.84475216666667,"instrument":4,"program":35},{"pitch":36,"velocity":117,"startTime":103.4482,"endTime":103.7068205,"instrument":4,"program":35},{"pitch":36,"velocity":117,"startTime":103.7068205,"endTime":103.87923416666668,"instrument":4,"program":35},{"pitch":35,"velocity":117,"startTime":105.51716400000001,"endTime":105.64647425000001,"instrument":4,"program":35},{"pitch":47,"velocity":117,"startTime":105.64647425000001,"endTime":105.7757845,"instrument":4,"program":35},{"pitch":35,"velocity":117,"startTime":105.7757845,"endTime":105.90509475,"instrument":4,"program":35},{"pitch":28,"velocity":117,"startTime":107.586128,"endTime":107.71543825,"instrument":4,"program":35},{"pitch":33,"velocity":117,"startTime":107.84474850000001,"endTime":108.01716216666668,"instrument":4,"program":35},{"pitch":28,"velocity":117,"startTime":107.97405875000001,"endTime":108.103369,"instrument":4,"program":35},{"pitch":40,"velocity":117,"startTime":108.103369,"endTime":108.23267925,"instrument":4,"program":35},{"pitch":37,"velocity":117,"startTime":109.65509200000001,"endTime":109.78440225,"instrument":4,"program":35},{"pitch":37,"velocity":117,"startTime":109.78440225,"endTime":109.9137125,"instrument":4,"program":35},{"pitch":37,"velocity":117,"startTime":109.9137125,"endTime":110.04302275,"instrument":4,"program":35},{"pitch":36,"velocity":117,"startTime":111.724056,"endTime":111.98267650000001,"instrument":4,"program":35},{"pitch":36,"velocity":117,"startTime":111.98267650000001,"endTime":112.11198675,"instrument":4,"program":35},{"pitch":35,"velocity":117,"startTime":113.79302000000001,"endTime":114.0516405,"instrument":4,"program":35},{"pitch":36,"velocity":117,"startTime":114.0516405,"endTime":114.18095075000001,"instrument":4,"program":35},{"pitch":38,"velocity":118,"startTime":100.0861335,"endTime":100.34475400000001,"instrument":5,"program":87},{"pitch":32,"velocity":118,"startTime":100.34475400000001,"endTime":100.6033745,"instrument":5,"program":87},{"pitch":37,"velocity":118,"startTime":101.379236,"endTime":101.63785650000001,"instrument":5,"program":87},{"pitch":36,"velocity":118,"startTime":103.4482,"endTime":103.7068205,"instrument":5,"program":87},{"pitch":35,"velocity":118,"startTime":105.7757845,"endTime":106.034405,"instrument":5,"program":87},{"pitch":36,"velocity":118,"startTime":106.034405,"endTime":106.29302550000001,"instrument":5,"program":87},{"pitch":36,"velocity":118,"startTime":106.29302550000001,"endTime":106.551646,"instrument":5,"program":87},{"pitch":36,"velocity":118,"startTime":112.49991750000001,"endTime":112.758538,"instrument":5,"program":87},{"pitch":38,"velocity":118,"startTime":112.758538,"endTime":113.01715850000001,"instrument":5,"program":87},{"pitch":35,"velocity":118,"startTime":113.79302000000001,"endTime":114.0516405,"instrument":5,"program":87},{"pitch":36,"velocity":105,"startTime":115.861984,"endTime":115.94819083333334,"isDrum":true},{"pitch":42,"velocity":105,"startTime":115.861984,"endTime":115.94819083333334,"isDrum":true},{"pitch":42,"velocity":105,"startTime":116.12060450000001,"endTime":116.20681133333333,"isDrum":true},{"pitch":36,"velocity":105,"startTime":116.379225,"endTime":116.46543183333334,"isDrum":true},{"pitch":39,"velocity":105,"startTime":116.379225,"endTime":116.46543183333334,"isDrum":true},{"pitch":40,"velocity":105,"startTime":116.379225,"endTime":116.46543183333334,"isDrum":true},{"pitch":42,"velocity":105,"startTime":116.379225,"endTime":116.46543183333334,"isDrum":true},{"pitch":42,"velocity":105,"startTime":116.63784550000001,"endTime":116.72405233333335,"isDrum":true},{"pitch":36,"velocity":105,"startTime":116.896466,"endTime":116.98267283333334,"isDrum":true},{"pitch":42,"velocity":105,"startTime":116.896466,"endTime":116.98267283333334,"isDrum":true},{"pitch":42,"velocity":105,"startTime":117.15508650000001,"endTime":117.24129333333335,"isDrum":true},{"pitch":36,"velocity":105,"startTime":117.413707,"endTime":117.49991383333334,"isDrum":true},{"pitch":39,"velocity":105,"startTime":117.413707,"endTime":117.49991383333334,"isDrum":true},{"pitch":40,"velocity":105,"startTime":117.413707,"endTime":117.49991383333334,"isDrum":true},{"pitch":42,"velocity":105,"startTime":117.413707,"endTime":117.49991383333334,"isDrum":true},{"pitch":42,"velocity":105,"startTime":117.67232750000001,"endTime":117.75853433333334,"isDrum":true},{"pitch":36,"velocity":105,"startTime":117.930948,"endTime":118.01715483333334,"isDrum":true},{"pitch":42,"velocity":105,"startTime":117.930948,"endTime":118.01715483333334,"isDrum":true},{"pitch":42,"velocity":105,"startTime":118.18956850000001,"endTime":118.27577533333334,"isDrum":true},{"pitch":36,"velocity":105,"startTime":118.44818900000001,"endTime":118.53439583333333,"isDrum":true},{"pitch":39,"velocity":105,"startTime":118.44818900000001,"endTime":118.53439583333333,"isDrum":true},{"pitch":40,"velocity":105,"startTime":118.44818900000001,"endTime":118.53439583333333,"isDrum":true},{"pitch":42,"velocity":105,"startTime":118.44818900000001,"endTime":118.53439583333333,"isDrum":true},{"pitch":42,"velocity":105,"startTime":118.7068095,"endTime":118.79301633333334,"isDrum":true},{"pitch":36,"velocity":105,"startTime":118.96543000000001,"endTime":119.05163683333333,"isDrum":true},{"pitch":42,"velocity":105,"startTime":118.96543000000001,"endTime":119.05163683333333,"isDrum":true},{"pitch":42,"velocity":105,"startTime":119.2240505,"endTime":119.31025733333334,"isDrum":true},{"pitch":36,"velocity":105,"startTime":119.48267100000001,"endTime":119.56887783333335,"isDrum":true},{"pitch":39,"velocity":105,"startTime":119.48267100000001,"endTime":119.56887783333335,"isDrum":true},{"pitch":40,"velocity":105,"startTime":119.48267100000001,"endTime":119.56887783333335,"isDrum":true},{"pitch":42,"velocity":105,"startTime":119.48267100000001,"endTime":119.56887783333335,"isDrum":true},{"pitch":42,"velocity":105,"startTime":119.7412915,"endTime":119.82749833333334,"isDrum":true},{"pitch":36,"velocity":105,"startTime":119.99991200000001,"endTime":120.08611883333334,"isDrum":true},{"pitch":42,"velocity":105,"startTime":119.99991200000001,"endTime":120.08611883333334,"isDrum":true},{"pitch":42,"velocity":105,"startTime":120.2585325,"endTime":120.34473933333334,"isDrum":true},{"pitch":36,"velocity":105,"startTime":120.51715300000001,"endTime":120.60335983333334,"isDrum":true},{"pitch":39,"velocity":105,"startTime":120.51715300000001,"endTime":120.60335983333334,"isDrum":true},{"pitch":40,"velocity":105,"startTime":120.51715300000001,"endTime":120.60335983333334,"isDrum":true},{"pitch":42,"velocity":105,"startTime":120.51715300000001,"endTime":120.60335983333334,"isDrum":true},{"pitch":42,"velocity":105,"startTime":120.77577350000001,"endTime":120.86198033333334,"isDrum":true},{"pitch":36,"velocity":105,"startTime":121.034394,"endTime":121.12060083333334,"isDrum":true},{"pitch":42,"velocity":105,"startTime":121.034394,"endTime":121.12060083333334,"isDrum":true},{"pitch":42,"velocity":105,"startTime":121.29301450000001,"endTime":121.37922133333333,"isDrum":true},{"pitch":36,"velocity":105,"startTime":121.551635,"endTime":121.63784183333334,"isDrum":true},{"pitch":39,"velocity":105,"startTime":121.551635,"endTime":121.63784183333334,"isDrum":true},{"pitch":40,"velocity":105,"startTime":121.551635,"endTime":121.63784183333334,"isDrum":true},{"pitch":42,"velocity":105,"startTime":121.551635,"endTime":121.63784183333334,"isDrum":true},{"pitch":42,"velocity":105,"startTime":121.81025550000001,"endTime":121.89646233333335,"isDrum":true},{"pitch":36,"velocity":105,"startTime":122.068876,"endTime":122.15508283333334,"isDrum":true},{"pitch":42,"velocity":105,"startTime":122.068876,"endTime":122.15508283333334,"isDrum":true},{"pitch":42,"velocity":105,"startTime":122.32749650000001,"endTime":122.41370333333334,"isDrum":true},{"pitch":36,"velocity":105,"startTime":122.586117,"endTime":122.67232383333334,"isDrum":true},{"pitch":39,"velocity":105,"startTime":122.586117,"endTime":122.67232383333334,"isDrum":true},{"pitch":40,"velocity":105,"startTime":122.586117,"endTime":122.67232383333334,"isDrum":true},{"pitch":42,"velocity":105,"startTime":122.586117,"endTime":122.67232383333334,"isDrum":true},{"pitch":42,"velocity":105,"startTime":122.84473750000001,"endTime":122.93094433333334,"isDrum":true},{"pitch":36,"velocity":105,"startTime":123.103358,"endTime":123.18956483333334,"isDrum":true},{"pitch":42,"velocity":105,"startTime":123.103358,"endTime":123.18956483333334,"isDrum":true},{"pitch":42,"velocity":105,"startTime":123.3619785,"endTime":123.44818533333334,"isDrum":true},{"pitch":36,"velocity":105,"startTime":123.62059900000001,"endTime":123.70680583333333,"isDrum":true},{"pitch":39,"velocity":105,"startTime":123.62059900000001,"endTime":123.70680583333333,"isDrum":true},{"pitch":40,"velocity":105,"startTime":123.62059900000001,"endTime":123.70680583333333,"isDrum":true},{"pitch":42,"velocity":105,"startTime":123.62059900000001,"endTime":123.70680583333333,"isDrum":true},{"pitch":42,"velocity":105,"startTime":123.8792195,"endTime":123.96542633333334,"isDrum":true},{"pitch":36,"velocity":105,"startTime":124.13784000000001,"endTime":124.22404683333335,"isDrum":true},{"pitch":42,"velocity":105,"startTime":124.13784000000001,"endTime":124.22404683333335,"isDrum":true},{"pitch":42,"velocity":105,"startTime":124.3964605,"endTime":124.48266733333334,"isDrum":true},{"pitch":36,"velocity":105,"startTime":124.65508100000001,"endTime":124.74128783333335,"isDrum":true},{"pitch":39,"velocity":105,"startTime":124.65508100000001,"endTime":124.74128783333335,"isDrum":true},{"pitch":40,"velocity":105,"startTime":124.65508100000001,"endTime":124.74128783333335,"isDrum":true},{"pitch":42,"velocity":105,"startTime":124.65508100000001,"endTime":124.74128783333335,"isDrum":true},{"pitch":42,"velocity":105,"startTime":124.9137015,"endTime":124.99990833333334,"isDrum":true},{"pitch":36,"velocity":105,"startTime":125.17232200000001,"endTime":125.25852883333334,"isDrum":true},{"pitch":42,"velocity":105,"startTime":125.17232200000001,"endTime":125.25852883333334,"isDrum":true},{"pitch":42,"velocity":105,"startTime":125.4309425,"endTime":125.51714933333334,"isDrum":true},{"pitch":36,"velocity":105,"startTime":125.689563,"endTime":125.77576983333334,"isDrum":true},{"pitch":39,"velocity":105,"startTime":125.689563,"endTime":125.77576983333334,"isDrum":true},{"pitch":40,"velocity":105,"startTime":125.689563,"endTime":125.77576983333334,"isDrum":true},{"pitch":42,"velocity":105,"startTime":125.689563,"endTime":125.77576983333334,"isDrum":true},{"pitch":42,"velocity":105,"startTime":125.94818350000001,"endTime":126.03439033333333,"isDrum":true},{"pitch":36,"velocity":105,"startTime":126.206804,"endTime":126.29301083333334,"isDrum":true},{"pitch":42,"velocity":105,"startTime":126.206804,"endTime":126.29301083333334,"isDrum":true},{"pitch":42,"velocity":105,"startTime":126.46542450000001,"endTime":126.55163133333335,"isDrum":true},{"pitch":36,"velocity":105,"startTime":126.724045,"endTime":126.81025183333334,"isDrum":true},{"pitch":39,"velocity":105,"startTime":126.724045,"endTime":126.81025183333334,"isDrum":true},{"pitch":40,"velocity":105,"startTime":126.724045,"endTime":126.81025183333334,"isDrum":true},{"pitch":42,"velocity":105,"startTime":126.724045,"endTime":126.81025183333334,"isDrum":true},{"pitch":42,"velocity":105,"startTime":126.98266550000001,"endTime":127.06887233333335,"isDrum":true},{"pitch":36,"velocity":105,"startTime":127.241286,"endTime":127.32749283333334,"isDrum":true},{"pitch":42,"velocity":105,"startTime":127.241286,"endTime":127.32749283333334,"isDrum":true},{"pitch":42,"velocity":105,"startTime":127.49990650000001,"endTime":127.58611333333334,"isDrum":true},{"pitch":36,"velocity":105,"startTime":127.758527,"endTime":127.84473383333334,"isDrum":true},{"pitch":39,"velocity":105,"startTime":127.758527,"endTime":127.84473383333334,"isDrum":true},{"pitch":40,"velocity":105,"startTime":127.758527,"endTime":127.84473383333334,"isDrum":true},{"pitch":42,"velocity":105,"startTime":127.758527,"endTime":127.84473383333334,"isDrum":true},{"pitch":42,"velocity":105,"startTime":128.01714750000002,"endTime":128.10335433333333,"isDrum":true},{"pitch":36,"velocity":105,"startTime":128.275768,"endTime":128.36197483333333,"isDrum":true},{"pitch":42,"velocity":105,"startTime":128.275768,"endTime":128.36197483333333,"isDrum":true},{"pitch":42,"velocity":105,"startTime":128.5343885,"endTime":128.62059533333334,"isDrum":true},{"pitch":36,"velocity":105,"startTime":128.793009,"endTime":128.87921583333335,"isDrum":true},{"pitch":39,"velocity":105,"startTime":128.793009,"endTime":128.87921583333335,"isDrum":true},{"pitch":40,"velocity":105,"startTime":128.793009,"endTime":128.87921583333335,"isDrum":true},{"pitch":42,"velocity":105,"startTime":128.793009,"endTime":128.87921583333335,"isDrum":true},{"pitch":42,"velocity":105,"startTime":129.05162950000002,"endTime":129.13783633333335,"isDrum":true},{"pitch":36,"velocity":105,"startTime":129.31025,"endTime":129.39645683333333,"isDrum":true},{"pitch":42,"velocity":105,"startTime":129.31025,"endTime":129.39645683333333,"isDrum":true},{"pitch":42,"velocity":105,"startTime":129.5688705,"endTime":129.65507733333334,"isDrum":true},{"pitch":36,"velocity":105,"startTime":129.827491,"endTime":129.91369783333334,"isDrum":true},{"pitch":39,"velocity":105,"startTime":129.827491,"endTime":129.91369783333334,"isDrum":true},{"pitch":40,"velocity":105,"startTime":129.827491,"endTime":129.91369783333334,"isDrum":true},{"pitch":42,"velocity":105,"startTime":129.827491,"endTime":129.91369783333334,"isDrum":true},{"pitch":42,"velocity":105,"startTime":130.08611150000002,"endTime":130.17231833333335,"isDrum":true},{"pitch":36,"velocity":105,"startTime":130.344732,"endTime":130.43093883333333,"isDrum":true},{"pitch":42,"velocity":105,"startTime":130.344732,"endTime":130.43093883333333,"isDrum":true},{"pitch":42,"velocity":105,"startTime":130.6033525,"endTime":130.68955933333334,"isDrum":true},{"pitch":36,"velocity":105,"startTime":130.861973,"endTime":130.94817983333334,"isDrum":true},{"pitch":39,"velocity":105,"startTime":130.861973,"endTime":130.94817983333334,"isDrum":true},{"pitch":40,"velocity":105,"startTime":130.861973,"endTime":130.94817983333334,"isDrum":true},{"pitch":42,"velocity":105,"startTime":130.861973,"endTime":130.94817983333334,"isDrum":true},{"pitch":42,"velocity":105,"startTime":131.1205935,"endTime":131.20680033333335,"isDrum":true},{"pitch":36,"velocity":105,"startTime":131.37921400000002,"endTime":131.46542083333335,"isDrum":true},{"pitch":42,"velocity":105,"startTime":131.37921400000002,"endTime":131.46542083333335,"isDrum":true},{"pitch":46,"velocity":105,"startTime":131.6378345,"endTime":131.72404133333333,"isDrum":true},{"pitch":39,"velocity":105,"startTime":131.896455,"endTime":131.98266183333334,"isDrum":true},{"pitch":40,"velocity":105,"startTime":131.896455,"endTime":131.98266183333334,"isDrum":true},{"pitch":42,"velocity":105,"startTime":131.896455,"endTime":131.98266183333334,"isDrum":true},{"pitch":42,"velocity":105,"startTime":132.1550755,"endTime":132.24128233333334,"isDrum":true},{"pitch":62,"velocity":123,"startTime":116.12060450000001,"endTime":116.379225,"instrument":1,"program":4},{"pitch":66,"velocity":123,"startTime":116.12060450000001,"endTime":116.379225,"instrument":1,"program":4},{"pitch":69,"velocity":123,"startTime":116.12060450000001,"endTime":116.379225,"instrument":1,"program":4},{"pitch":62,"velocity":123,"startTime":116.379225,"endTime":116.63784550000001,"instrument":1,"program":4},{"pitch":64,"velocity":123,"startTime":116.379225,"endTime":116.63784550000001,"instrument":1,"program":4},{"pitch":66,"velocity":123,"startTime":116.379225,"endTime":116.63784550000001,"instrument":1,"program":4},{"pitch":62,"velocity":123,"startTime":116.63784550000001,"endTime":116.896466,"instrument":1,"program":4},{"pitch":64,"velocity":123,"startTime":116.63784550000001,"endTime":116.896466,"instrument":1,"program":4},{"pitch":66,"velocity":123,"startTime":116.63784550000001,"endTime":116.896466,"instrument":1,"program":4},{"pitch":60,"velocity":123,"startTime":117.15508650000001,"endTime":117.413707,"instrument":1,"program":4},{"pitch":64,"velocity":123,"startTime":117.15508650000001,"endTime":117.413707,"instrument":1,"program":4},{"pitch":67,"velocity":123,"startTime":117.15508650000001,"endTime":117.413707,"instrument":1,"program":4},{"pitch":60,"velocity":123,"startTime":117.413707,"endTime":117.67232750000001,"instrument":1,"program":4},{"pitch":64,"velocity":123,"startTime":117.413707,"endTime":117.67232750000001,"instrument":1,"program":4},{"pitch":67,"velocity":123,"startTime":117.413707,"endTime":117.67232750000001,"instrument":1,"program":4},{"pitch":60,"velocity":123,"startTime":117.67232750000001,"endTime":117.80163775000001,"instrument":1,"program":4},{"pitch":64,"velocity":123,"startTime":117.67232750000001,"endTime":117.80163775000001,"instrument":1,"program":4},{"pitch":67,"velocity":123,"startTime":117.67232750000001,"endTime":117.80163775000001,"instrument":1,"program":4},{"pitch":60,"velocity":123,"startTime":118.18956850000001,"endTime":118.44818900000001,"instrument":1,"program":4},{"pitch":64,"velocity":123,"startTime":118.18956850000001,"endTime":118.44818900000001,"instrument":1,"program":4},{"pitch":67,"velocity":123,"startTime":118.18956850000001,"endTime":118.44818900000001,"instrument":1,"program":4},{"pitch":60,"velocity":123,"startTime":118.44818900000001,"endTime":118.57749925,"instrument":1,"program":4},{"pitch":64,"velocity":123,"startTime":118.44818900000001,"endTime":118.57749925,"instrument":1,"program":4},{"pitch":67,"velocity":123,"startTime":118.44818900000001,"endTime":118.57749925,"instrument":1,"program":4},{"pitch":60,"velocity":123,"startTime":118.7068095,"endTime":118.83611975000001,"instrument":1,"program":4},{"pitch":64,"velocity":123,"startTime":118.7068095,"endTime":118.83611975000001,"instrument":1,"program":4},{"pitch":67,"velocity":123,"startTime":118.7068095,"endTime":118.83611975000001,"instrument":1,"program":4},{"pitch":60,"velocity":123,"startTime":119.2240505,"endTime":119.35336075000001,"instrument":1,"program":4},{"pitch":64,"velocity":123,"startTime":119.2240505,"endTime":119.35336075000001,"instrument":1,"program":4},{"pitch":67,"velocity":123,"startTime":119.2240505,"endTime":119.35336075000001,"instrument":1,"program":4},{"pitch":60,"velocity":123,"startTime":119.99991200000001,"endTime":120.2585325,"instrument":1,"program":4},{"pitch":64,"velocity":123,"startTime":119.99991200000001,"endTime":120.2585325,"instrument":1,"program":4},{"pitch":67,"velocity":123,"startTime":119.99991200000001,"endTime":120.2585325,"instrument":1,"program":4},{"pitch":60,"velocity":123,"startTime":120.2585325,"endTime":120.38784275,"instrument":1,"program":4},{"pitch":64,"velocity":123,"startTime":120.2585325,"endTime":120.38784275,"instrument":1,"program":4},{"pitch":67,"velocity":123,"startTime":120.2585325,"endTime":120.38784275,"instrument":1,"program":4},{"pitch":60,"velocity":123,"startTime":120.77577350000001,"endTime":120.90508375,"instrument":1,"program":4},{"pitch":64,"velocity":123,"startTime":120.77577350000001,"endTime":120.90508375,"instrument":1,"program":4},{"pitch":67,"velocity":123,"startTime":120.77577350000001,"endTime":120.90508375,"instrument":1,"program":4},{"pitch":60,"velocity":123,"startTime":121.551635,"endTime":121.68094525000001,"instrument":1,"program":4},{"pitch":62,"velocity":123,"startTime":121.551635,"endTime":121.68094525000001,"instrument":1,"program":4},{"pitch":67,"velocity":123,"startTime":121.551635,"endTime":121.68094525000001,"instrument":1,"program":4},{"pitch":60,"velocity":123,"startTime":122.068876,"endTime":122.32749650000001,"instrument":1,"program":4},{"pitch":64,"velocity":123,"startTime":122.068876,"endTime":122.32749650000001,"instrument":1,"program":4},{"pitch":67,"velocity":123,"startTime":122.068876,"endTime":122.32749650000001,"instrument":1,"program":4},{"pitch":60,"velocity":123,"startTime":122.32749650000001,"endTime":122.45680675000001,"instrument":1,"program":4},{"pitch":64,"velocity":123,"startTime":122.32749650000001,"endTime":122.45680675000001,"instrument":1,"program":4},{"pitch":67,"velocity":123,"startTime":122.32749650000001,"endTime":122.45680675000001,"instrument":1,"program":4},{"pitch":60,"velocity":123,"startTime":122.84473750000001,"endTime":122.97404775000001,"instrument":1,"program":4},{"pitch":64,"velocity":123,"startTime":122.84473750000001,"endTime":122.97404775000001,"instrument":1,"program":4},{"pitch":67,"velocity":123,"startTime":122.84473750000001,"endTime":122.97404775000001,"instrument":1,"program":4},{"pitch":60,"velocity":123,"startTime":123.62059900000001,"endTime":123.74990925,"instrument":1,"program":4},{"pitch":64,"velocity":123,"startTime":123.62059900000001,"endTime":123.74990925,"instrument":1,"program":4},{"pitch":67,"velocity":123,"startTime":123.62059900000001,"endTime":123.74990925,"instrument":1,"program":4},{"pitch":60,"velocity":123,"startTime":123.8792195,"endTime":124.00852975000001,"instrument":1,"program":4},{"pitch":64,"velocity":123,"startTime":123.8792195,"endTime":124.00852975000001,"instrument":1,"program":4},{"pitch":67,"velocity":123,"startTime":123.8792195,"endTime":124.00852975000001,"instrument":1,"program":4},{"pitch":57,"velocity":123,"startTime":124.65508100000001,"endTime":124.78439125000001,"instrument":1,"program":4},{"pitch":60,"velocity":123,"startTime":124.65508100000001,"endTime":124.78439125000001,"instrument":1,"program":4},{"pitch":64,"velocity":123,"startTime":124.65508100000001,"endTime":124.78439125000001,"instrument":1,"program":4},{"pitch":57,"velocity":123,"startTime":125.17232200000001,"endTime":125.4309425,"instrument":1,"program":4},{"pitch":60,"velocity":123,"startTime":125.17232200000001,"endTime":125.4309425,"instrument":1,"program":4},{"pitch":64,"velocity":123,"startTime":125.17232200000001,"endTime":125.4309425,"instrument":1,"program":4},{"pitch":57,"velocity":123,"startTime":125.4309425,"endTime":125.56025275,"instrument":1,"program":4},{"pitch":60,"velocity":123,"startTime":125.4309425,"endTime":125.56025275,"instrument":1,"program":4},{"pitch":64,"velocity":123,"startTime":125.4309425,"endTime":125.56025275,"instrument":1,"program":4},{"pitch":57,"velocity":123,"startTime":125.94818350000001,"endTime":126.07749375,"instrument":1,"program":4},{"pitch":60,"velocity":123,"startTime":125.94818350000001,"endTime":126.07749375,"instrument":1,"program":4},{"pitch":64,"velocity":123,"startTime":125.94818350000001,"endTime":126.07749375,"instrument":1,"program":4},{"pitch":60,"velocity":123,"startTime":126.724045,"endTime":126.85335525,"instrument":1,"program":4},{"pitch":64,"velocity":123,"startTime":126.724045,"endTime":126.85335525,"instrument":1,"program":4},{"pitch":67,"velocity":123,"startTime":126.724045,"endTime":126.85335525,"instrument":1,"program":4},{"pitch":60,"velocity":123,"startTime":126.98266550000001,"endTime":127.11197575000001,"instrument":1,"program":4},{"pitch":64,"velocity":123,"startTime":126.98266550000001,"endTime":127.11197575000001,"instrument":1,"program":4},{"pitch":67,"velocity":123,"startTime":126.98266550000001,"endTime":127.11197575000001,"instrument":1,"program":4},{"pitch":60,"velocity":123,"startTime":127.758527,"endTime":127.88783725,"instrument":1,"program":4},{"pitch":64,"velocity":123,"startTime":127.758527,"endTime":127.88783725,"instrument":1,"program":4},{"pitch":67,"velocity":123,"startTime":127.758527,"endTime":127.88783725,"instrument":1,"program":4},{"pitch":60,"velocity":123,"startTime":128.275768,"endTime":128.5343885,"instrument":1,"program":4},{"pitch":64,"velocity":123,"startTime":128.275768,"endTime":128.5343885,"instrument":1,"program":4},{"pitch":67,"velocity":123,"startTime":128.275768,"endTime":128.5343885,"instrument":1,"program":4},{"pitch":60,"velocity":123,"startTime":128.5343885,"endTime":128.66369875,"instrument":1,"program":4},{"pitch":64,"velocity":123,"startTime":128.5343885,"endTime":128.66369875,"instrument":1,"program":4},{"pitch":67,"velocity":123,"startTime":128.5343885,"endTime":128.66369875,"instrument":1,"program":4},{"pitch":60,"velocity":123,"startTime":129.05162950000002,"endTime":129.18093975000002,"instrument":1,"program":4},{"pitch":64,"velocity":123,"startTime":129.05162950000002,"endTime":129.18093975000002,"instrument":1,"program":4},{"pitch":67,"velocity":123,"startTime":129.05162950000002,"endTime":129.18093975000002,"instrument":1,"program":4},{"pitch":59,"velocity":123,"startTime":129.827491,"endTime":129.95680125,"instrument":1,"program":4},{"pitch":62,"velocity":123,"startTime":129.827491,"endTime":129.95680125,"instrument":1,"program":4},{"pitch":67,"velocity":123,"startTime":129.827491,"endTime":129.95680125,"instrument":1,"program":4},{"pitch":60,"velocity":123,"startTime":130.861973,"endTime":130.99128325,"instrument":1,"program":4},{"pitch":64,"velocity":123,"startTime":130.861973,"endTime":130.99128325,"instrument":1,"program":4},{"pitch":67,"velocity":123,"startTime":130.861973,"endTime":130.99128325,"instrument":1,"program":4},{"pitch":60,"velocity":123,"startTime":131.1205935,"endTime":131.24990375000002,"instrument":1,"program":4},{"pitch":64,"velocity":123,"startTime":131.1205935,"endTime":131.24990375000002,"instrument":1,"program":4},{"pitch":67,"velocity":123,"startTime":131.1205935,"endTime":131.24990375000002,"instrument":1,"program":4},{"pitch":60,"velocity":123,"startTime":131.6378345,"endTime":131.76714475,"instrument":1,"program":4},{"pitch":64,"velocity":123,"startTime":131.6378345,"endTime":131.76714475,"instrument":1,"program":4},{"pitch":67,"velocity":123,"startTime":131.6378345,"endTime":131.76714475,"instrument":1,"program":4},{"pitch":62,"velocity":123,"startTime":115.861984,"endTime":115.90508741666667,"instrument":2,"program":27},{"pitch":52,"velocity":123,"startTime":116.12060450000001,"endTime":116.24991475,"instrument":2,"program":27},{"pitch":52,"velocity":123,"startTime":116.379225,"endTime":116.50853525000001,"instrument":2,"program":27},{"pitch":55,"velocity":123,"startTime":116.63784550000001,"endTime":116.76715575,"instrument":2,"program":27},{"pitch":55,"velocity":123,"startTime":116.76715575,"endTime":116.85336258333334,"instrument":2,"program":27},{"pitch":60,"velocity":123,"startTime":116.896466,"endTime":116.93956941666667,"instrument":2,"program":27},{"pitch":60,"velocity":123,"startTime":117.28439675000001,"endTime":117.32750016666667,"instrument":2,"program":27},{"pitch":60,"velocity":123,"startTime":117.67232750000001,"endTime":117.71543091666668,"instrument":2,"program":27},{"pitch":60,"velocity":123,"startTime":117.930948,"endTime":117.97405141666667,"instrument":2,"program":27},{"pitch":60,"velocity":123,"startTime":118.18956850000001,"endTime":118.31887875000001,"instrument":2,"program":27},{"pitch":60,"velocity":123,"startTime":118.44818900000001,"endTime":118.57749925,"instrument":2,"program":27},{"pitch":60,"velocity":123,"startTime":118.7068095,"endTime":118.83611975000001,"instrument":2,"program":27},{"pitch":60,"velocity":123,"startTime":118.96543000000001,"endTime":119.09474025,"instrument":2,"program":27},{"pitch":60,"velocity":123,"startTime":119.2240505,"endTime":119.35336075000001,"instrument":2,"program":27},{"pitch":60,"velocity":123,"startTime":119.48267100000001,"endTime":119.61198125000001,"instrument":2,"program":27},{"pitch":62,"velocity":123,"startTime":119.61198125000001,"endTime":119.7412915,"instrument":2,"program":27},{"pitch":60,"velocity":123,"startTime":119.7412915,"endTime":119.87060175,"instrument":2,"program":27},{"pitch":60,"velocity":123,"startTime":119.99991200000001,"endTime":120.04301541666668,"instrument":2,"program":27},{"pitch":60,"velocity":123,"startTime":120.12922225000001,"endTime":120.2585325,"instrument":2,"program":27},{"pitch":64,"velocity":123,"startTime":120.2585325,"endTime":120.38784275,"instrument":2,"program":27},{"pitch":60,"velocity":123,"startTime":121.034394,"endTime":121.07749741666667,"instrument":2,"program":27},{"pitch":60,"velocity":123,"startTime":121.29301450000001,"endTime":121.42232475,"instrument":2,"program":27},{"pitch":60,"velocity":123,"startTime":121.551635,"endTime":121.68094525000001,"instrument":2,"program":27},{"pitch":64,"velocity":123,"startTime":121.68094525000001,"endTime":121.76715208333334,"instrument":2,"program":27},{"pitch":55,"velocity":123,"startTime":122.068876,"endTime":122.11197941666667,"instrument":2,"program":27},{"pitch":55,"velocity":123,"startTime":122.32749650000001,"endTime":122.45680675000001,"instrument":2,"program":27},{"pitch":57,"velocity":123,"startTime":122.45680675000001,"endTime":122.54301358333333,"instrument":2,"program":27},{"pitch":55,"velocity":123,"startTime":122.586117,"endTime":122.71542725,"instrument":2,"program":27},{"pitch":55,"velocity":123,"startTime":122.71542725,"endTime":122.84473750000001,"instrument":2,"program":27},{"pitch":55,"velocity":123,"startTime":122.97404775000001,"endTime":123.103358,"instrument":2,"program":27},{"pitch":57,"velocity":123,"startTime":123.103358,"endTime":123.23266825,"instrument":2,"program":27},{"pitch":55,"velocity":123,"startTime":123.23266825,"endTime":123.3619785,"instrument":2,"program":27},{"pitch":62,"velocity":123,"startTime":123.62059900000001,"endTime":123.74990925,"instrument":2,"program":27},{"pitch":55,"velocity":123,"startTime":123.74990925,"endTime":123.8792195,"instrument":2,"program":27},{"pitch":55,"velocity":123,"startTime":123.8792195,"endTime":124.00852975000001,"instrument":2,"program":27},{"pitch":57,"velocity":123,"startTime":124.13784000000001,"endTime":124.18094341666668,"instrument":2,"program":27},{"pitch":57,"velocity":123,"startTime":124.26715025,"endTime":124.35335708333334,"instrument":2,"program":27},{"pitch":57,"velocity":123,"startTime":124.3964605,"endTime":124.52577075,"instrument":2,"program":27},{"pitch":57,"velocity":123,"startTime":124.52577075,"endTime":124.61197758333334,"instrument":2,"program":27},{"pitch":57,"velocity":123,"startTime":124.65508100000001,"endTime":124.78439125000001,"instrument":2,"program":27},{"pitch":57,"velocity":123,"startTime":124.78439125000001,"endTime":124.87059808333333,"instrument":2,"program":27},{"pitch":57,"velocity":123,"startTime":124.9137015,"endTime":125.04301175,"instrument":2,"program":27},{"pitch":60,"velocity":123,"startTime":125.4309425,"endTime":125.47404591666667,"instrument":2,"program":27},{"pitch":60,"velocity":123,"startTime":125.56025275,"endTime":125.64645958333334,"instrument":2,"program":27},{"pitch":60,"velocity":123,"startTime":125.689563,"endTime":125.81887325000001,"instrument":2,"program":27},{"pitch":60,"velocity":123,"startTime":125.81887325000001,"endTime":125.90508008333335,"instrument":2,"program":27},{"pitch":60,"velocity":123,"startTime":126.206804,"endTime":126.24990741666667,"instrument":2,"program":27},{"pitch":60,"velocity":123,"startTime":126.46542450000001,"endTime":126.59473475,"instrument":2,"program":27},{"pitch":60,"velocity":123,"startTime":126.59473475,"endTime":126.68094158333334,"instrument":2,"program":27},{"pitch":60,"velocity":123,"startTime":126.724045,"endTime":126.85335525,"instrument":2,"program":27},{"pitch":60,"velocity":123,"startTime":126.85335525,"endTime":126.98266550000001,"instrument":2,"program":27},{"pitch":60,"velocity":123,"startTime":127.241286,"endTime":127.28438941666667,"instrument":2,"program":27},{"pitch":60,"velocity":123,"startTime":127.49990650000001,"endTime":127.62921675000001,"instrument":2,"program":27},{"pitch":60,"velocity":123,"startTime":127.62921675000001,"endTime":127.71542358333335,"instrument":2,"program":27},{"pitch":60,"velocity":123,"startTime":127.758527,"endTime":127.80163041666667,"instrument":2,"program":27},{"pitch":60,"velocity":123,"startTime":127.88783725,"endTime":127.97404408333334,"instrument":2,"program":27},{"pitch":60,"velocity":123,"startTime":128.01714750000002,"endTime":128.14645775,"instrument":2,"program":27},{"pitch":60,"velocity":123,"startTime":128.5343885,"endTime":128.57749191666667,"instrument":2,"program":27},{"pitch":60,"velocity":123,"startTime":128.66369875,"endTime":128.74990558333334,"instrument":2,"program":27},{"pitch":60,"velocity":123,"startTime":128.793009,"endTime":128.83611241666668,"instrument":2,"program":27},{"pitch":60,"velocity":123,"startTime":128.92231925000002,"endTime":129.00852608333335,"instrument":2,"program":27},{"pitch":60,"velocity":123,"startTime":129.05162950000002,"endTime":129.18093975000002,"instrument":2,"program":27},{"pitch":60,"velocity":123,"startTime":129.31025,"endTime":129.35335341666666,"instrument":2,"program":27},{"pitch":60,"velocity":123,"startTime":129.43956025,"endTime":129.52576708333333,"instrument":2,"program":27},{"pitch":60,"velocity":123,"startTime":129.5688705,"endTime":129.69818075,"instrument":2,"program":27},{"pitch":60,"velocity":123,"startTime":129.827491,"endTime":129.95680125,"instrument":2,"program":27},{"pitch":60,"velocity":123,"startTime":129.95680125,"endTime":130.08611150000002,"instrument":2,"program":27},{"pitch":60,"velocity":123,"startTime":130.6033525,"endTime":130.64645591666667,"instrument":2,"program":27},{"pitch":60,"velocity":123,"startTime":130.73266275,"endTime":130.81886958333334,"instrument":2,"program":27},{"pitch":60,"velocity":123,"startTime":130.861973,"endTime":130.90507641666667,"instrument":2,"program":27},{"pitch":60,"velocity":123,"startTime":130.99128325,"endTime":131.07749008333334,"instrument":2,"program":27},{"pitch":60,"velocity":123,"startTime":131.1205935,"endTime":131.24990375000002,"instrument":2,"program":27},{"pitch":60,"velocity":123,"startTime":131.37921400000002,"endTime":131.50852425,"instrument":2,"program":27},{"pitch":60,"velocity":123,"startTime":131.50852425,"endTime":131.6378345,"instrument":2,"program":27},{"pitch":60,"velocity":123,"startTime":131.6378345,"endTime":131.76714475,"instrument":2,"program":27},{"pitch":60,"velocity":123,"startTime":131.896455,"endTime":132.02576525,"instrument":2,"program":27},{"pitch":60,"velocity":123,"startTime":132.02576525,"endTime":132.1550755,"instrument":2,"program":27},{"pitch":33,"velocity":117,"startTime":115.861984,"endTime":116.24991475,"instrument":4,"program":35},{"pitch":45,"velocity":117,"startTime":116.24991475,"endTime":116.379225,"instrument":4,"program":35},{"pitch":33,"velocity":117,"startTime":117.930948,"endTime":118.31887875000001,"instrument":4,"program":35},{"pitch":45,"velocity":117,"startTime":118.31887875000001,"endTime":118.44818900000001,"instrument":4,"program":35},{"pitch":38,"velocity":117,"startTime":119.48267100000001,"endTime":119.87060175,"instrument":4,"program":35},{"pitch":40,"velocity":117,"startTime":119.87060175,"endTime":119.99991200000001,"instrument":4,"program":35},{"pitch":33,"velocity":117,"startTime":119.99991200000001,"endTime":120.38784275,"instrument":4,"program":35},{"pitch":21,"velocity":117,"startTime":120.38784275,"endTime":120.43094616666667,"instrument":4,"program":35},{"pitch":33,"velocity":117,"startTime":122.068876,"endTime":122.45680675000001,"instrument":4,"program":35},{"pitch":21,"velocity":117,"startTime":122.45680675000001,"endTime":122.586117,"instrument":4,"program":35},{"pitch":36,"velocity":117,"startTime":122.586117,"endTime":122.84473750000001,"instrument":4,"program":35},{"pitch":33,"velocity":117,"startTime":124.13784000000001,"endTime":124.52577075,"instrument":4,"program":35},{"pitch":33,"velocity":117,"startTime":124.52577075,"endTime":124.65508100000001,"instrument":4,"program":35},{"pitch":33,"velocity":117,"startTime":126.206804,"endTime":126.59473475,"instrument":4,"program":35},{"pitch":33,"velocity":117,"startTime":126.59473475,"endTime":126.724045,"instrument":4,"program":35},{"pitch":38,"velocity":117,"startTime":126.724045,"endTime":126.98266550000001,"instrument":4,"program":35},{"pitch":33,"velocity":117,"startTime":129.31025,"endTime":129.43956025,"instrument":4,"program":35},{"pitch":33,"velocity":117,"startTime":129.5688705,"endTime":129.827491,"instrument":4,"program":35},{"pitch":33,"velocity":118,"startTime":117.930948,"endTime":118.18956850000001,"instrument":5,"program":87},{"pitch":33,"velocity":118,"startTime":128.275768,"endTime":128.5343885,"instrument":5,"program":87},{"pitch":33,"velocity":118,"startTime":130.344732,"endTime":130.6033525,"instrument":5,"program":87},{"pitch":35,"velocity":105,"startTime":132.41369600000002,"endTime":132.54300625000002,"isDrum":true},{"pitch":42,"velocity":105,"startTime":132.41369600000002,"endTime":132.54300625000002,"isDrum":true},{"pitch":35,"velocity":105,"startTime":134.48266,"endTime":134.61197025,"isDrum":true},{"pitch":42,"velocity":105,"startTime":134.48266,"endTime":134.61197025,"isDrum":true},{"pitch":35,"velocity":105,"startTime":135.517142,"endTime":135.64645225,"isDrum":true},{"pitch":42,"velocity":105,"startTime":135.517142,"endTime":135.64645225,"isDrum":true},{"pitch":35,"velocity":105,"startTime":136.551624,"endTime":136.68093425,"isDrum":true},{"pitch":42,"velocity":105,"startTime":136.551624,"endTime":136.68093425,"isDrum":true},{"pitch":35,"velocity":105,"startTime":137.586106,"endTime":137.71541625,"isDrum":true},{"pitch":42,"velocity":105,"startTime":137.586106,"endTime":137.71541625,"isDrum":true},{"pitch":62,"velocity":123,"startTime":132.6723165,"endTime":132.930937,"instrument":1,"program":4},{"pitch":66,"velocity":123,"startTime":132.6723165,"endTime":132.930937,"instrument":1,"program":4},{"pitch":69,"velocity":123,"startTime":132.6723165,"endTime":132.930937,"instrument":1,"program":4},{"pitch":62,"velocity":123,"startTime":133.1895575,"endTime":133.27576433333337,"instrument":1,"program":4},{"pitch":66,"velocity":123,"startTime":133.1895575,"endTime":133.27576433333337,"instrument":1,"program":4},{"pitch":69,"velocity":123,"startTime":133.1895575,"endTime":133.27576433333337,"instrument":1,"program":4},{"pitch":62,"velocity":123,"startTime":134.2240395,"endTime":134.35334975,"instrument":1,"program":4},{"pitch":66,"velocity":123,"startTime":134.2240395,"endTime":134.35334975,"instrument":1,"program":4},{"pitch":69,"velocity":123,"startTime":134.2240395,"endTime":134.35334975,"instrument":1,"program":4},{"pitch":59,"velocity":123,"startTime":134.74128050000002,"endTime":134.87059075000002,"instrument":1,"program":4},{"pitch":62,"velocity":123,"startTime":134.74128050000002,"endTime":134.87059075000002,"instrument":1,"program":4},{"pitch":66,"velocity":123,"startTime":134.74128050000002,"endTime":134.87059075000002,"instrument":1,"program":4},{"pitch":59,"velocity":123,"startTime":134.999901,"endTime":135.12921125,"instrument":1,"program":4},{"pitch":62,"velocity":123,"startTime":134.999901,"endTime":135.12921125,"instrument":1,"program":4},{"pitch":66,"velocity":123,"startTime":134.999901,"endTime":135.12921125,"instrument":1,"program":4},{"pitch":59,"velocity":123,"startTime":135.2585215,"endTime":135.38783175,"instrument":1,"program":4},{"pitch":62,"velocity":123,"startTime":135.2585215,"endTime":135.38783175,"instrument":1,"program":4},{"pitch":66,"velocity":123,"startTime":135.2585215,"endTime":135.38783175,"instrument":1,"program":4},{"pitch":62,"velocity":123,"startTime":135.517142,"endTime":135.64645225,"instrument":1,"program":4},{"pitch":66,"velocity":123,"startTime":135.517142,"endTime":135.64645225,"instrument":1,"program":4},{"pitch":69,"velocity":123,"startTime":135.517142,"endTime":135.64645225,"instrument":1,"program":4},{"pitch":62,"velocity":123,"startTime":135.7757625,"endTime":135.90507275000002,"instrument":1,"program":4},{"pitch":66,"velocity":123,"startTime":135.7757625,"endTime":135.90507275000002,"instrument":1,"program":4},{"pitch":69,"velocity":123,"startTime":135.7757625,"endTime":135.90507275000002,"instrument":1,"program":4},{"pitch":62,"velocity":123,"startTime":136.03438300000002,"endTime":136.16369325,"instrument":1,"program":4},{"pitch":66,"velocity":123,"startTime":136.03438300000002,"endTime":136.16369325,"instrument":1,"program":4},{"pitch":69,"velocity":123,"startTime":136.03438300000002,"endTime":136.16369325,"instrument":1,"program":4},{"pitch":62,"velocity":123,"startTime":136.2930035,"endTime":136.42231375,"instrument":1,"program":4},{"pitch":66,"velocity":123,"startTime":136.2930035,"endTime":136.42231375,"instrument":1,"program":4},{"pitch":69,"velocity":123,"startTime":136.2930035,"endTime":136.42231375,"instrument":1,"program":4},{"pitch":64,"velocity":123,"startTime":136.8102445,"endTime":136.93955475,"instrument":1,"program":4},{"pitch":67,"velocity":123,"startTime":136.8102445,"endTime":136.93955475,"instrument":1,"program":4},{"pitch":71,"velocity":123,"startTime":136.8102445,"endTime":136.93955475,"instrument":1,"program":4},{"pitch":64,"velocity":123,"startTime":137.06886500000002,"endTime":137.19817525000002,"instrument":1,"program":4},{"pitch":67,"velocity":123,"startTime":137.06886500000002,"endTime":137.19817525000002,"instrument":1,"program":4},{"pitch":71,"velocity":123,"startTime":137.06886500000002,"endTime":137.19817525000002,"instrument":1,"program":4},{"pitch":64,"velocity":123,"startTime":137.3274855,"endTime":137.41369233333336,"instrument":1,"program":4},{"pitch":67,"velocity":123,"startTime":137.3274855,"endTime":137.41369233333336,"instrument":1,"program":4},{"pitch":71,"velocity":123,"startTime":137.3274855,"endTime":137.41369233333336,"instrument":1,"program":4},{"pitch":64,"velocity":123,"startTime":137.8447265,"endTime":137.97403675,"instrument":1,"program":4},{"pitch":67,"velocity":123,"startTime":137.8447265,"endTime":137.97403675,"instrument":1,"program":4},{"pitch":71,"velocity":123,"startTime":137.8447265,"endTime":137.97403675,"instrument":1,"program":4},{"pitch":64,"velocity":123,"startTime":138.103347,"endTime":138.27576066666666,"instrument":1,"program":4},{"pitch":67,"velocity":123,"startTime":138.103347,"endTime":138.27576066666666,"instrument":1,"program":4},{"pitch":71,"velocity":123,"startTime":138.103347,"endTime":138.23265725000002,"instrument":1,"program":4},{"pitch":64,"velocity":123,"startTime":138.36196750000002,"endTime":138.44817433333336,"instrument":1,"program":4},{"pitch":67,"velocity":123,"startTime":138.36196750000002,"endTime":138.49127775,"instrument":1,"program":4},{"pitch":71,"velocity":123,"startTime":138.36196750000002,"endTime":138.49127775,"instrument":1,"program":4},{"pitch":60,"velocity":123,"startTime":132.41369600000002,"endTime":132.45679941666666,"instrument":2,"program":27},{"pitch":57,"velocity":123,"startTime":132.54300625000002,"endTime":132.62921308333335,"instrument":2,"program":27},{"pitch":60,"velocity":123,"startTime":132.6723165,"endTime":132.75852333333336,"instrument":2,"program":27},{"pitch":57,"velocity":123,"startTime":132.80162675,"endTime":132.88783358333336,"instrument":2,"program":27},{"pitch":60,"velocity":123,"startTime":132.930937,"endTime":132.97404041666667,"instrument":2,"program":27},{"pitch":57,"velocity":123,"startTime":133.1895575,"endTime":133.23266091666665,"instrument":2,"program":27},{"pitch":60,"velocity":123,"startTime":133.31886775,"endTime":133.40507458333335,"instrument":2,"program":27},{"pitch":57,"velocity":123,"startTime":133.448178,"endTime":133.53438483333335,"instrument":2,"program":27},{"pitch":57,"velocity":123,"startTime":133.70679850000002,"endTime":133.83610875,"instrument":2,"program":27},{"pitch":60,"velocity":123,"startTime":133.83610875,"endTime":133.92231558333336,"instrument":2,"program":27},{"pitch":57,"velocity":123,"startTime":133.965419,"endTime":134.09472925,"instrument":2,"program":27},{"pitch":57,"velocity":123,"startTime":134.48266,"endTime":134.52576341666665,"instrument":2,"program":27},{"pitch":57,"velocity":123,"startTime":134.61197025,"endTime":134.69817708333335,"instrument":2,"program":27},{"pitch":57,"velocity":123,"startTime":134.74128050000002,"endTime":134.78438391666666,"instrument":2,"program":27},{"pitch":57,"velocity":123,"startTime":134.87059075000002,"endTime":134.95679758333335,"instrument":2,"program":27},{"pitch":62,"velocity":123,"startTime":134.999901,"endTime":135.04300441666666,"instrument":2,"program":27},{"pitch":62,"velocity":123,"startTime":135.2585215,"endTime":135.30162491666667,"instrument":2,"program":27},{"pitch":62,"velocity":123,"startTime":135.517142,"endTime":135.56024541666665,"instrument":2,"program":27},{"pitch":62,"velocity":123,"startTime":135.64645225,"endTime":135.73265908333335,"instrument":2,"program":27},{"pitch":62,"velocity":123,"startTime":135.7757625,"endTime":135.90507275000002,"instrument":2,"program":27},{"pitch":62,"velocity":123,"startTime":136.03438300000002,"endTime":136.16369325,"instrument":2,"program":27},{"pitch":62,"velocity":123,"startTime":136.16369325,"endTime":136.24990008333336,"instrument":2,"program":27},{"pitch":62,"velocity":123,"startTime":136.551624,"endTime":136.59472741666667,"instrument":2,"program":27},{"pitch":62,"velocity":123,"startTime":136.68093425,"endTime":136.76714108333337,"instrument":2,"program":27},{"pitch":62,"velocity":123,"startTime":136.8102445,"endTime":136.89645133333335,"instrument":2,"program":27},{"pitch":62,"velocity":123,"startTime":136.93955475,"endTime":137.02576158333335,"instrument":2,"program":27},{"pitch":62,"velocity":123,"startTime":137.06886500000002,"endTime":137.19817525000002,"instrument":2,"program":27},{"pitch":62,"velocity":123,"startTime":137.19817525000002,"endTime":137.3274855,"instrument":2,"program":27},{"pitch":62,"velocity":123,"startTime":137.586106,"endTime":137.67231283333336,"instrument":2,"program":27},{"pitch":62,"velocity":123,"startTime":137.71541625,"endTime":137.80162308333337,"instrument":2,"program":27},{"pitch":62,"velocity":123,"startTime":137.8447265,"endTime":137.97403675,"instrument":2,"program":27},{"pitch":62,"velocity":123,"startTime":138.103347,"endTime":138.23265725000002,"instrument":2,"program":27},{"pitch":62,"velocity":123,"startTime":138.23265725000002,"endTime":138.31886408333335,"instrument":2,"program":27},{"pitch":62,"velocity":123,"startTime":138.36196750000002,"endTime":138.44817433333336,"instrument":2,"program":27},{"pitch":62,"velocity":123,"startTime":138.49127775,"endTime":138.57748458333214,"instrument":2,"program":27},{"pitch":35,"velocity":117,"startTime":135.2585215,"endTime":135.517142,"instrument":4,"program":35},{"pitch":40,"velocity":117,"startTime":135.517142,"endTime":135.7757625,"instrument":4,"program":35},{"pitch":35,"velocity":117,"startTime":135.7757625,"endTime":135.90507275000002,"instrument":4,"program":35},{"pitch":40,"velocity":117,"startTime":136.551624,"endTime":136.68093425,"instrument":4,"program":35},{"pitch":35,"velocity":117,"startTime":136.68093425,"endTime":136.8102445,"instrument":4,"program":35},{"pitch":40,"velocity":117,"startTime":136.8102445,"endTime":136.93955475,"instrument":4,"program":35},{"pitch":40,"velocity":117,"startTime":137.8447265,"endTime":138.103347,"instrument":4,"program":35},{"pitch":45,"velocity":117,"startTime":138.103347,"endTime":138.36196750000002,"instrument":4,"program":35},{"pitch":40,"velocity":117,"startTime":138.36196750000002,"endTime":138.49127775,"instrument":4,"program":35}],"totalTime":138.57748458333214},"tempo":116},"remix":{"trimmedSequence":{"filename":"lithium__fanvoy__remix.mid","ticksPerQuarter":192,"timeSignatures":[{"numerator":4,"denominator":4}],"tempos":[{"qpm":116.00008506672904}],"notes":[{"pitch":36,"velocity":105,"endTime":0.12931025000000002,"isDrum":true},{"pitch":42,"velocity":105,"endTime":0.12931025000000002,"isDrum":true},{"pitch":42,"velocity":105,"startTime":0.25862050000000003,"endTime":0.38793075000000005,"isDrum":true},{"pitch":38,"velocity":105,"startTime":0.5172410000000001,"endTime":0.64655125,"isDrum":true},{"pitch":39,"velocity":105,"startTime":0.5172410000000001,"endTime":0.64655125,"isDrum":true},{"pitch":42,"velocity":105,"startTime":0.5172410000000001,"endTime":0.64655125,"isDrum":true},{"pitch":69,"velocity":105,"startTime":0.5172410000000001,"endTime":0.64655125,"isDrum":true},{"pitch":36,"velocity":105,"startTime":0.7758615000000001,"endTime":0.90517175,"isDrum":true},{"pitch":42,"velocity":105,"startTime":0.7758615000000001,"endTime":0.90517175,"isDrum":true},{"pitch":36,"velocity":105,"startTime":1.0344820000000001,"endTime":1.16379225,"isDrum":true},{"pitch":42,"velocity":105,"startTime":1.0344820000000001,"endTime":1.16379225,"isDrum":true},{"pitch":42,"velocity":105,"startTime":1.2931025,"endTime":1.4224127500000001,"isDrum":true},{"pitch":38,"velocity":105,"startTime":1.5517230000000002,"endTime":1.68103325,"isDrum":true},{"pitch":39,"velocity":105,"startTime":1.5517230000000002,"endTime":1.68103325,"isDrum":true},{"pitch":42,"velocity":105,"startTime":1.5517230000000002,"endTime":1.68103325,"isDrum":true},{"pitch":69,"velocity":105,"startTime":1.5517230000000002,"endTime":1.68103325,"isDrum":true},{"pitch":36,"velocity":105,"startTime":1.8103435,"endTime":1.9396537500000002,"isDrum":true},{"pitch":42,"velocity":105,"startTime":1.8103435,"endTime":1.9396537500000002,"isDrum":true},{"pitch":36,"velocity":105,"startTime":2.0689640000000002,"endTime":2.1982742500000003,"isDrum":true},{"pitch":42,"velocity":105,"startTime":2.0689640000000002,"endTime":2.1982742500000003,"isDrum":true},{"pitch":42,"velocity":105,"startTime":2.3275845,"endTime":2.45689475,"isDrum":true},{"pitch":38,"velocity":105,"startTime":2.586205,"endTime":2.71551525,"isDrum":true},{"pitch":39,"velocity":105,"startTime":2.586205,"endTime":2.71551525,"isDrum":true},{"pitch":42,"velocity":105,"startTime":2.586205,"endTime":2.71551525,"isDrum":true},{"pitch":69,"velocity":105,"startTime":2.586205,"endTime":2.71551525,"isDrum":true},{"pitch":36,"velocity":105,"startTime":2.8448255000000002,"endTime":2.9741357500000003,"isDrum":true},{"pitch":42,"velocity":105,"startTime":2.8448255000000002,"endTime":2.9741357500000003,"isDrum":true},{"pitch":36,"velocity":105,"startTime":3.1034460000000004,"endTime":3.23275625,"isDrum":true},{"pitch":42,"velocity":105,"startTime":3.1034460000000004,"endTime":3.23275625,"isDrum":true},{"pitch":42,"velocity":105,"startTime":3.3620665,"endTime":3.49137675,"isDrum":true},{"pitch":38,"velocity":105,"startTime":3.620687,"endTime":3.7499972500000003,"isDrum":true},{"pitch":39,"velocity":105,"startTime":3.620687,"endTime":3.7499972500000003,"isDrum":true},{"pitch":42,"velocity":105,"startTime":3.620687,"endTime":3.7499972500000003,"isDrum":true},{"pitch":69,"velocity":105,"startTime":3.620687,"endTime":3.7499972500000003,"isDrum":true},{"pitch":36,"velocity":105,"startTime":3.8793075000000004,"endTime":4.00861775,"isDrum":true},{"pitch":42,"velocity":105,"startTime":3.8793075000000004,"endTime":4.00861775,"isDrum":true},{"pitch":36,"velocity":105,"startTime":4.1379280000000005,"endTime":4.26723825,"isDrum":true},{"pitch":42,"velocity":105,"startTime":4.1379280000000005,"endTime":4.26723825,"isDrum":true},{"pitch":42,"velocity":105,"startTime":4.396548500000001,"endTime":4.52585875,"isDrum":true},{"pitch":38,"velocity":105,"startTime":4.655169,"endTime":4.78447925,"isDrum":true},{"pitch":39,"velocity":105,"startTime":4.655169,"endTime":4.78447925,"isDrum":true},{"pitch":42,"velocity":105,"startTime":4.655169,"endTime":4.78447925,"isDrum":true},{"pitch":69,"velocity":105,"startTime":4.655169,"endTime":4.78447925,"isDrum":true},{"pitch":36,"velocity":105,"startTime":4.9137895,"endTime":5.0430997500000005,"isDrum":true},{"pitch":42,"velocity":105,"startTime":4.9137895,"endTime":5.0430997500000005,"isDrum":true},{"pitch":36,"velocity":105,"startTime":5.17241,"endTime":5.301720250000001,"isDrum":true},{"pitch":42,"velocity":105,"startTime":5.17241,"endTime":5.301720250000001,"isDrum":true},{"pitch":42,"velocity":105,"startTime":5.4310305,"endTime":5.56034075,"isDrum":true},{"pitch":38,"velocity":105,"startTime":5.6896510000000005,"endTime":5.81896125,"isDrum":true},{"pitch":39,"velocity":105,"startTime":5.6896510000000005,"endTime":5.81896125,"isDrum":true},{"pitch":42,"velocity":105,"startTime":5.6896510000000005,"endTime":5.81896125,"isDrum":true},{"pitch":69,"velocity":105,"startTime":5.6896510000000005,"endTime":5.81896125,"isDrum":true},{"pitch":36,"velocity":105,"startTime":5.948271500000001,"endTime":6.07758175,"isDrum":true},{"pitch":42,"velocity":105,"startTime":5.948271500000001,"endTime":6.07758175,"isDrum":true},{"pitch":36,"velocity":105,"startTime":6.206892000000001,"endTime":6.33620225,"isDrum":true},{"pitch":42,"velocity":105,"startTime":6.206892000000001,"endTime":6.33620225,"isDrum":true},{"pitch":42,"velocity":105,"startTime":6.4655125,"endTime":6.5948227500000005,"isDrum":true},{"pitch":38,"velocity":105,"startTime":6.724133,"endTime":6.853443250000001,"isDrum":true},{"pitch":39,"velocity":105,"startTime":6.724133,"endTime":6.853443250000001,"isDrum":true},{"pitch":42,"velocity":105,"startTime":6.724133,"endTime":6.853443250000001,"isDrum":true},{"pitch":69,"velocity":105,"startTime":6.724133,"endTime":6.853443250000001,"isDrum":true},{"pitch":36,"velocity":105,"startTime":6.9827535,"endTime":7.112063750000001,"isDrum":true},{"pitch":42,"velocity":105,"startTime":6.9827535,"endTime":7.112063750000001,"isDrum":true},{"pitch":36,"velocity":105,"startTime":7.241374,"endTime":7.37068425,"isDrum":true},{"pitch":42,"velocity":105,"startTime":7.241374,"endTime":7.37068425,"isDrum":true},{"pitch":42,"velocity":105,"startTime":7.499994500000001,"endTime":7.62930475,"isDrum":true},{"pitch":38,"velocity":105,"startTime":7.758615000000001,"endTime":7.88792525,"isDrum":true},{"pitch":39,"velocity":105,"startTime":7.758615000000001,"endTime":7.88792525,"isDrum":true},{"pitch":42,"velocity":105,"startTime":7.758615000000001,"endTime":7.88792525,"isDrum":true},{"pitch":69,"velocity":105,"startTime":7.758615000000001,"endTime":7.88792525,"isDrum":true},{"pitch":36,"velocity":105,"startTime":8.0172355,"endTime":8.14654575,"isDrum":true},{"pitch":42,"velocity":105,"startTime":8.0172355,"endTime":8.14654575,"isDrum":true},{"pitch":36,"velocity":105,"startTime":8.275856000000001,"endTime":8.40516625,"isDrum":true},{"pitch":42,"velocity":105,"startTime":8.275856000000001,"endTime":8.40516625,"isDrum":true},{"pitch":42,"velocity":105,"startTime":8.5344765,"endTime":8.66378675,"isDrum":true},{"pitch":38,"velocity":105,"startTime":8.793097000000001,"endTime":8.922407250000001,"isDrum":true},{"pitch":39,"velocity":105,"startTime":8.793097000000001,"endTime":8.922407250000001,"isDrum":true},{"pitch":42,"velocity":105,"startTime":8.793097000000001,"endTime":8.922407250000001,"isDrum":true},{"pitch":69,"velocity":105,"startTime":8.793097000000001,"endTime":8.922407250000001,"isDrum":true},{"pitch":36,"velocity":105,"startTime":9.0517175,"endTime":9.18102775,"isDrum":true},{"pitch":42,"velocity":105,"startTime":9.0517175,"endTime":9.18102775,"isDrum":true},{"pitch":36,"velocity":105,"startTime":9.310338,"endTime":9.439648250000001,"isDrum":true},{"pitch":42,"velocity":105,"startTime":9.310338,"endTime":9.439648250000001,"isDrum":true},{"pitch":42,"velocity":105,"startTime":9.5689585,"endTime":9.69826875,"isDrum":true},{"pitch":38,"velocity":105,"startTime":9.827579,"endTime":9.95688925,"isDrum":true},{"pitch":39,"velocity":105,"startTime":9.827579,"endTime":9.95688925,"isDrum":true},{"pitch":42,"velocity":105,"startTime":9.827579,"endTime":9.95688925,"isDrum":true},{"pitch":69,"velocity":105,"startTime":9.827579,"endTime":9.95688925,"isDrum":true},{"pitch":36,"velocity":105,"startTime":10.086199500000001,"endTime":10.21550975,"isDrum":true},{"pitch":42,"velocity":105,"startTime":10.086199500000001,"endTime":10.21550975,"isDrum":true},{"pitch":36,"velocity":105,"startTime":10.34482,"endTime":10.47413025,"isDrum":true},{"pitch":42,"velocity":105,"startTime":10.34482,"endTime":10.47413025,"isDrum":true},{"pitch":42,"velocity":105,"startTime":10.603440500000001,"endTime":10.732750750000001,"isDrum":true},{"pitch":38,"velocity":105,"startTime":10.862061,"endTime":10.99137125,"isDrum":true},{"pitch":39,"velocity":105,"startTime":10.862061,"endTime":10.99137125,"isDrum":true},{"pitch":42,"velocity":105,"startTime":10.862061,"endTime":10.99137125,"isDrum":true},{"pitch":69,"velocity":105,"startTime":10.862061,"endTime":10.99137125,"isDrum":true},{"pitch":36,"velocity":105,"startTime":11.1206815,"endTime":11.249991750000001,"isDrum":true},{"pitch":42,"velocity":105,"startTime":11.1206815,"endTime":11.249991750000001,"isDrum":true},{"pitch":36,"velocity":105,"startTime":11.379302000000001,"endTime":11.50861225,"isDrum":true},{"pitch":42,"velocity":105,"startTime":11.379302000000001,"endTime":11.50861225,"isDrum":true},{"pitch":42,"velocity":105,"startTime":11.6379225,"endTime":11.76723275,"isDrum":true},{"pitch":38,"velocity":105,"startTime":11.896543000000001,"endTime":12.02585325,"isDrum":true},{"pitch":39,"velocity":105,"startTime":11.896543000000001,"endTime":12.02585325,"isDrum":true},{"pitch":42,"velocity":105,"startTime":11.896543000000001,"endTime":12.02585325,"isDrum":true},{"pitch":69,"velocity":105,"startTime":11.896543000000001,"endTime":12.02585325,"isDrum":true},{"pitch":36,"velocity":105,"startTime":12.1551635,"endTime":12.28447375,"isDrum":true},{"pitch":42,"velocity":105,"startTime":12.1551635,"endTime":12.28447375,"isDrum":true},{"pitch":36,"velocity":105,"startTime":12.413784000000001,"endTime":12.543094250000001,"isDrum":true},{"pitch":42,"velocity":105,"startTime":12.413784000000001,"endTime":12.543094250000001,"isDrum":true},{"pitch":42,"velocity":105,"startTime":12.6724045,"endTime":12.80171475,"isDrum":true},{"pitch":38,"velocity":105,"startTime":12.931025,"endTime":13.060335250000001,"isDrum":true},{"pitch":39,"velocity":105,"startTime":12.931025,"endTime":13.060335250000001,"isDrum":true},{"pitch":42,"velocity":105,"startTime":12.931025,"endTime":13.060335250000001,"isDrum":true},{"pitch":69,"velocity":105,"startTime":12.931025,"endTime":13.060335250000001,"isDrum":true},{"pitch":36,"velocity":105,"startTime":13.189645500000001,"endTime":13.31895575,"isDrum":true},{"pitch":42,"velocity":105,"startTime":13.189645500000001,"endTime":13.31895575,"isDrum":true},{"pitch":36,"velocity":105,"startTime":13.448266,"endTime":13.57757625,"isDrum":true},{"pitch":42,"velocity":105,"startTime":13.448266,"endTime":13.57757625,"isDrum":true},{"pitch":42,"velocity":105,"startTime":13.706886500000001,"endTime":13.836196750000001,"isDrum":true},{"pitch":38,"velocity":105,"startTime":13.965507,"endTime":14.09481725,"isDrum":true},{"pitch":39,"velocity":105,"startTime":13.965507,"endTime":14.09481725,"isDrum":true},{"pitch":42,"velocity":105,"startTime":13.965507,"endTime":14.09481725,"isDrum":true},{"pitch":69,"velocity":105,"startTime":13.965507,"endTime":14.09481725,"isDrum":true},{"pitch":36,"velocity":105,"startTime":14.224127500000002,"endTime":14.353437750000001,"isDrum":true},{"pitch":42,"velocity":105,"startTime":14.224127500000002,"endTime":14.353437750000001,"isDrum":true},{"pitch":36,"velocity":105,"startTime":14.482748,"endTime":14.61205825,"isDrum":true},{"pitch":42,"velocity":105,"startTime":14.482748,"endTime":14.61205825,"isDrum":true},{"pitch":42,"velocity":105,"startTime":14.7413685,"endTime":14.870678750000002,"isDrum":true},{"pitch":38,"velocity":105,"startTime":14.999989000000001,"endTime":15.12929925,"isDrum":true},{"pitch":39,"velocity":105,"startTime":14.999989000000001,"endTime":15.12929925,"isDrum":true},{"pitch":42,"velocity":105,"startTime":14.999989000000001,"endTime":15.12929925,"isDrum":true},{"pitch":69,"velocity":105,"startTime":14.999989000000001,"endTime":15.12929925,"isDrum":true},{"pitch":36,"velocity":105,"startTime":15.2586095,"endTime":15.38791975,"isDrum":true},{"pitch":42,"velocity":105,"startTime":15.2586095,"endTime":15.38791975,"isDrum":true},{"pitch":36,"velocity":105,"startTime":15.517230000000001,"endTime":15.646540250000001,"isDrum":true},{"pitch":42,"velocity":105,"startTime":15.517230000000001,"endTime":15.646540250000001,"isDrum":true},{"pitch":42,"velocity":105,"startTime":15.7758505,"endTime":15.90516075,"isDrum":true},{"pitch":38,"velocity":105,"startTime":16.034471,"endTime":16.16378125,"isDrum":true},{"pitch":39,"velocity":105,"startTime":16.034471,"endTime":16.16378125,"isDrum":true},{"pitch":42,"velocity":105,"startTime":16.034471,"endTime":16.16378125,"isDrum":true},{"pitch":69,"velocity":105,"startTime":16.034471,"endTime":16.16378125,"isDrum":true},{"pitch":36,"velocity":105,"startTime":16.2930915,"endTime":16.422401750000002,"isDrum":true},{"pitch":42,"velocity":105,"startTime":16.2930915,"endTime":16.422401750000002,"isDrum":true},{"pitch":56,"velocity":123,"startTime":9.5689585,"endTime":9.69826875,"instrument":1,"program":4},{"pitch":60,"velocity":123,"startTime":9.5689585,"endTime":9.69826875,"instrument":1,"program":4},{"pitch":66,"velocity":123,"startTime":9.5689585,"endTime":9.69826875,"instrument":1,"program":4},{"pitch":56,"velocity":123,"startTime":9.827579,"endTime":9.95688925,"instrument":1,"program":4},{"pitch":60,"velocity":123,"startTime":9.827579,"endTime":9.95688925,"instrument":1,"program":4},{"pitch":66,"velocity":123,"startTime":9.827579,"endTime":9.95688925,"instrument":1,"program":4},{"pitch":56,"velocity":123,"startTime":10.086199500000001,"endTime":10.21550975,"instrument":1,"program":4},{"pitch":60,"velocity":123,"startTime":10.086199500000001,"endTime":10.21550975,"instrument":1,"program":4},{"pitch":66,"velocity":123,"startTime":10.086199500000001,"endTime":10.21550975,"instrument":1,"program":4},{"pitch":60,"velocity":123,"startTime":12.6724045,"endTime":12.80171475,"instrument":1,"program":4},{"pitch":64,"velocity":123,"startTime":12.6724045,"endTime":12.80171475,"instrument":1,"program":4},{"pitch":67,"velocity":123,"startTime":12.6724045,"endTime":12.80171475,"instrument":1,"program":4},{"pitch":60,"velocity":123,"startTime":12.931025,"endTime":13.060335250000001,"instrument":1,"program":4},{"pitch":64,"velocity":123,"startTime":12.931025,"endTime":13.060335250000001,"instrument":1,"program":4},{"pitch":67,"velocity":123,"startTime":12.931025,"endTime":13.060335250000001,"instrument":1,"program":4},{"pitch":62,"velocity":123,"startTime":13.189645500000001,"endTime":13.31895575,"instrument":1,"program":4},{"pitch":64,"velocity":123,"startTime":13.189645500000001,"endTime":13.31895575,"instrument":1,"program":4},{"pitch":67,"velocity":123,"startTime":13.189645500000001,"endTime":13.31895575,"instrument":1,"program":4},{"pitch":62,"velocity":123,"startTime":13.448266,"endTime":13.57757625,"instrument":1,"program":4},{"pitch":66,"velocity":123,"startTime":13.448266,"endTime":13.57757625,"instrument":1,"program":4},{"pitch":69,"velocity":123,"startTime":13.448266,"endTime":13.57757625,"instrument":1,"program":4},{"pitch":62,"velocity":123,"startTime":13.706886500000001,"endTime":13.836196750000001,"instrument":1,"program":4},{"pitch":66,"velocity":123,"startTime":13.706886500000001,"endTime":13.836196750000001,"instrument":1,"program":4},{"pitch":69,"velocity":123,"startTime":13.706886500000001,"endTime":13.836196750000001,"instrument":1,"program":4},{"pitch":62,"velocity":123,"startTime":14.224127500000002,"endTime":14.61205825,"instrument":1,"program":4},{"pitch":66,"velocity":123,"startTime":14.224127500000002,"endTime":14.61205825,"instrument":1,"program":4},{"pitch":69,"velocity":123,"startTime":14.224127500000002,"endTime":14.61205825,"instrument":1,"program":4},{"pitch":62,"velocity":123,"startTime":14.7413685,"endTime":14.870678750000002,"instrument":1,"program":4},{"pitch":66,"velocity":123,"startTime":14.7413685,"endTime":14.870678750000002,"instrument":1,"program":4},{"pitch":69,"velocity":123,"startTime":14.7413685,"endTime":14.870678750000002,"instrument":1,"program":4},{"pitch":62,"velocity":123,"startTime":15.517230000000001,"endTime":15.646540250000001,"instrument":1,"program":4},{"pitch":66,"velocity":123,"startTime":15.517230000000001,"endTime":15.646540250000001,"instrument":1,"program":4},{"pitch":69,"velocity":123,"startTime":15.517230000000001,"endTime":15.646540250000001,"instrument":1,"program":4},{"pitch":62,"velocity":123,"startTime":15.7758505,"endTime":15.90516075,"instrument":1,"program":4},{"pitch":66,"velocity":123,"startTime":15.7758505,"endTime":15.90516075,"instrument":1,"program":4},{"pitch":69,"velocity":123,"startTime":15.7758505,"endTime":15.90516075,"instrument":1,"program":4},{"pitch":60,"velocity":123,"startTime":4.1379280000000005,"endTime":4.181031416666667,"instrument":2,"program":27},{"pitch":60,"velocity":123,"startTime":4.396548500000001,"endTime":4.52585875,"instrument":2,"program":27},{"pitch":62,"velocity":123,"startTime":4.655169,"endTime":4.78447925,"instrument":2,"program":27},{"pitch":60,"velocity":123,"startTime":4.78447925,"endTime":4.9137895,"instrument":2,"program":27},{"pitch":62,"velocity":123,"startTime":5.17241,"endTime":5.215513416666667,"instrument":2,"program":27},{"pitch":62,"velocity":123,"startTime":5.4310305,"endTime":5.56034075,"instrument":2,"program":27},{"pitch":62,"velocity":123,"startTime":5.56034075,"endTime":5.646547583333334,"instrument":2,"program":27},{"pitch":62,"velocity":123,"startTime":5.6896510000000005,"endTime":5.732754416666667,"instrument":2,"program":27},{"pitch":62,"velocity":123,"startTime":5.948271500000001,"endTime":6.07758175,"instrument":2,"program":27},{"pitch":62,"velocity":123,"startTime":6.206892000000001,"endTime":6.249995416666667,"instrument":2,"program":27},{"pitch":62,"velocity":123,"startTime":6.33620225,"endTime":6.422409083333334,"instrument":2,"program":27},{"pitch":62,"velocity":123,"startTime":6.4655125,"endTime":6.5948227500000005,"instrument":2,"program":27},{"pitch":62,"velocity":123,"startTime":6.724133,"endTime":6.853443250000001,"instrument":2,"program":27},{"pitch":62,"velocity":123,"startTime":6.9827535,"endTime":7.112063750000001,"instrument":2,"program":27},{"pitch":62,"velocity":123,"startTime":7.241374,"endTime":7.284477416666667,"instrument":2,"program":27},{"pitch":62,"velocity":123,"startTime":7.499994500000001,"endTime":7.62930475,"instrument":2,"program":27},{"pitch":62,"velocity":123,"startTime":7.758615000000001,"endTime":7.88792525,"instrument":2,"program":27},{"pitch":62,"velocity":123,"startTime":8.0172355,"endTime":8.14654575,"instrument":2,"program":27},{"pitch":61,"velocity":123,"startTime":8.275856000000001,"endTime":8.318959416666667,"instrument":2,"program":27},{"pitch":61,"velocity":123,"startTime":8.40516625,"endTime":8.491373083333334,"instrument":2,"program":27},{"pitch":61,"velocity":123,"startTime":8.5344765,"endTime":8.66378675,"instrument":2,"program":27},{"pitch":61,"velocity":123,"startTime":8.793097000000001,"endTime":8.922407250000001,"instrument":2,"program":27},{"pitch":61,"velocity":123,"startTime":8.922407250000001,"endTime":9.0517175,"instrument":2,"program":27},{"pitch":61,"velocity":123,"startTime":9.310338,"endTime":9.439648250000001,"instrument":2,"program":27},{"pitch":61,"velocity":123,"startTime":9.439648250000001,"endTime":9.5689585,"instrument":2,"program":27},{"pitch":61,"velocity":123,"startTime":9.827579,"endTime":9.870682416666668,"instrument":2,"program":27},{"pitch":61,"velocity":123,"startTime":9.95688925,"endTime":10.043096083333333,"instrument":2,"program":27},{"pitch":61,"velocity":123,"startTime":10.086199500000001,"endTime":10.21550975,"instrument":2,"program":27},{"pitch":61,"velocity":123,"startTime":10.34482,"endTime":10.387923416666668,"instrument":2,"program":27},{"pitch":61,"velocity":123,"startTime":10.47413025,"endTime":10.560337083333334,"instrument":2,"program":27},{"pitch":61,"velocity":123,"startTime":10.603440500000001,"endTime":10.732750750000001,"instrument":2,"program":27},{"pitch":61,"velocity":123,"startTime":10.862061,"endTime":10.99137125,"instrument":2,"program":27},{"pitch":61,"velocity":123,"startTime":10.99137125,"endTime":11.1206815,"instrument":2,"program":27},{"pitch":61,"velocity":123,"startTime":11.379302000000001,"endTime":11.50861225,"instrument":2,"program":27},{"pitch":61,"velocity":123,"startTime":11.50861225,"endTime":11.594819083333334,"instrument":2,"program":27},{"pitch":61,"velocity":123,"startTime":11.6379225,"endTime":11.76723275,"instrument":2,"program":27},{"pitch":61,"velocity":123,"startTime":11.896543000000001,"endTime":12.02585325,"instrument":2,"program":27},{"pitch":61,"velocity":123,"startTime":12.02585325,"endTime":12.112060083333335,"instrument":2,"program":27},{"pitch":60,"velocity":123,"startTime":12.413784000000001,"endTime":12.543094250000001,"instrument":2,"program":27},{"pitch":64,"velocity":123,"startTime":12.413784000000001,"endTime":12.543094250000001,"instrument":2,"program":27},{"pitch":60,"velocity":123,"startTime":12.543094250000001,"endTime":12.629301083333335,"instrument":2,"program":27},{"pitch":64,"velocity":123,"startTime":12.543094250000001,"endTime":12.629301083333335,"instrument":2,"program":27},{"pitch":60,"velocity":123,"startTime":12.931025,"endTime":13.060335250000001,"instrument":2,"program":27},{"pitch":64,"velocity":123,"startTime":12.931025,"endTime":13.060335250000001,"instrument":2,"program":27},{"pitch":60,"velocity":123,"startTime":13.060335250000001,"endTime":13.146542083333333,"instrument":2,"program":27},{"pitch":64,"velocity":123,"startTime":13.060335250000001,"endTime":13.146542083333333,"instrument":2,"program":27},{"pitch":62,"velocity":123,"startTime":13.448266,"endTime":13.491369416666668,"instrument":2,"program":27},{"pitch":62,"velocity":123,"startTime":13.57757625,"endTime":13.663783083333334,"instrument":2,"program":27},{"pitch":62,"velocity":123,"startTime":13.706886500000001,"endTime":13.836196750000001,"instrument":2,"program":27},{"pitch":62,"velocity":123,"startTime":13.965507,"endTime":14.09481725,"instrument":2,"program":27},{"pitch":62,"velocity":123,"startTime":14.09481725,"endTime":14.181024083333334,"instrument":2,"program":27},{"pitch":59,"velocity":123,"startTime":14.482748,"endTime":14.525851416666667,"instrument":2,"program":27},{"pitch":59,"velocity":123,"startTime":14.61205825,"endTime":14.698265083333334,"instrument":2,"program":27},{"pitch":59,"velocity":123,"startTime":14.7413685,"endTime":14.870678750000002,"instrument":2,"program":27},{"pitch":59,"velocity":123,"startTime":14.999989000000001,"endTime":15.12929925,"instrument":2,"program":27},{"pitch":59,"velocity":123,"startTime":15.12929925,"endTime":15.215506083333334,"instrument":2,"program":27},{"pitch":59,"velocity":123,"startTime":15.517230000000001,"endTime":15.560333416666667,"instrument":2,"program":27},{"pitch":59,"velocity":123,"startTime":15.7758505,"endTime":15.90516075,"instrument":2,"program":27},{"pitch":59,"velocity":123,"startTime":16.034471,"endTime":16.16378125,"instrument":2,"program":27},{"pitch":59,"velocity":123,"startTime":16.16378125,"endTime":16.249988083333335,"instrument":2,"program":27},{"pitch":59,"velocity":123,"startTime":16.2930915,"endTime":16.422401750000002,"instrument":2,"program":27},{"pitch":28,"velocity":117,"endTime":0.21551708333333336,"instrument":4,"program":35},{"pitch":35,"velocity":117,"startTime":0.25862050000000003,"endTime":0.38793075000000005,"instrument":4,"program":35},{"pitch":32,"velocity":117,"startTime":0.90517175,"endTime":1.0344820000000001,"instrument":4,"program":35},{"pitch":44,"velocity":117,"startTime":1.0344820000000001,"endTime":1.2499990833333334,"instrument":4,"program":35},{"pitch":40,"velocity":117,"startTime":10.603440500000001,"endTime":10.689647333333333,"instrument":4,"program":35},{"pitch":40,"velocity":117,"startTime":10.732750750000001,"endTime":10.818957583333335,"instrument":4,"program":35},{"pitch":40,"velocity":117,"startTime":10.862061,"endTime":11.077578083333334,"instrument":4,"program":35},{"pitch":40,"velocity":117,"startTime":11.1206815,"endTime":11.336198583333333,"instrument":4,"program":35},{"pitch":36,"velocity":117,"startTime":12.413784000000001,"endTime":12.80171475,"instrument":4,"program":35},{"pitch":43,"velocity":117,"startTime":12.80171475,"endTime":12.887921583333334,"instrument":4,"program":35},{"pitch":40,"velocity":117,"startTime":12.931025,"endTime":13.060335250000001,"instrument":4,"program":35},{"pitch":38,"velocity":117,"startTime":16.034471,"endTime":16.422401750000002,"instrument":4,"program":35},{"pitch":40,"velocity":118,"endTime":0.25862050000000003,"instrument":5,"program":87},{"pitch":44,"velocity":118,"startTime":1.8103435,"endTime":2.0689640000000002,"instrument":5,"program":87},{"pitch":37,"velocity":118,"startTime":2.0689640000000002,"endTime":2.3275845,"instrument":5,"program":87},{"pitch":33,"velocity":118,"startTime":3.8793075000000004,"endTime":4.1379280000000005,"instrument":5,"program":87},{"pitch":36,"velocity":118,"startTime":4.1379280000000005,"endTime":4.396548500000001,"instrument":5,"program":87},{"pitch":38,"velocity":118,"startTime":8.0172355,"endTime":8.275856000000001,"instrument":5,"program":87},{"pitch":28,"velocity":118,"startTime":8.275856000000001,"endTime":8.5344765,"instrument":5,"program":87},{"pitch":35,"velocity":105,"startTime":16.551712000000002,"endTime":16.68102225,"isDrum":true},{"pitch":42,"velocity":105,"startTime":16.551712000000002,"endTime":16.68102225,"isDrum":true},{"pitch":42,"velocity":105,"startTime":16.8103325,"endTime":16.93964275,"isDrum":true},{"pitch":38,"velocity":105,"startTime":17.068953,"endTime":17.19826325,"isDrum":true},{"pitch":39,"velocity":105,"startTime":17.068953,"endTime":17.19826325,"isDrum":true},{"pitch":40,"velocity":105,"startTime":17.068953,"endTime":17.19826325,"isDrum":true},{"pitch":42,"velocity":105,"startTime":17.068953,"endTime":17.19826325,"isDrum":true},{"pitch":42,"velocity":105,"startTime":17.3275735,"endTime":17.45688375,"isDrum":true},{"pitch":35,"velocity":105,"startTime":17.586194000000003,"endTime":17.715504250000002,"isDrum":true},{"pitch":42,"velocity":105,"startTime":17.586194000000003,"endTime":17.715504250000002,"isDrum":true},{"pitch":42,"velocity":105,"startTime":17.844814500000002,"endTime":17.97412475,"isDrum":true},{"pitch":38,"velocity":105,"startTime":18.103435,"endTime":18.23274525,"isDrum":true},{"pitch":39,"velocity":105,"startTime":18.103435,"endTime":18.23274525,"isDrum":true},{"pitch":40,"velocity":105,"startTime":18.103435,"endTime":18.23274525,"isDrum":true},{"pitch":42,"velocity":105,"startTime":18.103435,"endTime":18.23274525,"isDrum":true},{"pitch":42,"velocity":105,"startTime":18.3620555,"endTime":18.49136575,"isDrum":true},{"pitch":35,"velocity":105,"startTime":18.620676,"endTime":18.749986250000003,"isDrum":true},{"pitch":42,"velocity":105,"startTime":18.620676,"endTime":18.749986250000003,"isDrum":true},{"pitch":42,"velocity":105,"startTime":18.879296500000002,"endTime":19.008606750000002,"isDrum":true},{"pitch":38,"velocity":105,"startTime":19.137917,"endTime":19.26722725,"isDrum":true},{"pitch":39,"velocity":105,"startTime":19.137917,"endTime":19.26722725,"isDrum":true},{"pitch":40,"velocity":105,"startTime":19.137917,"endTime":19.26722725,"isDrum":true},{"pitch":42,"velocity":105,"startTime":19.137917,"endTime":19.26722725,"isDrum":true},{"pitch":42,"velocity":105,"startTime":19.3965375,"endTime":19.52584775,"isDrum":true},{"pitch":35,"velocity":105,"startTime":19.655158,"endTime":19.78446825,"isDrum":true},{"pitch":42,"velocity":105,"startTime":19.655158,"endTime":19.78446825,"isDrum":true},{"pitch":42,"velocity":105,"startTime":19.9137785,"endTime":20.043088750000003,"isDrum":true},{"pitch":38,"velocity":105,"startTime":20.172399000000002,"endTime":20.301709250000002,"isDrum":true},{"pitch":39,"velocity":105,"startTime":20.172399000000002,"endTime":20.301709250000002,"isDrum":true},{"pitch":40,"velocity":105,"startTime":20.172399000000002,"endTime":20.301709250000002,"isDrum":true},{"pitch":42,"velocity":105,"startTime":20.172399000000002,"endTime":20.301709250000002,"isDrum":true},{"pitch":42,"velocity":105,"startTime":20.4310195,"endTime":20.56032975,"isDrum":true},{"pitch":35,"velocity":105,"startTime":20.68964,"endTime":20.81895025,"isDrum":true},{"pitch":42,"velocity":105,"startTime":20.68964,"endTime":20.81895025,"isDrum":true},{"pitch":42,"velocity":105,"startTime":20.9482605,"endTime":21.07757075,"isDrum":true},{"pitch":38,"velocity":105,"startTime":21.206881000000003,"endTime":21.336191250000002,"isDrum":true},{"pitch":39,"velocity":105,"startTime":21.206881000000003,"endTime":21.336191250000002,"isDrum":true},{"pitch":40,"velocity":105,"startTime":21.206881000000003,"endTime":21.336191250000002,"isDrum":true},{"pitch":42,"velocity":105,"startTime":21.206881000000003,"endTime":21.336191250000002,"isDrum":true},{"pitch":42,"velocity":105,"startTime":21.465501500000002,"endTime":21.59481175,"isDrum":true},{"pitch":35,"velocity":105,"startTime":21.724122,"endTime":21.85343225,"isDrum":true},{"pitch":42,"velocity":105,"startTime":21.724122,"endTime":21.85343225,"isDrum":true},{"pitch":42,"velocity":105,"startTime":21.9827425,"endTime":22.11205275,"isDrum":true},{"pitch":38,"velocity":105,"startTime":22.241363,"endTime":22.370673250000003,"isDrum":true},{"pitch":39,"velocity":105,"startTime":22.241363,"endTime":22.370673250000003,"isDrum":true},{"pitch":40,"velocity":105,"startTime":22.241363,"endTime":22.370673250000003,"isDrum":true},{"pitch":42,"velocity":105,"startTime":22.241363,"endTime":22.370673250000003,"isDrum":true},{"pitch":42,"velocity":105,"startTime":22.499983500000003,"endTime":22.629293750000002,"isDrum":true},{"pitch":35,"velocity":105,"startTime":22.758604000000002,"endTime":22.88791425,"isDrum":true},{"pitch":42,"velocity":105,"startTime":22.758604000000002,"endTime":22.88791425,"isDrum":true},{"pitch":42,"velocity":105,"startTime":23.0172245,"endTime":23.14653475,"isDrum":true},{"pitch":38,"velocity":105,"startTime":23.275845,"endTime":23.40515525,"isDrum":true},{"pitch":39,"velocity":105,"startTime":23.275845,"endTime":23.40515525,"isDrum":true},{"pitch":40,"velocity":105,"startTime":23.275845,"endTime":23.40515525,"isDrum":true},{"pitch":42,"velocity":105,"startTime":23.275845,"endTime":23.40515525,"isDrum":true},{"pitch":42,"velocity":105,"startTime":23.5344655,"endTime":23.663775750000003,"isDrum":true},{"pitch":35,"velocity":105,"startTime":23.793086000000002,"endTime":23.922396250000002,"isDrum":true},{"pitch":42,"velocity":105,"startTime":23.793086000000002,"endTime":23.922396250000002,"isDrum":true},{"pitch":42,"velocity":105,"startTime":24.0517065,"endTime":24.18101675,"isDrum":true},{"pitch":38,"velocity":105,"startTime":24.310327,"endTime":24.43963725,"isDrum":true},{"pitch":39,"velocity":105,"startTime":24.310327,"endTime":24.43963725,"isDrum":true},{"pitch":40,"velocity":105,"startTime":24.310327,"endTime":24.43963725,"isDrum":true},{"pitch":42,"velocity":105,"startTime":24.310327,"endTime":24.43963725,"isDrum":true},{"pitch":42,"velocity":105,"startTime":24.5689475,"endTime":24.69825775,"isDrum":true},{"pitch":35,"velocity":105,"startTime":24.827568000000003,"endTime":24.956878250000003,"isDrum":true},{"pitch":42,"velocity":105,"startTime":24.827568000000003,"endTime":24.956878250000003,"isDrum":true},{"pitch":42,"velocity":105,"startTime":25.086188500000002,"endTime":25.215498750000002,"isDrum":true},{"pitch":38,"velocity":105,"startTime":25.344809,"endTime":25.47411925,"isDrum":true},{"pitch":39,"velocity":105,"startTime":25.344809,"endTime":25.47411925,"isDrum":true},{"pitch":40,"velocity":105,"startTime":25.344809,"endTime":25.47411925,"isDrum":true},{"pitch":42,"velocity":105,"startTime":25.344809,"endTime":25.47411925,"isDrum":true},{"pitch":42,"velocity":105,"startTime":25.6034295,"endTime":25.73273975,"isDrum":true},{"pitch":35,"velocity":105,"startTime":25.86205,"endTime":25.991360250000003,"isDrum":true},{"pitch":42,"velocity":105,"startTime":25.86205,"endTime":25.991360250000003,"isDrum":true},{"pitch":42,"velocity":105,"startTime":26.120670500000003,"endTime":26.249980750000002,"isDrum":true},{"pitch":38,"velocity":105,"startTime":26.379291000000002,"endTime":26.50860125,"isDrum":true},{"pitch":39,"velocity":105,"startTime":26.379291000000002,"endTime":26.50860125,"isDrum":true},{"pitch":40,"velocity":105,"startTime":26.379291000000002,"endTime":26.50860125,"isDrum":true},{"pitch":42,"velocity":105,"startTime":26.379291000000002,"endTime":26.50860125,"isDrum":true},{"pitch":42,"velocity":105,"startTime":26.6379115,"endTime":26.76722175,"isDrum":true},{"pitch":35,"velocity":105,"startTime":26.896532,"endTime":27.02584225,"isDrum":true},{"pitch":42,"velocity":105,"startTime":26.896532,"endTime":27.02584225,"isDrum":true},{"pitch":42,"velocity":105,"startTime":27.1551525,"endTime":27.284462750000003,"isDrum":true},{"pitch":38,"velocity":105,"startTime":27.413773000000003,"endTime":27.543083250000002,"isDrum":true},{"pitch":39,"velocity":105,"startTime":27.413773000000003,"endTime":27.543083250000002,"isDrum":true},{"pitch":40,"velocity":105,"startTime":27.413773000000003,"endTime":27.543083250000002,"isDrum":true},{"pitch":42,"velocity":105,"startTime":27.413773000000003,"endTime":27.543083250000002,"isDrum":true},{"pitch":42,"velocity":105,"startTime":27.672393500000002,"endTime":27.80170375,"isDrum":true},{"pitch":35,"velocity":105,"startTime":27.931014,"endTime":28.06032425,"isDrum":true},{"pitch":42,"velocity":105,"startTime":27.931014,"endTime":28.06032425,"isDrum":true},{"pitch":42,"velocity":105,"startTime":28.1896345,"endTime":28.31894475,"isDrum":true},{"pitch":38,"velocity":105,"startTime":28.448255000000003,"endTime":28.577565250000003,"isDrum":true},{"pitch":39,"velocity":105,"startTime":28.448255000000003,"endTime":28.577565250000003,"isDrum":true},{"pitch":40,"velocity":105,"startTime":28.448255000000003,"endTime":28.577565250000003,"isDrum":true},{"pitch":42,"velocity":105,"startTime":28.448255000000003,"endTime":28.577565250000003,"isDrum":true},{"pitch":42,"velocity":105,"startTime":28.706875500000002,"endTime":28.836185750000002,"isDrum":true},{"pitch":35,"velocity":105,"startTime":28.965496,"endTime":29.09480625,"isDrum":true},{"pitch":42,"velocity":105,"startTime":28.965496,"endTime":29.09480625,"isDrum":true},{"pitch":42,"velocity":105,"startTime":29.2241165,"endTime":29.35342675,"isDrum":true},{"pitch":38,"velocity":105,"startTime":29.482737,"endTime":29.612047250000003,"isDrum":true},{"pitch":39,"velocity":105,"startTime":29.482737,"endTime":29.612047250000003,"isDrum":true},{"pitch":40,"velocity":105,"startTime":29.482737,"endTime":29.612047250000003,"isDrum":true},{"pitch":42,"velocity":105,"startTime":29.482737,"endTime":29.612047250000003,"isDrum":true},{"pitch":42,"velocity":105,"startTime":29.741357500000003,"endTime":29.870667750000003,"isDrum":true},{"pitch":35,"velocity":105,"startTime":29.999978000000002,"endTime":30.129288250000002,"isDrum":true},{"pitch":42,"velocity":105,"startTime":29.999978000000002,"endTime":30.129288250000002,"isDrum":true},{"pitch":42,"velocity":105,"startTime":30.2585985,"endTime":30.38790875,"isDrum":true},{"pitch":38,"velocity":105,"startTime":30.517219,"endTime":30.64652925,"isDrum":true},{"pitch":39,"velocity":105,"startTime":30.517219,"endTime":30.64652925,"isDrum":true},{"pitch":40,"velocity":105,"startTime":30.517219,"endTime":30.64652925,"isDrum":true},{"pitch":42,"velocity":105,"startTime":30.517219,"endTime":30.64652925,"isDrum":true},{"pitch":42,"velocity":105,"startTime":30.7758395,"endTime":30.905149750000003,"isDrum":true},{"pitch":60,"velocity":123,"startTime":16.8103325,"endTime":17.068953,"instrument":1,"program":4},{"pitch":64,"velocity":123,"startTime":16.8103325,"endTime":17.068953,"instrument":1,"program":4},{"pitch":66,"velocity":123,"startTime":16.8103325,"endTime":17.068953,"instrument":1,"program":4},{"pitch":69,"velocity":123,"startTime":16.8103325,"endTime":17.068953,"instrument":1,"program":4},{"pitch":60,"velocity":123,"startTime":17.3275735,"endTime":17.844814500000002,"instrument":1,"program":4},{"pitch":64,"velocity":123,"startTime":17.3275735,"endTime":17.844814500000002,"instrument":1,"program":4},{"pitch":66,"velocity":123,"startTime":17.3275735,"endTime":17.844814500000002,"instrument":1,"program":4},{"pitch":69,"velocity":123,"startTime":17.3275735,"endTime":17.844814500000002,"instrument":1,"program":4},{"pitch":61,"velocity":123,"startTime":19.3965375,"endTime":20.68964,"instrument":1,"program":4},{"pitch":64,"velocity":123,"startTime":19.3965375,"endTime":20.68964,"instrument":1,"program":4},{"pitch":68,"velocity":123,"startTime":19.3965375,"endTime":20.68964,"instrument":1,"program":4},{"pitch":69,"velocity":123,"startTime":19.3965375,"endTime":20.68964,"instrument":1,"program":4},{"pitch":60,"velocity":123,"startTime":20.9482605,"endTime":21.206881000000003,"instrument":1,"program":4},{"pitch":64,"velocity":123,"startTime":20.9482605,"endTime":21.206881000000003,"instrument":1,"program":4},{"pitch":66,"velocity":123,"startTime":20.9482605,"endTime":21.206881000000003,"instrument":1,"program":4},{"pitch":69,"velocity":123,"startTime":20.9482605,"endTime":21.206881000000003,"instrument":1,"program":4},{"pitch":60,"velocity":123,"startTime":21.465501500000002,"endTime":22.241363,"instrument":1,"program":4},{"pitch":62,"velocity":123,"startTime":21.465501500000002,"endTime":22.241363,"instrument":1,"program":4},{"pitch":66,"velocity":123,"startTime":21.465501500000002,"endTime":22.241363,"instrument":1,"program":4},{"pitch":69,"velocity":123,"startTime":21.465501500000002,"endTime":22.241363,"instrument":1,"program":4},{"pitch":62,"velocity":123,"startTime":22.499983500000003,"endTime":22.758604000000002,"instrument":1,"program":4},{"pitch":66,"velocity":123,"startTime":22.499983500000003,"endTime":22.758604000000002,"instrument":1,"program":4},{"pitch":69,"velocity":123,"startTime":22.499983500000003,"endTime":22.758604000000002,"instrument":1,"program":4},{"pitch":71,"velocity":123,"startTime":22.499983500000003,"endTime":22.758604000000002,"instrument":1,"program":4},{"pitch":62,"velocity":123,"startTime":23.0172245,"endTime":23.5344655,"instrument":1,"program":4},{"pitch":66,"velocity":123,"startTime":23.0172245,"endTime":23.5344655,"instrument":1,"program":4},{"pitch":69,"velocity":123,"startTime":23.0172245,"endTime":23.5344655,"instrument":1,"program":4},{"pitch":71,"velocity":123,"startTime":23.0172245,"endTime":23.5344655,"instrument":1,"program":4},{"pitch":62,"velocity":123,"startTime":23.793086000000002,"endTime":24.0517065,"instrument":1,"program":4},{"pitch":66,"velocity":123,"startTime":23.793086000000002,"endTime":24.0517065,"instrument":1,"program":4},{"pitch":69,"velocity":123,"startTime":23.793086000000002,"endTime":24.0517065,"instrument":1,"program":4},{"pitch":72,"velocity":123,"startTime":23.793086000000002,"endTime":24.0517065,"instrument":1,"program":4},{"pitch":62,"velocity":123,"startTime":24.310327,"endTime":24.5689475,"instrument":1,"program":4},{"pitch":66,"velocity":123,"startTime":24.310327,"endTime":24.5689475,"instrument":1,"program":4},{"pitch":69,"velocity":123,"startTime":24.310327,"endTime":24.5689475,"instrument":1,"program":4},{"pitch":72,"velocity":123,"startTime":24.310327,"endTime":24.5689475,"instrument":1,"program":4},{"pitch":62,"velocity":123,"startTime":24.827568000000003,"endTime":25.086188500000002,"instrument":1,"program":4},{"pitch":64,"velocity":123,"startTime":24.827568000000003,"endTime":25.086188500000002,"instrument":1,"program":4},{"pitch":68,"velocity":123,"startTime":24.827568000000003,"endTime":25.086188500000002,"instrument":1,"program":4},{"pitch":71,"velocity":123,"startTime":24.827568000000003,"endTime":25.086188500000002,"instrument":1,"program":4},{"pitch":62,"velocity":123,"startTime":25.344809,"endTime":25.6034295,"instrument":1,"program":4},{"pitch":64,"velocity":123,"startTime":25.344809,"endTime":25.6034295,"instrument":1,"program":4},{"pitch":68,"velocity":123,"startTime":25.344809,"endTime":25.6034295,"instrument":1,"program":4},{"pitch":71,"velocity":123,"startTime":25.344809,"endTime":25.6034295,"instrument":1,"program":4},{"pitch":61,"velocity":123,"startTime":26.120670500000003,"endTime":26.810325166666665,"instrument":1,"program":4},{"pitch":64,"velocity":123,"startTime":26.120670500000003,"endTime":26.810325166666665,"instrument":1,"program":4},{"pitch":68,"velocity":123,"startTime":26.120670500000003,"endTime":26.810325166666665,"instrument":1,"program":4},{"pitch":71,"velocity":123,"startTime":26.120670500000003,"endTime":26.810325166666665,"instrument":1,"program":4},{"pitch":61,"velocity":123,"startTime":26.896532,"endTime":27.1551525,"instrument":1,"program":4},{"pitch":64,"velocity":123,"startTime":26.896532,"endTime":27.1551525,"instrument":1,"program":4},{"pitch":68,"velocity":123,"startTime":26.896532,"endTime":27.1551525,"instrument":1,"program":4},{"pitch":71,"velocity":123,"startTime":26.896532,"endTime":27.1551525,"instrument":1,"program":4},{"pitch":61,"velocity":123,"startTime":27.413773000000003,"endTime":27.672393500000002,"instrument":1,"program":4},{"pitch":64,"velocity":123,"startTime":27.413773000000003,"endTime":27.672393500000002,"instrument":1,"program":4},{"pitch":68,"velocity":123,"startTime":27.413773000000003,"endTime":27.672393500000002,"instrument":1,"program":4},{"pitch":71,"velocity":123,"startTime":27.413773000000003,"endTime":27.672393500000002,"instrument":1,"program":4},{"pitch":61,"velocity":123,"startTime":27.931014,"endTime":28.1896345,"instrument":1,"program":4},{"pitch":64,"velocity":123,"startTime":27.931014,"endTime":28.1896345,"instrument":1,"program":4},{"pitch":68,"velocity":123,"startTime":27.931014,"endTime":28.1896345,"instrument":1,"program":4},{"pitch":71,"velocity":123,"startTime":27.931014,"endTime":28.1896345,"instrument":1,"program":4},{"pitch":61,"velocity":123,"startTime":28.448255000000003,"endTime":28.706875500000002,"instrument":1,"program":4},{"pitch":64,"velocity":123,"startTime":28.448255000000003,"endTime":28.706875500000002,"instrument":1,"program":4},{"pitch":68,"velocity":123,"startTime":28.448255000000003,"endTime":28.706875500000002,"instrument":1,"program":4},{"pitch":71,"velocity":123,"startTime":28.448255000000003,"endTime":28.706875500000002,"instrument":1,"program":4},{"pitch":60,"velocity":123,"startTime":28.965496,"endTime":29.2241165,"instrument":1,"program":4},{"pitch":64,"velocity":123,"startTime":28.965496,"endTime":29.2241165,"instrument":1,"program":4},{"pitch":67,"velocity":123,"startTime":28.965496,"endTime":29.2241165,"instrument":1,"program":4},{"pitch":69,"velocity":123,"startTime":28.965496,"endTime":29.2241165,"instrument":1,"program":4},{"pitch":60,"velocity":123,"startTime":29.482737,"endTime":29.741357500000003,"instrument":1,"program":4},{"pitch":62,"velocity":123,"startTime":29.482737,"endTime":29.741357500000003,"instrument":1,"program":4},{"pitch":66,"velocity":123,"startTime":29.482737,"endTime":29.741357500000003,"instrument":1,"program":4},{"pitch":69,"velocity":123,"startTime":29.482737,"endTime":29.741357500000003,"instrument":1,"program":4},{"pitch":62,"velocity":123,"startTime":30.2585985,"endTime":30.517219,"instrument":1,"program":4},{"pitch":66,"velocity":123,"startTime":30.2585985,"endTime":30.517219,"instrument":1,"program":4},{"pitch":69,"velocity":123,"startTime":30.2585985,"endTime":30.517219,"instrument":1,"program":4},{"pitch":71,"velocity":123,"startTime":30.2585985,"endTime":30.517219,"instrument":1,"program":4},{"pitch":62,"velocity":123,"startTime":30.517219,"endTime":30.7758395,"instrument":1,"program":4},{"pitch":66,"velocity":123,"startTime":30.517219,"endTime":30.7758395,"instrument":1,"program":4},{"pitch":69,"velocity":123,"startTime":30.517219,"endTime":30.7758395,"instrument":1,"program":4},{"pitch":71,"velocity":123,"startTime":30.517219,"endTime":30.7758395,"instrument":1,"program":4},{"pitch":59,"velocity":123,"startTime":31.034460000000003,"endTime":31.293080500000002,"instrument":1,"program":4},{"pitch":62,"velocity":123,"startTime":31.034460000000003,"endTime":31.293080500000002,"instrument":1,"program":4},{"pitch":66,"velocity":123,"startTime":31.034460000000003,"endTime":31.293080500000002,"instrument":1,"program":4},{"pitch":69,"velocity":123,"startTime":31.034460000000003,"endTime":31.293080500000002,"instrument":1,"program":4},{"pitch":59,"velocity":123,"startTime":31.551701,"endTime":31.8103215,"instrument":1,"program":4},{"pitch":62,"velocity":123,"startTime":31.551701,"endTime":31.8103215,"instrument":1,"program":4},{"pitch":66,"velocity":123,"startTime":31.551701,"endTime":31.8103215,"instrument":1,"program":4},{"pitch":69,"velocity":123,"startTime":31.551701,"endTime":31.8103215,"instrument":1,"program":4},{"pitch":59,"velocity":123,"startTime":32.068942,"endTime":32.3275625,"instrument":1,"program":4},{"pitch":62,"velocity":123,"startTime":32.068942,"endTime":32.3275625,"instrument":1,"program":4},{"pitch":66,"velocity":123,"startTime":32.068942,"endTime":32.3275625,"instrument":1,"program":4},{"pitch":69,"velocity":123,"startTime":32.068942,"endTime":32.3275625,"instrument":1,"program":4},{"pitch":59,"velocity":123,"startTime":32.586183,"endTime":32.844803500000005,"instrument":1,"program":4},{"pitch":62,"velocity":123,"startTime":32.586183,"endTime":32.844803500000005,"instrument":1,"program":4},{"pitch":66,"velocity":123,"startTime":32.586183,"endTime":32.844803500000005,"instrument":1,"program":4},{"pitch":69,"velocity":123,"startTime":32.586183,"endTime":32.844803500000005,"instrument":1,"program":4},{"pitch":52,"velocity":123,"startTime":16.8103325,"endTime":16.85343591666667,"instrument":2,"program":27},{"pitch":56,"velocity":123,"startTime":17.068953,"endTime":17.112056416666668,"instrument":2,"program":27},{"pitch":56,"velocity":123,"startTime":17.19826325,"endTime":17.284470083333332,"instrument":2,"program":27},{"pitch":56,"velocity":123,"startTime":17.3275735,"endTime":17.37067691666667,"instrument":2,"program":27},{"pitch":56,"velocity":123,"startTime":17.586194000000003,"endTime":17.62929741666667,"instrument":2,"program":27},{"pitch":56,"velocity":123,"startTime":17.715504250000002,"endTime":17.801711083333334,"instrument":2,"program":27},{"pitch":56,"velocity":123,"startTime":17.844814500000002,"endTime":17.97412475,"instrument":2,"program":27},{"pitch":56,"velocity":123,"startTime":18.103435,"endTime":18.23274525,"instrument":2,"program":27},{"pitch":56,"velocity":123,"startTime":18.3620555,"endTime":18.448262333333336,"instrument":2,"program":27},{"pitch":56,"velocity":123,"startTime":18.620676,"endTime":18.663779416666667,"instrument":2,"program":27},{"pitch":56,"velocity":123,"startTime":18.749986250000003,"endTime":18.836193083333335,"instrument":2,"program":27},{"pitch":56,"velocity":123,"startTime":18.879296500000002,"endTime":18.922399916666667,"instrument":2,"program":27},{"pitch":56,"velocity":123,"startTime":19.137917,"endTime":19.26722725,"instrument":2,"program":27},{"pitch":56,"velocity":123,"startTime":19.3965375,"endTime":19.482744333333333,"instrument":2,"program":27},{"pitch":59,"velocity":123,"startTime":19.655158,"endTime":19.698261416666668,"instrument":2,"program":27},{"pitch":59,"velocity":123,"startTime":19.78446825,"endTime":19.870675083333335,"instrument":2,"program":27},{"pitch":59,"velocity":123,"startTime":19.9137785,"endTime":20.043088750000003,"instrument":2,"program":27},{"pitch":59,"velocity":123,"startTime":20.172399000000002,"endTime":20.301709250000002,"instrument":2,"program":27},{"pitch":52,"velocity":123,"startTime":20.4310195,"endTime":20.56032975,"instrument":2,"program":27},{"pitch":60,"velocity":123,"startTime":20.68964,"endTime":20.73274341666667,"instrument":2,"program":27},{"pitch":60,"velocity":123,"startTime":20.81895025,"endTime":20.905157083333336,"instrument":2,"program":27},{"pitch":60,"velocity":123,"startTime":20.9482605,"endTime":21.07757075,"instrument":2,"program":27},{"pitch":60,"velocity":123,"startTime":21.206881000000003,"endTime":21.336191250000002,"instrument":2,"program":27},{"pitch":60,"velocity":123,"startTime":21.465501500000002,"endTime":21.59481175,"instrument":2,"program":27},{"pitch":62,"velocity":123,"startTime":21.9827425,"endTime":22.02584591666667,"instrument":2,"program":27},{"pitch":62,"velocity":123,"startTime":22.241363,"endTime":22.284466416666667,"instrument":2,"program":27},{"pitch":62,"velocity":123,"startTime":22.499983500000003,"endTime":22.543086916666667,"instrument":2,"program":27},{"pitch":59,"velocity":123,"startTime":22.758604000000002,"endTime":22.80170741666667,"instrument":2,"program":27},{"pitch":59,"velocity":123,"startTime":22.88791425,"endTime":22.974121083333333,"instrument":2,"program":27},{"pitch":59,"velocity":123,"startTime":23.0172245,"endTime":23.14653475,"instrument":2,"program":27},{"pitch":59,"velocity":123,"startTime":23.275845,"endTime":23.40515525,"instrument":2,"program":27},{"pitch":59,"velocity":123,"startTime":23.40515525,"endTime":23.491362083333335,"instrument":2,"program":27},{"pitch":62,"velocity":123,"startTime":23.5344655,"endTime":23.663775750000003,"instrument":2,"program":27},{"pitch":59,"velocity":123,"startTime":23.663775750000003,"endTime":23.749982583333335,"instrument":2,"program":27},{"pitch":62,"velocity":123,"startTime":23.793086000000002,"endTime":23.836189416666667,"instrument":2,"program":27},{"pitch":62,"velocity":123,"startTime":23.922396250000002,"endTime":24.008603083333334,"instrument":2,"program":27},{"pitch":62,"velocity":123,"startTime":24.0517065,"endTime":24.18101675,"instrument":2,"program":27},{"pitch":62,"velocity":123,"startTime":24.310327,"endTime":24.43963725,"instrument":2,"program":27},{"pitch":64,"velocity":123,"startTime":24.43963725,"endTime":24.525844083333336,"instrument":2,"program":27},{"pitch":59,"velocity":123,"startTime":24.827568000000003,"endTime":24.956878250000003,"instrument":2,"program":27},{"pitch":59,"velocity":123,"startTime":24.956878250000003,"endTime":25.043085083333338,"instrument":2,"program":27},{"pitch":59,"velocity":123,"startTime":25.086188500000002,"endTime":25.215498750000002,"instrument":2,"program":27},{"pitch":59,"velocity":123,"startTime":25.215498750000002,"endTime":25.301705583333337,"instrument":2,"program":27},{"pitch":59,"velocity":123,"startTime":25.344809,"endTime":25.47411925,"instrument":2,"program":27},{"pitch":59,"velocity":123,"startTime":25.47411925,"endTime":25.56032608333334,"instrument":2,"program":27},{"pitch":56,"velocity":123,"startTime":26.379291000000002,"endTime":26.422394416666663,"instrument":2,"program":27},{"pitch":56,"velocity":123,"startTime":26.50860125,"endTime":26.594808083333337,"instrument":2,"program":27},{"pitch":56,"velocity":123,"startTime":26.6379115,"endTime":26.76722175,"instrument":2,"program":27},{"pitch":63,"velocity":123,"startTime":26.896532,"endTime":26.939635416666665,"instrument":2,"program":27},{"pitch":63,"velocity":123,"startTime":27.02584225,"endTime":27.11204908333334,"instrument":2,"program":27},{"pitch":63,"velocity":123,"startTime":27.1551525,"endTime":27.198255916666664,"instrument":2,"program":27},{"pitch":63,"velocity":123,"startTime":27.413773000000003,"endTime":27.543083250000002,"instrument":2,"program":27},{"pitch":63,"velocity":123,"startTime":27.672393500000002,"endTime":27.80170375,"instrument":2,"program":27},{"pitch":54,"velocity":123,"startTime":28.1896345,"endTime":28.232737916666665,"instrument":2,"program":27},{"pitch":54,"velocity":123,"startTime":28.31894475,"endTime":28.448255000000003,"instrument":2,"program":27},{"pitch":57,"velocity":123,"startTime":28.448255000000003,"endTime":28.577565250000003,"instrument":2,"program":27},{"pitch":57,"velocity":123,"startTime":28.706875500000002,"endTime":28.836185750000002,"instrument":2,"program":27},{"pitch":60,"velocity":123,"startTime":29.2241165,"endTime":29.267219916666665,"instrument":2,"program":27},{"pitch":60,"velocity":123,"startTime":29.35342675,"endTime":29.43963358333334,"instrument":2,"program":27},{"pitch":60,"velocity":123,"startTime":29.482737,"endTime":29.525840416666664,"instrument":2,"program":27},{"pitch":60,"velocity":123,"startTime":29.741357500000003,"endTime":29.870667750000003,"instrument":2,"program":27},{"pitch":62,"velocity":123,"startTime":29.999978000000002,"endTime":30.043081416666663,"instrument":2,"program":27},{"pitch":62,"velocity":123,"startTime":30.129288250000002,"endTime":30.215495083333337,"instrument":2,"program":27},{"pitch":62,"velocity":123,"startTime":30.2585985,"endTime":30.38790875,"instrument":2,"program":27},{"pitch":62,"velocity":123,"startTime":30.517219,"endTime":30.64652925,"instrument":2,"program":27},{"pitch":62,"velocity":123,"startTime":30.64652925,"endTime":30.73273608333334,"instrument":2,"program":27},{"pitch":62,"velocity":123,"startTime":30.7758395,"endTime":30.905149750000003,"instrument":2,"program":27},{"pitch":59,"velocity":123,"startTime":31.293080500000002,"endTime":31.336183916666666,"instrument":2,"program":27},{"pitch":59,"velocity":123,"startTime":31.42239075,"endTime":31.50859758333334,"instrument":2,"program":27},{"pitch":59,"velocity":123,"startTime":31.551701,"endTime":31.594804416666666,"instrument":2,"program":27},{"pitch":59,"velocity":123,"startTime":31.68101125,"endTime":31.76721808333334,"instrument":2,"program":27},{"pitch":59,"velocity":123,"startTime":31.8103215,"endTime":31.89652833333334,"instrument":2,"program":27},{"pitch":59,"velocity":123,"startTime":32.068942,"endTime":32.11204541666667,"instrument":2,"program":27},{"pitch":59,"velocity":123,"startTime":32.19825225,"endTime":32.28445908333334,"instrument":2,"program":27},{"pitch":59,"velocity":123,"startTime":32.3275625,"endTime":32.45687275,"instrument":2,"program":27},{"pitch":59,"velocity":123,"startTime":32.586183,"endTime":32.71549325,"instrument":2,"program":27},{"pitch":59,"velocity":123,"startTime":32.71549325,"endTime":32.80170008333334,"instrument":2,"program":27},{"pitch":38,"velocity":117,"startTime":16.93964275,"endTime":17.025849583333333,"instrument":4,"program":35},{"pitch":40,"velocity":117,"startTime":17.068953,"endTime":17.19826325,"instrument":4,"program":35},{"pitch":38,"velocity":117,"startTime":17.19826325,"endTime":17.284470083333332,"instrument":4,"program":35},{"pitch":32,"velocity":117,"startTime":17.3275735,"endTime":17.586194000000003,"instrument":4,"program":35},{"pitch":32,"velocity":117,"startTime":17.586194000000003,"endTime":18.01722816666667,"instrument":4,"program":35},{"pitch":32,"velocity":117,"startTime":18.103435,"endTime":18.534469166666668,"instrument":4,"program":35},{"pitch":33,"velocity":117,"startTime":19.655158,"endTime":19.78446825,"instrument":4,"program":35},{"pitch":33,"velocity":117,"startTime":19.9137785,"endTime":20.172399000000002,"instrument":4,"program":35},{"pitch":33,"velocity":117,"startTime":20.172399000000002,"endTime":20.4310195,"instrument":4,"program":35},{"pitch":28,"velocity":117,"startTime":20.4310195,"endTime":20.68964,"instrument":4,"program":35},{"pitch":36,"velocity":117,"startTime":21.07757075,"endTime":21.163777583333335,"instrument":4,"program":35},{"pitch":40,"velocity":117,"startTime":21.206881000000003,"endTime":21.336191250000002,"instrument":4,"program":35},{"pitch":36,"velocity":117,"startTime":21.336191250000002,"endTime":21.465501500000002,"instrument":4,"program":35},{"pitch":38,"velocity":117,"startTime":21.465501500000002,"endTime":21.59481175,"instrument":4,"program":35},{"pitch":28,"velocity":117,"startTime":24.827568000000003,"endTime":25.344809,"instrument":4,"program":35},{"pitch":33,"velocity":117,"startTime":28.448255000000003,"endTime":28.965496,"instrument":4,"program":35},{"pitch":38,"velocity":117,"startTime":32.068942,"endTime":32.49997616666666,"instrument":4,"program":35},{"pitch":36,"velocity":105,"startTime":33.103424000000004,"endTime":33.18963083333334,"isDrum":true},{"pitch":42,"velocity":105,"startTime":33.103424000000004,"endTime":33.18963083333334,"isDrum":true},{"pitch":42,"velocity":105,"startTime":33.3620445,"endTime":33.44825133333334,"isDrum":true},{"pitch":36,"velocity":105,"startTime":33.620665,"endTime":33.70687183333334,"isDrum":true},{"pitch":38,"velocity":105,"startTime":33.620665,"endTime":33.70687183333334,"isDrum":true},{"pitch":39,"velocity":105,"startTime":33.620665,"endTime":33.70687183333334,"isDrum":true},{"pitch":42,"velocity":105,"startTime":33.620665,"endTime":33.70687183333334,"isDrum":true},{"pitch":69,"velocity":105,"startTime":33.620665,"endTime":33.70687183333334,"isDrum":true},{"pitch":42,"velocity":105,"startTime":33.8792855,"endTime":33.96549233333334,"isDrum":true},{"pitch":36,"velocity":105,"startTime":34.137906,"endTime":34.224112833333336,"isDrum":true},{"pitch":42,"velocity":105,"startTime":34.137906,"endTime":34.224112833333336,"isDrum":true},{"pitch":42,"velocity":105,"startTime":34.3965265,"endTime":34.48273333333334,"isDrum":true},{"pitch":36,"velocity":105,"startTime":34.655147,"endTime":34.74135383333334,"isDrum":true},{"pitch":38,"velocity":105,"startTime":34.655147,"endTime":34.74135383333334,"isDrum":true},{"pitch":39,"velocity":105,"startTime":34.655147,"endTime":34.74135383333334,"isDrum":true},{"pitch":42,"velocity":105,"startTime":34.655147,"endTime":34.74135383333334,"isDrum":true},{"pitch":69,"velocity":105,"startTime":34.655147,"endTime":34.74135383333334,"isDrum":true},{"pitch":42,"velocity":105,"startTime":34.9137675,"endTime":34.99997433333334,"isDrum":true},{"pitch":36,"velocity":105,"startTime":35.172388000000005,"endTime":35.25859483333334,"isDrum":true},{"pitch":42,"velocity":105,"startTime":35.172388000000005,"endTime":35.25859483333334,"isDrum":true},{"pitch":42,"velocity":105,"startTime":35.431008500000004,"endTime":35.51721533333333,"isDrum":true},{"pitch":36,"velocity":105,"startTime":35.689629000000004,"endTime":35.77583583333333,"isDrum":true},{"pitch":38,"velocity":105,"startTime":35.689629000000004,"endTime":35.77583583333333,"isDrum":true},{"pitch":39,"velocity":105,"startTime":35.689629000000004,"endTime":35.77583583333333,"isDrum":true},{"pitch":42,"velocity":105,"startTime":35.689629000000004,"endTime":35.77583583333333,"isDrum":true},{"pitch":69,"velocity":105,"startTime":35.689629000000004,"endTime":35.77583583333333,"isDrum":true},{"pitch":42,"velocity":105,"startTime":35.9482495,"endTime":36.03445633333334,"isDrum":true},{"pitch":36,"velocity":105,"startTime":36.20687,"endTime":36.29307683333334,"isDrum":true},{"pitch":42,"velocity":105,"startTime":36.20687,"endTime":36.29307683333334,"isDrum":true},{"pitch":42,"velocity":105,"startTime":36.4654905,"endTime":36.55169733333334,"isDrum":true},{"pitch":36,"velocity":105,"startTime":36.724111,"endTime":36.810317833333336,"isDrum":true},{"pitch":38,"velocity":105,"startTime":36.724111,"endTime":36.810317833333336,"isDrum":true},{"pitch":39,"velocity":105,"startTime":36.724111,"endTime":36.810317833333336,"isDrum":true},{"pitch":42,"velocity":105,"startTime":36.724111,"endTime":36.810317833333336,"isDrum":true},{"pitch":69,"velocity":105,"startTime":36.724111,"endTime":36.810317833333336,"isDrum":true},{"pitch":42,"velocity":105,"startTime":36.9827315,"endTime":37.068938333333335,"isDrum":true},{"pitch":36,"velocity":105,"startTime":37.241352,"endTime":37.327558833333335,"isDrum":true},{"pitch":42,"velocity":105,"startTime":37.241352,"endTime":37.327558833333335,"isDrum":true},{"pitch":42,"velocity":105,"startTime":37.499972500000005,"endTime":37.586179333333334,"isDrum":true},{"pitch":36,"velocity":105,"startTime":37.758593000000005,"endTime":37.84479983333333,"isDrum":true},{"pitch":38,"velocity":105,"startTime":37.758593000000005,"endTime":37.84479983333333,"isDrum":true},{"pitch":39,"velocity":105,"startTime":37.758593000000005,"endTime":37.84479983333333,"isDrum":true},{"pitch":42,"velocity":105,"startTime":37.758593000000005,"endTime":37.84479983333333,"isDrum":true},{"pitch":69,"velocity":105,"startTime":37.758593000000005,"endTime":37.84479983333333,"isDrum":true},{"pitch":42,"velocity":105,"startTime":38.017213500000004,"endTime":38.10342033333333,"isDrum":true},{"pitch":36,"velocity":105,"startTime":38.275834,"endTime":38.36204083333334,"isDrum":true},{"pitch":42,"velocity":105,"startTime":38.275834,"endTime":38.36204083333334,"isDrum":true},{"pitch":42,"velocity":105,"startTime":38.5344545,"endTime":38.62066133333334,"isDrum":true},{"pitch":36,"velocity":105,"startTime":38.793075,"endTime":38.87928183333334,"isDrum":true},{"pitch":38,"velocity":105,"startTime":38.793075,"endTime":38.87928183333334,"isDrum":true},{"pitch":39,"velocity":105,"startTime":38.793075,"endTime":38.87928183333334,"isDrum":true},{"pitch":42,"velocity":105,"startTime":38.793075,"endTime":38.87928183333334,"isDrum":true},{"pitch":69,"velocity":105,"startTime":38.793075,"endTime":38.87928183333334,"isDrum":true},{"pitch":42,"velocity":105,"startTime":39.0516955,"endTime":39.13790233333334,"isDrum":true},{"pitch":36,"velocity":105,"startTime":39.310316,"endTime":39.396522833333336,"isDrum":true},{"pitch":42,"velocity":105,"startTime":39.310316,"endTime":39.396522833333336,"isDrum":true},{"pitch":42,"velocity":105,"startTime":39.5689365,"endTime":39.655143333333335,"isDrum":true},{"pitch":36,"velocity":105,"startTime":39.827557,"endTime":39.913763833333334,"isDrum":true},{"pitch":38,"velocity":105,"startTime":39.827557,"endTime":39.913763833333334,"isDrum":true},{"pitch":39,"velocity":105,"startTime":39.827557,"endTime":39.913763833333334,"isDrum":true},{"pitch":42,"velocity":105,"startTime":39.827557,"endTime":39.913763833333334,"isDrum":true},{"pitch":69,"velocity":105,"startTime":39.827557,"endTime":39.913763833333334,"isDrum":true},{"pitch":42,"velocity":105,"startTime":40.086177500000005,"endTime":40.17238433333333,"isDrum":true},{"pitch":36,"velocity":105,"startTime":40.344798000000004,"endTime":40.43100483333333,"isDrum":true},{"pitch":42,"velocity":105,"startTime":40.344798000000004,"endTime":40.43100483333333,"isDrum":true},{"pitch":42,"velocity":105,"startTime":40.603418500000004,"endTime":40.68962533333334,"isDrum":true},{"pitch":36,"velocity":105,"startTime":40.862039,"endTime":40.94824583333334,"isDrum":true},{"pitch":38,"velocity":105,"startTime":40.862039,"endTime":40.94824583333334,"isDrum":true},{"pitch":39,"velocity":105,"startTime":40.862039,"endTime":40.94824583333334,"isDrum":true},{"pitch":42,"velocity":105,"startTime":40.862039,"endTime":40.94824583333334,"isDrum":true},{"pitch":69,"velocity":105,"startTime":40.862039,"endTime":40.94824583333334,"isDrum":true},{"pitch":42,"velocity":105,"startTime":41.1206595,"endTime":41.20686633333334,"isDrum":true},{"pitch":36,"velocity":105,"startTime":41.37928,"endTime":41.46548683333334,"isDrum":true},{"pitch":42,"velocity":105,"startTime":41.37928,"endTime":41.46548683333334,"isDrum":true},{"pitch":42,"velocity":105,"startTime":41.6379005,"endTime":41.724107333333336,"isDrum":true},{"pitch":36,"velocity":105,"startTime":41.896521,"endTime":41.982727833333335,"isDrum":true},{"pitch":38,"velocity":105,"startTime":41.896521,"endTime":41.982727833333335,"isDrum":true},{"pitch":39,"velocity":105,"startTime":41.896521,"endTime":41.982727833333335,"isDrum":true},{"pitch":42,"velocity":105,"startTime":41.896521,"endTime":41.982727833333335,"isDrum":true},{"pitch":69,"velocity":105,"startTime":41.896521,"endTime":41.982727833333335,"isDrum":true},{"pitch":42,"velocity":105,"startTime":42.1551415,"endTime":42.241348333333335,"isDrum":true},{"pitch":36,"velocity":105,"startTime":42.413762000000006,"endTime":42.499968833333334,"isDrum":true},{"pitch":42,"velocity":105,"startTime":42.413762000000006,"endTime":42.499968833333334,"isDrum":true},{"pitch":42,"velocity":105,"startTime":42.672382500000005,"endTime":42.75858933333333,"isDrum":true},{"pitch":36,"velocity":105,"startTime":42.931003000000004,"endTime":43.01720983333333,"isDrum":true},{"pitch":38,"velocity":105,"startTime":42.931003000000004,"endTime":43.01720983333333,"isDrum":true},{"pitch":39,"velocity":105,"startTime":42.931003000000004,"endTime":43.01720983333333,"isDrum":true},{"pitch":42,"velocity":105,"startTime":42.931003000000004,"endTime":43.01720983333333,"isDrum":true},{"pitch":69,"velocity":105,"startTime":42.931003000000004,"endTime":43.01720983333333,"isDrum":true},{"pitch":42,"velocity":105,"startTime":43.1896235,"endTime":43.27583033333334,"isDrum":true},{"pitch":36,"velocity":105,"startTime":43.448244,"endTime":43.53445083333334,"isDrum":true},{"pitch":42,"velocity":105,"startTime":43.448244,"endTime":43.53445083333334,"isDrum":true},{"pitch":42,"velocity":105,"startTime":43.7068645,"endTime":43.79307133333334,"isDrum":true},{"pitch":36,"velocity":105,"startTime":43.965485,"endTime":44.05169183333334,"isDrum":true},{"pitch":38,"velocity":105,"startTime":43.965485,"endTime":44.05169183333334,"isDrum":true},{"pitch":39,"velocity":105,"startTime":43.965485,"endTime":44.05169183333334,"isDrum":true},{"pitch":42,"velocity":105,"startTime":43.965485,"endTime":44.05169183333334,"isDrum":true},{"pitch":69,"velocity":105,"startTime":43.965485,"endTime":44.05169183333334,"isDrum":true},{"pitch":42,"velocity":105,"startTime":44.2241055,"endTime":44.310312333333336,"isDrum":true},{"pitch":36,"velocity":105,"startTime":44.482726,"endTime":44.568932833333335,"isDrum":true},{"pitch":42,"velocity":105,"startTime":44.482726,"endTime":44.568932833333335,"isDrum":true},{"pitch":42,"velocity":105,"startTime":44.741346500000006,"endTime":44.827553333333334,"isDrum":true},{"pitch":36,"velocity":105,"startTime":44.999967000000005,"endTime":45.08617383333333,"isDrum":true},{"pitch":38,"velocity":105,"startTime":44.999967000000005,"endTime":45.08617383333333,"isDrum":true},{"pitch":39,"velocity":105,"startTime":44.999967000000005,"endTime":45.08617383333333,"isDrum":true},{"pitch":42,"velocity":105,"startTime":44.999967000000005,"endTime":45.08617383333333,"isDrum":true},{"pitch":69,"velocity":105,"startTime":44.999967000000005,"endTime":45.08617383333333,"isDrum":true},{"pitch":42,"velocity":105,"startTime":45.258587500000004,"endTime":45.34479433333333,"isDrum":true},{"pitch":36,"velocity":105,"startTime":45.517208000000004,"endTime":45.60341483333334,"isDrum":true},{"pitch":42,"velocity":105,"startTime":45.517208000000004,"endTime":45.60341483333334,"isDrum":true},{"pitch":42,"velocity":105,"startTime":45.7758285,"endTime":45.86203533333334,"isDrum":true},{"pitch":36,"velocity":105,"startTime":46.034449,"endTime":46.12065583333334,"isDrum":true},{"pitch":38,"velocity":105,"startTime":46.034449,"endTime":46.12065583333334,"isDrum":true},{"pitch":39,"velocity":105,"startTime":46.034449,"endTime":46.12065583333334,"isDrum":true},{"pitch":42,"velocity":105,"startTime":46.034449,"endTime":46.12065583333334,"isDrum":true},{"pitch":69,"velocity":105,"startTime":46.034449,"endTime":46.12065583333334,"isDrum":true},{"pitch":42,"velocity":105,"startTime":46.2930695,"endTime":46.37927633333334,"isDrum":true},{"pitch":60,"velocity":123,"startTime":33.103424000000004,"endTime":33.3620445,"instrument":1,"program":4},{"pitch":64,"velocity":123,"startTime":33.103424000000004,"endTime":33.3620445,"instrument":1,"program":4},{"pitch":66,"velocity":123,"startTime":33.103424000000004,"endTime":33.3620445,"instrument":1,"program":4},{"pitch":69,"velocity":123,"startTime":33.103424000000004,"endTime":33.3620445,"instrument":1,"program":4},{"pitch":60,"velocity":123,"startTime":33.620665,"endTime":33.8792855,"instrument":1,"program":4},{"pitch":64,"velocity":123,"startTime":33.620665,"endTime":33.8792855,"instrument":1,"program":4},{"pitch":66,"velocity":123,"startTime":33.620665,"endTime":33.8792855,"instrument":1,"program":4},{"pitch":69,"velocity":123,"startTime":33.620665,"endTime":33.8792855,"instrument":1,"program":4},{"pitch":60,"velocity":123,"startTime":34.137906,"endTime":34.3965265,"instrument":1,"program":4},{"pitch":63,"velocity":123,"startTime":34.137906,"endTime":34.3965265,"instrument":1,"program":4},{"pitch":66,"velocity":123,"startTime":34.137906,"endTime":34.3965265,"instrument":1,"program":4},{"pitch":68,"velocity":123,"startTime":34.137906,"endTime":34.3965265,"instrument":1,"program":4},{"pitch":60,"velocity":123,"startTime":34.655147,"endTime":34.9137675,"instrument":1,"program":4},{"pitch":63,"velocity":123,"startTime":34.655147,"endTime":34.9137675,"instrument":1,"program":4},{"pitch":66,"velocity":123,"startTime":34.655147,"endTime":34.9137675,"instrument":1,"program":4},{"pitch":68,"velocity":123,"startTime":34.655147,"endTime":34.9137675,"instrument":1,"program":4},{"pitch":61,"velocity":123,"startTime":35.431008500000004,"endTime":35.56031875,"instrument":1,"program":4},{"pitch":66,"velocity":123,"startTime":35.431008500000004,"endTime":35.56031875,"instrument":1,"program":4},{"pitch":68,"velocity":123,"startTime":35.431008500000004,"endTime":35.56031875,"instrument":1,"program":4},{"pitch":70,"velocity":123,"startTime":35.431008500000004,"endTime":35.56031875,"instrument":1,"program":4},{"pitch":61,"velocity":123,"startTime":35.689629000000004,"endTime":35.9482495,"instrument":1,"program":4},{"pitch":66,"velocity":123,"startTime":35.689629000000004,"endTime":35.9482495,"instrument":1,"program":4},{"pitch":68,"velocity":123,"startTime":35.689629000000004,"endTime":35.9482495,"instrument":1,"program":4},{"pitch":70,"velocity":123,"startTime":35.689629000000004,"endTime":35.9482495,"instrument":1,"program":4},{"pitch":61,"velocity":123,"startTime":36.20687,"endTime":36.50859391666667,"instrument":1,"program":4},{"pitch":64,"velocity":123,"startTime":36.20687,"endTime":36.50859391666667,"instrument":1,"program":4},{"pitch":66,"velocity":123,"startTime":36.20687,"endTime":36.50859391666667,"instrument":1,"program":4},{"pitch":69,"velocity":123,"startTime":36.20687,"endTime":36.50859391666667,"instrument":1,"program":4},{"pitch":61,"velocity":123,"startTime":36.724111,"endTime":36.9827315,"instrument":1,"program":4},{"pitch":64,"velocity":123,"startTime":36.724111,"endTime":36.9827315,"instrument":1,"program":4},{"pitch":66,"velocity":123,"startTime":36.724111,"endTime":36.9827315,"instrument":1,"program":4},{"pitch":69,"velocity":123,"startTime":36.724111,"endTime":36.9827315,"instrument":1,"program":4},{"pitch":60,"velocity":123,"startTime":37.241352,"endTime":37.499972500000005,"instrument":1,"program":4},{"pitch":64,"velocity":123,"startTime":37.241352,"endTime":37.499972500000005,"instrument":1,"program":4},{"pitch":67,"velocity":123,"startTime":37.241352,"endTime":37.499972500000005,"instrument":1,"program":4},{"pitch":69,"velocity":123,"startTime":37.241352,"endTime":37.499972500000005,"instrument":1,"program":4},{"pitch":60,"velocity":123,"startTime":37.758593000000005,"endTime":38.017213500000004,"instrument":1,"program":4},{"pitch":64,"velocity":123,"startTime":37.758593000000005,"endTime":38.017213500000004,"instrument":1,"program":4},{"pitch":67,"velocity":123,"startTime":37.758593000000005,"endTime":38.017213500000004,"instrument":1,"program":4},{"pitch":69,"velocity":123,"startTime":37.758593000000005,"endTime":38.017213500000004,"instrument":1,"program":4},{"pitch":62,"velocity":123,"startTime":38.275834,"endTime":38.5344545,"instrument":1,"program":4},{"pitch":64,"velocity":123,"startTime":38.275834,"endTime":38.5344545,"instrument":1,"program":4},{"pitch":69,"velocity":123,"startTime":38.275834,"endTime":38.5344545,"instrument":1,"program":4},{"pitch":62,"velocity":123,"startTime":39.0516955,"endTime":39.5689365,"instrument":1,"program":4},{"pitch":66,"velocity":123,"startTime":39.0516955,"endTime":39.5689365,"instrument":1,"program":4},{"pitch":69,"velocity":123,"startTime":39.0516955,"endTime":39.5689365,"instrument":1,"program":4},{"pitch":62,"velocity":123,"startTime":39.827557,"endTime":40.086177500000005,"instrument":1,"program":4},{"pitch":66,"velocity":123,"startTime":39.827557,"endTime":40.086177500000005,"instrument":1,"program":4},{"pitch":69,"velocity":123,"startTime":39.827557,"endTime":40.086177500000005,"instrument":1,"program":4},{"pitch":62,"velocity":123,"startTime":40.344798000000004,"endTime":40.603418500000004,"instrument":1,"program":4},{"pitch":66,"velocity":123,"startTime":40.344798000000004,"endTime":40.603418500000004,"instrument":1,"program":4},{"pitch":69,"velocity":123,"startTime":40.344798000000004,"endTime":40.603418500000004,"instrument":1,"program":4},{"pitch":62,"velocity":123,"startTime":40.862039,"endTime":41.1206595,"instrument":1,"program":4},{"pitch":66,"velocity":123,"startTime":40.862039,"endTime":41.1206595,"instrument":1,"program":4},{"pitch":69,"velocity":123,"startTime":40.862039,"endTime":41.1206595,"instrument":1,"program":4},{"pitch":62,"velocity":123,"startTime":41.37928,"endTime":41.6379005,"instrument":1,"program":4},{"pitch":64,"velocity":123,"startTime":41.37928,"endTime":41.6379005,"instrument":1,"program":4},{"pitch":67,"velocity":123,"startTime":41.37928,"endTime":41.6379005,"instrument":1,"program":4},{"pitch":62,"velocity":123,"startTime":41.896521,"endTime":42.11203808333334,"instrument":1,"program":4},{"pitch":64,"velocity":123,"startTime":41.896521,"endTime":42.11203808333334,"instrument":1,"program":4},{"pitch":67,"velocity":123,"startTime":41.896521,"endTime":42.11203808333334,"instrument":1,"program":4},{"pitch":63,"velocity":123,"startTime":42.1551415,"endTime":42.672382500000005,"instrument":1,"program":4},{"pitch":66,"velocity":123,"startTime":42.1551415,"endTime":42.672382500000005,"instrument":1,"program":4},{"pitch":68,"velocity":123,"startTime":42.1551415,"endTime":42.672382500000005,"instrument":1,"program":4},{"pitch":72,"velocity":123,"startTime":42.1551415,"endTime":42.672382500000005,"instrument":1,"program":4},{"pitch":66,"velocity":123,"startTime":42.931003000000004,"endTime":43.1896235,"instrument":1,"program":4},{"pitch":68,"velocity":123,"startTime":42.931003000000004,"endTime":43.1896235,"instrument":1,"program":4},{"pitch":72,"velocity":123,"startTime":42.931003000000004,"endTime":43.1896235,"instrument":1,"program":4},{"pitch":59,"velocity":123,"startTime":43.448244,"endTime":43.7068645,"instrument":1,"program":4},{"pitch":64,"velocity":123,"startTime":43.448244,"endTime":43.7068645,"instrument":1,"program":4},{"pitch":68,"velocity":123,"startTime":43.448244,"endTime":43.7068645,"instrument":1,"program":4},{"pitch":59,"velocity":123,"startTime":43.965485,"endTime":44.2241055,"instrument":1,"program":4},{"pitch":64,"velocity":123,"startTime":43.965485,"endTime":44.2241055,"instrument":1,"program":4},{"pitch":68,"velocity":123,"startTime":43.965485,"endTime":44.2241055,"instrument":1,"program":4},{"pitch":60,"velocity":123,"startTime":44.482726,"endTime":44.741346500000006,"instrument":1,"program":4},{"pitch":64,"velocity":123,"startTime":44.482726,"endTime":44.741346500000006,"instrument":1,"program":4},{"pitch":69,"velocity":123,"startTime":44.482726,"endTime":44.741346500000006,"instrument":1,"program":4},{"pitch":60,"velocity":123,"startTime":44.999967000000005,"endTime":45.21548408333334,"instrument":1,"program":4},{"pitch":64,"velocity":123,"startTime":44.999967000000005,"endTime":45.21548408333334,"instrument":1,"program":4},{"pitch":69,"velocity":123,"startTime":44.999967000000005,"endTime":45.21548408333334,"instrument":1,"program":4},{"pitch":60,"velocity":123,"startTime":45.258587500000004,"endTime":45.7758285,"instrument":1,"program":4},{"pitch":64,"velocity":123,"startTime":45.258587500000004,"endTime":45.7758285,"instrument":1,"program":4},{"pitch":67,"velocity":123,"startTime":45.258587500000004,"endTime":45.7758285,"instrument":1,"program":4},{"pitch":60,"velocity":123,"startTime":46.034449,"endTime":46.2930695,"instrument":1,"program":4},{"pitch":64,"velocity":123,"startTime":46.034449,"endTime":46.2930695,"instrument":1,"program":4},{"pitch":67,"velocity":123,"startTime":46.034449,"endTime":46.2930695,"instrument":1,"program":4},{"pitch":60,"velocity":123,"startTime":46.55169,"endTime":46.8103105,"instrument":1,"program":4},{"pitch":64,"velocity":123,"startTime":46.55169,"endTime":46.8103105,"instrument":1,"program":4},{"pitch":67,"velocity":123,"startTime":46.55169,"endTime":46.8103105,"instrument":1,"program":4},{"pitch":60,"velocity":123,"startTime":47.068931,"endTime":47.327551500000006,"instrument":1,"program":4},{"pitch":64,"velocity":123,"startTime":47.068931,"endTime":47.327551500000006,"instrument":1,"program":4},{"pitch":67,"velocity":123,"startTime":47.068931,"endTime":47.327551500000006,"instrument":1,"program":4},{"pitch":62,"velocity":123,"startTime":47.586172000000005,"endTime":47.844792500000004,"instrument":1,"program":4},{"pitch":66,"velocity":123,"startTime":47.586172000000005,"endTime":47.844792500000004,"instrument":1,"program":4},{"pitch":69,"velocity":123,"startTime":47.586172000000005,"endTime":47.844792500000004,"instrument":1,"program":4},{"pitch":62,"velocity":123,"startTime":48.103413,"endTime":48.318930083333335,"instrument":1,"program":4},{"pitch":66,"velocity":123,"startTime":48.103413,"endTime":48.318930083333335,"instrument":1,"program":4},{"pitch":69,"velocity":123,"startTime":48.103413,"endTime":48.318930083333335,"instrument":1,"program":4},{"pitch":62,"velocity":123,"startTime":48.8792745,"endTime":49.008584750000004,"instrument":1,"program":4},{"pitch":64,"velocity":123,"startTime":48.8792745,"endTime":49.008584750000004,"instrument":1,"program":4},{"pitch":69,"velocity":123,"startTime":48.8792745,"endTime":49.008584750000004,"instrument":1,"program":4},{"pitch":62,"velocity":123,"startTime":49.137895,"endTime":49.3965155,"instrument":1,"program":4},{"pitch":64,"velocity":123,"startTime":49.137895,"endTime":49.3965155,"instrument":1,"program":4},{"pitch":69,"velocity":123,"startTime":49.137895,"endTime":49.3965155,"instrument":1,"program":4},{"pitch":56,"velocity":123,"startTime":33.3620445,"endTime":33.405147916666664,"instrument":2,"program":27},{"pitch":56,"velocity":123,"startTime":33.49135475,"endTime":33.57756158333334,"instrument":2,"program":27},{"pitch":61,"velocity":123,"startTime":33.620665,"endTime":33.74997525,"instrument":2,"program":27},{"pitch":56,"velocity":123,"startTime":33.8792855,"endTime":34.008595750000005,"instrument":2,"program":27},{"pitch":56,"velocity":123,"startTime":34.137906,"endTime":34.18100941666666,"instrument":2,"program":27},{"pitch":56,"velocity":123,"startTime":34.3965265,"endTime":34.52583675,"instrument":2,"program":27},{"pitch":56,"velocity":123,"startTime":34.52583675,"endTime":34.61204358333334,"instrument":2,"program":27},{"pitch":56,"velocity":123,"startTime":34.655147,"endTime":34.78445725,"instrument":2,"program":27},{"pitch":56,"velocity":123,"startTime":34.9137675,"endTime":34.99997433333334,"instrument":2,"program":27},{"pitch":55,"velocity":123,"startTime":35.172388000000005,"endTime":35.215491416666666,"instrument":2,"program":27},{"pitch":55,"velocity":123,"startTime":35.30169825,"endTime":35.431008500000004,"instrument":2,"program":27},{"pitch":54,"velocity":123,"startTime":35.431008500000004,"endTime":35.56031875,"instrument":2,"program":27},{"pitch":54,"velocity":123,"startTime":35.689629000000004,"endTime":35.81893925,"instrument":2,"program":27},{"pitch":54,"velocity":123,"startTime":35.9482495,"endTime":36.03445633333334,"instrument":2,"program":27},{"pitch":54,"velocity":123,"startTime":36.20687,"endTime":36.24997341666667,"instrument":2,"program":27},{"pitch":54,"velocity":123,"startTime":36.336180250000005,"endTime":36.422387083333334,"instrument":2,"program":27},{"pitch":54,"velocity":123,"startTime":36.4654905,"endTime":36.594800750000005,"instrument":2,"program":27},{"pitch":54,"velocity":123,"startTime":36.724111,"endTime":36.853421250000004,"instrument":2,"program":27},{"pitch":54,"velocity":123,"startTime":36.9827315,"endTime":37.11204175,"instrument":2,"program":27},{"pitch":57,"velocity":123,"startTime":37.241352,"endTime":37.28445541666667,"instrument":2,"program":27},{"pitch":57,"velocity":123,"startTime":37.37066225,"endTime":37.45686908333334,"instrument":2,"program":27},{"pitch":54,"velocity":123,"startTime":37.499972500000005,"endTime":37.62928275,"instrument":2,"program":27},{"pitch":55,"velocity":123,"startTime":37.758593000000005,"endTime":37.88790325,"instrument":2,"program":27},{"pitch":54,"velocity":123,"startTime":38.017213500000004,"endTime":38.06031691666667,"instrument":2,"program":27},{"pitch":54,"velocity":123,"startTime":38.14652375,"endTime":38.18962716666667,"instrument":2,"program":27},{"pitch":62,"velocity":123,"startTime":38.275834,"endTime":38.31893741666667,"instrument":2,"program":27},{"pitch":62,"velocity":123,"startTime":38.5344545,"endTime":38.57755791666667,"instrument":2,"program":27},{"pitch":62,"velocity":123,"startTime":38.793075,"endTime":38.922385250000005,"instrument":2,"program":27},{"pitch":62,"velocity":123,"startTime":39.0516955,"endTime":39.181005750000004,"instrument":2,"program":27},{"pitch":54,"velocity":123,"startTime":39.5689365,"endTime":39.61203991666667,"instrument":2,"program":27},{"pitch":54,"velocity":123,"startTime":39.69824675,"endTime":39.78445358333334,"instrument":2,"program":27},{"pitch":54,"velocity":123,"startTime":39.827557,"endTime":39.87066041666667,"instrument":2,"program":27},{"pitch":54,"velocity":123,"startTime":39.95686725,"endTime":40.04307408333334,"instrument":2,"program":27},{"pitch":54,"velocity":123,"startTime":40.086177500000005,"endTime":40.21548775,"instrument":2,"program":27},{"pitch":54,"velocity":123,"startTime":40.603418500000004,"endTime":40.64652191666667,"instrument":2,"program":27},{"pitch":54,"velocity":123,"startTime":40.73272875,"endTime":40.818935583333335,"instrument":2,"program":27},{"pitch":54,"velocity":123,"startTime":40.862039,"endTime":40.90514241666667,"instrument":2,"program":27},{"pitch":54,"velocity":123,"startTime":40.99134925,"endTime":41.03445266666667,"instrument":2,"program":27},{"pitch":54,"velocity":123,"startTime":41.1206595,"endTime":41.20686633333334,"instrument":2,"program":27},{"pitch":59,"velocity":123,"startTime":41.37928,"endTime":41.42238341666667,"instrument":2,"program":27},{"pitch":59,"velocity":123,"startTime":41.6379005,"endTime":41.767210750000004,"instrument":2,"program":27},{"pitch":59,"velocity":123,"startTime":41.767210750000004,"endTime":41.85341758333334,"instrument":2,"program":27},{"pitch":59,"velocity":123,"startTime":41.896521,"endTime":42.02583125,"instrument":2,"program":27},{"pitch":59,"velocity":123,"startTime":42.1551415,"endTime":42.28445175,"instrument":2,"program":27},{"pitch":60,"velocity":123,"startTime":42.672382500000005,"endTime":42.71548591666667,"instrument":2,"program":27},{"pitch":60,"velocity":123,"startTime":42.80169275,"endTime":42.887899583333336,"instrument":2,"program":27},{"pitch":60,"velocity":123,"startTime":42.931003000000004,"endTime":42.97410641666667,"instrument":2,"program":27},{"pitch":60,"velocity":123,"startTime":43.06031325,"endTime":43.10341666666667,"instrument":2,"program":27},{"pitch":60,"velocity":123,"startTime":43.1896235,"endTime":43.31893375,"instrument":2,"program":27},{"pitch":61,"velocity":123,"startTime":43.448244,"endTime":43.49134741666667,"instrument":2,"program":27},{"pitch":61,"velocity":123,"startTime":43.7068645,"endTime":43.836174750000005,"instrument":2,"program":27},{"pitch":61,"velocity":123,"startTime":43.965485,"endTime":44.094795250000004,"instrument":2,"program":27},{"pitch":61,"velocity":123,"startTime":44.094795250000004,"endTime":44.18100208333333,"instrument":2,"program":27},{"pitch":61,"velocity":123,"startTime":44.2241055,"endTime":44.310312333333336,"instrument":2,"program":27},{"pitch":57,"velocity":123,"startTime":44.482726,"endTime":44.52582941666667,"instrument":2,"program":27},{"pitch":57,"velocity":123,"startTime":44.741346500000006,"endTime":44.87065675,"instrument":2,"program":27},{"pitch":57,"velocity":123,"startTime":44.87065675,"endTime":44.95686358333334,"instrument":2,"program":27},{"pitch":60,"velocity":123,"startTime":44.999967000000005,"endTime":45.12927725,"instrument":2,"program":27},{"pitch":57,"velocity":123,"startTime":45.12927725,"endTime":45.258587500000004,"instrument":2,"program":27},{"pitch":60,"velocity":123,"startTime":45.7758285,"endTime":45.81893191666667,"instrument":2,"program":27},{"pitch":60,"velocity":123,"startTime":45.905138750000006,"endTime":45.991345583333334,"instrument":2,"program":27},{"pitch":60,"velocity":123,"startTime":46.034449,"endTime":46.163759250000005,"instrument":2,"program":27},{"pitch":60,"velocity":123,"startTime":46.163759250000005,"endTime":46.2930695,"instrument":2,"program":27},{"pitch":60,"velocity":123,"startTime":46.55169,"endTime":46.8103105,"instrument":2,"program":27},{"pitch":60,"velocity":123,"startTime":46.8103105,"endTime":46.93962075,"instrument":2,"program":27},{"pitch":60,"velocity":123,"startTime":47.068931,"endTime":47.19824125,"instrument":2,"program":27},{"pitch":57,"velocity":123,"startTime":47.19824125,"endTime":47.28444808333334,"instrument":2,"program":27},{"pitch":55,"velocity":123,"startTime":47.327551500000006,"endTime":47.413758333333334,"instrument":2,"program":27},{"pitch":57,"velocity":123,"startTime":47.586172000000005,"endTime":47.62927541666667,"instrument":2,"program":27},{"pitch":57,"velocity":123,"startTime":47.71548225,"endTime":47.801689083333336,"instrument":2,"program":27},{"pitch":54,"velocity":123,"startTime":47.844792500000004,"endTime":47.97410275,"instrument":2,"program":27},{"pitch":54,"velocity":123,"startTime":47.97410275,"endTime":48.060309583333336,"instrument":2,"program":27},{"pitch":59,"velocity":123,"startTime":48.103413,"endTime":48.23272325,"instrument":2,"program":27},{"pitch":57,"velocity":123,"startTime":48.23272325,"endTime":48.318930083333335,"instrument":2,"program":27},{"pitch":57,"velocity":123,"startTime":48.3620335,"endTime":48.44824033333334,"instrument":2,"program":27},{"pitch":59,"velocity":123,"startTime":48.8792745,"endTime":48.92237791666667,"instrument":2,"program":27},{"pitch":59,"velocity":123,"startTime":49.008584750000004,"endTime":49.09479158333334,"instrument":2,"program":27},{"pitch":59,"velocity":123,"startTime":49.137895,"endTime":49.18099841666667,"instrument":2,"program":27},{"pitch":59,"velocity":123,"startTime":49.26720525,"endTime":49.35341208333334,"instrument":2,"program":27},{"pitch":59,"velocity":123,"startTime":49.3965155,"endTime":49.52582575,"instrument":2,"program":27},{"pitch":50,"velocity":123,"startTime":48.620654,"endTime":49.655136000000006,"instrument":3,"program":34},{"pitch":44,"velocity":117,"startTime":33.8792855,"endTime":34.008595750000005,"instrument":4,"program":35},{"pitch":44,"velocity":117,"startTime":34.137906,"endTime":34.310319666666665,"instrument":4,"program":35},{"pitch":30,"velocity":117,"startTime":35.172388000000005,"endTime":35.34480166666667,"instrument":4,"program":35},{"pitch":33,"velocity":117,"startTime":36.20687,"endTime":36.336180250000005,"instrument":4,"program":35},{"pitch":33,"velocity":117,"startTime":36.4654905,"endTime":36.594800750000005,"instrument":4,"program":35},{"pitch":35,"velocity":117,"startTime":37.499972500000005,"endTime":37.62928275,"instrument":4,"program":35},{"pitch":36,"velocity":117,"startTime":38.017213500000004,"endTime":38.14652375,"instrument":4,"program":35},{"pitch":28,"velocity":117,"startTime":38.275834,"endTime":38.44824766666667,"instrument":4,"program":35},{"pitch":35,"velocity":117,"startTime":39.310316,"endTime":39.48272966666667,"instrument":4,"program":35},{"pitch":35,"velocity":117,"startTime":40.086177500000005,"endTime":40.21548775,"instrument":4,"program":35},{"pitch":35,"velocity":117,"startTime":41.1206595,"endTime":41.249969750000005,"instrument":4,"program":35},{"pitch":35,"velocity":117,"startTime":41.249969750000005,"endTime":41.336176583333334,"instrument":4,"program":35},{"pitch":28,"velocity":117,"startTime":41.37928,"endTime":41.55169366666667,"instrument":4,"program":35},{"pitch":28,"velocity":117,"startTime":42.1551415,"endTime":42.28445175,"instrument":4,"program":35},{"pitch":32,"velocity":117,"startTime":42.413762000000006,"endTime":42.58617566666667,"instrument":4,"program":35},{"pitch":37,"velocity":117,"startTime":43.448244,"endTime":43.53445083333334,"instrument":4,"program":35},{"pitch":25,"velocity":117,"startTime":43.577554250000006,"endTime":43.663761083333334,"instrument":4,"program":35},{"pitch":37,"velocity":117,"startTime":43.7068645,"endTime":43.836174750000005,"instrument":4,"program":35},{"pitch":38,"velocity":117,"startTime":44.741346500000006,"endTime":44.87065675,"instrument":4,"program":35},{"pitch":38,"velocity":117,"startTime":44.999967000000005,"endTime":45.08617383333333,"instrument":4,"program":35},{"pitch":40,"velocity":117,"startTime":45.12927725,"endTime":45.21548408333334,"instrument":4,"program":35},{"pitch":38,"velocity":117,"startTime":45.258587500000004,"endTime":45.474104583333336,"instrument":4,"program":35},{"pitch":36,"velocity":117,"startTime":45.517208000000004,"endTime":45.68962166666667,"instrument":4,"program":35},{"pitch":38,"velocity":117,"startTime":46.2930695,"endTime":46.422379750000005,"instrument":4,"program":35},{"pitch":38,"velocity":117,"startTime":46.55169,"endTime":46.72410366666667,"instrument":4,"program":35},{"pitch":38,"velocity":117,"startTime":46.8103105,"endTime":46.93962075,"instrument":4,"program":35},{"pitch":38,"velocity":117,"startTime":47.068931,"endTime":47.24134466666667,"instrument":4,"program":35},{"pitch":35,"velocity":117,"startTime":48.8792745,"endTime":49.008584750000004,"instrument":4,"program":35},{"pitch":35,"velocity":117,"startTime":49.008584750000004,"endTime":49.137895,"instrument":4,"program":35},{"pitch":38,"velocity":117,"startTime":49.137895,"endTime":49.26720525,"instrument":4,"program":35},{"pitch":35,"velocity":117,"startTime":49.26720525,"endTime":49.35341208333334,"instrument":4,"program":35},{"pitch":33,"velocity":117,"startTime":49.3965155,"endTime":49.52582575,"instrument":4,"program":35},{"pitch":35,"velocity":118,"startTime":47.586172000000005,"endTime":47.844792500000004,"instrument":5,"program":87},{"pitch":38,"velocity":118,"startTime":49.3965155,"endTime":49.655136000000006,"instrument":5,"program":87},{"pitch":35,"velocity":105,"startTime":49.655136000000006,"endTime":49.78444625,"isDrum":true},{"pitch":42,"velocity":105,"startTime":49.655136000000006,"endTime":49.78444625,"isDrum":true},{"pitch":42,"velocity":105,"startTime":49.913756500000005,"endTime":50.04306675,"isDrum":true},{"pitch":38,"velocity":105,"startTime":50.172377000000004,"endTime":50.30168725,"isDrum":true},{"pitch":39,"velocity":105,"startTime":50.172377000000004,"endTime":50.30168725,"isDrum":true},{"pitch":42,"velocity":105,"startTime":50.172377000000004,"endTime":50.30168725,"isDrum":true},{"pitch":69,"velocity":105,"startTime":50.172377000000004,"endTime":50.30168725,"isDrum":true},{"pitch":35,"velocity":105,"startTime":50.430997500000004,"endTime":50.56030775,"isDrum":true},{"pitch":42,"velocity":105,"startTime":50.430997500000004,"endTime":50.56030775,"isDrum":true},{"pitch":42,"velocity":105,"startTime":50.689618,"endTime":50.818928250000006,"isDrum":true},{"pitch":35,"velocity":105,"startTime":50.9482385,"endTime":51.077548750000005,"isDrum":true},{"pitch":46,"velocity":105,"startTime":50.9482385,"endTime":51.077548750000005,"isDrum":true},{"pitch":38,"velocity":105,"startTime":51.206859,"endTime":51.336169250000005,"isDrum":true},{"pitch":39,"velocity":105,"startTime":51.206859,"endTime":51.336169250000005,"isDrum":true},{"pitch":42,"velocity":105,"startTime":51.206859,"endTime":51.336169250000005,"isDrum":true},{"pitch":69,"velocity":105,"startTime":51.206859,"endTime":51.336169250000005,"isDrum":true},{"pitch":35,"velocity":105,"startTime":51.4654795,"endTime":51.594789750000004,"isDrum":true},{"pitch":42,"velocity":105,"startTime":51.4654795,"endTime":51.594789750000004,"isDrum":true},{"pitch":35,"velocity":105,"startTime":51.7241,"endTime":51.85341025,"isDrum":true},{"pitch":42,"velocity":105,"startTime":51.7241,"endTime":51.85341025,"isDrum":true},{"pitch":42,"velocity":105,"startTime":51.85341025,"endTime":51.982720500000006,"isDrum":true},{"pitch":42,"velocity":105,"startTime":51.982720500000006,"endTime":52.11203075,"isDrum":true},{"pitch":38,"velocity":105,"startTime":52.241341000000006,"endTime":52.37065125,"isDrum":true},{"pitch":39,"velocity":105,"startTime":52.241341000000006,"endTime":52.37065125,"isDrum":true},{"pitch":42,"velocity":105,"startTime":52.241341000000006,"endTime":52.37065125,"isDrum":true},{"pitch":69,"velocity":105,"startTime":52.241341000000006,"endTime":52.37065125,"isDrum":true},{"pitch":35,"velocity":105,"startTime":52.499961500000005,"endTime":52.62927175,"isDrum":true},{"pitch":42,"velocity":105,"startTime":52.499961500000005,"endTime":52.62927175,"isDrum":true},{"pitch":42,"velocity":105,"startTime":52.758582000000004,"endTime":52.88789225,"isDrum":true},{"pitch":35,"velocity":105,"startTime":53.0172025,"endTime":53.14651275000001,"isDrum":true},{"pitch":46,"velocity":105,"startTime":53.0172025,"endTime":53.14651275000001,"isDrum":true},{"pitch":38,"velocity":105,"startTime":53.275823,"endTime":53.405133250000006,"isDrum":true},{"pitch":39,"velocity":105,"startTime":53.275823,"endTime":53.405133250000006,"isDrum":true},{"pitch":42,"velocity":105,"startTime":53.275823,"endTime":53.405133250000006,"isDrum":true},{"pitch":69,"velocity":105,"startTime":53.275823,"endTime":53.405133250000006,"isDrum":true},{"pitch":35,"velocity":105,"startTime":53.5344435,"endTime":53.663753750000005,"isDrum":true},{"pitch":42,"velocity":105,"startTime":53.5344435,"endTime":53.663753750000005,"isDrum":true},{"pitch":35,"velocity":105,"startTime":53.793064,"endTime":53.922374250000004,"isDrum":true},{"pitch":42,"velocity":105,"startTime":53.793064,"endTime":53.922374250000004,"isDrum":true},{"pitch":42,"velocity":105,"startTime":54.0516845,"endTime":54.18099475,"isDrum":true},{"pitch":38,"velocity":105,"startTime":54.310305,"endTime":54.43961525,"isDrum":true},{"pitch":39,"velocity":105,"startTime":54.310305,"endTime":54.43961525,"isDrum":true},{"pitch":42,"velocity":105,"startTime":54.310305,"endTime":54.43961525,"isDrum":true},{"pitch":69,"velocity":105,"startTime":54.310305,"endTime":54.43961525,"isDrum":true},{"pitch":35,"velocity":105,"startTime":54.568925500000006,"endTime":54.69823575,"isDrum":true},{"pitch":42,"velocity":105,"startTime":54.568925500000006,"endTime":54.69823575,"isDrum":true},{"pitch":42,"velocity":105,"startTime":54.827546000000005,"endTime":54.95685625,"isDrum":true},{"pitch":35,"velocity":105,"startTime":55.086166500000004,"endTime":55.21547675,"isDrum":true},{"pitch":46,"velocity":105,"startTime":55.086166500000004,"endTime":55.21547675,"isDrum":true},{"pitch":38,"velocity":105,"startTime":55.344787000000004,"endTime":55.47409725,"isDrum":true},{"pitch":39,"velocity":105,"startTime":55.344787000000004,"endTime":55.47409725,"isDrum":true},{"pitch":42,"velocity":105,"startTime":55.344787000000004,"endTime":55.47409725,"isDrum":true},{"pitch":69,"velocity":105,"startTime":55.344787000000004,"endTime":55.47409725,"isDrum":true},{"pitch":35,"velocity":105,"startTime":55.6034075,"endTime":55.732717750000006,"isDrum":true},{"pitch":42,"velocity":105,"startTime":55.6034075,"endTime":55.732717750000006,"isDrum":true},{"pitch":35,"velocity":105,"startTime":55.862028,"endTime":55.991338250000005,"isDrum":true},{"pitch":42,"velocity":105,"startTime":55.862028,"endTime":55.991338250000005,"isDrum":true},{"pitch":42,"velocity":105,"startTime":56.1206485,"endTime":56.249958750000005,"isDrum":true},{"pitch":38,"velocity":105,"startTime":56.379269,"endTime":56.508579250000004,"isDrum":true},{"pitch":39,"velocity":105,"startTime":56.379269,"endTime":56.508579250000004,"isDrum":true},{"pitch":42,"velocity":105,"startTime":56.379269,"endTime":56.508579250000004,"isDrum":true},{"pitch":69,"velocity":105,"startTime":56.379269,"endTime":56.508579250000004,"isDrum":true},{"pitch":35,"velocity":105,"startTime":56.6378895,"endTime":56.76719975,"isDrum":true},{"pitch":42,"velocity":105,"startTime":56.6378895,"endTime":56.76719975,"isDrum":true},{"pitch":42,"velocity":105,"startTime":56.896510000000006,"endTime":57.02582025,"isDrum":true},{"pitch":69,"velocity":105,"startTime":56.896510000000006,"endTime":57.02582025,"isDrum":true},{"pitch":35,"velocity":105,"startTime":57.155130500000006,"endTime":57.28444075,"isDrum":true},{"pitch":42,"velocity":105,"startTime":57.155130500000006,"endTime":57.28444075,"isDrum":true},{"pitch":38,"velocity":105,"startTime":57.413751000000005,"endTime":57.54306125,"isDrum":true},{"pitch":39,"velocity":105,"startTime":57.413751000000005,"endTime":57.54306125,"isDrum":true},{"pitch":42,"velocity":105,"startTime":57.413751000000005,"endTime":57.54306125,"isDrum":true},{"pitch":69,"velocity":105,"startTime":57.413751000000005,"endTime":57.54306125,"isDrum":true},{"pitch":35,"velocity":105,"startTime":57.672371500000004,"endTime":57.80168175,"isDrum":true},{"pitch":42,"velocity":105,"startTime":57.672371500000004,"endTime":57.80168175,"isDrum":true},{"pitch":35,"velocity":105,"startTime":57.930992,"endTime":58.06030225000001,"isDrum":true},{"pitch":42,"velocity":105,"startTime":57.930992,"endTime":58.06030225000001,"isDrum":true},{"pitch":38,"velocity":105,"startTime":58.448233,"endTime":58.577543250000005,"isDrum":true},{"pitch":39,"velocity":105,"startTime":58.448233,"endTime":58.577543250000005,"isDrum":true},{"pitch":42,"velocity":105,"startTime":58.448233,"endTime":58.577543250000005,"isDrum":true},{"pitch":69,"velocity":105,"startTime":58.448233,"endTime":58.577543250000005,"isDrum":true},{"pitch":35,"velocity":105,"startTime":58.7068535,"endTime":58.836163750000004,"isDrum":true},{"pitch":42,"velocity":105,"startTime":58.7068535,"endTime":58.836163750000004,"isDrum":true},{"pitch":42,"velocity":105,"startTime":58.965474,"endTime":59.094784250000004,"isDrum":true},{"pitch":35,"velocity":105,"startTime":59.22409450000001,"endTime":59.35340475,"isDrum":true},{"pitch":42,"velocity":105,"startTime":59.22409450000001,"endTime":59.35340475,"isDrum":true},{"pitch":38,"velocity":105,"startTime":59.482715000000006,"endTime":59.61202525,"isDrum":true},{"pitch":39,"velocity":105,"startTime":59.482715000000006,"endTime":59.61202525,"isDrum":true},{"pitch":42,"velocity":105,"startTime":59.482715000000006,"endTime":59.61202525,"isDrum":true},{"pitch":69,"velocity":105,"startTime":59.482715000000006,"endTime":59.61202525,"isDrum":true},{"pitch":35,"velocity":105,"startTime":59.741335500000005,"endTime":59.87064575,"isDrum":true},{"pitch":42,"velocity":105,"startTime":59.741335500000005,"endTime":59.87064575,"isDrum":true},{"pitch":35,"velocity":105,"startTime":59.999956000000005,"endTime":60.12926625,"isDrum":true},{"pitch":42,"velocity":105,"startTime":59.999956000000005,"endTime":60.12926625,"isDrum":true},{"pitch":38,"velocity":105,"startTime":60.517197,"endTime":60.646507250000006,"isDrum":true},{"pitch":39,"velocity":105,"startTime":60.517197,"endTime":60.646507250000006,"isDrum":true},{"pitch":42,"velocity":105,"startTime":60.517197,"endTime":60.646507250000006,"isDrum":true},{"pitch":69,"velocity":105,"startTime":60.517197,"endTime":60.646507250000006,"isDrum":true},{"pitch":35,"velocity":105,"startTime":60.7758175,"endTime":60.905127750000005,"isDrum":true},{"pitch":42,"velocity":105,"startTime":60.7758175,"endTime":60.905127750000005,"isDrum":true},{"pitch":42,"velocity":105,"startTime":61.034438,"endTime":61.163748250000005,"isDrum":true},{"pitch":35,"velocity":105,"startTime":61.2930585,"endTime":61.422368750000004,"isDrum":true},{"pitch":46,"velocity":105,"startTime":61.2930585,"endTime":61.422368750000004,"isDrum":true},{"pitch":38,"velocity":105,"startTime":61.551679,"endTime":61.68098925,"isDrum":true},{"pitch":39,"velocity":105,"startTime":61.551679,"endTime":61.68098925,"isDrum":true},{"pitch":42,"velocity":105,"startTime":61.551679,"endTime":61.68098925,"isDrum":true},{"pitch":69,"velocity":105,"startTime":61.551679,"endTime":61.68098925,"isDrum":true},{"pitch":35,"velocity":105,"startTime":61.810299500000006,"endTime":61.93960975,"isDrum":true},{"pitch":42,"velocity":105,"startTime":61.810299500000006,"endTime":61.93960975,"isDrum":true},{"pitch":35,"velocity":105,"startTime":62.068920000000006,"endTime":62.19823025,"isDrum":true},{"pitch":42,"velocity":105,"startTime":62.068920000000006,"endTime":62.19823025,"isDrum":true},{"pitch":38,"velocity":105,"startTime":62.586161000000004,"endTime":62.71547125,"isDrum":true},{"pitch":39,"velocity":105,"startTime":62.586161000000004,"endTime":62.71547125,"isDrum":true},{"pitch":42,"velocity":105,"startTime":62.586161000000004,"endTime":62.71547125,"isDrum":true},{"pitch":69,"velocity":105,"startTime":62.586161000000004,"endTime":62.71547125,"isDrum":true},{"pitch":35,"velocity":105,"startTime":62.8447815,"endTime":62.97409175000001,"isDrum":true},{"pitch":42,"velocity":105,"startTime":62.8447815,"endTime":62.97409175000001,"isDrum":true},{"pitch":42,"velocity":105,"startTime":63.103402,"endTime":63.232712250000006,"isDrum":true},{"pitch":35,"velocity":105,"startTime":63.3620225,"endTime":63.491332750000005,"isDrum":true},{"pitch":46,"velocity":105,"startTime":63.3620225,"endTime":63.491332750000005,"isDrum":true},{"pitch":38,"velocity":105,"startTime":63.620643,"endTime":63.749953250000004,"isDrum":true},{"pitch":39,"velocity":105,"startTime":63.620643,"endTime":63.749953250000004,"isDrum":true},{"pitch":42,"velocity":105,"startTime":63.620643,"endTime":63.749953250000004,"isDrum":true},{"pitch":69,"velocity":105,"startTime":63.620643,"endTime":63.749953250000004,"isDrum":true},{"pitch":35,"velocity":105,"startTime":63.8792635,"endTime":64.00857375000001,"isDrum":true},{"pitch":42,"velocity":105,"startTime":63.8792635,"endTime":64.00857375000001,"isDrum":true},{"pitch":42,"velocity":105,"startTime":64.137884,"endTime":64.26719425,"isDrum":true},{"pitch":69,"velocity":105,"startTime":64.137884,"endTime":64.26719425,"isDrum":true},{"pitch":35,"velocity":105,"startTime":64.3965045,"endTime":64.52581475000001,"isDrum":true},{"pitch":42,"velocity":105,"startTime":64.3965045,"endTime":64.52581475000001,"isDrum":true},{"pitch":38,"velocity":105,"startTime":64.655125,"endTime":64.78443525,"isDrum":true},{"pitch":39,"velocity":105,"startTime":64.655125,"endTime":64.78443525,"isDrum":true},{"pitch":42,"velocity":105,"startTime":64.655125,"endTime":64.78443525,"isDrum":true},{"pitch":69,"velocity":105,"startTime":64.655125,"endTime":64.78443525,"isDrum":true},{"pitch":35,"velocity":105,"startTime":64.9137455,"endTime":65.04305575000001,"isDrum":true},{"pitch":42,"velocity":105,"startTime":64.9137455,"endTime":65.04305575000001,"isDrum":true},{"pitch":62,"velocity":123,"startTime":56.896510000000006,"endTime":57.11202708333334,"instrument":1,"program":4},{"pitch":65,"velocity":123,"startTime":56.896510000000006,"endTime":57.11202708333334,"instrument":1,"program":4},{"pitch":69,"velocity":123,"startTime":56.896510000000006,"endTime":57.11202708333334,"instrument":1,"program":4},{"pitch":62,"velocity":123,"startTime":57.155130500000006,"endTime":57.28444075,"instrument":1,"program":4},{"pitch":65,"velocity":123,"startTime":57.155130500000006,"endTime":57.28444075,"instrument":1,"program":4},{"pitch":69,"velocity":123,"startTime":57.155130500000006,"endTime":57.28444075,"instrument":1,"program":4},{"pitch":62,"velocity":123,"startTime":57.672371500000004,"endTime":58.1896125,"instrument":1,"program":4},{"pitch":66,"velocity":123,"startTime":57.672371500000004,"endTime":58.1896125,"instrument":1,"program":4},{"pitch":69,"velocity":123,"startTime":57.672371500000004,"endTime":58.1896125,"instrument":1,"program":4},{"pitch":62,"velocity":123,"startTime":58.1896125,"endTime":58.318922750000006,"instrument":1,"program":4},{"pitch":66,"velocity":123,"startTime":58.1896125,"endTime":58.318922750000006,"instrument":1,"program":4},{"pitch":68,"velocity":123,"startTime":58.1896125,"endTime":58.318922750000006,"instrument":1,"program":4},{"pitch":60,"velocity":123,"startTime":59.999956000000005,"endTime":60.12926625,"instrument":1,"program":4},{"pitch":64,"velocity":123,"startTime":59.999956000000005,"endTime":60.12926625,"instrument":1,"program":4},{"pitch":69,"velocity":123,"startTime":59.999956000000005,"endTime":60.12926625,"instrument":1,"program":4},{"pitch":60,"velocity":123,"startTime":60.517197,"endTime":60.646507250000006,"instrument":1,"program":4},{"pitch":64,"velocity":123,"startTime":60.517197,"endTime":60.646507250000006,"instrument":1,"program":4},{"pitch":69,"velocity":123,"startTime":60.517197,"endTime":60.646507250000006,"instrument":1,"program":4},{"pitch":64,"velocity":123,"startTime":60.7758175,"endTime":60.905127750000005,"instrument":1,"program":4},{"pitch":69,"velocity":123,"startTime":60.7758175,"endTime":60.905127750000005,"instrument":1,"program":4},{"pitch":64,"velocity":123,"startTime":61.034438,"endTime":61.163748250000005,"instrument":1,"program":4},{"pitch":69,"velocity":123,"startTime":61.034438,"endTime":61.163748250000005,"instrument":1,"program":4},{"pitch":64,"velocity":123,"startTime":61.2930585,"endTime":61.422368750000004,"instrument":1,"program":4},{"pitch":69,"velocity":123,"startTime":61.2930585,"endTime":61.422368750000004,"instrument":1,"program":4},{"pitch":64,"velocity":123,"startTime":62.327540500000005,"endTime":62.45685075,"instrument":1,"program":4},{"pitch":67,"velocity":123,"startTime":62.327540500000005,"endTime":62.45685075,"instrument":1,"program":4},{"pitch":72,"velocity":123,"startTime":62.327540500000005,"endTime":62.45685075,"instrument":1,"program":4},{"pitch":64,"velocity":123,"startTime":62.586161000000004,"endTime":62.71547125,"instrument":1,"program":4},{"pitch":67,"velocity":123,"startTime":62.586161000000004,"endTime":62.71547125,"instrument":1,"program":4},{"pitch":72,"velocity":123,"startTime":62.586161000000004,"endTime":62.71547125,"instrument":1,"program":4},{"pitch":64,"velocity":123,"startTime":62.8447815,"endTime":62.97409175000001,"instrument":1,"program":4},{"pitch":67,"velocity":123,"startTime":62.8447815,"endTime":62.97409175000001,"instrument":1,"program":4},{"pitch":72,"velocity":123,"startTime":62.8447815,"endTime":62.97409175000001,"instrument":1,"program":4},{"pitch":57,"velocity":123,"startTime":63.8792635,"endTime":64.3965045,"instrument":1,"program":4},{"pitch":62,"velocity":123,"startTime":63.8792635,"endTime":64.3965045,"instrument":1,"program":4},{"pitch":66,"velocity":123,"startTime":63.8792635,"endTime":64.3965045,"instrument":1,"program":4},{"pitch":59,"velocity":123,"startTime":64.655125,"endTime":64.78443525,"instrument":1,"program":4},{"pitch":62,"velocity":123,"startTime":64.655125,"endTime":64.78443525,"instrument":1,"program":4},{"pitch":66,"velocity":123,"startTime":64.655125,"endTime":64.78443525,"instrument":1,"program":4},{"pitch":59,"velocity":123,"startTime":64.9137455,"endTime":65.04305575000001,"instrument":1,"program":4},{"pitch":62,"velocity":123,"startTime":64.9137455,"endTime":65.04305575000001,"instrument":1,"program":4},{"pitch":66,"velocity":123,"startTime":64.9137455,"endTime":65.04305575000001,"instrument":1,"program":4},{"pitch":59,"velocity":123,"startTime":65.172366,"endTime":65.4309865,"instrument":1,"program":4},{"pitch":62,"velocity":123,"startTime":65.172366,"endTime":65.4309865,"instrument":1,"program":4},{"pitch":66,"velocity":123,"startTime":65.172366,"endTime":65.4309865,"instrument":1,"program":4},{"pitch":55,"velocity":123,"startTime":49.655136000000006,"endTime":49.69823941666667,"instrument":2,"program":27},{"pitch":55,"velocity":123,"startTime":49.913756500000005,"endTime":49.95685991666667,"instrument":2,"program":27},{"pitch":55,"velocity":123,"startTime":50.172377000000004,"endTime":50.30168725,"instrument":2,"program":27},{"pitch":55,"velocity":123,"startTime":50.430997500000004,"endTime":50.51720433333334,"instrument":2,"program":27},{"pitch":55,"velocity":123,"startTime":50.56030775,"endTime":50.689618,"instrument":2,"program":27},{"pitch":60,"velocity":123,"startTime":50.818928250000006,"endTime":50.9482385,"instrument":2,"program":27},{"pitch":56,"velocity":123,"startTime":50.9482385,"endTime":51.077548750000005,"instrument":2,"program":27},{"pitch":60,"velocity":123,"startTime":51.206859,"endTime":51.336169250000005,"instrument":2,"program":27},{"pitch":56,"velocity":123,"startTime":51.336169250000005,"endTime":51.4654795,"instrument":2,"program":27},{"pitch":60,"velocity":123,"startTime":51.4654795,"endTime":51.594789750000004,"instrument":2,"program":27},{"pitch":61,"velocity":123,"startTime":51.7241,"endTime":51.76720341666667,"instrument":2,"program":27},{"pitch":61,"velocity":123,"startTime":51.982720500000006,"endTime":52.02582391666667,"instrument":2,"program":27},{"pitch":61,"velocity":123,"startTime":52.241341000000006,"endTime":52.37065125,"instrument":2,"program":27},{"pitch":61,"velocity":123,"startTime":52.37065125,"endTime":52.499961500000005,"instrument":2,"program":27},{"pitch":60,"velocity":123,"startTime":52.758582000000004,"endTime":52.80168541666667,"instrument":2,"program":27},{"pitch":60,"velocity":123,"startTime":53.0172025,"endTime":53.06030591666667,"instrument":2,"program":27},{"pitch":60,"velocity":123,"startTime":53.275823,"endTime":53.405133250000006,"instrument":2,"program":27},{"pitch":60,"velocity":123,"startTime":53.405133250000006,"endTime":53.5344435,"instrument":2,"program":27},{"pitch":60,"velocity":123,"startTime":53.922374250000004,"endTime":54.0516845,"instrument":2,"program":27},{"pitch":60,"velocity":123,"startTime":54.0516845,"endTime":54.18099475,"instrument":2,"program":27},{"pitch":60,"velocity":123,"startTime":54.310305,"endTime":54.43961525,"instrument":2,"program":27},{"pitch":60,"velocity":123,"startTime":54.43961525,"endTime":54.568925500000006,"instrument":2,"program":27},{"pitch":60,"velocity":123,"startTime":54.568925500000006,"endTime":54.69823575,"instrument":2,"program":27},{"pitch":60,"velocity":123,"startTime":54.95685625,"endTime":55.086166500000004,"instrument":2,"program":27},{"pitch":60,"velocity":123,"startTime":55.086166500000004,"endTime":55.17237333333334,"instrument":2,"program":27},{"pitch":60,"velocity":123,"startTime":55.344787000000004,"endTime":55.47409725,"instrument":2,"program":27},{"pitch":60,"velocity":123,"startTime":55.47409725,"endTime":55.6034075,"instrument":2,"program":27},{"pitch":54,"velocity":123,"startTime":55.862028,"endTime":55.90513141666667,"instrument":2,"program":27},{"pitch":54,"velocity":123,"startTime":55.991338250000005,"endTime":56.077545083333334,"instrument":2,"program":27},{"pitch":54,"velocity":123,"startTime":56.1206485,"endTime":56.249958750000005,"instrument":2,"program":27},{"pitch":54,"velocity":123,"startTime":56.249958750000005,"endTime":56.33616558333334,"instrument":2,"program":27},{"pitch":59,"velocity":123,"startTime":56.379269,"endTime":56.508579250000004,"instrument":2,"program":27},{"pitch":59,"velocity":123,"startTime":56.6378895,"endTime":56.76719975,"instrument":2,"program":27},{"pitch":59,"velocity":123,"startTime":57.155130500000006,"endTime":57.19823391666667,"instrument":2,"program":27},{"pitch":59,"velocity":123,"startTime":57.28444075,"endTime":57.413751000000005,"instrument":2,"program":27},{"pitch":59,"velocity":123,"startTime":57.413751000000005,"endTime":57.54306125,"instrument":2,"program":27},{"pitch":59,"velocity":123,"startTime":57.672371500000004,"endTime":57.80168175,"instrument":2,"program":27},{"pitch":59,"velocity":123,"startTime":57.930992,"endTime":57.97409541666667,"instrument":2,"program":27},{"pitch":59,"velocity":123,"startTime":58.06030225000001,"endTime":58.1896125,"instrument":2,"program":27},{"pitch":59,"velocity":123,"startTime":58.1896125,"endTime":58.318922750000006,"instrument":2,"program":27},{"pitch":52,"velocity":123,"startTime":58.448233,"endTime":58.53443983333334,"instrument":2,"program":27},{"pitch":59,"velocity":123,"startTime":58.7068535,"endTime":58.836163750000004,"instrument":2,"program":27},{"pitch":59,"velocity":123,"startTime":58.836163750000004,"endTime":58.92237058333334,"instrument":2,"program":27},{"pitch":59,"velocity":123,"startTime":58.965474,"endTime":59.00857741666667,"instrument":2,"program":27},{"pitch":59,"velocity":123,"startTime":59.094784250000004,"endTime":59.18099108333334,"instrument":2,"program":27},{"pitch":59,"velocity":123,"startTime":59.22409450000001,"endTime":59.35340475,"instrument":2,"program":27},{"pitch":59,"velocity":123,"startTime":59.482715000000006,"endTime":59.61202525,"instrument":2,"program":27},{"pitch":59,"velocity":123,"startTime":59.741335500000005,"endTime":59.87064575,"instrument":2,"program":27},{"pitch":61,"velocity":123,"startTime":59.999956000000005,"endTime":60.12926625,"instrument":2,"program":27},{"pitch":61,"velocity":123,"startTime":60.12926625,"endTime":60.215473083333336,"instrument":2,"program":27},{"pitch":61,"velocity":123,"startTime":60.258576500000004,"endTime":60.38788675000001,"instrument":2,"program":27},{"pitch":61,"velocity":123,"startTime":60.517197,"endTime":60.646507250000006,"instrument":2,"program":27},{"pitch":61,"velocity":123,"startTime":60.646507250000006,"endTime":60.732714083333335,"instrument":2,"program":27},{"pitch":61,"velocity":123,"startTime":61.034438,"endTime":61.07754141666667,"instrument":2,"program":27},{"pitch":61,"velocity":123,"startTime":61.163748250000005,"endTime":61.24995508333334,"instrument":2,"program":27},{"pitch":61,"velocity":123,"startTime":61.2930585,"endTime":61.422368750000004,"instrument":2,"program":27},{"pitch":61,"velocity":123,"startTime":61.551679,"endTime":61.68098925,"instrument":2,"program":27},{"pitch":64,"velocity":123,"startTime":61.68098925,"endTime":61.810299500000006,"instrument":2,"program":27},{"pitch":60,"velocity":123,"startTime":62.327540500000005,"endTime":62.37064391666667,"instrument":2,"program":27},{"pitch":60,"velocity":123,"startTime":62.45685075,"endTime":62.586161000000004,"instrument":2,"program":27},{"pitch":60,"velocity":123,"startTime":62.586161000000004,"endTime":62.71547125,"instrument":2,"program":27},{"pitch":60,"velocity":123,"startTime":62.8447815,"endTime":62.97409175000001,"instrument":2,"program":27},{"pitch":60,"velocity":123,"startTime":63.3620225,"endTime":63.40512591666667,"instrument":2,"program":27},{"pitch":60,"velocity":123,"startTime":63.491332750000005,"endTime":63.53443616666667,"instrument":2,"program":27},{"pitch":60,"velocity":123,"startTime":63.620643,"endTime":63.70684983333334,"instrument":2,"program":27},{"pitch":60,"velocity":123,"startTime":63.749953250000004,"endTime":63.83616008333334,"instrument":2,"program":27},{"pitch":62,"velocity":123,"startTime":63.8792635,"endTime":64.00857375000001,"instrument":2,"program":27},{"pitch":62,"velocity":123,"startTime":64.137884,"endTime":64.18098741666667,"instrument":2,"program":27},{"pitch":62,"velocity":123,"startTime":64.26719425,"endTime":64.35340108333334,"instrument":2,"program":27},{"pitch":62,"velocity":123,"startTime":64.3965045,"endTime":64.52581475000001,"instrument":2,"program":27},{"pitch":62,"velocity":123,"startTime":64.655125,"endTime":64.78443525,"instrument":2,"program":27},{"pitch":62,"velocity":123,"startTime":64.78443525,"endTime":64.87064208333334,"instrument":2,"program":27},{"pitch":62,"velocity":123,"startTime":65.172366,"endTime":65.21546941666666,"instrument":2,"program":27},{"pitch":62,"velocity":123,"startTime":65.30167625,"endTime":65.38788308333334,"instrument":2,"program":27},{"pitch":62,"velocity":123,"startTime":65.4309865,"endTime":65.56029675,"instrument":2,"program":27},{"pitch":62,"velocity":123,"startTime":65.68960700000001,"endTime":65.81891725,"instrument":2,"program":27},{"pitch":62,"velocity":123,"startTime":65.81891725,"endTime":65.9482275,"instrument":2,"program":27},{"pitch":38,"velocity":117,"startTime":49.655136000000006,"endTime":50.04306675,"instrument":4,"program":35},{"pitch":37,"velocity":117,"startTime":51.7241,"endTime":52.11203075,"instrument":4,"program":35},{"pitch":37,"velocity":117,"startTime":52.11203075,"endTime":52.241341000000006,"instrument":4,"program":35},{"pitch":36,"velocity":117,"startTime":52.758582000000004,"endTime":52.88789225,"instrument":4,"program":35},{"pitch":35,"velocity":117,"startTime":52.88789225,"endTime":53.0172025,"instrument":4,"program":35},{"pitch":33,"velocity":117,"startTime":53.0172025,"endTime":53.14651275000001,"instrument":4,"program":35},{"pitch":36,"velocity":117,"startTime":53.793064,"endTime":53.922374250000004,"instrument":4,"program":35},{"pitch":36,"velocity":117,"startTime":53.922374250000004,"endTime":54.0516845,"instrument":4,"program":35},{"pitch":36,"velocity":117,"startTime":54.0516845,"endTime":54.18099475,"instrument":4,"program":35},{"pitch":38,"velocity":117,"startTime":55.086166500000004,"endTime":55.344787000000004,"instrument":4,"program":35},{"pitch":40,"velocity":117,"startTime":55.344787000000004,"endTime":55.6034075,"instrument":4,"program":35},{"pitch":45,"velocity":117,"startTime":55.6034075,"endTime":55.732717750000006,"instrument":4,"program":35},{"pitch":35,"velocity":117,"startTime":55.862028,"endTime":55.991338250000005,"instrument":4,"program":35},{"pitch":36,"velocity":117,"startTime":55.991338250000005,"endTime":56.1206485,"instrument":4,"program":35},{"pitch":35,"velocity":117,"startTime":56.1206485,"endTime":56.249958750000005,"instrument":4,"program":35},{"pitch":33,"velocity":117,"startTime":57.672371500000004,"endTime":57.80168175,"instrument":4,"program":35},{"pitch":33,"velocity":117,"startTime":57.80168175,"endTime":57.930992,"instrument":4,"program":35},{"pitch":28,"velocity":117,"startTime":57.930992,"endTime":58.06030225000001,"instrument":4,"program":35},{"pitch":28,"velocity":117,"startTime":58.06030225000001,"endTime":58.1896125,"instrument":4,"program":35},{"pitch":28,"velocity":117,"startTime":58.1896125,"endTime":58.318922750000006,"instrument":4,"program":35},{"pitch":37,"velocity":117,"startTime":59.999956000000005,"endTime":60.12926625,"instrument":4,"program":35},{"pitch":37,"velocity":117,"startTime":60.12926625,"endTime":60.258576500000004,"instrument":4,"program":35},{"pitch":37,"velocity":117,"startTime":60.258576500000004,"endTime":60.38788675000001,"instrument":4,"program":35},{"pitch":38,"velocity":117,"startTime":61.810299500000006,"endTime":61.93960975,"instrument":4,"program":35},{"pitch":36,"velocity":117,"startTime":62.068920000000006,"endTime":62.19823025,"instrument":4,"program":35},{"pitch":36,"velocity":117,"startTime":62.19823025,"endTime":62.327540500000005,"instrument":4,"program":35},{"pitch":36,"velocity":117,"startTime":62.327540500000005,"endTime":62.45685075,"instrument":4,"program":35},{"pitch":35,"velocity":117,"startTime":64.137884,"endTime":64.26719425,"instrument":4,"program":35},{"pitch":35,"velocity":117,"startTime":64.26719425,"endTime":64.3965045,"instrument":4,"program":35},{"pitch":35,"velocity":117,"startTime":64.3965045,"endTime":64.52581475000001,"instrument":4,"program":35},{"pitch":35,"velocity":118,"startTime":55.862028,"endTime":56.1206485,"instrument":5,"program":87},{"pitch":40,"velocity":118,"startTime":57.930992,"endTime":58.1896125,"instrument":5,"program":87},{"pitch":37,"velocity":118,"startTime":59.999956000000005,"endTime":60.258576500000004,"instrument":5,"program":87},{"pitch":36,"velocity":118,"startTime":62.068920000000006,"endTime":62.327540500000005,"instrument":5,"program":87},{"pitch":35,"velocity":118,"startTime":64.137884,"endTime":64.3965045,"instrument":5,"program":87},{"pitch":35,"velocity":105,"startTime":66.20684800000001,"endTime":66.33615825,"isDrum":true},{"pitch":42,"velocity":105,"startTime":66.20684800000001,"endTime":66.33615825,"isDrum":true},{"pitch":42,"velocity":105,"startTime":66.4654685,"endTime":66.59477875,"isDrum":true},{"pitch":38,"velocity":105,"startTime":66.724089,"endTime":66.85339925000001,"isDrum":true},{"pitch":39,"velocity":105,"startTime":66.724089,"endTime":66.85339925000001,"isDrum":true},{"pitch":40,"velocity":105,"startTime":66.724089,"endTime":66.85339925000001,"isDrum":true},{"pitch":42,"velocity":105,"startTime":66.724089,"endTime":66.85339925000001,"isDrum":true},{"pitch":42,"velocity":105,"startTime":66.9827095,"endTime":67.11201975,"isDrum":true},{"pitch":35,"velocity":105,"startTime":67.24133,"endTime":67.37064025000001,"isDrum":true},{"pitch":42,"velocity":105,"startTime":67.24133,"endTime":67.37064025000001,"isDrum":true},{"pitch":42,"velocity":105,"startTime":67.4999505,"endTime":67.62926075,"isDrum":true},{"pitch":38,"velocity":105,"startTime":67.758571,"endTime":67.88788125,"isDrum":true},{"pitch":39,"velocity":105,"startTime":67.758571,"endTime":67.88788125,"isDrum":true},{"pitch":40,"velocity":105,"startTime":67.758571,"endTime":67.88788125,"isDrum":true},{"pitch":42,"velocity":105,"startTime":67.758571,"endTime":67.88788125,"isDrum":true},{"pitch":42,"velocity":105,"startTime":68.01719150000001,"endTime":68.14650175,"isDrum":true},{"pitch":35,"velocity":105,"startTime":68.275812,"endTime":68.40512225,"isDrum":true},{"pitch":42,"velocity":105,"startTime":68.275812,"endTime":68.40512225,"isDrum":true},{"pitch":42,"velocity":105,"startTime":68.53443250000001,"endTime":68.66374275,"isDrum":true},{"pitch":38,"velocity":105,"startTime":68.793053,"endTime":68.92236325,"isDrum":true},{"pitch":39,"velocity":105,"startTime":68.793053,"endTime":68.92236325,"isDrum":true},{"pitch":40,"velocity":105,"startTime":68.793053,"endTime":68.92236325,"isDrum":true},{"pitch":42,"velocity":105,"startTime":68.793053,"endTime":68.92236325,"isDrum":true},{"pitch":35,"velocity":105,"startTime":69.0516735,"endTime":69.18098375000001,"isDrum":true},{"pitch":42,"velocity":105,"startTime":69.0516735,"endTime":69.18098375000001,"isDrum":true},{"pitch":35,"velocity":105,"startTime":69.310294,"endTime":69.43960425,"isDrum":true},{"pitch":42,"velocity":105,"startTime":69.310294,"endTime":69.43960425,"isDrum":true},{"pitch":42,"velocity":105,"startTime":69.5689145,"endTime":69.69822475000001,"isDrum":true},{"pitch":38,"velocity":105,"startTime":69.827535,"endTime":69.95684525,"isDrum":true},{"pitch":39,"velocity":105,"startTime":69.827535,"endTime":69.95684525,"isDrum":true},{"pitch":40,"velocity":105,"startTime":69.827535,"endTime":69.95684525,"isDrum":true},{"pitch":42,"velocity":105,"startTime":69.827535,"endTime":69.95684525,"isDrum":true},{"pitch":42,"velocity":105,"startTime":70.0861555,"endTime":70.21546575,"isDrum":true},{"pitch":35,"velocity":105,"startTime":70.34477600000001,"endTime":70.47408625,"isDrum":true},{"pitch":42,"velocity":105,"startTime":70.34477600000001,"endTime":70.47408625,"isDrum":true},{"pitch":42,"velocity":105,"startTime":70.6033965,"endTime":70.73270675,"isDrum":true},{"pitch":38,"velocity":105,"startTime":70.86201700000001,"endTime":70.99132725,"isDrum":true},{"pitch":39,"velocity":105,"startTime":70.86201700000001,"endTime":70.99132725,"isDrum":true},{"pitch":40,"velocity":105,"startTime":70.86201700000001,"endTime":70.99132725,"isDrum":true},{"pitch":42,"velocity":105,"startTime":70.86201700000001,"endTime":70.99132725,"isDrum":true},{"pitch":35,"velocity":105,"startTime":71.1206375,"endTime":71.24994775,"isDrum":true},{"pitch":42,"velocity":105,"startTime":71.1206375,"endTime":71.24994775,"isDrum":true},{"pitch":35,"velocity":105,"startTime":71.37925800000001,"endTime":71.50856825000001,"isDrum":true},{"pitch":42,"velocity":105,"startTime":71.37925800000001,"endTime":71.50856825000001,"isDrum":true},{"pitch":42,"velocity":105,"startTime":71.6378785,"endTime":71.76718875,"isDrum":true},{"pitch":38,"velocity":105,"startTime":71.896499,"endTime":72.02580925000001,"isDrum":true},{"pitch":39,"velocity":105,"startTime":71.896499,"endTime":72.02580925000001,"isDrum":true},{"pitch":40,"velocity":105,"startTime":71.896499,"endTime":72.02580925000001,"isDrum":true},{"pitch":42,"velocity":105,"startTime":71.896499,"endTime":72.02580925000001,"isDrum":true},{"pitch":42,"velocity":105,"startTime":72.1551195,"endTime":72.28442975,"isDrum":true},{"pitch":35,"velocity":105,"startTime":72.41374,"endTime":72.54305025000001,"isDrum":true},{"pitch":42,"velocity":105,"startTime":72.41374,"endTime":72.54305025000001,"isDrum":true},{"pitch":42,"velocity":105,"startTime":72.67236050000001,"endTime":72.80167075,"isDrum":true},{"pitch":38,"velocity":105,"startTime":72.930981,"endTime":73.06029125,"isDrum":true},{"pitch":39,"velocity":105,"startTime":72.930981,"endTime":73.06029125,"isDrum":true},{"pitch":40,"velocity":105,"startTime":72.930981,"endTime":73.06029125,"isDrum":true},{"pitch":42,"velocity":105,"startTime":72.930981,"endTime":73.06029125,"isDrum":true},{"pitch":35,"velocity":105,"startTime":73.18960150000001,"endTime":73.31891175,"isDrum":true},{"pitch":42,"velocity":105,"startTime":73.18960150000001,"endTime":73.31891175,"isDrum":true},{"pitch":35,"velocity":105,"startTime":73.448222,"endTime":73.57753225,"isDrum":true},{"pitch":42,"velocity":105,"startTime":73.448222,"endTime":73.57753225,"isDrum":true},{"pitch":42,"velocity":105,"startTime":73.70684250000001,"endTime":73.83615275000001,"isDrum":true},{"pitch":38,"velocity":105,"startTime":73.965463,"endTime":74.09477325,"isDrum":true},{"pitch":39,"velocity":105,"startTime":73.965463,"endTime":74.09477325,"isDrum":true},{"pitch":42,"velocity":105,"startTime":73.965463,"endTime":74.09477325,"isDrum":true},{"pitch":42,"velocity":105,"startTime":74.2240835,"endTime":74.35339375000001,"isDrum":true},{"pitch":35,"velocity":105,"startTime":74.482704,"endTime":74.61201425,"isDrum":true},{"pitch":42,"velocity":105,"startTime":74.482704,"endTime":74.61201425,"isDrum":true},{"pitch":42,"velocity":105,"startTime":74.7413245,"endTime":74.87063475000001,"isDrum":true},{"pitch":38,"velocity":105,"startTime":74.99994500000001,"endTime":75.12925525,"isDrum":true},{"pitch":39,"velocity":105,"startTime":74.99994500000001,"endTime":75.12925525,"isDrum":true},{"pitch":40,"velocity":105,"startTime":74.99994500000001,"endTime":75.12925525,"isDrum":true},{"pitch":42,"velocity":105,"startTime":74.99994500000001,"endTime":75.12925525,"isDrum":true},{"pitch":35,"velocity":105,"startTime":75.2585655,"endTime":75.38787575,"isDrum":true},{"pitch":42,"velocity":105,"startTime":75.2585655,"endTime":75.38787575,"isDrum":true},{"pitch":35,"velocity":105,"startTime":75.51718600000001,"endTime":75.64649625,"isDrum":true},{"pitch":42,"velocity":105,"startTime":75.51718600000001,"endTime":75.64649625,"isDrum":true},{"pitch":42,"velocity":105,"startTime":75.7758065,"endTime":75.90511675,"isDrum":true},{"pitch":38,"velocity":105,"startTime":76.03442700000001,"endTime":76.16373725000001,"isDrum":true},{"pitch":39,"velocity":105,"startTime":76.03442700000001,"endTime":76.16373725000001,"isDrum":true},{"pitch":42,"velocity":105,"startTime":76.03442700000001,"endTime":76.16373725000001,"isDrum":true},{"pitch":42,"velocity":105,"startTime":76.2930475,"endTime":76.42235775,"isDrum":true},{"pitch":35,"velocity":105,"startTime":76.551668,"endTime":76.68097825000001,"isDrum":true},{"pitch":42,"velocity":105,"startTime":76.551668,"endTime":76.68097825000001,"isDrum":true},{"pitch":42,"velocity":105,"startTime":76.8102885,"endTime":76.93959875,"isDrum":true},{"pitch":38,"velocity":105,"startTime":77.068909,"endTime":77.19821925000001,"isDrum":true},{"pitch":39,"velocity":105,"startTime":77.068909,"endTime":77.19821925000001,"isDrum":true},{"pitch":40,"velocity":105,"startTime":77.068909,"endTime":77.19821925000001,"isDrum":true},{"pitch":42,"velocity":105,"startTime":77.068909,"endTime":77.19821925000001,"isDrum":true},{"pitch":35,"velocity":105,"startTime":77.32752950000001,"endTime":77.45683975,"isDrum":true},{"pitch":42,"velocity":105,"startTime":77.32752950000001,"endTime":77.45683975,"isDrum":true},{"pitch":35,"velocity":105,"startTime":77.58615,"endTime":77.71546025,"isDrum":true},{"pitch":42,"velocity":105,"startTime":77.58615,"endTime":77.71546025,"isDrum":true},{"pitch":42,"velocity":105,"startTime":77.84477050000001,"endTime":77.97408075,"isDrum":true},{"pitch":38,"velocity":105,"startTime":78.103391,"endTime":78.23270125,"isDrum":true},{"pitch":39,"velocity":105,"startTime":78.103391,"endTime":78.23270125,"isDrum":true},{"pitch":40,"velocity":105,"startTime":78.103391,"endTime":78.23270125,"isDrum":true},{"pitch":42,"velocity":105,"startTime":78.103391,"endTime":78.23270125,"isDrum":true},{"pitch":42,"velocity":105,"startTime":78.36201150000001,"endTime":78.49132175000001,"isDrum":true},{"pitch":35,"velocity":105,"startTime":78.620632,"endTime":78.74994225,"isDrum":true},{"pitch":42,"velocity":105,"startTime":78.620632,"endTime":78.74994225,"isDrum":true},{"pitch":42,"velocity":105,"startTime":78.8792525,"endTime":79.00856275000001,"isDrum":true},{"pitch":38,"velocity":105,"startTime":79.137873,"endTime":79.26718325,"isDrum":true},{"pitch":39,"velocity":105,"startTime":79.137873,"endTime":79.26718325,"isDrum":true},{"pitch":40,"velocity":105,"startTime":79.137873,"endTime":79.26718325,"isDrum":true},{"pitch":42,"velocity":105,"startTime":79.137873,"endTime":79.26718325,"isDrum":true},{"pitch":35,"velocity":105,"startTime":79.3964935,"endTime":79.52580375000001,"isDrum":true},{"pitch":42,"velocity":105,"startTime":79.3964935,"endTime":79.52580375000001,"isDrum":true},{"pitch":35,"velocity":105,"startTime":79.655114,"endTime":79.78442425,"isDrum":true},{"pitch":42,"velocity":105,"startTime":79.655114,"endTime":79.78442425,"isDrum":true},{"pitch":42,"velocity":105,"startTime":79.9137345,"endTime":80.04304475,"isDrum":true},{"pitch":38,"velocity":105,"startTime":80.17235500000001,"endTime":80.30166525,"isDrum":true},{"pitch":39,"velocity":105,"startTime":80.17235500000001,"endTime":80.30166525,"isDrum":true},{"pitch":40,"velocity":105,"startTime":80.17235500000001,"endTime":80.30166525,"isDrum":true},{"pitch":42,"velocity":105,"startTime":80.17235500000001,"endTime":80.30166525,"isDrum":true},{"pitch":42,"velocity":105,"startTime":80.4309755,"endTime":80.56028575,"isDrum":true},{"pitch":35,"velocity":105,"startTime":80.68959600000001,"endTime":80.81890625,"isDrum":true},{"pitch":42,"velocity":105,"startTime":80.68959600000001,"endTime":80.81890625,"isDrum":true},{"pitch":42,"velocity":105,"startTime":80.9482165,"endTime":81.07752675,"isDrum":true},{"pitch":38,"velocity":105,"startTime":81.20683700000001,"endTime":81.33614725000001,"isDrum":true},{"pitch":39,"velocity":105,"startTime":81.20683700000001,"endTime":81.33614725000001,"isDrum":true},{"pitch":40,"velocity":105,"startTime":81.20683700000001,"endTime":81.33614725000001,"isDrum":true},{"pitch":42,"velocity":105,"startTime":81.20683700000001,"endTime":81.33614725000001,"isDrum":true},{"pitch":35,"velocity":105,"startTime":81.4654575,"endTime":81.59476775,"isDrum":true},{"pitch":42,"velocity":105,"startTime":81.4654575,"endTime":81.59476775,"isDrum":true},{"pitch":59,"velocity":123,"startTime":66.724089,"endTime":66.9827095,"instrument":1,"program":4},{"pitch":62,"velocity":123,"startTime":66.724089,"endTime":66.9827095,"instrument":1,"program":4},{"pitch":66,"velocity":123,"startTime":66.724089,"endTime":66.9827095,"instrument":1,"program":4},{"pitch":68,"velocity":123,"startTime":66.724089,"endTime":66.9827095,"instrument":1,"program":4},{"pitch":59,"velocity":123,"startTime":66.9827095,"endTime":67.24133,"instrument":1,"program":4},{"pitch":62,"velocity":123,"startTime":66.9827095,"endTime":67.24133,"instrument":1,"program":4},{"pitch":66,"velocity":123,"startTime":66.9827095,"endTime":67.24133,"instrument":1,"program":4},{"pitch":68,"velocity":123,"startTime":66.9827095,"endTime":67.24133,"instrument":1,"program":4},{"pitch":59,"velocity":123,"startTime":67.24133,"endTime":67.62926075,"instrument":1,"program":4},{"pitch":63,"velocity":123,"startTime":67.24133,"endTime":67.62926075,"instrument":1,"program":4},{"pitch":66,"velocity":123,"startTime":67.24133,"endTime":67.62926075,"instrument":1,"program":4},{"pitch":68,"velocity":123,"startTime":67.24133,"endTime":67.62926075,"instrument":1,"program":4},{"pitch":59,"velocity":123,"startTime":67.62926075,"endTime":67.758571,"instrument":1,"program":4},{"pitch":63,"velocity":123,"startTime":67.62926075,"endTime":67.758571,"instrument":1,"program":4},{"pitch":66,"velocity":123,"startTime":67.62926075,"endTime":67.758571,"instrument":1,"program":4},{"pitch":68,"velocity":123,"startTime":67.62926075,"endTime":67.758571,"instrument":1,"program":4},{"pitch":59,"velocity":123,"startTime":68.01719150000001,"endTime":68.14650175,"instrument":1,"program":4},{"pitch":63,"velocity":123,"startTime":68.01719150000001,"endTime":68.14650175,"instrument":1,"program":4},{"pitch":66,"velocity":123,"startTime":68.01719150000001,"endTime":68.14650175,"instrument":1,"program":4},{"pitch":68,"velocity":123,"startTime":68.01719150000001,"endTime":68.14650175,"instrument":1,"program":4},{"pitch":61,"velocity":123,"startTime":68.793053,"endTime":69.310294,"instrument":1,"program":4},{"pitch":64,"velocity":123,"startTime":68.793053,"endTime":69.310294,"instrument":1,"program":4},{"pitch":68,"velocity":123,"startTime":68.793053,"endTime":69.310294,"instrument":1,"program":4},{"pitch":71,"velocity":123,"startTime":68.793053,"endTime":69.310294,"instrument":1,"program":4},{"pitch":61,"velocity":123,"startTime":69.5689145,"endTime":69.69822475000001,"instrument":1,"program":4},{"pitch":64,"velocity":123,"startTime":69.5689145,"endTime":69.69822475000001,"instrument":1,"program":4},{"pitch":66,"velocity":123,"startTime":69.5689145,"endTime":69.69822475000001,"instrument":1,"program":4},{"pitch":71,"velocity":123,"startTime":69.5689145,"endTime":69.69822475000001,"instrument":1,"program":4},{"pitch":61,"velocity":123,"startTime":70.0861555,"endTime":70.34477600000001,"instrument":1,"program":4},{"pitch":64,"velocity":123,"startTime":70.0861555,"endTime":70.34477600000001,"instrument":1,"program":4},{"pitch":66,"velocity":123,"startTime":70.0861555,"endTime":70.34477600000001,"instrument":1,"program":4},{"pitch":71,"velocity":123,"startTime":70.0861555,"endTime":70.34477600000001,"instrument":1,"program":4},{"pitch":60,"velocity":123,"startTime":70.34477600000001,"endTime":70.73270675,"instrument":1,"program":4},{"pitch":64,"velocity":123,"startTime":70.34477600000001,"endTime":70.73270675,"instrument":1,"program":4},{"pitch":67,"velocity":123,"startTime":70.34477600000001,"endTime":70.73270675,"instrument":1,"program":4},{"pitch":69,"velocity":123,"startTime":70.34477600000001,"endTime":70.73270675,"instrument":1,"program":4},{"pitch":60,"velocity":123,"startTime":70.73270675,"endTime":70.86201700000001,"instrument":1,"program":4},{"pitch":64,"velocity":123,"startTime":70.73270675,"endTime":70.86201700000001,"instrument":1,"program":4},{"pitch":67,"velocity":123,"startTime":70.73270675,"endTime":70.86201700000001,"instrument":1,"program":4},{"pitch":69,"velocity":123,"startTime":70.73270675,"endTime":70.86201700000001,"instrument":1,"program":4},{"pitch":60,"velocity":123,"startTime":71.1206375,"endTime":71.37925800000001,"instrument":1,"program":4},{"pitch":64,"velocity":123,"startTime":71.1206375,"endTime":71.37925800000001,"instrument":1,"program":4},{"pitch":67,"velocity":123,"startTime":71.1206375,"endTime":71.37925800000001,"instrument":1,"program":4},{"pitch":69,"velocity":123,"startTime":71.1206375,"endTime":71.37925800000001,"instrument":1,"program":4},{"pitch":60,"velocity":123,"startTime":71.37925800000001,"endTime":71.896499,"instrument":1,"program":4},{"pitch":64,"velocity":123,"startTime":71.37925800000001,"endTime":71.896499,"instrument":1,"program":4},{"pitch":66,"velocity":123,"startTime":71.37925800000001,"endTime":71.896499,"instrument":1,"program":4},{"pitch":69,"velocity":123,"startTime":71.37925800000001,"endTime":71.896499,"instrument":1,"program":4},{"pitch":60,"velocity":123,"startTime":71.896499,"endTime":72.1551195,"instrument":1,"program":4},{"pitch":64,"velocity":123,"startTime":71.896499,"endTime":72.1551195,"instrument":1,"program":4},{"pitch":66,"velocity":123,"startTime":71.896499,"endTime":72.1551195,"instrument":1,"program":4},{"pitch":69,"velocity":123,"startTime":71.896499,"endTime":72.1551195,"instrument":1,"program":4},{"pitch":60,"velocity":123,"startTime":72.1551195,"endTime":72.41374,"instrument":1,"program":4},{"pitch":64,"velocity":123,"startTime":72.1551195,"endTime":72.41374,"instrument":1,"program":4},{"pitch":66,"velocity":123,"startTime":72.1551195,"endTime":72.41374,"instrument":1,"program":4},{"pitch":69,"velocity":123,"startTime":72.1551195,"endTime":72.41374,"instrument":1,"program":4},{"pitch":62,"velocity":123,"startTime":72.67236050000001,"endTime":72.80167075,"instrument":1,"program":4},{"pitch":66,"velocity":123,"startTime":72.67236050000001,"endTime":72.80167075,"instrument":1,"program":4},{"pitch":69,"velocity":123,"startTime":72.67236050000001,"endTime":72.80167075,"instrument":1,"program":4},{"pitch":71,"velocity":123,"startTime":72.67236050000001,"endTime":72.80167075,"instrument":1,"program":4},{"pitch":62,"velocity":123,"startTime":73.18960150000001,"endTime":73.31891175,"instrument":1,"program":4},{"pitch":66,"velocity":123,"startTime":73.18960150000001,"endTime":73.31891175,"instrument":1,"program":4},{"pitch":69,"velocity":123,"startTime":73.18960150000001,"endTime":73.31891175,"instrument":1,"program":4},{"pitch":71,"velocity":123,"startTime":73.18960150000001,"endTime":73.31891175,"instrument":1,"program":4},{"pitch":66,"velocity":123,"startTime":74.7413245,"endTime":74.87063475000001,"instrument":1,"program":4},{"pitch":68,"velocity":123,"startTime":74.7413245,"endTime":74.87063475000001,"instrument":1,"program":4},{"pitch":71,"velocity":123,"startTime":74.7413245,"endTime":74.87063475000001,"instrument":1,"program":4},{"pitch":76,"velocity":123,"startTime":74.7413245,"endTime":74.87063475000001,"instrument":1,"program":4},{"pitch":66,"velocity":123,"startTime":75.2585655,"endTime":75.38787575,"instrument":1,"program":4},{"pitch":68,"velocity":123,"startTime":75.2585655,"endTime":75.38787575,"instrument":1,"program":4},{"pitch":71,"velocity":123,"startTime":75.2585655,"endTime":75.38787575,"instrument":1,"program":4},{"pitch":76,"velocity":123,"startTime":75.2585655,"endTime":75.38787575,"instrument":1,"program":4},{"pitch":66,"velocity":123,"startTime":75.7758065,"endTime":75.90511675,"instrument":1,"program":4},{"pitch":68,"velocity":123,"startTime":75.7758065,"endTime":75.90511675,"instrument":1,"program":4},{"pitch":71,"velocity":123,"startTime":75.7758065,"endTime":75.90511675,"instrument":1,"program":4},{"pitch":76,"velocity":123,"startTime":75.7758065,"endTime":75.90511675,"instrument":1,"program":4},{"pitch":66,"velocity":123,"startTime":76.2930475,"endTime":76.42235775,"instrument":1,"program":4},{"pitch":68,"velocity":123,"startTime":76.2930475,"endTime":76.42235775,"instrument":1,"program":4},{"pitch":71,"velocity":123,"startTime":76.2930475,"endTime":76.42235775,"instrument":1,"program":4},{"pitch":76,"velocity":123,"startTime":76.2930475,"endTime":76.42235775,"instrument":1,"program":4},{"pitch":59,"velocity":123,"startTime":77.068909,"endTime":77.45683975,"instrument":1,"program":4},{"pitch":61,"velocity":123,"startTime":77.068909,"endTime":77.45683975,"instrument":1,"program":4},{"pitch":66,"velocity":123,"startTime":77.068909,"endTime":77.45683975,"instrument":1,"program":4},{"pitch":68,"velocity":123,"startTime":77.068909,"endTime":77.45683975,"instrument":1,"program":4},{"pitch":59,"velocity":123,"startTime":77.45683975,"endTime":77.58615,"instrument":1,"program":4},{"pitch":61,"velocity":123,"startTime":77.45683975,"endTime":77.58615,"instrument":1,"program":4},{"pitch":66,"velocity":123,"startTime":77.45683975,"endTime":77.58615,"instrument":1,"program":4},{"pitch":68,"velocity":123,"startTime":77.45683975,"endTime":77.58615,"instrument":1,"program":4},{"pitch":59,"velocity":123,"startTime":77.84477050000001,"endTime":77.97408075,"instrument":1,"program":4},{"pitch":61,"velocity":123,"startTime":77.84477050000001,"endTime":77.97408075,"instrument":1,"program":4},{"pitch":66,"velocity":123,"startTime":77.84477050000001,"endTime":77.97408075,"instrument":1,"program":4},{"pitch":68,"velocity":123,"startTime":77.84477050000001,"endTime":77.97408075,"instrument":1,"program":4},{"pitch":59,"velocity":123,"startTime":78.36201150000001,"endTime":78.49132175000001,"instrument":1,"program":4},{"pitch":61,"velocity":123,"startTime":78.36201150000001,"endTime":78.49132175000001,"instrument":1,"program":4},{"pitch":66,"velocity":123,"startTime":78.36201150000001,"endTime":78.49132175000001,"instrument":1,"program":4},{"pitch":68,"velocity":123,"startTime":78.36201150000001,"endTime":78.49132175000001,"instrument":1,"program":4},{"pitch":60,"velocity":123,"startTime":78.620632,"endTime":79.00856275000001,"instrument":1,"program":4},{"pitch":64,"velocity":123,"startTime":78.620632,"endTime":79.00856275000001,"instrument":1,"program":4},{"pitch":67,"velocity":123,"startTime":78.620632,"endTime":79.00856275000001,"instrument":1,"program":4},{"pitch":69,"velocity":123,"startTime":78.620632,"endTime":79.00856275000001,"instrument":1,"program":4},{"pitch":60,"velocity":123,"startTime":79.00856275000001,"endTime":79.137873,"instrument":1,"program":4},{"pitch":64,"velocity":123,"startTime":79.00856275000001,"endTime":79.137873,"instrument":1,"program":4},{"pitch":67,"velocity":123,"startTime":79.00856275000001,"endTime":79.137873,"instrument":1,"program":4},{"pitch":69,"velocity":123,"startTime":79.00856275000001,"endTime":79.137873,"instrument":1,"program":4},{"pitch":60,"velocity":123,"startTime":79.3964935,"endTime":79.655114,"instrument":1,"program":4},{"pitch":64,"velocity":123,"startTime":79.3964935,"endTime":79.655114,"instrument":1,"program":4},{"pitch":67,"velocity":123,"startTime":79.3964935,"endTime":79.655114,"instrument":1,"program":4},{"pitch":69,"velocity":123,"startTime":79.3964935,"endTime":79.655114,"instrument":1,"program":4},{"pitch":60,"velocity":123,"startTime":79.9137345,"endTime":80.04304475,"instrument":1,"program":4},{"pitch":64,"velocity":123,"startTime":79.9137345,"endTime":80.04304475,"instrument":1,"program":4},{"pitch":66,"velocity":123,"startTime":79.9137345,"endTime":80.04304475,"instrument":1,"program":4},{"pitch":69,"velocity":123,"startTime":79.9137345,"endTime":80.04304475,"instrument":1,"program":4},{"pitch":60,"velocity":123,"startTime":80.4309755,"endTime":80.56028575,"instrument":1,"program":4},{"pitch":64,"velocity":123,"startTime":80.4309755,"endTime":80.56028575,"instrument":1,"program":4},{"pitch":66,"velocity":123,"startTime":80.4309755,"endTime":80.56028575,"instrument":1,"program":4},{"pitch":69,"velocity":123,"startTime":80.4309755,"endTime":80.56028575,"instrument":1,"program":4},{"pitch":62,"velocity":123,"startTime":81.20683700000001,"endTime":81.4654575,"instrument":1,"program":4},{"pitch":66,"velocity":123,"startTime":81.20683700000001,"endTime":81.4654575,"instrument":1,"program":4},{"pitch":71,"velocity":123,"startTime":81.20683700000001,"endTime":81.4654575,"instrument":1,"program":4},{"pitch":62,"velocity":123,"startTime":81.4654575,"endTime":81.59476775,"instrument":1,"program":4},{"pitch":66,"velocity":123,"startTime":81.4654575,"endTime":81.59476775,"instrument":1,"program":4},{"pitch":71,"velocity":123,"startTime":81.4654575,"endTime":81.59476775,"instrument":1,"program":4},{"pitch":66,"velocity":123,"startTime":81.9826985,"endTime":82.49993950000001,"instrument":1,"program":4},{"pitch":71,"velocity":123,"startTime":81.9826985,"endTime":82.49993950000001,"instrument":1,"program":4},{"pitch":74,"velocity":123,"startTime":81.9826985,"endTime":82.49993950000001,"instrument":1,"program":4},{"pitch":62,"velocity":123,"startTime":82.49993950000001,"endTime":82.62924975,"instrument":1,"program":4},{"pitch":66,"velocity":123,"startTime":82.49993950000001,"endTime":82.62924975,"instrument":1,"program":4},{"pitch":71,"velocity":123,"startTime":82.49993950000001,"endTime":82.62924975,"instrument":1,"program":4},{"pitch":74,"velocity":123,"startTime":82.49993950000001,"endTime":82.62924975,"instrument":1,"program":4},{"pitch":60,"velocity":123,"startTime":66.20684800000001,"endTime":66.24995141666668,"instrument":2,"program":27},{"pitch":60,"velocity":123,"startTime":66.33615825,"endTime":66.37926166666668,"instrument":2,"program":27},{"pitch":60,"velocity":123,"startTime":66.59477875,"endTime":66.63788216666669,"instrument":2,"program":27},{"pitch":52,"velocity":123,"startTime":66.724089,"endTime":66.76719241666667,"instrument":2,"program":27},{"pitch":52,"velocity":123,"startTime":66.9827095,"endTime":67.06891633333333,"instrument":2,"program":27},{"pitch":56,"velocity":123,"startTime":67.11201975,"endTime":67.15512316666668,"instrument":2,"program":27},{"pitch":59,"velocity":123,"startTime":67.24133,"endTime":67.28443341666667,"instrument":2,"program":27},{"pitch":59,"velocity":123,"startTime":67.62926075,"endTime":67.67236416666668,"instrument":2,"program":27},{"pitch":59,"velocity":123,"startTime":67.758571,"endTime":67.80167441666669,"instrument":2,"program":27},{"pitch":59,"velocity":123,"startTime":67.88788125,"endTime":67.97408808333333,"instrument":2,"program":27},{"pitch":56,"velocity":123,"startTime":68.01719150000001,"endTime":68.14650175,"instrument":2,"program":27},{"pitch":59,"velocity":123,"startTime":68.275812,"endTime":68.31891541666668,"instrument":2,"program":27},{"pitch":59,"velocity":123,"startTime":68.66374275,"endTime":68.70684616666668,"instrument":2,"program":27},{"pitch":59,"velocity":123,"startTime":68.793053,"endTime":68.83615641666668,"instrument":2,"program":27},{"pitch":59,"velocity":123,"startTime":69.0516735,"endTime":69.13788033333333,"instrument":2,"program":27},{"pitch":59,"velocity":123,"startTime":69.310294,"endTime":69.35339741666668,"instrument":2,"program":27},{"pitch":59,"velocity":123,"startTime":69.69822475000001,"endTime":69.74132816666668,"instrument":2,"program":27},{"pitch":59,"velocity":123,"startTime":69.827535,"endTime":69.87063841666668,"instrument":2,"program":27},{"pitch":59,"velocity":123,"startTime":69.95684525,"endTime":70.04305208333334,"instrument":2,"program":27},{"pitch":59,"velocity":123,"startTime":70.0861555,"endTime":70.17236233333333,"instrument":2,"program":27},{"pitch":64,"velocity":123,"startTime":70.34477600000001,"endTime":70.38787941666668,"instrument":2,"program":27},{"pitch":64,"velocity":123,"startTime":70.47408625,"endTime":70.56029308333333,"instrument":2,"program":27},{"pitch":64,"velocity":123,"startTime":70.6033965,"endTime":70.73270675,"instrument":2,"program":27},{"pitch":60,"velocity":123,"startTime":70.86201700000001,"endTime":70.94822383333334,"instrument":2,"program":27},{"pitch":60,"velocity":123,"startTime":70.99132725,"endTime":71.07753408333333,"instrument":2,"program":27},{"pitch":60,"velocity":123,"startTime":71.1206375,"endTime":71.20684433333334,"instrument":2,"program":27},{"pitch":57,"velocity":123,"startTime":71.6378785,"endTime":71.68098191666667,"instrument":2,"program":27},{"pitch":57,"velocity":123,"startTime":71.76718875,"endTime":71.85339558333334,"instrument":2,"program":27},{"pitch":57,"velocity":123,"startTime":71.896499,"endTime":71.93960241666667,"instrument":2,"program":27},{"pitch":57,"velocity":123,"startTime":72.1551195,"endTime":72.32753316666667,"instrument":2,"program":27},{"pitch":59,"velocity":123,"startTime":72.41374,"endTime":72.45684341666667,"instrument":2,"program":27},{"pitch":59,"velocity":123,"startTime":72.54305025000001,"endTime":72.62925708333334,"instrument":2,"program":27},{"pitch":59,"velocity":123,"startTime":72.67236050000001,"endTime":72.80167075,"instrument":2,"program":27},{"pitch":59,"velocity":123,"startTime":72.80167075,"endTime":72.84477416666667,"instrument":2,"program":27},{"pitch":59,"velocity":123,"startTime":72.930981,"endTime":73.01718783333334,"instrument":2,"program":27},{"pitch":59,"velocity":123,"startTime":73.18960150000001,"endTime":73.31891175,"instrument":2,"program":27},{"pitch":59,"velocity":123,"startTime":73.83615275000001,"endTime":73.965463,"instrument":2,"program":27},{"pitch":57,"velocity":123,"startTime":73.965463,"endTime":74.05166983333334,"instrument":2,"program":27},{"pitch":57,"velocity":123,"startTime":74.09477325,"endTime":74.18098008333334,"instrument":2,"program":27},{"pitch":57,"velocity":123,"startTime":74.2240835,"endTime":74.35339375000001,"instrument":2,"program":27},{"pitch":60,"velocity":123,"startTime":74.482704,"endTime":74.56891083333333,"instrument":2,"program":27},{"pitch":60,"velocity":123,"startTime":74.7413245,"endTime":74.87063475000001,"instrument":2,"program":27},{"pitch":60,"velocity":123,"startTime":74.87063475000001,"endTime":74.95684158333334,"instrument":2,"program":27},{"pitch":59,"velocity":123,"startTime":74.99994500000001,"endTime":75.04304841666666,"instrument":2,"program":27},{"pitch":59,"velocity":123,"startTime":75.2585655,"endTime":75.38787575,"instrument":2,"program":27},{"pitch":54,"velocity":123,"startTime":75.90511675,"endTime":76.03442700000001,"instrument":2,"program":27},{"pitch":54,"velocity":123,"startTime":76.03442700000001,"endTime":76.12063383333334,"instrument":2,"program":27},{"pitch":54,"velocity":123,"startTime":76.2930475,"endTime":76.37925433333334,"instrument":2,"program":27},{"pitch":54,"velocity":123,"startTime":76.42235775,"endTime":76.551668,"instrument":2,"program":27},{"pitch":61,"velocity":123,"startTime":76.8102885,"endTime":76.85339191666667,"instrument":2,"program":27},{"pitch":61,"velocity":123,"startTime":76.93959875,"endTime":77.02580558333334,"instrument":2,"program":27},{"pitch":64,"velocity":123,"startTime":77.068909,"endTime":77.11201241666667,"instrument":2,"program":27},{"pitch":61,"velocity":123,"startTime":77.19821925000001,"endTime":77.28442608333334,"instrument":2,"program":27},{"pitch":61,"velocity":123,"startTime":77.32752950000001,"endTime":77.45683975,"instrument":2,"program":27},{"pitch":61,"velocity":123,"startTime":77.84477050000001,"endTime":77.88787391666668,"instrument":2,"program":27},{"pitch":61,"velocity":123,"startTime":77.97408075,"endTime":78.01718416666667,"instrument":2,"program":27},{"pitch":61,"velocity":123,"startTime":78.103391,"endTime":78.14649441666667,"instrument":2,"program":27},{"pitch":61,"velocity":123,"startTime":78.36201150000001,"endTime":78.44821833333334,"instrument":2,"program":27},{"pitch":60,"velocity":123,"startTime":78.620632,"endTime":78.66373541666667,"instrument":2,"program":27},{"pitch":60,"velocity":123,"startTime":78.8792525,"endTime":79.00856275000001,"instrument":2,"program":27},{"pitch":60,"velocity":123,"startTime":79.137873,"endTime":79.22407983333333,"instrument":2,"program":27},{"pitch":60,"velocity":123,"startTime":79.3964935,"endTime":79.52580375000001,"instrument":2,"program":27},{"pitch":60,"velocity":123,"startTime":79.9137345,"endTime":79.95683791666667,"instrument":2,"program":27},{"pitch":60,"velocity":123,"startTime":80.04304475,"endTime":80.12925158333334,"instrument":2,"program":27},{"pitch":60,"velocity":123,"startTime":80.17235500000001,"endTime":80.21545841666668,"instrument":2,"program":27},{"pitch":60,"velocity":123,"startTime":80.4309755,"endTime":80.51718233333334,"instrument":2,"program":27},{"pitch":59,"velocity":123,"startTime":80.68959600000001,"endTime":80.77580283333334,"instrument":2,"program":27},{"pitch":59,"velocity":123,"startTime":80.9482165,"endTime":81.07752675,"instrument":2,"program":27},{"pitch":59,"velocity":123,"startTime":81.07752675,"endTime":81.16373358333334,"instrument":2,"program":27},{"pitch":59,"velocity":123,"startTime":81.20683700000001,"endTime":81.24994041666667,"instrument":2,"program":27},{"pitch":59,"velocity":123,"startTime":81.4654575,"endTime":81.55166433333333,"instrument":2,"program":27},{"pitch":59,"velocity":123,"startTime":81.724078,"endTime":81.76718141666667,"instrument":2,"program":27},{"pitch":59,"velocity":123,"startTime":81.9826985,"endTime":82.11200875,"instrument":2,"program":27},{"pitch":57,"velocity":123,"startTime":82.11200875,"endTime":82.19821558333334,"instrument":2,"program":27},{"pitch":59,"velocity":123,"startTime":82.241319,"endTime":82.37062925000001,"instrument":2,"program":27},{"pitch":59,"velocity":123,"startTime":82.49993950000001,"endTime":82.62924975,"instrument":2,"program":27},{"pitch":56,"velocity":123,"startTime":82.62924975,"endTime":82.71545658333334,"instrument":2,"program":27},{"pitch":28,"velocity":117,"startTime":66.20684800000001,"endTime":66.33615825,"instrument":4,"program":35},{"pitch":28,"velocity":117,"startTime":66.37926166666668,"endTime":66.4654685,"instrument":4,"program":35},{"pitch":28,"velocity":117,"startTime":66.4654685,"endTime":66.59477875,"instrument":4,"program":35},{"pitch":32,"velocity":117,"startTime":68.53443250000001,"endTime":68.793053,"instrument":4,"program":35},{"pitch":37,"velocity":117,"startTime":68.793053,"endTime":68.92236325,"instrument":4,"program":35},{"pitch":33,"velocity":117,"startTime":68.96546666666669,"endTime":69.0516735,"instrument":4,"program":35},{"pitch":33,"velocity":117,"startTime":69.0516735,"endTime":69.18098375000001,"instrument":4,"program":35},{"pitch":36,"velocity":117,"startTime":71.1206375,"endTime":71.24994775,"instrument":4,"program":35},{"pitch":38,"velocity":117,"startTime":71.37925800000001,"endTime":71.50856825000001,"instrument":4,"program":35},{"pitch":38,"velocity":117,"startTime":71.55167166666666,"endTime":71.6378785,"instrument":4,"program":35},{"pitch":42,"velocity":117,"startTime":71.6378785,"endTime":71.76718875,"instrument":4,"program":35},{"pitch":35,"velocity":117,"startTime":72.41374,"endTime":72.67236050000001,"instrument":4,"program":35},{"pitch":35,"velocity":117,"startTime":72.67236050000001,"endTime":72.80167075,"instrument":4,"program":35},{"pitch":28,"velocity":117,"startTime":74.482704,"endTime":74.61201425,"instrument":4,"program":35},{"pitch":28,"velocity":117,"startTime":74.65511766666667,"endTime":74.7413245,"instrument":4,"program":35},{"pitch":28,"velocity":117,"startTime":74.7413245,"endTime":74.87063475000001,"instrument":4,"program":35},{"pitch":37,"velocity":117,"startTime":76.551668,"endTime":76.68097825000001,"instrument":4,"program":35},{"pitch":37,"velocity":117,"startTime":76.72408166666668,"endTime":76.8102885,"instrument":4,"program":35},{"pitch":37,"velocity":117,"startTime":76.8102885,"endTime":76.93959875,"instrument":4,"program":35},{"pitch":33,"velocity":117,"startTime":78.53442516666667,"endTime":78.620632,"instrument":4,"program":35},{"pitch":36,"velocity":117,"startTime":78.620632,"endTime":78.74994225,"instrument":4,"program":35},{"pitch":36,"velocity":117,"startTime":78.74994225,"endTime":78.8792525,"instrument":4,"program":35},{"pitch":35,"velocity":117,"startTime":78.8792525,"endTime":79.00856275000001,"instrument":4,"program":35},{"pitch":35,"velocity":117,"startTime":80.68959600000001,"endTime":80.81890625,"instrument":4,"program":35},{"pitch":35,"velocity":117,"startTime":80.86200966666667,"endTime":80.9482165,"instrument":4,"program":35},{"pitch":35,"velocity":117,"startTime":80.9482165,"endTime":81.07752675,"instrument":4,"program":35},{"pitch":38,"velocity":117,"startTime":82.241319,"endTime":82.37062925000001,"instrument":4,"program":35},{"pitch":38,"velocity":117,"startTime":82.41373266666668,"endTime":82.49993950000001,"instrument":4,"program":35},{"pitch":36,"velocity":105,"startTime":82.75856,"endTime":82.84476683333334,"isDrum":true},{"pitch":42,"velocity":105,"startTime":82.75856,"endTime":82.84476683333334,"isDrum":true},{"pitch":49,"velocity":105,"startTime":82.75856,"endTime":82.84476683333334,"isDrum":true},{"pitch":42,"velocity":105,"startTime":83.01718050000001,"endTime":83.10338733333334,"isDrum":true},{"pitch":38,"velocity":105,"startTime":83.275801,"endTime":83.36200783333334,"isDrum":true},{"pitch":39,"velocity":105,"startTime":83.275801,"endTime":83.36200783333334,"isDrum":true},{"pitch":42,"velocity":105,"startTime":83.275801,"endTime":83.36200783333334,"isDrum":true},{"pitch":69,"velocity":105,"startTime":83.275801,"endTime":83.36200783333334,"isDrum":true},{"pitch":42,"velocity":105,"startTime":83.53442150000001,"endTime":83.62062833333334,"isDrum":true},{"pitch":36,"velocity":105,"startTime":83.793042,"endTime":83.87924883333334,"isDrum":true},{"pitch":42,"velocity":105,"startTime":83.793042,"endTime":83.87924883333334,"isDrum":true},{"pitch":69,"velocity":105,"startTime":83.793042,"endTime":83.87924883333334,"isDrum":true},{"pitch":42,"velocity":105,"startTime":84.0516625,"endTime":84.13786933333334,"isDrum":true},{"pitch":38,"velocity":105,"startTime":84.310283,"endTime":84.39648983333333,"isDrum":true},{"pitch":39,"velocity":105,"startTime":84.310283,"endTime":84.39648983333333,"isDrum":true},{"pitch":42,"velocity":105,"startTime":84.310283,"endTime":84.39648983333333,"isDrum":true},{"pitch":69,"velocity":105,"startTime":84.310283,"endTime":84.39648983333333,"isDrum":true},{"pitch":42,"velocity":105,"startTime":84.5689035,"endTime":84.65511033333334,"isDrum":true},{"pitch":36,"velocity":105,"startTime":84.82752400000001,"endTime":84.91373083333333,"isDrum":true},{"pitch":42,"velocity":105,"startTime":84.82752400000001,"endTime":84.91373083333333,"isDrum":true},{"pitch":42,"velocity":105,"startTime":85.0861445,"endTime":85.17235133333334,"isDrum":true},{"pitch":38,"velocity":105,"startTime":85.34476500000001,"endTime":85.43097183333334,"isDrum":true},{"pitch":39,"velocity":105,"startTime":85.34476500000001,"endTime":85.43097183333334,"isDrum":true},{"pitch":42,"velocity":105,"startTime":85.34476500000001,"endTime":85.43097183333334,"isDrum":true},{"pitch":69,"velocity":105,"startTime":85.34476500000001,"endTime":85.43097183333334,"isDrum":true},{"pitch":36,"velocity":105,"startTime":85.6033855,"endTime":85.68959233333334,"isDrum":true},{"pitch":42,"velocity":105,"startTime":85.6033855,"endTime":85.68959233333334,"isDrum":true},{"pitch":36,"velocity":105,"startTime":85.86200600000001,"endTime":85.94821283333334,"isDrum":true},{"pitch":42,"velocity":105,"startTime":85.86200600000001,"endTime":85.94821283333334,"isDrum":true},{"pitch":42,"velocity":105,"startTime":86.1206265,"endTime":86.20683333333334,"isDrum":true},{"pitch":38,"velocity":105,"startTime":86.379247,"endTime":86.46545383333334,"isDrum":true},{"pitch":39,"velocity":105,"startTime":86.379247,"endTime":86.46545383333334,"isDrum":true},{"pitch":42,"velocity":105,"startTime":86.379247,"endTime":86.46545383333334,"isDrum":true},{"pitch":69,"velocity":105,"startTime":86.379247,"endTime":86.46545383333334,"isDrum":true},{"pitch":36,"velocity":105,"startTime":86.6378675,"endTime":86.72407433333333,"isDrum":true},{"pitch":42,"velocity":105,"startTime":86.6378675,"endTime":86.72407433333333,"isDrum":true},{"pitch":36,"velocity":105,"startTime":86.896488,"endTime":86.98269483333334,"isDrum":true},{"pitch":42,"velocity":105,"startTime":86.896488,"endTime":86.98269483333334,"isDrum":true},{"pitch":42,"velocity":105,"startTime":87.15510850000001,"endTime":87.24131533333333,"isDrum":true},{"pitch":38,"velocity":105,"startTime":87.413729,"endTime":87.49993583333334,"isDrum":true},{"pitch":39,"velocity":105,"startTime":87.413729,"endTime":87.49993583333334,"isDrum":true},{"pitch":42,"velocity":105,"startTime":87.413729,"endTime":87.49993583333334,"isDrum":true},{"pitch":69,"velocity":105,"startTime":87.413729,"endTime":87.49993583333334,"isDrum":true},{"pitch":36,"velocity":105,"startTime":87.67234950000001,"endTime":87.75855633333335,"isDrum":true},{"pitch":42,"velocity":105,"startTime":87.67234950000001,"endTime":87.75855633333335,"isDrum":true},{"pitch":36,"velocity":105,"startTime":87.93097,"endTime":88.01717683333334,"isDrum":true},{"pitch":42,"velocity":105,"startTime":87.93097,"endTime":88.01717683333334,"isDrum":true},{"pitch":42,"velocity":105,"startTime":88.18959050000001,"endTime":88.27579733333334,"isDrum":true},{"pitch":38,"velocity":105,"startTime":88.448211,"endTime":88.53441783333334,"isDrum":true},{"pitch":39,"velocity":105,"startTime":88.448211,"endTime":88.53441783333334,"isDrum":true},{"pitch":42,"velocity":105,"startTime":88.448211,"endTime":88.53441783333334,"isDrum":true},{"pitch":69,"velocity":105,"startTime":88.448211,"endTime":88.53441783333334,"isDrum":true},{"pitch":36,"velocity":105,"startTime":88.7068315,"endTime":88.79303833333334,"isDrum":true},{"pitch":42,"velocity":105,"startTime":88.7068315,"endTime":88.79303833333334,"isDrum":true},{"pitch":36,"velocity":105,"startTime":88.965452,"endTime":89.05165883333333,"isDrum":true},{"pitch":42,"velocity":105,"startTime":88.965452,"endTime":89.05165883333333,"isDrum":true},{"pitch":42,"velocity":105,"startTime":89.2240725,"endTime":89.31027933333334,"isDrum":true},{"pitch":38,"velocity":105,"startTime":89.48269300000001,"endTime":89.56889983333333,"isDrum":true},{"pitch":39,"velocity":105,"startTime":89.48269300000001,"endTime":89.56889983333333,"isDrum":true},{"pitch":42,"velocity":105,"startTime":89.48269300000001,"endTime":89.56889983333333,"isDrum":true},{"pitch":69,"velocity":105,"startTime":89.48269300000001,"endTime":89.56889983333333,"isDrum":true},{"pitch":36,"velocity":105,"startTime":89.7413135,"endTime":89.82752033333334,"isDrum":true},{"pitch":42,"velocity":105,"startTime":89.7413135,"endTime":89.82752033333334,"isDrum":true},{"pitch":36,"velocity":105,"startTime":89.99993400000001,"endTime":90.08614083333333,"isDrum":true},{"pitch":42,"velocity":105,"startTime":89.99993400000001,"endTime":90.08614083333333,"isDrum":true},{"pitch":42,"velocity":105,"startTime":90.2585545,"endTime":90.34476133333334,"isDrum":true},{"pitch":38,"velocity":105,"startTime":90.51717500000001,"endTime":90.60338183333334,"isDrum":true},{"pitch":39,"velocity":105,"startTime":90.51717500000001,"endTime":90.60338183333334,"isDrum":true},{"pitch":42,"velocity":105,"startTime":90.51717500000001,"endTime":90.60338183333334,"isDrum":true},{"pitch":69,"velocity":105,"startTime":90.51717500000001,"endTime":90.60338183333334,"isDrum":true},{"pitch":36,"velocity":105,"startTime":90.7757955,"endTime":90.86200233333334,"isDrum":true},{"pitch":42,"velocity":105,"startTime":90.7757955,"endTime":90.86200233333334,"isDrum":true},{"pitch":36,"velocity":105,"startTime":91.03441600000001,"endTime":91.12062283333334,"isDrum":true},{"pitch":42,"velocity":105,"startTime":91.03441600000001,"endTime":91.12062283333334,"isDrum":true},{"pitch":42,"velocity":105,"startTime":91.2930365,"endTime":91.37924333333333,"isDrum":true},{"pitch":38,"velocity":105,"startTime":91.551657,"endTime":91.63786383333334,"isDrum":true},{"pitch":39,"velocity":105,"startTime":91.551657,"endTime":91.63786383333334,"isDrum":true},{"pitch":42,"velocity":105,"startTime":91.551657,"endTime":91.63786383333334,"isDrum":true},{"pitch":69,"velocity":105,"startTime":91.551657,"endTime":91.63786383333334,"isDrum":true},{"pitch":36,"velocity":105,"startTime":91.81027750000001,"endTime":91.89648433333333,"isDrum":true},{"pitch":42,"velocity":105,"startTime":91.81027750000001,"endTime":91.89648433333333,"isDrum":true},{"pitch":36,"velocity":105,"startTime":92.068898,"endTime":92.15510483333334,"isDrum":true},{"pitch":42,"velocity":105,"startTime":92.068898,"endTime":92.15510483333334,"isDrum":true},{"pitch":42,"velocity":105,"startTime":92.32751850000001,"endTime":92.41372533333333,"isDrum":true},{"pitch":38,"velocity":105,"startTime":92.586139,"endTime":92.67234583333334,"isDrum":true},{"pitch":39,"velocity":105,"startTime":92.586139,"endTime":92.67234583333334,"isDrum":true},{"pitch":42,"velocity":105,"startTime":92.586139,"endTime":92.67234583333334,"isDrum":true},{"pitch":69,"velocity":105,"startTime":92.586139,"endTime":92.67234583333334,"isDrum":true},{"pitch":36,"velocity":105,"startTime":92.84475950000001,"endTime":92.93096633333334,"isDrum":true},{"pitch":42,"velocity":105,"startTime":92.84475950000001,"endTime":92.93096633333334,"isDrum":true},{"pitch":36,"velocity":105,"startTime":93.10338,"endTime":93.18958683333334,"isDrum":true},{"pitch":42,"velocity":105,"startTime":93.10338,"endTime":93.18958683333334,"isDrum":true},{"pitch":42,"velocity":105,"startTime":93.36200050000001,"endTime":93.44820733333334,"isDrum":true},{"pitch":38,"velocity":105,"startTime":93.620621,"endTime":93.70682783333334,"isDrum":true},{"pitch":39,"velocity":105,"startTime":93.620621,"endTime":93.70682783333334,"isDrum":true},{"pitch":42,"velocity":105,"startTime":93.620621,"endTime":93.70682783333334,"isDrum":true},{"pitch":69,"velocity":105,"startTime":93.620621,"endTime":93.70682783333334,"isDrum":true},{"pitch":36,"velocity":105,"startTime":93.8792415,"endTime":93.96544833333334,"isDrum":true},{"pitch":42,"velocity":105,"startTime":93.8792415,"endTime":93.96544833333334,"isDrum":true},{"pitch":36,"velocity":105,"startTime":94.137862,"endTime":94.22406883333333,"isDrum":true},{"pitch":42,"velocity":105,"startTime":94.137862,"endTime":94.22406883333333,"isDrum":true},{"pitch":42,"velocity":105,"startTime":94.3964825,"endTime":94.48268933333334,"isDrum":true},{"pitch":38,"velocity":105,"startTime":94.65510300000001,"endTime":94.74130983333333,"isDrum":true},{"pitch":39,"velocity":105,"startTime":94.65510300000001,"endTime":94.74130983333333,"isDrum":true},{"pitch":42,"velocity":105,"startTime":94.65510300000001,"endTime":94.74130983333333,"isDrum":true},{"pitch":69,"velocity":105,"startTime":94.65510300000001,"endTime":94.74130983333333,"isDrum":true},{"pitch":36,"velocity":105,"startTime":94.9137235,"endTime":94.99993033333334,"isDrum":true},{"pitch":42,"velocity":105,"startTime":94.9137235,"endTime":94.99993033333334,"isDrum":true},{"pitch":36,"velocity":105,"startTime":95.17234400000001,"endTime":95.25855083333335,"isDrum":true},{"pitch":42,"velocity":105,"startTime":95.17234400000001,"endTime":95.25855083333335,"isDrum":true},{"pitch":42,"velocity":105,"startTime":95.4309645,"endTime":95.51717133333334,"isDrum":true},{"pitch":38,"velocity":105,"startTime":95.68958500000001,"endTime":95.77579183333334,"isDrum":true},{"pitch":39,"velocity":105,"startTime":95.68958500000001,"endTime":95.77579183333334,"isDrum":true},{"pitch":42,"velocity":105,"startTime":95.68958500000001,"endTime":95.77579183333334,"isDrum":true},{"pitch":69,"velocity":105,"startTime":95.68958500000001,"endTime":95.77579183333334,"isDrum":true},{"pitch":36,"velocity":105,"startTime":95.9482055,"endTime":96.03441233333334,"isDrum":true},{"pitch":42,"velocity":105,"startTime":95.9482055,"endTime":96.03441233333334,"isDrum":true},{"pitch":36,"velocity":105,"startTime":96.206826,"endTime":96.29303283333334,"isDrum":true},{"pitch":42,"velocity":105,"startTime":96.206826,"endTime":96.29303283333334,"isDrum":true},{"pitch":42,"velocity":105,"startTime":96.4654465,"endTime":96.55165333333333,"isDrum":true},{"pitch":38,"velocity":105,"startTime":96.724067,"endTime":96.81027383333334,"isDrum":true},{"pitch":39,"velocity":105,"startTime":96.724067,"endTime":96.81027383333334,"isDrum":true},{"pitch":42,"velocity":105,"startTime":96.724067,"endTime":96.81027383333334,"isDrum":true},{"pitch":69,"velocity":105,"startTime":96.724067,"endTime":96.81027383333334,"isDrum":true},{"pitch":36,"velocity":105,"startTime":96.98268750000001,"endTime":97.06889433333333,"isDrum":true},{"pitch":42,"velocity":105,"startTime":96.98268750000001,"endTime":97.06889433333333,"isDrum":true},{"pitch":36,"velocity":105,"startTime":97.241308,"endTime":97.32751483333334,"isDrum":true},{"pitch":42,"velocity":105,"startTime":97.241308,"endTime":97.32751483333334,"isDrum":true},{"pitch":42,"velocity":105,"startTime":97.49992850000001,"endTime":97.58613533333335,"isDrum":true},{"pitch":38,"velocity":105,"startTime":97.758549,"endTime":97.84475583333334,"isDrum":true},{"pitch":39,"velocity":105,"startTime":97.758549,"endTime":97.84475583333334,"isDrum":true},{"pitch":42,"velocity":105,"startTime":97.758549,"endTime":97.84475583333334,"isDrum":true},{"pitch":69,"velocity":105,"startTime":97.758549,"endTime":97.84475583333334,"isDrum":true},{"pitch":36,"velocity":105,"startTime":98.01716950000001,"endTime":98.10337633333334,"isDrum":true},{"pitch":42,"velocity":105,"startTime":98.01716950000001,"endTime":98.10337633333334,"isDrum":true},{"pitch":63,"velocity":123,"startTime":84.0516625,"endTime":84.18097275000001,"instrument":1,"program":4},{"pitch":66,"velocity":123,"startTime":84.0516625,"endTime":84.18097275000001,"instrument":1,"program":4},{"pitch":68,"velocity":123,"startTime":84.0516625,"endTime":84.18097275000001,"instrument":1,"program":4},{"pitch":71,"velocity":123,"startTime":84.0516625,"endTime":84.18097275000001,"instrument":1,"program":4},{"pitch":56,"velocity":123,"startTime":85.0861445,"endTime":85.21545475,"instrument":1,"program":4},{"pitch":61,"velocity":123,"startTime":85.0861445,"endTime":85.21545475,"instrument":1,"program":4},{"pitch":64,"velocity":123,"startTime":85.0861445,"endTime":85.21545475,"instrument":1,"program":4},{"pitch":56,"velocity":123,"startTime":85.34476500000001,"endTime":85.6033855,"instrument":1,"program":4},{"pitch":61,"velocity":123,"startTime":85.34476500000001,"endTime":85.6033855,"instrument":1,"program":4},{"pitch":64,"velocity":123,"startTime":85.34476500000001,"endTime":85.6033855,"instrument":1,"program":4},{"pitch":56,"velocity":123,"startTime":86.1206265,"endTime":86.24993675,"instrument":1,"program":4},{"pitch":61,"velocity":123,"startTime":86.1206265,"endTime":86.24993675,"instrument":1,"program":4},{"pitch":64,"velocity":123,"startTime":86.1206265,"endTime":86.24993675,"instrument":1,"program":4},{"pitch":57,"velocity":123,"startTime":87.15510850000001,"endTime":87.28441875,"instrument":1,"program":4},{"pitch":60,"velocity":123,"startTime":87.15510850000001,"endTime":87.28441875,"instrument":1,"program":4},{"pitch":64,"velocity":123,"startTime":87.15510850000001,"endTime":87.28441875,"instrument":1,"program":4},{"pitch":57,"velocity":123,"startTime":88.18959050000001,"endTime":88.31890075000001,"instrument":1,"program":4},{"pitch":60,"velocity":123,"startTime":88.18959050000001,"endTime":88.31890075000001,"instrument":1,"program":4},{"pitch":64,"velocity":123,"startTime":88.18959050000001,"endTime":88.31890075000001,"instrument":1,"program":4},{"pitch":57,"velocity":123,"startTime":89.2240725,"endTime":89.35338275000001,"instrument":1,"program":4},{"pitch":59,"velocity":123,"startTime":89.2240725,"endTime":89.35338275000001,"instrument":1,"program":4},{"pitch":62,"velocity":123,"startTime":89.2240725,"endTime":89.35338275000001,"instrument":1,"program":4},{"pitch":66,"velocity":123,"startTime":89.2240725,"endTime":89.35338275000001,"instrument":1,"program":4},{"pitch":57,"velocity":123,"startTime":89.7413135,"endTime":89.87062375000001,"instrument":1,"program":4},{"pitch":59,"velocity":123,"startTime":89.7413135,"endTime":89.87062375000001,"instrument":1,"program":4},{"pitch":62,"velocity":123,"startTime":89.7413135,"endTime":89.87062375000001,"instrument":1,"program":4},{"pitch":66,"velocity":123,"startTime":89.7413135,"endTime":89.87062375000001,"instrument":1,"program":4},{"pitch":57,"velocity":123,"startTime":90.7757955,"endTime":90.90510575,"instrument":1,"program":4},{"pitch":59,"velocity":123,"startTime":90.7757955,"endTime":90.90510575,"instrument":1,"program":4},{"pitch":62,"velocity":123,"startTime":90.7757955,"endTime":90.90510575,"instrument":1,"program":4},{"pitch":66,"velocity":123,"startTime":90.7757955,"endTime":90.90510575,"instrument":1,"program":4},{"pitch":59,"velocity":123,"startTime":91.03441600000001,"endTime":91.2930365,"instrument":1,"program":4},{"pitch":62,"velocity":123,"startTime":91.03441600000001,"endTime":91.2930365,"instrument":1,"program":4},{"pitch":66,"velocity":123,"startTime":91.03441600000001,"endTime":91.2930365,"instrument":1,"program":4},{"pitch":59,"velocity":123,"startTime":92.32751850000001,"endTime":92.45682875,"instrument":1,"program":4},{"pitch":62,"velocity":123,"startTime":92.32751850000001,"endTime":92.45682875,"instrument":1,"program":4},{"pitch":66,"velocity":123,"startTime":92.32751850000001,"endTime":92.45682875,"instrument":1,"program":4},{"pitch":60,"velocity":123,"startTime":93.36200050000001,"endTime":93.49131075000001,"instrument":1,"program":4},{"pitch":64,"velocity":123,"startTime":93.36200050000001,"endTime":93.49131075000001,"instrument":1,"program":4},{"pitch":66,"velocity":123,"startTime":93.36200050000001,"endTime":93.49131075000001,"instrument":1,"program":4},{"pitch":59,"velocity":123,"startTime":94.137862,"endTime":94.3964825,"instrument":1,"program":4},{"pitch":61,"velocity":123,"startTime":94.137862,"endTime":94.3964825,"instrument":1,"program":4},{"pitch":64,"velocity":123,"startTime":94.137862,"endTime":94.3964825,"instrument":1,"program":4},{"pitch":60,"velocity":123,"startTime":95.4309645,"endTime":95.56027475,"instrument":1,"program":4},{"pitch":64,"velocity":123,"startTime":95.4309645,"endTime":95.56027475,"instrument":1,"program":4},{"pitch":66,"velocity":123,"startTime":95.4309645,"endTime":95.56027475,"instrument":1,"program":4},{"pitch":60,"velocity":123,"startTime":95.9482055,"endTime":96.07751575,"instrument":1,"program":4},{"pitch":64,"velocity":123,"startTime":95.9482055,"endTime":96.07751575,"instrument":1,"program":4},{"pitch":66,"velocity":123,"startTime":95.9482055,"endTime":96.07751575,"instrument":1,"program":4},{"pitch":60,"velocity":123,"startTime":96.206826,"endTime":96.59475675,"instrument":1,"program":4},{"pitch":64,"velocity":123,"startTime":96.206826,"endTime":96.59475675,"instrument":1,"program":4},{"pitch":66,"velocity":123,"startTime":96.206826,"endTime":96.59475675,"instrument":1,"program":4},{"pitch":60,"velocity":123,"startTime":96.724067,"endTime":97.11199775,"instrument":1,"program":4},{"pitch":64,"velocity":123,"startTime":96.724067,"endTime":97.11199775,"instrument":1,"program":4},{"pitch":66,"velocity":123,"startTime":96.724067,"endTime":97.11199775,"instrument":1,"program":4},{"pitch":57,"velocity":123,"startTime":97.49992850000001,"endTime":97.62923875,"instrument":1,"program":4},{"pitch":62,"velocity":123,"startTime":97.49992850000001,"endTime":97.62923875,"instrument":1,"program":4},{"pitch":66,"velocity":123,"startTime":97.49992850000001,"endTime":97.62923875,"instrument":1,"program":4},{"pitch":57,"velocity":123,"startTime":98.5344105,"endTime":98.66372075000001,"instrument":1,"program":4},{"pitch":62,"velocity":123,"startTime":98.5344105,"endTime":98.66372075000001,"instrument":1,"program":4},{"pitch":66,"velocity":123,"startTime":98.5344105,"endTime":98.66372075000001,"instrument":1,"program":4},{"pitch":59,"velocity":123,"startTime":83.01718050000001,"endTime":83.06028391666668,"instrument":2,"program":27},{"pitch":59,"velocity":123,"startTime":83.275801,"endTime":83.40511125,"instrument":2,"program":27},{"pitch":59,"velocity":123,"startTime":83.53442150000001,"endTime":83.66373175000001,"instrument":2,"program":27},{"pitch":59,"velocity":123,"startTime":83.793042,"endTime":83.83614541666667,"instrument":2,"program":27},{"pitch":59,"velocity":123,"startTime":84.0516625,"endTime":84.09476591666667,"instrument":2,"program":27},{"pitch":59,"velocity":123,"startTime":84.310283,"endTime":84.43959325,"instrument":2,"program":27},{"pitch":64,"velocity":123,"startTime":84.43959325,"endTime":84.52580008333334,"instrument":2,"program":27},{"pitch":59,"velocity":123,"startTime":84.5689035,"endTime":84.65511033333334,"instrument":2,"program":27},{"pitch":61,"velocity":123,"startTime":85.0861445,"endTime":85.12924791666667,"instrument":2,"program":27},{"pitch":61,"velocity":123,"startTime":85.21545475,"endTime":85.30166158333334,"instrument":2,"program":27},{"pitch":61,"velocity":123,"startTime":85.34476500000001,"endTime":85.47407525,"instrument":2,"program":27},{"pitch":61,"velocity":123,"startTime":85.6033855,"endTime":85.73269575,"instrument":2,"program":27},{"pitch":61,"velocity":123,"startTime":85.86200600000001,"endTime":85.99131625000001,"instrument":2,"program":27},{"pitch":61,"velocity":123,"startTime":86.1206265,"endTime":86.24993675,"instrument":2,"program":27},{"pitch":61,"velocity":123,"startTime":86.379247,"endTime":86.50855725000001,"instrument":2,"program":27},{"pitch":64,"velocity":123,"startTime":86.50855725000001,"endTime":86.6378675,"instrument":2,"program":27},{"pitch":60,"velocity":123,"startTime":86.896488,"endTime":87.02579825000001,"instrument":2,"program":27},{"pitch":60,"velocity":123,"startTime":87.02579825000001,"endTime":87.15510850000001,"instrument":2,"program":27},{"pitch":60,"velocity":123,"startTime":87.15510850000001,"endTime":87.28441875,"instrument":2,"program":27},{"pitch":60,"velocity":123,"startTime":87.413729,"endTime":87.54303925,"instrument":2,"program":27},{"pitch":60,"velocity":123,"startTime":87.54303925,"endTime":87.67234950000001,"instrument":2,"program":27},{"pitch":60,"velocity":123,"startTime":88.18959050000001,"endTime":88.23269391666668,"instrument":2,"program":27},{"pitch":60,"velocity":123,"startTime":88.31890075000001,"endTime":88.40510758333333,"instrument":2,"program":27},{"pitch":62,"velocity":123,"startTime":88.448211,"endTime":88.57752125,"instrument":2,"program":27},{"pitch":60,"velocity":123,"startTime":88.57752125,"endTime":88.7068315,"instrument":2,"program":27},{"pitch":59,"velocity":123,"startTime":89.2240725,"endTime":89.26717591666667,"instrument":2,"program":27},{"pitch":59,"velocity":123,"startTime":89.35338275000001,"endTime":89.43958958333334,"instrument":2,"program":27},{"pitch":59,"velocity":123,"startTime":89.48269300000001,"endTime":89.61200325,"instrument":2,"program":27},{"pitch":59,"velocity":123,"startTime":89.61200325,"endTime":89.7413135,"instrument":2,"program":27},{"pitch":62,"velocity":123,"startTime":89.99993400000001,"endTime":90.04303741666668,"instrument":2,"program":27},{"pitch":62,"velocity":123,"startTime":90.2585545,"endTime":90.30165791666667,"instrument":2,"program":27},{"pitch":62,"velocity":123,"startTime":90.51717500000001,"endTime":90.64648525000001,"instrument":2,"program":27},{"pitch":62,"velocity":123,"startTime":90.64648525000001,"endTime":90.7757955,"instrument":2,"program":27},{"pitch":56,"velocity":123,"startTime":91.2930365,"endTime":91.33613991666667,"instrument":2,"program":27},{"pitch":56,"velocity":123,"startTime":91.42234675,"endTime":91.551657,"instrument":2,"program":27},{"pitch":59,"velocity":123,"startTime":91.551657,"endTime":91.68096725000001,"instrument":2,"program":27},{"pitch":59,"velocity":123,"startTime":91.81027750000001,"endTime":91.93958775,"instrument":2,"program":27},{"pitch":59,"velocity":123,"startTime":91.93958775,"endTime":92.02579458333334,"instrument":2,"program":27},{"pitch":59,"velocity":123,"startTime":92.068898,"endTime":92.15510483333334,"instrument":2,"program":27},{"pitch":59,"velocity":123,"startTime":92.19820825000001,"endTime":92.32751850000001,"instrument":2,"program":27},{"pitch":59,"velocity":123,"startTime":92.32751850000001,"endTime":92.45682875,"instrument":2,"program":27},{"pitch":59,"velocity":123,"startTime":92.586139,"endTime":92.71544925,"instrument":2,"program":27},{"pitch":59,"velocity":123,"startTime":92.71544925,"endTime":92.84475950000001,"instrument":2,"program":27},{"pitch":61,"velocity":123,"startTime":93.36200050000001,"endTime":93.40510391666668,"instrument":2,"program":27},{"pitch":61,"velocity":123,"startTime":93.49131075000001,"endTime":93.57751758333333,"instrument":2,"program":27},{"pitch":61,"velocity":123,"startTime":93.620621,"endTime":93.74993125,"instrument":2,"program":27},{"pitch":61,"velocity":123,"startTime":93.74993125,"endTime":93.8792415,"instrument":2,"program":27},{"pitch":61,"velocity":123,"startTime":94.3964825,"endTime":94.43958591666667,"instrument":2,"program":27},{"pitch":61,"velocity":123,"startTime":94.52579275000001,"endTime":94.65510300000001,"instrument":2,"program":27},{"pitch":61,"velocity":123,"startTime":94.65510300000001,"endTime":94.78441325,"instrument":2,"program":27},{"pitch":61,"velocity":123,"startTime":94.9137235,"endTime":95.04303375,"instrument":2,"program":27},{"pitch":60,"velocity":123,"startTime":95.4309645,"endTime":95.47406791666667,"instrument":2,"program":27},{"pitch":60,"velocity":123,"startTime":95.56027475,"endTime":95.64648158333334,"instrument":2,"program":27},{"pitch":60,"velocity":123,"startTime":95.68958500000001,"endTime":95.81889525000001,"instrument":2,"program":27},{"pitch":60,"velocity":123,"startTime":95.9482055,"endTime":96.07751575,"instrument":2,"program":27},{"pitch":60,"velocity":123,"startTime":96.206826,"endTime":96.33613625000001,"instrument":2,"program":27},{"pitch":62,"velocity":123,"startTime":96.33613625000001,"endTime":96.4654465,"instrument":2,"program":27},{"pitch":60,"velocity":123,"startTime":96.724067,"endTime":96.85337725000001,"instrument":2,"program":27},{"pitch":60,"velocity":123,"startTime":96.85337725000001,"endTime":96.98268750000001,"instrument":2,"program":27},{"pitch":59,"velocity":123,"startTime":97.49992850000001,"endTime":97.54303191666668,"instrument":2,"program":27},{"pitch":59,"velocity":123,"startTime":97.62923875,"endTime":97.71544558333333,"instrument":2,"program":27},{"pitch":59,"velocity":123,"startTime":97.758549,"endTime":97.88785925,"instrument":2,"program":27},{"pitch":59,"velocity":123,"startTime":97.88785925,"endTime":98.01716950000001,"instrument":2,"program":27},{"pitch":59,"velocity":123,"startTime":98.5344105,"endTime":98.57751391666667,"instrument":2,"program":27},{"pitch":59,"velocity":123,"startTime":98.66372075000001,"endTime":98.74992758333335,"instrument":2,"program":27},{"pitch":57,"velocity":123,"startTime":98.793031,"endTime":98.83613441666667,"instrument":2,"program":27},{"pitch":57,"velocity":123,"startTime":98.92234125,"endTime":98.96544466666667,"instrument":2,"program":27},{"pitch":59,"velocity":123,"startTime":99.0516515,"endTime":99.13785833333334,"instrument":2,"program":27},{"pitch":40,"velocity":117,"startTime":82.75856,"endTime":82.88787025,"instrument":4,"program":35},{"pitch":40,"velocity":117,"startTime":83.01718050000001,"endTime":83.275801,"instrument":4,"program":35},{"pitch":28,"velocity":117,"startTime":83.66373175000001,"endTime":83.74993858333333,"instrument":4,"program":35},{"pitch":32,"velocity":117,"startTime":83.793042,"endTime":83.92235225,"instrument":4,"program":35},{"pitch":32,"velocity":117,"startTime":84.0516625,"endTime":84.310283,"instrument":4,"program":35},{"pitch":32,"velocity":117,"startTime":84.310283,"endTime":84.5689035,"instrument":4,"program":35},{"pitch":32,"velocity":117,"startTime":84.5689035,"endTime":84.82752400000001,"instrument":4,"program":35},{"pitch":36,"velocity":117,"startTime":86.896488,"endTime":87.15510850000001,"instrument":4,"program":35},{"pitch":36,"velocity":117,"startTime":87.15510850000001,"endTime":87.413729,"instrument":4,"program":35},{"pitch":38,"velocity":117,"startTime":87.93097,"endTime":88.06028025,"instrument":4,"program":35},{"pitch":38,"velocity":117,"startTime":88.06028025,"endTime":88.18959050000001,"instrument":4,"program":35},{"pitch":45,"velocity":117,"startTime":88.18959050000001,"endTime":88.448211,"instrument":4,"program":35},{"pitch":38,"velocity":117,"startTime":88.448211,"endTime":88.57752125,"instrument":4,"program":35},{"pitch":38,"velocity":117,"startTime":88.57752125,"endTime":88.7068315,"instrument":4,"program":35},{"pitch":38,"velocity":117,"startTime":88.83614175000001,"endTime":88.965452,"instrument":4,"program":35},{"pitch":35,"velocity":117,"startTime":88.965452,"endTime":89.09476225,"instrument":4,"program":35},{"pitch":35,"velocity":117,"startTime":89.09476225,"endTime":89.2240725,"instrument":4,"program":35},{"pitch":30,"velocity":117,"startTime":89.2240725,"endTime":89.39648616666668,"instrument":4,"program":35},{"pitch":35,"velocity":117,"startTime":90.2585545,"endTime":90.51717500000001,"instrument":4,"program":35},{"pitch":40,"velocity":117,"startTime":90.51717500000001,"endTime":90.7757955,"instrument":4,"program":35},{"pitch":35,"velocity":117,"startTime":90.7757955,"endTime":91.03441600000001,"instrument":4,"program":35},{"pitch":40,"velocity":117,"startTime":91.03441600000001,"endTime":91.16372625000001,"instrument":4,"program":35},{"pitch":35,"velocity":117,"startTime":91.16372625000001,"endTime":91.2930365,"instrument":4,"program":35},{"pitch":40,"velocity":117,"startTime":91.2930365,"endTime":91.42234675,"instrument":4,"program":35},{"pitch":32,"velocity":117,"startTime":92.84475950000001,"endTime":93.10338,"instrument":4,"program":35},{"pitch":37,"velocity":117,"startTime":93.10338,"endTime":93.23269025,"instrument":4,"program":35},{"pitch":37,"velocity":117,"startTime":93.23269025,"endTime":93.36200050000001,"instrument":4,"program":35},{"pitch":32,"velocity":117,"startTime":93.36200050000001,"endTime":93.53441416666668,"instrument":4,"program":35},{"pitch":33,"velocity":117,"startTime":94.9137235,"endTime":95.17234400000001,"instrument":4,"program":35},{"pitch":36,"velocity":117,"startTime":95.17234400000001,"endTime":95.30165425,"instrument":4,"program":35},{"pitch":36,"velocity":117,"startTime":95.30165425,"endTime":95.4309645,"instrument":4,"program":35},{"pitch":36,"velocity":117,"startTime":95.4309645,"endTime":95.60337816666667,"instrument":4,"program":35},{"pitch":38,"velocity":117,"startTime":96.07751575,"endTime":96.206826,"instrument":4,"program":35},{"pitch":42,"velocity":117,"startTime":96.206826,"endTime":96.33613625000001,"instrument":4,"program":35},{"pitch":42,"velocity":117,"startTime":96.33613625000001,"endTime":96.4654465,"instrument":4,"program":35},{"pitch":36,"velocity":117,"startTime":96.4654465,"endTime":96.724067,"instrument":4,"program":35},{"pitch":38,"velocity":117,"startTime":96.724067,"endTime":96.85337725000001,"instrument":4,"program":35},{"pitch":38,"velocity":117,"startTime":96.98268750000001,"endTime":97.241308,"instrument":4,"program":35},{"pitch":35,"velocity":117,"startTime":97.241308,"endTime":97.758549,"instrument":4,"program":35},{"pitch":35,"velocity":117,"startTime":97.88785925,"endTime":98.27579,"instrument":4,"program":35},{"pitch":38,"velocity":117,"startTime":98.27579,"endTime":98.40510025,"instrument":4,"program":35},{"pitch":36,"velocity":117,"startTime":98.40510025,"endTime":98.5344105,"instrument":4,"program":35},{"pitch":38,"velocity":117,"startTime":98.5344105,"endTime":98.66372075000001,"instrument":4,"program":35},{"pitch":40,"velocity":118,"startTime":83.01718050000001,"endTime":83.23269758333333,"instrument":5,"program":87},{"pitch":52,"velocity":118,"startTime":83.275801,"endTime":83.40511125,"instrument":5,"program":87},{"pitch":52,"velocity":118,"startTime":83.53442150000001,"endTime":83.74993858333333,"instrument":5,"program":87},{"pitch":54,"velocity":118,"startTime":83.793042,"endTime":84.0516625,"instrument":5,"program":87},{"pitch":49,"velocity":118,"startTime":86.1206265,"endTime":86.33614358333334,"instrument":5,"program":87},{"pitch":49,"velocity":118,"startTime":86.379247,"endTime":86.50855725000001,"instrument":5,"program":87},{"pitch":51,"velocity":118,"startTime":86.6378675,"endTime":86.896488,"instrument":5,"program":87},{"pitch":48,"velocity":118,"startTime":87.15510850000001,"endTime":87.413729,"instrument":5,"program":87},{"pitch":48,"velocity":118,"startTime":87.54303925,"endTime":87.62924608333334,"instrument":5,"program":87},{"pitch":48,"velocity":118,"startTime":87.67234950000001,"endTime":87.93097,"instrument":5,"program":87},{"pitch":50,"velocity":118,"startTime":88.18959050000001,"endTime":88.448211,"instrument":5,"program":87},{"pitch":45,"velocity":118,"startTime":88.448211,"endTime":88.7068315,"instrument":5,"program":87},{"pitch":38,"velocity":118,"startTime":88.7068315,"endTime":88.965452,"instrument":5,"program":87},{"pitch":47,"velocity":118,"startTime":89.2240725,"endTime":89.43958958333334,"instrument":5,"program":87},{"pitch":47,"velocity":118,"startTime":89.48269300000001,"endTime":89.61200325,"instrument":5,"program":87},{"pitch":47,"velocity":118,"startTime":89.7413135,"endTime":89.95683058333334,"instrument":5,"program":87},{"pitch":40,"velocity":118,"startTime":91.03441600000001,"endTime":92.068898,"instrument":5,"program":87},{"pitch":52,"velocity":118,"startTime":92.32751850000001,"endTime":92.586139,"instrument":5,"program":87},{"pitch":52,"velocity":118,"startTime":92.71544925,"endTime":92.80165608333334,"instrument":5,"program":87},{"pitch":42,"velocity":118,"startTime":92.84475950000001,"endTime":93.10338,"instrument":5,"program":87},{"pitch":49,"velocity":118,"startTime":93.36200050000001,"endTime":93.620621,"instrument":5,"program":87},{"pitch":37,"velocity":118,"startTime":93.620621,"endTime":93.8792415,"instrument":5,"program":87},{"pitch":45,"velocity":118,"startTime":94.3964825,"endTime":94.65510300000001,"instrument":5,"program":87},{"pitch":45,"velocity":118,"startTime":94.65510300000001,"endTime":94.78441325,"instrument":5,"program":87},{"pitch":48,"velocity":118,"startTime":94.9137235,"endTime":95.68958500000001,"instrument":5,"program":87},{"pitch":48,"velocity":118,"startTime":95.9482055,"endTime":96.206826,"instrument":5,"program":87},{"pitch":48,"velocity":118,"startTime":96.4654465,"endTime":96.724067,"instrument":5,"program":87},{"pitch":36,"velocity":118,"startTime":96.724067,"endTime":96.85337725000001,"instrument":5,"program":87},{"pitch":47,"velocity":118,"startTime":96.98268750000001,"endTime":97.241308,"instrument":5,"program":87},{"pitch":47,"velocity":118,"startTime":97.49992850000001,"endTime":97.758549,"instrument":5,"program":87},{"pitch":36,"velocity":118,"startTime":97.88785925,"endTime":98.01716950000001,"instrument":5,"program":87},{"pitch":47,"velocity":118,"startTime":98.01716950000001,"endTime":98.27579,"instrument":5,"program":87},{"pitch":50,"velocity":118,"startTime":98.5344105,"endTime":98.793031,"instrument":5,"program":87},{"pitch":45,"velocity":118,"startTime":98.793031,"endTime":99.0516515,"instrument":5,"program":87},{"pitch":35,"velocity":105,"startTime":99.31027200000001,"endTime":99.43958225,"isDrum":true},{"pitch":42,"velocity":105,"startTime":99.31027200000001,"endTime":99.43958225,"isDrum":true},{"pitch":42,"velocity":105,"startTime":99.5688925,"endTime":99.69820275000001,"isDrum":true},{"pitch":38,"velocity":105,"startTime":99.82751300000001,"endTime":99.95682325,"isDrum":true},{"pitch":39,"velocity":105,"startTime":99.82751300000001,"endTime":99.95682325,"isDrum":true},{"pitch":40,"velocity":105,"startTime":99.82751300000001,"endTime":99.95682325,"isDrum":true},{"pitch":42,"velocity":105,"startTime":99.82751300000001,"endTime":99.95682325,"isDrum":true},{"pitch":42,"velocity":105,"startTime":100.0861335,"endTime":100.21544375,"isDrum":true},{"pitch":35,"velocity":105,"startTime":100.34475400000001,"endTime":100.47406425000001,"isDrum":true},{"pitch":42,"velocity":105,"startTime":100.34475400000001,"endTime":100.47406425000001,"isDrum":true},{"pitch":35,"velocity":105,"startTime":101.379236,"endTime":101.50854625000001,"isDrum":true},{"pitch":42,"velocity":105,"startTime":101.379236,"endTime":101.50854625000001,"isDrum":true},{"pitch":35,"velocity":105,"startTime":102.413718,"endTime":102.54302825,"isDrum":true},{"pitch":42,"velocity":105,"startTime":102.413718,"endTime":102.54302825,"isDrum":true},{"pitch":42,"velocity":105,"startTime":103.18957950000001,"endTime":103.31888975000001,"isDrum":true},{"pitch":35,"velocity":105,"startTime":103.4482,"endTime":103.57751025,"isDrum":true},{"pitch":39,"velocity":105,"startTime":103.4482,"endTime":103.57751025,"isDrum":true},{"pitch":40,"velocity":105,"startTime":103.4482,"endTime":103.57751025,"isDrum":true},{"pitch":42,"velocity":105,"startTime":103.4482,"endTime":103.57751025,"isDrum":true},{"pitch":42,"velocity":105,"startTime":103.7068205,"endTime":103.83613075000001,"isDrum":true},{"pitch":38,"velocity":105,"startTime":103.96544100000001,"endTime":104.09475125,"isDrum":true},{"pitch":39,"velocity":105,"startTime":103.96544100000001,"endTime":104.09475125,"isDrum":true},{"pitch":42,"velocity":105,"startTime":103.96544100000001,"endTime":104.09475125,"isDrum":true},{"pitch":42,"velocity":105,"startTime":104.2240615,"endTime":104.35337175000001,"isDrum":true},{"pitch":35,"velocity":105,"startTime":104.48268200000001,"endTime":104.61199225,"isDrum":true},{"pitch":42,"velocity":105,"startTime":104.48268200000001,"endTime":104.61199225,"isDrum":true},{"pitch":42,"velocity":105,"startTime":104.7413025,"endTime":104.87061275,"isDrum":true},{"pitch":38,"velocity":105,"startTime":104.99992300000001,"endTime":105.12923325000001,"isDrum":true},{"pitch":39,"velocity":105,"startTime":104.99992300000001,"endTime":105.12923325000001,"isDrum":true},{"pitch":40,"velocity":105,"startTime":104.99992300000001,"endTime":105.12923325000001,"isDrum":true},{"pitch":42,"velocity":105,"startTime":104.99992300000001,"endTime":105.12923325000001,"isDrum":true},{"pitch":42,"velocity":105,"startTime":105.2585435,"endTime":105.38785375,"isDrum":true},{"pitch":35,"velocity":105,"startTime":105.51716400000001,"endTime":105.64647425000001,"isDrum":true},{"pitch":42,"velocity":105,"startTime":105.51716400000001,"endTime":105.64647425000001,"isDrum":true},{"pitch":42,"velocity":105,"startTime":105.7757845,"endTime":105.90509475,"isDrum":true},{"pitch":38,"velocity":105,"startTime":106.034405,"endTime":106.16371525000001,"isDrum":true},{"pitch":39,"velocity":105,"startTime":106.034405,"endTime":106.16371525000001,"isDrum":true},{"pitch":40,"velocity":105,"startTime":106.034405,"endTime":106.16371525000001,"isDrum":true},{"pitch":42,"velocity":105,"startTime":106.034405,"endTime":106.16371525000001,"isDrum":true},{"pitch":42,"velocity":105,"startTime":106.29302550000001,"endTime":106.42233575,"isDrum":true},{"pitch":35,"velocity":105,"startTime":106.551646,"endTime":106.68095625000001,"isDrum":true},{"pitch":42,"velocity":105,"startTime":106.551646,"endTime":106.68095625000001,"isDrum":true},{"pitch":42,"velocity":105,"startTime":106.81026650000001,"endTime":106.93957675,"isDrum":true},{"pitch":38,"velocity":105,"startTime":107.068887,"endTime":107.19819725,"isDrum":true},{"pitch":39,"velocity":105,"startTime":107.068887,"endTime":107.19819725,"isDrum":true},{"pitch":40,"velocity":105,"startTime":107.068887,"endTime":107.19819725,"isDrum":true},{"pitch":42,"velocity":105,"startTime":107.068887,"endTime":107.19819725,"isDrum":true},{"pitch":42,"velocity":105,"startTime":107.32750750000001,"endTime":107.45681775000001,"isDrum":true},{"pitch":35,"velocity":105,"startTime":107.586128,"endTime":107.71543825,"isDrum":true},{"pitch":42,"velocity":105,"startTime":107.586128,"endTime":107.71543825,"isDrum":true},{"pitch":42,"velocity":105,"startTime":107.84474850000001,"endTime":107.97405875000001,"isDrum":true},{"pitch":38,"velocity":105,"startTime":108.103369,"endTime":108.23267925,"isDrum":true},{"pitch":39,"velocity":105,"startTime":108.103369,"endTime":108.23267925,"isDrum":true},{"pitch":40,"velocity":105,"startTime":108.103369,"endTime":108.23267925,"isDrum":true},{"pitch":42,"velocity":105,"startTime":108.103369,"endTime":108.23267925,"isDrum":true},{"pitch":42,"velocity":105,"startTime":108.3619895,"endTime":108.49129975000001,"isDrum":true},{"pitch":35,"velocity":105,"startTime":108.62061,"endTime":108.74992025,"isDrum":true},{"pitch":42,"velocity":105,"startTime":108.62061,"endTime":108.74992025,"isDrum":true},{"pitch":42,"velocity":105,"startTime":108.8792305,"endTime":109.00854075000001,"isDrum":true},{"pitch":38,"velocity":105,"startTime":109.13785100000001,"endTime":109.26716125,"isDrum":true},{"pitch":39,"velocity":105,"startTime":109.13785100000001,"endTime":109.26716125,"isDrum":true},{"pitch":40,"velocity":105,"startTime":109.13785100000001,"endTime":109.26716125,"isDrum":true},{"pitch":42,"velocity":105,"startTime":109.13785100000001,"endTime":109.26716125,"isDrum":true},{"pitch":42,"velocity":105,"startTime":109.3964715,"endTime":109.52578175000001,"isDrum":true},{"pitch":35,"velocity":105,"startTime":109.65509200000001,"endTime":109.78440225,"isDrum":true},{"pitch":42,"velocity":105,"startTime":109.65509200000001,"endTime":109.78440225,"isDrum":true},{"pitch":42,"velocity":105,"startTime":109.9137125,"endTime":110.04302275,"isDrum":true},{"pitch":38,"velocity":105,"startTime":110.17233300000001,"endTime":110.30164325000001,"isDrum":true},{"pitch":39,"velocity":105,"startTime":110.17233300000001,"endTime":110.30164325000001,"isDrum":true},{"pitch":40,"velocity":105,"startTime":110.17233300000001,"endTime":110.30164325000001,"isDrum":true},{"pitch":42,"velocity":105,"startTime":110.17233300000001,"endTime":110.30164325000001,"isDrum":true},{"pitch":42,"velocity":105,"startTime":110.4309535,"endTime":110.56026375,"isDrum":true},{"pitch":35,"velocity":105,"startTime":110.68957400000001,"endTime":110.81888425000001,"isDrum":true},{"pitch":42,"velocity":105,"startTime":110.68957400000001,"endTime":110.81888425000001,"isDrum":true},{"pitch":42,"velocity":105,"startTime":110.9481945,"endTime":111.07750475,"isDrum":true},{"pitch":38,"velocity":105,"startTime":111.206815,"endTime":111.33612525000001,"isDrum":true},{"pitch":39,"velocity":105,"startTime":111.206815,"endTime":111.33612525000001,"isDrum":true},{"pitch":40,"velocity":105,"startTime":111.206815,"endTime":111.33612525000001,"isDrum":true},{"pitch":42,"velocity":105,"startTime":111.206815,"endTime":111.33612525000001,"isDrum":true},{"pitch":42,"velocity":105,"startTime":111.46543550000001,"endTime":111.59474575,"isDrum":true},{"pitch":35,"velocity":105,"startTime":111.724056,"endTime":111.85336625000001,"isDrum":true},{"pitch":42,"velocity":105,"startTime":111.724056,"endTime":111.85336625000001,"isDrum":true},{"pitch":42,"velocity":105,"startTime":111.98267650000001,"endTime":112.11198675,"isDrum":true},{"pitch":38,"velocity":105,"startTime":112.241297,"endTime":112.37060725,"isDrum":true},{"pitch":39,"velocity":105,"startTime":112.241297,"endTime":112.37060725,"isDrum":true},{"pitch":40,"velocity":105,"startTime":112.241297,"endTime":112.37060725,"isDrum":true},{"pitch":42,"velocity":105,"startTime":112.241297,"endTime":112.37060725,"isDrum":true},{"pitch":42,"velocity":105,"startTime":112.49991750000001,"endTime":112.62922775000001,"isDrum":true},{"pitch":35,"velocity":105,"startTime":112.758538,"endTime":112.88784825,"isDrum":true},{"pitch":42,"velocity":105,"startTime":112.758538,"endTime":112.88784825,"isDrum":true},{"pitch":42,"velocity":105,"startTime":113.01715850000001,"endTime":113.14646875000001,"isDrum":true},{"pitch":38,"velocity":105,"startTime":113.275779,"endTime":113.40508925,"isDrum":true},{"pitch":39,"velocity":105,"startTime":113.275779,"endTime":113.40508925,"isDrum":true},{"pitch":40,"velocity":105,"startTime":113.275779,"endTime":113.40508925,"isDrum":true},{"pitch":42,"velocity":105,"startTime":113.275779,"endTime":113.40508925,"isDrum":true},{"pitch":42,"velocity":105,"startTime":113.5343995,"endTime":113.66370975000001,"isDrum":true},{"pitch":35,"velocity":105,"startTime":113.79302000000001,"endTime":113.92233025,"isDrum":true},{"pitch":42,"velocity":105,"startTime":113.79302000000001,"endTime":113.92233025,"isDrum":true},{"pitch":42,"velocity":105,"startTime":114.0516405,"endTime":114.18095075000001,"isDrum":true},{"pitch":38,"velocity":105,"startTime":114.31026100000001,"endTime":114.43957125,"isDrum":true},{"pitch":39,"velocity":105,"startTime":114.31026100000001,"endTime":114.43957125,"isDrum":true},{"pitch":40,"velocity":105,"startTime":114.31026100000001,"endTime":114.43957125,"isDrum":true},{"pitch":42,"velocity":105,"startTime":114.31026100000001,"endTime":114.43957125,"isDrum":true},{"pitch":42,"velocity":105,"startTime":114.5688815,"endTime":114.69819175,"isDrum":true},{"pitch":35,"velocity":105,"startTime":114.82750200000001,"endTime":114.95681225000001,"isDrum":true},{"pitch":42,"velocity":105,"startTime":114.82750200000001,"endTime":114.95681225000001,"isDrum":true},{"pitch":42,"velocity":105,"startTime":115.0861225,"endTime":115.21543275,"isDrum":true},{"pitch":38,"velocity":105,"startTime":115.34474300000001,"endTime":115.47405325000001,"isDrum":true},{"pitch":39,"velocity":105,"startTime":115.34474300000001,"endTime":115.47405325000001,"isDrum":true},{"pitch":40,"velocity":105,"startTime":115.34474300000001,"endTime":115.47405325000001,"isDrum":true},{"pitch":42,"velocity":105,"startTime":115.34474300000001,"endTime":115.47405325000001,"isDrum":true},{"pitch":42,"velocity":105,"startTime":115.6033635,"endTime":115.73267375,"isDrum":true},{"pitch":60,"velocity":123,"startTime":99.5688925,"endTime":99.82751300000001,"instrument":1,"program":4},{"pitch":62,"velocity":123,"startTime":99.5688925,"endTime":99.82751300000001,"instrument":1,"program":4},{"pitch":66,"velocity":123,"startTime":99.5688925,"endTime":99.82751300000001,"instrument":1,"program":4},{"pitch":60,"velocity":123,"startTime":99.82751300000001,"endTime":100.0861335,"instrument":1,"program":4},{"pitch":62,"velocity":123,"startTime":99.82751300000001,"endTime":100.0861335,"instrument":1,"program":4},{"pitch":66,"velocity":123,"startTime":99.82751300000001,"endTime":100.0861335,"instrument":1,"program":4},{"pitch":60,"velocity":123,"startTime":100.6033745,"endTime":100.99130525000001,"instrument":1,"program":4},{"pitch":63,"velocity":123,"startTime":100.6033745,"endTime":100.99130525000001,"instrument":1,"program":4},{"pitch":66,"velocity":123,"startTime":100.6033745,"endTime":100.99130525000001,"instrument":1,"program":4},{"pitch":60,"velocity":123,"startTime":101.1206155,"endTime":101.379236,"instrument":1,"program":4},{"pitch":63,"velocity":123,"startTime":101.1206155,"endTime":101.379236,"instrument":1,"program":4},{"pitch":66,"velocity":123,"startTime":101.1206155,"endTime":101.379236,"instrument":1,"program":4},{"pitch":61,"velocity":123,"startTime":101.63785650000001,"endTime":101.896477,"instrument":1,"program":4},{"pitch":64,"velocity":123,"startTime":101.63785650000001,"endTime":101.896477,"instrument":1,"program":4},{"pitch":68,"velocity":123,"startTime":101.63785650000001,"endTime":101.896477,"instrument":1,"program":4},{"pitch":61,"velocity":123,"startTime":101.896477,"endTime":102.15509750000001,"instrument":1,"program":4},{"pitch":64,"velocity":123,"startTime":101.896477,"endTime":102.15509750000001,"instrument":1,"program":4},{"pitch":68,"velocity":123,"startTime":101.896477,"endTime":102.15509750000001,"instrument":1,"program":4},{"pitch":64,"velocity":123,"startTime":102.67233850000001,"endTime":102.80164875000001,"instrument":1,"program":4},{"pitch":67,"velocity":123,"startTime":102.67233850000001,"endTime":102.80164875000001,"instrument":1,"program":4},{"pitch":69,"velocity":123,"startTime":102.67233850000001,"endTime":102.80164875000001,"instrument":1,"program":4},{"pitch":60,"velocity":123,"startTime":103.7068205,"endTime":104.2240615,"instrument":1,"program":4},{"pitch":64,"velocity":123,"startTime":103.7068205,"endTime":104.2240615,"instrument":1,"program":4},{"pitch":67,"velocity":123,"startTime":103.7068205,"endTime":104.2240615,"instrument":1,"program":4},{"pitch":62,"velocity":123,"startTime":104.48268200000001,"endTime":104.7413025,"instrument":1,"program":4},{"pitch":67,"velocity":123,"startTime":104.48268200000001,"endTime":104.7413025,"instrument":1,"program":4},{"pitch":69,"velocity":123,"startTime":104.48268200000001,"endTime":104.7413025,"instrument":1,"program":4},{"pitch":62,"velocity":123,"startTime":105.7757845,"endTime":106.034405,"instrument":1,"program":4},{"pitch":66,"velocity":123,"startTime":105.7757845,"endTime":106.034405,"instrument":1,"program":4},{"pitch":69,"velocity":123,"startTime":105.7757845,"endTime":106.034405,"instrument":1,"program":4},{"pitch":62,"velocity":123,"startTime":106.29302550000001,"endTime":106.42233575,"instrument":1,"program":4},{"pitch":66,"velocity":123,"startTime":106.29302550000001,"endTime":106.42233575,"instrument":1,"program":4},{"pitch":69,"velocity":123,"startTime":106.29302550000001,"endTime":106.42233575,"instrument":1,"program":4},{"pitch":62,"velocity":123,"startTime":106.81026650000001,"endTime":106.93957675,"instrument":1,"program":4},{"pitch":66,"velocity":123,"startTime":106.81026650000001,"endTime":106.93957675,"instrument":1,"program":4},{"pitch":69,"velocity":123,"startTime":106.81026650000001,"endTime":106.93957675,"instrument":1,"program":4},{"pitch":62,"velocity":123,"startTime":107.32750750000001,"endTime":107.586128,"instrument":1,"program":4},{"pitch":66,"velocity":123,"startTime":107.32750750000001,"endTime":107.586128,"instrument":1,"program":4},{"pitch":69,"velocity":123,"startTime":107.32750750000001,"endTime":107.586128,"instrument":1,"program":4},{"pitch":62,"velocity":123,"startTime":107.84474850000001,"endTime":108.103369,"instrument":1,"program":4},{"pitch":64,"velocity":123,"startTime":107.84474850000001,"endTime":108.103369,"instrument":1,"program":4},{"pitch":67,"velocity":123,"startTime":107.84474850000001,"endTime":108.103369,"instrument":1,"program":4},{"pitch":71,"velocity":123,"startTime":107.84474850000001,"endTime":108.103369,"instrument":1,"program":4},{"pitch":59,"velocity":123,"startTime":108.3619895,"endTime":108.49129975000001,"instrument":1,"program":4},{"pitch":63,"velocity":123,"startTime":108.3619895,"endTime":108.49129975000001,"instrument":1,"program":4},{"pitch":67,"velocity":123,"startTime":108.3619895,"endTime":108.49129975000001,"instrument":1,"program":4},{"pitch":60,"velocity":123,"startTime":109.3964715,"endTime":109.65509200000001,"instrument":1,"program":4},{"pitch":63,"velocity":123,"startTime":109.3964715,"endTime":109.65509200000001,"instrument":1,"program":4},{"pitch":66,"velocity":123,"startTime":109.3964715,"endTime":109.65509200000001,"instrument":1,"program":4},{"pitch":68,"velocity":123,"startTime":109.3964715,"endTime":109.65509200000001,"instrument":1,"program":4},{"pitch":61,"velocity":123,"startTime":109.9137125,"endTime":110.17233300000001,"instrument":1,"program":4},{"pitch":64,"velocity":123,"startTime":109.9137125,"endTime":110.17233300000001,"instrument":1,"program":4},{"pitch":68,"velocity":123,"startTime":109.9137125,"endTime":110.17233300000001,"instrument":1,"program":4},{"pitch":71,"velocity":123,"startTime":109.9137125,"endTime":110.17233300000001,"instrument":1,"program":4},{"pitch":59,"velocity":123,"startTime":111.46543550000001,"endTime":111.724056,"instrument":1,"program":4},{"pitch":62,"velocity":123,"startTime":111.46543550000001,"endTime":111.724056,"instrument":1,"program":4},{"pitch":64,"velocity":123,"startTime":111.46543550000001,"endTime":111.724056,"instrument":1,"program":4},{"pitch":67,"velocity":123,"startTime":111.46543550000001,"endTime":111.724056,"instrument":1,"program":4},{"pitch":60,"velocity":123,"startTime":111.98267650000001,"endTime":112.241297,"instrument":1,"program":4},{"pitch":64,"velocity":123,"startTime":111.98267650000001,"endTime":112.241297,"instrument":1,"program":4},{"pitch":67,"velocity":123,"startTime":111.98267650000001,"endTime":112.241297,"instrument":1,"program":4},{"pitch":69,"velocity":123,"startTime":111.98267650000001,"endTime":112.241297,"instrument":1,"program":4},{"pitch":60,"velocity":123,"startTime":112.49991750000001,"endTime":112.758538,"instrument":1,"program":4},{"pitch":64,"velocity":123,"startTime":112.49991750000001,"endTime":112.758538,"instrument":1,"program":4},{"pitch":67,"velocity":123,"startTime":112.49991750000001,"endTime":112.758538,"instrument":1,"program":4},{"pitch":69,"velocity":123,"startTime":112.49991750000001,"endTime":112.758538,"instrument":1,"program":4},{"pitch":60,"velocity":123,"startTime":113.01715850000001,"endTime":113.275779,"instrument":1,"program":4},{"pitch":64,"velocity":123,"startTime":113.01715850000001,"endTime":113.275779,"instrument":1,"program":4},{"pitch":67,"velocity":123,"startTime":113.01715850000001,"endTime":113.275779,"instrument":1,"program":4},{"pitch":69,"velocity":123,"startTime":113.01715850000001,"endTime":113.275779,"instrument":1,"program":4},{"pitch":60,"velocity":123,"startTime":113.5343995,"endTime":113.79302000000001,"instrument":1,"program":4},{"pitch":64,"velocity":123,"startTime":113.5343995,"endTime":113.79302000000001,"instrument":1,"program":4},{"pitch":67,"velocity":123,"startTime":113.5343995,"endTime":113.79302000000001,"instrument":1,"program":4},{"pitch":69,"velocity":123,"startTime":113.5343995,"endTime":113.79302000000001,"instrument":1,"program":4},{"pitch":59,"velocity":123,"startTime":114.0516405,"endTime":114.39646783333335,"instrument":1,"program":4},{"pitch":62,"velocity":123,"startTime":114.0516405,"endTime":114.39646783333335,"instrument":1,"program":4},{"pitch":66,"velocity":123,"startTime":114.0516405,"endTime":114.39646783333335,"instrument":1,"program":4},{"pitch":69,"velocity":123,"startTime":114.0516405,"endTime":114.39646783333335,"instrument":1,"program":4},{"pitch":59,"velocity":123,"startTime":114.5688815,"endTime":114.82750200000001,"instrument":1,"program":4},{"pitch":62,"velocity":123,"startTime":114.5688815,"endTime":114.82750200000001,"instrument":1,"program":4},{"pitch":66,"velocity":123,"startTime":114.5688815,"endTime":114.82750200000001,"instrument":1,"program":4},{"pitch":69,"velocity":123,"startTime":114.5688815,"endTime":114.82750200000001,"instrument":1,"program":4},{"pitch":59,"velocity":123,"startTime":115.0861225,"endTime":115.6033635,"instrument":1,"program":4},{"pitch":62,"velocity":123,"startTime":115.0861225,"endTime":115.6033635,"instrument":1,"program":4},{"pitch":66,"velocity":123,"startTime":115.0861225,"endTime":115.6033635,"instrument":1,"program":4},{"pitch":69,"velocity":123,"startTime":115.0861225,"endTime":115.6033635,"instrument":1,"program":4},{"pitch":55,"velocity":123,"startTime":99.5688925,"endTime":99.61199591666667,"instrument":2,"program":27},{"pitch":55,"velocity":123,"startTime":99.82751300000001,"endTime":99.95682325,"instrument":2,"program":27},{"pitch":55,"velocity":123,"startTime":100.0861335,"endTime":100.17234033333334,"instrument":2,"program":27},{"pitch":54,"velocity":123,"startTime":100.99130525000001,"endTime":101.1206155,"instrument":2,"program":27},{"pitch":56,"velocity":123,"startTime":101.1206155,"endTime":101.24992575,"instrument":2,"program":27},{"pitch":60,"velocity":123,"startTime":101.379236,"endTime":101.50854625000001,"instrument":2,"program":27},{"pitch":64,"velocity":123,"startTime":101.379236,"endTime":101.50854625000001,"instrument":2,"program":27},{"pitch":68,"velocity":123,"startTime":101.379236,"endTime":101.50854625000001,"instrument":2,"program":27},{"pitch":60,"velocity":123,"startTime":101.76716675,"endTime":101.85337358333334,"instrument":2,"program":27},{"pitch":64,"velocity":123,"startTime":101.76716675,"endTime":101.85337358333334,"instrument":2,"program":27},{"pitch":68,"velocity":123,"startTime":101.76716675,"endTime":101.85337358333334,"instrument":2,"program":27},{"pitch":57,"velocity":123,"startTime":102.54302825,"endTime":102.67233850000001,"instrument":2,"program":27},{"pitch":57,"velocity":123,"startTime":102.67233850000001,"endTime":102.75854533333334,"instrument":2,"program":27},{"pitch":57,"velocity":123,"startTime":102.930959,"endTime":103.06026925,"instrument":2,"program":27},{"pitch":57,"velocity":123,"startTime":103.18957950000001,"endTime":103.4482,"instrument":2,"program":27},{"pitch":60,"velocity":123,"startTime":103.4482,"endTime":103.83613075000001,"instrument":2,"program":27},{"pitch":64,"velocity":123,"startTime":103.4482,"endTime":103.83613075000001,"instrument":2,"program":27},{"pitch":69,"velocity":123,"startTime":103.4482,"endTime":103.83613075000001,"instrument":2,"program":27},{"pitch":60,"velocity":123,"startTime":103.96544100000001,"endTime":104.09475125,"instrument":2,"program":27},{"pitch":60,"velocity":123,"startTime":104.2240615,"endTime":104.35337175000001,"instrument":2,"program":27},{"pitch":60,"velocity":123,"startTime":104.7413025,"endTime":104.78440591666667,"instrument":2,"program":27},{"pitch":60,"velocity":123,"startTime":104.87061275,"endTime":104.99992300000001,"instrument":2,"program":27},{"pitch":69,"velocity":123,"startTime":104.99992300000001,"endTime":105.12923325000001,"instrument":2,"program":27},{"pitch":69,"velocity":123,"startTime":105.2585435,"endTime":105.38785375,"instrument":2,"program":27},{"pitch":62,"velocity":123,"startTime":105.51716400000001,"endTime":105.64647425000001,"instrument":2,"program":27},{"pitch":62,"velocity":123,"startTime":105.90509475,"endTime":105.99130158333334,"instrument":2,"program":27},{"pitch":62,"velocity":123,"startTime":106.034405,"endTime":106.16371525000001,"instrument":2,"program":27},{"pitch":62,"velocity":123,"startTime":106.29302550000001,"endTime":106.42233575,"instrument":2,"program":27},{"pitch":62,"velocity":123,"startTime":106.81026650000001,"endTime":106.93957675,"instrument":2,"program":27},{"pitch":59,"velocity":123,"startTime":107.068887,"endTime":107.19819725,"instrument":2,"program":27},{"pitch":59,"velocity":123,"startTime":107.32750750000001,"endTime":107.45681775000001,"instrument":2,"program":27},{"pitch":62,"velocity":123,"startTime":107.586128,"endTime":107.71543825,"instrument":2,"program":27},{"pitch":67,"velocity":123,"startTime":107.586128,"endTime":107.71543825,"instrument":2,"program":27},{"pitch":62,"velocity":123,"startTime":107.84474850000001,"endTime":107.97405875000001,"instrument":2,"program":27},{"pitch":67,"velocity":123,"startTime":107.84474850000001,"endTime":107.97405875000001,"instrument":2,"program":27},{"pitch":62,"velocity":123,"startTime":108.103369,"endTime":108.23267925,"instrument":2,"program":27},{"pitch":67,"velocity":123,"startTime":108.103369,"endTime":108.23267925,"instrument":2,"program":27},{"pitch":60,"velocity":123,"startTime":109.13785100000001,"endTime":109.43957491666667,"instrument":2,"program":27},{"pitch":63,"velocity":123,"startTime":109.13785100000001,"endTime":109.43957491666667,"instrument":2,"program":27},{"pitch":60,"velocity":123,"startTime":109.52578175000001,"endTime":109.56888516666667,"instrument":2,"program":27},{"pitch":63,"velocity":123,"startTime":109.52578175000001,"endTime":109.56888516666667,"instrument":2,"program":27},{"pitch":61,"velocity":123,"startTime":109.65509200000001,"endTime":110.04302275,"instrument":2,"program":27},{"pitch":64,"velocity":123,"startTime":109.65509200000001,"endTime":110.04302275,"instrument":2,"program":27},{"pitch":61,"velocity":123,"startTime":110.17233300000001,"endTime":110.51716033333334,"instrument":2,"program":27},{"pitch":64,"velocity":123,"startTime":110.17233300000001,"endTime":110.51716033333334,"instrument":2,"program":27},{"pitch":61,"velocity":123,"startTime":110.56026375,"endTime":110.68957400000001,"instrument":2,"program":27},{"pitch":64,"velocity":123,"startTime":110.56026375,"endTime":110.68957400000001,"instrument":2,"program":27},{"pitch":57,"velocity":123,"startTime":110.68957400000001,"endTime":111.07750475,"instrument":2,"program":27},{"pitch":64,"velocity":123,"startTime":110.68957400000001,"endTime":111.07750475,"instrument":2,"program":27},{"pitch":57,"velocity":123,"startTime":111.206815,"endTime":111.59474575,"instrument":2,"program":27},{"pitch":64,"velocity":123,"startTime":111.206815,"endTime":111.59474575,"instrument":2,"program":27},{"pitch":48,"velocity":123,"startTime":111.724056,"endTime":111.85336625000001,"instrument":2,"program":27},{"pitch":48,"velocity":123,"startTime":111.98267650000001,"endTime":112.11198675,"instrument":2,"program":27},{"pitch":52,"velocity":123,"startTime":112.241297,"endTime":112.32750383333334,"instrument":2,"program":27},{"pitch":55,"velocity":123,"startTime":112.49991750000001,"endTime":112.54302091666668,"instrument":2,"program":27},{"pitch":55,"velocity":123,"startTime":113.01715850000001,"endTime":113.10336533333334,"instrument":2,"program":27},{"pitch":55,"velocity":123,"startTime":113.275779,"endTime":113.40508925,"instrument":2,"program":27},{"pitch":55,"velocity":123,"startTime":113.5343995,"endTime":113.62060633333334,"instrument":2,"program":27},{"pitch":57,"velocity":123,"startTime":114.0516405,"endTime":114.13784733333334,"instrument":2,"program":27},{"pitch":59,"velocity":123,"startTime":114.31026100000001,"endTime":114.43957125,"instrument":2,"program":27},{"pitch":57,"velocity":123,"startTime":114.5688815,"endTime":114.69819175,"instrument":2,"program":27},{"pitch":57,"velocity":123,"startTime":115.0861225,"endTime":115.17232933333334,"instrument":2,"program":27},{"pitch":59,"velocity":123,"startTime":115.34474300000001,"endTime":115.47405325000001,"instrument":2,"program":27},{"pitch":60,"velocity":123,"startTime":115.47405325000001,"endTime":115.6033635,"instrument":2,"program":27},{"pitch":57,"velocity":123,"startTime":115.64646691666667,"endTime":115.861984,"instrument":2,"program":27},{"pitch":33,"velocity":117,"startTime":99.31027200000001,"endTime":99.5688925,"instrument":4,"program":35},{"pitch":35,"velocity":117,"startTime":99.5688925,"endTime":99.69820275000001,"instrument":4,"program":35},{"pitch":37,"velocity":117,"startTime":101.379236,"endTime":101.63785650000001,"instrument":4,"program":35},{"pitch":37,"velocity":117,"startTime":101.63785650000001,"endTime":101.76716675,"instrument":4,"program":35},{"pitch":37,"velocity":117,"startTime":102.28440775,"endTime":102.413718,"instrument":4,"program":35},{"pitch":33,"velocity":117,"startTime":102.413718,"endTime":102.54302825,"instrument":4,"program":35},{"pitch":33,"velocity":117,"startTime":102.54302825,"endTime":102.67233850000001,"instrument":4,"program":35},{"pitch":33,"velocity":117,"startTime":102.67233850000001,"endTime":102.84475216666667,"instrument":4,"program":35},{"pitch":36,"velocity":117,"startTime":103.4482,"endTime":103.7068205,"instrument":4,"program":35},{"pitch":36,"velocity":117,"startTime":103.7068205,"endTime":103.87923416666668,"instrument":4,"program":35},{"pitch":35,"velocity":117,"startTime":105.51716400000001,"endTime":105.64647425000001,"instrument":4,"program":35},{"pitch":47,"velocity":117,"startTime":105.64647425000001,"endTime":105.7757845,"instrument":4,"program":35},{"pitch":35,"velocity":117,"startTime":105.7757845,"endTime":105.90509475,"instrument":4,"program":35},{"pitch":28,"velocity":117,"startTime":107.586128,"endTime":107.71543825,"instrument":4,"program":35},{"pitch":33,"velocity":117,"startTime":107.84474850000001,"endTime":108.01716216666668,"instrument":4,"program":35},{"pitch":28,"velocity":117,"startTime":107.97405875000001,"endTime":108.103369,"instrument":4,"program":35},{"pitch":40,"velocity":117,"startTime":108.103369,"endTime":108.23267925,"instrument":4,"program":35},{"pitch":37,"velocity":117,"startTime":109.65509200000001,"endTime":109.78440225,"instrument":4,"program":35},{"pitch":37,"velocity":117,"startTime":109.78440225,"endTime":109.9137125,"instrument":4,"program":35},{"pitch":37,"velocity":117,"startTime":109.9137125,"endTime":110.04302275,"instrument":4,"program":35},{"pitch":36,"velocity":117,"startTime":111.724056,"endTime":111.98267650000001,"instrument":4,"program":35},{"pitch":36,"velocity":117,"startTime":111.98267650000001,"endTime":112.11198675,"instrument":4,"program":35},{"pitch":35,"velocity":117,"startTime":113.79302000000001,"endTime":114.0516405,"instrument":4,"program":35},{"pitch":36,"velocity":117,"startTime":114.0516405,"endTime":114.18095075000001,"instrument":4,"program":35},{"pitch":38,"velocity":118,"startTime":100.0861335,"endTime":100.34475400000001,"instrument":5,"program":87},{"pitch":32,"velocity":118,"startTime":100.34475400000001,"endTime":100.6033745,"instrument":5,"program":87},{"pitch":37,"velocity":118,"startTime":101.379236,"endTime":101.63785650000001,"instrument":5,"program":87},{"pitch":36,"velocity":118,"startTime":103.4482,"endTime":103.7068205,"instrument":5,"program":87},{"pitch":35,"velocity":118,"startTime":105.7757845,"endTime":106.034405,"instrument":5,"program":87},{"pitch":36,"velocity":118,"startTime":106.034405,"endTime":106.29302550000001,"instrument":5,"program":87},{"pitch":36,"velocity":118,"startTime":106.29302550000001,"endTime":106.551646,"instrument":5,"program":87},{"pitch":36,"velocity":118,"startTime":112.49991750000001,"endTime":112.758538,"instrument":5,"program":87},{"pitch":38,"velocity":118,"startTime":112.758538,"endTime":113.01715850000001,"instrument":5,"program":87},{"pitch":35,"velocity":118,"startTime":113.79302000000001,"endTime":114.0516405,"instrument":5,"program":87},{"pitch":36,"velocity":105,"startTime":115.861984,"endTime":115.94819083333334,"isDrum":true},{"pitch":42,"velocity":105,"startTime":115.861984,"endTime":115.94819083333334,"isDrum":true},{"pitch":42,"velocity":105,"startTime":116.12060450000001,"endTime":116.20681133333333,"isDrum":true},{"pitch":36,"velocity":105,"startTime":116.379225,"endTime":116.46543183333334,"isDrum":true},{"pitch":39,"velocity":105,"startTime":116.379225,"endTime":116.46543183333334,"isDrum":true},{"pitch":40,"velocity":105,"startTime":116.379225,"endTime":116.46543183333334,"isDrum":true},{"pitch":42,"velocity":105,"startTime":116.379225,"endTime":116.46543183333334,"isDrum":true},{"pitch":42,"velocity":105,"startTime":116.63784550000001,"endTime":116.72405233333335,"isDrum":true},{"pitch":36,"velocity":105,"startTime":116.896466,"endTime":116.98267283333334,"isDrum":true},{"pitch":42,"velocity":105,"startTime":116.896466,"endTime":116.98267283333334,"isDrum":true},{"pitch":42,"velocity":105,"startTime":117.15508650000001,"endTime":117.24129333333335,"isDrum":true},{"pitch":36,"velocity":105,"startTime":117.413707,"endTime":117.49991383333334,"isDrum":true},{"pitch":39,"velocity":105,"startTime":117.413707,"endTime":117.49991383333334,"isDrum":true},{"pitch":40,"velocity":105,"startTime":117.413707,"endTime":117.49991383333334,"isDrum":true},{"pitch":42,"velocity":105,"startTime":117.413707,"endTime":117.49991383333334,"isDrum":true},{"pitch":42,"velocity":105,"startTime":117.67232750000001,"endTime":117.75853433333334,"isDrum":true},{"pitch":36,"velocity":105,"startTime":117.930948,"endTime":118.01715483333334,"isDrum":true},{"pitch":42,"velocity":105,"startTime":117.930948,"endTime":118.01715483333334,"isDrum":true},{"pitch":42,"velocity":105,"startTime":118.18956850000001,"endTime":118.27577533333334,"isDrum":true},{"pitch":36,"velocity":105,"startTime":118.44818900000001,"endTime":118.53439583333333,"isDrum":true},{"pitch":39,"velocity":105,"startTime":118.44818900000001,"endTime":118.53439583333333,"isDrum":true},{"pitch":40,"velocity":105,"startTime":118.44818900000001,"endTime":118.53439583333333,"isDrum":true},{"pitch":42,"velocity":105,"startTime":118.44818900000001,"endTime":118.53439583333333,"isDrum":true},{"pitch":42,"velocity":105,"startTime":118.7068095,"endTime":118.79301633333334,"isDrum":true},{"pitch":36,"velocity":105,"startTime":118.96543000000001,"endTime":119.05163683333333,"isDrum":true},{"pitch":42,"velocity":105,"startTime":118.96543000000001,"endTime":119.05163683333333,"isDrum":true},{"pitch":42,"velocity":105,"startTime":119.2240505,"endTime":119.31025733333334,"isDrum":true},{"pitch":36,"velocity":105,"startTime":119.48267100000001,"endTime":119.56887783333335,"isDrum":true},{"pitch":39,"velocity":105,"startTime":119.48267100000001,"endTime":119.56887783333335,"isDrum":true},{"pitch":40,"velocity":105,"startTime":119.48267100000001,"endTime":119.56887783333335,"isDrum":true},{"pitch":42,"velocity":105,"startTime":119.48267100000001,"endTime":119.56887783333335,"isDrum":true},{"pitch":42,"velocity":105,"startTime":119.7412915,"endTime":119.82749833333334,"isDrum":true},{"pitch":36,"velocity":105,"startTime":119.99991200000001,"endTime":120.08611883333334,"isDrum":true},{"pitch":42,"velocity":105,"startTime":119.99991200000001,"endTime":120.08611883333334,"isDrum":true},{"pitch":42,"velocity":105,"startTime":120.2585325,"endTime":120.34473933333334,"isDrum":true},{"pitch":36,"velocity":105,"startTime":120.51715300000001,"endTime":120.60335983333334,"isDrum":true},{"pitch":39,"velocity":105,"startTime":120.51715300000001,"endTime":120.60335983333334,"isDrum":true},{"pitch":40,"velocity":105,"startTime":120.51715300000001,"endTime":120.60335983333334,"isDrum":true},{"pitch":42,"velocity":105,"startTime":120.51715300000001,"endTime":120.60335983333334,"isDrum":true},{"pitch":42,"velocity":105,"startTime":120.77577350000001,"endTime":120.86198033333334,"isDrum":true},{"pitch":36,"velocity":105,"startTime":121.034394,"endTime":121.12060083333334,"isDrum":true},{"pitch":42,"velocity":105,"startTime":121.034394,"endTime":121.12060083333334,"isDrum":true},{"pitch":42,"velocity":105,"startTime":121.29301450000001,"endTime":121.37922133333333,"isDrum":true},{"pitch":36,"velocity":105,"startTime":121.551635,"endTime":121.63784183333334,"isDrum":true},{"pitch":39,"velocity":105,"startTime":121.551635,"endTime":121.63784183333334,"isDrum":true},{"pitch":40,"velocity":105,"startTime":121.551635,"endTime":121.63784183333334,"isDrum":true},{"pitch":42,"velocity":105,"startTime":121.551635,"endTime":121.63784183333334,"isDrum":true},{"pitch":42,"velocity":105,"startTime":121.81025550000001,"endTime":121.89646233333335,"isDrum":true},{"pitch":36,"velocity":105,"startTime":122.068876,"endTime":122.15508283333334,"isDrum":true},{"pitch":42,"velocity":105,"startTime":122.068876,"endTime":122.15508283333334,"isDrum":true},{"pitch":42,"velocity":105,"startTime":122.32749650000001,"endTime":122.41370333333334,"isDrum":true},{"pitch":36,"velocity":105,"startTime":122.586117,"endTime":122.67232383333334,"isDrum":true},{"pitch":39,"velocity":105,"startTime":122.586117,"endTime":122.67232383333334,"isDrum":true},{"pitch":40,"velocity":105,"startTime":122.586117,"endTime":122.67232383333334,"isDrum":true},{"pitch":42,"velocity":105,"startTime":122.586117,"endTime":122.67232383333334,"isDrum":true},{"pitch":42,"velocity":105,"startTime":122.84473750000001,"endTime":122.93094433333334,"isDrum":true},{"pitch":36,"velocity":105,"startTime":123.103358,"endTime":123.18956483333334,"isDrum":true},{"pitch":42,"velocity":105,"startTime":123.103358,"endTime":123.18956483333334,"isDrum":true},{"pitch":42,"velocity":105,"startTime":123.3619785,"endTime":123.44818533333334,"isDrum":true},{"pitch":36,"velocity":105,"startTime":123.62059900000001,"endTime":123.70680583333333,"isDrum":true},{"pitch":39,"velocity":105,"startTime":123.62059900000001,"endTime":123.70680583333333,"isDrum":true},{"pitch":40,"velocity":105,"startTime":123.62059900000001,"endTime":123.70680583333333,"isDrum":true},{"pitch":42,"velocity":105,"startTime":123.62059900000001,"endTime":123.70680583333333,"isDrum":true},{"pitch":42,"velocity":105,"startTime":123.8792195,"endTime":123.96542633333334,"isDrum":true},{"pitch":36,"velocity":105,"startTime":124.13784000000001,"endTime":124.22404683333335,"isDrum":true},{"pitch":42,"velocity":105,"startTime":124.13784000000001,"endTime":124.22404683333335,"isDrum":true},{"pitch":42,"velocity":105,"startTime":124.3964605,"endTime":124.48266733333334,"isDrum":true},{"pitch":36,"velocity":105,"startTime":124.65508100000001,"endTime":124.74128783333335,"isDrum":true},{"pitch":39,"velocity":105,"startTime":124.65508100000001,"endTime":124.74128783333335,"isDrum":true},{"pitch":40,"velocity":105,"startTime":124.65508100000001,"endTime":124.74128783333335,"isDrum":true},{"pitch":42,"velocity":105,"startTime":124.65508100000001,"endTime":124.74128783333335,"isDrum":true},{"pitch":42,"velocity":105,"startTime":124.9137015,"endTime":124.99990833333334,"isDrum":true},{"pitch":36,"velocity":105,"startTime":125.17232200000001,"endTime":125.25852883333334,"isDrum":true},{"pitch":42,"velocity":105,"startTime":125.17232200000001,"endTime":125.25852883333334,"isDrum":true},{"pitch":42,"velocity":105,"startTime":125.4309425,"endTime":125.51714933333334,"isDrum":true},{"pitch":36,"velocity":105,"startTime":125.689563,"endTime":125.77576983333334,"isDrum":true},{"pitch":39,"velocity":105,"startTime":125.689563,"endTime":125.77576983333334,"isDrum":true},{"pitch":40,"velocity":105,"startTime":125.689563,"endTime":125.77576983333334,"isDrum":true},{"pitch":42,"velocity":105,"startTime":125.689563,"endTime":125.77576983333334,"isDrum":true},{"pitch":42,"velocity":105,"startTime":125.94818350000001,"endTime":126.03439033333333,"isDrum":true},{"pitch":36,"velocity":105,"startTime":126.206804,"endTime":126.29301083333334,"isDrum":true},{"pitch":42,"velocity":105,"startTime":126.206804,"endTime":126.29301083333334,"isDrum":true},{"pitch":42,"velocity":105,"startTime":126.46542450000001,"endTime":126.55163133333335,"isDrum":true},{"pitch":36,"velocity":105,"startTime":126.724045,"endTime":126.81025183333334,"isDrum":true},{"pitch":39,"velocity":105,"startTime":126.724045,"endTime":126.81025183333334,"isDrum":true},{"pitch":40,"velocity":105,"startTime":126.724045,"endTime":126.81025183333334,"isDrum":true},{"pitch":42,"velocity":105,"startTime":126.724045,"endTime":126.81025183333334,"isDrum":true},{"pitch":42,"velocity":105,"startTime":126.98266550000001,"endTime":127.06887233333335,"isDrum":true},{"pitch":36,"velocity":105,"startTime":127.241286,"endTime":127.32749283333334,"isDrum":true},{"pitch":42,"velocity":105,"startTime":127.241286,"endTime":127.32749283333334,"isDrum":true},{"pitch":42,"velocity":105,"startTime":127.49990650000001,"endTime":127.58611333333334,"isDrum":true},{"pitch":36,"velocity":105,"startTime":127.758527,"endTime":127.84473383333334,"isDrum":true},{"pitch":39,"velocity":105,"startTime":127.758527,"endTime":127.84473383333334,"isDrum":true},{"pitch":40,"velocity":105,"startTime":127.758527,"endTime":127.84473383333334,"isDrum":true},{"pitch":42,"velocity":105,"startTime":127.758527,"endTime":127.84473383333334,"isDrum":true},{"pitch":42,"velocity":105,"startTime":128.01714750000002,"endTime":128.10335433333333,"isDrum":true},{"pitch":36,"velocity":105,"startTime":128.275768,"endTime":128.36197483333333,"isDrum":true},{"pitch":42,"velocity":105,"startTime":128.275768,"endTime":128.36197483333333,"isDrum":true},{"pitch":42,"velocity":105,"startTime":128.5343885,"endTime":128.62059533333334,"isDrum":true},{"pitch":36,"velocity":105,"startTime":128.793009,"endTime":128.87921583333335,"isDrum":true},{"pitch":39,"velocity":105,"startTime":128.793009,"endTime":128.87921583333335,"isDrum":true},{"pitch":40,"velocity":105,"startTime":128.793009,"endTime":128.87921583333335,"isDrum":true},{"pitch":42,"velocity":105,"startTime":128.793009,"endTime":128.87921583333335,"isDrum":true},{"pitch":42,"velocity":105,"startTime":129.05162950000002,"endTime":129.13783633333335,"isDrum":true},{"pitch":36,"velocity":105,"startTime":129.31025,"endTime":129.39645683333333,"isDrum":true},{"pitch":42,"velocity":105,"startTime":129.31025,"endTime":129.39645683333333,"isDrum":true},{"pitch":42,"velocity":105,"startTime":129.5688705,"endTime":129.65507733333334,"isDrum":true},{"pitch":36,"velocity":105,"startTime":129.827491,"endTime":129.91369783333334,"isDrum":true},{"pitch":39,"velocity":105,"startTime":129.827491,"endTime":129.91369783333334,"isDrum":true},{"pitch":40,"velocity":105,"startTime":129.827491,"endTime":129.91369783333334,"isDrum":true},{"pitch":42,"velocity":105,"startTime":129.827491,"endTime":129.91369783333334,"isDrum":true},{"pitch":42,"velocity":105,"startTime":130.08611150000002,"endTime":130.17231833333335,"isDrum":true},{"pitch":36,"velocity":105,"startTime":130.344732,"endTime":130.43093883333333,"isDrum":true},{"pitch":42,"velocity":105,"startTime":130.344732,"endTime":130.43093883333333,"isDrum":true},{"pitch":42,"velocity":105,"startTime":130.6033525,"endTime":130.68955933333334,"isDrum":true},{"pitch":36,"velocity":105,"startTime":130.861973,"endTime":130.94817983333334,"isDrum":true},{"pitch":39,"velocity":105,"startTime":130.861973,"endTime":130.94817983333334,"isDrum":true},{"pitch":40,"velocity":105,"startTime":130.861973,"endTime":130.94817983333334,"isDrum":true},{"pitch":42,"velocity":105,"startTime":130.861973,"endTime":130.94817983333334,"isDrum":true},{"pitch":42,"velocity":105,"startTime":131.1205935,"endTime":131.20680033333335,"isDrum":true},{"pitch":36,"velocity":105,"startTime":131.37921400000002,"endTime":131.46542083333335,"isDrum":true},{"pitch":42,"velocity":105,"startTime":131.37921400000002,"endTime":131.46542083333335,"isDrum":true},{"pitch":46,"velocity":105,"startTime":131.6378345,"endTime":131.72404133333333,"isDrum":true},{"pitch":39,"velocity":105,"startTime":131.896455,"endTime":131.98266183333334,"isDrum":true},{"pitch":40,"velocity":105,"startTime":131.896455,"endTime":131.98266183333334,"isDrum":true},{"pitch":42,"velocity":105,"startTime":131.896455,"endTime":131.98266183333334,"isDrum":true},{"pitch":42,"velocity":105,"startTime":132.1550755,"endTime":132.24128233333334,"isDrum":true},{"pitch":62,"velocity":123,"startTime":116.12060450000001,"endTime":116.379225,"instrument":1,"program":4},{"pitch":66,"velocity":123,"startTime":116.12060450000001,"endTime":116.379225,"instrument":1,"program":4},{"pitch":69,"velocity":123,"startTime":116.12060450000001,"endTime":116.379225,"instrument":1,"program":4},{"pitch":62,"velocity":123,"startTime":116.379225,"endTime":116.63784550000001,"instrument":1,"program":4},{"pitch":64,"velocity":123,"startTime":116.379225,"endTime":116.63784550000001,"instrument":1,"program":4},{"pitch":66,"velocity":123,"startTime":116.379225,"endTime":116.63784550000001,"instrument":1,"program":4},{"pitch":62,"velocity":123,"startTime":116.63784550000001,"endTime":116.896466,"instrument":1,"program":4},{"pitch":64,"velocity":123,"startTime":116.63784550000001,"endTime":116.896466,"instrument":1,"program":4},{"pitch":66,"velocity":123,"startTime":116.63784550000001,"endTime":116.896466,"instrument":1,"program":4},{"pitch":60,"velocity":123,"startTime":117.15508650000001,"endTime":117.413707,"instrument":1,"program":4},{"pitch":64,"velocity":123,"startTime":117.15508650000001,"endTime":117.413707,"instrument":1,"program":4},{"pitch":67,"velocity":123,"startTime":117.15508650000001,"endTime":117.413707,"instrument":1,"program":4},{"pitch":60,"velocity":123,"startTime":117.413707,"endTime":117.67232750000001,"instrument":1,"program":4},{"pitch":64,"velocity":123,"startTime":117.413707,"endTime":117.67232750000001,"instrument":1,"program":4},{"pitch":67,"velocity":123,"startTime":117.413707,"endTime":117.67232750000001,"instrument":1,"program":4},{"pitch":60,"velocity":123,"startTime":117.67232750000001,"endTime":117.80163775000001,"instrument":1,"program":4},{"pitch":64,"velocity":123,"startTime":117.67232750000001,"endTime":117.80163775000001,"instrument":1,"program":4},{"pitch":67,"velocity":123,"startTime":117.67232750000001,"endTime":117.80163775000001,"instrument":1,"program":4},{"pitch":60,"velocity":123,"startTime":118.18956850000001,"endTime":118.44818900000001,"instrument":1,"program":4},{"pitch":64,"velocity":123,"startTime":118.18956850000001,"endTime":118.44818900000001,"instrument":1,"program":4},{"pitch":67,"velocity":123,"startTime":118.18956850000001,"endTime":118.44818900000001,"instrument":1,"program":4},{"pitch":60,"velocity":123,"startTime":118.44818900000001,"endTime":118.57749925,"instrument":1,"program":4},{"pitch":64,"velocity":123,"startTime":118.44818900000001,"endTime":118.57749925,"instrument":1,"program":4},{"pitch":67,"velocity":123,"startTime":118.44818900000001,"endTime":118.57749925,"instrument":1,"program":4},{"pitch":60,"velocity":123,"startTime":118.7068095,"endTime":118.83611975000001,"instrument":1,"program":4},{"pitch":64,"velocity":123,"startTime":118.7068095,"endTime":118.83611975000001,"instrument":1,"program":4},{"pitch":67,"velocity":123,"startTime":118.7068095,"endTime":118.83611975000001,"instrument":1,"program":4},{"pitch":60,"velocity":123,"startTime":119.2240505,"endTime":119.35336075000001,"instrument":1,"program":4},{"pitch":64,"velocity":123,"startTime":119.2240505,"endTime":119.35336075000001,"instrument":1,"program":4},{"pitch":67,"velocity":123,"startTime":119.2240505,"endTime":119.35336075000001,"instrument":1,"program":4},{"pitch":60,"velocity":123,"startTime":119.99991200000001,"endTime":120.2585325,"instrument":1,"program":4},{"pitch":64,"velocity":123,"startTime":119.99991200000001,"endTime":120.2585325,"instrument":1,"program":4},{"pitch":67,"velocity":123,"startTime":119.99991200000001,"endTime":120.2585325,"instrument":1,"program":4},{"pitch":60,"velocity":123,"startTime":120.2585325,"endTime":120.38784275,"instrument":1,"program":4},{"pitch":64,"velocity":123,"startTime":120.2585325,"endTime":120.38784275,"instrument":1,"program":4},{"pitch":67,"velocity":123,"startTime":120.2585325,"endTime":120.38784275,"instrument":1,"program":4},{"pitch":60,"velocity":123,"startTime":120.77577350000001,"endTime":120.90508375,"instrument":1,"program":4},{"pitch":64,"velocity":123,"startTime":120.77577350000001,"endTime":120.90508375,"instrument":1,"program":4},{"pitch":67,"velocity":123,"startTime":120.77577350000001,"endTime":120.90508375,"instrument":1,"program":4},{"pitch":60,"velocity":123,"startTime":121.551635,"endTime":121.68094525000001,"instrument":1,"program":4},{"pitch":62,"velocity":123,"startTime":121.551635,"endTime":121.68094525000001,"instrument":1,"program":4},{"pitch":67,"velocity":123,"startTime":121.551635,"endTime":121.68094525000001,"instrument":1,"program":4},{"pitch":60,"velocity":123,"startTime":122.068876,"endTime":122.32749650000001,"instrument":1,"program":4},{"pitch":64,"velocity":123,"startTime":122.068876,"endTime":122.32749650000001,"instrument":1,"program":4},{"pitch":67,"velocity":123,"startTime":122.068876,"endTime":122.32749650000001,"instrument":1,"program":4},{"pitch":60,"velocity":123,"startTime":122.32749650000001,"endTime":122.45680675000001,"instrument":1,"program":4},{"pitch":64,"velocity":123,"startTime":122.32749650000001,"endTime":122.45680675000001,"instrument":1,"program":4},{"pitch":67,"velocity":123,"startTime":122.32749650000001,"endTime":122.45680675000001,"instrument":1,"program":4},{"pitch":60,"velocity":123,"startTime":122.84473750000001,"endTime":122.97404775000001,"instrument":1,"program":4},{"pitch":64,"velocity":123,"startTime":122.84473750000001,"endTime":122.97404775000001,"instrument":1,"program":4},{"pitch":67,"velocity":123,"startTime":122.84473750000001,"endTime":122.97404775000001,"instrument":1,"program":4},{"pitch":60,"velocity":123,"startTime":123.62059900000001,"endTime":123.74990925,"instrument":1,"program":4},{"pitch":64,"velocity":123,"startTime":123.62059900000001,"endTime":123.74990925,"instrument":1,"program":4},{"pitch":67,"velocity":123,"startTime":123.62059900000001,"endTime":123.74990925,"instrument":1,"program":4},{"pitch":60,"velocity":123,"startTime":123.8792195,"endTime":124.00852975000001,"instrument":1,"program":4},{"pitch":64,"velocity":123,"startTime":123.8792195,"endTime":124.00852975000001,"instrument":1,"program":4},{"pitch":67,"velocity":123,"startTime":123.8792195,"endTime":124.00852975000001,"instrument":1,"program":4},{"pitch":57,"velocity":123,"startTime":124.65508100000001,"endTime":124.78439125000001,"instrument":1,"program":4},{"pitch":60,"velocity":123,"startTime":124.65508100000001,"endTime":124.78439125000001,"instrument":1,"program":4},{"pitch":64,"velocity":123,"startTime":124.65508100000001,"endTime":124.78439125000001,"instrument":1,"program":4},{"pitch":57,"velocity":123,"startTime":125.17232200000001,"endTime":125.4309425,"instrument":1,"program":4},{"pitch":60,"velocity":123,"startTime":125.17232200000001,"endTime":125.4309425,"instrument":1,"program":4},{"pitch":64,"velocity":123,"startTime":125.17232200000001,"endTime":125.4309425,"instrument":1,"program":4},{"pitch":57,"velocity":123,"startTime":125.4309425,"endTime":125.56025275,"instrument":1,"program":4},{"pitch":60,"velocity":123,"startTime":125.4309425,"endTime":125.56025275,"instrument":1,"program":4},{"pitch":64,"velocity":123,"startTime":125.4309425,"endTime":125.56025275,"instrument":1,"program":4},{"pitch":57,"velocity":123,"startTime":125.94818350000001,"endTime":126.07749375,"instrument":1,"program":4},{"pitch":60,"velocity":123,"startTime":125.94818350000001,"endTime":126.07749375,"instrument":1,"program":4},{"pitch":64,"velocity":123,"startTime":125.94818350000001,"endTime":126.07749375,"instrument":1,"program":4},{"pitch":60,"velocity":123,"startTime":126.724045,"endTime":126.85335525,"instrument":1,"program":4},{"pitch":64,"velocity":123,"startTime":126.724045,"endTime":126.85335525,"instrument":1,"program":4},{"pitch":67,"velocity":123,"startTime":126.724045,"endTime":126.85335525,"instrument":1,"program":4},{"pitch":60,"velocity":123,"startTime":126.98266550000001,"endTime":127.11197575000001,"instrument":1,"program":4},{"pitch":64,"velocity":123,"startTime":126.98266550000001,"endTime":127.11197575000001,"instrument":1,"program":4},{"pitch":67,"velocity":123,"startTime":126.98266550000001,"endTime":127.11197575000001,"instrument":1,"program":4},{"pitch":60,"velocity":123,"startTime":127.758527,"endTime":127.88783725,"instrument":1,"program":4},{"pitch":64,"velocity":123,"startTime":127.758527,"endTime":127.88783725,"instrument":1,"program":4},{"pitch":67,"velocity":123,"startTime":127.758527,"endTime":127.88783725,"instrument":1,"program":4},{"pitch":60,"velocity":123,"startTime":128.275768,"endTime":128.5343885,"instrument":1,"program":4},{"pitch":64,"velocity":123,"startTime":128.275768,"endTime":128.5343885,"instrument":1,"program":4},{"pitch":67,"velocity":123,"startTime":128.275768,"endTime":128.5343885,"instrument":1,"program":4},{"pitch":60,"velocity":123,"startTime":128.5343885,"endTime":128.66369875,"instrument":1,"program":4},{"pitch":64,"velocity":123,"startTime":128.5343885,"endTime":128.66369875,"instrument":1,"program":4},{"pitch":67,"velocity":123,"startTime":128.5343885,"endTime":128.66369875,"instrument":1,"program":4},{"pitch":60,"velocity":123,"startTime":129.05162950000002,"endTime":129.18093975000002,"instrument":1,"program":4},{"pitch":64,"velocity":123,"startTime":129.05162950000002,"endTime":129.18093975000002,"instrument":1,"program":4},{"pitch":67,"velocity":123,"startTime":129.05162950000002,"endTime":129.18093975000002,"instrument":1,"program":4},{"pitch":59,"velocity":123,"startTime":129.827491,"endTime":129.95680125,"instrument":1,"program":4},{"pitch":62,"velocity":123,"startTime":129.827491,"endTime":129.95680125,"instrument":1,"program":4},{"pitch":67,"velocity":123,"startTime":129.827491,"endTime":129.95680125,"instrument":1,"program":4},{"pitch":60,"velocity":123,"startTime":130.861973,"endTime":130.99128325,"instrument":1,"program":4},{"pitch":64,"velocity":123,"startTime":130.861973,"endTime":130.99128325,"instrument":1,"program":4},{"pitch":67,"velocity":123,"startTime":130.861973,"endTime":130.99128325,"instrument":1,"program":4},{"pitch":60,"velocity":123,"startTime":131.1205935,"endTime":131.24990375000002,"instrument":1,"program":4},{"pitch":64,"velocity":123,"startTime":131.1205935,"endTime":131.24990375000002,"instrument":1,"program":4},{"pitch":67,"velocity":123,"startTime":131.1205935,"endTime":131.24990375000002,"instrument":1,"program":4},{"pitch":60,"velocity":123,"startTime":131.6378345,"endTime":131.76714475,"instrument":1,"program":4},{"pitch":64,"velocity":123,"startTime":131.6378345,"endTime":131.76714475,"instrument":1,"program":4},{"pitch":67,"velocity":123,"startTime":131.6378345,"endTime":131.76714475,"instrument":1,"program":4},{"pitch":62,"velocity":123,"startTime":115.861984,"endTime":115.90508741666667,"instrument":2,"program":27},{"pitch":52,"velocity":123,"startTime":116.12060450000001,"endTime":116.24991475,"instrument":2,"program":27},{"pitch":52,"velocity":123,"startTime":116.379225,"endTime":116.50853525000001,"instrument":2,"program":27},{"pitch":55,"velocity":123,"startTime":116.63784550000001,"endTime":116.76715575,"instrument":2,"program":27},{"pitch":55,"velocity":123,"startTime":116.76715575,"endTime":116.85336258333334,"instrument":2,"program":27},{"pitch":60,"velocity":123,"startTime":116.896466,"endTime":116.93956941666667,"instrument":2,"program":27},{"pitch":60,"velocity":123,"startTime":117.28439675000001,"endTime":117.32750016666667,"instrument":2,"program":27},{"pitch":60,"velocity":123,"startTime":117.67232750000001,"endTime":117.71543091666668,"instrument":2,"program":27},{"pitch":60,"velocity":123,"startTime":117.930948,"endTime":117.97405141666667,"instrument":2,"program":27},{"pitch":60,"velocity":123,"startTime":118.18956850000001,"endTime":118.31887875000001,"instrument":2,"program":27},{"pitch":60,"velocity":123,"startTime":118.44818900000001,"endTime":118.57749925,"instrument":2,"program":27},{"pitch":60,"velocity":123,"startTime":118.7068095,"endTime":118.83611975000001,"instrument":2,"program":27},{"pitch":60,"velocity":123,"startTime":118.96543000000001,"endTime":119.09474025,"instrument":2,"program":27},{"pitch":60,"velocity":123,"startTime":119.2240505,"endTime":119.35336075000001,"instrument":2,"program":27},{"pitch":60,"velocity":123,"startTime":119.48267100000001,"endTime":119.61198125000001,"instrument":2,"program":27},{"pitch":62,"velocity":123,"startTime":119.61198125000001,"endTime":119.7412915,"instrument":2,"program":27},{"pitch":60,"velocity":123,"startTime":119.7412915,"endTime":119.87060175,"instrument":2,"program":27},{"pitch":60,"velocity":123,"startTime":119.99991200000001,"endTime":120.04301541666668,"instrument":2,"program":27},{"pitch":60,"velocity":123,"startTime":120.12922225000001,"endTime":120.2585325,"instrument":2,"program":27},{"pitch":64,"velocity":123,"startTime":120.2585325,"endTime":120.38784275,"instrument":2,"program":27},{"pitch":60,"velocity":123,"startTime":121.034394,"endTime":121.07749741666667,"instrument":2,"program":27},{"pitch":60,"velocity":123,"startTime":121.29301450000001,"endTime":121.42232475,"instrument":2,"program":27},{"pitch":60,"velocity":123,"startTime":121.551635,"endTime":121.68094525000001,"instrument":2,"program":27},{"pitch":64,"velocity":123,"startTime":121.68094525000001,"endTime":121.76715208333334,"instrument":2,"program":27},{"pitch":55,"velocity":123,"startTime":122.068876,"endTime":122.11197941666667,"instrument":2,"program":27},{"pitch":55,"velocity":123,"startTime":122.32749650000001,"endTime":122.45680675000001,"instrument":2,"program":27},{"pitch":57,"velocity":123,"startTime":122.45680675000001,"endTime":122.54301358333333,"instrument":2,"program":27},{"pitch":55,"velocity":123,"startTime":122.586117,"endTime":122.71542725,"instrument":2,"program":27},{"pitch":55,"velocity":123,"startTime":122.71542725,"endTime":122.84473750000001,"instrument":2,"program":27},{"pitch":55,"velocity":123,"startTime":122.97404775000001,"endTime":123.103358,"instrument":2,"program":27},{"pitch":57,"velocity":123,"startTime":123.103358,"endTime":123.23266825,"instrument":2,"program":27},{"pitch":55,"velocity":123,"startTime":123.23266825,"endTime":123.3619785,"instrument":2,"program":27},{"pitch":62,"velocity":123,"startTime":123.62059900000001,"endTime":123.74990925,"instrument":2,"program":27},{"pitch":55,"velocity":123,"startTime":123.74990925,"endTime":123.8792195,"instrument":2,"program":27},{"pitch":55,"velocity":123,"startTime":123.8792195,"endTime":124.00852975000001,"instrument":2,"program":27},{"pitch":57,"velocity":123,"startTime":124.13784000000001,"endTime":124.18094341666668,"instrument":2,"program":27},{"pitch":57,"velocity":123,"startTime":124.26715025,"endTime":124.35335708333334,"instrument":2,"program":27},{"pitch":57,"velocity":123,"startTime":124.3964605,"endTime":124.52577075,"instrument":2,"program":27},{"pitch":57,"velocity":123,"startTime":124.52577075,"endTime":124.61197758333334,"instrument":2,"program":27},{"pitch":57,"velocity":123,"startTime":124.65508100000001,"endTime":124.78439125000001,"instrument":2,"program":27},{"pitch":57,"velocity":123,"startTime":124.78439125000001,"endTime":124.87059808333333,"instrument":2,"program":27},{"pitch":57,"velocity":123,"startTime":124.9137015,"endTime":125.04301175,"instrument":2,"program":27},{"pitch":60,"velocity":123,"startTime":125.4309425,"endTime":125.47404591666667,"instrument":2,"program":27},{"pitch":60,"velocity":123,"startTime":125.56025275,"endTime":125.64645958333334,"instrument":2,"program":27},{"pitch":60,"velocity":123,"startTime":125.689563,"endTime":125.81887325000001,"instrument":2,"program":27},{"pitch":60,"velocity":123,"startTime":125.81887325000001,"endTime":125.90508008333335,"instrument":2,"program":27},{"pitch":60,"velocity":123,"startTime":126.206804,"endTime":126.24990741666667,"instrument":2,"program":27},{"pitch":60,"velocity":123,"startTime":126.46542450000001,"endTime":126.59473475,"instrument":2,"program":27},{"pitch":60,"velocity":123,"startTime":126.59473475,"endTime":126.68094158333334,"instrument":2,"program":27},{"pitch":60,"velocity":123,"startTime":126.724045,"endTime":126.85335525,"instrument":2,"program":27},{"pitch":60,"velocity":123,"startTime":126.85335525,"endTime":126.98266550000001,"instrument":2,"program":27},{"pitch":60,"velocity":123,"startTime":127.241286,"endTime":127.28438941666667,"instrument":2,"program":27},{"pitch":60,"velocity":123,"startTime":127.49990650000001,"endTime":127.62921675000001,"instrument":2,"program":27},{"pitch":60,"velocity":123,"startTime":127.62921675000001,"endTime":127.71542358333335,"instrument":2,"program":27},{"pitch":60,"velocity":123,"startTime":127.758527,"endTime":127.80163041666667,"instrument":2,"program":27},{"pitch":60,"velocity":123,"startTime":127.88783725,"endTime":127.97404408333334,"instrument":2,"program":27},{"pitch":60,"velocity":123,"startTime":128.01714750000002,"endTime":128.14645775,"instrument":2,"program":27},{"pitch":60,"velocity":123,"startTime":128.5343885,"endTime":128.57749191666667,"instrument":2,"program":27},{"pitch":60,"velocity":123,"startTime":128.66369875,"endTime":128.74990558333334,"instrument":2,"program":27},{"pitch":60,"velocity":123,"startTime":128.793009,"endTime":128.83611241666668,"instrument":2,"program":27},{"pitch":60,"velocity":123,"startTime":128.92231925000002,"endTime":129.00852608333335,"instrument":2,"program":27},{"pitch":60,"velocity":123,"startTime":129.05162950000002,"endTime":129.18093975000002,"instrument":2,"program":27},{"pitch":60,"velocity":123,"startTime":129.31025,"endTime":129.35335341666666,"instrument":2,"program":27},{"pitch":60,"velocity":123,"startTime":129.43956025,"endTime":129.52576708333333,"instrument":2,"program":27},{"pitch":60,"velocity":123,"startTime":129.5688705,"endTime":129.69818075,"instrument":2,"program":27},{"pitch":60,"velocity":123,"startTime":129.827491,"endTime":129.95680125,"instrument":2,"program":27},{"pitch":60,"velocity":123,"startTime":129.95680125,"endTime":130.08611150000002,"instrument":2,"program":27},{"pitch":60,"velocity":123,"startTime":130.6033525,"endTime":130.64645591666667,"instrument":2,"program":27},{"pitch":60,"velocity":123,"startTime":130.73266275,"endTime":130.81886958333334,"instrument":2,"program":27},{"pitch":60,"velocity":123,"startTime":130.861973,"endTime":130.90507641666667,"instrument":2,"program":27},{"pitch":60,"velocity":123,"startTime":130.99128325,"endTime":131.07749008333334,"instrument":2,"program":27},{"pitch":60,"velocity":123,"startTime":131.1205935,"endTime":131.24990375000002,"instrument":2,"program":27},{"pitch":60,"velocity":123,"startTime":131.37921400000002,"endTime":131.50852425,"instrument":2,"program":27},{"pitch":60,"velocity":123,"startTime":131.50852425,"endTime":131.6378345,"instrument":2,"program":27},{"pitch":60,"velocity":123,"startTime":131.6378345,"endTime":131.76714475,"instrument":2,"program":27},{"pitch":60,"velocity":123,"startTime":131.896455,"endTime":132.02576525,"instrument":2,"program":27},{"pitch":60,"velocity":123,"startTime":132.02576525,"endTime":132.1550755,"instrument":2,"program":27},{"pitch":33,"velocity":117,"startTime":115.861984,"endTime":116.24991475,"instrument":4,"program":35},{"pitch":45,"velocity":117,"startTime":116.24991475,"endTime":116.379225,"instrument":4,"program":35},{"pitch":33,"velocity":117,"startTime":117.930948,"endTime":118.31887875000001,"instrument":4,"program":35},{"pitch":45,"velocity":117,"startTime":118.31887875000001,"endTime":118.44818900000001,"instrument":4,"program":35},{"pitch":38,"velocity":117,"startTime":119.48267100000001,"endTime":119.87060175,"instrument":4,"program":35},{"pitch":40,"velocity":117,"startTime":119.87060175,"endTime":119.99991200000001,"instrument":4,"program":35},{"pitch":33,"velocity":117,"startTime":119.99991200000001,"endTime":120.38784275,"instrument":4,"program":35},{"pitch":21,"velocity":117,"startTime":120.38784275,"endTime":120.43094616666667,"instrument":4,"program":35},{"pitch":33,"velocity":117,"startTime":122.068876,"endTime":122.45680675000001,"instrument":4,"program":35},{"pitch":21,"velocity":117,"startTime":122.45680675000001,"endTime":122.586117,"instrument":4,"program":35},{"pitch":36,"velocity":117,"startTime":122.586117,"endTime":122.84473750000001,"instrument":4,"program":35},{"pitch":33,"velocity":117,"startTime":124.13784000000001,"endTime":124.52577075,"instrument":4,"program":35},{"pitch":33,"velocity":117,"startTime":124.52577075,"endTime":124.65508100000001,"instrument":4,"program":35},{"pitch":33,"velocity":117,"startTime":126.206804,"endTime":126.59473475,"instrument":4,"program":35},{"pitch":33,"velocity":117,"startTime":126.59473475,"endTime":126.724045,"instrument":4,"program":35},{"pitch":38,"velocity":117,"startTime":126.724045,"endTime":126.98266550000001,"instrument":4,"program":35},{"pitch":33,"velocity":117,"startTime":129.31025,"endTime":129.43956025,"instrument":4,"program":35},{"pitch":33,"velocity":117,"startTime":129.5688705,"endTime":129.827491,"instrument":4,"program":35},{"pitch":33,"velocity":118,"startTime":117.930948,"endTime":118.18956850000001,"instrument":5,"program":87},{"pitch":33,"velocity":118,"startTime":128.275768,"endTime":128.5343885,"instrument":5,"program":87},{"pitch":33,"velocity":118,"startTime":130.344732,"endTime":130.6033525,"instrument":5,"program":87},{"pitch":35,"velocity":105,"startTime":132.41369600000002,"endTime":132.54300625000002,"isDrum":true},{"pitch":42,"velocity":105,"startTime":132.41369600000002,"endTime":132.54300625000002,"isDrum":true},{"pitch":35,"velocity":105,"startTime":134.48266,"endTime":134.61197025,"isDrum":true},{"pitch":42,"velocity":105,"startTime":134.48266,"endTime":134.61197025,"isDrum":true},{"pitch":35,"velocity":105,"startTime":135.517142,"endTime":135.64645225,"isDrum":true},{"pitch":42,"velocity":105,"startTime":135.517142,"endTime":135.64645225,"isDrum":true},{"pitch":35,"velocity":105,"startTime":136.551624,"endTime":136.68093425,"isDrum":true},{"pitch":42,"velocity":105,"startTime":136.551624,"endTime":136.68093425,"isDrum":true},{"pitch":35,"velocity":105,"startTime":137.586106,"endTime":137.71541625,"isDrum":true},{"pitch":42,"velocity":105,"startTime":137.586106,"endTime":137.71541625,"isDrum":true},{"pitch":62,"velocity":123,"startTime":132.6723165,"endTime":132.930937,"instrument":1,"program":4},{"pitch":66,"velocity":123,"startTime":132.6723165,"endTime":132.930937,"instrument":1,"program":4},{"pitch":69,"velocity":123,"startTime":132.6723165,"endTime":132.930937,"instrument":1,"program":4},{"pitch":62,"velocity":123,"startTime":133.1895575,"endTime":133.27576433333337,"instrument":1,"program":4},{"pitch":66,"velocity":123,"startTime":133.1895575,"endTime":133.27576433333337,"instrument":1,"program":4},{"pitch":69,"velocity":123,"startTime":133.1895575,"endTime":133.27576433333337,"instrument":1,"program":4},{"pitch":62,"velocity":123,"startTime":134.2240395,"endTime":134.35334975,"instrument":1,"program":4},{"pitch":66,"velocity":123,"startTime":134.2240395,"endTime":134.35334975,"instrument":1,"program":4},{"pitch":69,"velocity":123,"startTime":134.2240395,"endTime":134.35334975,"instrument":1,"program":4},{"pitch":59,"velocity":123,"startTime":134.74128050000002,"endTime":134.87059075000002,"instrument":1,"program":4},{"pitch":62,"velocity":123,"startTime":134.74128050000002,"endTime":134.87059075000002,"instrument":1,"program":4},{"pitch":66,"velocity":123,"startTime":134.74128050000002,"endTime":134.87059075000002,"instrument":1,"program":4},{"pitch":59,"velocity":123,"startTime":134.999901,"endTime":135.12921125,"instrument":1,"program":4},{"pitch":62,"velocity":123,"startTime":134.999901,"endTime":135.12921125,"instrument":1,"program":4},{"pitch":66,"velocity":123,"startTime":134.999901,"endTime":135.12921125,"instrument":1,"program":4},{"pitch":59,"velocity":123,"startTime":135.2585215,"endTime":135.38783175,"instrument":1,"program":4},{"pitch":62,"velocity":123,"startTime":135.2585215,"endTime":135.38783175,"instrument":1,"program":4},{"pitch":66,"velocity":123,"startTime":135.2585215,"endTime":135.38783175,"instrument":1,"program":4},{"pitch":62,"velocity":123,"startTime":135.517142,"endTime":135.64645225,"instrument":1,"program":4},{"pitch":66,"velocity":123,"startTime":135.517142,"endTime":135.64645225,"instrument":1,"program":4},{"pitch":69,"velocity":123,"startTime":135.517142,"endTime":135.64645225,"instrument":1,"program":4},{"pitch":62,"velocity":123,"startTime":135.7757625,"endTime":135.90507275000002,"instrument":1,"program":4},{"pitch":66,"velocity":123,"startTime":135.7757625,"endTime":135.90507275000002,"instrument":1,"program":4},{"pitch":69,"velocity":123,"startTime":135.7757625,"endTime":135.90507275000002,"instrument":1,"program":4},{"pitch":62,"velocity":123,"startTime":136.03438300000002,"endTime":136.16369325,"instrument":1,"program":4},{"pitch":66,"velocity":123,"startTime":136.03438300000002,"endTime":136.16369325,"instrument":1,"program":4},{"pitch":69,"velocity":123,"startTime":136.03438300000002,"endTime":136.16369325,"instrument":1,"program":4},{"pitch":62,"velocity":123,"startTime":136.2930035,"endTime":136.42231375,"instrument":1,"program":4},{"pitch":66,"velocity":123,"startTime":136.2930035,"endTime":136.42231375,"instrument":1,"program":4},{"pitch":69,"velocity":123,"startTime":136.2930035,"endTime":136.42231375,"instrument":1,"program":4},{"pitch":64,"velocity":123,"startTime":136.8102445,"endTime":136.93955475,"instrument":1,"program":4},{"pitch":67,"velocity":123,"startTime":136.8102445,"endTime":136.93955475,"instrument":1,"program":4},{"pitch":71,"velocity":123,"startTime":136.8102445,"endTime":136.93955475,"instrument":1,"program":4},{"pitch":64,"velocity":123,"startTime":137.06886500000002,"endTime":137.19817525000002,"instrument":1,"program":4},{"pitch":67,"velocity":123,"startTime":137.06886500000002,"endTime":137.19817525000002,"instrument":1,"program":4},{"pitch":71,"velocity":123,"startTime":137.06886500000002,"endTime":137.19817525000002,"instrument":1,"program":4},{"pitch":64,"velocity":123,"startTime":137.3274855,"endTime":137.41369233333336,"instrument":1,"program":4},{"pitch":67,"velocity":123,"startTime":137.3274855,"endTime":137.41369233333336,"instrument":1,"program":4},{"pitch":71,"velocity":123,"startTime":137.3274855,"endTime":137.41369233333336,"instrument":1,"program":4},{"pitch":64,"velocity":123,"startTime":137.8447265,"endTime":137.97403675,"instrument":1,"program":4},{"pitch":67,"velocity":123,"startTime":137.8447265,"endTime":137.97403675,"instrument":1,"program":4},{"pitch":71,"velocity":123,"startTime":137.8447265,"endTime":137.97403675,"instrument":1,"program":4},{"pitch":64,"velocity":123,"startTime":138.103347,"endTime":138.27576066666666,"instrument":1,"program":4},{"pitch":67,"velocity":123,"startTime":138.103347,"endTime":138.27576066666666,"instrument":1,"program":4},{"pitch":71,"velocity":123,"startTime":138.103347,"endTime":138.23265725000002,"instrument":1,"program":4},{"pitch":64,"velocity":123,"startTime":138.36196750000002,"endTime":138.44817433333336,"instrument":1,"program":4},{"pitch":67,"velocity":123,"startTime":138.36196750000002,"endTime":138.49127775,"instrument":1,"program":4},{"pitch":71,"velocity":123,"startTime":138.36196750000002,"endTime":138.49127775,"instrument":1,"program":4},{"pitch":60,"velocity":123,"startTime":132.41369600000002,"endTime":132.45679941666666,"instrument":2,"program":27},{"pitch":57,"velocity":123,"startTime":132.54300625000002,"endTime":132.62921308333335,"instrument":2,"program":27},{"pitch":60,"velocity":123,"startTime":132.6723165,"endTime":132.75852333333336,"instrument":2,"program":27},{"pitch":57,"velocity":123,"startTime":132.80162675,"endTime":132.88783358333336,"instrument":2,"program":27},{"pitch":60,"velocity":123,"startTime":132.930937,"endTime":132.97404041666667,"instrument":2,"program":27},{"pitch":57,"velocity":123,"startTime":133.1895575,"endTime":133.23266091666665,"instrument":2,"program":27},{"pitch":60,"velocity":123,"startTime":133.31886775,"endTime":133.40507458333335,"instrument":2,"program":27},{"pitch":57,"velocity":123,"startTime":133.448178,"endTime":133.53438483333335,"instrument":2,"program":27},{"pitch":57,"velocity":123,"startTime":133.70679850000002,"endTime":133.83610875,"instrument":2,"program":27},{"pitch":60,"velocity":123,"startTime":133.83610875,"endTime":133.92231558333336,"instrument":2,"program":27},{"pitch":57,"velocity":123,"startTime":133.965419,"endTime":134.09472925,"instrument":2,"program":27},{"pitch":57,"velocity":123,"startTime":134.48266,"endTime":134.52576341666665,"instrument":2,"program":27},{"pitch":57,"velocity":123,"startTime":134.61197025,"endTime":134.69817708333335,"instrument":2,"program":27},{"pitch":57,"velocity":123,"startTime":134.74128050000002,"endTime":134.78438391666666,"instrument":2,"program":27},{"pitch":57,"velocity":123,"startTime":134.87059075000002,"endTime":134.95679758333335,"instrument":2,"program":27},{"pitch":62,"velocity":123,"startTime":134.999901,"endTime":135.04300441666666,"instrument":2,"program":27},{"pitch":62,"velocity":123,"startTime":135.2585215,"endTime":135.30162491666667,"instrument":2,"program":27},{"pitch":62,"velocity":123,"startTime":135.517142,"endTime":135.56024541666665,"instrument":2,"program":27},{"pitch":62,"velocity":123,"startTime":135.64645225,"endTime":135.73265908333335,"instrument":2,"program":27},{"pitch":62,"velocity":123,"startTime":135.7757625,"endTime":135.90507275000002,"instrument":2,"program":27},{"pitch":62,"velocity":123,"startTime":136.03438300000002,"endTime":136.16369325,"instrument":2,"program":27},{"pitch":62,"velocity":123,"startTime":136.16369325,"endTime":136.24990008333336,"instrument":2,"program":27},{"pitch":62,"velocity":123,"startTime":136.551624,"endTime":136.59472741666667,"instrument":2,"program":27},{"pitch":62,"velocity":123,"startTime":136.68093425,"endTime":136.76714108333337,"instrument":2,"program":27},{"pitch":62,"velocity":123,"startTime":136.8102445,"endTime":136.89645133333335,"instrument":2,"program":27},{"pitch":62,"velocity":123,"startTime":136.93955475,"endTime":137.02576158333335,"instrument":2,"program":27},{"pitch":62,"velocity":123,"startTime":137.06886500000002,"endTime":137.19817525000002,"instrument":2,"program":27},{"pitch":62,"velocity":123,"startTime":137.19817525000002,"endTime":137.3274855,"instrument":2,"program":27},{"pitch":62,"velocity":123,"startTime":137.586106,"endTime":137.67231283333336,"instrument":2,"program":27},{"pitch":62,"velocity":123,"startTime":137.71541625,"endTime":137.80162308333337,"instrument":2,"program":27},{"pitch":62,"velocity":123,"startTime":137.8447265,"endTime":137.97403675,"instrument":2,"program":27},{"pitch":62,"velocity":123,"startTime":138.103347,"endTime":138.23265725000002,"instrument":2,"program":27},{"pitch":62,"velocity":123,"startTime":138.23265725000002,"endTime":138.31886408333335,"instrument":2,"program":27},{"pitch":62,"velocity":123,"startTime":138.36196750000002,"endTime":138.44817433333336,"instrument":2,"program":27},{"pitch":62,"velocity":123,"startTime":138.49127775,"endTime":138.57748458333214,"instrument":2,"program":27},{"pitch":35,"velocity":117,"startTime":135.2585215,"endTime":135.517142,"instrument":4,"program":35},{"pitch":40,"velocity":117,"startTime":135.517142,"endTime":135.7757625,"instrument":4,"program":35},{"pitch":35,"velocity":117,"startTime":135.7757625,"endTime":135.90507275000002,"instrument":4,"program":35},{"pitch":40,"velocity":117,"startTime":136.551624,"endTime":136.68093425,"instrument":4,"program":35},{"pitch":35,"velocity":117,"startTime":136.68093425,"endTime":136.8102445,"instrument":4,"program":35},{"pitch":40,"velocity":117,"startTime":136.8102445,"endTime":136.93955475,"instrument":4,"program":35},{"pitch":40,"velocity":117,"startTime":137.8447265,"endTime":138.103347,"instrument":4,"program":35},{"pitch":45,"velocity":117,"startTime":138.103347,"endTime":138.36196750000002,"instrument":4,"program":35},{"pitch":40,"velocity":117,"startTime":138.36196750000002,"endTime":138.49127775,"instrument":4,"program":35},{"pitch":40,"velocity":128,"endTime":0.5172410000000001,"instrument":6,"program":28},{"pitch":52,"velocity":128,"startTime":0.5172410000000001,"endTime":0.7758614999999999,"instrument":6,"program":28},{"pitch":40,"velocity":128,"startTime":0.7758614999999999,"endTime":1.034482,"instrument":6,"program":28},{"pitch":44,"velocity":128,"startTime":1.034482,"endTime":1.551723,"instrument":6,"program":28},{"pitch":56,"velocity":128,"startTime":1.551723,"endTime":1.8103434999999999,"instrument":6,"program":28},{"pitch":44,"velocity":128,"startTime":1.8103434999999999,"endTime":2.068964,"instrument":6,"program":28},{"pitch":49,"velocity":128,"startTime":2.068964,"endTime":2.586205,"instrument":6,"program":28},{"pitch":61,"velocity":128,"startTime":2.586205,"endTime":2.8448255,"instrument":6,"program":28},{"pitch":49,"velocity":128,"startTime":2.8448255,"endTime":3.103446,"instrument":6,"program":28},{"pitch":45,"velocity":128,"startTime":3.103446,"endTime":3.620687,"instrument":6,"program":28},{"pitch":57,"velocity":128,"startTime":3.620687,"endTime":3.8793075,"instrument":6,"program":28},{"pitch":45,"velocity":128,"startTime":3.8793075,"endTime":4.137928,"instrument":6,"program":28},{"pitch":48,"velocity":128,"startTime":4.137928,"endTime":4.655169,"instrument":6,"program":28},{"pitch":48,"velocity":128,"startTime":4.655169,"endTime":5.1724099999999975,"instrument":6,"program":28},{"pitch":48,"velocity":128,"startTime":4.913789499999999,"endTime":5.431030499999997,"instrument":6,"program":28},{"pitch":48,"velocity":128,"startTime":5.1724099999999975,"endTime":5.431030499999997,"instrument":6,"program":28},{"pitch":50,"velocity":128,"startTime":5.431030499999997,"endTime":5.689650999999996,"instrument":6,"program":28},{"pitch":50,"velocity":128,"startTime":5.689650999999996,"endTime":6.206891999999996,"instrument":6,"program":28},{"pitch":47,"velocity":128,"startTime":6.206891999999996,"endTime":6.724132999999996,"instrument":6,"program":28},{"pitch":47,"velocity":128,"startTime":6.724132999999996,"endTime":7.241373999999994,"instrument":6,"program":28},{"pitch":47,"velocity":128,"startTime":6.982753499999996,"endTime":7.499994499999993,"instrument":6,"program":28},{"pitch":47,"velocity":128,"startTime":7.241373999999994,"endTime":7.499994499999993,"instrument":6,"program":28},{"pitch":50,"velocity":128,"startTime":7.499994499999993,"endTime":7.758614999999993,"instrument":6,"program":28},{"pitch":50,"velocity":128,"startTime":7.758614999999993,"endTime":8.275855999999992,"instrument":6,"program":28},{"pitch":40,"velocity":128,"startTime":8.275855999999992,"endTime":8.79309699999999,"instrument":6,"program":28},{"pitch":52,"velocity":128,"startTime":8.79309699999999,"endTime":9.051717499999993,"instrument":6,"program":28},{"pitch":47,"velocity":128,"startTime":8.79309699999999,"endTime":9.051717499999993,"instrument":6,"program":28},{"pitch":40,"velocity":128,"startTime":9.051717499999993,"endTime":9.310337999999993,"instrument":6,"program":28},{"pitch":44,"velocity":128,"startTime":9.310337999999993,"endTime":9.827578999999993,"instrument":6,"program":28},{"pitch":56,"velocity":128,"startTime":9.827578999999993,"endTime":10.086199499999994,"instrument":6,"program":28},{"pitch":51,"velocity":128,"startTime":9.827578999999993,"endTime":10.086199499999994,"instrument":6,"program":28},{"pitch":44,"velocity":128,"startTime":10.086199499999994,"endTime":10.344819999999993,"instrument":6,"program":28},{"pitch":49,"velocity":128,"startTime":10.344819999999993,"endTime":10.862060999999994,"instrument":6,"program":28},{"pitch":61,"velocity":128,"startTime":10.862060999999994,"endTime":11.120681499999993,"instrument":6,"program":28},{"pitch":54,"velocity":128,"startTime":10.862060999999994,"endTime":11.120681499999993,"instrument":6,"program":28},{"pitch":49,"velocity":128,"startTime":11.120681499999993,"endTime":11.379301999999994,"instrument":6,"program":28},{"pitch":45,"velocity":128,"startTime":11.379301999999994,"endTime":11.896542999999992,"instrument":6,"program":28},{"pitch":57,"velocity":128,"startTime":11.896542999999992,"endTime":12.155163499999993,"instrument":6,"program":28},{"pitch":52,"velocity":128,"startTime":11.896542999999992,"endTime":12.06895666666666,"instrument":6,"program":28},{"pitch":45,"velocity":128,"startTime":12.155163499999993,"endTime":12.413783999999994,"instrument":6,"program":28},{"pitch":48,"velocity":128,"startTime":12.413783999999994,"endTime":12.931024999999993,"instrument":6,"program":28},{"pitch":48,"velocity":128,"startTime":12.931024999999993,"endTime":13.448265999999991,"instrument":6,"program":28},{"pitch":60,"velocity":128,"startTime":12.931024999999993,"endTime":13.189645499999994,"instrument":6,"program":28},{"pitch":55,"velocity":128,"startTime":12.931024999999993,"endTime":13.448265999999991,"instrument":6,"program":28},{"pitch":48,"velocity":128,"startTime":13.189645499999994,"endTime":13.70688649999999,"instrument":6,"program":28},{"pitch":48,"velocity":128,"startTime":13.448265999999991,"endTime":13.70688649999999,"instrument":6,"program":28},{"pitch":50,"velocity":128,"startTime":13.70688649999999,"endTime":13.965506999999992,"instrument":6,"program":28},{"pitch":50,"velocity":128,"startTime":13.965506999999992,"endTime":14.48274799999999,"instrument":6,"program":28},{"pitch":62,"velocity":128,"startTime":13.965506999999992,"endTime":14.48274799999999,"instrument":6,"program":28},{"pitch":57,"velocity":128,"startTime":13.965506999999992,"endTime":14.48274799999999,"instrument":6,"program":28},{"pitch":47,"velocity":128,"startTime":14.48274799999999,"endTime":14.999988999999989,"instrument":6,"program":28},{"pitch":47,"velocity":128,"startTime":14.999988999999989,"endTime":15.517229999999989,"instrument":6,"program":28},{"pitch":54,"velocity":128,"startTime":14.999988999999989,"endTime":15.25860949999999,"instrument":6,"program":28},{"pitch":59,"velocity":128,"startTime":14.999988999999989,"endTime":15.25860949999999,"instrument":6,"program":28},{"pitch":47,"velocity":128,"startTime":15.25860949999999,"endTime":15.775850499999986,"instrument":6,"program":28},{"pitch":47,"velocity":128,"startTime":15.517229999999989,"endTime":15.775850499999986,"instrument":6,"program":28},{"pitch":50,"velocity":128,"startTime":15.775850499999986,"endTime":16.03447099999999,"instrument":6,"program":28},{"pitch":50,"velocity":128,"startTime":16.03447099999999,"endTime":16.551711999999988,"instrument":6,"program":28},{"pitch":57,"velocity":128,"startTime":16.03447099999999,"endTime":16.551711999999988,"instrument":6,"program":28},{"pitch":62,"velocity":128,"startTime":16.03447099999999,"endTime":16.551711999999988,"instrument":6,"program":28},{"pitch":40,"velocity":128,"startTime":16.551711999999988,"endTime":17.068952999999986,"instrument":6,"program":28},{"pitch":52,"velocity":128,"startTime":17.068952999999986,"endTime":17.327573499999986,"instrument":6,"program":28},{"pitch":47,"velocity":128,"startTime":17.068952999999986,"endTime":17.327573499999986,"instrument":6,"program":28},{"pitch":40,"velocity":128,"startTime":17.327573499999986,"endTime":17.58619399999999,"instrument":6,"program":28},{"pitch":44,"velocity":128,"startTime":17.58619399999999,"endTime":18.103434999999987,"instrument":6,"program":28},{"pitch":56,"velocity":128,"startTime":18.103434999999987,"endTime":18.362055499999986,"instrument":6,"program":28},{"pitch":51,"velocity":128,"startTime":18.103434999999987,"endTime":18.362055499999986,"instrument":6,"program":28},{"pitch":44,"velocity":128,"startTime":18.362055499999986,"endTime":18.620675999999982,"instrument":6,"program":28},{"pitch":49,"velocity":128,"startTime":18.620675999999982,"endTime":19.137916999999984,"instrument":6,"program":28},{"pitch":61,"velocity":128,"startTime":19.137916999999984,"endTime":19.396537499999983,"instrument":6,"program":28},{"pitch":54,"velocity":128,"startTime":19.137916999999984,"endTime":19.396537499999983,"instrument":6,"program":28},{"pitch":49,"velocity":128,"startTime":19.396537499999983,"endTime":19.655157999999982,"instrument":6,"program":28},{"pitch":45,"velocity":128,"startTime":19.655157999999982,"endTime":20.17239899999998,"instrument":6,"program":28},{"pitch":57,"velocity":128,"startTime":20.17239899999998,"endTime":20.431019499999984,"instrument":6,"program":28},{"pitch":52,"velocity":128,"startTime":20.17239899999998,"endTime":20.344812666666652,"instrument":6,"program":28},{"pitch":45,"velocity":128,"startTime":20.431019499999984,"endTime":20.689639999999983,"instrument":6,"program":28},{"pitch":48,"velocity":128,"startTime":20.689639999999983,"endTime":21.206880999999985,"instrument":6,"program":28},{"pitch":48,"velocity":128,"startTime":21.206880999999985,"endTime":21.72412199999998,"instrument":6,"program":28},{"pitch":60,"velocity":128,"startTime":21.206880999999985,"endTime":21.465501499999984,"instrument":6,"program":28},{"pitch":55,"velocity":128,"startTime":21.206880999999985,"endTime":21.72412199999998,"instrument":6,"program":28},{"pitch":48,"velocity":128,"startTime":21.465501499999984,"endTime":21.982742499999983,"instrument":6,"program":28},{"pitch":48,"velocity":128,"startTime":21.72412199999998,"endTime":21.982742499999983,"instrument":6,"program":28},{"pitch":50,"velocity":128,"startTime":21.982742499999983,"endTime":22.241362999999982,"instrument":6,"program":28},{"pitch":50,"velocity":128,"startTime":22.241362999999982,"endTime":22.758603999999984,"instrument":6,"program":28},{"pitch":62,"velocity":128,"startTime":22.241362999999982,"endTime":22.758603999999984,"instrument":6,"program":28},{"pitch":57,"velocity":128,"startTime":22.241362999999982,"endTime":22.758603999999984,"instrument":6,"program":28},{"pitch":47,"velocity":128,"startTime":22.758603999999984,"endTime":23.275844999999986,"instrument":6,"program":28},{"pitch":47,"velocity":128,"startTime":23.275844999999986,"endTime":23.79308599999998,"instrument":6,"program":28},{"pitch":54,"velocity":128,"startTime":23.275844999999986,"endTime":23.534465499999982,"instrument":6,"program":28},{"pitch":59,"velocity":128,"startTime":23.275844999999986,"endTime":23.534465499999982,"instrument":6,"program":28},{"pitch":47,"velocity":128,"startTime":23.534465499999982,"endTime":24.051706499999984,"instrument":6,"program":28},{"pitch":47,"velocity":128,"startTime":23.79308599999998,"endTime":24.051706499999984,"instrument":6,"program":28},{"pitch":50,"velocity":128,"startTime":24.051706499999984,"endTime":24.310326999999983,"instrument":6,"program":28},{"pitch":50,"velocity":128,"startTime":24.310326999999983,"endTime":24.827567999999985,"instrument":6,"program":28},{"pitch":57,"velocity":128,"startTime":24.310326999999983,"endTime":24.827567999999985,"instrument":6,"program":28},{"pitch":62,"velocity":128,"startTime":24.310326999999983,"endTime":24.827567999999985,"instrument":6,"program":28},{"pitch":40,"velocity":128,"startTime":24.827567999999985,"endTime":25.344808999999984,"instrument":6,"program":28},{"pitch":52,"velocity":128,"startTime":25.344808999999984,"endTime":25.603429499999983,"instrument":6,"program":28},{"pitch":47,"velocity":128,"startTime":25.344808999999984,"endTime":25.603429499999983,"instrument":6,"program":28},{"pitch":40,"velocity":128,"startTime":25.603429499999983,"endTime":25.862049999999982,"instrument":6,"program":28},{"pitch":44,"velocity":128,"startTime":25.862049999999982,"endTime":26.379290999999984,"instrument":6,"program":28},{"pitch":56,"velocity":128,"startTime":26.379290999999984,"endTime":26.637911499999984,"instrument":6,"program":28},{"pitch":51,"velocity":128,"startTime":26.379290999999984,"endTime":26.637911499999984,"instrument":6,"program":28},{"pitch":44,"velocity":128,"startTime":26.637911499999984,"endTime":26.89653199999998,"instrument":6,"program":28},{"pitch":49,"velocity":128,"startTime":26.89653199999998,"endTime":27.41377299999998,"instrument":6,"program":28},{"pitch":61,"velocity":128,"startTime":27.41377299999998,"endTime":27.67239349999998,"instrument":6,"program":28},{"pitch":54,"velocity":128,"startTime":27.41377299999998,"endTime":27.67239349999998,"instrument":6,"program":28},{"pitch":49,"velocity":128,"startTime":27.67239349999998,"endTime":27.93101399999998,"instrument":6,"program":28},{"pitch":45,"velocity":128,"startTime":27.93101399999998,"endTime":28.44825499999998,"instrument":6,"program":28},{"pitch":57,"velocity":128,"startTime":28.44825499999998,"endTime":28.70687549999998,"instrument":6,"program":28},{"pitch":52,"velocity":128,"startTime":28.44825499999998,"endTime":28.62066866666665,"instrument":6,"program":28},{"pitch":45,"velocity":128,"startTime":28.70687549999998,"endTime":28.96549599999998,"instrument":6,"program":28},{"pitch":48,"velocity":128,"startTime":28.96549599999998,"endTime":29.482736999999982,"instrument":6,"program":28},{"pitch":48,"velocity":128,"startTime":29.482736999999982,"endTime":29.999977999999977,"instrument":6,"program":28},{"pitch":60,"velocity":128,"startTime":29.482736999999982,"endTime":29.74135749999998,"instrument":6,"program":28},{"pitch":55,"velocity":128,"startTime":29.482736999999982,"endTime":29.999977999999977,"instrument":6,"program":28},{"pitch":48,"velocity":128,"startTime":29.74135749999998,"endTime":30.25859849999998,"instrument":6,"program":28},{"pitch":48,"velocity":128,"startTime":29.999977999999977,"endTime":30.25859849999998,"instrument":6,"program":28},{"pitch":50,"velocity":128,"startTime":30.25859849999998,"endTime":30.51721899999998,"instrument":6,"program":28},{"pitch":50,"velocity":128,"startTime":30.51721899999998,"endTime":31.03445999999998,"instrument":6,"program":28},{"pitch":62,"velocity":128,"startTime":30.51721899999998,"endTime":31.03445999999998,"instrument":6,"program":28},{"pitch":57,"velocity":128,"startTime":30.51721899999998,"endTime":31.03445999999998,"instrument":6,"program":28},{"pitch":47,"velocity":128,"startTime":31.03445999999998,"endTime":31.551700999999984,"instrument":6,"program":28},{"pitch":47,"velocity":128,"startTime":31.551700999999984,"endTime":32.06894199999998,"instrument":6,"program":28},{"pitch":54,"velocity":128,"startTime":31.551700999999984,"endTime":31.81032149999998,"instrument":6,"program":28},{"pitch":59,"velocity":128,"startTime":31.551700999999984,"endTime":31.81032149999998,"instrument":6,"program":28},{"pitch":47,"velocity":128,"startTime":31.81032149999998,"endTime":32.327562499999985,"instrument":6,"program":28},{"pitch":47,"velocity":128,"startTime":32.06894199999998,"endTime":32.327562499999985,"instrument":6,"program":28},{"pitch":50,"velocity":128,"startTime":32.327562499999985,"endTime":32.58618299999998,"instrument":6,"program":28},{"pitch":50,"velocity":128,"startTime":32.58618299999998,"endTime":33.10342399999998,"instrument":6,"program":28},{"pitch":57,"velocity":128,"startTime":32.58618299999998,"endTime":33.10342399999998,"instrument":6,"program":28},{"pitch":62,"velocity":128,"startTime":32.58618299999998,"endTime":33.10342399999998,"instrument":6,"program":28},{"pitch":40,"velocity":128,"startTime":33.10342399999998,"endTime":33.62066499999998,"instrument":6,"program":28},{"pitch":52,"velocity":128,"startTime":33.62066499999998,"endTime":33.87928549999998,"instrument":6,"program":28},{"pitch":47,"velocity":128,"startTime":33.62066499999998,"endTime":33.87928549999998,"instrument":6,"program":28},{"pitch":40,"velocity":128,"startTime":33.87928549999998,"endTime":34.13790599999998,"instrument":6,"program":28},{"pitch":44,"velocity":128,"startTime":34.13790599999998,"endTime":34.65514699999998,"instrument":6,"program":28},{"pitch":56,"velocity":128,"startTime":34.65514699999998,"endTime":34.91376749999998,"instrument":6,"program":28},{"pitch":51,"velocity":128,"startTime":34.65514699999998,"endTime":34.91376749999998,"instrument":6,"program":28},{"pitch":44,"velocity":128,"startTime":34.91376749999998,"endTime":35.17238799999998,"instrument":6,"program":28},{"pitch":49,"velocity":128,"startTime":35.17238799999998,"endTime":35.68962899999998,"instrument":6,"program":28},{"pitch":61,"velocity":128,"startTime":35.68962899999998,"endTime":35.94824949999999,"instrument":6,"program":28},{"pitch":54,"velocity":128,"startTime":35.68962899999998,"endTime":35.94824949999999,"instrument":6,"program":28},{"pitch":49,"velocity":128,"startTime":35.94824949999999,"endTime":36.20686999999999,"instrument":6,"program":28},{"pitch":45,"velocity":128,"startTime":36.20686999999999,"endTime":36.724110999999986,"instrument":6,"program":28},{"pitch":57,"velocity":128,"startTime":36.724110999999986,"endTime":36.982731499999986,"instrument":6,"program":28},{"pitch":52,"velocity":128,"startTime":36.724110999999986,"endTime":36.89652466666665,"instrument":6,"program":28},{"pitch":45,"velocity":128,"startTime":36.982731499999986,"endTime":37.24135199999999,"instrument":6,"program":28},{"pitch":48,"velocity":128,"startTime":37.24135199999999,"endTime":37.49997249999999,"instrument":6,"program":28},{"pitch":55,"velocity":128,"startTime":37.24135199999999,"endTime":37.49997249999999,"instrument":6,"program":28},{"pitch":60,"velocity":128,"startTime":37.24135199999999,"endTime":37.49997249999999,"instrument":6,"program":28},{"pitch":60,"velocity":128,"startTime":37.49997249999999,"endTime":37.758593,"instrument":6,"program":28},{"pitch":55,"velocity":128,"startTime":37.49997249999999,"endTime":37.758593,"instrument":6,"program":28},{"pitch":48,"velocity":128,"startTime":37.49997249999999,"endTime":37.758593,"instrument":6,"program":28},{"pitch":48,"velocity":128,"startTime":37.758593,"endTime":38.0172135,"instrument":6,"program":28},{"pitch":55,"velocity":128,"startTime":37.758593,"endTime":38.0172135,"instrument":6,"program":28},{"pitch":60,"velocity":128,"startTime":37.758593,"endTime":38.0172135,"instrument":6,"program":28},{"pitch":60,"velocity":128,"startTime":38.0172135,"endTime":38.14652374999999,"instrument":6,"program":28},{"pitch":55,"velocity":128,"startTime":38.0172135,"endTime":38.14652374999999,"instrument":6,"program":28},{"pitch":48,"velocity":128,"startTime":38.0172135,"endTime":38.14652374999999,"instrument":6,"program":28},{"pitch":48,"velocity":128,"startTime":38.14652374999999,"endTime":38.27583399999999,"instrument":6,"program":28},{"pitch":55,"velocity":128,"startTime":38.14652374999999,"endTime":38.27583399999999,"instrument":6,"program":28},{"pitch":60,"velocity":128,"startTime":38.14652374999999,"endTime":38.27583399999999,"instrument":6,"program":28},{"pitch":60,"velocity":128,"startTime":38.27583399999999,"endTime":38.534454499999995,"instrument":6,"program":28},{"pitch":55,"velocity":128,"startTime":38.27583399999999,"endTime":38.534454499999995,"instrument":6,"program":28},{"pitch":48,"velocity":128,"startTime":38.27583399999999,"endTime":38.534454499999995,"instrument":6,"program":28},{"pitch":62,"velocity":128,"startTime":38.534454499999995,"endTime":38.793074999999995,"instrument":6,"program":28},{"pitch":57,"velocity":128,"startTime":38.534454499999995,"endTime":38.793074999999995,"instrument":6,"program":28},{"pitch":50,"velocity":128,"startTime":38.534454499999995,"endTime":38.793074999999995,"instrument":6,"program":28},{"pitch":50,"velocity":128,"startTime":38.793074999999995,"endTime":39.31031599999999,"instrument":6,"program":28},{"pitch":62,"velocity":128,"startTime":38.793074999999995,"endTime":39.31031599999999,"instrument":6,"program":28},{"pitch":57,"velocity":128,"startTime":38.793074999999995,"endTime":39.31031599999999,"instrument":6,"program":28},{"pitch":40,"velocity":128,"startTime":57.930991999999996,"endTime":58.44823299999999,"instrument":6,"program":28},{"pitch":52,"velocity":128,"startTime":58.44823299999999,"endTime":58.706853499999994,"instrument":6,"program":28},{"pitch":47,"velocity":128,"startTime":58.44823299999999,"endTime":58.706853499999994,"instrument":6,"program":28},{"pitch":40,"velocity":128,"startTime":58.706853499999994,"endTime":58.96547399999999,"instrument":6,"program":28},{"pitch":44,"velocity":128,"startTime":58.96547399999999,"endTime":59.48271499999999,"instrument":6,"program":28},{"pitch":56,"velocity":128,"startTime":59.48271499999999,"endTime":59.7413355,"instrument":6,"program":28},{"pitch":51,"velocity":128,"startTime":59.48271499999999,"endTime":59.7413355,"instrument":6,"program":28},{"pitch":44,"velocity":128,"startTime":59.7413355,"endTime":59.999956,"instrument":6,"program":28},{"pitch":49,"velocity":128,"startTime":59.999956,"endTime":60.517196999999996,"instrument":6,"program":28},{"pitch":61,"velocity":128,"startTime":60.517196999999996,"endTime":60.775817499999995,"instrument":6,"program":28},{"pitch":54,"velocity":128,"startTime":60.517196999999996,"endTime":60.775817499999995,"instrument":6,"program":28},{"pitch":49,"velocity":128,"startTime":60.775817499999995,"endTime":61.034438,"instrument":6,"program":28},{"pitch":45,"velocity":128,"startTime":61.034438,"endTime":61.551679,"instrument":6,"program":28},{"pitch":57,"velocity":128,"startTime":61.551679,"endTime":61.8102995,"instrument":6,"program":28},{"pitch":52,"velocity":128,"startTime":61.551679,"endTime":61.724092666666664,"instrument":6,"program":28},{"pitch":45,"velocity":128,"startTime":61.8102995,"endTime":62.06892,"instrument":6,"program":28},{"pitch":48,"velocity":128,"startTime":62.06892,"endTime":62.586161,"instrument":6,"program":28},{"pitch":48,"velocity":128,"startTime":62.586161,"endTime":63.103402,"instrument":6,"program":28},{"pitch":60,"velocity":128,"startTime":62.586161,"endTime":62.8447815,"instrument":6,"program":28},{"pitch":55,"velocity":128,"startTime":62.586161,"endTime":63.103402,"instrument":6,"program":28},{"pitch":48,"velocity":128,"startTime":62.8447815,"endTime":63.36202250000001,"instrument":6,"program":28},{"pitch":48,"velocity":128,"startTime":63.103402,"endTime":63.36202250000001,"instrument":6,"program":28},{"pitch":50,"velocity":128,"startTime":63.36202250000001,"endTime":63.62064300000001,"instrument":6,"program":28},{"pitch":50,"velocity":128,"startTime":63.62064300000001,"endTime":64.137884,"instrument":6,"program":28},{"pitch":62,"velocity":128,"startTime":63.62064300000001,"endTime":64.137884,"instrument":6,"program":28},{"pitch":57,"velocity":128,"startTime":63.62064300000001,"endTime":64.137884,"instrument":6,"program":28},{"pitch":47,"velocity":128,"startTime":64.137884,"endTime":64.655125,"instrument":6,"program":28},{"pitch":47,"velocity":128,"startTime":64.655125,"endTime":65.17236600000001,"instrument":6,"program":28},{"pitch":54,"velocity":128,"startTime":64.655125,"endTime":64.9137455,"instrument":6,"program":28},{"pitch":59,"velocity":128,"startTime":64.655125,"endTime":64.9137455,"instrument":6,"program":28},{"pitch":47,"velocity":128,"startTime":64.9137455,"endTime":65.43098650000002,"instrument":6,"program":28},{"pitch":47,"velocity":128,"startTime":65.17236600000001,"endTime":65.43098650000002,"instrument":6,"program":28},{"pitch":50,"velocity":128,"startTime":65.43098650000002,"endTime":65.68960700000001,"instrument":6,"program":28},{"pitch":50,"velocity":128,"startTime":65.68960700000001,"endTime":66.20684800000001,"instrument":6,"program":28},{"pitch":57,"velocity":128,"startTime":65.68960700000001,"endTime":66.20684800000001,"instrument":6,"program":28},{"pitch":62,"velocity":128,"startTime":65.68960700000001,"endTime":66.20684800000001,"instrument":6,"program":28},{"pitch":40,"velocity":128,"startTime":66.20684800000001,"endTime":66.724089,"instrument":6,"program":28},{"pitch":52,"velocity":128,"startTime":66.724089,"endTime":66.98270950000001,"instrument":6,"program":28},{"pitch":47,"velocity":128,"startTime":66.724089,"endTime":66.98270950000001,"instrument":6,"program":28},{"pitch":40,"velocity":128,"startTime":66.98270950000001,"endTime":67.24133000000002,"instrument":6,"program":28},{"pitch":44,"velocity":128,"startTime":67.24133000000002,"endTime":67.758571,"instrument":6,"program":28},{"pitch":56,"velocity":128,"startTime":67.758571,"endTime":68.01719150000001,"instrument":6,"program":28},{"pitch":51,"velocity":128,"startTime":67.758571,"endTime":68.01719150000001,"instrument":6,"program":28},{"pitch":44,"velocity":128,"startTime":68.01719150000001,"endTime":68.27581200000002,"instrument":6,"program":28},{"pitch":49,"velocity":128,"startTime":68.27581200000002,"endTime":68.79305300000001,"instrument":6,"program":28},{"pitch":61,"velocity":128,"startTime":68.79305300000001,"endTime":69.05167350000002,"instrument":6,"program":28},{"pitch":54,"velocity":128,"startTime":68.79305300000001,"endTime":69.05167350000002,"instrument":6,"program":28},{"pitch":49,"velocity":128,"startTime":69.05167350000002,"endTime":69.31029400000001,"instrument":6,"program":28},{"pitch":45,"velocity":128,"startTime":69.31029400000001,"endTime":69.82753500000001,"instrument":6,"program":28},{"pitch":57,"velocity":128,"startTime":69.82753500000001,"endTime":70.08615550000002,"instrument":6,"program":28},{"pitch":52,"velocity":128,"startTime":69.82753500000001,"endTime":69.99994866666668,"instrument":6,"program":28},{"pitch":45,"velocity":128,"startTime":70.08615550000002,"endTime":70.34477600000002,"instrument":6,"program":28},{"pitch":48,"velocity":128,"startTime":70.34477600000002,"endTime":70.86201700000002,"instrument":6,"program":28},{"pitch":48,"velocity":128,"startTime":70.86201700000002,"endTime":71.37925800000004,"instrument":6,"program":28},{"pitch":60,"velocity":128,"startTime":70.86201700000002,"endTime":71.12063750000002,"instrument":6,"program":28},{"pitch":55,"velocity":128,"startTime":70.86201700000002,"endTime":71.37925800000004,"instrument":6,"program":28},{"pitch":48,"velocity":128,"startTime":71.12063750000002,"endTime":71.63787850000007,"instrument":6,"program":28},{"pitch":48,"velocity":128,"startTime":71.37925800000004,"endTime":71.63787850000007,"instrument":6,"program":28},{"pitch":50,"velocity":128,"startTime":71.63787850000007,"endTime":71.89649900000005,"instrument":6,"program":28},{"pitch":50,"velocity":128,"startTime":71.89649900000005,"endTime":72.41374000000006,"instrument":6,"program":28},{"pitch":62,"velocity":128,"startTime":71.89649900000005,"endTime":72.41374000000006,"instrument":6,"program":28},{"pitch":57,"velocity":128,"startTime":71.89649900000005,"endTime":72.41374000000006,"instrument":6,"program":28},{"pitch":47,"velocity":128,"startTime":72.41374000000006,"endTime":72.93098100000006,"instrument":6,"program":28},{"pitch":47,"velocity":128,"startTime":72.93098100000006,"endTime":73.44822200000009,"instrument":6,"program":28},{"pitch":54,"velocity":128,"startTime":72.93098100000006,"endTime":73.18960150000005,"instrument":6,"program":28},{"pitch":59,"velocity":128,"startTime":72.93098100000006,"endTime":73.18960150000005,"instrument":6,"program":28},{"pitch":47,"velocity":128,"startTime":73.18960150000005,"endTime":73.7068425000001,"instrument":6,"program":28},{"pitch":47,"velocity":128,"startTime":73.44822200000009,"endTime":73.7068425000001,"instrument":6,"program":28},{"pitch":50,"velocity":128,"startTime":73.7068425000001,"endTime":73.9654630000001,"instrument":6,"program":28},{"pitch":50,"velocity":128,"startTime":73.9654630000001,"endTime":74.48270400000011,"instrument":6,"program":28},{"pitch":57,"velocity":128,"startTime":73.9654630000001,"endTime":74.48270400000011,"instrument":6,"program":28},{"pitch":62,"velocity":128,"startTime":73.9654630000001,"endTime":74.48270400000011,"instrument":6,"program":28},{"pitch":40,"velocity":128,"startTime":74.48270400000011,"endTime":74.99994500000011,"instrument":6,"program":28},{"pitch":52,"velocity":128,"startTime":74.99994500000011,"endTime":75.2585655000001,"instrument":6,"program":28},{"pitch":47,"velocity":128,"startTime":74.99994500000011,"endTime":75.2585655000001,"instrument":6,"program":28},{"pitch":40,"velocity":128,"startTime":75.2585655000001,"endTime":75.5171860000001,"instrument":6,"program":28},{"pitch":44,"velocity":128,"startTime":75.5171860000001,"endTime":76.03442700000011,"instrument":6,"program":28},{"pitch":56,"velocity":128,"startTime":76.03442700000011,"endTime":76.2930475000001,"instrument":6,"program":28},{"pitch":51,"velocity":128,"startTime":76.03442700000011,"endTime":76.2930475000001,"instrument":6,"program":28},{"pitch":44,"velocity":128,"startTime":76.2930475000001,"endTime":76.55166800000009,"instrument":6,"program":28},{"pitch":49,"velocity":128,"startTime":76.55166800000009,"endTime":77.0689090000001,"instrument":6,"program":28},{"pitch":61,"velocity":128,"startTime":77.0689090000001,"endTime":77.3275295000001,"instrument":6,"program":28},{"pitch":54,"velocity":128,"startTime":77.0689090000001,"endTime":77.3275295000001,"instrument":6,"program":28},{"pitch":49,"velocity":128,"startTime":77.3275295000001,"endTime":77.58615000000009,"instrument":6,"program":28},{"pitch":45,"velocity":128,"startTime":77.58615000000009,"endTime":78.1033910000001,"instrument":6,"program":28},{"pitch":57,"velocity":128,"startTime":78.1033910000001,"endTime":78.3620115000001,"instrument":6,"program":28},{"pitch":52,"velocity":128,"startTime":78.1033910000001,"endTime":78.27580466666676,"instrument":6,"program":28},{"pitch":45,"velocity":128,"startTime":78.3620115000001,"endTime":78.62063200000009,"instrument":6,"program":28},{"pitch":48,"velocity":128,"startTime":78.62063200000009,"endTime":79.13787300000008,"instrument":6,"program":28},{"pitch":48,"velocity":128,"startTime":79.13787300000008,"endTime":79.65511400000011,"instrument":6,"program":28},{"pitch":60,"velocity":128,"startTime":79.13787300000008,"endTime":79.39649350000009,"instrument":6,"program":28},{"pitch":55,"velocity":128,"startTime":79.13787300000008,"endTime":79.65511400000011,"instrument":6,"program":28},{"pitch":48,"velocity":128,"startTime":79.39649350000009,"endTime":79.91373450000013,"instrument":6,"program":28},{"pitch":48,"velocity":128,"startTime":79.65511400000011,"endTime":79.91373450000013,"instrument":6,"program":28},{"pitch":50,"velocity":128,"startTime":79.91373450000013,"endTime":80.17235500000014,"instrument":6,"program":28},{"pitch":50,"velocity":128,"startTime":80.17235500000014,"endTime":80.68959600000014,"instrument":6,"program":28},{"pitch":62,"velocity":128,"startTime":80.17235500000014,"endTime":80.68959600000014,"instrument":6,"program":28},{"pitch":57,"velocity":128,"startTime":80.17235500000014,"endTime":80.68959600000014,"instrument":6,"program":28},{"pitch":47,"velocity":128,"startTime":80.68959600000014,"endTime":81.20683700000014,"instrument":6,"program":28},{"pitch":47,"velocity":128,"startTime":81.20683700000014,"endTime":81.72407800000016,"instrument":6,"program":28},{"pitch":54,"velocity":128,"startTime":81.20683700000014,"endTime":81.46545750000014,"instrument":6,"program":28},{"pitch":59,"velocity":128,"startTime":81.20683700000014,"endTime":81.46545750000014,"instrument":6,"program":28},{"pitch":47,"velocity":128,"startTime":81.46545750000014,"endTime":81.98269850000018,"instrument":6,"program":28},{"pitch":47,"velocity":128,"startTime":81.72407800000016,"endTime":81.98269850000018,"instrument":6,"program":28},{"pitch":50,"velocity":128,"startTime":81.98269850000018,"endTime":82.24131900000019,"instrument":6,"program":28},{"pitch":50,"velocity":128,"startTime":82.24131900000019,"endTime":82.75856000000019,"instrument":6,"program":28},{"pitch":57,"velocity":128,"startTime":82.24131900000019,"endTime":82.75856000000019,"instrument":6,"program":28},{"pitch":62,"velocity":128,"startTime":82.24131900000019,"endTime":82.75856000000019,"instrument":6,"program":28},{"pitch":40,"velocity":128,"startTime":82.75856000000019,"endTime":83.2758010000002,"instrument":6,"program":28},{"pitch":52,"velocity":128,"startTime":83.2758010000002,"endTime":83.53442150000019,"instrument":6,"program":28},{"pitch":47,"velocity":128,"startTime":83.2758010000002,"endTime":83.53442150000019,"instrument":6,"program":28},{"pitch":40,"velocity":128,"startTime":83.53442150000019,"endTime":83.79304200000018,"instrument":6,"program":28},{"pitch":44,"velocity":128,"startTime":83.79304200000018,"endTime":84.31028300000018,"instrument":6,"program":28},{"pitch":56,"velocity":128,"startTime":84.31028300000018,"endTime":84.56890350000018,"instrument":6,"program":28},{"pitch":51,"velocity":128,"startTime":84.31028300000018,"endTime":84.56890350000018,"instrument":6,"program":28},{"pitch":44,"velocity":128,"startTime":84.56890350000018,"endTime":84.82752400000018,"instrument":6,"program":28},{"pitch":49,"velocity":128,"startTime":84.82752400000018,"endTime":85.34476500000018,"instrument":6,"program":28},{"pitch":61,"velocity":128,"startTime":85.34476500000018,"endTime":85.60338550000017,"instrument":6,"program":28},{"pitch":54,"velocity":128,"startTime":85.34476500000018,"endTime":85.60338550000017,"instrument":6,"program":28},{"pitch":49,"velocity":128,"startTime":85.60338550000017,"endTime":85.86200600000016,"instrument":6,"program":28},{"pitch":45,"velocity":128,"startTime":85.86200600000016,"endTime":86.37924700000018,"instrument":6,"program":28},{"pitch":57,"velocity":128,"startTime":86.37924700000018,"endTime":86.63786750000017,"instrument":6,"program":28},{"pitch":52,"velocity":128,"startTime":86.37924700000018,"endTime":86.55166066666685,"instrument":6,"program":28},{"pitch":45,"velocity":128,"startTime":86.63786750000017,"endTime":86.89648800000016,"instrument":6,"program":28},{"pitch":48,"velocity":128,"startTime":86.89648800000016,"endTime":87.41372900000017,"instrument":6,"program":28},{"pitch":48,"velocity":128,"startTime":87.41372900000017,"endTime":87.93097000000019,"instrument":6,"program":28},{"pitch":60,"velocity":128,"startTime":87.41372900000017,"endTime":87.67234950000017,"instrument":6,"program":28},{"pitch":55,"velocity":128,"startTime":87.41372900000017,"endTime":87.93097000000019,"instrument":6,"program":28},{"pitch":48,"velocity":128,"startTime":87.67234950000017,"endTime":88.18959050000022,"instrument":6,"program":28},{"pitch":48,"velocity":128,"startTime":87.93097000000019,"endTime":88.18959050000022,"instrument":6,"program":28},{"pitch":50,"velocity":128,"startTime":88.18959050000022,"endTime":88.44821100000021,"instrument":6,"program":28},{"pitch":50,"velocity":128,"startTime":88.44821100000021,"endTime":88.96545200000021,"instrument":6,"program":28},{"pitch":62,"velocity":128,"startTime":88.44821100000021,"endTime":88.96545200000021,"instrument":6,"program":28},{"pitch":57,"velocity":128,"startTime":88.44821100000021,"endTime":88.96545200000021,"instrument":6,"program":28},{"pitch":47,"velocity":128,"startTime":88.96545200000021,"endTime":89.48269300000022,"instrument":6,"program":28},{"pitch":47,"velocity":128,"startTime":89.48269300000022,"endTime":89.99993400000024,"instrument":6,"program":28},{"pitch":54,"velocity":128,"startTime":89.48269300000022,"endTime":89.74131350000022,"instrument":6,"program":28},{"pitch":59,"velocity":128,"startTime":89.48269300000022,"endTime":89.74131350000022,"instrument":6,"program":28},{"pitch":47,"velocity":128,"startTime":89.74131350000022,"endTime":90.25855450000027,"instrument":6,"program":28},{"pitch":47,"velocity":128,"startTime":89.99993400000024,"endTime":90.25855450000027,"instrument":6,"program":28},{"pitch":50,"velocity":128,"startTime":90.25855450000027,"endTime":90.51717500000026,"instrument":6,"program":28},{"pitch":50,"velocity":128,"startTime":90.51717500000026,"endTime":91.03441600000026,"instrument":6,"program":28},{"pitch":57,"velocity":128,"startTime":90.51717500000026,"endTime":91.03441600000026,"instrument":6,"program":28},{"pitch":62,"velocity":128,"startTime":90.51717500000026,"endTime":91.03441600000026,"instrument":6,"program":28},{"pitch":40,"velocity":128,"startTime":91.03441600000026,"endTime":91.55165700000028,"instrument":6,"program":28},{"pitch":52,"velocity":128,"startTime":91.55165700000028,"endTime":91.81027750000027,"instrument":6,"program":28},{"pitch":47,"velocity":128,"startTime":91.55165700000028,"endTime":91.81027750000027,"instrument":6,"program":28},{"pitch":40,"velocity":128,"startTime":91.81027750000027,"endTime":92.06889800000026,"instrument":6,"program":28},{"pitch":44,"velocity":128,"startTime":92.06889800000026,"endTime":92.58613900000027,"instrument":6,"program":28},{"pitch":56,"velocity":128,"startTime":92.58613900000027,"endTime":92.84475950000027,"instrument":6,"program":28},{"pitch":51,"velocity":128,"startTime":92.58613900000027,"endTime":92.84475950000027,"instrument":6,"program":28},{"pitch":44,"velocity":128,"startTime":92.84475950000027,"endTime":93.10338000000026,"instrument":6,"program":28},{"pitch":49,"velocity":128,"startTime":93.10338000000026,"endTime":93.62062100000027,"instrument":6,"program":28},{"pitch":61,"velocity":128,"startTime":93.62062100000027,"endTime":93.87924150000026,"instrument":6,"program":28},{"pitch":54,"velocity":128,"startTime":93.62062100000027,"endTime":93.87924150000026,"instrument":6,"program":28},{"pitch":49,"velocity":128,"startTime":93.87924150000026,"endTime":94.13786200000025,"instrument":6,"program":28},{"pitch":45,"velocity":128,"startTime":94.13786200000025,"endTime":94.65510300000025,"instrument":6,"program":28},{"pitch":57,"velocity":128,"startTime":94.65510300000025,"endTime":94.91372350000024,"instrument":6,"program":28},{"pitch":52,"velocity":128,"startTime":94.65510300000025,"endTime":94.82751666666692,"instrument":6,"program":28},{"pitch":45,"velocity":128,"startTime":94.91372350000024,"endTime":95.17234400000025,"instrument":6,"program":28},{"pitch":48,"velocity":128,"startTime":95.17234400000025,"endTime":95.43096450000024,"instrument":6,"program":28},{"pitch":55,"velocity":128,"startTime":95.17234400000025,"endTime":95.43096450000024,"instrument":6,"program":28},{"pitch":60,"velocity":128,"startTime":95.17234400000025,"endTime":95.43096450000024,"instrument":6,"program":28},{"pitch":60,"velocity":128,"startTime":95.43096450000024,"endTime":95.68958500000024,"instrument":6,"program":28},{"pitch":55,"velocity":128,"startTime":95.43096450000024,"endTime":95.68958500000024,"instrument":6,"program":28},{"pitch":48,"velocity":128,"startTime":95.43096450000024,"endTime":95.68958500000024,"instrument":6,"program":28},{"pitch":48,"velocity":128,"startTime":95.68958500000024,"endTime":95.94820550000023,"instrument":6,"program":28},{"pitch":55,"velocity":128,"startTime":95.68958500000024,"endTime":95.94820550000023,"instrument":6,"program":28},{"pitch":60,"velocity":128,"startTime":95.68958500000024,"endTime":95.94820550000023,"instrument":6,"program":28},{"pitch":60,"velocity":128,"startTime":95.94820550000023,"endTime":96.07751575000023,"instrument":6,"program":28},{"pitch":55,"velocity":128,"startTime":95.94820550000023,"endTime":96.07751575000023,"instrument":6,"program":28},{"pitch":48,"velocity":128,"startTime":95.94820550000023,"endTime":96.07751575000023,"instrument":6,"program":28},{"pitch":48,"velocity":128,"startTime":96.07751575000023,"endTime":96.20682600000023,"instrument":6,"program":28},{"pitch":55,"velocity":128,"startTime":96.07751575000023,"endTime":96.20682600000023,"instrument":6,"program":28},{"pitch":60,"velocity":128,"startTime":96.07751575000023,"endTime":96.20682600000023,"instrument":6,"program":28},{"pitch":60,"velocity":128,"startTime":96.20682600000023,"endTime":96.46544650000024,"instrument":6,"program":28},{"pitch":55,"velocity":128,"startTime":96.20682600000023,"endTime":96.46544650000024,"instrument":6,"program":28},{"pitch":48,"velocity":128,"startTime":96.20682600000023,"endTime":96.46544650000024,"instrument":6,"program":28},{"pitch":62,"velocity":128,"startTime":96.46544650000024,"endTime":96.72406700000023,"instrument":6,"program":28},{"pitch":57,"velocity":128,"startTime":96.46544650000024,"endTime":96.72406700000023,"instrument":6,"program":28},{"pitch":50,"velocity":128,"startTime":96.46544650000024,"endTime":96.72406700000023,"instrument":6,"program":28},{"pitch":50,"velocity":128,"startTime":96.72406700000023,"endTime":97.24130800000023,"instrument":6,"program":28},{"pitch":62,"velocity":128,"startTime":96.72406700000023,"endTime":97.24130800000023,"instrument":6,"program":28},{"pitch":57,"velocity":128,"startTime":96.72406700000023,"endTime":97.24130800000023,"instrument":6,"program":28},{"pitch":41,"velocity":128,"startTime":8.275856000000001,"endTime":8.448269666666667,"instrument":7,"program":118,"isDrum":true},{"pitch":43,"velocity":103,"startTime":8.275856000000001,"endTime":8.448269666666667,"instrument":7,"program":118,"isDrum":true},{"pitch":45,"velocity":103,"startTime":8.275856000000001,"endTime":8.448269666666667,"instrument":7,"program":118,"isDrum":true},{"pitch":54,"velocity":128,"startTime":8.275856000000001,"endTime":8.448269666666667,"instrument":7,"program":118,"isDrum":true},{"pitch":54,"velocity":128,"startTime":8.5344765,"endTime":8.706890166666668,"instrument":7,"program":118,"isDrum":true},{"pitch":54,"velocity":128,"startTime":8.793097000000001,"endTime":8.965510666666669,"instrument":7,"program":118,"isDrum":true},{"pitch":40,"velocity":109,"startTime":8.793097000000001,"endTime":8.965510666666669,"instrument":7,"program":118,"isDrum":true},{"pitch":54,"velocity":128,"startTime":9.051717500000002,"endTime":9.22413116666667,"instrument":7,"program":118,"isDrum":true},{"pitch":54,"velocity":128,"startTime":9.310338000000003,"endTime":9.48275166666667,"instrument":7,"program":118,"isDrum":true},{"pitch":54,"velocity":128,"startTime":9.568958500000004,"endTime":9.74137216666667,"instrument":7,"program":118,"isDrum":true},{"pitch":54,"velocity":128,"startTime":9.827579000000005,"endTime":9.999992666666671,"instrument":7,"program":118,"isDrum":true},{"pitch":40,"velocity":109,"startTime":9.827579000000005,"endTime":9.999992666666671,"instrument":7,"program":118,"isDrum":true},{"pitch":54,"velocity":128,"startTime":10.086199500000005,"endTime":10.258613166666672,"instrument":7,"program":118,"isDrum":true},{"pitch":54,"velocity":128,"startTime":10.344820000000006,"endTime":10.517233666666671,"instrument":7,"program":118,"isDrum":true},{"pitch":41,"velocity":128,"startTime":10.344820000000006,"endTime":10.517233666666671,"instrument":7,"program":118,"isDrum":true},{"pitch":43,"velocity":103,"startTime":10.344820000000006,"endTime":10.517233666666671,"instrument":7,"program":118,"isDrum":true},{"pitch":45,"velocity":103,"startTime":10.344820000000006,"endTime":10.517233666666671,"instrument":7,"program":118,"isDrum":true},{"pitch":54,"velocity":128,"startTime":10.603440500000007,"endTime":10.775854166666672,"instrument":7,"program":118,"isDrum":true},{"pitch":54,"velocity":128,"startTime":10.862061000000006,"endTime":11.034474666666673,"instrument":7,"program":118,"isDrum":true},{"pitch":40,"velocity":109,"startTime":10.862061000000006,"endTime":11.034474666666673,"instrument":7,"program":118,"isDrum":true},{"pitch":54,"velocity":128,"startTime":11.120681500000007,"endTime":11.293095166666674,"instrument":7,"program":118,"isDrum":true},{"pitch":54,"velocity":128,"startTime":11.379302000000008,"endTime":11.551715666666674,"instrument":7,"program":118,"isDrum":true},{"pitch":54,"velocity":128,"startTime":11.637922500000009,"endTime":11.810336166666675,"instrument":7,"program":118,"isDrum":true},{"pitch":54,"velocity":128,"startTime":11.896543000000008,"endTime":12.068956666666676,"instrument":7,"program":118,"isDrum":true},{"pitch":40,"velocity":109,"startTime":11.896543000000008,"endTime":12.068956666666676,"instrument":7,"program":118,"isDrum":true},{"pitch":54,"velocity":128,"startTime":12.15516350000001,"endTime":12.327577166666675,"instrument":7,"program":118,"isDrum":true},{"pitch":54,"velocity":128,"startTime":12.41378400000001,"endTime":12.586197666666676,"instrument":7,"program":118,"isDrum":true},{"pitch":41,"velocity":128,"startTime":12.41378400000001,"endTime":12.586197666666676,"instrument":7,"program":118,"isDrum":true},{"pitch":43,"velocity":103,"startTime":12.41378400000001,"endTime":12.586197666666676,"instrument":7,"program":118,"isDrum":true},{"pitch":45,"velocity":103,"startTime":12.41378400000001,"endTime":12.586197666666676,"instrument":7,"program":118,"isDrum":true},{"pitch":54,"velocity":128,"startTime":12.67240450000001,"endTime":12.844818166666677,"instrument":7,"program":118,"isDrum":true},{"pitch":54,"velocity":128,"startTime":12.93102500000001,"endTime":13.103438666666678,"instrument":7,"program":118,"isDrum":true},{"pitch":40,"velocity":109,"startTime":12.93102500000001,"endTime":13.103438666666678,"instrument":7,"program":118,"isDrum":true},{"pitch":54,"velocity":128,"startTime":13.189645500000012,"endTime":13.362059166666677,"instrument":7,"program":118,"isDrum":true},{"pitch":54,"velocity":128,"startTime":13.448266000000013,"endTime":13.620679666666678,"instrument":7,"program":118,"isDrum":true},{"pitch":54,"velocity":128,"startTime":13.706886500000012,"endTime":13.87930016666668,"instrument":7,"program":118,"isDrum":true},{"pitch":54,"velocity":128,"startTime":13.965507000000013,"endTime":14.13792066666668,"instrument":7,"program":118,"isDrum":true},{"pitch":40,"velocity":109,"startTime":13.965507000000013,"endTime":14.13792066666668,"instrument":7,"program":118,"isDrum":true},{"pitch":54,"velocity":128,"startTime":14.224127500000014,"endTime":14.39654116666668,"instrument":7,"program":118,"isDrum":true},{"pitch":54,"velocity":128,"startTime":14.482748000000015,"endTime":14.65516166666668,"instrument":7,"program":118,"isDrum":true},{"pitch":41,"velocity":128,"startTime":14.482748000000015,"endTime":14.65516166666668,"instrument":7,"program":118,"isDrum":true},{"pitch":43,"velocity":103,"startTime":14.482748000000015,"endTime":14.65516166666668,"instrument":7,"program":118,"isDrum":true},{"pitch":45,"velocity":103,"startTime":14.482748000000015,"endTime":14.65516166666668,"instrument":7,"program":118,"isDrum":true},{"pitch":54,"velocity":128,"startTime":14.741368500000014,"endTime":14.913782166666682,"instrument":7,"program":118,"isDrum":true},{"pitch":54,"velocity":128,"startTime":14.999989000000015,"endTime":15.172402666666681,"instrument":7,"program":118,"isDrum":true},{"pitch":40,"velocity":109,"startTime":14.999989000000015,"endTime":15.172402666666681,"instrument":7,"program":118,"isDrum":true},{"pitch":54,"velocity":128,"startTime":15.258609500000016,"endTime":15.431023166666682,"instrument":7,"program":118,"isDrum":true},{"pitch":54,"velocity":128,"startTime":15.517230000000016,"endTime":15.689643666666683,"instrument":7,"program":118,"isDrum":true},{"pitch":54,"velocity":128,"startTime":15.775850500000017,"endTime":15.948264166666684,"instrument":7,"program":118,"isDrum":true},{"pitch":54,"velocity":128,"startTime":16.034471000000018,"endTime":16.206884666666685,"instrument":7,"program":118,"isDrum":true},{"pitch":40,"velocity":109,"startTime":16.034471000000018,"endTime":16.206884666666685,"instrument":7,"program":118,"isDrum":true},{"pitch":54,"velocity":128,"startTime":16.293091500000017,"endTime":16.465505166666684,"instrument":7,"program":118,"isDrum":true},{"pitch":54,"velocity":128,"startTime":16.55171200000002,"endTime":16.724125666666684,"instrument":7,"program":118,"isDrum":true},{"pitch":41,"velocity":128,"startTime":16.55171200000002,"endTime":16.724125666666684,"instrument":7,"program":118,"isDrum":true},{"pitch":43,"velocity":103,"startTime":16.55171200000002,"endTime":16.724125666666684,"instrument":7,"program":118,"isDrum":true},{"pitch":45,"velocity":103,"startTime":16.55171200000002,"endTime":16.724125666666684,"instrument":7,"program":118,"isDrum":true},{"pitch":54,"velocity":128,"startTime":16.81033250000002,"endTime":16.982746166666686,"instrument":7,"program":118,"isDrum":true},{"pitch":54,"velocity":128,"startTime":17.06895300000002,"endTime":17.241366666666686,"instrument":7,"program":118,"isDrum":true},{"pitch":40,"velocity":109,"startTime":17.06895300000002,"endTime":17.241366666666686,"instrument":7,"program":118,"isDrum":true},{"pitch":54,"velocity":128,"startTime":17.32757350000002,"endTime":17.49998716666669,"instrument":7,"program":118,"isDrum":true},{"pitch":54,"velocity":128,"startTime":17.586194000000024,"endTime":17.75860766666669,"instrument":7,"program":118,"isDrum":true},{"pitch":54,"velocity":128,"startTime":17.844814500000027,"endTime":18.01722816666669,"instrument":7,"program":118,"isDrum":true},{"pitch":54,"velocity":128,"startTime":18.103435000000026,"endTime":18.275848666666693,"instrument":7,"program":118,"isDrum":true},{"pitch":40,"velocity":109,"startTime":18.103435000000026,"endTime":18.275848666666693,"instrument":7,"program":118,"isDrum":true},{"pitch":54,"velocity":128,"startTime":18.36205550000003,"endTime":18.534469166666696,"instrument":7,"program":118,"isDrum":true},{"pitch":54,"velocity":128,"startTime":18.62067600000003,"endTime":18.7930896666667,"instrument":7,"program":118,"isDrum":true},{"pitch":41,"velocity":128,"startTime":18.62067600000003,"endTime":18.7930896666667,"instrument":7,"program":118,"isDrum":true},{"pitch":43,"velocity":103,"startTime":18.62067600000003,"endTime":18.7930896666667,"instrument":7,"program":118,"isDrum":true},{"pitch":45,"velocity":103,"startTime":18.62067600000003,"endTime":18.7930896666667,"instrument":7,"program":118,"isDrum":true},{"pitch":54,"velocity":128,"startTime":18.879296500000034,"endTime":19.0517101666667,"instrument":7,"program":118,"isDrum":true},{"pitch":54,"velocity":128,"startTime":19.137917000000037,"endTime":19.310330666666705,"instrument":7,"program":118,"isDrum":true},{"pitch":40,"velocity":109,"startTime":19.137917000000037,"endTime":19.310330666666705,"instrument":7,"program":118,"isDrum":true},{"pitch":54,"velocity":128,"startTime":19.39653750000004,"endTime":19.568951166666707,"instrument":7,"program":118,"isDrum":true},{"pitch":54,"velocity":128,"startTime":19.65515800000004,"endTime":19.82757166666671,"instrument":7,"program":118,"isDrum":true},{"pitch":54,"velocity":128,"startTime":19.913778500000042,"endTime":20.086192166666713,"instrument":7,"program":118,"isDrum":true},{"pitch":54,"velocity":128,"startTime":20.172399000000045,"endTime":20.344812666666716,"instrument":7,"program":118,"isDrum":true},{"pitch":40,"velocity":109,"startTime":20.172399000000045,"endTime":20.344812666666716,"instrument":7,"program":118,"isDrum":true},{"pitch":54,"velocity":128,"startTime":20.431019500000048,"endTime":20.60343316666672,"instrument":7,"program":118,"isDrum":true},{"pitch":54,"velocity":128,"startTime":20.68964000000005,"endTime":20.862053666666718,"instrument":7,"program":118,"isDrum":true},{"pitch":41,"velocity":128,"startTime":20.68964000000005,"endTime":20.862053666666718,"instrument":7,"program":118,"isDrum":true},{"pitch":43,"velocity":103,"startTime":20.68964000000005,"endTime":20.862053666666718,"instrument":7,"program":118,"isDrum":true},{"pitch":45,"velocity":103,"startTime":20.68964000000005,"endTime":20.862053666666718,"instrument":7,"program":118,"isDrum":true},{"pitch":54,"velocity":128,"startTime":20.948260500000053,"endTime":21.12067416666672,"instrument":7,"program":118,"isDrum":true},{"pitch":54,"velocity":128,"startTime":21.206881000000056,"endTime":21.379294666666723,"instrument":7,"program":118,"isDrum":true},{"pitch":40,"velocity":109,"startTime":21.206881000000056,"endTime":21.379294666666723,"instrument":7,"program":118,"isDrum":true},{"pitch":54,"velocity":128,"startTime":21.46550150000006,"endTime":21.637915166666726,"instrument":7,"program":118,"isDrum":true},{"pitch":54,"velocity":128,"startTime":21.72412200000006,"endTime":21.89653566666673,"instrument":7,"program":118,"isDrum":true},{"pitch":54,"velocity":128,"startTime":21.982742500000064,"endTime":22.155156166666732,"instrument":7,"program":118,"isDrum":true},{"pitch":54,"velocity":128,"startTime":22.241363000000067,"endTime":22.413776666666735,"instrument":7,"program":118,"isDrum":true},{"pitch":40,"velocity":109,"startTime":22.241363000000067,"endTime":22.413776666666735,"instrument":7,"program":118,"isDrum":true},{"pitch":54,"velocity":128,"startTime":22.49998350000007,"endTime":22.672397166666737,"instrument":7,"program":118,"isDrum":true},{"pitch":54,"velocity":128,"startTime":22.758604000000073,"endTime":22.93101766666674,"instrument":7,"program":118,"isDrum":true},{"pitch":41,"velocity":128,"startTime":22.758604000000073,"endTime":22.93101766666674,"instrument":7,"program":118,"isDrum":true},{"pitch":43,"velocity":103,"startTime":22.758604000000073,"endTime":22.93101766666674,"instrument":7,"program":118,"isDrum":true},{"pitch":45,"velocity":103,"startTime":22.758604000000073,"endTime":22.93101766666674,"instrument":7,"program":118,"isDrum":true},{"pitch":54,"velocity":128,"startTime":23.017224500000072,"endTime":23.189638166666743,"instrument":7,"program":118,"isDrum":true},{"pitch":54,"velocity":128,"startTime":23.275845000000075,"endTime":23.448258666666746,"instrument":7,"program":118,"isDrum":true},{"pitch":40,"velocity":109,"startTime":23.275845000000075,"endTime":23.448258666666746,"instrument":7,"program":118,"isDrum":true},{"pitch":54,"velocity":128,"startTime":23.534465500000078,"endTime":23.70687916666675,"instrument":7,"program":118,"isDrum":true},{"pitch":54,"velocity":128,"startTime":23.79308600000008,"endTime":23.96549966666675,"instrument":7,"program":118,"isDrum":true},{"pitch":54,"velocity":128,"startTime":24.051706500000083,"endTime":24.22412016666675,"instrument":7,"program":118,"isDrum":true},{"pitch":54,"velocity":128,"startTime":24.310327000000086,"endTime":24.482740666666754,"instrument":7,"program":118,"isDrum":true},{"pitch":40,"velocity":109,"startTime":24.310327000000086,"endTime":24.482740666666754,"instrument":7,"program":118,"isDrum":true},{"pitch":54,"velocity":128,"startTime":24.56894750000009,"endTime":24.741361166666756,"instrument":7,"program":118,"isDrum":true},{"pitch":41,"velocity":128,"startTime":24.827568000000092,"endTime":24.99998166666676,"instrument":7,"program":118,"isDrum":true},{"pitch":43,"velocity":103,"startTime":24.827568000000092,"endTime":24.99998166666676,"instrument":7,"program":118,"isDrum":true},{"pitch":45,"velocity":103,"startTime":24.827568000000092,"endTime":24.99998166666676,"instrument":7,"program":118,"isDrum":true},{"pitch":54,"velocity":128,"startTime":24.827568000000092,"endTime":24.99998166666676,"instrument":7,"program":118,"isDrum":true},{"pitch":54,"velocity":128,"startTime":25.086188500000095,"endTime":25.258602166666762,"instrument":7,"program":118,"isDrum":true},{"pitch":54,"velocity":128,"startTime":25.344809000000097,"endTime":25.517222666666765,"instrument":7,"program":118,"isDrum":true},{"pitch":40,"velocity":109,"startTime":25.344809000000097,"endTime":25.517222666666765,"instrument":7,"program":118,"isDrum":true},{"pitch":54,"velocity":128,"startTime":25.6034295000001,"endTime":25.775843166666768,"instrument":7,"program":118,"isDrum":true},{"pitch":54,"velocity":128,"startTime":25.862050000000103,"endTime":26.03446366666677,"instrument":7,"program":118,"isDrum":true},{"pitch":54,"velocity":128,"startTime":26.120670500000106,"endTime":26.293084166666773,"instrument":7,"program":118,"isDrum":true},{"pitch":54,"velocity":128,"startTime":26.379291000000105,"endTime":26.551704666666776,"instrument":7,"program":118,"isDrum":true},{"pitch":40,"velocity":109,"startTime":26.379291000000105,"endTime":26.551704666666776,"instrument":7,"program":118,"isDrum":true},{"pitch":54,"velocity":128,"startTime":26.637911500000108,"endTime":26.81032516666678,"instrument":7,"program":118,"isDrum":true},{"pitch":54,"velocity":128,"startTime":26.89653200000011,"endTime":27.06894566666678,"instrument":7,"program":118,"isDrum":true},{"pitch":41,"velocity":128,"startTime":26.89653200000011,"endTime":27.06894566666678,"instrument":7,"program":118,"isDrum":true},{"pitch":43,"velocity":103,"startTime":26.89653200000011,"endTime":27.06894566666678,"instrument":7,"program":118,"isDrum":true},{"pitch":45,"velocity":103,"startTime":26.89653200000011,"endTime":27.06894566666678,"instrument":7,"program":118,"isDrum":true},{"pitch":54,"velocity":128,"startTime":27.155152500000113,"endTime":27.327566166666784,"instrument":7,"program":118,"isDrum":true},{"pitch":54,"velocity":128,"startTime":27.413773000000116,"endTime":27.586186666666784,"instrument":7,"program":118,"isDrum":true},{"pitch":40,"velocity":109,"startTime":27.413773000000116,"endTime":27.586186666666784,"instrument":7,"program":118,"isDrum":true},{"pitch":54,"velocity":128,"startTime":27.67239350000012,"endTime":27.844807166666786,"instrument":7,"program":118,"isDrum":true},{"pitch":54,"velocity":128,"startTime":27.931014000000122,"endTime":28.10342766666679,"instrument":7,"program":118,"isDrum":true},{"pitch":54,"velocity":128,"startTime":28.189634500000125,"endTime":28.362048166666792,"instrument":7,"program":118,"isDrum":true},{"pitch":54,"velocity":128,"startTime":28.448255000000128,"endTime":28.620668666666795,"instrument":7,"program":118,"isDrum":true},{"pitch":40,"velocity":109,"startTime":28.448255000000128,"endTime":28.620668666666795,"instrument":7,"program":118,"isDrum":true},{"pitch":54,"velocity":128,"startTime":28.70687550000013,"endTime":28.879289166666798,"instrument":7,"program":118,"isDrum":true},{"pitch":54,"velocity":128,"startTime":28.965496000000133,"endTime":29.1379096666668,"instrument":7,"program":118,"isDrum":true},{"pitch":41,"velocity":128,"startTime":28.965496000000133,"endTime":29.1379096666668,"instrument":7,"program":118,"isDrum":true},{"pitch":43,"velocity":103,"startTime":28.965496000000133,"endTime":29.1379096666668,"instrument":7,"program":118,"isDrum":true},{"pitch":45,"velocity":103,"startTime":28.965496000000133,"endTime":29.1379096666668,"instrument":7,"program":118,"isDrum":true},{"pitch":54,"velocity":128,"startTime":29.224116500000136,"endTime":29.396530166666803,"instrument":7,"program":118,"isDrum":true},{"pitch":54,"velocity":128,"startTime":29.48273700000014,"endTime":29.655150666666806,"instrument":7,"program":118,"isDrum":true},{"pitch":40,"velocity":109,"startTime":29.48273700000014,"endTime":29.655150666666806,"instrument":7,"program":118,"isDrum":true},{"pitch":54,"velocity":128,"startTime":29.741357500000138,"endTime":29.91377116666681,"instrument":7,"program":118,"isDrum":true},{"pitch":54,"velocity":128,"startTime":29.99997800000014,"endTime":30.17239166666681,"instrument":7,"program":118,"isDrum":true},{"pitch":54,"velocity":128,"startTime":30.258598500000144,"endTime":30.431012166666815,"instrument":7,"program":118,"isDrum":true},{"pitch":54,"velocity":128,"startTime":30.517219000000146,"endTime":30.689632666666817,"instrument":7,"program":118,"isDrum":true},{"pitch":40,"velocity":109,"startTime":30.517219000000146,"endTime":30.689632666666817,"instrument":7,"program":118,"isDrum":true},{"pitch":54,"velocity":128,"startTime":30.77583950000015,"endTime":30.948253166666817,"instrument":7,"program":118,"isDrum":true},{"pitch":54,"velocity":128,"startTime":31.034460000000152,"endTime":31.20687366666682,"instrument":7,"program":118,"isDrum":true},{"pitch":41,"velocity":128,"startTime":31.034460000000152,"endTime":31.20687366666682,"instrument":7,"program":118,"isDrum":true},{"pitch":43,"velocity":103,"startTime":31.034460000000152,"endTime":31.20687366666682,"instrument":7,"program":118,"isDrum":true},{"pitch":45,"velocity":103,"startTime":31.034460000000152,"endTime":31.20687366666682,"instrument":7,"program":118,"isDrum":true},{"pitch":54,"velocity":128,"startTime":31.293080500000155,"endTime":31.465494166666822,"instrument":7,"program":118,"isDrum":true},{"pitch":54,"velocity":128,"startTime":31.551701000000158,"endTime":31.724114666666825,"instrument":7,"program":118,"isDrum":true},{"pitch":40,"velocity":109,"startTime":31.551701000000158,"endTime":31.724114666666825,"instrument":7,"program":118,"isDrum":true},{"pitch":54,"velocity":128,"startTime":31.81032150000016,"endTime":31.982735166666828,"instrument":7,"program":118,"isDrum":true},{"pitch":54,"velocity":128,"startTime":32.06894200000016,"endTime":32.241355666666834,"instrument":7,"program":118,"isDrum":true},{"pitch":54,"velocity":128,"startTime":32.32756250000016,"endTime":32.49997616666683,"instrument":7,"program":118,"isDrum":true},{"pitch":54,"velocity":128,"startTime":32.58618300000017,"endTime":32.75859666666683,"instrument":7,"program":118,"isDrum":true},{"pitch":40,"velocity":109,"startTime":32.58618300000017,"endTime":32.75859666666683,"instrument":7,"program":118,"isDrum":true},{"pitch":54,"velocity":128,"startTime":32.84480350000017,"endTime":33.01721716666684,"instrument":7,"program":118,"isDrum":true},{"pitch":41,"velocity":128,"startTime":33.103424000000174,"endTime":33.27583766666684,"instrument":7,"program":118,"isDrum":true},{"pitch":43,"velocity":103,"startTime":33.103424000000174,"endTime":33.27583766666684,"instrument":7,"program":118,"isDrum":true},{"pitch":45,"velocity":103,"startTime":33.103424000000174,"endTime":33.27583766666684,"instrument":7,"program":118,"isDrum":true},{"pitch":54,"velocity":128,"startTime":33.103424000000174,"endTime":33.27583766666684,"instrument":7,"program":118,"isDrum":true},{"pitch":54,"velocity":128,"startTime":33.362044500000174,"endTime":33.534458166666845,"instrument":7,"program":118,"isDrum":true},{"pitch":54,"velocity":128,"startTime":33.62066500000018,"endTime":33.793078666666844,"instrument":7,"program":118,"isDrum":true},{"pitch":40,"velocity":109,"startTime":33.62066500000018,"endTime":33.793078666666844,"instrument":7,"program":118,"isDrum":true},{"pitch":54,"velocity":128,"startTime":33.87928550000018,"endTime":34.05169916666685,"instrument":7,"program":118,"isDrum":true},{"pitch":54,"velocity":128,"startTime":34.137906000000186,"endTime":34.31031966666685,"instrument":7,"program":118,"isDrum":true},{"pitch":54,"velocity":128,"startTime":34.396526500000185,"endTime":34.568940166666856,"instrument":7,"program":118,"isDrum":true},{"pitch":54,"velocity":128,"startTime":34.655147000000184,"endTime":34.827560666666855,"instrument":7,"program":118,"isDrum":true},{"pitch":40,"velocity":109,"startTime":34.655147000000184,"endTime":34.827560666666855,"instrument":7,"program":118,"isDrum":true},{"pitch":54,"velocity":128,"startTime":34.91376750000019,"endTime":35.08618116666686,"instrument":7,"program":118,"isDrum":true},{"pitch":54,"velocity":128,"startTime":35.17238800000019,"endTime":35.34480166666686,"instrument":7,"program":118,"isDrum":true},{"pitch":41,"velocity":128,"startTime":35.17238800000019,"endTime":35.34480166666686,"instrument":7,"program":118,"isDrum":true},{"pitch":43,"velocity":103,"startTime":35.17238800000019,"endTime":35.34480166666686,"instrument":7,"program":118,"isDrum":true},{"pitch":45,"velocity":103,"startTime":35.17238800000019,"endTime":35.34480166666686,"instrument":7,"program":118,"isDrum":true},{"pitch":54,"velocity":128,"startTime":35.43100850000019,"endTime":35.60342216666686,"instrument":7,"program":118,"isDrum":true},{"pitch":54,"velocity":128,"startTime":35.689629000000195,"endTime":35.86204266666686,"instrument":7,"program":118,"isDrum":true},{"pitch":40,"velocity":109,"startTime":35.689629000000195,"endTime":35.86204266666686,"instrument":7,"program":118,"isDrum":true},{"pitch":54,"velocity":128,"startTime":35.9482495000002,"endTime":36.120663166666866,"instrument":7,"program":118,"isDrum":true},{"pitch":54,"velocity":128,"startTime":36.2068700000002,"endTime":36.37928366666687,"instrument":7,"program":118,"isDrum":true},{"pitch":54,"velocity":128,"startTime":36.46549050000021,"endTime":36.63790416666687,"instrument":7,"program":118,"isDrum":true},{"pitch":54,"velocity":128,"startTime":36.72411100000021,"endTime":36.89652466666688,"instrument":7,"program":118,"isDrum":true},{"pitch":40,"velocity":109,"startTime":36.72411100000021,"endTime":36.89652466666688,"instrument":7,"program":118,"isDrum":true},{"pitch":54,"velocity":128,"startTime":36.98273150000021,"endTime":37.15514516666688,"instrument":7,"program":118,"isDrum":true},{"pitch":54,"velocity":128,"startTime":37.24135200000021,"endTime":37.41376566666688,"instrument":7,"program":118,"isDrum":true},{"pitch":41,"velocity":128,"startTime":37.24135200000021,"endTime":37.41376566666688,"instrument":7,"program":118,"isDrum":true},{"pitch":43,"velocity":103,"startTime":37.24135200000021,"endTime":37.41376566666688,"instrument":7,"program":118,"isDrum":true},{"pitch":45,"velocity":103,"startTime":37.24135200000021,"endTime":37.41376566666688,"instrument":7,"program":118,"isDrum":true},{"pitch":54,"velocity":128,"startTime":37.49997250000022,"endTime":37.67238616666688,"instrument":7,"program":118,"isDrum":true},{"pitch":54,"velocity":128,"startTime":37.75859300000022,"endTime":37.93100666666689,"instrument":7,"program":118,"isDrum":true},{"pitch":40,"velocity":109,"startTime":37.75859300000022,"endTime":37.93100666666689,"instrument":7,"program":118,"isDrum":true},{"pitch":54,"velocity":128,"startTime":38.01721350000022,"endTime":38.18962716666689,"instrument":7,"program":118,"isDrum":true},{"pitch":54,"velocity":128,"startTime":38.27583400000022,"endTime":38.448247666666894,"instrument":7,"program":118,"isDrum":true},{"pitch":54,"velocity":128,"startTime":38.53445450000022,"endTime":38.706868166666894,"instrument":7,"program":118,"isDrum":true},{"pitch":54,"velocity":128,"startTime":38.79307500000023,"endTime":38.9654886666669,"instrument":7,"program":118,"isDrum":true},{"pitch":40,"velocity":109,"startTime":38.79307500000023,"endTime":38.9654886666669,"instrument":7,"program":118,"isDrum":true},{"pitch":54,"velocity":128,"startTime":39.05169550000023,"endTime":39.2241091666669,"instrument":7,"program":118,"isDrum":true},{"pitch":38,"velocity":128,"startTime":39.310316000000235,"endTime":39.39652283333357,"instrument":7,"program":118,"isDrum":true},{"pitch":36,"velocity":128,"startTime":39.310316000000235,"endTime":39.39652283333357,"instrument":7,"program":118,"isDrum":true},{"pitch":57,"velocity":128,"startTime":39.310316000000235,"endTime":39.39652283333357,"instrument":7,"program":118,"isDrum":true},{"pitch":36,"velocity":128,"startTime":39.82755700000023,"endTime":39.91376383333356,"instrument":7,"program":118,"isDrum":true},{"pitch":38,"velocity":128,"startTime":39.82755700000023,"endTime":39.91376383333356,"instrument":7,"program":118,"isDrum":true},{"pitch":57,"velocity":128,"startTime":39.82755700000023,"endTime":39.91376383333356,"instrument":7,"program":118,"isDrum":true},{"pitch":36,"velocity":128,"startTime":39.95686725000023,"endTime":40.043074083333565,"instrument":7,"program":118,"isDrum":true},{"pitch":36,"velocity":128,"startTime":40.086177500000225,"endTime":40.17238433333356,"instrument":7,"program":118,"isDrum":true},{"pitch":38,"velocity":128,"startTime":40.344798000000225,"endTime":40.43100483333356,"instrument":7,"program":118,"isDrum":true},{"pitch":36,"velocity":128,"startTime":40.344798000000225,"endTime":40.43100483333356,"instrument":7,"program":118,"isDrum":true},{"pitch":57,"velocity":128,"startTime":40.344798000000225,"endTime":40.43100483333356,"instrument":7,"program":118,"isDrum":true},{"pitch":36,"velocity":128,"startTime":40.47410825000023,"endTime":40.560315083333556,"instrument":7,"program":118,"isDrum":true},{"pitch":36,"velocity":128,"startTime":40.603418500000224,"endTime":40.68962533333356,"instrument":7,"program":118,"isDrum":true},{"pitch":36,"velocity":128,"startTime":40.86203900000022,"endTime":40.94824583333356,"instrument":7,"program":118,"isDrum":true},{"pitch":38,"velocity":128,"startTime":40.86203900000022,"endTime":40.94824583333356,"instrument":7,"program":118,"isDrum":true},{"pitch":57,"velocity":128,"startTime":40.86203900000022,"endTime":40.94824583333356,"instrument":7,"program":118,"isDrum":true},{"pitch":36,"velocity":128,"startTime":40.99134925000022,"endTime":41.077556083333555,"instrument":7,"program":118,"isDrum":true},{"pitch":36,"velocity":128,"startTime":41.12065950000022,"endTime":41.20686633333355,"instrument":7,"program":118,"isDrum":true},{"pitch":36,"velocity":128,"startTime":41.37928000000022,"endTime":41.55169366666689,"instrument":7,"program":118,"isDrum":true},{"pitch":38,"velocity":128,"startTime":41.37928000000022,"endTime":41.55169366666689,"instrument":7,"program":118,"isDrum":true},{"pitch":57,"velocity":128,"startTime":41.37928000000022,"endTime":41.55169366666689,"instrument":7,"program":118,"isDrum":true},{"pitch":38,"velocity":128,"startTime":41.89652100000023,"endTime":42.0689346666669,"instrument":7,"program":118,"isDrum":true},{"pitch":36,"velocity":128,"startTime":42.15514150000023,"endTime":42.3275551666669,"instrument":7,"program":118,"isDrum":true},{"pitch":38,"velocity":128,"startTime":42.15514150000023,"endTime":42.3275551666669,"instrument":7,"program":118,"isDrum":true},{"pitch":38,"velocity":128,"startTime":42.41376200000023,"endTime":42.5861756666669,"instrument":7,"program":118,"isDrum":true},{"pitch":36,"velocity":128,"startTime":42.41376200000023,"endTime":42.5861756666669,"instrument":7,"program":118,"isDrum":true},{"pitch":57,"velocity":128,"startTime":42.41376200000023,"endTime":42.5861756666669,"instrument":7,"program":118,"isDrum":true},{"pitch":38,"velocity":128,"startTime":42.93100300000024,"endTime":43.1034166666669,"instrument":7,"program":118,"isDrum":true},{"pitch":38,"velocity":128,"startTime":43.18962350000024,"endTime":43.36203716666691,"instrument":7,"program":118,"isDrum":true},{"pitch":36,"velocity":128,"startTime":43.18962350000024,"endTime":43.36203716666691,"instrument":7,"program":118,"isDrum":true},{"pitch":36,"velocity":128,"startTime":43.448244000000244,"endTime":43.62065766666691,"instrument":7,"program":118,"isDrum":true},{"pitch":38,"velocity":128,"startTime":43.448244000000244,"endTime":43.62065766666691,"instrument":7,"program":118,"isDrum":true},{"pitch":57,"velocity":128,"startTime":43.448244000000244,"endTime":43.62065766666691,"instrument":7,"program":118,"isDrum":true},{"pitch":38,"velocity":128,"startTime":43.96548500000025,"endTime":44.13789866666691,"instrument":7,"program":118,"isDrum":true},{"pitch":36,"velocity":128,"startTime":44.22410550000025,"endTime":44.39651916666692,"instrument":7,"program":118,"isDrum":true},{"pitch":38,"velocity":128,"startTime":44.22410550000025,"endTime":44.39651916666692,"instrument":7,"program":118,"isDrum":true},{"pitch":38,"velocity":128,"startTime":44.482726000000255,"endTime":44.65513966666692,"instrument":7,"program":118,"isDrum":true},{"pitch":36,"velocity":128,"startTime":44.482726000000255,"endTime":44.65513966666692,"instrument":7,"program":118,"isDrum":true},{"pitch":57,"velocity":128,"startTime":44.482726000000255,"endTime":44.65513966666692,"instrument":7,"program":118,"isDrum":true},{"pitch":38,"velocity":128,"startTime":44.999967000000254,"endTime":45.172380666666925,"instrument":7,"program":118,"isDrum":true},{"pitch":38,"velocity":128,"startTime":45.25858750000026,"endTime":45.43100116666693,"instrument":7,"program":118,"isDrum":true},{"pitch":36,"velocity":128,"startTime":45.25858750000026,"endTime":45.43100116666693,"instrument":7,"program":118,"isDrum":true},{"pitch":36,"velocity":128,"startTime":45.51720800000026,"endTime":45.68962166666693,"instrument":7,"program":118,"isDrum":true},{"pitch":38,"velocity":128,"startTime":45.51720800000026,"endTime":45.68962166666693,"instrument":7,"program":118,"isDrum":true},{"pitch":57,"velocity":128,"startTime":45.51720800000026,"endTime":45.68962166666693,"instrument":7,"program":118,"isDrum":true},{"pitch":57,"velocity":128,"startTime":46.034449000000265,"endTime":46.1206558333336,"instrument":7,"program":118,"isDrum":true},{"pitch":38,"velocity":128,"startTime":46.034449000000265,"endTime":46.1206558333336,"instrument":7,"program":118,"isDrum":true},{"pitch":36,"velocity":128,"startTime":46.034449000000265,"endTime":46.1206558333336,"instrument":7,"program":118,"isDrum":true},{"pitch":36,"velocity":128,"startTime":46.16375925000026,"endTime":46.2499660833336,"instrument":7,"program":118,"isDrum":true},{"pitch":36,"velocity":128,"startTime":46.293069500000264,"endTime":46.37927633333359,"instrument":7,"program":118,"isDrum":true},{"pitch":36,"velocity":128,"startTime":46.551690000000264,"endTime":46.6378968333336,"instrument":7,"program":118,"isDrum":true},{"pitch":38,"velocity":128,"startTime":46.551690000000264,"endTime":46.6378968333336,"instrument":7,"program":118,"isDrum":true},{"pitch":57,"velocity":128,"startTime":46.551690000000264,"endTime":46.6378968333336,"instrument":7,"program":118,"isDrum":true},{"pitch":36,"velocity":128,"startTime":46.68100025000026,"endTime":46.767207083333595,"instrument":7,"program":118,"isDrum":true},{"pitch":36,"velocity":128,"startTime":46.810310500000256,"endTime":46.89651733333359,"instrument":7,"program":118,"isDrum":true},{"pitch":57,"velocity":128,"startTime":47.06893100000026,"endTime":47.24134466666693,"instrument":7,"program":118,"isDrum":true},{"pitch":38,"velocity":128,"startTime":47.06893100000026,"endTime":47.24134466666693,"instrument":7,"program":118,"isDrum":true},{"pitch":36,"velocity":128,"startTime":47.06893100000026,"endTime":47.24134466666693,"instrument":7,"program":118,"isDrum":true},{"pitch":38,"velocity":128,"startTime":47.58617200000027,"endTime":47.6723788333336,"instrument":7,"program":118,"isDrum":true},{"pitch":36,"velocity":128,"startTime":47.58617200000027,"endTime":47.6723788333336,"instrument":7,"program":118,"isDrum":true},{"pitch":57,"velocity":128,"startTime":47.58617200000027,"endTime":47.6723788333336,"instrument":7,"program":118,"isDrum":true},{"pitch":36,"velocity":128,"startTime":48.103413000000266,"endTime":48.189619833333595,"instrument":7,"program":118,"isDrum":true},{"pitch":38,"velocity":128,"startTime":48.103413000000266,"endTime":48.189619833333595,"instrument":7,"program":118,"isDrum":true},{"pitch":57,"velocity":128,"startTime":48.103413000000266,"endTime":48.189619833333595,"instrument":7,"program":118,"isDrum":true},{"pitch":36,"velocity":128,"startTime":48.23272325000026,"endTime":48.3189300833336,"instrument":7,"program":118,"isDrum":true},{"pitch":36,"velocity":128,"startTime":48.36203350000026,"endTime":48.448240333333594,"instrument":7,"program":118,"isDrum":true},{"pitch":38,"velocity":128,"startTime":48.62065400000026,"endTime":48.70686083333359,"instrument":7,"program":118,"isDrum":true},{"pitch":36,"velocity":128,"startTime":48.62065400000026,"endTime":48.70686083333359,"instrument":7,"program":118,"isDrum":true},{"pitch":57,"velocity":128,"startTime":48.62065400000026,"endTime":48.70686083333359,"instrument":7,"program":118,"isDrum":true},{"pitch":36,"velocity":128,"startTime":48.74996425000026,"endTime":48.83617108333359,"instrument":7,"program":118,"isDrum":true},{"pitch":36,"velocity":128,"startTime":48.87927450000026,"endTime":48.96548133333359,"instrument":7,"program":118,"isDrum":true},{"pitch":36,"velocity":128,"startTime":49.137895000000256,"endTime":49.22410183333359,"instrument":7,"program":118,"isDrum":true},{"pitch":38,"velocity":128,"startTime":49.137895000000256,"endTime":49.22410183333359,"instrument":7,"program":118,"isDrum":true},{"pitch":57,"velocity":128,"startTime":49.137895000000256,"endTime":49.22410183333359,"instrument":7,"program":118,"isDrum":true},{"pitch":36,"velocity":128,"startTime":49.26720525000025,"endTime":49.35341208333359,"instrument":7,"program":118,"isDrum":true},{"pitch":36,"velocity":128,"startTime":49.396515500000255,"endTime":49.482722333333584,"instrument":7,"program":118,"isDrum":true},{"pitch":36,"velocity":128,"startTime":49.655136000000255,"endTime":49.827549666666926,"instrument":7,"program":118,"isDrum":true},{"pitch":38,"velocity":128,"startTime":49.655136000000255,"endTime":49.827549666666926,"instrument":7,"program":118,"isDrum":true},{"pitch":57,"velocity":128,"startTime":49.655136000000255,"endTime":49.827549666666926,"instrument":7,"program":118,"isDrum":true},{"pitch":38,"velocity":128,"startTime":50.17237700000026,"endTime":50.34479066666693,"instrument":7,"program":118,"isDrum":true},{"pitch":36,"velocity":128,"startTime":50.43099750000026,"endTime":50.60341116666693,"instrument":7,"program":118,"isDrum":true},{"pitch":38,"velocity":128,"startTime":50.43099750000026,"endTime":50.60341116666693,"instrument":7,"program":118,"isDrum":true},{"pitch":38,"velocity":128,"startTime":50.689618000000266,"endTime":50.86203166666694,"instrument":7,"program":118,"isDrum":true},{"pitch":36,"velocity":128,"startTime":50.689618000000266,"endTime":50.86203166666694,"instrument":7,"program":118,"isDrum":true},{"pitch":57,"velocity":128,"startTime":50.689618000000266,"endTime":50.86203166666694,"instrument":7,"program":118,"isDrum":true},{"pitch":38,"velocity":128,"startTime":51.20685900000027,"endTime":51.379272666666935,"instrument":7,"program":118,"isDrum":true},{"pitch":38,"velocity":128,"startTime":51.46547950000027,"endTime":51.63789316666694,"instrument":7,"program":118,"isDrum":true},{"pitch":36,"velocity":128,"startTime":51.46547950000027,"endTime":51.63789316666694,"instrument":7,"program":118,"isDrum":true},{"pitch":36,"velocity":128,"startTime":51.72410000000028,"endTime":51.89651366666694,"instrument":7,"program":118,"isDrum":true},{"pitch":38,"velocity":128,"startTime":51.72410000000028,"endTime":51.89651366666694,"instrument":7,"program":118,"isDrum":true},{"pitch":57,"velocity":128,"startTime":51.72410000000028,"endTime":51.89651366666694,"instrument":7,"program":118,"isDrum":true},{"pitch":38,"velocity":128,"startTime":52.24134100000028,"endTime":52.41375466666695,"instrument":7,"program":118,"isDrum":true},{"pitch":36,"velocity":128,"startTime":52.49996150000028,"endTime":52.67237516666695,"instrument":7,"program":118,"isDrum":true},{"pitch":38,"velocity":128,"startTime":52.49996150000028,"endTime":52.67237516666695,"instrument":7,"program":118,"isDrum":true},{"pitch":38,"velocity":128,"startTime":52.75858200000029,"endTime":52.93099566666695,"instrument":7,"program":118,"isDrum":true},{"pitch":36,"velocity":128,"startTime":52.75858200000029,"endTime":52.93099566666695,"instrument":7,"program":118,"isDrum":true},{"pitch":57,"velocity":128,"startTime":52.75858200000029,"endTime":52.93099566666695,"instrument":7,"program":118,"isDrum":true},{"pitch":38,"velocity":128,"startTime":53.27582300000029,"endTime":53.44823666666696,"instrument":7,"program":118,"isDrum":true},{"pitch":38,"velocity":128,"startTime":53.53444350000029,"endTime":53.706857166666964,"instrument":7,"program":118,"isDrum":true},{"pitch":36,"velocity":128,"startTime":53.53444350000029,"endTime":53.706857166666964,"instrument":7,"program":118,"isDrum":true},{"pitch":36,"velocity":128,"startTime":53.79306400000029,"endTime":53.96547766666696,"instrument":7,"program":118,"isDrum":true},{"pitch":38,"velocity":128,"startTime":53.79306400000029,"endTime":53.96547766666696,"instrument":7,"program":118,"isDrum":true},{"pitch":57,"velocity":128,"startTime":53.79306400000029,"endTime":53.96547766666696,"instrument":7,"program":118,"isDrum":true},{"pitch":57,"velocity":128,"startTime":54.3103050000003,"endTime":54.39651183333363,"instrument":7,"program":118,"isDrum":true},{"pitch":38,"velocity":128,"startTime":54.3103050000003,"endTime":54.39651183333363,"instrument":7,"program":118,"isDrum":true},{"pitch":36,"velocity":128,"startTime":54.3103050000003,"endTime":54.39651183333363,"instrument":7,"program":118,"isDrum":true},{"pitch":36,"velocity":128,"startTime":54.439615250000294,"endTime":54.52582208333363,"instrument":7,"program":118,"isDrum":true},{"pitch":36,"velocity":128,"startTime":54.5689255000003,"endTime":54.655132333333626,"instrument":7,"program":118,"isDrum":true},{"pitch":36,"velocity":128,"startTime":54.8275460000003,"endTime":54.91375283333363,"instrument":7,"program":118,"isDrum":true},{"pitch":38,"velocity":128,"startTime":54.8275460000003,"endTime":54.91375283333363,"instrument":7,"program":118,"isDrum":true},{"pitch":57,"velocity":128,"startTime":54.8275460000003,"endTime":54.91375283333363,"instrument":7,"program":118,"isDrum":true},{"pitch":36,"velocity":128,"startTime":54.95685625000029,"endTime":55.04306308333363,"instrument":7,"program":118,"isDrum":true},{"pitch":36,"velocity":128,"startTime":55.08616650000029,"endTime":55.172373333333624,"instrument":7,"program":118,"isDrum":true},{"pitch":57,"velocity":128,"startTime":55.344787000000295,"endTime":55.517200666666966,"instrument":7,"program":118,"isDrum":true},{"pitch":38,"velocity":128,"startTime":55.344787000000295,"endTime":55.517200666666966,"instrument":7,"program":118,"isDrum":true},{"pitch":36,"velocity":128,"startTime":55.344787000000295,"endTime":55.517200666666966,"instrument":7,"program":118,"isDrum":true},{"pitch":38,"velocity":128,"startTime":55.8620280000003,"endTime":55.948234833333636,"instrument":7,"program":118,"isDrum":true},{"pitch":36,"velocity":128,"startTime":55.8620280000003,"endTime":55.948234833333636,"instrument":7,"program":118,"isDrum":true},{"pitch":57,"velocity":128,"startTime":55.8620280000003,"endTime":55.948234833333636,"instrument":7,"program":118,"isDrum":true},{"pitch":36,"velocity":128,"startTime":56.3792690000003,"endTime":56.46547583333363,"instrument":7,"program":118,"isDrum":true},{"pitch":38,"velocity":128,"startTime":56.3792690000003,"endTime":56.46547583333363,"instrument":7,"program":118,"isDrum":true},{"pitch":57,"velocity":128,"startTime":56.3792690000003,"endTime":56.46547583333363,"instrument":7,"program":118,"isDrum":true},{"pitch":36,"velocity":128,"startTime":56.508579250000295,"endTime":56.59478608333363,"instrument":7,"program":118,"isDrum":true},{"pitch":36,"velocity":128,"startTime":56.63788950000029,"endTime":56.72409633333363,"instrument":7,"program":118,"isDrum":true},{"pitch":38,"velocity":128,"startTime":56.89651000000029,"endTime":56.982716833333626,"instrument":7,"program":118,"isDrum":true},{"pitch":36,"velocity":128,"startTime":56.89651000000029,"endTime":56.982716833333626,"instrument":7,"program":118,"isDrum":true},{"pitch":57,"velocity":128,"startTime":56.89651000000029,"endTime":56.982716833333626,"instrument":7,"program":118,"isDrum":true},{"pitch":36,"velocity":128,"startTime":57.025820250000294,"endTime":57.11202708333362,"instrument":7,"program":118,"isDrum":true},{"pitch":36,"velocity":128,"startTime":57.15513050000029,"endTime":57.241337333333625,"instrument":7,"program":118,"isDrum":true},{"pitch":36,"velocity":128,"startTime":57.41375100000029,"endTime":57.499957833333625,"instrument":7,"program":118,"isDrum":true},{"pitch":38,"velocity":128,"startTime":57.41375100000029,"endTime":57.499957833333625,"instrument":7,"program":118,"isDrum":true},{"pitch":57,"velocity":128,"startTime":57.41375100000029,"endTime":57.499957833333625,"instrument":7,"program":118,"isDrum":true},{"pitch":36,"velocity":128,"startTime":57.543061250000285,"endTime":57.62926808333362,"instrument":7,"program":118,"isDrum":true},{"pitch":36,"velocity":128,"startTime":57.67237150000029,"endTime":57.75857833333362,"instrument":7,"program":118,"isDrum":true},{"pitch":41,"velocity":128,"startTime":57.93099200000029,"endTime":58.10340566666696,"instrument":7,"program":118,"isDrum":true},{"pitch":43,"velocity":103,"startTime":57.93099200000029,"endTime":58.10340566666696,"instrument":7,"program":118,"isDrum":true},{"pitch":45,"velocity":103,"startTime":57.93099200000029,"endTime":58.10340566666696,"instrument":7,"program":118,"isDrum":true},{"pitch":54,"velocity":128,"startTime":57.93099200000029,"endTime":58.10340566666696,"instrument":7,"program":118,"isDrum":true},{"pitch":54,"velocity":128,"startTime":58.189612500000294,"endTime":58.36202616666696,"instrument":7,"program":118,"isDrum":true},{"pitch":54,"velocity":128,"startTime":58.44823300000029,"endTime":58.620646666666964,"instrument":7,"program":118,"isDrum":true},{"pitch":40,"velocity":109,"startTime":58.44823300000029,"endTime":58.620646666666964,"instrument":7,"program":118,"isDrum":true},{"pitch":54,"velocity":128,"startTime":58.70685350000029,"endTime":58.87926716666696,"instrument":7,"program":118,"isDrum":true},{"pitch":54,"velocity":128,"startTime":58.9654740000003,"endTime":59.13788766666697,"instrument":7,"program":118,"isDrum":true},{"pitch":54,"velocity":128,"startTime":59.2240945000003,"endTime":59.39650816666697,"instrument":7,"program":118,"isDrum":true},{"pitch":54,"velocity":128,"startTime":59.482715000000304,"endTime":59.65512866666697,"instrument":7,"program":118,"isDrum":true},{"pitch":40,"velocity":109,"startTime":59.482715000000304,"endTime":59.65512866666697,"instrument":7,"program":118,"isDrum":true},{"pitch":54,"velocity":128,"startTime":59.741335500000304,"endTime":59.913749166666975,"instrument":7,"program":118,"isDrum":true},{"pitch":54,"velocity":128,"startTime":59.99995600000031,"endTime":60.172369666666974,"instrument":7,"program":118,"isDrum":true},{"pitch":41,"velocity":128,"startTime":59.99995600000031,"endTime":60.172369666666974,"instrument":7,"program":118,"isDrum":true},{"pitch":43,"velocity":103,"startTime":59.99995600000031,"endTime":60.172369666666974,"instrument":7,"program":118,"isDrum":true},{"pitch":45,"velocity":103,"startTime":59.99995600000031,"endTime":60.172369666666974,"instrument":7,"program":118,"isDrum":true},{"pitch":54,"velocity":128,"startTime":60.25857650000031,"endTime":60.43099016666698,"instrument":7,"program":118,"isDrum":true},{"pitch":54,"velocity":128,"startTime":60.517197000000316,"endTime":60.68961066666698,"instrument":7,"program":118,"isDrum":true},{"pitch":40,"velocity":109,"startTime":60.517197000000316,"endTime":60.68961066666698,"instrument":7,"program":118,"isDrum":true},{"pitch":54,"velocity":128,"startTime":60.775817500000315,"endTime":60.948231166666986,"instrument":7,"program":118,"isDrum":true},{"pitch":54,"velocity":128,"startTime":61.03443800000032,"endTime":61.206851666666985,"instrument":7,"program":118,"isDrum":true},{"pitch":54,"velocity":128,"startTime":61.29305850000032,"endTime":61.46547216666699,"instrument":7,"program":118,"isDrum":true},{"pitch":54,"velocity":128,"startTime":61.55167900000033,"endTime":61.72409266666699,"instrument":7,"program":118,"isDrum":true},{"pitch":40,"velocity":109,"startTime":61.55167900000033,"endTime":61.72409266666699,"instrument":7,"program":118,"isDrum":true},{"pitch":54,"velocity":128,"startTime":61.810299500000326,"endTime":61.982713166667,"instrument":7,"program":118,"isDrum":true},{"pitch":54,"velocity":128,"startTime":62.068920000000325,"endTime":62.241333666666996,"instrument":7,"program":118,"isDrum":true},{"pitch":41,"velocity":128,"startTime":62.068920000000325,"endTime":62.241333666666996,"instrument":7,"program":118,"isDrum":true},{"pitch":43,"velocity":103,"startTime":62.068920000000325,"endTime":62.241333666666996,"instrument":7,"program":118,"isDrum":true},{"pitch":45,"velocity":103,"startTime":62.068920000000325,"endTime":62.241333666666996,"instrument":7,"program":118,"isDrum":true},{"pitch":54,"velocity":128,"startTime":62.32754050000033,"endTime":62.499954166667,"instrument":7,"program":118,"isDrum":true},{"pitch":54,"velocity":128,"startTime":62.58616100000033,"endTime":62.758574666667,"instrument":7,"program":118,"isDrum":true},{"pitch":40,"velocity":109,"startTime":62.58616100000033,"endTime":62.758574666667,"instrument":7,"program":118,"isDrum":true},{"pitch":54,"velocity":128,"startTime":62.84478150000034,"endTime":63.017195166667,"instrument":7,"program":118,"isDrum":true},{"pitch":54,"velocity":128,"startTime":63.10340200000034,"endTime":63.27581566666701,"instrument":7,"program":118,"isDrum":true},{"pitch":54,"velocity":128,"startTime":63.36202250000034,"endTime":63.53443616666701,"instrument":7,"program":118,"isDrum":true},{"pitch":54,"velocity":128,"startTime":63.62064300000034,"endTime":63.79305666666701,"instrument":7,"program":118,"isDrum":true},{"pitch":40,"velocity":109,"startTime":63.62064300000034,"endTime":63.79305666666701,"instrument":7,"program":118,"isDrum":true},{"pitch":54,"velocity":128,"startTime":63.87926350000035,"endTime":64.05167716666702,"instrument":7,"program":118,"isDrum":true},{"pitch":54,"velocity":128,"startTime":64.13788400000035,"endTime":64.31029766666701,"instrument":7,"program":118,"isDrum":true},{"pitch":41,"velocity":128,"startTime":64.13788400000035,"endTime":64.31029766666701,"instrument":7,"program":118,"isDrum":true},{"pitch":43,"velocity":103,"startTime":64.13788400000035,"endTime":64.31029766666701,"instrument":7,"program":118,"isDrum":true},{"pitch":45,"velocity":103,"startTime":64.13788400000035,"endTime":64.31029766666701,"instrument":7,"program":118,"isDrum":true},{"pitch":54,"velocity":128,"startTime":64.39650450000035,"endTime":64.56891816666702,"instrument":7,"program":118,"isDrum":true},{"pitch":54,"velocity":128,"startTime":64.65512500000035,"endTime":64.82753866666702,"instrument":7,"program":118,"isDrum":true},{"pitch":40,"velocity":109,"startTime":64.65512500000035,"endTime":64.82753866666702,"instrument":7,"program":118,"isDrum":true},{"pitch":54,"velocity":128,"startTime":64.91374550000036,"endTime":65.08615916666703,"instrument":7,"program":118,"isDrum":true},{"pitch":54,"velocity":128,"startTime":65.17236600000035,"endTime":65.34477966666702,"instrument":7,"program":118,"isDrum":true},{"pitch":54,"velocity":128,"startTime":65.43098650000036,"endTime":65.60340016666703,"instrument":7,"program":118,"isDrum":true},{"pitch":54,"velocity":128,"startTime":65.68960700000036,"endTime":65.86202066666704,"instrument":7,"program":118,"isDrum":true},{"pitch":40,"velocity":109,"startTime":65.68960700000036,"endTime":65.86202066666704,"instrument":7,"program":118,"isDrum":true},{"pitch":54,"velocity":128,"startTime":65.94822750000037,"endTime":66.12064116666703,"instrument":7,"program":118,"isDrum":true},{"pitch":41,"velocity":128,"startTime":66.20684800000036,"endTime":66.37926166666703,"instrument":7,"program":118,"isDrum":true},{"pitch":43,"velocity":103,"startTime":66.20684800000036,"endTime":66.37926166666703,"instrument":7,"program":118,"isDrum":true},{"pitch":45,"velocity":103,"startTime":66.20684800000036,"endTime":66.37926166666703,"instrument":7,"program":118,"isDrum":true},{"pitch":54,"velocity":128,"startTime":66.20684800000036,"endTime":66.37926166666703,"instrument":7,"program":118,"isDrum":true},{"pitch":54,"velocity":128,"startTime":66.46546850000037,"endTime":66.63788216666704,"instrument":7,"program":118,"isDrum":true},{"pitch":54,"velocity":128,"startTime":66.72408900000038,"endTime":66.89650266666705,"instrument":7,"program":118,"isDrum":true},{"pitch":40,"velocity":109,"startTime":66.72408900000038,"endTime":66.89650266666705,"instrument":7,"program":118,"isDrum":true},{"pitch":54,"velocity":128,"startTime":66.98270950000038,"endTime":67.15512316666704,"instrument":7,"program":118,"isDrum":true},{"pitch":54,"velocity":128,"startTime":67.24133000000037,"endTime":67.41374366666705,"instrument":7,"program":118,"isDrum":true},{"pitch":54,"velocity":128,"startTime":67.49995050000038,"endTime":67.67236416666705,"instrument":7,"program":118,"isDrum":true},{"pitch":54,"velocity":128,"startTime":67.75857100000039,"endTime":67.93098466666706,"instrument":7,"program":118,"isDrum":true},{"pitch":40,"velocity":109,"startTime":67.75857100000039,"endTime":67.93098466666706,"instrument":7,"program":118,"isDrum":true},{"pitch":54,"velocity":128,"startTime":68.0171915000004,"endTime":68.18960516666705,"instrument":7,"program":118,"isDrum":true},{"pitch":54,"velocity":128,"startTime":68.27581200000039,"endTime":68.44822566666706,"instrument":7,"program":118,"isDrum":true},{"pitch":41,"velocity":128,"startTime":68.27581200000039,"endTime":68.44822566666706,"instrument":7,"program":118,"isDrum":true},{"pitch":43,"velocity":103,"startTime":68.27581200000039,"endTime":68.44822566666706,"instrument":7,"program":118,"isDrum":true},{"pitch":45,"velocity":103,"startTime":68.27581200000039,"endTime":68.44822566666706,"instrument":7,"program":118,"isDrum":true},{"pitch":54,"velocity":128,"startTime":68.53443250000039,"endTime":68.70684616666706,"instrument":7,"program":118,"isDrum":true},{"pitch":54,"velocity":128,"startTime":68.7930530000004,"endTime":68.96546666666707,"instrument":7,"program":118,"isDrum":true},{"pitch":40,"velocity":109,"startTime":68.7930530000004,"endTime":68.96546666666707,"instrument":7,"program":118,"isDrum":true},{"pitch":54,"velocity":128,"startTime":69.05167350000039,"endTime":69.22408716666706,"instrument":7,"program":118,"isDrum":true},{"pitch":54,"velocity":128,"startTime":69.3102940000004,"endTime":69.48270766666707,"instrument":7,"program":118,"isDrum":true},{"pitch":54,"velocity":128,"startTime":69.5689145000004,"endTime":69.74132816666707,"instrument":7,"program":118,"isDrum":true},{"pitch":54,"velocity":128,"startTime":69.82753500000041,"endTime":69.99994866666707,"instrument":7,"program":118,"isDrum":true},{"pitch":40,"velocity":109,"startTime":69.82753500000041,"endTime":69.99994866666707,"instrument":7,"program":118,"isDrum":true},{"pitch":54,"velocity":128,"startTime":70.0861555000004,"endTime":70.25856916666707,"instrument":7,"program":118,"isDrum":true},{"pitch":54,"velocity":128,"startTime":70.34477600000041,"endTime":70.51718966666708,"instrument":7,"program":118,"isDrum":true},{"pitch":41,"velocity":128,"startTime":70.34477600000041,"endTime":70.51718966666708,"instrument":7,"program":118,"isDrum":true},{"pitch":43,"velocity":103,"startTime":70.34477600000041,"endTime":70.51718966666708,"instrument":7,"program":118,"isDrum":true},{"pitch":45,"velocity":103,"startTime":70.34477600000041,"endTime":70.51718966666708,"instrument":7,"program":118,"isDrum":true},{"pitch":54,"velocity":128,"startTime":70.60339650000041,"endTime":70.77581016666709,"instrument":7,"program":118,"isDrum":true},{"pitch":54,"velocity":128,"startTime":70.86201700000042,"endTime":71.03443066666708,"instrument":7,"program":118,"isDrum":true},{"pitch":40,"velocity":109,"startTime":70.86201700000042,"endTime":71.03443066666708,"instrument":7,"program":118,"isDrum":true},{"pitch":54,"velocity":128,"startTime":71.12063750000041,"endTime":71.29305116666708,"instrument":7,"program":118,"isDrum":true},{"pitch":54,"velocity":128,"startTime":71.3792580000004,"endTime":71.55167166666708,"instrument":7,"program":118,"isDrum":true},{"pitch":54,"velocity":128,"startTime":71.6378785000004,"endTime":71.81029216666705,"instrument":7,"program":118,"isDrum":true},{"pitch":54,"velocity":128,"startTime":71.89649900000039,"endTime":72.06891266666705,"instrument":7,"program":118,"isDrum":true},{"pitch":40,"velocity":109,"startTime":71.89649900000039,"endTime":72.06891266666705,"instrument":7,"program":118,"isDrum":true},{"pitch":54,"velocity":128,"startTime":72.15511950000038,"endTime":72.32753316666705,"instrument":7,"program":118,"isDrum":true},{"pitch":54,"velocity":128,"startTime":72.41374000000037,"endTime":72.58615366666704,"instrument":7,"program":118,"isDrum":true},{"pitch":41,"velocity":128,"startTime":72.41374000000037,"endTime":72.58615366666704,"instrument":7,"program":118,"isDrum":true},{"pitch":43,"velocity":103,"startTime":72.41374000000037,"endTime":72.58615366666704,"instrument":7,"program":118,"isDrum":true},{"pitch":45,"velocity":103,"startTime":72.41374000000037,"endTime":72.58615366666704,"instrument":7,"program":118,"isDrum":true},{"pitch":54,"velocity":128,"startTime":72.67236050000037,"endTime":72.84477416666704,"instrument":7,"program":118,"isDrum":true},{"pitch":54,"velocity":128,"startTime":72.93098100000036,"endTime":73.10339466666703,"instrument":7,"program":118,"isDrum":true},{"pitch":40,"velocity":109,"startTime":72.93098100000036,"endTime":73.10339466666703,"instrument":7,"program":118,"isDrum":true},{"pitch":54,"velocity":128,"startTime":73.18960150000036,"endTime":73.36201516666702,"instrument":7,"program":118,"isDrum":true},{"pitch":54,"velocity":128,"startTime":73.44822200000036,"endTime":73.62063566666703,"instrument":7,"program":118,"isDrum":true},{"pitch":54,"velocity":128,"startTime":73.70684250000035,"endTime":73.87925616666702,"instrument":7,"program":118,"isDrum":true},{"pitch":54,"velocity":128,"startTime":73.96546300000034,"endTime":74.13787666666701,"instrument":7,"program":118,"isDrum":true},{"pitch":40,"velocity":109,"startTime":73.96546300000034,"endTime":74.13787666666701,"instrument":7,"program":118,"isDrum":true},{"pitch":54,"velocity":128,"startTime":74.22408350000033,"endTime":74.396497166667,"instrument":7,"program":118,"isDrum":true},{"pitch":54,"velocity":128,"startTime":74.48270400000033,"endTime":74.655117666667,"instrument":7,"program":118,"isDrum":true},{"pitch":41,"velocity":128,"startTime":74.48270400000033,"endTime":74.655117666667,"instrument":7,"program":118,"isDrum":true},{"pitch":43,"velocity":103,"startTime":74.48270400000033,"endTime":74.655117666667,"instrument":7,"program":118,"isDrum":true},{"pitch":45,"velocity":103,"startTime":74.48270400000033,"endTime":74.655117666667,"instrument":7,"program":118,"isDrum":true},{"pitch":54,"velocity":128,"startTime":74.74132450000033,"endTime":74.91373816666699,"instrument":7,"program":118,"isDrum":true},{"pitch":54,"velocity":128,"startTime":74.99994500000032,"endTime":75.172358666667,"instrument":7,"program":118,"isDrum":true},{"pitch":40,"velocity":109,"startTime":74.99994500000032,"endTime":75.172358666667,"instrument":7,"program":118,"isDrum":true},{"pitch":54,"velocity":128,"startTime":75.25856550000032,"endTime":75.43097916666699,"instrument":7,"program":118,"isDrum":true},{"pitch":54,"velocity":128,"startTime":75.51718600000031,"endTime":75.68959966666698,"instrument":7,"program":118,"isDrum":true},{"pitch":54,"velocity":128,"startTime":75.7758065000003,"endTime":75.94822016666697,"instrument":7,"program":118,"isDrum":true},{"pitch":54,"velocity":128,"startTime":76.03442700000029,"endTime":76.20684066666696,"instrument":7,"program":118,"isDrum":true},{"pitch":40,"velocity":109,"startTime":76.03442700000029,"endTime":76.20684066666696,"instrument":7,"program":118,"isDrum":true},{"pitch":54,"velocity":128,"startTime":76.2930475000003,"endTime":76.46546116666696,"instrument":7,"program":118,"isDrum":true},{"pitch":54,"velocity":128,"startTime":76.55166800000029,"endTime":76.72408166666696,"instrument":7,"program":118,"isDrum":true},{"pitch":41,"velocity":128,"startTime":76.55166800000029,"endTime":76.72408166666696,"instrument":7,"program":118,"isDrum":true},{"pitch":43,"velocity":103,"startTime":76.55166800000029,"endTime":76.72408166666696,"instrument":7,"program":118,"isDrum":true},{"pitch":45,"velocity":103,"startTime":76.55166800000029,"endTime":76.72408166666696,"instrument":7,"program":118,"isDrum":true},{"pitch":54,"velocity":128,"startTime":76.81028850000028,"endTime":76.98270216666695,"instrument":7,"program":118,"isDrum":true},{"pitch":54,"velocity":128,"startTime":77.06890900000028,"endTime":77.24132266666695,"instrument":7,"program":118,"isDrum":true},{"pitch":40,"velocity":109,"startTime":77.06890900000028,"endTime":77.24132266666695,"instrument":7,"program":118,"isDrum":true},{"pitch":54,"velocity":128,"startTime":77.32752950000027,"endTime":77.49994316666694,"instrument":7,"program":118,"isDrum":true},{"pitch":54,"velocity":128,"startTime":77.58615000000026,"endTime":77.75856366666693,"instrument":7,"program":118,"isDrum":true},{"pitch":54,"velocity":128,"startTime":77.84477050000027,"endTime":78.01718416666692,"instrument":7,"program":118,"isDrum":true},{"pitch":54,"velocity":128,"startTime":78.10339100000026,"endTime":78.27580466666693,"instrument":7,"program":118,"isDrum":true},{"pitch":40,"velocity":109,"startTime":78.10339100000026,"endTime":78.27580466666693,"instrument":7,"program":118,"isDrum":true},{"pitch":54,"velocity":128,"startTime":78.36201150000025,"endTime":78.53442516666692,"instrument":7,"program":118,"isDrum":true},{"pitch":54,"velocity":128,"startTime":78.62063200000024,"endTime":78.79304566666691,"instrument":7,"program":118,"isDrum":true},{"pitch":41,"velocity":128,"startTime":78.62063200000024,"endTime":78.79304566666691,"instrument":7,"program":118,"isDrum":true},{"pitch":43,"velocity":103,"startTime":78.62063200000024,"endTime":78.79304566666691,"instrument":7,"program":118,"isDrum":true},{"pitch":45,"velocity":103,"startTime":78.62063200000024,"endTime":78.79304566666691,"instrument":7,"program":118,"isDrum":true},{"pitch":54,"velocity":128,"startTime":78.87925250000023,"endTime":79.0516661666669,"instrument":7,"program":118,"isDrum":true},{"pitch":54,"velocity":128,"startTime":79.13787300000023,"endTime":79.3102866666669,"instrument":7,"program":118,"isDrum":true},{"pitch":40,"velocity":109,"startTime":79.13787300000023,"endTime":79.3102866666669,"instrument":7,"program":118,"isDrum":true},{"pitch":54,"velocity":128,"startTime":79.39649350000023,"endTime":79.56890716666689,"instrument":7,"program":118,"isDrum":true},{"pitch":54,"velocity":128,"startTime":79.65511400000022,"endTime":79.8275276666669,"instrument":7,"program":118,"isDrum":true},{"pitch":54,"velocity":128,"startTime":79.91373450000022,"endTime":80.08614816666689,"instrument":7,"program":118,"isDrum":true},{"pitch":54,"velocity":128,"startTime":80.17235500000021,"endTime":80.34476866666688,"instrument":7,"program":118,"isDrum":true},{"pitch":40,"velocity":109,"startTime":80.17235500000021,"endTime":80.34476866666688,"instrument":7,"program":118,"isDrum":true},{"pitch":54,"velocity":128,"startTime":80.4309755000002,"endTime":80.60338916666687,"instrument":7,"program":118,"isDrum":true},{"pitch":54,"velocity":128,"startTime":80.6895960000002,"endTime":80.86200966666686,"instrument":7,"program":118,"isDrum":true},{"pitch":41,"velocity":128,"startTime":80.6895960000002,"endTime":80.86200966666686,"instrument":7,"program":118,"isDrum":true},{"pitch":43,"velocity":103,"startTime":80.6895960000002,"endTime":80.86200966666686,"instrument":7,"program":118,"isDrum":true},{"pitch":45,"velocity":103,"startTime":80.6895960000002,"endTime":80.86200966666686,"instrument":7,"program":118,"isDrum":true},{"pitch":54,"velocity":128,"startTime":80.9482165000002,"endTime":81.12063016666686,"instrument":7,"program":118,"isDrum":true},{"pitch":54,"velocity":128,"startTime":81.20683700000019,"endTime":81.37925066666686,"instrument":7,"program":118,"isDrum":true},{"pitch":40,"velocity":109,"startTime":81.20683700000019,"endTime":81.37925066666686,"instrument":7,"program":118,"isDrum":true},{"pitch":54,"velocity":128,"startTime":81.46545750000018,"endTime":81.63787116666686,"instrument":7,"program":118,"isDrum":true},{"pitch":54,"velocity":128,"startTime":81.72407800000018,"endTime":81.89649166666685,"instrument":7,"program":118,"isDrum":true},{"pitch":54,"velocity":128,"startTime":81.98269850000017,"endTime":82.15511216666684,"instrument":7,"program":118,"isDrum":true},{"pitch":54,"velocity":128,"startTime":82.24131900000016,"endTime":82.41373266666683,"instrument":7,"program":118,"isDrum":true},{"pitch":40,"velocity":109,"startTime":82.24131900000016,"endTime":82.41373266666683,"instrument":7,"program":118,"isDrum":true},{"pitch":54,"velocity":128,"startTime":82.49993950000017,"endTime":82.67235316666682,"instrument":7,"program":118,"isDrum":true},{"pitch":41,"velocity":128,"startTime":82.75856000000016,"endTime":82.93097366666683,"instrument":7,"program":118,"isDrum":true},{"pitch":43,"velocity":103,"startTime":82.75856000000016,"endTime":82.93097366666683,"instrument":7,"program":118,"isDrum":true},{"pitch":45,"velocity":103,"startTime":82.75856000000016,"endTime":82.93097366666683,"instrument":7,"program":118,"isDrum":true},{"pitch":54,"velocity":128,"startTime":82.75856000000016,"endTime":82.93097366666683,"instrument":7,"program":118,"isDrum":true},{"pitch":54,"velocity":128,"startTime":83.01718050000015,"endTime":83.18959416666682,"instrument":7,"program":118,"isDrum":true},{"pitch":54,"velocity":128,"startTime":83.27580100000014,"endTime":83.44821466666681,"instrument":7,"program":118,"isDrum":true},{"pitch":40,"velocity":109,"startTime":83.27580100000014,"endTime":83.44821466666681,"instrument":7,"program":118,"isDrum":true},{"pitch":54,"velocity":128,"startTime":83.53442150000014,"endTime":83.7068351666668,"instrument":7,"program":118,"isDrum":true},{"pitch":54,"velocity":128,"startTime":83.79304200000014,"endTime":83.9654556666668,"instrument":7,"program":118,"isDrum":true},{"pitch":54,"velocity":128,"startTime":84.05166250000013,"endTime":84.22407616666679,"instrument":7,"program":118,"isDrum":true},{"pitch":54,"velocity":128,"startTime":84.31028300000013,"endTime":84.4826966666668,"instrument":7,"program":118,"isDrum":true},{"pitch":40,"velocity":109,"startTime":84.31028300000013,"endTime":84.4826966666668,"instrument":7,"program":118,"isDrum":true},{"pitch":54,"velocity":128,"startTime":84.56890350000012,"endTime":84.74131716666679,"instrument":7,"program":118,"isDrum":true},{"pitch":54,"velocity":128,"startTime":84.82752400000011,"endTime":84.99993766666678,"instrument":7,"program":118,"isDrum":true},{"pitch":41,"velocity":128,"startTime":84.82752400000011,"endTime":84.99993766666678,"instrument":7,"program":118,"isDrum":true},{"pitch":43,"velocity":103,"startTime":84.82752400000011,"endTime":84.99993766666678,"instrument":7,"program":118,"isDrum":true},{"pitch":45,"velocity":103,"startTime":84.82752400000011,"endTime":84.99993766666678,"instrument":7,"program":118,"isDrum":true},{"pitch":54,"velocity":128,"startTime":85.0861445000001,"endTime":85.25855816666677,"instrument":7,"program":118,"isDrum":true},{"pitch":54,"velocity":128,"startTime":85.34476500000011,"endTime":85.51717866666677,"instrument":7,"program":118,"isDrum":true},{"pitch":40,"velocity":109,"startTime":85.34476500000011,"endTime":85.51717866666677,"instrument":7,"program":118,"isDrum":true},{"pitch":54,"velocity":128,"startTime":85.6033855000001,"endTime":85.77579916666677,"instrument":7,"program":118,"isDrum":true},{"pitch":54,"velocity":128,"startTime":85.8620060000001,"endTime":86.03441966666676,"instrument":7,"program":118,"isDrum":true},{"pitch":54,"velocity":128,"startTime":86.12062650000009,"endTime":86.29304016666676,"instrument":7,"program":118,"isDrum":true},{"pitch":54,"velocity":128,"startTime":86.37924700000008,"endTime":86.55166066666675,"instrument":7,"program":118,"isDrum":true},{"pitch":40,"velocity":109,"startTime":86.37924700000008,"endTime":86.55166066666675,"instrument":7,"program":118,"isDrum":true},{"pitch":54,"velocity":128,"startTime":86.63786750000007,"endTime":86.81028116666674,"instrument":7,"program":118,"isDrum":true},{"pitch":54,"velocity":128,"startTime":86.89648800000008,"endTime":87.06890166666673,"instrument":7,"program":118,"isDrum":true},{"pitch":41,"velocity":128,"startTime":86.89648800000008,"endTime":87.06890166666673,"instrument":7,"program":118,"isDrum":true},{"pitch":43,"velocity":103,"startTime":86.89648800000008,"endTime":87.06890166666673,"instrument":7,"program":118,"isDrum":true},{"pitch":45,"velocity":103,"startTime":86.89648800000008,"endTime":87.06890166666673,"instrument":7,"program":118,"isDrum":true},{"pitch":54,"velocity":128,"startTime":87.15510850000007,"endTime":87.32752216666674,"instrument":7,"program":118,"isDrum":true},{"pitch":54,"velocity":128,"startTime":87.41372900000006,"endTime":87.58614266666673,"instrument":7,"program":118,"isDrum":true},{"pitch":40,"velocity":109,"startTime":87.41372900000006,"endTime":87.58614266666673,"instrument":7,"program":118,"isDrum":true},{"pitch":54,"velocity":128,"startTime":87.67234950000005,"endTime":87.84476316666672,"instrument":7,"program":118,"isDrum":true},{"pitch":54,"velocity":128,"startTime":87.93097000000004,"endTime":88.10338366666672,"instrument":7,"program":118,"isDrum":true},{"pitch":54,"velocity":128,"startTime":88.18959050000004,"endTime":88.36200416666671,"instrument":7,"program":118,"isDrum":true},{"pitch":54,"velocity":128,"startTime":88.44821100000004,"endTime":88.6206246666667,"instrument":7,"program":118,"isDrum":true},{"pitch":40,"velocity":109,"startTime":88.44821100000004,"endTime":88.6206246666667,"instrument":7,"program":118,"isDrum":true},{"pitch":54,"velocity":128,"startTime":88.70683150000004,"endTime":88.8792451666667,"instrument":7,"program":118,"isDrum":true},{"pitch":54,"velocity":128,"startTime":88.96545200000003,"endTime":89.1378656666667,"instrument":7,"program":118,"isDrum":true},{"pitch":41,"velocity":128,"startTime":88.96545200000003,"endTime":89.1378656666667,"instrument":7,"program":118,"isDrum":true},{"pitch":43,"velocity":103,"startTime":88.96545200000003,"endTime":89.1378656666667,"instrument":7,"program":118,"isDrum":true},{"pitch":45,"velocity":103,"startTime":88.96545200000003,"endTime":89.1378656666667,"instrument":7,"program":118,"isDrum":true},{"pitch":54,"velocity":128,"startTime":89.22407250000002,"endTime":89.39648616666669,"instrument":7,"program":118,"isDrum":true},{"pitch":54,"velocity":128,"startTime":89.48269300000001,"endTime":89.65510666666668,"instrument":7,"program":118,"isDrum":true},{"pitch":40,"velocity":109,"startTime":89.48269300000001,"endTime":89.65510666666668,"instrument":7,"program":118,"isDrum":true},{"pitch":54,"velocity":128,"startTime":89.7413135,"endTime":89.91372716666667,"instrument":7,"program":118,"isDrum":true},{"pitch":54,"velocity":128,"startTime":89.99993400000001,"endTime":90.17234766666667,"instrument":7,"program":118,"isDrum":true},{"pitch":54,"velocity":128,"startTime":90.2585545,"endTime":90.43096816666667,"instrument":7,"program":118,"isDrum":true},{"pitch":54,"velocity":128,"startTime":90.517175,"endTime":90.68958866666667,"instrument":7,"program":118,"isDrum":true},{"pitch":40,"velocity":109,"startTime":90.517175,"endTime":90.68958866666667,"instrument":7,"program":118,"isDrum":true},{"pitch":54,"velocity":128,"startTime":90.77579549999999,"endTime":90.94820916666666,"instrument":7,"program":118,"isDrum":true},{"pitch":41,"velocity":128,"startTime":91.03441599999998,"endTime":91.20682966666665,"instrument":7,"program":118,"isDrum":true},{"pitch":43,"velocity":103,"startTime":91.03441599999998,"endTime":91.20682966666665,"instrument":7,"program":118,"isDrum":true},{"pitch":45,"velocity":103,"startTime":91.03441599999998,"endTime":91.20682966666665,"instrument":7,"program":118,"isDrum":true},{"pitch":54,"velocity":128,"startTime":91.03441599999998,"endTime":91.20682966666665,"instrument":7,"program":118,"isDrum":true},{"pitch":54,"velocity":128,"startTime":91.29303649999997,"endTime":91.46545016666664,"instrument":7,"program":118,"isDrum":true},{"pitch":54,"velocity":128,"startTime":91.55165699999998,"endTime":91.72407066666663,"instrument":7,"program":118,"isDrum":true},{"pitch":40,"velocity":109,"startTime":91.55165699999998,"endTime":91.72407066666663,"instrument":7,"program":118,"isDrum":true},{"pitch":54,"velocity":128,"startTime":91.81027749999997,"endTime":91.98269116666664,"instrument":7,"program":118,"isDrum":true},{"pitch":54,"velocity":128,"startTime":92.06889799999996,"endTime":92.24131166666663,"instrument":7,"program":118,"isDrum":true},{"pitch":54,"velocity":128,"startTime":92.32751849999995,"endTime":92.49993216666662,"instrument":7,"program":118,"isDrum":true},{"pitch":54,"velocity":128,"startTime":92.58613899999995,"endTime":92.75855266666662,"instrument":7,"program":118,"isDrum":true},{"pitch":40,"velocity":109,"startTime":92.58613899999995,"endTime":92.75855266666662,"instrument":7,"program":118,"isDrum":true},{"pitch":54,"velocity":128,"startTime":92.84475949999994,"endTime":93.01717316666661,"instrument":7,"program":118,"isDrum":true},{"pitch":54,"velocity":128,"startTime":93.10337999999994,"endTime":93.2757936666666,"instrument":7,"program":118,"isDrum":true},{"pitch":41,"velocity":128,"startTime":93.10337999999994,"endTime":93.2757936666666,"instrument":7,"program":118,"isDrum":true},{"pitch":43,"velocity":103,"startTime":93.10337999999994,"endTime":93.2757936666666,"instrument":7,"program":118,"isDrum":true},{"pitch":45,"velocity":103,"startTime":93.10337999999994,"endTime":93.2757936666666,"instrument":7,"program":118,"isDrum":true},{"pitch":54,"velocity":128,"startTime":93.36200049999994,"endTime":93.53441416666661,"instrument":7,"program":118,"isDrum":true},{"pitch":54,"velocity":128,"startTime":93.62062099999993,"endTime":93.7930346666666,"instrument":7,"program":118,"isDrum":true},{"pitch":40,"velocity":109,"startTime":93.62062099999993,"endTime":93.7930346666666,"instrument":7,"program":118,"isDrum":true},{"pitch":54,"velocity":128,"startTime":93.87924149999992,"endTime":94.05165516666659,"instrument":7,"program":118,"isDrum":true},{"pitch":54,"velocity":128,"startTime":94.13786199999991,"endTime":94.31027566666658,"instrument":7,"program":118,"isDrum":true},{"pitch":54,"velocity":128,"startTime":94.3964824999999,"endTime":94.56889616666658,"instrument":7,"program":118,"isDrum":true},{"pitch":54,"velocity":128,"startTime":94.65510299999991,"endTime":94.82751666666657,"instrument":7,"program":118,"isDrum":true},{"pitch":40,"velocity":109,"startTime":94.65510299999991,"endTime":94.82751666666657,"instrument":7,"program":118,"isDrum":true},{"pitch":54,"velocity":128,"startTime":94.9137234999999,"endTime":95.08613716666657,"instrument":7,"program":118,"isDrum":true},{"pitch":54,"velocity":128,"startTime":95.1723439999999,"endTime":95.34475766666657,"instrument":7,"program":118,"isDrum":true},{"pitch":41,"velocity":128,"startTime":95.1723439999999,"endTime":95.34475766666657,"instrument":7,"program":118,"isDrum":true},{"pitch":43,"velocity":103,"startTime":95.1723439999999,"endTime":95.34475766666657,"instrument":7,"program":118,"isDrum":true},{"pitch":45,"velocity":103,"startTime":95.1723439999999,"endTime":95.34475766666657,"instrument":7,"program":118,"isDrum":true},{"pitch":54,"velocity":128,"startTime":95.43096449999989,"endTime":95.60337816666656,"instrument":7,"program":118,"isDrum":true},{"pitch":54,"velocity":128,"startTime":95.68958499999988,"endTime":95.86199866666655,"instrument":7,"program":118,"isDrum":true},{"pitch":40,"velocity":109,"startTime":95.68958499999988,"endTime":95.86199866666655,"instrument":7,"program":118,"isDrum":true},{"pitch":54,"velocity":128,"startTime":95.94820549999989,"endTime":96.12061916666654,"instrument":7,"program":118,"isDrum":true},{"pitch":54,"velocity":128,"startTime":96.20682599999988,"endTime":96.37923966666654,"instrument":7,"program":118,"isDrum":true},{"pitch":54,"velocity":128,"startTime":96.46544649999987,"endTime":96.63786016666654,"instrument":7,"program":118,"isDrum":true},{"pitch":54,"velocity":128,"startTime":96.72406699999986,"endTime":96.89648066666653,"instrument":7,"program":118,"isDrum":true},{"pitch":40,"velocity":109,"startTime":96.72406699999986,"endTime":96.89648066666653,"instrument":7,"program":118,"isDrum":true},{"pitch":54,"velocity":128,"startTime":96.98268749999986,"endTime":97.15510116666653,"instrument":7,"program":118,"isDrum":true},{"pitch":38,"velocity":128,"startTime":97.24130799999985,"endTime":97.32751483333318,"instrument":7,"program":118,"isDrum":true},{"pitch":36,"velocity":128,"startTime":97.24130799999985,"endTime":97.32751483333318,"instrument":7,"program":118,"isDrum":true},{"pitch":57,"velocity":128,"startTime":97.24130799999985,"endTime":97.32751483333318,"instrument":7,"program":118,"isDrum":true},{"pitch":36,"velocity":128,"startTime":97.75854899999985,"endTime":97.84475583333317,"instrument":7,"program":118,"isDrum":true},{"pitch":38,"velocity":128,"startTime":97.75854899999985,"endTime":97.84475583333317,"instrument":7,"program":118,"isDrum":true},{"pitch":57,"velocity":128,"startTime":97.75854899999985,"endTime":97.84475583333317,"instrument":7,"program":118,"isDrum":true},{"pitch":36,"velocity":128,"startTime":97.88785924999983,"endTime":97.97406608333316,"instrument":7,"program":118,"isDrum":true},{"pitch":36,"velocity":128,"startTime":98.01716949999982,"endTime":98.10337633333314,"instrument":7,"program":118,"isDrum":true},{"pitch":38,"velocity":128,"startTime":98.27578999999982,"endTime":98.36199683333314,"instrument":7,"program":118,"isDrum":true},{"pitch":36,"velocity":128,"startTime":98.27578999999982,"endTime":98.36199683333314,"instrument":7,"program":118,"isDrum":true},{"pitch":57,"velocity":128,"startTime":98.27578999999982,"endTime":98.36199683333314,"instrument":7,"program":118,"isDrum":true},{"pitch":36,"velocity":128,"startTime":98.4051002499998,"endTime":98.49130708333313,"instrument":7,"program":118,"isDrum":true},{"pitch":36,"velocity":128,"startTime":98.5344104999998,"endTime":98.62061733333312,"instrument":7,"program":118,"isDrum":true},{"pitch":36,"velocity":128,"startTime":98.79303099999979,"endTime":98.87923783333311,"instrument":7,"program":118,"isDrum":true},{"pitch":38,"velocity":128,"startTime":98.79303099999979,"endTime":98.87923783333311,"instrument":7,"program":118,"isDrum":true},{"pitch":57,"velocity":128,"startTime":98.79303099999979,"endTime":98.87923783333311,"instrument":7,"program":118,"isDrum":true},{"pitch":36,"velocity":128,"startTime":98.92234124999977,"endTime":99.00854808333311,"instrument":7,"program":118,"isDrum":true},{"pitch":36,"velocity":128,"startTime":99.05165149999976,"endTime":99.1378583333331,"instrument":7,"program":118,"isDrum":true},{"pitch":36,"velocity":128,"startTime":99.31027199999976,"endTime":99.48268566666643,"instrument":7,"program":118,"isDrum":true},{"pitch":38,"velocity":128,"startTime":99.31027199999976,"endTime":99.48268566666643,"instrument":7,"program":118,"isDrum":true},{"pitch":57,"velocity":128,"startTime":99.31027199999976,"endTime":99.48268566666643,"instrument":7,"program":118,"isDrum":true},{"pitch":38,"velocity":128,"startTime":99.82751299999977,"endTime":99.99992666666644,"instrument":7,"program":118,"isDrum":true},{"pitch":36,"velocity":128,"startTime":100.08613349999976,"endTime":100.25854716666643,"instrument":7,"program":118,"isDrum":true},{"pitch":38,"velocity":128,"startTime":100.08613349999976,"endTime":100.25854716666643,"instrument":7,"program":118,"isDrum":true},{"pitch":38,"velocity":128,"startTime":100.34475399999975,"endTime":100.51716766666642,"instrument":7,"program":118,"isDrum":true},{"pitch":36,"velocity":128,"startTime":100.34475399999975,"endTime":100.51716766666642,"instrument":7,"program":118,"isDrum":true},{"pitch":57,"velocity":128,"startTime":100.34475399999975,"endTime":100.51716766666642,"instrument":7,"program":118,"isDrum":true},{"pitch":38,"velocity":128,"startTime":100.86199499999977,"endTime":101.03440866666642,"instrument":7,"program":118,"isDrum":true},{"pitch":38,"velocity":128,"startTime":101.12061549999976,"endTime":101.29302916666643,"instrument":7,"program":118,"isDrum":true},{"pitch":36,"velocity":128,"startTime":101.12061549999976,"endTime":101.29302916666643,"instrument":7,"program":118,"isDrum":true},{"pitch":36,"velocity":128,"startTime":101.37923599999975,"endTime":101.55164966666642,"instrument":7,"program":118,"isDrum":true},{"pitch":38,"velocity":128,"startTime":101.37923599999975,"endTime":101.55164966666642,"instrument":7,"program":118,"isDrum":true},{"pitch":57,"velocity":128,"startTime":101.37923599999975,"endTime":101.55164966666642,"instrument":7,"program":118,"isDrum":true},{"pitch":38,"velocity":128,"startTime":101.89647699999975,"endTime":102.06889066666642,"instrument":7,"program":118,"isDrum":true},{"pitch":36,"velocity":128,"startTime":102.15509749999975,"endTime":102.32751116666641,"instrument":7,"program":118,"isDrum":true},{"pitch":38,"velocity":128,"startTime":102.15509749999975,"endTime":102.32751116666641,"instrument":7,"program":118,"isDrum":true},{"pitch":38,"velocity":128,"startTime":102.41371799999975,"endTime":102.58613166666642,"instrument":7,"program":118,"isDrum":true},{"pitch":36,"velocity":128,"startTime":102.41371799999975,"endTime":102.58613166666642,"instrument":7,"program":118,"isDrum":true},{"pitch":57,"velocity":128,"startTime":102.41371799999975,"endTime":102.58613166666642,"instrument":7,"program":118,"isDrum":true},{"pitch":38,"velocity":128,"startTime":102.93095899999975,"endTime":103.10337266666642,"instrument":7,"program":118,"isDrum":true},{"pitch":38,"velocity":128,"startTime":103.18957949999974,"endTime":103.36199316666641,"instrument":7,"program":118,"isDrum":true},{"pitch":36,"velocity":128,"startTime":103.18957949999974,"endTime":103.36199316666641,"instrument":7,"program":118,"isDrum":true},{"pitch":36,"velocity":128,"startTime":103.44819999999974,"endTime":103.6206136666664,"instrument":7,"program":118,"isDrum":true},{"pitch":38,"velocity":128,"startTime":103.44819999999974,"endTime":103.6206136666664,"instrument":7,"program":118,"isDrum":true},{"pitch":57,"velocity":128,"startTime":103.44819999999974,"endTime":103.6206136666664,"instrument":7,"program":118,"isDrum":true},{"pitch":57,"velocity":128,"startTime":103.96544099999974,"endTime":104.05164783333306,"instrument":7,"program":118,"isDrum":true},{"pitch":38,"velocity":128,"startTime":103.96544099999974,"endTime":104.05164783333306,"instrument":7,"program":118,"isDrum":true},{"pitch":36,"velocity":128,"startTime":103.96544099999974,"endTime":104.05164783333306,"instrument":7,"program":118,"isDrum":true},{"pitch":36,"velocity":128,"startTime":104.09475124999973,"endTime":104.18095808333305,"instrument":7,"program":118,"isDrum":true},{"pitch":36,"velocity":128,"startTime":104.22406149999972,"endTime":104.31026833333304,"instrument":7,"program":118,"isDrum":true},{"pitch":36,"velocity":128,"startTime":104.48268199999971,"endTime":104.56888883333305,"instrument":7,"program":118,"isDrum":true},{"pitch":38,"velocity":128,"startTime":104.48268199999971,"endTime":104.56888883333305,"instrument":7,"program":118,"isDrum":true},{"pitch":57,"velocity":128,"startTime":104.48268199999971,"endTime":104.56888883333305,"instrument":7,"program":118,"isDrum":true},{"pitch":36,"velocity":128,"startTime":104.6119922499997,"endTime":104.69819908333304,"instrument":7,"program":118,"isDrum":true},{"pitch":36,"velocity":128,"startTime":104.74130249999969,"endTime":104.82750933333303,"instrument":7,"program":118,"isDrum":true},{"pitch":57,"velocity":128,"startTime":104.99992299999968,"endTime":105.17233666666635,"instrument":7,"program":118,"isDrum":true},{"pitch":38,"velocity":128,"startTime":104.99992299999968,"endTime":105.17233666666635,"instrument":7,"program":118,"isDrum":true},{"pitch":36,"velocity":128,"startTime":104.99992299999968,"endTime":105.17233666666635,"instrument":7,"program":118,"isDrum":true},{"pitch":38,"velocity":128,"startTime":105.5171639999997,"endTime":105.60337083333302,"instrument":7,"program":118,"isDrum":true},{"pitch":36,"velocity":128,"startTime":105.5171639999997,"endTime":105.60337083333302,"instrument":7,"program":118,"isDrum":true},{"pitch":57,"velocity":128,"startTime":105.5171639999997,"endTime":105.60337083333302,"instrument":7,"program":118,"isDrum":true},{"pitch":36,"velocity":128,"startTime":106.03440499999968,"endTime":106.12061183333302,"instrument":7,"program":118,"isDrum":true},{"pitch":38,"velocity":128,"startTime":106.03440499999968,"endTime":106.12061183333302,"instrument":7,"program":118,"isDrum":true},{"pitch":57,"velocity":128,"startTime":106.03440499999968,"endTime":106.12061183333302,"instrument":7,"program":118,"isDrum":true},{"pitch":36,"velocity":128,"startTime":106.16371524999967,"endTime":106.249922083333,"instrument":7,"program":118,"isDrum":true},{"pitch":36,"velocity":128,"startTime":106.29302549999966,"endTime":106.379232333333,"instrument":7,"program":118,"isDrum":true},{"pitch":38,"velocity":128,"startTime":106.55164599999965,"endTime":106.63785283333299,"instrument":7,"program":118,"isDrum":true},{"pitch":36,"velocity":128,"startTime":106.55164599999965,"endTime":106.63785283333299,"instrument":7,"program":118,"isDrum":true},{"pitch":57,"velocity":128,"startTime":106.55164599999965,"endTime":106.63785283333299,"instrument":7,"program":118,"isDrum":true},{"pitch":36,"velocity":128,"startTime":106.68095624999965,"endTime":106.76716308333297,"instrument":7,"program":118,"isDrum":true},{"pitch":36,"velocity":128,"startTime":106.81026649999964,"endTime":106.89647333333296,"instrument":7,"program":118,"isDrum":true},{"pitch":36,"velocity":128,"startTime":107.06888699999963,"endTime":107.15509383333296,"instrument":7,"program":118,"isDrum":true},{"pitch":38,"velocity":128,"startTime":107.06888699999963,"endTime":107.15509383333296,"instrument":7,"program":118,"isDrum":true},{"pitch":57,"velocity":128,"startTime":107.06888699999963,"endTime":107.15509383333296,"instrument":7,"program":118,"isDrum":true},{"pitch":36,"velocity":128,"startTime":107.19819724999962,"endTime":107.28440408333294,"instrument":7,"program":118,"isDrum":true},{"pitch":36,"velocity":128,"startTime":107.32750749999961,"endTime":107.41371433333293,"instrument":7,"program":118,"isDrum":true},{"pitch":36,"velocity":128,"startTime":107.5861279999996,"endTime":107.75854166666628,"instrument":7,"program":118,"isDrum":true},{"pitch":38,"velocity":128,"startTime":107.5861279999996,"endTime":107.75854166666628,"instrument":7,"program":118,"isDrum":true},{"pitch":57,"velocity":128,"startTime":107.5861279999996,"endTime":107.75854166666628,"instrument":7,"program":118,"isDrum":true},{"pitch":38,"velocity":128,"startTime":108.1033689999996,"endTime":108.27578266666627,"instrument":7,"program":118,"isDrum":true},{"pitch":36,"velocity":128,"startTime":108.36198949999961,"endTime":108.53440316666627,"instrument":7,"program":118,"isDrum":true},{"pitch":38,"velocity":128,"startTime":108.36198949999961,"endTime":108.53440316666627,"instrument":7,"program":118,"isDrum":true},{"pitch":38,"velocity":128,"startTime":108.6206099999996,"endTime":108.79302366666627,"instrument":7,"program":118,"isDrum":true},{"pitch":36,"velocity":128,"startTime":108.6206099999996,"endTime":108.79302366666627,"instrument":7,"program":118,"isDrum":true},{"pitch":57,"velocity":128,"startTime":108.6206099999996,"endTime":108.79302366666627,"instrument":7,"program":118,"isDrum":true},{"pitch":38,"velocity":128,"startTime":109.1378509999996,"endTime":109.31026466666627,"instrument":7,"program":118,"isDrum":true},{"pitch":38,"velocity":128,"startTime":109.39647149999959,"endTime":109.56888516666626,"instrument":7,"program":118,"isDrum":true},{"pitch":36,"velocity":128,"startTime":109.39647149999959,"endTime":109.56888516666626,"instrument":7,"program":118,"isDrum":true},{"pitch":36,"velocity":128,"startTime":109.6550919999996,"endTime":109.82750566666626,"instrument":7,"program":118,"isDrum":true},{"pitch":38,"velocity":128,"startTime":109.6550919999996,"endTime":109.82750566666626,"instrument":7,"program":118,"isDrum":true},{"pitch":57,"velocity":128,"startTime":109.6550919999996,"endTime":109.82750566666626,"instrument":7,"program":118,"isDrum":true},{"pitch":38,"velocity":128,"startTime":110.1723329999996,"endTime":110.34474666666627,"instrument":7,"program":118,"isDrum":true},{"pitch":36,"velocity":128,"startTime":110.43095349999959,"endTime":110.60336716666626,"instrument":7,"program":118,"isDrum":true},{"pitch":38,"velocity":128,"startTime":110.43095349999959,"endTime":110.60336716666626,"instrument":7,"program":118,"isDrum":true},{"pitch":38,"velocity":128,"startTime":110.68957399999958,"endTime":110.86198766666625,"instrument":7,"program":118,"isDrum":true},{"pitch":36,"velocity":128,"startTime":110.68957399999958,"endTime":110.86198766666625,"instrument":7,"program":118,"isDrum":true},{"pitch":57,"velocity":128,"startTime":110.68957399999958,"endTime":110.86198766666625,"instrument":7,"program":118,"isDrum":true},{"pitch":38,"velocity":128,"startTime":111.2068149999996,"endTime":111.37922866666626,"instrument":7,"program":118,"isDrum":true},{"pitch":38,"velocity":128,"startTime":111.46543549999959,"endTime":111.63784916666626,"instrument":7,"program":118,"isDrum":true},{"pitch":36,"velocity":128,"startTime":111.46543549999959,"endTime":111.63784916666626,"instrument":7,"program":118,"isDrum":true},{"pitch":36,"velocity":128,"startTime":111.72405599999958,"endTime":111.89646966666625,"instrument":7,"program":118,"isDrum":true},{"pitch":38,"velocity":128,"startTime":111.72405599999958,"endTime":111.89646966666625,"instrument":7,"program":118,"isDrum":true},{"pitch":57,"velocity":128,"startTime":111.72405599999958,"endTime":111.89646966666625,"instrument":7,"program":118,"isDrum":true},{"pitch":57,"velocity":128,"startTime":112.24129699999959,"endTime":112.32750383333291,"instrument":7,"program":118,"isDrum":true},{"pitch":38,"velocity":128,"startTime":112.24129699999959,"endTime":112.32750383333291,"instrument":7,"program":118,"isDrum":true},{"pitch":36,"velocity":128,"startTime":112.24129699999959,"endTime":112.32750383333291,"instrument":7,"program":118,"isDrum":true},{"pitch":36,"velocity":128,"startTime":112.37060724999958,"endTime":112.4568140833329,"instrument":7,"program":118,"isDrum":true},{"pitch":36,"velocity":128,"startTime":112.49991749999957,"endTime":112.58612433333289,"instrument":7,"program":118,"isDrum":true},{"pitch":36,"velocity":128,"startTime":112.75853799999956,"endTime":112.84474483333288,"instrument":7,"program":118,"isDrum":true},{"pitch":38,"velocity":128,"startTime":112.75853799999956,"endTime":112.84474483333288,"instrument":7,"program":118,"isDrum":true},{"pitch":57,"velocity":128,"startTime":112.75853799999956,"endTime":112.84474483333288,"instrument":7,"program":118,"isDrum":true},{"pitch":36,"velocity":128,"startTime":112.88784824999955,"endTime":112.97405508333287,"instrument":7,"program":118,"isDrum":true},{"pitch":36,"velocity":128,"startTime":113.01715849999954,"endTime":113.10336533333286,"instrument":7,"program":118,"isDrum":true},{"pitch":57,"velocity":128,"startTime":113.27577899999953,"endTime":113.4481926666662,"instrument":7,"program":118,"isDrum":true},{"pitch":38,"velocity":128,"startTime":113.27577899999953,"endTime":113.4481926666662,"instrument":7,"program":118,"isDrum":true},{"pitch":36,"velocity":128,"startTime":113.27577899999953,"endTime":113.4481926666662,"instrument":7,"program":118,"isDrum":true},{"pitch":38,"velocity":128,"startTime":113.79301999999953,"endTime":113.87922683333286,"instrument":7,"program":118,"isDrum":true},{"pitch":36,"velocity":128,"startTime":113.79301999999953,"endTime":113.87922683333286,"instrument":7,"program":118,"isDrum":true},{"pitch":57,"velocity":128,"startTime":113.79301999999953,"endTime":113.87922683333286,"instrument":7,"program":118,"isDrum":true},{"pitch":36,"velocity":128,"startTime":114.31026099999953,"endTime":114.39646783333285,"instrument":7,"program":118,"isDrum":true},{"pitch":38,"velocity":128,"startTime":114.31026099999953,"endTime":114.39646783333285,"instrument":7,"program":118,"isDrum":true},{"pitch":57,"velocity":128,"startTime":114.31026099999953,"endTime":114.39646783333285,"instrument":7,"program":118,"isDrum":true},{"pitch":36,"velocity":128,"startTime":114.43957124999952,"endTime":114.52577808333284,"instrument":7,"program":118,"isDrum":true},{"pitch":36,"velocity":128,"startTime":114.5688814999995,"endTime":114.65508833333283,"instrument":7,"program":118,"isDrum":true},{"pitch":38,"velocity":128,"startTime":114.8275019999995,"endTime":114.91370883333282,"instrument":7,"program":118,"isDrum":true},{"pitch":36,"velocity":128,"startTime":114.8275019999995,"endTime":114.91370883333282,"instrument":7,"program":118,"isDrum":true},{"pitch":57,"velocity":128,"startTime":114.8275019999995,"endTime":114.91370883333282,"instrument":7,"program":118,"isDrum":true},{"pitch":36,"velocity":128,"startTime":114.95681224999949,"endTime":115.04301908333281,"instrument":7,"program":118,"isDrum":true},{"pitch":36,"velocity":128,"startTime":115.08612249999948,"endTime":115.1723293333328,"instrument":7,"program":118,"isDrum":true},{"pitch":36,"velocity":128,"startTime":115.34474299999947,"endTime":115.4309498333328,"instrument":7,"program":118,"isDrum":true},{"pitch":38,"velocity":128,"startTime":115.34474299999947,"endTime":115.4309498333328,"instrument":7,"program":118,"isDrum":true},{"pitch":57,"velocity":128,"startTime":115.34474299999947,"endTime":115.4309498333328,"instrument":7,"program":118,"isDrum":true},{"pitch":36,"velocity":128,"startTime":115.47405324999946,"endTime":115.56026008333279,"instrument":7,"program":118,"isDrum":true},{"pitch":36,"velocity":128,"startTime":115.60336349999945,"endTime":115.68957033333278,"instrument":7,"program":118,"isDrum":true},{"pitch":36,"velocity":128,"startTime":115.86198399999944,"endTime":116.03439766666611,"instrument":7,"program":118,"isDrum":true},{"pitch":57,"velocity":128,"startTime":115.86198399999944,"endTime":116.03439766666611,"instrument":7,"program":118,"isDrum":true},{"pitch":38,"velocity":128,"startTime":116.37922499999945,"endTime":116.55163866666612,"instrument":7,"program":118,"isDrum":true},{"pitch":57,"velocity":128,"startTime":116.37922499999945,"endTime":116.55163866666612,"instrument":7,"program":118,"isDrum":true},{"pitch":57,"velocity":128,"startTime":116.63784549999944,"endTime":116.8102591666661,"instrument":7,"program":118,"isDrum":true},{"pitch":38,"velocity":128,"startTime":116.63784549999944,"endTime":116.72405233333276,"instrument":7,"program":118,"isDrum":true},{"pitch":38,"velocity":128,"startTime":116.76715574999943,"endTime":116.85336258333275,"instrument":7,"program":118,"isDrum":true},{"pitch":36,"velocity":128,"startTime":116.89646599999942,"endTime":117.06887966666609,"instrument":7,"program":118,"isDrum":true},{"pitch":57,"velocity":128,"startTime":116.89646599999942,"endTime":117.06887966666609,"instrument":7,"program":118,"isDrum":true},{"pitch":38,"velocity":128,"startTime":117.41370699999943,"endTime":117.58612066666609,"instrument":7,"program":118,"isDrum":true},{"pitch":57,"velocity":128,"startTime":117.41370699999943,"endTime":117.58612066666609,"instrument":7,"program":118,"isDrum":true},{"pitch":36,"velocity":128,"startTime":117.93094799999943,"endTime":118.1033616666661,"instrument":7,"program":118,"isDrum":true},{"pitch":38,"velocity":128,"startTime":118.44818899999945,"endTime":118.6206026666661,"instrument":7,"program":118,"isDrum":true},{"pitch":57,"velocity":128,"startTime":118.44818899999945,"endTime":118.6206026666661,"instrument":7,"program":118,"isDrum":true},{"pitch":38,"velocity":128,"startTime":118.70680949999944,"endTime":118.87922316666611,"instrument":7,"program":118,"isDrum":true},{"pitch":36,"velocity":128,"startTime":118.96542999999943,"endTime":119.13784366666609,"instrument":7,"program":118,"isDrum":true},{"pitch":38,"velocity":128,"startTime":118.96542999999943,"endTime":119.05163683333275,"instrument":7,"program":118,"isDrum":true},{"pitch":38,"velocity":128,"startTime":119.22405049999941,"endTime":119.31025733333273,"instrument":7,"program":118,"isDrum":true},{"pitch":40,"velocity":128,"startTime":119.3533607499994,"endTime":119.43956758333272,"instrument":7,"program":118,"isDrum":true},{"pitch":38,"velocity":128,"startTime":119.48267099999939,"endTime":119.65508466666606,"instrument":7,"program":118,"isDrum":true},{"pitch":57,"velocity":128,"startTime":119.48267099999939,"endTime":119.65508466666606,"instrument":7,"program":118,"isDrum":true},{"pitch":38,"velocity":128,"startTime":119.74129149999938,"endTime":119.82749833333271,"instrument":7,"program":118,"isDrum":true},{"pitch":38,"velocity":128,"startTime":119.87060174999937,"endTime":119.9568085833327,"instrument":7,"program":118,"isDrum":true},{"pitch":36,"velocity":128,"startTime":119.99991199999936,"endTime":120.17232566666603,"instrument":7,"program":118,"isDrum":true},{"pitch":57,"velocity":128,"startTime":119.99991199999936,"endTime":120.17232566666603,"instrument":7,"program":118,"isDrum":true},{"pitch":38,"velocity":128,"startTime":120.51715299999937,"endTime":120.68956666666602,"instrument":7,"program":118,"isDrum":true},{"pitch":57,"velocity":128,"startTime":120.51715299999937,"endTime":120.68956666666602,"instrument":7,"program":118,"isDrum":true},{"pitch":57,"velocity":128,"startTime":120.77577349999936,"endTime":120.94818716666602,"instrument":7,"program":118,"isDrum":true},{"pitch":38,"velocity":128,"startTime":120.77577349999936,"endTime":120.86198033333268,"instrument":7,"program":118,"isDrum":true},{"pitch":38,"velocity":128,"startTime":120.90508374999935,"endTime":120.99129058333267,"instrument":7,"program":118,"isDrum":true},{"pitch":36,"velocity":128,"startTime":121.03439399999934,"endTime":121.20680766666601,"instrument":7,"program":118,"isDrum":true},{"pitch":57,"velocity":128,"startTime":121.03439399999934,"endTime":121.20680766666601,"instrument":7,"program":118,"isDrum":true},{"pitch":57,"velocity":128,"startTime":121.29301449999933,"endTime":121.465428166666,"instrument":7,"program":118,"isDrum":true},{"pitch":38,"velocity":128,"startTime":121.55163499999932,"endTime":121.724048666666,"instrument":7,"program":118,"isDrum":true},{"pitch":57,"velocity":128,"startTime":121.55163499999932,"endTime":121.724048666666,"instrument":7,"program":118,"isDrum":true},{"pitch":57,"velocity":128,"startTime":121.81025549999931,"endTime":121.98266916666599,"instrument":7,"program":118,"isDrum":true},{"pitch":36,"velocity":128,"startTime":122.06887599999932,"endTime":122.24128966666598,"instrument":7,"program":118,"isDrum":true},{"pitch":57,"velocity":128,"startTime":122.06887599999932,"endTime":122.24128966666598,"instrument":7,"program":118,"isDrum":true},{"pitch":38,"velocity":128,"startTime":122.58611699999932,"endTime":122.75853066666599,"instrument":7,"program":118,"isDrum":true},{"pitch":57,"velocity":128,"startTime":122.58611699999932,"endTime":122.75853066666599,"instrument":7,"program":118,"isDrum":true},{"pitch":38,"velocity":128,"startTime":122.84473749999931,"endTime":123.01715116666598,"instrument":7,"program":118,"isDrum":true},{"pitch":57,"velocity":128,"startTime":122.84473749999931,"endTime":123.01715116666598,"instrument":7,"program":118,"isDrum":true},{"pitch":36,"velocity":128,"startTime":123.1033579999993,"endTime":123.27577166666596,"instrument":7,"program":118,"isDrum":true},{"pitch":38,"velocity":128,"startTime":123.1033579999993,"endTime":123.18956483333264,"instrument":7,"program":118,"isDrum":true},{"pitch":57,"velocity":128,"startTime":123.1033579999993,"endTime":123.27577166666596,"instrument":7,"program":118,"isDrum":true},{"pitch":38,"velocity":128,"startTime":123.36197849999928,"endTime":123.44818533333262,"instrument":7,"program":118,"isDrum":true},{"pitch":57,"velocity":128,"startTime":123.36197849999928,"endTime":123.53439216666594,"instrument":7,"program":118,"isDrum":true},{"pitch":40,"velocity":128,"startTime":123.49128874999927,"endTime":123.5774955833326,"instrument":7,"program":118,"isDrum":true},{"pitch":38,"velocity":128,"startTime":123.62059899999926,"endTime":123.79301266666593,"instrument":7,"program":118,"isDrum":true},{"pitch":57,"velocity":128,"startTime":123.62059899999926,"endTime":123.79301266666593,"instrument":7,"program":118,"isDrum":true},{"pitch":38,"velocity":128,"startTime":123.87921949999927,"endTime":123.96542633333259,"instrument":7,"program":118,"isDrum":true},{"pitch":57,"velocity":128,"startTime":123.87921949999927,"endTime":124.05163316666591,"instrument":7,"program":118,"isDrum":true},{"pitch":38,"velocity":128,"startTime":124.00852974999925,"endTime":124.09473658333258,"instrument":7,"program":118,"isDrum":true},{"pitch":36,"velocity":128,"startTime":124.13783999999924,"endTime":124.31025366666591,"instrument":7,"program":118,"isDrum":true},{"pitch":57,"velocity":128,"startTime":124.13783999999924,"endTime":124.31025366666591,"instrument":7,"program":118,"isDrum":true},{"pitch":38,"velocity":128,"startTime":124.65508099999924,"endTime":124.82749466666591,"instrument":7,"program":118,"isDrum":true},{"pitch":57,"velocity":128,"startTime":124.65508099999924,"endTime":124.82749466666591,"instrument":7,"program":118,"isDrum":true},{"pitch":57,"velocity":128,"startTime":124.91370149999923,"endTime":125.08611516666589,"instrument":7,"program":118,"isDrum":true},{"pitch":38,"velocity":128,"startTime":124.91370149999923,"endTime":124.99990833333257,"instrument":7,"program":118,"isDrum":true},{"pitch":38,"velocity":128,"startTime":125.04301174999922,"endTime":125.12921858333256,"instrument":7,"program":118,"isDrum":true},{"pitch":36,"velocity":128,"startTime":125.17232199999921,"endTime":125.34473566666588,"instrument":7,"program":118,"isDrum":true},{"pitch":57,"velocity":128,"startTime":125.17232199999921,"endTime":125.34473566666588,"instrument":7,"program":118,"isDrum":true},{"pitch":38,"velocity":128,"startTime":125.68956299999923,"endTime":125.8619766666659,"instrument":7,"program":118,"isDrum":true},{"pitch":57,"velocity":128,"startTime":125.68956299999923,"endTime":125.8619766666659,"instrument":7,"program":118,"isDrum":true},{"pitch":36,"velocity":128,"startTime":126.20680399999922,"endTime":126.3792176666659,"instrument":7,"program":118,"isDrum":true},{"pitch":57,"velocity":128,"startTime":126.20680399999922,"endTime":126.3792176666659,"instrument":7,"program":118,"isDrum":true},{"pitch":38,"velocity":128,"startTime":126.72404499999924,"endTime":126.89645866666591,"instrument":7,"program":118,"isDrum":true},{"pitch":57,"velocity":128,"startTime":126.72404499999924,"endTime":126.89645866666591,"instrument":7,"program":118,"isDrum":true},{"pitch":38,"velocity":128,"startTime":126.98266549999923,"endTime":127.1550791666659,"instrument":7,"program":118,"isDrum":true},{"pitch":57,"velocity":128,"startTime":126.98266549999923,"endTime":127.1550791666659,"instrument":7,"program":118,"isDrum":true},{"pitch":36,"velocity":128,"startTime":127.24128599999922,"endTime":127.41369966666588,"instrument":7,"program":118,"isDrum":true},{"pitch":38,"velocity":128,"startTime":127.24128599999922,"endTime":127.32749283333254,"instrument":7,"program":118,"isDrum":true},{"pitch":57,"velocity":128,"startTime":127.24128599999922,"endTime":127.41369966666588,"instrument":7,"program":118,"isDrum":true},{"pitch":38,"velocity":128,"startTime":127.4999064999992,"endTime":127.58611333333252,"instrument":7,"program":118,"isDrum":true},{"pitch":57,"velocity":128,"startTime":127.4999064999992,"endTime":127.67232016666586,"instrument":7,"program":118,"isDrum":true},{"pitch":40,"velocity":128,"startTime":127.62921674999919,"endTime":127.71542358333252,"instrument":7,"program":118,"isDrum":true},{"pitch":38,"velocity":128,"startTime":127.75852699999918,"endTime":127.93094066666585,"instrument":7,"program":118,"isDrum":true},{"pitch":57,"velocity":128,"startTime":127.75852699999918,"endTime":127.93094066666585,"instrument":7,"program":118,"isDrum":true},{"pitch":38,"velocity":128,"startTime":128.01714749999917,"endTime":128.1033543333325,"instrument":7,"program":118,"isDrum":true},{"pitch":57,"velocity":128,"startTime":128.01714749999917,"endTime":128.18956116666584,"instrument":7,"program":118,"isDrum":true},{"pitch":38,"velocity":128,"startTime":128.14645774999917,"endTime":128.23266458333248,"instrument":7,"program":118,"isDrum":true},{"pitch":36,"velocity":128,"startTime":128.27576799999915,"endTime":128.44818166666582,"instrument":7,"program":118,"isDrum":true},{"pitch":57,"velocity":128,"startTime":128.27576799999915,"endTime":128.44818166666582,"instrument":7,"program":118,"isDrum":true},{"pitch":38,"velocity":128,"startTime":128.79300899999916,"endTime":128.96542266666583,"instrument":7,"program":118,"isDrum":true},{"pitch":57,"velocity":128,"startTime":128.79300899999916,"endTime":128.96542266666583,"instrument":7,"program":118,"isDrum":true},{"pitch":57,"velocity":128,"startTime":129.05162949999917,"endTime":129.2240431666658,"instrument":7,"program":118,"isDrum":true},{"pitch":38,"velocity":128,"startTime":129.05162949999917,"endTime":129.13783633333247,"instrument":7,"program":118,"isDrum":true},{"pitch":38,"velocity":128,"startTime":129.18093974999914,"endTime":129.26714658333248,"instrument":7,"program":118,"isDrum":true},{"pitch":36,"velocity":128,"startTime":129.31024999999914,"endTime":129.4826636666658,"instrument":7,"program":118,"isDrum":true},{"pitch":57,"velocity":128,"startTime":129.31024999999914,"endTime":129.4826636666658,"instrument":7,"program":118,"isDrum":true},{"pitch":38,"velocity":128,"startTime":129.82749099999913,"endTime":129.9999046666658,"instrument":7,"program":118,"isDrum":true},{"pitch":57,"velocity":128,"startTime":129.82749099999913,"endTime":129.9999046666658,"instrument":7,"program":118,"isDrum":true},{"pitch":36,"velocity":128,"startTime":130.34473199999914,"endTime":130.5171456666658,"instrument":7,"program":118,"isDrum":true},{"pitch":38,"velocity":128,"startTime":130.86197299999915,"endTime":131.03438666666582,"instrument":7,"program":118,"isDrum":true},{"pitch":57,"velocity":128,"startTime":130.86197299999915,"endTime":131.03438666666582,"instrument":7,"program":118,"isDrum":true},{"pitch":38,"velocity":128,"startTime":131.12059349999913,"endTime":131.2930071666658,"instrument":7,"program":118,"isDrum":true},{"pitch":36,"velocity":128,"startTime":131.37921399999914,"endTime":131.55162766666578,"instrument":7,"program":118,"isDrum":true},{"pitch":38,"velocity":128,"startTime":131.37921399999914,"endTime":131.46542083333247,"instrument":7,"program":118,"isDrum":true},{"pitch":38,"velocity":128,"startTime":131.63783449999912,"endTime":131.72404133333245,"instrument":7,"program":118,"isDrum":true},{"pitch":40,"velocity":128,"startTime":131.7671447499991,"endTime":131.85335158333243,"instrument":7,"program":118,"isDrum":true},{"pitch":38,"velocity":128,"startTime":131.8964549999991,"endTime":132.06886866666576,"instrument":7,"program":118,"isDrum":true},{"pitch":57,"velocity":128,"startTime":131.8964549999991,"endTime":132.06886866666576,"instrument":7,"program":118,"isDrum":true},{"pitch":38,"velocity":128,"startTime":132.1550754999991,"endTime":132.2412823333324,"instrument":7,"program":118,"isDrum":true},{"pitch":38,"velocity":128,"startTime":132.28438574999907,"endTime":132.3705925833324,"instrument":7,"program":118,"isDrum":true},{"pitch":57,"velocity":128,"startTime":132.41369599999908,"endTime":132.58610966666572,"instrument":7,"program":118,"isDrum":true},{"pitch":35,"velocity":128,"startTime":132.41369599999908,"endTime":132.58610966666572,"instrument":7,"program":118,"isDrum":true},{"pitch":57,"velocity":128,"startTime":132.67231649999906,"endTime":132.84473016666573,"instrument":7,"program":118,"isDrum":true},{"pitch":35,"velocity":128,"startTime":132.67231649999906,"endTime":132.84473016666573,"instrument":7,"program":118,"isDrum":true},{"pitch":57,"velocity":128,"startTime":132.93093699999906,"endTime":133.1033506666657,"instrument":7,"program":118,"isDrum":true},{"pitch":35,"velocity":128,"startTime":132.93093699999906,"endTime":133.1033506666657,"instrument":7,"program":118,"isDrum":true},{"pitch":38,"velocity":128,"startTime":132.93093699999906,"endTime":133.01714383333237,"instrument":7,"program":118,"isDrum":true},{"pitch":57,"velocity":128,"startTime":133.18955749999904,"endTime":133.27576433333235,"instrument":7,"program":118,"isDrum":true},{"pitch":35,"velocity":128,"startTime":133.18955749999904,"endTime":133.27576433333235,"instrument":7,"program":118,"isDrum":true},{"pitch":38,"velocity":128,"startTime":133.18955749999904,"endTime":133.27576433333235,"instrument":7,"program":118,"isDrum":true},{"pitch":57,"velocity":128,"startTime":133.31886774999901,"endTime":133.40507458333235,"instrument":7,"program":118,"isDrum":true},{"pitch":35,"velocity":128,"startTime":133.31886774999901,"endTime":133.40507458333235,"instrument":7,"program":118,"isDrum":true},{"pitch":38,"velocity":128,"startTime":133.31886774999901,"endTime":133.40507458333235,"instrument":7,"program":118,"isDrum":true},{"pitch":57,"velocity":128,"startTime":133.44817799999902,"endTime":133.62059166666566,"instrument":7,"program":118,"isDrum":true},{"pitch":35,"velocity":128,"startTime":133.44817799999902,"endTime":133.62059166666566,"instrument":7,"program":118,"isDrum":true},{"pitch":38,"velocity":128,"startTime":133.44817799999902,"endTime":133.53438483333233,"instrument":7,"program":118,"isDrum":true},{"pitch":57,"velocity":128,"startTime":133.706798499999,"endTime":133.7930053333323,"instrument":7,"program":118,"isDrum":true},{"pitch":35,"velocity":128,"startTime":133.706798499999,"endTime":133.7930053333323,"instrument":7,"program":118,"isDrum":true},{"pitch":38,"velocity":128,"startTime":133.706798499999,"endTime":133.7930053333323,"instrument":7,"program":118,"isDrum":true},{"pitch":57,"velocity":128,"startTime":133.83610874999897,"endTime":133.9223155833323,"instrument":7,"program":118,"isDrum":true},{"pitch":57,"velocity":128,"startTime":133.83610874999897,"endTime":134.00852241666564,"instrument":7,"program":118,"isDrum":true},{"pitch":35,"velocity":128,"startTime":133.83610874999897,"endTime":133.9223155833323,"instrument":7,"program":118,"isDrum":true},{"pitch":38,"velocity":128,"startTime":133.83610874999897,"endTime":133.9223155833323,"instrument":7,"program":118,"isDrum":true},{"pitch":57,"velocity":128,"startTime":133.96541899999897,"endTime":134.13783266666562,"instrument":7,"program":118,"isDrum":true},{"pitch":35,"velocity":128,"startTime":133.96541899999897,"endTime":134.13783266666562,"instrument":7,"program":118,"isDrum":true},{"pitch":38,"velocity":128,"startTime":133.96541899999897,"endTime":134.0516258333323,"instrument":7,"program":118,"isDrum":true},{"pitch":57,"velocity":128,"startTime":134.48265999999896,"endTime":134.65507366666563,"instrument":7,"program":118,"isDrum":true},{"pitch":35,"velocity":128,"startTime":134.48265999999896,"endTime":134.65507366666563,"instrument":7,"program":118,"isDrum":true},{"pitch":57,"velocity":128,"startTime":134.74128049999896,"endTime":134.91369416666564,"instrument":7,"program":118,"isDrum":true},{"pitch":35,"velocity":128,"startTime":134.74128049999896,"endTime":134.91369416666564,"instrument":7,"program":118,"isDrum":true},{"pitch":57,"velocity":128,"startTime":134.99990099999894,"endTime":135.1723146666656,"instrument":7,"program":118,"isDrum":true},{"pitch":35,"velocity":128,"startTime":134.99990099999894,"endTime":135.1723146666656,"instrument":7,"program":118,"isDrum":true},{"pitch":38,"velocity":128,"startTime":134.99990099999894,"endTime":135.08610783333228,"instrument":7,"program":118,"isDrum":true},{"pitch":57,"velocity":128,"startTime":135.25852149999892,"endTime":135.34472833333226,"instrument":7,"program":118,"isDrum":true},{"pitch":35,"velocity":128,"startTime":135.25852149999892,"endTime":135.34472833333226,"instrument":7,"program":118,"isDrum":true},{"pitch":38,"velocity":128,"startTime":135.25852149999892,"endTime":135.34472833333226,"instrument":7,"program":118,"isDrum":true},{"pitch":57,"velocity":128,"startTime":135.38783174999892,"endTime":135.47403858333223,"instrument":7,"program":118,"isDrum":true},{"pitch":35,"velocity":128,"startTime":135.38783174999892,"endTime":135.47403858333223,"instrument":7,"program":118,"isDrum":true},{"pitch":38,"velocity":128,"startTime":135.38783174999892,"endTime":135.47403858333223,"instrument":7,"program":118,"isDrum":true},{"pitch":57,"velocity":128,"startTime":135.5171419999989,"endTime":135.68955566666557,"instrument":7,"program":118,"isDrum":true},{"pitch":35,"velocity":128,"startTime":135.5171419999989,"endTime":135.68955566666557,"instrument":7,"program":118,"isDrum":true},{"pitch":38,"velocity":128,"startTime":135.5171419999989,"endTime":135.60334883333223,"instrument":7,"program":118,"isDrum":true},{"pitch":57,"velocity":128,"startTime":135.77576249999888,"endTime":135.8619693333322,"instrument":7,"program":118,"isDrum":true},{"pitch":35,"velocity":128,"startTime":135.77576249999888,"endTime":135.8619693333322,"instrument":7,"program":118,"isDrum":true},{"pitch":38,"velocity":128,"startTime":135.77576249999888,"endTime":135.8619693333322,"instrument":7,"program":118,"isDrum":true},{"pitch":57,"velocity":128,"startTime":135.90507274999888,"endTime":135.9912795833322,"instrument":7,"program":118,"isDrum":true},{"pitch":57,"velocity":128,"startTime":135.90507274999888,"endTime":136.07748641666552,"instrument":7,"program":118,"isDrum":true},{"pitch":35,"velocity":128,"startTime":135.90507274999888,"endTime":135.9912795833322,"instrument":7,"program":118,"isDrum":true},{"pitch":38,"velocity":128,"startTime":135.90507274999888,"endTime":135.9912795833322,"instrument":7,"program":118,"isDrum":true},{"pitch":57,"velocity":128,"startTime":136.03438299999885,"endTime":136.20679666666553,"instrument":7,"program":118,"isDrum":true},{"pitch":35,"velocity":128,"startTime":136.03438299999885,"endTime":136.20679666666553,"instrument":7,"program":118,"isDrum":true},{"pitch":38,"velocity":128,"startTime":136.03438299999885,"endTime":136.1205898333322,"instrument":7,"program":118,"isDrum":true},{"pitch":57,"velocity":128,"startTime":136.29300349999883,"endTime":136.4654171666655,"instrument":7,"program":118,"isDrum":true},{"pitch":38,"velocity":128,"startTime":136.29300349999883,"endTime":136.4654171666655,"instrument":7,"program":118,"isDrum":true},{"pitch":35,"velocity":128,"startTime":136.29300349999883,"endTime":136.4654171666655,"instrument":7,"program":118,"isDrum":true},{"pitch":57,"velocity":128,"startTime":136.55162399999884,"endTime":136.7240376666655,"instrument":7,"program":118,"isDrum":true},{"pitch":38,"velocity":128,"startTime":136.55162399999884,"endTime":136.7240376666655,"instrument":7,"program":118,"isDrum":true},{"pitch":35,"velocity":128,"startTime":136.55162399999884,"endTime":136.7240376666655,"instrument":7,"program":118,"isDrum":true},{"pitch":35,"velocity":128,"startTime":138.23265724999885,"endTime":138.31886408333216,"instrument":7,"program":118,"isDrum":true},{"pitch":40,"velocity":128,"startTime":138.23265724999885,"endTime":138.31886408333216,"instrument":7,"program":118,"isDrum":true},{"pitch":38,"velocity":128,"startTime":138.23265724999885,"endTime":138.31886408333216,"instrument":7,"program":118,"isDrum":true},{"pitch":35,"velocity":128,"startTime":138.36196749999883,"endTime":138.44817433333216,"instrument":7,"program":118,"isDrum":true},{"pitch":38,"velocity":128,"startTime":138.36196749999883,"endTime":138.44817433333216,"instrument":7,"program":118,"isDrum":true},{"pitch":38,"velocity":128,"startTime":138.49127774999883,"endTime":138.57748458333214,"instrument":7,"program":118,"isDrum":true},{"pitch":57,"velocity":128,"startTime":138.49127774999883,"endTime":138.57748458333214,"instrument":7,"program":118,"isDrum":true},{"pitch":68,"velocity":128,"startTime":9.310338000000002,"endTime":9.827579,"instrument":8,"program":53},{"pitch":68,"velocity":128,"startTime":9.827579,"endTime":10.34482,"instrument":8,"program":53},{"pitch":66,"velocity":128,"startTime":10.34482,"endTime":10.6034405,"instrument":8,"program":53},{"pitch":68,"velocity":128,"startTime":10.6034405,"endTime":11.1206815,"instrument":8,"program":53},{"pitch":73,"velocity":128,"startTime":11.379302,"endTime":11.6379225,"instrument":8,"program":53},{"pitch":75,"velocity":128,"startTime":11.6379225,"endTime":12.155163499999999,"instrument":8,"program":53},{"pitch":76,"velocity":128,"startTime":12.155163499999999,"endTime":12.672404499999999,"instrument":8,"program":53},{"pitch":72,"velocity":128,"startTime":12.931024999999998,"endTime":13.103438666666666,"instrument":8,"program":53},{"pitch":72,"velocity":128,"startTime":13.1896455,"endTime":13.7068865,"instrument":8,"program":53},{"pitch":74,"velocity":128,"startTime":13.7068865,"endTime":14.224127499999998,"instrument":8,"program":53},{"pitch":71,"velocity":128,"startTime":14.224127499999998,"endTime":14.741368499999997,"instrument":8,"program":53},{"pitch":69,"velocity":128,"startTime":15.258609499999997,"endTime":15.775850499999995,"instrument":8,"program":53},{"pitch":71,"velocity":128,"startTime":15.775850499999995,"endTime":16.293091499999996,"instrument":8,"program":53},{"pitch":68,"velocity":128,"startTime":16.293091499999996,"endTime":16.810332499999994,"instrument":8,"program":53},{"pitch":68,"velocity":128,"startTime":17.586193999999995,"endTime":18.103434999999994,"instrument":8,"program":53},{"pitch":68,"velocity":128,"startTime":18.103434999999994,"endTime":18.620675999999996,"instrument":8,"program":53},{"pitch":66,"velocity":128,"startTime":18.620675999999996,"endTime":18.879296499999995,"instrument":8,"program":53},{"pitch":68,"velocity":128,"startTime":18.879296499999995,"endTime":19.396537499999994,"instrument":8,"program":53},{"pitch":73,"velocity":128,"startTime":19.655157999999993,"endTime":19.913778499999992,"instrument":8,"program":53},{"pitch":75,"velocity":128,"startTime":19.913778499999992,"endTime":20.431019499999994,"instrument":8,"program":53},{"pitch":76,"velocity":128,"startTime":20.431019499999994,"endTime":20.948260499999993,"instrument":8,"program":53},{"pitch":72,"velocity":128,"startTime":21.206880999999992,"endTime":21.37929466666666,"instrument":8,"program":53},{"pitch":72,"velocity":128,"startTime":21.465501499999995,"endTime":21.982742499999997,"instrument":8,"program":53},{"pitch":74,"velocity":128,"startTime":21.982742499999997,"endTime":22.499983499999995,"instrument":8,"program":53},{"pitch":71,"velocity":128,"startTime":22.499983499999995,"endTime":23.017224499999998,"instrument":8,"program":53},{"pitch":69,"velocity":128,"startTime":23.793086,"endTime":24.051706499999998,"instrument":8,"program":53},{"pitch":71,"velocity":128,"startTime":24.051706499999998,"endTime":24.310326999999994,"instrument":8,"program":53},{"pitch":68,"velocity":128,"startTime":24.568947499999993,"endTime":25.086188499999995,"instrument":8,"program":53},{"pitch":68,"velocity":128,"startTime":25.862049999999993,"endTime":26.379290999999995,"instrument":8,"program":53},{"pitch":68,"velocity":128,"startTime":26.379290999999995,"endTime":26.896531999999997,"instrument":8,"program":53},{"pitch":66,"velocity":128,"startTime":26.896531999999997,"endTime":27.155152499999996,"instrument":8,"program":53},{"pitch":68,"velocity":128,"startTime":27.155152499999996,"endTime":27.672393499999995,"instrument":8,"program":53},{"pitch":73,"velocity":128,"startTime":27.931013999999994,"endTime":28.189634499999993,"instrument":8,"program":53},{"pitch":75,"velocity":128,"startTime":28.189634499999993,"endTime":28.706875499999995,"instrument":8,"program":53},{"pitch":76,"velocity":128,"startTime":28.706875499999995,"endTime":28.96549599999999,"instrument":8,"program":53},{"pitch":72,"velocity":128,"startTime":29.482736999999993,"endTime":29.65515066666666,"instrument":8,"program":53},{"pitch":72,"velocity":128,"startTime":29.741357499999996,"endTime":30.258598499999998,"instrument":8,"program":53},{"pitch":74,"velocity":128,"startTime":30.258598499999998,"endTime":30.7758395,"instrument":8,"program":53},{"pitch":71,"velocity":128,"startTime":30.7758395,"endTime":31.2930805,"instrument":8,"program":53},{"pitch":69,"velocity":128,"startTime":32.068942,"endTime":32.3275625,"instrument":8,"program":53},{"pitch":71,"velocity":128,"startTime":32.3275625,"endTime":32.586183,"instrument":8,"program":53},{"pitch":68,"velocity":128,"startTime":32.8448035,"endTime":33.103424,"instrument":8,"program":53},{"pitch":68,"velocity":128,"startTime":34.137905999999994,"endTime":34.65514699999999,"instrument":8,"program":53},{"pitch":68,"velocity":128,"startTime":34.65514699999999,"endTime":35.17238799999999,"instrument":8,"program":53},{"pitch":66,"velocity":128,"startTime":35.17238799999999,"endTime":35.43100849999999,"instrument":8,"program":53},{"pitch":68,"velocity":128,"startTime":35.43100849999999,"endTime":35.948249499999996,"instrument":8,"program":53},{"pitch":73,"velocity":128,"startTime":36.206869999999995,"endTime":36.4654905,"instrument":8,"program":53},{"pitch":75,"velocity":128,"startTime":36.4654905,"endTime":36.98273149999999,"instrument":8,"program":53},{"pitch":76,"velocity":128,"startTime":36.98273149999999,"endTime":37.241352,"instrument":8,"program":53},{"pitch":72,"velocity":128,"startTime":37.758593,"endTime":38.0172135,"instrument":8,"program":53},{"pitch":72,"velocity":128,"startTime":38.0172135,"endTime":38.534454499999995,"instrument":8,"program":53},{"pitch":74,"velocity":128,"startTime":38.534454499999995,"endTime":39.051695499999994,"instrument":8,"program":53},{"pitch":71,"velocity":128,"startTime":39.051695499999994,"endTime":40.08617749999999,"instrument":8,"program":53},{"pitch":79,"velocity":128,"startTime":39.82755699999999,"endTime":40.08617749999999,"instrument":8,"program":53},{"pitch":78,"velocity":128,"startTime":40.08617749999999,"endTime":40.60341849999999,"instrument":8,"program":53},{"pitch":76,"velocity":128,"startTime":40.60341849999999,"endTime":40.862038999999996,"instrument":8,"program":53},{"pitch":74,"velocity":128,"startTime":40.862038999999996,"endTime":41.120659499999995,"instrument":8,"program":53},{"pitch":76,"velocity":128,"startTime":41.120659499999995,"endTime":42.1551415,"instrument":8,"program":53},{"pitch":79,"velocity":128,"startTime":43.965485,"endTime":44.2241055,"instrument":8,"program":53},{"pitch":78,"velocity":128,"startTime":44.2241055,"endTime":44.7413465,"instrument":8,"program":53},{"pitch":76,"velocity":128,"startTime":44.7413465,"endTime":44.999967000000005,"instrument":8,"program":53},{"pitch":74,"velocity":128,"startTime":44.999967000000005,"endTime":45.258587500000004,"instrument":8,"program":53},{"pitch":79,"velocity":128,"startTime":45.258587500000004,"endTime":47.33293942708333,"instrument":8,"program":53},{"pitch":78,"velocity":128,"startTime":47.3275515,"endTime":47.8447925,"instrument":8,"program":53},{"pitch":79,"velocity":128,"startTime":48.103413,"endTime":48.3620335,"instrument":8,"program":53},{"pitch":78,"velocity":128,"startTime":48.3620335,"endTime":48.8792745,"instrument":8,"program":53},{"pitch":76,"velocity":128,"startTime":48.8792745,"endTime":49.137895,"instrument":8,"program":53},{"pitch":74,"velocity":128,"startTime":49.137895,"endTime":49.39651550000001,"instrument":8,"program":53},{"pitch":76,"velocity":128,"startTime":49.39651550000001,"endTime":50.43099750000001,"instrument":8,"program":53},{"pitch":75,"velocity":128,"startTime":50.68961800000001,"endTime":51.724100000000014,"instrument":8,"program":53},{"pitch":73,"velocity":128,"startTime":51.46547950000001,"endTime":52.49996150000001,"instrument":8,"program":53},{"pitch":79,"velocity":128,"startTime":52.24134100000001,"endTime":52.49996150000001,"instrument":8,"program":53},{"pitch":78,"velocity":128,"startTime":52.49996150000001,"endTime":53.01720250000001,"instrument":8,"program":53},{"pitch":76,"velocity":128,"startTime":53.01720250000001,"endTime":53.27582300000001,"instrument":8,"program":53},{"pitch":74,"velocity":128,"startTime":53.27582300000001,"endTime":53.534443500000016,"instrument":8,"program":53},{"pitch":79,"velocity":128,"startTime":53.534443500000016,"endTime":55.608795427083344,"instrument":8,"program":53},{"pitch":78,"velocity":128,"startTime":55.60340750000001,"endTime":56.12064850000001,"instrument":8,"program":53},{"pitch":79,"velocity":128,"startTime":56.63788950000001,"endTime":57.1551305,"instrument":8,"program":53},{"pitch":68,"velocity":128,"startTime":67.24133,"endTime":67.758571,"instrument":8,"program":53},{"pitch":68,"velocity":128,"startTime":67.758571,"endTime":68.275812,"instrument":8,"program":53},{"pitch":66,"velocity":128,"startTime":68.275812,"endTime":68.53443250000001,"instrument":8,"program":53},{"pitch":68,"velocity":128,"startTime":68.53443250000001,"endTime":69.05167349999999,"instrument":8,"program":53},{"pitch":73,"velocity":128,"startTime":69.310294,"endTime":69.5689145,"instrument":8,"program":53},{"pitch":75,"velocity":128,"startTime":69.5689145,"endTime":70.0861555,"instrument":8,"program":53},{"pitch":76,"velocity":128,"startTime":70.0861555,"endTime":70.6033965,"instrument":8,"program":53},{"pitch":72,"velocity":128,"startTime":70.862017,"endTime":71.03443066666667,"instrument":8,"program":53},{"pitch":72,"velocity":128,"startTime":71.1206375,"endTime":71.6378785,"instrument":8,"program":53},{"pitch":74,"velocity":128,"startTime":71.6378785,"endTime":72.1551195,"instrument":8,"program":53},{"pitch":71,"velocity":128,"startTime":72.1551195,"endTime":72.6723605,"instrument":8,"program":53},{"pitch":69,"velocity":128,"startTime":73.18960150000001,"endTime":73.70684250000001,"instrument":8,"program":53},{"pitch":71,"velocity":128,"startTime":73.70684250000001,"endTime":74.22408350000002,"instrument":8,"program":53},{"pitch":68,"velocity":128,"startTime":74.22408350000002,"endTime":74.74132450000002,"instrument":8,"program":53},{"pitch":68,"velocity":128,"startTime":75.51718600000002,"endTime":76.03442700000002,"instrument":8,"program":53},{"pitch":68,"velocity":128,"startTime":76.03442700000002,"endTime":76.55166800000003,"instrument":8,"program":53},{"pitch":66,"velocity":128,"startTime":76.55166800000003,"endTime":76.81028850000003,"instrument":8,"program":53},{"pitch":68,"velocity":128,"startTime":76.81028850000003,"endTime":77.32752950000003,"instrument":8,"program":53},{"pitch":73,"velocity":128,"startTime":77.58615000000003,"endTime":77.84477050000002,"instrument":8,"program":53},{"pitch":75,"velocity":128,"startTime":77.84477050000002,"endTime":78.36201150000002,"instrument":8,"program":53},{"pitch":76,"velocity":128,"startTime":78.36201150000002,"endTime":78.87925250000004,"instrument":8,"program":53},{"pitch":72,"velocity":128,"startTime":79.13787300000003,"endTime":79.3102866666667,"instrument":8,"program":53},{"pitch":72,"velocity":128,"startTime":79.39649350000002,"endTime":79.91373450000003,"instrument":8,"program":53},{"pitch":74,"velocity":128,"startTime":79.91373450000003,"endTime":80.43097550000003,"instrument":8,"program":53},{"pitch":71,"velocity":128,"startTime":80.43097550000003,"endTime":80.94821650000003,"instrument":8,"program":53},{"pitch":69,"velocity":128,"startTime":81.72407800000003,"endTime":81.98269850000003,"instrument":8,"program":53},{"pitch":71,"velocity":128,"startTime":81.98269850000003,"endTime":82.24131900000002,"instrument":8,"program":53},{"pitch":68,"velocity":128,"startTime":82.49993950000002,"endTime":83.01718050000002,"instrument":8,"program":53},{"pitch":68,"velocity":128,"startTime":83.79304200000003,"endTime":84.31028300000003,"instrument":8,"program":53},{"pitch":68,"velocity":128,"startTime":84.31028300000003,"endTime":84.82752400000004,"instrument":8,"program":53},{"pitch":66,"velocity":128,"startTime":84.82752400000004,"endTime":85.08614450000003,"instrument":8,"program":53},{"pitch":68,"velocity":128,"startTime":85.08614450000003,"endTime":85.60338550000003,"instrument":8,"program":53},{"pitch":73,"velocity":128,"startTime":85.86200600000002,"endTime":86.12062650000003,"instrument":8,"program":53},{"pitch":75,"velocity":128,"startTime":86.12062650000003,"endTime":86.63786750000003,"instrument":8,"program":53},{"pitch":76,"velocity":128,"startTime":86.63786750000003,"endTime":86.89648800000002,"instrument":8,"program":53},{"pitch":72,"velocity":128,"startTime":87.41372900000003,"endTime":87.58614266666669,"instrument":8,"program":53},{"pitch":72,"velocity":128,"startTime":87.67234950000002,"endTime":88.18959050000002,"instrument":8,"program":53},{"pitch":74,"velocity":128,"startTime":88.18959050000002,"endTime":88.70683150000004,"instrument":8,"program":53},{"pitch":71,"velocity":128,"startTime":88.70683150000004,"endTime":89.22407250000003,"instrument":8,"program":53},{"pitch":69,"velocity":128,"startTime":89.99993400000004,"endTime":90.25855450000003,"instrument":8,"program":53},{"pitch":71,"velocity":128,"startTime":90.25855450000003,"endTime":90.51717500000002,"instrument":8,"program":53},{"pitch":68,"velocity":128,"startTime":90.77579550000002,"endTime":91.03441600000002,"instrument":8,"program":53},{"pitch":68,"velocity":128,"startTime":92.068898,"endTime":92.58613900000002,"instrument":8,"program":53},{"pitch":68,"velocity":128,"startTime":92.58613900000002,"endTime":93.10338000000002,"instrument":8,"program":53},{"pitch":66,"velocity":128,"startTime":93.10338000000002,"endTime":93.36200050000001,"instrument":8,"program":53},{"pitch":68,"velocity":128,"startTime":93.36200050000001,"endTime":93.87924150000002,"instrument":8,"program":53},{"pitch":73,"velocity":128,"startTime":94.13786200000001,"endTime":94.3964825,"instrument":8,"program":53},{"pitch":75,"velocity":128,"startTime":94.3964825,"endTime":94.91372350000002,"instrument":8,"program":53},{"pitch":76,"velocity":128,"startTime":94.91372350000002,"endTime":95.17234400000001,"instrument":8,"program":53},{"pitch":72,"velocity":128,"startTime":95.68958500000001,"endTime":95.9482055,"instrument":8,"program":53},{"pitch":72,"velocity":128,"startTime":95.9482055,"endTime":96.46544650000001,"instrument":8,"program":53},{"pitch":74,"velocity":128,"startTime":96.46544650000001,"endTime":96.98268750000001,"instrument":8,"program":53},{"pitch":71,"velocity":128,"startTime":96.98268750000001,"endTime":98.01716950000001,"instrument":8,"program":53},{"pitch":79,"velocity":128,"startTime":97.75854900000002,"endTime":98.01716950000001,"instrument":8,"program":53},{"pitch":78,"velocity":128,"startTime":98.01716950000001,"endTime":98.53441050000002,"instrument":8,"program":53},{"pitch":76,"velocity":128,"startTime":98.53441050000002,"endTime":98.79303100000001,"instrument":8,"program":53},{"pitch":74,"velocity":128,"startTime":98.79303100000001,"endTime":99.0516515,"instrument":8,"program":53},{"pitch":76,"velocity":128,"startTime":99.0516515,"endTime":100.0861335,"instrument":8,"program":53},{"pitch":79,"velocity":128,"startTime":101.89647699999999,"endTime":102.15509749999998,"instrument":8,"program":53},{"pitch":78,"velocity":128,"startTime":102.15509749999998,"endTime":102.6723385,"instrument":8,"program":53},{"pitch":76,"velocity":128,"startTime":102.6723385,"endTime":102.93095899999999,"instrument":8,"program":53},{"pitch":74,"velocity":128,"startTime":102.93095899999999,"endTime":103.18957949999998,"instrument":8,"program":53},{"pitch":79,"velocity":128,"startTime":103.18957949999998,"endTime":105.26393142708332,"instrument":8,"program":53},{"pitch":78,"velocity":128,"startTime":105.25854349999999,"endTime":105.77578449999999,"instrument":8,"program":53},{"pitch":79,"velocity":128,"startTime":106.03440499999999,"endTime":106.29302549999998,"instrument":8,"program":53},{"pitch":78,"velocity":128,"startTime":106.29302549999998,"endTime":106.81026649999998,"instrument":8,"program":53},{"pitch":76,"velocity":128,"startTime":106.81026649999998,"endTime":107.06888699999998,"instrument":8,"program":53},{"pitch":74,"velocity":128,"startTime":107.06888699999998,"endTime":107.32750749999998,"instrument":8,"program":53},{"pitch":76,"velocity":128,"startTime":107.32750749999998,"endTime":108.36198949999996,"instrument":8,"program":53},{"pitch":75,"velocity":128,"startTime":108.62060999999996,"endTime":109.65509199999995,"instrument":8,"program":53},{"pitch":73,"velocity":128,"startTime":109.39647149999996,"endTime":110.43095349999996,"instrument":8,"program":53},{"pitch":79,"velocity":128,"startTime":110.17233299999997,"endTime":110.43095349999996,"instrument":8,"program":53},{"pitch":78,"velocity":128,"startTime":110.43095349999996,"endTime":110.94819449999996,"instrument":8,"program":53},{"pitch":76,"velocity":128,"startTime":110.94819449999996,"endTime":111.20681499999996,"instrument":8,"program":53},{"pitch":74,"velocity":128,"startTime":111.20681499999996,"endTime":111.46543549999996,"instrument":8,"program":53},{"pitch":79,"velocity":128,"startTime":111.46543549999996,"endTime":113.5397874270833,"instrument":8,"program":53},{"pitch":78,"velocity":128,"startTime":113.53439949999995,"endTime":114.05164049999996,"instrument":8,"program":53},{"pitch":79,"velocity":128,"startTime":114.56888149999996,"endTime":115.08612249999997,"instrument":8,"program":53},{"pitch":76,"velocity":128,"startTime":116.37922499999998,"endTime":116.89646599999998,"instrument":8,"program":53},{"pitch":79,"velocity":128,"startTime":116.89646599999998,"endTime":117.41370699999999,"instrument":8,"program":53},{"pitch":74,"velocity":128,"startTime":117.41370699999999,"endTime":117.93094799999999,"instrument":8,"program":53},{"pitch":76,"velocity":128,"startTime":117.93094799999999,"endTime":118.448189,"instrument":8,"program":53},{"pitch":76,"velocity":128,"startTime":118.448189,"endTime":118.96543,"instrument":8,"program":53},{"pitch":74,"velocity":128,"startTime":118.96543,"endTime":119.482671,"instrument":8,"program":53},{"pitch":76,"velocity":128,"startTime":119.22405049999999,"endTime":119.74129149999999,"instrument":8,"program":53},{"pitch":74,"velocity":128,"startTime":119.74129149999999,"endTime":119.99991199999998,"instrument":8,"program":53},{"pitch":76,"velocity":128,"startTime":120.51715299999998,"endTime":121.03439399999999,"instrument":8,"program":53},{"pitch":79,"velocity":128,"startTime":121.03439399999999,"endTime":121.55163499999999,"instrument":8,"program":53},{"pitch":74,"velocity":128,"startTime":121.55163499999999,"endTime":122.068876,"instrument":8,"program":53},{"pitch":76,"velocity":128,"startTime":122.068876,"endTime":122.586117,"instrument":8,"program":53},{"pitch":76,"velocity":128,"startTime":122.586117,"endTime":123.10335800000001,"instrument":8,"program":53},{"pitch":74,"velocity":128,"startTime":123.10335800000001,"endTime":123.620599,"instrument":8,"program":53},{"pitch":76,"velocity":128,"startTime":123.3619785,"endTime":123.87921949999999,"instrument":8,"program":53},{"pitch":74,"velocity":128,"startTime":123.87921949999999,"endTime":124.13783999999998,"instrument":8,"program":53},{"pitch":76,"velocity":128,"startTime":124.655081,"endTime":125.172322,"instrument":8,"program":53},{"pitch":79,"velocity":128,"startTime":125.172322,"endTime":125.689563,"instrument":8,"program":53},{"pitch":74,"velocity":128,"startTime":125.689563,"endTime":126.206804,"instrument":8,"program":53},{"pitch":76,"velocity":128,"startTime":126.206804,"endTime":126.72404500000002,"instrument":8,"program":53},{"pitch":76,"velocity":128,"startTime":126.72404500000002,"endTime":127.24128600000002,"instrument":8,"program":53},{"pitch":74,"velocity":128,"startTime":127.24128600000002,"endTime":127.758527,"instrument":8,"program":53},{"pitch":76,"velocity":128,"startTime":127.49990650000001,"endTime":128.0171475,"instrument":8,"program":53},{"pitch":74,"velocity":128,"startTime":128.0171475,"endTime":128.275768,"instrument":8,"program":53},{"pitch":76,"velocity":128,"startTime":128.793009,"endTime":129.31025,"instrument":8,"program":53},{"pitch":79,"velocity":128,"startTime":129.31025,"endTime":129.827491,"instrument":8,"program":53},{"pitch":74,"velocity":128,"startTime":129.827491,"endTime":130.34473200000002,"instrument":8,"program":53},{"pitch":76,"velocity":128,"startTime":130.34473200000002,"endTime":130.86197300000003,"instrument":8,"program":53},{"pitch":76,"velocity":128,"startTime":130.86197300000003,"endTime":131.37921400000002,"instrument":8,"program":53},{"pitch":74,"velocity":128,"startTime":131.37921400000002,"endTime":131.896455,"instrument":8,"program":53},{"pitch":76,"velocity":128,"startTime":131.63783450000003,"endTime":132.1550755,"instrument":8,"program":53},{"pitch":74,"velocity":128,"startTime":132.1550755,"endTime":134.22942742708335,"instrument":8,"program":53},{"pitch":59,"velocity":128,"startTime":39.310316,"endTime":39.56893650000001,"instrument":9,"program":30},{"pitch":54,"velocity":128,"startTime":39.310316,"endTime":39.56893650000001,"instrument":9,"program":30},{"pitch":47,"velocity":128,"startTime":39.310316,"endTime":39.56893650000001,"instrument":9,"program":30},{"pitch":59,"velocity":128,"startTime":39.56893650000001,"endTime":39.827557000000006,"instrument":9,"program":30},{"pitch":54,"velocity":128,"startTime":39.56893650000001,"endTime":39.827557000000006,"instrument":9,"program":30},{"pitch":47,"velocity":128,"startTime":39.56893650000001,"endTime":39.827557000000006,"instrument":9,"program":30},{"pitch":47,"velocity":128,"startTime":39.827557000000006,"endTime":40.08617750000001,"instrument":9,"program":30},{"pitch":54,"velocity":128,"startTime":39.827557000000006,"endTime":40.08617750000001,"instrument":9,"program":30},{"pitch":59,"velocity":128,"startTime":39.827557000000006,"endTime":40.08617750000001,"instrument":9,"program":30},{"pitch":59,"velocity":128,"startTime":40.08617750000001,"endTime":40.21548775000001,"instrument":9,"program":30},{"pitch":54,"velocity":128,"startTime":40.08617750000001,"endTime":40.21548775000001,"instrument":9,"program":30},{"pitch":47,"velocity":128,"startTime":40.08617750000001,"endTime":40.21548775000001,"instrument":9,"program":30},{"pitch":59,"velocity":128,"startTime":40.21548775000001,"endTime":40.344798000000004,"instrument":9,"program":30},{"pitch":54,"velocity":128,"startTime":40.21548775000001,"endTime":40.344798000000004,"instrument":9,"program":30},{"pitch":47,"velocity":128,"startTime":40.21548775000001,"endTime":40.344798000000004,"instrument":9,"program":30},{"pitch":59,"velocity":128,"startTime":40.344798000000004,"endTime":40.603418500000004,"instrument":9,"program":30},{"pitch":54,"velocity":128,"startTime":40.344798000000004,"endTime":40.603418500000004,"instrument":9,"program":30},{"pitch":47,"velocity":128,"startTime":40.344798000000004,"endTime":40.603418500000004,"instrument":9,"program":30},{"pitch":62,"velocity":128,"startTime":40.603418500000004,"endTime":40.86203900000001,"instrument":9,"program":30},{"pitch":57,"velocity":128,"startTime":40.603418500000004,"endTime":40.86203900000001,"instrument":9,"program":30},{"pitch":50,"velocity":128,"startTime":40.603418500000004,"endTime":40.86203900000001,"instrument":9,"program":30},{"pitch":62,"velocity":128,"startTime":40.86203900000001,"endTime":41.37928000000001,"instrument":9,"program":30},{"pitch":57,"velocity":128,"startTime":40.86203900000001,"endTime":41.37928000000001,"instrument":9,"program":30},{"pitch":50,"velocity":128,"startTime":40.86203900000001,"endTime":41.37928000000001,"instrument":9,"program":30},{"pitch":40,"velocity":128,"startTime":41.37928000000001,"endTime":41.89652100000001,"instrument":9,"program":30},{"pitch":47,"velocity":128,"startTime":41.37928000000001,"endTime":41.89652100000001,"instrument":9,"program":30},{"pitch":52,"velocity":128,"startTime":41.37928000000001,"endTime":41.89652100000001,"instrument":9,"program":30},{"pitch":40,"velocity":128,"startTime":41.89652100000001,"endTime":42.413762,"instrument":9,"program":30},{"pitch":47,"velocity":128,"startTime":41.89652100000001,"endTime":42.413762,"instrument":9,"program":30},{"pitch":52,"velocity":128,"startTime":41.89652100000001,"endTime":42.413762,"instrument":9,"program":30},{"pitch":44,"velocity":128,"startTime":42.413762,"endTime":42.931003,"instrument":9,"program":30},{"pitch":51,"velocity":128,"startTime":42.413762,"endTime":42.931003,"instrument":9,"program":30},{"pitch":56,"velocity":128,"startTime":42.413762,"endTime":42.931003,"instrument":9,"program":30},{"pitch":44,"velocity":128,"startTime":42.931003,"endTime":43.448243999999995,"instrument":9,"program":30},{"pitch":51,"velocity":128,"startTime":42.931003,"endTime":43.448243999999995,"instrument":9,"program":30},{"pitch":56,"velocity":128,"startTime":42.931003,"endTime":43.448243999999995,"instrument":9,"program":30},{"pitch":49,"velocity":128,"startTime":43.448243999999995,"endTime":43.965484999999994,"instrument":9,"program":30},{"pitch":56,"velocity":128,"startTime":43.448243999999995,"endTime":43.965484999999994,"instrument":9,"program":30},{"pitch":61,"velocity":128,"startTime":43.448243999999995,"endTime":43.965484999999994,"instrument":9,"program":30},{"pitch":49,"velocity":128,"startTime":43.965484999999994,"endTime":44.48272599999999,"instrument":9,"program":30},{"pitch":56,"velocity":128,"startTime":43.965484999999994,"endTime":44.48272599999999,"instrument":9,"program":30},{"pitch":61,"velocity":128,"startTime":43.965484999999994,"endTime":44.48272599999999,"instrument":9,"program":30},{"pitch":45,"velocity":128,"startTime":44.48272599999999,"endTime":44.999966999999984,"instrument":9,"program":30},{"pitch":52,"velocity":128,"startTime":44.48272599999999,"endTime":44.999966999999984,"instrument":9,"program":30},{"pitch":57,"velocity":128,"startTime":44.48272599999999,"endTime":44.999966999999984,"instrument":9,"program":30},{"pitch":45,"velocity":128,"startTime":44.999966999999984,"endTime":45.51720799999998,"instrument":9,"program":30},{"pitch":52,"velocity":128,"startTime":44.999966999999984,"endTime":45.51720799999998,"instrument":9,"program":30},{"pitch":57,"velocity":128,"startTime":44.999966999999984,"endTime":45.51720799999998,"instrument":9,"program":30},{"pitch":48,"velocity":128,"startTime":45.51720799999998,"endTime":45.77582849999999,"instrument":9,"program":30},{"pitch":55,"velocity":128,"startTime":45.51720799999998,"endTime":45.77582849999999,"instrument":9,"program":30},{"pitch":60,"velocity":128,"startTime":45.51720799999998,"endTime":45.77582849999999,"instrument":9,"program":30},{"pitch":48,"velocity":128,"startTime":45.77582849999999,"endTime":46.03444899999999,"instrument":9,"program":30},{"pitch":55,"velocity":128,"startTime":45.77582849999999,"endTime":46.03444899999999,"instrument":9,"program":30},{"pitch":60,"velocity":128,"startTime":45.77582849999999,"endTime":46.03444899999999,"instrument":9,"program":30},{"pitch":48,"velocity":128,"startTime":46.03444899999999,"endTime":46.293069499999994,"instrument":9,"program":30},{"pitch":55,"velocity":128,"startTime":46.03444899999999,"endTime":46.293069499999994,"instrument":9,"program":30},{"pitch":60,"velocity":128,"startTime":46.03444899999999,"endTime":46.293069499999994,"instrument":9,"program":30},{"pitch":48,"velocity":128,"startTime":46.293069499999994,"endTime":46.42237974999999,"instrument":9,"program":30},{"pitch":55,"velocity":128,"startTime":46.293069499999994,"endTime":46.42237974999999,"instrument":9,"program":30},{"pitch":60,"velocity":128,"startTime":46.293069499999994,"endTime":46.42237974999999,"instrument":9,"program":30},{"pitch":48,"velocity":128,"startTime":46.42237974999999,"endTime":46.55168999999999,"instrument":9,"program":30},{"pitch":55,"velocity":128,"startTime":46.42237974999999,"endTime":46.55168999999999,"instrument":9,"program":30},{"pitch":60,"velocity":128,"startTime":46.42237974999999,"endTime":46.55168999999999,"instrument":9,"program":30},{"pitch":48,"velocity":128,"startTime":46.55168999999999,"endTime":46.810310499999986,"instrument":9,"program":30},{"pitch":55,"velocity":128,"startTime":46.55168999999999,"endTime":46.810310499999986,"instrument":9,"program":30},{"pitch":60,"velocity":128,"startTime":46.55168999999999,"endTime":46.810310499999986,"instrument":9,"program":30},{"pitch":50,"velocity":128,"startTime":46.810310499999986,"endTime":47.06893099999999,"instrument":9,"program":30},{"pitch":57,"velocity":128,"startTime":46.810310499999986,"endTime":47.06893099999999,"instrument":9,"program":30},{"pitch":62,"velocity":128,"startTime":46.810310499999986,"endTime":47.06893099999999,"instrument":9,"program":30},{"pitch":50,"velocity":128,"startTime":47.06893099999999,"endTime":47.58617199999999,"instrument":9,"program":30},{"pitch":57,"velocity":128,"startTime":47.06893099999999,"endTime":47.58617199999999,"instrument":9,"program":30},{"pitch":62,"velocity":128,"startTime":47.06893099999999,"endTime":47.58617199999999,"instrument":9,"program":30},{"pitch":47,"velocity":128,"startTime":47.58617199999999,"endTime":47.84479249999999,"instrument":9,"program":30},{"pitch":54,"velocity":128,"startTime":47.58617199999999,"endTime":47.84479249999999,"instrument":9,"program":30},{"pitch":59,"velocity":128,"startTime":47.58617199999999,"endTime":47.84479249999999,"instrument":9,"program":30},{"pitch":47,"velocity":128,"startTime":47.84479249999999,"endTime":48.103412999999996,"instrument":9,"program":30},{"pitch":59,"velocity":128,"startTime":47.84479249999999,"endTime":48.103412999999996,"instrument":9,"program":30},{"pitch":54,"velocity":128,"startTime":47.84479249999999,"endTime":48.103412999999996,"instrument":9,"program":30},{"pitch":47,"velocity":128,"startTime":48.103412999999996,"endTime":48.362033499999995,"instrument":9,"program":30},{"pitch":59,"velocity":128,"startTime":48.103412999999996,"endTime":48.362033499999995,"instrument":9,"program":30},{"pitch":54,"velocity":128,"startTime":48.103412999999996,"endTime":48.362033499999995,"instrument":9,"program":30},{"pitch":47,"velocity":128,"startTime":48.362033499999995,"endTime":48.49134374999999,"instrument":9,"program":30},{"pitch":54,"velocity":128,"startTime":48.362033499999995,"endTime":48.49134374999999,"instrument":9,"program":30},{"pitch":59,"velocity":128,"startTime":48.362033499999995,"endTime":48.49134374999999,"instrument":9,"program":30},{"pitch":47,"velocity":128,"startTime":48.49134374999999,"endTime":48.62065399999999,"instrument":9,"program":30},{"pitch":59,"velocity":128,"startTime":48.49134374999999,"endTime":48.62065399999999,"instrument":9,"program":30},{"pitch":54,"velocity":128,"startTime":48.49134374999999,"endTime":48.62065399999999,"instrument":9,"program":30},{"pitch":47,"velocity":128,"startTime":48.62065399999999,"endTime":48.879274499999994,"instrument":9,"program":30},{"pitch":59,"velocity":128,"startTime":48.62065399999999,"endTime":48.879274499999994,"instrument":9,"program":30},{"pitch":54,"velocity":128,"startTime":48.62065399999999,"endTime":48.879274499999994,"instrument":9,"program":30},{"pitch":50,"velocity":128,"startTime":48.879274499999994,"endTime":49.13789499999999,"instrument":9,"program":30},{"pitch":57,"velocity":128,"startTime":48.879274499999994,"endTime":49.13789499999999,"instrument":9,"program":30},{"pitch":62,"velocity":128,"startTime":48.879274499999994,"endTime":49.13789499999999,"instrument":9,"program":30},{"pitch":50,"velocity":128,"startTime":49.13789499999999,"endTime":49.65513599999999,"instrument":9,"program":30},{"pitch":57,"velocity":128,"startTime":49.13789499999999,"endTime":49.65513599999999,"instrument":9,"program":30},{"pitch":62,"velocity":128,"startTime":49.13789499999999,"endTime":49.65513599999999,"instrument":9,"program":30},{"pitch":40,"velocity":128,"startTime":49.65513599999999,"endTime":50.17237699999999,"instrument":9,"program":30},{"pitch":47,"velocity":128,"startTime":49.65513599999999,"endTime":50.17237699999999,"instrument":9,"program":30},{"pitch":52,"velocity":128,"startTime":49.65513599999999,"endTime":50.17237699999999,"instrument":9,"program":30},{"pitch":40,"velocity":128,"startTime":50.17237699999999,"endTime":50.68961799999999,"instrument":9,"program":30},{"pitch":47,"velocity":128,"startTime":50.17237699999999,"endTime":50.68961799999999,"instrument":9,"program":30},{"pitch":52,"velocity":128,"startTime":50.17237699999999,"endTime":50.68961799999999,"instrument":9,"program":30},{"pitch":44,"velocity":128,"startTime":50.68961799999999,"endTime":51.20685899999998,"instrument":9,"program":30},{"pitch":51,"velocity":128,"startTime":50.68961799999999,"endTime":51.20685899999998,"instrument":9,"program":30},{"pitch":56,"velocity":128,"startTime":50.68961799999999,"endTime":51.20685899999998,"instrument":9,"program":30},{"pitch":44,"velocity":128,"startTime":51.20685899999998,"endTime":51.72409999999998,"instrument":9,"program":30},{"pitch":51,"velocity":128,"startTime":51.20685899999998,"endTime":51.72409999999998,"instrument":9,"program":30},{"pitch":56,"velocity":128,"startTime":51.20685899999998,"endTime":51.72409999999998,"instrument":9,"program":30},{"pitch":49,"velocity":128,"startTime":51.72409999999998,"endTime":52.24134099999998,"instrument":9,"program":30},{"pitch":56,"velocity":128,"startTime":51.72409999999998,"endTime":52.24134099999998,"instrument":9,"program":30},{"pitch":61,"velocity":128,"startTime":51.72409999999998,"endTime":52.24134099999998,"instrument":9,"program":30},{"pitch":49,"velocity":128,"startTime":52.24134099999998,"endTime":52.758581999999976,"instrument":9,"program":30},{"pitch":56,"velocity":128,"startTime":52.24134099999998,"endTime":52.758581999999976,"instrument":9,"program":30},{"pitch":61,"velocity":128,"startTime":52.24134099999998,"endTime":52.758581999999976,"instrument":9,"program":30},{"pitch":45,"velocity":128,"startTime":52.758581999999976,"endTime":53.275822999999974,"instrument":9,"program":30},{"pitch":52,"velocity":128,"startTime":52.758581999999976,"endTime":53.275822999999974,"instrument":9,"program":30},{"pitch":57,"velocity":128,"startTime":52.758581999999976,"endTime":53.275822999999974,"instrument":9,"program":30},{"pitch":45,"velocity":128,"startTime":53.275822999999974,"endTime":53.793063999999966,"instrument":9,"program":30},{"pitch":52,"velocity":128,"startTime":53.275822999999974,"endTime":53.793063999999966,"instrument":9,"program":30},{"pitch":57,"velocity":128,"startTime":53.275822999999974,"endTime":53.793063999999966,"instrument":9,"program":30},{"pitch":48,"velocity":128,"startTime":53.793063999999966,"endTime":54.05168449999997,"instrument":9,"program":30},{"pitch":55,"velocity":128,"startTime":53.793063999999966,"endTime":54.05168449999997,"instrument":9,"program":30},{"pitch":60,"velocity":128,"startTime":53.793063999999966,"endTime":54.05168449999997,"instrument":9,"program":30},{"pitch":48,"velocity":128,"startTime":54.05168449999997,"endTime":54.31030499999997,"instrument":9,"program":30},{"pitch":55,"velocity":128,"startTime":54.05168449999997,"endTime":54.31030499999997,"instrument":9,"program":30},{"pitch":60,"velocity":128,"startTime":54.05168449999997,"endTime":54.31030499999997,"instrument":9,"program":30},{"pitch":48,"velocity":128,"startTime":54.31030499999997,"endTime":54.56892549999998,"instrument":9,"program":30},{"pitch":55,"velocity":128,"startTime":54.31030499999997,"endTime":54.56892549999998,"instrument":9,"program":30},{"pitch":60,"velocity":128,"startTime":54.31030499999997,"endTime":54.56892549999998,"instrument":9,"program":30},{"pitch":48,"velocity":128,"startTime":54.56892549999998,"endTime":54.698235749999974,"instrument":9,"program":30},{"pitch":55,"velocity":128,"startTime":54.56892549999998,"endTime":54.698235749999974,"instrument":9,"program":30},{"pitch":60,"velocity":128,"startTime":54.56892549999998,"endTime":54.698235749999974,"instrument":9,"program":30},{"pitch":48,"velocity":128,"startTime":54.698235749999974,"endTime":54.82754599999997,"instrument":9,"program":30},{"pitch":55,"velocity":128,"startTime":54.698235749999974,"endTime":54.82754599999997,"instrument":9,"program":30},{"pitch":60,"velocity":128,"startTime":54.698235749999974,"endTime":54.82754599999997,"instrument":9,"program":30},{"pitch":48,"velocity":128,"startTime":54.82754599999997,"endTime":55.086166499999976,"instrument":9,"program":30},{"pitch":55,"velocity":128,"startTime":54.82754599999997,"endTime":55.086166499999976,"instrument":9,"program":30},{"pitch":60,"velocity":128,"startTime":54.82754599999997,"endTime":55.086166499999976,"instrument":9,"program":30},{"pitch":50,"velocity":128,"startTime":55.086166499999976,"endTime":55.344786999999975,"instrument":9,"program":30},{"pitch":57,"velocity":128,"startTime":55.086166499999976,"endTime":55.344786999999975,"instrument":9,"program":30},{"pitch":62,"velocity":128,"startTime":55.086166499999976,"endTime":55.344786999999975,"instrument":9,"program":30},{"pitch":50,"velocity":128,"startTime":55.344786999999975,"endTime":55.862027999999974,"instrument":9,"program":30},{"pitch":57,"velocity":128,"startTime":55.344786999999975,"endTime":55.862027999999974,"instrument":9,"program":30},{"pitch":62,"velocity":128,"startTime":55.344786999999975,"endTime":55.862027999999974,"instrument":9,"program":30},{"pitch":47,"velocity":128,"startTime":55.862027999999974,"endTime":56.12064849999997,"instrument":9,"program":30},{"pitch":54,"velocity":128,"startTime":55.862027999999974,"endTime":56.12064849999997,"instrument":9,"program":30},{"pitch":59,"velocity":128,"startTime":55.862027999999974,"endTime":56.12064849999997,"instrument":9,"program":30},{"pitch":47,"velocity":128,"startTime":56.12064849999997,"endTime":56.37926899999998,"instrument":9,"program":30},{"pitch":59,"velocity":128,"startTime":56.12064849999997,"endTime":56.37926899999998,"instrument":9,"program":30},{"pitch":54,"velocity":128,"startTime":56.12064849999997,"endTime":56.37926899999998,"instrument":9,"program":30},{"pitch":47,"velocity":128,"startTime":56.37926899999998,"endTime":56.63788949999998,"instrument":9,"program":30},{"pitch":59,"velocity":128,"startTime":56.37926899999998,"endTime":56.63788949999998,"instrument":9,"program":30},{"pitch":54,"velocity":128,"startTime":56.37926899999998,"endTime":56.63788949999998,"instrument":9,"program":30},{"pitch":47,"velocity":128,"startTime":56.63788949999998,"endTime":56.767199749999975,"instrument":9,"program":30},{"pitch":54,"velocity":128,"startTime":56.63788949999998,"endTime":56.767199749999975,"instrument":9,"program":30},{"pitch":59,"velocity":128,"startTime":56.63788949999998,"endTime":56.767199749999975,"instrument":9,"program":30},{"pitch":47,"velocity":128,"startTime":56.767199749999975,"endTime":56.89650999999998,"instrument":9,"program":30},{"pitch":59,"velocity":128,"startTime":56.767199749999975,"endTime":56.89650999999998,"instrument":9,"program":30},{"pitch":54,"velocity":128,"startTime":56.767199749999975,"endTime":56.89650999999998,"instrument":9,"program":30},{"pitch":47,"velocity":128,"startTime":56.89650999999998,"endTime":57.15513049999998,"instrument":9,"program":30},{"pitch":59,"velocity":128,"startTime":56.89650999999998,"endTime":57.15513049999998,"instrument":9,"program":30},{"pitch":54,"velocity":128,"startTime":56.89650999999998,"endTime":57.15513049999998,"instrument":9,"program":30},{"pitch":50,"velocity":128,"startTime":57.15513049999998,"endTime":57.41375099999998,"instrument":9,"program":30},{"pitch":57,"velocity":128,"startTime":57.15513049999998,"endTime":57.41375099999998,"instrument":9,"program":30},{"pitch":62,"velocity":128,"startTime":57.15513049999998,"endTime":57.41375099999998,"instrument":9,"program":30},{"pitch":50,"velocity":128,"startTime":57.41375099999998,"endTime":57.930991999999975,"instrument":9,"program":30},{"pitch":57,"velocity":128,"startTime":57.41375099999998,"endTime":57.930991999999975,"instrument":9,"program":30},{"pitch":62,"velocity":128,"startTime":57.41375099999998,"endTime":57.930991999999975,"instrument":9,"program":30},{"pitch":59,"velocity":128,"startTime":97.24130799999998,"endTime":97.49992849999997,"instrument":9,"program":30},{"pitch":54,"velocity":128,"startTime":97.24130799999998,"endTime":97.49992849999997,"instrument":9,"program":30},{"pitch":47,"velocity":128,"startTime":97.24130799999998,"endTime":97.49992849999997,"instrument":9,"program":30},{"pitch":59,"velocity":128,"startTime":97.49992849999997,"endTime":97.75854899999997,"instrument":9,"program":30},{"pitch":54,"velocity":128,"startTime":97.49992849999997,"endTime":97.75854899999997,"instrument":9,"program":30},{"pitch":47,"velocity":128,"startTime":97.49992849999997,"endTime":97.75854899999997,"instrument":9,"program":30},{"pitch":47,"velocity":128,"startTime":97.75854899999997,"endTime":98.01716949999997,"instrument":9,"program":30},{"pitch":54,"velocity":128,"startTime":97.75854899999997,"endTime":98.01716949999997,"instrument":9,"program":30},{"pitch":59,"velocity":128,"startTime":97.75854899999997,"endTime":98.01716949999997,"instrument":9,"program":30},{"pitch":59,"velocity":128,"startTime":98.01716949999997,"endTime":98.14647974999997,"instrument":9,"program":30},{"pitch":54,"velocity":128,"startTime":98.01716949999997,"endTime":98.14647974999997,"instrument":9,"program":30},{"pitch":47,"velocity":128,"startTime":98.01716949999997,"endTime":98.14647974999997,"instrument":9,"program":30},{"pitch":59,"velocity":128,"startTime":98.14647974999997,"endTime":98.27578999999997,"instrument":9,"program":30},{"pitch":54,"velocity":128,"startTime":98.14647974999997,"endTime":98.27578999999997,"instrument":9,"program":30},{"pitch":47,"velocity":128,"startTime":98.14647974999997,"endTime":98.27578999999997,"instrument":9,"program":30},{"pitch":59,"velocity":128,"startTime":98.27578999999997,"endTime":98.53441049999996,"instrument":9,"program":30},{"pitch":54,"velocity":128,"startTime":98.27578999999997,"endTime":98.53441049999996,"instrument":9,"program":30},{"pitch":47,"velocity":128,"startTime":98.27578999999997,"endTime":98.53441049999996,"instrument":9,"program":30},{"pitch":62,"velocity":128,"startTime":98.53441049999996,"endTime":98.79303099999996,"instrument":9,"program":30},{"pitch":57,"velocity":128,"startTime":98.53441049999996,"endTime":98.79303099999996,"instrument":9,"program":30},{"pitch":50,"velocity":128,"startTime":98.53441049999996,"endTime":98.79303099999996,"instrument":9,"program":30},{"pitch":62,"velocity":128,"startTime":98.79303099999996,"endTime":99.31027199999997,"instrument":9,"program":30},{"pitch":57,"velocity":128,"startTime":98.79303099999996,"endTime":99.31027199999997,"instrument":9,"program":30},{"pitch":50,"velocity":128,"startTime":98.79303099999996,"endTime":99.31027199999997,"instrument":9,"program":30},{"pitch":40,"velocity":128,"startTime":99.31027199999997,"endTime":99.82751299999997,"instrument":9,"program":30},{"pitch":47,"velocity":128,"startTime":99.31027199999997,"endTime":99.82751299999997,"instrument":9,"program":30},{"pitch":52,"velocity":128,"startTime":99.31027199999997,"endTime":99.82751299999997,"instrument":9,"program":30},{"pitch":40,"velocity":128,"startTime":99.82751299999997,"endTime":100.34475399999998,"instrument":9,"program":30},{"pitch":47,"velocity":128,"startTime":99.82751299999997,"endTime":100.34475399999998,"instrument":9,"program":30},{"pitch":52,"velocity":128,"startTime":99.82751299999997,"endTime":100.34475399999998,"instrument":9,"program":30},{"pitch":44,"velocity":128,"startTime":100.34475399999998,"endTime":100.86199499999998,"instrument":9,"program":30},{"pitch":51,"velocity":128,"startTime":100.34475399999998,"endTime":100.86199499999998,"instrument":9,"program":30},{"pitch":56,"velocity":128,"startTime":100.34475399999998,"endTime":100.86199499999998,"instrument":9,"program":30},{"pitch":44,"velocity":128,"startTime":100.86199499999998,"endTime":101.37923599999999,"instrument":9,"program":30},{"pitch":51,"velocity":128,"startTime":100.86199499999998,"endTime":101.37923599999999,"instrument":9,"program":30},{"pitch":56,"velocity":128,"startTime":100.86199499999998,"endTime":101.37923599999999,"instrument":9,"program":30},{"pitch":49,"velocity":128,"startTime":101.37923599999999,"endTime":101.89647699999999,"instrument":9,"program":30},{"pitch":56,"velocity":128,"startTime":101.37923599999999,"endTime":101.89647699999999,"instrument":9,"program":30},{"pitch":61,"velocity":128,"startTime":101.37923599999999,"endTime":101.89647699999999,"instrument":9,"program":30},{"pitch":49,"velocity":128,"startTime":101.89647699999999,"endTime":102.413718,"instrument":9,"program":30},{"pitch":56,"velocity":128,"startTime":101.89647699999999,"endTime":102.413718,"instrument":9,"program":30},{"pitch":61,"velocity":128,"startTime":101.89647699999999,"endTime":102.413718,"instrument":9,"program":30},{"pitch":45,"velocity":128,"startTime":102.413718,"endTime":102.930959,"instrument":9,"program":30},{"pitch":52,"velocity":128,"startTime":102.413718,"endTime":102.930959,"instrument":9,"program":30},{"pitch":57,"velocity":128,"startTime":102.413718,"endTime":102.930959,"instrument":9,"program":30},{"pitch":45,"velocity":128,"startTime":102.930959,"endTime":103.44820000000001,"instrument":9,"program":30},{"pitch":52,"velocity":128,"startTime":102.930959,"endTime":103.44820000000001,"instrument":9,"program":30},{"pitch":57,"velocity":128,"startTime":102.930959,"endTime":103.44820000000001,"instrument":9,"program":30},{"pitch":48,"velocity":128,"startTime":103.44820000000001,"endTime":103.7068205,"instrument":9,"program":30},{"pitch":55,"velocity":128,"startTime":103.44820000000001,"endTime":103.7068205,"instrument":9,"program":30},{"pitch":60,"velocity":128,"startTime":103.44820000000001,"endTime":103.7068205,"instrument":9,"program":30},{"pitch":48,"velocity":128,"startTime":103.7068205,"endTime":103.965441,"instrument":9,"program":30},{"pitch":55,"velocity":128,"startTime":103.7068205,"endTime":103.965441,"instrument":9,"program":30},{"pitch":60,"velocity":128,"startTime":103.7068205,"endTime":103.965441,"instrument":9,"program":30},{"pitch":48,"velocity":128,"startTime":103.965441,"endTime":104.22406149999999,"instrument":9,"program":30},{"pitch":55,"velocity":128,"startTime":103.965441,"endTime":104.22406149999999,"instrument":9,"program":30},{"pitch":60,"velocity":128,"startTime":103.965441,"endTime":104.22406149999999,"instrument":9,"program":30},{"pitch":48,"velocity":128,"startTime":104.22406149999999,"endTime":104.35337175,"instrument":9,"program":30},{"pitch":55,"velocity":128,"startTime":104.22406149999999,"endTime":104.35337175,"instrument":9,"program":30},{"pitch":60,"velocity":128,"startTime":104.22406149999999,"endTime":104.35337175,"instrument":9,"program":30},{"pitch":48,"velocity":128,"startTime":104.35337175,"endTime":104.482682,"instrument":9,"program":30},{"pitch":55,"velocity":128,"startTime":104.35337175,"endTime":104.482682,"instrument":9,"program":30},{"pitch":60,"velocity":128,"startTime":104.35337175,"endTime":104.482682,"instrument":9,"program":30},{"pitch":48,"velocity":128,"startTime":104.482682,"endTime":104.7413025,"instrument":9,"program":30},{"pitch":55,"velocity":128,"startTime":104.482682,"endTime":104.7413025,"instrument":9,"program":30},{"pitch":60,"velocity":128,"startTime":104.482682,"endTime":104.7413025,"instrument":9,"program":30},{"pitch":50,"velocity":128,"startTime":104.7413025,"endTime":104.999923,"instrument":9,"program":30},{"pitch":57,"velocity":128,"startTime":104.7413025,"endTime":104.999923,"instrument":9,"program":30},{"pitch":62,"velocity":128,"startTime":104.7413025,"endTime":104.999923,"instrument":9,"program":30},{"pitch":50,"velocity":128,"startTime":104.999923,"endTime":105.517164,"instrument":9,"program":30},{"pitch":57,"velocity":128,"startTime":104.999923,"endTime":105.517164,"instrument":9,"program":30},{"pitch":62,"velocity":128,"startTime":104.999923,"endTime":105.517164,"instrument":9,"program":30},{"pitch":47,"velocity":128,"startTime":105.517164,"endTime":105.77578449999999,"instrument":9,"program":30},{"pitch":54,"velocity":128,"startTime":105.517164,"endTime":105.77578449999999,"instrument":9,"program":30},{"pitch":59,"velocity":128,"startTime":105.517164,"endTime":105.77578449999999,"instrument":9,"program":30},{"pitch":47,"velocity":128,"startTime":105.77578449999999,"endTime":106.03440499999999,"instrument":9,"program":30},{"pitch":59,"velocity":128,"startTime":105.77578449999999,"endTime":106.03440499999999,"instrument":9,"program":30},{"pitch":54,"velocity":128,"startTime":105.77578449999999,"endTime":106.03440499999999,"instrument":9,"program":30},{"pitch":47,"velocity":128,"startTime":106.03440499999999,"endTime":106.29302549999998,"instrument":9,"program":30},{"pitch":59,"velocity":128,"startTime":106.03440499999999,"endTime":106.29302549999998,"instrument":9,"program":30},{"pitch":54,"velocity":128,"startTime":106.03440499999999,"endTime":106.29302549999998,"instrument":9,"program":30},{"pitch":47,"velocity":128,"startTime":106.29302549999998,"endTime":106.42233574999999,"instrument":9,"program":30},{"pitch":54,"velocity":128,"startTime":106.29302549999998,"endTime":106.42233574999999,"instrument":9,"program":30},{"pitch":59,"velocity":128,"startTime":106.29302549999998,"endTime":106.42233574999999,"instrument":9,"program":30},{"pitch":47,"velocity":128,"startTime":106.42233574999999,"endTime":106.55164599999999,"instrument":9,"program":30},{"pitch":59,"velocity":128,"startTime":106.42233574999999,"endTime":106.55164599999999,"instrument":9,"program":30},{"pitch":54,"velocity":128,"startTime":106.42233574999999,"endTime":106.55164599999999,"instrument":9,"program":30},{"pitch":47,"velocity":128,"startTime":106.55164599999999,"endTime":106.81026649999998,"instrument":9,"program":30},{"pitch":59,"velocity":128,"startTime":106.55164599999999,"endTime":106.81026649999998,"instrument":9,"program":30},{"pitch":54,"velocity":128,"startTime":106.55164599999999,"endTime":106.81026649999998,"instrument":9,"program":30},{"pitch":50,"velocity":128,"startTime":106.81026649999998,"endTime":107.06888699999998,"instrument":9,"program":30},{"pitch":57,"velocity":128,"startTime":106.81026649999998,"endTime":107.06888699999998,"instrument":9,"program":30},{"pitch":62,"velocity":128,"startTime":106.81026649999998,"endTime":107.06888699999998,"instrument":9,"program":30},{"pitch":50,"velocity":128,"startTime":107.06888699999998,"endTime":107.58612799999999,"instrument":9,"program":30},{"pitch":57,"velocity":128,"startTime":107.06888699999998,"endTime":107.58612799999999,"instrument":9,"program":30},{"pitch":62,"velocity":128,"startTime":107.06888699999998,"endTime":107.58612799999999,"instrument":9,"program":30},{"pitch":40,"velocity":128,"startTime":107.58612799999999,"endTime":108.10336899999999,"instrument":9,"program":30},{"pitch":47,"velocity":128,"startTime":107.58612799999999,"endTime":108.10336899999999,"instrument":9,"program":30},{"pitch":52,"velocity":128,"startTime":107.58612799999999,"endTime":108.10336899999999,"instrument":9,"program":30},{"pitch":40,"velocity":128,"startTime":108.10336899999999,"endTime":108.62061,"instrument":9,"program":30},{"pitch":47,"velocity":128,"startTime":108.10336899999999,"endTime":108.62061,"instrument":9,"program":30},{"pitch":52,"velocity":128,"startTime":108.10336899999999,"endTime":108.62061,"instrument":9,"program":30},{"pitch":44,"velocity":128,"startTime":108.62061,"endTime":109.137851,"instrument":9,"program":30},{"pitch":51,"velocity":128,"startTime":108.62061,"endTime":109.137851,"instrument":9,"program":30},{"pitch":56,"velocity":128,"startTime":108.62061,"endTime":109.137851,"instrument":9,"program":30},{"pitch":44,"velocity":128,"startTime":109.137851,"endTime":109.65509200000001,"instrument":9,"program":30},{"pitch":51,"velocity":128,"startTime":109.137851,"endTime":109.65509200000001,"instrument":9,"program":30},{"pitch":56,"velocity":128,"startTime":109.137851,"endTime":109.65509200000001,"instrument":9,"program":30},{"pitch":49,"velocity":128,"startTime":109.65509200000001,"endTime":110.17233300000001,"instrument":9,"program":30},{"pitch":56,"velocity":128,"startTime":109.65509200000001,"endTime":110.17233300000001,"instrument":9,"program":30},{"pitch":61,"velocity":128,"startTime":109.65509200000001,"endTime":110.17233300000001,"instrument":9,"program":30},{"pitch":49,"velocity":128,"startTime":110.17233300000001,"endTime":110.68957400000002,"instrument":9,"program":30},{"pitch":56,"velocity":128,"startTime":110.17233300000001,"endTime":110.68957400000002,"instrument":9,"program":30},{"pitch":61,"velocity":128,"startTime":110.17233300000001,"endTime":110.68957400000002,"instrument":9,"program":30},{"pitch":45,"velocity":128,"startTime":110.68957400000002,"endTime":111.20681500000002,"instrument":9,"program":30},{"pitch":52,"velocity":128,"startTime":110.68957400000002,"endTime":111.20681500000002,"instrument":9,"program":30},{"pitch":57,"velocity":128,"startTime":110.68957400000002,"endTime":111.20681500000002,"instrument":9,"program":30},{"pitch":45,"velocity":128,"startTime":111.20681500000002,"endTime":111.72405600000003,"instrument":9,"program":30},{"pitch":52,"velocity":128,"startTime":111.20681500000002,"endTime":111.72405600000003,"instrument":9,"program":30},{"pitch":57,"velocity":128,"startTime":111.20681500000002,"endTime":111.72405600000003,"instrument":9,"program":30},{"pitch":48,"velocity":128,"startTime":111.72405600000003,"endTime":111.98267650000003,"instrument":9,"program":30},{"pitch":55,"velocity":128,"startTime":111.72405600000003,"endTime":111.98267650000003,"instrument":9,"program":30},{"pitch":60,"velocity":128,"startTime":111.72405600000003,"endTime":111.98267650000003,"instrument":9,"program":30},{"pitch":48,"velocity":128,"startTime":111.98267650000003,"endTime":112.24129700000002,"instrument":9,"program":30},{"pitch":55,"velocity":128,"startTime":111.98267650000003,"endTime":112.24129700000002,"instrument":9,"program":30},{"pitch":60,"velocity":128,"startTime":111.98267650000003,"endTime":112.24129700000002,"instrument":9,"program":30},{"pitch":48,"velocity":128,"startTime":112.24129700000002,"endTime":112.49991750000001,"instrument":9,"program":30},{"pitch":55,"velocity":128,"startTime":112.24129700000002,"endTime":112.49991750000001,"instrument":9,"program":30},{"pitch":60,"velocity":128,"startTime":112.24129700000002,"endTime":112.49991750000001,"instrument":9,"program":30},{"pitch":48,"velocity":128,"startTime":112.49991750000001,"endTime":112.62922775000001,"instrument":9,"program":30},{"pitch":55,"velocity":128,"startTime":112.49991750000001,"endTime":112.62922775000001,"instrument":9,"program":30},{"pitch":60,"velocity":128,"startTime":112.49991750000001,"endTime":112.62922775000001,"instrument":9,"program":30},{"pitch":48,"velocity":128,"startTime":112.62922775000001,"endTime":112.75853800000002,"instrument":9,"program":30},{"pitch":55,"velocity":128,"startTime":112.62922775000001,"endTime":112.75853800000002,"instrument":9,"program":30},{"pitch":60,"velocity":128,"startTime":112.62922775000001,"endTime":112.75853800000002,"instrument":9,"program":30},{"pitch":48,"velocity":128,"startTime":112.75853800000002,"endTime":113.01715850000001,"instrument":9,"program":30},{"pitch":55,"velocity":128,"startTime":112.75853800000002,"endTime":113.01715850000001,"instrument":9,"program":30},{"pitch":60,"velocity":128,"startTime":112.75853800000002,"endTime":113.01715850000001,"instrument":9,"program":30},{"pitch":50,"velocity":128,"startTime":113.01715850000001,"endTime":113.27577900000001,"instrument":9,"program":30},{"pitch":57,"velocity":128,"startTime":113.01715850000001,"endTime":113.27577900000001,"instrument":9,"program":30},{"pitch":62,"velocity":128,"startTime":113.01715850000001,"endTime":113.27577900000001,"instrument":9,"program":30},{"pitch":50,"velocity":128,"startTime":113.27577900000001,"endTime":113.79302000000001,"instrument":9,"program":30},{"pitch":57,"velocity":128,"startTime":113.27577900000001,"endTime":113.79302000000001,"instrument":9,"program":30},{"pitch":62,"velocity":128,"startTime":113.27577900000001,"endTime":113.79302000000001,"instrument":9,"program":30},{"pitch":47,"velocity":128,"startTime":113.79302000000001,"endTime":114.0516405,"instrument":9,"program":30},{"pitch":54,"velocity":128,"startTime":113.79302000000001,"endTime":114.0516405,"instrument":9,"program":30},{"pitch":59,"velocity":128,"startTime":113.79302000000001,"endTime":114.0516405,"instrument":9,"program":30},{"pitch":47,"velocity":128,"startTime":114.0516405,"endTime":114.310261,"instrument":9,"program":30},{"pitch":59,"velocity":128,"startTime":114.0516405,"endTime":114.310261,"instrument":9,"program":30},{"pitch":54,"velocity":128,"startTime":114.0516405,"endTime":114.310261,"instrument":9,"program":30},{"pitch":47,"velocity":128,"startTime":114.310261,"endTime":114.5688815,"instrument":9,"program":30},{"pitch":59,"velocity":128,"startTime":114.310261,"endTime":114.5688815,"instrument":9,"program":30},{"pitch":54,"velocity":128,"startTime":114.310261,"endTime":114.5688815,"instrument":9,"program":30},{"pitch":47,"velocity":128,"startTime":114.5688815,"endTime":114.69819175,"instrument":9,"program":30},{"pitch":54,"velocity":128,"startTime":114.5688815,"endTime":114.69819175,"instrument":9,"program":30},{"pitch":59,"velocity":128,"startTime":114.5688815,"endTime":114.69819175,"instrument":9,"program":30},{"pitch":47,"velocity":128,"startTime":114.69819175,"endTime":114.82750200000001,"instrument":9,"program":30},{"pitch":59,"velocity":128,"startTime":114.69819175,"endTime":114.82750200000001,"instrument":9,"program":30},{"pitch":54,"velocity":128,"startTime":114.69819175,"endTime":114.82750200000001,"instrument":9,"program":30},{"pitch":47,"velocity":128,"startTime":114.82750200000001,"endTime":115.0861225,"instrument":9,"program":30},{"pitch":59,"velocity":128,"startTime":114.82750200000001,"endTime":115.0861225,"instrument":9,"program":30},{"pitch":54,"velocity":128,"startTime":114.82750200000001,"endTime":115.0861225,"instrument":9,"program":30},{"pitch":50,"velocity":128,"startTime":115.0861225,"endTime":115.344743,"instrument":9,"program":30},{"pitch":57,"velocity":128,"startTime":115.0861225,"endTime":115.344743,"instrument":9,"program":30},{"pitch":62,"velocity":128,"startTime":115.0861225,"endTime":115.344743,"instrument":9,"program":30},{"pitch":50,"velocity":128,"startTime":115.344743,"endTime":115.861984,"instrument":9,"program":30},{"pitch":57,"velocity":128,"startTime":115.344743,"endTime":115.861984,"instrument":9,"program":30},{"pitch":62,"velocity":128,"startTime":115.344743,"endTime":115.861984,"instrument":9,"program":30},{"pitch":45,"velocity":128,"startTime":115.861984,"endTime":116.379225,"instrument":9,"program":30},{"pitch":57,"velocity":128,"startTime":115.861984,"endTime":116.379225,"instrument":9,"program":30},{"pitch":52,"velocity":128,"startTime":115.861984,"endTime":116.379225,"instrument":9,"program":30},{"pitch":57,"velocity":128,"startTime":116.379225,"endTime":116.81025916666667,"instrument":9,"program":30},{"pitch":52,"velocity":128,"startTime":116.379225,"endTime":116.896466,"instrument":9,"program":30},{"pitch":45,"velocity":128,"startTime":116.379225,"endTime":116.896466,"instrument":9,"program":30},{"pitch":50,"velocity":128,"startTime":116.6378455,"endTime":116.81025916666667,"instrument":9,"program":30},{"pitch":62,"velocity":128,"startTime":116.6378455,"endTime":116.81025916666667,"instrument":9,"program":30},{"pitch":57,"velocity":128,"startTime":116.6378455,"endTime":116.896466,"instrument":9,"program":30},{"pitch":48,"velocity":128,"startTime":116.896466,"endTime":117.413707,"instrument":9,"program":30},{"pitch":55,"velocity":128,"startTime":116.896466,"endTime":117.413707,"instrument":9,"program":30},{"pitch":60,"velocity":128,"startTime":116.896466,"endTime":117.413707,"instrument":9,"program":30},{"pitch":60,"velocity":128,"startTime":117.413707,"endTime":117.930948,"instrument":9,"program":30},{"pitch":55,"velocity":128,"startTime":117.413707,"endTime":117.930948,"instrument":9,"program":30},{"pitch":48,"velocity":128,"startTime":117.413707,"endTime":117.930948,"instrument":9,"program":30},{"pitch":45,"velocity":128,"startTime":117.930948,"endTime":118.44818900000001,"instrument":9,"program":30},{"pitch":52,"velocity":128,"startTime":117.930948,"endTime":118.44818900000001,"instrument":9,"program":30},{"pitch":57,"velocity":128,"startTime":117.930948,"endTime":118.44818900000001,"instrument":9,"program":30},{"pitch":52,"velocity":128,"startTime":118.44818900000001,"endTime":118.96543000000001,"instrument":9,"program":30},{"pitch":45,"velocity":128,"startTime":118.44818900000001,"endTime":118.96543000000001,"instrument":9,"program":30},{"pitch":57,"velocity":128,"startTime":118.44818900000001,"endTime":118.96543000000001,"instrument":9,"program":30},{"pitch":55,"velocity":128,"startTime":118.96543000000001,"endTime":119.22405050000002,"instrument":9,"program":30},{"pitch":50,"velocity":128,"startTime":118.96543000000001,"endTime":119.22405050000002,"instrument":9,"program":30},{"pitch":43,"velocity":128,"startTime":118.96543000000001,"endTime":119.22405050000002,"instrument":9,"program":30},{"pitch":57,"velocity":128,"startTime":119.22405050000002,"endTime":119.74129150000002,"instrument":9,"program":30},{"pitch":52,"velocity":128,"startTime":119.22405050000002,"endTime":119.74129150000002,"instrument":9,"program":30},{"pitch":45,"velocity":128,"startTime":119.22405050000002,"endTime":119.74129150000002,"instrument":9,"program":30},{"pitch":55,"velocity":128,"startTime":119.74129150000002,"endTime":119.99991200000001,"instrument":9,"program":30},{"pitch":50,"velocity":128,"startTime":119.74129150000002,"endTime":119.99991200000001,"instrument":9,"program":30},{"pitch":43,"velocity":128,"startTime":119.74129150000002,"endTime":119.99991200000001,"instrument":9,"program":30},{"pitch":45,"velocity":128,"startTime":119.99991200000001,"endTime":120.51715300000002,"instrument":9,"program":30},{"pitch":57,"velocity":128,"startTime":119.99991200000001,"endTime":120.51715300000002,"instrument":9,"program":30},{"pitch":52,"velocity":128,"startTime":119.99991200000001,"endTime":120.51715300000002,"instrument":9,"program":30},{"pitch":57,"velocity":128,"startTime":120.51715300000002,"endTime":120.94818716666668,"instrument":9,"program":30},{"pitch":52,"velocity":128,"startTime":120.51715300000002,"endTime":121.034394,"instrument":9,"program":30},{"pitch":45,"velocity":128,"startTime":120.51715300000002,"endTime":121.034394,"instrument":9,"program":30},{"pitch":50,"velocity":128,"startTime":120.77577350000001,"endTime":120.94818716666668,"instrument":9,"program":30},{"pitch":62,"velocity":128,"startTime":120.77577350000001,"endTime":120.94818716666668,"instrument":9,"program":30},{"pitch":57,"velocity":128,"startTime":120.77577350000001,"endTime":121.034394,"instrument":9,"program":30},{"pitch":48,"velocity":128,"startTime":121.034394,"endTime":121.551635,"instrument":9,"program":30},{"pitch":55,"velocity":128,"startTime":121.034394,"endTime":121.551635,"instrument":9,"program":30},{"pitch":60,"velocity":128,"startTime":121.034394,"endTime":121.551635,"instrument":9,"program":30},{"pitch":60,"velocity":128,"startTime":121.551635,"endTime":122.06887600000002,"instrument":9,"program":30},{"pitch":55,"velocity":128,"startTime":121.551635,"endTime":122.06887600000002,"instrument":9,"program":30},{"pitch":48,"velocity":128,"startTime":121.551635,"endTime":122.06887600000002,"instrument":9,"program":30},{"pitch":45,"velocity":128,"startTime":122.06887600000002,"endTime":122.58611700000002,"instrument":9,"program":30},{"pitch":52,"velocity":128,"startTime":122.06887600000002,"endTime":122.58611700000002,"instrument":9,"program":30},{"pitch":57,"velocity":128,"startTime":122.06887600000002,"endTime":122.58611700000002,"instrument":9,"program":30},{"pitch":52,"velocity":128,"startTime":122.58611700000002,"endTime":123.10335800000003,"instrument":9,"program":30},{"pitch":45,"velocity":128,"startTime":122.58611700000002,"endTime":123.10335800000003,"instrument":9,"program":30},{"pitch":57,"velocity":128,"startTime":122.58611700000002,"endTime":123.10335800000003,"instrument":9,"program":30},{"pitch":55,"velocity":128,"startTime":123.10335800000003,"endTime":123.36197850000002,"instrument":9,"program":30},{"pitch":50,"velocity":128,"startTime":123.10335800000003,"endTime":123.36197850000002,"instrument":9,"program":30},{"pitch":43,"velocity":128,"startTime":123.10335800000003,"endTime":123.36197850000002,"instrument":9,"program":30},{"pitch":57,"velocity":128,"startTime":123.36197850000002,"endTime":123.87921950000002,"instrument":9,"program":30},{"pitch":52,"velocity":128,"startTime":123.36197850000002,"endTime":123.87921950000002,"instrument":9,"program":30},{"pitch":45,"velocity":128,"startTime":123.36197850000002,"endTime":123.87921950000002,"instrument":9,"program":30},{"pitch":55,"velocity":128,"startTime":123.87921950000002,"endTime":124.13784000000003,"instrument":9,"program":30},{"pitch":50,"velocity":128,"startTime":123.87921950000002,"endTime":124.13784000000003,"instrument":9,"program":30},{"pitch":43,"velocity":128,"startTime":123.87921950000002,"endTime":124.13784000000003,"instrument":9,"program":30},{"pitch":45,"velocity":128,"startTime":124.13784000000003,"endTime":124.65508100000002,"instrument":9,"program":30},{"pitch":57,"velocity":128,"startTime":124.13784000000003,"endTime":124.65508100000002,"instrument":9,"program":30},{"pitch":52,"velocity":128,"startTime":124.13784000000003,"endTime":124.65508100000002,"instrument":9,"program":30},{"pitch":57,"velocity":128,"startTime":124.65508100000002,"endTime":125.08611516666669,"instrument":9,"program":30},{"pitch":52,"velocity":128,"startTime":124.65508100000002,"endTime":125.17232200000001,"instrument":9,"program":30},{"pitch":45,"velocity":128,"startTime":124.65508100000002,"endTime":125.17232200000001,"instrument":9,"program":30},{"pitch":50,"velocity":128,"startTime":124.91370150000002,"endTime":125.08611516666669,"instrument":9,"program":30},{"pitch":62,"velocity":128,"startTime":124.91370150000002,"endTime":125.08611516666669,"instrument":9,"program":30},{"pitch":57,"velocity":128,"startTime":124.91370150000002,"endTime":125.17232200000001,"instrument":9,"program":30},{"pitch":48,"velocity":128,"startTime":125.17232200000001,"endTime":125.68956300000002,"instrument":9,"program":30},{"pitch":55,"velocity":128,"startTime":125.17232200000001,"endTime":125.68956300000002,"instrument":9,"program":30},{"pitch":60,"velocity":128,"startTime":125.17232200000001,"endTime":125.68956300000002,"instrument":9,"program":30},{"pitch":60,"velocity":128,"startTime":125.68956300000002,"endTime":126.20680400000002,"instrument":9,"program":30},{"pitch":55,"velocity":128,"startTime":125.68956300000002,"endTime":126.20680400000002,"instrument":9,"program":30},{"pitch":48,"velocity":128,"startTime":125.68956300000002,"endTime":126.20680400000002,"instrument":9,"program":30},{"pitch":45,"velocity":128,"startTime":126.20680400000002,"endTime":126.72404500000003,"instrument":9,"program":30},{"pitch":52,"velocity":128,"startTime":126.20680400000002,"endTime":126.72404500000003,"instrument":9,"program":30},{"pitch":57,"velocity":128,"startTime":126.20680400000002,"endTime":126.72404500000003,"instrument":9,"program":30},{"pitch":52,"velocity":128,"startTime":126.72404500000003,"endTime":127.24128600000003,"instrument":9,"program":30},{"pitch":45,"velocity":128,"startTime":126.72404500000003,"endTime":127.24128600000003,"instrument":9,"program":30},{"pitch":57,"velocity":128,"startTime":126.72404500000003,"endTime":127.24128600000003,"instrument":9,"program":30},{"pitch":55,"velocity":128,"startTime":127.24128600000003,"endTime":127.49990650000002,"instrument":9,"program":30},{"pitch":50,"velocity":128,"startTime":127.24128600000003,"endTime":127.49990650000002,"instrument":9,"program":30},{"pitch":43,"velocity":128,"startTime":127.24128600000003,"endTime":127.49990650000002,"instrument":9,"program":30},{"pitch":57,"velocity":128,"startTime":127.49990650000002,"endTime":128.01714750000002,"instrument":9,"program":30},{"pitch":52,"velocity":128,"startTime":127.49990650000002,"endTime":128.01714750000002,"instrument":9,"program":30},{"pitch":45,"velocity":128,"startTime":127.49990650000002,"endTime":128.01714750000002,"instrument":9,"program":30},{"pitch":55,"velocity":128,"startTime":128.01714750000002,"endTime":128.27576800000003,"instrument":9,"program":30},{"pitch":50,"velocity":128,"startTime":128.01714750000002,"endTime":128.27576800000003,"instrument":9,"program":30},{"pitch":43,"velocity":128,"startTime":128.01714750000002,"endTime":128.27576800000003,"instrument":9,"program":30},{"pitch":45,"velocity":128,"startTime":128.27576800000003,"endTime":128.79300900000004,"instrument":9,"program":30},{"pitch":57,"velocity":128,"startTime":128.27576800000003,"endTime":128.79300900000004,"instrument":9,"program":30},{"pitch":52,"velocity":128,"startTime":128.27576800000003,"endTime":128.79300900000004,"instrument":9,"program":30},{"pitch":57,"velocity":128,"startTime":128.79300900000004,"endTime":129.2240431666667,"instrument":9,"program":30},{"pitch":52,"velocity":128,"startTime":128.79300900000004,"endTime":129.31025000000002,"instrument":9,"program":30},{"pitch":45,"velocity":128,"startTime":128.79300900000004,"endTime":129.31025000000002,"instrument":9,"program":30},{"pitch":50,"velocity":128,"startTime":129.05162950000002,"endTime":129.2240431666667,"instrument":9,"program":30},{"pitch":62,"velocity":128,"startTime":129.05162950000002,"endTime":129.2240431666667,"instrument":9,"program":30},{"pitch":57,"velocity":128,"startTime":129.05162950000002,"endTime":129.31025000000002,"instrument":9,"program":30},{"pitch":48,"velocity":128,"startTime":129.31025000000002,"endTime":129.82749100000004,"instrument":9,"program":30},{"pitch":55,"velocity":128,"startTime":129.31025000000002,"endTime":129.82749100000004,"instrument":9,"program":30},{"pitch":60,"velocity":128,"startTime":129.31025000000002,"endTime":129.82749100000004,"instrument":9,"program":30},{"pitch":60,"velocity":128,"startTime":129.82749100000004,"endTime":130.34473200000002,"instrument":9,"program":30},{"pitch":55,"velocity":128,"startTime":129.82749100000004,"endTime":130.34473200000002,"instrument":9,"program":30},{"pitch":48,"velocity":128,"startTime":129.82749100000004,"endTime":130.34473200000002,"instrument":9,"program":30},{"pitch":45,"velocity":128,"startTime":130.34473200000002,"endTime":130.86197300000003,"instrument":9,"program":30},{"pitch":52,"velocity":128,"startTime":130.34473200000002,"endTime":130.86197300000003,"instrument":9,"program":30},{"pitch":57,"velocity":128,"startTime":130.34473200000002,"endTime":130.86197300000003,"instrument":9,"program":30},{"pitch":52,"velocity":128,"startTime":130.86197300000003,"endTime":131.37921400000005,"instrument":9,"program":30},{"pitch":45,"velocity":128,"startTime":130.86197300000003,"endTime":131.37921400000005,"instrument":9,"program":30},{"pitch":57,"velocity":128,"startTime":130.86197300000003,"endTime":131.37921400000005,"instrument":9,"program":30},{"pitch":55,"velocity":128,"startTime":131.37921400000005,"endTime":131.63783450000003,"instrument":9,"program":30},{"pitch":50,"velocity":128,"startTime":131.37921400000005,"endTime":131.63783450000003,"instrument":9,"program":30},{"pitch":43,"velocity":128,"startTime":131.37921400000005,"endTime":131.63783450000003,"instrument":9,"program":30},{"pitch":57,"velocity":128,"startTime":131.63783450000003,"endTime":132.15507550000004,"instrument":9,"program":30},{"pitch":52,"velocity":128,"startTime":131.63783450000003,"endTime":132.15507550000004,"instrument":9,"program":30},{"pitch":45,"velocity":128,"startTime":131.63783450000003,"endTime":132.15507550000004,"instrument":9,"program":30},{"pitch":55,"velocity":128,"startTime":132.15507550000004,"endTime":132.41369600000004,"instrument":9,"program":30},{"pitch":50,"velocity":128,"startTime":132.15507550000004,"endTime":132.41369600000004,"instrument":9,"program":30},{"pitch":43,"velocity":128,"startTime":132.15507550000004,"endTime":132.41369600000004,"instrument":9,"program":30},{"pitch":50,"velocity":128,"startTime":132.41369600000004,"endTime":132.67231650000002,"instrument":9,"program":30},{"pitch":57,"velocity":128,"startTime":132.41369600000004,"endTime":132.67231650000002,"instrument":9,"program":30},{"pitch":62,"velocity":128,"startTime":132.41369600000004,"endTime":132.67231650000002,"instrument":9,"program":30},{"pitch":50,"velocity":128,"startTime":132.67231650000002,"endTime":132.93093700000003,"instrument":9,"program":30},{"pitch":57,"velocity":128,"startTime":132.67231650000002,"endTime":132.93093700000003,"instrument":9,"program":30},{"pitch":62,"velocity":128,"startTime":132.67231650000002,"endTime":132.93093700000003,"instrument":9,"program":30},{"pitch":50,"velocity":128,"startTime":132.93093700000003,"endTime":133.18955750000003,"instrument":9,"program":30},{"pitch":57,"velocity":128,"startTime":132.93093700000003,"endTime":133.18955750000003,"instrument":9,"program":30},{"pitch":62,"velocity":128,"startTime":132.93093700000003,"endTime":133.18955750000003,"instrument":9,"program":30},{"pitch":50,"velocity":128,"startTime":133.18955750000003,"endTime":133.448178,"instrument":9,"program":30},{"pitch":57,"velocity":128,"startTime":133.18955750000003,"endTime":133.448178,"instrument":9,"program":30},{"pitch":62,"velocity":128,"startTime":133.18955750000003,"endTime":133.448178,"instrument":9,"program":30},{"pitch":50,"velocity":128,"startTime":133.448178,"endTime":133.70679850000002,"instrument":9,"program":30},{"pitch":57,"velocity":128,"startTime":133.448178,"endTime":133.70679850000002,"instrument":9,"program":30},{"pitch":62,"velocity":128,"startTime":133.448178,"endTime":133.70679850000002,"instrument":9,"program":30},{"pitch":50,"velocity":128,"startTime":133.70679850000002,"endTime":133.965419,"instrument":9,"program":30},{"pitch":62,"velocity":128,"startTime":133.70679850000002,"endTime":133.965419,"instrument":9,"program":30},{"pitch":50,"velocity":128,"startTime":133.965419,"endTime":134.2240395,"instrument":9,"program":30},{"pitch":57,"velocity":128,"startTime":133.965419,"endTime":134.2240395,"instrument":9,"program":30},{"pitch":62,"velocity":128,"startTime":133.965419,"endTime":134.2240395,"instrument":9,"program":30},{"pitch":50,"velocity":128,"startTime":134.2240395,"endTime":134.48265999999998,"instrument":9,"program":30},{"pitch":57,"velocity":128,"startTime":134.2240395,"endTime":134.48265999999998,"instrument":9,"program":30},{"pitch":62,"velocity":128,"startTime":134.2240395,"endTime":134.48265999999998,"instrument":9,"program":30},{"pitch":47,"velocity":128,"startTime":134.48265999999998,"endTime":134.7412805,"instrument":9,"program":30},{"pitch":54,"velocity":128,"startTime":134.48265999999998,"endTime":134.7412805,"instrument":9,"program":30},{"pitch":59,"velocity":128,"startTime":134.48265999999998,"endTime":134.7412805,"instrument":9,"program":30},{"pitch":47,"velocity":128,"startTime":134.7412805,"endTime":134.999901,"instrument":9,"program":30},{"pitch":54,"velocity":128,"startTime":134.7412805,"endTime":134.999901,"instrument":9,"program":30},{"pitch":59,"velocity":128,"startTime":134.7412805,"endTime":134.999901,"instrument":9,"program":30},{"pitch":47,"velocity":128,"startTime":134.999901,"endTime":135.25852149999997,"instrument":9,"program":30},{"pitch":54,"velocity":128,"startTime":134.999901,"endTime":135.25852149999997,"instrument":9,"program":30},{"pitch":59,"velocity":128,"startTime":134.999901,"endTime":135.25852149999997,"instrument":9,"program":30},{"pitch":47,"velocity":128,"startTime":135.25852149999997,"endTime":135.51714199999998,"instrument":9,"program":30},{"pitch":54,"velocity":128,"startTime":135.25852149999997,"endTime":135.51714199999998,"instrument":9,"program":30},{"pitch":59,"velocity":128,"startTime":135.25852149999997,"endTime":135.51714199999998,"instrument":9,"program":30},{"pitch":47,"velocity":128,"startTime":135.51714199999998,"endTime":135.77576249999996,"instrument":9,"program":30},{"pitch":54,"velocity":128,"startTime":135.51714199999998,"endTime":135.77576249999996,"instrument":9,"program":30},{"pitch":59,"velocity":128,"startTime":135.51714199999998,"endTime":135.77576249999996,"instrument":9,"program":30},{"pitch":40,"velocity":128,"startTime":135.77576249999996,"endTime":136.1205898333333,"instrument":9,"program":30},{"pitch":47,"velocity":128,"startTime":135.77576249999996,"endTime":136.03438299999996,"instrument":9,"program":30},{"pitch":52,"velocity":128,"startTime":135.77576249999996,"endTime":136.03438299999996,"instrument":9,"program":30},{"pitch":43,"velocity":128,"startTime":136.03438299999996,"endTime":136.37921033333328,"instrument":9,"program":30},{"pitch":50,"velocity":128,"startTime":136.03438299999996,"endTime":136.55162399999995,"instrument":9,"program":30},{"pitch":55,"velocity":128,"startTime":136.03438299999996,"endTime":136.55162399999995,"instrument":9,"program":30},{"pitch":52,"velocity":128,"startTime":136.55162399999995,"endTime":137.93632126041663,"instrument":9,"program":30},{"pitch":47,"velocity":128,"startTime":136.55162399999995,"endTime":137.93632126041663,"instrument":9,"program":30},{"pitch":40,"velocity":128,"startTime":136.55162399999995,"endTime":137.93632126041663,"instrument":9,"program":30},{"pitch":35,"velocity":128,"startTime":39.310316,"endTime":39.56893650000001,"instrument":10,"program":42},{"pitch":35,"velocity":128,"startTime":39.56893650000001,"endTime":39.827557000000006,"instrument":10,"program":42},{"pitch":35,"velocity":128,"startTime":39.827557000000006,"endTime":40.08617750000001,"instrument":10,"program":42},{"pitch":35,"velocity":128,"startTime":40.08617750000001,"endTime":40.21548775000001,"instrument":10,"program":42},{"pitch":35,"velocity":128,"startTime":40.21548775000001,"endTime":40.344798000000004,"instrument":10,"program":42},{"pitch":35,"velocity":128,"startTime":40.344798000000004,"endTime":40.603418500000004,"instrument":10,"program":42},{"pitch":38,"velocity":128,"startTime":40.603418500000004,"endTime":40.86203900000001,"instrument":10,"program":42},{"pitch":38,"velocity":128,"startTime":40.86203900000001,"endTime":41.37928000000001,"instrument":10,"program":42},{"pitch":28,"velocity":128,"startTime":41.37928000000001,"endTime":41.89652100000001,"instrument":10,"program":42},{"pitch":28,"velocity":128,"startTime":41.89652100000001,"endTime":42.413762,"instrument":10,"program":42},{"pitch":32,"velocity":128,"startTime":42.413762,"endTime":42.931003,"instrument":10,"program":42},{"pitch":32,"velocity":128,"startTime":42.931003,"endTime":43.448243999999995,"instrument":10,"program":42},{"pitch":37,"velocity":128,"startTime":43.448243999999995,"endTime":43.965484999999994,"instrument":10,"program":42},{"pitch":37,"velocity":128,"startTime":43.965484999999994,"endTime":44.48272599999999,"instrument":10,"program":42},{"pitch":33,"velocity":128,"startTime":44.48272599999999,"endTime":44.999966999999984,"instrument":10,"program":42},{"pitch":33,"velocity":128,"startTime":44.999966999999984,"endTime":45.51720799999998,"instrument":10,"program":42},{"pitch":36,"velocity":128,"startTime":45.51720799999998,"endTime":45.77582849999999,"instrument":10,"program":42},{"pitch":36,"velocity":128,"startTime":45.77582849999999,"endTime":46.03444899999999,"instrument":10,"program":42},{"pitch":36,"velocity":128,"startTime":46.03444899999999,"endTime":46.293069499999994,"instrument":10,"program":42},{"pitch":36,"velocity":128,"startTime":46.293069499999994,"endTime":46.37927633333332,"instrument":10,"program":42},{"pitch":36,"velocity":128,"startTime":46.42237974999999,"endTime":46.508586583333326,"instrument":10,"program":42},{"pitch":36,"velocity":128,"startTime":46.55168999999999,"endTime":46.810310499999986,"instrument":10,"program":42},{"pitch":38,"velocity":128,"startTime":46.810310499999986,"endTime":47.06893099999999,"instrument":10,"program":42},{"pitch":38,"velocity":128,"startTime":47.06893099999999,"endTime":47.41375833333333,"instrument":10,"program":42},{"pitch":36,"velocity":128,"startTime":47.32755149999999,"endTime":47.49996516666666,"instrument":10,"program":42},{"pitch":35,"velocity":128,"startTime":47.586172,"endTime":47.8447925,"instrument":10,"program":42},{"pitch":35,"velocity":128,"startTime":47.8447925,"endTime":48.103413,"instrument":10,"program":42},{"pitch":35,"velocity":128,"startTime":48.103413,"endTime":48.3620335,"instrument":10,"program":42},{"pitch":35,"velocity":128,"startTime":48.3620335,"endTime":48.44824033333334,"instrument":10,"program":42},{"pitch":35,"velocity":128,"startTime":48.49134375,"endTime":48.577550583333334,"instrument":10,"program":42},{"pitch":35,"velocity":128,"startTime":48.620653999999995,"endTime":48.8792745,"instrument":10,"program":42},{"pitch":38,"velocity":128,"startTime":48.8792745,"endTime":49.137895,"instrument":10,"program":42},{"pitch":38,"velocity":128,"startTime":49.137895,"endTime":49.48272233333334,"instrument":10,"program":42},{"pitch":36,"velocity":128,"startTime":49.39651550000001,"endTime":49.56892916666667,"instrument":10,"program":42},{"pitch":28,"velocity":128,"startTime":49.655136000000006,"endTime":50.172377000000004,"instrument":10,"program":42},{"pitch":28,"velocity":128,"startTime":50.172377000000004,"endTime":50.689618,"instrument":10,"program":42},{"pitch":32,"velocity":128,"startTime":50.689618,"endTime":51.206859,"instrument":10,"program":42},{"pitch":32,"velocity":128,"startTime":51.206859,"endTime":51.72409999999999,"instrument":10,"program":42},{"pitch":37,"velocity":128,"startTime":51.72409999999999,"endTime":52.24134099999999,"instrument":10,"program":42},{"pitch":37,"velocity":128,"startTime":52.24134099999999,"endTime":52.75858199999999,"instrument":10,"program":42},{"pitch":33,"velocity":128,"startTime":52.75858199999999,"endTime":53.27582299999999,"instrument":10,"program":42},{"pitch":33,"velocity":128,"startTime":53.27582299999999,"endTime":53.79306399999999,"instrument":10,"program":42},{"pitch":36,"velocity":128,"startTime":53.79306399999999,"endTime":54.051684499999986,"instrument":10,"program":42},{"pitch":36,"velocity":128,"startTime":54.051684499999986,"endTime":54.31030499999999,"instrument":10,"program":42},{"pitch":36,"velocity":128,"startTime":54.31030499999999,"endTime":54.56892549999999,"instrument":10,"program":42},{"pitch":36,"velocity":128,"startTime":54.56892549999999,"endTime":54.65513233333333,"instrument":10,"program":42},{"pitch":36,"velocity":128,"startTime":54.69823574999999,"endTime":54.78444258333332,"instrument":10,"program":42},{"pitch":36,"velocity":128,"startTime":54.827545999999984,"endTime":55.08616649999999,"instrument":10,"program":42},{"pitch":38,"velocity":128,"startTime":55.08616649999999,"endTime":55.34478699999999,"instrument":10,"program":42},{"pitch":38,"velocity":128,"startTime":55.34478699999999,"endTime":55.68961433333333,"instrument":10,"program":42},{"pitch":36,"velocity":128,"startTime":55.603407499999996,"endTime":55.77582116666666,"instrument":10,"program":42},{"pitch":35,"velocity":128,"startTime":55.862027999999995,"endTime":56.1206485,"instrument":10,"program":42},{"pitch":35,"velocity":128,"startTime":56.1206485,"endTime":56.379269,"instrument":10,"program":42},{"pitch":35,"velocity":128,"startTime":56.379269,"endTime":56.63788950000001,"instrument":10,"program":42},{"pitch":35,"velocity":128,"startTime":56.63788950000001,"endTime":56.724096333333335,"instrument":10,"program":42},{"pitch":35,"velocity":128,"startTime":56.76719975,"endTime":56.85340658333334,"instrument":10,"program":42},{"pitch":35,"velocity":128,"startTime":56.89651,"endTime":57.1551305,"instrument":10,"program":42},{"pitch":38,"velocity":128,"startTime":57.1551305,"endTime":57.413751000000005,"instrument":10,"program":42},{"pitch":38,"velocity":128,"startTime":57.413751000000005,"endTime":57.75857833333334,"instrument":10,"program":42},{"pitch":36,"velocity":128,"startTime":57.672371500000004,"endTime":57.844785166666675,"instrument":10,"program":42},{"pitch":28,"velocity":128,"startTime":57.93099200000001,"endTime":58.275819333333345,"instrument":10,"program":42},{"pitch":28,"velocity":128,"startTime":58.70685350000001,"endTime":59.05168083333334,"instrument":10,"program":42},{"pitch":32,"velocity":128,"startTime":58.965474000000015,"endTime":59.31030133333335,"instrument":10,"program":42},{"pitch":32,"velocity":128,"startTime":59.74133550000001,"endTime":59.913749166666676,"instrument":10,"program":42},{"pitch":37,"velocity":128,"startTime":59.99995600000001,"endTime":60.34478333333335,"instrument":10,"program":42},{"pitch":37,"velocity":128,"startTime":60.77581750000002,"endTime":61.12064483333335,"instrument":10,"program":42},{"pitch":33,"velocity":128,"startTime":61.034438000000016,"endTime":61.37926533333335,"instrument":10,"program":42},{"pitch":33,"velocity":128,"startTime":61.81029950000001,"endTime":61.982713166666684,"instrument":10,"program":42},{"pitch":36,"velocity":128,"startTime":62.06892000000002,"endTime":62.241333666666684,"instrument":10,"program":42},{"pitch":36,"velocity":128,"startTime":62.32754050000002,"endTime":62.49995416666669,"instrument":10,"program":42},{"pitch":36,"velocity":128,"startTime":62.586161000000025,"endTime":62.75857466666669,"instrument":10,"program":42},{"pitch":36,"velocity":128,"startTime":62.844781500000025,"endTime":62.93098833333336,"instrument":10,"program":42},{"pitch":36,"velocity":128,"startTime":62.97409175000002,"endTime":63.060298583333356,"instrument":10,"program":42},{"pitch":36,"velocity":128,"startTime":63.10340200000002,"endTime":63.27581566666669,"instrument":10,"program":42},{"pitch":38,"velocity":128,"startTime":63.36202250000002,"endTime":63.534436166666694,"instrument":10,"program":42},{"pitch":38,"velocity":128,"startTime":63.62064300000002,"endTime":63.79305666666669,"instrument":10,"program":42},{"pitch":35,"velocity":128,"startTime":64.13788400000003,"endTime":64.3102976666667,"instrument":10,"program":42},{"pitch":35,"velocity":128,"startTime":64.39650450000003,"endTime":64.5689181666667,"instrument":10,"program":42},{"pitch":35,"velocity":128,"startTime":64.65512500000004,"endTime":64.8275386666667,"instrument":10,"program":42},{"pitch":35,"velocity":128,"startTime":64.91374550000003,"endTime":64.99995233333337,"instrument":10,"program":42},{"pitch":35,"velocity":128,"startTime":65.04305575000004,"endTime":65.12926258333337,"instrument":10,"program":42},{"pitch":35,"velocity":128,"startTime":65.17236600000004,"endTime":65.3447796666667,"instrument":10,"program":42},{"pitch":38,"velocity":128,"startTime":65.43098650000003,"endTime":65.6034001666667,"instrument":10,"program":42},{"pitch":38,"velocity":128,"startTime":65.68960700000004,"endTime":65.86202066666671,"instrument":10,"program":42},{"pitch":28,"velocity":128,"startTime":66.20684800000004,"endTime":66.55167533333338,"instrument":10,"program":42},{"pitch":28,"velocity":128,"startTime":66.98270950000004,"endTime":67.32753683333338,"instrument":10,"program":42},{"pitch":32,"velocity":128,"startTime":67.24133000000005,"endTime":67.58615733333338,"instrument":10,"program":42},{"pitch":32,"velocity":128,"startTime":68.01719150000004,"endTime":68.18960516666671,"instrument":10,"program":42},{"pitch":37,"velocity":128,"startTime":68.27581200000004,"endTime":68.62063933333339,"instrument":10,"program":42},{"pitch":37,"velocity":128,"startTime":69.05167350000005,"endTime":69.39650083333338,"instrument":10,"program":42},{"pitch":33,"velocity":128,"startTime":69.31029400000006,"endTime":69.65512133333338,"instrument":10,"program":42},{"pitch":33,"velocity":128,"startTime":70.08615550000005,"endTime":70.25856916666672,"instrument":10,"program":42},{"pitch":36,"velocity":128,"startTime":70.34477600000005,"endTime":70.51718966666672,"instrument":10,"program":42},{"pitch":36,"velocity":128,"startTime":70.60339650000006,"endTime":70.77581016666672,"instrument":10,"program":42},{"pitch":36,"velocity":128,"startTime":70.86201700000005,"endTime":71.03443066666672,"instrument":10,"program":42},{"pitch":36,"velocity":128,"startTime":71.12063750000006,"endTime":71.2068443333334,"instrument":10,"program":42},{"pitch":36,"velocity":128,"startTime":71.24994775000006,"endTime":71.3361545833334,"instrument":10,"program":42},{"pitch":36,"velocity":128,"startTime":71.37925800000005,"endTime":71.55167166666672,"instrument":10,"program":42},{"pitch":38,"velocity":128,"startTime":71.63787850000004,"endTime":71.81029216666671,"instrument":10,"program":42},{"pitch":38,"velocity":128,"startTime":71.89649900000003,"endTime":72.0689126666667,"instrument":10,"program":42},{"pitch":35,"velocity":128,"startTime":72.41374000000003,"endTime":72.5861536666667,"instrument":10,"program":42},{"pitch":35,"velocity":128,"startTime":72.67236050000004,"endTime":72.8447741666667,"instrument":10,"program":42},{"pitch":35,"velocity":128,"startTime":72.93098100000003,"endTime":73.1033946666667,"instrument":10,"program":42},{"pitch":35,"velocity":128,"startTime":73.18960150000002,"endTime":73.27580833333334,"instrument":10,"program":42},{"pitch":35,"velocity":128,"startTime":73.31891175000001,"endTime":73.40511858333333,"instrument":10,"program":42},{"pitch":35,"velocity":128,"startTime":73.448222,"endTime":73.62063566666667,"instrument":10,"program":42},{"pitch":38,"velocity":128,"startTime":73.7068425,"endTime":73.87925616666666,"instrument":10,"program":42},{"pitch":38,"velocity":128,"startTime":73.96546299999999,"endTime":74.13787666666666,"instrument":10,"program":42},{"pitch":28,"velocity":128,"startTime":74.482704,"endTime":74.82753133333333,"instrument":10,"program":42},{"pitch":28,"velocity":128,"startTime":75.25856549999999,"endTime":75.60339283333332,"instrument":10,"program":42},{"pitch":32,"velocity":128,"startTime":75.517186,"endTime":75.86201333333331,"instrument":10,"program":42},{"pitch":32,"velocity":128,"startTime":76.29304749999997,"endTime":76.46546116666664,"instrument":10,"program":42},{"pitch":37,"velocity":128,"startTime":76.55166799999996,"endTime":76.8964953333333,"instrument":10,"program":42},{"pitch":37,"velocity":128,"startTime":77.32752949999997,"endTime":77.67235683333328,"instrument":10,"program":42},{"pitch":33,"velocity":128,"startTime":77.58614999999996,"endTime":77.93097733333329,"instrument":10,"program":42},{"pitch":33,"velocity":128,"startTime":78.36201149999995,"endTime":78.53442516666661,"instrument":10,"program":42},{"pitch":36,"velocity":128,"startTime":78.62063199999994,"endTime":78.79304566666661,"instrument":10,"program":42},{"pitch":36,"velocity":128,"startTime":78.87925249999994,"endTime":79.0516661666666,"instrument":10,"program":42},{"pitch":36,"velocity":128,"startTime":79.13787299999993,"endTime":79.3102866666666,"instrument":10,"program":42},{"pitch":36,"velocity":128,"startTime":79.39649349999992,"endTime":79.48270033333326,"instrument":10,"program":42},{"pitch":36,"velocity":128,"startTime":79.52580374999991,"endTime":79.61201058333324,"instrument":10,"program":42},{"pitch":36,"velocity":128,"startTime":79.6551139999999,"endTime":79.82752766666657,"instrument":10,"program":42},{"pitch":38,"velocity":128,"startTime":79.9137344999999,"endTime":80.08614816666656,"instrument":10,"program":42},{"pitch":38,"velocity":128,"startTime":80.1723549999999,"endTime":80.34476866666657,"instrument":10,"program":42},{"pitch":35,"velocity":128,"startTime":80.6895959999999,"endTime":80.86200966666657,"instrument":10,"program":42},{"pitch":35,"velocity":128,"startTime":80.94821649999989,"endTime":81.12063016666656,"instrument":10,"program":42},{"pitch":35,"velocity":128,"startTime":81.2068369999999,"endTime":81.37925066666655,"instrument":10,"program":42},{"pitch":35,"velocity":128,"startTime":81.46545749999989,"endTime":81.5516643333332,"instrument":10,"program":42},{"pitch":35,"velocity":128,"startTime":81.59476774999987,"endTime":81.6809745833332,"instrument":10,"program":42},{"pitch":35,"velocity":128,"startTime":81.72407799999986,"endTime":81.89649166666653,"instrument":10,"program":42},{"pitch":38,"velocity":128,"startTime":81.98269849999986,"endTime":82.15511216666653,"instrument":10,"program":42},{"pitch":38,"velocity":128,"startTime":82.24131899999985,"endTime":82.41373266666652,"instrument":10,"program":42},{"pitch":28,"velocity":128,"startTime":82.75855999999986,"endTime":83.10338733333319,"instrument":10,"program":42},{"pitch":28,"velocity":128,"startTime":83.53442149999985,"endTime":83.87924883333318,"instrument":10,"program":42},{"pitch":32,"velocity":128,"startTime":83.79304199999984,"endTime":84.13786933333317,"instrument":10,"program":42},{"pitch":32,"velocity":128,"startTime":84.56890349999983,"endTime":84.7413171666665,"instrument":10,"program":42},{"pitch":37,"velocity":128,"startTime":84.82752399999983,"endTime":85.17235133333317,"instrument":10,"program":42},{"pitch":37,"velocity":128,"startTime":85.60338549999983,"endTime":85.94821283333314,"instrument":10,"program":42},{"pitch":33,"velocity":128,"startTime":85.86200599999982,"endTime":86.20683333333314,"instrument":10,"program":42},{"pitch":33,"velocity":128,"startTime":86.6378674999998,"endTime":86.81028116666647,"instrument":10,"program":42},{"pitch":36,"velocity":128,"startTime":86.89648799999979,"endTime":87.06890166666646,"instrument":10,"program":42},{"pitch":36,"velocity":128,"startTime":87.1551084999998,"endTime":87.32752216666645,"instrument":10,"program":42},{"pitch":36,"velocity":128,"startTime":87.41372899999979,"endTime":87.58614266666646,"instrument":10,"program":42},{"pitch":36,"velocity":128,"startTime":87.67234949999978,"endTime":87.7585563333331,"instrument":10,"program":42},{"pitch":36,"velocity":128,"startTime":87.80165974999977,"endTime":87.88786658333309,"instrument":10,"program":42},{"pitch":36,"velocity":128,"startTime":87.93096999999976,"endTime":88.10338366666643,"instrument":10,"program":42},{"pitch":38,"velocity":128,"startTime":88.18959049999975,"endTime":88.36200416666642,"instrument":10,"program":42},{"pitch":38,"velocity":128,"startTime":88.44821099999974,"endTime":88.62062466666642,"instrument":10,"program":42},{"pitch":35,"velocity":128,"startTime":88.96545199999976,"endTime":89.13786566666643,"instrument":10,"program":42},{"pitch":35,"velocity":128,"startTime":89.22407249999975,"endTime":89.39648616666642,"instrument":10,"program":42},{"pitch":35,"velocity":128,"startTime":89.48269299999974,"endTime":89.65510666666641,"instrument":10,"program":42},{"pitch":35,"velocity":128,"startTime":89.74131349999973,"endTime":89.82752033333307,"instrument":10,"program":42},{"pitch":35,"velocity":128,"startTime":89.87062374999972,"endTime":89.95683058333306,"instrument":10,"program":42},{"pitch":35,"velocity":128,"startTime":89.99993399999971,"endTime":90.17234766666638,"instrument":10,"program":42},{"pitch":38,"velocity":128,"startTime":90.25855449999972,"endTime":90.43096816666637,"instrument":10,"program":42},{"pitch":38,"velocity":128,"startTime":90.51717499999971,"endTime":90.68958866666638,"instrument":10,"program":42},{"pitch":28,"velocity":128,"startTime":91.03441599999971,"endTime":91.37924333333305,"instrument":10,"program":42},{"pitch":28,"velocity":128,"startTime":91.81027749999971,"endTime":92.15510483333303,"instrument":10,"program":42},{"pitch":32,"velocity":128,"startTime":92.0688979999997,"endTime":92.41372533333303,"instrument":10,"program":42},{"pitch":32,"velocity":128,"startTime":92.8447594999997,"endTime":93.01717316666635,"instrument":10,"program":42},{"pitch":37,"velocity":128,"startTime":93.10337999999969,"endTime":93.44820733333302,"instrument":10,"program":42},{"pitch":37,"velocity":128,"startTime":93.87924149999968,"endTime":94.224068833333,"instrument":10,"program":42},{"pitch":33,"velocity":128,"startTime":94.13786199999969,"endTime":94.482689333333,"instrument":10,"program":42},{"pitch":33,"velocity":128,"startTime":94.91372349999966,"endTime":95.08613716666633,"instrument":10,"program":42},{"pitch":36,"velocity":128,"startTime":95.17234399999965,"endTime":95.34475766666633,"instrument":10,"program":42},{"pitch":36,"velocity":128,"startTime":95.43096449999965,"endTime":95.60337816666632,"instrument":10,"program":42},{"pitch":36,"velocity":128,"startTime":95.68958499999965,"endTime":95.86199866666631,"instrument":10,"program":42},{"pitch":36,"velocity":128,"startTime":95.94820549999964,"endTime":96.03441233333297,"instrument":10,"program":42},{"pitch":36,"velocity":128,"startTime":96.07751574999963,"endTime":96.16372258333296,"instrument":10,"program":42},{"pitch":36,"velocity":128,"startTime":96.20682599999962,"endTime":96.3792396666663,"instrument":10,"program":42},{"pitch":38,"velocity":128,"startTime":96.46544649999962,"endTime":96.63786016666629,"instrument":10,"program":42},{"pitch":38,"velocity":128,"startTime":96.72406699999961,"endTime":96.89648066666628,"instrument":10,"program":42},{"pitch":35,"velocity":128,"startTime":97.24130799999962,"endTime":97.41372166666628,"instrument":10,"program":42},{"pitch":35,"velocity":128,"startTime":97.24130799999962,"endTime":97.49992849999961,"instrument":10,"program":42},{"pitch":35,"velocity":128,"startTime":97.49992849999961,"endTime":97.67234216666628,"instrument":10,"program":42},{"pitch":35,"velocity":128,"startTime":97.49992849999961,"endTime":97.7585489999996,"instrument":10,"program":42},{"pitch":35,"velocity":128,"startTime":97.7585489999996,"endTime":97.93096266666628,"instrument":10,"program":42},{"pitch":35,"velocity":128,"startTime":97.7585489999996,"endTime":98.0171694999996,"instrument":10,"program":42},{"pitch":35,"velocity":128,"startTime":98.0171694999996,"endTime":98.10337633333292,"instrument":10,"program":42},{"pitch":35,"velocity":128,"startTime":98.0171694999996,"endTime":98.14647974999959,"instrument":10,"program":42},{"pitch":35,"velocity":128,"startTime":98.14647974999959,"endTime":98.2326865833329,"instrument":10,"program":42},{"pitch":35,"velocity":128,"startTime":98.14647974999959,"endTime":98.27578999999957,"instrument":10,"program":42},{"pitch":35,"velocity":128,"startTime":98.27578999999957,"endTime":98.44820366666625,"instrument":10,"program":42},{"pitch":35,"velocity":128,"startTime":98.27578999999957,"endTime":98.53441049999957,"instrument":10,"program":42},{"pitch":38,"velocity":128,"startTime":98.53441049999957,"endTime":98.70682416666624,"instrument":10,"program":42},{"pitch":38,"velocity":128,"startTime":98.53441049999957,"endTime":98.79303099999956,"instrument":10,"program":42},{"pitch":38,"velocity":128,"startTime":98.79303099999956,"endTime":98.96544466666623,"instrument":10,"program":42},{"pitch":38,"velocity":128,"startTime":98.79303099999956,"endTime":99.31027199999957,"instrument":10,"program":42},{"pitch":28,"velocity":128,"startTime":99.31027199999957,"endTime":99.82751299999957,"instrument":10,"program":42},{"pitch":28,"velocity":128,"startTime":99.82751299999957,"endTime":100.34475399999958,"instrument":10,"program":42},{"pitch":32,"velocity":128,"startTime":100.34475399999958,"endTime":100.86199499999958,"instrument":10,"program":42},{"pitch":32,"velocity":128,"startTime":100.86199499999958,"endTime":101.3792359999996,"instrument":10,"program":42},{"pitch":37,"velocity":128,"startTime":101.3792359999996,"endTime":101.89647699999959,"instrument":10,"program":42},{"pitch":37,"velocity":128,"startTime":101.89647699999959,"endTime":102.4137179999996,"instrument":10,"program":42},{"pitch":33,"velocity":128,"startTime":102.4137179999996,"endTime":102.9309589999996,"instrument":10,"program":42},{"pitch":33,"velocity":128,"startTime":102.9309589999996,"endTime":103.44819999999962,"instrument":10,"program":42},{"pitch":36,"velocity":128,"startTime":103.44819999999962,"endTime":103.70682049999961,"instrument":10,"program":42},{"pitch":36,"velocity":128,"startTime":103.70682049999961,"endTime":103.9654409999996,"instrument":10,"program":42},{"pitch":36,"velocity":128,"startTime":103.9654409999996,"endTime":104.22406149999959,"instrument":10,"program":42},{"pitch":36,"velocity":128,"startTime":104.22406149999959,"endTime":104.31026833333291,"instrument":10,"program":42},{"pitch":36,"velocity":128,"startTime":104.35337174999958,"endTime":104.4395785833329,"instrument":10,"program":42},{"pitch":36,"velocity":128,"startTime":104.48268199999957,"endTime":104.74130249999956,"instrument":10,"program":42},{"pitch":38,"velocity":128,"startTime":104.74130249999956,"endTime":104.99992299999955,"instrument":10,"program":42},{"pitch":38,"velocity":128,"startTime":104.99992299999955,"endTime":105.34475033333288,"instrument":10,"program":42},{"pitch":36,"velocity":128,"startTime":105.25854349999956,"endTime":105.4309571666662,"instrument":10,"program":42},{"pitch":35,"velocity":128,"startTime":105.51716399999954,"endTime":105.77578449999953,"instrument":10,"program":42},{"pitch":35,"velocity":128,"startTime":105.77578449999953,"endTime":106.03440499999952,"instrument":10,"program":42},{"pitch":35,"velocity":128,"startTime":106.03440499999952,"endTime":106.29302549999952,"instrument":10,"program":42},{"pitch":35,"velocity":128,"startTime":106.29302549999952,"endTime":106.37923233333285,"instrument":10,"program":42},{"pitch":35,"velocity":128,"startTime":106.4223357499995,"endTime":106.50854258333284,"instrument":10,"program":42},{"pitch":35,"velocity":128,"startTime":106.5516459999995,"endTime":106.81026649999949,"instrument":10,"program":42},{"pitch":38,"velocity":128,"startTime":106.81026649999949,"endTime":107.06888699999949,"instrument":10,"program":42},{"pitch":38,"velocity":128,"startTime":107.06888699999949,"endTime":107.4137143333328,"instrument":10,"program":42},{"pitch":36,"velocity":128,"startTime":107.32750749999948,"endTime":107.49992116666613,"instrument":10,"program":42},{"pitch":28,"velocity":128,"startTime":107.58612799999946,"endTime":108.10336899999946,"instrument":10,"program":42},{"pitch":28,"velocity":128,"startTime":108.10336899999946,"endTime":108.62060999999947,"instrument":10,"program":42},{"pitch":32,"velocity":128,"startTime":108.62060999999947,"endTime":109.13785099999947,"instrument":10,"program":42},{"pitch":32,"velocity":128,"startTime":109.13785099999947,"endTime":109.65509199999948,"instrument":10,"program":42},{"pitch":37,"velocity":128,"startTime":109.65509199999948,"endTime":110.17233299999948,"instrument":10,"program":42},{"pitch":37,"velocity":128,"startTime":110.17233299999948,"endTime":110.6895739999995,"instrument":10,"program":42},{"pitch":33,"velocity":128,"startTime":110.6895739999995,"endTime":111.2068149999995,"instrument":10,"program":42},{"pitch":33,"velocity":128,"startTime":111.2068149999995,"endTime":111.7240559999995,"instrument":10,"program":42},{"pitch":36,"velocity":128,"startTime":111.7240559999995,"endTime":111.9826764999995,"instrument":10,"program":42},{"pitch":36,"velocity":128,"startTime":111.9826764999995,"endTime":112.24129699999949,"instrument":10,"program":42},{"pitch":36,"velocity":128,"startTime":112.24129699999949,"endTime":112.49991749999948,"instrument":10,"program":42},{"pitch":36,"velocity":128,"startTime":112.49991749999948,"endTime":112.5861243333328,"instrument":10,"program":42},{"pitch":36,"velocity":128,"startTime":112.62922774999947,"endTime":112.7154345833328,"instrument":10,"program":42},{"pitch":36,"velocity":128,"startTime":112.75853799999946,"endTime":113.01715849999945,"instrument":10,"program":42},{"pitch":38,"velocity":128,"startTime":113.01715849999945,"endTime":113.27577899999945,"instrument":10,"program":42},{"pitch":38,"velocity":128,"startTime":113.27577899999945,"endTime":113.62060633333277,"instrument":10,"program":42},{"pitch":36,"velocity":128,"startTime":113.53439949999945,"endTime":113.7068131666661,"instrument":10,"program":42},{"pitch":35,"velocity":128,"startTime":113.79301999999943,"endTime":114.05164049999942,"instrument":10,"program":42},{"pitch":35,"velocity":128,"startTime":114.05164049999942,"endTime":114.31026099999941,"instrument":10,"program":42},{"pitch":35,"velocity":128,"startTime":114.31026099999941,"endTime":114.5688814999994,"instrument":10,"program":42},{"pitch":35,"velocity":128,"startTime":114.5688814999994,"endTime":114.65508833333274,"instrument":10,"program":42},{"pitch":35,"velocity":128,"startTime":114.6981917499994,"endTime":114.78439858333273,"instrument":10,"program":42},{"pitch":35,"velocity":128,"startTime":114.82750199999938,"endTime":115.08612249999938,"instrument":10,"program":42},{"pitch":38,"velocity":128,"startTime":115.08612249999938,"endTime":115.34474299999938,"instrument":10,"program":42},{"pitch":38,"velocity":128,"startTime":115.34474299999938,"endTime":115.6895703333327,"instrument":10,"program":42},{"pitch":36,"velocity":128,"startTime":115.60336349999938,"endTime":115.77577716666602,"instrument":10,"program":42},{"pitch":33,"velocity":128,"startTime":115.86198399999935,"endTime":116.03439766666602,"instrument":10,"program":42},{"pitch":33,"velocity":128,"startTime":116.37922499999935,"endTime":116.55163866666602,"instrument":10,"program":42},{"pitch":38,"velocity":128,"startTime":116.63784549999934,"endTime":116.81025916666601,"instrument":10,"program":42},{"pitch":36,"velocity":128,"startTime":116.89646599999935,"endTime":117.24129333333268,"instrument":10,"program":42},{"pitch":36,"velocity":128,"startTime":117.41370699999935,"endTime":117.75853433333269,"instrument":10,"program":42},{"pitch":33,"velocity":128,"startTime":117.93094799999935,"endTime":118.18956849999935,"instrument":10,"program":42},{"pitch":33,"velocity":128,"startTime":118.44818899999935,"endTime":118.70680949999934,"instrument":10,"program":42},{"pitch":31,"velocity":128,"startTime":118.96542999999933,"endTime":119.22405049999932,"instrument":10,"program":42},{"pitch":33,"velocity":128,"startTime":119.22405049999932,"endTime":119.48267099999933,"instrument":10,"program":42},{"pitch":31,"velocity":128,"startTime":119.74129149999932,"endTime":119.99991199999931,"instrument":10,"program":42},{"pitch":33,"velocity":128,"startTime":119.99991199999931,"endTime":120.17232566666598,"instrument":10,"program":42},{"pitch":33,"velocity":128,"startTime":120.51715299999931,"endTime":120.68956666666598,"instrument":10,"program":42},{"pitch":38,"velocity":128,"startTime":120.7757734999993,"endTime":120.94818716666597,"instrument":10,"program":42},{"pitch":36,"velocity":128,"startTime":121.03439399999931,"endTime":121.37922133333264,"instrument":10,"program":42},{"pitch":36,"velocity":128,"startTime":121.55163499999931,"endTime":121.89646233333265,"instrument":10,"program":42},{"pitch":33,"velocity":128,"startTime":122.06887599999932,"endTime":122.32749649999931,"instrument":10,"program":42},{"pitch":33,"velocity":128,"startTime":122.5861169999993,"endTime":122.8447374999993,"instrument":10,"program":42},{"pitch":31,"velocity":128,"startTime":123.10335799999929,"endTime":123.36197849999928,"instrument":10,"program":42},{"pitch":33,"velocity":128,"startTime":123.36197849999928,"endTime":123.62059899999929,"instrument":10,"program":42},{"pitch":31,"velocity":128,"startTime":123.87921949999928,"endTime":124.13783999999927,"instrument":10,"program":42},{"pitch":33,"velocity":128,"startTime":124.13783999999927,"endTime":124.31025366666594,"instrument":10,"program":42},{"pitch":33,"velocity":128,"startTime":124.65508099999927,"endTime":124.82749466666594,"instrument":10,"program":42},{"pitch":38,"velocity":128,"startTime":124.91370149999928,"endTime":125.08611516666593,"instrument":10,"program":42},{"pitch":36,"velocity":128,"startTime":125.17232199999927,"endTime":125.5171493333326,"instrument":10,"program":42},{"pitch":36,"velocity":128,"startTime":125.68956299999927,"endTime":126.03439033333261,"instrument":10,"program":42},{"pitch":33,"velocity":128,"startTime":126.20680399999928,"endTime":126.46542449999927,"instrument":10,"program":42},{"pitch":33,"velocity":128,"startTime":126.72404499999926,"endTime":126.98266549999926,"instrument":10,"program":42},{"pitch":31,"velocity":128,"startTime":127.24128599999925,"endTime":127.49990649999926,"instrument":10,"program":42},{"pitch":33,"velocity":128,"startTime":127.49990649999926,"endTime":127.75852699999925,"instrument":10,"program":42},{"pitch":31,"velocity":128,"startTime":128.01714749999923,"endTime":128.27576799999923,"instrument":10,"program":42},{"pitch":33,"velocity":128,"startTime":128.27576799999923,"endTime":128.4481816666659,"instrument":10,"program":42},{"pitch":33,"velocity":128,"startTime":128.79300899999924,"endTime":128.96542266666592,"instrument":10,"program":42},{"pitch":38,"velocity":128,"startTime":129.05162949999922,"endTime":129.2240431666659,"instrument":10,"program":42},{"pitch":36,"velocity":128,"startTime":129.31024999999923,"endTime":129.65507733333257,"instrument":10,"program":42},{"pitch":36,"velocity":128,"startTime":129.82749099999924,"endTime":130.17231833333256,"instrument":10,"program":42},{"pitch":33,"velocity":128,"startTime":130.34473199999923,"endTime":130.60335249999923,"instrument":10,"program":42},{"pitch":33,"velocity":128,"startTime":130.86197299999924,"endTime":131.12059349999922,"instrument":10,"program":42},{"pitch":31,"velocity":128,"startTime":131.37921399999922,"endTime":131.6378344999992,"instrument":10,"program":42},{"pitch":33,"velocity":128,"startTime":131.6378344999992,"endTime":131.8964549999992,"instrument":10,"program":42},{"pitch":31,"velocity":128,"startTime":132.15507549999919,"endTime":132.4136959999992,"instrument":10,"program":42},{"pitch":38,"velocity":128,"startTime":132.4136959999992,"endTime":132.6723164999992,"instrument":10,"program":42},{"pitch":38,"velocity":128,"startTime":132.6723164999992,"endTime":132.93093699999918,"instrument":10,"program":42},{"pitch":38,"velocity":128,"startTime":132.93093699999918,"endTime":133.18955749999918,"instrument":10,"program":42},{"pitch":38,"velocity":128,"startTime":133.18955749999918,"endTime":133.44817799999916,"instrument":10,"program":42},{"pitch":38,"velocity":128,"startTime":133.44817799999916,"endTime":133.70679849999917,"instrument":10,"program":42},{"pitch":38,"velocity":128,"startTime":133.70679849999917,"endTime":133.96541899999917,"instrument":10,"program":42},{"pitch":38,"velocity":128,"startTime":133.96541899999917,"endTime":134.22403949999915,"instrument":10,"program":42},{"pitch":38,"velocity":128,"startTime":134.22403949999915,"endTime":134.48265999999916,"instrument":10,"program":42},{"pitch":35,"velocity":128,"startTime":134.48265999999916,"endTime":134.74128049999914,"instrument":10,"program":42},{"pitch":35,"velocity":128,"startTime":134.74128049999914,"endTime":134.99990099999914,"instrument":10,"program":42},{"pitch":35,"velocity":128,"startTime":134.99990099999914,"endTime":135.25852149999912,"instrument":10,"program":42},{"pitch":35,"velocity":128,"startTime":135.25852149999912,"endTime":135.51714199999913,"instrument":10,"program":42},{"pitch":35,"velocity":128,"startTime":135.51714199999913,"endTime":135.77576249999913,"instrument":10,"program":42},{"pitch":28,"velocity":128,"startTime":135.77576249999913,"endTime":136.0343829999991,"instrument":10,"program":42},{"pitch":31,"velocity":128,"startTime":136.0343829999991,"endTime":136.55162399999912,"instrument":10,"program":42},{"pitch":28,"velocity":128,"startTime":136.55162399999912,"endTime":137.93632126041578,"instrument":10,"program":42}],"totalTime":138.57748458333214,"sourceInfo":{"encodingType":"MIDI","parser":"TONEJS_MIDI_CONVERT"}},"sequence":{"filename":"lithium__fanvoy__remix.mid","ticksPerQuarter":192,"timeSignatures":[{"numerator":4,"denominator":4}],"tempos":[{"qpm":116.00008506672904}],"notes":[{"pitch":36,"velocity":105,"endTime":0.12931025000000002,"isDrum":true},{"pitch":42,"velocity":105,"endTime":0.12931025000000002,"isDrum":true},{"pitch":42,"velocity":105,"startTime":0.25862050000000003,"endTime":0.38793075000000005,"isDrum":true},{"pitch":38,"velocity":105,"startTime":0.5172410000000001,"endTime":0.64655125,"isDrum":true},{"pitch":39,"velocity":105,"startTime":0.5172410000000001,"endTime":0.64655125,"isDrum":true},{"pitch":42,"velocity":105,"startTime":0.5172410000000001,"endTime":0.64655125,"isDrum":true},{"pitch":69,"velocity":105,"startTime":0.5172410000000001,"endTime":0.64655125,"isDrum":true},{"pitch":36,"velocity":105,"startTime":0.7758615000000001,"endTime":0.90517175,"isDrum":true},{"pitch":42,"velocity":105,"startTime":0.7758615000000001,"endTime":0.90517175,"isDrum":true},{"pitch":36,"velocity":105,"startTime":1.0344820000000001,"endTime":1.16379225,"isDrum":true},{"pitch":42,"velocity":105,"startTime":1.0344820000000001,"endTime":1.16379225,"isDrum":true},{"pitch":42,"velocity":105,"startTime":1.2931025,"endTime":1.4224127500000001,"isDrum":true},{"pitch":38,"velocity":105,"startTime":1.5517230000000002,"endTime":1.68103325,"isDrum":true},{"pitch":39,"velocity":105,"startTime":1.5517230000000002,"endTime":1.68103325,"isDrum":true},{"pitch":42,"velocity":105,"startTime":1.5517230000000002,"endTime":1.68103325,"isDrum":true},{"pitch":69,"velocity":105,"startTime":1.5517230000000002,"endTime":1.68103325,"isDrum":true},{"pitch":36,"velocity":105,"startTime":1.8103435,"endTime":1.9396537500000002,"isDrum":true},{"pitch":42,"velocity":105,"startTime":1.8103435,"endTime":1.9396537500000002,"isDrum":true},{"pitch":36,"velocity":105,"startTime":2.0689640000000002,"endTime":2.1982742500000003,"isDrum":true},{"pitch":42,"velocity":105,"startTime":2.0689640000000002,"endTime":2.1982742500000003,"isDrum":true},{"pitch":42,"velocity":105,"startTime":2.3275845,"endTime":2.45689475,"isDrum":true},{"pitch":38,"velocity":105,"startTime":2.586205,"endTime":2.71551525,"isDrum":true},{"pitch":39,"velocity":105,"startTime":2.586205,"endTime":2.71551525,"isDrum":true},{"pitch":42,"velocity":105,"startTime":2.586205,"endTime":2.71551525,"isDrum":true},{"pitch":69,"velocity":105,"startTime":2.586205,"endTime":2.71551525,"isDrum":true},{"pitch":36,"velocity":105,"startTime":2.8448255000000002,"endTime":2.9741357500000003,"isDrum":true},{"pitch":42,"velocity":105,"startTime":2.8448255000000002,"endTime":2.9741357500000003,"isDrum":true},{"pitch":36,"velocity":105,"startTime":3.1034460000000004,"endTime":3.23275625,"isDrum":true},{"pitch":42,"velocity":105,"startTime":3.1034460000000004,"endTime":3.23275625,"isDrum":true},{"pitch":42,"velocity":105,"startTime":3.3620665,"endTime":3.49137675,"isDrum":true},{"pitch":38,"velocity":105,"startTime":3.620687,"endTime":3.7499972500000003,"isDrum":true},{"pitch":39,"velocity":105,"startTime":3.620687,"endTime":3.7499972500000003,"isDrum":true},{"pitch":42,"velocity":105,"startTime":3.620687,"endTime":3.7499972500000003,"isDrum":true},{"pitch":69,"velocity":105,"startTime":3.620687,"endTime":3.7499972500000003,"isDrum":true},{"pitch":36,"velocity":105,"startTime":3.8793075000000004,"endTime":4.00861775,"isDrum":true},{"pitch":42,"velocity":105,"startTime":3.8793075000000004,"endTime":4.00861775,"isDrum":true},{"pitch":36,"velocity":105,"startTime":4.1379280000000005,"endTime":4.26723825,"isDrum":true},{"pitch":42,"velocity":105,"startTime":4.1379280000000005,"endTime":4.26723825,"isDrum":true},{"pitch":42,"velocity":105,"startTime":4.396548500000001,"endTime":4.52585875,"isDrum":true},{"pitch":38,"velocity":105,"startTime":4.655169,"endTime":4.78447925,"isDrum":true},{"pitch":39,"velocity":105,"startTime":4.655169,"endTime":4.78447925,"isDrum":true},{"pitch":42,"velocity":105,"startTime":4.655169,"endTime":4.78447925,"isDrum":true},{"pitch":69,"velocity":105,"startTime":4.655169,"endTime":4.78447925,"isDrum":true},{"pitch":36,"velocity":105,"startTime":4.9137895,"endTime":5.0430997500000005,"isDrum":true},{"pitch":42,"velocity":105,"startTime":4.9137895,"endTime":5.0430997500000005,"isDrum":true},{"pitch":36,"velocity":105,"startTime":5.17241,"endTime":5.301720250000001,"isDrum":true},{"pitch":42,"velocity":105,"startTime":5.17241,"endTime":5.301720250000001,"isDrum":true},{"pitch":42,"velocity":105,"startTime":5.4310305,"endTime":5.56034075,"isDrum":true},{"pitch":38,"velocity":105,"startTime":5.6896510000000005,"endTime":5.81896125,"isDrum":true},{"pitch":39,"velocity":105,"startTime":5.6896510000000005,"endTime":5.81896125,"isDrum":true},{"pitch":42,"velocity":105,"startTime":5.6896510000000005,"endTime":5.81896125,"isDrum":true},{"pitch":69,"velocity":105,"startTime":5.6896510000000005,"endTime":5.81896125,"isDrum":true},{"pitch":36,"velocity":105,"startTime":5.948271500000001,"endTime":6.07758175,"isDrum":true},{"pitch":42,"velocity":105,"startTime":5.948271500000001,"endTime":6.07758175,"isDrum":true},{"pitch":36,"velocity":105,"startTime":6.206892000000001,"endTime":6.33620225,"isDrum":true},{"pitch":42,"velocity":105,"startTime":6.206892000000001,"endTime":6.33620225,"isDrum":true},{"pitch":42,"velocity":105,"startTime":6.4655125,"endTime":6.5948227500000005,"isDrum":true},{"pitch":38,"velocity":105,"startTime":6.724133,"endTime":6.853443250000001,"isDrum":true},{"pitch":39,"velocity":105,"startTime":6.724133,"endTime":6.853443250000001,"isDrum":true},{"pitch":42,"velocity":105,"startTime":6.724133,"endTime":6.853443250000001,"isDrum":true},{"pitch":69,"velocity":105,"startTime":6.724133,"endTime":6.853443250000001,"isDrum":true},{"pitch":36,"velocity":105,"startTime":6.9827535,"endTime":7.112063750000001,"isDrum":true},{"pitch":42,"velocity":105,"startTime":6.9827535,"endTime":7.112063750000001,"isDrum":true},{"pitch":36,"velocity":105,"startTime":7.241374,"endTime":7.37068425,"isDrum":true},{"pitch":42,"velocity":105,"startTime":7.241374,"endTime":7.37068425,"isDrum":true},{"pitch":42,"velocity":105,"startTime":7.499994500000001,"endTime":7.62930475,"isDrum":true},{"pitch":38,"velocity":105,"startTime":7.758615000000001,"endTime":7.88792525,"isDrum":true},{"pitch":39,"velocity":105,"startTime":7.758615000000001,"endTime":7.88792525,"isDrum":true},{"pitch":42,"velocity":105,"startTime":7.758615000000001,"endTime":7.88792525,"isDrum":true},{"pitch":69,"velocity":105,"startTime":7.758615000000001,"endTime":7.88792525,"isDrum":true},{"pitch":36,"velocity":105,"startTime":8.0172355,"endTime":8.14654575,"isDrum":true},{"pitch":42,"velocity":105,"startTime":8.0172355,"endTime":8.14654575,"isDrum":true},{"pitch":36,"velocity":105,"startTime":8.275856000000001,"endTime":8.40516625,"isDrum":true},{"pitch":42,"velocity":105,"startTime":8.275856000000001,"endTime":8.40516625,"isDrum":true},{"pitch":42,"velocity":105,"startTime":8.5344765,"endTime":8.66378675,"isDrum":true},{"pitch":38,"velocity":105,"startTime":8.793097000000001,"endTime":8.922407250000001,"isDrum":true},{"pitch":39,"velocity":105,"startTime":8.793097000000001,"endTime":8.922407250000001,"isDrum":true},{"pitch":42,"velocity":105,"startTime":8.793097000000001,"endTime":8.922407250000001,"isDrum":true},{"pitch":69,"velocity":105,"startTime":8.793097000000001,"endTime":8.922407250000001,"isDrum":true},{"pitch":36,"velocity":105,"startTime":9.0517175,"endTime":9.18102775,"isDrum":true},{"pitch":42,"velocity":105,"startTime":9.0517175,"endTime":9.18102775,"isDrum":true},{"pitch":36,"velocity":105,"startTime":9.310338,"endTime":9.439648250000001,"isDrum":true},{"pitch":42,"velocity":105,"startTime":9.310338,"endTime":9.439648250000001,"isDrum":true},{"pitch":42,"velocity":105,"startTime":9.5689585,"endTime":9.69826875,"isDrum":true},{"pitch":38,"velocity":105,"startTime":9.827579,"endTime":9.95688925,"isDrum":true},{"pitch":39,"velocity":105,"startTime":9.827579,"endTime":9.95688925,"isDrum":true},{"pitch":42,"velocity":105,"startTime":9.827579,"endTime":9.95688925,"isDrum":true},{"pitch":69,"velocity":105,"startTime":9.827579,"endTime":9.95688925,"isDrum":true},{"pitch":36,"velocity":105,"startTime":10.086199500000001,"endTime":10.21550975,"isDrum":true},{"pitch":42,"velocity":105,"startTime":10.086199500000001,"endTime":10.21550975,"isDrum":true},{"pitch":36,"velocity":105,"startTime":10.34482,"endTime":10.47413025,"isDrum":true},{"pitch":42,"velocity":105,"startTime":10.34482,"endTime":10.47413025,"isDrum":true},{"pitch":42,"velocity":105,"startTime":10.603440500000001,"endTime":10.732750750000001,"isDrum":true},{"pitch":38,"velocity":105,"startTime":10.862061,"endTime":10.99137125,"isDrum":true},{"pitch":39,"velocity":105,"startTime":10.862061,"endTime":10.99137125,"isDrum":true},{"pitch":42,"velocity":105,"startTime":10.862061,"endTime":10.99137125,"isDrum":true},{"pitch":69,"velocity":105,"startTime":10.862061,"endTime":10.99137125,"isDrum":true},{"pitch":36,"velocity":105,"startTime":11.1206815,"endTime":11.249991750000001,"isDrum":true},{"pitch":42,"velocity":105,"startTime":11.1206815,"endTime":11.249991750000001,"isDrum":true},{"pitch":36,"velocity":105,"startTime":11.379302000000001,"endTime":11.50861225,"isDrum":true},{"pitch":42,"velocity":105,"startTime":11.379302000000001,"endTime":11.50861225,"isDrum":true},{"pitch":42,"velocity":105,"startTime":11.6379225,"endTime":11.76723275,"isDrum":true},{"pitch":38,"velocity":105,"startTime":11.896543000000001,"endTime":12.02585325,"isDrum":true},{"pitch":39,"velocity":105,"startTime":11.896543000000001,"endTime":12.02585325,"isDrum":true},{"pitch":42,"velocity":105,"startTime":11.896543000000001,"endTime":12.02585325,"isDrum":true},{"pitch":69,"velocity":105,"startTime":11.896543000000001,"endTime":12.02585325,"isDrum":true},{"pitch":36,"velocity":105,"startTime":12.1551635,"endTime":12.28447375,"isDrum":true},{"pitch":42,"velocity":105,"startTime":12.1551635,"endTime":12.28447375,"isDrum":true},{"pitch":36,"velocity":105,"startTime":12.413784000000001,"endTime":12.543094250000001,"isDrum":true},{"pitch":42,"velocity":105,"startTime":12.413784000000001,"endTime":12.543094250000001,"isDrum":true},{"pitch":42,"velocity":105,"startTime":12.6724045,"endTime":12.80171475,"isDrum":true},{"pitch":38,"velocity":105,"startTime":12.931025,"endTime":13.060335250000001,"isDrum":true},{"pitch":39,"velocity":105,"startTime":12.931025,"endTime":13.060335250000001,"isDrum":true},{"pitch":42,"velocity":105,"startTime":12.931025,"endTime":13.060335250000001,"isDrum":true},{"pitch":69,"velocity":105,"startTime":12.931025,"endTime":13.060335250000001,"isDrum":true},{"pitch":36,"velocity":105,"startTime":13.189645500000001,"endTime":13.31895575,"isDrum":true},{"pitch":42,"velocity":105,"startTime":13.189645500000001,"endTime":13.31895575,"isDrum":true},{"pitch":36,"velocity":105,"startTime":13.448266,"endTime":13.57757625,"isDrum":true},{"pitch":42,"velocity":105,"startTime":13.448266,"endTime":13.57757625,"isDrum":true},{"pitch":42,"velocity":105,"startTime":13.706886500000001,"endTime":13.836196750000001,"isDrum":true},{"pitch":38,"velocity":105,"startTime":13.965507,"endTime":14.09481725,"isDrum":true},{"pitch":39,"velocity":105,"startTime":13.965507,"endTime":14.09481725,"isDrum":true},{"pitch":42,"velocity":105,"startTime":13.965507,"endTime":14.09481725,"isDrum":true},{"pitch":69,"velocity":105,"startTime":13.965507,"endTime":14.09481725,"isDrum":true},{"pitch":36,"velocity":105,"startTime":14.224127500000002,"endTime":14.353437750000001,"isDrum":true},{"pitch":42,"velocity":105,"startTime":14.224127500000002,"endTime":14.353437750000001,"isDrum":true},{"pitch":36,"velocity":105,"startTime":14.482748,"endTime":14.61205825,"isDrum":true},{"pitch":42,"velocity":105,"startTime":14.482748,"endTime":14.61205825,"isDrum":true},{"pitch":42,"velocity":105,"startTime":14.7413685,"endTime":14.870678750000002,"isDrum":true},{"pitch":38,"velocity":105,"startTime":14.999989000000001,"endTime":15.12929925,"isDrum":true},{"pitch":39,"velocity":105,"startTime":14.999989000000001,"endTime":15.12929925,"isDrum":true},{"pitch":42,"velocity":105,"startTime":14.999989000000001,"endTime":15.12929925,"isDrum":true},{"pitch":69,"velocity":105,"startTime":14.999989000000001,"endTime":15.12929925,"isDrum":true},{"pitch":36,"velocity":105,"startTime":15.2586095,"endTime":15.38791975,"isDrum":true},{"pitch":42,"velocity":105,"startTime":15.2586095,"endTime":15.38791975,"isDrum":true},{"pitch":36,"velocity":105,"startTime":15.517230000000001,"endTime":15.646540250000001,"isDrum":true},{"pitch":42,"velocity":105,"startTime":15.517230000000001,"endTime":15.646540250000001,"isDrum":true},{"pitch":42,"velocity":105,"startTime":15.7758505,"endTime":15.90516075,"isDrum":true},{"pitch":38,"velocity":105,"startTime":16.034471,"endTime":16.16378125,"isDrum":true},{"pitch":39,"velocity":105,"startTime":16.034471,"endTime":16.16378125,"isDrum":true},{"pitch":42,"velocity":105,"startTime":16.034471,"endTime":16.16378125,"isDrum":true},{"pitch":69,"velocity":105,"startTime":16.034471,"endTime":16.16378125,"isDrum":true},{"pitch":36,"velocity":105,"startTime":16.2930915,"endTime":16.422401750000002,"isDrum":true},{"pitch":42,"velocity":105,"startTime":16.2930915,"endTime":16.422401750000002,"isDrum":true},{"pitch":56,"velocity":123,"startTime":9.5689585,"endTime":9.69826875,"instrument":1,"program":4},{"pitch":60,"velocity":123,"startTime":9.5689585,"endTime":9.69826875,"instrument":1,"program":4},{"pitch":66,"velocity":123,"startTime":9.5689585,"endTime":9.69826875,"instrument":1,"program":4},{"pitch":56,"velocity":123,"startTime":9.827579,"endTime":9.95688925,"instrument":1,"program":4},{"pitch":60,"velocity":123,"startTime":9.827579,"endTime":9.95688925,"instrument":1,"program":4},{"pitch":66,"velocity":123,"startTime":9.827579,"endTime":9.95688925,"instrument":1,"program":4},{"pitch":56,"velocity":123,"startTime":10.086199500000001,"endTime":10.21550975,"instrument":1,"program":4},{"pitch":60,"velocity":123,"startTime":10.086199500000001,"endTime":10.21550975,"instrument":1,"program":4},{"pitch":66,"velocity":123,"startTime":10.086199500000001,"endTime":10.21550975,"instrument":1,"program":4},{"pitch":60,"velocity":123,"startTime":12.6724045,"endTime":12.80171475,"instrument":1,"program":4},{"pitch":64,"velocity":123,"startTime":12.6724045,"endTime":12.80171475,"instrument":1,"program":4},{"pitch":67,"velocity":123,"startTime":12.6724045,"endTime":12.80171475,"instrument":1,"program":4},{"pitch":60,"velocity":123,"startTime":12.931025,"endTime":13.060335250000001,"instrument":1,"program":4},{"pitch":64,"velocity":123,"startTime":12.931025,"endTime":13.060335250000001,"instrument":1,"program":4},{"pitch":67,"velocity":123,"startTime":12.931025,"endTime":13.060335250000001,"instrument":1,"program":4},{"pitch":62,"velocity":123,"startTime":13.189645500000001,"endTime":13.31895575,"instrument":1,"program":4},{"pitch":64,"velocity":123,"startTime":13.189645500000001,"endTime":13.31895575,"instrument":1,"program":4},{"pitch":67,"velocity":123,"startTime":13.189645500000001,"endTime":13.31895575,"instrument":1,"program":4},{"pitch":62,"velocity":123,"startTime":13.448266,"endTime":13.57757625,"instrument":1,"program":4},{"pitch":66,"velocity":123,"startTime":13.448266,"endTime":13.57757625,"instrument":1,"program":4},{"pitch":69,"velocity":123,"startTime":13.448266,"endTime":13.57757625,"instrument":1,"program":4},{"pitch":62,"velocity":123,"startTime":13.706886500000001,"endTime":13.836196750000001,"instrument":1,"program":4},{"pitch":66,"velocity":123,"startTime":13.706886500000001,"endTime":13.836196750000001,"instrument":1,"program":4},{"pitch":69,"velocity":123,"startTime":13.706886500000001,"endTime":13.836196750000001,"instrument":1,"program":4},{"pitch":62,"velocity":123,"startTime":14.224127500000002,"endTime":14.61205825,"instrument":1,"program":4},{"pitch":66,"velocity":123,"startTime":14.224127500000002,"endTime":14.61205825,"instrument":1,"program":4},{"pitch":69,"velocity":123,"startTime":14.224127500000002,"endTime":14.61205825,"instrument":1,"program":4},{"pitch":62,"velocity":123,"startTime":14.7413685,"endTime":14.870678750000002,"instrument":1,"program":4},{"pitch":66,"velocity":123,"startTime":14.7413685,"endTime":14.870678750000002,"instrument":1,"program":4},{"pitch":69,"velocity":123,"startTime":14.7413685,"endTime":14.870678750000002,"instrument":1,"program":4},{"pitch":62,"velocity":123,"startTime":15.517230000000001,"endTime":15.646540250000001,"instrument":1,"program":4},{"pitch":66,"velocity":123,"startTime":15.517230000000001,"endTime":15.646540250000001,"instrument":1,"program":4},{"pitch":69,"velocity":123,"startTime":15.517230000000001,"endTime":15.646540250000001,"instrument":1,"program":4},{"pitch":62,"velocity":123,"startTime":15.7758505,"endTime":15.90516075,"instrument":1,"program":4},{"pitch":66,"velocity":123,"startTime":15.7758505,"endTime":15.90516075,"instrument":1,"program":4},{"pitch":69,"velocity":123,"startTime":15.7758505,"endTime":15.90516075,"instrument":1,"program":4},{"pitch":28,"velocity":117,"endTime":0.21551708333333336,"instrument":4,"program":35},{"pitch":35,"velocity":117,"startTime":0.25862050000000003,"endTime":0.38793075000000005,"instrument":4,"program":35},{"pitch":32,"velocity":117,"startTime":0.90517175,"endTime":1.0344820000000001,"instrument":4,"program":35},{"pitch":44,"velocity":117,"startTime":1.0344820000000001,"endTime":1.2499990833333334,"instrument":4,"program":35},{"pitch":40,"velocity":117,"startTime":10.603440500000001,"endTime":10.689647333333333,"instrument":4,"program":35},{"pitch":40,"velocity":117,"startTime":10.732750750000001,"endTime":10.818957583333335,"instrument":4,"program":35},{"pitch":40,"velocity":117,"startTime":10.862061,"endTime":11.077578083333334,"instrument":4,"program":35},{"pitch":40,"velocity":117,"startTime":11.1206815,"endTime":11.336198583333333,"instrument":4,"program":35},{"pitch":36,"velocity":117,"startTime":12.413784000000001,"endTime":12.80171475,"instrument":4,"program":35},{"pitch":43,"velocity":117,"startTime":12.80171475,"endTime":12.887921583333334,"instrument":4,"program":35},{"pitch":40,"velocity":117,"startTime":12.931025,"endTime":13.060335250000001,"instrument":4,"program":35},{"pitch":38,"velocity":117,"startTime":16.034471,"endTime":16.422401750000002,"instrument":4,"program":35},{"pitch":40,"velocity":118,"endTime":0.25862050000000003,"instrument":5,"program":87},{"pitch":44,"velocity":118,"startTime":1.8103435,"endTime":2.0689640000000002,"instrument":5,"program":87},{"pitch":37,"velocity":118,"startTime":2.0689640000000002,"endTime":2.3275845,"instrument":5,"program":87},{"pitch":33,"velocity":118,"startTime":3.8793075000000004,"endTime":4.1379280000000005,"instrument":5,"program":87},{"pitch":36,"velocity":118,"startTime":4.1379280000000005,"endTime":4.396548500000001,"instrument":5,"program":87},{"pitch":38,"velocity":118,"startTime":8.0172355,"endTime":8.275856000000001,"instrument":5,"program":87},{"pitch":28,"velocity":118,"startTime":8.275856000000001,"endTime":8.5344765,"instrument":5,"program":87},{"pitch":35,"velocity":105,"startTime":16.551712000000002,"endTime":16.68102225,"isDrum":true},{"pitch":42,"velocity":105,"startTime":16.551712000000002,"endTime":16.68102225,"isDrum":true},{"pitch":42,"velocity":105,"startTime":16.8103325,"endTime":16.93964275,"isDrum":true},{"pitch":38,"velocity":105,"startTime":17.068953,"endTime":17.19826325,"isDrum":true},{"pitch":39,"velocity":105,"startTime":17.068953,"endTime":17.19826325,"isDrum":true},{"pitch":40,"velocity":105,"startTime":17.068953,"endTime":17.19826325,"isDrum":true},{"pitch":42,"velocity":105,"startTime":17.068953,"endTime":17.19826325,"isDrum":true},{"pitch":42,"velocity":105,"startTime":17.3275735,"endTime":17.45688375,"isDrum":true},{"pitch":35,"velocity":105,"startTime":17.586194000000003,"endTime":17.715504250000002,"isDrum":true},{"pitch":42,"velocity":105,"startTime":17.586194000000003,"endTime":17.715504250000002,"isDrum":true},{"pitch":42,"velocity":105,"startTime":17.844814500000002,"endTime":17.97412475,"isDrum":true},{"pitch":38,"velocity":105,"startTime":18.103435,"endTime":18.23274525,"isDrum":true},{"pitch":39,"velocity":105,"startTime":18.103435,"endTime":18.23274525,"isDrum":true},{"pitch":40,"velocity":105,"startTime":18.103435,"endTime":18.23274525,"isDrum":true},{"pitch":42,"velocity":105,"startTime":18.103435,"endTime":18.23274525,"isDrum":true},{"pitch":42,"velocity":105,"startTime":18.3620555,"endTime":18.49136575,"isDrum":true},{"pitch":35,"velocity":105,"startTime":18.620676,"endTime":18.749986250000003,"isDrum":true},{"pitch":42,"velocity":105,"startTime":18.620676,"endTime":18.749986250000003,"isDrum":true},{"pitch":42,"velocity":105,"startTime":18.879296500000002,"endTime":19.008606750000002,"isDrum":true},{"pitch":38,"velocity":105,"startTime":19.137917,"endTime":19.26722725,"isDrum":true},{"pitch":39,"velocity":105,"startTime":19.137917,"endTime":19.26722725,"isDrum":true},{"pitch":40,"velocity":105,"startTime":19.137917,"endTime":19.26722725,"isDrum":true},{"pitch":42,"velocity":105,"startTime":19.137917,"endTime":19.26722725,"isDrum":true},{"pitch":42,"velocity":105,"startTime":19.3965375,"endTime":19.52584775,"isDrum":true},{"pitch":35,"velocity":105,"startTime":19.655158,"endTime":19.78446825,"isDrum":true},{"pitch":42,"velocity":105,"startTime":19.655158,"endTime":19.78446825,"isDrum":true},{"pitch":42,"velocity":105,"startTime":19.9137785,"endTime":20.043088750000003,"isDrum":true},{"pitch":38,"velocity":105,"startTime":20.172399000000002,"endTime":20.301709250000002,"isDrum":true},{"pitch":39,"velocity":105,"startTime":20.172399000000002,"endTime":20.301709250000002,"isDrum":true},{"pitch":40,"velocity":105,"startTime":20.172399000000002,"endTime":20.301709250000002,"isDrum":true},{"pitch":42,"velocity":105,"startTime":20.172399000000002,"endTime":20.301709250000002,"isDrum":true},{"pitch":42,"velocity":105,"startTime":20.4310195,"endTime":20.56032975,"isDrum":true},{"pitch":35,"velocity":105,"startTime":20.68964,"endTime":20.81895025,"isDrum":true},{"pitch":42,"velocity":105,"startTime":20.68964,"endTime":20.81895025,"isDrum":true},{"pitch":42,"velocity":105,"startTime":20.9482605,"endTime":21.07757075,"isDrum":true},{"pitch":38,"velocity":105,"startTime":21.206881000000003,"endTime":21.336191250000002,"isDrum":true},{"pitch":39,"velocity":105,"startTime":21.206881000000003,"endTime":21.336191250000002,"isDrum":true},{"pitch":40,"velocity":105,"startTime":21.206881000000003,"endTime":21.336191250000002,"isDrum":true},{"pitch":42,"velocity":105,"startTime":21.206881000000003,"endTime":21.336191250000002,"isDrum":true},{"pitch":42,"velocity":105,"startTime":21.465501500000002,"endTime":21.59481175,"isDrum":true},{"pitch":35,"velocity":105,"startTime":21.724122,"endTime":21.85343225,"isDrum":true},{"pitch":42,"velocity":105,"startTime":21.724122,"endTime":21.85343225,"isDrum":true},{"pitch":42,"velocity":105,"startTime":21.9827425,"endTime":22.11205275,"isDrum":true},{"pitch":38,"velocity":105,"startTime":22.241363,"endTime":22.370673250000003,"isDrum":true},{"pitch":39,"velocity":105,"startTime":22.241363,"endTime":22.370673250000003,"isDrum":true},{"pitch":40,"velocity":105,"startTime":22.241363,"endTime":22.370673250000003,"isDrum":true},{"pitch":42,"velocity":105,"startTime":22.241363,"endTime":22.370673250000003,"isDrum":true},{"pitch":42,"velocity":105,"startTime":22.499983500000003,"endTime":22.629293750000002,"isDrum":true},{"pitch":35,"velocity":105,"startTime":22.758604000000002,"endTime":22.88791425,"isDrum":true},{"pitch":42,"velocity":105,"startTime":22.758604000000002,"endTime":22.88791425,"isDrum":true},{"pitch":42,"velocity":105,"startTime":23.0172245,"endTime":23.14653475,"isDrum":true},{"pitch":38,"velocity":105,"startTime":23.275845,"endTime":23.40515525,"isDrum":true},{"pitch":39,"velocity":105,"startTime":23.275845,"endTime":23.40515525,"isDrum":true},{"pitch":40,"velocity":105,"startTime":23.275845,"endTime":23.40515525,"isDrum":true},{"pitch":42,"velocity":105,"startTime":23.275845,"endTime":23.40515525,"isDrum":true},{"pitch":42,"velocity":105,"startTime":23.5344655,"endTime":23.663775750000003,"isDrum":true},{"pitch":35,"velocity":105,"startTime":23.793086000000002,"endTime":23.922396250000002,"isDrum":true},{"pitch":42,"velocity":105,"startTime":23.793086000000002,"endTime":23.922396250000002,"isDrum":true},{"pitch":42,"velocity":105,"startTime":24.0517065,"endTime":24.18101675,"isDrum":true},{"pitch":38,"velocity":105,"startTime":24.310327,"endTime":24.43963725,"isDrum":true},{"pitch":39,"velocity":105,"startTime":24.310327,"endTime":24.43963725,"isDrum":true},{"pitch":40,"velocity":105,"startTime":24.310327,"endTime":24.43963725,"isDrum":true},{"pitch":42,"velocity":105,"startTime":24.310327,"endTime":24.43963725,"isDrum":true},{"pitch":42,"velocity":105,"startTime":24.5689475,"endTime":24.69825775,"isDrum":true},{"pitch":35,"velocity":105,"startTime":24.827568000000003,"endTime":24.956878250000003,"isDrum":true},{"pitch":42,"velocity":105,"startTime":24.827568000000003,"endTime":24.956878250000003,"isDrum":true},{"pitch":42,"velocity":105,"startTime":25.086188500000002,"endTime":25.215498750000002,"isDrum":true},{"pitch":38,"velocity":105,"startTime":25.344809,"endTime":25.47411925,"isDrum":true},{"pitch":39,"velocity":105,"startTime":25.344809,"endTime":25.47411925,"isDrum":true},{"pitch":40,"velocity":105,"startTime":25.344809,"endTime":25.47411925,"isDrum":true},{"pitch":42,"velocity":105,"startTime":25.344809,"endTime":25.47411925,"isDrum":true},{"pitch":42,"velocity":105,"startTime":25.6034295,"endTime":25.73273975,"isDrum":true},{"pitch":35,"velocity":105,"startTime":25.86205,"endTime":25.991360250000003,"isDrum":true},{"pitch":42,"velocity":105,"startTime":25.86205,"endTime":25.991360250000003,"isDrum":true},{"pitch":42,"velocity":105,"startTime":26.120670500000003,"endTime":26.249980750000002,"isDrum":true},{"pitch":38,"velocity":105,"startTime":26.379291000000002,"endTime":26.50860125,"isDrum":true},{"pitch":39,"velocity":105,"startTime":26.379291000000002,"endTime":26.50860125,"isDrum":true},{"pitch":40,"velocity":105,"startTime":26.379291000000002,"endTime":26.50860125,"isDrum":true},{"pitch":42,"velocity":105,"startTime":26.379291000000002,"endTime":26.50860125,"isDrum":true},{"pitch":42,"velocity":105,"startTime":26.6379115,"endTime":26.76722175,"isDrum":true},{"pitch":35,"velocity":105,"startTime":26.896532,"endTime":27.02584225,"isDrum":true},{"pitch":42,"velocity":105,"startTime":26.896532,"endTime":27.02584225,"isDrum":true},{"pitch":42,"velocity":105,"startTime":27.1551525,"endTime":27.284462750000003,"isDrum":true},{"pitch":38,"velocity":105,"startTime":27.413773000000003,"endTime":27.543083250000002,"isDrum":true},{"pitch":39,"velocity":105,"startTime":27.413773000000003,"endTime":27.543083250000002,"isDrum":true},{"pitch":40,"velocity":105,"startTime":27.413773000000003,"endTime":27.543083250000002,"isDrum":true},{"pitch":42,"velocity":105,"startTime":27.413773000000003,"endTime":27.543083250000002,"isDrum":true},{"pitch":42,"velocity":105,"startTime":27.672393500000002,"endTime":27.80170375,"isDrum":true},{"pitch":35,"velocity":105,"startTime":27.931014,"endTime":28.06032425,"isDrum":true},{"pitch":42,"velocity":105,"startTime":27.931014,"endTime":28.06032425,"isDrum":true},{"pitch":42,"velocity":105,"startTime":28.1896345,"endTime":28.31894475,"isDrum":true},{"pitch":38,"velocity":105,"startTime":28.448255000000003,"endTime":28.577565250000003,"isDrum":true},{"pitch":39,"velocity":105,"startTime":28.448255000000003,"endTime":28.577565250000003,"isDrum":true},{"pitch":40,"velocity":105,"startTime":28.448255000000003,"endTime":28.577565250000003,"isDrum":true},{"pitch":42,"velocity":105,"startTime":28.448255000000003,"endTime":28.577565250000003,"isDrum":true},{"pitch":42,"velocity":105,"startTime":28.706875500000002,"endTime":28.836185750000002,"isDrum":true},{"pitch":35,"velocity":105,"startTime":28.965496,"endTime":29.09480625,"isDrum":true},{"pitch":42,"velocity":105,"startTime":28.965496,"endTime":29.09480625,"isDrum":true},{"pitch":42,"velocity":105,"startTime":29.2241165,"endTime":29.35342675,"isDrum":true},{"pitch":38,"velocity":105,"startTime":29.482737,"endTime":29.612047250000003,"isDrum":true},{"pitch":39,"velocity":105,"startTime":29.482737,"endTime":29.612047250000003,"isDrum":true},{"pitch":40,"velocity":105,"startTime":29.482737,"endTime":29.612047250000003,"isDrum":true},{"pitch":42,"velocity":105,"startTime":29.482737,"endTime":29.612047250000003,"isDrum":true},{"pitch":42,"velocity":105,"startTime":29.741357500000003,"endTime":29.870667750000003,"isDrum":true},{"pitch":35,"velocity":105,"startTime":29.999978000000002,"endTime":30.129288250000002,"isDrum":true},{"pitch":42,"velocity":105,"startTime":29.999978000000002,"endTime":30.129288250000002,"isDrum":true},{"pitch":42,"velocity":105,"startTime":30.2585985,"endTime":30.38790875,"isDrum":true},{"pitch":38,"velocity":105,"startTime":30.517219,"endTime":30.64652925,"isDrum":true},{"pitch":39,"velocity":105,"startTime":30.517219,"endTime":30.64652925,"isDrum":true},{"pitch":40,"velocity":105,"startTime":30.517219,"endTime":30.64652925,"isDrum":true},{"pitch":42,"velocity":105,"startTime":30.517219,"endTime":30.64652925,"isDrum":true},{"pitch":42,"velocity":105,"startTime":30.7758395,"endTime":30.905149750000003,"isDrum":true},{"pitch":60,"velocity":123,"startTime":16.8103325,"endTime":17.068953,"instrument":1,"program":4},{"pitch":64,"velocity":123,"startTime":16.8103325,"endTime":17.068953,"instrument":1,"program":4},{"pitch":66,"velocity":123,"startTime":16.8103325,"endTime":17.068953,"instrument":1,"program":4},{"pitch":69,"velocity":123,"startTime":16.8103325,"endTime":17.068953,"instrument":1,"program":4},{"pitch":60,"velocity":123,"startTime":17.3275735,"endTime":17.844814500000002,"instrument":1,"program":4},{"pitch":64,"velocity":123,"startTime":17.3275735,"endTime":17.844814500000002,"instrument":1,"program":4},{"pitch":66,"velocity":123,"startTime":17.3275735,"endTime":17.844814500000002,"instrument":1,"program":4},{"pitch":69,"velocity":123,"startTime":17.3275735,"endTime":17.844814500000002,"instrument":1,"program":4},{"pitch":61,"velocity":123,"startTime":19.3965375,"endTime":20.68964,"instrument":1,"program":4},{"pitch":64,"velocity":123,"startTime":19.3965375,"endTime":20.68964,"instrument":1,"program":4},{"pitch":68,"velocity":123,"startTime":19.3965375,"endTime":20.68964,"instrument":1,"program":4},{"pitch":69,"velocity":123,"startTime":19.3965375,"endTime":20.68964,"instrument":1,"program":4},{"pitch":60,"velocity":123,"startTime":20.9482605,"endTime":21.206881000000003,"instrument":1,"program":4},{"pitch":64,"velocity":123,"startTime":20.9482605,"endTime":21.206881000000003,"instrument":1,"program":4},{"pitch":66,"velocity":123,"startTime":20.9482605,"endTime":21.206881000000003,"instrument":1,"program":4},{"pitch":69,"velocity":123,"startTime":20.9482605,"endTime":21.206881000000003,"instrument":1,"program":4},{"pitch":60,"velocity":123,"startTime":21.465501500000002,"endTime":22.241363,"instrument":1,"program":4},{"pitch":62,"velocity":123,"startTime":21.465501500000002,"endTime":22.241363,"instrument":1,"program":4},{"pitch":66,"velocity":123,"startTime":21.465501500000002,"endTime":22.241363,"instrument":1,"program":4},{"pitch":69,"velocity":123,"startTime":21.465501500000002,"endTime":22.241363,"instrument":1,"program":4},{"pitch":62,"velocity":123,"startTime":22.499983500000003,"endTime":22.758604000000002,"instrument":1,"program":4},{"pitch":66,"velocity":123,"startTime":22.499983500000003,"endTime":22.758604000000002,"instrument":1,"program":4},{"pitch":69,"velocity":123,"startTime":22.499983500000003,"endTime":22.758604000000002,"instrument":1,"program":4},{"pitch":71,"velocity":123,"startTime":22.499983500000003,"endTime":22.758604000000002,"instrument":1,"program":4},{"pitch":62,"velocity":123,"startTime":23.0172245,"endTime":23.5344655,"instrument":1,"program":4},{"pitch":66,"velocity":123,"startTime":23.0172245,"endTime":23.5344655,"instrument":1,"program":4},{"pitch":69,"velocity":123,"startTime":23.0172245,"endTime":23.5344655,"instrument":1,"program":4},{"pitch":71,"velocity":123,"startTime":23.0172245,"endTime":23.5344655,"instrument":1,"program":4},{"pitch":62,"velocity":123,"startTime":23.793086000000002,"endTime":24.0517065,"instrument":1,"program":4},{"pitch":66,"velocity":123,"startTime":23.793086000000002,"endTime":24.0517065,"instrument":1,"program":4},{"pitch":69,"velocity":123,"startTime":23.793086000000002,"endTime":24.0517065,"instrument":1,"program":4},{"pitch":72,"velocity":123,"startTime":23.793086000000002,"endTime":24.0517065,"instrument":1,"program":4},{"pitch":62,"velocity":123,"startTime":24.310327,"endTime":24.5689475,"instrument":1,"program":4},{"pitch":66,"velocity":123,"startTime":24.310327,"endTime":24.5689475,"instrument":1,"program":4},{"pitch":69,"velocity":123,"startTime":24.310327,"endTime":24.5689475,"instrument":1,"program":4},{"pitch":72,"velocity":123,"startTime":24.310327,"endTime":24.5689475,"instrument":1,"program":4},{"pitch":62,"velocity":123,"startTime":24.827568000000003,"endTime":25.086188500000002,"instrument":1,"program":4},{"pitch":64,"velocity":123,"startTime":24.827568000000003,"endTime":25.086188500000002,"instrument":1,"program":4},{"pitch":68,"velocity":123,"startTime":24.827568000000003,"endTime":25.086188500000002,"instrument":1,"program":4},{"pitch":71,"velocity":123,"startTime":24.827568000000003,"endTime":25.086188500000002,"instrument":1,"program":4},{"pitch":62,"velocity":123,"startTime":25.344809,"endTime":25.6034295,"instrument":1,"program":4},{"pitch":64,"velocity":123,"startTime":25.344809,"endTime":25.6034295,"instrument":1,"program":4},{"pitch":68,"velocity":123,"startTime":25.344809,"endTime":25.6034295,"instrument":1,"program":4},{"pitch":71,"velocity":123,"startTime":25.344809,"endTime":25.6034295,"instrument":1,"program":4},{"pitch":61,"velocity":123,"startTime":26.120670500000003,"endTime":26.810325166666665,"instrument":1,"program":4},{"pitch":64,"velocity":123,"startTime":26.120670500000003,"endTime":26.810325166666665,"instrument":1,"program":4},{"pitch":68,"velocity":123,"startTime":26.120670500000003,"endTime":26.810325166666665,"instrument":1,"program":4},{"pitch":71,"velocity":123,"startTime":26.120670500000003,"endTime":26.810325166666665,"instrument":1,"program":4},{"pitch":61,"velocity":123,"startTime":26.896532,"endTime":27.1551525,"instrument":1,"program":4},{"pitch":64,"velocity":123,"startTime":26.896532,"endTime":27.1551525,"instrument":1,"program":4},{"pitch":68,"velocity":123,"startTime":26.896532,"endTime":27.1551525,"instrument":1,"program":4},{"pitch":71,"velocity":123,"startTime":26.896532,"endTime":27.1551525,"instrument":1,"program":4},{"pitch":61,"velocity":123,"startTime":27.413773000000003,"endTime":27.672393500000002,"instrument":1,"program":4},{"pitch":64,"velocity":123,"startTime":27.413773000000003,"endTime":27.672393500000002,"instrument":1,"program":4},{"pitch":68,"velocity":123,"startTime":27.413773000000003,"endTime":27.672393500000002,"instrument":1,"program":4},{"pitch":71,"velocity":123,"startTime":27.413773000000003,"endTime":27.672393500000002,"instrument":1,"program":4},{"pitch":61,"velocity":123,"startTime":27.931014,"endTime":28.1896345,"instrument":1,"program":4},{"pitch":64,"velocity":123,"startTime":27.931014,"endTime":28.1896345,"instrument":1,"program":4},{"pitch":68,"velocity":123,"startTime":27.931014,"endTime":28.1896345,"instrument":1,"program":4},{"pitch":71,"velocity":123,"startTime":27.931014,"endTime":28.1896345,"instrument":1,"program":4},{"pitch":61,"velocity":123,"startTime":28.448255000000003,"endTime":28.706875500000002,"instrument":1,"program":4},{"pitch":64,"velocity":123,"startTime":28.448255000000003,"endTime":28.706875500000002,"instrument":1,"program":4},{"pitch":68,"velocity":123,"startTime":28.448255000000003,"endTime":28.706875500000002,"instrument":1,"program":4},{"pitch":71,"velocity":123,"startTime":28.448255000000003,"endTime":28.706875500000002,"instrument":1,"program":4},{"pitch":60,"velocity":123,"startTime":28.965496,"endTime":29.2241165,"instrument":1,"program":4},{"pitch":64,"velocity":123,"startTime":28.965496,"endTime":29.2241165,"instrument":1,"program":4},{"pitch":67,"velocity":123,"startTime":28.965496,"endTime":29.2241165,"instrument":1,"program":4},{"pitch":69,"velocity":123,"startTime":28.965496,"endTime":29.2241165,"instrument":1,"program":4},{"pitch":60,"velocity":123,"startTime":29.482737,"endTime":29.741357500000003,"instrument":1,"program":4},{"pitch":62,"velocity":123,"startTime":29.482737,"endTime":29.741357500000003,"instrument":1,"program":4},{"pitch":66,"velocity":123,"startTime":29.482737,"endTime":29.741357500000003,"instrument":1,"program":4},{"pitch":69,"velocity":123,"startTime":29.482737,"endTime":29.741357500000003,"instrument":1,"program":4},{"pitch":62,"velocity":123,"startTime":30.2585985,"endTime":30.517219,"instrument":1,"program":4},{"pitch":66,"velocity":123,"startTime":30.2585985,"endTime":30.517219,"instrument":1,"program":4},{"pitch":69,"velocity":123,"startTime":30.2585985,"endTime":30.517219,"instrument":1,"program":4},{"pitch":71,"velocity":123,"startTime":30.2585985,"endTime":30.517219,"instrument":1,"program":4},{"pitch":62,"velocity":123,"startTime":30.517219,"endTime":30.7758395,"instrument":1,"program":4},{"pitch":66,"velocity":123,"startTime":30.517219,"endTime":30.7758395,"instrument":1,"program":4},{"pitch":69,"velocity":123,"startTime":30.517219,"endTime":30.7758395,"instrument":1,"program":4},{"pitch":71,"velocity":123,"startTime":30.517219,"endTime":30.7758395,"instrument":1,"program":4},{"pitch":59,"velocity":123,"startTime":31.034460000000003,"endTime":31.293080500000002,"instrument":1,"program":4},{"pitch":62,"velocity":123,"startTime":31.034460000000003,"endTime":31.293080500000002,"instrument":1,"program":4},{"pitch":66,"velocity":123,"startTime":31.034460000000003,"endTime":31.293080500000002,"instrument":1,"program":4},{"pitch":69,"velocity":123,"startTime":31.034460000000003,"endTime":31.293080500000002,"instrument":1,"program":4},{"pitch":59,"velocity":123,"startTime":31.551701,"endTime":31.8103215,"instrument":1,"program":4},{"pitch":62,"velocity":123,"startTime":31.551701,"endTime":31.8103215,"instrument":1,"program":4},{"pitch":66,"velocity":123,"startTime":31.551701,"endTime":31.8103215,"instrument":1,"program":4},{"pitch":69,"velocity":123,"startTime":31.551701,"endTime":31.8103215,"instrument":1,"program":4},{"pitch":59,"velocity":123,"startTime":32.068942,"endTime":32.3275625,"instrument":1,"program":4},{"pitch":62,"velocity":123,"startTime":32.068942,"endTime":32.3275625,"instrument":1,"program":4},{"pitch":66,"velocity":123,"startTime":32.068942,"endTime":32.3275625,"instrument":1,"program":4},{"pitch":69,"velocity":123,"startTime":32.068942,"endTime":32.3275625,"instrument":1,"program":4},{"pitch":59,"velocity":123,"startTime":32.586183,"endTime":32.844803500000005,"instrument":1,"program":4},{"pitch":62,"velocity":123,"startTime":32.586183,"endTime":32.844803500000005,"instrument":1,"program":4},{"pitch":66,"velocity":123,"startTime":32.586183,"endTime":32.844803500000005,"instrument":1,"program":4},{"pitch":69,"velocity":123,"startTime":32.586183,"endTime":32.844803500000005,"instrument":1,"program":4},{"pitch":38,"velocity":117,"startTime":16.93964275,"endTime":17.025849583333333,"instrument":4,"program":35},{"pitch":40,"velocity":117,"startTime":17.068953,"endTime":17.19826325,"instrument":4,"program":35},{"pitch":38,"velocity":117,"startTime":17.19826325,"endTime":17.284470083333332,"instrument":4,"program":35},{"pitch":32,"velocity":117,"startTime":17.3275735,"endTime":17.586194000000003,"instrument":4,"program":35},{"pitch":32,"velocity":117,"startTime":17.586194000000003,"endTime":18.01722816666667,"instrument":4,"program":35},{"pitch":32,"velocity":117,"startTime":18.103435,"endTime":18.534469166666668,"instrument":4,"program":35},{"pitch":33,"velocity":117,"startTime":19.655158,"endTime":19.78446825,"instrument":4,"program":35},{"pitch":33,"velocity":117,"startTime":19.9137785,"endTime":20.172399000000002,"instrument":4,"program":35},{"pitch":33,"velocity":117,"startTime":20.172399000000002,"endTime":20.4310195,"instrument":4,"program":35},{"pitch":28,"velocity":117,"startTime":20.4310195,"endTime":20.68964,"instrument":4,"program":35},{"pitch":36,"velocity":117,"startTime":21.07757075,"endTime":21.163777583333335,"instrument":4,"program":35},{"pitch":40,"velocity":117,"startTime":21.206881000000003,"endTime":21.336191250000002,"instrument":4,"program":35},{"pitch":36,"velocity":117,"startTime":21.336191250000002,"endTime":21.465501500000002,"instrument":4,"program":35},{"pitch":38,"velocity":117,"startTime":21.465501500000002,"endTime":21.59481175,"instrument":4,"program":35},{"pitch":28,"velocity":117,"startTime":24.827568000000003,"endTime":25.344809,"instrument":4,"program":35},{"pitch":33,"velocity":117,"startTime":28.448255000000003,"endTime":28.965496,"instrument":4,"program":35},{"pitch":38,"velocity":117,"startTime":32.068942,"endTime":32.49997616666666,"instrument":4,"program":35},{"pitch":36,"velocity":105,"startTime":33.103424000000004,"endTime":33.18963083333334,"isDrum":true},{"pitch":42,"velocity":105,"startTime":33.103424000000004,"endTime":33.18963083333334,"isDrum":true},{"pitch":42,"velocity":105,"startTime":33.3620445,"endTime":33.44825133333334,"isDrum":true},{"pitch":36,"velocity":105,"startTime":33.620665,"endTime":33.70687183333334,"isDrum":true},{"pitch":38,"velocity":105,"startTime":33.620665,"endTime":33.70687183333334,"isDrum":true},{"pitch":39,"velocity":105,"startTime":33.620665,"endTime":33.70687183333334,"isDrum":true},{"pitch":42,"velocity":105,"startTime":33.620665,"endTime":33.70687183333334,"isDrum":true},{"pitch":69,"velocity":105,"startTime":33.620665,"endTime":33.70687183333334,"isDrum":true},{"pitch":42,"velocity":105,"startTime":33.8792855,"endTime":33.96549233333334,"isDrum":true},{"pitch":36,"velocity":105,"startTime":34.137906,"endTime":34.224112833333336,"isDrum":true},{"pitch":42,"velocity":105,"startTime":34.137906,"endTime":34.224112833333336,"isDrum":true},{"pitch":42,"velocity":105,"startTime":34.3965265,"endTime":34.48273333333334,"isDrum":true},{"pitch":36,"velocity":105,"startTime":34.655147,"endTime":34.74135383333334,"isDrum":true},{"pitch":38,"velocity":105,"startTime":34.655147,"endTime":34.74135383333334,"isDrum":true},{"pitch":39,"velocity":105,"startTime":34.655147,"endTime":34.74135383333334,"isDrum":true},{"pitch":42,"velocity":105,"startTime":34.655147,"endTime":34.74135383333334,"isDrum":true},{"pitch":69,"velocity":105,"startTime":34.655147,"endTime":34.74135383333334,"isDrum":true},{"pitch":42,"velocity":105,"startTime":34.9137675,"endTime":34.99997433333334,"isDrum":true},{"pitch":36,"velocity":105,"startTime":35.172388000000005,"endTime":35.25859483333334,"isDrum":true},{"pitch":42,"velocity":105,"startTime":35.172388000000005,"endTime":35.25859483333334,"isDrum":true},{"pitch":42,"velocity":105,"startTime":35.431008500000004,"endTime":35.51721533333333,"isDrum":true},{"pitch":36,"velocity":105,"startTime":35.689629000000004,"endTime":35.77583583333333,"isDrum":true},{"pitch":38,"velocity":105,"startTime":35.689629000000004,"endTime":35.77583583333333,"isDrum":true},{"pitch":39,"velocity":105,"startTime":35.689629000000004,"endTime":35.77583583333333,"isDrum":true},{"pitch":42,"velocity":105,"startTime":35.689629000000004,"endTime":35.77583583333333,"isDrum":true},{"pitch":69,"velocity":105,"startTime":35.689629000000004,"endTime":35.77583583333333,"isDrum":true},{"pitch":42,"velocity":105,"startTime":35.9482495,"endTime":36.03445633333334,"isDrum":true},{"pitch":36,"velocity":105,"startTime":36.20687,"endTime":36.29307683333334,"isDrum":true},{"pitch":42,"velocity":105,"startTime":36.20687,"endTime":36.29307683333334,"isDrum":true},{"pitch":42,"velocity":105,"startTime":36.4654905,"endTime":36.55169733333334,"isDrum":true},{"pitch":36,"velocity":105,"startTime":36.724111,"endTime":36.810317833333336,"isDrum":true},{"pitch":38,"velocity":105,"startTime":36.724111,"endTime":36.810317833333336,"isDrum":true},{"pitch":39,"velocity":105,"startTime":36.724111,"endTime":36.810317833333336,"isDrum":true},{"pitch":42,"velocity":105,"startTime":36.724111,"endTime":36.810317833333336,"isDrum":true},{"pitch":69,"velocity":105,"startTime":36.724111,"endTime":36.810317833333336,"isDrum":true},{"pitch":42,"velocity":105,"startTime":36.9827315,"endTime":37.068938333333335,"isDrum":true},{"pitch":36,"velocity":105,"startTime":37.241352,"endTime":37.327558833333335,"isDrum":true},{"pitch":42,"velocity":105,"startTime":37.241352,"endTime":37.327558833333335,"isDrum":true},{"pitch":42,"velocity":105,"startTime":37.499972500000005,"endTime":37.586179333333334,"isDrum":true},{"pitch":36,"velocity":105,"startTime":37.758593000000005,"endTime":37.84479983333333,"isDrum":true},{"pitch":38,"velocity":105,"startTime":37.758593000000005,"endTime":37.84479983333333,"isDrum":true},{"pitch":39,"velocity":105,"startTime":37.758593000000005,"endTime":37.84479983333333,"isDrum":true},{"pitch":42,"velocity":105,"startTime":37.758593000000005,"endTime":37.84479983333333,"isDrum":true},{"pitch":69,"velocity":105,"startTime":37.758593000000005,"endTime":37.84479983333333,"isDrum":true},{"pitch":42,"velocity":105,"startTime":38.017213500000004,"endTime":38.10342033333333,"isDrum":true},{"pitch":36,"velocity":105,"startTime":38.275834,"endTime":38.36204083333334,"isDrum":true},{"pitch":42,"velocity":105,"startTime":38.275834,"endTime":38.36204083333334,"isDrum":true},{"pitch":42,"velocity":105,"startTime":38.5344545,"endTime":38.62066133333334,"isDrum":true},{"pitch":36,"velocity":105,"startTime":38.793075,"endTime":38.87928183333334,"isDrum":true},{"pitch":38,"velocity":105,"startTime":38.793075,"endTime":38.87928183333334,"isDrum":true},{"pitch":39,"velocity":105,"startTime":38.793075,"endTime":38.87928183333334,"isDrum":true},{"pitch":42,"velocity":105,"startTime":38.793075,"endTime":38.87928183333334,"isDrum":true},{"pitch":69,"velocity":105,"startTime":38.793075,"endTime":38.87928183333334,"isDrum":true},{"pitch":42,"velocity":105,"startTime":39.0516955,"endTime":39.13790233333334,"isDrum":true},{"pitch":36,"velocity":105,"startTime":39.310316,"endTime":39.396522833333336,"isDrum":true},{"pitch":42,"velocity":105,"startTime":39.310316,"endTime":39.396522833333336,"isDrum":true},{"pitch":42,"velocity":105,"startTime":39.5689365,"endTime":39.655143333333335,"isDrum":true},{"pitch":36,"velocity":105,"startTime":39.827557,"endTime":39.913763833333334,"isDrum":true},{"pitch":38,"velocity":105,"startTime":39.827557,"endTime":39.913763833333334,"isDrum":true},{"pitch":39,"velocity":105,"startTime":39.827557,"endTime":39.913763833333334,"isDrum":true},{"pitch":42,"velocity":105,"startTime":39.827557,"endTime":39.913763833333334,"isDrum":true},{"pitch":69,"velocity":105,"startTime":39.827557,"endTime":39.913763833333334,"isDrum":true},{"pitch":42,"velocity":105,"startTime":40.086177500000005,"endTime":40.17238433333333,"isDrum":true},{"pitch":36,"velocity":105,"startTime":40.344798000000004,"endTime":40.43100483333333,"isDrum":true},{"pitch":42,"velocity":105,"startTime":40.344798000000004,"endTime":40.43100483333333,"isDrum":true},{"pitch":42,"velocity":105,"startTime":40.603418500000004,"endTime":40.68962533333334,"isDrum":true},{"pitch":36,"velocity":105,"startTime":40.862039,"endTime":40.94824583333334,"isDrum":true},{"pitch":38,"velocity":105,"startTime":40.862039,"endTime":40.94824583333334,"isDrum":true},{"pitch":39,"velocity":105,"startTime":40.862039,"endTime":40.94824583333334,"isDrum":true},{"pitch":42,"velocity":105,"startTime":40.862039,"endTime":40.94824583333334,"isDrum":true},{"pitch":69,"velocity":105,"startTime":40.862039,"endTime":40.94824583333334,"isDrum":true},{"pitch":42,"velocity":105,"startTime":41.1206595,"endTime":41.20686633333334,"isDrum":true},{"pitch":36,"velocity":105,"startTime":41.37928,"endTime":41.46548683333334,"isDrum":true},{"pitch":42,"velocity":105,"startTime":41.37928,"endTime":41.46548683333334,"isDrum":true},{"pitch":42,"velocity":105,"startTime":41.6379005,"endTime":41.724107333333336,"isDrum":true},{"pitch":36,"velocity":105,"startTime":41.896521,"endTime":41.982727833333335,"isDrum":true},{"pitch":38,"velocity":105,"startTime":41.896521,"endTime":41.982727833333335,"isDrum":true},{"pitch":39,"velocity":105,"startTime":41.896521,"endTime":41.982727833333335,"isDrum":true},{"pitch":42,"velocity":105,"startTime":41.896521,"endTime":41.982727833333335,"isDrum":true},{"pitch":69,"velocity":105,"startTime":41.896521,"endTime":41.982727833333335,"isDrum":true},{"pitch":42,"velocity":105,"startTime":42.1551415,"endTime":42.241348333333335,"isDrum":true},{"pitch":36,"velocity":105,"startTime":42.413762000000006,"endTime":42.499968833333334,"isDrum":true},{"pitch":42,"velocity":105,"startTime":42.413762000000006,"endTime":42.499968833333334,"isDrum":true},{"pitch":42,"velocity":105,"startTime":42.672382500000005,"endTime":42.75858933333333,"isDrum":true},{"pitch":36,"velocity":105,"startTime":42.931003000000004,"endTime":43.01720983333333,"isDrum":true},{"pitch":38,"velocity":105,"startTime":42.931003000000004,"endTime":43.01720983333333,"isDrum":true},{"pitch":39,"velocity":105,"startTime":42.931003000000004,"endTime":43.01720983333333,"isDrum":true},{"pitch":42,"velocity":105,"startTime":42.931003000000004,"endTime":43.01720983333333,"isDrum":true},{"pitch":69,"velocity":105,"startTime":42.931003000000004,"endTime":43.01720983333333,"isDrum":true},{"pitch":42,"velocity":105,"startTime":43.1896235,"endTime":43.27583033333334,"isDrum":true},{"pitch":36,"velocity":105,"startTime":43.448244,"endTime":43.53445083333334,"isDrum":true},{"pitch":42,"velocity":105,"startTime":43.448244,"endTime":43.53445083333334,"isDrum":true},{"pitch":42,"velocity":105,"startTime":43.7068645,"endTime":43.79307133333334,"isDrum":true},{"pitch":36,"velocity":105,"startTime":43.965485,"endTime":44.05169183333334,"isDrum":true},{"pitch":38,"velocity":105,"startTime":43.965485,"endTime":44.05169183333334,"isDrum":true},{"pitch":39,"velocity":105,"startTime":43.965485,"endTime":44.05169183333334,"isDrum":true},{"pitch":42,"velocity":105,"startTime":43.965485,"endTime":44.05169183333334,"isDrum":true},{"pitch":69,"velocity":105,"startTime":43.965485,"endTime":44.05169183333334,"isDrum":true},{"pitch":42,"velocity":105,"startTime":44.2241055,"endTime":44.310312333333336,"isDrum":true},{"pitch":36,"velocity":105,"startTime":44.482726,"endTime":44.568932833333335,"isDrum":true},{"pitch":42,"velocity":105,"startTime":44.482726,"endTime":44.568932833333335,"isDrum":true},{"pitch":42,"velocity":105,"startTime":44.741346500000006,"endTime":44.827553333333334,"isDrum":true},{"pitch":36,"velocity":105,"startTime":44.999967000000005,"endTime":45.08617383333333,"isDrum":true},{"pitch":38,"velocity":105,"startTime":44.999967000000005,"endTime":45.08617383333333,"isDrum":true},{"pitch":39,"velocity":105,"startTime":44.999967000000005,"endTime":45.08617383333333,"isDrum":true},{"pitch":42,"velocity":105,"startTime":44.999967000000005,"endTime":45.08617383333333,"isDrum":true},{"pitch":69,"velocity":105,"startTime":44.999967000000005,"endTime":45.08617383333333,"isDrum":true},{"pitch":42,"velocity":105,"startTime":45.258587500000004,"endTime":45.34479433333333,"isDrum":true},{"pitch":36,"velocity":105,"startTime":45.517208000000004,"endTime":45.60341483333334,"isDrum":true},{"pitch":42,"velocity":105,"startTime":45.517208000000004,"endTime":45.60341483333334,"isDrum":true},{"pitch":42,"velocity":105,"startTime":45.7758285,"endTime":45.86203533333334,"isDrum":true},{"pitch":36,"velocity":105,"startTime":46.034449,"endTime":46.12065583333334,"isDrum":true},{"pitch":38,"velocity":105,"startTime":46.034449,"endTime":46.12065583333334,"isDrum":true},{"pitch":39,"velocity":105,"startTime":46.034449,"endTime":46.12065583333334,"isDrum":true},{"pitch":42,"velocity":105,"startTime":46.034449,"endTime":46.12065583333334,"isDrum":true},{"pitch":69,"velocity":105,"startTime":46.034449,"endTime":46.12065583333334,"isDrum":true},{"pitch":42,"velocity":105,"startTime":46.2930695,"endTime":46.37927633333334,"isDrum":true},{"pitch":60,"velocity":123,"startTime":33.103424000000004,"endTime":33.3620445,"instrument":1,"program":4},{"pitch":64,"velocity":123,"startTime":33.103424000000004,"endTime":33.3620445,"instrument":1,"program":4},{"pitch":66,"velocity":123,"startTime":33.103424000000004,"endTime":33.3620445,"instrument":1,"program":4},{"pitch":69,"velocity":123,"startTime":33.103424000000004,"endTime":33.3620445,"instrument":1,"program":4},{"pitch":60,"velocity":123,"startTime":33.620665,"endTime":33.8792855,"instrument":1,"program":4},{"pitch":64,"velocity":123,"startTime":33.620665,"endTime":33.8792855,"instrument":1,"program":4},{"pitch":66,"velocity":123,"startTime":33.620665,"endTime":33.8792855,"instrument":1,"program":4},{"pitch":69,"velocity":123,"startTime":33.620665,"endTime":33.8792855,"instrument":1,"program":4},{"pitch":60,"velocity":123,"startTime":34.137906,"endTime":34.3965265,"instrument":1,"program":4},{"pitch":63,"velocity":123,"startTime":34.137906,"endTime":34.3965265,"instrument":1,"program":4},{"pitch":66,"velocity":123,"startTime":34.137906,"endTime":34.3965265,"instrument":1,"program":4},{"pitch":68,"velocity":123,"startTime":34.137906,"endTime":34.3965265,"instrument":1,"program":4},{"pitch":60,"velocity":123,"startTime":34.655147,"endTime":34.9137675,"instrument":1,"program":4},{"pitch":63,"velocity":123,"startTime":34.655147,"endTime":34.9137675,"instrument":1,"program":4},{"pitch":66,"velocity":123,"startTime":34.655147,"endTime":34.9137675,"instrument":1,"program":4},{"pitch":68,"velocity":123,"startTime":34.655147,"endTime":34.9137675,"instrument":1,"program":4},{"pitch":61,"velocity":123,"startTime":35.431008500000004,"endTime":35.56031875,"instrument":1,"program":4},{"pitch":66,"velocity":123,"startTime":35.431008500000004,"endTime":35.56031875,"instrument":1,"program":4},{"pitch":68,"velocity":123,"startTime":35.431008500000004,"endTime":35.56031875,"instrument":1,"program":4},{"pitch":70,"velocity":123,"startTime":35.431008500000004,"endTime":35.56031875,"instrument":1,"program":4},{"pitch":61,"velocity":123,"startTime":35.689629000000004,"endTime":35.9482495,"instrument":1,"program":4},{"pitch":66,"velocity":123,"startTime":35.689629000000004,"endTime":35.9482495,"instrument":1,"program":4},{"pitch":68,"velocity":123,"startTime":35.689629000000004,"endTime":35.9482495,"instrument":1,"program":4},{"pitch":70,"velocity":123,"startTime":35.689629000000004,"endTime":35.9482495,"instrument":1,"program":4},{"pitch":61,"velocity":123,"startTime":36.20687,"endTime":36.50859391666667,"instrument":1,"program":4},{"pitch":64,"velocity":123,"startTime":36.20687,"endTime":36.50859391666667,"instrument":1,"program":4},{"pitch":66,"velocity":123,"startTime":36.20687,"endTime":36.50859391666667,"instrument":1,"program":4},{"pitch":69,"velocity":123,"startTime":36.20687,"endTime":36.50859391666667,"instrument":1,"program":4},{"pitch":61,"velocity":123,"startTime":36.724111,"endTime":36.9827315,"instrument":1,"program":4},{"pitch":64,"velocity":123,"startTime":36.724111,"endTime":36.9827315,"instrument":1,"program":4},{"pitch":66,"velocity":123,"startTime":36.724111,"endTime":36.9827315,"instrument":1,"program":4},{"pitch":69,"velocity":123,"startTime":36.724111,"endTime":36.9827315,"instrument":1,"program":4},{"pitch":60,"velocity":123,"startTime":37.241352,"endTime":37.499972500000005,"instrument":1,"program":4},{"pitch":64,"velocity":123,"startTime":37.241352,"endTime":37.499972500000005,"instrument":1,"program":4},{"pitch":67,"velocity":123,"startTime":37.241352,"endTime":37.499972500000005,"instrument":1,"program":4},{"pitch":69,"velocity":123,"startTime":37.241352,"endTime":37.499972500000005,"instrument":1,"program":4},{"pitch":60,"velocity":123,"startTime":37.758593000000005,"endTime":38.017213500000004,"instrument":1,"program":4},{"pitch":64,"velocity":123,"startTime":37.758593000000005,"endTime":38.017213500000004,"instrument":1,"program":4},{"pitch":67,"velocity":123,"startTime":37.758593000000005,"endTime":38.017213500000004,"instrument":1,"program":4},{"pitch":69,"velocity":123,"startTime":37.758593000000005,"endTime":38.017213500000004,"instrument":1,"program":4},{"pitch":62,"velocity":123,"startTime":38.275834,"endTime":38.5344545,"instrument":1,"program":4},{"pitch":64,"velocity":123,"startTime":38.275834,"endTime":38.5344545,"instrument":1,"program":4},{"pitch":69,"velocity":123,"startTime":38.275834,"endTime":38.5344545,"instrument":1,"program":4},{"pitch":62,"velocity":123,"startTime":39.0516955,"endTime":39.5689365,"instrument":1,"program":4},{"pitch":66,"velocity":123,"startTime":39.0516955,"endTime":39.5689365,"instrument":1,"program":4},{"pitch":69,"velocity":123,"startTime":39.0516955,"endTime":39.5689365,"instrument":1,"program":4},{"pitch":62,"velocity":123,"startTime":39.827557,"endTime":40.086177500000005,"instrument":1,"program":4},{"pitch":66,"velocity":123,"startTime":39.827557,"endTime":40.086177500000005,"instrument":1,"program":4},{"pitch":69,"velocity":123,"startTime":39.827557,"endTime":40.086177500000005,"instrument":1,"program":4},{"pitch":62,"velocity":123,"startTime":40.344798000000004,"endTime":40.603418500000004,"instrument":1,"program":4},{"pitch":66,"velocity":123,"startTime":40.344798000000004,"endTime":40.603418500000004,"instrument":1,"program":4},{"pitch":69,"velocity":123,"startTime":40.344798000000004,"endTime":40.603418500000004,"instrument":1,"program":4},{"pitch":62,"velocity":123,"startTime":40.862039,"endTime":41.1206595,"instrument":1,"program":4},{"pitch":66,"velocity":123,"startTime":40.862039,"endTime":41.1206595,"instrument":1,"program":4},{"pitch":69,"velocity":123,"startTime":40.862039,"endTime":41.1206595,"instrument":1,"program":4},{"pitch":62,"velocity":123,"startTime":41.37928,"endTime":41.6379005,"instrument":1,"program":4},{"pitch":64,"velocity":123,"startTime":41.37928,"endTime":41.6379005,"instrument":1,"program":4},{"pitch":67,"velocity":123,"startTime":41.37928,"endTime":41.6379005,"instrument":1,"program":4},{"pitch":62,"velocity":123,"startTime":41.896521,"endTime":42.11203808333334,"instrument":1,"program":4},{"pitch":64,"velocity":123,"startTime":41.896521,"endTime":42.11203808333334,"instrument":1,"program":4},{"pitch":67,"velocity":123,"startTime":41.896521,"endTime":42.11203808333334,"instrument":1,"program":4},{"pitch":63,"velocity":123,"startTime":42.1551415,"endTime":42.672382500000005,"instrument":1,"program":4},{"pitch":66,"velocity":123,"startTime":42.1551415,"endTime":42.672382500000005,"instrument":1,"program":4},{"pitch":68,"velocity":123,"startTime":42.1551415,"endTime":42.672382500000005,"instrument":1,"program":4},{"pitch":72,"velocity":123,"startTime":42.1551415,"endTime":42.672382500000005,"instrument":1,"program":4},{"pitch":66,"velocity":123,"startTime":42.931003000000004,"endTime":43.1896235,"instrument":1,"program":4},{"pitch":68,"velocity":123,"startTime":42.931003000000004,"endTime":43.1896235,"instrument":1,"program":4},{"pitch":72,"velocity":123,"startTime":42.931003000000004,"endTime":43.1896235,"instrument":1,"program":4},{"pitch":59,"velocity":123,"startTime":43.448244,"endTime":43.7068645,"instrument":1,"program":4},{"pitch":64,"velocity":123,"startTime":43.448244,"endTime":43.7068645,"instrument":1,"program":4},{"pitch":68,"velocity":123,"startTime":43.448244,"endTime":43.7068645,"instrument":1,"program":4},{"pitch":59,"velocity":123,"startTime":43.965485,"endTime":44.2241055,"instrument":1,"program":4},{"pitch":64,"velocity":123,"startTime":43.965485,"endTime":44.2241055,"instrument":1,"program":4},{"pitch":68,"velocity":123,"startTime":43.965485,"endTime":44.2241055,"instrument":1,"program":4},{"pitch":60,"velocity":123,"startTime":44.482726,"endTime":44.741346500000006,"instrument":1,"program":4},{"pitch":64,"velocity":123,"startTime":44.482726,"endTime":44.741346500000006,"instrument":1,"program":4},{"pitch":69,"velocity":123,"startTime":44.482726,"endTime":44.741346500000006,"instrument":1,"program":4},{"pitch":60,"velocity":123,"startTime":44.999967000000005,"endTime":45.21548408333334,"instrument":1,"program":4},{"pitch":64,"velocity":123,"startTime":44.999967000000005,"endTime":45.21548408333334,"instrument":1,"program":4},{"pitch":69,"velocity":123,"startTime":44.999967000000005,"endTime":45.21548408333334,"instrument":1,"program":4},{"pitch":60,"velocity":123,"startTime":45.258587500000004,"endTime":45.7758285,"instrument":1,"program":4},{"pitch":64,"velocity":123,"startTime":45.258587500000004,"endTime":45.7758285,"instrument":1,"program":4},{"pitch":67,"velocity":123,"startTime":45.258587500000004,"endTime":45.7758285,"instrument":1,"program":4},{"pitch":60,"velocity":123,"startTime":46.034449,"endTime":46.2930695,"instrument":1,"program":4},{"pitch":64,"velocity":123,"startTime":46.034449,"endTime":46.2930695,"instrument":1,"program":4},{"pitch":67,"velocity":123,"startTime":46.034449,"endTime":46.2930695,"instrument":1,"program":4},{"pitch":60,"velocity":123,"startTime":46.55169,"endTime":46.8103105,"instrument":1,"program":4},{"pitch":64,"velocity":123,"startTime":46.55169,"endTime":46.8103105,"instrument":1,"program":4},{"pitch":67,"velocity":123,"startTime":46.55169,"endTime":46.8103105,"instrument":1,"program":4},{"pitch":60,"velocity":123,"startTime":47.068931,"endTime":47.327551500000006,"instrument":1,"program":4},{"pitch":64,"velocity":123,"startTime":47.068931,"endTime":47.327551500000006,"instrument":1,"program":4},{"pitch":67,"velocity":123,"startTime":47.068931,"endTime":47.327551500000006,"instrument":1,"program":4},{"pitch":62,"velocity":123,"startTime":47.586172000000005,"endTime":47.844792500000004,"instrument":1,"program":4},{"pitch":66,"velocity":123,"startTime":47.586172000000005,"endTime":47.844792500000004,"instrument":1,"program":4},{"pitch":69,"velocity":123,"startTime":47.586172000000005,"endTime":47.844792500000004,"instrument":1,"program":4},{"pitch":62,"velocity":123,"startTime":48.103413,"endTime":48.318930083333335,"instrument":1,"program":4},{"pitch":66,"velocity":123,"startTime":48.103413,"endTime":48.318930083333335,"instrument":1,"program":4},{"pitch":69,"velocity":123,"startTime":48.103413,"endTime":48.318930083333335,"instrument":1,"program":4},{"pitch":62,"velocity":123,"startTime":48.8792745,"endTime":49.008584750000004,"instrument":1,"program":4},{"pitch":64,"velocity":123,"startTime":48.8792745,"endTime":49.008584750000004,"instrument":1,"program":4},{"pitch":69,"velocity":123,"startTime":48.8792745,"endTime":49.008584750000004,"instrument":1,"program":4},{"pitch":62,"velocity":123,"startTime":49.137895,"endTime":49.3965155,"instrument":1,"program":4},{"pitch":64,"velocity":123,"startTime":49.137895,"endTime":49.3965155,"instrument":1,"program":4},{"pitch":69,"velocity":123,"startTime":49.137895,"endTime":49.3965155,"instrument":1,"program":4},{"pitch":50,"velocity":123,"startTime":48.620654,"endTime":49.655136000000006,"instrument":3,"program":34},{"pitch":44,"velocity":117,"startTime":33.8792855,"endTime":34.008595750000005,"instrument":4,"program":35},{"pitch":44,"velocity":117,"startTime":34.137906,"endTime":34.310319666666665,"instrument":4,"program":35},{"pitch":30,"velocity":117,"startTime":35.172388000000005,"endTime":35.34480166666667,"instrument":4,"program":35},{"pitch":33,"velocity":117,"startTime":36.20687,"endTime":36.336180250000005,"instrument":4,"program":35},{"pitch":33,"velocity":117,"startTime":36.4654905,"endTime":36.594800750000005,"instrument":4,"program":35},{"pitch":35,"velocity":117,"startTime":37.499972500000005,"endTime":37.62928275,"instrument":4,"program":35},{"pitch":36,"velocity":117,"startTime":38.017213500000004,"endTime":38.14652375,"instrument":4,"program":35},{"pitch":28,"velocity":117,"startTime":38.275834,"endTime":38.44824766666667,"instrument":4,"program":35},{"pitch":35,"velocity":117,"startTime":39.310316,"endTime":39.48272966666667,"instrument":4,"program":35},{"pitch":35,"velocity":117,"startTime":40.086177500000005,"endTime":40.21548775,"instrument":4,"program":35},{"pitch":35,"velocity":117,"startTime":41.1206595,"endTime":41.249969750000005,"instrument":4,"program":35},{"pitch":35,"velocity":117,"startTime":41.249969750000005,"endTime":41.336176583333334,"instrument":4,"program":35},{"pitch":28,"velocity":117,"startTime":41.37928,"endTime":41.55169366666667,"instrument":4,"program":35},{"pitch":28,"velocity":117,"startTime":42.1551415,"endTime":42.28445175,"instrument":4,"program":35},{"pitch":32,"velocity":117,"startTime":42.413762000000006,"endTime":42.58617566666667,"instrument":4,"program":35},{"pitch":37,"velocity":117,"startTime":43.448244,"endTime":43.53445083333334,"instrument":4,"program":35},{"pitch":25,"velocity":117,"startTime":43.577554250000006,"endTime":43.663761083333334,"instrument":4,"program":35},{"pitch":37,"velocity":117,"startTime":43.7068645,"endTime":43.836174750000005,"instrument":4,"program":35},{"pitch":38,"velocity":117,"startTime":44.741346500000006,"endTime":44.87065675,"instrument":4,"program":35},{"pitch":38,"velocity":117,"startTime":44.999967000000005,"endTime":45.08617383333333,"instrument":4,"program":35},{"pitch":40,"velocity":117,"startTime":45.12927725,"endTime":45.21548408333334,"instrument":4,"program":35},{"pitch":38,"velocity":117,"startTime":45.258587500000004,"endTime":45.474104583333336,"instrument":4,"program":35},{"pitch":36,"velocity":117,"startTime":45.517208000000004,"endTime":45.68962166666667,"instrument":4,"program":35},{"pitch":38,"velocity":117,"startTime":46.2930695,"endTime":46.422379750000005,"instrument":4,"program":35},{"pitch":38,"velocity":117,"startTime":46.55169,"endTime":46.72410366666667,"instrument":4,"program":35},{"pitch":38,"velocity":117,"startTime":46.8103105,"endTime":46.93962075,"instrument":4,"program":35},{"pitch":38,"velocity":117,"startTime":47.068931,"endTime":47.24134466666667,"instrument":4,"program":35},{"pitch":35,"velocity":117,"startTime":48.8792745,"endTime":49.008584750000004,"instrument":4,"program":35},{"pitch":35,"velocity":117,"startTime":49.008584750000004,"endTime":49.137895,"instrument":4,"program":35},{"pitch":38,"velocity":117,"startTime":49.137895,"endTime":49.26720525,"instrument":4,"program":35},{"pitch":35,"velocity":117,"startTime":49.26720525,"endTime":49.35341208333334,"instrument":4,"program":35},{"pitch":33,"velocity":117,"startTime":49.3965155,"endTime":49.52582575,"instrument":4,"program":35},{"pitch":35,"velocity":118,"startTime":47.586172000000005,"endTime":47.844792500000004,"instrument":5,"program":87},{"pitch":38,"velocity":118,"startTime":49.3965155,"endTime":49.655136000000006,"instrument":5,"program":87},{"pitch":35,"velocity":105,"startTime":49.655136000000006,"endTime":49.78444625,"isDrum":true},{"pitch":42,"velocity":105,"startTime":49.655136000000006,"endTime":49.78444625,"isDrum":true},{"pitch":42,"velocity":105,"startTime":49.913756500000005,"endTime":50.04306675,"isDrum":true},{"pitch":38,"velocity":105,"startTime":50.172377000000004,"endTime":50.30168725,"isDrum":true},{"pitch":39,"velocity":105,"startTime":50.172377000000004,"endTime":50.30168725,"isDrum":true},{"pitch":42,"velocity":105,"startTime":50.172377000000004,"endTime":50.30168725,"isDrum":true},{"pitch":69,"velocity":105,"startTime":50.172377000000004,"endTime":50.30168725,"isDrum":true},{"pitch":35,"velocity":105,"startTime":50.430997500000004,"endTime":50.56030775,"isDrum":true},{"pitch":42,"velocity":105,"startTime":50.430997500000004,"endTime":50.56030775,"isDrum":true},{"pitch":42,"velocity":105,"startTime":50.689618,"endTime":50.818928250000006,"isDrum":true},{"pitch":35,"velocity":105,"startTime":50.9482385,"endTime":51.077548750000005,"isDrum":true},{"pitch":46,"velocity":105,"startTime":50.9482385,"endTime":51.077548750000005,"isDrum":true},{"pitch":38,"velocity":105,"startTime":51.206859,"endTime":51.336169250000005,"isDrum":true},{"pitch":39,"velocity":105,"startTime":51.206859,"endTime":51.336169250000005,"isDrum":true},{"pitch":42,"velocity":105,"startTime":51.206859,"endTime":51.336169250000005,"isDrum":true},{"pitch":69,"velocity":105,"startTime":51.206859,"endTime":51.336169250000005,"isDrum":true},{"pitch":35,"velocity":105,"startTime":51.4654795,"endTime":51.594789750000004,"isDrum":true},{"pitch":42,"velocity":105,"startTime":51.4654795,"endTime":51.594789750000004,"isDrum":true},{"pitch":35,"velocity":105,"startTime":51.7241,"endTime":51.85341025,"isDrum":true},{"pitch":42,"velocity":105,"startTime":51.7241,"endTime":51.85341025,"isDrum":true},{"pitch":42,"velocity":105,"startTime":51.85341025,"endTime":51.982720500000006,"isDrum":true},{"pitch":42,"velocity":105,"startTime":51.982720500000006,"endTime":52.11203075,"isDrum":true},{"pitch":38,"velocity":105,"startTime":52.241341000000006,"endTime":52.37065125,"isDrum":true},{"pitch":39,"velocity":105,"startTime":52.241341000000006,"endTime":52.37065125,"isDrum":true},{"pitch":42,"velocity":105,"startTime":52.241341000000006,"endTime":52.37065125,"isDrum":true},{"pitch":69,"velocity":105,"startTime":52.241341000000006,"endTime":52.37065125,"isDrum":true},{"pitch":35,"velocity":105,"startTime":52.499961500000005,"endTime":52.62927175,"isDrum":true},{"pitch":42,"velocity":105,"startTime":52.499961500000005,"endTime":52.62927175,"isDrum":true},{"pitch":42,"velocity":105,"startTime":52.758582000000004,"endTime":52.88789225,"isDrum":true},{"pitch":35,"velocity":105,"startTime":53.0172025,"endTime":53.14651275000001,"isDrum":true},{"pitch":46,"velocity":105,"startTime":53.0172025,"endTime":53.14651275000001,"isDrum":true},{"pitch":38,"velocity":105,"startTime":53.275823,"endTime":53.405133250000006,"isDrum":true},{"pitch":39,"velocity":105,"startTime":53.275823,"endTime":53.405133250000006,"isDrum":true},{"pitch":42,"velocity":105,"startTime":53.275823,"endTime":53.405133250000006,"isDrum":true},{"pitch":69,"velocity":105,"startTime":53.275823,"endTime":53.405133250000006,"isDrum":true},{"pitch":35,"velocity":105,"startTime":53.5344435,"endTime":53.663753750000005,"isDrum":true},{"pitch":42,"velocity":105,"startTime":53.5344435,"endTime":53.663753750000005,"isDrum":true},{"pitch":35,"velocity":105,"startTime":53.793064,"endTime":53.922374250000004,"isDrum":true},{"pitch":42,"velocity":105,"startTime":53.793064,"endTime":53.922374250000004,"isDrum":true},{"pitch":42,"velocity":105,"startTime":54.0516845,"endTime":54.18099475,"isDrum":true},{"pitch":38,"velocity":105,"startTime":54.310305,"endTime":54.43961525,"isDrum":true},{"pitch":39,"velocity":105,"startTime":54.310305,"endTime":54.43961525,"isDrum":true},{"pitch":42,"velocity":105,"startTime":54.310305,"endTime":54.43961525,"isDrum":true},{"pitch":69,"velocity":105,"startTime":54.310305,"endTime":54.43961525,"isDrum":true},{"pitch":35,"velocity":105,"startTime":54.568925500000006,"endTime":54.69823575,"isDrum":true},{"pitch":42,"velocity":105,"startTime":54.568925500000006,"endTime":54.69823575,"isDrum":true},{"pitch":42,"velocity":105,"startTime":54.827546000000005,"endTime":54.95685625,"isDrum":true},{"pitch":35,"velocity":105,"startTime":55.086166500000004,"endTime":55.21547675,"isDrum":true},{"pitch":46,"velocity":105,"startTime":55.086166500000004,"endTime":55.21547675,"isDrum":true},{"pitch":38,"velocity":105,"startTime":55.344787000000004,"endTime":55.47409725,"isDrum":true},{"pitch":39,"velocity":105,"startTime":55.344787000000004,"endTime":55.47409725,"isDrum":true},{"pitch":42,"velocity":105,"startTime":55.344787000000004,"endTime":55.47409725,"isDrum":true},{"pitch":69,"velocity":105,"startTime":55.344787000000004,"endTime":55.47409725,"isDrum":true},{"pitch":35,"velocity":105,"startTime":55.6034075,"endTime":55.732717750000006,"isDrum":true},{"pitch":42,"velocity":105,"startTime":55.6034075,"endTime":55.732717750000006,"isDrum":true},{"pitch":35,"velocity":105,"startTime":55.862028,"endTime":55.991338250000005,"isDrum":true},{"pitch":42,"velocity":105,"startTime":55.862028,"endTime":55.991338250000005,"isDrum":true},{"pitch":42,"velocity":105,"startTime":56.1206485,"endTime":56.249958750000005,"isDrum":true},{"pitch":38,"velocity":105,"startTime":56.379269,"endTime":56.508579250000004,"isDrum":true},{"pitch":39,"velocity":105,"startTime":56.379269,"endTime":56.508579250000004,"isDrum":true},{"pitch":42,"velocity":105,"startTime":56.379269,"endTime":56.508579250000004,"isDrum":true},{"pitch":69,"velocity":105,"startTime":56.379269,"endTime":56.508579250000004,"isDrum":true},{"pitch":35,"velocity":105,"startTime":56.6378895,"endTime":56.76719975,"isDrum":true},{"pitch":42,"velocity":105,"startTime":56.6378895,"endTime":56.76719975,"isDrum":true},{"pitch":42,"velocity":105,"startTime":56.896510000000006,"endTime":57.02582025,"isDrum":true},{"pitch":69,"velocity":105,"startTime":56.896510000000006,"endTime":57.02582025,"isDrum":true},{"pitch":35,"velocity":105,"startTime":57.155130500000006,"endTime":57.28444075,"isDrum":true},{"pitch":42,"velocity":105,"startTime":57.155130500000006,"endTime":57.28444075,"isDrum":true},{"pitch":38,"velocity":105,"startTime":57.413751000000005,"endTime":57.54306125,"isDrum":true},{"pitch":39,"velocity":105,"startTime":57.413751000000005,"endTime":57.54306125,"isDrum":true},{"pitch":42,"velocity":105,"startTime":57.413751000000005,"endTime":57.54306125,"isDrum":true},{"pitch":69,"velocity":105,"startTime":57.413751000000005,"endTime":57.54306125,"isDrum":true},{"pitch":35,"velocity":105,"startTime":57.672371500000004,"endTime":57.80168175,"isDrum":true},{"pitch":42,"velocity":105,"startTime":57.672371500000004,"endTime":57.80168175,"isDrum":true},{"pitch":35,"velocity":105,"startTime":57.930992,"endTime":58.06030225000001,"isDrum":true},{"pitch":42,"velocity":105,"startTime":57.930992,"endTime":58.06030225000001,"isDrum":true},{"pitch":38,"velocity":105,"startTime":58.448233,"endTime":58.577543250000005,"isDrum":true},{"pitch":39,"velocity":105,"startTime":58.448233,"endTime":58.577543250000005,"isDrum":true},{"pitch":42,"velocity":105,"startTime":58.448233,"endTime":58.577543250000005,"isDrum":true},{"pitch":69,"velocity":105,"startTime":58.448233,"endTime":58.577543250000005,"isDrum":true},{"pitch":35,"velocity":105,"startTime":58.7068535,"endTime":58.836163750000004,"isDrum":true},{"pitch":42,"velocity":105,"startTime":58.7068535,"endTime":58.836163750000004,"isDrum":true},{"pitch":42,"velocity":105,"startTime":58.965474,"endTime":59.094784250000004,"isDrum":true},{"pitch":35,"velocity":105,"startTime":59.22409450000001,"endTime":59.35340475,"isDrum":true},{"pitch":42,"velocity":105,"startTime":59.22409450000001,"endTime":59.35340475,"isDrum":true},{"pitch":38,"velocity":105,"startTime":59.482715000000006,"endTime":59.61202525,"isDrum":true},{"pitch":39,"velocity":105,"startTime":59.482715000000006,"endTime":59.61202525,"isDrum":true},{"pitch":42,"velocity":105,"startTime":59.482715000000006,"endTime":59.61202525,"isDrum":true},{"pitch":69,"velocity":105,"startTime":59.482715000000006,"endTime":59.61202525,"isDrum":true},{"pitch":35,"velocity":105,"startTime":59.741335500000005,"endTime":59.87064575,"isDrum":true},{"pitch":42,"velocity":105,"startTime":59.741335500000005,"endTime":59.87064575,"isDrum":true},{"pitch":35,"velocity":105,"startTime":59.999956000000005,"endTime":60.12926625,"isDrum":true},{"pitch":42,"velocity":105,"startTime":59.999956000000005,"endTime":60.12926625,"isDrum":true},{"pitch":38,"velocity":105,"startTime":60.517197,"endTime":60.646507250000006,"isDrum":true},{"pitch":39,"velocity":105,"startTime":60.517197,"endTime":60.646507250000006,"isDrum":true},{"pitch":42,"velocity":105,"startTime":60.517197,"endTime":60.646507250000006,"isDrum":true},{"pitch":69,"velocity":105,"startTime":60.517197,"endTime":60.646507250000006,"isDrum":true},{"pitch":35,"velocity":105,"startTime":60.7758175,"endTime":60.905127750000005,"isDrum":true},{"pitch":42,"velocity":105,"startTime":60.7758175,"endTime":60.905127750000005,"isDrum":true},{"pitch":42,"velocity":105,"startTime":61.034438,"endTime":61.163748250000005,"isDrum":true},{"pitch":35,"velocity":105,"startTime":61.2930585,"endTime":61.422368750000004,"isDrum":true},{"pitch":46,"velocity":105,"startTime":61.2930585,"endTime":61.422368750000004,"isDrum":true},{"pitch":38,"velocity":105,"startTime":61.551679,"endTime":61.68098925,"isDrum":true},{"pitch":39,"velocity":105,"startTime":61.551679,"endTime":61.68098925,"isDrum":true},{"pitch":42,"velocity":105,"startTime":61.551679,"endTime":61.68098925,"isDrum":true},{"pitch":69,"velocity":105,"startTime":61.551679,"endTime":61.68098925,"isDrum":true},{"pitch":35,"velocity":105,"startTime":61.810299500000006,"endTime":61.93960975,"isDrum":true},{"pitch":42,"velocity":105,"startTime":61.810299500000006,"endTime":61.93960975,"isDrum":true},{"pitch":35,"velocity":105,"startTime":62.068920000000006,"endTime":62.19823025,"isDrum":true},{"pitch":42,"velocity":105,"startTime":62.068920000000006,"endTime":62.19823025,"isDrum":true},{"pitch":38,"velocity":105,"startTime":62.586161000000004,"endTime":62.71547125,"isDrum":true},{"pitch":39,"velocity":105,"startTime":62.586161000000004,"endTime":62.71547125,"isDrum":true},{"pitch":42,"velocity":105,"startTime":62.586161000000004,"endTime":62.71547125,"isDrum":true},{"pitch":69,"velocity":105,"startTime":62.586161000000004,"endTime":62.71547125,"isDrum":true},{"pitch":35,"velocity":105,"startTime":62.8447815,"endTime":62.97409175000001,"isDrum":true},{"pitch":42,"velocity":105,"startTime":62.8447815,"endTime":62.97409175000001,"isDrum":true},{"pitch":42,"velocity":105,"startTime":63.103402,"endTime":63.232712250000006,"isDrum":true},{"pitch":35,"velocity":105,"startTime":63.3620225,"endTime":63.491332750000005,"isDrum":true},{"pitch":46,"velocity":105,"startTime":63.3620225,"endTime":63.491332750000005,"isDrum":true},{"pitch":38,"velocity":105,"startTime":63.620643,"endTime":63.749953250000004,"isDrum":true},{"pitch":39,"velocity":105,"startTime":63.620643,"endTime":63.749953250000004,"isDrum":true},{"pitch":42,"velocity":105,"startTime":63.620643,"endTime":63.749953250000004,"isDrum":true},{"pitch":69,"velocity":105,"startTime":63.620643,"endTime":63.749953250000004,"isDrum":true},{"pitch":35,"velocity":105,"startTime":63.8792635,"endTime":64.00857375000001,"isDrum":true},{"pitch":42,"velocity":105,"startTime":63.8792635,"endTime":64.00857375000001,"isDrum":true},{"pitch":42,"velocity":105,"startTime":64.137884,"endTime":64.26719425,"isDrum":true},{"pitch":69,"velocity":105,"startTime":64.137884,"endTime":64.26719425,"isDrum":true},{"pitch":35,"velocity":105,"startTime":64.3965045,"endTime":64.52581475000001,"isDrum":true},{"pitch":42,"velocity":105,"startTime":64.3965045,"endTime":64.52581475000001,"isDrum":true},{"pitch":38,"velocity":105,"startTime":64.655125,"endTime":64.78443525,"isDrum":true},{"pitch":39,"velocity":105,"startTime":64.655125,"endTime":64.78443525,"isDrum":true},{"pitch":42,"velocity":105,"startTime":64.655125,"endTime":64.78443525,"isDrum":true},{"pitch":69,"velocity":105,"startTime":64.655125,"endTime":64.78443525,"isDrum":true},{"pitch":35,"velocity":105,"startTime":64.9137455,"endTime":65.04305575000001,"isDrum":true},{"pitch":42,"velocity":105,"startTime":64.9137455,"endTime":65.04305575000001,"isDrum":true},{"pitch":62,"velocity":123,"startTime":56.896510000000006,"endTime":57.11202708333334,"instrument":1,"program":4},{"pitch":65,"velocity":123,"startTime":56.896510000000006,"endTime":57.11202708333334,"instrument":1,"program":4},{"pitch":69,"velocity":123,"startTime":56.896510000000006,"endTime":57.11202708333334,"instrument":1,"program":4},{"pitch":62,"velocity":123,"startTime":57.155130500000006,"endTime":57.28444075,"instrument":1,"program":4},{"pitch":65,"velocity":123,"startTime":57.155130500000006,"endTime":57.28444075,"instrument":1,"program":4},{"pitch":69,"velocity":123,"startTime":57.155130500000006,"endTime":57.28444075,"instrument":1,"program":4},{"pitch":62,"velocity":123,"startTime":57.672371500000004,"endTime":58.1896125,"instrument":1,"program":4},{"pitch":66,"velocity":123,"startTime":57.672371500000004,"endTime":58.1896125,"instrument":1,"program":4},{"pitch":69,"velocity":123,"startTime":57.672371500000004,"endTime":58.1896125,"instrument":1,"program":4},{"pitch":62,"velocity":123,"startTime":58.1896125,"endTime":58.318922750000006,"instrument":1,"program":4},{"pitch":66,"velocity":123,"startTime":58.1896125,"endTime":58.318922750000006,"instrument":1,"program":4},{"pitch":68,"velocity":123,"startTime":58.1896125,"endTime":58.318922750000006,"instrument":1,"program":4},{"pitch":60,"velocity":123,"startTime":59.999956000000005,"endTime":60.12926625,"instrument":1,"program":4},{"pitch":64,"velocity":123,"startTime":59.999956000000005,"endTime":60.12926625,"instrument":1,"program":4},{"pitch":69,"velocity":123,"startTime":59.999956000000005,"endTime":60.12926625,"instrument":1,"program":4},{"pitch":60,"velocity":123,"startTime":60.517197,"endTime":60.646507250000006,"instrument":1,"program":4},{"pitch":64,"velocity":123,"startTime":60.517197,"endTime":60.646507250000006,"instrument":1,"program":4},{"pitch":69,"velocity":123,"startTime":60.517197,"endTime":60.646507250000006,"instrument":1,"program":4},{"pitch":64,"velocity":123,"startTime":60.7758175,"endTime":60.905127750000005,"instrument":1,"program":4},{"pitch":69,"velocity":123,"startTime":60.7758175,"endTime":60.905127750000005,"instrument":1,"program":4},{"pitch":64,"velocity":123,"startTime":61.034438,"endTime":61.163748250000005,"instrument":1,"program":4},{"pitch":69,"velocity":123,"startTime":61.034438,"endTime":61.163748250000005,"instrument":1,"program":4},{"pitch":64,"velocity":123,"startTime":61.2930585,"endTime":61.422368750000004,"instrument":1,"program":4},{"pitch":69,"velocity":123,"startTime":61.2930585,"endTime":61.422368750000004,"instrument":1,"program":4},{"pitch":64,"velocity":123,"startTime":62.327540500000005,"endTime":62.45685075,"instrument":1,"program":4},{"pitch":67,"velocity":123,"startTime":62.327540500000005,"endTime":62.45685075,"instrument":1,"program":4},{"pitch":72,"velocity":123,"startTime":62.327540500000005,"endTime":62.45685075,"instrument":1,"program":4},{"pitch":64,"velocity":123,"startTime":62.586161000000004,"endTime":62.71547125,"instrument":1,"program":4},{"pitch":67,"velocity":123,"startTime":62.586161000000004,"endTime":62.71547125,"instrument":1,"program":4},{"pitch":72,"velocity":123,"startTime":62.586161000000004,"endTime":62.71547125,"instrument":1,"program":4},{"pitch":64,"velocity":123,"startTime":62.8447815,"endTime":62.97409175000001,"instrument":1,"program":4},{"pitch":67,"velocity":123,"startTime":62.8447815,"endTime":62.97409175000001,"instrument":1,"program":4},{"pitch":72,"velocity":123,"startTime":62.8447815,"endTime":62.97409175000001,"instrument":1,"program":4},{"pitch":57,"velocity":123,"startTime":63.8792635,"endTime":64.3965045,"instrument":1,"program":4},{"pitch":62,"velocity":123,"startTime":63.8792635,"endTime":64.3965045,"instrument":1,"program":4},{"pitch":66,"velocity":123,"startTime":63.8792635,"endTime":64.3965045,"instrument":1,"program":4},{"pitch":59,"velocity":123,"startTime":64.655125,"endTime":64.78443525,"instrument":1,"program":4},{"pitch":62,"velocity":123,"startTime":64.655125,"endTime":64.78443525,"instrument":1,"program":4},{"pitch":66,"velocity":123,"startTime":64.655125,"endTime":64.78443525,"instrument":1,"program":4},{"pitch":59,"velocity":123,"startTime":64.9137455,"endTime":65.04305575000001,"instrument":1,"program":4},{"pitch":62,"velocity":123,"startTime":64.9137455,"endTime":65.04305575000001,"instrument":1,"program":4},{"pitch":66,"velocity":123,"startTime":64.9137455,"endTime":65.04305575000001,"instrument":1,"program":4},{"pitch":59,"velocity":123,"startTime":65.172366,"endTime":65.4309865,"instrument":1,"program":4},{"pitch":62,"velocity":123,"startTime":65.172366,"endTime":65.4309865,"instrument":1,"program":4},{"pitch":66,"velocity":123,"startTime":65.172366,"endTime":65.4309865,"instrument":1,"program":4},{"pitch":38,"velocity":117,"startTime":49.655136000000006,"endTime":50.04306675,"instrument":4,"program":35},{"pitch":37,"velocity":117,"startTime":51.7241,"endTime":52.11203075,"instrument":4,"program":35},{"pitch":37,"velocity":117,"startTime":52.11203075,"endTime":52.241341000000006,"instrument":4,"program":35},{"pitch":36,"velocity":117,"startTime":52.758582000000004,"endTime":52.88789225,"instrument":4,"program":35},{"pitch":35,"velocity":117,"startTime":52.88789225,"endTime":53.0172025,"instrument":4,"program":35},{"pitch":33,"velocity":117,"startTime":53.0172025,"endTime":53.14651275000001,"instrument":4,"program":35},{"pitch":36,"velocity":117,"startTime":53.793064,"endTime":53.922374250000004,"instrument":4,"program":35},{"pitch":36,"velocity":117,"startTime":53.922374250000004,"endTime":54.0516845,"instrument":4,"program":35},{"pitch":36,"velocity":117,"startTime":54.0516845,"endTime":54.18099475,"instrument":4,"program":35},{"pitch":38,"velocity":117,"startTime":55.086166500000004,"endTime":55.344787000000004,"instrument":4,"program":35},{"pitch":40,"velocity":117,"startTime":55.344787000000004,"endTime":55.6034075,"instrument":4,"program":35},{"pitch":45,"velocity":117,"startTime":55.6034075,"endTime":55.732717750000006,"instrument":4,"program":35},{"pitch":35,"velocity":117,"startTime":55.862028,"endTime":55.991338250000005,"instrument":4,"program":35},{"pitch":36,"velocity":117,"startTime":55.991338250000005,"endTime":56.1206485,"instrument":4,"program":35},{"pitch":35,"velocity":117,"startTime":56.1206485,"endTime":56.249958750000005,"instrument":4,"program":35},{"pitch":33,"velocity":117,"startTime":57.672371500000004,"endTime":57.80168175,"instrument":4,"program":35},{"pitch":33,"velocity":117,"startTime":57.80168175,"endTime":57.930992,"instrument":4,"program":35},{"pitch":28,"velocity":117,"startTime":57.930992,"endTime":58.06030225000001,"instrument":4,"program":35},{"pitch":28,"velocity":117,"startTime":58.06030225000001,"endTime":58.1896125,"instrument":4,"program":35},{"pitch":28,"velocity":117,"startTime":58.1896125,"endTime":58.318922750000006,"instrument":4,"program":35},{"pitch":37,"velocity":117,"startTime":59.999956000000005,"endTime":60.12926625,"instrument":4,"program":35},{"pitch":37,"velocity":117,"startTime":60.12926625,"endTime":60.258576500000004,"instrument":4,"program":35},{"pitch":37,"velocity":117,"startTime":60.258576500000004,"endTime":60.38788675000001,"instrument":4,"program":35},{"pitch":38,"velocity":117,"startTime":61.810299500000006,"endTime":61.93960975,"instrument":4,"program":35},{"pitch":36,"velocity":117,"startTime":62.068920000000006,"endTime":62.19823025,"instrument":4,"program":35},{"pitch":36,"velocity":117,"startTime":62.19823025,"endTime":62.327540500000005,"instrument":4,"program":35},{"pitch":36,"velocity":117,"startTime":62.327540500000005,"endTime":62.45685075,"instrument":4,"program":35},{"pitch":35,"velocity":117,"startTime":64.137884,"endTime":64.26719425,"instrument":4,"program":35},{"pitch":35,"velocity":117,"startTime":64.26719425,"endTime":64.3965045,"instrument":4,"program":35},{"pitch":35,"velocity":117,"startTime":64.3965045,"endTime":64.52581475000001,"instrument":4,"program":35},{"pitch":35,"velocity":118,"startTime":55.862028,"endTime":56.1206485,"instrument":5,"program":87},{"pitch":40,"velocity":118,"startTime":57.930992,"endTime":58.1896125,"instrument":5,"program":87},{"pitch":37,"velocity":118,"startTime":59.999956000000005,"endTime":60.258576500000004,"instrument":5,"program":87},{"pitch":36,"velocity":118,"startTime":62.068920000000006,"endTime":62.327540500000005,"instrument":5,"program":87},{"pitch":35,"velocity":118,"startTime":64.137884,"endTime":64.3965045,"instrument":5,"program":87},{"pitch":35,"velocity":105,"startTime":66.20684800000001,"endTime":66.33615825,"isDrum":true},{"pitch":42,"velocity":105,"startTime":66.20684800000001,"endTime":66.33615825,"isDrum":true},{"pitch":42,"velocity":105,"startTime":66.4654685,"endTime":66.59477875,"isDrum":true},{"pitch":38,"velocity":105,"startTime":66.724089,"endTime":66.85339925000001,"isDrum":true},{"pitch":39,"velocity":105,"startTime":66.724089,"endTime":66.85339925000001,"isDrum":true},{"pitch":40,"velocity":105,"startTime":66.724089,"endTime":66.85339925000001,"isDrum":true},{"pitch":42,"velocity":105,"startTime":66.724089,"endTime":66.85339925000001,"isDrum":true},{"pitch":42,"velocity":105,"startTime":66.9827095,"endTime":67.11201975,"isDrum":true},{"pitch":35,"velocity":105,"startTime":67.24133,"endTime":67.37064025000001,"isDrum":true},{"pitch":42,"velocity":105,"startTime":67.24133,"endTime":67.37064025000001,"isDrum":true},{"pitch":42,"velocity":105,"startTime":67.4999505,"endTime":67.62926075,"isDrum":true},{"pitch":38,"velocity":105,"startTime":67.758571,"endTime":67.88788125,"isDrum":true},{"pitch":39,"velocity":105,"startTime":67.758571,"endTime":67.88788125,"isDrum":true},{"pitch":40,"velocity":105,"startTime":67.758571,"endTime":67.88788125,"isDrum":true},{"pitch":42,"velocity":105,"startTime":67.758571,"endTime":67.88788125,"isDrum":true},{"pitch":42,"velocity":105,"startTime":68.01719150000001,"endTime":68.14650175,"isDrum":true},{"pitch":35,"velocity":105,"startTime":68.275812,"endTime":68.40512225,"isDrum":true},{"pitch":42,"velocity":105,"startTime":68.275812,"endTime":68.40512225,"isDrum":true},{"pitch":42,"velocity":105,"startTime":68.53443250000001,"endTime":68.66374275,"isDrum":true},{"pitch":38,"velocity":105,"startTime":68.793053,"endTime":68.92236325,"isDrum":true},{"pitch":39,"velocity":105,"startTime":68.793053,"endTime":68.92236325,"isDrum":true},{"pitch":40,"velocity":105,"startTime":68.793053,"endTime":68.92236325,"isDrum":true},{"pitch":42,"velocity":105,"startTime":68.793053,"endTime":68.92236325,"isDrum":true},{"pitch":35,"velocity":105,"startTime":69.0516735,"endTime":69.18098375000001,"isDrum":true},{"pitch":42,"velocity":105,"startTime":69.0516735,"endTime":69.18098375000001,"isDrum":true},{"pitch":35,"velocity":105,"startTime":69.310294,"endTime":69.43960425,"isDrum":true},{"pitch":42,"velocity":105,"startTime":69.310294,"endTime":69.43960425,"isDrum":true},{"pitch":42,"velocity":105,"startTime":69.5689145,"endTime":69.69822475000001,"isDrum":true},{"pitch":38,"velocity":105,"startTime":69.827535,"endTime":69.95684525,"isDrum":true},{"pitch":39,"velocity":105,"startTime":69.827535,"endTime":69.95684525,"isDrum":true},{"pitch":40,"velocity":105,"startTime":69.827535,"endTime":69.95684525,"isDrum":true},{"pitch":42,"velocity":105,"startTime":69.827535,"endTime":69.95684525,"isDrum":true},{"pitch":42,"velocity":105,"startTime":70.0861555,"endTime":70.21546575,"isDrum":true},{"pitch":35,"velocity":105,"startTime":70.34477600000001,"endTime":70.47408625,"isDrum":true},{"pitch":42,"velocity":105,"startTime":70.34477600000001,"endTime":70.47408625,"isDrum":true},{"pitch":42,"velocity":105,"startTime":70.6033965,"endTime":70.73270675,"isDrum":true},{"pitch":38,"velocity":105,"startTime":70.86201700000001,"endTime":70.99132725,"isDrum":true},{"pitch":39,"velocity":105,"startTime":70.86201700000001,"endTime":70.99132725,"isDrum":true},{"pitch":40,"velocity":105,"startTime":70.86201700000001,"endTime":70.99132725,"isDrum":true},{"pitch":42,"velocity":105,"startTime":70.86201700000001,"endTime":70.99132725,"isDrum":true},{"pitch":35,"velocity":105,"startTime":71.1206375,"endTime":71.24994775,"isDrum":true},{"pitch":42,"velocity":105,"startTime":71.1206375,"endTime":71.24994775,"isDrum":true},{"pitch":35,"velocity":105,"startTime":71.37925800000001,"endTime":71.50856825000001,"isDrum":true},{"pitch":42,"velocity":105,"startTime":71.37925800000001,"endTime":71.50856825000001,"isDrum":true},{"pitch":42,"velocity":105,"startTime":71.6378785,"endTime":71.76718875,"isDrum":true},{"pitch":38,"velocity":105,"startTime":71.896499,"endTime":72.02580925000001,"isDrum":true},{"pitch":39,"velocity":105,"startTime":71.896499,"endTime":72.02580925000001,"isDrum":true},{"pitch":40,"velocity":105,"startTime":71.896499,"endTime":72.02580925000001,"isDrum":true},{"pitch":42,"velocity":105,"startTime":71.896499,"endTime":72.02580925000001,"isDrum":true},{"pitch":42,"velocity":105,"startTime":72.1551195,"endTime":72.28442975,"isDrum":true},{"pitch":35,"velocity":105,"startTime":72.41374,"endTime":72.54305025000001,"isDrum":true},{"pitch":42,"velocity":105,"startTime":72.41374,"endTime":72.54305025000001,"isDrum":true},{"pitch":42,"velocity":105,"startTime":72.67236050000001,"endTime":72.80167075,"isDrum":true},{"pitch":38,"velocity":105,"startTime":72.930981,"endTime":73.06029125,"isDrum":true},{"pitch":39,"velocity":105,"startTime":72.930981,"endTime":73.06029125,"isDrum":true},{"pitch":40,"velocity":105,"startTime":72.930981,"endTime":73.06029125,"isDrum":true},{"pitch":42,"velocity":105,"startTime":72.930981,"endTime":73.06029125,"isDrum":true},{"pitch":35,"velocity":105,"startTime":73.18960150000001,"endTime":73.31891175,"isDrum":true},{"pitch":42,"velocity":105,"startTime":73.18960150000001,"endTime":73.31891175,"isDrum":true},{"pitch":35,"velocity":105,"startTime":73.448222,"endTime":73.57753225,"isDrum":true},{"pitch":42,"velocity":105,"startTime":73.448222,"endTime":73.57753225,"isDrum":true},{"pitch":42,"velocity":105,"startTime":73.70684250000001,"endTime":73.83615275000001,"isDrum":true},{"pitch":38,"velocity":105,"startTime":73.965463,"endTime":74.09477325,"isDrum":true},{"pitch":39,"velocity":105,"startTime":73.965463,"endTime":74.09477325,"isDrum":true},{"pitch":42,"velocity":105,"startTime":73.965463,"endTime":74.09477325,"isDrum":true},{"pitch":42,"velocity":105,"startTime":74.2240835,"endTime":74.35339375000001,"isDrum":true},{"pitch":35,"velocity":105,"startTime":74.482704,"endTime":74.61201425,"isDrum":true},{"pitch":42,"velocity":105,"startTime":74.482704,"endTime":74.61201425,"isDrum":true},{"pitch":42,"velocity":105,"startTime":74.7413245,"endTime":74.87063475000001,"isDrum":true},{"pitch":38,"velocity":105,"startTime":74.99994500000001,"endTime":75.12925525,"isDrum":true},{"pitch":39,"velocity":105,"startTime":74.99994500000001,"endTime":75.12925525,"isDrum":true},{"pitch":40,"velocity":105,"startTime":74.99994500000001,"endTime":75.12925525,"isDrum":true},{"pitch":42,"velocity":105,"startTime":74.99994500000001,"endTime":75.12925525,"isDrum":true},{"pitch":35,"velocity":105,"startTime":75.2585655,"endTime":75.38787575,"isDrum":true},{"pitch":42,"velocity":105,"startTime":75.2585655,"endTime":75.38787575,"isDrum":true},{"pitch":35,"velocity":105,"startTime":75.51718600000001,"endTime":75.64649625,"isDrum":true},{"pitch":42,"velocity":105,"startTime":75.51718600000001,"endTime":75.64649625,"isDrum":true},{"pitch":42,"velocity":105,"startTime":75.7758065,"endTime":75.90511675,"isDrum":true},{"pitch":38,"velocity":105,"startTime":76.03442700000001,"endTime":76.16373725000001,"isDrum":true},{"pitch":39,"velocity":105,"startTime":76.03442700000001,"endTime":76.16373725000001,"isDrum":true},{"pitch":42,"velocity":105,"startTime":76.03442700000001,"endTime":76.16373725000001,"isDrum":true},{"pitch":42,"velocity":105,"startTime":76.2930475,"endTime":76.42235775,"isDrum":true},{"pitch":35,"velocity":105,"startTime":76.551668,"endTime":76.68097825000001,"isDrum":true},{"pitch":42,"velocity":105,"startTime":76.551668,"endTime":76.68097825000001,"isDrum":true},{"pitch":42,"velocity":105,"startTime":76.8102885,"endTime":76.93959875,"isDrum":true},{"pitch":38,"velocity":105,"startTime":77.068909,"endTime":77.19821925000001,"isDrum":true},{"pitch":39,"velocity":105,"startTime":77.068909,"endTime":77.19821925000001,"isDrum":true},{"pitch":40,"velocity":105,"startTime":77.068909,"endTime":77.19821925000001,"isDrum":true},{"pitch":42,"velocity":105,"startTime":77.068909,"endTime":77.19821925000001,"isDrum":true},{"pitch":35,"velocity":105,"startTime":77.32752950000001,"endTime":77.45683975,"isDrum":true},{"pitch":42,"velocity":105,"startTime":77.32752950000001,"endTime":77.45683975,"isDrum":true},{"pitch":35,"velocity":105,"startTime":77.58615,"endTime":77.71546025,"isDrum":true},{"pitch":42,"velocity":105,"startTime":77.58615,"endTime":77.71546025,"isDrum":true},{"pitch":42,"velocity":105,"startTime":77.84477050000001,"endTime":77.97408075,"isDrum":true},{"pitch":38,"velocity":105,"startTime":78.103391,"endTime":78.23270125,"isDrum":true},{"pitch":39,"velocity":105,"startTime":78.103391,"endTime":78.23270125,"isDrum":true},{"pitch":40,"velocity":105,"startTime":78.103391,"endTime":78.23270125,"isDrum":true},{"pitch":42,"velocity":105,"startTime":78.103391,"endTime":78.23270125,"isDrum":true},{"pitch":42,"velocity":105,"startTime":78.36201150000001,"endTime":78.49132175000001,"isDrum":true},{"pitch":35,"velocity":105,"startTime":78.620632,"endTime":78.74994225,"isDrum":true},{"pitch":42,"velocity":105,"startTime":78.620632,"endTime":78.74994225,"isDrum":true},{"pitch":42,"velocity":105,"startTime":78.8792525,"endTime":79.00856275000001,"isDrum":true},{"pitch":38,"velocity":105,"startTime":79.137873,"endTime":79.26718325,"isDrum":true},{"pitch":39,"velocity":105,"startTime":79.137873,"endTime":79.26718325,"isDrum":true},{"pitch":40,"velocity":105,"startTime":79.137873,"endTime":79.26718325,"isDrum":true},{"pitch":42,"velocity":105,"startTime":79.137873,"endTime":79.26718325,"isDrum":true},{"pitch":35,"velocity":105,"startTime":79.3964935,"endTime":79.52580375000001,"isDrum":true},{"pitch":42,"velocity":105,"startTime":79.3964935,"endTime":79.52580375000001,"isDrum":true},{"pitch":35,"velocity":105,"startTime":79.655114,"endTime":79.78442425,"isDrum":true},{"pitch":42,"velocity":105,"startTime":79.655114,"endTime":79.78442425,"isDrum":true},{"pitch":42,"velocity":105,"startTime":79.9137345,"endTime":80.04304475,"isDrum":true},{"pitch":38,"velocity":105,"startTime":80.17235500000001,"endTime":80.30166525,"isDrum":true},{"pitch":39,"velocity":105,"startTime":80.17235500000001,"endTime":80.30166525,"isDrum":true},{"pitch":40,"velocity":105,"startTime":80.17235500000001,"endTime":80.30166525,"isDrum":true},{"pitch":42,"velocity":105,"startTime":80.17235500000001,"endTime":80.30166525,"isDrum":true},{"pitch":42,"velocity":105,"startTime":80.4309755,"endTime":80.56028575,"isDrum":true},{"pitch":35,"velocity":105,"startTime":80.68959600000001,"endTime":80.81890625,"isDrum":true},{"pitch":42,"velocity":105,"startTime":80.68959600000001,"endTime":80.81890625,"isDrum":true},{"pitch":42,"velocity":105,"startTime":80.9482165,"endTime":81.07752675,"isDrum":true},{"pitch":38,"velocity":105,"startTime":81.20683700000001,"endTime":81.33614725000001,"isDrum":true},{"pitch":39,"velocity":105,"startTime":81.20683700000001,"endTime":81.33614725000001,"isDrum":true},{"pitch":40,"velocity":105,"startTime":81.20683700000001,"endTime":81.33614725000001,"isDrum":true},{"pitch":42,"velocity":105,"startTime":81.20683700000001,"endTime":81.33614725000001,"isDrum":true},{"pitch":35,"velocity":105,"startTime":81.4654575,"endTime":81.59476775,"isDrum":true},{"pitch":42,"velocity":105,"startTime":81.4654575,"endTime":81.59476775,"isDrum":true},{"pitch":59,"velocity":123,"startTime":66.724089,"endTime":66.9827095,"instrument":1,"program":4},{"pitch":62,"velocity":123,"startTime":66.724089,"endTime":66.9827095,"instrument":1,"program":4},{"pitch":66,"velocity":123,"startTime":66.724089,"endTime":66.9827095,"instrument":1,"program":4},{"pitch":68,"velocity":123,"startTime":66.724089,"endTime":66.9827095,"instrument":1,"program":4},{"pitch":59,"velocity":123,"startTime":66.9827095,"endTime":67.24133,"instrument":1,"program":4},{"pitch":62,"velocity":123,"startTime":66.9827095,"endTime":67.24133,"instrument":1,"program":4},{"pitch":66,"velocity":123,"startTime":66.9827095,"endTime":67.24133,"instrument":1,"program":4},{"pitch":68,"velocity":123,"startTime":66.9827095,"endTime":67.24133,"instrument":1,"program":4},{"pitch":59,"velocity":123,"startTime":67.24133,"endTime":67.62926075,"instrument":1,"program":4},{"pitch":63,"velocity":123,"startTime":67.24133,"endTime":67.62926075,"instrument":1,"program":4},{"pitch":66,"velocity":123,"startTime":67.24133,"endTime":67.62926075,"instrument":1,"program":4},{"pitch":68,"velocity":123,"startTime":67.24133,"endTime":67.62926075,"instrument":1,"program":4},{"pitch":59,"velocity":123,"startTime":67.62926075,"endTime":67.758571,"instrument":1,"program":4},{"pitch":63,"velocity":123,"startTime":67.62926075,"endTime":67.758571,"instrument":1,"program":4},{"pitch":66,"velocity":123,"startTime":67.62926075,"endTime":67.758571,"instrument":1,"program":4},{"pitch":68,"velocity":123,"startTime":67.62926075,"endTime":67.758571,"instrument":1,"program":4},{"pitch":59,"velocity":123,"startTime":68.01719150000001,"endTime":68.14650175,"instrument":1,"program":4},{"pitch":63,"velocity":123,"startTime":68.01719150000001,"endTime":68.14650175,"instrument":1,"program":4},{"pitch":66,"velocity":123,"startTime":68.01719150000001,"endTime":68.14650175,"instrument":1,"program":4},{"pitch":68,"velocity":123,"startTime":68.01719150000001,"endTime":68.14650175,"instrument":1,"program":4},{"pitch":61,"velocity":123,"startTime":68.793053,"endTime":69.310294,"instrument":1,"program":4},{"pitch":64,"velocity":123,"startTime":68.793053,"endTime":69.310294,"instrument":1,"program":4},{"pitch":68,"velocity":123,"startTime":68.793053,"endTime":69.310294,"instrument":1,"program":4},{"pitch":71,"velocity":123,"startTime":68.793053,"endTime":69.310294,"instrument":1,"program":4},{"pitch":61,"velocity":123,"startTime":69.5689145,"endTime":69.69822475000001,"instrument":1,"program":4},{"pitch":64,"velocity":123,"startTime":69.5689145,"endTime":69.69822475000001,"instrument":1,"program":4},{"pitch":66,"velocity":123,"startTime":69.5689145,"endTime":69.69822475000001,"instrument":1,"program":4},{"pitch":71,"velocity":123,"startTime":69.5689145,"endTime":69.69822475000001,"instrument":1,"program":4},{"pitch":61,"velocity":123,"startTime":70.0861555,"endTime":70.34477600000001,"instrument":1,"program":4},{"pitch":64,"velocity":123,"startTime":70.0861555,"endTime":70.34477600000001,"instrument":1,"program":4},{"pitch":66,"velocity":123,"startTime":70.0861555,"endTime":70.34477600000001,"instrument":1,"program":4},{"pitch":71,"velocity":123,"startTime":70.0861555,"endTime":70.34477600000001,"instrument":1,"program":4},{"pitch":60,"velocity":123,"startTime":70.34477600000001,"endTime":70.73270675,"instrument":1,"program":4},{"pitch":64,"velocity":123,"startTime":70.34477600000001,"endTime":70.73270675,"instrument":1,"program":4},{"pitch":67,"velocity":123,"startTime":70.34477600000001,"endTime":70.73270675,"instrument":1,"program":4},{"pitch":69,"velocity":123,"startTime":70.34477600000001,"endTime":70.73270675,"instrument":1,"program":4},{"pitch":60,"velocity":123,"startTime":70.73270675,"endTime":70.86201700000001,"instrument":1,"program":4},{"pitch":64,"velocity":123,"startTime":70.73270675,"endTime":70.86201700000001,"instrument":1,"program":4},{"pitch":67,"velocity":123,"startTime":70.73270675,"endTime":70.86201700000001,"instrument":1,"program":4},{"pitch":69,"velocity":123,"startTime":70.73270675,"endTime":70.86201700000001,"instrument":1,"program":4},{"pitch":60,"velocity":123,"startTime":71.1206375,"endTime":71.37925800000001,"instrument":1,"program":4},{"pitch":64,"velocity":123,"startTime":71.1206375,"endTime":71.37925800000001,"instrument":1,"program":4},{"pitch":67,"velocity":123,"startTime":71.1206375,"endTime":71.37925800000001,"instrument":1,"program":4},{"pitch":69,"velocity":123,"startTime":71.1206375,"endTime":71.37925800000001,"instrument":1,"program":4},{"pitch":60,"velocity":123,"startTime":71.37925800000001,"endTime":71.896499,"instrument":1,"program":4},{"pitch":64,"velocity":123,"startTime":71.37925800000001,"endTime":71.896499,"instrument":1,"program":4},{"pitch":66,"velocity":123,"startTime":71.37925800000001,"endTime":71.896499,"instrument":1,"program":4},{"pitch":69,"velocity":123,"startTime":71.37925800000001,"endTime":71.896499,"instrument":1,"program":4},{"pitch":60,"velocity":123,"startTime":71.896499,"endTime":72.1551195,"instrument":1,"program":4},{"pitch":64,"velocity":123,"startTime":71.896499,"endTime":72.1551195,"instrument":1,"program":4},{"pitch":66,"velocity":123,"startTime":71.896499,"endTime":72.1551195,"instrument":1,"program":4},{"pitch":69,"velocity":123,"startTime":71.896499,"endTime":72.1551195,"instrument":1,"program":4},{"pitch":60,"velocity":123,"startTime":72.1551195,"endTime":72.41374,"instrument":1,"program":4},{"pitch":64,"velocity":123,"startTime":72.1551195,"endTime":72.41374,"instrument":1,"program":4},{"pitch":66,"velocity":123,"startTime":72.1551195,"endTime":72.41374,"instrument":1,"program":4},{"pitch":69,"velocity":123,"startTime":72.1551195,"endTime":72.41374,"instrument":1,"program":4},{"pitch":62,"velocity":123,"startTime":72.67236050000001,"endTime":72.80167075,"instrument":1,"program":4},{"pitch":66,"velocity":123,"startTime":72.67236050000001,"endTime":72.80167075,"instrument":1,"program":4},{"pitch":69,"velocity":123,"startTime":72.67236050000001,"endTime":72.80167075,"instrument":1,"program":4},{"pitch":71,"velocity":123,"startTime":72.67236050000001,"endTime":72.80167075,"instrument":1,"program":4},{"pitch":62,"velocity":123,"startTime":73.18960150000001,"endTime":73.31891175,"instrument":1,"program":4},{"pitch":66,"velocity":123,"startTime":73.18960150000001,"endTime":73.31891175,"instrument":1,"program":4},{"pitch":69,"velocity":123,"startTime":73.18960150000001,"endTime":73.31891175,"instrument":1,"program":4},{"pitch":71,"velocity":123,"startTime":73.18960150000001,"endTime":73.31891175,"instrument":1,"program":4},{"pitch":66,"velocity":123,"startTime":74.7413245,"endTime":74.87063475000001,"instrument":1,"program":4},{"pitch":68,"velocity":123,"startTime":74.7413245,"endTime":74.87063475000001,"instrument":1,"program":4},{"pitch":71,"velocity":123,"startTime":74.7413245,"endTime":74.87063475000001,"instrument":1,"program":4},{"pitch":76,"velocity":123,"startTime":74.7413245,"endTime":74.87063475000001,"instrument":1,"program":4},{"pitch":66,"velocity":123,"startTime":75.2585655,"endTime":75.38787575,"instrument":1,"program":4},{"pitch":68,"velocity":123,"startTime":75.2585655,"endTime":75.38787575,"instrument":1,"program":4},{"pitch":71,"velocity":123,"startTime":75.2585655,"endTime":75.38787575,"instrument":1,"program":4},{"pitch":76,"velocity":123,"startTime":75.2585655,"endTime":75.38787575,"instrument":1,"program":4},{"pitch":66,"velocity":123,"startTime":75.7758065,"endTime":75.90511675,"instrument":1,"program":4},{"pitch":68,"velocity":123,"startTime":75.7758065,"endTime":75.90511675,"instrument":1,"program":4},{"pitch":71,"velocity":123,"startTime":75.7758065,"endTime":75.90511675,"instrument":1,"program":4},{"pitch":76,"velocity":123,"startTime":75.7758065,"endTime":75.90511675,"instrument":1,"program":4},{"pitch":66,"velocity":123,"startTime":76.2930475,"endTime":76.42235775,"instrument":1,"program":4},{"pitch":68,"velocity":123,"startTime":76.2930475,"endTime":76.42235775,"instrument":1,"program":4},{"pitch":71,"velocity":123,"startTime":76.2930475,"endTime":76.42235775,"instrument":1,"program":4},{"pitch":76,"velocity":123,"startTime":76.2930475,"endTime":76.42235775,"instrument":1,"program":4},{"pitch":59,"velocity":123,"startTime":77.068909,"endTime":77.45683975,"instrument":1,"program":4},{"pitch":61,"velocity":123,"startTime":77.068909,"endTime":77.45683975,"instrument":1,"program":4},{"pitch":66,"velocity":123,"startTime":77.068909,"endTime":77.45683975,"instrument":1,"program":4},{"pitch":68,"velocity":123,"startTime":77.068909,"endTime":77.45683975,"instrument":1,"program":4},{"pitch":59,"velocity":123,"startTime":77.45683975,"endTime":77.58615,"instrument":1,"program":4},{"pitch":61,"velocity":123,"startTime":77.45683975,"endTime":77.58615,"instrument":1,"program":4},{"pitch":66,"velocity":123,"startTime":77.45683975,"endTime":77.58615,"instrument":1,"program":4},{"pitch":68,"velocity":123,"startTime":77.45683975,"endTime":77.58615,"instrument":1,"program":4},{"pitch":59,"velocity":123,"startTime":77.84477050000001,"endTime":77.97408075,"instrument":1,"program":4},{"pitch":61,"velocity":123,"startTime":77.84477050000001,"endTime":77.97408075,"instrument":1,"program":4},{"pitch":66,"velocity":123,"startTime":77.84477050000001,"endTime":77.97408075,"instrument":1,"program":4},{"pitch":68,"velocity":123,"startTime":77.84477050000001,"endTime":77.97408075,"instrument":1,"program":4},{"pitch":59,"velocity":123,"startTime":78.36201150000001,"endTime":78.49132175000001,"instrument":1,"program":4},{"pitch":61,"velocity":123,"startTime":78.36201150000001,"endTime":78.49132175000001,"instrument":1,"program":4},{"pitch":66,"velocity":123,"startTime":78.36201150000001,"endTime":78.49132175000001,"instrument":1,"program":4},{"pitch":68,"velocity":123,"startTime":78.36201150000001,"endTime":78.49132175000001,"instrument":1,"program":4},{"pitch":60,"velocity":123,"startTime":78.620632,"endTime":79.00856275000001,"instrument":1,"program":4},{"pitch":64,"velocity":123,"startTime":78.620632,"endTime":79.00856275000001,"instrument":1,"program":4},{"pitch":67,"velocity":123,"startTime":78.620632,"endTime":79.00856275000001,"instrument":1,"program":4},{"pitch":69,"velocity":123,"startTime":78.620632,"endTime":79.00856275000001,"instrument":1,"program":4},{"pitch":60,"velocity":123,"startTime":79.00856275000001,"endTime":79.137873,"instrument":1,"program":4},{"pitch":64,"velocity":123,"startTime":79.00856275000001,"endTime":79.137873,"instrument":1,"program":4},{"pitch":67,"velocity":123,"startTime":79.00856275000001,"endTime":79.137873,"instrument":1,"program":4},{"pitch":69,"velocity":123,"startTime":79.00856275000001,"endTime":79.137873,"instrument":1,"program":4},{"pitch":60,"velocity":123,"startTime":79.3964935,"endTime":79.655114,"instrument":1,"program":4},{"pitch":64,"velocity":123,"startTime":79.3964935,"endTime":79.655114,"instrument":1,"program":4},{"pitch":67,"velocity":123,"startTime":79.3964935,"endTime":79.655114,"instrument":1,"program":4},{"pitch":69,"velocity":123,"startTime":79.3964935,"endTime":79.655114,"instrument":1,"program":4},{"pitch":60,"velocity":123,"startTime":79.9137345,"endTime":80.04304475,"instrument":1,"program":4},{"pitch":64,"velocity":123,"startTime":79.9137345,"endTime":80.04304475,"instrument":1,"program":4},{"pitch":66,"velocity":123,"startTime":79.9137345,"endTime":80.04304475,"instrument":1,"program":4},{"pitch":69,"velocity":123,"startTime":79.9137345,"endTime":80.04304475,"instrument":1,"program":4},{"pitch":60,"velocity":123,"startTime":80.4309755,"endTime":80.56028575,"instrument":1,"program":4},{"pitch":64,"velocity":123,"startTime":80.4309755,"endTime":80.56028575,"instrument":1,"program":4},{"pitch":66,"velocity":123,"startTime":80.4309755,"endTime":80.56028575,"instrument":1,"program":4},{"pitch":69,"velocity":123,"startTime":80.4309755,"endTime":80.56028575,"instrument":1,"program":4},{"pitch":62,"velocity":123,"startTime":81.20683700000001,"endTime":81.4654575,"instrument":1,"program":4},{"pitch":66,"velocity":123,"startTime":81.20683700000001,"endTime":81.4654575,"instrument":1,"program":4},{"pitch":71,"velocity":123,"startTime":81.20683700000001,"endTime":81.4654575,"instrument":1,"program":4},{"pitch":62,"velocity":123,"startTime":81.4654575,"endTime":81.59476775,"instrument":1,"program":4},{"pitch":66,"velocity":123,"startTime":81.4654575,"endTime":81.59476775,"instrument":1,"program":4},{"pitch":71,"velocity":123,"startTime":81.4654575,"endTime":81.59476775,"instrument":1,"program":4},{"pitch":66,"velocity":123,"startTime":81.9826985,"endTime":82.49993950000001,"instrument":1,"program":4},{"pitch":71,"velocity":123,"startTime":81.9826985,"endTime":82.49993950000001,"instrument":1,"program":4},{"pitch":74,"velocity":123,"startTime":81.9826985,"endTime":82.49993950000001,"instrument":1,"program":4},{"pitch":62,"velocity":123,"startTime":82.49993950000001,"endTime":82.62924975,"instrument":1,"program":4},{"pitch":66,"velocity":123,"startTime":82.49993950000001,"endTime":82.62924975,"instrument":1,"program":4},{"pitch":71,"velocity":123,"startTime":82.49993950000001,"endTime":82.62924975,"instrument":1,"program":4},{"pitch":74,"velocity":123,"startTime":82.49993950000001,"endTime":82.62924975,"instrument":1,"program":4},{"pitch":28,"velocity":117,"startTime":66.20684800000001,"endTime":66.33615825,"instrument":4,"program":35},{"pitch":28,"velocity":117,"startTime":66.37926166666668,"endTime":66.4654685,"instrument":4,"program":35},{"pitch":28,"velocity":117,"startTime":66.4654685,"endTime":66.59477875,"instrument":4,"program":35},{"pitch":32,"velocity":117,"startTime":68.53443250000001,"endTime":68.793053,"instrument":4,"program":35},{"pitch":37,"velocity":117,"startTime":68.793053,"endTime":68.92236325,"instrument":4,"program":35},{"pitch":33,"velocity":117,"startTime":68.96546666666669,"endTime":69.0516735,"instrument":4,"program":35},{"pitch":33,"velocity":117,"startTime":69.0516735,"endTime":69.18098375000001,"instrument":4,"program":35},{"pitch":36,"velocity":117,"startTime":71.1206375,"endTime":71.24994775,"instrument":4,"program":35},{"pitch":38,"velocity":117,"startTime":71.37925800000001,"endTime":71.50856825000001,"instrument":4,"program":35},{"pitch":38,"velocity":117,"startTime":71.55167166666666,"endTime":71.6378785,"instrument":4,"program":35},{"pitch":42,"velocity":117,"startTime":71.6378785,"endTime":71.76718875,"instrument":4,"program":35},{"pitch":35,"velocity":117,"startTime":72.41374,"endTime":72.67236050000001,"instrument":4,"program":35},{"pitch":35,"velocity":117,"startTime":72.67236050000001,"endTime":72.80167075,"instrument":4,"program":35},{"pitch":28,"velocity":117,"startTime":74.482704,"endTime":74.61201425,"instrument":4,"program":35},{"pitch":28,"velocity":117,"startTime":74.65511766666667,"endTime":74.7413245,"instrument":4,"program":35},{"pitch":28,"velocity":117,"startTime":74.7413245,"endTime":74.87063475000001,"instrument":4,"program":35},{"pitch":37,"velocity":117,"startTime":76.551668,"endTime":76.68097825000001,"instrument":4,"program":35},{"pitch":37,"velocity":117,"startTime":76.72408166666668,"endTime":76.8102885,"instrument":4,"program":35},{"pitch":37,"velocity":117,"startTime":76.8102885,"endTime":76.93959875,"instrument":4,"program":35},{"pitch":33,"velocity":117,"startTime":78.53442516666667,"endTime":78.620632,"instrument":4,"program":35},{"pitch":36,"velocity":117,"startTime":78.620632,"endTime":78.74994225,"instrument":4,"program":35},{"pitch":36,"velocity":117,"startTime":78.74994225,"endTime":78.8792525,"instrument":4,"program":35},{"pitch":35,"velocity":117,"startTime":78.8792525,"endTime":79.00856275000001,"instrument":4,"program":35},{"pitch":35,"velocity":117,"startTime":80.68959600000001,"endTime":80.81890625,"instrument":4,"program":35},{"pitch":35,"velocity":117,"startTime":80.86200966666667,"endTime":80.9482165,"instrument":4,"program":35},{"pitch":35,"velocity":117,"startTime":80.9482165,"endTime":81.07752675,"instrument":4,"program":35},{"pitch":38,"velocity":117,"startTime":82.241319,"endTime":82.37062925000001,"instrument":4,"program":35},{"pitch":38,"velocity":117,"startTime":82.41373266666668,"endTime":82.49993950000001,"instrument":4,"program":35},{"pitch":36,"velocity":105,"startTime":82.75856,"endTime":82.84476683333334,"isDrum":true},{"pitch":42,"velocity":105,"startTime":82.75856,"endTime":82.84476683333334,"isDrum":true},{"pitch":49,"velocity":105,"startTime":82.75856,"endTime":82.84476683333334,"isDrum":true},{"pitch":42,"velocity":105,"startTime":83.01718050000001,"endTime":83.10338733333334,"isDrum":true},{"pitch":38,"velocity":105,"startTime":83.275801,"endTime":83.36200783333334,"isDrum":true},{"pitch":39,"velocity":105,"startTime":83.275801,"endTime":83.36200783333334,"isDrum":true},{"pitch":42,"velocity":105,"startTime":83.275801,"endTime":83.36200783333334,"isDrum":true},{"pitch":69,"velocity":105,"startTime":83.275801,"endTime":83.36200783333334,"isDrum":true},{"pitch":42,"velocity":105,"startTime":83.53442150000001,"endTime":83.62062833333334,"isDrum":true},{"pitch":36,"velocity":105,"startTime":83.793042,"endTime":83.87924883333334,"isDrum":true},{"pitch":42,"velocity":105,"startTime":83.793042,"endTime":83.87924883333334,"isDrum":true},{"pitch":69,"velocity":105,"startTime":83.793042,"endTime":83.87924883333334,"isDrum":true},{"pitch":42,"velocity":105,"startTime":84.0516625,"endTime":84.13786933333334,"isDrum":true},{"pitch":38,"velocity":105,"startTime":84.310283,"endTime":84.39648983333333,"isDrum":true},{"pitch":39,"velocity":105,"startTime":84.310283,"endTime":84.39648983333333,"isDrum":true},{"pitch":42,"velocity":105,"startTime":84.310283,"endTime":84.39648983333333,"isDrum":true},{"pitch":69,"velocity":105,"startTime":84.310283,"endTime":84.39648983333333,"isDrum":true},{"pitch":42,"velocity":105,"startTime":84.5689035,"endTime":84.65511033333334,"isDrum":true},{"pitch":36,"velocity":105,"startTime":84.82752400000001,"endTime":84.91373083333333,"isDrum":true},{"pitch":42,"velocity":105,"startTime":84.82752400000001,"endTime":84.91373083333333,"isDrum":true},{"pitch":42,"velocity":105,"startTime":85.0861445,"endTime":85.17235133333334,"isDrum":true},{"pitch":38,"velocity":105,"startTime":85.34476500000001,"endTime":85.43097183333334,"isDrum":true},{"pitch":39,"velocity":105,"startTime":85.34476500000001,"endTime":85.43097183333334,"isDrum":true},{"pitch":42,"velocity":105,"startTime":85.34476500000001,"endTime":85.43097183333334,"isDrum":true},{"pitch":69,"velocity":105,"startTime":85.34476500000001,"endTime":85.43097183333334,"isDrum":true},{"pitch":36,"velocity":105,"startTime":85.6033855,"endTime":85.68959233333334,"isDrum":true},{"pitch":42,"velocity":105,"startTime":85.6033855,"endTime":85.68959233333334,"isDrum":true},{"pitch":36,"velocity":105,"startTime":85.86200600000001,"endTime":85.94821283333334,"isDrum":true},{"pitch":42,"velocity":105,"startTime":85.86200600000001,"endTime":85.94821283333334,"isDrum":true},{"pitch":42,"velocity":105,"startTime":86.1206265,"endTime":86.20683333333334,"isDrum":true},{"pitch":38,"velocity":105,"startTime":86.379247,"endTime":86.46545383333334,"isDrum":true},{"pitch":39,"velocity":105,"startTime":86.379247,"endTime":86.46545383333334,"isDrum":true},{"pitch":42,"velocity":105,"startTime":86.379247,"endTime":86.46545383333334,"isDrum":true},{"pitch":69,"velocity":105,"startTime":86.379247,"endTime":86.46545383333334,"isDrum":true},{"pitch":36,"velocity":105,"startTime":86.6378675,"endTime":86.72407433333333,"isDrum":true},{"pitch":42,"velocity":105,"startTime":86.6378675,"endTime":86.72407433333333,"isDrum":true},{"pitch":36,"velocity":105,"startTime":86.896488,"endTime":86.98269483333334,"isDrum":true},{"pitch":42,"velocity":105,"startTime":86.896488,"endTime":86.98269483333334,"isDrum":true},{"pitch":42,"velocity":105,"startTime":87.15510850000001,"endTime":87.24131533333333,"isDrum":true},{"pitch":38,"velocity":105,"startTime":87.413729,"endTime":87.49993583333334,"isDrum":true},{"pitch":39,"velocity":105,"startTime":87.413729,"endTime":87.49993583333334,"isDrum":true},{"pitch":42,"velocity":105,"startTime":87.413729,"endTime":87.49993583333334,"isDrum":true},{"pitch":69,"velocity":105,"startTime":87.413729,"endTime":87.49993583333334,"isDrum":true},{"pitch":36,"velocity":105,"startTime":87.67234950000001,"endTime":87.75855633333335,"isDrum":true},{"pitch":42,"velocity":105,"startTime":87.67234950000001,"endTime":87.75855633333335,"isDrum":true},{"pitch":36,"velocity":105,"startTime":87.93097,"endTime":88.01717683333334,"isDrum":true},{"pitch":42,"velocity":105,"startTime":87.93097,"endTime":88.01717683333334,"isDrum":true},{"pitch":42,"velocity":105,"startTime":88.18959050000001,"endTime":88.27579733333334,"isDrum":true},{"pitch":38,"velocity":105,"startTime":88.448211,"endTime":88.53441783333334,"isDrum":true},{"pitch":39,"velocity":105,"startTime":88.448211,"endTime":88.53441783333334,"isDrum":true},{"pitch":42,"velocity":105,"startTime":88.448211,"endTime":88.53441783333334,"isDrum":true},{"pitch":69,"velocity":105,"startTime":88.448211,"endTime":88.53441783333334,"isDrum":true},{"pitch":36,"velocity":105,"startTime":88.7068315,"endTime":88.79303833333334,"isDrum":true},{"pitch":42,"velocity":105,"startTime":88.7068315,"endTime":88.79303833333334,"isDrum":true},{"pitch":36,"velocity":105,"startTime":88.965452,"endTime":89.05165883333333,"isDrum":true},{"pitch":42,"velocity":105,"startTime":88.965452,"endTime":89.05165883333333,"isDrum":true},{"pitch":42,"velocity":105,"startTime":89.2240725,"endTime":89.31027933333334,"isDrum":true},{"pitch":38,"velocity":105,"startTime":89.48269300000001,"endTime":89.56889983333333,"isDrum":true},{"pitch":39,"velocity":105,"startTime":89.48269300000001,"endTime":89.56889983333333,"isDrum":true},{"pitch":42,"velocity":105,"startTime":89.48269300000001,"endTime":89.56889983333333,"isDrum":true},{"pitch":69,"velocity":105,"startTime":89.48269300000001,"endTime":89.56889983333333,"isDrum":true},{"pitch":36,"velocity":105,"startTime":89.7413135,"endTime":89.82752033333334,"isDrum":true},{"pitch":42,"velocity":105,"startTime":89.7413135,"endTime":89.82752033333334,"isDrum":true},{"pitch":36,"velocity":105,"startTime":89.99993400000001,"endTime":90.08614083333333,"isDrum":true},{"pitch":42,"velocity":105,"startTime":89.99993400000001,"endTime":90.08614083333333,"isDrum":true},{"pitch":42,"velocity":105,"startTime":90.2585545,"endTime":90.34476133333334,"isDrum":true},{"pitch":38,"velocity":105,"startTime":90.51717500000001,"endTime":90.60338183333334,"isDrum":true},{"pitch":39,"velocity":105,"startTime":90.51717500000001,"endTime":90.60338183333334,"isDrum":true},{"pitch":42,"velocity":105,"startTime":90.51717500000001,"endTime":90.60338183333334,"isDrum":true},{"pitch":69,"velocity":105,"startTime":90.51717500000001,"endTime":90.60338183333334,"isDrum":true},{"pitch":36,"velocity":105,"startTime":90.7757955,"endTime":90.86200233333334,"isDrum":true},{"pitch":42,"velocity":105,"startTime":90.7757955,"endTime":90.86200233333334,"isDrum":true},{"pitch":36,"velocity":105,"startTime":91.03441600000001,"endTime":91.12062283333334,"isDrum":true},{"pitch":42,"velocity":105,"startTime":91.03441600000001,"endTime":91.12062283333334,"isDrum":true},{"pitch":42,"velocity":105,"startTime":91.2930365,"endTime":91.37924333333333,"isDrum":true},{"pitch":38,"velocity":105,"startTime":91.551657,"endTime":91.63786383333334,"isDrum":true},{"pitch":39,"velocity":105,"startTime":91.551657,"endTime":91.63786383333334,"isDrum":true},{"pitch":42,"velocity":105,"startTime":91.551657,"endTime":91.63786383333334,"isDrum":true},{"pitch":69,"velocity":105,"startTime":91.551657,"endTime":91.63786383333334,"isDrum":true},{"pitch":36,"velocity":105,"startTime":91.81027750000001,"endTime":91.89648433333333,"isDrum":true},{"pitch":42,"velocity":105,"startTime":91.81027750000001,"endTime":91.89648433333333,"isDrum":true},{"pitch":36,"velocity":105,"startTime":92.068898,"endTime":92.15510483333334,"isDrum":true},{"pitch":42,"velocity":105,"startTime":92.068898,"endTime":92.15510483333334,"isDrum":true},{"pitch":42,"velocity":105,"startTime":92.32751850000001,"endTime":92.41372533333333,"isDrum":true},{"pitch":38,"velocity":105,"startTime":92.586139,"endTime":92.67234583333334,"isDrum":true},{"pitch":39,"velocity":105,"startTime":92.586139,"endTime":92.67234583333334,"isDrum":true},{"pitch":42,"velocity":105,"startTime":92.586139,"endTime":92.67234583333334,"isDrum":true},{"pitch":69,"velocity":105,"startTime":92.586139,"endTime":92.67234583333334,"isDrum":true},{"pitch":36,"velocity":105,"startTime":92.84475950000001,"endTime":92.93096633333334,"isDrum":true},{"pitch":42,"velocity":105,"startTime":92.84475950000001,"endTime":92.93096633333334,"isDrum":true},{"pitch":36,"velocity":105,"startTime":93.10338,"endTime":93.18958683333334,"isDrum":true},{"pitch":42,"velocity":105,"startTime":93.10338,"endTime":93.18958683333334,"isDrum":true},{"pitch":42,"velocity":105,"startTime":93.36200050000001,"endTime":93.44820733333334,"isDrum":true},{"pitch":38,"velocity":105,"startTime":93.620621,"endTime":93.70682783333334,"isDrum":true},{"pitch":39,"velocity":105,"startTime":93.620621,"endTime":93.70682783333334,"isDrum":true},{"pitch":42,"velocity":105,"startTime":93.620621,"endTime":93.70682783333334,"isDrum":true},{"pitch":69,"velocity":105,"startTime":93.620621,"endTime":93.70682783333334,"isDrum":true},{"pitch":36,"velocity":105,"startTime":93.8792415,"endTime":93.96544833333334,"isDrum":true},{"pitch":42,"velocity":105,"startTime":93.8792415,"endTime":93.96544833333334,"isDrum":true},{"pitch":36,"velocity":105,"startTime":94.137862,"endTime":94.22406883333333,"isDrum":true},{"pitch":42,"velocity":105,"startTime":94.137862,"endTime":94.22406883333333,"isDrum":true},{"pitch":42,"velocity":105,"startTime":94.3964825,"endTime":94.48268933333334,"isDrum":true},{"pitch":38,"velocity":105,"startTime":94.65510300000001,"endTime":94.74130983333333,"isDrum":true},{"pitch":39,"velocity":105,"startTime":94.65510300000001,"endTime":94.74130983333333,"isDrum":true},{"pitch":42,"velocity":105,"startTime":94.65510300000001,"endTime":94.74130983333333,"isDrum":true},{"pitch":69,"velocity":105,"startTime":94.65510300000001,"endTime":94.74130983333333,"isDrum":true},{"pitch":36,"velocity":105,"startTime":94.9137235,"endTime":94.99993033333334,"isDrum":true},{"pitch":42,"velocity":105,"startTime":94.9137235,"endTime":94.99993033333334,"isDrum":true},{"pitch":36,"velocity":105,"startTime":95.17234400000001,"endTime":95.25855083333335,"isDrum":true},{"pitch":42,"velocity":105,"startTime":95.17234400000001,"endTime":95.25855083333335,"isDrum":true},{"pitch":42,"velocity":105,"startTime":95.4309645,"endTime":95.51717133333334,"isDrum":true},{"pitch":38,"velocity":105,"startTime":95.68958500000001,"endTime":95.77579183333334,"isDrum":true},{"pitch":39,"velocity":105,"startTime":95.68958500000001,"endTime":95.77579183333334,"isDrum":true},{"pitch":42,"velocity":105,"startTime":95.68958500000001,"endTime":95.77579183333334,"isDrum":true},{"pitch":69,"velocity":105,"startTime":95.68958500000001,"endTime":95.77579183333334,"isDrum":true},{"pitch":36,"velocity":105,"startTime":95.9482055,"endTime":96.03441233333334,"isDrum":true},{"pitch":42,"velocity":105,"startTime":95.9482055,"endTime":96.03441233333334,"isDrum":true},{"pitch":36,"velocity":105,"startTime":96.206826,"endTime":96.29303283333334,"isDrum":true},{"pitch":42,"velocity":105,"startTime":96.206826,"endTime":96.29303283333334,"isDrum":true},{"pitch":42,"velocity":105,"startTime":96.4654465,"endTime":96.55165333333333,"isDrum":true},{"pitch":38,"velocity":105,"startTime":96.724067,"endTime":96.81027383333334,"isDrum":true},{"pitch":39,"velocity":105,"startTime":96.724067,"endTime":96.81027383333334,"isDrum":true},{"pitch":42,"velocity":105,"startTime":96.724067,"endTime":96.81027383333334,"isDrum":true},{"pitch":69,"velocity":105,"startTime":96.724067,"endTime":96.81027383333334,"isDrum":true},{"pitch":36,"velocity":105,"startTime":96.98268750000001,"endTime":97.06889433333333,"isDrum":true},{"pitch":42,"velocity":105,"startTime":96.98268750000001,"endTime":97.06889433333333,"isDrum":true},{"pitch":36,"velocity":105,"startTime":97.241308,"endTime":97.32751483333334,"isDrum":true},{"pitch":42,"velocity":105,"startTime":97.241308,"endTime":97.32751483333334,"isDrum":true},{"pitch":42,"velocity":105,"startTime":97.49992850000001,"endTime":97.58613533333335,"isDrum":true},{"pitch":38,"velocity":105,"startTime":97.758549,"endTime":97.84475583333334,"isDrum":true},{"pitch":39,"velocity":105,"startTime":97.758549,"endTime":97.84475583333334,"isDrum":true},{"pitch":42,"velocity":105,"startTime":97.758549,"endTime":97.84475583333334,"isDrum":true},{"pitch":69,"velocity":105,"startTime":97.758549,"endTime":97.84475583333334,"isDrum":true},{"pitch":36,"velocity":105,"startTime":98.01716950000001,"endTime":98.10337633333334,"isDrum":true},{"pitch":42,"velocity":105,"startTime":98.01716950000001,"endTime":98.10337633333334,"isDrum":true},{"pitch":63,"velocity":123,"startTime":84.0516625,"endTime":84.18097275000001,"instrument":1,"program":4},{"pitch":66,"velocity":123,"startTime":84.0516625,"endTime":84.18097275000001,"instrument":1,"program":4},{"pitch":68,"velocity":123,"startTime":84.0516625,"endTime":84.18097275000001,"instrument":1,"program":4},{"pitch":71,"velocity":123,"startTime":84.0516625,"endTime":84.18097275000001,"instrument":1,"program":4},{"pitch":56,"velocity":123,"startTime":85.0861445,"endTime":85.21545475,"instrument":1,"program":4},{"pitch":61,"velocity":123,"startTime":85.0861445,"endTime":85.21545475,"instrument":1,"program":4},{"pitch":64,"velocity":123,"startTime":85.0861445,"endTime":85.21545475,"instrument":1,"program":4},{"pitch":56,"velocity":123,"startTime":85.34476500000001,"endTime":85.6033855,"instrument":1,"program":4},{"pitch":61,"velocity":123,"startTime":85.34476500000001,"endTime":85.6033855,"instrument":1,"program":4},{"pitch":64,"velocity":123,"startTime":85.34476500000001,"endTime":85.6033855,"instrument":1,"program":4},{"pitch":56,"velocity":123,"startTime":86.1206265,"endTime":86.24993675,"instrument":1,"program":4},{"pitch":61,"velocity":123,"startTime":86.1206265,"endTime":86.24993675,"instrument":1,"program":4},{"pitch":64,"velocity":123,"startTime":86.1206265,"endTime":86.24993675,"instrument":1,"program":4},{"pitch":57,"velocity":123,"startTime":87.15510850000001,"endTime":87.28441875,"instrument":1,"program":4},{"pitch":60,"velocity":123,"startTime":87.15510850000001,"endTime":87.28441875,"instrument":1,"program":4},{"pitch":64,"velocity":123,"startTime":87.15510850000001,"endTime":87.28441875,"instrument":1,"program":4},{"pitch":57,"velocity":123,"startTime":88.18959050000001,"endTime":88.31890075000001,"instrument":1,"program":4},{"pitch":60,"velocity":123,"startTime":88.18959050000001,"endTime":88.31890075000001,"instrument":1,"program":4},{"pitch":64,"velocity":123,"startTime":88.18959050000001,"endTime":88.31890075000001,"instrument":1,"program":4},{"pitch":57,"velocity":123,"startTime":89.2240725,"endTime":89.35338275000001,"instrument":1,"program":4},{"pitch":59,"velocity":123,"startTime":89.2240725,"endTime":89.35338275000001,"instrument":1,"program":4},{"pitch":62,"velocity":123,"startTime":89.2240725,"endTime":89.35338275000001,"instrument":1,"program":4},{"pitch":66,"velocity":123,"startTime":89.2240725,"endTime":89.35338275000001,"instrument":1,"program":4},{"pitch":57,"velocity":123,"startTime":89.7413135,"endTime":89.87062375000001,"instrument":1,"program":4},{"pitch":59,"velocity":123,"startTime":89.7413135,"endTime":89.87062375000001,"instrument":1,"program":4},{"pitch":62,"velocity":123,"startTime":89.7413135,"endTime":89.87062375000001,"instrument":1,"program":4},{"pitch":66,"velocity":123,"startTime":89.7413135,"endTime":89.87062375000001,"instrument":1,"program":4},{"pitch":57,"velocity":123,"startTime":90.7757955,"endTime":90.90510575,"instrument":1,"program":4},{"pitch":59,"velocity":123,"startTime":90.7757955,"endTime":90.90510575,"instrument":1,"program":4},{"pitch":62,"velocity":123,"startTime":90.7757955,"endTime":90.90510575,"instrument":1,"program":4},{"pitch":66,"velocity":123,"startTime":90.7757955,"endTime":90.90510575,"instrument":1,"program":4},{"pitch":59,"velocity":123,"startTime":91.03441600000001,"endTime":91.2930365,"instrument":1,"program":4},{"pitch":62,"velocity":123,"startTime":91.03441600000001,"endTime":91.2930365,"instrument":1,"program":4},{"pitch":66,"velocity":123,"startTime":91.03441600000001,"endTime":91.2930365,"instrument":1,"program":4},{"pitch":59,"velocity":123,"startTime":92.32751850000001,"endTime":92.45682875,"instrument":1,"program":4},{"pitch":62,"velocity":123,"startTime":92.32751850000001,"endTime":92.45682875,"instrument":1,"program":4},{"pitch":66,"velocity":123,"startTime":92.32751850000001,"endTime":92.45682875,"instrument":1,"program":4},{"pitch":60,"velocity":123,"startTime":93.36200050000001,"endTime":93.49131075000001,"instrument":1,"program":4},{"pitch":64,"velocity":123,"startTime":93.36200050000001,"endTime":93.49131075000001,"instrument":1,"program":4},{"pitch":66,"velocity":123,"startTime":93.36200050000001,"endTime":93.49131075000001,"instrument":1,"program":4},{"pitch":59,"velocity":123,"startTime":94.137862,"endTime":94.3964825,"instrument":1,"program":4},{"pitch":61,"velocity":123,"startTime":94.137862,"endTime":94.3964825,"instrument":1,"program":4},{"pitch":64,"velocity":123,"startTime":94.137862,"endTime":94.3964825,"instrument":1,"program":4},{"pitch":60,"velocity":123,"startTime":95.4309645,"endTime":95.56027475,"instrument":1,"program":4},{"pitch":64,"velocity":123,"startTime":95.4309645,"endTime":95.56027475,"instrument":1,"program":4},{"pitch":66,"velocity":123,"startTime":95.4309645,"endTime":95.56027475,"instrument":1,"program":4},{"pitch":60,"velocity":123,"startTime":95.9482055,"endTime":96.07751575,"instrument":1,"program":4},{"pitch":64,"velocity":123,"startTime":95.9482055,"endTime":96.07751575,"instrument":1,"program":4},{"pitch":66,"velocity":123,"startTime":95.9482055,"endTime":96.07751575,"instrument":1,"program":4},{"pitch":60,"velocity":123,"startTime":96.206826,"endTime":96.59475675,"instrument":1,"program":4},{"pitch":64,"velocity":123,"startTime":96.206826,"endTime":96.59475675,"instrument":1,"program":4},{"pitch":66,"velocity":123,"startTime":96.206826,"endTime":96.59475675,"instrument":1,"program":4},{"pitch":60,"velocity":123,"startTime":96.724067,"endTime":97.11199775,"instrument":1,"program":4},{"pitch":64,"velocity":123,"startTime":96.724067,"endTime":97.11199775,"instrument":1,"program":4},{"pitch":66,"velocity":123,"startTime":96.724067,"endTime":97.11199775,"instrument":1,"program":4},{"pitch":57,"velocity":123,"startTime":97.49992850000001,"endTime":97.62923875,"instrument":1,"program":4},{"pitch":62,"velocity":123,"startTime":97.49992850000001,"endTime":97.62923875,"instrument":1,"program":4},{"pitch":66,"velocity":123,"startTime":97.49992850000001,"endTime":97.62923875,"instrument":1,"program":4},{"pitch":57,"velocity":123,"startTime":98.5344105,"endTime":98.66372075000001,"instrument":1,"program":4},{"pitch":62,"velocity":123,"startTime":98.5344105,"endTime":98.66372075000001,"instrument":1,"program":4},{"pitch":66,"velocity":123,"startTime":98.5344105,"endTime":98.66372075000001,"instrument":1,"program":4},{"pitch":40,"velocity":117,"startTime":82.75856,"endTime":82.88787025,"instrument":4,"program":35},{"pitch":40,"velocity":117,"startTime":83.01718050000001,"endTime":83.275801,"instrument":4,"program":35},{"pitch":28,"velocity":117,"startTime":83.66373175000001,"endTime":83.74993858333333,"instrument":4,"program":35},{"pitch":32,"velocity":117,"startTime":83.793042,"endTime":83.92235225,"instrument":4,"program":35},{"pitch":32,"velocity":117,"startTime":84.0516625,"endTime":84.310283,"instrument":4,"program":35},{"pitch":32,"velocity":117,"startTime":84.310283,"endTime":84.5689035,"instrument":4,"program":35},{"pitch":32,"velocity":117,"startTime":84.5689035,"endTime":84.82752400000001,"instrument":4,"program":35},{"pitch":36,"velocity":117,"startTime":86.896488,"endTime":87.15510850000001,"instrument":4,"program":35},{"pitch":36,"velocity":117,"startTime":87.15510850000001,"endTime":87.413729,"instrument":4,"program":35},{"pitch":38,"velocity":117,"startTime":87.93097,"endTime":88.06028025,"instrument":4,"program":35},{"pitch":38,"velocity":117,"startTime":88.06028025,"endTime":88.18959050000001,"instrument":4,"program":35},{"pitch":45,"velocity":117,"startTime":88.18959050000001,"endTime":88.448211,"instrument":4,"program":35},{"pitch":38,"velocity":117,"startTime":88.448211,"endTime":88.57752125,"instrument":4,"program":35},{"pitch":38,"velocity":117,"startTime":88.57752125,"endTime":88.7068315,"instrument":4,"program":35},{"pitch":38,"velocity":117,"startTime":88.83614175000001,"endTime":88.965452,"instrument":4,"program":35},{"pitch":35,"velocity":117,"startTime":88.965452,"endTime":89.09476225,"instrument":4,"program":35},{"pitch":35,"velocity":117,"startTime":89.09476225,"endTime":89.2240725,"instrument":4,"program":35},{"pitch":30,"velocity":117,"startTime":89.2240725,"endTime":89.39648616666668,"instrument":4,"program":35},{"pitch":35,"velocity":117,"startTime":90.2585545,"endTime":90.51717500000001,"instrument":4,"program":35},{"pitch":40,"velocity":117,"startTime":90.51717500000001,"endTime":90.7757955,"instrument":4,"program":35},{"pitch":35,"velocity":117,"startTime":90.7757955,"endTime":91.03441600000001,"instrument":4,"program":35},{"pitch":40,"velocity":117,"startTime":91.03441600000001,"endTime":91.16372625000001,"instrument":4,"program":35},{"pitch":35,"velocity":117,"startTime":91.16372625000001,"endTime":91.2930365,"instrument":4,"program":35},{"pitch":40,"velocity":117,"startTime":91.2930365,"endTime":91.42234675,"instrument":4,"program":35},{"pitch":32,"velocity":117,"startTime":92.84475950000001,"endTime":93.10338,"instrument":4,"program":35},{"pitch":37,"velocity":117,"startTime":93.10338,"endTime":93.23269025,"instrument":4,"program":35},{"pitch":37,"velocity":117,"startTime":93.23269025,"endTime":93.36200050000001,"instrument":4,"program":35},{"pitch":32,"velocity":117,"startTime":93.36200050000001,"endTime":93.53441416666668,"instrument":4,"program":35},{"pitch":33,"velocity":117,"startTime":94.9137235,"endTime":95.17234400000001,"instrument":4,"program":35},{"pitch":36,"velocity":117,"startTime":95.17234400000001,"endTime":95.30165425,"instrument":4,"program":35},{"pitch":36,"velocity":117,"startTime":95.30165425,"endTime":95.4309645,"instrument":4,"program":35},{"pitch":36,"velocity":117,"startTime":95.4309645,"endTime":95.60337816666667,"instrument":4,"program":35},{"pitch":38,"velocity":117,"startTime":96.07751575,"endTime":96.206826,"instrument":4,"program":35},{"pitch":42,"velocity":117,"startTime":96.206826,"endTime":96.33613625000001,"instrument":4,"program":35},{"pitch":42,"velocity":117,"startTime":96.33613625000001,"endTime":96.4654465,"instrument":4,"program":35},{"pitch":36,"velocity":117,"startTime":96.4654465,"endTime":96.724067,"instrument":4,"program":35},{"pitch":38,"velocity":117,"startTime":96.724067,"endTime":96.85337725000001,"instrument":4,"program":35},{"pitch":38,"velocity":117,"startTime":96.98268750000001,"endTime":97.241308,"instrument":4,"program":35},{"pitch":35,"velocity":117,"startTime":97.241308,"endTime":97.758549,"instrument":4,"program":35},{"pitch":35,"velocity":117,"startTime":97.88785925,"endTime":98.27579,"instrument":4,"program":35},{"pitch":38,"velocity":117,"startTime":98.27579,"endTime":98.40510025,"instrument":4,"program":35},{"pitch":36,"velocity":117,"startTime":98.40510025,"endTime":98.5344105,"instrument":4,"program":35},{"pitch":38,"velocity":117,"startTime":98.5344105,"endTime":98.66372075000001,"instrument":4,"program":35},{"pitch":40,"velocity":118,"startTime":83.01718050000001,"endTime":83.23269758333333,"instrument":5,"program":87},{"pitch":52,"velocity":118,"startTime":83.275801,"endTime":83.40511125,"instrument":5,"program":87},{"pitch":52,"velocity":118,"startTime":83.53442150000001,"endTime":83.74993858333333,"instrument":5,"program":87},{"pitch":54,"velocity":118,"startTime":83.793042,"endTime":84.0516625,"instrument":5,"program":87},{"pitch":49,"velocity":118,"startTime":86.1206265,"endTime":86.33614358333334,"instrument":5,"program":87},{"pitch":49,"velocity":118,"startTime":86.379247,"endTime":86.50855725000001,"instrument":5,"program":87},{"pitch":51,"velocity":118,"startTime":86.6378675,"endTime":86.896488,"instrument":5,"program":87},{"pitch":48,"velocity":118,"startTime":87.15510850000001,"endTime":87.413729,"instrument":5,"program":87},{"pitch":48,"velocity":118,"startTime":87.54303925,"endTime":87.62924608333334,"instrument":5,"program":87},{"pitch":48,"velocity":118,"startTime":87.67234950000001,"endTime":87.93097,"instrument":5,"program":87},{"pitch":50,"velocity":118,"startTime":88.18959050000001,"endTime":88.448211,"instrument":5,"program":87},{"pitch":45,"velocity":118,"startTime":88.448211,"endTime":88.7068315,"instrument":5,"program":87},{"pitch":38,"velocity":118,"startTime":88.7068315,"endTime":88.965452,"instrument":5,"program":87},{"pitch":47,"velocity":118,"startTime":89.2240725,"endTime":89.43958958333334,"instrument":5,"program":87},{"pitch":47,"velocity":118,"startTime":89.48269300000001,"endTime":89.61200325,"instrument":5,"program":87},{"pitch":47,"velocity":118,"startTime":89.7413135,"endTime":89.95683058333334,"instrument":5,"program":87},{"pitch":40,"velocity":118,"startTime":91.03441600000001,"endTime":92.068898,"instrument":5,"program":87},{"pitch":52,"velocity":118,"startTime":92.32751850000001,"endTime":92.586139,"instrument":5,"program":87},{"pitch":52,"velocity":118,"startTime":92.71544925,"endTime":92.80165608333334,"instrument":5,"program":87},{"pitch":42,"velocity":118,"startTime":92.84475950000001,"endTime":93.10338,"instrument":5,"program":87},{"pitch":49,"velocity":118,"startTime":93.36200050000001,"endTime":93.620621,"instrument":5,"program":87},{"pitch":37,"velocity":118,"startTime":93.620621,"endTime":93.8792415,"instrument":5,"program":87},{"pitch":45,"velocity":118,"startTime":94.3964825,"endTime":94.65510300000001,"instrument":5,"program":87},{"pitch":45,"velocity":118,"startTime":94.65510300000001,"endTime":94.78441325,"instrument":5,"program":87},{"pitch":48,"velocity":118,"startTime":94.9137235,"endTime":95.68958500000001,"instrument":5,"program":87},{"pitch":48,"velocity":118,"startTime":95.9482055,"endTime":96.206826,"instrument":5,"program":87},{"pitch":48,"velocity":118,"startTime":96.4654465,"endTime":96.724067,"instrument":5,"program":87},{"pitch":36,"velocity":118,"startTime":96.724067,"endTime":96.85337725000001,"instrument":5,"program":87},{"pitch":47,"velocity":118,"startTime":96.98268750000001,"endTime":97.241308,"instrument":5,"program":87},{"pitch":47,"velocity":118,"startTime":97.49992850000001,"endTime":97.758549,"instrument":5,"program":87},{"pitch":36,"velocity":118,"startTime":97.88785925,"endTime":98.01716950000001,"instrument":5,"program":87},{"pitch":47,"velocity":118,"startTime":98.01716950000001,"endTime":98.27579,"instrument":5,"program":87},{"pitch":50,"velocity":118,"startTime":98.5344105,"endTime":98.793031,"instrument":5,"program":87},{"pitch":45,"velocity":118,"startTime":98.793031,"endTime":99.0516515,"instrument":5,"program":87},{"pitch":35,"velocity":105,"startTime":99.31027200000001,"endTime":99.43958225,"isDrum":true},{"pitch":42,"velocity":105,"startTime":99.31027200000001,"endTime":99.43958225,"isDrum":true},{"pitch":42,"velocity":105,"startTime":99.5688925,"endTime":99.69820275000001,"isDrum":true},{"pitch":38,"velocity":105,"startTime":99.82751300000001,"endTime":99.95682325,"isDrum":true},{"pitch":39,"velocity":105,"startTime":99.82751300000001,"endTime":99.95682325,"isDrum":true},{"pitch":40,"velocity":105,"startTime":99.82751300000001,"endTime":99.95682325,"isDrum":true},{"pitch":42,"velocity":105,"startTime":99.82751300000001,"endTime":99.95682325,"isDrum":true},{"pitch":42,"velocity":105,"startTime":100.0861335,"endTime":100.21544375,"isDrum":true},{"pitch":35,"velocity":105,"startTime":100.34475400000001,"endTime":100.47406425000001,"isDrum":true},{"pitch":42,"velocity":105,"startTime":100.34475400000001,"endTime":100.47406425000001,"isDrum":true},{"pitch":35,"velocity":105,"startTime":101.379236,"endTime":101.50854625000001,"isDrum":true},{"pitch":42,"velocity":105,"startTime":101.379236,"endTime":101.50854625000001,"isDrum":true},{"pitch":35,"velocity":105,"startTime":102.413718,"endTime":102.54302825,"isDrum":true},{"pitch":42,"velocity":105,"startTime":102.413718,"endTime":102.54302825,"isDrum":true},{"pitch":42,"velocity":105,"startTime":103.18957950000001,"endTime":103.31888975000001,"isDrum":true},{"pitch":35,"velocity":105,"startTime":103.4482,"endTime":103.57751025,"isDrum":true},{"pitch":39,"velocity":105,"startTime":103.4482,"endTime":103.57751025,"isDrum":true},{"pitch":40,"velocity":105,"startTime":103.4482,"endTime":103.57751025,"isDrum":true},{"pitch":42,"velocity":105,"startTime":103.4482,"endTime":103.57751025,"isDrum":true},{"pitch":42,"velocity":105,"startTime":103.7068205,"endTime":103.83613075000001,"isDrum":true},{"pitch":38,"velocity":105,"startTime":103.96544100000001,"endTime":104.09475125,"isDrum":true},{"pitch":39,"velocity":105,"startTime":103.96544100000001,"endTime":104.09475125,"isDrum":true},{"pitch":42,"velocity":105,"startTime":103.96544100000001,"endTime":104.09475125,"isDrum":true},{"pitch":42,"velocity":105,"startTime":104.2240615,"endTime":104.35337175000001,"isDrum":true},{"pitch":35,"velocity":105,"startTime":104.48268200000001,"endTime":104.61199225,"isDrum":true},{"pitch":42,"velocity":105,"startTime":104.48268200000001,"endTime":104.61199225,"isDrum":true},{"pitch":42,"velocity":105,"startTime":104.7413025,"endTime":104.87061275,"isDrum":true},{"pitch":38,"velocity":105,"startTime":104.99992300000001,"endTime":105.12923325000001,"isDrum":true},{"pitch":39,"velocity":105,"startTime":104.99992300000001,"endTime":105.12923325000001,"isDrum":true},{"pitch":40,"velocity":105,"startTime":104.99992300000001,"endTime":105.12923325000001,"isDrum":true},{"pitch":42,"velocity":105,"startTime":104.99992300000001,"endTime":105.12923325000001,"isDrum":true},{"pitch":42,"velocity":105,"startTime":105.2585435,"endTime":105.38785375,"isDrum":true},{"pitch":35,"velocity":105,"startTime":105.51716400000001,"endTime":105.64647425000001,"isDrum":true},{"pitch":42,"velocity":105,"startTime":105.51716400000001,"endTime":105.64647425000001,"isDrum":true},{"pitch":42,"velocity":105,"startTime":105.7757845,"endTime":105.90509475,"isDrum":true},{"pitch":38,"velocity":105,"startTime":106.034405,"endTime":106.16371525000001,"isDrum":true},{"pitch":39,"velocity":105,"startTime":106.034405,"endTime":106.16371525000001,"isDrum":true},{"pitch":40,"velocity":105,"startTime":106.034405,"endTime":106.16371525000001,"isDrum":true},{"pitch":42,"velocity":105,"startTime":106.034405,"endTime":106.16371525000001,"isDrum":true},{"pitch":42,"velocity":105,"startTime":106.29302550000001,"endTime":106.42233575,"isDrum":true},{"pitch":35,"velocity":105,"startTime":106.551646,"endTime":106.68095625000001,"isDrum":true},{"pitch":42,"velocity":105,"startTime":106.551646,"endTime":106.68095625000001,"isDrum":true},{"pitch":42,"velocity":105,"startTime":106.81026650000001,"endTime":106.93957675,"isDrum":true},{"pitch":38,"velocity":105,"startTime":107.068887,"endTime":107.19819725,"isDrum":true},{"pitch":39,"velocity":105,"startTime":107.068887,"endTime":107.19819725,"isDrum":true},{"pitch":40,"velocity":105,"startTime":107.068887,"endTime":107.19819725,"isDrum":true},{"pitch":42,"velocity":105,"startTime":107.068887,"endTime":107.19819725,"isDrum":true},{"pitch":42,"velocity":105,"startTime":107.32750750000001,"endTime":107.45681775000001,"isDrum":true},{"pitch":35,"velocity":105,"startTime":107.586128,"endTime":107.71543825,"isDrum":true},{"pitch":42,"velocity":105,"startTime":107.586128,"endTime":107.71543825,"isDrum":true},{"pitch":42,"velocity":105,"startTime":107.84474850000001,"endTime":107.97405875000001,"isDrum":true},{"pitch":38,"velocity":105,"startTime":108.103369,"endTime":108.23267925,"isDrum":true},{"pitch":39,"velocity":105,"startTime":108.103369,"endTime":108.23267925,"isDrum":true},{"pitch":40,"velocity":105,"startTime":108.103369,"endTime":108.23267925,"isDrum":true},{"pitch":42,"velocity":105,"startTime":108.103369,"endTime":108.23267925,"isDrum":true},{"pitch":42,"velocity":105,"startTime":108.3619895,"endTime":108.49129975000001,"isDrum":true},{"pitch":35,"velocity":105,"startTime":108.62061,"endTime":108.74992025,"isDrum":true},{"pitch":42,"velocity":105,"startTime":108.62061,"endTime":108.74992025,"isDrum":true},{"pitch":42,"velocity":105,"startTime":108.8792305,"endTime":109.00854075000001,"isDrum":true},{"pitch":38,"velocity":105,"startTime":109.13785100000001,"endTime":109.26716125,"isDrum":true},{"pitch":39,"velocity":105,"startTime":109.13785100000001,"endTime":109.26716125,"isDrum":true},{"pitch":40,"velocity":105,"startTime":109.13785100000001,"endTime":109.26716125,"isDrum":true},{"pitch":42,"velocity":105,"startTime":109.13785100000001,"endTime":109.26716125,"isDrum":true},{"pitch":42,"velocity":105,"startTime":109.3964715,"endTime":109.52578175000001,"isDrum":true},{"pitch":35,"velocity":105,"startTime":109.65509200000001,"endTime":109.78440225,"isDrum":true},{"pitch":42,"velocity":105,"startTime":109.65509200000001,"endTime":109.78440225,"isDrum":true},{"pitch":42,"velocity":105,"startTime":109.9137125,"endTime":110.04302275,"isDrum":true},{"pitch":38,"velocity":105,"startTime":110.17233300000001,"endTime":110.30164325000001,"isDrum":true},{"pitch":39,"velocity":105,"startTime":110.17233300000001,"endTime":110.30164325000001,"isDrum":true},{"pitch":40,"velocity":105,"startTime":110.17233300000001,"endTime":110.30164325000001,"isDrum":true},{"pitch":42,"velocity":105,"startTime":110.17233300000001,"endTime":110.30164325000001,"isDrum":true},{"pitch":42,"velocity":105,"startTime":110.4309535,"endTime":110.56026375,"isDrum":true},{"pitch":35,"velocity":105,"startTime":110.68957400000001,"endTime":110.81888425000001,"isDrum":true},{"pitch":42,"velocity":105,"startTime":110.68957400000001,"endTime":110.81888425000001,"isDrum":true},{"pitch":42,"velocity":105,"startTime":110.9481945,"endTime":111.07750475,"isDrum":true},{"pitch":38,"velocity":105,"startTime":111.206815,"endTime":111.33612525000001,"isDrum":true},{"pitch":39,"velocity":105,"startTime":111.206815,"endTime":111.33612525000001,"isDrum":true},{"pitch":40,"velocity":105,"startTime":111.206815,"endTime":111.33612525000001,"isDrum":true},{"pitch":42,"velocity":105,"startTime":111.206815,"endTime":111.33612525000001,"isDrum":true},{"pitch":42,"velocity":105,"startTime":111.46543550000001,"endTime":111.59474575,"isDrum":true},{"pitch":35,"velocity":105,"startTime":111.724056,"endTime":111.85336625000001,"isDrum":true},{"pitch":42,"velocity":105,"startTime":111.724056,"endTime":111.85336625000001,"isDrum":true},{"pitch":42,"velocity":105,"startTime":111.98267650000001,"endTime":112.11198675,"isDrum":true},{"pitch":38,"velocity":105,"startTime":112.241297,"endTime":112.37060725,"isDrum":true},{"pitch":39,"velocity":105,"startTime":112.241297,"endTime":112.37060725,"isDrum":true},{"pitch":40,"velocity":105,"startTime":112.241297,"endTime":112.37060725,"isDrum":true},{"pitch":42,"velocity":105,"startTime":112.241297,"endTime":112.37060725,"isDrum":true},{"pitch":42,"velocity":105,"startTime":112.49991750000001,"endTime":112.62922775000001,"isDrum":true},{"pitch":35,"velocity":105,"startTime":112.758538,"endTime":112.88784825,"isDrum":true},{"pitch":42,"velocity":105,"startTime":112.758538,"endTime":112.88784825,"isDrum":true},{"pitch":42,"velocity":105,"startTime":113.01715850000001,"endTime":113.14646875000001,"isDrum":true},{"pitch":38,"velocity":105,"startTime":113.275779,"endTime":113.40508925,"isDrum":true},{"pitch":39,"velocity":105,"startTime":113.275779,"endTime":113.40508925,"isDrum":true},{"pitch":40,"velocity":105,"startTime":113.275779,"endTime":113.40508925,"isDrum":true},{"pitch":42,"velocity":105,"startTime":113.275779,"endTime":113.40508925,"isDrum":true},{"pitch":42,"velocity":105,"startTime":113.5343995,"endTime":113.66370975000001,"isDrum":true},{"pitch":35,"velocity":105,"startTime":113.79302000000001,"endTime":113.92233025,"isDrum":true},{"pitch":42,"velocity":105,"startTime":113.79302000000001,"endTime":113.92233025,"isDrum":true},{"pitch":42,"velocity":105,"startTime":114.0516405,"endTime":114.18095075000001,"isDrum":true},{"pitch":38,"velocity":105,"startTime":114.31026100000001,"endTime":114.43957125,"isDrum":true},{"pitch":39,"velocity":105,"startTime":114.31026100000001,"endTime":114.43957125,"isDrum":true},{"pitch":40,"velocity":105,"startTime":114.31026100000001,"endTime":114.43957125,"isDrum":true},{"pitch":42,"velocity":105,"startTime":114.31026100000001,"endTime":114.43957125,"isDrum":true},{"pitch":42,"velocity":105,"startTime":114.5688815,"endTime":114.69819175,"isDrum":true},{"pitch":35,"velocity":105,"startTime":114.82750200000001,"endTime":114.95681225000001,"isDrum":true},{"pitch":42,"velocity":105,"startTime":114.82750200000001,"endTime":114.95681225000001,"isDrum":true},{"pitch":42,"velocity":105,"startTime":115.0861225,"endTime":115.21543275,"isDrum":true},{"pitch":38,"velocity":105,"startTime":115.34474300000001,"endTime":115.47405325000001,"isDrum":true},{"pitch":39,"velocity":105,"startTime":115.34474300000001,"endTime":115.47405325000001,"isDrum":true},{"pitch":40,"velocity":105,"startTime":115.34474300000001,"endTime":115.47405325000001,"isDrum":true},{"pitch":42,"velocity":105,"startTime":115.34474300000001,"endTime":115.47405325000001,"isDrum":true},{"pitch":42,"velocity":105,"startTime":115.6033635,"endTime":115.73267375,"isDrum":true},{"pitch":60,"velocity":123,"startTime":99.5688925,"endTime":99.82751300000001,"instrument":1,"program":4},{"pitch":62,"velocity":123,"startTime":99.5688925,"endTime":99.82751300000001,"instrument":1,"program":4},{"pitch":66,"velocity":123,"startTime":99.5688925,"endTime":99.82751300000001,"instrument":1,"program":4},{"pitch":60,"velocity":123,"startTime":99.82751300000001,"endTime":100.0861335,"instrument":1,"program":4},{"pitch":62,"velocity":123,"startTime":99.82751300000001,"endTime":100.0861335,"instrument":1,"program":4},{"pitch":66,"velocity":123,"startTime":99.82751300000001,"endTime":100.0861335,"instrument":1,"program":4},{"pitch":60,"velocity":123,"startTime":100.6033745,"endTime":100.99130525000001,"instrument":1,"program":4},{"pitch":63,"velocity":123,"startTime":100.6033745,"endTime":100.99130525000001,"instrument":1,"program":4},{"pitch":66,"velocity":123,"startTime":100.6033745,"endTime":100.99130525000001,"instrument":1,"program":4},{"pitch":60,"velocity":123,"startTime":101.1206155,"endTime":101.379236,"instrument":1,"program":4},{"pitch":63,"velocity":123,"startTime":101.1206155,"endTime":101.379236,"instrument":1,"program":4},{"pitch":66,"velocity":123,"startTime":101.1206155,"endTime":101.379236,"instrument":1,"program":4},{"pitch":61,"velocity":123,"startTime":101.63785650000001,"endTime":101.896477,"instrument":1,"program":4},{"pitch":64,"velocity":123,"startTime":101.63785650000001,"endTime":101.896477,"instrument":1,"program":4},{"pitch":68,"velocity":123,"startTime":101.63785650000001,"endTime":101.896477,"instrument":1,"program":4},{"pitch":61,"velocity":123,"startTime":101.896477,"endTime":102.15509750000001,"instrument":1,"program":4},{"pitch":64,"velocity":123,"startTime":101.896477,"endTime":102.15509750000001,"instrument":1,"program":4},{"pitch":68,"velocity":123,"startTime":101.896477,"endTime":102.15509750000001,"instrument":1,"program":4},{"pitch":64,"velocity":123,"startTime":102.67233850000001,"endTime":102.80164875000001,"instrument":1,"program":4},{"pitch":67,"velocity":123,"startTime":102.67233850000001,"endTime":102.80164875000001,"instrument":1,"program":4},{"pitch":69,"velocity":123,"startTime":102.67233850000001,"endTime":102.80164875000001,"instrument":1,"program":4},{"pitch":60,"velocity":123,"startTime":103.7068205,"endTime":104.2240615,"instrument":1,"program":4},{"pitch":64,"velocity":123,"startTime":103.7068205,"endTime":104.2240615,"instrument":1,"program":4},{"pitch":67,"velocity":123,"startTime":103.7068205,"endTime":104.2240615,"instrument":1,"program":4},{"pitch":62,"velocity":123,"startTime":104.48268200000001,"endTime":104.7413025,"instrument":1,"program":4},{"pitch":67,"velocity":123,"startTime":104.48268200000001,"endTime":104.7413025,"instrument":1,"program":4},{"pitch":69,"velocity":123,"startTime":104.48268200000001,"endTime":104.7413025,"instrument":1,"program":4},{"pitch":62,"velocity":123,"startTime":105.7757845,"endTime":106.034405,"instrument":1,"program":4},{"pitch":66,"velocity":123,"startTime":105.7757845,"endTime":106.034405,"instrument":1,"program":4},{"pitch":69,"velocity":123,"startTime":105.7757845,"endTime":106.034405,"instrument":1,"program":4},{"pitch":62,"velocity":123,"startTime":106.29302550000001,"endTime":106.42233575,"instrument":1,"program":4},{"pitch":66,"velocity":123,"startTime":106.29302550000001,"endTime":106.42233575,"instrument":1,"program":4},{"pitch":69,"velocity":123,"startTime":106.29302550000001,"endTime":106.42233575,"instrument":1,"program":4},{"pitch":62,"velocity":123,"startTime":106.81026650000001,"endTime":106.93957675,"instrument":1,"program":4},{"pitch":66,"velocity":123,"startTime":106.81026650000001,"endTime":106.93957675,"instrument":1,"program":4},{"pitch":69,"velocity":123,"startTime":106.81026650000001,"endTime":106.93957675,"instrument":1,"program":4},{"pitch":62,"velocity":123,"startTime":107.32750750000001,"endTime":107.586128,"instrument":1,"program":4},{"pitch":66,"velocity":123,"startTime":107.32750750000001,"endTime":107.586128,"instrument":1,"program":4},{"pitch":69,"velocity":123,"startTime":107.32750750000001,"endTime":107.586128,"instrument":1,"program":4},{"pitch":62,"velocity":123,"startTime":107.84474850000001,"endTime":108.103369,"instrument":1,"program":4},{"pitch":64,"velocity":123,"startTime":107.84474850000001,"endTime":108.103369,"instrument":1,"program":4},{"pitch":67,"velocity":123,"startTime":107.84474850000001,"endTime":108.103369,"instrument":1,"program":4},{"pitch":71,"velocity":123,"startTime":107.84474850000001,"endTime":108.103369,"instrument":1,"program":4},{"pitch":59,"velocity":123,"startTime":108.3619895,"endTime":108.49129975000001,"instrument":1,"program":4},{"pitch":63,"velocity":123,"startTime":108.3619895,"endTime":108.49129975000001,"instrument":1,"program":4},{"pitch":67,"velocity":123,"startTime":108.3619895,"endTime":108.49129975000001,"instrument":1,"program":4},{"pitch":60,"velocity":123,"startTime":109.3964715,"endTime":109.65509200000001,"instrument":1,"program":4},{"pitch":63,"velocity":123,"startTime":109.3964715,"endTime":109.65509200000001,"instrument":1,"program":4},{"pitch":66,"velocity":123,"startTime":109.3964715,"endTime":109.65509200000001,"instrument":1,"program":4},{"pitch":68,"velocity":123,"startTime":109.3964715,"endTime":109.65509200000001,"instrument":1,"program":4},{"pitch":61,"velocity":123,"startTime":109.9137125,"endTime":110.17233300000001,"instrument":1,"program":4},{"pitch":64,"velocity":123,"startTime":109.9137125,"endTime":110.17233300000001,"instrument":1,"program":4},{"pitch":68,"velocity":123,"startTime":109.9137125,"endTime":110.17233300000001,"instrument":1,"program":4},{"pitch":71,"velocity":123,"startTime":109.9137125,"endTime":110.17233300000001,"instrument":1,"program":4},{"pitch":59,"velocity":123,"startTime":111.46543550000001,"endTime":111.724056,"instrument":1,"program":4},{"pitch":62,"velocity":123,"startTime":111.46543550000001,"endTime":111.724056,"instrument":1,"program":4},{"pitch":64,"velocity":123,"startTime":111.46543550000001,"endTime":111.724056,"instrument":1,"program":4},{"pitch":67,"velocity":123,"startTime":111.46543550000001,"endTime":111.724056,"instrument":1,"program":4},{"pitch":60,"velocity":123,"startTime":111.98267650000001,"endTime":112.241297,"instrument":1,"program":4},{"pitch":64,"velocity":123,"startTime":111.98267650000001,"endTime":112.241297,"instrument":1,"program":4},{"pitch":67,"velocity":123,"startTime":111.98267650000001,"endTime":112.241297,"instrument":1,"program":4},{"pitch":69,"velocity":123,"startTime":111.98267650000001,"endTime":112.241297,"instrument":1,"program":4},{"pitch":60,"velocity":123,"startTime":112.49991750000001,"endTime":112.758538,"instrument":1,"program":4},{"pitch":64,"velocity":123,"startTime":112.49991750000001,"endTime":112.758538,"instrument":1,"program":4},{"pitch":67,"velocity":123,"startTime":112.49991750000001,"endTime":112.758538,"instrument":1,"program":4},{"pitch":69,"velocity":123,"startTime":112.49991750000001,"endTime":112.758538,"instrument":1,"program":4},{"pitch":60,"velocity":123,"startTime":113.01715850000001,"endTime":113.275779,"instrument":1,"program":4},{"pitch":64,"velocity":123,"startTime":113.01715850000001,"endTime":113.275779,"instrument":1,"program":4},{"pitch":67,"velocity":123,"startTime":113.01715850000001,"endTime":113.275779,"instrument":1,"program":4},{"pitch":69,"velocity":123,"startTime":113.01715850000001,"endTime":113.275779,"instrument":1,"program":4},{"pitch":60,"velocity":123,"startTime":113.5343995,"endTime":113.79302000000001,"instrument":1,"program":4},{"pitch":64,"velocity":123,"startTime":113.5343995,"endTime":113.79302000000001,"instrument":1,"program":4},{"pitch":67,"velocity":123,"startTime":113.5343995,"endTime":113.79302000000001,"instrument":1,"program":4},{"pitch":69,"velocity":123,"startTime":113.5343995,"endTime":113.79302000000001,"instrument":1,"program":4},{"pitch":59,"velocity":123,"startTime":114.0516405,"endTime":114.39646783333335,"instrument":1,"program":4},{"pitch":62,"velocity":123,"startTime":114.0516405,"endTime":114.39646783333335,"instrument":1,"program":4},{"pitch":66,"velocity":123,"startTime":114.0516405,"endTime":114.39646783333335,"instrument":1,"program":4},{"pitch":69,"velocity":123,"startTime":114.0516405,"endTime":114.39646783333335,"instrument":1,"program":4},{"pitch":59,"velocity":123,"startTime":114.5688815,"endTime":114.82750200000001,"instrument":1,"program":4},{"pitch":62,"velocity":123,"startTime":114.5688815,"endTime":114.82750200000001,"instrument":1,"program":4},{"pitch":66,"velocity":123,"startTime":114.5688815,"endTime":114.82750200000001,"instrument":1,"program":4},{"pitch":69,"velocity":123,"startTime":114.5688815,"endTime":114.82750200000001,"instrument":1,"program":4},{"pitch":59,"velocity":123,"startTime":115.0861225,"endTime":115.6033635,"instrument":1,"program":4},{"pitch":62,"velocity":123,"startTime":115.0861225,"endTime":115.6033635,"instrument":1,"program":4},{"pitch":66,"velocity":123,"startTime":115.0861225,"endTime":115.6033635,"instrument":1,"program":4},{"pitch":69,"velocity":123,"startTime":115.0861225,"endTime":115.6033635,"instrument":1,"program":4},{"pitch":33,"velocity":117,"startTime":99.31027200000001,"endTime":99.5688925,"instrument":4,"program":35},{"pitch":35,"velocity":117,"startTime":99.5688925,"endTime":99.69820275000001,"instrument":4,"program":35},{"pitch":37,"velocity":117,"startTime":101.379236,"endTime":101.63785650000001,"instrument":4,"program":35},{"pitch":37,"velocity":117,"startTime":101.63785650000001,"endTime":101.76716675,"instrument":4,"program":35},{"pitch":37,"velocity":117,"startTime":102.28440775,"endTime":102.413718,"instrument":4,"program":35},{"pitch":33,"velocity":117,"startTime":102.413718,"endTime":102.54302825,"instrument":4,"program":35},{"pitch":33,"velocity":117,"startTime":102.54302825,"endTime":102.67233850000001,"instrument":4,"program":35},{"pitch":33,"velocity":117,"startTime":102.67233850000001,"endTime":102.84475216666667,"instrument":4,"program":35},{"pitch":36,"velocity":117,"startTime":103.4482,"endTime":103.7068205,"instrument":4,"program":35},{"pitch":36,"velocity":117,"startTime":103.7068205,"endTime":103.87923416666668,"instrument":4,"program":35},{"pitch":35,"velocity":117,"startTime":105.51716400000001,"endTime":105.64647425000001,"instrument":4,"program":35},{"pitch":47,"velocity":117,"startTime":105.64647425000001,"endTime":105.7757845,"instrument":4,"program":35},{"pitch":35,"velocity":117,"startTime":105.7757845,"endTime":105.90509475,"instrument":4,"program":35},{"pitch":28,"velocity":117,"startTime":107.586128,"endTime":107.71543825,"instrument":4,"program":35},{"pitch":33,"velocity":117,"startTime":107.84474850000001,"endTime":108.01716216666668,"instrument":4,"program":35},{"pitch":28,"velocity":117,"startTime":107.97405875000001,"endTime":108.103369,"instrument":4,"program":35},{"pitch":40,"velocity":117,"startTime":108.103369,"endTime":108.23267925,"instrument":4,"program":35},{"pitch":37,"velocity":117,"startTime":109.65509200000001,"endTime":109.78440225,"instrument":4,"program":35},{"pitch":37,"velocity":117,"startTime":109.78440225,"endTime":109.9137125,"instrument":4,"program":35},{"pitch":37,"velocity":117,"startTime":109.9137125,"endTime":110.04302275,"instrument":4,"program":35},{"pitch":36,"velocity":117,"startTime":111.724056,"endTime":111.98267650000001,"instrument":4,"program":35},{"pitch":36,"velocity":117,"startTime":111.98267650000001,"endTime":112.11198675,"instrument":4,"program":35},{"pitch":35,"velocity":117,"startTime":113.79302000000001,"endTime":114.0516405,"instrument":4,"program":35},{"pitch":36,"velocity":117,"startTime":114.0516405,"endTime":114.18095075000001,"instrument":4,"program":35},{"pitch":38,"velocity":118,"startTime":100.0861335,"endTime":100.34475400000001,"instrument":5,"program":87},{"pitch":32,"velocity":118,"startTime":100.34475400000001,"endTime":100.6033745,"instrument":5,"program":87},{"pitch":37,"velocity":118,"startTime":101.379236,"endTime":101.63785650000001,"instrument":5,"program":87},{"pitch":36,"velocity":118,"startTime":103.4482,"endTime":103.7068205,"instrument":5,"program":87},{"pitch":35,"velocity":118,"startTime":105.7757845,"endTime":106.034405,"instrument":5,"program":87},{"pitch":36,"velocity":118,"startTime":106.034405,"endTime":106.29302550000001,"instrument":5,"program":87},{"pitch":36,"velocity":118,"startTime":106.29302550000001,"endTime":106.551646,"instrument":5,"program":87},{"pitch":36,"velocity":118,"startTime":112.49991750000001,"endTime":112.758538,"instrument":5,"program":87},{"pitch":38,"velocity":118,"startTime":112.758538,"endTime":113.01715850000001,"instrument":5,"program":87},{"pitch":35,"velocity":118,"startTime":113.79302000000001,"endTime":114.0516405,"instrument":5,"program":87},{"pitch":36,"velocity":105,"startTime":115.861984,"endTime":115.94819083333334,"isDrum":true},{"pitch":42,"velocity":105,"startTime":115.861984,"endTime":115.94819083333334,"isDrum":true},{"pitch":42,"velocity":105,"startTime":116.12060450000001,"endTime":116.20681133333333,"isDrum":true},{"pitch":36,"velocity":105,"startTime":116.379225,"endTime":116.46543183333334,"isDrum":true},{"pitch":39,"velocity":105,"startTime":116.379225,"endTime":116.46543183333334,"isDrum":true},{"pitch":40,"velocity":105,"startTime":116.379225,"endTime":116.46543183333334,"isDrum":true},{"pitch":42,"velocity":105,"startTime":116.379225,"endTime":116.46543183333334,"isDrum":true},{"pitch":42,"velocity":105,"startTime":116.63784550000001,"endTime":116.72405233333335,"isDrum":true},{"pitch":36,"velocity":105,"startTime":116.896466,"endTime":116.98267283333334,"isDrum":true},{"pitch":42,"velocity":105,"startTime":116.896466,"endTime":116.98267283333334,"isDrum":true},{"pitch":42,"velocity":105,"startTime":117.15508650000001,"endTime":117.24129333333335,"isDrum":true},{"pitch":36,"velocity":105,"startTime":117.413707,"endTime":117.49991383333334,"isDrum":true},{"pitch":39,"velocity":105,"startTime":117.413707,"endTime":117.49991383333334,"isDrum":true},{"pitch":40,"velocity":105,"startTime":117.413707,"endTime":117.49991383333334,"isDrum":true},{"pitch":42,"velocity":105,"startTime":117.413707,"endTime":117.49991383333334,"isDrum":true},{"pitch":42,"velocity":105,"startTime":117.67232750000001,"endTime":117.75853433333334,"isDrum":true},{"pitch":36,"velocity":105,"startTime":117.930948,"endTime":118.01715483333334,"isDrum":true},{"pitch":42,"velocity":105,"startTime":117.930948,"endTime":118.01715483333334,"isDrum":true},{"pitch":42,"velocity":105,"startTime":118.18956850000001,"endTime":118.27577533333334,"isDrum":true},{"pitch":36,"velocity":105,"startTime":118.44818900000001,"endTime":118.53439583333333,"isDrum":true},{"pitch":39,"velocity":105,"startTime":118.44818900000001,"endTime":118.53439583333333,"isDrum":true},{"pitch":40,"velocity":105,"startTime":118.44818900000001,"endTime":118.53439583333333,"isDrum":true},{"pitch":42,"velocity":105,"startTime":118.44818900000001,"endTime":118.53439583333333,"isDrum":true},{"pitch":42,"velocity":105,"startTime":118.7068095,"endTime":118.79301633333334,"isDrum":true},{"pitch":36,"velocity":105,"startTime":118.96543000000001,"endTime":119.05163683333333,"isDrum":true},{"pitch":42,"velocity":105,"startTime":118.96543000000001,"endTime":119.05163683333333,"isDrum":true},{"pitch":42,"velocity":105,"startTime":119.2240505,"endTime":119.31025733333334,"isDrum":true},{"pitch":36,"velocity":105,"startTime":119.48267100000001,"endTime":119.56887783333335,"isDrum":true},{"pitch":39,"velocity":105,"startTime":119.48267100000001,"endTime":119.56887783333335,"isDrum":true},{"pitch":40,"velocity":105,"startTime":119.48267100000001,"endTime":119.56887783333335,"isDrum":true},{"pitch":42,"velocity":105,"startTime":119.48267100000001,"endTime":119.56887783333335,"isDrum":true},{"pitch":42,"velocity":105,"startTime":119.7412915,"endTime":119.82749833333334,"isDrum":true},{"pitch":36,"velocity":105,"startTime":119.99991200000001,"endTime":120.08611883333334,"isDrum":true},{"pitch":42,"velocity":105,"startTime":119.99991200000001,"endTime":120.08611883333334,"isDrum":true},{"pitch":42,"velocity":105,"startTime":120.2585325,"endTime":120.34473933333334,"isDrum":true},{"pitch":36,"velocity":105,"startTime":120.51715300000001,"endTime":120.60335983333334,"isDrum":true},{"pitch":39,"velocity":105,"startTime":120.51715300000001,"endTime":120.60335983333334,"isDrum":true},{"pitch":40,"velocity":105,"startTime":120.51715300000001,"endTime":120.60335983333334,"isDrum":true},{"pitch":42,"velocity":105,"startTime":120.51715300000001,"endTime":120.60335983333334,"isDrum":true},{"pitch":42,"velocity":105,"startTime":120.77577350000001,"endTime":120.86198033333334,"isDrum":true},{"pitch":36,"velocity":105,"startTime":121.034394,"endTime":121.12060083333334,"isDrum":true},{"pitch":42,"velocity":105,"startTime":121.034394,"endTime":121.12060083333334,"isDrum":true},{"pitch":42,"velocity":105,"startTime":121.29301450000001,"endTime":121.37922133333333,"isDrum":true},{"pitch":36,"velocity":105,"startTime":121.551635,"endTime":121.63784183333334,"isDrum":true},{"pitch":39,"velocity":105,"startTime":121.551635,"endTime":121.63784183333334,"isDrum":true},{"pitch":40,"velocity":105,"startTime":121.551635,"endTime":121.63784183333334,"isDrum":true},{"pitch":42,"velocity":105,"startTime":121.551635,"endTime":121.63784183333334,"isDrum":true},{"pitch":42,"velocity":105,"startTime":121.81025550000001,"endTime":121.89646233333335,"isDrum":true},{"pitch":36,"velocity":105,"startTime":122.068876,"endTime":122.15508283333334,"isDrum":true},{"pitch":42,"velocity":105,"startTime":122.068876,"endTime":122.15508283333334,"isDrum":true},{"pitch":42,"velocity":105,"startTime":122.32749650000001,"endTime":122.41370333333334,"isDrum":true},{"pitch":36,"velocity":105,"startTime":122.586117,"endTime":122.67232383333334,"isDrum":true},{"pitch":39,"velocity":105,"startTime":122.586117,"endTime":122.67232383333334,"isDrum":true},{"pitch":40,"velocity":105,"startTime":122.586117,"endTime":122.67232383333334,"isDrum":true},{"pitch":42,"velocity":105,"startTime":122.586117,"endTime":122.67232383333334,"isDrum":true},{"pitch":42,"velocity":105,"startTime":122.84473750000001,"endTime":122.93094433333334,"isDrum":true},{"pitch":36,"velocity":105,"startTime":123.103358,"endTime":123.18956483333334,"isDrum":true},{"pitch":42,"velocity":105,"startTime":123.103358,"endTime":123.18956483333334,"isDrum":true},{"pitch":42,"velocity":105,"startTime":123.3619785,"endTime":123.44818533333334,"isDrum":true},{"pitch":36,"velocity":105,"startTime":123.62059900000001,"endTime":123.70680583333333,"isDrum":true},{"pitch":39,"velocity":105,"startTime":123.62059900000001,"endTime":123.70680583333333,"isDrum":true},{"pitch":40,"velocity":105,"startTime":123.62059900000001,"endTime":123.70680583333333,"isDrum":true},{"pitch":42,"velocity":105,"startTime":123.62059900000001,"endTime":123.70680583333333,"isDrum":true},{"pitch":42,"velocity":105,"startTime":123.8792195,"endTime":123.96542633333334,"isDrum":true},{"pitch":36,"velocity":105,"startTime":124.13784000000001,"endTime":124.22404683333335,"isDrum":true},{"pitch":42,"velocity":105,"startTime":124.13784000000001,"endTime":124.22404683333335,"isDrum":true},{"pitch":42,"velocity":105,"startTime":124.3964605,"endTime":124.48266733333334,"isDrum":true},{"pitch":36,"velocity":105,"startTime":124.65508100000001,"endTime":124.74128783333335,"isDrum":true},{"pitch":39,"velocity":105,"startTime":124.65508100000001,"endTime":124.74128783333335,"isDrum":true},{"pitch":40,"velocity":105,"startTime":124.65508100000001,"endTime":124.74128783333335,"isDrum":true},{"pitch":42,"velocity":105,"startTime":124.65508100000001,"endTime":124.74128783333335,"isDrum":true},{"pitch":42,"velocity":105,"startTime":124.9137015,"endTime":124.99990833333334,"isDrum":true},{"pitch":36,"velocity":105,"startTime":125.17232200000001,"endTime":125.25852883333334,"isDrum":true},{"pitch":42,"velocity":105,"startTime":125.17232200000001,"endTime":125.25852883333334,"isDrum":true},{"pitch":42,"velocity":105,"startTime":125.4309425,"endTime":125.51714933333334,"isDrum":true},{"pitch":36,"velocity":105,"startTime":125.689563,"endTime":125.77576983333334,"isDrum":true},{"pitch":39,"velocity":105,"startTime":125.689563,"endTime":125.77576983333334,"isDrum":true},{"pitch":40,"velocity":105,"startTime":125.689563,"endTime":125.77576983333334,"isDrum":true},{"pitch":42,"velocity":105,"startTime":125.689563,"endTime":125.77576983333334,"isDrum":true},{"pitch":42,"velocity":105,"startTime":125.94818350000001,"endTime":126.03439033333333,"isDrum":true},{"pitch":36,"velocity":105,"startTime":126.206804,"endTime":126.29301083333334,"isDrum":true},{"pitch":42,"velocity":105,"startTime":126.206804,"endTime":126.29301083333334,"isDrum":true},{"pitch":42,"velocity":105,"startTime":126.46542450000001,"endTime":126.55163133333335,"isDrum":true},{"pitch":36,"velocity":105,"startTime":126.724045,"endTime":126.81025183333334,"isDrum":true},{"pitch":39,"velocity":105,"startTime":126.724045,"endTime":126.81025183333334,"isDrum":true},{"pitch":40,"velocity":105,"startTime":126.724045,"endTime":126.81025183333334,"isDrum":true},{"pitch":42,"velocity":105,"startTime":126.724045,"endTime":126.81025183333334,"isDrum":true},{"pitch":42,"velocity":105,"startTime":126.98266550000001,"endTime":127.06887233333335,"isDrum":true},{"pitch":36,"velocity":105,"startTime":127.241286,"endTime":127.32749283333334,"isDrum":true},{"pitch":42,"velocity":105,"startTime":127.241286,"endTime":127.32749283333334,"isDrum":true},{"pitch":42,"velocity":105,"startTime":127.49990650000001,"endTime":127.58611333333334,"isDrum":true},{"pitch":36,"velocity":105,"startTime":127.758527,"endTime":127.84473383333334,"isDrum":true},{"pitch":39,"velocity":105,"startTime":127.758527,"endTime":127.84473383333334,"isDrum":true},{"pitch":40,"velocity":105,"startTime":127.758527,"endTime":127.84473383333334,"isDrum":true},{"pitch":42,"velocity":105,"startTime":127.758527,"endTime":127.84473383333334,"isDrum":true},{"pitch":42,"velocity":105,"startTime":128.01714750000002,"endTime":128.10335433333333,"isDrum":true},{"pitch":36,"velocity":105,"startTime":128.275768,"endTime":128.36197483333333,"isDrum":true},{"pitch":42,"velocity":105,"startTime":128.275768,"endTime":128.36197483333333,"isDrum":true},{"pitch":42,"velocity":105,"startTime":128.5343885,"endTime":128.62059533333334,"isDrum":true},{"pitch":36,"velocity":105,"startTime":128.793009,"endTime":128.87921583333335,"isDrum":true},{"pitch":39,"velocity":105,"startTime":128.793009,"endTime":128.87921583333335,"isDrum":true},{"pitch":40,"velocity":105,"startTime":128.793009,"endTime":128.87921583333335,"isDrum":true},{"pitch":42,"velocity":105,"startTime":128.793009,"endTime":128.87921583333335,"isDrum":true},{"pitch":42,"velocity":105,"startTime":129.05162950000002,"endTime":129.13783633333335,"isDrum":true},{"pitch":36,"velocity":105,"startTime":129.31025,"endTime":129.39645683333333,"isDrum":true},{"pitch":42,"velocity":105,"startTime":129.31025,"endTime":129.39645683333333,"isDrum":true},{"pitch":42,"velocity":105,"startTime":129.5688705,"endTime":129.65507733333334,"isDrum":true},{"pitch":36,"velocity":105,"startTime":129.827491,"endTime":129.91369783333334,"isDrum":true},{"pitch":39,"velocity":105,"startTime":129.827491,"endTime":129.91369783333334,"isDrum":true},{"pitch":40,"velocity":105,"startTime":129.827491,"endTime":129.91369783333334,"isDrum":true},{"pitch":42,"velocity":105,"startTime":129.827491,"endTime":129.91369783333334,"isDrum":true},{"pitch":42,"velocity":105,"startTime":130.08611150000002,"endTime":130.17231833333335,"isDrum":true},{"pitch":36,"velocity":105,"startTime":130.344732,"endTime":130.43093883333333,"isDrum":true},{"pitch":42,"velocity":105,"startTime":130.344732,"endTime":130.43093883333333,"isDrum":true},{"pitch":42,"velocity":105,"startTime":130.6033525,"endTime":130.68955933333334,"isDrum":true},{"pitch":36,"velocity":105,"startTime":130.861973,"endTime":130.94817983333334,"isDrum":true},{"pitch":39,"velocity":105,"startTime":130.861973,"endTime":130.94817983333334,"isDrum":true},{"pitch":40,"velocity":105,"startTime":130.861973,"endTime":130.94817983333334,"isDrum":true},{"pitch":42,"velocity":105,"startTime":130.861973,"endTime":130.94817983333334,"isDrum":true},{"pitch":42,"velocity":105,"startTime":131.1205935,"endTime":131.20680033333335,"isDrum":true},{"pitch":36,"velocity":105,"startTime":131.37921400000002,"endTime":131.46542083333335,"isDrum":true},{"pitch":42,"velocity":105,"startTime":131.37921400000002,"endTime":131.46542083333335,"isDrum":true},{"pitch":46,"velocity":105,"startTime":131.6378345,"endTime":131.72404133333333,"isDrum":true},{"pitch":39,"velocity":105,"startTime":131.896455,"endTime":131.98266183333334,"isDrum":true},{"pitch":40,"velocity":105,"startTime":131.896455,"endTime":131.98266183333334,"isDrum":true},{"pitch":42,"velocity":105,"startTime":131.896455,"endTime":131.98266183333334,"isDrum":true},{"pitch":42,"velocity":105,"startTime":132.1550755,"endTime":132.24128233333334,"isDrum":true},{"pitch":62,"velocity":123,"startTime":116.12060450000001,"endTime":116.379225,"instrument":1,"program":4},{"pitch":66,"velocity":123,"startTime":116.12060450000001,"endTime":116.379225,"instrument":1,"program":4},{"pitch":69,"velocity":123,"startTime":116.12060450000001,"endTime":116.379225,"instrument":1,"program":4},{"pitch":62,"velocity":123,"startTime":116.379225,"endTime":116.63784550000001,"instrument":1,"program":4},{"pitch":64,"velocity":123,"startTime":116.379225,"endTime":116.63784550000001,"instrument":1,"program":4},{"pitch":66,"velocity":123,"startTime":116.379225,"endTime":116.63784550000001,"instrument":1,"program":4},{"pitch":62,"velocity":123,"startTime":116.63784550000001,"endTime":116.896466,"instrument":1,"program":4},{"pitch":64,"velocity":123,"startTime":116.63784550000001,"endTime":116.896466,"instrument":1,"program":4},{"pitch":66,"velocity":123,"startTime":116.63784550000001,"endTime":116.896466,"instrument":1,"program":4},{"pitch":60,"velocity":123,"startTime":117.15508650000001,"endTime":117.413707,"instrument":1,"program":4},{"pitch":64,"velocity":123,"startTime":117.15508650000001,"endTime":117.413707,"instrument":1,"program":4},{"pitch":67,"velocity":123,"startTime":117.15508650000001,"endTime":117.413707,"instrument":1,"program":4},{"pitch":60,"velocity":123,"startTime":117.413707,"endTime":117.67232750000001,"instrument":1,"program":4},{"pitch":64,"velocity":123,"startTime":117.413707,"endTime":117.67232750000001,"instrument":1,"program":4},{"pitch":67,"velocity":123,"startTime":117.413707,"endTime":117.67232750000001,"instrument":1,"program":4},{"pitch":60,"velocity":123,"startTime":117.67232750000001,"endTime":117.80163775000001,"instrument":1,"program":4},{"pitch":64,"velocity":123,"startTime":117.67232750000001,"endTime":117.80163775000001,"instrument":1,"program":4},{"pitch":67,"velocity":123,"startTime":117.67232750000001,"endTime":117.80163775000001,"instrument":1,"program":4},{"pitch":60,"velocity":123,"startTime":118.18956850000001,"endTime":118.44818900000001,"instrument":1,"program":4},{"pitch":64,"velocity":123,"startTime":118.18956850000001,"endTime":118.44818900000001,"instrument":1,"program":4},{"pitch":67,"velocity":123,"startTime":118.18956850000001,"endTime":118.44818900000001,"instrument":1,"program":4},{"pitch":60,"velocity":123,"startTime":118.44818900000001,"endTime":118.57749925,"instrument":1,"program":4},{"pitch":64,"velocity":123,"startTime":118.44818900000001,"endTime":118.57749925,"instrument":1,"program":4},{"pitch":67,"velocity":123,"startTime":118.44818900000001,"endTime":118.57749925,"instrument":1,"program":4},{"pitch":60,"velocity":123,"startTime":118.7068095,"endTime":118.83611975000001,"instrument":1,"program":4},{"pitch":64,"velocity":123,"startTime":118.7068095,"endTime":118.83611975000001,"instrument":1,"program":4},{"pitch":67,"velocity":123,"startTime":118.7068095,"endTime":118.83611975000001,"instrument":1,"program":4},{"pitch":60,"velocity":123,"startTime":119.2240505,"endTime":119.35336075000001,"instrument":1,"program":4},{"pitch":64,"velocity":123,"startTime":119.2240505,"endTime":119.35336075000001,"instrument":1,"program":4},{"pitch":67,"velocity":123,"startTime":119.2240505,"endTime":119.35336075000001,"instrument":1,"program":4},{"pitch":60,"velocity":123,"startTime":119.99991200000001,"endTime":120.2585325,"instrument":1,"program":4},{"pitch":64,"velocity":123,"startTime":119.99991200000001,"endTime":120.2585325,"instrument":1,"program":4},{"pitch":67,"velocity":123,"startTime":119.99991200000001,"endTime":120.2585325,"instrument":1,"program":4},{"pitch":60,"velocity":123,"startTime":120.2585325,"endTime":120.38784275,"instrument":1,"program":4},{"pitch":64,"velocity":123,"startTime":120.2585325,"endTime":120.38784275,"instrument":1,"program":4},{"pitch":67,"velocity":123,"startTime":120.2585325,"endTime":120.38784275,"instrument":1,"program":4},{"pitch":60,"velocity":123,"startTime":120.77577350000001,"endTime":120.90508375,"instrument":1,"program":4},{"pitch":64,"velocity":123,"startTime":120.77577350000001,"endTime":120.90508375,"instrument":1,"program":4},{"pitch":67,"velocity":123,"startTime":120.77577350000001,"endTime":120.90508375,"instrument":1,"program":4},{"pitch":60,"velocity":123,"startTime":121.551635,"endTime":121.68094525000001,"instrument":1,"program":4},{"pitch":62,"velocity":123,"startTime":121.551635,"endTime":121.68094525000001,"instrument":1,"program":4},{"pitch":67,"velocity":123,"startTime":121.551635,"endTime":121.68094525000001,"instrument":1,"program":4},{"pitch":60,"velocity":123,"startTime":122.068876,"endTime":122.32749650000001,"instrument":1,"program":4},{"pitch":64,"velocity":123,"startTime":122.068876,"endTime":122.32749650000001,"instrument":1,"program":4},{"pitch":67,"velocity":123,"startTime":122.068876,"endTime":122.32749650000001,"instrument":1,"program":4},{"pitch":60,"velocity":123,"startTime":122.32749650000001,"endTime":122.45680675000001,"instrument":1,"program":4},{"pitch":64,"velocity":123,"startTime":122.32749650000001,"endTime":122.45680675000001,"instrument":1,"program":4},{"pitch":67,"velocity":123,"startTime":122.32749650000001,"endTime":122.45680675000001,"instrument":1,"program":4},{"pitch":60,"velocity":123,"startTime":122.84473750000001,"endTime":122.97404775000001,"instrument":1,"program":4},{"pitch":64,"velocity":123,"startTime":122.84473750000001,"endTime":122.97404775000001,"instrument":1,"program":4},{"pitch":67,"velocity":123,"startTime":122.84473750000001,"endTime":122.97404775000001,"instrument":1,"program":4},{"pitch":60,"velocity":123,"startTime":123.62059900000001,"endTime":123.74990925,"instrument":1,"program":4},{"pitch":64,"velocity":123,"startTime":123.62059900000001,"endTime":123.74990925,"instrument":1,"program":4},{"pitch":67,"velocity":123,"startTime":123.62059900000001,"endTime":123.74990925,"instrument":1,"program":4},{"pitch":60,"velocity":123,"startTime":123.8792195,"endTime":124.00852975000001,"instrument":1,"program":4},{"pitch":64,"velocity":123,"startTime":123.8792195,"endTime":124.00852975000001,"instrument":1,"program":4},{"pitch":67,"velocity":123,"startTime":123.8792195,"endTime":124.00852975000001,"instrument":1,"program":4},{"pitch":57,"velocity":123,"startTime":124.65508100000001,"endTime":124.78439125000001,"instrument":1,"program":4},{"pitch":60,"velocity":123,"startTime":124.65508100000001,"endTime":124.78439125000001,"instrument":1,"program":4},{"pitch":64,"velocity":123,"startTime":124.65508100000001,"endTime":124.78439125000001,"instrument":1,"program":4},{"pitch":57,"velocity":123,"startTime":125.17232200000001,"endTime":125.4309425,"instrument":1,"program":4},{"pitch":60,"velocity":123,"startTime":125.17232200000001,"endTime":125.4309425,"instrument":1,"program":4},{"pitch":64,"velocity":123,"startTime":125.17232200000001,"endTime":125.4309425,"instrument":1,"program":4},{"pitch":57,"velocity":123,"startTime":125.4309425,"endTime":125.56025275,"instrument":1,"program":4},{"pitch":60,"velocity":123,"startTime":125.4309425,"endTime":125.56025275,"instrument":1,"program":4},{"pitch":64,"velocity":123,"startTime":125.4309425,"endTime":125.56025275,"instrument":1,"program":4},{"pitch":57,"velocity":123,"startTime":125.94818350000001,"endTime":126.07749375,"instrument":1,"program":4},{"pitch":60,"velocity":123,"startTime":125.94818350000001,"endTime":126.07749375,"instrument":1,"program":4},{"pitch":64,"velocity":123,"startTime":125.94818350000001,"endTime":126.07749375,"instrument":1,"program":4},{"pitch":60,"velocity":123,"startTime":126.724045,"endTime":126.85335525,"instrument":1,"program":4},{"pitch":64,"velocity":123,"startTime":126.724045,"endTime":126.85335525,"instrument":1,"program":4},{"pitch":67,"velocity":123,"startTime":126.724045,"endTime":126.85335525,"instrument":1,"program":4},{"pitch":60,"velocity":123,"startTime":126.98266550000001,"endTime":127.11197575000001,"instrument":1,"program":4},{"pitch":64,"velocity":123,"startTime":126.98266550000001,"endTime":127.11197575000001,"instrument":1,"program":4},{"pitch":67,"velocity":123,"startTime":126.98266550000001,"endTime":127.11197575000001,"instrument":1,"program":4},{"pitch":60,"velocity":123,"startTime":127.758527,"endTime":127.88783725,"instrument":1,"program":4},{"pitch":64,"velocity":123,"startTime":127.758527,"endTime":127.88783725,"instrument":1,"program":4},{"pitch":67,"velocity":123,"startTime":127.758527,"endTime":127.88783725,"instrument":1,"program":4},{"pitch":60,"velocity":123,"startTime":128.275768,"endTime":128.5343885,"instrument":1,"program":4},{"pitch":64,"velocity":123,"startTime":128.275768,"endTime":128.5343885,"instrument":1,"program":4},{"pitch":67,"velocity":123,"startTime":128.275768,"endTime":128.5343885,"instrument":1,"program":4},{"pitch":60,"velocity":123,"startTime":128.5343885,"endTime":128.66369875,"instrument":1,"program":4},{"pitch":64,"velocity":123,"startTime":128.5343885,"endTime":128.66369875,"instrument":1,"program":4},{"pitch":67,"velocity":123,"startTime":128.5343885,"endTime":128.66369875,"instrument":1,"program":4},{"pitch":60,"velocity":123,"startTime":129.05162950000002,"endTime":129.18093975000002,"instrument":1,"program":4},{"pitch":64,"velocity":123,"startTime":129.05162950000002,"endTime":129.18093975000002,"instrument":1,"program":4},{"pitch":67,"velocity":123,"startTime":129.05162950000002,"endTime":129.18093975000002,"instrument":1,"program":4},{"pitch":59,"velocity":123,"startTime":129.827491,"endTime":129.95680125,"instrument":1,"program":4},{"pitch":62,"velocity":123,"startTime":129.827491,"endTime":129.95680125,"instrument":1,"program":4},{"pitch":67,"velocity":123,"startTime":129.827491,"endTime":129.95680125,"instrument":1,"program":4},{"pitch":60,"velocity":123,"startTime":130.861973,"endTime":130.99128325,"instrument":1,"program":4},{"pitch":64,"velocity":123,"startTime":130.861973,"endTime":130.99128325,"instrument":1,"program":4},{"pitch":67,"velocity":123,"startTime":130.861973,"endTime":130.99128325,"instrument":1,"program":4},{"pitch":60,"velocity":123,"startTime":131.1205935,"endTime":131.24990375000002,"instrument":1,"program":4},{"pitch":64,"velocity":123,"startTime":131.1205935,"endTime":131.24990375000002,"instrument":1,"program":4},{"pitch":67,"velocity":123,"startTime":131.1205935,"endTime":131.24990375000002,"instrument":1,"program":4},{"pitch":60,"velocity":123,"startTime":131.6378345,"endTime":131.76714475,"instrument":1,"program":4},{"pitch":64,"velocity":123,"startTime":131.6378345,"endTime":131.76714475,"instrument":1,"program":4},{"pitch":67,"velocity":123,"startTime":131.6378345,"endTime":131.76714475,"instrument":1,"program":4},{"pitch":33,"velocity":117,"startTime":115.861984,"endTime":116.24991475,"instrument":4,"program":35},{"pitch":45,"velocity":117,"startTime":116.24991475,"endTime":116.379225,"instrument":4,"program":35},{"pitch":33,"velocity":117,"startTime":117.930948,"endTime":118.31887875000001,"instrument":4,"program":35},{"pitch":45,"velocity":117,"startTime":118.31887875000001,"endTime":118.44818900000001,"instrument":4,"program":35},{"pitch":38,"velocity":117,"startTime":119.48267100000001,"endTime":119.87060175,"instrument":4,"program":35},{"pitch":40,"velocity":117,"startTime":119.87060175,"endTime":119.99991200000001,"instrument":4,"program":35},{"pitch":33,"velocity":117,"startTime":119.99991200000001,"endTime":120.38784275,"instrument":4,"program":35},{"pitch":21,"velocity":117,"startTime":120.38784275,"endTime":120.43094616666667,"instrument":4,"program":35},{"pitch":33,"velocity":117,"startTime":122.068876,"endTime":122.45680675000001,"instrument":4,"program":35},{"pitch":21,"velocity":117,"startTime":122.45680675000001,"endTime":122.586117,"instrument":4,"program":35},{"pitch":36,"velocity":117,"startTime":122.586117,"endTime":122.84473750000001,"instrument":4,"program":35},{"pitch":33,"velocity":117,"startTime":124.13784000000001,"endTime":124.52577075,"instrument":4,"program":35},{"pitch":33,"velocity":117,"startTime":124.52577075,"endTime":124.65508100000001,"instrument":4,"program":35},{"pitch":33,"velocity":117,"startTime":126.206804,"endTime":126.59473475,"instrument":4,"program":35},{"pitch":33,"velocity":117,"startTime":126.59473475,"endTime":126.724045,"instrument":4,"program":35},{"pitch":38,"velocity":117,"startTime":126.724045,"endTime":126.98266550000001,"instrument":4,"program":35},{"pitch":33,"velocity":117,"startTime":129.31025,"endTime":129.43956025,"instrument":4,"program":35},{"pitch":33,"velocity":117,"startTime":129.5688705,"endTime":129.827491,"instrument":4,"program":35},{"pitch":33,"velocity":118,"startTime":117.930948,"endTime":118.18956850000001,"instrument":5,"program":87},{"pitch":33,"velocity":118,"startTime":128.275768,"endTime":128.5343885,"instrument":5,"program":87},{"pitch":33,"velocity":118,"startTime":130.344732,"endTime":130.6033525,"instrument":5,"program":87},{"pitch":35,"velocity":105,"startTime":132.41369600000002,"endTime":132.54300625000002,"isDrum":true},{"pitch":42,"velocity":105,"startTime":132.41369600000002,"endTime":132.54300625000002,"isDrum":true},{"pitch":35,"velocity":105,"startTime":134.48266,"endTime":134.61197025,"isDrum":true},{"pitch":42,"velocity":105,"startTime":134.48266,"endTime":134.61197025,"isDrum":true},{"pitch":35,"velocity":105,"startTime":135.517142,"endTime":135.64645225,"isDrum":true},{"pitch":42,"velocity":105,"startTime":135.517142,"endTime":135.64645225,"isDrum":true},{"pitch":35,"velocity":105,"startTime":136.551624,"endTime":136.68093425,"isDrum":true},{"pitch":42,"velocity":105,"startTime":136.551624,"endTime":136.68093425,"isDrum":true},{"pitch":35,"velocity":105,"startTime":137.586106,"endTime":137.71541625,"isDrum":true},{"pitch":42,"velocity":105,"startTime":137.586106,"endTime":137.71541625,"isDrum":true},{"pitch":62,"velocity":123,"startTime":132.6723165,"endTime":132.930937,"instrument":1,"program":4},{"pitch":66,"velocity":123,"startTime":132.6723165,"endTime":132.930937,"instrument":1,"program":4},{"pitch":69,"velocity":123,"startTime":132.6723165,"endTime":132.930937,"instrument":1,"program":4},{"pitch":62,"velocity":123,"startTime":133.1895575,"endTime":133.27576433333337,"instrument":1,"program":4},{"pitch":66,"velocity":123,"startTime":133.1895575,"endTime":133.27576433333337,"instrument":1,"program":4},{"pitch":69,"velocity":123,"startTime":133.1895575,"endTime":133.27576433333337,"instrument":1,"program":4},{"pitch":62,"velocity":123,"startTime":134.2240395,"endTime":134.35334975,"instrument":1,"program":4},{"pitch":66,"velocity":123,"startTime":134.2240395,"endTime":134.35334975,"instrument":1,"program":4},{"pitch":69,"velocity":123,"startTime":134.2240395,"endTime":134.35334975,"instrument":1,"program":4},{"pitch":59,"velocity":123,"startTime":134.74128050000002,"endTime":134.87059075000002,"instrument":1,"program":4},{"pitch":62,"velocity":123,"startTime":134.74128050000002,"endTime":134.87059075000002,"instrument":1,"program":4},{"pitch":66,"velocity":123,"startTime":134.74128050000002,"endTime":134.87059075000002,"instrument":1,"program":4},{"pitch":59,"velocity":123,"startTime":134.999901,"endTime":135.12921125,"instrument":1,"program":4},{"pitch":62,"velocity":123,"startTime":134.999901,"endTime":135.12921125,"instrument":1,"program":4},{"pitch":66,"velocity":123,"startTime":134.999901,"endTime":135.12921125,"instrument":1,"program":4},{"pitch":59,"velocity":123,"startTime":135.2585215,"endTime":135.38783175,"instrument":1,"program":4},{"pitch":62,"velocity":123,"startTime":135.2585215,"endTime":135.38783175,"instrument":1,"program":4},{"pitch":66,"velocity":123,"startTime":135.2585215,"endTime":135.38783175,"instrument":1,"program":4},{"pitch":62,"velocity":123,"startTime":135.517142,"endTime":135.64645225,"instrument":1,"program":4},{"pitch":66,"velocity":123,"startTime":135.517142,"endTime":135.64645225,"instrument":1,"program":4},{"pitch":69,"velocity":123,"startTime":135.517142,"endTime":135.64645225,"instrument":1,"program":4},{"pitch":62,"velocity":123,"startTime":135.7757625,"endTime":135.90507275000002,"instrument":1,"program":4},{"pitch":66,"velocity":123,"startTime":135.7757625,"endTime":135.90507275000002,"instrument":1,"program":4},{"pitch":69,"velocity":123,"startTime":135.7757625,"endTime":135.90507275000002,"instrument":1,"program":4},{"pitch":62,"velocity":123,"startTime":136.03438300000002,"endTime":136.16369325,"instrument":1,"program":4},{"pitch":66,"velocity":123,"startTime":136.03438300000002,"endTime":136.16369325,"instrument":1,"program":4},{"pitch":69,"velocity":123,"startTime":136.03438300000002,"endTime":136.16369325,"instrument":1,"program":4},{"pitch":62,"velocity":123,"startTime":136.2930035,"endTime":136.42231375,"instrument":1,"program":4},{"pitch":66,"velocity":123,"startTime":136.2930035,"endTime":136.42231375,"instrument":1,"program":4},{"pitch":69,"velocity":123,"startTime":136.2930035,"endTime":136.42231375,"instrument":1,"program":4},{"pitch":64,"velocity":123,"startTime":136.8102445,"endTime":136.93955475,"instrument":1,"program":4},{"pitch":67,"velocity":123,"startTime":136.8102445,"endTime":136.93955475,"instrument":1,"program":4},{"pitch":71,"velocity":123,"startTime":136.8102445,"endTime":136.93955475,"instrument":1,"program":4},{"pitch":64,"velocity":123,"startTime":137.06886500000002,"endTime":137.19817525000002,"instrument":1,"program":4},{"pitch":67,"velocity":123,"startTime":137.06886500000002,"endTime":137.19817525000002,"instrument":1,"program":4},{"pitch":71,"velocity":123,"startTime":137.06886500000002,"endTime":137.19817525000002,"instrument":1,"program":4},{"pitch":64,"velocity":123,"startTime":137.3274855,"endTime":137.41369233333336,"instrument":1,"program":4},{"pitch":67,"velocity":123,"startTime":137.3274855,"endTime":137.41369233333336,"instrument":1,"program":4},{"pitch":71,"velocity":123,"startTime":137.3274855,"endTime":137.41369233333336,"instrument":1,"program":4},{"pitch":64,"velocity":123,"startTime":137.8447265,"endTime":137.97403675,"instrument":1,"program":4},{"pitch":67,"velocity":123,"startTime":137.8447265,"endTime":137.97403675,"instrument":1,"program":4},{"pitch":71,"velocity":123,"startTime":137.8447265,"endTime":137.97403675,"instrument":1,"program":4},{"pitch":64,"velocity":123,"startTime":138.103347,"endTime":138.27576066666666,"instrument":1,"program":4},{"pitch":67,"velocity":123,"startTime":138.103347,"endTime":138.27576066666666,"instrument":1,"program":4},{"pitch":71,"velocity":123,"startTime":138.103347,"endTime":138.23265725000002,"instrument":1,"program":4},{"pitch":64,"velocity":123,"startTime":138.36196750000002,"endTime":138.44817433333336,"instrument":1,"program":4},{"pitch":67,"velocity":123,"startTime":138.36196750000002,"endTime":138.49127775,"instrument":1,"program":4},{"pitch":71,"velocity":123,"startTime":138.36196750000002,"endTime":138.49127775,"instrument":1,"program":4},{"pitch":35,"velocity":117,"startTime":135.2585215,"endTime":135.517142,"instrument":4,"program":35},{"pitch":40,"velocity":117,"startTime":135.517142,"endTime":135.7757625,"instrument":4,"program":35},{"pitch":35,"velocity":117,"startTime":135.7757625,"endTime":135.90507275000002,"instrument":4,"program":35},{"pitch":40,"velocity":117,"startTime":136.551624,"endTime":136.68093425,"instrument":4,"program":35},{"pitch":35,"velocity":117,"startTime":136.68093425,"endTime":136.8102445,"instrument":4,"program":35},{"pitch":40,"velocity":117,"startTime":136.8102445,"endTime":136.93955475,"instrument":4,"program":35},{"pitch":40,"velocity":117,"startTime":137.8447265,"endTime":138.103347,"instrument":4,"program":35},{"pitch":45,"velocity":117,"startTime":138.103347,"endTime":138.36196750000002,"instrument":4,"program":35},{"pitch":40,"velocity":117,"startTime":138.36196750000002,"endTime":138.49127775,"instrument":4,"program":35},{"pitch":68,"velocity":128,"startTime":9.310338000000002,"endTime":9.827579,"instrument":8,"program":53},{"pitch":68,"velocity":128,"startTime":9.827579,"endTime":10.34482,"instrument":8,"program":53},{"pitch":66,"velocity":128,"startTime":10.34482,"endTime":10.6034405,"instrument":8,"program":53},{"pitch":68,"velocity":128,"startTime":10.6034405,"endTime":11.1206815,"instrument":8,"program":53},{"pitch":73,"velocity":128,"startTime":11.379302,"endTime":11.6379225,"instrument":8,"program":53},{"pitch":75,"velocity":128,"startTime":11.6379225,"endTime":12.155163499999999,"instrument":8,"program":53},{"pitch":76,"velocity":128,"startTime":12.155163499999999,"endTime":12.672404499999999,"instrument":8,"program":53},{"pitch":72,"velocity":128,"startTime":12.931024999999998,"endTime":13.103438666666666,"instrument":8,"program":53},{"pitch":72,"velocity":128,"startTime":13.1896455,"endTime":13.7068865,"instrument":8,"program":53},{"pitch":74,"velocity":128,"startTime":13.7068865,"endTime":14.224127499999998,"instrument":8,"program":53},{"pitch":71,"velocity":128,"startTime":14.224127499999998,"endTime":14.741368499999997,"instrument":8,"program":53},{"pitch":69,"velocity":128,"startTime":15.258609499999997,"endTime":15.775850499999995,"instrument":8,"program":53},{"pitch":71,"velocity":128,"startTime":15.775850499999995,"endTime":16.293091499999996,"instrument":8,"program":53},{"pitch":68,"velocity":128,"startTime":16.293091499999996,"endTime":16.810332499999994,"instrument":8,"program":53},{"pitch":68,"velocity":128,"startTime":17.586193999999995,"endTime":18.103434999999994,"instrument":8,"program":53},{"pitch":68,"velocity":128,"startTime":18.103434999999994,"endTime":18.620675999999996,"instrument":8,"program":53},{"pitch":66,"velocity":128,"startTime":18.620675999999996,"endTime":18.879296499999995,"instrument":8,"program":53},{"pitch":68,"velocity":128,"startTime":18.879296499999995,"endTime":19.396537499999994,"instrument":8,"program":53},{"pitch":73,"velocity":128,"startTime":19.655157999999993,"endTime":19.913778499999992,"instrument":8,"program":53},{"pitch":75,"velocity":128,"startTime":19.913778499999992,"endTime":20.431019499999994,"instrument":8,"program":53},{"pitch":76,"velocity":128,"startTime":20.431019499999994,"endTime":20.948260499999993,"instrument":8,"program":53},{"pitch":72,"velocity":128,"startTime":21.206880999999992,"endTime":21.37929466666666,"instrument":8,"program":53},{"pitch":72,"velocity":128,"startTime":21.465501499999995,"endTime":21.982742499999997,"instrument":8,"program":53},{"pitch":74,"velocity":128,"startTime":21.982742499999997,"endTime":22.499983499999995,"instrument":8,"program":53},{"pitch":71,"velocity":128,"startTime":22.499983499999995,"endTime":23.017224499999998,"instrument":8,"program":53},{"pitch":69,"velocity":128,"startTime":23.793086,"endTime":24.051706499999998,"instrument":8,"program":53},{"pitch":71,"velocity":128,"startTime":24.051706499999998,"endTime":24.310326999999994,"instrument":8,"program":53},{"pitch":68,"velocity":128,"startTime":24.568947499999993,"endTime":25.086188499999995,"instrument":8,"program":53},{"pitch":68,"velocity":128,"startTime":25.862049999999993,"endTime":26.379290999999995,"instrument":8,"program":53},{"pitch":68,"velocity":128,"startTime":26.379290999999995,"endTime":26.896531999999997,"instrument":8,"program":53},{"pitch":66,"velocity":128,"startTime":26.896531999999997,"endTime":27.155152499999996,"instrument":8,"program":53},{"pitch":68,"velocity":128,"startTime":27.155152499999996,"endTime":27.672393499999995,"instrument":8,"program":53},{"pitch":73,"velocity":128,"startTime":27.931013999999994,"endTime":28.189634499999993,"instrument":8,"program":53},{"pitch":75,"velocity":128,"startTime":28.189634499999993,"endTime":28.706875499999995,"instrument":8,"program":53},{"pitch":76,"velocity":128,"startTime":28.706875499999995,"endTime":28.96549599999999,"instrument":8,"program":53},{"pitch":72,"velocity":128,"startTime":29.482736999999993,"endTime":29.65515066666666,"instrument":8,"program":53},{"pitch":72,"velocity":128,"startTime":29.741357499999996,"endTime":30.258598499999998,"instrument":8,"program":53},{"pitch":74,"velocity":128,"startTime":30.258598499999998,"endTime":30.7758395,"instrument":8,"program":53},{"pitch":71,"velocity":128,"startTime":30.7758395,"endTime":31.2930805,"instrument":8,"program":53},{"pitch":69,"velocity":128,"startTime":32.068942,"endTime":32.3275625,"instrument":8,"program":53},{"pitch":71,"velocity":128,"startTime":32.3275625,"endTime":32.586183,"instrument":8,"program":53},{"pitch":68,"velocity":128,"startTime":32.8448035,"endTime":33.103424,"instrument":8,"program":53},{"pitch":68,"velocity":128,"startTime":34.137905999999994,"endTime":34.65514699999999,"instrument":8,"program":53},{"pitch":68,"velocity":128,"startTime":34.65514699999999,"endTime":35.17238799999999,"instrument":8,"program":53},{"pitch":66,"velocity":128,"startTime":35.17238799999999,"endTime":35.43100849999999,"instrument":8,"program":53},{"pitch":68,"velocity":128,"startTime":35.43100849999999,"endTime":35.948249499999996,"instrument":8,"program":53},{"pitch":73,"velocity":128,"startTime":36.206869999999995,"endTime":36.4654905,"instrument":8,"program":53},{"pitch":75,"velocity":128,"startTime":36.4654905,"endTime":36.98273149999999,"instrument":8,"program":53},{"pitch":76,"velocity":128,"startTime":36.98273149999999,"endTime":37.241352,"instrument":8,"program":53},{"pitch":72,"velocity":128,"startTime":37.758593,"endTime":38.0172135,"instrument":8,"program":53},{"pitch":72,"velocity":128,"startTime":38.0172135,"endTime":38.534454499999995,"instrument":8,"program":53},{"pitch":74,"velocity":128,"startTime":38.534454499999995,"endTime":39.051695499999994,"instrument":8,"program":53},{"pitch":71,"velocity":128,"startTime":39.051695499999994,"endTime":40.08617749999999,"instrument":8,"program":53},{"pitch":79,"velocity":128,"startTime":39.82755699999999,"endTime":40.08617749999999,"instrument":8,"program":53},{"pitch":78,"velocity":128,"startTime":40.08617749999999,"endTime":40.60341849999999,"instrument":8,"program":53},{"pitch":76,"velocity":128,"startTime":40.60341849999999,"endTime":40.862038999999996,"instrument":8,"program":53},{"pitch":74,"velocity":128,"startTime":40.862038999999996,"endTime":41.120659499999995,"instrument":8,"program":53},{"pitch":76,"velocity":128,"startTime":41.120659499999995,"endTime":42.1551415,"instrument":8,"program":53},{"pitch":79,"velocity":128,"startTime":43.965485,"endTime":44.2241055,"instrument":8,"program":53},{"pitch":78,"velocity":128,"startTime":44.2241055,"endTime":44.7413465,"instrument":8,"program":53},{"pitch":76,"velocity":128,"startTime":44.7413465,"endTime":44.999967000000005,"instrument":8,"program":53},{"pitch":74,"velocity":128,"startTime":44.999967000000005,"endTime":45.258587500000004,"instrument":8,"program":53},{"pitch":79,"velocity":128,"startTime":45.258587500000004,"endTime":47.33293942708333,"instrument":8,"program":53},{"pitch":78,"velocity":128,"startTime":47.3275515,"endTime":47.8447925,"instrument":8,"program":53},{"pitch":79,"velocity":128,"startTime":48.103413,"endTime":48.3620335,"instrument":8,"program":53},{"pitch":78,"velocity":128,"startTime":48.3620335,"endTime":48.8792745,"instrument":8,"program":53},{"pitch":76,"velocity":128,"startTime":48.8792745,"endTime":49.137895,"instrument":8,"program":53},{"pitch":74,"velocity":128,"startTime":49.137895,"endTime":49.39651550000001,"instrument":8,"program":53},{"pitch":76,"velocity":128,"startTime":49.39651550000001,"endTime":50.43099750000001,"instrument":8,"program":53},{"pitch":75,"velocity":128,"startTime":50.68961800000001,"endTime":51.724100000000014,"instrument":8,"program":53},{"pitch":73,"velocity":128,"startTime":51.46547950000001,"endTime":52.49996150000001,"instrument":8,"program":53},{"pitch":79,"velocity":128,"startTime":52.24134100000001,"endTime":52.49996150000001,"instrument":8,"program":53},{"pitch":78,"velocity":128,"startTime":52.49996150000001,"endTime":53.01720250000001,"instrument":8,"program":53},{"pitch":76,"velocity":128,"startTime":53.01720250000001,"endTime":53.27582300000001,"instrument":8,"program":53},{"pitch":74,"velocity":128,"startTime":53.27582300000001,"endTime":53.534443500000016,"instrument":8,"program":53},{"pitch":79,"velocity":128,"startTime":53.534443500000016,"endTime":55.608795427083344,"instrument":8,"program":53},{"pitch":78,"velocity":128,"startTime":55.60340750000001,"endTime":56.12064850000001,"instrument":8,"program":53},{"pitch":79,"velocity":128,"startTime":56.63788950000001,"endTime":57.1551305,"instrument":8,"program":53},{"pitch":68,"velocity":128,"startTime":67.24133,"endTime":67.758571,"instrument":8,"program":53},{"pitch":68,"velocity":128,"startTime":67.758571,"endTime":68.275812,"instrument":8,"program":53},{"pitch":66,"velocity":128,"startTime":68.275812,"endTime":68.53443250000001,"instrument":8,"program":53},{"pitch":68,"velocity":128,"startTime":68.53443250000001,"endTime":69.05167349999999,"instrument":8,"program":53},{"pitch":73,"velocity":128,"startTime":69.310294,"endTime":69.5689145,"instrument":8,"program":53},{"pitch":75,"velocity":128,"startTime":69.5689145,"endTime":70.0861555,"instrument":8,"program":53},{"pitch":76,"velocity":128,"startTime":70.0861555,"endTime":70.6033965,"instrument":8,"program":53},{"pitch":72,"velocity":128,"startTime":70.862017,"endTime":71.03443066666667,"instrument":8,"program":53},{"pitch":72,"velocity":128,"startTime":71.1206375,"endTime":71.6378785,"instrument":8,"program":53},{"pitch":74,"velocity":128,"startTime":71.6378785,"endTime":72.1551195,"instrument":8,"program":53},{"pitch":71,"velocity":128,"startTime":72.1551195,"endTime":72.6723605,"instrument":8,"program":53},{"pitch":69,"velocity":128,"startTime":73.18960150000001,"endTime":73.70684250000001,"instrument":8,"program":53},{"pitch":71,"velocity":128,"startTime":73.70684250000001,"endTime":74.22408350000002,"instrument":8,"program":53},{"pitch":68,"velocity":128,"startTime":74.22408350000002,"endTime":74.74132450000002,"instrument":8,"program":53},{"pitch":68,"velocity":128,"startTime":75.51718600000002,"endTime":76.03442700000002,"instrument":8,"program":53},{"pitch":68,"velocity":128,"startTime":76.03442700000002,"endTime":76.55166800000003,"instrument":8,"program":53},{"pitch":66,"velocity":128,"startTime":76.55166800000003,"endTime":76.81028850000003,"instrument":8,"program":53},{"pitch":68,"velocity":128,"startTime":76.81028850000003,"endTime":77.32752950000003,"instrument":8,"program":53},{"pitch":73,"velocity":128,"startTime":77.58615000000003,"endTime":77.84477050000002,"instrument":8,"program":53},{"pitch":75,"velocity":128,"startTime":77.84477050000002,"endTime":78.36201150000002,"instrument":8,"program":53},{"pitch":76,"velocity":128,"startTime":78.36201150000002,"endTime":78.87925250000004,"instrument":8,"program":53},{"pitch":72,"velocity":128,"startTime":79.13787300000003,"endTime":79.3102866666667,"instrument":8,"program":53},{"pitch":72,"velocity":128,"startTime":79.39649350000002,"endTime":79.91373450000003,"instrument":8,"program":53},{"pitch":74,"velocity":128,"startTime":79.91373450000003,"endTime":80.43097550000003,"instrument":8,"program":53},{"pitch":71,"velocity":128,"startTime":80.43097550000003,"endTime":80.94821650000003,"instrument":8,"program":53},{"pitch":69,"velocity":128,"startTime":81.72407800000003,"endTime":81.98269850000003,"instrument":8,"program":53},{"pitch":71,"velocity":128,"startTime":81.98269850000003,"endTime":82.24131900000002,"instrument":8,"program":53},{"pitch":68,"velocity":128,"startTime":82.49993950000002,"endTime":83.01718050000002,"instrument":8,"program":53},{"pitch":68,"velocity":128,"startTime":83.79304200000003,"endTime":84.31028300000003,"instrument":8,"program":53},{"pitch":68,"velocity":128,"startTime":84.31028300000003,"endTime":84.82752400000004,"instrument":8,"program":53},{"pitch":66,"velocity":128,"startTime":84.82752400000004,"endTime":85.08614450000003,"instrument":8,"program":53},{"pitch":68,"velocity":128,"startTime":85.08614450000003,"endTime":85.60338550000003,"instrument":8,"program":53},{"pitch":73,"velocity":128,"startTime":85.86200600000002,"endTime":86.12062650000003,"instrument":8,"program":53},{"pitch":75,"velocity":128,"startTime":86.12062650000003,"endTime":86.63786750000003,"instrument":8,"program":53},{"pitch":76,"velocity":128,"startTime":86.63786750000003,"endTime":86.89648800000002,"instrument":8,"program":53},{"pitch":72,"velocity":128,"startTime":87.41372900000003,"endTime":87.58614266666669,"instrument":8,"program":53},{"pitch":72,"velocity":128,"startTime":87.67234950000002,"endTime":88.18959050000002,"instrument":8,"program":53},{"pitch":74,"velocity":128,"startTime":88.18959050000002,"endTime":88.70683150000004,"instrument":8,"program":53},{"pitch":71,"velocity":128,"startTime":88.70683150000004,"endTime":89.22407250000003,"instrument":8,"program":53},{"pitch":69,"velocity":128,"startTime":89.99993400000004,"endTime":90.25855450000003,"instrument":8,"program":53},{"pitch":71,"velocity":128,"startTime":90.25855450000003,"endTime":90.51717500000002,"instrument":8,"program":53},{"pitch":68,"velocity":128,"startTime":90.77579550000002,"endTime":91.03441600000002,"instrument":8,"program":53},{"pitch":68,"velocity":128,"startTime":92.068898,"endTime":92.58613900000002,"instrument":8,"program":53},{"pitch":68,"velocity":128,"startTime":92.58613900000002,"endTime":93.10338000000002,"instrument":8,"program":53},{"pitch":66,"velocity":128,"startTime":93.10338000000002,"endTime":93.36200050000001,"instrument":8,"program":53},{"pitch":68,"velocity":128,"startTime":93.36200050000001,"endTime":93.87924150000002,"instrument":8,"program":53},{"pitch":73,"velocity":128,"startTime":94.13786200000001,"endTime":94.3964825,"instrument":8,"program":53},{"pitch":75,"velocity":128,"startTime":94.3964825,"endTime":94.91372350000002,"instrument":8,"program":53},{"pitch":76,"velocity":128,"startTime":94.91372350000002,"endTime":95.17234400000001,"instrument":8,"program":53},{"pitch":72,"velocity":128,"startTime":95.68958500000001,"endTime":95.9482055,"instrument":8,"program":53},{"pitch":72,"velocity":128,"startTime":95.9482055,"endTime":96.46544650000001,"instrument":8,"program":53},{"pitch":74,"velocity":128,"startTime":96.46544650000001,"endTime":96.98268750000001,"instrument":8,"program":53},{"pitch":71,"velocity":128,"startTime":96.98268750000001,"endTime":98.01716950000001,"instrument":8,"program":53},{"pitch":79,"velocity":128,"startTime":97.75854900000002,"endTime":98.01716950000001,"instrument":8,"program":53},{"pitch":78,"velocity":128,"startTime":98.01716950000001,"endTime":98.53441050000002,"instrument":8,"program":53},{"pitch":76,"velocity":128,"startTime":98.53441050000002,"endTime":98.79303100000001,"instrument":8,"program":53},{"pitch":74,"velocity":128,"startTime":98.79303100000001,"endTime":99.0516515,"instrument":8,"program":53},{"pitch":76,"velocity":128,"startTime":99.0516515,"endTime":100.0861335,"instrument":8,"program":53},{"pitch":79,"velocity":128,"startTime":101.89647699999999,"endTime":102.15509749999998,"instrument":8,"program":53},{"pitch":78,"velocity":128,"startTime":102.15509749999998,"endTime":102.6723385,"instrument":8,"program":53},{"pitch":76,"velocity":128,"startTime":102.6723385,"endTime":102.93095899999999,"instrument":8,"program":53},{"pitch":74,"velocity":128,"startTime":102.93095899999999,"endTime":103.18957949999998,"instrument":8,"program":53},{"pitch":79,"velocity":128,"startTime":103.18957949999998,"endTime":105.26393142708332,"instrument":8,"program":53},{"pitch":78,"velocity":128,"startTime":105.25854349999999,"endTime":105.77578449999999,"instrument":8,"program":53},{"pitch":79,"velocity":128,"startTime":106.03440499999999,"endTime":106.29302549999998,"instrument":8,"program":53},{"pitch":78,"velocity":128,"startTime":106.29302549999998,"endTime":106.81026649999998,"instrument":8,"program":53},{"pitch":76,"velocity":128,"startTime":106.81026649999998,"endTime":107.06888699999998,"instrument":8,"program":53},{"pitch":74,"velocity":128,"startTime":107.06888699999998,"endTime":107.32750749999998,"instrument":8,"program":53},{"pitch":76,"velocity":128,"startTime":107.32750749999998,"endTime":108.36198949999996,"instrument":8,"program":53},{"pitch":75,"velocity":128,"startTime":108.62060999999996,"endTime":109.65509199999995,"instrument":8,"program":53},{"pitch":73,"velocity":128,"startTime":109.39647149999996,"endTime":110.43095349999996,"instrument":8,"program":53},{"pitch":79,"velocity":128,"startTime":110.17233299999997,"endTime":110.43095349999996,"instrument":8,"program":53},{"pitch":78,"velocity":128,"startTime":110.43095349999996,"endTime":110.94819449999996,"instrument":8,"program":53},{"pitch":76,"velocity":128,"startTime":110.94819449999996,"endTime":111.20681499999996,"instrument":8,"program":53},{"pitch":74,"velocity":128,"startTime":111.20681499999996,"endTime":111.46543549999996,"instrument":8,"program":53},{"pitch":79,"velocity":128,"startTime":111.46543549999996,"endTime":113.5397874270833,"instrument":8,"program":53},{"pitch":78,"velocity":128,"startTime":113.53439949999995,"endTime":114.05164049999996,"instrument":8,"program":53},{"pitch":79,"velocity":128,"startTime":114.56888149999996,"endTime":115.08612249999997,"instrument":8,"program":53},{"pitch":76,"velocity":128,"startTime":116.37922499999998,"endTime":116.89646599999998,"instrument":8,"program":53},{"pitch":79,"velocity":128,"startTime":116.89646599999998,"endTime":117.41370699999999,"instrument":8,"program":53},{"pitch":74,"velocity":128,"startTime":117.41370699999999,"endTime":117.93094799999999,"instrument":8,"program":53},{"pitch":76,"velocity":128,"startTime":117.93094799999999,"endTime":118.448189,"instrument":8,"program":53},{"pitch":76,"velocity":128,"startTime":118.448189,"endTime":118.96543,"instrument":8,"program":53},{"pitch":74,"velocity":128,"startTime":118.96543,"endTime":119.482671,"instrument":8,"program":53},{"pitch":76,"velocity":128,"startTime":119.22405049999999,"endTime":119.74129149999999,"instrument":8,"program":53},{"pitch":74,"velocity":128,"startTime":119.74129149999999,"endTime":119.99991199999998,"instrument":8,"program":53},{"pitch":76,"velocity":128,"startTime":120.51715299999998,"endTime":121.03439399999999,"instrument":8,"program":53},{"pitch":79,"velocity":128,"startTime":121.03439399999999,"endTime":121.55163499999999,"instrument":8,"program":53},{"pitch":74,"velocity":128,"startTime":121.55163499999999,"endTime":122.068876,"instrument":8,"program":53},{"pitch":76,"velocity":128,"startTime":122.068876,"endTime":122.586117,"instrument":8,"program":53},{"pitch":76,"velocity":128,"startTime":122.586117,"endTime":123.10335800000001,"instrument":8,"program":53},{"pitch":74,"velocity":128,"startTime":123.10335800000001,"endTime":123.620599,"instrument":8,"program":53},{"pitch":76,"velocity":128,"startTime":123.3619785,"endTime":123.87921949999999,"instrument":8,"program":53},{"pitch":74,"velocity":128,"startTime":123.87921949999999,"endTime":124.13783999999998,"instrument":8,"program":53},{"pitch":76,"velocity":128,"startTime":124.655081,"endTime":125.172322,"instrument":8,"program":53},{"pitch":79,"velocity":128,"startTime":125.172322,"endTime":125.689563,"instrument":8,"program":53},{"pitch":74,"velocity":128,"startTime":125.689563,"endTime":126.206804,"instrument":8,"program":53},{"pitch":76,"velocity":128,"startTime":126.206804,"endTime":126.72404500000002,"instrument":8,"program":53},{"pitch":76,"velocity":128,"startTime":126.72404500000002,"endTime":127.24128600000002,"instrument":8,"program":53},{"pitch":74,"velocity":128,"startTime":127.24128600000002,"endTime":127.758527,"instrument":8,"program":53},{"pitch":76,"velocity":128,"startTime":127.49990650000001,"endTime":128.0171475,"instrument":8,"program":53},{"pitch":74,"velocity":128,"startTime":128.0171475,"endTime":128.275768,"instrument":8,"program":53},{"pitch":76,"velocity":128,"startTime":128.793009,"endTime":129.31025,"instrument":8,"program":53},{"pitch":79,"velocity":128,"startTime":129.31025,"endTime":129.827491,"instrument":8,"program":53},{"pitch":74,"velocity":128,"startTime":129.827491,"endTime":130.34473200000002,"instrument":8,"program":53},{"pitch":76,"velocity":128,"startTime":130.34473200000002,"endTime":130.86197300000003,"instrument":8,"program":53},{"pitch":76,"velocity":128,"startTime":130.86197300000003,"endTime":131.37921400000002,"instrument":8,"program":53},{"pitch":74,"velocity":128,"startTime":131.37921400000002,"endTime":131.896455,"instrument":8,"program":53},{"pitch":76,"velocity":128,"startTime":131.63783450000003,"endTime":132.1550755,"instrument":8,"program":53},{"pitch":74,"velocity":128,"startTime":132.1550755,"endTime":134.22942742708335,"instrument":8,"program":53}],"totalTime":138.57748458333214,"sourceInfo":{"encodingType":"MIDI","parser":"TONEJS_MIDI_CONVERT"}},"tempo":116,"selectedInstruments":[0,1,3,4,5,8]}},"controls":[{"name":"contentStartTime","value":"1"},{"name":"contentEndTime","value":"269"},{"name":"contentInstrument0","value":"0"},{"name":"contentInstrument1","value":"1"},{"name":"contentInstrument2","value":"2"},{"name":"contentInstrument3","value":"3"},{"name":"contentInstrument4","value":"4"},{"name":"contentTempo","value":"130"},{"name":"styleStartTime","value":"100"},{"name":"styleEndTime","value":"132"},{"name":"styleInstrument0","value":"0"},{"name":"styleInstrument1","value":"1"},{"name":"styleInstrument2","value":"2"},{"name":"styleInstrument3","value":"3"},{"name":"styleInstrument4","value":"4"},{"name":"styleInstrument5","value":"5"},{"name":"styleInstrument6","value":"6"},{"name":"styleInstrument7","value":"7"},{"name":"styleInstrument8","value":"8"},{"name":"styleInstrument9","value":"9"},{"name":"styleTempo","value":"116"},{"name":"modelName","value":"v01_drums"},{"name":"samplingCheckbox","value":"on"},{"name":"samplingTemperature","value":"0.6"},{"name":"outputInstrument0","value":"0"},{"name":"outputInstrument1","value":"1"},{"name":"outputInstrument2","value":"2"},{"name":"outputInstrument3","value":"3"},{"name":"outputInstrument4","value":"4"},{"name":"outputInstrument5","value":"5"},{"name":"outputTempo","value":"116"},{"name":"remixInstrument0","value":"0"},{"name":"remixInstrument1","value":"1"},{"name":"remixInstrument3","value":"3"},{"name":"remixInstrument4","value":"4"},{"name":"remixInstrument5","value":"5"},{"name":"remixInstrument8","value":"8"},{"name":"remixTempo","value":"116"}]}